0, 0, Header, 0, 1, 480
1, 0, Start_track
1, 0, Tempo, 500000
1, 480, Note_on_c, 0, 84, 77
1, 600, Note_on_c, 0, 84, 0
1, 600, Note_on_c, 0, 81, 78
1, 720, Note_on_c, 0, 81, 0
1, 720, Note_on_c, 0, 77, 75
1, 960, Note_on_c, 0, 77, 0
1, 960, Note_on_c, 0, 77, 73
1, 1200, Note_on_c, 0, 77, 0
1, 1200, Note_on_c, 0, 77, 75
1, 1380, Note_on_c, 0, 77, 0
1, 1380, Note_on_c, 0, 76, 77
1, 1440, Note_on_c, 0, 76, 0
1, 1440, Note_on_c, 0, 82, 51
1, 1440, Note_on_c, 1, 72, 50
1, 1440, Note_on_c, 1, 67, 51
1, 1680, Note_on_c, 0, 82, 0
1, 1680, Note_on_c, 1, 72, 0
1, 1680, Note_on_c, 1, 67, 0
1, 2100, Note_on_c, 0, 77, 46
1, 2160, Note_on_c, 0, 77, 0
1, 2160, Note_on_c, 0, 81, 50
1, 2160, Note_on_c, 1, 72, 47
1, 2160, Note_on_c, 1, 65, 51
1, 2400, Note_on_c, 0, 81, 0
1, 2400, Note_on_c, 1, 72, 0
1, 2400, Note_on_c, 1, 65, 0
1, 2820, Note_on_c, 0, 76, 48
1, 2880, Note_on_c, 0, 76, 0
1, 2880, Note_on_c, 0, 79, 48
1, 2880, Note_on_c, 1, 72, 50
1, 2880, Note_on_c, 1, 70, 45
1, 3120, Note_on_c, 0, 79, 0
1, 3120, Note_on_c, 1, 72, 0
1, 3120, Note_on_c, 1, 70, 0
1, 3600, Note_on_c, 0, 77, 75
1, 3600, Note_on_c, 1, 69, 72
1, 3720, Note_on_c, 0, 77, 0
1, 3720, Note_on_c, 0, 79, 76
1, 3840, Note_on_c, 0, 79, 0
1, 3840, Note_on_c, 0, 81, 70
1, 3960, Note_on_c, 0, 81, 0
1, 3960, Note_on_c, 0, 77, 76
1, 4080, Note_on_c, 0, 77, 0
1, 4080, Note_on_c, 0, 72, 72
1, 4200, Note_on_c, 0, 72, 0
1, 4200, Note_on_c, 0, 73, 78
1, 4320, Note_on_c, 0, 73, 0
1, 4320, Note_on_c, 0, 74, 77
1, 4320, Note_on_c, 1, 69, 0
1, 4320, Note_on_c, 1, 70, 74
1, 4440, Note_on_c, 0, 74, 0
1, 4440, Note_on_c, 0, 76, 78
1, 4560, Note_on_c, 0, 76, 0
1, 4560, Note_on_c, 0, 77, 78
1, 4560, Note_on_c, 1, 70, 0
1, 4680, Note_on_c, 0, 77, 0
1, 4680, Note_on_c, 0, 74, 76
1, 4800, Note_on_c, 0, 74, 0
1, 4800, Note_on_c, 0, 67, 71
1, 4920, Note_on_c, 0, 67, 0
1, 4920, Note_on_c, 0, 69, 76
1, 5040, Note_on_c, 0, 69, 0
1, 5040, Note_on_c, 0, 70, 73
1, 5040, Note_on_c, 1, 55, 70
1, 5160, Note_on_c, 0, 70, 0
1, 5160, Note_on_c, 0, 72, 70
1, 5280, Note_on_c, 0, 72, 0
1, 5280, Note_on_c, 0, 74, 78
1, 5280, Note_on_c, 1, 55, 0
1, 5280, Note_on_c, 1, 58, 70
1, 5400, Note_on_c, 0, 74, 0
1, 5400, Note_on_c, 0, 70, 77
1, 5520, Note_on_c, 0, 70, 0
1, 5520, Note_on_c, 0, 62, 72
1, 5520, Note_on_c, 1, 58, 0
1, 5520, Note_on_c, 1, 59, 73
1, 5640, Note_on_c, 0, 62, 0
1, 5640, Note_on_c, 0, 65, 70
1, 5760, Note_on_c, 0, 65, 0
1, 5760, Note_on_c, 0, 64, 75
1, 5760, Note_on_c, 1, 59, 0
1, 5760, Note_on_c, 1, 60, 72
1, 5880, Note_on_c, 0, 64, 0
1, 5880, Note_on_c, 0, 65, 71
1, 6000, Note_on_c, 0, 65, 0
1, 6000, Note_on_c, 0, 67, 79
1, 6000, Note_on_c, 1, 60, 0
1, 6120, Note_on_c, 0, 67, 0
1, 6120, Note_on_c, 0, 64, 70
1, 6240, Note_on_c, 0, 64, 0
1, 6240, Note_on_c, 0, 72, 70
1, 6360, Note_on_c, 0, 72, 0
1, 6360, Note_on_c, 0, 69, 76
1, 6480, Note_on_c, 0, 69, 0
1, 6480, Note_on_c, 0, 65, 72
1, 6720, Note_on_c, 0, 65, 0
1, 6720, Note_on_c, 0, 65, 78
1, 6960, Note_on_c, 0, 65, 0
1, 6960, Note_on_c, 0, 65, 73
1, 7140, Note_on_c, 0, 65, 0
1, 7140, Note_on_c, 0, 64, 74
1, 7200, Note_on_c, 0, 64, 0
1, 7200, Note_on_c, 0, 70, 48
1, 7200, Note_on_c, 1, 55, 53
1, 7200, Note_on_c, 1, 60, 46
1, 7440, Note_on_c, 0, 70, 0
1, 7440, Note_on_c, 1, 55, 0
1, 7440, Note_on_c, 1, 60, 0
1, 7860, Note_on_c, 0, 65, 51
1, 7920, Note_on_c, 0, 65, 0
1, 7920, Note_on_c, 0, 69, 51
1, 7920, Note_on_c, 1, 53, 49
1, 7920, Note_on_c, 1, 60, 46
1, 8160, Note_on_c, 0, 69, 0
1, 8160, Note_on_c, 1, 53, 0
1, 8160, Note_on_c, 1, 60, 0
1, 8580, Note_on_c, 0, 64, 45
1, 8640, Note_on_c, 0, 64, 0
1, 8640, Note_on_c, 0, 67, 53
1, 8640, Note_on_c, 1, 60, 47
1, 8640, Note_on_c, 1, 58, 45
1, 8880, Note_on_c, 0, 67, 0
1, 8880, Note_on_c, 1, 60, 0
1, 8880, Note_on_c, 1, 58, 0
1, 9360, Note_on_c, 0, 65, 77
1, 9360, Note_on_c, 1, 45, 75
1, 9360, Note_on_c, 1, 57, 77
1, 9480, Note_on_c, 0, 65, 0
1, 9480, Note_on_c, 0, 67, 78
1, 9600, Note_on_c, 0, 67, 0
1, 9600, Note_on_c, 0, 69, 74
1, 9720, Note_on_c, 0, 69, 0
1, 9720, Note_on_c, 0, 70, 72
1, 9840, Note_on_c, 0, 70, 0
1, 9840, Note_on_c, 0, 72, 79
1, 9960, Note_on_c, 0, 72, 0
1, 9960, Note_on_c, 0, 73, 79
1, 10080, Note_on_c, 0, 73, 0
1, 10080, Note_on_c, 0, 74, 75
1, 10080, Note_on_c, 1, 45, 0
1, 10080, Note_on_c, 1, 57, 0
1, 10080, Note_on_c, 1, 58, 70
1, 10080, Note_on_c, 1, 46, 75
1, 10200, Note_on_c, 0, 74, 0
1, 10200, Note_on_c, 0, 76, 73
1, 10320, Note_on_c, 0, 76, 0
1, 10320, Note_on_c, 0, 77, 77
1, 10320, Note_on_c, 1, 58, 0
1, 10320, Note_on_c, 1, 46, 0
1, 10440, Note_on_c, 0, 77, 0
1, 10440, Note_on_c, 0, 79, 70
1, 10560, Note_on_c, 0, 79, 0
1, 10560, Note_on_c, 0, 81, 72
1, 10680, Note_on_c, 0, 81, 0
1, 10680, Note_on_c, 0, 82, 76
1, 10800, Note_on_c, 0, 82, 0
1, 10800, Note_on_c, 0, 84, 73
1, 11040, Note_on_c, 0, 84, 0
1, 11040, Note_on_c, 0, 69, 70
1, 11040, Note_on_c, 0, 77, 72
1, 11040, Note_on_c, 1, 60, 71
1, 11280, Note_on_c, 0, 69, 0
1, 11280, Note_on_c, 0, 77, 0
1, 11280, Note_on_c, 0, 76, 74
1, 11280, Note_on_c, 0, 67, 72
1, 11280, Note_on_c, 1, 60, 0
1, 11280, Note_on_c, 1, 48, 71
1, 11520, Note_on_c, 0, 76, 0
1, 11520, Note_on_c, 0, 67, 0
1, 11520, Note_on_c, 0, 69, 73
1, 11520, Note_on_c, 0, 77, 79
1, 11520, Note_on_c, 1, 48, 0
1, 11520, Note_on_c, 1, 53, 76
1, 11760, Note_on_c, 1, 53, 0
1, 11760, Note_on_c, 1, 41, 70
1, 12000, Note_on_c, 0, 69, 0
1, 12000, Note_on_c, 0, 77, 0
1, 12000, Note_on_c, 1, 41, 0
1, 12000, Note_on_c, 1, 41, 72
1, 12240, Note_on_c, 0, 62, 50
1, 12240, Note_on_c, 0, 70, 50
1, 12240, Note_on_c, 1, 41, 0
1, 12240, Note_on_c, 1, 41, 48
1, 12480, Note_on_c, 0, 62, 0
1, 12480, Note_on_c, 0, 70, 0
1, 12480, Note_on_c, 0, 69, 48
1, 12480, Note_on_c, 0, 60, 47
1, 12480, Note_on_c, 1, 41, 0
1, 12480, Note_on_c, 1, 41, 48
1, 12720, Note_on_c, 0, 69, 0
1, 12720, Note_on_c, 0, 60, 0
1, 12720, Note_on_c, 0, 58, 54
1, 12720, Note_on_c, 0, 67, 49
1, 12720, Note_on_c, 1, 41, 0
1, 12720, Note_on_c, 1, 41, 47
1, 12960, Note_on_c, 0, 58, 0
1, 12960, Note_on_c, 0, 67, 0
1, 12960, Note_on_c, 0, 58, 45
1, 12960, Note_on_c, 0, 67, 45
1, 12960, Note_on_c, 1, 41, 0
1, 12960, Note_on_c, 1, 41, 54
1, 13200, Note_on_c, 0, 58, 0
1, 13200, Note_on_c, 0, 67, 0
1, 13200, Note_on_c, 0, 57, 51
1, 13200, Note_on_c, 0, 65, 53
1, 13200, Note_on_c, 1, 41, 0
1, 13200, Note_on_c, 1, 41, 49
1, 13440, Note_on_c, 0, 57, 0
1, 13440, Note_on_c, 0, 65, 0
1, 13440, Note_on_c, 0, 65, 49
1, 13440, Note_on_c, 0, 57, 48
1, 13440, Note_on_c, 1, 41, 0
1, 13440, Note_on_c, 1, 41, 52
1, 13680, Note_on_c, 0, 65, 0
1, 13680, Note_on_c, 0, 57, 0
1, 13680, Note_on_c, 0, 65, 49
1, 13680, Note_on_c, 0, 57, 51
1, 13680, Note_on_c, 1, 41, 0
1, 13680, Note_on_c, 1, 41, 53
1, 13920, Note_on_c, 0, 65, 0
1, 13920, Note_on_c, 0, 57, 0
1, 13920, Note_on_c, 0, 67, 52
1, 13920, Note_on_c, 0, 58, 51
1, 13920, Note_on_c, 1, 41, 0
1, 13920, Note_on_c, 1, 41, 54
1, 14160, Note_on_c, 0, 67, 0
1, 14160, Note_on_c, 0, 58, 0
1, 14160, Note_on_c, 0, 55, 53
1, 14160, Note_on_c, 0, 64, 46
1, 14160, Note_on_c, 1, 41, 0
1, 14160, Note_on_c, 1, 41, 48
1, 14400, Note_on_c, 0, 55, 0
1, 14400, Note_on_c, 0, 64, 0
1, 14400, Note_on_c, 0, 65, 54
1, 14400, Note_on_c, 0, 57, 45
1, 14400, Note_on_c, 1, 41, 0
1, 14400, Note_on_c, 1, 41, 54
1, 14640, Note_on_c, 0, 65, 0
1, 14640, Note_on_c, 0, 57, 0
1, 14640, Note_on_c, 1, 41, 0
1, 14640, Note_on_c, 1, 53, 48
1, 14880, Note_on_c, 1, 53, 0
1, 14880, Note_on_c, 1, 53, 47
1, 15120, Note_on_c, 0, 70, 49
1, 15120, Note_on_c, 0, 74, 45
1, 15120, Note_on_c, 1, 53, 0
1, 15120, Note_on_c, 1, 53, 47
1, 15360, Note_on_c, 0, 70, 0
1, 15360, Note_on_c, 0, 74, 0
1, 15360, Note_on_c, 0, 72, 50
1, 15360, Note_on_c, 0, 69, 51
1, 15360, Note_on_c, 1, 53, 0
1, 15360, Note_on_c, 1, 53, 54
1, 15600, Note_on_c, 0, 72, 0
1, 15600, Note_on_c, 0, 69, 0
1, 15600, Note_on_c, 0, 67, 46
1, 15600, Note_on_c, 0, 70, 54
1, 15600, Note_on_c, 1, 53, 0
1, 15600, Note_on_c, 1, 53, 47
1, 15840, Note_on_c, 0, 67, 0
1, 15840, Note_on_c, 0, 70, 0
1, 15840, Note_on_c, 0, 67, 46
1, 15840, Note_on_c, 0, 70, 53
1, 15840, Note_on_c, 1, 53, 0
1, 15840, Note_on_c, 1, 53, 52
1, 16080, Note_on_c, 0, 67, 0
1, 16080, Note_on_c, 0, 70, 0
1, 16080, Note_on_c, 0, 65, 53
1, 16080, Note_on_c, 0, 69, 47
1, 16080, Note_on_c, 1, 53, 0
1, 16080, Note_on_c, 1, 53, 50
1, 16320, Note_on_c, 0, 65, 0
1, 16320, Note_on_c, 0, 69, 0
1, 16320, Note_on_c, 0, 69, 45
1, 16320, Note_on_c, 0, 65, 53
1, 16320, Note_on_c, 1, 53, 0
1, 16320, Note_on_c, 1, 53, 51
1, 16560, Note_on_c, 0, 69, 0
1, 16560, Note_on_c, 0, 65, 0
1, 16560, Note_on_c, 0, 69, 53
1, 16560, Note_on_c, 0, 65, 50
1, 16560, Note_on_c, 1, 53, 0
1, 16560, Note_on_c, 1, 53, 48
1, 16800, Note_on_c, 0, 69, 0
1, 16800, Note_on_c, 0, 65, 0
1, 16800, Note_on_c, 0, 67, 49
1, 16800, Note_on_c, 0, 70, 52
1, 16800, Note_on_c, 1, 53, 0
1, 16800, Note_on_c, 1, 53, 53
1, 17040, Note_on_c, 0, 67, 0
1, 17040, Note_on_c, 0, 70, 0
1, 17040, Note_on_c, 0, 64, 48
1, 17040, Note_on_c, 0, 67, 48
1, 17040, Note_on_c, 1, 53, 0
1, 17040, Note_on_c, 1, 53, 53
1, 17280, Note_on_c, 0, 64, 0
1, 17280, Note_on_c, 0, 67, 0
1, 17280, Note_on_c, 0, 69, 49
1, 17280, Note_on_c, 0, 65, 50
1, 17280, Note_on_c, 1, 53, 0
1, 17280, Note_on_c, 1, 53, 51
1, 17520, Note_on_c, 0, 69, 0
1, 17520, Note_on_c, 0, 65, 0
1, 17520, Note_on_c, 1, 53, 0
1, 17520, Note_on_c, 1, 53, 50
1, 17760, Note_on_c, 1, 53, 0
1, 17760, Note_on_c, 1, 53, 47
1, 18000, Note_on_c, 1, 53, 0
1, 18000, Note_on_c, 1, 65, 75
1, 18120, Note_on_c, 0, 69, 79
1, 18240, Note_on_c, 0, 69, 0
1, 18240, Note_on_c, 0, 74, 73
1, 18240, Note_on_c, 1, 65, 0
1, 18360, Note_on_c, 0, 74, 0
1, 18360, Note_on_c, 0, 77, 78
1, 18480, Note_on_c, 0, 77, 0
1, 18480, Note_on_c, 0, 81, 72
1, 18600, Note_on_c, 1, 65, 79
1, 18720, Note_on_c, 0, 81, 0
1, 18720, Note_on_c, 1, 65, 0
1, 18720, Note_on_c, 1, 64, 73
1, 18840, Note_on_c, 0, 67, 79
1, 18960, Note_on_c, 0, 67, 0
1, 18960, Note_on_c, 0, 72, 70
1, 18960, Note_on_c, 1, 64, 0
1, 19080, Note_on_c, 0, 72, 0
1, 19080, Note_on_c, 0, 76, 75
1, 19200, Note_on_c, 0, 76, 0
1, 19200, Note_on_c, 0, 79, 74
1, 19320, Note_on_c, 1, 64, 71
1, 19440, Note_on_c, 0, 79, 0
1, 19440, Note_on_c, 1, 64, 0
1, 19440, Note_on_c, 1, 62, 74
1, 19560, Note_on_c, 0, 65, 75
1, 19680, Note_on_c, 0, 65, 0
1, 19680, Note_on_c, 0, 71, 75
1, 19680, Note_on_c, 1, 62, 0
1, 19800, Note_on_c, 0, 71, 0
1, 19800, Note_on_c, 0, 74, 78
1, 19920, Note_on_c, 0, 74, 0
1, 19920, Note_on_c, 0, 77, 75
1, 20040, Note_on_c, 1, 62, 71
1, 20160, Note_on_c, 0, 77, 0
1, 20160, Note_on_c, 1, 62, 0
1, 20160, Note_on_c, 1, 60, 73
1, 20280, Note_on_c, 0, 64, 74
1, 20400, Note_on_c, 0, 64, 0
1, 20400, Note_on_c, 0, 67, 70
1, 20400, Note_on_c, 1, 60, 0
1, 20520, Note_on_c, 0, 67, 0
1, 20520, Note_on_c, 0, 72, 73
1, 20640, Note_on_c, 0, 72, 0
1, 20640, Note_on_c, 0, 76, 72
1, 20760, Note_on_c, 1, 60, 75
1, 20880, Note_on_c, 0, 76, 0
1, 20880, Note_on_c, 1, 60, 0
1, 20880, Note_on_c, 1, 65, 72
1, 21000, Note_on_c, 0, 69, 70
1, 21120, Note_on_c, 0, 69, 0
1, 21120, Note_on_c, 0, 74, 76
1, 21240, Note_on_c, 0, 74, 0
1, 21240, Note_on_c, 0, 73, 78
1, 21360, Note_on_c, 0, 73, 0
1, 21360, Note_on_c, 0, 76, 76
1, 21360, Note_on_c, 1, 65, 0
1, 21480, Note_on_c, 0, 76, 0
1, 21480, Note_on_c, 0, 74, 71
1, 21600, Note_on_c, 0, 74, 0
1, 21600, Note_on_c, 0, 77, 72
1, 21720, Note_on_c, 0, 77, 0
1, 21720, Note_on_c, 0, 76, 70
1, 21840, Note_on_c, 0, 76, 0
1, 21840, Note_on_c, 0, 79, 75
1, 21960, Note_on_c, 0, 79, 0
1, 21960, Note_on_c, 0, 77, 74
1, 22080, Note_on_c, 0, 77, 0
1, 22080, Note_on_c, 0, 81, 78
1, 22200, Note_on_c, 0, 81, 0
1, 22200, Note_on_c, 0, 80, 79
1, 22320, Note_on_c, 0, 80, 0
1, 22320, Note_on_c, 0, 81, 79
1, 22560, Note_on_c, 0, 81, 0
1, 22800, Note_on_c, 0, 72, 54
1, 22800, Note_on_c, 0, 64, 46
1, 22800, Note_on_c, 1, 54, 47
1, 23040, Note_on_c, 0, 72, 0
1, 23040, Note_on_c, 0, 64, 0
1, 23040, Note_on_c, 0, 71, 46
1, 23040, Note_on_c, 0, 62, 45
1, 23040, Note_on_c, 1, 54, 0
1, 23040, Note_on_c, 1, 55, 53
1, 23280, Note_on_c, 0, 71, 0
1, 23280, Note_on_c, 0, 62, 0
1, 23280, Note_on_c, 1, 55, 0
1, 23520, Note_on_c, 1, 42, 75
1, 23760, Note_on_c, 1, 42, 0
1, 23760, Note_on_c, 1, 43, 75
1, 24000, Note_on_c, 1, 43, 0
1, 24240, Note_on_c, 0, 84, 49
1, 24240, Note_on_c, 0, 76, 51
1, 24240, Note_on_c, 1, 66, 54
1, 24480, Note_on_c, 0, 84, 0
1, 24480, Note_on_c, 0, 76, 0
1, 24480, Note_on_c, 0, 83, 48
1, 24480, Note_on_c, 0, 74, 48
1, 24480, Note_on_c, 1, 66, 0
1, 24480, Note_on_c, 1, 67, 50
1, 24720, Note_on_c, 0, 83, 0
1, 24720, Note_on_c, 0, 74, 0
1, 24720, Note_on_c, 1, 67, 0
1, 24960, Note_on_c, 1, 78, 75
1, 25200, Note_on_c, 1, 78, 0
1, 25200, Note_on_c, 1, 79, 73
1, 25440, Note_on_c, 1, 79, 0
1, 25680, Note_on_c, 0, 72, 53
1, 25680, Note_on_c, 0, 64, 48
1, 25680, Note_on_c, 1, 54, 54
1, 25920, Note_on_c, 0, 72, 0
1, 25920, Note_on_c, 0, 64, 0
1, 25920, Note_on_c, 0, 71, 48
1, 25920, Note_on_c, 0, 62, 53
1, 25920, Note_on_c, 1, 54, 0
1, 25920, Note_on_c, 1, 55, 49
1, 26160, Note_on_c, 0, 71, 0
1, 26160, Note_on_c, 0, 62, 0
1, 26160, Note_on_c, 1, 55, 0
1, 26400, Note_on_c, 1, 42, 75
1, 26640, Note_on_c, 1, 42, 0
1, 26640, Note_on_c, 1, 43, 74
1, 26880, Note_on_c, 1, 43, 0
1, 27360, Note_on_c, 0, 77, 47
1, 27720, Note_on_c, 0, 77, 0
1, 27720, Note_on_c, 0, 77, 53
1, 27840, Note_on_c, 0, 77, 0
1, 27840, Note_on_c, 0, 77, 50
1, 27960, Note_on_c, 0, 77, 0
1, 27960, Note_on_c, 0, 77, 46
1, 28020, Note_on_c, 0, 77, 0
1, 28020, Note_on_c, 0, 79, 46
1, 28080, Note_on_c, 0, 79, 0
1, 28080, Note_on_c, 0, 81, 54
1, 28440, Note_on_c, 0, 81, 0
1, 28440, Note_on_c, 0, 79, 48
1, 28560, Note_on_c, 0, 79, 0
1, 28560, Note_on_c, 0, 77, 52
1, 28800, Note_on_c, 0, 77, 0
1, 28800, Note_on_c, 0, 77, 47
1, 29160, Note_on_c, 0, 77, 0
1, 29160, Note_on_c, 0, 77, 48
1, 29280, Note_on_c, 0, 77, 0
1, 29280, Note_on_c, 0, 77, 51
1, 29400, Note_on_c, 0, 77, 0
1, 29400, Note_on_c, 0, 77, 50
1, 29460, Note_on_c, 0, 77, 0
1, 29460, Note_on_c, 0, 79, 50
1, 29520, Note_on_c, 0, 79, 0
1, 29520, Note_on_c, 0, 81, 54
1, 29880, Note_on_c, 0, 81, 0
1, 29880, Note_on_c, 0, 79, 49
1, 30000, Note_on_c, 0, 79, 0
1, 30000, Note_on_c, 0, 77, 49
1, 30240, Note_on_c, 0, 77, 0
1, 30240, Note_on_c, 0, 76, 52
1, 30240, Note_on_c, 1, 60, 45
1, 30360, Note_on_c, 1, 60, 0
1, 30360, Note_on_c, 1, 67, 54
1, 30480, Note_on_c, 0, 76, 0
1, 30480, Note_on_c, 1, 67, 0
1, 30480, Note_on_c, 1, 64, 53
1, 30600, Note_on_c, 1, 64, 0
1, 30600, Note_on_c, 1, 67, 53
1, 30720, Note_on_c, 0, 76, 45
1, 30720, Note_on_c, 1, 67, 0
1, 30720, Note_on_c, 1, 60, 53
1, 30840, Note_on_c, 1, 60, 0
1, 30840, Note_on_c, 1, 67, 45
1, 30960, Note_on_c, 0, 76, 0
1, 30960, Note_on_c, 0, 79, 84
1, 30960, Note_on_c, 1, 67, 0
1, 30960, Note_on_c, 1, 59, 84
1, 31080, Note_on_c, 1, 59, 0
1, 31080, Note_on_c, 1, 67, 53
1, 31200, Note_on_c, 1, 67, 0
1, 31200, Note_on_c, 1, 62, 48
1, 31320, Note_on_c, 1, 62, 0
1, 31320, Note_on_c, 1, 67, 47
1, 31440, Note_on_c, 0, 79, 0
1, 31440, Note_on_c, 0, 77, 52
1, 31440, Note_on_c, 1, 67, 0
1, 31440, Note_on_c, 1, 59, 53
1, 31560, Note_on_c, 1, 59, 0
1, 31560, Note_on_c, 1, 67, 46
1, 31680, Note_on_c, 0, 77, 0
1, 31680, Note_on_c, 0, 76, 46
1, 31680, Note_on_c, 1, 67, 0
1, 31680, Note_on_c, 1, 60, 54
1, 31800, Note_on_c, 1, 60, 0
1, 31800, Note_on_c, 1, 67, 50
1, 31920, Note_on_c, 0, 76, 0
1, 31920, Note_on_c, 1, 67, 0
1, 31920, Note_on_c, 1, 64, 50
1, 32040, Note_on_c, 1, 64, 0
1, 32040, Note_on_c, 1, 67, 47
1, 32160, Note_on_c, 0, 76, 45
1, 32160, Note_on_c, 1, 67, 0
1, 32160, Note_on_c, 1, 60, 51
1, 32280, Note_on_c, 1, 60, 0
1, 32280, Note_on_c, 1, 67, 54
1, 32400, Note_on_c, 0, 76, 0
1, 32400, Note_on_c, 0, 79, 88
1, 32400, Note_on_c, 1, 67, 0
1, 32400, Note_on_c, 1, 59, 84
1, 32520, Note_on_c, 1, 59, 0
1, 32520, Note_on_c, 1, 67, 47
1, 32640, Note_on_c, 1, 67, 0
1, 32640, Note_on_c, 1, 62, 46
1, 32760, Note_on_c, 1, 62, 0
1, 32760, Note_on_c, 1, 67, 47
1, 32880, Note_on_c, 0, 79, 0
1, 32880, Note_on_c, 0, 77, 52
1, 32880, Note_on_c, 1, 67, 0
1, 32880, Note_on_c, 1, 59, 48
1, 33000, Note_on_c, 1, 59, 0
1, 33000, Note_on_c, 1, 67, 50
1, 33120, Note_on_c, 0, 77, 0
1, 33120, Note_on_c, 0, 76, 50
1, 33120, Note_on_c, 1, 67, 0
1, 33120, Note_on_c, 1, 60, 51
1, 33240, Note_on_c, 1, 60, 0
1, 33240, Note_on_c, 1, 64, 45
1, 33360, Note_on_c, 0, 76, 0
1, 33360, Note_on_c, 1, 64, 0
1, 33360, Note_on_c, 1, 67, 50
1, 33480, Note_on_c, 1, 67, 0
1, 33480, Note_on_c, 1, 72, 46
1, 33600, Note_on_c, 0, 76, 53
1, 33600, Note_on_c, 1, 72, 0
1, 33600, Note_on_c, 1, 71, 51
1, 33720, Note_on_c, 1, 71, 0
1, 33720, Note_on_c, 1, 72, 47
1, 33840, Note_on_c, 0, 76, 0
1, 33840, Note_on_c, 0, 79, 75
1, 33840, Note_on_c, 1, 72, 0
1, 33840, Note_on_c, 1, 72, 73
1, 33840, Note_on_c, 1, 69, 70
1, 34080, Note_on_c, 0, 79, 0
1, 34080, Note_on_c, 0, 77, 76
1, 34320, Note_on_c, 0, 77, 0
1, 34320, Note_on_c, 0, 76, 88
1, 34320, Note_on_c, 1, 72, 0
1, 34320, Note_on_c, 1, 69, 0
1, 34320, Note_on_c, 1, 67, 87
1, 34320, Note_on_c, 1, 71, 87
1, 34560, Note_on_c, 0, 76, 0
1, 34560, Note_on_c, 0, 76, 88
1, 34560, Note_on_c, 1, 67, 0
1, 34560, Note_on_c, 1, 71, 0
1, 34560, Note_on_c, 1, 65, 78
1, 34560, Note_on_c, 1, 69, 88
1, 34800, Note_on_c, 0, 76, 0
1, 34800, Note_on_c, 0, 74, 85
1, 35040, Note_on_c, 0, 74, 0
1, 35040, Note_on_c, 0, 72, 85
1, 35040, Note_on_c, 1, 65, 0
1, 35040, Note_on_c, 1, 69, 0
1, 35040, Note_on_c, 1, 66, 86
1, 35280, Note_on_c, 0, 72, 0
1, 35280, Note_on_c, 0, 74, 50
1, 35280, Note_on_c, 1, 66, 0
1, 35280, Note_on_c, 1, 67, 50
1, 35340, Note_on_c, 0, 74, 0
1, 35340, Note_on_c, 0, 72, 45
1, 35400, Note_on_c, 0, 72, 0
1, 35400, Note_on_c, 0, 74, 54
1, 35460, Note_on_c, 0, 74, 0
1, 35460, Note_on_c, 0, 72, 49
1, 35520, Note_on_c, 0, 72, 0
1, 35520, Note_on_c, 0, 74, 54
1, 35520, Note_on_c, 1, 67, 0
1, 35580, Note_on_c, 0, 74, 0
1, 35580, Note_on_c, 0, 72, 47
1, 35640, Note_on_c, 0, 72, 0
1, 35640, Note_on_c, 0, 74, 47
1, 35760, Note_on_c, 0, 74, 0
1, 35760, Note_on_c, 0, 71, 47
1, 36000, Note_on_c, 0, 71, 0
1, 36000, Note_on_c, 0, 77, 47
1, 36000, Note_on_c, 1, 62, 51
1, 36360, Note_on_c, 0, 77, 0
1, 36360, Note_on_c, 0, 77, 54
1, 36360, Note_on_c, 1, 62, 0
1, 36360, Note_on_c, 1, 62, 45
1, 36480, Note_on_c, 0, 77, 0
1, 36480, Note_on_c, 0, 77, 47
1, 36480, Note_on_c, 1, 62, 0
1, 36480, Note_on_c, 1, 62, 52
1, 36600, Note_on_c, 0, 77, 0
1, 36600, Note_on_c, 0, 77, 47
1, 36600, Note_on_c, 1, 62, 0
1, 36600, Note_on_c, 1, 62, 45
1, 36660, Note_on_c, 0, 77, 0
1, 36660, Note_on_c, 0, 79, 51
1, 36660, Note_on_c, 1, 62, 0
1, 36660, Note_on_c, 1, 64, 45
1, 36720, Note_on_c, 0, 79, 0
1, 36720, Note_on_c, 0, 81, 47
1, 36720, Note_on_c, 1, 64, 0
1, 36720, Note_on_c, 1, 65, 52
1, 37080, Note_on_c, 0, 81, 0
1, 37080, Note_on_c, 0, 79, 50
1, 37080, Note_on_c, 1, 65, 0
1, 37080, Note_on_c, 1, 64, 51
1, 37200, Note_on_c, 0, 79, 0
1, 37200, Note_on_c, 0, 77, 46
1, 37200, Note_on_c, 1, 64, 0
1, 37200, Note_on_c, 1, 62, 50
1, 37440, Note_on_c, 0, 77, 0
1, 37440, Note_on_c, 0, 77, 48
1, 37440, Note_on_c, 1, 62, 0
1, 37440, Note_on_c, 1, 62, 48
1, 37800, Note_on_c, 0, 77, 0
1, 37800, Note_on_c, 0, 77, 51
1, 37800, Note_on_c, 1, 62, 0
1, 37800, Note_on_c, 1, 62, 46
1, 37920, Note_on_c, 0, 77, 0
1, 37920, Note_on_c, 0, 77, 53
1, 37920, Note_on_c, 1, 62, 0
1, 37920, Note_on_c, 1, 62, 45
1, 38040, Note_on_c, 0, 77, 0
1, 38040, Note_on_c, 0, 77, 46
1, 38040, Note_on_c, 1, 62, 0
1, 38040, Note_on_c, 1, 62, 49
1, 38100, Note_on_c, 0, 77, 0
1, 38100, Note_on_c, 0, 79, 47
1, 38100, Note_on_c, 1, 62, 0
1, 38100, Note_on_c, 1, 64, 49
1, 38160, Note_on_c, 0, 79, 0
1, 38160, Note_on_c, 0, 81, 49
1, 38160, Note_on_c, 1, 64, 0
1, 38160, Note_on_c, 1, 65, 53
1, 38520, Note_on_c, 0, 81, 0
1, 38520, Note_on_c, 0, 79, 47
1, 38520, Note_on_c, 1, 65, 0
1, 38520, Note_on_c, 1, 64, 50
1, 38640, Note_on_c, 0, 79, 0
1, 38640, Note_on_c, 0, 77, 50
1, 38640, Note_on_c, 1, 64, 0
1, 38640, Note_on_c, 1, 62, 48
1, 38880, Note_on_c, 0, 77, 0
1, 38880, Note_on_c, 0, 76, 51
1, 38880, Note_on_c, 1, 62, 0
1, 38880, Note_on_c, 1, 60, 54
1, 39000, Note_on_c, 0, 76, 0
1, 39000, Note_on_c, 0, 72, 51
1, 39120, Note_on_c, 0, 72, 0
1, 39120, Note_on_c, 0, 67, 53
1, 39120, Note_on_c, 1, 60, 0
1, 39240, Note_on_c, 0, 67, 0
1, 39240, Note_on_c, 0, 72, 54
1, 39360, Note_on_c, 0, 72, 0
1, 39360, Note_on_c, 0, 76, 53
1, 39480, Note_on_c, 0, 76, 0
1, 39480, Note_on_c, 0, 72, 45
1, 39600, Note_on_c, 0, 72, 0
1, 39600, Note_on_c, 0, 79, 84
1, 39600, Note_on_c, 1, 59, 86
1, 39600, Note_on_c, 1, 47, 83
1, 39720, Note_on_c, 0, 79, 0
1, 39720, Note_on_c, 0, 67, 89
1, 39840, Note_on_c, 0, 67, 0
1, 39840, Note_on_c, 0, 78, 47
1, 39960, Note_on_c, 0, 78, 0
1, 39960, Note_on_c, 0, 67, 50
1, 40080, Note_on_c, 0, 67, 0
1, 40080, Note_on_c, 0, 77, 50
1, 40200, Note_on_c, 0, 77, 0
1, 40200, Note_on_c, 0, 67, 49
1, 40320, Note_on_c, 0, 67, 0
1, 40320, Note_on_c, 0, 76, 53
1, 40320, Note_on_c, 1, 59, 0
1, 40320, Note_on_c, 1, 47, 0
1, 40320, Note_on_c, 1, 48, 49
1, 40320, Note_on_c, 1, 60, 52
1, 40440, Note_on_c, 0, 76, 0
1, 40440, Note_on_c, 0, 72, 50
1, 40560, Note_on_c, 0, 72, 0
1, 40560, Note_on_c, 0, 67, 48
1, 40560, Note_on_c, 1, 48, 0
1, 40560, Note_on_c, 1, 60, 0
1, 40680, Note_on_c, 0, 67, 0
1, 40680, Note_on_c, 0, 72, 50
1, 40800, Note_on_c, 0, 72, 0
1, 40800, Note_on_c, 0, 76, 48
1, 40920, Note_on_c, 0, 76, 0
1, 40920, Note_on_c, 0, 72, 51
1, 41040, Note_on_c, 0, 72, 0
1, 41040, Note_on_c, 0, 79, 88
1, 41040, Note_on_c, 1, 59, 85
1, 41040, Note_on_c, 1, 47, 87
1, 41160, Note_on_c, 0, 79, 0
1, 41160, Note_on_c, 0, 67, 83
1, 41280, Note_on_c, 0, 67, 0
1, 41280, Note_on_c, 0, 78, 50
1, 41400, Note_on_c, 0, 78, 0
1, 41400, Note_on_c, 0, 67, 54
1, 41520, Note_on_c, 0, 67, 0
1, 41520, Note_on_c, 0, 77, 51
1, 41640, Note_on_c, 0, 77, 0
1, 41640, Note_on_c, 0, 67, 47
1, 41760, Note_on_c, 0, 67, 0
1, 41760, Note_on_c, 0, 76, 48
1, 41760, Note_on_c, 1, 59, 0
1, 41760, Note_on_c, 1, 47, 0
1, 41760, Note_on_c, 1, 48, 52
1, 41760, Note_on_c, 1, 60, 48
1, 41880, Note_on_c, 0, 76, 0
1, 41880, Note_on_c, 0, 79, 54
1, 42000, Note_on_c, 0, 79, 0
1, 42000, Note_on_c, 0, 84, 49
1, 42000, Note_on_c, 1, 48, 0
1, 42000, Note_on_c, 1, 60, 0
1, 42120, Note_on_c, 0, 84, 0
1, 42120, Note_on_c, 0, 83, 46
1, 42240, Note_on_c, 0, 83, 0
1, 42240, Note_on_c, 0, 81, 47
1, 42360, Note_on_c, 0, 81, 0
1, 42360, Note_on_c, 0, 79, 49
1, 42480, Note_on_c, 0, 79, 0
1, 42480, Note_on_c, 0, 77, 77
1, 42480, Note_on_c, 1, 72, 75
1, 42480, Note_on_c, 1, 69, 74
1, 42600, Note_on_c, 0, 77, 0
1, 42600, Note_on_c, 0, 79, 73
1, 42720, Note_on_c, 0, 79, 0
1, 42720, Note_on_c, 0, 81, 73
1, 42840, Note_on_c, 0, 81, 0
1, 42840, Note_on_c, 0, 77, 77
1, 42960, Note_on_c, 0, 77, 0
1, 42960, Note_on_c, 0, 75, 53
1, 42960, Note_on_c, 1, 72, 0
1, 42960, Note_on_c, 1, 69, 0
1, 42960, Note_on_c, 1, 67, 50
1, 42960, Note_on_c, 1, 71, 52
1, 43080, Note_on_c, 0, 75, 0
1, 43080, Note_on_c, 0, 76, 49
1, 43200, Note_on_c, 0, 76, 0
1, 43200, Note_on_c, 0, 74, 79
1, 43200, Note_on_c, 1, 67, 0
1, 43200, Note_on_c, 1, 71, 0
1, 43200, Note_on_c, 1, 69, 76
1, 43200, Note_on_c, 1, 65, 73
1, 43320, Note_on_c, 0, 74, 0
1, 43320, Note_on_c, 0, 76, 72
1, 43440, Note_on_c, 0, 76, 0
1, 43440, Note_on_c, 0, 77, 73
1, 43560, Note_on_c, 0, 77, 0
1, 43560, Note_on_c, 0, 74, 73
1, 43680, Note_on_c, 0, 74, 0
1, 43680, Note_on_c, 0, 71, 50
1, 43680, Note_on_c, 1, 69, 0
1, 43680, Note_on_c, 1, 65, 0
1, 43680, Note_on_c, 1, 64, 48
1, 43680, Note_on_c, 1, 67, 49
1, 43800, Note_on_c, 0, 71, 0
1, 43800, Note_on_c, 0, 72, 45
1, 43920, Note_on_c, 0, 72, 0
1, 43920, Note_on_c, 0, 74, 75
1, 43920, Note_on_c, 1, 64, 0
1, 43920, Note_on_c, 1, 67, 0
1, 43920, Note_on_c, 1, 65, 73
1, 44040, Note_on_c, 0, 74, 0
1, 44040, Note_on_c, 0, 77, 76
1, 44160, Note_on_c, 0, 77, 0
1, 44160, Note_on_c, 0, 76, 76
1, 44160, Note_on_c, 1, 65, 0
1, 44160, Note_on_c, 1, 67, 74
1, 44280, Note_on_c, 0, 76, 0
1, 44280, Note_on_c, 0, 72, 72
1, 44400, Note_on_c, 0, 72, 0
1, 44400, Note_on_c, 0, 71, 78
1, 44400, Note_on_c, 1, 67, 0
1, 44400, Note_on_c, 1, 55, 76
1, 44520, Note_on_c, 0, 71, 0
1, 44520, Note_on_c, 0, 74, 72
1, 44640, Note_on_c, 0, 74, 0
1, 44640, Note_on_c, 0, 72, 75
1, 44640, Note_on_c, 1, 55, 0
1, 44640, Note_on_c, 1, 60, 76
1, 44760, Note_on_c, 0, 72, 0
1, 44760, Note_on_c, 0, 74, 74
1, 44880, Note_on_c, 0, 74, 0
1, 44880, Note_on_c, 0, 76, 73
1, 44880, Note_on_c, 1, 60, 0
1, 45000, Note_on_c, 0, 76, 0
1, 45000, Note_on_c, 0, 72, 75
1, 45120, Note_on_c, 0, 72, 0
1, 45120, Note_on_c, 0, 69, 75
1, 45240, Note_on_c, 0, 69, 0
1, 45240, Note_on_c, 0, 67, 74
1, 45360, Note_on_c, 0, 67, 0
1, 45360, Note_on_c, 0, 65, 77
1, 45360, Note_on_c, 1, 57, 79
1, 45360, Note_on_c, 1, 60, 74
1, 45480, Note_on_c, 0, 65, 0
1, 45480, Note_on_c, 0, 67, 75
1, 45600, Note_on_c, 0, 67, 0
1, 45600, Note_on_c, 0, 69, 70
1, 45720, Note_on_c, 0, 69, 0
1, 45720, Note_on_c, 0, 65, 74
1, 45840, Note_on_c, 0, 65, 0
1, 45840, Note_on_c, 0, 63, 48
1, 45840, Note_on_c, 1, 57, 0
1, 45840, Note_on_c, 1, 60, 0
1, 45840, Note_on_c, 1, 59, 51
1, 45840, Note_on_c, 1, 55, 51
1, 45960, Note_on_c, 0, 63, 0
1, 45960, Note_on_c, 0, 64, 45
1, 46080, Note_on_c, 0, 64, 0
1, 46080, Note_on_c, 0, 62, 73
1, 46080, Note_on_c, 1, 59, 0
1, 46080, Note_on_c, 1, 55, 0
1, 46080, Note_on_c, 1, 53, 73
1, 46080, Note_on_c, 1, 57, 76
1, 46200, Note_on_c, 0, 62, 0
1, 46200, Note_on_c, 0, 64, 70
1, 46320, Note_on_c, 0, 64, 0
1, 46320, Note_on_c, 0, 65, 73
1, 46440, Note_on_c, 0, 65, 0
1, 46440, Note_on_c, 0, 62, 73
1, 46560, Note_on_c, 0, 62, 0
1, 46560, Note_on_c, 0, 59, 51
1, 46560, Note_on_c, 1, 53, 0
1, 46560, Note_on_c, 1, 57, 0
1, 46560, Note_on_c, 1, 55, 46
1, 46560, Note_on_c, 1, 52, 54
1, 46680, Note_on_c, 0, 59, 0
1, 46680, Note_on_c, 0, 60, 47
1, 46800, Note_on_c, 0, 60, 0
1, 46800, Note_on_c, 0, 62, 79
1, 46800, Note_on_c, 1, 55, 0
1, 46800, Note_on_c, 1, 52, 0
1, 46800, Note_on_c, 1, 53, 77
1, 46920, Note_on_c, 0, 62, 0
1, 46920, Note_on_c, 0, 65, 78
1, 47040, Note_on_c, 0, 65, 0
1, 47040, Note_on_c, 0, 64, 79
1, 47040, Note_on_c, 1, 53, 0
1, 47040, Note_on_c, 1, 55, 78
1, 47160, Note_on_c, 0, 64, 0
1, 47160, Note_on_c, 0, 60, 79
1, 47280, Note_on_c, 0, 60, 0
1, 47280, Note_on_c, 0, 59, 79
1, 47280, Note_on_c, 1, 55, 0
1, 47280, Note_on_c, 1, 43, 70
1, 47400, Note_on_c, 0, 59, 0
1, 47400, Note_on_c, 0, 62, 79
1, 47520, Note_on_c, 0, 62, 0
1, 47520, Note_on_c, 0, 60, 75
1, 47520, Note_on_c, 1, 43, 0
1, 47520, Note_on_c, 1, 48, 72
1, 47760, Note_on_c, 0, 60, 0
1, 47760, Note_on_c, 0, 67, 45
1, 47760, Note_on_c, 1, 48, 0
1, 48000, Note_on_c, 0, 67, 0
1, 48000, Note_on_c, 0, 64, 48
1, 48240, Note_on_c, 0, 64, 0
1, 48240, Note_on_c, 0, 60, 46
1, 48480, Note_on_c, 0, 60, 0
1, 48480, Note_on_c, 1, 52, 51
1, 48480, Note_on_c, 1, 58, 46
1, 48720, Note_on_c, 1, 52, 0
1, 48720, Note_on_c, 1, 58, 0
1, 48720, Note_on_c, 1, 52, 54
1, 48720, Note_on_c, 1, 58, 47
1, 48960, Note_on_c, 1, 52, 0
1, 48960, Note_on_c, 1, 58, 0
1, 48960, Note_on_c, 1, 57, 53
1, 48960, Note_on_c, 1, 53, 52
1, 49200, Note_on_c, 0, 72, 45
1, 49200, Note_on_c, 1, 57, 0
1, 49200, Note_on_c, 1, 53, 0
1, 49440, Note_on_c, 0, 72, 0
1, 49440, Note_on_c, 0, 69, 48
1, 49680, Note_on_c, 0, 69, 0
1, 49680, Note_on_c, 0, 65, 45
1, 49920, Note_on_c, 0, 65, 0
1, 49920, Note_on_c, 1, 57, 48
1, 49920, Note_on_c, 1, 60, 49
1, 50160, Note_on_c, 1, 57, 0
1, 50160, Note_on_c, 1, 60, 0
1, 50160, Note_on_c, 1, 60, 45
1, 50160, Note_on_c, 1, 57, 48
1, 50400, Note_on_c, 1, 60, 0
1, 50400, Note_on_c, 1, 57, 0
1, 50400, Note_on_c, 1, 59, 49
1, 50400, Note_on_c, 1, 55, 45
1, 50640, Note_on_c, 0, 77, 49
1, 50640, Note_on_c, 1, 59, 0
1, 50640, Note_on_c, 1, 55, 0
1, 50880, Note_on_c, 0, 77, 0
1, 50880, Note_on_c, 0, 74, 51
1, 51120, Note_on_c, 0, 74, 0
1, 51120, Note_on_c, 0, 71, 54
1, 51360, Note_on_c, 0, 71, 0
1, 51360, Note_on_c, 1, 55, 46
1, 51360, Note_on_c, 1, 65, 48
1, 51600, Note_on_c, 1, 55, 0
1, 51600, Note_on_c, 1, 65, 0
1, 51600, Note_on_c, 1, 55, 49
1, 51600, Note_on_c, 1, 65, 46
1, 51840, Note_on_c, 1, 55, 0
1, 51840, Note_on_c, 1, 65, 0
1, 51840, Note_on_c, 1, 64, 76
1, 51840, Note_on_c, 1, 60, 76
1, 51960, Note_on_c, 0, 72, 79
1, 52080, Note_on_c, 0, 72, 0
1, 52080, Note_on_c, 0, 71, 72
1, 52080, Note_on_c, 1, 64, 0
1, 52080, Note_on_c, 1, 60, 0
1, 52200, Note_on_c, 0, 71, 0
1, 52200, Note_on_c, 0, 72, 70
1, 52320, Note_on_c, 0, 72, 0
1, 52320, Note_on_c, 0, 76, 75
1, 52440, Note_on_c, 0, 76, 0
1, 52440, Note_on_c, 0, 79, 73
1, 52560, Note_on_c, 0, 79, 0
1, 52560, Note_on_c, 1, 55, 76
1, 52560, Note_on_c, 1, 62, 70
1, 52680, Note_on_c, 0, 77, 74
1, 52800, Note_on_c, 0, 77, 0
1, 52800, Note_on_c, 0, 76, 78
1, 52800, Note_on_c, 1, 55, 0
1, 52800, Note_on_c, 1, 62, 0
1, 52920, Note_on_c, 0, 76, 0
1, 52920, Note_on_c, 0, 77, 79
1, 53040, Note_on_c, 0, 77, 0
1, 53040, Note_on_c, 0, 74, 70
1, 53160, Note_on_c, 0, 74, 0
1, 53160, Note_on_c, 0, 71, 71
1, 53280, Note_on_c, 0, 71, 0
1, 53280, Note_on_c, 1, 64, 77
1, 53280, Note_on_c, 1, 60, 70
1, 53400, Note_on_c, 0, 72, 75
1, 53520, Note_on_c, 0, 72, 0
1, 53520, Note_on_c, 0, 71, 75
1, 53520, Note_on_c, 1, 64, 0
1, 53520, Note_on_c, 1, 60, 0
1, 53640, Note_on_c, 0, 71, 0
1, 53640, Note_on_c, 0, 72, 72
1, 53760, Note_on_c, 0, 72, 0
1, 53760, Note_on_c, 0, 76, 75
1, 53880, Note_on_c, 0, 76, 0
1, 53880, Note_on_c, 0, 79, 76
1, 54000, Note_on_c, 0, 79, 0
1, 54000, Note_on_c, 1, 55, 73
1, 54000, Note_on_c, 1, 62, 76
1, 54120, Note_on_c, 0, 77, 79
1, 54240, Note_on_c, 0, 77, 0
1, 54240, Note_on_c, 0, 76, 78
1, 54240, Note_on_c, 1, 55, 0
1, 54240, Note_on_c, 1, 62, 0
1, 54360, Note_on_c, 0, 76, 0
1, 54360, Note_on_c, 0, 77, 79
1, 54480, Note_on_c, 0, 77, 0
1, 54480, Note_on_c, 0, 74, 73
1, 54600, Note_on_c, 0, 74, 0
1, 54600, Note_on_c, 0, 71, 78
1, 54720, Note_on_c, 0, 71, 0
1, 54720, Note_on_c, 0, 72, 72
1, 54720, Note_on_c, 1, 48, 76
1, 54840, Note_on_c, 1, 48, 0
1, 54840, Note_on_c, 1, 60, 72
1, 54960, Note_on_c, 0, 72, 0
1, 54960, Note_on_c, 0, 84, 70
1, 54960, Note_on_c, 0, 76, 78
1, 54960, Note_on_c, 1, 60, 0
1, 54960, Note_on_c, 1, 64, 75
1, 55080, Note_on_c, 1, 64, 0
1, 55080, Note_on_c, 1, 60, 72
1, 55200, Note_on_c, 0, 84, 0
1, 55200, Note_on_c, 0, 76, 0
1, 55200, Note_on_c, 0, 84, 71
1, 55200, Note_on_c, 0, 76, 78
1, 55200, Note_on_c, 1, 60, 0
1, 55200, Note_on_c, 1, 55, 76
1, 55320, Note_on_c, 1, 55, 0
1, 55320, Note_on_c, 1, 52, 73
1, 55440, Note_on_c, 0, 84, 0
1, 55440, Note_on_c, 0, 76, 0
1, 55440, Note_on_c, 0, 84, 70
1, 55440, Note_on_c, 0, 76, 74
1, 55440, Note_on_c, 1, 52, 0
1, 55440, Note_on_c, 1, 48, 73
1, 55680, Note_on_c, 0, 84, 0
1, 55680, Note_on_c, 0, 76, 0
1, 55680, Note_on_c, 1, 48, 0
1, 55920, Note_on_c, 0, 84, 77
1, 56040, Note_on_c, 0, 84, 0
1, 56040, Note_on_c, 0, 81, 78
1, 56160, Note_on_c, 0, 81, 0
1, 56160, Note_on_c, 0, 77, 75
1, 56400, Note_on_c, 0, 77, 0
1, 56400, Note_on_c, 0, 77, 73
1, 56640, Note_on_c, 0, 77, 0
1, 56640, Note_on_c, 0, 77, 75
1, 56820, Note_on_c, 0, 77, 0
1, 56820, Note_on_c, 0, 76, 77
1, 56880, Note_on_c, 0, 76, 0
1, 56880, Note_on_c, 0, 82, 51
1, 56880, Note_on_c, 1, 72, 50
1, 56880, Note_on_c, 1, 67, 51
1, 57120, Note_on_c, 0, 82, 0
1, 57120, Note_on_c, 1, 72, 0
1, 57120, Note_on_c, 1, 67, 0
1, 57540, Note_on_c, 0, 77, 46
1, 57600, Note_on_c, 0, 77, 0
1, 57600, Note_on_c, 0, 81, 50
1, 57600, Note_on_c, 1, 72, 47
1, 57600, Note_on_c, 1, 65, 51
1, 57840, Note_on_c, 0, 81, 0
1, 57840, Note_on_c, 1, 72, 0
1, 57840, Note_on_c, 1, 65, 0
1, 58260, Note_on_c, 0, 76, 48
1, 58320, Note_on_c, 0, 76, 0
1, 58320, Note_on_c, 0, 79, 48
1, 58320, Note_on_c, 1, 72, 50
1, 58320, Note_on_c, 1, 70, 45
1, 58560, Note_on_c, 0, 79, 0
1, 58560, Note_on_c, 1, 72, 0
1, 58560, Note_on_c, 1, 70, 0
1, 59040, Note_on_c, 0, 77, 75
1, 59040, Note_on_c, 1, 69, 72
1, 59160, Note_on_c, 0, 77, 0
1, 59160, Note_on_c, 0, 79, 76
1, 59280, Note_on_c, 0, 79, 0
1, 59280, Note_on_c, 0, 81, 70
1, 59400, Note_on_c, 0, 81, 0
1, 59400, Note_on_c, 0, 77, 76
1, 59520, Note_on_c, 0, 77, 0
1, 59520, Note_on_c, 0, 72, 72
1, 59640, Note_on_c, 0, 72, 0
1, 59640, Note_on_c, 0, 73, 78
1, 59760, Note_on_c, 0, 73, 0
1, 59760, Note_on_c, 0, 74, 77
1, 59760, Note_on_c, 1, 69, 0
1, 59760, Note_on_c, 1, 70, 74
1, 59880, Note_on_c, 0, 74, 0
1, 59880, Note_on_c, 0, 76, 78
1, 60000, Note_on_c, 0, 76, 0
1, 60000, Note_on_c, 0, 77, 78
1, 60000, Note_on_c, 1, 70, 0
1, 60120, Note_on_c, 0, 77, 0
1, 60120, Note_on_c, 0, 74, 76
1, 60240, Note_on_c, 0, 74, 0
1, 60240, Note_on_c, 0, 67, 71
1, 60360, Note_on_c, 0, 67, 0
1, 60360, Note_on_c, 0, 69, 76
1, 60480, Note_on_c, 0, 69, 0
1, 60480, Note_on_c, 0, 70, 73
1, 60480, Note_on_c, 1, 55, 70
1, 60600, Note_on_c, 0, 70, 0
1, 60600, Note_on_c, 0, 72, 70
1, 60720, Note_on_c, 0, 72, 0
1, 60720, Note_on_c, 0, 74, 78
1, 60720, Note_on_c, 1, 55, 0
1, 60720, Note_on_c, 1, 58, 70
1, 60840, Note_on_c, 0, 74, 0
1, 60840, Note_on_c, 0, 70, 77
1, 60960, Note_on_c, 0, 70, 0
1, 60960, Note_on_c, 0, 62, 72
1, 60960, Note_on_c, 1, 58, 0
1, 60960, Note_on_c, 1, 59, 73
1, 61080, Note_on_c, 0, 62, 0
1, 61080, Note_on_c, 0, 65, 70
1, 61200, Note_on_c, 0, 65, 0
1, 61200, Note_on_c, 0, 64, 75
1, 61200, Note_on_c, 1, 59, 0
1, 61200, Note_on_c, 1, 60, 72
1, 61320, Note_on_c, 0, 64, 0
1, 61320, Note_on_c, 0, 65, 71
1, 61440, Note_on_c, 0, 65, 0
1, 61440, Note_on_c, 0, 67, 79
1, 61440, Note_on_c, 1, 60, 0
1, 61560, Note_on_c, 0, 67, 0
1, 61560, Note_on_c, 0, 64, 70
1, 61680, Note_on_c, 0, 64, 0
1, 61680, Note_on_c, 0, 72, 70
1, 61800, Note_on_c, 0, 72, 0
1, 61800, Note_on_c, 0, 69, 76
1, 61920, Note_on_c, 0, 69, 0
1, 61920, Note_on_c, 0, 65, 72
1, 62160, Note_on_c, 0, 65, 0
1, 62160, Note_on_c, 0, 65, 78
1, 62400, Note_on_c, 0, 65, 0
1, 62400, Note_on_c, 0, 65, 73
1, 62580, Note_on_c, 0, 65, 0
1, 62580, Note_on_c, 0, 64, 74
1, 62640, Note_on_c, 0, 64, 0
1, 62640, Note_on_c, 0, 70, 48
1, 62640, Note_on_c, 1, 55, 53
1, 62640, Note_on_c, 1, 60, 46
1, 62880, Note_on_c, 0, 70, 0
1, 62880, Note_on_c, 1, 55, 0
1, 62880, Note_on_c, 1, 60, 0
1, 63300, Note_on_c, 0, 65, 51
1, 63360, Note_on_c, 0, 65, 0
1, 63360, Note_on_c, 0, 69, 51
1, 63360, Note_on_c, 1, 53, 49
1, 63360, Note_on_c, 1, 60, 46
1, 63600, Note_on_c, 0, 69, 0
1, 63600, Note_on_c, 1, 53, 0
1, 63600, Note_on_c, 1, 60, 0
1, 64020, Note_on_c, 0, 64, 45
1, 64080, Note_on_c, 0, 64, 0
1, 64080, Note_on_c, 0, 67, 53
1, 64080, Note_on_c, 1, 60, 47
1, 64080, Note_on_c, 1, 58, 45
1, 64320, Note_on_c, 0, 67, 0
1, 64320, Note_on_c, 1, 60, 0
1, 64320, Note_on_c, 1, 58, 0
1, 64800, Note_on_c, 0, 65, 77
1, 64800, Note_on_c, 1, 45, 75
1, 64800, Note_on_c, 1, 57, 77
1, 64920, Note_on_c, 0, 65, 0
1, 64920, Note_on_c, 0, 67, 78
1, 65040, Note_on_c, 0, 67, 0
1, 65040, Note_on_c, 0, 69, 74
1, 65160, Note_on_c, 0, 69, 0
1, 65160, Note_on_c, 0, 70, 72
1, 65280, Note_on_c, 0, 70, 0
1, 65280, Note_on_c, 0, 72, 79
1, 65400, Note_on_c, 0, 72, 0
1, 65400, Note_on_c, 0, 73, 79
1, 65520, Note_on_c, 0, 73, 0
1, 65520, Note_on_c, 0, 74, 75
1, 65520, Note_on_c, 1, 45, 0
1, 65520, Note_on_c, 1, 57, 0
1, 65520, Note_on_c, 1, 58, 70
1, 65520, Note_on_c, 1, 46, 75
1, 65640, Note_on_c, 0, 74, 0
1, 65640, Note_on_c, 0, 76, 73
1, 65760, Note_on_c, 0, 76, 0
1, 65760, Note_on_c, 0, 77, 77
1, 65760, Note_on_c, 1, 58, 0
1, 65760, Note_on_c, 1, 46, 0
1, 65880, Note_on_c, 0, 77, 0
1, 65880, Note_on_c, 0, 79, 70
1, 66000, Note_on_c, 0, 79, 0
1, 66000, Note_on_c, 0, 81, 72
1, 66120, Note_on_c, 0, 81, 0
1, 66120, Note_on_c, 0, 82, 76
1, 66240, Note_on_c, 0, 82, 0
1, 66240, Note_on_c, 0, 84, 73
1, 66480, Note_on_c, 0, 84, 0
1, 66480, Note_on_c, 0, 69, 70
1, 66480, Note_on_c, 0, 77, 72
1, 66480, Note_on_c, 1, 60, 71
1, 66720, Note_on_c, 0, 69, 0
1, 66720, Note_on_c, 0, 77, 0
1, 66720, Note_on_c, 0, 76, 74
1, 66720, Note_on_c, 0, 67, 72
1, 66720, Note_on_c, 1, 60, 0
1, 66720, Note_on_c, 1, 48, 71
1, 66960, Note_on_c, 0, 76, 0
1, 66960, Note_on_c, 0, 67, 0
1, 66960, Note_on_c, 0, 69, 73
1, 66960, Note_on_c, 0, 77, 79
1, 66960, Note_on_c, 1, 48, 0
1, 66960, Note_on_c, 1, 53, 76
1, 67200, Note_on_c, 1, 53, 0
1, 67200, Note_on_c, 1, 41, 70
1, 67440, Note_on_c, 0, 69, 0
1, 67440, Note_on_c, 0, 77, 0
1, 67440, Note_on_c, 1, 41, 0
1, 67440, Note_on_c, 1, 41, 72
1, 67680, Note_on_c, 0, 62, 50
1, 67680, Note_on_c, 0, 70, 50
1, 67680, Note_on_c, 1, 41, 0
1, 67680, Note_on_c, 1, 41, 48
1, 67920, Note_on_c, 0, 62, 0
1, 67920, Note_on_c, 0, 70, 0
1, 67920, Note_on_c, 0, 69, 48
1, 67920, Note_on_c, 0, 60, 47
1, 67920, Note_on_c, 1, 41, 0
1, 67920, Note_on_c, 1, 41, 48
1, 68160, Note_on_c, 0, 69, 0
1, 68160, Note_on_c, 0, 60, 0
1, 68160, Note_on_c, 0, 58, 54
1, 68160, Note_on_c, 0, 67, 49
1, 68160, Note_on_c, 1, 41, 0
1, 68160, Note_on_c, 1, 41, 47
1, 68400, Note_on_c, 0, 58, 0
1, 68400, Note_on_c, 0, 67, 0
1, 68400, Note_on_c, 0, 58, 45
1, 68400, Note_on_c, 0, 67, 45
1, 68400, Note_on_c, 1, 41, 0
1, 68400, Note_on_c, 1, 41, 54
1, 68640, Note_on_c, 0, 58, 0
1, 68640, Note_on_c, 0, 67, 0
1, 68640, Note_on_c, 0, 57, 51
1, 68640, Note_on_c, 0, 65, 53
1, 68640, Note_on_c, 1, 41, 0
1, 68640, Note_on_c, 1, 41, 49
1, 68880, Note_on_c, 0, 57, 0
1, 68880, Note_on_c, 0, 65, 0
1, 68880, Note_on_c, 0, 65, 49
1, 68880, Note_on_c, 0, 57, 48
1, 68880, Note_on_c, 1, 41, 0
1, 68880, Note_on_c, 1, 41, 52
1, 69120, Note_on_c, 0, 65, 0
1, 69120, Note_on_c, 0, 57, 0
1, 69120, Note_on_c, 0, 65, 49
1, 69120, Note_on_c, 0, 57, 51
1, 69120, Note_on_c, 1, 41, 0
1, 69120, Note_on_c, 1, 41, 53
1, 69360, Note_on_c, 0, 65, 0
1, 69360, Note_on_c, 0, 57, 0
1, 69360, Note_on_c, 0, 67, 52
1, 69360, Note_on_c, 0, 58, 51
1, 69360, Note_on_c, 1, 41, 0
1, 69360, Note_on_c, 1, 41, 54
1, 69600, Note_on_c, 0, 67, 0
1, 69600, Note_on_c, 0, 58, 0
1, 69600, Note_on_c, 0, 55, 53
1, 69600, Note_on_c, 0, 64, 46
1, 69600, Note_on_c, 1, 41, 0
1, 69600, Note_on_c, 1, 41, 48
1, 69840, Note_on_c, 0, 55, 0
1, 69840, Note_on_c, 0, 64, 0
1, 69840, Note_on_c, 0, 65, 54
1, 69840, Note_on_c, 0, 57, 45
1, 69840, Note_on_c, 1, 41, 0
1, 69840, Note_on_c, 1, 41, 54
1, 70080, Note_on_c, 0, 65, 0
1, 70080, Note_on_c, 0, 57, 0
1, 70080, Note_on_c, 1, 41, 0
1, 70080, Note_on_c, 1, 53, 48
1, 70320, Note_on_c, 1, 53, 0
1, 70320, Note_on_c, 1, 53, 47
1, 70560, Note_on_c, 0, 70, 49
1, 70560, Note_on_c, 0, 74, 45
1, 70560, Note_on_c, 1, 53, 0
1, 70560, Note_on_c, 1, 53, 47
1, 70800, Note_on_c, 0, 70, 0
1, 70800, Note_on_c, 0, 74, 0
1, 70800, Note_on_c, 0, 72, 50
1, 70800, Note_on_c, 0, 69, 51
1, 70800, Note_on_c, 1, 53, 0
1, 70800, Note_on_c, 1, 53, 54
1, 71040, Note_on_c, 0, 72, 0
1, 71040, Note_on_c, 0, 69, 0
1, 71040, Note_on_c, 0, 67, 46
1, 71040, Note_on_c, 0, 70, 54
1, 71040, Note_on_c, 1, 53, 0
1, 71040, Note_on_c, 1, 53, 47
1, 71280, Note_on_c, 0, 67, 0
1, 71280, Note_on_c, 0, 70, 0
1, 71280, Note_on_c, 0, 67, 46
1, 71280, Note_on_c, 0, 70, 53
1, 71280, Note_on_c, 1, 53, 0
1, 71280, Note_on_c, 1, 53, 52
1, 71520, Note_on_c, 0, 67, 0
1, 71520, Note_on_c, 0, 70, 0
1, 71520, Note_on_c, 0, 65, 53
1, 71520, Note_on_c, 0, 69, 47
1, 71520, Note_on_c, 1, 53, 0
1, 71520, Note_on_c, 1, 53, 50
1, 71760, Note_on_c, 0, 65, 0
1, 71760, Note_on_c, 0, 69, 0
1, 71760, Note_on_c, 0, 69, 45
1, 71760, Note_on_c, 0, 65, 53
1, 71760, Note_on_c, 1, 53, 0
1, 71760, Note_on_c, 1, 53, 51
1, 72000, Note_on_c, 0, 69, 0
1, 72000, Note_on_c, 0, 65, 0
1, 72000, Note_on_c, 0, 69, 53
1, 72000, Note_on_c, 0, 65, 50
1, 72000, Note_on_c, 1, 53, 0
1, 72000, Note_on_c, 1, 53, 48
1, 72240, Note_on_c, 0, 69, 0
1, 72240, Note_on_c, 0, 65, 0
1, 72240, Note_on_c, 0, 67, 49
1, 72240, Note_on_c, 0, 70, 52
1, 72240, Note_on_c, 1, 53, 0
1, 72240, Note_on_c, 1, 53, 53
1, 72480, Note_on_c, 0, 67, 0
1, 72480, Note_on_c, 0, 70, 0
1, 72480, Note_on_c, 0, 64, 48
1, 72480, Note_on_c, 0, 67, 48
1, 72480, Note_on_c, 1, 53, 0
1, 72480, Note_on_c, 1, 53, 53
1, 72720, Note_on_c, 0, 64, 0
1, 72720, Note_on_c, 0, 67, 0
1, 72720, Note_on_c, 0, 69, 49
1, 72720, Note_on_c, 0, 65, 50
1, 72720, Note_on_c, 1, 53, 0
1, 72720, Note_on_c, 1, 53, 51
1, 72960, Note_on_c, 0, 69, 0
1, 72960, Note_on_c, 0, 65, 0
1, 72960, Note_on_c, 1, 53, 0
1, 72960, Note_on_c, 1, 53, 50
1, 73200, Note_on_c, 1, 53, 0
1, 73200, Note_on_c, 1, 53, 47
1, 73440, Note_on_c, 1, 53, 0
1, 73440, Note_on_c, 1, 65, 75
1, 73560, Note_on_c, 0, 69, 79
1, 73680, Note_on_c, 0, 69, 0
1, 73680, Note_on_c, 0, 74, 73
1, 73680, Note_on_c, 1, 65, 0
1, 73800, Note_on_c, 0, 74, 0
1, 73800, Note_on_c, 0, 77, 78
1, 73920, Note_on_c, 0, 77, 0
1, 73920, Note_on_c, 0, 81, 72
1, 74040, Note_on_c, 1, 65, 79
1, 74160, Note_on_c, 0, 81, 0
1, 74160, Note_on_c, 1, 65, 0
1, 74160, Note_on_c, 1, 64, 73
1, 74280, Note_on_c, 0, 67, 79
1, 74400, Note_on_c, 0, 67, 0
1, 74400, Note_on_c, 0, 72, 70
1, 74400, Note_on_c, 1, 64, 0
1, 74520, Note_on_c, 0, 72, 0
1, 74520, Note_on_c, 0, 76, 75
1, 74640, Note_on_c, 0, 76, 0
1, 74640, Note_on_c, 0, 79, 74
1, 74760, Note_on_c, 1, 64, 71
1, 74880, Note_on_c, 0, 79, 0
1, 74880, Note_on_c, 1, 64, 0
1, 74880, Note_on_c, 1, 62, 74
1, 75000, Note_on_c, 0, 65, 75
1, 75120, Note_on_c, 0, 65, 0
1, 75120, Note_on_c, 0, 71, 75
1, 75120, Note_on_c, 1, 62, 0
1, 75240, Note_on_c, 0, 71, 0
1, 75240, Note_on_c, 0, 74, 78
1, 75360, Note_on_c, 0, 74, 0
1, 75360, Note_on_c, 0, 77, 75
1, 75480, Note_on_c, 1, 62, 71
1, 75600, Note_on_c, 0, 77, 0
1, 75600, Note_on_c, 1, 62, 0
1, 75600, Note_on_c, 1, 60, 73
1, 75720, Note_on_c, 0, 64, 74
1, 75840, Note_on_c, 0, 64, 0
1, 75840, Note_on_c, 0, 67, 70
1, 75840, Note_on_c, 1, 60, 0
1, 75960, Note_on_c, 0, 67, 0
1, 75960, Note_on_c, 0, 72, 73
1, 76080, Note_on_c, 0, 72, 0
1, 76080, Note_on_c, 0, 76, 72
1, 76200, Note_on_c, 1, 60, 75
1, 76320, Note_on_c, 0, 76, 0
1, 76320, Note_on_c, 1, 60, 0
1, 76320, Note_on_c, 1, 65, 72
1, 76440, Note_on_c, 0, 69, 70
1, 76560, Note_on_c, 0, 69, 0
1, 76560, Note_on_c, 0, 74, 76
1, 76680, Note_on_c, 0, 74, 0
1, 76680, Note_on_c, 0, 73, 78
1, 76800, Note_on_c, 0, 73, 0
1, 76800, Note_on_c, 0, 76, 76
1, 76800, Note_on_c, 1, 65, 0
1, 76920, Note_on_c, 0, 76, 0
1, 76920, Note_on_c, 0, 74, 71
1, 77040, Note_on_c, 0, 74, 0
1, 77040, Note_on_c, 0, 77, 72
1, 77160, Note_on_c, 0, 77, 0
1, 77160, Note_on_c, 0, 76, 70
1, 77280, Note_on_c, 0, 76, 0
1, 77280, Note_on_c, 0, 79, 75
1, 77400, Note_on_c, 0, 79, 0
1, 77400, Note_on_c, 0, 77, 74
1, 77520, Note_on_c, 0, 77, 0
1, 77520, Note_on_c, 0, 81, 78
1, 77640, Note_on_c, 0, 81, 0
1, 77640, Note_on_c, 0, 80, 79
1, 77760, Note_on_c, 0, 80, 0
1, 77760, Note_on_c, 0, 81, 79
1, 78000, Note_on_c, 0, 81, 0
1, 78240, Note_on_c, 0, 72, 54
1, 78240, Note_on_c, 0, 64, 46
1, 78240, Note_on_c, 1, 54, 47
1, 78480, Note_on_c, 0, 72, 0
1, 78480, Note_on_c, 0, 64, 0
1, 78480, Note_on_c, 0, 71, 46
1, 78480, Note_on_c, 0, 62, 45
1, 78480, Note_on_c, 1, 54, 0
1, 78480, Note_on_c, 1, 55, 53
1, 78720, Note_on_c, 0, 71, 0
1, 78720, Note_on_c, 0, 62, 0
1, 78720, Note_on_c, 1, 55, 0
1, 78960, Note_on_c, 1, 42, 75
1, 79200, Note_on_c, 1, 42, 0
1, 79200, Note_on_c, 1, 43, 75
1, 79440, Note_on_c, 1, 43, 0
1, 79680, Note_on_c, 0, 84, 49
1, 79680, Note_on_c, 0, 76, 51
1, 79680, Note_on_c, 1, 66, 54
1, 79920, Note_on_c, 0, 84, 0
1, 79920, Note_on_c, 0, 76, 0
1, 79920, Note_on_c, 0, 83, 48
1, 79920, Note_on_c, 0, 74, 48
1, 79920, Note_on_c, 1, 66, 0
1, 79920, Note_on_c, 1, 67, 50
1, 80160, Note_on_c, 0, 83, 0
1, 80160, Note_on_c, 0, 74, 0
1, 80160, Note_on_c, 1, 67, 0
1, 80400, Note_on_c, 1, 78, 75
1, 80640, Note_on_c, 1, 78, 0
1, 80640, Note_on_c, 1, 79, 73
1, 80880, Note_on_c, 1, 79, 0
1, 81120, Note_on_c, 0, 72, 53
1, 81120, Note_on_c, 0, 64, 48
1, 81120, Note_on_c, 1, 54, 54
1, 81360, Note_on_c, 0, 72, 0
1, 81360, Note_on_c, 0, 64, 0
1, 81360, Note_on_c, 0, 71, 48
1, 81360, Note_on_c, 0, 62, 53
1, 81360, Note_on_c, 1, 54, 0
1, 81360, Note_on_c, 1, 55, 49
1, 81600, Note_on_c, 0, 71, 0
1, 81600, Note_on_c, 0, 62, 0
1, 81600, Note_on_c, 1, 55, 0
1, 81840, Note_on_c, 1, 42, 75
1, 82080, Note_on_c, 1, 42, 0
1, 82080, Note_on_c, 1, 43, 74
1, 82320, Note_on_c, 1, 43, 0
1, 82800, Note_on_c, 0, 77, 47
1, 83160, Note_on_c, 0, 77, 0
1, 83160, Note_on_c, 0, 77, 53
1, 83280, Note_on_c, 0, 77, 0
1, 83280, Note_on_c, 0, 77, 50
1, 83400, Note_on_c, 0, 77, 0
1, 83400, Note_on_c, 0, 77, 46
1, 83460, Note_on_c, 0, 77, 0
1, 83460, Note_on_c, 0, 79, 46
1, 83520, Note_on_c, 0, 79, 0
1, 83520, Note_on_c, 0, 81, 54
1, 83880, Note_on_c, 0, 81, 0
1, 83880, Note_on_c, 0, 79, 48
1, 84000, Note_on_c, 0, 79, 0
1, 84000, Note_on_c, 0, 77, 52
1, 84240, Note_on_c, 0, 77, 0
1, 84240, Note_on_c, 0, 77, 47
1, 84600, Note_on_c, 0, 77, 0
1, 84600, Note_on_c, 0, 77, 48
1, 84720, Note_on_c, 0, 77, 0
1, 84720, Note_on_c, 0, 77, 51
1, 84840, Note_on_c, 0, 77, 0
1, 84840, Note_on_c, 0, 77, 50
1, 84900, Note_on_c, 0, 77, 0
1, 84900, Note_on_c, 0, 79, 50
1, 84960, Note_on_c, 0, 79, 0
1, 84960, Note_on_c, 0, 81, 54
1, 85320, Note_on_c, 0, 81, 0
1, 85320, Note_on_c, 0, 79, 49
1, 85440, Note_on_c, 0, 79, 0
1, 85440, Note_on_c, 0, 77, 49
1, 85680, Note_on_c, 0, 77, 0
1, 85680, Note_on_c, 0, 76, 52
1, 85680, Note_on_c, 1, 60, 45
1, 85800, Note_on_c, 1, 60, 0
1, 85800, Note_on_c, 1, 67, 54
1, 85920, Note_on_c, 0, 76, 0
1, 85920, Note_on_c, 1, 67, 0
1, 85920, Note_on_c, 1, 64, 53
1, 86040, Note_on_c, 1, 64, 0
1, 86040, Note_on_c, 1, 67, 53
1, 86160, Note_on_c, 0, 76, 45
1, 86160, Note_on_c, 1, 67, 0
1, 86160, Note_on_c, 1, 60, 53
1, 86280, Note_on_c, 1, 60, 0
1, 86280, Note_on_c, 1, 67, 45
1, 86400, Note_on_c, 0, 76, 0
1, 86400, Note_on_c, 0, 79, 84
1, 86400, Note_on_c, 1, 67, 0
1, 86400, Note_on_c, 1, 59, 84
1, 86520, Note_on_c, 1, 59, 0
1, 86520, Note_on_c, 1, 67, 53
1, 86640, Note_on_c, 1, 67, 0
1, 86640, Note_on_c, 1, 62, 48
1, 86760, Note_on_c, 1, 62, 0
1, 86760, Note_on_c, 1, 67, 47
1, 86880, Note_on_c, 0, 79, 0
1, 86880, Note_on_c, 0, 77, 52
1, 86880, Note_on_c, 1, 67, 0
1, 86880, Note_on_c, 1, 59, 53
1, 87000, Note_on_c, 1, 59, 0
1, 87000, Note_on_c, 1, 67, 46
1, 87120, Note_on_c, 0, 77, 0
1, 87120, Note_on_c, 0, 76, 46
1, 87120, Note_on_c, 1, 67, 0
1, 87120, Note_on_c, 1, 60, 54
1, 87240, Note_on_c, 1, 60, 0
1, 87240, Note_on_c, 1, 67, 50
1, 87360, Note_on_c, 0, 76, 0
1, 87360, Note_on_c, 1, 67, 0
1, 87360, Note_on_c, 1, 64, 50
1, 87480, Note_on_c, 1, 64, 0
1, 87480, Note_on_c, 1, 67, 47
1, 87600, Note_on_c, 0, 76, 45
1, 87600, Note_on_c, 1, 67, 0
1, 87600, Note_on_c, 1, 60, 51
1, 87720, Note_on_c, 1, 60, 0
1, 87720, Note_on_c, 1, 67, 54
1, 87840, Note_on_c, 0, 76, 0
1, 87840, Note_on_c, 0, 79, 88
1, 87840, Note_on_c, 1, 67, 0
1, 87840, Note_on_c, 1, 59, 84
1, 87960, Note_on_c, 1, 59, 0
1, 87960, Note_on_c, 1, 67, 47
1, 88080, Note_on_c, 1, 67, 0
1, 88080, Note_on_c, 1, 62, 46
1, 88200, Note_on_c, 1, 62, 0
1, 88200, Note_on_c, 1, 67, 47
1, 88320, Note_on_c, 0, 79, 0
1, 88320, Note_on_c, 0, 77, 52
1, 88320, Note_on_c, 1, 67, 0
1, 88320, Note_on_c, 1, 59, 48
1, 88440, Note_on_c, 1, 59, 0
1, 88440, Note_on_c, 1, 67, 50
1, 88560, Note_on_c, 0, 77, 0
1, 88560, Note_on_c, 0, 76, 50
1, 88560, Note_on_c, 1, 67, 0
1, 88560, Note_on_c, 1, 60, 51
1, 88680, Note_on_c, 1, 60, 0
1, 88680, Note_on_c, 1, 64, 45
1, 88800, Note_on_c, 0, 76, 0
1, 88800, Note_on_c, 1, 64, 0
1, 88800, Note_on_c, 1, 67, 50
1, 88920, Note_on_c, 1, 67, 0
1, 88920, Note_on_c, 1, 72, 46
1, 89040, Note_on_c, 0, 76, 53
1, 89040, Note_on_c, 1, 72, 0
1, 89040, Note_on_c, 1, 71, 51
1, 89160, Note_on_c, 1, 71, 0
1, 89160, Note_on_c, 1, 72, 47
1, 89280, Note_on_c, 0, 76, 0
1, 89280, Note_on_c, 0, 79, 75
1, 89280, Note_on_c, 1, 72, 0
1, 89280, Note_on_c, 1, 72, 73
1, 89280, Note_on_c, 1, 69, 70
1, 89520, Note_on_c, 0, 79, 0
1, 89520, Note_on_c, 0, 77, 76
1, 89760, Note_on_c, 0, 77, 0
1, 89760, Note_on_c, 0, 76, 88
1, 89760, Note_on_c, 1, 72, 0
1, 89760, Note_on_c, 1, 69, 0
1, 89760, Note_on_c, 1, 67, 87
1, 89760, Note_on_c, 1, 71, 87
1, 90000, Note_on_c, 0, 76, 0
1, 90000, Note_on_c, 0, 76, 88
1, 90000, Note_on_c, 1, 67, 0
1, 90000, Note_on_c, 1, 71, 0
1, 90000, Note_on_c, 1, 65, 78
1, 90000, Note_on_c, 1, 69, 88
1, 90240, Note_on_c, 0, 76, 0
1, 90240, Note_on_c, 0, 74, 85
1, 90480, Note_on_c, 0, 74, 0
1, 90480, Note_on_c, 0, 72, 85
1, 90480, Note_on_c, 1, 65, 0
1, 90480, Note_on_c, 1, 69, 0
1, 90480, Note_on_c, 1, 66, 86
1, 90720, Note_on_c, 0, 72, 0
1, 90720, Note_on_c, 0, 74, 50
1, 90720, Note_on_c, 1, 66, 0
1, 90720, Note_on_c, 1, 67, 50
1, 90780, Note_on_c, 0, 74, 0
1, 90780, Note_on_c, 0, 72, 45
1, 90840, Note_on_c, 0, 72, 0
1, 90840, Note_on_c, 0, 74, 54
1, 90900, Note_on_c, 0, 74, 0
1, 90900, Note_on_c, 0, 72, 49
1, 90960, Note_on_c, 0, 72, 0
1, 90960, Note_on_c, 0, 74, 54
1, 90960, Note_on_c, 1, 67, 0
1, 91020, Note_on_c, 0, 74, 0
1, 91020, Note_on_c, 0, 72, 47
1, 91080, Note_on_c, 0, 72, 0
1, 91080, Note_on_c, 0, 74, 47
1, 91200, Note_on_c, 0, 74, 0
1, 91200, Note_on_c, 0, 71, 47
1, 91440, Note_on_c, 0, 71, 0
1, 91440, Note_on_c, 0, 77, 47
1, 91440, Note_on_c, 1, 62, 51
1, 91800, Note_on_c, 0, 77, 0
1, 91800, Note_on_c, 0, 77, 54
1, 91800, Note_on_c, 1, 62, 0
1, 91800, Note_on_c, 1, 62, 45
1, 91920, Note_on_c, 0, 77, 0
1, 91920, Note_on_c, 0, 77, 47
1, 91920, Note_on_c, 1, 62, 0
1, 91920, Note_on_c, 1, 62, 52
1, 92040, Note_on_c, 0, 77, 0
1, 92040, Note_on_c, 0, 77, 47
1, 92040, Note_on_c, 1, 62, 0
1, 92040, Note_on_c, 1, 62, 45
1, 92100, Note_on_c, 0, 77, 0
1, 92100, Note_on_c, 0, 79, 51
1, 92100, Note_on_c, 1, 62, 0
1, 92100, Note_on_c, 1, 64, 45
1, 92160, Note_on_c, 0, 79, 0
1, 92160, Note_on_c, 0, 81, 47
1, 92160, Note_on_c, 1, 64, 0
1, 92160, Note_on_c, 1, 65, 52
1, 92520, Note_on_c, 0, 81, 0
1, 92520, Note_on_c, 0, 79, 50
1, 92520, Note_on_c, 1, 65, 0
1, 92520, Note_on_c, 1, 64, 51
1, 92640, Note_on_c, 0, 79, 0
1, 92640, Note_on_c, 0, 77, 46
1, 92640, Note_on_c, 1, 64, 0
1, 92640, Note_on_c, 1, 62, 50
1, 92880, Note_on_c, 0, 77, 0
1, 92880, Note_on_c, 0, 77, 48
1, 92880, Note_on_c, 1, 62, 0
1, 92880, Note_on_c, 1, 62, 48
1, 93240, Note_on_c, 0, 77, 0
1, 93240, Note_on_c, 0, 77, 51
1, 93240, Note_on_c, 1, 62, 0
1, 93240, Note_on_c, 1, 62, 46
1, 93360, Note_on_c, 0, 77, 0
1, 93360, Note_on_c, 0, 77, 53
1, 93360, Note_on_c, 1, 62, 0
1, 93360, Note_on_c, 1, 62, 45
1, 93480, Note_on_c, 0, 77, 0
1, 93480, Note_on_c, 0, 77, 46
1, 93480, Note_on_c, 1, 62, 0
1, 93480, Note_on_c, 1, 62, 49
1, 93540, Note_on_c, 0, 77, 0
1, 93540, Note_on_c, 0, 79, 47
1, 93540, Note_on_c, 1, 62, 0
1, 93540, Note_on_c, 1, 64, 49
1, 93600, Note_on_c, 0, 79, 0
1, 93600, Note_on_c, 0, 81, 49
1, 93600, Note_on_c, 1, 64, 0
1, 93600, Note_on_c, 1, 65, 53
1, 93960, Note_on_c, 0, 81, 0
1, 93960, Note_on_c, 0, 79, 47
1, 93960, Note_on_c, 1, 65, 0
1, 93960, Note_on_c, 1, 64, 50
1, 94080, Note_on_c, 0, 79, 0
1, 94080, Note_on_c, 0, 77, 50
1, 94080, Note_on_c, 1, 64, 0
1, 94080, Note_on_c, 1, 62, 48
1, 94320, Note_on_c, 0, 77, 0
1, 94320, Note_on_c, 0, 76, 51
1, 94320, Note_on_c, 1, 62, 0
1, 94320, Note_on_c, 1, 60, 54
1, 94440, Note_on_c, 0, 76, 0
1, 94440, Note_on_c, 0, 72, 51
1, 94560, Note_on_c, 0, 72, 0
1, 94560, Note_on_c, 0, 67, 53
1, 94560, Note_on_c, 1, 60, 0
1, 94680, Note_on_c, 0, 67, 0
1, 94680, Note_on_c, 0, 72, 54
1, 94800, Note_on_c, 0, 72, 0
1, 94800, Note_on_c, 0, 76, 53
1, 94920, Note_on_c, 0, 76, 0
1, 94920, Note_on_c, 0, 72, 45
1, 95040, Note_on_c, 0, 72, 0
1, 95040, Note_on_c, 0, 79, 84
1, 95040, Note_on_c, 1, 59, 86
1, 95040, Note_on_c, 1, 47, 83
1, 95160, Note_on_c, 0, 79, 0
1, 95160, Note_on_c, 0, 67, 89
1, 95280, Note_on_c, 0, 67, 0
1, 95280, Note_on_c, 0, 78, 47
1, 95400, Note_on_c, 0, 78, 0
1, 95400, Note_on_c, 0, 67, 50
1, 95520, Note_on_c, 0, 67, 0
1, 95520, Note_on_c, 0, 77, 50
1, 95640, Note_on_c, 0, 77, 0
1, 95640, Note_on_c, 0, 67, 49
1, 95760, Note_on_c, 0, 67, 0
1, 95760, Note_on_c, 0, 76, 53
1, 95760, Note_on_c, 1, 59, 0
1, 95760, Note_on_c, 1, 47, 0
1, 95760, Note_on_c, 1, 48, 49
1, 95760, Note_on_c, 1, 60, 52
1, 95880, Note_on_c, 0, 76, 0
1, 95880, Note_on_c, 0, 72, 50
1, 96000, Note_on_c, 0, 72, 0
1, 96000, Note_on_c, 0, 67, 48
1, 96000, Note_on_c, 1, 48, 0
1, 96000, Note_on_c, 1, 60, 0
1, 96120, Note_on_c, 0, 67, 0
1, 96120, Note_on_c, 0, 72, 50
1, 96240, Note_on_c, 0, 72, 0
1, 96240, Note_on_c, 0, 76, 48
1, 96360, Note_on_c, 0, 76, 0
1, 96360, Note_on_c, 0, 72, 51
1, 96480, Note_on_c, 0, 72, 0
1, 96480, Note_on_c, 0, 79, 88
1, 96480, Note_on_c, 1, 59, 85
1, 96480, Note_on_c, 1, 47, 87
1, 96600, Note_on_c, 0, 79, 0
1, 96600, Note_on_c, 0, 67, 83
1, 96720, Note_on_c, 0, 67, 0
1, 96720, Note_on_c, 0, 78, 50
1, 96840, Note_on_c, 0, 78, 0
1, 96840, Note_on_c, 0, 67, 54
1, 96960, Note_on_c, 0, 67, 0
1, 96960, Note_on_c, 0, 77, 51
1, 97080, Note_on_c, 0, 77, 0
1, 97080, Note_on_c, 0, 67, 47
1, 97200, Note_on_c, 0, 67, 0
1, 97200, Note_on_c, 0, 76, 48
1, 97200, Note_on_c, 1, 59, 0
1, 97200, Note_on_c, 1, 47, 0
1, 97200, Note_on_c, 1, 48, 52
1, 97200, Note_on_c, 1, 60, 48
1, 97320, Note_on_c, 0, 76, 0
1, 97320, Note_on_c, 0, 79, 54
1, 97440, Note_on_c, 0, 79, 0
1, 97440, Note_on_c, 0, 84, 49
1, 97440, Note_on_c, 1, 48, 0
1, 97440, Note_on_c, 1, 60, 0
1, 97560, Note_on_c, 0, 84, 0
1, 97560, Note_on_c, 0, 83, 46
1, 97680, Note_on_c, 0, 83, 0
1, 97680, Note_on_c, 0, 81, 47
1, 97800, Note_on_c, 0, 81, 0
1, 97800, Note_on_c, 0, 79, 49
1, 97920, Note_on_c, 0, 79, 0
1, 97920, Note_on_c, 0, 77, 77
1, 97920, Note_on_c, 1, 72, 75
1, 97920, Note_on_c, 1, 69, 74
1, 98040, Note_on_c, 0, 77, 0
1, 98040, Note_on_c, 0, 79, 73
1, 98160, Note_on_c, 0, 79, 0
1, 98160, Note_on_c, 0, 81, 73
1, 98280, Note_on_c, 0, 81, 0
1, 98280, Note_on_c, 0, 77, 77
1, 98400, Note_on_c, 0, 77, 0
1, 98400, Note_on_c, 0, 75, 53
1, 98400, Note_on_c, 1, 72, 0
1, 98400, Note_on_c, 1, 69, 0
1, 98400, Note_on_c, 1, 67, 50
1, 98400, Note_on_c, 1, 71, 52
1, 98520, Note_on_c, 0, 75, 0
1, 98520, Note_on_c, 0, 76, 49
1, 98640, Note_on_c, 0, 76, 0
1, 98640, Note_on_c, 0, 74, 79
1, 98640, Note_on_c, 1, 67, 0
1, 98640, Note_on_c, 1, 71, 0
1, 98640, Note_on_c, 1, 69, 76
1, 98640, Note_on_c, 1, 65, 73
1, 98760, Note_on_c, 0, 74, 0
1, 98760, Note_on_c, 0, 76, 72
1, 98880, Note_on_c, 0, 76, 0
1, 98880, Note_on_c, 0, 77, 73
1, 99000, Note_on_c, 0, 77, 0
1, 99000, Note_on_c, 0, 74, 73
1, 99120, Note_on_c, 0, 74, 0
1, 99120, Note_on_c, 0, 71, 50
1, 99120, Note_on_c, 1, 69, 0
1, 99120, Note_on_c, 1, 65, 0
1, 99120, Note_on_c, 1, 64, 48
1, 99120, Note_on_c, 1, 67, 49
1, 99240, Note_on_c, 0, 71, 0
1, 99240, Note_on_c, 0, 72, 45
1, 99360, Note_on_c, 0, 72, 0
1, 99360, Note_on_c, 0, 74, 75
1, 99360, Note_on_c, 1, 64, 0
1, 99360, Note_on_c, 1, 67, 0
1, 99360, Note_on_c, 1, 65, 73
1, 99480, Note_on_c, 0, 74, 0
1, 99480, Note_on_c, 0, 77, 76
1, 99600, Note_on_c, 0, 77, 0
1, 99600, Note_on_c, 0, 76, 76
1, 99600, Note_on_c, 1, 65, 0
1, 99600, Note_on_c, 1, 67, 74
1, 99720, Note_on_c, 0, 76, 0
1, 99720, Note_on_c, 0, 72, 72
1, 99840, Note_on_c, 0, 72, 0
1, 99840, Note_on_c, 0, 71, 78
1, 99840, Note_on_c, 1, 67, 0
1, 99840, Note_on_c, 1, 55, 76
1, 99960, Note_on_c, 0, 71, 0
1, 99960, Note_on_c, 0, 74, 72
1, 100080, Note_on_c, 0, 74, 0
1, 100080, Note_on_c, 0, 72, 75
1, 100080, Note_on_c, 1, 55, 0
1, 100080, Note_on_c, 1, 60, 76
1, 100200, Note_on_c, 0, 72, 0
1, 100200, Note_on_c, 0, 74, 74
1, 100320, Note_on_c, 0, 74, 0
1, 100320, Note_on_c, 0, 76, 73
1, 100320, Note_on_c, 1, 60, 0
1, 100440, Note_on_c, 0, 76, 0
1, 100440, Note_on_c, 0, 72, 75
1, 100560, Note_on_c, 0, 72, 0
1, 100560, Note_on_c, 0, 69, 75
1, 100680, Note_on_c, 0, 69, 0
1, 100680, Note_on_c, 0, 67, 74
1, 100800, Note_on_c, 0, 67, 0
1, 100800, Note_on_c, 0, 65, 77
1, 100800, Note_on_c, 1, 57, 79
1, 100800, Note_on_c, 1, 60, 74
1, 100920, Note_on_c, 0, 65, 0
1, 100920, Note_on_c, 0, 67, 75
1, 101040, Note_on_c, 0, 67, 0
1, 101040, Note_on_c, 0, 69, 70
1, 101160, Note_on_c, 0, 69, 0
1, 101160, Note_on_c, 0, 65, 74
1, 101280, Note_on_c, 0, 65, 0
1, 101280, Note_on_c, 0, 63, 48
1, 101280, Note_on_c, 1, 57, 0
1, 101280, Note_on_c, 1, 60, 0
1, 101280, Note_on_c, 1, 59, 51
1, 101280, Note_on_c, 1, 55, 51
1, 101400, Note_on_c, 0, 63, 0
1, 101400, Note_on_c, 0, 64, 45
1, 101520, Note_on_c, 0, 64, 0
1, 101520, Note_on_c, 0, 62, 73
1, 101520, Note_on_c, 1, 59, 0
1, 101520, Note_on_c, 1, 55, 0
1, 101520, Note_on_c, 1, 53, 73
1, 101520, Note_on_c, 1, 57, 76
1, 101640, Note_on_c, 0, 62, 0
1, 101640, Note_on_c, 0, 64, 70
1, 101760, Note_on_c, 0, 64, 0
1, 101760, Note_on_c, 0, 65, 73
1, 101880, Note_on_c, 0, 65, 0
1, 101880, Note_on_c, 0, 62, 73
1, 102000, Note_on_c, 0, 62, 0
1, 102000, Note_on_c, 0, 59, 51
1, 102000, Note_on_c, 1, 53, 0
1, 102000, Note_on_c, 1, 57, 0
1, 102000, Note_on_c, 1, 55, 46
1, 102000, Note_on_c, 1, 52, 54
1, 102120, Note_on_c, 0, 59, 0
1, 102120, Note_on_c, 0, 60, 47
1, 102240, Note_on_c, 0, 60, 0
1, 102240, Note_on_c, 0, 62, 79
1, 102240, Note_on_c, 1, 55, 0
1, 102240, Note_on_c, 1, 52, 0
1, 102240, Note_on_c, 1, 53, 77
1, 102360, Note_on_c, 0, 62, 0
1, 102360, Note_on_c, 0, 65, 78
1, 102480, Note_on_c, 0, 65, 0
1, 102480, Note_on_c, 0, 64, 79
1, 102480, Note_on_c, 1, 53, 0
1, 102480, Note_on_c, 1, 55, 78
1, 102600, Note_on_c, 0, 64, 0
1, 102600, Note_on_c, 0, 60, 79
1, 102720, Note_on_c, 0, 60, 0
1, 102720, Note_on_c, 0, 59, 79
1, 102720, Note_on_c, 1, 55, 0
1, 102720, Note_on_c, 1, 43, 70
1, 102840, Note_on_c, 0, 59, 0
1, 102840, Note_on_c, 0, 62, 79
1, 102960, Note_on_c, 0, 62, 0
1, 102960, Note_on_c, 0, 60, 75
1, 102960, Note_on_c, 1, 43, 0
1, 102960, Note_on_c, 1, 48, 72
1, 103200, Note_on_c, 0, 60, 0
1, 103200, Note_on_c, 0, 67, 45
1, 103200, Note_on_c, 1, 48, 0
1, 103440, Note_on_c, 0, 67, 0
1, 103440, Note_on_c, 0, 64, 48
1, 103680, Note_on_c, 0, 64, 0
1, 103680, Note_on_c, 0, 60, 46
1, 103920, Note_on_c, 0, 60, 0
1, 103920, Note_on_c, 1, 52, 51
1, 103920, Note_on_c, 1, 58, 46
1, 104160, Note_on_c, 1, 52, 0
1, 104160, Note_on_c, 1, 58, 0
1, 104160, Note_on_c, 1, 52, 54
1, 104160, Note_on_c, 1, 58, 47
1, 104400, Note_on_c, 1, 52, 0
1, 104400, Note_on_c, 1, 58, 0
1, 104400, Note_on_c, 1, 57, 53
1, 104400, Note_on_c, 1, 53, 52
1, 104640, Note_on_c, 0, 72, 45
1, 104640, Note_on_c, 1, 57, 0
1, 104640, Note_on_c, 1, 53, 0
1, 104880, Note_on_c, 0, 72, 0
1, 104880, Note_on_c, 0, 69, 48
1, 105120, Note_on_c, 0, 69, 0
1, 105120, Note_on_c, 0, 65, 45
1, 105360, Note_on_c, 0, 65, 0
1, 105360, Note_on_c, 1, 57, 48
1, 105360, Note_on_c, 1, 60, 49
1, 105600, Note_on_c, 1, 57, 0
1, 105600, Note_on_c, 1, 60, 0
1, 105600, Note_on_c, 1, 60, 45
1, 105600, Note_on_c, 1, 57, 48
1, 105840, Note_on_c, 1, 60, 0
1, 105840, Note_on_c, 1, 57, 0
1, 105840, Note_on_c, 1, 59, 49
1, 105840, Note_on_c, 1, 55, 45
1, 106080, Note_on_c, 0, 77, 49
1, 106080, Note_on_c, 1, 59, 0
1, 106080, Note_on_c, 1, 55, 0
1, 106320, Note_on_c, 0, 77, 0
1, 106320, Note_on_c, 0, 74, 51
1, 106560, Note_on_c, 0, 74, 0
1, 106560, Note_on_c, 0, 71, 54
1, 106800, Note_on_c, 0, 71, 0
1, 106800, Note_on_c, 1, 55, 46
1, 106800, Note_on_c, 1, 65, 48
1, 107040, Note_on_c, 1, 55, 0
1, 107040, Note_on_c, 1, 65, 0
1, 107040, Note_on_c, 1, 55, 49
1, 107040, Note_on_c, 1, 65, 46
1, 107280, Note_on_c, 1, 55, 0
1, 107280, Note_on_c, 1, 65, 0
1, 107280, Note_on_c, 1, 64, 76
1, 107280, Note_on_c, 1, 60, 76
1, 107400, Note_on_c, 0, 72, 79
1, 107520, Note_on_c, 0, 72, 0
1, 107520, Note_on_c, 0, 71, 72
1, 107520, Note_on_c, 1, 64, 0
1, 107520, Note_on_c, 1, 60, 0
1, 107640, Note_on_c, 0, 71, 0
1, 107640, Note_on_c, 0, 72, 70
1, 107760, Note_on_c, 0, 72, 0
1, 107760, Note_on_c, 0, 76, 75
1, 107880, Note_on_c, 0, 76, 0
1, 107880, Note_on_c, 0, 79, 73
1, 108000, Note_on_c, 0, 79, 0
1, 108000, Note_on_c, 1, 55, 76
1, 108000, Note_on_c, 1, 62, 70
1, 108120, Note_on_c, 0, 77, 74
1, 108240, Note_on_c, 0, 77, 0
1, 108240, Note_on_c, 0, 76, 78
1, 108240, Note_on_c, 1, 55, 0
1, 108240, Note_on_c, 1, 62, 0
1, 108360, Note_on_c, 0, 76, 0
1, 108360, Note_on_c, 0, 77, 79
1, 108480, Note_on_c, 0, 77, 0
1, 108480, Note_on_c, 0, 74, 70
1, 108600, Note_on_c, 0, 74, 0
1, 108600, Note_on_c, 0, 71, 71
1, 108720, Note_on_c, 0, 71, 0
1, 108720, Note_on_c, 1, 64, 77
1, 108720, Note_on_c, 1, 60, 70
1, 108840, Note_on_c, 0, 72, 75
1, 108960, Note_on_c, 0, 72, 0
1, 108960, Note_on_c, 0, 71, 75
1, 108960, Note_on_c, 1, 64, 0
1, 108960, Note_on_c, 1, 60, 0
1, 109080, Note_on_c, 0, 71, 0
1, 109080, Note_on_c, 0, 72, 72
1, 109200, Note_on_c, 0, 72, 0
1, 109200, Note_on_c, 0, 76, 75
1, 109320, Note_on_c, 0, 76, 0
1, 109320, Note_on_c, 0, 79, 76
1, 109440, Note_on_c, 0, 79, 0
1, 109440, Note_on_c, 1, 55, 73
1, 109440, Note_on_c, 1, 62, 76
1, 109560, Note_on_c, 0, 77, 79
1, 109680, Note_on_c, 0, 77, 0
1, 109680, Note_on_c, 0, 76, 78
1, 109680, Note_on_c, 1, 55, 0
1, 109680, Note_on_c, 1, 62, 0
1, 109800, Note_on_c, 0, 76, 0
1, 109800, Note_on_c, 0, 77, 79
1, 109920, Note_on_c, 0, 77, 0
1, 109920, Note_on_c, 0, 74, 73
1, 110040, Note_on_c, 0, 74, 0
1, 110040, Note_on_c, 0, 71, 78
1, 110160, Note_on_c, 0, 71, 0
1, 110160, Note_on_c, 0, 72, 72
1, 110160, Note_on_c, 1, 48, 76
1, 110280, Note_on_c, 1, 48, 0
1, 110280, Note_on_c, 1, 60, 72
1, 110400, Note_on_c, 0, 72, 0
1, 110400, Note_on_c, 0, 84, 70
1, 110400, Note_on_c, 0, 76, 78
1, 110400, Note_on_c, 1, 60, 0
1, 110400, Note_on_c, 1, 64, 75
1, 110520, Note_on_c, 1, 64, 0
1, 110520, Note_on_c, 1, 60, 72
1, 110640, Note_on_c, 0, 84, 0
1, 110640, Note_on_c, 0, 76, 0
1, 110640, Note_on_c, 0, 84, 71
1, 110640, Note_on_c, 0, 76, 78
1, 110640, Note_on_c, 1, 60, 0
1, 110640, Note_on_c, 1, 55, 76
1, 110760, Note_on_c, 1, 55, 0
1, 110760, Note_on_c, 1, 52, 73
1, 110880, Note_on_c, 0, 84, 0
1, 110880, Note_on_c, 0, 76, 0
1, 110880, Note_on_c, 0, 84, 70
1, 110880, Note_on_c, 0, 76, 74
1, 110880, Note_on_c, 1, 52, 0
1, 110880, Note_on_c, 1, 48, 73
1, 111120, Note_on_c, 0, 84, 0
1, 111120, Note_on_c, 0, 76, 0
1, 111120, Note_on_c, 1, 48, 0
1, 111600, Note_on_c, 0, 72, 51
1, 111960, Note_on_c, 0, 72, 0
1, 111960, Note_on_c, 0, 72, 54
1, 112080, Note_on_c, 0, 72, 0
1, 112080, Note_on_c, 0, 72, 49
1, 112200, Note_on_c, 0, 72, 0
1, 112200, Note_on_c, 0, 72, 51
1, 112260, Note_on_c, 0, 72, 0
1, 112260, Note_on_c, 0, 74, 46
1, 112320, Note_on_c, 0, 74, 0
1, 112320, Note_on_c, 0, 75, 49
1, 112680, Note_on_c, 0, 75, 0
1, 112680, Note_on_c, 0, 74, 49
1, 112800, Note_on_c, 0, 74, 0
1, 112800, Note_on_c, 0, 72, 48
1, 113040, Note_on_c, 0, 72, 0
1, 113040, Note_on_c, 0, 72, 48
1, 113400, Note_on_c, 0, 72, 0
1, 113400, Note_on_c, 0, 72, 50
1, 113520, Note_on_c, 0, 72, 0
1, 113520, Note_on_c, 0, 72, 53
1, 113640, Note_on_c, 0, 72, 0
1, 113640, Note_on_c, 0, 72, 46
1, 113700, Note_on_c, 0, 72, 0
1, 113700, Note_on_c, 0, 74, 52
1, 113760, Note_on_c, 0, 74, 0
1, 113760, Note_on_c, 0, 75, 51
1, 114120, Note_on_c, 0, 75, 0
1, 114120, Note_on_c, 0, 74, 53
1, 114240, Note_on_c, 0, 74, 0
1, 114240, Note_on_c, 0, 72, 52
1, 114480, Note_on_c, 0, 72, 0
1, 114480, Note_on_c, 0, 84, 79
1, 114480, Note_on_c, 0, 81, 74
1, 114480, Note_on_c, 1, 38, 74
1, 114600, Note_on_c, 1, 38, 0
1, 114600, Note_on_c, 1, 50, 70
1, 114720, Note_on_c, 1, 50, 0
1, 114720, Note_on_c, 1, 40, 79
1, 114840, Note_on_c, 1, 40, 0
1, 114840, Note_on_c, 1, 52, 77
1, 114960, Note_on_c, 1, 52, 0
1, 114960, Note_on_c, 1, 42, 78
1, 115080, Note_on_c, 1, 42, 0
1, 115080, Note_on_c, 1, 54, 70
1, 115200, Note_on_c, 0, 84, 0
1, 115200, Note_on_c, 0, 81, 0
1, 115200, Note_on_c, 0, 79, 70
1, 115200, Note_on_c, 0, 82, 76
1, 115200, Note_on_c, 1, 54, 0
1, 115200, Note_on_c, 1, 43, 74
1, 115320, Note_on_c, 1, 43, 0
1, 115320, Note_on_c, 1, 55, 75
1, 115440, Note_on_c, 1, 55, 0
1, 115440, Note_on_c, 1, 45, 76
1, 115560, Note_on_c, 1, 45, 0
1, 115560, Note_on_c, 1, 57, 74
1, 115680, Note_on_c, 1, 57, 0
1, 115680, Note_on_c, 1, 46, 70
1, 115800, Note_on_c, 1, 46, 0
1, 115800, Note_on_c, 1, 58, 77
1, 115920, Note_on_c, 0, 82, 0
1, 115920, Note_on_c, 0, 81, 75
1, 115920, Note_on_c, 1, 58, 0
1, 115920, Note_on_c, 1, 48, 72
1, 116040, Note_on_c, 1, 48, 0
1, 116040, Note_on_c, 1, 60, 72
1, 116160, Note_on_c, 1, 60, 0
1, 116160, Note_on_c, 1, 45, 77
1, 116280, Note_on_c, 1, 45, 0
1, 116280, Note_on_c, 1, 57, 79
1, 116400, Note_on_c, 0, 79, 0
1, 116400, Note_on_c, 0, 78, 77
1, 116400, Note_on_c, 1, 57, 0
1, 116400, Note_on_c, 1, 50, 70
1, 116520, Note_on_c, 1, 50, 0
1, 116520, Note_on_c, 1, 62, 73
1, 116640, Note_on_c, 0, 81, 0
1, 116640, Note_on_c, 0, 78, 0
1, 116640, Note_on_c, 0, 79, 78
1, 116640, Note_on_c, 1, 62, 0
1, 116640, Note_on_c, 1, 58, 76
1, 116640, Note_on_c, 1, 55, 74
1, 117120, Note_on_c, 0, 79, 0
1, 117120, Note_on_c, 1, 58, 0
1, 117120, Note_on_c, 1, 55, 0
1, 117360, Note_on_c, 0, 70, 53
1, 117720, Note_on_c, 0, 70, 0
1, 117720, Note_on_c, 0, 70, 52
1, 117840, Note_on_c, 0, 70, 0
1, 117840, Note_on_c, 0, 70, 49
1, 117960, Note_on_c, 0, 70, 0
1, 117960, Note_on_c, 0, 70, 47
1, 118020, Note_on_c, 0, 70, 0
1, 118020, Note_on_c, 0, 72, 50
1, 118080, Note_on_c, 0, 72, 0
1, 118080, Note_on_c, 0, 73, 49
1, 118440, Note_on_c, 0, 73, 0
1, 118440, Note_on_c, 0, 72, 52
1, 118560, Note_on_c, 0, 72, 0
1, 118560, Note_on_c, 0, 70, 50
1, 118800, Note_on_c, 0, 70, 0
1, 118800, Note_on_c, 0, 70, 47
1, 119160, Note_on_c, 0, 70, 0
1, 119160, Note_on_c, 0, 70, 47
1, 119280, Note_on_c, 0, 70, 0
1, 119280, Note_on_c, 0, 70, 45
1, 119400, Note_on_c, 0, 70, 0
1, 119400, Note_on_c, 0, 70, 49
1, 119460, Note_on_c, 0, 70, 0
1, 119460, Note_on_c, 0, 72, 48
1, 119520, Note_on_c, 0, 72, 0
1, 119520, Note_on_c, 0, 73, 53
1, 119880, Note_on_c, 0, 73, 0
1, 119880, Note_on_c, 0, 72, 46
1, 120000, Note_on_c, 0, 72, 0
1, 120000, Note_on_c, 0, 70, 49
1, 120240, Note_on_c, 0, 70, 0
1, 120240, Note_on_c, 0, 60, 70
1, 120240, Note_on_c, 1, 58, 79
1, 120240, Note_on_c, 1, 55, 75
1, 120360, Note_on_c, 0, 60, 0
1, 120360, Note_on_c, 0, 72, 78
1, 120480, Note_on_c, 0, 72, 0
1, 120480, Note_on_c, 0, 62, 72
1, 120600, Note_on_c, 0, 62, 0
1, 120600, Note_on_c, 0, 74, 75
1, 120720, Note_on_c, 0, 74, 0
1, 120720, Note_on_c, 0, 64, 78
1, 120840, Note_on_c, 0, 64, 0
1, 120840, Note_on_c, 0, 76, 75
1, 120960, Note_on_c, 0, 76, 0
1, 120960, Note_on_c, 0, 65, 79
1, 120960, Note_on_c, 1, 58, 0
1, 120960, Note_on_c, 1, 55, 0
1, 120960, Note_on_c, 1, 53, 76
1, 120960, Note_on_c, 1, 57, 78
1, 121080, Note_on_c, 0, 65, 0
1, 121080, Note_on_c, 0, 77, 71
1, 121200, Note_on_c, 0, 77, 0
1, 121200, Note_on_c, 0, 67, 76
1, 121320, Note_on_c, 0, 67, 0
1, 121320, Note_on_c, 0, 79, 70
1, 121440, Note_on_c, 0, 79, 0
1, 121440, Note_on_c, 0, 69, 77
1, 121560, Note_on_c, 0, 69, 0
1, 121560, Note_on_c, 0, 81, 78
1, 121680, Note_on_c, 0, 81, 0
1, 121680, Note_on_c, 0, 79, 71
1, 121680, Note_on_c, 0, 82, 74
1, 121680, Note_on_c, 1, 53, 0
1, 121680, Note_on_c, 1, 57, 0
1, 121680, Note_on_c, 1, 36, 71
1, 121800, Note_on_c, 1, 36, 0
1, 121800, Note_on_c, 1, 48, 79
1, 121920, Note_on_c, 1, 48, 0
1, 121920, Note_on_c, 1, 38, 73
1, 122040, Note_on_c, 1, 38, 0
1, 122040, Note_on_c, 1, 50, 78
1, 122160, Note_on_c, 1, 50, 0
1, 122160, Note_on_c, 1, 40, 74
1, 122280, Note_on_c, 1, 40, 0
1, 122280, Note_on_c, 1, 52, 75
1, 122400, Note_on_c, 0, 79, 0
1, 122400, Note_on_c, 0, 82, 0
1, 122400, Note_on_c, 0, 77, 78
1, 122400, Note_on_c, 0, 81, 70
1, 122400, Note_on_c, 1, 52, 0
1, 122400, Note_on_c, 1, 41, 78
1, 122520, Note_on_c, 1, 41, 0
1, 122520, Note_on_c, 1, 53, 78
1, 122640, Note_on_c, 1, 53, 0
1, 122640, Note_on_c, 1, 43, 71
1, 122760, Note_on_c, 1, 43, 0
1, 122760, Note_on_c, 1, 55, 73
1, 122880, Note_on_c, 1, 55, 0
1, 122880, Note_on_c, 1, 45, 73
1, 123000, Note_on_c, 1, 45, 0
1, 123000, Note_on_c, 1, 57, 72
1, 123120, Note_on_c, 0, 77, 0
1, 123120, Note_on_c, 0, 81, 0
1, 123120, Note_on_c, 0, 57, 78
1, 123120, Note_on_c, 1, 57, 0
1, 123120, Note_on_c, 1, 55, 72
1, 123120, Note_on_c, 1, 52, 71
1, 123240, Note_on_c, 0, 57, 0
1, 123240, Note_on_c, 0, 69, 75
1, 123360, Note_on_c, 0, 69, 0
1, 123360, Note_on_c, 0, 59, 74
1, 123480, Note_on_c, 0, 59, 0
1, 123480, Note_on_c, 0, 71, 79
1, 123600, Note_on_c, 0, 71, 0
1, 123600, Note_on_c, 0, 61, 78
1, 123720, Note_on_c, 0, 61, 0
1, 123720, Note_on_c, 0, 73, 75
1, 123840, Note_on_c, 0, 73, 0
1, 123840, Note_on_c, 0, 62, 78
1, 123840, Note_on_c, 1, 55, 0
1, 123840, Note_on_c, 1, 52, 0
1, 123840, Note_on_c, 1, 50, 79
1, 123840, Note_on_c, 1, 53, 74
1, 123960, Note_on_c, 0, 62, 0
1, 123960, Note_on_c, 0, 74, 71
1, 124080, Note_on_c, 0, 74, 0
1, 124080, Note_on_c, 0, 64, 71
1, 124200, Note_on_c, 0, 64, 0
1, 124200, Note_on_c, 0, 76, 78
1, 124320, Note_on_c, 0, 76, 0
1, 124320, Note_on_c, 0, 65, 74
1, 124440, Note_on_c, 0, 65, 0
1, 124440, Note_on_c, 0, 77, 75
1, 124560, Note_on_c, 0, 77, 0
1, 124560, Note_on_c, 0, 76, 76
1, 124560, Note_on_c, 0, 79, 76
1, 124560, Note_on_c, 1, 50, 0
1, 124560, Note_on_c, 1, 53, 0
1, 124560, Note_on_c, 1, 33, 70
1, 124680, Note_on_c, 1, 33, 0
1, 124680, Note_on_c, 1, 45, 73
1, 124800, Note_on_c, 1, 45, 0
1, 124800, Note_on_c, 1, 35, 75
1, 124920, Note_on_c, 1, 35, 0
1, 124920, Note_on_c, 1, 47, 78
1, 125040, Note_on_c, 1, 47, 0
1, 125040, Note_on_c, 1, 37, 74
1, 125160, Note_on_c, 1, 37, 0
1, 125160, Note_on_c, 1, 49, 76
1, 125280, Note_on_c, 0, 76, 0
1, 125280, Note_on_c, 0, 79, 0
1, 125280, Note_on_c, 0, 77, 76
1, 125280, Note_on_c, 0, 74, 77
1, 125280, Note_on_c, 1, 49, 0
1, 125280, Note_on_c, 1, 38, 73
1, 125400, Note_on_c, 1, 38, 0
1, 125400, Note_on_c, 1, 50, 73
1, 125520, Note_on_c, 1, 50, 0
1, 125520, Note_on_c, 1, 40, 78
1, 125640, Note_on_c, 1, 40, 0
1, 125640, Note_on_c, 1, 52, 78
1, 125760, Note_on_c, 1, 52, 0
1, 125760, Note_on_c, 1, 41, 71
1, 125880, Note_on_c, 1, 41, 0
1, 125880, Note_on_c, 1, 53, 72
1, 126000, Note_on_c, 0, 77, 0
1, 126000, Note_on_c, 0, 74, 0
1, 126000, Note_on_c, 1, 53, 0
1, 126000, Note_on_c, 1, 55, 53
1, 126120, Note_on_c, 0, 75, 46
1, 126240, Note_on_c, 0, 75, 0
1, 126240, Note_on_c, 0, 74, 49
1, 126240, Note_on_c, 1, 55, 0
1, 126360, Note_on_c, 0, 74, 0
1, 126360, Note_on_c, 0, 75, 51
1, 126480, Note_on_c, 0, 75, 0
1, 126480, Note_on_c, 0, 79, 49
1, 126480, Note_on_c, 1, 67, 50
1, 126480, Note_on_c, 1, 70, 45
1, 126600, Note_on_c, 0, 79, 0
1, 126600, Note_on_c, 0, 75, 53
1, 126720, Note_on_c, 0, 75, 0
1, 126720, Note_on_c, 1, 67, 0
1, 126720, Note_on_c, 1, 70, 0
1, 126720, Note_on_c, 1, 69, 52
1, 126720, Note_on_c, 1, 65, 52
1, 126840, Note_on_c, 0, 74, 51
1, 126960, Note_on_c, 0, 74, 0
1, 126960, Note_on_c, 0, 73, 52
1, 126960, Note_on_c, 1, 69, 0
1, 126960, Note_on_c, 1, 65, 0
1, 127080, Note_on_c, 0, 73, 0
1, 127080, Note_on_c, 0, 74, 48
1, 127200, Note_on_c, 0, 74, 0
1, 127200, Note_on_c, 0, 77, 47
1, 127200, Note_on_c, 1, 65, 50
1, 127200, Note_on_c, 1, 69, 49
1, 127320, Note_on_c, 0, 77, 0
1, 127320, Note_on_c, 0, 74, 46
1, 127440, Note_on_c, 0, 74, 0
1, 127440, Note_on_c, 1, 65, 0
1, 127440, Note_on_c, 1, 69, 0
1, 127440, Note_on_c, 1, 64, 47
1, 127440, Note_on_c, 1, 67, 51
1, 127560, Note_on_c, 0, 73, 47
1, 127680, Note_on_c, 0, 73, 0
1, 127680, Note_on_c, 0, 71, 50
1, 127680, Note_on_c, 1, 64, 0
1, 127680, Note_on_c, 1, 67, 0
1, 127800, Note_on_c, 0, 71, 0
1, 127800, Note_on_c, 0, 73, 50
1, 127920, Note_on_c, 0, 73, 0
1, 127920, Note_on_c, 0, 76, 48
1, 127920, Note_on_c, 1, 64, 45
1, 127920, Note_on_c, 1, 67, 54
1, 128040, Note_on_c, 0, 76, 0
1, 128040, Note_on_c, 0, 73, 53
1, 128160, Note_on_c, 0, 73, 0
1, 128160, Note_on_c, 1, 64, 0
1, 128160, Note_on_c, 1, 67, 0
1, 128160, Note_on_c, 1, 69, 46
1, 128160, Note_on_c, 1, 65, 49
1, 128280, Note_on_c, 0, 74, 47
1, 128400, Note_on_c, 0, 74, 0
1, 128400, Note_on_c, 0, 73, 47
1, 128400, Note_on_c, 1, 69, 0
1, 128400, Note_on_c, 1, 65, 0
1, 128520, Note_on_c, 0, 73, 0
1, 128520, Note_on_c, 0, 74, 52
1, 128640, Note_on_c, 0, 74, 0
1, 128640, Note_on_c, 0, 77, 48
1, 128640, Note_on_c, 1, 65, 50
1, 128640, Note_on_c, 1, 69, 54
1, 128760, Note_on_c, 0, 77, 0
1, 128760, Note_on_c, 0, 74, 47
1, 128880, Note_on_c, 0, 74, 0
1, 128880, Note_on_c, 0, 80, 78
1, 128880, Note_on_c, 0, 74, 77
1, 128880, Note_on_c, 0, 86, 77
1, 128880, Note_on_c, 1, 65, 0
1, 128880, Note_on_c, 1, 69, 0
1, 129000, Note_on_c, 1, 58, 76
1, 129120, Note_on_c, 0, 80, 0
1, 129120, Note_on_c, 0, 86, 0
1, 129120, Note_on_c, 0, 74, 0
1, 129120, Note_on_c, 1, 58, 0
1, 129120, Note_on_c, 1, 57, 74
1, 129240, Note_on_c, 1, 57, 0
1, 129240, Note_on_c, 1, 58, 73
1, 129360, Note_on_c, 1, 58, 0
1, 129360, Note_on_c, 1, 62, 77
1, 129480, Note_on_c, 1, 62, 0
1, 129480, Note_on_c, 1, 58, 72
1, 129600, Note_on_c, 0, 76, 76
1, 129600, Note_on_c, 0, 85, 71
1, 129600, Note_on_c, 0, 81, 78
1, 129600, Note_on_c, 1, 58, 0
1, 129720, Note_on_c, 1, 57, 74
1, 129840, Note_on_c, 0, 76, 0
1, 129840, Note_on_c, 0, 81, 0
1, 129840, Note_on_c, 0, 85, 0
1, 129840, Note_on_c, 1, 57, 0
1, 129840, Note_on_c, 1, 56, 74
1, 129960, Note_on_c, 1, 56, 0
1, 129960, Note_on_c, 1, 57, 78
1, 130080, Note_on_c, 1, 57, 0
1, 130080, Note_on_c, 1, 61, 78
1, 130200, Note_on_c, 1, 61, 0
1, 130200, Note_on_c, 1, 57, 74
1, 130320, Note_on_c, 0, 80, 70
1, 130320, Note_on_c, 0, 74, 73
1, 130320, Note_on_c, 0, 86, 74
1, 130320, Note_on_c, 1, 57, 0
1, 130440, Note_on_c, 1, 46, 71
1, 130560, Note_on_c, 0, 80, 0
1, 130560, Note_on_c, 0, 86, 0
1, 130560, Note_on_c, 0, 74, 0
1, 130560, Note_on_c, 1, 46, 0
1, 130560, Note_on_c, 1, 45, 76
1, 130680, Note_on_c, 1, 45, 0
1, 130680, Note_on_c, 1, 46, 75
1, 130800, Note_on_c, 1, 46, 0
1, 130800, Note_on_c, 1, 50, 78
1, 130920, Note_on_c, 1, 50, 0
1, 130920, Note_on_c, 1, 46, 71
1, 131040, Note_on_c, 0, 85, 77
1, 131040, Note_on_c, 0, 81, 75
1, 131040, Note_on_c, 0, 76, 73
1, 131040, Note_on_c, 1, 46, 0
1, 131160, Note_on_c, 1, 45, 75
1, 131280, Note_on_c, 0, 85, 0
1, 131280, Note_on_c, 0, 76, 0
1, 131280, Note_on_c, 0, 81, 0
1, 131280, Note_on_c, 1, 45, 0
1, 131280, Note_on_c, 1, 44, 73
1, 131400, Note_on_c, 1, 44, 0
1, 131400, Note_on_c, 1, 45, 75
1, 131520, Note_on_c, 1, 45, 0
1, 131520, Note_on_c, 1, 49, 76
1, 131640, Note_on_c, 1, 49, 0
1, 131640, Note_on_c, 1, 45, 72
1, 131760, Note_on_c, 1, 45, 0
1, 131760, Note_on_c, 1, 33, 77
1, 132000, Note_on_c, 1, 33, 0
1, 132960, Note_on_c, 0, 84, 72
1, 133080, Note_on_c, 0, 84, 0
1, 133080, Note_on_c, 0, 81, 71
1, 133200, Note_on_c, 0, 81, 0
1, 133200, Note_on_c, 0, 77, 78
1, 133440, Note_on_c, 0, 77, 0
1, 133440, Note_on_c, 0, 77, 74
1, 133680, Note_on_c, 0, 77, 0
1, 133680, Note_on_c, 0, 77, 70
1, 133860, Note_on_c, 0, 77, 0
1, 133860, Note_on_c, 0, 76, 73
1, 133920, Note_on_c, 0, 76, 0
1, 133920, Note_on_c, 0, 82, 47
1, 133920, Note_on_c, 1, 67, 51
1, 133920, Note_on_c, 1, 72, 51
1, 134160, Note_on_c, 0, 82, 0
1, 134160, Note_on_c, 1, 67, 0
1, 134160, Note_on_c, 1, 72, 0
1, 134580, Note_on_c, 0, 77, 53
1, 134640, Note_on_c, 0, 77, 0
1, 134640, Note_on_c, 0, 81, 54
1, 134640, Note_on_c, 1, 65, 52
1, 134640, Note_on_c, 1, 72, 51
1, 134880, Note_on_c, 0, 81, 0
1, 134880, Note_on_c, 1, 65, 0
1, 134880, Note_on_c, 1, 72, 0
1, 135300, Note_on_c, 0, 76, 47
1, 135360, Note_on_c, 0, 76, 0
1, 135360, Note_on_c, 0, 79, 47
1, 135360, Note_on_c, 1, 70, 49
1, 135360, Note_on_c, 1, 72, 47
1, 135600, Note_on_c, 0, 79, 0
1, 135600, Note_on_c, 1, 70, 0
1, 135600, Note_on_c, 1, 72, 0
1, 136080, Note_on_c, 0, 77, 70
1, 136080, Note_on_c, 1, 69, 79
1, 136200, Note_on_c, 0, 77, 0
1, 136200, Note_on_c, 0, 79, 78
1, 136320, Note_on_c, 0, 79, 0
1, 136320, Note_on_c, 0, 81, 79
1, 136440, Note_on_c, 0, 81, 0
1, 136440, Note_on_c, 0, 77, 72
1, 136560, Note_on_c, 0, 77, 0
1, 136560, Note_on_c, 0, 72, 78
1, 136680, Note_on_c, 0, 72, 0
1, 136680, Note_on_c, 0, 73, 79
1, 136800, Note_on_c, 0, 73, 0
1, 136800, Note_on_c, 0, 74, 78
1, 136800, Note_on_c, 1, 69, 0
1, 136800, Note_on_c, 1, 70, 70
1, 136920, Note_on_c, 0, 74, 0
1, 136920, Note_on_c, 0, 76, 76
1, 137040, Note_on_c, 0, 76, 0
1, 137040, Note_on_c, 0, 77, 73
1, 137040, Note_on_c, 1, 70, 0
1, 137160, Note_on_c, 0, 77, 0
1, 137160, Note_on_c, 0, 74, 77
1, 137280, Note_on_c, 0, 74, 0
1, 137280, Note_on_c, 0, 67, 72
1, 137400, Note_on_c, 0, 67, 0
1, 137400, Note_on_c, 0, 69, 70
1, 137520, Note_on_c, 0, 69, 0
1, 137520, Note_on_c, 0, 70, 70
1, 137520, Note_on_c, 1, 55, 75
1, 137640, Note_on_c, 0, 70, 0
1, 137640, Note_on_c, 0, 72, 75
1, 137760, Note_on_c, 0, 72, 0
1, 137760, Note_on_c, 0, 74, 73
1, 137760, Note_on_c, 1, 55, 0
1, 137760, Note_on_c, 1, 58, 75
1, 137880, Note_on_c, 0, 74, 0
1, 137880, Note_on_c, 0, 70, 73
1, 138000, Note_on_c, 0, 70, 0
1, 138000, Note_on_c, 0, 62, 74
1, 138000, Note_on_c, 1, 58, 0
1, 138000, Note_on_c, 1, 59, 73
1, 138120, Note_on_c, 0, 62, 0
1, 138120, Note_on_c, 0, 65, 73
1, 138240, Note_on_c, 0, 65, 0
1, 138240, Note_on_c, 0, 64, 72
1, 138240, Note_on_c, 1, 59, 0
1, 138240, Note_on_c, 1, 60, 76
1, 138360, Note_on_c, 0, 64, 0
1, 138360, Note_on_c, 0, 65, 70
1, 138480, Note_on_c, 0, 65, 0
1, 138480, Note_on_c, 0, 67, 78
1, 138480, Note_on_c, 1, 60, 0
1, 138600, Note_on_c, 0, 67, 0
1, 138600, Note_on_c, 0, 64, 77
1, 138720, Note_on_c, 0, 64, 0
1, 138720, Note_on_c, 0, 72, 74
1, 138840, Note_on_c, 0, 72, 0
1, 138840, Note_on_c, 0, 69, 77
1, 138960, Note_on_c, 0, 69, 0
1, 138960, Note_on_c, 0, 65, 75
1, 139200, Note_on_c, 0, 65, 0
1, 139200, Note_on_c, 0, 65, 76
1, 139440, Note_on_c, 0, 65, 0
1, 139440, Note_on_c, 0, 65, 72
1, 139620, Note_on_c, 0, 65, 0
1, 139620, Note_on_c, 0, 64, 71
1, 139680, Note_on_c, 0, 64, 0
1, 139680, Note_on_c, 0, 70, 52
1, 139680, Note_on_c, 1, 72, 48
1, 139680, Note_on_c, 1, 67, 54
1, 139920, Note_on_c, 0, 70, 0
1, 139920, Note_on_c, 1, 72, 0
1, 139920, Note_on_c, 1, 67, 0
1, 140340, Note_on_c, 0, 65, 45
1, 140400, Note_on_c, 0, 65, 0
1, 140400, Note_on_c, 0, 69, 48
1, 140400, Note_on_c, 1, 72, 52
1, 140640, Note_on_c, 0, 69, 0
1, 140640, Note_on_c, 1, 72, 0
1, 141060, Note_on_c, 0, 64, 46
1, 141120, Note_on_c, 0, 64, 0
1, 141120, Note_on_c, 0, 67, 52
1, 141120, Note_on_c, 1, 72, 45
1, 141120, Note_on_c, 1, 70, 52
1, 141360, Note_on_c, 0, 67, 0
1, 141360, Note_on_c, 1, 72, 0
1, 141360, Note_on_c, 1, 70, 0
1, 141840, Note_on_c, 0, 65, 70
1, 141840, Note_on_c, 1, 45, 76
1, 141840, Note_on_c, 1, 57, 73
1, 141960, Note_on_c, 0, 65, 0
1, 141960, Note_on_c, 0, 67, 70
1, 142080, Note_on_c, 0, 67, 0
1, 142080, Note_on_c, 0, 69, 70
1, 142200, Note_on_c, 0, 69, 0
1, 142200, Note_on_c, 0, 70, 77
1, 142320, Note_on_c, 0, 70, 0
1, 142320, Note_on_c, 0, 72, 71
1, 142440, Note_on_c, 0, 72, 0
1, 142440, Note_on_c, 0, 73, 71
1, 142560, Note_on_c, 0, 73, 0
1, 142560, Note_on_c, 0, 74, 77
1, 142560, Note_on_c, 1, 45, 0
1, 142560, Note_on_c, 1, 57, 0
1, 142560, Note_on_c, 1, 46, 78
1, 142560, Note_on_c, 1, 58, 72
1, 142680, Note_on_c, 0, 74, 0
1, 142680, Note_on_c, 0, 76, 79
1, 142800, Note_on_c, 0, 76, 0
1, 142800, Note_on_c, 0, 77, 73
1, 142800, Note_on_c, 1, 46, 0
1, 142800, Note_on_c, 1, 58, 0
1, 142920, Note_on_c, 0, 77, 0
1, 142920, Note_on_c, 0, 79, 76
1, 143040, Note_on_c, 0, 79, 0
1, 143040, Note_on_c, 0, 81, 75
1, 143160, Note_on_c, 0, 81, 0
1, 143160, Note_on_c, 0, 82, 71
1, 143280, Note_on_c, 0, 82, 0
1, 143280, Note_on_c, 0, 84, 77
1, 143520, Note_on_c, 0, 84, 0
1, 143520, Note_on_c, 0, 77, 76
1, 143520, Note_on_c, 0, 69, 75
1, 143520, Note_on_c, 1, 60, 75
1, 143760, Note_on_c, 0, 77, 0
1, 143760, Note_on_c, 0, 69, 0
1, 143760, Note_on_c, 0, 76, 73
1, 143760, Note_on_c, 0, 67, 74
1, 143760, Note_on_c, 1, 60, 0
1, 143760, Note_on_c, 1, 48, 74
1, 144000, Note_on_c, 0, 76, 0
1, 144000, Note_on_c, 0, 67, 0
1, 144000, Note_on_c, 0, 69, 70
1, 144000, Note_on_c, 0, 77, 73
1, 144000, Note_on_c, 1, 48, 0
1, 144000, Note_on_c, 1, 53, 70
1, 144240, Note_on_c, 1, 53, 0
1, 144240, Note_on_c, 1, 41, 75
1, 144480, Note_on_c, 0, 69, 0
1, 144480, Note_on_c, 0, 77, 0
1, 144480, Note_on_c, 1, 41, 0
1, 144480, Note_on_c, 1, 41, 79
1, 144720, Note_on_c, 0, 70, 49
1, 144720, Note_on_c, 0, 62, 50
1, 144720, Note_on_c, 1, 41, 0
1, 144720, Note_on_c, 1, 41, 52
1, 144960, Note_on_c, 0, 70, 0
1, 144960, Note_on_c, 0, 62, 0
1, 144960, Note_on_c, 0, 69, 50
1, 144960, Note_on_c, 0, 60, 49
1, 144960, Note_on_c, 1, 41, 0
1, 144960, Note_on_c, 1, 41, 45
1, 145200, Note_on_c, 0, 69, 0
1, 145200, Note_on_c, 0, 60, 0
1, 145200, Note_on_c, 0, 58, 46
1, 145200, Note_on_c, 0, 67, 46
1, 145200, Note_on_c, 1, 41, 0
1, 145200, Note_on_c, 1, 41, 54
1, 145440, Note_on_c, 0, 58, 0
1, 145440, Note_on_c, 0, 67, 0
1, 145440, Note_on_c, 0, 58, 45
1, 145440, Note_on_c, 0, 67, 52
1, 145440, Note_on_c, 1, 41, 0
1, 145440, Note_on_c, 1, 41, 52
1, 145680, Note_on_c, 0, 58, 0
1, 145680, Note_on_c, 0, 67, 0
1, 145680, Note_on_c, 0, 57, 48
1, 145680, Note_on_c, 0, 65, 53
1, 145680, Note_on_c, 1, 41, 0
1, 145680, Note_on_c, 1, 41, 54
1, 145920, Note_on_c, 0, 57, 0
1, 145920, Note_on_c, 0, 65, 0
1, 145920, Note_on_c, 0, 57, 47
1, 145920, Note_on_c, 0, 65, 52
1, 145920, Note_on_c, 1, 41, 0
1, 145920, Note_on_c, 1, 41, 45
1, 146160, Note_on_c, 0, 57, 0
1, 146160, Note_on_c, 0, 65, 0
1, 146160, Note_on_c, 0, 65, 54
1, 146160, Note_on_c, 0, 57, 54
1, 146160, Note_on_c, 1, 41, 0
1, 146160, Note_on_c, 1, 41, 54
1, 146400, Note_on_c, 0, 65, 0
1, 146400, Note_on_c, 0, 57, 0
1, 146400, Note_on_c, 0, 58, 54
1, 146400, Note_on_c, 0, 67, 51
1, 146400, Note_on_c, 1, 41, 0
1, 146400, Note_on_c, 1, 41, 50
1, 146640, Note_on_c, 0, 58, 0
1, 146640, Note_on_c, 0, 67, 0
1, 146640, Note_on_c, 0, 64, 49
1, 146640, Note_on_c, 0, 55, 45
1, 146640, Note_on_c, 1, 41, 0
1, 146640, Note_on_c, 1, 41, 52
1, 146880, Note_on_c, 0, 64, 0
1, 146880, Note_on_c, 0, 55, 0
1, 146880, Note_on_c, 0, 57, 49
1, 146880, Note_on_c, 0, 65, 54
1, 146880, Note_on_c, 1, 41, 0
1, 146880, Note_on_c, 1, 41, 47
1, 147120, Note_on_c, 0, 57, 0
1, 147120, Note_on_c, 0, 65, 0
1, 147120, Note_on_c, 1, 41, 0
1, 147120, Note_on_c, 1, 53, 49
1, 147360, Note_on_c, 1, 53, 0
1, 147360, Note_on_c, 1, 53, 45
1, 147600, Note_on_c, 0, 70, 50
1, 147600, Note_on_c, 0, 74, 45
1, 147600, Note_on_c, 1, 53, 0
1, 147600, Note_on_c, 1, 53, 47
1, 147840, Note_on_c, 0, 70, 0
1, 147840, Note_on_c, 0, 74, 0
1, 147840, Note_on_c, 0, 69, 48
1, 147840, Note_on_c, 0, 72, 53
1, 147840, Note_on_c, 1, 53, 0
1, 147840, Note_on_c, 1, 53, 47
1, 148080, Note_on_c, 0, 69, 0
1, 148080, Note_on_c, 0, 72, 0
1, 148080, Note_on_c, 0, 67, 54
1, 148080, Note_on_c, 0, 70, 54
1, 148080, Note_on_c, 1, 53, 0
1, 148080, Note_on_c, 1, 53, 53
1, 148320, Note_on_c, 0, 67, 0
1, 148320, Note_on_c, 0, 70, 0
1, 148320, Note_on_c, 0, 67, 51
1, 148320, Note_on_c, 0, 70, 47
1, 148320, Note_on_c, 1, 53, 0
1, 148320, Note_on_c, 1, 53, 52
1, 148560, Note_on_c, 0, 67, 0
1, 148560, Note_on_c, 0, 70, 0
1, 148560, Note_on_c, 0, 65, 47
1, 148560, Note_on_c, 0, 69, 49
1, 148560, Note_on_c, 1, 53, 0
1, 148560, Note_on_c, 1, 53, 54
1, 148800, Note_on_c, 0, 65, 0
1, 148800, Note_on_c, 0, 69, 0
1, 148800, Note_on_c, 0, 69, 54
1, 148800, Note_on_c, 0, 65, 46
1, 148800, Note_on_c, 1, 53, 0
1, 148800, Note_on_c, 1, 53, 50
1, 149040, Note_on_c, 0, 69, 0
1, 149040, Note_on_c, 0, 65, 0
1, 149040, Note_on_c, 0, 65, 53
1, 149040, Note_on_c, 0, 69, 51
1, 149040, Note_on_c, 1, 53, 0
1, 149040, Note_on_c, 1, 53, 52
1, 149280, Note_on_c, 0, 65, 0
1, 149280, Note_on_c, 0, 69, 0
1, 149280, Note_on_c, 0, 70, 52
1, 149280, Note_on_c, 0, 67, 45
1, 149280, Note_on_c, 1, 53, 0
1, 149280, Note_on_c, 1, 53, 46
1, 149520, Note_on_c, 0, 70, 0
1, 149520, Note_on_c, 0, 67, 0
1, 149520, Note_on_c, 0, 64, 46
1, 149520, Note_on_c, 0, 67, 53
1, 149520, Note_on_c, 1, 53, 0
1, 149520, Note_on_c, 1, 53, 54
1, 149760, Note_on_c, 0, 64, 0
1, 149760, Note_on_c, 0, 67, 0
1, 149760, Note_on_c, 0, 69, 53
1, 149760, Note_on_c, 0, 65, 48
1, 149760, Note_on_c, 1, 53, 0
1, 149760, Note_on_c, 1, 53, 45
1, 150000, Note_on_c, 0, 69, 0
1, 150000, Note_on_c, 0, 65, 0
1, 150000, Note_on_c, 1, 53, 0
1, 150000, Note_on_c, 1, 53, 53
1, 150240, Note_on_c, 1, 53, 0
1, 150240, Note_on_c, 1, 53, 49
1, 150480, Note_on_c, 1, 53, 0
1, 150480, Note_on_c, 1, 65, 78
1, 150600, Note_on_c, 0, 69, 74
1, 150720, Note_on_c, 0, 69, 0
1, 150720, Note_on_c, 0, 74, 78
1, 150720, Note_on_c, 1, 65, 0
1, 150840, Note_on_c, 0, 74, 0
1, 150840, Note_on_c, 0, 77, 71
1, 150960, Note_on_c, 0, 77, 0
1, 150960, Note_on_c, 0, 81, 78
1, 151080, Note_on_c, 1, 65, 71
1, 151200, Note_on_c, 0, 81, 0
1, 151200, Note_on_c, 1, 65, 0
1, 151200, Note_on_c, 1, 64, 71
1, 151320, Note_on_c, 0, 67, 77
1, 151440, Note_on_c, 0, 67, 0
1, 151440, Note_on_c, 0, 72, 78
1, 151440, Note_on_c, 1, 64, 0
1, 151560, Note_on_c, 0, 72, 0
1, 151560, Note_on_c, 0, 76, 70
1, 151680, Note_on_c, 0, 76, 0
1, 151680, Note_on_c, 0, 79, 71
1, 151800, Note_on_c, 1, 64, 74
1, 151920, Note_on_c, 0, 79, 0
1, 151920, Note_on_c, 1, 64, 0
1, 151920, Note_on_c, 1, 62, 78
1, 152040, Note_on_c, 0, 65, 72
1, 152160, Note_on_c, 0, 65, 0
1, 152160, Note_on_c, 0, 71, 76
1, 152160, Note_on_c, 1, 62, 0
1, 152280, Note_on_c, 0, 71, 0
1, 152280, Note_on_c, 0, 74, 78
1, 152400, Note_on_c, 0, 74, 0
1, 152400, Note_on_c, 0, 77, 73
1, 152520, Note_on_c, 1, 62, 75
1, 152640, Note_on_c, 0, 77, 0
1, 152640, Note_on_c, 1, 62, 0
1, 152640, Note_on_c, 1, 60, 76
1, 152760, Note_on_c, 0, 64, 78
1, 152880, Note_on_c, 0, 64, 0
1, 152880, Note_on_c, 0, 67, 75
1, 152880, Note_on_c, 1, 60, 0
1, 153000, Note_on_c, 0, 67, 0
1, 153000, Note_on_c, 0, 72, 76
1, 153120, Note_on_c, 0, 72, 0
1, 153120, Note_on_c, 0, 76, 78
1, 153240, Note_on_c, 1, 72, 76
1, 153360, Note_on_c, 0, 76, 0
1, 153360, Note_on_c, 1, 72, 0
1, 153360, Note_on_c, 1, 70, 72
1, 153480, Note_on_c, 0, 74, 71
1, 153600, Note_on_c, 0, 74, 0
1, 153600, Note_on_c, 0, 79, 78
1, 153600, Note_on_c, 1, 70, 0
1, 153720, Note_on_c, 0, 79, 0
1, 153720, Note_on_c, 0, 82, 75
1, 153840, Note_on_c, 0, 82, 0
1, 153840, Note_on_c, 0, 86, 79
1, 153960, Note_on_c, 1, 70, 78
1, 154080, Note_on_c, 0, 86, 0
1, 154080, Note_on_c, 1, 70, 0
1, 154080, Note_on_c, 1, 69, 78
1, 154200, Note_on_c, 0, 72, 71
1, 154320, Note_on_c, 0, 72, 0
1, 154320, Note_on_c, 0, 77, 74
1, 154320, Note_on_c, 1, 69, 0
1, 154440, Note_on_c, 0, 77, 0
1, 154440, Note_on_c, 0, 81, 76
1, 154560, Note_on_c, 0, 81, 0
1, 154560, Note_on_c, 0, 84, 70
1, 154680, Note_on_c, 1, 69, 78
1, 154800, Note_on_c, 0, 84, 0
1, 154800, Note_on_c, 1, 69, 0
1, 154800, Note_on_c, 1, 67, 70
1, 154920, Note_on_c, 0, 71, 77
1, 155040, Note_on_c, 0, 71, 0
1, 155040, Note_on_c, 0, 76, 74
1, 155040, Note_on_c, 1, 67, 0
1, 155160, Note_on_c, 0, 76, 0
1, 155160, Note_on_c, 0, 79, 71
1, 155280, Note_on_c, 0, 79, 0
1, 155280, Note_on_c, 0, 83, 79
1, 155400, Note_on_c, 1, 67, 71
1, 155520, Note_on_c, 0, 83, 0
1, 155520, Note_on_c, 1, 67, 0
1, 155520, Note_on_c, 1, 65, 74
1, 155640, Note_on_c, 0, 69, 74
1, 155760, Note_on_c, 0, 69, 0
1, 155760, Note_on_c, 0, 72, 73
1, 155760, Note_on_c, 1, 65, 0
1, 155880, Note_on_c, 0, 72, 0
1, 155880, Note_on_c, 0, 77, 73
1, 156000, Note_on_c, 0, 77, 0
1, 156000, Note_on_c, 0, 81, 71
1, 156120, Note_on_c, 1, 65, 71
1, 156240, Note_on_c, 0, 81, 0
1, 156240, Note_on_c, 1, 65, 0
1, 156240, Note_on_c, 1, 70, 77
1, 156360, Note_on_c, 0, 74, 76
1, 156480, Note_on_c, 0, 74, 0
1, 156480, Note_on_c, 0, 79, 77
1, 156600, Note_on_c, 0, 79, 0
1, 156600, Note_on_c, 0, 78, 78
1, 156720, Note_on_c, 0, 78, 0
1, 156720, Note_on_c, 0, 81, 78
1, 156720, Note_on_c, 1, 70, 0
1, 156840, Note_on_c, 0, 81, 0
1, 156840, Note_on_c, 0, 79, 79
1, 156960, Note_on_c, 0, 79, 0
1, 156960, Note_on_c, 0, 82, 73
1, 157080, Note_on_c, 0, 82, 0
1, 157080, Note_on_c, 0, 81, 78
1, 157200, Note_on_c, 0, 81, 0
1, 157200, Note_on_c, 0, 84, 73
1, 157320, Note_on_c, 0, 84, 0
1, 157320, Note_on_c, 0, 82, 75
1, 157440, Note_on_c, 0, 82, 0
1, 157440, Note_on_c, 0, 86, 75
1, 157560, Note_on_c, 0, 86, 0
1, 157560, Note_on_c, 0, 85, 70
1, 157680, Note_on_c, 0, 85, 0
1, 157680, Note_on_c, 0, 86, 75
1, 157920, Note_on_c, 0, 86, 0
1, 158160, Note_on_c, 0, 77, 53
1, 158160, Note_on_c, 0, 69, 52
1, 158160, Note_on_c, 1, 59, 52
1, 158400, Note_on_c, 0, 77, 0
1, 158400, Note_on_c, 0, 69, 0
1, 158400, Note_on_c, 0, 76, 52
1, 158400, Note_on_c, 0, 67, 48
1, 158400, Note_on_c, 1, 59, 0
1, 158400, Note_on_c, 1, 60, 51
1, 158640, Note_on_c, 0, 76, 0
1, 158640, Note_on_c, 0, 67, 0
1, 158640, Note_on_c, 1, 60, 0
1, 158880, Note_on_c, 1, 47, 75
1, 159120, Note_on_c, 1, 47, 0
1, 159120, Note_on_c, 1, 48, 75
1, 159360, Note_on_c, 1, 48, 0
1, 159600, Note_on_c, 0, 89, 49
1, 159600, Note_on_c, 0, 81, 47
1, 159600, Note_on_c, 1, 71, 51
1, 159840, Note_on_c, 0, 89, 0
1, 159840, Note_on_c, 0, 81, 0
1, 159840, Note_on_c, 0, 88, 50
1, 159840, Note_on_c, 0, 79, 53
1, 159840, Note_on_c, 1, 71, 0
1, 159840, Note_on_c, 1, 72, 45
1, 160080, Note_on_c, 0, 88, 0
1, 160080, Note_on_c, 0, 79, 0
1, 160080, Note_on_c, 1, 72, 0
1, 160320, Note_on_c, 1, 59, 79
1, 160560, Note_on_c, 1, 59, 0
1, 160560, Note_on_c, 1, 60, 77
1, 160800, Note_on_c, 1, 60, 0
1, 161040, Note_on_c, 0, 77, 47
1, 161040, Note_on_c, 0, 69, 52
1, 161040, Note_on_c, 1, 47, 54
1, 161280, Note_on_c, 0, 77, 0
1, 161280, Note_on_c, 0, 69, 0
1, 161280, Note_on_c, 0, 76, 45
1, 161280, Note_on_c, 0, 67, 46
1, 161280, Note_on_c, 1, 47, 0
1, 161280, Note_on_c, 1, 48, 48
1, 161520, Note_on_c, 0, 76, 0
1, 161520, Note_on_c, 0, 67, 0
1, 161520, Note_on_c, 1, 48, 0
1, 161760, Note_on_c, 1, 35, 71
1, 162000, Note_on_c, 1, 35, 0
1, 162000, Note_on_c, 1, 36, 71
1, 162240, Note_on_c, 1, 36, 0
1, 162720, Note_on_c, 0, 82, 52
1, 163080, Note_on_c, 0, 82, 0
1, 163080, Note_on_c, 0, 82, 54
1, 163200, Note_on_c, 0, 82, 0
1, 163200, Note_on_c, 0, 82, 49
1, 163320, Note_on_c, 0, 82, 0
1, 163320, Note_on_c, 0, 82, 46
1, 163380, Note_on_c, 0, 82, 0
1, 163380, Note_on_c, 0, 84, 48
1, 163440, Note_on_c, 0, 84, 0
1, 163440, Note_on_c, 0, 86, 49
1, 163800, Note_on_c, 0, 86, 0
1, 163800, Note_on_c, 0, 84, 48
1, 163920, Note_on_c, 0, 84, 0
1, 163920, Note_on_c, 0, 82, 52
1, 164160, Note_on_c, 0, 82, 0
1, 164160, Note_on_c, 0, 82, 45
1, 164520, Note_on_c, 0, 82, 0
1, 164520, Note_on_c, 0, 82, 50
1, 164640, Note_on_c, 0, 82, 0
1, 164640, Note_on_c, 0, 82, 47
1, 164760, Note_on_c, 0, 82, 0
1, 164760, Note_on_c, 0, 82, 50
1, 164820, Note_on_c, 0, 82, 0
1, 164820, Note_on_c, 0, 84, 48
1, 164880, Note_on_c, 0, 84, 0
1, 164880, Note_on_c, 0, 86, 52
1, 165240, Note_on_c, 0, 86, 0
1, 165240, Note_on_c, 0, 84, 47
1, 165360, Note_on_c, 0, 84, 0
1, 165360, Note_on_c, 0, 82, 48
1, 165600, Note_on_c, 0, 82, 0
1, 165600, Note_on_c, 0, 81, 51
1, 165600, Note_on_c, 1, 65, 50
1, 165720, Note_on_c, 1, 65, 0
1, 165720, Note_on_c, 1, 72, 46
1, 165840, Note_on_c, 0, 81, 0
1, 165840, Note_on_c, 1, 72, 0
1, 165840, Note_on_c, 1, 69, 46
1, 165960, Note_on_c, 1, 69, 0
1, 165960, Note_on_c, 1, 72, 54
1, 166080, Note_on_c, 0, 81, 48
1, 166080, Note_on_c, 1, 72, 0
1, 166080, Note_on_c, 1, 65, 47
1, 166200, Note_on_c, 1, 65, 0
1, 166200, Note_on_c, 1, 72, 49
1, 166320, Note_on_c, 0, 81, 0
1, 166320, Note_on_c, 0, 84, 86
1, 166320, Note_on_c, 1, 72, 0
1, 166320, Note_on_c, 1, 64, 85
1, 166440, Note_on_c, 1, 64, 0
1, 166440, Note_on_c, 1, 72, 47
1, 166560, Note_on_c, 1, 72, 0
1, 166560, Note_on_c, 1, 67, 47
1, 166680, Note_on_c, 1, 67, 0
1, 166680, Note_on_c, 1, 72, 49
1, 166800, Note_on_c, 0, 84, 0
1, 166800, Note_on_c, 0, 82, 47
1, 166800, Note_on_c, 1, 72, 0
1, 166800, Note_on_c, 1, 64, 51
1, 166920, Note_on_c, 1, 64, 0
1, 166920, Note_on_c, 1, 72, 46
1, 167040, Note_on_c, 0, 82, 0
1, 167040, Note_on_c, 0, 81, 53
1, 167040, Note_on_c, 1, 72, 0
1, 167040, Note_on_c, 1, 65, 49
1, 167160, Note_on_c, 1, 65, 0
1, 167160, Note_on_c, 1, 72, 50
1, 167280, Note_on_c, 0, 81, 0
1, 167280, Note_on_c, 1, 72, 0
1, 167280, Note_on_c, 1, 69, 51
1, 167400, Note_on_c, 1, 69, 0
1, 167400, Note_on_c, 1, 72, 47
1, 167520, Note_on_c, 0, 81, 53
1, 167520, Note_on_c, 1, 72, 0
1, 167520, Note_on_c, 1, 65, 52
1, 167640, Note_on_c, 1, 65, 0
1, 167640, Note_on_c, 1, 72, 50
1, 167760, Note_on_c, 0, 81, 0
1, 167760, Note_on_c, 0, 84, 83
1, 167760, Note_on_c, 1, 72, 0
1, 167760, Note_on_c, 1, 64, 80
1, 167880, Note_on_c, 1, 64, 0
1, 167880, Note_on_c, 1, 72, 51
1, 168000, Note_on_c, 1, 72, 0
1, 168000, Note_on_c, 1, 67, 45
1, 168120, Note_on_c, 1, 67, 0
1, 168120, Note_on_c, 1, 72, 47
1, 168240, Note_on_c, 0, 84, 0
1, 168240, Note_on_c, 0, 82, 45
1, 168240, Note_on_c, 1, 72, 0
1, 168240, Note_on_c, 1, 64, 53
1, 168360, Note_on_c, 1, 64, 0
1, 168360, Note_on_c, 1, 72, 52
1, 168480, Note_on_c, 0, 82, 0
1, 168480, Note_on_c, 0, 81, 49
1, 168480, Note_on_c, 1, 72, 0
1, 168480, Note_on_c, 1, 65, 46
1, 168600, Note_on_c, 1, 65, 0
1, 168600, Note_on_c, 1, 69, 50
1, 168720, Note_on_c, 0, 81, 0
1, 168720, Note_on_c, 1, 69, 0
1, 168720, Note_on_c, 1, 72, 46
1, 168840, Note_on_c, 1, 72, 0
1, 168840, Note_on_c, 1, 77, 48
1, 168960, Note_on_c, 0, 81, 46
1, 168960, Note_on_c, 1, 77, 0
1, 168960, Note_on_c, 1, 76, 49
1, 169080, Note_on_c, 1, 76, 0
1, 169080, Note_on_c, 1, 77, 52
1, 169200, Note_on_c, 0, 81, 0
1, 169200, Note_on_c, 0, 84, 76
1, 169200, Note_on_c, 1, 77, 0
1, 169200, Note_on_c, 1, 77, 79
1, 169200, Note_on_c, 1, 74, 70
1, 169440, Note_on_c, 0, 84, 0
1, 169440, Note_on_c, 0, 82, 78
1, 169680, Note_on_c, 0, 82, 0
1, 169680, Note_on_c, 0, 81, 45
1, 169680, Note_on_c, 1, 77, 0
1, 169680, Note_on_c, 1, 74, 0
1, 169680, Note_on_c, 1, 76, 54
1, 169680, Note_on_c, 1, 72, 47
1, 169920, Note_on_c, 0, 81, 0
1, 169920, Note_on_c, 0, 81, 79
1, 169920, Note_on_c, 1, 76, 0
1, 169920, Note_on_c, 1, 72, 0
1, 169920, Note_on_c, 1, 70, 77
1, 169920, Note_on_c, 1, 74, 75
1, 170160, Note_on_c, 0, 81, 0
1, 170160, Note_on_c, 0, 79, 74
1, 170400, Note_on_c, 0, 79, 0
1, 170400, Note_on_c, 0, 77, 46
1, 170400, Note_on_c, 1, 70, 0
1, 170400, Note_on_c, 1, 74, 0
1, 170400, Note_on_c, 1, 71, 47
1, 170640, Note_on_c, 0, 77, 0
1, 170640, Note_on_c, 0, 79, 47
1, 170640, Note_on_c, 1, 71, 0
1, 170640, Note_on_c, 1, 72, 48
1, 170700, Note_on_c, 0, 79, 0
1, 170700, Note_on_c, 0, 77, 50
1, 170760, Note_on_c, 0, 77, 0
1, 170760, Note_on_c, 0, 79, 53
1, 170820, Note_on_c, 0, 79, 0
1, 170820, Note_on_c, 0, 77, 48
1, 170880, Note_on_c, 0, 77, 0
1, 170880, Note_on_c, 0, 79, 45
1, 170880, Note_on_c, 1, 72, 0
1, 170940, Note_on_c, 0, 79, 0
1, 170940, Note_on_c, 0, 77, 49
1, 171000, Note_on_c, 0, 77, 0
1, 171000, Note_on_c, 0, 79, 46
1, 171120, Note_on_c, 0, 79, 0
1, 171120, Note_on_c, 0, 76, 52
1, 171360, Note_on_c, 0, 76, 0
1, 171360, Note_on_c, 0, 70, 49
1, 171360, Note_on_c, 1, 55, 49
1, 171720, Note_on_c, 0, 70, 0
1, 171720, Note_on_c, 0, 70, 50
1, 171720, Note_on_c, 1, 55, 0
1, 171720, Note_on_c, 1, 55, 47
1, 171840, Note_on_c, 0, 70, 0
1, 171840, Note_on_c, 0, 70, 50
1, 171840, Note_on_c, 1, 55, 0
1, 171840, Note_on_c, 1, 55, 54
1, 171960, Note_on_c, 0, 70, 0
1, 171960, Note_on_c, 0, 70, 50
1, 171960, Note_on_c, 1, 55, 0
1, 171960, Note_on_c, 1, 55, 45
1, 172020, Note_on_c, 0, 70, 0
1, 172020, Note_on_c, 0, 72, 49
1, 172020, Note_on_c, 1, 55, 0
1, 172020, Note_on_c, 1, 57, 53
1, 172080, Note_on_c, 0, 72, 0
1, 172080, Note_on_c, 0, 74, 49
1, 172080, Note_on_c, 1, 57, 0
1, 172080, Note_on_c, 1, 58, 52
1, 172440, Note_on_c, 0, 74, 0
1, 172440, Note_on_c, 0, 72, 46
1, 172440, Note_on_c, 1, 58, 0
1, 172440, Note_on_c, 1, 57, 50
1, 172560, Note_on_c, 0, 72, 0
1, 172560, Note_on_c, 0, 70, 52
1, 172560, Note_on_c, 1, 57, 0
1, 172560, Note_on_c, 1, 55, 54
1, 172800, Note_on_c, 0, 70, 0
1, 172800, Note_on_c, 0, 70, 52
1, 172800, Note_on_c, 1, 55, 0
1, 172800, Note_on_c, 1, 55, 47
1, 173160, Note_on_c, 0, 70, 0
1, 173160, Note_on_c, 0, 70, 54
1, 173160, Note_on_c, 1, 55, 0
1, 173160, Note_on_c, 1, 55, 51
1, 173280, Note_on_c, 0, 70, 0
1, 173280, Note_on_c, 0, 70, 48
1, 173280, Note_on_c, 1, 55, 0
1, 173280, Note_on_c, 1, 55, 53
1, 173400, Note_on_c, 0, 70, 0
1, 173400, Note_on_c, 0, 70, 53
1, 173400, Note_on_c, 1, 55, 0
1, 173400, Note_on_c, 1, 55, 53
1, 173460, Note_on_c, 0, 70, 0
1, 173460, Note_on_c, 0, 72, 54
1, 173460, Note_on_c, 1, 55, 0
1, 173460, Note_on_c, 1, 57, 49
1, 173520, Note_on_c, 0, 72, 0
1, 173520, Note_on_c, 0, 74, 50
1, 173520, Note_on_c, 1, 57, 0
1, 173520, Note_on_c, 1, 58, 45
1, 173880, Note_on_c, 0, 74, 0
1, 173880, Note_on_c, 0, 72, 45
1, 173880, Note_on_c, 1, 58, 0
1, 173880, Note_on_c, 1, 57, 46
1, 174000, Note_on_c, 0, 72, 0
1, 174000, Note_on_c, 0, 70, 49
1, 174000, Note_on_c, 1, 57, 0
1, 174000, Note_on_c, 1, 55, 46
1, 174240, Note_on_c, 0, 70, 0
1, 174240, Note_on_c, 0, 69, 51
1, 174240, Note_on_c, 1, 55, 0
1, 174240, Note_on_c, 1, 53, 51
1, 174360, Note_on_c, 0, 69, 0
1, 174360, Note_on_c, 0, 65, 46
1, 174480, Note_on_c, 0, 65, 0
1, 174480, Note_on_c, 0, 60, 46
1, 174480, Note_on_c, 1, 53, 0
1, 174600, Note_on_c, 0, 60, 0
1, 174600, Note_on_c, 0, 65, 54
1, 174720, Note_on_c, 0, 65, 0
1, 174720, Note_on_c, 0, 69, 54
1, 174840, Note_on_c, 0, 69, 0
1, 174840, Note_on_c, 0, 65, 47
1, 174960, Note_on_c, 0, 65, 0
1, 174960, Note_on_c, 0, 72, 80
1, 174960, Note_on_c, 1, 52, 81
1, 174960, Note_on_c, 1, 40, 81
1, 175080, Note_on_c, 0, 72, 0
1, 175080, Note_on_c, 0, 60, 49
1, 175200, Note_on_c, 0, 60, 0
1, 175200, Note_on_c, 0, 71, 52
1, 175320, Note_on_c, 0, 71, 0
1, 175320, Note_on_c, 0, 60, 49
1, 175440, Note_on_c, 0, 60, 0
1, 175440, Note_on_c, 0, 70, 47
1, 175560, Note_on_c, 0, 70, 0
1, 175560, Note_on_c, 0, 60, 52
1, 175680, Note_on_c, 0, 60, 0
1, 175680, Note_on_c, 0, 69, 46
1, 175680, Note_on_c, 1, 52, 0
1, 175680, Note_on_c, 1, 40, 0
1, 175680, Note_on_c, 1, 41, 45
1, 175680, Note_on_c, 1, 53, 48
1, 175800, Note_on_c, 0, 69, 0
1, 175800, Note_on_c, 0, 65, 50
1, 175920, Note_on_c, 0, 65, 0
1, 175920, Note_on_c, 0, 60, 52
1, 175920, Note_on_c, 1, 41, 0
1, 175920, Note_on_c, 1, 53, 0
1, 176040, Note_on_c, 0, 60, 0
1, 176040, Note_on_c, 0, 65, 47
1, 176160, Note_on_c, 0, 65, 0
1, 176160, Note_on_c, 0, 69, 49
1, 176280, Note_on_c, 0, 69, 0
1, 176280, Note_on_c, 0, 60, 53
1, 176400, Note_on_c, 0, 60, 0
1, 176400, Note_on_c, 0, 72, 82
1, 176400, Note_on_c, 1, 52, 81
1, 176400, Note_on_c, 1, 40, 88
1, 176520, Note_on_c, 0, 72, 0
1, 176520, Note_on_c, 0, 60, 45
1, 176640, Note_on_c, 0, 60, 0
1, 176640, Note_on_c, 0, 71, 45
1, 176760, Note_on_c, 0, 71, 0
1, 176760, Note_on_c, 0, 60, 48
1, 176880, Note_on_c, 0, 60, 0
1, 176880, Note_on_c, 0, 70, 52
1, 177000, Note_on_c, 0, 70, 0
1, 177000, Note_on_c, 0, 60, 52
1, 177120, Note_on_c, 0, 60, 0
1, 177120, Note_on_c, 0, 69, 49
1, 177120, Note_on_c, 1, 52, 0
1, 177120, Note_on_c, 1, 40, 0
1, 177120, Note_on_c, 1, 41, 45
1, 177120, Note_on_c, 1, 53, 54
1, 177240, Note_on_c, 0, 69, 0
1, 177240, Note_on_c, 0, 72, 48
1, 177360, Note_on_c, 0, 72, 0
1, 177360, Note_on_c, 0, 77, 45
1, 177360, Note_on_c, 1, 41, 0
1, 177360, Note_on_c, 1, 53, 0
1, 177480, Note_on_c, 0, 77, 0
1, 177480, Note_on_c, 0, 76, 51
1, 177600, Note_on_c, 0, 76, 0
1, 177600, Note_on_c, 0, 74, 53
1, 177720, Note_on_c, 0, 74, 0
1, 177720, Note_on_c, 0, 72, 52
1, 177840, Note_on_c, 0, 72, 0
1, 177840, Note_on_c, 0, 70, 71
1, 177840, Note_on_c, 1, 62, 74
1, 177840, Note_on_c, 1, 65, 75
1, 177960, Note_on_c, 0, 70, 0
1, 177960, Note_on_c, 0, 72, 77
1, 178080, Note_on_c, 0, 72, 0
1, 178080, Note_on_c, 0, 74, 74
1, 178200, Note_on_c, 0, 74, 0
1, 178200, Note_on_c, 0, 70, 75
1, 178320, Note_on_c, 0, 70, 0
1, 178320, Note_on_c, 0, 68, 54
1, 178320, Note_on_c, 1, 62, 0
1, 178320, Note_on_c, 1, 65, 0
1, 178320, Note_on_c, 1, 64, 45
1, 178320, Note_on_c, 1, 60, 53
1, 178440, Note_on_c, 0, 68, 0
1, 178440, Note_on_c, 0, 69, 52
1, 178560, Note_on_c, 0, 69, 0
1, 178560, Note_on_c, 0, 67, 71
1, 178560, Note_on_c, 1, 64, 0
1, 178560, Note_on_c, 1, 60, 0
1, 178560, Note_on_c, 1, 58, 71
1, 178560, Note_on_c, 1, 62, 71
1, 178680, Note_on_c, 0, 67, 0
1, 178680, Note_on_c, 0, 69, 75
1, 178800, Note_on_c, 0, 69, 0
1, 178800, Note_on_c, 0, 70, 78
1, 178920, Note_on_c, 0, 70, 0
1, 178920, Note_on_c, 0, 67, 77
1, 179040, Note_on_c, 0, 67, 0
1, 179040, Note_on_c, 0, 64, 47
1, 179040, Note_on_c, 1, 58, 0
1, 179040, Note_on_c, 1, 62, 0
1, 179040, Note_on_c, 1, 60, 45
1, 179040, Note_on_c, 1, 57, 49
1, 179160, Note_on_c, 0, 64, 0
1, 179160, Note_on_c, 0, 65, 49
1, 179280, Note_on_c, 0, 65, 0
1, 179280, Note_on_c, 0, 67, 77
1, 179280, Note_on_c, 1, 60, 0
1, 179280, Note_on_c, 1, 57, 0
1, 179280, Note_on_c, 1, 58, 76
1, 179400, Note_on_c, 0, 67, 0
1, 179400, Note_on_c, 0, 70, 72
1, 179520, Note_on_c, 0, 70, 0
1, 179520, Note_on_c, 0, 69, 71
1, 179520, Note_on_c, 1, 58, 0
1, 179520, Note_on_c, 1, 60, 76
1, 179640, Note_on_c, 0, 69, 0
1, 179640, Note_on_c, 0, 65, 78
1, 179760, Note_on_c, 0, 65, 0
1, 179760, Note_on_c, 0, 64, 78
1, 179760, Note_on_c, 1, 60, 0
1, 179760, Note_on_c, 1, 48, 78
1, 179880, Note_on_c, 0, 64, 0
1, 179880, Note_on_c, 0, 67, 75
1, 180000, Note_on_c, 0, 67, 0
1, 180000, Note_on_c, 0, 65, 73
1, 180000, Note_on_c, 1, 48, 0
1, 180000, Note_on_c, 1, 53, 75
1, 180120, Note_on_c, 0, 65, 0
1, 180120, Note_on_c, 0, 67, 71
1, 180240, Note_on_c, 0, 67, 0
1, 180240, Note_on_c, 0, 69, 72
1, 180240, Note_on_c, 1, 53, 0
1, 180360, Note_on_c, 0, 69, 0
1, 180360, Note_on_c, 0, 65, 74
1, 180480, Note_on_c, 0, 65, 0
1, 180480, Note_on_c, 0, 62, 71
1, 180600, Note_on_c, 0, 62, 0
1, 180600, Note_on_c, 0, 60, 71
1, 180720, Note_on_c, 0, 60, 0
1, 180720, Note_on_c, 0, 58, 75
1, 180720, Note_on_c, 1, 53, 73
1, 180720, Note_on_c, 1, 50, 78
1, 180840, Note_on_c, 0, 58, 0
1, 180840, Note_on_c, 0, 60, 72
1, 180960, Note_on_c, 0, 60, 0
1, 180960, Note_on_c, 0, 62, 77
1, 181080, Note_on_c, 0, 62, 0
1, 181080, Note_on_c, 0, 58, 78
1, 181200, Note_on_c, 0, 58, 0
1, 181200, Note_on_c, 0, 56, 53
1, 181200, Note_on_c, 1, 53, 0
1, 181200, Note_on_c, 1, 50, 0
1, 181200, Note_on_c, 1, 52, 53
1, 181200, Note_on_c, 1, 48, 48
1, 181320, Note_on_c, 0, 56, 0
1, 181320, Note_on_c, 0, 57, 53
1, 181440, Note_on_c, 0, 57, 0
1, 181440, Note_on_c, 0, 55, 74
1, 181440, Note_on_c, 1, 52, 0
1, 181440, Note_on_c, 1, 48, 0
1, 181440, Note_on_c, 1, 46, 78
1, 181440, Note_on_c, 1, 50, 77
1, 181560, Note_on_c, 0, 55, 0
1, 181560, Note_on_c, 0, 57, 74
1, 181680, Note_on_c, 0, 57, 0
1, 181680, Note_on_c, 0, 58, 78
1, 181800, Note_on_c, 0, 58, 0
1, 181800, Note_on_c, 0, 55, 73
1, 181920, Note_on_c, 0, 55, 0
1, 181920, Note_on_c, 0, 52, 45
1, 181920, Note_on_c, 1, 46, 0
1, 181920, Note_on_c, 1, 50, 0
1, 181920, Note_on_c, 1, 48, 50
1, 181920, Note_on_c, 1, 45, 46
1, 182040, Note_on_c, 0, 52, 0
1, 182040, Note_on_c, 0, 53, 52
1, 182160, Note_on_c, 0, 53, 0
1, 182160, Note_on_c, 0, 55, 75
1, 182160, Note_on_c, 1, 48, 0
1, 182160, Note_on_c, 1, 45, 0
1, 182160, Note_on_c, 1, 46, 79
1, 182280, Note_on_c, 0, 55, 0
1, 182280, Note_on_c, 0, 58, 70
1, 182400, Note_on_c, 0, 58, 0
1, 182400, Note_on_c, 0, 57, 75
1, 182400, Note_on_c, 1, 46, 0
1, 182400, Note_on_c, 1, 48, 79
1, 182520, Note_on_c, 0, 57, 0
1, 182520, Note_on_c, 0, 53, 75
1, 182640, Note_on_c, 0, 53, 0
1, 182640, Note_on_c, 0, 52, 79
1, 182640, Note_on_c, 1, 48, 0
1, 182640, Note_on_c, 1, 36, 72
1, 182760, Note_on_c, 0, 52, 0
1, 182760, Note_on_c, 0, 55, 74
1, 182880, Note_on_c, 0, 55, 0
1, 182880, Note_on_c, 0, 53, 75
1, 182880, Note_on_c, 1, 36, 0
1, 182880, Note_on_c, 1, 41, 78
1, 183120, Note_on_c, 0, 53, 0
1, 183120, Note_on_c, 0, 72, 49
1, 183120, Note_on_c, 1, 41, 0
1, 183360, Note_on_c, 0, 72, 0
1, 183360, Note_on_c, 0, 69, 45
1, 183600, Note_on_c, 0, 69, 0
1, 183600, Note_on_c, 0, 65, 50
1, 183840, Note_on_c, 0, 65, 0
1, 183840, Note_on_c, 1, 57, 54
1, 183840, Note_on_c, 1, 63, 46
1, 184080, Note_on_c, 1, 57, 0
1, 184080, Note_on_c, 1, 63, 0
1, 184080, Note_on_c, 1, 57, 47
1, 184080, Note_on_c, 1, 63, 50
1, 184320, Note_on_c, 1, 57, 0
1, 184320, Note_on_c, 1, 63, 0
1, 184320, Note_on_c, 1, 58, 53
1, 184320, Note_on_c, 1, 62, 54
1, 184560, Note_on_c, 0, 77, 50
1, 184560, Note_on_c, 1, 58, 0
1, 184560, Note_on_c, 1, 62, 0
1, 184800, Note_on_c, 0, 77, 0
1, 184800, Note_on_c, 0, 74, 53
1, 185040, Note_on_c, 0, 74, 0
1, 185040, Note_on_c, 0, 70, 51
1, 185280, Note_on_c, 0, 70, 0
1, 185280, Note_on_c, 1, 65, 46
1, 185280, Note_on_c, 1, 62, 46
1, 185520, Note_on_c, 1, 65, 0
1, 185520, Note_on_c, 1, 62, 0
1, 185520, Note_on_c, 1, 62, 47
1, 185520, Note_on_c, 1, 65, 48
1, 185760, Note_on_c, 1, 62, 0
1, 185760, Note_on_c, 1, 65, 0
1, 185760, Note_on_c, 1, 60, 47
1, 185760, Note_on_c, 1, 64, 50
1, 186000, Note_on_c, 0, 82, 50
1, 186000, Note_on_c, 1, 60, 0
1, 186000, Note_on_c, 1, 64, 0
1, 186240, Note_on_c, 0, 82, 0
1, 186240, Note_on_c, 0, 79, 54
1, 186480, Note_on_c, 0, 79, 0
1, 186480, Note_on_c, 0, 76, 51
1, 186720, Note_on_c, 0, 76, 0
1, 186720, Note_on_c, 1, 60, 49
1, 186720, Note_on_c, 1, 70, 46
1, 186960, Note_on_c, 1, 60, 0
1, 186960, Note_on_c, 1, 70, 0
1, 186960, Note_on_c, 1, 70, 45
1, 186960, Note_on_c, 1, 60, 46
1, 187200, Note_on_c, 1, 70, 0
1, 187200, Note_on_c, 1, 60, 0
1, 187200, Note_on_c, 1, 69, 75
1, 187200, Note_on_c, 1, 65, 74
1, 187320, Note_on_c, 0, 77, 79
1, 187440, Note_on_c, 0, 77, 0
1, 187440, Note_on_c, 0, 76, 72
1, 187440, Note_on_c, 1, 69, 0
1, 187440, Note_on_c, 1, 65, 0
1, 187560, Note_on_c, 0, 76, 0
1, 187560, Note_on_c, 0, 77, 78
1, 187680, Note_on_c, 0, 77, 0
1, 187680, Note_on_c, 0, 81, 75
1, 187800, Note_on_c, 0, 81, 0
1, 187800, Note_on_c, 0, 84, 78
1, 187920, Note_on_c, 0, 84, 0
1, 187920, Note_on_c, 1, 70, 77
1, 187920, Note_on_c, 1, 67, 77
1, 187920, Note_on_c, 1, 60, 74
1, 188040, Note_on_c, 0, 82, 75
1, 188160, Note_on_c, 0, 82, 0
1, 188160, Note_on_c, 0, 81, 70
1, 188160, Note_on_c, 1, 70, 0
1, 188160, Note_on_c, 1, 60, 0
1, 188160, Note_on_c, 1, 67, 0
1, 188280, Note_on_c, 0, 81, 0
1, 188280, Note_on_c, 0, 82, 72
1, 188400, Note_on_c, 0, 82, 0
1, 188400, Note_on_c, 0, 79, 73
1, 188520, Note_on_c, 0, 79, 0
1, 188520, Note_on_c, 0, 76, 70
1, 188640, Note_on_c, 0, 76, 0
1, 188640, Note_on_c, 1, 65, 79
1, 188640, Note_on_c, 1, 69, 73
1, 188760, Note_on_c, 0, 77, 76
1, 188880, Note_on_c, 0, 77, 0
1, 188880, Note_on_c, 0, 76, 77
1, 188880, Note_on_c, 1, 65, 0
1, 188880, Note_on_c, 1, 69, 0
1, 189000, Note_on_c, 0, 76, 0
1, 189000, Note_on_c, 0, 77, 73
1, 189120, Note_on_c, 0, 77, 0
1, 189120, Note_on_c, 0, 72, 74
1, 189240, Note_on_c, 0, 72, 0
1, 189240, Note_on_c, 0, 69, 79
1, 189360, Note_on_c, 0, 69, 0
1, 189360, Note_on_c, 1, 52, 72
1, 189360, Note_on_c, 1, 55, 73
1, 189360, Note_on_c, 1, 48, 70
1, 189480, Note_on_c, 0, 70, 76
1, 189600, Note_on_c, 0, 70, 0
1, 189600, Note_on_c, 0, 69, 72
1, 189600, Note_on_c, 1, 52, 0
1, 189600, Note_on_c, 1, 48, 0
1, 189600, Note_on_c, 1, 55, 0
1, 189720, Note_on_c, 0, 69, 0
1, 189720, Note_on_c, 0, 70, 71
1, 189840, Note_on_c, 0, 70, 0
1, 189840, Note_on_c, 0, 67, 77
1, 189960, Note_on_c, 0, 67, 0
1, 189960, Note_on_c, 0, 64, 76
1, 190080, Note_on_c, 0, 64, 0
1, 190080, Note_on_c, 0, 65, 70
1, 190080, Note_on_c, 1, 41, 72
1, 190200, Note_on_c, 1, 41, 0
1, 190200, Note_on_c, 1, 53, 72
1, 190320, Note_on_c, 1, 53, 0
1, 190320, Note_on_c, 1, 52, 73
1, 190440, Note_on_c, 1, 52, 0
1, 190440, Note_on_c, 1, 53, 75
1, 190560, Note_on_c, 0, 65, 0
1, 190560, Note_on_c, 1, 53, 0
1, 190560, Note_on_c, 1, 55, 77
1, 190680, Note_on_c, 1, 55, 0
1, 190680, Note_on_c, 1, 53, 70
1, 190800, Note_on_c, 0, 72, 78
1, 190800, Note_on_c, 0, 69, 70
1, 190800, Note_on_c, 0, 65, 72
1, 190800, Note_on_c, 1, 53, 0
1, 190800, Note_on_c, 1, 57, 76
1, 190920, Note_on_c, 1, 57, 0
1, 190920, Note_on_c, 1, 53, 76
1, 191040, Note_on_c, 1, 53, 0
1, 191040, Note_on_c, 1, 48, 78
1, 191160, Note_on_c, 1, 48, 0
1, 191160, Note_on_c, 1, 53, 79
1, 191280, Note_on_c, 0, 72, 0
1, 191280, Note_on_c, 0, 65, 0
1, 191280, Note_on_c, 0, 69, 0
1, 191280, Note_on_c, 1, 53, 0
1, 191280, Note_on_c, 1, 45, 74
1, 191400, Note_on_c, 1, 45, 0
1, 191400, Note_on_c, 1, 48, 71
1, 191520, Note_on_c, 0, 72, 71
1, 191520, Note_on_c, 0, 69, 78
1, 191520, Note_on_c, 0, 77, 71
1, 191520, Note_on_c, 1, 48, 0
1, 191520, Note_on_c, 1, 41, 76
1, 191760, Note_on_c, 0, 72, 0
1, 191760, Note_on_c, 0, 77, 0
1, 191760, Note_on_c, 0, 69, 0
1, 191760, Note_on_c, 0, 72, 77
1, 191760, Note_on_c, 0, 69, 77
1, 191760, Note_on_c, 0, 77, 75
1, 191760, Note_on_c, 1, 41, 0
1, 191760, Note_on_c, 1, 45, 78
1, 192000, Note_on_c, 0, 72, 0
1, 192000, Note_on_c, 0, 77, 0
1, 192000, Note_on_c, 0, 69, 0
1, 192000, Note_on_c, 0, 72, 75
1, 192000, Note_on_c, 0, 77, 70
1, 192000, Note_on_c, 0, 69, 74
1, 192000, Note_on_c, 1, 45, 0
1, 192000, Note_on_c, 1, 48, 70
1, 192240, Note_on_c, 0, 72, 0
1, 192240, Note_on_c, 0, 69, 0
1, 192240, Note_on_c, 0, 77, 0
1, 192240, Note_on_c, 0, 72, 76
1, 192240, Note_on_c, 0, 77, 79
1, 192240, Note_on_c, 0, 69, 79
1, 192240, Note_on_c, 1, 48, 0
1, 192240, Note_on_c, 1, 41, 74
1, 192480, Note_on_c, 0, 72, 0
1, 192480, Note_on_c, 0, 69, 0
1, 192480, Note_on_c, 0, 77, 0
1, 192480, Note_on_c, 1, 41, 0
1, 192960, Note_on_c, 0, 72, 51
1, 193320, Note_on_c, 0, 72, 0
1, 193320, Note_on_c, 0, 72, 54
1, 193440, Note_on_c, 0, 72, 0
1, 193440, Note_on_c, 0, 72, 49
1, 193560, Note_on_c, 0, 72, 0
1, 193560, Note_on_c, 0, 72, 51
1, 193620, Note_on_c, 0, 72, 0
1, 193620, Note_on_c, 0, 74, 46
1, 193680, Note_on_c, 0, 74, 0
1, 193680, Note_on_c, 0, 75, 49
1, 194040, Note_on_c, 0, 75, 0
1, 194040, Note_on_c, 0, 74, 49
1, 194160, Note_on_c, 0, 74, 0
1, 194160, Note_on_c, 0, 72, 48
1, 194400, Note_on_c, 0, 72, 0
1, 194400, Note_on_c, 0, 72, 48
1, 194760, Note_on_c, 0, 72, 0
1, 194760, Note_on_c, 0, 72, 50
1, 194880, Note_on_c, 0, 72, 0
1, 194880, Note_on_c, 0, 72, 53
1, 195000, Note_on_c, 0, 72, 0
1, 195000, Note_on_c, 0, 72, 46
1, 195060, Note_on_c, 0, 72, 0
1, 195060, Note_on_c, 0, 74, 52
1, 195120, Note_on_c, 0, 74, 0
1, 195120, Note_on_c, 0, 75, 51
1, 195480, Note_on_c, 0, 75, 0
1, 195480, Note_on_c, 0, 74, 53
1, 195600, Note_on_c, 0, 74, 0
1, 195600, Note_on_c, 0, 72, 52
1, 195840, Note_on_c, 0, 72, 0
1, 195840, Note_on_c, 0, 84, 79
1, 195840, Note_on_c, 0, 81, 74
1, 195840, Note_on_c, 1, 38, 74
1, 195960, Note_on_c, 1, 38, 0
1, 195960, Note_on_c, 1, 50, 70
1, 196080, Note_on_c, 1, 50, 0
1, 196080, Note_on_c, 1, 40, 79
1, 196200, Note_on_c, 1, 40, 0
1, 196200, Note_on_c, 1, 52, 77
1, 196320, Note_on_c, 1, 52, 0
1, 196320, Note_on_c, 1, 42, 78
1, 196440, Note_on_c, 1, 42, 0
1, 196440, Note_on_c, 1, 54, 70
1, 196560, Note_on_c, 0, 84, 0
1, 196560, Note_on_c, 0, 81, 0
1, 196560, Note_on_c, 0, 79, 70
1, 196560, Note_on_c, 0, 82, 76
1, 196560, Note_on_c, 1, 54, 0
1, 196560, Note_on_c, 1, 43, 74
1, 196680, Note_on_c, 1, 43, 0
1, 196680, Note_on_c, 1, 55, 75
1, 196800, Note_on_c, 1, 55, 0
1, 196800, Note_on_c, 1, 45, 76
1, 196920, Note_on_c, 1, 45, 0
1, 196920, Note_on_c, 1, 57, 74
1, 197040, Note_on_c, 1, 57, 0
1, 197040, Note_on_c, 1, 46, 70
1, 197160, Note_on_c, 1, 46, 0
1, 197160, Note_on_c, 1, 58, 77
1, 197280, Note_on_c, 0, 82, 0
1, 197280, Note_on_c, 0, 81, 75
1, 197280, Note_on_c, 1, 58, 0
1, 197280, Note_on_c, 1, 48, 72
1, 197400, Note_on_c, 1, 48, 0
1, 197400, Note_on_c, 1, 60, 72
1, 197520, Note_on_c, 1, 60, 0
1, 197520, Note_on_c, 1, 45, 77
1, 197640, Note_on_c, 1, 45, 0
1, 197640, Note_on_c, 1, 57, 79
1, 197760, Note_on_c, 0, 79, 0
1, 197760, Note_on_c, 0, 78, 77
1, 197760, Note_on_c, 1, 57, 0
1, 197760, Note_on_c, 1, 50, 70
1, 197880, Note_on_c, 1, 50, 0
1, 197880, Note_on_c, 1, 62, 73
1, 198000, Note_on_c, 0, 81, 0
1, 198000, Note_on_c, 0, 78, 0
1, 198000, Note_on_c, 0, 79, 78
1, 198000, Note_on_c, 1, 62, 0
1, 198000, Note_on_c, 1, 58, 76
1, 198000, Note_on_c, 1, 55, 74
1, 198480, Note_on_c, 0, 79, 0
1, 198480, Note_on_c, 1, 58, 0
1, 198480, Note_on_c, 1, 55, 0
1, 198720, Note_on_c, 0, 70, 53
1, 199080, Note_on_c, 0, 70, 0
1, 199080, Note_on_c, 0, 70, 52
1, 199200, Note_on_c, 0, 70, 0
1, 199200, Note_on_c, 0, 70, 49
1, 199320, Note_on_c, 0, 70, 0
1, 199320, Note_on_c, 0, 70, 47
1, 199380, Note_on_c, 0, 70, 0
1, 199380, Note_on_c, 0, 72, 50
1, 199440, Note_on_c, 0, 72, 0
1, 199440, Note_on_c, 0, 73, 49
1, 199800, Note_on_c, 0, 73, 0
1, 199800, Note_on_c, 0, 72, 52
1, 199920, Note_on_c, 0, 72, 0
1, 199920, Note_on_c, 0, 70, 50
1, 200160, Note_on_c, 0, 70, 0
1, 200160, Note_on_c, 0, 70, 47
1, 200520, Note_on_c, 0, 70, 0
1, 200520, Note_on_c, 0, 70, 47
1, 200640, Note_on_c, 0, 70, 0
1, 200640, Note_on_c, 0, 70, 45
1, 200760, Note_on_c, 0, 70, 0
1, 200760, Note_on_c, 0, 70, 49
1, 200820, Note_on_c, 0, 70, 0
1, 200820, Note_on_c, 0, 72, 48
1, 200880, Note_on_c, 0, 72, 0
1, 200880, Note_on_c, 0, 73, 53
1, 201240, Note_on_c, 0, 73, 0
1, 201240, Note_on_c, 0, 72, 46
1, 201360, Note_on_c, 0, 72, 0
1, 201360, Note_on_c, 0, 70, 49
1, 201600, Note_on_c, 0, 70, 0
1, 201600, Note_on_c, 0, 60, 70
1, 201600, Note_on_c, 1, 58, 79
1, 201600, Note_on_c, 1, 55, 75
1, 201720, Note_on_c, 0, 60, 0
1, 201720, Note_on_c, 0, 72, 78
1, 201840, Note_on_c, 0, 72, 0
1, 201840, Note_on_c, 0, 62, 72
1, 201960, Note_on_c, 0, 62, 0
1, 201960, Note_on_c, 0, 74, 75
1, 202080, Note_on_c, 0, 74, 0
1, 202080, Note_on_c, 0, 64, 78
1, 202200, Note_on_c, 0, 64, 0
1, 202200, Note_on_c, 0, 76, 75
1, 202320, Note_on_c, 0, 76, 0
1, 202320, Note_on_c, 0, 65, 79
1, 202320, Note_on_c, 1, 58, 0
1, 202320, Note_on_c, 1, 55, 0
1, 202320, Note_on_c, 1, 53, 76
1, 202320, Note_on_c, 1, 57, 78
1, 202440, Note_on_c, 0, 65, 0
1, 202440, Note_on_c, 0, 77, 71
1, 202560, Note_on_c, 0, 77, 0
1, 202560, Note_on_c, 0, 67, 76
1, 202680, Note_on_c, 0, 67, 0
1, 202680, Note_on_c, 0, 79, 70
1, 202800, Note_on_c, 0, 79, 0
1, 202800, Note_on_c, 0, 69, 77
1, 202920, Note_on_c, 0, 69, 0
1, 202920, Note_on_c, 0, 81, 78
1, 203040, Note_on_c, 0, 81, 0
1, 203040, Note_on_c, 0, 79, 71
1, 203040, Note_on_c, 0, 82, 74
1, 203040, Note_on_c, 1, 53, 0
1, 203040, Note_on_c, 1, 57, 0
1, 203040, Note_on_c, 1, 36, 71
1, 203160, Note_on_c, 1, 36, 0
1, 203160, Note_on_c, 1, 48, 79
1, 203280, Note_on_c, 1, 48, 0
1, 203280, Note_on_c, 1, 38, 73
1, 203400, Note_on_c, 1, 38, 0
1, 203400, Note_on_c, 1, 50, 78
1, 203520, Note_on_c, 1, 50, 0
1, 203520, Note_on_c, 1, 40, 74
1, 203640, Note_on_c, 1, 40, 0
1, 203640, Note_on_c, 1, 52, 75
1, 203760, Note_on_c, 0, 79, 0
1, 203760, Note_on_c, 0, 82, 0
1, 203760, Note_on_c, 0, 77, 78
1, 203760, Note_on_c, 0, 81, 70
1, 203760, Note_on_c, 1, 52, 0
1, 203760, Note_on_c, 1, 41, 78
1, 203880, Note_on_c, 1, 41, 0
1, 203880, Note_on_c, 1, 53, 78
1, 204000, Note_on_c, 1, 53, 0
1, 204000, Note_on_c, 1, 43, 71
1, 204120, Note_on_c, 1, 43, 0
1, 204120, Note_on_c, 1, 55, 73
1, 204240, Note_on_c, 1, 55, 0
1, 204240, Note_on_c, 1, 45, 73
1, 204360, Note_on_c, 1, 45, 0
1, 204360, Note_on_c, 1, 57, 72
1, 204480, Note_on_c, 0, 77, 0
1, 204480, Note_on_c, 0, 81, 0
1, 204480, Note_on_c, 0, 57, 78
1, 204480, Note_on_c, 1, 57, 0
1, 204480, Note_on_c, 1, 55, 72
1, 204480, Note_on_c, 1, 52, 71
1, 204600, Note_on_c, 0, 57, 0
1, 204600, Note_on_c, 0, 69, 75
1, 204720, Note_on_c, 0, 69, 0
1, 204720, Note_on_c, 0, 59, 74
1, 204840, Note_on_c, 0, 59, 0
1, 204840, Note_on_c, 0, 71, 79
1, 204960, Note_on_c, 0, 71, 0
1, 204960, Note_on_c, 0, 61, 78
1, 205080, Note_on_c, 0, 61, 0
1, 205080, Note_on_c, 0, 73, 75
1, 205200, Note_on_c, 0, 73, 0
1, 205200, Note_on_c, 0, 62, 78
1, 205200, Note_on_c, 1, 55, 0
1, 205200, Note_on_c, 1, 52, 0
1, 205200, Note_on_c, 1, 50, 79
1, 205200, Note_on_c, 1, 53, 74
1, 205320, Note_on_c, 0, 62, 0
1, 205320, Note_on_c, 0, 74, 71
1, 205440, Note_on_c, 0, 74, 0
1, 205440, Note_on_c, 0, 64, 71
1, 205560, Note_on_c, 0, 64, 0
1, 205560, Note_on_c, 0, 76, 78
1, 205680, Note_on_c, 0, 76, 0
1, 205680, Note_on_c, 0, 65, 74
1, 205800, Note_on_c, 0, 65, 0
1, 205800, Note_on_c, 0, 77, 75
1, 205920, Note_on_c, 0, 77, 0
1, 205920, Note_on_c, 0, 76, 76
1, 205920, Note_on_c, 0, 79, 76
1, 205920, Note_on_c, 1, 50, 0
1, 205920, Note_on_c, 1, 53, 0
1, 205920, Note_on_c, 1, 33, 70
1, 206040, Note_on_c, 1, 33, 0
1, 206040, Note_on_c, 1, 45, 73
1, 206160, Note_on_c, 1, 45, 0
1, 206160, Note_on_c, 1, 35, 75
1, 206280, Note_on_c, 1, 35, 0
1, 206280, Note_on_c, 1, 47, 78
1, 206400, Note_on_c, 1, 47, 0
1, 206400, Note_on_c, 1, 37, 74
1, 206520, Note_on_c, 1, 37, 0
1, 206520, Note_on_c, 1, 49, 76
1, 206640, Note_on_c, 0, 76, 0
1, 206640, Note_on_c, 0, 79, 0
1, 206640, Note_on_c, 0, 77, 76
1, 206640, Note_on_c, 0, 74, 77
1, 206640, Note_on_c, 1, 49, 0
1, 206640, Note_on_c, 1, 38, 73
1, 206760, Note_on_c, 1, 38, 0
1, 206760, Note_on_c, 1, 50, 73
1, 206880, Note_on_c, 1, 50, 0
1, 206880, Note_on_c, 1, 40, 78
1, 207000, Note_on_c, 1, 40, 0
1, 207000, Note_on_c, 1, 52, 78
1, 207120, Note_on_c, 1, 52, 0
1, 207120, Note_on_c, 1, 41, 71
1, 207240, Note_on_c, 1, 41, 0
1, 207240, Note_on_c, 1, 53, 72
1, 207360, Note_on_c, 0, 77, 0
1, 207360, Note_on_c, 0, 74, 0
1, 207360, Note_on_c, 1, 53, 0
1, 207360, Note_on_c, 1, 55, 53
1, 207480, Note_on_c, 0, 75, 46
1, 207600, Note_on_c, 0, 75, 0
1, 207600, Note_on_c, 0, 74, 49
1, 207600, Note_on_c, 1, 55, 0
1, 207720, Note_on_c, 0, 74, 0
1, 207720, Note_on_c, 0, 75, 51
1, 207840, Note_on_c, 0, 75, 0
1, 207840, Note_on_c, 0, 79, 49
1, 207840, Note_on_c, 1, 67, 50
1, 207840, Note_on_c, 1, 70, 45
1, 207960, Note_on_c, 0, 79, 0
1, 207960, Note_on_c, 0, 75, 53
1, 208080, Note_on_c, 0, 75, 0
1, 208080, Note_on_c, 1, 67, 0
1, 208080, Note_on_c, 1, 70, 0
1, 208080, Note_on_c, 1, 69, 52
1, 208080, Note_on_c, 1, 65, 52
1, 208200, Note_on_c, 0, 74, 51
1, 208320, Note_on_c, 0, 74, 0
1, 208320, Note_on_c, 0, 73, 52
1, 208320, Note_on_c, 1, 69, 0
1, 208320, Note_on_c, 1, 65, 0
1, 208440, Note_on_c, 0, 73, 0
1, 208440, Note_on_c, 0, 74, 48
1, 208560, Note_on_c, 0, 74, 0
1, 208560, Note_on_c, 0, 77, 47
1, 208560, Note_on_c, 1, 65, 50
1, 208560, Note_on_c, 1, 69, 49
1, 208680, Note_on_c, 0, 77, 0
1, 208680, Note_on_c, 0, 74, 46
1, 208800, Note_on_c, 0, 74, 0
1, 208800, Note_on_c, 1, 65, 0
1, 208800, Note_on_c, 1, 69, 0
1, 208800, Note_on_c, 1, 64, 47
1, 208800, Note_on_c, 1, 67, 51
1, 208920, Note_on_c, 0, 73, 47
1, 209040, Note_on_c, 0, 73, 0
1, 209040, Note_on_c, 0, 71, 50
1, 209040, Note_on_c, 1, 64, 0
1, 209040, Note_on_c, 1, 67, 0
1, 209160, Note_on_c, 0, 71, 0
1, 209160, Note_on_c, 0, 73, 50
1, 209280, Note_on_c, 0, 73, 0
1, 209280, Note_on_c, 0, 76, 48
1, 209280, Note_on_c, 1, 64, 45
1, 209280, Note_on_c, 1, 67, 54
1, 209400, Note_on_c, 0, 76, 0
1, 209400, Note_on_c, 0, 73, 53
1, 209520, Note_on_c, 0, 73, 0
1, 209520, Note_on_c, 1, 64, 0
1, 209520, Note_on_c, 1, 67, 0
1, 209520, Note_on_c, 1, 69, 46
1, 209520, Note_on_c, 1, 65, 49
1, 209640, Note_on_c, 0, 74, 47
1, 209760, Note_on_c, 0, 74, 0
1, 209760, Note_on_c, 0, 73, 47
1, 209760, Note_on_c, 1, 69, 0
1, 209760, Note_on_c, 1, 65, 0
1, 209880, Note_on_c, 0, 73, 0
1, 209880, Note_on_c, 0, 74, 52
1, 210000, Note_on_c, 0, 74, 0
1, 210000, Note_on_c, 0, 77, 48
1, 210000, Note_on_c, 1, 65, 50
1, 210000, Note_on_c, 1, 69, 54
1, 210120, Note_on_c, 0, 77, 0
1, 210120, Note_on_c, 0, 74, 47
1, 210240, Note_on_c, 0, 74, 0
1, 210240, Note_on_c, 0, 80, 78
1, 210240, Note_on_c, 0, 74, 77
1, 210240, Note_on_c, 0, 86, 77
1, 210240, Note_on_c, 1, 65, 0
1, 210240, Note_on_c, 1, 69, 0
1, 210360, Note_on_c, 1, 58, 76
1, 210480, Note_on_c, 0, 80, 0
1, 210480, Note_on_c, 0, 86, 0
1, 210480, Note_on_c, 0, 74, 0
1, 210480, Note_on_c, 1, 58, 0
1, 210480, Note_on_c, 1, 57, 74
1, 210600, Note_on_c, 1, 57, 0
1, 210600, Note_on_c, 1, 58, 73
1, 210720, Note_on_c, 1, 58, 0
1, 210720, Note_on_c, 1, 62, 77
1, 210840, Note_on_c, 1, 62, 0
1, 210840, Note_on_c, 1, 58, 72
1, 210960, Note_on_c, 0, 76, 76
1, 210960, Note_on_c, 0, 85, 71
1, 210960, Note_on_c, 0, 81, 78
1, 210960, Note_on_c, 1, 58, 0
1, 211080, Note_on_c, 1, 57, 74
1, 211200, Note_on_c, 0, 76, 0
1, 211200, Note_on_c, 0, 81, 0
1, 211200, Note_on_c, 0, 85, 0
1, 211200, Note_on_c, 1, 57, 0
1, 211200, Note_on_c, 1, 56, 74
1, 211320, Note_on_c, 1, 56, 0
1, 211320, Note_on_c, 1, 57, 78
1, 211440, Note_on_c, 1, 57, 0
1, 211440, Note_on_c, 1, 61, 78
1, 211560, Note_on_c, 1, 61, 0
1, 211560, Note_on_c, 1, 57, 74
1, 211680, Note_on_c, 0, 80, 70
1, 211680, Note_on_c, 0, 74, 73
1, 211680, Note_on_c, 0, 86, 74
1, 211680, Note_on_c, 1, 57, 0
1, 211800, Note_on_c, 1, 46, 71
1, 211920, Note_on_c, 0, 80, 0
1, 211920, Note_on_c, 0, 86, 0
1, 211920, Note_on_c, 0, 74, 0
1, 211920, Note_on_c, 1, 46, 0
1, 211920, Note_on_c, 1, 45, 76
1, 212040, Note_on_c, 1, 45, 0
1, 212040, Note_on_c, 1, 46, 75
1, 212160, Note_on_c, 1, 46, 0
1, 212160, Note_on_c, 1, 50, 78
1, 212280, Note_on_c, 1, 50, 0
1, 212280, Note_on_c, 1, 46, 71
1, 212400, Note_on_c, 0, 85, 77
1, 212400, Note_on_c, 0, 81, 75
1, 212400, Note_on_c, 0, 76, 73
1, 212400, Note_on_c, 1, 46, 0
1, 212520, Note_on_c, 1, 45, 75
1, 212640, Note_on_c, 0, 85, 0
1, 212640, Note_on_c, 0, 76, 0
1, 212640, Note_on_c, 0, 81, 0
1, 212640, Note_on_c, 1, 45, 0
1, 212640, Note_on_c, 1, 44, 73
1, 212760, Note_on_c, 1, 44, 0
1, 212760, Note_on_c, 1, 45, 75
1, 212880, Note_on_c, 1, 45, 0
1, 212880, Note_on_c, 1, 49, 76
1, 213000, Note_on_c, 1, 49, 0
1, 213000, Note_on_c, 1, 45, 72
1, 213120, Note_on_c, 1, 45, 0
1, 213120, Note_on_c, 1, 33, 77
1, 213360, Note_on_c, 1, 33, 0
1, 214320, Note_on_c, 0, 84, 72
1, 214440, Note_on_c, 0, 84, 0
1, 214440, Note_on_c, 0, 81, 71
1, 214560, Note_on_c, 0, 81, 0
1, 214560, Note_on_c, 0, 77, 78
1, 214800, Note_on_c, 0, 77, 0
1, 214800, Note_on_c, 0, 77, 74
1, 215040, Note_on_c, 0, 77, 0
1, 215040, Note_on_c, 0, 77, 70
1, 215220, Note_on_c, 0, 77, 0
1, 215220, Note_on_c, 0, 76, 73
1, 215280, Note_on_c, 0, 76, 0
1, 215280, Note_on_c, 0, 82, 47
1, 215280, Note_on_c, 1, 67, 51
1, 215280, Note_on_c, 1, 72, 51
1, 215520, Note_on_c, 0, 82, 0
1, 215520, Note_on_c, 1, 67, 0
1, 215520, Note_on_c, 1, 72, 0
1, 215940, Note_on_c, 0, 77, 53
1, 216000, Note_on_c, 0, 77, 0
1, 216000, Note_on_c, 0, 81, 54
1, 216000, Note_on_c, 1, 65, 52
1, 216000, Note_on_c, 1, 72, 51
1, 216240, Note_on_c, 0, 81, 0
1, 216240, Note_on_c, 1, 65, 0
1, 216240, Note_on_c, 1, 72, 0
1, 216660, Note_on_c, 0, 76, 47
1, 216720, Note_on_c, 0, 76, 0
1, 216720, Note_on_c, 0, 79, 47
1, 216720, Note_on_c, 1, 70, 49
1, 216720, Note_on_c, 1, 72, 47
1, 216960, Note_on_c, 0, 79, 0
1, 216960, Note_on_c, 1, 70, 0
1, 216960, Note_on_c, 1, 72, 0
1, 217440, Note_on_c, 0, 77, 70
1, 217440, Note_on_c, 1, 69, 79
1, 217560, Note_on_c, 0, 77, 0
1, 217560, Note_on_c, 0, 79, 78
1, 217680, Note_on_c, 0, 79, 0
1, 217680, Note_on_c, 0, 81, 79
1, 217800, Note_on_c, 0, 81, 0
1, 217800, Note_on_c, 0, 77, 72
1, 217920, Note_on_c, 0, 77, 0
1, 217920, Note_on_c, 0, 72, 78
1, 218040, Note_on_c, 0, 72, 0
1, 218040, Note_on_c, 0, 73, 79
1, 218160, Note_on_c, 0, 73, 0
1, 218160, Note_on_c, 0, 74, 78
1, 218160, Note_on_c, 1, 69, 0
1, 218160, Note_on_c, 1, 70, 70
1, 218280, Note_on_c, 0, 74, 0
1, 218280, Note_on_c, 0, 76, 76
1, 218400, Note_on_c, 0, 76, 0
1, 218400, Note_on_c, 0, 77, 73
1, 218400, Note_on_c, 1, 70, 0
1, 218520, Note_on_c, 0, 77, 0
1, 218520, Note_on_c, 0, 74, 77
1, 218640, Note_on_c, 0, 74, 0
1, 218640, Note_on_c, 0, 67, 72
1, 218760, Note_on_c, 0, 67, 0
1, 218760, Note_on_c, 0, 69, 70
1, 218880, Note_on_c, 0, 69, 0
1, 218880, Note_on_c, 0, 70, 70
1, 218880, Note_on_c, 1, 55, 75
1, 219000, Note_on_c, 0, 70, 0
1, 219000, Note_on_c, 0, 72, 75
1, 219120, Note_on_c, 0, 72, 0
1, 219120, Note_on_c, 0, 74, 73
1, 219120, Note_on_c, 1, 55, 0
1, 219120, Note_on_c, 1, 58, 75
1, 219240, Note_on_c, 0, 74, 0
1, 219240, Note_on_c, 0, 70, 73
1, 219360, Note_on_c, 0, 70, 0
1, 219360, Note_on_c, 0, 62, 74
1, 219360, Note_on_c, 1, 58, 0
1, 219360, Note_on_c, 1, 59, 73
1, 219480, Note_on_c, 0, 62, 0
1, 219480, Note_on_c, 0, 65, 73
1, 219600, Note_on_c, 0, 65, 0
1, 219600, Note_on_c, 0, 64, 72
1, 219600, Note_on_c, 1, 59, 0
1, 219600, Note_on_c, 1, 60, 76
1, 219720, Note_on_c, 0, 64, 0
1, 219720, Note_on_c, 0, 65, 70
1, 219840, Note_on_c, 0, 65, 0
1, 219840, Note_on_c, 0, 67, 78
1, 219840, Note_on_c, 1, 60, 0
1, 219960, Note_on_c, 0, 67, 0
1, 219960, Note_on_c, 0, 64, 77
1, 220080, Note_on_c, 0, 64, 0
1, 220080, Note_on_c, 0, 72, 74
1, 220200, Note_on_c, 0, 72, 0
1, 220200, Note_on_c, 0, 69, 77
1, 220320, Note_on_c, 0, 69, 0
1, 220320, Note_on_c, 0, 65, 75
1, 220560, Note_on_c, 0, 65, 0
1, 220560, Note_on_c, 0, 65, 76
1, 220800, Note_on_c, 0, 65, 0
1, 220800, Note_on_c, 0, 65, 72
1, 220980, Note_on_c, 0, 65, 0
1, 220980, Note_on_c, 0, 64, 71
1, 221040, Note_on_c, 0, 64, 0
1, 221040, Note_on_c, 0, 70, 52
1, 221040, Note_on_c, 1, 72, 48
1, 221040, Note_on_c, 1, 67, 54
1, 221280, Note_on_c, 0, 70, 0
1, 221280, Note_on_c, 1, 72, 0
1, 221280, Note_on_c, 1, 67, 0
1, 221700, Note_on_c, 0, 65, 45
1, 221760, Note_on_c, 0, 65, 0
1, 221760, Note_on_c, 0, 69, 48
1, 221760, Note_on_c, 1, 72, 52
1, 222000, Note_on_c, 0, 69, 0
1, 222000, Note_on_c, 1, 72, 0
1, 222420, Note_on_c, 0, 64, 46
1, 222480, Note_on_c, 0, 64, 0
1, 222480, Note_on_c, 0, 67, 52
1, 222480, Note_on_c, 1, 72, 45
1, 222480, Note_on_c, 1, 70, 52
1, 222720, Note_on_c, 0, 67, 0
1, 222720, Note_on_c, 1, 72, 0
1, 222720, Note_on_c, 1, 70, 0
1, 223200, Note_on_c, 0, 65, 70
1, 223200, Note_on_c, 1, 45, 76
1, 223200, Note_on_c, 1, 57, 73
1, 223320, Note_on_c, 0, 65, 0
1, 223320, Note_on_c, 0, 67, 70
1, 223440, Note_on_c, 0, 67, 0
1, 223440, Note_on_c, 0, 69, 70
1, 223560, Note_on_c, 0, 69, 0
1, 223560, Note_on_c, 0, 70, 77
1, 223680, Note_on_c, 0, 70, 0
1, 223680, Note_on_c, 0, 72, 71
1, 223800, Note_on_c, 0, 72, 0
1, 223800, Note_on_c, 0, 73, 71
1, 223920, Note_on_c, 0, 73, 0
1, 223920, Note_on_c, 0, 74, 77
1, 223920, Note_on_c, 1, 45, 0
1, 223920, Note_on_c, 1, 57, 0
1, 223920, Note_on_c, 1, 46, 78
1, 223920, Note_on_c, 1, 58, 72
1, 224040, Note_on_c, 0, 74, 0
1, 224040, Note_on_c, 0, 76, 79
1, 224160, Note_on_c, 0, 76, 0
1, 224160, Note_on_c, 0, 77, 73
1, 224160, Note_on_c, 1, 46, 0
1, 224160, Note_on_c, 1, 58, 0
1, 224280, Note_on_c, 0, 77, 0
1, 224280, Note_on_c, 0, 79, 76
1, 224400, Note_on_c, 0, 79, 0
1, 224400, Note_on_c, 0, 81, 75
1, 224520, Note_on_c, 0, 81, 0
1, 224520, Note_on_c, 0, 82, 71
1, 224640, Note_on_c, 0, 82, 0
1, 224640, Note_on_c, 0, 84, 77
1, 224880, Note_on_c, 0, 84, 0
1, 224880, Note_on_c, 0, 77, 76
1, 224880, Note_on_c, 0, 69, 75
1, 224880, Note_on_c, 1, 60, 75
1, 225120, Note_on_c, 0, 77, 0
1, 225120, Note_on_c, 0, 69, 0
1, 225120, Note_on_c, 0, 76, 73
1, 225120, Note_on_c, 0, 67, 74
1, 225120, Note_on_c, 1, 60, 0
1, 225120, Note_on_c, 1, 48, 74
1, 225360, Note_on_c, 0, 76, 0
1, 225360, Note_on_c, 0, 67, 0
1, 225360, Note_on_c, 0, 69, 70
1, 225360, Note_on_c, 0, 77, 73
1, 225360, Note_on_c, 1, 48, 0
1, 225360, Note_on_c, 1, 53, 70
1, 225600, Note_on_c, 1, 53, 0
1, 225600, Note_on_c, 1, 41, 75
1, 225840, Note_on_c, 0, 69, 0
1, 225840, Note_on_c, 0, 77, 0
1, 225840, Note_on_c, 1, 41, 0
1, 225840, Note_on_c, 1, 41, 79
1, 226080, Note_on_c, 0, 70, 49
1, 226080, Note_on_c, 0, 62, 50
1, 226080, Note_on_c, 1, 41, 0
1, 226080, Note_on_c, 1, 41, 52
1, 226320, Note_on_c, 0, 70, 0
1, 226320, Note_on_c, 0, 62, 0
1, 226320, Note_on_c, 0, 69, 50
1, 226320, Note_on_c, 0, 60, 49
1, 226320, Note_on_c, 1, 41, 0
1, 226320, Note_on_c, 1, 41, 45
1, 226560, Note_on_c, 0, 69, 0
1, 226560, Note_on_c, 0, 60, 0
1, 226560, Note_on_c, 0, 58, 46
1, 226560, Note_on_c, 0, 67, 46
1, 226560, Note_on_c, 1, 41, 0
1, 226560, Note_on_c, 1, 41, 54
1, 226800, Note_on_c, 0, 58, 0
1, 226800, Note_on_c, 0, 67, 0
1, 226800, Note_on_c, 0, 58, 45
1, 226800, Note_on_c, 0, 67, 52
1, 226800, Note_on_c, 1, 41, 0
1, 226800, Note_on_c, 1, 41, 52
1, 227040, Note_on_c, 0, 58, 0
1, 227040, Note_on_c, 0, 67, 0
1, 227040, Note_on_c, 0, 57, 48
1, 227040, Note_on_c, 0, 65, 53
1, 227040, Note_on_c, 1, 41, 0
1, 227040, Note_on_c, 1, 41, 54
1, 227280, Note_on_c, 0, 57, 0
1, 227280, Note_on_c, 0, 65, 0
1, 227280, Note_on_c, 0, 57, 47
1, 227280, Note_on_c, 0, 65, 52
1, 227280, Note_on_c, 1, 41, 0
1, 227280, Note_on_c, 1, 41, 45
1, 227520, Note_on_c, 0, 57, 0
1, 227520, Note_on_c, 0, 65, 0
1, 227520, Note_on_c, 0, 65, 54
1, 227520, Note_on_c, 0, 57, 54
1, 227520, Note_on_c, 1, 41, 0
1, 227520, Note_on_c, 1, 41, 54
1, 227760, Note_on_c, 0, 65, 0
1, 227760, Note_on_c, 0, 57, 0
1, 227760, Note_on_c, 0, 58, 54
1, 227760, Note_on_c, 0, 67, 51
1, 227760, Note_on_c, 1, 41, 0
1, 227760, Note_on_c, 1, 41, 50
1, 228000, Note_on_c, 0, 58, 0
1, 228000, Note_on_c, 0, 67, 0
1, 228000, Note_on_c, 0, 64, 49
1, 228000, Note_on_c, 0, 55, 45
1, 228000, Note_on_c, 1, 41, 0
1, 228000, Note_on_c, 1, 41, 52
1, 228240, Note_on_c, 0, 64, 0
1, 228240, Note_on_c, 0, 55, 0
1, 228240, Note_on_c, 0, 57, 49
1, 228240, Note_on_c, 0, 65, 54
1, 228240, Note_on_c, 1, 41, 0
1, 228240, Note_on_c, 1, 41, 47
1, 228480, Note_on_c, 0, 57, 0
1, 228480, Note_on_c, 0, 65, 0
1, 228480, Note_on_c, 1, 41, 0
1, 228480, Note_on_c, 1, 53, 49
1, 228720, Note_on_c, 1, 53, 0
1, 228720, Note_on_c, 1, 53, 45
1, 228960, Note_on_c, 0, 70, 50
1, 228960, Note_on_c, 0, 74, 45
1, 228960, Note_on_c, 1, 53, 0
1, 228960, Note_on_c, 1, 53, 47
1, 229200, Note_on_c, 0, 70, 0
1, 229200, Note_on_c, 0, 74, 0
1, 229200, Note_on_c, 0, 69, 48
1, 229200, Note_on_c, 0, 72, 53
1, 229200, Note_on_c, 1, 53, 0
1, 229200, Note_on_c, 1, 53, 47
1, 229440, Note_on_c, 0, 69, 0
1, 229440, Note_on_c, 0, 72, 0
1, 229440, Note_on_c, 0, 67, 54
1, 229440, Note_on_c, 0, 70, 54
1, 229440, Note_on_c, 1, 53, 0
1, 229440, Note_on_c, 1, 53, 53
1, 229680, Note_on_c, 0, 67, 0
1, 229680, Note_on_c, 0, 70, 0
1, 229680, Note_on_c, 0, 67, 51
1, 229680, Note_on_c, 0, 70, 47
1, 229680, Note_on_c, 1, 53, 0
1, 229680, Note_on_c, 1, 53, 52
1, 229920, Note_on_c, 0, 67, 0
1, 229920, Note_on_c, 0, 70, 0
1, 229920, Note_on_c, 0, 65, 47
1, 229920, Note_on_c, 0, 69, 49
1, 229920, Note_on_c, 1, 53, 0
1, 229920, Note_on_c, 1, 53, 54
1, 230160, Note_on_c, 0, 65, 0
1, 230160, Note_on_c, 0, 69, 0
1, 230160, Note_on_c, 0, 69, 54
1, 230160, Note_on_c, 0, 65, 46
1, 230160, Note_on_c, 1, 53, 0
1, 230160, Note_on_c, 1, 53, 50
1, 230400, Note_on_c, 0, 69, 0
1, 230400, Note_on_c, 0, 65, 0
1, 230400, Note_on_c, 0, 65, 53
1, 230400, Note_on_c, 0, 69, 51
1, 230400, Note_on_c, 1, 53, 0
1, 230400, Note_on_c, 1, 53, 52
1, 230640, Note_on_c, 0, 65, 0
1, 230640, Note_on_c, 0, 69, 0
1, 230640, Note_on_c, 0, 70, 52
1, 230640, Note_on_c, 0, 67, 45
1, 230640, Note_on_c, 1, 53, 0
1, 230640, Note_on_c, 1, 53, 46
1, 230880, Note_on_c, 0, 70, 0
1, 230880, Note_on_c, 0, 67, 0
1, 230880, Note_on_c, 0, 64, 46
1, 230880, Note_on_c, 0, 67, 53
1, 230880, Note_on_c, 1, 53, 0
1, 230880, Note_on_c, 1, 53, 54
1, 231120, Note_on_c, 0, 64, 0
1, 231120, Note_on_c, 0, 67, 0
1, 231120, Note_on_c, 0, 69, 53
1, 231120, Note_on_c, 0, 65, 48
1, 231120, Note_on_c, 1, 53, 0
1, 231120, Note_on_c, 1, 53, 45
1, 231360, Note_on_c, 0, 69, 0
1, 231360, Note_on_c, 0, 65, 0
1, 231360, Note_on_c, 1, 53, 0
1, 231360, Note_on_c, 1, 53, 53
1, 231600, Note_on_c, 1, 53, 0
1, 231600, Note_on_c, 1, 53, 49
1, 231840, Note_on_c, 1, 53, 0
1, 231840, Note_on_c, 1, 65, 78
1, 231960, Note_on_c, 0, 69, 74
1, 232080, Note_on_c, 0, 69, 0
1, 232080, Note_on_c, 0, 74, 78
1, 232080, Note_on_c, 1, 65, 0
1, 232200, Note_on_c, 0, 74, 0
1, 232200, Note_on_c, 0, 77, 71
1, 232320, Note_on_c, 0, 77, 0
1, 232320, Note_on_c, 0, 81, 78
1, 232440, Note_on_c, 1, 65, 71
1, 232560, Note_on_c, 0, 81, 0
1, 232560, Note_on_c, 1, 65, 0
1, 232560, Note_on_c, 1, 64, 71
1, 232680, Note_on_c, 0, 67, 77
1, 232800, Note_on_c, 0, 67, 0
1, 232800, Note_on_c, 0, 72, 78
1, 232800, Note_on_c, 1, 64, 0
1, 232920, Note_on_c, 0, 72, 0
1, 232920, Note_on_c, 0, 76, 70
1, 233040, Note_on_c, 0, 76, 0
1, 233040, Note_on_c, 0, 79, 71
1, 233160, Note_on_c, 1, 64, 74
1, 233280, Note_on_c, 0, 79, 0
1, 233280, Note_on_c, 1, 64, 0
1, 233280, Note_on_c, 1, 62, 78
1, 233400, Note_on_c, 0, 65, 72
1, 233520, Note_on_c, 0, 65, 0
1, 233520, Note_on_c, 0, 71, 76
1, 233520, Note_on_c, 1, 62, 0
1, 233640, Note_on_c, 0, 71, 0
1, 233640, Note_on_c, 0, 74, 78
1, 233760, Note_on_c, 0, 74, 0
1, 233760, Note_on_c, 0, 77, 73
1, 233880, Note_on_c, 1, 62, 75
1, 234000, Note_on_c, 0, 77, 0
1, 234000, Note_on_c, 1, 62, 0
1, 234000, Note_on_c, 1, 60, 76
1, 234120, Note_on_c, 0, 64, 78
1, 234240, Note_on_c, 0, 64, 0
1, 234240, Note_on_c, 0, 67, 75
1, 234240, Note_on_c, 1, 60, 0
1, 234360, Note_on_c, 0, 67, 0
1, 234360, Note_on_c, 0, 72, 76
1, 234480, Note_on_c, 0, 72, 0
1, 234480, Note_on_c, 0, 76, 78
1, 234600, Note_on_c, 1, 72, 76
1, 234720, Note_on_c, 0, 76, 0
1, 234720, Note_on_c, 1, 72, 0
1, 234720, Note_on_c, 1, 70, 72
1, 234840, Note_on_c, 0, 74, 71
1, 234960, Note_on_c, 0, 74, 0
1, 234960, Note_on_c, 0, 79, 78
1, 234960, Note_on_c, 1, 70, 0
1, 235080, Note_on_c, 0, 79, 0
1, 235080, Note_on_c, 0, 82, 75
1, 235200, Note_on_c, 0, 82, 0
1, 235200, Note_on_c, 0, 86, 79
1, 235320, Note_on_c, 1, 70, 78
1, 235440, Note_on_c, 0, 86, 0
1, 235440, Note_on_c, 1, 70, 0
1, 235440, Note_on_c, 1, 69, 78
1, 235560, Note_on_c, 0, 72, 71
1, 235680, Note_on_c, 0, 72, 0
1, 235680, Note_on_c, 0, 77, 74
1, 235680, Note_on_c, 1, 69, 0
1, 235800, Note_on_c, 0, 77, 0
1, 235800, Note_on_c, 0, 81, 76
1, 235920, Note_on_c, 0, 81, 0
1, 235920, Note_on_c, 0, 84, 70
1, 236040, Note_on_c, 1, 69, 78
1, 236160, Note_on_c, 0, 84, 0
1, 236160, Note_on_c, 1, 69, 0
1, 236160, Note_on_c, 1, 67, 70
1, 236280, Note_on_c, 0, 71, 77
1, 236400, Note_on_c, 0, 71, 0
1, 236400, Note_on_c, 0, 76, 74
1, 236400, Note_on_c, 1, 67, 0
1, 236520, Note_on_c, 0, 76, 0
1, 236520, Note_on_c, 0, 79, 71
1, 236640, Note_on_c, 0, 79, 0
1, 236640, Note_on_c, 0, 83, 79
1, 236760, Note_on_c, 1, 67, 71
1, 236880, Note_on_c, 0, 83, 0
1, 236880, Note_on_c, 1, 67, 0
1, 236880, Note_on_c, 1, 65, 74
1, 237000, Note_on_c, 0, 69, 74
1, 237120, Note_on_c, 0, 69, 0
1, 237120, Note_on_c, 0, 72, 73
1, 237120, Note_on_c, 1, 65, 0
1, 237240, Note_on_c, 0, 72, 0
1, 237240, Note_on_c, 0, 77, 73
1, 237360, Note_on_c, 0, 77, 0
1, 237360, Note_on_c, 0, 81, 71
1, 237480, Note_on_c, 1, 65, 71
1, 237600, Note_on_c, 0, 81, 0
1, 237600, Note_on_c, 1, 65, 0
1, 237600, Note_on_c, 1, 70, 77
1, 237720, Note_on_c, 0, 74, 76
1, 237840, Note_on_c, 0, 74, 0
1, 237840, Note_on_c, 0, 79, 77
1, 237960, Note_on_c, 0, 79, 0
1, 237960, Note_on_c, 0, 78, 78
1, 238080, Note_on_c, 0, 78, 0
1, 238080, Note_on_c, 0, 81, 78
1, 238080, Note_on_c, 1, 70, 0
1, 238200, Note_on_c, 0, 81, 0
1, 238200, Note_on_c, 0, 79, 79
1, 238320, Note_on_c, 0, 79, 0
1, 238320, Note_on_c, 0, 82, 73
1, 238440, Note_on_c, 0, 82, 0
1, 238440, Note_on_c, 0, 81, 78
1, 238560, Note_on_c, 0, 81, 0
1, 238560, Note_on_c, 0, 84, 73
1, 238680, Note_on_c, 0, 84, 0
1, 238680, Note_on_c, 0, 82, 75
1, 238800, Note_on_c, 0, 82, 0
1, 238800, Note_on_c, 0, 86, 75
1, 238920, Note_on_c, 0, 86, 0
1, 238920, Note_on_c, 0, 85, 70
1, 239040, Note_on_c, 0, 85, 0
1, 239040, Note_on_c, 0, 86, 75
1, 239280, Note_on_c, 0, 86, 0
1, 239520, Note_on_c, 0, 77, 53
1, 239520, Note_on_c, 0, 69, 52
1, 239520, Note_on_c, 1, 59, 52
1, 239760, Note_on_c, 0, 77, 0
1, 239760, Note_on_c, 0, 69, 0
1, 239760, Note_on_c, 0, 76, 52
1, 239760, Note_on_c, 0, 67, 48
1, 239760, Note_on_c, 1, 59, 0
1, 239760, Note_on_c, 1, 60, 51
1, 240000, Note_on_c, 0, 76, 0
1, 240000, Note_on_c, 0, 67, 0
1, 240000, Note_on_c, 1, 60, 0
1, 240240, Note_on_c, 1, 47, 75
1, 240480, Note_on_c, 1, 47, 0
1, 240480, Note_on_c, 1, 48, 75
1, 240720, Note_on_c, 1, 48, 0
1, 240960, Note_on_c, 0, 89, 49
1, 240960, Note_on_c, 0, 81, 47
1, 240960, Note_on_c, 1, 71, 51
1, 241200, Note_on_c, 0, 89, 0
1, 241200, Note_on_c, 0, 81, 0
1, 241200, Note_on_c, 0, 88, 50
1, 241200, Note_on_c, 0, 79, 53
1, 241200, Note_on_c, 1, 71, 0
1, 241200, Note_on_c, 1, 72, 45
1, 241440, Note_on_c, 0, 88, 0
1, 241440, Note_on_c, 0, 79, 0
1, 241440, Note_on_c, 1, 72, 0
1, 241680, Note_on_c, 1, 59, 79
1, 241920, Note_on_c, 1, 59, 0
1, 241920, Note_on_c, 1, 60, 77
1, 242160, Note_on_c, 1, 60, 0
1, 242400, Note_on_c, 0, 77, 47
1, 242400, Note_on_c, 0, 69, 52
1, 242400, Note_on_c, 1, 47, 54
1, 242640, Note_on_c, 0, 77, 0
1, 242640, Note_on_c, 0, 69, 0
1, 242640, Note_on_c, 0, 76, 45
1, 242640, Note_on_c, 0, 67, 46
1, 242640, Note_on_c, 1, 47, 0
1, 242640, Note_on_c, 1, 48, 48
1, 242880, Note_on_c, 0, 76, 0
1, 242880, Note_on_c, 0, 67, 0
1, 242880, Note_on_c, 1, 48, 0
1, 243120, Note_on_c, 1, 35, 71
1, 243360, Note_on_c, 1, 35, 0
1, 243360, Note_on_c, 1, 36, 71
1, 243600, Note_on_c, 1, 36, 0
1, 244080, Note_on_c, 0, 82, 52
1, 244440, Note_on_c, 0, 82, 0
1, 244440, Note_on_c, 0, 82, 54
1, 244560, Note_on_c, 0, 82, 0
1, 244560, Note_on_c, 0, 82, 49
1, 244680, Note_on_c, 0, 82, 0
1, 244680, Note_on_c, 0, 82, 46
1, 244740, Note_on_c, 0, 82, 0
1, 244740, Note_on_c, 0, 84, 48
1, 244800, Note_on_c, 0, 84, 0
1, 244800, Note_on_c, 0, 86, 49
1, 245160, Note_on_c, 0, 86, 0
1, 245160, Note_on_c, 0, 84, 48
1, 245280, Note_on_c, 0, 84, 0
1, 245280, Note_on_c, 0, 82, 52
1, 245520, Note_on_c, 0, 82, 0
1, 245520, Note_on_c, 0, 82, 45
1, 245880, Note_on_c, 0, 82, 0
1, 245880, Note_on_c, 0, 82, 50
1, 246000, Note_on_c, 0, 82, 0
1, 246000, Note_on_c, 0, 82, 47
1, 246120, Note_on_c, 0, 82, 0
1, 246120, Note_on_c, 0, 82, 50
1, 246180, Note_on_c, 0, 82, 0
1, 246180, Note_on_c, 0, 84, 48
1, 246240, Note_on_c, 0, 84, 0
1, 246240, Note_on_c, 0, 86, 52
1, 246600, Note_on_c, 0, 86, 0
1, 246600, Note_on_c, 0, 84, 47
1, 246720, Note_on_c, 0, 84, 0
1, 246720, Note_on_c, 0, 82, 48
1, 246960, Note_on_c, 0, 82, 0
1, 246960, Note_on_c, 0, 81, 51
1, 246960, Note_on_c, 1, 65, 50
1, 247080, Note_on_c, 1, 65, 0
1, 247080, Note_on_c, 1, 72, 46
1, 247200, Note_on_c, 0, 81, 0
1, 247200, Note_on_c, 1, 72, 0
1, 247200, Note_on_c, 1, 69, 46
1, 247320, Note_on_c, 1, 69, 0
1, 247320, Note_on_c, 1, 72, 54
1, 247440, Note_on_c, 0, 81, 48
1, 247440, Note_on_c, 1, 72, 0
1, 247440, Note_on_c, 1, 65, 47
1, 247560, Note_on_c, 1, 65, 0
1, 247560, Note_on_c, 1, 72, 49
1, 247680, Note_on_c, 0, 81, 0
1, 247680, Note_on_c, 0, 84, 86
1, 247680, Note_on_c, 1, 72, 0
1, 247680, Note_on_c, 1, 64, 85
1, 247800, Note_on_c, 1, 64, 0
1, 247800, Note_on_c, 1, 72, 47
1, 247920, Note_on_c, 1, 72, 0
1, 247920, Note_on_c, 1, 67, 47
1, 248040, Note_on_c, 1, 67, 0
1, 248040, Note_on_c, 1, 72, 49
1, 248160, Note_on_c, 0, 84, 0
1, 248160, Note_on_c, 0, 82, 47
1, 248160, Note_on_c, 1, 72, 0
1, 248160, Note_on_c, 1, 64, 51
1, 248280, Note_on_c, 1, 64, 0
1, 248280, Note_on_c, 1, 72, 46
1, 248400, Note_on_c, 0, 82, 0
1, 248400, Note_on_c, 0, 81, 53
1, 248400, Note_on_c, 1, 72, 0
1, 248400, Note_on_c, 1, 65, 49
1, 248520, Note_on_c, 1, 65, 0
1, 248520, Note_on_c, 1, 72, 50
1, 248640, Note_on_c, 0, 81, 0
1, 248640, Note_on_c, 1, 72, 0
1, 248640, Note_on_c, 1, 69, 51
1, 248760, Note_on_c, 1, 69, 0
1, 248760, Note_on_c, 1, 72, 47
1, 248880, Note_on_c, 0, 81, 53
1, 248880, Note_on_c, 1, 72, 0
1, 248880, Note_on_c, 1, 65, 52
1, 249000, Note_on_c, 1, 65, 0
1, 249000, Note_on_c, 1, 72, 50
1, 249120, Note_on_c, 0, 81, 0
1, 249120, Note_on_c, 0, 84, 83
1, 249120, Note_on_c, 1, 72, 0
1, 249120, Note_on_c, 1, 64, 80
1, 249240, Note_on_c, 1, 64, 0
1, 249240, Note_on_c, 1, 72, 51
1, 249360, Note_on_c, 1, 72, 0
1, 249360, Note_on_c, 1, 67, 45
1, 249480, Note_on_c, 1, 67, 0
1, 249480, Note_on_c, 1, 72, 47
1, 249600, Note_on_c, 0, 84, 0
1, 249600, Note_on_c, 0, 82, 45
1, 249600, Note_on_c, 1, 72, 0
1, 249600, Note_on_c, 1, 64, 53
1, 249720, Note_on_c, 1, 64, 0
1, 249720, Note_on_c, 1, 72, 52
1, 249840, Note_on_c, 0, 82, 0
1, 249840, Note_on_c, 0, 81, 49
1, 249840, Note_on_c, 1, 72, 0
1, 249840, Note_on_c, 1, 65, 46
1, 249960, Note_on_c, 1, 65, 0
1, 249960, Note_on_c, 1, 69, 50
1, 250080, Note_on_c, 0, 81, 0
1, 250080, Note_on_c, 1, 69, 0
1, 250080, Note_on_c, 1, 72, 46
1, 250200, Note_on_c, 1, 72, 0
1, 250200, Note_on_c, 1, 77, 48
1, 250320, Note_on_c, 0, 81, 46
1, 250320, Note_on_c, 1, 77, 0
1, 250320, Note_on_c, 1, 76, 49
1, 250440, Note_on_c, 1, 76, 0
1, 250440, Note_on_c, 1, 77, 52
1, 250560, Note_on_c, 0, 81, 0
1, 250560, Note_on_c, 0, 84, 76
1, 250560, Note_on_c, 1, 77, 0
1, 250560, Note_on_c, 1, 77, 79
1, 250560, Note_on_c, 1, 74, 70
1, 250800, Note_on_c, 0, 84, 0
1, 250800, Note_on_c, 0, 82, 78
1, 251040, Note_on_c, 0, 82, 0
1, 251040, Note_on_c, 0, 81, 45
1, 251040, Note_on_c, 1, 77, 0
1, 251040, Note_on_c, 1, 74, 0
1, 251040, Note_on_c, 1, 76, 54
1, 251040, Note_on_c, 1, 72, 47
1, 251280, Note_on_c, 0, 81, 0
1, 251280, Note_on_c, 0, 81, 79
1, 251280, Note_on_c, 1, 76, 0
1, 251280, Note_on_c, 1, 72, 0
1, 251280, Note_on_c, 1, 70, 77
1, 251280, Note_on_c, 1, 74, 75
1, 251520, Note_on_c, 0, 81, 0
1, 251520, Note_on_c, 0, 79, 74
1, 251760, Note_on_c, 0, 79, 0
1, 251760, Note_on_c, 0, 77, 46
1, 251760, Note_on_c, 1, 70, 0
1, 251760, Note_on_c, 1, 74, 0
1, 251760, Note_on_c, 1, 71, 47
1, 252000, Note_on_c, 0, 77, 0
1, 252000, Note_on_c, 0, 79, 47
1, 252000, Note_on_c, 1, 71, 0
1, 252000, Note_on_c, 1, 72, 48
1, 252060, Note_on_c, 0, 79, 0
1, 252060, Note_on_c, 0, 77, 50
1, 252120, Note_on_c, 0, 77, 0
1, 252120, Note_on_c, 0, 79, 53
1, 252180, Note_on_c, 0, 79, 0
1, 252180, Note_on_c, 0, 77, 48
1, 252240, Note_on_c, 0, 77, 0
1, 252240, Note_on_c, 0, 79, 45
1, 252240, Note_on_c, 1, 72, 0
1, 252300, Note_on_c, 0, 79, 0
1, 252300, Note_on_c, 0, 77, 49
1, 252360, Note_on_c, 0, 77, 0
1, 252360, Note_on_c, 0, 79, 46
1, 252480, Note_on_c, 0, 79, 0
1, 252480, Note_on_c, 0, 76, 52
1, 252720, Note_on_c, 0, 76, 0
1, 252720, Note_on_c, 0, 70, 49
1, 252720, Note_on_c, 1, 55, 49
1, 253080, Note_on_c, 0, 70, 0
1, 253080, Note_on_c, 0, 70, 50
1, 253080, Note_on_c, 1, 55, 0
1, 253080, Note_on_c, 1, 55, 47
1, 253200, Note_on_c, 0, 70, 0
1, 253200, Note_on_c, 0, 70, 50
1, 253200, Note_on_c, 1, 55, 0
1, 253200, Note_on_c, 1, 55, 54
1, 253320, Note_on_c, 0, 70, 0
1, 253320, Note_on_c, 0, 70, 50
1, 253320, Note_on_c, 1, 55, 0
1, 253320, Note_on_c, 1, 55, 45
1, 253380, Note_on_c, 0, 70, 0
1, 253380, Note_on_c, 0, 72, 49
1, 253380, Note_on_c, 1, 55, 0
1, 253380, Note_on_c, 1, 57, 53
1, 253440, Note_on_c, 0, 72, 0
1, 253440, Note_on_c, 0, 74, 49
1, 253440, Note_on_c, 1, 57, 0
1, 253440, Note_on_c, 1, 58, 52
1, 253800, Note_on_c, 0, 74, 0
1, 253800, Note_on_c, 0, 72, 46
1, 253800, Note_on_c, 1, 58, 0
1, 253800, Note_on_c, 1, 57, 50
1, 253920, Note_on_c, 0, 72, 0
1, 253920, Note_on_c, 0, 70, 52
1, 253920, Note_on_c, 1, 57, 0
1, 253920, Note_on_c, 1, 55, 54
1, 254160, Note_on_c, 0, 70, 0
1, 254160, Note_on_c, 0, 70, 52
1, 254160, Note_on_c, 1, 55, 0
1, 254160, Note_on_c, 1, 55, 47
1, 254520, Note_on_c, 0, 70, 0
1, 254520, Note_on_c, 0, 70, 54
1, 254520, Note_on_c, 1, 55, 0
1, 254520, Note_on_c, 1, 55, 51
1, 254640, Note_on_c, 0, 70, 0
1, 254640, Note_on_c, 0, 70, 48
1, 254640, Note_on_c, 1, 55, 0
1, 254640, Note_on_c, 1, 55, 53
1, 254760, Note_on_c, 0, 70, 0
1, 254760, Note_on_c, 0, 70, 53
1, 254760, Note_on_c, 1, 55, 0
1, 254760, Note_on_c, 1, 55, 53
1, 254820, Note_on_c, 0, 70, 0
1, 254820, Note_on_c, 0, 72, 54
1, 254820, Note_on_c, 1, 55, 0
1, 254820, Note_on_c, 1, 57, 49
1, 254880, Note_on_c, 0, 72, 0
1, 254880, Note_on_c, 0, 74, 50
1, 254880, Note_on_c, 1, 57, 0
1, 254880, Note_on_c, 1, 58, 45
1, 255240, Note_on_c, 0, 74, 0
1, 255240, Note_on_c, 0, 72, 45
1, 255240, Note_on_c, 1, 58, 0
1, 255240, Note_on_c, 1, 57, 46
1, 255360, Note_on_c, 0, 72, 0
1, 255360, Note_on_c, 0, 70, 49
1, 255360, Note_on_c, 1, 57, 0
1, 255360, Note_on_c, 1, 55, 46
1, 255600, Note_on_c, 0, 70, 0
1, 255600, Note_on_c, 0, 69, 51
1, 255600, Note_on_c, 1, 55, 0
1, 255600, Note_on_c, 1, 53, 51
1, 255720, Note_on_c, 0, 69, 0
1, 255720, Note_on_c, 0, 65, 46
1, 255840, Note_on_c, 0, 65, 0
1, 255840, Note_on_c, 0, 60, 46
1, 255840, Note_on_c, 1, 53, 0
1, 255960, Note_on_c, 0, 60, 0
1, 255960, Note_on_c, 0, 65, 54
1, 256080, Note_on_c, 0, 65, 0
1, 256080, Note_on_c, 0, 69, 54
1, 256200, Note_on_c, 0, 69, 0
1, 256200, Note_on_c, 0, 65, 47
1, 256320, Note_on_c, 0, 65, 0
1, 256320, Note_on_c, 0, 72, 80
1, 256320, Note_on_c, 1, 52, 81
1, 256320, Note_on_c, 1, 40, 81
1, 256440, Note_on_c, 0, 72, 0
1, 256440, Note_on_c, 0, 60, 49
1, 256560, Note_on_c, 0, 60, 0
1, 256560, Note_on_c, 0, 71, 52
1, 256680, Note_on_c, 0, 71, 0
1, 256680, Note_on_c, 0, 60, 49
1, 256800, Note_on_c, 0, 60, 0
1, 256800, Note_on_c, 0, 70, 47
1, 256920, Note_on_c, 0, 70, 0
1, 256920, Note_on_c, 0, 60, 52
1, 257040, Note_on_c, 0, 60, 0
1, 257040, Note_on_c, 0, 69, 46
1, 257040, Note_on_c, 1, 52, 0
1, 257040, Note_on_c, 1, 40, 0
1, 257040, Note_on_c, 1, 41, 45
1, 257040, Note_on_c, 1, 53, 48
1, 257160, Note_on_c, 0, 69, 0
1, 257160, Note_on_c, 0, 65, 50
1, 257280, Note_on_c, 0, 65, 0
1, 257280, Note_on_c, 0, 60, 52
1, 257280, Note_on_c, 1, 41, 0
1, 257280, Note_on_c, 1, 53, 0
1, 257400, Note_on_c, 0, 60, 0
1, 257400, Note_on_c, 0, 65, 47
1, 257520, Note_on_c, 0, 65, 0
1, 257520, Note_on_c, 0, 69, 49
1, 257640, Note_on_c, 0, 69, 0
1, 257640, Note_on_c, 0, 60, 53
1, 257760, Note_on_c, 0, 60, 0
1, 257760, Note_on_c, 0, 72, 82
1, 257760, Note_on_c, 1, 52, 81
1, 257760, Note_on_c, 1, 40, 88
1, 257880, Note_on_c, 0, 72, 0
1, 257880, Note_on_c, 0, 60, 45
1, 258000, Note_on_c, 0, 60, 0
1, 258000, Note_on_c, 0, 71, 45
1, 258120, Note_on_c, 0, 71, 0
1, 258120, Note_on_c, 0, 60, 48
1, 258240, Note_on_c, 0, 60, 0
1, 258240, Note_on_c, 0, 70, 52
1, 258360, Note_on_c, 0, 70, 0
1, 258360, Note_on_c, 0, 60, 52
1, 258480, Note_on_c, 0, 60, 0
1, 258480, Note_on_c, 0, 69, 49
1, 258480, Note_on_c, 1, 52, 0
1, 258480, Note_on_c, 1, 40, 0
1, 258480, Note_on_c, 1, 41, 45
1, 258480, Note_on_c, 1, 53, 54
1, 258600, Note_on_c, 0, 69, 0
1, 258600, Note_on_c, 0, 72, 48
1, 258720, Note_on_c, 0, 72, 0
1, 258720, Note_on_c, 0, 77, 45
1, 258720, Note_on_c, 1, 41, 0
1, 258720, Note_on_c, 1, 53, 0
1, 258840, Note_on_c, 0, 77, 0
1, 258840, Note_on_c, 0, 76, 51
1, 258960, Note_on_c, 0, 76, 0
1, 258960, Note_on_c, 0, 74, 53
1, 259080, Note_on_c, 0, 74, 0
1, 259080, Note_on_c, 0, 72, 52
1, 259200, Note_on_c, 0, 72, 0
1, 259200, Note_on_c, 0, 70, 71
1, 259200, Note_on_c, 1, 62, 74
1, 259200, Note_on_c, 1, 65, 75
1, 259320, Note_on_c, 0, 70, 0
1, 259320, Note_on_c, 0, 72, 77
1, 259440, Note_on_c, 0, 72, 0
1, 259440, Note_on_c, 0, 74, 74
1, 259560, Note_on_c, 0, 74, 0
1, 259560, Note_on_c, 0, 70, 75
1, 259680, Note_on_c, 0, 70, 0
1, 259680, Note_on_c, 0, 68, 54
1, 259680, Note_on_c, 1, 62, 0
1, 259680, Note_on_c, 1, 65, 0
1, 259680, Note_on_c, 1, 64, 45
1, 259680, Note_on_c, 1, 60, 53
1, 259800, Note_on_c, 0, 68, 0
1, 259800, Note_on_c, 0, 69, 52
1, 259920, Note_on_c, 0, 69, 0
1, 259920, Note_on_c, 0, 67, 71
1, 259920, Note_on_c, 1, 64, 0
1, 259920, Note_on_c, 1, 60, 0
1, 259920, Note_on_c, 1, 58, 71
1, 259920, Note_on_c, 1, 62, 71
1, 260040, Note_on_c, 0, 67, 0
1, 260040, Note_on_c, 0, 69, 75
1, 260160, Note_on_c, 0, 69, 0
1, 260160, Note_on_c, 0, 70, 78
1, 260280, Note_on_c, 0, 70, 0
1, 260280, Note_on_c, 0, 67, 77
1, 260400, Note_on_c, 0, 67, 0
1, 260400, Note_on_c, 0, 64, 47
1, 260400, Note_on_c, 1, 58, 0
1, 260400, Note_on_c, 1, 62, 0
1, 260400, Note_on_c, 1, 60, 45
1, 260400, Note_on_c, 1, 57, 49
1, 260520, Note_on_c, 0, 64, 0
1, 260520, Note_on_c, 0, 65, 49
1, 260640, Note_on_c, 0, 65, 0
1, 260640, Note_on_c, 0, 67, 77
1, 260640, Note_on_c, 1, 60, 0
1, 260640, Note_on_c, 1, 57, 0
1, 260640, Note_on_c, 1, 58, 76
1, 260760, Note_on_c, 0, 67, 0
1, 260760, Note_on_c, 0, 70, 72
1, 260880, Note_on_c, 0, 70, 0
1, 260880, Note_on_c, 0, 69, 71
1, 260880, Note_on_c, 1, 58, 0
1, 260880, Note_on_c, 1, 60, 76
1, 261000, Note_on_c, 0, 69, 0
1, 261000, Note_on_c, 0, 65, 78
1, 261120, Note_on_c, 0, 65, 0
1, 261120, Note_on_c, 0, 64, 78
1, 261120, Note_on_c, 1, 60, 0
1, 261120, Note_on_c, 1, 48, 78
1, 261240, Note_on_c, 0, 64, 0
1, 261240, Note_on_c, 0, 67, 75
1, 261360, Note_on_c, 0, 67, 0
1, 261360, Note_on_c, 0, 65, 73
1, 261360, Note_on_c, 1, 48, 0
1, 261360, Note_on_c, 1, 53, 75
1, 261480, Note_on_c, 0, 65, 0
1, 261480, Note_on_c, 0, 67, 71
1, 261600, Note_on_c, 0, 67, 0
1, 261600, Note_on_c, 0, 69, 72
1, 261600, Note_on_c, 1, 53, 0
1, 261720, Note_on_c, 0, 69, 0
1, 261720, Note_on_c, 0, 65, 74
1, 261840, Note_on_c, 0, 65, 0
1, 261840, Note_on_c, 0, 62, 71
1, 261960, Note_on_c, 0, 62, 0
1, 261960, Note_on_c, 0, 60, 71
1, 262080, Note_on_c, 0, 60, 0
1, 262080, Note_on_c, 0, 58, 75
1, 262080, Note_on_c, 1, 53, 73
1, 262080, Note_on_c, 1, 50, 78
1, 262200, Note_on_c, 0, 58, 0
1, 262200, Note_on_c, 0, 60, 72
1, 262320, Note_on_c, 0, 60, 0
1, 262320, Note_on_c, 0, 62, 77
1, 262440, Note_on_c, 0, 62, 0
1, 262440, Note_on_c, 0, 58, 78
1, 262560, Note_on_c, 0, 58, 0
1, 262560, Note_on_c, 0, 56, 53
1, 262560, Note_on_c, 1, 53, 0
1, 262560, Note_on_c, 1, 50, 0
1, 262560, Note_on_c, 1, 52, 53
1, 262560, Note_on_c, 1, 48, 48
1, 262680, Note_on_c, 0, 56, 0
1, 262680, Note_on_c, 0, 57, 53
1, 262800, Note_on_c, 0, 57, 0
1, 262800, Note_on_c, 0, 55, 74
1, 262800, Note_on_c, 1, 52, 0
1, 262800, Note_on_c, 1, 48, 0
1, 262800, Note_on_c, 1, 46, 78
1, 262800, Note_on_c, 1, 50, 77
1, 262920, Note_on_c, 0, 55, 0
1, 262920, Note_on_c, 0, 57, 74
1, 263040, Note_on_c, 0, 57, 0
1, 263040, Note_on_c, 0, 58, 78
1, 263160, Note_on_c, 0, 58, 0
1, 263160, Note_on_c, 0, 55, 73
1, 263280, Note_on_c, 0, 55, 0
1, 263280, Note_on_c, 0, 52, 45
1, 263280, Note_on_c, 1, 46, 0
1, 263280, Note_on_c, 1, 50, 0
1, 263280, Note_on_c, 1, 48, 50
1, 263280, Note_on_c, 1, 45, 46
1, 263400, Note_on_c, 0, 52, 0
1, 263400, Note_on_c, 0, 53, 52
1, 263520, Note_on_c, 0, 53, 0
1, 263520, Note_on_c, 0, 55, 75
1, 263520, Note_on_c, 1, 48, 0
1, 263520, Note_on_c, 1, 45, 0
1, 263520, Note_on_c, 1, 46, 79
1, 263640, Note_on_c, 0, 55, 0
1, 263640, Note_on_c, 0, 58, 70
1, 263760, Note_on_c, 0, 58, 0
1, 263760, Note_on_c, 0, 57, 75
1, 263760, Note_on_c, 1, 46, 0
1, 263760, Note_on_c, 1, 48, 79
1, 263880, Note_on_c, 0, 57, 0
1, 263880, Note_on_c, 0, 53, 75
1, 264000, Note_on_c, 0, 53, 0
1, 264000, Note_on_c, 0, 52, 79
1, 264000, Note_on_c, 1, 48, 0
1, 264000, Note_on_c, 1, 36, 72
1, 264120, Note_on_c, 0, 52, 0
1, 264120, Note_on_c, 0, 55, 74
1, 264240, Note_on_c, 0, 55, 0
1, 264240, Note_on_c, 0, 53, 75
1, 264240, Note_on_c, 1, 36, 0
1, 264240, Note_on_c, 1, 41, 78
1, 264480, Note_on_c, 0, 53, 0
1, 264480, Note_on_c, 0, 72, 49
1, 264480, Note_on_c, 1, 41, 0
1, 264720, Note_on_c, 0, 72, 0
1, 264720, Note_on_c, 0, 69, 45
1, 264960, Note_on_c, 0, 69, 0
1, 264960, Note_on_c, 0, 65, 50
1, 265200, Note_on_c, 0, 65, 0
1, 265200, Note_on_c, 1, 57, 54
1, 265200, Note_on_c, 1, 63, 46
1, 265440, Note_on_c, 1, 57, 0
1, 265440, Note_on_c, 1, 63, 0
1, 265440, Note_on_c, 1, 57, 47
1, 265440, Note_on_c, 1, 63, 50
1, 265680, Note_on_c, 1, 57, 0
1, 265680, Note_on_c, 1, 63, 0
1, 265680, Note_on_c, 1, 58, 53
1, 265680, Note_on_c, 1, 62, 54
1, 265920, Note_on_c, 0, 77, 50
1, 265920, Note_on_c, 1, 58, 0
1, 265920, Note_on_c, 1, 62, 0
1, 266160, Note_on_c, 0, 77, 0
1, 266160, Note_on_c, 0, 74, 53
1, 266400, Note_on_c, 0, 74, 0
1, 266400, Note_on_c, 0, 70, 51
1, 266640, Note_on_c, 0, 70, 0
1, 266640, Note_on_c, 1, 65, 46
1, 266640, Note_on_c, 1, 62, 46
1, 266880, Note_on_c, 1, 65, 0
1, 266880, Note_on_c, 1, 62, 0
1, 266880, Note_on_c, 1, 62, 47
1, 266880, Note_on_c, 1, 65, 48
1, 267120, Note_on_c, 1, 62, 0
1, 267120, Note_on_c, 1, 65, 0
1, 267120, Note_on_c, 1, 60, 47
1, 267120, Note_on_c, 1, 64, 50
1, 267360, Note_on_c, 0, 82, 50
1, 267360, Note_on_c, 1, 60, 0
1, 267360, Note_on_c, 1, 64, 0
1, 267600, Note_on_c, 0, 82, 0
1, 267600, Note_on_c, 0, 79, 54
1, 267840, Note_on_c, 0, 79, 0
1, 267840, Note_on_c, 0, 76, 51
1, 268080, Note_on_c, 0, 76, 0
1, 268080, Note_on_c, 1, 60, 49
1, 268080, Note_on_c, 1, 70, 46
1, 268320, Note_on_c, 1, 60, 0
1, 268320, Note_on_c, 1, 70, 0
1, 268320, Note_on_c, 1, 70, 45
1, 268320, Note_on_c, 1, 60, 46
1, 268560, Note_on_c, 1, 70, 0
1, 268560, Note_on_c, 1, 60, 0
1, 268560, Note_on_c, 1, 69, 75
1, 268560, Note_on_c, 1, 65, 74
1, 268680, Note_on_c, 0, 77, 79
1, 268800, Note_on_c, 0, 77, 0
1, 268800, Note_on_c, 0, 76, 72
1, 268800, Note_on_c, 1, 69, 0
1, 268800, Note_on_c, 1, 65, 0
1, 268920, Note_on_c, 0, 76, 0
1, 268920, Note_on_c, 0, 77, 78
1, 269040, Note_on_c, 0, 77, 0
1, 269040, Note_on_c, 0, 81, 75
1, 269160, Note_on_c, 0, 81, 0
1, 269160, Note_on_c, 0, 84, 78
1, 269280, Note_on_c, 0, 84, 0
1, 269280, Note_on_c, 1, 70, 77
1, 269280, Note_on_c, 1, 67, 77
1, 269280, Note_on_c, 1, 60, 74
1, 269400, Note_on_c, 0, 82, 75
1, 269520, Note_on_c, 0, 82, 0
1, 269520, Note_on_c, 0, 81, 70
1, 269520, Note_on_c, 1, 70, 0
1, 269520, Note_on_c, 1, 60, 0
1, 269520, Note_on_c, 1, 67, 0
1, 269640, Note_on_c, 0, 81, 0
1, 269640, Note_on_c, 0, 82, 72
1, 269760, Note_on_c, 0, 82, 0
1, 269760, Note_on_c, 0, 79, 73
1, 269880, Note_on_c, 0, 79, 0
1, 269880, Note_on_c, 0, 76, 70
1, 270000, Note_on_c, 0, 76, 0
1, 270000, Note_on_c, 1, 65, 79
1, 270000, Note_on_c, 1, 69, 73
1, 270120, Note_on_c, 0, 77, 76
1, 270240, Note_on_c, 0, 77, 0
1, 270240, Note_on_c, 0, 76, 77
1, 270240, Note_on_c, 1, 65, 0
1, 270240, Note_on_c, 1, 69, 0
1, 270360, Note_on_c, 0, 76, 0
1, 270360, Note_on_c, 0, 77, 73
1, 270480, Note_on_c, 0, 77, 0
1, 270480, Note_on_c, 0, 72, 74
1, 270600, Note_on_c, 0, 72, 0
1, 270600, Note_on_c, 0, 69, 79
1, 270720, Note_on_c, 0, 69, 0
1, 270720, Note_on_c, 1, 52, 72
1, 270720, Note_on_c, 1, 55, 73
1, 270720, Note_on_c, 1, 48, 70
1, 270840, Note_on_c, 0, 70, 76
1, 270960, Note_on_c, 0, 70, 0
1, 270960, Note_on_c, 0, 69, 72
1, 270960, Note_on_c, 1, 52, 0
1, 270960, Note_on_c, 1, 48, 0
1, 270960, Note_on_c, 1, 55, 0
1, 271080, Note_on_c, 0, 69, 0
1, 271080, Note_on_c, 0, 70, 71
1, 271200, Note_on_c, 0, 70, 0
1, 271200, Note_on_c, 0, 67, 77
1, 271320, Note_on_c, 0, 67, 0
1, 271320, Note_on_c, 0, 64, 76
1, 271440, Note_on_c, 0, 64, 0
1, 271440, Note_on_c, 0, 65, 70
1, 271440, Note_on_c, 1, 41, 72
1, 271560, Note_on_c, 1, 41, 0
1, 271560, Note_on_c, 1, 53, 72
1, 271680, Note_on_c, 1, 53, 0
1, 271680, Note_on_c, 1, 52, 73
1, 271800, Note_on_c, 1, 52, 0
1, 271800, Note_on_c, 1, 53, 75
1, 271920, Note_on_c, 0, 65, 0
1, 271920, Note_on_c, 1, 53, 0
1, 271920, Note_on_c, 1, 55, 77
1, 272040, Note_on_c, 1, 55, 0
1, 272040, Note_on_c, 1, 53, 70
1, 272160, Note_on_c, 0, 72, 78
1, 272160, Note_on_c, 0, 69, 70
1, 272160, Note_on_c, 0, 65, 72
1, 272160, Note_on_c, 1, 53, 0
1, 272160, Note_on_c, 1, 57, 76
1, 272280, Note_on_c, 1, 57, 0
1, 272280, Note_on_c, 1, 53, 76
1, 272400, Note_on_c, 1, 53, 0
1, 272400, Note_on_c, 1, 48, 78
1, 272520, Note_on_c, 1, 48, 0
1, 272520, Note_on_c, 1, 53, 79
1, 272640, Note_on_c, 0, 72, 0
1, 272640, Note_on_c, 0, 65, 0
1, 272640, Note_on_c, 0, 69, 0
1, 272640, Note_on_c, 1, 53, 0
1, 272640, Note_on_c, 1, 45, 74
1, 272760, Note_on_c, 1, 45, 0
1, 272760, Note_on_c, 1, 48, 71
1, 272880, Note_on_c, 0, 72, 71
1, 272880, Note_on_c, 0, 69, 78
1, 272880, Note_on_c, 0, 77, 71
1, 272880, Note_on_c, 1, 48, 0
1, 272880, Note_on_c, 1, 41, 76
1, 273120, Note_on_c, 0, 72, 0
1, 273120, Note_on_c, 0, 77, 0
1, 273120, Note_on_c, 0, 69, 0
1, 273120, Note_on_c, 0, 72, 77
1, 273120, Note_on_c, 0, 69, 77
1, 273120, Note_on_c, 0, 77, 75
1, 273120, Note_on_c, 1, 41, 0
1, 273120, Note_on_c, 1, 45, 78
1, 273360, Note_on_c, 0, 72, 0
1, 273360, Note_on_c, 0, 77, 0
1, 273360, Note_on_c, 0, 69, 0
1, 273360, Note_on_c, 0, 72, 75
1, 273360, Note_on_c, 0, 77, 70
1, 273360, Note_on_c, 0, 69, 74
1, 273360, Note_on_c, 1, 45, 0
1, 273360, Note_on_c, 1, 48, 70
1, 273600, Note_on_c, 0, 72, 0
1, 273600, Note_on_c, 0, 69, 0
1, 273600, Note_on_c, 0, 77, 0
1, 273600, Note_on_c, 0, 72, 76
1, 273600, Note_on_c, 0, 77, 79
1, 273600, Note_on_c, 0, 69, 79
1, 273600, Note_on_c, 1, 48, 0
1, 273600, Note_on_c, 1, 41, 74
1, 273840, Note_on_c, 0, 72, 0
1, 273840, Note_on_c, 0, 69, 0
1, 273840, Note_on_c, 0, 77, 0
1, 273840, Note_on_c, 1, 41, 0
1, 273850, End_track
0, 0, End_of_file