0, 0, Header, 0, 1, 120
1, 0, Start_track
1, 0, Tempo, 400000
1, 361, Note_on_c, 0, 72, 76
1, 481, Note_on_c, 0, 72, 0
1, 481, Note_on_c, 0, 70, 60
1, 541, Note_on_c, 0, 69, 55
1, 543, Note_on_c, 0, 70, 0
1, 601, Note_on_c, 0, 67, 64
1, 603, Note_on_c, 0, 69, 0
1, 659, Note_on_c, 0, 67, 0
1, 661, Note_on_c, 0, 65, 60
1, 719, Note_on_c, 0, 65, 0
1, 720, Note_on_c, 0, 69, 64
1, 771, Note_on_c, 0, 69, 0
1, 779, Note_on_c, 0, 67, 62
1, 837, Note_on_c, 0, 67, 0
1, 839, Note_on_c, 0, 70, 53
1, 899, Note_on_c, 0, 64, 56
1, 904, Note_on_c, 0, 70, 0
1, 951, Note_on_c, 0, 64, 0
1, 959, Note_on_c, 0, 65, 76
1, 983, Note_on_c, 0, 65, 0
1, 1079, Note_on_c, 0, 60, 68
1, 1105, Note_on_c, 0, 60, 0
1, 1199, Note_on_c, 0, 72, 76
1, 1423, Note_on_c, 0, 72, 0
1, 1439, Note_on_c, 0, 70, 64
1, 1499, Note_on_c, 0, 69, 64
1, 1503, Note_on_c, 0, 70, 0
1, 1559, Note_on_c, 0, 67, 64
1, 1560, Note_on_c, 0, 69, 0
1, 1619, Note_on_c, 0, 67, 0
1, 1619, Note_on_c, 0, 65, 62
1, 1679, Note_on_c, 0, 69, 64
1, 1682, Note_on_c, 0, 65, 0
1, 1733, Note_on_c, 0, 69, 0
1, 1739, Note_on_c, 0, 67, 59
1, 1799, Note_on_c, 0, 70, 62
1, 1803, Note_on_c, 0, 67, 0
1, 1859, Note_on_c, 0, 64, 62
1, 1860, Note_on_c, 0, 70, 0
1, 1912, Note_on_c, 0, 64, 0
1, 1919, Note_on_c, 0, 65, 57
1, 1920, Note_on_c, 1, 53, 70
1, 1920, Note_on_c, 1, 57, 59
1, 1979, Note_on_c, 1, 57, 0
1, 1979, Note_on_c, 1, 60, 57
1, 2037, Note_on_c, 1, 60, 0
1, 2039, Note_on_c, 1, 57, 62
1, 2097, Note_on_c, 1, 57, 0
1, 2099, Note_on_c, 1, 60, 45
1, 2159, Note_on_c, 1, 60, 0
1, 2159, Note_on_c, 1, 57, 57
1, 2216, Note_on_c, 1, 57, 0
1, 2219, Note_on_c, 1, 60, 49
1, 2277, Note_on_c, 1, 60, 0
1, 2280, Note_on_c, 1, 57, 48
1, 2339, Note_on_c, 1, 60, 48
1, 2340, Note_on_c, 1, 57, 0
1, 2390, Note_on_c, 0, 65, 0
1, 2399, Note_on_c, 1, 60, 0
1, 2399, Note_on_c, 1, 53, 0
1, 2399, Note_on_c, 1, 53, 70
1, 2399, Note_on_c, 1, 58, 59
1, 2400, Note_on_c, 0, 66, 72
1, 2459, Note_on_c, 0, 67, 64
1, 2459, Note_on_c, 1, 60, 68
1, 2460, Note_on_c, 0, 66, 0
1, 2460, Note_on_c, 1, 58, 0
1, 2516, Note_on_c, 1, 60, 0
1, 2519, Note_on_c, 0, 69, 89
1, 2519, Note_on_c, 1, 58, 47
1, 2524, Note_on_c, 0, 67, 0
1, 2574, Note_on_c, 1, 58, 0
1, 2579, Note_on_c, 0, 70, 64
1, 2579, Note_on_c, 1, 60, 62
1, 2587, Note_on_c, 0, 69, 0
1, 2639, Note_on_c, 1, 58, 56
1, 2641, Note_on_c, 0, 70, 0
1, 2641, Note_on_c, 0, 72, 76
1, 2646, Note_on_c, 1, 60, 0
1, 2698, Note_on_c, 1, 58, 0
1, 2699, Note_on_c, 1, 60, 64
1, 2701, Note_on_c, 0, 73, 76
1, 2702, Note_on_c, 0, 72, 0
1, 2756, Note_on_c, 1, 60, 0
1, 2759, Note_on_c, 0, 74, 80
1, 2759, Note_on_c, 1, 58, 46
1, 2760, Note_on_c, 0, 73, 0
1, 2817, Note_on_c, 1, 58, 0
1, 2819, Note_on_c, 0, 76, 89
1, 2819, Note_on_c, 1, 60, 55
1, 2821, Note_on_c, 0, 74, 0
1, 2848, Note_on_c, 1, 53, 0
1, 2874, Note_on_c, 1, 60, 0
1, 2880, Note_on_c, 0, 76, 0
1, 2880, Note_on_c, 1, 53, 70
1, 2880, Note_on_c, 1, 57, 56
1, 2881, Note_on_c, 0, 79, 76
1, 2933, Note_on_c, 1, 57, 0
1, 2939, Note_on_c, 1, 60, 57
1, 2941, Note_on_c, 0, 77, 64
1, 2957, Note_on_c, 0, 79, 0
1, 2999, Note_on_c, 1, 57, 56
1, 3001, Note_on_c, 0, 76, 64
1, 3001, Note_on_c, 1, 60, 0
1, 3012, Note_on_c, 0, 77, 0
1, 3052, Note_on_c, 1, 57, 0
1, 3059, Note_on_c, 0, 74, 72
1, 3059, Note_on_c, 1, 60, 51
1, 3060, Note_on_c, 0, 76, 0
1, 3102, Note_on_c, 0, 74, 0
1, 3115, Note_on_c, 1, 60, 0
1, 3119, Note_on_c, 0, 74, 72
1, 3121, Note_on_c, 1, 57, 44
1, 3169, Note_on_c, 1, 57, 0
1, 3179, Note_on_c, 0, 74, 0
1, 3179, Note_on_c, 0, 72, 56
1, 3179, Note_on_c, 1, 60, 50
1, 3235, Note_on_c, 1, 60, 0
1, 3239, Note_on_c, 1, 57, 44
1, 3241, Note_on_c, 0, 70, 57
1, 3253, Note_on_c, 0, 72, 0
1, 3295, Note_on_c, 1, 57, 0
1, 3296, Note_on_c, 0, 70, 0
1, 3299, Note_on_c, 0, 69, 72
1, 3299, Note_on_c, 1, 60, 51
1, 3316, Note_on_c, 1, 53, 0
1, 3358, Note_on_c, 1, 60, 0
1, 3359, Note_on_c, 1, 53, 70
1, 3359, Note_on_c, 1, 58, 49
1, 3360, Note_on_c, 0, 69, 0
1, 3361, Note_on_c, 0, 67, 60
1, 3361, Note_on_c, 0, 64, 60
1, 3418, Note_on_c, 1, 58, 0
1, 3419, Note_on_c, 1, 60, 59
1, 3479, Note_on_c, 1, 58, 55
1, 3481, Note_on_c, 0, 69, 62
1, 3481, Note_on_c, 1, 60, 0
1, 3485, Note_on_c, 0, 67, 0
1, 3511, Note_on_c, 0, 69, 0
1, 3511, Note_on_c, 0, 67, 68
1, 3539, Note_on_c, 1, 58, 0
1, 3539, Note_on_c, 1, 60, 60
1, 3541, Note_on_c, 0, 67, 0
1, 3541, Note_on_c, 0, 66, 57
1, 3600, Note_on_c, 1, 60, 0
1, 3601, Note_on_c, 0, 66, 0
1, 3601, Note_on_c, 0, 67, 68
1, 3601, Note_on_c, 1, 58, 48
1, 3660, Note_on_c, 1, 58, 0
1, 3661, Note_on_c, 1, 60, 57
1, 3713, Note_on_c, 0, 67, 0
1, 3716, Note_on_c, 1, 60, 0
1, 3721, Note_on_c, 0, 72, 68
1, 3721, Note_on_c, 1, 58, 50
1, 3781, Note_on_c, 1, 58, 0
1, 3781, Note_on_c, 1, 60, 53
1, 3831, Note_on_c, 1, 60, 0
1, 3834, Note_on_c, 0, 72, 0
1, 3834, Note_on_c, 0, 64, 0
1, 3839, Note_on_c, 0, 65, 59
1, 3839, Note_on_c, 1, 57, 56
1, 4082, Note_on_c, 1, 57, 0
1, 4083, Note_on_c, 1, 53, 0
1, 4090, Note_on_c, 0, 65, 0
1, 4199, Note_on_c, 1, 60, 68
1, 4319, Note_on_c, 1, 60, 0
1, 4321, Note_on_c, 1, 58, 62
1, 4376, Note_on_c, 1, 58, 0
1, 4379, Note_on_c, 1, 57, 72
1, 4439, Note_on_c, 1, 57, 0
1, 4440, Note_on_c, 1, 55, 56
1, 4499, Note_on_c, 1, 53, 62
1, 4502, Note_on_c, 1, 55, 0
1, 4560, Note_on_c, 1, 57, 64
1, 4567, Note_on_c, 1, 53, 0
1, 4615, Note_on_c, 1, 57, 0
1, 4619, Note_on_c, 1, 55, 57
1, 4679, Note_on_c, 1, 58, 56
1, 4685, Note_on_c, 1, 55, 0
1, 4732, Note_on_c, 1, 58, 0
1, 4739, Note_on_c, 1, 52, 59
1, 4799, Note_on_c, 1, 52, 0
1, 4799, Note_on_c, 1, 53, 72
1, 4824, Note_on_c, 1, 53, 0
1, 4919, Note_on_c, 1, 48, 62
1, 4948, Note_on_c, 1, 48, 0
1, 5039, Note_on_c, 1, 60, 76
1, 5279, Note_on_c, 1, 58, 59
1, 5281, Note_on_c, 1, 60, 0
1, 5339, Note_on_c, 1, 57, 62
1, 5345, Note_on_c, 1, 58, 0
1, 5399, Note_on_c, 1, 57, 0
1, 5399, Note_on_c, 1, 55, 56
1, 5459, Note_on_c, 1, 53, 60
1, 5462, Note_on_c, 1, 55, 0
1, 5519, Note_on_c, 1, 57, 62
1, 5524, Note_on_c, 1, 53, 0
1, 5571, Note_on_c, 1, 57, 0
1, 5579, Note_on_c, 1, 55, 52
1, 5639, Note_on_c, 1, 58, 59
1, 5648, Note_on_c, 1, 55, 0
1, 5699, Note_on_c, 1, 52, 55
1, 5703, Note_on_c, 1, 58, 0
1, 5758, Note_on_c, 1, 52, 0
1, 5759, Note_on_c, 1, 53, 55
1, 5760, Note_on_c, 0, 72, 62
1, 5821, Note_on_c, 0, 84, 55
1, 5834, Note_on_c, 0, 72, 0
1, 5876, Note_on_c, 0, 84, 0
1, 5881, Note_on_c, 0, 81, 51
1, 5941, Note_on_c, 0, 81, 0
1, 5941, Note_on_c, 0, 84, 53
1, 5998, Note_on_c, 0, 84, 0
1, 6001, Note_on_c, 0, 72, 60
1, 6060, Note_on_c, 0, 72, 0
1, 6061, Note_on_c, 0, 84, 57
1, 6111, Note_on_c, 0, 84, 0
1, 6121, Note_on_c, 0, 81, 59
1, 6179, Note_on_c, 0, 81, 0
1, 6181, Note_on_c, 0, 84, 56
1, 6191, Note_on_c, 1, 53, 0
1, 6239, Note_on_c, 1, 54, 62
1, 6240, Note_on_c, 0, 72, 59
1, 6241, Note_on_c, 0, 84, 0
1, 6301, Note_on_c, 0, 84, 60
1, 6301, Note_on_c, 1, 55, 72
1, 6302, Note_on_c, 1, 54, 0
1, 6303, Note_on_c, 0, 72, 0
1, 6359, Note_on_c, 0, 84, 0
1, 6360, Note_on_c, 0, 82, 56
1, 6361, Note_on_c, 1, 57, 80
1, 6372, Note_on_c, 1, 55, 0
1, 6418, Note_on_c, 0, 82, 0
1, 6419, Note_on_c, 0, 84, 62
1, 6419, Note_on_c, 1, 58, 72
1, 6420, Note_on_c, 1, 57, 0
1, 6477, Note_on_c, 0, 84, 0
1, 6478, Note_on_c, 1, 58, 0
1, 6479, Note_on_c, 1, 60, 64
1, 6481, Note_on_c, 0, 72, 55
1, 6534, Note_on_c, 1, 60, 0
1, 6539, Note_on_c, 1, 61, 76
1, 6541, Note_on_c, 0, 84, 64
1, 6542, Note_on_c, 0, 72, 0
1, 6599, Note_on_c, 1, 62, 76
1, 6601, Note_on_c, 0, 82, 57
1, 6602, Note_on_c, 1, 61, 0
1, 6603, Note_on_c, 0, 84, 0
1, 6657, Note_on_c, 0, 82, 0
1, 6658, Note_on_c, 1, 62, 0
1, 6659, Note_on_c, 1, 64, 85
1, 6661, Note_on_c, 0, 84, 55
1, 6716, Note_on_c, 0, 84, 0
1, 6716, Note_on_c, 1, 64, 0
1, 6719, Note_on_c, 1, 67, 76
1, 6721, Note_on_c, 0, 72, 52
1, 6779, Note_on_c, 0, 84, 64
1, 6779, Note_on_c, 1, 65, 72
1, 6780, Note_on_c, 0, 72, 0
1, 6790, Note_on_c, 1, 67, 0
1, 6837, Note_on_c, 0, 84, 0
1, 6839, Note_on_c, 0, 81, 62
1, 6840, Note_on_c, 1, 64, 62
1, 6847, Note_on_c, 1, 65, 0
1, 6898, Note_on_c, 0, 81, 0
1, 6899, Note_on_c, 0, 84, 57
1, 6901, Note_on_c, 1, 62, 72
1, 6911, Note_on_c, 1, 64, 0
1, 6933, Note_on_c, 1, 62, 0
1, 6956, Note_on_c, 0, 84, 0
1, 6961, Note_on_c, 0, 72, 57
1, 6961, Note_on_c, 1, 62, 62
1, 7020, Note_on_c, 1, 60, 64
1, 7021, Note_on_c, 0, 84, 60
1, 7022, Note_on_c, 1, 62, 0
1, 7024, Note_on_c, 0, 72, 0
1, 7075, Note_on_c, 0, 84, 0
1, 7080, Note_on_c, 1, 58, 55
1, 7081, Note_on_c, 0, 81, 60
1, 7088, Note_on_c, 1, 60, 0
1, 7138, Note_on_c, 1, 58, 0
1, 7139, Note_on_c, 0, 81, 0
1, 7139, Note_on_c, 0, 84, 59
1, 7139, Note_on_c, 1, 57, 62
1, 7199, Note_on_c, 0, 84, 0
1, 7199, Note_on_c, 0, 78, 62
1, 7200, Note_on_c, 1, 58, 59
1, 7205, Note_on_c, 1, 57, 0
1, 7259, Note_on_c, 0, 79, 64
1, 7259, Note_on_c, 1, 64, 62
1, 7260, Note_on_c, 1, 58, 0
1, 7261, Note_on_c, 0, 78, 0
1, 7313, Note_on_c, 1, 64, 0
1, 7319, Note_on_c, 1, 60, 55
1, 7321, Note_on_c, 0, 81, 85
1, 7332, Note_on_c, 0, 79, 0
1, 7379, Note_on_c, 1, 60, 0
1, 7379, Note_on_c, 1, 64, 60
1, 7381, Note_on_c, 0, 82, 72
1, 7388, Note_on_c, 0, 81, 0
1, 7436, Note_on_c, 1, 64, 0
1, 7440, Note_on_c, 0, 82, 0
1, 7441, Note_on_c, 0, 84, 76
1, 7441, Note_on_c, 1, 58, 56
1, 7496, Note_on_c, 1, 58, 0
1, 7499, Note_on_c, 0, 84, 0
1, 7499, Note_on_c, 0, 85, 72
1, 7499, Note_on_c, 1, 67, 62
1, 7554, Note_on_c, 1, 67, 0
1, 7559, Note_on_c, 0, 86, 85
1, 7559, Note_on_c, 1, 60, 62
1, 7563, Note_on_c, 0, 85, 0
1, 7617, Note_on_c, 0, 86, 0
1, 7619, Note_on_c, 0, 88, 72
1, 7619, Note_on_c, 1, 67, 51
1, 7626, Note_on_c, 1, 60, 0
1, 7674, Note_on_c, 1, 67, 0
1, 7681, Note_on_c, 0, 89, 80
1, 7684, Note_on_c, 0, 88, 0
1, 7712, Note_on_c, 0, 89, 0
1, 7741, Note_on_c, 0, 77, 60
1, 7764, Note_on_c, 0, 77, 0
1, 7801, Note_on_c, 0, 89, 67
1, 7801, Note_on_c, 1, 69, 49
1, 7801, Note_on_c, 1, 72, 55
1, 7858, Note_on_c, 1, 72, 0
1, 7861, Note_on_c, 0, 88, 72
1, 7861, Note_on_c, 1, 70, 67
1, 7861, Note_on_c, 1, 67, 50
1, 7866, Note_on_c, 1, 69, 0
1, 7869, Note_on_c, 0, 89, 0
1, 7906, Note_on_c, 1, 67, 0
1, 7912, Note_on_c, 1, 70, 0
1, 7919, Note_on_c, 1, 65, 62
1, 7920, Note_on_c, 1, 69, 68
1, 7921, Note_on_c, 0, 86, 91
1, 7926, Note_on_c, 0, 88, 0
1, 7942, Note_on_c, 0, 86, 0
1, 7943, Note_on_c, 1, 69, 0
1, 7953, Note_on_c, 1, 65, 0
1, 7980, Note_on_c, 0, 74, 76
1, 8002, Note_on_c, 0, 74, 0
1, 8041, Note_on_c, 0, 86, 81
1, 8041, Note_on_c, 1, 65, 61
1, 8041, Note_on_c, 1, 69, 67
1, 8096, Note_on_c, 1, 69, 0
1, 8097, Note_on_c, 1, 65, 0
1, 8101, Note_on_c, 0, 84, 60
1, 8101, Note_on_c, 1, 67, 54
1, 8101, Note_on_c, 1, 64, 37
1, 8107, Note_on_c, 0, 86, 0
1, 8137, Note_on_c, 1, 64, 0
1, 8149, Note_on_c, 1, 67, 0
1, 8161, Note_on_c, 0, 84, 0
1, 8161, Note_on_c, 0, 82, 74
1, 8161, Note_on_c, 1, 62, 55
1, 8161, Note_on_c, 1, 65, 68
1, 8183, Note_on_c, 0, 82, 0
1, 8188, Note_on_c, 1, 65, 0
1, 8194, Note_on_c, 1, 62, 0
1, 8219, Note_on_c, 0, 70, 72
1, 8240, Note_on_c, 0, 70, 0
1, 8280, Note_on_c, 0, 82, 76
1, 8281, Note_on_c, 1, 62, 66
1, 8281, Note_on_c, 1, 65, 67
1, 8333, Note_on_c, 1, 62, 0
1, 8335, Note_on_c, 0, 82, 0
1, 8339, Note_on_c, 0, 81, 86
1, 8339, Note_on_c, 1, 65, 0
1, 8339, Note_on_c, 1, 60, 61
1, 8339, Note_on_c, 1, 64, 68
1, 8372, Note_on_c, 1, 60, 0
1, 8384, Note_on_c, 1, 64, 0
1, 8397, Note_on_c, 0, 81, 0
1, 8399, Note_on_c, 0, 79, 86
1, 8401, Note_on_c, 1, 58, 45
1, 8401, Note_on_c, 1, 62, 81
1, 8419, Note_on_c, 0, 79, 0
1, 8421, Note_on_c, 1, 62, 0
1, 8429, Note_on_c, 1, 58, 0
1, 8459, Note_on_c, 0, 67, 70
1, 8479, Note_on_c, 0, 67, 0
1, 8519, Note_on_c, 0, 79, 96
1, 8520, Note_on_c, 1, 58, 66
1, 8521, Note_on_c, 1, 62, 81
1, 8578, Note_on_c, 1, 58, 0
1, 8579, Note_on_c, 0, 77, 76
1, 8579, Note_on_c, 1, 62, 0
1, 8579, Note_on_c, 1, 60, 76
1, 8579, Note_on_c, 1, 57, 67
1, 8589, Note_on_c, 0, 79, 0
1, 8615, Note_on_c, 0, 77, 0
1, 8616, Note_on_c, 1, 57, 0
1, 8624, Note_on_c, 1, 60, 0
1, 8639, Note_on_c, 0, 77, 91
1, 8639, Note_on_c, 1, 58, 56
1, 8639, Note_on_c, 1, 55, 62
1, 8881, Note_on_c, 0, 76, 56
1, 8889, Note_on_c, 0, 77, 0
1, 9009, Note_on_c, 1, 58, 0
1, 9015, Note_on_c, 1, 55, 0
1, 9024, Note_on_c, 0, 76, 0
1, 9119, Note_on_c, 1, 58, 60
1, 9121, Note_on_c, 1, 52, 60
1, 9239, Note_on_c, 0, 81, 57
1, 9300, Note_on_c, 0, 79, 60
1, 9314, Note_on_c, 0, 81, 0
1, 9360, Note_on_c, 0, 77, 60
1, 9368, Note_on_c, 0, 79, 0
1, 9419, Note_on_c, 0, 76, 56
1, 9423, Note_on_c, 0, 77, 0
1, 9479, Note_on_c, 0, 76, 0
1, 9479, Note_on_c, 0, 74, 55
1, 9538, Note_on_c, 0, 74, 0
1, 9539, Note_on_c, 0, 72, 62
1, 9576, Note_on_c, 0, 72, 0
1, 9597, Note_on_c, 1, 58, 0
1, 9599, Note_on_c, 0, 72, 62
1, 9599, Note_on_c, 1, 57, 64
1, 9599, Note_on_c, 1, 53, 56
1, 9602, Note_on_c, 1, 52, 0
1, 9656, Note_on_c, 0, 72, 0
1, 9661, Note_on_c, 0, 77, 68
1, 9721, Note_on_c, 0, 76, 64
1, 9738, Note_on_c, 0, 77, 0
1, 9781, Note_on_c, 0, 75, 59
1, 9786, Note_on_c, 0, 76, 0
1, 9835, Note_on_c, 1, 53, 0
1, 9837, Note_on_c, 1, 57, 0
1, 9839, Note_on_c, 1, 55, 57
1, 9840, Note_on_c, 0, 75, 0
1, 9841, Note_on_c, 0, 73, 55
1, 9841, Note_on_c, 1, 46, 60
1, 9897, Note_on_c, 0, 73, 0
1, 9901, Note_on_c, 0, 74, 62
1, 9961, Note_on_c, 0, 70, 55
1, 9965, Note_on_c, 0, 74, 0
1, 10012, Note_on_c, 0, 70, 0
1, 10020, Note_on_c, 0, 67, 57
1, 10058, Note_on_c, 1, 55, 0
1, 10065, Note_on_c, 1, 46, 0
1, 10075, Note_on_c, 0, 67, 0
1, 10079, Note_on_c, 0, 65, 57
1, 10199, Note_on_c, 1, 57, 60
1, 10199, Note_on_c, 1, 48, 53
1, 10301, Note_on_c, 0, 65, 0
1, 10319, Note_on_c, 0, 67, 64
1, 10319, Note_on_c, 1, 58, 62
1, 10320, Note_on_c, 0, 67, 68
1, 10322, Note_on_c, 1, 57, 0
1, 10349, Note_on_c, 0, 67, 0
1, 10349, Note_on_c, 0, 67, 0
1, 10351, Note_on_c, 0, 65, 59
1, 10379, Note_on_c, 0, 64, 76
1, 10381, Note_on_c, 0, 65, 0
1, 10409, Note_on_c, 0, 65, 85
1, 10412, Note_on_c, 0, 64, 0
1, 10424, Note_on_c, 0, 65, 0
1, 10440, Note_on_c, 0, 69, 85
1, 10497, Note_on_c, 0, 69, 0
1, 10499, Note_on_c, 0, 67, 76
1, 10543, Note_on_c, 1, 58, 0
1, 10543, Note_on_c, 1, 48, 0
1, 10549, Note_on_c, 0, 67, 0
1, 10559, Note_on_c, 1, 59, 72
1, 10559, Note_on_c, 1, 50, 76
1, 10559, Note_on_c, 1, 53, 68
1, 10560, Note_on_c, 0, 65, 64
1, 10619, Note_on_c, 0, 81, 80
1, 10620, Note_on_c, 0, 65, 0
1, 10679, Note_on_c, 0, 79, 59
1, 10685, Note_on_c, 0, 81, 0
1, 10739, Note_on_c, 0, 77, 55
1, 10755, Note_on_c, 0, 79, 0
1, 10799, Note_on_c, 0, 76, 76
1, 10804, Note_on_c, 0, 77, 0
1, 10858, Note_on_c, 0, 76, 0
1, 10859, Note_on_c, 0, 74, 56
1, 10917, Note_on_c, 0, 74, 0
1, 10919, Note_on_c, 0, 72, 59
1, 10977, Note_on_c, 0, 72, 0
1, 10979, Note_on_c, 0, 71, 62
1, 11029, Note_on_c, 1, 53, 0
1, 11029, Note_on_c, 1, 50, 0
1, 11037, Note_on_c, 1, 59, 0
1, 11039, Note_on_c, 0, 70, 72
1, 11039, Note_on_c, 1, 54, 56
1, 11043, Note_on_c, 0, 71, 0
1, 11099, Note_on_c, 0, 70, 0
1, 11099, Note_on_c, 1, 55, 66
1, 11100, Note_on_c, 0, 76, 57
1, 11101, Note_on_c, 1, 54, 0
1, 11159, Note_on_c, 1, 57, 86
1, 11161, Note_on_c, 0, 76, 0
1, 11161, Note_on_c, 0, 72, 60
1, 11168, Note_on_c, 1, 55, 0
1, 11219, Note_on_c, 1, 58, 63
1, 11220, Note_on_c, 0, 72, 0
1, 11221, Note_on_c, 0, 76, 62
1, 11226, Note_on_c, 1, 57, 0
1, 11278, Note_on_c, 0, 76, 0
1, 11279, Note_on_c, 1, 60, 72
1, 11281, Note_on_c, 0, 70, 64
1, 11281, Note_on_c, 1, 58, 0
1, 11338, Note_on_c, 0, 70, 0
1, 11339, Note_on_c, 1, 61, 72
1, 11341, Note_on_c, 0, 79, 57
1, 11347, Note_on_c, 1, 60, 0
1, 11398, Note_on_c, 0, 79, 0
1, 11401, Note_on_c, 0, 72, 50
1, 11401, Note_on_c, 1, 62, 74
1, 11407, Note_on_c, 1, 61, 0
1, 11456, Note_on_c, 0, 72, 0
1, 11456, Note_on_c, 1, 62, 0
1, 11459, Note_on_c, 0, 79, 68
1, 11459, Note_on_c, 1, 64, 76
1, 11521, Note_on_c, 0, 79, 0
1, 11521, Note_on_c, 0, 69, 59
1, 11521, Note_on_c, 1, 65, 72
1, 11522, Note_on_c, 1, 64, 0
1, 11569, Note_on_c, 1, 65, 0
1, 11579, Note_on_c, 1, 53, 81
1, 11605, Note_on_c, 0, 69, 0
1, 11608, Note_on_c, 1, 53, 0
1, 11640, Note_on_c, 0, 72, 64
1, 11641, Note_on_c, 0, 69, 52
1, 11641, Note_on_c, 1, 65, 86
1, 11700, Note_on_c, 1, 64, 70
1, 11702, Note_on_c, 1, 65, 0
1, 11734, Note_on_c, 0, 69, 0
1, 11736, Note_on_c, 0, 72, 0
1, 11759, Note_on_c, 1, 62, 74
1, 11763, Note_on_c, 1, 64, 0
1, 11819, Note_on_c, 1, 50, 96
1, 11824, Note_on_c, 1, 62, 0
1, 11851, Note_on_c, 1, 50, 0
1, 11879, Note_on_c, 0, 77, 64
1, 11879, Note_on_c, 0, 69, 60
1, 11881, Note_on_c, 1, 62, 74
1, 11939, Note_on_c, 1, 60, 68
1, 11943, Note_on_c, 1, 62, 0
1, 11961, Note_on_c, 0, 69, 0
1, 11968, Note_on_c, 0, 77, 0
1, 11999, Note_on_c, 1, 60, 0
1, 12000, Note_on_c, 1, 58, 74
1, 12055, Note_on_c, 1, 58, 0
1, 12059, Note_on_c, 1, 46, 86
1, 12087, Note_on_c, 1, 46, 0
1, 12119, Note_on_c, 1, 58, 74
1, 12121, Note_on_c, 0, 77, 64
1, 12121, Note_on_c, 0, 74, 76
1, 12174, Note_on_c, 1, 58, 0
1, 12179, Note_on_c, 1, 57, 72
1, 12192, Note_on_c, 0, 74, 0
1, 12197, Note_on_c, 0, 77, 0
1, 12239, Note_on_c, 1, 55, 63
1, 12244, Note_on_c, 1, 57, 0
1, 12299, Note_on_c, 1, 55, 0
1, 12299, Note_on_c, 1, 43, 86
1, 12327, Note_on_c, 1, 43, 0
1, 12359, Note_on_c, 0, 74, 80
1, 12359, Note_on_c, 0, 82, 80
1, 12360, Note_on_c, 1, 55, 81
1, 12410, Note_on_c, 0, 82, 0
1, 12411, Note_on_c, 0, 74, 0
1, 12419, Note_on_c, 1, 53, 74
1, 12425, Note_on_c, 1, 55, 0
1, 12455, Note_on_c, 1, 53, 0
1, 12479, Note_on_c, 1, 53, 74
1, 12480, Note_on_c, 0, 73, 80
1, 12481, Note_on_c, 0, 82, 80
1, 12708, Note_on_c, 0, 73, 0
1, 12721, Note_on_c, 0, 72, 53
1, 12721, Note_on_c, 1, 52, 70
1, 12730, Note_on_c, 1, 53, 0
1, 12836, Note_on_c, 0, 82, 0
1, 12843, Note_on_c, 0, 72, 0
1, 12854, Note_on_c, 1, 52, 0
1, 12959, Note_on_c, 0, 76, 56
1, 12960, Note_on_c, 0, 70, 62
1, 13081, Note_on_c, 1, 69, 62
1, 13141, Note_on_c, 1, 67, 68
1, 13155, Note_on_c, 1, 69, 0
1, 13201, Note_on_c, 1, 65, 64
1, 13213, Note_on_c, 1, 67, 0
1, 13259, Note_on_c, 1, 64, 64
1, 13267, Note_on_c, 1, 65, 0
1, 13320, Note_on_c, 1, 64, 0
1, 13320, Note_on_c, 1, 62, 56
1, 13379, Note_on_c, 1, 60, 68
1, 13380, Note_on_c, 1, 62, 0
1, 13425, Note_on_c, 0, 70, 0
1, 13425, Note_on_c, 1, 60, 0
1, 13431, Note_on_c, 0, 76, 0
1, 13439, Note_on_c, 0, 77, 72
1, 13439, Note_on_c, 0, 69, 57
1, 13439, Note_on_c, 1, 60, 72
1, 13543, Note_on_c, 0, 77, 0
1, 13552, Note_on_c, 0, 69, 0
1, 13559, Note_on_c, 0, 70, 72
1, 13559, Note_on_c, 0, 81, 98
1, 13619, Note_on_c, 0, 79, 59
1, 13627, Note_on_c, 0, 81, 0
1, 13679, Note_on_c, 0, 77, 62
1, 13692, Note_on_c, 0, 79, 0
1, 13739, Note_on_c, 0, 76, 62
1, 13750, Note_on_c, 0, 77, 0
1, 13799, Note_on_c, 1, 62, 89
1, 13801, Note_on_c, 0, 74, 55
1, 13802, Note_on_c, 1, 60, 0
1, 13805, Note_on_c, 0, 76, 0
1, 13851, Note_on_c, 0, 74, 0
1, 13859, Note_on_c, 1, 64, 76
1, 13860, Note_on_c, 0, 72, 64
1, 13869, Note_on_c, 1, 62, 0
1, 13892, Note_on_c, 0, 72, 0
1, 13915, Note_on_c, 0, 70, 0
1, 13918, Note_on_c, 1, 64, 0
1, 13919, Note_on_c, 1, 65, 85
1, 13920, Note_on_c, 0, 72, 72
1, 13920, Note_on_c, 0, 69, 68
1, 13979, Note_on_c, 1, 66, 72
1, 13991, Note_on_c, 1, 65, 0
1, 14038, Note_on_c, 0, 69, 0
1, 14039, Note_on_c, 1, 66, 0
1, 14039, Note_on_c, 1, 69, 89
1, 14041, Note_on_c, 0, 70, 72
1, 14099, Note_on_c, 1, 67, 76
1, 14111, Note_on_c, 1, 69, 0
1, 14161, Note_on_c, 1, 65, 72
1, 14170, Note_on_c, 1, 67, 0
1, 14221, Note_on_c, 1, 64, 62
1, 14229, Note_on_c, 1, 65, 0
1, 14279, Note_on_c, 0, 74, 60
1, 14281, Note_on_c, 1, 62, 50
1, 14282, Note_on_c, 1, 64, 0
1, 14294, Note_on_c, 0, 72, 0
1, 14339, Note_on_c, 0, 76, 57
1, 14339, Note_on_c, 1, 60, 59
1, 14344, Note_on_c, 1, 62, 0
1, 14349, Note_on_c, 0, 74, 0
1, 14369, Note_on_c, 1, 60, 0
1, 14391, Note_on_c, 0, 76, 0
1, 14399, Note_on_c, 0, 77, 68
1, 14399, Note_on_c, 1, 60, 57
1, 14401, Note_on_c, 0, 70, 0
1, 14401, Note_on_c, 0, 69, 53
1, 14461, Note_on_c, 0, 78, 72
1, 14464, Note_on_c, 0, 77, 0
1, 14511, Note_on_c, 0, 78, 0
1, 14519, Note_on_c, 0, 81, 80
1, 14521, Note_on_c, 0, 69, 0
1, 14521, Note_on_c, 0, 70, 85
1, 14579, Note_on_c, 0, 79, 60
1, 14591, Note_on_c, 0, 81, 0
1, 14641, Note_on_c, 0, 77, 64
1, 14644, Note_on_c, 0, 79, 0
1, 14699, Note_on_c, 0, 76, 56
1, 14708, Note_on_c, 0, 77, 0
1, 14759, Note_on_c, 1, 62, 60
1, 14760, Note_on_c, 0, 74, 51
1, 14761, Note_on_c, 0, 76, 0
1, 14761, Note_on_c, 1, 60, 0
1, 14819, Note_on_c, 1, 64, 56
1, 14820, Note_on_c, 0, 74, 0
1, 14820, Note_on_c, 0, 72, 62
1, 14825, Note_on_c, 1, 62, 0
1, 14843, Note_on_c, 0, 70, 0
1, 14850, Note_on_c, 0, 72, 0
1, 14879, Note_on_c, 1, 64, 0
1, 14881, Note_on_c, 0, 72, 62
1, 14881, Note_on_c, 1, 65, 60
1, 14928, Note_on_c, 0, 72, 0
1, 14941, Note_on_c, 0, 77, 56
1, 14998, Note_on_c, 0, 77, 0
1, 15001, Note_on_c, 0, 69, 68
1, 15008, Note_on_c, 1, 65, 0
1, 15053, Note_on_c, 0, 69, 0
1, 15061, Note_on_c, 0, 72, 45
1, 15119, Note_on_c, 0, 72, 0
1, 15121, Note_on_c, 0, 65, 56
1, 15175, Note_on_c, 0, 65, 0
1, 15181, Note_on_c, 0, 69, 38
1, 15236, Note_on_c, 0, 69, 0
1, 15241, Note_on_c, 0, 60, 47
1, 15299, Note_on_c, 0, 64, 62
1, 15301, Note_on_c, 0, 60, 0
1, 15358, Note_on_c, 0, 64, 0
1, 15361, Note_on_c, 0, 65, 57
1, 15361, Note_on_c, 1, 53, 56
1, 15418, Note_on_c, 1, 53, 0
1, 15421, Note_on_c, 1, 57, 62
1, 15461, Note_on_c, 0, 65, 0
1, 15479, Note_on_c, 1, 50, 76
1, 15485, Note_on_c, 1, 57, 0
1, 15500, Note_on_c, 1, 50, 0
1, 15541, Note_on_c, 1, 53, 62
1, 15594, Note_on_c, 1, 53, 0
1, 15601, Note_on_c, 1, 49, 55
1, 15661, Note_on_c, 1, 52, 40
1, 15662, Note_on_c, 1, 49, 0
1, 15720, Note_on_c, 1, 45, 64
1, 15721, Note_on_c, 0, 81, 93
1, 15725, Note_on_c, 1, 52, 0
1, 15779, Note_on_c, 1, 49, 68
1, 15785, Note_on_c, 1, 45, 0
1, 15838, Note_on_c, 1, 49, 0
1, 15839, Note_on_c, 1, 50, 64
1, 15841, Note_on_c, 0, 81, 0
1, 15841, Note_on_c, 0, 79, 89
1, 15901, Note_on_c, 0, 77, 80
1, 15907, Note_on_c, 0, 79, 0
1, 15961, Note_on_c, 0, 76, 76
1, 15965, Note_on_c, 0, 77, 0
1, 15965, Note_on_c, 1, 50, 0
1, 16015, Note_on_c, 0, 76, 0
1, 16021, Note_on_c, 0, 74, 76
1, 16080, Note_on_c, 0, 74, 0
1, 16081, Note_on_c, 0, 77, 80
1, 16141, Note_on_c, 0, 76, 80
1, 16144, Note_on_c, 0, 77, 0
1, 16201, Note_on_c, 0, 76, 0
1, 16201, Note_on_c, 0, 79, 85
1, 16201, Note_on_c, 1, 69, 76
1, 16261, Note_on_c, 0, 79, 0
1, 16261, Note_on_c, 0, 73, 72
1, 16321, Note_on_c, 0, 74, 85
1, 16321, Note_on_c, 1, 69, 0
1, 16321, Note_on_c, 1, 67, 72
1, 16324, Note_on_c, 0, 73, 0
1, 16344, Note_on_c, 0, 74, 0
1, 16381, Note_on_c, 1, 65, 76
1, 16388, Note_on_c, 1, 67, 0
1, 16441, Note_on_c, 0, 69, 89
1, 16441, Note_on_c, 1, 64, 76
1, 16443, Note_on_c, 1, 65, 0
1, 16463, Note_on_c, 0, 69, 0
1, 16501, Note_on_c, 1, 64, 0
1, 16501, Note_on_c, 1, 62, 76
1, 16560, Note_on_c, 1, 64, 68
1, 16561, Note_on_c, 0, 79, 93
1, 16562, Note_on_c, 1, 62, 0
1, 16621, Note_on_c, 1, 62, 56
1, 16626, Note_on_c, 1, 64, 0
1, 16681, Note_on_c, 1, 65, 56
1, 16682, Note_on_c, 1, 62, 0
1, 16739, Note_on_c, 1, 65, 0
1, 16739, Note_on_c, 1, 59, 57
1, 16794, Note_on_c, 0, 79, 0
1, 16801, Note_on_c, 0, 77, 89
1, 16801, Note_on_c, 1, 60, 68
1, 16803, Note_on_c, 1, 59, 0
1, 16824, Note_on_c, 1, 60, 0
1, 16861, Note_on_c, 0, 76, 89
1, 16868, Note_on_c, 0, 77, 0
1, 16920, Note_on_c, 1, 55, 62
1, 16921, Note_on_c, 0, 76, 0
1, 16921, Note_on_c, 0, 74, 76
1, 16948, Note_on_c, 1, 55, 0
1, 16979, Note_on_c, 0, 72, 85
1, 16984, Note_on_c, 0, 74, 0
1, 17035, Note_on_c, 0, 72, 0
1, 17039, Note_on_c, 0, 76, 93
1, 17039, Note_on_c, 1, 67, 68
1, 17099, Note_on_c, 0, 74, 89
1, 17101, Note_on_c, 0, 76, 0
1, 17159, Note_on_c, 0, 77, 89
1, 17160, Note_on_c, 0, 74, 0
1, 17219, Note_on_c, 0, 77, 0
1, 17219, Note_on_c, 0, 71, 76
1, 17279, Note_on_c, 1, 65, 72
1, 17281, Note_on_c, 0, 72, 93
1, 17282, Note_on_c, 0, 71, 0
1, 17283, Note_on_c, 1, 67, 0
1, 17302, Note_on_c, 0, 72, 0
1, 17339, Note_on_c, 1, 63, 68
1, 17351, Note_on_c, 1, 65, 0
1, 17399, Note_on_c, 1, 62, 80
1, 17401, Note_on_c, 0, 67, 93
1, 17408, Note_on_c, 1, 63, 0
1, 17422, Note_on_c, 0, 67, 0
1, 17459, Note_on_c, 1, 60, 76
1, 17464, Note_on_c, 1, 62, 0
1, 17519, Note_on_c, 1, 63, 72
1, 17521, Note_on_c, 0, 79, 93
1, 17525, Note_on_c, 1, 60, 0
1, 17579, Note_on_c, 1, 62, 80
1, 17584, Note_on_c, 1, 63, 0
1, 17639, Note_on_c, 1, 65, 85
1, 17648, Note_on_c, 1, 62, 0
1, 17699, Note_on_c, 1, 59, 68
1, 17705, Note_on_c, 1, 65, 0
1, 17761, Note_on_c, 0, 79, 0
1, 17761, Note_on_c, 0, 77, 85
1, 17761, Note_on_c, 1, 59, 0
1, 17761, Note_on_c, 1, 60, 86
1, 17821, Note_on_c, 0, 75, 76
1, 17830, Note_on_c, 0, 77, 0
1, 17881, Note_on_c, 0, 74, 85
1, 17881, Note_on_c, 1, 63, 72
1, 17881, Note_on_c, 1, 67, 76
1, 17887, Note_on_c, 0, 75, 0
1, 17940, Note_on_c, 0, 74, 0
1, 17941, Note_on_c, 0, 72, 80
1, 17998, Note_on_c, 0, 72, 0
1, 18001, Note_on_c, 0, 77, 93
1, 18001, Note_on_c, 1, 58, 86
1, 18008, Note_on_c, 1, 67, 0
1, 18008, Note_on_c, 1, 63, 0
1, 18015, Note_on_c, 1, 60, 0
1, 18061, Note_on_c, 0, 75, 85
1, 18069, Note_on_c, 0, 77, 0
1, 18121, Note_on_c, 0, 74, 93
1, 18121, Note_on_c, 1, 60, 72
1, 18121, Note_on_c, 1, 63, 72
1, 18123, Note_on_c, 0, 75, 0
1, 18181, Note_on_c, 0, 72, 89
1, 18183, Note_on_c, 0, 74, 0
1, 18235, Note_on_c, 1, 58, 0
1, 18238, Note_on_c, 0, 72, 0
1, 18241, Note_on_c, 0, 77, 98
1, 18241, Note_on_c, 1, 63, 0
1, 18241, Note_on_c, 1, 60, 0
1, 18241, Note_on_c, 1, 56, 89
1, 18301, Note_on_c, 0, 75, 89
1, 18307, Note_on_c, 0, 77, 0
1, 18361, Note_on_c, 0, 74, 102
1, 18361, Note_on_c, 1, 60, 89
1, 18361, Note_on_c, 1, 63, 85
1, 18364, Note_on_c, 0, 75, 0
1, 18419, Note_on_c, 0, 74, 0
1, 18421, Note_on_c, 0, 72, 113
1, 18475, Note_on_c, 1, 56, 0
1, 18479, Note_on_c, 1, 60, 0
1, 18481, Note_on_c, 0, 72, 0
1, 18481, Note_on_c, 0, 77, 98
1, 18481, Note_on_c, 1, 63, 0
1, 18481, Note_on_c, 1, 55, 86
1, 18541, Note_on_c, 0, 75, 107
1, 18545, Note_on_c, 0, 77, 0
1, 18600, Note_on_c, 0, 75, 0
1, 18601, Note_on_c, 0, 74, 107
1, 18601, Note_on_c, 1, 60, 85
1, 18601, Note_on_c, 1, 63, 93
1, 18659, Note_on_c, 0, 74, 0
1, 18661, Note_on_c, 0, 72, 102
1, 18695, Note_on_c, 1, 63, 0
1, 18695, Note_on_c, 1, 60, 0
1, 18701, Note_on_c, 1, 55, 0
1, 18716, Note_on_c, 0, 72, 0
1, 18721, Note_on_c, 0, 84, 102
1, 18721, Note_on_c, 1, 54, 68
1, 18721, Note_on_c, 1, 63, 89
1, 18721, Note_on_c, 1, 60, 93
1, 18805, Note_on_c, 0, 84, 0
1, 18846, Note_on_c, 1, 60, 0
1, 18848, Note_on_c, 1, 63, 0
1, 18850, Note_on_c, 1, 54, 0
1, 18961, Note_on_c, 0, 77, 102
1, 19021, Note_on_c, 0, 75, 89
1, 19026, Note_on_c, 0, 77, 0
1, 19079, Note_on_c, 1, 63, 89
1, 19079, Note_on_c, 1, 60, 93
1, 19079, Note_on_c, 1, 55, 76
1, 19080, Note_on_c, 0, 75, 0
1, 19081, Note_on_c, 0, 74, 98
1, 19141, Note_on_c, 0, 72, 93
1, 19145, Note_on_c, 0, 74, 0
1, 19157, Note_on_c, 1, 60, 0
1, 19160, Note_on_c, 1, 63, 0
1, 19161, Note_on_c, 1, 55, 0
1, 19199, Note_on_c, 0, 72, 0
1, 19201, Note_on_c, 0, 87, 107
1, 19201, Note_on_c, 1, 63, 85
1, 19201, Note_on_c, 1, 60, 93
1, 19201, Note_on_c, 1, 56, 72
1, 19290, Note_on_c, 0, 87, 0
1, 19297, Note_on_c, 1, 60, 0
1, 19299, Note_on_c, 1, 63, 0
1, 19302, Note_on_c, 1, 56, 0
1, 19440, Note_on_c, 1, 44, 50
1, 19440, Note_on_c, 1, 56, 46
1, 19441, Note_on_c, 0, 78, 59
1, 19441, Note_on_c, 0, 72, 62
1, 19533, Note_on_c, 0, 78, 0
1, 19534, Note_on_c, 0, 72, 0
1, 19546, Note_on_c, 1, 56, 0
1, 19547, Note_on_c, 1, 44, 0
1, 19681, Note_on_c, 0, 71, 56
1, 19681, Note_on_c, 0, 79, 57
1, 19681, Note_on_c, 1, 55, 45
1, 19681, Note_on_c, 1, 43, 48
1, 19783, Note_on_c, 0, 71, 0
1, 19785, Note_on_c, 0, 79, 0
1, 19788, Note_on_c, 1, 55, 0
1, 19790, Note_on_c, 1, 43, 0
1, 19920, Note_on_c, 0, 79, 113
1, 20199, Note_on_c, 0, 81, 68
1, 20202, Note_on_c, 0, 79, 0
1, 20241, Note_on_c, 0, 79, 76
1, 20251, Note_on_c, 0, 81, 0
1, 20281, Note_on_c, 0, 77, 80
1, 20284, Note_on_c, 0, 79, 0
1, 20321, Note_on_c, 0, 79, 76
1, 20326, Note_on_c, 0, 77, 0
1, 20361, Note_on_c, 0, 77, 64
1, 20370, Note_on_c, 0, 79, 0
1, 20402, Note_on_c, 0, 76, 80
1, 20403, Note_on_c, 0, 77, 0
1, 20442, Note_on_c, 0, 77, 76
1, 20444, Note_on_c, 0, 76, 0
1, 20482, Note_on_c, 0, 76, 76
1, 20490, Note_on_c, 0, 77, 0
1, 20522, Note_on_c, 0, 74, 76
1, 20525, Note_on_c, 0, 76, 0
1, 20562, Note_on_c, 0, 74, 0
1, 20562, Note_on_c, 0, 76, 80
1, 20602, Note_on_c, 0, 74, 57
1, 20603, Note_on_c, 0, 76, 0
1, 20640, Note_on_c, 0, 74, 0
1, 20643, Note_on_c, 1, 64, 72
1, 20649, Note_on_c, 0, 72, 76
1, 20674, Note_on_c, 0, 72, 0
1, 20699, Note_on_c, 1, 64, 0
1, 20702, Note_on_c, 1, 67, 62
1, 20759, Note_on_c, 1, 67, 0
1, 20762, Note_on_c, 1, 65, 64
1, 20764, Note_on_c, 0, 72, 89
1, 20781, Note_on_c, 0, 72, 0
1, 20781, Note_on_c, 0, 71, 76
1, 20804, Note_on_c, 0, 72, 68
1, 20805, Note_on_c, 0, 71, 0
1, 20819, Note_on_c, 1, 65, 0
1, 20822, Note_on_c, 1, 67, 60
1, 20824, Note_on_c, 0, 71, 72
1, 20830, Note_on_c, 0, 72, 0
1, 20848, Note_on_c, 0, 71, 0
1, 20848, Note_on_c, 0, 69, 60
1, 20867, Note_on_c, 0, 71, 51
1, 20872, Note_on_c, 0, 69, 0
1, 20877, Note_on_c, 1, 67, 0
1, 20881, Note_on_c, 0, 72, 80
1, 20881, Note_on_c, 1, 64, 60
1, 20884, Note_on_c, 0, 71, 0
1, 20916, Note_on_c, 0, 72, 0
1, 20940, Note_on_c, 1, 64, 0
1, 20941, Note_on_c, 1, 67, 57
1, 21000, Note_on_c, 1, 67, 0
1, 21001, Note_on_c, 1, 59, 62
1, 21007, Note_on_c, 0, 76, 89
1, 21025, Note_on_c, 0, 76, 0
1, 21025, Note_on_c, 0, 74, 72
1, 21046, Note_on_c, 0, 76, 68
1, 21047, Note_on_c, 0, 74, 0
1, 21061, Note_on_c, 1, 67, 68
1, 21065, Note_on_c, 1, 59, 0
1, 21066, Note_on_c, 0, 74, 64
1, 21071, Note_on_c, 0, 76, 0
1, 21084, Note_on_c, 0, 72, 64
1, 21088, Note_on_c, 0, 74, 0
1, 21104, Note_on_c, 0, 74, 72
1, 21109, Note_on_c, 0, 72, 0
1, 21121, Note_on_c, 0, 74, 0
1, 21122, Note_on_c, 1, 60, 62
1, 21124, Note_on_c, 0, 76, 85
1, 21126, Note_on_c, 1, 67, 0
1, 21152, Note_on_c, 0, 76, 0
1, 21181, Note_on_c, 1, 67, 64
1, 21184, Note_on_c, 1, 60, 0
1, 21234, Note_on_c, 1, 67, 0
1, 21241, Note_on_c, 1, 57, 62
1, 21249, Note_on_c, 0, 79, 98
1, 21268, Note_on_c, 0, 79, 0
1, 21268, Note_on_c, 0, 77, 72
1, 21286, Note_on_c, 0, 77, 0
1, 21286, Note_on_c, 0, 79, 76
1, 21301, Note_on_c, 1, 60, 64
1, 21304, Note_on_c, 0, 77, 80
1, 21308, Note_on_c, 0, 79, 0
1, 21308, Note_on_c, 1, 57, 0
1, 21327, Note_on_c, 0, 77, 0
1, 21327, Note_on_c, 0, 76, 76
1, 21347, Note_on_c, 0, 77, 76
1, 21349, Note_on_c, 0, 76, 0
1, 21359, Note_on_c, 0, 79, 85
1, 21361, Note_on_c, 1, 60, 0
1, 21362, Note_on_c, 1, 52, 64
1, 21364, Note_on_c, 0, 77, 0
1, 21384, Note_on_c, 0, 79, 0
1, 21421, Note_on_c, 1, 52, 0
1, 21422, Note_on_c, 1, 60, 60
1, 21480, Note_on_c, 1, 60, 0
1, 21481, Note_on_c, 1, 53, 60
1, 21482, Note_on_c, 0, 81, 76
1, 21499, Note_on_c, 0, 81, 0
1, 21541, Note_on_c, 1, 65, 72
1, 21596, Note_on_c, 1, 53, 0
1, 21601, Note_on_c, 1, 64, 68
1, 21601, Note_on_c, 1, 55, 62
1, 21603, Note_on_c, 0, 72, 72
1, 21608, Note_on_c, 1, 65, 0
1, 21723, Note_on_c, 1, 62, 50
1, 21726, Note_on_c, 0, 72, 0
1, 21727, Note_on_c, 0, 71, 64
1, 21733, Note_on_c, 1, 64, 0
1, 21822, Note_on_c, 0, 71, 0
1, 21832, Note_on_c, 1, 62, 0
1, 21835, Note_on_c, 1, 55, 0
1, 21844, Note_on_c, 0, 81, 107
1, 21959, Note_on_c, 1, 61, 113
1, 21959, Note_on_c, 1, 57, 98
1, 22083, Note_on_c, 1, 59, 64
1, 22083, Note_on_c, 1, 62, 62
1, 22088, Note_on_c, 1, 57, 0
1, 22096, Note_on_c, 1, 61, 0
1, 22096, Note_on_c, 1, 62, 0
1, 22099, Note_on_c, 1, 59, 0
1, 22121, Note_on_c, 0, 82, 76
1, 22125, Note_on_c, 0, 81, 0
1, 22161, Note_on_c, 0, 81, 80
1, 22172, Note_on_c, 0, 82, 0
1, 22201, Note_on_c, 0, 79, 80
1, 22202, Note_on_c, 1, 64, 64
1, 22202, Note_on_c, 1, 61, 56
1, 22205, Note_on_c, 0, 81, 0
1, 22222, Note_on_c, 1, 61, 0
1, 22222, Note_on_c, 1, 64, 0
1, 22241, Note_on_c, 0, 81, 85
1, 22246, Note_on_c, 0, 79, 0
1, 22281, Note_on_c, 0, 79, 76
1, 22292, Note_on_c, 0, 81, 0
1, 22321, Note_on_c, 0, 77, 72
1, 22322, Note_on_c, 1, 65, 64
1, 22322, Note_on_c, 1, 62, 64
1, 22325, Note_on_c, 0, 79, 0
1, 22339, Note_on_c, 1, 65, 0
1, 22340, Note_on_c, 1, 62, 0
1, 22361, Note_on_c, 0, 79, 85
1, 22364, Note_on_c, 0, 77, 0
1, 22401, Note_on_c, 0, 77, 76
1, 22409, Note_on_c, 0, 79, 0
1, 22441, Note_on_c, 0, 76, 60
1, 22442, Note_on_c, 1, 67, 72
1, 22442, Note_on_c, 1, 64, 64
1, 22447, Note_on_c, 0, 77, 0
1, 22462, Note_on_c, 1, 67, 0
1, 22464, Note_on_c, 1, 64, 0
1, 22482, Note_on_c, 0, 77, 72
1, 22488, Note_on_c, 0, 76, 0
1, 22521, Note_on_c, 0, 77, 0
1, 22521, Note_on_c, 0, 76, 80
1, 22557, Note_on_c, 0, 76, 0
1, 22562, Note_on_c, 1, 69, 56
1, 22562, Note_on_c, 1, 65, 62
1, 22565, Note_on_c, 0, 74, 98
1, 22584, Note_on_c, 1, 65, 0
1, 22585, Note_on_c, 1, 69, 0
1, 22589, Note_on_c, 0, 74, 0
1, 22687, Note_on_c, 0, 86, 113
1, 22706, Note_on_c, 0, 86, 0
1, 22803, Note_on_c, 0, 81, 98
1, 22827, Note_on_c, 0, 81, 0
1, 22921, Note_on_c, 1, 55, 93
1, 22921, Note_on_c, 1, 53, 85
1, 22928, Note_on_c, 0, 84, 98
1, 22943, Note_on_c, 0, 83, 72
1, 22944, Note_on_c, 0, 84, 0
1, 22963, Note_on_c, 0, 84, 80
1, 22965, Note_on_c, 0, 83, 0
1, 22982, Note_on_c, 0, 83, 89
1, 22987, Note_on_c, 0, 84, 0
1, 23001, Note_on_c, 0, 81, 85
1, 23003, Note_on_c, 0, 83, 0
1, 23016, Note_on_c, 0, 83, 85
1, 23023, Note_on_c, 0, 81, 0
1, 23034, Note_on_c, 0, 83, 0
1, 23036, Note_on_c, 1, 53, 0
1, 23040, Note_on_c, 0, 84, 107
1, 23040, Note_on_c, 1, 52, 59
1, 23060, Note_on_c, 0, 84, 0
1, 23153, Note_on_c, 1, 52, 0
1, 23158, Note_on_c, 1, 55, 0
1, 23158, Note_on_c, 1, 54, 55
1, 23158, Note_on_c, 1, 57, 68
1, 23165, Note_on_c, 0, 74, 107
1, 23181, Note_on_c, 0, 72, 76
1, 23182, Note_on_c, 0, 74, 0
1, 23205, Note_on_c, 0, 74, 80
1, 23207, Note_on_c, 0, 72, 0
1, 23221, Note_on_c, 0, 72, 80
1, 23228, Note_on_c, 0, 74, 0
1, 23236, Note_on_c, 0, 71, 76
1, 23243, Note_on_c, 0, 72, 0
1, 23258, Note_on_c, 0, 74, 62
1, 23261, Note_on_c, 0, 71, 0
1, 23272, Note_on_c, 0, 74, 0
1, 23280, Note_on_c, 0, 76, 89
1, 23281, Note_on_c, 1, 60, 62
1, 23281, Note_on_c, 1, 55, 49
1, 23287, Note_on_c, 1, 54, 0
1, 23288, Note_on_c, 1, 57, 0
1, 23306, Note_on_c, 0, 76, 0
1, 23401, Note_on_c, 1, 59, 55
1, 23402, Note_on_c, 1, 60, 0
1, 23405, Note_on_c, 0, 74, 98
1, 23427, Note_on_c, 0, 74, 0
1, 23522, Note_on_c, 1, 55, 0
1, 23522, Note_on_c, 1, 60, 62
1, 23526, Note_on_c, 0, 72, 89
1, 23526, Note_on_c, 1, 59, 0
1, 23551, Note_on_c, 0, 72, 0
1, 23639, Note_on_c, 1, 60, 0
1, 23641, Note_on_c, 1, 48, 72
1, 23665, Note_on_c, 1, 48, 0
1, 23760, Note_on_c, 1, 55, 93
1, 23878, Note_on_c, 0, 67, 102
1, 23909, Note_on_c, 0, 67, 0
1, 23999, Note_on_c, 0, 79, 93
1, 24039, Note_on_c, 1, 57, 80
1, 24040, Note_on_c, 1, 55, 0
1, 24079, Note_on_c, 1, 55, 72
1, 24089, Note_on_c, 1, 57, 0
1, 24120, Note_on_c, 1, 53, 72
1, 24127, Note_on_c, 1, 55, 0
1, 24161, Note_on_c, 1, 55, 76
1, 24169, Note_on_c, 1, 53, 0
1, 24201, Note_on_c, 1, 53, 68
1, 24215, Note_on_c, 1, 55, 0
1, 24242, Note_on_c, 1, 52, 80
1, 24245, Note_on_c, 1, 53, 0
1, 24282, Note_on_c, 0, 81, 68
1, 24282, Note_on_c, 1, 53, 68
1, 24283, Note_on_c, 0, 79, 0
1, 24287, Note_on_c, 1, 52, 0
1, 24321, Note_on_c, 0, 79, 60
1, 24321, Note_on_c, 1, 52, 72
1, 24323, Note_on_c, 1, 53, 0
1, 24330, Note_on_c, 0, 81, 0
1, 24359, Note_on_c, 0, 77, 76
1, 24360, Note_on_c, 0, 79, 0
1, 24361, Note_on_c, 1, 50, 76
1, 24364, Note_on_c, 1, 52, 0
1, 24400, Note_on_c, 0, 79, 68
1, 24401, Note_on_c, 1, 52, 68
1, 24402, Note_on_c, 1, 50, 0
1, 24403, Note_on_c, 0, 77, 0
1, 24440, Note_on_c, 0, 77, 68
1, 24441, Note_on_c, 1, 50, 68
1, 24445, Note_on_c, 1, 52, 0
1, 24449, Note_on_c, 0, 79, 0
1, 24479, Note_on_c, 1, 50, 0
1, 24481, Note_on_c, 0, 77, 0
1, 24481, Note_on_c, 0, 76, 64
1, 24489, Note_on_c, 1, 48, 89
1, 24519, Note_on_c, 0, 77, 64
1, 24523, Note_on_c, 0, 76, 0
1, 24527, Note_on_c, 1, 48, 0
1, 24560, Note_on_c, 0, 76, 64
1, 24567, Note_on_c, 0, 77, 0
1, 24599, Note_on_c, 0, 74, 72
1, 24607, Note_on_c, 1, 52, 89
1, 24609, Note_on_c, 0, 76, 0
1, 24626, Note_on_c, 1, 52, 0
1, 24630, Note_on_c, 1, 50, 76
1, 24639, Note_on_c, 0, 72, 52
1, 24640, Note_on_c, 0, 74, 0
1, 24654, Note_on_c, 1, 52, 80
1, 24657, Note_on_c, 1, 50, 0
1, 24675, Note_on_c, 1, 50, 85
1, 24679, Note_on_c, 1, 52, 0
1, 24681, Note_on_c, 0, 71, 62
1, 24684, Note_on_c, 0, 72, 0
1, 24695, Note_on_c, 1, 48, 72
1, 24696, Note_on_c, 1, 50, 0
1, 24715, Note_on_c, 1, 50, 80
1, 24719, Note_on_c, 1, 48, 0
1, 24720, Note_on_c, 0, 72, 68
1, 24722, Note_on_c, 0, 71, 0
1, 24730, Note_on_c, 1, 52, 80
1, 24732, Note_on_c, 1, 50, 0
1, 24761, Note_on_c, 0, 74, 60
1, 24764, Note_on_c, 0, 72, 0
1, 24801, Note_on_c, 0, 72, 64
1, 24809, Note_on_c, 0, 74, 0
1, 24834, Note_on_c, 1, 52, 0
1, 24837, Note_on_c, 1, 40, 62
1, 24841, Note_on_c, 0, 70, 57
1, 24847, Note_on_c, 0, 72, 0
1, 24881, Note_on_c, 0, 69, 57
1, 24883, Note_on_c, 0, 70, 0
1, 24922, Note_on_c, 0, 69, 0
1, 24922, Note_on_c, 0, 68, 51
1, 24962, Note_on_c, 0, 68, 0
1, 24962, Note_on_c, 0, 69, 59
1, 24966, Note_on_c, 1, 41, 68
1, 24970, Note_on_c, 1, 40, 0
1, 25002, Note_on_c, 0, 74, 60
1, 25016, Note_on_c, 0, 69, 0
1, 25042, Note_on_c, 0, 73, 60
1, 25048, Note_on_c, 0, 74, 0
1, 25080, Note_on_c, 0, 73, 0
1, 25083, Note_on_c, 0, 74, 64
1, 25089, Note_on_c, 1, 41, 0
1, 25122, Note_on_c, 0, 77, 62
1, 25126, Note_on_c, 0, 74, 0
1, 25160, Note_on_c, 0, 77, 0
1, 25162, Note_on_c, 0, 76, 64
1, 25202, Note_on_c, 0, 77, 68
1, 25203, Note_on_c, 0, 76, 0
1, 25239, Note_on_c, 0, 77, 0
1, 25242, Note_on_c, 0, 81, 68
1, 25282, Note_on_c, 0, 80, 59
1, 25286, Note_on_c, 0, 81, 0
1, 25321, Note_on_c, 0, 80, 0
1, 25322, Note_on_c, 0, 81, 59
1, 25323, Note_on_c, 1, 53, 76
1, 25361, Note_on_c, 0, 77, 59
1, 25368, Note_on_c, 0, 81, 0
1, 25400, Note_on_c, 0, 77, 0
1, 25401, Note_on_c, 0, 74, 46
1, 25441, Note_on_c, 0, 72, 51
1, 25444, Note_on_c, 0, 74, 0
1, 25444, Note_on_c, 1, 55, 68
1, 25449, Note_on_c, 1, 53, 0
1, 25551, Note_on_c, 1, 55, 0
1, 25561, Note_on_c, 0, 71, 53
1, 25563, Note_on_c, 0, 72, 0
1, 25567, Note_on_c, 1, 43, 93
1, 25594, Note_on_c, 1, 43, 0
1, 25658, Note_on_c, 0, 71, 0
1, 25693, Note_on_c, 1, 57, 85
1, 25799, Note_on_c, 0, 60, 102
1, 25919, Note_on_c, 0, 60, 0
1, 25921, Note_on_c, 0, 72, 98
1, 25961, Note_on_c, 1, 58, 76
1, 25964, Note_on_c, 1, 57, 0
1, 25999, Note_on_c, 1, 57, 76
1, 26008, Note_on_c, 1, 58, 0
1, 26035, Note_on_c, 0, 72, 0
1, 26039, Note_on_c, 1, 55, 76
1, 26041, Note_on_c, 0, 70, 85
1, 26041, Note_on_c, 0, 73, 102
1, 26045, Note_on_c, 1, 57, 0
1, 26079, Note_on_c, 1, 57, 76
1, 26084, Note_on_c, 1, 55, 0
1, 26121, Note_on_c, 1, 55, 76
1, 26131, Note_on_c, 1, 57, 0
1, 26161, Note_on_c, 0, 73, 0
1, 26162, Note_on_c, 0, 74, 98
1, 26162, Note_on_c, 0, 69, 85
1, 26164, Note_on_c, 0, 70, 0
1, 26164, Note_on_c, 1, 55, 0
1, 26164, Note_on_c, 1, 53, 72
1, 26204, Note_on_c, 1, 55, 76
1, 26206, Note_on_c, 1, 53, 0
1, 26240, Note_on_c, 1, 53, 68
1, 26248, Note_on_c, 1, 55, 0
1, 26271, Note_on_c, 0, 69, 0
1, 26272, Note_on_c, 0, 74, 0
1, 26281, Note_on_c, 0, 76, 89
1, 26281, Note_on_c, 0, 73, 76
1, 26283, Note_on_c, 1, 52, 80
1, 26287, Note_on_c, 1, 53, 0
1, 26321, Note_on_c, 1, 53, 76
1, 26326, Note_on_c, 1, 52, 0
1, 26359, Note_on_c, 1, 52, 64
1, 26361, Note_on_c, 1, 53, 0
1, 26392, Note_on_c, 0, 73, 0
1, 26397, Note_on_c, 1, 52, 0
1, 26399, Note_on_c, 0, 76, 0
1, 26401, Note_on_c, 0, 77, 62
1, 26401, Note_on_c, 0, 74, 76
1, 26404, Note_on_c, 1, 50, 89
1, 26441, Note_on_c, 0, 76, 76
1, 26442, Note_on_c, 0, 77, 0
1, 26464, Note_on_c, 1, 50, 0
1, 26481, Note_on_c, 0, 77, 60
1, 26492, Note_on_c, 0, 76, 0
1, 26511, Note_on_c, 0, 77, 0
1, 26522, Note_on_c, 0, 78, 72
1, 26525, Note_on_c, 0, 74, 0
1, 26532, Note_on_c, 1, 50, 89
1, 26552, Note_on_c, 1, 48, 93
1, 26553, Note_on_c, 1, 50, 0
1, 26562, Note_on_c, 0, 76, 57
1, 26565, Note_on_c, 0, 78, 0
1, 26572, Note_on_c, 1, 50, 89
1, 26573, Note_on_c, 1, 48, 0
1, 26588, Note_on_c, 1, 48, 80
1, 26593, Note_on_c, 1, 50, 0
1, 26601, Note_on_c, 0, 78, 62
1, 26604, Note_on_c, 0, 76, 0
1, 26608, Note_on_c, 1, 47, 68
1, 26609, Note_on_c, 1, 48, 0
1, 26631, Note_on_c, 1, 48, 62
1, 26634, Note_on_c, 1, 47, 0
1, 26638, Note_on_c, 0, 78, 0
1, 26641, Note_on_c, 0, 79, 76
1, 26656, Note_on_c, 1, 47, 93
1, 26657, Note_on_c, 1, 48, 0
1, 26681, Note_on_c, 0, 78, 60
1, 26687, Note_on_c, 0, 79, 0
1, 26690, Note_on_c, 1, 47, 0
1, 26720, Note_on_c, 0, 79, 72
1, 26721, Note_on_c, 0, 78, 0
1, 26753, Note_on_c, 0, 79, 0
1, 26761, Note_on_c, 0, 83, 85
1, 26768, Note_on_c, 1, 55, 93
1, 26783, Note_on_c, 1, 53, 72
1, 26784, Note_on_c, 1, 55, 0
1, 26800, Note_on_c, 0, 81, 80
1, 26805, Note_on_c, 1, 55, 76
1, 26807, Note_on_c, 0, 83, 0
1, 26808, Note_on_c, 1, 53, 0
1, 26823, Note_on_c, 1, 53, 72
1, 26828, Note_on_c, 1, 55, 0
1, 26841, Note_on_c, 0, 83, 72
1, 26842, Note_on_c, 1, 53, 0
1, 26843, Note_on_c, 1, 52, 68
1, 26845, Note_on_c, 0, 81, 0
1, 26860, Note_on_c, 1, 53, 85
1, 26863, Note_on_c, 1, 52, 0
1, 26868, Note_on_c, 0, 83, 0
1, 26881, Note_on_c, 0, 84, 89
1, 26883, Note_on_c, 1, 53, 0
1, 26885, Note_on_c, 1, 52, 98
1, 26922, Note_on_c, 0, 79, 68
1, 26951, Note_on_c, 0, 84, 0
1, 26960, Note_on_c, 0, 79, 0
1, 26961, Note_on_c, 0, 76, 62
1, 27002, Note_on_c, 0, 81, 89
1, 27003, Note_on_c, 0, 76, 0
1, 27009, Note_on_c, 1, 53, 89
1, 27010, Note_on_c, 1, 52, 0
1, 27042, Note_on_c, 0, 77, 72
1, 27057, Note_on_c, 0, 81, 0
1, 27082, Note_on_c, 0, 74, 57
1, 27086, Note_on_c, 0, 77, 0
1, 27122, Note_on_c, 0, 79, 85
1, 27124, Note_on_c, 0, 74, 0
1, 27129, Note_on_c, 1, 55, 93
1, 27132, Note_on_c, 1, 53, 0
1, 27163, Note_on_c, 0, 76, 64
1, 27174, Note_on_c, 0, 79, 0
1, 27202, Note_on_c, 0, 72, 64
1, 27203, Note_on_c, 0, 76, 0
1, 27242, Note_on_c, 0, 72, 0
1, 27242, Note_on_c, 0, 77, 76
1, 27253, Note_on_c, 1, 55, 0
1, 27256, Note_on_c, 1, 43, 80
1, 27282, Note_on_c, 0, 74, 62
1, 27292, Note_on_c, 0, 77, 0
1, 27319, Note_on_c, 0, 74, 0
1, 27321, Note_on_c, 0, 71, 59
1, 27358, Note_on_c, 0, 71, 0
1, 27362, Note_on_c, 0, 72, 68
1, 27374, Note_on_c, 1, 48, 85
1, 27375, Note_on_c, 1, 43, 0
1, 27467, Note_on_c, 1, 48, 0
1, 27475, Note_on_c, 0, 72, 0
1, 27481, Note_on_c, 0, 88, 98
1, 27521, Note_on_c, 0, 86, 80
1, 27527, Note_on_c, 0, 88, 0
1, 27561, Note_on_c, 0, 84, 89
1, 27566, Note_on_c, 0, 86, 0
1, 27601, Note_on_c, 0, 83, 89
1, 27609, Note_on_c, 0, 84, 0
1, 27641, Note_on_c, 0, 81, 60
1, 27643, Note_on_c, 0, 83, 0
1, 27681, Note_on_c, 0, 79, 76
1, 27686, Note_on_c, 0, 81, 0
1, 27719, Note_on_c, 1, 72, 72
1, 27719, Note_on_c, 1, 75, 66
1, 27721, Note_on_c, 0, 78, 80
1, 27723, Note_on_c, 0, 79, 0
1, 27761, Note_on_c, 0, 81, 76
1, 27763, Note_on_c, 0, 78, 0
1, 27802, Note_on_c, 0, 78, 72
1, 27804, Note_on_c, 0, 81, 0
1, 27839, Note_on_c, 0, 78, 0
1, 27839, Note_on_c, 1, 75, 0
1, 27839, Note_on_c, 1, 72, 0
1, 27841, Note_on_c, 1, 74, 91
1, 27841, Note_on_c, 1, 71, 56
1, 27842, Note_on_c, 0, 81, 89
1, 27882, Note_on_c, 0, 79, 72
1, 27893, Note_on_c, 0, 81, 0
1, 27921, Note_on_c, 0, 79, 0
1, 27922, Note_on_c, 0, 76, 62
1, 27955, Note_on_c, 1, 71, 0
1, 27960, Note_on_c, 0, 76, 0
1, 27960, Note_on_c, 1, 72, 91
1, 27960, Note_on_c, 1, 69, 81
1, 27961, Note_on_c, 1, 74, 0
1, 27962, Note_on_c, 0, 79, 89
1, 28002, Note_on_c, 0, 77, 64
1, 28010, Note_on_c, 0, 79, 0
1, 28041, Note_on_c, 0, 74, 57
1, 28046, Note_on_c, 0, 77, 0
1, 28078, Note_on_c, 0, 74, 0
1, 28080, Note_on_c, 1, 69, 0
1, 28081, Note_on_c, 0, 77, 80
1, 28081, Note_on_c, 1, 72, 0
1, 28081, Note_on_c, 1, 70, 76
1, 28081, Note_on_c, 1, 67, 61
1, 28122, Note_on_c, 0, 76, 62
1, 28133, Note_on_c, 0, 77, 0
1, 28160, Note_on_c, 0, 76, 0
1, 28161, Note_on_c, 0, 72, 60
1, 28196, Note_on_c, 1, 67, 0
1, 28201, Note_on_c, 0, 72, 0
1, 28201, Note_on_c, 0, 76, 80
1, 28201, Note_on_c, 1, 65, 52
1, 28201, Note_on_c, 1, 69, 55
1, 28206, Note_on_c, 1, 70, 0
1, 28241, Note_on_c, 0, 74, 68
1, 28251, Note_on_c, 0, 76, 0
1, 28279, Note_on_c, 0, 71, 64
1, 28282, Note_on_c, 0, 74, 0
1, 28318, Note_on_c, 1, 69, 0
1, 28319, Note_on_c, 1, 65, 0
1, 28322, Note_on_c, 0, 71, 0
1, 28322, Note_on_c, 0, 72, 93
1, 28322, Note_on_c, 1, 67, 76
1, 28323, Note_on_c, 1, 64, 72
1, 28411, Note_on_c, 1, 67, 0
1, 28412, Note_on_c, 1, 64, 0
1, 28430, Note_on_c, 0, 72, 0
1, 28438, Note_on_c, 1, 63, 72
1, 28480, Note_on_c, 1, 62, 80
1, 28486, Note_on_c, 1, 63, 0
1, 28521, Note_on_c, 1, 62, 0
1, 28521, Note_on_c, 1, 60, 80
1, 28559, Note_on_c, 1, 58, 48
1, 28562, Note_on_c, 1, 60, 0
1, 28599, Note_on_c, 1, 56, 62
1, 28609, Note_on_c, 1, 58, 0
1, 28638, Note_on_c, 1, 55, 72
1, 28642, Note_on_c, 1, 56, 0
1, 28679, Note_on_c, 1, 54, 56
1, 28681, Note_on_c, 0, 84, 102
1, 28681, Note_on_c, 0, 75, 80
1, 28681, Note_on_c, 1, 55, 0
1, 28719, Note_on_c, 1, 57, 72
1, 28723, Note_on_c, 1, 54, 0
1, 28759, Note_on_c, 1, 54, 72
1, 28762, Note_on_c, 1, 57, 0
1, 28799, Note_on_c, 1, 57, 80
1, 28802, Note_on_c, 0, 75, 0
1, 28802, Note_on_c, 0, 74, 72
1, 28802, Note_on_c, 1, 54, 0
1, 28839, Note_on_c, 1, 55, 62
1, 28844, Note_on_c, 1, 57, 0
1, 28881, Note_on_c, 1, 52, 76
1, 28882, Note_on_c, 1, 55, 0
1, 28921, Note_on_c, 0, 83, 80
1, 28921, Note_on_c, 1, 55, 76
1, 28925, Note_on_c, 1, 52, 0
1, 28927, Note_on_c, 0, 84, 0
1, 28961, Note_on_c, 1, 53, 72
1, 28966, Note_on_c, 1, 55, 0
1, 29001, Note_on_c, 1, 50, 76
1, 29003, Note_on_c, 1, 53, 0
1, 29039, Note_on_c, 0, 74, 0
1, 29040, Note_on_c, 0, 83, 0
1, 29040, Note_on_c, 1, 53, 62
1, 29042, Note_on_c, 0, 79, 72
1, 29042, Note_on_c, 0, 84, 98
1, 29043, Note_on_c, 1, 50, 0
1, 29081, Note_on_c, 1, 52, 72
1, 29090, Note_on_c, 1, 53, 0
1, 29121, Note_on_c, 1, 48, 62
1, 29123, Note_on_c, 1, 52, 0
1, 29156, Note_on_c, 0, 79, 0
1, 29159, Note_on_c, 0, 84, 0
1, 29161, Note_on_c, 0, 86, 98
1, 29161, Note_on_c, 0, 77, 76
1, 29161, Note_on_c, 1, 52, 76
1, 29166, Note_on_c, 1, 48, 0
1, 29200, Note_on_c, 1, 50, 62
1, 29204, Note_on_c, 1, 52, 0
1, 29240, Note_on_c, 1, 47, 72
1, 29241, Note_on_c, 1, 50, 0
1, 29265, Note_on_c, 0, 77, 0
1, 29273, Note_on_c, 0, 86, 0
1, 29279, Note_on_c, 0, 79, 89
1, 29279, Note_on_c, 0, 76, 89
1, 29280, Note_on_c, 0, 88, 98
1, 29280, Note_on_c, 1, 47, 0
1, 29281, Note_on_c, 1, 48, 89
1, 29366, Note_on_c, 0, 88, 0
1, 29373, Note_on_c, 0, 76, 0
1, 29374, Note_on_c, 0, 79, 0
1, 29388, Note_on_c, 1, 48, 0
1, 29401, Note_on_c, 0, 79, 76
1, 29441, Note_on_c, 0, 76, 85
1, 29446, Note_on_c, 0, 79, 0
1, 29481, Note_on_c, 0, 72, 80
1, 29484, Note_on_c, 0, 76, 0
1, 29521, Note_on_c, 0, 74, 80
1, 29523, Note_on_c, 0, 72, 0
1, 29561, Note_on_c, 0, 72, 72
1, 29568, Note_on_c, 0, 74, 0
1, 29601, Note_on_c, 0, 72, 0
1, 29601, Note_on_c, 0, 71, 76
1, 29641, Note_on_c, 0, 72, 80
1, 29641, Note_on_c, 1, 52, 72
1, 29641, Note_on_c, 1, 60, 76
1, 29644, Note_on_c, 0, 71, 0
1, 29681, Note_on_c, 0, 70, 76
1, 29688, Note_on_c, 0, 72, 0
1, 29721, Note_on_c, 0, 68, 76
1, 29726, Note_on_c, 0, 70, 0
1, 29743, Note_on_c, 1, 52, 0
1, 29746, Note_on_c, 1, 60, 0
1, 29761, Note_on_c, 0, 69, 93
1, 29761, Note_on_c, 1, 53, 68
1, 29762, Note_on_c, 0, 68, 0
1, 29762, Note_on_c, 1, 60, 62
1, 29831, Note_on_c, 1, 53, 0
1, 29837, Note_on_c, 1, 60, 0
1, 29850, Note_on_c, 0, 69, 0
1, 29882, Note_on_c, 1, 69, 89
1, 29922, Note_on_c, 1, 67, 64
1, 29924, Note_on_c, 1, 69, 0
1, 29962, Note_on_c, 1, 65, 72
1, 29972, Note_on_c, 1, 67, 0
1, 30002, Note_on_c, 1, 64, 76
1, 30010, Note_on_c, 1, 65, 0
1, 30041, Note_on_c, 1, 64, 0
1, 30041, Note_on_c, 1, 62, 68
1, 30081, Note_on_c, 1, 61, 68
1, 30083, Note_on_c, 1, 62, 0
1, 30114, Note_on_c, 1, 61, 0
1, 30119, Note_on_c, 0, 78, 72
1, 30119, Note_on_c, 0, 74, 80
1, 30120, Note_on_c, 1, 62, 76
1, 30161, Note_on_c, 1, 60, 68
1, 30169, Note_on_c, 1, 62, 0
1, 30199, Note_on_c, 1, 58, 62
1, 30202, Note_on_c, 1, 60, 0
1, 30239, Note_on_c, 1, 58, 0
1, 30239, Note_on_c, 1, 59, 62
1, 30241, Note_on_c, 0, 78, 0
1, 30241, Note_on_c, 0, 79, 93
1, 30344, Note_on_c, 0, 74, 0
1, 30345, Note_on_c, 0, 79, 0
1, 30357, Note_on_c, 1, 59, 0
1, 30362, Note_on_c, 0, 67, 89
1, 30402, Note_on_c, 0, 71, 76
1, 30410, Note_on_c, 0, 67, 0
1, 30440, Note_on_c, 0, 71, 0
1, 30442, Note_on_c, 0, 74, 72
1, 30482, Note_on_c, 0, 79, 89
1, 30483, Note_on_c, 0, 74, 0
1, 30522, Note_on_c, 0, 83, 85
1, 30524, Note_on_c, 0, 79, 0
1, 30559, Note_on_c, 0, 83, 0
1, 30562, Note_on_c, 0, 86, 85
1, 30602, Note_on_c, 0, 84, 85
1, 30602, Note_on_c, 1, 60, 72
1, 30602, Note_on_c, 1, 62, 72
1, 30606, Note_on_c, 0, 86, 0
1, 30642, Note_on_c, 0, 81, 68
1, 30648, Note_on_c, 0, 84, 0
1, 30682, Note_on_c, 0, 81, 0
1, 30682, Note_on_c, 0, 78, 62
1, 30717, Note_on_c, 0, 78, 0
1, 30722, Note_on_c, 0, 79, 85
1, 30722, Note_on_c, 1, 59, 68
1, 30723, Note_on_c, 1, 60, 0
1, 30801, Note_on_c, 0, 79, 0
1, 30817, Note_on_c, 1, 59, 0
1, 30820, Note_on_c, 1, 62, 0
1, 30842, Note_on_c, 0, 67, 93
1, 30882, Note_on_c, 0, 71, 57
1, 30890, Note_on_c, 0, 67, 0
1, 30920, Note_on_c, 0, 71, 0
1, 30922, Note_on_c, 0, 74, 72
1, 30962, Note_on_c, 0, 79, 93
1, 30963, Note_on_c, 0, 74, 0
1, 31002, Note_on_c, 0, 79, 0
1, 31002, Note_on_c, 0, 83, 89
1, 31039, Note_on_c, 0, 83, 0
1, 31042, Note_on_c, 0, 86, 93
1, 31082, Note_on_c, 0, 84, 89
1, 31082, Note_on_c, 1, 60, 76
1, 31082, Note_on_c, 1, 57, 68
1, 31083, Note_on_c, 1, 62, 72
1, 31084, Note_on_c, 0, 86, 0
1, 31122, Note_on_c, 0, 81, 72
1, 31126, Note_on_c, 0, 84, 0
1, 31162, Note_on_c, 0, 78, 68
1, 31168, Note_on_c, 0, 81, 0
1, 31191, Note_on_c, 1, 57, 0
1, 31194, Note_on_c, 0, 78, 0
1, 31194, Note_on_c, 1, 60, 0
1, 31199, Note_on_c, 1, 62, 0
1, 31200, Note_on_c, 1, 55, 76
1, 31200, Note_on_c, 1, 59, 89
1, 31200, Note_on_c, 1, 62, 72
1, 31202, Note_on_c, 0, 79, 89
1, 31243, Note_on_c, 0, 83, 85
1, 31256, Note_on_c, 0, 79, 0
1, 31277, Note_on_c, 0, 83, 0
1, 31282, Note_on_c, 0, 86, 89
1, 31293, Note_on_c, 1, 55, 0
1, 31307, Note_on_c, 1, 59, 0
1, 31322, Note_on_c, 0, 84, 89
1, 31323, Note_on_c, 1, 60, 89
1, 31323, Note_on_c, 1, 57, 62
1, 31328, Note_on_c, 0, 86, 0
1, 31362, Note_on_c, 0, 81, 80
1, 31366, Note_on_c, 0, 84, 0
1, 31402, Note_on_c, 0, 78, 85
1, 31406, Note_on_c, 0, 81, 0
1, 31409, Note_on_c, 1, 62, 0
1, 31413, Note_on_c, 1, 57, 0
1, 31419, Note_on_c, 1, 60, 0
1, 31431, Note_on_c, 0, 78, 0
1, 31442, Note_on_c, 0, 79, 93
1, 31442, Note_on_c, 1, 62, 72
1, 31442, Note_on_c, 1, 55, 57
1, 31442, Note_on_c, 1, 59, 72
1, 31482, Note_on_c, 0, 83, 85
1, 31489, Note_on_c, 0, 79, 0
1, 31519, Note_on_c, 0, 83, 0
1, 31522, Note_on_c, 0, 86, 89
1, 31538, Note_on_c, 1, 55, 0
1, 31546, Note_on_c, 1, 59, 0
1, 31561, Note_on_c, 0, 84, 76
1, 31561, Note_on_c, 1, 60, 76
1, 31562, Note_on_c, 1, 57, 55
1, 31563, Note_on_c, 0, 86, 0
1, 31601, Note_on_c, 0, 81, 80
1, 31603, Note_on_c, 0, 84, 0
1, 31641, Note_on_c, 0, 78, 68
1, 31643, Note_on_c, 0, 81, 0
1, 31659, Note_on_c, 1, 57, 0
1, 31662, Note_on_c, 1, 60, 0
1, 31662, Note_on_c, 1, 62, 0
1, 31678, Note_on_c, 0, 78, 0
1, 31681, Note_on_c, 1, 62, 72
1, 31681, Note_on_c, 1, 55, 62
1, 31681, Note_on_c, 1, 59, 85
1, 31770, Note_on_c, 1, 59, 0
1, 31772, Note_on_c, 1, 55, 0
1, 31776, Note_on_c, 1, 62, 0
1, 31799, Note_on_c, 1, 43, 80
1, 31848, Note_on_c, 1, 43, 0
1, 31921, Note_on_c, 1, 45, 93
1, 31951, Note_on_c, 1, 45, 0
1, 32041, Note_on_c, 1, 47, 93
1, 32072, Note_on_c, 1, 47, 0
1, 32162, Note_on_c, 1, 48, 89
1, 32193, Note_on_c, 1, 48, 0
1, 32281, Note_on_c, 1, 52, 93
1, 32311, Note_on_c, 1, 52, 0
1, 32401, Note_on_c, 1, 53, 89
1, 32427, Note_on_c, 1, 53, 0
1, 32522, Note_on_c, 1, 56, 80
1, 32546, Note_on_c, 1, 56, 0
1, 32641, Note_on_c, 1, 57, 80
1, 32695, Note_on_c, 1, 57, 0
1, 32698, Note_on_c, 1, 60, 76
1, 32758, Note_on_c, 1, 59, 72
1, 32767, Note_on_c, 1, 60, 0
1, 32818, Note_on_c, 1, 57, 72
1, 32820, Note_on_c, 1, 59, 0
1, 32878, Note_on_c, 1, 59, 72
1, 32883, Note_on_c, 1, 57, 0
1, 32938, Note_on_c, 1, 60, 76
1, 32943, Note_on_c, 1, 59, 0
1, 32999, Note_on_c, 1, 57, 80
1, 33003, Note_on_c, 1, 60, 0
1, 33057, Note_on_c, 1, 57, 0
1, 33058, Note_on_c, 1, 59, 68
1, 33118, Note_on_c, 1, 60, 80
1, 33120, Note_on_c, 1, 59, 0
1, 33151, Note_on_c, 1, 60, 0
1, 33241, Note_on_c, 1, 57, 93
1, 33260, Note_on_c, 1, 57, 0
1, 33360, Note_on_c, 1, 52, 93
1, 33381, Note_on_c, 1, 52, 0
1, 33481, Note_on_c, 1, 55, 85
1, 33498, Note_on_c, 1, 55, 0
1, 33508, Note_on_c, 1, 54, 56
1, 33513, Note_on_c, 1, 55, 64
1, 33530, Note_on_c, 1, 54, 0
1, 33536, Note_on_c, 1, 55, 0
1, 33539, Note_on_c, 1, 54, 76
1, 33560, Note_on_c, 1, 54, 0
1, 33568, Note_on_c, 1, 52, 64
1, 33572, Note_on_c, 1, 54, 60
1, 33591, Note_on_c, 1, 54, 0
1, 33591, Note_on_c, 1, 52, 0
1, 33599, Note_on_c, 1, 55, 85
1, 33719, Note_on_c, 1, 64, 89
1, 33720, Note_on_c, 0, 67, 98
1, 33740, Note_on_c, 0, 67, 0
1, 33841, Note_on_c, 0, 69, 98
1, 33843, Note_on_c, 1, 65, 64
1, 33851, Note_on_c, 1, 64, 0
1, 33857, Note_on_c, 0, 69, 0
1, 33961, Note_on_c, 1, 65, 0
1, 33961, Note_on_c, 1, 62, 64
1, 33962, Note_on_c, 0, 71, 93
1, 33977, Note_on_c, 0, 71, 0
1, 34081, Note_on_c, 0, 72, 89
1, 34082, Note_on_c, 1, 64, 72
1, 34085, Note_on_c, 1, 62, 0
1, 34102, Note_on_c, 0, 72, 0
1, 34202, Note_on_c, 0, 76, 93
1, 34202, Note_on_c, 1, 64, 0
1, 34202, Note_on_c, 1, 61, 60
1, 34218, Note_on_c, 0, 76, 0
1, 34320, Note_on_c, 1, 61, 0
1, 34322, Note_on_c, 0, 77, 89
1, 34322, Note_on_c, 1, 62, 64
1, 34341, Note_on_c, 0, 77, 0
1, 34441, Note_on_c, 1, 64, 68
1, 34442, Note_on_c, 0, 80, 113
1, 34445, Note_on_c, 1, 62, 0
1, 34462, Note_on_c, 0, 80, 0
1, 34536, Note_on_c, 1, 64, 0
1, 34536, Note_on_c, 1, 55, 0
1, 34560, Note_on_c, 1, 55, 60
1, 34560, Note_on_c, 1, 65, 60
1, 34562, Note_on_c, 0, 81, 93
1, 34620, Note_on_c, 0, 81, 0
1, 34622, Note_on_c, 0, 84, 89
1, 34681, Note_on_c, 0, 83, 76
1, 34683, Note_on_c, 0, 84, 0
1, 34735, Note_on_c, 0, 83, 0
1, 34739, Note_on_c, 0, 81, 89
1, 34798, Note_on_c, 0, 81, 0
1, 34799, Note_on_c, 0, 83, 93
1, 34859, Note_on_c, 0, 83, 0
1, 34859, Note_on_c, 0, 84, 93
1, 34921, Note_on_c, 0, 81, 93
1, 34924, Note_on_c, 0, 84, 0
1, 34981, Note_on_c, 0, 83, 89
1, 34988, Note_on_c, 0, 81, 0
1, 35042, Note_on_c, 0, 83, 0
1, 35042, Note_on_c, 0, 84, 80
1, 35099, Note_on_c, 1, 62, 80
1, 35105, Note_on_c, 1, 65, 0
1, 35159, Note_on_c, 1, 64, 80
1, 35164, Note_on_c, 1, 62, 0
1, 35219, Note_on_c, 1, 64, 0
1, 35219, Note_on_c, 1, 65, 68
1, 35279, Note_on_c, 1, 64, 76
1, 35287, Note_on_c, 1, 65, 0
1, 35341, Note_on_c, 1, 60, 72
1, 35344, Note_on_c, 1, 64, 0
1, 35401, Note_on_c, 1, 66, 62
1, 35406, Note_on_c, 1, 60, 0
1, 35461, Note_on_c, 1, 62, 76
1, 35466, Note_on_c, 1, 66, 0
1, 35505, Note_on_c, 1, 55, 0
1, 35520, Note_on_c, 1, 62, 0
1, 35522, Note_on_c, 1, 55, 64
1, 35522, Note_on_c, 1, 67, 80
1, 35581, Note_on_c, 0, 82, 85
1, 35583, Note_on_c, 0, 84, 0
1, 35642, Note_on_c, 0, 83, 89
1, 35646, Note_on_c, 0, 82, 0
1, 35701, Note_on_c, 1, 64, 72
1, 35703, Note_on_c, 1, 67, 0
1, 35760, Note_on_c, 1, 64, 0
1, 35760, Note_on_c, 1, 65, 80
1, 35820, Note_on_c, 0, 83, 0
1, 35820, Note_on_c, 0, 80, 89
1, 35881, Note_on_c, 0, 81, 89
1, 35885, Note_on_c, 0, 80, 0
1, 35939, Note_on_c, 1, 63, 68
1, 35947, Note_on_c, 1, 65, 0
1, 36001, Note_on_c, 1, 64, 68
1, 36003, Note_on_c, 1, 63, 0
1, 36061, Note_on_c, 0, 78, 72
1, 36065, Note_on_c, 0, 81, 0
1, 36121, Note_on_c, 0, 79, 89
1, 36122, Note_on_c, 0, 78, 0
1, 36181, Note_on_c, 1, 61, 64
1, 36200, Note_on_c, 1, 64, 0
1, 36238, Note_on_c, 1, 61, 0
1, 36240, Note_on_c, 1, 62, 76
1, 36285, Note_on_c, 0, 79, 0
1, 36299, Note_on_c, 0, 76, 89
1, 36319, Note_on_c, 0, 76, 0
1, 36359, Note_on_c, 0, 77, 85
1, 36379, Note_on_c, 0, 77, 0
1, 36416, Note_on_c, 1, 55, 0
1, 36418, Note_on_c, 1, 56, 62
1, 36421, Note_on_c, 0, 77, 80
1, 36440, Note_on_c, 0, 77, 0
1, 36476, Note_on_c, 1, 56, 0
1, 36478, Note_on_c, 1, 57, 76
1, 36481, Note_on_c, 0, 77, 89
1, 36531, Note_on_c, 0, 77, 0
1, 36539, Note_on_c, 0, 79, 68
1, 36569, Note_on_c, 0, 77, 72
1, 36577, Note_on_c, 0, 79, 0
1, 36598, Note_on_c, 0, 77, 0
1, 36598, Note_on_c, 0, 76, 76
1, 36628, Note_on_c, 0, 77, 76
1, 36631, Note_on_c, 0, 76, 0
1, 36653, Note_on_c, 0, 77, 0
1, 36658, Note_on_c, 0, 79, 85
1, 36719, Note_on_c, 0, 81, 89
1, 36725, Note_on_c, 0, 79, 0
1, 36842, Note_on_c, 0, 79, 85
1, 36858, Note_on_c, 0, 81, 0
1, 36901, Note_on_c, 0, 77, 76
1, 36908, Note_on_c, 0, 79, 0
1, 36961, Note_on_c, 0, 76, 89
1, 36962, Note_on_c, 0, 77, 0
1, 37077, Note_on_c, 0, 76, 0
1, 37081, Note_on_c, 0, 82, 98
1, 37201, Note_on_c, 1, 61, 98
1, 37208, Note_on_c, 1, 62, 0
1, 37321, Note_on_c, 0, 81, 89
1, 37325, Note_on_c, 0, 82, 0
1, 37382, Note_on_c, 0, 79, 76
1, 37390, Note_on_c, 0, 81, 0
1, 37437, Note_on_c, 1, 61, 0
1, 37439, Note_on_c, 1, 62, 85
1, 37442, Note_on_c, 0, 77, 76
1, 37445, Note_on_c, 0, 79, 0
1, 37451, Note_on_c, 1, 57, 0
1, 37466, Note_on_c, 0, 77, 0
1, 37501, Note_on_c, 0, 82, 68
1, 37561, Note_on_c, 0, 81, 72
1, 37564, Note_on_c, 1, 62, 0
1, 37570, Note_on_c, 0, 82, 0
1, 37621, Note_on_c, 0, 81, 0
1, 37621, Note_on_c, 0, 80, 72
1, 37681, Note_on_c, 0, 81, 76
1, 37686, Note_on_c, 0, 80, 0
1, 37740, Note_on_c, 0, 81, 0
1, 37741, Note_on_c, 0, 76, 68
1, 37799, Note_on_c, 1, 61, 64
1, 37799, Note_on_c, 1, 69, 80
1, 37801, Note_on_c, 0, 81, 68
1, 37806, Note_on_c, 0, 76, 0
1, 37857, Note_on_c, 0, 81, 0
1, 37859, Note_on_c, 0, 79, 76
1, 37918, Note_on_c, 0, 77, 89
1, 37921, Note_on_c, 0, 79, 0
1, 37921, Note_on_c, 1, 62, 72
1, 37930, Note_on_c, 1, 61, 0
1, 37940, Note_on_c, 0, 77, 0
1, 37981, Note_on_c, 0, 81, 76
1, 38027, Note_on_c, 1, 62, 0
1, 38034, Note_on_c, 1, 69, 0
1, 38041, Note_on_c, 0, 79, 62
1, 38047, Note_on_c, 0, 81, 0
1, 38101, Note_on_c, 0, 78, 72
1, 38103, Note_on_c, 0, 79, 0
1, 38161, Note_on_c, 0, 79, 72
1, 38167, Note_on_c, 0, 78, 0
1, 38221, Note_on_c, 0, 74, 68
1, 38223, Note_on_c, 0, 79, 0
1, 38279, Note_on_c, 1, 67, 76
1, 38279, Note_on_c, 1, 59, 68
1, 38281, Note_on_c, 0, 79, 72
1, 38286, Note_on_c, 0, 74, 0
1, 38339, Note_on_c, 0, 77, 76
1, 38342, Note_on_c, 0, 79, 0
1, 38401, Note_on_c, 1, 60, 72
1, 38406, Note_on_c, 1, 59, 0
1, 38461, Note_on_c, 0, 75, 72
1, 38467, Note_on_c, 0, 77, 0
1, 38521, Note_on_c, 0, 77, 72
1, 38524, Note_on_c, 0, 75, 0
1, 38582, Note_on_c, 0, 76, 80
1, 38589, Note_on_c, 0, 77, 0
1, 38639, Note_on_c, 1, 65, 76
1, 38640, Note_on_c, 1, 53, 55
1, 38645, Note_on_c, 1, 60, 0
1, 38650, Note_on_c, 1, 67, 0
1, 38693, Note_on_c, 0, 76, 0
1, 38699, Note_on_c, 0, 69, 68
1, 38759, Note_on_c, 0, 76, 85
1, 38763, Note_on_c, 0, 69, 0
1, 38821, Note_on_c, 0, 74, 80
1, 38826, Note_on_c, 0, 76, 0
1, 38879, Note_on_c, 1, 64, 68
1, 38880, Note_on_c, 1, 55, 55
1, 38891, Note_on_c, 1, 65, 0
1, 38892, Note_on_c, 1, 53, 0
1, 38939, Note_on_c, 0, 67, 72
1, 38940, Note_on_c, 0, 74, 0
1, 39000, Note_on_c, 0, 74, 72
1, 39004, Note_on_c, 0, 67, 0
1, 39060, Note_on_c, 0, 72, 68
1, 39063, Note_on_c, 0, 74, 0
1, 39121, Note_on_c, 1, 62, 72
1, 39125, Note_on_c, 1, 64, 0
1, 39181, Note_on_c, 0, 65, 64
1, 39183, Note_on_c, 0, 72, 0
1, 39241, Note_on_c, 0, 72, 76
1, 39252, Note_on_c, 0, 65, 0
1, 39302, Note_on_c, 0, 71, 80
1, 39304, Note_on_c, 0, 72, 0
1, 39357, Note_on_c, 1, 62, 0
1, 39359, Note_on_c, 1, 55, 0
1, 39361, Note_on_c, 0, 71, 0
1, 39361, Note_on_c, 1, 57, 98
1, 39361, Note_on_c, 1, 60, 93
1, 39361, Note_on_c, 1, 66, 93
1, 39401, Note_on_c, 0, 72, 85
1, 39440, Note_on_c, 0, 74, 76
1, 39444, Note_on_c, 0, 72, 0
1, 39480, Note_on_c, 0, 76, 89
1, 39486, Note_on_c, 0, 74, 0
1, 39519, Note_on_c, 0, 78, 64
1, 39521, Note_on_c, 0, 76, 0
1, 39556, Note_on_c, 0, 78, 0
1, 39559, Note_on_c, 0, 79, 89
1, 39598, Note_on_c, 0, 81, 72
1, 39601, Note_on_c, 0, 79, 0
1, 39639, Note_on_c, 0, 83, 80
1, 39642, Note_on_c, 0, 81, 0
1, 39677, Note_on_c, 0, 83, 0
1, 39679, Note_on_c, 0, 84, 85
1, 39709, Note_on_c, 1, 66, 0
1, 39710, Note_on_c, 1, 60, 0
1, 39710, Note_on_c, 1, 57, 0
1, 39718, Note_on_c, 0, 86, 89
1, 39722, Note_on_c, 0, 84, 0
1, 39723, Note_on_c, 1, 66, 89
1, 39723, Note_on_c, 1, 57, 89
1, 39723, Note_on_c, 1, 60, 98
1, 39758, Note_on_c, 0, 88, 80
1, 39761, Note_on_c, 0, 86, 0
1, 39799, Note_on_c, 0, 84, 76
1, 39808, Note_on_c, 0, 88, 0
1, 39814, Note_on_c, 1, 57, 0
1, 39818, Note_on_c, 1, 60, 0
1, 39819, Note_on_c, 1, 66, 0
1, 39834, Note_on_c, 0, 84, 0
1, 39840, Note_on_c, 1, 67, 43
1, 39843, Note_on_c, 1, 64, 39
1, 39843, Note_on_c, 1, 60, 49
1, 39843, Note_on_c, 1, 55, 49
1, 39883, Note_on_c, 0, 88, 76
1, 39924, Note_on_c, 0, 86, 59
1, 39933, Note_on_c, 0, 88, 0
1, 39963, Note_on_c, 0, 84, 72
1, 39969, Note_on_c, 0, 86, 0
1, 40003, Note_on_c, 0, 83, 76
1, 40010, Note_on_c, 0, 84, 0
1, 40042, Note_on_c, 0, 83, 0
1, 40043, Note_on_c, 0, 81, 62
1, 40078, Note_on_c, 0, 81, 0
1, 40083, Note_on_c, 0, 79, 68
1, 40122, Note_on_c, 0, 77, 57
1, 40124, Note_on_c, 0, 79, 0
1, 40142, Note_on_c, 1, 67, 0
1, 40154, Note_on_c, 1, 64, 0
1, 40157, Note_on_c, 1, 60, 0
1, 40161, Note_on_c, 0, 77, 0
1, 40161, Note_on_c, 1, 55, 0
1, 40162, Note_on_c, 0, 76, 59
1, 40201, Note_on_c, 1, 55, 60
1, 40201, Note_on_c, 1, 64, 53
1, 40202, Note_on_c, 0, 76, 0
1, 40202, Note_on_c, 0, 74, 57
1, 40202, Note_on_c, 1, 60, 52
1, 40240, Note_on_c, 0, 74, 0
1, 40242, Note_on_c, 0, 76, 64
1, 40281, Note_on_c, 0, 72, 64
1, 40282, Note_on_c, 1, 55, 0
1, 40284, Note_on_c, 0, 76, 0
1, 40284, Note_on_c, 1, 60, 0
1, 40285, Note_on_c, 1, 64, 0
1, 40308, Note_on_c, 0, 72, 0
1, 40321, Note_on_c, 1, 64, 89
1, 40321, Note_on_c, 1, 57, 107
1, 40321, Note_on_c, 1, 60, 98
1, 40321, Note_on_c, 1, 54, 93
1, 40361, Note_on_c, 0, 72, 89
1, 40401, Note_on_c, 0, 74, 89
1, 40402, Note_on_c, 0, 72, 0
1, 40441, Note_on_c, 0, 76, 93
1, 40447, Note_on_c, 0, 74, 0
1, 40479, Note_on_c, 0, 78, 68
1, 40480, Note_on_c, 0, 76, 0
1, 40517, Note_on_c, 0, 78, 0
1, 40519, Note_on_c, 0, 79, 93
1, 40559, Note_on_c, 0, 81, 72
1, 40561, Note_on_c, 0, 79, 0
1, 40599, Note_on_c, 0, 83, 80
1, 40606, Note_on_c, 0, 81, 0
1, 40637, Note_on_c, 0, 83, 0
1, 40639, Note_on_c, 0, 84, 85
1, 40652, Note_on_c, 1, 60, 0
1, 40654, Note_on_c, 1, 54, 0
1, 40654, Note_on_c, 1, 57, 0
1, 40655, Note_on_c, 1, 64, 0
1, 40679, Note_on_c, 0, 86, 89
1, 40679, Note_on_c, 1, 54, 72
1, 40679, Note_on_c, 1, 64, 89
1, 40680, Note_on_c, 1, 57, 89
1, 40680, Note_on_c, 1, 60, 89
1, 40681, Note_on_c, 0, 84, 0
1, 40719, Note_on_c, 0, 88, 89
1, 40722, Note_on_c, 0, 86, 0
1, 40759, Note_on_c, 0, 84, 85
1, 40765, Note_on_c, 0, 88, 0
1, 40784, Note_on_c, 1, 60, 0
1, 40787, Note_on_c, 1, 57, 0
1, 40787, Note_on_c, 1, 64, 0
1, 40788, Note_on_c, 0, 84, 0
1, 40795, Note_on_c, 1, 54, 0
1, 40801, Note_on_c, 1, 55, 62
1, 40801, Note_on_c, 1, 64, 56
1, 40802, Note_on_c, 1, 60, 56
1, 40841, Note_on_c, 0, 88, 93
1, 40880, Note_on_c, 0, 86, 89
1, 40887, Note_on_c, 0, 88, 0
1, 40919, Note_on_c, 0, 84, 68
1, 40926, Note_on_c, 0, 86, 0
1, 40959, Note_on_c, 0, 83, 76
1, 40965, Note_on_c, 0, 84, 0
1, 40999, Note_on_c, 0, 81, 56
1, 41000, Note_on_c, 0, 83, 0
1, 41035, Note_on_c, 0, 81, 0
1, 41039, Note_on_c, 0, 79, 60
1, 41079, Note_on_c, 0, 77, 52
1, 41082, Note_on_c, 0, 79, 0
1, 41114, Note_on_c, 0, 77, 0
1, 41118, Note_on_c, 0, 76, 48
1, 41137, Note_on_c, 1, 60, 0
1, 41142, Note_on_c, 1, 64, 0
1, 41143, Note_on_c, 1, 55, 0
1, 41158, Note_on_c, 0, 74, 60
1, 41161, Note_on_c, 1, 60, 62
1, 41162, Note_on_c, 0, 76, 0
1, 41162, Note_on_c, 1, 64, 72
1, 41162, Note_on_c, 1, 55, 64
1, 41199, Note_on_c, 0, 76, 62
1, 41200, Note_on_c, 0, 74, 0
1, 41239, Note_on_c, 0, 72, 68
1, 41249, Note_on_c, 0, 76, 0
1, 41251, Note_on_c, 1, 55, 0
1, 41252, Note_on_c, 1, 64, 0
1, 41252, Note_on_c, 1, 60, 0
1, 41265, Note_on_c, 0, 72, 0
1, 41279, Note_on_c, 1, 66, 93
1, 41280, Note_on_c, 1, 60, 93
1, 41280, Note_on_c, 1, 63, 98
1, 41280, Note_on_c, 1, 56, 89
1, 41321, Note_on_c, 0, 72, 102
1, 41360, Note_on_c, 0, 72, 0
1, 41361, Note_on_c, 0, 74, 89
1, 41401, Note_on_c, 0, 75, 76
1, 41405, Note_on_c, 0, 74, 0
1, 41439, Note_on_c, 0, 78, 62
1, 41440, Note_on_c, 0, 75, 0
1, 41474, Note_on_c, 0, 78, 0
1, 41479, Note_on_c, 0, 79, 93
1, 41514, Note_on_c, 0, 79, 0
1, 41519, Note_on_c, 0, 80, 76
1, 41559, Note_on_c, 0, 83, 76
1, 41560, Note_on_c, 0, 80, 0
1, 41594, Note_on_c, 0, 83, 0
1, 41598, Note_on_c, 0, 84, 85
1, 41612, Note_on_c, 1, 63, 0
1, 41614, Note_on_c, 1, 66, 0
1, 41615, Note_on_c, 1, 60, 0
1, 41615, Note_on_c, 1, 56, 0
1, 41634, Note_on_c, 0, 84, 0
1, 41638, Note_on_c, 0, 86, 76
1, 41639, Note_on_c, 1, 66, 72
1, 41639, Note_on_c, 1, 63, 72
1, 41639, Note_on_c, 1, 60, 72
1, 41639, Note_on_c, 1, 56, 76
1, 41678, Note_on_c, 0, 87, 72
1, 41686, Note_on_c, 0, 86, 0
1, 41719, Note_on_c, 0, 84, 76
1, 41723, Note_on_c, 0, 87, 0
1, 41734, Note_on_c, 1, 60, 0
1, 41734, Note_on_c, 1, 63, 0
1, 41741, Note_on_c, 0, 84, 0
1, 41741, Note_on_c, 1, 56, 0
1, 41743, Note_on_c, 1, 66, 0
1, 41760, Note_on_c, 0, 88, 98
1, 41761, Note_on_c, 1, 64, 62
1, 41761, Note_on_c, 1, 60, 64
1, 41761, Note_on_c, 1, 55, 64
1, 41761, Note_on_c, 1, 67, 76
1, 41791, Note_on_c, 0, 86, 85
1, 41798, Note_on_c, 0, 88, 0
1, 41821, Note_on_c, 0, 84, 80
1, 41829, Note_on_c, 0, 86, 0
1, 41851, Note_on_c, 0, 83, 72
1, 41862, Note_on_c, 0, 84, 0
1, 41881, Note_on_c, 0, 81, 76
1, 41885, Note_on_c, 0, 83, 0
1, 41911, Note_on_c, 0, 79, 72
1, 41915, Note_on_c, 0, 81, 0
1, 41937, Note_on_c, 1, 67, 0
1, 41937, Note_on_c, 1, 64, 0
1, 41937, Note_on_c, 1, 60, 0
1, 41937, Note_on_c, 1, 55, 0
1, 41941, Note_on_c, 0, 77, 56
1, 41948, Note_on_c, 0, 79, 0
1, 41972, Note_on_c, 0, 76, 64
1, 41973, Note_on_c, 0, 77, 0
1, 42002, Note_on_c, 0, 84, 89
1, 42003, Note_on_c, 0, 76, 0
1, 42032, Note_on_c, 0, 83, 72
1, 42041, Note_on_c, 0, 84, 0
1, 42061, Note_on_c, 0, 81, 72
1, 42069, Note_on_c, 0, 83, 0
1, 42091, Note_on_c, 0, 79, 72
1, 42101, Note_on_c, 0, 81, 0
1, 42121, Note_on_c, 0, 79, 0
1, 42121, Note_on_c, 0, 77, 72
1, 42145, Note_on_c, 0, 77, 0
1, 42151, Note_on_c, 0, 76, 62
1, 42181, Note_on_c, 0, 74, 62
1, 42186, Note_on_c, 0, 76, 0
1, 42211, Note_on_c, 0, 72, 76
1, 42216, Note_on_c, 0, 74, 0
1, 42238, Note_on_c, 1, 60, 76
1, 42238, Note_on_c, 1, 55, 68
1, 42241, Note_on_c, 0, 76, 76
1, 42244, Note_on_c, 0, 72, 0
1, 42271, Note_on_c, 0, 76, 0
1, 42271, Note_on_c, 0, 74, 76
1, 42299, Note_on_c, 0, 74, 0
1, 42300, Note_on_c, 0, 76, 72
1, 42331, Note_on_c, 0, 74, 72
1, 42334, Note_on_c, 0, 76, 0
1, 42355, Note_on_c, 0, 74, 0
1, 42359, Note_on_c, 0, 76, 76
1, 42389, Note_on_c, 0, 74, 80
1, 42392, Note_on_c, 0, 76, 0
1, 42419, Note_on_c, 0, 76, 76
1, 42421, Note_on_c, 0, 74, 0
1, 42449, Note_on_c, 0, 74, 72
1, 42452, Note_on_c, 0, 76, 0
1, 42476, Note_on_c, 0, 74, 0
1, 42479, Note_on_c, 0, 76, 85
1, 42483, Note_on_c, 1, 59, 70
1, 42508, Note_on_c, 0, 74, 68
1, 42509, Note_on_c, 0, 76, 0
1, 42509, Note_on_c, 1, 60, 0
1, 42539, Note_on_c, 0, 76, 72
1, 42541, Note_on_c, 0, 74, 0
1, 42568, Note_on_c, 0, 74, 72
1, 42570, Note_on_c, 0, 76, 0
1, 42599, Note_on_c, 0, 76, 76
1, 42600, Note_on_c, 0, 74, 0
1, 42629, Note_on_c, 0, 74, 62
1, 42636, Note_on_c, 0, 76, 0
1, 42659, Note_on_c, 0, 72, 64
1, 42662, Note_on_c, 0, 74, 0
1, 42689, Note_on_c, 0, 74, 76
1, 42691, Note_on_c, 0, 72, 0
1, 42712, Note_on_c, 1, 59, 0
1, 42717, Note_on_c, 0, 74, 0
1, 42721, Note_on_c, 1, 48, 49
1, 42721, Note_on_c, 1, 36, 50
1, 42722, Note_on_c, 0, 60, 89
1, 42728, Note_on_c, 1, 55, 0
1, 42761, Note_on_c, 0, 64, 72
1, 42766, Note_on_c, 0, 60, 0
1, 42798, Note_on_c, 0, 64, 0
1, 42801, Note_on_c, 0, 67, 72
1, 42835, Note_on_c, 0, 67, 0
1, 42839, Note_on_c, 0, 72, 93
1, 42877, Note_on_c, 0, 72, 0
1, 42879, Note_on_c, 0, 76, 80
1, 42913, Note_on_c, 0, 76, 0
1, 42918, Note_on_c, 0, 79, 80
1, 42959, Note_on_c, 0, 79, 0
1, 42959, Note_on_c, 0, 84, 93
1, 42999, Note_on_c, 0, 79, 57
1, 43001, Note_on_c, 0, 84, 0
1, 43038, Note_on_c, 0, 76, 64
1, 43040, Note_on_c, 0, 79, 0
1, 43077, Note_on_c, 0, 76, 0
1, 43078, Note_on_c, 0, 83, 93
1, 43119, Note_on_c, 0, 77, 52
1, 43147, Note_on_c, 0, 83, 0
1, 43155, Note_on_c, 0, 77, 0
1, 43158, Note_on_c, 0, 74, 56
1, 43195, Note_on_c, 0, 74, 0
1, 43198, Note_on_c, 0, 81, 102
1, 43206, Note_on_c, 1, 36, 0
1, 43206, Note_on_c, 1, 48, 0
1, 43238, Note_on_c, 0, 76, 50
1, 43245, Note_on_c, 0, 81, 0
1, 43278, Note_on_c, 0, 76, 0
1, 43278, Note_on_c, 0, 72, 60
1, 43317, Note_on_c, 0, 72, 0
1, 43318, Note_on_c, 0, 79, 98
1, 43358, Note_on_c, 0, 74, 62
1, 43362, Note_on_c, 0, 79, 0
1, 43399, Note_on_c, 0, 71, 62
1, 43400, Note_on_c, 0, 74, 0
1, 43435, Note_on_c, 0, 71, 0
1, 43438, Note_on_c, 0, 77, 89
1, 43479, Note_on_c, 0, 72, 37
1, 43498, Note_on_c, 0, 77, 0
1, 43518, Note_on_c, 0, 72, 0
1, 43518, Note_on_c, 0, 69, 55
1, 43556, Note_on_c, 0, 69, 0
1, 43559, Note_on_c, 0, 76, 93
1, 43599, Note_on_c, 0, 71, 60
1, 43606, Note_on_c, 0, 76, 0
1, 43639, Note_on_c, 0, 67, 59
1, 43645, Note_on_c, 0, 71, 0
1, 43668, Note_on_c, 0, 67, 0
1, 43681, Note_on_c, 0, 64, 93
1, 43720, Note_on_c, 0, 64, 0
1, 43721, Note_on_c, 0, 70, 62
1, 43759, Note_on_c, 0, 70, 0
1, 43761, Note_on_c, 0, 73, 59
1, 43801, Note_on_c, 0, 73, 0
1, 43801, Note_on_c, 0, 65, 93
1, 43801, Note_on_c, 1, 53, 80
1, 43840, Note_on_c, 0, 65, 0
1, 43841, Note_on_c, 0, 69, 55
1, 43881, Note_on_c, 0, 69, 0
1, 43881, Note_on_c, 0, 74, 62
1, 43921, Note_on_c, 0, 74, 0
1, 43922, Note_on_c, 0, 64, 89
1, 43922, Note_on_c, 1, 55, 80
1, 43927, Note_on_c, 1, 53, 0
1, 43961, Note_on_c, 0, 64, 0
1, 43962, Note_on_c, 0, 67, 62
1, 43997, Note_on_c, 0, 67, 0
1, 44002, Note_on_c, 0, 72, 56
1, 44041, Note_on_c, 0, 72, 0
1, 44042, Note_on_c, 0, 62, 89
1, 44042, Note_on_c, 1, 43, 76
1, 44043, Note_on_c, 1, 55, 0
1, 44079, Note_on_c, 0, 62, 0
1, 44082, Note_on_c, 0, 65, 39
1, 44119, Note_on_c, 0, 65, 0
1, 44122, Note_on_c, 0, 71, 62
1, 44157, Note_on_c, 0, 71, 0
1, 44162, Note_on_c, 0, 60, 76
1, 44162, Note_on_c, 1, 48, 68
1, 44162, Note_on_c, 1, 36, 76
1, 44165, Note_on_c, 1, 43, 0
1, 44202, Note_on_c, 0, 60, 0
1, 44202, Note_on_c, 0, 64, 55
1, 44241, Note_on_c, 0, 64, 0
1, 44243, Note_on_c, 0, 67, 48
1, 44268, Note_on_c, 0, 67, 0
1, 44282, Note_on_c, 0, 72, 85
1, 44323, Note_on_c, 0, 76, 72
1, 44326, Note_on_c, 0, 72, 0
1, 44359, Note_on_c, 0, 76, 0
1, 44363, Note_on_c, 0, 79, 64
1, 44400, Note_on_c, 0, 79, 0
1, 44402, Note_on_c, 0, 84, 85
1, 44442, Note_on_c, 0, 79, 59
1, 44444, Note_on_c, 0, 84, 0
1, 44479, Note_on_c, 0, 79, 0
1, 44482, Note_on_c, 0, 76, 56
1, 44516, Note_on_c, 0, 76, 0
1, 44521, Note_on_c, 0, 83, 89
1, 44561, Note_on_c, 0, 77, 50
1, 44566, Note_on_c, 0, 83, 0
1, 44600, Note_on_c, 0, 77, 0
1, 44601, Note_on_c, 0, 74, 57
1, 44636, Note_on_c, 1, 48, 0
1, 44637, Note_on_c, 0, 74, 0
1, 44638, Note_on_c, 1, 36, 0
1, 44641, Note_on_c, 0, 81, 98
1, 44681, Note_on_c, 0, 76, 49
1, 44704, Note_on_c, 0, 81, 0
1, 44716, Note_on_c, 0, 76, 0
1, 44721, Note_on_c, 0, 72, 50
1, 44758, Note_on_c, 0, 72, 0
1, 44761, Note_on_c, 0, 79, 89
1, 44801, Note_on_c, 0, 74, 48
1, 44804, Note_on_c, 0, 79, 0
1, 44837, Note_on_c, 0, 74, 0
1, 44841, Note_on_c, 0, 71, 53
1, 44875, Note_on_c, 0, 71, 0
1, 44879, Note_on_c, 0, 77, 93
1, 44921, Note_on_c, 0, 72, 51
1, 44922, Note_on_c, 0, 77, 0
1, 44958, Note_on_c, 0, 72, 0
1, 44961, Note_on_c, 0, 69, 57
1, 44998, Note_on_c, 0, 69, 0
1, 45001, Note_on_c, 0, 76, 89
1, 45041, Note_on_c, 0, 71, 47
1, 45045, Note_on_c, 0, 76, 0
1, 45079, Note_on_c, 0, 71, 0
1, 45081, Note_on_c, 0, 67, 59
1, 45107, Note_on_c, 0, 67, 0
1, 45121, Note_on_c, 0, 64, 76
1, 45161, Note_on_c, 0, 70, 52
1, 45169, Note_on_c, 0, 64, 0
1, 45200, Note_on_c, 0, 70, 0
1, 45201, Note_on_c, 0, 73, 55
1, 45238, Note_on_c, 0, 73, 0
1, 45240, Note_on_c, 1, 53, 76
1, 45241, Note_on_c, 0, 65, 76
1, 45281, Note_on_c, 0, 65, 0
1, 45282, Note_on_c, 0, 69, 56
1, 45320, Note_on_c, 0, 69, 0
1, 45322, Note_on_c, 0, 74, 55
1, 45358, Note_on_c, 0, 74, 0
1, 45361, Note_on_c, 0, 64, 85
1, 45362, Note_on_c, 1, 55, 72
1, 45367, Note_on_c, 1, 53, 0
1, 45396, Note_on_c, 0, 64, 0
1, 45401, Note_on_c, 0, 67, 43
1, 45441, Note_on_c, 0, 67, 0
1, 45442, Note_on_c, 0, 72, 60
1, 45481, Note_on_c, 0, 72, 0
1, 45481, Note_on_c, 1, 43, 72
1, 45482, Note_on_c, 0, 62, 85
1, 45482, Note_on_c, 1, 55, 0
1, 45517, Note_on_c, 0, 62, 0
1, 45521, Note_on_c, 0, 65, 52
1, 45561, Note_on_c, 0, 65, 0
1, 45562, Note_on_c, 0, 71, 56
1, 45599, Note_on_c, 0, 71, 0
1, 45601, Note_on_c, 1, 48, 72
1, 45602, Note_on_c, 0, 64, 93
1, 45603, Note_on_c, 1, 43, 0
1, 45638, Note_on_c, 0, 64, 0
1, 45641, Note_on_c, 0, 67, 59
1, 45682, Note_on_c, 0, 67, 0
1, 45682, Note_on_c, 0, 72, 72
1, 45722, Note_on_c, 0, 72, 0
1, 45722, Note_on_c, 0, 63, 93
1, 45759, Note_on_c, 0, 63, 0
1, 45762, Note_on_c, 0, 66, 64
1, 45799, Note_on_c, 0, 66, 0
1, 45801, Note_on_c, 0, 72, 68
1, 45839, Note_on_c, 0, 72, 0
1, 45841, Note_on_c, 0, 64, 89
1, 45881, Note_on_c, 0, 67, 62
1, 45888, Note_on_c, 0, 64, 0
1, 45920, Note_on_c, 0, 67, 0
1, 45921, Note_on_c, 0, 72, 64
1, 45962, Note_on_c, 0, 72, 0
1, 45962, Note_on_c, 0, 63, 76
1, 45999, Note_on_c, 0, 63, 0
1, 46001, Note_on_c, 0, 66, 62
1, 46037, Note_on_c, 0, 66, 0
1, 46041, Note_on_c, 0, 72, 62
1, 46078, Note_on_c, 0, 72, 0
1, 46081, Note_on_c, 0, 64, 89
1, 46120, Note_on_c, 0, 64, 0
1, 46121, Note_on_c, 0, 67, 76
1, 46159, Note_on_c, 0, 67, 0
1, 46160, Note_on_c, 0, 72, 62
1, 46197, Note_on_c, 1, 48, 0
1, 46199, Note_on_c, 1, 53, 68
1, 46201, Note_on_c, 0, 69, 89
1, 46203, Note_on_c, 0, 72, 0
1, 46241, Note_on_c, 0, 65, 64
1, 46242, Note_on_c, 0, 69, 0
1, 46280, Note_on_c, 0, 65, 0
1, 46281, Note_on_c, 0, 62, 62
1, 46318, Note_on_c, 0, 62, 0
1, 46320, Note_on_c, 1, 55, 72
1, 46321, Note_on_c, 0, 67, 89
1, 46321, Note_on_c, 1, 53, 0
1, 46361, Note_on_c, 0, 64, 60
1, 46364, Note_on_c, 0, 67, 0
1, 46399, Note_on_c, 0, 64, 0
1, 46401, Note_on_c, 0, 60, 60
1, 46437, Note_on_c, 0, 60, 0
1, 46441, Note_on_c, 0, 65, 89
1, 46441, Note_on_c, 1, 43, 64
1, 46444, Note_on_c, 1, 55, 0
1, 46481, Note_on_c, 0, 62, 62
1, 46483, Note_on_c, 0, 65, 0
1, 46521, Note_on_c, 0, 62, 0
1, 46521, Note_on_c, 0, 59, 55
1, 46544, Note_on_c, 0, 59, 0
1, 46561, Note_on_c, 0, 55, 72
1, 46561, Note_on_c, 1, 43, 0
1, 46561, Note_on_c, 1, 36, 64
1, 46561, Note_on_c, 1, 48, 59
1, 46601, Note_on_c, 0, 60, 57
1, 46609, Note_on_c, 0, 55, 0
1, 46641, Note_on_c, 0, 60, 0
1, 46641, Note_on_c, 0, 64, 62
1, 46680, Note_on_c, 0, 64, 0
1, 46681, Note_on_c, 0, 54, 89
1, 46719, Note_on_c, 0, 54, 0
1, 46720, Note_on_c, 0, 60, 76
1, 46761, Note_on_c, 0, 63, 60
1, 46763, Note_on_c, 0, 60, 0
1, 46799, Note_on_c, 0, 63, 0
1, 46801, Note_on_c, 0, 55, 76
1, 46841, Note_on_c, 0, 60, 57
1, 46845, Note_on_c, 0, 55, 0
1, 46880, Note_on_c, 0, 60, 0
1, 46881, Note_on_c, 0, 64, 59
1, 46920, Note_on_c, 0, 64, 0
1, 46921, Note_on_c, 0, 54, 85
1, 46959, Note_on_c, 0, 60, 64
1, 46961, Note_on_c, 0, 54, 0
1, 46998, Note_on_c, 0, 60, 0
1, 47000, Note_on_c, 0, 63, 62
1, 47036, Note_on_c, 0, 63, 0
1, 47040, Note_on_c, 0, 55, 62
1, 47080, Note_on_c, 0, 60, 64
1, 47087, Note_on_c, 0, 55, 0
1, 47121, Note_on_c, 0, 64, 62
1, 47123, Note_on_c, 0, 60, 0
1, 47157, Note_on_c, 0, 64, 0
1, 47157, Note_on_c, 1, 36, 0
1, 47159, Note_on_c, 1, 48, 0
1, 47159, Note_on_c, 1, 41, 76
1, 47161, Note_on_c, 0, 62, 93
1, 47200, Note_on_c, 0, 62, 0
1, 47201, Note_on_c, 0, 57, 64
1, 47241, Note_on_c, 0, 53, 62
1, 47243, Note_on_c, 0, 57, 0
1, 47280, Note_on_c, 0, 53, 0
1, 47281, Note_on_c, 0, 60, 89
1, 47282, Note_on_c, 1, 43, 64
1, 47286, Note_on_c, 1, 41, 0
1, 47321, Note_on_c, 0, 55, 56
1, 47324, Note_on_c, 0, 60, 0
1, 47359, Note_on_c, 0, 55, 0
1, 47361, Note_on_c, 0, 52, 64
1, 47397, Note_on_c, 0, 52, 0
1, 47401, Note_on_c, 0, 59, 89
1, 47401, Note_on_c, 1, 31, 68
1, 47403, Note_on_c, 1, 43, 0
1, 47440, Note_on_c, 0, 59, 0
1, 47441, Note_on_c, 0, 53, 60
1, 47478, Note_on_c, 0, 53, 0
1, 47479, Note_on_c, 0, 50, 59
1, 47514, Note_on_c, 1, 31, 0
1, 47516, Note_on_c, 0, 50, 0
1, 47518, Note_on_c, 1, 36, 89
1, 47522, Note_on_c, 0, 48, 89
1, 47562, Note_on_c, 0, 52, 59
1, 47562, Note_on_c, 1, 40, 59
1, 47568, Note_on_c, 0, 48, 0
1, 47570, Note_on_c, 1, 36, 0
1, 47594, Note_on_c, 0, 52, 0
1, 47601, Note_on_c, 0, 55, 55
1, 47602, Note_on_c, 1, 43, 62
1, 47605, Note_on_c, 1, 40, 0
1, 47635, Note_on_c, 1, 43, 0
1, 47636, Note_on_c, 0, 55, 0
1, 47639, Note_on_c, 0, 60, 85
1, 47641, Note_on_c, 1, 48, 80
1, 47679, Note_on_c, 0, 55, 60
1, 47681, Note_on_c, 1, 43, 57
1, 47683, Note_on_c, 0, 60, 0
1, 47685, Note_on_c, 1, 48, 0
1, 47719, Note_on_c, 0, 52, 72
1, 47720, Note_on_c, 1, 43, 0
1, 47721, Note_on_c, 1, 40, 57
1, 47723, Note_on_c, 0, 55, 0
1, 47751, Note_on_c, 0, 52, 0
1, 47756, Note_on_c, 1, 40, 0
1, 47759, Note_on_c, 0, 48, 89
1, 47759, Note_on_c, 1, 36, 85
1, 47799, Note_on_c, 0, 52, 72
1, 47799, Note_on_c, 1, 40, 59
1, 47801, Note_on_c, 1, 36, 0
1, 47804, Note_on_c, 0, 48, 0
1, 47835, Note_on_c, 0, 52, 0
1, 47836, Note_on_c, 1, 40, 0
1, 47839, Note_on_c, 0, 55, 60
1, 47839, Note_on_c, 1, 43, 48
1, 47875, Note_on_c, 0, 55, 0
1, 47879, Note_on_c, 0, 60, 80
1, 47879, Note_on_c, 1, 43, 0
1, 47879, Note_on_c, 1, 48, 80
1, 47920, Note_on_c, 0, 55, 55
1, 47920, Note_on_c, 1, 43, 51
1, 47921, Note_on_c, 0, 60, 0
1, 47924, Note_on_c, 1, 48, 0
1, 47960, Note_on_c, 0, 52, 62
1, 47961, Note_on_c, 1, 40, 62
1, 47962, Note_on_c, 0, 55, 0
1, 47963, Note_on_c, 1, 43, 0
1, 47995, Note_on_c, 0, 52, 0
1, 48000, Note_on_c, 1, 40, 0
1, 48001, Note_on_c, 0, 48, 89
1, 48001, Note_on_c, 1, 36, 76
1, 48041, Note_on_c, 0, 52, 64
1, 48041, Note_on_c, 1, 40, 64
1, 48043, Note_on_c, 1, 36, 0
1, 48047, Note_on_c, 0, 48, 0
1, 48072, Note_on_c, 1, 40, 0
1, 48076, Note_on_c, 0, 52, 0
1, 48080, Note_on_c, 1, 43, 30
1, 48081, Note_on_c, 0, 55, 55
1, 48121, Note_on_c, 0, 60, 85
1, 48121, Note_on_c, 1, 48, 76
1, 48122, Note_on_c, 0, 55, 0
1, 48126, Note_on_c, 1, 43, 0
1, 48158, Note_on_c, 0, 60, 0
1, 48160, Note_on_c, 0, 64, 68
1, 48160, Note_on_c, 1, 52, 68
1, 48163, Note_on_c, 1, 48, 0
1, 48194, Note_on_c, 0, 64, 0
1, 48199, Note_on_c, 1, 55, 68
1, 48200, Note_on_c, 0, 67, 76
1, 48200, Note_on_c, 1, 52, 0
1, 48240, Note_on_c, 0, 67, 0
1, 48240, Note_on_c, 1, 60, 85
1, 48241, Note_on_c, 0, 72, 89
1, 48241, Note_on_c, 1, 55, 0
1, 48281, Note_on_c, 0, 72, 0
1, 48281, Note_on_c, 0, 67, 57
1, 48281, Note_on_c, 1, 60, 0
1, 48281, Note_on_c, 1, 55, 62
1, 48319, Note_on_c, 0, 67, 0
1, 48321, Note_on_c, 0, 64, 62
1, 48321, Note_on_c, 1, 52, 68
1, 48323, Note_on_c, 1, 55, 0
1, 48361, Note_on_c, 0, 64, 0
1, 48361, Note_on_c, 0, 60, 80
1, 48361, Note_on_c, 1, 48, 76
1, 48363, Note_on_c, 1, 52, 0
1, 48401, Note_on_c, 0, 64, 72
1, 48401, Note_on_c, 1, 52, 64
1, 48403, Note_on_c, 0, 60, 0
1, 48404, Note_on_c, 1, 48, 0
1, 48439, Note_on_c, 0, 64, 0
1, 48441, Note_on_c, 0, 67, 64
1, 48441, Note_on_c, 1, 52, 0
1, 48441, Note_on_c, 1, 55, 76
1, 48479, Note_on_c, 1, 55, 0
1, 48481, Note_on_c, 0, 60, 68
1, 48481, Note_on_c, 1, 48, 89
1, 48482, Note_on_c, 0, 67, 0
1, 48520, Note_on_c, 0, 60, 0
1, 48520, Note_on_c, 1, 48, 0
1, 48521, Note_on_c, 0, 64, 80
1, 48521, Note_on_c, 1, 52, 76
1, 48561, Note_on_c, 0, 67, 85
1, 48561, Note_on_c, 1, 52, 0
1, 48561, Note_on_c, 1, 55, 76
1, 48563, Note_on_c, 0, 64, 0
1, 48588, Note_on_c, 0, 67, 0
1, 48600, Note_on_c, 0, 72, 68
1, 48600, Note_on_c, 1, 55, 0
1, 48601, Note_on_c, 1, 60, 80
1, 48640, Note_on_c, 1, 60, 0
1, 48640, Note_on_c, 1, 64, 76
1, 48641, Note_on_c, 0, 76, 41
1, 48652, Note_on_c, 0, 72, 0
1, 48678, Note_on_c, 1, 64, 0
1, 48680, Note_on_c, 1, 67, 76
1, 48681, Note_on_c, 0, 76, 0
1, 48681, Note_on_c, 0, 79, 64
1, 48719, Note_on_c, 0, 79, 0
1, 48720, Note_on_c, 1, 67, 0
1, 48720, Note_on_c, 1, 72, 85
1, 48721, Note_on_c, 0, 84, 93
1, 48761, Note_on_c, 0, 79, 64
1, 48761, Note_on_c, 1, 72, 0
1, 48761, Note_on_c, 1, 67, 72
1, 48766, Note_on_c, 0, 84, 0
1, 48800, Note_on_c, 1, 64, 72
1, 48801, Note_on_c, 0, 76, 64
1, 48802, Note_on_c, 0, 79, 0
1, 48804, Note_on_c, 1, 67, 0
1, 48836, Note_on_c, 0, 76, 0
1, 48841, Note_on_c, 0, 72, 80
1, 48841, Note_on_c, 1, 60, 72
1, 48843, Note_on_c, 1, 64, 0
1, 48880, Note_on_c, 0, 72, 0
1, 48881, Note_on_c, 0, 76, 76
1, 48881, Note_on_c, 1, 64, 76
1, 48887, Note_on_c, 1, 60, 0
1, 48917, Note_on_c, 1, 64, 0
1, 48920, Note_on_c, 0, 76, 0
1, 48921, Note_on_c, 0, 79, 76
1, 48921, Note_on_c, 1, 67, 76
1, 48959, Note_on_c, 1, 67, 0
1, 48961, Note_on_c, 1, 72, 89
1, 48963, Note_on_c, 0, 79, 0
1, 48963, Note_on_c, 0, 84, 93
1, 49030, Note_on_c, 1, 72, 0
1, 49081, Note_on_c, 1, 48, 89
1, 49081, Note_on_c, 1, 60, 89
1, 49082, Note_on_c, 0, 84, 0
1, 49083, Note_on_c, 0, 72, 89
1, 49204, Note_on_c, 1, 60, 0
1, 49207, Note_on_c, 1, 48, 0
1, 49214, Note_on_c, 0, 72, 0
1, 49793, Note_on_c, 0, 79, 72
1, 49917, Note_on_c, 0, 77, 60
1, 49920, Note_on_c, 0, 79, 0
1, 49976, Note_on_c, 0, 75, 60
1, 49983, Note_on_c, 0, 77, 0
1, 50035, Note_on_c, 0, 74, 72
1, 50036, Note_on_c, 0, 75, 0
1, 50096, Note_on_c, 0, 74, 0
1, 50096, Note_on_c, 0, 72, 68
1, 50159, Note_on_c, 0, 75, 80
1, 50162, Note_on_c, 0, 72, 0
1, 50220, Note_on_c, 0, 74, 68
1, 50221, Note_on_c, 0, 75, 0
1, 50278, Note_on_c, 0, 77, 80
1, 50280, Note_on_c, 0, 74, 0
1, 50341, Note_on_c, 0, 77, 0
1, 50341, Note_on_c, 0, 71, 76
1, 50400, Note_on_c, 0, 71, 0
1, 50401, Note_on_c, 1, 36, 59
1, 50402, Note_on_c, 0, 72, 76
1, 50440, Note_on_c, 1, 39, 60
1, 50444, Note_on_c, 1, 36, 0
1, 50479, Note_on_c, 1, 39, 0
1, 50480, Note_on_c, 1, 43, 50
1, 50519, Note_on_c, 1, 48, 76
1, 50522, Note_on_c, 1, 43, 0
1, 50523, Note_on_c, 0, 72, 0
1, 50523, Note_on_c, 0, 67, 68
1, 50561, Note_on_c, 1, 43, 57
1, 50563, Note_on_c, 1, 48, 0
1, 50598, Note_on_c, 1, 43, 0
1, 50599, Note_on_c, 1, 39, 60
1, 50639, Note_on_c, 1, 36, 64
1, 50641, Note_on_c, 1, 39, 0
1, 50646, Note_on_c, 0, 67, 0
1, 50680, Note_on_c, 1, 39, 56
1, 50682, Note_on_c, 1, 36, 0
1, 50719, Note_on_c, 1, 39, 0
1, 50719, Note_on_c, 1, 43, 53
1, 50755, Note_on_c, 0, 67, 93
1, 50756, Note_on_c, 0, 75, 85
1, 50761, Note_on_c, 1, 48, 68
1, 50762, Note_on_c, 1, 43, 0
1, 50801, Note_on_c, 1, 43, 59
1, 50802, Note_on_c, 1, 48, 0
1, 50836, Note_on_c, 1, 43, 0
1, 50839, Note_on_c, 1, 39, 59
1, 50876, Note_on_c, 1, 39, 0
1, 50879, Note_on_c, 1, 36, 68
1, 50880, Note_on_c, 0, 67, 0
1, 50881, Note_on_c, 0, 75, 0
1, 50881, Note_on_c, 0, 65, 85
1, 50882, Note_on_c, 0, 74, 89
1, 50919, Note_on_c, 1, 39, 60
1, 50921, Note_on_c, 1, 36, 0
1, 50959, Note_on_c, 1, 43, 68
1, 50963, Note_on_c, 1, 39, 0
1, 51001, Note_on_c, 1, 48, 76
1, 51002, Note_on_c, 1, 43, 0
1, 51004, Note_on_c, 0, 72, 85
1, 51005, Note_on_c, 0, 74, 0
1, 51005, Note_on_c, 0, 65, 0
1, 51005, Note_on_c, 0, 63, 76
1, 51039, Note_on_c, 1, 48, 0
1, 51041, Note_on_c, 1, 51, 64
1, 51080, Note_on_c, 1, 51, 0
1, 51080, Note_on_c, 1, 55, 76
1, 51119, Note_on_c, 1, 55, 0
1, 51120, Note_on_c, 1, 60, 80
1, 51123, Note_on_c, 0, 63, 0
1, 51125, Note_on_c, 0, 72, 0
1, 51160, Note_on_c, 1, 60, 0
1, 51160, Note_on_c, 1, 55, 72
1, 51199, Note_on_c, 1, 51, 62
1, 51204, Note_on_c, 1, 55, 0
1, 51237, Note_on_c, 1, 51, 0
1, 51240, Note_on_c, 1, 48, 72
1, 51242, Note_on_c, 0, 75, 85
1, 51243, Note_on_c, 0, 79, 89
1, 51279, Note_on_c, 1, 51, 59
1, 51287, Note_on_c, 1, 48, 0
1, 51291, Note_on_c, 0, 79, 0
1, 51292, Note_on_c, 0, 75, 0
1, 51319, Note_on_c, 1, 55, 76
1, 51320, Note_on_c, 1, 51, 0
1, 51358, Note_on_c, 1, 55, 0
1, 51359, Note_on_c, 0, 77, 85
1, 51359, Note_on_c, 0, 74, 93
1, 51359, Note_on_c, 1, 48, 89
1, 51399, Note_on_c, 1, 51, 68
1, 51403, Note_on_c, 1, 48, 0
1, 51438, Note_on_c, 1, 51, 0
1, 51439, Note_on_c, 1, 55, 76
1, 51479, Note_on_c, 0, 75, 80
1, 51479, Note_on_c, 0, 72, 85
1, 51479, Note_on_c, 1, 55, 0
1, 51479, Note_on_c, 1, 60, 89
1, 51481, Note_on_c, 0, 74, 0
1, 51482, Note_on_c, 0, 77, 0
1, 51519, Note_on_c, 1, 63, 72
1, 51523, Note_on_c, 1, 60, 0
1, 51553, Note_on_c, 1, 63, 0
1, 51559, Note_on_c, 1, 67, 80
1, 51599, Note_on_c, 1, 72, 85
1, 51601, Note_on_c, 1, 67, 0
1, 51604, Note_on_c, 0, 75, 0
1, 51605, Note_on_c, 0, 72, 0
1, 51638, Note_on_c, 1, 72, 0
1, 51639, Note_on_c, 1, 67, 76
1, 51679, Note_on_c, 1, 63, 59
1, 51682, Note_on_c, 1, 67, 0
1, 51718, Note_on_c, 0, 79, 107
1, 51719, Note_on_c, 1, 63, 0
1, 51719, Note_on_c, 1, 60, 76
1, 51759, Note_on_c, 1, 63, 72
1, 51761, Note_on_c, 1, 60, 0
1, 51766, Note_on_c, 0, 79, 0
1, 51796, Note_on_c, 1, 63, 0
1, 51798, Note_on_c, 1, 67, 76
1, 51835, Note_on_c, 0, 87, 102
1, 51839, Note_on_c, 1, 67, 0
1, 51839, Note_on_c, 1, 72, 93
1, 51881, Note_on_c, 0, 89, 80
1, 51882, Note_on_c, 0, 87, 0
1, 51921, Note_on_c, 0, 87, 76
1, 51928, Note_on_c, 0, 89, 0
1, 51960, Note_on_c, 0, 87, 0
1, 51961, Note_on_c, 0, 86, 93
1, 52001, Note_on_c, 0, 84, 68
1, 52005, Note_on_c, 0, 86, 0
1, 52041, Note_on_c, 0, 83, 85
1, 52045, Note_on_c, 0, 84, 0
1, 52080, Note_on_c, 0, 83, 0
1, 52081, Note_on_c, 0, 84, 93
1, 52090, Note_on_c, 1, 72, 0
1, 52121, Note_on_c, 0, 86, 76
1, 52122, Note_on_c, 0, 84, 0
1, 52161, Note_on_c, 0, 84, 76
1, 52165, Note_on_c, 0, 86, 0
1, 52201, Note_on_c, 0, 82, 80
1, 52201, Note_on_c, 1, 60, 93
1, 52207, Note_on_c, 0, 84, 0
1, 52241, Note_on_c, 0, 82, 0
1, 52241, Note_on_c, 0, 81, 72
1, 52281, Note_on_c, 0, 79, 93
1, 52282, Note_on_c, 0, 81, 0
1, 52321, Note_on_c, 0, 79, 0
1, 52321, Note_on_c, 1, 62, 89
1, 52322, Note_on_c, 0, 78, 76
1, 52323, Note_on_c, 1, 60, 0
1, 52360, Note_on_c, 0, 78, 0
1, 52361, Note_on_c, 0, 79, 89
1, 52401, Note_on_c, 0, 81, 80
1, 52403, Note_on_c, 0, 79, 0
1, 52441, Note_on_c, 0, 79, 89
1, 52445, Note_on_c, 0, 81, 0
1, 52481, Note_on_c, 0, 79, 0
1, 52481, Note_on_c, 0, 77, 80
1, 52515, Note_on_c, 0, 77, 0
1, 52520, Note_on_c, 0, 76, 85
1, 52561, Note_on_c, 0, 74, 80
1, 52563, Note_on_c, 0, 76, 0
1, 52563, Note_on_c, 1, 62, 0
1, 52601, Note_on_c, 0, 72, 68
1, 52608, Note_on_c, 0, 74, 0
1, 52641, Note_on_c, 0, 70, 64
1, 52644, Note_on_c, 0, 72, 0
1, 52680, Note_on_c, 1, 50, 85
1, 52681, Note_on_c, 0, 69, 89
1, 52689, Note_on_c, 0, 70, 0
1, 52722, Note_on_c, 0, 67, 76
1, 52724, Note_on_c, 0, 69, 0
1, 52759, Note_on_c, 0, 67, 0
1, 52761, Note_on_c, 0, 66, 59
1, 52800, Note_on_c, 1, 50, 0
1, 52801, Note_on_c, 0, 67, 72
1, 52801, Note_on_c, 1, 48, 76
1, 52803, Note_on_c, 0, 66, 0
1, 52855, Note_on_c, 1, 48, 0
1, 52861, Note_on_c, 1, 46, 85
1, 52895, Note_on_c, 0, 67, 0
1, 52916, Note_on_c, 1, 46, 0
1, 52919, Note_on_c, 1, 45, 59
1, 52979, Note_on_c, 1, 43, 72
1, 52982, Note_on_c, 1, 45, 0
1, 53039, Note_on_c, 1, 43, 0
1, 53039, Note_on_c, 1, 46, 62
1, 53095, Note_on_c, 1, 46, 0
1, 53099, Note_on_c, 1, 45, 60
1, 53159, Note_on_c, 1, 45, 0
1, 53159, Note_on_c, 1, 48, 62
1, 53219, Note_on_c, 1, 42, 56
1, 53221, Note_on_c, 1, 48, 0
1, 53280, Note_on_c, 1, 42, 0
1, 53280, Note_on_c, 1, 43, 51
1, 53281, Note_on_c, 0, 55, 62
1, 53321, Note_on_c, 0, 58, 57
1, 53325, Note_on_c, 0, 55, 0
1, 53358, Note_on_c, 0, 58, 0
1, 53359, Note_on_c, 0, 62, 57
1, 53398, Note_on_c, 0, 62, 0
1, 53399, Note_on_c, 0, 67, 62
1, 53401, Note_on_c, 1, 38, 72
1, 53406, Note_on_c, 1, 43, 0
1, 53439, Note_on_c, 0, 62, 62
1, 53443, Note_on_c, 0, 67, 0
1, 53479, Note_on_c, 0, 58, 53
1, 53481, Note_on_c, 0, 62, 0
1, 53520, Note_on_c, 0, 55, 62
1, 53521, Note_on_c, 0, 58, 0
1, 53526, Note_on_c, 1, 38, 0
1, 53561, Note_on_c, 0, 58, 60
1, 53564, Note_on_c, 0, 55, 0
1, 53600, Note_on_c, 0, 58, 0
1, 53601, Note_on_c, 0, 62, 68
1, 53641, Note_on_c, 0, 62, 0
1, 53641, Note_on_c, 0, 67, 62
1, 53642, Note_on_c, 1, 46, 62
1, 53642, Note_on_c, 1, 50, 60
1, 53671, Note_on_c, 1, 50, 0
1, 53671, Note_on_c, 1, 46, 0
1, 53681, Note_on_c, 0, 67, 0
1, 53681, Note_on_c, 0, 62, 62
1, 53721, Note_on_c, 0, 58, 48
1, 53722, Note_on_c, 0, 62, 0
1, 53761, Note_on_c, 0, 55, 57
1, 53762, Note_on_c, 1, 48, 52
1, 53762, Note_on_c, 1, 45, 62
1, 53763, Note_on_c, 0, 58, 0
1, 53801, Note_on_c, 0, 58, 64
1, 53803, Note_on_c, 0, 55, 0
1, 53840, Note_on_c, 0, 62, 76
1, 53841, Note_on_c, 0, 58, 0
1, 53870, Note_on_c, 0, 62, 0
1, 53879, Note_on_c, 0, 67, 43
1, 53880, Note_on_c, 1, 45, 0
1, 53881, Note_on_c, 1, 46, 55
1, 53881, Note_on_c, 1, 43, 50
1, 53884, Note_on_c, 1, 48, 0
1, 53918, Note_on_c, 0, 70, 62
1, 53937, Note_on_c, 0, 67, 0
1, 53959, Note_on_c, 0, 74, 51
1, 53962, Note_on_c, 0, 70, 0
1, 53995, Note_on_c, 1, 43, 0
1, 53999, Note_on_c, 0, 79, 72
1, 54000, Note_on_c, 1, 46, 0
1, 54005, Note_on_c, 0, 74, 0
1, 54041, Note_on_c, 0, 74, 72
1, 54044, Note_on_c, 0, 79, 0
1, 54081, Note_on_c, 0, 70, 60
1, 54082, Note_on_c, 0, 74, 0
1, 54121, Note_on_c, 0, 70, 0
1, 54121, Note_on_c, 0, 67, 64
1, 54121, Note_on_c, 1, 58, 72
1, 54121, Note_on_c, 1, 50, 76
1, 54158, Note_on_c, 0, 67, 0
1, 54161, Note_on_c, 0, 70, 62
1, 54193, Note_on_c, 0, 70, 0
1, 54201, Note_on_c, 0, 74, 72
1, 54241, Note_on_c, 0, 67, 76
1, 54241, Note_on_c, 1, 58, 0
1, 54241, Note_on_c, 1, 48, 64
1, 54241, Note_on_c, 1, 57, 89
1, 54242, Note_on_c, 1, 50, 0
1, 54244, Note_on_c, 0, 74, 0
1, 54279, Note_on_c, 0, 70, 57
1, 54280, Note_on_c, 0, 67, 0
1, 54318, Note_on_c, 0, 70, 0
1, 54319, Note_on_c, 0, 74, 72
1, 54357, Note_on_c, 1, 57, 0
1, 54358, Note_on_c, 1, 48, 0
1, 54359, Note_on_c, 0, 79, 80
1, 54359, Note_on_c, 1, 55, 80
1, 54359, Note_on_c, 1, 46, 85
1, 54361, Note_on_c, 0, 74, 0
1, 54399, Note_on_c, 0, 82, 76
1, 54401, Note_on_c, 0, 79, 0
1, 54439, Note_on_c, 0, 84, 85
1, 54440, Note_on_c, 0, 82, 0
1, 54479, Note_on_c, 0, 86, 85
1, 54481, Note_on_c, 0, 84, 0
1, 54485, Note_on_c, 1, 46, 0
1, 54487, Note_on_c, 1, 55, 0
1, 54519, Note_on_c, 0, 84, 72
1, 54521, Note_on_c, 0, 86, 0
1, 54559, Note_on_c, 0, 82, 64
1, 54567, Note_on_c, 0, 84, 0
1, 54599, Note_on_c, 0, 81, 68
1, 54599, Note_on_c, 1, 62, 93
1, 54601, Note_on_c, 0, 82, 0
1, 54639, Note_on_c, 0, 79, 68
1, 54641, Note_on_c, 0, 81, 0
1, 54679, Note_on_c, 0, 78, 60
1, 54681, Note_on_c, 0, 79, 0
1, 54718, Note_on_c, 0, 78, 0
1, 54719, Note_on_c, 1, 62, 0
1, 54719, Note_on_c, 1, 70, 85
1, 54724, Note_on_c, 0, 79, 93
1, 54761, Note_on_c, 1, 72, 72
1, 54762, Note_on_c, 1, 70, 0
1, 54780, Note_on_c, 0, 79, 0
1, 54801, Note_on_c, 1, 70, 68
1, 54805, Note_on_c, 1, 72, 0
1, 54841, Note_on_c, 0, 82, 72
1, 54841, Note_on_c, 1, 69, 93
1, 54844, Note_on_c, 1, 70, 0
1, 54861, Note_on_c, 0, 81, 76
1, 54864, Note_on_c, 0, 82, 0
1, 54881, Note_on_c, 0, 82, 57
1, 54881, Note_on_c, 1, 69, 0
1, 54881, Note_on_c, 1, 67, 80
1, 54884, Note_on_c, 0, 81, 0
1, 54897, Note_on_c, 0, 81, 68
1, 54900, Note_on_c, 0, 82, 0
1, 54917, Note_on_c, 0, 81, 0
1, 54917, Note_on_c, 0, 79, 68
1, 54921, Note_on_c, 1, 66, 72
1, 54928, Note_on_c, 1, 67, 0
1, 54937, Note_on_c, 0, 79, 0
1, 54937, Note_on_c, 0, 81, 76
1, 54953, Note_on_c, 0, 82, 59
1, 54957, Note_on_c, 0, 81, 0
1, 54961, Note_on_c, 1, 66, 0
1, 54962, Note_on_c, 1, 67, 76
1, 55002, Note_on_c, 1, 67, 0
1, 55002, Note_on_c, 1, 69, 85
1, 55041, Note_on_c, 1, 69, 0
1, 55042, Note_on_c, 1, 67, 76
1, 55082, Note_on_c, 0, 74, 80
1, 55082, Note_on_c, 1, 65, 85
1, 55084, Note_on_c, 1, 67, 0
1, 55122, Note_on_c, 1, 64, 76
1, 55124, Note_on_c, 1, 65, 0
1, 55157, Note_on_c, 1, 64, 0
1, 55161, Note_on_c, 1, 62, 68
1, 55184, Note_on_c, 0, 74, 0
1, 55193, Note_on_c, 0, 82, 0
1, 55201, Note_on_c, 0, 76, 72
1, 55201, Note_on_c, 0, 82, 76
1, 55202, Note_on_c, 1, 61, 76
1, 55207, Note_on_c, 1, 62, 0
1, 55242, Note_on_c, 1, 62, 85
1, 55245, Note_on_c, 1, 61, 0
1, 55281, Note_on_c, 1, 64, 76
1, 55282, Note_on_c, 1, 62, 0
1, 55316, Note_on_c, 0, 82, 0
1, 55319, Note_on_c, 0, 80, 80
1, 55322, Note_on_c, 1, 62, 76
1, 55323, Note_on_c, 1, 64, 0
1, 55358, Note_on_c, 1, 62, 0
1, 55361, Note_on_c, 1, 61, 64
1, 55371, Note_on_c, 0, 76, 0
1, 55378, Note_on_c, 0, 74, 80
1, 55400, Note_on_c, 1, 58, 72
1, 55404, Note_on_c, 1, 61, 0
1, 55439, Note_on_c, 0, 81, 85
1, 55439, Note_on_c, 0, 73, 72
1, 55439, Note_on_c, 1, 58, 0
1, 55439, Note_on_c, 1, 57, 89
1, 55440, Note_on_c, 0, 74, 0
1, 55443, Note_on_c, 0, 80, 0
1, 55479, Note_on_c, 1, 57, 0
1, 55479, Note_on_c, 1, 55, 72
1, 55520, Note_on_c, 1, 53, 85
1, 55522, Note_on_c, 1, 55, 0
1, 55555, Note_on_c, 0, 73, 0
1, 55559, Note_on_c, 0, 69, 68
1, 55559, Note_on_c, 0, 79, 76
1, 55559, Note_on_c, 0, 76, 62
1, 55559, Note_on_c, 1, 52, 76
1, 55563, Note_on_c, 0, 81, 0
1, 55564, Note_on_c, 1, 53, 0
1, 55599, Note_on_c, 1, 50, 64
1, 55600, Note_on_c, 1, 52, 0
1, 55633, Note_on_c, 1, 50, 0
1, 55639, Note_on_c, 1, 49, 76
1, 55671, Note_on_c, 0, 76, 0
1, 55672, Note_on_c, 0, 69, 0
1, 55675, Note_on_c, 0, 79, 0
1, 55679, Note_on_c, 0, 77, 80
1, 55679, Note_on_c, 0, 69, 80
1, 55679, Note_on_c, 1, 50, 80
1, 55682, Note_on_c, 1, 49, 0
1, 55719, Note_on_c, 1, 53, 64
1, 55728, Note_on_c, 1, 50, 0
1, 55759, Note_on_c, 1, 53, 0
1, 55759, Note_on_c, 1, 57, 76
1, 55798, Note_on_c, 1, 57, 0
1, 55799, Note_on_c, 0, 76, 89
1, 55799, Note_on_c, 1, 48, 72
1, 55805, Note_on_c, 0, 77, 0
1, 55839, Note_on_c, 1, 52, 76
1, 55847, Note_on_c, 1, 48, 0
1, 55879, Note_on_c, 1, 57, 76
1, 55880, Note_on_c, 1, 52, 0
1, 55917, Note_on_c, 1, 57, 0
1, 55919, Note_on_c, 1, 47, 76
1, 55921, Note_on_c, 0, 74, 80
1, 55921, Note_on_c, 0, 65, 64
1, 55925, Note_on_c, 0, 69, 0
1, 55929, Note_on_c, 0, 76, 0
1, 55961, Note_on_c, 1, 50, 76
1, 55967, Note_on_c, 1, 47, 0
1, 56001, Note_on_c, 1, 57, 80
1, 56006, Note_on_c, 1, 50, 0
1, 56039, Note_on_c, 0, 65, 0
1, 56040, Note_on_c, 0, 62, 89
1, 56040, Note_on_c, 1, 57, 0
1, 56041, Note_on_c, 1, 46, 80
1, 56079, Note_on_c, 1, 50, 60
1, 56086, Note_on_c, 1, 46, 0
1, 56119, Note_on_c, 1, 56, 72
1, 56120, Note_on_c, 1, 50, 0
1, 56142, Note_on_c, 0, 62, 0
1, 56153, Note_on_c, 0, 74, 0
1, 56159, Note_on_c, 1, 45, 80
1, 56161, Note_on_c, 0, 73, 80
1, 56161, Note_on_c, 1, 56, 0
1, 56201, Note_on_c, 0, 69, 76
1, 56202, Note_on_c, 0, 73, 0
1, 56239, Note_on_c, 0, 69, 0
1, 56241, Note_on_c, 0, 73, 72
1, 56279, Note_on_c, 0, 73, 0
1, 56280, Note_on_c, 0, 76, 85
1, 56321, Note_on_c, 0, 81, 80
1, 56326, Note_on_c, 0, 76, 0
1, 56360, Note_on_c, 0, 81, 0
1, 56360, Note_on_c, 0, 85, 76
1, 56399, Note_on_c, 0, 85, 0
1, 56399, Note_on_c, 0, 88, 89
1, 56410, Note_on_c, 1, 45, 0
1, 56439, Note_on_c, 0, 86, 76
1, 56446, Note_on_c, 0, 88, 0
1, 56479, Note_on_c, 0, 85, 76
1, 56480, Note_on_c, 0, 86, 0
1, 56519, Note_on_c, 0, 82, 76
1, 56524, Note_on_c, 0, 85, 0
1, 56559, Note_on_c, 0, 81, 64
1, 56560, Note_on_c, 0, 82, 0
1, 56599, Note_on_c, 0, 79, 85
1, 56603, Note_on_c, 0, 81, 0
1, 56640, Note_on_c, 0, 77, 76
1, 56644, Note_on_c, 0, 79, 0
1, 56679, Note_on_c, 1, 50, 76
1, 56719, Note_on_c, 1, 53, 80
1, 56722, Note_on_c, 1, 50, 0
1, 56759, Note_on_c, 1, 57, 80
1, 56760, Note_on_c, 1, 53, 0
1, 56799, Note_on_c, 1, 62, 76
1, 56800, Note_on_c, 1, 57, 0
1, 56838, Note_on_c, 1, 65, 76
1, 56839, Note_on_c, 1, 62, 0
1, 56879, Note_on_c, 1, 69, 89
1, 56882, Note_on_c, 1, 65, 0
1, 56919, Note_on_c, 0, 77, 0
1, 56919, Note_on_c, 1, 67, 68
1, 56930, Note_on_c, 1, 69, 0
1, 56959, Note_on_c, 1, 65, 72
1, 56963, Note_on_c, 1, 67, 0
1, 56999, Note_on_c, 0, 77, 89
1, 56999, Note_on_c, 0, 86, 89
1, 56999, Note_on_c, 1, 64, 76
1, 57002, Note_on_c, 1, 65, 0
1, 57039, Note_on_c, 1, 64, 0
1, 57039, Note_on_c, 1, 65, 72
1, 57076, Note_on_c, 1, 65, 0
1, 57078, Note_on_c, 1, 62, 80
1, 57106, Note_on_c, 0, 77, 0
1, 57108, Note_on_c, 0, 86, 0
1, 57118, Note_on_c, 0, 76, 76
1, 57118, Note_on_c, 0, 85, 80
1, 57119, Note_on_c, 1, 57, 80
1, 57120, Note_on_c, 1, 62, 0
1, 57159, Note_on_c, 0, 69, 85
1, 57165, Note_on_c, 0, 85, 0
1, 57166, Note_on_c, 0, 76, 0
1, 57199, Note_on_c, 0, 73, 85
1, 57200, Note_on_c, 0, 69, 0
1, 57240, Note_on_c, 0, 76, 85
1, 57244, Note_on_c, 0, 73, 0
1, 57279, Note_on_c, 0, 81, 80
1, 57282, Note_on_c, 0, 76, 0
1, 57318, Note_on_c, 0, 81, 0
1, 57319, Note_on_c, 0, 85, 72
1, 57359, Note_on_c, 0, 88, 93
1, 57360, Note_on_c, 0, 85, 0
1, 57366, Note_on_c, 1, 57, 0
1, 57399, Note_on_c, 0, 86, 85
1, 57405, Note_on_c, 0, 88, 0
1, 57438, Note_on_c, 0, 86, 0
1, 57439, Note_on_c, 0, 85, 76
1, 57479, Note_on_c, 0, 82, 85
1, 57481, Note_on_c, 0, 85, 0
1, 57519, Note_on_c, 0, 81, 60
1, 57522, Note_on_c, 0, 82, 0
1, 57559, Note_on_c, 0, 79, 80
1, 57562, Note_on_c, 0, 81, 0
1, 57601, Note_on_c, 0, 77, 85
1, 57605, Note_on_c, 0, 79, 0
1, 57639, Note_on_c, 1, 50, 89
1, 57679, Note_on_c, 1, 53, 76
1, 57683, Note_on_c, 1, 50, 0
1, 57721, Note_on_c, 1, 57, 80
1, 57725, Note_on_c, 1, 53, 0
1, 57760, Note_on_c, 1, 62, 80
1, 57764, Note_on_c, 1, 57, 0
1, 57799, Note_on_c, 1, 62, 0
1, 57799, Note_on_c, 1, 65, 76
1, 57836, Note_on_c, 0, 77, 0
1, 57840, Note_on_c, 1, 69, 93
1, 57844, Note_on_c, 1, 65, 0
1, 57881, Note_on_c, 1, 67, 76
1, 57890, Note_on_c, 1, 69, 0
1, 57921, Note_on_c, 1, 65, 76
1, 57924, Note_on_c, 1, 67, 0
1, 57958, Note_on_c, 0, 77, 98
1, 57959, Note_on_c, 0, 86, 98
1, 57961, Note_on_c, 1, 64, 85
1, 57966, Note_on_c, 1, 65, 0
1, 58000, Note_on_c, 1, 64, 0
1, 58001, Note_on_c, 1, 65, 80
1, 58041, Note_on_c, 1, 65, 0
1, 58041, Note_on_c, 1, 62, 80
1, 58063, Note_on_c, 0, 77, 0
1, 58071, Note_on_c, 0, 86, 0
1, 58079, Note_on_c, 0, 76, 80
1, 58079, Note_on_c, 0, 85, 85
1, 58081, Note_on_c, 1, 57, 85
1, 58082, Note_on_c, 1, 62, 0
1, 58121, Note_on_c, 0, 81, 80
1, 58122, Note_on_c, 0, 85, 0
1, 58123, Note_on_c, 0, 76, 0
1, 58160, Note_on_c, 0, 81, 0
1, 58161, Note_on_c, 0, 76, 76
1, 58201, Note_on_c, 0, 73, 76
1, 58202, Note_on_c, 0, 76, 0
1, 58236, Note_on_c, 0, 73, 0
1, 58240, Note_on_c, 0, 76, 64
1, 58280, Note_on_c, 0, 73, 68
1, 58284, Note_on_c, 0, 76, 0
1, 58317, Note_on_c, 0, 73, 0
1, 58319, Note_on_c, 0, 69, 68
1, 58324, Note_on_c, 1, 57, 0
1, 58359, Note_on_c, 0, 73, 62
1, 58363, Note_on_c, 0, 69, 0
1, 58400, Note_on_c, 0, 69, 64
1, 58401, Note_on_c, 0, 73, 0
1, 58437, Note_on_c, 0, 69, 0
1, 58439, Note_on_c, 0, 64, 80
1, 58478, Note_on_c, 0, 64, 0
1, 58479, Note_on_c, 0, 69, 85
1, 58519, Note_on_c, 0, 64, 80
1, 58523, Note_on_c, 0, 69, 0
1, 58559, Note_on_c, 0, 61, 72
1, 58561, Note_on_c, 0, 64, 0
1, 58595, Note_on_c, 0, 61, 0
1, 58598, Note_on_c, 0, 64, 89
1, 58638, Note_on_c, 0, 61, 68
1, 58639, Note_on_c, 0, 64, 0
1, 58678, Note_on_c, 0, 57, 85
1, 58680, Note_on_c, 0, 61, 0
1, 58718, Note_on_c, 0, 61, 85
1, 58719, Note_on_c, 0, 57, 0
1, 58759, Note_on_c, 0, 57, 76
1, 58762, Note_on_c, 0, 61, 0
1, 58799, Note_on_c, 0, 52, 64
1, 58801, Note_on_c, 0, 57, 0
1, 58838, Note_on_c, 0, 52, 0
1, 58839, Note_on_c, 0, 57, 76
1, 58877, Note_on_c, 0, 57, 0
1, 58879, Note_on_c, 0, 52, 53
1, 58919, Note_on_c, 0, 49, 85
1, 58923, Note_on_c, 0, 52, 0
1, 58957, Note_on_c, 0, 49, 0
1, 58959, Note_on_c, 0, 52, 60
1, 58998, Note_on_c, 0, 49, 60
1, 59004, Note_on_c, 0, 52, 0
1, 59039, Note_on_c, 0, 45, 89
1, 59039, Note_on_c, 1, 33, 64
1, 59041, Note_on_c, 0, 49, 0
1, 59079, Note_on_c, 0, 49, 62
1, 59081, Note_on_c, 1, 37, 64
1, 59086, Note_on_c, 0, 45, 0
1, 59092, Note_on_c, 1, 33, 0
1, 59119, Note_on_c, 0, 49, 0
1, 59119, Note_on_c, 0, 52, 80
1, 59121, Note_on_c, 1, 40, 76
1, 59123, Note_on_c, 1, 37, 0
1, 59158, Note_on_c, 1, 40, 0
1, 59159, Note_on_c, 0, 57, 89
1, 59159, Note_on_c, 1, 45, 60
1, 59161, Note_on_c, 0, 52, 0
1, 59199, Note_on_c, 0, 52, 68
1, 59199, Note_on_c, 1, 40, 72
1, 59200, Note_on_c, 0, 57, 0
1, 59206, Note_on_c, 1, 45, 0
1, 59239, Note_on_c, 0, 49, 56
1, 59239, Note_on_c, 1, 37, 60
1, 59242, Note_on_c, 0, 52, 0
1, 59244, Note_on_c, 1, 40, 0
1, 59279, Note_on_c, 1, 37, 0
1, 59279, Note_on_c, 1, 33, 62
1, 59280, Note_on_c, 0, 45, 80
1, 59283, Note_on_c, 0, 49, 0
1, 59320, Note_on_c, 1, 37, 64
1, 59321, Note_on_c, 0, 49, 62
1, 59325, Note_on_c, 0, 45, 0
1, 59327, Note_on_c, 1, 33, 0
1, 59360, Note_on_c, 0, 52, 68
1, 59361, Note_on_c, 0, 49, 0
1, 59361, Note_on_c, 1, 40, 60
1, 59366, Note_on_c, 1, 37, 0
1, 59399, Note_on_c, 0, 57, 89
1, 59400, Note_on_c, 0, 52, 0
1, 59401, Note_on_c, 1, 45, 68
1, 59403, Note_on_c, 1, 40, 0
1, 59439, Note_on_c, 1, 40, 76
1, 59441, Note_on_c, 0, 57, 0
1, 59441, Note_on_c, 0, 52, 64
1, 59442, Note_on_c, 1, 45, 0
1, 59479, Note_on_c, 0, 49, 57
1, 59479, Note_on_c, 1, 37, 56
1, 59482, Note_on_c, 0, 52, 0
1, 59484, Note_on_c, 1, 40, 0
1, 59519, Note_on_c, 0, 45, 80
1, 59519, Note_on_c, 1, 33, 68
1, 59520, Note_on_c, 0, 49, 0
1, 59521, Note_on_c, 1, 37, 0
1, 59559, Note_on_c, 1, 37, 43
1, 59560, Note_on_c, 0, 49, 62
1, 59562, Note_on_c, 0, 45, 0
1, 59562, Note_on_c, 1, 33, 0
1, 59599, Note_on_c, 1, 40, 76
1, 59600, Note_on_c, 0, 49, 0
1, 59600, Note_on_c, 0, 52, 72
1, 59604, Note_on_c, 1, 37, 0
1, 59639, Note_on_c, 1, 45, 64
1, 59641, Note_on_c, 0, 57, 80
1, 59642, Note_on_c, 0, 52, 0
1, 59647, Note_on_c, 1, 40, 0
1, 59678, Note_on_c, 1, 45, 0
1, 59679, Note_on_c, 0, 57, 0
1, 59679, Note_on_c, 1, 49, 72
1, 59680, Note_on_c, 0, 61, 72
1, 59715, Note_on_c, 0, 61, 0
1, 59718, Note_on_c, 1, 49, 0
1, 59719, Note_on_c, 0, 64, 64
1, 59719, Note_on_c, 1, 52, 72
1, 59759, Note_on_c, 1, 57, 72
1, 59760, Note_on_c, 0, 69, 98
1, 59761, Note_on_c, 1, 52, 0
1, 59762, Note_on_c, 0, 64, 0
1, 59799, Note_on_c, 1, 52, 76
1, 59801, Note_on_c, 0, 64, 80
1, 59801, Note_on_c, 1, 57, 0
1, 59803, Note_on_c, 0, 69, 0
1, 59841, Note_on_c, 0, 61, 68
1, 59841, Note_on_c, 1, 49, 68
1, 59844, Note_on_c, 0, 64, 0
1, 59844, Note_on_c, 1, 52, 0
1, 59874, Note_on_c, 1, 49, 0
1, 59880, Note_on_c, 1, 45, 76
1, 59881, Note_on_c, 0, 57, 80
1, 59885, Note_on_c, 0, 61, 0
1, 59920, Note_on_c, 1, 49, 57
1, 59921, Note_on_c, 0, 61, 72
1, 59924, Note_on_c, 0, 57, 0
1, 59927, Note_on_c, 1, 45, 0
1, 59960, Note_on_c, 0, 61, 0
1, 59961, Note_on_c, 0, 64, 76
1, 59961, Note_on_c, 1, 52, 68
1, 59963, Note_on_c, 1, 49, 0
1, 60000, Note_on_c, 0, 64, 0
1, 60001, Note_on_c, 0, 57, 76
1, 60001, Note_on_c, 1, 45, 89
1, 60002, Note_on_c, 1, 52, 0
1, 60041, Note_on_c, 0, 61, 72
1, 60041, Note_on_c, 1, 49, 60
1, 60044, Note_on_c, 1, 45, 0
1, 60045, Note_on_c, 0, 57, 0
1, 60080, Note_on_c, 0, 64, 72
1, 60081, Note_on_c, 0, 61, 0
1, 60081, Note_on_c, 1, 52, 80
1, 60085, Note_on_c, 1, 49, 0
1, 60120, Note_on_c, 1, 52, 0
1, 60121, Note_on_c, 0, 64, 0
1, 60121, Note_on_c, 0, 69, 76
1, 60121, Note_on_c, 1, 57, 72
1, 60159, Note_on_c, 0, 73, 68
1, 60161, Note_on_c, 1, 61, 72
1, 60164, Note_on_c, 1, 57, 0
1, 60168, Note_on_c, 0, 69, 0
1, 60195, Note_on_c, 1, 61, 0
1, 60199, Note_on_c, 1, 64, 80
1, 60200, Note_on_c, 0, 76, 64
1, 60201, Note_on_c, 0, 73, 0
1, 60234, Note_on_c, 1, 64, 0
1, 60239, Note_on_c, 0, 76, 0
1, 60239, Note_on_c, 0, 81, 89
1, 60239, Note_on_c, 1, 69, 76
1, 60273, Note_on_c, 1, 69, 0
1, 60278, Note_on_c, 1, 64, 59
1, 60280, Note_on_c, 0, 76, 56
1, 60283, Note_on_c, 0, 81, 0
1, 60318, Note_on_c, 1, 61, 76
1, 60319, Note_on_c, 0, 73, 62
1, 60321, Note_on_c, 0, 76, 0
1, 60322, Note_on_c, 1, 64, 0
1, 60355, Note_on_c, 1, 61, 0
1, 60359, Note_on_c, 1, 57, 89
1, 60360, Note_on_c, 0, 73, 0
1, 60361, Note_on_c, 0, 69, 72
1, 60398, Note_on_c, 1, 61, 68
1, 60401, Note_on_c, 0, 73, 89
1, 60403, Note_on_c, 1, 57, 0
1, 60404, Note_on_c, 0, 69, 0
1, 60439, Note_on_c, 0, 73, 0
1, 60439, Note_on_c, 1, 64, 72
1, 60440, Note_on_c, 1, 61, 0
1, 60441, Note_on_c, 0, 76, 89
1, 60480, Note_on_c, 0, 76, 0
1, 60480, Note_on_c, 1, 69, 98
1, 60481, Note_on_c, 0, 81, 89
1, 60482, Note_on_c, 1, 64, 0
1, 60595, Note_on_c, 0, 81, 0
1, 60599, Note_on_c, 0, 69, 93
1, 60601, Note_on_c, 1, 69, 0
1, 60601, Note_on_c, 1, 45, 72
1, 60601, Note_on_c, 1, 57, 68
1, 60710, Note_on_c, 0, 69, 0
1, 60717, Note_on_c, 1, 57, 0
1, 60718, Note_on_c, 0, 81, 98
1, 60720, Note_on_c, 1, 45, 0
1, 60838, Note_on_c, 1, 64, 102
1, 60838, Note_on_c, 1, 61, 93
1, 60957, Note_on_c, 1, 64, 0
1, 60958, Note_on_c, 1, 65, 80
1, 60958, Note_on_c, 1, 62, 76
1, 60961, Note_on_c, 1, 61, 0
1, 60999, Note_on_c, 0, 82, 62
1, 61006, Note_on_c, 0, 81, 0
1, 61039, Note_on_c, 0, 81, 60
1, 61042, Note_on_c, 0, 82, 0
1, 61079, Note_on_c, 0, 79, 56
1, 61079, Note_on_c, 1, 64, 64
1, 61079, Note_on_c, 1, 67, 76
1, 61082, Note_on_c, 0, 81, 0
1, 61082, Note_on_c, 1, 65, 0
1, 61086, Note_on_c, 1, 62, 0
1, 61091, Note_on_c, 1, 64, 0
1, 61093, Note_on_c, 1, 67, 0
1, 61120, Note_on_c, 0, 81, 62
1, 61124, Note_on_c, 0, 79, 0
1, 61157, Note_on_c, 0, 81, 0
1, 61159, Note_on_c, 0, 79, 60
1, 61198, Note_on_c, 0, 79, 0
1, 61199, Note_on_c, 0, 77, 64
1, 61199, Note_on_c, 1, 69, 64
1, 61199, Note_on_c, 1, 65, 56
1, 61211, Note_on_c, 1, 69, 0
1, 61212, Note_on_c, 1, 65, 0
1, 61239, Note_on_c, 0, 79, 57
1, 61242, Note_on_c, 0, 77, 0
1, 61279, Note_on_c, 0, 77, 64
1, 61284, Note_on_c, 0, 79, 0
1, 61319, Note_on_c, 0, 76, 57
1, 61319, Note_on_c, 1, 70, 59
1, 61320, Note_on_c, 1, 67, 57
1, 61322, Note_on_c, 0, 77, 0
1, 61332, Note_on_c, 1, 70, 0
1, 61333, Note_on_c, 1, 67, 0
1, 61359, Note_on_c, 0, 77, 64
1, 61361, Note_on_c, 0, 76, 0
1, 61399, Note_on_c, 0, 76, 56
1, 61400, Note_on_c, 0, 77, 0
1, 61439, Note_on_c, 1, 69, 68
1, 61439, Note_on_c, 1, 65, 62
1, 61441, Note_on_c, 0, 74, 76
1, 61446, Note_on_c, 0, 76, 0
1, 61520, Note_on_c, 1, 65, 0
1, 61526, Note_on_c, 1, 69, 0
1, 61533, Note_on_c, 0, 74, 0
1, 61561, Note_on_c, 0, 74, 107
1, 61561, Note_on_c, 1, 50, 80
1, 61678, Note_on_c, 0, 74, 0
1, 61680, Note_on_c, 0, 73, 85
1, 61680, Note_on_c, 0, 76, 98
1, 61681, Note_on_c, 1, 62, 93
1, 61685, Note_on_c, 1, 50, 0
1, 61792, Note_on_c, 0, 76, 0
1, 61794, Note_on_c, 0, 73, 0
1, 61799, Note_on_c, 0, 72, 56
1, 61799, Note_on_c, 0, 78, 30
1, 61887, Note_on_c, 0, 72, 0
1, 61918, Note_on_c, 0, 70, 43
1, 61919, Note_on_c, 0, 79, 62
1, 61920, Note_on_c, 0, 79, 80
1, 61921, Note_on_c, 0, 70, 59
1, 61922, Note_on_c, 0, 78, 0
1, 61959, Note_on_c, 1, 63, 55
1, 61960, Note_on_c, 1, 62, 0
1, 61997, Note_on_c, 1, 63, 0
1, 61998, Note_on_c, 1, 62, 62
1, 62033, Note_on_c, 0, 70, 0
1, 62035, Note_on_c, 0, 79, 0
1, 62038, Note_on_c, 1, 62, 0
1, 62038, Note_on_c, 1, 60, 62
1, 62042, Note_on_c, 0, 78, 56
1, 62042, Note_on_c, 0, 81, 72
1, 62053, Note_on_c, 0, 79, 0
1, 62057, Note_on_c, 0, 70, 0
1, 62077, Note_on_c, 1, 60, 0
1, 62078, Note_on_c, 1, 62, 57
1, 62118, Note_on_c, 1, 60, 64
1, 62122, Note_on_c, 1, 62, 0
1, 62158, Note_on_c, 0, 81, 0
1, 62159, Note_on_c, 1, 58, 59
1, 62161, Note_on_c, 0, 78, 0
1, 62161, Note_on_c, 1, 60, 0
1, 62162, Note_on_c, 0, 82, 60
1, 62162, Note_on_c, 0, 79, 64
1, 62199, Note_on_c, 1, 60, 56
1, 62200, Note_on_c, 1, 58, 0
1, 62239, Note_on_c, 1, 58, 59
1, 62246, Note_on_c, 1, 60, 0
1, 62276, Note_on_c, 0, 79, 0
1, 62277, Note_on_c, 0, 82, 0
1, 62278, Note_on_c, 1, 58, 0
1, 62279, Note_on_c, 1, 57, 72
1, 62281, Note_on_c, 0, 84, 72
1, 62281, Note_on_c, 0, 77, 60
1, 62321, Note_on_c, 1, 58, 59
1, 62324, Note_on_c, 1, 57, 0
1, 62353, Note_on_c, 1, 58, 0
1, 62359, Note_on_c, 1, 57, 72
1, 62398, Note_on_c, 0, 84, 0
1, 62399, Note_on_c, 0, 77, 0
1, 62399, Note_on_c, 0, 82, 62
1, 62401, Note_on_c, 0, 79, 76
1, 62401, Note_on_c, 1, 57, 0
1, 62401, Note_on_c, 1, 55, 62
1, 62490, Note_on_c, 1, 55, 0
1, 62518, Note_on_c, 0, 79, 0
1, 62519, Note_on_c, 0, 67, 60
1, 62520, Note_on_c, 0, 82, 0
1, 62639, Note_on_c, 0, 79, 113
1, 62640, Note_on_c, 0, 67, 0
1, 62759, Note_on_c, 1, 59, 98
1, 62759, Note_on_c, 1, 62, 102
1, 62882, Note_on_c, 1, 64, 93
1, 62882, Note_on_c, 1, 60, 89
1, 62894, Note_on_c, 1, 59, 0
1, 62895, Note_on_c, 1, 62, 0
1, 62919, Note_on_c, 0, 81, 55
1, 62923, Note_on_c, 0, 79, 0
1, 62958, Note_on_c, 1, 60, 0
1, 62959, Note_on_c, 0, 79, 60
1, 62965, Note_on_c, 0, 81, 0
1, 62998, Note_on_c, 0, 77, 72
1, 63001, Note_on_c, 0, 79, 0
1, 63002, Note_on_c, 1, 64, 0
1, 63002, Note_on_c, 1, 62, 56
1, 63002, Note_on_c, 1, 65, 62
1, 63019, Note_on_c, 1, 65, 0
1, 63029, Note_on_c, 1, 62, 0
1, 63039, Note_on_c, 0, 79, 52
1, 63047, Note_on_c, 0, 77, 0
1, 63078, Note_on_c, 0, 79, 0
1, 63079, Note_on_c, 0, 77, 50
1, 63120, Note_on_c, 0, 76, 72
1, 63121, Note_on_c, 1, 64, 57
1, 63121, Note_on_c, 1, 67, 72
1, 63124, Note_on_c, 0, 77, 0
1, 63140, Note_on_c, 1, 67, 0
1, 63140, Note_on_c, 1, 64, 0
1, 63160, Note_on_c, 0, 77, 52
1, 63167, Note_on_c, 0, 76, 0
1, 63200, Note_on_c, 0, 77, 0
1, 63200, Note_on_c, 0, 76, 53
1, 63240, Note_on_c, 1, 65, 62
1, 63241, Note_on_c, 0, 74, 60
1, 63241, Note_on_c, 1, 69, 76
1, 63243, Note_on_c, 0, 76, 0
1, 63259, Note_on_c, 1, 69, 0
1, 63259, Note_on_c, 1, 65, 0
1, 63279, Note_on_c, 0, 74, 0
1, 63280, Note_on_c, 0, 76, 53
1, 63319, Note_on_c, 0, 74, 56
1, 63320, Note_on_c, 0, 76, 0
1, 63360, Note_on_c, 0, 72, 60
1, 63361, Note_on_c, 0, 74, 0
1, 63361, Note_on_c, 1, 67, 72
1, 63361, Note_on_c, 1, 64, 57
1, 63454, Note_on_c, 0, 72, 0
1, 63454, Note_on_c, 1, 64, 0
1, 63466, Note_on_c, 1, 67, 0
1, 63480, Note_on_c, 0, 72, 119
1, 63481, Note_on_c, 1, 48, 93
1, 63594, Note_on_c, 1, 48, 0
1, 63601, Note_on_c, 0, 71, 76
1, 63601, Note_on_c, 0, 74, 89
1, 63601, Note_on_c, 1, 60, 89
1, 63605, Note_on_c, 0, 72, 0
1, 63719, Note_on_c, 0, 71, 0
1, 63720, Note_on_c, 0, 70, 51
1, 63721, Note_on_c, 0, 76, 59
1, 63722, Note_on_c, 0, 74, 0
1, 63835, Note_on_c, 0, 76, 0
1, 63837, Note_on_c, 0, 70, 0
1, 63839, Note_on_c, 0, 69, 50
1, 63839, Note_on_c, 0, 77, 53
1, 63880, Note_on_c, 1, 62, 62
1, 63884, Note_on_c, 1, 60, 0
1, 63918, Note_on_c, 1, 62, 0
1, 63919, Note_on_c, 1, 60, 55
1, 63952, Note_on_c, 0, 77, 0
1, 63958, Note_on_c, 0, 76, 57
1, 63959, Note_on_c, 0, 79, 48
1, 63959, Note_on_c, 1, 58, 57
1, 63963, Note_on_c, 0, 69, 0
1, 63964, Note_on_c, 1, 60, 0
1, 63997, Note_on_c, 1, 58, 0
1, 63999, Note_on_c, 1, 60, 57
1, 64038, Note_on_c, 1, 58, 62
1, 64043, Note_on_c, 1, 60, 0
1, 64074, Note_on_c, 1, 58, 0
1, 64076, Note_on_c, 0, 76, 0
1, 64078, Note_on_c, 1, 57, 62
1, 64079, Note_on_c, 0, 79, 0
1, 64079, Note_on_c, 0, 81, 60
1, 64079, Note_on_c, 0, 77, 51
1, 64119, Note_on_c, 1, 58, 57
1, 64123, Note_on_c, 1, 57, 0
1, 64157, Note_on_c, 1, 58, 0
1, 64158, Note_on_c, 1, 57, 60
1, 64195, Note_on_c, 1, 57, 0
1, 64198, Note_on_c, 1, 55, 55
1, 64199, Note_on_c, 0, 77, 0
1, 64199, Note_on_c, 0, 82, 59
1, 64199, Note_on_c, 0, 76, 57
1, 64206, Note_on_c, 0, 81, 0
1, 64236, Note_on_c, 1, 55, 0
1, 64238, Note_on_c, 1, 57, 62
1, 64278, Note_on_c, 1, 57, 0
1, 64278, Note_on_c, 1, 55, 55
1, 64319, Note_on_c, 0, 81, 56
1, 64319, Note_on_c, 1, 53, 56
1, 64321, Note_on_c, 0, 77, 49
1, 64323, Note_on_c, 1, 55, 0
1, 64325, Note_on_c, 0, 76, 0
1, 64326, Note_on_c, 0, 82, 0
1, 64418, Note_on_c, 1, 53, 0
1, 64434, Note_on_c, 0, 77, 0
1, 64435, Note_on_c, 0, 81, 0
1, 64439, Note_on_c, 0, 65, 93
1, 64561, Note_on_c, 0, 77, 89
1, 64569, Note_on_c, 0, 65, 0
1, 64682, Note_on_c, 1, 46, 106
1, 64803, Note_on_c, 1, 58, 86
1, 64805, Note_on_c, 1, 46, 0
1, 64836, Note_on_c, 0, 77, 0
1, 64838, Note_on_c, 0, 79, 72
1, 64879, Note_on_c, 0, 77, 68
1, 64886, Note_on_c, 0, 79, 0
1, 64919, Note_on_c, 0, 75, 76
1, 64925, Note_on_c, 0, 77, 0
1, 64961, Note_on_c, 0, 77, 56
1, 64968, Note_on_c, 0, 75, 0
1, 65001, Note_on_c, 0, 75, 49
1, 65009, Note_on_c, 0, 77, 0
1, 65038, Note_on_c, 0, 75, 0
1, 65040, Note_on_c, 0, 74, 89
1, 65071, Note_on_c, 1, 58, 0
1, 65079, Note_on_c, 1, 60, 76
1, 65081, Note_on_c, 0, 75, 60
1, 65089, Note_on_c, 0, 74, 0
1, 65119, Note_on_c, 1, 58, 67
1, 65120, Note_on_c, 0, 75, 0
1, 65121, Note_on_c, 0, 74, 42
1, 65130, Note_on_c, 1, 60, 0
1, 65161, Note_on_c, 0, 74, 0
1, 65161, Note_on_c, 0, 72, 80
1, 65161, Note_on_c, 1, 57, 74
1, 65164, Note_on_c, 1, 58, 0
1, 65201, Note_on_c, 0, 74, 59
1, 65201, Note_on_c, 1, 58, 70
1, 65203, Note_on_c, 0, 72, 0
1, 65204, Note_on_c, 1, 57, 0
1, 65240, Note_on_c, 1, 58, 0
1, 65241, Note_on_c, 0, 72, 57
1, 65241, Note_on_c, 1, 57, 74
1, 65245, Note_on_c, 0, 74, 0
1, 65279, Note_on_c, 1, 57, 0
1, 65281, Note_on_c, 0, 72, 0
1, 65281, Note_on_c, 0, 70, 64
1, 65281, Note_on_c, 1, 55, 76
1, 65319, Note_on_c, 1, 55, 0
1, 65320, Note_on_c, 1, 57, 72
1, 65361, Note_on_c, 1, 55, 72
1, 65366, Note_on_c, 1, 57, 0
1, 65377, Note_on_c, 0, 70, 0
1, 65398, Note_on_c, 0, 70, 107
1, 65401, Note_on_c, 1, 55, 0
1, 65401, Note_on_c, 1, 53, 76
1, 65437, Note_on_c, 1, 53, 0
1, 65439, Note_on_c, 1, 55, 74
1, 65479, Note_on_c, 1, 53, 72
1, 65482, Note_on_c, 1, 55, 0
1, 65519, Note_on_c, 0, 82, 102
1, 65519, Note_on_c, 1, 52, 76
1, 65521, Note_on_c, 1, 53, 0
1, 65522, Note_on_c, 0, 70, 0
1, 65639, Note_on_c, 1, 48, 96
1, 65641, Note_on_c, 1, 52, 0
1, 65761, Note_on_c, 1, 70, 89
1, 65766, Note_on_c, 1, 48, 0
1, 65797, Note_on_c, 0, 82, 0
1, 65799, Note_on_c, 0, 84, 76
1, 65838, Note_on_c, 0, 82, 62
1, 65845, Note_on_c, 0, 84, 0
1, 65879, Note_on_c, 0, 81, 89
1, 65884, Note_on_c, 0, 82, 0
1, 65919, Note_on_c, 0, 82, 52
1, 65928, Note_on_c, 0, 81, 0
1, 65959, Note_on_c, 0, 81, 62
1, 65962, Note_on_c, 0, 82, 0
1, 65999, Note_on_c, 0, 79, 93
1, 66003, Note_on_c, 0, 81, 0
1, 66036, Note_on_c, 1, 70, 0
1, 66039, Note_on_c, 1, 72, 89
1, 66041, Note_on_c, 0, 81, 60
1, 66047, Note_on_c, 0, 79, 0
1, 66079, Note_on_c, 1, 70, 76
1, 66081, Note_on_c, 0, 81, 0
1, 66081, Note_on_c, 0, 79, 56
1, 66086, Note_on_c, 1, 72, 0
1, 66119, Note_on_c, 1, 69, 85
1, 66120, Note_on_c, 0, 79, 0
1, 66121, Note_on_c, 0, 77, 89
1, 66124, Note_on_c, 1, 70, 0
1, 66159, Note_on_c, 1, 70, 62
1, 66161, Note_on_c, 0, 79, 64
1, 66163, Note_on_c, 0, 77, 0
1, 66163, Note_on_c, 1, 69, 0
1, 66199, Note_on_c, 0, 77, 59
1, 66200, Note_on_c, 1, 69, 72
1, 66201, Note_on_c, 0, 79, 0
1, 66203, Note_on_c, 1, 70, 0
1, 66241, Note_on_c, 0, 76, 93
1, 66241, Note_on_c, 1, 67, 72
1, 66242, Note_on_c, 0, 77, 0
1, 66242, Note_on_c, 1, 69, 0
1, 66281, Note_on_c, 1, 69, 76
1, 66282, Note_on_c, 0, 74, 56
1, 66283, Note_on_c, 0, 76, 0
1, 66287, Note_on_c, 1, 67, 0
1, 66318, Note_on_c, 0, 74, 0
1, 66320, Note_on_c, 1, 69, 0
1, 66321, Note_on_c, 0, 76, 60
1, 66321, Note_on_c, 1, 67, 51
1, 66361, Note_on_c, 0, 76, 0
1, 66361, Note_on_c, 0, 77, 89
1, 66361, Note_on_c, 1, 67, 0
1, 66361, Note_on_c, 1, 65, 89
1, 66399, Note_on_c, 1, 67, 51
1, 66401, Note_on_c, 0, 76, 62
1, 66401, Note_on_c, 1, 65, 0
1, 66402, Note_on_c, 0, 77, 0
1, 66440, Note_on_c, 0, 77, 68
1, 66440, Note_on_c, 1, 65, 62
1, 66441, Note_on_c, 0, 76, 0
1, 66445, Note_on_c, 1, 67, 0
1, 66480, Note_on_c, 0, 77, 0
1, 66481, Note_on_c, 0, 79, 93
1, 66481, Note_on_c, 1, 64, 85
1, 66482, Note_on_c, 1, 65, 0
1, 66521, Note_on_c, 0, 77, 51
1, 66521, Note_on_c, 1, 65, 60
1, 66522, Note_on_c, 0, 79, 0
1, 66531, Note_on_c, 1, 64, 0
1, 66557, Note_on_c, 1, 65, 0
1, 66560, Note_on_c, 0, 79, 59
1, 66560, Note_on_c, 1, 64, 62
1, 66563, Note_on_c, 0, 77, 0
1, 66599, Note_on_c, 1, 64, 0
1, 66600, Note_on_c, 0, 79, 0
1, 66601, Note_on_c, 0, 81, 89
1, 66601, Note_on_c, 1, 62, 80
1, 66641, Note_on_c, 0, 79, 47
1, 66641, Note_on_c, 1, 64, 60
1, 66642, Note_on_c, 0, 81, 0
1, 66643, Note_on_c, 1, 62, 0
1, 66680, Note_on_c, 1, 62, 68
1, 66681, Note_on_c, 0, 81, 72
1, 66682, Note_on_c, 0, 79, 0
1, 66683, Note_on_c, 1, 64, 0
1, 66718, Note_on_c, 0, 81, 0
1, 66721, Note_on_c, 0, 82, 85
1, 66721, Note_on_c, 1, 64, 68
1, 66721, Note_on_c, 1, 60, 72
1, 66722, Note_on_c, 1, 62, 0
1, 66761, Note_on_c, 0, 84, 56
1, 66762, Note_on_c, 0, 82, 0
1, 66801, Note_on_c, 0, 82, 56
1, 66805, Note_on_c, 0, 84, 0
1, 66840, Note_on_c, 0, 81, 93
1, 66841, Note_on_c, 1, 65, 89
1, 66842, Note_on_c, 0, 82, 0
1, 66847, Note_on_c, 1, 64, 0
1, 66881, Note_on_c, 0, 82, 51
1, 66886, Note_on_c, 0, 81, 0
1, 66919, Note_on_c, 0, 81, 59
1, 66923, Note_on_c, 0, 82, 0
1, 66959, Note_on_c, 0, 79, 98
1, 66960, Note_on_c, 0, 81, 0
1, 66961, Note_on_c, 1, 67, 85
1, 66964, Note_on_c, 1, 65, 0
1, 67001, Note_on_c, 0, 81, 64
1, 67006, Note_on_c, 0, 79, 0
1, 67040, Note_on_c, 0, 81, 0
1, 67041, Note_on_c, 0, 79, 62
1, 67078, Note_on_c, 0, 79, 0
1, 67081, Note_on_c, 0, 77, 85
1, 67081, Note_on_c, 1, 69, 85
1, 67084, Note_on_c, 1, 67, 0
1, 67121, Note_on_c, 0, 79, 57
1, 67125, Note_on_c, 0, 77, 0
1, 67160, Note_on_c, 0, 77, 60
1, 67162, Note_on_c, 0, 79, 0
1, 67191, Note_on_c, 1, 60, 0
1, 67199, Note_on_c, 0, 76, 89
1, 67200, Note_on_c, 0, 77, 0
1, 67200, Note_on_c, 1, 69, 0
1, 67200, Note_on_c, 1, 70, 85
1, 67201, Note_on_c, 1, 60, 64
1, 67241, Note_on_c, 0, 74, 57
1, 67244, Note_on_c, 0, 76, 0
1, 67280, Note_on_c, 0, 74, 0
1, 67281, Note_on_c, 0, 76, 56
1, 67319, Note_on_c, 0, 76, 0
1, 67320, Note_on_c, 0, 77, 89
1, 67322, Note_on_c, 1, 69, 85
1, 67331, Note_on_c, 1, 70, 0
1, 67360, Note_on_c, 0, 76, 62
1, 67362, Note_on_c, 0, 77, 0
1, 67400, Note_on_c, 0, 77, 64
1, 67401, Note_on_c, 0, 76, 0
1, 67438, Note_on_c, 0, 77, 0
1, 67440, Note_on_c, 0, 79, 93
1, 67441, Note_on_c, 1, 67, 76
1, 67443, Note_on_c, 1, 69, 0
1, 67481, Note_on_c, 0, 79, 0
1, 67481, Note_on_c, 0, 77, 50
1, 67519, Note_on_c, 0, 77, 0
1, 67520, Note_on_c, 0, 79, 62
1, 67559, Note_on_c, 0, 79, 0
1, 67561, Note_on_c, 0, 81, 89
1, 67561, Note_on_c, 1, 65, 64
1, 67563, Note_on_c, 1, 67, 0
1, 67600, Note_on_c, 0, 79, 72
1, 67601, Note_on_c, 0, 81, 0
1, 67639, Note_on_c, 0, 81, 72
1, 67646, Note_on_c, 0, 79, 0
1, 67673, Note_on_c, 1, 65, 0
1, 67673, Note_on_c, 1, 60, 0
1, 67678, Note_on_c, 0, 81, 0
1, 67679, Note_on_c, 0, 82, 80
1, 67681, Note_on_c, 1, 60, 72
1, 67681, Note_on_c, 1, 64, 76
1, 67703, Note_on_c, 0, 82, 0
1, 67719, Note_on_c, 0, 82, 68
1, 67760, Note_on_c, 0, 79, 72
1, 67764, Note_on_c, 0, 82, 0
1, 67799, Note_on_c, 0, 76, 76
1, 67800, Note_on_c, 0, 79, 0
1, 67840, Note_on_c, 0, 79, 80
1, 67843, Note_on_c, 0, 76, 0
1, 67879, Note_on_c, 0, 79, 0
1, 67880, Note_on_c, 0, 76, 76
1, 67911, Note_on_c, 0, 76, 0
1, 67918, Note_on_c, 1, 64, 0
1, 67921, Note_on_c, 0, 70, 68
1, 67921, Note_on_c, 1, 60, 0
1, 67961, Note_on_c, 0, 70, 0
1, 67961, Note_on_c, 0, 76, 48
1, 68001, Note_on_c, 0, 70, 59
1, 68009, Note_on_c, 0, 76, 0
1, 68041, Note_on_c, 0, 67, 76
1, 68043, Note_on_c, 0, 70, 0
1, 68081, Note_on_c, 0, 70, 72
1, 68085, Note_on_c, 0, 67, 0
1, 68120, Note_on_c, 0, 70, 0
1, 68121, Note_on_c, 0, 67, 68
1, 68161, Note_on_c, 0, 64, 80
1, 68162, Note_on_c, 0, 67, 0
1, 68201, Note_on_c, 0, 67, 76
1, 68204, Note_on_c, 0, 64, 0
1, 68241, Note_on_c, 0, 64, 64
1, 68247, Note_on_c, 0, 67, 0
1, 68281, Note_on_c, 0, 58, 64
1, 68282, Note_on_c, 0, 64, 0
1, 68321, Note_on_c, 0, 58, 0
1, 68321, Note_on_c, 0, 64, 80
1, 68360, Note_on_c, 0, 58, 52
1, 68361, Note_on_c, 0, 64, 0
1, 68401, Note_on_c, 0, 55, 62
1, 68406, Note_on_c, 0, 58, 0
1, 68439, Note_on_c, 0, 55, 0
1, 68439, Note_on_c, 0, 58, 60
1, 68479, Note_on_c, 0, 55, 62
1, 68481, Note_on_c, 0, 58, 0
1, 68520, Note_on_c, 0, 52, 56
1, 68521, Note_on_c, 0, 55, 0
1, 68556, Note_on_c, 0, 52, 0
1, 68559, Note_on_c, 0, 55, 72
1, 68599, Note_on_c, 0, 52, 72
1, 68604, Note_on_c, 0, 55, 0
1, 68637, Note_on_c, 0, 52, 0
1, 68639, Note_on_c, 0, 48, 85
1, 68639, Note_on_c, 1, 36, 68
1, 68679, Note_on_c, 0, 52, 62
1, 68679, Note_on_c, 1, 40, 51
1, 68683, Note_on_c, 0, 48, 0
1, 68688, Note_on_c, 1, 36, 0
1, 68719, Note_on_c, 0, 52, 0
1, 68719, Note_on_c, 0, 55, 72
1, 68719, Note_on_c, 1, 43, 68
1, 68722, Note_on_c, 1, 40, 0
1, 68757, Note_on_c, 0, 55, 0
1, 68759, Note_on_c, 0, 58, 76
1, 68759, Note_on_c, 1, 46, 62
1, 68760, Note_on_c, 1, 43, 0
1, 68799, Note_on_c, 0, 55, 76
1, 68799, Note_on_c, 1, 43, 60
1, 68801, Note_on_c, 1, 46, 0
1, 68804, Note_on_c, 0, 58, 0
1, 68837, Note_on_c, 1, 43, 0
1, 68838, Note_on_c, 1, 40, 57
1, 68839, Note_on_c, 0, 52, 76
1, 68845, Note_on_c, 0, 55, 0
1, 68879, Note_on_c, 0, 48, 85
1, 68879, Note_on_c, 1, 36, 72
1, 68880, Note_on_c, 0, 52, 0
1, 68883, Note_on_c, 1, 40, 0
1, 68919, Note_on_c, 0, 52, 72
1, 68919, Note_on_c, 1, 40, 64
1, 68925, Note_on_c, 0, 48, 0
1, 68926, Note_on_c, 1, 36, 0
1, 68958, Note_on_c, 0, 52, 0
1, 68959, Note_on_c, 0, 55, 64
1, 68961, Note_on_c, 1, 43, 60
1, 68963, Note_on_c, 1, 40, 0
1, 68999, Note_on_c, 0, 58, 68
1, 68999, Note_on_c, 1, 43, 0
1, 68999, Note_on_c, 1, 46, 64
1, 69004, Note_on_c, 0, 55, 0
1, 69039, Note_on_c, 0, 55, 62
1, 69039, Note_on_c, 1, 43, 64
1, 69041, Note_on_c, 0, 58, 0
1, 69042, Note_on_c, 1, 46, 0
1, 69079, Note_on_c, 0, 52, 64
1, 69079, Note_on_c, 1, 40, 76
1, 69081, Note_on_c, 1, 43, 0
1, 69084, Note_on_c, 0, 55, 0
1, 69119, Note_on_c, 0, 48, 85
1, 69119, Note_on_c, 1, 40, 0
1, 69119, Note_on_c, 1, 36, 68
1, 69120, Note_on_c, 0, 52, 0
1, 69159, Note_on_c, 0, 52, 62
1, 69159, Note_on_c, 1, 40, 72
1, 69162, Note_on_c, 0, 48, 0
1, 69162, Note_on_c, 1, 36, 0
1, 69196, Note_on_c, 1, 40, 0
1, 69198, Note_on_c, 1, 43, 57
1, 69199, Note_on_c, 0, 55, 76
1, 69202, Note_on_c, 0, 52, 0
1, 69238, Note_on_c, 1, 48, 72
1, 69239, Note_on_c, 0, 60, 80
1, 69241, Note_on_c, 1, 43, 0
1, 69242, Note_on_c, 0, 55, 0
1, 69279, Note_on_c, 0, 64, 80
1, 69279, Note_on_c, 1, 52, 64
1, 69285, Note_on_c, 0, 60, 0
1, 69285, Note_on_c, 1, 48, 0
1, 69318, Note_on_c, 1, 55, 80
1, 69319, Note_on_c, 0, 64, 0
1, 69319, Note_on_c, 0, 67, 85
1, 69320, Note_on_c, 1, 52, 0
1, 69359, Note_on_c, 1, 58, 85
1, 69360, Note_on_c, 0, 70, 89
1, 69360, Note_on_c, 1, 55, 0
1, 69362, Note_on_c, 0, 67, 0
1, 69399, Note_on_c, 1, 55, 80
1, 69401, Note_on_c, 0, 67, 76
1, 69401, Note_on_c, 1, 58, 0
1, 69403, Note_on_c, 0, 70, 0
1, 69439, Note_on_c, 1, 52, 72
1, 69440, Note_on_c, 0, 64, 72
1, 69445, Note_on_c, 0, 67, 0
1, 69448, Note_on_c, 1, 55, 0
1, 69479, Note_on_c, 1, 48, 68
1, 69481, Note_on_c, 0, 60, 72
1, 69481, Note_on_c, 1, 52, 0
1, 69482, Note_on_c, 0, 64, 0
1, 69520, Note_on_c, 0, 64, 72
1, 69521, Note_on_c, 1, 52, 72
1, 69526, Note_on_c, 1, 48, 0
1, 69531, Note_on_c, 0, 60, 0
1, 69557, Note_on_c, 1, 52, 0
1, 69559, Note_on_c, 0, 64, 0
1, 69559, Note_on_c, 0, 67, 76
1, 69559, Note_on_c, 1, 55, 62
1, 69597, Note_on_c, 1, 55, 0
1, 69599, Note_on_c, 0, 67, 0
1, 69599, Note_on_c, 1, 48, 89
1, 69601, Note_on_c, 0, 60, 89
1, 69640, Note_on_c, 1, 52, 72
1, 69641, Note_on_c, 0, 64, 64
1, 69642, Note_on_c, 1, 48, 0
1, 69646, Note_on_c, 0, 60, 0
1, 69681, Note_on_c, 0, 64, 0
1, 69681, Note_on_c, 0, 67, 72
1, 69681, Note_on_c, 1, 52, 0
1, 69681, Note_on_c, 1, 55, 80
1, 69721, Note_on_c, 0, 67, 0
1, 69721, Note_on_c, 0, 72, 72
1, 69721, Note_on_c, 1, 60, 76
1, 69723, Note_on_c, 1, 55, 0
1, 69761, Note_on_c, 0, 76, 72
1, 69761, Note_on_c, 1, 64, 72
1, 69766, Note_on_c, 1, 60, 0
1, 69768, Note_on_c, 0, 72, 0
1, 69797, Note_on_c, 1, 64, 0
1, 69799, Note_on_c, 0, 76, 0
1, 69799, Note_on_c, 0, 79, 72
1, 69800, Note_on_c, 1, 67, 72
1, 69839, Note_on_c, 0, 82, 89
1, 69839, Note_on_c, 1, 67, 0
1, 69839, Note_on_c, 1, 70, 85
1, 69840, Note_on_c, 0, 79, 0
1, 69879, Note_on_c, 0, 79, 76
1, 69879, Note_on_c, 1, 67, 80
1, 69881, Note_on_c, 1, 70, 0
1, 69883, Note_on_c, 0, 82, 0
1, 69919, Note_on_c, 0, 76, 64
1, 69919, Note_on_c, 1, 64, 76
1, 69921, Note_on_c, 0, 79, 0
1, 69921, Note_on_c, 1, 67, 0
1, 69959, Note_on_c, 0, 72, 80
1, 69959, Note_on_c, 1, 60, 62
1, 69961, Note_on_c, 0, 76, 0
1, 69961, Note_on_c, 1, 64, 0
1, 69999, Note_on_c, 1, 64, 76
1, 70000, Note_on_c, 0, 76, 76
1, 70006, Note_on_c, 1, 60, 0
1, 70008, Note_on_c, 0, 72, 0
1, 70039, Note_on_c, 0, 76, 0
1, 70039, Note_on_c, 0, 79, 80
1, 70040, Note_on_c, 1, 64, 0
1, 70040, Note_on_c, 1, 67, 85
1, 70080, Note_on_c, 1, 67, 0
1, 70081, Note_on_c, 0, 79, 0
1, 70081, Note_on_c, 0, 82, 89
1, 70081, Note_on_c, 1, 70, 89
1, 70163, Note_on_c, 0, 82, 0
1, 70197, Note_on_c, 1, 70, 0
1, 70201, Note_on_c, 0, 67, 76
1, 70201, Note_on_c, 0, 70, 76
1, 70201, Note_on_c, 0, 64, 72
1, 70201, Note_on_c, 1, 48, 76
1, 70313, Note_on_c, 0, 70, 0
1, 70316, Note_on_c, 0, 64, 0
1, 70318, Note_on_c, 0, 67, 0
1, 70320, Note_on_c, 1, 48, 0
1, 70439, Note_on_c, 0, 72, 56
1, 70558, Note_on_c, 0, 70, 62
1, 70561, Note_on_c, 0, 72, 0
1, 70617, Note_on_c, 0, 69, 64
1, 70619, Note_on_c, 0, 70, 0
1, 70677, Note_on_c, 0, 67, 59
1, 70678, Note_on_c, 0, 69, 0
1, 70738, Note_on_c, 0, 65, 62
1, 70746, Note_on_c, 0, 67, 0
1, 70798, Note_on_c, 0, 69, 64
1, 70801, Note_on_c, 0, 65, 0
1, 70859, Note_on_c, 0, 67, 64
1, 70861, Note_on_c, 0, 69, 0
1, 70919, Note_on_c, 0, 70, 68
1, 70921, Note_on_c, 0, 67, 0
1, 70979, Note_on_c, 0, 64, 60
1, 70982, Note_on_c, 0, 70, 0
1, 71040, Note_on_c, 0, 65, 76
1, 71044, Note_on_c, 0, 64, 0
1, 71063, Note_on_c, 0, 65, 0
1, 71158, Note_on_c, 0, 60, 56
1, 71185, Note_on_c, 0, 60, 0
1, 71278, Note_on_c, 0, 72, 80
1, 71518, Note_on_c, 0, 70, 64
1, 71526, Note_on_c, 0, 72, 0
1, 71579, Note_on_c, 0, 69, 62
1, 71585, Note_on_c, 0, 70, 0
1, 71637, Note_on_c, 0, 69, 0
1, 71638, Note_on_c, 0, 67, 68
1, 71698, Note_on_c, 0, 65, 76
1, 71702, Note_on_c, 0, 67, 0
1, 71759, Note_on_c, 0, 69, 64
1, 71761, Note_on_c, 0, 65, 0
1, 71818, Note_on_c, 0, 69, 0
1, 71819, Note_on_c, 0, 67, 72
1, 71879, Note_on_c, 0, 70, 72
1, 71880, Note_on_c, 0, 67, 0
1, 71936, Note_on_c, 0, 70, 0
1, 71938, Note_on_c, 0, 64, 68
1, 71997, Note_on_c, 0, 64, 0
1, 71998, Note_on_c, 0, 65, 76
1, 71999, Note_on_c, 1, 53, 55
1, 71999, Note_on_c, 1, 57, 60
1, 72054, Note_on_c, 1, 57, 0
1, 72058, Note_on_c, 1, 60, 64
1, 72113, Note_on_c, 1, 60, 0
1, 72117, Note_on_c, 1, 57, 64
1, 72178, Note_on_c, 1, 60, 57
1, 72179, Note_on_c, 1, 57, 0
1, 72239, Note_on_c, 1, 57, 68
1, 72241, Note_on_c, 1, 60, 0
1, 72299, Note_on_c, 1, 57, 0
1, 72299, Note_on_c, 1, 60, 51
1, 72361, Note_on_c, 1, 57, 72
1, 72365, Note_on_c, 1, 60, 0
1, 72418, Note_on_c, 1, 57, 0
1, 72420, Note_on_c, 1, 60, 64
1, 72457, Note_on_c, 1, 53, 0
1, 72478, Note_on_c, 0, 65, 0
1, 72480, Note_on_c, 1, 60, 0
1, 72481, Note_on_c, 0, 66, 68
1, 72481, Note_on_c, 1, 53, 56
1, 72481, Note_on_c, 1, 58, 57
1, 72537, Note_on_c, 0, 66, 0
1, 72538, Note_on_c, 0, 67, 64
1, 72538, Note_on_c, 1, 58, 0
1, 72540, Note_on_c, 1, 60, 76
1, 72594, Note_on_c, 1, 60, 0
1, 72598, Note_on_c, 0, 69, 80
1, 72598, Note_on_c, 1, 58, 57
1, 72602, Note_on_c, 0, 67, 0
1, 72656, Note_on_c, 1, 58, 0
1, 72658, Note_on_c, 0, 70, 76
1, 72658, Note_on_c, 1, 60, 62
1, 72660, Note_on_c, 0, 69, 0
1, 72718, Note_on_c, 1, 58, 56
1, 72719, Note_on_c, 0, 70, 0
1, 72719, Note_on_c, 0, 72, 72
1, 72720, Note_on_c, 1, 60, 0
1, 72779, Note_on_c, 0, 73, 72
1, 72779, Note_on_c, 1, 60, 51
1, 72785, Note_on_c, 0, 72, 0
1, 72785, Note_on_c, 1, 58, 0
1, 72839, Note_on_c, 0, 73, 0
1, 72839, Note_on_c, 0, 74, 62
1, 72839, Note_on_c, 1, 58, 57
1, 72843, Note_on_c, 1, 60, 0
1, 72895, Note_on_c, 1, 58, 0
1, 72897, Note_on_c, 0, 74, 0
1, 72898, Note_on_c, 0, 76, 80
1, 72899, Note_on_c, 1, 60, 62
1, 72919, Note_on_c, 1, 53, 0
1, 72958, Note_on_c, 0, 79, 89
1, 72958, Note_on_c, 1, 60, 0
1, 72959, Note_on_c, 1, 53, 51
1, 72959, Note_on_c, 1, 57, 72
1, 72962, Note_on_c, 0, 76, 0
1, 73019, Note_on_c, 0, 77, 76
1, 73019, Note_on_c, 1, 60, 53
1, 73020, Note_on_c, 1, 57, 0
1, 73026, Note_on_c, 0, 79, 0
1, 73073, Note_on_c, 1, 60, 0
1, 73079, Note_on_c, 0, 76, 72
1, 73079, Note_on_c, 1, 57, 51
1, 73086, Note_on_c, 0, 77, 0
1, 73138, Note_on_c, 1, 57, 0
1, 73139, Note_on_c, 0, 76, 0
1, 73139, Note_on_c, 0, 74, 64
1, 73139, Note_on_c, 1, 60, 44
1, 73191, Note_on_c, 0, 74, 0
1, 73197, Note_on_c, 1, 60, 0
1, 73199, Note_on_c, 0, 74, 89
1, 73200, Note_on_c, 1, 57, 43
1, 73257, Note_on_c, 1, 57, 0
1, 73259, Note_on_c, 0, 72, 64
1, 73259, Note_on_c, 1, 60, 51
1, 73265, Note_on_c, 0, 74, 0
1, 73315, Note_on_c, 1, 60, 0
1, 73319, Note_on_c, 1, 57, 53
1, 73320, Note_on_c, 0, 70, 64
1, 73327, Note_on_c, 0, 72, 0
1, 73378, Note_on_c, 0, 70, 0
1, 73379, Note_on_c, 0, 69, 76
1, 73379, Note_on_c, 1, 57, 0
1, 73379, Note_on_c, 1, 60, 59
1, 73415, Note_on_c, 1, 53, 0
1, 73436, Note_on_c, 1, 60, 0
1, 73438, Note_on_c, 0, 69, 0
1, 73439, Note_on_c, 0, 64, 64
1, 73439, Note_on_c, 0, 67, 80
1, 73439, Note_on_c, 1, 58, 57
1, 73439, Note_on_c, 1, 53, 53
1, 73497, Note_on_c, 1, 58, 0
1, 73499, Note_on_c, 1, 60, 57
1, 73559, Note_on_c, 1, 60, 0
1, 73559, Note_on_c, 1, 58, 52
1, 73561, Note_on_c, 0, 69, 76
1, 73565, Note_on_c, 0, 67, 0
1, 73591, Note_on_c, 0, 67, 72
1, 73596, Note_on_c, 0, 69, 0
1, 73616, Note_on_c, 1, 58, 0
1, 73619, Note_on_c, 1, 60, 51
1, 73620, Note_on_c, 0, 66, 62
1, 73623, Note_on_c, 0, 67, 0
1, 73678, Note_on_c, 1, 60, 0
1, 73679, Note_on_c, 1, 58, 57
1, 73681, Note_on_c, 0, 67, 72
1, 73687, Note_on_c, 0, 66, 0
1, 73739, Note_on_c, 1, 60, 56
1, 73741, Note_on_c, 1, 58, 0
1, 73794, Note_on_c, 1, 60, 0
1, 73796, Note_on_c, 0, 67, 0
1, 73799, Note_on_c, 0, 72, 72
1, 73800, Note_on_c, 1, 58, 52
1, 73854, Note_on_c, 1, 58, 0
1, 73859, Note_on_c, 1, 60, 62
1, 73878, Note_on_c, 1, 53, 0
1, 73916, Note_on_c, 1, 60, 0
1, 73919, Note_on_c, 0, 65, 76
1, 73919, Note_on_c, 1, 57, 76
1, 73919, Note_on_c, 1, 53, 60
1, 73920, Note_on_c, 0, 72, 0
1, 73921, Note_on_c, 0, 64, 0
1, 74165, Note_on_c, 1, 53, 0
1, 74168, Note_on_c, 1, 57, 0
1, 74170, Note_on_c, 0, 65, 0
1, 74281, Note_on_c, 1, 60, 64
1, 74400, Note_on_c, 1, 58, 72
1, 74408, Note_on_c, 1, 60, 0
1, 74461, Note_on_c, 1, 56, 68
1, 74464, Note_on_c, 1, 58, 0
1, 74519, Note_on_c, 1, 56, 0
1, 74520, Note_on_c, 1, 55, 72
1, 74581, Note_on_c, 1, 53, 60
1, 74584, Note_on_c, 1, 55, 0
1, 74639, Note_on_c, 1, 56, 59
1, 74641, Note_on_c, 1, 53, 0
1, 74699, Note_on_c, 1, 56, 0
1, 74701, Note_on_c, 1, 55, 68
1, 74761, Note_on_c, 1, 58, 56
1, 74766, Note_on_c, 1, 55, 0
1, 74819, Note_on_c, 1, 52, 64
1, 74821, Note_on_c, 1, 58, 0
1, 74877, Note_on_c, 1, 52, 0
1, 74880, Note_on_c, 1, 53, 72
1, 74919, Note_on_c, 1, 53, 0
1, 75000, Note_on_c, 1, 48, 76
1, 75043, Note_on_c, 1, 48, 0
1, 75121, Note_on_c, 0, 68, 107
1, 75121, Note_on_c, 0, 80, 107
1, 75242, Note_on_c, 1, 60, 76
1, 75242, Note_on_c, 1, 63, 80
1, 75357, Note_on_c, 1, 63, 0
1, 75359, Note_on_c, 1, 60, 0
1, 75361, Note_on_c, 0, 80, 0
1, 75361, Note_on_c, 0, 68, 0
1, 75361, Note_on_c, 1, 61, 76
1, 75361, Note_on_c, 1, 65, 80
1, 75362, Note_on_c, 0, 78, 80
1, 75422, Note_on_c, 0, 77, 76
1, 75423, Note_on_c, 0, 78, 0
1, 75473, Note_on_c, 1, 61, 0
1, 75474, Note_on_c, 1, 65, 0
1, 75481, Note_on_c, 0, 75, 80
1, 75482, Note_on_c, 0, 77, 0
1, 75539, Note_on_c, 0, 73, 62
1, 75540, Note_on_c, 0, 75, 0
1, 75599, Note_on_c, 0, 77, 76
1, 75600, Note_on_c, 0, 73, 0
1, 75659, Note_on_c, 0, 75, 64
1, 75660, Note_on_c, 0, 77, 0
1, 75719, Note_on_c, 0, 78, 72
1, 75720, Note_on_c, 0, 75, 0
1, 75721, Note_on_c, 1, 68, 89
1, 75721, Note_on_c, 1, 66, 89
1, 75779, Note_on_c, 0, 72, 62
1, 75780, Note_on_c, 0, 78, 0
1, 75839, Note_on_c, 0, 73, 89
1, 75839, Note_on_c, 1, 66, 0
1, 75840, Note_on_c, 1, 65, 80
1, 75844, Note_on_c, 0, 72, 0
1, 75864, Note_on_c, 0, 73, 0
1, 75936, Note_on_c, 1, 65, 0
1, 75936, Note_on_c, 1, 68, 0
1, 75959, Note_on_c, 0, 68, 85
1, 75984, Note_on_c, 0, 68, 0
1, 76078, Note_on_c, 1, 53, 89
1, 76197, Note_on_c, 0, 81, 102
1, 76198, Note_on_c, 0, 72, 80
1, 76317, Note_on_c, 0, 81, 0
1, 76318, Note_on_c, 1, 53, 0
1, 76319, Note_on_c, 0, 82, 89
1, 76319, Note_on_c, 0, 73, 68
1, 76320, Note_on_c, 1, 51, 89
1, 76325, Note_on_c, 0, 72, 0
1, 76380, Note_on_c, 1, 49, 85
1, 76386, Note_on_c, 1, 51, 0
1, 76425, Note_on_c, 0, 82, 0
1, 76429, Note_on_c, 0, 73, 0
1, 76440, Note_on_c, 1, 49, 0
1, 76440, Note_on_c, 1, 48, 76
1, 76500, Note_on_c, 1, 46, 76
1, 76504, Note_on_c, 1, 48, 0
1, 76557, Note_on_c, 1, 49, 85
1, 76560, Note_on_c, 1, 46, 0
1, 76614, Note_on_c, 1, 49, 0
1, 76617, Note_on_c, 1, 48, 76
1, 76677, Note_on_c, 1, 51, 72
1, 76678, Note_on_c, 0, 77, 93
1, 76678, Note_on_c, 0, 84, 93
1, 76678, Note_on_c, 1, 48, 0
1, 76738, Note_on_c, 1, 45, 76
1, 76744, Note_on_c, 1, 51, 0
1, 76798, Note_on_c, 0, 85, 93
1, 76799, Note_on_c, 1, 48, 80
1, 76803, Note_on_c, 0, 84, 0
1, 76806, Note_on_c, 1, 45, 0
1, 76859, Note_on_c, 1, 46, 76
1, 76861, Note_on_c, 1, 48, 0
1, 76921, Note_on_c, 0, 82, 89
1, 76921, Note_on_c, 1, 49, 68
1, 76927, Note_on_c, 1, 46, 0
1, 76931, Note_on_c, 0, 77, 0
1, 76980, Note_on_c, 1, 43, 64
1, 76982, Note_on_c, 1, 49, 0
1, 77039, Note_on_c, 1, 46, 60
1, 77040, Note_on_c, 0, 84, 76
1, 77040, Note_on_c, 1, 43, 0
1, 77042, Note_on_c, 0, 85, 0
1, 77099, Note_on_c, 1, 46, 0
1, 77099, Note_on_c, 1, 44, 80
1, 77159, Note_on_c, 0, 80, 76
1, 77159, Note_on_c, 1, 48, 68
1, 77160, Note_on_c, 0, 82, 0
1, 77161, Note_on_c, 1, 44, 0
1, 77219, Note_on_c, 1, 41, 72
1, 77223, Note_on_c, 1, 48, 0
1, 77279, Note_on_c, 0, 82, 80
1, 77279, Note_on_c, 1, 44, 64
1, 77280, Note_on_c, 0, 84, 0
1, 77286, Note_on_c, 1, 41, 0
1, 77337, Note_on_c, 1, 44, 0
1, 77339, Note_on_c, 1, 43, 76
1, 77399, Note_on_c, 1, 46, 80
1, 77401, Note_on_c, 0, 79, 76
1, 77402, Note_on_c, 1, 43, 0
1, 77409, Note_on_c, 0, 80, 0
1, 77459, Note_on_c, 1, 40, 76
1, 77462, Note_on_c, 1, 46, 0
1, 77517, Note_on_c, 1, 40, 0
1, 77519, Note_on_c, 1, 41, 80
1, 77535, Note_on_c, 0, 79, 0
1, 77579, Note_on_c, 0, 80, 89
1, 77636, Note_on_c, 0, 80, 0
1, 77638, Note_on_c, 0, 82, 0
1, 77639, Note_on_c, 0, 84, 80
1, 77639, Note_on_c, 1, 41, 0
1, 77641, Note_on_c, 1, 56, 85
1, 77701, Note_on_c, 0, 77, 68
1, 77706, Note_on_c, 0, 84, 0
1, 77761, Note_on_c, 0, 80, 89
1, 77761, Note_on_c, 1, 56, 0
1, 77761, Note_on_c, 1, 58, 80
1, 77766, Note_on_c, 0, 77, 0
1, 77821, Note_on_c, 0, 78, 68
1, 77825, Note_on_c, 0, 80, 0
1, 77874, Note_on_c, 1, 58, 0
1, 77879, Note_on_c, 0, 78, 0
1, 77879, Note_on_c, 1, 60, 76
1, 77881, Note_on_c, 0, 82, 85
1, 77941, Note_on_c, 0, 75, 50
1, 77943, Note_on_c, 0, 82, 0
1, 77998, Note_on_c, 0, 75, 0
1, 77999, Note_on_c, 0, 78, 85
1, 77999, Note_on_c, 1, 61, 89
1, 78000, Note_on_c, 1, 60, 0
1, 78056, Note_on_c, 0, 78, 0
1, 78059, Note_on_c, 0, 77, 64
1, 78116, Note_on_c, 0, 77, 0
1, 78119, Note_on_c, 0, 80, 93
1, 78119, Note_on_c, 1, 61, 0
1, 78121, Note_on_c, 1, 53, 85
1, 78181, Note_on_c, 0, 73, 56
1, 78186, Note_on_c, 0, 80, 0
1, 78235, Note_on_c, 1, 53, 0
1, 78239, Note_on_c, 0, 73, 0
1, 78239, Note_on_c, 1, 55, 76
1, 78241, Note_on_c, 0, 77, 89
1, 78301, Note_on_c, 0, 77, 0
1, 78301, Note_on_c, 0, 75, 56
1, 78350, Note_on_c, 1, 55, 0
1, 78353, Note_on_c, 0, 75, 0
1, 78358, Note_on_c, 1, 57, 89
1, 78359, Note_on_c, 0, 78, 85
1, 78419, Note_on_c, 0, 72, 53
1, 78421, Note_on_c, 0, 78, 0
1, 78476, Note_on_c, 0, 72, 0
1, 78478, Note_on_c, 0, 75, 89
1, 78478, Note_on_c, 1, 58, 85
1, 78487, Note_on_c, 1, 57, 0
1, 78540, Note_on_c, 0, 73, 60
1, 78541, Note_on_c, 0, 75, 0
1, 78590, Note_on_c, 0, 73, 0
1, 78599, Note_on_c, 0, 77, 93
1, 78601, Note_on_c, 1, 63, 89
1, 78601, Note_on_c, 1, 55, 85
1, 78604, Note_on_c, 1, 58, 0
1, 78660, Note_on_c, 0, 70, 57
1, 78664, Note_on_c, 0, 77, 0
1, 78719, Note_on_c, 1, 56, 76
1, 78721, Note_on_c, 0, 73, 89
1, 78721, Note_on_c, 1, 55, 0
1, 78722, Note_on_c, 0, 70, 0
1, 78778, Note_on_c, 0, 73, 0
1, 78782, Note_on_c, 0, 72, 50
1, 78834, Note_on_c, 0, 72, 0
1, 78836, Note_on_c, 1, 56, 0
1, 78839, Note_on_c, 1, 53, 80
1, 78839, Note_on_c, 1, 61, 89
1, 78840, Note_on_c, 1, 63, 0
1, 78841, Note_on_c, 0, 75, 80
1, 78899, Note_on_c, 0, 75, 0
1, 78899, Note_on_c, 0, 68, 50
1, 78956, Note_on_c, 0, 68, 0
1, 78956, Note_on_c, 1, 53, 0
1, 78958, Note_on_c, 1, 55, 72
1, 78959, Note_on_c, 0, 72, 89
1, 79017, Note_on_c, 0, 72, 0
1, 79021, Note_on_c, 0, 70, 55
1, 79069, Note_on_c, 0, 70, 0
1, 79077, Note_on_c, 1, 61, 0
1, 79078, Note_on_c, 0, 73, 89
1, 79078, Note_on_c, 1, 60, 85
1, 79078, Note_on_c, 1, 52, 62
1, 79080, Note_on_c, 1, 55, 0
1, 79138, Note_on_c, 0, 73, 0
1, 79138, Note_on_c, 0, 67, 57
1, 79197, Note_on_c, 1, 53, 85
1, 79198, Note_on_c, 0, 70, 93
1, 79198, Note_on_c, 1, 60, 0
1, 79199, Note_on_c, 0, 67, 0
1, 79200, Note_on_c, 1, 52, 0
1, 79258, Note_on_c, 0, 68, 59
1, 79268, Note_on_c, 0, 70, 0
1, 79318, Note_on_c, 0, 67, 76
1, 79319, Note_on_c, 0, 68, 0
1, 79319, Note_on_c, 1, 56, 76
1, 79319, Note_on_c, 1, 60, 76
1, 79378, Note_on_c, 0, 65, 76
1, 79381, Note_on_c, 0, 67, 0
1, 79438, Note_on_c, 0, 70, 85
1, 79439, Note_on_c, 0, 65, 0
1, 79439, Note_on_c, 1, 60, 0
1, 79439, Note_on_c, 1, 51, 80
1, 79442, Note_on_c, 1, 56, 0
1, 79444, Note_on_c, 1, 53, 0
1, 79498, Note_on_c, 0, 68, 62
1, 79507, Note_on_c, 0, 70, 0
1, 79558, Note_on_c, 0, 67, 89
1, 79559, Note_on_c, 1, 56, 72
1, 79559, Note_on_c, 1, 53, 85
1, 79563, Note_on_c, 0, 68, 0
1, 79618, Note_on_c, 0, 65, 93
1, 79619, Note_on_c, 0, 67, 0
1, 79678, Note_on_c, 1, 53, 0
1, 79679, Note_on_c, 0, 70, 89
1, 79679, Note_on_c, 1, 49, 76
1, 79680, Note_on_c, 1, 51, 0
1, 79681, Note_on_c, 1, 56, 0
1, 79684, Note_on_c, 0, 65, 0
1, 79738, Note_on_c, 0, 68, 89
1, 79741, Note_on_c, 0, 70, 0
1, 79798, Note_on_c, 0, 67, 102
1, 79798, Note_on_c, 1, 53, 93
1, 79798, Note_on_c, 1, 56, 80
1, 79800, Note_on_c, 0, 68, 0
1, 79858, Note_on_c, 0, 65, 107
1, 79862, Note_on_c, 0, 67, 0
1, 79918, Note_on_c, 0, 65, 0
1, 79918, Note_on_c, 0, 70, 98
1, 79921, Note_on_c, 1, 48, 72
1, 79924, Note_on_c, 1, 49, 0
1, 79936, Note_on_c, 1, 53, 0
1, 79939, Note_on_c, 1, 56, 0
1, 79977, Note_on_c, 0, 70, 0
1, 79978, Note_on_c, 0, 68, 107
1, 80036, Note_on_c, 0, 68, 0
1, 80039, Note_on_c, 0, 67, 113
1, 80039, Note_on_c, 1, 53, 98
1, 80039, Note_on_c, 1, 56, 85
1, 80099, Note_on_c, 0, 65, 102
1, 80102, Note_on_c, 0, 67, 0
1, 80125, Note_on_c, 1, 53, 0
1, 80127, Note_on_c, 1, 56, 0
1, 80135, Note_on_c, 1, 48, 0
1, 80153, Note_on_c, 0, 65, 0
1, 80161, Note_on_c, 0, 77, 102
1, 80161, Note_on_c, 1, 56, 93
1, 80161, Note_on_c, 1, 47, 80
1, 80161, Note_on_c, 1, 53, 102
1, 80266, Note_on_c, 1, 53, 0
1, 80267, Note_on_c, 1, 47, 0
1, 80272, Note_on_c, 1, 56, 0
1, 80280, Note_on_c, 0, 77, 0
1, 80401, Note_on_c, 0, 70, 107
1, 80459, Note_on_c, 0, 70, 0
1, 80461, Note_on_c, 0, 68, 89
1, 80519, Note_on_c, 0, 68, 0
1, 80521, Note_on_c, 0, 67, 98
1, 80521, Note_on_c, 1, 47, 93
1, 80521, Note_on_c, 1, 56, 89
1, 80521, Note_on_c, 1, 53, 93
1, 80579, Note_on_c, 1, 53, 0
1, 80581, Note_on_c, 0, 65, 93
1, 80584, Note_on_c, 1, 56, 0
1, 80588, Note_on_c, 1, 47, 0
1, 80590, Note_on_c, 0, 67, 0
1, 80625, Note_on_c, 0, 65, 0
1, 80640, Note_on_c, 1, 59, 93
1, 80641, Note_on_c, 1, 53, 89
1, 80641, Note_on_c, 1, 49, 89
1, 80642, Note_on_c, 0, 80, 119
1, 80719, Note_on_c, 1, 53, 0
1, 80720, Note_on_c, 1, 59, 0
1, 80722, Note_on_c, 1, 49, 0
1, 80745, Note_on_c, 0, 80, 0
1, 80879, Note_on_c, 1, 49, 98
1, 80879, Note_on_c, 1, 37, 98
1, 80881, Note_on_c, 0, 71, 72
1, 80882, Note_on_c, 0, 65, 64
1, 80978, Note_on_c, 1, 37, 0
1, 80980, Note_on_c, 1, 49, 0
1, 80997, Note_on_c, 0, 71, 0
1, 80998, Note_on_c, 0, 65, 0
1, 81118, Note_on_c, 0, 64, 93
1, 81118, Note_on_c, 0, 72, 89
1, 81119, Note_on_c, 0, 65, 62
1, 81119, Note_on_c, 1, 36, 85
1, 81119, Note_on_c, 1, 48, 80
1, 81122, Note_on_c, 0, 65, 0
1, 81217, Note_on_c, 1, 48, 0
1, 81217, Note_on_c, 1, 36, 0
1, 81230, Note_on_c, 0, 64, 0
1, 81235, Note_on_c, 0, 72, 0
1, 81355, Note_on_c, 0, 72, 113
1, 81641, Note_on_c, 0, 74, 89
1, 81647, Note_on_c, 0, 72, 0
1, 81681, Note_on_c, 0, 72, 80
1, 81688, Note_on_c, 0, 74, 0
1, 81721, Note_on_c, 0, 70, 85
1, 81726, Note_on_c, 0, 72, 0
1, 81762, Note_on_c, 0, 72, 76
1, 81765, Note_on_c, 0, 70, 0
1, 81801, Note_on_c, 0, 70, 60
1, 81809, Note_on_c, 0, 72, 0
1, 81842, Note_on_c, 0, 69, 76
1, 81844, Note_on_c, 0, 70, 0
1, 81882, Note_on_c, 0, 70, 76
1, 81889, Note_on_c, 0, 69, 0
1, 81923, Note_on_c, 0, 69, 72
1, 81928, Note_on_c, 0, 70, 0
1, 81962, Note_on_c, 0, 69, 0
1, 81963, Note_on_c, 0, 67, 93
1, 82003, Note_on_c, 0, 69, 85
1, 82007, Note_on_c, 0, 67, 0
1, 82043, Note_on_c, 0, 67, 76
1, 82044, Note_on_c, 0, 69, 0
1, 82080, Note_on_c, 1, 57, 80
1, 82081, Note_on_c, 0, 67, 0
1, 82082, Note_on_c, 0, 65, 85
1, 82103, Note_on_c, 0, 65, 0
1, 82139, Note_on_c, 1, 60, 76
1, 82140, Note_on_c, 1, 57, 0
1, 82200, Note_on_c, 1, 58, 62
1, 82203, Note_on_c, 1, 60, 0
1, 82204, Note_on_c, 0, 65, 76
1, 82226, Note_on_c, 0, 65, 0
1, 82226, Note_on_c, 0, 64, 68
1, 82247, Note_on_c, 0, 65, 72
1, 82248, Note_on_c, 0, 64, 0
1, 82256, Note_on_c, 1, 58, 0
1, 82259, Note_on_c, 1, 60, 64
1, 82265, Note_on_c, 0, 64, 72
1, 82271, Note_on_c, 0, 65, 0
1, 82287, Note_on_c, 0, 64, 0
1, 82287, Note_on_c, 0, 62, 64
1, 82303, Note_on_c, 0, 64, 68
1, 82310, Note_on_c, 0, 62, 0
1, 82317, Note_on_c, 1, 60, 0
1, 82319, Note_on_c, 1, 57, 51
1, 82325, Note_on_c, 0, 64, 0
1, 82325, Note_on_c, 0, 65, 76
1, 82348, Note_on_c, 0, 65, 0
1, 82376, Note_on_c, 1, 57, 0
1, 82379, Note_on_c, 1, 60, 68
1, 82433, Note_on_c, 0, 69, 76
1, 82435, Note_on_c, 1, 60, 0
1, 82438, Note_on_c, 1, 52, 72
1, 82454, Note_on_c, 0, 69, 0
1, 82454, Note_on_c, 0, 67, 55
1, 82476, Note_on_c, 0, 67, 0
1, 82477, Note_on_c, 0, 69, 62
1, 82497, Note_on_c, 0, 67, 47
1, 82499, Note_on_c, 1, 60, 62
1, 82500, Note_on_c, 1, 52, 0
1, 82504, Note_on_c, 0, 69, 0
1, 82517, Note_on_c, 0, 65, 64
1, 82522, Note_on_c, 0, 67, 0
1, 82540, Note_on_c, 0, 67, 72
1, 82544, Note_on_c, 0, 65, 0
1, 82555, Note_on_c, 0, 69, 80
1, 82556, Note_on_c, 0, 67, 0
1, 82556, Note_on_c, 1, 60, 0
1, 82558, Note_on_c, 1, 53, 68
1, 82575, Note_on_c, 0, 69, 0
1, 82619, Note_on_c, 1, 60, 64
1, 82623, Note_on_c, 1, 53, 0
1, 82673, Note_on_c, 0, 72, 80
1, 82681, Note_on_c, 1, 50, 60
1, 82684, Note_on_c, 1, 60, 0
1, 82693, Note_on_c, 0, 72, 0
1, 82694, Note_on_c, 0, 70, 62
1, 82712, Note_on_c, 0, 70, 0
1, 82715, Note_on_c, 0, 72, 62
1, 82732, Note_on_c, 0, 70, 60
1, 82734, Note_on_c, 1, 50, 0
1, 82739, Note_on_c, 0, 72, 0
1, 82739, Note_on_c, 1, 53, 60
1, 82756, Note_on_c, 0, 70, 0
1, 82761, Note_on_c, 0, 69, 37
1, 82774, Note_on_c, 0, 70, 62
1, 82778, Note_on_c, 0, 69, 0
1, 82790, Note_on_c, 0, 70, 0
1, 82794, Note_on_c, 0, 72, 76
1, 82801, Note_on_c, 1, 45, 85
1, 82806, Note_on_c, 1, 53, 0
1, 82823, Note_on_c, 0, 72, 0
1, 82860, Note_on_c, 1, 45, 0
1, 82860, Note_on_c, 1, 53, 68
1, 82918, Note_on_c, 0, 74, 76
1, 82921, Note_on_c, 1, 46, 76
1, 82924, Note_on_c, 1, 53, 0
1, 82937, Note_on_c, 0, 74, 0
1, 82981, Note_on_c, 1, 58, 76
1, 82987, Note_on_c, 1, 46, 0
1, 83034, Note_on_c, 1, 58, 0
1, 83040, Note_on_c, 0, 65, 76
1, 83042, Note_on_c, 1, 48, 72
1, 83042, Note_on_c, 1, 57, 64
1, 83154, Note_on_c, 0, 65, 0
1, 83156, Note_on_c, 1, 57, 0
1, 83159, Note_on_c, 0, 64, 53
1, 83162, Note_on_c, 1, 55, 72
1, 83241, Note_on_c, 0, 64, 0
1, 83262, Note_on_c, 1, 55, 0
1, 83269, Note_on_c, 1, 48, 0
1, 83279, Note_on_c, 0, 74, 107
1, 83398, Note_on_c, 1, 50, 93
1, 83398, Note_on_c, 1, 53, 98
1, 83518, Note_on_c, 1, 53, 0
1, 83519, Note_on_c, 1, 55, 57
1, 83519, Note_on_c, 1, 52, 64
1, 83525, Note_on_c, 1, 50, 0
1, 83559, Note_on_c, 0, 75, 76
1, 83565, Note_on_c, 0, 74, 0
1, 83569, Note_on_c, 1, 52, 0
1, 83571, Note_on_c, 1, 55, 0
1, 83599, Note_on_c, 0, 74, 80
1, 83604, Note_on_c, 0, 75, 0
1, 83639, Note_on_c, 1, 54, 57
1, 83639, Note_on_c, 1, 57, 62
1, 83641, Note_on_c, 0, 72, 76
1, 83647, Note_on_c, 0, 74, 0
1, 83658, Note_on_c, 1, 57, 0
1, 83660, Note_on_c, 1, 54, 0
1, 83682, Note_on_c, 0, 74, 76
1, 83687, Note_on_c, 0, 72, 0
1, 83718, Note_on_c, 0, 74, 0
1, 83721, Note_on_c, 0, 72, 64
1, 83758, Note_on_c, 1, 58, 55
1, 83759, Note_on_c, 1, 55, 57
1, 83761, Note_on_c, 0, 70, 64
1, 83767, Note_on_c, 0, 72, 0
1, 83776, Note_on_c, 1, 55, 0
1, 83778, Note_on_c, 1, 58, 0
1, 83799, Note_on_c, 0, 70, 0
1, 83801, Note_on_c, 0, 72, 72
1, 83841, Note_on_c, 0, 70, 62
1, 83847, Note_on_c, 0, 72, 0
1, 83879, Note_on_c, 1, 57, 62
1, 83879, Note_on_c, 1, 60, 52
1, 83881, Note_on_c, 0, 69, 76
1, 83883, Note_on_c, 0, 70, 0
1, 83899, Note_on_c, 1, 57, 0
1, 83901, Note_on_c, 1, 60, 0
1, 83920, Note_on_c, 0, 69, 0
1, 83921, Note_on_c, 0, 70, 57
1, 83961, Note_on_c, 0, 69, 64
1, 83963, Note_on_c, 0, 70, 0
1, 83996, Note_on_c, 0, 69, 0
1, 83999, Note_on_c, 1, 58, 48
1, 83999, Note_on_c, 1, 62, 50
1, 84000, Note_on_c, 0, 67, 76
1, 84023, Note_on_c, 1, 62, 0
1, 84027, Note_on_c, 1, 58, 0
1, 84029, Note_on_c, 0, 67, 0
1, 84119, Note_on_c, 0, 79, 89
1, 84139, Note_on_c, 0, 79, 0
1, 84240, Note_on_c, 0, 74, 89
1, 84260, Note_on_c, 0, 74, 0
1, 84359, Note_on_c, 1, 48, 80
1, 84359, Note_on_c, 1, 46, 89
1, 84366, Note_on_c, 0, 77, 72
1, 84385, Note_on_c, 0, 77, 0
1, 84385, Note_on_c, 0, 76, 68
1, 84404, Note_on_c, 0, 76, 0
1, 84406, Note_on_c, 0, 77, 76
1, 84425, Note_on_c, 0, 76, 57
1, 84430, Note_on_c, 0, 77, 0
1, 84448, Note_on_c, 0, 76, 0
1, 84448, Note_on_c, 0, 74, 76
1, 84466, Note_on_c, 0, 76, 64
1, 84471, Note_on_c, 0, 74, 0
1, 84474, Note_on_c, 1, 46, 0
1, 84478, Note_on_c, 1, 45, 59
1, 84484, Note_on_c, 0, 76, 0
1, 84485, Note_on_c, 0, 77, 76
1, 84507, Note_on_c, 0, 77, 0
1, 84577, Note_on_c, 1, 48, 0
1, 84597, Note_on_c, 0, 67, 76
1, 84598, Note_on_c, 1, 50, 50
1, 84599, Note_on_c, 1, 47, 60
1, 84607, Note_on_c, 1, 45, 0
1, 84618, Note_on_c, 0, 65, 76
1, 84621, Note_on_c, 0, 67, 0
1, 84639, Note_on_c, 0, 65, 0
1, 84640, Note_on_c, 0, 67, 85
1, 84655, Note_on_c, 0, 65, 59
1, 84661, Note_on_c, 0, 67, 0
1, 84680, Note_on_c, 0, 65, 0
1, 84685, Note_on_c, 0, 64, 89
1, 84691, Note_on_c, 1, 50, 0
1, 84706, Note_on_c, 0, 65, 59
1, 84709, Note_on_c, 0, 64, 0
1, 84719, Note_on_c, 1, 53, 60
1, 84719, Note_on_c, 1, 48, 64
1, 84722, Note_on_c, 1, 47, 0
1, 84724, Note_on_c, 0, 65, 0
1, 84728, Note_on_c, 0, 69, 76
1, 84820, Note_on_c, 1, 53, 0
1, 84838, Note_on_c, 1, 52, 76
1, 84842, Note_on_c, 0, 67, 76
1, 84848, Note_on_c, 0, 69, 0
1, 84958, Note_on_c, 1, 52, 0
1, 84959, Note_on_c, 1, 53, 68
1, 84961, Note_on_c, 0, 67, 0
1, 84961, Note_on_c, 0, 65, 72
1, 84963, Note_on_c, 1, 48, 0
1, 85074, Note_on_c, 0, 65, 0
1, 85079, Note_on_c, 1, 41, 85
1, 85083, Note_on_c, 1, 53, 0
1, 85199, Note_on_c, 1, 60, 102
1, 85207, Note_on_c, 1, 41, 0
1, 85322, Note_on_c, 0, 72, 98
1, 85345, Note_on_c, 0, 72, 0
1, 85440, Note_on_c, 0, 84, 113
1, 85477, Note_on_c, 1, 60, 0
1, 85478, Note_on_c, 1, 62, 96
1, 85516, Note_on_c, 1, 60, 74
1, 85525, Note_on_c, 1, 62, 0
1, 85559, Note_on_c, 1, 60, 0
1, 85559, Note_on_c, 1, 58, 74
1, 85596, Note_on_c, 1, 58, 0
1, 85597, Note_on_c, 1, 60, 67
1, 85636, Note_on_c, 1, 58, 58
1, 85647, Note_on_c, 1, 60, 0
1, 85679, Note_on_c, 1, 57, 74
1, 85683, Note_on_c, 1, 58, 0
1, 85713, Note_on_c, 0, 84, 0
1, 85714, Note_on_c, 1, 57, 0
1, 85718, Note_on_c, 0, 86, 76
1, 85718, Note_on_c, 1, 58, 68
1, 85756, Note_on_c, 1, 57, 66
1, 85758, Note_on_c, 0, 84, 64
1, 85760, Note_on_c, 1, 58, 0
1, 85764, Note_on_c, 0, 86, 0
1, 85797, Note_on_c, 1, 57, 0
1, 85798, Note_on_c, 0, 82, 60
1, 85799, Note_on_c, 1, 55, 72
1, 85804, Note_on_c, 0, 84, 0
1, 85835, Note_on_c, 0, 82, 0
1, 85838, Note_on_c, 0, 84, 72
1, 85838, Note_on_c, 1, 55, 0
1, 85838, Note_on_c, 1, 57, 57
1, 85876, Note_on_c, 1, 55, 76
1, 85877, Note_on_c, 0, 82, 60
1, 85879, Note_on_c, 1, 57, 0
1, 85881, Note_on_c, 0, 84, 0
1, 85918, Note_on_c, 0, 81, 72
1, 85919, Note_on_c, 1, 53, 76
1, 85921, Note_on_c, 1, 55, 0
1, 85923, Note_on_c, 0, 82, 0
1, 85958, Note_on_c, 0, 82, 57
1, 85959, Note_on_c, 0, 81, 0
1, 85998, Note_on_c, 0, 81, 72
1, 85999, Note_on_c, 0, 82, 0
1, 86038, Note_on_c, 0, 79, 62
1, 86039, Note_on_c, 1, 57, 86
1, 86041, Note_on_c, 0, 81, 0
1, 86041, Note_on_c, 1, 53, 0
1, 86060, Note_on_c, 1, 57, 0
1, 86069, Note_on_c, 1, 55, 74
1, 86071, Note_on_c, 1, 57, 81
1, 86078, Note_on_c, 0, 79, 0
1, 86078, Note_on_c, 0, 77, 53
1, 86090, Note_on_c, 1, 55, 0
1, 86099, Note_on_c, 1, 55, 70
1, 86104, Note_on_c, 1, 57, 0
1, 86118, Note_on_c, 0, 76, 60
1, 86119, Note_on_c, 0, 77, 0
1, 86122, Note_on_c, 1, 55, 0
1, 86129, Note_on_c, 1, 53, 81
1, 86131, Note_on_c, 1, 55, 76
1, 86150, Note_on_c, 1, 55, 0
1, 86154, Note_on_c, 1, 53, 0
1, 86159, Note_on_c, 0, 77, 72
1, 86159, Note_on_c, 1, 57, 91
1, 86164, Note_on_c, 0, 76, 0
1, 86199, Note_on_c, 0, 79, 59
1, 86204, Note_on_c, 0, 77, 0
1, 86239, Note_on_c, 0, 77, 59
1, 86240, Note_on_c, 0, 79, 0
1, 86279, Note_on_c, 0, 75, 62
1, 86281, Note_on_c, 1, 45, 102
1, 86282, Note_on_c, 0, 77, 0
1, 86287, Note_on_c, 1, 57, 0
1, 86319, Note_on_c, 0, 74, 72
1, 86323, Note_on_c, 0, 75, 0
1, 86361, Note_on_c, 0, 73, 60
1, 86363, Note_on_c, 0, 74, 0
1, 86392, Note_on_c, 0, 73, 0
1, 86399, Note_on_c, 0, 74, 68
1, 86401, Note_on_c, 1, 46, 96
1, 86402, Note_on_c, 1, 45, 0
1, 86441, Note_on_c, 0, 79, 68
1, 86445, Note_on_c, 0, 74, 0
1, 86480, Note_on_c, 0, 79, 0
1, 86480, Note_on_c, 0, 78, 68
1, 86509, Note_on_c, 1, 46, 0
1, 86521, Note_on_c, 0, 78, 0
1, 86521, Note_on_c, 0, 79, 85
1, 86561, Note_on_c, 0, 82, 64
1, 86564, Note_on_c, 0, 79, 0
1, 86601, Note_on_c, 0, 81, 76
1, 86602, Note_on_c, 0, 82, 0
1, 86641, Note_on_c, 0, 82, 64
1, 86651, Note_on_c, 0, 81, 0
1, 86677, Note_on_c, 0, 82, 0
1, 86681, Note_on_c, 0, 86, 68
1, 86719, Note_on_c, 0, 86, 0
1, 86719, Note_on_c, 0, 85, 64
1, 86754, Note_on_c, 0, 85, 0
1, 86760, Note_on_c, 0, 86, 76
1, 86761, Note_on_c, 1, 58, 86
1, 86799, Note_on_c, 0, 82, 60
1, 86803, Note_on_c, 0, 86, 0
1, 86840, Note_on_c, 0, 79, 64
1, 86844, Note_on_c, 0, 82, 0
1, 86881, Note_on_c, 0, 77, 62
1, 86881, Note_on_c, 1, 60, 86
1, 86883, Note_on_c, 0, 79, 0
1, 86883, Note_on_c, 1, 58, 0
1, 86978, Note_on_c, 1, 60, 0
1, 86999, Note_on_c, 1, 48, 117
1, 87002, Note_on_c, 0, 76, 64
1, 87003, Note_on_c, 0, 77, 0
1, 87030, Note_on_c, 1, 48, 0
1, 87113, Note_on_c, 0, 76, 0
1, 87119, Note_on_c, 1, 62, 117
1, 87237, Note_on_c, 0, 65, 113
1, 87351, Note_on_c, 0, 65, 0
1, 87357, Note_on_c, 0, 77, 89
1, 87398, Note_on_c, 1, 63, 67
1, 87416, Note_on_c, 1, 62, 0
1, 87440, Note_on_c, 1, 63, 0
1, 87442, Note_on_c, 1, 62, 81
1, 87479, Note_on_c, 1, 60, 51
1, 87480, Note_on_c, 1, 62, 0
1, 87481, Note_on_c, 0, 78, 89
1, 87482, Note_on_c, 0, 75, 89
1, 87497, Note_on_c, 0, 77, 0
1, 87515, Note_on_c, 1, 60, 0
1, 87518, Note_on_c, 1, 62, 91
1, 87554, Note_on_c, 1, 62, 0
1, 87556, Note_on_c, 1, 60, 72
1, 87590, Note_on_c, 0, 75, 0
1, 87590, Note_on_c, 0, 78, 0
1, 87597, Note_on_c, 1, 60, 0
1, 87598, Note_on_c, 0, 74, 89
1, 87598, Note_on_c, 0, 79, 93
1, 87599, Note_on_c, 1, 58, 76
1, 87634, Note_on_c, 1, 58, 0
1, 87637, Note_on_c, 1, 60, 67
1, 87676, Note_on_c, 1, 58, 72
1, 87687, Note_on_c, 1, 60, 0
1, 87707, Note_on_c, 0, 79, 0
1, 87716, Note_on_c, 0, 74, 0
1, 87717, Note_on_c, 0, 81, 89
1, 87717, Note_on_c, 0, 78, 80
1, 87719, Note_on_c, 1, 57, 86
1, 87720, Note_on_c, 1, 58, 0
1, 87757, Note_on_c, 1, 58, 72
1, 87761, Note_on_c, 1, 57, 0
1, 87796, Note_on_c, 1, 57, 81
1, 87797, Note_on_c, 1, 58, 0
1, 87819, Note_on_c, 0, 78, 0
1, 87819, Note_on_c, 0, 81, 0
1, 87836, Note_on_c, 0, 82, 85
1, 87836, Note_on_c, 0, 79, 80
1, 87839, Note_on_c, 1, 55, 86
1, 87840, Note_on_c, 1, 57, 0
1, 87868, Note_on_c, 1, 55, 0
1, 87877, Note_on_c, 0, 81, 80
1, 87879, Note_on_c, 0, 82, 0
1, 87913, Note_on_c, 0, 81, 0
1, 87916, Note_on_c, 0, 82, 60
1, 87957, Note_on_c, 0, 83, 72
1, 87958, Note_on_c, 0, 82, 0
1, 87959, Note_on_c, 1, 55, 96
1, 87961, Note_on_c, 1, 53, 96
1, 87962, Note_on_c, 0, 79, 0
1, 87973, Note_on_c, 1, 55, 0
1, 87985, Note_on_c, 1, 53, 0
1, 87991, Note_on_c, 1, 55, 96
1, 87998, Note_on_c, 0, 81, 56
1, 88003, Note_on_c, 0, 83, 0
1, 88016, Note_on_c, 1, 55, 0
1, 88019, Note_on_c, 1, 53, 76
1, 88038, Note_on_c, 0, 83, 72
1, 88042, Note_on_c, 0, 81, 0
1, 88044, Note_on_c, 1, 53, 0
1, 88049, Note_on_c, 1, 52, 72
1, 88051, Note_on_c, 1, 53, 72
1, 88070, Note_on_c, 1, 52, 0
1, 88072, Note_on_c, 1, 53, 0
1, 88078, Note_on_c, 0, 84, 80
1, 88079, Note_on_c, 0, 83, 0
1, 88079, Note_on_c, 1, 52, 102
1, 88109, Note_on_c, 1, 52, 0
1, 88119, Note_on_c, 0, 83, 53
1, 88122, Note_on_c, 0, 84, 0
1, 88158, Note_on_c, 0, 84, 76
1, 88160, Note_on_c, 0, 83, 0
1, 88199, Note_on_c, 1, 60, 72
1, 88200, Note_on_c, 0, 84, 0
1, 88200, Note_on_c, 0, 88, 93
1, 88201, Note_on_c, 1, 58, 72
1, 88217, Note_on_c, 1, 60, 0
1, 88225, Note_on_c, 1, 58, 0
1, 88231, Note_on_c, 1, 60, 72
1, 88239, Note_on_c, 0, 86, 68
1, 88241, Note_on_c, 0, 88, 0
1, 88257, Note_on_c, 1, 60, 0
1, 88259, Note_on_c, 1, 58, 74
1, 88261, Note_on_c, 1, 57, 74
1, 88279, Note_on_c, 0, 88, 76
1, 88280, Note_on_c, 0, 86, 0
1, 88280, Note_on_c, 1, 58, 0
1, 88281, Note_on_c, 1, 57, 0
1, 88291, Note_on_c, 1, 58, 81
1, 88313, Note_on_c, 1, 58, 0
1, 88315, Note_on_c, 0, 88, 0
1, 88319, Note_on_c, 0, 89, 76
1, 88319, Note_on_c, 1, 57, 102
1, 88361, Note_on_c, 0, 84, 62
1, 88372, Note_on_c, 0, 89, 0
1, 88401, Note_on_c, 0, 81, 52
1, 88403, Note_on_c, 0, 84, 0
1, 88441, Note_on_c, 0, 86, 93
1, 88441, Note_on_c, 1, 58, 106
1, 88444, Note_on_c, 0, 81, 0
1, 88449, Note_on_c, 1, 57, 0
1, 88482, Note_on_c, 0, 82, 72
1, 88490, Note_on_c, 0, 86, 0
1, 88520, Note_on_c, 0, 82, 0
1, 88521, Note_on_c, 0, 79, 72
1, 88561, Note_on_c, 1, 58, 0
1, 88561, Note_on_c, 1, 60, 86
1, 88562, Note_on_c, 0, 84, 80
1, 88563, Note_on_c, 0, 79, 0
1, 88602, Note_on_c, 0, 81, 68
1, 88615, Note_on_c, 0, 84, 0
1, 88640, Note_on_c, 0, 81, 0
1, 88642, Note_on_c, 0, 77, 62
1, 88681, Note_on_c, 0, 77, 0
1, 88681, Note_on_c, 1, 48, 106
1, 88682, Note_on_c, 0, 82, 80
1, 88684, Note_on_c, 1, 60, 0
1, 88722, Note_on_c, 0, 79, 62
1, 88726, Note_on_c, 0, 82, 0
1, 88760, Note_on_c, 0, 79, 0
1, 88762, Note_on_c, 0, 76, 60
1, 88800, Note_on_c, 1, 48, 0
1, 88801, Note_on_c, 1, 53, 106
1, 88802, Note_on_c, 0, 76, 0
1, 88802, Note_on_c, 0, 77, 76
1, 88910, Note_on_c, 1, 53, 0
1, 88914, Note_on_c, 0, 77, 0
1, 88920, Note_on_c, 0, 81, 89
1, 88961, Note_on_c, 0, 79, 64
1, 88968, Note_on_c, 0, 81, 0
1, 88999, Note_on_c, 0, 77, 76
1, 89004, Note_on_c, 0, 79, 0
1, 89041, Note_on_c, 0, 76, 68
1, 89042, Note_on_c, 0, 77, 0
1, 89081, Note_on_c, 0, 74, 76
1, 89082, Note_on_c, 0, 76, 0
1, 89120, Note_on_c, 0, 72, 57
1, 89124, Note_on_c, 0, 74, 0
1, 89161, Note_on_c, 0, 71, 76
1, 89161, Note_on_c, 1, 65, 89
1, 89161, Note_on_c, 1, 68, 85
1, 89167, Note_on_c, 0, 72, 0
1, 89200, Note_on_c, 0, 71, 0
1, 89200, Note_on_c, 0, 74, 72
1, 89240, Note_on_c, 0, 71, 80
1, 89245, Note_on_c, 0, 74, 0
1, 89281, Note_on_c, 0, 74, 76
1, 89281, Note_on_c, 1, 67, 62
1, 89281, Note_on_c, 1, 64, 64
1, 89284, Note_on_c, 1, 68, 0
1, 89284, Note_on_c, 1, 65, 0
1, 89285, Note_on_c, 0, 71, 0
1, 89321, Note_on_c, 0, 72, 72
1, 89328, Note_on_c, 0, 74, 0
1, 89361, Note_on_c, 0, 69, 64
1, 89362, Note_on_c, 0, 72, 0
1, 89393, Note_on_c, 1, 64, 0
1, 89401, Note_on_c, 1, 65, 76
1, 89401, Note_on_c, 1, 62, 68
1, 89402, Note_on_c, 0, 72, 80
1, 89406, Note_on_c, 1, 67, 0
1, 89407, Note_on_c, 0, 69, 0
1, 89442, Note_on_c, 0, 70, 62
1, 89451, Note_on_c, 0, 72, 0
1, 89481, Note_on_c, 0, 67, 62
1, 89483, Note_on_c, 0, 70, 0
1, 89516, Note_on_c, 1, 62, 0
1, 89517, Note_on_c, 1, 65, 0
1, 89520, Note_on_c, 1, 64, 76
1, 89520, Note_on_c, 1, 60, 76
1, 89521, Note_on_c, 0, 70, 76
1, 89524, Note_on_c, 0, 67, 0
1, 89561, Note_on_c, 0, 69, 64
1, 89567, Note_on_c, 0, 70, 0
1, 89601, Note_on_c, 0, 65, 57
1, 89602, Note_on_c, 0, 69, 0
1, 89637, Note_on_c, 0, 65, 0
1, 89638, Note_on_c, 1, 60, 0
1, 89639, Note_on_c, 1, 58, 59
1, 89640, Note_on_c, 1, 64, 0
1, 89641, Note_on_c, 0, 69, 85
1, 89641, Note_on_c, 1, 62, 80
1, 89681, Note_on_c, 0, 67, 64
1, 89689, Note_on_c, 0, 69, 0
1, 89717, Note_on_c, 0, 67, 0
1, 89719, Note_on_c, 0, 64, 56
1, 89743, Note_on_c, 1, 62, 0
1, 89750, Note_on_c, 1, 58, 0
1, 89759, Note_on_c, 1, 60, 76
1, 89759, Note_on_c, 1, 57, 93
1, 89761, Note_on_c, 0, 65, 76
1, 89762, Note_on_c, 0, 64, 0
1, 89852, Note_on_c, 0, 65, 0
1, 89876, Note_on_c, 1, 60, 0
1, 89878, Note_on_c, 1, 57, 0
1, 89880, Note_on_c, 1, 68, 93
1, 89919, Note_on_c, 1, 68, 0
1, 89919, Note_on_c, 1, 67, 59
1, 89959, Note_on_c, 1, 65, 76
1, 89961, Note_on_c, 1, 67, 0
1, 89999, Note_on_c, 1, 63, 62
1, 90003, Note_on_c, 1, 65, 0
1, 90039, Note_on_c, 1, 61, 55
1, 90047, Note_on_c, 1, 63, 0
1, 90078, Note_on_c, 1, 61, 0
1, 90078, Note_on_c, 1, 60, 62
1, 90119, Note_on_c, 1, 59, 89
1, 90121, Note_on_c, 0, 77, 102
1, 90121, Note_on_c, 0, 68, 89
1, 90125, Note_on_c, 1, 60, 0
1, 90159, Note_on_c, 1, 62, 80
1, 90162, Note_on_c, 1, 59, 0
1, 90199, Note_on_c, 1, 59, 85
1, 90200, Note_on_c, 1, 62, 0
1, 90231, Note_on_c, 0, 68, 0
1, 90232, Note_on_c, 1, 59, 0
1, 90238, Note_on_c, 1, 62, 68
1, 90239, Note_on_c, 0, 67, 64
1, 90279, Note_on_c, 1, 60, 76
1, 90287, Note_on_c, 1, 62, 0
1, 90319, Note_on_c, 1, 60, 0
1, 90319, Note_on_c, 1, 57, 72
1, 90359, Note_on_c, 1, 60, 72
1, 90360, Note_on_c, 0, 76, 85
1, 90367, Note_on_c, 0, 77, 0
1, 90368, Note_on_c, 1, 57, 0
1, 90399, Note_on_c, 1, 58, 59
1, 90411, Note_on_c, 1, 60, 0
1, 90439, Note_on_c, 1, 58, 0
1, 90439, Note_on_c, 1, 55, 68
1, 90478, Note_on_c, 1, 58, 56
1, 90479, Note_on_c, 0, 77, 80
1, 90481, Note_on_c, 0, 72, 72
1, 90482, Note_on_c, 1, 55, 0
1, 90485, Note_on_c, 0, 76, 0
1, 90491, Note_on_c, 0, 67, 0
1, 90518, Note_on_c, 1, 57, 76
1, 90525, Note_on_c, 1, 58, 0
1, 90558, Note_on_c, 1, 57, 0
1, 90558, Note_on_c, 1, 53, 68
1, 90598, Note_on_c, 1, 57, 80
1, 90599, Note_on_c, 0, 79, 89
1, 90599, Note_on_c, 0, 70, 76
1, 90600, Note_on_c, 1, 53, 0
1, 90601, Note_on_c, 0, 77, 0
1, 90601, Note_on_c, 0, 72, 0
1, 90638, Note_on_c, 1, 55, 64
1, 90644, Note_on_c, 1, 57, 0
1, 90678, Note_on_c, 1, 52, 64
1, 90680, Note_on_c, 1, 55, 0
1, 90717, Note_on_c, 0, 70, 0
1, 90718, Note_on_c, 0, 79, 0
1, 90719, Note_on_c, 0, 81, 89
1, 90719, Note_on_c, 1, 53, 80
1, 90720, Note_on_c, 0, 72, 60
1, 90720, Note_on_c, 0, 69, 72
1, 90720, Note_on_c, 1, 52, 0
1, 90802, Note_on_c, 1, 53, 0
1, 90831, Note_on_c, 0, 72, 0
1, 90835, Note_on_c, 0, 81, 0
1, 90836, Note_on_c, 0, 69, 0
1, 90840, Note_on_c, 0, 84, 80
1, 90879, Note_on_c, 0, 82, 72
1, 90886, Note_on_c, 0, 84, 0
1, 90919, Note_on_c, 0, 81, 60
1, 90924, Note_on_c, 0, 82, 0
1, 90959, Note_on_c, 0, 79, 85
1, 90962, Note_on_c, 0, 81, 0
1, 91001, Note_on_c, 0, 79, 0
1, 91001, Note_on_c, 0, 77, 64
1, 91040, Note_on_c, 0, 76, 60
1, 91049, Note_on_c, 0, 77, 0
1, 91081, Note_on_c, 0, 76, 0
1, 91081, Note_on_c, 0, 77, 76
1, 91081, Note_on_c, 1, 57, 80
1, 91081, Note_on_c, 1, 65, 93
1, 91121, Note_on_c, 0, 75, 52
1, 91131, Note_on_c, 0, 77, 0
1, 91161, Note_on_c, 0, 73, 76
1, 91163, Note_on_c, 0, 75, 0
1, 91193, Note_on_c, 1, 57, 0
1, 91199, Note_on_c, 1, 58, 76
1, 91202, Note_on_c, 0, 74, 80
1, 91206, Note_on_c, 0, 73, 0
1, 91294, Note_on_c, 0, 74, 0
1, 91311, Note_on_c, 1, 58, 0
1, 91319, Note_on_c, 1, 74, 89
1, 91320, Note_on_c, 1, 65, 0
1, 91360, Note_on_c, 1, 72, 76
1, 91372, Note_on_c, 1, 74, 0
1, 91399, Note_on_c, 1, 70, 68
1, 91407, Note_on_c, 1, 72, 0
1, 91439, Note_on_c, 1, 69, 80
1, 91445, Note_on_c, 1, 70, 0
1, 91479, Note_on_c, 1, 67, 60
1, 91480, Note_on_c, 1, 69, 0
1, 91521, Note_on_c, 1, 66, 62
1, 91531, Note_on_c, 1, 67, 0
1, 91553, Note_on_c, 1, 66, 0
1, 91559, Note_on_c, 0, 79, 98
1, 91559, Note_on_c, 0, 83, 93
1, 91559, Note_on_c, 1, 67, 64
1, 91599, Note_on_c, 1, 65, 59
1, 91609, Note_on_c, 1, 67, 0
1, 91638, Note_on_c, 1, 65, 0
1, 91638, Note_on_c, 1, 63, 64
1, 91679, Note_on_c, 1, 64, 76
1, 91681, Note_on_c, 0, 84, 68
1, 91683, Note_on_c, 1, 63, 0
1, 91685, Note_on_c, 0, 83, 0
1, 91768, Note_on_c, 1, 64, 0
1, 91774, Note_on_c, 0, 84, 0
1, 91775, Note_on_c, 0, 79, 0
1, 91801, Note_on_c, 0, 60, 76
1, 91841, Note_on_c, 0, 64, 76
1, 91851, Note_on_c, 0, 60, 0
1, 91880, Note_on_c, 0, 64, 0
1, 91881, Note_on_c, 0, 67, 80
1, 91914, Note_on_c, 0, 67, 0
1, 91921, Note_on_c, 0, 72, 64
1, 91960, Note_on_c, 0, 76, 76
1, 91966, Note_on_c, 0, 72, 0
1, 91999, Note_on_c, 0, 76, 0
1, 91999, Note_on_c, 0, 79, 80
1, 92040, Note_on_c, 0, 77, 76
1, 92041, Note_on_c, 1, 55, 76
1, 92041, Note_on_c, 1, 53, 85
1, 92045, Note_on_c, 0, 79, 0
1, 92080, Note_on_c, 0, 74, 64
1, 92081, Note_on_c, 0, 77, 0
1, 92119, Note_on_c, 0, 74, 0
1, 92119, Note_on_c, 0, 71, 68
1, 92156, Note_on_c, 0, 71, 0
1, 92158, Note_on_c, 1, 53, 0
1, 92160, Note_on_c, 1, 52, 64
1, 92161, Note_on_c, 0, 72, 76
1, 92234, Note_on_c, 0, 72, 0
1, 92257, Note_on_c, 1, 52, 0
1, 92259, Note_on_c, 1, 55, 0
1, 92279, Note_on_c, 0, 60, 93
1, 92319, Note_on_c, 0, 64, 80
1, 92324, Note_on_c, 0, 60, 0
1, 92359, Note_on_c, 0, 64, 0
1, 92359, Note_on_c, 0, 67, 76
1, 92393, Note_on_c, 0, 67, 0
1, 92399, Note_on_c, 0, 72, 68
1, 92439, Note_on_c, 0, 76, 72
1, 92446, Note_on_c, 0, 72, 0
1, 92478, Note_on_c, 0, 76, 0
1, 92479, Note_on_c, 0, 79, 80
1, 92518, Note_on_c, 1, 50, 85
1, 92518, Note_on_c, 1, 53, 89
1, 92519, Note_on_c, 0, 77, 89
1, 92519, Note_on_c, 1, 55, 89
1, 92524, Note_on_c, 0, 79, 0
1, 92559, Note_on_c, 0, 74, 72
1, 92562, Note_on_c, 0, 77, 0
1, 92599, Note_on_c, 0, 71, 76
1, 92602, Note_on_c, 0, 74, 0
1, 92620, Note_on_c, 1, 55, 0
1, 92621, Note_on_c, 1, 53, 0
1, 92623, Note_on_c, 1, 50, 0
1, 92637, Note_on_c, 0, 71, 0
1, 92639, Note_on_c, 0, 72, 89
1, 92640, Note_on_c, 1, 55, 72
1, 92640, Note_on_c, 1, 52, 76
1, 92640, Note_on_c, 1, 48, 80
1, 92679, Note_on_c, 0, 76, 80
1, 92684, Note_on_c, 0, 72, 0
1, 92717, Note_on_c, 0, 76, 0
1, 92719, Note_on_c, 0, 79, 89
1, 92747, Note_on_c, 1, 48, 0
1, 92753, Note_on_c, 1, 52, 0
1, 92759, Note_on_c, 0, 77, 85
1, 92759, Note_on_c, 1, 50, 68
1, 92759, Note_on_c, 1, 53, 62
1, 92763, Note_on_c, 0, 79, 0
1, 92799, Note_on_c, 0, 74, 72
1, 92809, Note_on_c, 0, 77, 0
1, 92835, Note_on_c, 0, 74, 0
1, 92839, Note_on_c, 0, 71, 80
1, 92853, Note_on_c, 1, 55, 0
1, 92857, Note_on_c, 1, 53, 0
1, 92859, Note_on_c, 1, 50, 0
1, 92879, Note_on_c, 0, 72, 72
1, 92879, Note_on_c, 1, 52, 80
1, 92879, Note_on_c, 1, 55, 76
1, 92879, Note_on_c, 1, 48, 80
1, 92880, Note_on_c, 0, 71, 0
1, 92919, Note_on_c, 0, 76, 80
1, 92923, Note_on_c, 0, 72, 0
1, 92957, Note_on_c, 0, 76, 0
1, 92959, Note_on_c, 0, 79, 80
1, 92986, Note_on_c, 1, 48, 0
1, 92996, Note_on_c, 1, 52, 0
1, 92998, Note_on_c, 1, 53, 59
1, 92998, Note_on_c, 1, 50, 44
1, 92999, Note_on_c, 0, 77, 80
1, 93003, Note_on_c, 0, 79, 0
1, 93038, Note_on_c, 0, 74, 76
1, 93047, Note_on_c, 0, 77, 0
1, 93075, Note_on_c, 0, 74, 0
1, 93078, Note_on_c, 0, 71, 57
1, 93112, Note_on_c, 1, 50, 0
1, 93113, Note_on_c, 1, 53, 0
1, 93118, Note_on_c, 0, 71, 0
1, 93118, Note_on_c, 0, 72, 68
1, 93119, Note_on_c, 1, 52, 89
1, 93119, Note_on_c, 1, 48, 76
1, 93183, Note_on_c, 1, 52, 0
1, 93185, Note_on_c, 1, 48, 0
1, 93186, Note_on_c, 1, 55, 0
1, 93221, Note_on_c, 0, 72, 0
1, 93239, Note_on_c, 1, 36, 85
1, 93275, Note_on_c, 1, 36, 0
1, 93358, Note_on_c, 1, 38, 89
1, 93391, Note_on_c, 1, 38, 0
1, 93479, Note_on_c, 1, 40, 89
1, 93510, Note_on_c, 1, 40, 0
1, 93599, Note_on_c, 1, 41, 89
1, 93625, Note_on_c, 1, 41, 0
1, 93718, Note_on_c, 1, 45, 93
1, 93752, Note_on_c, 1, 45, 0
1, 93839, Note_on_c, 1, 46, 80
1, 93864, Note_on_c, 1, 46, 0
1, 93956, Note_on_c, 1, 49, 93
1, 93987, Note_on_c, 1, 49, 0
1, 94078, Note_on_c, 1, 50, 89
1, 94138, Note_on_c, 1, 53, 80
1, 94141, Note_on_c, 1, 50, 0
1, 94198, Note_on_c, 1, 52, 80
1, 94204, Note_on_c, 1, 53, 0
1, 94254, Note_on_c, 1, 52, 0
1, 94258, Note_on_c, 1, 50, 76
1, 94318, Note_on_c, 1, 52, 80
1, 94323, Note_on_c, 1, 50, 0
1, 94377, Note_on_c, 1, 52, 0
1, 94378, Note_on_c, 1, 53, 76
1, 94438, Note_on_c, 1, 50, 72
1, 94443, Note_on_c, 1, 53, 0
1, 94498, Note_on_c, 1, 52, 76
1, 94501, Note_on_c, 1, 50, 0
1, 94559, Note_on_c, 1, 52, 0
1, 94559, Note_on_c, 1, 53, 80
1, 94591, Note_on_c, 1, 53, 0
1, 94679, Note_on_c, 1, 50, 93
1, 94702, Note_on_c, 1, 50, 0
1, 94799, Note_on_c, 1, 45, 93
1, 94827, Note_on_c, 1, 45, 0
1, 94918, Note_on_c, 1, 48, 89
1, 94935, Note_on_c, 1, 47, 64
1, 94936, Note_on_c, 1, 48, 0
1, 94955, Note_on_c, 1, 48, 72
1, 94958, Note_on_c, 1, 47, 0
1, 94976, Note_on_c, 1, 47, 80
1, 94984, Note_on_c, 1, 48, 0
1, 94996, Note_on_c, 1, 45, 76
1, 95000, Note_on_c, 1, 47, 0
1, 95021, Note_on_c, 1, 45, 0
1, 95024, Note_on_c, 1, 47, 60
1, 95038, Note_on_c, 1, 48, 89
1, 95042, Note_on_c, 1, 47, 0
1, 95159, Note_on_c, 0, 60, 76
1, 95161, Note_on_c, 1, 57, 56
1, 95179, Note_on_c, 0, 60, 0
1, 95279, Note_on_c, 0, 62, 89
1, 95280, Note_on_c, 1, 58, 57
1, 95284, Note_on_c, 1, 57, 0
1, 95294, Note_on_c, 0, 62, 0
1, 95401, Note_on_c, 0, 64, 80
1, 95401, Note_on_c, 1, 55, 60
1, 95403, Note_on_c, 1, 58, 0
1, 95414, Note_on_c, 0, 64, 0
1, 95521, Note_on_c, 0, 65, 76
1, 95521, Note_on_c, 1, 57, 62
1, 95522, Note_on_c, 1, 55, 0
1, 95539, Note_on_c, 0, 65, 0
1, 95639, Note_on_c, 1, 54, 56
1, 95641, Note_on_c, 0, 69, 93
1, 95647, Note_on_c, 1, 57, 0
1, 95656, Note_on_c, 0, 69, 0
1, 95759, Note_on_c, 0, 70, 89
1, 95760, Note_on_c, 1, 55, 64
1, 95762, Note_on_c, 1, 54, 0
1, 95778, Note_on_c, 0, 70, 0
1, 95882, Note_on_c, 0, 73, 89
1, 95882, Note_on_c, 1, 57, 57
1, 95887, Note_on_c, 1, 55, 0
1, 95901, Note_on_c, 0, 73, 0
1, 95988, Note_on_c, 1, 48, 0
1, 95993, Note_on_c, 1, 57, 0
1, 96001, Note_on_c, 1, 58, 9
1, 96002, Note_on_c, 0, 74, 76
1, 96002, Note_on_c, 1, 48, 38
1, 96057, Note_on_c, 0, 74, 0
1, 96061, Note_on_c, 0, 77, 72
1, 96120, Note_on_c, 0, 76, 76
1, 96122, Note_on_c, 0, 77, 0
1, 96175, Note_on_c, 0, 76, 0
1, 96179, Note_on_c, 0, 74, 59
1, 96237, Note_on_c, 0, 74, 0
1, 96239, Note_on_c, 0, 76, 62
1, 96296, Note_on_c, 0, 76, 0
1, 96299, Note_on_c, 0, 77, 68
1, 96356, Note_on_c, 0, 77, 0
1, 96358, Note_on_c, 0, 74, 64
1, 96418, Note_on_c, 0, 74, 0
1, 96418, Note_on_c, 0, 76, 64
1, 96443, Note_on_c, 1, 58, 0
1, 96477, Note_on_c, 0, 76, 0
1, 96478, Note_on_c, 0, 77, 76
1, 96479, Note_on_c, 1, 57, 45
1, 96499, Note_on_c, 0, 77, 0
1, 96539, Note_on_c, 1, 55, 72
1, 96545, Note_on_c, 1, 57, 0
1, 96599, Note_on_c, 0, 74, 89
1, 96599, Note_on_c, 1, 55, 0
1, 96599, Note_on_c, 1, 53, 48
1, 96614, Note_on_c, 0, 74, 0
1, 96652, Note_on_c, 1, 53, 0
1, 96658, Note_on_c, 1, 52, 59
1, 96717, Note_on_c, 1, 52, 0
1, 96717, Note_on_c, 1, 53, 62
1, 96718, Note_on_c, 0, 69, 85
1, 96735, Note_on_c, 0, 69, 0
1, 96776, Note_on_c, 1, 53, 0
1, 96777, Note_on_c, 1, 50, 68
1, 96837, Note_on_c, 0, 72, 76
1, 96838, Note_on_c, 1, 55, 64
1, 96845, Note_on_c, 1, 50, 0
1, 96848, Note_on_c, 0, 71, 76
1, 96855, Note_on_c, 0, 72, 0
1, 96868, Note_on_c, 0, 71, 0
1, 96871, Note_on_c, 0, 72, 72
1, 96889, Note_on_c, 0, 71, 68
1, 96893, Note_on_c, 0, 72, 0
1, 96897, Note_on_c, 1, 53, 55
1, 96900, Note_on_c, 1, 55, 0
1, 96909, Note_on_c, 0, 71, 0
1, 96910, Note_on_c, 0, 69, 60
1, 96931, Note_on_c, 0, 71, 56
1, 96935, Note_on_c, 0, 69, 0
1, 96952, Note_on_c, 0, 71, 0
1, 96955, Note_on_c, 0, 72, 76
1, 96955, Note_on_c, 1, 53, 0
1, 96958, Note_on_c, 1, 52, 53
1, 96992, Note_on_c, 0, 72, 0
1, 97034, Note_on_c, 1, 48, 0
1, 97037, Note_on_c, 1, 52, 0
1, 97081, Note_on_c, 1, 36, 76
1, 97105, Note_on_c, 1, 36, 0
1, 97201, Note_on_c, 0, 72, 93
1, 97201, Note_on_c, 1, 38, 89
1, 97225, Note_on_c, 1, 38, 0
1, 97322, Note_on_c, 1, 40, 76
1, 97342, Note_on_c, 1, 40, 0
1, 97441, Note_on_c, 0, 72, 0
1, 97441, Note_on_c, 0, 70, 76
1, 97442, Note_on_c, 1, 41, 85
1, 97462, Note_on_c, 1, 41, 0
1, 97501, Note_on_c, 0, 69, 64
1, 97508, Note_on_c, 0, 70, 0
1, 97558, Note_on_c, 1, 45, 76
1, 97560, Note_on_c, 0, 69, 0
1, 97561, Note_on_c, 0, 67, 72
1, 97582, Note_on_c, 1, 45, 0
1, 97616, Note_on_c, 0, 67, 0
1, 97619, Note_on_c, 0, 65, 72
1, 97676, Note_on_c, 0, 65, 0
1, 97678, Note_on_c, 0, 69, 85
1, 97679, Note_on_c, 1, 46, 93
1, 97699, Note_on_c, 1, 46, 0
1, 97736, Note_on_c, 0, 69, 0
1, 97738, Note_on_c, 0, 67, 72
1, 97799, Note_on_c, 0, 70, 76
1, 97799, Note_on_c, 1, 49, 93
1, 97800, Note_on_c, 0, 67, 0
1, 97816, Note_on_c, 1, 49, 0
1, 97858, Note_on_c, 0, 64, 60
1, 97861, Note_on_c, 0, 70, 0
1, 97914, Note_on_c, 0, 64, 0
1, 97918, Note_on_c, 0, 65, 80
1, 97918, Note_on_c, 1, 50, 72
1, 97938, Note_on_c, 0, 65, 0
1, 97978, Note_on_c, 1, 50, 0
1, 97978, Note_on_c, 1, 53, 57
1, 98037, Note_on_c, 1, 53, 0
1, 98038, Note_on_c, 0, 60, 80
1, 98038, Note_on_c, 1, 52, 60
1, 98056, Note_on_c, 0, 60, 0
1, 98090, Note_on_c, 1, 52, 0
1, 98099, Note_on_c, 1, 50, 62
1, 98158, Note_on_c, 0, 84, 93
1, 98158, Note_on_c, 1, 52, 72
1, 98159, Note_on_c, 1, 50, 0
1, 98215, Note_on_c, 1, 52, 0
1, 98218, Note_on_c, 1, 53, 60
1, 98278, Note_on_c, 1, 50, 68
1, 98281, Note_on_c, 1, 53, 0
1, 98337, Note_on_c, 1, 50, 0
1, 98337, Note_on_c, 1, 52, 72
1, 98397, Note_on_c, 0, 82, 76
1, 98398, Note_on_c, 1, 53, 68
1, 98400, Note_on_c, 1, 52, 0
1, 98402, Note_on_c, 0, 84, 0
1, 98421, Note_on_c, 1, 53, 0
1, 98457, Note_on_c, 0, 81, 85
1, 98461, Note_on_c, 0, 82, 0
1, 98517, Note_on_c, 0, 79, 72
1, 98518, Note_on_c, 0, 81, 0
1, 98518, Note_on_c, 1, 57, 89
1, 98537, Note_on_c, 1, 57, 0
1, 98577, Note_on_c, 0, 77, 76
1, 98583, Note_on_c, 0, 79, 0
1, 98637, Note_on_c, 0, 81, 76
1, 98638, Note_on_c, 1, 58, 80
1, 98640, Note_on_c, 0, 77, 0
1, 98660, Note_on_c, 1, 58, 0
1, 98695, Note_on_c, 0, 81, 0
1, 98697, Note_on_c, 0, 79, 76
1, 98758, Note_on_c, 0, 82, 72
1, 98758, Note_on_c, 1, 61, 76
1, 98760, Note_on_c, 0, 79, 0
1, 98778, Note_on_c, 1, 61, 0
1, 98817, Note_on_c, 0, 82, 0
1, 98817, Note_on_c, 0, 76, 64
1, 98878, Note_on_c, 0, 77, 80
1, 98878, Note_on_c, 1, 62, 76
1, 98881, Note_on_c, 0, 76, 0
1, 98898, Note_on_c, 0, 77, 0
1, 98935, Note_on_c, 1, 62, 0
1, 98939, Note_on_c, 1, 65, 60
1, 98997, Note_on_c, 0, 72, 85
1, 99000, Note_on_c, 1, 64, 76
1, 99002, Note_on_c, 1, 65, 0
1, 99019, Note_on_c, 0, 72, 0
1, 99056, Note_on_c, 1, 64, 0
1, 99060, Note_on_c, 1, 62, 76
1, 99114, Note_on_c, 1, 62, 0
1, 99120, Note_on_c, 0, 84, 98
1, 99120, Note_on_c, 1, 64, 56
1, 99180, Note_on_c, 1, 65, 64
1, 99181, Note_on_c, 1, 64, 0
1, 99240, Note_on_c, 1, 62, 76
1, 99244, Note_on_c, 1, 65, 0
1, 99298, Note_on_c, 1, 62, 0
1, 99300, Note_on_c, 1, 64, 85
1, 99325, Note_on_c, 1, 64, 0
1, 99360, Note_on_c, 0, 82, 80
1, 99360, Note_on_c, 1, 65, 76
1, 99363, Note_on_c, 0, 84, 0
1, 99376, Note_on_c, 1, 65, 0
1, 99420, Note_on_c, 0, 82, 0
1, 99420, Note_on_c, 0, 81, 80
1, 99479, Note_on_c, 1, 62, 89
1, 99480, Note_on_c, 0, 81, 0
1, 99480, Note_on_c, 0, 79, 80
1, 99495, Note_on_c, 1, 62, 0
1, 99540, Note_on_c, 0, 79, 0
1, 99540, Note_on_c, 0, 77, 76
1, 99597, Note_on_c, 0, 89, 93
1, 99599, Note_on_c, 1, 57, 89
1, 99602, Note_on_c, 0, 77, 0
1, 99617, Note_on_c, 1, 57, 0
1, 99721, Note_on_c, 1, 59, 89
1, 99737, Note_on_c, 1, 59, 0
1, 99841, Note_on_c, 1, 60, 80
1, 99902, Note_on_c, 0, 87, 85
1, 99924, Note_on_c, 0, 89, 0
1, 99962, Note_on_c, 0, 88, 85
1, 99963, Note_on_c, 0, 87, 0
1, 100019, Note_on_c, 1, 69, 80
1, 100079, Note_on_c, 1, 70, 80
1, 100084, Note_on_c, 1, 69, 0
1, 100136, Note_on_c, 0, 88, 0
1, 100137, Note_on_c, 0, 85, 80
1, 100198, Note_on_c, 0, 86, 93
1, 100201, Note_on_c, 0, 85, 0
1, 100257, Note_on_c, 1, 70, 0
1, 100259, Note_on_c, 1, 68, 72
1, 100319, Note_on_c, 1, 69, 80
1, 100321, Note_on_c, 1, 68, 0
1, 100378, Note_on_c, 0, 83, 89
1, 100391, Note_on_c, 0, 86, 0
1, 100438, Note_on_c, 0, 83, 0
1, 100438, Note_on_c, 0, 84, 76
1, 100499, Note_on_c, 1, 66, 60
1, 100508, Note_on_c, 1, 69, 0
1, 100560, Note_on_c, 1, 66, 0
1, 100561, Note_on_c, 1, 67, 76
1, 100619, Note_on_c, 0, 81, 76
1, 100623, Note_on_c, 0, 84, 0
1, 100674, Note_on_c, 0, 81, 0
1, 100679, Note_on_c, 0, 82, 80
1, 100705, Note_on_c, 0, 82, 0
1, 100732, Note_on_c, 1, 60, 0
1, 100739, Note_on_c, 1, 61, 72
1, 100740, Note_on_c, 0, 82, 85
1, 100759, Note_on_c, 0, 82, 0
1, 100785, Note_on_c, 1, 67, 0
1, 100799, Note_on_c, 0, 82, 89
1, 100799, Note_on_c, 1, 61, 0
1, 100799, Note_on_c, 1, 62, 80
1, 100800, Note_on_c, 1, 67, 80
1, 100801, Note_on_c, 0, 82, 80
1, 100854, Note_on_c, 0, 82, 0
1, 100859, Note_on_c, 0, 84, 80
1, 100889, Note_on_c, 0, 82, 62
1, 100897, Note_on_c, 0, 84, 0
1, 100918, Note_on_c, 0, 82, 0
1, 100918, Note_on_c, 0, 81, 80
1, 100920, Note_on_c, 0, 82, 0
1, 100940, Note_on_c, 0, 82, 68
1, 100953, Note_on_c, 0, 81, 0
1, 100966, Note_on_c, 0, 82, 0
1, 100970, Note_on_c, 0, 84, 76
1, 101029, Note_on_c, 0, 86, 93
1, 101030, Note_on_c, 0, 84, 0
1, 101148, Note_on_c, 0, 84, 72
1, 101154, Note_on_c, 0, 86, 0
1, 101210, Note_on_c, 0, 82, 64
1, 101218, Note_on_c, 0, 84, 0
1, 101275, Note_on_c, 0, 81, 85
1, 101278, Note_on_c, 0, 82, 0
1, 101303, Note_on_c, 0, 81, 0
1, 101399, Note_on_c, 0, 87, 98
1, 101521, Note_on_c, 1, 66, 80
1, 101526, Note_on_c, 1, 67, 0
1, 101641, Note_on_c, 0, 86, 89
1, 101647, Note_on_c, 0, 87, 0
1, 101700, Note_on_c, 0, 84, 72
1, 101703, Note_on_c, 0, 86, 0
1, 101759, Note_on_c, 1, 62, 0
1, 101761, Note_on_c, 0, 82, 85
1, 101761, Note_on_c, 1, 66, 0
1, 101761, Note_on_c, 1, 67, 76
1, 101768, Note_on_c, 0, 84, 0
1, 101784, Note_on_c, 0, 82, 0
1, 101821, Note_on_c, 0, 87, 76
1, 101878, Note_on_c, 1, 67, 0
1, 101881, Note_on_c, 0, 86, 93
1, 101882, Note_on_c, 0, 87, 0
1, 101936, Note_on_c, 0, 86, 0
1, 101940, Note_on_c, 0, 85, 72
1, 101997, Note_on_c, 0, 85, 0
1, 102000, Note_on_c, 0, 86, 93
1, 102059, Note_on_c, 0, 86, 0
1, 102059, Note_on_c, 0, 81, 80
1, 102119, Note_on_c, 0, 86, 80
1, 102121, Note_on_c, 1, 74, 85
1, 102121, Note_on_c, 1, 66, 62
1, 102124, Note_on_c, 0, 81, 0
1, 102179, Note_on_c, 0, 84, 72
1, 102180, Note_on_c, 0, 86, 0
1, 102235, Note_on_c, 1, 74, 0
1, 102239, Note_on_c, 1, 66, 0
1, 102241, Note_on_c, 0, 82, 85
1, 102241, Note_on_c, 1, 67, 76
1, 102241, Note_on_c, 1, 74, 85
1, 102250, Note_on_c, 0, 84, 0
1, 102263, Note_on_c, 0, 82, 0
1, 102270, Note_on_c, 1, 74, 0
1, 102281, Note_on_c, 1, 67, 0
1, 102301, Note_on_c, 0, 86, 85
1, 102360, Note_on_c, 0, 84, 76
1, 102361, Note_on_c, 0, 86, 0
1, 102421, Note_on_c, 0, 83, 72
1, 102424, Note_on_c, 0, 84, 0
1, 102479, Note_on_c, 0, 84, 76
1, 102482, Note_on_c, 0, 83, 0
1, 102539, Note_on_c, 0, 84, 0
1, 102539, Note_on_c, 0, 79, 72
1, 102599, Note_on_c, 1, 72, 80
1, 102600, Note_on_c, 0, 84, 80
1, 102600, Note_on_c, 1, 64, 68
1, 102605, Note_on_c, 0, 79, 0
1, 102661, Note_on_c, 0, 82, 76
1, 102670, Note_on_c, 0, 84, 0
1, 102711, Note_on_c, 1, 72, 0
1, 102718, Note_on_c, 1, 64, 0
1, 102719, Note_on_c, 1, 65, 76
1, 102721, Note_on_c, 1, 72, 76
1, 102759, Note_on_c, 0, 80, 80
1, 102762, Note_on_c, 0, 82, 0
1, 102798, Note_on_c, 0, 80, 0
1, 102799, Note_on_c, 0, 82, 64
1, 102840, Note_on_c, 0, 81, 85
1, 102856, Note_on_c, 0, 82, 0
1, 102961, Note_on_c, 1, 58, 56
1, 102961, Note_on_c, 1, 70, 72
1, 102968, Note_on_c, 1, 65, 0
1, 102969, Note_on_c, 1, 72, 0
1, 103082, Note_on_c, 0, 70, 76
1, 103086, Note_on_c, 0, 81, 0
1, 103122, Note_on_c, 0, 81, 64
1, 103127, Note_on_c, 0, 70, 0
1, 103162, Note_on_c, 0, 79, 80
1, 103165, Note_on_c, 0, 81, 0
1, 103200, Note_on_c, 1, 70, 0
1, 103201, Note_on_c, 1, 58, 0
1, 103201, Note_on_c, 1, 60, 62
1, 103201, Note_on_c, 1, 69, 76
1, 103242, Note_on_c, 0, 72, 76
1, 103247, Note_on_c, 0, 79, 0
1, 103282, Note_on_c, 0, 79, 76
1, 103287, Note_on_c, 0, 72, 0
1, 103322, Note_on_c, 0, 77, 72
1, 103326, Note_on_c, 0, 79, 0
1, 103441, Note_on_c, 1, 67, 59
1, 103446, Note_on_c, 1, 69, 0
1, 103556, Note_on_c, 0, 77, 0
1, 103559, Note_on_c, 0, 70, 72
1, 103600, Note_on_c, 0, 77, 72
1, 103608, Note_on_c, 0, 70, 0
1, 103639, Note_on_c, 0, 76, 76
1, 103641, Note_on_c, 0, 77, 0
1, 103660, Note_on_c, 1, 67, 0
1, 103662, Note_on_c, 1, 60, 0
1, 103680, Note_on_c, 1, 66, 64
1, 103681, Note_on_c, 1, 60, 76
1, 103719, Note_on_c, 0, 69, 72
1, 103721, Note_on_c, 0, 76, 0
1, 103759, Note_on_c, 0, 77, 76
1, 103768, Note_on_c, 0, 69, 0
1, 103801, Note_on_c, 0, 75, 80
1, 103806, Note_on_c, 0, 77, 0
1, 103914, Note_on_c, 1, 60, 0
1, 103914, Note_on_c, 1, 66, 0
1, 103919, Note_on_c, 1, 59, 72
1, 103919, Note_on_c, 1, 65, 76
1, 104038, Note_on_c, 0, 75, 0
1, 104039, Note_on_c, 0, 68, 76
1, 104078, Note_on_c, 0, 75, 80
1, 104086, Note_on_c, 0, 68, 0
1, 104118, Note_on_c, 0, 74, 76
1, 104119, Note_on_c, 0, 75, 0
1, 104159, Note_on_c, 1, 65, 0
1, 104159, Note_on_c, 1, 59, 0
1, 104160, Note_on_c, 1, 58, 60
1, 104161, Note_on_c, 1, 64, 76
1, 104200, Note_on_c, 0, 67, 72
1, 104207, Note_on_c, 0, 74, 0
1, 104241, Note_on_c, 0, 75, 72
1, 104250, Note_on_c, 0, 67, 0
1, 104281, Note_on_c, 0, 73, 76
1, 104286, Note_on_c, 0, 75, 0
1, 104399, Note_on_c, 1, 64, 0
1, 104399, Note_on_c, 1, 63, 68
1, 104399, Note_on_c, 1, 57, 59
1, 104400, Note_on_c, 1, 58, 0
1, 104512, Note_on_c, 0, 73, 0
1, 104518, Note_on_c, 0, 66, 64
1, 104558, Note_on_c, 0, 74, 72
1, 104565, Note_on_c, 0, 66, 0
1, 104597, Note_on_c, 0, 74, 0
1, 104598, Note_on_c, 0, 72, 76
1, 104641, Note_on_c, 1, 58, 59
1, 104641, Note_on_c, 1, 62, 68
1, 104643, Note_on_c, 1, 63, 0
1, 104644, Note_on_c, 1, 57, 0
1, 104679, Note_on_c, 0, 67, 76
1, 104689, Note_on_c, 0, 72, 0
1, 104721, Note_on_c, 0, 72, 76
1, 104731, Note_on_c, 0, 67, 0
1, 104762, Note_on_c, 0, 70, 72
1, 104766, Note_on_c, 0, 72, 0
1, 104840, Note_on_c, 1, 62, 0
1, 104842, Note_on_c, 1, 58, 0
1, 104880, Note_on_c, 1, 58, 72
1, 104881, Note_on_c, 1, 46, 85
1, 104991, Note_on_c, 0, 70, 0
1, 104999, Note_on_c, 0, 62, 76
1, 105039, Note_on_c, 0, 69, 72
1, 105042, Note_on_c, 0, 62, 0
1, 105079, Note_on_c, 0, 67, 76
1, 105081, Note_on_c, 0, 69, 0
1, 105111, Note_on_c, 1, 46, 0
1, 105120, Note_on_c, 1, 57, 76
1, 105121, Note_on_c, 1, 48, 62
1, 105122, Note_on_c, 1, 58, 0
1, 105161, Note_on_c, 0, 60, 62
1, 105164, Note_on_c, 0, 67, 0
1, 105201, Note_on_c, 0, 67, 80
1, 105207, Note_on_c, 0, 60, 0
1, 105241, Note_on_c, 0, 65, 80
1, 105246, Note_on_c, 0, 67, 0
1, 105360, Note_on_c, 1, 57, 0
1, 105361, Note_on_c, 1, 55, 64
1, 105472, Note_on_c, 0, 65, 0
1, 105479, Note_on_c, 0, 58, 72
1, 105519, Note_on_c, 0, 65, 68
1, 105521, Note_on_c, 0, 58, 0
1, 105559, Note_on_c, 0, 64, 80
1, 105562, Note_on_c, 0, 65, 0
1, 105592, Note_on_c, 1, 48, 0
1, 105597, Note_on_c, 0, 64, 0
1, 105597, Note_on_c, 1, 55, 0
1, 105600, Note_on_c, 1, 59, 107
1, 105600, Note_on_c, 1, 53, 102
1, 105600, Note_on_c, 1, 50, 98
1, 105639, Note_on_c, 0, 65, 93
1, 105678, Note_on_c, 0, 65, 0
1, 105679, Note_on_c, 0, 67, 89
1, 105713, Note_on_c, 0, 67, 0
1, 105718, Note_on_c, 0, 69, 93
1, 105754, Note_on_c, 0, 69, 0
1, 105758, Note_on_c, 0, 71, 76
1, 105798, Note_on_c, 0, 71, 0
1, 105798, Note_on_c, 0, 72, 89
1, 105836, Note_on_c, 0, 72, 0
1, 105837, Note_on_c, 0, 74, 89
1, 105874, Note_on_c, 0, 74, 0
1, 105877, Note_on_c, 0, 76, 62
1, 105914, Note_on_c, 0, 76, 0
1, 105917, Note_on_c, 0, 77, 89
1, 105927, Note_on_c, 1, 50, 0
1, 105927, Note_on_c, 1, 53, 0
1, 105929, Note_on_c, 1, 59, 0
1, 105955, Note_on_c, 0, 77, 0
1, 105957, Note_on_c, 0, 79, 93
1, 105959, Note_on_c, 1, 59, 107
1, 105959, Note_on_c, 1, 53, 93
1, 105959, Note_on_c, 1, 50, 89
1, 105998, Note_on_c, 0, 81, 85
1, 106000, Note_on_c, 0, 79, 0
1, 106038, Note_on_c, 0, 77, 85
1, 106044, Note_on_c, 0, 81, 0
1, 106056, Note_on_c, 1, 50, 0
1, 106056, Note_on_c, 1, 53, 0
1, 106058, Note_on_c, 1, 59, 0
1, 106067, Note_on_c, 0, 77, 0
1, 106079, Note_on_c, 1, 60, 62
1, 106079, Note_on_c, 1, 53, 49
1, 106079, Note_on_c, 1, 48, 57
1, 106119, Note_on_c, 0, 81, 60
1, 106157, Note_on_c, 0, 81, 0
1, 106159, Note_on_c, 0, 79, 60
1, 106197, Note_on_c, 0, 79, 0
1, 106199, Note_on_c, 0, 77, 62
1, 106239, Note_on_c, 0, 76, 60
1, 106244, Note_on_c, 0, 77, 0
1, 106279, Note_on_c, 0, 76, 0
1, 106279, Note_on_c, 0, 74, 59
1, 106316, Note_on_c, 0, 74, 0
1, 106319, Note_on_c, 0, 72, 55
1, 106359, Note_on_c, 0, 70, 57
1, 106361, Note_on_c, 0, 72, 0
1, 106397, Note_on_c, 0, 70, 0
1, 106398, Note_on_c, 0, 69, 62
1, 106410, Note_on_c, 1, 53, 0
1, 106411, Note_on_c, 1, 48, 0
1, 106417, Note_on_c, 1, 60, 0
1, 106434, Note_on_c, 0, 69, 0
1, 106438, Note_on_c, 0, 67, 59
1, 106439, Note_on_c, 1, 57, 76
1, 106439, Note_on_c, 1, 48, 60
1, 106439, Note_on_c, 1, 53, 57
1, 106479, Note_on_c, 0, 69, 64
1, 106480, Note_on_c, 0, 67, 0
1, 106519, Note_on_c, 0, 65, 56
1, 106520, Note_on_c, 0, 69, 0
1, 106525, Note_on_c, 1, 48, 0
1, 106528, Note_on_c, 1, 53, 0
1, 106528, Note_on_c, 1, 57, 0
1, 106544, Note_on_c, 0, 65, 0
1, 106561, Note_on_c, 1, 53, 113
1, 106561, Note_on_c, 1, 57, 113
1, 106561, Note_on_c, 1, 47, 98
1, 106561, Note_on_c, 1, 50, 98
1, 106600, Note_on_c, 0, 65, 98
1, 106639, Note_on_c, 0, 67, 93
1, 106640, Note_on_c, 0, 65, 0
1, 106677, Note_on_c, 0, 67, 0
1, 106679, Note_on_c, 0, 69, 98
1, 106714, Note_on_c, 0, 69, 0
1, 106719, Note_on_c, 0, 71, 80
1, 106758, Note_on_c, 0, 72, 93
1, 106759, Note_on_c, 0, 71, 0
1, 106797, Note_on_c, 0, 72, 0
1, 106798, Note_on_c, 0, 74, 93
1, 106837, Note_on_c, 0, 74, 0
1, 106839, Note_on_c, 0, 76, 62
1, 106878, Note_on_c, 0, 76, 0
1, 106878, Note_on_c, 0, 77, 93
1, 106890, Note_on_c, 1, 50, 0
1, 106890, Note_on_c, 1, 53, 0
1, 106891, Note_on_c, 1, 47, 0
1, 106892, Note_on_c, 1, 57, 0
1, 106918, Note_on_c, 0, 79, 93
1, 106919, Note_on_c, 0, 77, 0
1, 106919, Note_on_c, 1, 53, 102
1, 106919, Note_on_c, 1, 57, 102
1, 106919, Note_on_c, 1, 50, 85
1, 106919, Note_on_c, 1, 47, 85
1, 106920, Note_on_c, 0, 81, 72
1, 106959, Note_on_c, 0, 81, 89
1, 106961, Note_on_c, 0, 79, 0
1, 106983, Note_on_c, 0, 81, 0
1, 106999, Note_on_c, 0, 77, 89
1, 107007, Note_on_c, 0, 81, 0
1, 107018, Note_on_c, 1, 53, 0
1, 107019, Note_on_c, 1, 57, 0
1, 107020, Note_on_c, 1, 50, 0
1, 107021, Note_on_c, 0, 77, 0
1, 107021, Note_on_c, 1, 47, 0
1, 107040, Note_on_c, 1, 57, 62
1, 107040, Note_on_c, 1, 53, 56
1, 107041, Note_on_c, 1, 48, 62
1, 107081, Note_on_c, 0, 81, 56
1, 107121, Note_on_c, 0, 79, 45
1, 107123, Note_on_c, 0, 81, 0
1, 107156, Note_on_c, 0, 79, 0
1, 107159, Note_on_c, 0, 77, 64
1, 107199, Note_on_c, 0, 76, 57
1, 107203, Note_on_c, 0, 77, 0
1, 107237, Note_on_c, 0, 76, 0
1, 107239, Note_on_c, 0, 74, 57
1, 107275, Note_on_c, 0, 74, 0
1, 107279, Note_on_c, 0, 72, 64
1, 107319, Note_on_c, 0, 70, 57
1, 107322, Note_on_c, 0, 72, 0
1, 107359, Note_on_c, 0, 70, 0
1, 107359, Note_on_c, 0, 69, 60
1, 107381, Note_on_c, 1, 57, 0
1, 107382, Note_on_c, 1, 48, 0
1, 107382, Note_on_c, 1, 53, 0
1, 107396, Note_on_c, 0, 69, 0
1, 107399, Note_on_c, 0, 67, 64
1, 107400, Note_on_c, 1, 53, 60
1, 107400, Note_on_c, 1, 57, 72
1, 107401, Note_on_c, 1, 48, 64
1, 107440, Note_on_c, 0, 69, 64
1, 107441, Note_on_c, 0, 67, 0
1, 107473, Note_on_c, 1, 57, 0
1, 107479, Note_on_c, 0, 65, 57
1, 107481, Note_on_c, 0, 69, 0
1, 107483, Note_on_c, 1, 48, 0
1, 107496, Note_on_c, 1, 53, 0
1, 107506, Note_on_c, 0, 65, 0
1, 107521, Note_on_c, 1, 56, 102
1, 107521, Note_on_c, 1, 53, 89
1, 107521, Note_on_c, 1, 59, 93
1, 107521, Note_on_c, 1, 49, 107
1, 107559, Note_on_c, 0, 65, 98
1, 107600, Note_on_c, 0, 65, 0
1, 107600, Note_on_c, 0, 67, 93
1, 107640, Note_on_c, 0, 67, 0
1, 107640, Note_on_c, 0, 68, 80
1, 107678, Note_on_c, 0, 68, 0
1, 107679, Note_on_c, 0, 71, 89
1, 107719, Note_on_c, 0, 72, 85
1, 107720, Note_on_c, 0, 71, 0
1, 107759, Note_on_c, 0, 72, 0
1, 107759, Note_on_c, 0, 73, 85
1, 107797, Note_on_c, 0, 73, 0
1, 107799, Note_on_c, 0, 76, 89
1, 107839, Note_on_c, 0, 76, 0
1, 107839, Note_on_c, 0, 77, 80
1, 107845, Note_on_c, 1, 49, 0
1, 107845, Note_on_c, 1, 59, 0
1, 107845, Note_on_c, 1, 56, 0
1, 107846, Note_on_c, 1, 53, 0
1, 107878, Note_on_c, 0, 77, 0
1, 107879, Note_on_c, 0, 79, 93
1, 107879, Note_on_c, 1, 53, 107
1, 107879, Note_on_c, 1, 56, 107
1, 107879, Note_on_c, 1, 59, 107
1, 107879, Note_on_c, 1, 49, 102
1, 107919, Note_on_c, 0, 80, 80
1, 107924, Note_on_c, 0, 79, 0
1, 107959, Note_on_c, 0, 80, 0
1, 107959, Note_on_c, 0, 77, 76
1, 107978, Note_on_c, 1, 59, 0
1, 107980, Note_on_c, 1, 53, 0
1, 107983, Note_on_c, 1, 56, 0
1, 107988, Note_on_c, 1, 49, 0
1, 107999, Note_on_c, 0, 81, 89
1, 107999, Note_on_c, 1, 57, 98
1, 108001, Note_on_c, 0, 81, 85
1, 108001, Note_on_c, 1, 53, 89
1, 108001, Note_on_c, 1, 60, 102
1, 108001, Note_on_c, 1, 48, 93
1, 108002, Note_on_c, 0, 77, 0
1, 108002, Note_on_c, 1, 60, 0
1, 108030, Note_on_c, 0, 79, 76
1, 108032, Note_on_c, 0, 81, 0
1, 108036, Note_on_c, 0, 81, 0
1, 108059, Note_on_c, 0, 77, 68
1, 108062, Note_on_c, 0, 79, 0
1, 108089, Note_on_c, 0, 76, 80
1, 108094, Note_on_c, 0, 77, 0
1, 108119, Note_on_c, 0, 76, 0
1, 108119, Note_on_c, 0, 74, 76
1, 108119, Note_on_c, 1, 57, 0
1, 108121, Note_on_c, 1, 53, 0
1, 108121, Note_on_c, 1, 48, 0
1, 108149, Note_on_c, 0, 72, 44
1, 108150, Note_on_c, 0, 74, 0
1, 108179, Note_on_c, 0, 70, 59
1, 108180, Note_on_c, 0, 72, 0
1, 108209, Note_on_c, 0, 69, 76
1, 108212, Note_on_c, 0, 70, 0
1, 108234, Note_on_c, 0, 69, 0
1, 108239, Note_on_c, 0, 77, 76
1, 108269, Note_on_c, 0, 76, 68
1, 108273, Note_on_c, 0, 77, 0
1, 108298, Note_on_c, 0, 74, 64
1, 108303, Note_on_c, 0, 76, 0
1, 108328, Note_on_c, 0, 74, 0
1, 108328, Note_on_c, 0, 72, 62
1, 108358, Note_on_c, 0, 70, 68
1, 108359, Note_on_c, 0, 72, 0
1, 108387, Note_on_c, 0, 70, 0
1, 108388, Note_on_c, 0, 69, 76
1, 108417, Note_on_c, 0, 69, 0
1, 108418, Note_on_c, 0, 67, 76
1, 108448, Note_on_c, 0, 65, 68
1, 108450, Note_on_c, 0, 67, 0
1, 108477, Note_on_c, 0, 65, 0
1, 108478, Note_on_c, 0, 69, 89
1, 108481, Note_on_c, 1, 48, 62
1, 108481, Note_on_c, 1, 53, 76
1, 108508, Note_on_c, 0, 69, 0
1, 108508, Note_on_c, 0, 67, 64
1, 108538, Note_on_c, 0, 69, 76
1, 108541, Note_on_c, 0, 67, 0
1, 108567, Note_on_c, 0, 69, 0
1, 108568, Note_on_c, 0, 67, 68
1, 108596, Note_on_c, 0, 67, 0
1, 108598, Note_on_c, 0, 69, 68
1, 108628, Note_on_c, 0, 67, 76
1, 108632, Note_on_c, 0, 69, 0
1, 108656, Note_on_c, 0, 67, 0
1, 108658, Note_on_c, 0, 69, 68
1, 108688, Note_on_c, 0, 67, 68
1, 108689, Note_on_c, 0, 69, 0
1, 108715, Note_on_c, 1, 53, 0
1, 108718, Note_on_c, 0, 69, 80
1, 108719, Note_on_c, 0, 67, 0
1, 108719, Note_on_c, 1, 52, 72
1, 108748, Note_on_c, 0, 67, 64
1, 108750, Note_on_c, 0, 69, 0
1, 108778, Note_on_c, 0, 67, 0
1, 108778, Note_on_c, 0, 69, 68
1, 108807, Note_on_c, 0, 67, 76
1, 108808, Note_on_c, 0, 69, 0
1, 108838, Note_on_c, 0, 69, 76
1, 108841, Note_on_c, 0, 67, 0
1, 108868, Note_on_c, 0, 67, 72
1, 108873, Note_on_c, 0, 69, 0
1, 108893, Note_on_c, 0, 67, 0
1, 108897, Note_on_c, 0, 65, 80
1, 108927, Note_on_c, 0, 67, 72
1, 108930, Note_on_c, 0, 65, 0
1, 108956, Note_on_c, 0, 67, 0
1, 108956, Note_on_c, 1, 48, 0
1, 108960, Note_on_c, 1, 52, 0
1, 108961, Note_on_c, 0, 53, 93
1, 108961, Note_on_c, 1, 41, 80
1, 108999, Note_on_c, 0, 53, 0
1, 108999, Note_on_c, 0, 57, 80
1, 109037, Note_on_c, 0, 57, 0
1, 109039, Note_on_c, 0, 60, 64
1, 109077, Note_on_c, 0, 60, 0
1, 109079, Note_on_c, 0, 65, 85
1, 109119, Note_on_c, 0, 69, 76
1, 109122, Note_on_c, 0, 65, 0
1, 109159, Note_on_c, 0, 72, 76
1, 109160, Note_on_c, 0, 69, 0
1, 109198, Note_on_c, 0, 72, 0
1, 109199, Note_on_c, 0, 77, 72
1, 109239, Note_on_c, 0, 72, 76
1, 109243, Note_on_c, 0, 77, 0
1, 109279, Note_on_c, 0, 72, 0
1, 109279, Note_on_c, 0, 69, 72
1, 109319, Note_on_c, 0, 69, 0
1, 109319, Note_on_c, 0, 76, 93
1, 109359, Note_on_c, 0, 70, 60
1, 109364, Note_on_c, 0, 76, 0
1, 109399, Note_on_c, 0, 67, 57
1, 109400, Note_on_c, 0, 70, 0
1, 109436, Note_on_c, 0, 67, 0
1, 109439, Note_on_c, 0, 74, 98
1, 109446, Note_on_c, 1, 41, 0
1, 109479, Note_on_c, 0, 69, 52
1, 109488, Note_on_c, 0, 74, 0
1, 109515, Note_on_c, 0, 69, 0
1, 109519, Note_on_c, 0, 65, 52
1, 109556, Note_on_c, 0, 65, 0
1, 109559, Note_on_c, 0, 72, 93
1, 109601, Note_on_c, 0, 67, 51
1, 109604, Note_on_c, 0, 72, 0
1, 109636, Note_on_c, 0, 67, 0
1, 109639, Note_on_c, 0, 64, 46
1, 109671, Note_on_c, 0, 64, 0
1, 109679, Note_on_c, 0, 70, 89
1, 109719, Note_on_c, 0, 65, 53
1, 109721, Note_on_c, 0, 70, 0
1, 109754, Note_on_c, 0, 65, 0
1, 109759, Note_on_c, 0, 62, 48
1, 109796, Note_on_c, 0, 62, 0
1, 109800, Note_on_c, 0, 69, 93
1, 109840, Note_on_c, 0, 69, 0
1, 109841, Note_on_c, 0, 64, 46
1, 109876, Note_on_c, 0, 64, 0
1, 109880, Note_on_c, 0, 60, 55
1, 109914, Note_on_c, 0, 60, 0
1, 109921, Note_on_c, 0, 57, 98
1, 109961, Note_on_c, 0, 63, 62
1, 109963, Note_on_c, 0, 57, 0
1, 109998, Note_on_c, 0, 63, 0
1, 110001, Note_on_c, 0, 66, 47
1, 110034, Note_on_c, 0, 66, 0
1, 110041, Note_on_c, 0, 58, 85
1, 110041, Note_on_c, 1, 46, 107
1, 110078, Note_on_c, 0, 58, 0
1, 110080, Note_on_c, 0, 62, 60
1, 110121, Note_on_c, 0, 67, 76
1, 110122, Note_on_c, 0, 62, 0
1, 110157, Note_on_c, 0, 67, 0
1, 110161, Note_on_c, 1, 48, 89
1, 110162, Note_on_c, 0, 57, 93
1, 110162, Note_on_c, 1, 46, 0
1, 110197, Note_on_c, 0, 57, 0
1, 110202, Note_on_c, 0, 60, 60
1, 110238, Note_on_c, 0, 60, 0
1, 110242, Note_on_c, 0, 65, 76
1, 110273, Note_on_c, 0, 65, 0
1, 110280, Note_on_c, 1, 48, 0
1, 110281, Note_on_c, 0, 55, 80
1, 110281, Note_on_c, 1, 36, 85
1, 110319, Note_on_c, 0, 55, 0
1, 110322, Note_on_c, 0, 58, 72
1, 110344, Note_on_c, 0, 58, 0
1, 110362, Note_on_c, 0, 64, 72
1, 110393, Note_on_c, 0, 64, 0
1, 110396, Note_on_c, 1, 36, 0
1, 110400, Note_on_c, 1, 41, 85
1, 110400, Note_on_c, 1, 53, 89
1, 110402, Note_on_c, 0, 65, 89
1, 110439, Note_on_c, 0, 65, 0
1, 110441, Note_on_c, 0, 69, 80
1, 110475, Note_on_c, 0, 69, 0
1, 110481, Note_on_c, 0, 72, 72
1, 110518, Note_on_c, 0, 72, 0
1, 110520, Note_on_c, 0, 77, 89
1, 110558, Note_on_c, 0, 77, 0
1, 110560, Note_on_c, 0, 81, 57
1, 110593, Note_on_c, 0, 81, 0
1, 110599, Note_on_c, 0, 84, 62
1, 110636, Note_on_c, 0, 84, 0
1, 110638, Note_on_c, 0, 89, 93
1, 110676, Note_on_c, 0, 89, 0
1, 110679, Note_on_c, 0, 84, 57
1, 110717, Note_on_c, 0, 84, 0
1, 110719, Note_on_c, 0, 81, 50
1, 110755, Note_on_c, 0, 81, 0
1, 110759, Note_on_c, 0, 88, 93
1, 110800, Note_on_c, 0, 82, 64
1, 110801, Note_on_c, 0, 88, 0
1, 110837, Note_on_c, 0, 82, 0
1, 110839, Note_on_c, 0, 79, 68
1, 110876, Note_on_c, 0, 79, 0
1, 110879, Note_on_c, 0, 86, 102
1, 110884, Note_on_c, 1, 53, 0
1, 110884, Note_on_c, 1, 41, 0
1, 110917, Note_on_c, 0, 86, 0
1, 110919, Note_on_c, 0, 81, 50
1, 110959, Note_on_c, 0, 77, 57
1, 110960, Note_on_c, 0, 81, 0
1, 110995, Note_on_c, 0, 77, 0
1, 110999, Note_on_c, 0, 84, 93
1, 111039, Note_on_c, 0, 79, 48
1, 111040, Note_on_c, 0, 84, 0
1, 111077, Note_on_c, 0, 79, 0
1, 111079, Note_on_c, 0, 76, 52
1, 111110, Note_on_c, 0, 76, 0
1, 111119, Note_on_c, 0, 82, 89
1, 111157, Note_on_c, 0, 82, 0
1, 111159, Note_on_c, 0, 77, 55
1, 111197, Note_on_c, 0, 77, 0
1, 111199, Note_on_c, 0, 74, 56
1, 111233, Note_on_c, 0, 74, 0
1, 111239, Note_on_c, 0, 81, 93
1, 111279, Note_on_c, 0, 76, 55
1, 111280, Note_on_c, 0, 81, 0
1, 111319, Note_on_c, 0, 76, 0
1, 111319, Note_on_c, 0, 72, 60
1, 111342, Note_on_c, 0, 72, 0
1, 111361, Note_on_c, 0, 69, 93
1, 111401, Note_on_c, 0, 75, 50
1, 111402, Note_on_c, 0, 69, 0
1, 111431, Note_on_c, 0, 75, 0
1, 111441, Note_on_c, 0, 78, 42
1, 111475, Note_on_c, 0, 78, 0
1, 111479, Note_on_c, 1, 58, 113
1, 111481, Note_on_c, 0, 70, 89
1, 111520, Note_on_c, 0, 70, 0
1, 111521, Note_on_c, 0, 74, 76
1, 111559, Note_on_c, 0, 74, 0
1, 111562, Note_on_c, 0, 79, 68
1, 111598, Note_on_c, 0, 79, 0
1, 111601, Note_on_c, 1, 60, 98
1, 111602, Note_on_c, 0, 69, 93
1, 111604, Note_on_c, 1, 58, 0
1, 111635, Note_on_c, 0, 69, 0
1, 111641, Note_on_c, 0, 72, 56
1, 111678, Note_on_c, 0, 72, 0
1, 111682, Note_on_c, 0, 77, 56
1, 111715, Note_on_c, 0, 77, 0
1, 111721, Note_on_c, 1, 48, 89
1, 111722, Note_on_c, 0, 67, 93
1, 111724, Note_on_c, 1, 60, 0
1, 111759, Note_on_c, 0, 67, 0
1, 111762, Note_on_c, 0, 70, 62
1, 111796, Note_on_c, 0, 70, 0
1, 111802, Note_on_c, 0, 76, 62
1, 111833, Note_on_c, 1, 48, 0
1, 111834, Note_on_c, 0, 76, 0
1, 111839, Note_on_c, 1, 53, 93
1, 111841, Note_on_c, 0, 69, 93
1, 111876, Note_on_c, 0, 69, 0
1, 111881, Note_on_c, 0, 72, 57
1, 111916, Note_on_c, 0, 72, 0
1, 111921, Note_on_c, 0, 77, 62
1, 111953, Note_on_c, 0, 77, 0
1, 111960, Note_on_c, 0, 68, 98
1, 112000, Note_on_c, 0, 68, 0
1, 112001, Note_on_c, 0, 71, 62
1, 112032, Note_on_c, 0, 71, 0
1, 112039, Note_on_c, 0, 77, 64
1, 112074, Note_on_c, 0, 77, 0
1, 112079, Note_on_c, 0, 69, 98
1, 112118, Note_on_c, 0, 69, 0
1, 112119, Note_on_c, 0, 72, 68
1, 112159, Note_on_c, 0, 72, 0
1, 112159, Note_on_c, 0, 77, 72
1, 112194, Note_on_c, 0, 77, 0
1, 112201, Note_on_c, 0, 68, 85
1, 112241, Note_on_c, 0, 68, 0
1, 112241, Note_on_c, 0, 71, 72
1, 112272, Note_on_c, 0, 71, 0
1, 112281, Note_on_c, 0, 77, 68
1, 112316, Note_on_c, 0, 77, 0
1, 112320, Note_on_c, 0, 69, 93
1, 112358, Note_on_c, 0, 69, 0
1, 112361, Note_on_c, 0, 72, 64
1, 112397, Note_on_c, 0, 72, 0
1, 112400, Note_on_c, 0, 77, 62
1, 112433, Note_on_c, 0, 77, 0
1, 112439, Note_on_c, 0, 74, 93
1, 112439, Note_on_c, 1, 53, 0
1, 112439, Note_on_c, 1, 58, 89
1, 112481, Note_on_c, 0, 74, 0
1, 112481, Note_on_c, 0, 70, 55
1, 112513, Note_on_c, 0, 70, 0
1, 112519, Note_on_c, 0, 67, 49
1, 112552, Note_on_c, 0, 67, 0
1, 112559, Note_on_c, 0, 72, 89
1, 112561, Note_on_c, 1, 60, 89
1, 112565, Note_on_c, 1, 58, 0
1, 112602, Note_on_c, 0, 72, 0
1, 112602, Note_on_c, 0, 69, 52
1, 112630, Note_on_c, 0, 69, 0
1, 112641, Note_on_c, 0, 65, 53
1, 112665, Note_on_c, 0, 65, 0
1, 112680, Note_on_c, 0, 70, 76
1, 112680, Note_on_c, 1, 48, 80
1, 112684, Note_on_c, 1, 60, 0
1, 112718, Note_on_c, 0, 70, 0
1, 112721, Note_on_c, 0, 67, 49
1, 112758, Note_on_c, 0, 67, 0
1, 112761, Note_on_c, 0, 64, 55
1, 112784, Note_on_c, 0, 64, 0
1, 112801, Note_on_c, 0, 60, 85
1, 112801, Note_on_c, 1, 53, 93
1, 112801, Note_on_c, 1, 41, 89
1, 112806, Note_on_c, 1, 48, 0
1, 112841, Note_on_c, 0, 65, 68
1, 112845, Note_on_c, 0, 60, 0
1, 112881, Note_on_c, 0, 65, 0
1, 112882, Note_on_c, 0, 69, 55
1, 112912, Note_on_c, 0, 69, 0
1, 112921, Note_on_c, 0, 59, 89
1, 112961, Note_on_c, 0, 65, 62
1, 112962, Note_on_c, 0, 59, 0
1, 112997, Note_on_c, 0, 65, 0
1, 113001, Note_on_c, 0, 68, 51
1, 113030, Note_on_c, 0, 68, 0
1, 113041, Note_on_c, 0, 60, 80
1, 113078, Note_on_c, 0, 60, 0
1, 113081, Note_on_c, 0, 65, 42
1, 113112, Note_on_c, 0, 65, 0
1, 113121, Note_on_c, 0, 69, 55
1, 113152, Note_on_c, 0, 69, 0
1, 113159, Note_on_c, 0, 59, 64
1, 113201, Note_on_c, 0, 65, 72
1, 113204, Note_on_c, 0, 59, 0
1, 113238, Note_on_c, 0, 65, 0
1, 113241, Note_on_c, 0, 68, 59
1, 113275, Note_on_c, 0, 68, 0
1, 113281, Note_on_c, 0, 60, 85
1, 113316, Note_on_c, 0, 60, 0
1, 113321, Note_on_c, 0, 65, 62
1, 113358, Note_on_c, 0, 65, 0
1, 113360, Note_on_c, 0, 69, 76
1, 113394, Note_on_c, 0, 69, 0
1, 113395, Note_on_c, 1, 53, 0
1, 113397, Note_on_c, 1, 41, 0
1, 113399, Note_on_c, 1, 46, 98
1, 113401, Note_on_c, 0, 67, 93
1, 113434, Note_on_c, 0, 67, 0
1, 113439, Note_on_c, 0, 62, 76
1, 113479, Note_on_c, 0, 62, 0
1, 113479, Note_on_c, 0, 58, 56
1, 113506, Note_on_c, 0, 58, 0
1, 113519, Note_on_c, 0, 65, 93
1, 113521, Note_on_c, 1, 48, 89
1, 113530, Note_on_c, 1, 46, 0
1, 113559, Note_on_c, 0, 60, 51
1, 113560, Note_on_c, 0, 65, 0
1, 113598, Note_on_c, 0, 60, 0
1, 113599, Note_on_c, 0, 57, 60
1, 113632, Note_on_c, 0, 57, 0
1, 113640, Note_on_c, 1, 48, 0
1, 113641, Note_on_c, 0, 64, 89
1, 113641, Note_on_c, 1, 36, 89
1, 113680, Note_on_c, 0, 64, 0
1, 113681, Note_on_c, 0, 58, 50
1, 113720, Note_on_c, 0, 58, 0
1, 113721, Note_on_c, 0, 55, 68
1, 113748, Note_on_c, 1, 36, 0
1, 113750, Note_on_c, 0, 55, 0
1, 113760, Note_on_c, 1, 41, 85
1, 113761, Note_on_c, 0, 53, 89
1, 113796, Note_on_c, 0, 53, 0
1, 113798, Note_on_c, 1, 45, 76
1, 113801, Note_on_c, 0, 57, 72
1, 113805, Note_on_c, 1, 41, 0
1, 113830, Note_on_c, 0, 57, 0
1, 113838, Note_on_c, 0, 60, 76
1, 113838, Note_on_c, 1, 48, 76
1, 113839, Note_on_c, 1, 45, 0
1, 113876, Note_on_c, 0, 60, 0
1, 113877, Note_on_c, 1, 48, 0
1, 113877, Note_on_c, 1, 53, 89
1, 113878, Note_on_c, 0, 65, 85
1, 113912, Note_on_c, 0, 65, 0
1, 113917, Note_on_c, 0, 60, 68
1, 113917, Note_on_c, 1, 48, 76
1, 113926, Note_on_c, 1, 53, 0
1, 113955, Note_on_c, 0, 60, 0
1, 113956, Note_on_c, 0, 57, 64
1, 113957, Note_on_c, 1, 45, 80
1, 113964, Note_on_c, 1, 48, 0
1, 113997, Note_on_c, 0, 53, 93
1, 113998, Note_on_c, 1, 41, 93
1, 114001, Note_on_c, 0, 57, 0
1, 114002, Note_on_c, 1, 45, 0
1, 114033, Note_on_c, 0, 53, 0
1, 114038, Note_on_c, 0, 57, 85
1, 114039, Note_on_c, 1, 45, 76
1, 114045, Note_on_c, 1, 41, 0
1, 114076, Note_on_c, 0, 57, 0
1, 114077, Note_on_c, 0, 60, 76
1, 114079, Note_on_c, 1, 48, 72
1, 114084, Note_on_c, 1, 45, 0
1, 114118, Note_on_c, 0, 65, 89
1, 114120, Note_on_c, 1, 53, 89
1, 114121, Note_on_c, 0, 60, 0
1, 114125, Note_on_c, 1, 48, 0
1, 114159, Note_on_c, 0, 65, 0
1, 114159, Note_on_c, 0, 60, 76
1, 114161, Note_on_c, 1, 48, 72
1, 114175, Note_on_c, 1, 53, 0
1, 114199, Note_on_c, 0, 57, 76
1, 114200, Note_on_c, 1, 45, 76
1, 114201, Note_on_c, 0, 60, 0
1, 114203, Note_on_c, 1, 48, 0
1, 114241, Note_on_c, 0, 53, 85
1, 114241, Note_on_c, 1, 41, 80
1, 114242, Note_on_c, 1, 45, 0
1, 114244, Note_on_c, 0, 57, 0
1, 114277, Note_on_c, 0, 53, 0
1, 114281, Note_on_c, 0, 57, 72
1, 114281, Note_on_c, 1, 45, 85
1, 114282, Note_on_c, 1, 41, 0
1, 114320, Note_on_c, 0, 60, 64
1, 114321, Note_on_c, 1, 48, 80
1, 114322, Note_on_c, 0, 57, 0
1, 114325, Note_on_c, 1, 45, 0
1, 114358, Note_on_c, 0, 60, 0
1, 114361, Note_on_c, 0, 65, 93
1, 114361, Note_on_c, 1, 53, 80
1, 114363, Note_on_c, 1, 48, 0
1, 114401, Note_on_c, 0, 69, 76
1, 114401, Note_on_c, 1, 57, 80
1, 114404, Note_on_c, 1, 53, 0
1, 114406, Note_on_c, 0, 65, 0
1, 114440, Note_on_c, 0, 69, 0
1, 114441, Note_on_c, 0, 72, 76
1, 114441, Note_on_c, 1, 60, 80
1, 114443, Note_on_c, 1, 57, 0
1, 114479, Note_on_c, 0, 72, 0
1, 114481, Note_on_c, 0, 77, 89
1, 114481, Note_on_c, 1, 65, 93
1, 114482, Note_on_c, 1, 60, 0
1, 114520, Note_on_c, 0, 77, 0
1, 114520, Note_on_c, 0, 72, 64
1, 114521, Note_on_c, 1, 60, 76
1, 114522, Note_on_c, 1, 65, 0
1, 114560, Note_on_c, 1, 57, 72
1, 114561, Note_on_c, 0, 69, 80
1, 114561, Note_on_c, 1, 60, 0
1, 114564, Note_on_c, 0, 72, 0
1, 114594, Note_on_c, 0, 69, 0
1, 114600, Note_on_c, 1, 57, 0
1, 114600, Note_on_c, 1, 53, 80
1, 114601, Note_on_c, 0, 65, 85
1, 114639, Note_on_c, 1, 57, 80
1, 114641, Note_on_c, 0, 69, 68
1, 114647, Note_on_c, 0, 65, 0
1, 114647, Note_on_c, 1, 53, 0
1, 114679, Note_on_c, 1, 57, 0
1, 114679, Note_on_c, 1, 60, 80
1, 114681, Note_on_c, 0, 69, 0
1, 114681, Note_on_c, 0, 72, 76
1, 114720, Note_on_c, 0, 72, 0
1, 114720, Note_on_c, 1, 60, 0
1, 114721, Note_on_c, 0, 65, 93
1, 114721, Note_on_c, 1, 53, 85
1, 114761, Note_on_c, 0, 69, 76
1, 114761, Note_on_c, 1, 57, 85
1, 114763, Note_on_c, 0, 65, 0
1, 114769, Note_on_c, 1, 53, 0
1, 114799, Note_on_c, 1, 60, 72
1, 114801, Note_on_c, 0, 72, 85
1, 114802, Note_on_c, 1, 57, 0
1, 114803, Note_on_c, 0, 69, 0
1, 114833, Note_on_c, 0, 72, 0
1, 114839, Note_on_c, 0, 77, 98
1, 114841, Note_on_c, 1, 65, 89
1, 114846, Note_on_c, 1, 60, 0
1, 114878, Note_on_c, 0, 77, 0
1, 114879, Note_on_c, 0, 81, 89
1, 114879, Note_on_c, 1, 69, 76
1, 114917, Note_on_c, 1, 65, 0
1, 114918, Note_on_c, 0, 81, 0
1, 114919, Note_on_c, 0, 84, 85
1, 114919, Note_on_c, 1, 72, 85
1, 114922, Note_on_c, 1, 69, 0
1, 114958, Note_on_c, 1, 72, 0
1, 114959, Note_on_c, 0, 89, 80
1, 114961, Note_on_c, 0, 84, 0
1, 114961, Note_on_c, 1, 77, 89
1, 114998, Note_on_c, 0, 89, 0
1, 114999, Note_on_c, 0, 84, 80
1, 114999, Note_on_c, 1, 72, 80
1, 115003, Note_on_c, 1, 77, 0
1, 115039, Note_on_c, 0, 81, 85
1, 115039, Note_on_c, 1, 69, 80
1, 115042, Note_on_c, 1, 72, 0
1, 115044, Note_on_c, 0, 84, 0
1, 115079, Note_on_c, 0, 77, 93
1, 115079, Note_on_c, 1, 65, 89
1, 115080, Note_on_c, 0, 81, 0
1, 115080, Note_on_c, 1, 69, 0
1, 115119, Note_on_c, 0, 81, 85
1, 115119, Note_on_c, 1, 69, 98
1, 115122, Note_on_c, 1, 65, 0
1, 115124, Note_on_c, 0, 77, 0
1, 115154, Note_on_c, 0, 81, 0
1, 115158, Note_on_c, 0, 84, 76
1, 115159, Note_on_c, 1, 72, 85
1, 115160, Note_on_c, 1, 69, 0
1, 115199, Note_on_c, 0, 84, 0
1, 115199, Note_on_c, 0, 89, 80
1, 115200, Note_on_c, 1, 72, 0
1, 115201, Note_on_c, 1, 77, 102
1, 115281, Note_on_c, 0, 89, 0
1, 115313, Note_on_c, 1, 77, 0
1, 115320, Note_on_c, 0, 65, 93
1, 115320, Note_on_c, 1, 53, 85
1, 115320, Note_on_c, 1, 41, 89
1, 115453, Note_on_c, 1, 41, 0
1, 115453, Note_on_c, 1, 53, 0
1, 115461, Note_on_c, 0, 65, 0
1, 115471, End_track
0, 0, End_of_file