0, 0, Header, 0, 1, 240
1, 0, Start_track
1, 0, Tempo, 476190
1, 960, Note_on_c, 0, 75, 80
1, 960, Note_on_c, 1, 57, 56
1, 960, Note_on_c, 1, 60, 56
1, 960, Note_on_c, 1, 64, 56
1, 1020, Note_on_c, 0, 75, 0
1, 1020, Note_on_c, 0, 76, 80
1, 1020, Note_on_c, 1, 64, 0
1, 1020, Note_on_c, 1, 60, 0
1, 1020, Note_on_c, 1, 57, 0
1, 1080, Note_on_c, 1, 57, 48
1, 1080, Note_on_c, 1, 60, 48
1, 1080, Note_on_c, 1, 64, 48
1, 1110, Note_on_c, 0, 76, 0
1, 1200, Note_on_c, 0, 76, 80
1, 1200, Note_on_c, 1, 64, 0
1, 1200, Note_on_c, 1, 60, 0
1, 1200, Note_on_c, 1, 57, 0
1, 1200, Note_on_c, 1, 57, 48
1, 1200, Note_on_c, 1, 60, 48
1, 1200, Note_on_c, 1, 64, 48
1, 1320, Note_on_c, 1, 64, 0
1, 1320, Note_on_c, 1, 60, 0
1, 1320, Note_on_c, 1, 57, 0
1, 1320, Note_on_c, 1, 57, 48
1, 1320, Note_on_c, 1, 60, 48
1, 1320, Note_on_c, 1, 64, 48
1, 1380, Note_on_c, 0, 76, 0
1, 1380, Note_on_c, 0, 76, 84
1, 1380, Note_on_c, 1, 64, 0
1, 1380, Note_on_c, 1, 60, 0
1, 1380, Note_on_c, 1, 57, 0
1, 1440, Note_on_c, 0, 76, 0
1, 1440, Note_on_c, 0, 76, 88
1, 1440, Note_on_c, 1, 57, 56
1, 1440, Note_on_c, 1, 60, 56
1, 1440, Note_on_c, 1, 64, 56
1, 1500, Note_on_c, 1, 64, 0
1, 1500, Note_on_c, 1, 60, 0
1, 1500, Note_on_c, 1, 57, 0
1, 1560, Note_on_c, 1, 57, 48
1, 1560, Note_on_c, 1, 60, 48
1, 1560, Note_on_c, 1, 64, 48
1, 1680, Note_on_c, 0, 76, 0
1, 1680, Note_on_c, 0, 72, 80
1, 1680, Note_on_c, 1, 64, 0
1, 1680, Note_on_c, 1, 60, 0
1, 1680, Note_on_c, 1, 57, 0
1, 1680, Note_on_c, 1, 57, 48
1, 1680, Note_on_c, 1, 60, 48
1, 1680, Note_on_c, 1, 64, 48
1, 1800, Note_on_c, 1, 64, 0
1, 1800, Note_on_c, 1, 60, 0
1, 1800, Note_on_c, 1, 57, 0
1, 1800, Note_on_c, 1, 57, 48
1, 1800, Note_on_c, 1, 60, 48
1, 1800, Note_on_c, 1, 64, 48
1, 1860, Note_on_c, 0, 72, 0
1, 1860, Note_on_c, 0, 69, 80
1, 1860, Note_on_c, 1, 64, 0
1, 1860, Note_on_c, 1, 60, 0
1, 1860, Note_on_c, 1, 57, 0
1, 1920, Note_on_c, 0, 69, 0
1, 1920, Note_on_c, 0, 69, 80
1, 1920, Note_on_c, 1, 59, 56
1, 1920, Note_on_c, 1, 57, 56
1, 1920, Note_on_c, 1, 62, 56
1, 1920, Note_on_c, 1, 64, 56
1, 1980, Note_on_c, 1, 64, 0
1, 1980, Note_on_c, 1, 59, 0
1, 1980, Note_on_c, 1, 57, 0
1, 1980, Note_on_c, 1, 62, 0
1, 2040, Note_on_c, 0, 69, 0
1, 2040, Note_on_c, 0, 68, 80
1, 2040, Note_on_c, 1, 57, 48
1, 2040, Note_on_c, 1, 59, 48
1, 2040, Note_on_c, 1, 62, 48
1, 2040, Note_on_c, 1, 64, 48
1, 2112, Note_on_c, 0, 68, 0
1, 2160, Note_on_c, 0, 68, 80
1, 2160, Note_on_c, 1, 64, 0
1, 2160, Note_on_c, 1, 57, 0
1, 2160, Note_on_c, 1, 59, 0
1, 2160, Note_on_c, 1, 62, 0
1, 2160, Note_on_c, 1, 57, 48
1, 2160, Note_on_c, 1, 59, 48
1, 2160, Note_on_c, 1, 62, 48
1, 2160, Note_on_c, 1, 64, 48
1, 2280, Note_on_c, 1, 64, 0
1, 2280, Note_on_c, 1, 57, 0
1, 2280, Note_on_c, 1, 59, 0
1, 2280, Note_on_c, 1, 62, 0
1, 2280, Note_on_c, 1, 57, 48
1, 2280, Note_on_c, 1, 59, 48
1, 2280, Note_on_c, 1, 62, 48
1, 2280, Note_on_c, 1, 64, 48
1, 2340, Note_on_c, 1, 64, 0
1, 2340, Note_on_c, 1, 57, 0
1, 2340, Note_on_c, 1, 59, 0
1, 2340, Note_on_c, 1, 62, 0
1, 2400, Note_on_c, 1, 57, 48
1, 2400, Note_on_c, 1, 59, 48
1, 2400, Note_on_c, 1, 62, 48
1, 2400, Note_on_c, 1, 64, 48
1, 2460, Note_on_c, 1, 64, 0
1, 2460, Note_on_c, 1, 57, 0
1, 2460, Note_on_c, 1, 59, 0
1, 2460, Note_on_c, 1, 62, 0
1, 2520, Note_on_c, 1, 57, 48
1, 2520, Note_on_c, 1, 59, 48
1, 2520, Note_on_c, 1, 62, 48
1, 2520, Note_on_c, 1, 64, 48
1, 2640, Note_on_c, 0, 68, 0
1, 2640, Note_on_c, 0, 74, 80
1, 2640, Note_on_c, 1, 64, 0
1, 2640, Note_on_c, 1, 57, 0
1, 2640, Note_on_c, 1, 59, 0
1, 2640, Note_on_c, 1, 62, 0
1, 2640, Note_on_c, 1, 57, 48
1, 2640, Note_on_c, 1, 59, 48
1, 2640, Note_on_c, 1, 62, 48
1, 2640, Note_on_c, 1, 64, 48
1, 2760, Note_on_c, 1, 64, 0
1, 2760, Note_on_c, 1, 57, 0
1, 2760, Note_on_c, 1, 59, 0
1, 2760, Note_on_c, 1, 62, 0
1, 2760, Note_on_c, 1, 57, 48
1, 2760, Note_on_c, 1, 59, 48
1, 2760, Note_on_c, 1, 62, 48
1, 2760, Note_on_c, 1, 64, 48
1, 2820, Note_on_c, 0, 74, 0
1, 2820, Note_on_c, 0, 71, 80
1, 2880, Note_on_c, 0, 71, 0
1, 2880, Note_on_c, 0, 76, 80
1, 2880, Note_on_c, 1, 64, 0
1, 2880, Note_on_c, 1, 57, 0
1, 2880, Note_on_c, 1, 59, 0
1, 2880, Note_on_c, 1, 62, 0
1, 2880, Note_on_c, 1, 64, 56
1, 2880, Note_on_c, 1, 60, 56
1, 2880, Note_on_c, 1, 57, 56
1, 2940, Note_on_c, 1, 57, 0
1, 2940, Note_on_c, 1, 60, 0
1, 2940, Note_on_c, 1, 64, 0
1, 3000, Note_on_c, 1, 64, 48
1, 3000, Note_on_c, 1, 60, 48
1, 3000, Note_on_c, 1, 57, 48
1, 3120, Note_on_c, 0, 76, 0
1, 3120, Note_on_c, 0, 76, 84
1, 3120, Note_on_c, 1, 57, 0
1, 3120, Note_on_c, 1, 60, 0
1, 3120, Note_on_c, 1, 64, 0
1, 3120, Note_on_c, 1, 64, 48
1, 3120, Note_on_c, 1, 60, 48
1, 3120, Note_on_c, 1, 57, 48
1, 3240, Note_on_c, 1, 57, 0
1, 3240, Note_on_c, 1, 60, 0
1, 3240, Note_on_c, 1, 64, 0
1, 3240, Note_on_c, 1, 64, 48
1, 3240, Note_on_c, 1, 60, 48
1, 3240, Note_on_c, 1, 57, 48
1, 3300, Note_on_c, 0, 76, 0
1, 3300, Note_on_c, 0, 76, 88
1, 3300, Note_on_c, 1, 57, 0
1, 3300, Note_on_c, 1, 60, 0
1, 3300, Note_on_c, 1, 64, 0
1, 3360, Note_on_c, 0, 76, 0
1, 3360, Note_on_c, 0, 76, 92
1, 3360, Note_on_c, 1, 64, 48
1, 3360, Note_on_c, 1, 60, 48
1, 3360, Note_on_c, 1, 57, 48
1, 3420, Note_on_c, 1, 57, 0
1, 3420, Note_on_c, 1, 60, 0
1, 3420, Note_on_c, 1, 64, 0
1, 3480, Note_on_c, 0, 76, 0
1, 3480, Note_on_c, 0, 77, 80
1, 3480, Note_on_c, 1, 64, 48
1, 3480, Note_on_c, 1, 60, 48
1, 3480, Note_on_c, 1, 57, 48
1, 3540, Note_on_c, 0, 77, 0
1, 3540, Note_on_c, 0, 76, 80
1, 3600, Note_on_c, 0, 76, 0
1, 3600, Note_on_c, 0, 74, 80
1, 3600, Note_on_c, 1, 57, 0
1, 3600, Note_on_c, 1, 60, 0
1, 3600, Note_on_c, 1, 64, 0
1, 3600, Note_on_c, 1, 64, 48
1, 3600, Note_on_c, 1, 60, 48
1, 3600, Note_on_c, 1, 57, 48
1, 3660, Note_on_c, 0, 74, 0
1, 3660, Note_on_c, 0, 72, 80
1, 3720, Note_on_c, 0, 72, 0
1, 3720, Note_on_c, 0, 71, 80
1, 3720, Note_on_c, 1, 57, 0
1, 3720, Note_on_c, 1, 60, 0
1, 3720, Note_on_c, 1, 64, 0
1, 3720, Note_on_c, 1, 64, 48
1, 3720, Note_on_c, 1, 60, 48
1, 3720, Note_on_c, 1, 57, 48
1, 3780, Note_on_c, 0, 71, 0
1, 3780, Note_on_c, 0, 69, 80
1, 3780, Note_on_c, 1, 57, 0
1, 3780, Note_on_c, 1, 60, 0
1, 3780, Note_on_c, 1, 64, 0
1, 3840, Note_on_c, 0, 69, 0
1, 3840, Note_on_c, 0, 69, 80
1, 3840, Note_on_c, 1, 64, 56
1, 3840, Note_on_c, 1, 62, 56
1, 3840, Note_on_c, 1, 57, 56
1, 3840, Note_on_c, 1, 59, 56
1, 3897, Note_on_c, 0, 69, 0
1, 3900, Note_on_c, 0, 68, 80
1, 3900, Note_on_c, 1, 59, 0
1, 3900, Note_on_c, 1, 64, 0
1, 3900, Note_on_c, 1, 62, 0
1, 3900, Note_on_c, 1, 57, 0
1, 3960, Note_on_c, 1, 62, 48
1, 3960, Note_on_c, 1, 59, 48
1, 3960, Note_on_c, 1, 57, 48
1, 3960, Note_on_c, 1, 64, 48
1, 4044, Note_on_c, 0, 68, 0
1, 4080, Note_on_c, 0, 68, 80
1, 4080, Note_on_c, 1, 64, 0
1, 4080, Note_on_c, 1, 62, 0
1, 4080, Note_on_c, 1, 59, 0
1, 4080, Note_on_c, 1, 57, 0
1, 4080, Note_on_c, 1, 62, 48
1, 4080, Note_on_c, 1, 59, 48
1, 4080, Note_on_c, 1, 57, 48
1, 4080, Note_on_c, 1, 64, 48
1, 4200, Note_on_c, 1, 64, 0
1, 4200, Note_on_c, 1, 62, 0
1, 4200, Note_on_c, 1, 59, 0
1, 4200, Note_on_c, 1, 57, 0
1, 4200, Note_on_c, 1, 64, 48
1, 4200, Note_on_c, 1, 62, 48
1, 4200, Note_on_c, 1, 59, 48
1, 4200, Note_on_c, 1, 57, 48
1, 4260, Note_on_c, 1, 57, 0
1, 4260, Note_on_c, 1, 64, 0
1, 4260, Note_on_c, 1, 62, 0
1, 4260, Note_on_c, 1, 59, 0
1, 4320, Note_on_c, 1, 64, 48
1, 4320, Note_on_c, 1, 62, 48
1, 4320, Note_on_c, 1, 59, 48
1, 4320, Note_on_c, 1, 57, 48
1, 4380, Note_on_c, 1, 57, 0
1, 4380, Note_on_c, 1, 64, 0
1, 4380, Note_on_c, 1, 62, 0
1, 4380, Note_on_c, 1, 59, 0
1, 4440, Note_on_c, 1, 64, 48
1, 4440, Note_on_c, 1, 62, 48
1, 4440, Note_on_c, 1, 59, 48
1, 4440, Note_on_c, 1, 57, 48
1, 4560, Note_on_c, 0, 68, 0
1, 4560, Note_on_c, 0, 74, 80
1, 4560, Note_on_c, 1, 57, 0
1, 4560, Note_on_c, 1, 64, 0
1, 4560, Note_on_c, 1, 62, 0
1, 4560, Note_on_c, 1, 59, 0
1, 4560, Note_on_c, 1, 62, 48
1, 4560, Note_on_c, 1, 59, 48
1, 4560, Note_on_c, 1, 64, 48
1, 4560, Note_on_c, 1, 57, 48
1, 4680, Note_on_c, 1, 57, 0
1, 4680, Note_on_c, 1, 62, 0
1, 4680, Note_on_c, 1, 59, 0
1, 4680, Note_on_c, 1, 64, 0
1, 4680, Note_on_c, 1, 64, 48
1, 4680, Note_on_c, 1, 62, 48
1, 4680, Note_on_c, 1, 57, 48
1, 4680, Note_on_c, 1, 59, 48
1, 4740, Note_on_c, 0, 74, 0
1, 4740, Note_on_c, 0, 71, 80
1, 4800, Note_on_c, 0, 71, 0
1, 4800, Note_on_c, 0, 72, 80
1, 4800, Note_on_c, 0, 76, 80
1, 4800, Note_on_c, 1, 59, 0
1, 4800, Note_on_c, 1, 64, 0
1, 4800, Note_on_c, 1, 62, 0
1, 4800, Note_on_c, 1, 57, 0
1, 4800, Note_on_c, 1, 64, 48
1, 4800, Note_on_c, 1, 60, 48
1, 4800, Note_on_c, 1, 57, 48
1, 4920, Note_on_c, 1, 57, 0
1, 4920, Note_on_c, 1, 60, 0
1, 4920, Note_on_c, 1, 64, 0
1, 4920, Note_on_c, 1, 57, 64
1, 4980, Note_on_c, 0, 76, 0
1, 4980, Note_on_c, 0, 72, 0
1, 4980, Note_on_c, 0, 69, 80
1, 4980, Note_on_c, 0, 72, 80
1, 5040, Note_on_c, 0, 72, 0
1, 5040, Note_on_c, 0, 69, 0
1, 5040, Note_on_c, 0, 72, 80
1, 5040, Note_on_c, 0, 76, 80
1, 5040, Note_on_c, 1, 57, 0
1, 5040, Note_on_c, 1, 52, 64
1, 5076, Note_on_c, 1, 52, 0
1, 5160, Note_on_c, 1, 48, 80
1, 5196, Note_on_c, 1, 48, 0
1, 5280, Note_on_c, 0, 76, 0
1, 5280, Note_on_c, 0, 72, 0
1, 5280, Note_on_c, 1, 45, 88
1, 5400, Note_on_c, 0, 69, 64
1, 5400, Note_on_c, 0, 72, 64
1, 5436, Note_on_c, 0, 72, 0
1, 5436, Note_on_c, 0, 69, 0
1, 5448, Note_on_c, 1, 45, 0
1, 5520, Note_on_c, 0, 71, 64
1, 5520, Note_on_c, 0, 74, 64
1, 5556, Note_on_c, 0, 74, 0
1, 5556, Note_on_c, 0, 71, 0
1, 5640, Note_on_c, 0, 72, 64
1, 5640, Note_on_c, 0, 76, 64
1, 5676, Note_on_c, 0, 76, 0
1, 5676, Note_on_c, 0, 72, 0
1, 5760, Note_on_c, 0, 73, 72
1, 5760, Note_on_c, 0, 76, 72
1, 6000, Note_on_c, 0, 76, 0
1, 6000, Note_on_c, 0, 73, 0
1, 6000, Note_on_c, 0, 74, 64
1, 6000, Note_on_c, 0, 77, 64
1, 6000, Note_on_c, 1, 62, 48
1, 6000, Note_on_c, 1, 60, 48
1, 6000, Note_on_c, 1, 57, 48
1, 6000, Note_on_c, 1, 53, 48
1, 6225, Note_on_c, 0, 77, 0
1, 6225, Note_on_c, 0, 74, 0
1, 6240, Note_on_c, 1, 53, 0
1, 6240, Note_on_c, 1, 62, 0
1, 6240, Note_on_c, 1, 60, 0
1, 6240, Note_on_c, 1, 57, 0
1, 6240, Note_on_c, 1, 55, 48
1, 6240, Note_on_c, 1, 59, 48
1, 6240, Note_on_c, 1, 62, 48
1, 6360, Note_on_c, 0, 67, 56
1, 6360, Note_on_c, 0, 71, 56
1, 6360, Note_on_c, 1, 62, 0
1, 6360, Note_on_c, 1, 59, 0
1, 6360, Note_on_c, 1, 55, 0
1, 6480, Note_on_c, 0, 71, 0
1, 6480, Note_on_c, 0, 67, 0
1, 6480, Note_on_c, 0, 69, 56
1, 6480, Note_on_c, 0, 72, 56
1, 6516, Note_on_c, 0, 72, 0
1, 6516, Note_on_c, 0, 69, 0
1, 6600, Note_on_c, 0, 71, 56
1, 6600, Note_on_c, 0, 74, 56
1, 6636, Note_on_c, 0, 74, 0
1, 6636, Note_on_c, 0, 71, 0
1, 6720, Note_on_c, 0, 71, 64
1, 6720, Note_on_c, 0, 75, 64
1, 6960, Note_on_c, 0, 75, 0
1, 6960, Note_on_c, 0, 71, 0
1, 6960, Note_on_c, 0, 72, 56
1, 6960, Note_on_c, 0, 76, 56
1, 6960, Note_on_c, 1, 60, 40
1, 6960, Note_on_c, 1, 59, 40
1, 6960, Note_on_c, 1, 55, 40
1, 6960, Note_on_c, 1, 52, 40
1, 7185, Note_on_c, 0, 76, 0
1, 7185, Note_on_c, 0, 72, 0
1, 7200, Note_on_c, 1, 52, 0
1, 7200, Note_on_c, 1, 60, 0
1, 7200, Note_on_c, 1, 59, 0
1, 7200, Note_on_c, 1, 55, 0
1, 7200, Note_on_c, 1, 57, 40
1, 7200, Note_on_c, 1, 53, 40
1, 7200, Note_on_c, 1, 60, 40
1, 7320, Note_on_c, 0, 65, 48
1, 7320, Note_on_c, 0, 69, 48
1, 7320, Note_on_c, 1, 60, 0
1, 7320, Note_on_c, 1, 53, 0
1, 7320, Note_on_c, 1, 57, 0
1, 7440, Note_on_c, 0, 69, 0
1, 7440, Note_on_c, 0, 65, 0
1, 7440, Note_on_c, 0, 68, 48
1, 7440, Note_on_c, 0, 71, 48
1, 7560, Note_on_c, 0, 71, 0
1, 7560, Note_on_c, 0, 68, 0
1, 7560, Note_on_c, 0, 69, 48
1, 7560, Note_on_c, 0, 72, 48
1, 7596, Note_on_c, 0, 72, 0
1, 7596, Note_on_c, 0, 69, 0
1, 7680, Note_on_c, 0, 72, 56
1, 7860, Note_on_c, 0, 72, 0
1, 7860, Note_on_c, 0, 71, 48
1, 7920, Note_on_c, 0, 71, 0
1, 7920, Note_on_c, 0, 77, 48
1, 7920, Note_on_c, 1, 59, 32
1, 7920, Note_on_c, 1, 53, 32
1, 7920, Note_on_c, 1, 50, 32
1, 8100, Note_on_c, 0, 77, 0
1, 8100, Note_on_c, 0, 74, 48
1, 8160, Note_on_c, 0, 74, 0
1, 8160, Note_on_c, 0, 72, 48
1, 8160, Note_on_c, 1, 50, 0
1, 8160, Note_on_c, 1, 53, 0
1, 8160, Note_on_c, 1, 59, 0
1, 8160, Note_on_c, 1, 60, 32
1, 8160, Note_on_c, 1, 57, 32
1, 8160, Note_on_c, 1, 52, 32
1, 8340, Note_on_c, 0, 72, 0
1, 8340, Note_on_c, 0, 76, 48
1, 8400, Note_on_c, 0, 76, 0
1, 8400, Note_on_c, 0, 74, 48
1, 8400, Note_on_c, 1, 52, 0
1, 8400, Note_on_c, 1, 57, 0
1, 8400, Note_on_c, 1, 60, 0
1, 8400, Note_on_c, 1, 64, 32
1, 8400, Note_on_c, 1, 56, 32
1, 8400, Note_on_c, 1, 52, 32
1, 8580, Note_on_c, 0, 74, 0
1, 8580, Note_on_c, 0, 71, 48
1, 8640, Note_on_c, 0, 71, 0
1, 8640, Note_on_c, 0, 75, 88
1, 8640, Note_on_c, 1, 52, 0
1, 8640, Note_on_c, 1, 56, 0
1, 8640, Note_on_c, 1, 64, 0
1, 8640, Note_on_c, 1, 64, 48
1, 8640, Note_on_c, 1, 60, 48
1, 8640, Note_on_c, 1, 57, 48
1, 8700, Note_on_c, 0, 75, 0
1, 8700, Note_on_c, 0, 76, 80
1, 8700, Note_on_c, 1, 57, 0
1, 8700, Note_on_c, 1, 60, 0
1, 8700, Note_on_c, 1, 64, 0
1, 8760, Note_on_c, 1, 64, 48
1, 8760, Note_on_c, 1, 60, 48
1, 8760, Note_on_c, 1, 57, 48
1, 8808, Note_on_c, 0, 76, 0
1, 8880, Note_on_c, 0, 76, 80
1, 8880, Note_on_c, 1, 57, 0
1, 8880, Note_on_c, 1, 60, 0
1, 8880, Note_on_c, 1, 64, 0
1, 8880, Note_on_c, 1, 64, 48
1, 8880, Note_on_c, 1, 60, 48
1, 8880, Note_on_c, 1, 57, 48
1, 9000, Note_on_c, 1, 57, 0
1, 9000, Note_on_c, 1, 60, 0
1, 9000, Note_on_c, 1, 64, 0
1, 9000, Note_on_c, 1, 64, 48
1, 9000, Note_on_c, 1, 60, 48
1, 9000, Note_on_c, 1, 57, 48
1, 9060, Note_on_c, 0, 76, 0
1, 9060, Note_on_c, 0, 76, 80
1, 9060, Note_on_c, 1, 57, 0
1, 9060, Note_on_c, 1, 60, 0
1, 9060, Note_on_c, 1, 64, 0
1, 9090, Note_on_c, 0, 76, 0
1, 9120, Note_on_c, 0, 76, 80
1, 9120, Note_on_c, 1, 64, 48
1, 9120, Note_on_c, 1, 60, 48
1, 9120, Note_on_c, 1, 57, 48
1, 9180, Note_on_c, 1, 57, 0
1, 9180, Note_on_c, 1, 60, 0
1, 9180, Note_on_c, 1, 64, 0
1, 9240, Note_on_c, 0, 76, 0
1, 9240, Note_on_c, 0, 77, 80
1, 9240, Note_on_c, 1, 64, 48
1, 9240, Note_on_c, 1, 60, 48
1, 9240, Note_on_c, 1, 57, 48
1, 9300, Note_on_c, 0, 77, 0
1, 9300, Note_on_c, 0, 76, 80
1, 9300, Note_on_c, 1, 57, 0
1, 9300, Note_on_c, 1, 60, 0
1, 9300, Note_on_c, 1, 64, 0
1, 9360, Note_on_c, 0, 76, 0
1, 9360, Note_on_c, 0, 74, 80
1, 9360, Note_on_c, 1, 64, 48
1, 9360, Note_on_c, 1, 60, 48
1, 9360, Note_on_c, 1, 57, 48
1, 9420, Note_on_c, 0, 74, 0
1, 9420, Note_on_c, 0, 72, 80
1, 9420, Note_on_c, 1, 57, 0
1, 9420, Note_on_c, 1, 60, 0
1, 9420, Note_on_c, 1, 64, 0
1, 9480, Note_on_c, 0, 72, 0
1, 9480, Note_on_c, 0, 71, 80
1, 9480, Note_on_c, 1, 64, 48
1, 9480, Note_on_c, 1, 60, 48
1, 9480, Note_on_c, 1, 57, 48
1, 9540, Note_on_c, 0, 71, 0
1, 9540, Note_on_c, 0, 69, 80
1, 9540, Note_on_c, 1, 57, 0
1, 9540, Note_on_c, 1, 60, 0
1, 9540, Note_on_c, 1, 64, 0
1, 9600, Note_on_c, 0, 69, 0
1, 9600, Note_on_c, 0, 69, 88
1, 9600, Note_on_c, 1, 64, 48
1, 9600, Note_on_c, 1, 62, 48
1, 9600, Note_on_c, 1, 57, 48
1, 9600, Note_on_c, 1, 59, 48
1, 9660, Note_on_c, 1, 59, 0
1, 9660, Note_on_c, 1, 64, 0
1, 9660, Note_on_c, 1, 62, 0
1, 9660, Note_on_c, 1, 57, 0
1, 9720, Note_on_c, 0, 69, 0
1, 9720, Note_on_c, 0, 68, 80
1, 9720, Note_on_c, 1, 64, 48
1, 9720, Note_on_c, 1, 62, 48
1, 9720, Note_on_c, 1, 59, 48
1, 9720, Note_on_c, 1, 57, 48
1, 9780, Note_on_c, 1, 57, 0
1, 9780, Note_on_c, 1, 64, 0
1, 9780, Note_on_c, 1, 62, 0
1, 9780, Note_on_c, 1, 59, 0
1, 9840, Note_on_c, 0, 68, 0
1, 9840, Note_on_c, 0, 68, 80
1, 9840, Note_on_c, 1, 64, 48
1, 9840, Note_on_c, 1, 62, 48
1, 9840, Note_on_c, 1, 59, 48
1, 9840, Note_on_c, 1, 57, 48
1, 9900, Note_on_c, 1, 57, 0
1, 9900, Note_on_c, 1, 64, 0
1, 9900, Note_on_c, 1, 62, 0
1, 9900, Note_on_c, 1, 59, 0
1, 9960, Note_on_c, 1, 64, 48
1, 9960, Note_on_c, 1, 62, 48
1, 9960, Note_on_c, 1, 59, 48
1, 9960, Note_on_c, 1, 57, 48
1, 10020, Note_on_c, 1, 57, 0
1, 10020, Note_on_c, 1, 64, 0
1, 10020, Note_on_c, 1, 62, 0
1, 10020, Note_on_c, 1, 59, 0
1, 10080, Note_on_c, 1, 64, 48
1, 10080, Note_on_c, 1, 62, 48
1, 10080, Note_on_c, 1, 59, 48
1, 10080, Note_on_c, 1, 57, 48
1, 10140, Note_on_c, 1, 57, 0
1, 10140, Note_on_c, 1, 64, 0
1, 10140, Note_on_c, 1, 62, 0
1, 10140, Note_on_c, 1, 59, 0
1, 10200, Note_on_c, 1, 64, 48
1, 10200, Note_on_c, 1, 62, 48
1, 10200, Note_on_c, 1, 59, 48
1, 10200, Note_on_c, 1, 57, 48
1, 10260, Note_on_c, 0, 68, 0
1, 10260, Note_on_c, 0, 68, 80
1, 10260, Note_on_c, 1, 57, 0
1, 10260, Note_on_c, 1, 64, 0
1, 10260, Note_on_c, 1, 62, 0
1, 10260, Note_on_c, 1, 59, 0
1, 10320, Note_on_c, 0, 68, 0
1, 10320, Note_on_c, 0, 74, 80
1, 10320, Note_on_c, 1, 64, 48
1, 10320, Note_on_c, 1, 62, 48
1, 10320, Note_on_c, 1, 59, 48
1, 10320, Note_on_c, 1, 57, 48
1, 10380, Note_on_c, 1, 57, 0
1, 10380, Note_on_c, 1, 64, 0
1, 10380, Note_on_c, 1, 62, 0
1, 10380, Note_on_c, 1, 59, 0
1, 10440, Note_on_c, 1, 64, 48
1, 10440, Note_on_c, 1, 62, 48
1, 10440, Note_on_c, 1, 59, 48
1, 10440, Note_on_c, 1, 57, 48
1, 10500, Note_on_c, 0, 74, 0
1, 10500, Note_on_c, 0, 71, 80
1, 10500, Note_on_c, 1, 57, 0
1, 10500, Note_on_c, 1, 64, 0
1, 10500, Note_on_c, 1, 62, 0
1, 10500, Note_on_c, 1, 59, 0
1, 10560, Note_on_c, 0, 71, 0
1, 10560, Note_on_c, 0, 76, 88
1, 10560, Note_on_c, 1, 57, 48
1, 10560, Note_on_c, 1, 60, 48
1, 10560, Note_on_c, 1, 64, 48
1, 10620, Note_on_c, 1, 64, 0
1, 10620, Note_on_c, 1, 60, 0
1, 10620, Note_on_c, 1, 57, 0
1, 10680, Note_on_c, 1, 57, 48
1, 10680, Note_on_c, 1, 60, 48
1, 10680, Note_on_c, 1, 64, 48
1, 10800, Note_on_c, 0, 76, 0
1, 10800, Note_on_c, 0, 76, 80
1, 10800, Note_on_c, 1, 64, 0
1, 10800, Note_on_c, 1, 60, 0
1, 10800, Note_on_c, 1, 57, 0
1, 10800, Note_on_c, 1, 57, 48
1, 10800, Note_on_c, 1, 60, 48
1, 10800, Note_on_c, 1, 64, 48
1, 10920, Note_on_c, 1, 64, 0
1, 10920, Note_on_c, 1, 60, 0
1, 10920, Note_on_c, 1, 57, 0
1, 10920, Note_on_c, 1, 57, 48
1, 10920, Note_on_c, 1, 60, 48
1, 10920, Note_on_c, 1, 64, 48
1, 10980, Note_on_c, 0, 76, 0
1, 10980, Note_on_c, 0, 76, 80
1, 10980, Note_on_c, 1, 64, 0
1, 10980, Note_on_c, 1, 60, 0
1, 10980, Note_on_c, 1, 57, 0
1, 11040, Note_on_c, 0, 76, 0
1, 11040, Note_on_c, 0, 75, 80
1, 11040, Note_on_c, 1, 57, 48
1, 11040, Note_on_c, 1, 60, 48
1, 11040, Note_on_c, 1, 64, 48
1, 11100, Note_on_c, 0, 75, 0
1, 11100, Note_on_c, 0, 76, 80
1, 11100, Note_on_c, 1, 64, 0
1, 11100, Note_on_c, 1, 60, 0
1, 11100, Note_on_c, 1, 57, 0
1, 11160, Note_on_c, 0, 76, 0
1, 11160, Note_on_c, 0, 77, 80
1, 11160, Note_on_c, 1, 57, 48
1, 11160, Note_on_c, 1, 60, 48
1, 11160, Note_on_c, 1, 64, 48
1, 11220, Note_on_c, 0, 77, 0
1, 11220, Note_on_c, 0, 76, 80
1, 11220, Note_on_c, 1, 64, 0
1, 11220, Note_on_c, 1, 60, 0
1, 11220, Note_on_c, 1, 57, 0
1, 11280, Note_on_c, 0, 76, 0
1, 11280, Note_on_c, 0, 74, 80
1, 11280, Note_on_c, 1, 57, 48
1, 11280, Note_on_c, 1, 60, 48
1, 11280, Note_on_c, 1, 64, 48
1, 11340, Note_on_c, 0, 74, 0
1, 11340, Note_on_c, 0, 72, 80
1, 11340, Note_on_c, 1, 64, 0
1, 11340, Note_on_c, 1, 60, 0
1, 11340, Note_on_c, 1, 57, 0
1, 11400, Note_on_c, 0, 72, 0
1, 11400, Note_on_c, 0, 71, 80
1, 11400, Note_on_c, 1, 57, 48
1, 11400, Note_on_c, 1, 60, 48
1, 11400, Note_on_c, 1, 64, 48
1, 11460, Note_on_c, 0, 71, 0
1, 11460, Note_on_c, 0, 69, 80
1, 11460, Note_on_c, 1, 64, 0
1, 11460, Note_on_c, 1, 60, 0
1, 11460, Note_on_c, 1, 57, 0
1, 11520, Note_on_c, 0, 69, 0
1, 11520, Note_on_c, 0, 72, 80
1, 11520, Note_on_c, 1, 55, 48
1, 11520, Note_on_c, 1, 58, 48
1, 11520, Note_on_c, 1, 60, 48
1, 11520, Note_on_c, 1, 64, 48
1, 11580, Note_on_c, 1, 64, 0
1, 11580, Note_on_c, 1, 55, 0
1, 11580, Note_on_c, 1, 58, 0
1, 11580, Note_on_c, 1, 60, 0
1, 11640, Note_on_c, 0, 72, 0
1, 11640, Note_on_c, 0, 70, 80
1, 11640, Note_on_c, 1, 55, 48
1, 11640, Note_on_c, 1, 58, 48
1, 11640, Note_on_c, 1, 60, 48
1, 11640, Note_on_c, 1, 64, 48
1, 11700, Note_on_c, 0, 70, 0
1, 11760, Note_on_c, 0, 70, 80
1, 11760, Note_on_c, 1, 64, 0
1, 11760, Note_on_c, 1, 55, 0
1, 11760, Note_on_c, 1, 58, 0
1, 11760, Note_on_c, 1, 60, 0
1, 11760, Note_on_c, 1, 55, 48
1, 11760, Note_on_c, 1, 58, 48
1, 11760, Note_on_c, 1, 60, 48
1, 11760, Note_on_c, 1, 64, 48
1, 11880, Note_on_c, 1, 64, 0
1, 11880, Note_on_c, 1, 55, 0
1, 11880, Note_on_c, 1, 58, 0
1, 11880, Note_on_c, 1, 60, 0
1, 11880, Note_on_c, 1, 55, 48
1, 11880, Note_on_c, 1, 58, 48
1, 11880, Note_on_c, 1, 60, 48
1, 11880, Note_on_c, 1, 64, 48
1, 11940, Note_on_c, 1, 64, 0
1, 11940, Note_on_c, 1, 55, 0
1, 11940, Note_on_c, 1, 58, 0
1, 11940, Note_on_c, 1, 60, 0
1, 12000, Note_on_c, 1, 55, 48
1, 12000, Note_on_c, 1, 58, 48
1, 12000, Note_on_c, 1, 60, 48
1, 12000, Note_on_c, 1, 64, 48
1, 12060, Note_on_c, 1, 64, 0
1, 12060, Note_on_c, 1, 55, 0
1, 12060, Note_on_c, 1, 58, 0
1, 12060, Note_on_c, 1, 60, 0
1, 12120, Note_on_c, 1, 55, 48
1, 12120, Note_on_c, 1, 58, 48
1, 12120, Note_on_c, 1, 60, 48
1, 12120, Note_on_c, 1, 64, 48
1, 12180, Note_on_c, 0, 70, 0
1, 12180, Note_on_c, 0, 76, 80
1, 12240, Note_on_c, 0, 76, 0
1, 12240, Note_on_c, 0, 79, 80
1, 12240, Note_on_c, 1, 64, 0
1, 12240, Note_on_c, 1, 55, 0
1, 12240, Note_on_c, 1, 58, 0
1, 12240, Note_on_c, 1, 60, 0
1, 12240, Note_on_c, 1, 55, 48
1, 12240, Note_on_c, 1, 58, 48
1, 12240, Note_on_c, 1, 60, 48
1, 12240, Note_on_c, 1, 64, 48
1, 12360, Note_on_c, 1, 64, 0
1, 12360, Note_on_c, 1, 55, 0
1, 12360, Note_on_c, 1, 58, 0
1, 12360, Note_on_c, 1, 60, 0
1, 12360, Note_on_c, 1, 55, 48
1, 12360, Note_on_c, 1, 58, 48
1, 12360, Note_on_c, 1, 60, 48
1, 12360, Note_on_c, 1, 64, 48
1, 12420, Note_on_c, 0, 79, 0
1, 12420, Note_on_c, 0, 82, 80
1, 12420, Note_on_c, 1, 64, 0
1, 12420, Note_on_c, 1, 55, 0
1, 12420, Note_on_c, 1, 58, 0
1, 12420, Note_on_c, 1, 60, 0
1, 12480, Note_on_c, 0, 82, 0
1, 12480, Note_on_c, 0, 82, 88
1, 12480, Note_on_c, 1, 53, 48
1, 12480, Note_on_c, 1, 60, 48
1, 12480, Note_on_c, 1, 65, 48
1, 12540, Note_on_c, 1, 65, 0
1, 12540, Note_on_c, 1, 60, 0
1, 12540, Note_on_c, 1, 53, 0
1, 12600, Note_on_c, 0, 82, 0
1, 12600, Note_on_c, 0, 81, 80
1, 12600, Note_on_c, 1, 53, 48
1, 12600, Note_on_c, 1, 60, 48
1, 12600, Note_on_c, 1, 65, 48
1, 12636, Note_on_c, 0, 81, 0
1, 12636, Note_on_c, 1, 65, 0
1, 12636, Note_on_c, 1, 60, 0
1, 12636, Note_on_c, 1, 53, 0
1, 12720, Note_on_c, 0, 77, 80
1, 12720, Note_on_c, 1, 53, 48
1, 12720, Note_on_c, 1, 57, 48
1, 12720, Note_on_c, 1, 62, 48
1, 12756, Note_on_c, 0, 77, 0
1, 12756, Note_on_c, 1, 62, 0
1, 12756, Note_on_c, 1, 57, 0
1, 12756, Note_on_c, 1, 53, 0
1, 12840, Note_on_c, 0, 74, 80
1, 12840, Note_on_c, 1, 53, 48
1, 12840, Note_on_c, 1, 57, 48
1, 12840, Note_on_c, 1, 62, 48
1, 12876, Note_on_c, 0, 74, 0
1, 12876, Note_on_c, 1, 62, 0
1, 12876, Note_on_c, 1, 57, 0
1, 12876, Note_on_c, 1, 53, 0
1, 12960, Note_on_c, 0, 74, 80
1, 12960, Note_on_c, 1, 52, 48
1, 12960, Note_on_c, 1, 55, 48
1, 12960, Note_on_c, 1, 57, 48
1, 13020, Note_on_c, 1, 57, 0
1, 13020, Note_on_c, 1, 55, 0
1, 13020, Note_on_c, 1, 52, 0
1, 13080, Note_on_c, 0, 74, 0
1, 13080, Note_on_c, 0, 73, 80
1, 13080, Note_on_c, 1, 52, 48
1, 13080, Note_on_c, 1, 55, 48
1, 13080, Note_on_c, 1, 57, 48
1, 13140, Note_on_c, 1, 57, 0
1, 13140, Note_on_c, 1, 55, 0
1, 13140, Note_on_c, 1, 52, 0
1, 13200, Note_on_c, 0, 73, 0
1, 13200, Note_on_c, 0, 76, 80
1, 13200, Note_on_c, 1, 52, 48
1, 13200, Note_on_c, 1, 57, 48
1, 13200, Note_on_c, 1, 61, 48
1, 13236, Note_on_c, 0, 76, 0
1, 13236, Note_on_c, 1, 61, 0
1, 13236, Note_on_c, 1, 57, 0
1, 13236, Note_on_c, 1, 52, 0
1, 13320, Note_on_c, 0, 79, 80
1, 13320, Note_on_c, 1, 52, 48
1, 13320, Note_on_c, 1, 57, 48
1, 13320, Note_on_c, 1, 61, 48
1, 13356, Note_on_c, 0, 79, 0
1, 13356, Note_on_c, 1, 61, 0
1, 13356, Note_on_c, 1, 57, 0
1, 13356, Note_on_c, 1, 52, 0
1, 13440, Note_on_c, 0, 79, 80
1, 13440, Note_on_c, 1, 50, 48
1, 13440, Note_on_c, 1, 57, 48
1, 13440, Note_on_c, 1, 62, 48
1, 13560, Note_on_c, 0, 79, 0
1, 13560, Note_on_c, 0, 78, 80
1, 13620, Note_on_c, 0, 78, 0
1, 13680, Note_on_c, 1, 62, 0
1, 13680, Note_on_c, 1, 57, 0
1, 13680, Note_on_c, 1, 50, 0
1, 13680, Note_on_c, 1, 47, 48
1, 13680, Note_on_c, 1, 50, 48
1, 13680, Note_on_c, 1, 55, 48
1, 13800, Note_on_c, 0, 77, 80
1, 13800, Note_on_c, 1, 55, 0
1, 13800, Note_on_c, 1, 50, 0
1, 13800, Note_on_c, 1, 47, 0
1, 13860, Note_on_c, 0, 77, 0
1, 13920, Note_on_c, 1, 48, 48
1, 13920, Note_on_c, 1, 55, 48
1, 14040, Note_on_c, 0, 75, 80
1, 14100, Note_on_c, 0, 75, 0
1, 14160, Note_on_c, 1, 55, 0
1, 14160, Note_on_c, 1, 48, 0
1, 14160, Note_on_c, 1, 57, 48
1, 14160, Note_on_c, 1, 60, 48
1, 14280, Note_on_c, 0, 76, 80
1, 14364, Note_on_c, 0, 76, 0
1, 14400, Note_on_c, 0, 76, 72
1, 14400, Note_on_c, 1, 60, 0
1, 14400, Note_on_c, 1, 57, 0
1, 14400, Note_on_c, 1, 53, 32
1, 14520, Note_on_c, 0, 76, 0
1, 14520, Note_on_c, 0, 74, 40
1, 14520, Note_on_c, 1, 57, 34
1, 14580, Note_on_c, 0, 74, 0
1, 14580, Note_on_c, 1, 57, 0
1, 14580, Note_on_c, 1, 53, 0
1, 14640, Note_on_c, 0, 74, 40
1, 14640, Note_on_c, 1, 53, 36
1, 14760, Note_on_c, 1, 57, 38
1, 14820, Note_on_c, 1, 57, 0
1, 14820, Note_on_c, 1, 53, 0
1, 14880, Note_on_c, 1, 53, 40
1, 15000, Note_on_c, 0, 74, 0
1, 15000, Note_on_c, 0, 76, 68
1, 15000, Note_on_c, 1, 57, 42
1, 15030, Note_on_c, 0, 76, 0
1, 15060, Note_on_c, 0, 74, 70
1, 15090, Note_on_c, 0, 74, 0
1, 15120, Note_on_c, 0, 74, 72
1, 15120, Note_on_c, 1, 57, 0
1, 15120, Note_on_c, 1, 53, 0
1, 15120, Note_on_c, 1, 54, 44
1, 15180, Note_on_c, 0, 74, 0
1, 15180, Note_on_c, 0, 72, 74
1, 15240, Note_on_c, 0, 72, 0
1, 15240, Note_on_c, 0, 71, 76
1, 15240, Note_on_c, 1, 57, 46
1, 15300, Note_on_c, 0, 71, 0
1, 15300, Note_on_c, 0, 72, 78
1, 15360, Note_on_c, 0, 72, 0
1, 15360, Note_on_c, 0, 71, 80
1, 15360, Note_on_c, 1, 57, 0
1, 15360, Note_on_c, 1, 54, 0
1, 15360, Note_on_c, 1, 55, 64
1, 15420, Note_on_c, 1, 55, 0
1, 15420, Note_on_c, 1, 62, 64
1, 15480, Note_on_c, 1, 62, 0
1, 15480, Note_on_c, 1, 59, 64
1, 15540, Note_on_c, 1, 59, 0
1, 15540, Note_on_c, 1, 62, 64
1, 15600, Note_on_c, 0, 71, 0
1, 15600, Note_on_c, 0, 79, 80
1, 15600, Note_on_c, 1, 62, 0
1, 15600, Note_on_c, 1, 55, 64
1, 15660, Note_on_c, 1, 55, 0
1, 15660, Note_on_c, 1, 62, 64
1, 15720, Note_on_c, 1, 62, 0
1, 15720, Note_on_c, 1, 59, 64
1, 15780, Note_on_c, 0, 79, 0
1, 15780, Note_on_c, 0, 79, 80
1, 15780, Note_on_c, 1, 59, 0
1, 15780, Note_on_c, 1, 62, 64
1, 15840, Note_on_c, 0, 79, 0
1, 15840, Note_on_c, 0, 79, 80
1, 15840, Note_on_c, 1, 62, 0
1, 15840, Note_on_c, 1, 55, 64
1, 15900, Note_on_c, 1, 55, 0
1, 15900, Note_on_c, 1, 63, 64
1, 15960, Note_on_c, 1, 63, 0
1, 15960, Note_on_c, 1, 60, 64
1, 16020, Note_on_c, 1, 60, 0
1, 16020, Note_on_c, 1, 63, 64
1, 16080, Note_on_c, 0, 79, 0
1, 16080, Note_on_c, 0, 79, 80
1, 16080, Note_on_c, 1, 63, 0
1, 16080, Note_on_c, 1, 55, 64
1, 16140, Note_on_c, 1, 55, 0
1, 16140, Note_on_c, 1, 65, 64
1, 16200, Note_on_c, 1, 65, 0
1, 16200, Note_on_c, 1, 62, 64
1, 16260, Note_on_c, 1, 62, 0
1, 16260, Note_on_c, 1, 65, 64
1, 16320, Note_on_c, 0, 79, 0
1, 16320, Note_on_c, 0, 72, 88
1, 16320, Note_on_c, 0, 84, 88
1, 16320, Note_on_c, 1, 65, 0
1, 16320, Note_on_c, 1, 55, 64
1, 16380, Note_on_c, 1, 55, 0
1, 16380, Note_on_c, 1, 63, 64
1, 16440, Note_on_c, 1, 63, 0
1, 16440, Note_on_c, 1, 60, 64
1, 16500, Note_on_c, 1, 60, 0
1, 16500, Note_on_c, 1, 63, 64
1, 16560, Note_on_c, 1, 63, 0
1, 16560, Note_on_c, 1, 55, 64
1, 16620, Note_on_c, 1, 55, 0
1, 16620, Note_on_c, 1, 63, 64
1, 16680, Note_on_c, 0, 84, 0
1, 16680, Note_on_c, 0, 82, 80
1, 16680, Note_on_c, 1, 63, 0
1, 16680, Note_on_c, 1, 60, 64
1, 16740, Note_on_c, 0, 82, 0
1, 16740, Note_on_c, 0, 80, 80
1, 16740, Note_on_c, 1, 60, 0
1, 16740, Note_on_c, 1, 63, 64
1, 16800, Note_on_c, 0, 80, 0
1, 16800, Note_on_c, 0, 79, 80
1, 16800, Note_on_c, 1, 63, 0
1, 16800, Note_on_c, 1, 55, 64
1, 16860, Note_on_c, 1, 55, 0
1, 16860, Note_on_c, 1, 63, 64
1, 16920, Note_on_c, 1, 63, 0
1, 16920, Note_on_c, 1, 60, 64
1, 16980, Note_on_c, 1, 60, 0
1, 16980, Note_on_c, 1, 63, 64
1, 17040, Note_on_c, 0, 79, 0
1, 17040, Note_on_c, 0, 78, 80
1, 17040, Note_on_c, 1, 63, 0
1, 17040, Note_on_c, 1, 55, 64
1, 17100, Note_on_c, 1, 55, 0
1, 17100, Note_on_c, 1, 63, 64
1, 17160, Note_on_c, 1, 63, 0
1, 17160, Note_on_c, 1, 60, 64
1, 17220, Note_on_c, 1, 60, 0
1, 17220, Note_on_c, 1, 63, 64
1, 17280, Note_on_c, 0, 78, 0
1, 17280, Note_on_c, 0, 72, 0
1, 17280, Note_on_c, 0, 79, 48
1, 17280, Note_on_c, 0, 71, 48
1, 17280, Note_on_c, 1, 63, 0
1, 17280, Note_on_c, 1, 55, 32
1, 17340, Note_on_c, 1, 55, 0
1, 17340, Note_on_c, 1, 62, 32
1, 17400, Note_on_c, 1, 62, 0
1, 17400, Note_on_c, 1, 59, 32
1, 17460, Note_on_c, 1, 59, 0
1, 17460, Note_on_c, 1, 62, 32
1, 17520, Note_on_c, 0, 71, 0
1, 17520, Note_on_c, 0, 79, 0
1, 17520, Note_on_c, 0, 79, 48
1, 17520, Note_on_c, 1, 62, 0
1, 17520, Note_on_c, 1, 55, 32
1, 17580, Note_on_c, 1, 55, 0
1, 17580, Note_on_c, 1, 62, 32
1, 17640, Note_on_c, 1, 62, 0
1, 17640, Note_on_c, 1, 59, 32
1, 17700, Note_on_c, 0, 79, 0
1, 17700, Note_on_c, 0, 79, 48
1, 17700, Note_on_c, 1, 59, 0
1, 17700, Note_on_c, 1, 62, 32
1, 17760, Note_on_c, 0, 79, 0
1, 17760, Note_on_c, 0, 79, 48
1, 17760, Note_on_c, 1, 62, 0
1, 17760, Note_on_c, 1, 55, 32
1, 17820, Note_on_c, 1, 55, 0
1, 17820, Note_on_c, 1, 63, 32
1, 17880, Note_on_c, 1, 63, 0
1, 17880, Note_on_c, 1, 60, 32
1, 17940, Note_on_c, 1, 60, 0
1, 17940, Note_on_c, 1, 63, 32
1, 18000, Note_on_c, 0, 79, 0
1, 18000, Note_on_c, 0, 79, 48
1, 18000, Note_on_c, 1, 63, 0
1, 18000, Note_on_c, 1, 55, 32
1, 18060, Note_on_c, 1, 55, 0
1, 18060, Note_on_c, 1, 65, 32
1, 18120, Note_on_c, 1, 65, 0
1, 18120, Note_on_c, 1, 62, 32
1, 18180, Note_on_c, 0, 72, 40
1, 18180, Note_on_c, 1, 62, 0
1, 18180, Note_on_c, 1, 65, 32
1, 18240, Note_on_c, 0, 79, 0
1, 18240, Note_on_c, 0, 84, 56
1, 18240, Note_on_c, 1, 65, 0
1, 18240, Note_on_c, 1, 55, 32
1, 18300, Note_on_c, 1, 55, 0
1, 18300, Note_on_c, 1, 63, 32
1, 18360, Note_on_c, 1, 63, 0
1, 18360, Note_on_c, 1, 60, 32
1, 18420, Note_on_c, 1, 60, 0
1, 18420, Note_on_c, 1, 63, 32
1, 18480, Note_on_c, 1, 63, 0
1, 18480, Note_on_c, 1, 55, 32
1, 18540, Note_on_c, 1, 55, 0
1, 18540, Note_on_c, 1, 63, 32
1, 18600, Note_on_c, 0, 84, 0
1, 18600, Note_on_c, 0, 82, 48
1, 18600, Note_on_c, 1, 63, 0
1, 18600, Note_on_c, 1, 60, 32
1, 18660, Note_on_c, 0, 82, 0
1, 18660, Note_on_c, 0, 80, 48
1, 18660, Note_on_c, 1, 60, 0
1, 18660, Note_on_c, 1, 63, 32
1, 18720, Note_on_c, 0, 80, 0
1, 18720, Note_on_c, 0, 79, 48
1, 18720, Note_on_c, 1, 63, 0
1, 18720, Note_on_c, 1, 55, 32
1, 18780, Note_on_c, 1, 55, 0
1, 18780, Note_on_c, 1, 63, 32
1, 18840, Note_on_c, 1, 63, 0
1, 18840, Note_on_c, 1, 60, 32
1, 18900, Note_on_c, 1, 60, 0
1, 18900, Note_on_c, 1, 63, 32
1, 18960, Note_on_c, 0, 79, 0
1, 18960, Note_on_c, 0, 78, 48
1, 18960, Note_on_c, 1, 63, 0
1, 18960, Note_on_c, 1, 55, 32
1, 19020, Note_on_c, 1, 55, 0
1, 19020, Note_on_c, 1, 63, 32
1, 19080, Note_on_c, 1, 63, 0
1, 19080, Note_on_c, 1, 60, 32
1, 19140, Note_on_c, 1, 60, 0
1, 19140, Note_on_c, 1, 63, 32
1, 19200, Note_on_c, 0, 78, 0
1, 19200, Note_on_c, 0, 72, 0
1, 19200, Note_on_c, 0, 79, 80
1, 19200, Note_on_c, 1, 63, 0
1, 19200, Note_on_c, 1, 62, 80
1, 19200, Note_on_c, 1, 59, 80
1, 19200, Note_on_c, 1, 55, 80
1, 19260, Note_on_c, 0, 79, 0
1, 19260, Note_on_c, 0, 74, 80
1, 19290, Note_on_c, 0, 74, 0
1, 19320, Note_on_c, 0, 71, 80
1, 19320, Note_on_c, 1, 55, 0
1, 19320, Note_on_c, 1, 59, 0
1, 19320, Note_on_c, 1, 62, 0
1, 19350, Note_on_c, 0, 71, 0
1, 19380, Note_on_c, 0, 74, 80
1, 19410, Note_on_c, 0, 74, 0
1, 19440, Note_on_c, 0, 79, 80
1, 19500, Note_on_c, 0, 79, 0
1, 19500, Note_on_c, 0, 75, 80
1, 19530, Note_on_c, 0, 75, 0
1, 19560, Note_on_c, 0, 72, 80
1, 19560, Note_on_c, 1, 48, 80
1, 19560, Note_on_c, 1, 60, 80
1, 19590, Note_on_c, 0, 72, 0
1, 19596, Note_on_c, 1, 60, 0
1, 19596, Note_on_c, 1, 48, 0
1, 19620, Note_on_c, 0, 75, 80
1, 19650, Note_on_c, 0, 75, 0
1, 19680, Note_on_c, 0, 79, 80
1, 19680, Note_on_c, 1, 43, 80
1, 19680, Note_on_c, 1, 55, 80
1, 19740, Note_on_c, 0, 79, 0
1, 19740, Note_on_c, 0, 74, 80
1, 19800, Note_on_c, 0, 74, 0
1, 19800, Note_on_c, 0, 71, 80
1, 19800, Note_on_c, 1, 55, 0
1, 19800, Note_on_c, 1, 43, 0
1, 19830, Note_on_c, 0, 71, 0
1, 19860, Note_on_c, 0, 74, 80
1, 19890, Note_on_c, 0, 74, 0
1, 19920, Note_on_c, 0, 79, 80
1, 19980, Note_on_c, 0, 79, 0
1, 19980, Note_on_c, 0, 75, 80
1, 20040, Note_on_c, 0, 75, 0
1, 20040, Note_on_c, 0, 72, 80
1, 20040, Note_on_c, 1, 48, 80
1, 20040, Note_on_c, 1, 60, 80
1, 20070, Note_on_c, 0, 72, 0
1, 20076, Note_on_c, 1, 60, 0
1, 20076, Note_on_c, 1, 48, 0
1, 20100, Note_on_c, 0, 75, 80
1, 20130, Note_on_c, 0, 75, 0
1, 20160, Note_on_c, 0, 79, 80
1, 20160, Note_on_c, 1, 43, 80
1, 20160, Note_on_c, 1, 55, 80
1, 20220, Note_on_c, 0, 79, 0
1, 20220, Note_on_c, 0, 74, 80
1, 20280, Note_on_c, 0, 74, 0
1, 20280, Note_on_c, 0, 71, 80
1, 20340, Note_on_c, 0, 71, 0
1, 20340, Note_on_c, 0, 74, 80
1, 20352, Note_on_c, 1, 55, 0
1, 20352, Note_on_c, 1, 43, 0
1, 20400, Note_on_c, 0, 74, 0
1, 20400, Note_on_c, 0, 79, 80
1, 20460, Note_on_c, 0, 79, 0
1, 20460, Note_on_c, 0, 75, 80
1, 20520, Note_on_c, 0, 75, 0
1, 20520, Note_on_c, 0, 72, 80
1, 20520, Note_on_c, 1, 48, 80
1, 20520, Note_on_c, 1, 60, 80
1, 20580, Note_on_c, 0, 72, 0
1, 20580, Note_on_c, 0, 75, 80
1, 20640, Note_on_c, 0, 75, 0
1, 20640, Note_on_c, 0, 71, 80
1, 20640, Note_on_c, 0, 74, 80
1, 20640, Note_on_c, 1, 60, 0
1, 20640, Note_on_c, 1, 48, 0
1, 20640, Note_on_c, 1, 55, 80
1, 20640, Note_on_c, 1, 43, 80
1, 20700, Note_on_c, 0, 74, 0
1, 20700, Note_on_c, 0, 79, 80
1, 20760, Note_on_c, 0, 79, 0
1, 20760, Note_on_c, 0, 71, 0
1, 20760, Note_on_c, 0, 72, 80
1, 20760, Note_on_c, 0, 75, 80
1, 20760, Note_on_c, 1, 43, 0
1, 20760, Note_on_c, 1, 55, 0
1, 20760, Note_on_c, 1, 48, 80
1, 20760, Note_on_c, 1, 60, 80
1, 20820, Note_on_c, 0, 75, 0
1, 20820, Note_on_c, 0, 79, 80
1, 20880, Note_on_c, 0, 79, 0
1, 20880, Note_on_c, 0, 72, 0
1, 20880, Note_on_c, 0, 71, 80
1, 20880, Note_on_c, 0, 74, 80
1, 20880, Note_on_c, 1, 60, 0
1, 20880, Note_on_c, 1, 48, 0
1, 20880, Note_on_c, 1, 55, 80
1, 20880, Note_on_c, 1, 43, 80
1, 20940, Note_on_c, 0, 74, 0
1, 20940, Note_on_c, 0, 79, 80
1, 21000, Note_on_c, 0, 79, 0
1, 21000, Note_on_c, 0, 71, 0
1, 21000, Note_on_c, 0, 72, 80
1, 21000, Note_on_c, 0, 75, 80
1, 21000, Note_on_c, 1, 43, 0
1, 21000, Note_on_c, 1, 55, 0
1, 21000, Note_on_c, 1, 60, 80
1, 21000, Note_on_c, 1, 48, 80
1, 21060, Note_on_c, 0, 75, 0
1, 21060, Note_on_c, 0, 79, 80
1, 21120, Note_on_c, 0, 79, 0
1, 21120, Note_on_c, 0, 72, 0
1, 21120, Note_on_c, 0, 74, 80
1, 21120, Note_on_c, 0, 71, 80
1, 21120, Note_on_c, 1, 48, 0
1, 21120, Note_on_c, 1, 60, 0
1, 21120, Note_on_c, 1, 43, 80
1, 21120, Note_on_c, 1, 55, 80
1, 21240, Note_on_c, 0, 71, 0
1, 21240, Note_on_c, 0, 74, 0
1, 21240, Note_on_c, 1, 55, 0
1, 21240, Note_on_c, 1, 43, 0
1, 21360, Note_on_c, 0, 67, 80
1, 21360, Note_on_c, 0, 71, 80
1, 21360, Note_on_c, 0, 74, 80
1, 21360, Note_on_c, 0, 79, 80
1, 21360, Note_on_c, 1, 31, 80
1, 21360, Note_on_c, 1, 43, 80
1, 21600, Note_on_c, 0, 79, 0
1, 21600, Note_on_c, 0, 67, 0
1, 21600, Note_on_c, 0, 71, 0
1, 21600, Note_on_c, 0, 74, 0
1, 21600, Note_on_c, 1, 43, 0
1, 21600, Note_on_c, 1, 31, 0
1, 21600, Note_on_c, 1, 31, 56
1, 21600, Note_on_c, 1, 43, 56
1, 21720, Note_on_c, 0, 79, 32
1, 21720, Note_on_c, 1, 43, 0
1, 21720, Note_on_c, 1, 31, 0
1, 21756, Note_on_c, 0, 79, 0
1, 21840, Note_on_c, 0, 81, 32
1, 21876, Note_on_c, 0, 81, 0
1, 21960, Note_on_c, 0, 83, 32
1, 21996, Note_on_c, 0, 83, 0
1, 22080, Note_on_c, 0, 84, 32
1, 22080, Note_on_c, 1, 67, 32
1, 22080, Note_on_c, 1, 64, 32
1, 22116, Note_on_c, 1, 64, 0
1, 22116, Note_on_c, 1, 67, 0
1, 22140, Note_on_c, 0, 84, 0
1, 22140, Note_on_c, 0, 86, 32
1, 22170, Note_on_c, 0, 86, 0
1, 22200, Note_on_c, 0, 83, 32
1, 22200, Note_on_c, 1, 67, 32
1, 22200, Note_on_c, 1, 64, 32
1, 22230, Note_on_c, 0, 83, 0
1, 22236, Note_on_c, 1, 64, 0
1, 22236, Note_on_c, 1, 67, 0
1, 22260, Note_on_c, 0, 86, 32
1, 22290, Note_on_c, 0, 86, 0
1, 22320, Note_on_c, 0, 84, 32
1, 22320, Note_on_c, 1, 67, 32
1, 22320, Note_on_c, 1, 64, 32
1, 22356, Note_on_c, 1, 64, 0
1, 22356, Note_on_c, 1, 67, 0
1, 22380, Note_on_c, 0, 84, 0
1, 22380, Note_on_c, 0, 86, 32
1, 22410, Note_on_c, 0, 86, 0
1, 22440, Note_on_c, 0, 83, 32
1, 22440, Note_on_c, 1, 67, 32
1, 22440, Note_on_c, 1, 64, 32
1, 22470, Note_on_c, 0, 83, 0
1, 22476, Note_on_c, 1, 64, 0
1, 22476, Note_on_c, 1, 67, 0
1, 22500, Note_on_c, 0, 86, 32
1, 22530, Note_on_c, 0, 86, 0
1, 22560, Note_on_c, 0, 84, 32
1, 22560, Note_on_c, 1, 64, 32
1, 22560, Note_on_c, 1, 67, 32
1, 22620, Note_on_c, 0, 84, 0
1, 22620, Note_on_c, 0, 86, 32
1, 22680, Note_on_c, 0, 86, 0
1, 22680, Note_on_c, 0, 83, 32
1, 22740, Note_on_c, 0, 83, 0
1, 22740, Note_on_c, 0, 84, 32
1, 22800, Note_on_c, 0, 84, 0
1, 22800, Note_on_c, 0, 81, 32
1, 22800, Note_on_c, 1, 67, 0
1, 22800, Note_on_c, 1, 64, 0
1, 22860, Note_on_c, 0, 81, 0
1, 22860, Note_on_c, 0, 83, 32
1, 22920, Note_on_c, 0, 83, 0
1, 22920, Note_on_c, 0, 79, 32
1, 22980, Note_on_c, 0, 79, 0
1, 22980, Note_on_c, 0, 81, 32
1, 23040, Note_on_c, 0, 81, 0
1, 23040, Note_on_c, 0, 77, 32
1, 23040, Note_on_c, 1, 62, 32
1, 23040, Note_on_c, 1, 69, 32
1, 23100, Note_on_c, 0, 77, 0
1, 23100, Note_on_c, 0, 79, 32
1, 23160, Note_on_c, 0, 79, 0
1, 23160, Note_on_c, 0, 76, 32
1, 23160, Note_on_c, 1, 69, 0
1, 23160, Note_on_c, 1, 62, 0
1, 23160, Note_on_c, 1, 69, 32
1, 23160, Note_on_c, 1, 62, 32
1, 23190, Note_on_c, 0, 76, 0
1, 23196, Note_on_c, 1, 62, 0
1, 23196, Note_on_c, 1, 69, 0
1, 23220, Note_on_c, 0, 79, 32
1, 23250, Note_on_c, 0, 79, 0
1, 23280, Note_on_c, 0, 77, 32
1, 23280, Note_on_c, 1, 69, 32
1, 23280, Note_on_c, 1, 62, 32
1, 23316, Note_on_c, 1, 62, 0
1, 23316, Note_on_c, 1, 69, 0
1, 23340, Note_on_c, 0, 77, 0
1, 23340, Note_on_c, 0, 79, 32
1, 23400, Note_on_c, 0, 79, 0
1, 23400, Note_on_c, 0, 76, 32
1, 23400, Note_on_c, 1, 69, 32
1, 23400, Note_on_c, 1, 62, 32
1, 23430, Note_on_c, 0, 76, 0
1, 23436, Note_on_c, 1, 62, 0
1, 23436, Note_on_c, 1, 69, 0
1, 23460, Note_on_c, 0, 79, 32
1, 23490, Note_on_c, 0, 79, 0
1, 23520, Note_on_c, 0, 77, 32
1, 23520, Note_on_c, 1, 62, 32
1, 23520, Note_on_c, 1, 69, 32
1, 23580, Note_on_c, 0, 77, 0
1, 23580, Note_on_c, 0, 79, 32
1, 23640, Note_on_c, 0, 79, 0
1, 23640, Note_on_c, 0, 76, 32
1, 23700, Note_on_c, 0, 76, 0
1, 23700, Note_on_c, 0, 77, 32
1, 23760, Note_on_c, 0, 77, 0
1, 23760, Note_on_c, 0, 74, 32
1, 23760, Note_on_c, 1, 69, 0
1, 23760, Note_on_c, 1, 62, 0
1, 23820, Note_on_c, 0, 74, 0
1, 23820, Note_on_c, 0, 76, 32
1, 23880, Note_on_c, 0, 76, 0
1, 23880, Note_on_c, 0, 72, 32
1, 23940, Note_on_c, 0, 72, 0
1, 23940, Note_on_c, 0, 74, 32
1, 24000, Note_on_c, 0, 74, 0
1, 24000, Note_on_c, 0, 71, 32
1, 24000, Note_on_c, 1, 55, 32
1, 24000, Note_on_c, 1, 62, 32
1, 24000, Note_on_c, 1, 65, 32
1, 24060, Note_on_c, 0, 71, 0
1, 24060, Note_on_c, 0, 72, 32
1, 24090, Note_on_c, 0, 72, 0
1, 24120, Note_on_c, 0, 69, 32
1, 24120, Note_on_c, 1, 65, 0
1, 24120, Note_on_c, 1, 62, 0
1, 24120, Note_on_c, 1, 55, 0
1, 24120, Note_on_c, 1, 55, 32
1, 24120, Note_on_c, 1, 62, 32
1, 24120, Note_on_c, 1, 65, 32
1, 24150, Note_on_c, 0, 69, 0
1, 24180, Note_on_c, 0, 72, 32
1, 24210, Note_on_c, 0, 72, 0
1, 24240, Note_on_c, 0, 71, 32
1, 24240, Note_on_c, 1, 65, 0
1, 24240, Note_on_c, 1, 62, 0
1, 24240, Note_on_c, 1, 55, 0
1, 24240, Note_on_c, 1, 55, 32
1, 24240, Note_on_c, 1, 62, 32
1, 24240, Note_on_c, 1, 65, 32
1, 24276, Note_on_c, 1, 65, 0
1, 24276, Note_on_c, 1, 62, 0
1, 24276, Note_on_c, 1, 55, 0
1, 24300, Note_on_c, 0, 71, 0
1, 24300, Note_on_c, 0, 72, 32
1, 24330, Note_on_c, 0, 72, 0
1, 24360, Note_on_c, 0, 69, 32
1, 24360, Note_on_c, 1, 55, 32
1, 24360, Note_on_c, 1, 62, 32
1, 24360, Note_on_c, 1, 65, 32
1, 24390, Note_on_c, 0, 69, 0
1, 24396, Note_on_c, 1, 65, 0
1, 24396, Note_on_c, 1, 62, 0
1, 24396, Note_on_c, 1, 55, 0
1, 24420, Note_on_c, 0, 72, 32
1, 24450, Note_on_c, 0, 72, 0
1, 24480, Note_on_c, 0, 71, 32
1, 24480, Note_on_c, 1, 55, 32
1, 24480, Note_on_c, 1, 62, 32
1, 24480, Note_on_c, 1, 65, 32
1, 24540, Note_on_c, 0, 71, 0
1, 24540, Note_on_c, 0, 72, 32
1, 24600, Note_on_c, 0, 72, 0
1, 24600, Note_on_c, 0, 69, 32
1, 24660, Note_on_c, 0, 69, 0
1, 24660, Note_on_c, 0, 71, 32
1, 24720, Note_on_c, 0, 71, 0
1, 24720, Note_on_c, 0, 67, 32
1, 24720, Note_on_c, 1, 65, 0
1, 24720, Note_on_c, 1, 62, 0
1, 24720, Note_on_c, 1, 55, 0
1, 24780, Note_on_c, 0, 67, 0
1, 24780, Note_on_c, 0, 69, 32
1, 24840, Note_on_c, 0, 69, 0
1, 24840, Note_on_c, 0, 65, 32
1, 24900, Note_on_c, 0, 65, 0
1, 24900, Note_on_c, 0, 67, 32
1, 24960, Note_on_c, 0, 67, 0
1, 24960, Note_on_c, 0, 64, 32
1, 24960, Note_on_c, 1, 60, 32
1, 25020, Note_on_c, 0, 64, 0
1, 25020, Note_on_c, 0, 67, 33
1, 25080, Note_on_c, 0, 67, 0
1, 25080, Note_on_c, 0, 65, 34
1, 25140, Note_on_c, 0, 65, 0
1, 25140, Note_on_c, 0, 64, 35
1, 25200, Note_on_c, 0, 64, 0
1, 25200, Note_on_c, 0, 65, 36
1, 25200, Note_on_c, 1, 60, 0
1, 25260, Note_on_c, 0, 65, 0
1, 25260, Note_on_c, 0, 67, 37
1, 25320, Note_on_c, 0, 67, 0
1, 25320, Note_on_c, 0, 69, 38
1, 25350, Note_on_c, 0, 69, 0
1, 25380, Note_on_c, 0, 71, 39
1, 25410, Note_on_c, 0, 71, 0
1, 25440, Note_on_c, 0, 72, 40
1, 25500, Note_on_c, 0, 72, 0
1, 25500, Note_on_c, 0, 74, 41
1, 25560, Note_on_c, 0, 74, 0
1, 25560, Note_on_c, 0, 72, 42
1, 25620, Note_on_c, 0, 72, 0
1, 25620, Note_on_c, 0, 71, 43
1, 25680, Note_on_c, 0, 71, 0
1, 25680, Note_on_c, 0, 72, 44
1, 25740, Note_on_c, 0, 72, 0
1, 25740, Note_on_c, 0, 74, 45
1, 25758, Note_on_c, 0, 74, 0
1, 25800, Note_on_c, 0, 76, 46
1, 25818, Note_on_c, 0, 76, 0
1, 25860, Note_on_c, 0, 77, 47
1, 25878, Note_on_c, 0, 77, 0
1, 25920, Note_on_c, 0, 79, 32
1, 25920, Note_on_c, 1, 52, 32
1, 25920, Note_on_c, 1, 60, 32
1, 25956, Note_on_c, 1, 60, 0
1, 25956, Note_on_c, 1, 52, 0
1, 25980, Note_on_c, 0, 79, 0
1, 25980, Note_on_c, 0, 81, 33
1, 26010, Note_on_c, 0, 81, 0
1, 26040, Note_on_c, 0, 78, 34
1, 26040, Note_on_c, 1, 52, 32
1, 26040, Note_on_c, 1, 60, 32
1, 26058, Note_on_c, 0, 78, 0
1, 26076, Note_on_c, 1, 60, 0
1, 26076, Note_on_c, 1, 52, 0
1, 26100, Note_on_c, 0, 81, 35
1, 26118, Note_on_c, 0, 81, 0
1, 26160, Note_on_c, 0, 79, 36
1, 26160, Note_on_c, 1, 52, 32
1, 26160, Note_on_c, 1, 60, 32
1, 26196, Note_on_c, 1, 60, 0
1, 26196, Note_on_c, 1, 52, 0
1, 26220, Note_on_c, 0, 79, 0
1, 26220, Note_on_c, 0, 81, 37
1, 26250, Note_on_c, 0, 81, 0
1, 26280, Note_on_c, 0, 78, 38
1, 26280, Note_on_c, 1, 52, 32
1, 26280, Note_on_c, 1, 60, 32
1, 26298, Note_on_c, 0, 78, 0
1, 26316, Note_on_c, 1, 60, 0
1, 26316, Note_on_c, 1, 52, 0
1, 26340, Note_on_c, 0, 81, 39
1, 26358, Note_on_c, 0, 81, 0
1, 26400, Note_on_c, 0, 79, 40
1, 26400, Note_on_c, 1, 52, 32
1, 26400, Note_on_c, 1, 60, 32
1, 26460, Note_on_c, 0, 79, 0
1, 26460, Note_on_c, 0, 84, 41
1, 26520, Note_on_c, 0, 84, 0
1, 26520, Note_on_c, 0, 83, 42
1, 26580, Note_on_c, 0, 83, 0
1, 26580, Note_on_c, 0, 84, 43
1, 26640, Note_on_c, 0, 84, 0
1, 26640, Note_on_c, 0, 86, 44
1, 26640, Note_on_c, 1, 60, 0
1, 26640, Note_on_c, 1, 52, 0
1, 26700, Note_on_c, 0, 86, 0
1, 26700, Note_on_c, 0, 84, 45
1, 26760, Note_on_c, 0, 84, 0
1, 26760, Note_on_c, 0, 83, 46
1, 26820, Note_on_c, 0, 83, 0
1, 26820, Note_on_c, 0, 84, 47
1, 26880, Note_on_c, 0, 84, 0
1, 26880, Note_on_c, 0, 83, 48
1, 26880, Note_on_c, 1, 53, 32
1, 26940, Note_on_c, 0, 83, 0
1, 26940, Note_on_c, 0, 81, 47
1, 27000, Note_on_c, 0, 81, 0
1, 27000, Note_on_c, 0, 80, 45
1, 27060, Note_on_c, 0, 80, 0
1, 27060, Note_on_c, 0, 81, 44
1, 27120, Note_on_c, 0, 81, 0
1, 27120, Note_on_c, 0, 79, 42
1, 27120, Note_on_c, 1, 57, 32
1, 27180, Note_on_c, 0, 79, 0
1, 27180, Note_on_c, 0, 77, 41
1, 27240, Note_on_c, 0, 77, 0
1, 27240, Note_on_c, 0, 76, 40
1, 27300, Note_on_c, 0, 76, 0
1, 27300, Note_on_c, 0, 77, 38
1, 27360, Note_on_c, 0, 77, 0
1, 27360, Note_on_c, 0, 76, 37
1, 27360, Note_on_c, 1, 57, 0
1, 27360, Note_on_c, 1, 62, 32
1, 27420, Note_on_c, 0, 76, 0
1, 27420, Note_on_c, 0, 74, 35
1, 27480, Note_on_c, 0, 74, 0
1, 27480, Note_on_c, 0, 73, 34
1, 27540, Note_on_c, 0, 73, 0
1, 27540, Note_on_c, 0, 74, 33
1, 27600, Note_on_c, 0, 74, 0
1, 27600, Note_on_c, 0, 73, 34
1, 27600, Note_on_c, 1, 53, 0
1, 27600, Note_on_c, 1, 53, 32
1, 27660, Note_on_c, 0, 73, 0
1, 27660, Note_on_c, 0, 74, 37
1, 27720, Note_on_c, 0, 74, 0
1, 27720, Note_on_c, 0, 76, 41
1, 27780, Note_on_c, 0, 76, 0
1, 27780, Note_on_c, 0, 77, 45
1, 27840, Note_on_c, 0, 77, 0
1, 27840, Note_on_c, 0, 81, 48
1, 27840, Note_on_c, 1, 53, 0
1, 27840, Note_on_c, 1, 52, 32
1, 27900, Note_on_c, 0, 81, 0
1, 27900, Note_on_c, 0, 79, 47
1, 27960, Note_on_c, 0, 79, 0
1, 27960, Note_on_c, 0, 78, 45
1, 28020, Note_on_c, 0, 78, 0
1, 28020, Note_on_c, 0, 79, 44
1, 28080, Note_on_c, 0, 79, 0
1, 28080, Note_on_c, 0, 77, 42
1, 28080, Note_on_c, 1, 62, 0
1, 28080, Note_on_c, 1, 55, 32
1, 28140, Note_on_c, 0, 77, 0
1, 28140, Note_on_c, 0, 76, 41
1, 28200, Note_on_c, 0, 76, 0
1, 28200, Note_on_c, 0, 74, 40
1, 28260, Note_on_c, 0, 74, 0
1, 28260, Note_on_c, 0, 76, 38
1, 28320, Note_on_c, 0, 76, 0
1, 28320, Note_on_c, 0, 74, 37
1, 28320, Note_on_c, 1, 55, 0
1, 28320, Note_on_c, 1, 60, 32
1, 28380, Note_on_c, 0, 74, 0
1, 28380, Note_on_c, 0, 72, 35
1, 28440, Note_on_c, 0, 72, 0
1, 28440, Note_on_c, 0, 71, 34
1, 28500, Note_on_c, 0, 71, 0
1, 28500, Note_on_c, 0, 72, 33
1, 28560, Note_on_c, 0, 72, 0
1, 28560, Note_on_c, 0, 71, 34
1, 28560, Note_on_c, 1, 52, 0
1, 28560, Note_on_c, 1, 52, 32
1, 28620, Note_on_c, 0, 71, 0
1, 28620, Note_on_c, 0, 72, 38
1, 28680, Note_on_c, 0, 72, 0
1, 28680, Note_on_c, 0, 74, 41
1, 28740, Note_on_c, 0, 74, 0
1, 28740, Note_on_c, 0, 76, 45
1, 28800, Note_on_c, 0, 76, 0
1, 28800, Note_on_c, 0, 77, 48
1, 28800, Note_on_c, 1, 52, 0
1, 28800, Note_on_c, 1, 50, 32
1, 28860, Note_on_c, 0, 77, 0
1, 28860, Note_on_c, 0, 79, 47
1, 28920, Note_on_c, 0, 79, 0
1, 28920, Note_on_c, 0, 76, 46
1, 28980, Note_on_c, 0, 76, 0
1, 28980, Note_on_c, 0, 77, 45
1, 29040, Note_on_c, 0, 77, 0
1, 29040, Note_on_c, 0, 74, 44
1, 29040, Note_on_c, 1, 50, 0
1, 29040, Note_on_c, 1, 60, 0
1, 29040, Note_on_c, 1, 57, 32
1, 29040, Note_on_c, 1, 53, 32
1, 29100, Note_on_c, 0, 74, 0
1, 29100, Note_on_c, 0, 76, 43
1, 29160, Note_on_c, 0, 76, 0
1, 29160, Note_on_c, 0, 72, 42
1, 29220, Note_on_c, 0, 72, 0
1, 29220, Note_on_c, 0, 74, 41
1, 29280, Note_on_c, 0, 74, 0
1, 29280, Note_on_c, 0, 71, 40
1, 29280, Note_on_c, 1, 53, 0
1, 29280, Note_on_c, 1, 57, 0
1, 29280, Note_on_c, 1, 55, 32
1, 29280, Note_on_c, 1, 55, 32
1, 29340, Note_on_c, 0, 71, 0
1, 29340, Note_on_c, 0, 72, 39
1, 29400, Note_on_c, 0, 72, 0
1, 29400, Note_on_c, 0, 69, 38
1, 29460, Note_on_c, 0, 69, 0
1, 29460, Note_on_c, 0, 71, 37
1, 29520, Note_on_c, 0, 71, 0
1, 29520, Note_on_c, 0, 67, 36
1, 29520, Note_on_c, 1, 55, 0
1, 29520, Note_on_c, 1, 47, 32
1, 29580, Note_on_c, 0, 67, 0
1, 29580, Note_on_c, 0, 69, 35
1, 29640, Note_on_c, 0, 69, 0
1, 29640, Note_on_c, 0, 65, 34
1, 29700, Note_on_c, 0, 65, 0
1, 29700, Note_on_c, 0, 67, 33
1, 29760, Note_on_c, 0, 67, 0
1, 29760, Note_on_c, 0, 64, 32
1, 29760, Note_on_c, 1, 47, 0
1, 29760, Note_on_c, 1, 48, 32
1, 29820, Note_on_c, 0, 64, 0
1, 29820, Note_on_c, 0, 67, 33
1, 29880, Note_on_c, 0, 67, 0
1, 29880, Note_on_c, 0, 65, 34
1, 29940, Note_on_c, 0, 65, 0
1, 29940, Note_on_c, 0, 64, 35
1, 30000, Note_on_c, 0, 64, 0
1, 30000, Note_on_c, 0, 65, 36
1, 30000, Note_on_c, 1, 48, 0
1, 30000, Note_on_c, 1, 55, 0
1, 30000, Note_on_c, 1, 55, 32
1, 30000, Note_on_c, 1, 50, 32
1, 30060, Note_on_c, 0, 65, 0
1, 30060, Note_on_c, 0, 67, 37
1, 30120, Note_on_c, 0, 67, 0
1, 30120, Note_on_c, 0, 69, 38
1, 30180, Note_on_c, 0, 69, 0
1, 30180, Note_on_c, 0, 71, 39
1, 30240, Note_on_c, 0, 71, 0
1, 30240, Note_on_c, 0, 72, 40
1, 30240, Note_on_c, 1, 50, 0
1, 30240, Note_on_c, 1, 52, 32
1, 30300, Note_on_c, 0, 72, 0
1, 30300, Note_on_c, 0, 74, 41
1, 30360, Note_on_c, 0, 74, 0
1, 30360, Note_on_c, 0, 76, 42
1, 30420, Note_on_c, 0, 76, 0
1, 30420, Note_on_c, 0, 74, 43
1, 30480, Note_on_c, 0, 74, 0
1, 30480, Note_on_c, 0, 72, 44
1, 30480, Note_on_c, 1, 55, 0
1, 30480, Note_on_c, 1, 60, 32
1, 30540, Note_on_c, 0, 72, 0
1, 30540, Note_on_c, 0, 70, 45
1, 30600, Note_on_c, 0, 70, 0
1, 30600, Note_on_c, 0, 69, 46
1, 30660, Note_on_c, 0, 69, 0
1, 30660, Note_on_c, 0, 68, 47
1, 30720, Note_on_c, 0, 68, 0
1, 30720, Note_on_c, 0, 69, 48
1, 30720, Note_on_c, 1, 52, 0
1, 30720, Note_on_c, 1, 53, 32
1, 30780, Note_on_c, 0, 69, 0
1, 30780, Note_on_c, 0, 71, 50
1, 30840, Note_on_c, 0, 71, 0
1, 30840, Note_on_c, 0, 72, 52
1, 30900, Note_on_c, 0, 72, 0
1, 30900, Note_on_c, 0, 71, 54
1, 30960, Note_on_c, 0, 71, 0
1, 30960, Note_on_c, 0, 72, 56
1, 30960, Note_on_c, 1, 53, 0
1, 30960, Note_on_c, 1, 60, 0
1, 31020, Note_on_c, 0, 72, 0
1, 31020, Note_on_c, 0, 73, 58
1, 31080, Note_on_c, 0, 73, 0
1, 31080, Note_on_c, 0, 74, 60
1, 31140, Note_on_c, 0, 74, 0
1, 31140, Note_on_c, 0, 73, 62
1, 31200, Note_on_c, 0, 73, 0
1, 31200, Note_on_c, 0, 74, 64
1, 31260, Note_on_c, 0, 74, 0
1, 31260, Note_on_c, 0, 76, 66
1, 31320, Note_on_c, 0, 76, 0
1, 31320, Note_on_c, 0, 77, 68
1, 31380, Note_on_c, 0, 77, 0
1, 31380, Note_on_c, 0, 76, 70
1, 31440, Note_on_c, 0, 76, 0
1, 31440, Note_on_c, 0, 77, 72
1, 31500, Note_on_c, 0, 77, 0
1, 31500, Note_on_c, 0, 80, 74
1, 31560, Note_on_c, 0, 80, 0
1, 31560, Note_on_c, 0, 81, 76
1, 31620, Note_on_c, 0, 81, 0
1, 31620, Note_on_c, 0, 80, 78
1, 31680, Note_on_c, 0, 80, 0
1, 31680, Note_on_c, 0, 81, 80
1, 31680, Note_on_c, 1, 53, 48
1, 31740, Note_on_c, 0, 81, 0
1, 31740, Note_on_c, 0, 83, 80
1, 31740, Note_on_c, 1, 53, 0
1, 31740, Note_on_c, 1, 62, 48
1, 31800, Note_on_c, 0, 83, 0
1, 31800, Note_on_c, 0, 84, 80
1, 31800, Note_on_c, 1, 62, 0
1, 31800, Note_on_c, 1, 57, 48
1, 31860, Note_on_c, 0, 84, 0
1, 31860, Note_on_c, 0, 83, 80
1, 31860, Note_on_c, 1, 57, 0
1, 31860, Note_on_c, 1, 62, 48
1, 31920, Note_on_c, 0, 83, 0
1, 31920, Note_on_c, 0, 84, 80
1, 31920, Note_on_c, 1, 62, 0
1, 31920, Note_on_c, 1, 53, 48
1, 31980, Note_on_c, 0, 84, 0
1, 31980, Note_on_c, 0, 83, 80
1, 31980, Note_on_c, 1, 53, 0
1, 31980, Note_on_c, 1, 62, 48
1, 31998, Note_on_c, 0, 83, 0
1, 31998, Note_on_c, 1, 62, 0
1, 32040, Note_on_c, 0, 84, 80
1, 32040, Note_on_c, 1, 57, 48
1, 32058, Note_on_c, 0, 84, 0
1, 32058, Note_on_c, 1, 57, 0
1, 32100, Note_on_c, 0, 83, 80
1, 32100, Note_on_c, 1, 62, 48
1, 32118, Note_on_c, 0, 83, 0
1, 32118, Note_on_c, 1, 62, 0
1, 32160, Note_on_c, 0, 86, 88
1, 32160, Note_on_c, 1, 53, 48
1, 32220, Note_on_c, 0, 86, 0
1, 32220, Note_on_c, 0, 84, 80
1, 32220, Note_on_c, 1, 53, 0
1, 32220, Note_on_c, 1, 62, 48
1, 32280, Note_on_c, 0, 84, 0
1, 32280, Note_on_c, 0, 83, 80
1, 32280, Note_on_c, 1, 62, 0
1, 32280, Note_on_c, 1, 57, 48
1, 32340, Note_on_c, 0, 83, 0
1, 32340, Note_on_c, 0, 81, 80
1, 32340, Note_on_c, 1, 57, 0
1, 32340, Note_on_c, 1, 62, 48
1, 32400, Note_on_c, 0, 81, 0
1, 32400, Note_on_c, 0, 83, 88
1, 32400, Note_on_c, 1, 62, 0
1, 32400, Note_on_c, 1, 53, 48
1, 32460, Note_on_c, 0, 83, 0
1, 32460, Note_on_c, 0, 81, 80
1, 32460, Note_on_c, 1, 53, 0
1, 32460, Note_on_c, 1, 62, 48
1, 32520, Note_on_c, 0, 81, 0
1, 32520, Note_on_c, 0, 79, 80
1, 32520, Note_on_c, 1, 62, 0
1, 32520, Note_on_c, 1, 57, 48
1, 32538, Note_on_c, 0, 79, 0
1, 32538, Note_on_c, 1, 57, 0
1, 32580, Note_on_c, 0, 77, 80
1, 32580, Note_on_c, 1, 62, 48
1, 32598, Note_on_c, 0, 77, 0
1, 32598, Note_on_c, 1, 62, 0
1, 32640, Note_on_c, 0, 76, 80
1, 32640, Note_on_c, 1, 55, 48
1, 32670, Note_on_c, 0, 76, 0
1, 32700, Note_on_c, 0, 79, 80
1, 32700, Note_on_c, 1, 55, 0
1, 32700, Note_on_c, 1, 64, 48
1, 32760, Note_on_c, 0, 79, 0
1, 32760, Note_on_c, 0, 81, 80
1, 32760, Note_on_c, 1, 64, 0
1, 32760, Note_on_c, 1, 60, 48
1, 32820, Note_on_c, 0, 81, 0
1, 32820, Note_on_c, 0, 79, 80
1, 32820, Note_on_c, 1, 60, 0
1, 32820, Note_on_c, 1, 64, 48
1, 32880, Note_on_c, 0, 79, 0
1, 32880, Note_on_c, 0, 77, 80
1, 32880, Note_on_c, 1, 64, 0
1, 32880, Note_on_c, 1, 55, 48
1, 32940, Note_on_c, 0, 77, 0
1, 32940, Note_on_c, 0, 76, 80
1, 32940, Note_on_c, 1, 55, 0
1, 32940, Note_on_c, 1, 64, 48
1, 33000, Note_on_c, 0, 76, 0
1, 33000, Note_on_c, 0, 74, 80
1, 33000, Note_on_c, 1, 64, 0
1, 33000, Note_on_c, 1, 60, 48
1, 33060, Note_on_c, 0, 74, 0
1, 33060, Note_on_c, 0, 72, 80
1, 33060, Note_on_c, 1, 60, 0
1, 33060, Note_on_c, 1, 64, 48
1, 33120, Note_on_c, 0, 72, 0
1, 33120, Note_on_c, 0, 76, 78
1, 33120, Note_on_c, 1, 64, 0
1, 33120, Note_on_c, 1, 55, 48
1, 33150, Note_on_c, 0, 76, 0
1, 33150, Note_on_c, 0, 74, 76
1, 33180, Note_on_c, 0, 74, 0
1, 33180, Note_on_c, 0, 76, 75
1, 33180, Note_on_c, 1, 55, 0
1, 33180, Note_on_c, 1, 65, 48
1, 33210, Note_on_c, 0, 76, 0
1, 33210, Note_on_c, 0, 74, 73
1, 33240, Note_on_c, 0, 74, 0
1, 33240, Note_on_c, 0, 76, 71
1, 33240, Note_on_c, 1, 65, 0
1, 33240, Note_on_c, 1, 59, 48
1, 33270, Note_on_c, 0, 76, 0
1, 33270, Note_on_c, 0, 74, 69
1, 33300, Note_on_c, 0, 74, 0
1, 33300, Note_on_c, 0, 76, 67
1, 33300, Note_on_c, 1, 59, 0
1, 33300, Note_on_c, 1, 65, 48
1, 33330, Note_on_c, 0, 76, 0
1, 33330, Note_on_c, 0, 74, 65
1, 33360, Note_on_c, 0, 74, 0
1, 33360, Note_on_c, 0, 76, 63
1, 33360, Note_on_c, 1, 65, 0
1, 33360, Note_on_c, 1, 55, 48
1, 33390, Note_on_c, 0, 76, 0
1, 33390, Note_on_c, 0, 74, 61
1, 33420, Note_on_c, 0, 74, 0
1, 33420, Note_on_c, 0, 76, 59
1, 33420, Note_on_c, 1, 55, 0
1, 33420, Note_on_c, 1, 65, 48
1, 33450, Note_on_c, 0, 76, 0
1, 33450, Note_on_c, 0, 74, 57
1, 33480, Note_on_c, 0, 74, 0
1, 33480, Note_on_c, 0, 72, 55
1, 33480, Note_on_c, 1, 65, 0
1, 33480, Note_on_c, 1, 59, 48
1, 33540, Note_on_c, 0, 72, 0
1, 33540, Note_on_c, 0, 74, 52
1, 33540, Note_on_c, 1, 59, 0
1, 33540, Note_on_c, 1, 65, 48
1, 33600, Note_on_c, 0, 74, 0
1, 33600, Note_on_c, 1, 65, 0
1, 33600, Note_on_c, 1, 64, 48
1, 33600, Note_on_c, 1, 60, 48
1, 33660, Note_on_c, 0, 84, 48
1, 33678, Note_on_c, 0, 84, 0
1, 33720, Note_on_c, 0, 83, 48
1, 33738, Note_on_c, 0, 83, 0
1, 33780, Note_on_c, 0, 81, 48
1, 33798, Note_on_c, 0, 81, 0
1, 33840, Note_on_c, 0, 79, 48
1, 33840, Note_on_c, 1, 60, 0
1, 33840, Note_on_c, 1, 64, 0
1, 33900, Note_on_c, 0, 79, 0
1, 33900, Note_on_c, 0, 81, 48
1, 33918, Note_on_c, 0, 81, 0
1, 33960, Note_on_c, 0, 78, 48
1, 33978, Note_on_c, 0, 78, 0
1, 34020, Note_on_c, 0, 81, 48
1, 34038, Note_on_c, 0, 81, 0
1, 34080, Note_on_c, 0, 79, 48
1, 34140, Note_on_c, 0, 79, 0
1, 34140, Note_on_c, 0, 81, 48
1, 34158, Note_on_c, 0, 81, 0
1, 34200, Note_on_c, 0, 78, 48
1, 34218, Note_on_c, 0, 78, 0
1, 34260, Note_on_c, 0, 81, 48
1, 34278, Note_on_c, 0, 81, 0
1, 34320, Note_on_c, 0, 79, 48
1, 34320, Note_on_c, 1, 71, 48
1, 34356, Note_on_c, 1, 71, 0
1, 34380, Note_on_c, 0, 79, 0
1, 34380, Note_on_c, 0, 81, 48
1, 34440, Note_on_c, 0, 81, 0
1, 34440, Note_on_c, 0, 77, 48
1, 34440, Note_on_c, 1, 67, 48
1, 34476, Note_on_c, 1, 67, 0
1, 34500, Note_on_c, 0, 77, 0
1, 34500, Note_on_c, 0, 79, 48
1, 34560, Note_on_c, 0, 79, 0
1, 34560, Note_on_c, 0, 76, 32
1, 34560, Note_on_c, 1, 72, 48
1, 34620, Note_on_c, 0, 76, 0
1, 34620, Note_on_c, 0, 84, 32
1, 34680, Note_on_c, 0, 84, 0
1, 34680, Note_on_c, 0, 83, 32
1, 34740, Note_on_c, 0, 83, 0
1, 34740, Note_on_c, 0, 81, 32
1, 34800, Note_on_c, 0, 81, 0
1, 34800, Note_on_c, 0, 79, 32
1, 34800, Note_on_c, 1, 72, 0
1, 34860, Note_on_c, 0, 79, 0
1, 34860, Note_on_c, 0, 81, 32
1, 34920, Note_on_c, 0, 81, 0
1, 34920, Note_on_c, 0, 78, 32
1, 34980, Note_on_c, 0, 78, 0
1, 34980, Note_on_c, 0, 81, 32
1, 35040, Note_on_c, 0, 81, 0
1, 35040, Note_on_c, 0, 79, 32
1, 35100, Note_on_c, 0, 79, 0
1, 35100, Note_on_c, 0, 81, 32
1, 35160, Note_on_c, 0, 81, 0
1, 35160, Note_on_c, 0, 78, 32
1, 35220, Note_on_c, 0, 78, 0
1, 35220, Note_on_c, 0, 81, 32
1, 35280, Note_on_c, 0, 81, 0
1, 35280, Note_on_c, 0, 79, 32
1, 35280, Note_on_c, 1, 71, 32
1, 35340, Note_on_c, 0, 79, 0
1, 35340, Note_on_c, 0, 81, 32
1, 35400, Note_on_c, 0, 81, 0
1, 35400, Note_on_c, 0, 77, 32
1, 35400, Note_on_c, 1, 71, 0
1, 35400, Note_on_c, 1, 67, 32
1, 35460, Note_on_c, 0, 77, 0
1, 35460, Note_on_c, 0, 79, 32
1, 35520, Note_on_c, 0, 79, 0
1, 35520, Note_on_c, 0, 76, 32
1, 35520, Note_on_c, 1, 67, 0
1, 35520, Note_on_c, 1, 72, 32
1, 35580, Note_on_c, 0, 76, 0
1, 35580, Note_on_c, 0, 77, 34
1, 35640, Note_on_c, 0, 77, 0
1, 35640, Note_on_c, 0, 74, 35
1, 35700, Note_on_c, 0, 74, 0
1, 35700, Note_on_c, 0, 76, 37
1, 35760, Note_on_c, 0, 76, 0
1, 35760, Note_on_c, 0, 72, 38
1, 35760, Note_on_c, 1, 72, 0
1, 35820, Note_on_c, 0, 72, 0
1, 35820, Note_on_c, 0, 74, 40
1, 35880, Note_on_c, 0, 74, 0
1, 35880, Note_on_c, 0, 71, 41
1, 35940, Note_on_c, 0, 71, 0
1, 35940, Note_on_c, 0, 72, 43
1, 36000, Note_on_c, 0, 72, 0
1, 36000, Note_on_c, 0, 69, 44
1, 36000, Note_on_c, 1, 60, 48
1, 36000, Note_on_c, 1, 52, 48
1, 36060, Note_on_c, 0, 69, 0
1, 36060, Note_on_c, 0, 71, 46
1, 36120, Note_on_c, 0, 71, 0
1, 36120, Note_on_c, 0, 67, 47
1, 36180, Note_on_c, 0, 67, 0
1, 36180, Note_on_c, 0, 69, 49
1, 36240, Note_on_c, 0, 69, 0
1, 36240, Note_on_c, 0, 65, 50
1, 36240, Note_on_c, 1, 60, 0
1, 36240, Note_on_c, 1, 55, 48
1, 36300, Note_on_c, 0, 65, 0
1, 36300, Note_on_c, 0, 67, 52
1, 36360, Note_on_c, 0, 67, 0
1, 36360, Note_on_c, 0, 64, 53
1, 36420, Note_on_c, 0, 64, 0
1, 36420, Note_on_c, 0, 65, 55
1, 36480, Note_on_c, 0, 65, 0
1, 36480, Note_on_c, 0, 62, 56
1, 36480, Note_on_c, 1, 55, 0
1, 36480, Note_on_c, 1, 52, 0
1, 36480, Note_on_c, 1, 57, 48
1, 36480, Note_on_c, 1, 53, 48
1, 36576, Note_on_c, 0, 62, 0
1, 36600, Note_on_c, 0, 64, 59
1, 36660, Note_on_c, 0, 64, 0
1, 36660, Note_on_c, 0, 65, 61
1, 36720, Note_on_c, 0, 65, 0
1, 36720, Note_on_c, 0, 67, 62
1, 36780, Note_on_c, 0, 67, 0
1, 36780, Note_on_c, 0, 69, 64
1, 36840, Note_on_c, 0, 69, 0
1, 36840, Note_on_c, 0, 71, 65
1, 36900, Note_on_c, 0, 71, 0
1, 36900, Note_on_c, 0, 72, 67
1, 36960, Note_on_c, 0, 72, 0
1, 36960, Note_on_c, 0, 74, 68
1, 36960, Note_on_c, 1, 53, 0
1, 36960, Note_on_c, 1, 57, 0
1, 36960, Note_on_c, 1, 59, 48
1, 36960, Note_on_c, 1, 55, 48
1, 36960, Note_on_c, 1, 53, 48
1, 37020, Note_on_c, 0, 74, 0
1, 37020, Note_on_c, 0, 76, 70
1, 37080, Note_on_c, 0, 76, 0
1, 37080, Note_on_c, 0, 77, 71
1, 37140, Note_on_c, 0, 77, 0
1, 37140, Note_on_c, 0, 79, 73
1, 37200, Note_on_c, 0, 79, 0
1, 37200, Note_on_c, 0, 81, 74
1, 37260, Note_on_c, 0, 81, 0
1, 37260, Note_on_c, 0, 83, 76
1, 37320, Note_on_c, 0, 83, 0
1, 37320, Note_on_c, 0, 84, 77
1, 37380, Note_on_c, 0, 84, 0
1, 37380, Note_on_c, 0, 86, 79
1, 37440, Note_on_c, 0, 86, 0
1, 37440, Note_on_c, 0, 88, 80
1, 37440, Note_on_c, 1, 53, 0
1, 37440, Note_on_c, 1, 55, 0
1, 37440, Note_on_c, 1, 59, 0
1, 37440, Note_on_c, 1, 52, 80
1, 37440, Note_on_c, 1, 55, 80
1, 37440, Note_on_c, 1, 60, 80
1, 37500, Note_on_c, 0, 88, 0
1, 37500, Note_on_c, 0, 84, 80
1, 37560, Note_on_c, 0, 84, 0
1, 37560, Note_on_c, 0, 83, 80
1, 37620, Note_on_c, 0, 83, 0
1, 37620, Note_on_c, 0, 84, 80
1, 37680, Note_on_c, 0, 84, 0
1, 37680, Note_on_c, 0, 83, 80
1, 37680, Note_on_c, 1, 60, 0
1, 37680, Note_on_c, 1, 55, 0
1, 37680, Note_on_c, 1, 52, 0
1, 37680, Note_on_c, 1, 53, 80
1, 37680, Note_on_c, 1, 60, 80
1, 37740, Note_on_c, 0, 83, 0
1, 37740, Note_on_c, 0, 81, 80
1, 37758, Note_on_c, 0, 81, 0
1, 37800, Note_on_c, 0, 79, 80
1, 37818, Note_on_c, 0, 79, 0
1, 37860, Note_on_c, 0, 77, 80
1, 37878, Note_on_c, 0, 77, 0
1, 37920, Note_on_c, 0, 76, 80
1, 37920, Note_on_c, 1, 53, 0
1, 37920, Note_on_c, 1, 55, 80
1, 38160, Note_on_c, 0, 76, 0
1, 38160, Note_on_c, 0, 76, 71
1, 38160, Note_on_c, 1, 55, 0
1, 38160, Note_on_c, 1, 60, 0
1, 38160, Note_on_c, 1, 55, 80
1, 38160, Note_on_c, 1, 59, 80
1, 38190, Note_on_c, 0, 76, 0
1, 38190, Note_on_c, 0, 74, 69
1, 38220, Note_on_c, 0, 74, 0
1, 38220, Note_on_c, 0, 76, 67
1, 38250, Note_on_c, 0, 76, 0
1, 38250, Note_on_c, 0, 74, 65
1, 38280, Note_on_c, 0, 74, 0
1, 38280, Note_on_c, 0, 76, 63
1, 38310, Note_on_c, 0, 76, 0
1, 38310, Note_on_c, 0, 74, 61
1, 38340, Note_on_c, 0, 74, 0
1, 38340, Note_on_c, 0, 72, 59
1, 38370, Note_on_c, 0, 72, 0
1, 38370, Note_on_c, 0, 74, 57
1, 38400, Note_on_c, 0, 74, 0
1, 38400, Note_on_c, 0, 72, 55
1, 38400, Note_on_c, 1, 59, 0
1, 38400, Note_on_c, 1, 55, 0
1, 38460, Note_on_c, 0, 72, 0
1, 38460, Note_on_c, 1, 72, 48
1, 38478, Note_on_c, 1, 72, 0
1, 38520, Note_on_c, 1, 71, 48
1, 38538, Note_on_c, 1, 71, 0
1, 38580, Note_on_c, 1, 69, 48
1, 38598, Note_on_c, 1, 69, 0
1, 38640, Note_on_c, 1, 67, 48
1, 38700, Note_on_c, 1, 67, 0
1, 38700, Note_on_c, 1, 69, 48
1, 38718, Note_on_c, 1, 69, 0
1, 38760, Note_on_c, 1, 66, 48
1, 38778, Note_on_c, 1, 66, 0
1, 38820, Note_on_c, 1, 69, 48
1, 38838, Note_on_c, 1, 69, 0
1, 38880, Note_on_c, 1, 67, 48
1, 38940, Note_on_c, 1, 67, 0
1, 38940, Note_on_c, 1, 69, 48
1, 38958, Note_on_c, 1, 69, 0
1, 39000, Note_on_c, 1, 66, 48
1, 39018, Note_on_c, 1, 66, 0
1, 39060, Note_on_c, 1, 69, 48
1, 39078, Note_on_c, 1, 69, 0
1, 39120, Note_on_c, 0, 74, 48
1, 39120, Note_on_c, 0, 83, 48
1, 39120, Note_on_c, 1, 67, 48
1, 39156, Note_on_c, 0, 83, 0
1, 39180, Note_on_c, 1, 67, 0
1, 39180, Note_on_c, 1, 69, 48
1, 39240, Note_on_c, 0, 79, 48
1, 39240, Note_on_c, 1, 69, 0
1, 39240, Note_on_c, 1, 65, 48
1, 39276, Note_on_c, 0, 79, 0
1, 39276, Note_on_c, 0, 74, 0
1, 39300, Note_on_c, 1, 65, 0
1, 39300, Note_on_c, 1, 67, 48
1, 39360, Note_on_c, 0, 76, 48
1, 39360, Note_on_c, 0, 84, 48
1, 39360, Note_on_c, 1, 67, 0
1, 39360, Note_on_c, 1, 64, 48
1, 39420, Note_on_c, 1, 64, 0
1, 39420, Note_on_c, 1, 72, 32
1, 39480, Note_on_c, 1, 72, 0
1, 39480, Note_on_c, 1, 71, 32
1, 39540, Note_on_c, 1, 71, 0
1, 39540, Note_on_c, 1, 69, 32
1, 39600, Note_on_c, 0, 84, 0
1, 39600, Note_on_c, 0, 76, 0
1, 39600, Note_on_c, 1, 69, 0
1, 39600, Note_on_c, 1, 67, 32
1, 39660, Note_on_c, 1, 67, 0
1, 39660, Note_on_c, 1, 69, 32
1, 39720, Note_on_c, 1, 69, 0
1, 39720, Note_on_c, 1, 66, 32
1, 39780, Note_on_c, 1, 66, 0
1, 39780, Note_on_c, 1, 69, 32
1, 39840, Note_on_c, 1, 69, 0
1, 39840, Note_on_c, 1, 67, 32
1, 39900, Note_on_c, 1, 67, 0
1, 39900, Note_on_c, 1, 69, 32
1, 39960, Note_on_c, 1, 69, 0
1, 39960, Note_on_c, 1, 66, 32
1, 40020, Note_on_c, 1, 66, 0
1, 40020, Note_on_c, 1, 69, 32
1, 40080, Note_on_c, 0, 74, 32
1, 40080, Note_on_c, 0, 83, 32
1, 40080, Note_on_c, 1, 69, 0
1, 40080, Note_on_c, 1, 67, 32
1, 40140, Note_on_c, 1, 67, 0
1, 40140, Note_on_c, 1, 69, 32
1, 40200, Note_on_c, 0, 83, 0
1, 40200, Note_on_c, 0, 79, 32
1, 40200, Note_on_c, 1, 69, 0
1, 40200, Note_on_c, 1, 65, 32
1, 40260, Note_on_c, 1, 65, 0
1, 40260, Note_on_c, 1, 67, 32
1, 40320, Note_on_c, 0, 79, 0
1, 40320, Note_on_c, 0, 74, 0
1, 40320, Note_on_c, 0, 76, 32
1, 40320, Note_on_c, 0, 84, 32
1, 40320, Note_on_c, 1, 67, 0
1, 40320, Note_on_c, 1, 64, 32
1, 40380, Note_on_c, 1, 64, 0
1, 40380, Note_on_c, 1, 65, 34
1, 40440, Note_on_c, 1, 65, 0
1, 40440, Note_on_c, 1, 62, 35
1, 40500, Note_on_c, 1, 62, 0
1, 40500, Note_on_c, 1, 64, 37
1, 40560, Note_on_c, 0, 84, 0
1, 40560, Note_on_c, 0, 76, 0
1, 40560, Note_on_c, 0, 81, 38
1, 40560, Note_on_c, 1, 64, 0
1, 40560, Note_on_c, 1, 60, 38
1, 40590, Note_on_c, 0, 81, 0
1, 40590, Note_on_c, 0, 79, 39
1, 40620, Note_on_c, 0, 79, 0
1, 40620, Note_on_c, 0, 81, 40
1, 40620, Note_on_c, 1, 60, 0
1, 40620, Note_on_c, 1, 62, 40
1, 40650, Note_on_c, 0, 81, 0
1, 40650, Note_on_c, 0, 79, 40
1, 40680, Note_on_c, 0, 79, 0
1, 40680, Note_on_c, 0, 81, 41
1, 40680, Note_on_c, 1, 62, 0
1, 40680, Note_on_c, 1, 59, 41
1, 40710, Note_on_c, 0, 81, 0
1, 40710, Note_on_c, 0, 79, 42
1, 40740, Note_on_c, 0, 79, 0
1, 40740, Note_on_c, 0, 78, 43
1, 40740, Note_on_c, 1, 59, 0
1, 40740, Note_on_c, 1, 60, 43
1, 40770, Note_on_c, 0, 78, 0
1, 40770, Note_on_c, 0, 79, 43
1, 40800, Note_on_c, 0, 79, 0
1, 40800, Note_on_c, 0, 84, 44
1, 40800, Note_on_c, 1, 60, 0
1, 40800, Note_on_c, 1, 57, 44
1, 40860, Note_on_c, 1, 57, 0
1, 40860, Note_on_c, 1, 59, 46
1, 40920, Note_on_c, 1, 59, 0
1, 40920, Note_on_c, 1, 55, 47
1, 40980, Note_on_c, 1, 55, 0
1, 40980, Note_on_c, 1, 57, 49
1, 41040, Note_on_c, 0, 77, 50
1, 41040, Note_on_c, 1, 57, 0
1, 41040, Note_on_c, 1, 53, 50
1, 41070, Note_on_c, 0, 77, 0
1, 41070, Note_on_c, 0, 76, 51
1, 41100, Note_on_c, 0, 76, 0
1, 41100, Note_on_c, 0, 77, 52
1, 41100, Note_on_c, 1, 53, 0
1, 41100, Note_on_c, 1, 55, 52
1, 41130, Note_on_c, 0, 77, 0
1, 41130, Note_on_c, 0, 76, 52
1, 41160, Note_on_c, 0, 76, 0
1, 41160, Note_on_c, 0, 77, 53
1, 41160, Note_on_c, 1, 55, 0
1, 41160, Note_on_c, 1, 52, 53
1, 41190, Note_on_c, 0, 77, 0
1, 41190, Note_on_c, 0, 76, 54
1, 41220, Note_on_c, 0, 76, 0
1, 41220, Note_on_c, 0, 74, 55
1, 41220, Note_on_c, 1, 52, 0
1, 41220, Note_on_c, 1, 53, 55
1, 41250, Note_on_c, 0, 74, 0
1, 41250, Note_on_c, 0, 76, 55
1, 41280, Note_on_c, 0, 76, 0
1, 41280, Note_on_c, 0, 77, 56
1, 41280, Note_on_c, 1, 53, 0
1, 41280, Note_on_c, 1, 50, 56
1, 41340, Note_on_c, 1, 50, 0
1, 41340, Note_on_c, 1, 52, 58
1, 41400, Note_on_c, 1, 52, 0
1, 41400, Note_on_c, 1, 48, 59
1, 41460, Note_on_c, 1, 48, 0
1, 41460, Note_on_c, 1, 50, 61
1, 41520, Note_on_c, 0, 84, 0
1, 41520, Note_on_c, 0, 86, 62
1, 41520, Note_on_c, 1, 50, 0
1, 41520, Note_on_c, 1, 47, 62
1, 41580, Note_on_c, 1, 47, 0
1, 41580, Note_on_c, 1, 48, 64
1, 41640, Note_on_c, 1, 48, 0
1, 41640, Note_on_c, 1, 45, 65
1, 41700, Note_on_c, 0, 86, 0
1, 41700, Note_on_c, 0, 88, 67
1, 41700, Note_on_c, 1, 45, 0
1, 41700, Note_on_c, 1, 47, 67
1, 41760, Note_on_c, 0, 88, 0
1, 41760, Note_on_c, 0, 89, 68
1, 41760, Note_on_c, 1, 47, 0
1, 41760, Note_on_c, 1, 43, 68
1, 41820, Note_on_c, 1, 43, 0
1, 41820, Note_on_c, 1, 45, 70
1, 41880, Note_on_c, 1, 45, 0
1, 41880, Note_on_c, 1, 41, 71
1, 41940, Note_on_c, 1, 41, 0
1, 41940, Note_on_c, 1, 43, 73
1, 42000, Note_on_c, 0, 89, 0
1, 42000, Note_on_c, 0, 77, 0
1, 42000, Note_on_c, 0, 79, 74
1, 42000, Note_on_c, 0, 84, 74
1, 42000, Note_on_c, 1, 43, 0
1, 42000, Note_on_c, 1, 40, 74
1, 42030, Note_on_c, 0, 84, 0
1, 42030, Note_on_c, 0, 83, 75
1, 42060, Note_on_c, 0, 83, 0
1, 42060, Note_on_c, 0, 84, 76
1, 42060, Note_on_c, 1, 40, 0
1, 42060, Note_on_c, 1, 41, 76
1, 42090, Note_on_c, 0, 84, 0
1, 42090, Note_on_c, 0, 83, 76
1, 42120, Note_on_c, 0, 83, 0
1, 42120, Note_on_c, 0, 84, 77
1, 42120, Note_on_c, 1, 41, 0
1, 42120, Note_on_c, 1, 38, 77
1, 42150, Note_on_c, 0, 84, 0
1, 42150, Note_on_c, 0, 83, 78
1, 42180, Note_on_c, 0, 83, 0
1, 42180, Note_on_c, 0, 81, 79
1, 42180, Note_on_c, 1, 38, 0
1, 42180, Note_on_c, 1, 40, 79
1, 42210, Note_on_c, 0, 81, 0
1, 42210, Note_on_c, 0, 83, 79
1, 42240, Note_on_c, 0, 83, 0
1, 42240, Note_on_c, 0, 79, 0
1, 42240, Note_on_c, 0, 84, 80
1, 42240, Note_on_c, 0, 79, 80
1, 42240, Note_on_c, 1, 40, 0
1, 42240, Note_on_c, 1, 40, 80
1, 42300, Note_on_c, 0, 84, 0
1, 42300, Note_on_c, 0, 83, 80
1, 42360, Note_on_c, 0, 83, 0
1, 42360, Note_on_c, 0, 79, 0
1, 42360, Note_on_c, 0, 84, 80
1, 42360, Note_on_c, 1, 40, 0
1, 42378, Note_on_c, 0, 84, 0
1, 42420, Note_on_c, 0, 79, 80
1, 42438, Note_on_c, 0, 79, 0
1, 42480, Note_on_c, 0, 83, 80
1, 42480, Note_on_c, 0, 74, 80
1, 42480, Note_on_c, 1, 41, 80
1, 42540, Note_on_c, 0, 83, 0
1, 42540, Note_on_c, 0, 81, 80
1, 42600, Note_on_c, 0, 81, 0
1, 42600, Note_on_c, 0, 74, 0
1, 42600, Note_on_c, 0, 79, 80
1, 42600, Note_on_c, 1, 41, 0
1, 42660, Note_on_c, 0, 79, 0
1, 42660, Note_on_c, 0, 77, 80
1, 42720, Note_on_c, 0, 77, 0
1, 42720, Note_on_c, 0, 76, 80
1, 42720, Note_on_c, 0, 72, 80
1, 42720, Note_on_c, 1, 43, 80
1, 42780, Note_on_c, 0, 76, 0
1, 42780, Note_on_c, 0, 77, 80
1, 42798, Note_on_c, 0, 77, 0
1, 42840, Note_on_c, 0, 72, 0
1, 42840, Note_on_c, 0, 79, 80
1, 42840, Note_on_c, 1, 43, 0
1, 42858, Note_on_c, 0, 79, 0
1, 42900, Note_on_c, 0, 76, 80
1, 42918, Note_on_c, 0, 76, 0
1, 42960, Note_on_c, 0, 74, 80
1, 42960, Note_on_c, 0, 71, 80
1, 42960, Note_on_c, 1, 31, 80
1, 43020, Note_on_c, 0, 74, 0
1, 43020, Note_on_c, 0, 76, 80
1, 43080, Note_on_c, 0, 76, 0
1, 43080, Note_on_c, 0, 71, 0
1, 43080, Note_on_c, 0, 77, 80
1, 43080, Note_on_c, 1, 31, 0
1, 43140, Note_on_c, 0, 77, 0
1, 43140, Note_on_c, 0, 74, 80
1, 43200, Note_on_c, 0, 74, 0
1, 43200, Note_on_c, 0, 72, 32
1, 43200, Note_on_c, 1, 60, 32
1, 43260, Note_on_c, 1, 60, 0
1, 43260, Note_on_c, 1, 62, 33
1, 43320, Note_on_c, 1, 62, 0
1, 43320, Note_on_c, 1, 64, 34
1, 43380, Note_on_c, 1, 64, 0
1, 43380, Note_on_c, 1, 62, 35
1, 43440, Note_on_c, 0, 72, 0
1, 43440, Note_on_c, 0, 72, 36
1, 43440, Note_on_c, 0, 76, 36
1, 43440, Note_on_c, 1, 62, 0
1, 43440, Note_on_c, 1, 60, 36
1, 43500, Note_on_c, 1, 60, 0
1, 43500, Note_on_c, 1, 59, 37
1, 43530, Note_on_c, 0, 76, 0
1, 43530, Note_on_c, 0, 72, 0
1, 43560, Note_on_c, 1, 59, 0
1, 43560, Note_on_c, 1, 57, 38
1, 43578, Note_on_c, 1, 57, 0
1, 43620, Note_on_c, 0, 72, 39
1, 43620, Note_on_c, 0, 76, 39
1, 43620, Note_on_c, 1, 56, 39
1, 43638, Note_on_c, 1, 56, 0
1, 43650, Note_on_c, 0, 76, 0
1, 43650, Note_on_c, 0, 72, 0
1, 43680, Note_on_c, 0, 72, 40
1, 43680, Note_on_c, 0, 76, 40
1, 43680, Note_on_c, 1, 57, 40
1, 43740, Note_on_c, 1, 57, 0
1, 43740, Note_on_c, 1, 59, 41
1, 43800, Note_on_c, 1, 59, 0
1, 43800, Note_on_c, 1, 60, 42
1, 43860, Note_on_c, 1, 60, 0
1, 43860, Note_on_c, 1, 59, 43
1, 43920, Note_on_c, 0, 76, 0
1, 43920, Note_on_c, 0, 72, 0
1, 43920, Note_on_c, 0, 72, 44
1, 43920, Note_on_c, 0, 76, 44
1, 43920, Note_on_c, 1, 59, 0
1, 43920, Note_on_c, 1, 57, 44
1, 43980, Note_on_c, 1, 57, 0
1, 43980, Note_on_c, 1, 55, 45
1, 44010, Note_on_c, 0, 76, 0
1, 44010, Note_on_c, 0, 72, 0
1, 44040, Note_on_c, 1, 55, 0
1, 44040, Note_on_c, 1, 53, 46
1, 44100, Note_on_c, 0, 72, 47
1, 44100, Note_on_c, 0, 76, 47
1, 44100, Note_on_c, 1, 53, 0
1, 44100, Note_on_c, 1, 52, 47
1, 44130, Note_on_c, 0, 76, 0
1, 44130, Note_on_c, 0, 72, 0
1, 44160, Note_on_c, 0, 72, 48
1, 44160, Note_on_c, 0, 74, 48
1, 44160, Note_on_c, 1, 52, 0
1, 44160, Note_on_c, 1, 53, 48
1, 44220, Note_on_c, 1, 53, 0
1, 44220, Note_on_c, 1, 55, 49
1, 44280, Note_on_c, 1, 55, 0
1, 44280, Note_on_c, 1, 57, 50
1, 44340, Note_on_c, 1, 57, 0
1, 44340, Note_on_c, 1, 55, 51
1, 44400, Note_on_c, 0, 74, 0
1, 44400, Note_on_c, 0, 72, 0
1, 44400, Note_on_c, 0, 72, 52
1, 44400, Note_on_c, 0, 74, 52
1, 44400, Note_on_c, 1, 55, 0
1, 44400, Note_on_c, 1, 53, 52
1, 44460, Note_on_c, 1, 53, 0
1, 44460, Note_on_c, 1, 50, 53
1, 44478, Note_on_c, 1, 50, 0
1, 44490, Note_on_c, 0, 74, 0
1, 44490, Note_on_c, 0, 72, 0
1, 44520, Note_on_c, 1, 52, 54
1, 44538, Note_on_c, 1, 52, 0
1, 44580, Note_on_c, 0, 72, 55
1, 44580, Note_on_c, 0, 74, 55
1, 44580, Note_on_c, 1, 53, 55
1, 44598, Note_on_c, 1, 53, 0
1, 44610, Note_on_c, 0, 74, 0
1, 44610, Note_on_c, 0, 72, 0
1, 44640, Note_on_c, 0, 71, 56
1, 44640, Note_on_c, 0, 74, 56
1, 44640, Note_on_c, 1, 55, 56
1, 44700, Note_on_c, 1, 55, 0
1, 44700, Note_on_c, 1, 54, 57
1, 44760, Note_on_c, 1, 54, 0
1, 44760, Note_on_c, 1, 55, 58
1, 44820, Note_on_c, 1, 55, 0
1, 44820, Note_on_c, 1, 54, 59
1, 44880, Note_on_c, 0, 74, 0
1, 44880, Note_on_c, 0, 71, 0
1, 44880, Note_on_c, 0, 71, 60
1, 44880, Note_on_c, 0, 79, 60
1, 44880, Note_on_c, 1, 54, 0
1, 44880, Note_on_c, 1, 55, 60
1, 44940, Note_on_c, 1, 55, 0
1, 44940, Note_on_c, 1, 53, 61
1, 44958, Note_on_c, 1, 53, 0
1, 44970, Note_on_c, 0, 79, 0
1, 44970, Note_on_c, 0, 71, 0
1, 45000, Note_on_c, 1, 52, 62
1, 45018, Note_on_c, 1, 52, 0
1, 45060, Note_on_c, 0, 71, 63
1, 45060, Note_on_c, 0, 79, 63
1, 45060, Note_on_c, 1, 50, 63
1, 45078, Note_on_c, 1, 50, 0
1, 45090, Note_on_c, 0, 79, 0
1, 45090, Note_on_c, 0, 71, 0
1, 45120, Note_on_c, 0, 72, 64
1, 45120, Note_on_c, 0, 76, 64
1, 45120, Note_on_c, 1, 48, 64
1, 45180, Note_on_c, 1, 48, 0
1, 45180, Note_on_c, 1, 50, 65
1, 45240, Note_on_c, 1, 50, 0
1, 45240, Note_on_c, 1, 52, 66
1, 45300, Note_on_c, 1, 52, 0
1, 45300, Note_on_c, 1, 50, 67
1, 45360, Note_on_c, 0, 76, 0
1, 45360, Note_on_c, 0, 72, 0
1, 45360, Note_on_c, 0, 72, 68
1, 45360, Note_on_c, 0, 76, 68
1, 45360, Note_on_c, 0, 84, 68
1, 45360, Note_on_c, 1, 50, 0
1, 45360, Note_on_c, 1, 48, 68
1, 45420, Note_on_c, 1, 48, 0
1, 45420, Note_on_c, 1, 47, 69
1, 45450, Note_on_c, 0, 84, 0
1, 45450, Note_on_c, 0, 76, 0
1, 45450, Note_on_c, 0, 72, 0
1, 45480, Note_on_c, 1, 47, 0
1, 45480, Note_on_c, 1, 45, 70
1, 45540, Note_on_c, 0, 72, 71
1, 45540, Note_on_c, 0, 76, 71
1, 45540, Note_on_c, 0, 84, 71
1, 45540, Note_on_c, 1, 45, 0
1, 45540, Note_on_c, 1, 44, 71
1, 45570, Note_on_c, 0, 84, 0
1, 45570, Note_on_c, 0, 76, 0
1, 45570, Note_on_c, 0, 72, 0
1, 45600, Note_on_c, 0, 72, 72
1, 45600, Note_on_c, 0, 76, 72
1, 45600, Note_on_c, 0, 84, 72
1, 45600, Note_on_c, 1, 44, 0
1, 45600, Note_on_c, 1, 45, 72
1, 45660, Note_on_c, 1, 45, 0
1, 45660, Note_on_c, 1, 47, 73
1, 45720, Note_on_c, 1, 47, 0
1, 45720, Note_on_c, 1, 48, 74
1, 45780, Note_on_c, 1, 48, 0
1, 45780, Note_on_c, 1, 47, 75
1, 45840, Note_on_c, 0, 84, 0
1, 45840, Note_on_c, 0, 76, 0
1, 45840, Note_on_c, 0, 72, 0
1, 45840, Note_on_c, 0, 72, 76
1, 45840, Note_on_c, 0, 76, 76
1, 45840, Note_on_c, 0, 84, 76
1, 45840, Note_on_c, 1, 47, 0
1, 45840, Note_on_c, 1, 45, 76
1, 45900, Note_on_c, 1, 45, 0
1, 45900, Note_on_c, 1, 43, 77
1, 45930, Note_on_c, 0, 84, 0
1, 45930, Note_on_c, 0, 76, 0
1, 45930, Note_on_c, 0, 72, 0
1, 45960, Note_on_c, 1, 43, 0
1, 45960, Note_on_c, 1, 41, 78
1, 46020, Note_on_c, 0, 72, 79
1, 46020, Note_on_c, 0, 76, 79
1, 46020, Note_on_c, 0, 84, 79
1, 46020, Note_on_c, 1, 41, 0
1, 46020, Note_on_c, 1, 40, 79
1, 46050, Note_on_c, 0, 84, 0
1, 46050, Note_on_c, 0, 76, 0
1, 46050, Note_on_c, 0, 72, 0
1, 46080, Note_on_c, 0, 74, 80
1, 46080, Note_on_c, 0, 81, 80
1, 46080, Note_on_c, 0, 84, 80
1, 46080, Note_on_c, 1, 40, 0
1, 46080, Note_on_c, 1, 41, 80
1, 46140, Note_on_c, 1, 41, 0
1, 46140, Note_on_c, 1, 43, 81
1, 46200, Note_on_c, 1, 43, 0
1, 46200, Note_on_c, 1, 45, 82
1, 46260, Note_on_c, 1, 45, 0
1, 46260, Note_on_c, 1, 43, 83
1, 46320, Note_on_c, 0, 84, 0
1, 46320, Note_on_c, 0, 81, 0
1, 46320, Note_on_c, 0, 74, 0
1, 46320, Note_on_c, 0, 74, 84
1, 46320, Note_on_c, 0, 81, 84
1, 46320, Note_on_c, 0, 84, 84
1, 46320, Note_on_c, 1, 43, 0
1, 46320, Note_on_c, 1, 41, 84
1, 46380, Note_on_c, 1, 41, 0
1, 46380, Note_on_c, 1, 38, 85
1, 46440, Note_on_c, 1, 38, 0
1, 46440, Note_on_c, 1, 40, 86
1, 46500, Note_on_c, 0, 84, 0
1, 46500, Note_on_c, 0, 81, 0
1, 46500, Note_on_c, 0, 74, 0
1, 46500, Note_on_c, 0, 74, 87
1, 46500, Note_on_c, 0, 81, 87
1, 46500, Note_on_c, 0, 84, 87
1, 46500, Note_on_c, 1, 40, 0
1, 46500, Note_on_c, 1, 41, 87
1, 46560, Note_on_c, 0, 84, 0
1, 46560, Note_on_c, 0, 81, 0
1, 46560, Note_on_c, 0, 74, 0
1, 46560, Note_on_c, 0, 74, 88
1, 46560, Note_on_c, 0, 79, 88
1, 46560, Note_on_c, 0, 83, 88
1, 46560, Note_on_c, 1, 41, 0
1, 46560, Note_on_c, 1, 43, 88
1, 46620, Note_on_c, 1, 43, 0
1, 46620, Note_on_c, 1, 42, 89
1, 46680, Note_on_c, 1, 42, 0
1, 46680, Note_on_c, 1, 43, 90
1, 46740, Note_on_c, 1, 43, 0
1, 46740, Note_on_c, 1, 42, 91
1, 46800, Note_on_c, 0, 83, 0
1, 46800, Note_on_c, 0, 79, 0
1, 46800, Note_on_c, 0, 74, 0
1, 46800, Note_on_c, 0, 74, 92
1, 46800, Note_on_c, 0, 79, 92
1, 46800, Note_on_c, 0, 83, 92
1, 46800, Note_on_c, 1, 42, 0
1, 46800, Note_on_c, 1, 43, 92
1, 46860, Note_on_c, 1, 43, 0
1, 46860, Note_on_c, 1, 41, 93
1, 46920, Note_on_c, 1, 41, 0
1, 46920, Note_on_c, 1, 40, 94
1, 46980, Note_on_c, 0, 83, 0
1, 46980, Note_on_c, 0, 79, 0
1, 46980, Note_on_c, 0, 74, 0
1, 46980, Note_on_c, 0, 74, 95
1, 46980, Note_on_c, 0, 79, 95
1, 46980, Note_on_c, 0, 83, 95
1, 46980, Note_on_c, 1, 40, 0
1, 46980, Note_on_c, 1, 38, 95
1, 47040, Note_on_c, 0, 83, 0
1, 47040, Note_on_c, 0, 79, 0
1, 47040, Note_on_c, 0, 74, 0
1, 47040, Note_on_c, 0, 76, 96
1, 47040, Note_on_c, 0, 79, 96
1, 47040, Note_on_c, 0, 84, 96
1, 47040, Note_on_c, 1, 38, 0
1, 47040, Note_on_c, 1, 36, 96
1, 47208, Note_on_c, 0, 84, 0
1, 47208, Note_on_c, 0, 79, 0
1, 47208, Note_on_c, 0, 76, 0
1, 47208, Note_on_c, 1, 36, 0
1, 47280, Note_on_c, 0, 72, 96
1, 47280, Note_on_c, 0, 76, 96
1, 47280, Note_on_c, 0, 79, 96
1, 47280, Note_on_c, 1, 48, 96
1, 47280, Note_on_c, 1, 36, 96
1, 47448, Note_on_c, 0, 79, 0
1, 47448, Note_on_c, 0, 76, 0
1, 47448, Note_on_c, 0, 72, 0
1, 47448, Note_on_c, 1, 36, 0
1, 47448, Note_on_c, 1, 48, 0
1, 47520, Note_on_c, 0, 67, 96
1, 47520, Note_on_c, 0, 72, 96
1, 47520, Note_on_c, 0, 76, 96
1, 47520, Note_on_c, 1, 48, 96
1, 47520, Note_on_c, 1, 36, 96
1, 47760, Note_on_c, 0, 76, 0
1, 47760, Note_on_c, 0, 72, 0
1, 47760, Note_on_c, 0, 67, 0
1, 47760, Note_on_c, 1, 36, 0
1, 47760, Note_on_c, 1, 48, 0
1, 48000, Note_on_c, 0, 78, 80
1, 48000, Note_on_c, 1, 55, 56
1, 48000, Note_on_c, 1, 52, 56
1, 48000, Note_on_c, 1, 48, 56
1, 48060, Note_on_c, 0, 78, 0
1, 48060, Note_on_c, 0, 79, 80
1, 48060, Note_on_c, 1, 48, 0
1, 48060, Note_on_c, 1, 52, 0
1, 48060, Note_on_c, 1, 55, 0
1, 48120, Note_on_c, 1, 55, 48
1, 48120, Note_on_c, 1, 52, 48
1, 48120, Note_on_c, 1, 48, 48
1, 48240, Note_on_c, 0, 79, 0
1, 48240, Note_on_c, 0, 79, 80
1, 48240, Note_on_c, 1, 48, 0
1, 48240, Note_on_c, 1, 52, 0
1, 48240, Note_on_c, 1, 55, 0
1, 48240, Note_on_c, 1, 55, 48
1, 48240, Note_on_c, 1, 52, 48
1, 48240, Note_on_c, 1, 48, 48
1, 48360, Note_on_c, 1, 48, 0
1, 48360, Note_on_c, 1, 52, 0
1, 48360, Note_on_c, 1, 55, 0
1, 48360, Note_on_c, 1, 55, 48
1, 48360, Note_on_c, 1, 52, 48
1, 48360, Note_on_c, 1, 48, 48
1, 48420, Note_on_c, 0, 79, 0
1, 48420, Note_on_c, 0, 79, 84
1, 48420, Note_on_c, 1, 48, 0
1, 48420, Note_on_c, 1, 52, 0
1, 48420, Note_on_c, 1, 55, 0
1, 48480, Note_on_c, 0, 79, 0
1, 48480, Note_on_c, 0, 79, 88
1, 48480, Note_on_c, 1, 55, 56
1, 48480, Note_on_c, 1, 52, 56
1, 48480, Note_on_c, 1, 48, 56
1, 48540, Note_on_c, 1, 48, 0
1, 48540, Note_on_c, 1, 52, 0
1, 48540, Note_on_c, 1, 55, 0
1, 48600, Note_on_c, 1, 55, 48
1, 48600, Note_on_c, 1, 52, 48
1, 48600, Note_on_c, 1, 48, 48
1, 48720, Note_on_c, 0, 79, 0
1, 48720, Note_on_c, 0, 76, 80
1, 48720, Note_on_c, 1, 48, 0
1, 48720, Note_on_c, 1, 52, 0
1, 48720, Note_on_c, 1, 55, 0
1, 48720, Note_on_c, 1, 55, 48
1, 48720, Note_on_c, 1, 52, 48
1, 48720, Note_on_c, 1, 48, 48
1, 48840, Note_on_c, 1, 48, 0
1, 48840, Note_on_c, 1, 52, 0
1, 48840, Note_on_c, 1, 55, 0
1, 48840, Note_on_c, 1, 55, 48
1, 48840, Note_on_c, 1, 52, 48
1, 48840, Note_on_c, 1, 48, 48
1, 48900, Note_on_c, 0, 76, 0
1, 48900, Note_on_c, 0, 72, 80
1, 48900, Note_on_c, 1, 48, 0
1, 48900, Note_on_c, 1, 52, 0
1, 48900, Note_on_c, 1, 55, 0
1, 48960, Note_on_c, 0, 72, 0
1, 48960, Note_on_c, 0, 72, 80
1, 48960, Note_on_c, 1, 55, 56
1, 48960, Note_on_c, 1, 53, 56
1, 48960, Note_on_c, 1, 50, 56
1, 48960, Note_on_c, 1, 48, 56
1, 49020, Note_on_c, 1, 48, 0
1, 49020, Note_on_c, 1, 55, 0
1, 49020, Note_on_c, 1, 53, 0
1, 49020, Note_on_c, 1, 50, 0
1, 49080, Note_on_c, 0, 72, 0
1, 49080, Note_on_c, 0, 71, 80
1, 49080, Note_on_c, 1, 55, 48
1, 49080, Note_on_c, 1, 53, 48
1, 49080, Note_on_c, 1, 50, 48
1, 49080, Note_on_c, 1, 48, 48
1, 49140, Note_on_c, 0, 71, 0
1, 49200, Note_on_c, 0, 71, 80
1, 49200, Note_on_c, 1, 48, 0
1, 49200, Note_on_c, 1, 55, 0
1, 49200, Note_on_c, 1, 53, 0
1, 49200, Note_on_c, 1, 50, 0
1, 49200, Note_on_c, 1, 55, 48
1, 49200, Note_on_c, 1, 53, 48
1, 49200, Note_on_c, 1, 50, 48
1, 49200, Note_on_c, 1, 48, 48
1, 49320, Note_on_c, 1, 48, 0
1, 49320, Note_on_c, 1, 55, 0
1, 49320, Note_on_c, 1, 53, 0
1, 49320, Note_on_c, 1, 50, 0
1, 49320, Note_on_c, 1, 55, 48
1, 49320, Note_on_c, 1, 53, 48
1, 49320, Note_on_c, 1, 50, 48
1, 49320, Note_on_c, 1, 48, 48
1, 49380, Note_on_c, 1, 48, 0
1, 49380, Note_on_c, 1, 55, 0
1, 49380, Note_on_c, 1, 53, 0
1, 49380, Note_on_c, 1, 50, 0
1, 49440, Note_on_c, 1, 55, 48
1, 49440, Note_on_c, 1, 53, 48
1, 49440, Note_on_c, 1, 50, 48
1, 49440, Note_on_c, 1, 48, 48
1, 49500, Note_on_c, 1, 48, 0
1, 49500, Note_on_c, 1, 55, 0
1, 49500, Note_on_c, 1, 53, 0
1, 49500, Note_on_c, 1, 50, 0
1, 49560, Note_on_c, 1, 55, 48
1, 49560, Note_on_c, 1, 53, 48
1, 49560, Note_on_c, 1, 50, 48
1, 49560, Note_on_c, 1, 48, 48
1, 49620, Note_on_c, 1, 48, 0
1, 49620, Note_on_c, 1, 55, 0
1, 49620, Note_on_c, 1, 53, 0
1, 49620, Note_on_c, 1, 50, 0
1, 49680, Note_on_c, 0, 71, 0
1, 49680, Note_on_c, 0, 77, 80
1, 49680, Note_on_c, 1, 55, 48
1, 49680, Note_on_c, 1, 53, 48
1, 49680, Note_on_c, 1, 50, 48
1, 49680, Note_on_c, 1, 48, 48
1, 49740, Note_on_c, 1, 48, 0
1, 49740, Note_on_c, 1, 55, 0
1, 49740, Note_on_c, 1, 53, 0
1, 49740, Note_on_c, 1, 50, 0
1, 49800, Note_on_c, 1, 55, 48
1, 49800, Note_on_c, 1, 53, 48
1, 49800, Note_on_c, 1, 50, 48
1, 49800, Note_on_c, 1, 48, 48
1, 49860, Note_on_c, 0, 77, 0
1, 49860, Note_on_c, 0, 74, 80
1, 49860, Note_on_c, 1, 48, 0
1, 49860, Note_on_c, 1, 55, 0
1, 49860, Note_on_c, 1, 53, 0
1, 49860, Note_on_c, 1, 50, 0
1, 49920, Note_on_c, 0, 74, 0
1, 49920, Note_on_c, 0, 79, 80
1, 49920, Note_on_c, 1, 48, 56
1, 49920, Note_on_c, 1, 52, 56
1, 49920, Note_on_c, 1, 55, 56
1, 49980, Note_on_c, 1, 55, 0
1, 49980, Note_on_c, 1, 52, 0
1, 49980, Note_on_c, 1, 48, 0
1, 50040, Note_on_c, 1, 48, 48
1, 50040, Note_on_c, 1, 52, 48
1, 50040, Note_on_c, 1, 55, 48
1, 50160, Note_on_c, 0, 79, 0
1, 50160, Note_on_c, 0, 79, 84
1, 50160, Note_on_c, 1, 55, 0
1, 50160, Note_on_c, 1, 52, 0
1, 50160, Note_on_c, 1, 48, 0
1, 50160, Note_on_c, 1, 48, 48
1, 50160, Note_on_c, 1, 52, 48
1, 50160, Note_on_c, 1, 55, 48
1, 50280, Note_on_c, 1, 55, 0
1, 50280, Note_on_c, 1, 52, 0
1, 50280, Note_on_c, 1, 48, 0
1, 50280, Note_on_c, 1, 48, 48
1, 50280, Note_on_c, 1, 52, 48
1, 50280, Note_on_c, 1, 55, 48
1, 50340, Note_on_c, 0, 79, 0
1, 50340, Note_on_c, 0, 79, 88
1, 50340, Note_on_c, 1, 55, 0
1, 50340, Note_on_c, 1, 52, 0
1, 50340, Note_on_c, 1, 48, 0
1, 50400, Note_on_c, 0, 79, 0
1, 50400, Note_on_c, 0, 79, 92
1, 50400, Note_on_c, 1, 48, 48
1, 50400, Note_on_c, 1, 52, 48
1, 50400, Note_on_c, 1, 55, 48
1, 50460, Note_on_c, 1, 55, 0
1, 50460, Note_on_c, 1, 52, 0
1, 50460, Note_on_c, 1, 48, 0
1, 50520, Note_on_c, 0, 79, 0
1, 50520, Note_on_c, 0, 81, 80
1, 50520, Note_on_c, 1, 48, 48
1, 50520, Note_on_c, 1, 52, 48
1, 50520, Note_on_c, 1, 55, 48
1, 50580, Note_on_c, 0, 81, 0
1, 50580, Note_on_c, 0, 79, 80
1, 50580, Note_on_c, 1, 55, 0
1, 50580, Note_on_c, 1, 52, 0
1, 50580, Note_on_c, 1, 48, 0
1, 50640, Note_on_c, 0, 79, 0
1, 50640, Note_on_c, 0, 77, 80
1, 50640, Note_on_c, 1, 48, 48
1, 50640, Note_on_c, 1, 52, 48
1, 50640, Note_on_c, 1, 55, 48
1, 50700, Note_on_c, 0, 77, 0
1, 50700, Note_on_c, 0, 76, 80
1, 50700, Note_on_c, 1, 55, 0
1, 50700, Note_on_c, 1, 52, 0
1, 50700, Note_on_c, 1, 48, 0
1, 50760, Note_on_c, 0, 76, 0
1, 50760, Note_on_c, 0, 74, 80
1, 50760, Note_on_c, 1, 48, 48
1, 50760, Note_on_c, 1, 52, 48
1, 50760, Note_on_c, 1, 55, 48
1, 50820, Note_on_c, 0, 74, 0
1, 50820, Note_on_c, 0, 72, 80
1, 50820, Note_on_c, 1, 55, 0
1, 50820, Note_on_c, 1, 52, 0
1, 50820, Note_on_c, 1, 48, 0
1, 50880, Note_on_c, 0, 72, 0
1, 50880, Note_on_c, 0, 72, 80
1, 50880, Note_on_c, 1, 55, 48
1, 50880, Note_on_c, 1, 49, 48
1, 50880, Note_on_c, 1, 52, 48
1, 50940, Note_on_c, 1, 52, 0
1, 50940, Note_on_c, 1, 49, 0
1, 50940, Note_on_c, 1, 55, 0
1, 51000, Note_on_c, 0, 72, 0
1, 51000, Note_on_c, 0, 70, 80
1, 51000, Note_on_c, 1, 55, 48
1, 51000, Note_on_c, 1, 49, 48
1, 51000, Note_on_c, 1, 52, 48
1, 51060, Note_on_c, 0, 70, 0
1, 51060, Note_on_c, 1, 52, 0
1, 51060, Note_on_c, 1, 49, 0
1, 51060, Note_on_c, 1, 55, 0
1, 51120, Note_on_c, 0, 70, 80
1, 51120, Note_on_c, 1, 55, 48
1, 51120, Note_on_c, 1, 49, 48
1, 51120, Note_on_c, 1, 52, 48
1, 51180, Note_on_c, 1, 52, 0
1, 51180, Note_on_c, 1, 49, 0
1, 51180, Note_on_c, 1, 55, 0
1, 51240, Note_on_c, 1, 55, 48
1, 51240, Note_on_c, 1, 49, 48
1, 51240, Note_on_c, 1, 52, 48
1, 51300, Note_on_c, 1, 52, 0
1, 51300, Note_on_c, 1, 49, 0
1, 51300, Note_on_c, 1, 55, 0
1, 51360, Note_on_c, 1, 55, 48
1, 51360, Note_on_c, 1, 49, 48
1, 51360, Note_on_c, 1, 52, 48
1, 51420, Note_on_c, 1, 52, 0
1, 51420, Note_on_c, 1, 49, 0
1, 51420, Note_on_c, 1, 55, 0
1, 51480, Note_on_c, 0, 70, 0
1, 51480, Note_on_c, 0, 73, 80
1, 51480, Note_on_c, 1, 55, 48
1, 51480, Note_on_c, 1, 49, 48
1, 51480, Note_on_c, 1, 52, 48
1, 51540, Note_on_c, 0, 73, 0
1, 51540, Note_on_c, 1, 52, 0
1, 51540, Note_on_c, 1, 49, 0
1, 51540, Note_on_c, 1, 55, 0
1, 51600, Note_on_c, 0, 76, 84
1, 51600, Note_on_c, 1, 55, 48
1, 51600, Note_on_c, 1, 49, 48
1, 51600, Note_on_c, 1, 52, 48
1, 51636, Note_on_c, 0, 76, 0
1, 51636, Note_on_c, 1, 52, 0
1, 51636, Note_on_c, 1, 49, 0
1, 51636, Note_on_c, 1, 55, 0
1, 51720, Note_on_c, 0, 79, 88
1, 51720, Note_on_c, 1, 55, 48
1, 51720, Note_on_c, 1, 49, 48
1, 51720, Note_on_c, 1, 52, 48
1, 51756, Note_on_c, 0, 79, 0
1, 51756, Note_on_c, 1, 52, 0
1, 51756, Note_on_c, 1, 49, 0
1, 51756, Note_on_c, 1, 55, 0
1, 51840, Note_on_c, 0, 82, 92
1, 51840, Note_on_c, 1, 55, 48
1, 51840, Note_on_c, 1, 52, 48
1, 51840, Note_on_c, 1, 48, 48
1, 51900, Note_on_c, 1, 48, 0
1, 51900, Note_on_c, 1, 52, 0
1, 51900, Note_on_c, 1, 55, 0
1, 51960, Note_on_c, 0, 82, 0
1, 51960, Note_on_c, 0, 79, 64
1, 51960, Note_on_c, 1, 55, 40
1, 51960, Note_on_c, 1, 52, 40
1, 51960, Note_on_c, 1, 48, 40
1, 52020, Note_on_c, 0, 79, 0
1, 52020, Note_on_c, 1, 48, 0
1, 52020, Note_on_c, 1, 52, 0
1, 52020, Note_on_c, 1, 55, 0
1, 52080, Note_on_c, 0, 76, 64
1, 52080, Note_on_c, 1, 55, 40
1, 52080, Note_on_c, 1, 52, 40
1, 52080, Note_on_c, 1, 48, 40
1, 52116, Note_on_c, 0, 76, 0
1, 52116, Note_on_c, 1, 48, 0
1, 52116, Note_on_c, 1, 52, 0
1, 52116, Note_on_c, 1, 55, 0
1, 52200, Note_on_c, 0, 72, 64
1, 52200, Note_on_c, 1, 55, 40
1, 52200, Note_on_c, 1, 52, 40
1, 52200, Note_on_c, 1, 48, 40
1, 52236, Note_on_c, 0, 72, 0
1, 52236, Note_on_c, 1, 48, 0
1, 52236, Note_on_c, 1, 52, 0
1, 52236, Note_on_c, 1, 55, 0
1, 52320, Note_on_c, 0, 70, 64
1, 52320, Note_on_c, 1, 52, 40
1, 52320, Note_on_c, 1, 49, 40
1, 52320, Note_on_c, 1, 55, 40
1, 52380, Note_on_c, 1, 55, 0
1, 52380, Note_on_c, 1, 49, 0
1, 52380, Note_on_c, 1, 52, 0
1, 52440, Note_on_c, 0, 70, 0
1, 52440, Note_on_c, 0, 73, 80
1, 52440, Note_on_c, 1, 52, 40
1, 52440, Note_on_c, 1, 49, 40
1, 52440, Note_on_c, 1, 55, 40
1, 52500, Note_on_c, 0, 73, 0
1, 52500, Note_on_c, 1, 55, 0
1, 52500, Note_on_c, 1, 49, 0
1, 52500, Note_on_c, 1, 52, 0
1, 52560, Note_on_c, 0, 76, 84
1, 52560, Note_on_c, 1, 52, 40
1, 52560, Note_on_c, 1, 49, 40
1, 52560, Note_on_c, 1, 55, 40
1, 52596, Note_on_c, 0, 76, 0
1, 52596, Note_on_c, 1, 55, 0
1, 52596, Note_on_c, 1, 49, 0
1, 52596, Note_on_c, 1, 52, 0
1, 52680, Note_on_c, 0, 79, 88
1, 52680, Note_on_c, 1, 52, 40
1, 52680, Note_on_c, 1, 49, 40
1, 52680, Note_on_c, 1, 55, 40
1, 52716, Note_on_c, 0, 79, 0
1, 52716, Note_on_c, 1, 55, 0
1, 52716, Note_on_c, 1, 49, 0
1, 52716, Note_on_c, 1, 52, 0
1, 52800, Note_on_c, 0, 82, 92
1, 52800, Note_on_c, 1, 55, 48
1, 52800, Note_on_c, 1, 52, 48
1, 52800, Note_on_c, 1, 48, 48
1, 52860, Note_on_c, 1, 48, 0
1, 52860, Note_on_c, 1, 52, 0
1, 52860, Note_on_c, 1, 55, 0
1, 52920, Note_on_c, 0, 82, 0
1, 52920, Note_on_c, 0, 79, 64
1, 52920, Note_on_c, 1, 55, 40
1, 52920, Note_on_c, 1, 52, 40
1, 52920, Note_on_c, 1, 48, 40
1, 52980, Note_on_c, 1, 48, 0
1, 52980, Note_on_c, 1, 52, 0
1, 52980, Note_on_c, 1, 55, 0
1, 53040, Note_on_c, 0, 79, 0
1, 53040, Note_on_c, 0, 76, 64
1, 53040, Note_on_c, 1, 55, 40
1, 53040, Note_on_c, 1, 52, 40
1, 53040, Note_on_c, 1, 48, 40
1, 53100, Note_on_c, 1, 48, 0
1, 53100, Note_on_c, 1, 52, 0
1, 53100, Note_on_c, 1, 55, 0
1, 53160, Note_on_c, 0, 76, 0
1, 53160, Note_on_c, 0, 72, 64
1, 53160, Note_on_c, 1, 55, 40
1, 53160, Note_on_c, 1, 52, 40
1, 53160, Note_on_c, 1, 48, 40
1, 53220, Note_on_c, 1, 48, 0
1, 53220, Note_on_c, 1, 52, 0
1, 53220, Note_on_c, 1, 55, 0
1, 53280, Note_on_c, 0, 72, 0
1, 53280, Note_on_c, 0, 70, 64
1, 53280, Note_on_c, 1, 55, 40
1, 53280, Note_on_c, 1, 52, 40
1, 53280, Note_on_c, 1, 49, 40
1, 53340, Note_on_c, 1, 49, 0
1, 53340, Note_on_c, 1, 52, 0
1, 53340, Note_on_c, 1, 55, 0
1, 53400, Note_on_c, 0, 70, 0
1, 53400, Note_on_c, 0, 73, 80
1, 53400, Note_on_c, 1, 55, 40
1, 53400, Note_on_c, 1, 52, 40
1, 53400, Note_on_c, 1, 49, 40
1, 53460, Note_on_c, 1, 49, 0
1, 53460, Note_on_c, 1, 52, 0
1, 53460, Note_on_c, 1, 55, 0
1, 53520, Note_on_c, 0, 73, 0
1, 53520, Note_on_c, 0, 76, 80
1, 53520, Note_on_c, 1, 55, 40
1, 53520, Note_on_c, 1, 52, 40
1, 53520, Note_on_c, 1, 49, 40
1, 53580, Note_on_c, 1, 49, 0
1, 53580, Note_on_c, 1, 52, 0
1, 53580, Note_on_c, 1, 55, 0
1, 53640, Note_on_c, 0, 76, 0
1, 53640, Note_on_c, 0, 79, 80
1, 53640, Note_on_c, 1, 55, 40
1, 53640, Note_on_c, 1, 52, 40
1, 53640, Note_on_c, 1, 49, 40
1, 53700, Note_on_c, 1, 49, 0
1, 53700, Note_on_c, 1, 52, 0
1, 53700, Note_on_c, 1, 55, 0
1, 53760, Note_on_c, 0, 79, 0
1, 53760, Note_on_c, 0, 82, 80
1, 53760, Note_on_c, 1, 55, 48
1, 53760, Note_on_c, 1, 52, 48
1, 53760, Note_on_c, 1, 48, 48
1, 53820, Note_on_c, 0, 82, 0
1, 53820, Note_on_c, 0, 79, 80
1, 53838, Note_on_c, 0, 79, 0
1, 53880, Note_on_c, 0, 76, 80
1, 53898, Note_on_c, 0, 76, 0
1, 53940, Note_on_c, 0, 72, 80
1, 53958, Note_on_c, 0, 72, 0
1, 54000, Note_on_c, 0, 79, 80
1, 54000, Note_on_c, 1, 48, 0
1, 54000, Note_on_c, 1, 52, 0
1, 54000, Note_on_c, 1, 55, 0
1, 54060, Note_on_c, 0, 79, 0
1, 54060, Note_on_c, 0, 76, 80
1, 54120, Note_on_c, 0, 76, 0
1, 54120, Note_on_c, 0, 72, 80
1, 54180, Note_on_c, 0, 72, 0
1, 54180, Note_on_c, 0, 70, 80
1, 54240, Note_on_c, 0, 70, 0
1, 54240, Note_on_c, 0, 76, 80
1, 54300, Note_on_c, 0, 76, 0
1, 54300, Note_on_c, 0, 72, 80
1, 54318, Note_on_c, 0, 72, 0
1, 54360, Note_on_c, 0, 70, 80
1, 54378, Note_on_c, 0, 70, 0
1, 54420, Note_on_c, 0, 67, 80
1, 54438, Note_on_c, 0, 67, 0
1, 54480, Note_on_c, 0, 72, 80
1, 54540, Note_on_c, 0, 72, 0
1, 54540, Note_on_c, 0, 70, 80
1, 54600, Note_on_c, 0, 70, 0
1, 54600, Note_on_c, 0, 67, 80
1, 54660, Note_on_c, 0, 67, 0
1, 54660, Note_on_c, 0, 64, 80
1, 54720, Note_on_c, 0, 64, 0
1, 54720, Note_on_c, 0, 70, 80
1, 54720, Note_on_c, 1, 46, 64
1, 54720, Note_on_c, 1, 36, 64
1, 54720, Note_on_c, 1, 43, 64
1, 54720, Note_on_c, 1, 40, 64
1, 54780, Note_on_c, 0, 70, 0
1, 54780, Note_on_c, 0, 67, 80
1, 54840, Note_on_c, 0, 67, 0
1, 54840, Note_on_c, 0, 64, 80
1, 54900, Note_on_c, 0, 64, 0
1, 54900, Note_on_c, 0, 60, 80
1, 54960, Note_on_c, 0, 60, 0
1, 54960, Note_on_c, 0, 67, 80
1, 55020, Note_on_c, 0, 67, 0
1, 55020, Note_on_c, 0, 64, 80
1, 55080, Note_on_c, 0, 64, 0
1, 55080, Note_on_c, 0, 60, 80
1, 55140, Note_on_c, 0, 60, 0
1, 55140, Note_on_c, 0, 59, 80
1, 55200, Note_on_c, 0, 59, 0
1, 55200, Note_on_c, 0, 58, 80
1, 55260, Note_on_c, 0, 58, 0
1, 55260, Note_on_c, 0, 67, 80
1, 55320, Note_on_c, 0, 67, 0
1, 55320, Note_on_c, 0, 66, 80
1, 55380, Note_on_c, 0, 66, 0
1, 55380, Note_on_c, 0, 67, 80
1, 55440, Note_on_c, 0, 67, 0
1, 55440, Note_on_c, 0, 69, 80
1, 55500, Note_on_c, 0, 69, 0
1, 55500, Note_on_c, 0, 67, 80
1, 55560, Note_on_c, 0, 67, 0
1, 55560, Note_on_c, 0, 66, 80
1, 55620, Note_on_c, 0, 66, 0
1, 55620, Note_on_c, 0, 64, 80
1, 55680, Note_on_c, 0, 64, 0
1, 55680, Note_on_c, 0, 63, 80
1, 55680, Note_on_c, 0, 71, 80
1, 55680, Note_on_c, 1, 40, 0
1, 55680, Note_on_c, 1, 46, 0
1, 55680, Note_on_c, 1, 36, 0
1, 55680, Note_on_c, 1, 43, 0
1, 55680, Note_on_c, 1, 35, 88
1, 55710, Note_on_c, 1, 35, 0
1, 55740, Note_on_c, 1, 47, 48
1, 55800, Note_on_c, 1, 47, 0
1, 55800, Note_on_c, 1, 46, 48
1, 55860, Note_on_c, 1, 46, 0
1, 55860, Note_on_c, 1, 47, 48
1, 55920, Note_on_c, 0, 71, 0
1, 55920, Note_on_c, 0, 63, 0
1, 55920, Note_on_c, 0, 63, 80
1, 55920, Note_on_c, 0, 71, 80
1, 55920, Note_on_c, 1, 47, 0
1, 55920, Note_on_c, 1, 46, 48
1, 55980, Note_on_c, 1, 46, 0
1, 55980, Note_on_c, 1, 47, 48
1, 56010, Note_on_c, 0, 71, 0
1, 56010, Note_on_c, 0, 63, 0
1, 56040, Note_on_c, 1, 47, 0
1, 56040, Note_on_c, 1, 46, 48
1, 56100, Note_on_c, 0, 63, 80
1, 56100, Note_on_c, 0, 71, 80
1, 56100, Note_on_c, 1, 46, 0
1, 56100, Note_on_c, 1, 47, 48
1, 56130, Note_on_c, 0, 71, 0
1, 56130, Note_on_c, 0, 63, 0
1, 56160, Note_on_c, 0, 63, 80
1, 56160, Note_on_c, 0, 71, 80
1, 56160, Note_on_c, 1, 47, 0
1, 56160, Note_on_c, 1, 35, 88
1, 56190, Note_on_c, 1, 35, 0
1, 56220, Note_on_c, 1, 47, 48
1, 56280, Note_on_c, 1, 47, 0
1, 56280, Note_on_c, 1, 46, 48
1, 56340, Note_on_c, 1, 46, 0
1, 56340, Note_on_c, 1, 47, 48
1, 56400, Note_on_c, 0, 71, 0
1, 56400, Note_on_c, 0, 63, 0
1, 56400, Note_on_c, 0, 63, 80
1, 56400, Note_on_c, 0, 71, 80
1, 56400, Note_on_c, 1, 47, 0
1, 56400, Note_on_c, 1, 46, 48
1, 56460, Note_on_c, 1, 46, 0
1, 56460, Note_on_c, 1, 47, 48
1, 56520, Note_on_c, 1, 47, 0
1, 56520, Note_on_c, 1, 46, 48
1, 56580, Note_on_c, 1, 46, 0
1, 56580, Note_on_c, 1, 47, 48
1, 56640, Note_on_c, 0, 63, 0
1, 56640, Note_on_c, 0, 64, 80
1, 56640, Note_on_c, 0, 72, 80
1, 56640, Note_on_c, 1, 47, 0
1, 56640, Note_on_c, 1, 35, 88
1, 56670, Note_on_c, 1, 35, 0
1, 56700, Note_on_c, 1, 47, 48
1, 56760, Note_on_c, 1, 47, 0
1, 56760, Note_on_c, 1, 46, 48
1, 56820, Note_on_c, 0, 71, 0
1, 56820, Note_on_c, 0, 71, 80
1, 56820, Note_on_c, 1, 46, 0
1, 56820, Note_on_c, 1, 47, 48
1, 56880, Note_on_c, 0, 71, 0
1, 56880, Note_on_c, 0, 69, 80
1, 56880, Note_on_c, 1, 47, 0
1, 56880, Note_on_c, 1, 46, 48
1, 56940, Note_on_c, 1, 46, 0
1, 56940, Note_on_c, 1, 47, 48
1, 57000, Note_on_c, 1, 47, 0
1, 57000, Note_on_c, 1, 46, 48
1, 57060, Note_on_c, 0, 69, 0
1, 57060, Note_on_c, 0, 68, 80
1, 57060, Note_on_c, 1, 46, 0
1, 57060, Note_on_c, 1, 47, 48
1, 57120, Note_on_c, 0, 68, 0
1, 57120, Note_on_c, 0, 64, 0
1, 57120, Note_on_c, 0, 66, 80
1, 57120, Note_on_c, 0, 69, 80
1, 57120, Note_on_c, 1, 47, 0
1, 57120, Note_on_c, 1, 35, 88
1, 57150, Note_on_c, 1, 35, 0
1, 57180, Note_on_c, 1, 47, 48
1, 57240, Note_on_c, 1, 47, 0
1, 57240, Note_on_c, 1, 46, 48
1, 57300, Note_on_c, 0, 72, 0
1, 57300, Note_on_c, 0, 75, 80
1, 57300, Note_on_c, 1, 46, 0
1, 57300, Note_on_c, 1, 47, 48
1, 57360, Note_on_c, 0, 75, 0
1, 57360, Note_on_c, 0, 76, 80
1, 57360, Note_on_c, 1, 47, 0
1, 57360, Note_on_c, 1, 46, 48
1, 57420, Note_on_c, 1, 46, 0
1, 57420, Note_on_c, 1, 47, 48
1, 57480, Note_on_c, 1, 47, 0
1, 57480, Note_on_c, 1, 46, 48
1, 57540, Note_on_c, 0, 76, 0
1, 57540, Note_on_c, 0, 72, 80
1, 57540, Note_on_c, 1, 46, 0
1, 57540, Note_on_c, 1, 47, 48
1, 57600, Note_on_c, 0, 72, 0
1, 57600, Note_on_c, 0, 66, 0
1, 57600, Note_on_c, 0, 63, 80
1, 57600, Note_on_c, 0, 71, 80
1, 57600, Note_on_c, 1, 47, 0
1, 57600, Note_on_c, 1, 35, 88
1, 57630, Note_on_c, 1, 35, 0
1, 57660, Note_on_c, 1, 47, 48
1, 57720, Note_on_c, 1, 47, 0
1, 57720, Note_on_c, 1, 46, 48
1, 57780, Note_on_c, 0, 69, 0
1, 57780, Note_on_c, 0, 69, 80
1, 57780, Note_on_c, 1, 46, 0
1, 57780, Note_on_c, 1, 47, 48
1, 57840, Note_on_c, 0, 69, 0
1, 57840, Note_on_c, 0, 67, 80
1, 57840, Note_on_c, 1, 47, 0
1, 57840, Note_on_c, 1, 46, 48
1, 57900, Note_on_c, 1, 46, 0
1, 57900, Note_on_c, 1, 47, 48
1, 57960, Note_on_c, 1, 47, 0
1, 57960, Note_on_c, 1, 46, 48
1, 58020, Note_on_c, 0, 67, 0
1, 58020, Note_on_c, 0, 66, 80
1, 58020, Note_on_c, 1, 46, 0
1, 58020, Note_on_c, 1, 47, 48
1, 58080, Note_on_c, 0, 66, 0
1, 58080, Note_on_c, 0, 63, 0
1, 58080, Note_on_c, 0, 64, 80
1, 58080, Note_on_c, 0, 67, 80
1, 58080, Note_on_c, 1, 47, 0
1, 58080, Note_on_c, 1, 35, 88
1, 58110, Note_on_c, 1, 35, 0
1, 58140, Note_on_c, 1, 47, 48
1, 58200, Note_on_c, 1, 47, 0
1, 58200, Note_on_c, 1, 46, 48
1, 58260, Note_on_c, 0, 71, 0
1, 58260, Note_on_c, 0, 75, 80
1, 58260, Note_on_c, 1, 46, 0
1, 58260, Note_on_c, 1, 47, 48
1, 58320, Note_on_c, 0, 75, 0
1, 58320, Note_on_c, 0, 76, 80
1, 58320, Note_on_c, 1, 47, 0
1, 58320, Note_on_c, 1, 46, 48
1, 58380, Note_on_c, 1, 46, 0
1, 58380, Note_on_c, 1, 47, 48
1, 58440, Note_on_c, 1, 47, 0
1, 58440, Note_on_c, 1, 46, 48
1, 58500, Note_on_c, 0, 76, 0
1, 58500, Note_on_c, 0, 71, 80
1, 58500, Note_on_c, 1, 46, 0
1, 58500, Note_on_c, 1, 47, 48
1, 58560, Note_on_c, 0, 71, 0
1, 58560, Note_on_c, 0, 64, 0
1, 58560, Note_on_c, 0, 61, 80
1, 58560, Note_on_c, 0, 69, 80
1, 58560, Note_on_c, 1, 47, 0
1, 58560, Note_on_c, 1, 35, 88
1, 58590, Note_on_c, 1, 35, 0
1, 58620, Note_on_c, 1, 47, 48
1, 58680, Note_on_c, 1, 47, 0
1, 58680, Note_on_c, 1, 46, 48
1, 58740, Note_on_c, 0, 67, 0
1, 58740, Note_on_c, 0, 67, 80
1, 58740, Note_on_c, 1, 46, 0
1, 58740, Note_on_c, 1, 47, 48
1, 58800, Note_on_c, 0, 67, 0
1, 58800, Note_on_c, 0, 66, 80
1, 58800, Note_on_c, 1, 47, 0
1, 58800, Note_on_c, 1, 46, 48
1, 58860, Note_on_c, 1, 46, 0
1, 58860, Note_on_c, 1, 47, 48
1, 58920, Note_on_c, 1, 47, 0
1, 58920, Note_on_c, 1, 46, 48
1, 58980, Note_on_c, 0, 66, 0
1, 58980, Note_on_c, 0, 64, 80
1, 58980, Note_on_c, 1, 46, 0
1, 58980, Note_on_c, 1, 47, 48
1, 59040, Note_on_c, 0, 64, 0
1, 59040, Note_on_c, 0, 61, 0
1, 59040, Note_on_c, 0, 63, 80
1, 59040, Note_on_c, 0, 66, 80
1, 59040, Note_on_c, 1, 47, 0
1, 59040, Note_on_c, 1, 35, 88
1, 59070, Note_on_c, 1, 35, 0
1, 59100, Note_on_c, 1, 47, 48
1, 59160, Note_on_c, 1, 47, 0
1, 59160, Note_on_c, 1, 46, 48
1, 59220, Note_on_c, 0, 69, 0
1, 59220, Note_on_c, 0, 71, 80
1, 59220, Note_on_c, 1, 46, 0
1, 59220, Note_on_c, 1, 47, 48
1, 59280, Note_on_c, 0, 71, 0
1, 59280, Note_on_c, 0, 72, 80
1, 59280, Note_on_c, 1, 47, 0
1, 59280, Note_on_c, 1, 46, 48
1, 59340, Note_on_c, 1, 46, 0
1, 59340, Note_on_c, 1, 47, 48
1, 59400, Note_on_c, 1, 47, 0
1, 59400, Note_on_c, 1, 46, 48
1, 59460, Note_on_c, 0, 72, 0
1, 59460, Note_on_c, 0, 69, 80
1, 59460, Note_on_c, 1, 46, 0
1, 59460, Note_on_c, 1, 47, 48
1, 59520, Note_on_c, 0, 69, 0
1, 59520, Note_on_c, 0, 66, 0
1, 59520, Note_on_c, 0, 63, 0
1, 59520, Note_on_c, 0, 64, 56
1, 59520, Note_on_c, 0, 67, 56
1, 59520, Note_on_c, 1, 47, 0
1, 59520, Note_on_c, 1, 40, 72
1, 59550, Note_on_c, 1, 40, 0
1, 59580, Note_on_c, 1, 52, 24
1, 59640, Note_on_c, 0, 67, 0
1, 59640, Note_on_c, 0, 64, 0
1, 59640, Note_on_c, 1, 52, 0
1, 59640, Note_on_c, 1, 51, 24
1, 59700, Note_on_c, 1, 51, 0
1, 59700, Note_on_c, 1, 52, 24
1, 59760, Note_on_c, 0, 67, 56
1, 59760, Note_on_c, 0, 76, 56
1, 59760, Note_on_c, 1, 52, 0
1, 59760, Note_on_c, 1, 51, 24
1, 59820, Note_on_c, 1, 51, 0
1, 59820, Note_on_c, 1, 52, 24
1, 59850, Note_on_c, 0, 76, 0
1, 59850, Note_on_c, 0, 67, 0
1, 59880, Note_on_c, 1, 52, 0
1, 59880, Note_on_c, 1, 51, 24
1, 59940, Note_on_c, 0, 67, 56
1, 59940, Note_on_c, 0, 76, 56
1, 59940, Note_on_c, 1, 51, 0
1, 59940, Note_on_c, 1, 52, 24
1, 59970, Note_on_c, 0, 76, 0
1, 59970, Note_on_c, 0, 67, 0
1, 60000, Note_on_c, 0, 67, 56
1, 60000, Note_on_c, 0, 76, 56
1, 60000, Note_on_c, 1, 52, 0
1, 60000, Note_on_c, 1, 40, 72
1, 60030, Note_on_c, 1, 40, 0
1, 60060, Note_on_c, 1, 52, 24
1, 60120, Note_on_c, 1, 52, 0
1, 60120, Note_on_c, 1, 51, 24
1, 60180, Note_on_c, 1, 51, 0
1, 60180, Note_on_c, 1, 52, 24
1, 60240, Note_on_c, 0, 76, 0
1, 60240, Note_on_c, 0, 67, 0
1, 60240, Note_on_c, 0, 67, 56
1, 60240, Note_on_c, 0, 76, 56
1, 60240, Note_on_c, 1, 52, 0
1, 60240, Note_on_c, 1, 51, 24
1, 60300, Note_on_c, 1, 51, 0
1, 60300, Note_on_c, 1, 52, 24
1, 60360, Note_on_c, 1, 52, 0
1, 60360, Note_on_c, 1, 51, 24
1, 60420, Note_on_c, 1, 51, 0
1, 60420, Note_on_c, 1, 52, 24
1, 60480, Note_on_c, 0, 67, 0
1, 60480, Note_on_c, 0, 77, 56
1, 60480, Note_on_c, 0, 69, 56
1, 60480, Note_on_c, 1, 52, 0
1, 60480, Note_on_c, 1, 40, 72
1, 60510, Note_on_c, 1, 40, 0
1, 60540, Note_on_c, 1, 52, 24
1, 60600, Note_on_c, 1, 52, 0
1, 60600, Note_on_c, 1, 51, 24
1, 60660, Note_on_c, 0, 76, 0
1, 60660, Note_on_c, 0, 76, 56
1, 60660, Note_on_c, 1, 51, 0
1, 60660, Note_on_c, 1, 52, 24
1, 60720, Note_on_c, 0, 76, 0
1, 60720, Note_on_c, 0, 74, 56
1, 60720, Note_on_c, 1, 52, 0
1, 60720, Note_on_c, 1, 51, 24
1, 60780, Note_on_c, 1, 51, 0
1, 60780, Note_on_c, 1, 52, 24
1, 60840, Note_on_c, 1, 52, 0
1, 60840, Note_on_c, 1, 51, 24
1, 60900, Note_on_c, 0, 74, 0
1, 60900, Note_on_c, 0, 73, 56
1, 60900, Note_on_c, 1, 51, 0
1, 60900, Note_on_c, 1, 52, 24
1, 60960, Note_on_c, 0, 73, 0
1, 60960, Note_on_c, 0, 69, 0
1, 60960, Note_on_c, 0, 74, 56
1, 60960, Note_on_c, 0, 71, 56
1, 60960, Note_on_c, 1, 52, 0
1, 60960, Note_on_c, 1, 40, 72
1, 60990, Note_on_c, 1, 40, 0
1, 61020, Note_on_c, 1, 52, 24
1, 61080, Note_on_c, 1, 52, 0
1, 61080, Note_on_c, 1, 51, 24
1, 61140, Note_on_c, 0, 77, 0
1, 61140, Note_on_c, 0, 80, 56
1, 61140, Note_on_c, 1, 51, 0
1, 61140, Note_on_c, 1, 52, 24
1, 61200, Note_on_c, 0, 80, 0
1, 61200, Note_on_c, 0, 81, 56
1, 61200, Note_on_c, 1, 52, 0
1, 61200, Note_on_c, 1, 51, 24
1, 61260, Note_on_c, 1, 51, 0
1, 61260, Note_on_c, 1, 52, 24
1, 61320, Note_on_c, 1, 52, 0
1, 61320, Note_on_c, 1, 51, 24
1, 61380, Note_on_c, 0, 81, 0
1, 61380, Note_on_c, 0, 77, 56
1, 61380, Note_on_c, 1, 51, 0
1, 61380, Note_on_c, 1, 52, 24
1, 61440, Note_on_c, 0, 77, 0
1, 61440, Note_on_c, 0, 71, 0
1, 61440, Note_on_c, 0, 76, 56
1, 61440, Note_on_c, 0, 68, 56
1, 61440, Note_on_c, 1, 52, 0
1, 61440, Note_on_c, 1, 40, 72
1, 61470, Note_on_c, 1, 40, 0
1, 61500, Note_on_c, 1, 52, 24
1, 61560, Note_on_c, 1, 52, 0
1, 61560, Note_on_c, 1, 51, 24
1, 61620, Note_on_c, 0, 74, 0
1, 61620, Note_on_c, 0, 74, 56
1, 61620, Note_on_c, 1, 51, 0
1, 61620, Note_on_c, 1, 52, 24
1, 61680, Note_on_c, 0, 74, 0
1, 61680, Note_on_c, 0, 72, 56
1, 61680, Note_on_c, 1, 52, 0
1, 61680, Note_on_c, 1, 51, 24
1, 61740, Note_on_c, 1, 51, 0
1, 61740, Note_on_c, 1, 52, 24
1, 61800, Note_on_c, 1, 52, 0
1, 61800, Note_on_c, 1, 51, 24
1, 61860, Note_on_c, 0, 72, 0
1, 61860, Note_on_c, 0, 71, 56
1, 61860, Note_on_c, 1, 51, 0
1, 61860, Note_on_c, 1, 52, 24
1, 61920, Note_on_c, 0, 71, 0
1, 61920, Note_on_c, 0, 68, 0
1, 61920, Note_on_c, 0, 72, 56
1, 61920, Note_on_c, 0, 69, 56
1, 61920, Note_on_c, 1, 52, 0
1, 61920, Note_on_c, 1, 40, 72
1, 61950, Note_on_c, 1, 40, 0
1, 61980, Note_on_c, 1, 52, 24
1, 62040, Note_on_c, 1, 52, 0
1, 62040, Note_on_c, 1, 51, 24
1, 62100, Note_on_c, 0, 76, 0
1, 62100, Note_on_c, 0, 80, 56
1, 62100, Note_on_c, 1, 51, 0
1, 62100, Note_on_c, 1, 52, 24
1, 62160, Note_on_c, 0, 80, 0
1, 62160, Note_on_c, 0, 81, 56
1, 62160, Note_on_c, 1, 52, 0
1, 62160, Note_on_c, 1, 51, 24
1, 62220, Note_on_c, 1, 51, 0
1, 62220, Note_on_c, 1, 52, 24
1, 62280, Note_on_c, 1, 52, 0
1, 62280, Note_on_c, 1, 51, 24
1, 62340, Note_on_c, 0, 81, 0
1, 62340, Note_on_c, 0, 76, 56
1, 62340, Note_on_c, 1, 51, 0
1, 62340, Note_on_c, 1, 52, 24
1, 62400, Note_on_c, 0, 76, 0
1, 62400, Note_on_c, 0, 69, 0
1, 62400, Note_on_c, 0, 74, 56
1, 62400, Note_on_c, 0, 66, 56
1, 62400, Note_on_c, 1, 52, 0
1, 62400, Note_on_c, 1, 40, 72
1, 62430, Note_on_c, 1, 40, 0
1, 62460, Note_on_c, 1, 52, 24
1, 62520, Note_on_c, 1, 52, 0
1, 62520, Note_on_c, 1, 51, 24
1, 62580, Note_on_c, 0, 72, 0
1, 62580, Note_on_c, 0, 72, 56
1, 62580, Note_on_c, 1, 51, 0
1, 62580, Note_on_c, 1, 52, 24
1, 62640, Note_on_c, 0, 72, 0
1, 62640, Note_on_c, 0, 71, 56
1, 62640, Note_on_c, 1, 52, 0
1, 62640, Note_on_c, 1, 51, 24
1, 62700, Note_on_c, 1, 51, 0
1, 62700, Note_on_c, 1, 52, 24
1, 62760, Note_on_c, 1, 52, 0
1, 62760, Note_on_c, 1, 51, 24
1, 62820, Note_on_c, 0, 71, 0
1, 62820, Note_on_c, 0, 69, 56
1, 62820, Note_on_c, 1, 51, 0
1, 62820, Note_on_c, 1, 52, 24
1, 62880, Note_on_c, 0, 69, 0
1, 62880, Note_on_c, 0, 66, 0
1, 62880, Note_on_c, 0, 71, 56
1, 62880, Note_on_c, 0, 68, 56
1, 62880, Note_on_c, 1, 52, 0
1, 62880, Note_on_c, 1, 40, 72
1, 62910, Note_on_c, 1, 40, 0
1, 62940, Note_on_c, 1, 52, 24
1, 63000, Note_on_c, 1, 52, 0
1, 63000, Note_on_c, 1, 51, 24
1, 63060, Note_on_c, 0, 74, 0
1, 63060, Note_on_c, 0, 76, 56
1, 63060, Note_on_c, 1, 51, 0
1, 63060, Note_on_c, 1, 52, 24
1, 63120, Note_on_c, 0, 76, 0
1, 63120, Note_on_c, 0, 77, 56
1, 63120, Note_on_c, 1, 52, 0
1, 63120, Note_on_c, 1, 51, 24
1, 63180, Note_on_c, 1, 51, 0
1, 63180, Note_on_c, 1, 52, 24
1, 63240, Note_on_c, 1, 52, 0
1, 63240, Note_on_c, 1, 51, 24
1, 63300, Note_on_c, 0, 77, 0
1, 63300, Note_on_c, 0, 74, 56
1, 63300, Note_on_c, 1, 51, 0
1, 63300, Note_on_c, 1, 52, 24
1, 63360, Note_on_c, 0, 74, 0
1, 63360, Note_on_c, 0, 68, 0
1, 63360, Note_on_c, 0, 71, 0
1, 63360, Note_on_c, 0, 69, 80
1, 63360, Note_on_c, 0, 72, 80
1, 63360, Note_on_c, 1, 52, 0
1, 63360, Note_on_c, 1, 45, 88
1, 63390, Note_on_c, 1, 45, 0
1, 63420, Note_on_c, 1, 57, 48
1, 63480, Note_on_c, 0, 72, 0
1, 63480, Note_on_c, 0, 69, 0
1, 63480, Note_on_c, 1, 57, 0
1, 63480, Note_on_c, 1, 56, 48
1, 63540, Note_on_c, 1, 56, 0
1, 63540, Note_on_c, 1, 57, 48
1, 63600, Note_on_c, 0, 72, 80
1, 63600, Note_on_c, 0, 81, 80
1, 63600, Note_on_c, 1, 57, 0
1, 63600, Note_on_c, 1, 56, 48
1, 63660, Note_on_c, 1, 56, 0
1, 63660, Note_on_c, 1, 57, 48
1, 63690, Note_on_c, 0, 81, 0
1, 63690, Note_on_c, 0, 72, 0
1, 63720, Note_on_c, 1, 57, 0
1, 63720, Note_on_c, 1, 56, 48
1, 63780, Note_on_c, 0, 72, 80
1, 63780, Note_on_c, 0, 81, 80
1, 63780, Note_on_c, 1, 56, 0
1, 63780, Note_on_c, 1, 57, 48
1, 63810, Note_on_c, 0, 81, 0
1, 63810, Note_on_c, 0, 72, 0
1, 63840, Note_on_c, 0, 72, 80
1, 63840, Note_on_c, 0, 81, 80
1, 63840, Note_on_c, 1, 57, 0
1, 63840, Note_on_c, 1, 45, 88
1, 63870, Note_on_c, 1, 45, 0
1, 63900, Note_on_c, 1, 57, 48
1, 63960, Note_on_c, 1, 57, 0
1, 63960, Note_on_c, 1, 56, 48
1, 64020, Note_on_c, 1, 56, 0
1, 64020, Note_on_c, 1, 57, 48
1, 64080, Note_on_c, 0, 81, 0
1, 64080, Note_on_c, 0, 72, 0
1, 64080, Note_on_c, 0, 72, 80
1, 64080, Note_on_c, 0, 81, 80
1, 64080, Note_on_c, 1, 57, 0
1, 64080, Note_on_c, 1, 56, 48
1, 64140, Note_on_c, 1, 56, 0
1, 64140, Note_on_c, 1, 57, 48
1, 64200, Note_on_c, 1, 57, 0
1, 64200, Note_on_c, 1, 56, 48
1, 64260, Note_on_c, 1, 56, 0
1, 64260, Note_on_c, 1, 57, 48
1, 64320, Note_on_c, 0, 72, 0
1, 64320, Note_on_c, 0, 74, 80
1, 64320, Note_on_c, 0, 82, 80
1, 64320, Note_on_c, 1, 57, 0
1, 64320, Note_on_c, 1, 45, 88
1, 64350, Note_on_c, 1, 45, 0
1, 64380, Note_on_c, 1, 57, 48
1, 64440, Note_on_c, 1, 57, 0
1, 64440, Note_on_c, 1, 56, 48
1, 64500, Note_on_c, 0, 81, 0
1, 64500, Note_on_c, 0, 81, 80
1, 64500, Note_on_c, 1, 56, 0
1, 64500, Note_on_c, 1, 57, 48
1, 64560, Note_on_c, 0, 81, 0
1, 64560, Note_on_c, 0, 79, 80
1, 64560, Note_on_c, 1, 57, 0
1, 64560, Note_on_c, 1, 56, 48
1, 64620, Note_on_c, 1, 56, 0
1, 64620, Note_on_c, 1, 57, 48
1, 64680, Note_on_c, 1, 57, 0
1, 64680, Note_on_c, 1, 56, 48
1, 64740, Note_on_c, 0, 79, 0
1, 64740, Note_on_c, 0, 78, 80
1, 64740, Note_on_c, 1, 56, 0
1, 64740, Note_on_c, 1, 57, 48
1, 64800, Note_on_c, 0, 78, 0
1, 64800, Note_on_c, 0, 74, 0
1, 64800, Note_on_c, 0, 76, 80
1, 64800, Note_on_c, 0, 79, 80
1, 64800, Note_on_c, 1, 57, 0
1, 64800, Note_on_c, 1, 45, 88
1, 64830, Note_on_c, 1, 45, 0
1, 64860, Note_on_c, 1, 57, 48
1, 64920, Note_on_c, 1, 57, 0
1, 64920, Note_on_c, 1, 56, 48
1, 64980, Note_on_c, 0, 82, 0
1, 64980, Note_on_c, 0, 85, 80
1, 64980, Note_on_c, 1, 56, 0
1, 64980, Note_on_c, 1, 57, 48
1, 65040, Note_on_c, 0, 85, 0
1, 65040, Note_on_c, 0, 86, 80
1, 65040, Note_on_c, 1, 57, 0
1, 65040, Note_on_c, 1, 56, 48
1, 65100, Note_on_c, 1, 56, 0
1, 65100, Note_on_c, 1, 57, 48
1, 65160, Note_on_c, 1, 57, 0
1, 65160, Note_on_c, 1, 56, 48
1, 65220, Note_on_c, 0, 86, 0
1, 65220, Note_on_c, 0, 82, 80
1, 65220, Note_on_c, 1, 56, 0
1, 65220, Note_on_c, 1, 57, 48
1, 65280, Note_on_c, 0, 82, 0
1, 65280, Note_on_c, 0, 76, 0
1, 65280, Note_on_c, 0, 73, 80
1, 65280, Note_on_c, 0, 81, 80
1, 65280, Note_on_c, 1, 57, 0
1, 65280, Note_on_c, 1, 45, 88
1, 65310, Note_on_c, 1, 45, 0
1, 65340, Note_on_c, 1, 57, 48
1, 65400, Note_on_c, 1, 57, 0
1, 65400, Note_on_c, 1, 56, 48
1, 65460, Note_on_c, 0, 79, 0
1, 65460, Note_on_c, 0, 79, 80
1, 65460, Note_on_c, 1, 56, 0
1, 65460, Note_on_c, 1, 57, 48
1, 65520, Note_on_c, 0, 79, 0
1, 65520, Note_on_c, 0, 77, 80
1, 65520, Note_on_c, 1, 57, 0
1, 65520, Note_on_c, 1, 56, 48
1, 65580, Note_on_c, 1, 56, 0
1, 65580, Note_on_c, 1, 57, 48
1, 65640, Note_on_c, 1, 57, 0
1, 65640, Note_on_c, 1, 56, 48
1, 65700, Note_on_c, 0, 77, 0
1, 65700, Note_on_c, 0, 76, 80
1, 65700, Note_on_c, 1, 56, 0
1, 65700, Note_on_c, 1, 57, 48
1, 65760, Note_on_c, 0, 76, 0
1, 65760, Note_on_c, 0, 73, 0
1, 65760, Note_on_c, 0, 74, 80
1, 65760, Note_on_c, 0, 77, 80
1, 65760, Note_on_c, 1, 57, 0
1, 65760, Note_on_c, 1, 45, 88
1, 65790, Note_on_c, 1, 45, 0
1, 65820, Note_on_c, 1, 57, 48
1, 65880, Note_on_c, 1, 57, 0
1, 65880, Note_on_c, 1, 56, 48
1, 65940, Note_on_c, 0, 81, 0
1, 65940, Note_on_c, 0, 85, 80
1, 65940, Note_on_c, 1, 56, 0
1, 65940, Note_on_c, 1, 57, 48
1, 66000, Note_on_c, 0, 85, 0
1, 66000, Note_on_c, 0, 86, 80
1, 66000, Note_on_c, 1, 57, 0
1, 66000, Note_on_c, 1, 56, 48
1, 66060, Note_on_c, 1, 56, 0
1, 66060, Note_on_c, 1, 57, 48
1, 66120, Note_on_c, 1, 57, 0
1, 66120, Note_on_c, 1, 56, 48
1, 66180, Note_on_c, 0, 86, 0
1, 66180, Note_on_c, 0, 81, 80
1, 66180, Note_on_c, 1, 56, 0
1, 66180, Note_on_c, 1, 57, 48
1, 66240, Note_on_c, 0, 81, 0
1, 66240, Note_on_c, 0, 74, 0
1, 66240, Note_on_c, 0, 71, 80
1, 66240, Note_on_c, 0, 79, 80
1, 66240, Note_on_c, 1, 57, 0
1, 66240, Note_on_c, 1, 45, 88
1, 66270, Note_on_c, 1, 45, 0
1, 66300, Note_on_c, 1, 57, 48
1, 66360, Note_on_c, 1, 57, 0
1, 66360, Note_on_c, 1, 56, 48
1, 66420, Note_on_c, 0, 77, 0
1, 66420, Note_on_c, 0, 77, 80
1, 66420, Note_on_c, 1, 56, 0
1, 66420, Note_on_c, 1, 57, 48
1, 66480, Note_on_c, 0, 77, 0
1, 66480, Note_on_c, 0, 76, 80
1, 66480, Note_on_c, 1, 57, 0
1, 66480, Note_on_c, 1, 56, 48
1, 66540, Note_on_c, 1, 56, 0
1, 66540, Note_on_c, 1, 57, 48
1, 66600, Note_on_c, 1, 57, 0
1, 66600, Note_on_c, 1, 56, 48
1, 66660, Note_on_c, 0, 76, 0
1, 66660, Note_on_c, 0, 74, 80
1, 66660, Note_on_c, 1, 56, 0
1, 66660, Note_on_c, 1, 57, 48
1, 66720, Note_on_c, 0, 74, 0
1, 66720, Note_on_c, 0, 71, 0
1, 66720, Note_on_c, 0, 73, 80
1, 66720, Note_on_c, 0, 76, 80
1, 66720, Note_on_c, 1, 57, 0
1, 66720, Note_on_c, 1, 45, 88
1, 66750, Note_on_c, 1, 45, 0
1, 66780, Note_on_c, 1, 57, 48
1, 66840, Note_on_c, 1, 57, 0
1, 66840, Note_on_c, 1, 56, 48
1, 66900, Note_on_c, 0, 79, 0
1, 66900, Note_on_c, 0, 81, 80
1, 66900, Note_on_c, 1, 56, 0
1, 66900, Note_on_c, 1, 57, 48
1, 66960, Note_on_c, 0, 81, 0
1, 66960, Note_on_c, 0, 82, 80
1, 66960, Note_on_c, 1, 57, 0
1, 66960, Note_on_c, 1, 56, 48
1, 67020, Note_on_c, 1, 56, 0
1, 67020, Note_on_c, 1, 57, 48
1, 67080, Note_on_c, 1, 57, 0
1, 67080, Note_on_c, 1, 56, 48
1, 67140, Note_on_c, 0, 82, 0
1, 67140, Note_on_c, 0, 79, 80
1, 67140, Note_on_c, 1, 56, 0
1, 67140, Note_on_c, 1, 57, 48
1, 67200, Note_on_c, 0, 79, 0
1, 67200, Note_on_c, 0, 76, 0
1, 67200, Note_on_c, 0, 73, 0
1, 67200, Note_on_c, 0, 74, 88
1, 67200, Note_on_c, 0, 77, 88
1, 67200, Note_on_c, 1, 57, 0
1, 67200, Note_on_c, 1, 50, 80
1, 67260, Note_on_c, 1, 50, 0
1, 67260, Note_on_c, 1, 53, 80
1, 67320, Note_on_c, 1, 53, 0
1, 67320, Note_on_c, 1, 57, 80
1, 67380, Note_on_c, 1, 57, 0
1, 67380, Note_on_c, 1, 62, 80
1, 67440, Note_on_c, 0, 77, 0
1, 67440, Note_on_c, 0, 74, 0
1, 67440, Note_on_c, 1, 62, 0
1, 67440, Note_on_c, 1, 65, 80
1, 67500, Note_on_c, 1, 65, 0
1, 67500, Note_on_c, 1, 64, 80
1, 67560, Note_on_c, 1, 64, 0
1, 67560, Note_on_c, 1, 62, 80
1, 67620, Note_on_c, 0, 74, 80
1, 67620, Note_on_c, 0, 77, 80
1, 67620, Note_on_c, 1, 62, 0
1, 67620, Note_on_c, 1, 60, 80
1, 67680, Note_on_c, 0, 77, 0
1, 67680, Note_on_c, 0, 74, 0
1, 67680, Note_on_c, 0, 77, 88
1, 67680, Note_on_c, 0, 86, 88
1, 67680, Note_on_c, 1, 60, 0
1, 67680, Note_on_c, 1, 59, 80
1, 67740, Note_on_c, 1, 59, 0
1, 67740, Note_on_c, 1, 60, 80
1, 67800, Note_on_c, 1, 60, 0
1, 67800, Note_on_c, 1, 62, 80
1, 67860, Note_on_c, 1, 62, 0
1, 67860, Note_on_c, 1, 60, 80
1, 67920, Note_on_c, 0, 86, 0
1, 67920, Note_on_c, 0, 77, 0
1, 67920, Note_on_c, 0, 74, 69
1, 67920, Note_on_c, 0, 79, 69
1, 67920, Note_on_c, 1, 60, 0
1, 67920, Note_on_c, 1, 59, 80
1, 67950, Note_on_c, 0, 79, 0
1, 67950, Note_on_c, 0, 77, 70
1, 67980, Note_on_c, 0, 77, 0
1, 67980, Note_on_c, 0, 79, 71
1, 67980, Note_on_c, 1, 59, 0
1, 67980, Note_on_c, 1, 55, 80
1, 68010, Note_on_c, 0, 79, 0
1, 68010, Note_on_c, 0, 77, 73
1, 68040, Note_on_c, 0, 77, 0
1, 68040, Note_on_c, 0, 79, 74
1, 68040, Note_on_c, 1, 55, 0
1, 68040, Note_on_c, 1, 57, 80
1, 68070, Note_on_c, 0, 79, 0
1, 68070, Note_on_c, 0, 77, 76
1, 68100, Note_on_c, 0, 77, 0
1, 68100, Note_on_c, 0, 76, 77
1, 68100, Note_on_c, 1, 57, 0
1, 68100, Note_on_c, 1, 59, 80
1, 68130, Note_on_c, 0, 76, 0
1, 68130, Note_on_c, 0, 77, 79
1, 68160, Note_on_c, 0, 77, 0
1, 68160, Note_on_c, 0, 74, 0
1, 68160, Note_on_c, 0, 72, 88
1, 68160, Note_on_c, 0, 76, 88
1, 68160, Note_on_c, 1, 59, 0
1, 68160, Note_on_c, 1, 60, 80
1, 68220, Note_on_c, 1, 60, 0
1, 68220, Note_on_c, 1, 59, 80
1, 68280, Note_on_c, 1, 59, 0
1, 68280, Note_on_c, 1, 60, 80
1, 68340, Note_on_c, 1, 60, 0
1, 68340, Note_on_c, 1, 62, 80
1, 68400, Note_on_c, 0, 76, 0
1, 68400, Note_on_c, 0, 72, 0
1, 68400, Note_on_c, 1, 62, 0
1, 68400, Note_on_c, 1, 64, 80
1, 68460, Note_on_c, 1, 64, 0
1, 68460, Note_on_c, 1, 62, 80
1, 68520, Note_on_c, 1, 62, 0
1, 68520, Note_on_c, 1, 60, 80
1, 68580, Note_on_c, 0, 76, 80
1, 68580, Note_on_c, 0, 72, 80
1, 68580, Note_on_c, 1, 60, 0
1, 68580, Note_on_c, 1, 59, 80
1, 68640, Note_on_c, 0, 72, 0
1, 68640, Note_on_c, 0, 76, 0
1, 68640, Note_on_c, 0, 84, 88
1, 68640, Note_on_c, 0, 76, 88
1, 68640, Note_on_c, 1, 59, 0
1, 68640, Note_on_c, 1, 57, 80
1, 68700, Note_on_c, 1, 57, 0
1, 68700, Note_on_c, 1, 59, 80
1, 68760, Note_on_c, 1, 59, 0
1, 68760, Note_on_c, 1, 60, 80
1, 68820, Note_on_c, 1, 60, 0
1, 68820, Note_on_c, 1, 59, 80
1, 68880, Note_on_c, 0, 76, 0
1, 68880, Note_on_c, 0, 84, 0
1, 68880, Note_on_c, 0, 77, 68
1, 68880, Note_on_c, 0, 72, 68
1, 68880, Note_on_c, 1, 59, 0
1, 68880, Note_on_c, 1, 57, 80
1, 68910, Note_on_c, 0, 77, 0
1, 68910, Note_on_c, 0, 76, 69
1, 68940, Note_on_c, 0, 76, 0
1, 68940, Note_on_c, 0, 77, 71
1, 68940, Note_on_c, 1, 57, 0
1, 68940, Note_on_c, 1, 53, 80
1, 68970, Note_on_c, 0, 77, 0
1, 68970, Note_on_c, 0, 76, 72
1, 69000, Note_on_c, 0, 76, 0
1, 69000, Note_on_c, 0, 77, 74
1, 69000, Note_on_c, 1, 53, 0
1, 69000, Note_on_c, 1, 55, 80
1, 69030, Note_on_c, 0, 77, 0
1, 69030, Note_on_c, 0, 76, 75
1, 69060, Note_on_c, 0, 76, 0
1, 69060, Note_on_c, 0, 74, 77
1, 69060, Note_on_c, 1, 55, 0
1, 69060, Note_on_c, 1, 57, 80
1, 69090, Note_on_c, 0, 74, 0
1, 69090, Note_on_c, 0, 76, 79
1, 69120, Note_on_c, 0, 76, 0
1, 69120, Note_on_c, 0, 72, 0
1, 69120, Note_on_c, 0, 74, 88
1, 69120, Note_on_c, 0, 71, 88
1, 69120, Note_on_c, 1, 57, 0
1, 69120, Note_on_c, 1, 59, 80
1, 69180, Note_on_c, 1, 59, 0
1, 69180, Note_on_c, 1, 57, 80
1, 69240, Note_on_c, 1, 57, 0
1, 69240, Note_on_c, 1, 59, 80
1, 69300, Note_on_c, 1, 59, 0
1, 69300, Note_on_c, 1, 60, 80
1, 69360, Note_on_c, 0, 71, 0
1, 69360, Note_on_c, 0, 74, 0
1, 69360, Note_on_c, 1, 60, 0
1, 69360, Note_on_c, 1, 62, 80
1, 69420, Note_on_c, 1, 62, 0
1, 69420, Note_on_c, 1, 60, 80
1, 69480, Note_on_c, 1, 60, 0
1, 69480, Note_on_c, 1, 59, 80
1, 69540, Note_on_c, 0, 74, 80
1, 69540, Note_on_c, 0, 71, 80
1, 69540, Note_on_c, 1, 59, 0
1, 69540, Note_on_c, 1, 57, 80
1, 69600, Note_on_c, 0, 71, 0
1, 69600, Note_on_c, 0, 74, 0
1, 69600, Note_on_c, 0, 83, 88
1, 69600, Note_on_c, 0, 74, 88
1, 69600, Note_on_c, 1, 57, 0
1, 69600, Note_on_c, 1, 56, 80
1, 69660, Note_on_c, 1, 56, 0
1, 69660, Note_on_c, 1, 57, 80
1, 69720, Note_on_c, 1, 57, 0
1, 69720, Note_on_c, 1, 59, 80
1, 69780, Note_on_c, 1, 59, 0
1, 69780, Note_on_c, 1, 57, 80
1, 69840, Note_on_c, 0, 74, 0
1, 69840, Note_on_c, 0, 83, 0
1, 69840, Note_on_c, 0, 76, 80
1, 69840, Note_on_c, 0, 71, 80
1, 69840, Note_on_c, 1, 57, 0
1, 69840, Note_on_c, 1, 56, 80
1, 69870, Note_on_c, 0, 76, 0
1, 69870, Note_on_c, 0, 74, 80
1, 69900, Note_on_c, 0, 74, 0
1, 69900, Note_on_c, 0, 76, 80
1, 69900, Note_on_c, 1, 56, 0
1, 69900, Note_on_c, 1, 52, 80
1, 69930, Note_on_c, 0, 76, 0
1, 69930, Note_on_c, 0, 74, 80
1, 69960, Note_on_c, 0, 74, 0
1, 69960, Note_on_c, 0, 76, 80
1, 69960, Note_on_c, 1, 52, 0
1, 69960, Note_on_c, 1, 54, 80
1, 69990, Note_on_c, 0, 76, 0
1, 69990, Note_on_c, 0, 74, 80
1, 70020, Note_on_c, 0, 74, 0
1, 70020, Note_on_c, 0, 72, 80
1, 70020, Note_on_c, 1, 54, 0
1, 70020, Note_on_c, 1, 56, 80
1, 70050, Note_on_c, 0, 72, 0
1, 70050, Note_on_c, 0, 74, 80
1, 70080, Note_on_c, 0, 74, 0
1, 70080, Note_on_c, 0, 71, 0
1, 70080, Note_on_c, 0, 72, 80
1, 70080, Note_on_c, 1, 56, 0
1, 70080, Note_on_c, 1, 57, 80
1, 70140, Note_on_c, 0, 72, 0
1, 70140, Note_on_c, 0, 69, 80
1, 70200, Note_on_c, 0, 69, 0
1, 70200, Note_on_c, 0, 72, 80
1, 70260, Note_on_c, 0, 72, 0
1, 70260, Note_on_c, 0, 76, 80
1, 70320, Note_on_c, 0, 76, 0
1, 70320, Note_on_c, 0, 64, 80
1, 70320, Note_on_c, 1, 57, 0
1, 70320, Note_on_c, 1, 43, 80
1, 70320, Note_on_c, 1, 55, 80
1, 70380, Note_on_c, 0, 64, 0
1, 70380, Note_on_c, 0, 67, 80
1, 70398, Note_on_c, 0, 67, 0
1, 70440, Note_on_c, 0, 71, 80
1, 70440, Note_on_c, 1, 55, 0
1, 70440, Note_on_c, 1, 43, 0
1, 70458, Note_on_c, 0, 71, 0
1, 70500, Note_on_c, 0, 76, 80
1, 70518, Note_on_c, 0, 76, 0
1, 70560, Note_on_c, 0, 64, 80
1, 70560, Note_on_c, 1, 42, 80
1, 70560, Note_on_c, 1, 54, 80
1, 70620, Note_on_c, 0, 64, 0
1, 70620, Note_on_c, 0, 69, 80
1, 70680, Note_on_c, 0, 69, 0
1, 70680, Note_on_c, 0, 72, 80
1, 70680, Note_on_c, 1, 54, 0
1, 70680, Note_on_c, 1, 42, 0
1, 70740, Note_on_c, 0, 72, 0
1, 70740, Note_on_c, 0, 76, 80
1, 70800, Note_on_c, 0, 76, 0
1, 70800, Note_on_c, 0, 63, 80
1, 70800, Note_on_c, 1, 41, 80
1, 70800, Note_on_c, 1, 53, 80
1, 70860, Note_on_c, 0, 63, 0
1, 70860, Note_on_c, 0, 69, 80
1, 70920, Note_on_c, 0, 69, 0
1, 70920, Note_on_c, 0, 72, 80
1, 70980, Note_on_c, 0, 72, 0
1, 70980, Note_on_c, 0, 75, 80
1, 71016, Note_on_c, 1, 53, 0
1, 71016, Note_on_c, 1, 41, 0
1, 71040, Note_on_c, 0, 75, 0
1, 71040, Note_on_c, 0, 76, 80
1, 71040, Note_on_c, 1, 40, 88
1, 71040, Note_on_c, 1, 52, 88
1, 71100, Note_on_c, 0, 76, 0
1, 71100, Note_on_c, 0, 64, 80
1, 71160, Note_on_c, 0, 64, 0
1, 71160, Note_on_c, 0, 68, 80
1, 71220, Note_on_c, 0, 68, 0
1, 71220, Note_on_c, 0, 71, 80
1, 71280, Note_on_c, 0, 71, 0
1, 71280, Note_on_c, 0, 76, 80
1, 71280, Note_on_c, 1, 52, 0
1, 71280, Note_on_c, 1, 40, 0
1, 71340, Note_on_c, 0, 76, 0
1, 71340, Note_on_c, 0, 68, 80
1, 71400, Note_on_c, 0, 68, 0
1, 71400, Note_on_c, 0, 71, 80
1, 71460, Note_on_c, 0, 71, 0
1, 71460, Note_on_c, 0, 76, 80
1, 71460, Note_on_c, 1, 52, 80
1, 71520, Note_on_c, 0, 76, 0
1, 71520, Note_on_c, 0, 80, 80
1, 71520, Note_on_c, 1, 52, 0
1, 71520, Note_on_c, 1, 64, 88
1, 71580, Note_on_c, 0, 80, 0
1, 71580, Note_on_c, 0, 71, 80
1, 71640, Note_on_c, 0, 71, 0
1, 71640, Note_on_c, 0, 76, 80
1, 71700, Note_on_c, 0, 76, 0
1, 71700, Note_on_c, 0, 80, 80
1, 71760, Note_on_c, 0, 80, 0
1, 71760, Note_on_c, 0, 83, 80
1, 71760, Note_on_c, 1, 64, 0
1, 71760, Note_on_c, 1, 57, 68
1, 71790, Note_on_c, 1, 57, 0
1, 71790, Note_on_c, 1, 56, 70
1, 71820, Note_on_c, 0, 83, 0
1, 71820, Note_on_c, 0, 80, 80
1, 71820, Note_on_c, 1, 56, 0
1, 71820, Note_on_c, 1, 57, 71
1, 71850, Note_on_c, 1, 57, 0
1, 71850, Note_on_c, 1, 56, 73
1, 71880, Note_on_c, 0, 80, 0
1, 71880, Note_on_c, 0, 76, 80
1, 71880, Note_on_c, 1, 56, 0
1, 71880, Note_on_c, 1, 57, 74
1, 71910, Note_on_c, 1, 57, 0
1, 71910, Note_on_c, 1, 56, 76
1, 71940, Note_on_c, 0, 76, 0
1, 71940, Note_on_c, 0, 74, 80
1, 71940, Note_on_c, 1, 56, 0
1, 71940, Note_on_c, 1, 54, 77
1, 71970, Note_on_c, 1, 54, 0
1, 71970, Note_on_c, 1, 56, 79
1, 72000, Note_on_c, 0, 74, 0
1, 72000, Note_on_c, 0, 72, 80
1, 72000, Note_on_c, 1, 56, 0
1, 72000, Note_on_c, 1, 57, 88
1, 72060, Note_on_c, 0, 72, 0
1, 72060, Note_on_c, 0, 69, 80
1, 72120, Note_on_c, 0, 69, 0
1, 72120, Note_on_c, 0, 72, 80
1, 72180, Note_on_c, 0, 72, 0
1, 72180, Note_on_c, 0, 76, 80
1, 72240, Note_on_c, 0, 76, 0
1, 72240, Note_on_c, 0, 81, 80
1, 72240, Note_on_c, 1, 57, 0
1, 72300, Note_on_c, 0, 81, 0
1, 72300, Note_on_c, 0, 72, 80
1, 72360, Note_on_c, 0, 72, 0
1, 72360, Note_on_c, 0, 76, 80
1, 72420, Note_on_c, 0, 76, 0
1, 72420, Note_on_c, 0, 81, 80
1, 72420, Note_on_c, 1, 45, 80
1, 72480, Note_on_c, 0, 81, 0
1, 72480, Note_on_c, 0, 84, 80
1, 72480, Note_on_c, 1, 45, 0
1, 72480, Note_on_c, 1, 57, 88
1, 72540, Note_on_c, 0, 84, 0
1, 72540, Note_on_c, 0, 81, 80
1, 72600, Note_on_c, 0, 81, 0
1, 72600, Note_on_c, 0, 76, 80
1, 72660, Note_on_c, 0, 76, 0
1, 72660, Note_on_c, 0, 72, 80
1, 72720, Note_on_c, 0, 72, 0
1, 72720, Note_on_c, 0, 81, 27
1, 72720, Note_on_c, 1, 57, 0
1, 72720, Note_on_c, 1, 52, 72
1, 72750, Note_on_c, 1, 52, 0
1, 72750, Note_on_c, 1, 51, 69
1, 72780, Note_on_c, 0, 81, 0
1, 72780, Note_on_c, 0, 78, 22
1, 72780, Note_on_c, 1, 51, 0
1, 72780, Note_on_c, 1, 52, 66
1, 72810, Note_on_c, 1, 52, 0
1, 72810, Note_on_c, 1, 51, 63
1, 72840, Note_on_c, 0, 78, 0
1, 72840, Note_on_c, 0, 72, 17
1, 72840, Note_on_c, 1, 51, 0
1, 72840, Note_on_c, 1, 52, 60
1, 72870, Note_on_c, 1, 52, 0
1, 72870, Note_on_c, 1, 51, 57
1, 72900, Note_on_c, 0, 72, 0
1, 72900, Note_on_c, 0, 69, 12
1, 72900, Note_on_c, 1, 51, 0
1, 72900, Note_on_c, 1, 49, 54
1, 72930, Note_on_c, 1, 49, 0
1, 72930, Note_on_c, 1, 51, 51
1, 72960, Note_on_c, 0, 69, 0
1, 72960, Note_on_c, 0, 68, 48
1, 72960, Note_on_c, 1, 51, 0
1, 72960, Note_on_c, 1, 52, 48
1, 73020, Note_on_c, 0, 68, 0
1, 73020, Note_on_c, 0, 64, 48
1, 73080, Note_on_c, 0, 64, 0
1, 73080, Note_on_c, 0, 68, 48
1, 73140, Note_on_c, 0, 68, 0
1, 73140, Note_on_c, 0, 71, 48
1, 73200, Note_on_c, 0, 71, 0
1, 73200, Note_on_c, 0, 76, 48
1, 73200, Note_on_c, 1, 52, 0
1, 73260, Note_on_c, 0, 76, 0
1, 73260, Note_on_c, 0, 68, 48
1, 73320, Note_on_c, 0, 68, 0
1, 73320, Note_on_c, 0, 71, 48
1, 73380, Note_on_c, 0, 71, 0
1, 73380, Note_on_c, 0, 76, 48
1, 73380, Note_on_c, 1, 52, 48
1, 73440, Note_on_c, 0, 76, 0
1, 73440, Note_on_c, 0, 80, 48
1, 73440, Note_on_c, 1, 52, 0
1, 73440, Note_on_c, 1, 64, 48
1, 73500, Note_on_c, 0, 80, 0
1, 73500, Note_on_c, 0, 71, 48
1, 73560, Note_on_c, 0, 71, 0
1, 73560, Note_on_c, 0, 76, 48
1, 73620, Note_on_c, 0, 76, 0
1, 73620, Note_on_c, 0, 80, 48
1, 73680, Note_on_c, 0, 80, 0
1, 73680, Note_on_c, 0, 83, 48
1, 73680, Note_on_c, 1, 64, 0
1, 73680, Note_on_c, 1, 57, 48
1, 73710, Note_on_c, 1, 57, 0
1, 73710, Note_on_c, 1, 56, 48
1, 73740, Note_on_c, 0, 83, 0
1, 73740, Note_on_c, 0, 80, 48
1, 73740, Note_on_c, 1, 56, 0
1, 73740, Note_on_c, 1, 57, 48
1, 73770, Note_on_c, 1, 57, 0
1, 73770, Note_on_c, 1, 56, 48
1, 73800, Note_on_c, 0, 80, 0
1, 73800, Note_on_c, 0, 76, 48
1, 73800, Note_on_c, 1, 56, 0
1, 73800, Note_on_c, 1, 57, 48
1, 73830, Note_on_c, 1, 57, 0
1, 73830, Note_on_c, 1, 56, 48
1, 73860, Note_on_c, 0, 76, 0
1, 73860, Note_on_c, 0, 74, 48
1, 73860, Note_on_c, 1, 56, 0
1, 73860, Note_on_c, 1, 54, 48
1, 73890, Note_on_c, 1, 54, 0
1, 73890, Note_on_c, 1, 56, 48
1, 73920, Note_on_c, 0, 74, 0
1, 73920, Note_on_c, 0, 72, 48
1, 73920, Note_on_c, 1, 56, 0
1, 73920, Note_on_c, 1, 57, 48
1, 73980, Note_on_c, 0, 72, 0
1, 73980, Note_on_c, 0, 69, 48
1, 74040, Note_on_c, 0, 69, 0
1, 74040, Note_on_c, 0, 72, 48
1, 74100, Note_on_c, 0, 72, 0
1, 74100, Note_on_c, 0, 76, 48
1, 74160, Note_on_c, 0, 76, 0
1, 74160, Note_on_c, 0, 81, 48
1, 74160, Note_on_c, 1, 57, 0
1, 74220, Note_on_c, 0, 81, 0
1, 74220, Note_on_c, 0, 72, 48
1, 74280, Note_on_c, 0, 72, 0
1, 74280, Note_on_c, 0, 76, 48
1, 74340, Note_on_c, 0, 76, 0
1, 74340, Note_on_c, 0, 81, 48
1, 74340, Note_on_c, 1, 45, 48
1, 74400, Note_on_c, 0, 81, 0
1, 74400, Note_on_c, 0, 84, 48
1, 74400, Note_on_c, 1, 45, 0
1, 74400, Note_on_c, 1, 57, 48
1, 74460, Note_on_c, 0, 84, 0
1, 74460, Note_on_c, 0, 81, 48
1, 74520, Note_on_c, 0, 81, 0
1, 74520, Note_on_c, 0, 76, 48
1, 74580, Note_on_c, 0, 76, 0
1, 74580, Note_on_c, 0, 72, 48
1, 74640, Note_on_c, 0, 72, 0
1, 74640, Note_on_c, 0, 81, 48
1, 74640, Note_on_c, 1, 57, 0
1, 74640, Note_on_c, 1, 52, 48
1, 74670, Note_on_c, 1, 52, 0
1, 74670, Note_on_c, 1, 51, 48
1, 74700, Note_on_c, 0, 81, 0
1, 74700, Note_on_c, 0, 78, 48
1, 74700, Note_on_c, 1, 51, 0
1, 74700, Note_on_c, 1, 52, 48
1, 74730, Note_on_c, 1, 52, 0
1, 74730, Note_on_c, 1, 51, 48
1, 74760, Note_on_c, 0, 78, 0
1, 74760, Note_on_c, 0, 72, 48
1, 74760, Note_on_c, 1, 51, 0
1, 74760, Note_on_c, 1, 52, 48
1, 74790, Note_on_c, 1, 52, 0
1, 74790, Note_on_c, 1, 51, 48
1, 74820, Note_on_c, 0, 72, 0
1, 74820, Note_on_c, 0, 69, 48
1, 74820, Note_on_c, 1, 51, 0
1, 74820, Note_on_c, 1, 49, 48
1, 74850, Note_on_c, 1, 49, 0
1, 74850, Note_on_c, 1, 51, 48
1, 74880, Note_on_c, 0, 69, 0
1, 74880, Note_on_c, 0, 68, 48
1, 74880, Note_on_c, 1, 51, 0
1, 74880, Note_on_c, 1, 52, 48
1, 74940, Note_on_c, 0, 68, 0
1, 74940, Note_on_c, 0, 71, 50
1, 74958, Note_on_c, 0, 71, 0
1, 75000, Note_on_c, 0, 76, 52
1, 75018, Note_on_c, 0, 76, 0
1, 75060, Note_on_c, 0, 68, 54
1, 75078, Note_on_c, 0, 68, 0
1, 75120, Note_on_c, 0, 69, 56
1, 75120, Note_on_c, 1, 52, 0
1, 75120, Note_on_c, 1, 53, 56
1, 75120, Note_on_c, 1, 41, 56
1, 75180, Note_on_c, 0, 69, 0
1, 75180, Note_on_c, 0, 71, 58
1, 75240, Note_on_c, 0, 71, 0
1, 75240, Note_on_c, 0, 75, 60
1, 75300, Note_on_c, 0, 75, 0
1, 75300, Note_on_c, 0, 69, 62
1, 75360, Note_on_c, 0, 69, 0
1, 75360, Note_on_c, 0, 68, 64
1, 75360, Note_on_c, 1, 41, 0
1, 75360, Note_on_c, 1, 53, 0
1, 75360, Note_on_c, 1, 40, 64
1, 75360, Note_on_c, 1, 52, 64
1, 75420, Note_on_c, 0, 68, 0
1, 75420, Note_on_c, 0, 71, 66
1, 75438, Note_on_c, 0, 71, 0
1, 75480, Note_on_c, 0, 76, 68
1, 75498, Note_on_c, 0, 76, 0
1, 75540, Note_on_c, 0, 68, 70
1, 75558, Note_on_c, 0, 68, 0
1, 75600, Note_on_c, 0, 69, 72
1, 75600, Note_on_c, 1, 52, 0
1, 75600, Note_on_c, 1, 40, 0
1, 75600, Note_on_c, 1, 41, 72
1, 75600, Note_on_c, 1, 53, 72
1, 75660, Note_on_c, 0, 69, 0
1, 75660, Note_on_c, 0, 71, 74
1, 75720, Note_on_c, 0, 71, 0
1, 75720, Note_on_c, 0, 75, 76
1, 75780, Note_on_c, 0, 75, 0
1, 75780, Note_on_c, 0, 69, 78
1, 75840, Note_on_c, 0, 69, 0
1, 75840, Note_on_c, 0, 76, 88
1, 75840, Note_on_c, 0, 71, 88
1, 75840, Note_on_c, 0, 68, 88
1, 75840, Note_on_c, 1, 53, 0
1, 75840, Note_on_c, 1, 41, 0
1, 75840, Note_on_c, 1, 40, 80
1, 75840, Note_on_c, 1, 52, 80
1, 75900, Note_on_c, 0, 68, 0
1, 75900, Note_on_c, 0, 71, 0
1, 75900, Note_on_c, 0, 76, 0
1, 75960, Note_on_c, 0, 64, 82
1, 75960, Note_on_c, 1, 52, 0
1, 75960, Note_on_c, 1, 40, 0
1, 76020, Note_on_c, 0, 64, 0
1, 76020, Note_on_c, 0, 63, 79
1, 76080, Note_on_c, 0, 63, 0
1, 76080, Note_on_c, 0, 64, 76
1, 76140, Note_on_c, 0, 64, 0
1, 76140, Note_on_c, 0, 65, 73
1, 76200, Note_on_c, 0, 65, 0
1, 76200, Note_on_c, 0, 66, 70
1, 76260, Note_on_c, 0, 66, 0
1, 76260, Note_on_c, 0, 67, 67
1, 76320, Note_on_c, 0, 67, 0
1, 76320, Note_on_c, 0, 68, 64
1, 76380, Note_on_c, 0, 68, 0
1, 76380, Note_on_c, 0, 69, 61
1, 76440, Note_on_c, 0, 69, 0
1, 76440, Note_on_c, 0, 70, 58
1, 76500, Note_on_c, 0, 70, 0
1, 76500, Note_on_c, 0, 71, 55
1, 76560, Note_on_c, 0, 71, 0
1, 76560, Note_on_c, 0, 72, 52
1, 76620, Note_on_c, 0, 72, 0
1, 76620, Note_on_c, 0, 73, 49
1, 76680, Note_on_c, 0, 73, 0
1, 76680, Note_on_c, 0, 74, 46
1, 76740, Note_on_c, 0, 74, 0
1, 76740, Note_on_c, 0, 75, 43
1, 76800, Note_on_c, 0, 75, 0
1, 76800, Note_on_c, 0, 75, 80
1, 76800, Note_on_c, 1, 64, 56
1, 76800, Note_on_c, 1, 60, 56
1, 76800, Note_on_c, 1, 57, 56
1, 76860, Note_on_c, 0, 75, 0
1, 76860, Note_on_c, 0, 76, 80
1, 76860, Note_on_c, 1, 57, 0
1, 76860, Note_on_c, 1, 60, 0
1, 76860, Note_on_c, 1, 64, 0
1, 76920, Note_on_c, 1, 64, 48
1, 76920, Note_on_c, 1, 60, 48
1, 76920, Note_on_c, 1, 57, 48
1, 76950, Note_on_c, 0, 76, 0
1, 77040, Note_on_c, 0, 76, 80
1, 77040, Note_on_c, 1, 57, 0
1, 77040, Note_on_c, 1, 60, 0
1, 77040, Note_on_c, 1, 64, 0
1, 77040, Note_on_c, 1, 64, 48
1, 77040, Note_on_c, 1, 60, 48
1, 77040, Note_on_c, 1, 57, 48
1, 77160, Note_on_c, 1, 57, 0
1, 77160, Note_on_c, 1, 60, 0
1, 77160, Note_on_c, 1, 64, 0
1, 77160, Note_on_c, 1, 64, 48
1, 77160, Note_on_c, 1, 60, 48
1, 77160, Note_on_c, 1, 57, 48
1, 77220, Note_on_c, 0, 76, 0
1, 77220, Note_on_c, 0, 76, 84
1, 77220, Note_on_c, 1, 57, 0
1, 77220, Note_on_c, 1, 60, 0
1, 77220, Note_on_c, 1, 64, 0
1, 77280, Note_on_c, 0, 76, 0
1, 77280, Note_on_c, 0, 76, 88
1, 77280, Note_on_c, 1, 64, 56
1, 77280, Note_on_c, 1, 60, 56
1, 77280, Note_on_c, 1, 57, 56
1, 77340, Note_on_c, 1, 57, 0
1, 77340, Note_on_c, 1, 60, 0
1, 77340, Note_on_c, 1, 64, 0
1, 77400, Note_on_c, 1, 64, 48
1, 77400, Note_on_c, 1, 60, 48
1, 77400, Note_on_c, 1, 57, 48
1, 77520, Note_on_c, 0, 76, 0
1, 77520, Note_on_c, 0, 72, 80
1, 77520, Note_on_c, 1, 57, 0
1, 77520, Note_on_c, 1, 60, 0
1, 77520, Note_on_c, 1, 64, 0
1, 77520, Note_on_c, 1, 64, 48
1, 77520, Note_on_c, 1, 60, 48
1, 77520, Note_on_c, 1, 57, 48
1, 77640, Note_on_c, 1, 57, 0
1, 77640, Note_on_c, 1, 60, 0
1, 77640, Note_on_c, 1, 64, 0
1, 77640, Note_on_c, 1, 64, 48
1, 77640, Note_on_c, 1, 60, 48
1, 77640, Note_on_c, 1, 57, 48
1, 77700, Note_on_c, 0, 72, 0
1, 77700, Note_on_c, 0, 69, 80
1, 77700, Note_on_c, 1, 57, 0
1, 77700, Note_on_c, 1, 60, 0
1, 77700, Note_on_c, 1, 64, 0
1, 77760, Note_on_c, 0, 69, 0
1, 77760, Note_on_c, 0, 69, 80
1, 77760, Note_on_c, 1, 64, 56
1, 77760, Note_on_c, 1, 62, 56
1, 77760, Note_on_c, 1, 57, 56
1, 77760, Note_on_c, 1, 59, 56
1, 77820, Note_on_c, 1, 59, 0
1, 77820, Note_on_c, 1, 64, 0
1, 77820, Note_on_c, 1, 62, 0
1, 77820, Note_on_c, 1, 57, 0
1, 77880, Note_on_c, 0, 69, 0
1, 77880, Note_on_c, 0, 68, 80
1, 77880, Note_on_c, 1, 64, 48
1, 77880, Note_on_c, 1, 62, 48
1, 77880, Note_on_c, 1, 59, 48
1, 77880, Note_on_c, 1, 57, 48
1, 77952, Note_on_c, 0, 68, 0
1, 78000, Note_on_c, 0, 68, 80
1, 78000, Note_on_c, 1, 57, 0
1, 78000, Note_on_c, 1, 64, 0
1, 78000, Note_on_c, 1, 62, 0
1, 78000, Note_on_c, 1, 59, 0
1, 78000, Note_on_c, 1, 64, 48
1, 78000, Note_on_c, 1, 62, 48
1, 78000, Note_on_c, 1, 59, 48
1, 78000, Note_on_c, 1, 57, 48
1, 78120, Note_on_c, 1, 57, 0
1, 78120, Note_on_c, 1, 64, 0
1, 78120, Note_on_c, 1, 62, 0
1, 78120, Note_on_c, 1, 59, 0
1, 78120, Note_on_c, 1, 64, 48
1, 78120, Note_on_c, 1, 62, 48
1, 78120, Note_on_c, 1, 59, 48
1, 78120, Note_on_c, 1, 57, 48
1, 78180, Note_on_c, 1, 57, 0
1, 78180, Note_on_c, 1, 64, 0
1, 78180, Note_on_c, 1, 62, 0
1, 78180, Note_on_c, 1, 59, 0
1, 78240, Note_on_c, 1, 64, 48
1, 78240, Note_on_c, 1, 62, 48
1, 78240, Note_on_c, 1, 59, 48
1, 78240, Note_on_c, 1, 57, 48
1, 78300, Note_on_c, 1, 57, 0
1, 78300, Note_on_c, 1, 64, 0
1, 78300, Note_on_c, 1, 62, 0
1, 78300, Note_on_c, 1, 59, 0
1, 78360, Note_on_c, 1, 64, 48
1, 78360, Note_on_c, 1, 62, 48
1, 78360, Note_on_c, 1, 59, 48
1, 78360, Note_on_c, 1, 57, 48
1, 78480, Note_on_c, 0, 68, 0
1, 78480, Note_on_c, 0, 74, 80
1, 78480, Note_on_c, 1, 57, 0
1, 78480, Note_on_c, 1, 64, 0
1, 78480, Note_on_c, 1, 62, 0
1, 78480, Note_on_c, 1, 59, 0
1, 78480, Note_on_c, 1, 64, 48
1, 78480, Note_on_c, 1, 62, 48
1, 78480, Note_on_c, 1, 59, 48
1, 78480, Note_on_c, 1, 57, 48
1, 78600, Note_on_c, 1, 57, 0
1, 78600, Note_on_c, 1, 64, 0
1, 78600, Note_on_c, 1, 62, 0
1, 78600, Note_on_c, 1, 59, 0
1, 78600, Note_on_c, 1, 64, 48
1, 78600, Note_on_c, 1, 62, 48
1, 78600, Note_on_c, 1, 59, 48
1, 78600, Note_on_c, 1, 57, 48
1, 78660, Note_on_c, 0, 74, 0
1, 78660, Note_on_c, 0, 71, 80
1, 78720, Note_on_c, 0, 71, 0
1, 78720, Note_on_c, 0, 76, 80
1, 78720, Note_on_c, 1, 57, 0
1, 78720, Note_on_c, 1, 64, 0
1, 78720, Note_on_c, 1, 62, 0
1, 78720, Note_on_c, 1, 59, 0
1, 78720, Note_on_c, 1, 57, 56
1, 78720, Note_on_c, 1, 60, 56
1, 78720, Note_on_c, 1, 64, 56
1, 78780, Note_on_c, 1, 64, 0
1, 78780, Note_on_c, 1, 60, 0
1, 78780, Note_on_c, 1, 57, 0
1, 78840, Note_on_c, 1, 57, 48
1, 78840, Note_on_c, 1, 60, 48
1, 78840, Note_on_c, 1, 64, 48
1, 78960, Note_on_c, 0, 76, 0
1, 78960, Note_on_c, 0, 76, 84
1, 78960, Note_on_c, 1, 64, 0
1, 78960, Note_on_c, 1, 60, 0
1, 78960, Note_on_c, 1, 57, 0
1, 78960, Note_on_c, 1, 57, 48
1, 78960, Note_on_c, 1, 60, 48
1, 78960, Note_on_c, 1, 64, 48
1, 79080, Note_on_c, 1, 64, 0
1, 79080, Note_on_c, 1, 60, 0
1, 79080, Note_on_c, 1, 57, 0
1, 79080, Note_on_c, 1, 57, 48
1, 79080, Note_on_c, 1, 60, 48
1, 79080, Note_on_c, 1, 64, 48
1, 79140, Note_on_c, 0, 76, 0
1, 79140, Note_on_c, 0, 76, 88
1, 79140, Note_on_c, 1, 64, 0
1, 79140, Note_on_c, 1, 60, 0
1, 79140, Note_on_c, 1, 57, 0
1, 79200, Note_on_c, 0, 76, 0
1, 79200, Note_on_c, 0, 76, 92
1, 79200, Note_on_c, 1, 57, 48
1, 79200, Note_on_c, 1, 60, 48
1, 79200, Note_on_c, 1, 64, 48
1, 79260, Note_on_c, 1, 64, 0
1, 79260, Note_on_c, 1, 60, 0
1, 79260, Note_on_c, 1, 57, 0
1, 79320, Note_on_c, 0, 76, 0
1, 79320, Note_on_c, 0, 77, 80
1, 79320, Note_on_c, 1, 57, 48
1, 79320, Note_on_c, 1, 60, 48
1, 79320, Note_on_c, 1, 64, 48
1, 79380, Note_on_c, 0, 77, 0
1, 79380, Note_on_c, 0, 76, 80
1, 79440, Note_on_c, 0, 76, 0
1, 79440, Note_on_c, 0, 74, 80
1, 79440, Note_on_c, 1, 64, 0
1, 79440, Note_on_c, 1, 60, 0
1, 79440, Note_on_c, 1, 57, 0
1, 79440, Note_on_c, 1, 57, 48
1, 79440, Note_on_c, 1, 60, 48
1, 79440, Note_on_c, 1, 64, 48
1, 79500, Note_on_c, 0, 74, 0
1, 79500, Note_on_c, 0, 72, 80
1, 79560, Note_on_c, 0, 72, 0
1, 79560, Note_on_c, 0, 71, 80
1, 79560, Note_on_c, 1, 64, 0
1, 79560, Note_on_c, 1, 60, 0
1, 79560, Note_on_c, 1, 57, 0
1, 79560, Note_on_c, 1, 57, 48
1, 79560, Note_on_c, 1, 60, 48
1, 79560, Note_on_c, 1, 64, 48
1, 79620, Note_on_c, 0, 71, 0
1, 79620, Note_on_c, 0, 69, 80
1, 79620, Note_on_c, 1, 64, 0
1, 79620, Note_on_c, 1, 60, 0
1, 79620, Note_on_c, 1, 57, 0
1, 79680, Note_on_c, 0, 69, 0
1, 79680, Note_on_c, 0, 69, 80
1, 79680, Note_on_c, 1, 59, 56
1, 79680, Note_on_c, 1, 57, 56
1, 79680, Note_on_c, 1, 62, 56
1, 79680, Note_on_c, 1, 64, 56
1, 79737, Note_on_c, 0, 69, 0
1, 79740, Note_on_c, 0, 68, 80
1, 79740, Note_on_c, 1, 64, 0
1, 79740, Note_on_c, 1, 59, 0
1, 79740, Note_on_c, 1, 57, 0
1, 79740, Note_on_c, 1, 62, 0
1, 79800, Note_on_c, 1, 64, 48
1, 79800, Note_on_c, 1, 57, 48
1, 79800, Note_on_c, 1, 59, 48
1, 79800, Note_on_c, 1, 62, 48
1, 79884, Note_on_c, 0, 68, 0
1, 79920, Note_on_c, 0, 68, 80
1, 79920, Note_on_c, 1, 62, 0
1, 79920, Note_on_c, 1, 64, 0
1, 79920, Note_on_c, 1, 57, 0
1, 79920, Note_on_c, 1, 59, 0
1, 79920, Note_on_c, 1, 64, 48
1, 79920, Note_on_c, 1, 57, 48
1, 79920, Note_on_c, 1, 59, 48
1, 79920, Note_on_c, 1, 62, 48
1, 80040, Note_on_c, 1, 62, 0
1, 80040, Note_on_c, 1, 64, 0
1, 80040, Note_on_c, 1, 57, 0
1, 80040, Note_on_c, 1, 59, 0
1, 80040, Note_on_c, 1, 57, 48
1, 80040, Note_on_c, 1, 59, 48
1, 80040, Note_on_c, 1, 62, 48
1, 80040, Note_on_c, 1, 64, 48
1, 80100, Note_on_c, 1, 64, 0
1, 80100, Note_on_c, 1, 57, 0
1, 80100, Note_on_c, 1, 59, 0
1, 80100, Note_on_c, 1, 62, 0
1, 80160, Note_on_c, 1, 57, 48
1, 80160, Note_on_c, 1, 59, 48
1, 80160, Note_on_c, 1, 62, 48
1, 80160, Note_on_c, 1, 64, 48
1, 80220, Note_on_c, 1, 64, 0
1, 80220, Note_on_c, 1, 57, 0
1, 80220, Note_on_c, 1, 59, 0
1, 80220, Note_on_c, 1, 62, 0
1, 80280, Note_on_c, 1, 57, 48
1, 80280, Note_on_c, 1, 59, 48
1, 80280, Note_on_c, 1, 62, 48
1, 80280, Note_on_c, 1, 64, 48
1, 80400, Note_on_c, 0, 68, 0
1, 80400, Note_on_c, 0, 74, 80
1, 80400, Note_on_c, 1, 64, 0
1, 80400, Note_on_c, 1, 57, 0
1, 80400, Note_on_c, 1, 59, 0
1, 80400, Note_on_c, 1, 62, 0
1, 80400, Note_on_c, 1, 57, 48
1, 80400, Note_on_c, 1, 64, 48
1, 80400, Note_on_c, 1, 59, 48
1, 80400, Note_on_c, 1, 62, 48
1, 80520, Note_on_c, 1, 62, 0
1, 80520, Note_on_c, 1, 57, 0
1, 80520, Note_on_c, 1, 64, 0
1, 80520, Note_on_c, 1, 59, 0
1, 80520, Note_on_c, 1, 59, 48
1, 80520, Note_on_c, 1, 57, 48
1, 80520, Note_on_c, 1, 62, 48
1, 80520, Note_on_c, 1, 64, 48
1, 80580, Note_on_c, 0, 74, 0
1, 80580, Note_on_c, 0, 71, 80
1, 80640, Note_on_c, 0, 71, 0
1, 80640, Note_on_c, 0, 76, 80
1, 80640, Note_on_c, 0, 72, 80
1, 80640, Note_on_c, 1, 64, 0
1, 80640, Note_on_c, 1, 59, 0
1, 80640, Note_on_c, 1, 57, 0
1, 80640, Note_on_c, 1, 62, 0
1, 80640, Note_on_c, 1, 57, 48
1, 80640, Note_on_c, 1, 60, 48
1, 80640, Note_on_c, 1, 64, 48
1, 80760, Note_on_c, 1, 64, 0
1, 80760, Note_on_c, 1, 60, 0
1, 80760, Note_on_c, 1, 57, 0
1, 80760, Note_on_c, 1, 57, 64
1, 80820, Note_on_c, 0, 72, 0
1, 80820, Note_on_c, 0, 76, 0
1, 80820, Note_on_c, 0, 72, 80
1, 80820, Note_on_c, 0, 69, 80
1, 80880, Note_on_c, 0, 69, 0
1, 80880, Note_on_c, 0, 72, 0
1, 80880, Note_on_c, 0, 76, 80
1, 80880, Note_on_c, 0, 72, 80
1, 80880, Note_on_c, 1, 57, 0
1, 80880, Note_on_c, 1, 52, 64
1, 80916, Note_on_c, 1, 52, 0
1, 81000, Note_on_c, 1, 48, 80
1, 81036, Note_on_c, 1, 48, 0
1, 81120, Note_on_c, 0, 72, 0
1, 81120, Note_on_c, 0, 76, 0
1, 81120, Note_on_c, 1, 45, 88
1, 81240, Note_on_c, 0, 72, 64
1, 81240, Note_on_c, 0, 69, 64
1, 81276, Note_on_c, 0, 69, 0
1, 81276, Note_on_c, 0, 72, 0
1, 81288, Note_on_c, 1, 45, 0
1, 81360, Note_on_c, 0, 74, 64
1, 81360, Note_on_c, 0, 71, 64
1, 81396, Note_on_c, 0, 71, 0
1, 81396, Note_on_c, 0, 74, 0
1, 81480, Note_on_c, 0, 76, 64
1, 81480, Note_on_c, 0, 72, 64
1, 81516, Note_on_c, 0, 72, 0
1, 81516, Note_on_c, 0, 76, 0
1, 81600, Note_on_c, 0, 76, 72
1, 81600, Note_on_c, 0, 73, 72
1, 81840, Note_on_c, 0, 73, 0
1, 81840, Note_on_c, 0, 76, 0
1, 81840, Note_on_c, 0, 77, 64
1, 81840, Note_on_c, 0, 74, 64
1, 81840, Note_on_c, 1, 53, 48
1, 81840, Note_on_c, 1, 57, 48
1, 81840, Note_on_c, 1, 60, 48
1, 81840, Note_on_c, 1, 62, 48
1, 82065, Note_on_c, 0, 74, 0
1, 82065, Note_on_c, 0, 77, 0
1, 82080, Note_on_c, 1, 62, 0
1, 82080, Note_on_c, 1, 53, 0
1, 82080, Note_on_c, 1, 57, 0
1, 82080, Note_on_c, 1, 60, 0
1, 82080, Note_on_c, 1, 62, 48
1, 82080, Note_on_c, 1, 59, 48
1, 82080, Note_on_c, 1, 55, 48
1, 82200, Note_on_c, 0, 71, 56
1, 82200, Note_on_c, 0, 67, 56
1, 82200, Note_on_c, 1, 55, 0
1, 82200, Note_on_c, 1, 59, 0
1, 82200, Note_on_c, 1, 62, 0
1, 82320, Note_on_c, 0, 67, 0
1, 82320, Note_on_c, 0, 71, 0
1, 82320, Note_on_c, 0, 72, 56
1, 82320, Note_on_c, 0, 69, 56
1, 82356, Note_on_c, 0, 69, 0
1, 82356, Note_on_c, 0, 72, 0
1, 82440, Note_on_c, 0, 74, 56
1, 82440, Note_on_c, 0, 71, 56
1, 82476, Note_on_c, 0, 71, 0
1, 82476, Note_on_c, 0, 74, 0
1, 82560, Note_on_c, 0, 75, 64
1, 82560, Note_on_c, 0, 71, 64
1, 82800, Note_on_c, 0, 71, 0
1, 82800, Note_on_c, 0, 75, 0
1, 82800, Note_on_c, 0, 76, 56
1, 82800, Note_on_c, 0, 72, 56
1, 82800, Note_on_c, 1, 52, 40
1, 82800, Note_on_c, 1, 55, 40
1, 82800, Note_on_c, 1, 59, 40
1, 82800, Note_on_c, 1, 60, 40
1, 83025, Note_on_c, 0, 72, 0
1, 83025, Note_on_c, 0, 76, 0
1, 83040, Note_on_c, 1, 60, 0
1, 83040, Note_on_c, 1, 52, 0
1, 83040, Note_on_c, 1, 55, 0
1, 83040, Note_on_c, 1, 59, 0
1, 83040, Note_on_c, 1, 60, 40
1, 83040, Note_on_c, 1, 53, 40
1, 83040, Note_on_c, 1, 57, 40
1, 83160, Note_on_c, 0, 69, 48
1, 83160, Note_on_c, 0, 65, 48
1, 83160, Note_on_c, 1, 57, 0
1, 83160, Note_on_c, 1, 53, 0
1, 83160, Note_on_c, 1, 60, 0
1, 83280, Note_on_c, 0, 65, 0
1, 83280, Note_on_c, 0, 69, 0
1, 83280, Note_on_c, 0, 71, 48
1, 83280, Note_on_c, 0, 68, 48
1, 83400, Note_on_c, 0, 68, 0
1, 83400, Note_on_c, 0, 71, 0
1, 83400, Note_on_c, 0, 72, 48
1, 83400, Note_on_c, 0, 69, 48
1, 83436, Note_on_c, 0, 69, 0
1, 83436, Note_on_c, 0, 72, 0
1, 83520, Note_on_c, 0, 72, 56
1, 83700, Note_on_c, 0, 72, 0
1, 83700, Note_on_c, 0, 71, 48
1, 83760, Note_on_c, 0, 71, 0
1, 83760, Note_on_c, 0, 77, 48
1, 83760, Note_on_c, 1, 50, 32
1, 83760, Note_on_c, 1, 53, 32
1, 83760, Note_on_c, 1, 59, 32
1, 83940, Note_on_c, 0, 77, 0
1, 83940, Note_on_c, 0, 74, 48
1, 84000, Note_on_c, 0, 74, 0
1, 84000, Note_on_c, 0, 72, 48
1, 84000, Note_on_c, 1, 59, 0
1, 84000, Note_on_c, 1, 53, 0
1, 84000, Note_on_c, 1, 50, 0
1, 84000, Note_on_c, 1, 52, 32
1, 84000, Note_on_c, 1, 57, 32
1, 84000, Note_on_c, 1, 60, 32
1, 84180, Note_on_c, 0, 72, 0
1, 84180, Note_on_c, 0, 76, 48
1, 84240, Note_on_c, 0, 76, 0
1, 84240, Note_on_c, 0, 74, 48
1, 84240, Note_on_c, 1, 60, 0
1, 84240, Note_on_c, 1, 57, 0
1, 84240, Note_on_c, 1, 52, 0
1, 84240, Note_on_c, 1, 52, 32
1, 84240, Note_on_c, 1, 56, 32
1, 84240, Note_on_c, 1, 59, 32
1, 84420, Note_on_c, 0, 74, 0
1, 84420, Note_on_c, 0, 71, 48
1, 84480, Note_on_c, 0, 71, 0
1, 84480, Note_on_c, 0, 72, 48
1, 84480, Note_on_c, 1, 59, 0
1, 84480, Note_on_c, 1, 56, 0
1, 84480, Note_on_c, 1, 52, 0
1, 84480, Note_on_c, 1, 45, 80
1, 84480, Note_on_c, 1, 57, 80
1, 84540, Note_on_c, 0, 72, 0
1, 84540, Note_on_c, 0, 81, 48
1, 84600, Note_on_c, 0, 81, 0
1, 84600, Note_on_c, 0, 72, 48
1, 84660, Note_on_c, 0, 72, 0
1, 84660, Note_on_c, 0, 81, 48
1, 84720, Note_on_c, 0, 81, 0
1, 84720, Note_on_c, 0, 72, 48
1, 84720, Note_on_c, 1, 57, 0
1, 84720, Note_on_c, 1, 45, 0
1, 84720, Note_on_c, 1, 57, 80
1, 84780, Note_on_c, 0, 72, 0
1, 84780, Note_on_c, 0, 81, 48
1, 84810, Note_on_c, 1, 57, 0
1, 84840, Note_on_c, 0, 81, 0
1, 84840, Note_on_c, 0, 72, 48
1, 84900, Note_on_c, 0, 72, 0
1, 84900, Note_on_c, 0, 81, 48
1, 84900, Note_on_c, 1, 57, 84
1, 84930, Note_on_c, 1, 57, 0
1, 84960, Note_on_c, 0, 81, 0
1, 84960, Note_on_c, 0, 72, 48
1, 84960, Note_on_c, 1, 57, 88
1, 85020, Note_on_c, 0, 72, 0
1, 85020, Note_on_c, 0, 81, 48
1, 85080, Note_on_c, 0, 81, 0
1, 85080, Note_on_c, 0, 72, 48
1, 85140, Note_on_c, 0, 72, 0
1, 85140, Note_on_c, 0, 81, 48
1, 85200, Note_on_c, 0, 81, 0
1, 85200, Note_on_c, 0, 72, 48
1, 85200, Note_on_c, 1, 57, 0
1, 85200, Note_on_c, 1, 53, 80
1, 85260, Note_on_c, 0, 72, 0
1, 85260, Note_on_c, 0, 81, 48
1, 85320, Note_on_c, 0, 81, 0
1, 85320, Note_on_c, 0, 72, 48
1, 85380, Note_on_c, 0, 72, 0
1, 85380, Note_on_c, 0, 81, 48
1, 85380, Note_on_c, 1, 53, 0
1, 85380, Note_on_c, 1, 51, 80
1, 85440, Note_on_c, 0, 81, 0
1, 85440, Note_on_c, 0, 71, 48
1, 85440, Note_on_c, 1, 51, 0
1, 85440, Note_on_c, 1, 53, 80
1, 85500, Note_on_c, 0, 71, 0
1, 85500, Note_on_c, 0, 81, 48
1, 85560, Note_on_c, 0, 81, 0
1, 85560, Note_on_c, 0, 71, 48
1, 85560, Note_on_c, 1, 53, 0
1, 85560, Note_on_c, 1, 52, 80
1, 85596, Note_on_c, 1, 52, 0
1, 85620, Note_on_c, 0, 71, 0
1, 85620, Note_on_c, 0, 81, 48
1, 85680, Note_on_c, 0, 81, 0
1, 85680, Note_on_c, 0, 71, 48
1, 85680, Note_on_c, 1, 52, 80
1, 85740, Note_on_c, 0, 71, 0
1, 85740, Note_on_c, 0, 81, 48
1, 85800, Note_on_c, 0, 81, 0
1, 85800, Note_on_c, 0, 71, 48
1, 85860, Note_on_c, 0, 71, 0
1, 85860, Note_on_c, 0, 81, 48
1, 85920, Note_on_c, 0, 81, 0
1, 85920, Note_on_c, 0, 71, 48
1, 85980, Note_on_c, 0, 71, 0
1, 85980, Note_on_c, 0, 79, 48
1, 86040, Note_on_c, 0, 79, 0
1, 86040, Note_on_c, 0, 71, 48
1, 86100, Note_on_c, 0, 71, 0
1, 86100, Note_on_c, 0, 79, 48
1, 86160, Note_on_c, 0, 79, 0
1, 86160, Note_on_c, 0, 70, 48
1, 86160, Note_on_c, 1, 52, 0
1, 86160, Note_on_c, 1, 55, 80
1, 86220, Note_on_c, 0, 70, 0
1, 86220, Note_on_c, 0, 79, 48
1, 86280, Note_on_c, 0, 79, 0
1, 86280, Note_on_c, 0, 70, 48
1, 86340, Note_on_c, 0, 70, 0
1, 86340, Note_on_c, 0, 79, 48
1, 86340, Note_on_c, 1, 55, 0
1, 86340, Note_on_c, 1, 52, 80
1, 86400, Note_on_c, 0, 79, 0
1, 86400, Note_on_c, 0, 69, 48
1, 86400, Note_on_c, 1, 52, 0
1, 86400, Note_on_c, 1, 53, 88
1, 86460, Note_on_c, 0, 69, 0
1, 86460, Note_on_c, 0, 79, 48
1, 86520, Note_on_c, 0, 79, 0
1, 86520, Note_on_c, 0, 69, 48
1, 86580, Note_on_c, 0, 69, 0
1, 86580, Note_on_c, 0, 79, 48
1, 86640, Note_on_c, 0, 79, 0
1, 86640, Note_on_c, 0, 69, 48
1, 86640, Note_on_c, 1, 53, 0
1, 86640, Note_on_c, 1, 53, 80
1, 86700, Note_on_c, 0, 69, 0
1, 86700, Note_on_c, 0, 79, 48
1, 86730, Note_on_c, 1, 53, 0
1, 86760, Note_on_c, 0, 79, 0
1, 86760, Note_on_c, 0, 69, 48
1, 86820, Note_on_c, 0, 69, 0
1, 86820, Note_on_c, 0, 79, 48
1, 86820, Note_on_c, 1, 53, 80
1, 86850, Note_on_c, 1, 53, 0
1, 86880, Note_on_c, 0, 79, 0
1, 86880, Note_on_c, 0, 69, 48
1, 86880, Note_on_c, 1, 53, 80
1, 86940, Note_on_c, 0, 69, 0
1, 86940, Note_on_c, 0, 77, 48
1, 87000, Note_on_c, 0, 77, 0
1, 87000, Note_on_c, 0, 69, 48
1, 87000, Note_on_c, 1, 53, 0
1, 87000, Note_on_c, 1, 55, 80
1, 87060, Note_on_c, 0, 69, 0
1, 87060, Note_on_c, 0, 77, 48
1, 87060, Note_on_c, 1, 55, 0
1, 87060, Note_on_c, 1, 53, 80
1, 87120, Note_on_c, 0, 77, 0
1, 87120, Note_on_c, 0, 69, 48
1, 87120, Note_on_c, 1, 53, 0
1, 87120, Note_on_c, 1, 52, 80
1, 87180, Note_on_c, 0, 69, 0
1, 87180, Note_on_c, 0, 77, 48
1, 87180, Note_on_c, 1, 52, 0
1, 87180, Note_on_c, 1, 50, 80
1, 87240, Note_on_c, 0, 77, 0
1, 87240, Note_on_c, 0, 69, 48
1, 87240, Note_on_c, 1, 50, 0
1, 87240, Note_on_c, 1, 48, 80
1, 87300, Note_on_c, 0, 69, 0
1, 87300, Note_on_c, 0, 77, 48
1, 87300, Note_on_c, 1, 48, 0
1, 87300, Note_on_c, 1, 47, 80
1, 87360, Note_on_c, 0, 77, 0
1, 87360, Note_on_c, 0, 67, 48
1, 87360, Note_on_c, 1, 47, 0
1, 87360, Note_on_c, 1, 50, 88
1, 87420, Note_on_c, 0, 67, 0
1, 87420, Note_on_c, 0, 77, 48
1, 87480, Note_on_c, 0, 77, 0
1, 87480, Note_on_c, 0, 67, 48
1, 87480, Note_on_c, 1, 50, 0
1, 87480, Note_on_c, 1, 48, 80
1, 87540, Note_on_c, 0, 67, 0
1, 87540, Note_on_c, 0, 77, 48
1, 87540, Note_on_c, 1, 48, 0
1, 87600, Note_on_c, 0, 77, 0
1, 87600, Note_on_c, 0, 67, 48
1, 87600, Note_on_c, 1, 48, 80
1, 87660, Note_on_c, 0, 67, 0
1, 87660, Note_on_c, 0, 77, 48
1, 87720, Note_on_c, 0, 77, 0
1, 87720, Note_on_c, 0, 67, 48
1, 87780, Note_on_c, 0, 67, 0
1, 87780, Note_on_c, 0, 77, 48
1, 87840, Note_on_c, 0, 77, 0
1, 87840, Note_on_c, 0, 67, 48
1, 87900, Note_on_c, 0, 67, 0
1, 87900, Note_on_c, 0, 76, 48
1, 87960, Note_on_c, 0, 76, 0
1, 87960, Note_on_c, 0, 67, 48
1, 88020, Note_on_c, 0, 67, 0
1, 88020, Note_on_c, 0, 76, 48
1, 88020, Note_on_c, 1, 48, 0
1, 88020, Note_on_c, 1, 55, 80
1, 88080, Note_on_c, 0, 76, 0
1, 88080, Note_on_c, 0, 67, 48
1, 88080, Note_on_c, 1, 55, 0
1, 88080, Note_on_c, 1, 52, 80
1, 88140, Note_on_c, 0, 67, 0
1, 88140, Note_on_c, 0, 76, 48
1, 88200, Note_on_c, 0, 76, 0
1, 88200, Note_on_c, 0, 67, 48
1, 88260, Note_on_c, 0, 67, 0
1, 88260, Note_on_c, 0, 76, 48
1, 88260, Note_on_c, 1, 52, 0
1, 88260, Note_on_c, 1, 49, 80
1, 88320, Note_on_c, 0, 76, 0
1, 88320, Note_on_c, 0, 65, 48
1, 88320, Note_on_c, 1, 49, 0
1, 88320, Note_on_c, 1, 52, 88
1, 88380, Note_on_c, 0, 65, 0
1, 88380, Note_on_c, 0, 76, 48
1, 88440, Note_on_c, 0, 76, 0
1, 88440, Note_on_c, 0, 65, 48
1, 88440, Note_on_c, 1, 52, 0
1, 88440, Note_on_c, 1, 50, 80
1, 88476, Note_on_c, 1, 50, 0
1, 88500, Note_on_c, 0, 65, 0
1, 88500, Note_on_c, 0, 76, 48
1, 88560, Note_on_c, 0, 76, 0
1, 88560, Note_on_c, 0, 65, 48
1, 88560, Note_on_c, 1, 50, 80
1, 88596, Note_on_c, 1, 50, 0
1, 88620, Note_on_c, 0, 65, 0
1, 88620, Note_on_c, 0, 76, 48
1, 88680, Note_on_c, 0, 76, 0
1, 88680, Note_on_c, 0, 65, 48
1, 88680, Note_on_c, 1, 50, 80
1, 88716, Note_on_c, 1, 50, 0
1, 88740, Note_on_c, 0, 65, 0
1, 88740, Note_on_c, 0, 76, 48
1, 88800, Note_on_c, 0, 76, 0
1, 88800, Note_on_c, 0, 65, 48
1, 88800, Note_on_c, 1, 50, 80
1, 88860, Note_on_c, 0, 65, 0
1, 88860, Note_on_c, 0, 74, 48
1, 88920, Note_on_c, 0, 74, 0
1, 88920, Note_on_c, 0, 65, 48
1, 88920, Note_on_c, 1, 50, 0
1, 88920, Note_on_c, 1, 52, 80
1, 88980, Note_on_c, 0, 65, 0
1, 88980, Note_on_c, 0, 74, 48
1, 88980, Note_on_c, 1, 52, 0
1, 88980, Note_on_c, 1, 50, 80
1, 89040, Note_on_c, 0, 74, 0
1, 89040, Note_on_c, 0, 65, 48
1, 89040, Note_on_c, 1, 50, 0
1, 89040, Note_on_c, 1, 48, 80
1, 89100, Note_on_c, 0, 65, 0
1, 89100, Note_on_c, 0, 74, 48
1, 89100, Note_on_c, 1, 48, 0
1, 89100, Note_on_c, 1, 47, 80
1, 89160, Note_on_c, 0, 74, 0
1, 89160, Note_on_c, 0, 65, 48
1, 89160, Note_on_c, 1, 47, 0
1, 89160, Note_on_c, 1, 45, 80
1, 89220, Note_on_c, 0, 65, 0
1, 89220, Note_on_c, 0, 74, 48
1, 89220, Note_on_c, 1, 45, 0
1, 89220, Note_on_c, 1, 44, 80
1, 89280, Note_on_c, 0, 74, 0
1, 89280, Note_on_c, 0, 64, 48
1, 89280, Note_on_c, 1, 44, 0
1, 89280, Note_on_c, 1, 47, 88
1, 89340, Note_on_c, 0, 64, 0
1, 89340, Note_on_c, 0, 74, 50
1, 89400, Note_on_c, 0, 74, 0
1, 89400, Note_on_c, 0, 64, 52
1, 89400, Note_on_c, 1, 47, 0
1, 89400, Note_on_c, 1, 45, 80
1, 89436, Note_on_c, 1, 45, 0
1, 89460, Note_on_c, 0, 64, 0
1, 89460, Note_on_c, 0, 74, 54
1, 89520, Note_on_c, 0, 74, 0
1, 89520, Note_on_c, 0, 64, 56
1, 89520, Note_on_c, 1, 45, 80
1, 89556, Note_on_c, 1, 45, 0
1, 89580, Note_on_c, 0, 64, 0
1, 89580, Note_on_c, 0, 72, 58
1, 89640, Note_on_c, 0, 72, 0
1, 89640, Note_on_c, 0, 64, 60
1, 89640, Note_on_c, 1, 45, 80
1, 89676, Note_on_c, 1, 45, 0
1, 89700, Note_on_c, 0, 64, 0
1, 89700, Note_on_c, 0, 72, 62
1, 89760, Note_on_c, 0, 72, 0
1, 89760, Note_on_c, 0, 64, 64
1, 89760, Note_on_c, 1, 45, 88
1, 89820, Note_on_c, 0, 64, 0
1, 89820, Note_on_c, 0, 71, 66
1, 89880, Note_on_c, 0, 71, 0
1, 89880, Note_on_c, 0, 64, 68
1, 89880, Note_on_c, 1, 45, 0
1, 89880, Note_on_c, 1, 43, 80
1, 89940, Note_on_c, 0, 64, 0
1, 89940, Note_on_c, 0, 71, 70
1, 89940, Note_on_c, 1, 43, 0
1, 90000, Note_on_c, 0, 71, 0
1, 90000, Note_on_c, 0, 71, 72
1, 90000, Note_on_c, 0, 64, 72
1, 90000, Note_on_c, 1, 43, 88
1, 90060, Note_on_c, 0, 64, 0
1, 90060, Note_on_c, 0, 71, 0
1, 90060, Note_on_c, 0, 76, 74
1, 90120, Note_on_c, 0, 76, 0
1, 90120, Note_on_c, 0, 71, 76
1, 90120, Note_on_c, 0, 64, 76
1, 90120, Note_on_c, 1, 43, 0
1, 90120, Note_on_c, 1, 55, 80
1, 90180, Note_on_c, 0, 64, 0
1, 90180, Note_on_c, 0, 71, 0
1, 90180, Note_on_c, 0, 76, 78
1, 90180, Note_on_c, 1, 55, 0
1, 90240, Note_on_c, 0, 76, 0
1, 90240, Note_on_c, 0, 69, 80
1, 90240, Note_on_c, 0, 76, 80
1, 90240, Note_on_c, 1, 54, 80
1, 90360, Note_on_c, 0, 76, 0
1, 90360, Note_on_c, 0, 75, 76
1, 90480, Note_on_c, 0, 75, 0
1, 90480, Note_on_c, 0, 69, 0
1, 90480, Note_on_c, 1, 54, 0
1, 90480, Note_on_c, 1, 53, 72
1, 90600, Note_on_c, 0, 69, 68
1, 90600, Note_on_c, 0, 74, 68
1, 90660, Note_on_c, 0, 74, 0
1, 90660, Note_on_c, 0, 69, 0
1, 90720, Note_on_c, 0, 69, 64
1, 90720, Note_on_c, 0, 74, 64
1, 90720, Note_on_c, 1, 53, 0
1, 90720, Note_on_c, 1, 52, 64
1, 90840, Note_on_c, 0, 74, 0
1, 90840, Note_on_c, 0, 73, 60
1, 90960, Note_on_c, 0, 73, 0
1, 90960, Note_on_c, 0, 69, 0
1, 90960, Note_on_c, 1, 52, 0
1, 90960, Note_on_c, 1, 52, 56
1, 91080, Note_on_c, 0, 69, 52
1, 91080, Note_on_c, 0, 72, 52
1, 91140, Note_on_c, 0, 72, 0
1, 91140, Note_on_c, 0, 69, 0
1, 91200, Note_on_c, 0, 69, 48
1, 91200, Note_on_c, 0, 70, 48
1, 91200, Note_on_c, 1, 52, 0
1, 91200, Note_on_c, 1, 50, 48
1, 91320, Note_on_c, 0, 70, 0
1, 91320, Note_on_c, 0, 71, 50
1, 91440, Note_on_c, 0, 71, 0
1, 91440, Note_on_c, 0, 69, 0
1, 91440, Note_on_c, 1, 50, 0
1, 91440, Note_on_c, 1, 52, 52
1, 91560, Note_on_c, 0, 69, 54
1, 91560, Note_on_c, 0, 73, 54
1, 91560, Note_on_c, 1, 52, 0
1, 91620, Note_on_c, 0, 73, 0
1, 91620, Note_on_c, 0, 69, 0
1, 91680, Note_on_c, 1, 53, 56
1, 91800, Note_on_c, 0, 69, 58
1, 91800, Note_on_c, 0, 74, 58
1, 91800, Note_on_c, 1, 53, 0
1, 91860, Note_on_c, 0, 74, 0
1, 91860, Note_on_c, 0, 69, 0
1, 91920, Note_on_c, 1, 49, 60
1, 92040, Note_on_c, 0, 69, 62
1, 92040, Note_on_c, 0, 76, 62
1, 92040, Note_on_c, 1, 49, 0
1, 92160, Note_on_c, 0, 76, 0
1, 92160, Note_on_c, 0, 69, 0
1, 92160, Note_on_c, 0, 69, 64
1, 92160, Note_on_c, 0, 79, 72
1, 92160, Note_on_c, 1, 50, 64
1, 92280, Note_on_c, 0, 79, 0
1, 92280, Note_on_c, 0, 77, 62
1, 92400, Note_on_c, 1, 50, 0
1, 92400, Note_on_c, 1, 52, 60
1, 92520, Note_on_c, 0, 77, 0
1, 92520, Note_on_c, 0, 76, 58
1, 92640, Note_on_c, 0, 76, 0
1, 92640, Note_on_c, 0, 74, 56
1, 92640, Note_on_c, 1, 52, 0
1, 92640, Note_on_c, 1, 53, 56
1, 92760, Note_on_c, 0, 74, 0
1, 92760, Note_on_c, 0, 72, 54
1, 92880, Note_on_c, 0, 72, 0
1, 92880, Note_on_c, 0, 69, 0
1, 92880, Note_on_c, 0, 66, 52
1, 92880, Note_on_c, 0, 71, 52
1, 92880, Note_on_c, 1, 53, 0
1, 92880, Note_on_c, 1, 51, 52
1, 93000, Note_on_c, 0, 71, 0
1, 93000, Note_on_c, 0, 69, 50
1, 93120, Note_on_c, 0, 69, 0
1, 93120, Note_on_c, 0, 66, 0
1, 93120, Note_on_c, 0, 68, 80
1, 93120, Note_on_c, 1, 51, 0
1, 93120, Note_on_c, 1, 52, 64
1, 93150, Note_on_c, 0, 71, 80
1, 93180, Note_on_c, 0, 76, 80
1, 93180, Note_on_c, 1, 52, 0
1, 93180, Note_on_c, 1, 59, 64
1, 93240, Note_on_c, 1, 59, 0
1, 93240, Note_on_c, 1, 56, 64
1, 93300, Note_on_c, 1, 56, 0
1, 93300, Note_on_c, 1, 59, 64
1, 93360, Note_on_c, 0, 76, 0
1, 93360, Note_on_c, 0, 71, 0
1, 93360, Note_on_c, 0, 68, 0
1, 93360, Note_on_c, 0, 76, 80
1, 93360, Note_on_c, 1, 59, 0
1, 93360, Note_on_c, 1, 52, 64
1, 93420, Note_on_c, 1, 52, 0
1, 93420, Note_on_c, 1, 59, 64
1, 93450, Note_on_c, 0, 76, 0
1, 93480, Note_on_c, 1, 59, 0
1, 93480, Note_on_c, 1, 56, 64
1, 93540, Note_on_c, 0, 76, 80
1, 93540, Note_on_c, 1, 56, 0
1, 93540, Note_on_c, 1, 59, 64
1, 93570, Note_on_c, 0, 76, 0
1, 93600, Note_on_c, 0, 76, 80
1, 93600, Note_on_c, 1, 59, 0
1, 93600, Note_on_c, 1, 52, 64
1, 93660, Note_on_c, 1, 52, 0
1, 93660, Note_on_c, 1, 60, 64
1, 93720, Note_on_c, 1, 60, 0
1, 93720, Note_on_c, 1, 57, 64
1, 93780, Note_on_c, 1, 57, 0
1, 93780, Note_on_c, 1, 60, 64
1, 93840, Note_on_c, 0, 76, 0
1, 93840, Note_on_c, 0, 76, 80
1, 93840, Note_on_c, 1, 60, 0
1, 93840, Note_on_c, 1, 52, 64
1, 93900, Note_on_c, 1, 52, 0
1, 93900, Note_on_c, 1, 62, 64
1, 93960, Note_on_c, 1, 62, 0
1, 93960, Note_on_c, 1, 59, 64
1, 94020, Note_on_c, 1, 59, 0
1, 94020, Note_on_c, 1, 62, 64
1, 94080, Note_on_c, 0, 76, 0
1, 94080, Note_on_c, 0, 81, 88
1, 94080, Note_on_c, 0, 69, 80
1, 94080, Note_on_c, 1, 62, 0
1, 94080, Note_on_c, 1, 52, 64
1, 94140, Note_on_c, 1, 52, 0
1, 94140, Note_on_c, 1, 60, 64
1, 94200, Note_on_c, 1, 60, 0
1, 94200, Note_on_c, 1, 57, 64
1, 94260, Note_on_c, 1, 57, 0
1, 94260, Note_on_c, 1, 60, 64
1, 94320, Note_on_c, 1, 60, 0
1, 94320, Note_on_c, 1, 52, 64
1, 94380, Note_on_c, 1, 52, 0
1, 94380, Note_on_c, 1, 60, 64
1, 94440, Note_on_c, 0, 81, 0
1, 94440, Note_on_c, 0, 79, 80
1, 94440, Note_on_c, 1, 60, 0
1, 94440, Note_on_c, 1, 57, 64
1, 94500, Note_on_c, 0, 79, 0
1, 94500, Note_on_c, 0, 77, 80
1, 94500, Note_on_c, 1, 57, 0
1, 94500, Note_on_c, 1, 60, 64
1, 94560, Note_on_c, 0, 77, 0
1, 94560, Note_on_c, 0, 76, 80
1, 94560, Note_on_c, 1, 60, 0
1, 94560, Note_on_c, 1, 52, 64
1, 94620, Note_on_c, 1, 52, 0
1, 94620, Note_on_c, 1, 60, 64
1, 94680, Note_on_c, 1, 60, 0
1, 94680, Note_on_c, 1, 57, 64
1, 94740, Note_on_c, 1, 57, 0
1, 94740, Note_on_c, 1, 60, 64
1, 94800, Note_on_c, 0, 76, 0
1, 94800, Note_on_c, 0, 75, 80
1, 94800, Note_on_c, 1, 60, 0
1, 94800, Note_on_c, 1, 52, 64
1, 94860, Note_on_c, 1, 52, 0
1, 94860, Note_on_c, 1, 60, 64
1, 94920, Note_on_c, 1, 60, 0
1, 94920, Note_on_c, 1, 57, 64
1, 94980, Note_on_c, 1, 57, 0
1, 94980, Note_on_c, 1, 60, 64
1, 95040, Note_on_c, 0, 75, 0
1, 95040, Note_on_c, 0, 69, 0
1, 95040, Note_on_c, 0, 68, 40
1, 95040, Note_on_c, 1, 60, 0
1, 95040, Note_on_c, 1, 52, 40
1, 95070, Note_on_c, 0, 71, 40
1, 95100, Note_on_c, 0, 76, 40
1, 95100, Note_on_c, 1, 52, 0
1, 95100, Note_on_c, 1, 59, 40
1, 95160, Note_on_c, 1, 59, 0
1, 95160, Note_on_c, 1, 56, 40
1, 95220, Note_on_c, 1, 56, 0
1, 95220, Note_on_c, 1, 59, 40
1, 95280, Note_on_c, 0, 76, 0
1, 95280, Note_on_c, 0, 71, 0
1, 95280, Note_on_c, 0, 68, 0
1, 95280, Note_on_c, 0, 76, 40
1, 95280, Note_on_c, 1, 59, 0
1, 95280, Note_on_c, 1, 52, 40
1, 95340, Note_on_c, 1, 52, 0
1, 95340, Note_on_c, 1, 59, 40
1, 95370, Note_on_c, 0, 76, 0
1, 95400, Note_on_c, 1, 59, 0
1, 95400, Note_on_c, 1, 56, 40
1, 95460, Note_on_c, 0, 76, 40
1, 95460, Note_on_c, 1, 56, 0
1, 95460, Note_on_c, 1, 59, 40
1, 95490, Note_on_c, 0, 76, 0
1, 95520, Note_on_c, 0, 76, 40
1, 95520, Note_on_c, 1, 59, 0
1, 95520, Note_on_c, 1, 52, 40
1, 95580, Note_on_c, 1, 52, 0
1, 95580, Note_on_c, 1, 60, 40
1, 95640, Note_on_c, 1, 60, 0
1, 95640, Note_on_c, 1, 57, 40
1, 95700, Note_on_c, 1, 57, 0
1, 95700, Note_on_c, 1, 60, 40
1, 95760, Note_on_c, 0, 76, 0
1, 95760, Note_on_c, 0, 76, 40
1, 95760, Note_on_c, 1, 60, 0
1, 95760, Note_on_c, 1, 52, 40
1, 95820, Note_on_c, 1, 52, 0
1, 95820, Note_on_c, 1, 62, 40
1, 95880, Note_on_c, 1, 62, 0
1, 95880, Note_on_c, 1, 59, 40
1, 95940, Note_on_c, 0, 69, 48
1, 95940, Note_on_c, 1, 59, 0
1, 95940, Note_on_c, 1, 62, 40
1, 96000, Note_on_c, 0, 76, 0
1, 96000, Note_on_c, 0, 81, 64
1, 96000, Note_on_c, 1, 62, 0
1, 96000, Note_on_c, 1, 52, 40
1, 96060, Note_on_c, 1, 52, 0
1, 96060, Note_on_c, 1, 60, 40
1, 96120, Note_on_c, 1, 60, 0
1, 96120, Note_on_c, 1, 57, 40
1, 96180, Note_on_c, 1, 57, 0
1, 96180, Note_on_c, 1, 60, 40
1, 96240, Note_on_c, 1, 60, 0
1, 96240, Note_on_c, 1, 52, 40
1, 96300, Note_on_c, 1, 52, 0
1, 96300, Note_on_c, 1, 60, 40
1, 96360, Note_on_c, 0, 81, 0
1, 96360, Note_on_c, 0, 79, 40
1, 96360, Note_on_c, 1, 60, 0
1, 96360, Note_on_c, 1, 57, 40
1, 96420, Note_on_c, 0, 79, 0
1, 96420, Note_on_c, 0, 77, 40
1, 96420, Note_on_c, 1, 57, 0
1, 96420, Note_on_c, 1, 60, 40
1, 96480, Note_on_c, 0, 77, 0
1, 96480, Note_on_c, 0, 76, 40
1, 96480, Note_on_c, 1, 60, 0
1, 96480, Note_on_c, 1, 52, 40
1, 96540, Note_on_c, 1, 52, 0
1, 96540, Note_on_c, 1, 60, 40
1, 96600, Note_on_c, 1, 60, 0
1, 96600, Note_on_c, 1, 57, 40
1, 96660, Note_on_c, 1, 57, 0
1, 96660, Note_on_c, 1, 60, 40
1, 96720, Note_on_c, 0, 76, 0
1, 96720, Note_on_c, 0, 75, 40
1, 96720, Note_on_c, 1, 60, 0
1, 96720, Note_on_c, 1, 52, 40
1, 96780, Note_on_c, 1, 52, 0
1, 96780, Note_on_c, 1, 60, 40
1, 96840, Note_on_c, 1, 60, 0
1, 96840, Note_on_c, 1, 57, 40
1, 96900, Note_on_c, 1, 57, 0
1, 96900, Note_on_c, 1, 60, 40
1, 96960, Note_on_c, 0, 75, 0
1, 96960, Note_on_c, 0, 69, 0
1, 96960, Note_on_c, 0, 76, 80
1, 96960, Note_on_c, 1, 60, 0
1, 96960, Note_on_c, 1, 59, 80
1, 96960, Note_on_c, 1, 56, 80
1, 96960, Note_on_c, 1, 52, 80
1, 97020, Note_on_c, 0, 76, 0
1, 97020, Note_on_c, 0, 71, 80
1, 97038, Note_on_c, 0, 71, 0
1, 97080, Note_on_c, 0, 68, 80
1, 97098, Note_on_c, 0, 68, 0
1, 97140, Note_on_c, 0, 71, 80
1, 97158, Note_on_c, 0, 71, 0
1, 97200, Note_on_c, 0, 76, 80
1, 97200, Note_on_c, 1, 52, 0
1, 97200, Note_on_c, 1, 56, 0
1, 97200, Note_on_c, 1, 59, 0
1, 97260, Note_on_c, 0, 76, 0
1, 97260, Note_on_c, 0, 72, 80
1, 97320, Note_on_c, 0, 72, 0
1, 97320, Note_on_c, 0, 69, 80
1, 97320, Note_on_c, 1, 45, 80
1, 97320, Note_on_c, 1, 57, 80
1, 97356, Note_on_c, 1, 57, 0
1, 97356, Note_on_c, 1, 45, 0
1, 97380, Note_on_c, 0, 69, 0
1, 97380, Note_on_c, 0, 72, 80
1, 97440, Note_on_c, 0, 72, 0
1, 97440, Note_on_c, 0, 76, 80
1, 97440, Note_on_c, 1, 40, 80
1, 97440, Note_on_c, 1, 52, 80
1, 97500, Note_on_c, 0, 76, 0
1, 97500, Note_on_c, 0, 71, 80
1, 97518, Note_on_c, 0, 71, 0
1, 97560, Note_on_c, 0, 68, 80
1, 97578, Note_on_c, 0, 68, 0
1, 97620, Note_on_c, 0, 71, 80
1, 97632, Note_on_c, 1, 52, 0
1, 97632, Note_on_c, 1, 40, 0
1, 97638, Note_on_c, 0, 71, 0
1, 97680, Note_on_c, 0, 76, 80
1, 97740, Note_on_c, 0, 76, 0
1, 97740, Note_on_c, 0, 72, 80
1, 97800, Note_on_c, 0, 72, 0
1, 97800, Note_on_c, 0, 69, 80
1, 97800, Note_on_c, 1, 45, 80
1, 97800, Note_on_c, 1, 57, 80
1, 97860, Note_on_c, 0, 69, 0
1, 97860, Note_on_c, 0, 72, 80
1, 97860, Note_on_c, 1, 57, 0
1, 97860, Note_on_c, 1, 45, 0
1, 97920, Note_on_c, 0, 72, 0
1, 97920, Note_on_c, 0, 76, 80
1, 97920, Note_on_c, 1, 40, 80
1, 97920, Note_on_c, 1, 52, 80
1, 97980, Note_on_c, 0, 76, 0
1, 97980, Note_on_c, 0, 71, 80
1, 97998, Note_on_c, 0, 71, 0
1, 98040, Note_on_c, 0, 68, 80
1, 98058, Note_on_c, 0, 68, 0
1, 98100, Note_on_c, 0, 71, 80
1, 98118, Note_on_c, 0, 71, 0
1, 98160, Note_on_c, 0, 76, 80
1, 98160, Note_on_c, 1, 52, 0
1, 98160, Note_on_c, 1, 40, 0
1, 98220, Note_on_c, 0, 76, 0
1, 98220, Note_on_c, 0, 72, 80
1, 98280, Note_on_c, 0, 72, 0
1, 98280, Note_on_c, 0, 69, 80
1, 98280, Note_on_c, 1, 45, 80
1, 98280, Note_on_c, 1, 57, 80
1, 98340, Note_on_c, 0, 69, 0
1, 98340, Note_on_c, 0, 72, 80
1, 98400, Note_on_c, 0, 72, 0
1, 98400, Note_on_c, 0, 71, 80
1, 98400, Note_on_c, 0, 68, 80
1, 98400, Note_on_c, 1, 57, 0
1, 98400, Note_on_c, 1, 45, 0
1, 98400, Note_on_c, 1, 40, 80
1, 98400, Note_on_c, 1, 52, 80
1, 98460, Note_on_c, 0, 71, 0
1, 98460, Note_on_c, 0, 76, 80
1, 98520, Note_on_c, 0, 76, 0
1, 98520, Note_on_c, 0, 68, 0
1, 98520, Note_on_c, 0, 72, 80
1, 98520, Note_on_c, 0, 69, 80
1, 98520, Note_on_c, 1, 52, 0
1, 98520, Note_on_c, 1, 40, 0
1, 98520, Note_on_c, 1, 45, 80
1, 98520, Note_on_c, 1, 57, 80
1, 98580, Note_on_c, 0, 72, 0
1, 98580, Note_on_c, 0, 76, 80
1, 98640, Note_on_c, 0, 76, 0
1, 98640, Note_on_c, 0, 69, 0
1, 98640, Note_on_c, 0, 71, 80
1, 98640, Note_on_c, 0, 68, 80
1, 98640, Note_on_c, 1, 57, 0
1, 98640, Note_on_c, 1, 45, 0
1, 98640, Note_on_c, 1, 40, 80
1, 98640, Note_on_c, 1, 52, 80
1, 98700, Note_on_c, 0, 71, 0
1, 98700, Note_on_c, 0, 76, 80
1, 98760, Note_on_c, 0, 76, 0
1, 98760, Note_on_c, 0, 68, 0
1, 98760, Note_on_c, 0, 72, 80
1, 98760, Note_on_c, 0, 69, 80
1, 98760, Note_on_c, 1, 52, 0
1, 98760, Note_on_c, 1, 40, 0
1, 98760, Note_on_c, 1, 45, 80
1, 98760, Note_on_c, 1, 57, 80
1, 98820, Note_on_c, 0, 72, 0
1, 98820, Note_on_c, 0, 76, 80
1, 98880, Note_on_c, 0, 76, 0
1, 98880, Note_on_c, 0, 69, 0
1, 98880, Note_on_c, 0, 71, 80
1, 98880, Note_on_c, 0, 68, 80
1, 98880, Note_on_c, 1, 57, 0
1, 98880, Note_on_c, 1, 45, 0
1, 98880, Note_on_c, 1, 40, 80
1, 98880, Note_on_c, 1, 52, 80
1, 99000, Note_on_c, 0, 68, 0
1, 99000, Note_on_c, 0, 71, 0
1, 99000, Note_on_c, 1, 52, 0
1, 99000, Note_on_c, 1, 40, 0
1, 99120, Note_on_c, 0, 76, 88
1, 99120, Note_on_c, 0, 71, 88
1, 99120, Note_on_c, 0, 68, 88
1, 99120, Note_on_c, 0, 64, 88
1, 99120, Note_on_c, 1, 40, 88
1, 99120, Note_on_c, 1, 52, 88
1, 99360, Note_on_c, 0, 64, 0
1, 99360, Note_on_c, 0, 76, 0
1, 99360, Note_on_c, 0, 71, 0
1, 99360, Note_on_c, 0, 68, 0
1, 99360, Note_on_c, 1, 52, 0
1, 99360, Note_on_c, 1, 40, 0
1, 99360, Note_on_c, 1, 40, 48
1, 99360, Note_on_c, 1, 52, 48
1, 99480, Note_on_c, 0, 76, 56
1, 99480, Note_on_c, 1, 52, 0
1, 99480, Note_on_c, 1, 40, 0
1, 99516, Note_on_c, 0, 76, 0
1, 99600, Note_on_c, 0, 78, 56
1, 99636, Note_on_c, 0, 78, 0
1, 99720, Note_on_c, 0, 80, 56
1, 99756, Note_on_c, 0, 80, 0
1, 99840, Note_on_c, 0, 81, 56
1, 99840, Note_on_c, 1, 64, 48
1, 99840, Note_on_c, 1, 60, 48
1, 99900, Note_on_c, 0, 81, 0
1, 99900, Note_on_c, 0, 83, 56
1, 99930, Note_on_c, 0, 83, 0
1, 99960, Note_on_c, 0, 80, 56
1, 99960, Note_on_c, 1, 60, 0
1, 99960, Note_on_c, 1, 64, 0
1, 99960, Note_on_c, 1, 65, 48
1, 99960, Note_on_c, 1, 62, 48
1, 99990, Note_on_c, 0, 80, 0
1, 99996, Note_on_c, 1, 62, 0
1, 99996, Note_on_c, 1, 65, 0
1, 100020, Note_on_c, 0, 83, 56
1, 100050, Note_on_c, 0, 83, 0
1, 100080, Note_on_c, 0, 81, 56
1, 100080, Note_on_c, 1, 64, 48
1, 100080, Note_on_c, 1, 60, 48
1, 100116, Note_on_c, 1, 60, 0
1, 100116, Note_on_c, 1, 64, 0
1, 100140, Note_on_c, 0, 81, 0
1, 100140, Note_on_c, 0, 83, 56
1, 100170, Note_on_c, 0, 83, 0
1, 100200, Note_on_c, 0, 80, 56
1, 100200, Note_on_c, 1, 65, 48
1, 100200, Note_on_c, 1, 62, 48
1, 100230, Note_on_c, 0, 80, 0
1, 100236, Note_on_c, 1, 62, 0
1, 100236, Note_on_c, 1, 65, 0
1, 100260, Note_on_c, 0, 83, 56
1, 100290, Note_on_c, 0, 83, 0
1, 100320, Note_on_c, 0, 81, 56
1, 100320, Note_on_c, 1, 60, 48
1, 100320, Note_on_c, 1, 64, 48
1, 100380, Note_on_c, 0, 81, 0
1, 100380, Note_on_c, 0, 83, 56
1, 100440, Note_on_c, 0, 83, 0
1, 100440, Note_on_c, 0, 79, 56
1, 100500, Note_on_c, 0, 79, 0
1, 100500, Note_on_c, 0, 81, 56
1, 100560, Note_on_c, 0, 81, 0
1, 100560, Note_on_c, 0, 77, 56
1, 100560, Note_on_c, 1, 64, 0
1, 100560, Note_on_c, 1, 60, 0
1, 100620, Note_on_c, 0, 77, 0
1, 100620, Note_on_c, 0, 79, 56
1, 100680, Note_on_c, 0, 79, 0
1, 100680, Note_on_c, 0, 76, 56
1, 100740, Note_on_c, 0, 76, 0
1, 100740, Note_on_c, 0, 77, 56
1, 100800, Note_on_c, 0, 77, 0
1, 100800, Note_on_c, 0, 74, 56
1, 100800, Note_on_c, 1, 69, 48
1, 100800, Note_on_c, 1, 65, 48
1, 100860, Note_on_c, 0, 74, 0
1, 100860, Note_on_c, 0, 76, 56
1, 100920, Note_on_c, 0, 76, 0
1, 100920, Note_on_c, 0, 73, 56
1, 100920, Note_on_c, 1, 65, 0
1, 100920, Note_on_c, 1, 69, 0
1, 100920, Note_on_c, 1, 70, 48
1, 100920, Note_on_c, 1, 67, 48
1, 100980, Note_on_c, 0, 73, 0
1, 100980, Note_on_c, 0, 76, 56
1, 101040, Note_on_c, 0, 76, 0
1, 101040, Note_on_c, 0, 74, 56
1, 101040, Note_on_c, 1, 67, 0
1, 101040, Note_on_c, 1, 70, 0
1, 101040, Note_on_c, 1, 69, 48
1, 101040, Note_on_c, 1, 65, 48
1, 101076, Note_on_c, 1, 65, 0
1, 101076, Note_on_c, 1, 69, 0
1, 101100, Note_on_c, 0, 74, 0
1, 101100, Note_on_c, 0, 76, 56
1, 101130, Note_on_c, 0, 76, 0
1, 101160, Note_on_c, 0, 73, 56
1, 101160, Note_on_c, 1, 70, 48
1, 101160, Note_on_c, 1, 67, 48
1, 101190, Note_on_c, 0, 73, 0
1, 101196, Note_on_c, 1, 67, 0
1, 101196, Note_on_c, 1, 70, 0
1, 101220, Note_on_c, 0, 76, 56
1, 101250, Note_on_c, 0, 76, 0
1, 101280, Note_on_c, 0, 74, 56
1, 101280, Note_on_c, 1, 69, 48
1, 101280, Note_on_c, 1, 65, 48
1, 101340, Note_on_c, 0, 74, 0
1, 101340, Note_on_c, 0, 76, 56
1, 101400, Note_on_c, 0, 76, 0
1, 101400, Note_on_c, 0, 72, 56
1, 101460, Note_on_c, 0, 72, 0
1, 101460, Note_on_c, 0, 74, 56
1, 101520, Note_on_c, 0, 74, 0
1, 101520, Note_on_c, 0, 71, 56
1, 101520, Note_on_c, 1, 65, 0
1, 101520, Note_on_c, 1, 69, 0
1, 101580, Note_on_c, 0, 71, 0
1, 101580, Note_on_c, 0, 72, 56
1, 101640, Note_on_c, 0, 72, 0
1, 101640, Note_on_c, 0, 69, 56
1, 101700, Note_on_c, 0, 69, 0
1, 101700, Note_on_c, 0, 71, 56
1, 101760, Note_on_c, 0, 71, 0
1, 101760, Note_on_c, 0, 68, 56
1, 101760, Note_on_c, 1, 52, 48
1, 101760, Note_on_c, 1, 62, 48
1, 101760, Note_on_c, 1, 59, 48
1, 101820, Note_on_c, 0, 68, 0
1, 101820, Note_on_c, 0, 71, 56
1, 101880, Note_on_c, 0, 71, 0
1, 101880, Note_on_c, 0, 69, 56
1, 101880, Note_on_c, 1, 52, 0
1, 101880, Note_on_c, 1, 53, 48
1, 101940, Note_on_c, 0, 69, 0
1, 101940, Note_on_c, 0, 71, 56
1, 102000, Note_on_c, 0, 71, 0
1, 102000, Note_on_c, 0, 68, 56
1, 102000, Note_on_c, 1, 53, 0
1, 102000, Note_on_c, 1, 52, 48
1, 102060, Note_on_c, 0, 68, 0
1, 102060, Note_on_c, 0, 71, 56
1, 102120, Note_on_c, 0, 71, 0
1, 102120, Note_on_c, 0, 69, 56
1, 102120, Note_on_c, 1, 52, 0
1, 102120, Note_on_c, 1, 53, 48
1, 102150, Note_on_c, 0, 69, 0
1, 102156, Note_on_c, 1, 53, 0
1, 102180, Note_on_c, 0, 71, 56
1, 102210, Note_on_c, 0, 71, 0
1, 102240, Note_on_c, 0, 68, 56
1, 102240, Note_on_c, 1, 52, 48
1, 102300, Note_on_c, 0, 68, 0
1, 102300, Note_on_c, 0, 71, 56
1, 102360, Note_on_c, 0, 71, 0
1, 102360, Note_on_c, 0, 65, 56
1, 102420, Note_on_c, 0, 65, 0
1, 102420, Note_on_c, 0, 71, 56
1, 102480, Note_on_c, 0, 71, 0
1, 102480, Note_on_c, 0, 64, 56
1, 102480, Note_on_c, 1, 52, 0
1, 102480, Note_on_c, 1, 59, 0
1, 102480, Note_on_c, 1, 62, 0
1, 102540, Note_on_c, 0, 64, 0
1, 102540, Note_on_c, 0, 71, 56
1, 102600, Note_on_c, 0, 71, 0
1, 102600, Note_on_c, 0, 62, 56
1, 102660, Note_on_c, 0, 62, 0
1, 102660, Note_on_c, 0, 71, 56
1, 102720, Note_on_c, 0, 71, 0
1, 102720, Note_on_c, 0, 60, 56
1, 102720, Note_on_c, 1, 45, 48
1, 102720, Note_on_c, 1, 57, 48
1, 102780, Note_on_c, 0, 60, 0
1, 102780, Note_on_c, 0, 64, 57
1, 102840, Note_on_c, 0, 64, 0
1, 102840, Note_on_c, 0, 63, 58
1, 102900, Note_on_c, 0, 63, 0
1, 102900, Note_on_c, 0, 64, 59
1, 102960, Note_on_c, 0, 64, 0
1, 102960, Note_on_c, 0, 65, 60
1, 102960, Note_on_c, 1, 57, 0
1, 102960, Note_on_c, 1, 45, 0
1, 103020, Note_on_c, 0, 65, 0
1, 103020, Note_on_c, 0, 64, 61
1, 103080, Note_on_c, 0, 64, 0
1, 103080, Note_on_c, 0, 68, 62
1, 103140, Note_on_c, 0, 68, 0
1, 103140, Note_on_c, 0, 64, 63
1, 103200, Note_on_c, 0, 64, 0
1, 103200, Note_on_c, 0, 69, 64
1, 103260, Note_on_c, 0, 69, 0
1, 103260, Note_on_c, 0, 64, 65
1, 103320, Note_on_c, 0, 64, 0
1, 103320, Note_on_c, 0, 71, 66
1, 103380, Note_on_c, 0, 71, 0
1, 103380, Note_on_c, 0, 64, 67
1, 103440, Note_on_c, 0, 64, 0
1, 103440, Note_on_c, 0, 72, 68
1, 103500, Note_on_c, 0, 72, 0
1, 103500, Note_on_c, 0, 64, 69
1, 103560, Note_on_c, 0, 64, 0
1, 103560, Note_on_c, 0, 74, 70
1, 103578, Note_on_c, 0, 74, 0
1, 103620, Note_on_c, 0, 64, 71
1, 103638, Note_on_c, 0, 64, 0
1, 103680, Note_on_c, 0, 76, 56
1, 103680, Note_on_c, 1, 48, 48
1, 103680, Note_on_c, 1, 57, 48
1, 103740, Note_on_c, 0, 76, 0
1, 103740, Note_on_c, 0, 77, 57
1, 103770, Note_on_c, 0, 77, 0
1, 103800, Note_on_c, 0, 75, 58
1, 103800, Note_on_c, 1, 57, 0
1, 103800, Note_on_c, 1, 48, 0
1, 103800, Note_on_c, 1, 48, 48
1, 103800, Note_on_c, 1, 57, 48
1, 103830, Note_on_c, 0, 75, 0
1, 103836, Note_on_c, 1, 57, 0
1, 103836, Note_on_c, 1, 48, 0
1, 103860, Note_on_c, 0, 77, 59
1, 103890, Note_on_c, 0, 77, 0
1, 103920, Note_on_c, 0, 76, 60
1, 103920, Note_on_c, 1, 48, 48
1, 103920, Note_on_c, 1, 57, 48
1, 103956, Note_on_c, 1, 57, 0
1, 103956, Note_on_c, 1, 48, 0
1, 103980, Note_on_c, 0, 76, 0
1, 103980, Note_on_c, 0, 77, 61
1, 104010, Note_on_c, 0, 77, 0
1, 104040, Note_on_c, 0, 75, 62
1, 104040, Note_on_c, 1, 48, 48
1, 104040, Note_on_c, 1, 57, 48
1, 104070, Note_on_c, 0, 75, 0
1, 104076, Note_on_c, 1, 57, 0
1, 104076, Note_on_c, 1, 48, 0
1, 104100, Note_on_c, 0, 77, 63
1, 104130, Note_on_c, 0, 77, 0
1, 104160, Note_on_c, 0, 76, 64
1, 104160, Note_on_c, 1, 48, 48
1, 104160, Note_on_c, 1, 57, 48
1, 104220, Note_on_c, 0, 76, 0
1, 104220, Note_on_c, 0, 81, 65
1, 104280, Note_on_c, 0, 81, 0
1, 104280, Note_on_c, 0, 80, 66
1, 104340, Note_on_c, 0, 80, 0
1, 104340, Note_on_c, 0, 81, 67
1, 104400, Note_on_c, 0, 81, 0
1, 104400, Note_on_c, 0, 83, 68
1, 104400, Note_on_c, 1, 57, 0
1, 104400, Note_on_c, 1, 48, 0
1, 104460, Note_on_c, 0, 83, 0
1, 104460, Note_on_c, 0, 81, 69
1, 104520, Note_on_c, 0, 81, 0
1, 104520, Note_on_c, 0, 80, 70
1, 104580, Note_on_c, 0, 80, 0
1, 104580, Note_on_c, 0, 81, 71
1, 104640, Note_on_c, 0, 81, 0
1, 104640, Note_on_c, 0, 79, 72
1, 104640, Note_on_c, 1, 50, 56
1, 104700, Note_on_c, 0, 79, 0
1, 104700, Note_on_c, 0, 77, 67
1, 104760, Note_on_c, 0, 77, 0
1, 104760, Note_on_c, 0, 76, 63
1, 104820, Note_on_c, 0, 76, 0
1, 104820, Note_on_c, 0, 77, 58
1, 104880, Note_on_c, 0, 77, 0
1, 104880, Note_on_c, 0, 76, 56
1, 104880, Note_on_c, 1, 53, 56
1, 104940, Note_on_c, 0, 76, 0
1, 104940, Note_on_c, 0, 74, 56
1, 105000, Note_on_c, 0, 74, 0
1, 105000, Note_on_c, 0, 73, 56
1, 105060, Note_on_c, 0, 73, 0
1, 105060, Note_on_c, 0, 74, 56
1, 105120, Note_on_c, 0, 74, 0
1, 105120, Note_on_c, 0, 72, 56
1, 105120, Note_on_c, 1, 53, 0
1, 105120, Note_on_c, 1, 58, 56
1, 105180, Note_on_c, 0, 72, 0
1, 105180, Note_on_c, 0, 70, 56
1, 105240, Note_on_c, 0, 70, 0
1, 105240, Note_on_c, 0, 69, 56
1, 105300, Note_on_c, 0, 69, 0
1, 105300, Note_on_c, 0, 70, 56
1, 105360, Note_on_c, 0, 70, 0
1, 105360, Note_on_c, 0, 69, 58
1, 105360, Note_on_c, 1, 50, 0
1, 105360, Note_on_c, 1, 50, 56
1, 105420, Note_on_c, 0, 69, 0
1, 105420, Note_on_c, 0, 70, 61
1, 105480, Note_on_c, 0, 70, 0
1, 105480, Note_on_c, 0, 72, 65
1, 105540, Note_on_c, 0, 72, 0
1, 105540, Note_on_c, 0, 74, 69
1, 105600, Note_on_c, 0, 74, 0
1, 105600, Note_on_c, 0, 77, 72
1, 105600, Note_on_c, 1, 50, 0
1, 105600, Note_on_c, 1, 48, 56
1, 105660, Note_on_c, 0, 77, 0
1, 105660, Note_on_c, 0, 76, 67
1, 105720, Note_on_c, 0, 76, 0
1, 105720, Note_on_c, 0, 75, 63
1, 105780, Note_on_c, 0, 75, 0
1, 105780, Note_on_c, 0, 76, 58
1, 105840, Note_on_c, 0, 76, 0
1, 105840, Note_on_c, 0, 74, 56
1, 105840, Note_on_c, 1, 58, 0
1, 105840, Note_on_c, 1, 56, 56
1, 105900, Note_on_c, 0, 74, 0
1, 105900, Note_on_c, 0, 72, 56
1, 105960, Note_on_c, 0, 72, 0
1, 105960, Note_on_c, 0, 71, 56
1, 106020, Note_on_c, 0, 71, 0
1, 106020, Note_on_c, 0, 72, 56
1, 106080, Note_on_c, 0, 72, 0
1, 106080, Note_on_c, 0, 71, 56
1, 106080, Note_on_c, 1, 56, 0
1, 106080, Note_on_c, 1, 57, 56
1, 106140, Note_on_c, 0, 71, 0
1, 106140, Note_on_c, 0, 69, 56
1, 106200, Note_on_c, 0, 69, 0
1, 106200, Note_on_c, 0, 68, 56
1, 106260, Note_on_c, 0, 68, 0
1, 106260, Note_on_c, 0, 69, 56
1, 106320, Note_on_c, 0, 69, 0
1, 106320, Note_on_c, 0, 68, 57
1, 106320, Note_on_c, 1, 48, 0
1, 106320, Note_on_c, 1, 48, 56
1, 106380, Note_on_c, 0, 68, 0
1, 106380, Note_on_c, 0, 69, 61
1, 106440, Note_on_c, 0, 69, 0
1, 106440, Note_on_c, 0, 71, 64
1, 106500, Note_on_c, 0, 71, 0
1, 106500, Note_on_c, 0, 72, 68
1, 106560, Note_on_c, 0, 72, 0
1, 106560, Note_on_c, 0, 74, 72
1, 106560, Note_on_c, 1, 48, 0
1, 106560, Note_on_c, 1, 47, 56
1, 106620, Note_on_c, 0, 74, 0
1, 106620, Note_on_c, 0, 77, 70
1, 106680, Note_on_c, 0, 77, 0
1, 106680, Note_on_c, 0, 72, 68
1, 106740, Note_on_c, 0, 72, 0
1, 106740, Note_on_c, 0, 77, 66
1, 106800, Note_on_c, 0, 77, 0
1, 106800, Note_on_c, 0, 71, 63
1, 106800, Note_on_c, 1, 47, 0
1, 106800, Note_on_c, 1, 57, 0
1, 106800, Note_on_c, 1, 62, 56
1, 106800, Note_on_c, 1, 53, 56
1, 106860, Note_on_c, 0, 71, 0
1, 106860, Note_on_c, 0, 77, 61
1, 106920, Note_on_c, 0, 77, 0
1, 106920, Note_on_c, 0, 69, 59
1, 106980, Note_on_c, 0, 69, 0
1, 106980, Note_on_c, 0, 77, 57
1, 107040, Note_on_c, 0, 77, 0
1, 107040, Note_on_c, 0, 68, 56
1, 107040, Note_on_c, 1, 53, 0
1, 107040, Note_on_c, 1, 52, 56
1, 107100, Note_on_c, 0, 68, 0
1, 107100, Note_on_c, 0, 71, 56
1, 107160, Note_on_c, 0, 71, 0
1, 107160, Note_on_c, 0, 65, 56
1, 107220, Note_on_c, 0, 65, 0
1, 107220, Note_on_c, 0, 71, 56
1, 107280, Note_on_c, 0, 71, 0
1, 107280, Note_on_c, 0, 64, 56
1, 107280, Note_on_c, 1, 52, 0
1, 107280, Note_on_c, 1, 62, 0
1, 107280, Note_on_c, 1, 59, 56
1, 107280, Note_on_c, 1, 56, 56
1, 107340, Note_on_c, 0, 64, 0
1, 107340, Note_on_c, 0, 71, 56
1, 107400, Note_on_c, 0, 71, 0
1, 107400, Note_on_c, 0, 62, 56
1, 107460, Note_on_c, 0, 62, 0
1, 107460, Note_on_c, 0, 71, 56
1, 107520, Note_on_c, 0, 71, 0
1, 107520, Note_on_c, 0, 60, 56
1, 107520, Note_on_c, 1, 56, 0
1, 107520, Note_on_c, 1, 59, 0
1, 107520, Note_on_c, 1, 57, 56
1, 107520, Note_on_c, 1, 57, 56
1, 107580, Note_on_c, 0, 60, 0
1, 107580, Note_on_c, 0, 72, 57
1, 107640, Note_on_c, 0, 72, 0
1, 107640, Note_on_c, 0, 71, 57
1, 107700, Note_on_c, 0, 71, 0
1, 107700, Note_on_c, 0, 72, 58
1, 107760, Note_on_c, 0, 72, 0
1, 107760, Note_on_c, 0, 74, 58
1, 107760, Note_on_c, 1, 57, 0
1, 107760, Note_on_c, 1, 57, 0
1, 107760, Note_on_c, 1, 52, 56
1, 107760, Note_on_c, 1, 45, 56
1, 107820, Note_on_c, 0, 74, 0
1, 107820, Note_on_c, 0, 72, 59
1, 107880, Note_on_c, 0, 72, 0
1, 107880, Note_on_c, 0, 71, 59
1, 107940, Note_on_c, 0, 71, 0
1, 107940, Note_on_c, 0, 69, 60
1, 108000, Note_on_c, 0, 69, 0
1, 108000, Note_on_c, 0, 68, 60
1, 108000, Note_on_c, 1, 45, 0
1, 108000, Note_on_c, 1, 47, 56
1, 108060, Note_on_c, 0, 68, 0
1, 108060, Note_on_c, 0, 74, 61
1, 108120, Note_on_c, 0, 74, 0
1, 108120, Note_on_c, 0, 73, 61
1, 108180, Note_on_c, 0, 73, 0
1, 108180, Note_on_c, 0, 74, 62
1, 108240, Note_on_c, 0, 74, 0
1, 108240, Note_on_c, 0, 76, 62
1, 108240, Note_on_c, 1, 47, 0
1, 108240, Note_on_c, 1, 52, 0
1, 108240, Note_on_c, 1, 52, 56
1, 108240, Note_on_c, 1, 56, 56
1, 108240, Note_on_c, 1, 50, 56
1, 108300, Note_on_c, 0, 76, 0
1, 108300, Note_on_c, 0, 74, 63
1, 108360, Note_on_c, 0, 74, 0
1, 108360, Note_on_c, 0, 72, 63
1, 108420, Note_on_c, 0, 72, 0
1, 108420, Note_on_c, 0, 71, 64
1, 108480, Note_on_c, 0, 71, 0
1, 108480, Note_on_c, 0, 69, 64
1, 108480, Note_on_c, 1, 50, 0
1, 108480, Note_on_c, 1, 56, 0
1, 108480, Note_on_c, 1, 52, 0
1, 108480, Note_on_c, 1, 48, 56
1, 108480, Note_on_c, 1, 52, 56
1, 108480, Note_on_c, 1, 57, 56
1, 108540, Note_on_c, 0, 69, 0
1, 108540, Note_on_c, 0, 71, 65
1, 108600, Note_on_c, 0, 71, 0
1, 108600, Note_on_c, 0, 72, 66
1, 108660, Note_on_c, 0, 72, 0
1, 108660, Note_on_c, 0, 71, 67
1, 108720, Note_on_c, 0, 71, 0
1, 108720, Note_on_c, 0, 72, 68
1, 108720, Note_on_c, 1, 57, 0
1, 108720, Note_on_c, 1, 52, 0
1, 108720, Note_on_c, 1, 48, 0
1, 108780, Note_on_c, 0, 72, 0
1, 108780, Note_on_c, 0, 75, 69
1, 108840, Note_on_c, 0, 75, 0
1, 108840, Note_on_c, 0, 76, 70
1, 108900, Note_on_c, 0, 76, 0
1, 108900, Note_on_c, 0, 75, 71
1, 108960, Note_on_c, 0, 75, 0
1, 108960, Note_on_c, 0, 76, 72
1, 109020, Note_on_c, 0, 76, 0
1, 109020, Note_on_c, 0, 80, 73
1, 109080, Note_on_c, 0, 80, 0
1, 109080, Note_on_c, 0, 81, 74
1, 109140, Note_on_c, 0, 81, 0
1, 109140, Note_on_c, 0, 80, 75
1, 109200, Note_on_c, 0, 80, 0
1, 109200, Note_on_c, 0, 81, 76
1, 109200, Note_on_c, 1, 57, 56
1, 109200, Note_on_c, 1, 52, 56
1, 109200, Note_on_c, 1, 49, 56
1, 109260, Note_on_c, 0, 81, 0
1, 109260, Note_on_c, 0, 79, 77
1, 109320, Note_on_c, 0, 79, 0
1, 109320, Note_on_c, 0, 77, 78
1, 109380, Note_on_c, 0, 77, 0
1, 109380, Note_on_c, 0, 76, 79
1, 109440, Note_on_c, 0, 76, 0
1, 109440, Note_on_c, 0, 77, 80
1, 109440, Note_on_c, 1, 49, 0
1, 109440, Note_on_c, 1, 52, 0
1, 109440, Note_on_c, 1, 57, 0
1, 109440, Note_on_c, 1, 50, 64
1, 109500, Note_on_c, 0, 77, 0
1, 109500, Note_on_c, 0, 79, 80
1, 109500, Note_on_c, 1, 50, 0
1, 109500, Note_on_c, 1, 57, 64
1, 109560, Note_on_c, 0, 79, 0
1, 109560, Note_on_c, 0, 81, 80
1, 109560, Note_on_c, 1, 57, 0
1, 109560, Note_on_c, 1, 53, 64
1, 109620, Note_on_c, 0, 81, 0
1, 109620, Note_on_c, 0, 77, 80
1, 109620, Note_on_c, 1, 53, 0
1, 109620, Note_on_c, 1, 57, 64
1, 109680, Note_on_c, 0, 77, 0
1, 109680, Note_on_c, 0, 74, 80
1, 109680, Note_on_c, 1, 57, 0
1, 109680, Note_on_c, 1, 50, 64
1, 109740, Note_on_c, 0, 74, 0
1, 109740, Note_on_c, 0, 76, 80
1, 109740, Note_on_c, 1, 50, 0
1, 109740, Note_on_c, 1, 57, 64
1, 109800, Note_on_c, 0, 76, 0
1, 109800, Note_on_c, 0, 77, 80
1, 109800, Note_on_c, 1, 57, 0
1, 109800, Note_on_c, 1, 53, 64
1, 109818, Note_on_c, 0, 77, 0
1, 109860, Note_on_c, 0, 74, 80
1, 109860, Note_on_c, 1, 53, 0
1, 109860, Note_on_c, 1, 57, 64
1, 109878, Note_on_c, 0, 74, 0
1, 109920, Note_on_c, 0, 71, 80
1, 109920, Note_on_c, 1, 57, 0
1, 109920, Note_on_c, 1, 50, 64
1, 109980, Note_on_c, 0, 71, 0
1, 109980, Note_on_c, 0, 72, 80
1, 109980, Note_on_c, 1, 50, 0
1, 109980, Note_on_c, 1, 59, 64
1, 110040, Note_on_c, 0, 72, 0
1, 110040, Note_on_c, 0, 74, 80
1, 110040, Note_on_c, 1, 59, 0
1, 110040, Note_on_c, 1, 53, 64
1, 110100, Note_on_c, 0, 74, 0
1, 110100, Note_on_c, 0, 71, 80
1, 110100, Note_on_c, 1, 53, 0
1, 110100, Note_on_c, 1, 59, 64
1, 110160, Note_on_c, 0, 71, 0
1, 110160, Note_on_c, 0, 76, 80
1, 110160, Note_on_c, 1, 59, 0
1, 110160, Note_on_c, 1, 50, 64
1, 110220, Note_on_c, 0, 76, 0
1, 110220, Note_on_c, 0, 77, 80
1, 110220, Note_on_c, 1, 50, 0
1, 110220, Note_on_c, 1, 59, 64
1, 110280, Note_on_c, 0, 77, 0
1, 110280, Note_on_c, 0, 74, 80
1, 110280, Note_on_c, 1, 59, 0
1, 110280, Note_on_c, 1, 53, 64
1, 110298, Note_on_c, 0, 74, 0
1, 110340, Note_on_c, 0, 71, 80
1, 110340, Note_on_c, 1, 53, 0
1, 110340, Note_on_c, 1, 59, 64
1, 110358, Note_on_c, 0, 71, 0
1, 110400, Note_on_c, 0, 75, 88
1, 110400, Note_on_c, 1, 59, 0
1, 110400, Note_on_c, 1, 52, 64
1, 110460, Note_on_c, 0, 75, 0
1, 110460, Note_on_c, 0, 76, 80
1, 110460, Note_on_c, 1, 52, 0
1, 110460, Note_on_c, 1, 60, 64
1, 110520, Note_on_c, 0, 76, 0
1, 110520, Note_on_c, 0, 77, 80
1, 110520, Note_on_c, 1, 60, 0
1, 110520, Note_on_c, 1, 57, 64
1, 110580, Note_on_c, 0, 77, 0
1, 110580, Note_on_c, 0, 76, 80
1, 110580, Note_on_c, 1, 57, 0
1, 110580, Note_on_c, 1, 60, 64
1, 110640, Note_on_c, 0, 76, 0
1, 110640, Note_on_c, 0, 74, 80
1, 110640, Note_on_c, 1, 60, 0
1, 110640, Note_on_c, 1, 52, 64
1, 110700, Note_on_c, 0, 74, 0
1, 110700, Note_on_c, 0, 72, 80
1, 110700, Note_on_c, 1, 52, 0
1, 110700, Note_on_c, 1, 60, 64
1, 110760, Note_on_c, 0, 72, 0
1, 110760, Note_on_c, 0, 71, 80
1, 110760, Note_on_c, 1, 60, 0
1, 110760, Note_on_c, 1, 57, 64
1, 110820, Note_on_c, 0, 71, 0
1, 110820, Note_on_c, 0, 69, 80
1, 110820, Note_on_c, 1, 57, 0
1, 110820, Note_on_c, 1, 60, 64
1, 110880, Note_on_c, 0, 69, 0
1, 110880, Note_on_c, 0, 72, 78
1, 110880, Note_on_c, 1, 60, 0
1, 110880, Note_on_c, 1, 52, 64
1, 110910, Note_on_c, 0, 72, 0
1, 110910, Note_on_c, 0, 71, 77
1, 110940, Note_on_c, 0, 71, 0
1, 110940, Note_on_c, 0, 72, 76
1, 110940, Note_on_c, 1, 52, 0
1, 110940, Note_on_c, 1, 62, 64
1, 110970, Note_on_c, 0, 72, 0
1, 110970, Note_on_c, 0, 71, 74
1, 111000, Note_on_c, 0, 71, 0
1, 111000, Note_on_c, 0, 72, 73
1, 111000, Note_on_c, 1, 62, 0
1, 111000, Note_on_c, 1, 56, 64
1, 111030, Note_on_c, 0, 72, 0
1, 111030, Note_on_c, 0, 71, 71
1, 111060, Note_on_c, 0, 71, 0
1, 111060, Note_on_c, 0, 72, 70
1, 111060, Note_on_c, 1, 56, 0
1, 111060, Note_on_c, 1, 62, 64
1, 111090, Note_on_c, 0, 72, 0
1, 111090, Note_on_c, 0, 71, 69
1, 111120, Note_on_c, 0, 71, 0
1, 111120, Note_on_c, 0, 72, 67
1, 111120, Note_on_c, 1, 62, 0
1, 111120, Note_on_c, 1, 52, 64
1, 111150, Note_on_c, 0, 72, 0
1, 111150, Note_on_c, 0, 71, 66
1, 111180, Note_on_c, 0, 71, 0
1, 111180, Note_on_c, 0, 72, 64
1, 111180, Note_on_c, 1, 52, 0
1, 111180, Note_on_c, 1, 62, 64
1, 111210, Note_on_c, 0, 72, 0
1, 111210, Note_on_c, 0, 71, 63
1, 111240, Note_on_c, 0, 71, 0
1, 111240, Note_on_c, 0, 72, 61
1, 111240, Note_on_c, 1, 62, 0
1, 111240, Note_on_c, 1, 56, 64
1, 111270, Note_on_c, 0, 72, 0
1, 111270, Note_on_c, 0, 71, 60
1, 111300, Note_on_c, 0, 71, 0
1, 111300, Note_on_c, 0, 69, 59
1, 111300, Note_on_c, 1, 56, 0
1, 111300, Note_on_c, 1, 62, 64
1, 111330, Note_on_c, 0, 69, 0
1, 111330, Note_on_c, 0, 71, 57
1, 111360, Note_on_c, 0, 71, 0
1, 111360, Note_on_c, 1, 62, 0
1, 111360, Note_on_c, 1, 60, 48
1, 111360, Note_on_c, 1, 57, 48
1, 111420, Note_on_c, 0, 81, 48
1, 111438, Note_on_c, 0, 81, 0
1, 111480, Note_on_c, 0, 79, 48
1, 111498, Note_on_c, 0, 79, 0
1, 111540, Note_on_c, 0, 77, 48
1, 111558, Note_on_c, 0, 77, 0
1, 111600, Note_on_c, 0, 76, 48
1, 111600, Note_on_c, 1, 57, 0
1, 111600, Note_on_c, 1, 60, 0
1, 111660, Note_on_c, 0, 76, 0
1, 111660, Note_on_c, 0, 77, 48
1, 111678, Note_on_c, 0, 77, 0
1, 111720, Note_on_c, 0, 75, 48
1, 111738, Note_on_c, 0, 75, 0
1, 111780, Note_on_c, 0, 77, 48
1, 111798, Note_on_c, 0, 77, 0
1, 111840, Note_on_c, 0, 76, 48
1, 111900, Note_on_c, 0, 76, 0
1, 111900, Note_on_c, 0, 77, 48
1, 111918, Note_on_c, 0, 77, 0
1, 111960, Note_on_c, 0, 75, 48
1, 111978, Note_on_c, 0, 75, 0
1, 112020, Note_on_c, 0, 77, 48
1, 112038, Note_on_c, 0, 77, 0
1, 112080, Note_on_c, 0, 76, 48
1, 112080, Note_on_c, 1, 68, 48
1, 112116, Note_on_c, 1, 68, 0
1, 112140, Note_on_c, 0, 76, 0
1, 112140, Note_on_c, 0, 77, 48
1, 112200, Note_on_c, 0, 77, 0
1, 112200, Note_on_c, 0, 74, 48
1, 112200, Note_on_c, 1, 64, 48
1, 112236, Note_on_c, 1, 64, 0
1, 112260, Note_on_c, 0, 74, 0
1, 112260, Note_on_c, 0, 76, 48
1, 112320, Note_on_c, 0, 76, 0
1, 112320, Note_on_c, 0, 72, 48
1, 112320, Note_on_c, 1, 69, 48
1, 112380, Note_on_c, 0, 72, 0
1, 112380, Note_on_c, 0, 81, 48
1, 112440, Note_on_c, 0, 81, 0
1, 112440, Note_on_c, 0, 79, 48
1, 112500, Note_on_c, 0, 79, 0
1, 112500, Note_on_c, 0, 77, 48
1, 112560, Note_on_c, 0, 77, 0
1, 112560, Note_on_c, 0, 76, 48
1, 112560, Note_on_c, 1, 69, 0
1, 112620, Note_on_c, 0, 76, 0
1, 112620, Note_on_c, 0, 77, 48
1, 112680, Note_on_c, 0, 77, 0
1, 112680, Note_on_c, 0, 75, 48
1, 112740, Note_on_c, 0, 75, 0
1, 112740, Note_on_c, 0, 77, 48
1, 112800, Note_on_c, 0, 77, 0
1, 112800, Note_on_c, 0, 76, 48
1, 112860, Note_on_c, 0, 76, 0
1, 112860, Note_on_c, 0, 77, 48
1, 112920, Note_on_c, 0, 77, 0
1, 112920, Note_on_c, 0, 75, 48
1, 112980, Note_on_c, 0, 75, 0
1, 112980, Note_on_c, 0, 77, 48
1, 113040, Note_on_c, 0, 77, 0
1, 113040, Note_on_c, 0, 76, 48
1, 113040, Note_on_c, 1, 68, 48
1, 113100, Note_on_c, 0, 76, 0
1, 113100, Note_on_c, 0, 77, 48
1, 113160, Note_on_c, 0, 77, 0
1, 113160, Note_on_c, 0, 74, 48
1, 113160, Note_on_c, 1, 68, 0
1, 113160, Note_on_c, 1, 64, 48
1, 113220, Note_on_c, 0, 74, 0
1, 113220, Note_on_c, 0, 76, 48
1, 113280, Note_on_c, 0, 76, 0
1, 113280, Note_on_c, 0, 72, 48
1, 113280, Note_on_c, 1, 64, 0
1, 113280, Note_on_c, 1, 69, 48
1, 113340, Note_on_c, 0, 72, 0
1, 113340, Note_on_c, 0, 74, 49
1, 113400, Note_on_c, 0, 74, 0
1, 113400, Note_on_c, 0, 76, 50
1, 113460, Note_on_c, 0, 76, 0
1, 113460, Note_on_c, 0, 74, 51
1, 113520, Note_on_c, 0, 74, 0
1, 113520, Note_on_c, 0, 72, 52
1, 113520, Note_on_c, 1, 69, 0
1, 113580, Note_on_c, 0, 72, 0
1, 113580, Note_on_c, 0, 71, 53
1, 113640, Note_on_c, 0, 71, 0
1, 113640, Note_on_c, 0, 69, 54
1, 113700, Note_on_c, 0, 69, 0
1, 113700, Note_on_c, 0, 68, 55
1, 113760, Note_on_c, 0, 68, 0
1, 113760, Note_on_c, 0, 69, 56
1, 113760, Note_on_c, 1, 48, 48
1, 113760, Note_on_c, 1, 52, 48
1, 113760, Note_on_c, 1, 57, 48
1, 113820, Note_on_c, 0, 69, 0
1, 113820, Note_on_c, 0, 71, 57
1, 113880, Note_on_c, 0, 71, 0
1, 113880, Note_on_c, 0, 72, 58
1, 113940, Note_on_c, 0, 72, 0
1, 113940, Note_on_c, 0, 71, 59
1, 114000, Note_on_c, 0, 71, 0
1, 114000, Note_on_c, 0, 69, 60
1, 114060, Note_on_c, 0, 69, 0
1, 114060, Note_on_c, 0, 67, 61
1, 114120, Note_on_c, 0, 67, 0
1, 114120, Note_on_c, 0, 65, 62
1, 114180, Note_on_c, 0, 65, 0
1, 114180, Note_on_c, 0, 64, 63
1, 114240, Note_on_c, 0, 64, 0
1, 114240, Note_on_c, 0, 62, 64
1, 114240, Note_on_c, 1, 57, 0
1, 114240, Note_on_c, 1, 52, 0
1, 114240, Note_on_c, 1, 48, 0
1, 114240, Note_on_c, 1, 53, 56
1, 114240, Note_on_c, 1, 50, 56
1, 114300, Note_on_c, 0, 62, 0
1, 114300, Note_on_c, 0, 58, 65
1, 114318, Note_on_c, 0, 58, 0
1, 114360, Note_on_c, 0, 65, 66
1, 114378, Note_on_c, 0, 65, 0
1, 114420, Note_on_c, 0, 62, 67
1, 114438, Note_on_c, 0, 62, 0
1, 114480, Note_on_c, 0, 70, 68
1, 114540, Note_on_c, 0, 70, 0
1, 114540, Note_on_c, 0, 65, 69
1, 114600, Note_on_c, 0, 65, 0
1, 114600, Note_on_c, 0, 74, 70
1, 114660, Note_on_c, 0, 74, 0
1, 114660, Note_on_c, 0, 70, 71
1, 114720, Note_on_c, 0, 70, 0
1, 114720, Note_on_c, 0, 77, 72
1, 114720, Note_on_c, 1, 50, 0
1, 114720, Note_on_c, 1, 53, 0
1, 114720, Note_on_c, 1, 59, 72
1, 114720, Note_on_c, 1, 56, 72
1, 114720, Note_on_c, 1, 53, 72
1, 114720, Note_on_c, 1, 50, 72
1, 114780, Note_on_c, 0, 77, 0
1, 114780, Note_on_c, 0, 74, 73
1, 114798, Note_on_c, 0, 74, 0
1, 114840, Note_on_c, 0, 80, 74
1, 114858, Note_on_c, 0, 80, 0
1, 114900, Note_on_c, 0, 77, 75
1, 114918, Note_on_c, 0, 77, 0
1, 114960, Note_on_c, 0, 83, 76
1, 115020, Note_on_c, 0, 83, 0
1, 115020, Note_on_c, 0, 80, 77
1, 115080, Note_on_c, 0, 80, 0
1, 115080, Note_on_c, 0, 86, 78
1, 115140, Note_on_c, 0, 86, 0
1, 115140, Note_on_c, 0, 83, 79
1, 115200, Note_on_c, 0, 83, 0
1, 115200, Note_on_c, 0, 88, 88
1, 115200, Note_on_c, 1, 50, 0
1, 115200, Note_on_c, 1, 59, 0
1, 115200, Note_on_c, 1, 56, 0
1, 115200, Note_on_c, 1, 53, 0
1, 115200, Note_on_c, 1, 48, 80
1, 115200, Note_on_c, 1, 52, 80
1, 115200, Note_on_c, 1, 57, 80
1, 115260, Note_on_c, 0, 88, 0
1, 115260, Note_on_c, 0, 84, 80
1, 115320, Note_on_c, 0, 84, 0
1, 115320, Note_on_c, 0, 81, 80
1, 115380, Note_on_c, 0, 81, 0
1, 115380, Note_on_c, 0, 76, 80
1, 115440, Note_on_c, 0, 76, 0
1, 115440, Note_on_c, 0, 79, 80
1, 115440, Note_on_c, 1, 57, 0
1, 115440, Note_on_c, 1, 52, 0
1, 115440, Note_on_c, 1, 48, 0
1, 115440, Note_on_c, 1, 50, 72
1, 115440, Note_on_c, 1, 57, 72
1, 115500, Note_on_c, 0, 79, 0
1, 115500, Note_on_c, 0, 77, 80
1, 115518, Note_on_c, 0, 77, 0
1, 115560, Note_on_c, 0, 76, 80
1, 115578, Note_on_c, 0, 76, 0
1, 115620, Note_on_c, 0, 74, 80
1, 115638, Note_on_c, 0, 74, 0
1, 115680, Note_on_c, 0, 72, 80
1, 115680, Note_on_c, 1, 50, 0
1, 115680, Note_on_c, 1, 52, 64
1, 115920, Note_on_c, 0, 72, 0
1, 115920, Note_on_c, 0, 72, 79
1, 115920, Note_on_c, 1, 52, 0
1, 115920, Note_on_c, 1, 57, 0
1, 115920, Note_on_c, 1, 52, 56
1, 115920, Note_on_c, 1, 56, 56
1, 115950, Note_on_c, 0, 72, 0
1, 115950, Note_on_c, 0, 71, 78
1, 115980, Note_on_c, 0, 71, 0
1, 115980, Note_on_c, 0, 72, 76
1, 116010, Note_on_c, 0, 72, 0
1, 116010, Note_on_c, 0, 71, 74
1, 116040, Note_on_c, 0, 71, 0
1, 116040, Note_on_c, 0, 72, 72
1, 116070, Note_on_c, 0, 72, 0
1, 116070, Note_on_c, 0, 71, 70
1, 116100, Note_on_c, 0, 71, 0
1, 116100, Note_on_c, 0, 69, 68
1, 116130, Note_on_c, 0, 69, 0
1, 116130, Note_on_c, 0, 71, 66
1, 116160, Note_on_c, 0, 71, 0
1, 116160, Note_on_c, 0, 69, 48
1, 116160, Note_on_c, 1, 56, 0
1, 116160, Note_on_c, 1, 52, 0
1, 116220, Note_on_c, 0, 69, 0
1, 116220, Note_on_c, 1, 69, 48
1, 116238, Note_on_c, 1, 69, 0
1, 116280, Note_on_c, 1, 67, 48
1, 116298, Note_on_c, 1, 67, 0
1, 116340, Note_on_c, 1, 65, 48
1, 116358, Note_on_c, 1, 65, 0
1, 116400, Note_on_c, 1, 64, 48
1, 116460, Note_on_c, 1, 64, 0
1, 116460, Note_on_c, 1, 65, 48
1, 116478, Note_on_c, 1, 65, 0
1, 116520, Note_on_c, 1, 63, 48
1, 116538, Note_on_c, 1, 63, 0
1, 116580, Note_on_c, 1, 65, 48
1, 116598, Note_on_c, 1, 65, 0
1, 116640, Note_on_c, 1, 64, 48
1, 116700, Note_on_c, 1, 64, 0
1, 116700, Note_on_c, 1, 65, 48
1, 116718, Note_on_c, 1, 65, 0
1, 116760, Note_on_c, 1, 63, 48
1, 116778, Note_on_c, 1, 63, 0
1, 116820, Note_on_c, 1, 65, 48
1, 116838, Note_on_c, 1, 65, 0
1, 116880, Note_on_c, 0, 71, 48
1, 116880, Note_on_c, 0, 80, 48
1, 116880, Note_on_c, 1, 64, 48
1, 116916, Note_on_c, 0, 80, 0
1, 116940, Note_on_c, 1, 64, 0
1, 116940, Note_on_c, 1, 65, 48
1, 117000, Note_on_c, 0, 76, 48
1, 117000, Note_on_c, 1, 65, 0
1, 117000, Note_on_c, 1, 62, 48
1, 117036, Note_on_c, 0, 76, 0
1, 117036, Note_on_c, 0, 71, 0
1, 117060, Note_on_c, 1, 62, 0
1, 117060, Note_on_c, 1, 64, 48
1, 117120, Note_on_c, 0, 81, 48
1, 117120, Note_on_c, 0, 72, 48
1, 117120, Note_on_c, 1, 64, 0
1, 117120, Note_on_c, 1, 60, 48
1, 117180, Note_on_c, 1, 60, 0
1, 117180, Note_on_c, 1, 69, 48
1, 117240, Note_on_c, 1, 69, 0
1, 117240, Note_on_c, 1, 67, 48
1, 117264, Note_on_c, 0, 72, 0
1, 117264, Note_on_c, 0, 81, 0
1, 117300, Note_on_c, 1, 67, 0
1, 117300, Note_on_c, 1, 65, 48
1, 117360, Note_on_c, 1, 65, 0
1, 117360, Note_on_c, 1, 64, 48
1, 117420, Note_on_c, 1, 64, 0
1, 117420, Note_on_c, 1, 65, 48
1, 117480, Note_on_c, 1, 65, 0
1, 117480, Note_on_c, 1, 63, 48
1, 117540, Note_on_c, 1, 63, 0
1, 117540, Note_on_c, 1, 65, 48
1, 117600, Note_on_c, 1, 65, 0
1, 117600, Note_on_c, 1, 64, 48
1, 117660, Note_on_c, 1, 64, 0
1, 117660, Note_on_c, 1, 65, 48
1, 117720, Note_on_c, 1, 65, 0
1, 117720, Note_on_c, 1, 63, 48
1, 117780, Note_on_c, 1, 63, 0
1, 117780, Note_on_c, 1, 65, 48
1, 117840, Note_on_c, 0, 71, 48
1, 117840, Note_on_c, 0, 80, 48
1, 117840, Note_on_c, 1, 65, 0
1, 117840, Note_on_c, 1, 64, 48
1, 117900, Note_on_c, 1, 64, 0
1, 117900, Note_on_c, 1, 65, 48
1, 117960, Note_on_c, 0, 80, 0
1, 117960, Note_on_c, 0, 76, 48
1, 117960, Note_on_c, 1, 65, 0
1, 117960, Note_on_c, 1, 62, 48
1, 118020, Note_on_c, 1, 62, 0
1, 118020, Note_on_c, 1, 64, 48
1, 118080, Note_on_c, 0, 76, 0
1, 118080, Note_on_c, 0, 71, 0
1, 118080, Note_on_c, 0, 72, 48
1, 118080, Note_on_c, 0, 81, 48
1, 118080, Note_on_c, 1, 64, 0
1, 118080, Note_on_c, 1, 60, 48
1, 118140, Note_on_c, 1, 60, 0
1, 118140, Note_on_c, 1, 62, 49
1, 118200, Note_on_c, 1, 62, 0
1, 118200, Note_on_c, 1, 59, 49
1, 118260, Note_on_c, 1, 59, 0
1, 118260, Note_on_c, 1, 60, 50
1, 118320, Note_on_c, 0, 81, 0
1, 118320, Note_on_c, 0, 72, 0
1, 118320, Note_on_c, 0, 77, 50
1, 118320, Note_on_c, 1, 60, 0
1, 118320, Note_on_c, 1, 57, 50
1, 118350, Note_on_c, 0, 77, 0
1, 118350, Note_on_c, 0, 76, 50
1, 118380, Note_on_c, 0, 76, 0
1, 118380, Note_on_c, 0, 77, 51
1, 118380, Note_on_c, 1, 57, 0
1, 118380, Note_on_c, 1, 59, 51
1, 118410, Note_on_c, 0, 77, 0
1, 118410, Note_on_c, 0, 76, 51
1, 118440, Note_on_c, 0, 76, 0
1, 118440, Note_on_c, 0, 77, 51
1, 118440, Note_on_c, 1, 59, 0
1, 118440, Note_on_c, 1, 55, 51
1, 118470, Note_on_c, 0, 77, 0
1, 118470, Note_on_c, 0, 76, 51
1, 118500, Note_on_c, 0, 76, 0
1, 118500, Note_on_c, 0, 74, 52
1, 118500, Note_on_c, 1, 55, 0
1, 118500, Note_on_c, 1, 57, 52
1, 118530, Note_on_c, 0, 74, 0
1, 118530, Note_on_c, 0, 76, 52
1, 118560, Note_on_c, 0, 76, 0
1, 118560, Note_on_c, 0, 81, 52
1, 118560, Note_on_c, 1, 57, 0
1, 118560, Note_on_c, 1, 53, 52
1, 118620, Note_on_c, 1, 53, 0
1, 118620, Note_on_c, 1, 55, 53
1, 118680, Note_on_c, 1, 55, 0
1, 118680, Note_on_c, 1, 52, 53
1, 118740, Note_on_c, 1, 52, 0
1, 118740, Note_on_c, 1, 53, 54
1, 118800, Note_on_c, 0, 74, 54
1, 118800, Note_on_c, 1, 53, 0
1, 118800, Note_on_c, 1, 50, 54
1, 118830, Note_on_c, 0, 74, 0
1, 118830, Note_on_c, 0, 72, 54
1, 118860, Note_on_c, 0, 72, 0
1, 118860, Note_on_c, 0, 74, 55
1, 118860, Note_on_c, 1, 50, 0
1, 118860, Note_on_c, 1, 52, 55
1, 118890, Note_on_c, 0, 74, 0
1, 118890, Note_on_c, 0, 72, 55
1, 118920, Note_on_c, 0, 72, 0
1, 118920, Note_on_c, 0, 74, 55
1, 118920, Note_on_c, 1, 52, 0
1, 118920, Note_on_c, 1, 48, 55
1, 118950, Note_on_c, 0, 74, 0
1, 118950, Note_on_c, 0, 72, 55
1, 118980, Note_on_c, 0, 72, 0
1, 118980, Note_on_c, 0, 71, 56
1, 118980, Note_on_c, 1, 48, 0
1, 118980, Note_on_c, 1, 50, 56
1, 119010, Note_on_c, 0, 71, 0
1, 119010, Note_on_c, 0, 72, 56
1, 119040, Note_on_c, 0, 72, 0
1, 119040, Note_on_c, 0, 74, 56
1, 119040, Note_on_c, 1, 50, 0
1, 119040, Note_on_c, 1, 47, 56
1, 119100, Note_on_c, 1, 47, 0
1, 119100, Note_on_c, 1, 48, 57
1, 119160, Note_on_c, 1, 48, 0
1, 119160, Note_on_c, 1, 45, 58
1, 119220, Note_on_c, 1, 45, 0
1, 119220, Note_on_c, 1, 47, 59
1, 119280, Note_on_c, 0, 81, 0
1, 119280, Note_on_c, 0, 83, 60
1, 119280, Note_on_c, 1, 47, 0
1, 119280, Note_on_c, 1, 44, 60
1, 119340, Note_on_c, 1, 44, 0
1, 119340, Note_on_c, 1, 45, 61
1, 119400, Note_on_c, 1, 45, 0
1, 119400, Note_on_c, 1, 42, 62
1, 119460, Note_on_c, 0, 83, 0
1, 119460, Note_on_c, 0, 84, 63
1, 119460, Note_on_c, 1, 42, 0
1, 119460, Note_on_c, 1, 44, 63
1, 119520, Note_on_c, 0, 84, 0
1, 119520, Note_on_c, 0, 86, 64
1, 119520, Note_on_c, 1, 44, 0
1, 119520, Note_on_c, 1, 40, 64
1, 119580, Note_on_c, 1, 40, 0
1, 119580, Note_on_c, 1, 41, 65
1, 119640, Note_on_c, 1, 41, 0
1, 119640, Note_on_c, 1, 38, 66
1, 119700, Note_on_c, 1, 38, 0
1, 119700, Note_on_c, 1, 40, 67
1, 119760, Note_on_c, 0, 86, 0
1, 119760, Note_on_c, 0, 74, 0
1, 119760, Note_on_c, 0, 76, 81
1, 119760, Note_on_c, 0, 81, 81
1, 119760, Note_on_c, 1, 40, 0
1, 119760, Note_on_c, 1, 36, 68
1, 119790, Note_on_c, 0, 81, 0
1, 119790, Note_on_c, 0, 80, 82
1, 119820, Note_on_c, 0, 80, 0
1, 119820, Note_on_c, 0, 81, 83
1, 119820, Note_on_c, 1, 36, 0
1, 119820, Note_on_c, 1, 38, 69
1, 119850, Note_on_c, 0, 81, 0
1, 119850, Note_on_c, 0, 80, 84
1, 119880, Note_on_c, 0, 80, 0
1, 119880, Note_on_c, 0, 81, 85
1, 119880, Note_on_c, 1, 38, 0
1, 119880, Note_on_c, 1, 35, 70
1, 119910, Note_on_c, 0, 81, 0
1, 119910, Note_on_c, 0, 80, 86
1, 119940, Note_on_c, 0, 80, 0
1, 119940, Note_on_c, 0, 78, 86
1, 119940, Note_on_c, 1, 35, 0
1, 119940, Note_on_c, 1, 38, 71
1, 119970, Note_on_c, 0, 78, 0
1, 119970, Note_on_c, 0, 80, 87
1, 120000, Note_on_c, 0, 80, 0
1, 120000, Note_on_c, 0, 76, 0
1, 120000, Note_on_c, 0, 81, 80
1, 120000, Note_on_c, 0, 76, 80
1, 120000, Note_on_c, 1, 38, 0
1, 120000, Note_on_c, 1, 36, 80
1, 120060, Note_on_c, 0, 81, 0
1, 120060, Note_on_c, 0, 80, 80
1, 120078, Note_on_c, 0, 80, 0
1, 120120, Note_on_c, 0, 76, 0
1, 120120, Note_on_c, 0, 81, 80
1, 120120, Note_on_c, 1, 36, 0
1, 120138, Note_on_c, 0, 81, 0
1, 120180, Note_on_c, 0, 76, 80
1, 120198, Note_on_c, 0, 76, 0
1, 120240, Note_on_c, 0, 79, 80
1, 120240, Note_on_c, 0, 71, 80
1, 120240, Note_on_c, 1, 38, 80
1, 120300, Note_on_c, 0, 79, 0
1, 120300, Note_on_c, 0, 77, 80
1, 120360, Note_on_c, 0, 77, 0
1, 120360, Note_on_c, 0, 71, 0
1, 120360, Note_on_c, 0, 76, 80
1, 120360, Note_on_c, 1, 38, 0
1, 120420, Note_on_c, 0, 76, 0
1, 120420, Note_on_c, 0, 74, 80
1, 120480, Note_on_c, 0, 74, 0
1, 120480, Note_on_c, 0, 72, 80
1, 120480, Note_on_c, 0, 72, 80
1, 120480, Note_on_c, 1, 40, 80
1, 120540, Note_on_c, 0, 72, 0
1, 120540, Note_on_c, 0, 74, 80
1, 120558, Note_on_c, 0, 74, 0
1, 120600, Note_on_c, 0, 72, 0
1, 120600, Note_on_c, 0, 76, 80
1, 120600, Note_on_c, 1, 40, 0
1, 120618, Note_on_c, 0, 76, 0
1, 120660, Note_on_c, 0, 72, 80
1, 120678, Note_on_c, 0, 72, 0
1, 120720, Note_on_c, 0, 71, 80
1, 120720, Note_on_c, 0, 68, 80
1, 120720, Note_on_c, 1, 40, 80
1, 120780, Note_on_c, 0, 71, 0
1, 120780, Note_on_c, 0, 72, 80
1, 120840, Note_on_c, 0, 72, 0
1, 120840, Note_on_c, 0, 68, 0
1, 120840, Note_on_c, 0, 74, 80
1, 120840, Note_on_c, 1, 40, 0
1, 120900, Note_on_c, 0, 74, 0
1, 120900, Note_on_c, 0, 71, 80
1, 120960, Note_on_c, 0, 71, 0
1, 120960, Note_on_c, 0, 86, 88
1, 120960, Note_on_c, 1, 59, 80
1, 120960, Note_on_c, 1, 56, 80
1, 120960, Note_on_c, 1, 53, 80
1, 120960, Note_on_c, 1, 50, 80
1, 121020, Note_on_c, 0, 86, 0
1, 121020, Note_on_c, 0, 89, 88
1, 121080, Note_on_c, 0, 89, 0
1, 121080, Note_on_c, 0, 83, 88
1, 121140, Note_on_c, 0, 83, 0
1, 121140, Note_on_c, 0, 86, 88
1, 121200, Note_on_c, 0, 86, 0
1, 121200, Note_on_c, 0, 80, 88
1, 121260, Note_on_c, 0, 80, 0
1, 121260, Note_on_c, 0, 83, 88
1, 121320, Note_on_c, 0, 83, 0
1, 121320, Note_on_c, 0, 77, 88
1, 121380, Note_on_c, 0, 77, 0
1, 121380, Note_on_c, 0, 80, 88
1, 121440, Note_on_c, 0, 80, 0
1, 121440, Note_on_c, 0, 74, 88
1, 121500, Note_on_c, 0, 74, 0
1, 121500, Note_on_c, 0, 77, 88
1, 121560, Note_on_c, 0, 77, 0
1, 121560, Note_on_c, 0, 71, 88
1, 121620, Note_on_c, 0, 71, 0
1, 121620, Note_on_c, 0, 74, 88
1, 121680, Note_on_c, 0, 74, 0
1, 121680, Note_on_c, 0, 68, 88
1, 121740, Note_on_c, 0, 68, 0
1, 121740, Note_on_c, 0, 71, 88
1, 121800, Note_on_c, 0, 71, 0
1, 121800, Note_on_c, 0, 65, 88
1, 121860, Note_on_c, 0, 65, 0
1, 121860, Note_on_c, 0, 68, 88
1, 121920, Note_on_c, 0, 68, 0
1, 121920, Note_on_c, 0, 84, 80
1, 121920, Note_on_c, 0, 81, 80
1, 121920, Note_on_c, 0, 78, 80
1, 121920, Note_on_c, 0, 75, 80
1, 121920, Note_on_c, 0, 72, 80
1, 121920, Note_on_c, 1, 50, 0
1, 121920, Note_on_c, 1, 59, 0
1, 121920, Note_on_c, 1, 56, 0
1, 121920, Note_on_c, 1, 53, 0
1, 121920, Note_on_c, 1, 60, 88
1, 121980, Note_on_c, 1, 60, 0
1, 121980, Note_on_c, 1, 63, 88
1, 122040, Note_on_c, 1, 63, 0
1, 122040, Note_on_c, 1, 57, 88
1, 122100, Note_on_c, 1, 57, 0
1, 122100, Note_on_c, 1, 60, 88
1, 122160, Note_on_c, 1, 60, 0
1, 122160, Note_on_c, 1, 54, 88
1, 122220, Note_on_c, 1, 54, 0
1, 122220, Note_on_c, 1, 57, 88
1, 122280, Note_on_c, 1, 57, 0
1, 122280, Note_on_c, 1, 51, 88
1, 122340, Note_on_c, 1, 51, 0
1, 122340, Note_on_c, 1, 54, 88
1, 122400, Note_on_c, 1, 54, 0
1, 122400, Note_on_c, 1, 48, 88
1, 122460, Note_on_c, 1, 48, 0
1, 122460, Note_on_c, 1, 51, 88
1, 122520, Note_on_c, 1, 51, 0
1, 122520, Note_on_c, 1, 45, 88
1, 122580, Note_on_c, 1, 45, 0
1, 122580, Note_on_c, 1, 48, 88
1, 122640, Note_on_c, 1, 48, 0
1, 122640, Note_on_c, 1, 42, 88
1, 122700, Note_on_c, 1, 42, 0
1, 122700, Note_on_c, 1, 45, 88
1, 122760, Note_on_c, 1, 45, 0
1, 122760, Note_on_c, 1, 39, 88
1, 122820, Note_on_c, 1, 39, 0
1, 122820, Note_on_c, 1, 42, 88
1, 122880, Note_on_c, 0, 72, 0
1, 122880, Note_on_c, 0, 78, 0
1, 122880, Note_on_c, 0, 84, 0
1, 122880, Note_on_c, 0, 81, 0
1, 122880, Note_on_c, 0, 75, 0
1, 122880, Note_on_c, 1, 42, 0
1, 122880, Note_on_c, 1, 40, 88
1, 122940, Note_on_c, 0, 81, 88
1, 122958, Note_on_c, 0, 81, 0
1, 123000, Note_on_c, 0, 76, 88
1, 123018, Note_on_c, 0, 76, 0
1, 123060, Note_on_c, 0, 72, 88
1, 123078, Note_on_c, 0, 72, 0
1, 123120, Note_on_c, 0, 69, 88
1, 123120, Note_on_c, 1, 40, 0
1, 123180, Note_on_c, 0, 69, 0
1, 123180, Note_on_c, 0, 64, 88
1, 123180, Note_on_c, 1, 52, 88
1, 123240, Note_on_c, 0, 64, 0
1, 123240, Note_on_c, 0, 60, 88
1, 123240, Note_on_c, 1, 52, 0
1, 123240, Note_on_c, 1, 48, 88
1, 123300, Note_on_c, 0, 60, 0
1, 123300, Note_on_c, 0, 57, 88
1, 123300, Note_on_c, 1, 48, 0
1, 123300, Note_on_c, 1, 45, 88
1, 123360, Note_on_c, 0, 57, 0
1, 123360, Note_on_c, 0, 64, 88
1, 123360, Note_on_c, 1, 45, 0
1, 123360, Note_on_c, 1, 40, 88
1, 123504, Note_on_c, 0, 64, 0
1, 123504, Note_on_c, 1, 40, 0
1, 123600, Note_on_c, 0, 76, 88
1, 123600, Note_on_c, 0, 71, 88
1, 123600, Note_on_c, 0, 68, 88
1, 123600, Note_on_c, 0, 64, 88
1, 123600, Note_on_c, 1, 52, 88
1, 123744, Note_on_c, 0, 64, 0
1, 123744, Note_on_c, 0, 76, 0
1, 123744, Note_on_c, 0, 71, 0
1, 123744, Note_on_c, 0, 68, 0
1, 123744, Note_on_c, 1, 52, 0
1, 123840, Note_on_c, 0, 69, 48
1, 123840, Note_on_c, 1, 57, 48
1, 123900, Note_on_c, 1, 57, 0
1, 123900, Note_on_c, 1, 59, 49
1, 123960, Note_on_c, 1, 59, 0
1, 123960, Note_on_c, 1, 60, 49
1, 124020, Note_on_c, 1, 60, 0
1, 124020, Note_on_c, 1, 59, 50
1, 124080, Note_on_c, 0, 69, 0
1, 124080, Note_on_c, 0, 69, 50
1, 124080, Note_on_c, 0, 72, 50
1, 124080, Note_on_c, 1, 59, 0
1, 124080, Note_on_c, 1, 57, 50
1, 124140, Note_on_c, 1, 57, 0
1, 124140, Note_on_c, 1, 55, 51
1, 124170, Note_on_c, 0, 72, 0
1, 124170, Note_on_c, 0, 69, 0
1, 124170, Note_on_c, 1, 55, 0
1, 124200, Note_on_c, 1, 53, 51
1, 124230, Note_on_c, 1, 53, 0
1, 124260, Note_on_c, 0, 69, 52
1, 124260, Note_on_c, 0, 72, 52
1, 124260, Note_on_c, 1, 52, 52
1, 124290, Note_on_c, 0, 72, 0
1, 124290, Note_on_c, 0, 69, 0
1, 124290, Note_on_c, 1, 52, 0
1, 124320, Note_on_c, 0, 69, 52
1, 124320, Note_on_c, 0, 72, 52
1, 124320, Note_on_c, 1, 53, 52
1, 124380, Note_on_c, 1, 53, 0
1, 124380, Note_on_c, 1, 55, 53
1, 124440, Note_on_c, 1, 55, 0
1, 124440, Note_on_c, 1, 57, 53
1, 124500, Note_on_c, 1, 57, 0
1, 124500, Note_on_c, 1, 55, 54
1, 124560, Note_on_c, 0, 72, 0
1, 124560, Note_on_c, 0, 69, 0
1, 124560, Note_on_c, 0, 69, 54
1, 124560, Note_on_c, 0, 72, 54
1, 124560, Note_on_c, 1, 55, 0
1, 124560, Note_on_c, 1, 53, 54
1, 124620, Note_on_c, 1, 53, 0
1, 124620, Note_on_c, 1, 52, 55
1, 124650, Note_on_c, 0, 72, 0
1, 124650, Note_on_c, 0, 69, 0
1, 124650, Note_on_c, 1, 52, 0
1, 124680, Note_on_c, 1, 50, 55
1, 124710, Note_on_c, 1, 50, 0
1, 124740, Note_on_c, 0, 69, 56
1, 124740, Note_on_c, 0, 72, 56
1, 124740, Note_on_c, 1, 48, 56
1, 124770, Note_on_c, 0, 72, 0
1, 124770, Note_on_c, 0, 69, 0
1, 124770, Note_on_c, 1, 48, 0
1, 124800, Note_on_c, 0, 69, 56
1, 124800, Note_on_c, 0, 71, 56
1, 124800, Note_on_c, 1, 50, 56
1, 124860, Note_on_c, 1, 50, 0
1, 124860, Note_on_c, 1, 52, 57
1, 124920, Note_on_c, 1, 52, 0
1, 124920, Note_on_c, 1, 53, 57
1, 124980, Note_on_c, 1, 53, 0
1, 124980, Note_on_c, 1, 52, 58
1, 125040, Note_on_c, 0, 71, 0
1, 125040, Note_on_c, 0, 69, 0
1, 125040, Note_on_c, 0, 69, 58
1, 125040, Note_on_c, 0, 71, 58
1, 125040, Note_on_c, 1, 52, 0
1, 125040, Note_on_c, 1, 50, 58
1, 125100, Note_on_c, 1, 50, 0
1, 125100, Note_on_c, 1, 47, 59
1, 125130, Note_on_c, 0, 71, 0
1, 125130, Note_on_c, 0, 69, 0
1, 125160, Note_on_c, 1, 47, 0
1, 125160, Note_on_c, 1, 48, 59
1, 125220, Note_on_c, 0, 71, 60
1, 125220, Note_on_c, 0, 69, 60
1, 125220, Note_on_c, 1, 48, 0
1, 125220, Note_on_c, 1, 50, 60
1, 125250, Note_on_c, 0, 69, 0
1, 125250, Note_on_c, 0, 71, 0
1, 125280, Note_on_c, 0, 76, 60
1, 125280, Note_on_c, 0, 71, 60
1, 125280, Note_on_c, 0, 68, 60
1, 125280, Note_on_c, 1, 50, 0
1, 125280, Note_on_c, 1, 52, 60
1, 125340, Note_on_c, 1, 52, 0
1, 125340, Note_on_c, 1, 51, 61
1, 125400, Note_on_c, 1, 51, 0
1, 125400, Note_on_c, 1, 52, 61
1, 125460, Note_on_c, 1, 52, 0
1, 125460, Note_on_c, 1, 51, 62
1, 125520, Note_on_c, 0, 68, 0
1, 125520, Note_on_c, 0, 71, 0
1, 125520, Note_on_c, 0, 76, 0
1, 125520, Note_on_c, 0, 68, 62
1, 125520, Note_on_c, 0, 71, 62
1, 125520, Note_on_c, 0, 76, 62
1, 125520, Note_on_c, 1, 51, 0
1, 125520, Note_on_c, 1, 52, 62
1, 125580, Note_on_c, 1, 52, 0
1, 125580, Note_on_c, 1, 50, 63
1, 125610, Note_on_c, 0, 76, 0
1, 125610, Note_on_c, 0, 71, 0
1, 125610, Note_on_c, 0, 68, 0
1, 125640, Note_on_c, 1, 50, 0
1, 125640, Note_on_c, 1, 48, 63
1, 125700, Note_on_c, 0, 68, 64
1, 125700, Note_on_c, 0, 71, 64
1, 125700, Note_on_c, 0, 76, 64
1, 125700, Note_on_c, 1, 48, 0
1, 125700, Note_on_c, 1, 47, 64
1, 125730, Note_on_c, 0, 76, 0
1, 125730, Note_on_c, 0, 71, 0
1, 125730, Note_on_c, 0, 68, 0
1, 125760, Note_on_c, 0, 69, 64
1, 125760, Note_on_c, 0, 72, 64
1, 125760, Note_on_c, 1, 47, 0
1, 125760, Note_on_c, 1, 45, 64
1, 125820, Note_on_c, 1, 45, 0
1, 125820, Note_on_c, 1, 47, 65
1, 125880, Note_on_c, 1, 47, 0
1, 125880, Note_on_c, 1, 48, 65
1, 125940, Note_on_c, 1, 48, 0
1, 125940, Note_on_c, 1, 47, 66
1, 126000, Note_on_c, 0, 72, 0
1, 126000, Note_on_c, 0, 69, 0
1, 126000, Note_on_c, 0, 81, 66
1, 126000, Note_on_c, 0, 72, 66
1, 126000, Note_on_c, 0, 69, 66
1, 126000, Note_on_c, 1, 47, 0
1, 126000, Note_on_c, 1, 45, 66
1, 126060, Note_on_c, 1, 45, 0
1, 126060, Note_on_c, 1, 43, 67
1, 126090, Note_on_c, 0, 69, 0
1, 126090, Note_on_c, 0, 72, 0
1, 126090, Note_on_c, 0, 81, 0
1, 126120, Note_on_c, 1, 43, 0
1, 126120, Note_on_c, 1, 41, 67
1, 126180, Note_on_c, 0, 69, 68
1, 126180, Note_on_c, 0, 72, 68
1, 126180, Note_on_c, 0, 81, 68
1, 126180, Note_on_c, 1, 41, 0
1, 126180, Note_on_c, 1, 40, 68
1, 126210, Note_on_c, 0, 81, 0
1, 126210, Note_on_c, 0, 72, 0
1, 126210, Note_on_c, 0, 69, 0
1, 126240, Note_on_c, 0, 69, 68
1, 126240, Note_on_c, 0, 72, 68
1, 126240, Note_on_c, 0, 81, 68
1, 126240, Note_on_c, 1, 40, 0
1, 126240, Note_on_c, 1, 41, 68
1, 126300, Note_on_c, 1, 41, 0
1, 126300, Note_on_c, 1, 43, 69
1, 126360, Note_on_c, 1, 43, 0
1, 126360, Note_on_c, 1, 45, 69
1, 126420, Note_on_c, 1, 45, 0
1, 126420, Note_on_c, 1, 43, 70
1, 126480, Note_on_c, 0, 81, 0
1, 126480, Note_on_c, 0, 72, 0
1, 126480, Note_on_c, 0, 69, 0
1, 126480, Note_on_c, 0, 69, 70
1, 126480, Note_on_c, 0, 72, 70
1, 126480, Note_on_c, 0, 81, 70
1, 126480, Note_on_c, 1, 43, 0
1, 126480, Note_on_c, 1, 41, 70
1, 126540, Note_on_c, 1, 41, 0
1, 126540, Note_on_c, 1, 40, 71
1, 126600, Note_on_c, 1, 40, 0
1, 126600, Note_on_c, 1, 38, 71
1, 126660, Note_on_c, 0, 81, 0
1, 126660, Note_on_c, 0, 72, 0
1, 126660, Note_on_c, 0, 69, 0
1, 126660, Note_on_c, 0, 69, 72
1, 126660, Note_on_c, 0, 72, 72
1, 126660, Note_on_c, 0, 81, 72
1, 126660, Note_on_c, 1, 38, 0
1, 126660, Note_on_c, 1, 36, 72
1, 126720, Note_on_c, 0, 81, 0
1, 126720, Note_on_c, 0, 72, 0
1, 126720, Note_on_c, 0, 69, 0
1, 126720, Note_on_c, 0, 71, 72
1, 126720, Note_on_c, 0, 77, 72
1, 126720, Note_on_c, 0, 81, 72
1, 126720, Note_on_c, 1, 36, 0
1, 126720, Note_on_c, 1, 38, 72
1, 126780, Note_on_c, 1, 38, 0
1, 126780, Note_on_c, 1, 40, 73
1, 126840, Note_on_c, 1, 40, 0
1, 126840, Note_on_c, 1, 41, 74
1, 126900, Note_on_c, 1, 41, 0
1, 126900, Note_on_c, 1, 40, 75
1, 126960, Note_on_c, 0, 81, 0
1, 126960, Note_on_c, 0, 77, 0
1, 126960, Note_on_c, 0, 71, 0
1, 126960, Note_on_c, 0, 71, 76
1, 126960, Note_on_c, 0, 77, 76
1, 126960, Note_on_c, 0, 81, 76
1, 126960, Note_on_c, 1, 40, 0
1, 126960, Note_on_c, 1, 38, 76
1, 127020, Note_on_c, 1, 38, 0
1, 127020, Note_on_c, 1, 35, 77
1, 127080, Note_on_c, 1, 35, 0
1, 127080, Note_on_c, 1, 36, 78
1, 127140, Note_on_c, 0, 81, 0
1, 127140, Note_on_c, 0, 77, 0
1, 127140, Note_on_c, 0, 71, 0
1, 127140, Note_on_c, 0, 71, 79
1, 127140, Note_on_c, 0, 77, 79
1, 127140, Note_on_c, 0, 81, 79
1, 127140, Note_on_c, 1, 36, 0
1, 127140, Note_on_c, 1, 38, 79
1, 127200, Note_on_c, 0, 81, 0
1, 127200, Note_on_c, 0, 77, 0
1, 127200, Note_on_c, 0, 71, 0
1, 127200, Note_on_c, 0, 71, 80
1, 127200, Note_on_c, 0, 76, 80
1, 127200, Note_on_c, 0, 80, 80
1, 127200, Note_on_c, 1, 38, 0
1, 127200, Note_on_c, 1, 40, 80
1, 127260, Note_on_c, 1, 40, 0
1, 127260, Note_on_c, 1, 39, 81
1, 127320, Note_on_c, 1, 39, 0
1, 127320, Note_on_c, 1, 40, 82
1, 127380, Note_on_c, 1, 40, 0
1, 127380, Note_on_c, 1, 39, 83
1, 127440, Note_on_c, 0, 80, 0
1, 127440, Note_on_c, 0, 76, 0
1, 127440, Note_on_c, 0, 71, 0
1, 127440, Note_on_c, 0, 71, 84
1, 127440, Note_on_c, 0, 76, 84
1, 127440, Note_on_c, 0, 80, 84
1, 127440, Note_on_c, 1, 39, 0
1, 127440, Note_on_c, 1, 40, 84
1, 127500, Note_on_c, 1, 40, 0
1, 127500, Note_on_c, 1, 38, 85
1, 127560, Note_on_c, 1, 38, 0
1, 127560, Note_on_c, 1, 36, 86
1, 127620, Note_on_c, 0, 80, 0
1, 127620, Note_on_c, 0, 76, 0
1, 127620, Note_on_c, 0, 71, 0
1, 127620, Note_on_c, 0, 71, 87
1, 127620, Note_on_c, 0, 76, 87
1, 127620, Note_on_c, 0, 80, 87
1, 127620, Note_on_c, 1, 36, 0
1, 127620, Note_on_c, 1, 35, 87
1, 127680, Note_on_c, 0, 80, 0
1, 127680, Note_on_c, 0, 76, 0
1, 127680, Note_on_c, 0, 71, 0
1, 127680, Note_on_c, 0, 72, 96
1, 127680, Note_on_c, 0, 76, 96
1, 127680, Note_on_c, 0, 81, 96
1, 127680, Note_on_c, 1, 35, 0
1, 127680, Note_on_c, 1, 33, 96
1, 127824, Note_on_c, 0, 81, 0
1, 127824, Note_on_c, 0, 76, 0
1, 127824, Note_on_c, 0, 72, 0
1, 127824, Note_on_c, 1, 33, 0
1, 127920, Note_on_c, 0, 69, 96
1, 127920, Note_on_c, 0, 72, 96
1, 127920, Note_on_c, 0, 76, 96
1, 127920, Note_on_c, 1, 45, 96
1, 127920, Note_on_c, 1, 33, 96
1, 128160, Note_on_c, 0, 76, 0
1, 128160, Note_on_c, 0, 72, 0
1, 128160, Note_on_c, 0, 69, 0
1, 128160, Note_on_c, 0, 64, 96
1, 128160, Note_on_c, 0, 69, 96
1, 128160, Note_on_c, 0, 72, 96
1, 128160, Note_on_c, 1, 33, 0
1, 128160, Note_on_c, 1, 45, 0
1, 128160, Note_on_c, 1, 45, 96
1, 128160, Note_on_c, 1, 33, 96
1, 128376, Note_on_c, 0, 72, 0
1, 128376, Note_on_c, 0, 69, 0
1, 128376, Note_on_c, 0, 64, 0
1, 128376, Note_on_c, 1, 33, 0
1, 128376, Note_on_c, 1, 45, 0
1, 128386, End_track
0, 0, End_of_file