0, 0, Header, 0, 1, 240
1, 0, Start_track
1, 0, Tempo, 400000
1, 0, Note_on_c, 0, 67, 80
1, 0, Note_on_c, 0, 71, 80
1, 0, Note_on_c, 1, 43, 56
1, 120, Note_on_c, 1, 43, 0
1, 120, Note_on_c, 1, 55, 56
1, 156, Note_on_c, 1, 55, 0
1, 240, Note_on_c, 0, 71, 0
1, 240, Note_on_c, 0, 67, 0
1, 240, Note_on_c, 0, 69, 64
1, 240, Note_on_c, 0, 72, 64
1, 240, Note_on_c, 1, 55, 56
1, 264, Note_on_c, 0, 72, 0
1, 264, Note_on_c, 0, 74, 64
1, 276, Note_on_c, 1, 55, 0
1, 288, Note_on_c, 0, 74, 0
1, 288, Note_on_c, 0, 72, 64
1, 312, Note_on_c, 0, 72, 0
1, 312, Note_on_c, 0, 71, 64
1, 336, Note_on_c, 0, 71, 0
1, 336, Note_on_c, 0, 72, 64
1, 360, Note_on_c, 0, 72, 0
1, 360, Note_on_c, 0, 69, 0
1, 360, Note_on_c, 0, 71, 64
1, 360, Note_on_c, 0, 74, 64
1, 360, Note_on_c, 1, 55, 56
1, 396, Note_on_c, 1, 55, 0
1, 408, Note_on_c, 0, 74, 0
1, 408, Note_on_c, 0, 71, 0
1, 480, Note_on_c, 1, 55, 56
1, 516, Note_on_c, 1, 55, 0
1, 600, Note_on_c, 0, 71, 64
1, 600, Note_on_c, 0, 74, 64
1, 600, Note_on_c, 1, 55, 56
1, 636, Note_on_c, 1, 55, 0
1, 696, Note_on_c, 0, 74, 0
1, 696, Note_on_c, 0, 71, 0
1, 720, Note_on_c, 0, 76, 80
1, 720, Note_on_c, 0, 79, 80
1, 720, Note_on_c, 1, 55, 56
1, 756, Note_on_c, 1, 55, 0
1, 840, Note_on_c, 1, 55, 56
1, 876, Note_on_c, 1, 55, 0
1, 912, Note_on_c, 0, 79, 0
1, 912, Note_on_c, 0, 76, 0
1, 960, Note_on_c, 0, 78, 64
1, 960, Note_on_c, 0, 74, 64
1, 960, Note_on_c, 1, 55, 56
1, 996, Note_on_c, 0, 78, 0
1, 996, Note_on_c, 1, 55, 0
1, 1008, Note_on_c, 0, 74, 0
1, 1050, Note_on_c, 0, 78, 64
1, 1079, Note_on_c, 0, 78, 0
1, 1080, Note_on_c, 0, 72, 64
1, 1080, Note_on_c, 0, 76, 64
1, 1080, Note_on_c, 1, 55, 56
1, 1116, Note_on_c, 1, 55, 0
1, 1200, Note_on_c, 1, 55, 56
1, 1236, Note_on_c, 1, 55, 0
1, 1272, Note_on_c, 0, 76, 0
1, 1272, Note_on_c, 0, 72, 0
1, 1320, Note_on_c, 0, 71, 64
1, 1320, Note_on_c, 0, 74, 64
1, 1320, Note_on_c, 1, 55, 56
1, 1356, Note_on_c, 1, 55, 0
1, 1416, Note_on_c, 0, 74, 0
1, 1416, Note_on_c, 0, 71, 0
1, 1440, Note_on_c, 0, 71, 80
1, 1440, Note_on_c, 0, 67, 80
1, 1440, Note_on_c, 1, 43, 56
1, 1560, Note_on_c, 1, 43, 0
1, 1560, Note_on_c, 1, 55, 56
1, 1596, Note_on_c, 1, 55, 0
1, 1632, Note_on_c, 0, 67, 0
1, 1632, Note_on_c, 0, 71, 0
1, 1680, Note_on_c, 0, 72, 64
1, 1680, Note_on_c, 0, 69, 64
1, 1680, Note_on_c, 1, 55, 56
1, 1699, Note_on_c, 0, 72, 0
1, 1704, Note_on_c, 0, 74, 64
1, 1716, Note_on_c, 1, 55, 0
1, 1723, Note_on_c, 0, 74, 0
1, 1728, Note_on_c, 0, 72, 64
1, 1747, Note_on_c, 0, 72, 0
1, 1752, Note_on_c, 0, 71, 64
1, 1771, Note_on_c, 0, 71, 0
1, 1776, Note_on_c, 0, 69, 0
1, 1776, Note_on_c, 0, 72, 64
1, 1795, Note_on_c, 0, 72, 0
1, 1800, Note_on_c, 0, 74, 64
1, 1800, Note_on_c, 0, 71, 64
1, 1800, Note_on_c, 1, 55, 56
1, 1836, Note_on_c, 1, 55, 0
1, 1848, Note_on_c, 0, 71, 0
1, 1848, Note_on_c, 0, 74, 0
1, 1920, Note_on_c, 1, 55, 56
1, 1956, Note_on_c, 1, 55, 0
1, 2040, Note_on_c, 0, 74, 64
1, 2040, Note_on_c, 0, 71, 64
1, 2040, Note_on_c, 1, 55, 56
1, 2076, Note_on_c, 1, 55, 0
1, 2136, Note_on_c, 0, 71, 0
1, 2136, Note_on_c, 0, 74, 0
1, 2160, Note_on_c, 0, 76, 80
1, 2160, Note_on_c, 0, 72, 80
1, 2160, Note_on_c, 1, 55, 56
1, 2196, Note_on_c, 1, 55, 0
1, 2280, Note_on_c, 1, 55, 56
1, 2316, Note_on_c, 1, 55, 0
1, 2352, Note_on_c, 0, 72, 0
1, 2352, Note_on_c, 0, 76, 0
1, 2400, Note_on_c, 0, 74, 64
1, 2400, Note_on_c, 0, 71, 64
1, 2400, Note_on_c, 1, 55, 56
1, 2436, Note_on_c, 0, 74, 0
1, 2436, Note_on_c, 1, 55, 0
1, 2448, Note_on_c, 0, 71, 0
1, 2490, Note_on_c, 0, 74, 64
1, 2514, Note_on_c, 0, 74, 0
1, 2520, Note_on_c, 0, 72, 64
1, 2520, Note_on_c, 0, 69, 64
1, 2520, Note_on_c, 1, 55, 56
1, 2556, Note_on_c, 1, 55, 0
1, 2640, Note_on_c, 1, 55, 56
1, 2676, Note_on_c, 1, 55, 0
1, 2712, Note_on_c, 0, 69, 0
1, 2712, Note_on_c, 0, 72, 0
1, 2760, Note_on_c, 0, 71, 64
1, 2760, Note_on_c, 0, 67, 64
1, 2760, Note_on_c, 1, 55, 56
1, 2796, Note_on_c, 0, 67, 0
1, 2796, Note_on_c, 0, 71, 0
1, 2796, Note_on_c, 1, 55, 0
1, 2880, Note_on_c, 0, 62, 48
1, 2880, Note_on_c, 1, 35, 40
1, 2880, Note_on_c, 1, 47, 40
1, 2928, Note_on_c, 0, 62, 0
1, 2940, Note_on_c, 0, 67, 49
1, 2988, Note_on_c, 0, 67, 0
1, 2988, Note_on_c, 1, 47, 0
1, 2988, Note_on_c, 1, 35, 0
1, 3000, Note_on_c, 0, 66, 51
1, 3048, Note_on_c, 0, 66, 0
1, 3060, Note_on_c, 0, 67, 52
1, 3108, Note_on_c, 0, 67, 0
1, 3120, Note_on_c, 0, 71, 53
1, 3168, Note_on_c, 0, 71, 0
1, 3180, Note_on_c, 0, 67, 55
1, 3228, Note_on_c, 0, 67, 0
1, 3240, Note_on_c, 0, 64, 56
1, 3240, Note_on_c, 1, 36, 48
1, 3240, Note_on_c, 1, 48, 48
1, 3288, Note_on_c, 0, 64, 0
1, 3300, Note_on_c, 0, 69, 57
1, 3348, Note_on_c, 0, 69, 0
1, 3348, Note_on_c, 1, 48, 0
1, 3348, Note_on_c, 1, 36, 0
1, 3360, Note_on_c, 0, 68, 59
1, 3408, Note_on_c, 0, 68, 0
1, 3420, Note_on_c, 0, 69, 60
1, 3468, Note_on_c, 0, 69, 0
1, 3480, Note_on_c, 0, 72, 61
1, 3528, Note_on_c, 0, 72, 0
1, 3540, Note_on_c, 0, 69, 63
1, 3588, Note_on_c, 0, 69, 0
1, 3600, Note_on_c, 0, 66, 64
1, 3600, Note_on_c, 1, 38, 56
1, 3600, Note_on_c, 1, 50, 56
1, 3648, Note_on_c, 0, 66, 0
1, 3660, Note_on_c, 0, 71, 65
1, 3708, Note_on_c, 0, 71, 0
1, 3708, Note_on_c, 1, 50, 0
1, 3708, Note_on_c, 1, 38, 0
1, 3720, Note_on_c, 0, 69, 67
1, 3768, Note_on_c, 0, 69, 0
1, 3780, Note_on_c, 0, 71, 68
1, 3828, Note_on_c, 0, 71, 0
1, 3840, Note_on_c, 0, 74, 69
1, 3888, Note_on_c, 0, 74, 0
1, 3900, Note_on_c, 0, 71, 71
1, 3948, Note_on_c, 0, 71, 0
1, 3960, Note_on_c, 0, 67, 72
1, 3960, Note_on_c, 1, 40, 64
1, 3960, Note_on_c, 1, 52, 64
1, 4008, Note_on_c, 0, 67, 0
1, 4020, Note_on_c, 0, 72, 73
1, 4068, Note_on_c, 0, 72, 0
1, 4068, Note_on_c, 1, 52, 0
1, 4068, Note_on_c, 1, 40, 0
1, 4080, Note_on_c, 0, 71, 75
1, 4128, Note_on_c, 0, 71, 0
1, 4140, Note_on_c, 0, 72, 76
1, 4188, Note_on_c, 0, 72, 0
1, 4200, Note_on_c, 0, 76, 77
1, 4248, Note_on_c, 0, 76, 0
1, 4260, Note_on_c, 0, 72, 79
1, 4308, Note_on_c, 0, 72, 0
1, 4320, Note_on_c, 0, 74, 80
1, 4320, Note_on_c, 1, 54, 56
1, 4368, Note_on_c, 1, 54, 0
1, 4380, Note_on_c, 0, 74, 0
1, 4380, Note_on_c, 1, 62, 40
1, 4428, Note_on_c, 1, 62, 0
1, 4440, Note_on_c, 1, 61, 40
1, 4488, Note_on_c, 1, 61, 0
1, 4500, Note_on_c, 1, 62, 40
1, 4548, Note_on_c, 1, 62, 0
1, 4560, Note_on_c, 0, 81, 48
1, 4560, Note_on_c, 0, 84, 48
1, 4560, Note_on_c, 1, 54, 40
1, 4608, Note_on_c, 1, 54, 0
1, 4620, Note_on_c, 1, 62, 40
1, 4668, Note_on_c, 1, 62, 0
1, 4680, Note_on_c, 0, 84, 0
1, 4680, Note_on_c, 0, 81, 0
1, 4680, Note_on_c, 0, 79, 48
1, 4680, Note_on_c, 0, 83, 48
1, 4680, Note_on_c, 1, 55, 40
1, 4716, Note_on_c, 0, 83, 0
1, 4716, Note_on_c, 0, 79, 0
1, 4728, Note_on_c, 1, 55, 0
1, 4740, Note_on_c, 1, 62, 40
1, 4788, Note_on_c, 1, 62, 0
1, 4800, Note_on_c, 1, 61, 40
1, 4848, Note_on_c, 1, 61, 0
1, 4860, Note_on_c, 1, 62, 40
1, 4908, Note_on_c, 1, 62, 0
1, 4920, Note_on_c, 0, 71, 48
1, 4920, Note_on_c, 0, 74, 48
1, 4920, Note_on_c, 1, 55, 40
1, 4968, Note_on_c, 1, 55, 0
1, 4980, Note_on_c, 1, 62, 40
1, 5028, Note_on_c, 1, 62, 0
1, 5040, Note_on_c, 0, 74, 0
1, 5040, Note_on_c, 0, 71, 0
1, 5040, Note_on_c, 0, 69, 48
1, 5040, Note_on_c, 0, 72, 48
1, 5040, Note_on_c, 1, 57, 40
1, 5076, Note_on_c, 0, 72, 0
1, 5076, Note_on_c, 0, 69, 0
1, 5088, Note_on_c, 1, 57, 0
1, 5100, Note_on_c, 1, 62, 40
1, 5148, Note_on_c, 1, 62, 0
1, 5160, Note_on_c, 1, 61, 40
1, 5208, Note_on_c, 1, 61, 0
1, 5220, Note_on_c, 1, 62, 40
1, 5268, Note_on_c, 1, 62, 0
1, 5280, Note_on_c, 0, 72, 48
1, 5280, Note_on_c, 0, 78, 48
1, 5280, Note_on_c, 1, 57, 40
1, 5328, Note_on_c, 1, 57, 0
1, 5340, Note_on_c, 1, 62, 40
1, 5388, Note_on_c, 1, 62, 0
1, 5400, Note_on_c, 0, 78, 0
1, 5400, Note_on_c, 0, 72, 0
1, 5400, Note_on_c, 0, 71, 48
1, 5400, Note_on_c, 0, 79, 48
1, 5400, Note_on_c, 1, 59, 40
1, 5436, Note_on_c, 0, 79, 0
1, 5436, Note_on_c, 0, 71, 0
1, 5448, Note_on_c, 1, 59, 0
1, 5460, Note_on_c, 1, 62, 40
1, 5508, Note_on_c, 1, 62, 0
1, 5520, Note_on_c, 1, 61, 40
1, 5568, Note_on_c, 1, 61, 0
1, 5580, Note_on_c, 1, 62, 40
1, 5628, Note_on_c, 1, 62, 0
1, 5640, Note_on_c, 0, 67, 48
1, 5640, Note_on_c, 0, 71, 48
1, 5640, Note_on_c, 1, 59, 40
1, 5676, Note_on_c, 0, 71, 0
1, 5676, Note_on_c, 0, 67, 0
1, 5688, Note_on_c, 1, 59, 0
1, 5700, Note_on_c, 1, 62, 40
1, 5748, Note_on_c, 1, 62, 0
1, 5760, Note_on_c, 0, 69, 48
1, 5760, Note_on_c, 1, 64, 56
1, 5760, Note_on_c, 1, 60, 56
1, 5808, Note_on_c, 0, 69, 0
1, 5820, Note_on_c, 0, 68, 53
1, 5856, Note_on_c, 1, 60, 0
1, 5856, Note_on_c, 1, 64, 0
1, 5868, Note_on_c, 0, 68, 0
1, 5880, Note_on_c, 0, 71, 59
1, 5928, Note_on_c, 0, 71, 0
1, 5940, Note_on_c, 0, 69, 64
1, 5988, Note_on_c, 0, 69, 0
1, 6000, Note_on_c, 0, 72, 69
1, 6048, Note_on_c, 0, 72, 0
1, 6060, Note_on_c, 0, 71, 75
1, 6108, Note_on_c, 0, 71, 0
1, 6120, Note_on_c, 0, 74, 80
1, 6168, Note_on_c, 0, 74, 0
1, 6180, Note_on_c, 0, 72, 80
1, 6228, Note_on_c, 0, 72, 0
1, 6240, Note_on_c, 0, 76, 80
1, 6360, Note_on_c, 1, 60, 56
1, 6360, Note_on_c, 1, 67, 56
1, 6480, Note_on_c, 1, 67, 0
1, 6480, Note_on_c, 1, 60, 0
1, 6480, Note_on_c, 1, 62, 72
1, 6480, Note_on_c, 1, 66, 72
1, 6516, Note_on_c, 1, 66, 0
1, 6516, Note_on_c, 1, 62, 0
1, 6600, Note_on_c, 0, 76, 0
1, 6600, Note_on_c, 0, 72, 72
1, 6720, Note_on_c, 1, 62, 64
1, 6720, Note_on_c, 1, 66, 64
1, 6840, Note_on_c, 1, 66, 0
1, 6840, Note_on_c, 1, 62, 0
1, 6840, Note_on_c, 1, 64, 64
1, 6840, Note_on_c, 1, 67, 64
1, 6876, Note_on_c, 1, 67, 0
1, 6876, Note_on_c, 1, 64, 0
1, 6960, Note_on_c, 0, 72, 0
1, 6960, Note_on_c, 0, 71, 64
1, 7080, Note_on_c, 1, 64, 56
1, 7080, Note_on_c, 1, 67, 56
1, 7200, Note_on_c, 1, 67, 0
1, 7200, Note_on_c, 1, 64, 0
1, 7200, Note_on_c, 1, 60, 56
1, 7200, Note_on_c, 1, 64, 56
1, 7236, Note_on_c, 1, 64, 0
1, 7236, Note_on_c, 1, 60, 0
1, 7320, Note_on_c, 0, 71, 0
1, 7320, Note_on_c, 0, 69, 56
1, 7440, Note_on_c, 1, 48, 48
1, 7440, Note_on_c, 1, 60, 48
1, 7560, Note_on_c, 1, 60, 0
1, 7560, Note_on_c, 1, 48, 0
1, 7560, Note_on_c, 1, 50, 48
1, 7560, Note_on_c, 1, 59, 48
1, 7596, Note_on_c, 1, 59, 0
1, 7596, Note_on_c, 1, 50, 0
1, 7680, Note_on_c, 0, 69, 0
1, 7680, Note_on_c, 0, 67, 52
1, 7800, Note_on_c, 1, 50, 44
1, 7800, Note_on_c, 1, 59, 44
1, 7920, Note_on_c, 1, 59, 0
1, 7920, Note_on_c, 1, 50, 0
1, 7920, Note_on_c, 1, 50, 44
1, 7920, Note_on_c, 1, 57, 44
1, 7956, Note_on_c, 1, 57, 0
1, 7956, Note_on_c, 1, 50, 0
1, 8040, Note_on_c, 0, 67, 0
1, 8040, Note_on_c, 0, 66, 48
1, 8160, Note_on_c, 1, 57, 40
1, 8160, Note_on_c, 1, 50, 40
1, 8280, Note_on_c, 1, 50, 0
1, 8280, Note_on_c, 1, 57, 0
1, 8280, Note_on_c, 1, 59, 40
1, 8280, Note_on_c, 1, 55, 40
1, 8316, Note_on_c, 1, 55, 0
1, 8316, Note_on_c, 1, 59, 0
1, 8400, Note_on_c, 0, 66, 0
1, 8400, Note_on_c, 0, 67, 59
1, 8520, Note_on_c, 0, 67, 0
1, 8520, Note_on_c, 0, 69, 69
1, 8640, Note_on_c, 0, 69, 0
1, 8640, Note_on_c, 0, 62, 80
1, 8640, Note_on_c, 0, 65, 80
1, 8640, Note_on_c, 0, 71, 80
1, 8640, Note_on_c, 1, 43, 72
1, 8688, Note_on_c, 1, 43, 0
1, 8700, Note_on_c, 1, 55, 72
1, 8748, Note_on_c, 1, 55, 0
1, 8760, Note_on_c, 1, 54, 72
1, 8808, Note_on_c, 1, 54, 0
1, 8820, Note_on_c, 1, 55, 72
1, 8868, Note_on_c, 1, 55, 0
1, 8880, Note_on_c, 1, 57, 72
1, 8892, Note_on_c, 1, 57, 0
1, 8928, Note_on_c, 0, 71, 0
1, 8928, Note_on_c, 0, 65, 0
1, 8928, Note_on_c, 0, 62, 0
1, 8940, Note_on_c, 1, 55, 72
1, 8952, Note_on_c, 1, 55, 0
1, 9000, Note_on_c, 0, 64, 80
1, 9000, Note_on_c, 1, 43, 72
1, 9048, Note_on_c, 0, 64, 0
1, 9060, Note_on_c, 0, 67, 80
1, 9060, Note_on_c, 1, 43, 0
1, 9108, Note_on_c, 0, 67, 0
1, 9120, Note_on_c, 0, 72, 80
1, 9168, Note_on_c, 0, 72, 0
1, 9180, Note_on_c, 0, 67, 80
1, 9228, Note_on_c, 0, 67, 0
1, 9240, Note_on_c, 0, 76, 80
1, 9252, Note_on_c, 0, 76, 0
1, 9300, Note_on_c, 0, 72, 80
1, 9312, Note_on_c, 0, 72, 0
1, 9360, Note_on_c, 0, 69, 80
1, 9360, Note_on_c, 0, 72, 80
1, 9360, Note_on_c, 0, 78, 80
1, 9360, Note_on_c, 1, 43, 72
1, 9408, Note_on_c, 1, 43, 0
1, 9420, Note_on_c, 1, 55, 72
1, 9468, Note_on_c, 1, 55, 0
1, 9480, Note_on_c, 1, 54, 72
1, 9528, Note_on_c, 1, 54, 0
1, 9540, Note_on_c, 1, 55, 72
1, 9588, Note_on_c, 1, 55, 0
1, 9600, Note_on_c, 1, 57, 72
1, 9612, Note_on_c, 1, 57, 0
1, 9648, Note_on_c, 0, 78, 0
1, 9648, Note_on_c, 0, 72, 0
1, 9648, Note_on_c, 0, 69, 0
1, 9660, Note_on_c, 1, 55, 72
1, 9672, Note_on_c, 1, 55, 0
1, 9720, Note_on_c, 0, 79, 80
1, 9720, Note_on_c, 1, 43, 72
1, 9768, Note_on_c, 0, 79, 0
1, 9780, Note_on_c, 0, 83, 80
1, 9780, Note_on_c, 1, 43, 0
1, 9828, Note_on_c, 0, 83, 0
1, 9840, Note_on_c, 0, 79, 80
1, 9888, Note_on_c, 0, 79, 0
1, 9900, Note_on_c, 0, 74, 80
1, 9948, Note_on_c, 0, 74, 0
1, 9960, Note_on_c, 0, 71, 80
1, 9972, Note_on_c, 0, 71, 0
1, 10020, Note_on_c, 0, 67, 80
1, 10032, Note_on_c, 0, 67, 0
1, 10080, Note_on_c, 0, 62, 80
1, 10080, Note_on_c, 0, 65, 80
1, 10080, Note_on_c, 0, 71, 80
1, 10080, Note_on_c, 1, 43, 72
1, 10128, Note_on_c, 1, 43, 0
1, 10140, Note_on_c, 1, 55, 72
1, 10188, Note_on_c, 1, 55, 0
1, 10200, Note_on_c, 1, 54, 72
1, 10248, Note_on_c, 1, 54, 0
1, 10260, Note_on_c, 1, 55, 72
1, 10308, Note_on_c, 1, 55, 0
1, 10320, Note_on_c, 1, 57, 72
1, 10368, Note_on_c, 0, 71, 0
1, 10368, Note_on_c, 0, 65, 0
1, 10368, Note_on_c, 0, 62, 0
1, 10368, Note_on_c, 1, 57, 0
1, 10380, Note_on_c, 1, 55, 72
1, 10428, Note_on_c, 1, 55, 0
1, 10440, Note_on_c, 0, 64, 80
1, 10440, Note_on_c, 1, 43, 72
1, 10488, Note_on_c, 0, 64, 0
1, 10500, Note_on_c, 0, 67, 80
1, 10500, Note_on_c, 1, 43, 0
1, 10548, Note_on_c, 0, 67, 0
1, 10560, Note_on_c, 0, 72, 80
1, 10608, Note_on_c, 0, 72, 0
1, 10620, Note_on_c, 0, 67, 80
1, 10668, Note_on_c, 0, 67, 0
1, 10680, Note_on_c, 0, 76, 80
1, 10692, Note_on_c, 0, 76, 0
1, 10740, Note_on_c, 0, 72, 80
1, 10752, Note_on_c, 0, 72, 0
1, 10800, Note_on_c, 0, 69, 80
1, 10800, Note_on_c, 0, 72, 80
1, 10800, Note_on_c, 0, 78, 80
1, 10800, Note_on_c, 1, 43, 72
1, 10848, Note_on_c, 1, 43, 0
1, 10860, Note_on_c, 1, 55, 72
1, 10908, Note_on_c, 1, 55, 0
1, 10920, Note_on_c, 1, 54, 72
1, 10968, Note_on_c, 1, 54, 0
1, 10980, Note_on_c, 1, 55, 72
1, 11028, Note_on_c, 1, 55, 0
1, 11040, Note_on_c, 1, 57, 72
1, 11052, Note_on_c, 1, 57, 0
1, 11088, Note_on_c, 0, 78, 0
1, 11088, Note_on_c, 0, 72, 0
1, 11088, Note_on_c, 0, 69, 0
1, 11100, Note_on_c, 1, 55, 72
1, 11112, Note_on_c, 1, 55, 0
1, 11160, Note_on_c, 0, 79, 80
1, 11160, Note_on_c, 1, 43, 72
1, 11208, Note_on_c, 0, 79, 0
1, 11220, Note_on_c, 0, 81, 77
1, 11220, Note_on_c, 1, 43, 0
1, 11268, Note_on_c, 0, 81, 0
1, 11280, Note_on_c, 0, 83, 75
1, 11328, Note_on_c, 0, 83, 0
1, 11340, Note_on_c, 0, 79, 72
1, 11352, Note_on_c, 0, 79, 0
1, 11400, Note_on_c, 0, 78, 69
1, 11460, Note_on_c, 0, 78, 0
1, 11460, Note_on_c, 0, 75, 67
1, 11520, Note_on_c, 0, 75, 0
1, 11520, Note_on_c, 0, 76, 64
1, 11520, Note_on_c, 1, 60, 56
1, 11568, Note_on_c, 1, 60, 0
1, 11580, Note_on_c, 1, 67, 56
1, 11628, Note_on_c, 1, 67, 0
1, 11640, Note_on_c, 1, 66, 56
1, 11688, Note_on_c, 1, 66, 0
1, 11700, Note_on_c, 1, 67, 56
1, 11712, Note_on_c, 0, 76, 0
1, 11748, Note_on_c, 1, 67, 0
1, 11760, Note_on_c, 0, 74, 64
1, 11760, Note_on_c, 1, 62, 56
1, 11796, Note_on_c, 0, 74, 0
1, 11808, Note_on_c, 1, 62, 0
1, 11820, Note_on_c, 1, 67, 56
1, 11868, Note_on_c, 1, 67, 0
1, 11880, Note_on_c, 0, 74, 64
1, 11880, Note_on_c, 1, 64, 56
1, 11928, Note_on_c, 1, 64, 0
1, 11940, Note_on_c, 1, 67, 56
1, 11976, Note_on_c, 0, 74, 0
1, 11988, Note_on_c, 1, 67, 0
1, 12000, Note_on_c, 0, 72, 64
1, 12000, Note_on_c, 1, 66, 56
1, 12048, Note_on_c, 1, 66, 0
1, 12060, Note_on_c, 1, 67, 56
1, 12096, Note_on_c, 0, 72, 0
1, 12108, Note_on_c, 1, 67, 0
1, 12120, Note_on_c, 0, 71, 64
1, 12120, Note_on_c, 1, 62, 56
1, 12168, Note_on_c, 1, 62, 0
1, 12180, Note_on_c, 1, 67, 56
1, 12216, Note_on_c, 0, 71, 0
1, 12228, Note_on_c, 1, 67, 0
1, 12240, Note_on_c, 0, 71, 64
1, 12240, Note_on_c, 1, 60, 56
1, 12288, Note_on_c, 1, 60, 0
1, 12300, Note_on_c, 1, 67, 56
1, 12336, Note_on_c, 0, 71, 0
1, 12348, Note_on_c, 1, 67, 0
1, 12360, Note_on_c, 0, 69, 64
1, 12360, Note_on_c, 1, 66, 56
1, 12408, Note_on_c, 1, 66, 0
1, 12420, Note_on_c, 1, 67, 56
1, 12456, Note_on_c, 0, 69, 0
1, 12468, Note_on_c, 1, 67, 0
1, 12480, Note_on_c, 0, 71, 64
1, 12480, Note_on_c, 1, 62, 56
1, 12528, Note_on_c, 1, 62, 0
1, 12540, Note_on_c, 1, 67, 56
1, 12576, Note_on_c, 0, 71, 0
1, 12588, Note_on_c, 1, 67, 0
1, 12600, Note_on_c, 0, 74, 64
1, 12600, Note_on_c, 1, 64, 56
1, 12648, Note_on_c, 1, 64, 0
1, 12660, Note_on_c, 1, 67, 56
1, 12696, Note_on_c, 0, 74, 0
1, 12708, Note_on_c, 1, 67, 0
1, 12720, Note_on_c, 0, 72, 64
1, 12720, Note_on_c, 1, 66, 56
1, 12768, Note_on_c, 1, 66, 0
1, 12780, Note_on_c, 1, 67, 56
1, 12816, Note_on_c, 0, 72, 0
1, 12828, Note_on_c, 1, 67, 0
1, 12840, Note_on_c, 0, 71, 64
1, 12840, Note_on_c, 1, 62, 56
1, 12888, Note_on_c, 1, 62, 0
1, 12900, Note_on_c, 1, 67, 56
1, 12936, Note_on_c, 0, 71, 0
1, 12948, Note_on_c, 1, 67, 0
1, 12960, Note_on_c, 0, 71, 48
1, 12960, Note_on_c, 1, 60, 40
1, 13008, Note_on_c, 1, 60, 0
1, 13020, Note_on_c, 1, 67, 40
1, 13056, Note_on_c, 0, 71, 0
1, 13068, Note_on_c, 1, 67, 0
1, 13080, Note_on_c, 0, 69, 48
1, 13080, Note_on_c, 1, 66, 40
1, 13128, Note_on_c, 1, 66, 0
1, 13140, Note_on_c, 1, 67, 40
1, 13176, Note_on_c, 0, 69, 0
1, 13188, Note_on_c, 1, 67, 0
1, 13200, Note_on_c, 0, 71, 48
1, 13200, Note_on_c, 1, 62, 40
1, 13248, Note_on_c, 1, 62, 0
1, 13260, Note_on_c, 1, 67, 40
1, 13296, Note_on_c, 0, 71, 0
1, 13308, Note_on_c, 1, 67, 0
1, 13320, Note_on_c, 0, 74, 48
1, 13320, Note_on_c, 1, 64, 40
1, 13368, Note_on_c, 1, 64, 0
1, 13380, Note_on_c, 1, 67, 40
1, 13416, Note_on_c, 0, 74, 0
1, 13428, Note_on_c, 1, 67, 0
1, 13440, Note_on_c, 0, 72, 48
1, 13440, Note_on_c, 1, 66, 40
1, 13488, Note_on_c, 1, 66, 0
1, 13500, Note_on_c, 1, 67, 40
1, 13536, Note_on_c, 0, 72, 0
1, 13548, Note_on_c, 1, 67, 0
1, 13560, Note_on_c, 0, 71, 48
1, 13560, Note_on_c, 1, 61, 40
1, 13608, Note_on_c, 1, 61, 0
1, 13620, Note_on_c, 1, 67, 40
1, 13656, Note_on_c, 0, 71, 0
1, 13668, Note_on_c, 1, 67, 0
1, 13680, Note_on_c, 0, 69, 48
1, 13680, Note_on_c, 1, 62, 40
1, 13680, Note_on_c, 1, 66, 40
1, 13776, Note_on_c, 0, 69, 0
1, 13776, Note_on_c, 1, 66, 0
1, 13776, Note_on_c, 1, 62, 0
1, 13800, Note_on_c, 0, 78, 40
1, 13800, Note_on_c, 0, 81, 40
1, 13800, Note_on_c, 0, 86, 40
1, 13800, Note_on_c, 1, 57, 40
1, 13824, Note_on_c, 0, 86, 0
1, 13824, Note_on_c, 0, 81, 0
1, 13824, Note_on_c, 0, 78, 0
1, 13824, Note_on_c, 1, 57, 0
1, 13920, Note_on_c, 0, 78, 40
1, 13920, Note_on_c, 0, 81, 40
1, 13920, Note_on_c, 0, 86, 40
1, 13920, Note_on_c, 1, 54, 40
1, 13944, Note_on_c, 0, 86, 0
1, 13944, Note_on_c, 0, 81, 0
1, 13944, Note_on_c, 0, 78, 0
1, 13944, Note_on_c, 1, 54, 0
1, 14040, Note_on_c, 0, 78, 40
1, 14040, Note_on_c, 0, 81, 40
1, 14040, Note_on_c, 0, 86, 40
1, 14040, Note_on_c, 1, 50, 40
1, 14064, Note_on_c, 0, 86, 0
1, 14064, Note_on_c, 0, 81, 0
1, 14064, Note_on_c, 0, 78, 0
1, 14064, Note_on_c, 1, 50, 0
1, 14400, Note_on_c, 0, 81, 40
1, 14520, Note_on_c, 0, 81, 0
1, 14520, Note_on_c, 0, 80, 45
1, 14640, Note_on_c, 0, 80, 0
1, 14640, Note_on_c, 0, 83, 51
1, 14760, Note_on_c, 0, 83, 0
1, 14760, Note_on_c, 0, 81, 56
1, 14880, Note_on_c, 0, 81, 0
1, 14880, Note_on_c, 0, 80, 61
1, 15000, Note_on_c, 0, 80, 0
1, 15000, Note_on_c, 0, 83, 67
1, 15120, Note_on_c, 0, 83, 0
1, 15120, Note_on_c, 0, 74, 80
1, 15120, Note_on_c, 0, 81, 80
1, 15120, Note_on_c, 1, 57, 72
1, 15120, Note_on_c, 1, 66, 72
1, 15216, Note_on_c, 0, 74, 0
1, 15216, Note_on_c, 1, 66, 0
1, 15240, Note_on_c, 0, 73, 75
1, 15240, Note_on_c, 1, 64, 67
1, 15336, Note_on_c, 0, 73, 0
1, 15336, Note_on_c, 1, 64, 0
1, 15360, Note_on_c, 0, 76, 69
1, 15360, Note_on_c, 1, 67, 61
1, 15456, Note_on_c, 0, 76, 0
1, 15456, Note_on_c, 1, 67, 0
1, 15480, Note_on_c, 0, 74, 64
1, 15480, Note_on_c, 1, 66, 56
1, 15576, Note_on_c, 0, 74, 0
1, 15576, Note_on_c, 1, 66, 0
1, 15600, Note_on_c, 0, 73, 59
1, 15600, Note_on_c, 1, 64, 51
1, 15696, Note_on_c, 0, 73, 0
1, 15696, Note_on_c, 1, 64, 0
1, 15720, Note_on_c, 0, 76, 53
1, 15720, Note_on_c, 1, 67, 45
1, 15816, Note_on_c, 0, 76, 0
1, 15816, Note_on_c, 1, 67, 0
1, 15840, Note_on_c, 0, 74, 48
1, 15840, Note_on_c, 1, 66, 40
1, 15936, Note_on_c, 0, 74, 0
1, 15936, Note_on_c, 0, 81, 0
1, 15936, Note_on_c, 1, 57, 0
1, 15960, Note_on_c, 1, 66, 0
1, 15960, Note_on_c, 1, 57, 40
1, 16080, Note_on_c, 0, 78, 48
1, 16080, Note_on_c, 1, 57, 0
1, 16080, Note_on_c, 1, 62, 40
1, 16128, Note_on_c, 0, 78, 0
1, 16140, Note_on_c, 0, 74, 48
1, 16140, Note_on_c, 1, 62, 0
1, 16188, Note_on_c, 0, 74, 0
1, 16200, Note_on_c, 0, 79, 48
1, 16200, Note_on_c, 1, 61, 40
1, 16236, Note_on_c, 0, 79, 0
1, 16320, Note_on_c, 1, 61, 0
1, 16320, Note_on_c, 1, 57, 40
1, 16440, Note_on_c, 0, 76, 48
1, 16440, Note_on_c, 1, 57, 0
1, 16440, Note_on_c, 1, 67, 40
1, 16488, Note_on_c, 0, 76, 0
1, 16500, Note_on_c, 0, 73, 48
1, 16500, Note_on_c, 1, 67, 0
1, 16548, Note_on_c, 0, 73, 0
1, 16560, Note_on_c, 0, 74, 48
1, 16560, Note_on_c, 1, 66, 40
1, 16596, Note_on_c, 0, 74, 0
1, 16680, Note_on_c, 1, 66, 0
1, 16680, Note_on_c, 1, 57, 40
1, 16800, Note_on_c, 0, 69, 48
1, 16800, Note_on_c, 1, 57, 0
1, 16800, Note_on_c, 1, 62, 40
1, 16848, Note_on_c, 0, 69, 0
1, 16860, Note_on_c, 0, 78, 48
1, 16860, Note_on_c, 1, 62, 0
1, 16908, Note_on_c, 0, 78, 0
1, 16920, Note_on_c, 0, 76, 48
1, 16920, Note_on_c, 1, 61, 40
1, 16944, Note_on_c, 0, 76, 0
1, 17016, Note_on_c, 1, 61, 0
1, 17040, Note_on_c, 0, 76, 48
1, 17088, Note_on_c, 0, 76, 0
1, 17100, Note_on_c, 0, 79, 48
1, 17148, Note_on_c, 0, 79, 0
1, 17160, Note_on_c, 0, 78, 48
1, 17208, Note_on_c, 0, 78, 0
1, 17220, Note_on_c, 0, 81, 48
1, 17268, Note_on_c, 0, 81, 0
1, 17280, Note_on_c, 0, 79, 48
1, 17400, Note_on_c, 0, 79, 0
1, 17400, Note_on_c, 0, 78, 53
1, 17520, Note_on_c, 0, 78, 0
1, 17520, Note_on_c, 0, 81, 59
1, 17640, Note_on_c, 0, 81, 0
1, 17640, Note_on_c, 0, 79, 64
1, 17760, Note_on_c, 0, 79, 0
1, 17760, Note_on_c, 0, 78, 69
1, 17880, Note_on_c, 0, 78, 0
1, 17880, Note_on_c, 0, 81, 75
1, 18000, Note_on_c, 0, 81, 0
1, 18000, Note_on_c, 0, 73, 80
1, 18000, Note_on_c, 0, 79, 80
1, 18000, Note_on_c, 1, 64, 72
1, 18000, Note_on_c, 1, 57, 72
1, 18120, Note_on_c, 0, 73, 0
1, 18120, Note_on_c, 0, 71, 75
1, 18120, Note_on_c, 1, 64, 0
1, 18120, Note_on_c, 1, 62, 67
1, 18240, Note_on_c, 0, 71, 0
1, 18240, Note_on_c, 0, 74, 69
1, 18240, Note_on_c, 1, 62, 0
1, 18240, Note_on_c, 1, 66, 61
1, 18360, Note_on_c, 0, 74, 0
1, 18360, Note_on_c, 0, 73, 64
1, 18360, Note_on_c, 1, 66, 0
1, 18360, Note_on_c, 1, 64, 56
1, 18480, Note_on_c, 0, 73, 0
1, 18480, Note_on_c, 0, 71, 59
1, 18480, Note_on_c, 1, 64, 0
1, 18480, Note_on_c, 1, 62, 51
1, 18600, Note_on_c, 0, 71, 0
1, 18600, Note_on_c, 0, 74, 53
1, 18600, Note_on_c, 1, 62, 0
1, 18600, Note_on_c, 1, 66, 45
1, 18720, Note_on_c, 0, 74, 0
1, 18720, Note_on_c, 0, 73, 48
1, 18720, Note_on_c, 1, 66, 0
1, 18720, Note_on_c, 1, 64, 40
1, 18816, Note_on_c, 0, 73, 0
1, 18816, Note_on_c, 0, 79, 0
1, 18816, Note_on_c, 1, 57, 0
1, 18840, Note_on_c, 1, 64, 0
1, 18840, Note_on_c, 1, 57, 40
1, 18876, Note_on_c, 1, 57, 0
1, 18960, Note_on_c, 0, 76, 48
1, 18960, Note_on_c, 1, 67, 40
1, 19008, Note_on_c, 0, 76, 0
1, 19020, Note_on_c, 0, 73, 48
1, 19032, Note_on_c, 1, 67, 0
1, 19068, Note_on_c, 0, 73, 0
1, 19080, Note_on_c, 0, 74, 48
1, 19080, Note_on_c, 1, 66, 40
1, 19116, Note_on_c, 0, 74, 0
1, 19200, Note_on_c, 1, 66, 0
1, 19200, Note_on_c, 1, 57, 40
1, 19236, Note_on_c, 1, 57, 0
1, 19320, Note_on_c, 0, 69, 48
1, 19320, Note_on_c, 1, 62, 40
1, 19368, Note_on_c, 0, 69, 0
1, 19380, Note_on_c, 0, 78, 48
1, 19392, Note_on_c, 1, 62, 0
1, 19428, Note_on_c, 0, 78, 0
1, 19440, Note_on_c, 0, 76, 48
1, 19440, Note_on_c, 1, 61, 40
1, 19476, Note_on_c, 0, 76, 0
1, 19560, Note_on_c, 1, 61, 0
1, 19560, Note_on_c, 1, 57, 40
1, 19596, Note_on_c, 1, 57, 0
1, 19680, Note_on_c, 0, 69, 48
1, 19680, Note_on_c, 1, 61, 40
1, 19728, Note_on_c, 0, 69, 0
1, 19740, Note_on_c, 0, 79, 48
1, 19752, Note_on_c, 1, 61, 0
1, 19788, Note_on_c, 0, 79, 0
1, 19800, Note_on_c, 0, 78, 48
1, 19800, Note_on_c, 1, 62, 40
1, 19836, Note_on_c, 0, 78, 0
1, 19896, Note_on_c, 1, 62, 0
1, 19920, Note_on_c, 0, 78, 59
1, 19920, Note_on_c, 0, 74, 59
1, 19968, Note_on_c, 0, 78, 0
1, 19980, Note_on_c, 0, 81, 64
1, 20016, Note_on_c, 0, 74, 0
1, 20028, Note_on_c, 0, 81, 0
1, 20040, Note_on_c, 0, 79, 69
1, 20040, Note_on_c, 0, 76, 69
1, 20088, Note_on_c, 0, 79, 0
1, 20100, Note_on_c, 0, 83, 75
1, 20136, Note_on_c, 0, 76, 0
1, 20148, Note_on_c, 0, 83, 0
1, 20160, Note_on_c, 0, 78, 80
1, 20160, Note_on_c, 0, 81, 80
1, 20160, Note_on_c, 1, 50, 56
1, 20160, Note_on_c, 1, 62, 56
1, 20256, Note_on_c, 0, 81, 0
1, 20256, Note_on_c, 0, 78, 0
1, 20280, Note_on_c, 1, 62, 0
1, 20280, Note_on_c, 1, 50, 0
1, 20280, Note_on_c, 1, 49, 56
1, 20280, Note_on_c, 1, 61, 56
1, 20352, Note_on_c, 1, 61, 0
1, 20352, Note_on_c, 1, 49, 0
1, 20400, Note_on_c, 1, 52, 56
1, 20400, Note_on_c, 1, 64, 56
1, 20436, Note_on_c, 1, 64, 0
1, 20436, Note_on_c, 1, 52, 0
1, 20520, Note_on_c, 1, 50, 56
1, 20520, Note_on_c, 1, 62, 56
1, 20616, Note_on_c, 1, 62, 0
1, 20616, Note_on_c, 1, 50, 0
1, 20640, Note_on_c, 1, 62, 56
1, 20640, Note_on_c, 1, 59, 56
1, 20688, Note_on_c, 1, 62, 0
1, 20700, Note_on_c, 1, 66, 56
1, 20736, Note_on_c, 1, 59, 0
1, 20748, Note_on_c, 1, 66, 0
1, 20760, Note_on_c, 1, 64, 56
1, 20760, Note_on_c, 1, 61, 56
1, 20808, Note_on_c, 1, 64, 0
1, 20820, Note_on_c, 1, 67, 56
1, 20856, Note_on_c, 1, 61, 0
1, 20868, Note_on_c, 1, 67, 0
1, 20880, Note_on_c, 0, 71, 80
1, 20880, Note_on_c, 0, 83, 80
1, 20880, Note_on_c, 1, 62, 56
1, 20880, Note_on_c, 1, 66, 56
1, 20976, Note_on_c, 1, 66, 0
1, 20976, Note_on_c, 1, 62, 0
1, 21000, Note_on_c, 0, 83, 0
1, 21000, Note_on_c, 0, 71, 0
1, 21000, Note_on_c, 0, 70, 80
1, 21000, Note_on_c, 0, 82, 80
1, 21072, Note_on_c, 0, 82, 0
1, 21072, Note_on_c, 0, 70, 0
1, 21120, Note_on_c, 0, 73, 80
1, 21120, Note_on_c, 0, 85, 80
1, 21156, Note_on_c, 0, 85, 0
1, 21156, Note_on_c, 0, 73, 0
1, 21240, Note_on_c, 0, 71, 80
1, 21240, Note_on_c, 0, 83, 80
1, 21336, Note_on_c, 0, 83, 0
1, 21336, Note_on_c, 0, 71, 0
1, 21360, Note_on_c, 0, 67, 80
1, 21360, Note_on_c, 0, 71, 80
1, 21408, Note_on_c, 0, 71, 0
1, 21420, Note_on_c, 0, 74, 80
1, 21456, Note_on_c, 0, 67, 0
1, 21468, Note_on_c, 0, 74, 0
1, 21480, Note_on_c, 0, 69, 80
1, 21480, Note_on_c, 0, 72, 80
1, 21528, Note_on_c, 0, 72, 0
1, 21540, Note_on_c, 0, 76, 80
1, 21576, Note_on_c, 0, 69, 0
1, 21588, Note_on_c, 0, 76, 0
1, 21600, Note_on_c, 0, 71, 80
1, 21600, Note_on_c, 0, 74, 80
1, 21600, Note_on_c, 1, 43, 56
1, 21600, Note_on_c, 1, 55, 56
1, 21696, Note_on_c, 0, 74, 0
1, 21696, Note_on_c, 0, 71, 0
1, 21720, Note_on_c, 1, 55, 0
1, 21720, Note_on_c, 1, 43, 0
1, 21720, Note_on_c, 1, 42, 56
1, 21720, Note_on_c, 1, 54, 56
1, 21792, Note_on_c, 1, 54, 0
1, 21792, Note_on_c, 1, 42, 0
1, 21840, Note_on_c, 1, 45, 56
1, 21840, Note_on_c, 1, 57, 56
1, 21876, Note_on_c, 1, 57, 0
1, 21876, Note_on_c, 1, 45, 0
1, 21960, Note_on_c, 1, 43, 56
1, 21960, Note_on_c, 1, 55, 56
1, 22056, Note_on_c, 1, 55, 0
1, 22056, Note_on_c, 1, 43, 0
1, 22080, Note_on_c, 1, 52, 56
1, 22080, Note_on_c, 1, 55, 56
1, 22128, Note_on_c, 1, 55, 0
1, 22140, Note_on_c, 1, 59, 56
1, 22176, Note_on_c, 1, 52, 0
1, 22188, Note_on_c, 1, 59, 0
1, 22200, Note_on_c, 1, 54, 56
1, 22200, Note_on_c, 1, 57, 56
1, 22248, Note_on_c, 1, 57, 0
1, 22260, Note_on_c, 1, 60, 56
1, 22296, Note_on_c, 1, 54, 0
1, 22308, Note_on_c, 1, 60, 0
1, 22320, Note_on_c, 0, 64, 80
1, 22320, Note_on_c, 0, 76, 80
1, 22320, Note_on_c, 1, 55, 56
1, 22320, Note_on_c, 1, 59, 56
1, 22416, Note_on_c, 1, 59, 0
1, 22416, Note_on_c, 1, 55, 0
1, 22440, Note_on_c, 0, 76, 0
1, 22440, Note_on_c, 0, 64, 0
1, 22440, Note_on_c, 0, 75, 80
1, 22440, Note_on_c, 0, 63, 80
1, 22512, Note_on_c, 0, 63, 0
1, 22512, Note_on_c, 0, 75, 0
1, 22560, Note_on_c, 0, 66, 80
1, 22560, Note_on_c, 0, 78, 80
1, 22596, Note_on_c, 0, 78, 0
1, 22596, Note_on_c, 0, 66, 0
1, 22680, Note_on_c, 0, 64, 80
1, 22680, Note_on_c, 0, 76, 80
1, 22716, Note_on_c, 0, 76, 0
1, 22716, Note_on_c, 0, 64, 0
1, 22800, Note_on_c, 0, 76, 40
1, 22848, Note_on_c, 0, 76, 0
1, 22860, Note_on_c, 0, 75, 40
1, 22908, Note_on_c, 0, 75, 0
1, 22920, Note_on_c, 0, 78, 40
1, 22968, Note_on_c, 0, 78, 0
1, 22980, Note_on_c, 0, 76, 40
1, 23028, Note_on_c, 0, 76, 0
1, 23040, Note_on_c, 0, 79, 40
1, 23088, Note_on_c, 0, 79, 0
1, 23100, Note_on_c, 0, 76, 40
1, 23148, Note_on_c, 0, 76, 0
1, 23160, Note_on_c, 0, 73, 40
1, 23208, Note_on_c, 0, 73, 0
1, 23220, Note_on_c, 0, 70, 40
1, 23268, Note_on_c, 0, 70, 0
1, 23280, Note_on_c, 0, 69, 80
1, 23280, Note_on_c, 1, 61, 80
1, 23280, Note_on_c, 1, 64, 80
1, 23280, Note_on_c, 1, 67, 80
1, 23316, Note_on_c, 0, 69, 0
1, 23316, Note_on_c, 1, 67, 0
1, 23316, Note_on_c, 1, 64, 0
1, 23316, Note_on_c, 1, 61, 0
1, 23400, Note_on_c, 0, 79, 40
1, 23448, Note_on_c, 0, 79, 0
1, 23460, Note_on_c, 0, 76, 40
1, 23508, Note_on_c, 0, 76, 0
1, 23520, Note_on_c, 0, 73, 40
1, 23568, Note_on_c, 0, 73, 0
1, 23580, Note_on_c, 0, 70, 40
1, 23628, Note_on_c, 0, 70, 0
1, 23640, Note_on_c, 0, 69, 72
1, 23640, Note_on_c, 1, 61, 72
1, 23640, Note_on_c, 1, 64, 72
1, 23640, Note_on_c, 1, 67, 72
1, 23676, Note_on_c, 0, 69, 0
1, 23676, Note_on_c, 1, 67, 0
1, 23676, Note_on_c, 1, 64, 0
1, 23676, Note_on_c, 1, 61, 0
1, 23760, Note_on_c, 0, 79, 40
1, 23808, Note_on_c, 0, 79, 0
1, 23820, Note_on_c, 0, 76, 40
1, 23868, Note_on_c, 0, 76, 0
1, 23880, Note_on_c, 0, 73, 40
1, 23928, Note_on_c, 0, 73, 0
1, 23940, Note_on_c, 0, 70, 40
1, 23988, Note_on_c, 0, 70, 0
1, 24000, Note_on_c, 0, 69, 64
1, 24000, Note_on_c, 1, 61, 64
1, 24000, Note_on_c, 1, 64, 64
1, 24000, Note_on_c, 1, 67, 64
1, 24036, Note_on_c, 0, 69, 0
1, 24036, Note_on_c, 1, 67, 0
1, 24036, Note_on_c, 1, 64, 0
1, 24036, Note_on_c, 1, 61, 0
1, 24120, Note_on_c, 0, 79, 40
1, 24168, Note_on_c, 0, 79, 0
1, 24180, Note_on_c, 0, 76, 40
1, 24228, Note_on_c, 0, 76, 0
1, 24240, Note_on_c, 0, 73, 40
1, 24288, Note_on_c, 0, 73, 0
1, 24300, Note_on_c, 0, 70, 40
1, 24348, Note_on_c, 0, 70, 0
1, 24360, Note_on_c, 0, 69, 56
1, 24360, Note_on_c, 1, 67, 56
1, 24360, Note_on_c, 1, 64, 56
1, 24360, Note_on_c, 1, 61, 56
1, 24396, Note_on_c, 0, 69, 0
1, 24396, Note_on_c, 1, 61, 0
1, 24396, Note_on_c, 1, 64, 0
1, 24396, Note_on_c, 1, 67, 0
1, 24480, Note_on_c, 1, 50, 40
1, 24528, Note_on_c, 1, 50, 0
1, 24540, Note_on_c, 1, 54, 40
1, 24588, Note_on_c, 1, 54, 0
1, 24600, Note_on_c, 1, 57, 40
1, 24648, Note_on_c, 1, 57, 0
1, 24660, Note_on_c, 1, 62, 40
1, 24708, Note_on_c, 1, 62, 0
1, 24720, Note_on_c, 0, 81, 80
1, 24720, Note_on_c, 0, 78, 80
1, 24720, Note_on_c, 0, 74, 80
1, 24720, Note_on_c, 1, 66, 80
1, 24756, Note_on_c, 0, 74, 0
1, 24756, Note_on_c, 0, 78, 0
1, 24756, Note_on_c, 0, 81, 0
1, 24756, Note_on_c, 1, 66, 0
1, 24840, Note_on_c, 1, 43, 40
1, 24888, Note_on_c, 1, 43, 0
1, 24900, Note_on_c, 1, 47, 40
1, 24948, Note_on_c, 1, 47, 0
1, 24960, Note_on_c, 1, 50, 40
1, 25008, Note_on_c, 1, 50, 0
1, 25020, Note_on_c, 1, 55, 40
1, 25068, Note_on_c, 1, 55, 0
1, 25080, Note_on_c, 0, 86, 80
1, 25080, Note_on_c, 0, 79, 80
1, 25080, Note_on_c, 0, 74, 80
1, 25080, Note_on_c, 1, 59, 80
1, 25116, Note_on_c, 0, 74, 0
1, 25116, Note_on_c, 0, 79, 0
1, 25116, Note_on_c, 0, 86, 0
1, 25116, Note_on_c, 1, 59, 0
1, 25200, Note_on_c, 0, 69, 80
1, 25200, Note_on_c, 1, 57, 56
1, 25248, Note_on_c, 1, 57, 0
1, 25260, Note_on_c, 1, 66, 56
1, 25308, Note_on_c, 1, 66, 0
1, 25320, Note_on_c, 1, 62, 56
1, 25368, Note_on_c, 1, 62, 0
1, 25380, Note_on_c, 1, 66, 56
1, 25428, Note_on_c, 1, 66, 0
1, 25440, Note_on_c, 1, 57, 56
1, 25488, Note_on_c, 0, 69, 0
1, 25488, Note_on_c, 1, 57, 0
1, 25500, Note_on_c, 0, 78, 80
1, 25500, Note_on_c, 1, 66, 56
1, 25548, Note_on_c, 0, 78, 0
1, 25548, Note_on_c, 1, 66, 0
1, 25560, Note_on_c, 0, 76, 64
1, 25560, Note_on_c, 1, 57, 64
1, 25569, Note_on_c, 0, 76, 0
1, 25590, Note_on_c, 0, 78, 62
1, 25599, Note_on_c, 0, 78, 0
1, 25608, Note_on_c, 1, 57, 0
1, 25620, Note_on_c, 0, 76, 60
1, 25620, Note_on_c, 1, 67, 60
1, 25629, Note_on_c, 0, 76, 0
1, 25650, Note_on_c, 0, 78, 58
1, 25659, Note_on_c, 0, 78, 0
1, 25668, Note_on_c, 1, 67, 0
1, 25680, Note_on_c, 0, 76, 56
1, 25680, Note_on_c, 1, 61, 56
1, 25689, Note_on_c, 0, 76, 0
1, 25710, Note_on_c, 0, 78, 54
1, 25719, Note_on_c, 0, 78, 0
1, 25728, Note_on_c, 1, 61, 0
1, 25740, Note_on_c, 0, 76, 52
1, 25740, Note_on_c, 1, 67, 52
1, 25749, Note_on_c, 0, 76, 0
1, 25770, Note_on_c, 0, 78, 50
1, 25779, Note_on_c, 0, 78, 0
1, 25788, Note_on_c, 1, 67, 0
1, 25800, Note_on_c, 0, 76, 48
1, 25800, Note_on_c, 1, 57, 48
1, 25806, Note_on_c, 0, 76, 0
1, 25820, Note_on_c, 0, 78, 47
1, 25826, Note_on_c, 0, 78, 0
1, 25840, Note_on_c, 0, 76, 45
1, 25846, Note_on_c, 0, 76, 0
1, 25848, Note_on_c, 1, 57, 0
1, 25860, Note_on_c, 0, 74, 44
1, 25860, Note_on_c, 1, 67, 44
1, 25869, Note_on_c, 0, 74, 0
1, 25890, Note_on_c, 0, 76, 42
1, 25899, Note_on_c, 0, 76, 0
1, 25908, Note_on_c, 1, 67, 0
1, 25920, Note_on_c, 0, 74, 56
1, 25920, Note_on_c, 1, 62, 56
1, 25920, Note_on_c, 1, 66, 56
1, 25956, Note_on_c, 0, 74, 0
1, 25956, Note_on_c, 1, 66, 0
1, 25956, Note_on_c, 1, 62, 0
1, 26160, Note_on_c, 0, 81, 40
1, 26196, Note_on_c, 0, 81, 0
1, 26280, Note_on_c, 0, 79, 40
1, 26400, Note_on_c, 0, 79, 0
1, 26400, Note_on_c, 0, 78, 40
1, 26436, Note_on_c, 0, 78, 0
1, 26520, Note_on_c, 0, 78, 40
1, 26520, Note_on_c, 1, 58, 40
1, 26520, Note_on_c, 1, 64, 40
1, 26556, Note_on_c, 0, 78, 0
1, 26556, Note_on_c, 1, 64, 0
1, 26556, Note_on_c, 1, 58, 0
1, 26640, Note_on_c, 0, 78, 40
1, 26640, Note_on_c, 1, 59, 40
1, 26640, Note_on_c, 1, 62, 40
1, 26676, Note_on_c, 0, 78, 0
1, 26676, Note_on_c, 1, 62, 0
1, 26676, Note_on_c, 1, 59, 0
1, 26880, Note_on_c, 0, 78, 40
1, 26916, Note_on_c, 0, 78, 0
1, 27000, Note_on_c, 0, 84, 40
1, 27096, Note_on_c, 0, 84, 0
1, 27120, Note_on_c, 0, 83, 40
1, 27156, Note_on_c, 0, 83, 0
1, 27240, Note_on_c, 0, 83, 40
1, 27240, Note_on_c, 1, 63, 40
1, 27240, Note_on_c, 1, 69, 40
1, 27276, Note_on_c, 0, 83, 0
1, 27276, Note_on_c, 1, 69, 0
1, 27276, Note_on_c, 1, 63, 0
1, 27360, Note_on_c, 0, 83, 40
1, 27480, Note_on_c, 1, 62, 40
1, 27480, Note_on_c, 1, 68, 40
1, 27516, Note_on_c, 1, 68, 0
1, 27516, Note_on_c, 1, 62, 0
1, 27600, Note_on_c, 0, 83, 0
1, 27600, Note_on_c, 0, 76, 40
1, 27600, Note_on_c, 1, 61, 40
1, 27600, Note_on_c, 1, 67, 40
1, 27636, Note_on_c, 0, 76, 0
1, 27636, Note_on_c, 1, 67, 0
1, 27636, Note_on_c, 1, 61, 0
1, 27720, Note_on_c, 0, 81, 40
1, 27840, Note_on_c, 1, 60, 40
1, 27840, Note_on_c, 1, 66, 40
1, 27876, Note_on_c, 1, 66, 0
1, 27876, Note_on_c, 1, 60, 0
1, 27912, Note_on_c, 0, 81, 0
1, 27960, Note_on_c, 0, 74, 40
1, 27960, Note_on_c, 1, 59, 40
1, 27960, Note_on_c, 1, 67, 40
1, 27996, Note_on_c, 0, 74, 0
1, 27996, Note_on_c, 1, 67, 0
1, 27996, Note_on_c, 1, 59, 0
1, 28080, Note_on_c, 0, 79, 40
1, 28080, Note_on_c, 1, 57, 40
1, 28080, Note_on_c, 1, 61, 40
1, 28116, Note_on_c, 0, 79, 0
1, 28116, Note_on_c, 1, 61, 0
1, 28116, Note_on_c, 1, 57, 0
1, 28320, Note_on_c, 0, 78, 40
1, 28320, Note_on_c, 1, 62, 40
1, 28320, Note_on_c, 1, 59, 40
1, 28356, Note_on_c, 1, 59, 0
1, 28356, Note_on_c, 1, 62, 0
1, 28392, Note_on_c, 0, 78, 0
1, 28410, Note_on_c, 0, 78, 40
1, 28439, Note_on_c, 0, 78, 0
1, 28440, Note_on_c, 0, 76, 40
1, 28440, Note_on_c, 1, 55, 40
1, 28440, Note_on_c, 1, 62, 40
1, 28449, Note_on_c, 0, 76, 0
1, 28470, Note_on_c, 0, 78, 40
1, 28479, Note_on_c, 0, 78, 0
1, 28500, Note_on_c, 0, 76, 40
1, 28509, Note_on_c, 0, 76, 0
1, 28530, Note_on_c, 0, 78, 40
1, 28536, Note_on_c, 1, 55, 0
1, 28539, Note_on_c, 0, 78, 0
1, 28560, Note_on_c, 0, 76, 40
1, 28560, Note_on_c, 1, 52, 40
1, 28569, Note_on_c, 0, 76, 0
1, 28590, Note_on_c, 0, 78, 40
1, 28596, Note_on_c, 1, 52, 0
1, 28596, Note_on_c, 1, 62, 0
1, 28599, Note_on_c, 0, 78, 0
1, 28620, Note_on_c, 0, 76, 40
1, 28629, Note_on_c, 0, 76, 0
1, 28650, Note_on_c, 0, 78, 40
1, 28659, Note_on_c, 0, 78, 0
1, 28680, Note_on_c, 0, 76, 40
1, 28680, Note_on_c, 1, 57, 40
1, 28680, Note_on_c, 1, 61, 40
1, 28686, Note_on_c, 0, 76, 0
1, 28700, Note_on_c, 0, 78, 40
1, 28706, Note_on_c, 0, 78, 0
1, 28716, Note_on_c, 1, 61, 0
1, 28716, Note_on_c, 1, 57, 0
1, 28720, Note_on_c, 0, 76, 40
1, 28726, Note_on_c, 0, 76, 0
1, 28740, Note_on_c, 0, 74, 40
1, 28749, Note_on_c, 0, 74, 0
1, 28770, Note_on_c, 0, 76, 40
1, 28779, Note_on_c, 0, 76, 0
1, 28800, Note_on_c, 0, 74, 40
1, 28800, Note_on_c, 1, 62, 40
1, 28836, Note_on_c, 1, 62, 0
1, 28896, Note_on_c, 0, 74, 0
1, 28920, Note_on_c, 1, 50, 40
1, 28956, Note_on_c, 1, 50, 0
1, 29040, Note_on_c, 1, 69, 40
1, 29076, Note_on_c, 1, 69, 0
1, 29160, Note_on_c, 1, 67, 48
1, 29280, Note_on_c, 1, 67, 0
1, 29280, Note_on_c, 1, 66, 48
1, 29304, Note_on_c, 1, 66, 0
1, 29400, Note_on_c, 0, 71, 48
1, 29400, Note_on_c, 0, 77, 48
1, 29400, Note_on_c, 1, 66, 48
1, 29448, Note_on_c, 1, 66, 0
1, 29484, Note_on_c, 0, 77, 0
1, 29484, Note_on_c, 0, 71, 0
1, 29520, Note_on_c, 0, 70, 48
1, 29520, Note_on_c, 0, 78, 48
1, 29520, Note_on_c, 1, 66, 48
1, 29544, Note_on_c, 0, 78, 0
1, 29544, Note_on_c, 0, 70, 0
1, 29544, Note_on_c, 1, 66, 0
1, 29760, Note_on_c, 1, 66, 48
1, 29796, Note_on_c, 1, 66, 0
1, 29880, Note_on_c, 1, 72, 48
1, 30000, Note_on_c, 1, 72, 0
1, 30000, Note_on_c, 1, 71, 48
1, 30024, Note_on_c, 1, 71, 0
1, 30120, Note_on_c, 0, 76, 48
1, 30120, Note_on_c, 0, 82, 48
1, 30120, Note_on_c, 1, 71, 48
1, 30144, Note_on_c, 0, 82, 0
1, 30144, Note_on_c, 0, 76, 0
1, 30144, Note_on_c, 1, 71, 0
1, 30240, Note_on_c, 1, 71, 48
1, 30360, Note_on_c, 0, 75, 48
1, 30360, Note_on_c, 0, 81, 48
1, 30444, Note_on_c, 0, 81, 0
1, 30444, Note_on_c, 0, 75, 0
1, 30480, Note_on_c, 0, 74, 48
1, 30480, Note_on_c, 0, 80, 48
1, 30480, Note_on_c, 1, 71, 0
1, 30480, Note_on_c, 1, 64, 48
1, 30504, Note_on_c, 0, 80, 0
1, 30504, Note_on_c, 0, 74, 0
1, 30504, Note_on_c, 1, 64, 0
1, 30600, Note_on_c, 1, 69, 48
1, 30720, Note_on_c, 0, 73, 48
1, 30720, Note_on_c, 0, 79, 48
1, 30768, Note_on_c, 0, 79, 0
1, 30768, Note_on_c, 0, 73, 0
1, 30840, Note_on_c, 0, 74, 48
1, 30840, Note_on_c, 0, 78, 48
1, 30840, Note_on_c, 1, 69, 0
1, 30840, Note_on_c, 1, 62, 48
1, 30864, Note_on_c, 1, 62, 0
1, 30888, Note_on_c, 0, 78, 0
1, 30888, Note_on_c, 0, 74, 0
1, 30960, Note_on_c, 0, 83, 48
1, 30960, Note_on_c, 0, 74, 48
1, 30960, Note_on_c, 1, 67, 48
1, 31008, Note_on_c, 0, 74, 0
1, 31008, Note_on_c, 0, 83, 0
1, 31008, Note_on_c, 1, 67, 0
1, 31320, Note_on_c, 0, 73, 32
1, 31320, Note_on_c, 0, 79, 32
1, 31320, Note_on_c, 1, 69, 32
1, 31368, Note_on_c, 0, 79, 0
1, 31368, Note_on_c, 0, 73, 0
1, 31368, Note_on_c, 1, 69, 0
1, 31680, Note_on_c, 0, 66, 48
1, 31740, Note_on_c, 0, 66, 0
1, 31740, Note_on_c, 0, 69, 48
1, 31800, Note_on_c, 0, 69, 0
1, 31800, Note_on_c, 0, 74, 48
1, 31860, Note_on_c, 0, 74, 0
1, 31860, Note_on_c, 0, 78, 48
1, 31920, Note_on_c, 0, 78, 0
1, 31920, Note_on_c, 0, 81, 80
1, 31920, Note_on_c, 1, 62, 80
1, 31920, Note_on_c, 1, 57, 80
1, 31920, Note_on_c, 1, 54, 80
1, 31968, Note_on_c, 0, 81, 0
1, 31968, Note_on_c, 1, 54, 0
1, 31968, Note_on_c, 1, 57, 0
1, 31968, Note_on_c, 1, 62, 0
1, 32040, Note_on_c, 0, 67, 48
1, 32100, Note_on_c, 0, 67, 0
1, 32100, Note_on_c, 0, 71, 48
1, 32160, Note_on_c, 0, 71, 0
1, 32160, Note_on_c, 0, 74, 48
1, 32220, Note_on_c, 0, 74, 0
1, 32220, Note_on_c, 0, 79, 48
1, 32280, Note_on_c, 0, 79, 0
1, 32280, Note_on_c, 0, 83, 80
1, 32280, Note_on_c, 1, 62, 80
1, 32280, Note_on_c, 1, 59, 80
1, 32280, Note_on_c, 1, 55, 80
1, 32328, Note_on_c, 0, 83, 0
1, 32328, Note_on_c, 1, 55, 0
1, 32328, Note_on_c, 1, 59, 0
1, 32328, Note_on_c, 1, 62, 0
1, 32400, Note_on_c, 1, 50, 56
1, 32448, Note_on_c, 1, 50, 0
1, 32460, Note_on_c, 1, 54, 56
1, 32508, Note_on_c, 1, 54, 0
1, 32520, Note_on_c, 1, 57, 56
1, 32568, Note_on_c, 1, 57, 0
1, 32580, Note_on_c, 1, 62, 56
1, 32628, Note_on_c, 1, 62, 0
1, 32640, Note_on_c, 0, 86, 80
1, 32640, Note_on_c, 0, 81, 80
1, 32640, Note_on_c, 0, 74, 80
1, 32640, Note_on_c, 1, 66, 56
1, 32724, Note_on_c, 0, 74, 0
1, 32724, Note_on_c, 0, 81, 0
1, 32724, Note_on_c, 0, 86, 0
1, 32724, Note_on_c, 1, 66, 0
1, 32760, Note_on_c, 1, 43, 56
1, 32808, Note_on_c, 1, 43, 0
1, 32820, Note_on_c, 1, 47, 56
1, 32868, Note_on_c, 1, 47, 0
1, 32880, Note_on_c, 1, 50, 56
1, 32928, Note_on_c, 1, 50, 0
1, 32940, Note_on_c, 1, 55, 56
1, 32988, Note_on_c, 1, 55, 0
1, 33000, Note_on_c, 0, 86, 80
1, 33000, Note_on_c, 0, 79, 80
1, 33000, Note_on_c, 0, 74, 80
1, 33000, Note_on_c, 1, 59, 56
1, 33084, Note_on_c, 0, 74, 0
1, 33084, Note_on_c, 0, 79, 0
1, 33084, Note_on_c, 0, 86, 0
1, 33084, Note_on_c, 1, 59, 0
1, 33120, Note_on_c, 0, 78, 72
1, 33120, Note_on_c, 1, 45, 80
1, 33120, Note_on_c, 1, 57, 80
1, 33180, Note_on_c, 0, 78, 0
1, 33180, Note_on_c, 0, 86, 72
1, 33240, Note_on_c, 0, 86, 0
1, 33240, Note_on_c, 0, 78, 72
1, 33300, Note_on_c, 0, 78, 0
1, 33300, Note_on_c, 0, 86, 72
1, 33312, Note_on_c, 1, 57, 0
1, 33312, Note_on_c, 1, 45, 0
1, 33360, Note_on_c, 0, 86, 0
1, 33360, Note_on_c, 0, 78, 72
1, 33360, Note_on_c, 1, 50, 80
1, 33360, Note_on_c, 1, 62, 80
1, 33396, Note_on_c, 1, 62, 0
1, 33396, Note_on_c, 1, 50, 0
1, 33420, Note_on_c, 0, 78, 0
1, 33420, Note_on_c, 0, 86, 72
1, 33480, Note_on_c, 0, 86, 0
1, 33480, Note_on_c, 0, 78, 72
1, 33480, Note_on_c, 1, 54, 80
1, 33480, Note_on_c, 1, 66, 80
1, 33540, Note_on_c, 0, 78, 0
1, 33540, Note_on_c, 0, 86, 72
1, 33600, Note_on_c, 0, 86, 0
1, 33600, Note_on_c, 0, 78, 72
1, 33660, Note_on_c, 0, 78, 0
1, 33660, Note_on_c, 0, 86, 72
1, 33672, Note_on_c, 1, 66, 0
1, 33672, Note_on_c, 1, 54, 0
1, 33720, Note_on_c, 0, 86, 0
1, 33720, Note_on_c, 0, 78, 72
1, 33720, Note_on_c, 1, 57, 80
1, 33720, Note_on_c, 1, 69, 80
1, 33756, Note_on_c, 1, 69, 0
1, 33756, Note_on_c, 1, 57, 0
1, 33780, Note_on_c, 0, 78, 0
1, 33780, Note_on_c, 0, 86, 72
1, 33840, Note_on_c, 0, 86, 0
1, 33840, Note_on_c, 0, 76, 72
1, 33840, Note_on_c, 1, 55, 80
1, 33840, Note_on_c, 1, 67, 80
1, 33900, Note_on_c, 0, 76, 0
1, 33900, Note_on_c, 0, 85, 72
1, 33900, Note_on_c, 1, 67, 0
1, 33900, Note_on_c, 1, 55, 0
1, 33960, Note_on_c, 0, 85, 0
1, 33960, Note_on_c, 0, 76, 72
1, 33960, Note_on_c, 1, 55, 80
1, 33960, Note_on_c, 1, 67, 80
1, 34020, Note_on_c, 0, 76, 0
1, 34020, Note_on_c, 0, 85, 72
1, 34020, Note_on_c, 1, 67, 0
1, 34020, Note_on_c, 1, 55, 0
1, 34080, Note_on_c, 0, 85, 0
1, 34080, Note_on_c, 0, 76, 72
1, 34080, Note_on_c, 1, 52, 80
1, 34080, Note_on_c, 1, 64, 80
1, 34140, Note_on_c, 0, 76, 0
1, 34140, Note_on_c, 0, 85, 72
1, 34140, Note_on_c, 1, 64, 0
1, 34140, Note_on_c, 1, 52, 0
1, 34200, Note_on_c, 0, 85, 0
1, 34200, Note_on_c, 0, 76, 72
1, 34200, Note_on_c, 1, 49, 80
1, 34200, Note_on_c, 1, 61, 80
1, 34260, Note_on_c, 0, 76, 0
1, 34260, Note_on_c, 0, 85, 72
1, 34260, Note_on_c, 1, 61, 0
1, 34260, Note_on_c, 1, 49, 0
1, 34320, Note_on_c, 0, 85, 0
1, 34320, Note_on_c, 0, 76, 72
1, 34320, Note_on_c, 1, 49, 80
1, 34320, Note_on_c, 1, 61, 80
1, 34356, Note_on_c, 1, 61, 0
1, 34356, Note_on_c, 1, 49, 0
1, 34380, Note_on_c, 0, 76, 0
1, 34380, Note_on_c, 0, 85, 72
1, 34440, Note_on_c, 0, 85, 0
1, 34440, Note_on_c, 0, 76, 72
1, 34440, Note_on_c, 1, 45, 80
1, 34440, Note_on_c, 1, 57, 80
1, 34500, Note_on_c, 0, 76, 0
1, 34500, Note_on_c, 0, 85, 72
1, 34560, Note_on_c, 0, 85, 0
1, 34560, Note_on_c, 0, 78, 80
1, 34560, Note_on_c, 0, 86, 80
1, 34560, Note_on_c, 1, 57, 0
1, 34560, Note_on_c, 1, 45, 0
1, 34560, Note_on_c, 1, 62, 80
1, 34560, Note_on_c, 1, 50, 80
1, 34620, Note_on_c, 0, 86, 0
1, 34620, Note_on_c, 0, 78, 0
1, 34620, Note_on_c, 1, 50, 0
1, 34620, Note_on_c, 1, 62, 0
1, 34800, Note_on_c, 0, 66, 48
1, 34800, Note_on_c, 1, 54, 48
1, 34896, Note_on_c, 0, 66, 0
1, 34896, Note_on_c, 1, 54, 0
1, 34920, Note_on_c, 0, 67, 48
1, 34920, Note_on_c, 1, 55, 48
1, 34956, Note_on_c, 0, 67, 0
1, 34956, Note_on_c, 1, 55, 0
1, 35040, Note_on_c, 0, 68, 56
1, 35040, Note_on_c, 1, 56, 56
1, 35076, Note_on_c, 0, 68, 0
1, 35076, Note_on_c, 1, 56, 0
1, 35160, Note_on_c, 0, 69, 64
1, 35160, Note_on_c, 1, 57, 64
1, 35196, Note_on_c, 0, 69, 0
1, 35196, Note_on_c, 1, 57, 0
1, 35280, Note_on_c, 0, 70, 72
1, 35280, Note_on_c, 1, 58, 72
1, 35316, Note_on_c, 0, 70, 0
1, 35316, Note_on_c, 1, 58, 0
1, 35400, Note_on_c, 0, 71, 64
1, 35400, Note_on_c, 1, 59, 64
1, 35436, Note_on_c, 0, 71, 0
1, 35436, Note_on_c, 1, 59, 0
1, 35520, Note_on_c, 0, 68, 56
1, 35520, Note_on_c, 1, 56, 56
1, 35640, Note_on_c, 0, 68, 0
1, 35640, Note_on_c, 0, 69, 48
1, 35640, Note_on_c, 1, 56, 0
1, 35640, Note_on_c, 1, 57, 48
1, 35676, Note_on_c, 0, 69, 0
1, 35676, Note_on_c, 1, 57, 0
1, 35880, Note_on_c, 0, 69, 40
1, 35880, Note_on_c, 1, 57, 40
1, 35916, Note_on_c, 0, 69, 0
1, 35916, Note_on_c, 1, 57, 0
1, 36000, Note_on_c, 0, 62, 40
1, 36000, Note_on_c, 1, 50, 40
1, 36036, Note_on_c, 0, 62, 0
1, 36036, Note_on_c, 1, 50, 0
1, 36240, Note_on_c, 0, 76, 80
1, 36240, Note_on_c, 0, 81, 80
1, 36240, Note_on_c, 0, 85, 80
1, 36240, Note_on_c, 1, 45, 80
1, 36240, Note_on_c, 1, 57, 80
1, 36276, Note_on_c, 0, 85, 0
1, 36276, Note_on_c, 0, 81, 0
1, 36276, Note_on_c, 0, 76, 0
1, 36276, Note_on_c, 1, 57, 0
1, 36276, Note_on_c, 1, 45, 0
1, 36360, Note_on_c, 0, 74, 80
1, 36360, Note_on_c, 0, 78, 80
1, 36360, Note_on_c, 0, 81, 80
1, 36360, Note_on_c, 0, 86, 80
1, 36360, Note_on_c, 1, 38, 80
1, 36360, Note_on_c, 1, 50, 80
1, 36456, Note_on_c, 0, 86, 0
1, 36456, Note_on_c, 0, 74, 0
1, 36456, Note_on_c, 0, 78, 0
1, 36456, Note_on_c, 0, 81, 0
1, 36456, Note_on_c, 1, 50, 0
1, 36456, Note_on_c, 1, 38, 0
1, 36720, Note_on_c, 1, 57, 40
1, 36720, Note_on_c, 1, 53, 40
1, 36720, Note_on_c, 1, 50, 40
1, 36768, Note_on_c, 1, 50, 0
1, 36768, Note_on_c, 1, 53, 0
1, 36768, Note_on_c, 1, 57, 0
1, 36840, Note_on_c, 0, 62, 56
1, 36888, Note_on_c, 0, 62, 0
1, 36960, Note_on_c, 0, 62, 72
1, 37008, Note_on_c, 0, 62, 0
1, 37080, Note_on_c, 0, 62, 80
1, 37200, Note_on_c, 1, 57, 40
1, 37200, Note_on_c, 1, 53, 40
1, 37200, Note_on_c, 1, 50, 40
1, 37248, Note_on_c, 1, 50, 0
1, 37248, Note_on_c, 1, 53, 0
1, 37248, Note_on_c, 1, 57, 0
1, 37320, Note_on_c, 0, 62, 0
1, 37320, Note_on_c, 0, 65, 64
1, 37320, Note_on_c, 1, 57, 40
1, 37320, Note_on_c, 1, 53, 40
1, 37320, Note_on_c, 1, 50, 40
1, 37368, Note_on_c, 0, 65, 0
1, 37368, Note_on_c, 1, 50, 0
1, 37368, Note_on_c, 1, 53, 0
1, 37368, Note_on_c, 1, 57, 0
1, 37440, Note_on_c, 1, 57, 40
1, 37440, Note_on_c, 1, 53, 40
1, 37440, Note_on_c, 1, 50, 40
1, 37488, Note_on_c, 1, 50, 0
1, 37488, Note_on_c, 1, 53, 0
1, 37488, Note_on_c, 1, 57, 0
1, 37560, Note_on_c, 0, 62, 56
1, 37608, Note_on_c, 0, 62, 0
1, 37680, Note_on_c, 0, 62, 72
1, 37728, Note_on_c, 0, 62, 0
1, 37800, Note_on_c, 0, 62, 80
1, 37920, Note_on_c, 1, 50, 40
1, 37920, Note_on_c, 1, 53, 40
1, 37920, Note_on_c, 1, 57, 40
1, 37968, Note_on_c, 1, 57, 0
1, 37968, Note_on_c, 1, 53, 0
1, 37968, Note_on_c, 1, 50, 0
1, 38040, Note_on_c, 0, 62, 0
1, 38040, Note_on_c, 0, 69, 64
1, 38040, Note_on_c, 1, 50, 40
1, 38040, Note_on_c, 1, 53, 40
1, 38040, Note_on_c, 1, 57, 40
1, 38088, Note_on_c, 0, 69, 0
1, 38088, Note_on_c, 1, 57, 0
1, 38088, Note_on_c, 1, 53, 0
1, 38088, Note_on_c, 1, 50, 0
1, 38160, Note_on_c, 1, 50, 80
1, 38160, Note_on_c, 1, 53, 80
1, 38160, Note_on_c, 1, 56, 80
1, 38160, Note_on_c, 1, 59, 80
1, 38280, Note_on_c, 0, 86, 80
1, 38328, Note_on_c, 0, 86, 0
1, 38340, Note_on_c, 0, 89, 80
1, 38388, Note_on_c, 0, 89, 0
1, 38400, Note_on_c, 0, 83, 80
1, 38448, Note_on_c, 0, 83, 0
1, 38460, Note_on_c, 0, 86, 80
1, 38508, Note_on_c, 0, 86, 0
1, 38520, Note_on_c, 0, 80, 80
1, 38568, Note_on_c, 0, 80, 0
1, 38580, Note_on_c, 0, 83, 79
1, 38628, Note_on_c, 0, 83, 0
1, 38640, Note_on_c, 0, 77, 77
1, 38688, Note_on_c, 0, 77, 0
1, 38700, Note_on_c, 0, 80, 76
1, 38748, Note_on_c, 0, 80, 0
1, 38760, Note_on_c, 0, 74, 75
1, 38808, Note_on_c, 0, 74, 0
1, 38820, Note_on_c, 0, 77, 73
1, 38868, Note_on_c, 0, 77, 0
1, 38880, Note_on_c, 0, 71, 72
1, 38928, Note_on_c, 0, 71, 0
1, 38940, Note_on_c, 0, 74, 71
1, 38988, Note_on_c, 0, 74, 0
1, 39000, Note_on_c, 0, 68, 69
1, 39048, Note_on_c, 0, 68, 0
1, 39060, Note_on_c, 0, 71, 68
1, 39108, Note_on_c, 0, 71, 0
1, 39120, Note_on_c, 0, 65, 67
1, 39168, Note_on_c, 0, 65, 0
1, 39180, Note_on_c, 0, 68, 65
1, 39228, Note_on_c, 0, 68, 0
1, 39240, Note_on_c, 0, 62, 64
1, 39288, Note_on_c, 0, 62, 0
1, 39300, Note_on_c, 0, 65, 63
1, 39348, Note_on_c, 0, 65, 0
1, 39353, Note_on_c, 1, 59, 0
1, 39353, Note_on_c, 1, 50, 0
1, 39353, Note_on_c, 1, 53, 0
1, 39353, Note_on_c, 1, 56, 0
1, 39360, Note_on_c, 0, 59, 61
1, 39408, Note_on_c, 0, 59, 0
1, 39420, Note_on_c, 0, 62, 60
1, 39468, Note_on_c, 0, 62, 0
1, 39480, Note_on_c, 0, 56, 59
1, 39528, Note_on_c, 0, 56, 0
1, 39540, Note_on_c, 0, 59, 57
1, 39588, Note_on_c, 0, 59, 0
1, 39600, Note_on_c, 1, 57, 40
1, 39600, Note_on_c, 1, 52, 40
1, 39600, Note_on_c, 1, 48, 40
1, 39648, Note_on_c, 1, 48, 0
1, 39648, Note_on_c, 1, 52, 0
1, 39648, Note_on_c, 1, 57, 0
1, 39720, Note_on_c, 0, 64, 64
1, 39768, Note_on_c, 0, 64, 0
1, 39840, Note_on_c, 0, 64, 72
1, 39888, Note_on_c, 0, 64, 0
1, 39960, Note_on_c, 0, 64, 80
1, 40080, Note_on_c, 1, 48, 40
1, 40080, Note_on_c, 1, 52, 40
1, 40080, Note_on_c, 1, 57, 40
1, 40128, Note_on_c, 1, 57, 0
1, 40128, Note_on_c, 1, 52, 0
1, 40128, Note_on_c, 1, 48, 0
1, 40200, Note_on_c, 0, 64, 0
1, 40200, Note_on_c, 0, 69, 64
1, 40200, Note_on_c, 1, 48, 40
1, 40200, Note_on_c, 1, 52, 40
1, 40200, Note_on_c, 1, 57, 40
1, 40248, Note_on_c, 0, 69, 0
1, 40248, Note_on_c, 1, 57, 0
1, 40248, Note_on_c, 1, 52, 0
1, 40248, Note_on_c, 1, 48, 0
1, 40320, Note_on_c, 1, 57, 40
1, 40320, Note_on_c, 1, 52, 40
1, 40320, Note_on_c, 1, 48, 40
1, 40368, Note_on_c, 1, 48, 0
1, 40368, Note_on_c, 1, 52, 0
1, 40368, Note_on_c, 1, 57, 0
1, 40440, Note_on_c, 0, 69, 64
1, 40488, Note_on_c, 0, 69, 0
1, 40560, Note_on_c, 0, 69, 72
1, 40608, Note_on_c, 0, 69, 0
1, 40680, Note_on_c, 0, 69, 80
1, 40800, Note_on_c, 1, 57, 40
1, 40800, Note_on_c, 1, 52, 40
1, 40800, Note_on_c, 1, 48, 40
1, 40848, Note_on_c, 1, 48, 0
1, 40848, Note_on_c, 1, 52, 0
1, 40848, Note_on_c, 1, 57, 0
1, 40920, Note_on_c, 0, 69, 0
1, 40920, Note_on_c, 0, 76, 64
1, 40920, Note_on_c, 1, 57, 40
1, 40920, Note_on_c, 1, 52, 40
1, 40920, Note_on_c, 1, 48, 40
1, 40968, Note_on_c, 0, 76, 0
1, 40968, Note_on_c, 1, 48, 0
1, 40968, Note_on_c, 1, 52, 0
1, 40968, Note_on_c, 1, 57, 0
1, 41040, Note_on_c, 1, 60, 80
1, 41040, Note_on_c, 1, 57, 80
1, 41040, Note_on_c, 1, 54, 80
1, 41040, Note_on_c, 1, 51, 80
1, 41136, Note_on_c, 1, 51, 0
1, 41136, Note_on_c, 1, 60, 0
1, 41136, Note_on_c, 1, 57, 0
1, 41136, Note_on_c, 1, 54, 0
1, 41160, Note_on_c, 0, 81, 80
1, 41196, Note_on_c, 0, 81, 0
1, 41220, Note_on_c, 0, 84, 80
1, 41256, Note_on_c, 0, 84, 0
1, 41280, Note_on_c, 0, 78, 80
1, 41316, Note_on_c, 0, 78, 0
1, 41340, Note_on_c, 0, 81, 80
1, 41376, Note_on_c, 0, 81, 0
1, 41400, Note_on_c, 0, 75, 80
1, 41436, Note_on_c, 0, 75, 0
1, 41460, Note_on_c, 0, 78, 80
1, 41496, Note_on_c, 0, 78, 0
1, 41520, Note_on_c, 0, 72, 80
1, 41556, Note_on_c, 0, 72, 0
1, 41580, Note_on_c, 0, 75, 80
1, 41616, Note_on_c, 0, 75, 0
1, 41640, Note_on_c, 0, 69, 80
1, 41676, Note_on_c, 0, 69, 0
1, 41700, Note_on_c, 0, 72, 80
1, 41736, Note_on_c, 0, 72, 0
1, 41760, Note_on_c, 1, 52, 80
1, 41790, Note_on_c, 1, 55, 80
1, 41820, Note_on_c, 1, 59, 80
1, 41874, Note_on_c, 1, 59, 0
1, 41874, Note_on_c, 1, 55, 0
1, 41874, Note_on_c, 1, 52, 0
1, 41880, Note_on_c, 0, 79, 80
1, 41928, Note_on_c, 0, 79, 0
1, 41940, Note_on_c, 0, 83, 80
1, 41988, Note_on_c, 0, 83, 0
1, 42000, Note_on_c, 0, 76, 80
1, 42048, Note_on_c, 0, 76, 0
1, 42060, Note_on_c, 0, 79, 80
1, 42108, Note_on_c, 0, 79, 0
1, 42120, Note_on_c, 0, 71, 80
1, 42168, Note_on_c, 0, 71, 0
1, 42180, Note_on_c, 0, 76, 80
1, 42228, Note_on_c, 0, 76, 0
1, 42240, Note_on_c, 0, 67, 80
1, 42288, Note_on_c, 0, 67, 0
1, 42300, Note_on_c, 0, 71, 80
1, 42348, Note_on_c, 0, 71, 0
1, 42360, Note_on_c, 0, 64, 80
1, 42408, Note_on_c, 0, 64, 0
1, 42420, Note_on_c, 0, 67, 80
1, 42468, Note_on_c, 0, 67, 0
1, 42480, Note_on_c, 1, 48, 80
1, 42480, Note_on_c, 1, 52, 80
1, 42480, Note_on_c, 1, 55, 80
1, 42480, Note_on_c, 1, 58, 80
1, 42600, Note_on_c, 0, 82, 80
1, 42660, Note_on_c, 0, 82, 0
1, 42660, Note_on_c, 0, 88, 80
1, 42720, Note_on_c, 0, 88, 0
1, 42720, Note_on_c, 0, 79, 80
1, 42780, Note_on_c, 0, 79, 0
1, 42780, Note_on_c, 0, 82, 80
1, 42840, Note_on_c, 0, 82, 0
1, 42840, Note_on_c, 0, 76, 80
1, 42900, Note_on_c, 0, 76, 0
1, 42900, Note_on_c, 0, 79, 80
1, 42960, Note_on_c, 0, 79, 0
1, 42960, Note_on_c, 0, 72, 80
1, 43020, Note_on_c, 0, 72, 0
1, 43020, Note_on_c, 0, 76, 80
1, 43080, Note_on_c, 0, 76, 0
1, 43080, Note_on_c, 0, 70, 80
1, 43140, Note_on_c, 0, 70, 0
1, 43140, Note_on_c, 0, 72, 80
1, 43200, Note_on_c, 0, 72, 0
1, 43200, Note_on_c, 0, 67, 80
1, 43260, Note_on_c, 0, 67, 0
1, 43260, Note_on_c, 0, 70, 80
1, 43313, Note_on_c, 1, 58, 0
1, 43313, Note_on_c, 1, 48, 0
1, 43313, Note_on_c, 1, 52, 0
1, 43313, Note_on_c, 1, 55, 0
1, 43320, Note_on_c, 0, 70, 0
1, 43320, Note_on_c, 0, 64, 80
1, 43380, Note_on_c, 0, 64, 0
1, 43380, Note_on_c, 0, 67, 80
1, 43440, Note_on_c, 0, 67, 0
1, 43440, Note_on_c, 0, 60, 80
1, 43500, Note_on_c, 0, 60, 0
1, 43500, Note_on_c, 0, 64, 80
1, 43560, Note_on_c, 0, 64, 0
1, 43560, Note_on_c, 0, 58, 80
1, 43620, Note_on_c, 0, 58, 0
1, 43620, Note_on_c, 0, 67, 80
1, 43680, Note_on_c, 0, 67, 0
1, 43680, Note_on_c, 0, 66, 80
1, 43740, Note_on_c, 0, 66, 0
1, 43740, Note_on_c, 0, 67, 80
1, 43800, Note_on_c, 0, 67, 0
1, 43800, Note_on_c, 0, 66, 80
1, 43860, Note_on_c, 0, 66, 0
1, 43860, Note_on_c, 0, 64, 80
1, 43920, Note_on_c, 0, 64, 0
1, 43920, Note_on_c, 0, 63, 80
1, 43920, Note_on_c, 1, 47, 56
1, 43956, Note_on_c, 0, 63, 0
1, 43968, Note_on_c, 1, 47, 0
1, 43980, Note_on_c, 1, 59, 56
1, 44028, Note_on_c, 1, 59, 0
1, 44040, Note_on_c, 1, 58, 56
1, 44088, Note_on_c, 1, 58, 0
1, 44100, Note_on_c, 1, 59, 56
1, 44148, Note_on_c, 1, 59, 0
1, 44160, Note_on_c, 0, 71, 80
1, 44160, Note_on_c, 0, 63, 80
1, 44160, Note_on_c, 1, 58, 56
1, 44208, Note_on_c, 1, 58, 0
1, 44220, Note_on_c, 1, 59, 56
1, 44268, Note_on_c, 1, 59, 0
1, 44280, Note_on_c, 0, 63, 0
1, 44280, Note_on_c, 0, 71, 0
1, 44280, Note_on_c, 0, 64, 80
1, 44280, Note_on_c, 0, 72, 80
1, 44280, Note_on_c, 1, 47, 56
1, 44316, Note_on_c, 0, 72, 0
1, 44316, Note_on_c, 0, 64, 0
1, 44328, Note_on_c, 1, 47, 0
1, 44340, Note_on_c, 1, 59, 56
1, 44388, Note_on_c, 1, 59, 0
1, 44400, Note_on_c, 1, 58, 56
1, 44448, Note_on_c, 1, 58, 0
1, 44460, Note_on_c, 1, 59, 56
1, 44508, Note_on_c, 1, 59, 0
1, 44520, Note_on_c, 0, 64, 80
1, 44520, Note_on_c, 0, 73, 80
1, 44520, Note_on_c, 1, 58, 56
1, 44568, Note_on_c, 1, 58, 0
1, 44580, Note_on_c, 1, 59, 56
1, 44628, Note_on_c, 1, 59, 0
1, 44640, Note_on_c, 0, 73, 0
1, 44640, Note_on_c, 0, 64, 0
1, 44640, Note_on_c, 0, 66, 80
1, 44640, Note_on_c, 0, 74, 80
1, 44640, Note_on_c, 1, 47, 56
1, 44676, Note_on_c, 0, 74, 0
1, 44676, Note_on_c, 0, 66, 0
1, 44688, Note_on_c, 1, 47, 0
1, 44700, Note_on_c, 1, 59, 56
1, 44748, Note_on_c, 1, 59, 0
1, 44760, Note_on_c, 1, 58, 56
1, 44808, Note_on_c, 1, 58, 0
1, 44820, Note_on_c, 1, 59, 56
1, 44868, Note_on_c, 1, 59, 0
1, 44880, Note_on_c, 0, 66, 80
1, 44880, Note_on_c, 0, 69, 80
1, 44880, Note_on_c, 0, 75, 80
1, 44880, Note_on_c, 1, 58, 56
1, 44928, Note_on_c, 1, 58, 0
1, 44940, Note_on_c, 1, 59, 56
1, 44988, Note_on_c, 1, 59, 0
1, 45000, Note_on_c, 0, 75, 0
1, 45000, Note_on_c, 0, 69, 0
1, 45000, Note_on_c, 0, 66, 0
1, 45000, Note_on_c, 0, 67, 80
1, 45000, Note_on_c, 0, 76, 80
1, 45000, Note_on_c, 1, 47, 56
1, 45036, Note_on_c, 0, 76, 0
1, 45036, Note_on_c, 0, 67, 0
1, 45048, Note_on_c, 1, 47, 0
1, 45060, Note_on_c, 1, 59, 56
1, 45108, Note_on_c, 1, 59, 0
1, 45120, Note_on_c, 1, 58, 56
1, 45168, Note_on_c, 1, 58, 0
1, 45180, Note_on_c, 1, 59, 56
1, 45228, Note_on_c, 1, 59, 0
1, 45240, Note_on_c, 0, 76, 80
1, 45240, Note_on_c, 0, 79, 80
1, 45240, Note_on_c, 1, 58, 56
1, 45288, Note_on_c, 1, 58, 0
1, 45300, Note_on_c, 1, 59, 56
1, 45336, Note_on_c, 0, 79, 0
1, 45336, Note_on_c, 0, 76, 0
1, 45348, Note_on_c, 1, 59, 0
1, 45360, Note_on_c, 0, 75, 48
1, 45360, Note_on_c, 0, 78, 48
1, 45360, Note_on_c, 1, 47, 80
1, 45396, Note_on_c, 1, 47, 0
1, 45408, Note_on_c, 0, 78, 0
1, 45408, Note_on_c, 0, 75, 0
1, 45420, Note_on_c, 0, 83, 48
1, 45468, Note_on_c, 0, 83, 0
1, 45480, Note_on_c, 0, 82, 48
1, 45528, Note_on_c, 0, 82, 0
1, 45540, Note_on_c, 0, 83, 48
1, 45588, Note_on_c, 0, 83, 0
1, 45600, Note_on_c, 0, 71, 48
1, 45600, Note_on_c, 1, 59, 80
1, 45600, Note_on_c, 1, 63, 80
1, 45648, Note_on_c, 0, 71, 0
1, 45660, Note_on_c, 0, 83, 48
1, 45708, Note_on_c, 0, 83, 0
1, 45720, Note_on_c, 0, 72, 48
1, 45720, Note_on_c, 1, 63, 0
1, 45720, Note_on_c, 1, 59, 0
1, 45720, Note_on_c, 1, 59, 80
1, 45720, Note_on_c, 1, 64, 80
1, 45768, Note_on_c, 0, 72, 0
1, 45768, Note_on_c, 1, 64, 0
1, 45768, Note_on_c, 1, 59, 0
1, 45780, Note_on_c, 0, 83, 48
1, 45828, Note_on_c, 0, 83, 0
1, 45840, Note_on_c, 0, 82, 48
1, 45888, Note_on_c, 0, 82, 0
1, 45900, Note_on_c, 0, 83, 48
1, 45948, Note_on_c, 0, 83, 0
1, 45960, Note_on_c, 0, 73, 48
1, 45960, Note_on_c, 1, 59, 80
1, 45960, Note_on_c, 1, 64, 80
1, 46008, Note_on_c, 0, 73, 0
1, 46020, Note_on_c, 0, 83, 48
1, 46068, Note_on_c, 0, 83, 0
1, 46080, Note_on_c, 0, 74, 48
1, 46080, Note_on_c, 1, 64, 0
1, 46080, Note_on_c, 1, 59, 0
1, 46080, Note_on_c, 1, 59, 80
1, 46080, Note_on_c, 1, 66, 80
1, 46128, Note_on_c, 0, 74, 0
1, 46128, Note_on_c, 1, 66, 0
1, 46128, Note_on_c, 1, 59, 0
1, 46140, Note_on_c, 0, 83, 48
1, 46188, Note_on_c, 0, 83, 0
1, 46200, Note_on_c, 0, 82, 48
1, 46248, Note_on_c, 0, 82, 0
1, 46260, Note_on_c, 0, 83, 48
1, 46308, Note_on_c, 0, 83, 0
1, 46320, Note_on_c, 0, 75, 48
1, 46320, Note_on_c, 1, 59, 80
1, 46320, Note_on_c, 1, 66, 80
1, 46368, Note_on_c, 0, 75, 0
1, 46380, Note_on_c, 0, 83, 48
1, 46428, Note_on_c, 0, 83, 0
1, 46440, Note_on_c, 0, 76, 48
1, 46440, Note_on_c, 1, 66, 0
1, 46440, Note_on_c, 1, 59, 0
1, 46440, Note_on_c, 1, 59, 80
1, 46440, Note_on_c, 1, 67, 80
1, 46488, Note_on_c, 0, 76, 0
1, 46488, Note_on_c, 1, 67, 0
1, 46488, Note_on_c, 1, 59, 0
1, 46500, Note_on_c, 0, 83, 48
1, 46548, Note_on_c, 0, 83, 0
1, 46560, Note_on_c, 0, 82, 48
1, 46608, Note_on_c, 0, 82, 0
1, 46620, Note_on_c, 0, 83, 48
1, 46668, Note_on_c, 0, 83, 0
1, 46680, Note_on_c, 0, 79, 48
1, 46680, Note_on_c, 1, 59, 80
1, 46680, Note_on_c, 1, 64, 80
1, 46728, Note_on_c, 0, 79, 0
1, 46740, Note_on_c, 0, 83, 48
1, 46788, Note_on_c, 0, 83, 0
1, 46800, Note_on_c, 0, 78, 48
1, 46800, Note_on_c, 1, 64, 0
1, 46800, Note_on_c, 1, 59, 0
1, 46800, Note_on_c, 1, 59, 80
1, 46800, Note_on_c, 1, 63, 80
1, 46848, Note_on_c, 0, 78, 0
1, 46848, Note_on_c, 1, 63, 0
1, 46848, Note_on_c, 1, 59, 0
1, 46860, Note_on_c, 0, 83, 48
1, 46908, Note_on_c, 0, 83, 0
1, 46920, Note_on_c, 0, 82, 48
1, 46968, Note_on_c, 0, 82, 0
1, 46980, Note_on_c, 0, 83, 48
1, 47028, Note_on_c, 0, 83, 0
1, 47040, Note_on_c, 0, 82, 48
1, 47088, Note_on_c, 0, 82, 0
1, 47100, Note_on_c, 0, 83, 48
1, 47148, Note_on_c, 0, 83, 0
1, 47160, Note_on_c, 0, 84, 48
1, 47208, Note_on_c, 0, 84, 0
1, 47220, Note_on_c, 0, 81, 48
1, 47268, Note_on_c, 0, 81, 0
1, 47280, Note_on_c, 0, 78, 48
1, 47328, Note_on_c, 0, 78, 0
1, 47340, Note_on_c, 0, 76, 48
1, 47388, Note_on_c, 0, 76, 0
1, 47400, Note_on_c, 0, 75, 80
1, 47400, Note_on_c, 1, 72, 80
1, 47400, Note_on_c, 1, 69, 80
1, 47400, Note_on_c, 1, 66, 80
1, 47436, Note_on_c, 0, 75, 0
1, 47436, Note_on_c, 1, 66, 0
1, 47436, Note_on_c, 1, 69, 0
1, 47436, Note_on_c, 1, 72, 0
1, 47520, Note_on_c, 0, 84, 48
1, 47568, Note_on_c, 0, 84, 0
1, 47580, Note_on_c, 0, 81, 48
1, 47628, Note_on_c, 0, 81, 0
1, 47640, Note_on_c, 0, 78, 48
1, 47688, Note_on_c, 0, 78, 0
1, 47700, Note_on_c, 0, 76, 48
1, 47748, Note_on_c, 0, 76, 0
1, 47760, Note_on_c, 0, 75, 80
1, 47760, Note_on_c, 1, 72, 80
1, 47760, Note_on_c, 1, 69, 80
1, 47760, Note_on_c, 1, 66, 80
1, 47796, Note_on_c, 0, 75, 0
1, 47796, Note_on_c, 1, 66, 0
1, 47796, Note_on_c, 1, 69, 0
1, 47796, Note_on_c, 1, 72, 0
1, 47880, Note_on_c, 0, 79, 48
1, 47928, Note_on_c, 0, 79, 0
1, 47940, Note_on_c, 0, 76, 48
1, 47988, Note_on_c, 0, 76, 0
1, 48000, Note_on_c, 0, 72, 48
1, 48048, Note_on_c, 0, 72, 0
1, 48060, Note_on_c, 0, 71, 48
1, 48108, Note_on_c, 0, 71, 0
1, 48120, Note_on_c, 0, 70, 80
1, 48120, Note_on_c, 1, 67, 80
1, 48120, Note_on_c, 1, 64, 80
1, 48120, Note_on_c, 1, 60, 80
1, 48156, Note_on_c, 0, 70, 0
1, 48156, Note_on_c, 1, 60, 0
1, 48156, Note_on_c, 1, 64, 0
1, 48156, Note_on_c, 1, 67, 0
1, 48240, Note_on_c, 0, 79, 48
1, 48288, Note_on_c, 0, 79, 0
1, 48300, Note_on_c, 0, 76, 53
1, 48348, Note_on_c, 0, 76, 0
1, 48360, Note_on_c, 0, 72, 59
1, 48408, Note_on_c, 0, 72, 0
1, 48420, Note_on_c, 0, 71, 64
1, 48468, Note_on_c, 0, 71, 0
1, 48480, Note_on_c, 0, 70, 80
1, 48480, Note_on_c, 1, 67, 80
1, 48480, Note_on_c, 1, 64, 80
1, 48480, Note_on_c, 1, 60, 80
1, 48552, Note_on_c, 0, 70, 0
1, 48552, Note_on_c, 1, 60, 0
1, 48552, Note_on_c, 1, 64, 0
1, 48552, Note_on_c, 1, 67, 0
1, 48600, Note_on_c, 0, 71, 96
1, 48600, Note_on_c, 1, 59, 56
1, 48648, Note_on_c, 1, 59, 0
1, 48660, Note_on_c, 1, 67, 56
1, 48708, Note_on_c, 1, 67, 0
1, 48720, Note_on_c, 1, 64, 56
1, 48768, Note_on_c, 1, 64, 0
1, 48780, Note_on_c, 1, 67, 56
1, 48828, Note_on_c, 1, 67, 0
1, 48840, Note_on_c, 1, 59, 56
1, 48888, Note_on_c, 1, 59, 0
1, 48900, Note_on_c, 1, 67, 56
1, 48912, Note_on_c, 0, 71, 0
1, 48930, Note_on_c, 0, 79, 80
1, 48948, Note_on_c, 1, 67, 0
1, 48954, Note_on_c, 0, 79, 0
1, 48960, Note_on_c, 0, 78, 72
1, 48960, Note_on_c, 1, 59, 64
1, 48972, Note_on_c, 0, 78, 0
1, 48990, Note_on_c, 0, 79, 69
1, 49002, Note_on_c, 0, 79, 0
1, 49008, Note_on_c, 1, 59, 0
1, 49020, Note_on_c, 0, 78, 67
1, 49020, Note_on_c, 1, 69, 60
1, 49032, Note_on_c, 0, 78, 0
1, 49050, Note_on_c, 0, 79, 64
1, 49062, Note_on_c, 0, 79, 0
1, 49068, Note_on_c, 1, 69, 0
1, 49080, Note_on_c, 0, 78, 61
1, 49080, Note_on_c, 1, 63, 56
1, 49092, Note_on_c, 0, 78, 0
1, 49110, Note_on_c, 0, 79, 59
1, 49122, Note_on_c, 0, 79, 0
1, 49128, Note_on_c, 1, 63, 0
1, 49140, Note_on_c, 0, 78, 56
1, 49140, Note_on_c, 1, 69, 52
1, 49152, Note_on_c, 0, 78, 0
1, 49170, Note_on_c, 0, 79, 53
1, 49182, Note_on_c, 0, 79, 0
1, 49188, Note_on_c, 1, 69, 0
1, 49200, Note_on_c, 0, 78, 51
1, 49200, Note_on_c, 1, 59, 48
1, 49208, Note_on_c, 0, 78, 0
1, 49220, Note_on_c, 0, 79, 49
1, 49228, Note_on_c, 0, 79, 0
1, 49240, Note_on_c, 0, 78, 47
1, 49248, Note_on_c, 0, 78, 0
1, 49248, Note_on_c, 1, 59, 0
1, 49260, Note_on_c, 0, 76, 45
1, 49260, Note_on_c, 1, 69, 44
1, 49272, Note_on_c, 0, 76, 0
1, 49290, Note_on_c, 0, 78, 43
1, 49302, Note_on_c, 0, 78, 0
1, 49308, Note_on_c, 1, 69, 0
1, 49320, Note_on_c, 0, 76, 40
1, 49320, Note_on_c, 1, 67, 40
1, 49320, Note_on_c, 1, 64, 40
1, 49368, Note_on_c, 0, 76, 0
1, 49368, Note_on_c, 1, 64, 0
1, 49368, Note_on_c, 1, 67, 0
1, 49560, Note_on_c, 0, 67, 40
1, 49560, Note_on_c, 1, 55, 40
1, 49596, Note_on_c, 0, 67, 0
1, 49596, Note_on_c, 1, 55, 0
1, 49680, Note_on_c, 0, 68, 40
1, 49680, Note_on_c, 1, 56, 40
1, 49716, Note_on_c, 0, 68, 0
1, 49716, Note_on_c, 1, 56, 0
1, 49800, Note_on_c, 0, 69, 51
1, 49800, Note_on_c, 1, 57, 51
1, 49836, Note_on_c, 0, 69, 0
1, 49836, Note_on_c, 1, 57, 0
1, 49920, Note_on_c, 0, 70, 61
1, 49920, Note_on_c, 1, 58, 61
1, 49956, Note_on_c, 0, 70, 0
1, 49956, Note_on_c, 1, 58, 0
1, 50040, Note_on_c, 0, 71, 72
1, 50040, Note_on_c, 1, 59, 72
1, 50076, Note_on_c, 0, 71, 0
1, 50076, Note_on_c, 1, 59, 0
1, 50160, Note_on_c, 0, 72, 61
1, 50160, Note_on_c, 1, 60, 61
1, 50196, Note_on_c, 0, 72, 0
1, 50196, Note_on_c, 1, 60, 0
1, 50280, Note_on_c, 0, 70, 51
1, 50280, Note_on_c, 1, 58, 51
1, 50400, Note_on_c, 0, 70, 0
1, 50400, Note_on_c, 0, 71, 40
1, 50400, Note_on_c, 1, 58, 0
1, 50400, Note_on_c, 1, 59, 40
1, 50436, Note_on_c, 0, 71, 0
1, 50436, Note_on_c, 1, 59, 0
1, 50640, Note_on_c, 0, 71, 40
1, 50640, Note_on_c, 1, 59, 40
1, 50676, Note_on_c, 0, 71, 0
1, 50676, Note_on_c, 1, 59, 0
1, 50760, Note_on_c, 0, 64, 40
1, 50760, Note_on_c, 1, 52, 40
1, 50796, Note_on_c, 0, 64, 0
1, 50796, Note_on_c, 1, 52, 0
1, 51000, Note_on_c, 0, 78, 80
1, 51000, Note_on_c, 0, 81, 80
1, 51000, Note_on_c, 0, 87, 80
1, 51000, Note_on_c, 1, 47, 80
1, 51000, Note_on_c, 1, 59, 80
1, 51048, Note_on_c, 0, 87, 0
1, 51048, Note_on_c, 0, 81, 0
1, 51048, Note_on_c, 0, 78, 0
1, 51048, Note_on_c, 1, 59, 0
1, 51048, Note_on_c, 1, 47, 0
1, 51120, Note_on_c, 0, 76, 80
1, 51120, Note_on_c, 0, 79, 80
1, 51120, Note_on_c, 0, 88, 80
1, 51120, Note_on_c, 1, 40, 80
1, 51120, Note_on_c, 1, 52, 80
1, 51168, Note_on_c, 0, 88, 0
1, 51168, Note_on_c, 0, 79, 0
1, 51168, Note_on_c, 0, 76, 0
1, 51168, Note_on_c, 1, 52, 0
1, 51168, Note_on_c, 1, 40, 0
1, 51360, Note_on_c, 0, 69, 56
1, 51360, Note_on_c, 1, 57, 56
1, 51408, Note_on_c, 0, 69, 0
1, 51408, Note_on_c, 1, 57, 0
1, 51480, Note_on_c, 0, 62, 56
1, 51480, Note_on_c, 1, 50, 56
1, 51528, Note_on_c, 0, 62, 0
1, 51528, Note_on_c, 1, 50, 0
1, 51720, Note_on_c, 0, 76, 80
1, 51720, Note_on_c, 0, 79, 80
1, 51720, Note_on_c, 0, 85, 80
1, 51720, Note_on_c, 1, 45, 80
1, 51720, Note_on_c, 1, 57, 80
1, 51768, Note_on_c, 0, 85, 0
1, 51768, Note_on_c, 0, 79, 0
1, 51768, Note_on_c, 0, 76, 0
1, 51768, Note_on_c, 1, 57, 0
1, 51768, Note_on_c, 1, 45, 0
1, 51840, Note_on_c, 0, 74, 80
1, 51840, Note_on_c, 0, 78, 80
1, 51840, Note_on_c, 0, 86, 80
1, 51840, Note_on_c, 1, 38, 80
1, 51840, Note_on_c, 1, 50, 80
1, 51924, Note_on_c, 0, 86, 0
1, 51924, Note_on_c, 0, 78, 0
1, 51924, Note_on_c, 0, 74, 0
1, 51924, Note_on_c, 1, 50, 0
1, 51924, Note_on_c, 1, 38, 0
1, 52080, Note_on_c, 0, 67, 40
1, 52080, Note_on_c, 1, 55, 40
1, 52128, Note_on_c, 0, 67, 0
1, 52128, Note_on_c, 1, 55, 0
1, 52200, Note_on_c, 0, 60, 40
1, 52200, Note_on_c, 1, 48, 40
1, 52248, Note_on_c, 0, 60, 0
1, 52248, Note_on_c, 1, 48, 0
1, 52440, Note_on_c, 0, 74, 80
1, 52440, Note_on_c, 0, 77, 80
1, 52440, Note_on_c, 0, 83, 80
1, 52440, Note_on_c, 1, 43, 80
1, 52440, Note_on_c, 1, 55, 80
1, 52488, Note_on_c, 0, 83, 0
1, 52488, Note_on_c, 0, 77, 0
1, 52488, Note_on_c, 0, 74, 0
1, 52488, Note_on_c, 1, 55, 0
1, 52488, Note_on_c, 1, 43, 0
1, 52560, Note_on_c, 0, 76, 80
1, 52560, Note_on_c, 0, 79, 80
1, 52560, Note_on_c, 0, 84, 80
1, 52560, Note_on_c, 1, 36, 80
1, 52560, Note_on_c, 1, 48, 80
1, 52680, Note_on_c, 0, 84, 0
1, 52680, Note_on_c, 0, 79, 0
1, 52680, Note_on_c, 0, 76, 0
1, 52680, Note_on_c, 1, 48, 0
1, 52680, Note_on_c, 1, 36, 0
1, 52800, Note_on_c, 0, 75, 40
1, 52920, Note_on_c, 0, 75, 0
1, 52920, Note_on_c, 0, 76, 40
1, 53040, Note_on_c, 0, 76, 0
1, 53040, Note_on_c, 0, 71, 48
1, 53160, Note_on_c, 0, 71, 0
1, 53160, Note_on_c, 0, 72, 56
1, 53280, Note_on_c, 0, 72, 0
1, 53280, Note_on_c, 0, 68, 64
1, 53400, Note_on_c, 0, 68, 0
1, 53400, Note_on_c, 0, 69, 69
1, 53520, Note_on_c, 0, 69, 0
1, 53520, Note_on_c, 0, 64, 75
1, 53640, Note_on_c, 0, 64, 0
1, 53640, Note_on_c, 0, 67, 80
1, 53760, Note_on_c, 1, 50, 32
1, 53760, Note_on_c, 1, 57, 32
1, 53760, Note_on_c, 1, 60, 32
1, 53808, Note_on_c, 1, 60, 0
1, 53808, Note_on_c, 1, 57, 0
1, 53808, Note_on_c, 1, 50, 0
1, 53880, Note_on_c, 1, 50, 36
1, 53880, Note_on_c, 1, 57, 36
1, 53880, Note_on_c, 1, 60, 36
1, 53928, Note_on_c, 1, 60, 0
1, 53928, Note_on_c, 1, 57, 0
1, 53928, Note_on_c, 1, 50, 0
1, 54000, Note_on_c, 0, 67, 0
1, 54000, Note_on_c, 0, 66, 56
1, 54000, Note_on_c, 1, 50, 40
1, 54000, Note_on_c, 1, 57, 40
1, 54000, Note_on_c, 1, 60, 40
1, 54048, Note_on_c, 1, 60, 0
1, 54048, Note_on_c, 1, 57, 0
1, 54048, Note_on_c, 1, 50, 0
1, 54120, Note_on_c, 0, 66, 0
1, 54120, Note_on_c, 1, 50, 44
1, 54120, Note_on_c, 1, 57, 44
1, 54120, Note_on_c, 1, 60, 44
1, 54168, Note_on_c, 1, 60, 0
1, 54168, Note_on_c, 1, 57, 0
1, 54168, Note_on_c, 1, 50, 0
1, 54240, Note_on_c, 0, 78, 40
1, 54240, Note_on_c, 1, 51, 48
1, 54240, Note_on_c, 1, 57, 48
1, 54240, Note_on_c, 1, 59, 48
1, 54360, Note_on_c, 0, 78, 0
1, 54360, Note_on_c, 0, 79, 40
1, 54360, Note_on_c, 1, 59, 0
1, 54360, Note_on_c, 1, 57, 0
1, 54360, Note_on_c, 1, 51, 0
1, 54360, Note_on_c, 1, 52, 56
1, 54360, Note_on_c, 1, 55, 56
1, 54360, Note_on_c, 1, 59, 56
1, 54444, Note_on_c, 1, 59, 0
1, 54444, Note_on_c, 1, 55, 0
1, 54444, Note_on_c, 1, 52, 0
1, 54480, Note_on_c, 0, 79, 0
1, 54480, Note_on_c, 0, 75, 48
1, 54600, Note_on_c, 0, 75, 0
1, 54600, Note_on_c, 0, 76, 56
1, 54720, Note_on_c, 0, 76, 0
1, 54720, Note_on_c, 0, 71, 64
1, 54840, Note_on_c, 0, 71, 0
1, 54840, Note_on_c, 0, 72, 69
1, 54960, Note_on_c, 0, 72, 0
1, 54960, Note_on_c, 0, 67, 75
1, 55080, Note_on_c, 0, 67, 0
1, 55080, Note_on_c, 0, 71, 80
1, 55200, Note_on_c, 1, 54, 36
1, 55200, Note_on_c, 1, 62, 36
1, 55248, Note_on_c, 1, 62, 0
1, 55248, Note_on_c, 1, 54, 0
1, 55320, Note_on_c, 1, 54, 44
1, 55320, Note_on_c, 1, 62, 44
1, 55368, Note_on_c, 1, 62, 0
1, 55368, Note_on_c, 1, 54, 0
1, 55440, Note_on_c, 0, 71, 0
1, 55440, Note_on_c, 0, 69, 64
1, 55440, Note_on_c, 1, 54, 52
1, 55440, Note_on_c, 1, 62, 52
1, 55488, Note_on_c, 1, 62, 0
1, 55488, Note_on_c, 1, 54, 0
1, 55560, Note_on_c, 0, 69, 0
1, 55560, Note_on_c, 1, 54, 40
1, 55560, Note_on_c, 1, 62, 40
1, 55608, Note_on_c, 1, 62, 0
1, 55608, Note_on_c, 1, 54, 0
1, 55680, Note_on_c, 1, 69, 47
1, 55800, Note_on_c, 1, 69, 0
1, 55800, Note_on_c, 1, 71, 40
1, 55920, Note_on_c, 1, 71, 0
1, 55920, Note_on_c, 1, 66, 48
1, 56040, Note_on_c, 1, 66, 0
1, 56040, Note_on_c, 1, 67, 56
1, 56160, Note_on_c, 1, 67, 0
1, 56160, Note_on_c, 1, 63, 64
1, 56280, Note_on_c, 1, 63, 0
1, 56280, Note_on_c, 1, 64, 69
1, 56400, Note_on_c, 1, 64, 0
1, 56400, Note_on_c, 1, 59, 75
1, 56520, Note_on_c, 1, 59, 0
1, 56520, Note_on_c, 1, 62, 80
1, 56640, Note_on_c, 0, 76, 40
1, 56640, Note_on_c, 0, 79, 40
1, 56688, Note_on_c, 0, 79, 0
1, 56688, Note_on_c, 0, 76, 0
1, 56760, Note_on_c, 0, 77, 48
1, 56760, Note_on_c, 0, 80, 48
1, 56808, Note_on_c, 0, 80, 0
1, 56808, Note_on_c, 0, 77, 0
1, 56880, Note_on_c, 0, 76, 64
1, 56880, Note_on_c, 0, 81, 64
1, 56880, Note_on_c, 1, 62, 0
1, 56880, Note_on_c, 1, 61, 64
1, 56976, Note_on_c, 0, 81, 0
1, 56976, Note_on_c, 0, 76, 0
1, 56976, Note_on_c, 1, 61, 0
1, 57000, Note_on_c, 0, 69, 80
1, 57000, Note_on_c, 0, 76, 80
1, 57048, Note_on_c, 0, 76, 0
1, 57048, Note_on_c, 0, 69, 0
1, 57120, Note_on_c, 0, 79, 80
1, 57120, Note_on_c, 0, 70, 80
1, 57168, Note_on_c, 0, 70, 0
1, 57168, Note_on_c, 0, 79, 0
1, 57240, Note_on_c, 0, 69, 80
1, 57240, Note_on_c, 0, 78, 80
1, 57240, Note_on_c, 1, 62, 56
1, 57336, Note_on_c, 0, 78, 0
1, 57336, Note_on_c, 0, 69, 0
1, 57336, Note_on_c, 1, 62, 0
1, 57360, Note_on_c, 0, 74, 80
1, 57456, Note_on_c, 0, 74, 0
1, 57480, Note_on_c, 0, 73, 72
1, 57576, Note_on_c, 0, 73, 0
1, 57600, Note_on_c, 0, 74, 64
1, 57696, Note_on_c, 0, 74, 0
1, 57720, Note_on_c, 0, 73, 56
1, 57816, Note_on_c, 0, 73, 0
1, 57840, Note_on_c, 0, 74, 48
1, 57936, Note_on_c, 0, 74, 0
1, 57960, Note_on_c, 0, 66, 40
1, 57960, Note_on_c, 0, 69, 40
1, 58080, Note_on_c, 1, 62, 40
1, 58128, Note_on_c, 1, 62, 0
1, 58200, Note_on_c, 1, 61, 40
1, 58248, Note_on_c, 1, 61, 0
1, 58272, Note_on_c, 0, 69, 0
1, 58272, Note_on_c, 0, 66, 0
1, 58290, Note_on_c, 0, 72, 40
1, 58314, Note_on_c, 0, 72, 0
1, 58320, Note_on_c, 0, 70, 40
1, 58320, Note_on_c, 1, 62, 56
1, 58344, Note_on_c, 0, 70, 0
1, 58350, Note_on_c, 0, 72, 42
1, 58374, Note_on_c, 0, 72, 0
1, 58380, Note_on_c, 0, 70, 44
1, 58404, Note_on_c, 0, 70, 0
1, 58410, Note_on_c, 0, 72, 46
1, 58434, Note_on_c, 0, 72, 0
1, 58440, Note_on_c, 0, 70, 48
1, 58440, Note_on_c, 1, 62, 0
1, 58440, Note_on_c, 1, 61, 56
1, 58464, Note_on_c, 0, 70, 0
1, 58470, Note_on_c, 0, 72, 50
1, 58488, Note_on_c, 1, 61, 0
1, 58494, Note_on_c, 0, 72, 0
1, 58500, Note_on_c, 0, 70, 52
1, 58524, Note_on_c, 0, 70, 0
1, 58530, Note_on_c, 0, 72, 54
1, 58554, Note_on_c, 0, 72, 0
1, 58560, Note_on_c, 0, 70, 56
1, 58560, Note_on_c, 1, 62, 56
1, 58576, Note_on_c, 0, 70, 0
1, 58580, Note_on_c, 0, 72, 57
1, 58596, Note_on_c, 0, 72, 0
1, 58600, Note_on_c, 0, 70, 59
1, 58608, Note_on_c, 1, 62, 0
1, 58616, Note_on_c, 0, 70, 0
1, 58620, Note_on_c, 0, 69, 60
1, 58644, Note_on_c, 0, 69, 0
1, 58650, Note_on_c, 0, 70, 62
1, 58674, Note_on_c, 0, 70, 0
1, 58680, Note_on_c, 0, 66, 64
1, 58680, Note_on_c, 0, 69, 64
1, 58680, Note_on_c, 1, 50, 56
1, 58776, Note_on_c, 0, 69, 0
1, 58776, Note_on_c, 0, 66, 0
1, 58776, Note_on_c, 1, 50, 0
1, 58800, Note_on_c, 0, 81, 61
1, 58896, Note_on_c, 0, 81, 0
1, 58920, Note_on_c, 0, 80, 59
1, 59016, Note_on_c, 0, 80, 0
1, 59040, Note_on_c, 0, 81, 56
1, 59136, Note_on_c, 0, 81, 0
1, 59160, Note_on_c, 0, 80, 51
1, 59256, Note_on_c, 0, 80, 0
1, 59280, Note_on_c, 0, 81, 45
1, 59376, Note_on_c, 0, 81, 0
1, 59400, Note_on_c, 0, 79, 40
1, 59520, Note_on_c, 1, 63, 40
1, 59520, Note_on_c, 1, 67, 40
1, 59568, Note_on_c, 1, 67, 0
1, 59568, Note_on_c, 1, 63, 0
1, 59592, Note_on_c, 0, 79, 0
1, 59640, Note_on_c, 0, 82, 40
1, 59640, Note_on_c, 1, 62, 40
1, 59640, Note_on_c, 1, 66, 40
1, 59688, Note_on_c, 1, 66, 0
1, 59688, Note_on_c, 1, 62, 0
1, 59712, Note_on_c, 0, 82, 0
1, 59730, Note_on_c, 0, 74, 40
1, 59754, Note_on_c, 0, 74, 0
1, 59760, Note_on_c, 0, 73, 40
1, 59760, Note_on_c, 1, 63, 40
1, 59760, Note_on_c, 1, 67, 40
1, 59784, Note_on_c, 0, 73, 0
1, 59790, Note_on_c, 0, 74, 42
1, 59814, Note_on_c, 0, 74, 0
1, 59820, Note_on_c, 0, 73, 44
1, 59844, Note_on_c, 0, 73, 0
1, 59850, Note_on_c, 0, 74, 46
1, 59874, Note_on_c, 0, 74, 0
1, 59880, Note_on_c, 0, 73, 48
1, 59880, Note_on_c, 1, 67, 0
1, 59880, Note_on_c, 1, 63, 0
1, 59880, Note_on_c, 1, 62, 48
1, 59880, Note_on_c, 1, 66, 48
1, 59904, Note_on_c, 0, 73, 0
1, 59910, Note_on_c, 0, 74, 50
1, 59928, Note_on_c, 1, 66, 0
1, 59928, Note_on_c, 1, 62, 0
1, 59934, Note_on_c, 0, 74, 0
1, 59940, Note_on_c, 0, 73, 52
1, 59964, Note_on_c, 0, 73, 0
1, 59970, Note_on_c, 0, 74, 54
1, 59994, Note_on_c, 0, 74, 0
1, 60000, Note_on_c, 0, 73, 56
1, 60000, Note_on_c, 1, 63, 56
1, 60000, Note_on_c, 1, 67, 56
1, 60016, Note_on_c, 0, 73, 0
1, 60020, Note_on_c, 0, 74, 57
1, 60036, Note_on_c, 0, 74, 0
1, 60040, Note_on_c, 0, 73, 59
1, 60048, Note_on_c, 1, 67, 0
1, 60048, Note_on_c, 1, 63, 0
1, 60056, Note_on_c, 0, 73, 0
1, 60060, Note_on_c, 0, 71, 60
1, 60084, Note_on_c, 0, 71, 0
1, 60090, Note_on_c, 0, 73, 62
1, 60114, Note_on_c, 0, 73, 0
1, 60120, Note_on_c, 0, 74, 64
1, 60120, Note_on_c, 1, 62, 56
1, 60120, Note_on_c, 1, 66, 56
1, 60168, Note_on_c, 1, 66, 0
1, 60168, Note_on_c, 1, 62, 0
1, 60180, Note_on_c, 0, 74, 0
1, 60180, Note_on_c, 0, 75, 60
1, 60240, Note_on_c, 0, 75, 0
1, 60240, Note_on_c, 0, 76, 56
1, 60300, Note_on_c, 0, 76, 0
1, 60300, Note_on_c, 0, 77, 52
1, 60360, Note_on_c, 0, 77, 0
1, 60360, Note_on_c, 0, 78, 48
1, 60420, Note_on_c, 0, 78, 0
1, 60420, Note_on_c, 0, 79, 44
1, 60480, Note_on_c, 0, 79, 0
1, 60480, Note_on_c, 0, 80, 40
1, 60540, Note_on_c, 0, 80, 0
1, 60540, Note_on_c, 0, 81, 37
1, 60600, Note_on_c, 0, 81, 0
1, 60600, Note_on_c, 0, 82, 35
1, 60660, Note_on_c, 0, 82, 0
1, 60660, Note_on_c, 0, 83, 32
1, 60720, Note_on_c, 0, 83, 0
1, 60720, Note_on_c, 0, 84, 29
1, 60780, Note_on_c, 0, 84, 0
1, 60780, Note_on_c, 0, 85, 27
1, 60840, Note_on_c, 0, 85, 0
1, 60840, Note_on_c, 0, 86, 24
1, 60960, Note_on_c, 0, 86, 0
1, 61560, Note_on_c, 0, 71, 80
1, 61560, Note_on_c, 0, 67, 80
1, 61560, Note_on_c, 1, 43, 56
1, 61680, Note_on_c, 1, 43, 0
1, 61680, Note_on_c, 1, 55, 56
1, 61716, Note_on_c, 1, 55, 0
1, 61800, Note_on_c, 0, 67, 0
1, 61800, Note_on_c, 0, 71, 0
1, 61800, Note_on_c, 0, 72, 64
1, 61800, Note_on_c, 0, 69, 64
1, 61800, Note_on_c, 1, 55, 56
1, 61824, Note_on_c, 0, 72, 0
1, 61824, Note_on_c, 0, 74, 64
1, 61836, Note_on_c, 1, 55, 0
1, 61848, Note_on_c, 0, 74, 0
1, 61848, Note_on_c, 0, 72, 64
1, 61872, Note_on_c, 0, 72, 0
1, 61872, Note_on_c, 0, 71, 64
1, 61896, Note_on_c, 0, 71, 0
1, 61896, Note_on_c, 0, 72, 64
1, 61920, Note_on_c, 0, 72, 0
1, 61920, Note_on_c, 0, 69, 0
1, 61920, Note_on_c, 0, 74, 64
1, 61920, Note_on_c, 0, 71, 64
1, 61920, Note_on_c, 1, 55, 56
1, 61956, Note_on_c, 1, 55, 0
1, 61968, Note_on_c, 0, 71, 0
1, 61968, Note_on_c, 0, 74, 0
1, 62040, Note_on_c, 1, 55, 56
1, 62076, Note_on_c, 1, 55, 0
1, 62160, Note_on_c, 0, 74, 64
1, 62160, Note_on_c, 0, 71, 64
1, 62160, Note_on_c, 1, 55, 56
1, 62196, Note_on_c, 1, 55, 0
1, 62256, Note_on_c, 0, 71, 0
1, 62256, Note_on_c, 0, 74, 0
1, 62280, Note_on_c, 0, 79, 80
1, 62280, Note_on_c, 0, 76, 80
1, 62280, Note_on_c, 1, 55, 56
1, 62316, Note_on_c, 1, 55, 0
1, 62400, Note_on_c, 1, 55, 56
1, 62436, Note_on_c, 1, 55, 0
1, 62472, Note_on_c, 0, 76, 0
1, 62472, Note_on_c, 0, 79, 0
1, 62520, Note_on_c, 0, 74, 64
1, 62520, Note_on_c, 0, 78, 64
1, 62520, Note_on_c, 1, 55, 56
1, 62556, Note_on_c, 0, 78, 0
1, 62556, Note_on_c, 1, 55, 0
1, 62568, Note_on_c, 0, 74, 0
1, 62610, Note_on_c, 0, 78, 64
1, 62639, Note_on_c, 0, 78, 0
1, 62640, Note_on_c, 0, 76, 64
1, 62640, Note_on_c, 0, 72, 64
1, 62640, Note_on_c, 1, 55, 56
1, 62676, Note_on_c, 1, 55, 0
1, 62760, Note_on_c, 1, 55, 56
1, 62796, Note_on_c, 1, 55, 0
1, 62832, Note_on_c, 0, 72, 0
1, 62832, Note_on_c, 0, 76, 0
1, 62880, Note_on_c, 0, 74, 64
1, 62880, Note_on_c, 0, 71, 64
1, 62880, Note_on_c, 1, 55, 56
1, 62916, Note_on_c, 1, 55, 0
1, 62976, Note_on_c, 0, 71, 0
1, 62976, Note_on_c, 0, 74, 0
1, 63000, Note_on_c, 0, 67, 80
1, 63000, Note_on_c, 0, 71, 80
1, 63000, Note_on_c, 1, 43, 56
1, 63120, Note_on_c, 1, 43, 0
1, 63120, Note_on_c, 1, 55, 56
1, 63156, Note_on_c, 1, 55, 0
1, 63192, Note_on_c, 0, 71, 0
1, 63192, Note_on_c, 0, 67, 0
1, 63240, Note_on_c, 0, 69, 64
1, 63240, Note_on_c, 0, 72, 64
1, 63240, Note_on_c, 1, 55, 56
1, 63259, Note_on_c, 0, 72, 0
1, 63264, Note_on_c, 0, 74, 64
1, 63276, Note_on_c, 1, 55, 0
1, 63283, Note_on_c, 0, 74, 0
1, 63288, Note_on_c, 0, 72, 64
1, 63307, Note_on_c, 0, 72, 0
1, 63312, Note_on_c, 0, 71, 64
1, 63331, Note_on_c, 0, 71, 0
1, 63336, Note_on_c, 0, 69, 0
1, 63336, Note_on_c, 0, 72, 64
1, 63355, Note_on_c, 0, 72, 0
1, 63360, Note_on_c, 0, 71, 64
1, 63360, Note_on_c, 0, 74, 64
1, 63360, Note_on_c, 1, 55, 56
1, 63396, Note_on_c, 1, 55, 0
1, 63408, Note_on_c, 0, 74, 0
1, 63408, Note_on_c, 0, 71, 0
1, 63480, Note_on_c, 1, 55, 56
1, 63516, Note_on_c, 1, 55, 0
1, 63600, Note_on_c, 0, 71, 64
1, 63600, Note_on_c, 0, 74, 64
1, 63600, Note_on_c, 1, 55, 56
1, 63636, Note_on_c, 1, 55, 0
1, 63696, Note_on_c, 0, 74, 0
1, 63696, Note_on_c, 0, 71, 0
1, 63720, Note_on_c, 0, 72, 80
1, 63720, Note_on_c, 0, 76, 80
1, 63720, Note_on_c, 1, 55, 56
1, 63756, Note_on_c, 1, 55, 0
1, 63840, Note_on_c, 1, 55, 56
1, 63876, Note_on_c, 1, 55, 0
1, 63912, Note_on_c, 0, 76, 0
1, 63912, Note_on_c, 0, 72, 0
1, 63960, Note_on_c, 0, 71, 64
1, 63960, Note_on_c, 0, 74, 64
1, 63960, Note_on_c, 1, 55, 56
1, 63996, Note_on_c, 0, 74, 0
1, 63996, Note_on_c, 1, 55, 0
1, 64008, Note_on_c, 0, 71, 0
1, 64050, Note_on_c, 0, 74, 64
1, 64074, Note_on_c, 0, 74, 0
1, 64080, Note_on_c, 0, 69, 64
1, 64080, Note_on_c, 0, 72, 64
1, 64080, Note_on_c, 1, 55, 56
1, 64116, Note_on_c, 1, 55, 0
1, 64200, Note_on_c, 1, 55, 56
1, 64236, Note_on_c, 1, 55, 0
1, 64272, Note_on_c, 0, 72, 0
1, 64272, Note_on_c, 0, 69, 0
1, 64320, Note_on_c, 0, 67, 64
1, 64320, Note_on_c, 0, 71, 64
1, 64320, Note_on_c, 1, 55, 56
1, 64356, Note_on_c, 0, 71, 0
1, 64356, Note_on_c, 0, 67, 0
1, 64356, Note_on_c, 1, 55, 0
1, 64440, Note_on_c, 0, 62, 48
1, 64440, Note_on_c, 1, 47, 40
1, 64440, Note_on_c, 1, 35, 40
1, 64488, Note_on_c, 0, 62, 0
1, 64500, Note_on_c, 0, 67, 49
1, 64548, Note_on_c, 0, 67, 0
1, 64548, Note_on_c, 1, 35, 0
1, 64548, Note_on_c, 1, 47, 0
1, 64560, Note_on_c, 0, 66, 51
1, 64608, Note_on_c, 0, 66, 0
1, 64620, Note_on_c, 0, 67, 52
1, 64668, Note_on_c, 0, 67, 0
1, 64680, Note_on_c, 0, 71, 53
1, 64728, Note_on_c, 0, 71, 0
1, 64740, Note_on_c, 0, 67, 55
1, 64788, Note_on_c, 0, 67, 0
1, 64800, Note_on_c, 0, 64, 56
1, 64800, Note_on_c, 1, 48, 48
1, 64800, Note_on_c, 1, 36, 48
1, 64848, Note_on_c, 0, 64, 0
1, 64860, Note_on_c, 0, 69, 57
1, 64908, Note_on_c, 0, 69, 0
1, 64908, Note_on_c, 1, 36, 0
1, 64908, Note_on_c, 1, 48, 0
1, 64920, Note_on_c, 0, 68, 59
1, 64968, Note_on_c, 0, 68, 0
1, 64980, Note_on_c, 0, 69, 60
1, 65028, Note_on_c, 0, 69, 0
1, 65040, Note_on_c, 0, 72, 61
1, 65088, Note_on_c, 0, 72, 0
1, 65100, Note_on_c, 0, 69, 63
1, 65148, Note_on_c, 0, 69, 0
1, 65160, Note_on_c, 0, 66, 64
1, 65160, Note_on_c, 1, 50, 56
1, 65160, Note_on_c, 1, 38, 56
1, 65208, Note_on_c, 0, 66, 0
1, 65220, Note_on_c, 0, 71, 65
1, 65268, Note_on_c, 0, 71, 0
1, 65268, Note_on_c, 1, 38, 0
1, 65268, Note_on_c, 1, 50, 0
1, 65280, Note_on_c, 0, 69, 67
1, 65328, Note_on_c, 0, 69, 0
1, 65340, Note_on_c, 0, 71, 68
1, 65388, Note_on_c, 0, 71, 0
1, 65400, Note_on_c, 0, 74, 69
1, 65448, Note_on_c, 0, 74, 0
1, 65460, Note_on_c, 0, 71, 71
1, 65508, Note_on_c, 0, 71, 0
1, 65520, Note_on_c, 0, 67, 72
1, 65520, Note_on_c, 1, 52, 64
1, 65520, Note_on_c, 1, 40, 64
1, 65568, Note_on_c, 0, 67, 0
1, 65580, Note_on_c, 0, 72, 73
1, 65628, Note_on_c, 0, 72, 0
1, 65628, Note_on_c, 1, 40, 0
1, 65628, Note_on_c, 1, 52, 0
1, 65640, Note_on_c, 0, 71, 75
1, 65688, Note_on_c, 0, 71, 0
1, 65700, Note_on_c, 0, 72, 76
1, 65748, Note_on_c, 0, 72, 0
1, 65760, Note_on_c, 0, 76, 77
1, 65808, Note_on_c, 0, 76, 0
1, 65820, Note_on_c, 0, 72, 79
1, 65868, Note_on_c, 0, 72, 0
1, 65880, Note_on_c, 0, 74, 80
1, 65880, Note_on_c, 1, 54, 56
1, 65928, Note_on_c, 1, 54, 0
1, 65940, Note_on_c, 0, 74, 0
1, 65940, Note_on_c, 1, 62, 40
1, 65988, Note_on_c, 1, 62, 0
1, 66000, Note_on_c, 1, 61, 40
1, 66048, Note_on_c, 1, 61, 0
1, 66060, Note_on_c, 1, 62, 40
1, 66108, Note_on_c, 1, 62, 0
1, 66120, Note_on_c, 0, 84, 48
1, 66120, Note_on_c, 0, 81, 48
1, 66120, Note_on_c, 1, 54, 40
1, 66168, Note_on_c, 1, 54, 0
1, 66180, Note_on_c, 1, 62, 40
1, 66228, Note_on_c, 1, 62, 0
1, 66240, Note_on_c, 0, 81, 0
1, 66240, Note_on_c, 0, 84, 0
1, 66240, Note_on_c, 0, 83, 48
1, 66240, Note_on_c, 0, 79, 48
1, 66240, Note_on_c, 1, 55, 40
1, 66276, Note_on_c, 0, 79, 0
1, 66276, Note_on_c, 0, 83, 0
1, 66288, Note_on_c, 1, 55, 0
1, 66300, Note_on_c, 1, 62, 40
1, 66348, Note_on_c, 1, 62, 0
1, 66360, Note_on_c, 1, 61, 40
1, 66408, Note_on_c, 1, 61, 0
1, 66420, Note_on_c, 1, 62, 40
1, 66468, Note_on_c, 1, 62, 0
1, 66480, Note_on_c, 0, 74, 48
1, 66480, Note_on_c, 0, 71, 48
1, 66480, Note_on_c, 1, 55, 40
1, 66528, Note_on_c, 1, 55, 0
1, 66540, Note_on_c, 1, 62, 40
1, 66588, Note_on_c, 1, 62, 0
1, 66600, Note_on_c, 0, 71, 0
1, 66600, Note_on_c, 0, 74, 0
1, 66600, Note_on_c, 0, 72, 48
1, 66600, Note_on_c, 0, 69, 48
1, 66600, Note_on_c, 1, 57, 40
1, 66636, Note_on_c, 0, 69, 0
1, 66636, Note_on_c, 0, 72, 0
1, 66648, Note_on_c, 1, 57, 0
1, 66660, Note_on_c, 1, 62, 40
1, 66708, Note_on_c, 1, 62, 0
1, 66720, Note_on_c, 1, 61, 40
1, 66768, Note_on_c, 1, 61, 0
1, 66780, Note_on_c, 1, 62, 40
1, 66828, Note_on_c, 1, 62, 0
1, 66840, Note_on_c, 0, 78, 48
1, 66840, Note_on_c, 0, 72, 48
1, 66840, Note_on_c, 1, 57, 40
1, 66888, Note_on_c, 1, 57, 0
1, 66900, Note_on_c, 1, 62, 40
1, 66948, Note_on_c, 1, 62, 0
1, 66960, Note_on_c, 0, 72, 0
1, 66960, Note_on_c, 0, 78, 0
1, 66960, Note_on_c, 0, 79, 48
1, 66960, Note_on_c, 0, 71, 48
1, 66960, Note_on_c, 1, 59, 40
1, 66996, Note_on_c, 0, 71, 0
1, 66996, Note_on_c, 0, 79, 0
1, 67008, Note_on_c, 1, 59, 0
1, 67020, Note_on_c, 1, 62, 40
1, 67068, Note_on_c, 1, 62, 0
1, 67080, Note_on_c, 1, 61, 40
1, 67128, Note_on_c, 1, 61, 0
1, 67140, Note_on_c, 1, 62, 40
1, 67188, Note_on_c, 1, 62, 0
1, 67200, Note_on_c, 0, 71, 48
1, 67200, Note_on_c, 0, 67, 48
1, 67200, Note_on_c, 1, 59, 40
1, 67236, Note_on_c, 0, 67, 0
1, 67236, Note_on_c, 0, 71, 0
1, 67248, Note_on_c, 1, 59, 0
1, 67260, Note_on_c, 1, 62, 40
1, 67308, Note_on_c, 1, 62, 0
1, 67320, Note_on_c, 0, 69, 48
1, 67320, Note_on_c, 1, 60, 56
1, 67320, Note_on_c, 1, 64, 56
1, 67368, Note_on_c, 0, 69, 0
1, 67380, Note_on_c, 0, 68, 53
1, 67416, Note_on_c, 1, 64, 0
1, 67416, Note_on_c, 1, 60, 0
1, 67428, Note_on_c, 0, 68, 0
1, 67440, Note_on_c, 0, 71, 59
1, 67488, Note_on_c, 0, 71, 0
1, 67500, Note_on_c, 0, 69, 64
1, 67548, Note_on_c, 0, 69, 0
1, 67560, Note_on_c, 0, 72, 69
1, 67608, Note_on_c, 0, 72, 0
1, 67620, Note_on_c, 0, 71, 75
1, 67668, Note_on_c, 0, 71, 0
1, 67680, Note_on_c, 0, 74, 80
1, 67728, Note_on_c, 0, 74, 0
1, 67740, Note_on_c, 0, 72, 80
1, 67788, Note_on_c, 0, 72, 0
1, 67800, Note_on_c, 0, 76, 80
1, 67920, Note_on_c, 1, 67, 56
1, 67920, Note_on_c, 1, 60, 56
1, 68040, Note_on_c, 1, 60, 0
1, 68040, Note_on_c, 1, 67, 0
1, 68040, Note_on_c, 1, 66, 72
1, 68040, Note_on_c, 1, 62, 72
1, 68076, Note_on_c, 1, 62, 0
1, 68076, Note_on_c, 1, 66, 0
1, 68160, Note_on_c, 0, 76, 0
1, 68160, Note_on_c, 0, 72, 72
1, 68280, Note_on_c, 1, 66, 64
1, 68280, Note_on_c, 1, 62, 64
1, 68400, Note_on_c, 1, 62, 0
1, 68400, Note_on_c, 1, 66, 0
1, 68400, Note_on_c, 1, 67, 64
1, 68400, Note_on_c, 1, 64, 64
1, 68436, Note_on_c, 1, 64, 0
1, 68436, Note_on_c, 1, 67, 0
1, 68520, Note_on_c, 0, 72, 0
1, 68520, Note_on_c, 0, 71, 64
1, 68640, Note_on_c, 1, 67, 56
1, 68640, Note_on_c, 1, 64, 56
1, 68760, Note_on_c, 1, 64, 0
1, 68760, Note_on_c, 1, 67, 0
1, 68760, Note_on_c, 1, 64, 56
1, 68760, Note_on_c, 1, 60, 56
1, 68796, Note_on_c, 1, 60, 0
1, 68796, Note_on_c, 1, 64, 0
1, 68880, Note_on_c, 0, 71, 0
1, 68880, Note_on_c, 0, 69, 56
1, 69000, Note_on_c, 1, 60, 48
1, 69000, Note_on_c, 1, 48, 48
1, 69120, Note_on_c, 1, 48, 0
1, 69120, Note_on_c, 1, 60, 0
1, 69120, Note_on_c, 1, 59, 48
1, 69120, Note_on_c, 1, 50, 48
1, 69156, Note_on_c, 1, 50, 0
1, 69156, Note_on_c, 1, 59, 0
1, 69240, Note_on_c, 0, 69, 0
1, 69240, Note_on_c, 0, 67, 52
1, 69360, Note_on_c, 1, 59, 44
1, 69360, Note_on_c, 1, 50, 44
1, 69480, Note_on_c, 1, 50, 0
1, 69480, Note_on_c, 1, 59, 0
1, 69480, Note_on_c, 1, 57, 44
1, 69480, Note_on_c, 1, 50, 44
1, 69516, Note_on_c, 1, 50, 0
1, 69516, Note_on_c, 1, 57, 0
1, 69600, Note_on_c, 0, 67, 0
1, 69600, Note_on_c, 0, 66, 48
1, 69720, Note_on_c, 1, 50, 40
1, 69720, Note_on_c, 1, 57, 40
1, 69840, Note_on_c, 1, 57, 0
1, 69840, Note_on_c, 1, 50, 0
1, 69840, Note_on_c, 1, 55, 40
1, 69840, Note_on_c, 1, 59, 40
1, 69876, Note_on_c, 1, 59, 0
1, 69876, Note_on_c, 1, 55, 0
1, 69960, Note_on_c, 0, 66, 0
1, 69960, Note_on_c, 0, 67, 59
1, 70080, Note_on_c, 0, 67, 0
1, 70080, Note_on_c, 0, 69, 69
1, 70200, Note_on_c, 0, 69, 0
1, 70200, Note_on_c, 0, 71, 80
1, 70200, Note_on_c, 0, 65, 80
1, 70200, Note_on_c, 0, 62, 80
1, 70200, Note_on_c, 1, 43, 72
1, 70248, Note_on_c, 1, 43, 0
1, 70260, Note_on_c, 1, 55, 72
1, 70308, Note_on_c, 1, 55, 0
1, 70320, Note_on_c, 1, 54, 72
1, 70368, Note_on_c, 1, 54, 0
1, 70380, Note_on_c, 1, 55, 72
1, 70428, Note_on_c, 1, 55, 0
1, 70440, Note_on_c, 1, 57, 72
1, 70452, Note_on_c, 1, 57, 0
1, 70488, Note_on_c, 0, 62, 0
1, 70488, Note_on_c, 0, 65, 0
1, 70488, Note_on_c, 0, 71, 0
1, 70500, Note_on_c, 1, 55, 72
1, 70512, Note_on_c, 1, 55, 0
1, 70560, Note_on_c, 0, 64, 80
1, 70560, Note_on_c, 1, 43, 72
1, 70608, Note_on_c, 0, 64, 0
1, 70620, Note_on_c, 0, 67, 80
1, 70620, Note_on_c, 1, 43, 0
1, 70668, Note_on_c, 0, 67, 0
1, 70680, Note_on_c, 0, 72, 80
1, 70728, Note_on_c, 0, 72, 0
1, 70740, Note_on_c, 0, 67, 80
1, 70788, Note_on_c, 0, 67, 0
1, 70800, Note_on_c, 0, 76, 80
1, 70812, Note_on_c, 0, 76, 0
1, 70860, Note_on_c, 0, 72, 80
1, 70872, Note_on_c, 0, 72, 0
1, 70920, Note_on_c, 0, 78, 80
1, 70920, Note_on_c, 0, 72, 80
1, 70920, Note_on_c, 0, 69, 80
1, 70920, Note_on_c, 1, 43, 72
1, 70968, Note_on_c, 1, 43, 0
1, 70980, Note_on_c, 1, 55, 72
1, 71028, Note_on_c, 1, 55, 0
1, 71040, Note_on_c, 1, 54, 72
1, 71088, Note_on_c, 1, 54, 0
1, 71100, Note_on_c, 1, 55, 72
1, 71148, Note_on_c, 1, 55, 0
1, 71160, Note_on_c, 1, 57, 72
1, 71172, Note_on_c, 1, 57, 0
1, 71208, Note_on_c, 0, 69, 0
1, 71208, Note_on_c, 0, 72, 0
1, 71208, Note_on_c, 0, 78, 0
1, 71220, Note_on_c, 1, 55, 72
1, 71232, Note_on_c, 1, 55, 0
1, 71280, Note_on_c, 0, 79, 80
1, 71280, Note_on_c, 1, 43, 72
1, 71328, Note_on_c, 0, 79, 0
1, 71340, Note_on_c, 0, 83, 80
1, 71340, Note_on_c, 1, 43, 0
1, 71388, Note_on_c, 0, 83, 0
1, 71400, Note_on_c, 0, 79, 80
1, 71448, Note_on_c, 0, 79, 0
1, 71460, Note_on_c, 0, 74, 80
1, 71508, Note_on_c, 0, 74, 0
1, 71520, Note_on_c, 0, 71, 80
1, 71532, Note_on_c, 0, 71, 0
1, 71580, Note_on_c, 0, 67, 80
1, 71592, Note_on_c, 0, 67, 0
1, 71640, Note_on_c, 0, 71, 80
1, 71640, Note_on_c, 0, 65, 80
1, 71640, Note_on_c, 0, 62, 80
1, 71640, Note_on_c, 1, 43, 72
1, 71688, Note_on_c, 1, 43, 0
1, 71700, Note_on_c, 1, 55, 72
1, 71748, Note_on_c, 1, 55, 0
1, 71760, Note_on_c, 1, 54, 72
1, 71808, Note_on_c, 1, 54, 0
1, 71820, Note_on_c, 1, 55, 72
1, 71868, Note_on_c, 1, 55, 0
1, 71880, Note_on_c, 1, 57, 72
1, 71928, Note_on_c, 0, 62, 0
1, 71928, Note_on_c, 0, 65, 0
1, 71928, Note_on_c, 0, 71, 0
1, 71928, Note_on_c, 1, 57, 0
1, 71940, Note_on_c, 1, 55, 72
1, 71988, Note_on_c, 1, 55, 0
1, 72000, Note_on_c, 0, 64, 80
1, 72000, Note_on_c, 1, 43, 72
1, 72048, Note_on_c, 0, 64, 0
1, 72060, Note_on_c, 0, 67, 80
1, 72060, Note_on_c, 1, 43, 0
1, 72108, Note_on_c, 0, 67, 0
1, 72120, Note_on_c, 0, 72, 80
1, 72168, Note_on_c, 0, 72, 0
1, 72180, Note_on_c, 0, 67, 80
1, 72228, Note_on_c, 0, 67, 0
1, 72240, Note_on_c, 0, 76, 80
1, 72252, Note_on_c, 0, 76, 0
1, 72300, Note_on_c, 0, 72, 80
1, 72312, Note_on_c, 0, 72, 0
1, 72360, Note_on_c, 0, 78, 80
1, 72360, Note_on_c, 0, 72, 80
1, 72360, Note_on_c, 0, 69, 80
1, 72360, Note_on_c, 1, 43, 72
1, 72408, Note_on_c, 1, 43, 0
1, 72420, Note_on_c, 1, 55, 72
1, 72468, Note_on_c, 1, 55, 0
1, 72480, Note_on_c, 1, 54, 72
1, 72528, Note_on_c, 1, 54, 0
1, 72540, Note_on_c, 1, 55, 72
1, 72588, Note_on_c, 1, 55, 0
1, 72600, Note_on_c, 1, 57, 72
1, 72612, Note_on_c, 1, 57, 0
1, 72648, Note_on_c, 0, 69, 0
1, 72648, Note_on_c, 0, 72, 0
1, 72648, Note_on_c, 0, 78, 0
1, 72660, Note_on_c, 1, 55, 72
1, 72672, Note_on_c, 1, 55, 0
1, 72720, Note_on_c, 0, 79, 80
1, 72720, Note_on_c, 1, 43, 72
1, 72768, Note_on_c, 0, 79, 0
1, 72780, Note_on_c, 0, 81, 77
1, 72780, Note_on_c, 1, 43, 0
1, 72828, Note_on_c, 0, 81, 0
1, 72840, Note_on_c, 0, 83, 75
1, 72888, Note_on_c, 0, 83, 0
1, 72900, Note_on_c, 0, 79, 72
1, 72912, Note_on_c, 0, 79, 0
1, 72960, Note_on_c, 0, 78, 69
1, 73020, Note_on_c, 0, 78, 0
1, 73020, Note_on_c, 0, 75, 67
1, 73080, Note_on_c, 0, 75, 0
1, 73080, Note_on_c, 0, 76, 64
1, 73080, Note_on_c, 1, 60, 56
1, 73128, Note_on_c, 1, 60, 0
1, 73140, Note_on_c, 1, 67, 56
1, 73188, Note_on_c, 1, 67, 0
1, 73200, Note_on_c, 1, 66, 56
1, 73248, Note_on_c, 1, 66, 0
1, 73260, Note_on_c, 1, 67, 56
1, 73272, Note_on_c, 0, 76, 0
1, 73308, Note_on_c, 1, 67, 0
1, 73320, Note_on_c, 0, 74, 64
1, 73320, Note_on_c, 1, 62, 56
1, 73356, Note_on_c, 0, 74, 0
1, 73368, Note_on_c, 1, 62, 0
1, 73380, Note_on_c, 1, 67, 56
1, 73428, Note_on_c, 1, 67, 0
1, 73440, Note_on_c, 0, 74, 64
1, 73440, Note_on_c, 1, 64, 56
1, 73488, Note_on_c, 1, 64, 0
1, 73500, Note_on_c, 1, 67, 56
1, 73536, Note_on_c, 0, 74, 0
1, 73548, Note_on_c, 1, 67, 0
1, 73560, Note_on_c, 0, 72, 64
1, 73560, Note_on_c, 1, 66, 56
1, 73608, Note_on_c, 1, 66, 0
1, 73620, Note_on_c, 1, 67, 56
1, 73656, Note_on_c, 0, 72, 0
1, 73668, Note_on_c, 1, 67, 0
1, 73680, Note_on_c, 0, 71, 64
1, 73680, Note_on_c, 1, 62, 56
1, 73728, Note_on_c, 1, 62, 0
1, 73740, Note_on_c, 1, 67, 56
1, 73776, Note_on_c, 0, 71, 0
1, 73788, Note_on_c, 1, 67, 0
1, 73800, Note_on_c, 0, 71, 64
1, 73800, Note_on_c, 1, 60, 56
1, 73848, Note_on_c, 1, 60, 0
1, 73860, Note_on_c, 1, 67, 56
1, 73896, Note_on_c, 0, 71, 0
1, 73908, Note_on_c, 1, 67, 0
1, 73920, Note_on_c, 0, 69, 64
1, 73920, Note_on_c, 1, 66, 56
1, 73968, Note_on_c, 1, 66, 0
1, 73980, Note_on_c, 1, 67, 56
1, 74016, Note_on_c, 0, 69, 0
1, 74028, Note_on_c, 1, 67, 0
1, 74040, Note_on_c, 0, 71, 64
1, 74040, Note_on_c, 1, 62, 56
1, 74088, Note_on_c, 1, 62, 0
1, 74100, Note_on_c, 1, 67, 56
1, 74136, Note_on_c, 0, 71, 0
1, 74148, Note_on_c, 1, 67, 0
1, 74160, Note_on_c, 0, 74, 64
1, 74160, Note_on_c, 1, 64, 56
1, 74208, Note_on_c, 1, 64, 0
1, 74220, Note_on_c, 1, 67, 56
1, 74256, Note_on_c, 0, 74, 0
1, 74268, Note_on_c, 1, 67, 0
1, 74280, Note_on_c, 0, 72, 64
1, 74280, Note_on_c, 1, 66, 56
1, 74328, Note_on_c, 1, 66, 0
1, 74340, Note_on_c, 1, 67, 56
1, 74376, Note_on_c, 0, 72, 0
1, 74388, Note_on_c, 1, 67, 0
1, 74400, Note_on_c, 0, 71, 64
1, 74400, Note_on_c, 1, 62, 56
1, 74448, Note_on_c, 1, 62, 0
1, 74460, Note_on_c, 1, 67, 56
1, 74496, Note_on_c, 0, 71, 0
1, 74508, Note_on_c, 1, 67, 0
1, 74520, Note_on_c, 0, 71, 48
1, 74520, Note_on_c, 1, 60, 40
1, 74568, Note_on_c, 1, 60, 0
1, 74580, Note_on_c, 1, 67, 40
1, 74616, Note_on_c, 0, 71, 0
1, 74628, Note_on_c, 1, 67, 0
1, 74640, Note_on_c, 0, 69, 48
1, 74640, Note_on_c, 1, 66, 40
1, 74688, Note_on_c, 1, 66, 0
1, 74700, Note_on_c, 1, 67, 40
1, 74736, Note_on_c, 0, 69, 0
1, 74748, Note_on_c, 1, 67, 0
1, 74760, Note_on_c, 0, 71, 48
1, 74760, Note_on_c, 1, 62, 40
1, 74808, Note_on_c, 1, 62, 0
1, 74820, Note_on_c, 1, 67, 40
1, 74856, Note_on_c, 0, 71, 0
1, 74868, Note_on_c, 1, 67, 0
1, 74880, Note_on_c, 0, 74, 48
1, 74880, Note_on_c, 1, 64, 40
1, 74928, Note_on_c, 1, 64, 0
1, 74940, Note_on_c, 1, 67, 40
1, 74976, Note_on_c, 0, 74, 0
1, 74988, Note_on_c, 1, 67, 0
1, 75000, Note_on_c, 0, 72, 48
1, 75000, Note_on_c, 1, 66, 40
1, 75048, Note_on_c, 1, 66, 0
1, 75060, Note_on_c, 1, 67, 40
1, 75096, Note_on_c, 0, 72, 0
1, 75108, Note_on_c, 1, 67, 0
1, 75120, Note_on_c, 0, 71, 48
1, 75120, Note_on_c, 1, 61, 40
1, 75168, Note_on_c, 1, 61, 0
1, 75180, Note_on_c, 1, 67, 40
1, 75216, Note_on_c, 0, 71, 0
1, 75228, Note_on_c, 1, 67, 0
1, 75240, Note_on_c, 0, 69, 48
1, 75240, Note_on_c, 1, 66, 40
1, 75240, Note_on_c, 1, 62, 40
1, 75336, Note_on_c, 0, 69, 0
1, 75336, Note_on_c, 1, 62, 0
1, 75336, Note_on_c, 1, 66, 0
1, 75360, Note_on_c, 0, 86, 40
1, 75360, Note_on_c, 0, 81, 40
1, 75360, Note_on_c, 0, 78, 40
1, 75360, Note_on_c, 1, 57, 40
1, 75384, Note_on_c, 0, 78, 0
1, 75384, Note_on_c, 0, 81, 0
1, 75384, Note_on_c, 0, 86, 0
1, 75384, Note_on_c, 1, 57, 0
1, 75480, Note_on_c, 0, 86, 40
1, 75480, Note_on_c, 0, 81, 40
1, 75480, Note_on_c, 0, 78, 40
1, 75480, Note_on_c, 1, 54, 40
1, 75504, Note_on_c, 0, 78, 0
1, 75504, Note_on_c, 0, 81, 0
1, 75504, Note_on_c, 0, 86, 0
1, 75504, Note_on_c, 1, 54, 0
1, 75600, Note_on_c, 0, 86, 40
1, 75600, Note_on_c, 0, 81, 40
1, 75600, Note_on_c, 0, 78, 40
1, 75600, Note_on_c, 1, 50, 40
1, 75624, Note_on_c, 0, 78, 0
1, 75624, Note_on_c, 0, 81, 0
1, 75624, Note_on_c, 0, 86, 0
1, 75624, Note_on_c, 1, 50, 0
1, 75960, Note_on_c, 0, 86, 40
1, 76080, Note_on_c, 0, 86, 0
1, 76080, Note_on_c, 0, 85, 45
1, 76200, Note_on_c, 0, 85, 0
1, 76200, Note_on_c, 0, 88, 51
1, 76320, Note_on_c, 0, 88, 0
1, 76320, Note_on_c, 0, 86, 56
1, 76440, Note_on_c, 0, 86, 0
1, 76440, Note_on_c, 0, 85, 61
1, 76560, Note_on_c, 0, 85, 0
1, 76560, Note_on_c, 0, 88, 67
1, 76680, Note_on_c, 0, 88, 0
1, 76680, Note_on_c, 0, 79, 72
1, 76680, Note_on_c, 0, 86, 72
1, 76680, Note_on_c, 1, 71, 64
1, 76680, Note_on_c, 1, 62, 64
1, 76800, Note_on_c, 0, 79, 0
1, 76800, Note_on_c, 0, 78, 67
1, 76800, Note_on_c, 1, 71, 0
1, 76800, Note_on_c, 1, 69, 59
1, 76920, Note_on_c, 0, 78, 0
1, 76920, Note_on_c, 0, 81, 61
1, 76920, Note_on_c, 1, 69, 0
1, 76920, Note_on_c, 1, 72, 53
1, 77040, Note_on_c, 0, 81, 0
1, 77040, Note_on_c, 0, 79, 56
1, 77040, Note_on_c, 1, 72, 0
1, 77040, Note_on_c, 1, 71, 48
1, 77160, Note_on_c, 0, 79, 0
1, 77160, Note_on_c, 0, 78, 51
1, 77160, Note_on_c, 1, 71, 0
1, 77160, Note_on_c, 1, 69, 43
1, 77280, Note_on_c, 0, 78, 0
1, 77280, Note_on_c, 0, 81, 45
1, 77280, Note_on_c, 1, 69, 0
1, 77280, Note_on_c, 1, 72, 37
1, 77400, Note_on_c, 0, 81, 0
1, 77400, Note_on_c, 0, 79, 40
1, 77400, Note_on_c, 1, 72, 0
1, 77400, Note_on_c, 1, 71, 32
1, 77496, Note_on_c, 0, 79, 0
1, 77496, Note_on_c, 0, 86, 0
1, 77496, Note_on_c, 1, 71, 0
1, 77496, Note_on_c, 1, 62, 0
1, 77520, Note_on_c, 1, 62, 32
1, 77568, Note_on_c, 1, 62, 0
1, 77640, Note_on_c, 0, 83, 40
1, 77640, Note_on_c, 1, 67, 32
1, 77700, Note_on_c, 0, 83, 0
1, 77700, Note_on_c, 0, 79, 40
1, 77760, Note_on_c, 0, 79, 0
1, 77760, Note_on_c, 0, 84, 40
1, 77760, Note_on_c, 1, 67, 0
1, 77760, Note_on_c, 1, 66, 32
1, 77808, Note_on_c, 0, 84, 0
1, 77880, Note_on_c, 1, 66, 0
1, 77880, Note_on_c, 1, 62, 32
1, 77928, Note_on_c, 1, 62, 0
1, 78000, Note_on_c, 0, 81, 40
1, 78000, Note_on_c, 1, 72, 32
1, 78060, Note_on_c, 0, 81, 0
1, 78060, Note_on_c, 0, 78, 40
1, 78120, Note_on_c, 0, 78, 0
1, 78120, Note_on_c, 0, 79, 40
1, 78120, Note_on_c, 1, 72, 0
1, 78120, Note_on_c, 1, 71, 32
1, 78168, Note_on_c, 0, 79, 0
1, 78240, Note_on_c, 1, 71, 0
1, 78240, Note_on_c, 1, 62, 32
1, 78288, Note_on_c, 1, 62, 0
1, 78360, Note_on_c, 0, 74, 40
1, 78360, Note_on_c, 1, 67, 32
1, 78408, Note_on_c, 0, 74, 0
1, 78420, Note_on_c, 0, 83, 40
1, 78456, Note_on_c, 1, 67, 0
1, 78468, Note_on_c, 0, 83, 0
1, 78480, Note_on_c, 0, 81, 40
1, 78480, Note_on_c, 1, 66, 32
1, 78528, Note_on_c, 0, 81, 0
1, 78528, Note_on_c, 1, 66, 0
1, 78600, Note_on_c, 0, 81, 40
1, 78660, Note_on_c, 0, 81, 0
1, 78660, Note_on_c, 0, 84, 40
1, 78720, Note_on_c, 0, 84, 0
1, 78720, Note_on_c, 0, 83, 40
1, 78780, Note_on_c, 0, 83, 0
1, 78780, Note_on_c, 0, 86, 40
1, 78840, Note_on_c, 0, 86, 0
1, 78840, Note_on_c, 0, 84, 40
1, 78960, Note_on_c, 0, 84, 0
1, 78960, Note_on_c, 0, 83, 45
1, 79080, Note_on_c, 0, 83, 0
1, 79080, Note_on_c, 0, 86, 51
1, 79200, Note_on_c, 0, 86, 0
1, 79200, Note_on_c, 0, 84, 56
1, 79320, Note_on_c, 0, 84, 0
1, 79320, Note_on_c, 0, 83, 61
1, 79440, Note_on_c, 0, 83, 0
1, 79440, Note_on_c, 0, 86, 67
1, 79560, Note_on_c, 0, 86, 0
1, 79560, Note_on_c, 0, 78, 72
1, 79560, Note_on_c, 0, 84, 72
1, 79560, Note_on_c, 1, 69, 64
1, 79560, Note_on_c, 1, 62, 64
1, 79680, Note_on_c, 0, 78, 0
1, 79680, Note_on_c, 0, 76, 67
1, 79680, Note_on_c, 1, 69, 0
1, 79680, Note_on_c, 1, 67, 59
1, 79800, Note_on_c, 0, 76, 0
1, 79800, Note_on_c, 0, 79, 61
1, 79800, Note_on_c, 1, 67, 0
1, 79800, Note_on_c, 1, 71, 53
1, 79920, Note_on_c, 0, 79, 0
1, 79920, Note_on_c, 0, 78, 56
1, 79920, Note_on_c, 1, 71, 0
1, 79920, Note_on_c, 1, 69, 48
1, 80040, Note_on_c, 0, 78, 0
1, 80040, Note_on_c, 0, 76, 51
1, 80040, Note_on_c, 1, 69, 0
1, 80040, Note_on_c, 1, 67, 43
1, 80160, Note_on_c, 0, 76, 0
1, 80160, Note_on_c, 0, 79, 45
1, 80160, Note_on_c, 1, 67, 0
1, 80160, Note_on_c, 1, 71, 37
1, 80280, Note_on_c, 0, 79, 0
1, 80280, Note_on_c, 0, 78, 40
1, 80280, Note_on_c, 1, 71, 0
1, 80280, Note_on_c, 1, 69, 32
1, 80376, Note_on_c, 0, 78, 0
1, 80376, Note_on_c, 0, 84, 0
1, 80376, Note_on_c, 1, 69, 0
1, 80376, Note_on_c, 1, 62, 0
1, 80400, Note_on_c, 1, 62, 32
1, 80448, Note_on_c, 1, 62, 0
1, 80520, Note_on_c, 0, 81, 40
1, 80520, Note_on_c, 1, 72, 32
1, 80568, Note_on_c, 0, 81, 0
1, 80580, Note_on_c, 0, 78, 40
1, 80628, Note_on_c, 0, 78, 0
1, 80640, Note_on_c, 0, 79, 40
1, 80640, Note_on_c, 1, 72, 0
1, 80640, Note_on_c, 1, 71, 32
1, 80688, Note_on_c, 0, 79, 0
1, 80760, Note_on_c, 1, 71, 0
1, 80760, Note_on_c, 1, 62, 32
1, 80808, Note_on_c, 1, 62, 0
1, 80880, Note_on_c, 0, 74, 40
1, 80880, Note_on_c, 1, 67, 32
1, 80928, Note_on_c, 0, 74, 0
1, 80940, Note_on_c, 0, 83, 40
1, 80988, Note_on_c, 0, 83, 0
1, 81000, Note_on_c, 0, 81, 40
1, 81000, Note_on_c, 1, 67, 0
1, 81000, Note_on_c, 1, 66, 32
1, 81048, Note_on_c, 0, 81, 0
1, 81120, Note_on_c, 1, 66, 0
1, 81120, Note_on_c, 1, 62, 32
1, 81168, Note_on_c, 1, 62, 0
1, 81240, Note_on_c, 0, 74, 40
1, 81240, Note_on_c, 1, 66, 32
1, 81288, Note_on_c, 0, 74, 0
1, 81300, Note_on_c, 0, 84, 40
1, 81348, Note_on_c, 0, 84, 0
1, 81360, Note_on_c, 0, 83, 40
1, 81360, Note_on_c, 1, 66, 0
1, 81360, Note_on_c, 1, 67, 32
1, 81408, Note_on_c, 0, 83, 0
1, 81480, Note_on_c, 0, 83, 51
1, 81480, Note_on_c, 0, 79, 51
1, 81480, Note_on_c, 1, 67, 0
1, 81528, Note_on_c, 0, 83, 0
1, 81540, Note_on_c, 0, 86, 56
1, 81576, Note_on_c, 0, 79, 0
1, 81588, Note_on_c, 0, 86, 0
1, 81600, Note_on_c, 0, 84, 61
1, 81600, Note_on_c, 0, 81, 61
1, 81648, Note_on_c, 0, 84, 0
1, 81660, Note_on_c, 0, 88, 67
1, 81696, Note_on_c, 0, 81, 0
1, 81708, Note_on_c, 0, 88, 0
1, 81720, Note_on_c, 0, 86, 80
1, 81720, Note_on_c, 0, 83, 80
1, 81720, Note_on_c, 1, 55, 80
1, 81720, Note_on_c, 1, 67, 80
1, 81768, Note_on_c, 0, 86, 0
1, 81816, Note_on_c, 0, 83, 0
1, 81840, Note_on_c, 1, 67, 0
1, 81840, Note_on_c, 1, 55, 0
1, 81840, Note_on_c, 1, 54, 80
1, 81840, Note_on_c, 1, 66, 80
1, 81960, Note_on_c, 1, 66, 0
1, 81960, Note_on_c, 1, 54, 0
1, 81960, Note_on_c, 1, 57, 80
1, 81960, Note_on_c, 1, 69, 80
1, 82080, Note_on_c, 1, 69, 0
1, 82080, Note_on_c, 1, 57, 0
1, 82080, Note_on_c, 1, 55, 80
1, 82080, Note_on_c, 1, 67, 80
1, 82116, Note_on_c, 1, 67, 0
1, 82116, Note_on_c, 1, 55, 0
1, 82200, Note_on_c, 1, 52, 80
1, 82200, Note_on_c, 1, 55, 80
1, 82260, Note_on_c, 1, 55, 0
1, 82260, Note_on_c, 1, 59, 80
1, 82320, Note_on_c, 1, 59, 0
1, 82320, Note_on_c, 1, 52, 0
1, 82320, Note_on_c, 1, 54, 80
1, 82320, Note_on_c, 1, 57, 80
1, 82380, Note_on_c, 1, 57, 0
1, 82380, Note_on_c, 1, 60, 80
1, 82440, Note_on_c, 0, 64, 80
1, 82440, Note_on_c, 0, 76, 80
1, 82440, Note_on_c, 1, 60, 0
1, 82440, Note_on_c, 1, 54, 0
1, 82440, Note_on_c, 1, 55, 80
1, 82440, Note_on_c, 1, 59, 80
1, 82524, Note_on_c, 1, 59, 0
1, 82524, Note_on_c, 1, 55, 0
1, 82560, Note_on_c, 0, 76, 0
1, 82560, Note_on_c, 0, 64, 0
1, 82560, Note_on_c, 0, 63, 80
1, 82560, Note_on_c, 0, 75, 80
1, 82680, Note_on_c, 0, 75, 0
1, 82680, Note_on_c, 0, 63, 0
1, 82680, Note_on_c, 0, 66, 80
1, 82680, Note_on_c, 0, 78, 80
1, 82800, Note_on_c, 0, 78, 0
1, 82800, Note_on_c, 0, 66, 0
1, 82800, Note_on_c, 0, 64, 80
1, 82800, Note_on_c, 0, 76, 80
1, 82836, Note_on_c, 0, 76, 0
1, 82836, Note_on_c, 0, 64, 0
1, 82920, Note_on_c, 0, 60, 80
1, 82920, Note_on_c, 0, 64, 80
1, 82968, Note_on_c, 0, 64, 0
1, 82980, Note_on_c, 0, 67, 80
1, 83016, Note_on_c, 0, 60, 0
1, 83028, Note_on_c, 0, 67, 0
1, 83040, Note_on_c, 0, 62, 80
1, 83040, Note_on_c, 0, 65, 80
1, 83088, Note_on_c, 0, 65, 0
1, 83100, Note_on_c, 0, 69, 80
1, 83136, Note_on_c, 0, 62, 0
1, 83148, Note_on_c, 0, 69, 0
1, 83160, Note_on_c, 0, 67, 80
1, 83160, Note_on_c, 0, 64, 80
1, 83160, Note_on_c, 1, 36, 80
1, 83160, Note_on_c, 1, 48, 80
1, 83256, Note_on_c, 0, 64, 0
1, 83256, Note_on_c, 0, 67, 0
1, 83280, Note_on_c, 1, 48, 0
1, 83280, Note_on_c, 1, 36, 0
1, 83280, Note_on_c, 1, 35, 80
1, 83280, Note_on_c, 1, 47, 80
1, 83400, Note_on_c, 1, 47, 0
1, 83400, Note_on_c, 1, 35, 0
1, 83400, Note_on_c, 1, 38, 80
1, 83400, Note_on_c, 1, 50, 80
1, 83520, Note_on_c, 1, 50, 0
1, 83520, Note_on_c, 1, 38, 0
1, 83520, Note_on_c, 1, 36, 80
1, 83520, Note_on_c, 1, 48, 80
1, 83556, Note_on_c, 1, 48, 0
1, 83556, Note_on_c, 1, 36, 0
1, 83640, Note_on_c, 1, 57, 80
1, 83640, Note_on_c, 1, 60, 80
1, 83688, Note_on_c, 1, 60, 0
1, 83700, Note_on_c, 1, 64, 80
1, 83736, Note_on_c, 1, 57, 0
1, 83748, Note_on_c, 1, 64, 0
1, 83760, Note_on_c, 1, 59, 80
1, 83760, Note_on_c, 1, 62, 80
1, 83808, Note_on_c, 1, 62, 0
1, 83820, Note_on_c, 1, 65, 80
1, 83856, Note_on_c, 1, 59, 0
1, 83868, Note_on_c, 1, 65, 0
1, 83880, Note_on_c, 0, 69, 80
1, 83880, Note_on_c, 0, 81, 80
1, 83880, Note_on_c, 1, 60, 56
1, 83880, Note_on_c, 1, 64, 56
1, 83976, Note_on_c, 1, 64, 0
1, 83976, Note_on_c, 1, 60, 0
1, 84000, Note_on_c, 0, 81, 0
1, 84000, Note_on_c, 0, 69, 0
1, 84000, Note_on_c, 0, 68, 80
1, 84000, Note_on_c, 0, 80, 80
1, 84120, Note_on_c, 0, 80, 0
1, 84120, Note_on_c, 0, 68, 0
1, 84120, Note_on_c, 0, 71, 80
1, 84120, Note_on_c, 0, 83, 80
1, 84240, Note_on_c, 0, 83, 0
1, 84240, Note_on_c, 0, 71, 0
1, 84240, Note_on_c, 0, 69, 80
1, 84240, Note_on_c, 0, 81, 80
1, 84276, Note_on_c, 0, 81, 0
1, 84276, Note_on_c, 0, 69, 0
1, 84360, Note_on_c, 0, 81, 40
1, 84408, Note_on_c, 0, 81, 0
1, 84420, Note_on_c, 0, 80, 40
1, 84468, Note_on_c, 0, 80, 0
1, 84480, Note_on_c, 0, 83, 40
1, 84528, Note_on_c, 0, 83, 0
1, 84540, Note_on_c, 0, 81, 40
1, 84588, Note_on_c, 0, 81, 0
1, 84600, Note_on_c, 0, 84, 40
1, 84648, Note_on_c, 0, 84, 0
1, 84660, Note_on_c, 0, 81, 40
1, 84708, Note_on_c, 0, 81, 0
1, 84720, Note_on_c, 0, 78, 40
1, 84768, Note_on_c, 0, 78, 0
1, 84780, Note_on_c, 0, 75, 40
1, 84828, Note_on_c, 0, 75, 0
1, 84840, Note_on_c, 0, 74, 80
1, 84840, Note_on_c, 1, 72, 80
1, 84840, Note_on_c, 1, 69, 80
1, 84840, Note_on_c, 1, 66, 80
1, 84888, Note_on_c, 0, 74, 0
1, 84888, Note_on_c, 1, 66, 0
1, 84888, Note_on_c, 1, 69, 0
1, 84888, Note_on_c, 1, 72, 0
1, 84960, Note_on_c, 0, 84, 40
1, 85008, Note_on_c, 0, 84, 0
1, 85020, Note_on_c, 0, 81, 40
1, 85068, Note_on_c, 0, 81, 0
1, 85080, Note_on_c, 0, 78, 40
1, 85128, Note_on_c, 0, 78, 0
1, 85140, Note_on_c, 0, 75, 40
1, 85188, Note_on_c, 0, 75, 0
1, 85200, Note_on_c, 0, 74, 72
1, 85200, Note_on_c, 1, 66, 72
1, 85200, Note_on_c, 1, 69, 72
1, 85200, Note_on_c, 1, 72, 72
1, 85248, Note_on_c, 0, 74, 0
1, 85248, Note_on_c, 1, 72, 0
1, 85248, Note_on_c, 1, 69, 0
1, 85248, Note_on_c, 1, 66, 0
1, 85320, Note_on_c, 0, 84, 40
1, 85368, Note_on_c, 0, 84, 0
1, 85380, Note_on_c, 0, 81, 40
1, 85428, Note_on_c, 0, 81, 0
1, 85440, Note_on_c, 0, 78, 40
1, 85488, Note_on_c, 0, 78, 0
1, 85500, Note_on_c, 0, 75, 40
1, 85548, Note_on_c, 0, 75, 0
1, 85560, Note_on_c, 0, 74, 64
1, 85560, Note_on_c, 1, 66, 64
1, 85560, Note_on_c, 1, 69, 64
1, 85560, Note_on_c, 1, 72, 64
1, 85608, Note_on_c, 0, 74, 0
1, 85608, Note_on_c, 1, 72, 0
1, 85608, Note_on_c, 1, 69, 0
1, 85608, Note_on_c, 1, 66, 0
1, 85680, Note_on_c, 0, 84, 40
1, 85728, Note_on_c, 0, 84, 0
1, 85740, Note_on_c, 0, 81, 40
1, 85788, Note_on_c, 0, 81, 0
1, 85800, Note_on_c, 0, 78, 40
1, 85848, Note_on_c, 0, 78, 0
1, 85860, Note_on_c, 0, 75, 40
1, 85908, Note_on_c, 0, 75, 0
1, 85920, Note_on_c, 0, 74, 56
1, 85920, Note_on_c, 1, 66, 56
1, 85920, Note_on_c, 1, 69, 56
1, 85920, Note_on_c, 1, 72, 56
1, 85968, Note_on_c, 0, 74, 0
1, 85968, Note_on_c, 1, 72, 0
1, 85968, Note_on_c, 1, 69, 0
1, 85968, Note_on_c, 1, 66, 0
1, 86040, Note_on_c, 1, 43, 40
1, 86088, Note_on_c, 1, 43, 0
1, 86100, Note_on_c, 1, 47, 40
1, 86148, Note_on_c, 1, 47, 0
1, 86160, Note_on_c, 1, 50, 40
1, 86208, Note_on_c, 1, 50, 0
1, 86220, Note_on_c, 1, 55, 40
1, 86268, Note_on_c, 1, 55, 0
1, 86280, Note_on_c, 0, 74, 80
1, 86280, Note_on_c, 0, 71, 80
1, 86280, Note_on_c, 0, 67, 80
1, 86280, Note_on_c, 1, 59, 80
1, 86328, Note_on_c, 0, 67, 0
1, 86328, Note_on_c, 0, 71, 0
1, 86328, Note_on_c, 0, 74, 0
1, 86328, Note_on_c, 1, 59, 0
1, 86400, Note_on_c, 1, 48, 40
1, 86448, Note_on_c, 1, 48, 0
1, 86460, Note_on_c, 1, 52, 40
1, 86508, Note_on_c, 1, 52, 0
1, 86520, Note_on_c, 1, 55, 40
1, 86568, Note_on_c, 1, 55, 0
1, 86580, Note_on_c, 1, 60, 40
1, 86628, Note_on_c, 1, 60, 0
1, 86640, Note_on_c, 0, 79, 80
1, 86640, Note_on_c, 0, 72, 80
1, 86640, Note_on_c, 0, 67, 80
1, 86640, Note_on_c, 1, 64, 80
1, 86688, Note_on_c, 0, 67, 0
1, 86688, Note_on_c, 0, 72, 0
1, 86688, Note_on_c, 0, 79, 0
1, 86688, Note_on_c, 1, 64, 0
1, 86760, Note_on_c, 0, 74, 72
1, 86760, Note_on_c, 1, 62, 64
1, 86808, Note_on_c, 1, 62, 0
1, 86820, Note_on_c, 1, 71, 64
1, 86868, Note_on_c, 1, 71, 0
1, 86880, Note_on_c, 1, 67, 64
1, 86928, Note_on_c, 1, 67, 0
1, 86940, Note_on_c, 1, 71, 64
1, 86988, Note_on_c, 1, 71, 0
1, 87000, Note_on_c, 1, 62, 64
1, 87048, Note_on_c, 1, 62, 0
1, 87060, Note_on_c, 1, 71, 64
1, 87072, Note_on_c, 0, 74, 0
1, 87090, Note_on_c, 0, 83, 72
1, 87108, Note_on_c, 1, 71, 0
1, 87114, Note_on_c, 0, 83, 0
1, 87120, Note_on_c, 0, 81, 72
1, 87120, Note_on_c, 1, 62, 64
1, 87144, Note_on_c, 0, 81, 0
1, 87150, Note_on_c, 0, 83, 69
1, 87168, Note_on_c, 1, 62, 0
1, 87174, Note_on_c, 0, 83, 0
1, 87180, Note_on_c, 0, 81, 67
1, 87180, Note_on_c, 1, 72, 59
1, 87204, Note_on_c, 0, 81, 0
1, 87210, Note_on_c, 0, 83, 64
1, 87228, Note_on_c, 1, 72, 0
1, 87234, Note_on_c, 0, 83, 0
1, 87240, Note_on_c, 0, 81, 61
1, 87240, Note_on_c, 1, 66, 53
1, 87264, Note_on_c, 0, 81, 0
1, 87270, Note_on_c, 0, 83, 59
1, 87288, Note_on_c, 1, 66, 0
1, 87294, Note_on_c, 0, 83, 0
1, 87300, Note_on_c, 0, 81, 56
1, 87300, Note_on_c, 1, 72, 48
1, 87324, Note_on_c, 0, 81, 0
1, 87330, Note_on_c, 0, 83, 53
1, 87348, Note_on_c, 1, 72, 0
1, 87354, Note_on_c, 0, 83, 0
1, 87360, Note_on_c, 0, 81, 51
1, 87360, Note_on_c, 1, 62, 43
1, 87376, Note_on_c, 0, 81, 0
1, 87380, Note_on_c, 0, 83, 49
1, 87396, Note_on_c, 0, 83, 0
1, 87400, Note_on_c, 0, 81, 47
1, 87408, Note_on_c, 1, 62, 0
1, 87416, Note_on_c, 0, 81, 0
1, 87420, Note_on_c, 0, 79, 45
1, 87420, Note_on_c, 1, 72, 37
1, 87444, Note_on_c, 0, 79, 0
1, 87450, Note_on_c, 0, 81, 43
1, 87468, Note_on_c, 1, 72, 0
1, 87474, Note_on_c, 0, 81, 0
1, 87480, Note_on_c, 0, 79, 40
1, 87480, Note_on_c, 1, 67, 32
1, 87480, Note_on_c, 1, 71, 32
1, 87516, Note_on_c, 0, 79, 0
1, 87516, Note_on_c, 1, 71, 0
1, 87516, Note_on_c, 1, 67, 0
1, 87720, Note_on_c, 0, 86, 40
1, 87756, Note_on_c, 0, 86, 0
1, 87840, Note_on_c, 0, 84, 40
1, 87960, Note_on_c, 0, 84, 0
1, 87960, Note_on_c, 0, 83, 40
1, 87996, Note_on_c, 0, 83, 0
1, 88080, Note_on_c, 0, 83, 40
1, 88080, Note_on_c, 1, 63, 32
1, 88080, Note_on_c, 1, 69, 32
1, 88116, Note_on_c, 0, 83, 0
1, 88116, Note_on_c, 1, 69, 0
1, 88116, Note_on_c, 1, 63, 0
1, 88200, Note_on_c, 0, 83, 40
1, 88200, Note_on_c, 1, 64, 32
1, 88200, Note_on_c, 1, 67, 32
1, 88236, Note_on_c, 0, 83, 0
1, 88236, Note_on_c, 1, 67, 0
1, 88236, Note_on_c, 1, 64, 0
1, 88440, Note_on_c, 0, 83, 40
1, 88476, Note_on_c, 0, 83, 0
1, 88560, Note_on_c, 0, 89, 40
1, 88680, Note_on_c, 0, 89, 0
1, 88680, Note_on_c, 0, 88, 40
1, 88716, Note_on_c, 0, 88, 0
1, 88800, Note_on_c, 0, 88, 40
1, 88800, Note_on_c, 1, 68, 32
1, 88800, Note_on_c, 1, 74, 32
1, 88836, Note_on_c, 0, 88, 0
1, 88836, Note_on_c, 1, 74, 0
1, 88836, Note_on_c, 1, 68, 0
1, 88920, Note_on_c, 0, 88, 40
1, 89040, Note_on_c, 1, 67, 32
1, 89040, Note_on_c, 1, 73, 32
1, 89076, Note_on_c, 1, 73, 0
1, 89076, Note_on_c, 1, 67, 0
1, 89160, Note_on_c, 0, 88, 0
1, 89160, Note_on_c, 0, 81, 40
1, 89160, Note_on_c, 1, 66, 32
1, 89160, Note_on_c, 1, 72, 32
1, 89196, Note_on_c, 0, 81, 0
1, 89196, Note_on_c, 1, 72, 0
1, 89196, Note_on_c, 1, 66, 0
1, 89280, Note_on_c, 0, 86, 40
1, 89400, Note_on_c, 1, 65, 32
1, 89400, Note_on_c, 1, 71, 32
1, 89436, Note_on_c, 1, 71, 0
1, 89436, Note_on_c, 1, 65, 0
1, 89520, Note_on_c, 0, 86, 0
1, 89520, Note_on_c, 0, 79, 40
1, 89520, Note_on_c, 1, 64, 32
1, 89520, Note_on_c, 1, 72, 32
1, 89556, Note_on_c, 0, 79, 0
1, 89556, Note_on_c, 1, 72, 0
1, 89556, Note_on_c, 1, 64, 0
1, 89640, Note_on_c, 0, 84, 40
1, 89640, Note_on_c, 1, 62, 32
1, 89640, Note_on_c, 1, 66, 32
1, 89676, Note_on_c, 0, 84, 0
1, 89676, Note_on_c, 1, 66, 0
1, 89676, Note_on_c, 1, 62, 0
1, 89880, Note_on_c, 0, 83, 40
1, 89880, Note_on_c, 1, 64, 32
1, 89880, Note_on_c, 1, 67, 32
1, 89916, Note_on_c, 1, 67, 0
1, 89916, Note_on_c, 1, 64, 0
1, 89952, Note_on_c, 0, 83, 0
1, 89970, Note_on_c, 0, 83, 40
1, 89994, Note_on_c, 0, 83, 0
1, 90000, Note_on_c, 0, 81, 40
1, 90000, Note_on_c, 1, 60, 32
1, 90000, Note_on_c, 1, 67, 32
1, 90012, Note_on_c, 0, 81, 0
1, 90030, Note_on_c, 0, 83, 40
1, 90042, Note_on_c, 0, 83, 0
1, 90060, Note_on_c, 0, 81, 40
1, 90072, Note_on_c, 0, 81, 0
1, 90090, Note_on_c, 0, 83, 40
1, 90096, Note_on_c, 1, 60, 0
1, 90102, Note_on_c, 0, 83, 0
1, 90120, Note_on_c, 0, 81, 40
1, 90120, Note_on_c, 1, 57, 32
1, 90132, Note_on_c, 0, 81, 0
1, 90150, Note_on_c, 0, 83, 40
1, 90162, Note_on_c, 0, 83, 0
1, 90180, Note_on_c, 0, 81, 40
1, 90192, Note_on_c, 0, 81, 0
1, 90210, Note_on_c, 0, 83, 40
1, 90216, Note_on_c, 1, 57, 0
1, 90216, Note_on_c, 1, 67, 0
1, 90222, Note_on_c, 0, 83, 0
1, 90240, Note_on_c, 0, 81, 40
1, 90240, Note_on_c, 1, 62, 32
1, 90240, Note_on_c, 1, 66, 32
1, 90248, Note_on_c, 0, 81, 0
1, 90260, Note_on_c, 0, 83, 40
1, 90268, Note_on_c, 0, 83, 0
1, 90280, Note_on_c, 0, 81, 40
1, 90288, Note_on_c, 0, 81, 0
1, 90300, Note_on_c, 0, 79, 40
1, 90312, Note_on_c, 0, 79, 0
1, 90330, Note_on_c, 0, 81, 40
1, 90336, Note_on_c, 1, 66, 0
1, 90336, Note_on_c, 1, 62, 0
1, 90342, Note_on_c, 0, 81, 0
1, 90360, Note_on_c, 0, 79, 40
1, 90360, Note_on_c, 1, 67, 32
1, 90396, Note_on_c, 0, 79, 0
1, 90396, Note_on_c, 1, 67, 0
1, 90480, Note_on_c, 1, 55, 32
1, 90516, Note_on_c, 1, 55, 0
1, 90600, Note_on_c, 1, 62, 72
1, 90636, Note_on_c, 1, 62, 0
1, 90720, Note_on_c, 1, 60, 72
1, 90816, Note_on_c, 1, 60, 0
1, 90840, Note_on_c, 1, 59, 72
1, 90876, Note_on_c, 1, 59, 0
1, 90960, Note_on_c, 0, 70, 48
1, 90960, Note_on_c, 0, 76, 48
1, 90960, Note_on_c, 1, 59, 72
1, 90996, Note_on_c, 0, 76, 0
1, 90996, Note_on_c, 0, 70, 0
1, 90996, Note_on_c, 1, 59, 0
1, 91080, Note_on_c, 0, 71, 48
1, 91080, Note_on_c, 0, 75, 48
1, 91080, Note_on_c, 1, 59, 72
1, 91116, Note_on_c, 0, 75, 0
1, 91116, Note_on_c, 0, 71, 0
1, 91116, Note_on_c, 1, 59, 0
1, 91320, Note_on_c, 1, 59, 72
1, 91416, Note_on_c, 1, 59, 0
1, 91440, Note_on_c, 1, 65, 72
1, 91560, Note_on_c, 1, 65, 0
1, 91560, Note_on_c, 1, 64, 72
1, 91596, Note_on_c, 1, 64, 0
1, 91680, Note_on_c, 0, 69, 48
1, 91680, Note_on_c, 0, 75, 48
1, 91680, Note_on_c, 1, 64, 72
1, 91716, Note_on_c, 0, 75, 0
1, 91716, Note_on_c, 0, 69, 0
1, 91716, Note_on_c, 1, 64, 0
1, 91800, Note_on_c, 1, 64, 72
1, 91920, Note_on_c, 0, 68, 48
1, 91920, Note_on_c, 0, 74, 48
1, 92040, Note_on_c, 0, 74, 0
1, 92040, Note_on_c, 0, 68, 0
1, 92040, Note_on_c, 0, 67, 48
1, 92040, Note_on_c, 0, 73, 48
1, 92040, Note_on_c, 1, 64, 0
1, 92040, Note_on_c, 1, 57, 72
1, 92076, Note_on_c, 0, 73, 0
1, 92076, Note_on_c, 0, 67, 0
1, 92076, Note_on_c, 1, 57, 0
1, 92160, Note_on_c, 1, 62, 72
1, 92280, Note_on_c, 0, 66, 48
1, 92280, Note_on_c, 0, 72, 48
1, 92400, Note_on_c, 0, 72, 0
1, 92400, Note_on_c, 0, 66, 0
1, 92400, Note_on_c, 0, 71, 48
1, 92400, Note_on_c, 0, 67, 48
1, 92400, Note_on_c, 1, 62, 0
1, 92400, Note_on_c, 1, 55, 72
1, 92436, Note_on_c, 0, 67, 0
1, 92436, Note_on_c, 0, 71, 0
1, 92436, Note_on_c, 1, 55, 0
1, 92520, Note_on_c, 0, 67, 48
1, 92520, Note_on_c, 0, 76, 48
1, 92520, Note_on_c, 1, 60, 72
1, 92556, Note_on_c, 0, 76, 0
1, 92556, Note_on_c, 0, 67, 0
1, 92556, Note_on_c, 1, 60, 0
1, 92880, Note_on_c, 0, 66, 40
1, 92880, Note_on_c, 0, 72, 40
1, 92880, Note_on_c, 1, 62, 40
1, 92916, Note_on_c, 0, 72, 0
1, 92916, Note_on_c, 0, 66, 0
1, 92916, Note_on_c, 1, 62, 0
1, 93240, Note_on_c, 0, 71, 40
1, 93288, Note_on_c, 0, 71, 0
1, 93300, Note_on_c, 0, 74, 40
1, 93348, Note_on_c, 0, 74, 0
1, 93360, Note_on_c, 0, 79, 40
1, 93408, Note_on_c, 0, 79, 0
1, 93420, Note_on_c, 0, 83, 40
1, 93468, Note_on_c, 0, 83, 0
1, 93480, Note_on_c, 0, 86, 80
1, 93480, Note_on_c, 1, 59, 80
1, 93480, Note_on_c, 1, 62, 80
1, 93480, Note_on_c, 1, 67, 80
1, 93516, Note_on_c, 0, 86, 0
1, 93516, Note_on_c, 1, 67, 0
1, 93516, Note_on_c, 1, 62, 0
1, 93516, Note_on_c, 1, 59, 0
1, 93600, Note_on_c, 0, 72, 40
1, 93648, Note_on_c, 0, 72, 0
1, 93660, Note_on_c, 0, 76, 40
1, 93708, Note_on_c, 0, 76, 0
1, 93720, Note_on_c, 0, 79, 40
1, 93768, Note_on_c, 0, 79, 0
1, 93780, Note_on_c, 0, 84, 40
1, 93828, Note_on_c, 0, 84, 0
1, 93840, Note_on_c, 0, 88, 80
1, 93840, Note_on_c, 1, 60, 80
1, 93840, Note_on_c, 1, 64, 80
1, 93840, Note_on_c, 1, 67, 80
1, 93876, Note_on_c, 0, 88, 0
1, 93876, Note_on_c, 1, 67, 0
1, 93876, Note_on_c, 1, 64, 0
1, 93876, Note_on_c, 1, 60, 0
1, 93960, Note_on_c, 1, 43, 56
1, 94008, Note_on_c, 1, 43, 0
1, 94020, Note_on_c, 1, 47, 56
1, 94068, Note_on_c, 1, 47, 0
1, 94080, Note_on_c, 1, 50, 56
1, 94128, Note_on_c, 1, 50, 0
1, 94140, Note_on_c, 1, 55, 56
1, 94188, Note_on_c, 1, 55, 0
1, 94200, Note_on_c, 0, 86, 80
1, 94200, Note_on_c, 0, 79, 80
1, 94200, Note_on_c, 0, 74, 80
1, 94200, Note_on_c, 1, 59, 56
1, 94236, Note_on_c, 0, 74, 0
1, 94236, Note_on_c, 0, 79, 0
1, 94236, Note_on_c, 0, 86, 0
1, 94236, Note_on_c, 1, 59, 0
1, 94320, Note_on_c, 1, 48, 64
1, 94368, Note_on_c, 1, 48, 0
1, 94380, Note_on_c, 1, 52, 64
1, 94428, Note_on_c, 1, 52, 0
1, 94440, Note_on_c, 1, 55, 64
1, 94488, Note_on_c, 1, 55, 0
1, 94500, Note_on_c, 1, 60, 64
1, 94548, Note_on_c, 1, 60, 0
1, 94560, Note_on_c, 0, 84, 80
1, 94560, Note_on_c, 0, 79, 80
1, 94560, Note_on_c, 0, 76, 80
1, 94560, Note_on_c, 0, 72, 80
1, 94560, Note_on_c, 1, 64, 56
1, 94596, Note_on_c, 0, 72, 0
1, 94596, Note_on_c, 0, 84, 0
1, 94596, Note_on_c, 0, 79, 0
1, 94596, Note_on_c, 0, 76, 0
1, 94596, Note_on_c, 1, 64, 0
1, 94680, Note_on_c, 0, 79, 72
1, 94680, Note_on_c, 0, 74, 72
1, 94680, Note_on_c, 0, 71, 72
1, 94680, Note_on_c, 1, 38, 80
1, 94680, Note_on_c, 1, 50, 80
1, 94728, Note_on_c, 0, 71, 0
1, 94728, Note_on_c, 0, 74, 0
1, 94728, Note_on_c, 0, 79, 0
1, 94740, Note_on_c, 0, 83, 72
1, 94788, Note_on_c, 0, 83, 0
1, 94800, Note_on_c, 0, 79, 72
1, 94800, Note_on_c, 0, 74, 72
1, 94800, Note_on_c, 0, 71, 72
1, 94824, Note_on_c, 1, 50, 0
1, 94824, Note_on_c, 1, 38, 0
1, 94848, Note_on_c, 0, 71, 0
1, 94848, Note_on_c, 0, 74, 0
1, 94848, Note_on_c, 0, 79, 0
1, 94860, Note_on_c, 0, 83, 72
1, 94908, Note_on_c, 0, 83, 0
1, 94920, Note_on_c, 0, 79, 72
1, 94920, Note_on_c, 0, 74, 72
1, 94920, Note_on_c, 0, 71, 72
1, 94920, Note_on_c, 1, 43, 80
1, 94920, Note_on_c, 1, 55, 80
1, 94956, Note_on_c, 1, 55, 0
1, 94956, Note_on_c, 1, 43, 0
1, 94968, Note_on_c, 0, 71, 0
1, 94968, Note_on_c, 0, 74, 0
1, 94968, Note_on_c, 0, 79, 0
1, 94980, Note_on_c, 0, 83, 72
1, 95028, Note_on_c, 0, 83, 0
1, 95040, Note_on_c, 0, 79, 72
1, 95040, Note_on_c, 0, 74, 72
1, 95040, Note_on_c, 0, 71, 72
1, 95040, Note_on_c, 1, 47, 80
1, 95040, Note_on_c, 1, 59, 80
1, 95088, Note_on_c, 0, 71, 0
1, 95088, Note_on_c, 0, 74, 0
1, 95088, Note_on_c, 0, 79, 0
1, 95100, Note_on_c, 0, 83, 72
1, 95148, Note_on_c, 0, 83, 0
1, 95160, Note_on_c, 0, 74, 72
1, 95160, Note_on_c, 0, 71, 72
1, 95160, Note_on_c, 0, 79, 72
1, 95208, Note_on_c, 0, 79, 0
1, 95208, Note_on_c, 0, 71, 0
1, 95208, Note_on_c, 0, 74, 0
1, 95208, Note_on_c, 1, 59, 0
1, 95208, Note_on_c, 1, 47, 0
1, 95220, Note_on_c, 0, 83, 72
1, 95268, Note_on_c, 0, 83, 0
1, 95280, Note_on_c, 0, 79, 72
1, 95280, Note_on_c, 0, 74, 72
1, 95280, Note_on_c, 0, 71, 72
1, 95280, Note_on_c, 1, 50, 80
1, 95280, Note_on_c, 1, 62, 80
1, 95316, Note_on_c, 1, 62, 0
1, 95316, Note_on_c, 1, 50, 0
1, 95328, Note_on_c, 0, 71, 0
1, 95328, Note_on_c, 0, 74, 0
1, 95328, Note_on_c, 0, 79, 0
1, 95340, Note_on_c, 0, 83, 72
1, 95388, Note_on_c, 0, 83, 0
1, 95400, Note_on_c, 0, 78, 72
1, 95400, Note_on_c, 0, 74, 72
1, 95400, Note_on_c, 0, 69, 72
1, 95400, Note_on_c, 1, 48, 80
1, 95400, Note_on_c, 1, 60, 80
1, 95448, Note_on_c, 0, 69, 0
1, 95448, Note_on_c, 0, 74, 0
1, 95448, Note_on_c, 0, 78, 0
1, 95460, Note_on_c, 0, 81, 72
1, 95496, Note_on_c, 1, 60, 0
1, 95496, Note_on_c, 1, 48, 0
1, 95508, Note_on_c, 0, 81, 0
1, 95520, Note_on_c, 0, 78, 72
1, 95520, Note_on_c, 0, 74, 72
1, 95520, Note_on_c, 0, 69, 72
1, 95520, Note_on_c, 1, 48, 80
1, 95520, Note_on_c, 1, 60, 80
1, 95568, Note_on_c, 0, 69, 0
1, 95568, Note_on_c, 0, 74, 0
1, 95568, Note_on_c, 0, 78, 0
1, 95580, Note_on_c, 0, 81, 72
1, 95616, Note_on_c, 1, 60, 0
1, 95616, Note_on_c, 1, 48, 0
1, 95628, Note_on_c, 0, 81, 0
1, 95640, Note_on_c, 0, 78, 72
1, 95640, Note_on_c, 0, 74, 72
1, 95640, Note_on_c, 0, 69, 72
1, 95640, Note_on_c, 1, 45, 80
1, 95640, Note_on_c, 1, 57, 80
1, 95688, Note_on_c, 0, 69, 0
1, 95688, Note_on_c, 0, 74, 0
1, 95688, Note_on_c, 0, 78, 0
1, 95700, Note_on_c, 0, 81, 72
1, 95736, Note_on_c, 1, 57, 0
1, 95736, Note_on_c, 1, 45, 0
1, 95748, Note_on_c, 0, 81, 0
1, 95760, Note_on_c, 0, 69, 72
1, 95760, Note_on_c, 0, 74, 72
1, 95760, Note_on_c, 0, 78, 72
1, 95760, Note_on_c, 1, 42, 80
1, 95760, Note_on_c, 1, 54, 80
1, 95796, Note_on_c, 1, 54, 0
1, 95796, Note_on_c, 1, 42, 0
1, 95808, Note_on_c, 0, 78, 0
1, 95808, Note_on_c, 0, 74, 0
1, 95808, Note_on_c, 0, 69, 0
1, 95820, Note_on_c, 0, 81, 72
1, 95868, Note_on_c, 0, 81, 0
1, 95880, Note_on_c, 0, 69, 72
1, 95880, Note_on_c, 0, 74, 72
1, 95880, Note_on_c, 0, 78, 72
1, 95880, Note_on_c, 1, 42, 80
1, 95880, Note_on_c, 1, 54, 80
1, 95916, Note_on_c, 1, 54, 0
1, 95916, Note_on_c, 1, 42, 0
1, 95928, Note_on_c, 0, 78, 0
1, 95928, Note_on_c, 0, 74, 0
1, 95928, Note_on_c, 0, 69, 0
1, 95940, Note_on_c, 0, 81, 72
1, 95988, Note_on_c, 0, 81, 0
1, 96000, Note_on_c, 0, 69, 72
1, 96000, Note_on_c, 0, 74, 72
1, 96000, Note_on_c, 0, 78, 72
1, 96000, Note_on_c, 1, 38, 80
1, 96000, Note_on_c, 1, 50, 80
1, 96048, Note_on_c, 0, 78, 0
1, 96048, Note_on_c, 0, 74, 0
1, 96048, Note_on_c, 0, 69, 0
1, 96060, Note_on_c, 0, 81, 72
1, 96108, Note_on_c, 0, 81, 0
1, 96120, Note_on_c, 0, 71, 80
1, 96120, Note_on_c, 0, 74, 80
1, 96120, Note_on_c, 0, 79, 80
1, 96120, Note_on_c, 1, 50, 0
1, 96120, Note_on_c, 1, 38, 0
1, 96120, Note_on_c, 1, 43, 56
1, 96120, Note_on_c, 1, 55, 56
1, 96180, Note_on_c, 0, 79, 0
1, 96180, Note_on_c, 0, 74, 0
1, 96180, Note_on_c, 0, 71, 0
1, 96180, Note_on_c, 1, 55, 0
1, 96180, Note_on_c, 1, 43, 0
1, 96360, Note_on_c, 0, 71, 48
1, 96360, Note_on_c, 1, 59, 48
1, 96456, Note_on_c, 0, 71, 0
1, 96456, Note_on_c, 1, 59, 0
1, 96480, Note_on_c, 0, 72, 48
1, 96480, Note_on_c, 1, 60, 48
1, 96516, Note_on_c, 0, 72, 0
1, 96516, Note_on_c, 1, 60, 0
1, 96600, Note_on_c, 0, 73, 48
1, 96600, Note_on_c, 1, 61, 48
1, 96636, Note_on_c, 0, 73, 0
1, 96636, Note_on_c, 1, 61, 0
1, 96720, Note_on_c, 0, 74, 48
1, 96720, Note_on_c, 1, 62, 48
1, 96756, Note_on_c, 0, 74, 0
1, 96756, Note_on_c, 1, 62, 0
1, 96840, Note_on_c, 0, 75, 48
1, 96840, Note_on_c, 1, 63, 48
1, 96876, Note_on_c, 0, 75, 0
1, 96876, Note_on_c, 1, 63, 0
1, 96960, Note_on_c, 0, 76, 48
1, 96960, Note_on_c, 1, 64, 48
1, 96996, Note_on_c, 0, 76, 0
1, 96996, Note_on_c, 1, 64, 0
1, 97080, Note_on_c, 0, 73, 48
1, 97080, Note_on_c, 1, 61, 48
1, 97200, Note_on_c, 0, 73, 0
1, 97200, Note_on_c, 0, 74, 48
1, 97200, Note_on_c, 1, 61, 0
1, 97200, Note_on_c, 1, 62, 48
1, 97236, Note_on_c, 0, 74, 0
1, 97236, Note_on_c, 1, 62, 0
1, 97440, Note_on_c, 0, 74, 48
1, 97440, Note_on_c, 1, 62, 48
1, 97476, Note_on_c, 0, 74, 0
1, 97476, Note_on_c, 1, 62, 0
1, 97560, Note_on_c, 0, 67, 48
1, 97560, Note_on_c, 1, 55, 48
1, 97596, Note_on_c, 0, 67, 0
1, 97596, Note_on_c, 1, 55, 0
1, 97800, Note_on_c, 0, 74, 88
1, 97800, Note_on_c, 0, 78, 88
1, 97800, Note_on_c, 0, 81, 88
1, 97800, Note_on_c, 0, 84, 88
1, 97800, Note_on_c, 1, 38, 88
1, 97800, Note_on_c, 1, 50, 88
1, 97836, Note_on_c, 0, 84, 0
1, 97836, Note_on_c, 0, 74, 0
1, 97836, Note_on_c, 0, 78, 0
1, 97836, Note_on_c, 0, 81, 0
1, 97836, Note_on_c, 1, 50, 0
1, 97836, Note_on_c, 1, 38, 0
1, 97920, Note_on_c, 0, 74, 88
1, 97920, Note_on_c, 0, 79, 88
1, 97920, Note_on_c, 0, 83, 88
1, 97920, Note_on_c, 1, 31, 88
1, 97920, Note_on_c, 1, 43, 88
1, 98016, Note_on_c, 0, 83, 0
1, 98016, Note_on_c, 0, 79, 0
1, 98016, Note_on_c, 0, 74, 0
1, 98016, Note_on_c, 1, 43, 0
1, 98016, Note_on_c, 1, 31, 0
1, 98280, Note_on_c, 1, 50, 96
1, 98295, Note_on_c, 1, 54, 96
1, 98310, Note_on_c, 1, 57, 96
1, 98325, Note_on_c, 1, 62, 96
1, 98340, Note_on_c, 0, 69, 96
1, 98355, Note_on_c, 0, 72, 96
1, 98370, Note_on_c, 0, 74, 96
1, 98385, Note_on_c, 0, 78, 96
1, 98397, Note_on_c, 0, 69, 0
1, 98400, Note_on_c, 0, 69, 96
1, 98457, Note_on_c, 0, 69, 0
1, 98457, Note_on_c, 0, 78, 0
1, 98457, Note_on_c, 0, 74, 0
1, 98457, Note_on_c, 0, 72, 0
1, 98457, Note_on_c, 1, 62, 0
1, 98457, Note_on_c, 1, 50, 0
1, 98457, Note_on_c, 1, 54, 0
1, 98457, Note_on_c, 1, 57, 0
1, 99000, Note_on_c, 1, 43, 96
1, 99015, Note_on_c, 1, 47, 96
1, 99030, Note_on_c, 1, 50, 96
1, 99045, Note_on_c, 1, 55, 96
1, 99060, Note_on_c, 0, 67, 96
1, 99075, Note_on_c, 0, 71, 96
1, 99090, Note_on_c, 0, 74, 96
1, 99105, Note_on_c, 0, 79, 96
1, 99168, Note_on_c, 0, 79, 0
1, 99168, Note_on_c, 0, 67, 0
1, 99168, Note_on_c, 0, 71, 0
1, 99168, Note_on_c, 0, 74, 0
1, 99168, Note_on_c, 1, 55, 0
1, 99168, Note_on_c, 1, 43, 0
1, 99168, Note_on_c, 1, 47, 0
1, 99168, Note_on_c, 1, 50, 0
1, 99178, End_track
0, 0, End_of_file