0, 0, Header, 0, 1, 120
1, 0, Start_track
1, 0, Tempo, 428571
1, 0, Note_on_c, 0, 77, 80
1, 0, Note_on_c, 1, 69, 66
1, 123, Note_on_c, 1, 72, 58
1, 129, Note_on_c, 1, 69, 0
1, 233, Note_on_c, 1, 72, 0
1, 239, Note_on_c, 0, 81, 85
1, 240, Note_on_c, 0, 77, 0
1, 242, Note_on_c, 1, 65, 58
1, 361, Note_on_c, 1, 65, 0
1, 362, Note_on_c, 1, 72, 62
1, 469, Note_on_c, 0, 81, 0
1, 472, Note_on_c, 1, 72, 0
1, 480, Note_on_c, 0, 81, 72
1, 481, Note_on_c, 1, 70, 54
1, 540, Note_on_c, 0, 79, 80
1, 550, Note_on_c, 0, 81, 0
1, 592, Note_on_c, 0, 79, 0
1, 593, Note_on_c, 1, 70, 0
1, 599, Note_on_c, 1, 72, 52
1, 601, Note_on_c, 0, 79, 85
1, 661, Note_on_c, 0, 76, 80
1, 662, Note_on_c, 0, 79, 0
1, 716, Note_on_c, 1, 72, 0
1, 721, Note_on_c, 0, 77, 89
1, 721, Note_on_c, 1, 69, 66
1, 724, Note_on_c, 0, 76, 0
1, 839, Note_on_c, 1, 69, 0
1, 840, Note_on_c, 1, 72, 46
1, 898, Note_on_c, 0, 77, 0
1, 901, Note_on_c, 0, 81, 85
1, 951, Note_on_c, 0, 81, 0
1, 961, Note_on_c, 0, 81, 93
1, 962, Note_on_c, 1, 70, 66
1, 964, Note_on_c, 1, 72, 0
1, 1021, Note_on_c, 0, 79, 76
1, 1025, Note_on_c, 0, 81, 0
1, 1070, Note_on_c, 0, 79, 0
1, 1076, Note_on_c, 1, 70, 0
1, 1081, Note_on_c, 0, 79, 68
1, 1082, Note_on_c, 1, 72, 49
1, 1141, Note_on_c, 0, 76, 76
1, 1143, Note_on_c, 0, 79, 0
1, 1189, Note_on_c, 1, 72, 0
1, 1198, Note_on_c, 0, 76, 0
1, 1200, Note_on_c, 1, 69, 66
1, 1201, Note_on_c, 0, 77, 85
1, 1314, Note_on_c, 1, 69, 0
1, 1319, Note_on_c, 1, 72, 54
1, 1379, Note_on_c, 0, 81, 80
1, 1382, Note_on_c, 0, 77, 0
1, 1405, Note_on_c, 1, 72, 0
1, 1437, Note_on_c, 0, 81, 0
1, 1439, Note_on_c, 0, 84, 85
1, 1439, Note_on_c, 1, 67, 66
1, 1439, Note_on_c, 1, 72, 50
1, 1499, Note_on_c, 0, 82, 80
1, 1503, Note_on_c, 0, 84, 0
1, 1552, Note_on_c, 0, 82, 0
1, 1559, Note_on_c, 0, 82, 80
1, 1561, Note_on_c, 1, 67, 0
1, 1561, Note_on_c, 1, 64, 62
1, 1619, Note_on_c, 0, 79, 76
1, 1621, Note_on_c, 0, 82, 0
1, 1671, Note_on_c, 1, 64, 0
1, 1681, Note_on_c, 0, 82, 76
1, 1681, Note_on_c, 1, 65, 62
1, 1684, Note_on_c, 0, 79, 0
1, 1739, Note_on_c, 0, 81, 76
1, 1746, Note_on_c, 0, 82, 0
1, 1783, Note_on_c, 0, 81, 0
1, 1789, Note_on_c, 1, 65, 0
1, 1799, Note_on_c, 0, 81, 85
1, 1800, Note_on_c, 1, 69, 49
1, 1857, Note_on_c, 0, 81, 0
1, 1858, Note_on_c, 0, 77, 68
1, 1915, Note_on_c, 1, 72, 0
1, 1918, Note_on_c, 0, 77, 0
1, 1919, Note_on_c, 0, 74, 76
1, 1919, Note_on_c, 1, 69, 0
1, 1921, Note_on_c, 1, 70, 70
1, 2036, Note_on_c, 1, 70, 0
1, 2040, Note_on_c, 1, 58, 62
1, 2099, Note_on_c, 0, 76, 72
1, 2103, Note_on_c, 0, 74, 0
1, 2160, Note_on_c, 0, 77, 80
1, 2161, Note_on_c, 1, 62, 62
1, 2162, Note_on_c, 1, 58, 0
1, 2166, Note_on_c, 0, 76, 0
1, 2274, Note_on_c, 0, 77, 0
1, 2279, Note_on_c, 0, 79, 80
1, 2280, Note_on_c, 1, 62, 0
1, 2280, Note_on_c, 1, 59, 62
1, 2280, Note_on_c, 1, 65, 70
1, 2398, Note_on_c, 0, 72, 76
1, 2400, Note_on_c, 0, 79, 0
1, 2403, Note_on_c, 1, 60, 54
1, 2404, Note_on_c, 1, 59, 0
1, 2520, Note_on_c, 1, 64, 62
1, 2522, Note_on_c, 1, 65, 0
1, 2581, Note_on_c, 1, 64, 0
1, 2581, Note_on_c, 1, 62, 49
1, 2637, Note_on_c, 1, 62, 0
1, 2639, Note_on_c, 1, 64, 52
1, 2698, Note_on_c, 0, 73, 80
1, 2699, Note_on_c, 0, 72, 0
1, 2759, Note_on_c, 0, 74, 85
1, 2765, Note_on_c, 0, 73, 0
1, 2766, Note_on_c, 1, 60, 0
1, 2770, Note_on_c, 1, 64, 0
1, 2818, Note_on_c, 0, 76, 80
1, 2822, Note_on_c, 0, 74, 0
1, 2879, Note_on_c, 0, 77, 76
1, 2881, Note_on_c, 1, 69, 66
1, 2882, Note_on_c, 0, 76, 0
1, 3003, Note_on_c, 1, 72, 27
1, 3007, Note_on_c, 1, 69, 0
1, 3117, Note_on_c, 1, 72, 0
1, 3119, Note_on_c, 0, 81, 72
1, 3122, Note_on_c, 1, 65, 70
1, 3127, Note_on_c, 0, 77, 0
1, 3242, Note_on_c, 1, 72, 45
1, 3244, Note_on_c, 1, 65, 0
1, 3353, Note_on_c, 0, 81, 0
1, 3354, Note_on_c, 1, 72, 0
1, 3360, Note_on_c, 0, 81, 76
1, 3360, Note_on_c, 1, 70, 70
1, 3419, Note_on_c, 0, 79, 72
1, 3424, Note_on_c, 0, 81, 0
1, 3475, Note_on_c, 1, 70, 0
1, 3476, Note_on_c, 0, 79, 0
1, 3479, Note_on_c, 1, 72, 49
1, 3481, Note_on_c, 0, 79, 80
1, 3535, Note_on_c, 0, 79, 0
1, 3539, Note_on_c, 0, 76, 60
1, 3599, Note_on_c, 0, 77, 72
1, 3601, Note_on_c, 0, 76, 0
1, 3601, Note_on_c, 1, 69, 75
1, 3604, Note_on_c, 1, 72, 0
1, 3720, Note_on_c, 1, 69, 0
1, 3721, Note_on_c, 1, 72, 49
1, 3778, Note_on_c, 0, 77, 0
1, 3779, Note_on_c, 0, 81, 76
1, 3832, Note_on_c, 0, 81, 0
1, 3840, Note_on_c, 1, 72, 0
1, 3841, Note_on_c, 0, 81, 85
1, 3841, Note_on_c, 1, 70, 62
1, 3900, Note_on_c, 0, 79, 80
1, 3907, Note_on_c, 0, 81, 0
1, 3947, Note_on_c, 0, 79, 0
1, 3960, Note_on_c, 0, 79, 89
1, 3962, Note_on_c, 1, 72, 50
1, 3965, Note_on_c, 1, 70, 0
1, 4019, Note_on_c, 0, 79, 0
1, 4020, Note_on_c, 0, 76, 68
1, 4077, Note_on_c, 1, 72, 0
1, 4080, Note_on_c, 0, 76, 0
1, 4081, Note_on_c, 0, 77, 89
1, 4081, Note_on_c, 1, 69, 75
1, 4197, Note_on_c, 1, 69, 0
1, 4202, Note_on_c, 1, 72, 47
1, 4259, Note_on_c, 0, 81, 76
1, 4263, Note_on_c, 0, 77, 0
1, 4284, Note_on_c, 1, 72, 0
1, 4319, Note_on_c, 0, 81, 0
1, 4319, Note_on_c, 1, 67, 52
1, 4319, Note_on_c, 1, 72, 43
1, 4320, Note_on_c, 0, 84, 89
1, 4380, Note_on_c, 0, 82, 76
1, 4386, Note_on_c, 0, 84, 0
1, 4425, Note_on_c, 0, 82, 0
1, 4440, Note_on_c, 0, 82, 80
1, 4440, Note_on_c, 1, 64, 58
1, 4442, Note_on_c, 1, 67, 0
1, 4501, Note_on_c, 0, 79, 72
1, 4505, Note_on_c, 0, 82, 0
1, 4557, Note_on_c, 1, 64, 0
1, 4561, Note_on_c, 0, 79, 0
1, 4561, Note_on_c, 0, 82, 76
1, 4561, Note_on_c, 1, 65, 54
1, 4620, Note_on_c, 0, 81, 62
1, 4626, Note_on_c, 0, 82, 0
1, 4658, Note_on_c, 0, 81, 0
1, 4677, Note_on_c, 1, 65, 0
1, 4680, Note_on_c, 0, 81, 89
1, 4681, Note_on_c, 1, 62, 54
1, 4737, Note_on_c, 0, 81, 0
1, 4739, Note_on_c, 0, 77, 62
1, 4797, Note_on_c, 1, 62, 0
1, 4798, Note_on_c, 0, 77, 0
1, 4799, Note_on_c, 0, 74, 76
1, 4801, Note_on_c, 1, 58, 70
1, 4805, Note_on_c, 1, 72, 0
1, 4922, Note_on_c, 1, 70, 58
1, 4979, Note_on_c, 0, 79, 72
1, 4984, Note_on_c, 0, 74, 0
1, 5035, Note_on_c, 1, 70, 0
1, 5041, Note_on_c, 0, 77, 76
1, 5041, Note_on_c, 1, 60, 46
1, 5041, Note_on_c, 1, 69, 62
1, 5042, Note_on_c, 1, 58, 0
1, 5047, Note_on_c, 0, 79, 0
1, 5075, Note_on_c, 0, 77, 0
1, 5161, Note_on_c, 0, 76, 85
1, 5161, Note_on_c, 0, 70, 72
1, 5161, Note_on_c, 1, 69, 0
1, 5162, Note_on_c, 1, 67, 46
1, 5185, Note_on_c, 0, 76, 0
1, 5188, Note_on_c, 0, 70, 0
1, 5279, Note_on_c, 1, 67, 0
1, 5281, Note_on_c, 0, 70, 64
1, 5281, Note_on_c, 0, 76, 89
1, 5282, Note_on_c, 1, 65, 54
1, 5287, Note_on_c, 1, 60, 0
1, 5402, Note_on_c, 1, 60, 47
1, 5406, Note_on_c, 1, 65, 0
1, 5509, Note_on_c, 0, 76, 0
1, 5511, Note_on_c, 0, 70, 0
1, 5519, Note_on_c, 0, 77, 64
1, 5519, Note_on_c, 0, 69, 64
1, 5520, Note_on_c, 1, 60, 0
1, 5522, Note_on_c, 1, 53, 50
1, 5648, Note_on_c, 0, 69, 0
1, 5651, Note_on_c, 0, 77, 0
1, 5657, Note_on_c, 1, 53, 0
1, 5759, Note_on_c, 0, 79, 85
1, 5761, Note_on_c, 1, 64, 70
1, 5883, Note_on_c, 1, 72, 39
1, 5893, Note_on_c, 1, 64, 0
1, 5988, Note_on_c, 1, 72, 0
1, 5993, Note_on_c, 0, 79, 0
1, 5998, Note_on_c, 0, 81, 80
1, 5999, Note_on_c, 1, 65, 66
1, 6120, Note_on_c, 1, 65, 0
1, 6120, Note_on_c, 1, 72, 41
1, 6240, Note_on_c, 0, 79, 80
1, 6241, Note_on_c, 1, 72, 0
1, 6241, Note_on_c, 1, 67, 70
1, 6250, Note_on_c, 0, 81, 0
1, 6300, Note_on_c, 0, 77, 68
1, 6308, Note_on_c, 0, 79, 0
1, 6343, Note_on_c, 0, 77, 0
1, 6358, Note_on_c, 1, 67, 0
1, 6361, Note_on_c, 0, 77, 62
1, 6361, Note_on_c, 1, 71, 38
1, 6421, Note_on_c, 0, 76, 80
1, 6423, Note_on_c, 0, 77, 0
1, 6464, Note_on_c, 0, 76, 0
1, 6472, Note_on_c, 1, 71, 0
1, 6479, Note_on_c, 1, 69, 75
1, 6481, Note_on_c, 0, 76, 85
1, 6601, Note_on_c, 1, 72, 52
1, 6603, Note_on_c, 1, 69, 0
1, 6710, Note_on_c, 0, 76, 0
1, 6710, Note_on_c, 1, 72, 0
1, 6718, Note_on_c, 0, 79, 89
1, 6721, Note_on_c, 1, 64, 66
1, 6842, Note_on_c, 1, 72, 30
1, 6848, Note_on_c, 1, 64, 0
1, 6899, Note_on_c, 0, 84, 72
1, 6907, Note_on_c, 0, 79, 0
1, 6955, Note_on_c, 1, 72, 0
1, 6959, Note_on_c, 0, 83, 76
1, 6959, Note_on_c, 1, 65, 62
1, 6967, Note_on_c, 0, 84, 0
1, 7021, Note_on_c, 0, 81, 72
1, 7032, Note_on_c, 0, 83, 0
1, 7077, Note_on_c, 1, 65, 0
1, 7079, Note_on_c, 1, 72, 46
1, 7094, Note_on_c, 0, 81, 0
1, 7141, Note_on_c, 0, 81, 76
1, 7161, Note_on_c, 0, 81, 0
1, 7198, Note_on_c, 1, 72, 0
1, 7199, Note_on_c, 1, 67, 66
1, 7200, Note_on_c, 0, 79, 64
1, 7261, Note_on_c, 0, 77, 57
1, 7265, Note_on_c, 0, 79, 0
1, 7315, Note_on_c, 1, 67, 0
1, 7318, Note_on_c, 0, 77, 0
1, 7319, Note_on_c, 1, 71, 49
1, 7381, Note_on_c, 0, 77, 80
1, 7401, Note_on_c, 0, 77, 0
1, 7430, Note_on_c, 1, 71, 0
1, 7438, Note_on_c, 1, 69, 66
1, 7439, Note_on_c, 0, 75, 60
1, 7500, Note_on_c, 0, 76, 76
1, 7501, Note_on_c, 0, 75, 0
1, 7559, Note_on_c, 1, 72, 70
1, 7561, Note_on_c, 1, 69, 0
1, 7565, Note_on_c, 0, 76, 0
1, 7621, Note_on_c, 0, 76, 80
1, 7643, Note_on_c, 0, 76, 0
1, 7671, Note_on_c, 1, 72, 0
1, 7679, Note_on_c, 1, 69, 66
1, 7679, Note_on_c, 1, 65, 49
1, 7680, Note_on_c, 0, 74, 60
1, 7740, Note_on_c, 0, 74, 0
1, 7746, Note_on_c, 0, 76, 76
1, 7767, Note_on_c, 0, 74, 72
1, 7770, Note_on_c, 0, 76, 0
1, 7788, Note_on_c, 0, 74, 0
1, 7788, Note_on_c, 0, 73, 62
1, 7801, Note_on_c, 0, 74, 76
1, 7805, Note_on_c, 0, 73, 0
1, 7828, Note_on_c, 0, 74, 0
1, 7864, Note_on_c, 0, 76, 80
1, 7883, Note_on_c, 0, 76, 0
1, 7919, Note_on_c, 0, 77, 64
1, 7926, Note_on_c, 1, 65, 0
1, 7927, Note_on_c, 1, 69, 0
1, 7938, Note_on_c, 0, 77, 0
1, 7978, Note_on_c, 0, 79, 72
1, 7996, Note_on_c, 0, 79, 0
1, 8038, Note_on_c, 0, 80, 76
1, 8056, Note_on_c, 0, 80, 0
1, 8098, Note_on_c, 0, 81, 80
1, 8114, Note_on_c, 0, 81, 0
1, 8155, Note_on_c, 0, 72, 64
1, 8159, Note_on_c, 1, 64, 66
1, 8161, Note_on_c, 1, 55, 58
1, 8339, Note_on_c, 0, 72, 0
1, 8340, Note_on_c, 0, 74, 72
1, 8370, Note_on_c, 0, 72, 64
1, 8375, Note_on_c, 0, 74, 0
1, 8396, Note_on_c, 0, 72, 0
1, 8396, Note_on_c, 0, 71, 62
1, 8401, Note_on_c, 1, 64, 0
1, 8401, Note_on_c, 1, 62, 58
1, 8453, Note_on_c, 0, 71, 0
1, 8455, Note_on_c, 0, 72, 80
1, 8468, Note_on_c, 0, 72, 0
1, 8513, Note_on_c, 1, 62, 0
1, 8515, Note_on_c, 1, 55, 0
1, 8516, Note_on_c, 0, 74, 72
1, 8533, Note_on_c, 0, 74, 0
1, 8577, Note_on_c, 0, 76, 80
1, 8595, Note_on_c, 0, 76, 0
1, 8638, Note_on_c, 0, 77, 85
1, 8639, Note_on_c, 1, 57, 70
1, 8762, Note_on_c, 1, 60, 37
1, 8764, Note_on_c, 1, 57, 0
1, 8873, Note_on_c, 1, 60, 0
1, 8877, Note_on_c, 0, 76, 76
1, 8882, Note_on_c, 1, 55, 66
1, 8883, Note_on_c, 0, 77, 0
1, 8997, Note_on_c, 1, 55, 0
1, 9001, Note_on_c, 1, 60, 66
1, 9108, Note_on_c, 1, 60, 0
1, 9112, Note_on_c, 0, 74, 72
1, 9113, Note_on_c, 0, 76, 0
1, 9119, Note_on_c, 1, 53, 75
1, 9119, Note_on_c, 1, 55, 70
1, 9158, Note_on_c, 0, 76, 85
1, 9163, Note_on_c, 0, 74, 0
1, 9199, Note_on_c, 0, 77, 76
1, 9201, Note_on_c, 0, 76, 0
1, 9228, Note_on_c, 1, 55, 0
1, 9237, Note_on_c, 0, 77, 0
1, 9238, Note_on_c, 1, 62, 62
1, 9240, Note_on_c, 0, 79, 62
1, 9279, Note_on_c, 0, 81, 76
1, 9280, Note_on_c, 0, 79, 0
1, 9316, Note_on_c, 0, 83, 85
1, 9320, Note_on_c, 0, 81, 0
1, 9358, Note_on_c, 1, 53, 0
1, 9359, Note_on_c, 0, 83, 0
1, 9359, Note_on_c, 1, 52, 54
1, 9359, Note_on_c, 1, 55, 66
1, 9361, Note_on_c, 0, 84, 76
1, 9364, Note_on_c, 1, 62, 0
1, 9482, Note_on_c, 1, 60, 52
1, 9483, Note_on_c, 1, 55, 0
1, 9499, Note_on_c, 0, 84, 0
1, 9589, Note_on_c, 1, 60, 0
1, 9593, Note_on_c, 0, 79, 80
1, 9600, Note_on_c, 1, 52, 0
1, 9601, Note_on_c, 1, 57, 66
1, 9659, Note_on_c, 0, 79, 0
1, 9659, Note_on_c, 0, 77, 64
1, 9718, Note_on_c, 0, 77, 0
1, 9718, Note_on_c, 1, 57, 0
1, 9719, Note_on_c, 1, 60, 50
1, 9782, Note_on_c, 0, 77, 72
1, 9812, Note_on_c, 0, 77, 0
1, 9838, Note_on_c, 1, 60, 0
1, 9839, Note_on_c, 0, 77, 76
1, 9840, Note_on_c, 1, 55, 62
1, 9900, Note_on_c, 0, 76, 76
1, 9901, Note_on_c, 0, 77, 0
1, 9952, Note_on_c, 0, 76, 0
1, 9959, Note_on_c, 1, 55, 0
1, 9960, Note_on_c, 1, 60, 47
1, 10017, Note_on_c, 0, 76, 72
1, 10073, Note_on_c, 1, 60, 0
1, 10074, Note_on_c, 0, 76, 0
1, 10078, Note_on_c, 0, 74, 64
1, 10079, Note_on_c, 1, 55, 62
1, 10079, Note_on_c, 1, 53, 62
1, 10109, Note_on_c, 0, 74, 0
1, 10109, Note_on_c, 0, 76, 64
1, 10139, Note_on_c, 0, 77, 76
1, 10145, Note_on_c, 0, 76, 0
1, 10169, Note_on_c, 0, 78, 76
1, 10172, Note_on_c, 0, 77, 0
1, 10193, Note_on_c, 0, 78, 0
1, 10199, Note_on_c, 0, 79, 76
1, 10201, Note_on_c, 1, 62, 42
1, 10205, Note_on_c, 1, 55, 0
1, 10229, Note_on_c, 0, 80, 60
1, 10232, Note_on_c, 0, 79, 0
1, 10254, Note_on_c, 0, 80, 0
1, 10259, Note_on_c, 0, 81, 59
1, 10289, Note_on_c, 0, 83, 80
1, 10294, Note_on_c, 0, 81, 0
1, 10314, Note_on_c, 1, 62, 0
1, 10319, Note_on_c, 0, 83, 0
1, 10319, Note_on_c, 0, 84, 76
1, 10319, Note_on_c, 1, 55, 62
1, 10319, Note_on_c, 1, 52, 66
1, 10320, Note_on_c, 1, 53, 0
1, 10437, Note_on_c, 1, 55, 0
1, 10439, Note_on_c, 1, 60, 58
1, 10446, Note_on_c, 0, 84, 0
1, 10524, Note_on_c, 1, 52, 0
1, 10528, Note_on_c, 1, 60, 0
1, 10558, Note_on_c, 0, 84, 85
1, 10649, Note_on_c, 0, 84, 0
1, 10649, Note_on_c, 0, 81, 68
1, 10675, Note_on_c, 0, 81, 0
1, 10679, Note_on_c, 0, 78, 76
1, 10679, Note_on_c, 1, 69, 66
1, 10679, Note_on_c, 1, 72, 66
1, 10789, Note_on_c, 1, 72, 0
1, 10789, Note_on_c, 1, 69, 0
1, 10802, Note_on_c, 1, 72, 58
1, 10802, Note_on_c, 1, 69, 75
1, 10912, Note_on_c, 1, 69, 0
1, 10915, Note_on_c, 0, 78, 0
1, 10917, Note_on_c, 1, 72, 0
1, 10919, Note_on_c, 0, 79, 85
1, 10922, Note_on_c, 1, 71, 50
1, 10923, Note_on_c, 1, 67, 50
1, 11012, Note_on_c, 1, 67, 0
1, 11013, Note_on_c, 1, 71, 0
1, 11039, Note_on_c, 0, 81, 89
1, 11044, Note_on_c, 0, 79, 0
1, 11131, Note_on_c, 0, 77, 72
1, 11138, Note_on_c, 0, 81, 0
1, 11159, Note_on_c, 0, 77, 0
1, 11161, Note_on_c, 0, 74, 59
1, 11162, Note_on_c, 1, 59, 62
1, 11162, Note_on_c, 1, 65, 70
1, 11163, Note_on_c, 1, 67, 62
1, 11260, Note_on_c, 1, 65, 0
1, 11262, Note_on_c, 1, 67, 0
1, 11265, Note_on_c, 1, 59, 0
1, 11282, Note_on_c, 1, 67, 52
1, 11282, Note_on_c, 1, 65, 66
1, 11282, Note_on_c, 1, 59, 62
1, 11378, Note_on_c, 1, 65, 0
1, 11381, Note_on_c, 1, 67, 0
1, 11396, Note_on_c, 1, 59, 0
1, 11397, Note_on_c, 0, 74, 0
1, 11398, Note_on_c, 0, 76, 80
1, 11401, Note_on_c, 1, 67, 45
1, 11401, Note_on_c, 1, 64, 70
1, 11402, Note_on_c, 1, 60, 52
1, 11479, Note_on_c, 1, 67, 0
1, 11486, Note_on_c, 1, 60, 0
1, 11486, Note_on_c, 1, 64, 0
1, 11519, Note_on_c, 0, 77, 80
1, 11521, Note_on_c, 1, 65, 70
1, 11521, Note_on_c, 1, 60, 70
1, 11521, Note_on_c, 1, 57, 58
1, 11522, Note_on_c, 0, 76, 0
1, 11581, Note_on_c, 0, 79, 76
1, 11582, Note_on_c, 0, 77, 0
1, 11611, Note_on_c, 0, 81, 72
1, 11613, Note_on_c, 0, 79, 0
1, 11642, Note_on_c, 0, 79, 80
1, 11650, Note_on_c, 0, 81, 0
1, 11671, Note_on_c, 0, 77, 64
1, 11680, Note_on_c, 0, 79, 0
1, 11701, Note_on_c, 0, 76, 76
1, 11706, Note_on_c, 0, 77, 0
1, 11729, Note_on_c, 0, 76, 0
1, 11731, Note_on_c, 0, 74, 57
1, 11753, Note_on_c, 1, 57, 0
1, 11761, Note_on_c, 0, 72, 76
1, 11762, Note_on_c, 1, 64, 75
1, 11762, Note_on_c, 1, 55, 66
1, 11763, Note_on_c, 1, 65, 0
1, 11765, Note_on_c, 0, 74, 0
1, 11876, Note_on_c, 1, 64, 0
1, 11878, Note_on_c, 0, 72, 0
1, 11879, Note_on_c, 0, 74, 80
1, 11880, Note_on_c, 1, 59, 66
1, 11883, Note_on_c, 1, 60, 0
1, 11905, Note_on_c, 0, 74, 0
1, 11995, Note_on_c, 1, 59, 0
1, 11999, Note_on_c, 1, 55, 0
1, 12001, Note_on_c, 0, 71, 64
1, 12001, Note_on_c, 0, 74, 72
1, 12001, Note_on_c, 1, 60, 58
1, 12122, Note_on_c, 1, 55, 54
1, 12134, Note_on_c, 1, 60, 0
1, 12176, Note_on_c, 0, 74, 0
1, 12180, Note_on_c, 0, 75, 64
1, 12228, Note_on_c, 0, 75, 0
1, 12235, Note_on_c, 0, 71, 0
1, 12237, Note_on_c, 1, 55, 0
1, 12239, Note_on_c, 0, 76, 62
1, 12239, Note_on_c, 0, 72, 76
1, 12241, Note_on_c, 1, 52, 50
1, 12361, Note_on_c, 1, 52, 0
1, 12361, Note_on_c, 1, 48, 70
1, 12381, Note_on_c, 0, 72, 0
1, 12389, Note_on_c, 0, 76, 0
1, 12477, Note_on_c, 1, 48, 0
1, 12482, Note_on_c, 0, 84, 89
1, 12511, Note_on_c, 0, 84, 0
1, 12512, Note_on_c, 0, 83, 76
1, 12539, Note_on_c, 0, 83, 0
1, 12542, Note_on_c, 0, 84, 60
1, 12572, Note_on_c, 0, 84, 0
1, 12572, Note_on_c, 0, 81, 76
1, 12602, Note_on_c, 0, 78, 64
1, 12604, Note_on_c, 0, 81, 0
1, 12604, Note_on_c, 1, 72, 70
1, 12604, Note_on_c, 1, 69, 75
1, 12604, Note_on_c, 1, 62, 70
1, 12694, Note_on_c, 1, 62, 0
1, 12695, Note_on_c, 1, 72, 0
1, 12697, Note_on_c, 1, 69, 0
1, 12723, Note_on_c, 1, 62, 62
1, 12723, Note_on_c, 1, 72, 62
1, 12723, Note_on_c, 1, 69, 70
1, 12827, Note_on_c, 0, 78, 0
1, 12836, Note_on_c, 1, 69, 0
1, 12839, Note_on_c, 0, 79, 80
1, 12840, Note_on_c, 1, 72, 0
1, 12843, Note_on_c, 1, 71, 54
1, 12843, Note_on_c, 1, 67, 66
1, 12849, Note_on_c, 1, 62, 0
1, 12901, Note_on_c, 0, 79, 0
1, 12901, Note_on_c, 0, 80, 76
1, 12920, Note_on_c, 1, 67, 0
1, 12925, Note_on_c, 1, 71, 0
1, 12960, Note_on_c, 0, 80, 0
1, 12961, Note_on_c, 0, 81, 68
1, 12991, Note_on_c, 0, 80, 60
1, 12993, Note_on_c, 0, 81, 0
1, 13018, Note_on_c, 0, 80, 0
1, 13021, Note_on_c, 0, 81, 68
1, 13052, Note_on_c, 0, 81, 0
1, 13052, Note_on_c, 0, 77, 76
1, 13079, Note_on_c, 1, 65, 70
1, 13079, Note_on_c, 1, 55, 75
1, 13081, Note_on_c, 1, 59, 75
1, 13082, Note_on_c, 0, 74, 68
1, 13085, Note_on_c, 0, 77, 0
1, 13178, Note_on_c, 1, 55, 0
1, 13187, Note_on_c, 1, 59, 0
1, 13192, Note_on_c, 1, 65, 0
1, 13201, Note_on_c, 1, 65, 58
1, 13202, Note_on_c, 1, 55, 66
1, 13202, Note_on_c, 1, 59, 83
1, 13254, Note_on_c, 0, 74, 0
1, 13261, Note_on_c, 0, 75, 68
1, 13304, Note_on_c, 1, 59, 0
1, 13316, Note_on_c, 1, 55, 0
1, 13319, Note_on_c, 1, 65, 0
1, 13320, Note_on_c, 0, 75, 0
1, 13321, Note_on_c, 0, 76, 76
1, 13322, Note_on_c, 1, 64, 54
1, 13322, Note_on_c, 1, 60, 62
1, 13351, Note_on_c, 0, 77, 72
1, 13356, Note_on_c, 0, 76, 0
1, 13382, Note_on_c, 0, 78, 64
1, 13386, Note_on_c, 0, 77, 0
1, 13391, Note_on_c, 1, 60, 0
1, 13392, Note_on_c, 1, 64, 0
1, 13412, Note_on_c, 0, 79, 62
1, 13413, Note_on_c, 0, 78, 0
1, 13442, Note_on_c, 0, 80, 76
1, 13445, Note_on_c, 0, 79, 0
1, 13497, Note_on_c, 0, 80, 0
1, 13502, Note_on_c, 0, 81, 72
1, 13556, Note_on_c, 0, 81, 0
1, 13561, Note_on_c, 0, 79, 76
1, 13561, Note_on_c, 1, 62, 70
1, 13561, Note_on_c, 1, 57, 79
1, 13561, Note_on_c, 1, 53, 54
1, 13591, Note_on_c, 0, 77, 76
1, 13596, Note_on_c, 0, 79, 0
1, 13620, Note_on_c, 0, 77, 0
1, 13621, Note_on_c, 0, 76, 57
1, 13650, Note_on_c, 1, 62, 0
1, 13651, Note_on_c, 0, 76, 0
1, 13651, Note_on_c, 0, 74, 60
1, 13654, Note_on_c, 1, 57, 0
1, 13667, Note_on_c, 1, 53, 0
1, 13681, Note_on_c, 0, 72, 68
1, 13681, Note_on_c, 1, 55, 62
1, 13681, Note_on_c, 1, 60, 58
1, 13681, Note_on_c, 1, 64, 66
1, 13683, Note_on_c, 0, 74, 0
1, 13782, Note_on_c, 1, 64, 0
1, 13782, Note_on_c, 1, 60, 0
1, 13800, Note_on_c, 0, 76, 60
1, 13802, Note_on_c, 1, 59, 66
1, 13802, Note_on_c, 1, 65, 75
1, 13803, Note_on_c, 0, 72, 0
1, 13861, Note_on_c, 0, 76, 0
1, 13861, Note_on_c, 0, 74, 72
1, 13887, Note_on_c, 1, 59, 0
1, 13894, Note_on_c, 1, 65, 0
1, 13914, Note_on_c, 1, 55, 0
1, 13919, Note_on_c, 0, 74, 0
1, 13920, Note_on_c, 0, 72, 64
1, 13921, Note_on_c, 1, 60, 66
1, 13921, Note_on_c, 1, 64, 66
1, 14040, Note_on_c, 1, 60, 0
1, 14041, Note_on_c, 1, 55, 58
1, 14050, Note_on_c, 0, 72, 0
1, 14101, Note_on_c, 0, 72, 68
1, 14122, Note_on_c, 0, 72, 0
1, 14129, Note_on_c, 0, 71, 53
1, 14152, Note_on_c, 0, 71, 0
1, 14159, Note_on_c, 0, 74, 76
1, 14162, Note_on_c, 1, 60, 52
1, 14165, Note_on_c, 1, 55, 0
1, 14185, Note_on_c, 0, 74, 0
1, 14188, Note_on_c, 0, 72, 62
1, 14216, Note_on_c, 0, 72, 0
1, 14219, Note_on_c, 0, 76, 62
1, 14249, Note_on_c, 0, 74, 76
1, 14251, Note_on_c, 0, 76, 0
1, 14261, Note_on_c, 1, 60, 0
1, 14273, Note_on_c, 0, 74, 0
1, 14279, Note_on_c, 0, 77, 76
1, 14279, Note_on_c, 1, 55, 52
1, 14304, Note_on_c, 0, 77, 0
1, 14308, Note_on_c, 0, 76, 76
1, 14335, Note_on_c, 0, 76, 0
1, 14338, Note_on_c, 0, 79, 60
1, 14363, Note_on_c, 0, 79, 0
1, 14368, Note_on_c, 0, 77, 62
1, 14391, Note_on_c, 0, 77, 0
1, 14397, Note_on_c, 1, 64, 0
1, 14398, Note_on_c, 0, 81, 72
1, 14400, Note_on_c, 1, 55, 0
1, 14402, Note_on_c, 1, 65, 52
1, 14402, Note_on_c, 1, 59, 70
1, 14459, Note_on_c, 0, 79, 85
1, 14465, Note_on_c, 0, 81, 0
1, 14475, Note_on_c, 0, 79, 0
1, 14515, Note_on_c, 1, 59, 0
1, 14520, Note_on_c, 0, 79, 76
1, 14522, Note_on_c, 1, 55, 54
1, 14637, Note_on_c, 1, 55, 0
1, 14642, Note_on_c, 1, 59, 47
1, 14702, Note_on_c, 0, 78, 76
1, 14710, Note_on_c, 0, 79, 0
1, 14751, Note_on_c, 1, 59, 0
1, 14761, Note_on_c, 0, 78, 0
1, 14761, Note_on_c, 1, 55, 54
1, 14763, Note_on_c, 0, 77, 72
1, 14815, Note_on_c, 0, 77, 0
1, 14821, Note_on_c, 0, 74, 64
1, 14873, Note_on_c, 1, 55, 0
1, 14874, Note_on_c, 1, 65, 0
1, 14881, Note_on_c, 0, 74, 0
1, 14882, Note_on_c, 0, 71, 64
1, 14882, Note_on_c, 1, 64, 66
1, 14882, Note_on_c, 1, 60, 62
1, 14940, Note_on_c, 0, 71, 0
1, 14941, Note_on_c, 0, 72, 76
1, 15000, Note_on_c, 1, 60, 0
1, 15003, Note_on_c, 1, 55, 62
1, 15009, Note_on_c, 0, 72, 0
1, 15061, Note_on_c, 0, 72, 76
1, 15092, Note_on_c, 0, 72, 0
1, 15092, Note_on_c, 0, 71, 76
1, 15095, Note_on_c, 1, 55, 0
1, 15115, Note_on_c, 0, 71, 0
1, 15121, Note_on_c, 0, 74, 76
1, 15121, Note_on_c, 1, 60, 62
1, 15146, Note_on_c, 0, 74, 0
1, 15151, Note_on_c, 0, 72, 64
1, 15176, Note_on_c, 0, 72, 0
1, 15181, Note_on_c, 0, 76, 64
1, 15206, Note_on_c, 0, 76, 0
1, 15209, Note_on_c, 0, 74, 72
1, 15231, Note_on_c, 1, 60, 0
1, 15234, Note_on_c, 0, 74, 0
1, 15239, Note_on_c, 0, 77, 76
1, 15242, Note_on_c, 1, 55, 49
1, 15268, Note_on_c, 0, 77, 0
1, 15269, Note_on_c, 0, 76, 60
1, 15295, Note_on_c, 0, 76, 0
1, 15299, Note_on_c, 0, 79, 76
1, 15328, Note_on_c, 0, 79, 0
1, 15328, Note_on_c, 0, 77, 59
1, 15352, Note_on_c, 1, 55, 0
1, 15358, Note_on_c, 0, 77, 0
1, 15359, Note_on_c, 0, 81, 64
1, 15362, Note_on_c, 1, 65, 79
1, 15362, Note_on_c, 1, 59, 66
1, 15364, Note_on_c, 1, 64, 0
1, 15418, Note_on_c, 0, 79, 80
1, 15422, Note_on_c, 0, 81, 0
1, 15437, Note_on_c, 0, 79, 0
1, 15478, Note_on_c, 0, 79, 76
1, 15478, Note_on_c, 1, 59, 0
1, 15482, Note_on_c, 1, 55, 52
1, 15581, Note_on_c, 1, 55, 0
1, 15601, Note_on_c, 1, 59, 50
1, 15662, Note_on_c, 0, 78, 62
1, 15672, Note_on_c, 0, 79, 0
1, 15715, Note_on_c, 0, 78, 0
1, 15720, Note_on_c, 1, 59, 0
1, 15721, Note_on_c, 0, 77, 72
1, 15721, Note_on_c, 1, 55, 54
1, 15781, Note_on_c, 0, 77, 0
1, 15782, Note_on_c, 0, 74, 64
1, 15827, Note_on_c, 1, 55, 0
1, 15838, Note_on_c, 0, 74, 0
1, 15842, Note_on_c, 0, 71, 53
1, 15842, Note_on_c, 1, 60, 50
1, 15842, Note_on_c, 1, 64, 62
1, 15849, Note_on_c, 1, 65, 0
1, 15902, Note_on_c, 0, 72, 57
1, 15904, Note_on_c, 0, 71, 0
1, 15960, Note_on_c, 1, 60, 0
1, 15962, Note_on_c, 1, 48, 62
1, 15965, Note_on_c, 0, 72, 0
1, 15974, Note_on_c, 1, 64, 0
1, 16016, Note_on_c, 1, 48, 0
1, 16021, Note_on_c, 0, 72, 80
1, 16051, Note_on_c, 0, 72, 0
1, 16051, Note_on_c, 0, 71, 80
1, 16075, Note_on_c, 0, 71, 0
1, 16081, Note_on_c, 0, 74, 76
1, 16108, Note_on_c, 0, 74, 0
1, 16111, Note_on_c, 0, 72, 68
1, 16136, Note_on_c, 0, 72, 0
1, 16140, Note_on_c, 0, 76, 76
1, 16168, Note_on_c, 0, 76, 0
1, 16170, Note_on_c, 0, 74, 76
1, 16194, Note_on_c, 0, 74, 0
1, 16199, Note_on_c, 0, 77, 80
1, 16227, Note_on_c, 0, 77, 0
1, 16229, Note_on_c, 0, 76, 76
1, 16254, Note_on_c, 0, 76, 0
1, 16259, Note_on_c, 0, 79, 80
1, 16289, Note_on_c, 0, 77, 72
1, 16292, Note_on_c, 0, 79, 0
1, 16311, Note_on_c, 0, 77, 0
1, 16319, Note_on_c, 0, 81, 76
1, 16379, Note_on_c, 0, 79, 76
1, 16381, Note_on_c, 0, 81, 0
1, 16425, Note_on_c, 0, 79, 0
1, 16440, Note_on_c, 1, 60, 79
1, 16440, Note_on_c, 1, 64, 79
1, 16501, Note_on_c, 0, 76, 93
1, 16524, Note_on_c, 1, 60, 0
1, 16527, Note_on_c, 1, 64, 0
1, 16531, Note_on_c, 0, 76, 0
1, 16531, Note_on_c, 0, 74, 85
1, 16553, Note_on_c, 0, 74, 0
1, 16561, Note_on_c, 0, 77, 85
1, 16591, Note_on_c, 0, 76, 80
1, 16593, Note_on_c, 0, 77, 0
1, 16614, Note_on_c, 0, 76, 0
1, 16621, Note_on_c, 0, 79, 89
1, 16648, Note_on_c, 0, 79, 0
1, 16651, Note_on_c, 0, 77, 68
1, 16673, Note_on_c, 0, 77, 0
1, 16679, Note_on_c, 0, 81, 89
1, 16709, Note_on_c, 0, 81, 0
1, 16711, Note_on_c, 0, 79, 76
1, 16734, Note_on_c, 0, 79, 0
1, 16740, Note_on_c, 0, 82, 80
1, 16770, Note_on_c, 0, 81, 72
1, 16771, Note_on_c, 0, 82, 0
1, 16792, Note_on_c, 0, 81, 0
1, 16799, Note_on_c, 0, 84, 89
1, 16857, Note_on_c, 0, 84, 0
1, 16859, Note_on_c, 0, 82, 80
1, 16903, Note_on_c, 0, 82, 0
1, 16922, Note_on_c, 1, 67, 83
1, 16922, Note_on_c, 1, 64, 83
1, 16922, Note_on_c, 1, 60, 97
1, 16981, Note_on_c, 0, 79, 85
1, 17009, Note_on_c, 0, 79, 0
1, 17012, Note_on_c, 0, 78, 76
1, 17012, Note_on_c, 1, 60, 0
1, 17012, Note_on_c, 1, 64, 0
1, 17017, Note_on_c, 1, 67, 0
1, 17033, Note_on_c, 0, 78, 0
1, 17042, Note_on_c, 0, 81, 93
1, 17071, Note_on_c, 0, 79, 64
1, 17073, Note_on_c, 0, 81, 0
1, 17097, Note_on_c, 0, 79, 0
1, 17102, Note_on_c, 0, 82, 85
1, 17132, Note_on_c, 0, 81, 89
1, 17134, Note_on_c, 0, 82, 0
1, 17157, Note_on_c, 0, 81, 0
1, 17162, Note_on_c, 0, 84, 89
1, 17192, Note_on_c, 0, 82, 68
1, 17193, Note_on_c, 0, 84, 0
1, 17218, Note_on_c, 0, 82, 0
1, 17222, Note_on_c, 0, 86, 93
1, 17248, Note_on_c, 0, 86, 0
1, 17250, Note_on_c, 0, 84, 72
1, 17268, Note_on_c, 0, 84, 0
1, 17282, Note_on_c, 0, 87, 80
1, 17340, Note_on_c, 0, 87, 0
1, 17341, Note_on_c, 0, 86, 80
1, 17355, Note_on_c, 0, 86, 0
1, 17402, Note_on_c, 0, 85, 64
1, 17419, Note_on_c, 0, 85, 0
1, 17462, Note_on_c, 0, 84, 72
1, 17480, Note_on_c, 0, 84, 0
1, 17522, Note_on_c, 0, 83, 68
1, 17537, Note_on_c, 0, 83, 0
1, 17582, Note_on_c, 0, 82, 68
1, 17601, Note_on_c, 0, 82, 0
1, 17642, Note_on_c, 0, 81, 76
1, 17658, Note_on_c, 0, 81, 0
1, 17702, Note_on_c, 0, 80, 76
1, 17717, Note_on_c, 0, 80, 0
1, 17762, Note_on_c, 1, 70, 79
1, 17762, Note_on_c, 1, 64, 92
1, 17763, Note_on_c, 1, 60, 92
1, 17763, Note_on_c, 1, 67, 92
1, 17766, Note_on_c, 0, 79, 80
1, 17828, Note_on_c, 0, 79, 0
1, 17830, Note_on_c, 0, 81, 76
1, 17850, Note_on_c, 0, 81, 0
1, 17851, Note_on_c, 0, 79, 68
1, 17866, Note_on_c, 0, 78, 68
1, 17867, Note_on_c, 0, 79, 0
1, 17879, Note_on_c, 0, 78, 0
1, 17881, Note_on_c, 0, 79, 89
1, 17904, Note_on_c, 0, 79, 0
1, 17947, Note_on_c, 0, 81, 85
1, 17963, Note_on_c, 0, 81, 0
1, 18006, Note_on_c, 0, 84, 89
1, 18065, Note_on_c, 0, 82, 60
1, 18067, Note_on_c, 0, 84, 0
1, 18128, Note_on_c, 0, 79, 76
1, 18131, Note_on_c, 0, 82, 0
1, 18172, Note_on_c, 1, 67, 0
1, 18174, Note_on_c, 1, 64, 0
1, 18183, Note_on_c, 1, 60, 0
1, 18184, Note_on_c, 0, 79, 0
1, 18184, Note_on_c, 0, 76, 57
1, 18188, Note_on_c, 1, 70, 0
1, 18242, Note_on_c, 1, 69, 66
1, 18243, Note_on_c, 0, 76, 0
1, 18245, Note_on_c, 0, 77, 76
1, 18364, Note_on_c, 1, 72, 45
1, 18375, Note_on_c, 1, 69, 0
1, 18422, Note_on_c, 0, 77, 0
1, 18423, Note_on_c, 0, 79, 76
1, 18440, Note_on_c, 0, 77, 64
1, 18448, Note_on_c, 0, 79, 0
1, 18455, Note_on_c, 0, 76, 68
1, 18458, Note_on_c, 0, 77, 0
1, 18468, Note_on_c, 0, 77, 76
1, 18472, Note_on_c, 0, 76, 0
1, 18476, Note_on_c, 1, 72, 0
1, 18482, Note_on_c, 1, 65, 54
1, 18484, Note_on_c, 0, 77, 0
1, 18485, Note_on_c, 0, 81, 72
1, 18602, Note_on_c, 1, 72, 46
1, 18612, Note_on_c, 1, 65, 0
1, 18704, Note_on_c, 0, 81, 0
1, 18720, Note_on_c, 0, 81, 80
1, 18722, Note_on_c, 1, 70, 66
1, 18723, Note_on_c, 1, 72, 0
1, 18781, Note_on_c, 0, 79, 68
1, 18789, Note_on_c, 0, 81, 0
1, 18831, Note_on_c, 0, 79, 0
1, 18835, Note_on_c, 1, 70, 0
1, 18841, Note_on_c, 0, 79, 64
1, 18841, Note_on_c, 1, 72, 50
1, 18901, Note_on_c, 0, 79, 0
1, 18902, Note_on_c, 0, 76, 64
1, 18961, Note_on_c, 1, 72, 0
1, 18962, Note_on_c, 0, 76, 0
1, 18962, Note_on_c, 0, 77, 89
1, 18962, Note_on_c, 1, 69, 70
1, 19083, Note_on_c, 1, 72, 46
1, 19084, Note_on_c, 1, 69, 0
1, 19140, Note_on_c, 0, 77, 0
1, 19142, Note_on_c, 0, 81, 89
1, 19196, Note_on_c, 1, 72, 0
1, 19202, Note_on_c, 0, 78, 76
1, 19202, Note_on_c, 1, 70, 58
1, 19209, Note_on_c, 0, 81, 0
1, 19262, Note_on_c, 0, 78, 0
1, 19263, Note_on_c, 0, 79, 89
1, 19322, Note_on_c, 0, 79, 0
1, 19322, Note_on_c, 1, 72, 49
1, 19323, Note_on_c, 0, 82, 85
1, 19326, Note_on_c, 1, 70, 0
1, 19383, Note_on_c, 0, 76, 80
1, 19386, Note_on_c, 0, 82, 0
1, 19439, Note_on_c, 1, 72, 0
1, 19442, Note_on_c, 1, 69, 79
1, 19443, Note_on_c, 0, 79, 85
1, 19445, Note_on_c, 0, 76, 0
1, 19503, Note_on_c, 0, 77, 72
1, 19504, Note_on_c, 0, 79, 0
1, 19561, Note_on_c, 1, 72, 66
1, 19562, Note_on_c, 1, 69, 0
1, 19621, Note_on_c, 0, 77, 0
1, 19622, Note_on_c, 0, 81, 80
1, 19652, Note_on_c, 1, 72, 0
1, 19681, Note_on_c, 0, 84, 80
1, 19681, Note_on_c, 1, 67, 54
1, 19682, Note_on_c, 1, 72, 75
1, 19686, Note_on_c, 0, 81, 0
1, 19741, Note_on_c, 0, 83, 80
1, 19751, Note_on_c, 0, 84, 0
1, 19797, Note_on_c, 1, 67, 0
1, 19801, Note_on_c, 1, 64, 50
1, 19802, Note_on_c, 0, 82, 76
1, 19805, Note_on_c, 0, 83, 0
1, 19860, Note_on_c, 0, 82, 0
1, 19861, Note_on_c, 0, 79, 80
1, 19921, Note_on_c, 0, 82, 85
1, 19922, Note_on_c, 1, 65, 66
1, 19923, Note_on_c, 0, 79, 0
1, 19929, Note_on_c, 1, 64, 0
1, 19982, Note_on_c, 0, 80, 89
1, 19983, Note_on_c, 0, 82, 0
1, 20035, Note_on_c, 0, 80, 0
1, 20041, Note_on_c, 0, 81, 85
1, 20042, Note_on_c, 1, 69, 62
1, 20043, Note_on_c, 1, 65, 0
1, 20100, Note_on_c, 0, 81, 0
1, 20101, Note_on_c, 0, 77, 62
1, 20161, Note_on_c, 0, 77, 0
1, 20161, Note_on_c, 1, 69, 0
1, 20162, Note_on_c, 0, 74, 76
1, 20162, Note_on_c, 1, 72, 0
1, 20163, Note_on_c, 1, 70, 58
1, 20191, Note_on_c, 0, 74, 0
1, 20225, Note_on_c, 0, 76, 68
1, 20243, Note_on_c, 0, 76, 0
1, 20243, Note_on_c, 0, 74, 72
1, 20253, Note_on_c, 1, 70, 0
1, 20262, Note_on_c, 0, 74, 0
1, 20265, Note_on_c, 0, 73, 43
1, 20276, Note_on_c, 0, 73, 0
1, 20276, Note_on_c, 0, 74, 80
1, 20279, Note_on_c, 1, 58, 50
1, 20343, Note_on_c, 0, 74, 0
1, 20345, Note_on_c, 0, 76, 76
1, 20400, Note_on_c, 1, 58, 0
1, 20401, Note_on_c, 1, 62, 66
1, 20402, Note_on_c, 0, 76, 0
1, 20405, Note_on_c, 0, 77, 80
1, 20466, Note_on_c, 0, 77, 0
1, 20466, Note_on_c, 0, 78, 85
1, 20514, Note_on_c, 1, 62, 0
1, 20520, Note_on_c, 1, 65, 66
1, 20521, Note_on_c, 1, 59, 66
1, 20525, Note_on_c, 0, 78, 0
1, 20527, Note_on_c, 0, 81, 85
1, 20588, Note_on_c, 0, 81, 0
1, 20588, Note_on_c, 0, 79, 80
1, 20638, Note_on_c, 1, 59, 0
1, 20641, Note_on_c, 1, 60, 66
1, 20650, Note_on_c, 0, 72, 72
1, 20651, Note_on_c, 0, 79, 0
1, 20760, Note_on_c, 1, 64, 75
1, 20768, Note_on_c, 1, 65, 0
1, 20850, Note_on_c, 1, 64, 0
1, 20850, Note_on_c, 1, 62, 75
1, 20865, Note_on_c, 1, 62, 0
1, 20881, Note_on_c, 1, 64, 66
1, 20941, Note_on_c, 0, 72, 0
1, 20943, Note_on_c, 0, 74, 85
1, 20972, Note_on_c, 0, 73, 62
1, 20974, Note_on_c, 0, 74, 0
1, 20997, Note_on_c, 0, 73, 0
1, 21001, Note_on_c, 0, 76, 80
1, 21014, Note_on_c, 1, 64, 0
1, 21022, Note_on_c, 1, 60, 0
1, 21031, Note_on_c, 0, 74, 64
1, 21034, Note_on_c, 0, 76, 0
1, 21063, Note_on_c, 0, 77, 72
1, 21064, Note_on_c, 0, 74, 0
1, 21093, Note_on_c, 0, 76, 80
1, 21097, Note_on_c, 0, 77, 0
1, 21120, Note_on_c, 0, 76, 0
1, 21121, Note_on_c, 0, 79, 72
1, 21121, Note_on_c, 1, 69, 79
1, 21138, Note_on_c, 0, 77, 80
1, 21141, Note_on_c, 0, 79, 0
1, 21243, Note_on_c, 1, 72, 46
1, 21252, Note_on_c, 1, 69, 0
1, 21300, Note_on_c, 0, 77, 0
1, 21301, Note_on_c, 0, 79, 80
1, 21319, Note_on_c, 0, 77, 76
1, 21325, Note_on_c, 0, 79, 0
1, 21333, Note_on_c, 0, 76, 72
1, 21336, Note_on_c, 0, 77, 0
1, 21348, Note_on_c, 0, 77, 80
1, 21353, Note_on_c, 0, 76, 0
1, 21358, Note_on_c, 1, 72, 0
1, 21362, Note_on_c, 1, 65, 66
1, 21367, Note_on_c, 0, 77, 0
1, 21368, Note_on_c, 0, 81, 76
1, 21483, Note_on_c, 1, 72, 46
1, 21498, Note_on_c, 1, 65, 0
1, 21592, Note_on_c, 1, 72, 0
1, 21601, Note_on_c, 1, 70, 66
1, 21602, Note_on_c, 0, 81, 0
1, 21602, Note_on_c, 0, 79, 80
1, 21666, Note_on_c, 0, 82, 76
1, 21667, Note_on_c, 0, 79, 0
1, 21722, Note_on_c, 1, 72, 52
1, 21726, Note_on_c, 1, 70, 0
1, 21727, Note_on_c, 0, 76, 76
1, 21729, Note_on_c, 0, 82, 0
1, 21785, Note_on_c, 0, 76, 0
1, 21785, Note_on_c, 0, 79, 76
1, 21836, Note_on_c, 1, 72, 0
1, 21842, Note_on_c, 1, 69, 75
1, 21848, Note_on_c, 0, 77, 85
1, 21851, Note_on_c, 0, 79, 0
1, 21962, Note_on_c, 1, 72, 45
1, 21964, Note_on_c, 1, 69, 0
1, 22026, Note_on_c, 0, 81, 80
1, 22030, Note_on_c, 0, 77, 0
1, 22078, Note_on_c, 1, 72, 0
1, 22082, Note_on_c, 1, 70, 66
1, 22085, Note_on_c, 0, 79, 76
1, 22086, Note_on_c, 0, 81, 0
1, 22119, Note_on_c, 0, 81, 76
1, 22124, Note_on_c, 0, 79, 0
1, 22146, Note_on_c, 0, 82, 62
1, 22151, Note_on_c, 0, 81, 0
1, 22179, Note_on_c, 0, 79, 68
1, 22180, Note_on_c, 0, 82, 0
1, 22200, Note_on_c, 0, 79, 0
1, 22203, Note_on_c, 1, 72, 50
1, 22208, Note_on_c, 0, 76, 76
1, 22210, Note_on_c, 1, 70, 0
1, 22241, Note_on_c, 0, 77, 72
1, 22242, Note_on_c, 0, 76, 0
1, 22267, Note_on_c, 0, 77, 0
1, 22271, Note_on_c, 0, 79, 76
1, 22297, Note_on_c, 0, 76, 72
1, 22298, Note_on_c, 0, 79, 0
1, 22314, Note_on_c, 1, 72, 0
1, 22322, Note_on_c, 1, 69, 75
1, 22323, Note_on_c, 0, 76, 0
1, 22329, Note_on_c, 0, 77, 80
1, 22442, Note_on_c, 1, 69, 0
1, 22442, Note_on_c, 1, 72, 62
1, 22500, Note_on_c, 0, 81, 89
1, 22502, Note_on_c, 0, 77, 0
1, 22534, Note_on_c, 1, 72, 0
1, 22559, Note_on_c, 0, 84, 89
1, 22560, Note_on_c, 0, 81, 0
1, 22561, Note_on_c, 1, 72, 70
1, 22561, Note_on_c, 1, 67, 47
1, 22622, Note_on_c, 0, 83, 80
1, 22623, Note_on_c, 0, 84, 0
1, 22669, Note_on_c, 1, 67, 0
1, 22679, Note_on_c, 1, 64, 50
1, 22682, Note_on_c, 0, 82, 76
1, 22686, Note_on_c, 0, 83, 0
1, 22737, Note_on_c, 0, 82, 0
1, 22742, Note_on_c, 0, 79, 72
1, 22801, Note_on_c, 0, 82, 68
1, 22801, Note_on_c, 1, 65, 62
1, 22804, Note_on_c, 0, 79, 0
1, 22810, Note_on_c, 1, 64, 0
1, 22861, Note_on_c, 0, 80, 80
1, 22862, Note_on_c, 0, 82, 0
1, 22921, Note_on_c, 0, 80, 0
1, 22921, Note_on_c, 1, 65, 0
1, 22921, Note_on_c, 1, 62, 50
1, 22922, Note_on_c, 0, 81, 80
1, 22931, Note_on_c, 1, 72, 0
1, 22978, Note_on_c, 0, 81, 0
1, 22981, Note_on_c, 0, 77, 80
1, 23037, Note_on_c, 0, 77, 0
1, 23042, Note_on_c, 1, 58, 58
1, 23044, Note_on_c, 1, 62, 0
1, 23045, Note_on_c, 0, 74, 68
1, 23110, Note_on_c, 0, 74, 0
1, 23110, Note_on_c, 0, 76, 80
1, 23131, Note_on_c, 0, 74, 76
1, 23135, Note_on_c, 0, 76, 0
1, 23150, Note_on_c, 0, 73, 62
1, 23151, Note_on_c, 0, 74, 0
1, 23161, Note_on_c, 0, 74, 68
1, 23161, Note_on_c, 1, 70, 70
1, 23166, Note_on_c, 0, 73, 0
1, 23223, Note_on_c, 0, 79, 89
1, 23227, Note_on_c, 0, 74, 0
1, 23240, Note_on_c, 0, 79, 0
1, 23278, Note_on_c, 1, 58, 0
1, 23281, Note_on_c, 1, 60, 58
1, 23281, Note_on_c, 1, 69, 70
1, 23283, Note_on_c, 0, 77, 76
1, 23285, Note_on_c, 1, 70, 0
1, 23302, Note_on_c, 0, 77, 0
1, 23401, Note_on_c, 1, 67, 70
1, 23403, Note_on_c, 0, 76, 72
1, 23403, Note_on_c, 0, 70, 57
1, 23404, Note_on_c, 1, 69, 0
1, 23419, Note_on_c, 0, 70, 0
1, 23421, Note_on_c, 0, 76, 0
1, 23521, Note_on_c, 1, 65, 66
1, 23523, Note_on_c, 0, 70, 68
1, 23524, Note_on_c, 0, 76, 80
1, 23526, Note_on_c, 1, 67, 0
1, 23533, Note_on_c, 1, 60, 0
1, 23641, Note_on_c, 1, 60, 46
1, 23644, Note_on_c, 1, 65, 0
1, 23743, Note_on_c, 0, 76, 0
1, 23744, Note_on_c, 0, 70, 0
1, 23759, Note_on_c, 1, 60, 0
1, 23760, Note_on_c, 0, 77, 60
1, 23763, Note_on_c, 0, 69, 64
1, 23764, Note_on_c, 1, 53, 54
1, 23865, Note_on_c, 1, 53, 0
1, 23888, Note_on_c, 0, 69, 0
1, 23891, Note_on_c, 0, 77, 0
1, 24000, Note_on_c, 0, 69, 90
1, 24000, Note_on_c, 1, 53, 66
1, 24000, Note_on_c, 1, 50, 75
1, 24000, Note_on_c, 1, 62, 66
1, 24000, Note_on_c, 1, 57, 83
1, 24014, Note_on_c, 0, 74, 90
1, 24017, Note_on_c, 0, 69, 0
1, 24031, Note_on_c, 0, 77, 80
1, 24035, Note_on_c, 0, 74, 0
1, 24048, Note_on_c, 0, 77, 0
1, 24048, Note_on_c, 0, 81, 93
1, 24183, Note_on_c, 0, 79, 76
1, 24186, Note_on_c, 0, 81, 0
1, 24204, Note_on_c, 0, 77, 64
1, 24218, Note_on_c, 0, 79, 0
1, 24225, Note_on_c, 0, 76, 64
1, 24232, Note_on_c, 0, 77, 0
1, 24241, Note_on_c, 0, 74, 72
1, 24244, Note_on_c, 0, 76, 0
1, 24282, Note_on_c, 1, 62, 0
1, 24283, Note_on_c, 1, 53, 0
1, 24283, Note_on_c, 1, 50, 0
1, 24284, Note_on_c, 1, 57, 0
1, 24292, Note_on_c, 0, 74, 0
1, 24301, Note_on_c, 1, 62, 66
1, 24301, Note_on_c, 1, 65, 62
1, 24302, Note_on_c, 0, 74, 76
1, 24302, Note_on_c, 0, 69, 72
1, 24348, Note_on_c, 0, 69, 0
1, 24350, Note_on_c, 0, 74, 0
1, 24354, Note_on_c, 1, 62, 0
1, 24357, Note_on_c, 1, 65, 0
1, 24361, Note_on_c, 1, 65, 66
1, 24361, Note_on_c, 1, 62, 62
1, 24362, Note_on_c, 0, 74, 76
1, 24362, Note_on_c, 0, 69, 80
1, 24407, Note_on_c, 1, 62, 0
1, 24408, Note_on_c, 0, 69, 0
1, 24408, Note_on_c, 0, 74, 0
1, 24408, Note_on_c, 1, 65, 0
1, 24421, Note_on_c, 1, 65, 58
1, 24421, Note_on_c, 1, 62, 54
1, 24422, Note_on_c, 0, 69, 68
1, 24422, Note_on_c, 0, 74, 68
1, 24464, Note_on_c, 0, 74, 0
1, 24464, Note_on_c, 0, 69, 0
1, 24475, Note_on_c, 1, 65, 0
1, 24477, Note_on_c, 1, 62, 0
1, 24481, Note_on_c, 0, 73, 64
1, 24481, Note_on_c, 0, 69, 72
1, 24481, Note_on_c, 1, 64, 66
1, 24481, Note_on_c, 1, 67, 52
1, 24539, Note_on_c, 1, 64, 0
1, 24541, Note_on_c, 1, 67, 0
1, 24550, Note_on_c, 0, 69, 0
1, 24552, Note_on_c, 0, 73, 0
1, 24600, Note_on_c, 0, 69, 72
1, 24600, Note_on_c, 1, 65, 62
1, 24601, Note_on_c, 0, 74, 80
1, 24601, Note_on_c, 1, 62, 70
1, 24663, Note_on_c, 1, 62, 0
1, 24665, Note_on_c, 0, 69, 0
1, 24669, Note_on_c, 0, 74, 0
1, 24669, Note_on_c, 1, 65, 0
1, 24719, Note_on_c, 1, 64, 75
1, 24719, Note_on_c, 1, 61, 62
1, 24721, Note_on_c, 0, 69, 72
1, 24721, Note_on_c, 0, 76, 76
1, 24787, Note_on_c, 1, 61, 0
1, 24788, Note_on_c, 1, 64, 0
1, 24800, Note_on_c, 0, 69, 0
1, 24803, Note_on_c, 0, 76, 0
1, 24958, Note_on_c, 1, 64, 83
1, 24959, Note_on_c, 1, 55, 83
1, 24959, Note_on_c, 1, 61, 79
1, 24959, Note_on_c, 1, 58, 79
1, 24962, Note_on_c, 0, 73, 85
1, 24980, Note_on_c, 0, 76, 85
1, 24989, Note_on_c, 0, 73, 0
1, 24994, Note_on_c, 0, 79, 93
1, 25000, Note_on_c, 0, 76, 0
1, 25013, Note_on_c, 0, 82, 89
1, 25014, Note_on_c, 0, 79, 0
1, 25141, Note_on_c, 0, 81, 76
1, 25144, Note_on_c, 0, 82, 0
1, 25161, Note_on_c, 0, 79, 64
1, 25176, Note_on_c, 0, 81, 0
1, 25183, Note_on_c, 0, 77, 76
1, 25188, Note_on_c, 1, 58, 0
1, 25190, Note_on_c, 1, 61, 0
1, 25190, Note_on_c, 1, 55, 0
1, 25191, Note_on_c, 0, 79, 0
1, 25194, Note_on_c, 1, 64, 0
1, 25201, Note_on_c, 0, 76, 72
1, 25203, Note_on_c, 0, 77, 0
1, 25251, Note_on_c, 0, 76, 0
1, 25260, Note_on_c, 0, 76, 62
1, 25260, Note_on_c, 1, 70, 47
1, 25260, Note_on_c, 1, 67, 54
1, 25263, Note_on_c, 0, 73, 55
1, 25305, Note_on_c, 0, 73, 0
1, 25305, Note_on_c, 0, 76, 0
1, 25312, Note_on_c, 1, 67, 0
1, 25314, Note_on_c, 1, 70, 0
1, 25318, Note_on_c, 0, 76, 72
1, 25319, Note_on_c, 0, 73, 62
1, 25320, Note_on_c, 1, 67, 62
1, 25320, Note_on_c, 1, 70, 42
1, 25365, Note_on_c, 1, 67, 0
1, 25368, Note_on_c, 1, 70, 0
1, 25369, Note_on_c, 0, 73, 0
1, 25371, Note_on_c, 0, 76, 0
1, 25379, Note_on_c, 1, 70, 58
1, 25379, Note_on_c, 1, 67, 66
1, 25381, Note_on_c, 0, 76, 68
1, 25383, Note_on_c, 0, 73, 64
1, 25431, Note_on_c, 1, 67, 0
1, 25433, Note_on_c, 0, 73, 0
1, 25435, Note_on_c, 0, 76, 0
1, 25437, Note_on_c, 1, 70, 0
1, 25441, Note_on_c, 0, 74, 76
1, 25441, Note_on_c, 1, 65, 54
1, 25441, Note_on_c, 1, 69, 75
1, 25486, Note_on_c, 1, 69, 0
1, 25491, Note_on_c, 1, 65, 0
1, 25508, Note_on_c, 0, 74, 0
1, 25560, Note_on_c, 1, 67, 66
1, 25560, Note_on_c, 1, 64, 66
1, 25562, Note_on_c, 0, 76, 64
1, 25562, Note_on_c, 0, 73, 72
1, 25615, Note_on_c, 0, 73, 0
1, 25618, Note_on_c, 1, 64, 0
1, 25620, Note_on_c, 0, 76, 0
1, 25620, Note_on_c, 1, 67, 0
1, 25681, Note_on_c, 1, 65, 66
1, 25681, Note_on_c, 1, 62, 66
1, 25682, Note_on_c, 0, 77, 72
1, 25682, Note_on_c, 0, 74, 76
1, 25732, Note_on_c, 0, 74, 0
1, 25733, Note_on_c, 0, 77, 0
1, 25733, Note_on_c, 1, 62, 0
1, 25736, Note_on_c, 1, 65, 0
1, 25919, Note_on_c, 0, 77, 85
1, 25919, Note_on_c, 1, 67, 79
1, 25979, Note_on_c, 0, 76, 76
1, 25986, Note_on_c, 0, 77, 0
1, 26027, Note_on_c, 0, 76, 0
1, 26039, Note_on_c, 0, 76, 76
1, 26039, Note_on_c, 1, 69, 70
1, 26041, Note_on_c, 1, 67, 0
1, 26099, Note_on_c, 0, 73, 76
1, 26101, Note_on_c, 0, 76, 0
1, 26155, Note_on_c, 0, 73, 0
1, 26159, Note_on_c, 0, 74, 89
1, 26159, Note_on_c, 1, 65, 79
1, 26164, Note_on_c, 1, 69, 0
1, 26279, Note_on_c, 1, 69, 70
1, 26282, Note_on_c, 1, 65, 0
1, 26341, Note_on_c, 0, 77, 85
1, 26345, Note_on_c, 0, 74, 0
1, 26392, Note_on_c, 0, 77, 0
1, 26399, Note_on_c, 1, 69, 0
1, 26400, Note_on_c, 1, 67, 70
1, 26401, Note_on_c, 0, 77, 93
1, 26461, Note_on_c, 0, 76, 72
1, 26462, Note_on_c, 0, 77, 0
1, 26518, Note_on_c, 0, 76, 0
1, 26521, Note_on_c, 0, 79, 89
1, 26521, Note_on_c, 1, 69, 66
1, 26525, Note_on_c, 1, 67, 0
1, 26578, Note_on_c, 0, 79, 0
1, 26581, Note_on_c, 0, 73, 72
1, 26641, Note_on_c, 0, 76, 89
1, 26641, Note_on_c, 1, 65, 79
1, 26642, Note_on_c, 1, 69, 0
1, 26643, Note_on_c, 0, 73, 0
1, 26701, Note_on_c, 0, 74, 80
1, 26702, Note_on_c, 0, 76, 0
1, 26761, Note_on_c, 1, 69, 79
1, 26768, Note_on_c, 1, 65, 0
1, 26821, Note_on_c, 0, 77, 89
1, 26822, Note_on_c, 0, 74, 0
1, 26861, Note_on_c, 1, 69, 0
1, 26879, Note_on_c, 1, 69, 62
1, 26879, Note_on_c, 1, 64, 79
1, 26880, Note_on_c, 0, 77, 0
1, 26881, Note_on_c, 0, 81, 93
1, 26941, Note_on_c, 0, 80, 85
1, 26950, Note_on_c, 0, 81, 0
1, 27001, Note_on_c, 0, 79, 62
1, 27001, Note_on_c, 1, 61, 75
1, 27002, Note_on_c, 0, 80, 0
1, 27003, Note_on_c, 1, 64, 0
1, 27061, Note_on_c, 0, 76, 80
1, 27066, Note_on_c, 0, 79, 0
1, 27121, Note_on_c, 0, 79, 98
1, 27121, Note_on_c, 1, 62, 88
1, 27123, Note_on_c, 0, 76, 0
1, 27127, Note_on_c, 1, 61, 0
1, 27181, Note_on_c, 0, 78, 64
1, 27185, Note_on_c, 0, 79, 0
1, 27238, Note_on_c, 0, 78, 0
1, 27239, Note_on_c, 1, 62, 0
1, 27241, Note_on_c, 0, 77, 76
1, 27241, Note_on_c, 1, 68, 79
1, 27241, Note_on_c, 1, 58, 50
1, 27249, Note_on_c, 1, 69, 0
1, 27297, Note_on_c, 0, 77, 0
1, 27299, Note_on_c, 0, 74, 68
1, 27353, Note_on_c, 1, 58, 0
1, 27357, Note_on_c, 1, 68, 0
1, 27359, Note_on_c, 0, 73, 72
1, 27359, Note_on_c, 1, 69, 79
1, 27359, Note_on_c, 1, 57, 66
1, 27364, Note_on_c, 0, 74, 0
1, 27419, Note_on_c, 0, 76, 72
1, 27425, Note_on_c, 0, 73, 0
1, 27466, Note_on_c, 0, 76, 0
1, 27479, Note_on_c, 0, 76, 76
1, 27487, Note_on_c, 1, 57, 0
1, 27487, Note_on_c, 1, 69, 0
1, 27498, Note_on_c, 0, 76, 0
1, 27539, Note_on_c, 0, 76, 72
1, 27558, Note_on_c, 0, 76, 0
1, 27599, Note_on_c, 0, 76, 93
1, 27659, Note_on_c, 0, 81, 72
1, 27661, Note_on_c, 0, 76, 0
1, 27712, Note_on_c, 0, 81, 0
1, 27719, Note_on_c, 0, 81, 89
1, 27737, Note_on_c, 0, 81, 0
1, 27779, Note_on_c, 0, 81, 89
1, 27794, Note_on_c, 0, 81, 0
1, 27837, Note_on_c, 0, 69, 62
1, 27838, Note_on_c, 1, 62, 83
1, 27838, Note_on_c, 1, 50, 88
1, 27838, Note_on_c, 1, 53, 83
1, 27839, Note_on_c, 1, 57, 88
1, 27849, Note_on_c, 0, 74, 85
1, 27862, Note_on_c, 0, 69, 0
1, 27866, Note_on_c, 0, 77, 76
1, 27872, Note_on_c, 0, 74, 0
1, 27885, Note_on_c, 0, 77, 0
1, 27888, Note_on_c, 0, 81, 93
1, 28020, Note_on_c, 0, 79, 85
1, 28027, Note_on_c, 0, 81, 0
1, 28044, Note_on_c, 0, 77, 68
1, 28056, Note_on_c, 0, 79, 0
1, 28061, Note_on_c, 0, 76, 76
1, 28069, Note_on_c, 0, 77, 0
1, 28077, Note_on_c, 0, 74, 68
1, 28078, Note_on_c, 1, 62, 0
1, 28079, Note_on_c, 0, 76, 0
1, 28116, Note_on_c, 1, 57, 0
1, 28116, Note_on_c, 1, 53, 0
1, 28119, Note_on_c, 1, 50, 0
1, 28127, Note_on_c, 0, 74, 0
1, 28139, Note_on_c, 0, 74, 72
1, 28140, Note_on_c, 0, 69, 68
1, 28141, Note_on_c, 1, 65, 58
1, 28141, Note_on_c, 1, 62, 66
1, 28183, Note_on_c, 1, 62, 0
1, 28187, Note_on_c, 0, 69, 0
1, 28187, Note_on_c, 1, 65, 0
1, 28190, Note_on_c, 0, 74, 0
1, 28199, Note_on_c, 1, 65, 62
1, 28199, Note_on_c, 1, 62, 54
1, 28200, Note_on_c, 0, 69, 57
1, 28201, Note_on_c, 0, 74, 64
1, 28246, Note_on_c, 1, 62, 0
1, 28248, Note_on_c, 1, 65, 0
1, 28250, Note_on_c, 0, 69, 0
1, 28251, Note_on_c, 0, 74, 0
1, 28259, Note_on_c, 1, 65, 70
1, 28259, Note_on_c, 1, 62, 62
1, 28261, Note_on_c, 0, 74, 60
1, 28261, Note_on_c, 0, 69, 60
1, 28299, Note_on_c, 0, 69, 0
1, 28302, Note_on_c, 1, 62, 0
1, 28303, Note_on_c, 0, 74, 0
1, 28303, Note_on_c, 1, 65, 0
1, 28319, Note_on_c, 1, 67, 52
1, 28319, Note_on_c, 1, 64, 54
1, 28321, Note_on_c, 0, 73, 62
1, 28321, Note_on_c, 0, 69, 60
1, 28381, Note_on_c, 1, 64, 0
1, 28383, Note_on_c, 1, 67, 0
1, 28389, Note_on_c, 0, 69, 0
1, 28392, Note_on_c, 0, 73, 0
1, 28439, Note_on_c, 1, 65, 54
1, 28439, Note_on_c, 1, 62, 62
1, 28441, Note_on_c, 0, 74, 68
1, 28441, Note_on_c, 0, 69, 62
1, 28503, Note_on_c, 0, 69, 0
1, 28506, Note_on_c, 0, 74, 0
1, 28509, Note_on_c, 1, 62, 0
1, 28514, Note_on_c, 1, 65, 0
1, 28561, Note_on_c, 1, 64, 66
1, 28561, Note_on_c, 1, 61, 47
1, 28562, Note_on_c, 0, 76, 76
1, 28562, Note_on_c, 0, 69, 64
1, 28625, Note_on_c, 1, 61, 0
1, 28626, Note_on_c, 1, 64, 0
1, 28639, Note_on_c, 0, 69, 0
1, 28649, Note_on_c, 0, 76, 0
1, 28799, Note_on_c, 1, 64, 83
1, 28799, Note_on_c, 1, 61, 75
1, 28799, Note_on_c, 1, 58, 75
1, 28799, Note_on_c, 1, 55, 79
1, 28809, Note_on_c, 0, 73, 107
1, 28825, Note_on_c, 0, 76, 89
1, 28834, Note_on_c, 0, 73, 0
1, 28840, Note_on_c, 0, 79, 85
1, 28845, Note_on_c, 0, 76, 0
1, 28858, Note_on_c, 0, 79, 0
1, 28858, Note_on_c, 0, 82, 85
1, 28924, Note_on_c, 1, 65, 11
1, 28935, Note_on_c, 1, 65, 0
1, 28980, Note_on_c, 0, 81, 72
1, 28985, Note_on_c, 0, 82, 0
1, 28998, Note_on_c, 0, 79, 72
1, 29012, Note_on_c, 0, 81, 0
1, 29022, Note_on_c, 0, 77, 68
1, 29026, Note_on_c, 0, 79, 0
1, 29037, Note_on_c, 0, 76, 60
1, 29038, Note_on_c, 0, 77, 0
1, 29039, Note_on_c, 1, 64, 0
1, 29080, Note_on_c, 1, 58, 0
1, 29082, Note_on_c, 1, 61, 0
1, 29083, Note_on_c, 1, 55, 0
1, 29094, Note_on_c, 0, 76, 0
1, 29099, Note_on_c, 0, 76, 55
1, 29099, Note_on_c, 1, 70, 47
1, 29099, Note_on_c, 1, 67, 54
1, 29101, Note_on_c, 0, 73, 62
1, 29148, Note_on_c, 0, 73, 0
1, 29149, Note_on_c, 1, 67, 0
1, 29150, Note_on_c, 0, 76, 0
1, 29152, Note_on_c, 1, 70, 0
1, 29159, Note_on_c, 1, 70, 54
1, 29159, Note_on_c, 1, 67, 62
1, 29160, Note_on_c, 0, 76, 72
1, 29160, Note_on_c, 0, 73, 64
1, 29208, Note_on_c, 1, 67, 0
1, 29211, Note_on_c, 0, 73, 0
1, 29211, Note_on_c, 0, 76, 0
1, 29211, Note_on_c, 1, 70, 0
1, 29219, Note_on_c, 1, 70, 62
1, 29220, Note_on_c, 1, 67, 70
1, 29221, Note_on_c, 0, 76, 72
1, 29221, Note_on_c, 0, 73, 62
1, 29265, Note_on_c, 1, 67, 0
1, 29266, Note_on_c, 1, 70, 0
1, 29269, Note_on_c, 0, 73, 0
1, 29269, Note_on_c, 0, 76, 0
1, 29280, Note_on_c, 1, 69, 62
1, 29280, Note_on_c, 1, 65, 66
1, 29281, Note_on_c, 0, 74, 76
1, 29336, Note_on_c, 1, 69, 0
1, 29337, Note_on_c, 1, 65, 0
1, 29342, Note_on_c, 0, 74, 0
1, 29401, Note_on_c, 0, 76, 60
1, 29401, Note_on_c, 0, 73, 64
1, 29401, Note_on_c, 1, 64, 62
1, 29401, Note_on_c, 1, 67, 66
1, 29456, Note_on_c, 0, 73, 0
1, 29459, Note_on_c, 0, 76, 0
1, 29465, Note_on_c, 1, 64, 0
1, 29469, Note_on_c, 1, 67, 0
1, 29520, Note_on_c, 1, 62, 52
1, 29521, Note_on_c, 0, 77, 72
1, 29521, Note_on_c, 0, 74, 72
1, 29521, Note_on_c, 1, 65, 62
1, 29581, Note_on_c, 0, 74, 0
1, 29588, Note_on_c, 0, 77, 0
1, 29588, Note_on_c, 1, 62, 0
1, 29589, Note_on_c, 1, 65, 0
1, 29759, Note_on_c, 0, 75, 89
1, 29759, Note_on_c, 1, 55, 62
1, 29817, Note_on_c, 0, 75, 0
1, 29821, Note_on_c, 0, 77, 85
1, 29836, Note_on_c, 0, 75, 85
1, 29847, Note_on_c, 0, 77, 0
1, 29851, Note_on_c, 0, 74, 80
1, 29853, Note_on_c, 0, 75, 0
1, 29866, Note_on_c, 0, 75, 64
1, 29870, Note_on_c, 0, 74, 0
1, 29879, Note_on_c, 1, 58, 66
1, 29880, Note_on_c, 0, 75, 0
1, 29880, Note_on_c, 1, 55, 0
1, 29881, Note_on_c, 0, 79, 89
1, 29938, Note_on_c, 0, 79, 0
1, 29941, Note_on_c, 0, 73, 85
1, 29996, Note_on_c, 0, 73, 0
1, 29999, Note_on_c, 1, 53, 66
1, 30001, Note_on_c, 0, 76, 93
1, 30003, Note_on_c, 1, 58, 0
1, 30061, Note_on_c, 0, 74, 85
1, 30063, Note_on_c, 0, 76, 0
1, 30121, Note_on_c, 1, 57, 62
1, 30124, Note_on_c, 1, 53, 0
1, 30179, Note_on_c, 0, 74, 0
1, 30181, Note_on_c, 0, 77, 89
1, 30240, Note_on_c, 0, 77, 0
1, 30240, Note_on_c, 1, 55, 66
1, 30241, Note_on_c, 0, 75, 85
1, 30243, Note_on_c, 1, 57, 0
1, 30270, Note_on_c, 0, 75, 0
1, 30271, Note_on_c, 0, 77, 68
1, 30299, Note_on_c, 0, 79, 62
1, 30303, Note_on_c, 0, 77, 0
1, 30329, Note_on_c, 0, 81, 64
1, 30336, Note_on_c, 0, 79, 0
1, 30359, Note_on_c, 0, 82, 68
1, 30359, Note_on_c, 1, 55, 0
1, 30359, Note_on_c, 1, 58, 66
1, 30362, Note_on_c, 0, 81, 0
1, 30389, Note_on_c, 0, 79, 76
1, 30396, Note_on_c, 0, 82, 0
1, 30419, Note_on_c, 0, 79, 0
1, 30419, Note_on_c, 0, 76, 80
1, 30449, Note_on_c, 0, 76, 0
1, 30449, Note_on_c, 0, 73, 72
1, 30479, Note_on_c, 0, 73, 0
1, 30479, Note_on_c, 0, 74, 76
1, 30479, Note_on_c, 1, 57, 75
1, 30480, Note_on_c, 1, 58, 0
1, 30481, Note_on_c, 1, 53, 52
1, 30538, Note_on_c, 0, 74, 0
1, 30539, Note_on_c, 0, 86, 98
1, 30600, Note_on_c, 1, 62, 83
1, 30602, Note_on_c, 1, 57, 0
1, 30659, Note_on_c, 0, 86, 0
1, 30659, Note_on_c, 0, 77, 62
1, 30711, Note_on_c, 0, 77, 0
1, 30718, Note_on_c, 1, 53, 0
1, 30719, Note_on_c, 0, 77, 93
1, 30719, Note_on_c, 1, 62, 0
1, 30719, Note_on_c, 1, 55, 66
1, 30719, Note_on_c, 1, 58, 70
1, 30779, Note_on_c, 0, 77, 0
1, 30779, Note_on_c, 0, 76, 85
1, 30839, Note_on_c, 1, 67, 83
1, 30841, Note_on_c, 1, 58, 0
1, 30901, Note_on_c, 0, 82, 85
1, 30902, Note_on_c, 0, 76, 0
1, 30959, Note_on_c, 1, 65, 75
1, 30960, Note_on_c, 1, 57, 66
1, 30963, Note_on_c, 1, 55, 0
1, 30966, Note_on_c, 1, 67, 0
1, 31021, Note_on_c, 0, 81, 93
1, 31028, Note_on_c, 0, 82, 0
1, 31078, Note_on_c, 1, 65, 0
1, 31079, Note_on_c, 1, 64, 70
1, 31139, Note_on_c, 0, 73, 76
1, 31140, Note_on_c, 0, 81, 0
1, 31186, Note_on_c, 0, 73, 0
1, 31199, Note_on_c, 0, 73, 80
1, 31199, Note_on_c, 0, 67, 64
1, 31200, Note_on_c, 1, 50, 66
1, 31200, Note_on_c, 1, 38, 66
1, 31202, Note_on_c, 1, 57, 0
1, 31207, Note_on_c, 1, 64, 0
1, 31495, Note_on_c, 0, 73, 0
1, 31496, Note_on_c, 0, 74, 93
1, 31514, Note_on_c, 0, 73, 68
1, 31519, Note_on_c, 0, 74, 0
1, 31531, Note_on_c, 0, 73, 0
1, 31531, Note_on_c, 0, 71, 42
1, 31543, Note_on_c, 0, 71, 0
1, 31544, Note_on_c, 0, 73, 72
1, 31559, Note_on_c, 0, 73, 0
1, 31560, Note_on_c, 0, 76, 89
1, 31651, Note_on_c, 0, 76, 0
1, 31652, Note_on_c, 0, 74, 80
1, 31667, Note_on_c, 0, 74, 0
1, 31677, Note_on_c, 0, 67, 0
1, 31677, Note_on_c, 0, 65, 64
1, 31681, Note_on_c, 0, 74, 93
1, 31736, Note_on_c, 0, 74, 0
1, 31739, Note_on_c, 0, 76, 72
1, 31755, Note_on_c, 0, 74, 72
1, 31760, Note_on_c, 0, 76, 0
1, 31771, Note_on_c, 0, 73, 72
1, 31774, Note_on_c, 0, 74, 0
1, 31785, Note_on_c, 0, 76, 76
1, 31788, Note_on_c, 0, 73, 0
1, 31797, Note_on_c, 0, 65, 0
1, 31798, Note_on_c, 0, 76, 0
1, 31800, Note_on_c, 1, 50, 0
1, 31801, Note_on_c, 1, 38, 0
1, 31804, Note_on_c, 0, 77, 98
1, 31887, Note_on_c, 0, 77, 0
1, 31889, Note_on_c, 0, 75, 76
1, 31904, Note_on_c, 0, 75, 0
1, 31918, Note_on_c, 0, 75, 89
1, 31974, Note_on_c, 0, 75, 0
1, 31976, Note_on_c, 0, 77, 89
1, 31994, Note_on_c, 0, 75, 64
1, 31998, Note_on_c, 0, 77, 0
1, 32009, Note_on_c, 0, 74, 80
1, 32012, Note_on_c, 0, 75, 0
1, 32024, Note_on_c, 0, 75, 68
1, 32028, Note_on_c, 0, 74, 0
1, 32036, Note_on_c, 0, 75, 0
1, 32039, Note_on_c, 0, 79, 76
1, 32126, Note_on_c, 0, 79, 0
1, 32129, Note_on_c, 0, 77, 89
1, 32145, Note_on_c, 0, 77, 0
1, 32158, Note_on_c, 0, 77, 93
1, 32161, Note_on_c, 1, 58, 45
1, 32221, Note_on_c, 1, 65, 52
1, 32227, Note_on_c, 1, 58, 0
1, 32278, Note_on_c, 1, 65, 0
1, 32281, Note_on_c, 1, 62, 62
1, 32341, Note_on_c, 1, 62, 0
1, 32341, Note_on_c, 1, 65, 58
1, 32393, Note_on_c, 1, 65, 0
1, 32401, Note_on_c, 1, 58, 42
1, 32459, Note_on_c, 0, 77, 0
1, 32459, Note_on_c, 0, 82, 85
1, 32461, Note_on_c, 1, 58, 0
1, 32461, Note_on_c, 1, 65, 43
1, 32509, Note_on_c, 1, 65, 0
1, 32518, Note_on_c, 0, 82, 0
1, 32518, Note_on_c, 0, 77, 80
1, 32519, Note_on_c, 1, 62, 54
1, 32577, Note_on_c, 1, 62, 0
1, 32578, Note_on_c, 0, 74, 76
1, 32579, Note_on_c, 0, 77, 0
1, 32579, Note_on_c, 1, 65, 49
1, 32639, Note_on_c, 0, 75, 80
1, 32639, Note_on_c, 1, 65, 0
1, 32639, Note_on_c, 1, 60, 54
1, 32640, Note_on_c, 0, 74, 0
1, 32669, Note_on_c, 0, 75, 0
1, 32669, Note_on_c, 0, 77, 80
1, 32698, Note_on_c, 1, 60, 0
1, 32699, Note_on_c, 0, 79, 72
1, 32699, Note_on_c, 1, 65, 62
1, 32701, Note_on_c, 0, 77, 0
1, 32729, Note_on_c, 0, 77, 80
1, 32733, Note_on_c, 0, 79, 0
1, 32751, Note_on_c, 1, 65, 0
1, 32758, Note_on_c, 0, 75, 80
1, 32759, Note_on_c, 1, 63, 52
1, 32761, Note_on_c, 0, 77, 0
1, 32788, Note_on_c, 0, 74, 80
1, 32792, Note_on_c, 0, 75, 0
1, 32812, Note_on_c, 1, 63, 0
1, 32817, Note_on_c, 0, 74, 0
1, 32818, Note_on_c, 0, 72, 76
1, 32819, Note_on_c, 1, 65, 66
1, 32848, Note_on_c, 0, 70, 50
1, 32852, Note_on_c, 0, 72, 0
1, 32879, Note_on_c, 0, 69, 93
1, 32879, Note_on_c, 1, 53, 50
1, 32880, Note_on_c, 0, 70, 0
1, 32885, Note_on_c, 1, 65, 0
1, 32939, Note_on_c, 1, 65, 54
1, 32940, Note_on_c, 1, 53, 0
1, 32993, Note_on_c, 0, 69, 0
1, 32998, Note_on_c, 1, 65, 0
1, 32999, Note_on_c, 1, 63, 50
1, 33059, Note_on_c, 1, 65, 66
1, 33061, Note_on_c, 1, 63, 0
1, 33115, Note_on_c, 1, 65, 0
1, 33119, Note_on_c, 1, 58, 54
1, 33120, Note_on_c, 0, 70, 93
1, 33177, Note_on_c, 0, 70, 0
1, 33179, Note_on_c, 0, 72, 89
1, 33180, Note_on_c, 1, 58, 0
1, 33181, Note_on_c, 1, 65, 47
1, 33209, Note_on_c, 0, 74, 72
1, 33214, Note_on_c, 0, 72, 0
1, 33236, Note_on_c, 1, 65, 0
1, 33238, Note_on_c, 0, 74, 0
1, 33239, Note_on_c, 0, 75, 80
1, 33240, Note_on_c, 1, 62, 62
1, 33269, Note_on_c, 0, 75, 0
1, 33269, Note_on_c, 0, 77, 89
1, 33299, Note_on_c, 0, 79, 60
1, 33299, Note_on_c, 1, 65, 54
1, 33300, Note_on_c, 0, 77, 0
1, 33300, Note_on_c, 1, 62, 0
1, 33329, Note_on_c, 0, 81, 85
1, 33333, Note_on_c, 0, 79, 0
1, 33350, Note_on_c, 1, 65, 0
1, 33359, Note_on_c, 0, 81, 0
1, 33359, Note_on_c, 0, 82, 68
1, 33359, Note_on_c, 1, 58, 43
1, 33389, Note_on_c, 0, 84, 80
1, 33394, Note_on_c, 0, 82, 0
1, 33416, Note_on_c, 0, 84, 0
1, 33419, Note_on_c, 0, 86, 85
1, 33419, Note_on_c, 1, 65, 58
1, 33421, Note_on_c, 1, 58, 0
1, 33449, Note_on_c, 0, 81, 76
1, 33451, Note_on_c, 0, 86, 0
1, 33477, Note_on_c, 1, 65, 0
1, 33479, Note_on_c, 0, 82, 80
1, 33479, Note_on_c, 1, 62, 62
1, 33481, Note_on_c, 0, 81, 0
1, 33509, Note_on_c, 0, 77, 64
1, 33510, Note_on_c, 0, 82, 0
1, 33538, Note_on_c, 1, 62, 0
1, 33539, Note_on_c, 0, 77, 0
1, 33539, Note_on_c, 1, 65, 54
1, 33540, Note_on_c, 0, 79, 85
1, 33570, Note_on_c, 0, 74, 64
1, 33572, Note_on_c, 0, 79, 0
1, 33599, Note_on_c, 1, 60, 47
1, 33600, Note_on_c, 0, 75, 72
1, 33601, Note_on_c, 1, 65, 0
1, 33602, Note_on_c, 0, 74, 0
1, 33631, Note_on_c, 0, 77, 76
1, 33632, Note_on_c, 0, 75, 0
1, 33659, Note_on_c, 0, 77, 0
1, 33659, Note_on_c, 1, 65, 47
1, 33661, Note_on_c, 0, 79, 72
1, 33664, Note_on_c, 1, 60, 0
1, 33691, Note_on_c, 0, 77, 80
1, 33696, Note_on_c, 0, 79, 0
1, 33709, Note_on_c, 1, 65, 0
1, 33719, Note_on_c, 1, 63, 40
1, 33721, Note_on_c, 0, 75, 62
1, 33727, Note_on_c, 0, 77, 0
1, 33751, Note_on_c, 0, 74, 76
1, 33752, Note_on_c, 0, 75, 0
1, 33779, Note_on_c, 1, 63, 0
1, 33779, Note_on_c, 1, 65, 75
1, 33781, Note_on_c, 0, 72, 76
1, 33782, Note_on_c, 0, 74, 0
1, 33811, Note_on_c, 0, 70, 72
1, 33812, Note_on_c, 0, 72, 0
1, 33840, Note_on_c, 1, 53, 52
1, 33841, Note_on_c, 0, 70, 0
1, 33841, Note_on_c, 0, 69, 80
1, 33841, Note_on_c, 1, 65, 0
1, 33901, Note_on_c, 1, 53, 0
1, 33901, Note_on_c, 1, 65, 50
1, 33953, Note_on_c, 0, 69, 0
1, 33960, Note_on_c, 1, 65, 0
1, 33961, Note_on_c, 1, 63, 58
1, 34017, Note_on_c, 1, 63, 0
1, 34019, Note_on_c, 1, 65, 66
1, 34075, Note_on_c, 1, 65, 0
1, 34079, Note_on_c, 0, 70, 85
1, 34081, Note_on_c, 1, 58, 50
1, 34136, Note_on_c, 0, 70, 0
1, 34136, Note_on_c, 1, 58, 0
1, 34139, Note_on_c, 0, 72, 85
1, 34139, Note_on_c, 1, 65, 66
1, 34168, Note_on_c, 0, 74, 72
1, 34170, Note_on_c, 0, 72, 0
1, 34194, Note_on_c, 1, 65, 0
1, 34199, Note_on_c, 0, 75, 80
1, 34199, Note_on_c, 1, 62, 58
1, 34204, Note_on_c, 0, 74, 0
1, 34229, Note_on_c, 0, 75, 0
1, 34229, Note_on_c, 0, 77, 89
1, 34256, Note_on_c, 1, 62, 0
1, 34259, Note_on_c, 0, 79, 64
1, 34259, Note_on_c, 1, 65, 66
1, 34261, Note_on_c, 0, 77, 0
1, 34289, Note_on_c, 0, 81, 85
1, 34293, Note_on_c, 0, 79, 0
1, 34318, Note_on_c, 0, 81, 0
1, 34319, Note_on_c, 0, 82, 85
1, 34319, Note_on_c, 1, 65, 0
1, 34319, Note_on_c, 1, 58, 49
1, 34379, Note_on_c, 0, 84, 89
1, 34379, Note_on_c, 1, 58, 0
1, 34379, Note_on_c, 1, 65, 66
1, 34381, Note_on_c, 0, 82, 0
1, 34435, Note_on_c, 1, 65, 0
1, 34439, Note_on_c, 0, 86, 93
1, 34439, Note_on_c, 1, 62, 52
1, 34441, Note_on_c, 0, 84, 0
1, 34496, Note_on_c, 0, 86, 0
1, 34496, Note_on_c, 1, 62, 0
1, 34499, Note_on_c, 1, 65, 54
1, 34501, Note_on_c, 0, 86, 76
1, 34552, Note_on_c, 0, 86, 0
1, 34559, Note_on_c, 0, 86, 93
1, 34560, Note_on_c, 1, 57, 52
1, 34566, Note_on_c, 1, 65, 0
1, 34621, Note_on_c, 1, 62, 50
1, 34625, Note_on_c, 1, 57, 0
1, 34672, Note_on_c, 1, 62, 0
1, 34681, Note_on_c, 1, 60, 47
1, 34741, Note_on_c, 1, 60, 0
1, 34741, Note_on_c, 1, 62, 54
1, 34801, Note_on_c, 0, 78, 76
1, 34801, Note_on_c, 1, 62, 0
1, 34801, Note_on_c, 1, 57, 54
1, 34806, Note_on_c, 0, 86, 0
1, 34859, Note_on_c, 1, 57, 0
1, 34861, Note_on_c, 1, 62, 52
1, 34915, Note_on_c, 1, 62, 0
1, 34921, Note_on_c, 1, 60, 50
1, 34933, Note_on_c, 0, 78, 0
1, 34981, Note_on_c, 1, 60, 0
1, 34981, Note_on_c, 1, 62, 58
1, 35039, Note_on_c, 0, 67, 89
1, 35041, Note_on_c, 1, 55, 54
1, 35042, Note_on_c, 1, 62, 0
1, 35094, Note_on_c, 1, 55, 0
1, 35098, Note_on_c, 0, 67, 0
1, 35098, Note_on_c, 0, 69, 93
1, 35101, Note_on_c, 1, 62, 58
1, 35129, Note_on_c, 0, 70, 64
1, 35133, Note_on_c, 0, 69, 0
1, 35152, Note_on_c, 1, 62, 0
1, 35158, Note_on_c, 0, 70, 0
1, 35159, Note_on_c, 0, 72, 93
1, 35159, Note_on_c, 1, 58, 54
1, 35188, Note_on_c, 0, 74, 72
1, 35189, Note_on_c, 0, 72, 0
1, 35215, Note_on_c, 1, 58, 0
1, 35218, Note_on_c, 0, 76, 80
1, 35219, Note_on_c, 1, 62, 70
1, 35222, Note_on_c, 0, 74, 0
1, 35248, Note_on_c, 0, 78, 64
1, 35250, Note_on_c, 0, 76, 0
1, 35276, Note_on_c, 1, 62, 0
1, 35277, Note_on_c, 0, 78, 0
1, 35279, Note_on_c, 0, 79, 85
1, 35279, Note_on_c, 1, 53, 54
1, 35309, Note_on_c, 0, 81, 57
1, 35316, Note_on_c, 0, 79, 0
1, 35339, Note_on_c, 0, 82, 85
1, 35339, Note_on_c, 1, 62, 50
1, 35343, Note_on_c, 0, 81, 0
1, 35343, Note_on_c, 1, 53, 0
1, 35367, Note_on_c, 0, 82, 0
1, 35368, Note_on_c, 0, 84, 89
1, 35399, Note_on_c, 0, 86, 93
1, 35399, Note_on_c, 1, 62, 0
1, 35399, Note_on_c, 1, 58, 52
1, 35403, Note_on_c, 0, 84, 0
1, 35454, Note_on_c, 0, 86, 0
1, 35459, Note_on_c, 1, 62, 62
1, 35460, Note_on_c, 0, 86, 89
1, 35460, Note_on_c, 1, 58, 0
1, 35520, Note_on_c, 1, 52, 54
1, 35521, Note_on_c, 0, 86, 0
1, 35521, Note_on_c, 0, 84, 93
1, 35521, Note_on_c, 1, 62, 0
1, 35581, Note_on_c, 1, 60, 62
1, 35584, Note_on_c, 1, 52, 0
1, 35637, Note_on_c, 1, 60, 0
1, 35641, Note_on_c, 1, 58, 46
1, 35698, Note_on_c, 1, 58, 0
1, 35700, Note_on_c, 1, 60, 79
1, 35759, Note_on_c, 0, 84, 0
1, 35759, Note_on_c, 0, 76, 72
1, 35761, Note_on_c, 1, 55, 52
1, 35763, Note_on_c, 1, 60, 0
1, 35816, Note_on_c, 1, 55, 0
1, 35821, Note_on_c, 1, 60, 45
1, 35873, Note_on_c, 1, 60, 0
1, 35881, Note_on_c, 1, 58, 46
1, 35917, Note_on_c, 0, 76, 0
1, 35939, Note_on_c, 1, 58, 0
1, 35941, Note_on_c, 1, 60, 58
1, 35997, Note_on_c, 1, 60, 0
1, 35999, Note_on_c, 0, 65, 89
1, 36001, Note_on_c, 1, 53, 45
1, 36058, Note_on_c, 0, 65, 0
1, 36058, Note_on_c, 1, 53, 0
1, 36059, Note_on_c, 0, 67, 93
1, 36061, Note_on_c, 1, 60, 52
1, 36088, Note_on_c, 0, 68, 76
1, 36091, Note_on_c, 0, 67, 0
1, 36116, Note_on_c, 1, 60, 0
1, 36118, Note_on_c, 0, 70, 76
1, 36119, Note_on_c, 0, 68, 0
1, 36121, Note_on_c, 1, 56, 62
1, 36146, Note_on_c, 0, 70, 0
1, 36148, Note_on_c, 0, 72, 85
1, 36176, Note_on_c, 1, 56, 0
1, 36178, Note_on_c, 0, 74, 72
1, 36179, Note_on_c, 1, 60, 66
1, 36182, Note_on_c, 0, 72, 0
1, 36208, Note_on_c, 0, 76, 76
1, 36212, Note_on_c, 0, 74, 0
1, 36236, Note_on_c, 0, 76, 0
1, 36236, Note_on_c, 1, 60, 0
1, 36239, Note_on_c, 0, 77, 76
1, 36239, Note_on_c, 1, 53, 50
1, 36268, Note_on_c, 0, 79, 33
1, 36272, Note_on_c, 0, 77, 0
1, 36295, Note_on_c, 1, 53, 0
1, 36298, Note_on_c, 0, 80, 76
1, 36299, Note_on_c, 1, 60, 58
1, 36301, Note_on_c, 0, 79, 0
1, 36328, Note_on_c, 0, 82, 64
1, 36330, Note_on_c, 0, 80, 0
1, 36355, Note_on_c, 1, 60, 0
1, 36358, Note_on_c, 0, 84, 85
1, 36359, Note_on_c, 1, 56, 52
1, 36362, Note_on_c, 0, 82, 0
1, 36413, Note_on_c, 0, 84, 0
1, 36419, Note_on_c, 0, 84, 89
1, 36419, Note_on_c, 1, 60, 66
1, 36420, Note_on_c, 1, 56, 0
1, 36469, Note_on_c, 0, 84, 0
1, 36479, Note_on_c, 0, 84, 85
1, 36481, Note_on_c, 1, 49, 50
1, 36482, Note_on_c, 1, 60, 0
1, 36541, Note_on_c, 1, 56, 47
1, 36546, Note_on_c, 1, 49, 0
1, 36571, Note_on_c, 0, 84, 0
1, 36571, Note_on_c, 0, 77, 80
1, 36598, Note_on_c, 0, 77, 0
1, 36599, Note_on_c, 0, 89, 98
1, 36601, Note_on_c, 1, 53, 54
1, 36603, Note_on_c, 1, 56, 0
1, 36660, Note_on_c, 1, 53, 0
1, 36661, Note_on_c, 1, 56, 46
1, 36721, Note_on_c, 1, 49, 42
1, 36722, Note_on_c, 1, 56, 0
1, 36781, Note_on_c, 1, 56, 49
1, 36782, Note_on_c, 1, 49, 0
1, 36839, Note_on_c, 0, 87, 76
1, 36841, Note_on_c, 1, 53, 47
1, 36844, Note_on_c, 1, 56, 0
1, 36845, Note_on_c, 0, 89, 0
1, 36899, Note_on_c, 0, 85, 80
1, 36901, Note_on_c, 1, 53, 0
1, 36901, Note_on_c, 1, 56, 43
1, 36905, Note_on_c, 0, 87, 0
1, 36939, Note_on_c, 1, 56, 0
1, 36959, Note_on_c, 0, 84, 80
1, 36960, Note_on_c, 0, 85, 0
1, 36961, Note_on_c, 1, 56, 54
1, 36961, Note_on_c, 1, 53, 70
1, 36961, Note_on_c, 1, 49, 54
1, 37016, Note_on_c, 0, 84, 0
1, 37018, Note_on_c, 0, 83, 89
1, 37079, Note_on_c, 0, 80, 85
1, 37081, Note_on_c, 0, 83, 0
1, 37196, Note_on_c, 1, 56, 0
1, 37199, Note_on_c, 1, 59, 79
1, 37259, Note_on_c, 0, 79, 89
1, 37262, Note_on_c, 0, 80, 0
1, 37289, Note_on_c, 0, 80, 76
1, 37293, Note_on_c, 0, 79, 0
1, 37316, Note_on_c, 0, 80, 0
1, 37319, Note_on_c, 0, 82, 72
1, 37349, Note_on_c, 0, 80, 76
1, 37355, Note_on_c, 0, 82, 0
1, 37379, Note_on_c, 0, 79, 76
1, 37382, Note_on_c, 0, 80, 0
1, 37406, Note_on_c, 0, 79, 0
1, 37409, Note_on_c, 0, 77, 60
1, 37429, Note_on_c, 1, 53, 0
1, 37434, Note_on_c, 1, 49, 0
1, 37437, Note_on_c, 1, 59, 0
1, 37439, Note_on_c, 0, 76, 80
1, 37439, Note_on_c, 1, 60, 75
1, 37440, Note_on_c, 1, 55, 58
1, 37441, Note_on_c, 1, 48, 75
1, 37443, Note_on_c, 0, 77, 0
1, 37497, Note_on_c, 0, 76, 0
1, 37499, Note_on_c, 0, 84, 80
1, 37557, Note_on_c, 0, 84, 0
1, 37559, Note_on_c, 0, 84, 76
1, 37560, Note_on_c, 1, 48, 0
1, 37560, Note_on_c, 1, 55, 0
1, 37563, Note_on_c, 1, 60, 0
1, 37616, Note_on_c, 0, 84, 0
1, 37619, Note_on_c, 0, 84, 89
1, 37672, Note_on_c, 0, 84, 0
1, 37679, Note_on_c, 0, 84, 76
1, 37735, Note_on_c, 0, 84, 0
1, 37738, Note_on_c, 0, 89, 89
1, 37798, Note_on_c, 0, 86, 93
1, 37806, Note_on_c, 0, 89, 0
1, 37858, Note_on_c, 0, 83, 85
1, 37859, Note_on_c, 0, 86, 0
1, 37919, Note_on_c, 0, 83, 0
1, 37919, Note_on_c, 0, 84, 72
1, 37979, Note_on_c, 0, 77, 72
1, 37983, Note_on_c, 0, 84, 0
1, 38039, Note_on_c, 0, 74, 80
1, 38040, Note_on_c, 0, 77, 0
1, 38099, Note_on_c, 0, 71, 68
1, 38100, Note_on_c, 0, 74, 0
1, 38160, Note_on_c, 0, 72, 89
1, 38161, Note_on_c, 0, 71, 0
1, 38208, Note_on_c, 0, 72, 0
1, 38221, Note_on_c, 0, 89, 85
1, 38280, Note_on_c, 0, 86, 89
1, 38284, Note_on_c, 0, 89, 0
1, 38341, Note_on_c, 0, 83, 76
1, 38342, Note_on_c, 0, 86, 0
1, 38401, Note_on_c, 0, 83, 0
1, 38401, Note_on_c, 0, 84, 80
1, 38459, Note_on_c, 0, 88, 85
1, 38460, Note_on_c, 0, 84, 0
1, 38519, Note_on_c, 0, 84, 85
1, 38521, Note_on_c, 0, 88, 0
1, 38577, Note_on_c, 0, 84, 0
1, 38579, Note_on_c, 0, 81, 85
1, 38641, Note_on_c, 0, 82, 85
1, 38648, Note_on_c, 0, 81, 0
1, 38699, Note_on_c, 0, 82, 0
1, 38699, Note_on_c, 0, 86, 89
1, 38759, Note_on_c, 0, 82, 85
1, 38764, Note_on_c, 0, 86, 0
1, 38819, Note_on_c, 0, 80, 85
1, 38820, Note_on_c, 0, 82, 0
1, 38879, Note_on_c, 0, 81, 89
1, 38880, Note_on_c, 0, 80, 0
1, 38939, Note_on_c, 0, 86, 89
1, 38941, Note_on_c, 0, 81, 0
1, 38969, Note_on_c, 0, 84, 68
1, 38976, Note_on_c, 0, 86, 0
1, 38999, Note_on_c, 0, 82, 76
1, 39002, Note_on_c, 0, 84, 0
1, 39029, Note_on_c, 0, 81, 76
1, 39035, Note_on_c, 0, 82, 0
1, 39058, Note_on_c, 0, 81, 0
1, 39059, Note_on_c, 0, 79, 72
1, 39088, Note_on_c, 0, 79, 0
1, 39089, Note_on_c, 0, 78, 62
1, 39119, Note_on_c, 0, 79, 80
1, 39122, Note_on_c, 0, 78, 0
1, 39181, Note_on_c, 0, 84, 89
1, 39184, Note_on_c, 0, 79, 0
1, 39211, Note_on_c, 0, 82, 62
1, 39220, Note_on_c, 0, 84, 0
1, 39239, Note_on_c, 0, 81, 76
1, 39244, Note_on_c, 0, 82, 0
1, 39269, Note_on_c, 0, 79, 76
1, 39274, Note_on_c, 0, 81, 0
1, 39298, Note_on_c, 0, 79, 0
1, 39299, Note_on_c, 0, 77, 72
1, 39329, Note_on_c, 0, 76, 76
1, 39334, Note_on_c, 0, 77, 0
1, 39357, Note_on_c, 0, 76, 0
1, 39359, Note_on_c, 0, 77, 80
1, 39359, Note_on_c, 1, 69, 70
1, 39481, Note_on_c, 1, 72, 70
1, 39487, Note_on_c, 1, 69, 0
1, 39539, Note_on_c, 0, 79, 80
1, 39541, Note_on_c, 0, 77, 0
1, 39555, Note_on_c, 0, 77, 76
1, 39562, Note_on_c, 0, 79, 0
1, 39570, Note_on_c, 0, 76, 76
1, 39573, Note_on_c, 0, 77, 0
1, 39584, Note_on_c, 0, 77, 72
1, 39585, Note_on_c, 0, 76, 0
1, 39599, Note_on_c, 0, 77, 0
1, 39599, Note_on_c, 0, 81, 76
1, 39600, Note_on_c, 1, 72, 0
1, 39601, Note_on_c, 1, 65, 58
1, 39721, Note_on_c, 1, 72, 62
1, 39723, Note_on_c, 1, 65, 0
1, 39835, Note_on_c, 0, 81, 0
1, 39841, Note_on_c, 0, 81, 89
1, 39841, Note_on_c, 1, 70, 62
1, 39850, Note_on_c, 1, 72, 0
1, 39901, Note_on_c, 0, 81, 0
1, 39901, Note_on_c, 0, 79, 85
1, 39946, Note_on_c, 0, 79, 0
1, 39961, Note_on_c, 0, 79, 85
1, 39961, Note_on_c, 1, 72, 79
1, 39963, Note_on_c, 1, 70, 0
1, 40016, Note_on_c, 0, 79, 0
1, 40019, Note_on_c, 0, 76, 80
1, 40075, Note_on_c, 0, 76, 0
1, 40078, Note_on_c, 0, 77, 93
1, 40081, Note_on_c, 1, 69, 70
1, 40087, Note_on_c, 1, 72, 0
1, 40198, Note_on_c, 1, 69, 0
1, 40200, Note_on_c, 1, 72, 66
1, 40259, Note_on_c, 0, 81, 89
1, 40262, Note_on_c, 0, 77, 0
1, 40321, Note_on_c, 1, 70, 62
1, 40327, Note_on_c, 1, 72, 0
1, 40381, Note_on_c, 0, 79, 93
1, 40385, Note_on_c, 0, 81, 0
1, 40440, Note_on_c, 1, 70, 0
1, 40440, Note_on_c, 1, 72, 66
1, 40499, Note_on_c, 0, 79, 0
1, 40499, Note_on_c, 0, 76, 89
1, 40559, Note_on_c, 1, 72, 0
1, 40559, Note_on_c, 1, 69, 70
1, 40619, Note_on_c, 0, 77, 93
1, 40622, Note_on_c, 0, 76, 0
1, 40680, Note_on_c, 1, 72, 62
1, 40683, Note_on_c, 1, 69, 0
1, 40739, Note_on_c, 0, 77, 0
1, 40739, Note_on_c, 0, 81, 89
1, 40783, Note_on_c, 1, 72, 0
1, 40799, Note_on_c, 0, 84, 85
1, 40799, Note_on_c, 1, 72, 49
1, 40799, Note_on_c, 1, 67, 75
1, 40800, Note_on_c, 0, 81, 0
1, 40859, Note_on_c, 0, 82, 80
1, 40865, Note_on_c, 0, 84, 0
1, 40909, Note_on_c, 0, 82, 0
1, 40915, Note_on_c, 1, 67, 0
1, 40919, Note_on_c, 1, 64, 62
1, 40979, Note_on_c, 0, 79, 80
1, 41039, Note_on_c, 0, 82, 89
1, 41039, Note_on_c, 1, 65, 66
1, 41040, Note_on_c, 1, 64, 0
1, 41043, Note_on_c, 0, 79, 0
1, 41099, Note_on_c, 0, 81, 76
1, 41103, Note_on_c, 0, 82, 0
1, 41140, Note_on_c, 0, 81, 0
1, 41159, Note_on_c, 1, 69, 75
1, 41160, Note_on_c, 1, 65, 0
1, 41219, Note_on_c, 0, 77, 89
1, 41276, Note_on_c, 1, 69, 0
1, 41278, Note_on_c, 0, 73, 85
1, 41279, Note_on_c, 0, 77, 0
1, 41279, Note_on_c, 1, 70, 70
1, 41280, Note_on_c, 1, 72, 0
1, 41339, Note_on_c, 0, 74, 76
1, 41340, Note_on_c, 0, 73, 0
1, 41399, Note_on_c, 0, 75, 85
1, 41399, Note_on_c, 1, 58, 66
1, 41400, Note_on_c, 1, 70, 0
1, 41401, Note_on_c, 0, 74, 0
1, 41459, Note_on_c, 0, 76, 80
1, 41460, Note_on_c, 0, 75, 0
1, 41519, Note_on_c, 0, 77, 93
1, 41519, Note_on_c, 1, 62, 75
1, 41522, Note_on_c, 1, 58, 0
1, 41523, Note_on_c, 0, 76, 0
1, 41576, Note_on_c, 0, 77, 0
1, 41579, Note_on_c, 0, 78, 89
1, 41637, Note_on_c, 0, 78, 0
1, 41639, Note_on_c, 0, 81, 93
1, 41639, Note_on_c, 1, 59, 66
1, 41639, Note_on_c, 1, 65, 66
1, 41640, Note_on_c, 1, 62, 0
1, 41699, Note_on_c, 0, 79, 89
1, 41707, Note_on_c, 0, 81, 0
1, 41749, Note_on_c, 1, 59, 0
1, 41757, Note_on_c, 0, 79, 0
1, 41759, Note_on_c, 0, 79, 98
1, 41759, Note_on_c, 1, 60, 54
1, 41876, Note_on_c, 1, 65, 0
1, 41879, Note_on_c, 1, 64, 66
1, 41881, Note_on_c, 0, 72, 85
1, 41882, Note_on_c, 0, 79, 0
1, 41971, Note_on_c, 1, 62, 62
1, 41981, Note_on_c, 1, 64, 0
1, 41996, Note_on_c, 1, 62, 0
1, 42000, Note_on_c, 1, 64, 70
1, 42025, Note_on_c, 0, 72, 0
1, 42030, Note_on_c, 0, 72, 76
1, 42060, Note_on_c, 0, 71, 89
1, 42062, Note_on_c, 0, 72, 0
1, 42089, Note_on_c, 0, 72, 89
1, 42090, Note_on_c, 0, 71, 0
1, 42117, Note_on_c, 1, 64, 0
1, 42119, Note_on_c, 0, 73, 76
1, 42120, Note_on_c, 0, 72, 0
1, 42123, Note_on_c, 1, 60, 0
1, 42149, Note_on_c, 0, 74, 64
1, 42152, Note_on_c, 0, 73, 0
1, 42179, Note_on_c, 0, 75, 76
1, 42182, Note_on_c, 0, 74, 0
1, 42209, Note_on_c, 0, 76, 76
1, 42210, Note_on_c, 0, 75, 0
1, 42241, Note_on_c, 0, 76, 0
1, 42241, Note_on_c, 1, 69, 70
1, 42242, Note_on_c, 0, 77, 98
1, 42361, Note_on_c, 1, 72, 70
1, 42367, Note_on_c, 1, 69, 0
1, 42411, Note_on_c, 0, 77, 0
1, 42419, Note_on_c, 0, 79, 80
1, 42434, Note_on_c, 0, 77, 85
1, 42444, Note_on_c, 0, 79, 0
1, 42449, Note_on_c, 0, 76, 80
1, 42452, Note_on_c, 0, 77, 0
1, 42464, Note_on_c, 0, 77, 64
1, 42467, Note_on_c, 0, 76, 0
1, 42473, Note_on_c, 1, 72, 0
1, 42481, Note_on_c, 0, 77, 0
1, 42481, Note_on_c, 0, 81, 85
1, 42481, Note_on_c, 1, 65, 54
1, 42594, Note_on_c, 1, 65, 0
1, 42598, Note_on_c, 1, 72, 58
1, 42718, Note_on_c, 1, 72, 0
1, 42720, Note_on_c, 1, 70, 62
1, 42722, Note_on_c, 0, 79, 89
1, 42730, Note_on_c, 0, 81, 0
1, 42780, Note_on_c, 0, 79, 0
1, 42781, Note_on_c, 0, 81, 89
1, 42840, Note_on_c, 1, 70, 0
1, 42841, Note_on_c, 0, 82, 93
1, 42841, Note_on_c, 1, 72, 70
1, 42842, Note_on_c, 0, 81, 0
1, 42901, Note_on_c, 0, 76, 80
1, 42902, Note_on_c, 0, 82, 0
1, 42955, Note_on_c, 0, 76, 0
1, 42960, Note_on_c, 0, 77, 93
1, 42961, Note_on_c, 1, 69, 66
1, 42965, Note_on_c, 1, 72, 0
1, 43080, Note_on_c, 1, 69, 0
1, 43081, Note_on_c, 1, 72, 66
1, 43141, Note_on_c, 0, 81, 89
1, 43142, Note_on_c, 0, 77, 0
1, 43201, Note_on_c, 0, 78, 89
1, 43201, Note_on_c, 1, 70, 62
1, 43203, Note_on_c, 1, 72, 0
1, 43204, Note_on_c, 0, 81, 0
1, 43229, Note_on_c, 0, 79, 62
1, 43233, Note_on_c, 0, 78, 0
1, 43260, Note_on_c, 0, 80, 76
1, 43263, Note_on_c, 0, 79, 0
1, 43287, Note_on_c, 0, 80, 0
1, 43289, Note_on_c, 0, 81, 76
1, 43319, Note_on_c, 0, 82, 76
1, 43321, Note_on_c, 0, 81, 0
1, 43321, Note_on_c, 1, 72, 66
1, 43325, Note_on_c, 1, 70, 0
1, 43379, Note_on_c, 0, 76, 80
1, 43381, Note_on_c, 0, 82, 0
1, 43402, Note_on_c, 0, 76, 0
1, 43434, Note_on_c, 1, 72, 0
1, 43439, Note_on_c, 0, 77, 89
1, 43439, Note_on_c, 1, 69, 66
1, 43500, Note_on_c, 0, 81, 93
1, 43502, Note_on_c, 0, 77, 0
1, 43561, Note_on_c, 1, 72, 66
1, 43562, Note_on_c, 1, 69, 0
1, 43621, Note_on_c, 0, 84, 93
1, 43625, Note_on_c, 0, 81, 0
1, 43671, Note_on_c, 1, 72, 0
1, 43681, Note_on_c, 1, 72, 58
1, 43681, Note_on_c, 1, 67, 62
1, 43742, Note_on_c, 0, 82, 89
1, 43746, Note_on_c, 0, 84, 0
1, 43801, Note_on_c, 1, 64, 66
1, 43804, Note_on_c, 1, 67, 0
1, 43862, Note_on_c, 0, 79, 89
1, 43864, Note_on_c, 0, 82, 0
1, 43914, Note_on_c, 1, 64, 0
1, 43921, Note_on_c, 1, 65, 58
1, 43979, Note_on_c, 0, 79, 0
1, 43981, Note_on_c, 0, 81, 93
1, 44041, Note_on_c, 1, 62, 75
1, 44043, Note_on_c, 1, 65, 0
1, 44048, Note_on_c, 1, 72, 0
1, 44101, Note_on_c, 0, 77, 89
1, 44102, Note_on_c, 0, 81, 0
1, 44161, Note_on_c, 0, 74, 89
1, 44161, Note_on_c, 1, 58, 66
1, 44162, Note_on_c, 0, 77, 0
1, 44162, Note_on_c, 1, 62, 0
1, 44228, Note_on_c, 0, 74, 0
1, 44233, Note_on_c, 0, 76, 93
1, 44249, Note_on_c, 0, 74, 76
1, 44257, Note_on_c, 0, 76, 0
1, 44266, Note_on_c, 0, 73, 76
1, 44270, Note_on_c, 0, 74, 0
1, 44281, Note_on_c, 0, 73, 0
1, 44281, Note_on_c, 0, 74, 85
1, 44281, Note_on_c, 1, 70, 70
1, 44341, Note_on_c, 0, 79, 89
1, 44343, Note_on_c, 0, 74, 0
1, 44389, Note_on_c, 1, 58, 0
1, 44401, Note_on_c, 1, 69, 66
1, 44401, Note_on_c, 1, 60, 66
1, 44402, Note_on_c, 0, 72, 85
1, 44402, Note_on_c, 1, 70, 0
1, 44462, Note_on_c, 0, 77, 93
1, 44465, Note_on_c, 0, 79, 0
1, 44521, Note_on_c, 0, 70, 64
1, 44521, Note_on_c, 1, 67, 70
1, 44523, Note_on_c, 1, 69, 0
1, 44524, Note_on_c, 1, 60, 0
1, 44528, Note_on_c, 0, 72, 0
1, 44577, Note_on_c, 0, 77, 0
1, 44581, Note_on_c, 0, 76, 102
1, 44630, Note_on_c, 0, 70, 0
1, 44636, Note_on_c, 0, 76, 0
1, 44638, Note_on_c, 1, 67, 0
1, 44641, Note_on_c, 0, 76, 89
1, 44641, Note_on_c, 0, 70, 89
1, 44641, Note_on_c, 1, 65, 79
1, 44761, Note_on_c, 1, 60, 62
1, 44768, Note_on_c, 1, 65, 0
1, 44873, Note_on_c, 1, 60, 0
1, 44880, Note_on_c, 0, 70, 0
1, 44881, Note_on_c, 0, 76, 0
1, 44881, Note_on_c, 0, 77, 72
1, 44881, Note_on_c, 0, 69, 68
1, 44881, Note_on_c, 1, 53, 58
1, 45002, Note_on_c, 1, 53, 0
1, 45020, Note_on_c, 0, 69, 0
1, 45023, Note_on_c, 0, 77, 0
1, 45600, Note_on_c, 0, 72, 76
1, 45600, Note_on_c, 0, 68, 60
1, 45720, Note_on_c, 1, 53, 62
1, 45841, Note_on_c, 1, 46, 58
1, 45842, Note_on_c, 1, 53, 0
1, 45850, Note_on_c, 0, 73, 72
1, 45853, Note_on_c, 0, 72, 0
1, 45968, Note_on_c, 1, 58, 49
1, 45969, Note_on_c, 1, 46, 0
1, 46082, Note_on_c, 0, 67, 68
1, 46083, Note_on_c, 0, 68, 0
1, 46084, Note_on_c, 1, 58, 0
1, 46084, Note_on_c, 1, 51, 50
1, 46147, Note_on_c, 0, 77, 76
1, 46151, Note_on_c, 0, 73, 0
1, 46201, Note_on_c, 1, 39, 62
1, 46206, Note_on_c, 0, 75, 64
1, 46207, Note_on_c, 1, 51, 0
1, 46209, Note_on_c, 0, 77, 0
1, 46267, Note_on_c, 0, 73, 72
1, 46271, Note_on_c, 0, 75, 0
1, 46322, Note_on_c, 1, 39, 0
1, 46323, Note_on_c, 1, 44, 52
1, 46327, Note_on_c, 0, 73, 0
1, 46327, Note_on_c, 0, 72, 76
1, 46384, Note_on_c, 0, 70, 68
1, 46392, Note_on_c, 0, 67, 0
1, 46443, Note_on_c, 0, 68, 57
1, 46443, Note_on_c, 1, 56, 54
1, 46444, Note_on_c, 1, 44, 0
1, 46447, Note_on_c, 0, 70, 0
1, 46506, Note_on_c, 0, 68, 0
1, 46507, Note_on_c, 0, 67, 62
1, 46560, Note_on_c, 1, 49, 52
1, 46562, Note_on_c, 1, 56, 0
1, 46565, Note_on_c, 0, 67, 0
1, 46565, Note_on_c, 0, 65, 76
1, 46625, Note_on_c, 0, 75, 76
1, 46631, Note_on_c, 0, 72, 0
1, 46678, Note_on_c, 1, 37, 62
1, 46683, Note_on_c, 0, 73, 72
1, 46684, Note_on_c, 1, 49, 0
1, 46688, Note_on_c, 0, 75, 0
1, 46744, Note_on_c, 0, 73, 0
1, 46745, Note_on_c, 0, 72, 76
1, 46800, Note_on_c, 1, 43, 62
1, 46803, Note_on_c, 1, 37, 0
1, 46806, Note_on_c, 0, 72, 0
1, 46806, Note_on_c, 0, 70, 76
1, 46867, Note_on_c, 0, 68, 68
1, 46868, Note_on_c, 0, 65, 0
1, 46922, Note_on_c, 0, 68, 0
1, 46923, Note_on_c, 1, 55, 54
1, 46926, Note_on_c, 0, 67, 76
1, 46926, Note_on_c, 1, 43, 0
1, 46984, Note_on_c, 0, 65, 76
1, 46986, Note_on_c, 0, 67, 0
1, 47043, Note_on_c, 0, 64, 72
1, 47043, Note_on_c, 1, 48, 62
1, 47044, Note_on_c, 0, 65, 0
1, 47044, Note_on_c, 1, 55, 0
1, 47102, Note_on_c, 0, 73, 62
1, 47108, Note_on_c, 0, 70, 0
1, 47155, Note_on_c, 1, 36, 52
1, 47159, Note_on_c, 0, 73, 0
1, 47159, Note_on_c, 1, 48, 0
1, 47161, Note_on_c, 0, 72, 72
1, 47221, Note_on_c, 0, 70, 76
1, 47224, Note_on_c, 0, 72, 0
1, 47275, Note_on_c, 1, 36, 0
1, 47281, Note_on_c, 1, 41, 38
1, 47284, Note_on_c, 0, 68, 76
1, 47285, Note_on_c, 0, 65, 80
1, 47287, Note_on_c, 0, 64, 0
1, 47288, Note_on_c, 0, 70, 0
1, 47303, Note_on_c, 0, 68, 0
1, 47341, Note_on_c, 1, 49, 52
1, 47346, Note_on_c, 1, 41, 0
1, 47349, Note_on_c, 0, 70, 64
1, 47367, Note_on_c, 0, 68, 62
1, 47369, Note_on_c, 0, 70, 0
1, 47384, Note_on_c, 0, 68, 0
1, 47387, Note_on_c, 0, 67, 72
1, 47401, Note_on_c, 1, 48, 66
1, 47405, Note_on_c, 0, 68, 72
1, 47406, Note_on_c, 1, 49, 0
1, 47407, Note_on_c, 0, 67, 0
1, 47456, Note_on_c, 1, 48, 0
1, 47458, Note_on_c, 1, 46, 62
1, 47466, Note_on_c, 0, 68, 0
1, 47467, Note_on_c, 0, 70, 68
1, 47468, Note_on_c, 0, 67, 68
1, 47469, Note_on_c, 0, 65, 0
1, 47515, Note_on_c, 0, 70, 0
1, 47525, Note_on_c, 0, 68, 62
1, 47526, Note_on_c, 1, 46, 0
1, 47527, Note_on_c, 1, 44, 62
1, 47528, Note_on_c, 0, 72, 76
1, 47529, Note_on_c, 0, 67, 0
1, 47546, Note_on_c, 0, 72, 0
1, 47588, Note_on_c, 0, 73, 62
1, 47607, Note_on_c, 0, 73, 0
1, 47607, Note_on_c, 0, 72, 76
1, 47621, Note_on_c, 0, 70, 72
1, 47625, Note_on_c, 0, 72, 0
1, 47639, Note_on_c, 0, 72, 72
1, 47640, Note_on_c, 0, 70, 0
1, 47657, Note_on_c, 1, 44, 0
1, 47702, Note_on_c, 0, 73, 72
1, 47703, Note_on_c, 0, 72, 0
1, 47716, Note_on_c, 0, 68, 0
1, 47753, Note_on_c, 0, 73, 0
1, 47761, Note_on_c, 0, 75, 62
1, 47778, Note_on_c, 0, 75, 0
1, 47823, Note_on_c, 0, 75, 64
1, 47841, Note_on_c, 0, 75, 0
1, 47882, Note_on_c, 0, 75, 68
1, 47902, Note_on_c, 0, 75, 0
1, 47945, Note_on_c, 0, 75, 76
1, 47961, Note_on_c, 0, 75, 0
1, 48007, Note_on_c, 0, 75, 76
1, 48066, Note_on_c, 0, 75, 0
1, 48067, Note_on_c, 0, 77, 62
1, 48126, Note_on_c, 1, 63, 62
1, 48127, Note_on_c, 1, 55, 66
1, 48129, Note_on_c, 0, 77, 0
1, 48129, Note_on_c, 0, 70, 60
1, 48129, Note_on_c, 0, 73, 76
1, 48353, Note_on_c, 1, 56, 52
1, 48356, Note_on_c, 1, 55, 0
1, 48357, Note_on_c, 0, 70, 0
1, 48368, Note_on_c, 0, 68, 56
1, 48370, Note_on_c, 0, 72, 64
1, 48374, Note_on_c, 0, 73, 0
1, 48468, Note_on_c, 0, 72, 0
1, 48472, Note_on_c, 0, 68, 0
1, 48490, Note_on_c, 0, 65, 72
1, 48490, Note_on_c, 0, 70, 59
1, 48496, Note_on_c, 1, 61, 52
1, 48496, Note_on_c, 1, 49, 45
1, 48497, Note_on_c, 1, 56, 0
1, 48499, Note_on_c, 1, 63, 0
1, 48543, Note_on_c, 0, 70, 0
1, 48547, Note_on_c, 0, 72, 76
1, 48566, Note_on_c, 0, 70, 56
1, 48573, Note_on_c, 0, 72, 0
1, 48586, Note_on_c, 0, 69, 60
1, 48587, Note_on_c, 0, 70, 0
1, 48606, Note_on_c, 0, 70, 68
1, 48609, Note_on_c, 0, 69, 0
1, 48667, Note_on_c, 0, 72, 76
1, 48669, Note_on_c, 0, 70, 0
1, 48696, Note_on_c, 0, 73, 64
1, 48702, Note_on_c, 0, 72, 0
1, 48705, Note_on_c, 0, 65, 0
1, 48722, Note_on_c, 0, 73, 0
1, 48725, Note_on_c, 1, 61, 0
1, 48725, Note_on_c, 1, 49, 0
1, 48726, Note_on_c, 1, 51, 50
1, 48726, Note_on_c, 1, 60, 58
1, 48728, Note_on_c, 0, 63, 56
1, 48728, Note_on_c, 0, 68, 76
1, 48782, Note_on_c, 0, 63, 0
1, 48784, Note_on_c, 0, 68, 0
1, 48840, Note_on_c, 0, 67, 89
1, 48841, Note_on_c, 0, 61, 57
1, 48853, Note_on_c, 1, 58, 50
1, 48856, Note_on_c, 1, 60, 0
1, 48863, Note_on_c, 1, 51, 0
1, 48889, Note_on_c, 0, 61, 0
1, 48890, Note_on_c, 0, 67, 0
1, 48960, Note_on_c, 1, 56, 54
1, 48962, Note_on_c, 1, 58, 0
1, 48966, Note_on_c, 0, 70, 80
1, 48966, Note_on_c, 0, 61, 76
1, 49088, Note_on_c, 1, 51, 47
1, 49094, Note_on_c, 1, 56, 0
1, 49198, Note_on_c, 1, 44, 49
1, 49201, Note_on_c, 1, 51, 0
1, 49203, Note_on_c, 0, 61, 0
1, 49205, Note_on_c, 0, 68, 72
1, 49206, Note_on_c, 0, 60, 60
1, 49208, Note_on_c, 0, 70, 0
1, 49337, Note_on_c, 0, 60, 0
1, 49339, Note_on_c, 0, 68, 0
1, 49341, Note_on_c, 1, 44, 0
1, 49440, Note_on_c, 0, 72, 93
1, 49441, Note_on_c, 0, 68, 72
1, 49557, Note_on_c, 1, 53, 66
1, 49682, Note_on_c, 0, 73, 89
1, 49682, Note_on_c, 1, 46, 66
1, 49683, Note_on_c, 1, 53, 0
1, 49686, Note_on_c, 0, 72, 0
1, 49802, Note_on_c, 1, 58, 50
1, 49804, Note_on_c, 1, 46, 0
1, 49916, Note_on_c, 0, 68, 0
1, 49919, Note_on_c, 0, 67, 76
1, 49919, Note_on_c, 1, 58, 0
1, 49921, Note_on_c, 1, 51, 49
1, 49980, Note_on_c, 0, 77, 93
1, 49983, Note_on_c, 0, 73, 0
1, 50038, Note_on_c, 1, 39, 50
1, 50044, Note_on_c, 0, 75, 76
1, 50044, Note_on_c, 1, 51, 0
1, 50051, Note_on_c, 0, 77, 0
1, 50106, Note_on_c, 0, 73, 80
1, 50112, Note_on_c, 0, 75, 0
1, 50158, Note_on_c, 1, 39, 0
1, 50159, Note_on_c, 1, 44, 66
1, 50169, Note_on_c, 0, 72, 85
1, 50170, Note_on_c, 0, 73, 0
1, 50224, Note_on_c, 0, 70, 80
1, 50231, Note_on_c, 0, 67, 0
1, 50280, Note_on_c, 1, 56, 54
1, 50281, Note_on_c, 1, 44, 0
1, 50285, Note_on_c, 0, 68, 72
1, 50287, Note_on_c, 0, 70, 0
1, 50347, Note_on_c, 0, 68, 0
1, 50347, Note_on_c, 0, 67, 80
1, 50398, Note_on_c, 1, 56, 0
1, 50400, Note_on_c, 1, 49, 62
1, 50408, Note_on_c, 0, 67, 0
1, 50408, Note_on_c, 0, 65, 72
1, 50464, Note_on_c, 0, 75, 72
1, 50469, Note_on_c, 0, 72, 0
1, 50519, Note_on_c, 1, 37, 54
1, 50523, Note_on_c, 1, 49, 0
1, 50524, Note_on_c, 0, 73, 76
1, 50528, Note_on_c, 0, 75, 0
1, 50583, Note_on_c, 0, 73, 0
1, 50583, Note_on_c, 0, 72, 72
1, 50637, Note_on_c, 1, 37, 0
1, 50637, Note_on_c, 1, 43, 70
1, 50648, Note_on_c, 0, 70, 89
1, 50649, Note_on_c, 0, 72, 0
1, 50704, Note_on_c, 0, 65, 0
1, 50704, Note_on_c, 0, 68, 76
1, 50763, Note_on_c, 1, 55, 54
1, 50767, Note_on_c, 1, 43, 0
1, 50768, Note_on_c, 0, 68, 0
1, 50770, Note_on_c, 0, 67, 72
1, 50829, Note_on_c, 0, 65, 76
1, 50831, Note_on_c, 0, 67, 0
1, 50879, Note_on_c, 1, 55, 0
1, 50880, Note_on_c, 1, 48, 66
1, 50890, Note_on_c, 0, 64, 72
1, 50893, Note_on_c, 0, 65, 0
1, 50948, Note_on_c, 0, 73, 62
1, 50953, Note_on_c, 0, 70, 0
1, 51003, Note_on_c, 1, 36, 62
1, 51005, Note_on_c, 0, 72, 80
1, 51007, Note_on_c, 0, 73, 0
1, 51008, Note_on_c, 1, 48, 0
1, 51065, Note_on_c, 0, 70, 76
1, 51068, Note_on_c, 0, 72, 0
1, 51119, Note_on_c, 1, 36, 0
1, 51119, Note_on_c, 1, 41, 66
1, 51126, Note_on_c, 0, 68, 76
1, 51127, Note_on_c, 0, 65, 76
1, 51129, Note_on_c, 0, 70, 0
1, 51133, Note_on_c, 0, 64, 0
1, 51146, Note_on_c, 0, 68, 0
1, 51183, Note_on_c, 1, 41, 0
1, 51184, Note_on_c, 1, 49, 52
1, 51188, Note_on_c, 0, 70, 64
1, 51205, Note_on_c, 0, 68, 59
1, 51208, Note_on_c, 0, 70, 0
1, 51223, Note_on_c, 0, 68, 0
1, 51224, Note_on_c, 0, 67, 59
1, 51242, Note_on_c, 0, 67, 0
1, 51244, Note_on_c, 1, 48, 66
1, 51245, Note_on_c, 0, 68, 98
1, 51248, Note_on_c, 1, 49, 0
1, 51302, Note_on_c, 1, 48, 0
1, 51303, Note_on_c, 0, 68, 0
1, 51303, Note_on_c, 1, 46, 58
1, 51306, Note_on_c, 0, 67, 80
1, 51307, Note_on_c, 0, 70, 80
1, 51310, Note_on_c, 0, 65, 0
1, 51324, Note_on_c, 0, 70, 0
1, 51367, Note_on_c, 0, 68, 68
1, 51367, Note_on_c, 0, 72, 80
1, 51367, Note_on_c, 1, 46, 0
1, 51369, Note_on_c, 1, 44, 52
1, 51370, Note_on_c, 0, 67, 0
1, 51382, Note_on_c, 0, 72, 0
1, 51429, Note_on_c, 0, 73, 68
1, 51447, Note_on_c, 0, 73, 0
1, 51450, Note_on_c, 0, 72, 76
1, 51460, Note_on_c, 0, 70, 60
1, 51462, Note_on_c, 0, 72, 0
1, 51480, Note_on_c, 0, 70, 0
1, 51482, Note_on_c, 0, 72, 89
1, 51496, Note_on_c, 1, 44, 0
1, 51544, Note_on_c, 0, 72, 0
1, 51545, Note_on_c, 0, 73, 89
1, 51548, Note_on_c, 0, 68, 0
1, 51561, Note_on_c, 0, 73, 0
1, 51607, Note_on_c, 0, 75, 85
1, 51626, Note_on_c, 0, 75, 0
1, 51666, Note_on_c, 0, 75, 76
1, 51685, Note_on_c, 0, 75, 0
1, 51725, Note_on_c, 0, 75, 72
1, 51744, Note_on_c, 0, 75, 0
1, 51784, Note_on_c, 0, 75, 72
1, 51803, Note_on_c, 0, 75, 0
1, 51844, Note_on_c, 0, 75, 72
1, 51902, Note_on_c, 0, 75, 0
1, 51904, Note_on_c, 0, 77, 72
1, 51967, Note_on_c, 0, 70, 64
1, 51968, Note_on_c, 0, 77, 0
1, 51968, Note_on_c, 0, 73, 80
1, 51968, Note_on_c, 1, 63, 47
1, 51970, Note_on_c, 1, 55, 66
1, 52193, Note_on_c, 1, 55, 0
1, 52195, Note_on_c, 1, 56, 62
1, 52200, Note_on_c, 0, 70, 0
1, 52200, Note_on_c, 0, 68, 68
1, 52200, Note_on_c, 0, 72, 72
1, 52204, Note_on_c, 0, 73, 0
1, 52300, Note_on_c, 1, 56, 0
1, 52305, Note_on_c, 1, 63, 0
1, 52322, Note_on_c, 0, 68, 0
1, 52325, Note_on_c, 0, 70, 85
1, 52327, Note_on_c, 1, 61, 66
1, 52329, Note_on_c, 0, 72, 0
1, 52329, Note_on_c, 1, 49, 58
1, 52331, Note_on_c, 0, 65, 85
1, 52390, Note_on_c, 0, 72, 76
1, 52392, Note_on_c, 0, 70, 0
1, 52411, Note_on_c, 0, 70, 62
1, 52419, Note_on_c, 0, 72, 0
1, 52432, Note_on_c, 0, 70, 0
1, 52433, Note_on_c, 0, 69, 76
1, 52448, Note_on_c, 0, 70, 72
1, 52453, Note_on_c, 0, 69, 0
1, 52510, Note_on_c, 0, 72, 76
1, 52512, Note_on_c, 0, 70, 0
1, 52537, Note_on_c, 0, 73, 76
1, 52538, Note_on_c, 0, 72, 0
1, 52543, Note_on_c, 1, 49, 0
1, 52544, Note_on_c, 1, 61, 0
1, 52563, Note_on_c, 1, 51, 58
1, 52564, Note_on_c, 1, 60, 58
1, 52567, Note_on_c, 0, 68, 80
1, 52568, Note_on_c, 0, 65, 0
1, 52570, Note_on_c, 0, 63, 64
1, 52572, Note_on_c, 0, 73, 0
1, 52630, Note_on_c, 0, 68, 0
1, 52632, Note_on_c, 0, 63, 0
1, 52683, Note_on_c, 1, 58, 52
1, 52684, Note_on_c, 0, 67, 80
1, 52684, Note_on_c, 0, 61, 60
1, 52688, Note_on_c, 1, 60, 0
1, 52743, Note_on_c, 0, 67, 0
1, 52746, Note_on_c, 0, 61, 0
1, 52794, Note_on_c, 1, 58, 0
1, 52800, Note_on_c, 1, 51, 0
1, 52803, Note_on_c, 1, 56, 62
1, 52805, Note_on_c, 0, 70, 76
1, 52806, Note_on_c, 0, 61, 72
1, 52923, Note_on_c, 1, 51, 54
1, 52930, Note_on_c, 1, 56, 0
1, 53042, Note_on_c, 0, 61, 0
1, 53042, Note_on_c, 1, 44, 49
1, 53044, Note_on_c, 0, 60, 55
1, 53044, Note_on_c, 1, 51, 0
1, 53045, Note_on_c, 0, 68, 80
1, 53049, Note_on_c, 0, 70, 0
1, 53174, Note_on_c, 1, 44, 0
1, 53182, Note_on_c, 0, 68, 0
1, 53188, Note_on_c, 0, 60, 0
1, 53286, Note_on_c, 0, 69, 62
1, 53287, Note_on_c, 0, 72, 93
1, 53400, Note_on_c, 1, 65, 70
1, 53523, Note_on_c, 0, 73, 85
1, 53524, Note_on_c, 0, 70, 62
1, 53525, Note_on_c, 0, 72, 0
1, 53528, Note_on_c, 0, 69, 0
1, 53638, Note_on_c, 1, 64, 70
1, 53642, Note_on_c, 1, 65, 0
1, 53757, Note_on_c, 1, 63, 58
1, 53759, Note_on_c, 1, 64, 0
1, 53763, Note_on_c, 0, 72, 76
1, 53766, Note_on_c, 0, 69, 60
1, 53767, Note_on_c, 0, 73, 0
1, 53769, Note_on_c, 0, 70, 0
1, 53826, Note_on_c, 0, 78, 80
1, 53832, Note_on_c, 0, 72, 0
1, 53879, Note_on_c, 1, 62, 75
1, 53880, Note_on_c, 1, 63, 0
1, 53885, Note_on_c, 0, 77, 76
1, 53889, Note_on_c, 0, 78, 0
1, 53938, Note_on_c, 1, 62, 0
1, 53940, Note_on_c, 1, 60, 66
1, 53943, Note_on_c, 0, 75, 68
1, 53950, Note_on_c, 0, 77, 0
1, 54003, Note_on_c, 1, 58, 66
1, 54005, Note_on_c, 1, 60, 0
1, 54006, Note_on_c, 0, 73, 72
1, 54007, Note_on_c, 0, 70, 60
1, 54008, Note_on_c, 0, 75, 0
1, 54014, Note_on_c, 0, 69, 0
1, 54062, Note_on_c, 1, 60, 62
1, 54065, Note_on_c, 1, 58, 0
1, 54121, Note_on_c, 1, 60, 0
1, 54123, Note_on_c, 1, 61, 58
1, 54145, Note_on_c, 0, 73, 0
1, 54152, Note_on_c, 0, 70, 0
1, 54176, Note_on_c, 1, 62, 75
1, 54180, Note_on_c, 1, 61, 0
1, 54236, Note_on_c, 1, 63, 50
1, 54244, Note_on_c, 0, 70, 80
1, 54245, Note_on_c, 0, 67, 68
1, 54250, Note_on_c, 1, 62, 0
1, 54350, Note_on_c, 1, 63, 0
1, 54363, Note_on_c, 1, 63, 66
1, 54484, Note_on_c, 0, 70, 0
1, 54485, Note_on_c, 0, 68, 68
1, 54485, Note_on_c, 0, 71, 89
1, 54491, Note_on_c, 0, 67, 0
1, 54491, Note_on_c, 1, 63, 0
1, 54603, Note_on_c, 1, 62, 79
1, 54720, Note_on_c, 1, 61, 75
1, 54724, Note_on_c, 0, 71, 0
1, 54724, Note_on_c, 0, 70, 76
1, 54724, Note_on_c, 0, 67, 76
1, 54724, Note_on_c, 1, 62, 0
1, 54726, Note_on_c, 0, 68, 0
1, 54785, Note_on_c, 0, 77, 80
1, 54788, Note_on_c, 0, 70, 0
1, 54840, Note_on_c, 1, 61, 0
1, 54840, Note_on_c, 1, 60, 66
1, 54843, Note_on_c, 0, 77, 0
1, 54844, Note_on_c, 0, 75, 76
1, 54895, Note_on_c, 1, 58, 58
1, 54898, Note_on_c, 1, 60, 0
1, 54908, Note_on_c, 0, 73, 76
1, 54911, Note_on_c, 0, 75, 0
1, 54960, Note_on_c, 1, 56, 66
1, 54962, Note_on_c, 0, 73, 0
1, 54964, Note_on_c, 0, 72, 80
1, 54967, Note_on_c, 1, 58, 0
1, 54969, Note_on_c, 0, 68, 64
1, 54973, Note_on_c, 0, 67, 0
1, 55019, Note_on_c, 1, 55, 66
1, 55025, Note_on_c, 1, 56, 0
1, 55026, Note_on_c, 0, 70, 72
1, 55028, Note_on_c, 0, 72, 0
1, 55067, Note_on_c, 0, 68, 0
1, 55078, Note_on_c, 1, 55, 0
1, 55080, Note_on_c, 1, 53, 66
1, 55083, Note_on_c, 0, 70, 0
1, 55085, Note_on_c, 0, 68, 72
1, 55135, Note_on_c, 1, 51, 58
1, 55136, Note_on_c, 1, 53, 0
1, 55145, Note_on_c, 0, 67, 59
1, 55146, Note_on_c, 0, 72, 85
1, 55147, Note_on_c, 0, 68, 0
1, 55195, Note_on_c, 0, 72, 0
1, 55201, Note_on_c, 1, 51, 0
1, 55201, Note_on_c, 1, 50, 70
1, 55202, Note_on_c, 0, 65, 59
1, 55203, Note_on_c, 0, 72, 56
1, 55204, Note_on_c, 0, 67, 0
1, 55265, Note_on_c, 0, 71, 89
1, 55266, Note_on_c, 0, 72, 0
1, 55318, Note_on_c, 0, 71, 0
1, 55322, Note_on_c, 1, 52, 66
1, 55323, Note_on_c, 0, 65, 0
1, 55325, Note_on_c, 1, 50, 0
1, 55381, Note_on_c, 0, 70, 68
1, 55383, Note_on_c, 0, 67, 76
1, 55422, Note_on_c, 0, 67, 0
1, 55422, Note_on_c, 0, 70, 0
1, 55439, Note_on_c, 0, 67, 64
1, 55441, Note_on_c, 0, 70, 64
1, 55443, Note_on_c, 1, 53, 66
1, 55444, Note_on_c, 1, 52, 0
1, 55501, Note_on_c, 0, 65, 62
1, 55503, Note_on_c, 0, 69, 80
1, 55504, Note_on_c, 0, 70, 0
1, 55505, Note_on_c, 0, 67, 0
1, 55556, Note_on_c, 0, 69, 0
1, 55559, Note_on_c, 0, 65, 0
1, 55560, Note_on_c, 1, 47, 66
1, 55564, Note_on_c, 1, 53, 0
1, 55626, Note_on_c, 0, 68, 76
1, 55628, Note_on_c, 0, 65, 64
1, 55661, Note_on_c, 0, 65, 0
1, 55663, Note_on_c, 0, 68, 0
1, 55677, Note_on_c, 1, 47, 0
1, 55678, Note_on_c, 1, 48, 66
1, 55688, Note_on_c, 0, 68, 76
1, 55688, Note_on_c, 0, 65, 72
1, 55745, Note_on_c, 0, 68, 0
1, 55745, Note_on_c, 0, 70, 76
1, 55801, Note_on_c, 1, 60, 70
1, 55803, Note_on_c, 0, 70, 0
1, 55804, Note_on_c, 0, 71, 85
1, 55804, Note_on_c, 1, 48, 0
1, 55864, Note_on_c, 0, 71, 0
1, 55865, Note_on_c, 0, 72, 85
1, 55922, Note_on_c, 0, 72, 0
1, 55922, Note_on_c, 0, 65, 0
1, 55924, Note_on_c, 0, 64, 64
1, 55924, Note_on_c, 0, 67, 85
1, 55978, Note_on_c, 1, 59, 75
1, 55984, Note_on_c, 1, 60, 0
1, 56041, Note_on_c, 1, 60, 70
1, 56043, Note_on_c, 1, 59, 0
1, 56046, Note_on_c, 0, 67, 0
1, 56049, Note_on_c, 0, 64, 0
1, 56097, Note_on_c, 1, 59, 70
1, 56100, Note_on_c, 1, 60, 0
1, 56160, Note_on_c, 1, 60, 70
1, 56162, Note_on_c, 1, 59, 0
1, 56286, Note_on_c, 0, 76, 93
1, 56286, Note_on_c, 0, 70, 80
1, 56400, Note_on_c, 1, 61, 66
1, 56403, Note_on_c, 1, 60, 0
1, 56515, Note_on_c, 0, 76, 0
1, 56517, Note_on_c, 0, 70, 0
1, 56520, Note_on_c, 0, 77, 72
1, 56520, Note_on_c, 0, 68, 72
1, 56642, Note_on_c, 0, 77, 0
1, 56642, Note_on_c, 0, 67, 76
1, 56642, Note_on_c, 0, 70, 68
1, 56644, Note_on_c, 0, 68, 0
1, 56696, Note_on_c, 1, 61, 0
1, 56697, Note_on_c, 1, 65, 75
1, 56755, Note_on_c, 0, 72, 89
1, 56755, Note_on_c, 1, 63, 66
1, 56759, Note_on_c, 0, 70, 0
1, 56764, Note_on_c, 1, 65, 0
1, 56815, Note_on_c, 1, 61, 62
1, 56816, Note_on_c, 0, 73, 80
1, 56817, Note_on_c, 0, 72, 0
1, 56820, Note_on_c, 1, 63, 0
1, 56872, Note_on_c, 0, 73, 0
1, 56875, Note_on_c, 0, 75, 80
1, 56876, Note_on_c, 1, 60, 66
1, 56879, Note_on_c, 1, 61, 0
1, 56936, Note_on_c, 0, 70, 76
1, 56943, Note_on_c, 0, 67, 0
1, 56993, Note_on_c, 0, 68, 76
1, 56995, Note_on_c, 0, 70, 0
1, 57056, Note_on_c, 0, 67, 64
1, 57058, Note_on_c, 0, 68, 0
1, 57120, Note_on_c, 0, 67, 0
1, 57120, Note_on_c, 0, 65, 76
1, 57121, Note_on_c, 0, 68, 76
1, 57122, Note_on_c, 0, 75, 0
1, 57175, Note_on_c, 1, 63, 70
1, 57180, Note_on_c, 1, 60, 0
1, 57235, Note_on_c, 1, 61, 58
1, 57242, Note_on_c, 1, 63, 0
1, 57246, Note_on_c, 0, 70, 89
1, 57248, Note_on_c, 0, 68, 0
1, 57296, Note_on_c, 0, 70, 0
1, 57296, Note_on_c, 1, 60, 62
1, 57298, Note_on_c, 1, 61, 0
1, 57303, Note_on_c, 0, 72, 80
1, 57361, Note_on_c, 1, 58, 66
1, 57365, Note_on_c, 0, 73, 85
1, 57367, Note_on_c, 0, 72, 0
1, 57372, Note_on_c, 1, 60, 0
1, 57422, Note_on_c, 0, 68, 68
1, 57425, Note_on_c, 0, 65, 0
1, 57485, Note_on_c, 0, 68, 0
1, 57487, Note_on_c, 0, 67, 72
1, 57543, Note_on_c, 0, 65, 80
1, 57545, Note_on_c, 0, 67, 0
1, 57600, Note_on_c, 0, 65, 0
1, 57603, Note_on_c, 0, 67, 80
1, 57604, Note_on_c, 0, 73, 0
1, 57607, Note_on_c, 0, 64, 76
1, 57656, Note_on_c, 1, 61, 66
1, 57660, Note_on_c, 1, 58, 0
1, 57718, Note_on_c, 1, 61, 0
1, 57719, Note_on_c, 0, 65, 76
1, 57719, Note_on_c, 1, 60, 70
1, 57721, Note_on_c, 0, 68, 89
1, 57722, Note_on_c, 0, 67, 0
1, 57726, Note_on_c, 0, 64, 0
1, 57776, Note_on_c, 1, 60, 0
1, 57776, Note_on_c, 1, 58, 62
1, 57781, Note_on_c, 0, 65, 0
1, 57782, Note_on_c, 0, 68, 0
1, 57782, Note_on_c, 0, 67, 80
1, 57782, Note_on_c, 0, 70, 76
1, 57841, Note_on_c, 1, 58, 0
1, 57841, Note_on_c, 1, 56, 66
1, 57842, Note_on_c, 0, 70, 0
1, 57843, Note_on_c, 0, 72, 76
1, 57846, Note_on_c, 0, 68, 80
1, 57847, Note_on_c, 0, 67, 0
1, 57896, Note_on_c, 1, 56, 0
1, 57898, Note_on_c, 1, 55, 66
1, 57902, Note_on_c, 0, 79, 64
1, 57912, Note_on_c, 0, 72, 0
1, 57922, Note_on_c, 0, 77, 72
1, 57926, Note_on_c, 0, 79, 0
1, 57945, Note_on_c, 0, 77, 0
1, 57950, Note_on_c, 0, 76, 50
1, 57955, Note_on_c, 1, 55, 0
1, 57958, Note_on_c, 0, 77, 89
1, 57959, Note_on_c, 1, 53, 66
1, 57961, Note_on_c, 0, 76, 0
1, 58010, Note_on_c, 1, 51, 58
1, 58016, Note_on_c, 1, 53, 0
1, 58020, Note_on_c, 0, 79, 76
1, 58026, Note_on_c, 0, 77, 0
1, 58033, Note_on_c, 0, 68, 0
1, 58039, Note_on_c, 0, 79, 0
1, 58074, Note_on_c, 1, 51, 0
1, 58074, Note_on_c, 1, 49, 79
1, 58079, Note_on_c, 0, 80, 80
1, 58141, Note_on_c, 0, 71, 76
1, 58142, Note_on_c, 0, 80, 0
1, 58157, Note_on_c, 0, 71, 0
1, 58200, Note_on_c, 0, 71, 93
1, 58201, Note_on_c, 0, 61, 60
1, 58204, Note_on_c, 0, 65, 76
1, 58223, Note_on_c, 0, 71, 0
1, 58260, Note_on_c, 0, 71, 89
1, 58283, Note_on_c, 0, 71, 0
1, 58293, Note_on_c, 0, 61, 0
1, 58294, Note_on_c, 0, 65, 0
1, 58318, Note_on_c, 1, 50, 79
1, 58321, Note_on_c, 1, 49, 0
1, 58323, Note_on_c, 0, 80, 80
1, 58380, Note_on_c, 0, 71, 76
1, 58383, Note_on_c, 0, 80, 0
1, 58400, Note_on_c, 0, 71, 0
1, 58440, Note_on_c, 0, 71, 93
1, 58441, Note_on_c, 0, 65, 76
1, 58441, Note_on_c, 0, 62, 72
1, 58461, Note_on_c, 0, 71, 0
1, 58499, Note_on_c, 0, 71, 93
1, 58526, Note_on_c, 0, 71, 0
1, 58542, Note_on_c, 0, 65, 0
1, 58545, Note_on_c, 0, 62, 0
1, 58559, Note_on_c, 1, 50, 0
1, 58560, Note_on_c, 0, 72, 93
1, 58618, Note_on_c, 0, 72, 0
1, 58619, Note_on_c, 0, 73, 76
1, 58672, Note_on_c, 1, 52, 70
1, 58673, Note_on_c, 1, 61, 62
1, 58680, Note_on_c, 0, 70, 80
1, 58681, Note_on_c, 0, 73, 0
1, 58681, Note_on_c, 0, 67, 76
1, 58908, Note_on_c, 1, 52, 0
1, 58916, Note_on_c, 0, 67, 0
1, 58917, Note_on_c, 0, 68, 72
1, 58920, Note_on_c, 0, 65, 72
1, 58920, Note_on_c, 1, 53, 17
1, 58922, Note_on_c, 0, 70, 0
1, 58922, Note_on_c, 1, 60, 88
1, 58924, Note_on_c, 1, 61, 0
1, 59037, Note_on_c, 1, 53, 0
1, 59041, Note_on_c, 0, 67, 85
1, 59042, Note_on_c, 1, 60, 0
1, 59042, Note_on_c, 1, 46, 75
1, 59046, Note_on_c, 0, 65, 0
1, 59046, Note_on_c, 0, 68, 0
1, 59104, Note_on_c, 0, 73, 80
1, 59107, Note_on_c, 0, 67, 0
1, 59158, Note_on_c, 0, 73, 0
1, 59159, Note_on_c, 0, 72, 76
1, 59160, Note_on_c, 1, 58, 66
1, 59188, Note_on_c, 0, 70, 64
1, 59197, Note_on_c, 0, 72, 0
1, 59214, Note_on_c, 0, 68, 57
1, 59219, Note_on_c, 0, 70, 0
1, 59242, Note_on_c, 0, 67, 76
1, 59245, Note_on_c, 0, 68, 0
1, 59272, Note_on_c, 0, 67, 0
1, 59276, Note_on_c, 0, 65, 76
1, 59276, Note_on_c, 1, 56, 66
1, 59277, Note_on_c, 1, 46, 0
1, 59277, Note_on_c, 1, 48, 62
1, 59281, Note_on_c, 1, 58, 0
1, 59393, Note_on_c, 1, 55, 66
1, 59394, Note_on_c, 1, 56, 0
1, 59404, Note_on_c, 0, 65, 0
1, 59404, Note_on_c, 0, 64, 76
1, 59461, Note_on_c, 0, 64, 0
1, 59510, Note_on_c, 1, 55, 0
1, 59516, Note_on_c, 1, 53, 52
1, 59517, Note_on_c, 1, 48, 0
1, 59522, Note_on_c, 0, 58, 56
1, 59524, Note_on_c, 0, 67, 80
1, 59641, Note_on_c, 1, 48, 47
1, 59652, Note_on_c, 1, 53, 0
1, 59755, Note_on_c, 1, 41, 46
1, 59758, Note_on_c, 0, 65, 76
1, 59760, Note_on_c, 0, 56, 68
1, 59761, Note_on_c, 0, 58, 0
1, 59761, Note_on_c, 1, 48, 0
1, 59763, Note_on_c, 0, 67, 0
1, 59895, Note_on_c, 1, 41, 0
1, 59906, Note_on_c, 0, 65, 0
1, 59908, Note_on_c, 0, 56, 0
1, 60003, Note_on_c, 0, 72, 76
1, 60003, Note_on_c, 0, 69, 72
1, 60118, Note_on_c, 1, 65, 79
1, 60234, Note_on_c, 0, 72, 0
1, 60237, Note_on_c, 0, 70, 60
1, 60237, Note_on_c, 0, 73, 72
1, 60239, Note_on_c, 0, 69, 0
1, 60352, Note_on_c, 1, 64, 83
1, 60353, Note_on_c, 1, 65, 0
1, 60476, Note_on_c, 1, 63, 75
1, 60477, Note_on_c, 0, 69, 76
1, 60477, Note_on_c, 0, 72, 85
1, 60478, Note_on_c, 1, 64, 0
1, 60480, Note_on_c, 0, 73, 0
1, 60482, Note_on_c, 0, 70, 0
1, 60539, Note_on_c, 0, 78, 76
1, 60546, Note_on_c, 0, 72, 0
1, 60598, Note_on_c, 0, 77, 80
1, 60599, Note_on_c, 1, 61, 79
1, 60600, Note_on_c, 0, 78, 0
1, 60604, Note_on_c, 1, 63, 0
1, 60655, Note_on_c, 0, 75, 64
1, 60658, Note_on_c, 1, 60, 62
1, 60659, Note_on_c, 1, 61, 0
1, 60660, Note_on_c, 0, 77, 0
1, 60715, Note_on_c, 0, 70, 60
1, 60716, Note_on_c, 0, 73, 76
1, 60716, Note_on_c, 1, 58, 62
1, 60717, Note_on_c, 1, 60, 0
1, 60718, Note_on_c, 0, 75, 0
1, 60721, Note_on_c, 0, 69, 0
1, 60776, Note_on_c, 1, 60, 66
1, 60778, Note_on_c, 1, 58, 0
1, 60832, Note_on_c, 1, 60, 0
1, 60832, Note_on_c, 1, 61, 66
1, 60852, Note_on_c, 0, 73, 0
1, 60857, Note_on_c, 0, 70, 0
1, 60892, Note_on_c, 1, 61, 0
1, 60892, Note_on_c, 1, 62, 70
1, 60952, Note_on_c, 1, 62, 0
1, 60952, Note_on_c, 1, 63, 66
1, 60957, Note_on_c, 0, 70, 72
1, 60959, Note_on_c, 0, 67, 72
1, 61065, Note_on_c, 1, 63, 0
1, 61075, Note_on_c, 1, 63, 66
1, 61197, Note_on_c, 0, 70, 0
1, 61200, Note_on_c, 0, 68, 72
1, 61200, Note_on_c, 0, 71, 93
1, 61203, Note_on_c, 1, 63, 0
1, 61205, Note_on_c, 0, 67, 0
1, 61317, Note_on_c, 1, 62, 79
1, 61439, Note_on_c, 1, 62, 0
1, 61440, Note_on_c, 1, 61, 70
1, 61443, Note_on_c, 0, 71, 0
1, 61446, Note_on_c, 0, 70, 80
1, 61447, Note_on_c, 0, 68, 0
1, 61447, Note_on_c, 0, 67, 72
1, 61500, Note_on_c, 0, 77, 76
1, 61502, Note_on_c, 0, 70, 0
1, 61557, Note_on_c, 1, 60, 79
1, 61560, Note_on_c, 0, 75, 72
1, 61560, Note_on_c, 1, 61, 0
1, 61561, Note_on_c, 0, 77, 0
1, 61615, Note_on_c, 1, 58, 66
1, 61616, Note_on_c, 0, 75, 0
1, 61616, Note_on_c, 0, 73, 76
1, 61618, Note_on_c, 1, 60, 0
1, 61669, Note_on_c, 0, 73, 0
1, 61673, Note_on_c, 1, 56, 79
1, 61674, Note_on_c, 0, 72, 76
1, 61677, Note_on_c, 1, 58, 0
1, 61678, Note_on_c, 0, 68, 72
1, 61684, Note_on_c, 0, 67, 0
1, 61733, Note_on_c, 1, 56, 0
1, 61733, Note_on_c, 1, 55, 75
1, 61736, Note_on_c, 0, 70, 68
1, 61737, Note_on_c, 0, 68, 0
1, 61794, Note_on_c, 1, 55, 0
1, 61794, Note_on_c, 1, 53, 79
1, 61795, Note_on_c, 0, 70, 0
1, 61795, Note_on_c, 0, 68, 72
1, 61848, Note_on_c, 0, 72, 0
1, 61851, Note_on_c, 1, 51, 70
1, 61855, Note_on_c, 0, 67, 72
1, 61856, Note_on_c, 0, 68, 0
1, 61856, Note_on_c, 1, 53, 0
1, 61858, Note_on_c, 0, 72, 85
1, 61902, Note_on_c, 0, 72, 0
1, 61915, Note_on_c, 0, 67, 0
1, 61915, Note_on_c, 0, 72, 68
1, 61916, Note_on_c, 0, 65, 64
1, 61916, Note_on_c, 1, 51, 0
1, 61916, Note_on_c, 1, 50, 79
1, 61976, Note_on_c, 0, 72, 0
1, 61976, Note_on_c, 0, 71, 89
1, 62035, Note_on_c, 1, 52, 88
1, 62037, Note_on_c, 0, 71, 0
1, 62039, Note_on_c, 0, 65, 0
1, 62039, Note_on_c, 1, 50, 0
1, 62099, Note_on_c, 0, 70, 93
1, 62101, Note_on_c, 0, 67, 76
1, 62123, Note_on_c, 0, 70, 0
1, 62129, Note_on_c, 0, 67, 0
1, 62160, Note_on_c, 0, 70, 72
1, 62160, Note_on_c, 0, 67, 76
1, 62161, Note_on_c, 1, 53, 75
1, 62163, Note_on_c, 1, 52, 0
1, 62216, Note_on_c, 0, 65, 62
1, 62218, Note_on_c, 0, 67, 0
1, 62219, Note_on_c, 0, 69, 80
1, 62221, Note_on_c, 0, 70, 0
1, 62275, Note_on_c, 1, 47, 70
1, 62281, Note_on_c, 1, 53, 0
1, 62284, Note_on_c, 0, 69, 0
1, 62285, Note_on_c, 0, 65, 0
1, 62341, Note_on_c, 0, 68, 89
1, 62342, Note_on_c, 0, 65, 72
1, 62361, Note_on_c, 0, 68, 0
1, 62363, Note_on_c, 0, 65, 0
1, 62396, Note_on_c, 1, 48, 70
1, 62401, Note_on_c, 0, 68, 93
1, 62401, Note_on_c, 0, 65, 72
1, 62403, Note_on_c, 1, 47, 0
1, 62462, Note_on_c, 0, 70, 85
1, 62463, Note_on_c, 0, 68, 0
1, 62520, Note_on_c, 1, 60, 75
1, 62521, Note_on_c, 0, 71, 93
1, 62523, Note_on_c, 0, 70, 0
1, 62525, Note_on_c, 1, 48, 0
1, 62580, Note_on_c, 0, 71, 0
1, 62580, Note_on_c, 0, 72, 89
1, 62638, Note_on_c, 0, 72, 0
1, 62638, Note_on_c, 0, 65, 0
1, 62638, Note_on_c, 0, 64, 62
1, 62639, Note_on_c, 0, 67, 85
1, 62693, Note_on_c, 1, 59, 83
1, 62700, Note_on_c, 1, 60, 0
1, 62756, Note_on_c, 1, 60, 79
1, 62758, Note_on_c, 1, 59, 0
1, 62765, Note_on_c, 0, 67, 0
1, 62766, Note_on_c, 0, 64, 0
1, 62816, Note_on_c, 1, 59, 58
1, 62821, Note_on_c, 1, 60, 0
1, 62880, Note_on_c, 1, 59, 0
1, 62880, Note_on_c, 1, 60, 62
1, 63001, Note_on_c, 0, 70, 89
1, 63001, Note_on_c, 0, 76, 93
1, 63118, Note_on_c, 1, 61, 62
1, 63124, Note_on_c, 1, 60, 0
1, 63223, Note_on_c, 0, 76, 0
1, 63223, Note_on_c, 0, 68, 76
1, 63224, Note_on_c, 0, 70, 0
1, 63227, Note_on_c, 0, 77, 80
1, 63355, Note_on_c, 0, 77, 0
1, 63355, Note_on_c, 0, 70, 72
1, 63356, Note_on_c, 0, 68, 0
1, 63356, Note_on_c, 0, 67, 80
1, 63412, Note_on_c, 1, 65, 62
1, 63414, Note_on_c, 1, 61, 0
1, 63475, Note_on_c, 1, 63, 58
1, 63476, Note_on_c, 0, 72, 89
1, 63477, Note_on_c, 0, 70, 0
1, 63487, Note_on_c, 1, 65, 0
1, 63534, Note_on_c, 1, 61, 58
1, 63536, Note_on_c, 0, 72, 0
1, 63536, Note_on_c, 0, 73, 85
1, 63539, Note_on_c, 1, 63, 0
1, 63592, Note_on_c, 0, 73, 0
1, 63595, Note_on_c, 0, 75, 80
1, 63595, Note_on_c, 1, 60, 62
1, 63596, Note_on_c, 1, 61, 0
1, 63656, Note_on_c, 0, 70, 80
1, 63663, Note_on_c, 0, 67, 0
1, 63716, Note_on_c, 0, 68, 76
1, 63717, Note_on_c, 0, 70, 0
1, 63777, Note_on_c, 0, 67, 76
1, 63779, Note_on_c, 0, 68, 0
1, 63838, Note_on_c, 0, 67, 0
1, 63838, Note_on_c, 0, 65, 76
1, 63840, Note_on_c, 0, 68, 72
1, 63841, Note_on_c, 0, 75, 0
1, 63895, Note_on_c, 1, 63, 62
1, 63901, Note_on_c, 1, 60, 0
1, 63955, Note_on_c, 1, 61, 62
1, 63958, Note_on_c, 0, 70, 80
1, 63962, Note_on_c, 0, 68, 0
1, 63962, Note_on_c, 1, 63, 0
1, 64013, Note_on_c, 1, 60, 79
1, 64014, Note_on_c, 1, 61, 0
1, 64015, Note_on_c, 0, 70, 0
1, 64016, Note_on_c, 0, 72, 85
1, 64075, Note_on_c, 1, 58, 66
1, 64077, Note_on_c, 0, 73, 89
1, 64078, Note_on_c, 0, 72, 0
1, 64078, Note_on_c, 1, 60, 0
1, 64134, Note_on_c, 0, 68, 76
1, 64136, Note_on_c, 0, 65, 0
1, 64196, Note_on_c, 0, 68, 0
1, 64197, Note_on_c, 0, 67, 80
1, 64255, Note_on_c, 0, 67, 0
1, 64255, Note_on_c, 0, 65, 80
1, 64312, Note_on_c, 0, 65, 0
1, 64312, Note_on_c, 0, 64, 80
1, 64314, Note_on_c, 0, 67, 80
1, 64316, Note_on_c, 0, 73, 0
1, 64370, Note_on_c, 1, 61, 70
1, 64373, Note_on_c, 1, 58, 0
1, 64432, Note_on_c, 1, 60, 62
1, 64434, Note_on_c, 0, 68, 76
1, 64435, Note_on_c, 0, 65, 80
1, 64435, Note_on_c, 1, 61, 0
1, 64436, Note_on_c, 0, 67, 0
1, 64445, Note_on_c, 0, 64, 0
1, 64492, Note_on_c, 1, 58, 66
1, 64493, Note_on_c, 0, 68, 0
1, 64493, Note_on_c, 1, 60, 0
1, 64494, Note_on_c, 0, 70, 80
1, 64494, Note_on_c, 0, 67, 76
1, 64495, Note_on_c, 0, 65, 0
1, 64551, Note_on_c, 0, 70, 0
1, 64552, Note_on_c, 0, 72, 93
1, 64552, Note_on_c, 1, 58, 0
1, 64552, Note_on_c, 1, 56, 62
1, 64553, Note_on_c, 0, 67, 0
1, 64553, Note_on_c, 0, 68, 76
1, 64608, Note_on_c, 1, 55, 75
1, 64611, Note_on_c, 1, 56, 0
1, 64615, Note_on_c, 0, 79, 76
1, 64622, Note_on_c, 0, 72, 0
1, 64637, Note_on_c, 0, 77, 76
1, 64641, Note_on_c, 0, 79, 0
1, 64658, Note_on_c, 0, 77, 0
1, 64658, Note_on_c, 0, 76, 72
1, 64669, Note_on_c, 0, 77, 89
1, 64671, Note_on_c, 1, 53, 62
1, 64672, Note_on_c, 1, 55, 0
1, 64673, Note_on_c, 0, 76, 0
1, 64721, Note_on_c, 1, 51, 66
1, 64722, Note_on_c, 1, 53, 0
1, 64731, Note_on_c, 0, 79, 76
1, 64737, Note_on_c, 0, 77, 0
1, 64741, Note_on_c, 0, 68, 0
1, 64753, Note_on_c, 0, 79, 0
1, 64784, Note_on_c, 1, 49, 62
1, 64785, Note_on_c, 1, 51, 0
1, 64792, Note_on_c, 0, 80, 85
1, 64855, Note_on_c, 0, 71, 89
1, 64856, Note_on_c, 0, 80, 0
1, 64872, Note_on_c, 0, 71, 0
1, 64913, Note_on_c, 0, 71, 89
1, 64914, Note_on_c, 0, 61, 57
1, 64915, Note_on_c, 0, 65, 76
1, 64936, Note_on_c, 0, 71, 0
1, 64978, Note_on_c, 0, 71, 85
1, 65000, Note_on_c, 0, 71, 0
1, 65005, Note_on_c, 0, 61, 0
1, 65007, Note_on_c, 0, 65, 0
1, 65034, Note_on_c, 1, 50, 79
1, 65038, Note_on_c, 1, 49, 0
1, 65041, Note_on_c, 0, 80, 98
1, 65100, Note_on_c, 0, 71, 85
1, 65103, Note_on_c, 0, 80, 0
1, 65118, Note_on_c, 0, 71, 0
1, 65157, Note_on_c, 0, 71, 98
1, 65159, Note_on_c, 0, 65, 72
1, 65160, Note_on_c, 0, 62, 68
1, 65177, Note_on_c, 0, 71, 0
1, 65218, Note_on_c, 0, 71, 93
1, 65237, Note_on_c, 0, 71, 0
1, 65258, Note_on_c, 0, 65, 0
1, 65260, Note_on_c, 0, 62, 0
1, 65280, Note_on_c, 0, 72, 76
1, 65283, Note_on_c, 1, 50, 0
1, 65337, Note_on_c, 0, 72, 0
1, 65339, Note_on_c, 0, 73, 80
1, 65396, Note_on_c, 1, 52, 52
1, 65400, Note_on_c, 1, 61, 58
1, 65401, Note_on_c, 0, 67, 80
1, 65402, Note_on_c, 0, 73, 0
1, 65402, Note_on_c, 0, 70, 80
1, 65630, Note_on_c, 1, 52, 0
1, 65631, Note_on_c, 0, 67, 0
1, 65635, Note_on_c, 1, 61, 0
1, 65636, Note_on_c, 0, 68, 89
1, 65637, Note_on_c, 1, 60, 66
1, 65638, Note_on_c, 1, 53, 50
1, 65639, Note_on_c, 0, 70, 0
1, 65640, Note_on_c, 0, 65, 76
1, 65745, Note_on_c, 1, 60, 0
1, 65751, Note_on_c, 1, 53, 0
1, 65758, Note_on_c, 0, 67, 93
1, 65759, Note_on_c, 0, 65, 0
1, 65761, Note_on_c, 0, 68, 0
1, 65769, Note_on_c, 1, 46, 79
1, 65821, Note_on_c, 0, 73, 80
1, 65826, Note_on_c, 0, 67, 0
1, 65874, Note_on_c, 0, 73, 0
1, 65878, Note_on_c, 0, 72, 93
1, 65881, Note_on_c, 1, 58, 70
1, 65907, Note_on_c, 0, 70, 64
1, 65916, Note_on_c, 0, 72, 0
1, 65935, Note_on_c, 0, 68, 68
1, 65944, Note_on_c, 0, 70, 0
1, 65965, Note_on_c, 0, 67, 85
1, 65968, Note_on_c, 0, 68, 0
1, 65980, Note_on_c, 1, 46, 0
1, 65986, Note_on_c, 1, 58, 0
1, 65991, Note_on_c, 0, 67, 0
1, 65996, Note_on_c, 0, 65, 89
1, 65999, Note_on_c, 1, 56, 66
1, 65999, Note_on_c, 1, 48, 54
1, 66110, Note_on_c, 1, 56, 0
1, 66110, Note_on_c, 1, 55, 62
1, 66119, Note_on_c, 0, 64, 89
1, 66121, Note_on_c, 0, 65, 0
1, 66154, Note_on_c, 0, 64, 0
1, 66255, Note_on_c, 0, 58, 62
1, 66255, Note_on_c, 0, 64, 85
1, 66256, Note_on_c, 1, 48, 0
1, 66258, Note_on_c, 1, 53, 79
1, 66261, Note_on_c, 1, 55, 0
1, 66268, Note_on_c, 1, 41, 62
1, 66538, Note_on_c, 0, 64, 0
1, 66538, Note_on_c, 0, 65, 76
1, 66553, Note_on_c, 0, 64, 76
1, 66561, Note_on_c, 0, 65, 0
1, 66568, Note_on_c, 0, 64, 0
1, 66568, Note_on_c, 0, 62, 62
1, 66579, Note_on_c, 0, 64, 72
1, 66585, Note_on_c, 0, 62, 0
1, 66598, Note_on_c, 0, 64, 0
1, 66599, Note_on_c, 0, 67, 85
1, 66655, Note_on_c, 0, 65, 80
1, 66660, Note_on_c, 0, 67, 0
1, 66687, Note_on_c, 0, 65, 0
1, 66696, Note_on_c, 0, 58, 0
1, 66712, Note_on_c, 1, 53, 0
1, 66715, Note_on_c, 1, 41, 0
1, 66716, Note_on_c, 0, 57, 68
1, 66716, Note_on_c, 0, 65, 89
1, 66720, Note_on_c, 1, 41, 52
1, 66720, Note_on_c, 1, 53, 52
1, 66724, Note_on_c, 0, 57, 68
1, 66725, Note_on_c, 0, 65, 89
1, 66775, Note_on_c, 0, 65, 0
1, 66777, Note_on_c, 0, 65, 0
1, 66777, Note_on_c, 0, 67, 68
1, 66792, Note_on_c, 0, 65, 72
1, 66797, Note_on_c, 0, 67, 0
1, 66806, Note_on_c, 0, 65, 0
1, 66807, Note_on_c, 0, 64, 76
1, 66809, Note_on_c, 1, 53, 0
1, 66810, Note_on_c, 1, 41, 0
1, 66817, Note_on_c, 0, 65, 76
1, 66821, Note_on_c, 0, 64, 0
1, 66835, Note_on_c, 0, 65, 0
1, 66836, Note_on_c, 0, 69, 64
1, 66893, Note_on_c, 0, 67, 80
1, 66894, Note_on_c, 0, 69, 0
1, 66907, Note_on_c, 0, 57, 0
1, 66935, Note_on_c, 0, 67, 0
1, 66939, Note_on_c, 0, 57, 0
1, 66950, Note_on_c, 1, 41, 66
1, 66951, Note_on_c, 1, 53, 49
1, 66961, Note_on_c, 0, 67, 89
1, 66964, Note_on_c, 0, 64, 72
1, 67016, Note_on_c, 0, 67, 0
1, 67016, Note_on_c, 0, 69, 64
1, 67032, Note_on_c, 0, 67, 76
1, 67036, Note_on_c, 0, 69, 0
1, 67046, Note_on_c, 1, 41, 0
1, 67048, Note_on_c, 0, 66, 59
1, 67048, Note_on_c, 1, 53, 0
1, 67049, Note_on_c, 0, 67, 0
1, 67060, Note_on_c, 0, 67, 76
1, 67061, Note_on_c, 0, 66, 0
1, 67079, Note_on_c, 0, 70, 80
1, 67080, Note_on_c, 0, 67, 0
1, 67091, Note_on_c, 0, 64, 0
1, 67134, Note_on_c, 0, 69, 80
1, 67140, Note_on_c, 0, 70, 0
1, 67177, Note_on_c, 0, 69, 0
1, 67193, Note_on_c, 1, 41, 62
1, 67194, Note_on_c, 1, 53, 50
1, 67198, Note_on_c, 0, 65, 76
1, 67199, Note_on_c, 0, 69, 76
1, 67231, Note_on_c, 0, 65, 0
1, 67237, Note_on_c, 0, 69, 0
1, 67237, Note_on_c, 0, 65, 89
1, 67275, Note_on_c, 0, 65, 0
1, 67276, Note_on_c, 0, 67, 89
1, 67312, Note_on_c, 0, 67, 0
1, 67314, Note_on_c, 0, 69, 93
1, 67328, Note_on_c, 1, 53, 0
1, 67330, Note_on_c, 1, 41, 0
1, 67355, Note_on_c, 0, 69, 0
1, 67356, Note_on_c, 0, 70, 76
1, 67395, Note_on_c, 0, 70, 0
1, 67395, Note_on_c, 0, 72, 80
1, 67439, Note_on_c, 0, 70, 80
1, 67440, Note_on_c, 0, 72, 0
1, 67478, Note_on_c, 0, 67, 68
1, 67480, Note_on_c, 0, 70, 0
1, 67517, Note_on_c, 0, 69, 89
1, 67518, Note_on_c, 0, 67, 0
1, 67556, Note_on_c, 0, 69, 0
1, 67559, Note_on_c, 0, 70, 93
1, 67597, Note_on_c, 0, 70, 0
1, 67597, Note_on_c, 0, 72, 85
1, 67637, Note_on_c, 0, 72, 0
1, 67637, Note_on_c, 0, 74, 89
1, 67678, Note_on_c, 0, 74, 0
1, 67679, Note_on_c, 0, 72, 93
1, 67720, Note_on_c, 0, 65, 89
1, 67722, Note_on_c, 0, 72, 0
1, 67760, Note_on_c, 0, 67, 93
1, 67761, Note_on_c, 0, 65, 0
1, 67798, Note_on_c, 0, 67, 0
1, 67800, Note_on_c, 0, 68, 89
1, 67839, Note_on_c, 0, 68, 0
1, 67839, Note_on_c, 0, 69, 80
1, 67880, Note_on_c, 0, 69, 0
1, 67880, Note_on_c, 0, 70, 72
1, 67919, Note_on_c, 0, 70, 0
1, 67919, Note_on_c, 0, 71, 76
1, 67959, Note_on_c, 0, 72, 80
1, 67961, Note_on_c, 0, 71, 0
1, 68000, Note_on_c, 0, 73, 72
1, 68001, Note_on_c, 0, 72, 0
1, 68041, Note_on_c, 0, 74, 76
1, 68042, Note_on_c, 0, 73, 0
1, 68081, Note_on_c, 0, 74, 0
1, 68081, Note_on_c, 0, 75, 72
1, 68119, Note_on_c, 0, 76, 68
1, 68121, Note_on_c, 0, 75, 0
1, 68159, Note_on_c, 1, 69, 62
1, 68160, Note_on_c, 0, 76, 0
1, 68160, Note_on_c, 0, 77, 76
1, 68279, Note_on_c, 1, 72, 52
1, 68280, Note_on_c, 1, 69, 0
1, 68339, Note_on_c, 0, 77, 0
1, 68339, Note_on_c, 0, 79, 76
1, 68353, Note_on_c, 0, 77, 72
1, 68359, Note_on_c, 0, 79, 0
1, 68364, Note_on_c, 0, 76, 62
1, 68367, Note_on_c, 0, 77, 0
1, 68376, Note_on_c, 0, 77, 64
1, 68382, Note_on_c, 0, 76, 0
1, 68392, Note_on_c, 0, 77, 0
1, 68393, Note_on_c, 0, 81, 80
1, 68396, Note_on_c, 1, 72, 0
1, 68400, Note_on_c, 1, 65, 50
1, 68513, Note_on_c, 1, 72, 62
1, 68517, Note_on_c, 1, 65, 0
1, 68631, Note_on_c, 0, 81, 0
1, 68636, Note_on_c, 1, 70, 58
1, 68637, Note_on_c, 1, 72, 0
1, 68648, Note_on_c, 0, 81, 89
1, 68701, Note_on_c, 0, 79, 80
1, 68707, Note_on_c, 0, 81, 0
1, 68742, Note_on_c, 0, 79, 0
1, 68761, Note_on_c, 0, 79, 76
1, 68761, Note_on_c, 1, 70, 0
1, 68762, Note_on_c, 1, 72, 62
1, 68812, Note_on_c, 0, 79, 0
1, 68814, Note_on_c, 0, 76, 64
1, 68872, Note_on_c, 0, 76, 0
1, 68873, Note_on_c, 0, 77, 85
1, 68888, Note_on_c, 1, 69, 66
1, 68890, Note_on_c, 1, 72, 0
1, 68935, Note_on_c, 0, 77, 0
1, 68937, Note_on_c, 0, 79, 68
1, 68954, Note_on_c, 0, 77, 57
1, 68961, Note_on_c, 0, 79, 0
1, 68972, Note_on_c, 0, 76, 76
1, 68977, Note_on_c, 0, 77, 0
1, 68989, Note_on_c, 0, 76, 0
1, 68990, Note_on_c, 0, 77, 80
1, 68999, Note_on_c, 1, 72, 62
1, 69000, Note_on_c, 1, 69, 0
1, 69055, Note_on_c, 0, 77, 0
1, 69055, Note_on_c, 0, 81, 89
1, 69072, Note_on_c, 0, 81, 0
1, 69113, Note_on_c, 0, 78, 76
1, 69115, Note_on_c, 1, 70, 66
1, 69120, Note_on_c, 1, 72, 0
1, 69174, Note_on_c, 0, 78, 0
1, 69174, Note_on_c, 0, 79, 89
1, 69236, Note_on_c, 0, 79, 0
1, 69236, Note_on_c, 0, 82, 89
1, 69236, Note_on_c, 1, 72, 66
1, 69238, Note_on_c, 1, 70, 0
1, 69295, Note_on_c, 0, 76, 85
1, 69297, Note_on_c, 0, 82, 0
1, 69353, Note_on_c, 0, 79, 89
1, 69355, Note_on_c, 0, 76, 0
1, 69355, Note_on_c, 1, 69, 66
1, 69356, Note_on_c, 1, 72, 0
1, 69414, Note_on_c, 0, 77, 76
1, 69416, Note_on_c, 0, 79, 0
1, 69474, Note_on_c, 1, 69, 0
1, 69475, Note_on_c, 1, 72, 66
1, 69540, Note_on_c, 0, 81, 85
1, 69541, Note_on_c, 0, 77, 0
1, 69583, Note_on_c, 1, 72, 0
1, 69598, Note_on_c, 1, 67, 66
1, 69598, Note_on_c, 1, 72, 58
1, 69612, Note_on_c, 0, 81, 0
1, 69656, Note_on_c, 1, 72, 0
1, 69658, Note_on_c, 1, 67, 0
1, 69660, Note_on_c, 0, 84, 89
1, 69692, Note_on_c, 0, 82, 76
1, 69696, Note_on_c, 0, 84, 0
1, 69718, Note_on_c, 0, 82, 0
1, 69721, Note_on_c, 1, 72, 70
1, 69722, Note_on_c, 1, 64, 66
1, 69781, Note_on_c, 1, 72, 0
1, 69783, Note_on_c, 0, 81, 80
1, 69784, Note_on_c, 1, 64, 0
1, 69812, Note_on_c, 0, 79, 80
1, 69815, Note_on_c, 0, 81, 0
1, 69832, Note_on_c, 0, 79, 0
1, 69843, Note_on_c, 1, 72, 49
1, 69844, Note_on_c, 1, 65, 66
1, 69898, Note_on_c, 1, 65, 0
1, 69904, Note_on_c, 0, 82, 80
1, 69906, Note_on_c, 1, 72, 0
1, 69934, Note_on_c, 0, 81, 85
1, 69939, Note_on_c, 0, 82, 0
1, 69954, Note_on_c, 0, 81, 0
1, 69963, Note_on_c, 1, 69, 62
1, 69964, Note_on_c, 1, 72, 62
1, 70024, Note_on_c, 1, 69, 0
1, 70025, Note_on_c, 1, 72, 0
1, 70026, Note_on_c, 0, 79, 76
1, 70056, Note_on_c, 0, 77, 72
1, 70057, Note_on_c, 0, 79, 0
1, 70086, Note_on_c, 0, 77, 0
1, 70086, Note_on_c, 1, 70, 66
1, 70088, Note_on_c, 0, 74, 76
1, 70144, Note_on_c, 0, 74, 0
1, 70145, Note_on_c, 0, 76, 85
1, 70161, Note_on_c, 0, 74, 68
1, 70164, Note_on_c, 0, 76, 0
1, 70179, Note_on_c, 0, 73, 62
1, 70180, Note_on_c, 0, 74, 0
1, 70194, Note_on_c, 0, 73, 0
1, 70195, Note_on_c, 0, 74, 72
1, 70198, Note_on_c, 1, 70, 0
1, 70199, Note_on_c, 1, 58, 62
1, 70258, Note_on_c, 0, 76, 89
1, 70259, Note_on_c, 0, 74, 0
1, 70318, Note_on_c, 1, 58, 0
1, 70318, Note_on_c, 1, 62, 75
1, 70321, Note_on_c, 0, 76, 0
1, 70323, Note_on_c, 0, 77, 93
1, 70378, Note_on_c, 0, 77, 0
1, 70378, Note_on_c, 0, 78, 76
1, 70434, Note_on_c, 0, 81, 89
1, 70437, Note_on_c, 0, 78, 0
1, 70438, Note_on_c, 1, 62, 0
1, 70438, Note_on_c, 1, 59, 70
1, 70439, Note_on_c, 1, 65, 70
1, 70494, Note_on_c, 0, 79, 89
1, 70496, Note_on_c, 0, 81, 0
1, 70546, Note_on_c, 1, 59, 0
1, 70548, Note_on_c, 0, 79, 0
1, 70550, Note_on_c, 1, 60, 52
1, 70557, Note_on_c, 0, 79, 89
1, 70675, Note_on_c, 1, 64, 58
1, 70676, Note_on_c, 1, 65, 0
1, 70678, Note_on_c, 0, 79, 0
1, 70678, Note_on_c, 0, 72, 80
1, 70768, Note_on_c, 1, 64, 0
1, 70773, Note_on_c, 1, 62, 58
1, 70795, Note_on_c, 1, 64, 62
1, 70798, Note_on_c, 1, 62, 0
1, 70834, Note_on_c, 0, 73, 85
1, 70838, Note_on_c, 0, 72, 0
1, 70865, Note_on_c, 0, 74, 72
1, 70866, Note_on_c, 0, 73, 0
1, 70897, Note_on_c, 0, 72, 76
1, 70900, Note_on_c, 0, 74, 0
1, 70914, Note_on_c, 0, 72, 0
1, 70923, Note_on_c, 1, 60, 0
1, 70926, Note_on_c, 1, 64, 0
1, 70928, Note_on_c, 0, 72, 85
1, 70959, Note_on_c, 0, 70, 76
1, 70964, Note_on_c, 0, 72, 0
1, 70988, Note_on_c, 0, 69, 80
1, 70990, Note_on_c, 0, 70, 0
1, 71017, Note_on_c, 0, 67, 76
1, 71018, Note_on_c, 0, 69, 0
1, 71040, Note_on_c, 0, 67, 0
1, 71048, Note_on_c, 0, 65, 85
1, 71057, Note_on_c, 1, 57, 75
1, 71107, Note_on_c, 0, 67, 93
1, 71108, Note_on_c, 0, 65, 0
1, 71137, Note_on_c, 0, 69, 89
1, 71141, Note_on_c, 0, 67, 0
1, 71166, Note_on_c, 1, 57, 0
1, 71167, Note_on_c, 1, 60, 66
1, 71169, Note_on_c, 0, 70, 76
1, 71174, Note_on_c, 0, 69, 0
1, 71194, Note_on_c, 0, 70, 0
1, 71196, Note_on_c, 0, 72, 93
1, 71224, Note_on_c, 0, 74, 68
1, 71230, Note_on_c, 0, 72, 0
1, 71254, Note_on_c, 0, 76, 85
1, 71255, Note_on_c, 0, 74, 0
1, 71278, Note_on_c, 1, 60, 0
1, 71279, Note_on_c, 1, 53, 54
1, 71280, Note_on_c, 0, 76, 0
1, 71283, Note_on_c, 0, 77, 85
1, 71312, Note_on_c, 0, 79, 85
1, 71314, Note_on_c, 0, 77, 0
1, 71340, Note_on_c, 0, 79, 0
1, 71340, Note_on_c, 0, 81, 80
1, 71369, Note_on_c, 0, 82, 85
1, 71371, Note_on_c, 0, 81, 0
1, 71400, Note_on_c, 0, 84, 93
1, 71401, Note_on_c, 0, 82, 0
1, 71403, Note_on_c, 1, 60, 62
1, 71407, Note_on_c, 1, 53, 0
1, 71464, Note_on_c, 0, 84, 0
1, 71464, Note_on_c, 0, 81, 85
1, 71524, Note_on_c, 1, 58, 66
1, 71526, Note_on_c, 0, 79, 93
1, 71528, Note_on_c, 0, 81, 0
1, 71530, Note_on_c, 1, 60, 0
1, 71558, Note_on_c, 0, 81, 76
1, 71562, Note_on_c, 0, 79, 0
1, 71587, Note_on_c, 0, 82, 80
1, 71589, Note_on_c, 0, 81, 0
1, 71619, Note_on_c, 0, 79, 89
1, 71623, Note_on_c, 0, 82, 0
1, 71646, Note_on_c, 1, 60, 62
1, 71649, Note_on_c, 0, 79, 0
1, 71649, Note_on_c, 0, 76, 76
1, 71651, Note_on_c, 1, 58, 0
1, 71677, Note_on_c, 0, 77, 80
1, 71679, Note_on_c, 0, 76, 0
1, 71706, Note_on_c, 0, 77, 0
1, 71706, Note_on_c, 0, 79, 85
1, 71737, Note_on_c, 0, 76, 64
1, 71744, Note_on_c, 0, 79, 0
1, 71761, Note_on_c, 0, 76, 0
1, 71765, Note_on_c, 0, 77, 80
1, 71766, Note_on_c, 1, 57, 70
1, 71769, Note_on_c, 1, 60, 0
1, 71784, Note_on_c, 0, 77, 0
1, 71797, Note_on_c, 0, 84, 85
1, 71827, Note_on_c, 0, 83, 89
1, 71828, Note_on_c, 0, 84, 0
1, 71852, Note_on_c, 0, 83, 0
1, 71853, Note_on_c, 0, 84, 62
1, 71876, Note_on_c, 0, 84, 0
1, 71886, Note_on_c, 0, 86, 98
1, 71890, Note_on_c, 1, 60, 70
1, 71891, Note_on_c, 1, 57, 0
1, 71915, Note_on_c, 0, 84, 80
1, 71916, Note_on_c, 0, 86, 0
1, 71943, Note_on_c, 0, 82, 76
1, 71945, Note_on_c, 0, 84, 0
1, 71970, Note_on_c, 0, 81, 89
1, 71973, Note_on_c, 0, 82, 0
1, 72002, Note_on_c, 0, 81, 0
1, 72002, Note_on_c, 0, 79, 80
1, 72005, Note_on_c, 1, 58, 66
1, 72010, Note_on_c, 1, 60, 0
1, 72032, Note_on_c, 0, 81, 76
1, 72037, Note_on_c, 0, 79, 0
1, 72064, Note_on_c, 0, 82, 72
1, 72066, Note_on_c, 0, 81, 0
1, 72093, Note_on_c, 0, 79, 72
1, 72095, Note_on_c, 0, 82, 0
1, 72115, Note_on_c, 0, 79, 0
1, 72122, Note_on_c, 0, 76, 80
1, 72124, Note_on_c, 1, 60, 70
1, 72128, Note_on_c, 1, 58, 0
1, 72153, Note_on_c, 0, 77, 76
1, 72154, Note_on_c, 0, 76, 0
1, 72181, Note_on_c, 0, 77, 0
1, 72183, Note_on_c, 0, 79, 80
1, 72212, Note_on_c, 0, 79, 0
1, 72213, Note_on_c, 0, 76, 80
1, 72240, Note_on_c, 1, 57, 79
1, 72241, Note_on_c, 1, 60, 0
1, 72242, Note_on_c, 0, 76, 0
1, 72244, Note_on_c, 0, 77, 85
1, 72303, Note_on_c, 0, 77, 0
1, 72307, Note_on_c, 0, 81, 98
1, 72308, Note_on_c, 0, 69, 85
1, 72355, Note_on_c, 1, 57, 0
1, 72366, Note_on_c, 1, 60, 62
1, 72367, Note_on_c, 1, 53, 66
1, 72424, Note_on_c, 0, 81, 0
1, 72425, Note_on_c, 0, 69, 0
1, 72426, Note_on_c, 0, 84, 93
1, 72427, Note_on_c, 0, 72, 80
1, 72467, Note_on_c, 1, 60, 0
1, 72471, Note_on_c, 1, 53, 0
1, 72483, Note_on_c, 1, 60, 58
1, 72483, Note_on_c, 1, 55, 62
1, 72546, Note_on_c, 0, 72, 0
1, 72546, Note_on_c, 0, 83, 98
1, 72546, Note_on_c, 0, 71, 89
1, 72547, Note_on_c, 0, 84, 0
1, 72606, Note_on_c, 1, 55, 0
1, 72608, Note_on_c, 1, 52, 66
1, 72664, Note_on_c, 0, 82, 85
1, 72665, Note_on_c, 0, 83, 0
1, 72665, Note_on_c, 0, 70, 76
1, 72666, Note_on_c, 0, 71, 0
1, 72718, Note_on_c, 1, 52, 0
1, 72721, Note_on_c, 1, 53, 66
1, 72784, Note_on_c, 0, 80, 89
1, 72785, Note_on_c, 0, 70, 0
1, 72785, Note_on_c, 0, 68, 72
1, 72786, Note_on_c, 0, 82, 0
1, 72828, Note_on_c, 1, 53, 0
1, 72832, Note_on_c, 1, 60, 0
1, 72842, Note_on_c, 1, 53, 70
1, 72843, Note_on_c, 1, 50, 70
1, 72901, Note_on_c, 0, 80, 0
1, 72905, Note_on_c, 0, 81, 93
1, 72906, Note_on_c, 0, 68, 0
1, 72906, Note_on_c, 0, 69, 76
1, 72938, Note_on_c, 1, 50, 0
1, 72949, Note_on_c, 1, 53, 0
1, 72957, Note_on_c, 0, 81, 0
1, 72960, Note_on_c, 0, 69, 0
1, 72962, Note_on_c, 1, 55, 62
1, 72964, Note_on_c, 1, 50, 62
1, 72965, Note_on_c, 1, 46, 54
1, 72997, Note_on_c, 0, 67, 80
1, 73028, Note_on_c, 0, 69, 89
1, 73029, Note_on_c, 0, 67, 0
1, 73054, Note_on_c, 0, 70, 68
1, 73058, Note_on_c, 0, 69, 0
1, 73084, Note_on_c, 0, 70, 0
1, 73086, Note_on_c, 0, 72, 89
1, 73106, Note_on_c, 1, 50, 0
1, 73108, Note_on_c, 1, 55, 0
1, 73109, Note_on_c, 1, 46, 0
1, 73113, Note_on_c, 0, 74, 76
1, 73117, Note_on_c, 0, 72, 0
1, 73143, Note_on_c, 0, 76, 85
1, 73144, Note_on_c, 0, 74, 0
1, 73172, Note_on_c, 0, 78, 68
1, 73173, Note_on_c, 0, 76, 0
1, 73200, Note_on_c, 0, 78, 0
1, 73203, Note_on_c, 0, 79, 93
1, 73234, Note_on_c, 0, 81, 85
1, 73237, Note_on_c, 0, 79, 0
1, 73261, Note_on_c, 0, 82, 76
1, 73265, Note_on_c, 0, 81, 0
1, 73290, Note_on_c, 0, 82, 0
1, 73291, Note_on_c, 0, 84, 62
1, 73322, Note_on_c, 0, 84, 0
1, 73322, Note_on_c, 0, 86, 85
1, 73380, Note_on_c, 0, 86, 0
1, 73380, Note_on_c, 0, 76, 93
1, 73382, Note_on_c, 1, 60, 70
1, 73384, Note_on_c, 1, 70, 79
1, 73405, Note_on_c, 1, 70, 0
1, 73407, Note_on_c, 1, 60, 0
1, 73440, Note_on_c, 0, 76, 0
1, 73447, Note_on_c, 1, 65, 70
1, 73448, Note_on_c, 1, 70, 79
1, 73449, Note_on_c, 0, 79, 93
1, 73620, Note_on_c, 0, 79, 0
1, 73621, Note_on_c, 0, 81, 68
1, 73650, Note_on_c, 0, 79, 76
1, 73660, Note_on_c, 0, 81, 0
1, 73676, Note_on_c, 1, 69, 66
1, 73677, Note_on_c, 0, 79, 0
1, 73678, Note_on_c, 1, 70, 0
1, 73681, Note_on_c, 0, 77, 93
1, 73700, Note_on_c, 0, 77, 0
1, 73722, Note_on_c, 0, 76, 76
1, 73739, Note_on_c, 0, 76, 0
1, 73762, Note_on_c, 0, 75, 76
1, 73777, Note_on_c, 0, 75, 0
1, 73797, Note_on_c, 1, 69, 0
1, 73798, Note_on_c, 1, 65, 0
1, 73804, Note_on_c, 0, 74, 80
1, 73823, Note_on_c, 0, 74, 0
1, 73848, Note_on_c, 0, 73, 68
1, 73864, Note_on_c, 0, 73, 0
1, 73884, Note_on_c, 0, 72, 80
1, 73901, Note_on_c, 0, 72, 0
1, 73926, Note_on_c, 1, 50, 66
1, 73928, Note_on_c, 0, 70, 76
1, 74044, Note_on_c, 1, 50, 0
1, 74044, Note_on_c, 1, 53, 52
1, 74155, Note_on_c, 0, 70, 0
1, 74156, Note_on_c, 0, 69, 80
1, 74158, Note_on_c, 1, 48, 62
1, 74161, Note_on_c, 1, 53, 0
1, 74281, Note_on_c, 1, 48, 0
1, 74281, Note_on_c, 1, 53, 70
1, 74396, Note_on_c, 0, 69, 0
1, 74404, Note_on_c, 1, 48, 70
1, 74405, Note_on_c, 1, 53, 0
1, 74405, Note_on_c, 1, 46, 66
1, 74409, Note_on_c, 0, 67, 89
1, 74427, Note_on_c, 0, 67, 0
1, 74451, Note_on_c, 0, 69, 80
1, 74468, Note_on_c, 0, 69, 0
1, 74492, Note_on_c, 0, 70, 72
1, 74508, Note_on_c, 0, 70, 0
1, 74526, Note_on_c, 1, 55, 62
1, 74530, Note_on_c, 0, 72, 89
1, 74547, Note_on_c, 0, 72, 0
1, 74570, Note_on_c, 0, 74, 64
1, 74585, Note_on_c, 0, 74, 0
1, 74609, Note_on_c, 0, 76, 76
1, 74610, Note_on_c, 1, 48, 0
1, 74622, Note_on_c, 0, 76, 0
1, 74626, Note_on_c, 1, 46, 0
1, 74628, Note_on_c, 1, 55, 0
1, 74648, Note_on_c, 1, 45, 62
1, 74649, Note_on_c, 0, 77, 89
1, 74650, Note_on_c, 1, 48, 75
1, 74756, Note_on_c, 0, 77, 0
1, 74763, Note_on_c, 1, 53, 66
1, 74765, Note_on_c, 1, 48, 0
1, 74817, Note_on_c, 0, 77, 89
1, 74840, Note_on_c, 0, 77, 0
1, 74875, Note_on_c, 0, 84, 89
1, 74877, Note_on_c, 1, 53, 0
1, 74877, Note_on_c, 1, 45, 0
1, 74877, Note_on_c, 1, 62, 70
1, 74882, Note_on_c, 1, 62, 79
1, 74939, Note_on_c, 0, 83, 85
1, 74941, Note_on_c, 0, 84, 0
1, 74983, Note_on_c, 0, 83, 0
1, 74999, Note_on_c, 1, 62, 0
1, 75000, Note_on_c, 1, 62, 0
1, 75001, Note_on_c, 1, 65, 70
1, 75060, Note_on_c, 0, 82, 89
1, 75121, Note_on_c, 0, 80, 93
1, 75122, Note_on_c, 0, 82, 0
1, 75122, Note_on_c, 1, 65, 0
1, 75122, Note_on_c, 1, 60, 66
1, 75181, Note_on_c, 0, 81, 85
1, 75182, Note_on_c, 0, 80, 0
1, 75230, Note_on_c, 0, 81, 0
1, 75243, Note_on_c, 1, 60, 0
1, 75243, Note_on_c, 1, 65, 75
1, 75304, Note_on_c, 0, 81, 89
1, 75361, Note_on_c, 1, 58, 66
1, 75361, Note_on_c, 1, 60, 70
1, 75362, Note_on_c, 1, 65, 0
1, 75363, Note_on_c, 0, 81, 0
1, 75363, Note_on_c, 0, 78, 72
1, 75393, Note_on_c, 0, 78, 0
1, 75395, Note_on_c, 0, 79, 85
1, 75423, Note_on_c, 0, 81, 80
1, 75426, Note_on_c, 0, 79, 0
1, 75453, Note_on_c, 0, 82, 72
1, 75456, Note_on_c, 0, 81, 0
1, 75482, Note_on_c, 0, 82, 0
1, 75483, Note_on_c, 0, 83, 80
1, 75486, Note_on_c, 1, 67, 79
1, 75487, Note_on_c, 1, 60, 0
1, 75512, Note_on_c, 0, 84, 76
1, 75516, Note_on_c, 0, 83, 0
1, 75540, Note_on_c, 0, 86, 89
1, 75543, Note_on_c, 0, 84, 0
1, 75569, Note_on_c, 0, 88, 76
1, 75570, Note_on_c, 0, 86, 0
1, 75600, Note_on_c, 1, 67, 0
1, 75600, Note_on_c, 1, 60, 66
1, 75601, Note_on_c, 1, 58, 0
1, 75601, Note_on_c, 1, 57, 66
1, 75603, Note_on_c, 0, 88, 0
1, 75603, Note_on_c, 0, 89, 93
1, 75710, Note_on_c, 0, 89, 0
1, 75720, Note_on_c, 1, 65, 70
1, 75721, Note_on_c, 1, 60, 0
1, 75832, Note_on_c, 1, 57, 0
1, 75833, Note_on_c, 1, 65, 0
1, 75845, Note_on_c, 0, 77, 89
1, 75935, Note_on_c, 0, 77, 0
1, 75937, Note_on_c, 0, 74, 80
1, 75962, Note_on_c, 1, 65, 66
1, 75962, Note_on_c, 1, 62, 62
1, 75963, Note_on_c, 0, 74, 0
1, 75964, Note_on_c, 0, 71, 93
1, 76067, Note_on_c, 1, 62, 0
1, 76070, Note_on_c, 1, 65, 0
1, 76088, Note_on_c, 1, 65, 79
1, 76090, Note_on_c, 1, 62, 79
1, 76202, Note_on_c, 0, 72, 85
1, 76203, Note_on_c, 0, 71, 0
1, 76205, Note_on_c, 1, 65, 0
1, 76206, Note_on_c, 1, 62, 0
1, 76207, Note_on_c, 1, 64, 52
1, 76209, Note_on_c, 1, 60, 49
1, 76302, Note_on_c, 1, 64, 0
1, 76312, Note_on_c, 1, 60, 0
1, 76315, Note_on_c, 0, 72, 0
1, 76325, Note_on_c, 0, 74, 93
1, 76419, Note_on_c, 0, 74, 0
1, 76420, Note_on_c, 0, 70, 76
1, 76443, Note_on_c, 0, 70, 0
1, 76443, Note_on_c, 1, 52, 54
1, 76444, Note_on_c, 0, 67, 85
1, 76444, Note_on_c, 1, 60, 66
1, 76444, Note_on_c, 1, 58, 66
1, 76539, Note_on_c, 1, 58, 0
1, 76539, Note_on_c, 1, 60, 0
1, 76541, Note_on_c, 1, 52, 0
1, 76565, Note_on_c, 1, 60, 79
1, 76565, Note_on_c, 1, 58, 88
1, 76568, Note_on_c, 1, 52, 70
1, 76663, Note_on_c, 0, 67, 0
1, 76668, Note_on_c, 0, 69, 85
1, 76685, Note_on_c, 1, 58, 0
1, 76688, Note_on_c, 1, 52, 0
1, 76688, Note_on_c, 1, 57, 62
1, 76689, Note_on_c, 1, 53, 54
1, 76769, Note_on_c, 1, 53, 0
1, 76771, Note_on_c, 1, 60, 0
1, 76773, Note_on_c, 1, 57, 0
1, 76791, Note_on_c, 0, 69, 0
1, 76800, Note_on_c, 1, 53, 83
1, 76800, Note_on_c, 1, 58, 66
1, 76800, Note_on_c, 1, 50, 83
1, 76802, Note_on_c, 0, 72, 89
1, 76818, Note_on_c, 0, 70, 62
1, 76823, Note_on_c, 0, 72, 0
1, 76833, Note_on_c, 0, 70, 0
1, 76833, Note_on_c, 0, 69, 56
1, 76847, Note_on_c, 0, 70, 68
1, 76850, Note_on_c, 0, 69, 0
1, 76862, Note_on_c, 0, 70, 0
1, 76863, Note_on_c, 0, 72, 76
1, 76894, Note_on_c, 0, 72, 0
1, 76895, Note_on_c, 0, 74, 72
1, 76923, Note_on_c, 0, 74, 0
1, 76923, Note_on_c, 0, 72, 80
1, 76956, Note_on_c, 0, 70, 72
1, 76957, Note_on_c, 0, 72, 0
1, 76986, Note_on_c, 0, 70, 0
1, 76986, Note_on_c, 0, 69, 76
1, 77013, Note_on_c, 0, 69, 0
1, 77017, Note_on_c, 0, 67, 80
1, 77038, Note_on_c, 1, 58, 0
1, 77041, Note_on_c, 1, 50, 0
1, 77041, Note_on_c, 1, 48, 62
1, 77041, Note_on_c, 1, 57, 66
1, 77047, Note_on_c, 0, 67, 0
1, 77047, Note_on_c, 0, 65, 85
1, 77107, Note_on_c, 0, 72, 80
1, 77108, Note_on_c, 0, 65, 0
1, 77162, Note_on_c, 0, 72, 0
1, 77164, Note_on_c, 0, 67, 89
1, 77165, Note_on_c, 1, 52, 79
1, 77166, Note_on_c, 1, 57, 0
1, 77167, Note_on_c, 1, 53, 0
1, 77220, Note_on_c, 0, 72, 80
1, 77221, Note_on_c, 0, 67, 0
1, 77280, Note_on_c, 0, 72, 0
1, 77280, Note_on_c, 0, 64, 89
1, 77280, Note_on_c, 0, 70, 80
1, 77280, Note_on_c, 0, 67, 89
1, 77281, Note_on_c, 1, 48, 0
1, 77283, Note_on_c, 1, 53, 75
1, 77284, Note_on_c, 1, 52, 0
1, 77403, Note_on_c, 1, 53, 0
1, 77403, Note_on_c, 1, 48, 70
1, 77518, Note_on_c, 0, 64, 0
1, 77518, Note_on_c, 0, 69, 85
1, 77520, Note_on_c, 0, 67, 0
1, 77520, Note_on_c, 0, 65, 85
1, 77521, Note_on_c, 0, 70, 0
1, 77522, Note_on_c, 1, 41, 66
1, 77523, Note_on_c, 1, 48, 0
1, 77547, Note_on_c, 0, 65, 0
1, 77547, Note_on_c, 0, 69, 0
1, 77548, Note_on_c, 0, 77, 72
1, 77564, Note_on_c, 0, 77, 0
1, 77578, Note_on_c, 0, 79, 76
1, 77593, Note_on_c, 0, 79, 0
1, 77607, Note_on_c, 0, 81, 64
1, 77621, Note_on_c, 0, 81, 0
1, 77637, Note_on_c, 0, 82, 85
1, 77640, Note_on_c, 1, 41, 0
1, 77653, Note_on_c, 0, 82, 0
1, 77669, Note_on_c, 0, 84, 85
1, 77681, Note_on_c, 0, 84, 0
1, 77699, Note_on_c, 0, 86, 64
1, 77713, Note_on_c, 0, 86, 0
1, 77727, Note_on_c, 0, 88, 64
1, 77744, Note_on_c, 0, 88, 0
1, 77758, Note_on_c, 0, 89, 80
1, 77789, Note_on_c, 0, 88, 80
1, 77791, Note_on_c, 0, 89, 0
1, 77819, Note_on_c, 0, 88, 0
1, 77819, Note_on_c, 0, 89, 72
1, 77848, Note_on_c, 0, 86, 89
1, 77853, Note_on_c, 0, 89, 0
1, 77881, Note_on_c, 0, 86, 0
1, 77881, Note_on_c, 0, 83, 93
1, 77883, Note_on_c, 1, 74, 66
1, 77883, Note_on_c, 1, 67, 70
1, 77883, Note_on_c, 1, 77, 70
1, 77973, Note_on_c, 1, 67, 0
1, 77975, Note_on_c, 1, 74, 0
1, 77976, Note_on_c, 1, 77, 0
1, 78006, Note_on_c, 1, 74, 83
1, 78006, Note_on_c, 1, 67, 66
1, 78007, Note_on_c, 1, 77, 75
1, 78108, Note_on_c, 0, 83, 0
1, 78108, Note_on_c, 0, 84, 98
1, 78121, Note_on_c, 1, 74, 0
1, 78122, Note_on_c, 1, 67, 0
1, 78122, Note_on_c, 1, 76, 62
1, 78122, Note_on_c, 1, 72, 66
1, 78124, Note_on_c, 1, 77, 0
1, 78165, Note_on_c, 0, 84, 0
1, 78167, Note_on_c, 0, 85, 85
1, 78196, Note_on_c, 1, 72, 0
1, 78196, Note_on_c, 1, 76, 0
1, 78227, Note_on_c, 0, 85, 0
1, 78228, Note_on_c, 0, 86, 89
1, 78261, Note_on_c, 0, 85, 76
1, 78264, Note_on_c, 0, 86, 0
1, 78294, Note_on_c, 0, 85, 0
1, 78295, Note_on_c, 0, 86, 89
1, 78326, Note_on_c, 0, 82, 80
1, 78327, Note_on_c, 0, 86, 0
1, 78359, Note_on_c, 0, 82, 0
1, 78359, Note_on_c, 0, 79, 85
1, 78360, Note_on_c, 1, 64, 83
1, 78360, Note_on_c, 1, 70, 75
1, 78360, Note_on_c, 1, 60, 83
1, 78464, Note_on_c, 1, 60, 0
1, 78467, Note_on_c, 1, 64, 0
1, 78468, Note_on_c, 1, 70, 0
1, 78486, Note_on_c, 1, 70, 66
1, 78487, Note_on_c, 1, 60, 70
1, 78488, Note_on_c, 1, 64, 79
1, 78539, Note_on_c, 0, 79, 0
1, 78539, Note_on_c, 0, 80, 98
1, 78590, Note_on_c, 1, 64, 0
1, 78595, Note_on_c, 0, 80, 0
1, 78596, Note_on_c, 0, 81, 89
1, 78597, Note_on_c, 1, 70, 0
1, 78599, Note_on_c, 1, 60, 0
1, 78603, Note_on_c, 1, 69, 79
1, 78605, Note_on_c, 1, 65, 70
1, 78629, Note_on_c, 0, 82, 76
1, 78633, Note_on_c, 0, 81, 0
1, 78658, Note_on_c, 0, 83, 80
1, 78665, Note_on_c, 0, 82, 0
1, 78689, Note_on_c, 0, 84, 76
1, 78690, Note_on_c, 0, 83, 0
1, 78694, Note_on_c, 1, 65, 0
1, 78695, Note_on_c, 1, 69, 0
1, 78720, Note_on_c, 0, 85, 76
1, 78726, Note_on_c, 0, 84, 0
1, 78781, Note_on_c, 0, 85, 0
1, 78782, Note_on_c, 0, 86, 93
1, 78840, Note_on_c, 0, 86, 0
1, 78840, Note_on_c, 0, 84, 89
1, 78844, Note_on_c, 1, 67, 83
1, 78845, Note_on_c, 1, 58, 66
1, 78873, Note_on_c, 0, 82, 80
1, 78877, Note_on_c, 0, 84, 0
1, 78901, Note_on_c, 0, 81, 62
1, 78902, Note_on_c, 0, 82, 0
1, 78929, Note_on_c, 0, 81, 0
1, 78929, Note_on_c, 0, 79, 72
1, 78947, Note_on_c, 1, 58, 0
1, 78953, Note_on_c, 1, 67, 0
1, 78963, Note_on_c, 0, 79, 0
1, 78963, Note_on_c, 0, 77, 80
1, 78968, Note_on_c, 1, 69, 83
1, 78968, Note_on_c, 1, 60, 83
1, 79072, Note_on_c, 1, 69, 0
1, 79079, Note_on_c, 0, 81, 89
1, 79080, Note_on_c, 0, 77, 0
1, 79080, Note_on_c, 0, 76, 64
1, 79086, Note_on_c, 1, 70, 75
1, 79138, Note_on_c, 0, 79, 85
1, 79139, Note_on_c, 0, 81, 0
1, 79184, Note_on_c, 1, 60, 0
1, 79189, Note_on_c, 1, 70, 0
1, 79195, Note_on_c, 0, 76, 0
1, 79196, Note_on_c, 0, 79, 0
1, 79197, Note_on_c, 0, 77, 93
1, 79200, Note_on_c, 1, 62, 83
1, 79200, Note_on_c, 1, 67, 83
1, 79200, Note_on_c, 1, 71, 83
1, 79201, Note_on_c, 1, 65, 83
1, 79227, Note_on_c, 0, 76, 72
1, 79228, Note_on_c, 0, 77, 0
1, 79258, Note_on_c, 0, 79, 80
1, 79262, Note_on_c, 0, 76, 0
1, 79287, Note_on_c, 0, 77, 76
1, 79289, Note_on_c, 0, 79, 0
1, 79319, Note_on_c, 0, 77, 0
1, 79319, Note_on_c, 0, 81, 93
1, 79349, Note_on_c, 0, 79, 76
1, 79356, Note_on_c, 0, 81, 0
1, 79380, Note_on_c, 0, 77, 76
1, 79386, Note_on_c, 0, 79, 0
1, 79411, Note_on_c, 0, 76, 76
1, 79412, Note_on_c, 0, 77, 0
1, 79438, Note_on_c, 0, 76, 0
1, 79441, Note_on_c, 0, 74, 89
1, 79471, Note_on_c, 0, 72, 64
1, 79481, Note_on_c, 0, 74, 0
1, 79498, Note_on_c, 0, 72, 0
1, 79499, Note_on_c, 0, 71, 51
1, 79530, Note_on_c, 0, 74, 85
1, 79531, Note_on_c, 0, 71, 0
1, 79560, Note_on_c, 0, 74, 0
1, 79561, Note_on_c, 0, 79, 80
1, 79593, Note_on_c, 0, 77, 76
1, 79596, Note_on_c, 0, 79, 0
1, 79601, Note_on_c, 1, 71, 0
1, 79602, Note_on_c, 1, 65, 0
1, 79602, Note_on_c, 1, 67, 0
1, 79605, Note_on_c, 1, 62, 0
1, 79623, Note_on_c, 0, 74, 89
1, 79628, Note_on_c, 0, 77, 0
1, 79653, Note_on_c, 0, 74, 0
1, 79653, Note_on_c, 0, 71, 76
1, 79678, Note_on_c, 0, 71, 0
1, 79684, Note_on_c, 0, 70, 93
1, 79691, Note_on_c, 1, 58, 70
1, 79692, Note_on_c, 1, 55, 83
1, 79692, Note_on_c, 1, 60, 83
1, 79692, Note_on_c, 1, 52, 83
1, 79714, Note_on_c, 0, 69, 76
1, 79717, Note_on_c, 0, 70, 0
1, 79742, Note_on_c, 0, 69, 0
1, 79744, Note_on_c, 0, 72, 72
1, 79772, Note_on_c, 0, 70, 72
1, 79774, Note_on_c, 0, 72, 0
1, 79800, Note_on_c, 0, 74, 89
1, 79801, Note_on_c, 0, 70, 0
1, 79831, Note_on_c, 0, 72, 85
1, 79833, Note_on_c, 0, 74, 0
1, 79860, Note_on_c, 0, 70, 68
1, 79862, Note_on_c, 0, 72, 0
1, 79889, Note_on_c, 0, 69, 76
1, 79894, Note_on_c, 0, 70, 0
1, 79918, Note_on_c, 0, 69, 0
1, 79918, Note_on_c, 0, 67, 72
1, 79948, Note_on_c, 0, 67, 0
1, 79948, Note_on_c, 0, 65, 76
1, 79978, Note_on_c, 0, 64, 80
1, 79981, Note_on_c, 0, 65, 0
1, 80004, Note_on_c, 0, 64, 0
1, 80005, Note_on_c, 0, 67, 76
1, 80033, Note_on_c, 0, 67, 0
1, 80035, Note_on_c, 0, 72, 85
1, 80057, Note_on_c, 1, 60, 0
1, 80057, Note_on_c, 1, 55, 0
1, 80060, Note_on_c, 1, 58, 0
1, 80065, Note_on_c, 0, 70, 72
1, 80066, Note_on_c, 1, 52, 0
1, 80070, Note_on_c, 0, 72, 0
1, 80095, Note_on_c, 0, 67, 85
1, 80100, Note_on_c, 0, 70, 0
1, 80125, Note_on_c, 0, 64, 72
1, 80126, Note_on_c, 0, 67, 0
1, 80158, Note_on_c, 1, 45, 66
1, 80164, Note_on_c, 0, 64, 0
1, 80220, Note_on_c, 0, 67, 93
1, 80235, Note_on_c, 0, 67, 0
1, 80235, Note_on_c, 0, 65, 93
1, 80247, Note_on_c, 1, 45, 0
1, 80250, Note_on_c, 0, 65, 0
1, 80250, Note_on_c, 0, 64, 93
1, 80265, Note_on_c, 0, 64, 0
1, 80265, Note_on_c, 0, 65, 93
1, 80280, Note_on_c, 0, 65, 0
1, 80280, Note_on_c, 0, 84, 93
1, 80340, Note_on_c, 0, 84, 0
1, 80340, Note_on_c, 0, 84, 93
1, 80370, Note_on_c, 0, 84, 0
1, 80401, Note_on_c, 1, 46, 83
1, 80460, Note_on_c, 0, 69, 93
1, 80475, Note_on_c, 0, 69, 0
1, 80475, Note_on_c, 0, 67, 93
1, 80485, Note_on_c, 1, 46, 0
1, 80490, Note_on_c, 0, 67, 0
1, 80490, Note_on_c, 0, 66, 93
1, 80505, Note_on_c, 0, 66, 0
1, 80505, Note_on_c, 0, 67, 93
1, 80520, Note_on_c, 0, 67, 0
1, 80520, Note_on_c, 0, 86, 93
1, 80580, Note_on_c, 0, 86, 0
1, 80580, Note_on_c, 0, 86, 93
1, 80610, Note_on_c, 0, 86, 0
1, 80640, Note_on_c, 0, 84, 93
1, 80643, Note_on_c, 1, 60, 79
1, 80753, Note_on_c, 0, 84, 0
1, 80754, Note_on_c, 0, 72, 80
1, 80770, Note_on_c, 1, 69, 75
1, 80892, Note_on_c, 1, 70, 79
1, 80895, Note_on_c, 1, 69, 0
1, 80931, Note_on_c, 0, 74, 85
1, 80933, Note_on_c, 0, 72, 0
1, 80947, Note_on_c, 0, 72, 76
1, 80954, Note_on_c, 0, 74, 0
1, 80966, Note_on_c, 0, 71, 60
1, 80968, Note_on_c, 0, 72, 0
1, 80983, Note_on_c, 0, 72, 64
1, 80986, Note_on_c, 0, 71, 0
1, 81002, Note_on_c, 0, 74, 76
1, 81003, Note_on_c, 0, 72, 0
1, 81010, Note_on_c, 1, 60, 0
1, 81011, Note_on_c, 1, 61, 66
1, 81060, Note_on_c, 0, 74, 0
1, 81060, Note_on_c, 0, 76, 80
1, 81106, Note_on_c, 1, 61, 0
1, 81117, Note_on_c, 1, 70, 0
1, 81119, Note_on_c, 0, 76, 0
1, 81119, Note_on_c, 0, 77, 80
1, 81130, Note_on_c, 1, 71, 79
1, 81131, Note_on_c, 1, 67, 79
1, 81131, Note_on_c, 1, 62, 62
1, 81132, Note_on_c, 1, 65, 66
1, 81153, Note_on_c, 0, 76, 62
1, 81154, Note_on_c, 0, 77, 0
1, 81184, Note_on_c, 0, 79, 76
1, 81186, Note_on_c, 0, 76, 0
1, 81213, Note_on_c, 0, 77, 68
1, 81215, Note_on_c, 0, 79, 0
1, 81245, Note_on_c, 0, 77, 0
1, 81246, Note_on_c, 0, 81, 89
1, 81276, Note_on_c, 0, 79, 76
1, 81282, Note_on_c, 0, 81, 0
1, 81307, Note_on_c, 0, 77, 64
1, 81310, Note_on_c, 0, 79, 0
1, 81335, Note_on_c, 0, 77, 0
1, 81335, Note_on_c, 0, 76, 80
1, 81362, Note_on_c, 0, 76, 0
1, 81365, Note_on_c, 0, 74, 85
1, 81393, Note_on_c, 0, 74, 0
1, 81394, Note_on_c, 0, 72, 76
1, 81420, Note_on_c, 0, 72, 0
1, 81423, Note_on_c, 0, 71, 50
1, 81450, Note_on_c, 0, 71, 0
1, 81450, Note_on_c, 0, 74, 85
1, 81478, Note_on_c, 0, 74, 0
1, 81479, Note_on_c, 0, 79, 85
1, 81488, Note_on_c, 1, 65, 0
1, 81488, Note_on_c, 1, 62, 0
1, 81490, Note_on_c, 1, 67, 0
1, 81494, Note_on_c, 1, 71, 0
1, 81510, Note_on_c, 0, 77, 76
1, 81515, Note_on_c, 0, 79, 0
1, 81538, Note_on_c, 0, 74, 76
1, 81544, Note_on_c, 0, 77, 0
1, 81566, Note_on_c, 0, 74, 0
1, 81567, Note_on_c, 0, 71, 72
1, 81595, Note_on_c, 0, 71, 0
1, 81595, Note_on_c, 0, 70, 76
1, 81601, Note_on_c, 1, 58, 66
1, 81601, Note_on_c, 1, 55, 66
1, 81601, Note_on_c, 1, 52, 83
1, 81602, Note_on_c, 1, 60, 79
1, 81623, Note_on_c, 0, 69, 62
1, 81624, Note_on_c, 0, 70, 0
1, 81653, Note_on_c, 0, 69, 0
1, 81654, Note_on_c, 0, 72, 80
1, 81681, Note_on_c, 0, 70, 64
1, 81684, Note_on_c, 0, 72, 0
1, 81711, Note_on_c, 0, 70, 0
1, 81711, Note_on_c, 0, 74, 76
1, 81742, Note_on_c, 0, 72, 76
1, 81743, Note_on_c, 0, 74, 0
1, 81771, Note_on_c, 0, 70, 64
1, 81775, Note_on_c, 0, 72, 0
1, 81802, Note_on_c, 0, 69, 64
1, 81808, Note_on_c, 0, 70, 0
1, 81833, Note_on_c, 0, 69, 0
1, 81834, Note_on_c, 0, 67, 76
1, 81862, Note_on_c, 0, 67, 0
1, 81863, Note_on_c, 0, 65, 62
1, 81895, Note_on_c, 0, 64, 76
1, 81903, Note_on_c, 0, 65, 0
1, 81923, Note_on_c, 0, 67, 64
1, 81926, Note_on_c, 0, 64, 0
1, 81953, Note_on_c, 0, 67, 0
1, 81954, Note_on_c, 0, 72, 80
1, 81983, Note_on_c, 0, 70, 60
1, 81990, Note_on_c, 0, 72, 0
1, 82015, Note_on_c, 0, 67, 72
1, 82017, Note_on_c, 0, 70, 0
1, 82045, Note_on_c, 0, 67, 0
1, 82045, Note_on_c, 0, 64, 76
1, 82050, Note_on_c, 1, 60, 0
1, 82051, Note_on_c, 1, 58, 0
1, 82051, Note_on_c, 1, 55, 0
1, 82055, Note_on_c, 1, 52, 0
1, 82078, Note_on_c, 0, 64, 0
1, 82080, Note_on_c, 0, 65, 89
1, 82080, Note_on_c, 1, 51, 83
1, 82084, Note_on_c, 0, 57, 80
1, 82110, Note_on_c, 1, 50, 58
1, 82114, Note_on_c, 1, 51, 0
1, 82139, Note_on_c, 1, 50, 0
1, 82144, Note_on_c, 1, 53, 79
1, 82173, Note_on_c, 1, 51, 54
1, 82178, Note_on_c, 1, 53, 0
1, 82197, Note_on_c, 1, 51, 0
1, 82203, Note_on_c, 1, 55, 79
1, 82231, Note_on_c, 1, 55, 0
1, 82233, Note_on_c, 1, 53, 62
1, 82262, Note_on_c, 1, 51, 62
1, 82269, Note_on_c, 1, 53, 0
1, 82290, Note_on_c, 1, 50, 75
1, 82299, Note_on_c, 1, 51, 0
1, 82318, Note_on_c, 1, 50, 0
1, 82320, Note_on_c, 1, 48, 62
1, 82349, Note_on_c, 1, 46, 75
1, 82350, Note_on_c, 1, 48, 0
1, 82376, Note_on_c, 1, 45, 54
1, 82381, Note_on_c, 1, 46, 0
1, 82408, Note_on_c, 1, 45, 0
1, 82408, Note_on_c, 1, 43, 62
1, 82431, Note_on_c, 1, 43, 0
1, 82439, Note_on_c, 1, 41, 50
1, 82469, Note_on_c, 1, 40, 52
1, 82471, Note_on_c, 1, 41, 0
1, 82495, Note_on_c, 1, 40, 0
1, 82499, Note_on_c, 1, 41, 66
1, 82530, Note_on_c, 1, 39, 36
1, 82533, Note_on_c, 1, 41, 0
1, 82552, Note_on_c, 1, 39, 0
1, 82554, Note_on_c, 0, 65, 0
1, 82557, Note_on_c, 0, 57, 0
1, 82560, Note_on_c, 1, 38, 75
1, 82590, Note_on_c, 0, 58, 76
1, 82617, Note_on_c, 0, 58, 0
1, 82617, Note_on_c, 0, 60, 56
1, 82646, Note_on_c, 0, 62, 76
1, 82650, Note_on_c, 0, 60, 0
1, 82674, Note_on_c, 1, 38, 0
1, 82677, Note_on_c, 0, 63, 76
1, 82678, Note_on_c, 0, 62, 0
1, 82706, Note_on_c, 0, 63, 0
1, 82707, Note_on_c, 0, 65, 64
1, 82734, Note_on_c, 0, 67, 72
1, 82737, Note_on_c, 0, 65, 0
1, 82764, Note_on_c, 0, 69, 80
1, 82766, Note_on_c, 0, 67, 0
1, 82795, Note_on_c, 0, 70, 72
1, 82797, Note_on_c, 0, 69, 0
1, 82823, Note_on_c, 0, 70, 0
1, 82826, Note_on_c, 0, 72, 80
1, 82854, Note_on_c, 0, 74, 72
1, 82858, Note_on_c, 0, 72, 0
1, 82885, Note_on_c, 0, 75, 76
1, 82888, Note_on_c, 0, 74, 0
1, 82913, Note_on_c, 0, 75, 0
1, 82915, Note_on_c, 0, 77, 89
1, 82943, Note_on_c, 0, 79, 76
1, 82944, Note_on_c, 0, 77, 0
1, 82972, Note_on_c, 0, 81, 76
1, 82973, Note_on_c, 0, 79, 0
1, 83003, Note_on_c, 0, 82, 76
1, 83005, Note_on_c, 0, 81, 0
1, 83034, Note_on_c, 1, 49, 83
1, 83034, Note_on_c, 1, 53, 75
1, 83035, Note_on_c, 1, 59, 92
1, 83036, Note_on_c, 0, 82, 0
1, 83036, Note_on_c, 1, 55, 92
1, 83044, Note_on_c, 1, 49, 83
1, 83045, Note_on_c, 1, 53, 83
1, 83046, Note_on_c, 1, 59, 88
1, 83105, Note_on_c, 0, 65, 93
1, 83163, Note_on_c, 0, 65, 0
1, 83164, Note_on_c, 0, 68, 89
1, 83166, Note_on_c, 1, 59, 0
1, 83166, Note_on_c, 1, 49, 0
1, 83167, Note_on_c, 1, 55, 0
1, 83167, Note_on_c, 1, 53, 0
1, 83189, Note_on_c, 1, 59, 0
1, 83190, Note_on_c, 1, 53, 0
1, 83191, Note_on_c, 1, 49, 0
1, 83223, Note_on_c, 0, 68, 0
1, 83224, Note_on_c, 0, 71, 98
1, 83274, Note_on_c, 0, 71, 0
1, 83284, Note_on_c, 0, 77, 89
1, 83341, Note_on_c, 0, 77, 0
1, 83343, Note_on_c, 0, 80, 102
1, 83398, Note_on_c, 0, 83, 93
1, 83403, Note_on_c, 0, 80, 0
1, 83459, Note_on_c, 0, 83, 0
1, 83459, Note_on_c, 0, 89, 89
1, 83512, Note_on_c, 0, 89, 0
1, 83520, Note_on_c, 1, 36, 79
1, 83759, Note_on_c, 1, 41, 70
1, 83761, Note_on_c, 1, 48, 79
1, 83762, Note_on_c, 1, 36, 0
1, 83994, Note_on_c, 1, 55, 66
1, 83997, Note_on_c, 1, 48, 0
1, 84055, Note_on_c, 1, 40, 66
1, 84058, Note_on_c, 1, 41, 0
1, 84083, Note_on_c, 1, 40, 0
1, 84118, Note_on_c, 1, 40, 66
1, 84176, Note_on_c, 1, 40, 0
1, 84178, Note_on_c, 1, 36, 66
1, 84241, Note_on_c, 1, 36, 0
1, 84242, Note_on_c, 1, 45, 70
1, 84298, Note_on_c, 1, 55, 0
1, 84300, Note_on_c, 1, 53, 62
1, 84340, Note_on_c, 1, 53, 0
1, 84365, Note_on_c, 1, 53, 66
1, 84421, Note_on_c, 1, 53, 0
1, 84424, Note_on_c, 1, 48, 62
1, 84479, Note_on_c, 1, 48, 0
1, 84479, Note_on_c, 1, 58, 75
1, 84542, Note_on_c, 1, 43, 75
1, 84543, Note_on_c, 1, 45, 0
1, 84568, Note_on_c, 1, 43, 0
1, 84601, Note_on_c, 1, 43, 62
1, 84656, Note_on_c, 1, 36, 66
1, 84659, Note_on_c, 1, 43, 0
1, 84717, Note_on_c, 1, 36, 0
1, 84721, Note_on_c, 1, 41, 62
1, 84725, Note_on_c, 0, 60, 76
1, 84781, Note_on_c, 1, 57, 75
1, 84783, Note_on_c, 1, 58, 0
1, 84814, Note_on_c, 1, 57, 0
1, 84834, Note_on_c, 1, 40, 70
1, 84835, Note_on_c, 1, 41, 0
1, 84839, Note_on_c, 1, 57, 83
1, 84896, Note_on_c, 1, 55, 75
1, 84898, Note_on_c, 1, 57, 0
1, 84952, Note_on_c, 1, 55, 0
1, 84957, Note_on_c, 1, 57, 75
1, 84960, Note_on_c, 0, 65, 80
1, 84963, Note_on_c, 0, 60, 0
1, 85015, Note_on_c, 1, 40, 0
1, 85016, Note_on_c, 1, 38, 79
1, 85048, Note_on_c, 1, 38, 0
1, 85062, Note_on_c, 1, 57, 0
1, 85072, Note_on_c, 1, 38, 70
1, 85072, Note_on_c, 1, 59, 79
1, 85128, Note_on_c, 1, 38, 0
1, 85130, Note_on_c, 1, 43, 66
1, 85193, Note_on_c, 1, 43, 0
1, 85194, Note_on_c, 1, 60, 75
1, 85195, Note_on_c, 1, 36, 66
1, 85197, Note_on_c, 1, 59, 0
1, 85200, Note_on_c, 0, 70, 93
1, 85260, Note_on_c, 0, 65, 0
1, 85260, Note_on_c, 0, 64, 80
1, 85316, Note_on_c, 1, 36, 0
1, 85318, Note_on_c, 1, 48, 79
1, 85320, Note_on_c, 0, 64, 0
1, 85320, Note_on_c, 0, 64, 80
1, 85380, Note_on_c, 0, 64, 0
1, 85380, Note_on_c, 0, 60, 80
1, 85429, Note_on_c, 1, 60, 0
1, 85432, Note_on_c, 1, 48, 0
1, 85440, Note_on_c, 0, 60, 0
1, 85440, Note_on_c, 0, 75, 80
1, 85440, Note_on_c, 1, 53, 66
1, 85440, Note_on_c, 1, 60, 79
1, 85500, Note_on_c, 0, 70, 0
1, 85500, Note_on_c, 0, 69, 80
1, 85560, Note_on_c, 0, 69, 0
1, 85560, Note_on_c, 0, 69, 80
1, 85620, Note_on_c, 0, 69, 0
1, 85620, Note_on_c, 0, 65, 80
1, 85676, Note_on_c, 1, 58, 70
1, 85677, Note_on_c, 1, 46, 75
1, 85679, Note_on_c, 1, 53, 0
1, 85680, Note_on_c, 0, 65, 0
1, 85680, Note_on_c, 0, 77, 80
1, 85680, Note_on_c, 0, 65, 80
1, 85680, Note_on_c, 1, 60, 0
1, 85740, Note_on_c, 0, 75, 0
1, 85740, Note_on_c, 0, 74, 80
1, 85796, Note_on_c, 1, 46, 0
1, 85798, Note_on_c, 1, 58, 0
1, 85798, Note_on_c, 1, 53, 70
1, 85799, Note_on_c, 1, 57, 79
1, 85800, Note_on_c, 0, 74, 0
1, 85800, Note_on_c, 0, 74, 80
1, 85860, Note_on_c, 0, 74, 0
1, 85860, Note_on_c, 0, 72, 80
1, 85919, Note_on_c, 1, 53, 0
1, 85919, Note_on_c, 1, 58, 75
1, 85920, Note_on_c, 0, 72, 0
1, 85920, Note_on_c, 0, 65, 0
1, 85920, Note_on_c, 0, 77, 0
1, 85920, Note_on_c, 0, 77, 80
1, 85920, Note_on_c, 0, 82, 80
1, 85920, Note_on_c, 0, 72, 80
1, 85920, Note_on_c, 1, 57, 0
1, 85920, Note_on_c, 1, 55, 70
1, 85980, Note_on_c, 0, 77, 0
1, 85980, Note_on_c, 0, 76, 80
1, 86040, Note_on_c, 0, 76, 0
1, 86040, Note_on_c, 0, 76, 80
1, 86100, Note_on_c, 0, 76, 0
1, 86100, Note_on_c, 0, 72, 80
1, 86148, Note_on_c, 1, 55, 0
1, 86150, Note_on_c, 1, 58, 0
1, 86151, Note_on_c, 1, 53, 66
1, 86152, Note_on_c, 1, 60, 66
1, 86160, Note_on_c, 0, 72, 0
1, 86160, Note_on_c, 0, 72, 0
1, 86160, Note_on_c, 0, 77, 80
1, 86160, Note_on_c, 0, 84, 80
1, 86220, Note_on_c, 0, 82, 0
1, 86220, Note_on_c, 0, 81, 80
1, 86266, Note_on_c, 1, 60, 0
1, 86276, Note_on_c, 1, 64, 79
1, 86278, Note_on_c, 1, 60, 70
1, 86280, Note_on_c, 0, 81, 0
1, 86280, Note_on_c, 0, 77, 0
1, 86280, Note_on_c, 0, 76, 80
1, 86280, Note_on_c, 0, 81, 80
1, 86287, Note_on_c, 1, 53, 0
1, 86340, Note_on_c, 0, 81, 0
1, 86340, Note_on_c, 0, 79, 80
1, 86397, Note_on_c, 1, 60, 0
1, 86397, Note_on_c, 1, 64, 0
1, 86398, Note_on_c, 1, 62, 79
1, 86400, Note_on_c, 0, 79, 0
1, 86400, Note_on_c, 0, 76, 0
1, 86400, Note_on_c, 0, 84, 0
1, 86400, Note_on_c, 0, 89, 80
1, 86400, Note_on_c, 0, 84, 80
1, 86400, Note_on_c, 0, 79, 80
1, 86400, Note_on_c, 1, 55, 66
1, 86460, Note_on_c, 0, 84, 0
1, 86460, Note_on_c, 0, 83, 80
1, 86520, Note_on_c, 0, 83, 0
1, 86520, Note_on_c, 0, 83, 80
1, 86580, Note_on_c, 0, 83, 0
1, 86580, Note_on_c, 0, 79, 80
1, 86636, Note_on_c, 1, 55, 0
1, 86636, Note_on_c, 1, 62, 0
1, 86637, Note_on_c, 1, 60, 75
1, 86639, Note_on_c, 1, 72, 79
1, 86640, Note_on_c, 0, 79, 0
1, 86640, Note_on_c, 0, 84, 80
1, 86700, Note_on_c, 0, 84, 0
1, 86700, Note_on_c, 0, 79, 0
1, 86700, Note_on_c, 0, 89, 0
1, 86700, Note_on_c, 0, 88, 80
1, 86760, Note_on_c, 0, 88, 0
1, 86760, Note_on_c, 0, 88, 80
1, 86820, Note_on_c, 0, 88, 0
1, 86820, Note_on_c, 0, 84, 80
1, 86870, Note_on_c, 1, 60, 0
1, 86879, Note_on_c, 1, 60, 75
1, 86880, Note_on_c, 0, 84, 0
1, 86888, Note_on_c, 0, 86, 102
1, 86942, Note_on_c, 1, 70, 75
1, 86951, Note_on_c, 1, 72, 0
1, 86981, Note_on_c, 1, 70, 0
1, 87003, Note_on_c, 1, 70, 66
1, 87063, Note_on_c, 1, 70, 0
1, 87063, Note_on_c, 1, 68, 75
1, 87109, Note_on_c, 1, 60, 0
1, 87118, Note_on_c, 1, 68, 0
1, 87123, Note_on_c, 1, 69, 75
1, 87125, Note_on_c, 1, 60, 66
1, 87170, Note_on_c, 0, 84, 93
1, 87173, Note_on_c, 0, 86, 0
1, 87223, Note_on_c, 0, 84, 0
1, 87232, Note_on_c, 0, 84, 102
1, 87294, Note_on_c, 0, 81, 93
1, 87296, Note_on_c, 0, 84, 0
1, 87355, Note_on_c, 0, 82, 89
1, 87356, Note_on_c, 0, 81, 0
1, 87409, Note_on_c, 1, 69, 0
1, 87410, Note_on_c, 1, 67, 79
1, 87456, Note_on_c, 1, 67, 0
1, 87474, Note_on_c, 1, 67, 83
1, 87536, Note_on_c, 1, 67, 0
1, 87536, Note_on_c, 1, 64, 79
1, 87581, Note_on_c, 1, 60, 0
1, 87592, Note_on_c, 1, 64, 0
1, 87597, Note_on_c, 1, 60, 70
1, 87598, Note_on_c, 1, 65, 83
1, 87658, Note_on_c, 0, 81, 89
1, 87660, Note_on_c, 0, 82, 0
1, 87701, Note_on_c, 0, 81, 0
1, 87716, Note_on_c, 0, 81, 85
1, 87773, Note_on_c, 1, 65, 0
1, 87775, Note_on_c, 1, 69, 79
1, 87776, Note_on_c, 0, 78, 85
1, 87777, Note_on_c, 0, 81, 0
1, 87825, Note_on_c, 1, 69, 0
1, 87825, Note_on_c, 1, 60, 0
1, 87833, Note_on_c, 0, 78, 0
1, 87836, Note_on_c, 0, 79, 93
1, 87836, Note_on_c, 1, 60, 62
1, 87839, Note_on_c, 1, 70, 83
1, 87853, Note_on_c, 0, 79, 0
1, 87897, Note_on_c, 0, 78, 72
1, 87900, Note_on_c, 1, 69, 75
1, 87901, Note_on_c, 1, 70, 0
1, 87911, Note_on_c, 0, 78, 0
1, 87957, Note_on_c, 0, 79, 93
1, 87962, Note_on_c, 1, 70, 66
1, 87965, Note_on_c, 1, 69, 0
1, 87965, Note_on_c, 1, 60, 0
1, 87972, Note_on_c, 0, 79, 0
1, 88008, Note_on_c, 1, 70, 0
1, 88018, Note_on_c, 0, 76, 93
1, 88033, Note_on_c, 0, 76, 0
1, 88079, Note_on_c, 1, 60, 70
1, 88079, Note_on_c, 1, 69, 83
1, 88080, Note_on_c, 0, 77, 93
1, 88092, Note_on_c, 0, 77, 0
1, 88136, Note_on_c, 1, 68, 62
1, 88137, Note_on_c, 1, 69, 0
1, 88138, Note_on_c, 0, 76, 89
1, 88154, Note_on_c, 0, 76, 0
1, 88198, Note_on_c, 0, 77, 85
1, 88198, Note_on_c, 1, 68, 0
1, 88199, Note_on_c, 1, 69, 70
1, 88202, Note_on_c, 1, 60, 0
1, 88214, Note_on_c, 0, 77, 0
1, 88233, Note_on_c, 1, 69, 0
1, 88256, Note_on_c, 0, 78, 89
1, 88273, Note_on_c, 0, 78, 0
1, 88312, Note_on_c, 1, 60, 58
1, 88313, Note_on_c, 1, 70, 83
1, 88319, Note_on_c, 0, 79, 89
1, 88348, Note_on_c, 0, 79, 0
1, 88348, Note_on_c, 0, 81, 76
1, 88377, Note_on_c, 1, 69, 75
1, 88379, Note_on_c, 0, 81, 0
1, 88379, Note_on_c, 0, 78, 76
1, 88379, Note_on_c, 1, 70, 0
1, 88407, Note_on_c, 0, 81, 80
1, 88408, Note_on_c, 0, 78, 0
1, 88438, Note_on_c, 1, 70, 70
1, 88440, Note_on_c, 0, 79, 89
1, 88441, Note_on_c, 0, 81, 0
1, 88441, Note_on_c, 1, 69, 0
1, 88446, Note_on_c, 1, 60, 0
1, 88474, Note_on_c, 1, 70, 0
1, 88499, Note_on_c, 0, 76, 89
1, 88501, Note_on_c, 0, 79, 0
1, 88513, Note_on_c, 0, 76, 0
1, 88559, Note_on_c, 1, 69, 79
1, 88559, Note_on_c, 1, 60, 66
1, 88561, Note_on_c, 0, 77, 85
1, 88588, Note_on_c, 0, 79, 80
1, 88589, Note_on_c, 0, 77, 0
1, 88618, Note_on_c, 0, 76, 68
1, 88619, Note_on_c, 0, 79, 0
1, 88619, Note_on_c, 1, 68, 62
1, 88623, Note_on_c, 1, 69, 0
1, 88647, Note_on_c, 0, 79, 80
1, 88649, Note_on_c, 0, 76, 0
1, 88679, Note_on_c, 0, 77, 89
1, 88679, Note_on_c, 1, 68, 0
1, 88680, Note_on_c, 0, 79, 0
1, 88680, Note_on_c, 1, 69, 66
1, 88686, Note_on_c, 1, 60, 0
1, 88717, Note_on_c, 1, 69, 0
1, 88734, Note_on_c, 0, 77, 0
1, 88735, Note_on_c, 0, 78, 85
1, 88748, Note_on_c, 0, 78, 0
1, 88796, Note_on_c, 1, 70, 92
1, 88798, Note_on_c, 1, 60, 66
1, 88799, Note_on_c, 0, 79, 93
1, 88828, Note_on_c, 0, 81, 80
1, 88830, Note_on_c, 0, 79, 0
1, 88856, Note_on_c, 0, 81, 0
1, 88857, Note_on_c, 0, 82, 72
1, 88883, Note_on_c, 0, 82, 0
1, 88886, Note_on_c, 0, 84, 64
1, 88909, Note_on_c, 1, 70, 0
1, 88915, Note_on_c, 1, 60, 0
1, 88917, Note_on_c, 0, 84, 0
1, 88919, Note_on_c, 0, 86, 93
1, 88979, Note_on_c, 0, 76, 93
1, 88980, Note_on_c, 0, 86, 0
1, 88995, Note_on_c, 0, 76, 0
1, 89040, Note_on_c, 1, 69, 83
1, 89041, Note_on_c, 0, 77, 89
1, 89041, Note_on_c, 1, 60, 70
1, 89071, Note_on_c, 0, 79, 76
1, 89072, Note_on_c, 0, 77, 0
1, 89100, Note_on_c, 0, 81, 76
1, 89101, Note_on_c, 0, 79, 0
1, 89126, Note_on_c, 0, 82, 80
1, 89127, Note_on_c, 0, 81, 0
1, 89157, Note_on_c, 0, 82, 0
1, 89159, Note_on_c, 0, 84, 89
1, 89160, Note_on_c, 1, 69, 0
1, 89165, Note_on_c, 1, 60, 0
1, 89220, Note_on_c, 0, 72, 85
1, 89222, Note_on_c, 0, 84, 0
1, 89234, Note_on_c, 0, 72, 0
1, 89281, Note_on_c, 1, 68, 92
1, 89282, Note_on_c, 1, 65, 103
1, 89282, Note_on_c, 1, 60, 79
1, 89282, Note_on_c, 1, 62, 83
1, 89284, Note_on_c, 0, 71, 93
1, 89313, Note_on_c, 0, 72, 80
1, 89315, Note_on_c, 0, 71, 0
1, 89342, Note_on_c, 0, 74, 85
1, 89345, Note_on_c, 0, 72, 0
1, 89370, Note_on_c, 0, 74, 0
1, 89370, Note_on_c, 0, 76, 76
1, 89398, Note_on_c, 0, 77, 64
1, 89400, Note_on_c, 0, 76, 0
1, 89429, Note_on_c, 0, 79, 89
1, 89430, Note_on_c, 0, 77, 0
1, 89457, Note_on_c, 0, 80, 76
1, 89458, Note_on_c, 0, 79, 0
1, 89485, Note_on_c, 0, 79, 80
1, 89491, Note_on_c, 0, 80, 0
1, 89515, Note_on_c, 0, 77, 72
1, 89518, Note_on_c, 0, 79, 0
1, 89545, Note_on_c, 0, 76, 68
1, 89546, Note_on_c, 0, 77, 0
1, 89570, Note_on_c, 0, 76, 0
1, 89573, Note_on_c, 0, 74, 80
1, 89601, Note_on_c, 0, 72, 72
1, 89604, Note_on_c, 0, 74, 0
1, 89630, Note_on_c, 0, 72, 0
1, 89633, Note_on_c, 0, 71, 76
1, 89660, Note_on_c, 0, 71, 0
1, 89661, Note_on_c, 0, 72, 76
1, 89691, Note_on_c, 0, 74, 76
1, 89695, Note_on_c, 0, 72, 0
1, 89723, Note_on_c, 0, 76, 76
1, 89724, Note_on_c, 0, 74, 0
1, 89749, Note_on_c, 0, 76, 0
1, 89754, Note_on_c, 0, 77, 93
1, 89784, Note_on_c, 0, 79, 89
1, 89787, Note_on_c, 0, 77, 0
1, 89813, Note_on_c, 0, 80, 76
1, 89814, Note_on_c, 0, 79, 0
1, 89844, Note_on_c, 0, 79, 80
1, 89852, Note_on_c, 0, 80, 0
1, 89876, Note_on_c, 0, 79, 0
1, 89877, Note_on_c, 0, 77, 89
1, 89905, Note_on_c, 0, 77, 0
1, 89907, Note_on_c, 0, 76, 76
1, 89936, Note_on_c, 0, 74, 85
1, 89940, Note_on_c, 0, 76, 0
1, 89965, Note_on_c, 0, 72, 68
1, 89968, Note_on_c, 0, 74, 0
1, 89994, Note_on_c, 0, 72, 0
1, 89996, Note_on_c, 0, 71, 89
1, 90023, Note_on_c, 0, 71, 0
1, 90025, Note_on_c, 0, 72, 72
1, 90056, Note_on_c, 0, 74, 85
1, 90058, Note_on_c, 0, 72, 0
1, 90084, Note_on_c, 0, 76, 76
1, 90089, Note_on_c, 0, 74, 0
1, 90117, Note_on_c, 0, 76, 0
1, 90117, Note_on_c, 0, 77, 85
1, 90149, Note_on_c, 0, 79, 85
1, 90153, Note_on_c, 0, 77, 0
1, 90181, Note_on_c, 0, 81, 85
1, 90184, Note_on_c, 0, 79, 0
1, 90207, Note_on_c, 0, 81, 0
1, 90209, Note_on_c, 0, 71, 93
1, 90210, Note_on_c, 1, 65, 0
1, 90213, Note_on_c, 1, 62, 0
1, 90213, Note_on_c, 1, 60, 0
1, 90215, Note_on_c, 1, 68, 0
1, 90240, Note_on_c, 0, 71, 0
1, 90240, Note_on_c, 0, 72, 62
1, 90243, Note_on_c, 1, 65, 79
1, 90243, Note_on_c, 1, 69, 79
1, 90244, Note_on_c, 1, 60, 66
1, 90270, Note_on_c, 0, 74, 76
1, 90271, Note_on_c, 0, 72, 0
1, 90299, Note_on_c, 0, 72, 80
1, 90302, Note_on_c, 0, 74, 0
1, 90328, Note_on_c, 0, 71, 76
1, 90329, Note_on_c, 0, 72, 0
1, 90359, Note_on_c, 0, 71, 0
1, 90359, Note_on_c, 0, 72, 89
1, 90390, Note_on_c, 0, 73, 72
1, 90391, Note_on_c, 0, 72, 0
1, 90420, Note_on_c, 0, 73, 0
1, 90420, Note_on_c, 0, 74, 89
1, 90449, Note_on_c, 0, 75, 76
1, 90451, Note_on_c, 0, 74, 0
1, 90478, Note_on_c, 0, 75, 0
1, 90480, Note_on_c, 0, 76, 102
1, 90508, Note_on_c, 0, 77, 80
1, 90510, Note_on_c, 0, 76, 0
1, 90540, Note_on_c, 0, 77, 0
1, 90540, Note_on_c, 0, 78, 72
1, 90569, Note_on_c, 0, 79, 80
1, 90570, Note_on_c, 0, 78, 0
1, 90600, Note_on_c, 0, 79, 0
1, 90600, Note_on_c, 0, 80, 85
1, 90630, Note_on_c, 0, 81, 72
1, 90631, Note_on_c, 0, 80, 0
1, 90660, Note_on_c, 0, 82, 80
1, 90662, Note_on_c, 0, 81, 0
1, 90688, Note_on_c, 0, 83, 80
1, 90689, Note_on_c, 0, 82, 0
1, 90718, Note_on_c, 0, 84, 89
1, 90718, Note_on_c, 1, 65, 0
1, 90720, Note_on_c, 0, 83, 0
1, 90721, Note_on_c, 1, 69, 0
1, 90724, Note_on_c, 1, 60, 0
1, 90748, Note_on_c, 0, 85, 72
1, 90751, Note_on_c, 0, 84, 0
1, 90775, Note_on_c, 0, 86, 62
1, 90776, Note_on_c, 0, 85, 0
1, 90807, Note_on_c, 0, 87, 80
1, 90809, Note_on_c, 0, 86, 0
1, 90835, Note_on_c, 0, 87, 0
1, 90835, Note_on_c, 0, 88, 76
1, 90865, Note_on_c, 0, 89, 76
1, 90866, Note_on_c, 0, 88, 0
1, 90896, Note_on_c, 0, 88, 80
1, 90899, Note_on_c, 0, 89, 0
1, 90926, Note_on_c, 0, 86, 93
1, 90928, Note_on_c, 0, 88, 0
1, 90956, Note_on_c, 0, 86, 0
1, 90956, Note_on_c, 0, 84, 80
1, 90984, Note_on_c, 0, 82, 72
1, 90985, Note_on_c, 0, 84, 0
1, 91014, Note_on_c, 0, 81, 80
1, 91019, Note_on_c, 0, 82, 0
1, 91044, Note_on_c, 0, 81, 0
1, 91044, Note_on_c, 0, 79, 76
1, 91073, Note_on_c, 0, 79, 0
1, 91074, Note_on_c, 0, 77, 76
1, 91105, Note_on_c, 0, 76, 89
1, 91112, Note_on_c, 0, 77, 0
1, 91136, Note_on_c, 0, 76, 0
1, 91136, Note_on_c, 0, 74, 80
1, 91164, Note_on_c, 0, 72, 49
1, 91166, Note_on_c, 0, 74, 0
1, 91182, Note_on_c, 0, 70, 76
1, 91185, Note_on_c, 0, 72, 0
1, 91196, Note_on_c, 0, 70, 0
1, 91197, Note_on_c, 0, 69, 98
1, 91229, Note_on_c, 0, 70, 85
1, 91230, Note_on_c, 0, 69, 0
1, 91260, Note_on_c, 0, 70, 0
1, 91260, Note_on_c, 0, 72, 85
1, 91290, Note_on_c, 0, 74, 76
1, 91291, Note_on_c, 0, 72, 0
1, 91321, Note_on_c, 0, 76, 89
1, 91322, Note_on_c, 0, 74, 0
1, 91346, Note_on_c, 0, 76, 0
1, 91348, Note_on_c, 0, 77, 72
1, 91378, Note_on_c, 0, 79, 51
1, 91380, Note_on_c, 0, 77, 0
1, 91406, Note_on_c, 0, 81, 80
1, 91410, Note_on_c, 0, 79, 0
1, 91437, Note_on_c, 0, 82, 76
1, 91439, Note_on_c, 0, 81, 0
1, 91463, Note_on_c, 0, 82, 0
1, 91467, Note_on_c, 0, 84, 89
1, 91496, Note_on_c, 0, 86, 60
1, 91498, Note_on_c, 0, 84, 0
1, 91523, Note_on_c, 0, 88, 85
1, 91524, Note_on_c, 0, 86, 0
1, 91553, Note_on_c, 0, 88, 0
1, 91555, Note_on_c, 0, 89, 80
1, 91588, Note_on_c, 0, 89, 0
1, 91643, Note_on_c, 0, 77, 80
1, 91658, Note_on_c, 0, 77, 0
1, 91680, Note_on_c, 0, 81, 93
1, 91695, Note_on_c, 0, 81, 0
1, 91695, Note_on_c, 0, 79, 80
1, 91709, Note_on_c, 0, 79, 0
1, 91710, Note_on_c, 0, 81, 89
1, 91725, Note_on_c, 0, 81, 0
1, 91726, Note_on_c, 0, 79, 64
1, 91738, Note_on_c, 0, 79, 0
1, 91740, Note_on_c, 0, 81, 72
1, 91753, Note_on_c, 0, 79, 64
1, 91756, Note_on_c, 0, 81, 0
1, 91767, Note_on_c, 0, 79, 0
1, 91770, Note_on_c, 0, 81, 72
1, 91782, Note_on_c, 0, 79, 80
1, 91784, Note_on_c, 0, 81, 0
1, 91794, Note_on_c, 0, 79, 0
1, 91798, Note_on_c, 0, 81, 85
1, 91812, Note_on_c, 0, 79, 72
1, 91813, Note_on_c, 0, 81, 0
1, 91827, Note_on_c, 0, 79, 0
1, 91829, Note_on_c, 0, 81, 76
1, 91842, Note_on_c, 0, 79, 62
1, 91843, Note_on_c, 0, 81, 0
1, 91855, Note_on_c, 0, 79, 0
1, 91859, Note_on_c, 0, 81, 64
1, 91871, Note_on_c, 0, 79, 76
1, 91873, Note_on_c, 0, 81, 0
1, 91885, Note_on_c, 0, 79, 0
1, 91888, Note_on_c, 0, 81, 76
1, 91902, Note_on_c, 0, 81, 0
1, 91903, Note_on_c, 0, 79, 60
1, 91916, Note_on_c, 0, 79, 0
1, 91919, Note_on_c, 0, 81, 80
1, 91922, Note_on_c, 1, 70, 70
1, 91923, Note_on_c, 1, 64, 83
1, 91924, Note_on_c, 1, 60, 75
1, 91930, Note_on_c, 0, 79, 80
1, 91931, Note_on_c, 0, 81, 0
1, 91941, Note_on_c, 0, 79, 0
1, 91944, Note_on_c, 0, 81, 72
1, 91956, Note_on_c, 0, 79, 72
1, 91958, Note_on_c, 0, 81, 0
1, 91970, Note_on_c, 0, 79, 0
1, 91974, Note_on_c, 0, 81, 72
1, 91987, Note_on_c, 0, 81, 0
1, 91987, Note_on_c, 0, 79, 62
1, 92002, Note_on_c, 0, 79, 0
1, 92005, Note_on_c, 0, 81, 68
1, 92017, Note_on_c, 0, 79, 76
1, 92018, Note_on_c, 0, 81, 0
1, 92032, Note_on_c, 0, 79, 0
1, 92035, Note_on_c, 0, 81, 89
1, 92048, Note_on_c, 0, 81, 0
1, 92048, Note_on_c, 0, 79, 76
1, 92061, Note_on_c, 0, 79, 0
1, 92064, Note_on_c, 0, 81, 85
1, 92078, Note_on_c, 0, 79, 80
1, 92079, Note_on_c, 0, 81, 0
1, 92092, Note_on_c, 0, 79, 0
1, 92095, Note_on_c, 0, 81, 89
1, 92109, Note_on_c, 0, 79, 64
1, 92112, Note_on_c, 0, 81, 0
1, 92122, Note_on_c, 0, 79, 0
1, 92124, Note_on_c, 0, 77, 80
1, 92138, Note_on_c, 0, 77, 0
1, 92138, Note_on_c, 0, 79, 85
1, 92139, Note_on_c, 1, 64, 0
1, 92147, Note_on_c, 1, 60, 0
1, 92149, Note_on_c, 1, 70, 0
1, 92151, Note_on_c, 0, 79, 0
1, 92154, Note_on_c, 0, 77, 89
1, 92156, Note_on_c, 1, 65, 70
1, 92158, Note_on_c, 1, 69, 83
1, 92268, Note_on_c, 0, 77, 0
1, 92284, Note_on_c, 1, 65, 0
1, 92284, Note_on_c, 1, 60, 58
1, 92344, Note_on_c, 0, 77, 93
1, 92375, Note_on_c, 0, 77, 0
1, 92375, Note_on_c, 0, 76, 72
1, 92406, Note_on_c, 0, 76, 0
1, 92407, Note_on_c, 0, 79, 93
1, 92408, Note_on_c, 1, 60, 0
1, 92408, Note_on_c, 1, 65, 62
1, 92433, Note_on_c, 0, 77, 72
1, 92435, Note_on_c, 0, 79, 0
1, 92464, Note_on_c, 0, 77, 0
1, 92466, Note_on_c, 0, 81, 80
1, 92494, Note_on_c, 0, 79, 80
1, 92495, Note_on_c, 0, 81, 0
1, 92521, Note_on_c, 0, 79, 0
1, 92525, Note_on_c, 0, 82, 85
1, 92534, Note_on_c, 1, 60, 66
1, 92537, Note_on_c, 1, 65, 0
1, 92554, Note_on_c, 0, 81, 80
1, 92556, Note_on_c, 0, 82, 0
1, 92582, Note_on_c, 0, 81, 0
1, 92583, Note_on_c, 0, 84, 89
1, 92611, Note_on_c, 0, 82, 76
1, 92614, Note_on_c, 0, 84, 0
1, 92642, Note_on_c, 0, 82, 0
1, 92642, Note_on_c, 0, 86, 98
1, 92648, Note_on_c, 1, 64, 52
1, 92649, Note_on_c, 1, 60, 0
1, 92653, Note_on_c, 1, 70, 79
1, 92654, Note_on_c, 1, 69, 0
1, 92701, Note_on_c, 0, 86, 0
1, 92701, Note_on_c, 0, 84, 93
1, 92724, Note_on_c, 0, 84, 0
1, 92760, Note_on_c, 0, 84, 107
1, 92763, Note_on_c, 1, 64, 0
1, 92763, Note_on_c, 1, 60, 54
1, 92887, Note_on_c, 1, 64, 66
1, 92889, Note_on_c, 1, 60, 0
1, 92940, Note_on_c, 0, 83, 93
1, 92945, Note_on_c, 0, 84, 0
1, 93000, Note_on_c, 0, 82, 89
1, 93001, Note_on_c, 0, 83, 0
1, 93002, Note_on_c, 1, 60, 62
1, 93004, Note_on_c, 1, 64, 0
1, 93058, Note_on_c, 0, 79, 76
1, 93059, Note_on_c, 0, 82, 0
1, 93115, Note_on_c, 0, 79, 0
1, 93118, Note_on_c, 0, 76, 93
1, 93119, Note_on_c, 1, 60, 0
1, 93121, Note_on_c, 1, 65, 52
1, 93121, Note_on_c, 1, 69, 79
1, 93125, Note_on_c, 1, 70, 0
1, 93178, Note_on_c, 0, 77, 76
1, 93179, Note_on_c, 0, 76, 0
1, 93231, Note_on_c, 0, 77, 0
1, 93244, Note_on_c, 1, 60, 66
1, 93245, Note_on_c, 1, 65, 0
1, 93298, Note_on_c, 0, 77, 98
1, 93328, Note_on_c, 0, 77, 0
1, 93328, Note_on_c, 0, 76, 80
1, 93356, Note_on_c, 0, 76, 0
1, 93358, Note_on_c, 0, 79, 89
1, 93358, Note_on_c, 1, 60, 0
1, 93358, Note_on_c, 1, 65, 58
1, 93387, Note_on_c, 0, 77, 85
1, 93389, Note_on_c, 0, 79, 0
1, 93417, Note_on_c, 0, 77, 0
1, 93417, Note_on_c, 0, 81, 89
1, 93446, Note_on_c, 0, 81, 0
1, 93446, Note_on_c, 0, 79, 64
1, 93477, Note_on_c, 0, 79, 0
1, 93478, Note_on_c, 0, 82, 85
1, 93481, Note_on_c, 1, 60, 70
1, 93484, Note_on_c, 1, 65, 0
1, 93507, Note_on_c, 0, 81, 85
1, 93510, Note_on_c, 0, 82, 0
1, 93538, Note_on_c, 0, 84, 89
1, 93539, Note_on_c, 0, 81, 0
1, 93567, Note_on_c, 0, 82, 76
1, 93571, Note_on_c, 0, 84, 0
1, 93596, Note_on_c, 0, 82, 0
1, 93597, Note_on_c, 0, 86, 93
1, 93601, Note_on_c, 1, 64, 66
1, 93602, Note_on_c, 1, 70, 79
1, 93603, Note_on_c, 1, 60, 0
1, 93607, Note_on_c, 1, 69, 0
1, 93654, Note_on_c, 0, 84, 93
1, 93656, Note_on_c, 0, 86, 0
1, 93674, Note_on_c, 0, 84, 0
1, 93713, Note_on_c, 0, 84, 93
1, 93722, Note_on_c, 1, 60, 62
1, 93725, Note_on_c, 1, 64, 0
1, 93843, Note_on_c, 1, 64, 62
1, 93845, Note_on_c, 1, 60, 0
1, 93869, Note_on_c, 0, 83, 89
1, 93875, Note_on_c, 0, 84, 0
1, 93900, Note_on_c, 0, 82, 76
1, 93905, Note_on_c, 0, 83, 0
1, 93930, Note_on_c, 0, 82, 0
1, 93930, Note_on_c, 0, 81, 89
1, 93949, Note_on_c, 1, 60, 58
1, 93952, Note_on_c, 1, 64, 0
1, 93959, Note_on_c, 0, 81, 0
1, 93961, Note_on_c, 0, 84, 93
1, 93993, Note_on_c, 0, 82, 64
1, 94003, Note_on_c, 0, 84, 0
1, 94021, Note_on_c, 0, 81, 80
1, 94026, Note_on_c, 0, 82, 0
1, 94050, Note_on_c, 0, 79, 76
1, 94052, Note_on_c, 0, 81, 0
1, 94078, Note_on_c, 0, 79, 0
1, 94079, Note_on_c, 1, 60, 0
1, 94081, Note_on_c, 1, 65, 62
1, 94081, Note_on_c, 1, 69, 83
1, 94083, Note_on_c, 0, 77, 89
1, 94084, Note_on_c, 1, 70, 0
1, 94140, Note_on_c, 0, 77, 0
1, 94141, Note_on_c, 0, 79, 80
1, 94155, Note_on_c, 0, 77, 72
1, 94161, Note_on_c, 0, 79, 0
1, 94171, Note_on_c, 0, 76, 72
1, 94175, Note_on_c, 0, 77, 0
1, 94179, Note_on_c, 0, 77, 62
1, 94186, Note_on_c, 0, 76, 0
1, 94192, Note_on_c, 1, 69, 0
1, 94195, Note_on_c, 0, 77, 0
1, 94197, Note_on_c, 1, 65, 0
1, 94198, Note_on_c, 0, 81, 72
1, 94319, Note_on_c, 1, 53, 62
1, 94320, Note_on_c, 1, 57, 66
1, 94335, Note_on_c, 0, 81, 0
1, 94382, Note_on_c, 0, 74, 85
1, 94395, Note_on_c, 0, 72, 80
1, 94401, Note_on_c, 0, 74, 0
1, 94406, Note_on_c, 1, 57, 0
1, 94408, Note_on_c, 1, 53, 0
1, 94409, Note_on_c, 0, 71, 64
1, 94410, Note_on_c, 0, 72, 0
1, 94421, Note_on_c, 0, 72, 80
1, 94423, Note_on_c, 0, 71, 0
1, 94436, Note_on_c, 0, 72, 0
1, 94446, Note_on_c, 0, 77, 93
1, 94570, Note_on_c, 1, 45, 66
1, 94572, Note_on_c, 1, 41, 75
1, 94600, Note_on_c, 0, 77, 0
1, 94600, Note_on_c, 0, 69, 80
1, 94639, Note_on_c, 0, 69, 0
1, 94640, Note_on_c, 0, 72, 80
1, 94647, Note_on_c, 1, 45, 0
1, 94650, Note_on_c, 1, 41, 0
1, 94680, Note_on_c, 0, 72, 0
1, 94680, Note_on_c, 0, 65, 76
1, 94718, Note_on_c, 0, 65, 0
1, 94720, Note_on_c, 0, 69, 80
1, 94758, Note_on_c, 0, 60, 62
1, 94760, Note_on_c, 0, 69, 0
1, 94800, Note_on_c, 0, 60, 0
1, 94801, Note_on_c, 0, 65, 85
1, 94844, Note_on_c, 0, 57, 80
1, 94845, Note_on_c, 0, 65, 0
1, 94884, Note_on_c, 0, 57, 0
1, 94884, Note_on_c, 0, 60, 80
1, 94921, Note_on_c, 0, 60, 0
1, 94924, Note_on_c, 0, 53, 80
1, 94962, Note_on_c, 0, 53, 0
1, 94964, Note_on_c, 0, 57, 72
1, 95002, Note_on_c, 0, 48, 57
1, 95003, Note_on_c, 0, 57, 0
1, 95042, Note_on_c, 0, 53, 72
1, 95043, Note_on_c, 1, 41, 58
1, 95047, Note_on_c, 0, 48, 0
1, 95102, Note_on_c, 1, 43, 62
1, 95105, Note_on_c, 1, 41, 0
1, 95162, Note_on_c, 1, 45, 66
1, 95163, Note_on_c, 1, 43, 0
1, 95223, Note_on_c, 1, 43, 62
1, 95224, Note_on_c, 1, 45, 0
1, 95279, Note_on_c, 1, 43, 0
1, 95283, Note_on_c, 1, 41, 50
1, 95290, Note_on_c, 0, 57, 68
1, 95293, Note_on_c, 0, 53, 0
1, 95347, Note_on_c, 1, 40, 62
1, 95352, Note_on_c, 1, 41, 0
1, 95407, Note_on_c, 1, 38, 58
1, 95408, Note_on_c, 1, 40, 0
1, 95466, Note_on_c, 1, 38, 0
1, 95467, Note_on_c, 1, 36, 50
1, 95505, Note_on_c, 0, 57, 0
1, 95514, Note_on_c, 0, 57, 80
1, 95528, Note_on_c, 1, 34, 62
1, 95533, Note_on_c, 1, 36, 0
1, 95581, Note_on_c, 0, 57, 0
1, 95581, Note_on_c, 0, 55, 62
1, 95584, Note_on_c, 1, 34, 0
1, 95584, Note_on_c, 1, 31, 62
1, 95635, Note_on_c, 0, 55, 0
1, 95640, Note_on_c, 1, 31, 0
1, 95641, Note_on_c, 1, 36, 58
1, 95645, Note_on_c, 0, 55, 72
1, 95702, Note_on_c, 0, 55, 0
1, 95702, Note_on_c, 1, 34, 47
1, 95704, Note_on_c, 0, 52, 64
1, 95709, Note_on_c, 1, 36, 0
1, 95762, Note_on_c, 0, 52, 0
1, 95763, Note_on_c, 0, 53, 72
1, 95766, Note_on_c, 1, 33, 54
1, 95769, Note_on_c, 1, 34, 0
1, 95823, Note_on_c, 1, 29, 58
1, 95826, Note_on_c, 1, 33, 0
1, 95882, Note_on_c, 1, 38, 58
1, 95887, Note_on_c, 1, 29, 0
1, 95943, Note_on_c, 0, 57, 72
1, 95944, Note_on_c, 0, 53, 0
1, 95944, Note_on_c, 1, 36, 54
1, 95948, Note_on_c, 1, 38, 0
1, 95992, Note_on_c, 0, 57, 0
1, 96002, Note_on_c, 1, 34, 47
1, 96004, Note_on_c, 0, 57, 76
1, 96006, Note_on_c, 1, 36, 0
1, 96061, Note_on_c, 1, 34, 0
1, 96061, Note_on_c, 1, 31, 70
1, 96063, Note_on_c, 0, 57, 0
1, 96063, Note_on_c, 0, 55, 62
1, 96107, Note_on_c, 0, 55, 0
1, 96119, Note_on_c, 1, 36, 52
1, 96121, Note_on_c, 0, 55, 68
1, 96121, Note_on_c, 1, 31, 0
1, 96175, Note_on_c, 0, 55, 0
1, 96175, Note_on_c, 1, 34, 41
1, 96177, Note_on_c, 0, 52, 64
1, 96178, Note_on_c, 1, 36, 0
1, 96237, Note_on_c, 0, 60, 72
1, 96238, Note_on_c, 0, 52, 0
1, 96239, Note_on_c, 1, 34, 0
1, 96241, Note_on_c, 1, 33, 50
1, 96301, Note_on_c, 1, 36, 58
1, 96306, Note_on_c, 1, 33, 0
1, 96361, Note_on_c, 1, 36, 0
1, 96364, Note_on_c, 1, 41, 33
1, 96419, Note_on_c, 1, 40, 70
1, 96420, Note_on_c, 1, 41, 0
1, 96479, Note_on_c, 1, 38, 54
1, 96480, Note_on_c, 1, 40, 0
1, 96535, Note_on_c, 1, 31, 50
1, 96537, Note_on_c, 0, 60, 0
1, 96537, Note_on_c, 0, 62, 80
1, 96540, Note_on_c, 1, 38, 0
1, 96586, Note_on_c, 1, 32, 39
1, 96595, Note_on_c, 1, 31, 0
1, 96598, Note_on_c, 0, 60, 76
1, 96599, Note_on_c, 0, 62, 0
1, 96599, Note_on_c, 1, 32, 0
1, 96602, Note_on_c, 1, 33, 47
1, 96632, Note_on_c, 0, 58, 62
1, 96636, Note_on_c, 0, 60, 0
1, 96657, Note_on_c, 1, 34, 50
1, 96660, Note_on_c, 1, 33, 0
1, 96663, Note_on_c, 0, 57, 72
1, 96665, Note_on_c, 0, 58, 0
1, 96691, Note_on_c, 0, 55, 64
1, 96692, Note_on_c, 0, 57, 0
1, 96713, Note_on_c, 1, 34, 0
1, 96715, Note_on_c, 1, 36, 66
1, 96724, Note_on_c, 0, 53, 59
1, 96725, Note_on_c, 0, 55, 0
1, 96774, Note_on_c, 1, 36, 0
1, 96775, Note_on_c, 1, 35, 66
1, 96838, Note_on_c, 1, 36, 66
1, 96839, Note_on_c, 1, 35, 0
1, 96847, Note_on_c, 0, 53, 0
1, 96847, Note_on_c, 0, 52, 64
1, 96898, Note_on_c, 1, 36, 0
1, 96899, Note_on_c, 1, 34, 47
1, 96959, Note_on_c, 1, 34, 0
1, 96960, Note_on_c, 1, 33, 46
1, 96974, Note_on_c, 0, 52, 0
1, 96975, Note_on_c, 0, 53, 76
1, 97026, Note_on_c, 1, 33, 0
1, 97031, Note_on_c, 1, 41, 66
1, 97087, Note_on_c, 1, 41, 0
1, 97090, Note_on_c, 1, 45, 62
1, 97138, Note_on_c, 0, 53, 0
1, 97138, Note_on_c, 0, 55, 80
1, 97144, Note_on_c, 1, 45, 0
1, 97144, Note_on_c, 1, 43, 70
1, 97156, Note_on_c, 0, 53, 68
1, 97161, Note_on_c, 0, 55, 0
1, 97173, Note_on_c, 0, 52, 59
1, 97174, Note_on_c, 0, 53, 0
1, 97189, Note_on_c, 0, 53, 57
1, 97192, Note_on_c, 0, 52, 0
1, 97194, Note_on_c, 1, 43, 0
1, 97198, Note_on_c, 1, 41, 54
1, 97205, Note_on_c, 0, 53, 0
1, 97206, Note_on_c, 0, 57, 76
1, 97259, Note_on_c, 1, 40, 70
1, 97262, Note_on_c, 1, 41, 0
1, 97318, Note_on_c, 1, 40, 0
1, 97320, Note_on_c, 1, 38, 50
1, 97381, Note_on_c, 1, 38, 0
1, 97384, Note_on_c, 1, 36, 62
1, 97427, Note_on_c, 0, 57, 0
1, 97439, Note_on_c, 0, 57, 80
1, 97442, Note_on_c, 1, 34, 17
1, 97445, Note_on_c, 1, 36, 0
1, 97499, Note_on_c, 0, 55, 76
1, 97499, Note_on_c, 1, 34, 0
1, 97499, Note_on_c, 1, 31, 66
1, 97500, Note_on_c, 0, 57, 0
1, 97546, Note_on_c, 0, 55, 0
1, 97556, Note_on_c, 1, 31, 0
1, 97558, Note_on_c, 1, 36, 50
1, 97559, Note_on_c, 0, 55, 76
1, 97616, Note_on_c, 0, 55, 0
1, 97616, Note_on_c, 1, 34, 49
1, 97617, Note_on_c, 0, 52, 60
1, 97623, Note_on_c, 1, 36, 0
1, 97675, Note_on_c, 0, 52, 0
1, 97677, Note_on_c, 0, 53, 72
1, 97680, Note_on_c, 1, 33, 52
1, 97683, Note_on_c, 1, 34, 0
1, 97737, Note_on_c, 0, 53, 0
1, 97737, Note_on_c, 1, 29, 70
1, 97738, Note_on_c, 0, 55, 64
1, 97740, Note_on_c, 1, 33, 0
1, 97755, Note_on_c, 0, 53, 68
1, 97760, Note_on_c, 0, 55, 0
1, 97772, Note_on_c, 0, 52, 59
1, 97773, Note_on_c, 0, 53, 0
1, 97796, Note_on_c, 0, 52, 0
1, 97796, Note_on_c, 0, 53, 85
1, 97796, Note_on_c, 1, 29, 0
1, 97800, Note_on_c, 1, 38, 54
1, 97855, Note_on_c, 1, 36, 62
1, 97856, Note_on_c, 0, 53, 0
1, 97857, Note_on_c, 0, 57, 72
1, 97860, Note_on_c, 1, 38, 0
1, 97912, Note_on_c, 0, 57, 0
1, 97916, Note_on_c, 1, 34, 52
1, 97919, Note_on_c, 1, 36, 0
1, 97922, Note_on_c, 0, 57, 85
1, 97975, Note_on_c, 1, 31, 62
1, 97980, Note_on_c, 1, 34, 0
1, 97983, Note_on_c, 0, 57, 0
1, 97983, Note_on_c, 0, 55, 76
1, 98032, Note_on_c, 0, 55, 0
1, 98038, Note_on_c, 1, 31, 0
1, 98039, Note_on_c, 1, 36, 58
1, 98045, Note_on_c, 0, 55, 64
1, 98098, Note_on_c, 1, 34, 46
1, 98102, Note_on_c, 1, 36, 0
1, 98104, Note_on_c, 0, 55, 0
1, 98106, Note_on_c, 0, 52, 62
1, 98160, Note_on_c, 1, 34, 0
1, 98160, Note_on_c, 1, 33, 49
1, 98161, Note_on_c, 0, 52, 0
1, 98162, Note_on_c, 0, 60, 93
1, 98221, Note_on_c, 1, 36, 62
1, 98226, Note_on_c, 1, 33, 0
1, 98280, Note_on_c, 1, 36, 0
1, 98282, Note_on_c, 1, 41, 58
1, 98339, Note_on_c, 1, 40, 66
1, 98343, Note_on_c, 1, 41, 0
1, 98396, Note_on_c, 1, 40, 0
1, 98399, Note_on_c, 1, 38, 52
1, 98457, Note_on_c, 0, 62, 76
1, 98459, Note_on_c, 0, 60, 0
1, 98462, Note_on_c, 1, 31, 66
1, 98466, Note_on_c, 1, 38, 0
1, 98513, Note_on_c, 0, 62, 0
1, 98518, Note_on_c, 0, 60, 76
1, 98519, Note_on_c, 1, 31, 0
1, 98520, Note_on_c, 1, 33, 66
1, 98550, Note_on_c, 0, 58, 64
1, 98553, Note_on_c, 0, 60, 0
1, 98578, Note_on_c, 1, 33, 0
1, 98578, Note_on_c, 1, 34, 54
1, 98580, Note_on_c, 0, 57, 80
1, 98582, Note_on_c, 0, 58, 0
1, 98608, Note_on_c, 0, 55, 56
1, 98610, Note_on_c, 0, 57, 0
1, 98632, Note_on_c, 0, 55, 0
1, 98640, Note_on_c, 0, 55, 72
1, 98640, Note_on_c, 1, 36, 66
1, 98641, Note_on_c, 1, 34, 0
1, 98697, Note_on_c, 0, 55, 0
1, 98697, Note_on_c, 0, 53, 60
1, 98741, Note_on_c, 0, 53, 0
1, 98746, Note_on_c, 1, 36, 0
1, 98756, Note_on_c, 0, 53, 76
1, 98761, Note_on_c, 1, 36, 70
1, 98816, Note_on_c, 0, 53, 0
1, 98816, Note_on_c, 0, 52, 64
1, 98872, Note_on_c, 1, 36, 0
1, 98874, Note_on_c, 0, 52, 0
1, 98876, Note_on_c, 1, 29, 70
1, 98876, Note_on_c, 1, 41, 52
1, 98877, Note_on_c, 0, 53, 76
1, 98997, Note_on_c, 1, 41, 0
1, 98999, Note_on_c, 0, 53, 0
1, 98999, Note_on_c, 1, 29, 0
1, 99057, Note_on_c, 0, 48, 68
1, 99116, Note_on_c, 0, 58, 64
1, 99119, Note_on_c, 0, 48, 0
1, 99174, Note_on_c, 0, 52, 76
1, 99178, Note_on_c, 0, 58, 0
1, 99228, Note_on_c, 0, 52, 0
1, 99232, Note_on_c, 1, 36, 66
1, 99233, Note_on_c, 1, 46, 75
1, 99234, Note_on_c, 0, 52, 80
1, 99246, Note_on_c, 0, 52, 0
1, 99295, Note_on_c, 0, 52, 68
1, 99312, Note_on_c, 0, 52, 0
1, 99347, Note_on_c, 1, 36, 0
1, 99354, Note_on_c, 1, 46, 0
1, 99356, Note_on_c, 0, 53, 72
1, 99359, Note_on_c, 1, 45, 62
1, 99360, Note_on_c, 1, 41, 62
1, 99464, Note_on_c, 1, 41, 0
1, 99471, Note_on_c, 1, 45, 0
1, 99504, Note_on_c, 0, 53, 0
1, 99539, Note_on_c, 0, 48, 68
1, 99596, Note_on_c, 0, 58, 60
1, 99600, Note_on_c, 0, 48, 0
1, 99654, Note_on_c, 0, 52, 64
1, 99656, Note_on_c, 0, 58, 0
1, 99703, Note_on_c, 0, 52, 0
1, 99712, Note_on_c, 1, 36, 70
1, 99712, Note_on_c, 1, 46, 58
1, 99714, Note_on_c, 0, 52, 72
1, 99729, Note_on_c, 0, 52, 0
1, 99774, Note_on_c, 0, 52, 80
1, 99788, Note_on_c, 0, 52, 0
1, 99819, Note_on_c, 1, 36, 0
1, 99826, Note_on_c, 1, 46, 0
1, 99832, Note_on_c, 0, 60, 76
1, 99892, Note_on_c, 0, 60, 0
1, 99892, Note_on_c, 0, 53, 60
1, 99944, Note_on_c, 0, 53, 0
1, 99952, Note_on_c, 0, 53, 72
1, 99952, Note_on_c, 1, 45, 66
1, 99952, Note_on_c, 1, 41, 66
1, 99973, Note_on_c, 0, 53, 0
1, 100014, Note_on_c, 0, 53, 68
1, 100032, Note_on_c, 0, 53, 0
1, 100043, Note_on_c, 1, 41, 0
1, 100043, Note_on_c, 1, 45, 0
1, 100076, Note_on_c, 0, 62, 76
1, 100136, Note_on_c, 0, 62, 0
1, 100139, Note_on_c, 0, 52, 40
1, 100166, Note_on_c, 0, 52, 0
1, 100194, Note_on_c, 1, 36, 66
1, 100194, Note_on_c, 1, 46, 62
1, 100200, Note_on_c, 0, 52, 68
1, 100220, Note_on_c, 0, 52, 0
1, 100256, Note_on_c, 0, 52, 64
1, 100256, Note_on_c, 1, 46, 0
1, 100258, Note_on_c, 1, 36, 0
1, 100277, Note_on_c, 0, 52, 0
1, 100319, Note_on_c, 0, 52, 59
1, 100320, Note_on_c, 0, 46, 64
1, 100320, Note_on_c, 1, 29, 70
1, 100321, Note_on_c, 1, 41, 50
1, 100562, Note_on_c, 0, 53, 50
1, 100563, Note_on_c, 0, 46, 0
1, 100565, Note_on_c, 0, 52, 0
1, 100565, Note_on_c, 0, 45, 53
1, 100689, Note_on_c, 0, 45, 0
1, 100692, Note_on_c, 0, 53, 0
1, 100695, Note_on_c, 1, 41, 0
1, 100696, Note_on_c, 1, 29, 0
1, 100706, End_track
0, 0, End_of_file