0, 0, Header, 0, 1, 120
1, 0, Start_track
1, 0, Tempo, 909091
1, 0, Note_on_c, 0, 70, 76
1, 0, Note_on_c, 1, 58, 47
1, 0, Note_on_c, 1, 62, 62
1, 112, Note_on_c, 1, 62, 0
1, 114, Note_on_c, 1, 58, 0
1, 120, Note_on_c, 0, 69, 85
1, 120, Note_on_c, 1, 63, 62
1, 120, Note_on_c, 1, 60, 54
1, 121, Note_on_c, 0, 70, 0
1, 237, Note_on_c, 0, 69, 0
1, 240, Note_on_c, 0, 70, 80
1, 240, Note_on_c, 1, 62, 62
1, 240, Note_on_c, 1, 65, 70
1, 245, Note_on_c, 1, 60, 0
1, 245, Note_on_c, 1, 63, 0
1, 355, Note_on_c, 1, 62, 0
1, 356, Note_on_c, 1, 65, 0
1, 360, Note_on_c, 0, 64, 85
1, 360, Note_on_c, 1, 55, 52
1, 360, Note_on_c, 1, 61, 62
1, 363, Note_on_c, 0, 70, 0
1, 479, Note_on_c, 1, 61, 0
1, 480, Note_on_c, 1, 60, 54
1, 593, Note_on_c, 0, 64, 0
1, 600, Note_on_c, 0, 72, 93
1, 600, Note_on_c, 1, 58, 66
1, 604, Note_on_c, 1, 60, 0
1, 717, Note_on_c, 1, 55, 0
1, 720, Note_on_c, 1, 53, 52
1, 726, Note_on_c, 0, 72, 0
1, 728, Note_on_c, 0, 71, 89
1, 740, Note_on_c, 0, 72, 76
1, 744, Note_on_c, 0, 71, 0
1, 751, Note_on_c, 0, 74, 76
1, 759, Note_on_c, 0, 72, 0
1, 767, Note_on_c, 0, 72, 80
1, 770, Note_on_c, 0, 74, 0
1, 838, Note_on_c, 1, 57, 66
1, 840, Note_on_c, 1, 58, 0
1, 901, Note_on_c, 0, 72, 0
1, 902, Note_on_c, 0, 70, 85
1, 930, Note_on_c, 0, 69, 85
1, 934, Note_on_c, 0, 70, 0
1, 960, Note_on_c, 0, 69, 0
1, 960, Note_on_c, 0, 67, 76
1, 990, Note_on_c, 0, 65, 85
1, 992, Note_on_c, 0, 67, 0
1, 1019, Note_on_c, 0, 63, 72
1, 1019, Note_on_c, 1, 57, 0
1, 1019, Note_on_c, 1, 58, 66
1, 1019, Note_on_c, 1, 55, 52
1, 1020, Note_on_c, 0, 65, 0
1, 1024, Note_on_c, 1, 53, 0
1, 1048, Note_on_c, 0, 67, 76
1, 1051, Note_on_c, 0, 63, 0
1, 1078, Note_on_c, 1, 58, 0
1, 1078, Note_on_c, 1, 57, 50
1, 1079, Note_on_c, 1, 55, 0
1, 1079, Note_on_c, 1, 60, 62
1, 1082, Note_on_c, 0, 67, 0
1, 1082, Note_on_c, 0, 65, 80
1, 1136, Note_on_c, 0, 65, 0
1, 1145, Note_on_c, 0, 65, 89
1, 1159, Note_on_c, 0, 63, 59
1, 1162, Note_on_c, 0, 65, 0
1, 1173, Note_on_c, 0, 65, 85
1, 1174, Note_on_c, 0, 63, 0
1, 1186, Note_on_c, 0, 63, 64
1, 1189, Note_on_c, 0, 65, 0
1, 1201, Note_on_c, 0, 63, 0
1, 1202, Note_on_c, 0, 62, 89
1, 1202, Note_on_c, 1, 58, 66
1, 1204, Note_on_c, 1, 57, 0
1, 1205, Note_on_c, 1, 60, 0
1, 1305, Note_on_c, 0, 62, 0
1, 1322, Note_on_c, 0, 74, 89
1, 1322, Note_on_c, 0, 65, 89
1, 1322, Note_on_c, 1, 58, 0
1, 1438, Note_on_c, 1, 36, 62
1, 1439, Note_on_c, 1, 48, 66
1, 1499, Note_on_c, 0, 74, 0
1, 1500, Note_on_c, 0, 65, 0
1, 1501, Note_on_c, 0, 62, 89
1, 1501, Note_on_c, 0, 71, 93
1, 1562, Note_on_c, 0, 63, 76
1, 1562, Note_on_c, 0, 72, 93
1, 1566, Note_on_c, 0, 62, 0
1, 1567, Note_on_c, 0, 71, 0
1, 1621, Note_on_c, 0, 72, 0
1, 1622, Note_on_c, 0, 74, 89
1, 1622, Note_on_c, 0, 65, 80
1, 1625, Note_on_c, 0, 63, 0
1, 1682, Note_on_c, 0, 75, 80
1, 1682, Note_on_c, 0, 67, 76
1, 1683, Note_on_c, 0, 65, 0
1, 1684, Note_on_c, 0, 74, 0
1, 1743, Note_on_c, 0, 72, 80
1, 1747, Note_on_c, 0, 75, 0
1, 1754, Note_on_c, 0, 67, 0
1, 1801, Note_on_c, 1, 60, 54
1, 1801, Note_on_c, 1, 63, 52
1, 1802, Note_on_c, 0, 70, 89
1, 1804, Note_on_c, 0, 72, 0
1, 1807, Note_on_c, 1, 48, 0
1, 1808, Note_on_c, 1, 36, 0
1, 1861, Note_on_c, 0, 70, 0
1, 1862, Note_on_c, 0, 69, 98
1, 1920, Note_on_c, 1, 60, 0
1, 1920, Note_on_c, 1, 63, 0
1, 1922, Note_on_c, 0, 72, 80
1, 1922, Note_on_c, 1, 62, 79
1, 1922, Note_on_c, 1, 65, 70
1, 1923, Note_on_c, 0, 69, 0
1, 1980, Note_on_c, 0, 72, 0
1, 1982, Note_on_c, 0, 70, 80
1, 2035, Note_on_c, 0, 70, 0
1, 2041, Note_on_c, 0, 74, 76
1, 2041, Note_on_c, 0, 77, 93
1, 2041, Note_on_c, 1, 62, 0
1, 2042, Note_on_c, 1, 65, 0
1, 2159, Note_on_c, 1, 51, 50
1, 2159, Note_on_c, 1, 39, 58
1, 2218, Note_on_c, 0, 74, 0
1, 2222, Note_on_c, 0, 77, 0
1, 2222, Note_on_c, 0, 74, 76
1, 2222, Note_on_c, 0, 71, 72
1, 2280, Note_on_c, 0, 74, 0
1, 2281, Note_on_c, 0, 75, 89
1, 2281, Note_on_c, 0, 72, 85
1, 2282, Note_on_c, 0, 71, 0
1, 2338, Note_on_c, 0, 75, 0
1, 2341, Note_on_c, 0, 72, 0
1, 2341, Note_on_c, 0, 77, 85
1, 2341, Note_on_c, 0, 74, 80
1, 2397, Note_on_c, 0, 74, 0
1, 2397, Note_on_c, 0, 77, 0
1, 2401, Note_on_c, 0, 79, 80
1, 2401, Note_on_c, 0, 75, 62
1, 2458, Note_on_c, 0, 75, 0
1, 2461, Note_on_c, 0, 79, 0
1, 2461, Note_on_c, 0, 75, 68
1, 2461, Note_on_c, 0, 72, 80
1, 2518, Note_on_c, 0, 72, 0
1, 2519, Note_on_c, 1, 51, 0
1, 2520, Note_on_c, 1, 63, 52
1, 2520, Note_on_c, 1, 53, 52
1, 2521, Note_on_c, 0, 69, 76
1, 2521, Note_on_c, 0, 74, 93
1, 2521, Note_on_c, 1, 39, 0
1, 2523, Note_on_c, 0, 75, 0
1, 2581, Note_on_c, 0, 74, 0
1, 2582, Note_on_c, 0, 72, 89
1, 2641, Note_on_c, 1, 58, 62
1, 2641, Note_on_c, 1, 62, 66
1, 2642, Note_on_c, 0, 75, 93
1, 2642, Note_on_c, 0, 70, 89
1, 2642, Note_on_c, 1, 53, 0
1, 2642, Note_on_c, 1, 63, 0
1, 2643, Note_on_c, 0, 72, 0
1, 2643, Note_on_c, 0, 69, 0
1, 2702, Note_on_c, 0, 74, 93
1, 2703, Note_on_c, 0, 75, 0
1, 2757, Note_on_c, 0, 74, 0
1, 2762, Note_on_c, 0, 70, 0
1, 2762, Note_on_c, 0, 72, 89
1, 2762, Note_on_c, 0, 79, 93
1, 2762, Note_on_c, 1, 45, 54
1, 2762, Note_on_c, 1, 57, 52
1, 2764, Note_on_c, 1, 58, 0
1, 2764, Note_on_c, 1, 62, 0
1, 2820, Note_on_c, 0, 79, 0
1, 2821, Note_on_c, 0, 77, 93
1, 2878, Note_on_c, 0, 72, 0
1, 2878, Note_on_c, 1, 45, 0
1, 2879, Note_on_c, 0, 77, 0
1, 2881, Note_on_c, 0, 74, 76
1, 2881, Note_on_c, 0, 84, 93
1, 2881, Note_on_c, 1, 43, 58
1, 2881, Note_on_c, 1, 55, 75
1, 2882, Note_on_c, 1, 57, 0
1, 2941, Note_on_c, 0, 82, 93
1, 2943, Note_on_c, 0, 84, 0
1, 3000, Note_on_c, 0, 82, 0
1, 3000, Note_on_c, 0, 74, 0
1, 3001, Note_on_c, 0, 81, 89
1, 3001, Note_on_c, 0, 70, 80
1, 3061, Note_on_c, 0, 79, 89
1, 3066, Note_on_c, 0, 81, 0
1, 3103, Note_on_c, 1, 55, 0
1, 3104, Note_on_c, 1, 43, 0
1, 3121, Note_on_c, 0, 77, 76
1, 3121, Note_on_c, 1, 55, 66
1, 3121, Note_on_c, 1, 60, 70
1, 3122, Note_on_c, 0, 79, 0
1, 3180, Note_on_c, 0, 77, 0
1, 3181, Note_on_c, 0, 76, 85
1, 3236, Note_on_c, 0, 76, 0
1, 3236, Note_on_c, 0, 70, 0
1, 3239, Note_on_c, 1, 55, 0
1, 3240, Note_on_c, 0, 70, 72
1, 3240, Note_on_c, 0, 79, 85
1, 3240, Note_on_c, 1, 60, 0
1, 3240, Note_on_c, 1, 64, 66
1, 3240, Note_on_c, 1, 53, 49
1, 3359, Note_on_c, 0, 70, 0
1, 3360, Note_on_c, 1, 65, 58
1, 3361, Note_on_c, 0, 79, 0
1, 3361, Note_on_c, 1, 64, 0
1, 3362, Note_on_c, 0, 69, 80
1, 3363, Note_on_c, 0, 77, 85
1, 3478, Note_on_c, 1, 53, 0
1, 3480, Note_on_c, 1, 65, 0
1, 3500, Note_on_c, 0, 77, 0
1, 3500, Note_on_c, 0, 69, 0
1, 3509, Note_on_c, 0, 79, 80
1, 3541, Note_on_c, 0, 75, 80
1, 3543, Note_on_c, 0, 79, 0
1, 3571, Note_on_c, 0, 72, 76
1, 3572, Note_on_c, 0, 75, 0
1, 3600, Note_on_c, 0, 70, 76
1, 3600, Note_on_c, 1, 58, 52
1, 3600, Note_on_c, 1, 62, 70
1, 3605, Note_on_c, 0, 72, 0
1, 3715, Note_on_c, 1, 58, 0
1, 3718, Note_on_c, 0, 70, 0
1, 3718, Note_on_c, 1, 62, 0
1, 3720, Note_on_c, 0, 69, 80
1, 3720, Note_on_c, 1, 63, 49
1, 3720, Note_on_c, 1, 60, 52
1, 3836, Note_on_c, 1, 63, 0
1, 3837, Note_on_c, 1, 60, 0
1, 3840, Note_on_c, 0, 70, 72
1, 3840, Note_on_c, 1, 62, 75
1, 3840, Note_on_c, 1, 65, 62
1, 3844, Note_on_c, 0, 69, 0
1, 3957, Note_on_c, 0, 70, 0
1, 3960, Note_on_c, 0, 64, 93
1, 3960, Note_on_c, 1, 61, 70
1, 3960, Note_on_c, 1, 55, 52
1, 3961, Note_on_c, 1, 65, 0
1, 3963, Note_on_c, 1, 62, 0
1, 4080, Note_on_c, 1, 60, 58
1, 4083, Note_on_c, 1, 61, 0
1, 4199, Note_on_c, 1, 60, 0
1, 4200, Note_on_c, 1, 58, 62
1, 4201, Note_on_c, 0, 72, 68
1, 4203, Note_on_c, 0, 64, 0
1, 4314, Note_on_c, 1, 55, 0
1, 4318, Note_on_c, 1, 53, 62
1, 4321, Note_on_c, 0, 72, 0
1, 4326, Note_on_c, 0, 71, 80
1, 4339, Note_on_c, 0, 72, 76
1, 4344, Note_on_c, 0, 71, 0
1, 4351, Note_on_c, 0, 74, 72
1, 4353, Note_on_c, 0, 72, 0
1, 4363, Note_on_c, 0, 72, 72
1, 4367, Note_on_c, 0, 74, 0
1, 4441, Note_on_c, 1, 57, 70
1, 4447, Note_on_c, 1, 58, 0
1, 4501, Note_on_c, 0, 70, 76
1, 4504, Note_on_c, 0, 72, 0
1, 4531, Note_on_c, 0, 69, 80
1, 4534, Note_on_c, 0, 70, 0
1, 4561, Note_on_c, 0, 69, 0
1, 4561, Note_on_c, 0, 67, 76
1, 4591, Note_on_c, 0, 67, 0
1, 4591, Note_on_c, 0, 65, 72
1, 4618, Note_on_c, 1, 57, 0
1, 4619, Note_on_c, 0, 63, 57
1, 4619, Note_on_c, 1, 58, 70
1, 4619, Note_on_c, 1, 55, 50
1, 4621, Note_on_c, 0, 65, 0
1, 4626, Note_on_c, 1, 53, 0
1, 4649, Note_on_c, 0, 67, 62
1, 4652, Note_on_c, 0, 63, 0
1, 4678, Note_on_c, 1, 58, 0
1, 4679, Note_on_c, 0, 67, 0
1, 4679, Note_on_c, 0, 65, 76
1, 4679, Note_on_c, 1, 60, 58
1, 4680, Note_on_c, 1, 55, 0
1, 4680, Note_on_c, 1, 57, 62
1, 4732, Note_on_c, 0, 65, 0
1, 4741, Note_on_c, 0, 65, 68
1, 4754, Note_on_c, 0, 63, 60
1, 4755, Note_on_c, 0, 65, 0
1, 4768, Note_on_c, 0, 65, 76
1, 4770, Note_on_c, 0, 63, 0
1, 4782, Note_on_c, 0, 63, 64
1, 4785, Note_on_c, 0, 65, 0
1, 4798, Note_on_c, 0, 63, 0
1, 4799, Note_on_c, 0, 62, 85
1, 4800, Note_on_c, 1, 58, 62
1, 4802, Note_on_c, 1, 57, 0
1, 4803, Note_on_c, 1, 60, 0
1, 4910, Note_on_c, 0, 62, 0
1, 4919, Note_on_c, 1, 58, 0
1, 4922, Note_on_c, 0, 74, 93
1, 4922, Note_on_c, 0, 65, 89
1, 5039, Note_on_c, 1, 36, 58
1, 5039, Note_on_c, 1, 48, 54
1, 5093, Note_on_c, 0, 74, 0
1, 5096, Note_on_c, 0, 65, 0
1, 5099, Note_on_c, 0, 71, 93
1, 5099, Note_on_c, 0, 62, 80
1, 5161, Note_on_c, 0, 63, 64
1, 5161, Note_on_c, 0, 72, 89
1, 5162, Note_on_c, 0, 62, 0
1, 5164, Note_on_c, 0, 71, 0
1, 5221, Note_on_c, 0, 74, 85
1, 5221, Note_on_c, 0, 65, 76
1, 5223, Note_on_c, 0, 72, 0
1, 5225, Note_on_c, 0, 63, 0
1, 5280, Note_on_c, 0, 74, 0
1, 5280, Note_on_c, 0, 65, 0
1, 5281, Note_on_c, 0, 75, 72
1, 5281, Note_on_c, 0, 67, 64
1, 5341, Note_on_c, 0, 72, 80
1, 5345, Note_on_c, 0, 75, 0
1, 5346, Note_on_c, 0, 67, 0
1, 5401, Note_on_c, 1, 63, 52
1, 5401, Note_on_c, 1, 60, 52
1, 5402, Note_on_c, 0, 70, 72
1, 5404, Note_on_c, 0, 72, 0
1, 5404, Note_on_c, 1, 36, 0
1, 5405, Note_on_c, 1, 48, 0
1, 5461, Note_on_c, 0, 69, 93
1, 5463, Note_on_c, 0, 70, 0
1, 5521, Note_on_c, 1, 65, 66
1, 5521, Note_on_c, 1, 62, 70
1, 5522, Note_on_c, 0, 72, 80
1, 5522, Note_on_c, 1, 63, 0
1, 5522, Note_on_c, 1, 60, 0
1, 5524, Note_on_c, 0, 69, 0
1, 5575, Note_on_c, 0, 72, 0
1, 5581, Note_on_c, 0, 70, 76
1, 5639, Note_on_c, 1, 62, 0
1, 5640, Note_on_c, 0, 70, 0
1, 5641, Note_on_c, 0, 74, 80
1, 5641, Note_on_c, 0, 77, 93
1, 5641, Note_on_c, 1, 65, 0
1, 5759, Note_on_c, 1, 51, 52
1, 5759, Note_on_c, 1, 39, 62
1, 5813, Note_on_c, 0, 74, 0
1, 5819, Note_on_c, 0, 77, 0
1, 5821, Note_on_c, 0, 71, 76
1, 5821, Note_on_c, 0, 74, 89
1, 5881, Note_on_c, 0, 74, 0
1, 5881, Note_on_c, 0, 75, 76
1, 5881, Note_on_c, 0, 72, 85
1, 5884, Note_on_c, 0, 71, 0
1, 5940, Note_on_c, 0, 72, 0
1, 5940, Note_on_c, 0, 75, 0
1, 5941, Note_on_c, 0, 77, 80
1, 5941, Note_on_c, 0, 74, 62
1, 5998, Note_on_c, 0, 74, 0
1, 6001, Note_on_c, 0, 77, 0
1, 6001, Note_on_c, 0, 75, 64
1, 6001, Note_on_c, 0, 79, 76
1, 6059, Note_on_c, 0, 75, 0
1, 6060, Note_on_c, 0, 79, 0
1, 6061, Note_on_c, 0, 75, 60
1, 6061, Note_on_c, 0, 72, 72
1, 6114, Note_on_c, 0, 72, 0
1, 6120, Note_on_c, 0, 75, 0
1, 6120, Note_on_c, 0, 74, 89
1, 6120, Note_on_c, 0, 69, 76
1, 6120, Note_on_c, 1, 63, 66
1, 6120, Note_on_c, 1, 53, 54
1, 6122, Note_on_c, 1, 39, 0
1, 6122, Note_on_c, 1, 51, 0
1, 6180, Note_on_c, 0, 72, 85
1, 6182, Note_on_c, 0, 74, 0
1, 6238, Note_on_c, 0, 72, 0
1, 6239, Note_on_c, 0, 69, 0
1, 6240, Note_on_c, 0, 75, 93
1, 6240, Note_on_c, 0, 70, 85
1, 6240, Note_on_c, 1, 53, 0
1, 6240, Note_on_c, 1, 62, 79
1, 6240, Note_on_c, 1, 58, 70
1, 6241, Note_on_c, 1, 63, 0
1, 6300, Note_on_c, 0, 74, 89
1, 6302, Note_on_c, 0, 75, 0
1, 6357, Note_on_c, 0, 74, 0
1, 6360, Note_on_c, 0, 70, 0
1, 6360, Note_on_c, 0, 72, 89
1, 6360, Note_on_c, 0, 79, 93
1, 6360, Note_on_c, 1, 60, 66
1, 6360, Note_on_c, 1, 57, 70
1, 6365, Note_on_c, 1, 58, 0
1, 6365, Note_on_c, 1, 62, 0
1, 6420, Note_on_c, 0, 77, 80
1, 6421, Note_on_c, 0, 79, 0
1, 6471, Note_on_c, 1, 57, 0
1, 6472, Note_on_c, 1, 60, 0
1, 6480, Note_on_c, 0, 77, 0
1, 6480, Note_on_c, 0, 72, 0
1, 6480, Note_on_c, 0, 84, 98
1, 6480, Note_on_c, 1, 60, 88
1, 6480, Note_on_c, 1, 64, 75
1, 6480, Note_on_c, 1, 58, 66
1, 6480, Note_on_c, 1, 55, 70
1, 6541, Note_on_c, 0, 84, 0
1, 6542, Note_on_c, 0, 82, 89
1, 6602, Note_on_c, 0, 81, 89
1, 6605, Note_on_c, 0, 82, 0
1, 6631, Note_on_c, 0, 81, 0
1, 6631, Note_on_c, 0, 79, 72
1, 6661, Note_on_c, 0, 77, 76
1, 6664, Note_on_c, 0, 79, 0
1, 6691, Note_on_c, 0, 76, 72
1, 6692, Note_on_c, 0, 77, 0
1, 6721, Note_on_c, 0, 74, 80
1, 6723, Note_on_c, 0, 76, 0
1, 6780, Note_on_c, 0, 74, 0
1, 6781, Note_on_c, 0, 72, 98
1, 6830, Note_on_c, 1, 60, 0
1, 6831, Note_on_c, 1, 55, 0
1, 6832, Note_on_c, 1, 58, 0
1, 6834, Note_on_c, 1, 64, 0
1, 6841, Note_on_c, 1, 66, 70
1, 6841, Note_on_c, 1, 62, 83
1, 6841, Note_on_c, 1, 60, 66
1, 6841, Note_on_c, 1, 57, 83
1, 6842, Note_on_c, 0, 86, 107
1, 6846, Note_on_c, 0, 72, 0
1, 6902, Note_on_c, 0, 84, 93
1, 6904, Note_on_c, 0, 86, 0
1, 6962, Note_on_c, 0, 82, 85
1, 6963, Note_on_c, 0, 84, 0
1, 6991, Note_on_c, 0, 81, 85
1, 6992, Note_on_c, 0, 82, 0
1, 7021, Note_on_c, 0, 81, 0
1, 7021, Note_on_c, 0, 79, 80
1, 7051, Note_on_c, 0, 78, 89
1, 7053, Note_on_c, 0, 79, 0
1, 7081, Note_on_c, 0, 75, 89
1, 7083, Note_on_c, 0, 78, 0
1, 7141, Note_on_c, 0, 75, 0
1, 7142, Note_on_c, 0, 74, 89
1, 7180, Note_on_c, 1, 62, 0
1, 7183, Note_on_c, 1, 57, 0
1, 7183, Note_on_c, 1, 60, 0
1, 7185, Note_on_c, 1, 66, 0
1, 7200, Note_on_c, 0, 74, 0
1, 7201, Note_on_c, 0, 87, 93
1, 7201, Note_on_c, 1, 58, 79
1, 7201, Note_on_c, 1, 67, 92
1, 7201, Note_on_c, 1, 62, 88
1, 7261, Note_on_c, 0, 86, 93
1, 7262, Note_on_c, 0, 87, 0
1, 7322, Note_on_c, 0, 84, 93
1, 7323, Note_on_c, 0, 86, 0
1, 7351, Note_on_c, 0, 82, 76
1, 7353, Note_on_c, 0, 84, 0
1, 7381, Note_on_c, 0, 81, 89
1, 7383, Note_on_c, 0, 82, 0
1, 7411, Note_on_c, 0, 79, 89
1, 7413, Note_on_c, 0, 81, 0
1, 7441, Note_on_c, 0, 78, 76
1, 7443, Note_on_c, 0, 79, 0
1, 7470, Note_on_c, 0, 78, 0
1, 7471, Note_on_c, 0, 79, 98
1, 7501, Note_on_c, 0, 81, 98
1, 7504, Note_on_c, 0, 79, 0
1, 7531, Note_on_c, 0, 81, 0
1, 7531, Note_on_c, 0, 82, 89
1, 7558, Note_on_c, 1, 62, 0
1, 7559, Note_on_c, 1, 58, 0
1, 7559, Note_on_c, 1, 60, 50
1, 7560, Note_on_c, 0, 77, 80
1, 7560, Note_on_c, 1, 67, 0
1, 7560, Note_on_c, 1, 69, 62
1, 7563, Note_on_c, 0, 82, 0
1, 7650, Note_on_c, 0, 77, 0
1, 7650, Note_on_c, 0, 79, 89
1, 7665, Note_on_c, 0, 79, 0
1, 7665, Note_on_c, 0, 77, 76
1, 7680, Note_on_c, 0, 77, 0
1, 7680, Note_on_c, 0, 76, 76
1, 7680, Note_on_c, 1, 69, 0
1, 7680, Note_on_c, 1, 67, 55
1, 7787, Note_on_c, 1, 67, 0
1, 7793, Note_on_c, 0, 76, 0
1, 7798, Note_on_c, 1, 60, 0
1, 7916, Note_on_c, 1, 53, 50
1, 8039, Note_on_c, 1, 53, 0
1, 8039, Note_on_c, 1, 52, 62
1, 8161, Note_on_c, 1, 53, 66
1, 8164, Note_on_c, 1, 52, 0
1, 8272, Note_on_c, 1, 53, 0
1, 8281, Note_on_c, 1, 48, 62
1, 8309, Note_on_c, 0, 83, 64
1, 8338, Note_on_c, 0, 83, 0
1, 8339, Note_on_c, 0, 84, 89
1, 8366, Note_on_c, 0, 84, 0
1, 8371, Note_on_c, 0, 80, 47
1, 8399, Note_on_c, 0, 80, 0
1, 8400, Note_on_c, 0, 81, 89
1, 8428, Note_on_c, 0, 81, 0
1, 8430, Note_on_c, 0, 76, 48
1, 8458, Note_on_c, 0, 76, 0
1, 8460, Note_on_c, 0, 77, 89
1, 8491, Note_on_c, 0, 77, 0
1, 8491, Note_on_c, 0, 71, 62
1, 8517, Note_on_c, 0, 71, 0
1, 8520, Note_on_c, 0, 72, 85
1, 8550, Note_on_c, 0, 72, 0
1, 8550, Note_on_c, 0, 68, 52
1, 8578, Note_on_c, 0, 68, 0
1, 8579, Note_on_c, 0, 69, 80
1, 8608, Note_on_c, 0, 69, 0
1, 8609, Note_on_c, 0, 65, 76
1, 8635, Note_on_c, 1, 48, 0
1, 8639, Note_on_c, 1, 55, 52
1, 8700, Note_on_c, 0, 65, 0
1, 8700, Note_on_c, 0, 64, 57
1, 8759, Note_on_c, 1, 54, 49
1, 8763, Note_on_c, 1, 55, 0
1, 8821, Note_on_c, 0, 64, 0
1, 8821, Note_on_c, 0, 63, 62
1, 8881, Note_on_c, 1, 55, 58
1, 8886, Note_on_c, 1, 54, 0
1, 8937, Note_on_c, 0, 63, 0
1, 8939, Note_on_c, 0, 64, 62
1, 8991, Note_on_c, 1, 55, 0
1, 8999, Note_on_c, 1, 48, 66
1, 9026, Note_on_c, 0, 64, 0
1, 9029, Note_on_c, 0, 85, 89
1, 9059, Note_on_c, 0, 85, 0
1, 9059, Note_on_c, 0, 86, 85
1, 9091, Note_on_c, 0, 86, 0
1, 9091, Note_on_c, 0, 81, 49
1, 9120, Note_on_c, 0, 82, 80
1, 9121, Note_on_c, 0, 81, 0
1, 9149, Note_on_c, 0, 82, 0
1, 9150, Note_on_c, 0, 78, 44
1, 9178, Note_on_c, 0, 78, 0
1, 9180, Note_on_c, 0, 79, 80
1, 9210, Note_on_c, 0, 79, 0
1, 9211, Note_on_c, 0, 75, 22
1, 9238, Note_on_c, 0, 75, 0
1, 9240, Note_on_c, 0, 76, 80
1, 9269, Note_on_c, 0, 69, 53
1, 9270, Note_on_c, 0, 76, 0
1, 9298, Note_on_c, 0, 69, 0
1, 9299, Note_on_c, 0, 70, 85
1, 9329, Note_on_c, 0, 70, 0
1, 9329, Note_on_c, 0, 67, 64
1, 9359, Note_on_c, 1, 48, 0
1, 9359, Note_on_c, 1, 57, 70
1, 9421, Note_on_c, 0, 66, 62
1, 9425, Note_on_c, 0, 67, 0
1, 9481, Note_on_c, 1, 56, 54
1, 9484, Note_on_c, 1, 57, 0
1, 9540, Note_on_c, 0, 66, 0
1, 9541, Note_on_c, 0, 65, 56
1, 9601, Note_on_c, 1, 57, 54
1, 9605, Note_on_c, 1, 56, 0
1, 9661, Note_on_c, 0, 66, 62
1, 9664, Note_on_c, 0, 65, 0
1, 9705, Note_on_c, 1, 57, 0
1, 9715, Note_on_c, 0, 66, 0
1, 9721, Note_on_c, 1, 51, 66
1, 9721, Note_on_c, 1, 54, 75
1, 9721, Note_on_c, 1, 57, 88
1, 9721, Note_on_c, 1, 48, 75
1, 9751, Note_on_c, 0, 84, 64
1, 9780, Note_on_c, 0, 87, 89
1, 9781, Note_on_c, 0, 84, 0
1, 9810, Note_on_c, 0, 87, 0
1, 9810, Note_on_c, 0, 81, 52
1, 9840, Note_on_c, 0, 81, 0
1, 9841, Note_on_c, 0, 84, 85
1, 9868, Note_on_c, 0, 84, 0
1, 9871, Note_on_c, 0, 78, 34
1, 9900, Note_on_c, 0, 78, 0
1, 9901, Note_on_c, 0, 81, 85
1, 9931, Note_on_c, 0, 81, 0
1, 9931, Note_on_c, 0, 75, 34
1, 9959, Note_on_c, 0, 75, 0
1, 9961, Note_on_c, 0, 77, 80
1, 9991, Note_on_c, 0, 77, 0
1, 9991, Note_on_c, 0, 72, 41
1, 10020, Note_on_c, 0, 72, 0
1, 10021, Note_on_c, 0, 75, 76
1, 10052, Note_on_c, 0, 75, 0
1, 10052, Note_on_c, 0, 69, 52
1, 10058, Note_on_c, 1, 48, 0
1, 10059, Note_on_c, 1, 57, 0
1, 10060, Note_on_c, 1, 54, 0
1, 10060, Note_on_c, 1, 51, 0
1, 10073, Note_on_c, 0, 69, 0
1, 10081, Note_on_c, 1, 51, 54
1, 10081, Note_on_c, 1, 54, 75
1, 10081, Note_on_c, 1, 58, 79
1, 10081, Note_on_c, 1, 46, 88
1, 10112, Note_on_c, 0, 82, 60
1, 10142, Note_on_c, 0, 82, 0
1, 10142, Note_on_c, 0, 87, 89
1, 10172, Note_on_c, 0, 78, 48
1, 10174, Note_on_c, 0, 87, 0
1, 10199, Note_on_c, 0, 78, 0
1, 10202, Note_on_c, 0, 82, 89
1, 10230, Note_on_c, 0, 82, 0
1, 10231, Note_on_c, 0, 75, 50
1, 10261, Note_on_c, 0, 75, 0
1, 10261, Note_on_c, 0, 78, 80
1, 10291, Note_on_c, 0, 78, 0
1, 10292, Note_on_c, 0, 70, 38
1, 10319, Note_on_c, 0, 70, 0
1, 10321, Note_on_c, 0, 75, 80
1, 10350, Note_on_c, 0, 75, 0
1, 10351, Note_on_c, 0, 66, 51
1, 10380, Note_on_c, 0, 66, 0
1, 10381, Note_on_c, 0, 70, 85
1, 10411, Note_on_c, 0, 70, 0
1, 10411, Note_on_c, 0, 63, 55
1, 10411, Note_on_c, 1, 58, 0
1, 10412, Note_on_c, 1, 51, 0
1, 10412, Note_on_c, 1, 54, 0
1, 10414, Note_on_c, 1, 46, 0
1, 10440, Note_on_c, 0, 63, 0
1, 10441, Note_on_c, 1, 53, 83
1, 10441, Note_on_c, 1, 50, 88
1, 10441, Note_on_c, 1, 47, 58
1, 10441, Note_on_c, 1, 44, 70
1, 10471, Note_on_c, 0, 86, 64
1, 10500, Note_on_c, 0, 86, 0
1, 10501, Note_on_c, 0, 89, 93
1, 10531, Note_on_c, 0, 89, 0
1, 10531, Note_on_c, 0, 83, 60
1, 10560, Note_on_c, 0, 83, 0
1, 10561, Note_on_c, 0, 86, 93
1, 10591, Note_on_c, 0, 86, 0
1, 10591, Note_on_c, 0, 77, 51
1, 10620, Note_on_c, 0, 77, 0
1, 10621, Note_on_c, 0, 83, 93
1, 10651, Note_on_c, 0, 83, 0
1, 10652, Note_on_c, 0, 74, 45
1, 10680, Note_on_c, 0, 74, 0
1, 10682, Note_on_c, 0, 77, 89
1, 10711, Note_on_c, 0, 77, 0
1, 10712, Note_on_c, 0, 71, 45
1, 10740, Note_on_c, 0, 71, 0
1, 10741, Note_on_c, 0, 74, 76
1, 10769, Note_on_c, 1, 50, 0
1, 10770, Note_on_c, 1, 53, 0
1, 10770, Note_on_c, 1, 44, 0
1, 10771, Note_on_c, 0, 65, 53
1, 10771, Note_on_c, 1, 47, 0
1, 10772, Note_on_c, 0, 74, 0
1, 10794, Note_on_c, 0, 65, 0
1, 10801, Note_on_c, 1, 45, 75
1, 10829, Note_on_c, 1, 45, 0
1, 10829, Note_on_c, 1, 48, 50
1, 10859, Note_on_c, 1, 48, 0
1, 10859, Note_on_c, 1, 53, 58
1, 10889, Note_on_c, 1, 57, 58
1, 10890, Note_on_c, 1, 53, 0
1, 10917, Note_on_c, 1, 57, 0
1, 10922, Note_on_c, 0, 60, 47
1, 10951, Note_on_c, 0, 60, 0
1, 10952, Note_on_c, 0, 65, 62
1, 10980, Note_on_c, 0, 65, 0
1, 10981, Note_on_c, 0, 69, 64
1, 11010, Note_on_c, 0, 69, 0
1, 11011, Note_on_c, 0, 72, 62
1, 11038, Note_on_c, 0, 72, 0
1, 11040, Note_on_c, 1, 46, 52
1, 11071, Note_on_c, 0, 62, 64
1, 11081, Note_on_c, 1, 46, 0
1, 11098, Note_on_c, 0, 62, 0
1, 11101, Note_on_c, 0, 65, 57
1, 11131, Note_on_c, 0, 65, 0
1, 11131, Note_on_c, 0, 74, 57
1, 11156, Note_on_c, 0, 74, 0
1, 11160, Note_on_c, 1, 36, 58
1, 11189, Note_on_c, 1, 36, 0
1, 11189, Note_on_c, 1, 41, 52
1, 11218, Note_on_c, 1, 41, 0
1, 11219, Note_on_c, 1, 45, 62
1, 11249, Note_on_c, 1, 48, 58
1, 11250, Note_on_c, 1, 45, 0
1, 11277, Note_on_c, 1, 48, 0
1, 11282, Note_on_c, 0, 57, 64
1, 11310, Note_on_c, 0, 57, 0
1, 11311, Note_on_c, 0, 60, 60
1, 11337, Note_on_c, 0, 60, 0
1, 11341, Note_on_c, 0, 65, 64
1, 11370, Note_on_c, 0, 65, 0
1, 11371, Note_on_c, 0, 69, 64
1, 11396, Note_on_c, 0, 69, 0
1, 11401, Note_on_c, 1, 36, 50
1, 11431, Note_on_c, 0, 55, 59
1, 11459, Note_on_c, 1, 36, 0
1, 11460, Note_on_c, 0, 55, 0
1, 11461, Note_on_c, 0, 58, 55
1, 11491, Note_on_c, 0, 58, 0
1, 11491, Note_on_c, 0, 64, 47
1, 11521, Note_on_c, 0, 64, 0
1, 11521, Note_on_c, 1, 57, 47
1, 11521, Note_on_c, 1, 53, 47
1, 11522, Note_on_c, 0, 65, 68
1, 11581, Note_on_c, 1, 60, 47
1, 11585, Note_on_c, 1, 57, 0
1, 11638, Note_on_c, 0, 65, 0
1, 11639, Note_on_c, 1, 60, 0
1, 11642, Note_on_c, 1, 57, 49
1, 11702, Note_on_c, 1, 60, 50
1, 11703, Note_on_c, 1, 57, 0
1, 11757, Note_on_c, 0, 77, 72
1, 11759, Note_on_c, 1, 60, 0
1, 11759, Note_on_c, 1, 58, 46
1, 11760, Note_on_c, 1, 55, 46
1, 11779, Note_on_c, 0, 77, 0
1, 11780, Note_on_c, 0, 76, 68
1, 11799, Note_on_c, 0, 76, 0
1, 11799, Note_on_c, 0, 79, 64
1, 11818, Note_on_c, 0, 79, 0
1, 11818, Note_on_c, 1, 58, 0
1, 11819, Note_on_c, 0, 77, 72
1, 11819, Note_on_c, 1, 60, 54
1, 11820, Note_on_c, 1, 55, 0
1, 11839, Note_on_c, 0, 77, 0
1, 11839, Note_on_c, 0, 76, 76
1, 11859, Note_on_c, 0, 76, 0
1, 11859, Note_on_c, 0, 74, 62
1, 11870, Note_on_c, 1, 53, 0
1, 11873, Note_on_c, 1, 60, 0
1, 11879, Note_on_c, 0, 74, 0
1, 11879, Note_on_c, 1, 53, 47
1, 11879, Note_on_c, 1, 57, 70
1, 11880, Note_on_c, 0, 72, 76
1, 11939, Note_on_c, 1, 57, 0
1, 11939, Note_on_c, 1, 60, 62
1, 11999, Note_on_c, 1, 57, 58
1, 12000, Note_on_c, 1, 60, 0
1, 12018, Note_on_c, 0, 72, 0
1, 12019, Note_on_c, 0, 71, 80
1, 12039, Note_on_c, 0, 74, 68
1, 12040, Note_on_c, 0, 71, 0
1, 12060, Note_on_c, 0, 74, 0
1, 12060, Note_on_c, 0, 72, 72
1, 12060, Note_on_c, 1, 57, 0
1, 12060, Note_on_c, 1, 60, 66
1, 12081, Note_on_c, 0, 70, 68
1, 12082, Note_on_c, 0, 72, 0
1, 12100, Note_on_c, 0, 69, 72
1, 12102, Note_on_c, 0, 70, 0
1, 12120, Note_on_c, 1, 60, 0
1, 12120, Note_on_c, 1, 58, 58
1, 12121, Note_on_c, 0, 69, 0
1, 12121, Note_on_c, 0, 67, 68
1, 12141, Note_on_c, 0, 66, 72
1, 12142, Note_on_c, 0, 67, 0
1, 12161, Note_on_c, 0, 66, 0
1, 12161, Note_on_c, 0, 69, 80
1, 12177, Note_on_c, 1, 58, 0
1, 12179, Note_on_c, 1, 60, 58
1, 12181, Note_on_c, 0, 67, 76
1, 12182, Note_on_c, 0, 69, 0
1, 12201, Note_on_c, 0, 65, 80
1, 12202, Note_on_c, 0, 67, 0
1, 12220, Note_on_c, 0, 65, 0
1, 12221, Note_on_c, 0, 64, 72
1, 12233, Note_on_c, 1, 53, 0
1, 12238, Note_on_c, 1, 60, 0
1, 12241, Note_on_c, 0, 64, 0
1, 12241, Note_on_c, 0, 70, 85
1, 12241, Note_on_c, 1, 53, 50
1, 12241, Note_on_c, 1, 64, 70
1, 12241, Note_on_c, 1, 55, 50
1, 12301, Note_on_c, 1, 60, 58
1, 12302, Note_on_c, 1, 55, 0
1, 12302, Note_on_c, 1, 64, 0
1, 12353, Note_on_c, 0, 70, 0
1, 12358, Note_on_c, 0, 69, 72
1, 12358, Note_on_c, 1, 60, 0
1, 12360, Note_on_c, 1, 57, 62
1, 12360, Note_on_c, 1, 65, 52
1, 12414, Note_on_c, 1, 65, 0
1, 12416, Note_on_c, 1, 57, 0
1, 12419, Note_on_c, 1, 60, 66
1, 12424, Note_on_c, 0, 69, 0
1, 12479, Note_on_c, 1, 60, 0
1, 12479, Note_on_c, 1, 58, 54
1, 12479, Note_on_c, 1, 55, 50
1, 12481, Note_on_c, 0, 77, 89
1, 12501, Note_on_c, 0, 77, 0
1, 12501, Note_on_c, 0, 76, 80
1, 12519, Note_on_c, 0, 76, 0
1, 12520, Note_on_c, 0, 79, 72
1, 12539, Note_on_c, 1, 60, 75
1, 12541, Note_on_c, 0, 77, 76
1, 12541, Note_on_c, 1, 55, 0
1, 12542, Note_on_c, 0, 79, 0
1, 12543, Note_on_c, 1, 58, 0
1, 12561, Note_on_c, 0, 76, 76
1, 12563, Note_on_c, 0, 77, 0
1, 12580, Note_on_c, 0, 76, 0
1, 12581, Note_on_c, 0, 74, 60
1, 12593, Note_on_c, 1, 53, 0
1, 12599, Note_on_c, 1, 60, 0
1, 12600, Note_on_c, 1, 57, 66
1, 12601, Note_on_c, 0, 74, 0
1, 12601, Note_on_c, 0, 72, 80
1, 12601, Note_on_c, 1, 53, 52
1, 12661, Note_on_c, 1, 60, 62
1, 12663, Note_on_c, 1, 57, 0
1, 12720, Note_on_c, 1, 60, 0
1, 12721, Note_on_c, 1, 57, 66
1, 12739, Note_on_c, 0, 72, 0
1, 12739, Note_on_c, 0, 71, 85
1, 12759, Note_on_c, 0, 74, 76
1, 12761, Note_on_c, 0, 71, 0
1, 12779, Note_on_c, 0, 72, 76
1, 12779, Note_on_c, 1, 57, 0
1, 12779, Note_on_c, 1, 60, 58
1, 12780, Note_on_c, 0, 74, 0
1, 12800, Note_on_c, 0, 70, 68
1, 12802, Note_on_c, 0, 72, 0
1, 12820, Note_on_c, 0, 69, 76
1, 12824, Note_on_c, 0, 70, 0
1, 12839, Note_on_c, 1, 58, 52
1, 12840, Note_on_c, 0, 69, 0
1, 12840, Note_on_c, 0, 67, 76
1, 12842, Note_on_c, 1, 60, 0
1, 12860, Note_on_c, 0, 66, 72
1, 12862, Note_on_c, 0, 67, 0
1, 12879, Note_on_c, 0, 66, 0
1, 12879, Note_on_c, 0, 69, 72
1, 12894, Note_on_c, 1, 58, 0
1, 12899, Note_on_c, 1, 60, 52
1, 12900, Note_on_c, 0, 67, 80
1, 12901, Note_on_c, 0, 69, 0
1, 12921, Note_on_c, 0, 65, 76
1, 12922, Note_on_c, 0, 67, 0
1, 12940, Note_on_c, 0, 65, 0
1, 12941, Note_on_c, 0, 64, 76
1, 12954, Note_on_c, 1, 53, 0
1, 12956, Note_on_c, 1, 60, 0
1, 12960, Note_on_c, 0, 64, 0
1, 12961, Note_on_c, 0, 74, 89
1, 12961, Note_on_c, 1, 64, 62
1, 12961, Note_on_c, 1, 58, 66
1, 12961, Note_on_c, 1, 53, 54
1, 13079, Note_on_c, 0, 74, 0
1, 13079, Note_on_c, 0, 72, 76
1, 13081, Note_on_c, 1, 65, 58
1, 13081, Note_on_c, 1, 57, 43
1, 13082, Note_on_c, 1, 58, 0
1, 13084, Note_on_c, 1, 64, 0
1, 13099, Note_on_c, 0, 71, 68
1, 13100, Note_on_c, 0, 72, 0
1, 13118, Note_on_c, 0, 71, 0
1, 13119, Note_on_c, 0, 74, 64
1, 13134, Note_on_c, 1, 57, 0
1, 13135, Note_on_c, 1, 53, 0
1, 13135, Note_on_c, 1, 65, 0
1, 13139, Note_on_c, 0, 72, 76
1, 13141, Note_on_c, 0, 74, 0
1, 13159, Note_on_c, 0, 70, 64
1, 13162, Note_on_c, 0, 72, 0
1, 13179, Note_on_c, 0, 70, 0
1, 13179, Note_on_c, 0, 69, 59
1, 13201, Note_on_c, 0, 67, 89
1, 13202, Note_on_c, 0, 69, 0
1, 13221, Note_on_c, 0, 66, 59
1, 13222, Note_on_c, 0, 67, 0
1, 13241, Note_on_c, 0, 69, 64
1, 13242, Note_on_c, 0, 66, 0
1, 13261, Note_on_c, 0, 67, 76
1, 13263, Note_on_c, 0, 69, 0
1, 13281, Note_on_c, 0, 65, 62
1, 13283, Note_on_c, 0, 67, 0
1, 13300, Note_on_c, 0, 65, 0
1, 13301, Note_on_c, 0, 64, 76
1, 13321, Note_on_c, 0, 64, 0
1, 13321, Note_on_c, 0, 73, 89
1, 13321, Note_on_c, 1, 64, 75
1, 13321, Note_on_c, 1, 53, 58
1, 13321, Note_on_c, 1, 58, 70
1, 13438, Note_on_c, 0, 73, 0
1, 13439, Note_on_c, 0, 72, 60
1, 13440, Note_on_c, 1, 58, 0
1, 13441, Note_on_c, 1, 56, 52
1, 13441, Note_on_c, 1, 65, 70
1, 13444, Note_on_c, 1, 64, 0
1, 13459, Note_on_c, 0, 71, 60
1, 13460, Note_on_c, 0, 72, 0
1, 13479, Note_on_c, 0, 73, 76
1, 13481, Note_on_c, 0, 71, 0
1, 13499, Note_on_c, 0, 72, 76
1, 13499, Note_on_c, 1, 53, 0
1, 13499, Note_on_c, 1, 56, 0
1, 13499, Note_on_c, 1, 65, 0
1, 13501, Note_on_c, 0, 73, 0
1, 13520, Note_on_c, 0, 70, 62
1, 13524, Note_on_c, 0, 72, 0
1, 13540, Note_on_c, 0, 70, 0
1, 13540, Note_on_c, 0, 68, 55
1, 13560, Note_on_c, 0, 68, 0
1, 13561, Note_on_c, 0, 67, 76
1, 13581, Note_on_c, 0, 65, 62
1, 13582, Note_on_c, 0, 67, 0
1, 13601, Note_on_c, 0, 68, 76
1, 13603, Note_on_c, 0, 65, 0
1, 13621, Note_on_c, 0, 66, 72
1, 13624, Note_on_c, 0, 68, 0
1, 13640, Note_on_c, 0, 66, 0
1, 13641, Note_on_c, 0, 65, 60
1, 13659, Note_on_c, 0, 65, 0
1, 13661, Note_on_c, 0, 63, 64
1, 13676, Note_on_c, 0, 63, 0
1, 13681, Note_on_c, 1, 58, 75
1, 13681, Note_on_c, 1, 61, 79
1, 13681, Note_on_c, 1, 55, 79
1, 13683, Note_on_c, 0, 77, 93
1, 13796, Note_on_c, 0, 75, 62
1, 13798, Note_on_c, 0, 77, 0
1, 13854, Note_on_c, 0, 75, 0
1, 13862, Note_on_c, 0, 75, 60
1, 13884, Note_on_c, 0, 75, 0
1, 13922, Note_on_c, 0, 75, 72
1, 13941, Note_on_c, 0, 75, 0
1, 13983, Note_on_c, 0, 75, 72
1, 14002, Note_on_c, 0, 75, 0
1, 14018, Note_on_c, 1, 55, 0
1, 14019, Note_on_c, 1, 58, 0
1, 14022, Note_on_c, 1, 61, 0
1, 14040, Note_on_c, 0, 75, 93
1, 14040, Note_on_c, 1, 60, 52
1, 14040, Note_on_c, 1, 56, 54
1, 14187, Note_on_c, 0, 75, 0
1, 14187, Note_on_c, 0, 77, 72
1, 14201, Note_on_c, 0, 75, 60
1, 14204, Note_on_c, 0, 77, 0
1, 14216, Note_on_c, 0, 73, 68
1, 14218, Note_on_c, 0, 75, 0
1, 14230, Note_on_c, 0, 72, 62
1, 14231, Note_on_c, 0, 73, 0
1, 14245, Note_on_c, 0, 70, 51
1, 14246, Note_on_c, 0, 72, 0
1, 14259, Note_on_c, 0, 68, 62
1, 14261, Note_on_c, 0, 70, 0
1, 14276, Note_on_c, 0, 68, 0
1, 14276, Note_on_c, 0, 66, 60
1, 14276, Note_on_c, 1, 60, 0
1, 14279, Note_on_c, 1, 56, 0
1, 14279, Note_on_c, 1, 58, 50
1, 14279, Note_on_c, 1, 61, 62
1, 14293, Note_on_c, 0, 66, 0
1, 14313, Note_on_c, 0, 68, 76
1, 14322, Note_on_c, 0, 68, 0
1, 14322, Note_on_c, 0, 66, 60
1, 14331, Note_on_c, 0, 66, 0
1, 14331, Note_on_c, 0, 65, 57
1, 14338, Note_on_c, 0, 66, 57
1, 14339, Note_on_c, 0, 65, 0
1, 14341, Note_on_c, 0, 66, 0
1, 14345, Note_on_c, 0, 70, 53
1, 14374, Note_on_c, 0, 70, 0
1, 14375, Note_on_c, 0, 73, 76
1, 14401, Note_on_c, 1, 61, 0
1, 14401, Note_on_c, 1, 58, 0
1, 14402, Note_on_c, 1, 48, 62
1, 14402, Note_on_c, 1, 56, 66
1, 14403, Note_on_c, 0, 65, 76
1, 14404, Note_on_c, 0, 73, 0
1, 14460, Note_on_c, 1, 56, 0
1, 14461, Note_on_c, 1, 57, 70
1, 14521, Note_on_c, 1, 57, 0
1, 14521, Note_on_c, 1, 58, 62
1, 14579, Note_on_c, 1, 58, 0
1, 14579, Note_on_c, 1, 59, 70
1, 14580, Note_on_c, 0, 67, 76
1, 14583, Note_on_c, 0, 65, 0
1, 14595, Note_on_c, 0, 67, 0
1, 14595, Note_on_c, 0, 65, 64
1, 14606, Note_on_c, 0, 65, 0
1, 14610, Note_on_c, 0, 64, 64
1, 14625, Note_on_c, 0, 65, 76
1, 14627, Note_on_c, 0, 64, 0
1, 14635, Note_on_c, 1, 59, 0
1, 14639, Note_on_c, 1, 60, 70
1, 14640, Note_on_c, 0, 65, 0
1, 14640, Note_on_c, 0, 68, 76
1, 14698, Note_on_c, 1, 58, 66
1, 14699, Note_on_c, 1, 60, 0
1, 14700, Note_on_c, 0, 67, 76
1, 14711, Note_on_c, 0, 68, 0
1, 14755, Note_on_c, 1, 48, 0
1, 14759, Note_on_c, 1, 53, 52
1, 14759, Note_on_c, 1, 57, 75
1, 14762, Note_on_c, 0, 67, 0
1, 14762, Note_on_c, 0, 65, 89
1, 14764, Note_on_c, 1, 58, 0
1, 14773, Note_on_c, 0, 81, 93
1, 14775, Note_on_c, 0, 65, 0
1, 14822, Note_on_c, 1, 60, 62
1, 14827, Note_on_c, 1, 57, 0
1, 14880, Note_on_c, 1, 60, 0
1, 14881, Note_on_c, 1, 57, 66
1, 14939, Note_on_c, 1, 57, 0
1, 14941, Note_on_c, 1, 60, 66
1, 15001, Note_on_c, 1, 60, 0
1, 15001, Note_on_c, 1, 55, 66
1, 15001, Note_on_c, 1, 46, 46
1, 15002, Note_on_c, 1, 53, 0
1, 15015, Note_on_c, 0, 79, 80
1, 15018, Note_on_c, 0, 81, 0
1, 15029, Note_on_c, 0, 82, 72
1, 15030, Note_on_c, 0, 79, 0
1, 15044, Note_on_c, 0, 81, 80
1, 15047, Note_on_c, 0, 82, 0
1, 15058, Note_on_c, 0, 81, 0
1, 15058, Note_on_c, 0, 79, 76
1, 15060, Note_on_c, 1, 55, 0
1, 15060, Note_on_c, 1, 58, 66
1, 15073, Note_on_c, 0, 79, 0
1, 15073, Note_on_c, 0, 77, 64
1, 15087, Note_on_c, 0, 77, 0
1, 15088, Note_on_c, 0, 76, 62
1, 15101, Note_on_c, 0, 76, 0
1, 15102, Note_on_c, 0, 74, 60
1, 15117, Note_on_c, 0, 74, 0
1, 15117, Note_on_c, 0, 72, 76
1, 15119, Note_on_c, 1, 58, 0
1, 15119, Note_on_c, 1, 46, 0
1, 15119, Note_on_c, 1, 48, 50
1, 15119, Note_on_c, 1, 53, 50
1, 15178, Note_on_c, 1, 53, 0
1, 15179, Note_on_c, 1, 57, 54
1, 15240, Note_on_c, 1, 53, 52
1, 15245, Note_on_c, 1, 57, 0
1, 15270, Note_on_c, 0, 72, 0
1, 15270, Note_on_c, 0, 77, 76
1, 15299, Note_on_c, 1, 53, 0
1, 15299, Note_on_c, 1, 57, 66
1, 15301, Note_on_c, 0, 69, 64
1, 15302, Note_on_c, 0, 77, 0
1, 15331, Note_on_c, 0, 69, 0
1, 15332, Note_on_c, 0, 74, 85
1, 15358, Note_on_c, 1, 57, 0
1, 15359, Note_on_c, 1, 48, 0
1, 15360, Note_on_c, 1, 48, 52
1, 15360, Note_on_c, 1, 52, 58
1, 15361, Note_on_c, 0, 72, 85
1, 15363, Note_on_c, 0, 74, 0
1, 15392, Note_on_c, 0, 72, 0
1, 15392, Note_on_c, 0, 70, 62
1, 15419, Note_on_c, 1, 52, 0
1, 15419, Note_on_c, 1, 55, 62
1, 15421, Note_on_c, 0, 70, 0
1, 15421, Note_on_c, 0, 67, 72
1, 15451, Note_on_c, 0, 67, 0
1, 15452, Note_on_c, 0, 64, 68
1, 15478, Note_on_c, 1, 55, 0
1, 15479, Note_on_c, 1, 48, 0
1, 15479, Note_on_c, 1, 53, 54
1, 15479, Note_on_c, 1, 57, 52
1, 15481, Note_on_c, 0, 64, 0
1, 15481, Note_on_c, 0, 81, 113
1, 15538, Note_on_c, 1, 57, 0
1, 15539, Note_on_c, 1, 60, 66
1, 15599, Note_on_c, 1, 55, 70
1, 15600, Note_on_c, 1, 53, 0
1, 15600, Note_on_c, 1, 49, 70
1, 15601, Note_on_c, 1, 60, 0
1, 15659, Note_on_c, 1, 57, 79
1, 15660, Note_on_c, 1, 55, 0
1, 15720, Note_on_c, 1, 57, 0
1, 15720, Note_on_c, 1, 49, 0
1, 15720, Note_on_c, 1, 53, 54
1, 15720, Note_on_c, 1, 50, 70
1, 15735, Note_on_c, 0, 79, 76
1, 15736, Note_on_c, 0, 81, 0
1, 15751, Note_on_c, 0, 82, 76
1, 15753, Note_on_c, 0, 79, 0
1, 15766, Note_on_c, 0, 81, 72
1, 15771, Note_on_c, 0, 82, 0
1, 15780, Note_on_c, 1, 53, 0
1, 15780, Note_on_c, 1, 56, 66
1, 15780, Note_on_c, 1, 47, 62
1, 15781, Note_on_c, 0, 79, 76
1, 15781, Note_on_c, 1, 50, 0
1, 15785, Note_on_c, 0, 81, 0
1, 15797, Note_on_c, 0, 79, 0
1, 15797, Note_on_c, 0, 77, 57
1, 15813, Note_on_c, 0, 77, 0
1, 15813, Note_on_c, 0, 76, 76
1, 15828, Note_on_c, 0, 76, 0
1, 15828, Note_on_c, 0, 74, 59
1, 15839, Note_on_c, 1, 56, 0
1, 15839, Note_on_c, 1, 57, 42
1, 15840, Note_on_c, 1, 47, 0
1, 15840, Note_on_c, 1, 48, 62
1, 15841, Note_on_c, 0, 72, 76
1, 15843, Note_on_c, 0, 74, 0
1, 15899, Note_on_c, 1, 60, 52
1, 15900, Note_on_c, 1, 57, 0
1, 15957, Note_on_c, 1, 60, 0
1, 15959, Note_on_c, 1, 53, 47
1, 15975, Note_on_c, 0, 72, 0
1, 15975, Note_on_c, 0, 73, 72
1, 15990, Note_on_c, 0, 76, 68
1, 15992, Note_on_c, 0, 73, 0
1, 16006, Note_on_c, 0, 74, 72
1, 16010, Note_on_c, 0, 76, 0
1, 16019, Note_on_c, 1, 53, 0
1, 16019, Note_on_c, 1, 57, 66
1, 16020, Note_on_c, 0, 72, 76
1, 16022, Note_on_c, 0, 74, 0
1, 16036, Note_on_c, 0, 72, 0
1, 16036, Note_on_c, 0, 70, 62
1, 16051, Note_on_c, 0, 69, 76
1, 16052, Note_on_c, 0, 70, 0
1, 16066, Note_on_c, 0, 69, 0
1, 16066, Note_on_c, 0, 67, 64
1, 16078, Note_on_c, 1, 48, 0
1, 16080, Note_on_c, 0, 67, 0
1, 16081, Note_on_c, 0, 65, 64
1, 16081, Note_on_c, 1, 55, 66
1, 16081, Note_on_c, 1, 48, 66
1, 16086, Note_on_c, 1, 57, 0
1, 16096, Note_on_c, 0, 64, 62
1, 16098, Note_on_c, 0, 65, 0
1, 16111, Note_on_c, 0, 64, 0
1, 16111, Note_on_c, 0, 70, 64
1, 16126, Note_on_c, 0, 69, 76
1, 16128, Note_on_c, 0, 70, 0
1, 16141, Note_on_c, 0, 72, 85
1, 16141, Note_on_c, 1, 58, 62
1, 16142, Note_on_c, 0, 69, 0
1, 16143, Note_on_c, 1, 55, 0
1, 16156, Note_on_c, 0, 70, 64
1, 16158, Note_on_c, 0, 72, 0
1, 16172, Note_on_c, 0, 67, 76
1, 16175, Note_on_c, 0, 70, 0
1, 16187, Note_on_c, 0, 67, 0
1, 16187, Note_on_c, 0, 64, 62
1, 16196, Note_on_c, 1, 58, 0
1, 16200, Note_on_c, 0, 60, 57
1, 16200, Note_on_c, 0, 64, 57
1, 16200, Note_on_c, 0, 67, 76
1, 16200, Note_on_c, 1, 53, 58
1, 16200, Note_on_c, 1, 58, 62
1, 16203, Note_on_c, 1, 48, 0
1, 16205, Note_on_c, 0, 64, 0
1, 16319, Note_on_c, 0, 67, 0
1, 16319, Note_on_c, 0, 64, 0
1, 16319, Note_on_c, 1, 58, 0
1, 16320, Note_on_c, 0, 65, 57
1, 16320, Note_on_c, 1, 57, 58
1, 16439, Note_on_c, 0, 65, 0
1, 16439, Note_on_c, 1, 57, 0
1, 16440, Note_on_c, 0, 60, 0
1, 16440, Note_on_c, 1, 53, 0
1, 16561, Note_on_c, 1, 53, 83
1, 16561, Note_on_c, 1, 41, 83
1, 16679, Note_on_c, 1, 41, 0
1, 16680, Note_on_c, 1, 53, 0
1, 16680, Note_on_c, 1, 52, 88
1, 16680, Note_on_c, 1, 40, 83
1, 16798, Note_on_c, 1, 40, 0
1, 16798, Note_on_c, 1, 52, 0
1, 16799, Note_on_c, 1, 53, 88
1, 16799, Note_on_c, 1, 41, 83
1, 16801, Note_on_c, 0, 81, 98
1, 16919, Note_on_c, 1, 49, 88
1, 16920, Note_on_c, 1, 41, 0
1, 16920, Note_on_c, 1, 37, 75
1, 16922, Note_on_c, 1, 53, 0
1, 16939, Note_on_c, 0, 79, 80
1, 16940, Note_on_c, 0, 81, 0
1, 16959, Note_on_c, 0, 79, 0
1, 16959, Note_on_c, 0, 82, 80
1, 16979, Note_on_c, 0, 81, 98
1, 16982, Note_on_c, 0, 82, 0
1, 16999, Note_on_c, 0, 79, 76
1, 17002, Note_on_c, 0, 81, 0
1, 17019, Note_on_c, 0, 79, 0
1, 17019, Note_on_c, 0, 77, 72
1, 17039, Note_on_c, 0, 77, 0
1, 17039, Note_on_c, 0, 76, 89
1, 17059, Note_on_c, 0, 74, 76
1, 17060, Note_on_c, 0, 76, 0
1, 17079, Note_on_c, 0, 74, 0
1, 17079, Note_on_c, 0, 77, 76
1, 17099, Note_on_c, 0, 76, 93
1, 17102, Note_on_c, 0, 77, 0
1, 17119, Note_on_c, 0, 76, 0
1, 17119, Note_on_c, 0, 74, 72
1, 17139, Note_on_c, 0, 74, 0
1, 17139, Note_on_c, 0, 73, 59
1, 17159, Note_on_c, 0, 73, 0
1, 17160, Note_on_c, 0, 70, 89
1, 17179, Note_on_c, 0, 70, 0
1, 17180, Note_on_c, 0, 69, 76
1, 17199, Note_on_c, 0, 69, 0
1, 17199, Note_on_c, 0, 72, 72
1, 17219, Note_on_c, 0, 70, 80
1, 17221, Note_on_c, 0, 72, 0
1, 17239, Note_on_c, 0, 69, 76
1, 17241, Note_on_c, 0, 70, 0
1, 17258, Note_on_c, 1, 37, 0
1, 17258, Note_on_c, 1, 49, 0
1, 17259, Note_on_c, 0, 69, 0
1, 17259, Note_on_c, 0, 67, 72
1, 17279, Note_on_c, 1, 62, 97
1, 17280, Note_on_c, 0, 67, 0
1, 17280, Note_on_c, 0, 65, 93
1, 17280, Note_on_c, 1, 50, 92
1, 17400, Note_on_c, 1, 50, 0
1, 17400, Note_on_c, 1, 49, 79
1, 17400, Note_on_c, 1, 61, 88
1, 17402, Note_on_c, 0, 65, 0
1, 17402, Note_on_c, 1, 62, 0
1, 17518, Note_on_c, 1, 61, 0
1, 17518, Note_on_c, 1, 49, 0
1, 17519, Note_on_c, 0, 77, 93
1, 17519, Note_on_c, 1, 62, 83
1, 17519, Note_on_c, 1, 50, 70
1, 17639, Note_on_c, 1, 50, 0
1, 17639, Note_on_c, 1, 45, 83
1, 17639, Note_on_c, 1, 57, 83
1, 17640, Note_on_c, 1, 62, 0
1, 17659, Note_on_c, 0, 76, 89
1, 17660, Note_on_c, 0, 77, 0
1, 17679, Note_on_c, 0, 79, 93
1, 17681, Note_on_c, 0, 76, 0
1, 17699, Note_on_c, 0, 77, 89
1, 17702, Note_on_c, 0, 79, 0
1, 17719, Note_on_c, 0, 75, 80
1, 17721, Note_on_c, 0, 77, 0
1, 17739, Note_on_c, 0, 74, 76
1, 17742, Note_on_c, 0, 75, 0
1, 17760, Note_on_c, 0, 74, 0
1, 17760, Note_on_c, 0, 72, 93
1, 17780, Note_on_c, 0, 71, 85
1, 17782, Note_on_c, 0, 72, 0
1, 17799, Note_on_c, 0, 74, 76
1, 17800, Note_on_c, 0, 71, 0
1, 17820, Note_on_c, 0, 72, 89
1, 17822, Note_on_c, 0, 74, 0
1, 17839, Note_on_c, 0, 70, 76
1, 17841, Note_on_c, 0, 72, 0
1, 17859, Note_on_c, 0, 70, 0
1, 17860, Note_on_c, 0, 69, 64
1, 17880, Note_on_c, 0, 69, 0
1, 17880, Note_on_c, 0, 67, 89
1, 17899, Note_on_c, 0, 66, 62
1, 17901, Note_on_c, 0, 67, 0
1, 17919, Note_on_c, 0, 69, 80
1, 17920, Note_on_c, 0, 66, 0
1, 17940, Note_on_c, 0, 69, 0
1, 17940, Note_on_c, 0, 67, 85
1, 17959, Note_on_c, 0, 67, 0
1, 17959, Note_on_c, 0, 65, 85
1, 17979, Note_on_c, 0, 65, 0
1, 17979, Note_on_c, 0, 63, 80
1, 17999, Note_on_c, 0, 63, 0
1, 17999, Note_on_c, 1, 58, 83
1, 17999, Note_on_c, 1, 46, 88
1, 18000, Note_on_c, 0, 74, 93
1, 18000, Note_on_c, 1, 57, 0
1, 18000, Note_on_c, 1, 45, 0
1, 18001, Note_on_c, 0, 62, 89
1, 18121, Note_on_c, 0, 61, 85
1, 18121, Note_on_c, 0, 73, 93
1, 18122, Note_on_c, 0, 62, 0
1, 18122, Note_on_c, 0, 74, 0
1, 18122, Note_on_c, 1, 58, 0
1, 18122, Note_on_c, 1, 46, 0
1, 18238, Note_on_c, 0, 73, 0
1, 18239, Note_on_c, 0, 61, 0
1, 18239, Note_on_c, 0, 74, 98
1, 18239, Note_on_c, 0, 62, 89
1, 18239, Note_on_c, 1, 53, 83
1, 18360, Note_on_c, 0, 62, 0
1, 18360, Note_on_c, 0, 69, 93
1, 18360, Note_on_c, 0, 57, 76
1, 18362, Note_on_c, 0, 74, 0
1, 18379, Note_on_c, 1, 52, 79
1, 18381, Note_on_c, 1, 53, 0
1, 18399, Note_on_c, 1, 52, 0
1, 18399, Note_on_c, 1, 55, 75
1, 18419, Note_on_c, 1, 53, 83
1, 18421, Note_on_c, 1, 55, 0
1, 18439, Note_on_c, 1, 51, 62
1, 18441, Note_on_c, 1, 53, 0
1, 18459, Note_on_c, 1, 50, 79
1, 18461, Note_on_c, 1, 51, 0
1, 18480, Note_on_c, 1, 48, 79
1, 18481, Note_on_c, 1, 50, 0
1, 18499, Note_on_c, 1, 47, 75
1, 18501, Note_on_c, 1, 48, 0
1, 18519, Note_on_c, 1, 47, 0
1, 18519, Note_on_c, 1, 50, 79
1, 18539, Note_on_c, 1, 48, 75
1, 18540, Note_on_c, 1, 50, 0
1, 18559, Note_on_c, 1, 46, 70
1, 18561, Note_on_c, 1, 48, 0
1, 18579, Note_on_c, 1, 45, 75
1, 18582, Note_on_c, 1, 46, 0
1, 18599, Note_on_c, 1, 45, 0
1, 18599, Note_on_c, 1, 43, 83
1, 18619, Note_on_c, 1, 42, 62
1, 18620, Note_on_c, 1, 43, 0
1, 18639, Note_on_c, 1, 42, 0
1, 18639, Note_on_c, 1, 45, 79
1, 18659, Note_on_c, 1, 43, 70
1, 18661, Note_on_c, 1, 45, 0
1, 18679, Note_on_c, 1, 43, 0
1, 18679, Note_on_c, 1, 41, 79
1, 18699, Note_on_c, 1, 39, 66
1, 18700, Note_on_c, 1, 41, 0
1, 18701, Note_on_c, 0, 57, 0
1, 18702, Note_on_c, 0, 69, 0
1, 18719, Note_on_c, 1, 39, 0
1, 18719, Note_on_c, 1, 38, 79
1, 18720, Note_on_c, 0, 70, 93
1, 18720, Note_on_c, 0, 82, 102
1, 18839, Note_on_c, 0, 82, 0
1, 18839, Note_on_c, 0, 81, 93
1, 18839, Note_on_c, 0, 69, 76
1, 18840, Note_on_c, 0, 70, 0
1, 18841, Note_on_c, 1, 38, 0
1, 18958, Note_on_c, 0, 69, 0
1, 18959, Note_on_c, 0, 81, 0
1, 18959, Note_on_c, 0, 82, 93
1, 18959, Note_on_c, 0, 70, 89
1, 18959, Note_on_c, 1, 62, 92
1, 19078, Note_on_c, 0, 70, 0
1, 19079, Note_on_c, 0, 82, 0
1, 19079, Note_on_c, 0, 78, 80
1, 19079, Note_on_c, 0, 69, 72
1, 19098, Note_on_c, 1, 62, 0
1, 19099, Note_on_c, 1, 61, 79
1, 19119, Note_on_c, 1, 61, 0
1, 19119, Note_on_c, 1, 63, 62
1, 19139, Note_on_c, 1, 62, 83
1, 19141, Note_on_c, 1, 63, 0
1, 19159, Note_on_c, 1, 60, 75
1, 19160, Note_on_c, 1, 62, 0
1, 19179, Note_on_c, 1, 58, 70
1, 19180, Note_on_c, 1, 60, 0
1, 19199, Note_on_c, 1, 57, 83
1, 19200, Note_on_c, 1, 58, 0
1, 19219, Note_on_c, 1, 56, 83
1, 19221, Note_on_c, 1, 57, 0
1, 19239, Note_on_c, 1, 58, 66
1, 19240, Note_on_c, 1, 56, 0
1, 19259, Note_on_c, 1, 57, 88
1, 19260, Note_on_c, 1, 58, 0
1, 19279, Note_on_c, 1, 57, 0
1, 19279, Note_on_c, 1, 55, 75
1, 19299, Note_on_c, 1, 54, 58
1, 19300, Note_on_c, 1, 55, 0
1, 19319, Note_on_c, 1, 54, 0
1, 19319, Note_on_c, 1, 51, 83
1, 19339, Note_on_c, 1, 50, 83
1, 19340, Note_on_c, 1, 51, 0
1, 19359, Note_on_c, 1, 53, 79
1, 19361, Note_on_c, 1, 50, 0
1, 19379, Note_on_c, 1, 51, 79
1, 19381, Note_on_c, 1, 53, 0
1, 19399, Note_on_c, 1, 50, 83
1, 19401, Note_on_c, 1, 51, 0
1, 19419, Note_on_c, 1, 50, 0
1, 19419, Note_on_c, 1, 48, 79
1, 19437, Note_on_c, 0, 69, 0
1, 19437, Note_on_c, 0, 78, 0
1, 19439, Note_on_c, 1, 46, 92
1, 19440, Note_on_c, 0, 79, 98
1, 19441, Note_on_c, 1, 48, 0
1, 19459, Note_on_c, 0, 78, 64
1, 19460, Note_on_c, 0, 79, 0
1, 19479, Note_on_c, 0, 78, 0
1, 19479, Note_on_c, 0, 81, 89
1, 19499, Note_on_c, 0, 81, 0
1, 19499, Note_on_c, 0, 79, 89
1, 19519, Note_on_c, 0, 77, 80
1, 19520, Note_on_c, 0, 79, 0
1, 19539, Note_on_c, 0, 75, 80
1, 19541, Note_on_c, 0, 77, 0
1, 19559, Note_on_c, 0, 74, 89
1, 19561, Note_on_c, 0, 75, 0
1, 19579, Note_on_c, 0, 73, 80
1, 19581, Note_on_c, 0, 74, 0
1, 19599, Note_on_c, 0, 73, 0
1, 19599, Note_on_c, 0, 75, 80
1, 19619, Note_on_c, 0, 74, 98
1, 19620, Note_on_c, 0, 75, 0
1, 19639, Note_on_c, 0, 74, 0
1, 19639, Note_on_c, 0, 72, 80
1, 19659, Note_on_c, 0, 72, 0
1, 19659, Note_on_c, 0, 70, 64
1, 19679, Note_on_c, 0, 70, 0
1, 19679, Note_on_c, 0, 68, 93
1, 19679, Note_on_c, 1, 47, 88
1, 19680, Note_on_c, 1, 46, 0
1, 19699, Note_on_c, 0, 68, 0
1, 19699, Note_on_c, 0, 67, 76
1, 19719, Note_on_c, 0, 70, 80
1, 19720, Note_on_c, 0, 67, 0
1, 19739, Note_on_c, 0, 70, 0
1, 19739, Note_on_c, 0, 68, 89
1, 19759, Note_on_c, 0, 68, 0
1, 19759, Note_on_c, 0, 67, 76
1, 19779, Note_on_c, 0, 65, 89
1, 19780, Note_on_c, 0, 67, 0
1, 19798, Note_on_c, 1, 47, 0
1, 19799, Note_on_c, 0, 65, 0
1, 19799, Note_on_c, 0, 63, 76
1, 19799, Note_on_c, 1, 48, 83
1, 19819, Note_on_c, 0, 62, 89
1, 19820, Note_on_c, 0, 63, 0
1, 19839, Note_on_c, 0, 62, 0
1, 19839, Note_on_c, 0, 65, 85
1, 19860, Note_on_c, 0, 65, 0
1, 19860, Note_on_c, 0, 63, 76
1, 19880, Note_on_c, 0, 63, 0
1, 19880, Note_on_c, 0, 62, 89
1, 19897, Note_on_c, 0, 60, 85
1, 19900, Note_on_c, 0, 62, 0
1, 19917, Note_on_c, 0, 60, 0
1, 19917, Note_on_c, 1, 49, 92
1, 19918, Note_on_c, 0, 60, 85
1, 19920, Note_on_c, 1, 48, 0
1, 19929, Note_on_c, 0, 58, 62
1, 19931, Note_on_c, 0, 60, 0
1, 19939, Note_on_c, 0, 60, 76
1, 19940, Note_on_c, 0, 58, 0
1, 19949, Note_on_c, 0, 60, 0
1, 19949, Note_on_c, 0, 58, 59
1, 19959, Note_on_c, 0, 58, 0
1, 19959, Note_on_c, 0, 60, 64
1, 19969, Note_on_c, 0, 58, 72
1, 19970, Note_on_c, 0, 60, 0
1, 19980, Note_on_c, 0, 58, 0
1, 19980, Note_on_c, 0, 60, 80
1, 19991, Note_on_c, 0, 58, 68
1, 19992, Note_on_c, 0, 60, 0
1, 20001, Note_on_c, 0, 58, 0
1, 20001, Note_on_c, 0, 60, 72
1, 20010, Note_on_c, 0, 58, 64
1, 20011, Note_on_c, 0, 60, 0
1, 20021, Note_on_c, 0, 58, 0
1, 20021, Note_on_c, 0, 60, 72
1, 20031, Note_on_c, 0, 60, 0
1, 20031, Note_on_c, 0, 58, 72
1, 20041, Note_on_c, 0, 57, 93
1, 20042, Note_on_c, 0, 58, 0
1, 20078, Note_on_c, 0, 57, 0
1, 20101, Note_on_c, 0, 55, 98
1, 20121, Note_on_c, 0, 55, 0
1, 20161, Note_on_c, 0, 53, 93
1, 20161, Note_on_c, 1, 62, 97
1, 20162, Note_on_c, 1, 49, 0
1, 20181, Note_on_c, 1, 62, 0
1, 20181, Note_on_c, 1, 61, 70
1, 20201, Note_on_c, 1, 61, 0
1, 20201, Note_on_c, 1, 64, 75
1, 20221, Note_on_c, 1, 64, 0
1, 20221, Note_on_c, 1, 62, 88
1, 20240, Note_on_c, 1, 62, 0
1, 20241, Note_on_c, 1, 60, 75
1, 20261, Note_on_c, 1, 60, 0
1, 20261, Note_on_c, 1, 58, 70
1, 20276, Note_on_c, 0, 53, 0
1, 20281, Note_on_c, 0, 65, 98
1, 20281, Note_on_c, 0, 77, 113
1, 20281, Note_on_c, 1, 58, 0
1, 20281, Note_on_c, 1, 57, 83
1, 20301, Note_on_c, 1, 57, 0
1, 20301, Note_on_c, 1, 56, 66
1, 20321, Note_on_c, 1, 56, 0
1, 20321, Note_on_c, 1, 58, 66
1, 20341, Note_on_c, 1, 58, 0
1, 20341, Note_on_c, 1, 57, 88
1, 20361, Note_on_c, 1, 57, 0
1, 20361, Note_on_c, 1, 55, 79
1, 20380, Note_on_c, 1, 55, 0
1, 20381, Note_on_c, 1, 53, 79
1, 20399, Note_on_c, 0, 77, 0
1, 20399, Note_on_c, 0, 65, 0
1, 20399, Note_on_c, 0, 78, 93
1, 20399, Note_on_c, 0, 66, 89
1, 20401, Note_on_c, 1, 53, 0
1, 20401, Note_on_c, 1, 51, 79
1, 20419, Note_on_c, 1, 51, 0
1, 20421, Note_on_c, 1, 50, 79
1, 20441, Note_on_c, 1, 50, 0
1, 20441, Note_on_c, 1, 53, 70
1, 20461, Note_on_c, 1, 53, 0
1, 20461, Note_on_c, 1, 51, 66
1, 20480, Note_on_c, 1, 50, 83
1, 20481, Note_on_c, 1, 51, 0
1, 20499, Note_on_c, 1, 50, 0
1, 20499, Note_on_c, 1, 48, 75
1, 20519, Note_on_c, 1, 48, 0
1, 20519, Note_on_c, 1, 46, 83
1, 20521, Note_on_c, 0, 66, 0
1, 20521, Note_on_c, 0, 67, 93
1, 20521, Note_on_c, 0, 79, 102
1, 20522, Note_on_c, 0, 78, 0
1, 20539, Note_on_c, 1, 45, 79
1, 20540, Note_on_c, 1, 46, 0
1, 20560, Note_on_c, 1, 48, 70
1, 20561, Note_on_c, 1, 45, 0
1, 20579, Note_on_c, 1, 48, 0
1, 20580, Note_on_c, 1, 46, 75
1, 20599, Note_on_c, 1, 45, 83
1, 20602, Note_on_c, 1, 46, 0
1, 20619, Note_on_c, 1, 45, 0
1, 20619, Note_on_c, 1, 43, 70
1, 20639, Note_on_c, 1, 43, 0
1, 20640, Note_on_c, 1, 43, 79
1, 20641, Note_on_c, 0, 80, 98
1, 20641, Note_on_c, 0, 68, 89
1, 20642, Note_on_c, 0, 79, 0
1, 20642, Note_on_c, 0, 67, 0
1, 20651, Note_on_c, 1, 41, 79
1, 20658, Note_on_c, 1, 43, 0
1, 20661, Note_on_c, 1, 41, 0
1, 20661, Note_on_c, 1, 43, 62
1, 20671, Note_on_c, 1, 43, 0
1, 20671, Note_on_c, 1, 41, 66
1, 20681, Note_on_c, 1, 41, 0
1, 20681, Note_on_c, 1, 43, 66
1, 20691, Note_on_c, 1, 43, 0
1, 20691, Note_on_c, 1, 41, 79
1, 20701, Note_on_c, 1, 41, 0
1, 20701, Note_on_c, 1, 43, 79
1, 20710, Note_on_c, 1, 41, 52
1, 20711, Note_on_c, 1, 43, 0
1, 20721, Note_on_c, 1, 43, 79
1, 20722, Note_on_c, 1, 41, 0
1, 20730, Note_on_c, 1, 41, 66
1, 20731, Note_on_c, 1, 43, 0
1, 20741, Note_on_c, 1, 43, 62
1, 20742, Note_on_c, 1, 41, 0
1, 20751, Note_on_c, 1, 43, 0
1, 20751, Note_on_c, 1, 41, 75
1, 20761, Note_on_c, 1, 41, 0
1, 20761, Note_on_c, 1, 40, 75
1, 20810, Note_on_c, 1, 40, 0
1, 20820, Note_on_c, 1, 38, 83
1, 20869, Note_on_c, 1, 38, 0
1, 20878, Note_on_c, 0, 68, 0
1, 20879, Note_on_c, 0, 80, 0
1, 20880, Note_on_c, 0, 69, 102
1, 20880, Note_on_c, 0, 81, 102
1, 20880, Note_on_c, 1, 37, 97
1, 20998, Note_on_c, 1, 37, 0
1, 21000, Note_on_c, 0, 81, 0
1, 21000, Note_on_c, 0, 69, 0
1, 21121, Note_on_c, 1, 53, 103
1, 21121, Note_on_c, 1, 41, 75
1, 21241, Note_on_c, 0, 79, 107
1, 21241, Note_on_c, 0, 71, 93
1, 21301, Note_on_c, 1, 41, 0
1, 21301, Note_on_c, 1, 53, 0
1, 21301, Note_on_c, 1, 38, 83
1, 21301, Note_on_c, 1, 50, 79
1, 21362, Note_on_c, 1, 52, 79
1, 21362, Note_on_c, 1, 40, 75
1, 21363, Note_on_c, 1, 50, 0
1, 21363, Note_on_c, 1, 38, 0
1, 21422, Note_on_c, 1, 52, 0
1, 21422, Note_on_c, 1, 40, 0
1, 21422, Note_on_c, 1, 41, 79
1, 21422, Note_on_c, 1, 53, 83
1, 21482, Note_on_c, 1, 53, 0
1, 21482, Note_on_c, 1, 41, 0
1, 21482, Note_on_c, 1, 55, 79
1, 21482, Note_on_c, 1, 43, 70
1, 21542, Note_on_c, 0, 67, 89
1, 21542, Note_on_c, 0, 76, 102
1, 21543, Note_on_c, 0, 71, 0
1, 21543, Note_on_c, 0, 79, 0
1, 21602, Note_on_c, 0, 67, 0
1, 21602, Note_on_c, 0, 76, 0
1, 21603, Note_on_c, 0, 72, 89
1, 21603, Note_on_c, 0, 81, 98
1, 21662, Note_on_c, 1, 40, 75
1, 21663, Note_on_c, 1, 52, 83
1, 21664, Note_on_c, 1, 43, 0
1, 21664, Note_on_c, 1, 55, 0
1, 21722, Note_on_c, 1, 42, 62
1, 21722, Note_on_c, 1, 54, 79
1, 21723, Note_on_c, 1, 52, 0
1, 21724, Note_on_c, 1, 40, 0
1, 21780, Note_on_c, 1, 54, 0
1, 21781, Note_on_c, 1, 42, 0
1, 21782, Note_on_c, 1, 55, 83
1, 21782, Note_on_c, 1, 43, 66
1, 21841, Note_on_c, 1, 43, 0
1, 21842, Note_on_c, 1, 55, 0
1, 21842, Note_on_c, 1, 45, 83
1, 21842, Note_on_c, 1, 57, 83
1, 21901, Note_on_c, 0, 72, 0
1, 21902, Note_on_c, 0, 81, 0
1, 21902, Note_on_c, 0, 69, 89
1, 21902, Note_on_c, 0, 78, 89
1, 21961, Note_on_c, 0, 78, 0
1, 21961, Note_on_c, 0, 69, 0
1, 21962, Note_on_c, 0, 74, 89
1, 21962, Note_on_c, 0, 82, 93
1, 22020, Note_on_c, 1, 45, 0
1, 22021, Note_on_c, 1, 57, 0
1, 22021, Note_on_c, 1, 42, 70
1, 22021, Note_on_c, 1, 54, 83
1, 22081, Note_on_c, 1, 43, 79
1, 22082, Note_on_c, 1, 54, 0
1, 22082, Note_on_c, 1, 42, 0
1, 22082, Note_on_c, 1, 55, 83
1, 22142, Note_on_c, 1, 55, 0
1, 22142, Note_on_c, 1, 43, 0
1, 22142, Note_on_c, 1, 45, 79
1, 22142, Note_on_c, 1, 57, 88
1, 22199, Note_on_c, 0, 74, 0
1, 22200, Note_on_c, 0, 82, 0
1, 22201, Note_on_c, 0, 70, 85
1, 22201, Note_on_c, 0, 74, 98
1, 22201, Note_on_c, 1, 57, 0
1, 22202, Note_on_c, 1, 45, 0
1, 22202, Note_on_c, 1, 58, 83
1, 22202, Note_on_c, 1, 46, 88
1, 22260, Note_on_c, 1, 46, 0
1, 22260, Note_on_c, 1, 58, 0
1, 22261, Note_on_c, 1, 55, 83
1, 22261, Note_on_c, 1, 52, 70
1, 22322, Note_on_c, 1, 52, 0
1, 22322, Note_on_c, 1, 55, 0
1, 22322, Note_on_c, 1, 53, 88
1, 22322, Note_on_c, 1, 63, 88
1, 22382, Note_on_c, 0, 74, 0
1, 22382, Note_on_c, 0, 70, 0
1, 22382, Note_on_c, 0, 68, 80
1, 22382, Note_on_c, 0, 71, 64
1, 22442, Note_on_c, 0, 71, 0
1, 22442, Note_on_c, 0, 68, 0
1, 22442, Note_on_c, 0, 69, 85
1, 22442, Note_on_c, 0, 72, 89
1, 22502, Note_on_c, 0, 72, 0
1, 22502, Note_on_c, 0, 69, 0
1, 22502, Note_on_c, 0, 71, 76
1, 22502, Note_on_c, 0, 74, 89
1, 22560, Note_on_c, 0, 71, 0
1, 22561, Note_on_c, 0, 74, 0
1, 22561, Note_on_c, 0, 75, 107
1, 22561, Note_on_c, 0, 72, 85
1, 22620, Note_on_c, 1, 63, 0
1, 22620, Note_on_c, 1, 53, 0
1, 22621, Note_on_c, 1, 54, 79
1, 22621, Note_on_c, 1, 57, 83
1, 22681, Note_on_c, 1, 57, 0
1, 22681, Note_on_c, 1, 54, 0
1, 22681, Note_on_c, 1, 65, 92
1, 22681, Note_on_c, 1, 55, 79
1, 22740, Note_on_c, 0, 72, 0
1, 22740, Note_on_c, 0, 75, 0
1, 22741, Note_on_c, 0, 73, 89
1, 22741, Note_on_c, 0, 70, 76
1, 22801, Note_on_c, 0, 70, 0
1, 22801, Note_on_c, 0, 73, 0
1, 22801, Note_on_c, 0, 71, 80
1, 22801, Note_on_c, 0, 74, 89
1, 22861, Note_on_c, 0, 74, 0
1, 22861, Note_on_c, 0, 73, 89
1, 22861, Note_on_c, 0, 76, 93
1, 22863, Note_on_c, 0, 71, 0
1, 22921, Note_on_c, 0, 73, 0
1, 22921, Note_on_c, 0, 77, 93
1, 22921, Note_on_c, 0, 74, 85
1, 22922, Note_on_c, 1, 55, 0
1, 22922, Note_on_c, 1, 65, 0
1, 22922, Note_on_c, 1, 53, 52
1, 22922, Note_on_c, 1, 50, 83
1, 22923, Note_on_c, 0, 76, 0
1, 22980, Note_on_c, 0, 74, 0
1, 22980, Note_on_c, 0, 71, 93
1, 22981, Note_on_c, 0, 67, 76
1, 22983, Note_on_c, 0, 77, 0
1, 23038, Note_on_c, 0, 71, 0
1, 23039, Note_on_c, 0, 67, 0
1, 23041, Note_on_c, 0, 75, 89
1, 23041, Note_on_c, 0, 79, 93
1, 23099, Note_on_c, 1, 50, 0
1, 23100, Note_on_c, 1, 53, 0
1, 23101, Note_on_c, 1, 47, 79
1, 23101, Note_on_c, 1, 50, 79
1, 23162, Note_on_c, 1, 48, 88
1, 23162, Note_on_c, 1, 51, 79
1, 23163, Note_on_c, 1, 50, 0
1, 23163, Note_on_c, 1, 47, 0
1, 23222, Note_on_c, 1, 48, 0
1, 23222, Note_on_c, 1, 51, 0
1, 23222, Note_on_c, 1, 53, 79
1, 23222, Note_on_c, 1, 50, 79
1, 23280, Note_on_c, 1, 53, 0
1, 23281, Note_on_c, 1, 55, 83
1, 23282, Note_on_c, 1, 50, 0
1, 23282, Note_on_c, 1, 51, 83
1, 23341, Note_on_c, 0, 72, 93
1, 23342, Note_on_c, 0, 79, 0
1, 23342, Note_on_c, 0, 75, 0
1, 23342, Note_on_c, 0, 68, 85
1, 23401, Note_on_c, 0, 72, 0
1, 23401, Note_on_c, 0, 77, 98
1, 23402, Note_on_c, 0, 68, 0
1, 23402, Note_on_c, 0, 80, 102
1, 23460, Note_on_c, 1, 51, 0
1, 23461, Note_on_c, 1, 55, 0
1, 23461, Note_on_c, 1, 52, 83
1, 23461, Note_on_c, 1, 49, 79
1, 23520, Note_on_c, 1, 49, 0
1, 23521, Note_on_c, 1, 52, 0
1, 23521, Note_on_c, 1, 53, 83
1, 23521, Note_on_c, 1, 50, 70
1, 23581, Note_on_c, 1, 52, 75
1, 23581, Note_on_c, 1, 55, 83
1, 23583, Note_on_c, 1, 50, 0
1, 23583, Note_on_c, 1, 53, 0
1, 23642, Note_on_c, 1, 52, 0
1, 23642, Note_on_c, 1, 53, 79
1, 23642, Note_on_c, 1, 56, 88
1, 23643, Note_on_c, 1, 55, 0
1, 23702, Note_on_c, 0, 80, 0
1, 23702, Note_on_c, 0, 77, 0
1, 23702, Note_on_c, 0, 74, 93
1, 23702, Note_on_c, 0, 70, 80
1, 23762, Note_on_c, 0, 70, 0
1, 23762, Note_on_c, 0, 74, 0
1, 23762, Note_on_c, 0, 79, 107
1, 23762, Note_on_c, 0, 82, 98
1, 23820, Note_on_c, 1, 53, 0
1, 23821, Note_on_c, 1, 56, 0
1, 23821, Note_on_c, 1, 51, 70
1, 23821, Note_on_c, 1, 54, 79
1, 23881, Note_on_c, 1, 54, 0
1, 23881, Note_on_c, 1, 51, 0
1, 23881, Note_on_c, 1, 55, 79
1, 23881, Note_on_c, 1, 52, 70
1, 23939, Note_on_c, 1, 55, 0
1, 23941, Note_on_c, 1, 52, 0
1, 23941, Note_on_c, 1, 57, 88
1, 23941, Note_on_c, 1, 53, 79
1, 23998, Note_on_c, 0, 79, 0
1, 23999, Note_on_c, 0, 82, 0
1, 24001, Note_on_c, 0, 82, 89
1, 24001, Note_on_c, 0, 79, 98
1, 24001, Note_on_c, 1, 53, 0
1, 24001, Note_on_c, 1, 57, 0
1, 24001, Note_on_c, 1, 55, 83
1, 24001, Note_on_c, 1, 58, 79
1, 24062, Note_on_c, 1, 52, 66
1, 24062, Note_on_c, 1, 48, 79
1, 24063, Note_on_c, 1, 58, 0
1, 24063, Note_on_c, 1, 55, 0
1, 24122, Note_on_c, 1, 52, 0
1, 24122, Note_on_c, 1, 48, 0
1, 24122, Note_on_c, 1, 57, 97
1, 24122, Note_on_c, 1, 60, 92
1, 24180, Note_on_c, 0, 79, 0
1, 24181, Note_on_c, 0, 80, 98
1, 24181, Note_on_c, 0, 77, 89
1, 24183, Note_on_c, 0, 82, 0
1, 24240, Note_on_c, 0, 77, 0
1, 24241, Note_on_c, 0, 80, 0
1, 24241, Note_on_c, 0, 81, 93
1, 24241, Note_on_c, 0, 78, 76
1, 24302, Note_on_c, 0, 80, 89
1, 24302, Note_on_c, 0, 83, 93
1, 24303, Note_on_c, 0, 78, 0
1, 24303, Note_on_c, 0, 81, 0
1, 24360, Note_on_c, 0, 83, 0
1, 24361, Note_on_c, 0, 80, 0
1, 24362, Note_on_c, 0, 81, 80
1, 24362, Note_on_c, 0, 84, 85
1, 24420, Note_on_c, 1, 57, 0
1, 24421, Note_on_c, 1, 60, 0
1, 24421, Note_on_c, 1, 50, 83
1, 24421, Note_on_c, 1, 54, 75
1, 24481, Note_on_c, 1, 50, 0
1, 24481, Note_on_c, 1, 58, 92
1, 24481, Note_on_c, 1, 62, 92
1, 24483, Note_on_c, 1, 54, 0
1, 24539, Note_on_c, 0, 81, 0
1, 24540, Note_on_c, 0, 84, 0
1, 24541, Note_on_c, 0, 78, 80
1, 24541, Note_on_c, 0, 81, 98
1, 24601, Note_on_c, 0, 81, 0
1, 24601, Note_on_c, 0, 78, 0
1, 24601, Note_on_c, 0, 79, 89
1, 24601, Note_on_c, 0, 82, 93
1, 24660, Note_on_c, 0, 82, 0
1, 24661, Note_on_c, 0, 79, 0
1, 24661, Note_on_c, 0, 84, 93
1, 24661, Note_on_c, 0, 81, 80
1, 24719, Note_on_c, 0, 84, 0
1, 24721, Note_on_c, 0, 86, 102
1, 24721, Note_on_c, 0, 82, 98
1, 24723, Note_on_c, 0, 81, 0
1, 24780, Note_on_c, 1, 62, 0
1, 24780, Note_on_c, 1, 58, 0
1, 24781, Note_on_c, 1, 51, 66
1, 24781, Note_on_c, 1, 55, 83
1, 24841, Note_on_c, 1, 55, 0
1, 24841, Note_on_c, 1, 51, 0
1, 24841, Note_on_c, 1, 63, 75
1, 24841, Note_on_c, 1, 60, 92
1, 24900, Note_on_c, 0, 82, 0
1, 24901, Note_on_c, 0, 86, 0
1, 24901, Note_on_c, 0, 80, 93
1, 24901, Note_on_c, 0, 83, 102
1, 24959, Note_on_c, 0, 83, 0
1, 24960, Note_on_c, 0, 80, 0
1, 24961, Note_on_c, 0, 84, 93
1, 24961, Note_on_c, 0, 81, 107
1, 25019, Note_on_c, 0, 81, 0
1, 25019, Note_on_c, 0, 84, 0
1, 25021, Note_on_c, 0, 82, 89
1, 25021, Note_on_c, 0, 86, 93
1, 25021, Note_on_c, 1, 58, 79
1, 25021, Note_on_c, 1, 62, 83
1, 25022, Note_on_c, 1, 60, 0
1, 25022, Note_on_c, 1, 63, 0
1, 25081, Note_on_c, 0, 86, 0
1, 25081, Note_on_c, 0, 82, 0
1, 25081, Note_on_c, 0, 87, 89
1, 25081, Note_on_c, 0, 84, 98
1, 25082, Note_on_c, 1, 60, 83
1, 25082, Note_on_c, 1, 57, 75
1, 25083, Note_on_c, 1, 58, 0
1, 25083, Note_on_c, 1, 62, 0
1, 25139, Note_on_c, 0, 84, 0
1, 25140, Note_on_c, 0, 87, 0
1, 25141, Note_on_c, 0, 87, 85
1, 25141, Note_on_c, 0, 84, 113
1, 25141, Note_on_c, 1, 57, 0
1, 25142, Note_on_c, 1, 60, 0
1, 25142, Note_on_c, 1, 54, 75
1, 25142, Note_on_c, 1, 58, 83
1, 25199, Note_on_c, 0, 84, 0
1, 25199, Note_on_c, 0, 87, 0
1, 25201, Note_on_c, 0, 87, 114
1, 25201, Note_on_c, 1, 60, 83
1, 25201, Note_on_c, 1, 57, 92
1, 25201, Note_on_c, 1, 63, 75
1, 25201, Note_on_c, 1, 53, 70
1, 25202, Note_on_c, 1, 58, 0
1, 25202, Note_on_c, 1, 54, 0
1, 25336, Note_on_c, 0, 87, 0
1, 25341, Note_on_c, 0, 84, 85
1, 25361, Note_on_c, 0, 84, 0
1, 25361, Note_on_c, 0, 81, 93
1, 25381, Note_on_c, 0, 81, 0
1, 25381, Note_on_c, 0, 77, 80
1, 25401, Note_on_c, 0, 77, 0
1, 25401, Note_on_c, 0, 75, 72
1, 25421, Note_on_c, 0, 75, 0
1, 25421, Note_on_c, 0, 72, 64
1, 25439, Note_on_c, 1, 63, 0
1, 25439, Note_on_c, 1, 57, 0
1, 25439, Note_on_c, 1, 53, 0
1, 25439, Note_on_c, 1, 60, 0
1, 25441, Note_on_c, 0, 72, 0
1, 25441, Note_on_c, 0, 69, 89
1, 25461, Note_on_c, 0, 69, 0
1, 25461, Note_on_c, 0, 65, 43
1, 25480, Note_on_c, 0, 63, 68
1, 25481, Note_on_c, 0, 65, 0
1, 25500, Note_on_c, 0, 60, 76
1, 25501, Note_on_c, 0, 63, 0
1, 25520, Note_on_c, 0, 57, 44
1, 25522, Note_on_c, 0, 60, 0
1, 25539, Note_on_c, 0, 53, 80
1, 25541, Note_on_c, 0, 57, 0
1, 25562, Note_on_c, 0, 53, 0
1, 25565, Note_on_c, 1, 29, 66
1, 25623, Note_on_c, 1, 29, 0
1, 25920, Note_on_c, 0, 70, 72
1, 25920, Note_on_c, 1, 58, 50
1, 25920, Note_on_c, 1, 62, 66
1, 26039, Note_on_c, 0, 70, 0
1, 26039, Note_on_c, 1, 62, 0
1, 26039, Note_on_c, 1, 58, 0
1, 26040, Note_on_c, 0, 69, 68
1, 26040, Note_on_c, 1, 60, 66
1, 26040, Note_on_c, 1, 63, 54
1, 26159, Note_on_c, 0, 69, 0
1, 26159, Note_on_c, 1, 63, 0
1, 26159, Note_on_c, 1, 60, 0
1, 26160, Note_on_c, 0, 70, 76
1, 26160, Note_on_c, 1, 62, 66
1, 26160, Note_on_c, 1, 65, 58
1, 26279, Note_on_c, 0, 70, 0
1, 26279, Note_on_c, 1, 65, 0
1, 26279, Note_on_c, 1, 62, 0
1, 26280, Note_on_c, 0, 64, 93
1, 26280, Note_on_c, 1, 61, 52
1, 26280, Note_on_c, 1, 55, 62
1, 26399, Note_on_c, 1, 61, 0
1, 26400, Note_on_c, 1, 60, 58
1, 26519, Note_on_c, 1, 60, 0
1, 26520, Note_on_c, 0, 64, 0
1, 26520, Note_on_c, 1, 58, 66
1, 26521, Note_on_c, 0, 72, 64
1, 26639, Note_on_c, 1, 53, 79
1, 26640, Note_on_c, 0, 72, 0
1, 26640, Note_on_c, 0, 70, 72
1, 26640, Note_on_c, 1, 55, 0
1, 26655, Note_on_c, 0, 70, 0
1, 26655, Note_on_c, 0, 72, 72
1, 26670, Note_on_c, 0, 72, 0
1, 26670, Note_on_c, 0, 74, 72
1, 26685, Note_on_c, 0, 74, 0
1, 26685, Note_on_c, 0, 72, 72
1, 26760, Note_on_c, 1, 58, 0
1, 26760, Note_on_c, 1, 57, 66
1, 26820, Note_on_c, 0, 72, 0
1, 26821, Note_on_c, 0, 70, 76
1, 26851, Note_on_c, 0, 70, 0
1, 26851, Note_on_c, 0, 69, 76
1, 26881, Note_on_c, 0, 67, 80
1, 26882, Note_on_c, 0, 69, 0
1, 26911, Note_on_c, 0, 65, 80
1, 26913, Note_on_c, 0, 67, 0
1, 26937, Note_on_c, 1, 57, 0
1, 26939, Note_on_c, 1, 58, 54
1, 26939, Note_on_c, 1, 55, 54
1, 26941, Note_on_c, 0, 63, 68
1, 26941, Note_on_c, 1, 53, 0
1, 26942, Note_on_c, 0, 65, 0
1, 26971, Note_on_c, 0, 67, 76
1, 26972, Note_on_c, 0, 63, 0
1, 27000, Note_on_c, 0, 67, 0
1, 27000, Note_on_c, 1, 55, 0
1, 27000, Note_on_c, 1, 58, 0
1, 27000, Note_on_c, 1, 57, 62
1, 27001, Note_on_c, 0, 65, 89
1, 27001, Note_on_c, 1, 60, 52
1, 27046, Note_on_c, 0, 65, 0
1, 27061, Note_on_c, 0, 65, 85
1, 27074, Note_on_c, 0, 65, 0
1, 27074, Note_on_c, 0, 63, 72
1, 27088, Note_on_c, 0, 63, 0
1, 27089, Note_on_c, 0, 65, 76
1, 27104, Note_on_c, 0, 65, 0
1, 27104, Note_on_c, 0, 63, 60
1, 27121, Note_on_c, 0, 62, 85
1, 27121, Note_on_c, 1, 58, 66
1, 27124, Note_on_c, 1, 60, 0
1, 27124, Note_on_c, 1, 57, 0
1, 27126, Note_on_c, 0, 63, 0
1, 27222, Note_on_c, 0, 62, 0
1, 27241, Note_on_c, 1, 58, 0
1, 27242, Note_on_c, 0, 65, 89
1, 27242, Note_on_c, 0, 74, 89
1, 27360, Note_on_c, 1, 36, 79
1, 27360, Note_on_c, 1, 48, 66
1, 27391, Note_on_c, 0, 74, 0
1, 27391, Note_on_c, 0, 65, 0
1, 27420, Note_on_c, 0, 71, 76
1, 27420, Note_on_c, 0, 62, 76
1, 27479, Note_on_c, 0, 62, 0
1, 27479, Note_on_c, 0, 71, 0
1, 27480, Note_on_c, 0, 63, 80
1, 27480, Note_on_c, 0, 72, 93
1, 27539, Note_on_c, 0, 72, 0
1, 27539, Note_on_c, 0, 63, 0
1, 27540, Note_on_c, 0, 74, 89
1, 27540, Note_on_c, 0, 65, 93
1, 27599, Note_on_c, 0, 65, 0
1, 27599, Note_on_c, 0, 74, 0
1, 27600, Note_on_c, 0, 75, 85
1, 27600, Note_on_c, 0, 67, 93
1, 27659, Note_on_c, 0, 67, 0
1, 27659, Note_on_c, 0, 75, 0
1, 27660, Note_on_c, 0, 72, 89
1, 27660, Note_on_c, 1, 48, 0
1, 27660, Note_on_c, 1, 36, 0
1, 27719, Note_on_c, 0, 72, 0
1, 27720, Note_on_c, 0, 70, 76
1, 27720, Note_on_c, 1, 63, 54
1, 27720, Note_on_c, 1, 60, 58
1, 27779, Note_on_c, 0, 70, 0
1, 27780, Note_on_c, 0, 69, 80
1, 27839, Note_on_c, 0, 69, 0
1, 27840, Note_on_c, 0, 72, 89
1, 27840, Note_on_c, 1, 60, 0
1, 27840, Note_on_c, 1, 63, 0
1, 27840, Note_on_c, 1, 65, 49
1, 27840, Note_on_c, 1, 62, 66
1, 27899, Note_on_c, 0, 72, 0
1, 27900, Note_on_c, 0, 70, 85
1, 27959, Note_on_c, 0, 70, 0
1, 27960, Note_on_c, 0, 74, 102
1, 27960, Note_on_c, 0, 77, 98
1, 27960, Note_on_c, 1, 62, 0
1, 27960, Note_on_c, 1, 65, 0
1, 28080, Note_on_c, 1, 39, 79
1, 28080, Note_on_c, 1, 51, 79
1, 28140, Note_on_c, 0, 77, 0
1, 28140, Note_on_c, 0, 74, 0
1, 28140, Note_on_c, 0, 71, 80
1, 28140, Note_on_c, 0, 74, 76
1, 28199, Note_on_c, 0, 74, 0
1, 28199, Note_on_c, 0, 71, 0
1, 28200, Note_on_c, 0, 75, 72
1, 28200, Note_on_c, 0, 72, 89
1, 28259, Note_on_c, 0, 72, 0
1, 28259, Note_on_c, 0, 75, 0
1, 28260, Note_on_c, 0, 74, 76
1, 28260, Note_on_c, 0, 77, 85
1, 28319, Note_on_c, 0, 77, 0
1, 28319, Note_on_c, 0, 74, 0
1, 28320, Note_on_c, 0, 75, 76
1, 28320, Note_on_c, 0, 79, 85
1, 28379, Note_on_c, 0, 79, 0
1, 28379, Note_on_c, 0, 75, 0
1, 28380, Note_on_c, 0, 72, 68
1, 28380, Note_on_c, 0, 75, 72
1, 28439, Note_on_c, 0, 75, 0
1, 28439, Note_on_c, 0, 72, 0
1, 28440, Note_on_c, 0, 69, 89
1, 28440, Note_on_c, 0, 74, 89
1, 28440, Note_on_c, 1, 51, 0
1, 28440, Note_on_c, 1, 39, 0
1, 28440, Note_on_c, 1, 53, 79
1, 28440, Note_on_c, 1, 63, 62
1, 28499, Note_on_c, 0, 74, 0
1, 28499, Note_on_c, 0, 69, 0
1, 28500, Note_on_c, 0, 72, 85
1, 28559, Note_on_c, 0, 72, 0
1, 28560, Note_on_c, 0, 70, 98
1, 28560, Note_on_c, 0, 75, 89
1, 28560, Note_on_c, 1, 63, 0
1, 28560, Note_on_c, 1, 53, 0
1, 28560, Note_on_c, 1, 62, 62
1, 28560, Note_on_c, 1, 58, 66
1, 28619, Note_on_c, 0, 75, 0
1, 28619, Note_on_c, 1, 58, 0
1, 28620, Note_on_c, 0, 74, 89
1, 28679, Note_on_c, 0, 74, 0
1, 28680, Note_on_c, 0, 70, 0
1, 28680, Note_on_c, 0, 79, 98
1, 28680, Note_on_c, 0, 72, 107
1, 28680, Note_on_c, 1, 62, 0
1, 28680, Note_on_c, 1, 45, 83
1, 28680, Note_on_c, 1, 57, 83
1, 28739, Note_on_c, 0, 72, 0
1, 28739, Note_on_c, 0, 79, 0
1, 28740, Note_on_c, 0, 77, 93
1, 28799, Note_on_c, 0, 77, 0
1, 28800, Note_on_c, 0, 84, 98
1, 28800, Note_on_c, 0, 74, 107
1, 28800, Note_on_c, 1, 57, 0
1, 28800, Note_on_c, 1, 45, 0
1, 28800, Note_on_c, 1, 43, 83
1, 28800, Note_on_c, 1, 55, 75
1, 28859, Note_on_c, 0, 74, 0
1, 28859, Note_on_c, 0, 84, 0
1, 28860, Note_on_c, 0, 82, 93
1, 28919, Note_on_c, 0, 82, 0
1, 28920, Note_on_c, 0, 81, 98
1, 28920, Note_on_c, 0, 70, 80
1, 28979, Note_on_c, 0, 81, 0
1, 28980, Note_on_c, 0, 79, 89
1, 29039, Note_on_c, 0, 79, 0
1, 29040, Note_on_c, 0, 77, 80
1, 29040, Note_on_c, 1, 55, 0
1, 29040, Note_on_c, 1, 43, 0
1, 29040, Note_on_c, 1, 55, 66
1, 29040, Note_on_c, 1, 60, 62
1, 29099, Note_on_c, 0, 77, 0
1, 29100, Note_on_c, 0, 70, 0
1, 29100, Note_on_c, 0, 76, 80
1, 29159, Note_on_c, 0, 76, 0
1, 29160, Note_on_c, 0, 79, 80
1, 29160, Note_on_c, 0, 70, 72
1, 29160, Note_on_c, 1, 60, 0
1, 29160, Note_on_c, 1, 55, 0
1, 29160, Note_on_c, 1, 53, 75
1, 29160, Note_on_c, 1, 64, 75
1, 29219, Note_on_c, 0, 70, 0
1, 29219, Note_on_c, 0, 79, 0
1, 29280, Note_on_c, 1, 64, 0
1, 29281, Note_on_c, 0, 77, 68
1, 29281, Note_on_c, 0, 69, 72
1, 29281, Note_on_c, 1, 65, 66
1, 29400, Note_on_c, 1, 53, 0
1, 29407, Note_on_c, 0, 69, 0
1, 29408, Note_on_c, 0, 77, 0
1, 29427, Note_on_c, 1, 65, 0
1, 29429, Note_on_c, 1, 67, 75
1, 29459, Note_on_c, 1, 63, 66
1, 29461, Note_on_c, 1, 67, 0
1, 29490, Note_on_c, 1, 63, 0
1, 29490, Note_on_c, 1, 60, 62
1, 29521, Note_on_c, 1, 58, 75
1, 29523, Note_on_c, 1, 60, 0
1, 29641, Note_on_c, 1, 57, 70
1, 29647, Note_on_c, 1, 58, 0
1, 29760, Note_on_c, 1, 57, 0
1, 29761, Note_on_c, 1, 58, 66
1, 29762, Note_on_c, 0, 85, 89
1, 29880, Note_on_c, 1, 52, 79
1, 29881, Note_on_c, 1, 58, 0
1, 29895, Note_on_c, 0, 85, 0
1, 29900, Note_on_c, 0, 83, 68
1, 29919, Note_on_c, 0, 83, 0
1, 29919, Note_on_c, 0, 85, 68
1, 29939, Note_on_c, 0, 84, 76
1, 29944, Note_on_c, 0, 85, 0
1, 29959, Note_on_c, 0, 82, 76
1, 29961, Note_on_c, 0, 84, 0
1, 29979, Note_on_c, 0, 82, 0
1, 29979, Note_on_c, 0, 81, 76
1, 29999, Note_on_c, 0, 79, 80
1, 30000, Note_on_c, 0, 81, 0
1, 30019, Note_on_c, 0, 78, 57
1, 30020, Note_on_c, 0, 79, 0
1, 30039, Note_on_c, 0, 78, 0
1, 30039, Note_on_c, 0, 81, 89
1, 30059, Note_on_c, 0, 79, 89
1, 30061, Note_on_c, 0, 81, 0
1, 30079, Note_on_c, 0, 77, 76
1, 30081, Note_on_c, 0, 79, 0
1, 30099, Note_on_c, 0, 76, 76
1, 30100, Note_on_c, 0, 77, 0
1, 30119, Note_on_c, 0, 76, 0
1, 30119, Note_on_c, 0, 73, 85
1, 30120, Note_on_c, 1, 52, 0
1, 30120, Note_on_c, 1, 64, 70
1, 30120, Note_on_c, 1, 60, 66
1, 30139, Note_on_c, 0, 72, 80
1, 30140, Note_on_c, 0, 73, 0
1, 30159, Note_on_c, 0, 75, 76
1, 30160, Note_on_c, 0, 72, 0
1, 30179, Note_on_c, 0, 73, 80
1, 30180, Note_on_c, 0, 75, 0
1, 30199, Note_on_c, 0, 72, 72
1, 30200, Note_on_c, 0, 73, 0
1, 30219, Note_on_c, 0, 70, 64
1, 30222, Note_on_c, 0, 72, 0
1, 30224, Note_on_c, 1, 64, 0
1, 30230, Note_on_c, 1, 60, 0
1, 30235, Note_on_c, 0, 70, 0
1, 30239, Note_on_c, 0, 70, 85
1, 30240, Note_on_c, 0, 63, 72
1, 30240, Note_on_c, 1, 58, 52
1, 30255, Note_on_c, 1, 58, 0
1, 30255, Note_on_c, 1, 60, 52
1, 30270, Note_on_c, 1, 60, 0
1, 30270, Note_on_c, 1, 62, 52
1, 30285, Note_on_c, 1, 62, 0
1, 30285, Note_on_c, 1, 60, 52
1, 30288, Note_on_c, 0, 70, 0
1, 30300, Note_on_c, 0, 70, 102
1, 30309, Note_on_c, 0, 69, 80
1, 30312, Note_on_c, 0, 70, 0
1, 30322, Note_on_c, 0, 69, 0
1, 30322, Note_on_c, 0, 67, 62
1, 30334, Note_on_c, 0, 67, 0
1, 30334, Note_on_c, 0, 69, 85
1, 30346, Note_on_c, 0, 70, 72
1, 30348, Note_on_c, 0, 69, 0
1, 30359, Note_on_c, 0, 70, 0
1, 30360, Note_on_c, 0, 63, 72
1, 30360, Note_on_c, 0, 74, 93
1, 30389, Note_on_c, 0, 74, 0
1, 30389, Note_on_c, 0, 72, 85
1, 30413, Note_on_c, 0, 72, 0
1, 30419, Note_on_c, 0, 72, 89
1, 30419, Note_on_c, 1, 58, 70
1, 30420, Note_on_c, 0, 63, 0
1, 30420, Note_on_c, 1, 60, 0
1, 30449, Note_on_c, 1, 57, 70
1, 30451, Note_on_c, 1, 58, 0
1, 30479, Note_on_c, 1, 55, 66
1, 30480, Note_on_c, 0, 63, 0
1, 30481, Note_on_c, 1, 57, 0
1, 30509, Note_on_c, 1, 53, 70
1, 30510, Note_on_c, 1, 55, 0
1, 30528, Note_on_c, 0, 72, 0
1, 30539, Note_on_c, 1, 53, 0
1, 30539, Note_on_c, 1, 55, 79
1, 30540, Note_on_c, 0, 69, 72
1, 30541, Note_on_c, 0, 72, 107
1, 30570, Note_on_c, 1, 51, 62
1, 30571, Note_on_c, 1, 55, 0
1, 30593, Note_on_c, 0, 72, 0
1, 30600, Note_on_c, 0, 69, 0
1, 30600, Note_on_c, 0, 69, 72
1, 30600, Note_on_c, 0, 72, 102
1, 30601, Note_on_c, 1, 53, 70
1, 30602, Note_on_c, 1, 51, 0
1, 30644, Note_on_c, 1, 53, 0
1, 30662, Note_on_c, 1, 53, 79
1, 30677, Note_on_c, 1, 51, 54
1, 30679, Note_on_c, 1, 53, 0
1, 30685, Note_on_c, 0, 72, 0
1, 30686, Note_on_c, 0, 74, 80
1, 30692, Note_on_c, 1, 51, 0
1, 30692, Note_on_c, 1, 53, 66
1, 30696, Note_on_c, 0, 72, 68
1, 30700, Note_on_c, 0, 74, 0
1, 30703, Note_on_c, 0, 71, 80
1, 30704, Note_on_c, 0, 72, 0
1, 30707, Note_on_c, 1, 51, 58
1, 30708, Note_on_c, 1, 53, 0
1, 30712, Note_on_c, 0, 72, 89
1, 30715, Note_on_c, 0, 71, 0
1, 30719, Note_on_c, 0, 72, 0
1, 30720, Note_on_c, 0, 69, 0
1, 30720, Note_on_c, 0, 70, 72
1, 30721, Note_on_c, 1, 51, 0
1, 30722, Note_on_c, 0, 77, 89
1, 30722, Note_on_c, 1, 50, 83
1, 30777, Note_on_c, 0, 77, 0
1, 30777, Note_on_c, 0, 65, 89
1, 30780, Note_on_c, 0, 70, 0
1, 30837, Note_on_c, 0, 70, 93
1, 30838, Note_on_c, 0, 65, 0
1, 30839, Note_on_c, 1, 50, 0
1, 30897, Note_on_c, 0, 70, 0
1, 30898, Note_on_c, 0, 74, 93
1, 30956, Note_on_c, 0, 74, 0
1, 30957, Note_on_c, 0, 77, 102
1, 30959, Note_on_c, 1, 51, 75
1, 30959, Note_on_c, 1, 48, 97
1, 30959, Note_on_c, 1, 53, 92
1, 30959, Note_on_c, 1, 57, 103
1, 31019, Note_on_c, 0, 75, 89
1, 31020, Note_on_c, 0, 77, 0
1, 31078, Note_on_c, 0, 74, 98
1, 31079, Note_on_c, 0, 75, 0
1, 31106, Note_on_c, 0, 74, 0
1, 31107, Note_on_c, 0, 72, 89
1, 31136, Note_on_c, 0, 70, 80
1, 31139, Note_on_c, 0, 72, 0
1, 31166, Note_on_c, 0, 69, 89
1, 31168, Note_on_c, 0, 70, 0
1, 31197, Note_on_c, 0, 67, 93
1, 31198, Note_on_c, 0, 69, 0
1, 31261, Note_on_c, 0, 67, 0
1, 31261, Note_on_c, 0, 65, 93
1, 31280, Note_on_c, 1, 53, 0
1, 31280, Note_on_c, 1, 48, 0
1, 31281, Note_on_c, 1, 51, 0
1, 31282, Note_on_c, 1, 57, 0
1, 31313, Note_on_c, 0, 65, 0
1, 31318, Note_on_c, 0, 79, 102
1, 31321, Note_on_c, 1, 50, 83
1, 31321, Note_on_c, 1, 53, 83
1, 31321, Note_on_c, 1, 59, 97
1, 31321, Note_on_c, 1, 55, 88
1, 31381, Note_on_c, 0, 77, 93
1, 31384, Note_on_c, 0, 79, 0
1, 31439, Note_on_c, 0, 75, 89
1, 31442, Note_on_c, 0, 77, 0
1, 31467, Note_on_c, 0, 74, 85
1, 31470, Note_on_c, 0, 75, 0
1, 31497, Note_on_c, 0, 74, 0
1, 31497, Note_on_c, 0, 72, 80
1, 31526, Note_on_c, 0, 71, 93
1, 31528, Note_on_c, 0, 72, 0
1, 31557, Note_on_c, 0, 71, 0
1, 31557, Note_on_c, 0, 68, 93
1, 31618, Note_on_c, 0, 68, 0
1, 31619, Note_on_c, 0, 67, 93
1, 31632, Note_on_c, 1, 53, 0
1, 31633, Note_on_c, 1, 50, 0
1, 31633, Note_on_c, 1, 59, 0
1, 31634, Note_on_c, 1, 55, 0
1, 31642, Note_on_c, 0, 67, 0
1, 31677, Note_on_c, 0, 80, 119
1, 31679, Note_on_c, 1, 51, 79
1, 31679, Note_on_c, 1, 60, 88
1, 31679, Note_on_c, 1, 55, 83
1, 31737, Note_on_c, 0, 80, 0
1, 31738, Note_on_c, 0, 79, 93
1, 31797, Note_on_c, 0, 79, 0
1, 31798, Note_on_c, 0, 77, 93
1, 31827, Note_on_c, 0, 75, 85
1, 31830, Note_on_c, 0, 77, 0
1, 31856, Note_on_c, 0, 74, 89
1, 31858, Note_on_c, 0, 75, 0
1, 31887, Note_on_c, 0, 72, 85
1, 31888, Note_on_c, 0, 74, 0
1, 31917, Note_on_c, 0, 71, 98
1, 31918, Note_on_c, 0, 72, 0
1, 31947, Note_on_c, 0, 72, 89
1, 31949, Note_on_c, 0, 71, 0
1, 31977, Note_on_c, 0, 74, 93
1, 31978, Note_on_c, 0, 72, 0
1, 31992, Note_on_c, 1, 51, 0
1, 31993, Note_on_c, 1, 55, 0
1, 31995, Note_on_c, 1, 60, 0
1, 32007, Note_on_c, 0, 75, 76
1, 32008, Note_on_c, 0, 74, 0
1, 32039, Note_on_c, 0, 75, 0
1, 32039, Note_on_c, 1, 62, 75
1, 32039, Note_on_c, 1, 53, 75
1, 32040, Note_on_c, 0, 70, 80
1, 32130, Note_on_c, 0, 72, 89
1, 32131, Note_on_c, 0, 70, 0
1, 32145, Note_on_c, 0, 70, 72
1, 32147, Note_on_c, 0, 72, 0
1, 32159, Note_on_c, 0, 70, 0
1, 32159, Note_on_c, 1, 62, 0
1, 32160, Note_on_c, 0, 69, 98
1, 32160, Note_on_c, 1, 60, 54
1, 32276, Note_on_c, 0, 69, 0
1, 32281, Note_on_c, 1, 60, 0
1, 32286, Note_on_c, 1, 53, 0
1, 32398, Note_on_c, 0, 70, 113
1, 32426, Note_on_c, 0, 82, 89
1, 32427, Note_on_c, 0, 70, 0
1, 32524, Note_on_c, 0, 81, 93
1, 32526, Note_on_c, 0, 82, 0
1, 32638, Note_on_c, 0, 82, 85
1, 32640, Note_on_c, 0, 81, 0
1, 32753, Note_on_c, 0, 82, 0
1, 32760, Note_on_c, 0, 77, 80
1, 32789, Note_on_c, 1, 64, 75
1, 32819, Note_on_c, 1, 65, 79
1, 32820, Note_on_c, 1, 64, 0
1, 32847, Note_on_c, 1, 65, 0
1, 32849, Note_on_c, 1, 61, 66
1, 32878, Note_on_c, 1, 61, 0
1, 32879, Note_on_c, 1, 62, 79
1, 32908, Note_on_c, 1, 62, 0
1, 32909, Note_on_c, 1, 57, 70
1, 32937, Note_on_c, 1, 57, 0
1, 32939, Note_on_c, 1, 58, 62
1, 32969, Note_on_c, 1, 58, 0
1, 32969, Note_on_c, 1, 52, 66
1, 32997, Note_on_c, 1, 52, 0
1, 32999, Note_on_c, 1, 53, 66
1, 33029, Note_on_c, 1, 53, 0
1, 33029, Note_on_c, 1, 49, 62
1, 33059, Note_on_c, 1, 49, 0
1, 33059, Note_on_c, 1, 50, 83
1, 33089, Note_on_c, 1, 50, 0
1, 33089, Note_on_c, 1, 46, 75
1, 33119, Note_on_c, 0, 77, 0
1, 33119, Note_on_c, 0, 84, 76
1, 33181, Note_on_c, 1, 45, 70
1, 33184, Note_on_c, 1, 46, 0
1, 33241, Note_on_c, 0, 83, 76
1, 33245, Note_on_c, 0, 84, 0
1, 33295, Note_on_c, 1, 45, 0
1, 33299, Note_on_c, 1, 44, 58
1, 33361, Note_on_c, 0, 84, 89
1, 33363, Note_on_c, 0, 83, 0
1, 33420, Note_on_c, 1, 44, 0
1, 33420, Note_on_c, 1, 45, 54
1, 33472, Note_on_c, 1, 45, 0
1, 33480, Note_on_c, 0, 84, 0
1, 33481, Note_on_c, 0, 77, 72
1, 33511, Note_on_c, 1, 71, 79
1, 33539, Note_on_c, 1, 71, 0
1, 33540, Note_on_c, 1, 72, 66
1, 33567, Note_on_c, 1, 72, 0
1, 33569, Note_on_c, 1, 68, 66
1, 33599, Note_on_c, 1, 68, 0
1, 33600, Note_on_c, 1, 69, 79
1, 33628, Note_on_c, 1, 69, 0
1, 33629, Note_on_c, 1, 62, 66
1, 33658, Note_on_c, 1, 62, 0
1, 33659, Note_on_c, 1, 63, 62
1, 33689, Note_on_c, 1, 63, 0
1, 33689, Note_on_c, 1, 59, 66
1, 33718, Note_on_c, 1, 59, 0
1, 33719, Note_on_c, 1, 60, 66
1, 33749, Note_on_c, 1, 60, 0
1, 33749, Note_on_c, 1, 56, 79
1, 33776, Note_on_c, 0, 77, 0
1, 33779, Note_on_c, 0, 84, 76
1, 33779, Note_on_c, 1, 57, 66
1, 33781, Note_on_c, 1, 56, 0
1, 33809, Note_on_c, 1, 57, 0
1, 33809, Note_on_c, 1, 51, 62
1, 33839, Note_on_c, 1, 51, 0
1, 33839, Note_on_c, 1, 50, 79
1, 33901, Note_on_c, 0, 83, 76
1, 33909, Note_on_c, 0, 84, 0
1, 33961, Note_on_c, 1, 49, 49
1, 33963, Note_on_c, 1, 50, 0
1, 34020, Note_on_c, 0, 83, 0
1, 34020, Note_on_c, 0, 82, 80
1, 34079, Note_on_c, 1, 49, 0
1, 34081, Note_on_c, 1, 50, 62
1, 34139, Note_on_c, 0, 83, 76
1, 34140, Note_on_c, 0, 82, 0
1, 34168, Note_on_c, 1, 50, 0
1, 34197, Note_on_c, 0, 83, 0
1, 34199, Note_on_c, 1, 44, 70
1, 34199, Note_on_c, 1, 41, 88
1, 34199, Note_on_c, 1, 47, 88
1, 34199, Note_on_c, 1, 50, 97
1, 34228, Note_on_c, 0, 77, 89
1, 34258, Note_on_c, 0, 77, 0
1, 34258, Note_on_c, 0, 80, 89
1, 34288, Note_on_c, 0, 74, 89
1, 34290, Note_on_c, 0, 80, 0
1, 34317, Note_on_c, 0, 74, 0
1, 34318, Note_on_c, 0, 77, 76
1, 34348, Note_on_c, 0, 71, 76
1, 34349, Note_on_c, 0, 77, 0
1, 34379, Note_on_c, 0, 71, 0
1, 34379, Note_on_c, 0, 74, 85
1, 34408, Note_on_c, 0, 74, 0
1, 34408, Note_on_c, 0, 68, 76
1, 34438, Note_on_c, 0, 68, 0
1, 34438, Note_on_c, 0, 70, 72
1, 34467, Note_on_c, 0, 70, 0
1, 34468, Note_on_c, 0, 65, 76
1, 34499, Note_on_c, 0, 68, 85
1, 34501, Note_on_c, 0, 65, 0
1, 34519, Note_on_c, 1, 50, 0
1, 34523, Note_on_c, 1, 44, 0
1, 34523, Note_on_c, 1, 41, 0
1, 34523, Note_on_c, 1, 47, 0
1, 34529, Note_on_c, 0, 68, 0
1, 34529, Note_on_c, 0, 62, 76
1, 34552, Note_on_c, 0, 62, 0
1, 34559, Note_on_c, 1, 44, 70
1, 34559, Note_on_c, 1, 47, 83
1, 34559, Note_on_c, 1, 39, 83
1, 34589, Note_on_c, 0, 80, 107
1, 34618, Note_on_c, 0, 80, 0
1, 34619, Note_on_c, 0, 83, 93
1, 34647, Note_on_c, 0, 83, 0
1, 34649, Note_on_c, 0, 75, 64
1, 34674, Note_on_c, 0, 75, 0
1, 34679, Note_on_c, 0, 80, 85
1, 34709, Note_on_c, 0, 80, 0
1, 34709, Note_on_c, 0, 71, 72
1, 34734, Note_on_c, 0, 71, 0
1, 34739, Note_on_c, 0, 75, 80
1, 34767, Note_on_c, 0, 75, 0
1, 34769, Note_on_c, 0, 68, 62
1, 34784, Note_on_c, 0, 68, 0
1, 34799, Note_on_c, 0, 71, 85
1, 34828, Note_on_c, 0, 71, 0
1, 34829, Note_on_c, 0, 63, 72
1, 34851, Note_on_c, 0, 63, 0
1, 34859, Note_on_c, 0, 68, 85
1, 34866, Note_on_c, 1, 47, 0
1, 34866, Note_on_c, 1, 44, 0
1, 34869, Note_on_c, 1, 39, 0
1, 34889, Note_on_c, 0, 68, 0
1, 34889, Note_on_c, 0, 59, 76
1, 34901, Note_on_c, 0, 59, 0
1, 34919, Note_on_c, 1, 37, 88
1, 34919, Note_on_c, 1, 40, 83
1, 34919, Note_on_c, 1, 46, 83
1, 34919, Note_on_c, 1, 43, 83
1, 34949, Note_on_c, 0, 82, 119
1, 34978, Note_on_c, 0, 82, 0
1, 34979, Note_on_c, 0, 88, 98
1, 35009, Note_on_c, 0, 79, 93
1, 35010, Note_on_c, 0, 88, 0
1, 35036, Note_on_c, 0, 79, 0
1, 35039, Note_on_c, 0, 82, 93
1, 35069, Note_on_c, 0, 82, 0
1, 35069, Note_on_c, 0, 76, 62
1, 35095, Note_on_c, 0, 76, 0
1, 35099, Note_on_c, 0, 79, 93
1, 35127, Note_on_c, 0, 79, 0
1, 35129, Note_on_c, 0, 70, 76
1, 35156, Note_on_c, 0, 70, 0
1, 35159, Note_on_c, 0, 75, 85
1, 35189, Note_on_c, 0, 75, 0
1, 35189, Note_on_c, 0, 67, 76
1, 35215, Note_on_c, 0, 67, 0
1, 35219, Note_on_c, 0, 70, 64
1, 35243, Note_on_c, 1, 43, 0
1, 35244, Note_on_c, 1, 40, 0
1, 35245, Note_on_c, 1, 37, 0
1, 35246, Note_on_c, 0, 70, 0
1, 35247, Note_on_c, 1, 46, 0
1, 35249, Note_on_c, 0, 64, 80
1, 35273, Note_on_c, 0, 64, 0
1, 35281, Note_on_c, 1, 38, 50
1, 35301, Note_on_c, 1, 38, 0
1, 35311, Note_on_c, 1, 41, 41
1, 35339, Note_on_c, 1, 41, 0
1, 35341, Note_on_c, 1, 46, 52
1, 35366, Note_on_c, 1, 46, 0
1, 35371, Note_on_c, 1, 50, 45
1, 35382, Note_on_c, 1, 50, 0
1, 35401, Note_on_c, 0, 65, 68
1, 35429, Note_on_c, 0, 65, 0
1, 35429, Note_on_c, 0, 70, 52
1, 35453, Note_on_c, 0, 70, 0
1, 35459, Note_on_c, 0, 74, 68
1, 35482, Note_on_c, 0, 74, 0
1, 35489, Note_on_c, 0, 77, 60
1, 35497, Note_on_c, 0, 77, 0
1, 35519, Note_on_c, 1, 39, 47
1, 35545, Note_on_c, 1, 39, 0
1, 35549, Note_on_c, 0, 67, 68
1, 35574, Note_on_c, 0, 67, 0
1, 35579, Note_on_c, 0, 70, 72
1, 35599, Note_on_c, 0, 70, 0
1, 35609, Note_on_c, 0, 79, 68
1, 35617, Note_on_c, 0, 79, 0
1, 35641, Note_on_c, 1, 41, 52
1, 35667, Note_on_c, 1, 41, 0
1, 35670, Note_on_c, 1, 46, 49
1, 35697, Note_on_c, 1, 46, 0
1, 35699, Note_on_c, 1, 50, 62
1, 35722, Note_on_c, 1, 50, 0
1, 35729, Note_on_c, 1, 53, 45
1, 35743, Note_on_c, 1, 53, 0
1, 35759, Note_on_c, 0, 62, 64
1, 35785, Note_on_c, 0, 62, 0
1, 35789, Note_on_c, 0, 65, 49
1, 35808, Note_on_c, 0, 65, 0
1, 35819, Note_on_c, 0, 70, 64
1, 35835, Note_on_c, 0, 70, 0
1, 35849, Note_on_c, 0, 74, 57
1, 35857, Note_on_c, 0, 74, 0
1, 35881, Note_on_c, 1, 29, 52
1, 35909, Note_on_c, 0, 60, 51
1, 35915, Note_on_c, 1, 29, 0
1, 35939, Note_on_c, 0, 63, 56
1, 35941, Note_on_c, 0, 60, 0
1, 35959, Note_on_c, 0, 63, 0
1, 35969, Note_on_c, 0, 69, 64
1, 35975, Note_on_c, 0, 69, 0
1, 35999, Note_on_c, 0, 70, 72
1, 36001, Note_on_c, 1, 58, 40
1, 36001, Note_on_c, 1, 62, 50
1, 36061, Note_on_c, 1, 62, 0
1, 36061, Note_on_c, 1, 65, 45
1, 36116, Note_on_c, 1, 65, 0
1, 36121, Note_on_c, 1, 62, 52
1, 36135, Note_on_c, 0, 70, 0
1, 36177, Note_on_c, 1, 62, 0
1, 36180, Note_on_c, 1, 65, 52
1, 36236, Note_on_c, 1, 65, 0
1, 36239, Note_on_c, 0, 82, 76
1, 36239, Note_on_c, 1, 60, 54
1, 36239, Note_on_c, 1, 63, 47
1, 36258, Note_on_c, 0, 82, 0
1, 36259, Note_on_c, 0, 81, 76
1, 36276, Note_on_c, 0, 81, 0
1, 36279, Note_on_c, 0, 84, 59
1, 36294, Note_on_c, 0, 84, 0
1, 36298, Note_on_c, 0, 82, 68
1, 36298, Note_on_c, 1, 63, 0
1, 36299, Note_on_c, 1, 65, 66
1, 36303, Note_on_c, 1, 60, 0
1, 36318, Note_on_c, 0, 81, 72
1, 36319, Note_on_c, 0, 82, 0
1, 36328, Note_on_c, 1, 58, 0
1, 36334, Note_on_c, 1, 65, 0
1, 36337, Note_on_c, 0, 81, 0
1, 36338, Note_on_c, 0, 79, 59
1, 36359, Note_on_c, 0, 77, 76
1, 36359, Note_on_c, 1, 58, 50
1, 36360, Note_on_c, 1, 62, 54
1, 36361, Note_on_c, 0, 79, 0
1, 36419, Note_on_c, 1, 62, 0
1, 36419, Note_on_c, 1, 65, 52
1, 36477, Note_on_c, 1, 65, 0
1, 36479, Note_on_c, 1, 62, 50
1, 36499, Note_on_c, 0, 76, 80
1, 36502, Note_on_c, 0, 77, 0
1, 36517, Note_on_c, 0, 76, 0
1, 36519, Note_on_c, 0, 79, 76
1, 36538, Note_on_c, 0, 79, 0
1, 36539, Note_on_c, 0, 77, 80
1, 36539, Note_on_c, 1, 62, 0
1, 36539, Note_on_c, 1, 65, 46
1, 36559, Note_on_c, 0, 75, 64
1, 36561, Note_on_c, 0, 77, 0
1, 36579, Note_on_c, 0, 74, 80
1, 36582, Note_on_c, 0, 75, 0
1, 36599, Note_on_c, 0, 72, 76
1, 36599, Note_on_c, 1, 63, 52
1, 36601, Note_on_c, 0, 74, 0
1, 36602, Note_on_c, 1, 65, 0
1, 36619, Note_on_c, 0, 71, 85
1, 36622, Note_on_c, 0, 72, 0
1, 36639, Note_on_c, 0, 71, 0
1, 36639, Note_on_c, 0, 74, 80
1, 36659, Note_on_c, 0, 72, 72
1, 36660, Note_on_c, 0, 74, 0
1, 36661, Note_on_c, 1, 63, 0
1, 36661, Note_on_c, 1, 65, 52
1, 36679, Note_on_c, 0, 70, 80
1, 36680, Note_on_c, 0, 72, 0
1, 36681, Note_on_c, 1, 65, 0
1, 36688, Note_on_c, 1, 58, 0
1, 36699, Note_on_c, 0, 69, 89
1, 36700, Note_on_c, 0, 70, 0
1, 36718, Note_on_c, 0, 69, 0
1, 36719, Note_on_c, 0, 75, 98
1, 36719, Note_on_c, 1, 58, 58
1, 36719, Note_on_c, 1, 69, 66
1, 36720, Note_on_c, 1, 60, 62
1, 36775, Note_on_c, 1, 69, 0
1, 36779, Note_on_c, 1, 60, 0
1, 36779, Note_on_c, 1, 65, 50
1, 36840, Note_on_c, 1, 65, 0
1, 36840, Note_on_c, 1, 70, 62
1, 36840, Note_on_c, 1, 62, 66
1, 36841, Note_on_c, 0, 75, 0
1, 36841, Note_on_c, 0, 74, 72
1, 36897, Note_on_c, 1, 70, 0
1, 36898, Note_on_c, 1, 62, 0
1, 36899, Note_on_c, 1, 65, 58
1, 36903, Note_on_c, 0, 74, 0
1, 36955, Note_on_c, 1, 65, 0
1, 36959, Note_on_c, 0, 82, 89
1, 36959, Note_on_c, 1, 63, 54
1, 36959, Note_on_c, 1, 60, 45
1, 36979, Note_on_c, 0, 82, 0
1, 36979, Note_on_c, 0, 81, 80
1, 36997, Note_on_c, 0, 81, 0
1, 36999, Note_on_c, 0, 84, 89
1, 37017, Note_on_c, 1, 60, 0
1, 37019, Note_on_c, 0, 84, 0
1, 37019, Note_on_c, 0, 82, 80
1, 37019, Note_on_c, 1, 65, 58
1, 37020, Note_on_c, 1, 63, 0
1, 37039, Note_on_c, 0, 81, 85
1, 37039, Note_on_c, 1, 65, 0
1, 37041, Note_on_c, 0, 82, 0
1, 37041, Note_on_c, 1, 58, 0
1, 37059, Note_on_c, 0, 81, 0
1, 37059, Note_on_c, 0, 79, 72
1, 37079, Note_on_c, 0, 77, 89
1, 37079, Note_on_c, 1, 58, 52
1, 37079, Note_on_c, 1, 62, 75
1, 37080, Note_on_c, 0, 79, 0
1, 37141, Note_on_c, 1, 65, 54
1, 37142, Note_on_c, 1, 62, 0
1, 37200, Note_on_c, 1, 65, 0
1, 37201, Note_on_c, 1, 62, 52
1, 37219, Note_on_c, 0, 76, 85
1, 37222, Note_on_c, 0, 77, 0
1, 37241, Note_on_c, 0, 76, 0
1, 37241, Note_on_c, 0, 79, 85
1, 37259, Note_on_c, 1, 62, 0
1, 37259, Note_on_c, 1, 65, 50
1, 37261, Note_on_c, 0, 77, 89
1, 37263, Note_on_c, 0, 79, 0
1, 37281, Note_on_c, 0, 75, 80
1, 37283, Note_on_c, 0, 77, 0
1, 37301, Note_on_c, 0, 74, 85
1, 37304, Note_on_c, 0, 75, 0
1, 37320, Note_on_c, 1, 63, 50
1, 37321, Note_on_c, 0, 74, 0
1, 37321, Note_on_c, 0, 72, 76
1, 37322, Note_on_c, 1, 65, 0
1, 37341, Note_on_c, 0, 71, 80
1, 37342, Note_on_c, 0, 72, 0
1, 37359, Note_on_c, 0, 71, 0
1, 37359, Note_on_c, 0, 74, 80
1, 37378, Note_on_c, 1, 63, 0
1, 37379, Note_on_c, 0, 74, 0
1, 37379, Note_on_c, 0, 72, 89
1, 37379, Note_on_c, 1, 65, 58
1, 37398, Note_on_c, 1, 65, 0
1, 37398, Note_on_c, 1, 58, 0
1, 37399, Note_on_c, 0, 70, 76
1, 37403, Note_on_c, 0, 72, 0
1, 37418, Note_on_c, 0, 70, 0
1, 37419, Note_on_c, 0, 69, 93
1, 37434, Note_on_c, 0, 69, 0
1, 37439, Note_on_c, 0, 79, 102
1, 37439, Note_on_c, 1, 63, 70
1, 37439, Note_on_c, 1, 58, 58
1, 37439, Note_on_c, 1, 69, 79
1, 37526, Note_on_c, 1, 69, 0
1, 37529, Note_on_c, 1, 63, 0
1, 37559, Note_on_c, 0, 79, 0
1, 37559, Note_on_c, 0, 77, 62
1, 37559, Note_on_c, 1, 70, 45
1, 37559, Note_on_c, 1, 62, 47
1, 37579, Note_on_c, 0, 76, 62
1, 37582, Note_on_c, 0, 77, 0
1, 37598, Note_on_c, 0, 76, 0
1, 37599, Note_on_c, 0, 79, 76
1, 37619, Note_on_c, 0, 77, 76
1, 37620, Note_on_c, 1, 62, 0
1, 37622, Note_on_c, 0, 79, 0
1, 37623, Note_on_c, 1, 70, 0
1, 37626, Note_on_c, 1, 58, 0
1, 37639, Note_on_c, 0, 75, 64
1, 37640, Note_on_c, 0, 77, 0
1, 37659, Note_on_c, 0, 75, 0
1, 37659, Note_on_c, 0, 74, 62
1, 37679, Note_on_c, 0, 72, 80
1, 37681, Note_on_c, 0, 74, 0
1, 37700, Note_on_c, 0, 72, 0
1, 37700, Note_on_c, 0, 71, 68
1, 37719, Note_on_c, 0, 74, 72
1, 37721, Note_on_c, 0, 71, 0
1, 37740, Note_on_c, 0, 72, 72
1, 37742, Note_on_c, 0, 74, 0
1, 37759, Note_on_c, 0, 70, 72
1, 37762, Note_on_c, 0, 72, 0
1, 37780, Note_on_c, 0, 70, 0
1, 37780, Note_on_c, 0, 69, 80
1, 37800, Note_on_c, 0, 69, 0
1, 37800, Note_on_c, 1, 58, 75
1, 37800, Note_on_c, 1, 69, 70
1, 37800, Note_on_c, 1, 63, 66
1, 37801, Note_on_c, 0, 78, 93
1, 37877, Note_on_c, 1, 63, 0
1, 37877, Note_on_c, 1, 69, 0
1, 37919, Note_on_c, 0, 77, 57
1, 37919, Note_on_c, 1, 61, 43
1, 37919, Note_on_c, 1, 70, 54
1, 37921, Note_on_c, 0, 78, 0
1, 37940, Note_on_c, 0, 76, 62
1, 37944, Note_on_c, 0, 77, 0
1, 37959, Note_on_c, 0, 76, 0
1, 37959, Note_on_c, 0, 78, 59
1, 37979, Note_on_c, 0, 77, 68
1, 37981, Note_on_c, 1, 58, 0
1, 37982, Note_on_c, 1, 70, 0
1, 37984, Note_on_c, 1, 61, 0
1, 37985, Note_on_c, 0, 78, 0
1, 37999, Note_on_c, 0, 75, 62
1, 38000, Note_on_c, 0, 77, 0
1, 38019, Note_on_c, 0, 75, 0
1, 38019, Note_on_c, 0, 73, 56
1, 38039, Note_on_c, 0, 72, 64
1, 38040, Note_on_c, 0, 73, 0
1, 38060, Note_on_c, 0, 72, 0
1, 38060, Note_on_c, 0, 70, 56
1, 38079, Note_on_c, 0, 73, 62
1, 38082, Note_on_c, 0, 70, 0
1, 38098, Note_on_c, 0, 73, 0
1, 38100, Note_on_c, 0, 72, 76
1, 38120, Note_on_c, 0, 70, 76
1, 38121, Note_on_c, 0, 72, 0
1, 38139, Note_on_c, 0, 70, 0
1, 38140, Note_on_c, 0, 68, 76
1, 38158, Note_on_c, 0, 68, 0
1, 38161, Note_on_c, 0, 82, 102
1, 38161, Note_on_c, 1, 66, 70
1, 38161, Note_on_c, 1, 63, 75
1, 38161, Note_on_c, 1, 60, 83
1, 38278, Note_on_c, 0, 82, 0
1, 38279, Note_on_c, 0, 80, 76
1, 38320, Note_on_c, 0, 80, 0
1, 38339, Note_on_c, 0, 80, 62
1, 38349, Note_on_c, 0, 80, 0
1, 38399, Note_on_c, 0, 80, 98
1, 38408, Note_on_c, 0, 80, 0
1, 38459, Note_on_c, 0, 80, 119
1, 38468, Note_on_c, 1, 66, 0
1, 38470, Note_on_c, 0, 80, 0
1, 38470, Note_on_c, 1, 63, 0
1, 38474, Note_on_c, 1, 60, 0
1, 38518, Note_on_c, 0, 80, 119
1, 38519, Note_on_c, 1, 65, 83
1, 38519, Note_on_c, 1, 61, 70
1, 38521, Note_on_c, 0, 80, 107
1, 38669, Note_on_c, 0, 80, 0
1, 38670, Note_on_c, 0, 82, 85
1, 38684, Note_on_c, 0, 80, 80
1, 38686, Note_on_c, 0, 82, 0
1, 38688, Note_on_c, 0, 80, 0
1, 38698, Note_on_c, 0, 78, 80
1, 38700, Note_on_c, 0, 80, 0
1, 38711, Note_on_c, 0, 78, 0
1, 38711, Note_on_c, 0, 77, 64
1, 38726, Note_on_c, 0, 77, 0
1, 38726, Note_on_c, 0, 75, 76
1, 38740, Note_on_c, 0, 73, 62
1, 38743, Note_on_c, 0, 75, 0
1, 38745, Note_on_c, 1, 61, 0
1, 38748, Note_on_c, 1, 65, 0
1, 38754, Note_on_c, 0, 73, 0
1, 38754, Note_on_c, 0, 71, 93
1, 38760, Note_on_c, 1, 63, 62
1, 38760, Note_on_c, 1, 66, 62
1, 38770, Note_on_c, 0, 71, 0
1, 38787, Note_on_c, 0, 73, 76
1, 38796, Note_on_c, 0, 71, 68
1, 38797, Note_on_c, 0, 73, 0
1, 38802, Note_on_c, 0, 70, 53
1, 38804, Note_on_c, 0, 71, 0
1, 38812, Note_on_c, 0, 71, 85
1, 38813, Note_on_c, 0, 70, 0
1, 38818, Note_on_c, 0, 71, 0
1, 38819, Note_on_c, 0, 75, 85
1, 38846, Note_on_c, 0, 75, 0
1, 38847, Note_on_c, 0, 78, 76
1, 38874, Note_on_c, 0, 78, 0
1, 38875, Note_on_c, 0, 70, 89
1, 38879, Note_on_c, 1, 53, 50
1, 38879, Note_on_c, 1, 61, 62
1, 38880, Note_on_c, 1, 66, 0
1, 38880, Note_on_c, 1, 63, 0
1, 38939, Note_on_c, 1, 62, 62
1, 38941, Note_on_c, 1, 61, 0
1, 39000, Note_on_c, 1, 63, 66
1, 39002, Note_on_c, 1, 62, 0
1, 39058, Note_on_c, 1, 63, 0
1, 39059, Note_on_c, 0, 70, 0
1, 39059, Note_on_c, 0, 72, 89
1, 39059, Note_on_c, 1, 64, 50
1, 39074, Note_on_c, 0, 70, 68
1, 39080, Note_on_c, 0, 72, 0
1, 39089, Note_on_c, 0, 69, 76
1, 39090, Note_on_c, 0, 70, 0
1, 39103, Note_on_c, 0, 70, 76
1, 39105, Note_on_c, 0, 69, 0
1, 39119, Note_on_c, 0, 70, 0
1, 39119, Note_on_c, 1, 65, 47
1, 39120, Note_on_c, 0, 73, 93
1, 39121, Note_on_c, 1, 64, 0
1, 39175, Note_on_c, 0, 73, 0
1, 39176, Note_on_c, 0, 72, 85
1, 39180, Note_on_c, 1, 63, 46
1, 39183, Note_on_c, 1, 65, 0
1, 39208, Note_on_c, 1, 53, 0
1, 39237, Note_on_c, 0, 72, 0
1, 39239, Note_on_c, 0, 70, 89
1, 39239, Note_on_c, 1, 63, 0
1, 39240, Note_on_c, 1, 58, 46
1, 39241, Note_on_c, 0, 70, 80
1, 39241, Note_on_c, 1, 62, 66
1, 39254, Note_on_c, 0, 70, 0
1, 39254, Note_on_c, 0, 86, 102
1, 39255, Note_on_c, 0, 70, 0
1, 39301, Note_on_c, 1, 65, 62
1, 39305, Note_on_c, 1, 62, 0
1, 39361, Note_on_c, 1, 65, 0
1, 39361, Note_on_c, 1, 62, 62
1, 39418, Note_on_c, 1, 62, 0
1, 39420, Note_on_c, 1, 65, 62
1, 39479, Note_on_c, 1, 65, 0
1, 39479, Note_on_c, 1, 60, 70
1, 39479, Note_on_c, 1, 51, 52
1, 39481, Note_on_c, 1, 58, 0
1, 39493, Note_on_c, 0, 86, 0
1, 39494, Note_on_c, 0, 84, 89
1, 39508, Note_on_c, 0, 87, 76
1, 39510, Note_on_c, 0, 84, 0
1, 39520, Note_on_c, 0, 87, 0
1, 39521, Note_on_c, 0, 86, 93
1, 39535, Note_on_c, 0, 86, 0
1, 39535, Note_on_c, 0, 84, 80
1, 39540, Note_on_c, 1, 63, 54
1, 39541, Note_on_c, 1, 60, 0
1, 39550, Note_on_c, 0, 82, 68
1, 39552, Note_on_c, 0, 84, 0
1, 39564, Note_on_c, 0, 81, 68
1, 39565, Note_on_c, 0, 82, 0
1, 39565, Note_on_c, 1, 63, 0
1, 39569, Note_on_c, 1, 51, 0
1, 39580, Note_on_c, 0, 81, 0
1, 39580, Note_on_c, 0, 79, 72
1, 39596, Note_on_c, 0, 79, 0
1, 39596, Note_on_c, 0, 77, 85
1, 39599, Note_on_c, 1, 58, 50
1, 39599, Note_on_c, 1, 53, 47
1, 39661, Note_on_c, 1, 62, 49
1, 39666, Note_on_c, 1, 58, 0
1, 39717, Note_on_c, 1, 62, 0
1, 39721, Note_on_c, 1, 58, 32
1, 39750, Note_on_c, 0, 82, 72
1, 39751, Note_on_c, 0, 77, 0
1, 39775, Note_on_c, 1, 58, 0
1, 39779, Note_on_c, 1, 62, 47
1, 39781, Note_on_c, 0, 74, 64
1, 39782, Note_on_c, 0, 82, 0
1, 39794, Note_on_c, 1, 53, 0
1, 39796, Note_on_c, 1, 62, 0
1, 39810, Note_on_c, 0, 79, 62
1, 39811, Note_on_c, 0, 74, 0
1, 39839, Note_on_c, 0, 79, 0
1, 39839, Note_on_c, 1, 57, 58
1, 39839, Note_on_c, 1, 53, 34
1, 39840, Note_on_c, 0, 77, 68
1, 39870, Note_on_c, 0, 77, 0
1, 39870, Note_on_c, 0, 75, 72
1, 39896, Note_on_c, 1, 57, 0
1, 39899, Note_on_c, 1, 60, 66
1, 39900, Note_on_c, 0, 75, 0
1, 39900, Note_on_c, 0, 72, 72
1, 39909, Note_on_c, 1, 60, 0
1, 39911, Note_on_c, 1, 53, 0
1, 39929, Note_on_c, 0, 72, 0
1, 39930, Note_on_c, 0, 69, 76
1, 39959, Note_on_c, 1, 62, 79
1, 39960, Note_on_c, 0, 86, 102
1, 39960, Note_on_c, 1, 58, 52
1, 39961, Note_on_c, 0, 69, 0
1, 40019, Note_on_c, 1, 65, 75
1, 40020, Note_on_c, 1, 62, 0
1, 40036, Note_on_c, 1, 65, 0
1, 40039, Note_on_c, 1, 58, 0
1, 40079, Note_on_c, 1, 60, 75
1, 40079, Note_on_c, 1, 54, 66
1, 40137, Note_on_c, 1, 60, 0
1, 40139, Note_on_c, 1, 62, 79
1, 40199, Note_on_c, 1, 62, 0
1, 40200, Note_on_c, 1, 58, 52
1, 40200, Note_on_c, 1, 55, 62
1, 40201, Note_on_c, 1, 54, 0
1, 40215, Note_on_c, 0, 86, 0
1, 40215, Note_on_c, 0, 84, 80
1, 40229, Note_on_c, 0, 87, 80
1, 40232, Note_on_c, 0, 84, 0
1, 40243, Note_on_c, 0, 87, 0
1, 40243, Note_on_c, 0, 86, 85
1, 40257, Note_on_c, 1, 55, 0
1, 40258, Note_on_c, 0, 84, 76
1, 40259, Note_on_c, 0, 86, 0
1, 40259, Note_on_c, 1, 52, 47
1, 40259, Note_on_c, 1, 61, 62
1, 40260, Note_on_c, 1, 58, 0
1, 40273, Note_on_c, 0, 82, 72
1, 40276, Note_on_c, 0, 84, 0
1, 40287, Note_on_c, 0, 81, 72
1, 40289, Note_on_c, 0, 82, 0
1, 40302, Note_on_c, 0, 81, 0
1, 40304, Note_on_c, 0, 79, 42
1, 40315, Note_on_c, 1, 61, 0
1, 40317, Note_on_c, 0, 79, 0
1, 40317, Note_on_c, 0, 77, 89
1, 40319, Note_on_c, 1, 52, 0
1, 40319, Note_on_c, 1, 53, 54
1, 40319, Note_on_c, 1, 62, 50
1, 40380, Note_on_c, 1, 62, 0
1, 40381, Note_on_c, 1, 65, 52
1, 40436, Note_on_c, 1, 65, 0
1, 40441, Note_on_c, 1, 62, 29
1, 40456, Note_on_c, 0, 78, 89
1, 40459, Note_on_c, 0, 77, 0
1, 40471, Note_on_c, 0, 81, 85
1, 40472, Note_on_c, 0, 78, 0
1, 40485, Note_on_c, 0, 79, 76
1, 40488, Note_on_c, 0, 81, 0
1, 40496, Note_on_c, 1, 62, 0
1, 40499, Note_on_c, 0, 77, 76
1, 40499, Note_on_c, 1, 65, 54
1, 40502, Note_on_c, 0, 79, 0
1, 40514, Note_on_c, 0, 75, 80
1, 40516, Note_on_c, 0, 77, 0
1, 40522, Note_on_c, 1, 53, 0
1, 40528, Note_on_c, 0, 74, 60
1, 40529, Note_on_c, 0, 75, 0
1, 40531, Note_on_c, 1, 65, 0
1, 40543, Note_on_c, 0, 72, 80
1, 40545, Note_on_c, 0, 74, 0
1, 40558, Note_on_c, 0, 70, 59
1, 40559, Note_on_c, 0, 72, 0
1, 40559, Note_on_c, 1, 53, 43
1, 40559, Note_on_c, 1, 60, 62
1, 40573, Note_on_c, 0, 70, 0
1, 40574, Note_on_c, 0, 69, 57
1, 40588, Note_on_c, 0, 69, 0
1, 40589, Note_on_c, 0, 75, 62
1, 40603, Note_on_c, 0, 74, 76
1, 40606, Note_on_c, 0, 75, 0
1, 40617, Note_on_c, 0, 74, 0
1, 40617, Note_on_c, 1, 60, 0
1, 40618, Note_on_c, 0, 77, 80
1, 40619, Note_on_c, 1, 63, 47
1, 40629, Note_on_c, 1, 53, 0
1, 40634, Note_on_c, 0, 75, 62
1, 40636, Note_on_c, 0, 77, 0
1, 40639, Note_on_c, 1, 63, 0
1, 40649, Note_on_c, 0, 72, 76
1, 40651, Note_on_c, 0, 75, 0
1, 40664, Note_on_c, 0, 72, 0
1, 40664, Note_on_c, 0, 69, 72
1, 40679, Note_on_c, 1, 58, 46
1, 40679, Note_on_c, 1, 62, 54
1, 40680, Note_on_c, 0, 70, 85
1, 40682, Note_on_c, 0, 69, 0
1, 40698, Note_on_c, 0, 70, 0
1, 40698, Note_on_c, 0, 69, 85
1, 40717, Note_on_c, 0, 69, 0
1, 40717, Note_on_c, 0, 72, 85
1, 40739, Note_on_c, 0, 72, 0
1, 40739, Note_on_c, 0, 70, 80
1, 40759, Note_on_c, 0, 69, 85
1, 40760, Note_on_c, 0, 70, 0
1, 40778, Note_on_c, 0, 69, 0
1, 40779, Note_on_c, 0, 67, 85
1, 40798, Note_on_c, 0, 67, 0
1, 40798, Note_on_c, 0, 65, 76
1, 40798, Note_on_c, 1, 62, 0
1, 40800, Note_on_c, 1, 58, 0
1, 40817, Note_on_c, 0, 65, 0
1, 40819, Note_on_c, 0, 64, 80
1, 40838, Note_on_c, 0, 67, 76
1, 40839, Note_on_c, 0, 64, 0
1, 40857, Note_on_c, 0, 67, 0
1, 40858, Note_on_c, 0, 65, 89
1, 40879, Note_on_c, 0, 65, 0
1, 40879, Note_on_c, 0, 63, 68
1, 40898, Note_on_c, 0, 62, 76
1, 40900, Note_on_c, 0, 63, 0
1, 40919, Note_on_c, 0, 62, 0
1, 40919, Note_on_c, 0, 60, 80
1, 40940, Note_on_c, 0, 59, 76
1, 40941, Note_on_c, 0, 60, 0
1, 40958, Note_on_c, 0, 59, 0
1, 40959, Note_on_c, 0, 62, 76
1, 40978, Note_on_c, 0, 62, 0
1, 40979, Note_on_c, 0, 60, 76
1, 40999, Note_on_c, 0, 58, 72
1, 41001, Note_on_c, 0, 60, 0
1, 41018, Note_on_c, 0, 57, 89
1, 41020, Note_on_c, 0, 58, 0
1, 41039, Note_on_c, 0, 57, 0
1, 41039, Note_on_c, 0, 55, 89
1, 41039, Note_on_c, 1, 45, 83
1, 41039, Note_on_c, 1, 51, 70
1, 41159, Note_on_c, 0, 55, 0
1, 41159, Note_on_c, 0, 53, 59
1, 41219, Note_on_c, 0, 77, 89
1, 41220, Note_on_c, 0, 53, 0
1, 41228, Note_on_c, 0, 77, 0
1, 41279, Note_on_c, 0, 77, 93
1, 41279, Note_on_c, 1, 63, 46
1, 41279, Note_on_c, 1, 57, 47
1, 41283, Note_on_c, 1, 51, 0
1, 41283, Note_on_c, 1, 45, 0
1, 41287, Note_on_c, 0, 77, 0
1, 41339, Note_on_c, 0, 77, 89
1, 41348, Note_on_c, 0, 77, 0
1, 41349, Note_on_c, 1, 63, 0
1, 41352, Note_on_c, 1, 57, 0
1, 41396, Note_on_c, 0, 77, 93
1, 41399, Note_on_c, 1, 58, 47
1, 41399, Note_on_c, 1, 62, 58
1, 41403, Note_on_c, 0, 78, 80
1, 41417, Note_on_c, 0, 79, 80
1, 41418, Note_on_c, 0, 78, 0
1, 41426, Note_on_c, 1, 58, 0
1, 41427, Note_on_c, 1, 62, 0
1, 41429, Note_on_c, 0, 79, 0
1, 41431, Note_on_c, 0, 81, 72
1, 41440, Note_on_c, 0, 77, 0
1, 41444, Note_on_c, 0, 79, 76
1, 41445, Note_on_c, 0, 81, 0
1, 41458, Note_on_c, 0, 77, 80
1, 41459, Note_on_c, 0, 79, 0
1, 41461, Note_on_c, 1, 63, 58
1, 41461, Note_on_c, 1, 51, 50
1, 41473, Note_on_c, 0, 75, 64
1, 41475, Note_on_c, 0, 77, 0
1, 41487, Note_on_c, 0, 75, 0
1, 41487, Note_on_c, 0, 74, 59
1, 41487, Note_on_c, 1, 63, 0
1, 41488, Note_on_c, 1, 51, 0
1, 41501, Note_on_c, 0, 72, 72
1, 41502, Note_on_c, 0, 74, 0
1, 41516, Note_on_c, 0, 72, 0
1, 41516, Note_on_c, 0, 70, 76
1, 41519, Note_on_c, 1, 62, 62
1, 41519, Note_on_c, 1, 53, 49
1, 41573, Note_on_c, 0, 70, 0
1, 41575, Note_on_c, 0, 72, 80
1, 41589, Note_on_c, 0, 70, 68
1, 41592, Note_on_c, 0, 72, 0
1, 41602, Note_on_c, 0, 69, 62
1, 41604, Note_on_c, 0, 70, 0
1, 41618, Note_on_c, 0, 69, 0
1, 41618, Note_on_c, 0, 70, 72
1, 41635, Note_on_c, 0, 70, 0
1, 41636, Note_on_c, 0, 74, 80
1, 41641, Note_on_c, 1, 54, 46
1, 41643, Note_on_c, 1, 53, 0
1, 41699, Note_on_c, 0, 74, 0
1, 41700, Note_on_c, 0, 72, 62
1, 41723, Note_on_c, 0, 72, 0
1, 41728, Note_on_c, 1, 54, 0
1, 41729, Note_on_c, 1, 62, 0
1, 41759, Note_on_c, 0, 70, 68
1, 41759, Note_on_c, 1, 55, 54
1, 41760, Note_on_c, 0, 62, 64
1, 41779, Note_on_c, 1, 54, 47
1, 41781, Note_on_c, 1, 55, 0
1, 41800, Note_on_c, 1, 54, 0
1, 41800, Note_on_c, 1, 57, 52
1, 41819, Note_on_c, 1, 57, 0
1, 41819, Note_on_c, 1, 55, 62
1, 41838, Note_on_c, 1, 55, 0
1, 41839, Note_on_c, 1, 53, 43
1, 41857, Note_on_c, 1, 53, 0
1, 41859, Note_on_c, 1, 51, 52
1, 41879, Note_on_c, 0, 70, 0
1, 41879, Note_on_c, 1, 51, 0
1, 41879, Note_on_c, 1, 50, 62
1, 41880, Note_on_c, 0, 62, 0
1, 41900, Note_on_c, 1, 50, 0
1, 41900, Note_on_c, 1, 48, 54
1, 41918, Note_on_c, 1, 48, 0
1, 41919, Note_on_c, 1, 51, 50
1, 41938, Note_on_c, 1, 51, 0
1, 41939, Note_on_c, 1, 50, 66
1, 41959, Note_on_c, 1, 48, 62
1, 41960, Note_on_c, 1, 50, 0
1, 41977, Note_on_c, 1, 48, 0
1, 41981, Note_on_c, 1, 46, 66
1, 42000, Note_on_c, 1, 44, 49
1, 42001, Note_on_c, 1, 46, 0
1, 42021, Note_on_c, 1, 44, 0
1, 42021, Note_on_c, 1, 43, 62
1, 42041, Note_on_c, 1, 46, 58
1, 42043, Note_on_c, 1, 43, 0
1, 42059, Note_on_c, 1, 44, 50
1, 42060, Note_on_c, 1, 46, 0
1, 42079, Note_on_c, 1, 44, 0
1, 42079, Note_on_c, 1, 43, 54
1, 42099, Note_on_c, 1, 41, 66
1, 42100, Note_on_c, 1, 43, 0
1, 42120, Note_on_c, 1, 41, 0
1, 42120, Note_on_c, 1, 39, 66
1, 42121, Note_on_c, 0, 70, 89
1, 42121, Note_on_c, 0, 79, 102
1, 42200, Note_on_c, 0, 79, 0
1, 42201, Note_on_c, 0, 70, 0
1, 42238, Note_on_c, 1, 39, 0
1, 42239, Note_on_c, 1, 38, 50
1, 42242, Note_on_c, 0, 80, 56
1, 42242, Note_on_c, 0, 71, 57
1, 42274, Note_on_c, 1, 38, 0
1, 42288, Note_on_c, 0, 71, 0
1, 42288, Note_on_c, 0, 80, 0
1, 42298, Note_on_c, 0, 71, 80
1, 42299, Note_on_c, 0, 80, 80
1, 42299, Note_on_c, 1, 38, 62
1, 42304, Note_on_c, 0, 71, 0
1, 42306, Note_on_c, 0, 80, 0
1, 42319, Note_on_c, 1, 38, 0
1, 42360, Note_on_c, 0, 80, 85
1, 42360, Note_on_c, 0, 71, 85
1, 42361, Note_on_c, 1, 38, 66
1, 42369, Note_on_c, 0, 71, 0
1, 42369, Note_on_c, 0, 80, 0
1, 42376, Note_on_c, 1, 38, 0
1, 42419, Note_on_c, 1, 38, 75
1, 42421, Note_on_c, 0, 71, 93
1, 42421, Note_on_c, 0, 80, 85
1, 42431, Note_on_c, 0, 71, 0
1, 42433, Note_on_c, 0, 80, 0
1, 42435, Note_on_c, 1, 38, 0
1, 42479, Note_on_c, 0, 78, 89
1, 42479, Note_on_c, 1, 39, 62
1, 42480, Note_on_c, 0, 72, 72
1, 42490, Note_on_c, 0, 78, 0
1, 42492, Note_on_c, 0, 79, 72
1, 42505, Note_on_c, 0, 79, 0
1, 42505, Note_on_c, 0, 81, 76
1, 42521, Note_on_c, 0, 81, 0
1, 42521, Note_on_c, 0, 79, 80
1, 42536, Note_on_c, 0, 79, 0
1, 42537, Note_on_c, 0, 77, 76
1, 42540, Note_on_c, 0, 72, 0
1, 42551, Note_on_c, 1, 39, 0
1, 42553, Note_on_c, 0, 75, 72
1, 42555, Note_on_c, 0, 77, 0
1, 42568, Note_on_c, 0, 75, 0
1, 42568, Note_on_c, 0, 74, 62
1, 42581, Note_on_c, 0, 72, 56
1, 42585, Note_on_c, 0, 74, 0
1, 42599, Note_on_c, 0, 72, 0
1, 42600, Note_on_c, 0, 65, 72
1, 42600, Note_on_c, 0, 70, 62
1, 42600, Note_on_c, 1, 62, 62
1, 42601, Note_on_c, 1, 53, 47
1, 42660, Note_on_c, 0, 70, 0
1, 42660, Note_on_c, 0, 72, 62
1, 42675, Note_on_c, 0, 72, 0
1, 42675, Note_on_c, 0, 70, 62
1, 42690, Note_on_c, 0, 70, 0
1, 42690, Note_on_c, 0, 69, 62
1, 42705, Note_on_c, 0, 69, 0
1, 42705, Note_on_c, 0, 70, 62
1, 42720, Note_on_c, 0, 70, 0
1, 42720, Note_on_c, 0, 65, 0
1, 42720, Note_on_c, 0, 69, 72
1, 42720, Note_on_c, 0, 74, 62
1, 42720, Note_on_c, 1, 63, 49
1, 42723, Note_on_c, 1, 62, 0
1, 42780, Note_on_c, 0, 74, 0
1, 42780, Note_on_c, 0, 72, 62
1, 42837, Note_on_c, 1, 53, 0
1, 42838, Note_on_c, 0, 70, 76
1, 42839, Note_on_c, 1, 63, 0
1, 42840, Note_on_c, 0, 72, 0
1, 42840, Note_on_c, 0, 69, 0
1, 42840, Note_on_c, 1, 58, 46
1, 42841, Note_on_c, 1, 62, 79
1, 42851, Note_on_c, 0, 70, 0
1, 42861, Note_on_c, 0, 89, 80
1, 42870, Note_on_c, 0, 89, 0
1, 42874, Note_on_c, 1, 62, 0
1, 42881, Note_on_c, 0, 86, 89
1, 42888, Note_on_c, 0, 86, 0
1, 42901, Note_on_c, 0, 82, 76
1, 42907, Note_on_c, 1, 58, 0
1, 42909, Note_on_c, 0, 82, 0
1, 42921, Note_on_c, 0, 77, 72
1, 42929, Note_on_c, 0, 77, 0
1, 42941, Note_on_c, 0, 74, 80
1, 42948, Note_on_c, 0, 74, 0
1, 42961, Note_on_c, 0, 70, 93
1, 42970, Note_on_c, 0, 70, 0
1, 42981, Note_on_c, 1, 46, 66
1, 42990, Note_on_c, 1, 46, 0
1, 43001, Note_on_c, 1, 50, 75
1, 43007, Note_on_c, 1, 50, 0
1, 43021, Note_on_c, 1, 53, 66
1, 43031, Note_on_c, 1, 53, 0
1, 43041, Note_on_c, 1, 58, 62
1, 43050, Note_on_c, 1, 58, 0
1, 43061, Note_on_c, 1, 62, 62
1, 43068, Note_on_c, 1, 62, 0
1, 43081, Note_on_c, 1, 65, 70
1, 43096, Note_on_c, 1, 65, 0
1, 43101, Note_on_c, 0, 69, 72
1, 43121, Note_on_c, 0, 72, 72
1, 43123, Note_on_c, 0, 69, 0
1, 43141, Note_on_c, 0, 75, 72
1, 43143, Note_on_c, 0, 72, 0
1, 43161, Note_on_c, 0, 72, 72
1, 43163, Note_on_c, 0, 75, 0
1, 43180, Note_on_c, 0, 72, 0
1, 43181, Note_on_c, 0, 69, 60
1, 43190, Note_on_c, 0, 69, 0
1, 43201, Note_on_c, 0, 70, 80
1, 43201, Note_on_c, 1, 58, 52
1, 43209, Note_on_c, 0, 70, 0
1, 43221, Note_on_c, 0, 77, 80
1, 43230, Note_on_c, 0, 77, 0
1, 43241, Note_on_c, 0, 74, 62
1, 43247, Note_on_c, 0, 74, 0
1, 43258, Note_on_c, 1, 58, 0
1, 43261, Note_on_c, 0, 70, 76
1, 43269, Note_on_c, 0, 70, 0
1, 43281, Note_on_c, 0, 65, 64
1, 43289, Note_on_c, 0, 65, 0
1, 43301, Note_on_c, 0, 62, 89
1, 43308, Note_on_c, 0, 62, 0
1, 43321, Note_on_c, 0, 58, 72
1, 43341, Note_on_c, 1, 34, 49
1, 43345, Note_on_c, 0, 58, 0
1, 43351, Note_on_c, 1, 34, 0
1, 43360, Note_on_c, 1, 38, 70
1, 43368, Note_on_c, 1, 38, 0
1, 43380, Note_on_c, 1, 41, 70
1, 43388, Note_on_c, 1, 41, 0
1, 43401, Note_on_c, 1, 46, 66
1, 43407, Note_on_c, 1, 46, 0
1, 43421, Note_on_c, 1, 50, 75
1, 43429, Note_on_c, 1, 50, 0
1, 43441, Note_on_c, 1, 53, 66
1, 43459, Note_on_c, 1, 53, 0
1, 43460, Note_on_c, 0, 57, 64
1, 43478, Note_on_c, 0, 57, 0
1, 43481, Note_on_c, 0, 60, 76
1, 43499, Note_on_c, 0, 60, 0
1, 43501, Note_on_c, 0, 63, 72
1, 43521, Note_on_c, 0, 60, 76
1, 43522, Note_on_c, 0, 63, 0
1, 43539, Note_on_c, 0, 60, 0
1, 43541, Note_on_c, 0, 57, 72
1, 43549, Note_on_c, 0, 57, 0
1, 43561, Note_on_c, 0, 60, 76
1, 43561, Note_on_c, 0, 57, 76
1, 43561, Note_on_c, 0, 53, 62
1, 43561, Note_on_c, 0, 51, 64
1, 43561, Note_on_c, 1, 34, 58
1, 43561, Note_on_c, 1, 46, 62
1, 43681, Note_on_c, 0, 51, 0
1, 43681, Note_on_c, 0, 60, 0
1, 43681, Note_on_c, 0, 58, 57
1, 43681, Note_on_c, 0, 50, 51
1, 43683, Note_on_c, 0, 57, 0
1, 43740, Note_on_c, 1, 46, 0
1, 43740, Note_on_c, 1, 34, 0
1, 43750, Note_on_c, 0, 50, 0
1, 43750, Note_on_c, 0, 58, 0
1, 43751, Note_on_c, 0, 53, 0
1, 43761, End_track
0, 0, End_of_file