0, 0, Header, 0, 1, 240
1, 0, Start_track
1, 0, Tempo, 434783
1, 480, Note_on_c, 0, 74, 64
1, 660, Note_on_c, 0, 74, 0
1, 660, Note_on_c, 0, 71, 64
1, 720, Note_on_c, 0, 71, 0
1, 720, Note_on_c, 0, 74, 72
1, 720, Note_on_c, 1, 55, 56
1, 840, Note_on_c, 1, 55, 0
1, 840, Note_on_c, 1, 59, 56
1, 912, Note_on_c, 0, 74, 0
1, 960, Note_on_c, 1, 59, 0
1, 960, Note_on_c, 1, 62, 56
1, 1080, Note_on_c, 1, 62, 0
1, 1080, Note_on_c, 1, 59, 56
1, 1200, Note_on_c, 0, 67, 64
1, 1200, Note_on_c, 1, 59, 0
1, 1200, Note_on_c, 1, 62, 56
1, 1320, Note_on_c, 1, 62, 0
1, 1320, Note_on_c, 1, 59, 56
1, 1440, Note_on_c, 0, 67, 0
1, 1440, Note_on_c, 0, 66, 64
1, 1440, Note_on_c, 1, 59, 0
1, 1440, Note_on_c, 1, 57, 56
1, 1560, Note_on_c, 0, 66, 0
1, 1560, Note_on_c, 1, 57, 0
1, 1560, Note_on_c, 1, 60, 56
1, 1680, Note_on_c, 1, 60, 0
1, 1680, Note_on_c, 1, 62, 56
1, 1800, Note_on_c, 1, 62, 0
1, 1800, Note_on_c, 1, 60, 56
1, 1920, Note_on_c, 0, 81, 64
1, 1920, Note_on_c, 1, 60, 0
1, 1920, Note_on_c, 1, 62, 56
1, 2040, Note_on_c, 1, 62, 0
1, 2040, Note_on_c, 1, 60, 56
1, 2100, Note_on_c, 0, 81, 0
1, 2100, Note_on_c, 0, 78, 64
1, 2160, Note_on_c, 0, 78, 0
1, 2160, Note_on_c, 0, 81, 76
1, 2160, Note_on_c, 1, 60, 0
1, 2160, Note_on_c, 1, 54, 56
1, 2280, Note_on_c, 1, 54, 0
1, 2280, Note_on_c, 1, 57, 56
1, 2352, Note_on_c, 0, 81, 0
1, 2400, Note_on_c, 1, 57, 0
1, 2400, Note_on_c, 1, 62, 56
1, 2520, Note_on_c, 1, 62, 0
1, 2520, Note_on_c, 1, 57, 56
1, 2640, Note_on_c, 0, 72, 64
1, 2640, Note_on_c, 1, 57, 0
1, 2640, Note_on_c, 1, 62, 56
1, 2760, Note_on_c, 1, 62, 0
1, 2760, Note_on_c, 1, 57, 56
1, 2880, Note_on_c, 0, 72, 0
1, 2880, Note_on_c, 0, 71, 64
1, 2880, Note_on_c, 1, 57, 0
1, 2880, Note_on_c, 1, 55, 56
1, 3000, Note_on_c, 0, 71, 0
1, 3000, Note_on_c, 1, 55, 0
1, 3000, Note_on_c, 1, 59, 56
1, 3120, Note_on_c, 1, 59, 0
1, 3120, Note_on_c, 1, 62, 56
1, 3240, Note_on_c, 1, 62, 0
1, 3240, Note_on_c, 1, 59, 56
1, 3360, Note_on_c, 0, 79, 64
1, 3360, Note_on_c, 1, 59, 0
1, 3360, Note_on_c, 1, 55, 56
1, 3504, Note_on_c, 0, 79, 0
1, 3540, Note_on_c, 0, 78, 56
1, 3588, Note_on_c, 0, 78, 0
1, 3600, Note_on_c, 0, 78, 80
1, 3600, Note_on_c, 1, 55, 0
1, 3600, Note_on_c, 1, 67, 64
1, 3600, Note_on_c, 1, 60, 64
1, 3696, Note_on_c, 0, 78, 0
1, 3720, Note_on_c, 0, 76, 56
1, 3768, Note_on_c, 0, 76, 0
1, 3840, Note_on_c, 0, 76, 56
1, 4056, Note_on_c, 1, 60, 0
1, 4056, Note_on_c, 1, 67, 0
1, 4068, Note_on_c, 0, 76, 0
1, 4080, Note_on_c, 0, 79, 64
1, 4224, Note_on_c, 0, 79, 0
1, 4260, Note_on_c, 0, 76, 56
1, 4308, Note_on_c, 0, 76, 0
1, 4320, Note_on_c, 0, 76, 80
1, 4320, Note_on_c, 1, 67, 64
1, 4320, Note_on_c, 1, 59, 64
1, 4416, Note_on_c, 0, 76, 0
1, 4440, Note_on_c, 0, 74, 56
1, 4488, Note_on_c, 0, 74, 0
1, 4560, Note_on_c, 0, 74, 56
1, 4776, Note_on_c, 1, 59, 0
1, 4776, Note_on_c, 1, 67, 0
1, 4788, Note_on_c, 0, 74, 0
1, 4800, Note_on_c, 0, 79, 72
1, 4971, Note_on_c, 0, 79, 0
1, 4980, Note_on_c, 0, 74, 72
1, 5010, Note_on_c, 0, 74, 0
1, 5040, Note_on_c, 0, 74, 64
1, 5040, Note_on_c, 1, 57, 56
1, 5040, Note_on_c, 1, 60, 56
1, 5112, Note_on_c, 0, 74, 0
1, 5268, Note_on_c, 1, 60, 0
1, 5268, Note_on_c, 1, 57, 0
1, 5280, Note_on_c, 0, 74, 72
1, 5280, Note_on_c, 1, 55, 56
1, 5280, Note_on_c, 1, 59, 56
1, 5352, Note_on_c, 0, 74, 0
1, 5508, Note_on_c, 1, 59, 0
1, 5508, Note_on_c, 1, 55, 0
1, 5520, Note_on_c, 0, 74, 80
1, 5520, Note_on_c, 1, 54, 56
1, 5520, Note_on_c, 1, 57, 56
1, 5592, Note_on_c, 0, 74, 0
1, 5748, Note_on_c, 1, 57, 0
1, 5748, Note_on_c, 1, 54, 0
1, 5760, Note_on_c, 0, 74, 80
1, 5760, Note_on_c, 1, 59, 56
1, 5760, Note_on_c, 1, 55, 56
1, 5820, Note_on_c, 0, 74, 0
1, 5820, Note_on_c, 0, 76, 80
1, 5880, Note_on_c, 0, 76, 0
1, 5880, Note_on_c, 0, 78, 80
1, 5880, Note_on_c, 1, 55, 0
1, 5880, Note_on_c, 1, 59, 0
1, 5940, Note_on_c, 0, 78, 0
1, 5940, Note_on_c, 0, 79, 80
1, 6000, Note_on_c, 0, 79, 0
1, 6000, Note_on_c, 0, 81, 80
1, 6060, Note_on_c, 0, 81, 0
1, 6060, Note_on_c, 0, 83, 80
1, 6120, Note_on_c, 0, 83, 0
1, 6120, Note_on_c, 0, 84, 80
1, 6180, Note_on_c, 0, 84, 0
1, 6180, Note_on_c, 0, 86, 80
1, 6240, Note_on_c, 0, 86, 0
1, 6240, Note_on_c, 0, 84, 80
1, 6240, Note_on_c, 1, 55, 56
1, 6240, Note_on_c, 1, 52, 56
1, 6300, Note_on_c, 0, 84, 0
1, 6300, Note_on_c, 0, 83, 80
1, 6360, Note_on_c, 0, 83, 0
1, 6360, Note_on_c, 0, 81, 80
1, 6360, Note_on_c, 1, 52, 0
1, 6360, Note_on_c, 1, 55, 0
1, 6420, Note_on_c, 0, 81, 0
1, 6420, Note_on_c, 0, 79, 80
1, 6480, Note_on_c, 0, 79, 0
1, 6480, Note_on_c, 0, 78, 80
1, 6540, Note_on_c, 0, 78, 0
1, 6540, Note_on_c, 0, 76, 80
1, 6600, Note_on_c, 0, 76, 0
1, 6600, Note_on_c, 0, 74, 80
1, 6660, Note_on_c, 0, 74, 0
1, 6660, Note_on_c, 0, 72, 80
1, 6720, Note_on_c, 0, 72, 0
1, 6720, Note_on_c, 0, 71, 80
1, 6720, Note_on_c, 1, 50, 56
1, 6720, Note_on_c, 1, 55, 56
1, 6780, Note_on_c, 0, 71, 0
1, 6780, Note_on_c, 0, 74, 80
1, 6840, Note_on_c, 0, 74, 0
1, 6840, Note_on_c, 0, 71, 80
1, 6900, Note_on_c, 0, 71, 0
1, 6900, Note_on_c, 0, 67, 80
1, 6948, Note_on_c, 1, 55, 0
1, 6960, Note_on_c, 0, 67, 0
1, 6960, Note_on_c, 0, 69, 80
1, 6960, Note_on_c, 1, 60, 56
1, 7020, Note_on_c, 0, 69, 0
1, 7020, Note_on_c, 0, 72, 80
1, 7080, Note_on_c, 0, 72, 0
1, 7080, Note_on_c, 0, 69, 80
1, 7140, Note_on_c, 0, 69, 0
1, 7140, Note_on_c, 0, 66, 80
1, 7188, Note_on_c, 1, 60, 0
1, 7188, Note_on_c, 1, 50, 0
1, 7200, Note_on_c, 0, 66, 0
1, 7200, Note_on_c, 0, 67, 80
1, 7200, Note_on_c, 1, 55, 56
1, 7200, Note_on_c, 1, 59, 56
1, 7344, Note_on_c, 0, 67, 0
1, 7344, Note_on_c, 1, 59, 0
1, 7344, Note_on_c, 1, 55, 0
1, 7440, Note_on_c, 1, 43, 48
1, 7560, Note_on_c, 1, 43, 0
1, 7680, Note_on_c, 0, 67, 72
1, 7824, Note_on_c, 0, 67, 0
1, 7860, Note_on_c, 0, 66, 64
1, 7908, Note_on_c, 0, 66, 0
1, 7920, Note_on_c, 0, 66, 80
1, 7920, Note_on_c, 1, 55, 64
1, 7920, Note_on_c, 1, 48, 64
1, 8016, Note_on_c, 0, 66, 0
1, 8040, Note_on_c, 0, 64, 64
1, 8100, Note_on_c, 0, 64, 0
1, 8160, Note_on_c, 0, 64, 64
1, 8304, Note_on_c, 1, 48, 0
1, 8304, Note_on_c, 1, 55, 0
1, 8400, Note_on_c, 0, 64, 0
1, 8400, Note_on_c, 0, 67, 72
1, 8544, Note_on_c, 0, 67, 0
1, 8580, Note_on_c, 0, 64, 64
1, 8628, Note_on_c, 0, 64, 0
1, 8640, Note_on_c, 0, 64, 80
1, 8640, Note_on_c, 1, 55, 64
1, 8640, Note_on_c, 1, 47, 64
1, 8736, Note_on_c, 0, 64, 0
1, 8760, Note_on_c, 0, 62, 64
1, 8820, Note_on_c, 0, 62, 0
1, 8880, Note_on_c, 0, 62, 64
1, 9024, Note_on_c, 1, 47, 0
1, 9024, Note_on_c, 1, 55, 0
1, 9120, Note_on_c, 0, 62, 0
1, 9120, Note_on_c, 0, 79, 64
1, 9264, Note_on_c, 0, 79, 0
1, 9300, Note_on_c, 0, 74, 64
1, 9348, Note_on_c, 0, 74, 0
1, 9360, Note_on_c, 0, 74, 64
1, 9360, Note_on_c, 1, 57, 56
1, 9360, Note_on_c, 1, 60, 56
1, 9480, Note_on_c, 0, 74, 0
1, 9600, Note_on_c, 0, 74, 72
1, 9600, Note_on_c, 1, 60, 0
1, 9600, Note_on_c, 1, 57, 0
1, 9600, Note_on_c, 1, 55, 56
1, 9600, Note_on_c, 1, 59, 56
1, 9720, Note_on_c, 0, 74, 0
1, 9840, Note_on_c, 0, 74, 80
1, 9840, Note_on_c, 1, 59, 0
1, 9840, Note_on_c, 1, 55, 0
1, 9840, Note_on_c, 1, 54, 56
1, 9840, Note_on_c, 1, 57, 56
1, 9960, Note_on_c, 0, 74, 0
1, 10080, Note_on_c, 0, 74, 80
1, 10080, Note_on_c, 1, 57, 0
1, 10080, Note_on_c, 1, 54, 0
1, 10080, Note_on_c, 1, 59, 56
1, 10080, Note_on_c, 1, 55, 56
1, 10140, Note_on_c, 0, 74, 0
1, 10140, Note_on_c, 0, 76, 80
1, 10200, Note_on_c, 0, 76, 0
1, 10200, Note_on_c, 0, 78, 80
1, 10200, Note_on_c, 1, 55, 0
1, 10200, Note_on_c, 1, 59, 0
1, 10260, Note_on_c, 0, 78, 0
1, 10260, Note_on_c, 0, 79, 80
1, 10320, Note_on_c, 0, 79, 0
1, 10320, Note_on_c, 0, 81, 80
1, 10380, Note_on_c, 0, 81, 0
1, 10380, Note_on_c, 0, 83, 80
1, 10440, Note_on_c, 0, 83, 0
1, 10440, Note_on_c, 0, 84, 80
1, 10500, Note_on_c, 0, 84, 0
1, 10500, Note_on_c, 0, 86, 80
1, 10560, Note_on_c, 0, 86, 0
1, 10560, Note_on_c, 0, 84, 80
1, 10560, Note_on_c, 1, 55, 56
1, 10560, Note_on_c, 1, 52, 56
1, 10620, Note_on_c, 0, 84, 0
1, 10620, Note_on_c, 0, 83, 80
1, 10680, Note_on_c, 0, 83, 0
1, 10680, Note_on_c, 0, 81, 80
1, 10680, Note_on_c, 1, 52, 0
1, 10680, Note_on_c, 1, 55, 0
1, 10740, Note_on_c, 0, 81, 0
1, 10740, Note_on_c, 0, 79, 80
1, 10800, Note_on_c, 0, 79, 0
1, 10800, Note_on_c, 0, 78, 80
1, 10860, Note_on_c, 0, 78, 0
1, 10860, Note_on_c, 0, 76, 80
1, 10920, Note_on_c, 0, 76, 0
1, 10920, Note_on_c, 0, 74, 80
1, 10980, Note_on_c, 0, 74, 0
1, 10980, Note_on_c, 0, 72, 80
1, 11040, Note_on_c, 0, 72, 0
1, 11040, Note_on_c, 0, 71, 80
1, 11040, Note_on_c, 1, 55, 56
1, 11040, Note_on_c, 1, 50, 56
1, 11100, Note_on_c, 0, 71, 0
1, 11100, Note_on_c, 0, 74, 80
1, 11160, Note_on_c, 0, 74, 0
1, 11160, Note_on_c, 0, 71, 80
1, 11220, Note_on_c, 0, 71, 0
1, 11220, Note_on_c, 0, 67, 80
1, 11280, Note_on_c, 0, 67, 0
1, 11280, Note_on_c, 0, 69, 80
1, 11280, Note_on_c, 1, 55, 0
1, 11280, Note_on_c, 1, 60, 56
1, 11340, Note_on_c, 0, 69, 0
1, 11340, Note_on_c, 0, 72, 80
1, 11400, Note_on_c, 0, 72, 0
1, 11400, Note_on_c, 0, 69, 80
1, 11460, Note_on_c, 0, 69, 0
1, 11460, Note_on_c, 0, 66, 80
1, 11520, Note_on_c, 0, 66, 0
1, 11520, Note_on_c, 0, 67, 80
1, 11520, Note_on_c, 1, 60, 0
1, 11520, Note_on_c, 1, 50, 0
1, 11520, Note_on_c, 1, 59, 56
1, 11520, Note_on_c, 1, 55, 56
1, 11712, Note_on_c, 0, 67, 0
1, 11712, Note_on_c, 1, 55, 0
1, 11712, Note_on_c, 1, 59, 0
1, 11880, Note_on_c, 0, 55, 56
1, 11880, Note_on_c, 1, 31, 56
1, 11880, Note_on_c, 1, 43, 56
1, 11940, Note_on_c, 0, 55, 0
1, 11940, Note_on_c, 0, 59, 56
1, 11940, Note_on_c, 1, 43, 0
1, 11940, Note_on_c, 1, 31, 0
1, 12000, Note_on_c, 0, 59, 0
1, 12000, Note_on_c, 0, 57, 56
1, 12000, Note_on_c, 1, 33, 56
1, 12000, Note_on_c, 1, 45, 56
1, 12060, Note_on_c, 0, 57, 0
1, 12060, Note_on_c, 0, 60, 56
1, 12060, Note_on_c, 1, 45, 0
1, 12060, Note_on_c, 1, 33, 0
1, 12120, Note_on_c, 0, 60, 0
1, 12120, Note_on_c, 0, 59, 56
1, 12120, Note_on_c, 1, 35, 56
1, 12120, Note_on_c, 1, 47, 56
1, 12180, Note_on_c, 0, 59, 0
1, 12180, Note_on_c, 0, 62, 56
1, 12180, Note_on_c, 1, 47, 0
1, 12180, Note_on_c, 1, 35, 0
1, 12240, Note_on_c, 0, 62, 0
1, 12240, Note_on_c, 0, 60, 72
1, 12240, Note_on_c, 1, 36, 72
1, 12240, Note_on_c, 1, 48, 72
1, 12360, Note_on_c, 0, 60, 0
1, 12360, Note_on_c, 1, 48, 0
1, 12360, Note_on_c, 1, 36, 0
1, 12600, Note_on_c, 0, 57, 56
1, 12600, Note_on_c, 1, 33, 56
1, 12600, Note_on_c, 1, 45, 56
1, 12648, Note_on_c, 0, 57, 0
1, 12660, Note_on_c, 0, 60, 56
1, 12696, Note_on_c, 1, 45, 0
1, 12696, Note_on_c, 1, 33, 0
1, 12708, Note_on_c, 0, 60, 0
1, 12720, Note_on_c, 0, 59, 56
1, 12720, Note_on_c, 1, 35, 56
1, 12720, Note_on_c, 1, 47, 56
1, 12768, Note_on_c, 0, 59, 0
1, 12780, Note_on_c, 0, 62, 56
1, 12816, Note_on_c, 1, 47, 0
1, 12816, Note_on_c, 1, 35, 0
1, 12828, Note_on_c, 0, 62, 0
1, 12840, Note_on_c, 0, 60, 56
1, 12840, Note_on_c, 1, 36, 56
1, 12840, Note_on_c, 1, 48, 56
1, 12888, Note_on_c, 0, 60, 0
1, 12900, Note_on_c, 0, 64, 56
1, 12936, Note_on_c, 1, 48, 0
1, 12936, Note_on_c, 1, 36, 0
1, 12948, Note_on_c, 0, 64, 0
1, 12960, Note_on_c, 0, 62, 80
1, 12960, Note_on_c, 1, 38, 56
1, 12960, Note_on_c, 1, 50, 56
1, 13080, Note_on_c, 0, 62, 0
1, 13080, Note_on_c, 1, 50, 0
1, 13080, Note_on_c, 1, 38, 0
1, 13320, Note_on_c, 0, 59, 40
1, 13320, Note_on_c, 1, 35, 40
1, 13320, Note_on_c, 1, 47, 40
1, 13356, Note_on_c, 1, 47, 0
1, 13356, Note_on_c, 1, 35, 0
1, 13380, Note_on_c, 0, 59, 0
1, 13380, Note_on_c, 0, 62, 40
1, 13440, Note_on_c, 0, 62, 0
1, 13440, Note_on_c, 0, 60, 40
1, 13440, Note_on_c, 1, 36, 40
1, 13440, Note_on_c, 1, 48, 40
1, 13476, Note_on_c, 1, 48, 0
1, 13476, Note_on_c, 1, 36, 0
1, 13500, Note_on_c, 0, 60, 0
1, 13500, Note_on_c, 0, 64, 40
1, 13560, Note_on_c, 0, 64, 0
1, 13560, Note_on_c, 0, 62, 40
1, 13560, Note_on_c, 1, 38, 40
1, 13560, Note_on_c, 1, 50, 40
1, 13596, Note_on_c, 1, 50, 0
1, 13596, Note_on_c, 1, 38, 0
1, 13620, Note_on_c, 0, 62, 0
1, 13620, Note_on_c, 0, 65, 40
1, 13680, Note_on_c, 0, 65, 0
1, 13680, Note_on_c, 0, 64, 48
1, 13680, Note_on_c, 1, 52, 48
1, 13680, Note_on_c, 1, 40, 48
1, 13716, Note_on_c, 1, 40, 0
1, 13716, Note_on_c, 1, 52, 0
1, 13740, Note_on_c, 0, 64, 0
1, 13740, Note_on_c, 0, 65, 42
1, 13800, Note_on_c, 0, 65, 0
1, 13800, Note_on_c, 0, 62, 44
1, 13800, Note_on_c, 1, 50, 44
1, 13800, Note_on_c, 1, 38, 44
1, 13836, Note_on_c, 1, 38, 0
1, 13836, Note_on_c, 1, 50, 0
1, 13860, Note_on_c, 0, 62, 0
1, 13860, Note_on_c, 0, 64, 46
1, 13920, Note_on_c, 0, 64, 0
1, 13920, Note_on_c, 0, 60, 48
1, 13920, Note_on_c, 1, 48, 48
1, 13920, Note_on_c, 1, 36, 48
1, 13956, Note_on_c, 1, 36, 0
1, 13956, Note_on_c, 1, 48, 0
1, 13980, Note_on_c, 0, 60, 0
1, 13980, Note_on_c, 0, 64, 50
1, 14040, Note_on_c, 0, 64, 0
1, 14040, Note_on_c, 0, 62, 52
1, 14040, Note_on_c, 1, 50, 52
1, 14040, Note_on_c, 1, 38, 52
1, 14076, Note_on_c, 1, 38, 0
1, 14076, Note_on_c, 1, 50, 0
1, 14100, Note_on_c, 0, 62, 0
1, 14100, Note_on_c, 0, 65, 54
1, 14160, Note_on_c, 0, 65, 0
1, 14160, Note_on_c, 0, 64, 56
1, 14160, Note_on_c, 1, 52, 56
1, 14160, Note_on_c, 1, 40, 56
1, 14196, Note_on_c, 1, 40, 0
1, 14196, Note_on_c, 1, 52, 0
1, 14220, Note_on_c, 0, 64, 0
1, 14220, Note_on_c, 0, 67, 58
1, 14280, Note_on_c, 0, 67, 0
1, 14280, Note_on_c, 0, 66, 60
1, 14280, Note_on_c, 1, 54, 60
1, 14280, Note_on_c, 1, 42, 60
1, 14316, Note_on_c, 1, 42, 0
1, 14316, Note_on_c, 1, 54, 0
1, 14340, Note_on_c, 0, 66, 0
1, 14340, Note_on_c, 0, 69, 62
1, 14400, Note_on_c, 0, 69, 0
1, 14400, Note_on_c, 0, 67, 72
1, 14400, Note_on_c, 1, 55, 72
1, 14400, Note_on_c, 1, 43, 72
1, 14436, Note_on_c, 1, 43, 0
1, 14436, Note_on_c, 1, 55, 0
1, 14460, Note_on_c, 0, 67, 0
1, 14460, Note_on_c, 0, 69, 65
1, 14520, Note_on_c, 0, 69, 0
1, 14520, Note_on_c, 0, 66, 67
1, 14520, Note_on_c, 1, 54, 67
1, 14520, Note_on_c, 1, 42, 67
1, 14556, Note_on_c, 1, 42, 0
1, 14556, Note_on_c, 1, 54, 0
1, 14580, Note_on_c, 0, 66, 0
1, 14580, Note_on_c, 0, 67, 68
1, 14640, Note_on_c, 0, 67, 0
1, 14640, Note_on_c, 0, 64, 69
1, 14640, Note_on_c, 1, 52, 69
1, 14640, Note_on_c, 1, 40, 69
1, 14676, Note_on_c, 1, 40, 0
1, 14676, Note_on_c, 1, 52, 0
1, 14700, Note_on_c, 0, 64, 0
1, 14700, Note_on_c, 0, 67, 71
1, 14760, Note_on_c, 0, 67, 0
1, 14760, Note_on_c, 0, 66, 72
1, 14760, Note_on_c, 1, 54, 72
1, 14760, Note_on_c, 1, 42, 72
1, 14796, Note_on_c, 1, 42, 0
1, 14796, Note_on_c, 1, 54, 0
1, 14820, Note_on_c, 0, 66, 0
1, 14820, Note_on_c, 0, 69, 73
1, 14880, Note_on_c, 0, 69, 0
1, 14880, Note_on_c, 0, 67, 75
1, 14880, Note_on_c, 1, 55, 75
1, 14880, Note_on_c, 1, 43, 75
1, 14916, Note_on_c, 1, 43, 0
1, 14916, Note_on_c, 1, 55, 0
1, 14940, Note_on_c, 0, 67, 0
1, 14940, Note_on_c, 0, 71, 76
1, 15000, Note_on_c, 0, 71, 0
1, 15000, Note_on_c, 0, 69, 77
1, 15000, Note_on_c, 1, 57, 77
1, 15000, Note_on_c, 1, 45, 77
1, 15036, Note_on_c, 1, 45, 0
1, 15036, Note_on_c, 1, 57, 0
1, 15060, Note_on_c, 0, 69, 0
1, 15060, Note_on_c, 0, 72, 79
1, 15120, Note_on_c, 0, 72, 0
1, 15120, Note_on_c, 0, 71, 80
1, 15120, Note_on_c, 1, 59, 80
1, 15120, Note_on_c, 1, 47, 80
1, 15156, Note_on_c, 1, 47, 0
1, 15156, Note_on_c, 1, 59, 0
1, 15180, Note_on_c, 0, 71, 0
1, 15180, Note_on_c, 0, 72, 81
1, 15240, Note_on_c, 0, 72, 0
1, 15240, Note_on_c, 0, 69, 83
1, 15240, Note_on_c, 1, 57, 83
1, 15240, Note_on_c, 1, 45, 83
1, 15276, Note_on_c, 1, 45, 0
1, 15276, Note_on_c, 1, 57, 0
1, 15300, Note_on_c, 0, 69, 0
1, 15300, Note_on_c, 0, 71, 84
1, 15360, Note_on_c, 0, 71, 0
1, 15360, Note_on_c, 0, 67, 85
1, 15360, Note_on_c, 1, 55, 85
1, 15360, Note_on_c, 1, 43, 85
1, 15396, Note_on_c, 1, 43, 0
1, 15396, Note_on_c, 1, 55, 0
1, 15420, Note_on_c, 0, 67, 0
1, 15420, Note_on_c, 0, 71, 87
1, 15480, Note_on_c, 0, 71, 0
1, 15480, Note_on_c, 0, 69, 88
1, 15480, Note_on_c, 1, 57, 88
1, 15480, Note_on_c, 1, 45, 88
1, 15516, Note_on_c, 1, 45, 0
1, 15516, Note_on_c, 1, 57, 0
1, 15540, Note_on_c, 0, 69, 0
1, 15540, Note_on_c, 0, 72, 89
1, 15600, Note_on_c, 0, 72, 0
1, 15600, Note_on_c, 0, 71, 91
1, 15600, Note_on_c, 1, 59, 91
1, 15600, Note_on_c, 1, 47, 91
1, 15636, Note_on_c, 1, 47, 0
1, 15636, Note_on_c, 1, 59, 0
1, 15660, Note_on_c, 0, 71, 0
1, 15660, Note_on_c, 0, 74, 92
1, 15720, Note_on_c, 0, 74, 0
1, 15720, Note_on_c, 0, 73, 93
1, 15720, Note_on_c, 1, 61, 93
1, 15720, Note_on_c, 1, 49, 93
1, 15756, Note_on_c, 1, 49, 0
1, 15756, Note_on_c, 1, 61, 0
1, 15780, Note_on_c, 0, 73, 0
1, 15780, Note_on_c, 0, 76, 95
1, 15840, Note_on_c, 0, 76, 0
1, 15840, Note_on_c, 0, 74, 96
1, 15840, Note_on_c, 1, 50, 96
1, 15840, Note_on_c, 1, 62, 96
1, 15912, Note_on_c, 0, 74, 0
1, 15912, Note_on_c, 1, 62, 0
1, 15912, Note_on_c, 1, 50, 0
1, 16080, Note_on_c, 0, 62, 96
1, 16080, Note_on_c, 1, 38, 96
1, 16080, Note_on_c, 1, 50, 96
1, 16272, Note_on_c, 0, 62, 0
1, 16272, Note_on_c, 1, 50, 0
1, 16272, Note_on_c, 1, 38, 0
1, 16560, Note_on_c, 1, 66, 48
1, 16680, Note_on_c, 0, 81, 64
1, 16680, Note_on_c, 1, 66, 0
1, 16680, Note_on_c, 1, 69, 48
1, 16800, Note_on_c, 1, 69, 0
1, 16800, Note_on_c, 1, 64, 48
1, 16920, Note_on_c, 0, 81, 0
1, 16920, Note_on_c, 0, 79, 56
1, 16920, Note_on_c, 1, 64, 0
1, 16920, Note_on_c, 1, 69, 48
1, 17040, Note_on_c, 1, 69, 0
1, 17040, Note_on_c, 1, 62, 48
1, 17160, Note_on_c, 0, 79, 0
1, 17160, Note_on_c, 0, 78, 56
1, 17160, Note_on_c, 1, 62, 0
1, 17160, Note_on_c, 1, 69, 48
1, 17280, Note_on_c, 1, 69, 0
1, 17280, Note_on_c, 1, 61, 48
1, 17400, Note_on_c, 0, 78, 0
1, 17400, Note_on_c, 0, 76, 56
1, 17400, Note_on_c, 1, 61, 0
1, 17400, Note_on_c, 1, 69, 48
1, 17520, Note_on_c, 1, 69, 0
1, 17520, Note_on_c, 1, 59, 48
1, 17640, Note_on_c, 0, 76, 0
1, 17640, Note_on_c, 0, 74, 56
1, 17640, Note_on_c, 1, 59, 0
1, 17640, Note_on_c, 1, 69, 48
1, 17760, Note_on_c, 1, 69, 0
1, 17760, Note_on_c, 1, 57, 48
1, 17880, Note_on_c, 0, 74, 0
1, 17880, Note_on_c, 0, 73, 56
1, 17880, Note_on_c, 1, 57, 0
1, 17880, Note_on_c, 1, 69, 48
1, 18000, Note_on_c, 0, 73, 0
1, 18000, Note_on_c, 0, 76, 56
1, 18000, Note_on_c, 1, 69, 0
1, 18000, Note_on_c, 1, 59, 48
1, 18060, Note_on_c, 0, 76, 0
1, 18060, Note_on_c, 0, 74, 57
1, 18120, Note_on_c, 1, 59, 0
1, 18120, Note_on_c, 1, 69, 51
1, 18168, Note_on_c, 0, 74, 0
1, 18240, Note_on_c, 0, 78, 61
1, 18240, Note_on_c, 1, 69, 0
1, 18240, Note_on_c, 1, 61, 53
1, 18300, Note_on_c, 0, 78, 0
1, 18300, Note_on_c, 0, 76, 63
1, 18360, Note_on_c, 1, 61, 0
1, 18360, Note_on_c, 1, 69, 56
1, 18426, Note_on_c, 0, 76, 0
1, 18480, Note_on_c, 0, 79, 67
1, 18480, Note_on_c, 1, 69, 0
1, 18480, Note_on_c, 1, 62, 59
1, 18540, Note_on_c, 0, 79, 0
1, 18540, Note_on_c, 0, 78, 68
1, 18600, Note_on_c, 1, 62, 0
1, 18600, Note_on_c, 1, 69, 61
1, 18684, Note_on_c, 0, 78, 0
1, 18720, Note_on_c, 0, 81, 80
1, 18720, Note_on_c, 1, 69, 0
1, 18720, Note_on_c, 1, 64, 80
1, 18804, Note_on_c, 1, 64, 0
1, 18840, Note_on_c, 1, 69, 75
1, 18900, Note_on_c, 0, 81, 0
1, 18900, Note_on_c, 0, 79, 74
1, 18924, Note_on_c, 1, 69, 0
1, 18960, Note_on_c, 0, 79, 0
1, 18960, Note_on_c, 0, 76, 72
1, 18960, Note_on_c, 1, 61, 69
1, 19044, Note_on_c, 1, 61, 0
1, 19080, Note_on_c, 1, 69, 64
1, 19152, Note_on_c, 0, 76, 0
1, 19164, Note_on_c, 1, 69, 0
1, 19200, Note_on_c, 1, 57, 59
1, 19284, Note_on_c, 1, 57, 0
1, 19320, Note_on_c, 1, 69, 53
1, 19404, Note_on_c, 1, 69, 0
1, 19440, Note_on_c, 1, 66, 48
1, 19500, Note_on_c, 1, 66, 0
1, 19500, Note_on_c, 1, 69, 48
1, 19560, Note_on_c, 0, 81, 56
1, 19560, Note_on_c, 1, 69, 0
1, 19560, Note_on_c, 1, 66, 48
1, 19620, Note_on_c, 0, 81, 0
1, 19620, Note_on_c, 0, 83, 56
1, 19620, Note_on_c, 1, 66, 0
1, 19620, Note_on_c, 1, 69, 48
1, 19680, Note_on_c, 0, 83, 0
1, 19680, Note_on_c, 0, 79, 56
1, 19680, Note_on_c, 1, 69, 0
1, 19680, Note_on_c, 1, 64, 48
1, 19716, Note_on_c, 0, 79, 0
1, 19740, Note_on_c, 1, 64, 0
1, 19740, Note_on_c, 1, 69, 48
1, 19800, Note_on_c, 0, 79, 56
1, 19800, Note_on_c, 1, 69, 0
1, 19800, Note_on_c, 1, 64, 48
1, 19860, Note_on_c, 0, 79, 0
1, 19860, Note_on_c, 0, 81, 56
1, 19860, Note_on_c, 1, 64, 0
1, 19860, Note_on_c, 1, 69, 48
1, 19920, Note_on_c, 0, 81, 0
1, 19920, Note_on_c, 0, 78, 56
1, 19920, Note_on_c, 1, 69, 0
1, 19920, Note_on_c, 1, 62, 48
1, 19956, Note_on_c, 0, 78, 0
1, 19980, Note_on_c, 1, 62, 0
1, 19980, Note_on_c, 1, 69, 48
1, 20040, Note_on_c, 0, 78, 56
1, 20040, Note_on_c, 1, 69, 0
1, 20040, Note_on_c, 1, 62, 48
1, 20100, Note_on_c, 0, 78, 0
1, 20100, Note_on_c, 0, 79, 56
1, 20100, Note_on_c, 1, 62, 0
1, 20100, Note_on_c, 1, 69, 48
1, 20160, Note_on_c, 0, 79, 0
1, 20160, Note_on_c, 0, 76, 56
1, 20160, Note_on_c, 1, 69, 0
1, 20160, Note_on_c, 1, 61, 48
1, 20196, Note_on_c, 0, 76, 0
1, 20220, Note_on_c, 1, 61, 0
1, 20220, Note_on_c, 1, 69, 48
1, 20280, Note_on_c, 0, 76, 56
1, 20280, Note_on_c, 1, 69, 0
1, 20280, Note_on_c, 1, 61, 48
1, 20340, Note_on_c, 0, 76, 0
1, 20340, Note_on_c, 0, 78, 56
1, 20340, Note_on_c, 1, 61, 0
1, 20340, Note_on_c, 1, 69, 48
1, 20400, Note_on_c, 0, 78, 0
1, 20400, Note_on_c, 0, 74, 56
1, 20400, Note_on_c, 1, 69, 0
1, 20400, Note_on_c, 1, 59, 48
1, 20436, Note_on_c, 0, 74, 0
1, 20460, Note_on_c, 1, 59, 0
1, 20460, Note_on_c, 1, 69, 48
1, 20520, Note_on_c, 0, 74, 56
1, 20520, Note_on_c, 1, 69, 0
1, 20520, Note_on_c, 1, 59, 48
1, 20580, Note_on_c, 0, 74, 0
1, 20580, Note_on_c, 0, 76, 56
1, 20580, Note_on_c, 1, 59, 0
1, 20580, Note_on_c, 1, 69, 48
1, 20640, Note_on_c, 0, 76, 0
1, 20640, Note_on_c, 0, 73, 56
1, 20640, Note_on_c, 1, 69, 0
1, 20640, Note_on_c, 1, 57, 48
1, 20676, Note_on_c, 0, 73, 0
1, 20700, Note_on_c, 1, 57, 0
1, 20700, Note_on_c, 1, 69, 48
1, 20760, Note_on_c, 0, 73, 56
1, 20760, Note_on_c, 1, 69, 0
1, 20760, Note_on_c, 1, 57, 48
1, 20820, Note_on_c, 0, 73, 0
1, 20820, Note_on_c, 0, 76, 56
1, 20820, Note_on_c, 1, 57, 0
1, 20820, Note_on_c, 1, 69, 48
1, 20880, Note_on_c, 0, 76, 0
1, 20880, Note_on_c, 0, 74, 56
1, 20880, Note_on_c, 1, 69, 0
1, 20880, Note_on_c, 1, 59, 48
1, 20940, Note_on_c, 0, 74, 0
1, 20940, Note_on_c, 0, 76, 57
1, 20940, Note_on_c, 1, 59, 0
1, 20940, Note_on_c, 1, 69, 49
1, 21000, Note_on_c, 0, 76, 0
1, 21000, Note_on_c, 0, 78, 59
1, 21000, Note_on_c, 1, 69, 0
1, 21000, Note_on_c, 1, 59, 51
1, 21060, Note_on_c, 0, 78, 0
1, 21060, Note_on_c, 0, 74, 60
1, 21060, Note_on_c, 1, 59, 0
1, 21060, Note_on_c, 1, 69, 52
1, 21120, Note_on_c, 0, 74, 0
1, 21120, Note_on_c, 0, 76, 61
1, 21120, Note_on_c, 1, 69, 0
1, 21120, Note_on_c, 1, 61, 53
1, 21180, Note_on_c, 0, 76, 0
1, 21180, Note_on_c, 0, 78, 63
1, 21180, Note_on_c, 1, 61, 0
1, 21180, Note_on_c, 1, 69, 55
1, 21240, Note_on_c, 0, 78, 0
1, 21240, Note_on_c, 0, 79, 64
1, 21240, Note_on_c, 1, 69, 0
1, 21240, Note_on_c, 1, 61, 56
1, 21300, Note_on_c, 0, 79, 0
1, 21300, Note_on_c, 0, 76, 65
1, 21300, Note_on_c, 1, 61, 0
1, 21300, Note_on_c, 1, 69, 57
1, 21360, Note_on_c, 0, 76, 0
1, 21360, Note_on_c, 0, 78, 67
1, 21360, Note_on_c, 1, 69, 0
1, 21360, Note_on_c, 1, 62, 59
1, 21420, Note_on_c, 0, 78, 0
1, 21420, Note_on_c, 0, 79, 68
1, 21420, Note_on_c, 1, 62, 0
1, 21420, Note_on_c, 1, 69, 60
1, 21480, Note_on_c, 0, 79, 0
1, 21480, Note_on_c, 0, 81, 69
1, 21480, Note_on_c, 1, 69, 0
1, 21480, Note_on_c, 1, 62, 61
1, 21540, Note_on_c, 0, 81, 0
1, 21540, Note_on_c, 0, 78, 71
1, 21540, Note_on_c, 1, 62, 0
1, 21540, Note_on_c, 1, 69, 63
1, 21600, Note_on_c, 0, 78, 0
1, 21600, Note_on_c, 0, 81, 80
1, 21600, Note_on_c, 1, 69, 0
1, 21600, Note_on_c, 1, 64, 72
1, 21660, Note_on_c, 0, 81, 0
1, 21660, Note_on_c, 0, 79, 71
1, 21660, Note_on_c, 1, 64, 0
1, 21660, Note_on_c, 1, 69, 63
1, 21720, Note_on_c, 0, 79, 0
1, 21720, Note_on_c, 0, 81, 69
1, 21720, Note_on_c, 1, 69, 0
1, 21720, Note_on_c, 1, 64, 61
1, 21780, Note_on_c, 0, 81, 0
1, 21780, Note_on_c, 0, 79, 68
1, 21780, Note_on_c, 1, 64, 0
1, 21780, Note_on_c, 1, 69, 60
1, 21840, Note_on_c, 0, 79, 0
1, 21840, Note_on_c, 0, 76, 67
1, 21840, Note_on_c, 1, 69, 0
1, 21840, Note_on_c, 1, 61, 59
1, 21900, Note_on_c, 1, 61, 0
1, 21900, Note_on_c, 1, 69, 57
1, 21960, Note_on_c, 1, 69, 0
1, 21960, Note_on_c, 1, 61, 56
1, 22020, Note_on_c, 1, 61, 0
1, 22020, Note_on_c, 1, 69, 55
1, 22080, Note_on_c, 0, 76, 0
1, 22080, Note_on_c, 1, 69, 0
1, 22080, Note_on_c, 1, 57, 53
1, 22140, Note_on_c, 1, 57, 0
1, 22140, Note_on_c, 1, 55, 52
1, 22200, Note_on_c, 1, 55, 0
1, 22200, Note_on_c, 1, 54, 51
1, 22260, Note_on_c, 1, 54, 0
1, 22260, Note_on_c, 1, 52, 49
1, 22320, Note_on_c, 1, 52, 0
1, 22320, Note_on_c, 1, 50, 48
1, 22440, Note_on_c, 0, 74, 48
1, 22440, Note_on_c, 1, 50, 0
1, 22500, Note_on_c, 0, 74, 0
1, 22560, Note_on_c, 0, 73, 48
1, 22620, Note_on_c, 0, 73, 0
1, 22680, Note_on_c, 0, 74, 48
1, 22740, Note_on_c, 0, 74, 0
1, 22800, Note_on_c, 0, 76, 80
1, 22800, Note_on_c, 0, 79, 80
1, 22800, Note_on_c, 1, 61, 56
1, 22896, Note_on_c, 0, 79, 0
1, 22896, Note_on_c, 0, 76, 0
1, 22896, Note_on_c, 1, 61, 0
1, 22920, Note_on_c, 0, 74, 72
1, 22920, Note_on_c, 0, 78, 72
1, 22920, Note_on_c, 1, 62, 72
1, 23016, Note_on_c, 0, 78, 0
1, 23016, Note_on_c, 0, 74, 0
1, 23016, Note_on_c, 1, 62, 0
1, 23040, Note_on_c, 1, 50, 48
1, 23160, Note_on_c, 0, 74, 48
1, 23160, Note_on_c, 1, 50, 0
1, 23220, Note_on_c, 0, 74, 0
1, 23280, Note_on_c, 0, 73, 48
1, 23340, Note_on_c, 0, 73, 0
1, 23400, Note_on_c, 0, 74, 48
1, 23460, Note_on_c, 0, 74, 0
1, 23520, Note_on_c, 0, 79, 80
1, 23520, Note_on_c, 0, 83, 80
1, 23520, Note_on_c, 1, 61, 56
1, 23616, Note_on_c, 0, 83, 0
1, 23616, Note_on_c, 0, 79, 0
1, 23616, Note_on_c, 1, 61, 0
1, 23640, Note_on_c, 0, 78, 72
1, 23640, Note_on_c, 0, 81, 72
1, 23640, Note_on_c, 1, 62, 72
1, 23736, Note_on_c, 0, 81, 0
1, 23736, Note_on_c, 0, 78, 0
1, 23736, Note_on_c, 1, 62, 0
1, 23760, Note_on_c, 1, 50, 48
1, 23880, Note_on_c, 0, 74, 48
1, 23880, Note_on_c, 1, 50, 0
1, 23940, Note_on_c, 0, 74, 0
1, 24000, Note_on_c, 0, 73, 48
1, 24060, Note_on_c, 0, 73, 0
1, 24120, Note_on_c, 0, 74, 48
1, 24180, Note_on_c, 0, 74, 0
1, 24240, Note_on_c, 0, 83, 90
1, 24240, Note_on_c, 0, 86, 90
1, 24240, Note_on_c, 1, 68, 56
1, 24360, Note_on_c, 0, 86, 0
1, 24360, Note_on_c, 0, 83, 0
1, 24360, Note_on_c, 0, 81, 72
1, 24360, Note_on_c, 0, 85, 72
1, 24360, Note_on_c, 1, 68, 0
1, 24360, Note_on_c, 1, 69, 72
1, 24420, Note_on_c, 0, 85, 0
1, 24420, Note_on_c, 0, 81, 0
1, 24420, Note_on_c, 1, 69, 0
1, 24480, Note_on_c, 0, 81, 90
1, 24480, Note_on_c, 0, 84, 90
1, 24480, Note_on_c, 1, 66, 56
1, 24600, Note_on_c, 0, 84, 0
1, 24600, Note_on_c, 0, 81, 0
1, 24600, Note_on_c, 0, 79, 72
1, 24600, Note_on_c, 0, 83, 72
1, 24600, Note_on_c, 1, 66, 0
1, 24600, Note_on_c, 1, 67, 72
1, 24660, Note_on_c, 0, 83, 0
1, 24660, Note_on_c, 0, 79, 0
1, 24660, Note_on_c, 1, 67, 0
1, 24720, Note_on_c, 0, 77, 90
1, 24720, Note_on_c, 0, 80, 90
1, 24720, Note_on_c, 1, 62, 56
1, 24840, Note_on_c, 0, 80, 0
1, 24840, Note_on_c, 0, 77, 0
1, 24840, Note_on_c, 0, 76, 72
1, 24840, Note_on_c, 0, 81, 72
1, 24840, Note_on_c, 1, 62, 0
1, 24840, Note_on_c, 1, 61, 72
1, 24900, Note_on_c, 0, 81, 0
1, 24900, Note_on_c, 0, 76, 0
1, 24900, Note_on_c, 1, 61, 0
1, 24960, Note_on_c, 0, 75, 90
1, 24960, Note_on_c, 0, 78, 90
1, 24960, Note_on_c, 1, 60, 56
1, 25080, Note_on_c, 0, 78, 0
1, 25080, Note_on_c, 0, 75, 0
1, 25080, Note_on_c, 0, 74, 72
1, 25080, Note_on_c, 0, 79, 72
1, 25080, Note_on_c, 1, 60, 0
1, 25080, Note_on_c, 1, 59, 72
1, 25140, Note_on_c, 0, 79, 0
1, 25140, Note_on_c, 0, 74, 0
1, 25140, Note_on_c, 1, 59, 0
1, 25200, Note_on_c, 0, 79, 80
1, 25200, Note_on_c, 1, 57, 56
1, 25260, Note_on_c, 0, 79, 0
1, 25260, Note_on_c, 0, 76, 80
1, 25320, Note_on_c, 0, 76, 0
1, 25320, Note_on_c, 0, 73, 80
1, 25320, Note_on_c, 1, 57, 0
1, 25380, Note_on_c, 0, 73, 0
1, 25380, Note_on_c, 0, 69, 80
1, 25440, Note_on_c, 0, 69, 0
1, 25440, Note_on_c, 0, 68, 80
1, 25500, Note_on_c, 0, 68, 0
1, 25500, Note_on_c, 0, 69, 80
1, 25560, Note_on_c, 0, 69, 0
1, 25560, Note_on_c, 0, 71, 80
1, 25620, Note_on_c, 0, 71, 0
1, 25620, Note_on_c, 0, 69, 80
1, 25680, Note_on_c, 0, 69, 0
1, 25680, Note_on_c, 0, 79, 80
1, 25680, Note_on_c, 1, 64, 56
1, 25680, Note_on_c, 1, 57, 56
1, 25680, Note_on_c, 1, 55, 56
1, 25740, Note_on_c, 0, 79, 0
1, 25740, Note_on_c, 0, 76, 80
1, 25800, Note_on_c, 0, 76, 0
1, 25800, Note_on_c, 0, 73, 80
1, 25860, Note_on_c, 0, 73, 0
1, 25860, Note_on_c, 0, 69, 80
1, 25872, Note_on_c, 1, 55, 0
1, 25872, Note_on_c, 1, 57, 0
1, 25872, Note_on_c, 1, 64, 0
1, 25920, Note_on_c, 0, 69, 0
1, 25920, Note_on_c, 0, 81, 80
1, 25920, Note_on_c, 1, 62, 56
1, 25920, Note_on_c, 1, 57, 56
1, 25920, Note_on_c, 1, 54, 56
1, 25980, Note_on_c, 0, 81, 0
1, 25980, Note_on_c, 0, 78, 80
1, 26040, Note_on_c, 0, 78, 0
1, 26040, Note_on_c, 0, 74, 80
1, 26040, Note_on_c, 1, 54, 0
1, 26040, Note_on_c, 1, 57, 0
1, 26040, Note_on_c, 1, 62, 0
1, 26100, Note_on_c, 0, 74, 0
1, 26100, Note_on_c, 0, 69, 80
1, 26160, Note_on_c, 0, 69, 0
1, 26160, Note_on_c, 0, 68, 80
1, 26220, Note_on_c, 0, 68, 0
1, 26220, Note_on_c, 0, 69, 80
1, 26280, Note_on_c, 0, 69, 0
1, 26280, Note_on_c, 0, 71, 80
1, 26340, Note_on_c, 0, 71, 0
1, 26340, Note_on_c, 0, 69, 80
1, 26400, Note_on_c, 0, 69, 0
1, 26400, Note_on_c, 0, 81, 80
1, 26400, Note_on_c, 1, 62, 56
1, 26400, Note_on_c, 1, 57, 56
1, 26400, Note_on_c, 1, 54, 56
1, 26460, Note_on_c, 0, 81, 0
1, 26460, Note_on_c, 0, 78, 80
1, 26520, Note_on_c, 0, 78, 0
1, 26520, Note_on_c, 0, 74, 80
1, 26580, Note_on_c, 0, 74, 0
1, 26580, Note_on_c, 0, 69, 80
1, 26592, Note_on_c, 1, 54, 0
1, 26592, Note_on_c, 1, 57, 0
1, 26592, Note_on_c, 1, 62, 0
1, 26640, Note_on_c, 0, 69, 0
1, 26640, Note_on_c, 0, 71, 80
1, 26640, Note_on_c, 1, 64, 72
1, 26640, Note_on_c, 1, 59, 72
1, 26640, Note_on_c, 1, 55, 72
1, 26700, Note_on_c, 0, 71, 0
1, 26700, Note_on_c, 0, 76, 78
1, 26760, Note_on_c, 0, 76, 0
1, 26760, Note_on_c, 0, 79, 76
1, 26760, Note_on_c, 1, 55, 0
1, 26760, Note_on_c, 1, 59, 0
1, 26760, Note_on_c, 1, 64, 0
1, 26820, Note_on_c, 0, 79, 0
1, 26820, Note_on_c, 0, 83, 74
1, 26880, Note_on_c, 0, 83, 0
1, 26880, Note_on_c, 0, 83, 72
1, 26880, Note_on_c, 1, 57, 64
1, 26880, Note_on_c, 1, 66, 64
1, 26880, Note_on_c, 1, 62, 64
1, 26940, Note_on_c, 0, 83, 0
1, 26940, Note_on_c, 0, 81, 70
1, 27000, Note_on_c, 0, 81, 0
1, 27000, Note_on_c, 0, 79, 68
1, 27060, Note_on_c, 0, 79, 0
1, 27060, Note_on_c, 0, 78, 66
1, 27072, Note_on_c, 1, 62, 0
1, 27072, Note_on_c, 1, 66, 0
1, 27120, Note_on_c, 0, 78, 0
1, 27120, Note_on_c, 0, 78, 64
1, 27120, Note_on_c, 1, 67, 56
1, 27120, Note_on_c, 1, 64, 56
1, 27180, Note_on_c, 0, 78, 0
1, 27180, Note_on_c, 0, 76, 62
1, 27240, Note_on_c, 0, 76, 0
1, 27240, Note_on_c, 0, 74, 60
1, 27300, Note_on_c, 0, 74, 0
1, 27300, Note_on_c, 0, 73, 58
1, 27312, Note_on_c, 1, 64, 0
1, 27312, Note_on_c, 1, 67, 0
1, 27312, Note_on_c, 1, 57, 0
1, 27360, Note_on_c, 0, 73, 0
1, 27360, Note_on_c, 1, 62, 48
1, 27360, Note_on_c, 1, 66, 48
1, 27480, Note_on_c, 0, 74, 48
1, 27480, Note_on_c, 1, 66, 0
1, 27480, Note_on_c, 1, 62, 0
1, 27540, Note_on_c, 0, 74, 0
1, 27600, Note_on_c, 0, 73, 48
1, 27660, Note_on_c, 0, 73, 0
1, 27720, Note_on_c, 0, 74, 48
1, 27780, Note_on_c, 0, 74, 0
1, 27840, Note_on_c, 0, 86, 90
1, 27840, Note_on_c, 0, 83, 90
1, 27840, Note_on_c, 1, 68, 56
1, 27960, Note_on_c, 0, 83, 0
1, 27960, Note_on_c, 0, 86, 0
1, 27960, Note_on_c, 0, 85, 72
1, 27960, Note_on_c, 0, 81, 72
1, 27960, Note_on_c, 1, 68, 0
1, 27960, Note_on_c, 1, 69, 72
1, 28020, Note_on_c, 0, 81, 0
1, 28020, Note_on_c, 0, 85, 0
1, 28020, Note_on_c, 1, 69, 0
1, 28080, Note_on_c, 0, 84, 90
1, 28080, Note_on_c, 0, 81, 90
1, 28080, Note_on_c, 1, 66, 56
1, 28200, Note_on_c, 0, 81, 0
1, 28200, Note_on_c, 0, 84, 0
1, 28200, Note_on_c, 0, 83, 72
1, 28200, Note_on_c, 0, 79, 72
1, 28200, Note_on_c, 1, 66, 0
1, 28200, Note_on_c, 1, 67, 72
1, 28260, Note_on_c, 0, 79, 0
1, 28260, Note_on_c, 0, 83, 0
1, 28260, Note_on_c, 1, 67, 0
1, 28320, Note_on_c, 0, 80, 90
1, 28320, Note_on_c, 0, 77, 90
1, 28320, Note_on_c, 1, 62, 56
1, 28440, Note_on_c, 0, 77, 0
1, 28440, Note_on_c, 0, 80, 0
1, 28440, Note_on_c, 0, 81, 72
1, 28440, Note_on_c, 0, 76, 72
1, 28440, Note_on_c, 1, 62, 0
1, 28440, Note_on_c, 1, 61, 72
1, 28500, Note_on_c, 0, 76, 0
1, 28500, Note_on_c, 0, 81, 0
1, 28500, Note_on_c, 1, 61, 0
1, 28560, Note_on_c, 0, 78, 90
1, 28560, Note_on_c, 0, 75, 90
1, 28560, Note_on_c, 1, 60, 56
1, 28680, Note_on_c, 0, 75, 0
1, 28680, Note_on_c, 0, 78, 0
1, 28680, Note_on_c, 0, 79, 72
1, 28680, Note_on_c, 0, 74, 72
1, 28680, Note_on_c, 1, 60, 0
1, 28680, Note_on_c, 1, 59, 72
1, 28740, Note_on_c, 0, 74, 0
1, 28740, Note_on_c, 0, 79, 0
1, 28740, Note_on_c, 1, 59, 0
1, 28800, Note_on_c, 0, 79, 80
1, 28800, Note_on_c, 1, 57, 56
1, 28860, Note_on_c, 0, 79, 0
1, 28860, Note_on_c, 0, 76, 80
1, 28890, Note_on_c, 0, 76, 0
1, 28920, Note_on_c, 0, 73, 80
1, 28920, Note_on_c, 1, 57, 0
1, 28950, Note_on_c, 0, 73, 0
1, 28980, Note_on_c, 0, 69, 80
1, 29010, Note_on_c, 0, 69, 0
1, 29040, Note_on_c, 0, 68, 80
1, 29100, Note_on_c, 0, 68, 0
1, 29100, Note_on_c, 0, 69, 80
1, 29130, Note_on_c, 0, 69, 0
1, 29160, Note_on_c, 0, 71, 80
1, 29160, Note_on_c, 1, 64, 56
1, 29160, Note_on_c, 1, 61, 56
1, 29160, Note_on_c, 1, 57, 56
1, 29190, Note_on_c, 0, 71, 0
1, 29220, Note_on_c, 0, 69, 80
1, 29220, Note_on_c, 1, 57, 0
1, 29220, Note_on_c, 1, 61, 0
1, 29220, Note_on_c, 1, 64, 0
1, 29250, Note_on_c, 0, 69, 0
1, 29280, Note_on_c, 0, 79, 80
1, 29280, Note_on_c, 1, 64, 56
1, 29280, Note_on_c, 1, 57, 56
1, 29280, Note_on_c, 1, 55, 56
1, 29340, Note_on_c, 0, 79, 0
1, 29340, Note_on_c, 0, 76, 80
1, 29340, Note_on_c, 1, 55, 0
1, 29340, Note_on_c, 1, 57, 0
1, 29340, Note_on_c, 1, 64, 0
1, 29370, Note_on_c, 0, 76, 0
1, 29400, Note_on_c, 0, 73, 80
1, 29400, Note_on_c, 1, 64, 56
1, 29400, Note_on_c, 1, 57, 56
1, 29400, Note_on_c, 1, 55, 56
1, 29430, Note_on_c, 0, 73, 0
1, 29460, Note_on_c, 0, 69, 80
1, 29490, Note_on_c, 0, 69, 0
1, 29520, Note_on_c, 0, 81, 80
1, 29520, Note_on_c, 1, 55, 0
1, 29520, Note_on_c, 1, 57, 0
1, 29520, Note_on_c, 1, 64, 0
1, 29520, Note_on_c, 1, 62, 56
1, 29520, Note_on_c, 1, 57, 56
1, 29520, Note_on_c, 1, 54, 56
1, 29580, Note_on_c, 0, 81, 0
1, 29580, Note_on_c, 0, 78, 80
1, 29604, Note_on_c, 0, 78, 0
1, 29640, Note_on_c, 0, 74, 80
1, 29664, Note_on_c, 0, 74, 0
1, 29688, Note_on_c, 1, 54, 0
1, 29688, Note_on_c, 1, 57, 0
1, 29688, Note_on_c, 1, 62, 0
1, 29700, Note_on_c, 0, 69, 80
1, 29724, Note_on_c, 0, 69, 0
1, 29760, Note_on_c, 0, 68, 80
1, 29820, Note_on_c, 0, 68, 0
1, 29820, Note_on_c, 0, 69, 80
1, 29844, Note_on_c, 0, 69, 0
1, 29880, Note_on_c, 0, 71, 80
1, 29880, Note_on_c, 1, 54, 56
1, 29880, Note_on_c, 1, 57, 56
1, 29880, Note_on_c, 1, 62, 56
1, 29904, Note_on_c, 0, 71, 0
1, 29940, Note_on_c, 0, 69, 80
1, 29940, Note_on_c, 1, 62, 0
1, 29940, Note_on_c, 1, 57, 0
1, 29940, Note_on_c, 1, 54, 0
1, 29964, Note_on_c, 0, 69, 0
1, 30000, Note_on_c, 0, 81, 80
1, 30000, Note_on_c, 1, 54, 56
1, 30000, Note_on_c, 1, 57, 56
1, 30000, Note_on_c, 1, 62, 56
1, 30060, Note_on_c, 0, 81, 0
1, 30060, Note_on_c, 0, 78, 80
1, 30060, Note_on_c, 1, 62, 0
1, 30060, Note_on_c, 1, 57, 0
1, 30060, Note_on_c, 1, 54, 0
1, 30084, Note_on_c, 0, 78, 0
1, 30120, Note_on_c, 0, 74, 80
1, 30120, Note_on_c, 1, 54, 56
1, 30120, Note_on_c, 1, 57, 56
1, 30120, Note_on_c, 1, 62, 56
1, 30144, Note_on_c, 0, 74, 0
1, 30180, Note_on_c, 0, 69, 80
1, 30204, Note_on_c, 0, 69, 0
1, 30240, Note_on_c, 0, 71, 80
1, 30240, Note_on_c, 1, 62, 0
1, 30240, Note_on_c, 1, 57, 0
1, 30240, Note_on_c, 1, 54, 0
1, 30240, Note_on_c, 1, 55, 56
1, 30240, Note_on_c, 1, 59, 56
1, 30240, Note_on_c, 1, 64, 56
1, 30300, Note_on_c, 0, 71, 0
1, 30300, Note_on_c, 0, 76, 80
1, 30330, Note_on_c, 0, 76, 0
1, 30360, Note_on_c, 0, 79, 80
1, 30390, Note_on_c, 0, 79, 0
1, 30420, Note_on_c, 0, 83, 80
1, 30450, Note_on_c, 0, 83, 0
1, 30480, Note_on_c, 0, 83, 80
1, 30480, Note_on_c, 1, 64, 0
1, 30480, Note_on_c, 1, 59, 0
1, 30480, Note_on_c, 1, 55, 0
1, 30480, Note_on_c, 1, 62, 56
1, 30480, Note_on_c, 1, 66, 56
1, 30480, Note_on_c, 1, 57, 56
1, 30540, Note_on_c, 0, 83, 0
1, 30540, Note_on_c, 0, 81, 80
1, 30600, Note_on_c, 0, 81, 0
1, 30600, Note_on_c, 0, 79, 80
1, 30660, Note_on_c, 0, 79, 0
1, 30660, Note_on_c, 0, 78, 80
1, 30720, Note_on_c, 0, 78, 0
1, 30720, Note_on_c, 0, 78, 80
1, 30720, Note_on_c, 1, 66, 0
1, 30720, Note_on_c, 1, 62, 0
1, 30720, Note_on_c, 1, 64, 56
1, 30720, Note_on_c, 1, 67, 56
1, 30780, Note_on_c, 0, 78, 0
1, 30780, Note_on_c, 0, 76, 80
1, 30840, Note_on_c, 0, 76, 0
1, 30840, Note_on_c, 0, 74, 80
1, 30900, Note_on_c, 0, 74, 0
1, 30900, Note_on_c, 0, 73, 80
1, 30960, Note_on_c, 0, 73, 0
1, 30960, Note_on_c, 0, 74, 80
1, 30960, Note_on_c, 1, 67, 0
1, 30960, Note_on_c, 1, 64, 0
1, 30960, Note_on_c, 1, 57, 0
1, 30960, Note_on_c, 1, 66, 56
1, 30960, Note_on_c, 1, 62, 56
1, 31020, Note_on_c, 0, 74, 0
1, 31080, Note_on_c, 0, 74, 80
1, 31140, Note_on_c, 0, 74, 0
1, 31140, Note_on_c, 0, 78, 80
1, 31152, Note_on_c, 1, 62, 0
1, 31152, Note_on_c, 1, 66, 0
1, 31200, Note_on_c, 0, 78, 0
1, 31200, Note_on_c, 0, 76, 80
1, 31260, Note_on_c, 0, 76, 0
1, 31260, Note_on_c, 0, 79, 80
1, 31320, Note_on_c, 0, 79, 0
1, 31320, Note_on_c, 0, 78, 80
1, 31320, Note_on_c, 1, 57, 56
1, 31380, Note_on_c, 0, 78, 0
1, 31380, Note_on_c, 0, 81, 80
1, 31380, Note_on_c, 1, 57, 0
1, 31380, Note_on_c, 1, 61, 56
1, 31440, Note_on_c, 0, 81, 0
1, 31440, Note_on_c, 0, 79, 80
1, 31440, Note_on_c, 1, 61, 0
1, 31440, Note_on_c, 1, 59, 56
1, 31470, Note_on_c, 0, 79, 0
1, 31470, Note_on_c, 0, 81, 80
1, 31500, Note_on_c, 0, 81, 0
1, 31500, Note_on_c, 0, 79, 80
1, 31500, Note_on_c, 1, 59, 0
1, 31500, Note_on_c, 1, 62, 56
1, 31530, Note_on_c, 0, 79, 0
1, 31530, Note_on_c, 0, 81, 80
1, 31560, Note_on_c, 0, 81, 0
1, 31560, Note_on_c, 0, 79, 80
1, 31560, Note_on_c, 1, 62, 0
1, 31560, Note_on_c, 1, 61, 56
1, 31580, Note_on_c, 0, 79, 0
1, 31580, Note_on_c, 0, 81, 80
1, 31600, Note_on_c, 0, 81, 0
1, 31600, Note_on_c, 0, 79, 80
1, 31620, Note_on_c, 0, 79, 0
1, 31620, Note_on_c, 0, 78, 80
1, 31620, Note_on_c, 1, 61, 0
1, 31620, Note_on_c, 1, 64, 56
1, 31650, Note_on_c, 0, 78, 0
1, 31650, Note_on_c, 0, 79, 80
1, 31680, Note_on_c, 0, 79, 0
1, 31680, Note_on_c, 0, 78, 80
1, 31680, Note_on_c, 1, 64, 0
1, 31680, Note_on_c, 1, 62, 56
1, 31740, Note_on_c, 0, 78, 0
1, 31800, Note_on_c, 0, 74, 48
1, 31800, Note_on_c, 1, 62, 0
1, 31848, Note_on_c, 0, 74, 0
1, 31860, Note_on_c, 0, 78, 48
1, 31908, Note_on_c, 0, 78, 0
1, 31920, Note_on_c, 0, 76, 48
1, 31968, Note_on_c, 0, 76, 0
1, 31980, Note_on_c, 0, 79, 48
1, 32028, Note_on_c, 0, 79, 0
1, 32040, Note_on_c, 0, 78, 48
1, 32040, Note_on_c, 1, 57, 48
1, 32088, Note_on_c, 0, 78, 0
1, 32088, Note_on_c, 1, 57, 0
1, 32100, Note_on_c, 0, 81, 48
1, 32100, Note_on_c, 1, 61, 48
1, 32148, Note_on_c, 0, 81, 0
1, 32148, Note_on_c, 1, 61, 0
1, 32160, Note_on_c, 0, 79, 48
1, 32160, Note_on_c, 1, 59, 48
1, 32190, Note_on_c, 0, 79, 0
1, 32190, Note_on_c, 0, 81, 48
1, 32208, Note_on_c, 1, 59, 0
1, 32220, Note_on_c, 0, 81, 0
1, 32220, Note_on_c, 0, 79, 48
1, 32220, Note_on_c, 1, 62, 48
1, 32250, Note_on_c, 0, 79, 0
1, 32250, Note_on_c, 0, 81, 48
1, 32268, Note_on_c, 1, 62, 0
1, 32280, Note_on_c, 0, 81, 0
1, 32280, Note_on_c, 0, 79, 48
1, 32280, Note_on_c, 1, 61, 48
1, 32300, Note_on_c, 0, 79, 0
1, 32300, Note_on_c, 0, 81, 48
1, 32320, Note_on_c, 0, 81, 0
1, 32320, Note_on_c, 0, 79, 48
1, 32328, Note_on_c, 1, 61, 0
1, 32340, Note_on_c, 0, 79, 0
1, 32340, Note_on_c, 0, 78, 48
1, 32340, Note_on_c, 1, 64, 48
1, 32370, Note_on_c, 0, 78, 0
1, 32370, Note_on_c, 0, 79, 48
1, 32388, Note_on_c, 1, 64, 0
1, 32400, Note_on_c, 0, 79, 0
1, 32400, Note_on_c, 0, 78, 48
1, 32400, Note_on_c, 1, 62, 48
1, 32520, Note_on_c, 0, 83, 48
1, 32640, Note_on_c, 0, 78, 0
1, 32640, Note_on_c, 0, 76, 48
1, 32640, Note_on_c, 1, 62, 0
1, 32640, Note_on_c, 1, 61, 48
1, 32760, Note_on_c, 0, 83, 0
1, 32760, Note_on_c, 0, 81, 48
1, 32880, Note_on_c, 0, 76, 0
1, 32880, Note_on_c, 0, 74, 48
1, 32880, Note_on_c, 1, 61, 0
1, 32880, Note_on_c, 1, 59, 48
1, 33000, Note_on_c, 0, 81, 0
1, 33000, Note_on_c, 0, 79, 48
1, 33120, Note_on_c, 0, 74, 0
1, 33120, Note_on_c, 0, 73, 48
1, 33120, Note_on_c, 1, 59, 0
1, 33120, Note_on_c, 1, 57, 48
1, 33240, Note_on_c, 0, 79, 0
1, 33240, Note_on_c, 0, 78, 48
1, 33360, Note_on_c, 0, 73, 0
1, 33360, Note_on_c, 0, 71, 48
1, 33360, Note_on_c, 1, 57, 0
1, 33360, Note_on_c, 1, 55, 48
1, 33480, Note_on_c, 0, 78, 0
1, 33480, Note_on_c, 0, 76, 48
1, 33600, Note_on_c, 0, 71, 0
1, 33600, Note_on_c, 0, 69, 48
1, 33600, Note_on_c, 1, 55, 0
1, 33600, Note_on_c, 1, 54, 48
1, 33720, Note_on_c, 0, 76, 0
1, 33720, Note_on_c, 0, 74, 48
1, 33840, Note_on_c, 0, 74, 0
1, 33840, Note_on_c, 0, 69, 0
1, 33840, Note_on_c, 0, 71, 64
1, 33840, Note_on_c, 0, 75, 64
1, 33840, Note_on_c, 1, 54, 0
1, 33840, Note_on_c, 1, 55, 64
1, 33936, Note_on_c, 0, 75, 0
1, 33960, Note_on_c, 0, 76, 56
1, 34020, Note_on_c, 0, 76, 0
1, 34020, Note_on_c, 0, 71, 0
1, 34080, Note_on_c, 1, 55, 0
1, 34080, Note_on_c, 1, 52, 56
1, 34200, Note_on_c, 0, 71, 56
1, 34200, Note_on_c, 0, 79, 56
1, 34236, Note_on_c, 0, 79, 0
1, 34236, Note_on_c, 0, 71, 0
1, 34320, Note_on_c, 0, 67, 56
1, 34320, Note_on_c, 0, 76, 56
1, 34320, Note_on_c, 1, 52, 0
1, 34320, Note_on_c, 1, 57, 56
1, 34356, Note_on_c, 0, 76, 0
1, 34356, Note_on_c, 0, 67, 0
1, 34440, Note_on_c, 0, 64, 56
1, 34440, Note_on_c, 0, 73, 56
1, 34512, Note_on_c, 1, 57, 0
1, 34560, Note_on_c, 0, 73, 0
1, 34560, Note_on_c, 0, 64, 0
1, 34560, Note_on_c, 0, 78, 80
1, 34560, Note_on_c, 1, 62, 56
1, 34620, Note_on_c, 0, 80, 80
1, 34680, Note_on_c, 0, 80, 0
1, 34680, Note_on_c, 0, 82, 80
1, 34740, Note_on_c, 0, 82, 0
1, 34740, Note_on_c, 0, 83, 80
1, 34800, Note_on_c, 0, 83, 0
1, 34800, Note_on_c, 0, 78, 0
1, 34800, Note_on_c, 0, 76, 80
1, 34800, Note_on_c, 1, 62, 0
1, 34800, Note_on_c, 1, 61, 56
1, 34860, Note_on_c, 0, 83, 80
1, 34920, Note_on_c, 0, 83, 0
1, 34920, Note_on_c, 0, 80, 80
1, 34980, Note_on_c, 0, 80, 0
1, 34980, Note_on_c, 0, 81, 80
1, 35040, Note_on_c, 0, 81, 0
1, 35040, Note_on_c, 0, 76, 0
1, 35040, Note_on_c, 0, 74, 80
1, 35040, Note_on_c, 1, 61, 0
1, 35040, Note_on_c, 1, 59, 56
1, 35100, Note_on_c, 0, 76, 80
1, 35160, Note_on_c, 0, 76, 0
1, 35160, Note_on_c, 0, 78, 80
1, 35220, Note_on_c, 0, 78, 0
1, 35220, Note_on_c, 0, 79, 80
1, 35280, Note_on_c, 0, 79, 0
1, 35280, Note_on_c, 0, 74, 0
1, 35280, Note_on_c, 0, 73, 80
1, 35280, Note_on_c, 1, 59, 0
1, 35280, Note_on_c, 1, 57, 56
1, 35340, Note_on_c, 0, 79, 80
1, 35400, Note_on_c, 0, 79, 0
1, 35400, Note_on_c, 0, 77, 80
1, 35460, Note_on_c, 0, 77, 0
1, 35460, Note_on_c, 0, 78, 80
1, 35520, Note_on_c, 0, 78, 0
1, 35520, Note_on_c, 0, 73, 0
1, 35520, Note_on_c, 0, 71, 80
1, 35520, Note_on_c, 1, 57, 0
1, 35520, Note_on_c, 1, 55, 56
1, 35580, Note_on_c, 0, 73, 80
1, 35640, Note_on_c, 0, 73, 0
1, 35640, Note_on_c, 0, 75, 80
1, 35700, Note_on_c, 0, 75, 0
1, 35700, Note_on_c, 0, 76, 80
1, 35760, Note_on_c, 0, 76, 0
1, 35760, Note_on_c, 0, 71, 0
1, 35760, Note_on_c, 0, 69, 80
1, 35760, Note_on_c, 1, 55, 0
1, 35760, Note_on_c, 1, 54, 56
1, 35820, Note_on_c, 0, 76, 80
1, 35880, Note_on_c, 0, 76, 0
1, 35880, Note_on_c, 0, 73, 80
1, 35940, Note_on_c, 0, 73, 0
1, 35940, Note_on_c, 0, 74, 80
1, 36000, Note_on_c, 0, 74, 0
1, 36000, Note_on_c, 0, 69, 0
1, 36000, Note_on_c, 0, 76, 80
1, 36000, Note_on_c, 1, 54, 0
1, 36000, Note_on_c, 1, 55, 56
1, 36060, Note_on_c, 0, 76, 0
1, 36060, Note_on_c, 0, 79, 80
1, 36120, Note_on_c, 0, 79, 0
1, 36120, Note_on_c, 0, 83, 80
1, 36180, Note_on_c, 0, 83, 0
1, 36180, Note_on_c, 0, 79, 80
1, 36240, Note_on_c, 0, 79, 0
1, 36240, Note_on_c, 0, 78, 80
1, 36240, Note_on_c, 1, 55, 0
1, 36240, Note_on_c, 1, 57, 56
1, 36300, Note_on_c, 0, 78, 0
1, 36300, Note_on_c, 0, 81, 80
1, 36360, Note_on_c, 0, 81, 0
1, 36360, Note_on_c, 0, 74, 80
1, 36420, Note_on_c, 0, 74, 0
1, 36420, Note_on_c, 0, 78, 80
1, 36480, Note_on_c, 0, 78, 0
1, 36480, Note_on_c, 0, 76, 80
1, 36480, Note_on_c, 1, 57, 0
1, 36480, Note_on_c, 1, 45, 56
1, 36540, Note_on_c, 0, 76, 0
1, 36540, Note_on_c, 0, 79, 80
1, 36600, Note_on_c, 0, 79, 0
1, 36600, Note_on_c, 0, 73, 80
1, 36660, Note_on_c, 0, 73, 0
1, 36660, Note_on_c, 0, 76, 80
1, 36720, Note_on_c, 0, 76, 0
1, 36720, Note_on_c, 0, 74, 80
1, 36720, Note_on_c, 1, 45, 0
1, 36720, Note_on_c, 1, 50, 56
1, 36780, Note_on_c, 1, 50, 0
1, 36780, Note_on_c, 1, 62, 56
1, 36840, Note_on_c, 1, 62, 0
1, 36840, Note_on_c, 1, 61, 56
1, 36900, Note_on_c, 1, 61, 0
1, 36900, Note_on_c, 1, 62, 56
1, 36912, Note_on_c, 0, 74, 0
1, 36960, Note_on_c, 1, 62, 0
1, 36960, Note_on_c, 1, 50, 56
1, 37020, Note_on_c, 1, 50, 0
1, 37020, Note_on_c, 1, 62, 56
1, 37080, Note_on_c, 0, 66, 80
1, 37080, Note_on_c, 0, 69, 80
1, 37080, Note_on_c, 0, 72, 80
1, 37080, Note_on_c, 1, 62, 0
1, 37080, Note_on_c, 1, 61, 56
1, 37116, Note_on_c, 0, 72, 0
1, 37116, Note_on_c, 0, 69, 0
1, 37116, Note_on_c, 0, 66, 0
1, 37140, Note_on_c, 1, 61, 0
1, 37140, Note_on_c, 1, 62, 56
1, 37200, Note_on_c, 0, 67, 80
1, 37200, Note_on_c, 0, 71, 80
1, 37200, Note_on_c, 1, 62, 0
1, 37200, Note_on_c, 1, 50, 56
1, 37236, Note_on_c, 0, 71, 0
1, 37236, Note_on_c, 0, 67, 0
1, 37260, Note_on_c, 1, 50, 0
1, 37260, Note_on_c, 1, 62, 56
1, 37320, Note_on_c, 0, 64, 80
1, 37320, Note_on_c, 0, 67, 80
1, 37320, Note_on_c, 0, 73, 80
1, 37320, Note_on_c, 1, 62, 0
1, 37320, Note_on_c, 1, 61, 56
1, 37380, Note_on_c, 1, 61, 0
1, 37380, Note_on_c, 1, 62, 56
1, 37440, Note_on_c, 0, 73, 0
1, 37440, Note_on_c, 0, 67, 0
1, 37440, Note_on_c, 0, 64, 0
1, 37440, Note_on_c, 0, 66, 80
1, 37440, Note_on_c, 0, 69, 80
1, 37440, Note_on_c, 0, 74, 80
1, 37440, Note_on_c, 1, 62, 0
1, 37440, Note_on_c, 1, 50, 56
1, 37500, Note_on_c, 1, 50, 0
1, 37500, Note_on_c, 1, 62, 56
1, 37560, Note_on_c, 1, 62, 0
1, 37560, Note_on_c, 1, 61, 56
1, 37620, Note_on_c, 1, 61, 0
1, 37620, Note_on_c, 1, 62, 56
1, 37680, Note_on_c, 0, 74, 0
1, 37680, Note_on_c, 0, 69, 0
1, 37680, Note_on_c, 0, 66, 0
1, 37680, Note_on_c, 1, 62, 0
1, 37680, Note_on_c, 1, 50, 56
1, 37740, Note_on_c, 1, 50, 0
1, 37740, Note_on_c, 1, 62, 56
1, 37800, Note_on_c, 0, 78, 80
1, 37800, Note_on_c, 0, 81, 80
1, 37800, Note_on_c, 0, 84, 80
1, 37800, Note_on_c, 1, 62, 0
1, 37800, Note_on_c, 1, 61, 56
1, 37836, Note_on_c, 0, 84, 0
1, 37836, Note_on_c, 0, 81, 0
1, 37836, Note_on_c, 0, 78, 0
1, 37860, Note_on_c, 1, 61, 0
1, 37860, Note_on_c, 1, 62, 56
1, 37920, Note_on_c, 0, 83, 80
1, 37920, Note_on_c, 0, 79, 80
1, 37920, Note_on_c, 1, 62, 0
1, 37920, Note_on_c, 1, 50, 56
1, 37956, Note_on_c, 0, 79, 0
1, 37956, Note_on_c, 0, 83, 0
1, 37980, Note_on_c, 1, 50, 0
1, 37980, Note_on_c, 1, 62, 56
1, 38040, Note_on_c, 0, 85, 80
1, 38040, Note_on_c, 0, 79, 80
1, 38040, Note_on_c, 0, 76, 80
1, 38040, Note_on_c, 1, 62, 0
1, 38040, Note_on_c, 1, 61, 56
1, 38100, Note_on_c, 1, 61, 0
1, 38100, Note_on_c, 1, 62, 56
1, 38160, Note_on_c, 0, 76, 0
1, 38160, Note_on_c, 0, 79, 0
1, 38160, Note_on_c, 0, 85, 0
1, 38160, Note_on_c, 0, 86, 80
1, 38160, Note_on_c, 0, 81, 80
1, 38160, Note_on_c, 0, 78, 80
1, 38160, Note_on_c, 1, 62, 0
1, 38160, Note_on_c, 1, 50, 56
1, 38400, Note_on_c, 0, 78, 0
1, 38400, Note_on_c, 0, 81, 0
1, 38400, Note_on_c, 0, 86, 0
1, 38400, Note_on_c, 1, 50, 0
1, 38820, Note_on_c, 0, 80, 56
1, 38880, Note_on_c, 0, 80, 0
1, 38880, Note_on_c, 0, 81, 56
1, 38952, Note_on_c, 0, 81, 0
1, 39120, Note_on_c, 1, 66, 48
1, 39120, Note_on_c, 1, 62, 48
1, 39240, Note_on_c, 1, 62, 0
1, 39240, Note_on_c, 1, 66, 0
1, 39360, Note_on_c, 1, 66, 48
1, 39360, Note_on_c, 1, 62, 48
1, 39480, Note_on_c, 1, 62, 0
1, 39480, Note_on_c, 1, 66, 0
1, 39600, Note_on_c, 0, 79, 64
1, 39660, Note_on_c, 0, 79, 0
1, 39660, Note_on_c, 0, 78, 56
1, 39720, Note_on_c, 0, 78, 0
1, 39720, Note_on_c, 0, 76, 56
1, 39780, Note_on_c, 0, 76, 0
1, 39780, Note_on_c, 0, 74, 56
1, 39840, Note_on_c, 0, 74, 0
1, 39840, Note_on_c, 0, 73, 56
1, 39840, Note_on_c, 1, 64, 48
1, 39840, Note_on_c, 1, 67, 48
1, 39960, Note_on_c, 1, 67, 0
1, 39960, Note_on_c, 1, 64, 0
1, 40080, Note_on_c, 0, 73, 0
1, 40080, Note_on_c, 1, 64, 48
1, 40080, Note_on_c, 1, 67, 48
1, 40200, Note_on_c, 1, 67, 0
1, 40200, Note_on_c, 1, 64, 0
1, 40260, Note_on_c, 0, 74, 56
1, 40320, Note_on_c, 0, 74, 0
1, 40320, Note_on_c, 0, 86, 64
1, 40416, Note_on_c, 0, 86, 0
1, 40560, Note_on_c, 1, 66, 48
1, 40560, Note_on_c, 1, 69, 48
1, 40680, Note_on_c, 1, 69, 0
1, 40680, Note_on_c, 1, 66, 0
1, 40800, Note_on_c, 1, 66, 48
1, 40800, Note_on_c, 1, 69, 48
1, 40920, Note_on_c, 1, 69, 0
1, 40920, Note_on_c, 1, 66, 0
1, 41040, Note_on_c, 0, 76, 56
1, 41280, Note_on_c, 1, 67, 48
1, 41280, Note_on_c, 1, 71, 48
1, 41328, Note_on_c, 0, 76, 0
1, 41340, Note_on_c, 0, 78, 60
1, 41388, Note_on_c, 0, 78, 0
1, 41400, Note_on_c, 0, 79, 64
1, 41448, Note_on_c, 0, 79, 0
1, 41460, Note_on_c, 0, 78, 68
1, 41508, Note_on_c, 0, 78, 0
1, 41520, Note_on_c, 0, 81, 72
1, 41520, Note_on_c, 1, 71, 0
1, 41520, Note_on_c, 1, 67, 0
1, 41520, Note_on_c, 1, 69, 48
1, 41520, Note_on_c, 1, 73, 48
1, 41568, Note_on_c, 0, 81, 0
1, 41580, Note_on_c, 0, 79, 68
1, 41628, Note_on_c, 0, 79, 0
1, 41640, Note_on_c, 0, 78, 64
1, 41688, Note_on_c, 0, 78, 0
1, 41700, Note_on_c, 0, 76, 60
1, 41748, Note_on_c, 0, 76, 0
1, 41760, Note_on_c, 0, 80, 56
1, 41760, Note_on_c, 1, 73, 0
1, 41760, Note_on_c, 1, 69, 0
1, 41808, Note_on_c, 0, 80, 0
1, 41820, Note_on_c, 0, 81, 56
1, 41868, Note_on_c, 0, 81, 0
1, 41880, Note_on_c, 0, 80, 56
1, 41928, Note_on_c, 0, 80, 0
1, 41940, Note_on_c, 0, 81, 56
1, 41988, Note_on_c, 0, 81, 0
1, 42000, Note_on_c, 0, 83, 56
1, 42000, Note_on_c, 1, 54, 48
1, 42000, Note_on_c, 1, 50, 48
1, 42096, Note_on_c, 0, 83, 0
1, 42096, Note_on_c, 1, 50, 0
1, 42096, Note_on_c, 1, 54, 0
1, 42120, Note_on_c, 0, 81, 56
1, 42180, Note_on_c, 0, 81, 0
1, 42240, Note_on_c, 1, 54, 48
1, 42240, Note_on_c, 1, 50, 48
1, 42336, Note_on_c, 1, 50, 0
1, 42336, Note_on_c, 1, 54, 0
1, 42480, Note_on_c, 0, 81, 72
1, 42528, Note_on_c, 0, 81, 0
1, 42540, Note_on_c, 0, 79, 71
1, 42588, Note_on_c, 0, 79, 0
1, 42600, Note_on_c, 0, 78, 69
1, 42648, Note_on_c, 0, 78, 0
1, 42660, Note_on_c, 0, 76, 68
1, 42708, Note_on_c, 0, 76, 0
1, 42720, Note_on_c, 0, 74, 67
1, 42720, Note_on_c, 1, 55, 48
1, 42720, Note_on_c, 1, 52, 48
1, 42816, Note_on_c, 1, 52, 0
1, 42816, Note_on_c, 1, 55, 0
1, 42912, Note_on_c, 0, 74, 0
1, 42960, Note_on_c, 0, 73, 61
1, 42960, Note_on_c, 1, 55, 48
1, 42960, Note_on_c, 1, 52, 48
1, 43056, Note_on_c, 0, 73, 0
1, 43056, Note_on_c, 1, 52, 0
1, 43056, Note_on_c, 1, 55, 0
1, 43200, Note_on_c, 0, 85, 48
1, 43248, Note_on_c, 0, 85, 0
1, 43260, Note_on_c, 0, 86, 49
1, 43308, Note_on_c, 0, 86, 0
1, 43320, Note_on_c, 0, 85, 49
1, 43368, Note_on_c, 0, 85, 0
1, 43380, Note_on_c, 0, 86, 50
1, 43428, Note_on_c, 0, 86, 0
1, 43440, Note_on_c, 0, 88, 51
1, 43440, Note_on_c, 1, 57, 40
1, 43440, Note_on_c, 1, 54, 40
1, 43536, Note_on_c, 0, 88, 0
1, 43536, Note_on_c, 1, 54, 0
1, 43536, Note_on_c, 1, 57, 0
1, 43560, Note_on_c, 0, 86, 52
1, 43620, Note_on_c, 0, 86, 0
1, 43680, Note_on_c, 1, 54, 40
1, 43680, Note_on_c, 1, 57, 40
1, 43776, Note_on_c, 1, 57, 0
1, 43776, Note_on_c, 1, 54, 0
1, 43860, Note_on_c, 0, 86, 55
1, 43908, Note_on_c, 0, 86, 0
1, 43920, Note_on_c, 0, 76, 64
1, 44160, Note_on_c, 1, 59, 56
1, 44160, Note_on_c, 1, 55, 56
1, 44208, Note_on_c, 0, 76, 0
1, 44220, Note_on_c, 0, 75, 71
1, 44268, Note_on_c, 0, 75, 0
1, 44280, Note_on_c, 0, 76, 72
1, 44328, Note_on_c, 0, 76, 0
1, 44340, Note_on_c, 0, 78, 73
1, 44388, Note_on_c, 0, 78, 0
1, 44400, Note_on_c, 0, 81, 75
1, 44400, Note_on_c, 1, 55, 0
1, 44400, Note_on_c, 1, 59, 0
1, 44400, Note_on_c, 1, 61, 56
1, 44400, Note_on_c, 1, 57, 56
1, 44448, Note_on_c, 0, 81, 0
1, 44460, Note_on_c, 0, 79, 76
1, 44508, Note_on_c, 0, 79, 0
1, 44520, Note_on_c, 0, 78, 77
1, 44568, Note_on_c, 0, 78, 0
1, 44580, Note_on_c, 0, 76, 79
1, 44592, Note_on_c, 1, 57, 0
1, 44592, Note_on_c, 1, 61, 0
1, 44628, Note_on_c, 0, 76, 0
1, 44640, Note_on_c, 0, 74, 80
1, 44640, Note_on_c, 1, 50, 56
1, 44760, Note_on_c, 1, 50, 0
1, 44760, Note_on_c, 1, 62, 40
1, 44808, Note_on_c, 1, 62, 0
1, 44832, Note_on_c, 0, 74, 0
1, 44880, Note_on_c, 1, 62, 40
1, 44928, Note_on_c, 1, 62, 0
1, 45000, Note_on_c, 0, 76, 48
1, 45000, Note_on_c, 1, 62, 40
1, 45040, Note_on_c, 0, 76, 0
1, 45040, Note_on_c, 0, 74, 48
1, 45048, Note_on_c, 1, 62, 0
1, 45080, Note_on_c, 0, 74, 0
1, 45080, Note_on_c, 0, 73, 48
1, 45120, Note_on_c, 0, 73, 0
1, 45120, Note_on_c, 0, 74, 48
1, 45120, Note_on_c, 1, 62, 40
1, 45168, Note_on_c, 1, 62, 0
1, 45180, Note_on_c, 0, 74, 0
1, 45240, Note_on_c, 0, 74, 48
1, 45240, Note_on_c, 1, 62, 40
1, 45288, Note_on_c, 1, 62, 0
1, 45300, Note_on_c, 0, 74, 0
1, 45360, Note_on_c, 0, 79, 48
1, 45360, Note_on_c, 0, 83, 48
1, 45360, Note_on_c, 1, 62, 48
1, 45408, Note_on_c, 1, 62, 0
1, 45420, Note_on_c, 0, 83, 0
1, 45420, Note_on_c, 0, 79, 0
1, 45480, Note_on_c, 0, 78, 53
1, 45480, Note_on_c, 0, 81, 53
1, 45480, Note_on_c, 1, 62, 53
1, 45528, Note_on_c, 1, 62, 0
1, 45540, Note_on_c, 0, 81, 0
1, 45540, Note_on_c, 0, 78, 0
1, 45600, Note_on_c, 0, 76, 59
1, 45600, Note_on_c, 0, 79, 59
1, 45600, Note_on_c, 1, 62, 59
1, 45648, Note_on_c, 1, 62, 0
1, 45660, Note_on_c, 0, 79, 0
1, 45660, Note_on_c, 0, 76, 0
1, 45720, Note_on_c, 0, 74, 64
1, 45720, Note_on_c, 0, 78, 64
1, 45720, Note_on_c, 1, 62, 64
1, 45768, Note_on_c, 1, 62, 0
1, 45780, Note_on_c, 0, 78, 0
1, 45780, Note_on_c, 0, 74, 0
1, 45840, Note_on_c, 0, 72, 69
1, 45840, Note_on_c, 0, 76, 69
1, 45840, Note_on_c, 1, 62, 69
1, 45888, Note_on_c, 1, 62, 0
1, 45900, Note_on_c, 0, 76, 0
1, 45900, Note_on_c, 0, 72, 0
1, 45960, Note_on_c, 0, 71, 75
1, 45960, Note_on_c, 0, 74, 75
1, 45960, Note_on_c, 1, 62, 75
1, 46008, Note_on_c, 1, 62, 0
1, 46020, Note_on_c, 0, 74, 0
1, 46020, Note_on_c, 0, 71, 0
1, 46080, Note_on_c, 0, 69, 80
1, 46080, Note_on_c, 0, 72, 80
1, 46080, Note_on_c, 1, 50, 56
1, 46200, Note_on_c, 1, 50, 0
1, 46200, Note_on_c, 1, 62, 48
1, 46248, Note_on_c, 1, 62, 0
1, 46320, Note_on_c, 0, 72, 0
1, 46320, Note_on_c, 0, 69, 0
1, 46320, Note_on_c, 1, 62, 48
1, 46368, Note_on_c, 1, 62, 0
1, 46440, Note_on_c, 0, 74, 48
1, 46440, Note_on_c, 1, 62, 48
1, 46480, Note_on_c, 0, 74, 0
1, 46480, Note_on_c, 0, 72, 48
1, 46488, Note_on_c, 1, 62, 0
1, 46520, Note_on_c, 0, 72, 0
1, 46520, Note_on_c, 0, 71, 48
1, 46560, Note_on_c, 0, 71, 0
1, 46560, Note_on_c, 0, 72, 48
1, 46560, Note_on_c, 1, 62, 48
1, 46608, Note_on_c, 1, 62, 0
1, 46620, Note_on_c, 0, 72, 0
1, 46680, Note_on_c, 0, 72, 48
1, 46680, Note_on_c, 1, 62, 48
1, 46728, Note_on_c, 1, 62, 0
1, 46740, Note_on_c, 0, 72, 0
1, 46800, Note_on_c, 0, 78, 56
1, 46800, Note_on_c, 0, 81, 56
1, 46800, Note_on_c, 1, 62, 56
1, 46848, Note_on_c, 1, 62, 0
1, 46860, Note_on_c, 0, 81, 0
1, 46860, Note_on_c, 0, 78, 0
1, 46920, Note_on_c, 0, 76, 53
1, 46920, Note_on_c, 0, 79, 53
1, 46920, Note_on_c, 1, 62, 56
1, 46968, Note_on_c, 1, 62, 0
1, 46980, Note_on_c, 0, 79, 0
1, 46980, Note_on_c, 0, 76, 0
1, 47040, Note_on_c, 0, 74, 59
1, 47040, Note_on_c, 0, 78, 59
1, 47040, Note_on_c, 1, 62, 56
1, 47088, Note_on_c, 1, 62, 0
1, 47100, Note_on_c, 0, 78, 0
1, 47100, Note_on_c, 0, 74, 0
1, 47160, Note_on_c, 0, 72, 64
1, 47160, Note_on_c, 0, 76, 64
1, 47160, Note_on_c, 1, 62, 56
1, 47208, Note_on_c, 1, 62, 0
1, 47220, Note_on_c, 0, 76, 0
1, 47220, Note_on_c, 0, 72, 0
1, 47280, Note_on_c, 0, 71, 69
1, 47280, Note_on_c, 0, 74, 69
1, 47280, Note_on_c, 1, 62, 56
1, 47328, Note_on_c, 1, 62, 0
1, 47340, Note_on_c, 0, 74, 0
1, 47340, Note_on_c, 0, 71, 0
1, 47400, Note_on_c, 0, 69, 75
1, 47400, Note_on_c, 0, 72, 75
1, 47400, Note_on_c, 1, 62, 56
1, 47448, Note_on_c, 1, 62, 0
1, 47460, Note_on_c, 0, 72, 0
1, 47460, Note_on_c, 0, 69, 0
1, 47520, Note_on_c, 0, 67, 80
1, 47520, Note_on_c, 0, 71, 80
1, 47520, Note_on_c, 1, 50, 56
1, 47640, Note_on_c, 1, 50, 0
1, 47640, Note_on_c, 1, 62, 48
1, 47700, Note_on_c, 1, 62, 0
1, 47760, Note_on_c, 0, 71, 0
1, 47760, Note_on_c, 0, 67, 0
1, 47760, Note_on_c, 1, 62, 48
1, 47820, Note_on_c, 1, 62, 0
1, 47880, Note_on_c, 0, 72, 48
1, 47880, Note_on_c, 1, 62, 48
1, 47920, Note_on_c, 0, 72, 0
1, 47920, Note_on_c, 0, 71, 48
1, 47940, Note_on_c, 1, 62, 0
1, 47960, Note_on_c, 0, 71, 0
1, 47960, Note_on_c, 0, 69, 48
1, 48000, Note_on_c, 0, 69, 0
1, 48000, Note_on_c, 0, 71, 48
1, 48000, Note_on_c, 1, 62, 48
1, 48060, Note_on_c, 0, 71, 0
1, 48060, Note_on_c, 1, 62, 0
1, 48120, Note_on_c, 0, 71, 48
1, 48120, Note_on_c, 1, 62, 48
1, 48180, Note_on_c, 0, 71, 0
1, 48180, Note_on_c, 1, 62, 0
1, 48240, Note_on_c, 0, 71, 48
1, 48240, Note_on_c, 0, 79, 48
1, 48240, Note_on_c, 1, 62, 48
1, 48288, Note_on_c, 1, 62, 0
1, 48360, Note_on_c, 0, 79, 0
1, 48360, Note_on_c, 0, 71, 0
1, 48360, Note_on_c, 0, 69, 53
1, 48360, Note_on_c, 0, 78, 53
1, 48360, Note_on_c, 1, 62, 53
1, 48408, Note_on_c, 0, 78, 0
1, 48408, Note_on_c, 0, 69, 0
1, 48408, Note_on_c, 1, 62, 0
1, 48480, Note_on_c, 0, 72, 59
1, 48480, Note_on_c, 0, 76, 59
1, 48480, Note_on_c, 1, 62, 59
1, 48528, Note_on_c, 1, 62, 0
1, 48600, Note_on_c, 0, 76, 0
1, 48600, Note_on_c, 0, 72, 0
1, 48600, Note_on_c, 0, 71, 64
1, 48600, Note_on_c, 0, 74, 64
1, 48600, Note_on_c, 1, 62, 64
1, 48648, Note_on_c, 0, 74, 0
1, 48648, Note_on_c, 0, 71, 0
1, 48648, Note_on_c, 1, 62, 0
1, 48720, Note_on_c, 0, 69, 69
1, 48720, Note_on_c, 0, 72, 69
1, 48720, Note_on_c, 1, 62, 69
1, 48840, Note_on_c, 0, 72, 0
1, 48840, Note_on_c, 0, 69, 0
1, 48840, Note_on_c, 0, 67, 75
1, 48840, Note_on_c, 0, 71, 75
1, 48840, Note_on_c, 1, 62, 0
1, 48840, Note_on_c, 1, 62, 75
1, 48960, Note_on_c, 0, 71, 0
1, 48960, Note_on_c, 0, 67, 0
1, 48960, Note_on_c, 0, 66, 80
1, 48960, Note_on_c, 0, 69, 80
1, 48960, Note_on_c, 1, 62, 0
1, 48960, Note_on_c, 1, 62, 56
1, 49200, Note_on_c, 0, 69, 0
1, 49200, Note_on_c, 0, 66, 0
1, 49200, Note_on_c, 1, 62, 0
1, 49320, Note_on_c, 0, 62, 80
1, 49320, Note_on_c, 1, 50, 56
1, 49368, Note_on_c, 0, 62, 0
1, 49368, Note_on_c, 1, 50, 0
1, 49380, Note_on_c, 0, 64, 80
1, 49380, Note_on_c, 1, 52, 56
1, 49428, Note_on_c, 0, 64, 0
1, 49428, Note_on_c, 1, 52, 0
1, 49440, Note_on_c, 0, 66, 80
1, 49440, Note_on_c, 1, 54, 56
1, 49476, Note_on_c, 0, 66, 0
1, 49476, Note_on_c, 1, 54, 0
1, 49560, Note_on_c, 0, 67, 80
1, 49560, Note_on_c, 1, 55, 56
1, 49596, Note_on_c, 0, 67, 0
1, 49596, Note_on_c, 1, 55, 0
1, 49680, Note_on_c, 0, 69, 90
1, 49680, Note_on_c, 1, 57, 56
1, 49872, Note_on_c, 0, 69, 0
1, 49872, Note_on_c, 1, 57, 0
1, 50040, Note_on_c, 0, 66, 40
1, 50040, Note_on_c, 1, 54, 40
1, 50088, Note_on_c, 0, 66, 0
1, 50088, Note_on_c, 1, 54, 0
1, 50100, Note_on_c, 0, 67, 40
1, 50100, Note_on_c, 1, 55, 40
1, 50148, Note_on_c, 0, 67, 0
1, 50148, Note_on_c, 1, 55, 0
1, 50160, Note_on_c, 0, 69, 40
1, 50160, Note_on_c, 1, 57, 40
1, 50196, Note_on_c, 0, 69, 0
1, 50196, Note_on_c, 1, 57, 0
1, 50280, Note_on_c, 0, 71, 40
1, 50280, Note_on_c, 1, 59, 40
1, 50316, Note_on_c, 0, 71, 0
1, 50316, Note_on_c, 1, 59, 0
1, 50400, Note_on_c, 0, 72, 40
1, 50400, Note_on_c, 1, 60, 40
1, 50592, Note_on_c, 0, 72, 0
1, 50592, Note_on_c, 1, 60, 0
1, 50640, Tempo, 454545
1, 50760, Note_on_c, 0, 84, 40
1, 50820, Note_on_c, 0, 84, 0
1, 50820, Note_on_c, 0, 83, 40
1, 50880, Tempo, 480000
1, 50880, Note_on_c, 0, 83, 0
1, 50880, Note_on_c, 0, 81, 40
1, 50928, Note_on_c, 0, 81, 0
1, 51000, Note_on_c, 0, 81, 40
1, 51060, Note_on_c, 0, 81, 0
1, 51060, Note_on_c, 0, 79, 40
1, 51120, Tempo, 504202
1, 51120, Note_on_c, 0, 79, 0
1, 51120, Note_on_c, 0, 78, 40
1, 51168, Note_on_c, 0, 78, 0
1, 51240, Note_on_c, 0, 78, 43
1, 51300, Note_on_c, 0, 78, 0
1, 51300, Note_on_c, 0, 76, 44
1, 51360, Tempo, 530973
1, 51360, Note_on_c, 0, 76, 0
1, 51360, Note_on_c, 0, 74, 45
1, 51408, Note_on_c, 0, 74, 0
1, 51480, Note_on_c, 0, 74, 48
1, 51540, Note_on_c, 0, 74, 0
1, 51540, Note_on_c, 0, 73, 49
1, 51600, Tempo, 566038
1, 51600, Note_on_c, 0, 73, 0
1, 51600, Note_on_c, 0, 74, 51
1, 51780, Note_on_c, 0, 74, 0
1, 51780, Note_on_c, 0, 71, 55
1, 51840, Tempo, 434783
1, 51840, Note_on_c, 0, 71, 0
1, 51840, Note_on_c, 0, 74, 56
1, 51840, Note_on_c, 1, 55, 48
1, 51960, Note_on_c, 1, 55, 0
1, 51960, Note_on_c, 1, 59, 48
1, 52032, Note_on_c, 0, 74, 0
1, 52080, Note_on_c, 1, 59, 0
1, 52080, Note_on_c, 1, 62, 48
1, 52200, Note_on_c, 1, 62, 0
1, 52200, Note_on_c, 1, 59, 48
1, 52320, Note_on_c, 0, 67, 56
1, 52320, Note_on_c, 1, 59, 0
1, 52320, Note_on_c, 1, 62, 48
1, 52440, Note_on_c, 1, 62, 0
1, 52440, Note_on_c, 1, 59, 48
1, 52560, Note_on_c, 0, 67, 0
1, 52560, Note_on_c, 0, 66, 56
1, 52560, Note_on_c, 1, 59, 0
1, 52560, Note_on_c, 1, 57, 48
1, 52680, Note_on_c, 0, 66, 0
1, 52680, Note_on_c, 1, 57, 0
1, 52680, Note_on_c, 1, 60, 48
1, 52800, Note_on_c, 1, 60, 0
1, 52800, Note_on_c, 1, 62, 48
1, 52920, Note_on_c, 1, 62, 0
1, 52920, Note_on_c, 1, 60, 48
1, 53040, Note_on_c, 0, 81, 56
1, 53040, Note_on_c, 1, 60, 0
1, 53040, Note_on_c, 1, 62, 48
1, 53160, Note_on_c, 1, 62, 0
1, 53160, Note_on_c, 1, 60, 48
1, 53220, Note_on_c, 0, 81, 0
1, 53220, Note_on_c, 0, 78, 56
1, 53280, Note_on_c, 0, 78, 0
1, 53280, Note_on_c, 0, 81, 56
1, 53280, Note_on_c, 1, 60, 0
1, 53280, Note_on_c, 1, 54, 48
1, 53400, Note_on_c, 1, 54, 0
1, 53400, Note_on_c, 1, 57, 48
1, 53472, Note_on_c, 0, 81, 0
1, 53520, Note_on_c, 1, 57, 0
1, 53520, Note_on_c, 1, 62, 48
1, 53640, Note_on_c, 1, 62, 0
1, 53640, Note_on_c, 1, 57, 48
1, 53760, Note_on_c, 0, 72, 56
1, 53760, Note_on_c, 1, 57, 0
1, 53760, Note_on_c, 1, 62, 48
1, 53880, Note_on_c, 1, 62, 0
1, 53880, Note_on_c, 1, 57, 48
1, 53952, Note_on_c, 0, 72, 0
1, 54000, Note_on_c, 0, 71, 56
1, 54000, Note_on_c, 1, 57, 0
1, 54000, Note_on_c, 1, 55, 48
1, 54060, Note_on_c, 1, 55, 0
1, 54096, Note_on_c, 0, 71, 0
1, 54120, Note_on_c, 1, 59, 90
1, 54120, Note_on_c, 1, 62, 90
1, 54240, Note_on_c, 1, 62, 0
1, 54240, Note_on_c, 1, 59, 0
1, 54240, Note_on_c, 1, 57, 72
1, 54240, Note_on_c, 1, 60, 72
1, 54360, Note_on_c, 1, 60, 0
1, 54360, Note_on_c, 1, 57, 0
1, 54360, Note_on_c, 1, 56, 64
1, 54360, Note_on_c, 1, 59, 64
1, 54420, Note_on_c, 1, 59, 0
1, 54420, Note_on_c, 1, 56, 0
1, 54480, Note_on_c, 0, 76, 56
1, 54660, Note_on_c, 0, 76, 0
1, 54660, Note_on_c, 0, 72, 56
1, 54720, Note_on_c, 0, 72, 0
1, 54720, Note_on_c, 0, 76, 56
1, 54720, Note_on_c, 1, 57, 48
1, 54816, Note_on_c, 1, 57, 0
1, 54840, Note_on_c, 1, 60, 48
1, 54912, Note_on_c, 0, 76, 0
1, 54936, Note_on_c, 1, 60, 0
1, 54960, Note_on_c, 1, 64, 48
1, 55056, Note_on_c, 1, 64, 0
1, 55080, Note_on_c, 1, 60, 48
1, 55176, Note_on_c, 1, 60, 0
1, 55200, Note_on_c, 0, 69, 56
1, 55200, Note_on_c, 1, 64, 48
1, 55296, Note_on_c, 1, 64, 0
1, 55320, Note_on_c, 1, 60, 48
1, 55416, Note_on_c, 1, 60, 0
1, 55440, Note_on_c, 0, 69, 0
1, 55440, Note_on_c, 0, 68, 56
1, 55440, Note_on_c, 1, 59, 48
1, 55536, Note_on_c, 1, 59, 0
1, 55560, Note_on_c, 0, 68, 0
1, 55560, Note_on_c, 1, 62, 48
1, 55656, Note_on_c, 1, 62, 0
1, 55680, Note_on_c, 1, 64, 48
1, 55776, Note_on_c, 1, 64, 0
1, 55800, Note_on_c, 1, 62, 48
1, 55896, Note_on_c, 1, 62, 0
1, 55920, Note_on_c, 0, 83, 56
1, 55920, Note_on_c, 1, 64, 48
1, 56016, Note_on_c, 1, 64, 0
1, 56040, Note_on_c, 1, 62, 48
1, 56100, Note_on_c, 0, 83, 0
1, 56100, Note_on_c, 0, 80, 56
1, 56136, Note_on_c, 1, 62, 0
1, 56160, Note_on_c, 0, 80, 0
1, 56160, Note_on_c, 0, 83, 56
1, 56160, Note_on_c, 1, 56, 48
1, 56256, Note_on_c, 1, 56, 0
1, 56280, Note_on_c, 1, 59, 48
1, 56352, Note_on_c, 0, 83, 0
1, 56376, Note_on_c, 1, 59, 0
1, 56400, Note_on_c, 1, 64, 48
1, 56496, Note_on_c, 1, 64, 0
1, 56520, Note_on_c, 1, 59, 48
1, 56616, Note_on_c, 1, 59, 0
1, 56640, Note_on_c, 0, 74, 56
1, 56640, Note_on_c, 1, 64, 48
1, 56736, Note_on_c, 1, 64, 0
1, 56760, Note_on_c, 1, 59, 48
1, 56832, Note_on_c, 0, 74, 0
1, 56856, Note_on_c, 1, 59, 0
1, 56880, Note_on_c, 0, 72, 56
1, 56880, Note_on_c, 1, 57, 48
1, 56940, Note_on_c, 1, 57, 0
1, 56976, Note_on_c, 0, 72, 0
1, 57000, Note_on_c, 1, 60, 90
1, 57000, Note_on_c, 1, 64, 90
1, 57120, Note_on_c, 1, 64, 0
1, 57120, Note_on_c, 1, 60, 0
1, 57120, Note_on_c, 1, 59, 72
1, 57120, Note_on_c, 1, 62, 72
1, 57240, Note_on_c, 1, 62, 0
1, 57240, Note_on_c, 1, 59, 0
1, 57240, Note_on_c, 1, 57, 64
1, 57240, Note_on_c, 1, 60, 64
1, 57300, Note_on_c, 1, 60, 0
1, 57300, Note_on_c, 1, 57, 0
1, 57360, Note_on_c, 0, 84, 48
1, 57504, Note_on_c, 0, 84, 0
1, 57540, Note_on_c, 0, 81, 48
1, 57588, Note_on_c, 0, 81, 0
1, 57600, Note_on_c, 0, 79, 48
1, 57600, Note_on_c, 1, 57, 40
1, 57696, Note_on_c, 0, 79, 0
1, 57696, Note_on_c, 1, 57, 0
1, 57720, Note_on_c, 0, 77, 48
1, 57720, Note_on_c, 1, 60, 40
1, 57816, Note_on_c, 0, 77, 0
1, 57816, Note_on_c, 1, 60, 0
1, 57840, Note_on_c, 0, 77, 48
1, 57840, Note_on_c, 1, 65, 40
1, 57936, Note_on_c, 1, 65, 0
1, 57960, Note_on_c, 1, 57, 40
1, 58032, Note_on_c, 0, 77, 0
1, 58056, Note_on_c, 1, 57, 0
1, 58080, Note_on_c, 0, 77, 48
1, 58080, Note_on_c, 1, 59, 40
1, 58176, Note_on_c, 1, 59, 0
1, 58200, Note_on_c, 1, 67, 40
1, 58272, Note_on_c, 0, 77, 0
1, 58296, Note_on_c, 1, 67, 0
1, 58320, Note_on_c, 0, 75, 56
1, 58320, Note_on_c, 1, 60, 40
1, 58416, Note_on_c, 1, 60, 0
1, 58440, Note_on_c, 1, 67, 40
1, 58512, Note_on_c, 0, 75, 0
1, 58536, Note_on_c, 1, 67, 0
1, 58560, Note_on_c, 0, 76, 48
1, 58560, Note_on_c, 1, 72, 40
1, 58656, Note_on_c, 1, 72, 0
1, 58680, Note_on_c, 1, 67, 40
1, 58752, Note_on_c, 0, 76, 0
1, 58776, Note_on_c, 1, 67, 0
1, 58800, Note_on_c, 0, 84, 48
1, 58800, Note_on_c, 1, 64, 40
1, 58896, Note_on_c, 1, 64, 0
1, 58920, Note_on_c, 1, 67, 40
1, 58944, Note_on_c, 0, 84, 0
1, 58980, Note_on_c, 0, 79, 48
1, 59016, Note_on_c, 1, 67, 0
1, 59028, Note_on_c, 0, 79, 0
1, 59040, Note_on_c, 0, 76, 48
1, 59040, Note_on_c, 1, 60, 40
1, 59136, Note_on_c, 1, 60, 0
1, 59160, Note_on_c, 1, 64, 40
1, 59232, Note_on_c, 0, 76, 0
1, 59256, Note_on_c, 1, 64, 0
1, 59280, Note_on_c, 0, 76, 48
1, 59280, Note_on_c, 1, 67, 40
1, 59328, Note_on_c, 0, 76, 0
1, 59340, Note_on_c, 0, 79, 48
1, 59364, Note_on_c, 0, 79, 0
1, 59376, Note_on_c, 1, 67, 0
1, 59400, Note_on_c, 0, 78, 48
1, 59400, Note_on_c, 1, 64, 40
1, 59424, Note_on_c, 0, 78, 0
1, 59460, Note_on_c, 0, 79, 48
1, 59484, Note_on_c, 0, 79, 0
1, 59496, Note_on_c, 1, 64, 0
1, 59520, Note_on_c, 0, 81, 48
1, 59520, Note_on_c, 1, 60, 40
1, 59568, Note_on_c, 0, 81, 0
1, 59580, Note_on_c, 0, 79, 48
1, 59616, Note_on_c, 1, 60, 0
1, 59628, Note_on_c, 0, 79, 0
1, 59640, Note_on_c, 0, 78, 48
1, 59640, Note_on_c, 1, 64, 40
1, 59688, Note_on_c, 0, 78, 0
1, 59700, Note_on_c, 0, 76, 48
1, 59736, Note_on_c, 1, 64, 0
1, 59748, Note_on_c, 0, 76, 0
1, 59760, Note_on_c, 0, 73, 56
1, 59760, Note_on_c, 1, 67, 40
1, 59760, Note_on_c, 1, 59, 40
1, 59856, Note_on_c, 0, 73, 0
1, 59880, Note_on_c, 0, 74, 48
1, 59952, Note_on_c, 1, 59, 0
1, 59952, Note_on_c, 1, 67, 0
1, 59976, Note_on_c, 0, 74, 0
1, 60120, Note_on_c, 0, 55, 56
1, 60120, Note_on_c, 1, 43, 56
1, 60120, Note_on_c, 1, 31, 56
1, 60180, Note_on_c, 0, 55, 0
1, 60180, Note_on_c, 0, 59, 56
1, 60180, Note_on_c, 1, 31, 0
1, 60180, Note_on_c, 1, 43, 0
1, 60240, Note_on_c, 0, 59, 0
1, 60240, Note_on_c, 0, 57, 56
1, 60240, Note_on_c, 1, 45, 56
1, 60240, Note_on_c, 1, 33, 56
1, 60300, Note_on_c, 0, 57, 0
1, 60300, Note_on_c, 0, 60, 56
1, 60300, Note_on_c, 1, 33, 0
1, 60300, Note_on_c, 1, 45, 0
1, 60360, Note_on_c, 0, 60, 0
1, 60360, Note_on_c, 0, 59, 56
1, 60360, Note_on_c, 1, 47, 56
1, 60360, Note_on_c, 1, 35, 56
1, 60420, Note_on_c, 0, 59, 0
1, 60420, Note_on_c, 0, 62, 56
1, 60420, Note_on_c, 1, 35, 0
1, 60420, Note_on_c, 1, 47, 0
1, 60480, Note_on_c, 0, 62, 0
1, 60480, Note_on_c, 0, 60, 72
1, 60480, Note_on_c, 1, 48, 72
1, 60480, Note_on_c, 1, 36, 72
1, 60600, Note_on_c, 0, 60, 0
1, 60600, Note_on_c, 1, 36, 0
1, 60600, Note_on_c, 1, 48, 0
1, 60840, Note_on_c, 0, 57, 56
1, 60840, Note_on_c, 1, 45, 56
1, 60840, Note_on_c, 1, 33, 56
1, 60888, Note_on_c, 0, 57, 0
1, 60900, Note_on_c, 0, 60, 56
1, 60936, Note_on_c, 1, 33, 0
1, 60936, Note_on_c, 1, 45, 0
1, 60948, Note_on_c, 0, 60, 0
1, 60960, Note_on_c, 0, 59, 56
1, 60960, Note_on_c, 1, 47, 56
1, 60960, Note_on_c, 1, 35, 56
1, 61008, Note_on_c, 0, 59, 0
1, 61020, Note_on_c, 0, 62, 56
1, 61056, Note_on_c, 1, 35, 0
1, 61056, Note_on_c, 1, 47, 0
1, 61068, Note_on_c, 0, 62, 0
1, 61080, Note_on_c, 0, 60, 56
1, 61080, Note_on_c, 1, 48, 56
1, 61080, Note_on_c, 1, 36, 56
1, 61128, Note_on_c, 0, 60, 0
1, 61140, Note_on_c, 0, 64, 56
1, 61176, Note_on_c, 1, 36, 0
1, 61176, Note_on_c, 1, 48, 0
1, 61188, Note_on_c, 0, 64, 0
1, 61200, Note_on_c, 0, 62, 80
1, 61200, Note_on_c, 1, 50, 56
1, 61200, Note_on_c, 1, 38, 56
1, 61320, Note_on_c, 0, 62, 0
1, 61320, Note_on_c, 1, 38, 0
1, 61320, Note_on_c, 1, 50, 0
1, 61560, Note_on_c, 0, 59, 40
1, 61560, Note_on_c, 1, 47, 40
1, 61560, Note_on_c, 1, 35, 40
1, 61596, Note_on_c, 1, 35, 0
1, 61596, Note_on_c, 1, 47, 0
1, 61620, Note_on_c, 0, 59, 0
1, 61620, Note_on_c, 0, 62, 40
1, 61680, Note_on_c, 0, 62, 0
1, 61680, Note_on_c, 0, 60, 40
1, 61680, Note_on_c, 1, 48, 40
1, 61680, Note_on_c, 1, 36, 40
1, 61716, Note_on_c, 1, 36, 0
1, 61716, Note_on_c, 1, 48, 0
1, 61740, Note_on_c, 0, 60, 0
1, 61740, Note_on_c, 0, 64, 40
1, 61800, Note_on_c, 0, 64, 0
1, 61800, Note_on_c, 0, 62, 40
1, 61800, Note_on_c, 1, 50, 40
1, 61800, Note_on_c, 1, 38, 40
1, 61836, Note_on_c, 1, 38, 0
1, 61836, Note_on_c, 1, 50, 0
1, 61860, Note_on_c, 0, 62, 0
1, 61860, Note_on_c, 0, 65, 40
1, 61920, Note_on_c, 0, 65, 0
1, 61920, Note_on_c, 0, 64, 48
1, 61920, Note_on_c, 1, 40, 48
1, 61920, Note_on_c, 1, 52, 48
1, 61956, Note_on_c, 1, 52, 0
1, 61956, Note_on_c, 1, 40, 0
1, 61980, Note_on_c, 0, 64, 0
1, 61980, Note_on_c, 0, 65, 42
1, 62040, Note_on_c, 0, 65, 0
1, 62040, Note_on_c, 0, 62, 44
1, 62040, Note_on_c, 1, 38, 44
1, 62040, Note_on_c, 1, 50, 44
1, 62076, Note_on_c, 1, 50, 0
1, 62076, Note_on_c, 1, 38, 0
1, 62100, Note_on_c, 0, 62, 0
1, 62100, Note_on_c, 0, 64, 46
1, 62160, Note_on_c, 0, 64, 0
1, 62160, Note_on_c, 0, 60, 48
1, 62160, Note_on_c, 1, 36, 48
1, 62160, Note_on_c, 1, 48, 48
1, 62196, Note_on_c, 1, 48, 0
1, 62196, Note_on_c, 1, 36, 0
1, 62220, Note_on_c, 0, 60, 0
1, 62220, Note_on_c, 0, 64, 50
1, 62280, Note_on_c, 0, 64, 0
1, 62280, Note_on_c, 0, 62, 52
1, 62280, Note_on_c, 1, 38, 52
1, 62280, Note_on_c, 1, 50, 52
1, 62316, Note_on_c, 1, 50, 0
1, 62316, Note_on_c, 1, 38, 0
1, 62340, Note_on_c, 0, 62, 0
1, 62340, Note_on_c, 0, 65, 54
1, 62400, Note_on_c, 0, 65, 0
1, 62400, Note_on_c, 0, 64, 56
1, 62400, Note_on_c, 1, 40, 56
1, 62400, Note_on_c, 1, 52, 56
1, 62436, Note_on_c, 1, 52, 0
1, 62436, Note_on_c, 1, 40, 0
1, 62460, Note_on_c, 0, 64, 0
1, 62460, Note_on_c, 0, 67, 58
1, 62520, Note_on_c, 0, 67, 0
1, 62520, Note_on_c, 0, 66, 60
1, 62520, Note_on_c, 1, 42, 60
1, 62520, Note_on_c, 1, 54, 60
1, 62556, Note_on_c, 1, 54, 0
1, 62556, Note_on_c, 1, 42, 0
1, 62580, Note_on_c, 0, 66, 0
1, 62580, Note_on_c, 0, 69, 62
1, 62640, Note_on_c, 0, 69, 0
1, 62640, Note_on_c, 0, 67, 72
1, 62640, Note_on_c, 1, 43, 72
1, 62640, Note_on_c, 1, 55, 72
1, 62676, Note_on_c, 1, 55, 0
1, 62676, Note_on_c, 1, 43, 0
1, 62700, Note_on_c, 0, 67, 0
1, 62700, Note_on_c, 0, 69, 65
1, 62760, Note_on_c, 0, 69, 0
1, 62760, Note_on_c, 0, 66, 67
1, 62760, Note_on_c, 1, 42, 67
1, 62760, Note_on_c, 1, 54, 67
1, 62796, Note_on_c, 1, 54, 0
1, 62796, Note_on_c, 1, 42, 0
1, 62820, Note_on_c, 0, 66, 0
1, 62820, Note_on_c, 0, 67, 68
1, 62880, Note_on_c, 0, 67, 0
1, 62880, Note_on_c, 0, 64, 69
1, 62880, Note_on_c, 1, 40, 69
1, 62880, Note_on_c, 1, 52, 69
1, 62916, Note_on_c, 1, 52, 0
1, 62916, Note_on_c, 1, 40, 0
1, 62940, Note_on_c, 0, 64, 0
1, 62940, Note_on_c, 0, 67, 71
1, 63000, Note_on_c, 0, 67, 0
1, 63000, Note_on_c, 0, 66, 72
1, 63000, Note_on_c, 1, 42, 72
1, 63000, Note_on_c, 1, 54, 72
1, 63036, Note_on_c, 1, 54, 0
1, 63036, Note_on_c, 1, 42, 0
1, 63060, Note_on_c, 0, 66, 0
1, 63060, Note_on_c, 0, 69, 73
1, 63120, Note_on_c, 0, 69, 0
1, 63120, Note_on_c, 0, 67, 75
1, 63120, Note_on_c, 1, 43, 75
1, 63120, Note_on_c, 1, 55, 75
1, 63156, Note_on_c, 1, 55, 0
1, 63156, Note_on_c, 1, 43, 0
1, 63180, Note_on_c, 0, 67, 0
1, 63180, Note_on_c, 0, 71, 76
1, 63240, Note_on_c, 0, 71, 0
1, 63240, Note_on_c, 0, 69, 77
1, 63240, Note_on_c, 1, 45, 77
1, 63240, Note_on_c, 1, 57, 77
1, 63276, Note_on_c, 1, 57, 0
1, 63276, Note_on_c, 1, 45, 0
1, 63300, Note_on_c, 0, 69, 0
1, 63300, Note_on_c, 0, 72, 79
1, 63360, Note_on_c, 0, 72, 0
1, 63360, Note_on_c, 0, 71, 80
1, 63360, Note_on_c, 1, 47, 80
1, 63360, Note_on_c, 1, 59, 80
1, 63396, Note_on_c, 1, 59, 0
1, 63396, Note_on_c, 1, 47, 0
1, 63420, Note_on_c, 0, 71, 0
1, 63420, Note_on_c, 0, 72, 81
1, 63480, Note_on_c, 0, 72, 0
1, 63480, Note_on_c, 0, 69, 83
1, 63480, Note_on_c, 1, 45, 83
1, 63480, Note_on_c, 1, 57, 83
1, 63516, Note_on_c, 1, 57, 0
1, 63516, Note_on_c, 1, 45, 0
1, 63540, Note_on_c, 0, 69, 0
1, 63540, Note_on_c, 0, 71, 84
1, 63600, Note_on_c, 0, 71, 0
1, 63600, Note_on_c, 0, 67, 85
1, 63600, Note_on_c, 1, 43, 85
1, 63600, Note_on_c, 1, 55, 85
1, 63636, Note_on_c, 1, 55, 0
1, 63636, Note_on_c, 1, 43, 0
1, 63660, Note_on_c, 0, 67, 0
1, 63660, Note_on_c, 0, 71, 87
1, 63720, Note_on_c, 0, 71, 0
1, 63720, Note_on_c, 0, 69, 88
1, 63720, Note_on_c, 1, 45, 88
1, 63720, Note_on_c, 1, 57, 88
1, 63756, Note_on_c, 1, 57, 0
1, 63756, Note_on_c, 1, 45, 0
1, 63780, Note_on_c, 0, 69, 0
1, 63780, Note_on_c, 0, 72, 89
1, 63840, Note_on_c, 0, 72, 0
1, 63840, Note_on_c, 0, 71, 91
1, 63840, Note_on_c, 1, 47, 91
1, 63840, Note_on_c, 1, 59, 91
1, 63876, Note_on_c, 1, 59, 0
1, 63876, Note_on_c, 1, 47, 0
1, 63900, Note_on_c, 0, 71, 0
1, 63900, Note_on_c, 0, 74, 92
1, 63960, Note_on_c, 0, 74, 0
1, 63960, Note_on_c, 0, 73, 93
1, 63960, Note_on_c, 1, 49, 93
1, 63960, Note_on_c, 1, 61, 93
1, 63996, Note_on_c, 1, 61, 0
1, 63996, Note_on_c, 1, 49, 0
1, 64020, Note_on_c, 0, 73, 0
1, 64020, Note_on_c, 0, 76, 95
1, 64080, Note_on_c, 0, 76, 0
1, 64080, Note_on_c, 0, 74, 90
1, 64080, Note_on_c, 1, 62, 96
1, 64080, Note_on_c, 1, 50, 96
1, 64152, Note_on_c, 1, 50, 0
1, 64152, Note_on_c, 1, 62, 0
1, 64224, Note_on_c, 0, 74, 0
1, 64240, Note_on_c, 0, 62, 90
1, 64272, Note_on_c, 0, 62, 0
1, 64280, Note_on_c, 0, 61, 90
1, 64312, Note_on_c, 0, 61, 0
1, 64320, Note_on_c, 0, 62, 90
1, 64320, Note_on_c, 1, 50, 96
1, 64320, Note_on_c, 1, 38, 96
1, 64512, Note_on_c, 0, 62, 0
1, 64512, Note_on_c, 1, 38, 0
1, 64512, Note_on_c, 1, 50, 0
1, 64800, Note_on_c, 1, 59, 40
1, 64920, Note_on_c, 0, 74, 48
1, 64920, Note_on_c, 1, 59, 0
1, 64920, Note_on_c, 1, 62, 40
1, 65040, Note_on_c, 1, 62, 0
1, 65040, Note_on_c, 1, 57, 40
1, 65160, Note_on_c, 0, 74, 0
1, 65160, Note_on_c, 0, 72, 48
1, 65160, Note_on_c, 1, 57, 0
1, 65160, Note_on_c, 1, 62, 40
1, 65280, Note_on_c, 1, 62, 0
1, 65280, Note_on_c, 1, 55, 40
1, 65400, Note_on_c, 0, 72, 0
1, 65400, Note_on_c, 0, 71, 48
1, 65400, Note_on_c, 1, 55, 0
1, 65400, Note_on_c, 1, 62, 40
1, 65520, Note_on_c, 1, 62, 0
1, 65520, Note_on_c, 1, 54, 40
1, 65640, Note_on_c, 0, 71, 0
1, 65640, Note_on_c, 0, 69, 48
1, 65640, Note_on_c, 1, 54, 0
1, 65640, Note_on_c, 1, 62, 40
1, 65760, Note_on_c, 1, 62, 0
1, 65760, Note_on_c, 1, 52, 40
1, 65880, Note_on_c, 0, 69, 0
1, 65880, Note_on_c, 0, 67, 48
1, 65880, Note_on_c, 1, 52, 0
1, 65880, Note_on_c, 1, 62, 40
1, 66000, Note_on_c, 1, 62, 0
1, 66000, Note_on_c, 1, 50, 40
1, 66120, Note_on_c, 0, 67, 0
1, 66120, Note_on_c, 0, 66, 48
1, 66120, Note_on_c, 1, 50, 0
1, 66120, Note_on_c, 1, 62, 40
1, 66240, Note_on_c, 0, 66, 0
1, 66240, Note_on_c, 0, 69, 48
1, 66240, Note_on_c, 1, 62, 0
1, 66240, Note_on_c, 1, 52, 40
1, 66300, Note_on_c, 0, 69, 0
1, 66300, Note_on_c, 0, 67, 49
1, 66360, Note_on_c, 1, 52, 0
1, 66360, Note_on_c, 1, 62, 43
1, 66480, Note_on_c, 0, 67, 0
1, 66480, Note_on_c, 0, 71, 64
1, 66480, Note_on_c, 1, 62, 0
1, 66480, Note_on_c, 1, 54, 45
1, 66540, Note_on_c, 0, 71, 0
1, 66540, Note_on_c, 0, 69, 55
1, 66600, Note_on_c, 1, 54, 0
1, 66600, Note_on_c, 1, 62, 48
1, 66720, Note_on_c, 0, 69, 0
1, 66720, Note_on_c, 0, 72, 72
1, 66720, Note_on_c, 1, 62, 0
1, 66720, Note_on_c, 1, 55, 51
1, 66780, Note_on_c, 0, 72, 0
1, 66780, Note_on_c, 0, 71, 60
1, 66840, Note_on_c, 1, 55, 0
1, 66840, Note_on_c, 1, 62, 53
1, 66960, Note_on_c, 0, 71, 0
1, 66960, Note_on_c, 0, 74, 80
1, 66960, Note_on_c, 1, 62, 0
1, 66960, Note_on_c, 1, 57, 56
1, 67080, Note_on_c, 1, 57, 0
1, 67080, Note_on_c, 1, 62, 53
1, 67140, Note_on_c, 0, 74, 0
1, 67140, Note_on_c, 0, 72, 60
1, 67200, Note_on_c, 0, 72, 0
1, 67200, Note_on_c, 0, 69, 59
1, 67200, Note_on_c, 1, 62, 0
1, 67200, Note_on_c, 1, 54, 51
1, 67320, Note_on_c, 1, 54, 0
1, 67320, Note_on_c, 1, 62, 48
1, 67440, Note_on_c, 0, 69, 0
1, 67440, Note_on_c, 1, 62, 0
1, 67440, Note_on_c, 1, 50, 45
1, 67560, Note_on_c, 1, 50, 0
1, 67560, Note_on_c, 1, 62, 43
1, 67680, Note_on_c, 1, 62, 0
1, 67680, Note_on_c, 1, 71, 40
1, 67740, Note_on_c, 1, 71, 0
1, 67740, Note_on_c, 1, 74, 40
1, 67800, Note_on_c, 0, 86, 48
1, 67800, Note_on_c, 1, 74, 0
1, 67800, Note_on_c, 1, 71, 40
1, 67860, Note_on_c, 0, 86, 0
1, 67860, Note_on_c, 0, 88, 48
1, 67860, Note_on_c, 1, 71, 0
1, 67860, Note_on_c, 1, 74, 40
1, 67920, Note_on_c, 0, 88, 0
1, 67920, Note_on_c, 0, 84, 48
1, 67920, Note_on_c, 1, 74, 0
1, 67920, Note_on_c, 1, 69, 40
1, 67956, Note_on_c, 0, 84, 0
1, 67980, Note_on_c, 1, 69, 0
1, 67980, Note_on_c, 1, 74, 40
1, 68040, Note_on_c, 0, 84, 48
1, 68040, Note_on_c, 1, 74, 0
1, 68040, Note_on_c, 1, 69, 40
1, 68100, Note_on_c, 0, 84, 0
1, 68100, Note_on_c, 0, 86, 48
1, 68100, Note_on_c, 1, 69, 0
1, 68100, Note_on_c, 1, 74, 40
1, 68160, Note_on_c, 0, 86, 0
1, 68160, Note_on_c, 0, 83, 48
1, 68160, Note_on_c, 1, 74, 0
1, 68160, Note_on_c, 1, 67, 40
1, 68196, Note_on_c, 0, 83, 0
1, 68220, Note_on_c, 1, 67, 0
1, 68220, Note_on_c, 1, 74, 40
1, 68280, Note_on_c, 0, 83, 48
1, 68280, Note_on_c, 1, 74, 0
1, 68280, Note_on_c, 1, 67, 40
1, 68340, Note_on_c, 0, 83, 0
1, 68340, Note_on_c, 0, 84, 48
1, 68340, Note_on_c, 1, 67, 0
1, 68340, Note_on_c, 1, 74, 40
1, 68400, Note_on_c, 0, 84, 0
1, 68400, Note_on_c, 0, 81, 48
1, 68400, Note_on_c, 1, 74, 0
1, 68400, Note_on_c, 1, 66, 40
1, 68436, Note_on_c, 0, 81, 0
1, 68460, Note_on_c, 1, 66, 0
1, 68460, Note_on_c, 1, 74, 40
1, 68520, Note_on_c, 0, 81, 48
1, 68520, Note_on_c, 1, 74, 0
1, 68520, Note_on_c, 1, 66, 40
1, 68580, Note_on_c, 0, 81, 0
1, 68580, Note_on_c, 0, 83, 48
1, 68580, Note_on_c, 1, 66, 0
1, 68580, Note_on_c, 1, 74, 40
1, 68640, Note_on_c, 0, 83, 0
1, 68640, Note_on_c, 0, 79, 48
1, 68640, Note_on_c, 1, 74, 0
1, 68640, Note_on_c, 1, 64, 40
1, 68688, Note_on_c, 0, 79, 0
1, 68700, Note_on_c, 1, 64, 0
1, 68700, Note_on_c, 1, 74, 40
1, 68760, Note_on_c, 0, 79, 48
1, 68760, Note_on_c, 1, 74, 0
1, 68760, Note_on_c, 1, 64, 40
1, 68820, Note_on_c, 0, 79, 0
1, 68820, Note_on_c, 0, 81, 48
1, 68820, Note_on_c, 1, 64, 0
1, 68820, Note_on_c, 1, 74, 40
1, 68880, Note_on_c, 0, 81, 0
1, 68880, Note_on_c, 0, 78, 48
1, 68880, Note_on_c, 1, 74, 0
1, 68880, Note_on_c, 1, 62, 40
1, 68928, Note_on_c, 0, 78, 0
1, 68940, Note_on_c, 1, 62, 0
1, 68940, Note_on_c, 1, 74, 40
1, 69000, Note_on_c, 0, 78, 48
1, 69000, Note_on_c, 1, 74, 0
1, 69000, Note_on_c, 1, 62, 40
1, 69060, Note_on_c, 0, 78, 0
1, 69060, Note_on_c, 0, 81, 48
1, 69060, Note_on_c, 1, 62, 0
1, 69060, Note_on_c, 1, 74, 40
1, 69120, Note_on_c, 0, 81, 0
1, 69120, Note_on_c, 0, 79, 48
1, 69120, Note_on_c, 1, 74, 0
1, 69120, Note_on_c, 1, 64, 40
1, 69168, Note_on_c, 0, 79, 0
1, 69168, Note_on_c, 1, 64, 0
1, 69180, Note_on_c, 0, 81, 49
1, 69180, Note_on_c, 1, 74, 41
1, 69228, Note_on_c, 0, 81, 0
1, 69228, Note_on_c, 1, 74, 0
1, 69240, Note_on_c, 0, 83, 51
1, 69240, Note_on_c, 1, 64, 43
1, 69288, Note_on_c, 0, 83, 0
1, 69288, Note_on_c, 1, 64, 0
1, 69300, Note_on_c, 0, 79, 52
1, 69300, Note_on_c, 1, 74, 44
1, 69348, Note_on_c, 0, 79, 0
1, 69348, Note_on_c, 1, 74, 0
1, 69360, Note_on_c, 0, 81, 53
1, 69360, Note_on_c, 1, 66, 45
1, 69408, Note_on_c, 0, 81, 0
1, 69408, Note_on_c, 1, 66, 0
1, 69420, Note_on_c, 0, 83, 55
1, 69420, Note_on_c, 1, 74, 47
1, 69468, Note_on_c, 0, 83, 0
1, 69468, Note_on_c, 1, 74, 0
1, 69480, Note_on_c, 0, 84, 56
1, 69480, Note_on_c, 1, 66, 48
1, 69528, Note_on_c, 0, 84, 0
1, 69528, Note_on_c, 1, 66, 0
1, 69540, Note_on_c, 0, 81, 57
1, 69540, Note_on_c, 1, 74, 49
1, 69588, Note_on_c, 0, 81, 0
1, 69588, Note_on_c, 1, 74, 0
1, 69600, Note_on_c, 0, 83, 59
1, 69600, Note_on_c, 1, 67, 51
1, 69648, Note_on_c, 0, 83, 0
1, 69648, Note_on_c, 1, 67, 0
1, 69660, Note_on_c, 0, 84, 60
1, 69660, Note_on_c, 1, 74, 52
1, 69708, Note_on_c, 0, 84, 0
1, 69708, Note_on_c, 1, 74, 0
1, 69720, Note_on_c, 0, 86, 61
1, 69720, Note_on_c, 1, 67, 53
1, 69768, Note_on_c, 0, 86, 0
1, 69768, Note_on_c, 1, 67, 0
1, 69780, Note_on_c, 0, 83, 63
1, 69780, Note_on_c, 1, 74, 55
1, 69828, Note_on_c, 0, 83, 0
1, 69828, Note_on_c, 1, 74, 0
1, 69840, Note_on_c, 0, 86, 64
1, 69840, Note_on_c, 1, 69, 56
1, 69888, Note_on_c, 0, 86, 0
1, 69888, Note_on_c, 1, 69, 0
1, 69900, Note_on_c, 0, 84, 63
1, 69900, Note_on_c, 1, 74, 55
1, 69948, Note_on_c, 0, 84, 0
1, 69948, Note_on_c, 1, 74, 0
1, 69960, Note_on_c, 0, 86, 61
1, 69960, Note_on_c, 1, 69, 53
1, 70008, Note_on_c, 0, 86, 0
1, 70008, Note_on_c, 1, 69, 0
1, 70020, Note_on_c, 0, 84, 60
1, 70020, Note_on_c, 1, 74, 52
1, 70068, Note_on_c, 0, 84, 0
1, 70068, Note_on_c, 1, 74, 0
1, 70080, Note_on_c, 0, 81, 59
1, 70080, Note_on_c, 1, 66, 51
1, 70128, Note_on_c, 1, 66, 0
1, 70140, Note_on_c, 1, 74, 49
1, 70188, Note_on_c, 1, 74, 0
1, 70200, Note_on_c, 1, 66, 48
1, 70200, Note_on_c, 1, 66, 48
1, 70248, Note_on_c, 1, 66, 0
1, 70248, Note_on_c, 1, 66, 0
1, 70260, Note_on_c, 1, 74, 47
1, 70272, Note_on_c, 0, 81, 0
1, 70308, Note_on_c, 1, 74, 0
1, 70320, Note_on_c, 1, 62, 64
1, 70368, Note_on_c, 1, 62, 0
1, 70380, Note_on_c, 1, 60, 68
1, 70428, Note_on_c, 1, 60, 0
1, 70440, Note_on_c, 1, 59, 72
1, 70488, Note_on_c, 1, 59, 0
1, 70500, Note_on_c, 1, 57, 76
1, 70548, Note_on_c, 1, 57, 0
1, 70560, Note_on_c, 1, 43, 80
1, 70560, Note_on_c, 1, 55, 80
1, 70632, Note_on_c, 1, 55, 0
1, 70632, Note_on_c, 1, 43, 0
1, 70680, Note_on_c, 0, 67, 48
1, 70728, Note_on_c, 0, 67, 0
1, 70800, Note_on_c, 0, 66, 48
1, 70848, Note_on_c, 0, 66, 0
1, 70920, Note_on_c, 0, 67, 48
1, 70968, Note_on_c, 0, 67, 0
1, 71040, Note_on_c, 0, 69, 80
1, 71040, Note_on_c, 0, 72, 80
1, 71040, Note_on_c, 1, 54, 56
1, 71136, Note_on_c, 0, 72, 0
1, 71136, Note_on_c, 0, 69, 0
1, 71136, Note_on_c, 1, 54, 0
1, 71160, Note_on_c, 0, 67, 72
1, 71160, Note_on_c, 0, 71, 72
1, 71160, Note_on_c, 1, 55, 72
1, 71208, Note_on_c, 0, 71, 0
1, 71208, Note_on_c, 0, 67, 0
1, 71208, Note_on_c, 1, 55, 0
1, 71280, Note_on_c, 1, 43, 40
1, 71376, Note_on_c, 1, 43, 0
1, 71400, Note_on_c, 0, 67, 48
1, 71448, Note_on_c, 0, 67, 0
1, 71520, Note_on_c, 0, 66, 48
1, 71568, Note_on_c, 0, 66, 0
1, 71640, Note_on_c, 0, 67, 48
1, 71688, Note_on_c, 0, 67, 0
1, 71760, Note_on_c, 0, 72, 80
1, 71760, Note_on_c, 0, 76, 80
1, 71760, Note_on_c, 1, 54, 56
1, 71856, Note_on_c, 0, 76, 0
1, 71856, Note_on_c, 0, 72, 0
1, 71856, Note_on_c, 1, 54, 0
1, 71880, Note_on_c, 0, 71, 72
1, 71880, Note_on_c, 0, 74, 72
1, 71880, Note_on_c, 1, 55, 72
1, 71928, Note_on_c, 0, 74, 0
1, 71928, Note_on_c, 0, 71, 0
1, 71928, Note_on_c, 1, 55, 0
1, 72000, Note_on_c, 1, 43, 40
1, 72096, Note_on_c, 1, 43, 0
1, 72120, Note_on_c, 0, 67, 48
1, 72168, Note_on_c, 0, 67, 0
1, 72240, Note_on_c, 0, 66, 48
1, 72288, Note_on_c, 0, 66, 0
1, 72360, Note_on_c, 0, 67, 48
1, 72408, Note_on_c, 0, 67, 0
1, 72480, Note_on_c, 0, 76, 80
1, 72480, Note_on_c, 0, 79, 80
1, 72480, Note_on_c, 1, 61, 56
1, 72576, Note_on_c, 0, 79, 0
1, 72576, Note_on_c, 0, 76, 0
1, 72576, Note_on_c, 1, 61, 0
1, 72600, Note_on_c, 0, 74, 72
1, 72600, Note_on_c, 0, 78, 72
1, 72600, Note_on_c, 1, 62, 72
1, 72648, Note_on_c, 0, 78, 0
1, 72648, Note_on_c, 0, 74, 0
1, 72648, Note_on_c, 1, 62, 0
1, 72720, Note_on_c, 0, 74, 80
1, 72720, Note_on_c, 0, 77, 80
1, 72720, Note_on_c, 1, 59, 56
1, 72816, Note_on_c, 0, 77, 0
1, 72816, Note_on_c, 0, 74, 0
1, 72816, Note_on_c, 1, 59, 0
1, 72840, Note_on_c, 0, 72, 72
1, 72840, Note_on_c, 0, 76, 72
1, 72840, Note_on_c, 1, 60, 72
1, 72888, Note_on_c, 0, 76, 0
1, 72888, Note_on_c, 0, 72, 0
1, 72888, Note_on_c, 1, 60, 0
1, 72960, Note_on_c, 0, 70, 80
1, 72960, Note_on_c, 0, 73, 80
1, 72960, Note_on_c, 1, 55, 56
1, 73056, Note_on_c, 0, 73, 0
1, 73056, Note_on_c, 0, 70, 0
1, 73056, Note_on_c, 1, 55, 0
1, 73080, Note_on_c, 0, 69, 72
1, 73080, Note_on_c, 0, 74, 72
1, 73080, Note_on_c, 1, 54, 72
1, 73128, Note_on_c, 0, 74, 0
1, 73128, Note_on_c, 0, 69, 0
1, 73128, Note_on_c, 1, 54, 0
1, 73200, Note_on_c, 0, 68, 80
1, 73200, Note_on_c, 0, 71, 80
1, 73200, Note_on_c, 1, 53, 56
1, 73296, Note_on_c, 0, 71, 0
1, 73296, Note_on_c, 0, 68, 0
1, 73296, Note_on_c, 1, 53, 0
1, 73320, Note_on_c, 0, 67, 72
1, 73320, Note_on_c, 0, 72, 72
1, 73320, Note_on_c, 1, 52, 72
1, 73368, Note_on_c, 0, 72, 0
1, 73368, Note_on_c, 0, 67, 0
1, 73368, Note_on_c, 1, 52, 0
1, 73440, Note_on_c, 0, 72, 80
1, 73440, Note_on_c, 1, 50, 56
1, 73500, Note_on_c, 0, 72, 0
1, 73500, Note_on_c, 0, 69, 80
1, 73560, Note_on_c, 0, 69, 0
1, 73560, Note_on_c, 0, 66, 80
1, 73620, Note_on_c, 0, 66, 0
1, 73620, Note_on_c, 0, 62, 80
1, 73632, Note_on_c, 1, 50, 0
1, 73680, Note_on_c, 0, 62, 0
1, 73680, Note_on_c, 0, 61, 80
1, 73740, Note_on_c, 0, 61, 0
1, 73740, Note_on_c, 0, 62, 80
1, 73800, Note_on_c, 0, 62, 0
1, 73800, Note_on_c, 0, 64, 80
1, 73860, Note_on_c, 0, 64, 0
1, 73860, Note_on_c, 0, 62, 80
1, 73920, Note_on_c, 0, 62, 0
1, 73920, Note_on_c, 0, 72, 80
1, 73920, Note_on_c, 1, 57, 56
1, 73920, Note_on_c, 1, 50, 56
1, 73920, Note_on_c, 1, 48, 56
1, 73980, Note_on_c, 0, 72, 0
1, 73980, Note_on_c, 0, 69, 80
1, 74040, Note_on_c, 0, 69, 0
1, 74040, Note_on_c, 0, 66, 80
1, 74100, Note_on_c, 0, 66, 0
1, 74100, Note_on_c, 0, 62, 80
1, 74112, Note_on_c, 1, 48, 0
1, 74112, Note_on_c, 1, 50, 0
1, 74112, Note_on_c, 1, 57, 0
1, 74160, Note_on_c, 0, 62, 0
1, 74160, Note_on_c, 0, 74, 80
1, 74160, Note_on_c, 1, 47, 56
1, 74160, Note_on_c, 1, 50, 56
1, 74160, Note_on_c, 1, 55, 56
1, 74220, Note_on_c, 0, 74, 0
1, 74220, Note_on_c, 0, 71, 80
1, 74256, Note_on_c, 1, 55, 0
1, 74256, Note_on_c, 1, 50, 0
1, 74256, Note_on_c, 1, 47, 0
1, 74280, Note_on_c, 0, 71, 0
1, 74280, Note_on_c, 0, 67, 80
1, 74340, Note_on_c, 0, 67, 0
1, 74340, Note_on_c, 0, 62, 80
1, 74400, Note_on_c, 0, 62, 0
1, 74400, Note_on_c, 0, 61, 80
1, 74460, Note_on_c, 0, 61, 0
1, 74460, Note_on_c, 0, 62, 80
1, 74520, Note_on_c, 0, 62, 0
1, 74520, Note_on_c, 0, 64, 80
1, 74580, Note_on_c, 0, 64, 0
1, 74580, Note_on_c, 0, 62, 80
1, 74640, Note_on_c, 0, 62, 0
1, 74640, Note_on_c, 0, 74, 80
1, 74640, Note_on_c, 1, 47, 56
1, 74640, Note_on_c, 1, 50, 56
1, 74640, Note_on_c, 1, 55, 56
1, 74700, Note_on_c, 0, 74, 0
1, 74700, Note_on_c, 0, 71, 80
1, 74760, Note_on_c, 0, 71, 0
1, 74760, Note_on_c, 0, 67, 80
1, 74820, Note_on_c, 0, 67, 0
1, 74820, Note_on_c, 0, 62, 80
1, 74832, Note_on_c, 1, 55, 0
1, 74832, Note_on_c, 1, 50, 0
1, 74832, Note_on_c, 1, 47, 0
1, 74880, Note_on_c, 0, 62, 0
1, 74880, Note_on_c, 0, 64, 80
1, 74880, Note_on_c, 1, 48, 64
1, 74880, Note_on_c, 1, 57, 64
1, 74880, Note_on_c, 1, 52, 64
1, 74940, Note_on_c, 0, 64, 0
1, 74940, Note_on_c, 0, 69, 77
1, 74976, Note_on_c, 1, 52, 0
1, 74976, Note_on_c, 1, 57, 0
1, 74976, Note_on_c, 1, 48, 0
1, 75000, Note_on_c, 0, 69, 0
1, 75000, Note_on_c, 0, 72, 75
1, 75060, Note_on_c, 0, 72, 0
1, 75060, Note_on_c, 0, 76, 72
1, 75120, Note_on_c, 0, 76, 0
1, 75120, Note_on_c, 0, 76, 69
1, 75120, Note_on_c, 1, 59, 56
1, 75120, Note_on_c, 1, 55, 56
1, 75120, Note_on_c, 1, 50, 56
1, 75180, Note_on_c, 0, 76, 0
1, 75180, Note_on_c, 0, 74, 67
1, 75240, Note_on_c, 0, 74, 0
1, 75240, Note_on_c, 0, 72, 64
1, 75300, Note_on_c, 0, 72, 0
1, 75300, Note_on_c, 0, 71, 61
1, 75360, Note_on_c, 0, 71, 0
1, 75360, Note_on_c, 0, 71, 59
1, 75360, Note_on_c, 1, 55, 0
1, 75360, Note_on_c, 1, 59, 0
1, 75360, Note_on_c, 1, 60, 48
1, 75360, Note_on_c, 1, 57, 48
1, 75420, Note_on_c, 0, 71, 0
1, 75420, Note_on_c, 0, 69, 56
1, 75480, Note_on_c, 0, 69, 0
1, 75480, Note_on_c, 0, 67, 53
1, 75540, Note_on_c, 0, 67, 0
1, 75540, Note_on_c, 0, 66, 51
1, 75600, Note_on_c, 0, 66, 0
1, 75600, Note_on_c, 1, 57, 0
1, 75600, Note_on_c, 1, 60, 0
1, 75600, Note_on_c, 1, 50, 0
1, 75600, Note_on_c, 1, 59, 40
1, 75600, Note_on_c, 1, 55, 40
1, 75696, Note_on_c, 1, 55, 0
1, 75696, Note_on_c, 1, 59, 0
1, 75720, Note_on_c, 0, 67, 48
1, 75768, Note_on_c, 0, 67, 0
1, 75840, Note_on_c, 0, 66, 48
1, 75888, Note_on_c, 0, 66, 0
1, 75960, Note_on_c, 0, 67, 48
1, 76008, Note_on_c, 0, 67, 0
1, 76080, Note_on_c, 0, 76, 80
1, 76080, Note_on_c, 0, 79, 80
1, 76080, Note_on_c, 1, 61, 56
1, 76200, Note_on_c, 0, 79, 0
1, 76200, Note_on_c, 0, 76, 0
1, 76200, Note_on_c, 0, 74, 55
1, 76200, Note_on_c, 0, 78, 55
1, 76200, Note_on_c, 1, 61, 0
1, 76200, Note_on_c, 1, 62, 1
1, 76248, Note_on_c, 0, 78, 0
1, 76248, Note_on_c, 0, 74, 0
1, 76248, Note_on_c, 1, 62, 0
1, 76320, Note_on_c, 0, 74, 80
1, 76320, Note_on_c, 0, 77, 80
1, 76320, Note_on_c, 1, 59, 56
1, 76440, Note_on_c, 0, 77, 0
1, 76440, Note_on_c, 0, 74, 0
1, 76440, Note_on_c, 0, 72, 72
1, 76440, Note_on_c, 0, 76, 72
1, 76440, Note_on_c, 1, 59, 0
1, 76440, Note_on_c, 1, 60, 72
1, 76488, Note_on_c, 0, 76, 0
1, 76488, Note_on_c, 0, 72, 0
1, 76488, Note_on_c, 1, 60, 0
1, 76560, Note_on_c, 0, 70, 80
1, 76560, Note_on_c, 0, 73, 80
1, 76560, Note_on_c, 1, 55, 56
1, 76680, Note_on_c, 0, 73, 0
1, 76680, Note_on_c, 0, 70, 0
1, 76680, Note_on_c, 0, 69, 72
1, 76680, Note_on_c, 0, 74, 72
1, 76680, Note_on_c, 1, 55, 0
1, 76680, Note_on_c, 1, 54, 72
1, 76728, Note_on_c, 0, 74, 0
1, 76728, Note_on_c, 0, 69, 0
1, 76728, Note_on_c, 1, 54, 0
1, 76800, Note_on_c, 0, 68, 80
1, 76800, Note_on_c, 0, 71, 80
1, 76800, Note_on_c, 1, 53, 56
1, 76920, Note_on_c, 0, 71, 0
1, 76920, Note_on_c, 0, 68, 0
1, 76920, Note_on_c, 0, 67, 72
1, 76920, Note_on_c, 0, 72, 72
1, 76920, Note_on_c, 1, 53, 0
1, 76920, Note_on_c, 1, 52, 72
1, 76968, Note_on_c, 0, 72, 0
1, 76968, Note_on_c, 0, 67, 0
1, 76968, Note_on_c, 1, 52, 0
1, 77040, Note_on_c, 0, 84, 80
1, 77040, Note_on_c, 1, 50, 56
1, 77100, Note_on_c, 0, 84, 0
1, 77100, Note_on_c, 0, 81, 80
1, 77124, Note_on_c, 0, 81, 0
1, 77160, Note_on_c, 0, 78, 80
1, 77184, Note_on_c, 0, 78, 0
1, 77220, Note_on_c, 0, 74, 80
1, 77232, Note_on_c, 1, 50, 0
1, 77244, Note_on_c, 0, 74, 0
1, 77280, Note_on_c, 0, 73, 80
1, 77340, Note_on_c, 0, 73, 0
1, 77340, Note_on_c, 0, 74, 80
1, 77364, Note_on_c, 0, 74, 0
1, 77400, Note_on_c, 0, 76, 80
1, 77400, Note_on_c, 1, 62, 56
1, 77400, Note_on_c, 1, 66, 56
1, 77400, Note_on_c, 1, 69, 56
1, 77424, Note_on_c, 0, 76, 0
1, 77448, Note_on_c, 1, 69, 0
1, 77448, Note_on_c, 1, 66, 0
1, 77448, Note_on_c, 1, 62, 0
1, 77460, Note_on_c, 0, 74, 80
1, 77484, Note_on_c, 0, 74, 0
1, 77520, Note_on_c, 0, 84, 80
1, 77520, Note_on_c, 1, 60, 56
1, 77520, Note_on_c, 1, 62, 56
1, 77520, Note_on_c, 1, 69, 56
1, 77568, Note_on_c, 1, 69, 0
1, 77568, Note_on_c, 1, 62, 0
1, 77568, Note_on_c, 1, 60, 0
1, 77580, Note_on_c, 0, 84, 0
1, 77580, Note_on_c, 0, 81, 80
1, 77604, Note_on_c, 0, 81, 0
1, 77640, Note_on_c, 0, 78, 80
1, 77640, Note_on_c, 1, 60, 56
1, 77640, Note_on_c, 1, 62, 56
1, 77640, Note_on_c, 1, 69, 56
1, 77664, Note_on_c, 0, 78, 0
1, 77700, Note_on_c, 0, 74, 80
1, 77724, Note_on_c, 0, 74, 0
1, 77736, Note_on_c, 1, 69, 0
1, 77736, Note_on_c, 1, 62, 0
1, 77736, Note_on_c, 1, 60, 0
1, 77760, Note_on_c, 0, 86, 80
1, 77760, Note_on_c, 1, 59, 56
1, 77760, Note_on_c, 1, 62, 56
1, 77760, Note_on_c, 1, 67, 56
1, 77820, Note_on_c, 0, 86, 0
1, 77820, Note_on_c, 0, 83, 80
1, 77844, Note_on_c, 0, 83, 0
1, 77880, Note_on_c, 0, 79, 80
1, 77904, Note_on_c, 0, 79, 0
1, 77940, Note_on_c, 0, 74, 80
1, 77952, Note_on_c, 1, 67, 0
1, 77952, Note_on_c, 1, 62, 0
1, 77952, Note_on_c, 1, 59, 0
1, 77964, Note_on_c, 0, 74, 0
1, 78000, Note_on_c, 0, 73, 80
1, 78060, Note_on_c, 0, 73, 0
1, 78060, Note_on_c, 0, 74, 80
1, 78084, Note_on_c, 0, 74, 0
1, 78120, Note_on_c, 0, 76, 80
1, 78120, Note_on_c, 1, 67, 56
1, 78120, Note_on_c, 1, 62, 56
1, 78120, Note_on_c, 1, 59, 56
1, 78144, Note_on_c, 0, 76, 0
1, 78168, Note_on_c, 1, 59, 0
1, 78168, Note_on_c, 1, 62, 0
1, 78168, Note_on_c, 1, 67, 0
1, 78180, Note_on_c, 0, 74, 80
1, 78204, Note_on_c, 0, 74, 0
1, 78240, Note_on_c, 0, 86, 80
1, 78240, Note_on_c, 1, 67, 56
1, 78240, Note_on_c, 1, 62, 56
1, 78240, Note_on_c, 1, 59, 56
1, 78288, Note_on_c, 1, 59, 0
1, 78288, Note_on_c, 1, 62, 0
1, 78288, Note_on_c, 1, 67, 0
1, 78300, Note_on_c, 0, 86, 0
1, 78300, Note_on_c, 0, 83, 80
1, 78360, Note_on_c, 0, 83, 0
1, 78360, Note_on_c, 0, 79, 80
1, 78360, Note_on_c, 1, 67, 56
1, 78360, Note_on_c, 1, 62, 56
1, 78360, Note_on_c, 1, 59, 56
1, 78420, Note_on_c, 0, 79, 0
1, 78420, Note_on_c, 0, 74, 80
1, 78456, Note_on_c, 1, 59, 0
1, 78456, Note_on_c, 1, 62, 0
1, 78456, Note_on_c, 1, 67, 0
1, 78480, Note_on_c, 0, 74, 0
1, 78480, Note_on_c, 0, 76, 80
1, 78480, Note_on_c, 1, 60, 56
1, 78480, Note_on_c, 1, 64, 56
1, 78480, Note_on_c, 1, 67, 56
1, 78540, Note_on_c, 0, 76, 0
1, 78540, Note_on_c, 0, 81, 80
1, 78564, Note_on_c, 0, 81, 0
1, 78600, Note_on_c, 0, 84, 80
1, 78624, Note_on_c, 0, 84, 0
1, 78660, Note_on_c, 0, 88, 80
1, 78672, Note_on_c, 1, 67, 0
1, 78672, Note_on_c, 1, 64, 0
1, 78672, Note_on_c, 1, 60, 0
1, 78684, Note_on_c, 0, 88, 0
1, 78720, Note_on_c, 0, 88, 80
1, 78720, Note_on_c, 1, 62, 56
1, 78720, Note_on_c, 1, 67, 56
1, 78720, Note_on_c, 1, 71, 56
1, 78780, Note_on_c, 0, 88, 0
1, 78780, Note_on_c, 0, 86, 80
1, 78840, Note_on_c, 0, 86, 0
1, 78840, Note_on_c, 0, 84, 80
1, 78900, Note_on_c, 0, 84, 0
1, 78900, Note_on_c, 0, 83, 80
1, 78960, Note_on_c, 0, 83, 0
1, 78960, Note_on_c, 0, 83, 80
1, 78960, Note_on_c, 1, 71, 0
1, 78960, Note_on_c, 1, 67, 0
1, 78960, Note_on_c, 1, 69, 56
1, 78960, Note_on_c, 1, 72, 56
1, 79020, Note_on_c, 0, 83, 0
1, 79020, Note_on_c, 0, 81, 80
1, 79080, Note_on_c, 0, 81, 0
1, 79080, Note_on_c, 0, 79, 80
1, 79140, Note_on_c, 0, 79, 0
1, 79140, Note_on_c, 0, 78, 80
1, 79200, Note_on_c, 0, 78, 0
1, 79200, Note_on_c, 0, 79, 80
1, 79200, Note_on_c, 1, 72, 0
1, 79200, Note_on_c, 1, 69, 0
1, 79200, Note_on_c, 1, 62, 0
1, 79200, Note_on_c, 1, 67, 56
1, 79200, Note_on_c, 1, 71, 56
1, 79248, Note_on_c, 0, 79, 0
1, 79320, Note_on_c, 0, 79, 80
1, 79368, Note_on_c, 0, 79, 0
1, 79380, Note_on_c, 0, 83, 80
1, 79392, Note_on_c, 1, 71, 0
1, 79392, Note_on_c, 1, 67, 0
1, 79428, Note_on_c, 0, 83, 0
1, 79440, Note_on_c, 0, 81, 80
1, 79488, Note_on_c, 0, 81, 0
1, 79500, Note_on_c, 0, 84, 80
1, 79548, Note_on_c, 0, 84, 0
1, 79560, Note_on_c, 0, 83, 80
1, 79560, Note_on_c, 1, 62, 56
1, 79608, Note_on_c, 0, 83, 0
1, 79608, Note_on_c, 1, 62, 0
1, 79620, Note_on_c, 0, 86, 80
1, 79620, Note_on_c, 1, 66, 56
1, 79668, Note_on_c, 0, 86, 0
1, 79668, Note_on_c, 1, 66, 0
1, 79680, Note_on_c, 0, 84, 80
1, 79680, Note_on_c, 1, 64, 56
1, 79704, Note_on_c, 0, 84, 0
1, 79710, Note_on_c, 0, 86, 80
1, 79728, Note_on_c, 1, 64, 0
1, 79734, Note_on_c, 0, 86, 0
1, 79740, Note_on_c, 0, 84, 80
1, 79740, Note_on_c, 1, 67, 56
1, 79764, Note_on_c, 0, 84, 0
1, 79770, Note_on_c, 0, 86, 80
1, 79788, Note_on_c, 1, 67, 0
1, 79794, Note_on_c, 0, 86, 0
1, 79800, Note_on_c, 0, 84, 80
1, 79800, Note_on_c, 1, 66, 56
1, 79816, Note_on_c, 0, 84, 0
1, 79820, Note_on_c, 0, 86, 80
1, 79836, Note_on_c, 0, 86, 0
1, 79840, Note_on_c, 0, 84, 80
1, 79848, Note_on_c, 1, 66, 0
1, 79856, Note_on_c, 0, 84, 0
1, 79860, Note_on_c, 0, 83, 80
1, 79860, Note_on_c, 1, 69, 56
1, 79884, Note_on_c, 0, 83, 0
1, 79890, Note_on_c, 0, 84, 80
1, 79908, Note_on_c, 1, 69, 0
1, 79914, Note_on_c, 0, 84, 0
1, 79920, Note_on_c, 0, 83, 80
1, 79920, Note_on_c, 1, 67, 56
1, 79968, Note_on_c, 0, 83, 0
1, 80040, Note_on_c, 0, 67, 48
1, 80100, Note_on_c, 0, 67, 0
1, 80100, Note_on_c, 0, 71, 48
1, 80112, Note_on_c, 1, 67, 0
1, 80160, Note_on_c, 0, 71, 0
1, 80160, Note_on_c, 0, 69, 48
1, 80220, Note_on_c, 0, 69, 0
1, 80220, Note_on_c, 0, 72, 48
1, 80280, Note_on_c, 0, 72, 0
1, 80280, Note_on_c, 0, 71, 48
1, 80280, Note_on_c, 1, 50, 40
1, 80340, Note_on_c, 0, 71, 0
1, 80340, Note_on_c, 0, 74, 48
1, 80340, Note_on_c, 1, 50, 0
1, 80340, Note_on_c, 1, 54, 40
1, 80400, Note_on_c, 0, 74, 0
1, 80400, Note_on_c, 0, 72, 48
1, 80400, Note_on_c, 1, 54, 0
1, 80400, Note_on_c, 1, 52, 40
1, 80430, Note_on_c, 0, 72, 0
1, 80430, Note_on_c, 0, 74, 48
1, 80460, Note_on_c, 0, 74, 0
1, 80460, Note_on_c, 0, 72, 48
1, 80460, Note_on_c, 1, 52, 0
1, 80460, Note_on_c, 1, 55, 40
1, 80490, Note_on_c, 0, 72, 0
1, 80490, Note_on_c, 0, 74, 48
1, 80520, Note_on_c, 0, 74, 0
1, 80520, Note_on_c, 0, 72, 48
1, 80520, Note_on_c, 1, 55, 0
1, 80520, Note_on_c, 1, 54, 40
1, 80540, Note_on_c, 0, 72, 0
1, 80540, Note_on_c, 0, 74, 48
1, 80560, Note_on_c, 0, 74, 0
1, 80560, Note_on_c, 0, 72, 48
1, 80580, Note_on_c, 0, 72, 0
1, 80580, Note_on_c, 0, 71, 48
1, 80580, Note_on_c, 1, 54, 0
1, 80580, Note_on_c, 1, 57, 40
1, 80610, Note_on_c, 0, 71, 0
1, 80610, Note_on_c, 0, 72, 48
1, 80640, Note_on_c, 0, 72, 0
1, 80640, Note_on_c, 0, 71, 48
1, 80640, Note_on_c, 1, 57, 0
1, 80640, Note_on_c, 1, 55, 40
1, 80760, Note_on_c, 0, 76, 48
1, 80880, Note_on_c, 0, 71, 0
1, 80880, Note_on_c, 0, 69, 48
1, 80880, Note_on_c, 1, 55, 0
1, 80880, Note_on_c, 1, 54, 40
1, 81000, Note_on_c, 0, 76, 0
1, 81000, Note_on_c, 0, 74, 48
1, 81120, Note_on_c, 0, 69, 0
1, 81120, Note_on_c, 0, 67, 48
1, 81120, Note_on_c, 1, 54, 0
1, 81120, Note_on_c, 1, 52, 40
1, 81240, Note_on_c, 0, 74, 0
1, 81240, Note_on_c, 0, 72, 48
1, 81360, Note_on_c, 0, 67, 0
1, 81360, Note_on_c, 0, 66, 48
1, 81360, Note_on_c, 1, 52, 0
1, 81360, Note_on_c, 1, 50, 40
1, 81480, Note_on_c, 0, 72, 0
1, 81480, Note_on_c, 0, 71, 48
1, 81600, Note_on_c, 0, 66, 0
1, 81600, Note_on_c, 0, 64, 48
1, 81600, Note_on_c, 1, 50, 0
1, 81600, Note_on_c, 1, 48, 40
1, 81720, Note_on_c, 0, 71, 0
1, 81720, Note_on_c, 0, 69, 48
1, 81840, Note_on_c, 0, 64, 0
1, 81840, Note_on_c, 0, 62, 48
1, 81840, Note_on_c, 1, 48, 0
1, 81840, Note_on_c, 1, 47, 40
1, 81960, Note_on_c, 0, 69, 0
1, 81960, Note_on_c, 0, 67, 48
1, 82080, Note_on_c, 0, 67, 0
1, 82080, Note_on_c, 0, 62, 0
1, 82080, Note_on_c, 0, 68, 56
1, 82080, Note_on_c, 1, 47, 0
1, 82080, Note_on_c, 1, 48, 48
1, 82176, Note_on_c, 0, 68, 0
1, 82200, Note_on_c, 0, 69, 53
1, 82248, Note_on_c, 0, 69, 0
1, 82272, Note_on_c, 1, 48, 0
1, 82320, Note_on_c, 1, 45, 51
1, 82440, Note_on_c, 0, 69, 64
1, 82440, Note_on_c, 0, 72, 64
1, 82488, Note_on_c, 0, 72, 0
1, 82488, Note_on_c, 0, 69, 0
1, 82512, Note_on_c, 1, 45, 0
1, 82560, Note_on_c, 0, 67, 69
1, 82560, Note_on_c, 0, 71, 69
1, 82560, Note_on_c, 1, 50, 61
1, 82608, Note_on_c, 0, 71, 0
1, 82608, Note_on_c, 0, 67, 0
1, 82680, Note_on_c, 0, 66, 75
1, 82680, Note_on_c, 0, 69, 75
1, 82728, Note_on_c, 0, 69, 0
1, 82728, Note_on_c, 0, 66, 0
1, 82752, Note_on_c, 1, 50, 0
1, 82800, Note_on_c, 0, 83, 64
1, 82800, Note_on_c, 1, 67, 56
1, 82860, Note_on_c, 0, 85, 65
1, 82920, Note_on_c, 0, 85, 0
1, 82920, Note_on_c, 0, 86, 67
1, 82980, Note_on_c, 0, 86, 0
1, 82980, Note_on_c, 0, 88, 68
1, 83040, Note_on_c, 0, 88, 0
1, 83040, Note_on_c, 0, 83, 0
1, 83040, Note_on_c, 0, 81, 69
1, 83040, Note_on_c, 1, 67, 0
1, 83040, Note_on_c, 1, 66, 61
1, 83100, Note_on_c, 0, 88, 71
1, 83160, Note_on_c, 0, 88, 0
1, 83160, Note_on_c, 0, 85, 72
1, 83220, Note_on_c, 0, 85, 0
1, 83220, Note_on_c, 0, 86, 73
1, 83280, Note_on_c, 0, 86, 0
1, 83280, Note_on_c, 0, 81, 0
1, 83280, Note_on_c, 0, 79, 75
1, 83280, Note_on_c, 1, 66, 0
1, 83280, Note_on_c, 1, 64, 67
1, 83340, Note_on_c, 0, 81, 76
1, 83400, Note_on_c, 0, 81, 0
1, 83400, Note_on_c, 0, 83, 77
1, 83460, Note_on_c, 0, 83, 0
1, 83460, Note_on_c, 0, 84, 79
1, 83520, Note_on_c, 0, 84, 0
1, 83520, Note_on_c, 0, 79, 0
1, 83520, Note_on_c, 0, 78, 64
1, 83520, Note_on_c, 1, 64, 0
1, 83520, Note_on_c, 1, 62, 56
1, 83580, Note_on_c, 0, 84, 65
1, 83640, Note_on_c, 0, 84, 0
1, 83640, Note_on_c, 0, 82, 67
1, 83700, Note_on_c, 0, 82, 0
1, 83700, Note_on_c, 0, 83, 68
1, 83760, Note_on_c, 0, 83, 0
1, 83760, Note_on_c, 0, 78, 0
1, 83760, Note_on_c, 0, 76, 69
1, 83760, Note_on_c, 1, 62, 0
1, 83760, Note_on_c, 1, 60, 61
1, 83820, Note_on_c, 0, 78, 71
1, 83880, Note_on_c, 0, 78, 0
1, 83880, Note_on_c, 0, 80, 72
1, 83940, Note_on_c, 0, 80, 0
1, 83940, Note_on_c, 0, 81, 73
1, 84000, Note_on_c, 0, 81, 0
1, 84000, Note_on_c, 0, 76, 0
1, 84000, Note_on_c, 0, 74, 75
1, 84000, Note_on_c, 1, 60, 0
1, 84000, Note_on_c, 1, 59, 67
1, 84060, Note_on_c, 0, 81, 76
1, 84120, Note_on_c, 0, 81, 0
1, 84120, Note_on_c, 0, 78, 77
1, 84180, Note_on_c, 0, 78, 0
1, 84180, Note_on_c, 0, 79, 79
1, 84240, Note_on_c, 0, 79, 0
1, 84240, Note_on_c, 0, 74, 0
1, 84240, Note_on_c, 0, 76, 80
1, 84240, Note_on_c, 1, 59, 0
1, 84240, Note_on_c, 1, 60, 72
1, 84300, Note_on_c, 0, 76, 0
1, 84300, Note_on_c, 0, 79, 81
1, 84360, Note_on_c, 0, 79, 0
1, 84360, Note_on_c, 0, 76, 83
1, 84420, Note_on_c, 0, 76, 0
1, 84420, Note_on_c, 0, 72, 84
1, 84480, Note_on_c, 0, 72, 0
1, 84480, Note_on_c, 0, 71, 85
1, 84480, Note_on_c, 1, 60, 0
1, 84480, Note_on_c, 1, 62, 77
1, 84540, Note_on_c, 0, 71, 0
1, 84540, Note_on_c, 0, 74, 87
1, 84600, Note_on_c, 0, 74, 0
1, 84600, Note_on_c, 0, 67, 88
1, 84660, Note_on_c, 0, 67, 0
1, 84660, Note_on_c, 0, 71, 89
1, 84720, Note_on_c, 0, 71, 0
1, 84720, Note_on_c, 0, 69, 91
1, 84720, Note_on_c, 1, 62, 0
1, 84720, Note_on_c, 1, 50, 83
1, 84780, Note_on_c, 0, 69, 0
1, 84780, Note_on_c, 0, 72, 92
1, 84840, Note_on_c, 0, 72, 0
1, 84840, Note_on_c, 0, 66, 93
1, 84900, Note_on_c, 0, 66, 0
1, 84900, Note_on_c, 0, 69, 95
1, 84960, Note_on_c, 0, 69, 0
1, 84960, Note_on_c, 0, 67, 80
1, 84960, Note_on_c, 1, 50, 0
1, 84960, Note_on_c, 1, 43, 80
1, 85020, Note_on_c, 1, 43, 0
1, 85020, Note_on_c, 1, 55, 56
1, 85080, Note_on_c, 1, 55, 0
1, 85080, Note_on_c, 1, 54, 56
1, 85140, Note_on_c, 1, 54, 0
1, 85140, Note_on_c, 1, 55, 56
1, 85152, Note_on_c, 0, 67, 0
1, 85200, Note_on_c, 1, 55, 0
1, 85200, Note_on_c, 1, 43, 56
1, 85260, Note_on_c, 1, 43, 0
1, 85260, Note_on_c, 1, 55, 56
1, 85320, Note_on_c, 0, 62, 64
1, 85320, Note_on_c, 0, 65, 64
1, 85320, Note_on_c, 0, 71, 64
1, 85320, Note_on_c, 1, 55, 0
1, 85320, Note_on_c, 1, 54, 56
1, 85368, Note_on_c, 0, 71, 0
1, 85368, Note_on_c, 0, 65, 0
1, 85368, Note_on_c, 0, 62, 0
1, 85380, Note_on_c, 1, 54, 0
1, 85380, Note_on_c, 1, 55, 56
1, 85440, Note_on_c, 0, 64, 64
1, 85440, Note_on_c, 0, 67, 64
1, 85440, Note_on_c, 0, 72, 64
1, 85440, Note_on_c, 1, 55, 0
1, 85440, Note_on_c, 1, 43, 56
1, 85488, Note_on_c, 0, 72, 0
1, 85488, Note_on_c, 0, 67, 0
1, 85488, Note_on_c, 0, 64, 0
1, 85500, Note_on_c, 1, 43, 0
1, 85500, Note_on_c, 1, 55, 56
1, 85560, Note_on_c, 0, 66, 64
1, 85560, Note_on_c, 0, 69, 64
1, 85560, Note_on_c, 0, 72, 64
1, 85560, Note_on_c, 1, 55, 0
1, 85560, Note_on_c, 1, 54, 56
1, 85620, Note_on_c, 1, 54, 0
1, 85620, Note_on_c, 1, 55, 56
1, 85680, Note_on_c, 0, 72, 0
1, 85680, Note_on_c, 0, 69, 0
1, 85680, Note_on_c, 0, 66, 0
1, 85680, Note_on_c, 0, 67, 64
1, 85680, Note_on_c, 0, 71, 64
1, 85680, Note_on_c, 1, 55, 0
1, 85680, Note_on_c, 1, 43, 56
1, 85740, Note_on_c, 1, 43, 0
1, 85740, Note_on_c, 1, 55, 56
1, 85800, Note_on_c, 1, 55, 0
1, 85800, Note_on_c, 1, 54, 56
1, 85860, Note_on_c, 1, 54, 0
1, 85860, Note_on_c, 1, 55, 56
1, 85872, Note_on_c, 0, 71, 0
1, 85872, Note_on_c, 0, 67, 0
1, 85920, Note_on_c, 1, 55, 0
1, 85920, Note_on_c, 1, 43, 56
1, 85980, Note_on_c, 1, 43, 0
1, 85980, Note_on_c, 1, 55, 92
1, 86040, Note_on_c, 0, 71, 100
1, 86040, Note_on_c, 0, 74, 100
1, 86040, Note_on_c, 0, 77, 100
1, 86040, Note_on_c, 1, 55, 0
1, 86040, Note_on_c, 1, 54, 92
1, 86088, Note_on_c, 0, 77, 0
1, 86088, Note_on_c, 0, 74, 0
1, 86088, Note_on_c, 0, 71, 0
1, 86100, Note_on_c, 1, 54, 0
1, 86100, Note_on_c, 1, 55, 92
1, 86160, Note_on_c, 0, 72, 100
1, 86160, Note_on_c, 0, 76, 100
1, 86160, Note_on_c, 1, 55, 0
1, 86160, Note_on_c, 1, 43, 92
1, 86208, Note_on_c, 0, 76, 0
1, 86208, Note_on_c, 0, 72, 0
1, 86220, Note_on_c, 1, 43, 0
1, 86220, Note_on_c, 1, 55, 92
1, 86280, Note_on_c, 0, 69, 100
1, 86280, Note_on_c, 0, 72, 100
1, 86280, Note_on_c, 0, 78, 100
1, 86280, Note_on_c, 1, 55, 0
1, 86280, Note_on_c, 1, 54, 92
1, 86340, Note_on_c, 1, 54, 0
1, 86340, Note_on_c, 1, 55, 92
1, 86400, Note_on_c, 0, 78, 0
1, 86400, Note_on_c, 0, 72, 0
1, 86400, Note_on_c, 0, 69, 0
1, 86400, Note_on_c, 0, 71, 100
1, 86400, Note_on_c, 0, 74, 100
1, 86400, Note_on_c, 0, 79, 100
1, 86400, Note_on_c, 1, 55, 0
1, 86400, Note_on_c, 1, 43, 92
1, 86640, Note_on_c, 0, 79, 0
1, 86640, Note_on_c, 0, 74, 0
1, 86640, Note_on_c, 0, 71, 0
1, 86640, Note_on_c, 1, 43, 0
1, 86650, End_track
0, 0, End_of_file