0, 0, Header, 0, 1, 480
1, 0, Start_track
1, 0, Tempo, 1176471
1, 3609, Note_on_c, 0, 72, 47
1, 3825, Note_on_c, 0, 72, 0
1, 3864, Note_on_c, 0, 72, 63
1, 4047, Note_on_c, 0, 72, 0
1, 4102, Note_on_c, 0, 72, 62
1, 4298, Note_on_c, 0, 72, 0
1, 4337, Note_on_c, 0, 72, 68
1, 4339, Note_on_c, 1, 60, 46
1, 4340, Note_on_c, 1, 53, 42
1, 4344, Note_on_c, 1, 57, 40
1, 4472, Note_on_c, 0, 74, 53
1, 4473, Note_on_c, 0, 72, 0
1, 4515, Note_on_c, 0, 72, 64
1, 4537, Note_on_c, 0, 74, 0
1, 4547, Note_on_c, 0, 71, 58
1, 4548, Note_on_c, 0, 72, 0
1, 4584, Note_on_c, 0, 72, 64
1, 4609, Note_on_c, 0, 71, 0
1, 4682, Note_on_c, 0, 72, 0
1, 4695, Note_on_c, 0, 77, 64
1, 4824, Note_on_c, 0, 72, 64
1, 4832, Note_on_c, 0, 77, 0
1, 4966, Note_on_c, 0, 72, 0
1, 5070, Note_on_c, 0, 69, 56
1, 5087, Note_on_c, 1, 57, 0
1, 5157, Note_on_c, 1, 60, 0
1, 5167, Note_on_c, 1, 53, 0
1, 5310, Note_on_c, 0, 72, 53
1, 5315, Note_on_c, 1, 58, 36
1, 5317, Note_on_c, 1, 48, 23
1, 5318, Note_on_c, 1, 55, 33
1, 5333, Note_on_c, 0, 69, 0
1, 5557, Note_on_c, 0, 64, 52
1, 5576, Note_on_c, 1, 58, 0
1, 5601, Note_on_c, 0, 72, 0
1, 5804, Note_on_c, 1, 48, 0
1, 5811, Note_on_c, 0, 67, 52
1, 5813, Note_on_c, 0, 64, 0
1, 5817, Note_on_c, 1, 50, 29
1, 5817, Note_on_c, 1, 58, 40
1, 5836, Note_on_c, 1, 55, 0
1, 6240, Note_on_c, 1, 50, 0
1, 6240, Note_on_c, 1, 58, 0
1, 6276, Note_on_c, 0, 67, 0
1, 6276, Note_on_c, 0, 65, 29
1, 6276, Note_on_c, 1, 57, 29
1, 6465, Note_on_c, 0, 65, 0
1, 6465, Note_on_c, 1, 57, 0
1, 6526, Note_on_c, 0, 60, 52
1, 6529, Note_on_c, 0, 65, 71
1, 6529, Note_on_c, 1, 45, 61
1, 6529, Note_on_c, 1, 57, 61
1, 6747, Note_on_c, 0, 67, 83
1, 6747, Note_on_c, 1, 43, 73
1, 6747, Note_on_c, 1, 55, 73
1, 6748, Note_on_c, 0, 65, 0
1, 6748, Note_on_c, 1, 45, 0
1, 6748, Note_on_c, 1, 57, 0
1, 6781, Note_on_c, 0, 60, 0
1, 6988, Note_on_c, 1, 41, 27
1, 6988, Note_on_c, 1, 53, 56
1, 6991, Note_on_c, 0, 69, 77
1, 6992, Note_on_c, 0, 60, 60
1, 6993, Note_on_c, 0, 65, 55
1, 7002, Note_on_c, 0, 67, 0
1, 7002, Note_on_c, 1, 43, 0
1, 7002, Note_on_c, 1, 55, 0
1, 7167, Note_on_c, 0, 65, 0
1, 7182, Note_on_c, 0, 69, 0
1, 7216, Note_on_c, 1, 53, 0
1, 7223, Note_on_c, 1, 41, 0
1, 7226, Note_on_c, 0, 60, 0
1, 7237, Note_on_c, 0, 65, 43
1, 7237, Note_on_c, 0, 70, 89
1, 7237, Note_on_c, 1, 50, 48
1, 7237, Note_on_c, 1, 62, 69
1, 7469, Note_on_c, 1, 58, 50
1, 7472, Note_on_c, 1, 46, 37
1, 7473, Note_on_c, 1, 62, 0
1, 7508, Note_on_c, 1, 50, 0
1, 7614, Note_on_c, 0, 72, 62
1, 7650, Note_on_c, 0, 70, 0
1, 7662, Note_on_c, 0, 74, 73
1, 7674, Note_on_c, 0, 72, 0
1, 7714, Note_on_c, 0, 72, 77
1, 7717, Note_on_c, 0, 74, 0
1, 7721, Note_on_c, 1, 57, 48
1, 7728, Note_on_c, 1, 45, 42
1, 7747, Note_on_c, 1, 58, 0
1, 7748, Note_on_c, 1, 46, 0
1, 7872, Note_on_c, 1, 45, 0
1, 7875, Note_on_c, 1, 57, 0
1, 7910, Note_on_c, 0, 65, 0
1, 7959, Note_on_c, 0, 72, 0
1, 7960, Note_on_c, 0, 65, 61
1, 8186, Note_on_c, 0, 64, 62
1, 8193, Note_on_c, 0, 59, 26
1, 8200, Note_on_c, 0, 65, 0
1, 8201, Note_on_c, 1, 50, 48
1, 8406, Note_on_c, 0, 65, 55
1, 8417, Note_on_c, 0, 64, 0
1, 8618, Note_on_c, 0, 65, 0
1, 8644, Note_on_c, 0, 69, 34
1, 8644, Note_on_c, 0, 65, 45
1, 8648, Note_on_c, 0, 59, 0
1, 8651, Note_on_c, 0, 60, 25
1, 8664, Note_on_c, 1, 48, 50
1, 8690, Note_on_c, 1, 50, 0
1, 9061, Note_on_c, 0, 65, 0
1, 9132, Note_on_c, 0, 67, 52
1, 9142, Note_on_c, 0, 64, 15
1, 9161, Note_on_c, 1, 48, 0
1, 9189, Note_on_c, 0, 69, 0
1, 9341, Note_on_c, 0, 64, 0
1, 9346, Note_on_c, 0, 67, 0
1, 9373, Note_on_c, 0, 60, 0
1, 9395, Note_on_c, 0, 67, 64
1, 9581, Note_on_c, 0, 67, 0
1, 9629, Note_on_c, 0, 67, 79
1, 9638, Note_on_c, 1, 64, 57
1, 9643, Note_on_c, 1, 60, 48
1, 9825, Note_on_c, 0, 67, 0
1, 9867, Note_on_c, 0, 67, 84
1, 10012, Note_on_c, 0, 67, 0
1, 10048, Note_on_c, 0, 67, 68
1, 10048, Note_on_c, 1, 64, 0
1, 10053, Note_on_c, 1, 60, 0
1, 10102, Note_on_c, 0, 79, 79
1, 10114, Note_on_c, 1, 65, 64
1, 10116, Note_on_c, 1, 62, 57
1, 10117, Note_on_c, 1, 59, 52
1, 10495, Note_on_c, 0, 74, 58
1, 10525, Note_on_c, 0, 67, 0
1, 10537, Note_on_c, 0, 79, 0
1, 10544, Note_on_c, 0, 71, 64
1, 10563, Note_on_c, 0, 74, 0
1, 10590, Note_on_c, 0, 67, 55
1, 10605, Note_on_c, 0, 71, 0
1, 10774, Note_on_c, 0, 67, 0
1, 10802, Note_on_c, 0, 67, 56
1, 10879, Note_on_c, 1, 65, 0
1, 10881, Note_on_c, 1, 59, 0
1, 10884, Note_on_c, 1, 62, 0
1, 10995, Note_on_c, 0, 67, 0
1, 11028, Note_on_c, 0, 67, 61
1, 11041, Note_on_c, 1, 64, 48
1, 11045, Note_on_c, 1, 60, 27
1, 11236, Note_on_c, 1, 64, 0
1, 11242, Note_on_c, 0, 67, 0
1, 11257, Note_on_c, 1, 60, 0
1, 11279, Note_on_c, 0, 67, 64
1, 11443, Note_on_c, 0, 67, 0
1, 11473, Note_on_c, 0, 67, 71
1, 11513, Note_on_c, 1, 59, 50
1, 11518, Note_on_c, 1, 50, 40
1, 11519, Note_on_c, 1, 53, 46
1, 11526, Note_on_c, 0, 79, 79
1, 11529, Note_on_c, 0, 67, 0
1, 11980, Note_on_c, 1, 60, 56
1, 11981, Note_on_c, 1, 55, 27
1, 11989, Note_on_c, 1, 52, 56
1, 12024, Note_on_c, 1, 59, 0
1, 12025, Note_on_c, 1, 50, 0
1, 12031, Note_on_c, 1, 53, 0
1, 12133, Note_on_c, 0, 81, 60
1, 12153, Note_on_c, 0, 79, 0
1, 12177, Note_on_c, 0, 83, 38
1, 12196, Note_on_c, 0, 81, 0
1, 12222, Note_on_c, 0, 84, 55
1, 12240, Note_on_c, 0, 83, 0
1, 12278, Note_on_c, 0, 84, 0
1, 12345, Note_on_c, 0, 83, 45
1, 12391, Note_on_c, 0, 83, 0
1, 12432, Note_on_c, 1, 52, 0
1, 12434, Note_on_c, 1, 60, 0
1, 12437, Note_on_c, 1, 55, 0
1, 12477, Note_on_c, 0, 81, 55
1, 12522, Note_on_c, 0, 81, 0
1, 12593, Note_on_c, 0, 79, 46
1, 12649, Note_on_c, 0, 79, 0
1, 12714, Note_on_c, 0, 77, 43
1, 12771, Note_on_c, 0, 77, 0
1, 12837, Note_on_c, 0, 76, 43
1, 12886, Note_on_c, 0, 76, 0
1, 12952, Note_on_c, 0, 73, 67
1, 13078, Note_on_c, 0, 73, 0
1, 13081, Note_on_c, 0, 74, 63
1, 13199, Note_on_c, 0, 77, 68
1, 13200, Note_on_c, 1, 57, 40
1, 13200, Note_on_c, 1, 62, 56
1, 13205, Note_on_c, 1, 53, 30
1, 13214, Note_on_c, 0, 74, 0
1, 13291, Note_on_c, 0, 77, 0
1, 13314, Note_on_c, 0, 81, 41
1, 13368, Note_on_c, 1, 62, 0
1, 13415, Note_on_c, 1, 57, 0
1, 13422, Note_on_c, 1, 53, 0
1, 13440, Note_on_c, 1, 60, 56
1, 13443, Note_on_c, 1, 64, 55
1, 13448, Note_on_c, 0, 72, 63
1, 13455, Note_on_c, 1, 55, 33
1, 13456, Note_on_c, 0, 81, 0
1, 13848, Note_on_c, 1, 60, 0
1, 13887, Note_on_c, 1, 64, 0
1, 13917, Note_on_c, 1, 62, 37
1, 13921, Note_on_c, 1, 65, 37
1, 14150, Note_on_c, 0, 76, 35
1, 14156, Note_on_c, 0, 71, 42
1, 14195, Note_on_c, 0, 72, 0
1, 14276, Note_on_c, 0, 74, 55
1, 14301, Note_on_c, 0, 76, 0
1, 14359, Note_on_c, 1, 65, 0
1, 14361, Note_on_c, 1, 62, 0
1, 14392, Note_on_c, 1, 55, 0
1, 14408, Note_on_c, 0, 72, 39
1, 14412, Note_on_c, 0, 71, 0
1, 14412, Note_on_c, 1, 60, 33
1, 14417, Note_on_c, 1, 64, 38
1, 14425, Note_on_c, 0, 74, 0
1, 14891, Note_on_c, 1, 48, 41
1, 14927, Note_on_c, 1, 60, 0
1, 14932, Note_on_c, 1, 64, 0
1, 15063, Note_on_c, 0, 72, 0
1, 15126, Note_on_c, 1, 48, 0
1, 15129, Note_on_c, 0, 72, 47
1, 15345, Note_on_c, 0, 72, 0
1, 15384, Note_on_c, 0, 72, 63
1, 15567, Note_on_c, 0, 72, 0
1, 15622, Note_on_c, 0, 72, 62
1, 15818, Note_on_c, 0, 72, 0
1, 15857, Note_on_c, 0, 72, 68
1, 15859, Note_on_c, 1, 60, 46
1, 15860, Note_on_c, 1, 53, 42
1, 15864, Note_on_c, 1, 57, 40
1, 15992, Note_on_c, 0, 74, 53
1, 15993, Note_on_c, 0, 72, 0
1, 16035, Note_on_c, 0, 72, 64
1, 16057, Note_on_c, 0, 74, 0
1, 16067, Note_on_c, 0, 71, 58
1, 16068, Note_on_c, 0, 72, 0
1, 16104, Note_on_c, 0, 72, 64
1, 16129, Note_on_c, 0, 71, 0
1, 16202, Note_on_c, 0, 72, 0
1, 16215, Note_on_c, 0, 77, 64
1, 16344, Note_on_c, 0, 72, 64
1, 16352, Note_on_c, 0, 77, 0
1, 16486, Note_on_c, 0, 72, 0
1, 16590, Note_on_c, 0, 69, 56
1, 16607, Note_on_c, 1, 57, 0
1, 16677, Note_on_c, 1, 60, 0
1, 16687, Note_on_c, 1, 53, 0
1, 16830, Note_on_c, 0, 72, 53
1, 16835, Note_on_c, 1, 58, 36
1, 16837, Note_on_c, 1, 48, 23
1, 16838, Note_on_c, 1, 55, 33
1, 16853, Note_on_c, 0, 69, 0
1, 17077, Note_on_c, 0, 64, 52
1, 17096, Note_on_c, 1, 58, 0
1, 17121, Note_on_c, 0, 72, 0
1, 17324, Note_on_c, 1, 48, 0
1, 17331, Note_on_c, 0, 67, 52
1, 17333, Note_on_c, 0, 64, 0
1, 17337, Note_on_c, 1, 58, 40
1, 17337, Note_on_c, 1, 50, 29
1, 17356, Note_on_c, 1, 55, 0
1, 17760, Note_on_c, 1, 58, 0
1, 17760, Note_on_c, 1, 50, 0
1, 17796, Note_on_c, 0, 67, 0
1, 17796, Note_on_c, 0, 65, 29
1, 17796, Note_on_c, 1, 57, 29
1, 17985, Note_on_c, 0, 65, 0
1, 17985, Note_on_c, 1, 57, 0
1, 18046, Note_on_c, 0, 60, 52
1, 18049, Note_on_c, 0, 65, 71
1, 18049, Note_on_c, 1, 57, 61
1, 18049, Note_on_c, 1, 45, 61
1, 18267, Note_on_c, 0, 67, 73
1, 18267, Note_on_c, 1, 55, 63
1, 18267, Note_on_c, 1, 43, 63
1, 18268, Note_on_c, 0, 65, 0
1, 18268, Note_on_c, 1, 57, 0
1, 18268, Note_on_c, 1, 45, 0
1, 18301, Note_on_c, 0, 60, 0
1, 18508, Note_on_c, 1, 53, 56
1, 18508, Note_on_c, 1, 41, 27
1, 18511, Note_on_c, 0, 69, 77
1, 18512, Note_on_c, 0, 60, 60
1, 18513, Note_on_c, 0, 65, 55
1, 18522, Note_on_c, 0, 67, 0
1, 18522, Note_on_c, 1, 55, 0
1, 18522, Note_on_c, 1, 43, 0
1, 18687, Note_on_c, 0, 65, 0
1, 18702, Note_on_c, 0, 69, 0
1, 18736, Note_on_c, 1, 53, 0
1, 18743, Note_on_c, 1, 41, 0
1, 18746, Note_on_c, 0, 60, 0
1, 18757, Note_on_c, 0, 70, 89
1, 18757, Note_on_c, 0, 65, 43
1, 18757, Note_on_c, 1, 62, 69
1, 18757, Note_on_c, 1, 50, 48
1, 18989, Note_on_c, 1, 58, 50
1, 18992, Note_on_c, 1, 46, 37
1, 18993, Note_on_c, 1, 62, 0
1, 19028, Note_on_c, 1, 50, 0
1, 19134, Note_on_c, 0, 72, 62
1, 19170, Note_on_c, 0, 70, 0
1, 19182, Note_on_c, 0, 74, 73
1, 19194, Note_on_c, 0, 72, 0
1, 19200, Note_on_c, 1, 58, 0
1, 19200, Note_on_c, 1, 46, 0
1, 19234, Note_on_c, 0, 72, 77
1, 19237, Note_on_c, 0, 74, 0
1, 19241, Note_on_c, 1, 57, 48
1, 19248, Note_on_c, 1, 45, 42
1, 19392, Note_on_c, 1, 45, 0
1, 19395, Note_on_c, 1, 57, 0
1, 19430, Note_on_c, 0, 65, 0
1, 19479, Note_on_c, 0, 72, 0
1, 19480, Note_on_c, 0, 65, 61
1, 19706, Note_on_c, 0, 64, 62
1, 19713, Note_on_c, 0, 59, 26
1, 19720, Note_on_c, 0, 65, 0
1, 19721, Note_on_c, 1, 50, 48
1, 19926, Note_on_c, 0, 65, 55
1, 19937, Note_on_c, 0, 64, 0
1, 20138, Note_on_c, 0, 65, 0
1, 20164, Note_on_c, 0, 65, 45
1, 20164, Note_on_c, 0, 69, 44
1, 20168, Note_on_c, 0, 59, 0
1, 20171, Note_on_c, 0, 60, 25
1, 20184, Note_on_c, 1, 48, 50
1, 20210, Note_on_c, 1, 50, 0
1, 20581, Note_on_c, 0, 65, 0
1, 20652, Note_on_c, 0, 67, 52
1, 20662, Note_on_c, 0, 64, 15
1, 20681, Note_on_c, 1, 48, 0
1, 20709, Note_on_c, 0, 69, 0
1, 20861, Note_on_c, 0, 64, 0
1, 20866, Note_on_c, 0, 67, 0
1, 20893, Note_on_c, 0, 60, 0
1, 20915, Note_on_c, 0, 67, 64
1, 21101, Note_on_c, 0, 67, 0
1, 21149, Note_on_c, 0, 67, 79
1, 21158, Note_on_c, 1, 64, 57
1, 21163, Note_on_c, 1, 60, 48
1, 21345, Note_on_c, 0, 67, 0
1, 21387, Note_on_c, 0, 67, 84
1, 21532, Note_on_c, 0, 67, 0
1, 21568, Note_on_c, 0, 67, 68
1, 21568, Note_on_c, 1, 64, 0
1, 21573, Note_on_c, 1, 60, 0
1, 21622, Note_on_c, 0, 79, 79
1, 21634, Note_on_c, 1, 65, 64
1, 21636, Note_on_c, 1, 62, 57
1, 21637, Note_on_c, 1, 59, 52
1, 22015, Note_on_c, 0, 74, 58
1, 22045, Note_on_c, 0, 67, 0
1, 22057, Note_on_c, 0, 79, 0
1, 22064, Note_on_c, 0, 71, 64
1, 22083, Note_on_c, 0, 74, 0
1, 22110, Note_on_c, 0, 67, 55
1, 22125, Note_on_c, 0, 71, 0
1, 22294, Note_on_c, 0, 67, 0
1, 22322, Note_on_c, 0, 67, 56
1, 22399, Note_on_c, 1, 65, 0
1, 22401, Note_on_c, 1, 59, 0
1, 22404, Note_on_c, 1, 62, 0
1, 22515, Note_on_c, 0, 67, 0
1, 22548, Note_on_c, 0, 67, 61
1, 22561, Note_on_c, 1, 64, 48
1, 22565, Note_on_c, 1, 60, 27
1, 22756, Note_on_c, 1, 64, 0
1, 22762, Note_on_c, 0, 67, 0
1, 22777, Note_on_c, 1, 60, 0
1, 22799, Note_on_c, 0, 67, 64
1, 22963, Note_on_c, 0, 67, 0
1, 22993, Note_on_c, 0, 67, 71
1, 23033, Note_on_c, 1, 59, 50
1, 23038, Note_on_c, 1, 50, 40
1, 23039, Note_on_c, 1, 53, 46
1, 23046, Note_on_c, 0, 79, 79
1, 23049, Note_on_c, 0, 67, 0
1, 23500, Note_on_c, 1, 60, 56
1, 23501, Note_on_c, 1, 55, 27
1, 23509, Note_on_c, 1, 52, 56
1, 23544, Note_on_c, 1, 59, 0
1, 23545, Note_on_c, 1, 50, 0
1, 23551, Note_on_c, 1, 53, 0
1, 23653, Note_on_c, 0, 81, 68
1, 23673, Note_on_c, 0, 79, 0
1, 23697, Note_on_c, 0, 83, 46
1, 23716, Note_on_c, 0, 81, 0
1, 23742, Note_on_c, 0, 84, 63
1, 23760, Note_on_c, 0, 83, 0
1, 23798, Note_on_c, 0, 84, 0
1, 23865, Note_on_c, 0, 83, 53
1, 23911, Note_on_c, 0, 83, 0
1, 23952, Note_on_c, 1, 52, 0
1, 23954, Note_on_c, 1, 60, 0
1, 23957, Note_on_c, 1, 55, 0
1, 23997, Note_on_c, 0, 81, 63
1, 24042, Note_on_c, 0, 81, 0
1, 24113, Note_on_c, 0, 79, 54
1, 24169, Note_on_c, 0, 79, 0
1, 24234, Note_on_c, 0, 77, 43
1, 24291, Note_on_c, 0, 77, 0
1, 24357, Note_on_c, 0, 76, 43
1, 24406, Note_on_c, 0, 76, 0
1, 24472, Note_on_c, 0, 73, 67
1, 24598, Note_on_c, 0, 73, 0
1, 24601, Note_on_c, 0, 74, 63
1, 24719, Note_on_c, 0, 77, 68
1, 24720, Note_on_c, 1, 62, 56
1, 24720, Note_on_c, 1, 57, 40
1, 24725, Note_on_c, 1, 53, 30
1, 24734, Note_on_c, 0, 74, 0
1, 24811, Note_on_c, 0, 77, 0
1, 24834, Note_on_c, 0, 81, 41
1, 24888, Note_on_c, 1, 62, 0
1, 24935, Note_on_c, 1, 57, 0
1, 24942, Note_on_c, 1, 53, 0
1, 24960, Note_on_c, 1, 60, 56
1, 24963, Note_on_c, 1, 64, 55
1, 24968, Note_on_c, 0, 72, 63
1, 24975, Note_on_c, 1, 55, 33
1, 24976, Note_on_c, 0, 81, 0
1, 25368, Note_on_c, 1, 60, 0
1, 25407, Note_on_c, 1, 64, 0
1, 25437, Note_on_c, 1, 62, 37
1, 25441, Note_on_c, 1, 65, 37
1, 25670, Note_on_c, 0, 76, 35
1, 25676, Note_on_c, 0, 71, 42
1, 25715, Note_on_c, 0, 72, 0
1, 25796, Note_on_c, 0, 74, 55
1, 25821, Note_on_c, 0, 76, 0
1, 25879, Note_on_c, 1, 65, 0
1, 25881, Note_on_c, 1, 62, 0
1, 25912, Note_on_c, 1, 55, 0
1, 25926, Note_on_c, 0, 72, 52
1, 25928, Note_on_c, 0, 72, 39
1, 25932, Note_on_c, 0, 71, 0
1, 25932, Note_on_c, 1, 60, 33
1, 25937, Note_on_c, 1, 64, 38
1, 25937, Note_on_c, 1, 60, 34
1, 25940, Note_on_c, 1, 64, 37
1, 25945, Note_on_c, 0, 74, 0
1, 26386, Note_on_c, 0, 72, 0
1, 26392, Note_on_c, 1, 48, 48
1, 26411, Note_on_c, 1, 48, 41
1, 26429, Note_on_c, 1, 60, 0
1, 26430, Note_on_c, 1, 64, 0
1, 26447, Note_on_c, 1, 60, 0
1, 26452, Note_on_c, 1, 64, 0
1, 26583, Note_on_c, 0, 72, 0
1, 26621, Note_on_c, 0, 72, 40
1, 26646, Note_on_c, 1, 48, 0
1, 26679, Note_on_c, 1, 48, 0
1, 26860, Note_on_c, 0, 72, 0
1, 26876, Note_on_c, 0, 74, 33
1, 26997, Note_on_c, 0, 72, 55
1, 27022, Note_on_c, 0, 74, 0
1, 27107, Note_on_c, 0, 72, 0
1, 27108, Note_on_c, 0, 70, 57
1, 27220, Note_on_c, 0, 69, 60
1, 27225, Note_on_c, 0, 70, 0
1, 27373, Note_on_c, 0, 67, 67
1, 27373, Note_on_c, 1, 63, 51
1, 27373, Note_on_c, 1, 60, 45
1, 27386, Note_on_c, 0, 69, 0
1, 27855, Note_on_c, 0, 66, 28
1, 27883, Note_on_c, 0, 67, 0
1, 27889, Note_on_c, 1, 60, 0
1, 27890, Note_on_c, 1, 63, 0
1, 28048, Note_on_c, 0, 66, 0
1, 28089, Note_on_c, 0, 66, 55
1, 28106, Note_on_c, 1, 60, 40
1, 28106, Note_on_c, 1, 63, 56
1, 28306, Note_on_c, 1, 63, 0
1, 28321, Note_on_c, 0, 66, 0
1, 28321, Note_on_c, 1, 62, 62
1, 28324, Note_on_c, 1, 60, 0
1, 28329, Note_on_c, 0, 67, 61
1, 28331, Note_on_c, 1, 58, 40
1, 28521, Note_on_c, 1, 62, 0
1, 28533, Note_on_c, 1, 58, 0
1, 28559, Note_on_c, 0, 69, 61
1, 28559, Note_on_c, 1, 57, 61
1, 28563, Note_on_c, 1, 62, 60
1, 28565, Note_on_c, 1, 60, 55
1, 28568, Note_on_c, 0, 66, 48
1, 28584, Note_on_c, 0, 67, 0
1, 28757, Note_on_c, 1, 60, 0
1, 28759, Note_on_c, 1, 62, 0
1, 28770, Note_on_c, 0, 66, 0
1, 28775, Note_on_c, 0, 69, 0
1, 28799, Note_on_c, 1, 57, 0
1, 28820, Note_on_c, 1, 60, 50
1, 28821, Note_on_c, 1, 62, 56
1, 28823, Note_on_c, 0, 69, 68
1, 28830, Note_on_c, 1, 55, 50
1, 28832, Note_on_c, 0, 66, 57
1, 29291, Note_on_c, 0, 70, 36
1, 29300, Note_on_c, 0, 67, 30
1, 29300, Note_on_c, 1, 60, 0
1, 29300, Note_on_c, 1, 62, 0
1, 29312, Note_on_c, 0, 69, 0
1, 29315, Note_on_c, 1, 58, 42
1, 29340, Note_on_c, 0, 66, 0
1, 29349, Note_on_c, 1, 55, 0
1, 29484, Note_on_c, 1, 58, 0
1, 29528, Note_on_c, 0, 64, 48
1, 29534, Note_on_c, 1, 61, 55
1, 29543, Note_on_c, 1, 58, 53
1, 29551, Note_on_c, 0, 67, 0
1, 29558, Note_on_c, 0, 70, 0
1, 29745, Note_on_c, 1, 61, 0
1, 29757, Note_on_c, 1, 60, 62
1, 29765, Note_on_c, 1, 57, 45
1, 29766, Note_on_c, 0, 65, 64
1, 29773, Note_on_c, 1, 58, 0
1, 29780, Note_on_c, 0, 64, 0
1, 29939, Note_on_c, 1, 60, 0
1, 29993, Note_on_c, 0, 65, 0
1, 29995, Note_on_c, 1, 60, 58
1, 30000, Note_on_c, 1, 58, 46
1, 30004, Note_on_c, 0, 67, 62
1, 30004, Note_on_c, 1, 55, 47
1, 30010, Note_on_c, 1, 57, 0
1, 30012, Note_on_c, 0, 64, 51
1, 30148, Note_on_c, 1, 58, 0
1, 30189, Note_on_c, 1, 60, 0
1, 30219, Note_on_c, 0, 67, 0
1, 30228, Note_on_c, 0, 64, 0
1, 30229, Note_on_c, 1, 55, 0
1, 30237, Note_on_c, 0, 69, 58
1, 30242, Note_on_c, 0, 65, 55
1, 30246, Note_on_c, 1, 60, 58
1, 30250, Note_on_c, 1, 53, 37
1, 30255, Note_on_c, 1, 57, 11
1, 30397, Note_on_c, 1, 57, 0
1, 30404, Note_on_c, 1, 53, 0
1, 30489, Note_on_c, 0, 69, 0
1, 30490, Note_on_c, 1, 50, 63
1, 30494, Note_on_c, 0, 70, 71
1, 30651, Note_on_c, 1, 60, 0
1, 30694, Note_on_c, 0, 70, 0
1, 30711, Note_on_c, 0, 72, 71
1, 30724, Note_on_c, 1, 45, 53
1, 30752, Note_on_c, 1, 50, 0
1, 30947, Note_on_c, 0, 73, 66
1, 30948, Note_on_c, 0, 72, 0
1, 31173, Note_on_c, 0, 73, 0
1, 31176, Note_on_c, 1, 45, 0
1, 31188, Note_on_c, 0, 76, 64
1, 31190, Note_on_c, 1, 46, 41
1, 31309, Note_on_c, 0, 76, 0
1, 31311, Note_on_c, 0, 74, 67
1, 31337, Note_on_c, 0, 65, 0
1, 31427, Note_on_c, 1, 43, 46
1, 31432, Note_on_c, 0, 72, 63
1, 31446, Note_on_c, 0, 74, 0
1, 31452, Note_on_c, 0, 67, 42
1, 31461, Note_on_c, 1, 46, 0
1, 31543, Note_on_c, 1, 43, 0
1, 31552, Note_on_c, 0, 72, 0
1, 31552, Note_on_c, 0, 70, 60
1, 31656, Note_on_c, 0, 70, 0
1, 31676, Note_on_c, 1, 48, 55
1, 31690, Note_on_c, 0, 69, 63
1, 31693, Note_on_c, 0, 65, 57
1, 31710, Note_on_c, 0, 67, 0
1, 32156, Note_on_c, 0, 67, 56
1, 32160, Note_on_c, 0, 64, 37
1, 32175, Note_on_c, 0, 65, 0
1, 32175, Note_on_c, 0, 69, 0
1, 32175, Note_on_c, 1, 48, 0
1, 32345, Note_on_c, 0, 67, 0
1, 32433, Note_on_c, 0, 72, 35
1, 32485, Note_on_c, 0, 64, 0
1, 32640, Note_on_c, 0, 72, 0
1, 32673, Note_on_c, 0, 72, 76
1, 32883, Note_on_c, 0, 72, 0
1, 32925, Note_on_c, 0, 72, 68
1, 33113, Note_on_c, 0, 72, 0
1, 33159, Note_on_c, 0, 72, 73
1, 33160, Note_on_c, 0, 82, 82
1, 33168, Note_on_c, 1, 48, 68
1, 33175, Note_on_c, 1, 36, 68
1, 33511, Note_on_c, 1, 38, 56
1, 33513, Note_on_c, 1, 50, 63
1, 33528, Note_on_c, 1, 36, 0
1, 33532, Note_on_c, 1, 48, 0
1, 33613, Note_on_c, 1, 50, 0
1, 33620, Note_on_c, 1, 52, 62
1, 33625, Note_on_c, 1, 40, 66
1, 33644, Note_on_c, 1, 38, 0
1, 33801, Note_on_c, 0, 82, 0
1, 33848, Note_on_c, 0, 81, 61
1, 33872, Note_on_c, 1, 53, 67
1, 33874, Note_on_c, 1, 41, 47
1, 33881, Note_on_c, 1, 52, 0
1, 33884, Note_on_c, 0, 72, 0
1, 33886, Note_on_c, 1, 40, 0
1, 34079, Note_on_c, 1, 55, 57
1, 34085, Note_on_c, 1, 43, 55
1, 34086, Note_on_c, 1, 53, 0
1, 34093, Note_on_c, 0, 79, 53
1, 34097, Note_on_c, 0, 70, 20
1, 34100, Note_on_c, 1, 41, 0
1, 34121, Note_on_c, 0, 81, 0
1, 34321, Note_on_c, 1, 57, 57
1, 34321, Note_on_c, 1, 45, 36
1, 34327, Note_on_c, 0, 69, 45
1, 34327, Note_on_c, 1, 43, 0
1, 34330, Note_on_c, 1, 55, 0
1, 34332, Note_on_c, 0, 77, 57
1, 34349, Note_on_c, 0, 70, 0
1, 34360, Note_on_c, 0, 79, 0
1, 34548, Note_on_c, 0, 77, 0
1, 34583, Note_on_c, 1, 58, 60
1, 34583, Note_on_c, 1, 46, 32
1, 34595, Note_on_c, 0, 69, 0
1, 34598, Note_on_c, 1, 45, 0
1, 34601, Note_on_c, 0, 72, 56
1, 34603, Note_on_c, 0, 67, 53
1, 34603, Note_on_c, 0, 77, 58
1, 34604, Note_on_c, 1, 57, 0
1, 35119, Note_on_c, 0, 76, 21
1, 35139, Note_on_c, 0, 77, 0
1, 35140, Note_on_c, 0, 72, 0
1, 35351, Note_on_c, 0, 75, 55
1, 35376, Note_on_c, 0, 76, 0
1, 35377, Note_on_c, 1, 46, 0
1, 35380, Note_on_c, 1, 58, 0
1, 35561, Note_on_c, 0, 75, 0
1, 35581, Note_on_c, 0, 75, 57
1, 35585, Note_on_c, 0, 67, 0
1, 35769, Note_on_c, 0, 75, 0
1, 35808, Note_on_c, 0, 75, 47
1, 36033, Note_on_c, 0, 75, 0
1, 36037, Note_on_c, 1, 65, 46
1, 36040, Note_on_c, 0, 77, 60
1, 36041, Note_on_c, 1, 60, 23
1, 36042, Note_on_c, 1, 57, 33
1, 36078, Note_on_c, 0, 75, 55
1, 36081, Note_on_c, 0, 77, 0
1, 36123, Note_on_c, 0, 75, 0
1, 36134, Note_on_c, 0, 77, 66
1, 36156, Note_on_c, 0, 77, 0
1, 36159, Note_on_c, 0, 75, 56
1, 36183, Note_on_c, 0, 75, 0
1, 36186, Note_on_c, 0, 77, 57
1, 36217, Note_on_c, 0, 75, 58
1, 36241, Note_on_c, 0, 77, 0
1, 36245, Note_on_c, 0, 74, 52
1, 36253, Note_on_c, 0, 75, 0
1, 36294, Note_on_c, 0, 75, 66
1, 36296, Note_on_c, 0, 74, 0
1, 36383, Note_on_c, 0, 77, 61
1, 36396, Note_on_c, 0, 75, 0
1, 36444, Note_on_c, 1, 65, 0
1, 36495, Note_on_c, 0, 79, 55
1, 36509, Note_on_c, 0, 77, 0
1, 36517, Note_on_c, 1, 65, 46
1, 36521, Note_on_c, 1, 60, 23
1, 36522, Note_on_c, 1, 57, 33
1, 36537, Note_on_c, 1, 60, 0
1, 36538, Note_on_c, 1, 57, 0
1, 36723, Note_on_c, 0, 79, 0
1, 36723, Note_on_c, 0, 77, 58
1, 36853, Note_on_c, 0, 75, 41
1, 36869, Note_on_c, 0, 77, 0
1, 36924, Note_on_c, 1, 65, 0
1, 36941, Note_on_c, 0, 75, 0
1, 36984, Note_on_c, 0, 75, 47
1, 36997, Note_on_c, 1, 65, 46
1, 37001, Note_on_c, 1, 63, 23
1, 37002, Note_on_c, 1, 57, 33
1, 37017, Note_on_c, 1, 60, 0
1, 37018, Note_on_c, 1, 57, 0
1, 37104, Note_on_c, 0, 74, 48
1, 37126, Note_on_c, 0, 75, 0
1, 37189, Note_on_c, 0, 74, 0
1, 37214, Note_on_c, 0, 74, 64
1, 37347, Note_on_c, 0, 73, 45
1, 37354, Note_on_c, 0, 74, 0
1, 37404, Note_on_c, 1, 65, 0
1, 37453, Note_on_c, 0, 73, 0
1, 37463, Note_on_c, 1, 62, 37
1, 37465, Note_on_c, 1, 65, 45
1, 37466, Note_on_c, 1, 58, 33
1, 37488, Note_on_c, 0, 73, 56
1, 37497, Note_on_c, 1, 63, 0
1, 37498, Note_on_c, 1, 57, 0
1, 37940, Note_on_c, 0, 74, 52
1, 37958, Note_on_c, 0, 73, 0
1, 38190, Note_on_c, 0, 77, 58
1, 38224, Note_on_c, 0, 74, 0
1, 38317, Note_on_c, 0, 76, 71
1, 38350, Note_on_c, 0, 77, 0
1, 38434, Note_on_c, 1, 65, 0
1, 38436, Note_on_c, 1, 58, 0
1, 38439, Note_on_c, 1, 62, 0
1, 38443, Note_on_c, 0, 79, 68
1, 38451, Note_on_c, 0, 76, 0
1, 38556, Note_on_c, 0, 77, 69
1, 38577, Note_on_c, 0, 79, 0
1, 38668, Note_on_c, 0, 76, 79
1, 38687, Note_on_c, 0, 77, 0
1, 38781, Note_on_c, 0, 74, 66
1, 38784, Note_on_c, 0, 76, 0
1, 38880, Note_on_c, 0, 74, 0
1, 38903, Note_on_c, 1, 58, 42
1, 38906, Note_on_c, 1, 62, 46
1, 38911, Note_on_c, 1, 53, 30
1, 38914, Note_on_c, 0, 74, 55
1, 39345, Note_on_c, 1, 62, 0
1, 39383, Note_on_c, 0, 72, 45
1, 39394, Note_on_c, 0, 74, 0
1, 39395, Note_on_c, 1, 57, 28
1, 39400, Note_on_c, 1, 60, 16
1, 39427, Note_on_c, 1, 58, 0
1, 39627, Note_on_c, 0, 77, 55
1, 39628, Note_on_c, 0, 72, 0
1, 39761, Note_on_c, 1, 60, 0
1, 39771, Note_on_c, 1, 57, 0
1, 39771, Note_on_c, 1, 53, 0
1, 39815, Note_on_c, 0, 72, 58
1, 39825, Note_on_c, 0, 77, 0
1, 39883, Note_on_c, 0, 81, 67
1, 39885, Note_on_c, 0, 72, 0
1, 40066, Note_on_c, 0, 77, 84
1, 40076, Note_on_c, 0, 81, 0
1, 40137, Note_on_c, 0, 77, 0
1, 40139, Note_on_c, 0, 72, 71
1, 40313, Note_on_c, 0, 69, 66
1, 40314, Note_on_c, 0, 72, 0
1, 40370, Note_on_c, 0, 69, 0
1, 40378, Note_on_c, 0, 72, 67
1, 40398, Note_on_c, 1, 60, 56
1, 40405, Note_on_c, 1, 55, 43
1, 40406, Note_on_c, 1, 52, 47
1, 40731, Note_on_c, 0, 71, 66
1, 40771, Note_on_c, 0, 72, 0
1, 40808, Note_on_c, 1, 55, 0
1, 40811, Note_on_c, 1, 52, 0
1, 40818, Note_on_c, 1, 60, 0
1, 40874, Note_on_c, 0, 71, 0
1, 40875, Note_on_c, 0, 70, 46
1, 41069, Note_on_c, 0, 70, 0
1, 41109, Note_on_c, 1, 46, 56
1, 41112, Note_on_c, 0, 64, 56
1, 41112, Note_on_c, 1, 58, 62
1, 41114, Note_on_c, 0, 67, 64
1, 41234, Note_on_c, 1, 58, 0
1, 41306, Note_on_c, 0, 60, 63
1, 41308, Note_on_c, 0, 64, 0
1, 41308, Note_on_c, 1, 46, 0
1, 41322, Note_on_c, 0, 67, 0
1, 41352, Note_on_c, 0, 60, 0
1, 41363, Note_on_c, 0, 69, 62
1, 41372, Note_on_c, 0, 65, 53
1, 41374, Note_on_c, 1, 57, 64
1, 41378, Note_on_c, 1, 45, 55
1, 41432, Note_on_c, 0, 65, 0
1, 41527, Note_on_c, 0, 60, 56
1, 41587, Note_on_c, 0, 69, 0
1, 41591, Note_on_c, 1, 57, 0
1, 41595, Note_on_c, 1, 45, 0
1, 41596, Note_on_c, 0, 60, 0
1, 41602, Note_on_c, 0, 70, 64
1, 41602, Note_on_c, 0, 67, 57
1, 41613, Note_on_c, 1, 55, 62
1, 41621, Note_on_c, 1, 43, 55
1, 41774, Note_on_c, 0, 60, 55
1, 41784, Note_on_c, 0, 67, 0
1, 41801, Note_on_c, 0, 70, 0
1, 41846, Note_on_c, 1, 43, 0
1, 41854, Note_on_c, 0, 72, 66
1, 41856, Note_on_c, 0, 69, 62
1, 41857, Note_on_c, 1, 55, 0
1, 41862, Note_on_c, 1, 53, 64
1, 41871, Note_on_c, 1, 41, 51
1, 41873, Note_on_c, 0, 60, 0
1, 41986, Note_on_c, 0, 74, 56
1, 41999, Note_on_c, 1, 41, 0
1, 42009, Note_on_c, 1, 53, 0
1, 42019, Note_on_c, 0, 72, 0
1, 42101, Note_on_c, 0, 74, 0
1, 42101, Note_on_c, 0, 76, 55
1, 42196, Note_on_c, 0, 76, 0
1, 42214, Note_on_c, 0, 77, 62
1, 42225, Note_on_c, 0, 69, 0
1, 42346, Note_on_c, 0, 65, 66
1, 42349, Note_on_c, 0, 60, 45
1, 42352, Note_on_c, 1, 57, 55
1, 42359, Note_on_c, 1, 48, 40
1, 42371, Note_on_c, 0, 77, 0
1, 42849, Note_on_c, 1, 58, 43
1, 42882, Note_on_c, 1, 57, 0
1, 43035, Note_on_c, 0, 65, 0
1, 43045, Note_on_c, 0, 60, 0
1, 43098, Note_on_c, 0, 69, 36
1, 43103, Note_on_c, 0, 64, 45
1, 43218, Note_on_c, 0, 67, 41
1, 43233, Note_on_c, 0, 69, 0
1, 43249, Note_on_c, 0, 64, 0
1, 43351, Note_on_c, 0, 65, 48
1, 43351, Note_on_c, 1, 57, 50
1, 43351, Note_on_c, 1, 53, 20
1, 43380, Note_on_c, 1, 48, 0
1, 43383, Note_on_c, 1, 58, 0
1, 43393, Note_on_c, 0, 67, 0
1, 43851, Note_on_c, 1, 57, 0
1, 43854, Note_on_c, 1, 41, 35
1, 43863, Note_on_c, 0, 65, 0
1, 43902, Note_on_c, 1, 53, 0
1, 44114, Note_on_c, 0, 72, 50
1, 44125, Note_on_c, 1, 41, 0
1, 44372, Note_on_c, 0, 72, 0
1, 44377, Note_on_c, 0, 74, 45
1, 44491, Note_on_c, 0, 72, 63
1, 44519, Note_on_c, 0, 74, 0
1, 44611, Note_on_c, 0, 72, 0
1, 44622, Note_on_c, 0, 70, 62
1, 44734, Note_on_c, 0, 69, 67
1, 44736, Note_on_c, 0, 70, 0
1, 44875, Note_on_c, 1, 63, 63
1, 44878, Note_on_c, 0, 67, 67
1, 44883, Note_on_c, 0, 69, 0
1, 44883, Note_on_c, 1, 60, 42
1, 45379, Note_on_c, 0, 66, 25
1, 45396, Note_on_c, 0, 67, 0
1, 45462, Note_on_c, 1, 63, 0
1, 45464, Note_on_c, 1, 60, 0
1, 45590, Note_on_c, 0, 66, 0
1, 45636, Note_on_c, 0, 66, 58
1, 45639, Note_on_c, 1, 63, 37
1, 45647, Note_on_c, 1, 60, 28
1, 45877, Note_on_c, 0, 66, 0
1, 45879, Note_on_c, 1, 63, 0
1, 45890, Note_on_c, 0, 67, 64
1, 45890, Note_on_c, 1, 60, 0
1, 45891, Note_on_c, 1, 62, 60
1, 45906, Note_on_c, 1, 58, 26
1, 46102, Note_on_c, 1, 62, 0
1, 46134, Note_on_c, 0, 69, 79
1, 46140, Note_on_c, 0, 66, 62
1, 46140, Note_on_c, 1, 62, 56
1, 46142, Note_on_c, 0, 67, 0
1, 46143, Note_on_c, 1, 57, 43
1, 46148, Note_on_c, 1, 60, 48
1, 46149, Note_on_c, 1, 58, 0
1, 46340, Note_on_c, 1, 60, 0
1, 46341, Note_on_c, 1, 62, 0
1, 46344, Note_on_c, 0, 66, 0
1, 46364, Note_on_c, 0, 69, 0
1, 46394, Note_on_c, 0, 69, 69
1, 46395, Note_on_c, 1, 62, 37
1, 46396, Note_on_c, 0, 66, 64
1, 46398, Note_on_c, 1, 60, 46
1, 46400, Note_on_c, 1, 55, 56
1, 46418, Note_on_c, 1, 57, 0
1, 46910, Note_on_c, 0, 66, 0
1, 46911, Note_on_c, 0, 67, 41
1, 46911, Note_on_c, 1, 58, 33
1, 46912, Note_on_c, 0, 69, 0
1, 46912, Note_on_c, 0, 70, 33
1, 46918, Note_on_c, 1, 60, 0
1, 47045, Note_on_c, 1, 62, 0
1, 47045, Note_on_c, 1, 55, 0
1, 47054, Note_on_c, 1, 58, 0
1, 47174, Note_on_c, 0, 67, 0
1, 47184, Note_on_c, 0, 64, 56
1, 47184, Note_on_c, 1, 61, 55
1, 47186, Note_on_c, 0, 70, 0
1, 47198, Note_on_c, 1, 58, 20
1, 47362, Note_on_c, 1, 61, 0
1, 47363, Note_on_c, 1, 58, 0
1, 47422, Note_on_c, 0, 65, 56
1, 47431, Note_on_c, 0, 64, 0
1, 47444, Note_on_c, 1, 60, 58
1, 47455, Note_on_c, 1, 57, 36
1, 47630, Note_on_c, 1, 60, 0
1, 47666, Note_on_c, 0, 64, 58
1, 47669, Note_on_c, 0, 65, 0
1, 47669, Note_on_c, 1, 57, 0
1, 47670, Note_on_c, 0, 67, 63
1, 47678, Note_on_c, 1, 60, 56
1, 47681, Note_on_c, 1, 58, 55
1, 47684, Note_on_c, 1, 55, 42
1, 47834, Note_on_c, 0, 64, 0
1, 47872, Note_on_c, 1, 60, 0
1, 47881, Note_on_c, 1, 58, 0
1, 47885, Note_on_c, 0, 67, 0
1, 47888, Note_on_c, 1, 55, 0
1, 47915, Note_on_c, 1, 60, 56
1, 47918, Note_on_c, 0, 69, 67
1, 47920, Note_on_c, 0, 65, 63
1, 47920, Note_on_c, 1, 57, 52
1, 47922, Note_on_c, 1, 53, 31
1, 48171, Note_on_c, 1, 50, 61
1, 48176, Note_on_c, 0, 70, 64
1, 48186, Note_on_c, 1, 53, 0
1, 48188, Note_on_c, 0, 69, 0
1, 48188, Note_on_c, 1, 60, 0
1, 48189, Note_on_c, 1, 57, 0
1, 48350, Note_on_c, 1, 50, 0
1, 48400, Note_on_c, 0, 70, 0
1, 48420, Note_on_c, 0, 72, 68
1, 48427, Note_on_c, 1, 45, 64
1, 48667, Note_on_c, 0, 73, 57
1, 48670, Note_on_c, 0, 72, 0
1, 48910, Note_on_c, 0, 73, 0
1, 48924, Note_on_c, 1, 46, 38
1, 48932, Note_on_c, 0, 76, 63
1, 48948, Note_on_c, 1, 45, 0
1, 49052, Note_on_c, 0, 65, 0
1, 49070, Note_on_c, 0, 74, 68
1, 49080, Note_on_c, 0, 76, 0
1, 49190, Note_on_c, 1, 46, 0
1, 49194, Note_on_c, 1, 43, 29
1, 49214, Note_on_c, 0, 72, 61
1, 49215, Note_on_c, 0, 67, 52
1, 49234, Note_on_c, 0, 74, 0
1, 49312, Note_on_c, 1, 43, 0
1, 49333, Note_on_c, 0, 72, 0
1, 49341, Note_on_c, 0, 70, 58
1, 49469, Note_on_c, 0, 70, 0
1, 49493, Note_on_c, 1, 48, 56
1, 49503, Note_on_c, 0, 67, 0
1, 49504, Note_on_c, 0, 69, 64
1, 49520, Note_on_c, 0, 65, 17
1, 49920, Note_on_c, 0, 65, 0
1, 49990, Note_on_c, 0, 64, 38
1, 49990, Note_on_c, 0, 67, 26
1, 50003, Note_on_c, 0, 69, 0
1, 50217, Note_on_c, 1, 48, 0
1, 50249, Note_on_c, 0, 72, 34
1, 50261, Note_on_c, 0, 67, 0
1, 50267, Note_on_c, 0, 64, 0
1, 50492, Note_on_c, 0, 72, 0
1, 50534, Note_on_c, 0, 72, 79
1, 50753, Note_on_c, 0, 72, 0
1, 50797, Note_on_c, 0, 72, 84
1, 51025, Note_on_c, 0, 72, 0
1, 51066, Note_on_c, 1, 48, 62
1, 51067, Note_on_c, 0, 72, 71
1, 51067, Note_on_c, 0, 82, 73
1, 51068, Note_on_c, 1, 36, 64
1, 51453, Note_on_c, 1, 38, 62
1, 51456, Note_on_c, 1, 50, 60
1, 51469, Note_on_c, 1, 48, 0
1, 51473, Note_on_c, 1, 36, 0
1, 51580, Note_on_c, 1, 38, 0
1, 51580, Note_on_c, 1, 50, 0
1, 51599, Note_on_c, 1, 52, 64
1, 51606, Note_on_c, 1, 40, 55
1, 51796, Note_on_c, 0, 82, 0
1, 51838, Note_on_c, 1, 52, 0
1, 51841, Note_on_c, 1, 41, 55
1, 51841, Note_on_c, 1, 53, 33
1, 51852, Note_on_c, 1, 40, 0
1, 51858, Note_on_c, 0, 81, 53
1, 52110, Note_on_c, 1, 55, 55
1, 52111, Note_on_c, 1, 43, 51
1, 52112, Note_on_c, 0, 79, 52
1, 52113, Note_on_c, 0, 70, 28
1, 52127, Note_on_c, 1, 53, 0
1, 52128, Note_on_c, 1, 41, 0
1, 52133, Note_on_c, 0, 72, 0
1, 52148, Note_on_c, 0, 81, 0
1, 52365, Note_on_c, 0, 79, 0
1, 52367, Note_on_c, 0, 69, 35
1, 52367, Note_on_c, 0, 77, 51
1, 52368, Note_on_c, 0, 70, 0
1, 52373, Note_on_c, 1, 57, 60
1, 52374, Note_on_c, 1, 45, 58
1, 52385, Note_on_c, 1, 55, 0
1, 52394, Note_on_c, 1, 43, 0
1, 52558, Note_on_c, 0, 77, 0
1, 52653, Note_on_c, 1, 58, 56
1, 52662, Note_on_c, 1, 46, 43
1, 52672, Note_on_c, 1, 45, 0
1, 52681, Note_on_c, 1, 57, 0
1, 52685, Note_on_c, 0, 72, 52
1, 52690, Note_on_c, 0, 67, 46
1, 52694, Note_on_c, 0, 77, 24
1, 52715, Note_on_c, 0, 69, 0
1, 53272, Note_on_c, 0, 76, 25
1, 53296, Note_on_c, 0, 77, 0
1, 53400, Note_on_c, 0, 72, 0
1, 53559, Note_on_c, 1, 58, 0
1, 53568, Note_on_c, 0, 75, 40
1, 53574, Note_on_c, 0, 67, 0
1, 53584, Note_on_c, 1, 46, 0
1, 53593, Note_on_c, 0, 76, 0
1, 53840, Note_on_c, 0, 75, 0
1, 53872, Note_on_c, 0, 75, 50
1, 54084, Note_on_c, 0, 75, 0
1, 54122, Note_on_c, 0, 75, 51
1, 54360, Note_on_c, 0, 77, 60
1, 54362, Note_on_c, 0, 75, 0
1, 54383, Note_on_c, 1, 65, 45
1, 54384, Note_on_c, 1, 57, 47
1, 54385, Note_on_c, 1, 60, 42
1, 54402, Note_on_c, 0, 75, 48
1, 54403, Note_on_c, 0, 77, 0
1, 54446, Note_on_c, 0, 77, 68
1, 54449, Note_on_c, 0, 75, 0
1, 54473, Note_on_c, 0, 77, 0
1, 54482, Note_on_c, 0, 75, 53
1, 54514, Note_on_c, 0, 77, 68
1, 54515, Note_on_c, 0, 75, 0
1, 54546, Note_on_c, 0, 75, 62
1, 54562, Note_on_c, 0, 77, 0
1, 54580, Note_on_c, 0, 74, 62
1, 54588, Note_on_c, 0, 75, 0
1, 54627, Note_on_c, 0, 75, 73
1, 54632, Note_on_c, 0, 74, 0
1, 54735, Note_on_c, 0, 77, 62
1, 54746, Note_on_c, 0, 75, 0
1, 54785, Note_on_c, 1, 60, 0
1, 54788, Note_on_c, 1, 65, 0
1, 54806, Note_on_c, 1, 57, 0
1, 54863, Note_on_c, 1, 57, 41
1, 54863, Note_on_c, 1, 65, 42
1, 54864, Note_on_c, 1, 60, 38
1, 54869, Note_on_c, 0, 79, 55
1, 54884, Note_on_c, 0, 77, 0
1, 55116, Note_on_c, 0, 79, 0
1, 55116, Note_on_c, 0, 77, 53
1, 55250, Note_on_c, 0, 75, 45
1, 55257, Note_on_c, 1, 60, 0
1, 55284, Note_on_c, 0, 77, 0
1, 55290, Note_on_c, 1, 65, 0
1, 55292, Note_on_c, 1, 57, 0
1, 55333, Note_on_c, 0, 75, 0
1, 55376, Note_on_c, 0, 75, 51
1, 55386, Note_on_c, 1, 65, 37
1, 55390, Note_on_c, 1, 57, 30
1, 55391, Note_on_c, 1, 63, 45
1, 55499, Note_on_c, 0, 75, 0
1, 55504, Note_on_c, 0, 74, 34
1, 55576, Note_on_c, 0, 74, 0
1, 55617, Note_on_c, 0, 74, 62
1, 55746, Note_on_c, 0, 74, 0
1, 55748, Note_on_c, 0, 73, 60
1, 55790, Note_on_c, 1, 63, 0
1, 55798, Note_on_c, 1, 65, 0
1, 55826, Note_on_c, 1, 57, 0
1, 55839, Note_on_c, 0, 73, 0
1, 55880, Note_on_c, 0, 73, 64
1, 55898, Note_on_c, 1, 65, 50
1, 55898, Note_on_c, 1, 62, 42
1, 55900, Note_on_c, 1, 58, 38
1, 56360, Note_on_c, 0, 74, 33
1, 56380, Note_on_c, 0, 73, 0
1, 56601, Note_on_c, 0, 77, 55
1, 56634, Note_on_c, 0, 74, 0
1, 56642, Note_on_c, 1, 58, 0
1, 56652, Note_on_c, 1, 62, 0
1, 56655, Note_on_c, 1, 65, 0
1, 56727, Note_on_c, 0, 76, 67
1, 56744, Note_on_c, 0, 77, 0
1, 56845, Note_on_c, 0, 79, 66
1, 56847, Note_on_c, 0, 76, 0
1, 56963, Note_on_c, 0, 77, 68
1, 56983, Note_on_c, 0, 79, 0
1, 57084, Note_on_c, 0, 76, 79
1, 57086, Note_on_c, 0, 77, 0
1, 57201, Note_on_c, 0, 74, 67
1, 57205, Note_on_c, 0, 76, 0
1, 57306, Note_on_c, 0, 74, 0
1, 57354, Note_on_c, 0, 74, 31
1, 57360, Note_on_c, 1, 53, 31
1, 57362, Note_on_c, 1, 58, 30
1, 57364, Note_on_c, 1, 62, 36
1, 57706, Note_on_c, 1, 62, 0
1, 57722, Note_on_c, 1, 58, 0
1, 57856, Note_on_c, 0, 72, 26
1, 57866, Note_on_c, 0, 74, 0
1, 57869, Note_on_c, 1, 57, 9
1, 57872, Note_on_c, 1, 60, 20
1, 58110, Note_on_c, 0, 77, 67
1, 58121, Note_on_c, 0, 72, 0
1, 58300, Note_on_c, 0, 72, 50
1, 58302, Note_on_c, 1, 57, 0
1, 58310, Note_on_c, 0, 77, 0
1, 58316, Note_on_c, 1, 60, 0
1, 58329, Note_on_c, 1, 53, 0
1, 58363, Note_on_c, 0, 81, 64
1, 58518, Note_on_c, 0, 81, 0
1, 58563, Note_on_c, 0, 77, 68
1, 58576, Note_on_c, 0, 72, 0
1, 58624, Note_on_c, 0, 77, 0
1, 58634, Note_on_c, 0, 72, 64
1, 58825, Note_on_c, 0, 72, 0
1, 58829, Note_on_c, 0, 69, 47
1, 58911, Note_on_c, 0, 72, 58
1, 58916, Note_on_c, 1, 60, 43
1, 58916, Note_on_c, 1, 55, 21
1, 58920, Note_on_c, 0, 69, 0
1, 58923, Note_on_c, 1, 52, 26
1, 59342, Note_on_c, 0, 71, 34
1, 59378, Note_on_c, 0, 72, 0
1, 59480, Note_on_c, 0, 71, 0
1, 59482, Note_on_c, 0, 70, 46
1, 59558, Note_on_c, 1, 55, 0
1, 59566, Note_on_c, 1, 52, 0
1, 59575, Note_on_c, 1, 60, 0
1, 59788, Note_on_c, 0, 70, 0
1, 59788, Note_on_c, 0, 67, 66
1, 59792, Note_on_c, 1, 46, 50
1, 59792, Note_on_c, 1, 58, 53
1, 59794, Note_on_c, 0, 64, 58
1, 60005, Note_on_c, 0, 64, 0
1, 60005, Note_on_c, 0, 60, 47
1, 60010, Note_on_c, 0, 67, 0
1, 60052, Note_on_c, 0, 60, 0
1, 60060, Note_on_c, 1, 58, 0
1, 60068, Note_on_c, 0, 69, 64
1, 60075, Note_on_c, 0, 65, 63
1, 60083, Note_on_c, 1, 45, 56
1, 60084, Note_on_c, 1, 57, 63
1, 60091, Note_on_c, 1, 46, 0
1, 60273, Note_on_c, 0, 60, 56
1, 60284, Note_on_c, 0, 65, 0
1, 60302, Note_on_c, 0, 69, 0
1, 60306, Note_on_c, 1, 57, 0
1, 60316, Note_on_c, 1, 45, 0
1, 60318, Note_on_c, 0, 60, 0
1, 60336, Note_on_c, 0, 70, 68
1, 60344, Note_on_c, 0, 67, 62
1, 60348, Note_on_c, 1, 55, 62
1, 60351, Note_on_c, 1, 43, 53
1, 60545, Note_on_c, 0, 70, 0
1, 60553, Note_on_c, 0, 60, 61
1, 60564, Note_on_c, 0, 67, 0
1, 60584, Note_on_c, 1, 55, 0
1, 60587, Note_on_c, 1, 43, 0
1, 60629, Note_on_c, 0, 69, 60
1, 60629, Note_on_c, 0, 72, 62
1, 60638, Note_on_c, 0, 60, 0
1, 60638, Note_on_c, 1, 53, 62
1, 60642, Note_on_c, 1, 41, 34
1, 60787, Note_on_c, 0, 74, 57
1, 60799, Note_on_c, 0, 72, 0
1, 60906, Note_on_c, 0, 74, 0
1, 60918, Note_on_c, 0, 76, 55
1, 60943, Note_on_c, 1, 41, 0
1, 60976, Note_on_c, 1, 53, 0
1, 61021, Note_on_c, 0, 76, 0
1, 61039, Note_on_c, 0, 77, 62
1, 61195, Note_on_c, 0, 69, 0
1, 61196, Note_on_c, 0, 77, 0
1, 61200, Note_on_c, 0, 65, 35
1, 61200, Note_on_c, 1, 48, 42
1, 61200, Note_on_c, 1, 57, 42
1, 61204, Note_on_c, 0, 60, 33
1, 61776, Note_on_c, 1, 58, 42
1, 61813, Note_on_c, 1, 57, 0
1, 61981, Note_on_c, 0, 60, 0
1, 61982, Note_on_c, 0, 65, 0
1, 62026, Note_on_c, 0, 64, 40
1, 62027, Note_on_c, 0, 69, 34
1, 62167, Note_on_c, 0, 67, 56
1, 62170, Note_on_c, 0, 69, 0
1, 62208, Note_on_c, 0, 64, 0
1, 62238, Note_on_c, 1, 48, 0
1, 62295, Note_on_c, 1, 58, 0
1, 62312, Note_on_c, 0, 67, 0
1, 62340, Note_on_c, 0, 65, 52
1, 62340, Note_on_c, 1, 57, 27
1, 62340, Note_on_c, 1, 53, 46
1, 62840, Note_on_c, 1, 41, 27
1, 63022, Note_on_c, 0, 65, 0
1, 63120, Note_on_c, 0, 68, 30
1, 63120, Note_on_c, 0, 60, 36
1, 63138, Note_on_c, 1, 41, 0
1, 63191, Note_on_c, 1, 57, 0
1, 63196, Note_on_c, 1, 53, 0
1, 63350, Note_on_c, 0, 68, 0
1, 63359, Note_on_c, 0, 60, 0
1, 63360, Note_on_c, 0, 68, 53
1, 63360, Note_on_c, 0, 60, 55
1, 63582, Note_on_c, 0, 68, 0
1, 63585, Note_on_c, 0, 60, 0
1, 63600, Note_on_c, 0, 68, 62
1, 63600, Note_on_c, 0, 60, 56
1, 63811, Note_on_c, 0, 68, 0
1, 63811, Note_on_c, 0, 60, 0
1, 63840, Note_on_c, 0, 60, 58
1, 63840, Note_on_c, 0, 68, 61
1, 63840, Note_on_c, 1, 41, 33
1, 63960, Note_on_c, 1, 53, 56
1, 64078, Note_on_c, 1, 53, 0
1, 64080, Note_on_c, 1, 53, 30
1, 64198, Note_on_c, 1, 53, 0
1, 64200, Note_on_c, 1, 53, 20
1, 64318, Note_on_c, 1, 53, 0
1, 64320, Note_on_c, 1, 53, 30
1, 64396, Note_on_c, 0, 60, 0
1, 64438, Note_on_c, 1, 53, 0
1, 64440, Note_on_c, 1, 53, 26
1, 64558, Note_on_c, 1, 53, 0
1, 64560, Note_on_c, 0, 67, 55
1, 64560, Note_on_c, 0, 58, 38
1, 64560, Note_on_c, 1, 53, 16
1, 64628, Note_on_c, 0, 68, 0
1, 64678, Note_on_c, 1, 53, 0
1, 64680, Note_on_c, 1, 53, 17
1, 64770, Note_on_c, 0, 67, 0
1, 64774, Note_on_c, 0, 58, 0
1, 64798, Note_on_c, 1, 41, 0
1, 64798, Note_on_c, 1, 53, 0
1, 64800, Note_on_c, 0, 70, 58
1, 64800, Note_on_c, 0, 61, 55
1, 64800, Note_on_c, 1, 53, 45
1, 64918, Note_on_c, 1, 53, 0
1, 64920, Note_on_c, 1, 53, 28
1, 65038, Note_on_c, 0, 70, 0
1, 65038, Note_on_c, 0, 61, 0
1, 65038, Note_on_c, 1, 53, 0
1, 65040, Note_on_c, 0, 64, 57
1, 65040, Note_on_c, 0, 55, 46
1, 65040, Note_on_c, 1, 53, 26
1, 65158, Note_on_c, 1, 53, 0
1, 65160, Note_on_c, 1, 53, 28
1, 65278, Note_on_c, 0, 64, 0
1, 65278, Note_on_c, 0, 55, 0
1, 65278, Note_on_c, 1, 53, 0
1, 65280, Note_on_c, 0, 65, 43
1, 65280, Note_on_c, 0, 56, 26
1, 65280, Note_on_c, 1, 41, 45
1, 65400, Note_on_c, 1, 53, 55
1, 65518, Note_on_c, 1, 53, 0
1, 65520, Note_on_c, 1, 53, 23
1, 65638, Note_on_c, 1, 53, 0
1, 65640, Note_on_c, 1, 53, 33
1, 65758, Note_on_c, 1, 53, 0
1, 65760, Note_on_c, 1, 53, 26
1, 65878, Note_on_c, 1, 53, 0
1, 65880, Note_on_c, 1, 53, 34
1, 65998, Note_on_c, 0, 65, 0
1, 65998, Note_on_c, 0, 56, 0
1, 65998, Note_on_c, 1, 53, 0
1, 66000, Note_on_c, 0, 72, 35
1, 66000, Note_on_c, 0, 68, 35
1, 66000, Note_on_c, 1, 53, 25
1, 66118, Note_on_c, 1, 53, 0
1, 66120, Note_on_c, 1, 53, 33
1, 66238, Note_on_c, 0, 72, 0
1, 66238, Note_on_c, 0, 68, 0
1, 66238, Note_on_c, 1, 53, 0
1, 66240, Note_on_c, 0, 68, 56
1, 66240, Note_on_c, 0, 72, 53
1, 66240, Note_on_c, 1, 53, 33
1, 66358, Note_on_c, 1, 53, 0
1, 66360, Note_on_c, 1, 53, 28
1, 66478, Note_on_c, 0, 68, 0
1, 66478, Note_on_c, 0, 72, 0
1, 66478, Note_on_c, 1, 53, 0
1, 66480, Note_on_c, 0, 68, 66
1, 66480, Note_on_c, 0, 72, 68
1, 66480, Note_on_c, 1, 53, 26
1, 66598, Note_on_c, 1, 53, 0
1, 66600, Note_on_c, 1, 53, 18
1, 66718, Note_on_c, 0, 68, 0
1, 66718, Note_on_c, 0, 72, 0
1, 66718, Note_on_c, 1, 41, 0
1, 66718, Note_on_c, 1, 53, 0
1, 66720, Note_on_c, 0, 72, 64
1, 66720, Note_on_c, 0, 67, 57
1, 66720, Note_on_c, 1, 40, 63
1, 66840, Note_on_c, 1, 52, 50
1, 66958, Note_on_c, 1, 52, 0
1, 66960, Note_on_c, 1, 52, 26
1, 67078, Note_on_c, 1, 52, 0
1, 67080, Note_on_c, 1, 52, 20
1, 67198, Note_on_c, 1, 52, 0
1, 67200, Note_on_c, 1, 52, 32
1, 67318, Note_on_c, 1, 52, 0
1, 67320, Note_on_c, 1, 52, 21
1, 67438, Note_on_c, 0, 72, 0
1, 67438, Note_on_c, 0, 67, 0
1, 67438, Note_on_c, 1, 52, 0
1, 67440, Note_on_c, 0, 73, 68
1, 67440, Note_on_c, 1, 52, 26
1, 67558, Note_on_c, 1, 52, 0
1, 67560, Note_on_c, 1, 52, 12
1, 67678, Note_on_c, 0, 73, 0
1, 67678, Note_on_c, 1, 40, 0
1, 67678, Note_on_c, 1, 52, 0
1, 67680, Note_on_c, 0, 72, 57
1, 67680, Note_on_c, 1, 52, 27
1, 67798, Note_on_c, 1, 52, 0
1, 67800, Note_on_c, 1, 52, 24
1, 67918, Note_on_c, 0, 72, 0
1, 67918, Note_on_c, 1, 52, 0
1, 67920, Note_on_c, 0, 70, 32
1, 67920, Note_on_c, 1, 52, 22
1, 68038, Note_on_c, 1, 52, 0
1, 68040, Note_on_c, 1, 52, 23
1, 68158, Note_on_c, 0, 70, 0
1, 68158, Note_on_c, 1, 52, 0
1, 68160, Note_on_c, 0, 67, 47
1, 68160, Note_on_c, 0, 72, 55
1, 68160, Note_on_c, 1, 41, 28
1, 68278, Note_on_c, 0, 72, 0
1, 68280, Note_on_c, 0, 70, 64
1, 68280, Note_on_c, 1, 53, 42
1, 68398, Note_on_c, 0, 67, 0
1, 68398, Note_on_c, 0, 70, 0
1, 68398, Note_on_c, 1, 53, 0
1, 68400, Note_on_c, 0, 65, 21
1, 68400, Note_on_c, 0, 68, 25
1, 68400, Note_on_c, 1, 53, 23
1, 68518, Note_on_c, 1, 41, 0
1, 68518, Note_on_c, 1, 53, 0
1, 68520, Note_on_c, 1, 53, 25
1, 68638, Note_on_c, 0, 65, 0
1, 68638, Note_on_c, 0, 68, 0
1, 68638, Note_on_c, 1, 53, 0
1, 68640, Note_on_c, 1, 53, 42
1, 68758, Note_on_c, 1, 53, 0
1, 68880, Note_on_c, 0, 68, 47
1, 69118, Note_on_c, 0, 68, 0
1, 69120, Note_on_c, 0, 70, 61
1, 69358, Note_on_c, 0, 70, 0
1, 69360, Note_on_c, 0, 72, 68
1, 69598, Note_on_c, 0, 72, 0
1, 69600, Note_on_c, 0, 75, 64
1, 69838, Note_on_c, 0, 75, 0
1, 69840, Note_on_c, 0, 73, 50
1, 69840, Note_on_c, 1, 53, 45
1, 69840, Note_on_c, 1, 56, 36
1, 69840, Note_on_c, 1, 61, 35
1, 70078, Note_on_c, 0, 73, 0
1, 70078, Note_on_c, 1, 53, 0
1, 70078, Note_on_c, 1, 56, 0
1, 70078, Note_on_c, 1, 61, 0
1, 70080, Note_on_c, 1, 56, 31
1, 70080, Note_on_c, 1, 53, 41
1, 70080, Note_on_c, 1, 61, 42
1, 70318, Note_on_c, 1, 56, 0
1, 70318, Note_on_c, 1, 53, 0
1, 70318, Note_on_c, 1, 61, 0
1, 70320, Note_on_c, 0, 72, 62
1, 70320, Note_on_c, 1, 56, 53
1, 70320, Note_on_c, 1, 53, 55
1, 70320, Note_on_c, 1, 61, 55
1, 70438, Note_on_c, 0, 72, 0
1, 70440, Note_on_c, 0, 73, 42
1, 70498, Note_on_c, 0, 73, 0
1, 70558, Note_on_c, 1, 56, 0
1, 70558, Note_on_c, 1, 53, 0
1, 70558, Note_on_c, 1, 61, 0
1, 70560, Note_on_c, 0, 72, 80
1, 70560, Note_on_c, 1, 53, 46
1, 70560, Note_on_c, 1, 56, 30
1, 70560, Note_on_c, 1, 61, 31
1, 70678, Note_on_c, 0, 72, 0
1, 70680, Note_on_c, 0, 73, 39
1, 70738, Note_on_c, 0, 73, 0
1, 70798, Note_on_c, 1, 53, 0
1, 70798, Note_on_c, 1, 56, 0
1, 70798, Note_on_c, 1, 61, 0
1, 70800, Note_on_c, 0, 72, 84
1, 70800, Note_on_c, 1, 56, 46
1, 70800, Note_on_c, 1, 61, 50
1, 70800, Note_on_c, 1, 53, 56
1, 70918, Note_on_c, 0, 72, 0
1, 70920, Note_on_c, 0, 73, 47
1, 70978, Note_on_c, 0, 73, 0
1, 71030, Note_on_c, 0, 73, 64
1, 71038, Note_on_c, 1, 56, 0
1, 71038, Note_on_c, 1, 61, 0
1, 71038, Note_on_c, 1, 53, 0
1, 71040, Note_on_c, 1, 61, 61
1, 71040, Note_on_c, 1, 55, 52
1, 71040, Note_on_c, 1, 63, 51
1, 71040, Note_on_c, 1, 58, 45
1, 71170, Note_on_c, 0, 73, 0
1, 71176, Note_on_c, 0, 75, 58
1, 71209, Note_on_c, 0, 73, 52
1, 71225, Note_on_c, 0, 75, 0
1, 71233, Note_on_c, 0, 72, 56
1, 71234, Note_on_c, 0, 73, 0
1, 71272, Note_on_c, 0, 73, 68
1, 71285, Note_on_c, 0, 72, 0
1, 71365, Note_on_c, 0, 75, 68
1, 71378, Note_on_c, 0, 73, 0
1, 71472, Note_on_c, 0, 75, 0
1, 71490, Note_on_c, 0, 77, 71
1, 71998, Note_on_c, 1, 61, 0
1, 71998, Note_on_c, 1, 55, 0
1, 71998, Note_on_c, 1, 63, 0
1, 71998, Note_on_c, 1, 58, 0
1, 72132, Note_on_c, 0, 77, 0
1, 72224, Note_on_c, 0, 75, 47
1, 72350, Note_on_c, 0, 73, 33
1, 72358, Note_on_c, 0, 75, 0
1, 72466, Note_on_c, 0, 73, 0
1, 72470, Note_on_c, 0, 72, 45
1, 72480, Note_on_c, 1, 56, 52
1, 72599, Note_on_c, 0, 75, 27
1, 72636, Note_on_c, 0, 72, 0
1, 72712, Note_on_c, 0, 73, 52
1, 72718, Note_on_c, 1, 56, 0
1, 72720, Note_on_c, 1, 58, 50
1, 72720, Note_on_c, 1, 49, 32
1, 72729, Note_on_c, 0, 75, 0
1, 72826, Note_on_c, 0, 70, 55
1, 72844, Note_on_c, 0, 73, 0
1, 72953, Note_on_c, 0, 70, 0
1, 72956, Note_on_c, 0, 68, 41
1, 72958, Note_on_c, 1, 58, 0
1, 72958, Note_on_c, 1, 49, 0
1, 72960, Note_on_c, 1, 51, 33
1, 72960, Note_on_c, 1, 60, 47
1, 73438, Note_on_c, 1, 60, 0
1, 73440, Note_on_c, 1, 61, 47
1, 73659, Note_on_c, 0, 68, 0
1, 73660, Note_on_c, 0, 67, 51
1, 73663, Note_on_c, 0, 72, 56
1, 73752, Note_on_c, 0, 72, 0
1, 73778, Note_on_c, 0, 70, 55
1, 73915, Note_on_c, 0, 68, 28
1, 73917, Note_on_c, 0, 67, 0
1, 73918, Note_on_c, 1, 51, 0
1, 73918, Note_on_c, 1, 61, 0
1, 73920, Note_on_c, 1, 56, 36
1, 73920, Note_on_c, 1, 60, 27
1, 73935, Note_on_c, 0, 70, 0
1, 74398, Note_on_c, 1, 56, 0
1, 74398, Note_on_c, 1, 60, 0
1, 74400, Note_on_c, 1, 44, 35
1, 74435, Note_on_c, 0, 68, 0
1, 74638, Note_on_c, 1, 44, 0
1, 74640, Note_on_c, 0, 60, 42
1, 74640, Note_on_c, 0, 68, 23
1, 74878, Note_on_c, 0, 60, 0
1, 74878, Note_on_c, 0, 68, 0
1, 74880, Note_on_c, 0, 60, 34
1, 74880, Note_on_c, 0, 68, 32
1, 75118, Note_on_c, 0, 60, 0
1, 75118, Note_on_c, 0, 68, 0
1, 75120, Note_on_c, 0, 60, 27
1, 75120, Note_on_c, 0, 68, 25
1, 75358, Note_on_c, 0, 60, 0
1, 75358, Note_on_c, 0, 68, 0
1, 75360, Note_on_c, 0, 68, 56
1, 75360, Note_on_c, 0, 60, 37
1, 75360, Note_on_c, 1, 41, 30
1, 75480, Note_on_c, 1, 53, 42
1, 75598, Note_on_c, 1, 53, 0
1, 75600, Note_on_c, 1, 53, 27
1, 75718, Note_on_c, 1, 53, 0
1, 75720, Note_on_c, 1, 53, 31
1, 75838, Note_on_c, 1, 53, 0
1, 75840, Note_on_c, 1, 53, 24
1, 75958, Note_on_c, 1, 53, 0
1, 75960, Note_on_c, 1, 53, 27
1, 76078, Note_on_c, 0, 68, 0
1, 76078, Note_on_c, 0, 60, 0
1, 76078, Note_on_c, 1, 53, 0
1, 76080, Note_on_c, 0, 67, 58
1, 76080, Note_on_c, 0, 58, 32
1, 76080, Note_on_c, 1, 53, 22
1, 76198, Note_on_c, 1, 53, 0
1, 76200, Note_on_c, 1, 53, 25
1, 76318, Note_on_c, 0, 67, 0
1, 76318, Note_on_c, 0, 58, 0
1, 76318, Note_on_c, 1, 53, 0
1, 76320, Note_on_c, 0, 70, 67
1, 76320, Note_on_c, 0, 61, 52
1, 76320, Note_on_c, 1, 53, 28
1, 76438, Note_on_c, 1, 53, 0
1, 76440, Note_on_c, 1, 53, 34
1, 76558, Note_on_c, 0, 70, 0
1, 76558, Note_on_c, 0, 61, 0
1, 76558, Note_on_c, 1, 53, 0
1, 76560, Note_on_c, 0, 55, 30
1, 76560, Note_on_c, 0, 64, 51
1, 76560, Note_on_c, 1, 53, 23
1, 76678, Note_on_c, 1, 41, 0
1, 76678, Note_on_c, 1, 53, 0
1, 76680, Note_on_c, 1, 53, 22
1, 76798, Note_on_c, 0, 55, 0
1, 76798, Note_on_c, 0, 64, 0
1, 76798, Note_on_c, 1, 53, 0
1, 76800, Note_on_c, 0, 65, 51
1, 76800, Note_on_c, 0, 56, 26
1, 76800, Note_on_c, 1, 41, 30
1, 76920, Note_on_c, 1, 53, 42
1, 77038, Note_on_c, 1, 53, 0
1, 77040, Note_on_c, 1, 53, 27
1, 77158, Note_on_c, 1, 53, 0
1, 77160, Note_on_c, 1, 53, 31
1, 77278, Note_on_c, 1, 53, 0
1, 77280, Note_on_c, 1, 53, 24
1, 77398, Note_on_c, 1, 53, 0
1, 77400, Note_on_c, 1, 53, 27
1, 77518, Note_on_c, 0, 65, 0
1, 77518, Note_on_c, 0, 56, 0
1, 77518, Note_on_c, 1, 53, 0
1, 77520, Note_on_c, 0, 72, 33
1, 77520, Note_on_c, 0, 68, 35
1, 77520, Note_on_c, 1, 53, 22
1, 77638, Note_on_c, 1, 53, 0
1, 77640, Note_on_c, 1, 53, 25
1, 77758, Note_on_c, 0, 72, 0
1, 77758, Note_on_c, 0, 68, 0
1, 77758, Note_on_c, 1, 53, 0
1, 77760, Note_on_c, 0, 68, 60
1, 77760, Note_on_c, 0, 72, 61
1, 77760, Note_on_c, 1, 53, 28
1, 77878, Note_on_c, 1, 53, 0
1, 77880, Note_on_c, 1, 53, 34
1, 77998, Note_on_c, 0, 68, 0
1, 77998, Note_on_c, 0, 72, 0
1, 77998, Note_on_c, 1, 53, 0
1, 78000, Note_on_c, 0, 72, 68
1, 78000, Note_on_c, 0, 68, 66
1, 78000, Note_on_c, 1, 53, 23
1, 78118, Note_on_c, 1, 41, 0
1, 78118, Note_on_c, 1, 53, 0
1, 78120, Note_on_c, 1, 53, 22
1, 78238, Note_on_c, 0, 72, 0
1, 78238, Note_on_c, 0, 68, 0
1, 78238, Note_on_c, 1, 53, 0
1, 78240, Note_on_c, 0, 67, 76
1, 78240, Note_on_c, 0, 72, 71
1, 78240, Note_on_c, 1, 40, 30
1, 78360, Note_on_c, 1, 52, 42
1, 78478, Note_on_c, 1, 52, 0
1, 78480, Note_on_c, 1, 52, 27
1, 78598, Note_on_c, 1, 52, 0
1, 78600, Note_on_c, 1, 52, 31
1, 78718, Note_on_c, 1, 52, 0
1, 78720, Note_on_c, 1, 52, 24
1, 78838, Note_on_c, 1, 52, 0
1, 78840, Note_on_c, 1, 52, 27
1, 78958, Note_on_c, 0, 72, 0
1, 78958, Note_on_c, 1, 52, 0
1, 78960, Note_on_c, 0, 73, 57
1, 78960, Note_on_c, 1, 52, 22
1, 79078, Note_on_c, 1, 52, 0
1, 79080, Note_on_c, 1, 52, 25
1, 79198, Note_on_c, 0, 73, 0
1, 79198, Note_on_c, 1, 52, 0
1, 79200, Note_on_c, 0, 72, 45
1, 79200, Note_on_c, 1, 52, 28
1, 79318, Note_on_c, 1, 52, 0
1, 79320, Note_on_c, 1, 52, 34
1, 79438, Note_on_c, 0, 72, 0
1, 79438, Note_on_c, 1, 52, 0
1, 79440, Note_on_c, 0, 70, 62
1, 79440, Note_on_c, 1, 52, 23
1, 79558, Note_on_c, 1, 40, 0
1, 79558, Note_on_c, 1, 52, 0
1, 79560, Note_on_c, 1, 52, 22
1, 79678, Note_on_c, 0, 67, 0
1, 79678, Note_on_c, 0, 70, 0
1, 79678, Note_on_c, 1, 52, 0
1, 79680, Note_on_c, 0, 67, 64
1, 79680, Note_on_c, 0, 72, 65
1, 79680, Note_on_c, 1, 41, 28
1, 79798, Note_on_c, 0, 72, 0
1, 79800, Note_on_c, 0, 70, 66
1, 79800, Note_on_c, 1, 53, 21
1, 79918, Note_on_c, 0, 67, 0
1, 79918, Note_on_c, 0, 70, 0
1, 79918, Note_on_c, 1, 53, 0
1, 79920, Note_on_c, 0, 65, 42
1, 79920, Note_on_c, 0, 68, 47
1, 79920, Note_on_c, 1, 53, 24
1, 80038, Note_on_c, 1, 53, 0
1, 80040, Note_on_c, 1, 53, 31
1, 80158, Note_on_c, 0, 65, 0
1, 80158, Note_on_c, 0, 68, 0
1, 80158, Note_on_c, 1, 53, 0
1, 80160, Note_on_c, 1, 53, 30
1, 80400, Note_on_c, 0, 68, 43
1, 80518, Note_on_c, 1, 41, 0
1, 80638, Note_on_c, 0, 68, 0
1, 80638, Note_on_c, 1, 53, 0
1, 80640, Note_on_c, 0, 70, 64
1, 80878, Note_on_c, 0, 70, 0
1, 80880, Note_on_c, 0, 72, 76
1, 81118, Note_on_c, 0, 72, 0
1, 81120, Note_on_c, 0, 75, 76
1, 81358, Note_on_c, 0, 75, 0
1, 81360, Note_on_c, 0, 73, 58
1, 81360, Note_on_c, 1, 61, 35
1, 81360, Note_on_c, 1, 56, 36
1, 81360, Note_on_c, 1, 53, 45
1, 81598, Note_on_c, 1, 61, 0
1, 81598, Note_on_c, 1, 56, 0
1, 81598, Note_on_c, 1, 53, 0
1, 81600, Note_on_c, 1, 61, 42
1, 81600, Note_on_c, 1, 53, 41
1, 81600, Note_on_c, 1, 56, 31
1, 81838, Note_on_c, 0, 73, 0
1, 81838, Note_on_c, 1, 61, 0
1, 81838, Note_on_c, 1, 53, 0
1, 81838, Note_on_c, 1, 56, 0
1, 81840, Note_on_c, 0, 72, 48
1, 81840, Note_on_c, 1, 61, 55
1, 81840, Note_on_c, 1, 53, 55
1, 81840, Note_on_c, 1, 56, 53
1, 81958, Note_on_c, 0, 72, 0
1, 81960, Note_on_c, 0, 73, 34
1, 82030, Note_on_c, 0, 73, 0
1, 82078, Note_on_c, 1, 61, 0
1, 82078, Note_on_c, 1, 53, 0
1, 82078, Note_on_c, 1, 56, 0
1, 82080, Note_on_c, 0, 72, 64
1, 82080, Note_on_c, 1, 61, 31
1, 82080, Note_on_c, 1, 56, 30
1, 82080, Note_on_c, 1, 53, 46
1, 82198, Note_on_c, 0, 72, 0
1, 82200, Note_on_c, 0, 73, 67
1, 82270, Note_on_c, 0, 73, 0
1, 82318, Note_on_c, 1, 61, 0
1, 82318, Note_on_c, 1, 56, 0
1, 82318, Note_on_c, 1, 53, 0
1, 82320, Note_on_c, 0, 72, 76
1, 82320, Note_on_c, 1, 53, 56
1, 82320, Note_on_c, 1, 61, 50
1, 82320, Note_on_c, 1, 56, 46
1, 82438, Note_on_c, 0, 72, 0
1, 82440, Note_on_c, 0, 73, 68
1, 82510, Note_on_c, 0, 73, 0
1, 82550, Note_on_c, 0, 73, 64
1, 82558, Note_on_c, 1, 53, 0
1, 82558, Note_on_c, 1, 61, 0
1, 82558, Note_on_c, 1, 56, 0
1, 82560, Note_on_c, 1, 58, 45
1, 82560, Note_on_c, 1, 63, 51
1, 82560, Note_on_c, 1, 55, 52
1, 82560, Note_on_c, 1, 61, 61
1, 82690, Note_on_c, 0, 73, 0
1, 82696, Note_on_c, 0, 75, 58
1, 82729, Note_on_c, 0, 73, 52
1, 82745, Note_on_c, 0, 75, 0
1, 82753, Note_on_c, 0, 72, 56
1, 82754, Note_on_c, 0, 73, 0
1, 82792, Note_on_c, 0, 73, 68
1, 82805, Note_on_c, 0, 72, 0
1, 82885, Note_on_c, 0, 75, 68
1, 82898, Note_on_c, 0, 73, 0
1, 82992, Note_on_c, 0, 75, 0
1, 83010, Note_on_c, 0, 77, 71
1, 83518, Note_on_c, 1, 58, 0
1, 83518, Note_on_c, 1, 63, 0
1, 83518, Note_on_c, 1, 55, 0
1, 83518, Note_on_c, 1, 61, 0
1, 83652, Note_on_c, 0, 77, 0
1, 83744, Note_on_c, 0, 75, 47
1, 83870, Note_on_c, 0, 73, 33
1, 83878, Note_on_c, 0, 75, 0
1, 83986, Note_on_c, 0, 73, 0
1, 83990, Note_on_c, 0, 72, 45
1, 84000, Note_on_c, 1, 56, 52
1, 84119, Note_on_c, 0, 75, 27
1, 84156, Note_on_c, 0, 72, 0
1, 84232, Note_on_c, 0, 73, 52
1, 84238, Note_on_c, 1, 56, 0
1, 84240, Note_on_c, 1, 49, 32
1, 84240, Note_on_c, 1, 58, 50
1, 84249, Note_on_c, 0, 75, 0
1, 84346, Note_on_c, 0, 70, 55
1, 84364, Note_on_c, 0, 73, 0
1, 84473, Note_on_c, 0, 70, 0
1, 84476, Note_on_c, 0, 68, 41
1, 84478, Note_on_c, 1, 49, 0
1, 84478, Note_on_c, 1, 58, 0
1, 84480, Note_on_c, 1, 60, 47
1, 84480, Note_on_c, 1, 51, 33
1, 84958, Note_on_c, 1, 60, 0
1, 84960, Note_on_c, 1, 61, 47
1, 85179, Note_on_c, 0, 68, 0
1, 85180, Note_on_c, 0, 67, 51
1, 85183, Note_on_c, 0, 72, 56
1, 85272, Note_on_c, 0, 72, 0
1, 85298, Note_on_c, 0, 70, 55
1, 85435, Note_on_c, 0, 68, 28
1, 85437, Note_on_c, 0, 67, 0
1, 85438, Note_on_c, 1, 51, 0
1, 85438, Note_on_c, 1, 61, 0
1, 85440, Note_on_c, 1, 60, 27
1, 85440, Note_on_c, 1, 56, 36
1, 85455, Note_on_c, 0, 70, 0
1, 85918, Note_on_c, 1, 60, 0
1, 85918, Note_on_c, 1, 56, 0
1, 85920, Note_on_c, 1, 44, 35
1, 85955, Note_on_c, 0, 68, 0
1, 86158, Note_on_c, 1, 44, 0
1, 86160, Note_on_c, 0, 63, 45
1, 86398, Note_on_c, 0, 63, 0
1, 86400, Note_on_c, 0, 68, 57
1, 86638, Note_on_c, 0, 68, 0
1, 86640, Note_on_c, 0, 72, 67
1, 86878, Note_on_c, 0, 72, 0
1, 86880, Note_on_c, 0, 75, 63
1, 87120, Note_on_c, 1, 56, 45
1, 87358, Note_on_c, 1, 56, 0
1, 87360, Note_on_c, 1, 60, 52
1, 87598, Note_on_c, 0, 75, 0
1, 87598, Note_on_c, 1, 60, 0
1, 87600, Note_on_c, 0, 73, 45
1, 87600, Note_on_c, 1, 63, 45
1, 87718, Note_on_c, 0, 73, 0
1, 87720, Note_on_c, 0, 72, 38
1, 87838, Note_on_c, 0, 72, 0
1, 87838, Note_on_c, 1, 63, 0
1, 87840, Note_on_c, 0, 70, 48
1, 87840, Note_on_c, 1, 53, 43
1, 88078, Note_on_c, 0, 70, 0
1, 88078, Note_on_c, 1, 53, 0
1, 88080, Note_on_c, 0, 68, 45
1, 88080, Note_on_c, 1, 62, 42
1, 88198, Note_on_c, 0, 68, 0
1, 88318, Note_on_c, 1, 62, 0
1, 88320, Note_on_c, 0, 72, 56
1, 88560, Note_on_c, 1, 51, 41
1, 88798, Note_on_c, 0, 72, 0
1, 88798, Note_on_c, 1, 51, 0
1, 88800, Note_on_c, 0, 70, 35
1, 88800, Note_on_c, 1, 55, 42
1, 89038, Note_on_c, 0, 70, 0
1, 89038, Note_on_c, 1, 55, 0
1, 89040, Note_on_c, 0, 60, 42
1, 89040, Note_on_c, 1, 58, 43
1, 89040, Note_on_c, 1, 52, 43
1, 89278, Note_on_c, 0, 60, 0
1, 89278, Note_on_c, 1, 58, 0
1, 89278, Note_on_c, 1, 52, 0
1, 89280, Note_on_c, 0, 65, 48
1, 89280, Note_on_c, 1, 56, 42
1, 89280, Note_on_c, 1, 53, 31
1, 89518, Note_on_c, 0, 65, 0
1, 89520, Note_on_c, 0, 68, 60
1, 89758, Note_on_c, 0, 68, 0
1, 89758, Note_on_c, 1, 56, 0
1, 89758, Note_on_c, 1, 53, 0
1, 89760, Note_on_c, 0, 72, 67
1, 90000, Note_on_c, 1, 49, 55
1, 90240, Note_on_c, 1, 53, 36
1, 90478, Note_on_c, 0, 72, 0
1, 90478, Note_on_c, 1, 53, 0
1, 90480, Note_on_c, 0, 70, 28
1, 90480, Note_on_c, 1, 56, 51
1, 90598, Note_on_c, 0, 70, 0
1, 90600, Note_on_c, 0, 68, 38
1, 90718, Note_on_c, 0, 68, 0
1, 90718, Note_on_c, 1, 56, 0
1, 90720, Note_on_c, 0, 67, 38
1, 90720, Note_on_c, 1, 58, 52
1, 90958, Note_on_c, 0, 67, 0
1, 90958, Note_on_c, 1, 58, 0
1, 90960, Note_on_c, 0, 65, 40
1, 90960, Note_on_c, 1, 59, 38
1, 91078, Note_on_c, 0, 65, 0
1, 91198, Note_on_c, 1, 49, 0
1, 91198, Note_on_c, 1, 59, 0
1, 91200, Note_on_c, 0, 68, 46
1, 91200, Note_on_c, 0, 65, 41
1, 91200, Note_on_c, 1, 60, 55
1, 91200, Note_on_c, 1, 48, 55
1, 91678, Note_on_c, 0, 68, 0
1, 91678, Note_on_c, 0, 65, 0
1, 91680, Note_on_c, 0, 67, 28
1, 91680, Note_on_c, 0, 64, 25
1, 91918, Note_on_c, 0, 67, 0
1, 91918, Note_on_c, 0, 64, 0
1, 91918, Note_on_c, 1, 60, 0
1, 91918, Note_on_c, 1, 48, 0
1, 91920, Note_on_c, 0, 72, 42
1, 92158, Note_on_c, 0, 72, 0
1, 92160, Note_on_c, 0, 77, 63
1, 92398, Note_on_c, 0, 77, 0
1, 92400, Note_on_c, 0, 80, 69
1, 92400, Note_on_c, 1, 44, 53
1, 92638, Note_on_c, 0, 80, 0
1, 92638, Note_on_c, 1, 44, 0
1, 92640, Note_on_c, 0, 79, 79
1, 92640, Note_on_c, 1, 46, 64
1, 92878, Note_on_c, 0, 79, 0
1, 92878, Note_on_c, 1, 46, 0
1, 92880, Note_on_c, 0, 77, 45
1, 92880, Note_on_c, 1, 58, 57
1, 93118, Note_on_c, 0, 77, 0
1, 93118, Note_on_c, 1, 58, 0
1, 93120, Note_on_c, 1, 59, 71
1, 93358, Note_on_c, 1, 59, 0
1, 93360, Note_on_c, 0, 72, 48
1, 93360, Note_on_c, 1, 60, 52
1, 93598, Note_on_c, 0, 72, 0
1, 93598, Note_on_c, 1, 60, 0
1, 93600, Note_on_c, 0, 77, 57
1, 93838, Note_on_c, 0, 77, 0
1, 93840, Note_on_c, 0, 80, 55
1, 93840, Note_on_c, 1, 48, 42
1, 94078, Note_on_c, 0, 80, 0
1, 94078, Note_on_c, 1, 48, 0
1, 94080, Note_on_c, 0, 79, 55
1, 94080, Note_on_c, 1, 49, 48
1, 94318, Note_on_c, 0, 79, 0
1, 94318, Note_on_c, 1, 49, 0
1, 94320, Note_on_c, 0, 77, 67
1, 94320, Note_on_c, 1, 61, 60
1, 94558, Note_on_c, 1, 61, 0
1, 94560, Note_on_c, 1, 63, 68
1, 94798, Note_on_c, 0, 77, 0
1, 94798, Note_on_c, 1, 63, 0
1, 94800, Note_on_c, 0, 75, 63
1, 94800, Note_on_c, 0, 72, 56
1, 94800, Note_on_c, 0, 77, 61
1, 94800, Note_on_c, 0, 69, 58
1, 94800, Note_on_c, 1, 60, 64
1, 94800, Note_on_c, 1, 48, 53
1, 95038, Note_on_c, 0, 75, 0
1, 95038, Note_on_c, 0, 72, 0
1, 95038, Note_on_c, 0, 77, 0
1, 95038, Note_on_c, 0, 69, 0
1, 95038, Note_on_c, 1, 60, 0
1, 95038, Note_on_c, 1, 48, 0
1, 95040, Note_on_c, 0, 77, 68
1, 95040, Note_on_c, 0, 75, 66
1, 95040, Note_on_c, 0, 69, 67
1, 95040, Note_on_c, 0, 72, 57
1, 95040, Note_on_c, 1, 57, 52
1, 95040, Note_on_c, 1, 45, 60
1, 95278, Note_on_c, 0, 77, 0
1, 95278, Note_on_c, 0, 75, 0
1, 95278, Note_on_c, 0, 69, 0
1, 95278, Note_on_c, 0, 72, 0
1, 95278, Note_on_c, 1, 57, 0
1, 95278, Note_on_c, 1, 45, 0
1, 95280, Note_on_c, 0, 77, 69
1, 95280, Note_on_c, 0, 75, 66
1, 95280, Note_on_c, 0, 69, 60
1, 95280, Note_on_c, 0, 72, 52
1, 95280, Note_on_c, 1, 53, 67
1, 95280, Note_on_c, 1, 41, 61
1, 95518, Note_on_c, 0, 77, 0
1, 95518, Note_on_c, 0, 75, 0
1, 95518, Note_on_c, 0, 69, 0
1, 95518, Note_on_c, 0, 72, 0
1, 95518, Note_on_c, 1, 53, 0
1, 95518, Note_on_c, 1, 41, 0
1, 95520, Note_on_c, 0, 73, 62
1, 95520, Note_on_c, 0, 77, 61
1, 95520, Note_on_c, 1, 46, 40
1, 95520, Note_on_c, 1, 58, 50
1, 95638, Note_on_c, 0, 73, 0
1, 95638, Note_on_c, 0, 77, 0
1, 95640, Note_on_c, 0, 70, 33
1, 95640, Note_on_c, 0, 73, 56
1, 95758, Note_on_c, 0, 70, 0
1, 95758, Note_on_c, 0, 73, 0
1, 95760, Note_on_c, 0, 70, 35
1, 95760, Note_on_c, 0, 73, 48
1, 95878, Note_on_c, 0, 70, 0
1, 95878, Note_on_c, 0, 73, 0
1, 95880, Note_on_c, 0, 70, 42
1, 95880, Note_on_c, 0, 67, 23
1, 95998, Note_on_c, 0, 70, 0
1, 95998, Note_on_c, 0, 67, 0
1, 95998, Note_on_c, 1, 46, 0
1, 95998, Note_on_c, 1, 58, 0
1, 96000, Note_on_c, 0, 68, 46
1, 96000, Note_on_c, 0, 65, 38
1, 96000, Note_on_c, 1, 48, 31
1, 96000, Note_on_c, 1, 60, 34
1, 96478, Note_on_c, 0, 68, 0
1, 96478, Note_on_c, 0, 65, 0
1, 96478, Note_on_c, 1, 48, 0
1, 96478, Note_on_c, 1, 60, 0
1, 96480, Note_on_c, 0, 64, 41
1, 96480, Note_on_c, 0, 68, 34
1, 96480, Note_on_c, 1, 48, 26
1, 96480, Note_on_c, 1, 58, 25
1, 96598, Note_on_c, 0, 68, 0
1, 96600, Note_on_c, 0, 67, 33
1, 96718, Note_on_c, 0, 67, 0
1, 96720, Note_on_c, 0, 65, 25
1, 96838, Note_on_c, 0, 65, 0
1, 96840, Note_on_c, 0, 67, 35
1, 96958, Note_on_c, 0, 64, 0
1, 96958, Note_on_c, 0, 67, 0
1, 96958, Note_on_c, 1, 48, 0
1, 96958, Note_on_c, 1, 58, 0
1, 96960, Note_on_c, 0, 65, 38
1, 96960, Note_on_c, 1, 56, 34
1, 96960, Note_on_c, 1, 53, 5
1, 97438, Note_on_c, 0, 65, 0
1, 97438, Note_on_c, 1, 56, 0
1, 97438, Note_on_c, 1, 53, 0
1, 97440, Note_on_c, 1, 41, 40
1, 97678, Note_on_c, 1, 41, 0
1, 97680, Note_on_c, 0, 68, 56
1, 97680, Note_on_c, 0, 60, 34
1, 97918, Note_on_c, 0, 68, 0
1, 97918, Note_on_c, 0, 60, 0
1, 97920, Note_on_c, 0, 68, 55
1, 97920, Note_on_c, 0, 60, 47
1, 98158, Note_on_c, 0, 68, 0
1, 98158, Note_on_c, 0, 60, 0
1, 98160, Note_on_c, 0, 60, 27
1, 98160, Note_on_c, 0, 68, 25
1, 98398, Note_on_c, 0, 60, 0
1, 98398, Note_on_c, 0, 68, 0
1, 98400, Note_on_c, 0, 68, 34
1, 98400, Note_on_c, 0, 60, 41
1, 98400, Note_on_c, 1, 41, 30
1, 98520, Note_on_c, 1, 53, 42
1, 98638, Note_on_c, 1, 53, 0
1, 98640, Note_on_c, 1, 53, 27
1, 98758, Note_on_c, 1, 53, 0
1, 98760, Note_on_c, 1, 53, 31
1, 98878, Note_on_c, 1, 53, 0
1, 98880, Note_on_c, 1, 53, 24
1, 98998, Note_on_c, 1, 53, 0
1, 99000, Note_on_c, 1, 53, 27
1, 99118, Note_on_c, 0, 68, 0
1, 99118, Note_on_c, 0, 60, 0
1, 99118, Note_on_c, 1, 53, 0
1, 99120, Note_on_c, 0, 58, 24
1, 99120, Note_on_c, 0, 67, 48
1, 99120, Note_on_c, 1, 53, 22
1, 99238, Note_on_c, 1, 53, 0
1, 99240, Note_on_c, 1, 53, 25
1, 99358, Note_on_c, 0, 58, 0
1, 99358, Note_on_c, 0, 67, 0
1, 99358, Note_on_c, 1, 53, 0
1, 99360, Note_on_c, 0, 70, 61
1, 99360, Note_on_c, 0, 61, 43
1, 99360, Note_on_c, 1, 53, 28
1, 99478, Note_on_c, 1, 53, 0
1, 99480, Note_on_c, 1, 53, 34
1, 99598, Note_on_c, 0, 70, 0
1, 99598, Note_on_c, 0, 61, 0
1, 99598, Note_on_c, 1, 53, 0
1, 99600, Note_on_c, 0, 55, 25
1, 99600, Note_on_c, 0, 64, 43
1, 99600, Note_on_c, 1, 53, 23
1, 99718, Note_on_c, 1, 41, 0
1, 99718, Note_on_c, 1, 53, 0
1, 99720, Note_on_c, 1, 53, 22
1, 99838, Note_on_c, 0, 55, 0
1, 99838, Note_on_c, 0, 64, 0
1, 99838, Note_on_c, 1, 53, 0
1, 99840, Note_on_c, 0, 65, 55
1, 99840, Note_on_c, 0, 56, 27
1, 99840, Note_on_c, 1, 41, 30
1, 99960, Note_on_c, 1, 53, 42
1, 100078, Note_on_c, 1, 53, 0
1, 100080, Note_on_c, 1, 53, 27
1, 100198, Note_on_c, 1, 53, 0
1, 100200, Note_on_c, 1, 53, 31
1, 100318, Note_on_c, 1, 53, 0
1, 100320, Note_on_c, 1, 53, 24
1, 100438, Note_on_c, 1, 53, 0
1, 100440, Note_on_c, 1, 53, 27
1, 100558, Note_on_c, 0, 65, 0
1, 100558, Note_on_c, 0, 56, 0
1, 100558, Note_on_c, 1, 53, 0
1, 100560, Note_on_c, 0, 72, 36
1, 100560, Note_on_c, 0, 68, 36
1, 100560, Note_on_c, 1, 53, 22
1, 100678, Note_on_c, 1, 53, 0
1, 100680, Note_on_c, 1, 53, 25
1, 100798, Note_on_c, 0, 72, 0
1, 100798, Note_on_c, 0, 68, 0
1, 100798, Note_on_c, 1, 53, 0
1, 100800, Note_on_c, 0, 72, 62
1, 100800, Note_on_c, 0, 68, 61
1, 100800, Note_on_c, 1, 53, 28
1, 100918, Note_on_c, 1, 53, 0
1, 100920, Note_on_c, 1, 53, 34
1, 101038, Note_on_c, 0, 72, 0
1, 101038, Note_on_c, 0, 68, 0
1, 101038, Note_on_c, 1, 53, 0
1, 101040, Note_on_c, 0, 72, 73
1, 101040, Note_on_c, 0, 68, 71
1, 101040, Note_on_c, 1, 53, 23
1, 101158, Note_on_c, 1, 41, 0
1, 101158, Note_on_c, 1, 53, 0
1, 101160, Note_on_c, 1, 53, 22
1, 101278, Note_on_c, 0, 72, 0
1, 101278, Note_on_c, 0, 68, 0
1, 101278, Note_on_c, 1, 53, 0
1, 101280, Note_on_c, 0, 64, 67
1, 101280, Note_on_c, 0, 68, 66
1, 101280, Note_on_c, 0, 72, 71
1, 101280, Note_on_c, 1, 41, 30
1, 101400, Note_on_c, 1, 53, 42
1, 101518, Note_on_c, 1, 53, 0
1, 101520, Note_on_c, 1, 53, 27
1, 101638, Note_on_c, 1, 53, 0
1, 101640, Note_on_c, 1, 53, 31
1, 101758, Note_on_c, 1, 53, 0
1, 101760, Note_on_c, 1, 53, 24
1, 101878, Note_on_c, 1, 53, 0
1, 101880, Note_on_c, 1, 53, 27
1, 101998, Note_on_c, 0, 68, 0
1, 101998, Note_on_c, 0, 72, 0
1, 101998, Note_on_c, 1, 53, 0
1, 102000, Note_on_c, 0, 70, 26
1, 102000, Note_on_c, 0, 67, 48
1, 102000, Note_on_c, 1, 53, 22
1, 102118, Note_on_c, 1, 53, 0
1, 102120, Note_on_c, 1, 53, 25
1, 102238, Note_on_c, 0, 64, 0
1, 102238, Note_on_c, 0, 70, 0
1, 102238, Note_on_c, 0, 67, 0
1, 102238, Note_on_c, 1, 53, 0
1, 102240, Note_on_c, 0, 70, 36
1, 102240, Note_on_c, 0, 73, 46
1, 102240, Note_on_c, 1, 53, 28
1, 102358, Note_on_c, 1, 53, 0
1, 102360, Note_on_c, 1, 53, 34
1, 102478, Note_on_c, 0, 70, 0
1, 102478, Note_on_c, 0, 73, 0
1, 102478, Note_on_c, 1, 53, 0
1, 102480, Note_on_c, 0, 64, 55
1, 102480, Note_on_c, 0, 60, 42
1, 102480, Note_on_c, 0, 58, 26
1, 102480, Note_on_c, 1, 53, 23
1, 102598, Note_on_c, 1, 41, 0
1, 102598, Note_on_c, 1, 53, 0
1, 102600, Note_on_c, 1, 53, 22
1, 102718, Note_on_c, 0, 64, 0
1, 102718, Note_on_c, 0, 60, 0
1, 102718, Note_on_c, 0, 58, 0
1, 102718, Note_on_c, 1, 53, 0
1, 102720, Note_on_c, 0, 60, 25
1, 102720, Note_on_c, 0, 56, 27
1, 102720, Note_on_c, 0, 65, 22
1, 102720, Note_on_c, 1, 53, 35
1, 103198, Note_on_c, 0, 60, 0
1, 103198, Note_on_c, 0, 56, 0
1, 103198, Note_on_c, 0, 65, 0
1, 103198, Note_on_c, 1, 53, 0
1, 103449, Note_on_c, 0, 72, 47
1, 103665, Note_on_c, 0, 72, 0
1, 103704, Note_on_c, 0, 72, 63
1, 103887, Note_on_c, 0, 72, 0
1, 103942, Note_on_c, 0, 72, 62
1, 104138, Note_on_c, 0, 72, 0
1, 104177, Note_on_c, 0, 72, 68
1, 104179, Note_on_c, 1, 60, 46
1, 104180, Note_on_c, 1, 53, 42
1, 104184, Note_on_c, 1, 57, 40
1, 104312, Note_on_c, 0, 74, 53
1, 104313, Note_on_c, 0, 72, 0
1, 104355, Note_on_c, 0, 72, 64
1, 104377, Note_on_c, 0, 74, 0
1, 104387, Note_on_c, 0, 71, 58
1, 104388, Note_on_c, 0, 72, 0
1, 104424, Note_on_c, 0, 72, 64
1, 104449, Note_on_c, 0, 71, 0
1, 104522, Note_on_c, 0, 72, 0
1, 104535, Note_on_c, 0, 77, 64
1, 104664, Note_on_c, 0, 72, 64
1, 104672, Note_on_c, 0, 77, 0
1, 104806, Note_on_c, 0, 72, 0
1, 104910, Note_on_c, 0, 69, 56
1, 104927, Note_on_c, 1, 57, 0
1, 104997, Note_on_c, 1, 60, 0
1, 105007, Note_on_c, 1, 53, 0
1, 105150, Note_on_c, 0, 72, 53
1, 105155, Note_on_c, 1, 58, 36
1, 105157, Note_on_c, 1, 48, 23
1, 105158, Note_on_c, 1, 55, 33
1, 105173, Note_on_c, 0, 69, 0
1, 105397, Note_on_c, 0, 64, 52
1, 105416, Note_on_c, 1, 58, 0
1, 105441, Note_on_c, 0, 72, 0
1, 105644, Note_on_c, 1, 48, 0
1, 105651, Note_on_c, 0, 67, 52
1, 105653, Note_on_c, 0, 64, 0
1, 105657, Note_on_c, 1, 50, 29
1, 105657, Note_on_c, 1, 58, 40
1, 105676, Note_on_c, 1, 55, 0
1, 106080, Note_on_c, 1, 50, 0
1, 106080, Note_on_c, 1, 58, 0
1, 106116, Note_on_c, 0, 67, 0
1, 106116, Note_on_c, 0, 65, 29
1, 106116, Note_on_c, 1, 57, 29
1, 106305, Note_on_c, 0, 65, 0
1, 106305, Note_on_c, 1, 57, 0
1, 106366, Note_on_c, 0, 60, 52
1, 106369, Note_on_c, 0, 65, 71
1, 106369, Note_on_c, 1, 45, 61
1, 106369, Note_on_c, 1, 57, 61
1, 106587, Note_on_c, 0, 67, 73
1, 106587, Note_on_c, 1, 43, 63
1, 106587, Note_on_c, 1, 55, 63
1, 106588, Note_on_c, 0, 65, 0
1, 106588, Note_on_c, 1, 45, 0
1, 106588, Note_on_c, 1, 57, 0
1, 106621, Note_on_c, 0, 60, 0
1, 106828, Note_on_c, 1, 41, 27
1, 106828, Note_on_c, 1, 53, 56
1, 106831, Note_on_c, 0, 69, 77
1, 106832, Note_on_c, 0, 60, 60
1, 106833, Note_on_c, 0, 65, 55
1, 106842, Note_on_c, 0, 67, 0
1, 106842, Note_on_c, 1, 43, 0
1, 106842, Note_on_c, 1, 55, 0
1, 107007, Note_on_c, 0, 65, 0
1, 107022, Note_on_c, 0, 69, 0
1, 107056, Note_on_c, 1, 53, 0
1, 107063, Note_on_c, 1, 41, 0
1, 107066, Note_on_c, 0, 60, 0
1, 107077, Note_on_c, 0, 65, 43
1, 107077, Note_on_c, 0, 70, 89
1, 107077, Note_on_c, 1, 50, 48
1, 107077, Note_on_c, 1, 62, 69
1, 107309, Note_on_c, 1, 58, 50
1, 107312, Note_on_c, 1, 46, 37
1, 107313, Note_on_c, 1, 62, 0
1, 107348, Note_on_c, 1, 50, 0
1, 107454, Note_on_c, 0, 72, 62
1, 107490, Note_on_c, 0, 70, 0
1, 107502, Note_on_c, 0, 74, 73
1, 107514, Note_on_c, 0, 72, 0
1, 107520, Note_on_c, 1, 46, 0
1, 107520, Note_on_c, 1, 58, 0
1, 107554, Note_on_c, 0, 72, 77
1, 107557, Note_on_c, 0, 74, 0
1, 107561, Note_on_c, 1, 57, 48
1, 107568, Note_on_c, 1, 45, 42
1, 107712, Note_on_c, 1, 45, 0
1, 107715, Note_on_c, 1, 57, 0
1, 107750, Note_on_c, 0, 65, 0
1, 107799, Note_on_c, 0, 72, 0
1, 107800, Note_on_c, 0, 65, 61
1, 108026, Note_on_c, 0, 64, 62
1, 108033, Note_on_c, 0, 59, 26
1, 108040, Note_on_c, 0, 65, 0
1, 108041, Note_on_c, 1, 50, 48
1, 108246, Note_on_c, 0, 65, 55
1, 108257, Note_on_c, 0, 64, 0
1, 108458, Note_on_c, 0, 65, 0
1, 108484, Note_on_c, 0, 69, 44
1, 108484, Note_on_c, 0, 65, 45
1, 108488, Note_on_c, 0, 59, 0
1, 108491, Note_on_c, 0, 60, 25
1, 108504, Note_on_c, 1, 48, 50
1, 108530, Note_on_c, 1, 50, 0
1, 108901, Note_on_c, 0, 65, 0
1, 108972, Note_on_c, 0, 67, 52
1, 108982, Note_on_c, 0, 64, 15
1, 109001, Note_on_c, 1, 48, 0
1, 109029, Note_on_c, 0, 69, 0
1, 109181, Note_on_c, 0, 64, 0
1, 109186, Note_on_c, 0, 67, 0
1, 109213, Note_on_c, 0, 60, 0
1, 109235, Note_on_c, 0, 67, 64
1, 109421, Note_on_c, 0, 67, 0
1, 109469, Note_on_c, 0, 67, 79
1, 109478, Note_on_c, 1, 64, 57
1, 109483, Note_on_c, 1, 60, 48
1, 109665, Note_on_c, 0, 67, 0
1, 109707, Note_on_c, 0, 67, 84
1, 109852, Note_on_c, 0, 67, 0
1, 109888, Note_on_c, 0, 67, 68
1, 109888, Note_on_c, 1, 64, 0
1, 109893, Note_on_c, 1, 60, 0
1, 109942, Note_on_c, 0, 79, 79
1, 109954, Note_on_c, 1, 65, 64
1, 109956, Note_on_c, 1, 62, 57
1, 109957, Note_on_c, 1, 59, 52
1, 110335, Note_on_c, 0, 74, 58
1, 110365, Note_on_c, 0, 67, 0
1, 110377, Note_on_c, 0, 79, 0
1, 110384, Note_on_c, 0, 71, 64
1, 110403, Note_on_c, 0, 74, 0
1, 110430, Note_on_c, 0, 67, 55
1, 110445, Note_on_c, 0, 71, 0
1, 110614, Note_on_c, 0, 67, 0
1, 110642, Note_on_c, 0, 67, 56
1, 110719, Note_on_c, 1, 65, 0
1, 110721, Note_on_c, 1, 59, 0
1, 110724, Note_on_c, 1, 62, 0
1, 110835, Note_on_c, 0, 67, 0
1, 110868, Note_on_c, 0, 67, 61
1, 110881, Note_on_c, 1, 64, 48
1, 110885, Note_on_c, 1, 60, 27
1, 111076, Note_on_c, 1, 64, 0
1, 111082, Note_on_c, 0, 67, 0
1, 111097, Note_on_c, 1, 60, 0
1, 111119, Note_on_c, 0, 67, 64
1, 111283, Note_on_c, 0, 67, 0
1, 111313, Note_on_c, 0, 67, 71
1, 111353, Note_on_c, 1, 59, 50
1, 111358, Note_on_c, 1, 50, 40
1, 111359, Note_on_c, 1, 53, 46
1, 111366, Note_on_c, 0, 79, 79
1, 111369, Note_on_c, 0, 67, 0
1, 111820, Note_on_c, 1, 60, 56
1, 111821, Note_on_c, 1, 55, 27
1, 111829, Note_on_c, 1, 52, 56
1, 111864, Note_on_c, 1, 59, 0
1, 111865, Note_on_c, 1, 50, 0
1, 111871, Note_on_c, 1, 53, 0
1, 111973, Note_on_c, 0, 81, 68
1, 111993, Note_on_c, 0, 79, 0
1, 112017, Note_on_c, 0, 83, 46
1, 112036, Note_on_c, 0, 81, 0
1, 112062, Note_on_c, 0, 84, 63
1, 112080, Note_on_c, 0, 83, 0
1, 112118, Note_on_c, 0, 84, 0
1, 112185, Note_on_c, 0, 83, 53
1, 112231, Note_on_c, 0, 83, 0
1, 112272, Note_on_c, 1, 52, 0
1, 112274, Note_on_c, 1, 60, 0
1, 112277, Note_on_c, 1, 55, 0
1, 112317, Note_on_c, 0, 81, 63
1, 112362, Note_on_c, 0, 81, 0
1, 112433, Note_on_c, 0, 79, 54
1, 112489, Note_on_c, 0, 79, 0
1, 112554, Note_on_c, 0, 77, 43
1, 112611, Note_on_c, 0, 77, 0
1, 112677, Note_on_c, 0, 76, 43
1, 112726, Note_on_c, 0, 76, 0
1, 112792, Note_on_c, 0, 73, 67
1, 112918, Note_on_c, 0, 73, 0
1, 112921, Note_on_c, 0, 74, 63
1, 113039, Note_on_c, 0, 77, 68
1, 113040, Note_on_c, 1, 57, 40
1, 113040, Note_on_c, 1, 62, 56
1, 113045, Note_on_c, 1, 53, 30
1, 113054, Note_on_c, 0, 74, 0
1, 113131, Note_on_c, 0, 77, 0
1, 113154, Note_on_c, 0, 81, 41
1, 113208, Note_on_c, 1, 62, 0
1, 113255, Note_on_c, 1, 57, 0
1, 113262, Note_on_c, 1, 53, 0
1, 113280, Note_on_c, 1, 60, 56
1, 113283, Note_on_c, 1, 64, 55
1, 113288, Note_on_c, 0, 72, 63
1, 113295, Note_on_c, 1, 55, 33
1, 113296, Note_on_c, 0, 81, 0
1, 113688, Note_on_c, 1, 60, 0
1, 113727, Note_on_c, 1, 64, 0
1, 113757, Note_on_c, 1, 62, 37
1, 113761, Note_on_c, 1, 65, 37
1, 113990, Note_on_c, 0, 76, 35
1, 113996, Note_on_c, 0, 71, 42
1, 114035, Note_on_c, 0, 72, 0
1, 114116, Note_on_c, 0, 74, 55
1, 114141, Note_on_c, 0, 76, 0
1, 114199, Note_on_c, 1, 65, 0
1, 114201, Note_on_c, 1, 62, 0
1, 114232, Note_on_c, 1, 55, 0
1, 114246, Note_on_c, 0, 72, 52
1, 114248, Note_on_c, 0, 72, 39
1, 114252, Note_on_c, 0, 71, 0
1, 114252, Note_on_c, 1, 60, 33
1, 114257, Note_on_c, 1, 60, 34
1, 114257, Note_on_c, 1, 64, 38
1, 114260, Note_on_c, 1, 64, 37
1, 114265, Note_on_c, 0, 74, 0
1, 114706, Note_on_c, 0, 72, 0
1, 114712, Note_on_c, 1, 48, 48
1, 114731, Note_on_c, 1, 48, 41
1, 114749, Note_on_c, 1, 60, 0
1, 114750, Note_on_c, 1, 64, 0
1, 114767, Note_on_c, 1, 60, 0
1, 114772, Note_on_c, 1, 64, 0
1, 114903, Note_on_c, 0, 72, 0
1, 114960, Note_on_c, 0, 72, 38
1, 114966, Note_on_c, 1, 48, 0
1, 114999, Note_on_c, 1, 48, 0
1, 115198, Note_on_c, 0, 72, 0
1, 115200, Note_on_c, 0, 74, 60
1, 115318, Note_on_c, 0, 74, 0
1, 115320, Note_on_c, 0, 72, 40
1, 115438, Note_on_c, 0, 72, 0
1, 115440, Note_on_c, 0, 70, 47
1, 115558, Note_on_c, 0, 70, 0
1, 115560, Note_on_c, 0, 69, 27
1, 115678, Note_on_c, 0, 69, 0
1, 115680, Note_on_c, 0, 67, 64
1, 115680, Note_on_c, 1, 63, 36
1, 115680, Note_on_c, 1, 60, 28
1, 116158, Note_on_c, 0, 67, 0
1, 116160, Note_on_c, 0, 66, 28
1, 116398, Note_on_c, 0, 66, 0
1, 116398, Note_on_c, 1, 63, 0
1, 116398, Note_on_c, 1, 60, 0
1, 116400, Note_on_c, 0, 66, 48
1, 116400, Note_on_c, 1, 60, 23
1, 116400, Note_on_c, 1, 63, 33
1, 116638, Note_on_c, 0, 66, 0
1, 116638, Note_on_c, 1, 60, 0
1, 116638, Note_on_c, 1, 63, 0
1, 116640, Note_on_c, 0, 67, 61
1, 116640, Note_on_c, 1, 62, 56
1, 116640, Note_on_c, 1, 58, 52
1, 116878, Note_on_c, 0, 67, 0
1, 116878, Note_on_c, 1, 62, 0
1, 116878, Note_on_c, 1, 58, 0
1, 116880, Note_on_c, 0, 66, 58
1, 116880, Note_on_c, 0, 69, 64
1, 116880, Note_on_c, 1, 62, 50
1, 116880, Note_on_c, 1, 57, 41
1, 116880, Note_on_c, 1, 60, 45
1, 117118, Note_on_c, 0, 66, 0
1, 117118, Note_on_c, 0, 69, 0
1, 117120, Note_on_c, 0, 69, 56
1, 117120, Note_on_c, 0, 66, 52
1, 117120, Note_on_c, 1, 62, 0
1, 117120, Note_on_c, 1, 57, 0
1, 117120, Note_on_c, 1, 60, 0
1, 117120, Note_on_c, 1, 60, 53
1, 117120, Note_on_c, 1, 55, 48
1, 117120, Note_on_c, 1, 62, 43
1, 117598, Note_on_c, 0, 69, 0
1, 117598, Note_on_c, 0, 66, 0
1, 117598, Note_on_c, 1, 60, 0
1, 117600, Note_on_c, 0, 70, 45
1, 117600, Note_on_c, 0, 67, 41
1, 117600, Note_on_c, 1, 58, 23
1, 117742, Note_on_c, 0, 70, 0
1, 117742, Note_on_c, 0, 67, 0
1, 117838, Note_on_c, 1, 55, 0
1, 117838, Note_on_c, 1, 62, 0
1, 117838, Note_on_c, 1, 58, 0
1, 117840, Note_on_c, 0, 64, 43
1, 117840, Note_on_c, 1, 61, 46
1, 117840, Note_on_c, 1, 58, 38
1, 118078, Note_on_c, 0, 64, 0
1, 118078, Note_on_c, 1, 61, 0
1, 118078, Note_on_c, 1, 58, 0
1, 118080, Note_on_c, 0, 65, 51
1, 118080, Note_on_c, 1, 60, 42
1, 118080, Note_on_c, 1, 57, 28
1, 118318, Note_on_c, 0, 65, 0
1, 118318, Note_on_c, 1, 60, 0
1, 118318, Note_on_c, 1, 57, 0
1, 118320, Note_on_c, 0, 64, 56
1, 118320, Note_on_c, 0, 67, 63
1, 118320, Note_on_c, 1, 55, 43
1, 118320, Note_on_c, 1, 60, 46
1, 118320, Note_on_c, 1, 58, 31
1, 118558, Note_on_c, 0, 64, 0
1, 118558, Note_on_c, 0, 67, 0
1, 118558, Note_on_c, 1, 55, 0
1, 118558, Note_on_c, 1, 60, 0
1, 118558, Note_on_c, 1, 58, 0
1, 118560, Note_on_c, 0, 65, 45
1, 118560, Note_on_c, 0, 69, 55
1, 118560, Note_on_c, 1, 60, 58
1, 118560, Note_on_c, 1, 57, 51
1, 118560, Note_on_c, 1, 53, 51
1, 118798, Note_on_c, 0, 69, 0
1, 118798, Note_on_c, 1, 60, 0
1, 118798, Note_on_c, 1, 57, 0
1, 118798, Note_on_c, 1, 53, 0
1, 118800, Note_on_c, 0, 70, 71
1, 118800, Note_on_c, 1, 50, 47
1, 119038, Note_on_c, 0, 70, 0
1, 119038, Note_on_c, 1, 50, 0
1, 119040, Note_on_c, 0, 72, 67
1, 119040, Note_on_c, 1, 45, 58
1, 119278, Note_on_c, 0, 72, 0
1, 119280, Note_on_c, 0, 73, 68
1, 119518, Note_on_c, 0, 65, 0
1, 119518, Note_on_c, 0, 73, 0
1, 119518, Note_on_c, 1, 45, 0
1, 119520, Note_on_c, 0, 76, 66
1, 119520, Note_on_c, 1, 46, 43
1, 119638, Note_on_c, 0, 76, 0
1, 119640, Note_on_c, 0, 74, 27
1, 119758, Note_on_c, 0, 74, 0
1, 119758, Note_on_c, 1, 46, 0
1, 119760, Note_on_c, 0, 67, 22
1, 119760, Note_on_c, 0, 72, 43
1, 119760, Note_on_c, 1, 43, 42
1, 119878, Note_on_c, 0, 72, 0
1, 119880, Note_on_c, 0, 70, 58
1, 119998, Note_on_c, 0, 67, 0
1, 119998, Note_on_c, 0, 70, 0
1, 119998, Note_on_c, 1, 43, 0
1, 120000, Note_on_c, 0, 69, 55
1, 120000, Note_on_c, 0, 65, 42
1, 120000, Note_on_c, 1, 48, 48
1, 120478, Note_on_c, 0, 69, 0
1, 120478, Note_on_c, 0, 65, 0
1, 120480, Note_on_c, 0, 67, 22
1, 120480, Note_on_c, 0, 64, 26
1, 120598, Note_on_c, 0, 67, 0
1, 120598, Note_on_c, 0, 64, 0
1, 120720, Note_on_c, 0, 72, 52
1, 120958, Note_on_c, 0, 72, 0
1, 120958, Note_on_c, 1, 48, 0
1, 120960, Note_on_c, 0, 72, 66
1, 121198, Note_on_c, 0, 72, 0
1, 121200, Note_on_c, 0, 72, 79
1, 121438, Note_on_c, 0, 72, 0
1, 121440, Note_on_c, 0, 72, 69
1, 121440, Note_on_c, 0, 82, 76
1, 121440, Note_on_c, 1, 36, 64
1, 121440, Note_on_c, 1, 48, 60
1, 121798, Note_on_c, 1, 36, 0
1, 121798, Note_on_c, 1, 48, 0
1, 121800, Note_on_c, 1, 50, 56
1, 121800, Note_on_c, 1, 38, 28
1, 121918, Note_on_c, 1, 50, 0
1, 121918, Note_on_c, 1, 38, 0
1, 121920, Note_on_c, 1, 52, 52
1, 121920, Note_on_c, 1, 40, 33
1, 122158, Note_on_c, 0, 82, 0
1, 122158, Note_on_c, 1, 52, 0
1, 122158, Note_on_c, 1, 40, 0
1, 122160, Note_on_c, 0, 81, 56
1, 122160, Note_on_c, 1, 53, 61
1, 122160, Note_on_c, 1, 41, 45
1, 122398, Note_on_c, 0, 72, 0
1, 122398, Note_on_c, 0, 81, 0
1, 122398, Note_on_c, 1, 53, 0
1, 122398, Note_on_c, 1, 41, 0
1, 122400, Note_on_c, 0, 79, 56
1, 122400, Note_on_c, 0, 70, 28
1, 122400, Note_on_c, 1, 55, 57
1, 122400, Note_on_c, 1, 43, 53
1, 122638, Note_on_c, 0, 79, 0
1, 122638, Note_on_c, 0, 70, 0
1, 122638, Note_on_c, 1, 55, 0
1, 122638, Note_on_c, 1, 43, 0
1, 122640, Note_on_c, 0, 77, 45
1, 122640, Note_on_c, 0, 69, 34
1, 122640, Note_on_c, 1, 57, 62
1, 122640, Note_on_c, 1, 45, 51
1, 122878, Note_on_c, 0, 77, 0
1, 122878, Note_on_c, 0, 69, 0
1, 122878, Note_on_c, 1, 57, 0
1, 122878, Note_on_c, 1, 45, 0
1, 122880, Note_on_c, 0, 72, 53
1, 122880, Note_on_c, 0, 67, 50
1, 122880, Note_on_c, 0, 77, 46
1, 122880, Note_on_c, 1, 58, 50
1, 122880, Note_on_c, 1, 46, 56
1, 123358, Note_on_c, 0, 77, 0
1, 123360, Note_on_c, 0, 76, 24
1, 123598, Note_on_c, 0, 76, 0
1, 123600, Note_on_c, 0, 75, 38
1, 123838, Note_on_c, 0, 72, 0
1, 123838, Note_on_c, 0, 67, 0
1, 123838, Note_on_c, 0, 75, 0
1, 123838, Note_on_c, 1, 58, 0
1, 123838, Note_on_c, 1, 46, 0
1, 123840, Note_on_c, 0, 75, 42
1, 124078, Note_on_c, 0, 75, 0
1, 124080, Note_on_c, 0, 75, 45
1, 124299, Note_on_c, 0, 77, 62
1, 124318, Note_on_c, 0, 75, 0
1, 124320, Note_on_c, 1, 65, 46
1, 124320, Note_on_c, 1, 60, 24
1, 124320, Note_on_c, 1, 57, 27
1, 124345, Note_on_c, 0, 75, 42
1, 124355, Note_on_c, 0, 77, 0
1, 124394, Note_on_c, 0, 77, 45
1, 124399, Note_on_c, 0, 75, 0
1, 124427, Note_on_c, 0, 75, 58
1, 124431, Note_on_c, 0, 77, 0
1, 124473, Note_on_c, 0, 75, 0
1, 124474, Note_on_c, 0, 77, 64
1, 124508, Note_on_c, 0, 75, 56
1, 124533, Note_on_c, 0, 77, 0
1, 124549, Note_on_c, 0, 74, 60
1, 124551, Note_on_c, 0, 75, 0
1, 124606, Note_on_c, 0, 75, 66
1, 124620, Note_on_c, 0, 74, 0
1, 124677, Note_on_c, 0, 77, 69
1, 124687, Note_on_c, 0, 75, 0
1, 124798, Note_on_c, 1, 65, 0
1, 124798, Note_on_c, 1, 60, 0
1, 124798, Note_on_c, 1, 57, 0
1, 124800, Note_on_c, 1, 65, 50
1, 124800, Note_on_c, 1, 57, 32
1, 124800, Note_on_c, 1, 60, 26
1, 124804, Note_on_c, 0, 79, 62
1, 124811, Note_on_c, 0, 77, 0
1, 125040, Note_on_c, 0, 77, 58
1, 125051, Note_on_c, 0, 79, 0
1, 125158, Note_on_c, 0, 77, 0
1, 125160, Note_on_c, 0, 75, 43
1, 125278, Note_on_c, 0, 75, 0
1, 125278, Note_on_c, 1, 65, 0
1, 125278, Note_on_c, 1, 57, 0
1, 125278, Note_on_c, 1, 60, 0
1, 125280, Note_on_c, 0, 75, 51
1, 125280, Note_on_c, 1, 57, 34
1, 125280, Note_on_c, 1, 65, 45
1, 125280, Note_on_c, 1, 63, 27
1, 125398, Note_on_c, 0, 75, 0
1, 125400, Note_on_c, 0, 74, 45
1, 125518, Note_on_c, 0, 74, 0
1, 125520, Note_on_c, 0, 74, 58
1, 125638, Note_on_c, 0, 74, 0
1, 125640, Note_on_c, 0, 73, 48
1, 125640, Note_on_c, 0, 73, 38
1, 125758, Note_on_c, 0, 73, 0
1, 125758, Note_on_c, 1, 57, 0
1, 125758, Note_on_c, 1, 65, 0
1, 125758, Note_on_c, 1, 63, 0
1, 125760, Note_on_c, 0, 73, 0
1, 125760, Note_on_c, 0, 73, 57
1, 125760, Note_on_c, 1, 62, 37
1, 125760, Note_on_c, 1, 58, 25
1, 125760, Note_on_c, 1, 65, 14
1, 126238, Note_on_c, 0, 73, 0
1, 126240, Note_on_c, 0, 74, 43
1, 126478, Note_on_c, 0, 74, 0
1, 126480, Note_on_c, 0, 77, 38
1, 126598, Note_on_c, 0, 77, 0
1, 126600, Note_on_c, 0, 76, 50
1, 126718, Note_on_c, 0, 76, 0
1, 126718, Note_on_c, 1, 62, 0
1, 126718, Note_on_c, 1, 58, 0
1, 126718, Note_on_c, 1, 65, 0
1, 126720, Note_on_c, 0, 79, 71
1, 126838, Note_on_c, 0, 79, 0
1, 126840, Note_on_c, 0, 77, 69
1, 126958, Note_on_c, 0, 77, 0
1, 126960, Note_on_c, 0, 76, 47
1, 127078, Note_on_c, 0, 76, 0
1, 127080, Note_on_c, 0, 74, 38
1, 127198, Note_on_c, 0, 74, 0
1, 127200, Note_on_c, 0, 74, 46
1, 127200, Note_on_c, 1, 53, 36
1, 127200, Note_on_c, 1, 58, 27
1, 127200, Note_on_c, 1, 62, 38
1, 127678, Note_on_c, 0, 74, 0
1, 127678, Note_on_c, 1, 58, 0
1, 127678, Note_on_c, 1, 62, 0
1, 127680, Note_on_c, 0, 72, 42
1, 127680, Note_on_c, 1, 60, 27
1, 127680, Note_on_c, 1, 57, 14
1, 127798, Note_on_c, 0, 72, 0
1, 127920, Note_on_c, 0, 77, 66
1, 128098, Note_on_c, 0, 77, 0
1, 128100, Note_on_c, 0, 72, 60
1, 128158, Note_on_c, 0, 72, 0
1, 128158, Note_on_c, 1, 53, 0
1, 128158, Note_on_c, 1, 60, 0
1, 128158, Note_on_c, 1, 57, 0
1, 128160, Note_on_c, 0, 81, 66
1, 128338, Note_on_c, 0, 81, 0
1, 128340, Note_on_c, 0, 77, 53
1, 128398, Note_on_c, 0, 77, 0
1, 128400, Note_on_c, 0, 72, 48
1, 128578, Note_on_c, 0, 72, 0
1, 128580, Note_on_c, 0, 69, 50
1, 128638, Note_on_c, 0, 69, 0
1, 128640, Note_on_c, 0, 72, 57
1, 128640, Note_on_c, 1, 55, 27
1, 128640, Note_on_c, 1, 52, 26
1, 128640, Note_on_c, 1, 60, 46
1, 128998, Note_on_c, 0, 72, 0
1, 129000, Note_on_c, 0, 71, 23
1, 129118, Note_on_c, 0, 71, 0
1, 129120, Note_on_c, 0, 70, 30
1, 129238, Note_on_c, 0, 70, 0
1, 129358, Note_on_c, 1, 55, 0
1, 129358, Note_on_c, 1, 52, 0
1, 129358, Note_on_c, 1, 60, 0
1, 129360, Note_on_c, 0, 64, 42
1, 129360, Note_on_c, 0, 67, 48
1, 129360, Note_on_c, 1, 58, 63
1, 129360, Note_on_c, 1, 46, 52
1, 129538, Note_on_c, 0, 64, 0
1, 129540, Note_on_c, 0, 60, 45
1, 129598, Note_on_c, 0, 67, 0
1, 129598, Note_on_c, 0, 60, 0
1, 129598, Note_on_c, 1, 58, 0
1, 129598, Note_on_c, 1, 46, 0
1, 129600, Note_on_c, 0, 65, 43
1, 129600, Note_on_c, 0, 69, 56
1, 129600, Note_on_c, 1, 45, 56
1, 129600, Note_on_c, 1, 57, 51
1, 129778, Note_on_c, 0, 65, 0
1, 129780, Note_on_c, 0, 60, 35
1, 129838, Note_on_c, 0, 69, 0
1, 129838, Note_on_c, 0, 60, 0
1, 129838, Note_on_c, 1, 45, 0
1, 129838, Note_on_c, 1, 57, 0
1, 129840, Note_on_c, 0, 67, 53
1, 129840, Note_on_c, 0, 70, 68
1, 129840, Note_on_c, 1, 55, 47
1, 129840, Note_on_c, 1, 43, 40
1, 130018, Note_on_c, 0, 67, 0
1, 130020, Note_on_c, 0, 60, 45
1, 130078, Note_on_c, 0, 70, 0
1, 130078, Note_on_c, 0, 60, 0
1, 130078, Note_on_c, 1, 55, 0
1, 130078, Note_on_c, 1, 43, 0
1, 130080, Note_on_c, 0, 69, 51
1, 130080, Note_on_c, 0, 72, 57
1, 130080, Note_on_c, 1, 41, 38
1, 130080, Note_on_c, 1, 53, 26
1, 130198, Note_on_c, 0, 72, 0
1, 130200, Note_on_c, 0, 74, 64
1, 130318, Note_on_c, 0, 69, 0
1, 130318, Note_on_c, 0, 74, 0
1, 130318, Note_on_c, 1, 41, 0
1, 130318, Note_on_c, 1, 53, 0
1, 130320, Note_on_c, 0, 76, 55
1, 130438, Note_on_c, 0, 76, 0
1, 130440, Note_on_c, 0, 77, 55
1, 130558, Note_on_c, 0, 77, 0
1, 130560, Note_on_c, 0, 65, 43
1, 130560, Note_on_c, 0, 60, 38
1, 130560, Note_on_c, 1, 57, 35
1, 130560, Note_on_c, 1, 48, 53
1, 131038, Note_on_c, 1, 57, 0
1, 131040, Note_on_c, 1, 58, 20
1, 131278, Note_on_c, 0, 65, 0
1, 131278, Note_on_c, 0, 60, 0
1, 131280, Note_on_c, 0, 64, 19
1, 131280, Note_on_c, 0, 69, 16
1, 131398, Note_on_c, 0, 69, 0
1, 131400, Note_on_c, 0, 67, 57
1, 131518, Note_on_c, 0, 64, 0
1, 131518, Note_on_c, 0, 67, 0
1, 131518, Note_on_c, 1, 48, 0
1, 131518, Note_on_c, 1, 58, 0
1, 131520, Note_on_c, 0, 65, 32
1, 131520, Note_on_c, 1, 53, 40
1, 131520, Note_on_c, 1, 57, 28
1, 131998, Note_on_c, 0, 65, 0
1, 131998, Note_on_c, 1, 53, 0
1, 131998, Note_on_c, 1, 57, 0
1, 132000, Note_on_c, 1, 41, 24
1, 132238, Note_on_c, 1, 41, 0
1, 132240, Note_on_c, 0, 69, 43
1, 132240, Note_on_c, 0, 60, 37
1, 132478, Note_on_c, 0, 69, 0
1, 132478, Note_on_c, 0, 60, 0
1, 132480, Note_on_c, 0, 69, 46
1, 132480, Note_on_c, 0, 60, 25
1, 132718, Note_on_c, 0, 69, 0
1, 132718, Note_on_c, 0, 60, 0
1, 132720, Note_on_c, 0, 69, 27
1, 132720, Note_on_c, 0, 60, 16
1, 132958, Note_on_c, 0, 69, 0
1, 132958, Note_on_c, 0, 60, 0
1, 132960, Note_on_c, 0, 69, 43
1, 132960, Note_on_c, 0, 60, 53
1, 132960, Note_on_c, 1, 41, 38
1, 133080, Note_on_c, 1, 53, 57
1, 133198, Note_on_c, 1, 53, 0
1, 133200, Note_on_c, 1, 53, 26
1, 133318, Note_on_c, 1, 53, 0
1, 133320, Note_on_c, 1, 53, 27
1, 133438, Note_on_c, 1, 53, 0
1, 133440, Note_on_c, 1, 53, 35
1, 133558, Note_on_c, 1, 53, 0
1, 133560, Note_on_c, 1, 53, 30
1, 133678, Note_on_c, 0, 69, 0
1, 133678, Note_on_c, 0, 60, 0
1, 133678, Note_on_c, 1, 53, 0
1, 133680, Note_on_c, 0, 65, 36
1, 133680, Note_on_c, 0, 57, 24
1, 133680, Note_on_c, 1, 53, 25
1, 133798, Note_on_c, 1, 53, 0
1, 133800, Note_on_c, 1, 53, 22
1, 133918, Note_on_c, 0, 65, 0
1, 133918, Note_on_c, 0, 57, 0
1, 133918, Note_on_c, 1, 53, 0
1, 133920, Note_on_c, 0, 70, 48
1, 133920, Note_on_c, 0, 67, 47
1, 133920, Note_on_c, 1, 53, 22
1, 134038, Note_on_c, 1, 53, 0
1, 134040, Note_on_c, 1, 53, 25
1, 134158, Note_on_c, 0, 70, 0
1, 134158, Note_on_c, 0, 67, 0
1, 134158, Note_on_c, 1, 41, 0
1, 134158, Note_on_c, 1, 53, 0
1, 134160, Note_on_c, 0, 67, 46
1, 134160, Note_on_c, 0, 64, 46
1, 134160, Note_on_c, 1, 53, 22
1, 134278, Note_on_c, 1, 53, 0
1, 134280, Note_on_c, 1, 53, 27
1, 134398, Note_on_c, 0, 67, 0
1, 134398, Note_on_c, 0, 64, 0
1, 134398, Note_on_c, 1, 53, 0
1, 134400, Note_on_c, 0, 69, 51
1, 134400, Note_on_c, 0, 72, 56
1, 134400, Note_on_c, 1, 41, 48
1, 134520, Note_on_c, 1, 53, 45
1, 134638, Note_on_c, 1, 53, 0
1, 134640, Note_on_c, 1, 53, 26
1, 134758, Note_on_c, 1, 53, 0
1, 134760, Note_on_c, 1, 53, 25
1, 134878, Note_on_c, 0, 69, 0
1, 134878, Note_on_c, 0, 72, 0
1, 134878, Note_on_c, 1, 41, 0
1, 134878, Note_on_c, 1, 53, 0
1, 134880, Note_on_c, 1, 38, 42
1, 135000, Note_on_c, 1, 50, 47
1, 135118, Note_on_c, 1, 50, 0
1, 135120, Note_on_c, 0, 77, 52
1, 135120, Note_on_c, 0, 69, 50
1, 135120, Note_on_c, 1, 50, 23
1, 135238, Note_on_c, 1, 50, 0
1, 135240, Note_on_c, 1, 50, 25
1, 135358, Note_on_c, 0, 77, 0
1, 135358, Note_on_c, 0, 69, 0
1, 135358, Note_on_c, 1, 38, 0
1, 135358, Note_on_c, 1, 50, 0
1, 135360, Note_on_c, 0, 77, 67
1, 135360, Note_on_c, 0, 69, 61
1, 135360, Note_on_c, 1, 35, 60
1, 135480, Note_on_c, 1, 47, 32
1, 135598, Note_on_c, 0, 77, 0
1, 135598, Note_on_c, 0, 69, 0
1, 135598, Note_on_c, 1, 47, 0
1, 135600, Note_on_c, 0, 77, 73
1, 135600, Note_on_c, 0, 69, 68
1, 135600, Note_on_c, 1, 47, 30
1, 135718, Note_on_c, 1, 47, 0
1, 135720, Note_on_c, 1, 47, 24
1, 135838, Note_on_c, 0, 77, 0
1, 135838, Note_on_c, 0, 69, 0
1, 135838, Note_on_c, 1, 35, 0
1, 135838, Note_on_c, 1, 47, 0
1, 135840, Note_on_c, 0, 65, 40
1, 135840, Note_on_c, 0, 69, 51
1, 135840, Note_on_c, 1, 36, 58
1, 135960, Note_on_c, 1, 48, 67
1, 136078, Note_on_c, 1, 48, 0
1, 136080, Note_on_c, 1, 48, 62
1, 136198, Note_on_c, 1, 48, 0
1, 136200, Note_on_c, 1, 48, 38
1, 136318, Note_on_c, 1, 48, 0
1, 136320, Note_on_c, 1, 48, 36
1, 136438, Note_on_c, 1, 48, 0
1, 136440, Note_on_c, 1, 48, 25
1, 136558, Note_on_c, 0, 65, 0
1, 136558, Note_on_c, 0, 69, 0
1, 136558, Note_on_c, 1, 48, 0
1, 136560, Note_on_c, 0, 72, 33
1, 136560, Note_on_c, 0, 69, 34
1, 136560, Note_on_c, 1, 48, 33
1, 136678, Note_on_c, 1, 48, 0
1, 136680, Note_on_c, 1, 48, 22
1, 136798, Note_on_c, 0, 72, 0
1, 136798, Note_on_c, 0, 69, 0
1, 136798, Note_on_c, 1, 36, 0
1, 136798, Note_on_c, 1, 48, 0
1, 136800, Note_on_c, 0, 67, 22
1, 136800, Note_on_c, 0, 70, 29
1, 136800, Note_on_c, 1, 48, 43
1, 136918, Note_on_c, 1, 48, 0
1, 136920, Note_on_c, 1, 48, 35
1, 137038, Note_on_c, 0, 67, 0
1, 137038, Note_on_c, 0, 70, 0
1, 137038, Note_on_c, 1, 48, 0
1, 137040, Note_on_c, 0, 67, 26
1, 137040, Note_on_c, 0, 58, 24
1, 137040, Note_on_c, 1, 48, 33
1, 137158, Note_on_c, 1, 48, 0
1, 137160, Note_on_c, 1, 48, 27
1, 137278, Note_on_c, 0, 67, 0
1, 137278, Note_on_c, 0, 58, 0
1, 137278, Note_on_c, 1, 48, 0
1, 137280, Note_on_c, 0, 57, 16
1, 137280, Note_on_c, 0, 65, 18
1, 137280, Note_on_c, 1, 41, 33
1, 137758, Note_on_c, 0, 57, 0
1, 137758, Note_on_c, 0, 65, 0
1, 137758, Note_on_c, 1, 41, 0
1, 137768, End_track
0, 0, End_of_file