0, 0, Header, 0, 1, 480
1, 0, Start_track
1, 0, Tempo, 491803
1, 2855, Note_on_c, 1, 64, 46
1, 2880, Note_on_c, 0, 79, 76
1, 3062, Note_on_c, 0, 79, 0
1, 3119, Note_on_c, 1, 60, 29
1, 3122, Note_on_c, 1, 64, 0
1, 3327, Note_on_c, 1, 60, 0
1, 3344, Note_on_c, 1, 64, 55
1, 3351, Note_on_c, 0, 79, 74
1, 3570, Note_on_c, 1, 60, 46
1, 3582, Note_on_c, 1, 64, 0
1, 3818, Note_on_c, 1, 64, 45
1, 3828, Note_on_c, 1, 60, 0
1, 4042, Note_on_c, 1, 60, 56
1, 4048, Note_on_c, 1, 64, 0
1, 4094, Note_on_c, 0, 77, 68
1, 4168, Note_on_c, 0, 79, 0
1, 4205, Note_on_c, 0, 76, 94
1, 4243, Note_on_c, 0, 77, 0
1, 4259, Note_on_c, 0, 76, 0
1, 4316, Note_on_c, 1, 60, 0
1, 4318, Note_on_c, 1, 65, 36
1, 4329, Note_on_c, 0, 76, 78
1, 4422, Note_on_c, 0, 74, 77
1, 4432, Note_on_c, 0, 76, 0
1, 4523, Note_on_c, 1, 60, 33
1, 4526, Note_on_c, 1, 65, 0
1, 4538, Note_on_c, 0, 72, 83
1, 4627, Note_on_c, 0, 74, 0
1, 4655, Note_on_c, 0, 71, 63
1, 4660, Note_on_c, 0, 72, 0
1, 4764, Note_on_c, 0, 72, 79
1, 4781, Note_on_c, 1, 64, 43
1, 4787, Note_on_c, 1, 60, 0
1, 4793, Note_on_c, 0, 71, 0
1, 4852, Note_on_c, 0, 74, 65
1, 4855, Note_on_c, 0, 72, 0
1, 4933, Note_on_c, 0, 72, 74
1, 4956, Note_on_c, 0, 74, 0
1, 5002, Note_on_c, 1, 60, 43
1, 5004, Note_on_c, 1, 64, 0
1, 5035, Note_on_c, 0, 74, 53
1, 5052, Note_on_c, 0, 72, 0
1, 5118, Note_on_c, 0, 72, 78
1, 5165, Note_on_c, 0, 74, 0
1, 5190, Note_on_c, 0, 74, 52
1, 5215, Note_on_c, 0, 72, 0
1, 5240, Note_on_c, 1, 64, 46
1, 5248, Note_on_c, 1, 60, 0
1, 5273, Note_on_c, 0, 72, 72
1, 5350, Note_on_c, 0, 71, 68
1, 5355, Note_on_c, 0, 74, 0
1, 5359, Note_on_c, 0, 72, 0
1, 5420, Note_on_c, 0, 72, 74
1, 5461, Note_on_c, 1, 64, 0
1, 5462, Note_on_c, 1, 60, 50
1, 5503, Note_on_c, 0, 71, 0
1, 5507, Note_on_c, 0, 74, 65
1, 5593, Note_on_c, 0, 72, 0
1, 5611, Note_on_c, 0, 76, 76
1, 5693, Note_on_c, 1, 64, 42
1, 5697, Note_on_c, 1, 60, 0
1, 5708, Note_on_c, 0, 74, 0
1, 5721, Note_on_c, 0, 76, 0
1, 5726, Note_on_c, 0, 67, 78
1, 5942, Note_on_c, 1, 64, 0
1, 5953, Note_on_c, 1, 60, 21
1, 6209, Note_on_c, 1, 60, 0
1, 6211, Note_on_c, 1, 64, 32
1, 6315, Note_on_c, 0, 67, 0
1, 6455, Note_on_c, 1, 60, 48
1, 6461, Note_on_c, 1, 64, 0
1, 6709, Note_on_c, 1, 64, 42
1, 6711, Note_on_c, 0, 79, 63
1, 6719, Note_on_c, 1, 60, 0
1, 6756, Note_on_c, 0, 79, 0
1, 6950, Note_on_c, 0, 79, 66
1, 6958, Note_on_c, 1, 64, 0
1, 6973, Note_on_c, 1, 60, 45
1, 6998, Note_on_c, 0, 79, 0
1, 7038, Note_on_c, 1, 60, 0
1, 7198, Note_on_c, 0, 79, 89
1, 7198, Note_on_c, 1, 64, 46
1, 7442, Note_on_c, 1, 64, 0
1, 7453, Note_on_c, 1, 60, 31
1, 7664, Note_on_c, 1, 60, 0
1, 7691, Note_on_c, 1, 64, 40
1, 7914, Note_on_c, 1, 60, 42
1, 7930, Note_on_c, 0, 77, 58
1, 7932, Note_on_c, 1, 64, 0
1, 8014, Note_on_c, 0, 79, 0
1, 8040, Note_on_c, 0, 76, 72
1, 8085, Note_on_c, 0, 77, 0
1, 8092, Note_on_c, 0, 76, 0
1, 8152, Note_on_c, 1, 60, 0
1, 8168, Note_on_c, 0, 76, 72
1, 8181, Note_on_c, 1, 65, 41
1, 8274, Note_on_c, 0, 74, 66
1, 8291, Note_on_c, 0, 76, 0
1, 8374, Note_on_c, 1, 65, 0
1, 8384, Note_on_c, 1, 60, 45
1, 8386, Note_on_c, 0, 72, 78
1, 8465, Note_on_c, 0, 74, 0
1, 8490, Note_on_c, 0, 71, 67
1, 8500, Note_on_c, 0, 72, 0
1, 8533, Note_on_c, 1, 60, 0
1, 8595, Note_on_c, 0, 72, 72
1, 8632, Note_on_c, 0, 71, 0
1, 8638, Note_on_c, 1, 64, 48
1, 8686, Note_on_c, 0, 74, 56
1, 8690, Note_on_c, 0, 72, 0
1, 8768, Note_on_c, 0, 72, 62
1, 8800, Note_on_c, 0, 74, 0
1, 8852, Note_on_c, 1, 60, 38
1, 8858, Note_on_c, 1, 64, 0
1, 8870, Note_on_c, 0, 74, 61
1, 8902, Note_on_c, 0, 72, 0
1, 8960, Note_on_c, 0, 72, 74
1, 8980, Note_on_c, 0, 74, 0
1, 9038, Note_on_c, 0, 74, 60
1, 9044, Note_on_c, 0, 72, 0
1, 9093, Note_on_c, 1, 60, 0
1, 9102, Note_on_c, 1, 64, 36
1, 9117, Note_on_c, 0, 72, 74
1, 9167, Note_on_c, 0, 71, 62
1, 9178, Note_on_c, 0, 74, 0
1, 9180, Note_on_c, 0, 72, 0
1, 9243, Note_on_c, 0, 72, 72
1, 9299, Note_on_c, 0, 71, 0
1, 9328, Note_on_c, 0, 74, 71
1, 9336, Note_on_c, 1, 60, 48
1, 9339, Note_on_c, 1, 64, 0
1, 9391, Note_on_c, 0, 72, 0
1, 9440, Note_on_c, 0, 76, 72
1, 9494, Note_on_c, 0, 74, 0
1, 9563, Note_on_c, 0, 76, 0
1, 9565, Note_on_c, 1, 60, 0
1, 9568, Note_on_c, 1, 64, 35
1, 9583, Note_on_c, 0, 67, 74
1, 9828, Note_on_c, 1, 60, 43
1, 9830, Note_on_c, 1, 64, 0
1, 10061, Note_on_c, 1, 60, 0
1, 10070, Note_on_c, 1, 64, 46
1, 10140, Note_on_c, 0, 67, 0
1, 10301, Note_on_c, 1, 64, 0
1, 10309, Note_on_c, 1, 60, 55
1, 10535, Note_on_c, 0, 69, 76
1, 10538, Note_on_c, 1, 60, 0
1, 10550, Note_on_c, 1, 65, 48
1, 10592, Note_on_c, 0, 69, 0
1, 10755, Note_on_c, 1, 65, 0
1, 10770, Note_on_c, 0, 72, 71
1, 10780, Note_on_c, 1, 60, 27
1, 10837, Note_on_c, 0, 72, 0
1, 10893, Note_on_c, 1, 60, 0
1, 11006, Note_on_c, 0, 77, 68
1, 11010, Note_on_c, 1, 65, 48
1, 11046, Note_on_c, 0, 77, 0
1, 11103, Note_on_c, 1, 65, 0
1, 11246, Note_on_c, 1, 60, 30
1, 11261, Note_on_c, 0, 81, 71
1, 11297, Note_on_c, 0, 81, 0
1, 11368, Note_on_c, 1, 60, 0
1, 11488, Note_on_c, 1, 65, 52
1, 11508, Note_on_c, 0, 84, 76
1, 11722, Note_on_c, 1, 65, 0
1, 11731, Note_on_c, 1, 60, 46
1, 11813, Note_on_c, 1, 60, 0
1, 11973, Note_on_c, 1, 65, 43
1, 12020, Note_on_c, 0, 84, 0
1, 12208, Note_on_c, 1, 60, 45
1, 12215, Note_on_c, 1, 65, 0
1, 12276, Note_on_c, 1, 60, 0
1, 12458, Note_on_c, 1, 64, 47
1, 12490, Note_on_c, 0, 67, 66
1, 12535, Note_on_c, 0, 67, 0
1, 12632, Note_on_c, 1, 64, 0
1, 12707, Note_on_c, 1, 60, 51
1, 12722, Note_on_c, 0, 72, 67
1, 12778, Note_on_c, 0, 72, 0
1, 12830, Note_on_c, 1, 60, 0
1, 12956, Note_on_c, 1, 64, 57
1, 12972, Note_on_c, 0, 76, 66
1, 12999, Note_on_c, 0, 76, 0
1, 13034, Note_on_c, 1, 64, 0
1, 13184, Note_on_c, 1, 60, 47
1, 13189, Note_on_c, 0, 79, 68
1, 13244, Note_on_c, 0, 79, 0
1, 13262, Note_on_c, 1, 60, 0
1, 13414, Note_on_c, 1, 64, 58
1, 13448, Note_on_c, 0, 84, 71
1, 13661, Note_on_c, 1, 64, 0
1, 13664, Note_on_c, 1, 60, 41
1, 13733, Note_on_c, 1, 60, 0
1, 13888, Note_on_c, 0, 84, 0
1, 13908, Note_on_c, 1, 64, 55
1, 14115, Note_on_c, 1, 64, 0
1, 14138, Note_on_c, 1, 60, 52
1, 14228, Note_on_c, 1, 60, 0
1, 14370, Note_on_c, 0, 67, 74
1, 14383, Note_on_c, 1, 64, 67
1, 14390, Note_on_c, 1, 60, 56
1, 14433, Note_on_c, 0, 67, 0
1, 14445, Note_on_c, 0, 79, 83
1, 14635, Note_on_c, 1, 55, 43
1, 14651, Note_on_c, 1, 60, 0
1, 14658, Note_on_c, 1, 64, 0
1, 14848, Note_on_c, 1, 55, 0
1, 14884, Note_on_c, 1, 64, 56
1, 14886, Note_on_c, 1, 60, 55
1, 15118, Note_on_c, 1, 55, 42
1, 15133, Note_on_c, 1, 64, 0
1, 15145, Note_on_c, 1, 60, 0
1, 15317, Note_on_c, 1, 55, 0
1, 15363, Note_on_c, 1, 59, 50
1, 15366, Note_on_c, 1, 62, 56
1, 15593, Note_on_c, 1, 55, 48
1, 15622, Note_on_c, 1, 59, 0
1, 15623, Note_on_c, 1, 62, 0
1, 15765, Note_on_c, 0, 79, 0
1, 15827, Note_on_c, 0, 77, 60
1, 15828, Note_on_c, 1, 62, 50
1, 15831, Note_on_c, 1, 55, 0
1, 15833, Note_on_c, 1, 59, 42
1, 15881, Note_on_c, 0, 79, 71
1, 15898, Note_on_c, 0, 77, 0
1, 15962, Note_on_c, 0, 77, 70
1, 16023, Note_on_c, 0, 79, 0
1, 16025, Note_on_c, 0, 76, 71
1, 16038, Note_on_c, 0, 77, 0
1, 16047, Note_on_c, 1, 55, 48
1, 16060, Note_on_c, 1, 59, 0
1, 16074, Note_on_c, 1, 62, 0
1, 16108, Note_on_c, 0, 76, 0
1, 16149, Note_on_c, 0, 77, 65
1, 16260, Note_on_c, 1, 55, 0
1, 16297, Note_on_c, 1, 60, 61
1, 16314, Note_on_c, 0, 75, 78
1, 16346, Note_on_c, 0, 77, 0
1, 16529, Note_on_c, 1, 48, 63
1, 16545, Note_on_c, 1, 60, 0
1, 16785, Note_on_c, 1, 52, 64
1, 16812, Note_on_c, 1, 48, 0
1, 16830, Note_on_c, 0, 76, 48
1, 16847, Note_on_c, 0, 75, 0
1, 17001, Note_on_c, 1, 52, 0
1, 17025, Note_on_c, 1, 55, 42
1, 17256, Note_on_c, 1, 60, 56
1, 17279, Note_on_c, 1, 55, 0
1, 17508, Note_on_c, 1, 64, 63
1, 17514, Note_on_c, 1, 60, 0
1, 17526, Note_on_c, 0, 76, 0
1, 17739, Note_on_c, 1, 67, 52
1, 17743, Note_on_c, 1, 64, 0
1, 17990, Note_on_c, 1, 64, 22
1, 18008, Note_on_c, 1, 67, 0
1, 18148, Note_on_c, 1, 64, 0
1, 18229, Note_on_c, 1, 65, 56
1, 18231, Note_on_c, 0, 69, 70
1, 18405, Note_on_c, 0, 69, 0
1, 18477, Note_on_c, 1, 60, 30
1, 18490, Note_on_c, 0, 72, 63
1, 18502, Note_on_c, 1, 65, 0
1, 18568, Note_on_c, 1, 60, 0
1, 18599, Note_on_c, 0, 69, 72
1, 18612, Note_on_c, 0, 72, 0
1, 18673, Note_on_c, 0, 69, 0
1, 18713, Note_on_c, 0, 77, 70
1, 18732, Note_on_c, 1, 65, 50
1, 18802, Note_on_c, 0, 77, 0
1, 18822, Note_on_c, 0, 72, 74
1, 18933, Note_on_c, 0, 72, 0
1, 18948, Note_on_c, 0, 81, 68
1, 18955, Note_on_c, 1, 60, 55
1, 18993, Note_on_c, 1, 65, 0
1, 19037, Note_on_c, 1, 60, 0
1, 19040, Note_on_c, 0, 77, 67
1, 19073, Note_on_c, 0, 81, 0
1, 19148, Note_on_c, 0, 77, 0
1, 19188, Note_on_c, 0, 84, 77
1, 19188, Note_on_c, 1, 65, 56
1, 19428, Note_on_c, 1, 60, 43
1, 19469, Note_on_c, 1, 65, 0
1, 19498, Note_on_c, 1, 60, 0
1, 19663, Note_on_c, 1, 65, 52
1, 19690, Note_on_c, 0, 84, 0
1, 19919, Note_on_c, 1, 60, 38
1, 19942, Note_on_c, 1, 65, 0
1, 19978, Note_on_c, 1, 60, 0
1, 20165, Note_on_c, 1, 64, 52
1, 20168, Note_on_c, 0, 67, 65
1, 20275, Note_on_c, 0, 67, 0
1, 20404, Note_on_c, 0, 72, 63
1, 20415, Note_on_c, 1, 60, 38
1, 20447, Note_on_c, 1, 64, 0
1, 20509, Note_on_c, 0, 72, 0
1, 20510, Note_on_c, 1, 60, 0
1, 20515, Note_on_c, 0, 67, 68
1, 20590, Note_on_c, 0, 67, 0
1, 20645, Note_on_c, 1, 64, 52
1, 20647, Note_on_c, 0, 76, 68
1, 20740, Note_on_c, 0, 76, 0
1, 20762, Note_on_c, 0, 72, 74
1, 20862, Note_on_c, 1, 60, 36
1, 20875, Note_on_c, 0, 79, 76
1, 20882, Note_on_c, 0, 72, 0
1, 20890, Note_on_c, 1, 64, 0
1, 20936, Note_on_c, 1, 60, 0
1, 20990, Note_on_c, 0, 76, 68
1, 21009, Note_on_c, 0, 79, 0
1, 21070, Note_on_c, 0, 76, 0
1, 21104, Note_on_c, 1, 64, 46
1, 21120, Note_on_c, 0, 84, 94
1, 21353, Note_on_c, 1, 60, 40
1, 21382, Note_on_c, 1, 64, 0
1, 21432, Note_on_c, 1, 60, 0
1, 21599, Note_on_c, 1, 64, 48
1, 21735, Note_on_c, 0, 84, 0
1, 21837, Note_on_c, 1, 60, 55
1, 21873, Note_on_c, 1, 64, 0
1, 21919, Note_on_c, 1, 60, 0
1, 22071, Note_on_c, 0, 81, 89
1, 22073, Note_on_c, 1, 64, 63
1, 22075, Note_on_c, 1, 60, 57
1, 22313, Note_on_c, 0, 79, 72
1, 22316, Note_on_c, 1, 55, 62
1, 22319, Note_on_c, 1, 64, 0
1, 22321, Note_on_c, 1, 60, 0
1, 22333, Note_on_c, 0, 81, 0
1, 22366, Note_on_c, 0, 79, 0
1, 22382, Note_on_c, 1, 55, 0
1, 22545, Note_on_c, 1, 64, 61
1, 22549, Note_on_c, 1, 60, 56
1, 22551, Note_on_c, 0, 77, 89
1, 22585, Note_on_c, 0, 77, 0
1, 22789, Note_on_c, 0, 76, 74
1, 22791, Note_on_c, 1, 60, 0
1, 22793, Note_on_c, 1, 55, 66
1, 22800, Note_on_c, 1, 64, 0
1, 22835, Note_on_c, 0, 76, 0
1, 22857, Note_on_c, 1, 55, 0
1, 23025, Note_on_c, 1, 62, 58
1, 23028, Note_on_c, 1, 65, 67
1, 23041, Note_on_c, 0, 76, 81
1, 23256, Note_on_c, 1, 62, 0
1, 23263, Note_on_c, 1, 65, 0
1, 23275, Note_on_c, 0, 74, 74
1, 23281, Note_on_c, 1, 55, 62
1, 23296, Note_on_c, 0, 76, 0
1, 23337, Note_on_c, 0, 74, 0
1, 23383, Note_on_c, 1, 55, 0
1, 23505, Note_on_c, 1, 65, 63
1, 23508, Note_on_c, 1, 62, 57
1, 23530, Note_on_c, 0, 72, 94
1, 23580, Note_on_c, 0, 72, 0
1, 23722, Note_on_c, 1, 65, 0
1, 23724, Note_on_c, 1, 62, 0
1, 23751, Note_on_c, 1, 55, 68
1, 23777, Note_on_c, 0, 71, 71
1, 23825, Note_on_c, 1, 55, 0
1, 23832, Note_on_c, 0, 71, 0
1, 23973, Note_on_c, 1, 64, 62
1, 23978, Note_on_c, 1, 60, 63
1, 24000, Note_on_c, 0, 72, 65
1, 24108, Note_on_c, 0, 72, 0
1, 24120, Note_on_c, 0, 67, 60
1, 24240, Note_on_c, 0, 69, 77
1, 24251, Note_on_c, 0, 67, 0
1, 24360, Note_on_c, 0, 71, 74
1, 24367, Note_on_c, 0, 69, 0
1, 24439, Note_on_c, 0, 71, 0
1, 24480, Note_on_c, 0, 72, 65
1, 24600, Note_on_c, 0, 74, 97
1, 24630, Note_on_c, 0, 72, 0
1, 24720, Note_on_c, 0, 76, 81
1, 24730, Note_on_c, 0, 74, 0
1, 24804, Note_on_c, 0, 76, 0
1, 24840, Note_on_c, 0, 77, 74
1, 24842, Note_on_c, 1, 64, 0
1, 24848, Note_on_c, 1, 60, 0
1, 24960, Note_on_c, 0, 79, 94
1, 25011, Note_on_c, 0, 77, 0
1, 25080, Note_on_c, 0, 81, 76
1, 25111, Note_on_c, 0, 79, 0
1, 25200, Note_on_c, 0, 83, 79
1, 25261, Note_on_c, 0, 81, 0
1, 25291, Note_on_c, 0, 83, 0
1, 25320, Note_on_c, 0, 84, 74
1, 25397, Note_on_c, 0, 84, 0
1, 25440, Note_on_c, 0, 79, 94
1, 25494, Note_on_c, 0, 79, 0
1, 25680, Note_on_c, 0, 79, 78
1, 25718, Note_on_c, 0, 79, 0
1, 25908, Note_on_c, 1, 64, 61
1, 25921, Note_on_c, 1, 55, 56
1, 25966, Note_on_c, 1, 64, 0
1, 25980, Note_on_c, 1, 55, 0
1, 26085, Note_on_c, 0, 79, 58
1, 26195, Note_on_c, 0, 81, 36
1, 26201, Note_on_c, 0, 79, 0
1, 26318, Note_on_c, 0, 79, 43
1, 26369, Note_on_c, 0, 81, 0
1, 26380, Note_on_c, 0, 79, 0
1, 26421, Note_on_c, 1, 62, 52
1, 26433, Note_on_c, 1, 55, 55
1, 26473, Note_on_c, 1, 62, 0
1, 26482, Note_on_c, 1, 55, 0
1, 26555, Note_on_c, 0, 77, 68
1, 26678, Note_on_c, 0, 79, 62
1, 26718, Note_on_c, 0, 77, 0
1, 26788, Note_on_c, 0, 79, 0
1, 26798, Note_on_c, 0, 77, 41
1, 26847, Note_on_c, 0, 77, 0
1, 26895, Note_on_c, 1, 60, 51
1, 26904, Note_on_c, 1, 55, 57
1, 26956, Note_on_c, 1, 60, 0
1, 26958, Note_on_c, 1, 55, 0
1, 27048, Note_on_c, 0, 76, 65
1, 27165, Note_on_c, 0, 77, 52
1, 27186, Note_on_c, 0, 76, 0
1, 27295, Note_on_c, 0, 76, 52
1, 27305, Note_on_c, 0, 77, 0
1, 27353, Note_on_c, 0, 76, 0
1, 27374, Note_on_c, 1, 59, 41
1, 27380, Note_on_c, 1, 55, 34
1, 27432, Note_on_c, 1, 55, 0
1, 27434, Note_on_c, 1, 59, 0
1, 27520, Note_on_c, 0, 74, 68
1, 27637, Note_on_c, 0, 74, 0
1, 27642, Note_on_c, 0, 76, 46
1, 27723, Note_on_c, 0, 74, 65
1, 27760, Note_on_c, 0, 76, 0
1, 27765, Note_on_c, 0, 74, 0
1, 27825, Note_on_c, 1, 60, 62
1, 27857, Note_on_c, 0, 72, 63
1, 27968, Note_on_c, 0, 67, 72
1, 28005, Note_on_c, 0, 72, 0
1, 28078, Note_on_c, 0, 69, 81
1, 28120, Note_on_c, 0, 67, 0
1, 28194, Note_on_c, 0, 71, 71
1, 28225, Note_on_c, 0, 69, 0
1, 28280, Note_on_c, 0, 71, 0
1, 28312, Note_on_c, 0, 72, 62
1, 28328, Note_on_c, 1, 60, 0
1, 28435, Note_on_c, 0, 74, 83
1, 28536, Note_on_c, 0, 72, 0
1, 28545, Note_on_c, 0, 76, 68
1, 28589, Note_on_c, 0, 74, 0
1, 28632, Note_on_c, 0, 76, 0
1, 28655, Note_on_c, 0, 77, 70
1, 28779, Note_on_c, 0, 79, 94
1, 28817, Note_on_c, 0, 77, 0
1, 28887, Note_on_c, 0, 81, 78
1, 28925, Note_on_c, 0, 79, 0
1, 29015, Note_on_c, 0, 83, 83
1, 29047, Note_on_c, 0, 81, 0
1, 29105, Note_on_c, 0, 83, 0
1, 29143, Note_on_c, 0, 84, 67
1, 29219, Note_on_c, 0, 84, 0
1, 29277, Note_on_c, 0, 79, 92
1, 29325, Note_on_c, 0, 79, 0
1, 29528, Note_on_c, 0, 79, 77
1, 29565, Note_on_c, 0, 79, 0
1, 29789, Note_on_c, 1, 55, 55
1, 29792, Note_on_c, 1, 64, 62
1, 29848, Note_on_c, 1, 64, 0
1, 29851, Note_on_c, 1, 55, 0
1, 29908, Note_on_c, 0, 79, 55
1, 30035, Note_on_c, 0, 79, 0
1, 30037, Note_on_c, 0, 81, 29
1, 30142, Note_on_c, 0, 79, 56
1, 30173, Note_on_c, 0, 81, 0
1, 30187, Note_on_c, 0, 79, 0
1, 30269, Note_on_c, 1, 62, 60
1, 30275, Note_on_c, 1, 55, 61
1, 30320, Note_on_c, 1, 62, 0
1, 30323, Note_on_c, 1, 55, 0
1, 30383, Note_on_c, 0, 77, 65
1, 30497, Note_on_c, 0, 79, 51
1, 30507, Note_on_c, 0, 77, 0
1, 30616, Note_on_c, 0, 77, 48
1, 30653, Note_on_c, 0, 79, 0
1, 30682, Note_on_c, 0, 77, 0
1, 30737, Note_on_c, 1, 60, 55
1, 30740, Note_on_c, 1, 55, 56
1, 30776, Note_on_c, 1, 55, 0
1, 30787, Note_on_c, 1, 60, 0
1, 30880, Note_on_c, 0, 76, 63
1, 30988, Note_on_c, 0, 77, 52
1, 31010, Note_on_c, 0, 76, 0
1, 31122, Note_on_c, 0, 76, 58
1, 31179, Note_on_c, 0, 77, 0
1, 31195, Note_on_c, 0, 76, 0
1, 31201, Note_on_c, 1, 59, 53
1, 31205, Note_on_c, 1, 55, 53
1, 31249, Note_on_c, 1, 55, 0
1, 31252, Note_on_c, 1, 59, 0
1, 31345, Note_on_c, 0, 74, 57
1, 31455, Note_on_c, 0, 76, 58
1, 31467, Note_on_c, 0, 74, 0
1, 31555, Note_on_c, 0, 74, 72
1, 31660, Note_on_c, 0, 76, 0
1, 31673, Note_on_c, 0, 74, 0
1, 31680, Note_on_c, 0, 72, 74
1, 31693, Note_on_c, 1, 48, 69
1, 31931, Note_on_c, 1, 60, 58
1, 31953, Note_on_c, 1, 48, 0
1, 32182, Note_on_c, 1, 59, 56
1, 32244, Note_on_c, 1, 60, 0
1, 32398, Note_on_c, 0, 72, 0
1, 32400, Note_on_c, 0, 74, 83
1, 32432, Note_on_c, 1, 58, 50
1, 32445, Note_on_c, 1, 59, 0
1, 32518, Note_on_c, 0, 74, 0
1, 32520, Note_on_c, 0, 76, 84
1, 32638, Note_on_c, 0, 76, 0
1, 32645, Note_on_c, 0, 77, 90
1, 32653, Note_on_c, 1, 57, 63
1, 32667, Note_on_c, 1, 58, 0
1, 32690, Note_on_c, 0, 77, 0
1, 32707, Note_on_c, 1, 57, 0
1, 32893, Note_on_c, 1, 57, 68
1, 32901, Note_on_c, 0, 77, 106
1, 33167, Note_on_c, 1, 55, 64
1, 33247, Note_on_c, 1, 57, 0
1, 33376, Note_on_c, 0, 79, 76
1, 33382, Note_on_c, 1, 53, 68
1, 33388, Note_on_c, 1, 55, 0
1, 33422, Note_on_c, 0, 77, 0
1, 33495, Note_on_c, 0, 81, 72
1, 33508, Note_on_c, 0, 79, 0
1, 33579, Note_on_c, 1, 53, 0
1, 33610, Note_on_c, 1, 52, 67
1, 33634, Note_on_c, 0, 79, 97
1, 33662, Note_on_c, 1, 52, 0
1, 33666, Note_on_c, 0, 81, 0
1, 33865, Note_on_c, 0, 76, 73
1, 33877, Note_on_c, 0, 79, 0
1, 34073, Note_on_c, 1, 48, 73
1, 34075, Note_on_c, 0, 76, 0
1, 34093, Note_on_c, 0, 84, 50
1, 34113, Note_on_c, 0, 84, 0
1, 34127, Note_on_c, 1, 48, 0
1, 34345, Note_on_c, 0, 84, 68
1, 34388, Note_on_c, 0, 84, 0
1, 34573, Note_on_c, 0, 86, 89
1, 34703, Note_on_c, 0, 84, 81
1, 34733, Note_on_c, 0, 86, 0
1, 34825, Note_on_c, 0, 83, 92
1, 34874, Note_on_c, 0, 84, 0
1, 34945, Note_on_c, 0, 83, 0
1, 34949, Note_on_c, 0, 81, 77
1, 35002, Note_on_c, 0, 81, 0
1, 35078, Note_on_c, 0, 81, 78
1, 35085, Note_on_c, 1, 60, 63
1, 35089, Note_on_c, 1, 48, 63
1, 35190, Note_on_c, 1, 48, 0
1, 35192, Note_on_c, 0, 79, 76
1, 35206, Note_on_c, 1, 60, 0
1, 35222, Note_on_c, 0, 81, 0
1, 35311, Note_on_c, 0, 77, 92
1, 35346, Note_on_c, 0, 79, 0
1, 35417, Note_on_c, 0, 76, 70
1, 35429, Note_on_c, 0, 77, 0
1, 35520, Note_on_c, 0, 79, 74
1, 35520, Note_on_c, 1, 55, 58
1, 35520, Note_on_c, 1, 64, 67
1, 35560, Note_on_c, 0, 76, 0
1, 36214, Note_on_c, 0, 79, 0
1, 36234, Note_on_c, 1, 55, 0
1, 36240, Note_on_c, 0, 76, 67
1, 36240, Note_on_c, 1, 60, 50
1, 36400, Note_on_c, 1, 64, 0
1, 36464, Note_on_c, 0, 74, 53
1, 36477, Note_on_c, 1, 60, 0
1, 36480, Note_on_c, 0, 76, 0
1, 36485, Note_on_c, 1, 59, 58
1, 36705, Note_on_c, 1, 43, 64
1, 36708, Note_on_c, 1, 59, 0
1, 36924, Note_on_c, 0, 74, 0
1, 36950, Note_on_c, 1, 47, 63
1, 36961, Note_on_c, 1, 43, 0
1, 37195, Note_on_c, 1, 47, 0
1, 37196, Note_on_c, 1, 50, 66
1, 37375, Note_on_c, 1, 50, 0
1, 37393, Note_on_c, 0, 73, 65
1, 37441, Note_on_c, 1, 55, 67
1, 37448, Note_on_c, 0, 74, 73
1, 37482, Note_on_c, 0, 73, 0
1, 37678, Note_on_c, 1, 59, 58
1, 37716, Note_on_c, 1, 55, 0
1, 37901, Note_on_c, 1, 62, 60
1, 37923, Note_on_c, 1, 59, 0
1, 37950, Note_on_c, 0, 72, 65
1, 38018, Note_on_c, 0, 74, 0
1, 38043, Note_on_c, 0, 71, 77
1, 38062, Note_on_c, 1, 62, 0
1, 38100, Note_on_c, 0, 72, 0
1, 38146, Note_on_c, 0, 69, 76
1, 38149, Note_on_c, 0, 71, 0
1, 38256, Note_on_c, 0, 67, 81
1, 38278, Note_on_c, 0, 69, 0
1, 38320, Note_on_c, 0, 67, 0
1, 38370, Note_on_c, 1, 55, 55
1, 38395, Note_on_c, 0, 73, 89
1, 38614, Note_on_c, 0, 73, 0
1, 38621, Note_on_c, 0, 74, 77
1, 38634, Note_on_c, 1, 59, 61
1, 38656, Note_on_c, 1, 55, 0
1, 38870, Note_on_c, 1, 62, 53
1, 38878, Note_on_c, 1, 59, 0
1, 38883, Note_on_c, 0, 72, 72
1, 38916, Note_on_c, 0, 74, 0
1, 38994, Note_on_c, 0, 71, 89
1, 39013, Note_on_c, 1, 62, 0
1, 39048, Note_on_c, 0, 72, 0
1, 39103, Note_on_c, 0, 69, 66
1, 39107, Note_on_c, 0, 71, 0
1, 39218, Note_on_c, 0, 67, 86
1, 39238, Note_on_c, 0, 69, 0
1, 39264, Note_on_c, 0, 67, 0
1, 39344, Note_on_c, 1, 55, 57
1, 39360, Note_on_c, 0, 75, 94
1, 39583, Note_on_c, 1, 60, 53
1, 39595, Note_on_c, 0, 76, 70
1, 39603, Note_on_c, 0, 75, 0
1, 39618, Note_on_c, 1, 55, 0
1, 39640, Note_on_c, 0, 76, 0
1, 39837, Note_on_c, 1, 64, 33
1, 39850, Note_on_c, 0, 76, 63
1, 39860, Note_on_c, 1, 60, 0
1, 39885, Note_on_c, 0, 76, 0
1, 40082, Note_on_c, 1, 64, 0
1, 40083, Note_on_c, 1, 60, 43
1, 40095, Note_on_c, 0, 76, 71
1, 40134, Note_on_c, 0, 76, 0
1, 40173, Note_on_c, 1, 60, 0
1, 40314, Note_on_c, 1, 55, 55
1, 40345, Note_on_c, 0, 76, 70
1, 40559, Note_on_c, 1, 60, 42
1, 40598, Note_on_c, 1, 55, 0
1, 40792, Note_on_c, 1, 64, 46
1, 40815, Note_on_c, 1, 60, 0
1, 40833, Note_on_c, 0, 76, 0
1, 40914, Note_on_c, 1, 64, 0
1, 41042, Note_on_c, 1, 60, 50
1, 41150, Note_on_c, 1, 60, 0
1, 41229, Note_on_c, 0, 69, 63
1, 41273, Note_on_c, 1, 54, 52
1, 41280, Note_on_c, 0, 69, 0
1, 41302, Note_on_c, 0, 81, 78
1, 41531, Note_on_c, 1, 57, 51
1, 41558, Note_on_c, 1, 54, 0
1, 41774, Note_on_c, 1, 60, 57
1, 41820, Note_on_c, 1, 57, 0
1, 41884, Note_on_c, 1, 60, 0
1, 42038, Note_on_c, 0, 79, 72
1, 42094, Note_on_c, 0, 81, 0
1, 42102, Note_on_c, 0, 78, 57
1, 42145, Note_on_c, 0, 79, 0
1, 42160, Note_on_c, 0, 76, 66
1, 42233, Note_on_c, 0, 78, 0
1, 42238, Note_on_c, 0, 74, 83
1, 42244, Note_on_c, 0, 76, 0
1, 42269, Note_on_c, 1, 54, 56
1, 42469, Note_on_c, 0, 74, 0
1, 42494, Note_on_c, 1, 57, 58
1, 42506, Note_on_c, 0, 86, 55
1, 42526, Note_on_c, 1, 54, 0
1, 42528, Note_on_c, 0, 86, 0
1, 42731, Note_on_c, 1, 60, 56
1, 42743, Note_on_c, 1, 57, 0
1, 42745, Note_on_c, 0, 86, 73
1, 42785, Note_on_c, 0, 86, 0
1, 42808, Note_on_c, 1, 60, 0
1, 42973, Note_on_c, 0, 86, 89
1, 43014, Note_on_c, 0, 86, 0
1, 43186, Note_on_c, 1, 55, 63
1, 43232, Note_on_c, 0, 86, 97
1, 43445, Note_on_c, 1, 59, 56
1, 43475, Note_on_c, 1, 55, 0
1, 43680, Note_on_c, 1, 59, 0
1, 43690, Note_on_c, 1, 62, 63
1, 43729, Note_on_c, 1, 62, 0
1, 43829, Note_on_c, 0, 83, 57
1, 43837, Note_on_c, 0, 86, 0
1, 43906, Note_on_c, 0, 83, 0
1, 43929, Note_on_c, 1, 62, 60
1, 43930, Note_on_c, 0, 86, 66
1, 43977, Note_on_c, 1, 62, 0
1, 44040, Note_on_c, 0, 83, 70
1, 44083, Note_on_c, 0, 86, 0
1, 44168, Note_on_c, 0, 79, 58
1, 44183, Note_on_c, 0, 83, 0
1, 44184, Note_on_c, 1, 55, 64
1, 44414, Note_on_c, 1, 59, 58
1, 44443, Note_on_c, 1, 55, 0
1, 44585, Note_on_c, 0, 79, 0
1, 44625, Note_on_c, 1, 59, 0
1, 44645, Note_on_c, 1, 62, 63
1, 44704, Note_on_c, 1, 62, 0
1, 44893, Note_on_c, 1, 62, 57
1, 44950, Note_on_c, 1, 62, 0
1, 45101, Note_on_c, 0, 73, 81
1, 45140, Note_on_c, 1, 55, 57
1, 45355, Note_on_c, 0, 73, 0
1, 45357, Note_on_c, 0, 74, 53
1, 45360, Note_on_c, 1, 59, 56
1, 45424, Note_on_c, 1, 55, 0
1, 45594, Note_on_c, 0, 72, 65
1, 45611, Note_on_c, 1, 62, 57
1, 45614, Note_on_c, 1, 59, 0
1, 45655, Note_on_c, 0, 74, 0
1, 45670, Note_on_c, 1, 62, 0
1, 45703, Note_on_c, 0, 71, 78
1, 45765, Note_on_c, 0, 72, 0
1, 45825, Note_on_c, 0, 69, 72
1, 45828, Note_on_c, 0, 71, 0
1, 45960, Note_on_c, 0, 67, 61
1, 45968, Note_on_c, 0, 69, 0
1, 46035, Note_on_c, 0, 73, 78
1, 46058, Note_on_c, 1, 55, 57
1, 46078, Note_on_c, 0, 67, 0
1, 46149, Note_on_c, 0, 74, 73
1, 46173, Note_on_c, 0, 73, 0
1, 46280, Note_on_c, 0, 74, 0
1, 46288, Note_on_c, 0, 76, 62
1, 46313, Note_on_c, 1, 59, 48
1, 46335, Note_on_c, 1, 55, 0
1, 46380, Note_on_c, 0, 74, 77
1, 46413, Note_on_c, 0, 76, 0
1, 46502, Note_on_c, 0, 74, 0
1, 46529, Note_on_c, 0, 72, 76
1, 46569, Note_on_c, 1, 59, 0
1, 46571, Note_on_c, 1, 62, 47
1, 46645, Note_on_c, 0, 71, 73
1, 46658, Note_on_c, 0, 72, 0
1, 46778, Note_on_c, 0, 69, 74
1, 46788, Note_on_c, 1, 62, 0
1, 46802, Note_on_c, 0, 71, 0
1, 46888, Note_on_c, 0, 67, 78
1, 46922, Note_on_c, 0, 69, 0
1, 46997, Note_on_c, 0, 67, 0
1, 47009, Note_on_c, 1, 55, 57
1, 47011, Note_on_c, 0, 75, 94
1, 47240, Note_on_c, 0, 76, 74
1, 47243, Note_on_c, 0, 75, 0
1, 47255, Note_on_c, 1, 60, 51
1, 47273, Note_on_c, 1, 55, 0
1, 47293, Note_on_c, 0, 76, 0
1, 47488, Note_on_c, 0, 76, 68
1, 47490, Note_on_c, 1, 64, 55
1, 47512, Note_on_c, 1, 60, 0
1, 47517, Note_on_c, 0, 76, 0
1, 47716, Note_on_c, 0, 76, 66
1, 47732, Note_on_c, 1, 60, 46
1, 47761, Note_on_c, 0, 76, 0
1, 47769, Note_on_c, 1, 64, 0
1, 47862, Note_on_c, 1, 60, 0
1, 47946, Note_on_c, 0, 76, 78
1, 47965, Note_on_c, 1, 55, 53
1, 48216, Note_on_c, 1, 60, 47
1, 48391, Note_on_c, 0, 76, 0
1, 48435, Note_on_c, 1, 55, 0
1, 48460, Note_on_c, 1, 64, 42
1, 48475, Note_on_c, 1, 60, 0
1, 48691, Note_on_c, 1, 64, 0
1, 48694, Note_on_c, 1, 60, 53
1, 48819, Note_on_c, 1, 60, 0
1, 48950, Note_on_c, 1, 54, 63
1, 48953, Note_on_c, 1, 57, 61
1, 48955, Note_on_c, 1, 62, 68
1, 48960, Note_on_c, 0, 81, 105
1, 48960, Note_on_c, 1, 60, 63
1, 49078, Note_on_c, 0, 81, 0
1, 49080, Note_on_c, 0, 83, 77
1, 49198, Note_on_c, 0, 83, 0
1, 49200, Note_on_c, 0, 84, 74
1, 49318, Note_on_c, 0, 84, 0
1, 49320, Note_on_c, 0, 83, 71
1, 49438, Note_on_c, 0, 83, 0
1, 49440, Note_on_c, 0, 81, 72
1, 49558, Note_on_c, 0, 81, 0
1, 49560, Note_on_c, 0, 79, 74
1, 49678, Note_on_c, 0, 79, 0
1, 49680, Note_on_c, 0, 78, 72
1, 49798, Note_on_c, 0, 78, 0
1, 49800, Note_on_c, 0, 76, 66
1, 49918, Note_on_c, 0, 76, 0
1, 49920, Note_on_c, 0, 74, 74
1, 50038, Note_on_c, 0, 74, 0
1, 50040, Note_on_c, 0, 78, 74
1, 50158, Note_on_c, 0, 78, 0
1, 50160, Note_on_c, 0, 81, 77
1, 50278, Note_on_c, 0, 81, 0
1, 50280, Note_on_c, 0, 79, 78
1, 50398, Note_on_c, 0, 79, 0
1, 50400, Note_on_c, 0, 78, 71
1, 50445, Note_on_c, 1, 60, 0
1, 50450, Note_on_c, 1, 57, 0
1, 50456, Note_on_c, 1, 54, 0
1, 50465, Note_on_c, 1, 62, 0
1, 50518, Note_on_c, 0, 78, 0
1, 50520, Note_on_c, 0, 76, 50
1, 50638, Note_on_c, 0, 76, 0
1, 50640, Note_on_c, 0, 74, 68
1, 50758, Note_on_c, 0, 74, 0
1, 50760, Note_on_c, 0, 72, 63
1, 50874, Note_on_c, 1, 55, 52
1, 50878, Note_on_c, 0, 72, 0
1, 50900, Note_on_c, 0, 71, 78
1, 51041, Note_on_c, 1, 59, 41
1, 51113, Note_on_c, 1, 55, 0
1, 51159, Note_on_c, 1, 59, 0
1, 51170, Note_on_c, 1, 67, 36
1, 51284, Note_on_c, 0, 71, 0
1, 51320, Note_on_c, 0, 72, 83
1, 51336, Note_on_c, 1, 57, 56
1, 51348, Note_on_c, 1, 67, 0
1, 51388, Note_on_c, 0, 74, 67
1, 51399, Note_on_c, 0, 72, 0
1, 51447, Note_on_c, 0, 72, 77
1, 51465, Note_on_c, 0, 74, 0
1, 51502, Note_on_c, 1, 60, 42
1, 51520, Note_on_c, 0, 72, 0
1, 51542, Note_on_c, 0, 74, 61
1, 51594, Note_on_c, 1, 57, 0
1, 51615, Note_on_c, 0, 72, 71
1, 51648, Note_on_c, 1, 67, 55
1, 51665, Note_on_c, 1, 60, 0
1, 51693, Note_on_c, 0, 71, 72
1, 51711, Note_on_c, 0, 72, 0
1, 51730, Note_on_c, 0, 74, 0
1, 51780, Note_on_c, 0, 72, 81
1, 51808, Note_on_c, 0, 71, 0
1, 51818, Note_on_c, 1, 59, 55
1, 51833, Note_on_c, 1, 67, 0
1, 51883, Note_on_c, 0, 74, 77
1, 51915, Note_on_c, 0, 72, 0
1, 51971, Note_on_c, 1, 62, 37
1, 52067, Note_on_c, 1, 59, 0
1, 52098, Note_on_c, 1, 62, 0
1, 52142, Note_on_c, 1, 67, 46
1, 52304, Note_on_c, 1, 67, 0
1, 52308, Note_on_c, 1, 55, 45
1, 52471, Note_on_c, 1, 59, 46
1, 52574, Note_on_c, 1, 55, 0
1, 52575, Note_on_c, 0, 74, 0
1, 52595, Note_on_c, 1, 59, 0
1, 52608, Note_on_c, 1, 67, 50
1, 52765, Note_on_c, 1, 67, 0
1, 52771, Note_on_c, 0, 76, 68
1, 52779, Note_on_c, 1, 60, 56
1, 52805, Note_on_c, 0, 78, 73
1, 52843, Note_on_c, 0, 76, 0
1, 52868, Note_on_c, 0, 79, 76
1, 52916, Note_on_c, 0, 78, 0
1, 52942, Note_on_c, 1, 64, 37
1, 52987, Note_on_c, 1, 60, 0
1, 53073, Note_on_c, 0, 79, 0
1, 53085, Note_on_c, 1, 67, 50
1, 53088, Note_on_c, 1, 64, 0
1, 53253, Note_on_c, 1, 67, 0
1, 53278, Note_on_c, 1, 60, 42
1, 53284, Note_on_c, 0, 79, 78
1, 53348, Note_on_c, 0, 79, 0
1, 53432, Note_on_c, 1, 64, 30
1, 53474, Note_on_c, 1, 60, 0
1, 53588, Note_on_c, 1, 67, 27
1, 53592, Note_on_c, 1, 64, 0
1, 53693, Note_on_c, 0, 79, 73
1, 53731, Note_on_c, 0, 79, 0
1, 53768, Note_on_c, 1, 60, 45
1, 53771, Note_on_c, 1, 67, 0
1, 53779, Note_on_c, 0, 79, 74
1, 53918, Note_on_c, 1, 64, 38
1, 53973, Note_on_c, 1, 60, 0
1, 54070, Note_on_c, 1, 67, 36
1, 54074, Note_on_c, 1, 64, 0
1, 54228, Note_on_c, 0, 78, 72
1, 54241, Note_on_c, 1, 60, 50
1, 54258, Note_on_c, 1, 67, 0
1, 54262, Note_on_c, 0, 79, 0
1, 54339, Note_on_c, 0, 76, 73
1, 54398, Note_on_c, 1, 64, 47
1, 54429, Note_on_c, 0, 78, 0
1, 54445, Note_on_c, 0, 76, 0
1, 54451, Note_on_c, 0, 74, 72
1, 54496, Note_on_c, 1, 60, 0
1, 54513, Note_on_c, 1, 64, 0
1, 54556, Note_on_c, 0, 72, 77
1, 54564, Note_on_c, 1, 67, 45
1, 54565, Note_on_c, 0, 74, 0
1, 54680, Note_on_c, 0, 72, 0
1, 54686, Note_on_c, 0, 71, 94
1, 54715, Note_on_c, 1, 67, 0
1, 54727, Note_on_c, 1, 55, 67
1, 54890, Note_on_c, 1, 59, 55
1, 55006, Note_on_c, 1, 55, 0
1, 55011, Note_on_c, 0, 74, 16
1, 55050, Note_on_c, 1, 67, 58
1, 55062, Note_on_c, 1, 59, 0
1, 55120, Note_on_c, 0, 74, 0
1, 55164, Note_on_c, 0, 71, 0
1, 55178, Note_on_c, 0, 72, 76
1, 55206, Note_on_c, 1, 57, 62
1, 55208, Note_on_c, 1, 67, 0
1, 55217, Note_on_c, 1, 55, 50
1, 55243, Note_on_c, 0, 74, 73
1, 55255, Note_on_c, 1, 55, 0
1, 55257, Note_on_c, 0, 72, 0
1, 55309, Note_on_c, 0, 72, 77
1, 55318, Note_on_c, 0, 74, 0
1, 55382, Note_on_c, 1, 60, 53
1, 55385, Note_on_c, 0, 74, 70
1, 55389, Note_on_c, 0, 72, 0
1, 55442, Note_on_c, 0, 72, 74
1, 55480, Note_on_c, 1, 57, 0
1, 55505, Note_on_c, 0, 74, 0
1, 55513, Note_on_c, 0, 71, 72
1, 55516, Note_on_c, 0, 72, 0
1, 55528, Note_on_c, 1, 67, 56
1, 55564, Note_on_c, 1, 60, 0
1, 55597, Note_on_c, 0, 72, 77
1, 55629, Note_on_c, 0, 71, 0
1, 55695, Note_on_c, 1, 59, 64
1, 55719, Note_on_c, 0, 74, 73
1, 55721, Note_on_c, 1, 67, 0
1, 55730, Note_on_c, 0, 72, 0
1, 55845, Note_on_c, 1, 62, 56
1, 55970, Note_on_c, 1, 59, 0
1, 55985, Note_on_c, 1, 62, 0
1, 55998, Note_on_c, 1, 67, 53
1, 56163, Note_on_c, 0, 74, 0
1, 56173, Note_on_c, 1, 55, 66
1, 56183, Note_on_c, 1, 67, 0
1, 56333, Note_on_c, 1, 59, 67
1, 56425, Note_on_c, 1, 55, 0
1, 56465, Note_on_c, 1, 59, 0
1, 56482, Note_on_c, 1, 67, 48
1, 56587, Note_on_c, 0, 76, 61
1, 56610, Note_on_c, 1, 67, 0
1, 56630, Note_on_c, 0, 78, 57
1, 56641, Note_on_c, 1, 60, 55
1, 56674, Note_on_c, 0, 76, 0
1, 56687, Note_on_c, 0, 79, 89
1, 56715, Note_on_c, 0, 78, 0
1, 56789, Note_on_c, 1, 64, 46
1, 56829, Note_on_c, 1, 60, 0
1, 56932, Note_on_c, 1, 64, 0
1, 56953, Note_on_c, 1, 67, 32
1, 57072, Note_on_c, 0, 79, 0
1, 57121, Note_on_c, 1, 67, 0
1, 57124, Note_on_c, 1, 60, 46
1, 57147, Note_on_c, 0, 79, 83
1, 57210, Note_on_c, 0, 79, 0
1, 57270, Note_on_c, 1, 64, 30
1, 57344, Note_on_c, 1, 60, 0
1, 57407, Note_on_c, 1, 67, 35
1, 57418, Note_on_c, 1, 64, 0
1, 57525, Note_on_c, 0, 79, 74
1, 57565, Note_on_c, 0, 79, 0
1, 57577, Note_on_c, 1, 60, 53
1, 57594, Note_on_c, 1, 67, 0
1, 57618, Note_on_c, 0, 79, 77
1, 57744, Note_on_c, 1, 64, 32
1, 57790, Note_on_c, 1, 60, 0
1, 57912, Note_on_c, 1, 67, 37
1, 57927, Note_on_c, 1, 64, 0
1, 58080, Note_on_c, 0, 78, 74
1, 58084, Note_on_c, 1, 60, 55
1, 58107, Note_on_c, 1, 67, 0
1, 58122, Note_on_c, 0, 79, 0
1, 58198, Note_on_c, 0, 78, 0
1, 58200, Note_on_c, 0, 76, 66
1, 58232, Note_on_c, 1, 64, 52
1, 58318, Note_on_c, 0, 76, 0
1, 58320, Note_on_c, 0, 74, 74
1, 58334, Note_on_c, 1, 60, 0
1, 58348, Note_on_c, 1, 64, 0
1, 58368, Note_on_c, 1, 67, 55
1, 58438, Note_on_c, 0, 74, 0
1, 58440, Note_on_c, 0, 72, 68
1, 58509, Note_on_c, 1, 67, 0
1, 58525, Note_on_c, 0, 71, 94
1, 58558, Note_on_c, 0, 72, 0
1, 58564, Note_on_c, 1, 55, 76
1, 58602, Note_on_c, 0, 71, 0
1, 58702, Note_on_c, 1, 55, 0
1, 58800, Note_on_c, 0, 79, 72
1, 58918, Note_on_c, 0, 79, 0
1, 58920, Note_on_c, 0, 81, 73
1, 59038, Note_on_c, 0, 81, 0
1, 59040, Note_on_c, 0, 83, 78
1, 59158, Note_on_c, 0, 83, 0
1, 59160, Note_on_c, 0, 81, 78
1, 59278, Note_on_c, 0, 81, 0
1, 59280, Note_on_c, 0, 79, 76
1, 59398, Note_on_c, 0, 79, 0
1, 59400, Note_on_c, 0, 78, 72
1, 59501, Note_on_c, 1, 48, 68
1, 59518, Note_on_c, 0, 78, 0
1, 59520, Note_on_c, 0, 76, 74
1, 59634, Note_on_c, 1, 48, 0
1, 59638, Note_on_c, 0, 76, 0
1, 59640, Note_on_c, 0, 74, 66
1, 59758, Note_on_c, 0, 74, 0
1, 59760, Note_on_c, 0, 72, 58
1, 59878, Note_on_c, 0, 72, 0
1, 59880, Note_on_c, 0, 71, 68
1, 59998, Note_on_c, 0, 71, 0
1, 60000, Note_on_c, 0, 69, 66
1, 60118, Note_on_c, 0, 69, 0
1, 60120, Note_on_c, 0, 67, 45
1, 60238, Note_on_c, 0, 67, 0
1, 60240, Note_on_c, 0, 66, 71
1, 60358, Note_on_c, 0, 66, 0
1, 60360, Note_on_c, 0, 64, 46
1, 60478, Note_on_c, 0, 64, 0
1, 60480, Note_on_c, 0, 62, 77
1, 60480, Note_on_c, 1, 50, 64
1, 60533, Note_on_c, 1, 50, 0
1, 60598, Note_on_c, 0, 62, 0
1, 60960, Note_on_c, 0, 60, 85
1, 60960, Note_on_c, 1, 51, 68
1, 60960, Note_on_c, 1, 57, 58
1, 60960, Note_on_c, 1, 54, 43
1, 61918, Note_on_c, 0, 60, 0
1, 61918, Note_on_c, 1, 51, 0
1, 61918, Note_on_c, 1, 57, 0
1, 61918, Note_on_c, 1, 54, 0
1, 61920, Note_on_c, 0, 59, 46
1, 61920, Note_on_c, 1, 55, 20
1, 61920, Note_on_c, 1, 52, 26
1, 62398, Note_on_c, 0, 59, 0
1, 62398, Note_on_c, 1, 55, 0
1, 62398, Note_on_c, 1, 52, 0
1, 62419, Note_on_c, 1, 52, 56
1, 62428, Note_on_c, 1, 48, 41
1, 62636, Note_on_c, 0, 57, 63
1, 62701, Note_on_c, 0, 57, 0
1, 62862, Note_on_c, 0, 60, 67
1, 62933, Note_on_c, 0, 60, 0
1, 63097, Note_on_c, 0, 64, 55
1, 63160, Note_on_c, 0, 64, 0
1, 63171, Note_on_c, 1, 48, 0
1, 63173, Note_on_c, 1, 52, 0
1, 63349, Note_on_c, 0, 68, 74
1, 63578, Note_on_c, 0, 69, 77
1, 63581, Note_on_c, 0, 68, 0
1, 63820, Note_on_c, 0, 72, 72
1, 63870, Note_on_c, 0, 69, 0
1, 64047, Note_on_c, 0, 72, 0
1, 64053, Note_on_c, 0, 76, 74
1, 64225, Note_on_c, 0, 76, 0
1, 64313, Note_on_c, 0, 76, 89
1, 64551, Note_on_c, 0, 67, 66
1, 64555, Note_on_c, 0, 76, 0
1, 64721, Note_on_c, 0, 67, 0
1, 64795, Note_on_c, 0, 67, 65
1, 64797, Note_on_c, 1, 59, 57
1, 64808, Note_on_c, 1, 50, 53
1, 65211, Note_on_c, 1, 50, 0
1, 65281, Note_on_c, 1, 60, 56
1, 65311, Note_on_c, 1, 50, 22
1, 65331, Note_on_c, 1, 59, 0
1, 65732, Note_on_c, 0, 71, 55
1, 65743, Note_on_c, 0, 66, 37
1, 65756, Note_on_c, 0, 67, 0
1, 65971, Note_on_c, 0, 69, 66
1, 66001, Note_on_c, 0, 71, 0
1, 66219, Note_on_c, 0, 69, 0
1, 66238, Note_on_c, 0, 67, 65
1, 66240, Note_on_c, 1, 59, 38
1, 66240, Note_on_c, 1, 55, 48
1, 66245, Note_on_c, 1, 60, 0
1, 66254, Note_on_c, 1, 50, 0
1, 66292, Note_on_c, 0, 66, 0
1, 66331, Note_on_c, 1, 59, 0
1, 66625, Note_on_c, 1, 55, 0
1, 66720, Note_on_c, 0, 67, 0
1, 66720, Note_on_c, 1, 43, 64
1, 66863, Note_on_c, 1, 43, 0
1, 67218, Note_on_c, 0, 74, 71
1, 67433, Note_on_c, 0, 71, 65
1, 67439, Note_on_c, 0, 74, 0
1, 67684, Note_on_c, 0, 79, 76
1, 67691, Note_on_c, 0, 71, 0
1, 67726, Note_on_c, 0, 79, 0
1, 67917, Note_on_c, 0, 78, 62
1, 67989, Note_on_c, 0, 78, 0
1, 68173, Note_on_c, 0, 76, 74
1, 68223, Note_on_c, 0, 76, 0
1, 68400, Note_on_c, 0, 74, 71
1, 68461, Note_on_c, 0, 74, 0
1, 68646, Note_on_c, 0, 72, 65
1, 68706, Note_on_c, 0, 72, 0
1, 68878, Note_on_c, 0, 71, 67
1, 68978, Note_on_c, 0, 71, 0
1, 69128, Note_on_c, 0, 69, 74
1, 69209, Note_on_c, 0, 69, 0
1, 69617, Note_on_c, 0, 71, 72
1, 69675, Note_on_c, 0, 71, 0
1, 70071, Note_on_c, 0, 74, 68
1, 70316, Note_on_c, 0, 73, 65
1, 70342, Note_on_c, 0, 74, 0
1, 70546, Note_on_c, 1, 62, 52
1, 70549, Note_on_c, 1, 54, 53
1, 70566, Note_on_c, 0, 72, 62
1, 70601, Note_on_c, 0, 73, 0
1, 71021, Note_on_c, 1, 54, 0
1, 71024, Note_on_c, 1, 55, 58
1, 71052, Note_on_c, 0, 71, 76
1, 71059, Note_on_c, 0, 72, 0
1, 71217, Note_on_c, 0, 71, 0
1, 71233, Note_on_c, 1, 62, 0
1, 71274, Note_on_c, 0, 72, 74
1, 71346, Note_on_c, 1, 55, 0
1, 71447, Note_on_c, 0, 72, 0
1, 71516, Note_on_c, 0, 74, 78
1, 71678, Note_on_c, 0, 74, 0
1, 71750, Note_on_c, 0, 75, 66
1, 71813, Note_on_c, 0, 75, 0
1, 71967, Note_on_c, 1, 48, 47
1, 71972, Note_on_c, 0, 76, 74
1, 71977, Note_on_c, 1, 55, 51
1, 72031, Note_on_c, 0, 78, 65
1, 72061, Note_on_c, 0, 76, 0
1, 72129, Note_on_c, 0, 76, 65
1, 72138, Note_on_c, 0, 78, 0
1, 72200, Note_on_c, 0, 76, 0
1, 72208, Note_on_c, 0, 75, 58
1, 72286, Note_on_c, 0, 76, 74
1, 72289, Note_on_c, 0, 75, 0
1, 72384, Note_on_c, 0, 78, 62
1, 72406, Note_on_c, 0, 76, 0
1, 72471, Note_on_c, 0, 79, 83
1, 72481, Note_on_c, 0, 78, 0
1, 72503, Note_on_c, 1, 48, 0
1, 72531, Note_on_c, 0, 79, 0
1, 72564, Note_on_c, 1, 55, 0
1, 72711, Note_on_c, 0, 78, 67
1, 72771, Note_on_c, 0, 78, 0
1, 72959, Note_on_c, 0, 76, 70
1, 73024, Note_on_c, 0, 76, 0
1, 73187, Note_on_c, 0, 74, 55
1, 73255, Note_on_c, 0, 74, 0
1, 73411, Note_on_c, 1, 49, 48
1, 73413, Note_on_c, 1, 52, 55
1, 73432, Note_on_c, 0, 72, 65
1, 73493, Note_on_c, 0, 72, 0
1, 73573, Note_on_c, 1, 49, 0
1, 73576, Note_on_c, 1, 52, 0
1, 73652, Note_on_c, 0, 71, 72
1, 73749, Note_on_c, 0, 71, 0
1, 73894, Note_on_c, 1, 50, 60
1, 73902, Note_on_c, 1, 55, 55
1, 73907, Note_on_c, 0, 74, 74
1, 74292, Note_on_c, 0, 71, 63
1, 74317, Note_on_c, 0, 74, 0
1, 74389, Note_on_c, 0, 69, 66
1, 74405, Note_on_c, 1, 54, 62
1, 74411, Note_on_c, 1, 55, 0
1, 74416, Note_on_c, 0, 71, 0
1, 74560, Note_on_c, 0, 69, 0
1, 74597, Note_on_c, 1, 54, 0
1, 74601, Note_on_c, 1, 50, 0
1, 74876, Note_on_c, 0, 74, 101
1, 74876, Note_on_c, 1, 62, 91
1, 75226, Note_on_c, 0, 76, 74
1, 75226, Note_on_c, 1, 64, 64
1, 75264, Note_on_c, 0, 74, 0
1, 75264, Note_on_c, 1, 62, 0
1, 75300, Note_on_c, 0, 78, 77
1, 75300, Note_on_c, 1, 66, 67
1, 75326, Note_on_c, 0, 76, 0
1, 75326, Note_on_c, 1, 64, 0
1, 75345, Note_on_c, 0, 79, 68
1, 75345, Note_on_c, 1, 67, 58
1, 75397, Note_on_c, 0, 78, 0
1, 75397, Note_on_c, 1, 66, 0
1, 75429, Note_on_c, 0, 79, 0
1, 75429, Note_on_c, 1, 67, 0
1, 75591, Note_on_c, 0, 78, 94
1, 75591, Note_on_c, 1, 66, 84
1, 75651, Note_on_c, 0, 78, 0
1, 75651, Note_on_c, 1, 66, 0
1, 75826, Note_on_c, 0, 76, 92
1, 75826, Note_on_c, 1, 64, 82
1, 75884, Note_on_c, 0, 76, 0
1, 75884, Note_on_c, 1, 64, 0
1, 76075, Note_on_c, 0, 74, 65
1, 76075, Note_on_c, 1, 62, 55
1, 76149, Note_on_c, 0, 74, 0
1, 76149, Note_on_c, 1, 62, 0
1, 76310, Note_on_c, 0, 72, 61
1, 76310, Note_on_c, 1, 60, 51
1, 76382, Note_on_c, 0, 72, 0
1, 76382, Note_on_c, 1, 60, 0
1, 76562, Note_on_c, 0, 71, 44
1, 76562, Note_on_c, 1, 59, 34
1, 76623, Note_on_c, 0, 71, 0
1, 76623, Note_on_c, 1, 59, 0
1, 76803, Note_on_c, 0, 69, 62
1, 76803, Note_on_c, 1, 57, 52
1, 76853, Note_on_c, 0, 69, 0
1, 76853, Note_on_c, 1, 57, 0
1, 77291, Note_on_c, 0, 71, 65
1, 77291, Note_on_c, 1, 59, 55
1, 77336, Note_on_c, 0, 71, 0
1, 77336, Note_on_c, 1, 59, 0
1, 77776, Note_on_c, 0, 72, 78
1, 77776, Note_on_c, 1, 60, 68
1, 77830, Note_on_c, 0, 72, 0
1, 77830, Note_on_c, 1, 60, 0
1, 78256, Note_on_c, 0, 73, 94
1, 78256, Note_on_c, 1, 61, 84
1, 78331, Note_on_c, 0, 73, 0
1, 78331, Note_on_c, 1, 61, 0
1, 78715, Note_on_c, 0, 74, 89
1, 78715, Note_on_c, 1, 62, 79
1, 78844, Note_on_c, 0, 74, 0
1, 78844, Note_on_c, 1, 62, 0
1, 79191, Note_on_c, 0, 75, 76
1, 79191, Note_on_c, 1, 63, 66
1, 79254, Note_on_c, 0, 75, 0
1, 79254, Note_on_c, 1, 63, 0
1, 79674, Note_on_c, 0, 76, 78
1, 79674, Note_on_c, 1, 64, 68
1, 79906, Note_on_c, 0, 76, 0
1, 79906, Note_on_c, 1, 64, 0
1, 80056, Note_on_c, 0, 64, 74
1, 80142, Note_on_c, 0, 72, 89
1, 80149, Note_on_c, 0, 64, 0
1, 80178, Note_on_c, 1, 57, 42
1, 80180, Note_on_c, 1, 48, 57
1, 80384, Note_on_c, 1, 48, 0
1, 80447, Note_on_c, 1, 57, 0
1, 80497, Note_on_c, 0, 72, 0
1, 80498, Note_on_c, 0, 69, 76
1, 80602, Note_on_c, 0, 69, 0
1, 80607, Note_on_c, 0, 67, 67
1, 80618, Note_on_c, 1, 59, 58
1, 80621, Note_on_c, 1, 50, 62
1, 80916, Note_on_c, 1, 59, 0
1, 81083, Note_on_c, 1, 60, 47
1, 81099, Note_on_c, 0, 71, 77
1, 81110, Note_on_c, 0, 66, 58
1, 81126, Note_on_c, 0, 67, 0
1, 81236, Note_on_c, 0, 69, 63
1, 81249, Note_on_c, 1, 50, 0
1, 81251, Note_on_c, 0, 71, 0
1, 81374, Note_on_c, 1, 60, 0
1, 81550, Note_on_c, 1, 55, 23
1, 81576, Note_on_c, 0, 69, 0
1, 81591, Note_on_c, 0, 67, 62
1, 81606, Note_on_c, 0, 66, 0
1, 81795, Note_on_c, 1, 59, 50
1, 82034, Note_on_c, 1, 62, 55
1, 82049, Note_on_c, 1, 59, 0
1, 82073, Note_on_c, 1, 55, 0
1, 82126, Note_on_c, 0, 67, 0
1, 82224, Note_on_c, 0, 79, 72
1, 82311, Note_on_c, 1, 59, 58
1, 82314, Note_on_c, 1, 62, 0
1, 82344, Note_on_c, 0, 81, 67
1, 82356, Note_on_c, 0, 79, 0
1, 82450, Note_on_c, 0, 79, 78
1, 82524, Note_on_c, 0, 81, 0
1, 82569, Note_on_c, 0, 76, 89
1, 82573, Note_on_c, 0, 79, 0
1, 82584, Note_on_c, 1, 55, 57
1, 82587, Note_on_c, 1, 59, 0
1, 82681, Note_on_c, 0, 79, 94
1, 82713, Note_on_c, 0, 76, 0
1, 82784, Note_on_c, 1, 55, 0
1, 82787, Note_on_c, 1, 60, 32
1, 82804, Note_on_c, 0, 81, 74
1, 82815, Note_on_c, 0, 79, 0
1, 82913, Note_on_c, 0, 79, 89
1, 82939, Note_on_c, 0, 81, 0
1, 83016, Note_on_c, 0, 79, 0
1, 83033, Note_on_c, 1, 64, 45
1, 83062, Note_on_c, 0, 84, 77
1, 83073, Note_on_c, 1, 60, 0
1, 83166, Note_on_c, 0, 79, 83
1, 83169, Note_on_c, 0, 84, 0
1, 83271, Note_on_c, 1, 60, 35
1, 83281, Note_on_c, 0, 76, 92
1, 83308, Note_on_c, 0, 79, 0
1, 83316, Note_on_c, 1, 64, 0
1, 83387, Note_on_c, 0, 72, 89
1, 83417, Note_on_c, 0, 76, 0
1, 83471, Note_on_c, 1, 60, 0
1, 83488, Note_on_c, 1, 55, 46
1, 83515, Note_on_c, 0, 79, 89
1, 83538, Note_on_c, 0, 72, 0
1, 83568, Note_on_c, 0, 79, 0
1, 83726, Note_on_c, 1, 59, 57
1, 83769, Note_on_c, 1, 55, 0
1, 83785, Note_on_c, 0, 79, 67
1, 83864, Note_on_c, 0, 79, 0
1, 83988, Note_on_c, 1, 62, 35
1, 83998, Note_on_c, 1, 59, 0
1, 84131, Note_on_c, 0, 79, 76
1, 84234, Note_on_c, 1, 62, 0
1, 84236, Note_on_c, 1, 59, 40
1, 84252, Note_on_c, 0, 81, 74
1, 84256, Note_on_c, 0, 79, 0
1, 84349, Note_on_c, 0, 79, 83
1, 84393, Note_on_c, 0, 81, 0
1, 84464, Note_on_c, 0, 79, 0
1, 84470, Note_on_c, 0, 76, 94
1, 84485, Note_on_c, 1, 55, 56
1, 84495, Note_on_c, 1, 59, 0
1, 84592, Note_on_c, 0, 79, 94
1, 84617, Note_on_c, 0, 76, 0
1, 84701, Note_on_c, 0, 81, 74
1, 84704, Note_on_c, 1, 60, 38
1, 84718, Note_on_c, 0, 79, 0
1, 84749, Note_on_c, 1, 55, 0
1, 84809, Note_on_c, 0, 79, 86
1, 84842, Note_on_c, 0, 81, 0
1, 84898, Note_on_c, 0, 79, 0
1, 84937, Note_on_c, 1, 64, 40
1, 84946, Note_on_c, 0, 84, 77
1, 85053, Note_on_c, 0, 79, 89
1, 85056, Note_on_c, 0, 84, 0
1, 85076, Note_on_c, 1, 64, 0
1, 85173, Note_on_c, 0, 76, 89
1, 85181, Note_on_c, 1, 60, 0
1, 85205, Note_on_c, 0, 79, 0
1, 85277, Note_on_c, 0, 72, 86
1, 85316, Note_on_c, 0, 76, 0
1, 85398, Note_on_c, 1, 55, 46
1, 85400, Note_on_c, 1, 62, 56
1, 85404, Note_on_c, 1, 59, 46
1, 85409, Note_on_c, 0, 79, 81
1, 85427, Note_on_c, 0, 72, 0
1, 85463, Note_on_c, 0, 79, 0
1, 85538, Note_on_c, 1, 62, 0
1, 85568, Note_on_c, 1, 59, 0
1, 85586, Note_on_c, 1, 55, 0
1, 85661, Note_on_c, 0, 79, 77
1, 85710, Note_on_c, 0, 79, 0
1, 85913, Note_on_c, 1, 72, 63
1, 86053, Note_on_c, 0, 74, 67
1, 86152, Note_on_c, 0, 78, 65
1, 86175, Note_on_c, 0, 74, 0
1, 86266, Note_on_c, 0, 74, 62
1, 86310, Note_on_c, 0, 78, 0
1, 86376, Note_on_c, 1, 71, 53
1, 86389, Note_on_c, 0, 79, 72
1, 86399, Note_on_c, 0, 74, 0
1, 86418, Note_on_c, 1, 72, 0
1, 86436, Note_on_c, 0, 79, 0
1, 86444, Note_on_c, 1, 71, 0
1, 86603, Note_on_c, 0, 79, 62
1, 86647, Note_on_c, 0, 79, 0
1, 86849, Note_on_c, 1, 72, 62
1, 86992, Note_on_c, 0, 74, 66
1, 87109, Note_on_c, 0, 78, 65
1, 87137, Note_on_c, 0, 74, 0
1, 87219, Note_on_c, 0, 74, 67
1, 87241, Note_on_c, 0, 78, 0
1, 87341, Note_on_c, 0, 79, 78
1, 87346, Note_on_c, 1, 71, 61
1, 87348, Note_on_c, 0, 78, 48
1, 87369, Note_on_c, 0, 78, 0
1, 87371, Note_on_c, 0, 74, 0
1, 87380, Note_on_c, 1, 72, 0
1, 87389, Note_on_c, 0, 79, 0
1, 87444, Note_on_c, 1, 71, 0
1, 87594, Note_on_c, 0, 79, 67
1, 87643, Note_on_c, 0, 79, 0
1, 87838, Note_on_c, 1, 66, 56
1, 87912, Note_on_c, 1, 66, 0
1, 87991, Note_on_c, 0, 74, 66
1, 88096, Note_on_c, 0, 74, 0
1, 88101, Note_on_c, 0, 81, 63
1, 88112, Note_on_c, 1, 66, 51
1, 88191, Note_on_c, 1, 66, 0
1, 88217, Note_on_c, 0, 81, 0
1, 88229, Note_on_c, 0, 74, 42
1, 88323, Note_on_c, 0, 74, 0
1, 88340, Note_on_c, 0, 83, 78
1, 88358, Note_on_c, 1, 67, 57
1, 88422, Note_on_c, 0, 83, 0
1, 88422, Note_on_c, 1, 67, 0
1, 88433, Note_on_c, 0, 74, 65
1, 88556, Note_on_c, 0, 83, 86
1, 88559, Note_on_c, 0, 74, 0
1, 88576, Note_on_c, 1, 67, 68
1, 88647, Note_on_c, 1, 67, 0
1, 88664, Note_on_c, 0, 83, 0
1, 88666, Note_on_c, 0, 74, 74
1, 88773, Note_on_c, 0, 74, 0
1, 88779, Note_on_c, 1, 69, 66
1, 88793, Note_on_c, 0, 84, 89
1, 88851, Note_on_c, 1, 69, 0
1, 88881, Note_on_c, 0, 84, 0
1, 88893, Note_on_c, 0, 74, 74
1, 89006, Note_on_c, 1, 69, 71
1, 89016, Note_on_c, 0, 84, 89
1, 89018, Note_on_c, 0, 74, 0
1, 89095, Note_on_c, 1, 69, 0
1, 89117, Note_on_c, 0, 84, 0
1, 89126, Note_on_c, 0, 74, 83
1, 89199, Note_on_c, 0, 74, 0
1, 89256, Note_on_c, 1, 71, 64
1, 89260, Note_on_c, 0, 86, 94
1, 89518, Note_on_c, 0, 83, 71
1, 89521, Note_on_c, 1, 71, 0
1, 89533, Note_on_c, 0, 86, 0
1, 89581, Note_on_c, 0, 83, 0
1, 89761, Note_on_c, 0, 79, 68
1, 90008, Note_on_c, 0, 83, 74
1, 90046, Note_on_c, 0, 79, 0
1, 90057, Note_on_c, 0, 83, 0
1, 90271, Note_on_c, 0, 74, 68
1, 90486, Note_on_c, 0, 79, 65
1, 90495, Note_on_c, 0, 74, 0
1, 90540, Note_on_c, 0, 79, 0
1, 90753, Note_on_c, 0, 71, 72
1, 90977, Note_on_c, 0, 71, 0
1, 90980, Note_on_c, 0, 74, 73
1, 91070, Note_on_c, 0, 74, 0
1, 91256, Note_on_c, 0, 69, 83
1, 91485, Note_on_c, 0, 76, 76
1, 91495, Note_on_c, 0, 69, 0
1, 91680, Note_on_c, 0, 74, 77
1, 91690, Note_on_c, 1, 48, 57
1, 91693, Note_on_c, 1, 52, 58
1, 91696, Note_on_c, 1, 57, 55
1, 91747, Note_on_c, 0, 76, 0
1, 91800, Note_on_c, 0, 72, 92
1, 91841, Note_on_c, 0, 74, 0
1, 91920, Note_on_c, 0, 71, 74
1, 91930, Note_on_c, 0, 72, 0
1, 92000, Note_on_c, 1, 48, 0
1, 92001, Note_on_c, 1, 52, 0
1, 92011, Note_on_c, 1, 57, 0
1, 92040, Note_on_c, 0, 71, 0
1, 92040, Note_on_c, 0, 69, 76
1, 92164, Note_on_c, 0, 69, 0
1, 92199, Note_on_c, 1, 55, 53
1, 92202, Note_on_c, 1, 59, 60
1, 92205, Note_on_c, 1, 50, 55
1, 92206, Note_on_c, 0, 67, 71
1, 92549, Note_on_c, 1, 55, 0
1, 92653, Note_on_c, 0, 67, 0
1, 92664, Note_on_c, 0, 66, 67
1, 92681, Note_on_c, 1, 60, 56
1, 92697, Note_on_c, 1, 57, 53
1, 92708, Note_on_c, 1, 59, 0
1, 92769, Note_on_c, 0, 67, 72
1, 92791, Note_on_c, 0, 66, 0
1, 92855, Note_on_c, 0, 66, 67
1, 92881, Note_on_c, 0, 67, 0
1, 92938, Note_on_c, 0, 64, 73
1, 92941, Note_on_c, 0, 66, 0
1, 93002, Note_on_c, 1, 50, 0
1, 93016, Note_on_c, 0, 66, 74
1, 93022, Note_on_c, 1, 60, 0
1, 93066, Note_on_c, 0, 64, 0
1, 93082, Note_on_c, 1, 57, 0
1, 93165, Note_on_c, 0, 67, 78
1, 93169, Note_on_c, 0, 66, 0
1, 93173, Note_on_c, 1, 55, 56
1, 93402, Note_on_c, 1, 59, 41
1, 93486, Note_on_c, 1, 55, 0
1, 93584, Note_on_c, 0, 67, 0
1, 93649, Note_on_c, 1, 62, 46
1, 93683, Note_on_c, 1, 59, 0
1, 93731, Note_on_c, 0, 79, 76
1, 93852, Note_on_c, 0, 81, 74
1, 93856, Note_on_c, 0, 79, 0
1, 93867, Note_on_c, 1, 59, 58
1, 93888, Note_on_c, 1, 62, 0
1, 93949, Note_on_c, 0, 79, 83
1, 93993, Note_on_c, 0, 81, 0
1, 94064, Note_on_c, 0, 79, 0
1, 94070, Note_on_c, 0, 76, 94
1, 94090, Note_on_c, 1, 55, 45
1, 94107, Note_on_c, 1, 59, 0
1, 94192, Note_on_c, 0, 79, 94
1, 94217, Note_on_c, 0, 76, 0
1, 94276, Note_on_c, 1, 55, 0
1, 94301, Note_on_c, 0, 81, 74
1, 94310, Note_on_c, 1, 60, 47
1, 94318, Note_on_c, 0, 79, 0
1, 94409, Note_on_c, 0, 79, 86
1, 94442, Note_on_c, 0, 81, 0
1, 94498, Note_on_c, 0, 79, 0
1, 94546, Note_on_c, 0, 84, 77
1, 94558, Note_on_c, 1, 64, 56
1, 94593, Note_on_c, 1, 60, 0
1, 94653, Note_on_c, 0, 79, 89
1, 94656, Note_on_c, 0, 84, 0
1, 94773, Note_on_c, 0, 76, 89
1, 94805, Note_on_c, 0, 79, 0
1, 94809, Note_on_c, 1, 60, 56
1, 94836, Note_on_c, 1, 64, 0
1, 94877, Note_on_c, 0, 72, 86
1, 94916, Note_on_c, 0, 76, 0
1, 95004, Note_on_c, 1, 60, 0
1, 95008, Note_on_c, 1, 55, 48
1, 95009, Note_on_c, 0, 79, 81
1, 95027, Note_on_c, 0, 72, 0
1, 95063, Note_on_c, 0, 79, 0
1, 95254, Note_on_c, 1, 59, 47
1, 95261, Note_on_c, 0, 79, 77
1, 95289, Note_on_c, 1, 55, 0
1, 95310, Note_on_c, 0, 79, 0
1, 95504, Note_on_c, 1, 62, 48
1, 95512, Note_on_c, 1, 59, 0
1, 95651, Note_on_c, 0, 79, 76
1, 95749, Note_on_c, 1, 59, 55
1, 95769, Note_on_c, 1, 62, 0
1, 95772, Note_on_c, 0, 81, 74
1, 95776, Note_on_c, 0, 79, 0
1, 95869, Note_on_c, 0, 79, 83
1, 95913, Note_on_c, 0, 81, 0
1, 95983, Note_on_c, 1, 55, 46
1, 95984, Note_on_c, 0, 79, 0
1, 95990, Note_on_c, 0, 76, 94
1, 95992, Note_on_c, 1, 59, 0
1, 96112, Note_on_c, 0, 79, 94
1, 96137, Note_on_c, 0, 76, 0
1, 96201, Note_on_c, 1, 55, 0
1, 96212, Note_on_c, 1, 60, 46
1, 96221, Note_on_c, 0, 81, 74
1, 96238, Note_on_c, 0, 79, 0
1, 96329, Note_on_c, 0, 79, 86
1, 96362, Note_on_c, 0, 81, 0
1, 96418, Note_on_c, 0, 79, 0
1, 96455, Note_on_c, 1, 64, 55
1, 96466, Note_on_c, 0, 84, 77
1, 96486, Note_on_c, 1, 60, 0
1, 96573, Note_on_c, 0, 79, 89
1, 96576, Note_on_c, 0, 84, 0
1, 96693, Note_on_c, 0, 76, 89
1, 96695, Note_on_c, 1, 60, 56
1, 96697, Note_on_c, 1, 64, 0
1, 96725, Note_on_c, 0, 79, 0
1, 96797, Note_on_c, 0, 72, 86
1, 96836, Note_on_c, 0, 76, 0
1, 96929, Note_on_c, 0, 79, 81
1, 96940, Note_on_c, 1, 60, 0
1, 96942, Note_on_c, 1, 62, 61
1, 96944, Note_on_c, 1, 55, 31
1, 96947, Note_on_c, 0, 72, 0
1, 96947, Note_on_c, 1, 59, 61
1, 96983, Note_on_c, 0, 79, 0
1, 97067, Note_on_c, 1, 62, 0
1, 97084, Note_on_c, 1, 55, 0
1, 97086, Note_on_c, 1, 59, 0
1, 97181, Note_on_c, 0, 79, 77
1, 97230, Note_on_c, 0, 79, 0
1, 97446, Note_on_c, 1, 72, 64
1, 97589, Note_on_c, 0, 74, 76
1, 97700, Note_on_c, 0, 78, 71
1, 97724, Note_on_c, 0, 74, 0
1, 97806, Note_on_c, 0, 74, 78
1, 97814, Note_on_c, 0, 78, 0
1, 97876, Note_on_c, 0, 74, 0
1, 97925, Note_on_c, 1, 71, 61
1, 97926, Note_on_c, 0, 79, 83
1, 97954, Note_on_c, 1, 72, 0
1, 97991, Note_on_c, 0, 79, 0
1, 98007, Note_on_c, 1, 71, 0
1, 98164, Note_on_c, 0, 79, 78
1, 98216, Note_on_c, 0, 79, 0
1, 98405, Note_on_c, 1, 72, 67
1, 98523, Note_on_c, 0, 74, 70
1, 98633, Note_on_c, 0, 74, 0
1, 98640, Note_on_c, 0, 78, 66
1, 98734, Note_on_c, 0, 74, 78
1, 98744, Note_on_c, 0, 78, 0
1, 98866, Note_on_c, 0, 79, 77
1, 98878, Note_on_c, 0, 74, 0
1, 98881, Note_on_c, 1, 71, 62
1, 98904, Note_on_c, 1, 72, 0
1, 98937, Note_on_c, 0, 79, 0
1, 98945, Note_on_c, 1, 71, 0
1, 99115, Note_on_c, 0, 79, 76
1, 99166, Note_on_c, 0, 79, 0
1, 99364, Note_on_c, 1, 66, 52
1, 99431, Note_on_c, 1, 66, 0
1, 99485, Note_on_c, 0, 74, 74
1, 99594, Note_on_c, 0, 74, 0
1, 99603, Note_on_c, 0, 81, 67
1, 99618, Note_on_c, 1, 66, 48
1, 99682, Note_on_c, 0, 81, 0
1, 99687, Note_on_c, 1, 66, 0
1, 99718, Note_on_c, 0, 74, 43
1, 99856, Note_on_c, 0, 83, 51
1, 99884, Note_on_c, 0, 74, 0
1, 99886, Note_on_c, 1, 67, 67
1, 99938, Note_on_c, 0, 83, 0
1, 99938, Note_on_c, 1, 67, 0
1, 99961, Note_on_c, 0, 74, 76
1, 100076, Note_on_c, 0, 74, 0
1, 100081, Note_on_c, 0, 83, 83
1, 100097, Note_on_c, 1, 67, 68
1, 100163, Note_on_c, 1, 67, 0
1, 100171, Note_on_c, 0, 83, 0
1, 100192, Note_on_c, 0, 74, 74
1, 100318, Note_on_c, 1, 69, 68
1, 100326, Note_on_c, 0, 84, 94
1, 100346, Note_on_c, 0, 74, 0
1, 100385, Note_on_c, 1, 69, 0
1, 100426, Note_on_c, 0, 84, 0
1, 100449, Note_on_c, 0, 74, 74
1, 100544, Note_on_c, 0, 74, 0
1, 100551, Note_on_c, 1, 69, 68
1, 100563, Note_on_c, 0, 84, 81
1, 100626, Note_on_c, 1, 69, 0
1, 100658, Note_on_c, 0, 74, 74
1, 100671, Note_on_c, 0, 84, 0
1, 100718, Note_on_c, 0, 74, 0
1, 100786, Note_on_c, 0, 86, 89
1, 100803, Note_on_c, 1, 71, 62
1, 100908, Note_on_c, 0, 83, 97
1, 100916, Note_on_c, 0, 86, 0
1, 101026, Note_on_c, 0, 86, 76
1, 101036, Note_on_c, 0, 83, 0
1, 101151, Note_on_c, 0, 83, 94
1, 101181, Note_on_c, 0, 86, 0
1, 101199, Note_on_c, 1, 71, 0
1, 101270, Note_on_c, 0, 83, 0
1, 101272, Note_on_c, 0, 79, 89
1, 101373, Note_on_c, 0, 83, 83
1, 101386, Note_on_c, 0, 79, 0
1, 101493, Note_on_c, 0, 83, 0
1, 101496, Note_on_c, 0, 79, 76
1, 101604, Note_on_c, 0, 83, 77
1, 101612, Note_on_c, 0, 79, 0
1, 101723, Note_on_c, 0, 83, 0
1, 101732, Note_on_c, 0, 74, 83
1, 101822, Note_on_c, 0, 74, 0
1, 101838, Note_on_c, 0, 79, 66
1, 101956, Note_on_c, 0, 79, 0
1, 101970, Note_on_c, 0, 74, 77
1, 102080, Note_on_c, 0, 79, 74
1, 102103, Note_on_c, 0, 74, 0
1, 102196, Note_on_c, 0, 79, 0
1, 102210, Note_on_c, 0, 71, 83
1, 102333, Note_on_c, 0, 74, 71
1, 102343, Note_on_c, 0, 71, 0
1, 102453, Note_on_c, 0, 74, 0
1, 102457, Note_on_c, 0, 71, 73
1, 102568, Note_on_c, 0, 74, 89
1, 102580, Note_on_c, 0, 71, 0
1, 102662, Note_on_c, 0, 74, 0
1, 102717, Note_on_c, 0, 69, 78
1, 102819, Note_on_c, 0, 76, 74
1, 102862, Note_on_c, 0, 69, 0
1, 102952, Note_on_c, 0, 75, 65
1, 102982, Note_on_c, 0, 76, 0
1, 103069, Note_on_c, 0, 76, 60
1, 103073, Note_on_c, 0, 75, 0
1, 103191, Note_on_c, 0, 74, 83
1, 103200, Note_on_c, 1, 52, 46
1, 103203, Note_on_c, 1, 48, 37
1, 103205, Note_on_c, 1, 57, 46
1, 103223, Note_on_c, 0, 76, 0
1, 103299, Note_on_c, 0, 72, 92
1, 103364, Note_on_c, 0, 74, 0
1, 103401, Note_on_c, 0, 71, 76
1, 103404, Note_on_c, 0, 72, 0
1, 103479, Note_on_c, 0, 71, 0
1, 103485, Note_on_c, 1, 57, 0
1, 103498, Note_on_c, 1, 48, 0
1, 103500, Note_on_c, 1, 52, 0
1, 103528, Note_on_c, 0, 69, 74
1, 103636, Note_on_c, 0, 69, 0
1, 103669, Note_on_c, 0, 67, 94
1, 103696, Note_on_c, 1, 55, 51
1, 103698, Note_on_c, 1, 59, 51
1, 103701, Note_on_c, 1, 50, 51
1, 103941, Note_on_c, 1, 55, 0
1, 104091, Note_on_c, 0, 67, 0
1, 104177, Note_on_c, 0, 66, 55
1, 104187, Note_on_c, 1, 60, 64
1, 104190, Note_on_c, 1, 57, 51
1, 104240, Note_on_c, 0, 66, 0
1, 104246, Note_on_c, 0, 67, 76
1, 104266, Note_on_c, 1, 59, 0
1, 104308, Note_on_c, 0, 66, 74
1, 104323, Note_on_c, 0, 67, 0
1, 104380, Note_on_c, 0, 66, 0
1, 104397, Note_on_c, 0, 67, 68
1, 104447, Note_on_c, 0, 66, 73
1, 104491, Note_on_c, 0, 67, 0
1, 104518, Note_on_c, 0, 64, 68
1, 104529, Note_on_c, 0, 66, 0
1, 104537, Note_on_c, 1, 57, 0
1, 104600, Note_on_c, 0, 66, 68
1, 104636, Note_on_c, 1, 60, 0
1, 104644, Note_on_c, 0, 64, 0
1, 104664, Note_on_c, 1, 50, 0
1, 104669, Note_on_c, 0, 66, 0
1, 104696, Note_on_c, 0, 67, 89
1, 104696, Note_on_c, 1, 55, 79
1, 104823, Note_on_c, 0, 62, 29
1, 104823, Note_on_c, 1, 50, 19
1, 104864, Note_on_c, 0, 62, 0
1, 104864, Note_on_c, 1, 50, 0
1, 105039, Note_on_c, 0, 62, 71
1, 105039, Note_on_c, 1, 50, 61
1, 105048, Note_on_c, 0, 67, 0
1, 105048, Note_on_c, 1, 55, 0
1, 105127, Note_on_c, 0, 62, 0
1, 105127, Note_on_c, 1, 50, 0
1, 105146, Note_on_c, 0, 71, 92
1, 105146, Note_on_c, 1, 59, 82
1, 105476, Note_on_c, 0, 67, 70
1, 105476, Note_on_c, 1, 55, 60
1, 105484, Note_on_c, 0, 71, 0
1, 105484, Note_on_c, 1, 59, 0
1, 105580, Note_on_c, 0, 74, 89
1, 105580, Note_on_c, 1, 62, 79
1, 105586, Note_on_c, 0, 67, 0
1, 105586, Note_on_c, 1, 55, 0
1, 105712, Note_on_c, 0, 74, 0
1, 105712, Note_on_c, 1, 62, 0
1, 106086, Note_on_c, 0, 81, 74
1, 106209, Note_on_c, 0, 81, 0
1, 106210, Note_on_c, 0, 79, 66
1, 106344, Note_on_c, 0, 78, 56
1, 106362, Note_on_c, 0, 79, 0
1, 106445, Note_on_c, 0, 76, 78
1, 106453, Note_on_c, 0, 78, 0
1, 106553, Note_on_c, 0, 76, 0
1, 106584, Note_on_c, 0, 74, 76
1, 106584, Note_on_c, 1, 59, 66
1, 106584, Note_on_c, 1, 55, 66
1, 106584, Note_on_c, 1, 50, 66
1, 106919, Note_on_c, 0, 74, 0
1, 106919, Note_on_c, 1, 59, 0
1, 106919, Note_on_c, 1, 55, 0
1, 106919, Note_on_c, 1, 50, 0
1, 107085, Note_on_c, 0, 76, 68
1, 107198, Note_on_c, 0, 74, 53
1, 107213, Note_on_c, 0, 76, 0
1, 107317, Note_on_c, 0, 72, 62
1, 107382, Note_on_c, 0, 74, 0
1, 107404, Note_on_c, 0, 71, 65
1, 107418, Note_on_c, 0, 72, 0
1, 107543, Note_on_c, 0, 69, 56
1, 107543, Note_on_c, 1, 54, 46
1, 107543, Note_on_c, 1, 60, 46
1, 107543, Note_on_c, 1, 50, 46
1, 107547, Note_on_c, 0, 71, 0
1, 107996, Note_on_c, 0, 69, 0
1, 107996, Note_on_c, 1, 54, 0
1, 107996, Note_on_c, 1, 60, 0
1, 107996, Note_on_c, 1, 50, 0
1, 108006, Note_on_c, 0, 74, 50
1, 108115, Note_on_c, 0, 72, 46
1, 108141, Note_on_c, 0, 74, 0
1, 108252, Note_on_c, 0, 71, 55
1, 108294, Note_on_c, 0, 72, 0
1, 108373, Note_on_c, 0, 71, 0
1, 108375, Note_on_c, 0, 69, 55
1, 108461, Note_on_c, 0, 69, 0
1, 108533, Note_on_c, 0, 67, 92
1, 108533, Note_on_c, 1, 55, 82
1, 108606, Note_on_c, 0, 67, 0
1, 108606, Note_on_c, 1, 55, 0
1, 108646, Note_on_c, 0, 62, 89
1, 108646, Note_on_c, 1, 50, 79
1, 108703, Note_on_c, 0, 62, 0
1, 108703, Note_on_c, 1, 50, 0
1, 108771, Note_on_c, 0, 67, 78
1, 108771, Note_on_c, 1, 55, 68
1, 108876, Note_on_c, 0, 62, 86
1, 108876, Note_on_c, 1, 50, 76
1, 108881, Note_on_c, 0, 67, 0
1, 108881, Note_on_c, 1, 55, 0
1, 108956, Note_on_c, 0, 62, 0
1, 108956, Note_on_c, 1, 50, 0
1, 108986, Note_on_c, 0, 71, 79
1, 108986, Note_on_c, 1, 59, 69
1, 109086, Note_on_c, 0, 67, 74
1, 109086, Note_on_c, 1, 55, 64
1, 109091, Note_on_c, 0, 71, 0
1, 109091, Note_on_c, 1, 59, 0
1, 109205, Note_on_c, 0, 71, 86
1, 109205, Note_on_c, 1, 59, 76
1, 109216, Note_on_c, 0, 67, 0
1, 109216, Note_on_c, 1, 55, 0
1, 109306, Note_on_c, 0, 67, 74
1, 109306, Note_on_c, 1, 55, 64
1, 109337, Note_on_c, 0, 71, 0
1, 109337, Note_on_c, 1, 59, 0
1, 109416, Note_on_c, 0, 67, 0
1, 109416, Note_on_c, 1, 55, 0
1, 109436, Note_on_c, 0, 74, 86
1, 109436, Note_on_c, 1, 62, 76
1, 109539, Note_on_c, 0, 74, 0
1, 109539, Note_on_c, 1, 62, 0
1, 109913, Note_on_c, 0, 81, 52
1, 110026, Note_on_c, 0, 79, 76
1, 110059, Note_on_c, 0, 81, 0
1, 110145, Note_on_c, 0, 78, 68
1, 110178, Note_on_c, 0, 79, 0
1, 110260, Note_on_c, 0, 76, 74
1, 110310, Note_on_c, 0, 78, 0
1, 110388, Note_on_c, 0, 76, 0
1, 110389, Note_on_c, 0, 74, 76
1, 110424, Note_on_c, 1, 50, 66
1, 110424, Note_on_c, 1, 55, 66
1, 110424, Note_on_c, 1, 59, 66
1, 110462, Note_on_c, 0, 74, 0
1, 110646, Note_on_c, 0, 74, 68
1, 110709, Note_on_c, 0, 74, 0
1, 110759, Note_on_c, 1, 50, 0
1, 110759, Note_on_c, 1, 55, 0
1, 110759, Note_on_c, 1, 59, 0
1, 110896, Note_on_c, 0, 76, 74
1, 111001, Note_on_c, 0, 74, 68
1, 111031, Note_on_c, 0, 76, 0
1, 111111, Note_on_c, 0, 72, 86
1, 111138, Note_on_c, 0, 74, 0
1, 111223, Note_on_c, 0, 71, 70
1, 111225, Note_on_c, 0, 72, 0
1, 111367, Note_on_c, 0, 69, 77
1, 111379, Note_on_c, 0, 71, 0
1, 111383, Note_on_c, 1, 50, 46
1, 111383, Note_on_c, 1, 60, 46
1, 111383, Note_on_c, 1, 54, 46
1, 111421, Note_on_c, 0, 69, 0
1, 111598, Note_on_c, 0, 69, 65
1, 111724, Note_on_c, 0, 69, 0
1, 111836, Note_on_c, 1, 50, 0
1, 111836, Note_on_c, 1, 60, 0
1, 111836, Note_on_c, 1, 54, 0
1, 111851, Note_on_c, 0, 74, 71
1, 111956, Note_on_c, 0, 72, 62
1, 111977, Note_on_c, 0, 74, 0
1, 112066, Note_on_c, 0, 71, 76
1, 112115, Note_on_c, 0, 72, 0
1, 112164, Note_on_c, 0, 71, 0
1, 112179, Note_on_c, 0, 69, 71
1, 112279, Note_on_c, 0, 69, 0
1, 112310, Note_on_c, 0, 67, 83
1, 112310, Note_on_c, 1, 59, 73
1, 112310, Note_on_c, 1, 55, 73
1, 112371, Note_on_c, 0, 67, 0
1, 112371, Note_on_c, 1, 59, 0
1, 112371, Note_on_c, 1, 55, 0
1, 112816, Note_on_c, 0, 71, 56
1, 112816, Note_on_c, 1, 55, 46
1, 112821, Note_on_c, 0, 62, 56
1, 112899, Note_on_c, 0, 62, 0
1, 112915, Note_on_c, 0, 71, 0
1, 112915, Note_on_c, 1, 55, 0
1, 113294, Note_on_c, 0, 67, 62
1, 113297, Note_on_c, 0, 59, 55
1, 113297, Note_on_c, 1, 43, 45
1, 113589, Note_on_c, 0, 67, 0
1, 113608, Note_on_c, 0, 59, 0
1, 113608, Note_on_c, 1, 43, 0
1, 114240, Note_on_c, 1, 64, 46
1, 114281, Note_on_c, 0, 79, 76
1, 114463, Note_on_c, 0, 79, 0
1, 114504, Note_on_c, 1, 60, 29
1, 114507, Note_on_c, 1, 64, 0
1, 114712, Note_on_c, 1, 60, 0
1, 114729, Note_on_c, 1, 64, 55
1, 114752, Note_on_c, 0, 79, 74
1, 114955, Note_on_c, 1, 60, 46
1, 114967, Note_on_c, 1, 64, 0
1, 115203, Note_on_c, 1, 64, 45
1, 115213, Note_on_c, 1, 60, 0
1, 115427, Note_on_c, 1, 60, 56
1, 115433, Note_on_c, 1, 64, 0
1, 115495, Note_on_c, 0, 77, 68
1, 115569, Note_on_c, 0, 79, 0
1, 115606, Note_on_c, 0, 76, 94
1, 115644, Note_on_c, 0, 77, 0
1, 115660, Note_on_c, 0, 76, 0
1, 115701, Note_on_c, 1, 60, 0
1, 115703, Note_on_c, 1, 65, 36
1, 115730, Note_on_c, 0, 76, 78
1, 115823, Note_on_c, 0, 74, 77
1, 115833, Note_on_c, 0, 76, 0
1, 115908, Note_on_c, 1, 60, 33
1, 115911, Note_on_c, 1, 65, 0
1, 115939, Note_on_c, 0, 72, 83
1, 116028, Note_on_c, 0, 74, 0
1, 116056, Note_on_c, 0, 71, 63
1, 116061, Note_on_c, 0, 72, 0
1, 116165, Note_on_c, 0, 72, 79
1, 116166, Note_on_c, 1, 64, 43
1, 116172, Note_on_c, 1, 60, 0
1, 116194, Note_on_c, 0, 71, 0
1, 116253, Note_on_c, 0, 74, 65
1, 116256, Note_on_c, 0, 72, 0
1, 116334, Note_on_c, 0, 72, 74
1, 116357, Note_on_c, 0, 74, 0
1, 116387, Note_on_c, 1, 60, 43
1, 116389, Note_on_c, 1, 64, 0
1, 116436, Note_on_c, 0, 74, 53
1, 116453, Note_on_c, 0, 72, 0
1, 116519, Note_on_c, 0, 72, 78
1, 116566, Note_on_c, 0, 74, 0
1, 116591, Note_on_c, 0, 74, 52
1, 116616, Note_on_c, 0, 72, 0
1, 116625, Note_on_c, 1, 64, 46
1, 116633, Note_on_c, 1, 60, 0
1, 116674, Note_on_c, 0, 72, 72
1, 116751, Note_on_c, 0, 71, 68
1, 116756, Note_on_c, 0, 74, 0
1, 116760, Note_on_c, 0, 72, 0
1, 116821, Note_on_c, 0, 72, 74
1, 116846, Note_on_c, 1, 64, 0
1, 116847, Note_on_c, 1, 60, 50
1, 116904, Note_on_c, 0, 71, 0
1, 116908, Note_on_c, 0, 74, 65
1, 116994, Note_on_c, 0, 72, 0
1, 117012, Note_on_c, 0, 76, 76
1, 117078, Note_on_c, 1, 64, 42
1, 117082, Note_on_c, 1, 60, 0
1, 117109, Note_on_c, 0, 74, 0
1, 117122, Note_on_c, 0, 76, 0
1, 117127, Note_on_c, 0, 67, 78
1, 117327, Note_on_c, 1, 64, 0
1, 117338, Note_on_c, 1, 60, 21
1, 117594, Note_on_c, 1, 60, 0
1, 117596, Note_on_c, 1, 64, 32
1, 117716, Note_on_c, 0, 67, 0
1, 117840, Note_on_c, 1, 60, 48
1, 117846, Note_on_c, 1, 64, 0
1, 118094, Note_on_c, 1, 64, 42
1, 118104, Note_on_c, 1, 60, 0
1, 118112, Note_on_c, 0, 79, 63
1, 118157, Note_on_c, 0, 79, 0
1, 118343, Note_on_c, 1, 64, 0
1, 118351, Note_on_c, 0, 79, 66
1, 118358, Note_on_c, 1, 60, 45
1, 118399, Note_on_c, 0, 79, 0
1, 118423, Note_on_c, 1, 60, 0
1, 118583, Note_on_c, 1, 64, 46
1, 118599, Note_on_c, 0, 79, 89
1, 118827, Note_on_c, 1, 64, 0
1, 118838, Note_on_c, 1, 60, 31
1, 119049, Note_on_c, 1, 60, 0
1, 119076, Note_on_c, 1, 64, 40
1, 119299, Note_on_c, 1, 60, 42
1, 119317, Note_on_c, 1, 64, 0
1, 119331, Note_on_c, 0, 77, 58
1, 119415, Note_on_c, 0, 79, 0
1, 119441, Note_on_c, 0, 76, 72
1, 119486, Note_on_c, 0, 77, 0
1, 119493, Note_on_c, 0, 76, 0
1, 119537, Note_on_c, 1, 60, 0
1, 119566, Note_on_c, 1, 65, 41
1, 119569, Note_on_c, 0, 76, 72
1, 119675, Note_on_c, 0, 74, 66
1, 119692, Note_on_c, 0, 76, 0
1, 119759, Note_on_c, 1, 65, 0
1, 119769, Note_on_c, 1, 60, 45
1, 119787, Note_on_c, 0, 72, 78
1, 119866, Note_on_c, 0, 74, 0
1, 119891, Note_on_c, 0, 71, 67
1, 119901, Note_on_c, 0, 72, 0
1, 119918, Note_on_c, 1, 60, 0
1, 119996, Note_on_c, 0, 72, 72
1, 120023, Note_on_c, 1, 64, 48
1, 120033, Note_on_c, 0, 71, 0
1, 120087, Note_on_c, 0, 74, 56
1, 120091, Note_on_c, 0, 72, 0
1, 120169, Note_on_c, 0, 72, 62
1, 120201, Note_on_c, 0, 74, 0
1, 120237, Note_on_c, 1, 60, 38
1, 120243, Note_on_c, 1, 64, 0
1, 120271, Note_on_c, 0, 74, 61
1, 120303, Note_on_c, 0, 72, 0
1, 120361, Note_on_c, 0, 72, 74
1, 120381, Note_on_c, 0, 74, 0
1, 120439, Note_on_c, 0, 74, 60
1, 120445, Note_on_c, 0, 72, 0
1, 120478, Note_on_c, 1, 60, 0
1, 120487, Note_on_c, 1, 64, 36
1, 120518, Note_on_c, 0, 72, 74
1, 120568, Note_on_c, 0, 71, 62
1, 120579, Note_on_c, 0, 74, 0
1, 120581, Note_on_c, 0, 72, 0
1, 120644, Note_on_c, 0, 72, 72
1, 120700, Note_on_c, 0, 71, 0
1, 120721, Note_on_c, 1, 60, 48
1, 120724, Note_on_c, 1, 64, 0
1, 120729, Note_on_c, 0, 74, 71
1, 120792, Note_on_c, 0, 72, 0
1, 120841, Note_on_c, 0, 76, 72
1, 120895, Note_on_c, 0, 74, 0
1, 120950, Note_on_c, 1, 60, 0
1, 120953, Note_on_c, 1, 64, 35
1, 120964, Note_on_c, 0, 76, 0
1, 120984, Note_on_c, 0, 67, 74
1, 121213, Note_on_c, 1, 60, 43
1, 121215, Note_on_c, 1, 64, 0
1, 121446, Note_on_c, 1, 60, 0
1, 121455, Note_on_c, 1, 64, 46
1, 121541, Note_on_c, 0, 67, 0
1, 121686, Note_on_c, 1, 64, 0
1, 121694, Note_on_c, 1, 60, 55
1, 121923, Note_on_c, 1, 60, 0
1, 121935, Note_on_c, 1, 65, 48
1, 121936, Note_on_c, 0, 69, 76
1, 121993, Note_on_c, 0, 69, 0
1, 122140, Note_on_c, 1, 65, 0
1, 122165, Note_on_c, 1, 60, 27
1, 122171, Note_on_c, 0, 72, 71
1, 122238, Note_on_c, 0, 72, 0
1, 122278, Note_on_c, 1, 60, 0
1, 122395, Note_on_c, 1, 65, 48
1, 122407, Note_on_c, 0, 77, 68
1, 122447, Note_on_c, 0, 77, 0
1, 122488, Note_on_c, 1, 65, 0
1, 122631, Note_on_c, 1, 60, 30
1, 122662, Note_on_c, 0, 81, 71
1, 122698, Note_on_c, 0, 81, 0
1, 122753, Note_on_c, 1, 60, 0
1, 122873, Note_on_c, 1, 65, 52
1, 122909, Note_on_c, 0, 84, 76
1, 123107, Note_on_c, 1, 65, 0
1, 123116, Note_on_c, 1, 60, 46
1, 123198, Note_on_c, 1, 60, 0
1, 123358, Note_on_c, 1, 65, 43
1, 123421, Note_on_c, 0, 84, 0
1, 123593, Note_on_c, 1, 60, 45
1, 123600, Note_on_c, 1, 65, 0
1, 123661, Note_on_c, 1, 60, 0
1, 123843, Note_on_c, 1, 64, 47
1, 123891, Note_on_c, 0, 67, 66
1, 123936, Note_on_c, 0, 67, 0
1, 124017, Note_on_c, 1, 64, 0
1, 124092, Note_on_c, 1, 60, 51
1, 124123, Note_on_c, 0, 72, 67
1, 124179, Note_on_c, 0, 72, 0
1, 124215, Note_on_c, 1, 60, 0
1, 124341, Note_on_c, 1, 64, 57
1, 124373, Note_on_c, 0, 76, 66
1, 124400, Note_on_c, 0, 76, 0
1, 124419, Note_on_c, 1, 64, 0
1, 124569, Note_on_c, 1, 60, 47
1, 124590, Note_on_c, 0, 79, 68
1, 124645, Note_on_c, 0, 79, 0
1, 124647, Note_on_c, 1, 60, 0
1, 124799, Note_on_c, 1, 64, 58
1, 124849, Note_on_c, 0, 84, 71
1, 125046, Note_on_c, 1, 64, 0
1, 125049, Note_on_c, 1, 60, 41
1, 125118, Note_on_c, 1, 60, 0
1, 125289, Note_on_c, 0, 84, 0
1, 125293, Note_on_c, 1, 64, 55
1, 125500, Note_on_c, 1, 64, 0
1, 125523, Note_on_c, 1, 60, 52
1, 125613, Note_on_c, 1, 60, 0
1, 125730, Note_on_c, 0, 67, 74
1, 125768, Note_on_c, 1, 64, 67
1, 125775, Note_on_c, 1, 60, 56
1, 125793, Note_on_c, 0, 67, 0
1, 125805, Note_on_c, 0, 79, 83
1, 126020, Note_on_c, 1, 55, 43
1, 126036, Note_on_c, 1, 60, 0
1, 126043, Note_on_c, 1, 64, 0
1, 126233, Note_on_c, 1, 55, 0
1, 126269, Note_on_c, 1, 64, 56
1, 126271, Note_on_c, 1, 60, 55
1, 126503, Note_on_c, 1, 55, 42
1, 126518, Note_on_c, 1, 64, 0
1, 126530, Note_on_c, 1, 60, 0
1, 126702, Note_on_c, 1, 55, 0
1, 126748, Note_on_c, 1, 59, 50
1, 126751, Note_on_c, 1, 62, 56
1, 126978, Note_on_c, 1, 55, 48
1, 127007, Note_on_c, 1, 59, 0
1, 127008, Note_on_c, 1, 62, 0
1, 127125, Note_on_c, 0, 79, 0
1, 127187, Note_on_c, 0, 77, 60
1, 127213, Note_on_c, 1, 62, 50
1, 127216, Note_on_c, 1, 55, 0
1, 127218, Note_on_c, 1, 59, 42
1, 127241, Note_on_c, 0, 79, 71
1, 127258, Note_on_c, 0, 77, 0
1, 127322, Note_on_c, 0, 77, 70
1, 127383, Note_on_c, 0, 79, 0
1, 127385, Note_on_c, 0, 76, 71
1, 127398, Note_on_c, 0, 77, 0
1, 127432, Note_on_c, 1, 55, 48
1, 127445, Note_on_c, 1, 59, 0
1, 127459, Note_on_c, 1, 62, 0
1, 127468, Note_on_c, 0, 76, 0
1, 127509, Note_on_c, 0, 77, 65
1, 127645, Note_on_c, 1, 55, 0
1, 127674, Note_on_c, 0, 75, 78
1, 127682, Note_on_c, 1, 60, 61
1, 127706, Note_on_c, 0, 77, 0
1, 127914, Note_on_c, 1, 48, 63
1, 127930, Note_on_c, 1, 60, 0
1, 128170, Note_on_c, 1, 52, 64
1, 128190, Note_on_c, 0, 76, 48
1, 128197, Note_on_c, 1, 48, 0
1, 128207, Note_on_c, 0, 75, 0
1, 128386, Note_on_c, 1, 52, 0
1, 128410, Note_on_c, 1, 55, 42
1, 128641, Note_on_c, 1, 60, 56
1, 128664, Note_on_c, 1, 55, 0
1, 128886, Note_on_c, 0, 76, 0
1, 128893, Note_on_c, 1, 64, 63
1, 128899, Note_on_c, 1, 60, 0
1, 129124, Note_on_c, 1, 67, 52
1, 129128, Note_on_c, 1, 64, 0
1, 129375, Note_on_c, 1, 64, 22
1, 129393, Note_on_c, 1, 67, 0
1, 129533, Note_on_c, 1, 64, 0
1, 129591, Note_on_c, 0, 69, 70
1, 129614, Note_on_c, 1, 65, 56
1, 129765, Note_on_c, 0, 69, 0
1, 129850, Note_on_c, 0, 72, 63
1, 129862, Note_on_c, 1, 60, 30
1, 129887, Note_on_c, 1, 65, 0
1, 129953, Note_on_c, 1, 60, 0
1, 129959, Note_on_c, 0, 69, 72
1, 129972, Note_on_c, 0, 72, 0
1, 130033, Note_on_c, 0, 69, 0
1, 130073, Note_on_c, 0, 77, 70
1, 130117, Note_on_c, 1, 65, 50
1, 130162, Note_on_c, 0, 77, 0
1, 130182, Note_on_c, 0, 72, 74
1, 130293, Note_on_c, 0, 72, 0
1, 130308, Note_on_c, 0, 81, 68
1, 130340, Note_on_c, 1, 60, 55
1, 130378, Note_on_c, 1, 65, 0
1, 130400, Note_on_c, 0, 77, 67
1, 130422, Note_on_c, 1, 60, 0
1, 130433, Note_on_c, 0, 81, 0
1, 130508, Note_on_c, 0, 77, 0
1, 130548, Note_on_c, 0, 84, 77
1, 130573, Note_on_c, 1, 65, 56
1, 130813, Note_on_c, 1, 60, 43
1, 130854, Note_on_c, 1, 65, 0
1, 130883, Note_on_c, 1, 60, 0
1, 131048, Note_on_c, 1, 65, 52
1, 131050, Note_on_c, 0, 84, 0
1, 131304, Note_on_c, 1, 60, 38
1, 131327, Note_on_c, 1, 65, 0
1, 131363, Note_on_c, 1, 60, 0
1, 131528, Note_on_c, 0, 67, 65
1, 131550, Note_on_c, 1, 64, 52
1, 131635, Note_on_c, 0, 67, 0
1, 131764, Note_on_c, 0, 72, 63
1, 131800, Note_on_c, 1, 60, 38
1, 131832, Note_on_c, 1, 64, 0
1, 131869, Note_on_c, 0, 72, 0
1, 131875, Note_on_c, 0, 67, 68
1, 131895, Note_on_c, 1, 60, 0
1, 131950, Note_on_c, 0, 67, 0
1, 132007, Note_on_c, 0, 76, 68
1, 132030, Note_on_c, 1, 64, 52
1, 132100, Note_on_c, 0, 76, 0
1, 132122, Note_on_c, 0, 72, 74
1, 132235, Note_on_c, 0, 79, 76
1, 132242, Note_on_c, 0, 72, 0
1, 132247, Note_on_c, 1, 60, 36
1, 132275, Note_on_c, 1, 64, 0
1, 132321, Note_on_c, 1, 60, 0
1, 132350, Note_on_c, 0, 76, 68
1, 132369, Note_on_c, 0, 79, 0
1, 132430, Note_on_c, 0, 76, 0
1, 132480, Note_on_c, 0, 84, 94
1, 132489, Note_on_c, 1, 64, 46
1, 132738, Note_on_c, 1, 60, 40
1, 132767, Note_on_c, 1, 64, 0
1, 132817, Note_on_c, 1, 60, 0
1, 132984, Note_on_c, 1, 64, 48
1, 133095, Note_on_c, 0, 84, 0
1, 133222, Note_on_c, 1, 60, 55
1, 133258, Note_on_c, 1, 64, 0
1, 133304, Note_on_c, 1, 60, 0
1, 133431, Note_on_c, 0, 81, 89
1, 133458, Note_on_c, 1, 64, 63
1, 133460, Note_on_c, 1, 60, 57
1, 133673, Note_on_c, 0, 79, 72
1, 133693, Note_on_c, 0, 81, 0
1, 133701, Note_on_c, 1, 55, 62
1, 133704, Note_on_c, 1, 64, 0
1, 133706, Note_on_c, 1, 60, 0
1, 133726, Note_on_c, 0, 79, 0
1, 133767, Note_on_c, 1, 55, 0
1, 133911, Note_on_c, 0, 77, 89
1, 133930, Note_on_c, 1, 64, 61
1, 133934, Note_on_c, 1, 60, 56
1, 133945, Note_on_c, 0, 77, 0
1, 134149, Note_on_c, 0, 76, 74
1, 134176, Note_on_c, 1, 60, 0
1, 134178, Note_on_c, 1, 55, 66
1, 134185, Note_on_c, 1, 64, 0
1, 134195, Note_on_c, 0, 76, 0
1, 134242, Note_on_c, 1, 55, 0
1, 134401, Note_on_c, 0, 76, 81
1, 134410, Note_on_c, 1, 62, 58
1, 134413, Note_on_c, 1, 65, 67
1, 134635, Note_on_c, 0, 74, 74
1, 134641, Note_on_c, 1, 62, 0
1, 134648, Note_on_c, 1, 65, 0
1, 134656, Note_on_c, 0, 76, 0
1, 134666, Note_on_c, 1, 55, 62
1, 134697, Note_on_c, 0, 74, 0
1, 134768, Note_on_c, 1, 55, 0
1, 134890, Note_on_c, 0, 72, 94
1, 134890, Note_on_c, 1, 65, 63
1, 134893, Note_on_c, 1, 62, 57
1, 134940, Note_on_c, 0, 72, 0
1, 135107, Note_on_c, 1, 65, 0
1, 135109, Note_on_c, 1, 62, 0
1, 135136, Note_on_c, 1, 55, 68
1, 135137, Note_on_c, 0, 71, 71
1, 135192, Note_on_c, 0, 71, 0
1, 135210, Note_on_c, 1, 55, 0
1, 135358, Note_on_c, 1, 64, 62
1, 135360, Note_on_c, 0, 72, 65
1, 135363, Note_on_c, 1, 60, 63
1, 135468, Note_on_c, 0, 72, 0
1, 135480, Note_on_c, 0, 67, 60
1, 135600, Note_on_c, 0, 69, 77
1, 135611, Note_on_c, 0, 67, 0
1, 135720, Note_on_c, 0, 71, 74
1, 135727, Note_on_c, 0, 69, 0
1, 135799, Note_on_c, 0, 71, 0
1, 135840, Note_on_c, 0, 72, 65
1, 135960, Note_on_c, 0, 74, 97
1, 135990, Note_on_c, 0, 72, 0
1, 136080, Note_on_c, 0, 76, 81
1, 136090, Note_on_c, 0, 74, 0
1, 136164, Note_on_c, 0, 76, 0
1, 136200, Note_on_c, 0, 77, 74
1, 136227, Note_on_c, 1, 64, 0
1, 136233, Note_on_c, 1, 60, 0
1, 136320, Note_on_c, 0, 79, 94
1, 136371, Note_on_c, 0, 77, 0
1, 136440, Note_on_c, 0, 81, 76
1, 136471, Note_on_c, 0, 79, 0
1, 136560, Note_on_c, 0, 83, 79
1, 136621, Note_on_c, 0, 81, 0
1, 136651, Note_on_c, 0, 83, 0
1, 136680, Note_on_c, 0, 84, 74
1, 136757, Note_on_c, 0, 84, 0
1, 136800, Note_on_c, 0, 79, 94
1, 136854, Note_on_c, 0, 79, 0
1, 137040, Note_on_c, 0, 79, 78
1, 137078, Note_on_c, 0, 79, 0
1, 137293, Note_on_c, 1, 64, 61
1, 137306, Note_on_c, 1, 55, 56
1, 137351, Note_on_c, 1, 64, 0
1, 137365, Note_on_c, 1, 55, 0
1, 137445, Note_on_c, 0, 79, 58
1, 137555, Note_on_c, 0, 81, 36
1, 137561, Note_on_c, 0, 79, 0
1, 137678, Note_on_c, 0, 79, 43
1, 137729, Note_on_c, 0, 81, 0
1, 137740, Note_on_c, 0, 79, 0
1, 137806, Note_on_c, 1, 62, 52
1, 137818, Note_on_c, 1, 55, 55
1, 137858, Note_on_c, 1, 62, 0
1, 137867, Note_on_c, 1, 55, 0
1, 137915, Note_on_c, 0, 77, 68
1, 138038, Note_on_c, 0, 79, 62
1, 138078, Note_on_c, 0, 77, 0
1, 138148, Note_on_c, 0, 79, 0
1, 138158, Note_on_c, 0, 77, 41
1, 138207, Note_on_c, 0, 77, 0
1, 138280, Note_on_c, 1, 60, 51
1, 138289, Note_on_c, 1, 55, 57
1, 138341, Note_on_c, 1, 60, 0
1, 138343, Note_on_c, 1, 55, 0
1, 138408, Note_on_c, 0, 76, 65
1, 138525, Note_on_c, 0, 77, 52
1, 138546, Note_on_c, 0, 76, 0
1, 138655, Note_on_c, 0, 76, 52
1, 138665, Note_on_c, 0, 77, 0
1, 138713, Note_on_c, 0, 76, 0
1, 138759, Note_on_c, 1, 59, 41
1, 138765, Note_on_c, 1, 55, 34
1, 138817, Note_on_c, 1, 55, 0
1, 138819, Note_on_c, 1, 59, 0
1, 138880, Note_on_c, 0, 74, 68
1, 138997, Note_on_c, 0, 74, 0
1, 139002, Note_on_c, 0, 76, 46
1, 139083, Note_on_c, 0, 74, 65
1, 139120, Note_on_c, 0, 76, 0
1, 139125, Note_on_c, 0, 74, 0
1, 139210, Note_on_c, 1, 60, 62
1, 139217, Note_on_c, 0, 72, 63
1, 139328, Note_on_c, 0, 67, 72
1, 139365, Note_on_c, 0, 72, 0
1, 139438, Note_on_c, 0, 69, 81
1, 139480, Note_on_c, 0, 67, 0
1, 139554, Note_on_c, 0, 71, 71
1, 139585, Note_on_c, 0, 69, 0
1, 139640, Note_on_c, 0, 71, 0
1, 139672, Note_on_c, 0, 72, 62
1, 139713, Note_on_c, 1, 60, 0
1, 139795, Note_on_c, 0, 74, 83
1, 139896, Note_on_c, 0, 72, 0
1, 139905, Note_on_c, 0, 76, 68
1, 139949, Note_on_c, 0, 74, 0
1, 139992, Note_on_c, 0, 76, 0
1, 140015, Note_on_c, 0, 77, 70
1, 140139, Note_on_c, 0, 79, 94
1, 140177, Note_on_c, 0, 77, 0
1, 140247, Note_on_c, 0, 81, 78
1, 140285, Note_on_c, 0, 79, 0
1, 140375, Note_on_c, 0, 83, 83
1, 140407, Note_on_c, 0, 81, 0
1, 140465, Note_on_c, 0, 83, 0
1, 140503, Note_on_c, 0, 84, 67
1, 140579, Note_on_c, 0, 84, 0
1, 140637, Note_on_c, 0, 79, 92
1, 140685, Note_on_c, 0, 79, 0
1, 140888, Note_on_c, 0, 79, 77
1, 140925, Note_on_c, 0, 79, 0
1, 141174, Note_on_c, 1, 55, 55
1, 141177, Note_on_c, 1, 64, 62
1, 141233, Note_on_c, 1, 64, 0
1, 141236, Note_on_c, 1, 55, 0
1, 141268, Note_on_c, 0, 79, 55
1, 141395, Note_on_c, 0, 79, 0
1, 141397, Note_on_c, 0, 81, 29
1, 141502, Note_on_c, 0, 79, 56
1, 141533, Note_on_c, 0, 81, 0
1, 141547, Note_on_c, 0, 79, 0
1, 141654, Note_on_c, 1, 62, 60
1, 141660, Note_on_c, 1, 55, 61
1, 141705, Note_on_c, 1, 62, 0
1, 141708, Note_on_c, 1, 55, 0
1, 141743, Note_on_c, 0, 77, 65
1, 141857, Note_on_c, 0, 79, 51
1, 141867, Note_on_c, 0, 77, 0
1, 141976, Note_on_c, 0, 77, 48
1, 142013, Note_on_c, 0, 79, 0
1, 142042, Note_on_c, 0, 77, 0
1, 142122, Note_on_c, 1, 60, 55
1, 142125, Note_on_c, 1, 55, 56
1, 142161, Note_on_c, 1, 55, 0
1, 142172, Note_on_c, 1, 60, 0
1, 142240, Note_on_c, 0, 76, 63
1, 142348, Note_on_c, 0, 77, 52
1, 142370, Note_on_c, 0, 76, 0
1, 142482, Note_on_c, 0, 76, 58
1, 142539, Note_on_c, 0, 77, 0
1, 142555, Note_on_c, 0, 76, 0
1, 142586, Note_on_c, 1, 59, 53
1, 142590, Note_on_c, 1, 55, 53
1, 142634, Note_on_c, 1, 55, 0
1, 142637, Note_on_c, 1, 59, 0
1, 142705, Note_on_c, 0, 74, 57
1, 142815, Note_on_c, 0, 76, 58
1, 142827, Note_on_c, 0, 74, 0
1, 142915, Note_on_c, 0, 74, 72
1, 143020, Note_on_c, 0, 76, 0
1, 143033, Note_on_c, 0, 74, 0
1, 143040, Note_on_c, 0, 72, 74
1, 143078, Note_on_c, 1, 48, 69
1, 143316, Note_on_c, 1, 60, 58
1, 143338, Note_on_c, 1, 48, 0
1, 143567, Note_on_c, 1, 59, 56
1, 143629, Note_on_c, 1, 60, 0
1, 143758, Note_on_c, 0, 72, 0
1, 143760, Note_on_c, 0, 74, 83
1, 143817, Note_on_c, 1, 58, 50
1, 143830, Note_on_c, 1, 59, 0
1, 143878, Note_on_c, 0, 74, 0
1, 143880, Note_on_c, 0, 76, 84
1, 143998, Note_on_c, 0, 76, 0
1, 144005, Note_on_c, 0, 77, 90
1, 144038, Note_on_c, 1, 57, 63
1, 144050, Note_on_c, 0, 77, 0
1, 144052, Note_on_c, 1, 58, 0
1, 144092, Note_on_c, 1, 57, 0
1, 144261, Note_on_c, 0, 77, 106
1, 144278, Note_on_c, 1, 57, 68
1, 144552, Note_on_c, 1, 55, 64
1, 144632, Note_on_c, 1, 57, 0
1, 144736, Note_on_c, 0, 79, 76
1, 144767, Note_on_c, 1, 53, 68
1, 144773, Note_on_c, 1, 55, 0
1, 144782, Note_on_c, 0, 77, 0
1, 144855, Note_on_c, 0, 81, 72
1, 144868, Note_on_c, 0, 79, 0
1, 144964, Note_on_c, 1, 53, 0
1, 144994, Note_on_c, 0, 79, 97
1, 144995, Note_on_c, 1, 52, 67
1, 145026, Note_on_c, 0, 81, 0
1, 145047, Note_on_c, 1, 52, 0
1, 145225, Note_on_c, 0, 76, 73
1, 145237, Note_on_c, 0, 79, 0
1, 145435, Note_on_c, 0, 76, 0
1, 145453, Note_on_c, 0, 84, 50
1, 145458, Note_on_c, 1, 48, 73
1, 145473, Note_on_c, 0, 84, 0
1, 145512, Note_on_c, 1, 48, 0
1, 145705, Note_on_c, 0, 84, 68
1, 145748, Note_on_c, 0, 84, 0
1, 145933, Note_on_c, 0, 86, 89
1, 146063, Note_on_c, 0, 84, 81
1, 146093, Note_on_c, 0, 86, 0
1, 146185, Note_on_c, 0, 83, 92
1, 146234, Note_on_c, 0, 84, 0
1, 146305, Note_on_c, 0, 83, 0
1, 146309, Note_on_c, 0, 81, 77
1, 146362, Note_on_c, 0, 81, 0
1, 146438, Note_on_c, 0, 81, 78
1, 146470, Note_on_c, 1, 60, 63
1, 146474, Note_on_c, 1, 48, 63
1, 146552, Note_on_c, 0, 79, 76
1, 146575, Note_on_c, 1, 48, 0
1, 146582, Note_on_c, 0, 81, 0
1, 146591, Note_on_c, 1, 60, 0
1, 146671, Note_on_c, 0, 77, 92
1, 146706, Note_on_c, 0, 79, 0
1, 146777, Note_on_c, 0, 76, 70
1, 146789, Note_on_c, 0, 77, 0
1, 146880, Note_on_c, 0, 79, 74
1, 146905, Note_on_c, 1, 64, 67
1, 146905, Note_on_c, 1, 55, 58
1, 146920, Note_on_c, 0, 76, 0
1, 147574, Note_on_c, 0, 79, 0
1, 147600, Note_on_c, 0, 76, 67
1, 147619, Note_on_c, 1, 55, 0
1, 147625, Note_on_c, 1, 60, 50
1, 147785, Note_on_c, 1, 64, 0
1, 147824, Note_on_c, 0, 74, 53
1, 147840, Note_on_c, 0, 76, 0
1, 147862, Note_on_c, 1, 60, 0
1, 147870, Note_on_c, 1, 59, 58
1, 148090, Note_on_c, 1, 43, 64
1, 148093, Note_on_c, 1, 59, 0
1, 148284, Note_on_c, 0, 74, 0
1, 148335, Note_on_c, 1, 47, 63
1, 148346, Note_on_c, 1, 43, 0
1, 148580, Note_on_c, 1, 47, 0
1, 148581, Note_on_c, 1, 50, 66
1, 148753, Note_on_c, 0, 73, 65
1, 148760, Note_on_c, 1, 50, 0
1, 148808, Note_on_c, 0, 74, 73
1, 148826, Note_on_c, 1, 55, 67
1, 148842, Note_on_c, 0, 73, 0
1, 149063, Note_on_c, 1, 59, 58
1, 149101, Note_on_c, 1, 55, 0
1, 149286, Note_on_c, 1, 62, 60
1, 149308, Note_on_c, 1, 59, 0
1, 149310, Note_on_c, 0, 72, 65
1, 149378, Note_on_c, 0, 74, 0
1, 149403, Note_on_c, 0, 71, 77
1, 149447, Note_on_c, 1, 62, 0
1, 149460, Note_on_c, 0, 72, 0
1, 149506, Note_on_c, 0, 69, 76
1, 149509, Note_on_c, 0, 71, 0
1, 149616, Note_on_c, 0, 67, 81
1, 149638, Note_on_c, 0, 69, 0
1, 149680, Note_on_c, 0, 67, 0
1, 149755, Note_on_c, 0, 73, 89
1, 149755, Note_on_c, 1, 55, 55
1, 149974, Note_on_c, 0, 73, 0
1, 149981, Note_on_c, 0, 74, 77
1, 150019, Note_on_c, 1, 59, 61
1, 150041, Note_on_c, 1, 55, 0
1, 150243, Note_on_c, 0, 72, 72
1, 150255, Note_on_c, 1, 62, 53
1, 150263, Note_on_c, 1, 59, 0
1, 150276, Note_on_c, 0, 74, 0
1, 150354, Note_on_c, 0, 71, 89
1, 150398, Note_on_c, 1, 62, 0
1, 150408, Note_on_c, 0, 72, 0
1, 150463, Note_on_c, 0, 69, 66
1, 150467, Note_on_c, 0, 71, 0
1, 150578, Note_on_c, 0, 67, 86
1, 150598, Note_on_c, 0, 69, 0
1, 150624, Note_on_c, 0, 67, 0
1, 150720, Note_on_c, 0, 75, 94
1, 150729, Note_on_c, 1, 55, 57
1, 150955, Note_on_c, 0, 76, 70
1, 150963, Note_on_c, 0, 75, 0
1, 150968, Note_on_c, 1, 60, 53
1, 151000, Note_on_c, 0, 76, 0
1, 151003, Note_on_c, 1, 55, 0
1, 151210, Note_on_c, 0, 76, 63
1, 151222, Note_on_c, 1, 64, 33
1, 151245, Note_on_c, 0, 76, 0
1, 151245, Note_on_c, 1, 60, 0
1, 151455, Note_on_c, 0, 76, 71
1, 151467, Note_on_c, 1, 64, 0
1, 151468, Note_on_c, 1, 60, 43
1, 151494, Note_on_c, 0, 76, 0
1, 151558, Note_on_c, 1, 60, 0
1, 151699, Note_on_c, 1, 55, 55
1, 151705, Note_on_c, 0, 76, 70
1, 151944, Note_on_c, 1, 60, 42
1, 151983, Note_on_c, 1, 55, 0
1, 152177, Note_on_c, 1, 64, 46
1, 152193, Note_on_c, 0, 76, 0
1, 152200, Note_on_c, 1, 60, 0
1, 152299, Note_on_c, 1, 64, 0
1, 152427, Note_on_c, 1, 60, 50
1, 152535, Note_on_c, 1, 60, 0
1, 152589, Note_on_c, 0, 69, 63
1, 152640, Note_on_c, 0, 69, 0
1, 152658, Note_on_c, 1, 54, 52
1, 152662, Note_on_c, 0, 81, 78
1, 152916, Note_on_c, 1, 57, 51
1, 152943, Note_on_c, 1, 54, 0
1, 153159, Note_on_c, 1, 60, 57
1, 153205, Note_on_c, 1, 57, 0
1, 153269, Note_on_c, 1, 60, 0
1, 153398, Note_on_c, 0, 79, 72
1, 153454, Note_on_c, 0, 81, 0
1, 153462, Note_on_c, 0, 78, 57
1, 153505, Note_on_c, 0, 79, 0
1, 153520, Note_on_c, 0, 76, 66
1, 153593, Note_on_c, 0, 78, 0
1, 153598, Note_on_c, 0, 74, 83
1, 153604, Note_on_c, 0, 76, 0
1, 153654, Note_on_c, 1, 54, 56
1, 153829, Note_on_c, 0, 74, 0
1, 153866, Note_on_c, 0, 86, 55
1, 153879, Note_on_c, 1, 57, 58
1, 153888, Note_on_c, 0, 86, 0
1, 153911, Note_on_c, 1, 54, 0
1, 154105, Note_on_c, 0, 86, 73
1, 154116, Note_on_c, 1, 60, 56
1, 154128, Note_on_c, 1, 57, 0
1, 154145, Note_on_c, 0, 86, 0
1, 154193, Note_on_c, 1, 60, 0
1, 154333, Note_on_c, 0, 86, 89
1, 154374, Note_on_c, 0, 86, 0
1, 154571, Note_on_c, 1, 55, 63
1, 154592, Note_on_c, 0, 86, 97
1, 154830, Note_on_c, 1, 59, 56
1, 154860, Note_on_c, 1, 55, 0
1, 155065, Note_on_c, 1, 59, 0
1, 155075, Note_on_c, 1, 62, 63
1, 155114, Note_on_c, 1, 62, 0
1, 155189, Note_on_c, 0, 83, 57
1, 155197, Note_on_c, 0, 86, 0
1, 155266, Note_on_c, 0, 83, 0
1, 155290, Note_on_c, 0, 86, 66
1, 155314, Note_on_c, 1, 62, 60
1, 155362, Note_on_c, 1, 62, 0
1, 155400, Note_on_c, 0, 83, 70
1, 155443, Note_on_c, 0, 86, 0
1, 155528, Note_on_c, 0, 79, 58
1, 155543, Note_on_c, 0, 83, 0
1, 155569, Note_on_c, 1, 55, 64
1, 155799, Note_on_c, 1, 59, 58
1, 155828, Note_on_c, 1, 55, 0
1, 155945, Note_on_c, 0, 79, 0
1, 156010, Note_on_c, 1, 59, 0
1, 156030, Note_on_c, 1, 62, 63
1, 156089, Note_on_c, 1, 62, 0
1, 156278, Note_on_c, 1, 62, 57
1, 156335, Note_on_c, 1, 62, 0
1, 156461, Note_on_c, 0, 73, 81
1, 156525, Note_on_c, 1, 55, 57
1, 156715, Note_on_c, 0, 73, 0
1, 156717, Note_on_c, 0, 74, 53
1, 156745, Note_on_c, 1, 59, 56
1, 156809, Note_on_c, 1, 55, 0
1, 156954, Note_on_c, 0, 72, 65
1, 156996, Note_on_c, 1, 62, 57
1, 156999, Note_on_c, 1, 59, 0
1, 157015, Note_on_c, 0, 74, 0
1, 157055, Note_on_c, 1, 62, 0
1, 157063, Note_on_c, 0, 71, 78
1, 157125, Note_on_c, 0, 72, 0
1, 157185, Note_on_c, 0, 69, 72
1, 157188, Note_on_c, 0, 71, 0
1, 157320, Note_on_c, 0, 67, 61
1, 157328, Note_on_c, 0, 69, 0
1, 157395, Note_on_c, 0, 73, 78
1, 157438, Note_on_c, 0, 67, 0
1, 157443, Note_on_c, 1, 55, 57
1, 157509, Note_on_c, 0, 74, 73
1, 157533, Note_on_c, 0, 73, 0
1, 157640, Note_on_c, 0, 74, 0
1, 157648, Note_on_c, 0, 76, 62
1, 157698, Note_on_c, 1, 59, 48
1, 157720, Note_on_c, 1, 55, 0
1, 157740, Note_on_c, 0, 74, 77
1, 157773, Note_on_c, 0, 76, 0
1, 157862, Note_on_c, 0, 74, 0
1, 157889, Note_on_c, 0, 72, 76
1, 157954, Note_on_c, 1, 59, 0
1, 157956, Note_on_c, 1, 62, 47
1, 158005, Note_on_c, 0, 71, 73
1, 158018, Note_on_c, 0, 72, 0
1, 158138, Note_on_c, 0, 69, 74
1, 158162, Note_on_c, 0, 71, 0
1, 158173, Note_on_c, 1, 62, 0
1, 158248, Note_on_c, 0, 67, 78
1, 158282, Note_on_c, 0, 69, 0
1, 158357, Note_on_c, 0, 67, 0
1, 158371, Note_on_c, 0, 75, 94
1, 158394, Note_on_c, 1, 55, 57
1, 158600, Note_on_c, 0, 76, 74
1, 158603, Note_on_c, 0, 75, 0
1, 158640, Note_on_c, 1, 60, 51
1, 158653, Note_on_c, 0, 76, 0
1, 158658, Note_on_c, 1, 55, 0
1, 158848, Note_on_c, 0, 76, 68
1, 158875, Note_on_c, 1, 64, 55
1, 158877, Note_on_c, 0, 76, 0
1, 158897, Note_on_c, 1, 60, 0
1, 159076, Note_on_c, 0, 76, 66
1, 159117, Note_on_c, 1, 60, 46
1, 159121, Note_on_c, 0, 76, 0
1, 159154, Note_on_c, 1, 64, 0
1, 159247, Note_on_c, 1, 60, 0
1, 159306, Note_on_c, 0, 76, 78
1, 159350, Note_on_c, 1, 55, 53
1, 159601, Note_on_c, 1, 60, 47
1, 159751, Note_on_c, 0, 76, 0
1, 159820, Note_on_c, 1, 55, 0
1, 159845, Note_on_c, 1, 64, 42
1, 159860, Note_on_c, 1, 60, 0
1, 160076, Note_on_c, 1, 64, 0
1, 160079, Note_on_c, 1, 60, 53
1, 160204, Note_on_c, 1, 60, 0
1, 160320, Note_on_c, 0, 81, 105
1, 160335, Note_on_c, 1, 54, 63
1, 160338, Note_on_c, 1, 57, 61
1, 160340, Note_on_c, 1, 62, 68
1, 160345, Note_on_c, 1, 60, 63
1, 160438, Note_on_c, 0, 81, 0
1, 160440, Note_on_c, 0, 83, 77
1, 160558, Note_on_c, 0, 83, 0
1, 160560, Note_on_c, 0, 84, 74
1, 160678, Note_on_c, 0, 84, 0
1, 160680, Note_on_c, 0, 83, 71
1, 160798, Note_on_c, 0, 83, 0
1, 160800, Note_on_c, 0, 81, 72
1, 160918, Note_on_c, 0, 81, 0
1, 160920, Note_on_c, 0, 79, 74
1, 161038, Note_on_c, 0, 79, 0
1, 161040, Note_on_c, 0, 78, 72
1, 161158, Note_on_c, 0, 78, 0
1, 161160, Note_on_c, 0, 76, 66
1, 161278, Note_on_c, 0, 76, 0
1, 161280, Note_on_c, 0, 74, 74
1, 161398, Note_on_c, 0, 74, 0
1, 161400, Note_on_c, 0, 78, 74
1, 161518, Note_on_c, 0, 78, 0
1, 161520, Note_on_c, 0, 81, 77
1, 161638, Note_on_c, 0, 81, 0
1, 161640, Note_on_c, 0, 79, 78
1, 161758, Note_on_c, 0, 79, 0
1, 161760, Note_on_c, 0, 78, 71
1, 161830, Note_on_c, 1, 60, 0
1, 161835, Note_on_c, 1, 57, 0
1, 161841, Note_on_c, 1, 54, 0
1, 161850, Note_on_c, 1, 62, 0
1, 161878, Note_on_c, 0, 78, 0
1, 161880, Note_on_c, 0, 76, 50
1, 161998, Note_on_c, 0, 76, 0
1, 162000, Note_on_c, 0, 74, 68
1, 162118, Note_on_c, 0, 74, 0
1, 162120, Note_on_c, 0, 72, 63
1, 162238, Note_on_c, 0, 72, 0
1, 162259, Note_on_c, 1, 55, 52
1, 162260, Note_on_c, 0, 71, 78
1, 162426, Note_on_c, 1, 59, 41
1, 162498, Note_on_c, 1, 55, 0
1, 162544, Note_on_c, 1, 59, 0
1, 162555, Note_on_c, 1, 67, 36
1, 162644, Note_on_c, 0, 71, 0
1, 162680, Note_on_c, 0, 72, 83
1, 162721, Note_on_c, 1, 57, 56
1, 162733, Note_on_c, 1, 67, 0
1, 162748, Note_on_c, 0, 74, 67
1, 162759, Note_on_c, 0, 72, 0
1, 162807, Note_on_c, 0, 72, 77
1, 162825, Note_on_c, 0, 74, 0
1, 162880, Note_on_c, 0, 72, 0
1, 162887, Note_on_c, 1, 60, 42
1, 162902, Note_on_c, 0, 74, 61
1, 162975, Note_on_c, 0, 72, 71
1, 162979, Note_on_c, 1, 57, 0
1, 163033, Note_on_c, 1, 67, 55
1, 163050, Note_on_c, 1, 60, 0
1, 163053, Note_on_c, 0, 71, 72
1, 163071, Note_on_c, 0, 72, 0
1, 163090, Note_on_c, 0, 74, 0
1, 163140, Note_on_c, 0, 72, 81
1, 163168, Note_on_c, 0, 71, 0
1, 163203, Note_on_c, 1, 59, 55
1, 163218, Note_on_c, 1, 67, 0
1, 163243, Note_on_c, 0, 74, 77
1, 163275, Note_on_c, 0, 72, 0
1, 163356, Note_on_c, 1, 62, 37
1, 163452, Note_on_c, 1, 59, 0
1, 163483, Note_on_c, 1, 62, 0
1, 163527, Note_on_c, 1, 67, 46
1, 163689, Note_on_c, 1, 67, 0
1, 163693, Note_on_c, 1, 55, 45
1, 163856, Note_on_c, 1, 59, 46
1, 163935, Note_on_c, 0, 74, 0
1, 163959, Note_on_c, 1, 55, 0
1, 163980, Note_on_c, 1, 59, 0
1, 163993, Note_on_c, 1, 67, 50
1, 164131, Note_on_c, 0, 76, 68
1, 164150, Note_on_c, 1, 67, 0
1, 164164, Note_on_c, 1, 60, 56
1, 164165, Note_on_c, 0, 78, 73
1, 164203, Note_on_c, 0, 76, 0
1, 164228, Note_on_c, 0, 79, 76
1, 164276, Note_on_c, 0, 78, 0
1, 164327, Note_on_c, 1, 64, 37
1, 164372, Note_on_c, 1, 60, 0
1, 164433, Note_on_c, 0, 79, 0
1, 164470, Note_on_c, 1, 67, 50
1, 164473, Note_on_c, 1, 64, 0
1, 164638, Note_on_c, 1, 67, 0
1, 164644, Note_on_c, 0, 79, 78
1, 164663, Note_on_c, 1, 60, 42
1, 164708, Note_on_c, 0, 79, 0
1, 164817, Note_on_c, 1, 64, 30
1, 164859, Note_on_c, 1, 60, 0
1, 164973, Note_on_c, 1, 67, 27
1, 164977, Note_on_c, 1, 64, 0
1, 165053, Note_on_c, 0, 79, 73
1, 165091, Note_on_c, 0, 79, 0
1, 165139, Note_on_c, 0, 79, 74
1, 165153, Note_on_c, 1, 60, 45
1, 165156, Note_on_c, 1, 67, 0
1, 165303, Note_on_c, 1, 64, 38
1, 165358, Note_on_c, 1, 60, 0
1, 165455, Note_on_c, 1, 67, 36
1, 165459, Note_on_c, 1, 64, 0
1, 165588, Note_on_c, 0, 78, 72
1, 165622, Note_on_c, 0, 79, 0
1, 165626, Note_on_c, 1, 60, 50
1, 165643, Note_on_c, 1, 67, 0
1, 165699, Note_on_c, 0, 76, 73
1, 165783, Note_on_c, 1, 64, 47
1, 165789, Note_on_c, 0, 78, 0
1, 165805, Note_on_c, 0, 76, 0
1, 165811, Note_on_c, 0, 74, 72
1, 165881, Note_on_c, 1, 60, 0
1, 165898, Note_on_c, 1, 64, 0
1, 165916, Note_on_c, 0, 72, 77
1, 165925, Note_on_c, 0, 74, 0
1, 165949, Note_on_c, 1, 67, 45
1, 166040, Note_on_c, 0, 72, 0
1, 166046, Note_on_c, 0, 71, 94
1, 166100, Note_on_c, 1, 67, 0
1, 166112, Note_on_c, 1, 55, 67
1, 166275, Note_on_c, 1, 59, 55
1, 166371, Note_on_c, 0, 74, 16
1, 166391, Note_on_c, 1, 55, 0
1, 166435, Note_on_c, 1, 67, 58
1, 166447, Note_on_c, 1, 59, 0
1, 166480, Note_on_c, 0, 74, 0
1, 166524, Note_on_c, 0, 71, 0
1, 166538, Note_on_c, 0, 72, 76
1, 166591, Note_on_c, 1, 57, 62
1, 166593, Note_on_c, 1, 67, 0
1, 166602, Note_on_c, 1, 55, 50
1, 166603, Note_on_c, 0, 74, 73
1, 166617, Note_on_c, 0, 72, 0
1, 166640, Note_on_c, 1, 55, 0
1, 166669, Note_on_c, 0, 72, 77
1, 166678, Note_on_c, 0, 74, 0
1, 166745, Note_on_c, 0, 74, 70
1, 166749, Note_on_c, 0, 72, 0
1, 166767, Note_on_c, 1, 60, 53
1, 166802, Note_on_c, 0, 72, 74
1, 166865, Note_on_c, 0, 74, 0
1, 166865, Note_on_c, 1, 57, 0
1, 166873, Note_on_c, 0, 71, 72
1, 166876, Note_on_c, 0, 72, 0
1, 166913, Note_on_c, 1, 67, 56
1, 166949, Note_on_c, 1, 60, 0
1, 166957, Note_on_c, 0, 72, 77
1, 166989, Note_on_c, 0, 71, 0
1, 167079, Note_on_c, 0, 74, 73
1, 167080, Note_on_c, 1, 59, 64
1, 167090, Note_on_c, 0, 72, 0
1, 167106, Note_on_c, 1, 67, 0
1, 167230, Note_on_c, 1, 62, 56
1, 167355, Note_on_c, 1, 59, 0
1, 167370, Note_on_c, 1, 62, 0
1, 167383, Note_on_c, 1, 67, 53
1, 167523, Note_on_c, 0, 74, 0
1, 167558, Note_on_c, 1, 55, 66
1, 167568, Note_on_c, 1, 67, 0
1, 167718, Note_on_c, 1, 59, 67
1, 167810, Note_on_c, 1, 55, 0
1, 167850, Note_on_c, 1, 59, 0
1, 167867, Note_on_c, 1, 67, 48
1, 167947, Note_on_c, 0, 76, 61
1, 167990, Note_on_c, 0, 78, 57
1, 167995, Note_on_c, 1, 67, 0
1, 168026, Note_on_c, 1, 60, 55
1, 168034, Note_on_c, 0, 76, 0
1, 168047, Note_on_c, 0, 79, 89
1, 168075, Note_on_c, 0, 78, 0
1, 168174, Note_on_c, 1, 64, 46
1, 168214, Note_on_c, 1, 60, 0
1, 168317, Note_on_c, 1, 64, 0
1, 168338, Note_on_c, 1, 67, 32
1, 168432, Note_on_c, 0, 79, 0
1, 168506, Note_on_c, 1, 67, 0
1, 168507, Note_on_c, 0, 79, 83
1, 168509, Note_on_c, 1, 60, 46
1, 168570, Note_on_c, 0, 79, 0
1, 168655, Note_on_c, 1, 64, 30
1, 168729, Note_on_c, 1, 60, 0
1, 168792, Note_on_c, 1, 67, 35
1, 168803, Note_on_c, 1, 64, 0
1, 168885, Note_on_c, 0, 79, 74
1, 168925, Note_on_c, 0, 79, 0
1, 168962, Note_on_c, 1, 60, 53
1, 168978, Note_on_c, 0, 79, 77
1, 168979, Note_on_c, 1, 67, 0
1, 169129, Note_on_c, 1, 64, 32
1, 169175, Note_on_c, 1, 60, 0
1, 169297, Note_on_c, 1, 67, 37
1, 169312, Note_on_c, 1, 64, 0
1, 169440, Note_on_c, 0, 78, 74
1, 169469, Note_on_c, 1, 60, 55
1, 169482, Note_on_c, 0, 79, 0
1, 169492, Note_on_c, 1, 67, 0
1, 169558, Note_on_c, 0, 78, 0
1, 169560, Note_on_c, 0, 76, 66
1, 169617, Note_on_c, 1, 64, 52
1, 169678, Note_on_c, 0, 76, 0
1, 169680, Note_on_c, 0, 74, 74
1, 169719, Note_on_c, 1, 60, 0
1, 169733, Note_on_c, 1, 64, 0
1, 169753, Note_on_c, 1, 67, 55
1, 169798, Note_on_c, 0, 74, 0
1, 169800, Note_on_c, 0, 72, 68
1, 169885, Note_on_c, 0, 71, 94
1, 169894, Note_on_c, 1, 67, 0
1, 169918, Note_on_c, 0, 72, 0
1, 169949, Note_on_c, 1, 55, 76
1, 169962, Note_on_c, 0, 71, 0
1, 170087, Note_on_c, 1, 55, 0
1, 170160, Note_on_c, 0, 79, 72
1, 170278, Note_on_c, 0, 79, 0
1, 170280, Note_on_c, 0, 81, 73
1, 170398, Note_on_c, 0, 81, 0
1, 170400, Note_on_c, 0, 83, 78
1, 170518, Note_on_c, 0, 83, 0
1, 170520, Note_on_c, 0, 81, 78
1, 170638, Note_on_c, 0, 81, 0
1, 170640, Note_on_c, 0, 79, 76
1, 170758, Note_on_c, 0, 79, 0
1, 170760, Note_on_c, 0, 78, 72
1, 170878, Note_on_c, 0, 78, 0
1, 170880, Note_on_c, 0, 76, 74
1, 170886, Note_on_c, 1, 48, 68
1, 170998, Note_on_c, 0, 76, 0
1, 171000, Note_on_c, 0, 74, 66
1, 171019, Note_on_c, 1, 48, 0
1, 171118, Note_on_c, 0, 74, 0
1, 171120, Note_on_c, 0, 72, 58
1, 171238, Note_on_c, 0, 72, 0
1, 171240, Note_on_c, 0, 71, 68
1, 171358, Note_on_c, 0, 71, 0
1, 171360, Note_on_c, 0, 69, 66
1, 171478, Note_on_c, 0, 69, 0
1, 171480, Note_on_c, 0, 67, 45
1, 171598, Note_on_c, 0, 67, 0
1, 171600, Note_on_c, 0, 66, 71
1, 171718, Note_on_c, 0, 66, 0
1, 171720, Note_on_c, 0, 64, 46
1, 171838, Note_on_c, 0, 64, 0
1, 171840, Note_on_c, 0, 62, 77
1, 171865, Note_on_c, 1, 50, 64
1, 171918, Note_on_c, 1, 50, 0
1, 171958, Note_on_c, 0, 62, 0
1, 172320, Note_on_c, 0, 60, 85
1, 172345, Note_on_c, 1, 54, 43
1, 172345, Note_on_c, 1, 57, 58
1, 172345, Note_on_c, 1, 51, 68
1, 173278, Note_on_c, 0, 60, 0
1, 173280, Note_on_c, 0, 59, 46
1, 173303, Note_on_c, 1, 54, 0
1, 173303, Note_on_c, 1, 57, 0
1, 173303, Note_on_c, 1, 51, 0
1, 173305, Note_on_c, 1, 52, 26
1, 173305, Note_on_c, 1, 55, 20
1, 173758, Note_on_c, 0, 59, 0
1, 173779, Note_on_c, 1, 52, 56
1, 173783, Note_on_c, 1, 52, 0
1, 173783, Note_on_c, 1, 55, 0
1, 173788, Note_on_c, 1, 48, 41
1, 173996, Note_on_c, 0, 57, 63
1, 174061, Note_on_c, 0, 57, 0
1, 174222, Note_on_c, 0, 60, 67
1, 174293, Note_on_c, 0, 60, 0
1, 174457, Note_on_c, 0, 64, 55
1, 174520, Note_on_c, 0, 64, 0
1, 174531, Note_on_c, 1, 48, 0
1, 174533, Note_on_c, 1, 52, 0
1, 174709, Note_on_c, 0, 68, 74
1, 174938, Note_on_c, 0, 69, 77
1, 174941, Note_on_c, 0, 68, 0
1, 175180, Note_on_c, 0, 72, 72
1, 175230, Note_on_c, 0, 69, 0
1, 175407, Note_on_c, 0, 72, 0
1, 175413, Note_on_c, 0, 76, 74
1, 175585, Note_on_c, 0, 76, 0
1, 175673, Note_on_c, 0, 76, 89
1, 175911, Note_on_c, 0, 67, 66
1, 175915, Note_on_c, 0, 76, 0
1, 176081, Note_on_c, 0, 67, 0
1, 176155, Note_on_c, 0, 67, 65
1, 176157, Note_on_c, 1, 59, 57
1, 176168, Note_on_c, 1, 50, 53
1, 176571, Note_on_c, 1, 50, 0
1, 176641, Note_on_c, 1, 60, 56
1, 176671, Note_on_c, 1, 50, 22
1, 176691, Note_on_c, 1, 59, 0
1, 177092, Note_on_c, 0, 71, 55
1, 177103, Note_on_c, 0, 66, 37
1, 177116, Note_on_c, 0, 67, 0
1, 177331, Note_on_c, 0, 69, 66
1, 177361, Note_on_c, 0, 71, 0
1, 177579, Note_on_c, 0, 69, 0
1, 177598, Note_on_c, 0, 67, 65
1, 177600, Note_on_c, 1, 55, 48
1, 177600, Note_on_c, 1, 59, 38
1, 177605, Note_on_c, 1, 60, 0
1, 177614, Note_on_c, 1, 50, 0
1, 177652, Note_on_c, 0, 66, 0
1, 177691, Note_on_c, 1, 59, 0
1, 177985, Note_on_c, 1, 55, 0
1, 178080, Note_on_c, 0, 67, 0
1, 178080, Note_on_c, 1, 43, 64
1, 178223, Note_on_c, 1, 43, 0
1, 178578, Note_on_c, 0, 74, 71
1, 178793, Note_on_c, 0, 71, 65
1, 178799, Note_on_c, 0, 74, 0
1, 179044, Note_on_c, 0, 79, 76
1, 179051, Note_on_c, 0, 71, 0
1, 179086, Note_on_c, 0, 79, 0
1, 179277, Note_on_c, 0, 78, 62
1, 179349, Note_on_c, 0, 78, 0
1, 179533, Note_on_c, 0, 76, 74
1, 179583, Note_on_c, 0, 76, 0
1, 179760, Note_on_c, 0, 74, 71
1, 179821, Note_on_c, 0, 74, 0
1, 180006, Note_on_c, 0, 72, 65
1, 180066, Note_on_c, 0, 72, 0
1, 180238, Note_on_c, 0, 71, 67
1, 180338, Note_on_c, 0, 71, 0
1, 180488, Note_on_c, 0, 69, 74
1, 180569, Note_on_c, 0, 69, 0
1, 180977, Note_on_c, 0, 71, 72
1, 181035, Note_on_c, 0, 71, 0
1, 181431, Note_on_c, 0, 74, 68
1, 181676, Note_on_c, 0, 73, 65
1, 181702, Note_on_c, 0, 74, 0
1, 181906, Note_on_c, 1, 62, 52
1, 181909, Note_on_c, 1, 54, 53
1, 181926, Note_on_c, 0, 72, 62
1, 181961, Note_on_c, 0, 73, 0
1, 182381, Note_on_c, 1, 54, 0
1, 182384, Note_on_c, 1, 55, 58
1, 182412, Note_on_c, 0, 71, 76
1, 182419, Note_on_c, 0, 72, 0
1, 182577, Note_on_c, 0, 71, 0
1, 182593, Note_on_c, 1, 62, 0
1, 182634, Note_on_c, 0, 72, 74
1, 182706, Note_on_c, 1, 55, 0
1, 182807, Note_on_c, 0, 72, 0
1, 182876, Note_on_c, 0, 74, 78
1, 183038, Note_on_c, 0, 74, 0
1, 183110, Note_on_c, 0, 75, 66
1, 183173, Note_on_c, 0, 75, 0
1, 183327, Note_on_c, 1, 48, 47
1, 183332, Note_on_c, 0, 76, 74
1, 183337, Note_on_c, 1, 55, 51
1, 183391, Note_on_c, 0, 78, 65
1, 183421, Note_on_c, 0, 76, 0
1, 183489, Note_on_c, 0, 76, 65
1, 183498, Note_on_c, 0, 78, 0
1, 183560, Note_on_c, 0, 76, 0
1, 183568, Note_on_c, 0, 75, 58
1, 183646, Note_on_c, 0, 76, 74
1, 183649, Note_on_c, 0, 75, 0
1, 183744, Note_on_c, 0, 78, 62
1, 183766, Note_on_c, 0, 76, 0
1, 183831, Note_on_c, 0, 79, 83
1, 183841, Note_on_c, 0, 78, 0
1, 183863, Note_on_c, 1, 48, 0
1, 183891, Note_on_c, 0, 79, 0
1, 183924, Note_on_c, 1, 55, 0
1, 184071, Note_on_c, 0, 78, 67
1, 184131, Note_on_c, 0, 78, 0
1, 184319, Note_on_c, 0, 76, 70
1, 184384, Note_on_c, 0, 76, 0
1, 184547, Note_on_c, 0, 74, 55
1, 184615, Note_on_c, 0, 74, 0
1, 184771, Note_on_c, 1, 49, 48
1, 184773, Note_on_c, 1, 52, 55
1, 184792, Note_on_c, 0, 72, 65
1, 184853, Note_on_c, 0, 72, 0
1, 184933, Note_on_c, 1, 49, 0
1, 184936, Note_on_c, 1, 52, 0
1, 185012, Note_on_c, 0, 71, 72
1, 185109, Note_on_c, 0, 71, 0
1, 185254, Note_on_c, 1, 50, 60
1, 185262, Note_on_c, 1, 55, 55
1, 185267, Note_on_c, 0, 74, 74
1, 185652, Note_on_c, 0, 71, 63
1, 185677, Note_on_c, 0, 74, 0
1, 185749, Note_on_c, 0, 69, 66
1, 185765, Note_on_c, 1, 54, 62
1, 185771, Note_on_c, 1, 55, 0
1, 185776, Note_on_c, 0, 71, 0
1, 185920, Note_on_c, 0, 69, 0
1, 185957, Note_on_c, 1, 54, 0
1, 185961, Note_on_c, 1, 50, 0
1, 186236, Note_on_c, 0, 74, 101
1, 186236, Note_on_c, 1, 62, 91
1, 186586, Note_on_c, 0, 76, 74
1, 186586, Note_on_c, 1, 64, 64
1, 186624, Note_on_c, 0, 74, 0
1, 186624, Note_on_c, 1, 62, 0
1, 186660, Note_on_c, 0, 78, 77
1, 186660, Note_on_c, 1, 66, 67
1, 186686, Note_on_c, 0, 76, 0
1, 186686, Note_on_c, 1, 64, 0
1, 186705, Note_on_c, 0, 79, 68
1, 186705, Note_on_c, 1, 67, 58
1, 186757, Note_on_c, 0, 78, 0
1, 186757, Note_on_c, 1, 66, 0
1, 186789, Note_on_c, 0, 79, 0
1, 186789, Note_on_c, 1, 67, 0
1, 186951, Note_on_c, 0, 78, 94
1, 186951, Note_on_c, 1, 66, 84
1, 187011, Note_on_c, 0, 78, 0
1, 187011, Note_on_c, 1, 66, 0
1, 187186, Note_on_c, 0, 76, 92
1, 187186, Note_on_c, 1, 64, 82
1, 187244, Note_on_c, 0, 76, 0
1, 187244, Note_on_c, 1, 64, 0
1, 187435, Note_on_c, 0, 74, 65
1, 187435, Note_on_c, 1, 62, 55
1, 187509, Note_on_c, 0, 74, 0
1, 187509, Note_on_c, 1, 62, 0
1, 187670, Note_on_c, 0, 72, 61
1, 187670, Note_on_c, 1, 60, 51
1, 187742, Note_on_c, 0, 72, 0
1, 187742, Note_on_c, 1, 60, 0
1, 187922, Note_on_c, 0, 71, 44
1, 187922, Note_on_c, 1, 59, 34
1, 187983, Note_on_c, 0, 71, 0
1, 187983, Note_on_c, 1, 59, 0
1, 188163, Note_on_c, 0, 69, 62
1, 188163, Note_on_c, 1, 57, 52
1, 188213, Note_on_c, 0, 69, 0
1, 188213, Note_on_c, 1, 57, 0
1, 188651, Note_on_c, 0, 71, 65
1, 188651, Note_on_c, 1, 59, 55
1, 188696, Note_on_c, 0, 71, 0
1, 188696, Note_on_c, 1, 59, 0
1, 189136, Note_on_c, 0, 72, 78
1, 189136, Note_on_c, 1, 60, 68
1, 189190, Note_on_c, 0, 72, 0
1, 189190, Note_on_c, 1, 60, 0
1, 189616, Note_on_c, 0, 73, 94
1, 189616, Note_on_c, 1, 61, 84
1, 189691, Note_on_c, 0, 73, 0
1, 189691, Note_on_c, 1, 61, 0
1, 190075, Note_on_c, 0, 74, 89
1, 190075, Note_on_c, 1, 62, 79
1, 190204, Note_on_c, 0, 74, 0
1, 190204, Note_on_c, 1, 62, 0
1, 190551, Note_on_c, 0, 75, 76
1, 190551, Note_on_c, 1, 63, 66
1, 190614, Note_on_c, 0, 75, 0
1, 190614, Note_on_c, 1, 63, 0
1, 191034, Note_on_c, 0, 76, 78
1, 191034, Note_on_c, 1, 64, 68
1, 191266, Note_on_c, 0, 76, 0
1, 191266, Note_on_c, 1, 64, 0
1, 191416, Note_on_c, 0, 64, 74
1, 191502, Note_on_c, 0, 72, 89
1, 191509, Note_on_c, 0, 64, 0
1, 191538, Note_on_c, 1, 57, 42
1, 191540, Note_on_c, 1, 48, 57
1, 191744, Note_on_c, 1, 48, 0
1, 191807, Note_on_c, 1, 57, 0
1, 191857, Note_on_c, 0, 72, 0
1, 191858, Note_on_c, 0, 69, 76
1, 191962, Note_on_c, 0, 69, 0
1, 191967, Note_on_c, 0, 67, 67
1, 191978, Note_on_c, 1, 59, 58
1, 191981, Note_on_c, 1, 50, 62
1, 192276, Note_on_c, 1, 59, 0
1, 192443, Note_on_c, 1, 60, 47
1, 192459, Note_on_c, 0, 71, 77
1, 192470, Note_on_c, 0, 66, 58
1, 192486, Note_on_c, 0, 67, 0
1, 192596, Note_on_c, 0, 69, 63
1, 192609, Note_on_c, 1, 50, 0
1, 192611, Note_on_c, 0, 71, 0
1, 192734, Note_on_c, 1, 60, 0
1, 192910, Note_on_c, 1, 55, 23
1, 192936, Note_on_c, 0, 69, 0
1, 192951, Note_on_c, 0, 67, 62
1, 192966, Note_on_c, 0, 66, 0
1, 193155, Note_on_c, 1, 59, 50
1, 193394, Note_on_c, 1, 62, 55
1, 193409, Note_on_c, 1, 59, 0
1, 193433, Note_on_c, 1, 55, 0
1, 193486, Note_on_c, 0, 67, 0
1, 193584, Note_on_c, 0, 79, 72
1, 193671, Note_on_c, 1, 59, 58
1, 193674, Note_on_c, 1, 62, 0
1, 193704, Note_on_c, 0, 81, 67
1, 193716, Note_on_c, 0, 79, 0
1, 193810, Note_on_c, 0, 79, 78
1, 193884, Note_on_c, 0, 81, 0
1, 193929, Note_on_c, 0, 76, 89
1, 193933, Note_on_c, 0, 79, 0
1, 193944, Note_on_c, 1, 55, 57
1, 193947, Note_on_c, 1, 59, 0
1, 194041, Note_on_c, 0, 79, 94
1, 194073, Note_on_c, 0, 76, 0
1, 194144, Note_on_c, 1, 55, 0
1, 194147, Note_on_c, 1, 60, 32
1, 194164, Note_on_c, 0, 81, 74
1, 194175, Note_on_c, 0, 79, 0
1, 194273, Note_on_c, 0, 79, 89
1, 194299, Note_on_c, 0, 81, 0
1, 194376, Note_on_c, 0, 79, 0
1, 194393, Note_on_c, 1, 64, 45
1, 194422, Note_on_c, 0, 84, 77
1, 194433, Note_on_c, 1, 60, 0
1, 194526, Note_on_c, 0, 79, 83
1, 194529, Note_on_c, 0, 84, 0
1, 194631, Note_on_c, 1, 60, 35
1, 194641, Note_on_c, 0, 76, 92
1, 194668, Note_on_c, 0, 79, 0
1, 194676, Note_on_c, 1, 64, 0
1, 194747, Note_on_c, 0, 72, 89
1, 194777, Note_on_c, 0, 76, 0
1, 194831, Note_on_c, 1, 60, 0
1, 194848, Note_on_c, 1, 55, 46
1, 194875, Note_on_c, 0, 79, 89
1, 194898, Note_on_c, 0, 72, 0
1, 194928, Note_on_c, 0, 79, 0
1, 195086, Note_on_c, 1, 59, 57
1, 195129, Note_on_c, 1, 55, 0
1, 195145, Note_on_c, 0, 79, 67
1, 195224, Note_on_c, 0, 79, 0
1, 195348, Note_on_c, 1, 62, 35
1, 195358, Note_on_c, 1, 59, 0
1, 195491, Note_on_c, 0, 79, 76
1, 195594, Note_on_c, 1, 62, 0
1, 195596, Note_on_c, 1, 59, 40
1, 195612, Note_on_c, 0, 81, 74
1, 195616, Note_on_c, 0, 79, 0
1, 195709, Note_on_c, 0, 79, 83
1, 195753, Note_on_c, 0, 81, 0
1, 195824, Note_on_c, 0, 79, 0
1, 195830, Note_on_c, 0, 76, 94
1, 195845, Note_on_c, 1, 55, 56
1, 195855, Note_on_c, 1, 59, 0
1, 195952, Note_on_c, 0, 79, 94
1, 195977, Note_on_c, 0, 76, 0
1, 196061, Note_on_c, 0, 81, 74
1, 196064, Note_on_c, 1, 60, 38
1, 196078, Note_on_c, 0, 79, 0
1, 196109, Note_on_c, 1, 55, 0
1, 196169, Note_on_c, 0, 79, 86
1, 196202, Note_on_c, 0, 81, 0
1, 196258, Note_on_c, 0, 79, 0
1, 196297, Note_on_c, 1, 64, 40
1, 196306, Note_on_c, 0, 84, 77
1, 196413, Note_on_c, 0, 79, 89
1, 196416, Note_on_c, 0, 84, 0
1, 196436, Note_on_c, 1, 64, 0
1, 196533, Note_on_c, 0, 76, 89
1, 196541, Note_on_c, 1, 60, 0
1, 196565, Note_on_c, 0, 79, 0
1, 196637, Note_on_c, 0, 72, 86
1, 196676, Note_on_c, 0, 76, 0
1, 196758, Note_on_c, 1, 55, 46
1, 196760, Note_on_c, 1, 62, 56
1, 196764, Note_on_c, 1, 59, 46
1, 196769, Note_on_c, 0, 79, 81
1, 196787, Note_on_c, 0, 72, 0
1, 196823, Note_on_c, 0, 79, 0
1, 196898, Note_on_c, 1, 62, 0
1, 196928, Note_on_c, 1, 59, 0
1, 196946, Note_on_c, 1, 55, 0
1, 197021, Note_on_c, 0, 79, 77
1, 197070, Note_on_c, 0, 79, 0
1, 197273, Note_on_c, 1, 72, 63
1, 197413, Note_on_c, 0, 74, 67
1, 197512, Note_on_c, 0, 78, 65
1, 197535, Note_on_c, 0, 74, 0
1, 197626, Note_on_c, 0, 74, 62
1, 197670, Note_on_c, 0, 78, 0
1, 197736, Note_on_c, 1, 71, 53
1, 197749, Note_on_c, 0, 79, 72
1, 197759, Note_on_c, 0, 74, 0
1, 197778, Note_on_c, 1, 72, 0
1, 197796, Note_on_c, 0, 79, 0
1, 197804, Note_on_c, 1, 71, 0
1, 197963, Note_on_c, 0, 79, 62
1, 198007, Note_on_c, 0, 79, 0
1, 198209, Note_on_c, 1, 72, 62
1, 198352, Note_on_c, 0, 74, 66
1, 198469, Note_on_c, 0, 78, 65
1, 198497, Note_on_c, 0, 74, 0
1, 198579, Note_on_c, 0, 74, 67
1, 198601, Note_on_c, 0, 78, 0
1, 198701, Note_on_c, 0, 79, 78
1, 198706, Note_on_c, 1, 71, 61
1, 198708, Note_on_c, 0, 78, 48
1, 198729, Note_on_c, 0, 78, 0
1, 198731, Note_on_c, 0, 74, 0
1, 198740, Note_on_c, 1, 72, 0
1, 198749, Note_on_c, 0, 79, 0
1, 198804, Note_on_c, 1, 71, 0
1, 198954, Note_on_c, 0, 79, 67
1, 199003, Note_on_c, 0, 79, 0
1, 199198, Note_on_c, 1, 66, 56
1, 199272, Note_on_c, 1, 66, 0
1, 199351, Note_on_c, 0, 74, 66
1, 199456, Note_on_c, 0, 74, 0
1, 199461, Note_on_c, 0, 81, 63
1, 199472, Note_on_c, 1, 66, 51
1, 199551, Note_on_c, 1, 66, 0
1, 199577, Note_on_c, 0, 81, 0
1, 199589, Note_on_c, 0, 74, 42
1, 199683, Note_on_c, 0, 74, 0
1, 199700, Note_on_c, 0, 83, 78
1, 199718, Note_on_c, 1, 67, 57
1, 199782, Note_on_c, 0, 83, 0
1, 199782, Note_on_c, 1, 67, 0
1, 199793, Note_on_c, 0, 74, 65
1, 199916, Note_on_c, 0, 83, 86
1, 199919, Note_on_c, 0, 74, 0
1, 199936, Note_on_c, 1, 67, 68
1, 200007, Note_on_c, 1, 67, 0
1, 200024, Note_on_c, 0, 83, 0
1, 200026, Note_on_c, 0, 74, 74
1, 200133, Note_on_c, 0, 74, 0
1, 200139, Note_on_c, 1, 69, 66
1, 200153, Note_on_c, 0, 84, 89
1, 200211, Note_on_c, 1, 69, 0
1, 200241, Note_on_c, 0, 84, 0
1, 200253, Note_on_c, 0, 74, 74
1, 200366, Note_on_c, 1, 69, 71
1, 200376, Note_on_c, 0, 84, 89
1, 200378, Note_on_c, 0, 74, 0
1, 200455, Note_on_c, 1, 69, 0
1, 200477, Note_on_c, 0, 84, 0
1, 200486, Note_on_c, 0, 74, 83
1, 200559, Note_on_c, 0, 74, 0
1, 200616, Note_on_c, 1, 71, 64
1, 200620, Note_on_c, 0, 86, 94
1, 200878, Note_on_c, 0, 83, 71
1, 200881, Note_on_c, 1, 71, 0
1, 200893, Note_on_c, 0, 86, 0
1, 200941, Note_on_c, 0, 83, 0
1, 201121, Note_on_c, 0, 79, 68
1, 201368, Note_on_c, 0, 83, 74
1, 201406, Note_on_c, 0, 79, 0
1, 201417, Note_on_c, 0, 83, 0
1, 201631, Note_on_c, 0, 74, 68
1, 201846, Note_on_c, 0, 79, 65
1, 201855, Note_on_c, 0, 74, 0
1, 201900, Note_on_c, 0, 79, 0
1, 202113, Note_on_c, 0, 71, 72
1, 202337, Note_on_c, 0, 71, 0
1, 202340, Note_on_c, 0, 74, 73
1, 202430, Note_on_c, 0, 74, 0
1, 202616, Note_on_c, 0, 69, 83
1, 202845, Note_on_c, 0, 76, 76
1, 202855, Note_on_c, 0, 69, 0
1, 203040, Note_on_c, 0, 74, 77
1, 203050, Note_on_c, 1, 48, 57
1, 203053, Note_on_c, 1, 52, 58
1, 203056, Note_on_c, 1, 57, 55
1, 203107, Note_on_c, 0, 76, 0
1, 203160, Note_on_c, 0, 72, 92
1, 203201, Note_on_c, 0, 74, 0
1, 203280, Note_on_c, 0, 71, 74
1, 203290, Note_on_c, 0, 72, 0
1, 203360, Note_on_c, 1, 48, 0
1, 203361, Note_on_c, 1, 52, 0
1, 203371, Note_on_c, 1, 57, 0
1, 203400, Note_on_c, 0, 71, 0
1, 203400, Note_on_c, 0, 69, 76
1, 203524, Note_on_c, 0, 69, 0
1, 203559, Note_on_c, 1, 55, 53
1, 203562, Note_on_c, 1, 59, 60
1, 203565, Note_on_c, 1, 50, 55
1, 203566, Note_on_c, 0, 67, 71
1, 203909, Note_on_c, 1, 55, 0
1, 204013, Note_on_c, 0, 67, 0
1, 204024, Note_on_c, 0, 66, 67
1, 204041, Note_on_c, 1, 60, 56
1, 204057, Note_on_c, 1, 57, 53
1, 204068, Note_on_c, 1, 59, 0
1, 204129, Note_on_c, 0, 67, 72
1, 204151, Note_on_c, 0, 66, 0
1, 204215, Note_on_c, 0, 66, 67
1, 204241, Note_on_c, 0, 67, 0
1, 204298, Note_on_c, 0, 64, 73
1, 204301, Note_on_c, 0, 66, 0
1, 204362, Note_on_c, 1, 50, 0
1, 204376, Note_on_c, 0, 66, 74
1, 204382, Note_on_c, 1, 60, 0
1, 204426, Note_on_c, 0, 64, 0
1, 204442, Note_on_c, 1, 57, 0
1, 204525, Note_on_c, 0, 67, 78
1, 204529, Note_on_c, 0, 66, 0
1, 204533, Note_on_c, 1, 55, 56
1, 204762, Note_on_c, 1, 59, 41
1, 204846, Note_on_c, 1, 55, 0
1, 204944, Note_on_c, 0, 67, 0
1, 205009, Note_on_c, 1, 62, 46
1, 205043, Note_on_c, 1, 59, 0
1, 205091, Note_on_c, 0, 79, 76
1, 205212, Note_on_c, 0, 81, 74
1, 205216, Note_on_c, 0, 79, 0
1, 205227, Note_on_c, 1, 59, 58
1, 205248, Note_on_c, 1, 62, 0
1, 205309, Note_on_c, 0, 79, 83
1, 205353, Note_on_c, 0, 81, 0
1, 205424, Note_on_c, 0, 79, 0
1, 205430, Note_on_c, 0, 76, 94
1, 205450, Note_on_c, 1, 55, 45
1, 205467, Note_on_c, 1, 59, 0
1, 205552, Note_on_c, 0, 79, 94
1, 205577, Note_on_c, 0, 76, 0
1, 205636, Note_on_c, 1, 55, 0
1, 205661, Note_on_c, 0, 81, 74
1, 205670, Note_on_c, 1, 60, 47
1, 205678, Note_on_c, 0, 79, 0
1, 205769, Note_on_c, 0, 79, 86
1, 205802, Note_on_c, 0, 81, 0
1, 205858, Note_on_c, 0, 79, 0
1, 205906, Note_on_c, 0, 84, 77
1, 205918, Note_on_c, 1, 64, 56
1, 205953, Note_on_c, 1, 60, 0
1, 206013, Note_on_c, 0, 79, 89
1, 206016, Note_on_c, 0, 84, 0
1, 206133, Note_on_c, 0, 76, 89
1, 206165, Note_on_c, 0, 79, 0
1, 206169, Note_on_c, 1, 60, 56
1, 206196, Note_on_c, 1, 64, 0
1, 206237, Note_on_c, 0, 72, 86
1, 206276, Note_on_c, 0, 76, 0
1, 206364, Note_on_c, 1, 60, 0
1, 206368, Note_on_c, 1, 55, 48
1, 206369, Note_on_c, 0, 79, 81
1, 206387, Note_on_c, 0, 72, 0
1, 206423, Note_on_c, 0, 79, 0
1, 206614, Note_on_c, 1, 59, 47
1, 206621, Note_on_c, 0, 79, 77
1, 206649, Note_on_c, 1, 55, 0
1, 206670, Note_on_c, 0, 79, 0
1, 206864, Note_on_c, 1, 62, 48
1, 206872, Note_on_c, 1, 59, 0
1, 207011, Note_on_c, 0, 79, 76
1, 207109, Note_on_c, 1, 59, 55
1, 207129, Note_on_c, 1, 62, 0
1, 207132, Note_on_c, 0, 81, 74
1, 207136, Note_on_c, 0, 79, 0
1, 207229, Note_on_c, 0, 79, 83
1, 207273, Note_on_c, 0, 81, 0
1, 207343, Note_on_c, 1, 55, 46
1, 207344, Note_on_c, 0, 79, 0
1, 207350, Note_on_c, 0, 76, 94
1, 207352, Note_on_c, 1, 59, 0
1, 207472, Note_on_c, 0, 79, 94
1, 207497, Note_on_c, 0, 76, 0
1, 207561, Note_on_c, 1, 55, 0
1, 207572, Note_on_c, 1, 60, 46
1, 207581, Note_on_c, 0, 81, 74
1, 207598, Note_on_c, 0, 79, 0
1, 207689, Note_on_c, 0, 79, 86
1, 207722, Note_on_c, 0, 81, 0
1, 207778, Note_on_c, 0, 79, 0
1, 207815, Note_on_c, 1, 64, 55
1, 207826, Note_on_c, 0, 84, 77
1, 207846, Note_on_c, 1, 60, 0
1, 207933, Note_on_c, 0, 79, 89
1, 207936, Note_on_c, 0, 84, 0
1, 208053, Note_on_c, 0, 76, 89
1, 208055, Note_on_c, 1, 60, 56
1, 208057, Note_on_c, 1, 64, 0
1, 208085, Note_on_c, 0, 79, 0
1, 208157, Note_on_c, 0, 72, 86
1, 208196, Note_on_c, 0, 76, 0
1, 208289, Note_on_c, 0, 79, 81
1, 208300, Note_on_c, 1, 60, 0
1, 208302, Note_on_c, 1, 62, 61
1, 208304, Note_on_c, 1, 55, 31
1, 208307, Note_on_c, 0, 72, 0
1, 208307, Note_on_c, 1, 59, 61
1, 208343, Note_on_c, 0, 79, 0
1, 208427, Note_on_c, 1, 62, 0
1, 208444, Note_on_c, 1, 55, 0
1, 208446, Note_on_c, 1, 59, 0
1, 208541, Note_on_c, 0, 79, 77
1, 208590, Note_on_c, 0, 79, 0
1, 208806, Note_on_c, 1, 72, 64
1, 208949, Note_on_c, 0, 74, 76
1, 209060, Note_on_c, 0, 78, 71
1, 209084, Note_on_c, 0, 74, 0
1, 209166, Note_on_c, 0, 74, 78
1, 209174, Note_on_c, 0, 78, 0
1, 209236, Note_on_c, 0, 74, 0
1, 209285, Note_on_c, 1, 71, 61
1, 209286, Note_on_c, 0, 79, 83
1, 209314, Note_on_c, 1, 72, 0
1, 209351, Note_on_c, 0, 79, 0
1, 209367, Note_on_c, 1, 71, 0
1, 209524, Note_on_c, 0, 79, 78
1, 209576, Note_on_c, 0, 79, 0
1, 209765, Note_on_c, 1, 72, 67
1, 209883, Note_on_c, 0, 74, 70
1, 209993, Note_on_c, 0, 74, 0
1, 210000, Note_on_c, 0, 78, 66
1, 210094, Note_on_c, 0, 74, 78
1, 210104, Note_on_c, 0, 78, 0
1, 210226, Note_on_c, 0, 79, 77
1, 210238, Note_on_c, 0, 74, 0
1, 210241, Note_on_c, 1, 71, 62
1, 210264, Note_on_c, 1, 72, 0
1, 210297, Note_on_c, 0, 79, 0
1, 210305, Note_on_c, 1, 71, 0
1, 210475, Note_on_c, 0, 79, 76
1, 210526, Note_on_c, 0, 79, 0
1, 210724, Note_on_c, 1, 66, 52
1, 210791, Note_on_c, 1, 66, 0
1, 210845, Note_on_c, 0, 74, 74
1, 210954, Note_on_c, 0, 74, 0
1, 210963, Note_on_c, 0, 81, 67
1, 210978, Note_on_c, 1, 66, 48
1, 211042, Note_on_c, 0, 81, 0
1, 211047, Note_on_c, 1, 66, 0
1, 211078, Note_on_c, 0, 74, 43
1, 211216, Note_on_c, 0, 83, 51
1, 211244, Note_on_c, 0, 74, 0
1, 211246, Note_on_c, 1, 67, 67
1, 211298, Note_on_c, 0, 83, 0
1, 211298, Note_on_c, 1, 67, 0
1, 211321, Note_on_c, 0, 74, 76
1, 211436, Note_on_c, 0, 74, 0
1, 211441, Note_on_c, 0, 83, 83
1, 211457, Note_on_c, 1, 67, 68
1, 211523, Note_on_c, 1, 67, 0
1, 211531, Note_on_c, 0, 83, 0
1, 211552, Note_on_c, 0, 74, 74
1, 211678, Note_on_c, 1, 69, 68
1, 211686, Note_on_c, 0, 84, 94
1, 211706, Note_on_c, 0, 74, 0
1, 211745, Note_on_c, 1, 69, 0
1, 211786, Note_on_c, 0, 84, 0
1, 211809, Note_on_c, 0, 74, 74
1, 211904, Note_on_c, 0, 74, 0
1, 211911, Note_on_c, 1, 69, 68
1, 211923, Note_on_c, 0, 84, 81
1, 211986, Note_on_c, 1, 69, 0
1, 212018, Note_on_c, 0, 74, 74
1, 212031, Note_on_c, 0, 84, 0
1, 212078, Note_on_c, 0, 74, 0
1, 212146, Note_on_c, 0, 86, 89
1, 212163, Note_on_c, 1, 71, 62
1, 212268, Note_on_c, 0, 83, 97
1, 212276, Note_on_c, 0, 86, 0
1, 212386, Note_on_c, 0, 86, 76
1, 212396, Note_on_c, 0, 83, 0
1, 212511, Note_on_c, 0, 83, 94
1, 212541, Note_on_c, 0, 86, 0
1, 212559, Note_on_c, 1, 71, 0
1, 212630, Note_on_c, 0, 83, 0
1, 212632, Note_on_c, 0, 79, 89
1, 212733, Note_on_c, 0, 83, 83
1, 212746, Note_on_c, 0, 79, 0
1, 212853, Note_on_c, 0, 83, 0
1, 212856, Note_on_c, 0, 79, 76
1, 212964, Note_on_c, 0, 83, 77
1, 212972, Note_on_c, 0, 79, 0
1, 213083, Note_on_c, 0, 83, 0
1, 213092, Note_on_c, 0, 74, 83
1, 213182, Note_on_c, 0, 74, 0
1, 213198, Note_on_c, 0, 79, 66
1, 213316, Note_on_c, 0, 79, 0
1, 213330, Note_on_c, 0, 74, 77
1, 213440, Note_on_c, 0, 79, 74
1, 213463, Note_on_c, 0, 74, 0
1, 213556, Note_on_c, 0, 79, 0
1, 213570, Note_on_c, 0, 71, 83
1, 213693, Note_on_c, 0, 74, 71
1, 213703, Note_on_c, 0, 71, 0
1, 213813, Note_on_c, 0, 74, 0
1, 213817, Note_on_c, 0, 71, 73
1, 213928, Note_on_c, 0, 74, 89
1, 213940, Note_on_c, 0, 71, 0
1, 214022, Note_on_c, 0, 74, 0
1, 214077, Note_on_c, 0, 69, 78
1, 214179, Note_on_c, 0, 76, 74
1, 214222, Note_on_c, 0, 69, 0
1, 214312, Note_on_c, 0, 75, 65
1, 214342, Note_on_c, 0, 76, 0
1, 214429, Note_on_c, 0, 76, 60
1, 214433, Note_on_c, 0, 75, 0
1, 214551, Note_on_c, 0, 74, 83
1, 214560, Note_on_c, 1, 52, 46
1, 214563, Note_on_c, 1, 48, 37
1, 214565, Note_on_c, 1, 57, 46
1, 214583, Note_on_c, 0, 76, 0
1, 214659, Note_on_c, 0, 72, 92
1, 214724, Note_on_c, 0, 74, 0
1, 214761, Note_on_c, 0, 71, 76
1, 214764, Note_on_c, 0, 72, 0
1, 214839, Note_on_c, 0, 71, 0
1, 214845, Note_on_c, 1, 57, 0
1, 214858, Note_on_c, 1, 48, 0
1, 214860, Note_on_c, 1, 52, 0
1, 214888, Note_on_c, 0, 69, 74
1, 214996, Note_on_c, 0, 69, 0
1, 215029, Note_on_c, 0, 67, 94
1, 215056, Note_on_c, 1, 55, 51
1, 215058, Note_on_c, 1, 59, 51
1, 215061, Note_on_c, 1, 50, 51
1, 215301, Note_on_c, 1, 55, 0
1, 215451, Note_on_c, 0, 67, 0
1, 215537, Note_on_c, 0, 66, 55
1, 215547, Note_on_c, 1, 60, 64
1, 215550, Note_on_c, 1, 57, 51
1, 215600, Note_on_c, 0, 66, 0
1, 215606, Note_on_c, 0, 67, 76
1, 215626, Note_on_c, 1, 59, 0
1, 215668, Note_on_c, 0, 66, 74
1, 215683, Note_on_c, 0, 67, 0
1, 215740, Note_on_c, 0, 66, 0
1, 215757, Note_on_c, 0, 67, 68
1, 215807, Note_on_c, 0, 66, 73
1, 215851, Note_on_c, 0, 67, 0
1, 215878, Note_on_c, 0, 64, 68
1, 215889, Note_on_c, 0, 66, 0
1, 215897, Note_on_c, 1, 57, 0
1, 215960, Note_on_c, 0, 66, 68
1, 215996, Note_on_c, 1, 60, 0
1, 216004, Note_on_c, 0, 64, 0
1, 216024, Note_on_c, 1, 50, 0
1, 216029, Note_on_c, 0, 66, 0
1, 216056, Note_on_c, 0, 67, 89
1, 216056, Note_on_c, 1, 55, 79
1, 216183, Note_on_c, 0, 62, 29
1, 216183, Note_on_c, 1, 50, 19
1, 216224, Note_on_c, 0, 62, 0
1, 216224, Note_on_c, 1, 50, 0
1, 216399, Note_on_c, 0, 62, 71
1, 216399, Note_on_c, 1, 50, 61
1, 216408, Note_on_c, 0, 67, 0
1, 216408, Note_on_c, 1, 55, 0
1, 216487, Note_on_c, 0, 62, 0
1, 216487, Note_on_c, 1, 50, 0
1, 216506, Note_on_c, 0, 71, 92
1, 216506, Note_on_c, 1, 59, 82
1, 216836, Note_on_c, 0, 67, 70
1, 216836, Note_on_c, 1, 55, 60
1, 216844, Note_on_c, 0, 71, 0
1, 216844, Note_on_c, 1, 59, 0
1, 216940, Note_on_c, 0, 74, 89
1, 216940, Note_on_c, 1, 62, 79
1, 216946, Note_on_c, 0, 67, 0
1, 216946, Note_on_c, 1, 55, 0
1, 217072, Note_on_c, 0, 74, 0
1, 217072, Note_on_c, 1, 62, 0
1, 217446, Note_on_c, 0, 81, 74
1, 217569, Note_on_c, 0, 81, 0
1, 217570, Note_on_c, 0, 79, 66
1, 217704, Note_on_c, 0, 78, 56
1, 217722, Note_on_c, 0, 79, 0
1, 217805, Note_on_c, 0, 76, 78
1, 217813, Note_on_c, 0, 78, 0
1, 217913, Note_on_c, 0, 76, 0
1, 217944, Note_on_c, 0, 74, 76
1, 217944, Note_on_c, 1, 50, 66
1, 217944, Note_on_c, 1, 55, 66
1, 217944, Note_on_c, 1, 59, 66
1, 218279, Note_on_c, 0, 74, 0
1, 218279, Note_on_c, 1, 50, 0
1, 218279, Note_on_c, 1, 55, 0
1, 218279, Note_on_c, 1, 59, 0
1, 218445, Note_on_c, 0, 76, 68
1, 218558, Note_on_c, 0, 74, 53
1, 218573, Note_on_c, 0, 76, 0
1, 218677, Note_on_c, 0, 72, 62
1, 218742, Note_on_c, 0, 74, 0
1, 218764, Note_on_c, 0, 71, 65
1, 218778, Note_on_c, 0, 72, 0
1, 218903, Note_on_c, 0, 69, 56
1, 218903, Note_on_c, 1, 50, 46
1, 218903, Note_on_c, 1, 60, 46
1, 218903, Note_on_c, 1, 54, 46
1, 218907, Note_on_c, 0, 71, 0
1, 219356, Note_on_c, 0, 69, 0
1, 219356, Note_on_c, 1, 50, 0
1, 219356, Note_on_c, 1, 60, 0
1, 219356, Note_on_c, 1, 54, 0
1, 219366, Note_on_c, 0, 74, 50
1, 219475, Note_on_c, 0, 72, 46
1, 219501, Note_on_c, 0, 74, 0
1, 219612, Note_on_c, 0, 71, 55
1, 219654, Note_on_c, 0, 72, 0
1, 219733, Note_on_c, 0, 71, 0
1, 219735, Note_on_c, 0, 69, 55
1, 219821, Note_on_c, 0, 69, 0
1, 219893, Note_on_c, 0, 67, 92
1, 219893, Note_on_c, 1, 55, 82
1, 219966, Note_on_c, 0, 67, 0
1, 219966, Note_on_c, 1, 55, 0
1, 220006, Note_on_c, 0, 62, 89
1, 220006, Note_on_c, 1, 50, 79
1, 220063, Note_on_c, 0, 62, 0
1, 220063, Note_on_c, 1, 50, 0
1, 220131, Note_on_c, 0, 67, 78
1, 220131, Note_on_c, 1, 55, 68
1, 220236, Note_on_c, 0, 62, 86
1, 220236, Note_on_c, 1, 50, 76
1, 220241, Note_on_c, 0, 67, 0
1, 220241, Note_on_c, 1, 55, 0
1, 220316, Note_on_c, 0, 62, 0
1, 220316, Note_on_c, 1, 50, 0
1, 220346, Note_on_c, 0, 71, 79
1, 220346, Note_on_c, 1, 59, 69
1, 220446, Note_on_c, 0, 67, 74
1, 220446, Note_on_c, 1, 55, 64
1, 220451, Note_on_c, 0, 71, 0
1, 220451, Note_on_c, 1, 59, 0
1, 220565, Note_on_c, 0, 71, 86
1, 220565, Note_on_c, 1, 59, 76
1, 220576, Note_on_c, 0, 67, 0
1, 220576, Note_on_c, 1, 55, 0
1, 220666, Note_on_c, 0, 67, 74
1, 220666, Note_on_c, 1, 55, 64
1, 220697, Note_on_c, 0, 71, 0
1, 220697, Note_on_c, 1, 59, 0
1, 220776, Note_on_c, 0, 67, 0
1, 220776, Note_on_c, 1, 55, 0
1, 220796, Note_on_c, 0, 74, 86
1, 220796, Note_on_c, 1, 62, 76
1, 220899, Note_on_c, 0, 74, 0
1, 220899, Note_on_c, 1, 62, 0
1, 221273, Note_on_c, 0, 81, 52
1, 221386, Note_on_c, 0, 79, 76
1, 221419, Note_on_c, 0, 81, 0
1, 221505, Note_on_c, 0, 78, 68
1, 221538, Note_on_c, 0, 79, 0
1, 221620, Note_on_c, 0, 76, 74
1, 221670, Note_on_c, 0, 78, 0
1, 221748, Note_on_c, 0, 76, 0
1, 221749, Note_on_c, 0, 74, 76
1, 221784, Note_on_c, 1, 59, 66
1, 221784, Note_on_c, 1, 55, 66
1, 221784, Note_on_c, 1, 50, 66
1, 221822, Note_on_c, 0, 74, 0
1, 222006, Note_on_c, 0, 74, 68
1, 222069, Note_on_c, 0, 74, 0
1, 222119, Note_on_c, 1, 59, 0
1, 222119, Note_on_c, 1, 55, 0
1, 222119, Note_on_c, 1, 50, 0
1, 222256, Note_on_c, 0, 76, 74
1, 222361, Note_on_c, 0, 74, 68
1, 222391, Note_on_c, 0, 76, 0
1, 222471, Note_on_c, 0, 72, 86
1, 222498, Note_on_c, 0, 74, 0
1, 222583, Note_on_c, 0, 71, 70
1, 222585, Note_on_c, 0, 72, 0
1, 222727, Note_on_c, 0, 69, 77
1, 222739, Note_on_c, 0, 71, 0
1, 222743, Note_on_c, 1, 54, 46
1, 222743, Note_on_c, 1, 60, 46
1, 222743, Note_on_c, 1, 50, 46
1, 222781, Note_on_c, 0, 69, 0
1, 222958, Note_on_c, 0, 69, 65
1, 223084, Note_on_c, 0, 69, 0
1, 223196, Note_on_c, 1, 54, 0
1, 223196, Note_on_c, 1, 60, 0
1, 223196, Note_on_c, 1, 50, 0
1, 223211, Note_on_c, 0, 74, 71
1, 223316, Note_on_c, 0, 72, 62
1, 223337, Note_on_c, 0, 74, 0
1, 223426, Note_on_c, 0, 71, 76
1, 223475, Note_on_c, 0, 72, 0
1, 223524, Note_on_c, 0, 71, 0
1, 223539, Note_on_c, 0, 69, 71
1, 223639, Note_on_c, 0, 69, 0
1, 223670, Note_on_c, 0, 67, 83
1, 223670, Note_on_c, 1, 55, 73
1, 223670, Note_on_c, 1, 59, 73
1, 223731, Note_on_c, 0, 67, 0
1, 223731, Note_on_c, 1, 55, 0
1, 223731, Note_on_c, 1, 59, 0
1, 224176, Note_on_c, 0, 71, 56
1, 224176, Note_on_c, 1, 55, 46
1, 224181, Note_on_c, 0, 62, 56
1, 224259, Note_on_c, 0, 62, 0
1, 224275, Note_on_c, 0, 71, 0
1, 224275, Note_on_c, 1, 55, 0
1, 224614, Tempo, 517241
1, 224654, Note_on_c, 0, 67, 62
1, 224657, Note_on_c, 0, 59, 55
1, 224657, Note_on_c, 1, 43, 45
1, 224949, Note_on_c, 0, 67, 0
1, 224968, Note_on_c, 0, 59, 0
1, 224968, Note_on_c, 1, 43, 0
1, 225277, Tempo, 508475
1, 225623, Note_on_c, 0, 74, 66
1, 225625, Note_on_c, 1, 67, 38
1, 225854, Note_on_c, 1, 67, 0
1, 225858, Note_on_c, 1, 71, 35
1, 226098, Note_on_c, 1, 67, 41
1, 226112, Note_on_c, 1, 71, 0
1, 226289, Note_on_c, 0, 75, 61
1, 226321, Note_on_c, 1, 71, 45
1, 226324, Note_on_c, 1, 67, 0
1, 226365, Note_on_c, 0, 74, 0
1, 226536, Note_on_c, 1, 71, 0
1, 226538, Note_on_c, 0, 76, 76
1, 226541, Note_on_c, 1, 67, 51
1, 226576, Note_on_c, 0, 75, 0
1, 226761, Note_on_c, 1, 67, 0
1, 226771, Note_on_c, 1, 71, 23
1, 226786, Note_on_c, 0, 78, 74
1, 226818, Note_on_c, 0, 76, 0
1, 227015, Note_on_c, 1, 71, 0
1, 227021, Note_on_c, 1, 65, 43
1, 227029, Note_on_c, 0, 79, 74
1, 227031, Tempo, 491803
1, 227035, Note_on_c, 0, 78, 0
1, 227273, Note_on_c, 0, 79, 0
1, 227278, Note_on_c, 0, 71, 72
1, 227281, Note_on_c, 1, 65, 0
1, 227299, Note_on_c, 1, 68, 11
1, 227506, Note_on_c, 1, 68, 0
1, 227507, Note_on_c, 1, 64, 34
1, 227535, Note_on_c, 0, 74, 51
1, 227587, Note_on_c, 0, 71, 0
1, 227736, Note_on_c, 1, 67, 51
1, 227751, Note_on_c, 1, 64, 0
1, 227763, Note_on_c, 0, 72, 43
1, 227846, Note_on_c, 0, 74, 0
1, 227881, Note_on_c, 0, 72, 0
1, 227987, Note_on_c, 1, 67, 0
1, 227989, Note_on_c, 1, 64, 47
1, 228128, Tempo, 483871
1, 228229, Note_on_c, 1, 64, 0
1, 228238, Note_on_c, 1, 67, 34
1, 228252, Note_on_c, 0, 71, 71
1, 228472, Note_on_c, 1, 67, 0
1, 228474, Note_on_c, 1, 64, 47
1, 228498, Note_on_c, 0, 72, 73
1, 228535, Note_on_c, 0, 71, 0
1, 228711, Note_on_c, 1, 67, 42
1, 228716, Note_on_c, 1, 64, 0
1, 228738, Note_on_c, 0, 74, 72
1, 228767, Note_on_c, 0, 72, 0
1, 228946, Note_on_c, 1, 67, 0
1, 228953, Note_on_c, 1, 62, 47
1, 228972, Note_on_c, 0, 76, 74
1, 229006, Note_on_c, 0, 74, 0
1, 229191, Note_on_c, 1, 65, 48
1, 229192, Note_on_c, 0, 68, 74
1, 229204, Note_on_c, 1, 62, 0
1, 229206, Note_on_c, 0, 76, 0
1, 229426, Note_on_c, 0, 68, 0
1, 229435, Note_on_c, 0, 71, 66
1, 229436, Note_on_c, 1, 60, 55
1, 229461, Note_on_c, 1, 65, 0
1, 229658, Note_on_c, 1, 60, 0
1, 229670, Note_on_c, 1, 64, 46
1, 229674, Note_on_c, 0, 69, 55
1, 229706, Note_on_c, 0, 71, 0
1, 229805, Note_on_c, 0, 69, 0
1, 229894, Note_on_c, 1, 64, 0
1, 229898, Note_on_c, 1, 60, 31
1, 230132, Note_on_c, 1, 64, 35
1, 230138, Note_on_c, 1, 60, 0
1, 230175, Note_on_c, 0, 68, 36
1, 230370, Note_on_c, 1, 60, 24
1, 230375, Note_on_c, 1, 64, 0
1, 230401, Note_on_c, 0, 68, 0
1, 230405, Note_on_c, 0, 69, 74
1, 230622, Note_on_c, 1, 64, 47
1, 230629, Note_on_c, 1, 60, 0
1, 230632, Note_on_c, 0, 71, 68
1, 230671, Note_on_c, 0, 69, 0
1, 230869, Note_on_c, 1, 60, 32
1, 230872, Note_on_c, 1, 64, 0
1, 230882, Note_on_c, 0, 72, 65
1, 230901, Note_on_c, 0, 71, 0
1, 231096, Note_on_c, 1, 63, 37
1, 231104, Note_on_c, 0, 72, 0
1, 231121, Note_on_c, 0, 66, 55
1, 231135, Note_on_c, 1, 60, 0
1, 231261, Note_on_c, 0, 66, 0
1, 231346, Note_on_c, 1, 63, 0
1, 231354, Note_on_c, 1, 59, 41
1, 231363, Note_on_c, 0, 69, 39
1, 231590, Note_on_c, 1, 62, 38
1, 231598, Note_on_c, 0, 69, 0
1, 231601, Note_on_c, 0, 67, 70
1, 231656, Note_on_c, 1, 59, 0
1, 231785, Note_on_c, 0, 67, 0
1, 231845, Note_on_c, 1, 60, 51
1, 231846, Note_on_c, 0, 76, 70
1, 231872, Note_on_c, 1, 62, 0
1, 232033, Note_on_c, 0, 76, 0
1, 232086, Note_on_c, 0, 66, 38
1, 232089, Note_on_c, 1, 62, 47
1, 232097, Note_on_c, 1, 60, 0
1, 232251, Note_on_c, 0, 66, 0
1, 232305, Note_on_c, 0, 69, 72
1, 232326, Note_on_c, 1, 59, 41
1, 232331, Note_on_c, 1, 62, 0
1, 232550, Note_on_c, 1, 62, 48
1, 232563, Note_on_c, 0, 69, 0
1, 232569, Note_on_c, 0, 67, 57
1, 232572, Note_on_c, 1, 59, 0
1, 232710, Note_on_c, 0, 67, 0
1, 232790, Note_on_c, 1, 60, 40
1, 232798, Note_on_c, 0, 76, 79
1, 232802, Note_on_c, 1, 62, 0
1, 233011, Note_on_c, 0, 76, 0
1, 233036, Note_on_c, 1, 62, 36
1, 233039, Note_on_c, 1, 60, 0
1, 233045, Note_on_c, 0, 66, 55
1, 233216, Note_on_c, 0, 66, 0
1, 233273, Note_on_c, 0, 69, 55
1, 233281, Note_on_c, 1, 59, 40
1, 233287, Note_on_c, 1, 62, 0
1, 233314, Tempo, 491803
1, 233510, Note_on_c, 1, 62, 45
1, 233514, Note_on_c, 0, 69, 0
1, 233533, Note_on_c, 0, 67, 53
1, 233576, Note_on_c, 1, 59, 0
1, 233757, Note_on_c, 0, 75, 62
1, 233758, Note_on_c, 1, 60, 45
1, 233776, Note_on_c, 0, 67, 0
1, 233779, Note_on_c, 1, 62, 0
1, 233909, Tempo, 504202
1, 233985, Note_on_c, 1, 63, 45
1, 233995, Note_on_c, 0, 75, 0
1, 234022, Note_on_c, 1, 60, 0
1, 234032, Note_on_c, 0, 66, 41
1, 234211, Note_on_c, 0, 66, 0
1, 234225, Note_on_c, 1, 63, 0
1, 234243, Note_on_c, 0, 69, 38
1, 234247, Note_on_c, 1, 59, 27
1, 234467, Note_on_c, 0, 69, 0
1, 234469, Note_on_c, 0, 67, 62
1, 234472, Note_on_c, 1, 62, 45
1, 234519, Note_on_c, 1, 59, 0
1, 234673, Note_on_c, 0, 67, 0
1, 234709, Note_on_c, 0, 75, 74
1, 234721, Note_on_c, 1, 60, 52
1, 234747, Note_on_c, 1, 62, 0
1, 234943, Note_on_c, 1, 60, 0
1, 234952, Note_on_c, 1, 63, 38
1, 234961, Note_on_c, 0, 66, 62
1, 234963, Note_on_c, 0, 75, 0
1, 235149, Note_on_c, 1, 63, 0
1, 235168, Note_on_c, 0, 66, 0
1, 235200, Note_on_c, 0, 67, 57
1, 235205, Note_on_c, 1, 62, 47
1, 235207, Note_on_c, 1, 59, 47
1, 235209, Tempo, 526316
1, 235243, Tempo, 483871
1, 235438, Note_on_c, 0, 67, 0
1, 235440, Note_on_c, 0, 69, 62
1, 235558, Note_on_c, 0, 69, 0
1, 235560, Note_on_c, 0, 71, 56
1, 235678, Note_on_c, 0, 71, 0
1, 235680, Note_on_c, 0, 72, 62
1, 235798, Note_on_c, 0, 72, 0
1, 235800, Note_on_c, 0, 74, 71
1, 235885, Note_on_c, 1, 62, 0
1, 235902, Note_on_c, 1, 59, 0
1, 235918, Note_on_c, 0, 74, 0
1, 235920, Note_on_c, 0, 76, 67
1, 236038, Note_on_c, 0, 76, 0
1, 236040, Note_on_c, 0, 78, 73
1, 236158, Note_on_c, 0, 78, 0
1, 236160, Note_on_c, 0, 79, 92
1, 236278, Note_on_c, 0, 79, 0
1, 236280, Note_on_c, 0, 81, 89
1, 236398, Note_on_c, 0, 81, 0
1, 236400, Note_on_c, 0, 83, 89
1, 236518, Note_on_c, 0, 83, 0
1, 236520, Note_on_c, 0, 78, 72
1, 236638, Note_on_c, 0, 78, 0
1, 236640, Note_on_c, 0, 79, 77
1, 236758, Note_on_c, 0, 79, 0
1, 236760, Note_on_c, 0, 74, 63
1, 236878, Note_on_c, 0, 74, 0
1, 236880, Note_on_c, 0, 76, 55
1, 236998, Note_on_c, 0, 76, 0
1, 237000, Note_on_c, 0, 71, 65
1, 237118, Note_on_c, 0, 71, 0
1, 237120, Note_on_c, 0, 50, 55
1, 237120, Note_on_c, 0, 74, 74
1, 237358, Note_on_c, 0, 50, 0
1, 237360, Note_on_c, 0, 59, 52
1, 237598, Note_on_c, 0, 59, 0
1, 237600, Note_on_c, 0, 55, 55
1, 237838, Note_on_c, 0, 55, 0
1, 237840, Note_on_c, 0, 59, 48
1, 238078, Note_on_c, 0, 74, 0
1, 238078, Note_on_c, 0, 59, 0
1, 238080, Note_on_c, 0, 72, 65
1, 238080, Note_on_c, 1, 50, 46
1, 238198, Note_on_c, 0, 72, 0
1, 238200, Note_on_c, 0, 74, 65
1, 238318, Note_on_c, 0, 74, 0
1, 238318, Note_on_c, 1, 50, 0
1, 238320, Note_on_c, 0, 72, 56
1, 238320, Note_on_c, 1, 57, 41
1, 238438, Note_on_c, 0, 72, 0
1, 238440, Note_on_c, 0, 74, 58
1, 238558, Note_on_c, 0, 74, 0
1, 238558, Note_on_c, 1, 57, 0
1, 238560, Note_on_c, 0, 72, 67
1, 238560, Note_on_c, 1, 54, 48
1, 238638, Note_on_c, 0, 72, 0
1, 238640, Note_on_c, 0, 74, 70
1, 238718, Note_on_c, 0, 74, 0
1, 238720, Note_on_c, 0, 72, 61
1, 238798, Note_on_c, 0, 72, 0
1, 238798, Note_on_c, 1, 54, 0
1, 238800, Note_on_c, 0, 71, 68
1, 238800, Note_on_c, 1, 57, 45
1, 238918, Note_on_c, 0, 71, 0
1, 238920, Note_on_c, 0, 72, 55
1, 239038, Note_on_c, 0, 72, 0
1, 239038, Note_on_c, 1, 57, 0
1, 239040, Note_on_c, 0, 71, 74
1, 239040, Note_on_c, 1, 55, 45
1, 239278, Note_on_c, 1, 55, 0
1, 239280, Note_on_c, 1, 59, 31
1, 239518, Note_on_c, 1, 59, 0
1, 239520, Note_on_c, 1, 62, 31
1, 239758, Note_on_c, 1, 62, 0
1, 239760, Note_on_c, 1, 59, 24
1, 239998, Note_on_c, 0, 71, 0
1, 239998, Note_on_c, 1, 59, 0
1, 240000, Note_on_c, 1, 55, 34
1, 240240, Note_on_c, 0, 69, 61
1, 240318, Note_on_c, 0, 69, 0
1, 240320, Note_on_c, 0, 67, 62
1, 240398, Note_on_c, 0, 67, 0
1, 240400, Note_on_c, 0, 66, 60
1, 240478, Note_on_c, 0, 66, 0
1, 240478, Note_on_c, 1, 55, 0
1, 240480, Note_on_c, 0, 67, 67
1, 240558, Note_on_c, 0, 67, 0
1, 240720, Note_on_c, 0, 71, 68
1, 240798, Note_on_c, 0, 71, 0
1, 240960, Note_on_c, 0, 76, 74
1, 240960, Note_on_c, 1, 55, 45
1, 241198, Note_on_c, 1, 55, 0
1, 241200, Note_on_c, 1, 59, 53
1, 241438, Note_on_c, 0, 76, 0
1, 241438, Note_on_c, 1, 59, 0
1, 241440, Note_on_c, 0, 74, 53
1, 241440, Note_on_c, 1, 62, 47
1, 241678, Note_on_c, 1, 62, 0
1, 241680, Note_on_c, 1, 59, 55
1, 241918, Note_on_c, 0, 74, 0
1, 241918, Note_on_c, 1, 59, 0
1, 241920, Note_on_c, 1, 55, 58
1, 242160, Note_on_c, 0, 72, 45
1, 242238, Note_on_c, 0, 72, 0
1, 242240, Note_on_c, 0, 71, 60
1, 242318, Note_on_c, 0, 71, 0
1, 242320, Note_on_c, 0, 69, 57
1, 242398, Note_on_c, 0, 69, 0
1, 242398, Note_on_c, 1, 55, 0
1, 242400, Note_on_c, 0, 71, 76
1, 242478, Note_on_c, 0, 71, 0
1, 242640, Note_on_c, 0, 74, 89
1, 242718, Note_on_c, 0, 74, 0
1, 242880, Note_on_c, 0, 79, 86
1, 242880, Note_on_c, 1, 55, 45
1, 243118, Note_on_c, 1, 55, 0
1, 243120, Note_on_c, 1, 59, 53
1, 243358, Note_on_c, 0, 79, 0
1, 243358, Note_on_c, 1, 59, 0
1, 243360, Note_on_c, 0, 77, 58
1, 243360, Note_on_c, 1, 62, 47
1, 243598, Note_on_c, 1, 62, 0
1, 243600, Note_on_c, 1, 59, 55
1, 243838, Note_on_c, 0, 77, 0
1, 243838, Note_on_c, 1, 59, 0
1, 243840, Note_on_c, 1, 55, 58
1, 244080, Note_on_c, 0, 76, 53
1, 244158, Note_on_c, 0, 76, 0
1, 244160, Note_on_c, 0, 74, 66
1, 244238, Note_on_c, 0, 74, 0
1, 244240, Note_on_c, 0, 73, 61
1, 244318, Note_on_c, 0, 73, 0
1, 244318, Note_on_c, 1, 55, 0
1, 244320, Note_on_c, 0, 74, 94
1, 244398, Note_on_c, 0, 74, 0
1, 244560, Note_on_c, 0, 77, 83
1, 244638, Note_on_c, 0, 77, 0
1, 244800, Note_on_c, 0, 84, 76
1, 244800, Note_on_c, 1, 56, 62
1, 245038, Note_on_c, 0, 84, 0
1, 245040, Note_on_c, 0, 83, 81
1, 245278, Note_on_c, 1, 56, 0
1, 245280, Note_on_c, 1, 59, 62
1, 245518, Note_on_c, 0, 83, 0
1, 245520, Note_on_c, 0, 86, 89
1, 245758, Note_on_c, 1, 59, 0
1, 245760, Note_on_c, 1, 62, 57
1, 245998, Note_on_c, 0, 86, 0
1, 246000, Note_on_c, 0, 80, 74
1, 246238, Note_on_c, 1, 62, 0
1, 246240, Note_on_c, 1, 65, 64
1, 246478, Note_on_c, 0, 80, 0
1, 246480, Note_on_c, 0, 83, 71
1, 246718, Note_on_c, 1, 65, 0
1, 246720, Note_on_c, 1, 62, 58
1, 246958, Note_on_c, 0, 83, 0
1, 246960, Note_on_c, 0, 74, 53
1, 247198, Note_on_c, 1, 62, 0
1, 247200, Note_on_c, 1, 59, 66
1, 247438, Note_on_c, 0, 74, 0
1, 247440, Note_on_c, 0, 77, 56
1, 247678, Note_on_c, 1, 59, 0
1, 247680, Note_on_c, 1, 56, 61
1, 247918, Note_on_c, 0, 77, 0
1, 247920, Note_on_c, 0, 76, 73
1, 248158, Note_on_c, 1, 56, 0
1, 248160, Note_on_c, 1, 64, 62
1, 248398, Note_on_c, 0, 76, 0
1, 248400, Note_on_c, 0, 74, 65
1, 248638, Note_on_c, 0, 74, 0
1, 248638, Note_on_c, 1, 64, 0
1, 248640, Note_on_c, 0, 72, 65
1, 248640, Note_on_c, 1, 57, 42
1, 248878, Note_on_c, 1, 57, 0
1, 248880, Note_on_c, 1, 60, 51
1, 249118, Note_on_c, 0, 72, 0
1, 249118, Note_on_c, 1, 60, 0
1, 249120, Note_on_c, 1, 64, 37
1, 249358, Note_on_c, 1, 64, 0
1, 249360, Note_on_c, 1, 60, 55
1, 249598, Note_on_c, 1, 60, 0
1, 249600, Note_on_c, 1, 57, 52
1, 249838, Note_on_c, 1, 57, 0
1, 249840, Note_on_c, 0, 74, 67
1, 249840, Note_on_c, 1, 60, 47
1, 249918, Note_on_c, 0, 74, 0
1, 249920, Note_on_c, 0, 72, 50
1, 249998, Note_on_c, 0, 72, 0
1, 250000, Note_on_c, 0, 71, 50
1, 250078, Note_on_c, 0, 71, 0
1, 250078, Note_on_c, 1, 60, 0
1, 250080, Note_on_c, 0, 72, 67
1, 250080, Note_on_c, 1, 65, 51
1, 250318, Note_on_c, 0, 72, 0
1, 250318, Note_on_c, 1, 65, 0
1, 250320, Note_on_c, 0, 74, 68
1, 250320, Note_on_c, 1, 60, 28
1, 250558, Note_on_c, 0, 74, 0
1, 250558, Note_on_c, 1, 60, 0
1, 250560, Note_on_c, 0, 72, 70
1, 250560, Note_on_c, 1, 55, 56
1, 250798, Note_on_c, 1, 55, 0
1, 250800, Note_on_c, 1, 62, 46
1, 251038, Note_on_c, 1, 62, 0
1, 251040, Note_on_c, 1, 65, 56
1, 251278, Note_on_c, 1, 65, 0
1, 251280, Note_on_c, 1, 62, 42
1, 251518, Note_on_c, 0, 72, 0
1, 251518, Note_on_c, 1, 62, 0
1, 251520, Note_on_c, 0, 70, 57
1, 251520, Note_on_c, 1, 55, 64
1, 251598, Note_on_c, 0, 70, 0
1, 251600, Note_on_c, 0, 72, 65
1, 251678, Note_on_c, 0, 72, 0
1, 251680, Note_on_c, 0, 70, 60
1, 251758, Note_on_c, 0, 70, 0
1, 251758, Note_on_c, 1, 55, 0
1, 251760, Note_on_c, 0, 72, 73
1, 251760, Note_on_c, 1, 60, 52
1, 251838, Note_on_c, 0, 72, 0
1, 251840, Note_on_c, 0, 70, 65
1, 251918, Note_on_c, 0, 70, 0
1, 251920, Note_on_c, 0, 72, 78
1, 251998, Note_on_c, 0, 72, 0
1, 251998, Note_on_c, 1, 60, 0
1, 252000, Note_on_c, 0, 70, 73
1, 252000, Note_on_c, 1, 64, 46
1, 252078, Note_on_c, 0, 70, 0
1, 252080, Note_on_c, 0, 72, 81
1, 252158, Note_on_c, 0, 72, 0
1, 252160, Note_on_c, 0, 70, 70
1, 252238, Note_on_c, 0, 70, 0
1, 252238, Note_on_c, 1, 64, 0
1, 252240, Note_on_c, 0, 69, 56
1, 252240, Note_on_c, 1, 60, 41
1, 252358, Note_on_c, 0, 69, 0
1, 252360, Note_on_c, 0, 70, 63
1, 252478, Note_on_c, 0, 70, 0
1, 252478, Note_on_c, 1, 60, 0
1, 252480, Note_on_c, 0, 69, 62
1, 252480, Note_on_c, 1, 53, 64
1, 252718, Note_on_c, 0, 69, 0
1, 252718, Note_on_c, 1, 53, 0
1, 252720, Note_on_c, 0, 72, 73
1, 252720, Note_on_c, 1, 60, 58
1, 252958, Note_on_c, 1, 60, 0
1, 252960, Note_on_c, 1, 65, 63
1, 253198, Note_on_c, 0, 72, 0
1, 253198, Note_on_c, 1, 65, 0
1, 253200, Note_on_c, 0, 77, 77
1, 253200, Note_on_c, 1, 60, 63
1, 253438, Note_on_c, 1, 60, 0
1, 253440, Note_on_c, 1, 53, 62
1, 253678, Note_on_c, 0, 77, 0
1, 253678, Note_on_c, 1, 53, 0
1, 253680, Note_on_c, 0, 81, 83
1, 253680, Note_on_c, 1, 57, 64
1, 253918, Note_on_c, 1, 57, 0
1, 253920, Note_on_c, 1, 62, 56
1, 254158, Note_on_c, 0, 81, 0
1, 254158, Note_on_c, 1, 62, 0
1, 254160, Note_on_c, 0, 82, 74
1, 254160, Note_on_c, 1, 57, 56
1, 254398, Note_on_c, 0, 82, 0
1, 254398, Note_on_c, 1, 57, 0
1, 254400, Note_on_c, 0, 81, 83
1, 254400, Note_on_c, 1, 52, 64
1, 254638, Note_on_c, 1, 52, 0
1, 254640, Note_on_c, 1, 57, 52
1, 254878, Note_on_c, 1, 57, 0
1, 254880, Note_on_c, 1, 61, 58
1, 255118, Note_on_c, 1, 61, 0
1, 255120, Note_on_c, 1, 57, 40
1, 255358, Note_on_c, 0, 81, 0
1, 255358, Note_on_c, 1, 57, 0
1, 255360, Note_on_c, 0, 79, 63
1, 255360, Note_on_c, 1, 52, 60
1, 255598, Note_on_c, 1, 52, 0
1, 255600, Note_on_c, 1, 57, 45
1, 255838, Note_on_c, 1, 57, 0
1, 255840, Note_on_c, 1, 61, 43
1, 256078, Note_on_c, 1, 61, 0
1, 256080, Note_on_c, 1, 57, 45
1, 256318, Note_on_c, 0, 79, 0
1, 256318, Note_on_c, 1, 57, 0
1, 256320, Note_on_c, 0, 79, 72
1, 256320, Note_on_c, 1, 50, 52
1, 256558, Note_on_c, 1, 50, 0
1, 256560, Note_on_c, 1, 57, 47
1, 256798, Note_on_c, 1, 57, 0
1, 256800, Note_on_c, 1, 60, 35
1, 257038, Note_on_c, 0, 79, 0
1, 257038, Note_on_c, 1, 60, 0
1, 257040, Note_on_c, 0, 78, 74
1, 257040, Note_on_c, 1, 57, 26
1, 257278, Note_on_c, 0, 78, 0
1, 257278, Note_on_c, 1, 57, 0
1, 257280, Note_on_c, 0, 77, 78
1, 257280, Note_on_c, 1, 50, 61
1, 257518, Note_on_c, 1, 50, 0
1, 257520, Note_on_c, 1, 55, 55
1, 257758, Note_on_c, 1, 55, 0
1, 257760, Note_on_c, 1, 59, 45
1, 257998, Note_on_c, 1, 59, 0
1, 258000, Note_on_c, 1, 55, 50
1, 258238, Note_on_c, 0, 77, 0
1, 258238, Note_on_c, 1, 55, 0
1, 258240, Note_on_c, 0, 77, 56
1, 258240, Note_on_c, 1, 48, 61
1, 258478, Note_on_c, 1, 48, 0
1, 258480, Note_on_c, 1, 55, 38
1, 258718, Note_on_c, 1, 55, 0
1, 258720, Note_on_c, 1, 60, 51
1, 258958, Note_on_c, 0, 77, 0
1, 258958, Note_on_c, 1, 60, 0
1, 258960, Note_on_c, 0, 76, 61
1, 258960, Note_on_c, 1, 55, 43
1, 259198, Note_on_c, 0, 76, 0
1, 259198, Note_on_c, 1, 55, 0
1, 259200, Note_on_c, 0, 75, 55
1, 259200, Note_on_c, 1, 48, 61
1, 259438, Note_on_c, 1, 48, 0
1, 259440, Note_on_c, 1, 55, 42
1, 259678, Note_on_c, 1, 55, 0
1, 259680, Note_on_c, 1, 60, 50
1, 259918, Note_on_c, 1, 60, 0
1, 259920, Note_on_c, 1, 55, 41
1, 260158, Note_on_c, 0, 75, 0
1, 260158, Note_on_c, 1, 55, 0
1, 260160, Note_on_c, 0, 75, 62
1, 260160, Note_on_c, 1, 53, 43
1, 260398, Note_on_c, 0, 75, 0
1, 260398, Note_on_c, 1, 53, 0
1, 260400, Note_on_c, 0, 74, 56
1, 260400, Note_on_c, 1, 56, 42
1, 260638, Note_on_c, 0, 74, 0
1, 260638, Note_on_c, 1, 56, 0
1, 260640, Note_on_c, 0, 74, 67
1, 260640, Note_on_c, 1, 60, 56
1, 260758, Note_on_c, 0, 74, 0
1, 260878, Note_on_c, 1, 60, 0
1, 260880, Note_on_c, 0, 74, 70
1, 260880, Note_on_c, 1, 56, 50
1, 260998, Note_on_c, 0, 74, 0
1, 261118, Note_on_c, 1, 56, 0
1, 261120, Note_on_c, 0, 74, 76
1, 261120, Note_on_c, 1, 53, 64
1, 261358, Note_on_c, 1, 53, 0
1, 261360, Note_on_c, 1, 56, 63
1, 261598, Note_on_c, 0, 74, 0
1, 261598, Note_on_c, 1, 56, 0
1, 261600, Note_on_c, 0, 74, 72
1, 261600, Note_on_c, 1, 60, 55
1, 261838, Note_on_c, 1, 60, 0
1, 261840, Note_on_c, 1, 56, 55
1, 262078, Note_on_c, 0, 74, 0
1, 262078, Note_on_c, 1, 56, 0
1, 262080, Note_on_c, 0, 74, 74
1, 262080, Note_on_c, 1, 54, 62
1, 262318, Note_on_c, 1, 54, 0
1, 262320, Note_on_c, 1, 57, 64
1, 262478, Note_on_c, 0, 74, 0
1, 262480, Note_on_c, 0, 77, 68
1, 262558, Note_on_c, 0, 77, 0
1, 262558, Note_on_c, 1, 57, 0
1, 262560, Note_on_c, 0, 75, 74
1, 262560, Note_on_c, 1, 60, 55
1, 262798, Note_on_c, 1, 60, 0
1, 262800, Note_on_c, 1, 57, 62
1, 263038, Note_on_c, 1, 57, 0
1, 263040, Note_on_c, 1, 54, 66
1, 263278, Note_on_c, 1, 54, 0
1, 263280, Note_on_c, 1, 57, 68
1, 263518, Note_on_c, 0, 75, 0
1, 263518, Note_on_c, 1, 57, 0
1, 263520, Note_on_c, 0, 74, 74
1, 263520, Note_on_c, 1, 60, 55
1, 263758, Note_on_c, 0, 74, 0
1, 263758, Note_on_c, 1, 60, 0
1, 263760, Note_on_c, 0, 72, 72
1, 263760, Note_on_c, 1, 57, 61
1, 263998, Note_on_c, 0, 72, 0
1, 263998, Note_on_c, 1, 57, 0
1, 264000, Note_on_c, 0, 71, 72
1, 264000, Note_on_c, 1, 55, 52
1, 264238, Note_on_c, 0, 71, 0
1, 264240, Note_on_c, 0, 79, 74
1, 264478, Note_on_c, 0, 79, 0
1, 264478, Note_on_c, 1, 55, 0
1, 264480, Note_on_c, 1, 55, 61
1, 264720, Note_on_c, 0, 79, 68
1, 264958, Note_on_c, 0, 79, 0
1, 264958, Note_on_c, 1, 55, 0
1, 264960, Note_on_c, 1, 57, 45
1, 264960, Note_on_c, 1, 55, 47
1, 265200, Note_on_c, 0, 78, 66
1, 265438, Note_on_c, 0, 78, 0
1, 265438, Note_on_c, 1, 57, 0
1, 265438, Note_on_c, 1, 55, 0
1, 265440, Note_on_c, 1, 59, 66
1, 265440, Note_on_c, 1, 55, 66
1, 265680, Note_on_c, 0, 77, 70
1, 265918, Note_on_c, 0, 77, 0
1, 265918, Note_on_c, 1, 59, 0
1, 265918, Note_on_c, 1, 55, 0
1, 265920, Note_on_c, 0, 77, 66
1, 265920, Note_on_c, 1, 60, 64
1, 265920, Note_on_c, 1, 55, 64
1, 266158, Note_on_c, 0, 77, 0
1, 266160, Note_on_c, 0, 76, 65
1, 266398, Note_on_c, 0, 76, 0
1, 266398, Note_on_c, 1, 60, 0
1, 266398, Note_on_c, 1, 55, 0
1, 266400, Note_on_c, 1, 67, 68
1, 266400, Note_on_c, 1, 55, 62
1, 266640, Note_on_c, 0, 75, 66
1, 266878, Note_on_c, 0, 75, 0
1, 266878, Note_on_c, 1, 67, 0
1, 266878, Note_on_c, 1, 55, 0
1, 266880, Note_on_c, 1, 65, 53
1, 266880, Note_on_c, 1, 55, 63
1, 267120, Note_on_c, 0, 74, 74
1, 267358, Note_on_c, 0, 74, 0
1, 267358, Note_on_c, 1, 65, 0
1, 267358, Note_on_c, 1, 55, 0
1, 267360, Note_on_c, 1, 55, 58
1, 267360, Note_on_c, 1, 63, 62
1, 267600, Note_on_c, 0, 72, 71
1, 267838, Note_on_c, 0, 72, 0
1, 267838, Note_on_c, 1, 55, 0
1, 267838, Note_on_c, 1, 63, 0
1, 267840, Note_on_c, 0, 72, 65
1, 267840, Note_on_c, 1, 62, 60
1, 267840, Note_on_c, 1, 55, 51
1, 268078, Note_on_c, 0, 72, 0
1, 268080, Note_on_c, 0, 71, 71
1, 268318, Note_on_c, 0, 71, 0
1, 268318, Note_on_c, 1, 62, 0
1, 268318, Note_on_c, 1, 55, 0
1, 268320, Note_on_c, 1, 59, 46
1, 268320, Note_on_c, 1, 55, 52
1, 268440, Note_on_c, 0, 79, 72
1, 268558, Note_on_c, 0, 79, 0
1, 268560, Note_on_c, 0, 81, 77
1, 268606, Note_on_c, 1, 59, 0
1, 268606, Note_on_c, 1, 55, 0
1, 268678, Note_on_c, 0, 81, 0
1, 268680, Note_on_c, 0, 79, 58
1, 268798, Note_on_c, 0, 79, 0
1, 268800, Note_on_c, 1, 57, 56
1, 268800, Note_on_c, 1, 55, 57
1, 268920, Note_on_c, 0, 78, 68
1, 269038, Note_on_c, 0, 78, 0
1, 269040, Note_on_c, 0, 79, 76
1, 269086, Note_on_c, 1, 57, 0
1, 269086, Note_on_c, 1, 55, 0
1, 269158, Note_on_c, 0, 79, 0
1, 269160, Note_on_c, 0, 78, 66
1, 269278, Note_on_c, 0, 78, 0
1, 269280, Note_on_c, 1, 55, 53
1, 269280, Note_on_c, 1, 59, 51
1, 269400, Note_on_c, 0, 77, 77
1, 269518, Note_on_c, 0, 77, 0
1, 269520, Note_on_c, 0, 79, 79
1, 269566, Note_on_c, 1, 55, 0
1, 269566, Note_on_c, 1, 59, 0
1, 269638, Note_on_c, 0, 79, 0
1, 269640, Note_on_c, 0, 77, 78
1, 269758, Note_on_c, 0, 77, 0
1, 269760, Note_on_c, 1, 55, 55
1, 269760, Note_on_c, 1, 60, 63
1, 269880, Note_on_c, 0, 76, 76
1, 269998, Note_on_c, 0, 76, 0
1, 270000, Note_on_c, 0, 77, 79
1, 270046, Note_on_c, 1, 55, 0
1, 270046, Note_on_c, 1, 60, 0
1, 270118, Note_on_c, 0, 77, 0
1, 270120, Note_on_c, 0, 76, 89
1, 270238, Note_on_c, 0, 76, 0
1, 270240, Note_on_c, 1, 67, 68
1, 270240, Note_on_c, 1, 55, 60
1, 270360, Note_on_c, 0, 75, 74
1, 270478, Note_on_c, 0, 75, 0
1, 270480, Note_on_c, 0, 77, 79
1, 270526, Note_on_c, 1, 67, 0
1, 270526, Note_on_c, 1, 55, 0
1, 270598, Note_on_c, 0, 77, 0
1, 270600, Note_on_c, 0, 75, 74
1, 270718, Note_on_c, 0, 75, 0
1, 270720, Note_on_c, 1, 65, 67
1, 270720, Note_on_c, 1, 55, 63
1, 270840, Note_on_c, 0, 74, 76
1, 270958, Note_on_c, 0, 74, 0
1, 270960, Note_on_c, 0, 75, 74
1, 271006, Note_on_c, 1, 65, 0
1, 271006, Note_on_c, 1, 55, 0
1, 271078, Note_on_c, 0, 75, 0
1, 271080, Note_on_c, 0, 74, 66
1, 271198, Note_on_c, 0, 74, 0
1, 271200, Note_on_c, 1, 63, 58
1, 271200, Note_on_c, 1, 54, 52
1, 271320, Note_on_c, 0, 72, 72
1, 271438, Note_on_c, 0, 72, 0
1, 271440, Note_on_c, 0, 74, 76
1, 271486, Note_on_c, 1, 63, 0
1, 271486, Note_on_c, 1, 54, 0
1, 271558, Note_on_c, 0, 74, 0
1, 271560, Note_on_c, 0, 72, 74
1, 271678, Note_on_c, 0, 72, 0
1, 271680, Note_on_c, 0, 71, 67
1, 271680, Note_on_c, 1, 62, 64
1, 271680, Note_on_c, 1, 55, 63
1, 271918, Note_on_c, 0, 71, 0
1, 271920, Note_on_c, 0, 72, 72
1, 271998, Note_on_c, 0, 72, 0
1, 272000, Note_on_c, 0, 71, 47
1, 272078, Note_on_c, 0, 71, 0
1, 272080, Note_on_c, 0, 69, 52
1, 272158, Note_on_c, 0, 69, 0
1, 272158, Note_on_c, 1, 62, 0
1, 272158, Note_on_c, 1, 55, 0
1, 272160, Note_on_c, 0, 71, 72
1, 272238, Note_on_c, 0, 71, 0
1, 272400, Note_on_c, 0, 72, 70
1, 272478, Note_on_c, 0, 72, 0
1, 272640, Note_on_c, 0, 74, 73
1, 272878, Note_on_c, 0, 74, 0
1, 272880, Note_on_c, 0, 76, 74
1, 272958, Note_on_c, 0, 76, 0
1, 272960, Note_on_c, 0, 74, 67
1, 273038, Note_on_c, 0, 74, 0
1, 273040, Note_on_c, 0, 73, 57
1, 273118, Note_on_c, 0, 73, 0
1, 273120, Note_on_c, 0, 74, 77
1, 273198, Note_on_c, 0, 74, 0
1, 273360, Note_on_c, 0, 76, 76
1, 273438, Note_on_c, 0, 76, 0
1, 273600, Note_on_c, 0, 77, 70
1, 273600, Note_on_c, 1, 62, 53
1, 273600, Note_on_c, 1, 55, 33
1, 274078, Note_on_c, 0, 77, 0
1, 274078, Note_on_c, 1, 62, 0
1, 274078, Note_on_c, 1, 55, 0
1, 274200, Note_on_c, 0, 79, 58
1, 274318, Note_on_c, 0, 79, 0
1, 274320, Note_on_c, 0, 76, 63
1, 274320, Note_on_c, 1, 61, 45
1, 274438, Note_on_c, 0, 76, 0
1, 274440, Note_on_c, 0, 79, 65
1, 274558, Note_on_c, 0, 79, 0
1, 274558, Note_on_c, 1, 61, 0
1, 274560, Note_on_c, 0, 77, 63
1, 274560, Note_on_c, 1, 55, 33
1, 274560, Note_on_c, 1, 62, 53
1, 275038, Note_on_c, 0, 77, 0
1, 275038, Note_on_c, 1, 55, 0
1, 275038, Note_on_c, 1, 62, 0
1, 275160, Note_on_c, 0, 79, 58
1, 275278, Note_on_c, 0, 79, 0
1, 275280, Note_on_c, 0, 76, 48
1, 275280, Note_on_c, 1, 61, 45
1, 275398, Note_on_c, 0, 76, 0
1, 275400, Note_on_c, 0, 79, 55
1, 275518, Note_on_c, 0, 79, 0
1, 275518, Note_on_c, 1, 61, 0
1, 275520, Note_on_c, 0, 77, 68
1, 275520, Note_on_c, 1, 55, 33
1, 275520, Note_on_c, 1, 62, 53
1, 275998, Note_on_c, 0, 77, 0
1, 275998, Note_on_c, 1, 55, 0
1, 275998, Note_on_c, 1, 62, 0
1, 276120, Note_on_c, 0, 79, 55
1, 276238, Note_on_c, 0, 79, 0
1, 276240, Note_on_c, 0, 76, 55
1, 276240, Note_on_c, 1, 61, 45
1, 276358, Note_on_c, 0, 76, 0
1, 276360, Note_on_c, 0, 79, 51
1, 276478, Note_on_c, 0, 79, 0
1, 276478, Note_on_c, 1, 61, 0
1, 276480, Note_on_c, 0, 77, 68
1, 276480, Note_on_c, 1, 62, 28
1, 276480, Note_on_c, 1, 55, 45
1, 276598, Note_on_c, 0, 77, 0
1, 276600, Note_on_c, 0, 79, 66
1, 276718, Note_on_c, 0, 79, 0
1, 276718, Note_on_c, 1, 62, 0
1, 276720, Note_on_c, 0, 76, 74
1, 276720, Note_on_c, 1, 61, 45
1, 276838, Note_on_c, 0, 76, 0
1, 276840, Note_on_c, 0, 79, 76
1, 276958, Note_on_c, 0, 79, 0
1, 276958, Note_on_c, 1, 55, 0
1, 276958, Note_on_c, 1, 61, 0
1, 276960, Note_on_c, 0, 77, 78
1, 276960, Note_on_c, 1, 62, 48
1, 276960, Note_on_c, 1, 55, 52
1, 277078, Note_on_c, 0, 77, 0
1, 277080, Note_on_c, 0, 79, 81
1, 277198, Note_on_c, 0, 79, 0
1, 277198, Note_on_c, 1, 62, 0
1, 277200, Note_on_c, 0, 76, 72
1, 277200, Note_on_c, 1, 61, 57
1, 277318, Note_on_c, 0, 76, 0
1, 277320, Note_on_c, 0, 79, 81
1, 277438, Note_on_c, 0, 79, 0
1, 277438, Note_on_c, 1, 55, 0
1, 277438, Note_on_c, 1, 61, 0
1, 277440, Note_on_c, 0, 77, 71
1, 277440, Note_on_c, 1, 62, 48
1, 277440, Note_on_c, 1, 55, 52
1, 277558, Note_on_c, 0, 77, 0
1, 277680, Note_on_c, 0, 76, 65
1, 277798, Note_on_c, 0, 76, 0
1, 277920, Note_on_c, 0, 74, 67
1, 278038, Note_on_c, 0, 74, 0
1, 278160, Note_on_c, 0, 72, 36
1, 278278, Note_on_c, 0, 72, 0
1, 278398, Note_on_c, 1, 62, 0
1, 278398, Note_on_c, 1, 55, 0
1, 278400, Note_on_c, 0, 71, 68
1, 278518, Note_on_c, 0, 71, 0
1, 278640, Note_on_c, 0, 72, 73
1, 278640, Note_on_c, 1, 57, 55
1, 278758, Note_on_c, 0, 72, 0
1, 278758, Note_on_c, 1, 57, 0
1, 278880, Note_on_c, 0, 74, 78
1, 278880, Note_on_c, 1, 59, 58
1, 278998, Note_on_c, 0, 74, 0
1, 278998, Note_on_c, 1, 59, 0
1, 279120, Note_on_c, 0, 76, 77
1, 279120, Note_on_c, 1, 60, 55
1, 279238, Note_on_c, 0, 76, 0
1, 279238, Note_on_c, 1, 60, 0
1, 279360, Note_on_c, 0, 77, 72
1, 279360, Note_on_c, 1, 62, 55
1, 279478, Note_on_c, 0, 77, 0
1, 279478, Note_on_c, 1, 62, 0
1, 279600, Note_on_c, 0, 76, 66
1, 279600, Note_on_c, 1, 60, 58
1, 279718, Note_on_c, 0, 76, 0
1, 279718, Note_on_c, 1, 60, 0
1, 279840, Note_on_c, 0, 74, 66
1, 279840, Note_on_c, 1, 59, 56
1, 279958, Note_on_c, 0, 74, 0
1, 279958, Note_on_c, 1, 59, 0
1, 280080, Note_on_c, 0, 76, 72
1, 280080, Note_on_c, 1, 60, 56
1, 280198, Note_on_c, 0, 76, 0
1, 280198, Note_on_c, 1, 60, 0
1, 280320, Note_on_c, 0, 77, 79
1, 280320, Note_on_c, 1, 62, 64
1, 280438, Note_on_c, 0, 77, 0
1, 280438, Note_on_c, 1, 62, 0
1, 280560, Note_on_c, 0, 76, 79
1, 280560, Note_on_c, 1, 61, 62
1, 280678, Note_on_c, 0, 76, 0
1, 280678, Note_on_c, 1, 61, 0
1, 280800, Note_on_c, 0, 77, 78
1, 280800, Note_on_c, 1, 62, 62
1, 280918, Note_on_c, 0, 77, 0
1, 280918, Note_on_c, 1, 62, 0
1, 281040, Note_on_c, 0, 78, 94
1, 281040, Note_on_c, 1, 63, 62
1, 281158, Note_on_c, 0, 78, 0
1, 281158, Note_on_c, 1, 63, 0
1, 281255, Note_on_c, 1, 64, 46
1, 281280, Note_on_c, 0, 79, 86
1, 281462, Note_on_c, 0, 79, 0
1, 281519, Note_on_c, 1, 60, 29
1, 281522, Note_on_c, 1, 64, 0
1, 281727, Note_on_c, 1, 60, 0
1, 281744, Note_on_c, 1, 64, 55
1, 281751, Note_on_c, 0, 79, 84
1, 281970, Note_on_c, 1, 60, 46
1, 281982, Note_on_c, 1, 64, 0
1, 282218, Note_on_c, 1, 64, 45
1, 282228, Note_on_c, 1, 60, 0
1, 282442, Note_on_c, 1, 60, 56
1, 282448, Note_on_c, 1, 64, 0
1, 282494, Note_on_c, 0, 77, 78
1, 282568, Note_on_c, 0, 79, 0
1, 282605, Note_on_c, 0, 76, 104
1, 282643, Note_on_c, 0, 77, 0
1, 282659, Note_on_c, 0, 76, 0
1, 282716, Note_on_c, 1, 60, 0
1, 282718, Note_on_c, 1, 65, 36
1, 282729, Note_on_c, 0, 76, 88
1, 282822, Note_on_c, 0, 74, 87
1, 282832, Note_on_c, 0, 76, 0
1, 282923, Note_on_c, 1, 60, 33
1, 282926, Note_on_c, 1, 65, 0
1, 282938, Note_on_c, 0, 72, 93
1, 283027, Note_on_c, 0, 74, 0
1, 283055, Note_on_c, 0, 71, 73
1, 283060, Note_on_c, 0, 72, 0
1, 283164, Note_on_c, 0, 72, 89
1, 283181, Note_on_c, 1, 64, 43
1, 283187, Note_on_c, 1, 60, 0
1, 283193, Note_on_c, 0, 71, 0
1, 283252, Note_on_c, 0, 74, 75
1, 283255, Note_on_c, 0, 72, 0
1, 283333, Note_on_c, 0, 72, 84
1, 283356, Note_on_c, 0, 74, 0
1, 283402, Note_on_c, 1, 60, 43
1, 283404, Note_on_c, 1, 64, 0
1, 283435, Note_on_c, 0, 74, 63
1, 283452, Note_on_c, 0, 72, 0
1, 283518, Note_on_c, 0, 72, 88
1, 283565, Note_on_c, 0, 74, 0
1, 283590, Note_on_c, 0, 74, 62
1, 283615, Note_on_c, 0, 72, 0
1, 283640, Note_on_c, 1, 64, 46
1, 283648, Note_on_c, 1, 60, 0
1, 283673, Note_on_c, 0, 72, 82
1, 283750, Note_on_c, 0, 71, 78
1, 283755, Note_on_c, 0, 74, 0
1, 283759, Note_on_c, 0, 72, 0
1, 283820, Note_on_c, 0, 72, 84
1, 283861, Note_on_c, 1, 64, 0
1, 283862, Note_on_c, 1, 60, 50
1, 283903, Note_on_c, 0, 71, 0
1, 283907, Note_on_c, 0, 74, 75
1, 283993, Note_on_c, 0, 72, 0
1, 284011, Note_on_c, 0, 76, 86
1, 284093, Note_on_c, 1, 64, 42
1, 284097, Note_on_c, 1, 60, 0
1, 284108, Note_on_c, 0, 74, 0
1, 284121, Note_on_c, 0, 76, 0
1, 284126, Note_on_c, 0, 67, 88
1, 284342, Note_on_c, 1, 64, 0
1, 284353, Note_on_c, 1, 60, 21
1, 284609, Note_on_c, 1, 60, 0
1, 284611, Note_on_c, 1, 64, 32
1, 284715, Note_on_c, 0, 67, 0
1, 284855, Note_on_c, 1, 60, 48
1, 284861, Note_on_c, 1, 64, 0
1, 285109, Note_on_c, 1, 64, 42
1, 285111, Note_on_c, 0, 79, 73
1, 285119, Note_on_c, 1, 60, 0
1, 285156, Note_on_c, 0, 79, 0
1, 285350, Note_on_c, 0, 79, 76
1, 285358, Note_on_c, 1, 64, 0
1, 285373, Note_on_c, 1, 60, 45
1, 285398, Note_on_c, 0, 79, 0
1, 285438, Note_on_c, 1, 60, 0
1, 285598, Note_on_c, 0, 79, 99
1, 285598, Note_on_c, 1, 64, 46
1, 285842, Note_on_c, 1, 64, 0
1, 285853, Note_on_c, 1, 60, 31
1, 286064, Note_on_c, 1, 60, 0
1, 286091, Note_on_c, 1, 64, 40
1, 286314, Note_on_c, 1, 60, 42
1, 286330, Note_on_c, 0, 77, 68
1, 286332, Note_on_c, 1, 64, 0
1, 286414, Note_on_c, 0, 79, 0
1, 286440, Note_on_c, 0, 76, 82
1, 286485, Note_on_c, 0, 77, 0
1, 286492, Note_on_c, 0, 76, 0
1, 286552, Note_on_c, 1, 60, 0
1, 286568, Note_on_c, 0, 76, 82
1, 286581, Note_on_c, 1, 65, 41
1, 286674, Note_on_c, 0, 74, 76
1, 286691, Note_on_c, 0, 76, 0
1, 286774, Note_on_c, 1, 65, 0
1, 286784, Note_on_c, 1, 60, 45
1, 286786, Note_on_c, 0, 72, 88
1, 286865, Note_on_c, 0, 74, 0
1, 286890, Note_on_c, 0, 71, 77
1, 286900, Note_on_c, 0, 72, 0
1, 286933, Note_on_c, 1, 60, 0
1, 286995, Note_on_c, 0, 72, 82
1, 287032, Note_on_c, 0, 71, 0
1, 287038, Note_on_c, 1, 64, 48
1, 287086, Note_on_c, 0, 74, 66
1, 287090, Note_on_c, 0, 72, 0
1, 287168, Note_on_c, 0, 72, 72
1, 287200, Note_on_c, 0, 74, 0
1, 287252, Note_on_c, 1, 60, 38
1, 287258, Note_on_c, 1, 64, 0
1, 287270, Note_on_c, 0, 74, 71
1, 287302, Note_on_c, 0, 72, 0
1, 287360, Note_on_c, 0, 72, 84
1, 287380, Note_on_c, 0, 74, 0
1, 287438, Note_on_c, 0, 74, 70
1, 287444, Note_on_c, 0, 72, 0
1, 287493, Note_on_c, 1, 60, 0
1, 287502, Note_on_c, 1, 64, 36
1, 287517, Note_on_c, 0, 72, 84
1, 287567, Note_on_c, 0, 71, 72
1, 287578, Note_on_c, 0, 74, 0
1, 287580, Note_on_c, 0, 72, 0
1, 287643, Note_on_c, 0, 72, 82
1, 287699, Note_on_c, 0, 71, 0
1, 287728, Note_on_c, 0, 74, 81
1, 287736, Note_on_c, 1, 60, 48
1, 287739, Note_on_c, 1, 64, 0
1, 287791, Note_on_c, 0, 72, 0
1, 287840, Note_on_c, 0, 76, 82
1, 287894, Note_on_c, 0, 74, 0
1, 287963, Note_on_c, 0, 76, 0
1, 287965, Note_on_c, 1, 60, 0
1, 287968, Note_on_c, 1, 64, 35
1, 287983, Note_on_c, 0, 67, 84
1, 288228, Note_on_c, 1, 60, 43
1, 288230, Note_on_c, 1, 64, 0
1, 288461, Note_on_c, 1, 60, 0
1, 288470, Note_on_c, 1, 64, 46
1, 288540, Note_on_c, 0, 67, 0
1, 288701, Note_on_c, 1, 64, 0
1, 288709, Note_on_c, 1, 60, 55
1, 288935, Note_on_c, 0, 69, 86
1, 288938, Note_on_c, 1, 60, 0
1, 288950, Note_on_c, 1, 65, 48
1, 288992, Note_on_c, 0, 69, 0
1, 289155, Note_on_c, 1, 65, 0
1, 289170, Note_on_c, 0, 72, 81
1, 289180, Note_on_c, 1, 60, 27
1, 289237, Note_on_c, 0, 72, 0
1, 289293, Note_on_c, 1, 60, 0
1, 289406, Note_on_c, 0, 77, 78
1, 289410, Note_on_c, 1, 65, 48
1, 289446, Note_on_c, 0, 77, 0
1, 289503, Note_on_c, 1, 65, 0
1, 289646, Note_on_c, 1, 60, 30
1, 289661, Note_on_c, 0, 81, 81
1, 289697, Note_on_c, 0, 81, 0
1, 289768, Note_on_c, 1, 60, 0
1, 289888, Note_on_c, 1, 65, 52
1, 289920, Note_on_c, 0, 84, 74
1, 290038, Note_on_c, 0, 84, 0
1, 290122, Note_on_c, 1, 65, 0
1, 290131, Note_on_c, 1, 60, 46
1, 290160, Note_on_c, 0, 89, 63
1, 290213, Note_on_c, 1, 60, 0
1, 290278, Note_on_c, 0, 89, 0
1, 290373, Note_on_c, 1, 65, 43
1, 290608, Note_on_c, 1, 60, 45
1, 290615, Note_on_c, 1, 65, 0
1, 290676, Note_on_c, 1, 60, 0
1, 290858, Note_on_c, 1, 64, 47
1, 290890, Note_on_c, 0, 67, 76
1, 290935, Note_on_c, 0, 67, 0
1, 291032, Note_on_c, 1, 64, 0
1, 291107, Note_on_c, 1, 60, 51
1, 291122, Note_on_c, 0, 72, 77
1, 291178, Note_on_c, 0, 72, 0
1, 291230, Note_on_c, 1, 60, 0
1, 291356, Note_on_c, 1, 64, 57
1, 291372, Note_on_c, 0, 76, 76
1, 291399, Note_on_c, 0, 76, 0
1, 291434, Note_on_c, 1, 64, 0
1, 291584, Note_on_c, 1, 60, 47
1, 291589, Note_on_c, 0, 79, 78
1, 291644, Note_on_c, 0, 79, 0
1, 291662, Note_on_c, 1, 60, 0
1, 291814, Note_on_c, 1, 64, 58
1, 291840, Note_on_c, 0, 84, 65
1, 291958, Note_on_c, 0, 84, 0
1, 292061, Note_on_c, 1, 64, 0
1, 292064, Note_on_c, 1, 60, 41
1, 292080, Note_on_c, 0, 88, 78
1, 292133, Note_on_c, 1, 60, 0
1, 292198, Note_on_c, 0, 88, 0
1, 292308, Note_on_c, 1, 64, 55
1, 292515, Note_on_c, 1, 64, 0
1, 292538, Note_on_c, 1, 60, 52
1, 292628, Note_on_c, 1, 60, 0
1, 292770, Note_on_c, 0, 67, 84
1, 292783, Note_on_c, 1, 64, 67
1, 292790, Note_on_c, 1, 60, 56
1, 292833, Note_on_c, 0, 67, 0
1, 292845, Note_on_c, 0, 79, 93
1, 293035, Note_on_c, 1, 55, 43
1, 293051, Note_on_c, 1, 60, 0
1, 293058, Note_on_c, 1, 64, 0
1, 293248, Note_on_c, 1, 55, 0
1, 293284, Note_on_c, 1, 64, 56
1, 293286, Note_on_c, 1, 60, 55
1, 293518, Note_on_c, 1, 55, 42
1, 293533, Note_on_c, 1, 64, 0
1, 293545, Note_on_c, 1, 60, 0
1, 293717, Note_on_c, 1, 55, 0
1, 293763, Note_on_c, 1, 59, 50
1, 293766, Note_on_c, 1, 62, 56
1, 293993, Note_on_c, 1, 55, 48
1, 294022, Note_on_c, 1, 59, 0
1, 294023, Note_on_c, 1, 62, 0
1, 294165, Note_on_c, 0, 79, 0
1, 294227, Note_on_c, 0, 77, 70
1, 294228, Note_on_c, 1, 62, 50
1, 294231, Note_on_c, 1, 55, 0
1, 294233, Note_on_c, 1, 59, 42
1, 294281, Note_on_c, 0, 79, 81
1, 294298, Note_on_c, 0, 77, 0
1, 294362, Note_on_c, 0, 77, 80
1, 294423, Note_on_c, 0, 79, 0
1, 294425, Note_on_c, 0, 76, 81
1, 294438, Note_on_c, 0, 77, 0
1, 294447, Note_on_c, 1, 55, 48
1, 294460, Note_on_c, 1, 59, 0
1, 294474, Note_on_c, 1, 62, 0
1, 294508, Note_on_c, 0, 76, 0
1, 294549, Note_on_c, 0, 77, 75
1, 294660, Note_on_c, 1, 55, 0
1, 294697, Note_on_c, 1, 60, 61
1, 294714, Note_on_c, 0, 75, 88
1, 294746, Note_on_c, 0, 77, 0
1, 294929, Note_on_c, 1, 48, 63
1, 294945, Note_on_c, 1, 60, 0
1, 295185, Note_on_c, 1, 52, 64
1, 295212, Note_on_c, 1, 48, 0
1, 295230, Note_on_c, 0, 76, 58
1, 295247, Note_on_c, 0, 75, 0
1, 295401, Note_on_c, 1, 52, 0
1, 295425, Note_on_c, 1, 55, 42
1, 295656, Note_on_c, 1, 60, 56
1, 295679, Note_on_c, 1, 55, 0
1, 295908, Note_on_c, 1, 64, 63
1, 295914, Note_on_c, 1, 60, 0
1, 295926, Note_on_c, 0, 76, 0
1, 296139, Note_on_c, 1, 67, 52
1, 296143, Note_on_c, 1, 64, 0
1, 296390, Note_on_c, 1, 64, 22
1, 296408, Note_on_c, 1, 67, 0
1, 296548, Note_on_c, 1, 64, 0
1, 296629, Note_on_c, 1, 65, 56
1, 296631, Note_on_c, 0, 69, 80
1, 296760, Note_on_c, 0, 72, 66
1, 296805, Note_on_c, 0, 69, 0
1, 296877, Note_on_c, 1, 60, 30
1, 296878, Note_on_c, 0, 72, 0
1, 296890, Note_on_c, 0, 74, 73
1, 296902, Note_on_c, 1, 65, 0
1, 296968, Note_on_c, 1, 60, 0
1, 296999, Note_on_c, 0, 76, 82
1, 297012, Note_on_c, 0, 74, 0
1, 297073, Note_on_c, 0, 76, 0
1, 297113, Note_on_c, 0, 77, 80
1, 297132, Note_on_c, 1, 65, 50
1, 297202, Note_on_c, 0, 77, 0
1, 297222, Note_on_c, 0, 79, 84
1, 297333, Note_on_c, 0, 79, 0
1, 297348, Note_on_c, 0, 81, 78
1, 297355, Note_on_c, 1, 60, 55
1, 297393, Note_on_c, 1, 65, 0
1, 297437, Note_on_c, 1, 60, 0
1, 297440, Note_on_c, 0, 83, 77
1, 297473, Note_on_c, 0, 81, 0
1, 297548, Note_on_c, 0, 83, 0
1, 297588, Note_on_c, 0, 84, 87
1, 297588, Note_on_c, 1, 65, 56
1, 297828, Note_on_c, 1, 60, 43
1, 297869, Note_on_c, 1, 65, 0
1, 297898, Note_on_c, 1, 60, 0
1, 298063, Note_on_c, 1, 65, 52
1, 298090, Note_on_c, 0, 84, 0
1, 298319, Note_on_c, 1, 60, 38
1, 298342, Note_on_c, 1, 65, 0
1, 298378, Note_on_c, 1, 60, 0
1, 298565, Note_on_c, 1, 64, 52
1, 298568, Note_on_c, 0, 67, 75
1, 298675, Note_on_c, 0, 67, 0
1, 298680, Note_on_c, 0, 72, 67
1, 298798, Note_on_c, 0, 72, 0
1, 298804, Note_on_c, 0, 74, 73
1, 298815, Note_on_c, 1, 60, 38
1, 298847, Note_on_c, 1, 64, 0
1, 298909, Note_on_c, 0, 74, 0
1, 298910, Note_on_c, 1, 60, 0
1, 298915, Note_on_c, 0, 76, 78
1, 298990, Note_on_c, 0, 76, 0
1, 299045, Note_on_c, 1, 64, 52
1, 299047, Note_on_c, 0, 77, 78
1, 299140, Note_on_c, 0, 77, 0
1, 299162, Note_on_c, 0, 79, 84
1, 299262, Note_on_c, 1, 60, 36
1, 299275, Note_on_c, 0, 81, 86
1, 299282, Note_on_c, 0, 79, 0
1, 299290, Note_on_c, 1, 64, 0
1, 299336, Note_on_c, 1, 60, 0
1, 299390, Note_on_c, 0, 83, 78
1, 299409, Note_on_c, 0, 81, 0
1, 299470, Note_on_c, 0, 83, 0
1, 299504, Note_on_c, 1, 64, 46
1, 299520, Note_on_c, 0, 84, 104
1, 299753, Note_on_c, 1, 60, 40
1, 299782, Note_on_c, 1, 64, 0
1, 299832, Note_on_c, 1, 60, 0
1, 299999, Note_on_c, 1, 64, 48
1, 300135, Note_on_c, 0, 84, 0
1, 300237, Note_on_c, 1, 60, 55
1, 300273, Note_on_c, 1, 64, 0
1, 300319, Note_on_c, 1, 60, 0
1, 300471, Note_on_c, 0, 81, 99
1, 300473, Note_on_c, 1, 64, 63
1, 300475, Note_on_c, 1, 60, 57
1, 300713, Note_on_c, 0, 79, 82
1, 300716, Note_on_c, 1, 55, 62
1, 300719, Note_on_c, 1, 64, 0
1, 300721, Note_on_c, 1, 60, 0
1, 300733, Note_on_c, 0, 81, 0
1, 300766, Note_on_c, 0, 79, 0
1, 300782, Note_on_c, 1, 55, 0
1, 300945, Note_on_c, 1, 64, 61
1, 300949, Note_on_c, 1, 60, 56
1, 300951, Note_on_c, 0, 77, 99
1, 300985, Note_on_c, 0, 77, 0
1, 301189, Note_on_c, 0, 76, 84
1, 301191, Note_on_c, 1, 60, 0
1, 301193, Note_on_c, 1, 55, 66
1, 301200, Note_on_c, 1, 64, 0
1, 301235, Note_on_c, 0, 76, 0
1, 301257, Note_on_c, 1, 55, 0
1, 301425, Note_on_c, 1, 62, 58
1, 301428, Note_on_c, 1, 65, 67
1, 301441, Note_on_c, 0, 76, 91
1, 301656, Note_on_c, 1, 62, 0
1, 301663, Note_on_c, 1, 65, 0
1, 301675, Note_on_c, 0, 74, 84
1, 301681, Note_on_c, 1, 55, 62
1, 301696, Note_on_c, 0, 76, 0
1, 301737, Note_on_c, 0, 74, 0
1, 301783, Note_on_c, 1, 55, 0
1, 301905, Note_on_c, 1, 65, 63
1, 301908, Note_on_c, 1, 62, 57
1, 301930, Note_on_c, 0, 72, 104
1, 301980, Note_on_c, 0, 72, 0
1, 302122, Note_on_c, 1, 65, 0
1, 302124, Note_on_c, 1, 62, 0
1, 302151, Note_on_c, 1, 55, 68
1, 302177, Note_on_c, 0, 71, 81
1, 302225, Note_on_c, 1, 55, 0
1, 302232, Note_on_c, 0, 71, 0
1, 302373, Note_on_c, 1, 64, 62
1, 302378, Note_on_c, 1, 60, 63
1, 302400, Note_on_c, 0, 72, 75
1, 302508, Note_on_c, 0, 72, 0
1, 302520, Note_on_c, 0, 67, 70
1, 302640, Note_on_c, 0, 69, 87
1, 302651, Note_on_c, 0, 67, 0
1, 302760, Note_on_c, 0, 71, 84
1, 302767, Note_on_c, 0, 69, 0
1, 302839, Note_on_c, 0, 71, 0
1, 302880, Note_on_c, 0, 72, 75
1, 303000, Note_on_c, 0, 74, 107
1, 303030, Note_on_c, 0, 72, 0
1, 303120, Note_on_c, 0, 76, 91
1, 303130, Note_on_c, 0, 74, 0
1, 303204, Note_on_c, 0, 76, 0
1, 303240, Note_on_c, 0, 77, 84
1, 303242, Note_on_c, 1, 64, 0
1, 303248, Note_on_c, 1, 60, 0
1, 303360, Note_on_c, 0, 79, 104
1, 303411, Note_on_c, 0, 77, 0
1, 303480, Note_on_c, 0, 81, 86
1, 303511, Note_on_c, 0, 79, 0
1, 303600, Note_on_c, 0, 83, 89
1, 303661, Note_on_c, 0, 81, 0
1, 303691, Note_on_c, 0, 83, 0
1, 303720, Note_on_c, 0, 84, 84
1, 303797, Note_on_c, 0, 84, 0
1, 303840, Note_on_c, 0, 79, 104
1, 303894, Note_on_c, 0, 79, 0
1, 304080, Note_on_c, 0, 79, 88
1, 304118, Note_on_c, 0, 79, 0
1, 304308, Note_on_c, 1, 64, 61
1, 304321, Note_on_c, 1, 55, 56
1, 304366, Note_on_c, 1, 64, 0
1, 304380, Note_on_c, 1, 55, 0
1, 304485, Note_on_c, 0, 79, 68
1, 304595, Note_on_c, 0, 81, 46
1, 304601, Note_on_c, 0, 79, 0
1, 304718, Note_on_c, 0, 79, 53
1, 304769, Note_on_c, 0, 81, 0
1, 304780, Note_on_c, 0, 79, 0
1, 304821, Note_on_c, 1, 62, 52
1, 304833, Note_on_c, 1, 55, 55
1, 304873, Note_on_c, 1, 62, 0
1, 304882, Note_on_c, 1, 55, 0
1, 304955, Note_on_c, 0, 77, 78
1, 305078, Note_on_c, 0, 79, 72
1, 305118, Note_on_c, 0, 77, 0
1, 305188, Note_on_c, 0, 79, 0
1, 305198, Note_on_c, 0, 77, 51
1, 305247, Note_on_c, 0, 77, 0
1, 305295, Note_on_c, 1, 60, 51
1, 305304, Note_on_c, 1, 55, 57
1, 305356, Note_on_c, 1, 60, 0
1, 305358, Note_on_c, 1, 55, 0
1, 305448, Note_on_c, 0, 76, 75
1, 305565, Note_on_c, 0, 77, 62
1, 305586, Note_on_c, 0, 76, 0
1, 305695, Note_on_c, 0, 76, 62
1, 305705, Note_on_c, 0, 77, 0
1, 305753, Note_on_c, 0, 76, 0
1, 305774, Note_on_c, 1, 59, 41
1, 305780, Note_on_c, 1, 55, 34
1, 305832, Note_on_c, 1, 55, 0
1, 305834, Note_on_c, 1, 59, 0
1, 305920, Note_on_c, 0, 74, 78
1, 306037, Note_on_c, 0, 74, 0
1, 306042, Note_on_c, 0, 76, 56
1, 306123, Note_on_c, 0, 74, 75
1, 306160, Note_on_c, 0, 76, 0
1, 306165, Note_on_c, 0, 74, 0
1, 306225, Note_on_c, 1, 60, 62
1, 306257, Note_on_c, 0, 72, 73
1, 306368, Note_on_c, 0, 67, 82
1, 306405, Note_on_c, 0, 72, 0
1, 306478, Note_on_c, 0, 69, 91
1, 306520, Note_on_c, 0, 67, 0
1, 306594, Note_on_c, 0, 71, 81
1, 306625, Note_on_c, 0, 69, 0
1, 306680, Note_on_c, 0, 71, 0
1, 306712, Note_on_c, 0, 72, 72
1, 306728, Note_on_c, 1, 60, 0
1, 306835, Note_on_c, 0, 74, 93
1, 306936, Note_on_c, 0, 72, 0
1, 306945, Note_on_c, 0, 76, 78
1, 306989, Note_on_c, 0, 74, 0
1, 307032, Note_on_c, 0, 76, 0
1, 307055, Note_on_c, 0, 77, 80
1, 307179, Note_on_c, 0, 79, 104
1, 307217, Note_on_c, 0, 77, 0
1, 307287, Note_on_c, 0, 81, 88
1, 307325, Note_on_c, 0, 79, 0
1, 307415, Note_on_c, 0, 83, 93
1, 307447, Note_on_c, 0, 81, 0
1, 307505, Note_on_c, 0, 83, 0
1, 307543, Note_on_c, 0, 84, 77
1, 307619, Note_on_c, 0, 84, 0
1, 307677, Note_on_c, 0, 79, 102
1, 307725, Note_on_c, 0, 79, 0
1, 307928, Note_on_c, 0, 79, 87
1, 307965, Note_on_c, 0, 79, 0
1, 308189, Note_on_c, 1, 55, 55
1, 308192, Note_on_c, 1, 64, 62
1, 308248, Note_on_c, 1, 64, 0
1, 308251, Note_on_c, 1, 55, 0
1, 308308, Note_on_c, 0, 79, 65
1, 308435, Note_on_c, 0, 79, 0
1, 308437, Note_on_c, 0, 81, 39
1, 308542, Note_on_c, 0, 79, 66
1, 308573, Note_on_c, 0, 81, 0
1, 308587, Note_on_c, 0, 79, 0
1, 308669, Note_on_c, 1, 62, 60
1, 308675, Note_on_c, 1, 55, 61
1, 308720, Note_on_c, 1, 62, 0
1, 308723, Note_on_c, 1, 55, 0
1, 308783, Note_on_c, 0, 77, 75
1, 308897, Note_on_c, 0, 79, 61
1, 308907, Note_on_c, 0, 77, 0
1, 309016, Note_on_c, 0, 77, 58
1, 309053, Note_on_c, 0, 79, 0
1, 309082, Note_on_c, 0, 77, 0
1, 309137, Note_on_c, 1, 60, 55
1, 309140, Note_on_c, 1, 55, 56
1, 309176, Note_on_c, 1, 55, 0
1, 309187, Note_on_c, 1, 60, 0
1, 309280, Note_on_c, 0, 76, 73
1, 309388, Note_on_c, 0, 77, 62
1, 309410, Note_on_c, 0, 76, 0
1, 309522, Note_on_c, 0, 76, 68
1, 309579, Note_on_c, 0, 77, 0
1, 309595, Note_on_c, 0, 76, 0
1, 309601, Note_on_c, 1, 59, 53
1, 309605, Note_on_c, 1, 55, 53
1, 309649, Note_on_c, 1, 55, 0
1, 309652, Note_on_c, 1, 59, 0
1, 309745, Note_on_c, 0, 74, 67
1, 309855, Note_on_c, 0, 76, 68
1, 309867, Note_on_c, 0, 74, 0
1, 309955, Note_on_c, 0, 74, 82
1, 310060, Note_on_c, 0, 76, 0
1, 310073, Note_on_c, 0, 74, 0
1, 310080, Note_on_c, 0, 72, 76
1, 310093, Note_on_c, 1, 48, 69
1, 310198, Note_on_c, 0, 72, 0
1, 310320, Note_on_c, 0, 72, 68
1, 310331, Note_on_c, 1, 60, 58
1, 310353, Note_on_c, 1, 48, 0
1, 310582, Note_on_c, 1, 59, 56
1, 310644, Note_on_c, 1, 60, 0
1, 310798, Note_on_c, 0, 72, 0
1, 310800, Note_on_c, 0, 74, 93
1, 310832, Note_on_c, 1, 58, 50
1, 310845, Note_on_c, 1, 59, 0
1, 310918, Note_on_c, 0, 74, 0
1, 310920, Note_on_c, 0, 76, 94
1, 311038, Note_on_c, 0, 76, 0
1, 311045, Note_on_c, 0, 77, 100
1, 311053, Note_on_c, 1, 57, 63
1, 311067, Note_on_c, 1, 58, 0
1, 311090, Note_on_c, 0, 77, 0
1, 311107, Note_on_c, 1, 57, 0
1, 311293, Note_on_c, 1, 57, 68
1, 311301, Note_on_c, 0, 77, 116
1, 311567, Note_on_c, 1, 55, 64
1, 311647, Note_on_c, 1, 57, 0
1, 311776, Note_on_c, 0, 79, 86
1, 311782, Note_on_c, 1, 53, 68
1, 311788, Note_on_c, 1, 55, 0
1, 311822, Note_on_c, 0, 77, 0
1, 311895, Note_on_c, 0, 81, 82
1, 311908, Note_on_c, 0, 79, 0
1, 311979, Note_on_c, 1, 53, 0
1, 312010, Note_on_c, 1, 52, 67
1, 312034, Note_on_c, 0, 79, 107
1, 312062, Note_on_c, 1, 52, 0
1, 312066, Note_on_c, 0, 81, 0
1, 312265, Note_on_c, 0, 76, 83
1, 312277, Note_on_c, 0, 79, 0
1, 312473, Note_on_c, 1, 48, 73
1, 312475, Note_on_c, 0, 76, 0
1, 312493, Note_on_c, 0, 84, 60
1, 312513, Note_on_c, 0, 84, 0
1, 312527, Note_on_c, 1, 48, 0
1, 312745, Note_on_c, 0, 84, 78
1, 312788, Note_on_c, 0, 84, 0
1, 312973, Note_on_c, 0, 86, 99
1, 313103, Note_on_c, 0, 84, 91
1, 313133, Note_on_c, 0, 86, 0
1, 313225, Note_on_c, 0, 83, 102
1, 313274, Note_on_c, 0, 84, 0
1, 313345, Note_on_c, 0, 83, 0
1, 313349, Note_on_c, 0, 81, 87
1, 313402, Note_on_c, 0, 81, 0
1, 313478, Note_on_c, 0, 81, 88
1, 313485, Note_on_c, 1, 60, 63
1, 313489, Note_on_c, 1, 48, 63
1, 313590, Note_on_c, 1, 48, 0
1, 313592, Note_on_c, 0, 79, 86
1, 313606, Note_on_c, 1, 60, 0
1, 313622, Note_on_c, 0, 81, 0
1, 313711, Note_on_c, 0, 77, 102
1, 313746, Note_on_c, 0, 79, 0
1, 313817, Note_on_c, 0, 76, 80
1, 313829, Note_on_c, 0, 77, 0
1, 313920, Note_on_c, 0, 79, 84
1, 313920, Note_on_c, 1, 64, 67
1, 313920, Note_on_c, 1, 55, 58
1, 313960, Note_on_c, 0, 76, 0
1, 314614, Note_on_c, 0, 79, 0
1, 314634, Note_on_c, 1, 55, 0
1, 314640, Note_on_c, 0, 76, 77
1, 314640, Note_on_c, 1, 60, 50
1, 314800, Note_on_c, 1, 64, 0
1, 314864, Note_on_c, 0, 74, 63
1, 314877, Note_on_c, 1, 60, 0
1, 314880, Note_on_c, 0, 76, 0
1, 314885, Note_on_c, 1, 59, 58
1, 315105, Note_on_c, 1, 43, 64
1, 315108, Note_on_c, 1, 59, 0
1, 315324, Note_on_c, 0, 74, 0
1, 315350, Note_on_c, 1, 47, 63
1, 315361, Note_on_c, 1, 43, 0
1, 315595, Note_on_c, 1, 47, 0
1, 315596, Note_on_c, 1, 50, 66
1, 315775, Note_on_c, 1, 50, 0
1, 315793, Note_on_c, 0, 73, 75
1, 315841, Note_on_c, 1, 55, 67
1, 315848, Note_on_c, 0, 74, 83
1, 315882, Note_on_c, 0, 73, 0
1, 316078, Note_on_c, 1, 59, 58
1, 316116, Note_on_c, 1, 55, 0
1, 316301, Note_on_c, 1, 62, 60
1, 316323, Note_on_c, 1, 59, 0
1, 316350, Note_on_c, 0, 72, 75
1, 316418, Note_on_c, 0, 74, 0
1, 316443, Note_on_c, 0, 71, 87
1, 316462, Note_on_c, 1, 62, 0
1, 316500, Note_on_c, 0, 72, 0
1, 316546, Note_on_c, 0, 69, 86
1, 316549, Note_on_c, 0, 71, 0
1, 316656, Note_on_c, 0, 67, 91
1, 316678, Note_on_c, 0, 69, 0
1, 316720, Note_on_c, 0, 67, 0
1, 316770, Note_on_c, 1, 55, 55
1, 316795, Note_on_c, 0, 73, 99
1, 317014, Note_on_c, 0, 73, 0
1, 317021, Note_on_c, 0, 74, 87
1, 317034, Note_on_c, 1, 59, 61
1, 317056, Note_on_c, 1, 55, 0
1, 317270, Note_on_c, 1, 62, 53
1, 317278, Note_on_c, 1, 59, 0
1, 317283, Note_on_c, 0, 72, 82
1, 317316, Note_on_c, 0, 74, 0
1, 317394, Note_on_c, 0, 71, 99
1, 317413, Note_on_c, 1, 62, 0
1, 317448, Note_on_c, 0, 72, 0
1, 317503, Note_on_c, 0, 69, 76
1, 317507, Note_on_c, 0, 71, 0
1, 317618, Note_on_c, 0, 67, 96
1, 317638, Note_on_c, 0, 69, 0
1, 317664, Note_on_c, 0, 67, 0
1, 317744, Note_on_c, 1, 55, 57
1, 317760, Note_on_c, 0, 75, 104
1, 317983, Note_on_c, 1, 60, 53
1, 317995, Note_on_c, 0, 76, 80
1, 318003, Note_on_c, 0, 75, 0
1, 318018, Note_on_c, 1, 55, 0
1, 318040, Note_on_c, 0, 76, 0
1, 318237, Note_on_c, 1, 64, 33
1, 318250, Note_on_c, 0, 76, 73
1, 318260, Note_on_c, 1, 60, 0
1, 318285, Note_on_c, 0, 76, 0
1, 318482, Note_on_c, 1, 64, 0
1, 318483, Note_on_c, 1, 60, 43
1, 318495, Note_on_c, 0, 76, 81
1, 318534, Note_on_c, 0, 76, 0
1, 318573, Note_on_c, 1, 60, 0
1, 318714, Note_on_c, 1, 55, 55
1, 318745, Note_on_c, 0, 76, 80
1, 318959, Note_on_c, 1, 60, 42
1, 318998, Note_on_c, 1, 55, 0
1, 319192, Note_on_c, 1, 64, 46
1, 319215, Note_on_c, 1, 60, 0
1, 319233, Note_on_c, 0, 76, 0
1, 319314, Note_on_c, 1, 64, 0
1, 319442, Note_on_c, 1, 60, 50
1, 319550, Note_on_c, 1, 60, 0
1, 319629, Note_on_c, 0, 69, 85
1, 319673, Note_on_c, 1, 54, 52
1, 319680, Note_on_c, 0, 69, 0
1, 319702, Note_on_c, 0, 81, 100
1, 319931, Note_on_c, 1, 57, 51
1, 319958, Note_on_c, 1, 54, 0
1, 320174, Note_on_c, 1, 60, 57
1, 320220, Note_on_c, 1, 57, 0
1, 320284, Note_on_c, 1, 60, 0
1, 320438, Note_on_c, 0, 79, 94
1, 320494, Note_on_c, 0, 81, 0
1, 320502, Note_on_c, 0, 78, 79
1, 320545, Note_on_c, 0, 79, 0
1, 320560, Note_on_c, 0, 76, 88
1, 320633, Note_on_c, 0, 78, 0
1, 320638, Note_on_c, 0, 74, 105
1, 320644, Note_on_c, 0, 76, 0
1, 320669, Note_on_c, 1, 54, 56
1, 320869, Note_on_c, 0, 74, 0
1, 320894, Note_on_c, 1, 57, 58
1, 320906, Note_on_c, 0, 86, 77
1, 320926, Note_on_c, 1, 54, 0
1, 320928, Note_on_c, 0, 86, 0
1, 321131, Note_on_c, 1, 60, 56
1, 321143, Note_on_c, 1, 57, 0
1, 321145, Note_on_c, 0, 86, 95
1, 321185, Note_on_c, 0, 86, 0
1, 321208, Note_on_c, 1, 60, 0
1, 321373, Note_on_c, 0, 86, 111
1, 321414, Note_on_c, 0, 86, 0
1, 321600, Note_on_c, 0, 86, 94
1, 321600, Note_on_c, 1, 53, 55
1, 321838, Note_on_c, 1, 53, 0
1, 321840, Note_on_c, 1, 55, 53
1, 322078, Note_on_c, 1, 55, 0
1, 322080, Note_on_c, 1, 59, 57
1, 322198, Note_on_c, 0, 86, 0
1, 322200, Note_on_c, 0, 83, 72
1, 322318, Note_on_c, 0, 83, 0
1, 322318, Note_on_c, 1, 59, 0
1, 322320, Note_on_c, 0, 86, 74
1, 322320, Note_on_c, 1, 62, 69
1, 322438, Note_on_c, 0, 86, 0
1, 322440, Note_on_c, 0, 83, 65
1, 322558, Note_on_c, 0, 83, 0
1, 322558, Note_on_c, 1, 62, 0
1, 322560, Note_on_c, 0, 79, 77
1, 322560, Note_on_c, 1, 65, 64
1, 322702, Note_on_c, 0, 79, 0
1, 322800, Note_on_c, 0, 74, 78
1, 322800, Note_on_c, 0, 71, 77
1, 323038, Note_on_c, 0, 74, 0
1, 323038, Note_on_c, 0, 71, 0
1, 323038, Note_on_c, 1, 65, 0
1, 323040, Note_on_c, 0, 72, 73
1, 323040, Note_on_c, 0, 76, 78
1, 323040, Note_on_c, 1, 64, 58
1, 323278, Note_on_c, 0, 72, 0
1, 323278, Note_on_c, 0, 76, 0
1, 323278, Note_on_c, 1, 64, 0
1, 323280, Note_on_c, 0, 77, 77
1, 323280, Note_on_c, 0, 74, 77
1, 323280, Note_on_c, 1, 62, 34
1, 323518, Note_on_c, 0, 77, 0
1, 323518, Note_on_c, 0, 74, 0
1, 323518, Note_on_c, 1, 62, 0
1, 323520, Note_on_c, 0, 78, 82
1, 323520, Note_on_c, 1, 60, 37
1, 323758, Note_on_c, 0, 78, 0
1, 323758, Note_on_c, 1, 60, 0
1, 323760, Note_on_c, 0, 79, 83
1, 323760, Note_on_c, 1, 64, 55
1, 323998, Note_on_c, 0, 79, 0
1, 323998, Note_on_c, 1, 64, 0
1, 324000, Note_on_c, 0, 77, 80
1, 324000, Note_on_c, 1, 67, 61
1, 324118, Note_on_c, 0, 77, 0
1, 324120, Note_on_c, 0, 76, 78
1, 324238, Note_on_c, 0, 76, 0
1, 324238, Note_on_c, 1, 67, 0
1, 324240, Note_on_c, 0, 74, 71
1, 324358, Note_on_c, 0, 74, 0
1, 324360, Note_on_c, 0, 72, 72
1, 324478, Note_on_c, 0, 72, 0
1, 324480, Note_on_c, 0, 78, 83
1, 324480, Note_on_c, 1, 60, 55
1, 324598, Note_on_c, 0, 78, 0
1, 324600, Note_on_c, 0, 79, 88
1, 324718, Note_on_c, 0, 79, 0
1, 324718, Note_on_c, 1, 60, 0
1, 324720, Note_on_c, 0, 81, 84
1, 324720, Note_on_c, 1, 64, 52
1, 324838, Note_on_c, 0, 81, 0
1, 324840, Note_on_c, 0, 79, 84
1, 324958, Note_on_c, 0, 79, 0
1, 324958, Note_on_c, 1, 64, 0
1, 324960, Note_on_c, 0, 77, 61
1, 324960, Note_on_c, 1, 67, 43
1, 325078, Note_on_c, 0, 77, 0
1, 325080, Note_on_c, 0, 76, 55
1, 325198, Note_on_c, 0, 76, 0
1, 325198, Note_on_c, 1, 67, 0
1, 325200, Note_on_c, 0, 74, 75
1, 325318, Note_on_c, 0, 74, 0
1, 325320, Note_on_c, 0, 72, 61
1, 325438, Note_on_c, 0, 72, 0
1, 325440, Note_on_c, 0, 80, 87
1, 325440, Note_on_c, 1, 60, 58
1, 325678, Note_on_c, 0, 80, 0
1, 325678, Note_on_c, 1, 60, 0
1, 325680, Note_on_c, 0, 81, 80
1, 325680, Note_on_c, 1, 65, 56
1, 325918, Note_on_c, 0, 81, 0
1, 325918, Note_on_c, 1, 65, 0
1, 325920, Note_on_c, 0, 81, 83
1, 325920, Note_on_c, 1, 69, 53
1, 326038, Note_on_c, 0, 81, 0
1, 326158, Note_on_c, 1, 69, 0
1, 326160, Note_on_c, 0, 81, 76
1, 326160, Note_on_c, 1, 65, 45
1, 326278, Note_on_c, 0, 81, 0
1, 326398, Note_on_c, 1, 65, 0
1, 326400, Note_on_c, 0, 81, 74
1, 326400, Note_on_c, 1, 60, 51
1, 326638, Note_on_c, 0, 81, 0
1, 326638, Note_on_c, 1, 60, 0
1, 326640, Note_on_c, 1, 65, 46
1, 326878, Note_on_c, 1, 65, 0
1, 326880, Note_on_c, 1, 69, 55
1, 327118, Note_on_c, 1, 69, 0
1, 327120, Note_on_c, 1, 65, 55
1, 327358, Note_on_c, 1, 65, 0
1, 327360, Note_on_c, 0, 86, 104
1, 327360, Note_on_c, 1, 62, 68
1, 327360, Note_on_c, 1, 59, 57
1, 327360, Note_on_c, 1, 65, 70
1, 327360, Note_on_c, 1, 67, 74
1, 327478, Note_on_c, 0, 86, 0
1, 327480, Note_on_c, 0, 88, 84
1, 327598, Note_on_c, 0, 88, 0
1, 327600, Note_on_c, 0, 89, 87
1, 327718, Note_on_c, 0, 89, 0
1, 327720, Note_on_c, 0, 88, 81
1, 327838, Note_on_c, 0, 88, 0
1, 327840, Note_on_c, 0, 86, 88
1, 327958, Note_on_c, 0, 86, 0
1, 327960, Note_on_c, 0, 84, 75
1, 328078, Note_on_c, 0, 84, 0
1, 328080, Note_on_c, 0, 83, 80
1, 328198, Note_on_c, 0, 83, 0
1, 328200, Note_on_c, 0, 81, 84
1, 328318, Note_on_c, 0, 81, 0
1, 328320, Note_on_c, 0, 79, 88
1, 328438, Note_on_c, 0, 79, 0
1, 328440, Note_on_c, 0, 83, 67
1, 328558, Note_on_c, 0, 83, 0
1, 328560, Note_on_c, 0, 86, 78
1, 328678, Note_on_c, 0, 86, 0
1, 328680, Note_on_c, 0, 84, 62
1, 328798, Note_on_c, 0, 84, 0
1, 328800, Note_on_c, 0, 83, 86
1, 328918, Note_on_c, 0, 83, 0
1, 328920, Note_on_c, 0, 81, 76
1, 329038, Note_on_c, 0, 81, 0
1, 329040, Note_on_c, 0, 79, 62
1, 329158, Note_on_c, 0, 79, 0
1, 329160, Note_on_c, 0, 77, 87
1, 329278, Note_on_c, 0, 77, 0
1, 329278, Note_on_c, 1, 62, 0
1, 329278, Note_on_c, 1, 59, 0
1, 329278, Note_on_c, 1, 65, 0
1, 329278, Note_on_c, 1, 67, 0
1, 329280, Note_on_c, 0, 76, 84
1, 329280, Note_on_c, 1, 60, 42
1, 329398, Note_on_c, 0, 76, 0
1, 329438, Note_on_c, 1, 60, 0
1, 329440, Note_on_c, 1, 64, 46
1, 329598, Note_on_c, 1, 64, 0
1, 329600, Note_on_c, 1, 72, 55
1, 329758, Note_on_c, 1, 72, 0
1, 329760, Note_on_c, 0, 77, 76
1, 329760, Note_on_c, 1, 62, 68
1, 329838, Note_on_c, 0, 77, 0
1, 329840, Note_on_c, 0, 79, 76
1, 329918, Note_on_c, 0, 79, 0
1, 329918, Note_on_c, 1, 62, 0
1, 329920, Note_on_c, 1, 65, 41
1, 329940, Note_on_c, 0, 77, 75
1, 329998, Note_on_c, 0, 77, 0
1, 330000, Note_on_c, 0, 79, 75
1, 330058, Note_on_c, 0, 79, 0
1, 330060, Note_on_c, 0, 77, 70
1, 330078, Note_on_c, 1, 65, 0
1, 330080, Note_on_c, 1, 72, 38
1, 330118, Note_on_c, 0, 77, 0
1, 330120, Note_on_c, 0, 76, 75
1, 330178, Note_on_c, 0, 76, 0
1, 330180, Note_on_c, 0, 77, 75
1, 330238, Note_on_c, 0, 77, 0
1, 330238, Note_on_c, 1, 72, 0
1, 330240, Note_on_c, 0, 79, 88
1, 330240, Note_on_c, 1, 64, 63
1, 330398, Note_on_c, 1, 64, 0
1, 330400, Note_on_c, 1, 67, 34
1, 330558, Note_on_c, 1, 67, 0
1, 330560, Note_on_c, 1, 72, 52
1, 330718, Note_on_c, 0, 79, 0
1, 330718, Note_on_c, 1, 72, 0
1, 330720, Note_on_c, 1, 60, 67
1, 330878, Note_on_c, 1, 60, 0
1, 330880, Note_on_c, 1, 64, 60
1, 331038, Note_on_c, 1, 64, 0
1, 331040, Note_on_c, 1, 72, 58
1, 331080, Note_on_c, 0, 81, 81
1, 331138, Note_on_c, 0, 81, 0
1, 331140, Note_on_c, 0, 83, 77
1, 331198, Note_on_c, 0, 83, 0
1, 331198, Note_on_c, 1, 72, 0
1, 331200, Note_on_c, 0, 84, 83
1, 331200, Note_on_c, 1, 65, 65
1, 331358, Note_on_c, 1, 65, 0
1, 331360, Note_on_c, 1, 69, 46
1, 331518, Note_on_c, 1, 69, 0
1, 331520, Note_on_c, 1, 72, 43
1, 331678, Note_on_c, 0, 84, 0
1, 331678, Note_on_c, 1, 72, 0
1, 331680, Note_on_c, 0, 84, 84
1, 331680, Note_on_c, 1, 65, 55
1, 331838, Note_on_c, 1, 65, 0
1, 331840, Note_on_c, 1, 69, 36
1, 331998, Note_on_c, 1, 69, 0
1, 332000, Note_on_c, 1, 72, 57
1, 332038, Note_on_c, 0, 84, 0
1, 332040, Note_on_c, 0, 84, 82
1, 332158, Note_on_c, 0, 84, 0
1, 332158, Note_on_c, 1, 72, 0
1, 332160, Note_on_c, 0, 84, 72
1, 332160, Note_on_c, 1, 65, 43
1, 332318, Note_on_c, 1, 65, 0
1, 332320, Note_on_c, 1, 69, 25
1, 332478, Note_on_c, 1, 69, 0
1, 332480, Note_on_c, 1, 72, 35
1, 332638, Note_on_c, 0, 84, 0
1, 332638, Note_on_c, 1, 72, 0
1, 332640, Note_on_c, 0, 83, 48
1, 332640, Note_on_c, 1, 65, 51
1, 332758, Note_on_c, 0, 83, 0
1, 332760, Note_on_c, 0, 81, 56
1, 332798, Note_on_c, 1, 65, 0
1, 332800, Note_on_c, 1, 69, 46
1, 332878, Note_on_c, 0, 81, 0
1, 332880, Note_on_c, 0, 79, 50
1, 332958, Note_on_c, 1, 69, 0
1, 332960, Note_on_c, 1, 72, 43
1, 332998, Note_on_c, 0, 79, 0
1, 333000, Note_on_c, 0, 77, 44
1, 333118, Note_on_c, 0, 77, 0
1, 333118, Note_on_c, 1, 72, 0
1, 333120, Note_on_c, 0, 76, 74
1, 333120, Note_on_c, 1, 60, 67
1, 333238, Note_on_c, 0, 76, 0
1, 333278, Note_on_c, 1, 60, 0
1, 333280, Note_on_c, 1, 64, 45
1, 333438, Note_on_c, 1, 64, 0
1, 333440, Note_on_c, 1, 72, 45
1, 333598, Note_on_c, 1, 72, 0
1, 333600, Note_on_c, 0, 77, 66
1, 333600, Note_on_c, 1, 62, 66
1, 333678, Note_on_c, 0, 77, 0
1, 333680, Note_on_c, 0, 79, 66
1, 333758, Note_on_c, 0, 79, 0
1, 333758, Note_on_c, 1, 62, 0
1, 333760, Note_on_c, 1, 65, 55
1, 333780, Note_on_c, 0, 77, 65
1, 333838, Note_on_c, 0, 77, 0
1, 333840, Note_on_c, 0, 79, 65
1, 333898, Note_on_c, 0, 79, 0
1, 333900, Note_on_c, 0, 77, 60
1, 333918, Note_on_c, 1, 65, 0
1, 333920, Note_on_c, 1, 72, 33
1, 333958, Note_on_c, 0, 77, 0
1, 333960, Note_on_c, 0, 76, 65
1, 334018, Note_on_c, 0, 76, 0
1, 334020, Note_on_c, 0, 77, 65
1, 334078, Note_on_c, 0, 77, 0
1, 334078, Note_on_c, 1, 72, 0
1, 334080, Note_on_c, 0, 79, 78
1, 334080, Note_on_c, 1, 64, 55
1, 334238, Note_on_c, 1, 64, 0
1, 334240, Note_on_c, 1, 67, 26
1, 334398, Note_on_c, 1, 67, 0
1, 334400, Note_on_c, 1, 72, 36
1, 334558, Note_on_c, 0, 79, 0
1, 334558, Note_on_c, 1, 72, 0
1, 334560, Note_on_c, 1, 60, 58
1, 334718, Note_on_c, 1, 60, 0
1, 334720, Note_on_c, 1, 64, 19
1, 334878, Note_on_c, 1, 64, 0
1, 334880, Note_on_c, 1, 72, 33
1, 334920, Note_on_c, 0, 81, 71
1, 334978, Note_on_c, 0, 81, 0
1, 334980, Note_on_c, 0, 83, 67
1, 335038, Note_on_c, 0, 83, 0
1, 335038, Note_on_c, 1, 72, 0
1, 335040, Note_on_c, 0, 84, 73
1, 335040, Note_on_c, 1, 65, 45
1, 335198, Note_on_c, 1, 65, 0
1, 335200, Note_on_c, 1, 69, 27
1, 335358, Note_on_c, 1, 69, 0
1, 335360, Note_on_c, 1, 72, 33
1, 335518, Note_on_c, 0, 84, 0
1, 335518, Note_on_c, 1, 72, 0
1, 335520, Note_on_c, 0, 84, 74
1, 335520, Note_on_c, 1, 65, 35
1, 335678, Note_on_c, 1, 65, 0
1, 335680, Note_on_c, 1, 69, 18
1, 335838, Note_on_c, 1, 69, 0
1, 335840, Note_on_c, 1, 72, 42
1, 335878, Note_on_c, 0, 84, 0
1, 335880, Note_on_c, 0, 84, 72
1, 335998, Note_on_c, 0, 84, 0
1, 335998, Note_on_c, 1, 72, 0
1, 336000, Note_on_c, 0, 84, 72
1, 336000, Note_on_c, 1, 65, 48
1, 336158, Note_on_c, 1, 65, 0
1, 336160, Note_on_c, 1, 69, 36
1, 336318, Note_on_c, 1, 69, 0
1, 336320, Note_on_c, 1, 72, 48
1, 336478, Note_on_c, 0, 84, 0
1, 336478, Note_on_c, 1, 72, 0
1, 336480, Note_on_c, 0, 83, 48
1, 336480, Note_on_c, 1, 65, 45
1, 336598, Note_on_c, 0, 83, 0
1, 336600, Note_on_c, 0, 81, 56
1, 336638, Note_on_c, 1, 65, 0
1, 336640, Note_on_c, 1, 69, 38
1, 336718, Note_on_c, 0, 81, 0
1, 336720, Note_on_c, 0, 79, 50
1, 336798, Note_on_c, 1, 69, 0
1, 336800, Note_on_c, 1, 72, 35
1, 336838, Note_on_c, 0, 79, 0
1, 336840, Note_on_c, 0, 77, 44
1, 336958, Note_on_c, 0, 77, 0
1, 336958, Note_on_c, 1, 72, 0
1, 336960, Note_on_c, 0, 76, 73
1, 336960, Note_on_c, 1, 60, 58
1, 337078, Note_on_c, 0, 76, 0
1, 337118, Note_on_c, 1, 60, 0
1, 337200, Note_on_c, 0, 84, 62
1, 337318, Note_on_c, 0, 84, 0
1, 337320, Note_on_c, 0, 86, 73
1, 337438, Note_on_c, 0, 86, 0
1, 337440, Note_on_c, 0, 88, 74
1, 337558, Note_on_c, 0, 88, 0
1, 337560, Note_on_c, 0, 86, 77
1, 337678, Note_on_c, 0, 86, 0
1, 337680, Note_on_c, 0, 84, 79
1, 337798, Note_on_c, 0, 84, 0
1, 337800, Note_on_c, 0, 83, 74
1, 337918, Note_on_c, 0, 83, 0
1, 337920, Note_on_c, 0, 81, 72
1, 337920, Note_on_c, 1, 53, 52
1, 338038, Note_on_c, 0, 81, 0
1, 338040, Note_on_c, 0, 79, 65
1, 338158, Note_on_c, 0, 79, 0
1, 338160, Note_on_c, 0, 77, 61
1, 338278, Note_on_c, 0, 77, 0
1, 338280, Note_on_c, 0, 76, 68
1, 338398, Note_on_c, 0, 76, 0
1, 338398, Note_on_c, 1, 53, 0
1, 338400, Note_on_c, 0, 74, 74
1, 338518, Note_on_c, 0, 74, 0
1, 338520, Note_on_c, 0, 72, 58
1, 338638, Note_on_c, 0, 72, 0
1, 338640, Note_on_c, 0, 71, 53
1, 338758, Note_on_c, 0, 71, 0
1, 338760, Note_on_c, 0, 69, 25
1, 338878, Note_on_c, 0, 69, 0
1, 338880, Note_on_c, 0, 67, 68
1, 338880, Note_on_c, 1, 55, 55
1, 338998, Note_on_c, 0, 67, 0
1, 338998, Note_on_c, 1, 55, 0
1, 339360, Note_on_c, 0, 65, 73
1, 339360, Note_on_c, 1, 56, 63
1, 339360, Note_on_c, 1, 62, 52
1, 339360, Note_on_c, 1, 59, 52
1, 340318, Note_on_c, 0, 65, 0
1, 340318, Note_on_c, 1, 56, 0
1, 340318, Note_on_c, 1, 62, 0
1, 340318, Note_on_c, 1, 59, 0
1, 340320, Note_on_c, 0, 64, 53
1, 340320, Note_on_c, 1, 57, 33
1, 340320, Note_on_c, 1, 60, 33
1, 340798, Note_on_c, 0, 64, 0
1, 340798, Note_on_c, 1, 57, 0
1, 340798, Note_on_c, 1, 60, 0
1, 340800, Note_on_c, 1, 53, 52
1, 340800, Note_on_c, 1, 57, 36
1, 341040, Note_on_c, 0, 62, 66
1, 341182, Note_on_c, 0, 62, 0
1, 341278, Note_on_c, 1, 53, 0
1, 341278, Note_on_c, 1, 57, 0
1, 341280, Note_on_c, 0, 65, 67
1, 341422, Note_on_c, 0, 65, 0
1, 341520, Note_on_c, 0, 69, 67
1, 341662, Note_on_c, 0, 69, 0
1, 341760, Note_on_c, 0, 73, 71
1, 341938, Note_on_c, 0, 73, 0
1, 342000, Note_on_c, 0, 74, 76
1, 342178, Note_on_c, 0, 74, 0
1, 342240, Note_on_c, 0, 77, 74
1, 342418, Note_on_c, 0, 77, 0
1, 342480, Note_on_c, 0, 81, 79
1, 342658, Note_on_c, 0, 81, 0
1, 342720, Note_on_c, 0, 81, 77
1, 342958, Note_on_c, 0, 81, 0
1, 342960, Note_on_c, 0, 72, 62
1, 343198, Note_on_c, 0, 72, 0
1, 343200, Note_on_c, 0, 72, 58
1, 343200, Note_on_c, 1, 64, 46
1, 343200, Note_on_c, 1, 55, 57
1, 343678, Note_on_c, 1, 64, 0
1, 343680, Note_on_c, 1, 65, 40
1, 344158, Note_on_c, 0, 72, 0
1, 344160, Note_on_c, 0, 71, 60
1, 344160, Note_on_c, 0, 76, 67
1, 344398, Note_on_c, 0, 76, 0
1, 344400, Note_on_c, 0, 74, 66
1, 344638, Note_on_c, 0, 71, 0
1, 344638, Note_on_c, 0, 74, 0
1, 344638, Note_on_c, 1, 55, 0
1, 344640, Note_on_c, 0, 72, 65
1, 344640, Note_on_c, 1, 65, 0
1, 344640, Note_on_c, 1, 60, 46
1, 344640, Note_on_c, 1, 64, 31
1, 344878, Note_on_c, 0, 72, 0
1, 344878, Note_on_c, 1, 60, 0
1, 344878, Note_on_c, 1, 64, 0
1, 345120, Note_on_c, 1, 48, 45
1, 345358, Note_on_c, 1, 48, 0
1, 345600, Note_on_c, 0, 79, 78
1, 345838, Note_on_c, 0, 79, 0
1, 345840, Note_on_c, 0, 76, 77
1, 346078, Note_on_c, 0, 76, 0
1, 346080, Note_on_c, 0, 84, 73
1, 346198, Note_on_c, 0, 84, 0
1, 346320, Note_on_c, 0, 83, 72
1, 346438, Note_on_c, 0, 83, 0
1, 346560, Note_on_c, 0, 81, 68
1, 346678, Note_on_c, 0, 81, 0
1, 346800, Note_on_c, 0, 79, 71
1, 346918, Note_on_c, 0, 79, 0
1, 347040, Note_on_c, 0, 77, 63
1, 347158, Note_on_c, 0, 77, 0
1, 347280, Note_on_c, 0, 76, 67
1, 347398, Note_on_c, 0, 76, 0
1, 347520, Note_on_c, 0, 74, 72
1, 347758, Note_on_c, 0, 74, 0
1, 348000, Note_on_c, 0, 76, 68
1, 348238, Note_on_c, 0, 76, 0
1, 348480, Note_on_c, 0, 79, 66
1, 348718, Note_on_c, 0, 79, 0
1, 348720, Note_on_c, 0, 78, 66
1, 348958, Note_on_c, 0, 78, 0
1, 348960, Note_on_c, 0, 77, 66
1, 348960, Note_on_c, 1, 59, 29
1, 348960, Note_on_c, 1, 67, 45
1, 349438, Note_on_c, 0, 77, 0
1, 349438, Note_on_c, 1, 59, 0
1, 349440, Note_on_c, 0, 76, 74
1, 349440, Note_on_c, 1, 60, 45
1, 349678, Note_on_c, 0, 76, 0
1, 349680, Note_on_c, 0, 77, 66
1, 349918, Note_on_c, 0, 77, 0
1, 349918, Note_on_c, 1, 60, 0
1, 349918, Note_on_c, 1, 67, 0
1, 349920, Note_on_c, 0, 79, 74
1, 350158, Note_on_c, 0, 79, 0
1, 350160, Note_on_c, 0, 80, 74
1, 350398, Note_on_c, 0, 80, 0
1, 350400, Note_on_c, 0, 81, 68
1, 350400, Note_on_c, 1, 53, 33
1, 350400, Note_on_c, 1, 60, 41
1, 350494, Note_on_c, 0, 81, 0
1, 350496, Note_on_c, 0, 83, 68
1, 350590, Note_on_c, 0, 83, 0
1, 350592, Note_on_c, 0, 81, 71
1, 350686, Note_on_c, 0, 81, 0
1, 350688, Note_on_c, 0, 80, 65
1, 350782, Note_on_c, 0, 80, 0
1, 350784, Note_on_c, 0, 81, 65
1, 350878, Note_on_c, 0, 81, 0
1, 350880, Note_on_c, 0, 84, 70
1, 350998, Note_on_c, 0, 84, 0
1, 351120, Note_on_c, 0, 83, 71
1, 351238, Note_on_c, 0, 83, 0
1, 351358, Note_on_c, 1, 53, 0
1, 351358, Note_on_c, 1, 60, 0
1, 351360, Note_on_c, 0, 81, 72
1, 351478, Note_on_c, 0, 81, 0
1, 351600, Note_on_c, 0, 79, 66
1, 351718, Note_on_c, 0, 79, 0
1, 351840, Note_on_c, 0, 77, 68
1, 351840, Note_on_c, 1, 57, 32
1, 351840, Note_on_c, 1, 54, 28
1, 351958, Note_on_c, 0, 77, 0
1, 352078, Note_on_c, 1, 57, 0
1, 352078, Note_on_c, 1, 54, 0
1, 352080, Note_on_c, 0, 76, 65
1, 352198, Note_on_c, 0, 76, 0
1, 352320, Note_on_c, 0, 79, 77
1, 352320, Note_on_c, 1, 55, 28
1, 352320, Note_on_c, 1, 60, 45
1, 352678, Note_on_c, 0, 79, 0
1, 352680, Note_on_c, 0, 76, 65
1, 352798, Note_on_c, 0, 76, 0
1, 352798, Note_on_c, 1, 60, 0
1, 352800, Note_on_c, 0, 74, 67
1, 352800, Note_on_c, 1, 59, 52
1, 353276, Note_on_c, 0, 79, 111
1, 353276, Note_on_c, 1, 67, 91
1, 353278, Note_on_c, 0, 74, 0
1, 353278, Note_on_c, 1, 55, 0
1, 353278, Note_on_c, 1, 59, 0
1, 353626, Note_on_c, 0, 81, 84
1, 353626, Note_on_c, 1, 69, 64
1, 353664, Note_on_c, 0, 79, 0
1, 353664, Note_on_c, 1, 67, 0
1, 353700, Note_on_c, 0, 83, 87
1, 353700, Note_on_c, 1, 71, 67
1, 353726, Note_on_c, 0, 81, 0
1, 353726, Note_on_c, 1, 69, 0
1, 353745, Note_on_c, 0, 84, 78
1, 353745, Note_on_c, 1, 72, 58
1, 353797, Note_on_c, 0, 83, 0
1, 353797, Note_on_c, 1, 71, 0
1, 353829, Note_on_c, 0, 84, 0
1, 353829, Note_on_c, 1, 72, 0
1, 353991, Note_on_c, 0, 83, 104
1, 353991, Note_on_c, 1, 71, 84
1, 354051, Note_on_c, 0, 83, 0
1, 354051, Note_on_c, 1, 71, 0
1, 354226, Note_on_c, 0, 81, 102
1, 354226, Note_on_c, 1, 69, 82
1, 354284, Note_on_c, 0, 81, 0
1, 354284, Note_on_c, 1, 69, 0
1, 354475, Note_on_c, 0, 79, 75
1, 354475, Note_on_c, 1, 67, 55
1, 354549, Note_on_c, 0, 79, 0
1, 354549, Note_on_c, 1, 67, 0
1, 354710, Note_on_c, 0, 77, 71
1, 354710, Note_on_c, 1, 65, 51
1, 354782, Note_on_c, 0, 77, 0
1, 354782, Note_on_c, 1, 65, 0
1, 354962, Note_on_c, 0, 76, 54
1, 354962, Note_on_c, 1, 64, 34
1, 355023, Note_on_c, 0, 76, 0
1, 355023, Note_on_c, 1, 64, 0
1, 355203, Note_on_c, 0, 74, 72
1, 355203, Note_on_c, 1, 62, 52
1, 355253, Note_on_c, 0, 74, 0
1, 355253, Note_on_c, 1, 62, 0
1, 355691, Note_on_c, 0, 76, 75
1, 355691, Note_on_c, 1, 64, 55
1, 355736, Note_on_c, 0, 76, 0
1, 355736, Note_on_c, 1, 64, 0
1, 356176, Note_on_c, 0, 77, 88
1, 356176, Note_on_c, 1, 65, 68
1, 356230, Note_on_c, 0, 77, 0
1, 356230, Note_on_c, 1, 65, 0
1, 356656, Note_on_c, 0, 78, 104
1, 356656, Note_on_c, 1, 66, 84
1, 356731, Note_on_c, 0, 78, 0
1, 356731, Note_on_c, 1, 66, 0
1, 357115, Note_on_c, 0, 79, 99
1, 357115, Note_on_c, 1, 67, 79
1, 357244, Note_on_c, 0, 79, 0
1, 357244, Note_on_c, 1, 67, 0
1, 357591, Note_on_c, 0, 80, 86
1, 357591, Note_on_c, 1, 68, 66
1, 357654, Note_on_c, 0, 80, 0
1, 357654, Note_on_c, 1, 68, 0
1, 358074, Note_on_c, 0, 81, 88
1, 358074, Note_on_c, 1, 69, 68
1, 358306, Note_on_c, 0, 81, 0
1, 358306, Note_on_c, 1, 69, 0
1, 358456, Note_on_c, 0, 69, 84
1, 358542, Note_on_c, 0, 77, 99
1, 358549, Note_on_c, 0, 69, 0
1, 358578, Note_on_c, 1, 62, 42
1, 358580, Note_on_c, 1, 53, 57
1, 358784, Note_on_c, 1, 53, 0
1, 358847, Note_on_c, 1, 62, 0
1, 358897, Note_on_c, 0, 77, 0
1, 358898, Note_on_c, 0, 74, 86
1, 359002, Note_on_c, 0, 74, 0
1, 359007, Note_on_c, 0, 72, 77
1, 359018, Note_on_c, 1, 64, 58
1, 359021, Note_on_c, 1, 55, 62
1, 359316, Note_on_c, 1, 64, 0
1, 359483, Note_on_c, 1, 65, 47
1, 359499, Note_on_c, 0, 76, 87
1, 359510, Note_on_c, 0, 71, 68
1, 359526, Note_on_c, 0, 72, 0
1, 359636, Note_on_c, 0, 74, 73
1, 359649, Note_on_c, 1, 55, 0
1, 359651, Note_on_c, 0, 76, 0
1, 359774, Note_on_c, 1, 65, 0
1, 359976, Note_on_c, 0, 74, 0
1, 359991, Note_on_c, 0, 72, 72
1, 360000, Note_on_c, 1, 60, 45
1, 360006, Note_on_c, 0, 71, 0
1, 360238, Note_on_c, 1, 60, 0
1, 360240, Note_on_c, 1, 64, 48
1, 360478, Note_on_c, 1, 64, 0
1, 360480, Note_on_c, 1, 67, 45
1, 360526, Note_on_c, 0, 72, 0
1, 360600, Note_on_c, 0, 72, 74
1, 360718, Note_on_c, 0, 72, 0
1, 360718, Note_on_c, 1, 67, 0
1, 360720, Note_on_c, 0, 74, 74
1, 360720, Note_on_c, 1, 64, 26
1, 360838, Note_on_c, 0, 74, 0
1, 360840, Note_on_c, 0, 76, 76
1, 360958, Note_on_c, 0, 76, 0
1, 360958, Note_on_c, 1, 64, 0
1, 360960, Note_on_c, 0, 77, 78
1, 360960, Note_on_c, 1, 60, 56
1, 361018, Note_on_c, 0, 77, 0
1, 361020, Note_on_c, 0, 79, 74
1, 361078, Note_on_c, 0, 79, 0
1, 361080, Note_on_c, 0, 77, 74
1, 361138, Note_on_c, 0, 77, 0
1, 361140, Note_on_c, 0, 76, 68
1, 361198, Note_on_c, 0, 76, 0
1, 361198, Note_on_c, 1, 60, 0
1, 361200, Note_on_c, 0, 77, 68
1, 361200, Note_on_c, 1, 65, 63
1, 361318, Note_on_c, 0, 77, 0
1, 361320, Note_on_c, 0, 79, 65
1, 361438, Note_on_c, 0, 79, 0
1, 361438, Note_on_c, 1, 65, 0
1, 361440, Note_on_c, 0, 81, 73
1, 361440, Note_on_c, 1, 69, 60
1, 361498, Note_on_c, 0, 81, 0
1, 361500, Note_on_c, 0, 83, 76
1, 361558, Note_on_c, 0, 83, 0
1, 361560, Note_on_c, 0, 81, 74
1, 361618, Note_on_c, 0, 81, 0
1, 361620, Note_on_c, 0, 79, 62
1, 361678, Note_on_c, 0, 79, 0
1, 361678, Note_on_c, 1, 69, 0
1, 361680, Note_on_c, 0, 81, 74
1, 361680, Note_on_c, 1, 65, 47
1, 361798, Note_on_c, 0, 81, 0
1, 361800, Note_on_c, 0, 83, 68
1, 361918, Note_on_c, 0, 83, 0
1, 361918, Note_on_c, 1, 65, 0
1, 361920, Note_on_c, 0, 84, 68
1, 361920, Note_on_c, 1, 60, 40
1, 362038, Note_on_c, 0, 84, 0
1, 362158, Note_on_c, 1, 60, 0
1, 362160, Note_on_c, 0, 84, 72
1, 362160, Note_on_c, 1, 64, 41
1, 362218, Note_on_c, 0, 84, 0
1, 362398, Note_on_c, 1, 64, 0
1, 362400, Note_on_c, 1, 67, 25
1, 362520, Note_on_c, 0, 72, 74
1, 362638, Note_on_c, 0, 72, 0
1, 362638, Note_on_c, 1, 67, 0
1, 362640, Note_on_c, 0, 74, 74
1, 362640, Note_on_c, 1, 64, 50
1, 362758, Note_on_c, 0, 74, 0
1, 362760, Note_on_c, 0, 76, 76
1, 362878, Note_on_c, 0, 76, 0
1, 362878, Note_on_c, 1, 64, 0
1, 362880, Note_on_c, 0, 77, 78
1, 362880, Note_on_c, 1, 60, 35
1, 362938, Note_on_c, 0, 77, 0
1, 362940, Note_on_c, 0, 79, 74
1, 362998, Note_on_c, 0, 79, 0
1, 363000, Note_on_c, 0, 77, 74
1, 363058, Note_on_c, 0, 77, 0
1, 363060, Note_on_c, 0, 76, 68
1, 363118, Note_on_c, 0, 76, 0
1, 363118, Note_on_c, 1, 60, 0
1, 363120, Note_on_c, 0, 77, 68
1, 363120, Note_on_c, 1, 65, 43
1, 363238, Note_on_c, 0, 77, 0
1, 363240, Note_on_c, 0, 79, 65
1, 363358, Note_on_c, 0, 79, 0
1, 363358, Note_on_c, 1, 65, 0
1, 363360, Note_on_c, 0, 81, 73
1, 363360, Note_on_c, 1, 69, 58
1, 363418, Note_on_c, 0, 81, 0
1, 363420, Note_on_c, 0, 83, 76
1, 363478, Note_on_c, 0, 83, 0
1, 363480, Note_on_c, 0, 81, 74
1, 363538, Note_on_c, 0, 81, 0
1, 363540, Note_on_c, 0, 79, 62
1, 363598, Note_on_c, 0, 79, 0
1, 363598, Note_on_c, 1, 69, 0
1, 363600, Note_on_c, 0, 81, 74
1, 363600, Note_on_c, 1, 65, 48
1, 363718, Note_on_c, 0, 81, 0
1, 363720, Note_on_c, 0, 83, 68
1, 363838, Note_on_c, 0, 83, 0
1, 363838, Note_on_c, 1, 65, 0
1, 363840, Note_on_c, 0, 84, 68
1, 363840, Note_on_c, 1, 64, 30
1, 363840, Note_on_c, 1, 67, 36
1, 363840, Note_on_c, 1, 60, 7
1, 363958, Note_on_c, 0, 84, 0
1, 364078, Note_on_c, 1, 64, 0
1, 364078, Note_on_c, 1, 67, 0
1, 364078, Note_on_c, 1, 60, 0
1, 364080, Note_on_c, 0, 84, 72
1, 364138, Note_on_c, 0, 84, 0
1, 364320, Note_on_c, 1, 65, 56
1, 364320, Note_on_c, 1, 67, 34
1, 364440, Note_on_c, 0, 79, 65
1, 364558, Note_on_c, 0, 79, 0
1, 364560, Note_on_c, 0, 83, 68
1, 364678, Note_on_c, 0, 83, 0
1, 364680, Note_on_c, 0, 79, 65
1, 364798, Note_on_c, 0, 79, 0
1, 364798, Note_on_c, 1, 65, 0
1, 364800, Note_on_c, 0, 84, 68
1, 364800, Note_on_c, 1, 64, 45
1, 364918, Note_on_c, 0, 84, 0
1, 365040, Note_on_c, 0, 84, 67
1, 365158, Note_on_c, 0, 84, 0
1, 365278, Note_on_c, 1, 64, 0
1, 365278, Note_on_c, 1, 67, 0
1, 365280, Note_on_c, 1, 65, 56
1, 365280, Note_on_c, 1, 67, 42
1, 365400, Note_on_c, 0, 79, 71
1, 365518, Note_on_c, 0, 79, 0
1, 365520, Note_on_c, 0, 83, 72
1, 365638, Note_on_c, 0, 83, 0
1, 365640, Note_on_c, 0, 79, 58
1, 365758, Note_on_c, 0, 79, 0
1, 365758, Note_on_c, 1, 65, 0
1, 365760, Note_on_c, 0, 84, 68
1, 365760, Note_on_c, 1, 67, 0
1, 365760, Note_on_c, 1, 67, 34
1, 365760, Note_on_c, 1, 64, 45
1, 365878, Note_on_c, 0, 84, 0
1, 366000, Note_on_c, 0, 84, 67
1, 366118, Note_on_c, 0, 84, 0
1, 366238, Note_on_c, 1, 67, 0
1, 366238, Note_on_c, 1, 64, 0
1, 366240, Note_on_c, 1, 65, 52
1, 366240, Note_on_c, 1, 67, 45
1, 366358, Note_on_c, 1, 65, 0
1, 366358, Note_on_c, 1, 67, 0
1, 366360, Note_on_c, 0, 79, 71
1, 366478, Note_on_c, 0, 79, 0
1, 366480, Note_on_c, 0, 83, 72
1, 366480, Note_on_c, 1, 65, 48
1, 366480, Note_on_c, 1, 67, 51
1, 366598, Note_on_c, 0, 83, 0
1, 366598, Note_on_c, 1, 65, 0
1, 366598, Note_on_c, 1, 67, 0
1, 366600, Note_on_c, 0, 79, 58
1, 366718, Note_on_c, 0, 79, 0
1, 366720, Note_on_c, 0, 84, 68
1, 366720, Note_on_c, 1, 67, 51
1, 366720, Note_on_c, 1, 64, 53
1, 366838, Note_on_c, 0, 84, 0
1, 366838, Note_on_c, 1, 67, 0
1, 366838, Note_on_c, 1, 64, 0
1, 366840, Note_on_c, 0, 79, 63
1, 366958, Note_on_c, 0, 79, 0
1, 366960, Note_on_c, 0, 84, 76
1, 366960, Note_on_c, 1, 64, 51
1, 366960, Note_on_c, 1, 67, 48
1, 367078, Note_on_c, 0, 84, 0
1, 367078, Note_on_c, 1, 64, 0
1, 367078, Note_on_c, 1, 67, 0
1, 367080, Note_on_c, 0, 79, 74
1, 367198, Note_on_c, 0, 79, 0
1, 367200, Note_on_c, 0, 86, 83
1, 367200, Note_on_c, 1, 67, 36
1, 367200, Note_on_c, 1, 59, 60
1, 367318, Note_on_c, 0, 86, 0
1, 367318, Note_on_c, 1, 67, 0
1, 367318, Note_on_c, 1, 59, 0
1, 367320, Note_on_c, 0, 79, 74
1, 367438, Note_on_c, 0, 79, 0
1, 367440, Note_on_c, 0, 86, 89
1, 367440, Note_on_c, 1, 59, 60
1, 367440, Note_on_c, 1, 67, 36
1, 367558, Note_on_c, 0, 86, 0
1, 367558, Note_on_c, 1, 59, 0
1, 367558, Note_on_c, 1, 67, 0
1, 367560, Note_on_c, 0, 79, 77
1, 367678, Note_on_c, 0, 79, 0
1, 367680, Note_on_c, 0, 88, 78
1, 367680, Note_on_c, 1, 67, 63
1, 367680, Note_on_c, 1, 60, 57
1, 367918, Note_on_c, 0, 88, 0
1, 367920, Note_on_c, 0, 84, 62
1, 368038, Note_on_c, 0, 84, 0
1, 368158, Note_on_c, 1, 67, 0
1, 368158, Note_on_c, 1, 60, 0
1, 368160, Note_on_c, 0, 79, 74
1, 368398, Note_on_c, 0, 79, 0
1, 368400, Note_on_c, 0, 84, 61
1, 368518, Note_on_c, 0, 84, 0
1, 368640, Note_on_c, 0, 76, 65
1, 368878, Note_on_c, 0, 76, 0
1, 368880, Note_on_c, 0, 79, 52
1, 368998, Note_on_c, 0, 79, 0
1, 369120, Note_on_c, 0, 72, 65
1, 369358, Note_on_c, 0, 72, 0
1, 369360, Note_on_c, 0, 76, 62
1, 369478, Note_on_c, 0, 76, 0
1, 369600, Note_on_c, 0, 69, 66
1, 369838, Note_on_c, 0, 69, 0
1, 369840, Note_on_c, 0, 81, 83
1, 370078, Note_on_c, 0, 81, 0
1, 370080, Note_on_c, 0, 79, 74
1, 370080, Note_on_c, 1, 57, 55
1, 370080, Note_on_c, 1, 53, 43
1, 370080, Note_on_c, 1, 62, 52
1, 370198, Note_on_c, 0, 79, 0
1, 370200, Note_on_c, 0, 77, 71
1, 370318, Note_on_c, 0, 77, 0
1, 370320, Note_on_c, 0, 76, 50
1, 370438, Note_on_c, 0, 76, 0
1, 370440, Note_on_c, 0, 74, 71
1, 370558, Note_on_c, 0, 74, 0
1, 370558, Note_on_c, 1, 57, 0
1, 370558, Note_on_c, 1, 53, 0
1, 370558, Note_on_c, 1, 62, 0
1, 370560, Note_on_c, 0, 72, 72
1, 370560, Note_on_c, 1, 64, 53
1, 370560, Note_on_c, 1, 60, 46
1, 370560, Note_on_c, 1, 55, 42
1, 371038, Note_on_c, 0, 72, 0
1, 371038, Note_on_c, 1, 64, 0
1, 371038, Note_on_c, 1, 60, 0
1, 371040, Note_on_c, 0, 71, 61
1, 371040, Note_on_c, 1, 62, 53
1, 371040, Note_on_c, 1, 65, 55
1, 371107, Note_on_c, 0, 71, 0
1, 371109, Note_on_c, 0, 72, 65
1, 371175, Note_on_c, 0, 72, 0
1, 371177, Note_on_c, 0, 71, 55
1, 371244, Note_on_c, 0, 71, 0
1, 371246, Note_on_c, 0, 72, 60
1, 371312, Note_on_c, 0, 72, 0
1, 371314, Note_on_c, 0, 71, 55
1, 371381, Note_on_c, 0, 71, 0
1, 371383, Note_on_c, 0, 69, 55
1, 371449, Note_on_c, 0, 69, 0
1, 371451, Note_on_c, 0, 71, 65
1, 371511, Note_on_c, 0, 72, 72
1, 371518, Note_on_c, 0, 71, 0
1, 371518, Note_on_c, 1, 55, 0
1, 371518, Note_on_c, 1, 62, 0
1, 371518, Note_on_c, 1, 65, 0
1, 371520, Note_on_c, 1, 60, 45
1, 371758, Note_on_c, 1, 60, 0
1, 371760, Note_on_c, 1, 64, 48
1, 371998, Note_on_c, 1, 64, 0
1, 372000, Note_on_c, 1, 67, 45
1, 372046, Note_on_c, 0, 72, 0
1, 372120, Note_on_c, 0, 72, 74
1, 372238, Note_on_c, 0, 72, 0
1, 372238, Note_on_c, 1, 67, 0
1, 372240, Note_on_c, 0, 74, 74
1, 372240, Note_on_c, 1, 64, 26
1, 372358, Note_on_c, 0, 74, 0
1, 372360, Note_on_c, 0, 76, 76
1, 372478, Note_on_c, 0, 76, 0
1, 372478, Note_on_c, 1, 64, 0
1, 372480, Note_on_c, 0, 77, 78
1, 372480, Note_on_c, 1, 60, 56
1, 372538, Note_on_c, 0, 77, 0
1, 372540, Note_on_c, 0, 79, 74
1, 372598, Note_on_c, 0, 79, 0
1, 372600, Note_on_c, 0, 77, 74
1, 372658, Note_on_c, 0, 77, 0
1, 372660, Note_on_c, 0, 76, 68
1, 372718, Note_on_c, 0, 76, 0
1, 372718, Note_on_c, 1, 60, 0
1, 372720, Note_on_c, 0, 77, 68
1, 372720, Note_on_c, 1, 65, 63
1, 372838, Note_on_c, 0, 77, 0
1, 372840, Note_on_c, 0, 79, 65
1, 372958, Note_on_c, 0, 79, 0
1, 372958, Note_on_c, 1, 65, 0
1, 372960, Note_on_c, 0, 81, 73
1, 372960, Note_on_c, 1, 69, 60
1, 373018, Note_on_c, 0, 81, 0
1, 373020, Note_on_c, 0, 83, 76
1, 373078, Note_on_c, 0, 83, 0
1, 373080, Note_on_c, 0, 81, 74
1, 373138, Note_on_c, 0, 81, 0
1, 373140, Note_on_c, 0, 79, 62
1, 373198, Note_on_c, 0, 79, 0
1, 373198, Note_on_c, 1, 69, 0
1, 373200, Note_on_c, 0, 81, 74
1, 373200, Note_on_c, 1, 65, 47
1, 373318, Note_on_c, 0, 81, 0
1, 373320, Note_on_c, 0, 83, 68
1, 373438, Note_on_c, 0, 83, 0
1, 373438, Note_on_c, 1, 65, 0
1, 373440, Note_on_c, 0, 84, 68
1, 373440, Note_on_c, 1, 60, 40
1, 373558, Note_on_c, 0, 84, 0
1, 373678, Note_on_c, 1, 60, 0
1, 373680, Note_on_c, 0, 84, 72
1, 373680, Note_on_c, 1, 64, 41
1, 373738, Note_on_c, 0, 84, 0
1, 373918, Note_on_c, 1, 64, 0
1, 373920, Note_on_c, 1, 67, 25
1, 374040, Note_on_c, 0, 72, 74
1, 374158, Note_on_c, 0, 72, 0
1, 374158, Note_on_c, 1, 67, 0
1, 374160, Note_on_c, 0, 74, 74
1, 374160, Note_on_c, 1, 64, 50
1, 374278, Note_on_c, 0, 74, 0
1, 374280, Note_on_c, 0, 76, 76
1, 374398, Note_on_c, 0, 76, 0
1, 374398, Note_on_c, 1, 64, 0
1, 374400, Note_on_c, 0, 77, 78
1, 374400, Note_on_c, 1, 60, 35
1, 374458, Note_on_c, 0, 77, 0
1, 374460, Note_on_c, 0, 79, 74
1, 374518, Note_on_c, 0, 79, 0
1, 374520, Note_on_c, 0, 77, 74
1, 374578, Note_on_c, 0, 77, 0
1, 374580, Note_on_c, 0, 76, 68
1, 374638, Note_on_c, 0, 76, 0
1, 374638, Note_on_c, 1, 60, 0
1, 374640, Note_on_c, 0, 77, 68
1, 374640, Note_on_c, 1, 65, 43
1, 374758, Note_on_c, 0, 77, 0
1, 374760, Note_on_c, 0, 79, 65
1, 374878, Note_on_c, 0, 79, 0
1, 374878, Note_on_c, 1, 65, 0
1, 374880, Note_on_c, 0, 81, 73
1, 374880, Note_on_c, 1, 69, 58
1, 374938, Note_on_c, 0, 81, 0
1, 374940, Note_on_c, 0, 83, 76
1, 374998, Note_on_c, 0, 83, 0
1, 375000, Note_on_c, 0, 81, 74
1, 375058, Note_on_c, 0, 81, 0
1, 375060, Note_on_c, 0, 79, 62
1, 375118, Note_on_c, 0, 79, 0
1, 375118, Note_on_c, 1, 69, 0
1, 375120, Note_on_c, 0, 81, 74
1, 375120, Note_on_c, 1, 65, 48
1, 375238, Note_on_c, 0, 81, 0
1, 375240, Note_on_c, 0, 83, 68
1, 375358, Note_on_c, 0, 83, 0
1, 375358, Note_on_c, 1, 65, 0
1, 375360, Note_on_c, 0, 84, 68
1, 375360, Note_on_c, 1, 60, 7
1, 375360, Note_on_c, 1, 67, 36
1, 375360, Note_on_c, 1, 64, 30
1, 375478, Note_on_c, 0, 84, 0
1, 375598, Note_on_c, 1, 60, 0
1, 375598, Note_on_c, 1, 67, 0
1, 375598, Note_on_c, 1, 64, 0
1, 375600, Note_on_c, 0, 84, 72
1, 375658, Note_on_c, 0, 84, 0
1, 375840, Note_on_c, 1, 67, 34
1, 375840, Note_on_c, 1, 65, 56
1, 375960, Note_on_c, 0, 79, 65
1, 376078, Note_on_c, 0, 79, 0
1, 376080, Note_on_c, 0, 83, 68
1, 376198, Note_on_c, 0, 83, 0
1, 376200, Note_on_c, 0, 79, 65
1, 376318, Note_on_c, 0, 79, 0
1, 376318, Note_on_c, 1, 65, 0
1, 376320, Note_on_c, 0, 84, 68
1, 376320, Note_on_c, 1, 64, 45
1, 376438, Note_on_c, 0, 84, 0
1, 376560, Note_on_c, 0, 84, 67
1, 376678, Note_on_c, 0, 84, 0
1, 376798, Note_on_c, 1, 64, 0
1, 376798, Note_on_c, 1, 67, 0
1, 376800, Note_on_c, 1, 67, 42
1, 376800, Note_on_c, 1, 65, 56
1, 376920, Note_on_c, 0, 79, 71
1, 377038, Note_on_c, 0, 79, 0
1, 377040, Note_on_c, 0, 83, 72
1, 377158, Note_on_c, 0, 83, 0
1, 377160, Note_on_c, 0, 79, 58
1, 377278, Note_on_c, 0, 79, 0
1, 377278, Note_on_c, 1, 65, 0
1, 377280, Note_on_c, 0, 84, 68
1, 377280, Note_on_c, 1, 67, 0
1, 377280, Note_on_c, 1, 64, 45
1, 377280, Note_on_c, 1, 67, 34
1, 377398, Note_on_c, 0, 84, 0
1, 377520, Note_on_c, 0, 84, 67
1, 377638, Note_on_c, 0, 84, 0
1, 377758, Note_on_c, 1, 64, 0
1, 377758, Note_on_c, 1, 67, 0
1, 377760, Note_on_c, 1, 65, 58
1, 377760, Note_on_c, 1, 67, 51
1, 377878, Note_on_c, 1, 65, 0
1, 377878, Note_on_c, 1, 67, 0
1, 377880, Note_on_c, 0, 79, 71
1, 377998, Note_on_c, 0, 79, 0
1, 378000, Note_on_c, 0, 83, 72
1, 378000, Note_on_c, 1, 65, 43
1, 378000, Note_on_c, 1, 67, 47
1, 378118, Note_on_c, 0, 83, 0
1, 378118, Note_on_c, 1, 65, 0
1, 378118, Note_on_c, 1, 67, 0
1, 378120, Note_on_c, 0, 79, 58
1, 378238, Note_on_c, 0, 79, 0
1, 378240, Note_on_c, 0, 84, 68
1, 378240, Note_on_c, 1, 64, 57
1, 378240, Note_on_c, 1, 67, 48
1, 378358, Note_on_c, 0, 84, 0
1, 378358, Note_on_c, 1, 64, 0
1, 378358, Note_on_c, 1, 67, 0
1, 378360, Note_on_c, 0, 79, 63
1, 378478, Note_on_c, 0, 79, 0
1, 378480, Note_on_c, 0, 84, 76
1, 378480, Note_on_c, 1, 64, 57
1, 378480, Note_on_c, 1, 67, 57
1, 378598, Note_on_c, 0, 84, 0
1, 378598, Note_on_c, 1, 64, 0
1, 378598, Note_on_c, 1, 67, 0
1, 378600, Note_on_c, 0, 79, 74
1, 378718, Note_on_c, 0, 79, 0
1, 378720, Note_on_c, 0, 86, 83
1, 378720, Note_on_c, 1, 67, 25
1, 378720, Note_on_c, 1, 59, 64
1, 378838, Note_on_c, 0, 86, 0
1, 378838, Note_on_c, 1, 67, 0
1, 378838, Note_on_c, 1, 59, 0
1, 378840, Note_on_c, 0, 79, 74
1, 378958, Note_on_c, 0, 79, 0
1, 378960, Note_on_c, 0, 86, 89
1, 378960, Note_on_c, 1, 67, 48
1, 378960, Note_on_c, 1, 59, 66
1, 379078, Note_on_c, 0, 86, 0
1, 379078, Note_on_c, 1, 67, 0
1, 379078, Note_on_c, 1, 59, 0
1, 379080, Note_on_c, 0, 79, 77
1, 379198, Note_on_c, 0, 79, 0
1, 379200, Note_on_c, 0, 88, 89
1, 379200, Note_on_c, 1, 60, 58
1, 379200, Note_on_c, 1, 67, 52
1, 379318, Note_on_c, 0, 88, 0
1, 379320, Note_on_c, 0, 84, 77
1, 379438, Note_on_c, 0, 84, 0
1, 379440, Note_on_c, 0, 88, 74
1, 379558, Note_on_c, 0, 88, 0
1, 379560, Note_on_c, 0, 84, 63
1, 379678, Note_on_c, 0, 84, 0
1, 379678, Note_on_c, 1, 60, 0
1, 379678, Note_on_c, 1, 67, 0
1, 379680, Note_on_c, 0, 79, 66
1, 379798, Note_on_c, 0, 79, 0
1, 379800, Note_on_c, 0, 84, 74
1, 379918, Note_on_c, 0, 84, 0
1, 379920, Note_on_c, 0, 79, 62
1, 380038, Note_on_c, 0, 79, 0
1, 380040, Note_on_c, 0, 84, 63
1, 380158, Note_on_c, 0, 84, 0
1, 380160, Note_on_c, 0, 76, 63
1, 380278, Note_on_c, 0, 76, 0
1, 380280, Note_on_c, 0, 79, 70
1, 380398, Note_on_c, 0, 79, 0
1, 380400, Note_on_c, 0, 76, 65
1, 380518, Note_on_c, 0, 76, 0
1, 380520, Note_on_c, 0, 79, 53
1, 380638, Note_on_c, 0, 79, 0
1, 380640, Note_on_c, 0, 72, 58
1, 380758, Note_on_c, 0, 72, 0
1, 380760, Note_on_c, 0, 76, 68
1, 380878, Note_on_c, 0, 76, 0
1, 380880, Note_on_c, 0, 72, 52
1, 380998, Note_on_c, 0, 72, 0
1, 381000, Note_on_c, 0, 76, 67
1, 381118, Note_on_c, 0, 76, 0
1, 381120, Note_on_c, 0, 69, 66
1, 381358, Note_on_c, 0, 69, 0
1, 381360, Note_on_c, 0, 81, 83
1, 381598, Note_on_c, 0, 81, 0
1, 381600, Note_on_c, 0, 79, 74
1, 381600, Note_on_c, 1, 57, 45
1, 381600, Note_on_c, 1, 62, 47
1, 381600, Note_on_c, 1, 53, 57
1, 381718, Note_on_c, 0, 79, 0
1, 381720, Note_on_c, 0, 77, 71
1, 381838, Note_on_c, 0, 77, 0
1, 381840, Note_on_c, 0, 76, 50
1, 381958, Note_on_c, 0, 76, 0
1, 381960, Note_on_c, 0, 74, 71
1, 382078, Note_on_c, 0, 74, 0
1, 382078, Note_on_c, 1, 57, 0
1, 382078, Note_on_c, 1, 62, 0
1, 382078, Note_on_c, 1, 53, 0
1, 382080, Note_on_c, 0, 72, 72
1, 382080, Note_on_c, 1, 60, 53
1, 382080, Note_on_c, 1, 64, 55
1, 382080, Note_on_c, 1, 55, 55
1, 382558, Note_on_c, 0, 72, 0
1, 382558, Note_on_c, 1, 60, 0
1, 382558, Note_on_c, 1, 64, 0
1, 382560, Note_on_c, 0, 71, 61
1, 382560, Note_on_c, 1, 62, 61
1, 382560, Note_on_c, 1, 65, 55
1, 382627, Note_on_c, 0, 71, 0
1, 382629, Note_on_c, 0, 72, 65
1, 382695, Note_on_c, 0, 72, 0
1, 382697, Note_on_c, 0, 71, 55
1, 382764, Note_on_c, 0, 71, 0
1, 382766, Note_on_c, 0, 72, 60
1, 382832, Note_on_c, 0, 72, 0
1, 382834, Note_on_c, 0, 71, 55
1, 382901, Note_on_c, 0, 71, 0
1, 382903, Note_on_c, 0, 69, 55
1, 382969, Note_on_c, 0, 69, 0
1, 382971, Note_on_c, 0, 71, 65
1, 383038, Note_on_c, 0, 71, 0
1, 383038, Note_on_c, 1, 55, 0
1, 383038, Note_on_c, 1, 62, 0
1, 383038, Note_on_c, 1, 65, 0
1, 383040, Note_on_c, 0, 72, 79
1, 383040, Note_on_c, 1, 60, 66
1, 383398, Note_on_c, 0, 72, 0
1, 383398, Note_on_c, 1, 60, 0
1, 383400, Note_on_c, 0, 67, 74
1, 383400, Note_on_c, 1, 55, 55
1, 383518, Note_on_c, 0, 67, 0
1, 383518, Note_on_c, 1, 55, 0
1, 383520, Note_on_c, 0, 76, 81
1, 383520, Note_on_c, 1, 64, 60
1, 383878, Note_on_c, 0, 76, 0
1, 383878, Note_on_c, 1, 64, 0
1, 383880, Note_on_c, 0, 72, 72
1, 383880, Note_on_c, 1, 60, 64
1, 383998, Note_on_c, 0, 72, 0
1, 383998, Note_on_c, 1, 60, 0
1, 384000, Note_on_c, 0, 79, 83
1, 384000, Note_on_c, 1, 67, 64
1, 384118, Note_on_c, 0, 79, 0
1, 384118, Note_on_c, 1, 67, 0
1, 384480, Note_on_c, 0, 86, 53
1, 384598, Note_on_c, 0, 86, 0
1, 384600, Note_on_c, 0, 84, 73
1, 384718, Note_on_c, 0, 84, 0
1, 384720, Note_on_c, 0, 83, 68
1, 384838, Note_on_c, 0, 83, 0
1, 384840, Note_on_c, 0, 81, 57
1, 384958, Note_on_c, 0, 81, 0
1, 384960, Note_on_c, 0, 79, 60
1, 384960, Note_on_c, 1, 55, 53
1, 384960, Note_on_c, 1, 64, 61
1, 384960, Note_on_c, 1, 60, 43
1, 385078, Note_on_c, 0, 79, 0
1, 385078, Note_on_c, 1, 55, 0
1, 385078, Note_on_c, 1, 64, 0
1, 385078, Note_on_c, 1, 60, 0
1, 385440, Note_on_c, 0, 81, 68
1, 385558, Note_on_c, 0, 81, 0
1, 385560, Note_on_c, 0, 79, 68
1, 385678, Note_on_c, 0, 79, 0
1, 385680, Note_on_c, 0, 77, 58
1, 385798, Note_on_c, 0, 77, 0
1, 385800, Note_on_c, 0, 76, 60
1, 385918, Note_on_c, 0, 76, 0
1, 385920, Note_on_c, 0, 74, 62
1, 385920, Note_on_c, 1, 59, 43
1, 385920, Note_on_c, 1, 65, 61
1, 385920, Note_on_c, 1, 55, 53
1, 386038, Note_on_c, 0, 74, 0
1, 386038, Note_on_c, 1, 59, 0
1, 386038, Note_on_c, 1, 65, 0
1, 386038, Note_on_c, 1, 55, 0
1, 386400, Note_on_c, 0, 79, 60
1, 386518, Note_on_c, 0, 79, 0
1, 386520, Note_on_c, 0, 77, 70
1, 386638, Note_on_c, 0, 77, 0
1, 386640, Note_on_c, 0, 76, 71
1, 386758, Note_on_c, 0, 76, 0
1, 386760, Note_on_c, 0, 74, 68
1, 386878, Note_on_c, 0, 74, 0
1, 386880, Note_on_c, 0, 72, 76
1, 386880, Note_on_c, 1, 60, 66
1, 386998, Note_on_c, 0, 72, 0
1, 386998, Note_on_c, 1, 60, 0
1, 387000, Note_on_c, 0, 67, 72
1, 387000, Note_on_c, 1, 55, 62
1, 387118, Note_on_c, 0, 67, 0
1, 387118, Note_on_c, 1, 55, 0
1, 387120, Note_on_c, 0, 72, 67
1, 387120, Note_on_c, 1, 60, 57
1, 387238, Note_on_c, 0, 72, 0
1, 387238, Note_on_c, 1, 60, 0
1, 387240, Note_on_c, 0, 67, 68
1, 387240, Note_on_c, 1, 55, 58
1, 387358, Note_on_c, 0, 67, 0
1, 387358, Note_on_c, 1, 55, 0
1, 387360, Note_on_c, 0, 76, 77
1, 387360, Note_on_c, 1, 64, 67
1, 387478, Note_on_c, 0, 76, 0
1, 387478, Note_on_c, 1, 64, 0
1, 387480, Note_on_c, 0, 72, 74
1, 387480, Note_on_c, 1, 60, 64
1, 387598, Note_on_c, 0, 72, 0
1, 387598, Note_on_c, 1, 60, 0
1, 387600, Note_on_c, 0, 76, 79
1, 387600, Note_on_c, 1, 64, 69
1, 387718, Note_on_c, 0, 76, 0
1, 387718, Note_on_c, 1, 64, 0
1, 387720, Note_on_c, 0, 72, 53
1, 387720, Note_on_c, 1, 60, 43
1, 387838, Note_on_c, 0, 72, 0
1, 387838, Note_on_c, 1, 60, 0
1, 387840, Note_on_c, 0, 79, 83
1, 387840, Note_on_c, 1, 67, 73
1, 387958, Note_on_c, 0, 79, 0
1, 387958, Note_on_c, 1, 67, 0
1, 388320, Note_on_c, 0, 86, 76
1, 388438, Note_on_c, 0, 86, 0
1, 388440, Note_on_c, 0, 84, 72
1, 388558, Note_on_c, 0, 84, 0
1, 388560, Note_on_c, 0, 83, 76
1, 388678, Note_on_c, 0, 83, 0
1, 388680, Note_on_c, 0, 81, 66
1, 388798, Note_on_c, 0, 81, 0
1, 388800, Note_on_c, 0, 79, 66
1, 388800, Note_on_c, 1, 64, 53
1, 388800, Note_on_c, 1, 55, 53
1, 388800, Note_on_c, 1, 60, 48
1, 389038, Note_on_c, 0, 79, 0
1, 389038, Note_on_c, 1, 64, 0
1, 389038, Note_on_c, 1, 55, 0
1, 389038, Note_on_c, 1, 60, 0
1, 389040, Note_on_c, 0, 79, 68
1, 389278, Note_on_c, 0, 79, 0
1, 389280, Note_on_c, 0, 81, 71
1, 389398, Note_on_c, 0, 81, 0
1, 389400, Note_on_c, 0, 79, 56
1, 389518, Note_on_c, 0, 79, 0
1, 389520, Note_on_c, 0, 77, 52
1, 389638, Note_on_c, 0, 77, 0
1, 389640, Note_on_c, 0, 76, 66
1, 389758, Note_on_c, 0, 76, 0
1, 389760, Note_on_c, 0, 74, 68
1, 389760, Note_on_c, 1, 59, 48
1, 389760, Note_on_c, 1, 65, 62
1, 389760, Note_on_c, 1, 55, 32
1, 389998, Note_on_c, 0, 74, 0
1, 389998, Note_on_c, 1, 59, 0
1, 389998, Note_on_c, 1, 65, 0
1, 389998, Note_on_c, 1, 55, 0
1, 390000, Note_on_c, 0, 74, 71
1, 390238, Note_on_c, 0, 74, 0
1, 390240, Note_on_c, 0, 79, 72
1, 390358, Note_on_c, 0, 79, 0
1, 390360, Note_on_c, 0, 77, 67
1, 390478, Note_on_c, 0, 77, 0
1, 390480, Note_on_c, 0, 76, 65
1, 390598, Note_on_c, 0, 76, 0
1, 390600, Note_on_c, 0, 74, 55
1, 390718, Note_on_c, 0, 74, 0
1, 390720, Note_on_c, 0, 72, 65
1, 390720, Note_on_c, 1, 64, 41
1, 390958, Note_on_c, 1, 64, 0
1, 390960, Note_on_c, 1, 60, 27
1, 391198, Note_on_c, 1, 60, 0
1, 391200, Note_on_c, 1, 64, 46
1, 391438, Note_on_c, 0, 72, 0
1, 391438, Note_on_c, 1, 64, 0
1, 391440, Note_on_c, 0, 80, 73
1, 391440, Note_on_c, 1, 60, 30
1, 391678, Note_on_c, 0, 80, 0
1, 391678, Note_on_c, 1, 60, 0
1, 391680, Note_on_c, 0, 81, 74
1, 391680, Note_on_c, 1, 65, 50
1, 391918, Note_on_c, 0, 81, 0
1, 391918, Note_on_c, 1, 65, 0
1, 391920, Note_on_c, 0, 83, 74
1, 391920, Note_on_c, 1, 60, 19
1, 392158, Note_on_c, 0, 83, 0
1, 392158, Note_on_c, 1, 60, 0
1, 392160, Note_on_c, 0, 84, 74
1, 392160, Note_on_c, 1, 67, 50
1, 392398, Note_on_c, 0, 84, 0
1, 392398, Note_on_c, 1, 67, 0
1, 392400, Note_on_c, 0, 76, 58
1, 392400, Note_on_c, 1, 60, 14
1, 392638, Note_on_c, 0, 76, 0
1, 392638, Note_on_c, 1, 60, 0
1, 392640, Note_on_c, 0, 79, 65
1, 392640, Note_on_c, 1, 69, 50
1, 392878, Note_on_c, 0, 79, 0
1, 392878, Note_on_c, 1, 69, 0
1, 392880, Note_on_c, 0, 77, 62
1, 392880, Note_on_c, 1, 60, 26
1, 393058, Note_on_c, 0, 77, 0
1, 393118, Note_on_c, 1, 60, 0
1, 393120, Note_on_c, 1, 70, 51
1, 393358, Note_on_c, 1, 70, 0
1, 393360, Note_on_c, 0, 76, 72
1, 393360, Note_on_c, 1, 60, 21
1, 393598, Note_on_c, 0, 76, 0
1, 393598, Note_on_c, 1, 60, 0
1, 393600, Note_on_c, 0, 77, 68
1, 393600, Note_on_c, 1, 69, 40
1, 393838, Note_on_c, 0, 77, 0
1, 393838, Note_on_c, 1, 69, 0
1, 393840, Note_on_c, 0, 79, 72
1, 393840, Note_on_c, 1, 60, 17
1, 394078, Note_on_c, 0, 79, 0
1, 394078, Note_on_c, 1, 60, 0
1, 394080, Note_on_c, 0, 81, 73
1, 394080, Note_on_c, 1, 67, 41
1, 394318, Note_on_c, 0, 81, 0
1, 394318, Note_on_c, 1, 67, 0
1, 394320, Note_on_c, 0, 73, 53
1, 394320, Note_on_c, 1, 60, 17
1, 394558, Note_on_c, 0, 73, 0
1, 394558, Note_on_c, 1, 60, 0
1, 394560, Note_on_c, 0, 76, 66
1, 394560, Note_on_c, 1, 65, 35
1, 394798, Note_on_c, 0, 76, 0
1, 394798, Note_on_c, 1, 65, 0
1, 394800, Note_on_c, 0, 74, 65
1, 394800, Note_on_c, 1, 60, 14
1, 394918, Note_on_c, 0, 74, 0
1, 395038, Note_on_c, 1, 60, 0
1, 395040, Note_on_c, 1, 64, 41
1, 395278, Note_on_c, 1, 64, 0
1, 395280, Note_on_c, 0, 73, 66
1, 395280, Note_on_c, 1, 60, 26
1, 395518, Note_on_c, 0, 73, 0
1, 395518, Note_on_c, 1, 60, 0
1, 395520, Note_on_c, 0, 74, 72
1, 395520, Note_on_c, 1, 65, 46
1, 395758, Note_on_c, 0, 74, 0
1, 395758, Note_on_c, 1, 65, 0
1, 395760, Note_on_c, 0, 76, 68
1, 395760, Note_on_c, 1, 60, 38
1, 395998, Note_on_c, 0, 76, 0
1, 395998, Note_on_c, 1, 60, 0
1, 396000, Note_on_c, 0, 77, 70
1, 396000, Note_on_c, 1, 62, 28
1, 396238, Note_on_c, 0, 77, 0
1, 396238, Note_on_c, 1, 62, 0
1, 396240, Note_on_c, 0, 71, 53
1, 396240, Note_on_c, 1, 60, 36
1, 396478, Note_on_c, 0, 71, 0
1, 396478, Note_on_c, 1, 60, 0
1, 396480, Note_on_c, 0, 74, 68
1, 396480, Note_on_c, 1, 64, 47
1, 396718, Note_on_c, 0, 74, 0
1, 396718, Note_on_c, 1, 64, 0
1, 396720, Note_on_c, 0, 72, 42
1, 396720, Note_on_c, 1, 60, 24
1, 396958, Note_on_c, 0, 72, 0
1, 396958, Note_on_c, 1, 60, 0
1, 396960, Note_on_c, 0, 81, 78
1, 396960, Note_on_c, 1, 65, 50
1, 397198, Note_on_c, 0, 81, 0
1, 397198, Note_on_c, 1, 65, 0
1, 397200, Note_on_c, 0, 71, 57
1, 397200, Note_on_c, 1, 60, 27
1, 397438, Note_on_c, 0, 71, 0
1, 397438, Note_on_c, 1, 60, 0
1, 397440, Note_on_c, 0, 74, 61
1, 397440, Note_on_c, 1, 64, 46
1, 397678, Note_on_c, 0, 74, 0
1, 397678, Note_on_c, 1, 64, 0
1, 397680, Note_on_c, 0, 72, 48
1, 397680, Note_on_c, 1, 60, 24
1, 397918, Note_on_c, 0, 72, 0
1, 397918, Note_on_c, 1, 60, 0
1, 397920, Note_on_c, 0, 81, 73
1, 397920, Note_on_c, 1, 65, 43
1, 398158, Note_on_c, 0, 81, 0
1, 398158, Note_on_c, 1, 65, 0
1, 398160, Note_on_c, 0, 71, 67
1, 398160, Note_on_c, 1, 60, 18
1, 398398, Note_on_c, 0, 71, 0
1, 398398, Note_on_c, 1, 60, 0
1, 398400, Note_on_c, 1, 64, 52
1, 398449, Tempo, 495868
1, 398636, Tempo, 512821
1, 398638, Note_on_c, 1, 64, 0
1, 398640, Note_on_c, 0, 74, 67
1, 398640, Note_on_c, 1, 60, 26
1, 398758, Note_on_c, 0, 74, 0
1, 398760, Note_on_c, 0, 72, 55
1, 398818, Note_on_c, 0, 72, 0
1, 398827, Tempo, 530973
1, 398878, Note_on_c, 1, 60, 0
1, 398880, Note_on_c, 1, 65, 50
1, 399014, Tempo, 550459
1, 399118, Note_on_c, 1, 65, 0
1, 399120, Note_on_c, 0, 80, 73
1, 399120, Note_on_c, 1, 60, 26
1, 399205, Tempo, 571429
1, 399238, Note_on_c, 0, 80, 0
1, 399240, Note_on_c, 0, 71, 68
1, 399298, Note_on_c, 0, 71, 0
1, 399358, Note_on_c, 1, 60, 0
1, 399360, Note_on_c, 1, 64, 42
1, 399392, Tempo, 594059
1, 399583, Tempo, 618557
1, 399598, Note_on_c, 1, 64, 0
1, 399600, Note_on_c, 0, 74, 58
1, 399600, Note_on_c, 1, 60, 27
1, 399718, Note_on_c, 0, 74, 0
1, 399720, Note_on_c, 0, 72, 40
1, 399770, Tempo, 645161
1, 399778, Note_on_c, 0, 72, 0
1, 399838, Note_on_c, 1, 60, 0
1, 399840, Note_on_c, 1, 65, 51
1, 399961, Tempo, 674157
1, 400078, Note_on_c, 1, 65, 0
1, 400080, Note_on_c, 0, 80, 65
1, 400080, Note_on_c, 1, 60, 22
1, 400148, Tempo, 705882
1, 400198, Note_on_c, 0, 80, 0
1, 400200, Note_on_c, 0, 71, 66
1, 400258, Note_on_c, 0, 71, 0
1, 400318, Note_on_c, 1, 60, 0
1, 400320, Note_on_c, 0, 65, 34
1, 400320, Note_on_c, 0, 71, 40
1, 400320, Note_on_c, 0, 67, 34
1, 400320, Note_on_c, 0, 74, 71
1, 400320, Note_on_c, 1, 48, 50
1, 400320, Note_on_c, 1, 60, 48
1, 400335, Tempo, 740741
1, 400526, Tempo, 779221
1, 400713, Tempo, 821918
1, 400783, Tempo, 833333
1, 401278, Note_on_c, 0, 65, 0
1, 401278, Note_on_c, 0, 71, 0
1, 401278, Note_on_c, 0, 67, 0
1, 401278, Note_on_c, 0, 74, 0
1, 401280, Note_on_c, 0, 67, 32
1, 401280, Note_on_c, 0, 64, 24
1, 401280, Note_on_c, 0, 72, 40
1, 401758, Note_on_c, 0, 67, 0
1, 401758, Note_on_c, 0, 64, 0
1, 401758, Note_on_c, 0, 72, 0
1, 401758, Note_on_c, 1, 48, 0
1, 401758, Note_on_c, 1, 60, 0
1, 401768, End_track
0, 0, End_of_file