0, 0, Header, 0, 1, 480
1, 0, Start_track
1, 0, Tempo, 750000
1, 1920, Note_on_c, 0, 76, 81
1, 2160, Note_on_c, 1, 48, 60
1, 2278, Note_on_c, 0, 76, 0
1, 2280, Note_on_c, 0, 77, 74
1, 2302, Note_on_c, 1, 48, 0
1, 2338, Note_on_c, 0, 77, 0
1, 2340, Note_on_c, 0, 79, 51
1, 2398, Note_on_c, 0, 79, 0
1, 2400, Note_on_c, 0, 72, 75
1, 2400, Note_on_c, 1, 52, 61
1, 2458, Note_on_c, 0, 72, 0
1, 2542, Note_on_c, 1, 52, 0
1, 2640, Note_on_c, 0, 71, 64
1, 2640, Note_on_c, 0, 74, 73
1, 2640, Note_on_c, 1, 55, 50
1, 2698, Note_on_c, 0, 74, 0
1, 2698, Note_on_c, 0, 71, 0
1, 2782, Note_on_c, 1, 55, 0
1, 2880, Note_on_c, 0, 74, 77
1, 2880, Note_on_c, 0, 71, 64
1, 2880, Note_on_c, 1, 60, 57
1, 3022, Note_on_c, 1, 60, 0
1, 3118, Note_on_c, 0, 71, 0
1, 3118, Note_on_c, 0, 74, 0
1, 3120, Note_on_c, 0, 72, 62
1, 3120, Note_on_c, 0, 77, 44
1, 3120, Note_on_c, 1, 48, 51
1, 3238, Note_on_c, 0, 77, 0
1, 3240, Note_on_c, 0, 76, 80
1, 3262, Note_on_c, 1, 48, 0
1, 3358, Note_on_c, 0, 72, 0
1, 3358, Note_on_c, 0, 76, 0
1, 3360, Note_on_c, 0, 74, 59
1, 3360, Note_on_c, 0, 71, 58
1, 3360, Note_on_c, 1, 55, 47
1, 3502, Note_on_c, 1, 55, 0
1, 3600, Note_on_c, 1, 43, 60
1, 3742, Note_on_c, 1, 43, 0
1, 3838, Note_on_c, 0, 71, 0
1, 3838, Note_on_c, 0, 74, 0
1, 3840, Note_on_c, 0, 76, 81
1, 4080, Note_on_c, 1, 48, 57
1, 4198, Note_on_c, 0, 76, 0
1, 4200, Note_on_c, 0, 77, 74
1, 4222, Note_on_c, 1, 48, 0
1, 4258, Note_on_c, 0, 77, 0
1, 4260, Note_on_c, 0, 79, 51
1, 4318, Note_on_c, 0, 79, 0
1, 4320, Note_on_c, 0, 72, 75
1, 4320, Note_on_c, 1, 52, 63
1, 4378, Note_on_c, 0, 72, 0
1, 4462, Note_on_c, 1, 52, 0
1, 4560, Note_on_c, 0, 74, 73
1, 4560, Note_on_c, 0, 71, 64
1, 4560, Note_on_c, 1, 55, 58
1, 4618, Note_on_c, 0, 71, 0
1, 4618, Note_on_c, 0, 74, 0
1, 4702, Note_on_c, 1, 55, 0
1, 4800, Note_on_c, 0, 74, 82
1, 4800, Note_on_c, 0, 77, 86
1, 4800, Note_on_c, 1, 60, 68
1, 4942, Note_on_c, 1, 60, 0
1, 5038, Note_on_c, 0, 77, 0
1, 5038, Note_on_c, 0, 74, 0
1, 5040, Note_on_c, 0, 76, 74
1, 5040, Note_on_c, 0, 72, 58
1, 5040, Note_on_c, 1, 48, 47
1, 5086, Note_on_c, 0, 72, 0
1, 5086, Note_on_c, 0, 76, 0
1, 5088, Note_on_c, 0, 77, 70
1, 5134, Note_on_c, 0, 77, 0
1, 5136, Note_on_c, 0, 76, 68
1, 5182, Note_on_c, 0, 76, 0
1, 5182, Note_on_c, 1, 48, 0
1, 5184, Note_on_c, 0, 77, 50
1, 5230, Note_on_c, 0, 77, 0
1, 5232, Note_on_c, 0, 76, 62
1, 5278, Note_on_c, 0, 76, 0
1, 5280, Note_on_c, 0, 71, 52
1, 5280, Note_on_c, 0, 74, 66
1, 5280, Note_on_c, 1, 55, 57
1, 5422, Note_on_c, 1, 55, 0
1, 5520, Note_on_c, 1, 43, 57
1, 5662, Note_on_c, 1, 43, 0
1, 5758, Note_on_c, 0, 74, 0
1, 5758, Note_on_c, 0, 71, 0
1, 5760, Note_on_c, 0, 77, 74
1, 5760, Note_on_c, 1, 57, 51
1, 5998, Note_on_c, 1, 57, 0
1, 6000, Note_on_c, 1, 60, 49
1, 6118, Note_on_c, 0, 77, 0
1, 6120, Note_on_c, 0, 79, 62
1, 6178, Note_on_c, 0, 79, 0
1, 6180, Note_on_c, 0, 77, 70
1, 6238, Note_on_c, 0, 77, 0
1, 6238, Note_on_c, 1, 60, 0
1, 6240, Note_on_c, 0, 76, 72
1, 6240, Note_on_c, 1, 55, 56
1, 6298, Note_on_c, 0, 76, 0
1, 6478, Note_on_c, 1, 55, 0
1, 6480, Note_on_c, 0, 76, 52
1, 6480, Note_on_c, 1, 60, 36
1, 6538, Note_on_c, 0, 76, 0
1, 6718, Note_on_c, 1, 60, 0
1, 6720, Note_on_c, 0, 81, 70
1, 6720, Note_on_c, 1, 53, 63
1, 6958, Note_on_c, 1, 53, 0
1, 6960, Note_on_c, 1, 60, 34
1, 7078, Note_on_c, 0, 81, 0
1, 7080, Note_on_c, 0, 83, 69
1, 7138, Note_on_c, 0, 83, 0
1, 7140, Note_on_c, 0, 84, 55
1, 7198, Note_on_c, 0, 84, 0
1, 7198, Note_on_c, 1, 60, 0
1, 7200, Note_on_c, 0, 79, 50
1, 7200, Note_on_c, 1, 52, 61
1, 7258, Note_on_c, 0, 79, 0
1, 7438, Note_on_c, 1, 52, 0
1, 7440, Note_on_c, 0, 79, 57
1, 7440, Note_on_c, 1, 60, 51
1, 7498, Note_on_c, 0, 79, 0
1, 7678, Note_on_c, 1, 60, 0
1, 7680, Note_on_c, 0, 79, 61
1, 7798, Note_on_c, 0, 79, 0
1, 7800, Note_on_c, 0, 77, 63
1, 7858, Note_on_c, 0, 77, 0
1, 7920, Note_on_c, 0, 77, 68
1, 7920, Note_on_c, 1, 67, 60
1, 7920, Note_on_c, 1, 59, 41
1, 8038, Note_on_c, 0, 77, 0
1, 8040, Note_on_c, 0, 74, 45
1, 8098, Note_on_c, 0, 74, 0
1, 8158, Note_on_c, 1, 59, 0
1, 8158, Note_on_c, 1, 67, 0
1, 8160, Note_on_c, 0, 77, 63
1, 8278, Note_on_c, 0, 77, 0
1, 8280, Note_on_c, 0, 76, 60
1, 8338, Note_on_c, 0, 76, 0
1, 8400, Note_on_c, 0, 76, 62
1, 8400, Note_on_c, 1, 67, 63
1, 8400, Note_on_c, 1, 60, 63
1, 8518, Note_on_c, 0, 76, 0
1, 8520, Note_on_c, 0, 72, 36
1, 8578, Note_on_c, 0, 72, 0
1, 8638, Note_on_c, 1, 60, 0
1, 8638, Note_on_c, 1, 67, 0
1, 8640, Note_on_c, 0, 73, 41
1, 8640, Note_on_c, 1, 59, 57
1, 8640, Note_on_c, 1, 55, 49
1, 8758, Note_on_c, 0, 73, 0
1, 8760, Note_on_c, 0, 74, 62
1, 8878, Note_on_c, 0, 74, 0
1, 8880, Note_on_c, 0, 76, 73
1, 8998, Note_on_c, 0, 76, 0
1, 9000, Note_on_c, 0, 74, 66
1, 9118, Note_on_c, 0, 74, 0
1, 9118, Note_on_c, 1, 55, 0
1, 9118, Note_on_c, 1, 59, 0
1, 9120, Note_on_c, 0, 72, 46
1, 9238, Note_on_c, 0, 72, 0
1, 9240, Note_on_c, 0, 71, 49
1, 9358, Note_on_c, 0, 71, 0
1, 9360, Note_on_c, 0, 69, 29
1, 9478, Note_on_c, 0, 69, 0
1, 9480, Note_on_c, 0, 67, 44
1, 9598, Note_on_c, 0, 67, 0
1, 9600, Note_on_c, 0, 76, 95
1, 9600, Note_on_c, 1, 36, 66
1, 9670, Note_on_c, 1, 36, 0
1, 9720, Note_on_c, 1, 40, 73
1, 9790, Note_on_c, 1, 40, 0
1, 9840, Note_on_c, 1, 43, 70
1, 9910, Note_on_c, 1, 43, 0
1, 9958, Note_on_c, 0, 76, 0
1, 9960, Note_on_c, 0, 77, 89
1, 9960, Note_on_c, 1, 48, 66
1, 10018, Note_on_c, 0, 77, 0
1, 10020, Note_on_c, 0, 79, 66
1, 10030, Note_on_c, 1, 48, 0
1, 10078, Note_on_c, 0, 79, 0
1, 10080, Note_on_c, 0, 72, 90
1, 10080, Note_on_c, 1, 40, 73
1, 10138, Note_on_c, 0, 72, 0
1, 10150, Note_on_c, 1, 40, 0
1, 10200, Note_on_c, 1, 52, 62
1, 10270, Note_on_c, 1, 52, 0
1, 10320, Note_on_c, 0, 74, 88
1, 10320, Note_on_c, 0, 71, 79
1, 10320, Note_on_c, 1, 43, 67
1, 10378, Note_on_c, 0, 71, 0
1, 10378, Note_on_c, 0, 74, 0
1, 10390, Note_on_c, 1, 43, 0
1, 10440, Note_on_c, 1, 55, 50
1, 10510, Note_on_c, 1, 55, 0
1, 10560, Note_on_c, 0, 71, 79
1, 10560, Note_on_c, 0, 74, 91
1, 10560, Note_on_c, 1, 48, 73
1, 10678, Note_on_c, 1, 48, 0
1, 10680, Note_on_c, 1, 52, 78
1, 10798, Note_on_c, 0, 74, 0
1, 10798, Note_on_c, 0, 71, 0
1, 10798, Note_on_c, 1, 52, 0
1, 10800, Note_on_c, 0, 77, 58
1, 10800, Note_on_c, 0, 72, 77
1, 10800, Note_on_c, 1, 55, 66
1, 10918, Note_on_c, 0, 77, 0
1, 10918, Note_on_c, 1, 55, 0
1, 10920, Note_on_c, 0, 76, 94
1, 10920, Note_on_c, 1, 60, 58
1, 11038, Note_on_c, 0, 72, 0
1, 11038, Note_on_c, 0, 76, 0
1, 11038, Note_on_c, 1, 60, 0
1, 11040, Note_on_c, 0, 71, 72
1, 11040, Note_on_c, 0, 74, 73
1, 11040, Note_on_c, 1, 43, 70
1, 11158, Note_on_c, 1, 43, 0
1, 11160, Note_on_c, 1, 47, 60
1, 11278, Note_on_c, 1, 47, 0
1, 11280, Note_on_c, 1, 50, 66
1, 11398, Note_on_c, 1, 50, 0
1, 11400, Note_on_c, 1, 55, 47
1, 11518, Note_on_c, 0, 74, 0
1, 11518, Note_on_c, 0, 71, 0
1, 11518, Note_on_c, 1, 55, 0
1, 11520, Note_on_c, 0, 76, 95
1, 11520, Note_on_c, 1, 36, 70
1, 11590, Note_on_c, 1, 36, 0
1, 11640, Note_on_c, 1, 40, 74
1, 11710, Note_on_c, 1, 40, 0
1, 11760, Note_on_c, 1, 43, 60
1, 11830, Note_on_c, 1, 43, 0
1, 11878, Note_on_c, 0, 76, 0
1, 11880, Note_on_c, 0, 77, 89
1, 11880, Note_on_c, 1, 48, 57
1, 11938, Note_on_c, 0, 77, 0
1, 11940, Note_on_c, 0, 79, 66
1, 11950, Note_on_c, 1, 48, 0
1, 11998, Note_on_c, 0, 79, 0
1, 12000, Note_on_c, 0, 72, 90
1, 12000, Note_on_c, 1, 40, 74
1, 12058, Note_on_c, 0, 72, 0
1, 12070, Note_on_c, 1, 40, 0
1, 12120, Note_on_c, 1, 52, 39
1, 12190, Note_on_c, 1, 52, 0
1, 12240, Note_on_c, 0, 71, 79
1, 12240, Note_on_c, 0, 74, 88
1, 12240, Note_on_c, 1, 43, 70
1, 12298, Note_on_c, 0, 74, 0
1, 12298, Note_on_c, 0, 71, 0
1, 12310, Note_on_c, 1, 43, 0
1, 12360, Note_on_c, 1, 55, 63
1, 12430, Note_on_c, 1, 55, 0
1, 12480, Note_on_c, 0, 77, 101
1, 12480, Note_on_c, 0, 74, 96
1, 12480, Note_on_c, 1, 48, 68
1, 12598, Note_on_c, 1, 48, 0
1, 12600, Note_on_c, 1, 52, 63
1, 12718, Note_on_c, 0, 74, 0
1, 12718, Note_on_c, 0, 77, 0
1, 12718, Note_on_c, 1, 52, 0
1, 12720, Note_on_c, 0, 72, 72
1, 12720, Note_on_c, 0, 76, 89
1, 12720, Note_on_c, 1, 55, 46
1, 12766, Note_on_c, 0, 76, 0
1, 12766, Note_on_c, 0, 72, 0
1, 12768, Note_on_c, 0, 77, 84
1, 12814, Note_on_c, 0, 77, 0
1, 12816, Note_on_c, 0, 76, 82
1, 12838, Note_on_c, 1, 55, 0
1, 12840, Note_on_c, 1, 60, 46
1, 12862, Note_on_c, 0, 76, 0
1, 12864, Note_on_c, 0, 77, 64
1, 12910, Note_on_c, 0, 77, 0
1, 12912, Note_on_c, 0, 76, 77
1, 12958, Note_on_c, 0, 76, 0
1, 12958, Note_on_c, 1, 60, 0
1, 12960, Note_on_c, 0, 74, 80
1, 12960, Note_on_c, 0, 71, 67
1, 12960, Note_on_c, 1, 43, 62
1, 13078, Note_on_c, 1, 43, 0
1, 13080, Note_on_c, 1, 47, 66
1, 13198, Note_on_c, 1, 47, 0
1, 13200, Note_on_c, 1, 50, 50
1, 13318, Note_on_c, 1, 50, 0
1, 13320, Note_on_c, 1, 55, 38
1, 13438, Note_on_c, 0, 71, 0
1, 13438, Note_on_c, 0, 74, 0
1, 13438, Note_on_c, 1, 55, 0
1, 13440, Note_on_c, 0, 77, 91
1, 13440, Note_on_c, 1, 57, 56
1, 13558, Note_on_c, 1, 57, 0
1, 13560, Note_on_c, 1, 60, 36
1, 13678, Note_on_c, 1, 60, 0
1, 13680, Note_on_c, 1, 57, 66
1, 13798, Note_on_c, 0, 77, 0
1, 13798, Note_on_c, 1, 57, 0
1, 13800, Note_on_c, 0, 79, 79
1, 13800, Note_on_c, 1, 60, 34
1, 13858, Note_on_c, 0, 79, 0
1, 13860, Note_on_c, 0, 77, 86
1, 13918, Note_on_c, 0, 77, 0
1, 13918, Note_on_c, 1, 60, 0
1, 13920, Note_on_c, 0, 76, 89
1, 13920, Note_on_c, 1, 55, 66
1, 13978, Note_on_c, 0, 76, 0
1, 14038, Note_on_c, 1, 55, 0
1, 14040, Note_on_c, 1, 60, 30
1, 14158, Note_on_c, 1, 60, 0
1, 14160, Note_on_c, 0, 76, 69
1, 14160, Note_on_c, 1, 55, 57
1, 14218, Note_on_c, 0, 76, 0
1, 14278, Note_on_c, 1, 55, 0
1, 14280, Note_on_c, 1, 60, 45
1, 14398, Note_on_c, 1, 60, 0
1, 14400, Note_on_c, 0, 81, 86
1, 14400, Note_on_c, 1, 53, 73
1, 14518, Note_on_c, 1, 53, 0
1, 14520, Note_on_c, 1, 60, 41
1, 14638, Note_on_c, 1, 60, 0
1, 14640, Note_on_c, 1, 53, 63
1, 14758, Note_on_c, 0, 81, 0
1, 14758, Note_on_c, 1, 53, 0
1, 14760, Note_on_c, 0, 83, 85
1, 14760, Note_on_c, 1, 60, 34
1, 14818, Note_on_c, 0, 83, 0
1, 14820, Note_on_c, 0, 84, 71
1, 14878, Note_on_c, 0, 84, 0
1, 14878, Note_on_c, 1, 60, 0
1, 14880, Note_on_c, 0, 79, 67
1, 14880, Note_on_c, 1, 52, 61
1, 14938, Note_on_c, 0, 79, 0
1, 14998, Note_on_c, 1, 52, 0
1, 15000, Note_on_c, 1, 60, 41
1, 15118, Note_on_c, 1, 60, 0
1, 15120, Note_on_c, 0, 79, 73
1, 15120, Note_on_c, 1, 52, 70
1, 15178, Note_on_c, 0, 79, 0
1, 15238, Note_on_c, 1, 52, 0
1, 15240, Note_on_c, 1, 60, 51
1, 15358, Note_on_c, 1, 60, 0
1, 15360, Note_on_c, 0, 80, 75
1, 15478, Note_on_c, 0, 80, 0
1, 15480, Note_on_c, 0, 81, 86
1, 15598, Note_on_c, 0, 81, 0
1, 15600, Note_on_c, 0, 77, 73
1, 15600, Note_on_c, 1, 53, 62
1, 15600, Note_on_c, 1, 62, 62
1, 15718, Note_on_c, 0, 77, 0
1, 15718, Note_on_c, 1, 62, 0
1, 15718, Note_on_c, 1, 53, 0
1, 15720, Note_on_c, 0, 74, 74
1, 15838, Note_on_c, 0, 74, 0
1, 15840, Note_on_c, 0, 72, 72
1, 15840, Note_on_c, 1, 55, 45
1, 15840, Note_on_c, 1, 64, 61
1, 16078, Note_on_c, 0, 72, 0
1, 16078, Note_on_c, 1, 64, 0
1, 16080, Note_on_c, 0, 71, 60
1, 16080, Note_on_c, 1, 62, 62
1, 16318, Note_on_c, 0, 71, 0
1, 16318, Note_on_c, 1, 55, 0
1, 16318, Note_on_c, 1, 62, 0
1, 16320, Note_on_c, 0, 72, 60
1, 16320, Note_on_c, 1, 60, 73
1, 16320, Note_on_c, 1, 64, 60
1, 16398, Note_on_c, 0, 72, 0
1, 16400, Note_on_c, 0, 67, 74
1, 16478, Note_on_c, 0, 67, 0
1, 16480, Note_on_c, 0, 76, 70
1, 16558, Note_on_c, 0, 76, 0
1, 16560, Note_on_c, 0, 72, 68
1, 16638, Note_on_c, 0, 72, 0
1, 16640, Note_on_c, 0, 79, 86
1, 16718, Note_on_c, 0, 79, 0
1, 16720, Note_on_c, 0, 76, 86
1, 16798, Note_on_c, 0, 76, 0
1, 16798, Note_on_c, 1, 64, 0
1, 16798, Note_on_c, 1, 60, 0
1, 16800, Note_on_c, 0, 84, 95
1, 16878, Note_on_c, 0, 84, 0
1, 16880, Note_on_c, 0, 83, 74
1, 16958, Note_on_c, 0, 83, 0
1, 16960, Note_on_c, 0, 81, 57
1, 17038, Note_on_c, 0, 81, 0
1, 17040, Note_on_c, 0, 79, 56
1, 17118, Note_on_c, 0, 79, 0
1, 17120, Note_on_c, 0, 77, 41
1, 17198, Note_on_c, 0, 77, 0
1, 17200, Note_on_c, 0, 76, 26
1, 17278, Note_on_c, 0, 76, 0
1, 17280, Note_on_c, 0, 73, 61
1, 17358, Note_on_c, 0, 73, 0
1, 17360, Note_on_c, 0, 74, 72
1, 17438, Note_on_c, 0, 74, 0
1, 17440, Note_on_c, 0, 77, 63
1, 17518, Note_on_c, 0, 77, 0
1, 17520, Note_on_c, 0, 81, 83
1, 17520, Note_on_c, 1, 57, 47
1, 17520, Note_on_c, 1, 62, 63
1, 17520, Note_on_c, 1, 53, 58
1, 17598, Note_on_c, 0, 81, 0
1, 17600, Note_on_c, 0, 77, 38
1, 17662, Note_on_c, 1, 53, 0
1, 17662, Note_on_c, 1, 62, 0
1, 17662, Note_on_c, 1, 57, 0
1, 17678, Note_on_c, 0, 77, 0
1, 17680, Note_on_c, 0, 74, 56
1, 17758, Note_on_c, 0, 74, 0
1, 17760, Note_on_c, 0, 79, 73
1, 17760, Note_on_c, 1, 55, 49
1, 17760, Note_on_c, 1, 60, 60
1, 17760, Note_on_c, 1, 64, 63
1, 17838, Note_on_c, 0, 79, 0
1, 17840, Note_on_c, 0, 76, 56
1, 17918, Note_on_c, 0, 76, 0
1, 17920, Note_on_c, 0, 72, 57
1, 17998, Note_on_c, 0, 72, 0
1, 17998, Note_on_c, 1, 64, 0
1, 17998, Note_on_c, 1, 60, 0
1, 18000, Note_on_c, 0, 77, 73
1, 18000, Note_on_c, 1, 62, 44
1, 18000, Note_on_c, 1, 65, 61
1, 18078, Note_on_c, 0, 77, 0
1, 18080, Note_on_c, 0, 74, 29
1, 18158, Note_on_c, 0, 74, 0
1, 18160, Note_on_c, 0, 71, 49
1, 18238, Note_on_c, 0, 71, 0
1, 18238, Note_on_c, 1, 65, 0
1, 18238, Note_on_c, 1, 55, 0
1, 18238, Note_on_c, 1, 62, 0
1, 18240, Note_on_c, 0, 72, 57
1, 18240, Note_on_c, 1, 64, 69
1, 18240, Note_on_c, 1, 60, 67
1, 18318, Note_on_c, 0, 72, 0
1, 18320, Note_on_c, 0, 67, 60
1, 18398, Note_on_c, 0, 67, 0
1, 18400, Note_on_c, 0, 76, 67
1, 18478, Note_on_c, 0, 76, 0
1, 18480, Note_on_c, 0, 72, 70
1, 18558, Note_on_c, 0, 72, 0
1, 18560, Note_on_c, 0, 79, 73
1, 18638, Note_on_c, 0, 79, 0
1, 18640, Note_on_c, 0, 76, 83
1, 18718, Note_on_c, 0, 76, 0
1, 18718, Note_on_c, 1, 60, 0
1, 18718, Note_on_c, 1, 64, 0
1, 18720, Note_on_c, 0, 84, 92
1, 18798, Note_on_c, 0, 84, 0
1, 18800, Note_on_c, 0, 83, 73
1, 18878, Note_on_c, 0, 83, 0
1, 18880, Note_on_c, 0, 81, 62
1, 18958, Note_on_c, 0, 81, 0
1, 18960, Note_on_c, 0, 79, 63
1, 19038, Note_on_c, 0, 79, 0
1, 19040, Note_on_c, 0, 77, 61
1, 19118, Note_on_c, 0, 77, 0
1, 19120, Note_on_c, 0, 76, 70
1, 19198, Note_on_c, 0, 76, 0
1, 19200, Note_on_c, 0, 73, 70
1, 19278, Note_on_c, 0, 73, 0
1, 19280, Note_on_c, 0, 74, 36
1, 19358, Note_on_c, 0, 74, 0
1, 19360, Note_on_c, 0, 77, 69
1, 19438, Note_on_c, 0, 77, 0
1, 19440, Note_on_c, 0, 81, 80
1, 19440, Note_on_c, 1, 53, 58
1, 19440, Note_on_c, 1, 62, 63
1, 19440, Note_on_c, 1, 57, 47
1, 19518, Note_on_c, 0, 81, 0
1, 19520, Note_on_c, 0, 77, 61
1, 19582, Note_on_c, 1, 57, 0
1, 19582, Note_on_c, 1, 62, 0
1, 19582, Note_on_c, 1, 53, 0
1, 19598, Note_on_c, 0, 77, 0
1, 19600, Note_on_c, 0, 74, 61
1, 19678, Note_on_c, 0, 74, 0
1, 19680, Note_on_c, 0, 79, 74
1, 19680, Note_on_c, 1, 64, 63
1, 19680, Note_on_c, 1, 60, 60
1, 19680, Note_on_c, 1, 55, 49
1, 19758, Note_on_c, 0, 79, 0
1, 19760, Note_on_c, 0, 76, 68
1, 19838, Note_on_c, 0, 76, 0
1, 19840, Note_on_c, 0, 72, 61
1, 19918, Note_on_c, 0, 72, 0
1, 19918, Note_on_c, 1, 60, 0
1, 19918, Note_on_c, 1, 64, 0
1, 19920, Note_on_c, 0, 77, 73
1, 19920, Note_on_c, 1, 65, 61
1, 19920, Note_on_c, 1, 62, 44
1, 19998, Note_on_c, 0, 77, 0
1, 20000, Note_on_c, 0, 74, 68
1, 20078, Note_on_c, 0, 74, 0
1, 20080, Note_on_c, 0, 71, 62
1, 20158, Note_on_c, 0, 71, 0
1, 20158, Note_on_c, 1, 62, 0
1, 20158, Note_on_c, 1, 55, 0
1, 20158, Note_on_c, 1, 65, 0
1, 20160, Note_on_c, 0, 72, 83
1, 20160, Note_on_c, 1, 60, 79
1, 20160, Note_on_c, 1, 64, 69
1, 20238, Note_on_c, 0, 72, 0
1, 20278, Note_on_c, 1, 64, 0
1, 20278, Note_on_c, 1, 60, 0
1, 20400, Note_on_c, 0, 67, 71
1, 20400, Note_on_c, 1, 55, 71
1, 20478, Note_on_c, 0, 67, 0
1, 20518, Note_on_c, 1, 55, 0
1, 20640, Note_on_c, 0, 60, 52
1, 20640, Note_on_c, 1, 36, 61
1, 20640, Note_on_c, 1, 48, 55
1, 21118, Note_on_c, 0, 60, 0
1, 21118, Note_on_c, 1, 48, 0
1, 21118, Note_on_c, 1, 36, 0
1, 21120, Note_on_c, 0, 76, 74
1, 21120, Note_on_c, 1, 60, 36
1, 21238, Note_on_c, 1, 60, 0
1, 21240, Note_on_c, 1, 67, 36
1, 21358, Note_on_c, 1, 67, 0
1, 21360, Note_on_c, 1, 66, 47
1, 21478, Note_on_c, 1, 66, 0
1, 21480, Note_on_c, 1, 67, 37
1, 21598, Note_on_c, 1, 67, 0
1, 21600, Note_on_c, 1, 60, 39
1, 21646, Note_on_c, 0, 76, 0
1, 21648, Note_on_c, 0, 77, 55
1, 21694, Note_on_c, 0, 77, 0
1, 21696, Note_on_c, 0, 76, 62
1, 21718, Note_on_c, 1, 60, 0
1, 21720, Note_on_c, 1, 67, 35
1, 21742, Note_on_c, 0, 76, 0
1, 21744, Note_on_c, 0, 74, 66
1, 21790, Note_on_c, 0, 74, 0
1, 21792, Note_on_c, 0, 76, 69
1, 21838, Note_on_c, 0, 76, 0
1, 21838, Note_on_c, 1, 67, 0
1, 21840, Note_on_c, 0, 79, 68
1, 21840, Note_on_c, 1, 62, 34
1, 21958, Note_on_c, 0, 79, 0
1, 21958, Note_on_c, 1, 62, 0
1, 21960, Note_on_c, 0, 77, 63
1, 21960, Note_on_c, 1, 67, 36
1, 22078, Note_on_c, 0, 77, 0
1, 22078, Note_on_c, 1, 67, 0
1, 22080, Note_on_c, 0, 76, 69
1, 22080, Note_on_c, 1, 64, 38
1, 22198, Note_on_c, 0, 76, 0
1, 22198, Note_on_c, 1, 64, 0
1, 22200, Note_on_c, 0, 74, 75
1, 22200, Note_on_c, 1, 67, 38
1, 22318, Note_on_c, 0, 74, 0
1, 22318, Note_on_c, 1, 67, 0
1, 22320, Note_on_c, 0, 72, 86
1, 22320, Note_on_c, 1, 65, 35
1, 22438, Note_on_c, 0, 72, 0
1, 22438, Note_on_c, 1, 65, 0
1, 22440, Note_on_c, 0, 71, 63
1, 22440, Note_on_c, 1, 67, 50
1, 22558, Note_on_c, 0, 71, 0
1, 22558, Note_on_c, 1, 67, 0
1, 22560, Note_on_c, 0, 72, 73
1, 22560, Note_on_c, 1, 64, 25
1, 22678, Note_on_c, 0, 72, 0
1, 22678, Note_on_c, 1, 64, 0
1, 22680, Note_on_c, 1, 67, 44
1, 22798, Note_on_c, 1, 67, 0
1, 22800, Note_on_c, 0, 73, 67
1, 22800, Note_on_c, 1, 58, 49
1, 22918, Note_on_c, 0, 73, 0
1, 22918, Note_on_c, 1, 58, 0
1, 22920, Note_on_c, 1, 67, 26
1, 23038, Note_on_c, 1, 67, 0
1, 23040, Note_on_c, 0, 74, 86
1, 23040, Note_on_c, 1, 59, 45
1, 23158, Note_on_c, 0, 74, 0
1, 23158, Note_on_c, 1, 59, 0
1, 23160, Note_on_c, 1, 67, 30
1, 23278, Note_on_c, 1, 67, 0
1, 23280, Note_on_c, 0, 75, 74
1, 23280, Note_on_c, 1, 59, 41
1, 23398, Note_on_c, 1, 59, 0
1, 23400, Note_on_c, 1, 67, 38
1, 23518, Note_on_c, 0, 75, 0
1, 23518, Note_on_c, 1, 67, 0
1, 23520, Note_on_c, 0, 76, 86
1, 23520, Note_on_c, 1, 60, 60
1, 23638, Note_on_c, 1, 60, 0
1, 23640, Note_on_c, 1, 67, 45
1, 23758, Note_on_c, 0, 76, 0
1, 23758, Note_on_c, 1, 67, 0
1, 23760, Note_on_c, 0, 79, 70
1, 23760, Note_on_c, 1, 62, 49
1, 23878, Note_on_c, 0, 79, 0
1, 23878, Note_on_c, 1, 62, 0
1, 23880, Note_on_c, 0, 77, 63
1, 23880, Note_on_c, 1, 67, 37
1, 23998, Note_on_c, 0, 77, 0
1, 23998, Note_on_c, 1, 67, 0
1, 24000, Note_on_c, 0, 76, 72
1, 24000, Note_on_c, 1, 60, 55
1, 24118, Note_on_c, 1, 60, 0
1, 24120, Note_on_c, 1, 67, 30
1, 24238, Note_on_c, 1, 67, 0
1, 24240, Note_on_c, 1, 66, 45
1, 24358, Note_on_c, 0, 76, 0
1, 24358, Note_on_c, 1, 66, 0
1, 24360, Note_on_c, 0, 77, 46
1, 24360, Note_on_c, 1, 67, 39
1, 24418, Note_on_c, 0, 77, 0
1, 24420, Note_on_c, 0, 76, 61
1, 24478, Note_on_c, 0, 76, 0
1, 24478, Note_on_c, 1, 67, 0
1, 24480, Note_on_c, 0, 74, 68
1, 24480, Note_on_c, 1, 59, 57
1, 24598, Note_on_c, 0, 74, 0
1, 24598, Note_on_c, 1, 59, 0
1, 24600, Note_on_c, 1, 67, 30
1, 24718, Note_on_c, 1, 67, 0
1, 24720, Note_on_c, 1, 66, 34
1, 24838, Note_on_c, 1, 66, 0
1, 24840, Note_on_c, 1, 67, 35
1, 24958, Note_on_c, 1, 67, 0
1, 24960, Note_on_c, 0, 77, 78
1, 24960, Note_on_c, 1, 59, 31
1, 25078, Note_on_c, 1, 59, 0
1, 25080, Note_on_c, 1, 67, 44
1, 25198, Note_on_c, 1, 67, 0
1, 25200, Note_on_c, 1, 66, 34
1, 25318, Note_on_c, 1, 66, 0
1, 25320, Note_on_c, 1, 67, 29
1, 25438, Note_on_c, 1, 67, 0
1, 25440, Note_on_c, 1, 59, 39
1, 25486, Note_on_c, 0, 77, 0
1, 25488, Note_on_c, 0, 79, 60
1, 25534, Note_on_c, 0, 79, 0
1, 25536, Note_on_c, 0, 77, 67
1, 25558, Note_on_c, 1, 59, 0
1, 25560, Note_on_c, 1, 67, 49
1, 25582, Note_on_c, 0, 77, 0
1, 25584, Note_on_c, 0, 76, 51
1, 25630, Note_on_c, 0, 76, 0
1, 25632, Note_on_c, 0, 77, 63
1, 25678, Note_on_c, 0, 77, 0
1, 25678, Note_on_c, 1, 67, 0
1, 25680, Note_on_c, 0, 81, 66
1, 25680, Note_on_c, 1, 60, 68
1, 25798, Note_on_c, 0, 81, 0
1, 25798, Note_on_c, 1, 60, 0
1, 25800, Note_on_c, 0, 79, 62
1, 25800, Note_on_c, 1, 67, 46
1, 25918, Note_on_c, 0, 79, 0
1, 25918, Note_on_c, 1, 67, 0
1, 25920, Note_on_c, 0, 77, 60
1, 25920, Note_on_c, 1, 62, 60
1, 26038, Note_on_c, 0, 77, 0
1, 26038, Note_on_c, 1, 62, 0
1, 26040, Note_on_c, 0, 76, 63
1, 26040, Note_on_c, 1, 67, 45
1, 26158, Note_on_c, 0, 76, 0
1, 26158, Note_on_c, 1, 67, 0
1, 26160, Note_on_c, 0, 74, 60
1, 26160, Note_on_c, 1, 64, 60
1, 26278, Note_on_c, 0, 74, 0
1, 26278, Note_on_c, 1, 64, 0
1, 26280, Note_on_c, 0, 72, 60
1, 26280, Note_on_c, 1, 67, 46
1, 26398, Note_on_c, 0, 72, 0
1, 26398, Note_on_c, 1, 67, 0
1, 26400, Note_on_c, 0, 71, 63
1, 26400, Note_on_c, 1, 65, 63
1, 26518, Note_on_c, 0, 71, 0
1, 26518, Note_on_c, 1, 65, 0
1, 26520, Note_on_c, 0, 72, 49
1, 26520, Note_on_c, 1, 67, 37
1, 26590, Note_on_c, 0, 72, 0
1, 26638, Note_on_c, 1, 67, 0
1, 26640, Note_on_c, 0, 74, 69
1, 26640, Note_on_c, 1, 62, 61
1, 26710, Note_on_c, 0, 74, 0
1, 26758, Note_on_c, 1, 62, 0
1, 26760, Note_on_c, 0, 76, 61
1, 26760, Note_on_c, 1, 67, 46
1, 26830, Note_on_c, 0, 76, 0
1, 26878, Note_on_c, 1, 67, 0
1, 26880, Note_on_c, 0, 77, 68
1, 26880, Note_on_c, 1, 59, 60
1, 26950, Note_on_c, 0, 77, 0
1, 26998, Note_on_c, 1, 59, 0
1, 27000, Note_on_c, 0, 79, 86
1, 27000, Note_on_c, 1, 67, 50
1, 27070, Note_on_c, 0, 79, 0
1, 27118, Note_on_c, 1, 67, 0
1, 27120, Note_on_c, 0, 81, 95
1, 27120, Note_on_c, 1, 62, 74
1, 27190, Note_on_c, 0, 81, 0
1, 27238, Note_on_c, 1, 62, 0
1, 27240, Note_on_c, 0, 83, 72
1, 27240, Note_on_c, 1, 67, 50
1, 27310, Note_on_c, 0, 83, 0
1, 27358, Note_on_c, 1, 67, 0
1, 27360, Note_on_c, 0, 84, 86
1, 27360, Note_on_c, 1, 59, 69
1, 27430, Note_on_c, 0, 84, 0
1, 27478, Note_on_c, 1, 59, 0
1, 27480, Note_on_c, 0, 86, 78
1, 27480, Note_on_c, 1, 67, 60
1, 27550, Note_on_c, 0, 86, 0
1, 27598, Note_on_c, 1, 67, 0
1, 27600, Note_on_c, 0, 88, 73
1, 27600, Note_on_c, 1, 55, 70
1, 27670, Note_on_c, 0, 88, 0
1, 27718, Note_on_c, 1, 55, 0
1, 27720, Note_on_c, 0, 89, 74
1, 27720, Note_on_c, 1, 67, 63
1, 27790, Note_on_c, 0, 89, 0
1, 27838, Note_on_c, 1, 67, 0
1, 27840, Note_on_c, 0, 87, 73
1, 27840, Note_on_c, 1, 60, 66
1, 27958, Note_on_c, 1, 60, 0
1, 27960, Note_on_c, 1, 67, 50
1, 28078, Note_on_c, 1, 67, 0
1, 28080, Note_on_c, 1, 64, 34
1, 28198, Note_on_c, 1, 64, 0
1, 28200, Note_on_c, 1, 67, 40
1, 28318, Note_on_c, 0, 87, 0
1, 28318, Note_on_c, 1, 67, 0
1, 28320, Note_on_c, 0, 88, 60
1, 28320, Note_on_c, 1, 60, 60
1, 28438, Note_on_c, 1, 60, 0
1, 28440, Note_on_c, 1, 67, 46
1, 28558, Note_on_c, 0, 88, 0
1, 28558, Note_on_c, 1, 67, 0
1, 28560, Note_on_c, 1, 64, 38
1, 28678, Note_on_c, 1, 64, 0
1, 28680, Note_on_c, 1, 67, 38
1, 28798, Note_on_c, 1, 67, 0
1, 28800, Note_on_c, 0, 76, 80
1, 28800, Note_on_c, 1, 60, 46
1, 28880, Note_on_c, 1, 64, 42
1, 28960, Note_on_c, 1, 69, 42
1, 29040, Note_on_c, 1, 72, 42
1, 29118, Note_on_c, 0, 76, 0
1, 29120, Note_on_c, 0, 81, 73
1, 29198, Note_on_c, 0, 81, 0
1, 29198, Note_on_c, 1, 72, 0
1, 29198, Note_on_c, 1, 69, 0
1, 29198, Note_on_c, 1, 64, 0
1, 29198, Note_on_c, 1, 60, 0
1, 29200, Note_on_c, 0, 84, 75
1, 29278, Note_on_c, 0, 84, 0
1, 29280, Note_on_c, 0, 88, 80
1, 29358, Note_on_c, 0, 88, 0
1, 29360, Note_on_c, 0, 84, 40
1, 29438, Note_on_c, 0, 84, 0
1, 29440, Note_on_c, 0, 81, 60
1, 29518, Note_on_c, 0, 81, 0
1, 29520, Note_on_c, 0, 84, 70
1, 29598, Note_on_c, 0, 84, 0
1, 29600, Note_on_c, 0, 81, 46
1, 29678, Note_on_c, 0, 81, 0
1, 29680, Note_on_c, 0, 76, 60
1, 29758, Note_on_c, 0, 76, 0
1, 29760, Note_on_c, 0, 74, 80
1, 29760, Note_on_c, 1, 59, 46
1, 29840, Note_on_c, 1, 62, 42
1, 29920, Note_on_c, 1, 67, 42
1, 30000, Note_on_c, 1, 71, 42
1, 30078, Note_on_c, 0, 74, 0
1, 30080, Note_on_c, 0, 79, 60
1, 30158, Note_on_c, 0, 79, 0
1, 30158, Note_on_c, 1, 71, 0
1, 30158, Note_on_c, 1, 67, 0
1, 30158, Note_on_c, 1, 62, 0
1, 30158, Note_on_c, 1, 59, 0
1, 30160, Note_on_c, 0, 83, 55
1, 30238, Note_on_c, 0, 83, 0
1, 30240, Note_on_c, 0, 86, 62
1, 30318, Note_on_c, 0, 86, 0
1, 30320, Note_on_c, 0, 83, 51
1, 30398, Note_on_c, 0, 83, 0
1, 30400, Note_on_c, 0, 79, 57
1, 30478, Note_on_c, 0, 79, 0
1, 30480, Note_on_c, 0, 83, 62
1, 30558, Note_on_c, 0, 83, 0
1, 30560, Note_on_c, 0, 79, 44
1, 30638, Note_on_c, 0, 79, 0
1, 30640, Note_on_c, 0, 74, 60
1, 30718, Note_on_c, 0, 74, 0
1, 30720, Note_on_c, 1, 57, 50
1, 30720, Note_on_c, 1, 62, 40
1, 30720, Note_on_c, 1, 54, 41
1, 30800, Note_on_c, 0, 74, 61
1, 30838, Note_on_c, 1, 54, 0
1, 30838, Note_on_c, 1, 62, 0
1, 30838, Note_on_c, 1, 57, 0
1, 30878, Note_on_c, 0, 74, 0
1, 30880, Note_on_c, 0, 81, 68
1, 30958, Note_on_c, 0, 81, 0
1, 30960, Note_on_c, 0, 84, 70
1, 31038, Note_on_c, 0, 84, 0
1, 31040, Note_on_c, 0, 81, 55
1, 31118, Note_on_c, 0, 81, 0
1, 31120, Note_on_c, 0, 74, 36
1, 31198, Note_on_c, 0, 74, 0
1, 31200, Note_on_c, 1, 59, 60
1, 31200, Note_on_c, 1, 55, 40
1, 31200, Note_on_c, 1, 62, 49
1, 31280, Note_on_c, 0, 74, 24
1, 31318, Note_on_c, 1, 62, 0
1, 31318, Note_on_c, 1, 55, 0
1, 31318, Note_on_c, 1, 59, 0
1, 31358, Note_on_c, 0, 74, 0
1, 31360, Note_on_c, 0, 79, 57
1, 31438, Note_on_c, 0, 79, 0
1, 31440, Note_on_c, 0, 83, 50
1, 31518, Note_on_c, 0, 83, 0
1, 31520, Note_on_c, 0, 79, 49
1, 31598, Note_on_c, 0, 79, 0
1, 31600, Note_on_c, 0, 74, 51
1, 31678, Note_on_c, 0, 74, 0
1, 31680, Note_on_c, 0, 81, 80
1, 31680, Note_on_c, 1, 50, 72
1, 31798, Note_on_c, 1, 50, 0
1, 31800, Note_on_c, 1, 62, 55
1, 31858, Note_on_c, 0, 81, 0
1, 31860, Note_on_c, 0, 78, 59
1, 31918, Note_on_c, 0, 78, 0
1, 31918, Note_on_c, 1, 62, 0
1, 31920, Note_on_c, 0, 74, 46
1, 31920, Note_on_c, 1, 61, 60
1, 32038, Note_on_c, 1, 61, 0
1, 32040, Note_on_c, 1, 62, 47
1, 32158, Note_on_c, 0, 74, 0
1, 32158, Note_on_c, 1, 62, 0
1, 32160, Note_on_c, 1, 61, 27
1, 32278, Note_on_c, 1, 61, 0
1, 32280, Note_on_c, 1, 62, 41
1, 32398, Note_on_c, 1, 62, 0
1, 32400, Note_on_c, 1, 60, 34
1, 32518, Note_on_c, 1, 60, 0
1, 32520, Note_on_c, 1, 62, 36
1, 32560, Note_on_c, 0, 67, 46
1, 32638, Note_on_c, 1, 62, 0
1, 32640, Note_on_c, 0, 79, 70
1, 32640, Note_on_c, 1, 59, 33
1, 32758, Note_on_c, 1, 59, 0
1, 32760, Note_on_c, 1, 62, 28
1, 32878, Note_on_c, 1, 62, 0
1, 32880, Note_on_c, 1, 55, 51
1, 32998, Note_on_c, 1, 55, 0
1, 33000, Note_on_c, 1, 62, 27
1, 33118, Note_on_c, 0, 67, 0
1, 33118, Note_on_c, 1, 62, 0
1, 33120, Note_on_c, 1, 59, 46
1, 33238, Note_on_c, 0, 79, 0
1, 33238, Note_on_c, 1, 59, 0
1, 33240, Note_on_c, 0, 78, 60
1, 33240, Note_on_c, 1, 62, 30
1, 33358, Note_on_c, 0, 78, 0
1, 33358, Note_on_c, 1, 62, 0
1, 33360, Note_on_c, 0, 76, 58
1, 33360, Note_on_c, 1, 55, 58
1, 33478, Note_on_c, 0, 76, 0
1, 33478, Note_on_c, 1, 55, 0
1, 33480, Note_on_c, 0, 74, 44
1, 33480, Note_on_c, 1, 62, 34
1, 33598, Note_on_c, 0, 74, 0
1, 33598, Note_on_c, 1, 62, 0
1, 33600, Note_on_c, 0, 74, 67
1, 33600, Note_on_c, 1, 57, 49
1, 33718, Note_on_c, 0, 74, 0
1, 33718, Note_on_c, 1, 57, 0
1, 33720, Note_on_c, 0, 72, 69
1, 33720, Note_on_c, 1, 62, 35
1, 33838, Note_on_c, 0, 72, 0
1, 33838, Note_on_c, 1, 62, 0
1, 33840, Note_on_c, 0, 71, 67
1, 33840, Note_on_c, 1, 55, 57
1, 33958, Note_on_c, 0, 71, 0
1, 33958, Note_on_c, 1, 55, 0
1, 33960, Note_on_c, 0, 69, 60
1, 33960, Note_on_c, 1, 62, 40
1, 34078, Note_on_c, 0, 69, 0
1, 34078, Note_on_c, 1, 62, 0
1, 34080, Note_on_c, 0, 74, 70
1, 34080, Note_on_c, 1, 54, 29
1, 34198, Note_on_c, 0, 74, 0
1, 34198, Note_on_c, 1, 54, 0
1, 34200, Note_on_c, 1, 62, 40
1, 34318, Note_on_c, 1, 62, 0
1, 34320, Note_on_c, 0, 72, 60
1, 34320, Note_on_c, 1, 50, 63
1, 34438, Note_on_c, 0, 72, 0
1, 34438, Note_on_c, 1, 50, 0
1, 34440, Note_on_c, 1, 62, 52
1, 34558, Note_on_c, 1, 62, 0
1, 34560, Note_on_c, 0, 70, 70
1, 34560, Note_on_c, 1, 55, 30
1, 34678, Note_on_c, 1, 55, 0
1, 34680, Note_on_c, 1, 62, 39
1, 34798, Note_on_c, 0, 70, 0
1, 34798, Note_on_c, 1, 62, 0
1, 34800, Note_on_c, 0, 71, 68
1, 34800, Note_on_c, 1, 61, 50
1, 34918, Note_on_c, 0, 71, 0
1, 34918, Note_on_c, 1, 61, 0
1, 34920, Note_on_c, 1, 62, 28
1, 35038, Note_on_c, 1, 62, 0
1, 35040, Note_on_c, 1, 61, 47
1, 35158, Note_on_c, 1, 61, 0
1, 35160, Note_on_c, 1, 62, 62
1, 35278, Note_on_c, 1, 62, 0
1, 35280, Note_on_c, 1, 64, 46
1, 35398, Note_on_c, 1, 64, 0
1, 35400, Note_on_c, 1, 62, 40
1, 35518, Note_on_c, 1, 62, 0
1, 35520, Note_on_c, 1, 60, 62
1, 35638, Note_on_c, 1, 60, 0
1, 35640, Note_on_c, 1, 62, 34
1, 35758, Note_on_c, 1, 62, 0
1, 35760, Note_on_c, 1, 59, 49
1, 35878, Note_on_c, 1, 59, 0
1, 35880, Note_on_c, 1, 62, 40
1, 35998, Note_on_c, 1, 62, 0
1, 36000, Note_on_c, 1, 60, 61
1, 36118, Note_on_c, 1, 60, 0
1, 36120, Note_on_c, 1, 62, 41
1, 36238, Note_on_c, 1, 62, 0
1, 36240, Note_on_c, 1, 57, 52
1, 36358, Note_on_c, 1, 57, 0
1, 36360, Note_on_c, 1, 62, 51
1, 36400, Note_on_c, 0, 67, 46
1, 36478, Note_on_c, 1, 62, 0
1, 36480, Note_on_c, 0, 79, 70
1, 36480, Note_on_c, 1, 59, 44
1, 36598, Note_on_c, 1, 59, 0
1, 36600, Note_on_c, 1, 62, 38
1, 36718, Note_on_c, 1, 62, 0
1, 36720, Note_on_c, 1, 55, 58
1, 36838, Note_on_c, 1, 55, 0
1, 36840, Note_on_c, 1, 62, 38
1, 36958, Note_on_c, 0, 67, 0
1, 36958, Note_on_c, 1, 62, 0
1, 36960, Note_on_c, 1, 59, 61
1, 37078, Note_on_c, 0, 79, 0
1, 37078, Note_on_c, 1, 59, 0
1, 37080, Note_on_c, 0, 78, 60
1, 37080, Note_on_c, 1, 62, 46
1, 37198, Note_on_c, 0, 78, 0
1, 37198, Note_on_c, 1, 62, 0
1, 37200, Note_on_c, 0, 76, 58
1, 37200, Note_on_c, 1, 55, 60
1, 37318, Note_on_c, 0, 76, 0
1, 37318, Note_on_c, 1, 55, 0
1, 37320, Note_on_c, 0, 74, 44
1, 37320, Note_on_c, 1, 62, 35
1, 37438, Note_on_c, 0, 74, 0
1, 37438, Note_on_c, 1, 62, 0
1, 37440, Note_on_c, 0, 74, 67
1, 37440, Note_on_c, 1, 57, 62
1, 37558, Note_on_c, 0, 74, 0
1, 37558, Note_on_c, 1, 57, 0
1, 37560, Note_on_c, 0, 72, 69
1, 37560, Note_on_c, 1, 62, 37
1, 37678, Note_on_c, 0, 72, 0
1, 37678, Note_on_c, 1, 62, 0
1, 37680, Note_on_c, 0, 71, 67
1, 37680, Note_on_c, 1, 55, 70
1, 37798, Note_on_c, 0, 71, 0
1, 37798, Note_on_c, 1, 55, 0
1, 37800, Note_on_c, 0, 69, 60
1, 37800, Note_on_c, 1, 62, 39
1, 37918, Note_on_c, 0, 69, 0
1, 37918, Note_on_c, 1, 62, 0
1, 37920, Note_on_c, 0, 74, 70
1, 37920, Note_on_c, 1, 54, 73
1, 38038, Note_on_c, 0, 74, 0
1, 38038, Note_on_c, 1, 54, 0
1, 38040, Note_on_c, 1, 62, 41
1, 38158, Note_on_c, 1, 62, 0
1, 38160, Note_on_c, 0, 72, 60
1, 38160, Note_on_c, 1, 50, 73
1, 38278, Note_on_c, 0, 72, 0
1, 38278, Note_on_c, 1, 50, 0
1, 38280, Note_on_c, 1, 62, 55
1, 38398, Note_on_c, 1, 62, 0
1, 38400, Note_on_c, 0, 71, 70
1, 38400, Note_on_c, 1, 55, 69
1, 38518, Note_on_c, 1, 55, 0
1, 38520, Note_on_c, 1, 62, 29
1, 38638, Note_on_c, 0, 71, 0
1, 38638, Note_on_c, 1, 62, 0
1, 38640, Note_on_c, 1, 59, 52
1, 38758, Note_on_c, 1, 59, 0
1, 38760, Note_on_c, 0, 78, 73
1, 38760, Note_on_c, 1, 62, 45
1, 38798, Note_on_c, 0, 78, 0
1, 38800, Note_on_c, 0, 76, 68
1, 38838, Note_on_c, 0, 76, 0
1, 38840, Note_on_c, 0, 75, 72
1, 38878, Note_on_c, 0, 75, 0
1, 38878, Note_on_c, 1, 62, 0
1, 38880, Note_on_c, 0, 76, 80
1, 38880, Note_on_c, 1, 55, 81
1, 38998, Note_on_c, 0, 76, 0
1, 38998, Note_on_c, 1, 55, 0
1, 39000, Note_on_c, 0, 78, 72
1, 39000, Note_on_c, 1, 64, 45
1, 39118, Note_on_c, 0, 78, 0
1, 39118, Note_on_c, 1, 64, 0
1, 39120, Note_on_c, 0, 79, 81
1, 39120, Note_on_c, 1, 60, 62
1, 39178, Note_on_c, 0, 79, 0
1, 39238, Note_on_c, 1, 60, 0
1, 39240, Note_on_c, 0, 79, 85
1, 39240, Note_on_c, 1, 64, 41
1, 39298, Note_on_c, 0, 79, 0
1, 39358, Note_on_c, 1, 64, 0
1, 39360, Note_on_c, 0, 79, 79
1, 39360, Note_on_c, 1, 55, 72
1, 39478, Note_on_c, 1, 55, 0
1, 39480, Note_on_c, 1, 62, 62
1, 39598, Note_on_c, 1, 62, 0
1, 39600, Note_on_c, 1, 59, 63
1, 39718, Note_on_c, 1, 59, 0
1, 39720, Note_on_c, 0, 83, 77
1, 39720, Note_on_c, 1, 62, 67
1, 39758, Note_on_c, 0, 83, 0
1, 39760, Note_on_c, 0, 81, 73
1, 39798, Note_on_c, 0, 81, 0
1, 39800, Note_on_c, 0, 79, 81
1, 39838, Note_on_c, 0, 79, 0
1, 39838, Note_on_c, 0, 79, 0
1, 39838, Note_on_c, 1, 62, 0
1, 39840, Note_on_c, 0, 81, 72
1, 39840, Note_on_c, 1, 53, 81
1, 39958, Note_on_c, 0, 81, 0
1, 39958, Note_on_c, 1, 53, 0
1, 39960, Note_on_c, 0, 83, 81
1, 39960, Note_on_c, 1, 60, 57
1, 40078, Note_on_c, 0, 83, 0
1, 40078, Note_on_c, 1, 60, 0
1, 40080, Note_on_c, 0, 84, 85
1, 40080, Note_on_c, 1, 57, 60
1, 40138, Note_on_c, 0, 84, 0
1, 40198, Note_on_c, 1, 57, 0
1, 40200, Note_on_c, 0, 84, 86
1, 40200, Note_on_c, 1, 60, 52
1, 40258, Note_on_c, 0, 84, 0
1, 40318, Note_on_c, 1, 60, 0
1, 40320, Note_on_c, 0, 84, 84
1, 40320, Note_on_c, 1, 52, 83
1, 40438, Note_on_c, 1, 52, 0
1, 40440, Note_on_c, 1, 60, 60
1, 40558, Note_on_c, 1, 60, 0
1, 40560, Note_on_c, 1, 55, 66
1, 40678, Note_on_c, 1, 55, 0
1, 40680, Note_on_c, 0, 86, 81
1, 40680, Note_on_c, 1, 60, 63
1, 40718, Note_on_c, 0, 86, 0
1, 40720, Note_on_c, 0, 84, 63
1, 40758, Note_on_c, 0, 84, 0
1, 40760, Note_on_c, 0, 83, 61
1, 40798, Note_on_c, 0, 84, 0
1, 40798, Note_on_c, 0, 83, 0
1, 40798, Note_on_c, 1, 60, 0
1, 40800, Note_on_c, 0, 84, 81
1, 40800, Note_on_c, 1, 48, 83
1, 40918, Note_on_c, 0, 84, 0
1, 40918, Note_on_c, 1, 48, 0
1, 40920, Note_on_c, 0, 86, 86
1, 40920, Note_on_c, 1, 55, 60
1, 41038, Note_on_c, 0, 86, 0
1, 41038, Note_on_c, 1, 55, 0
1, 41040, Note_on_c, 0, 88, 85
1, 41040, Note_on_c, 1, 52, 61
1, 41098, Note_on_c, 0, 88, 0
1, 41158, Note_on_c, 1, 52, 0
1, 41160, Note_on_c, 0, 88, 83
1, 41160, Note_on_c, 1, 55, 47
1, 41218, Note_on_c, 0, 88, 0
1, 41278, Note_on_c, 1, 55, 0
1, 41280, Note_on_c, 0, 88, 84
1, 41280, Note_on_c, 1, 50, 84
1, 41398, Note_on_c, 0, 88, 0
1, 41398, Note_on_c, 1, 50, 0
1, 41400, Note_on_c, 0, 86, 81
1, 41400, Note_on_c, 1, 59, 61
1, 41518, Note_on_c, 0, 86, 0
1, 41518, Note_on_c, 1, 59, 0
1, 41520, Note_on_c, 0, 84, 79
1, 41520, Note_on_c, 1, 55, 72
1, 41578, Note_on_c, 0, 84, 0
1, 41638, Note_on_c, 1, 55, 0
1, 41640, Note_on_c, 0, 83, 81
1, 41640, Note_on_c, 1, 59, 50
1, 41698, Note_on_c, 0, 83, 0
1, 41758, Note_on_c, 1, 59, 0
1, 41760, Note_on_c, 0, 81, 81
1, 41760, Note_on_c, 1, 50, 84
1, 41878, Note_on_c, 0, 81, 0
1, 41878, Note_on_c, 1, 50, 0
1, 41880, Note_on_c, 1, 60, 57
1, 41998, Note_on_c, 1, 60, 0
1, 42000, Note_on_c, 0, 86, 84
1, 42000, Note_on_c, 1, 54, 68
1, 42118, Note_on_c, 0, 86, 0
1, 42118, Note_on_c, 1, 54, 0
1, 42120, Note_on_c, 1, 60, 72
1, 42238, Note_on_c, 1, 60, 0
1, 42240, Note_on_c, 0, 84, 81
1, 42240, Note_on_c, 1, 55, 73
1, 42358, Note_on_c, 1, 55, 0
1, 42360, Note_on_c, 1, 62, 74
1, 42478, Note_on_c, 0, 84, 0
1, 42478, Note_on_c, 1, 62, 0
1, 42480, Note_on_c, 0, 83, 71
1, 42480, Note_on_c, 1, 59, 68
1, 42550, Note_on_c, 0, 83, 0
1, 42598, Note_on_c, 1, 59, 0
1, 42600, Note_on_c, 0, 78, 73
1, 42600, Note_on_c, 1, 62, 61
1, 42638, Note_on_c, 0, 78, 0
1, 42640, Note_on_c, 0, 76, 68
1, 42678, Note_on_c, 0, 76, 0
1, 42680, Note_on_c, 0, 75, 72
1, 42718, Note_on_c, 0, 75, 0
1, 42718, Note_on_c, 1, 62, 0
1, 42720, Note_on_c, 0, 76, 80
1, 42720, Note_on_c, 1, 55, 62
1, 42838, Note_on_c, 0, 76, 0
1, 42838, Note_on_c, 1, 55, 0
1, 42840, Note_on_c, 0, 78, 72
1, 42840, Note_on_c, 1, 64, 67
1, 42958, Note_on_c, 0, 78, 0
1, 42958, Note_on_c, 1, 64, 0
1, 42960, Note_on_c, 0, 79, 81
1, 42960, Note_on_c, 1, 60, 58
1, 43018, Note_on_c, 0, 79, 0
1, 43078, Note_on_c, 1, 60, 0
1, 43080, Note_on_c, 0, 79, 85
1, 43080, Note_on_c, 1, 64, 46
1, 43138, Note_on_c, 0, 79, 0
1, 43198, Note_on_c, 1, 64, 0
1, 43200, Note_on_c, 0, 79, 79
1, 43200, Note_on_c, 1, 55, 60
1, 43318, Note_on_c, 1, 55, 0
1, 43320, Note_on_c, 1, 62, 58
1, 43438, Note_on_c, 1, 62, 0
1, 43440, Note_on_c, 1, 59, 61
1, 43558, Note_on_c, 1, 59, 0
1, 43560, Note_on_c, 0, 83, 77
1, 43560, Note_on_c, 1, 62, 58
1, 43598, Note_on_c, 0, 83, 0
1, 43600, Note_on_c, 0, 81, 73
1, 43638, Note_on_c, 0, 81, 0
1, 43640, Note_on_c, 0, 79, 81
1, 43678, Note_on_c, 0, 79, 0
1, 43678, Note_on_c, 0, 79, 0
1, 43678, Note_on_c, 1, 62, 0
1, 43680, Note_on_c, 0, 81, 72
1, 43680, Note_on_c, 1, 53, 67
1, 43798, Note_on_c, 0, 81, 0
1, 43798, Note_on_c, 1, 53, 0
1, 43800, Note_on_c, 0, 83, 81
1, 43800, Note_on_c, 1, 60, 40
1, 43918, Note_on_c, 0, 83, 0
1, 43918, Note_on_c, 1, 60, 0
1, 43920, Note_on_c, 0, 84, 85
1, 43920, Note_on_c, 1, 57, 48
1, 43978, Note_on_c, 0, 84, 0
1, 44038, Note_on_c, 1, 57, 0
1, 44040, Note_on_c, 0, 84, 86
1, 44040, Note_on_c, 1, 60, 46
1, 44098, Note_on_c, 0, 84, 0
1, 44158, Note_on_c, 1, 60, 0
1, 44160, Note_on_c, 0, 84, 84
1, 44160, Note_on_c, 1, 52, 73
1, 44278, Note_on_c, 1, 52, 0
1, 44280, Note_on_c, 1, 60, 44
1, 44398, Note_on_c, 1, 60, 0
1, 44400, Note_on_c, 1, 55, 69
1, 44518, Note_on_c, 1, 55, 0
1, 44520, Note_on_c, 0, 86, 81
1, 44520, Note_on_c, 1, 60, 60
1, 44558, Note_on_c, 0, 86, 0
1, 44560, Note_on_c, 0, 84, 63
1, 44598, Note_on_c, 0, 84, 0
1, 44600, Note_on_c, 0, 83, 61
1, 44638, Note_on_c, 0, 84, 0
1, 44638, Note_on_c, 0, 83, 0
1, 44638, Note_on_c, 1, 60, 0
1, 44640, Note_on_c, 0, 84, 81
1, 44640, Note_on_c, 1, 48, 84
1, 44758, Note_on_c, 0, 84, 0
1, 44758, Note_on_c, 1, 48, 0
1, 44760, Note_on_c, 0, 86, 86
1, 44760, Note_on_c, 1, 55, 73
1, 44878, Note_on_c, 0, 86, 0
1, 44878, Note_on_c, 1, 55, 0
1, 44880, Note_on_c, 0, 88, 85
1, 44880, Note_on_c, 1, 52, 83
1, 44938, Note_on_c, 0, 88, 0
1, 44998, Note_on_c, 1, 52, 0
1, 45000, Note_on_c, 0, 88, 83
1, 45000, Note_on_c, 1, 55, 73
1, 45058, Note_on_c, 0, 88, 0
1, 45118, Note_on_c, 1, 55, 0
1, 45120, Note_on_c, 0, 88, 84
1, 45120, Note_on_c, 1, 50, 84
1, 45238, Note_on_c, 0, 88, 0
1, 45238, Note_on_c, 1, 50, 0
1, 45240, Note_on_c, 0, 86, 81
1, 45240, Note_on_c, 1, 59, 72
1, 45358, Note_on_c, 0, 86, 0
1, 45358, Note_on_c, 1, 59, 0
1, 45360, Note_on_c, 0, 84, 79
1, 45360, Note_on_c, 1, 55, 78
1, 45418, Note_on_c, 0, 84, 0
1, 45478, Note_on_c, 1, 55, 0
1, 45480, Note_on_c, 0, 83, 81
1, 45480, Note_on_c, 1, 59, 67
1, 45538, Note_on_c, 0, 83, 0
1, 45598, Note_on_c, 1, 59, 0
1, 45600, Note_on_c, 0, 83, 85
1, 45600, Note_on_c, 1, 50, 83
1, 45718, Note_on_c, 0, 83, 0
1, 45718, Note_on_c, 1, 50, 0
1, 45720, Note_on_c, 0, 81, 78
1, 45720, Note_on_c, 1, 60, 74
1, 45838, Note_on_c, 0, 81, 0
1, 45838, Note_on_c, 1, 60, 0
1, 45840, Note_on_c, 0, 79, 81
1, 45840, Note_on_c, 1, 57, 79
1, 45898, Note_on_c, 0, 79, 0
1, 45958, Note_on_c, 1, 57, 0
1, 45960, Note_on_c, 0, 78, 67
1, 45960, Note_on_c, 1, 60, 71
1, 46018, Note_on_c, 0, 78, 0
1, 46078, Note_on_c, 1, 60, 0
1, 46080, Note_on_c, 0, 86, 80
1, 46320, Note_on_c, 1, 59, 69
1, 46320, Note_on_c, 1, 55, 63
1, 46398, Note_on_c, 0, 86, 0
1, 46400, Note_on_c, 0, 83, 61
1, 46478, Note_on_c, 0, 83, 0
1, 46480, Note_on_c, 0, 79, 57
1, 46558, Note_on_c, 0, 79, 0
1, 46558, Note_on_c, 1, 55, 0
1, 46558, Note_on_c, 1, 59, 0
1, 46560, Note_on_c, 0, 78, 72
1, 46560, Note_on_c, 1, 57, 57
1, 46560, Note_on_c, 1, 60, 62
1, 46638, Note_on_c, 0, 78, 0
1, 46640, Note_on_c, 0, 81, 51
1, 46718, Note_on_c, 0, 81, 0
1, 46720, Note_on_c, 0, 74, 12
1, 46798, Note_on_c, 0, 74, 0
1, 46798, Note_on_c, 1, 60, 0
1, 46798, Note_on_c, 1, 57, 0
1, 46800, Note_on_c, 0, 79, 63
1, 46800, Note_on_c, 1, 62, 52
1, 46800, Note_on_c, 1, 59, 56
1, 46878, Note_on_c, 0, 79, 0
1, 46880, Note_on_c, 0, 83, 40
1, 46958, Note_on_c, 0, 83, 0
1, 46960, Note_on_c, 0, 74, 46
1, 47038, Note_on_c, 0, 74, 0
1, 47038, Note_on_c, 1, 59, 0
1, 47038, Note_on_c, 1, 62, 0
1, 47040, Note_on_c, 0, 81, 63
1, 47280, Note_on_c, 1, 54, 58
1, 47280, Note_on_c, 1, 50, 60
1, 47358, Note_on_c, 0, 81, 0
1, 47360, Note_on_c, 0, 78, 29
1, 47438, Note_on_c, 0, 78, 0
1, 47440, Note_on_c, 0, 74, 58
1, 47518, Note_on_c, 0, 74, 0
1, 47518, Note_on_c, 1, 50, 0
1, 47518, Note_on_c, 1, 54, 0
1, 47520, Note_on_c, 0, 73, 57
1, 47520, Note_on_c, 1, 55, 60
1, 47520, Note_on_c, 1, 52, 60
1, 47598, Note_on_c, 0, 73, 0
1, 47600, Note_on_c, 0, 74, 56
1, 47678, Note_on_c, 0, 74, 0
1, 47680, Note_on_c, 0, 69, 24
1, 47758, Note_on_c, 0, 69, 0
1, 47758, Note_on_c, 1, 52, 0
1, 47758, Note_on_c, 1, 55, 0
1, 47760, Note_on_c, 0, 72, 62
1, 47760, Note_on_c, 1, 57, 49
1, 47760, Note_on_c, 1, 54, 60
1, 47838, Note_on_c, 0, 72, 0
1, 47840, Note_on_c, 0, 74, 58
1, 47918, Note_on_c, 0, 74, 0
1, 47920, Note_on_c, 0, 69, 56
1, 47998, Note_on_c, 0, 69, 0
1, 47998, Note_on_c, 1, 54, 0
1, 47998, Note_on_c, 1, 57, 0
1, 48000, Note_on_c, 0, 86, 79
1, 48240, Note_on_c, 1, 59, 80
1, 48240, Note_on_c, 1, 55, 78
1, 48318, Note_on_c, 0, 86, 0
1, 48320, Note_on_c, 0, 83, 61
1, 48398, Note_on_c, 0, 83, 0
1, 48400, Note_on_c, 0, 79, 56
1, 48478, Note_on_c, 0, 79, 0
1, 48478, Note_on_c, 1, 55, 0
1, 48478, Note_on_c, 1, 59, 0
1, 48480, Note_on_c, 0, 78, 63
1, 48480, Note_on_c, 1, 57, 83
1, 48480, Note_on_c, 1, 60, 81
1, 48558, Note_on_c, 0, 78, 0
1, 48560, Note_on_c, 0, 81, 57
1, 48638, Note_on_c, 0, 81, 0
1, 48640, Note_on_c, 0, 74, 72
1, 48718, Note_on_c, 0, 74, 0
1, 48718, Note_on_c, 1, 60, 0
1, 48718, Note_on_c, 1, 57, 0
1, 48720, Note_on_c, 0, 79, 63
1, 48720, Note_on_c, 1, 62, 81
1, 48720, Note_on_c, 1, 59, 84
1, 48798, Note_on_c, 0, 79, 0
1, 48800, Note_on_c, 0, 83, 50
1, 48878, Note_on_c, 0, 83, 0
1, 48880, Note_on_c, 0, 74, 60
1, 48958, Note_on_c, 0, 74, 0
1, 48958, Note_on_c, 1, 59, 0
1, 48958, Note_on_c, 1, 62, 0
1, 48960, Note_on_c, 0, 81, 61
1, 49200, Note_on_c, 1, 54, 50
1, 49200, Note_on_c, 1, 50, 52
1, 49278, Note_on_c, 0, 81, 0
1, 49280, Note_on_c, 0, 78, 41
1, 49358, Note_on_c, 0, 78, 0
1, 49360, Note_on_c, 0, 74, 33
1, 49438, Note_on_c, 0, 74, 0
1, 49438, Note_on_c, 1, 50, 0
1, 49438, Note_on_c, 1, 54, 0
1, 49440, Note_on_c, 0, 73, 49
1, 49440, Note_on_c, 1, 55, 50
1, 49440, Note_on_c, 1, 52, 30
1, 49518, Note_on_c, 0, 73, 0
1, 49520, Note_on_c, 0, 74, 60
1, 49598, Note_on_c, 0, 74, 0
1, 49600, Note_on_c, 0, 69, 47
1, 49678, Note_on_c, 0, 69, 0
1, 49678, Note_on_c, 1, 52, 0
1, 49678, Note_on_c, 1, 55, 0
1, 49680, Note_on_c, 0, 72, 58
1, 49680, Note_on_c, 1, 57, 41
1, 49680, Note_on_c, 1, 54, 61
1, 49758, Note_on_c, 0, 72, 0
1, 49760, Note_on_c, 0, 74, 63
1, 49838, Note_on_c, 0, 74, 0
1, 49840, Note_on_c, 0, 69, 52
1, 49918, Note_on_c, 0, 69, 0
1, 49918, Note_on_c, 1, 54, 0
1, 49918, Note_on_c, 1, 57, 0
1, 49920, Note_on_c, 0, 71, 52
1, 49920, Note_on_c, 1, 55, 73
1, 49998, Note_on_c, 0, 71, 0
1, 50000, Note_on_c, 0, 67, 57
1, 50078, Note_on_c, 0, 67, 0
1, 50080, Note_on_c, 0, 71, 47
1, 50158, Note_on_c, 0, 71, 0
1, 50160, Note_on_c, 0, 74, 70
1, 50238, Note_on_c, 0, 74, 0
1, 50240, Note_on_c, 0, 71, 67
1, 50318, Note_on_c, 0, 71, 0
1, 50320, Note_on_c, 0, 74, 74
1, 50398, Note_on_c, 0, 74, 0
1, 50398, Note_on_c, 1, 55, 0
1, 50400, Note_on_c, 0, 79, 70
1, 50478, Note_on_c, 0, 79, 0
1, 50480, Note_on_c, 0, 74, 70
1, 50558, Note_on_c, 0, 74, 0
1, 50560, Note_on_c, 0, 79, 74
1, 50638, Note_on_c, 0, 79, 0
1, 50640, Note_on_c, 0, 83, 83
1, 50718, Note_on_c, 0, 83, 0
1, 50720, Note_on_c, 0, 79, 72
1, 50798, Note_on_c, 0, 79, 0
1, 50800, Note_on_c, 0, 83, 83
1, 50878, Note_on_c, 0, 83, 0
1, 50880, Note_on_c, 0, 86, 74
1, 50880, Note_on_c, 1, 55, 63
1, 50880, Note_on_c, 1, 47, 61
1, 50880, Note_on_c, 1, 43, 69
1, 50880, Note_on_c, 1, 50, 70
1, 50958, Note_on_c, 0, 86, 0
1, 50960, Note_on_c, 0, 83, 86
1, 51038, Note_on_c, 0, 83, 0
1, 51040, Note_on_c, 0, 86, 95
1, 51118, Note_on_c, 0, 86, 0
1, 51120, Note_on_c, 0, 89, 95
1, 51198, Note_on_c, 0, 89, 0
1, 51200, Note_on_c, 0, 86, 73
1, 51278, Note_on_c, 0, 86, 0
1, 51280, Note_on_c, 0, 83, 70
1, 51358, Note_on_c, 0, 83, 0
1, 51360, Note_on_c, 0, 79, 67
1, 51438, Note_on_c, 0, 79, 0
1, 51440, Note_on_c, 0, 77, 70
1, 51518, Note_on_c, 0, 77, 0
1, 51520, Note_on_c, 0, 74, 47
1, 51598, Note_on_c, 0, 74, 0
1, 51600, Note_on_c, 0, 71, 67
1, 51678, Note_on_c, 0, 71, 0
1, 51680, Note_on_c, 0, 67, 51
1, 51758, Note_on_c, 0, 67, 0
1, 51760, Note_on_c, 0, 65, 47
1, 51838, Note_on_c, 0, 65, 0
1, 51838, Note_on_c, 1, 50, 0
1, 51838, Note_on_c, 1, 43, 0
1, 51838, Note_on_c, 1, 47, 0
1, 51838, Note_on_c, 1, 55, 0
1, 51840, Note_on_c, 0, 64, 55
1, 51840, Note_on_c, 1, 48, 61
1, 51840, Note_on_c, 1, 55, 52
1, 51898, Note_on_c, 0, 64, 0
1, 51960, Note_on_c, 0, 76, 46
1, 52078, Note_on_c, 0, 76, 0
1, 52080, Note_on_c, 0, 75, 52
1, 52198, Note_on_c, 0, 75, 0
1, 52200, Note_on_c, 0, 76, 62
1, 52318, Note_on_c, 0, 76, 0
1, 52318, Note_on_c, 1, 55, 0
1, 52318, Note_on_c, 1, 48, 0
1, 52320, Note_on_c, 0, 75, 51
1, 52438, Note_on_c, 0, 75, 0
1, 52440, Note_on_c, 0, 76, 57
1, 52558, Note_on_c, 0, 76, 0
1, 52560, Note_on_c, 0, 75, 63
1, 52678, Note_on_c, 0, 75, 0
1, 52680, Note_on_c, 0, 76, 68
1, 52798, Note_on_c, 0, 76, 0
1, 52800, Note_on_c, 0, 67, 62
1, 53040, Note_on_c, 1, 58, 49
1, 53040, Note_on_c, 1, 49, 35
1, 53278, Note_on_c, 1, 49, 0
1, 53278, Note_on_c, 1, 58, 0
1, 53280, Note_on_c, 1, 59, 49
1, 53280, Note_on_c, 1, 50, 56
1, 53518, Note_on_c, 0, 67, 0
1, 53518, Note_on_c, 1, 59, 0
1, 53520, Note_on_c, 0, 66, 51
1, 53520, Note_on_c, 0, 71, 63
1, 53520, Note_on_c, 1, 60, 30
1, 53638, Note_on_c, 0, 71, 0
1, 53640, Note_on_c, 0, 69, 62
1, 53758, Note_on_c, 0, 66, 0
1, 53758, Note_on_c, 0, 69, 0
1, 53758, Note_on_c, 1, 50, 0
1, 53758, Note_on_c, 1, 60, 0
1, 53760, Note_on_c, 1, 59, 63
1, 53760, Note_on_c, 1, 55, 57
1, 53840, Note_on_c, 0, 67, 39
1, 53918, Note_on_c, 0, 67, 0
1, 53920, Note_on_c, 0, 71, 46
1, 53998, Note_on_c, 0, 71, 0
1, 54000, Note_on_c, 0, 74, 62
1, 54078, Note_on_c, 0, 74, 0
1, 54080, Note_on_c, 0, 71, 61
1, 54158, Note_on_c, 0, 71, 0
1, 54160, Note_on_c, 0, 74, 58
1, 54238, Note_on_c, 0, 74, 0
1, 54238, Note_on_c, 1, 55, 0
1, 54238, Note_on_c, 1, 59, 0
1, 54240, Note_on_c, 0, 79, 75
1, 54318, Note_on_c, 0, 79, 0
1, 54320, Note_on_c, 0, 74, 70
1, 54398, Note_on_c, 0, 74, 0
1, 54400, Note_on_c, 0, 79, 80
1, 54478, Note_on_c, 0, 79, 0
1, 54480, Note_on_c, 0, 83, 74
1, 54558, Note_on_c, 0, 83, 0
1, 54560, Note_on_c, 0, 79, 66
1, 54638, Note_on_c, 0, 79, 0
1, 54640, Note_on_c, 0, 83, 74
1, 54718, Note_on_c, 0, 83, 0
1, 54720, Note_on_c, 0, 86, 74
1, 54720, Note_on_c, 1, 55, 68
1, 54720, Note_on_c, 1, 43, 72
1, 54720, Note_on_c, 1, 47, 69
1, 54720, Note_on_c, 1, 50, 66
1, 54798, Note_on_c, 0, 86, 0
1, 54800, Note_on_c, 0, 83, 86
1, 54878, Note_on_c, 0, 83, 0
1, 54880, Note_on_c, 0, 86, 95
1, 54958, Note_on_c, 0, 86, 0
1, 54960, Note_on_c, 0, 89, 90
1, 55038, Note_on_c, 0, 89, 0
1, 55040, Note_on_c, 0, 86, 60
1, 55118, Note_on_c, 0, 86, 0
1, 55120, Note_on_c, 0, 83, 67
1, 55198, Note_on_c, 0, 83, 0
1, 55200, Note_on_c, 0, 79, 63
1, 55278, Note_on_c, 0, 79, 0
1, 55280, Note_on_c, 0, 77, 60
1, 55358, Note_on_c, 0, 77, 0
1, 55360, Note_on_c, 0, 74, 58
1, 55438, Note_on_c, 0, 74, 0
1, 55440, Note_on_c, 0, 71, 60
1, 55518, Note_on_c, 0, 71, 0
1, 55520, Note_on_c, 0, 67, 61
1, 55598, Note_on_c, 0, 67, 0
1, 55600, Note_on_c, 0, 65, 56
1, 55678, Note_on_c, 0, 65, 0
1, 55678, Note_on_c, 1, 50, 0
1, 55678, Note_on_c, 1, 47, 0
1, 55678, Note_on_c, 1, 43, 0
1, 55678, Note_on_c, 1, 55, 0
1, 55680, Note_on_c, 0, 64, 63
1, 55680, Note_on_c, 1, 55, 44
1, 55680, Note_on_c, 1, 48, 47
1, 55738, Note_on_c, 0, 64, 0
1, 55800, Note_on_c, 0, 76, 51
1, 55918, Note_on_c, 0, 76, 0
1, 55920, Note_on_c, 0, 75, 49
1, 56038, Note_on_c, 0, 75, 0
1, 56040, Note_on_c, 0, 76, 68
1, 56158, Note_on_c, 0, 76, 0
1, 56158, Note_on_c, 1, 48, 0
1, 56158, Note_on_c, 1, 55, 0
1, 56160, Note_on_c, 0, 75, 73
1, 56278, Note_on_c, 0, 75, 0
1, 56280, Note_on_c, 0, 76, 74
1, 56398, Note_on_c, 0, 76, 0
1, 56400, Note_on_c, 0, 75, 72
1, 56518, Note_on_c, 0, 75, 0
1, 56520, Note_on_c, 0, 76, 70
1, 56638, Note_on_c, 0, 76, 0
1, 56640, Note_on_c, 1, 49, 70
1, 56640, Note_on_c, 1, 58, 58
1, 56760, Note_on_c, 0, 79, 73
1, 56878, Note_on_c, 0, 79, 0
1, 56880, Note_on_c, 0, 78, 70
1, 56998, Note_on_c, 0, 78, 0
1, 57000, Note_on_c, 0, 79, 72
1, 57118, Note_on_c, 0, 79, 0
1, 57118, Note_on_c, 1, 58, 0
1, 57118, Note_on_c, 1, 49, 0
1, 57120, Note_on_c, 0, 78, 69
1, 57238, Note_on_c, 0, 78, 0
1, 57240, Note_on_c, 0, 79, 70
1, 57358, Note_on_c, 0, 79, 0
1, 57360, Note_on_c, 0, 78, 72
1, 57478, Note_on_c, 0, 78, 0
1, 57480, Note_on_c, 0, 79, 74
1, 57598, Note_on_c, 0, 79, 0
1, 57600, Note_on_c, 0, 79, 83
1, 57600, Note_on_c, 1, 50, 49
1, 57718, Note_on_c, 0, 79, 0
1, 57718, Note_on_c, 1, 50, 0
1, 57720, Note_on_c, 0, 74, 74
1, 57720, Note_on_c, 1, 59, 45
1, 57838, Note_on_c, 0, 74, 0
1, 57838, Note_on_c, 1, 59, 0
1, 57840, Note_on_c, 0, 74, 60
1, 57840, Note_on_c, 1, 55, 62
1, 57898, Note_on_c, 0, 74, 0
1, 57958, Note_on_c, 1, 55, 0
1, 57960, Note_on_c, 0, 74, 63
1, 57960, Note_on_c, 1, 59, 55
1, 58018, Note_on_c, 0, 74, 0
1, 58078, Note_on_c, 1, 59, 0
1, 58080, Note_on_c, 0, 76, 69
1, 58080, Note_on_c, 1, 50, 74
1, 58198, Note_on_c, 0, 76, 0
1, 58198, Note_on_c, 1, 50, 0
1, 58200, Note_on_c, 0, 74, 68
1, 58200, Note_on_c, 1, 59, 60
1, 58318, Note_on_c, 0, 74, 0
1, 58318, Note_on_c, 1, 59, 0
1, 58320, Note_on_c, 0, 72, 68
1, 58320, Note_on_c, 1, 55, 66
1, 58378, Note_on_c, 0, 72, 0
1, 58438, Note_on_c, 1, 55, 0
1, 58440, Note_on_c, 0, 71, 68
1, 58440, Note_on_c, 1, 59, 47
1, 58498, Note_on_c, 0, 71, 0
1, 58558, Note_on_c, 1, 59, 0
1, 58560, Note_on_c, 0, 71, 67
1, 58560, Note_on_c, 1, 50, 72
1, 58678, Note_on_c, 1, 50, 0
1, 58680, Note_on_c, 1, 62, 63
1, 58798, Note_on_c, 1, 62, 0
1, 58800, Note_on_c, 1, 55, 68
1, 58918, Note_on_c, 1, 55, 0
1, 58920, Note_on_c, 1, 62, 52
1, 59038, Note_on_c, 0, 71, 0
1, 59038, Note_on_c, 1, 62, 0
1, 59040, Note_on_c, 0, 69, 38
1, 59040, Note_on_c, 1, 50, 74
1, 59098, Note_on_c, 0, 69, 0
1, 59100, Note_on_c, 0, 71, 57
1, 59158, Note_on_c, 0, 71, 0
1, 59158, Note_on_c, 1, 50, 0
1, 59160, Note_on_c, 0, 69, 57
1, 59160, Note_on_c, 1, 60, 60
1, 59218, Note_on_c, 0, 69, 0
1, 59220, Note_on_c, 0, 71, 62
1, 59278, Note_on_c, 0, 71, 0
1, 59278, Note_on_c, 1, 60, 0
1, 59280, Note_on_c, 0, 69, 60
1, 59280, Note_on_c, 1, 54, 66
1, 59326, Note_on_c, 0, 69, 0
1, 59328, Note_on_c, 0, 71, 58
1, 59374, Note_on_c, 0, 71, 0
1, 59376, Note_on_c, 0, 69, 50
1, 59398, Note_on_c, 1, 54, 0
1, 59400, Note_on_c, 1, 60, 52
1, 59422, Note_on_c, 0, 69, 0
1, 59424, Note_on_c, 0, 67, 60
1, 59470, Note_on_c, 0, 67, 0
1, 59472, Note_on_c, 0, 69, 57
1, 59518, Note_on_c, 0, 69, 0
1, 59518, Note_on_c, 1, 60, 0
1, 59520, Note_on_c, 0, 67, 50
1, 59520, Note_on_c, 1, 55, 56
1, 59638, Note_on_c, 1, 55, 0
1, 59640, Note_on_c, 1, 59, 57
1, 59758, Note_on_c, 0, 67, 0
1, 59758, Note_on_c, 1, 59, 0
1, 59760, Note_on_c, 1, 67, 56
1, 59878, Note_on_c, 1, 67, 0
1, 59880, Note_on_c, 1, 59, 37
1, 59998, Note_on_c, 1, 59, 0
1, 60000, Note_on_c, 0, 74, 70
1, 60000, Note_on_c, 1, 55, 62
1, 60118, Note_on_c, 1, 55, 0
1, 60120, Note_on_c, 1, 59, 49
1, 60238, Note_on_c, 1, 59, 0
1, 60240, Note_on_c, 1, 67, 44
1, 60298, Note_on_c, 0, 74, 0
1, 60300, Note_on_c, 0, 78, 46
1, 60358, Note_on_c, 0, 78, 0
1, 60358, Note_on_c, 1, 67, 0
1, 60360, Note_on_c, 0, 76, 50
1, 60360, Note_on_c, 1, 59, 39
1, 60418, Note_on_c, 0, 76, 0
1, 60420, Note_on_c, 0, 74, 51
1, 60478, Note_on_c, 0, 74, 0
1, 60478, Note_on_c, 1, 59, 0
1, 60480, Note_on_c, 0, 86, 70
1, 60480, Note_on_c, 1, 55, 50
1, 60598, Note_on_c, 0, 86, 0
1, 60598, Note_on_c, 1, 55, 0
1, 60600, Note_on_c, 1, 57, 51
1, 60718, Note_on_c, 1, 57, 0
1, 60720, Note_on_c, 0, 84, 60
1, 60720, Note_on_c, 1, 66, 36
1, 60838, Note_on_c, 0, 84, 0
1, 60838, Note_on_c, 1, 66, 0
1, 60840, Note_on_c, 1, 57, 60
1, 60958, Note_on_c, 1, 57, 0
1, 60960, Note_on_c, 0, 83, 67
1, 60960, Note_on_c, 1, 55, 57
1, 61078, Note_on_c, 0, 83, 0
1, 61078, Note_on_c, 1, 55, 0
1, 61080, Note_on_c, 1, 60, 55
1, 61198, Note_on_c, 1, 60, 0
1, 61200, Note_on_c, 0, 81, 68
1, 61200, Note_on_c, 1, 66, 58
1, 61318, Note_on_c, 0, 81, 0
1, 61318, Note_on_c, 1, 66, 0
1, 61320, Note_on_c, 1, 60, 50
1, 61438, Note_on_c, 1, 60, 0
1, 61440, Note_on_c, 0, 79, 62
1, 61440, Note_on_c, 1, 55, 63
1, 61558, Note_on_c, 1, 55, 0
1, 61560, Note_on_c, 1, 59, 29
1, 61678, Note_on_c, 0, 79, 0
1, 61678, Note_on_c, 1, 59, 0
1, 61680, Note_on_c, 1, 67, 38
1, 61798, Note_on_c, 1, 67, 0
1, 61800, Note_on_c, 1, 59, 44
1, 61918, Note_on_c, 1, 59, 0
1, 61920, Note_on_c, 0, 74, 57
1, 61920, Note_on_c, 1, 55, 60
1, 62038, Note_on_c, 1, 55, 0
1, 62040, Note_on_c, 1, 59, 52
1, 62158, Note_on_c, 1, 59, 0
1, 62160, Note_on_c, 1, 67, 63
1, 62218, Note_on_c, 0, 74, 0
1, 62220, Note_on_c, 0, 78, 33
1, 62278, Note_on_c, 0, 78, 0
1, 62278, Note_on_c, 1, 67, 0
1, 62280, Note_on_c, 0, 76, 37
1, 62280, Note_on_c, 1, 59, 46
1, 62338, Note_on_c, 0, 76, 0
1, 62340, Note_on_c, 0, 74, 45
1, 62398, Note_on_c, 0, 74, 0
1, 62398, Note_on_c, 1, 59, 0
1, 62400, Note_on_c, 0, 86, 48
1, 62400, Note_on_c, 1, 55, 57
1, 62518, Note_on_c, 0, 86, 0
1, 62518, Note_on_c, 1, 55, 0
1, 62520, Note_on_c, 1, 57, 68
1, 62638, Note_on_c, 1, 57, 0
1, 62640, Note_on_c, 0, 84, 55
1, 62640, Note_on_c, 1, 66, 45
1, 62758, Note_on_c, 0, 84, 0
1, 62758, Note_on_c, 1, 66, 0
1, 62760, Note_on_c, 1, 57, 52
1, 62878, Note_on_c, 1, 57, 0
1, 62880, Note_on_c, 0, 83, 56
1, 62880, Note_on_c, 1, 55, 61
1, 62998, Note_on_c, 0, 83, 0
1, 62998, Note_on_c, 1, 55, 0
1, 63000, Note_on_c, 1, 60, 57
1, 63118, Note_on_c, 1, 60, 0
1, 63120, Note_on_c, 0, 81, 57
1, 63120, Note_on_c, 1, 66, 63
1, 63238, Note_on_c, 0, 81, 0
1, 63238, Note_on_c, 1, 66, 0
1, 63240, Note_on_c, 1, 60, 50
1, 63358, Note_on_c, 1, 60, 0
1, 63360, Note_on_c, 0, 79, 47
1, 63360, Note_on_c, 1, 55, 58
1, 63478, Note_on_c, 1, 55, 0
1, 63480, Note_on_c, 1, 59, 49
1, 63598, Note_on_c, 0, 79, 0
1, 63598, Note_on_c, 1, 59, 0
1, 63600, Note_on_c, 1, 67, 47
1, 63718, Note_on_c, 1, 67, 0
1, 63720, Note_on_c, 1, 59, 46
1, 63800, Note_on_c, 0, 74, 51
1, 63838, Note_on_c, 1, 59, 0
1, 63840, Note_on_c, 0, 86, 68
1, 63840, Note_on_c, 1, 55, 61
1, 63958, Note_on_c, 1, 55, 0
1, 63960, Note_on_c, 1, 60, 51
1, 64078, Note_on_c, 1, 60, 0
1, 64080, Note_on_c, 1, 66, 57
1, 64160, Note_on_c, 0, 84, 40
1, 64198, Note_on_c, 0, 86, 0
1, 64198, Note_on_c, 0, 74, 0
1, 64198, Note_on_c, 1, 66, 0
1, 64200, Note_on_c, 1, 60, 22
1, 64211, Note_on_c, 0, 84, 0
1, 64213, Note_on_c, 0, 83, 58
1, 64265, Note_on_c, 0, 83, 0
1, 64267, Note_on_c, 0, 81, 49
1, 64318, Note_on_c, 0, 81, 0
1, 64318, Note_on_c, 1, 60, 0
1, 64320, Note_on_c, 0, 79, 57
1, 64320, Note_on_c, 1, 55, 56
1, 64438, Note_on_c, 1, 55, 0
1, 64440, Note_on_c, 0, 79, 0
1, 64440, Note_on_c, 1, 59, 52
1, 64558, Note_on_c, 1, 59, 0
1, 64560, Note_on_c, 1, 67, 51
1, 64678, Note_on_c, 1, 67, 0
1, 64680, Note_on_c, 1, 59, 52
1, 64760, Note_on_c, 0, 74, 38
1, 64798, Note_on_c, 1, 59, 0
1, 64800, Note_on_c, 0, 86, 55
1, 64800, Note_on_c, 1, 55, 58
1, 64918, Note_on_c, 1, 55, 0
1, 64920, Note_on_c, 1, 60, 35
1, 65038, Note_on_c, 1, 60, 0
1, 65040, Note_on_c, 1, 66, 56
1, 65120, Note_on_c, 0, 84, 27
1, 65158, Note_on_c, 0, 86, 0
1, 65158, Note_on_c, 0, 74, 0
1, 65158, Note_on_c, 1, 66, 0
1, 65160, Note_on_c, 1, 60, 36
1, 65171, Note_on_c, 0, 84, 0
1, 65173, Note_on_c, 0, 83, 45
1, 65225, Note_on_c, 0, 83, 0
1, 65227, Note_on_c, 0, 81, 36
1, 65278, Note_on_c, 0, 81, 0
1, 65278, Note_on_c, 1, 60, 0
1, 65280, Note_on_c, 0, 79, 44
1, 65280, Note_on_c, 1, 67, 46
1, 65280, Note_on_c, 1, 55, 29
1, 65280, Note_on_c, 1, 59, 29
1, 65400, Note_on_c, 0, 79, 0
1, 65518, Note_on_c, 1, 59, 0
1, 65518, Note_on_c, 1, 55, 0
1, 65518, Note_on_c, 1, 67, 0
1, 65520, Note_on_c, 0, 62, 46
1, 65698, Note_on_c, 0, 62, 0
1, 65700, Note_on_c, 0, 67, 56
1, 65758, Note_on_c, 0, 67, 0
1, 65760, Note_on_c, 0, 71, 52
1, 65878, Note_on_c, 0, 71, 0
1, 66000, Note_on_c, 0, 69, 49
1, 66000, Note_on_c, 0, 60, 45
1, 66000, Note_on_c, 1, 50, 60
1, 66118, Note_on_c, 0, 60, 0
1, 66118, Note_on_c, 0, 69, 0
1, 66118, Note_on_c, 1, 50, 0
1, 66240, Note_on_c, 0, 69, 62
1, 66240, Note_on_c, 0, 60, 57
1, 66240, Note_on_c, 1, 55, 56
1, 66257, Tempo, 740741
1, 66325, Tempo, 779221
1, 66402, Tempo, 821918
1, 66478, Note_on_c, 1, 55, 0
1, 66480, Tempo, 869565
1, 66480, Note_on_c, 1, 50, 57
1, 66557, Tempo, 923077
1, 66566, Tempo, 923077
1, 66718, Note_on_c, 0, 60, 0
1, 66718, Note_on_c, 0, 69, 0
1, 66718, Note_on_c, 1, 50, 0
1, 66720, Note_on_c, 0, 67, 36
1, 66720, Note_on_c, 0, 59, 35
1, 66720, Note_on_c, 1, 43, 56
1, 66838, Note_on_c, 0, 59, 0
1, 66838, Note_on_c, 0, 67, 0
1, 66838, Note_on_c, 1, 43, 0
1, 67200, Note_on_c, 0, 74, 68
1, 67200, Note_on_c, 1, 62, 49
1, 67200, Note_on_c, 1, 59, 45
1, 67217, Tempo, 759494
1, 67438, Note_on_c, 0, 74, 0
1, 67438, Note_on_c, 1, 59, 0
1, 67438, Note_on_c, 1, 62, 0
1, 67440, Note_on_c, 0, 71, 57
1, 67440, Note_on_c, 1, 55, 44
1, 67678, Note_on_c, 0, 71, 0
1, 67678, Note_on_c, 1, 55, 0
1, 67680, Note_on_c, 0, 71, 63
1, 67680, Note_on_c, 1, 55, 60
1, 67798, Note_on_c, 0, 71, 0
1, 67918, Note_on_c, 1, 55, 0
1, 67920, Note_on_c, 0, 55, 49
1, 67920, Note_on_c, 0, 71, 66
1, 67966, Note_on_c, 0, 71, 0
1, 67968, Note_on_c, 0, 72, 63
1, 68014, Note_on_c, 0, 72, 0
1, 68016, Note_on_c, 0, 71, 62
1, 68062, Note_on_c, 0, 71, 0
1, 68064, Note_on_c, 0, 69, 63
1, 68110, Note_on_c, 0, 69, 0
1, 68112, Note_on_c, 0, 71, 68
1, 68158, Note_on_c, 0, 55, 0
1, 68158, Note_on_c, 0, 71, 0
1, 68160, Note_on_c, 0, 74, 49
1, 68160, Note_on_c, 1, 59, 50
1, 68160, Note_on_c, 1, 62, 58
1, 68398, Note_on_c, 0, 74, 0
1, 68398, Note_on_c, 1, 62, 0
1, 68398, Note_on_c, 1, 59, 0
1, 68400, Note_on_c, 0, 72, 58
1, 68400, Note_on_c, 1, 57, 57
1, 68518, Note_on_c, 0, 72, 0
1, 68518, Note_on_c, 1, 57, 0
1, 68640, Note_on_c, 0, 69, 60
1, 68640, Note_on_c, 1, 62, 37
1, 68640, Note_on_c, 1, 54, 37
1, 69118, Note_on_c, 0, 69, 0
1, 69118, Note_on_c, 1, 54, 0
1, 69118, Note_on_c, 1, 62, 0
1, 69120, Note_on_c, 0, 72, 62
1, 69120, Note_on_c, 1, 62, 34
1, 69120, Note_on_c, 1, 57, 47
1, 69358, Note_on_c, 0, 72, 0
1, 69358, Note_on_c, 1, 57, 0
1, 69360, Note_on_c, 0, 71, 61
1, 69360, Note_on_c, 1, 55, 26
1, 69478, Note_on_c, 0, 71, 0
1, 69478, Note_on_c, 1, 55, 0
1, 69598, Note_on_c, 1, 62, 0
1, 69600, Note_on_c, 0, 74, 70
1, 69600, Note_on_c, 1, 62, 41
1, 69600, Note_on_c, 1, 59, 51
1, 69838, Note_on_c, 0, 74, 0
1, 69838, Note_on_c, 1, 59, 0
1, 69840, Note_on_c, 0, 72, 66
1, 69840, Note_on_c, 1, 57, 49
1, 69958, Note_on_c, 0, 72, 0
1, 69958, Note_on_c, 1, 57, 0
1, 70078, Note_on_c, 1, 62, 0
1, 70080, Note_on_c, 0, 76, 63
1, 70080, Note_on_c, 1, 62, 37
1, 70080, Note_on_c, 1, 60, 47
1, 70558, Note_on_c, 0, 76, 0
1, 70558, Note_on_c, 1, 60, 0
1, 70560, Note_on_c, 0, 74, 41
1, 70560, Note_on_c, 1, 59, 41
1, 70798, Note_on_c, 0, 74, 0
1, 70798, Note_on_c, 1, 62, 0
1, 70798, Note_on_c, 1, 59, 0
1, 71040, Note_on_c, 0, 74, 68
1, 71278, Note_on_c, 0, 74, 0
1, 71280, Note_on_c, 0, 67, 57
1, 71518, Note_on_c, 0, 67, 0
1, 71520, Note_on_c, 0, 67, 63
1, 71520, Note_on_c, 1, 47, 42
1, 71520, Note_on_c, 1, 50, 47
1, 71638, Note_on_c, 0, 67, 0
1, 71760, Note_on_c, 0, 68, 66
1, 71806, Note_on_c, 0, 68, 0
1, 71808, Note_on_c, 0, 69, 63
1, 71854, Note_on_c, 0, 69, 0
1, 71856, Note_on_c, 0, 68, 62
1, 71902, Note_on_c, 0, 68, 0
1, 71904, Note_on_c, 0, 67, 63
1, 71950, Note_on_c, 0, 67, 0
1, 71952, Note_on_c, 0, 68, 68
1, 71998, Note_on_c, 0, 68, 0
1, 71998, Note_on_c, 1, 50, 0
1, 71998, Note_on_c, 1, 47, 0
1, 72000, Note_on_c, 0, 69, 49
1, 72000, Note_on_c, 1, 52, 41
1, 72000, Note_on_c, 1, 48, 45
1, 72238, Note_on_c, 0, 69, 0
1, 72240, Note_on_c, 0, 72, 58
1, 72358, Note_on_c, 0, 72, 0
1, 72478, Note_on_c, 1, 48, 0
1, 72478, Note_on_c, 1, 52, 0
1, 72480, Note_on_c, 0, 76, 60
1, 72480, Note_on_c, 1, 49, 50
1, 72480, Note_on_c, 1, 55, 48
1, 72958, Note_on_c, 0, 76, 0
1, 72958, Note_on_c, 1, 55, 0
1, 72958, Note_on_c, 1, 49, 0
1, 72960, Note_on_c, 0, 74, 62
1, 72960, Note_on_c, 1, 50, 41
1, 72960, Note_on_c, 1, 59, 45
1, 73198, Note_on_c, 0, 74, 0
1, 73200, Note_on_c, 0, 67, 61
1, 73318, Note_on_c, 0, 67, 0
1, 73438, Note_on_c, 1, 59, 0
1, 73440, Note_on_c, 0, 72, 70
1, 73440, Note_on_c, 1, 57, 45
1, 73678, Note_on_c, 0, 72, 0
1, 73680, Note_on_c, 0, 66, 66
1, 73798, Note_on_c, 0, 66, 0
1, 73918, Note_on_c, 1, 50, 0
1, 73918, Note_on_c, 1, 57, 0
1, 73920, Note_on_c, 0, 69, 63
1, 73920, Note_on_c, 1, 60, 33
1, 73920, Note_on_c, 1, 55, 30
1, 74398, Note_on_c, 0, 69, 0
1, 74398, Note_on_c, 1, 55, 0
1, 74398, Note_on_c, 1, 60, 0
1, 74400, Note_on_c, 0, 67, 41
1, 74400, Note_on_c, 1, 59, 24
1, 74400, Note_on_c, 1, 55, 35
1, 74638, Note_on_c, 0, 67, 0
1, 74638, Note_on_c, 1, 55, 0
1, 74638, Note_on_c, 1, 59, 0
1, 74880, Note_on_c, 0, 74, 68
1, 74880, Note_on_c, 1, 59, 38
1, 74998, Note_on_c, 1, 59, 0
1, 75000, Note_on_c, 1, 62, 35
1, 75118, Note_on_c, 0, 74, 0
1, 75118, Note_on_c, 1, 62, 0
1, 75120, Note_on_c, 0, 71, 57
1, 75120, Note_on_c, 1, 55, 49
1, 75238, Note_on_c, 1, 55, 0
1, 75240, Note_on_c, 1, 62, 27
1, 75358, Note_on_c, 0, 71, 0
1, 75358, Note_on_c, 1, 62, 0
1, 75360, Note_on_c, 0, 71, 63
1, 75360, Note_on_c, 1, 55, 57
1, 75478, Note_on_c, 0, 71, 0
1, 75478, Note_on_c, 1, 55, 0
1, 75480, Note_on_c, 1, 62, 35
1, 75598, Note_on_c, 1, 62, 0
1, 75600, Note_on_c, 0, 71, 66
1, 75600, Note_on_c, 1, 56, 36
1, 75646, Note_on_c, 0, 71, 0
1, 75648, Note_on_c, 0, 72, 63
1, 75694, Note_on_c, 0, 72, 0
1, 75696, Note_on_c, 0, 71, 62
1, 75718, Note_on_c, 1, 56, 0
1, 75720, Note_on_c, 1, 62, 30
1, 75742, Note_on_c, 0, 71, 0
1, 75744, Note_on_c, 0, 69, 63
1, 75790, Note_on_c, 0, 69, 0
1, 75792, Note_on_c, 0, 71, 68
1, 75838, Note_on_c, 0, 71, 0
1, 75838, Note_on_c, 1, 62, 0
1, 75840, Note_on_c, 0, 74, 49
1, 75840, Note_on_c, 1, 57, 46
1, 75958, Note_on_c, 1, 57, 0
1, 75960, Note_on_c, 1, 62, 36
1, 76078, Note_on_c, 0, 74, 0
1, 76078, Note_on_c, 1, 62, 0
1, 76080, Note_on_c, 0, 72, 58
1, 76080, Note_on_c, 1, 55, 38
1, 76198, Note_on_c, 0, 72, 0
1, 76198, Note_on_c, 1, 55, 0
1, 76200, Note_on_c, 1, 62, 33
1, 76318, Note_on_c, 1, 62, 0
1, 76320, Note_on_c, 0, 69, 60
1, 76320, Note_on_c, 1, 54, 60
1, 76438, Note_on_c, 1, 54, 0
1, 76440, Note_on_c, 1, 62, 50
1, 76558, Note_on_c, 1, 62, 0
1, 76560, Note_on_c, 1, 50, 50
1, 76678, Note_on_c, 1, 50, 0
1, 76680, Note_on_c, 1, 62, 29
1, 76798, Note_on_c, 0, 69, 0
1, 76798, Note_on_c, 1, 62, 0
1, 76800, Note_on_c, 0, 72, 62
1, 76800, Note_on_c, 1, 55, 50
1, 76918, Note_on_c, 1, 55, 0
1, 76920, Note_on_c, 1, 67, 33
1, 77038, Note_on_c, 0, 72, 0
1, 77038, Note_on_c, 1, 67, 0
1, 77040, Note_on_c, 0, 71, 61
1, 77040, Note_on_c, 1, 59, 51
1, 77158, Note_on_c, 0, 71, 0
1, 77158, Note_on_c, 1, 59, 0
1, 77160, Note_on_c, 1, 67, 36
1, 77278, Note_on_c, 1, 67, 0
1, 77280, Note_on_c, 0, 74, 70
1, 77280, Note_on_c, 1, 57, 55
1, 77398, Note_on_c, 1, 57, 0
1, 77400, Note_on_c, 1, 67, 26
1, 77518, Note_on_c, 0, 74, 0
1, 77518, Note_on_c, 1, 67, 0
1, 77520, Note_on_c, 0, 72, 66
1, 77520, Note_on_c, 1, 60, 52
1, 77638, Note_on_c, 0, 72, 0
1, 77638, Note_on_c, 1, 60, 0
1, 77640, Note_on_c, 1, 67, 51
1, 77758, Note_on_c, 1, 67, 0
1, 77760, Note_on_c, 0, 76, 63
1, 77760, Note_on_c, 1, 60, 60
1, 77878, Note_on_c, 1, 60, 0
1, 77880, Note_on_c, 1, 67, 44
1, 77998, Note_on_c, 1, 67, 0
1, 78000, Note_on_c, 1, 64, 11
1, 78118, Note_on_c, 1, 64, 0
1, 78120, Note_on_c, 1, 67, 38
1, 78238, Note_on_c, 0, 76, 0
1, 78238, Note_on_c, 1, 67, 0
1, 78240, Note_on_c, 0, 74, 41
1, 78240, Note_on_c, 1, 59, 61
1, 78358, Note_on_c, 1, 59, 0
1, 78360, Note_on_c, 1, 67, 14
1, 78478, Note_on_c, 0, 74, 0
1, 78478, Note_on_c, 1, 67, 0
1, 78480, Note_on_c, 1, 62, 27
1, 78598, Note_on_c, 1, 62, 0
1, 78600, Note_on_c, 1, 67, 24
1, 78718, Note_on_c, 1, 67, 0
1, 78720, Note_on_c, 0, 74, 62
1, 78720, Note_on_c, 1, 57, 49
1, 78838, Note_on_c, 1, 57, 0
1, 78840, Note_on_c, 1, 67, 28
1, 78958, Note_on_c, 0, 74, 0
1, 78958, Note_on_c, 1, 67, 0
1, 78960, Note_on_c, 0, 72, 61
1, 78960, Note_on_c, 1, 60, 51
1, 79078, Note_on_c, 0, 72, 0
1, 79078, Note_on_c, 1, 60, 0
1, 79080, Note_on_c, 1, 67, 25
1, 79198, Note_on_c, 1, 67, 0
1, 79200, Note_on_c, 0, 76, 70
1, 79200, Note_on_c, 1, 59, 67
1, 79318, Note_on_c, 1, 59, 0
1, 79320, Note_on_c, 1, 67, 30
1, 79438, Note_on_c, 0, 76, 0
1, 79438, Note_on_c, 1, 67, 0
1, 79440, Note_on_c, 0, 74, 66
1, 79440, Note_on_c, 1, 62, 33
1, 79558, Note_on_c, 0, 74, 0
1, 79558, Note_on_c, 1, 62, 0
1, 79560, Note_on_c, 1, 67, 24
1, 79678, Note_on_c, 1, 67, 0
1, 79680, Note_on_c, 0, 77, 63
1, 79680, Note_on_c, 1, 62, 52
1, 79798, Note_on_c, 1, 62, 0
1, 79800, Note_on_c, 1, 67, 27
1, 79918, Note_on_c, 1, 67, 0
1, 79920, Note_on_c, 1, 65, 27
1, 80038, Note_on_c, 1, 65, 0
1, 80040, Note_on_c, 1, 67, 46
1, 80158, Note_on_c, 0, 77, 0
1, 80158, Note_on_c, 1, 67, 0
1, 80160, Note_on_c, 0, 76, 41
1, 80160, Note_on_c, 1, 60, 55
1, 80278, Note_on_c, 1, 60, 0
1, 80280, Note_on_c, 1, 67, 38
1, 80398, Note_on_c, 0, 76, 0
1, 80398, Note_on_c, 1, 67, 0
1, 80400, Note_on_c, 1, 64, 35
1, 80518, Note_on_c, 1, 64, 0
1, 80520, Note_on_c, 1, 67, 29
1, 80638, Note_on_c, 1, 67, 0
1, 80640, Note_on_c, 0, 76, 62
1, 80640, Note_on_c, 1, 59, 51
1, 80758, Note_on_c, 1, 59, 0
1, 80760, Note_on_c, 1, 67, 29
1, 80878, Note_on_c, 0, 76, 0
1, 80878, Note_on_c, 1, 67, 0
1, 80880, Note_on_c, 0, 74, 61
1, 80880, Note_on_c, 1, 62, 57
1, 80998, Note_on_c, 0, 74, 0
1, 80998, Note_on_c, 1, 62, 0
1, 81000, Note_on_c, 1, 67, 35
1, 81118, Note_on_c, 1, 67, 0
1, 81120, Note_on_c, 0, 77, 70
1, 81120, Note_on_c, 1, 60, 61
1, 81238, Note_on_c, 1, 60, 0
1, 81240, Note_on_c, 1, 67, 47
1, 81358, Note_on_c, 0, 77, 0
1, 81358, Note_on_c, 1, 67, 0
1, 81360, Note_on_c, 0, 76, 66
1, 81360, Note_on_c, 1, 64, 52
1, 81478, Note_on_c, 0, 76, 0
1, 81478, Note_on_c, 1, 64, 0
1, 81480, Note_on_c, 1, 67, 41
1, 81598, Note_on_c, 1, 67, 0
1, 81600, Note_on_c, 0, 79, 63
1, 81600, Note_on_c, 1, 64, 62
1, 81718, Note_on_c, 1, 64, 0
1, 81720, Note_on_c, 1, 67, 35
1, 81838, Note_on_c, 1, 67, 0
1, 81840, Note_on_c, 1, 66, 26
1, 81958, Note_on_c, 1, 66, 0
1, 81960, Note_on_c, 1, 67, 37
1, 82078, Note_on_c, 0, 79, 0
1, 82078, Note_on_c, 1, 67, 0
1, 82080, Note_on_c, 0, 77, 41
1, 82080, Note_on_c, 1, 62, 58
1, 82198, Note_on_c, 1, 62, 0
1, 82200, Note_on_c, 1, 67, 40
1, 82318, Note_on_c, 0, 77, 0
1, 82318, Note_on_c, 1, 67, 0
1, 82320, Note_on_c, 1, 66, 30
1, 82438, Note_on_c, 1, 66, 0
1, 82440, Note_on_c, 1, 67, 47
1, 82558, Note_on_c, 1, 67, 0
1, 82560, Note_on_c, 0, 76, 63
1, 82560, Note_on_c, 1, 60, 55
1, 82678, Note_on_c, 1, 60, 0
1, 82680, Note_on_c, 1, 67, 45
1, 82798, Note_on_c, 1, 67, 0
1, 82800, Note_on_c, 1, 66, 57
1, 82918, Note_on_c, 0, 76, 0
1, 82918, Note_on_c, 1, 66, 0
1, 82920, Note_on_c, 0, 77, 60
1, 82920, Note_on_c, 1, 67, 57
1, 82978, Note_on_c, 0, 77, 0
1, 82980, Note_on_c, 0, 79, 47
1, 83038, Note_on_c, 0, 79, 0
1, 83038, Note_on_c, 1, 67, 0
1, 83040, Note_on_c, 0, 77, 60
1, 83040, Note_on_c, 1, 59, 49
1, 83158, Note_on_c, 0, 77, 0
1, 83158, Note_on_c, 1, 59, 0
1, 83160, Note_on_c, 1, 67, 16
1, 83278, Note_on_c, 1, 67, 0
1, 83280, Note_on_c, 0, 76, 29
1, 83280, Note_on_c, 1, 60, 49
1, 83398, Note_on_c, 0, 76, 0
1, 83398, Note_on_c, 1, 60, 0
1, 83400, Note_on_c, 1, 67, 39
1, 83518, Note_on_c, 1, 67, 0
1, 83520, Note_on_c, 0, 74, 62
1, 83520, Note_on_c, 1, 55, 46
1, 83638, Note_on_c, 1, 55, 0
1, 83640, Note_on_c, 1, 67, 19
1, 83758, Note_on_c, 1, 67, 0
1, 83760, Note_on_c, 1, 59, 49
1, 83878, Note_on_c, 1, 59, 0
1, 83880, Note_on_c, 1, 67, 33
1, 83998, Note_on_c, 0, 74, 0
1, 83998, Note_on_c, 1, 67, 0
1, 84000, Note_on_c, 1, 55, 46
1, 84118, Note_on_c, 1, 55, 0
1, 84120, Note_on_c, 1, 67, 23
1, 84238, Note_on_c, 1, 67, 0
1, 84240, Note_on_c, 0, 79, 55
1, 84240, Note_on_c, 1, 59, 41
1, 84358, Note_on_c, 0, 79, 0
1, 84358, Note_on_c, 1, 59, 0
1, 84360, Note_on_c, 1, 67, 15
1, 84478, Note_on_c, 1, 67, 0
1, 84480, Note_on_c, 0, 77, 60
1, 84480, Note_on_c, 1, 55, 39
1, 84598, Note_on_c, 1, 55, 0
1, 84600, Note_on_c, 1, 67, 24
1, 84718, Note_on_c, 0, 77, 0
1, 84718, Note_on_c, 1, 67, 0
1, 84720, Note_on_c, 0, 75, 44
1, 84720, Note_on_c, 1, 60, 26
1, 84838, Note_on_c, 0, 75, 0
1, 84838, Note_on_c, 1, 60, 0
1, 84840, Note_on_c, 1, 67, 23
1, 84958, Note_on_c, 1, 67, 0
1, 84960, Note_on_c, 1, 55, 49
1, 85078, Note_on_c, 1, 55, 0
1, 85080, Note_on_c, 1, 67, 50
1, 85198, Note_on_c, 1, 67, 0
1, 85200, Note_on_c, 0, 72, 46
1, 85200, Note_on_c, 1, 63, 25
1, 85318, Note_on_c, 0, 72, 0
1, 85318, Note_on_c, 1, 63, 0
1, 85320, Note_on_c, 1, 67, 44
1, 85438, Note_on_c, 1, 67, 0
1, 85440, Note_on_c, 0, 71, 57
1, 85440, Note_on_c, 1, 55, 46
1, 85558, Note_on_c, 1, 55, 0
1, 85560, Note_on_c, 1, 67, 49
1, 85678, Note_on_c, 0, 71, 0
1, 85678, Note_on_c, 1, 67, 0
1, 85680, Note_on_c, 0, 74, 58
1, 85680, Note_on_c, 1, 62, 27
1, 85798, Note_on_c, 0, 74, 0
1, 85798, Note_on_c, 1, 62, 0
1, 85800, Note_on_c, 1, 67, 33
1, 85918, Note_on_c, 1, 67, 0
1, 85920, Note_on_c, 1, 55, 30
1, 86038, Note_on_c, 1, 55, 0
1, 86040, Note_on_c, 1, 67, 47
1, 86158, Note_on_c, 1, 67, 0
1, 86160, Note_on_c, 0, 79, 61
1, 86160, Note_on_c, 1, 59, 44
1, 86278, Note_on_c, 1, 59, 0
1, 86280, Note_on_c, 1, 67, 14
1, 86398, Note_on_c, 0, 79, 0
1, 86398, Note_on_c, 1, 67, 0
1, 86400, Note_on_c, 1, 55, 55
1, 86518, Note_on_c, 1, 55, 0
1, 86520, Note_on_c, 1, 67, 23
1, 86638, Note_on_c, 1, 67, 0
1, 86640, Note_on_c, 0, 77, 47
1, 86640, Note_on_c, 1, 60, 30
1, 86758, Note_on_c, 0, 77, 0
1, 86758, Note_on_c, 1, 60, 0
1, 86760, Note_on_c, 0, 75, 41
1, 86760, Note_on_c, 1, 67, 28
1, 86878, Note_on_c, 0, 75, 0
1, 86878, Note_on_c, 1, 67, 0
1, 86880, Note_on_c, 1, 55, 55
1, 86998, Note_on_c, 1, 55, 0
1, 87000, Note_on_c, 1, 67, 49
1, 87118, Note_on_c, 1, 67, 0
1, 87120, Note_on_c, 0, 74, 62
1, 87120, Note_on_c, 1, 63, 51
1, 87238, Note_on_c, 0, 74, 0
1, 87238, Note_on_c, 1, 63, 0
1, 87240, Note_on_c, 0, 72, 52
1, 87240, Note_on_c, 1, 67, 38
1, 87358, Note_on_c, 0, 72, 0
1, 87358, Note_on_c, 1, 67, 0
1, 87360, Note_on_c, 0, 71, 69
1, 87360, Note_on_c, 1, 55, 49
1, 87478, Note_on_c, 1, 55, 0
1, 87480, Note_on_c, 1, 67, 26
1, 87598, Note_on_c, 0, 71, 0
1, 87598, Note_on_c, 1, 67, 0
1, 87600, Note_on_c, 0, 74, 70
1, 87600, Note_on_c, 1, 62, 36
1, 87718, Note_on_c, 1, 62, 0
1, 87720, Note_on_c, 1, 67, 44
1, 87838, Note_on_c, 0, 74, 0
1, 87838, Note_on_c, 1, 67, 0
1, 87840, Note_on_c, 1, 55, 46
1, 87958, Note_on_c, 1, 55, 0
1, 87960, Note_on_c, 0, 79, 67
1, 87960, Note_on_c, 1, 67, 6
1, 88078, Note_on_c, 0, 79, 0
1, 88078, Note_on_c, 1, 67, 0
1, 88080, Note_on_c, 0, 78, 61
1, 88080, Note_on_c, 1, 59, 46
1, 88198, Note_on_c, 0, 78, 0
1, 88198, Note_on_c, 1, 59, 0
1, 88200, Note_on_c, 0, 79, 49
1, 88200, Note_on_c, 1, 67, 29
1, 88318, Note_on_c, 0, 79, 0
1, 88318, Note_on_c, 1, 67, 0
1, 88320, Note_on_c, 1, 56, 62
1, 88438, Note_on_c, 1, 56, 0
1, 88440, Note_on_c, 0, 75, 60
1, 88440, Note_on_c, 1, 67, 57
1, 88558, Note_on_c, 0, 75, 0
1, 88558, Note_on_c, 1, 67, 0
1, 88560, Note_on_c, 0, 74, 41
1, 88560, Note_on_c, 1, 60, 49
1, 88678, Note_on_c, 0, 74, 0
1, 88678, Note_on_c, 1, 60, 0
1, 88680, Note_on_c, 0, 75, 49
1, 88680, Note_on_c, 1, 67, 49
1, 88798, Note_on_c, 0, 75, 0
1, 88798, Note_on_c, 1, 67, 0
1, 88800, Note_on_c, 1, 57, 63
1, 88918, Note_on_c, 1, 57, 0
1, 88920, Note_on_c, 0, 72, 18
1, 88920, Note_on_c, 1, 66, 30
1, 89038, Note_on_c, 0, 72, 0
1, 89038, Note_on_c, 1, 66, 0
1, 89040, Note_on_c, 0, 71, 57
1, 89040, Note_on_c, 1, 60, 61
1, 89158, Note_on_c, 0, 71, 0
1, 89158, Note_on_c, 1, 60, 0
1, 89160, Note_on_c, 0, 72, 62
1, 89160, Note_on_c, 1, 66, 47
1, 89278, Note_on_c, 0, 72, 0
1, 89278, Note_on_c, 1, 66, 0
1, 89280, Note_on_c, 0, 71, 55
1, 89280, Note_on_c, 1, 67, 28
1, 89280, Note_on_c, 1, 55, 25
1, 89518, Note_on_c, 0, 71, 0
1, 89518, Note_on_c, 1, 55, 0
1, 89518, Note_on_c, 1, 67, 0
1, 89520, Note_on_c, 0, 74, 68
1, 89590, Note_on_c, 0, 74, 0
1, 89760, Note_on_c, 0, 71, 57
1, 89760, Note_on_c, 1, 55, 37
1, 89760, Note_on_c, 1, 67, 35
1, 89998, Note_on_c, 0, 71, 0
1, 89998, Note_on_c, 1, 67, 0
1, 89998, Note_on_c, 1, 55, 0
1, 90000, Note_on_c, 0, 74, 60
1, 90070, Note_on_c, 0, 74, 0
1, 90240, Note_on_c, 0, 71, 55
1, 90240, Note_on_c, 1, 55, 33
1, 90240, Note_on_c, 1, 67, 30
1, 90478, Note_on_c, 0, 71, 0
1, 90478, Note_on_c, 1, 67, 0
1, 90478, Note_on_c, 1, 55, 0
1, 90480, Note_on_c, 0, 74, 55
1, 90550, Note_on_c, 0, 74, 0
1, 91200, Note_on_c, 0, 74, 41
1, 91200, Note_on_c, 1, 65, 41
1, 91200, Note_on_c, 1, 62, 41
1, 91200, Note_on_c, 1, 59, 41
1, 91200, Note_on_c, 1, 55, 41
1, 91217, Tempo, 740741
1, 91438, Note_on_c, 0, 74, 0
1, 91438, Note_on_c, 1, 55, 0
1, 91438, Note_on_c, 1, 59, 0
1, 91438, Note_on_c, 1, 62, 0
1, 91438, Note_on_c, 1, 65, 0
1, 91440, Note_on_c, 0, 77, 55
1, 91510, Note_on_c, 0, 77, 0
1, 91512, Tempo, 779221
1, 91680, Note_on_c, 0, 74, 38
1, 91680, Note_on_c, 1, 65, 36
1, 91680, Note_on_c, 1, 62, 36
1, 91680, Note_on_c, 1, 59, 36
1, 91680, Note_on_c, 1, 55, 36
1, 91844, Tempo, 821918
1, 91918, Note_on_c, 0, 74, 0
1, 91918, Note_on_c, 1, 55, 0
1, 91918, Note_on_c, 1, 59, 0
1, 91918, Note_on_c, 1, 62, 0
1, 91918, Note_on_c, 1, 65, 0
1, 91920, Note_on_c, 0, 77, 41
1, 91990, Note_on_c, 0, 77, 0
1, 92160, Note_on_c, 0, 74, 36
1, 92160, Note_on_c, 1, 55, 30
1, 92160, Note_on_c, 1, 59, 30
1, 92160, Note_on_c, 1, 62, 30
1, 92160, Note_on_c, 1, 65, 30
1, 92179, Tempo, 869565
1, 92398, Note_on_c, 0, 74, 0
1, 92398, Note_on_c, 1, 65, 0
1, 92398, Note_on_c, 1, 62, 0
1, 92398, Note_on_c, 1, 59, 0
1, 92398, Note_on_c, 1, 55, 0
1, 92400, Note_on_c, 0, 77, 36
1, 92470, Note_on_c, 0, 77, 0
1, 92514, Tempo, 923077
1, 92554, Tempo, 923077
1, 92991, Tempo, 740741
1, 93120, Note_on_c, 0, 76, 81
1, 93360, Note_on_c, 1, 48, 60
1, 93478, Note_on_c, 0, 76, 0
1, 93480, Note_on_c, 0, 77, 74
1, 93502, Note_on_c, 1, 48, 0
1, 93538, Note_on_c, 0, 77, 0
1, 93540, Note_on_c, 0, 79, 51
1, 93598, Note_on_c, 0, 79, 0
1, 93600, Note_on_c, 0, 72, 75
1, 93600, Note_on_c, 1, 52, 61
1, 93658, Note_on_c, 0, 72, 0
1, 93742, Note_on_c, 1, 52, 0
1, 93840, Note_on_c, 0, 74, 73
1, 93840, Note_on_c, 0, 71, 64
1, 93840, Note_on_c, 1, 55, 50
1, 93898, Note_on_c, 0, 71, 0
1, 93898, Note_on_c, 0, 74, 0
1, 93982, Note_on_c, 1, 55, 0
1, 94080, Note_on_c, 0, 71, 64
1, 94080, Note_on_c, 0, 74, 77
1, 94080, Note_on_c, 1, 60, 57
1, 94222, Note_on_c, 1, 60, 0
1, 94318, Note_on_c, 0, 74, 0
1, 94318, Note_on_c, 0, 71, 0
1, 94320, Note_on_c, 0, 77, 44
1, 94320, Note_on_c, 0, 72, 62
1, 94320, Note_on_c, 1, 48, 51
1, 94438, Note_on_c, 0, 77, 0
1, 94440, Note_on_c, 0, 76, 80
1, 94462, Note_on_c, 1, 48, 0
1, 94558, Note_on_c, 0, 72, 0
1, 94558, Note_on_c, 0, 76, 0
1, 94560, Note_on_c, 0, 71, 58
1, 94560, Note_on_c, 0, 74, 59
1, 94560, Note_on_c, 1, 55, 47
1, 94702, Note_on_c, 1, 55, 0
1, 94800, Note_on_c, 1, 43, 60
1, 94942, Note_on_c, 1, 43, 0
1, 95038, Note_on_c, 0, 74, 0
1, 95038, Note_on_c, 0, 71, 0
1, 95040, Note_on_c, 0, 76, 81
1, 95280, Note_on_c, 1, 48, 57
1, 95398, Note_on_c, 0, 76, 0
1, 95400, Note_on_c, 0, 77, 74
1, 95422, Note_on_c, 1, 48, 0
1, 95458, Note_on_c, 0, 77, 0
1, 95460, Note_on_c, 0, 79, 51
1, 95518, Note_on_c, 0, 79, 0
1, 95520, Note_on_c, 0, 72, 75
1, 95520, Note_on_c, 1, 52, 63
1, 95578, Note_on_c, 0, 72, 0
1, 95662, Note_on_c, 1, 52, 0
1, 95760, Note_on_c, 0, 71, 64
1, 95760, Note_on_c, 0, 74, 73
1, 95760, Note_on_c, 1, 55, 58
1, 95818, Note_on_c, 0, 74, 0
1, 95818, Note_on_c, 0, 71, 0
1, 95902, Note_on_c, 1, 55, 0
1, 96000, Note_on_c, 0, 77, 86
1, 96000, Note_on_c, 0, 74, 82
1, 96000, Note_on_c, 1, 60, 68
1, 96142, Note_on_c, 1, 60, 0
1, 96238, Note_on_c, 0, 74, 0
1, 96238, Note_on_c, 0, 77, 0
1, 96240, Note_on_c, 0, 72, 58
1, 96240, Note_on_c, 0, 76, 74
1, 96240, Note_on_c, 1, 48, 47
1, 96286, Note_on_c, 0, 76, 0
1, 96286, Note_on_c, 0, 72, 0
1, 96288, Note_on_c, 0, 77, 70
1, 96334, Note_on_c, 0, 77, 0
1, 96336, Note_on_c, 0, 76, 68
1, 96382, Note_on_c, 0, 76, 0
1, 96382, Note_on_c, 1, 48, 0
1, 96384, Note_on_c, 0, 77, 50
1, 96430, Note_on_c, 0, 77, 0
1, 96432, Note_on_c, 0, 76, 62
1, 96478, Note_on_c, 0, 76, 0
1, 96480, Note_on_c, 0, 74, 66
1, 96480, Note_on_c, 0, 71, 52
1, 96480, Note_on_c, 1, 55, 57
1, 96622, Note_on_c, 1, 55, 0
1, 96720, Note_on_c, 1, 43, 57
1, 96862, Note_on_c, 1, 43, 0
1, 96958, Note_on_c, 0, 71, 0
1, 96958, Note_on_c, 0, 74, 0
1, 96960, Note_on_c, 0, 77, 74
1, 96960, Note_on_c, 1, 57, 51
1, 97198, Note_on_c, 1, 57, 0
1, 97200, Note_on_c, 1, 60, 49
1, 97318, Note_on_c, 0, 77, 0
1, 97320, Note_on_c, 0, 79, 62
1, 97378, Note_on_c, 0, 79, 0
1, 97380, Note_on_c, 0, 77, 70
1, 97438, Note_on_c, 0, 77, 0
1, 97438, Note_on_c, 1, 60, 0
1, 97440, Note_on_c, 0, 76, 72
1, 97440, Note_on_c, 1, 55, 56
1, 97498, Note_on_c, 0, 76, 0
1, 97678, Note_on_c, 1, 55, 0
1, 97680, Note_on_c, 0, 76, 52
1, 97680, Note_on_c, 1, 60, 36
1, 97738, Note_on_c, 0, 76, 0
1, 97918, Note_on_c, 1, 60, 0
1, 97920, Note_on_c, 0, 81, 70
1, 97920, Note_on_c, 1, 53, 63
1, 98158, Note_on_c, 1, 53, 0
1, 98160, Note_on_c, 1, 60, 34
1, 98278, Note_on_c, 0, 81, 0
1, 98280, Note_on_c, 0, 83, 69
1, 98338, Note_on_c, 0, 83, 0
1, 98340, Note_on_c, 0, 84, 55
1, 98398, Note_on_c, 0, 84, 0
1, 98398, Note_on_c, 1, 60, 0
1, 98400, Note_on_c, 0, 79, 50
1, 98400, Note_on_c, 1, 52, 61
1, 98458, Note_on_c, 0, 79, 0
1, 98638, Note_on_c, 1, 52, 0
1, 98640, Note_on_c, 0, 79, 57
1, 98640, Note_on_c, 1, 60, 51
1, 98698, Note_on_c, 0, 79, 0
1, 98878, Note_on_c, 1, 60, 0
1, 98880, Note_on_c, 0, 79, 61
1, 98998, Note_on_c, 0, 79, 0
1, 99000, Note_on_c, 0, 77, 63
1, 99058, Note_on_c, 0, 77, 0
1, 99120, Note_on_c, 0, 77, 68
1, 99120, Note_on_c, 1, 59, 41
1, 99120, Note_on_c, 1, 67, 60
1, 99238, Note_on_c, 0, 77, 0
1, 99240, Note_on_c, 0, 74, 45
1, 99298, Note_on_c, 0, 74, 0
1, 99358, Note_on_c, 1, 67, 0
1, 99358, Note_on_c, 1, 59, 0
1, 99360, Note_on_c, 0, 77, 63
1, 99478, Note_on_c, 0, 77, 0
1, 99480, Note_on_c, 0, 76, 60
1, 99538, Note_on_c, 0, 76, 0
1, 99600, Note_on_c, 0, 76, 62
1, 99600, Note_on_c, 1, 60, 63
1, 99600, Note_on_c, 1, 67, 63
1, 99718, Note_on_c, 0, 76, 0
1, 99720, Note_on_c, 0, 72, 36
1, 99778, Note_on_c, 0, 72, 0
1, 99838, Note_on_c, 1, 67, 0
1, 99838, Note_on_c, 1, 60, 0
1, 99840, Note_on_c, 0, 73, 41
1, 99840, Note_on_c, 1, 55, 49
1, 99840, Note_on_c, 1, 59, 57
1, 99958, Note_on_c, 0, 73, 0
1, 99960, Note_on_c, 0, 74, 62
1, 100078, Note_on_c, 0, 74, 0
1, 100080, Note_on_c, 0, 76, 73
1, 100198, Note_on_c, 0, 76, 0
1, 100200, Note_on_c, 0, 74, 66
1, 100318, Note_on_c, 0, 74, 0
1, 100318, Note_on_c, 1, 59, 0
1, 100318, Note_on_c, 1, 55, 0
1, 100320, Note_on_c, 0, 72, 46
1, 100438, Note_on_c, 0, 72, 0
1, 100440, Note_on_c, 0, 71, 49
1, 100558, Note_on_c, 0, 71, 0
1, 100560, Note_on_c, 0, 69, 29
1, 100678, Note_on_c, 0, 69, 0
1, 100680, Note_on_c, 0, 67, 44
1, 100798, Note_on_c, 0, 67, 0
1, 100800, Note_on_c, 0, 76, 95
1, 100800, Note_on_c, 1, 36, 66
1, 100870, Note_on_c, 1, 36, 0
1, 100920, Note_on_c, 1, 40, 73
1, 100990, Note_on_c, 1, 40, 0
1, 101040, Note_on_c, 1, 43, 70
1, 101110, Note_on_c, 1, 43, 0
1, 101158, Note_on_c, 0, 76, 0
1, 101160, Note_on_c, 0, 77, 89
1, 101160, Note_on_c, 1, 48, 66
1, 101218, Note_on_c, 0, 77, 0
1, 101220, Note_on_c, 0, 79, 66
1, 101230, Note_on_c, 1, 48, 0
1, 101278, Note_on_c, 0, 79, 0
1, 101280, Note_on_c, 0, 72, 90
1, 101280, Note_on_c, 1, 40, 73
1, 101338, Note_on_c, 0, 72, 0
1, 101350, Note_on_c, 1, 40, 0
1, 101400, Note_on_c, 1, 52, 62
1, 101470, Note_on_c, 1, 52, 0
1, 101520, Note_on_c, 0, 71, 79
1, 101520, Note_on_c, 0, 74, 88
1, 101520, Note_on_c, 1, 43, 67
1, 101578, Note_on_c, 0, 74, 0
1, 101578, Note_on_c, 0, 71, 0
1, 101590, Note_on_c, 1, 43, 0
1, 101640, Note_on_c, 1, 55, 50
1, 101710, Note_on_c, 1, 55, 0
1, 101760, Note_on_c, 0, 74, 91
1, 101760, Note_on_c, 0, 71, 79
1, 101760, Note_on_c, 1, 48, 73
1, 101878, Note_on_c, 1, 48, 0
1, 101880, Note_on_c, 1, 52, 78
1, 101998, Note_on_c, 0, 71, 0
1, 101998, Note_on_c, 0, 74, 0
1, 101998, Note_on_c, 1, 52, 0
1, 102000, Note_on_c, 0, 72, 77
1, 102000, Note_on_c, 0, 77, 58
1, 102000, Note_on_c, 1, 55, 66
1, 102118, Note_on_c, 0, 77, 0
1, 102118, Note_on_c, 1, 55, 0
1, 102120, Note_on_c, 0, 76, 94
1, 102120, Note_on_c, 1, 60, 58
1, 102238, Note_on_c, 0, 72, 0
1, 102238, Note_on_c, 0, 76, 0
1, 102238, Note_on_c, 1, 60, 0
1, 102240, Note_on_c, 0, 74, 73
1, 102240, Note_on_c, 0, 71, 72
1, 102240, Note_on_c, 1, 43, 70
1, 102358, Note_on_c, 1, 43, 0
1, 102360, Note_on_c, 1, 47, 60
1, 102478, Note_on_c, 1, 47, 0
1, 102480, Note_on_c, 1, 50, 66
1, 102598, Note_on_c, 1, 50, 0
1, 102600, Note_on_c, 1, 55, 47
1, 102718, Note_on_c, 0, 71, 0
1, 102718, Note_on_c, 0, 74, 0
1, 102718, Note_on_c, 1, 55, 0
1, 102720, Note_on_c, 0, 76, 95
1, 102720, Note_on_c, 1, 36, 70
1, 102790, Note_on_c, 1, 36, 0
1, 102840, Note_on_c, 1, 40, 74
1, 102910, Note_on_c, 1, 40, 0
1, 102960, Note_on_c, 1, 43, 60
1, 103030, Note_on_c, 1, 43, 0
1, 103078, Note_on_c, 0, 76, 0
1, 103080, Note_on_c, 0, 77, 89
1, 103080, Note_on_c, 1, 48, 57
1, 103138, Note_on_c, 0, 77, 0
1, 103140, Note_on_c, 0, 79, 66
1, 103150, Note_on_c, 1, 48, 0
1, 103198, Note_on_c, 0, 79, 0
1, 103200, Note_on_c, 0, 72, 90
1, 103200, Note_on_c, 1, 40, 74
1, 103258, Note_on_c, 0, 72, 0
1, 103270, Note_on_c, 1, 40, 0
1, 103320, Note_on_c, 1, 52, 39
1, 103390, Note_on_c, 1, 52, 0
1, 103440, Note_on_c, 0, 74, 88
1, 103440, Note_on_c, 0, 71, 79
1, 103440, Note_on_c, 1, 43, 70
1, 103498, Note_on_c, 0, 71, 0
1, 103498, Note_on_c, 0, 74, 0
1, 103510, Note_on_c, 1, 43, 0
1, 103560, Note_on_c, 1, 55, 63
1, 103630, Note_on_c, 1, 55, 0
1, 103680, Note_on_c, 0, 74, 96
1, 103680, Note_on_c, 0, 77, 101
1, 103680, Note_on_c, 1, 48, 68
1, 103798, Note_on_c, 1, 48, 0
1, 103800, Note_on_c, 1, 52, 63
1, 103918, Note_on_c, 0, 77, 0
1, 103918, Note_on_c, 0, 74, 0
1, 103918, Note_on_c, 1, 52, 0
1, 103920, Note_on_c, 0, 76, 89
1, 103920, Note_on_c, 0, 72, 72
1, 103920, Note_on_c, 1, 55, 46
1, 103966, Note_on_c, 0, 72, 0
1, 103966, Note_on_c, 0, 76, 0
1, 103968, Note_on_c, 0, 77, 84
1, 104014, Note_on_c, 0, 77, 0
1, 104016, Note_on_c, 0, 76, 82
1, 104038, Note_on_c, 1, 55, 0
1, 104040, Note_on_c, 1, 60, 46
1, 104062, Note_on_c, 0, 76, 0
1, 104064, Note_on_c, 0, 77, 64
1, 104110, Note_on_c, 0, 77, 0
1, 104112, Note_on_c, 0, 76, 77
1, 104158, Note_on_c, 0, 76, 0
1, 104158, Note_on_c, 1, 60, 0
1, 104160, Note_on_c, 0, 71, 67
1, 104160, Note_on_c, 0, 74, 80
1, 104160, Note_on_c, 1, 43, 62
1, 104278, Note_on_c, 1, 43, 0
1, 104280, Note_on_c, 1, 47, 66
1, 104398, Note_on_c, 1, 47, 0
1, 104400, Note_on_c, 1, 50, 50
1, 104518, Note_on_c, 1, 50, 0
1, 104520, Note_on_c, 1, 55, 38
1, 104638, Note_on_c, 0, 74, 0
1, 104638, Note_on_c, 0, 71, 0
1, 104638, Note_on_c, 1, 55, 0
1, 104640, Note_on_c, 0, 77, 91
1, 104640, Note_on_c, 1, 57, 56
1, 104758, Note_on_c, 1, 57, 0
1, 104760, Note_on_c, 1, 60, 36
1, 104878, Note_on_c, 1, 60, 0
1, 104880, Note_on_c, 1, 57, 66
1, 104998, Note_on_c, 0, 77, 0
1, 104998, Note_on_c, 1, 57, 0
1, 105000, Note_on_c, 0, 79, 79
1, 105000, Note_on_c, 1, 60, 34
1, 105058, Note_on_c, 0, 79, 0
1, 105060, Note_on_c, 0, 77, 86
1, 105118, Note_on_c, 0, 77, 0
1, 105118, Note_on_c, 1, 60, 0
1, 105120, Note_on_c, 0, 76, 89
1, 105120, Note_on_c, 1, 55, 66
1, 105178, Note_on_c, 0, 76, 0
1, 105238, Note_on_c, 1, 55, 0
1, 105240, Note_on_c, 1, 60, 30
1, 105358, Note_on_c, 1, 60, 0
1, 105360, Note_on_c, 0, 76, 69
1, 105360, Note_on_c, 1, 55, 57
1, 105418, Note_on_c, 0, 76, 0
1, 105478, Note_on_c, 1, 55, 0
1, 105480, Note_on_c, 1, 60, 45
1, 105598, Note_on_c, 1, 60, 0
1, 105600, Note_on_c, 0, 81, 86
1, 105600, Note_on_c, 1, 53, 73
1, 105718, Note_on_c, 1, 53, 0
1, 105720, Note_on_c, 1, 60, 41
1, 105838, Note_on_c, 1, 60, 0
1, 105840, Note_on_c, 1, 53, 63
1, 105958, Note_on_c, 0, 81, 0
1, 105958, Note_on_c, 1, 53, 0
1, 105960, Note_on_c, 0, 83, 85
1, 105960, Note_on_c, 1, 60, 34
1, 106018, Note_on_c, 0, 83, 0
1, 106020, Note_on_c, 0, 84, 71
1, 106078, Note_on_c, 0, 84, 0
1, 106078, Note_on_c, 1, 60, 0
1, 106080, Note_on_c, 0, 79, 67
1, 106080, Note_on_c, 1, 52, 61
1, 106138, Note_on_c, 0, 79, 0
1, 106198, Note_on_c, 1, 52, 0
1, 106200, Note_on_c, 1, 60, 41
1, 106318, Note_on_c, 1, 60, 0
1, 106320, Note_on_c, 0, 79, 73
1, 106320, Note_on_c, 1, 52, 70
1, 106378, Note_on_c, 0, 79, 0
1, 106438, Note_on_c, 1, 52, 0
1, 106440, Note_on_c, 1, 60, 51
1, 106558, Note_on_c, 1, 60, 0
1, 106560, Note_on_c, 0, 80, 75
1, 106678, Note_on_c, 0, 80, 0
1, 106680, Note_on_c, 0, 81, 86
1, 106798, Note_on_c, 0, 81, 0
1, 106800, Note_on_c, 0, 77, 73
1, 106800, Note_on_c, 1, 62, 62
1, 106800, Note_on_c, 1, 53, 62
1, 106918, Note_on_c, 0, 77, 0
1, 106918, Note_on_c, 1, 53, 0
1, 106918, Note_on_c, 1, 62, 0
1, 106920, Note_on_c, 0, 74, 74
1, 107038, Note_on_c, 0, 74, 0
1, 107040, Note_on_c, 0, 72, 72
1, 107040, Note_on_c, 1, 64, 61
1, 107040, Note_on_c, 1, 55, 45
1, 107278, Note_on_c, 0, 72, 0
1, 107278, Note_on_c, 1, 64, 0
1, 107280, Note_on_c, 0, 71, 60
1, 107280, Note_on_c, 1, 62, 62
1, 107518, Note_on_c, 0, 71, 0
1, 107518, Note_on_c, 1, 55, 0
1, 107518, Note_on_c, 1, 62, 0
1, 107520, Note_on_c, 0, 72, 60
1, 107520, Note_on_c, 1, 64, 60
1, 107520, Note_on_c, 1, 60, 73
1, 107598, Note_on_c, 0, 72, 0
1, 107600, Note_on_c, 0, 67, 74
1, 107678, Note_on_c, 0, 67, 0
1, 107680, Note_on_c, 0, 76, 70
1, 107758, Note_on_c, 0, 76, 0
1, 107760, Note_on_c, 0, 72, 68
1, 107838, Note_on_c, 0, 72, 0
1, 107840, Note_on_c, 0, 79, 86
1, 107918, Note_on_c, 0, 79, 0
1, 107920, Note_on_c, 0, 76, 86
1, 107998, Note_on_c, 0, 76, 0
1, 107998, Note_on_c, 1, 60, 0
1, 107998, Note_on_c, 1, 64, 0
1, 108000, Note_on_c, 0, 84, 95
1, 108078, Note_on_c, 0, 84, 0
1, 108080, Note_on_c, 0, 83, 74
1, 108158, Note_on_c, 0, 83, 0
1, 108160, Note_on_c, 0, 81, 57
1, 108238, Note_on_c, 0, 81, 0
1, 108240, Note_on_c, 0, 79, 56
1, 108318, Note_on_c, 0, 79, 0
1, 108320, Note_on_c, 0, 77, 41
1, 108398, Note_on_c, 0, 77, 0
1, 108400, Note_on_c, 0, 76, 26
1, 108478, Note_on_c, 0, 76, 0
1, 108480, Note_on_c, 0, 73, 61
1, 108558, Note_on_c, 0, 73, 0
1, 108560, Note_on_c, 0, 74, 72
1, 108638, Note_on_c, 0, 74, 0
1, 108640, Note_on_c, 0, 77, 63
1, 108718, Note_on_c, 0, 77, 0
1, 108720, Note_on_c, 0, 81, 83
1, 108720, Note_on_c, 1, 53, 58
1, 108720, Note_on_c, 1, 62, 63
1, 108720, Note_on_c, 1, 57, 47
1, 108798, Note_on_c, 0, 81, 0
1, 108800, Note_on_c, 0, 77, 38
1, 108862, Note_on_c, 1, 57, 0
1, 108862, Note_on_c, 1, 62, 0
1, 108862, Note_on_c, 1, 53, 0
1, 108878, Note_on_c, 0, 77, 0
1, 108880, Note_on_c, 0, 74, 56
1, 108958, Note_on_c, 0, 74, 0
1, 108960, Note_on_c, 0, 79, 73
1, 108960, Note_on_c, 1, 64, 63
1, 108960, Note_on_c, 1, 60, 60
1, 108960, Note_on_c, 1, 55, 49
1, 109038, Note_on_c, 0, 79, 0
1, 109040, Note_on_c, 0, 76, 56
1, 109118, Note_on_c, 0, 76, 0
1, 109120, Note_on_c, 0, 72, 57
1, 109198, Note_on_c, 0, 72, 0
1, 109198, Note_on_c, 1, 60, 0
1, 109198, Note_on_c, 1, 64, 0
1, 109200, Note_on_c, 0, 77, 73
1, 109200, Note_on_c, 1, 65, 61
1, 109200, Note_on_c, 1, 62, 44
1, 109278, Note_on_c, 0, 77, 0
1, 109280, Note_on_c, 0, 74, 29
1, 109358, Note_on_c, 0, 74, 0
1, 109360, Note_on_c, 0, 71, 49
1, 109438, Note_on_c, 0, 71, 0
1, 109438, Note_on_c, 1, 62, 0
1, 109438, Note_on_c, 1, 55, 0
1, 109438, Note_on_c, 1, 65, 0
1, 109440, Note_on_c, 0, 72, 57
1, 109440, Note_on_c, 1, 60, 67
1, 109440, Note_on_c, 1, 64, 69
1, 109518, Note_on_c, 0, 72, 0
1, 109520, Note_on_c, 0, 67, 60
1, 109598, Note_on_c, 0, 67, 0
1, 109600, Note_on_c, 0, 76, 67
1, 109678, Note_on_c, 0, 76, 0
1, 109680, Note_on_c, 0, 72, 70
1, 109758, Note_on_c, 0, 72, 0
1, 109760, Note_on_c, 0, 79, 73
1, 109838, Note_on_c, 0, 79, 0
1, 109840, Note_on_c, 0, 76, 83
1, 109918, Note_on_c, 0, 76, 0
1, 109918, Note_on_c, 1, 64, 0
1, 109918, Note_on_c, 1, 60, 0
1, 109920, Note_on_c, 0, 84, 92
1, 109998, Note_on_c, 0, 84, 0
1, 110000, Note_on_c, 0, 83, 73
1, 110078, Note_on_c, 0, 83, 0
1, 110080, Note_on_c, 0, 81, 62
1, 110158, Note_on_c, 0, 81, 0
1, 110160, Note_on_c, 0, 79, 63
1, 110238, Note_on_c, 0, 79, 0
1, 110240, Note_on_c, 0, 77, 61
1, 110318, Note_on_c, 0, 77, 0
1, 110320, Note_on_c, 0, 76, 70
1, 110398, Note_on_c, 0, 76, 0
1, 110400, Note_on_c, 0, 73, 70
1, 110478, Note_on_c, 0, 73, 0
1, 110480, Note_on_c, 0, 74, 36
1, 110558, Note_on_c, 0, 74, 0
1, 110560, Note_on_c, 0, 77, 69
1, 110638, Note_on_c, 0, 77, 0
1, 110640, Note_on_c, 0, 81, 80
1, 110640, Note_on_c, 1, 57, 47
1, 110640, Note_on_c, 1, 62, 63
1, 110640, Note_on_c, 1, 53, 58
1, 110718, Note_on_c, 0, 81, 0
1, 110720, Note_on_c, 0, 77, 61
1, 110782, Note_on_c, 1, 53, 0
1, 110782, Note_on_c, 1, 62, 0
1, 110782, Note_on_c, 1, 57, 0
1, 110798, Note_on_c, 0, 77, 0
1, 110800, Note_on_c, 0, 74, 61
1, 110878, Note_on_c, 0, 74, 0
1, 110880, Note_on_c, 0, 79, 74
1, 110880, Note_on_c, 1, 55, 49
1, 110880, Note_on_c, 1, 60, 60
1, 110880, Note_on_c, 1, 64, 63
1, 110958, Note_on_c, 0, 79, 0
1, 110960, Note_on_c, 0, 76, 68
1, 111038, Note_on_c, 0, 76, 0
1, 111040, Note_on_c, 0, 72, 61
1, 111118, Note_on_c, 0, 72, 0
1, 111118, Note_on_c, 1, 64, 0
1, 111118, Note_on_c, 1, 60, 0
1, 111120, Note_on_c, 0, 77, 73
1, 111120, Note_on_c, 1, 62, 44
1, 111120, Note_on_c, 1, 65, 61
1, 111198, Note_on_c, 0, 77, 0
1, 111200, Note_on_c, 0, 74, 68
1, 111278, Note_on_c, 0, 74, 0
1, 111280, Note_on_c, 0, 71, 62
1, 111358, Note_on_c, 0, 71, 0
1, 111358, Note_on_c, 1, 65, 0
1, 111358, Note_on_c, 1, 55, 0
1, 111358, Note_on_c, 1, 62, 0
1, 111360, Note_on_c, 0, 72, 83
1, 111360, Note_on_c, 1, 64, 69
1, 111360, Note_on_c, 1, 60, 79
1, 111438, Note_on_c, 0, 72, 0
1, 111478, Note_on_c, 1, 60, 0
1, 111478, Note_on_c, 1, 64, 0
1, 111600, Note_on_c, 0, 67, 71
1, 111600, Note_on_c, 1, 55, 71
1, 111678, Note_on_c, 0, 67, 0
1, 111718, Note_on_c, 1, 55, 0
1, 111840, Note_on_c, 0, 60, 52
1, 111840, Note_on_c, 1, 48, 55
1, 111840, Note_on_c, 1, 36, 61
1, 112318, Note_on_c, 0, 60, 0
1, 112318, Note_on_c, 1, 36, 0
1, 112318, Note_on_c, 1, 48, 0
1, 112320, Note_on_c, 0, 76, 74
1, 112320, Note_on_c, 1, 60, 36
1, 112438, Note_on_c, 1, 60, 0
1, 112440, Note_on_c, 1, 67, 36
1, 112558, Note_on_c, 1, 67, 0
1, 112560, Note_on_c, 1, 66, 47
1, 112678, Note_on_c, 1, 66, 0
1, 112680, Note_on_c, 1, 67, 37
1, 112798, Note_on_c, 1, 67, 0
1, 112800, Note_on_c, 1, 60, 39
1, 112846, Note_on_c, 0, 76, 0
1, 112848, Note_on_c, 0, 77, 55
1, 112894, Note_on_c, 0, 77, 0
1, 112896, Note_on_c, 0, 76, 62
1, 112918, Note_on_c, 1, 60, 0
1, 112920, Note_on_c, 1, 67, 35
1, 112942, Note_on_c, 0, 76, 0
1, 112944, Note_on_c, 0, 74, 66
1, 112990, Note_on_c, 0, 74, 0
1, 112992, Note_on_c, 0, 76, 69
1, 113038, Note_on_c, 0, 76, 0
1, 113038, Note_on_c, 1, 67, 0
1, 113040, Note_on_c, 0, 79, 68
1, 113040, Note_on_c, 1, 62, 34
1, 113158, Note_on_c, 0, 79, 0
1, 113158, Note_on_c, 1, 62, 0
1, 113160, Note_on_c, 0, 77, 63
1, 113160, Note_on_c, 1, 67, 36
1, 113278, Note_on_c, 0, 77, 0
1, 113278, Note_on_c, 1, 67, 0
1, 113280, Note_on_c, 0, 76, 69
1, 113280, Note_on_c, 1, 64, 38
1, 113398, Note_on_c, 0, 76, 0
1, 113398, Note_on_c, 1, 64, 0
1, 113400, Note_on_c, 0, 74, 75
1, 113400, Note_on_c, 1, 67, 38
1, 113518, Note_on_c, 0, 74, 0
1, 113518, Note_on_c, 1, 67, 0
1, 113520, Note_on_c, 0, 72, 86
1, 113520, Note_on_c, 1, 65, 35
1, 113638, Note_on_c, 0, 72, 0
1, 113638, Note_on_c, 1, 65, 0
1, 113640, Note_on_c, 0, 71, 63
1, 113640, Note_on_c, 1, 67, 50
1, 113758, Note_on_c, 0, 71, 0
1, 113758, Note_on_c, 1, 67, 0
1, 113760, Note_on_c, 0, 72, 73
1, 113760, Note_on_c, 1, 64, 25
1, 113878, Note_on_c, 0, 72, 0
1, 113878, Note_on_c, 1, 64, 0
1, 113880, Note_on_c, 1, 67, 44
1, 113998, Note_on_c, 1, 67, 0
1, 114000, Note_on_c, 0, 73, 67
1, 114000, Note_on_c, 1, 58, 49
1, 114118, Note_on_c, 0, 73, 0
1, 114118, Note_on_c, 1, 58, 0
1, 114120, Note_on_c, 1, 67, 26
1, 114238, Note_on_c, 1, 67, 0
1, 114240, Note_on_c, 0, 74, 86
1, 114240, Note_on_c, 1, 59, 45
1, 114358, Note_on_c, 0, 74, 0
1, 114358, Note_on_c, 1, 59, 0
1, 114360, Note_on_c, 1, 67, 30
1, 114478, Note_on_c, 1, 67, 0
1, 114480, Note_on_c, 0, 75, 74
1, 114480, Note_on_c, 1, 59, 41
1, 114598, Note_on_c, 1, 59, 0
1, 114600, Note_on_c, 1, 67, 38
1, 114718, Note_on_c, 0, 75, 0
1, 114718, Note_on_c, 1, 67, 0
1, 114720, Note_on_c, 0, 76, 86
1, 114720, Note_on_c, 1, 60, 60
1, 114838, Note_on_c, 1, 60, 0
1, 114840, Note_on_c, 1, 67, 45
1, 114958, Note_on_c, 0, 76, 0
1, 114958, Note_on_c, 1, 67, 0
1, 114960, Note_on_c, 0, 79, 70
1, 114960, Note_on_c, 1, 62, 49
1, 115078, Note_on_c, 0, 79, 0
1, 115078, Note_on_c, 1, 62, 0
1, 115080, Note_on_c, 0, 77, 63
1, 115080, Note_on_c, 1, 67, 37
1, 115198, Note_on_c, 0, 77, 0
1, 115198, Note_on_c, 1, 67, 0
1, 115200, Note_on_c, 0, 76, 72
1, 115200, Note_on_c, 1, 60, 55
1, 115318, Note_on_c, 1, 60, 0
1, 115320, Note_on_c, 1, 67, 30
1, 115438, Note_on_c, 1, 67, 0
1, 115440, Note_on_c, 1, 66, 45
1, 115558, Note_on_c, 0, 76, 0
1, 115558, Note_on_c, 1, 66, 0
1, 115560, Note_on_c, 0, 77, 46
1, 115560, Note_on_c, 1, 67, 39
1, 115618, Note_on_c, 0, 77, 0
1, 115620, Note_on_c, 0, 76, 61
1, 115678, Note_on_c, 0, 76, 0
1, 115678, Note_on_c, 1, 67, 0
1, 115680, Note_on_c, 0, 74, 68
1, 115680, Note_on_c, 1, 59, 57
1, 115798, Note_on_c, 0, 74, 0
1, 115798, Note_on_c, 1, 59, 0
1, 115800, Note_on_c, 1, 67, 30
1, 115918, Note_on_c, 1, 67, 0
1, 115920, Note_on_c, 1, 66, 34
1, 116038, Note_on_c, 1, 66, 0
1, 116040, Note_on_c, 1, 67, 35
1, 116158, Note_on_c, 1, 67, 0
1, 116160, Note_on_c, 0, 77, 78
1, 116160, Note_on_c, 1, 59, 31
1, 116278, Note_on_c, 1, 59, 0
1, 116280, Note_on_c, 1, 67, 44
1, 116398, Note_on_c, 1, 67, 0
1, 116400, Note_on_c, 1, 66, 34
1, 116518, Note_on_c, 1, 66, 0
1, 116520, Note_on_c, 1, 67, 29
1, 116638, Note_on_c, 1, 67, 0
1, 116640, Note_on_c, 1, 59, 39
1, 116686, Note_on_c, 0, 77, 0
1, 116688, Note_on_c, 0, 79, 60
1, 116734, Note_on_c, 0, 79, 0
1, 116736, Note_on_c, 0, 77, 67
1, 116758, Note_on_c, 1, 59, 0
1, 116760, Note_on_c, 1, 67, 49
1, 116782, Note_on_c, 0, 77, 0
1, 116784, Note_on_c, 0, 76, 51
1, 116830, Note_on_c, 0, 76, 0
1, 116832, Note_on_c, 0, 77, 63
1, 116878, Note_on_c, 0, 77, 0
1, 116878, Note_on_c, 1, 67, 0
1, 116880, Note_on_c, 0, 81, 66
1, 116880, Note_on_c, 1, 60, 68
1, 116998, Note_on_c, 0, 81, 0
1, 116998, Note_on_c, 1, 60, 0
1, 117000, Note_on_c, 0, 79, 62
1, 117000, Note_on_c, 1, 67, 46
1, 117118, Note_on_c, 0, 79, 0
1, 117118, Note_on_c, 1, 67, 0
1, 117120, Note_on_c, 0, 77, 60
1, 117120, Note_on_c, 1, 62, 60
1, 117238, Note_on_c, 0, 77, 0
1, 117238, Note_on_c, 1, 62, 0
1, 117240, Note_on_c, 0, 76, 63
1, 117240, Note_on_c, 1, 67, 45
1, 117358, Note_on_c, 0, 76, 0
1, 117358, Note_on_c, 1, 67, 0
1, 117360, Note_on_c, 0, 74, 60
1, 117360, Note_on_c, 1, 64, 60
1, 117478, Note_on_c, 0, 74, 0
1, 117478, Note_on_c, 1, 64, 0
1, 117480, Note_on_c, 0, 72, 60
1, 117480, Note_on_c, 1, 67, 46
1, 117598, Note_on_c, 0, 72, 0
1, 117598, Note_on_c, 1, 67, 0
1, 117600, Note_on_c, 0, 71, 63
1, 117600, Note_on_c, 1, 65, 63
1, 117718, Note_on_c, 0, 71, 0
1, 117718, Note_on_c, 1, 65, 0
1, 117720, Note_on_c, 0, 72, 49
1, 117720, Note_on_c, 1, 67, 37
1, 117790, Note_on_c, 0, 72, 0
1, 117838, Note_on_c, 1, 67, 0
1, 117840, Note_on_c, 0, 74, 69
1, 117840, Note_on_c, 1, 62, 61
1, 117910, Note_on_c, 0, 74, 0
1, 117958, Note_on_c, 1, 62, 0
1, 117960, Note_on_c, 0, 76, 61
1, 117960, Note_on_c, 1, 67, 46
1, 118030, Note_on_c, 0, 76, 0
1, 118078, Note_on_c, 1, 67, 0
1, 118080, Note_on_c, 0, 77, 68
1, 118080, Note_on_c, 1, 59, 60
1, 118150, Note_on_c, 0, 77, 0
1, 118198, Note_on_c, 1, 59, 0
1, 118200, Note_on_c, 0, 79, 86
1, 118200, Note_on_c, 1, 67, 50
1, 118270, Note_on_c, 0, 79, 0
1, 118318, Note_on_c, 1, 67, 0
1, 118320, Note_on_c, 0, 81, 95
1, 118320, Note_on_c, 1, 62, 74
1, 118390, Note_on_c, 0, 81, 0
1, 118438, Note_on_c, 1, 62, 0
1, 118440, Note_on_c, 0, 83, 72
1, 118440, Note_on_c, 1, 67, 50
1, 118510, Note_on_c, 0, 83, 0
1, 118558, Note_on_c, 1, 67, 0
1, 118560, Note_on_c, 0, 84, 86
1, 118560, Note_on_c, 1, 59, 69
1, 118630, Note_on_c, 0, 84, 0
1, 118678, Note_on_c, 1, 59, 0
1, 118680, Note_on_c, 0, 86, 78
1, 118680, Note_on_c, 1, 67, 60
1, 118750, Note_on_c, 0, 86, 0
1, 118798, Note_on_c, 1, 67, 0
1, 118800, Note_on_c, 0, 88, 73
1, 118800, Note_on_c, 1, 55, 70
1, 118870, Note_on_c, 0, 88, 0
1, 118918, Note_on_c, 1, 55, 0
1, 118920, Note_on_c, 0, 89, 74
1, 118920, Note_on_c, 1, 67, 63
1, 118990, Note_on_c, 0, 89, 0
1, 119038, Note_on_c, 1, 67, 0
1, 119040, Note_on_c, 0, 87, 73
1, 119040, Note_on_c, 1, 60, 66
1, 119158, Note_on_c, 1, 60, 0
1, 119160, Note_on_c, 1, 67, 50
1, 119278, Note_on_c, 1, 67, 0
1, 119280, Note_on_c, 1, 64, 34
1, 119398, Note_on_c, 1, 64, 0
1, 119400, Note_on_c, 1, 67, 40
1, 119518, Note_on_c, 0, 87, 0
1, 119518, Note_on_c, 1, 67, 0
1, 119520, Note_on_c, 0, 88, 60
1, 119520, Note_on_c, 1, 60, 60
1, 119638, Note_on_c, 1, 60, 0
1, 119640, Note_on_c, 1, 67, 46
1, 119758, Note_on_c, 0, 88, 0
1, 119758, Note_on_c, 1, 67, 0
1, 119760, Note_on_c, 1, 64, 38
1, 119878, Note_on_c, 1, 64, 0
1, 119880, Note_on_c, 1, 67, 38
1, 119998, Note_on_c, 1, 67, 0
1, 120000, Note_on_c, 0, 70, 91
1, 120000, Note_on_c, 1, 48, 77
1, 120080, Note_on_c, 1, 52, 47
1, 120160, Note_on_c, 1, 55, 63
1, 120240, Note_on_c, 1, 60, 73
1, 120318, Note_on_c, 0, 70, 0
1, 120320, Note_on_c, 0, 76, 79
1, 120398, Note_on_c, 0, 76, 0
1, 120400, Note_on_c, 0, 79, 79
1, 120478, Note_on_c, 0, 79, 0
1, 120478, Note_on_c, 1, 60, 0
1, 120478, Note_on_c, 1, 55, 0
1, 120478, Note_on_c, 1, 52, 0
1, 120478, Note_on_c, 1, 48, 0
1, 120480, Note_on_c, 0, 82, 80
1, 120558, Note_on_c, 0, 82, 0
1, 120560, Note_on_c, 0, 79, 62
1, 120638, Note_on_c, 0, 79, 0
1, 120640, Note_on_c, 0, 76, 68
1, 120718, Note_on_c, 0, 76, 0
1, 120720, Note_on_c, 0, 79, 71
1, 120798, Note_on_c, 0, 79, 0
1, 120800, Note_on_c, 0, 76, 73
1, 120878, Note_on_c, 0, 76, 0
1, 120880, Note_on_c, 0, 70, 71
1, 120958, Note_on_c, 0, 70, 0
1, 120960, Note_on_c, 0, 69, 81
1, 120960, Note_on_c, 1, 41, 55
1, 121040, Note_on_c, 1, 45, 60
1, 121120, Note_on_c, 1, 48, 67
1, 121200, Note_on_c, 1, 53, 67
1, 121278, Note_on_c, 0, 69, 0
1, 121280, Note_on_c, 0, 72, 60
1, 121358, Note_on_c, 0, 72, 0
1, 121360, Note_on_c, 0, 77, 69
1, 121438, Note_on_c, 0, 77, 0
1, 121438, Note_on_c, 1, 53, 0
1, 121438, Note_on_c, 1, 48, 0
1, 121438, Note_on_c, 1, 45, 0
1, 121438, Note_on_c, 1, 41, 0
1, 121440, Note_on_c, 0, 81, 79
1, 121518, Note_on_c, 0, 81, 0
1, 121520, Note_on_c, 0, 77, 60
1, 121598, Note_on_c, 0, 77, 0
1, 121600, Note_on_c, 0, 72, 62
1, 121678, Note_on_c, 0, 72, 0
1, 121680, Note_on_c, 0, 77, 52
1, 121758, Note_on_c, 0, 77, 0
1, 121760, Note_on_c, 0, 72, 50
1, 121838, Note_on_c, 0, 72, 0
1, 121840, Note_on_c, 0, 69, 68
1, 121918, Note_on_c, 0, 69, 0
1, 121920, Note_on_c, 0, 67, 85
1, 121920, Note_on_c, 1, 45, 81
1, 122000, Note_on_c, 1, 49, 60
1, 122080, Note_on_c, 1, 52, 60
1, 122160, Note_on_c, 1, 57, 51
1, 122238, Note_on_c, 0, 67, 0
1, 122240, Note_on_c, 0, 73, 56
1, 122318, Note_on_c, 0, 73, 0
1, 122320, Note_on_c, 0, 76, 74
1, 122398, Note_on_c, 0, 76, 0
1, 122398, Note_on_c, 1, 57, 0
1, 122398, Note_on_c, 1, 52, 0
1, 122398, Note_on_c, 1, 49, 0
1, 122398, Note_on_c, 1, 45, 0
1, 122400, Note_on_c, 0, 79, 72
1, 122478, Note_on_c, 0, 79, 0
1, 122480, Note_on_c, 0, 76, 73
1, 122558, Note_on_c, 0, 76, 0
1, 122560, Note_on_c, 0, 73, 52
1, 122638, Note_on_c, 0, 73, 0
1, 122640, Note_on_c, 0, 76, 68
1, 122718, Note_on_c, 0, 76, 0
1, 122720, Note_on_c, 0, 73, 68
1, 122798, Note_on_c, 0, 73, 0
1, 122800, Note_on_c, 0, 67, 50
1, 122878, Note_on_c, 0, 67, 0
1, 122880, Note_on_c, 0, 66, 83
1, 122880, Note_on_c, 1, 50, 86
1, 122960, Note_on_c, 1, 54, 55
1, 123040, Note_on_c, 1, 57, 63
1, 123120, Note_on_c, 1, 62, 68
1, 123198, Note_on_c, 0, 66, 0
1, 123200, Note_on_c, 0, 69, 52
1, 123278, Note_on_c, 0, 69, 0
1, 123280, Note_on_c, 0, 74, 71
1, 123358, Note_on_c, 0, 74, 0
1, 123358, Note_on_c, 1, 57, 0
1, 123358, Note_on_c, 1, 54, 0
1, 123358, Note_on_c, 1, 50, 0
1, 123360, Note_on_c, 0, 78, 103
1, 123438, Note_on_c, 0, 78, 0
1, 123440, Note_on_c, 0, 74, 71
1, 123518, Note_on_c, 0, 74, 0
1, 123520, Note_on_c, 0, 69, 69
1, 123598, Note_on_c, 0, 69, 0
1, 123600, Note_on_c, 0, 74, 73
1, 123678, Note_on_c, 0, 74, 0
1, 123680, Note_on_c, 0, 69, 58
1, 123758, Note_on_c, 0, 69, 0
1, 123760, Note_on_c, 0, 66, 36
1, 123838, Note_on_c, 0, 66, 0
1, 123840, Note_on_c, 0, 65, 79
1, 123840, Note_on_c, 1, 47, 68
1, 123920, Note_on_c, 1, 50, 71
1, 124000, Note_on_c, 1, 55, 62
1, 124080, Note_on_c, 1, 59, 49
1, 124158, Note_on_c, 0, 65, 0
1, 124158, Note_on_c, 1, 59, 0
1, 124160, Note_on_c, 0, 71, 61
1, 124238, Note_on_c, 0, 71, 0
1, 124240, Note_on_c, 0, 74, 74
1, 124318, Note_on_c, 0, 74, 0
1, 124318, Note_on_c, 1, 55, 0
1, 124318, Note_on_c, 1, 50, 0
1, 124318, Note_on_c, 1, 47, 0
1, 124320, Note_on_c, 0, 77, 68
1, 124398, Note_on_c, 0, 77, 0
1, 124400, Note_on_c, 0, 74, 73
1, 124478, Note_on_c, 0, 74, 0
1, 124480, Note_on_c, 0, 71, 60
1, 124558, Note_on_c, 0, 71, 0
1, 124560, Note_on_c, 0, 74, 74
1, 124638, Note_on_c, 0, 74, 0
1, 124640, Note_on_c, 0, 71, 60
1, 124718, Note_on_c, 0, 71, 0
1, 124720, Note_on_c, 0, 65, 71
1, 124798, Note_on_c, 0, 65, 0
1, 124800, Note_on_c, 0, 64, 77
1, 124800, Note_on_c, 1, 48, 71
1, 124880, Note_on_c, 1, 52, 71
1, 124960, Note_on_c, 1, 55, 71
1, 125040, Note_on_c, 1, 60, 72
1, 125118, Note_on_c, 0, 64, 0
1, 125120, Note_on_c, 0, 67, 61
1, 125198, Note_on_c, 0, 67, 0
1, 125198, Note_on_c, 1, 60, 0
1, 125200, Note_on_c, 0, 72, 58
1, 125278, Note_on_c, 0, 72, 0
1, 125278, Note_on_c, 1, 55, 0
1, 125278, Note_on_c, 1, 52, 0
1, 125278, Note_on_c, 1, 48, 0
1, 125280, Note_on_c, 0, 76, 81
1, 125358, Note_on_c, 0, 76, 0
1, 125360, Note_on_c, 0, 72, 81
1, 125438, Note_on_c, 0, 72, 0
1, 125440, Note_on_c, 0, 67, 73
1, 125518, Note_on_c, 0, 67, 0
1, 125520, Note_on_c, 0, 72, 74
1, 125598, Note_on_c, 0, 72, 0
1, 125600, Note_on_c, 0, 67, 60
1, 125678, Note_on_c, 0, 67, 0
1, 125680, Note_on_c, 0, 64, 61
1, 125758, Note_on_c, 0, 64, 0
1, 125760, Note_on_c, 1, 53, 60
1, 125760, Note_on_c, 1, 57, 46
1, 125840, Note_on_c, 0, 62, 60
1, 125918, Note_on_c, 0, 62, 0
1, 125920, Note_on_c, 0, 69, 63
1, 125998, Note_on_c, 0, 69, 0
1, 125998, Note_on_c, 1, 57, 0
1, 125998, Note_on_c, 1, 53, 0
1, 126000, Note_on_c, 0, 74, 68
1, 126078, Note_on_c, 0, 74, 0
1, 126080, Note_on_c, 0, 69, 57
1, 126158, Note_on_c, 0, 69, 0
1, 126160, Note_on_c, 0, 62, 47
1, 126238, Note_on_c, 0, 62, 0
1, 126240, Note_on_c, 1, 57, 57
1, 126240, Note_on_c, 1, 54, 52
1, 126320, Note_on_c, 0, 62, 51
1, 126398, Note_on_c, 0, 62, 0
1, 126400, Note_on_c, 0, 69, 61
1, 126478, Note_on_c, 0, 69, 0
1, 126478, Note_on_c, 1, 54, 0
1, 126478, Note_on_c, 1, 57, 0
1, 126480, Note_on_c, 0, 72, 26
1, 126558, Note_on_c, 0, 72, 0
1, 126560, Note_on_c, 0, 69, 52
1, 126638, Note_on_c, 0, 69, 0
1, 126640, Note_on_c, 0, 62, 36
1, 126718, Note_on_c, 0, 62, 0
1, 126720, Note_on_c, 0, 71, 49
1, 126720, Note_on_c, 1, 55, 67
1, 126790, Note_on_c, 1, 55, 0
1, 126840, Note_on_c, 1, 67, 61
1, 126958, Note_on_c, 1, 67, 0
1, 126960, Note_on_c, 1, 66, 51
1, 127078, Note_on_c, 1, 66, 0
1, 127080, Note_on_c, 1, 67, 36
1, 127198, Note_on_c, 0, 71, 0
1, 127198, Note_on_c, 1, 67, 0
1, 127200, Note_on_c, 1, 66, 51
1, 127318, Note_on_c, 1, 66, 0
1, 127320, Note_on_c, 0, 79, 60
1, 127320, Note_on_c, 1, 67, 29
1, 127378, Note_on_c, 0, 79, 0
1, 127438, Note_on_c, 1, 67, 0
1, 127440, Note_on_c, 0, 81, 69
1, 127440, Note_on_c, 1, 65, 52
1, 127498, Note_on_c, 0, 81, 0
1, 127558, Note_on_c, 1, 65, 0
1, 127560, Note_on_c, 0, 83, 70
1, 127560, Note_on_c, 1, 67, 56
1, 127618, Note_on_c, 0, 83, 0
1, 127678, Note_on_c, 1, 67, 0
1, 127680, Note_on_c, 0, 84, 78
1, 127680, Note_on_c, 1, 64, 70
1, 127798, Note_on_c, 1, 64, 0
1, 127800, Note_on_c, 1, 67, 52
1, 127918, Note_on_c, 1, 67, 0
1, 127920, Note_on_c, 1, 60, 57
1, 128038, Note_on_c, 1, 60, 0
1, 128040, Note_on_c, 1, 67, 28
1, 128158, Note_on_c, 1, 67, 0
1, 128160, Note_on_c, 1, 64, 40
1, 128278, Note_on_c, 0, 84, 0
1, 128278, Note_on_c, 1, 64, 0
1, 128280, Note_on_c, 0, 83, 56
1, 128280, Note_on_c, 1, 67, 40
1, 128398, Note_on_c, 0, 83, 0
1, 128398, Note_on_c, 1, 67, 0
1, 128400, Note_on_c, 0, 81, 57
1, 128400, Note_on_c, 1, 60, 49
1, 128518, Note_on_c, 0, 81, 0
1, 128518, Note_on_c, 1, 60, 0
1, 128520, Note_on_c, 0, 79, 49
1, 128520, Note_on_c, 1, 67, 49
1, 128638, Note_on_c, 0, 79, 0
1, 128638, Note_on_c, 1, 67, 0
1, 128640, Note_on_c, 0, 79, 46
1, 128640, Note_on_c, 1, 62, 56
1, 128758, Note_on_c, 0, 79, 0
1, 128758, Note_on_c, 1, 62, 0
1, 128760, Note_on_c, 0, 77, 47
1, 128760, Note_on_c, 1, 67, 41
1, 128878, Note_on_c, 0, 77, 0
1, 128878, Note_on_c, 1, 67, 0
1, 128880, Note_on_c, 0, 76, 49
1, 128880, Note_on_c, 1, 60, 49
1, 128998, Note_on_c, 0, 76, 0
1, 128998, Note_on_c, 1, 60, 0
1, 129000, Note_on_c, 0, 74, 57
1, 129000, Note_on_c, 1, 67, 26
1, 129118, Note_on_c, 0, 74, 0
1, 129118, Note_on_c, 1, 67, 0
1, 129120, Note_on_c, 0, 79, 67
1, 129120, Note_on_c, 1, 59, 52
1, 129238, Note_on_c, 0, 79, 0
1, 129238, Note_on_c, 1, 59, 0
1, 129240, Note_on_c, 1, 67, 25
1, 129358, Note_on_c, 1, 67, 0
1, 129360, Note_on_c, 0, 77, 70
1, 129360, Note_on_c, 1, 55, 62
1, 129478, Note_on_c, 0, 77, 0
1, 129478, Note_on_c, 1, 55, 0
1, 129480, Note_on_c, 1, 67, 30
1, 129598, Note_on_c, 1, 67, 0
1, 129600, Note_on_c, 0, 75, 63
1, 129600, Note_on_c, 1, 60, 46
1, 129718, Note_on_c, 1, 60, 0
1, 129720, Note_on_c, 1, 67, 46
1, 129838, Note_on_c, 0, 75, 0
1, 129838, Note_on_c, 1, 67, 0
1, 129840, Note_on_c, 0, 76, 50
1, 129840, Note_on_c, 1, 66, 38
1, 129958, Note_on_c, 0, 76, 0
1, 129958, Note_on_c, 1, 66, 0
1, 129960, Note_on_c, 1, 67, 57
1, 130078, Note_on_c, 1, 67, 0
1, 130080, Note_on_c, 1, 66, 70
1, 130198, Note_on_c, 1, 66, 0
1, 130200, Note_on_c, 1, 67, 70
1, 130318, Note_on_c, 1, 67, 0
1, 130320, Note_on_c, 1, 69, 68
1, 130438, Note_on_c, 1, 69, 0
1, 130440, Note_on_c, 1, 67, 70
1, 130558, Note_on_c, 1, 67, 0
1, 130560, Note_on_c, 1, 65, 67
1, 130678, Note_on_c, 1, 65, 0
1, 130680, Note_on_c, 1, 67, 70
1, 130798, Note_on_c, 1, 67, 0
1, 130800, Note_on_c, 1, 64, 60
1, 130918, Note_on_c, 1, 64, 0
1, 130920, Note_on_c, 0, 79, 74
1, 130920, Note_on_c, 1, 67, 58
1, 130978, Note_on_c, 0, 79, 0
1, 131038, Note_on_c, 1, 67, 0
1, 131040, Note_on_c, 0, 80, 70
1, 131040, Note_on_c, 1, 65, 31
1, 131098, Note_on_c, 0, 80, 0
1, 131158, Note_on_c, 1, 65, 0
1, 131160, Note_on_c, 0, 81, 70
1, 131160, Note_on_c, 1, 67, 60
1, 131218, Note_on_c, 0, 81, 0
1, 131278, Note_on_c, 1, 67, 0
1, 131280, Note_on_c, 0, 82, 78
1, 131280, Note_on_c, 1, 62, 46
1, 131338, Note_on_c, 0, 82, 0
1, 131398, Note_on_c, 1, 62, 0
1, 131400, Note_on_c, 0, 83, 70
1, 131400, Note_on_c, 1, 67, 49
1, 131458, Note_on_c, 0, 83, 0
1, 131518, Note_on_c, 1, 67, 0
1, 131520, Note_on_c, 0, 84, 58
1, 131520, Note_on_c, 1, 64, 30
1, 131638, Note_on_c, 1, 64, 0
1, 131640, Note_on_c, 1, 67, 44
1, 131758, Note_on_c, 1, 67, 0
1, 131760, Note_on_c, 1, 60, 56
1, 131878, Note_on_c, 1, 60, 0
1, 131880, Note_on_c, 1, 67, 34
1, 131998, Note_on_c, 1, 67, 0
1, 132000, Note_on_c, 1, 64, 30
1, 132118, Note_on_c, 0, 84, 0
1, 132118, Note_on_c, 1, 64, 0
1, 132120, Note_on_c, 0, 83, 36
1, 132120, Note_on_c, 1, 67, 28
1, 132238, Note_on_c, 0, 83, 0
1, 132238, Note_on_c, 1, 67, 0
1, 132240, Note_on_c, 0, 81, 41
1, 132240, Note_on_c, 1, 60, 45
1, 132358, Note_on_c, 0, 81, 0
1, 132358, Note_on_c, 1, 60, 0
1, 132360, Note_on_c, 0, 79, 38
1, 132360, Note_on_c, 1, 67, 37
1, 132478, Note_on_c, 0, 79, 0
1, 132478, Note_on_c, 1, 67, 0
1, 132480, Note_on_c, 0, 79, 58
1, 132480, Note_on_c, 1, 62, 29
1, 132598, Note_on_c, 0, 79, 0
1, 132598, Note_on_c, 1, 62, 0
1, 132600, Note_on_c, 0, 77, 57
1, 132600, Note_on_c, 1, 67, 28
1, 132718, Note_on_c, 0, 77, 0
1, 132718, Note_on_c, 1, 67, 0
1, 132720, Note_on_c, 0, 76, 33
1, 132720, Note_on_c, 1, 60, 23
1, 132838, Note_on_c, 0, 76, 0
1, 132838, Note_on_c, 1, 60, 0
1, 132840, Note_on_c, 0, 74, 58
1, 132840, Note_on_c, 1, 67, 46
1, 132958, Note_on_c, 0, 74, 0
1, 132958, Note_on_c, 1, 67, 0
1, 132960, Note_on_c, 0, 79, 49
1, 132960, Note_on_c, 1, 59, 49
1, 133078, Note_on_c, 0, 79, 0
1, 133078, Note_on_c, 1, 59, 0
1, 133080, Note_on_c, 1, 67, 27
1, 133198, Note_on_c, 1, 67, 0
1, 133200, Note_on_c, 0, 77, 60
1, 133200, Note_on_c, 1, 55, 47
1, 133318, Note_on_c, 0, 77, 0
1, 133318, Note_on_c, 1, 55, 0
1, 133320, Note_on_c, 1, 67, 33
1, 133438, Note_on_c, 1, 67, 0
1, 133440, Note_on_c, 0, 76, 50
1, 133440, Note_on_c, 1, 60, 57
1, 133558, Note_on_c, 0, 76, 0
1, 133558, Note_on_c, 1, 60, 0
1, 133560, Note_on_c, 1, 67, 40
1, 133678, Note_on_c, 1, 67, 0
1, 133680, Note_on_c, 1, 64, 11
1, 133798, Note_on_c, 1, 64, 0
1, 133800, Note_on_c, 0, 83, 73
1, 133800, Note_on_c, 1, 67, 33
1, 133838, Note_on_c, 0, 83, 0
1, 133840, Note_on_c, 0, 81, 68
1, 133878, Note_on_c, 0, 81, 0
1, 133880, Note_on_c, 0, 80, 72
1, 133918, Note_on_c, 0, 80, 0
1, 133918, Note_on_c, 1, 67, 0
1, 133920, Note_on_c, 0, 81, 80
1, 133920, Note_on_c, 1, 60, 36
1, 134038, Note_on_c, 0, 81, 0
1, 134040, Note_on_c, 0, 83, 72
1, 134040, Note_on_c, 1, 69, 46
1, 134158, Note_on_c, 0, 83, 0
1, 134158, Note_on_c, 1, 69, 0
1, 134160, Note_on_c, 0, 84, 81
1, 134160, Note_on_c, 1, 65, 41
1, 134218, Note_on_c, 0, 84, 0
1, 134278, Note_on_c, 1, 65, 0
1, 134280, Note_on_c, 0, 84, 85
1, 134280, Note_on_c, 1, 69, 34
1, 134338, Note_on_c, 0, 84, 0
1, 134398, Note_on_c, 1, 60, 0
1, 134398, Note_on_c, 1, 69, 0
1, 134400, Note_on_c, 0, 84, 79
1, 134400, Note_on_c, 1, 60, 45
1, 134520, Note_on_c, 1, 67, 57
1, 134638, Note_on_c, 1, 67, 0
1, 134640, Note_on_c, 1, 64, 36
1, 134758, Note_on_c, 1, 64, 0
1, 134760, Note_on_c, 0, 88, 77
1, 134760, Note_on_c, 1, 67, 41
1, 134798, Note_on_c, 0, 88, 0
1, 134800, Note_on_c, 0, 86, 73
1, 134838, Note_on_c, 0, 86, 0
1, 134840, Note_on_c, 0, 84, 81
1, 134878, Note_on_c, 0, 84, 0
1, 134878, Note_on_c, 0, 84, 0
1, 134878, Note_on_c, 1, 60, 0
1, 134878, Note_on_c, 1, 67, 0
1, 134880, Note_on_c, 0, 86, 72
1, 134880, Note_on_c, 1, 58, 57
1, 134998, Note_on_c, 0, 86, 0
1, 135000, Note_on_c, 0, 88, 81
1, 135000, Note_on_c, 1, 65, 30
1, 135118, Note_on_c, 0, 88, 0
1, 135118, Note_on_c, 1, 65, 0
1, 135120, Note_on_c, 0, 89, 85
1, 135120, Note_on_c, 1, 62, 25
1, 135178, Note_on_c, 0, 89, 0
1, 135238, Note_on_c, 1, 62, 0
1, 135240, Note_on_c, 0, 89, 86
1, 135240, Note_on_c, 1, 65, 41
1, 135298, Note_on_c, 0, 89, 0
1, 135358, Note_on_c, 1, 58, 0
1, 135358, Note_on_c, 1, 65, 0
1, 135360, Note_on_c, 0, 89, 84
1, 135360, Note_on_c, 1, 57, 63
1, 135480, Note_on_c, 1, 65, 52
1, 135598, Note_on_c, 1, 65, 0
1, 135600, Note_on_c, 1, 60, 29
1, 135718, Note_on_c, 1, 60, 0
1, 135720, Note_on_c, 0, 79, 81
1, 135720, Note_on_c, 1, 65, 40
1, 135758, Note_on_c, 0, 79, 0
1, 135760, Note_on_c, 0, 77, 63
1, 135798, Note_on_c, 0, 77, 0
1, 135800, Note_on_c, 0, 76, 61
1, 135838, Note_on_c, 0, 89, 0
1, 135838, Note_on_c, 0, 76, 0
1, 135838, Note_on_c, 1, 57, 0
1, 135838, Note_on_c, 1, 65, 0
1, 135840, Note_on_c, 0, 77, 81
1, 135840, Note_on_c, 1, 53, 51
1, 135958, Note_on_c, 0, 77, 0
1, 135960, Note_on_c, 0, 79, 86
1, 135960, Note_on_c, 1, 62, 58
1, 136078, Note_on_c, 0, 79, 0
1, 136078, Note_on_c, 1, 62, 0
1, 136080, Note_on_c, 0, 81, 85
1, 136080, Note_on_c, 1, 57, 46
1, 136138, Note_on_c, 0, 81, 0
1, 136198, Note_on_c, 1, 57, 0
1, 136200, Note_on_c, 0, 81, 83
1, 136200, Note_on_c, 1, 62, 14
1, 136258, Note_on_c, 0, 81, 0
1, 136318, Note_on_c, 1, 53, 0
1, 136318, Note_on_c, 1, 62, 0
1, 136320, Note_on_c, 0, 81, 84
1, 136320, Note_on_c, 1, 55, 60
1, 136438, Note_on_c, 0, 81, 0
1, 136440, Note_on_c, 0, 79, 81
1, 136440, Note_on_c, 1, 64, 28
1, 136558, Note_on_c, 0, 79, 0
1, 136558, Note_on_c, 1, 64, 0
1, 136560, Note_on_c, 0, 77, 79
1, 136560, Note_on_c, 1, 60, 36
1, 136618, Note_on_c, 0, 77, 0
1, 136678, Note_on_c, 1, 60, 0
1, 136680, Note_on_c, 0, 76, 81
1, 136680, Note_on_c, 1, 64, 30
1, 136738, Note_on_c, 0, 76, 0
1, 136798, Note_on_c, 1, 55, 0
1, 136798, Note_on_c, 1, 64, 0
1, 136800, Note_on_c, 0, 74, 81
1, 136800, Note_on_c, 1, 55, 52
1, 136918, Note_on_c, 0, 74, 0
1, 136920, Note_on_c, 1, 65, 52
1, 137038, Note_on_c, 1, 65, 0
1, 137040, Note_on_c, 0, 79, 84
1, 137040, Note_on_c, 1, 59, 45
1, 137158, Note_on_c, 0, 79, 0
1, 137158, Note_on_c, 1, 59, 0
1, 137160, Note_on_c, 1, 65, 57
1, 137278, Note_on_c, 1, 55, 0
1, 137278, Note_on_c, 1, 65, 0
1, 137280, Note_on_c, 0, 77, 81
1, 137280, Note_on_c, 1, 48, 66
1, 137398, Note_on_c, 1, 48, 0
1, 137400, Note_on_c, 1, 55, 41
1, 137518, Note_on_c, 0, 77, 0
1, 137518, Note_on_c, 1, 55, 0
1, 137520, Note_on_c, 0, 76, 71
1, 137520, Note_on_c, 1, 52, 50
1, 137590, Note_on_c, 0, 76, 0
1, 137638, Note_on_c, 1, 52, 0
1, 137640, Note_on_c, 0, 71, 73
1, 137640, Note_on_c, 1, 55, 35
1, 137678, Note_on_c, 0, 71, 0
1, 137680, Note_on_c, 0, 69, 68
1, 137718, Note_on_c, 0, 69, 0
1, 137720, Note_on_c, 0, 68, 72
1, 137758, Note_on_c, 0, 68, 0
1, 137758, Note_on_c, 1, 55, 0
1, 137760, Note_on_c, 0, 69, 80
1, 137760, Note_on_c, 1, 48, 57
1, 137878, Note_on_c, 0, 69, 0
1, 137880, Note_on_c, 0, 71, 72
1, 137880, Note_on_c, 1, 57, 58
1, 137998, Note_on_c, 0, 71, 0
1, 137998, Note_on_c, 1, 57, 0
1, 138000, Note_on_c, 0, 72, 81
1, 138000, Note_on_c, 1, 53, 44
1, 138058, Note_on_c, 0, 72, 0
1, 138118, Note_on_c, 1, 53, 0
1, 138120, Note_on_c, 0, 72, 85
1, 138120, Note_on_c, 1, 57, 57
1, 138178, Note_on_c, 0, 72, 0
1, 138238, Note_on_c, 1, 48, 0
1, 138238, Note_on_c, 1, 57, 0
1, 138240, Note_on_c, 0, 72, 79
1, 138240, Note_on_c, 1, 48, 60
1, 138360, Note_on_c, 1, 55, 49
1, 138478, Note_on_c, 1, 55, 0
1, 138480, Note_on_c, 1, 52, 15
1, 138598, Note_on_c, 1, 52, 0
1, 138600, Note_on_c, 0, 76, 77
1, 138600, Note_on_c, 1, 55, 60
1, 138638, Note_on_c, 0, 76, 0
1, 138640, Note_on_c, 0, 74, 73
1, 138678, Note_on_c, 0, 74, 0
1, 138680, Note_on_c, 0, 72, 81
1, 138718, Note_on_c, 0, 72, 0
1, 138718, Note_on_c, 0, 72, 0
1, 138718, Note_on_c, 1, 48, 0
1, 138718, Note_on_c, 1, 55, 0
1, 138720, Note_on_c, 0, 74, 72
1, 138720, Note_on_c, 1, 46, 56
1, 138838, Note_on_c, 0, 74, 0
1, 138840, Note_on_c, 0, 76, 81
1, 138840, Note_on_c, 1, 53, 46
1, 138958, Note_on_c, 0, 76, 0
1, 138958, Note_on_c, 1, 53, 0
1, 138960, Note_on_c, 0, 77, 85
1, 138960, Note_on_c, 1, 50, 44
1, 139018, Note_on_c, 0, 77, 0
1, 139078, Note_on_c, 1, 50, 0
1, 139080, Note_on_c, 0, 77, 86
1, 139080, Note_on_c, 1, 53, 38
1, 139138, Note_on_c, 0, 77, 0
1, 139198, Note_on_c, 1, 46, 0
1, 139198, Note_on_c, 1, 53, 0
1, 139200, Note_on_c, 0, 77, 84
1, 139200, Note_on_c, 1, 45, 45
1, 139320, Note_on_c, 1, 53, 46
1, 139438, Note_on_c, 1, 53, 0
1, 139440, Note_on_c, 1, 48, 69
1, 139558, Note_on_c, 1, 48, 0
1, 139560, Note_on_c, 0, 79, 81
1, 139560, Note_on_c, 1, 53, 49
1, 139598, Note_on_c, 0, 79, 0
1, 139600, Note_on_c, 0, 77, 63
1, 139638, Note_on_c, 0, 77, 0
1, 139640, Note_on_c, 0, 76, 61
1, 139678, Note_on_c, 0, 77, 0
1, 139678, Note_on_c, 0, 76, 0
1, 139678, Note_on_c, 1, 45, 0
1, 139678, Note_on_c, 1, 53, 0
1, 139680, Note_on_c, 0, 77, 81
1, 139680, Note_on_c, 1, 41, 46
1, 139798, Note_on_c, 0, 77, 0
1, 139800, Note_on_c, 0, 79, 86
1, 139800, Note_on_c, 1, 50, 50
1, 139918, Note_on_c, 0, 79, 0
1, 139918, Note_on_c, 1, 50, 0
1, 139920, Note_on_c, 0, 81, 85
1, 139920, Note_on_c, 1, 45, 50
1, 139978, Note_on_c, 0, 81, 0
1, 140038, Note_on_c, 1, 45, 0
1, 140040, Note_on_c, 0, 81, 83
1, 140040, Note_on_c, 1, 50, 47
1, 140098, Note_on_c, 0, 81, 0
1, 140158, Note_on_c, 1, 41, 0
1, 140158, Note_on_c, 1, 50, 0
1, 140160, Note_on_c, 0, 81, 84
1, 140160, Note_on_c, 1, 43, 68
1, 140278, Note_on_c, 0, 81, 0
1, 140280, Note_on_c, 0, 79, 81
1, 140280, Note_on_c, 1, 52, 57
1, 140398, Note_on_c, 0, 79, 0
1, 140398, Note_on_c, 1, 52, 0
1, 140400, Note_on_c, 0, 77, 79
1, 140400, Note_on_c, 1, 48, 66
1, 140458, Note_on_c, 0, 77, 0
1, 140518, Note_on_c, 1, 48, 0
1, 140520, Note_on_c, 0, 76, 81
1, 140520, Note_on_c, 1, 52, 39
1, 140578, Note_on_c, 0, 76, 0
1, 140638, Note_on_c, 1, 43, 0
1, 140638, Note_on_c, 1, 52, 0
1, 140640, Note_on_c, 0, 76, 85
1, 140640, Note_on_c, 1, 43, 60
1, 140758, Note_on_c, 0, 76, 0
1, 140760, Note_on_c, 0, 74, 78
1, 140760, Note_on_c, 1, 53, 38
1, 140878, Note_on_c, 0, 74, 0
1, 140878, Note_on_c, 1, 53, 0
1, 140880, Note_on_c, 0, 72, 81
1, 140880, Note_on_c, 1, 50, 60
1, 140938, Note_on_c, 0, 72, 0
1, 140998, Note_on_c, 1, 43, 0
1, 140998, Note_on_c, 1, 50, 0
1, 141000, Note_on_c, 0, 71, 67
1, 141000, Note_on_c, 1, 53, 46
1, 141058, Note_on_c, 0, 71, 0
1, 141118, Note_on_c, 1, 53, 0
1, 141120, Note_on_c, 0, 79, 80
1, 141360, Note_on_c, 1, 52, 55
1, 141360, Note_on_c, 1, 48, 58
1, 141438, Note_on_c, 0, 79, 0
1, 141440, Note_on_c, 0, 76, 61
1, 141518, Note_on_c, 0, 76, 0
1, 141520, Note_on_c, 0, 72, 57
1, 141598, Note_on_c, 0, 72, 0
1, 141598, Note_on_c, 1, 48, 0
1, 141598, Note_on_c, 1, 52, 0
1, 141600, Note_on_c, 0, 71, 72
1, 141600, Note_on_c, 1, 50, 63
1, 141600, Note_on_c, 1, 53, 58
1, 141678, Note_on_c, 0, 71, 0
1, 141680, Note_on_c, 0, 74, 51
1, 141758, Note_on_c, 0, 74, 0
1, 141760, Note_on_c, 0, 67, 12
1, 141838, Note_on_c, 0, 67, 0
1, 141838, Note_on_c, 1, 53, 0
1, 141838, Note_on_c, 1, 50, 0
1, 141840, Note_on_c, 0, 72, 63
1, 141840, Note_on_c, 1, 55, 62
1, 141840, Note_on_c, 1, 52, 62
1, 141918, Note_on_c, 0, 72, 0
1, 141920, Note_on_c, 0, 76, 40
1, 141998, Note_on_c, 0, 76, 0
1, 142000, Note_on_c, 0, 67, 46
1, 142078, Note_on_c, 0, 67, 0
1, 142078, Note_on_c, 1, 52, 0
1, 142078, Note_on_c, 1, 55, 0
1, 142080, Note_on_c, 0, 74, 63
1, 142320, Note_on_c, 1, 47, 34
1, 142320, Note_on_c, 1, 43, 44
1, 142398, Note_on_c, 0, 74, 0
1, 142400, Note_on_c, 0, 71, 29
1, 142478, Note_on_c, 0, 71, 0
1, 142480, Note_on_c, 0, 67, 58
1, 142558, Note_on_c, 0, 67, 0
1, 142558, Note_on_c, 1, 43, 0
1, 142558, Note_on_c, 1, 47, 0
1, 142560, Note_on_c, 0, 66, 57
1, 142560, Note_on_c, 1, 45, 56
1, 142560, Note_on_c, 1, 48, 57
1, 142638, Note_on_c, 0, 66, 0
1, 142640, Note_on_c, 0, 67, 56
1, 142718, Note_on_c, 0, 67, 0
1, 142720, Note_on_c, 0, 62, 24
1, 142798, Note_on_c, 0, 62, 0
1, 142798, Note_on_c, 1, 48, 0
1, 142798, Note_on_c, 1, 45, 0
1, 142800, Note_on_c, 0, 65, 62
1, 142800, Note_on_c, 1, 50, 50
1, 142800, Note_on_c, 1, 47, 55
1, 142878, Note_on_c, 0, 65, 0
1, 142880, Note_on_c, 0, 67, 58
1, 142958, Note_on_c, 0, 67, 0
1, 142960, Note_on_c, 0, 62, 56
1, 143038, Note_on_c, 0, 62, 0
1, 143038, Note_on_c, 1, 47, 0
1, 143038, Note_on_c, 1, 50, 0
1, 143040, Note_on_c, 0, 79, 79
1, 143280, Note_on_c, 1, 52, 61
1, 143280, Note_on_c, 1, 48, 62
1, 143358, Note_on_c, 0, 79, 0
1, 143360, Note_on_c, 0, 76, 61
1, 143438, Note_on_c, 0, 76, 0
1, 143440, Note_on_c, 0, 72, 56
1, 143518, Note_on_c, 0, 72, 0
1, 143518, Note_on_c, 1, 48, 0
1, 143518, Note_on_c, 1, 52, 0
1, 143520, Note_on_c, 0, 71, 63
1, 143520, Note_on_c, 1, 53, 69
1, 143520, Note_on_c, 1, 50, 72
1, 143598, Note_on_c, 0, 71, 0
1, 143600, Note_on_c, 0, 74, 57
1, 143678, Note_on_c, 0, 74, 0
1, 143680, Note_on_c, 0, 67, 72
1, 143758, Note_on_c, 0, 67, 0
1, 143758, Note_on_c, 1, 50, 0
1, 143758, Note_on_c, 1, 53, 0
1, 143760, Note_on_c, 0, 72, 63
1, 143760, Note_on_c, 1, 55, 57
1, 143760, Note_on_c, 1, 52, 60
1, 143838, Note_on_c, 0, 72, 0
1, 143840, Note_on_c, 0, 76, 50
1, 143918, Note_on_c, 0, 76, 0
1, 143920, Note_on_c, 0, 67, 60
1, 143998, Note_on_c, 0, 67, 0
1, 143998, Note_on_c, 1, 52, 0
1, 143998, Note_on_c, 1, 55, 0
1, 144000, Note_on_c, 0, 74, 61
1, 144240, Note_on_c, 1, 47, 31
1, 144240, Note_on_c, 1, 43, 34
1, 144318, Note_on_c, 0, 74, 0
1, 144320, Note_on_c, 0, 71, 41
1, 144398, Note_on_c, 0, 71, 0
1, 144400, Note_on_c, 0, 67, 33
1, 144478, Note_on_c, 0, 67, 0
1, 144478, Note_on_c, 1, 43, 0
1, 144478, Note_on_c, 1, 47, 0
1, 144480, Note_on_c, 0, 66, 49
1, 144480, Note_on_c, 1, 45, 51
1, 144480, Note_on_c, 1, 48, 58
1, 144558, Note_on_c, 0, 66, 0
1, 144560, Note_on_c, 0, 67, 60
1, 144638, Note_on_c, 0, 67, 0
1, 144640, Note_on_c, 0, 62, 47
1, 144718, Note_on_c, 0, 62, 0
1, 144718, Note_on_c, 1, 48, 0
1, 144718, Note_on_c, 1, 45, 0
1, 144720, Note_on_c, 0, 65, 58
1, 144720, Note_on_c, 1, 50, 47
1, 144720, Note_on_c, 1, 47, 55
1, 144798, Note_on_c, 0, 65, 0
1, 144800, Note_on_c, 0, 67, 63
1, 144878, Note_on_c, 0, 67, 0
1, 144880, Note_on_c, 0, 62, 52
1, 144958, Note_on_c, 0, 62, 0
1, 144958, Note_on_c, 1, 47, 0
1, 144958, Note_on_c, 1, 50, 0
1, 144960, Note_on_c, 0, 64, 52
1, 144960, Note_on_c, 1, 48, 60
1, 145038, Note_on_c, 0, 64, 0
1, 145040, Note_on_c, 0, 60, 57
1, 145118, Note_on_c, 0, 60, 0
1, 145120, Note_on_c, 0, 64, 47
1, 145198, Note_on_c, 0, 64, 0
1, 145200, Note_on_c, 0, 67, 70
1, 145278, Note_on_c, 0, 67, 0
1, 145280, Note_on_c, 0, 64, 67
1, 145358, Note_on_c, 0, 64, 0
1, 145360, Note_on_c, 0, 67, 74
1, 145438, Note_on_c, 0, 67, 0
1, 145438, Note_on_c, 1, 48, 0
1, 145440, Note_on_c, 0, 72, 70
1, 145518, Note_on_c, 0, 72, 0
1, 145520, Note_on_c, 0, 67, 70
1, 145598, Note_on_c, 0, 67, 0
1, 145600, Note_on_c, 0, 72, 74
1, 145678, Note_on_c, 0, 72, 0
1, 145680, Note_on_c, 0, 76, 83
1, 145758, Note_on_c, 0, 76, 0
1, 145760, Note_on_c, 0, 72, 72
1, 145838, Note_on_c, 0, 72, 0
1, 145840, Note_on_c, 0, 76, 83
1, 145918, Note_on_c, 0, 76, 0
1, 145920, Note_on_c, 0, 79, 67
1, 145920, Note_on_c, 1, 55, 46
1, 145920, Note_on_c, 1, 52, 57
1, 145920, Note_on_c, 1, 60, 46
1, 145998, Note_on_c, 0, 79, 0
1, 146000, Note_on_c, 0, 76, 70
1, 146078, Note_on_c, 0, 76, 0
1, 146080, Note_on_c, 0, 79, 69
1, 146158, Note_on_c, 0, 79, 0
1, 146160, Note_on_c, 0, 82, 92
1, 146238, Note_on_c, 0, 82, 0
1, 146240, Note_on_c, 0, 79, 74
1, 146318, Note_on_c, 0, 79, 0
1, 146320, Note_on_c, 0, 76, 57
1, 146398, Note_on_c, 0, 76, 0
1, 146400, Note_on_c, 0, 72, 66
1, 146478, Note_on_c, 0, 72, 0
1, 146480, Note_on_c, 0, 70, 74
1, 146558, Note_on_c, 0, 70, 0
1, 146560, Note_on_c, 0, 67, 63
1, 146638, Note_on_c, 0, 67, 0
1, 146638, Note_on_c, 1, 55, 0
1, 146640, Note_on_c, 0, 64, 72
1, 146640, Note_on_c, 1, 58, 44
1, 146718, Note_on_c, 0, 64, 0
1, 146720, Note_on_c, 0, 60, 57
1, 146798, Note_on_c, 0, 60, 0
1, 146800, Note_on_c, 0, 58, 70
1, 146878, Note_on_c, 0, 58, 0
1, 146878, Note_on_c, 1, 52, 0
1, 146878, Note_on_c, 1, 60, 0
1, 146878, Note_on_c, 1, 58, 0
1, 146880, Note_on_c, 0, 57, 61
1, 146880, Note_on_c, 1, 57, 51
1, 146880, Note_on_c, 1, 53, 49
1, 146880, Note_on_c, 1, 60, 60
1, 146958, Note_on_c, 0, 57, 0
1, 147000, Note_on_c, 0, 81, 51
1, 147118, Note_on_c, 0, 81, 0
1, 147120, Note_on_c, 0, 80, 60
1, 147238, Note_on_c, 0, 80, 0
1, 147240, Note_on_c, 0, 81, 62
1, 147358, Note_on_c, 0, 81, 0
1, 147358, Note_on_c, 1, 60, 0
1, 147358, Note_on_c, 1, 53, 0
1, 147358, Note_on_c, 1, 57, 0
1, 147360, Note_on_c, 0, 80, 69
1, 147478, Note_on_c, 0, 80, 0
1, 147480, Note_on_c, 0, 81, 66
1, 147598, Note_on_c, 0, 81, 0
1, 147600, Note_on_c, 0, 80, 69
1, 147718, Note_on_c, 0, 80, 0
1, 147720, Note_on_c, 0, 81, 62
1, 147838, Note_on_c, 0, 81, 0
1, 147840, Note_on_c, 0, 72, 61
1, 148080, Note_on_c, 1, 63, 57
1, 148080, Note_on_c, 1, 54, 49
1, 148318, Note_on_c, 1, 54, 0
1, 148318, Note_on_c, 1, 63, 0
1, 148320, Note_on_c, 1, 64, 67
1, 148320, Note_on_c, 1, 55, 49
1, 148558, Note_on_c, 0, 72, 0
1, 148558, Note_on_c, 1, 64, 0
1, 148560, Note_on_c, 0, 71, 46
1, 148560, Note_on_c, 0, 76, 60
1, 148560, Note_on_c, 1, 65, 52
1, 148678, Note_on_c, 0, 76, 0
1, 148680, Note_on_c, 0, 74, 63
1, 148798, Note_on_c, 0, 71, 0
1, 148798, Note_on_c, 0, 74, 0
1, 148798, Note_on_c, 1, 55, 0
1, 148798, Note_on_c, 1, 65, 0
1, 148800, Note_on_c, 0, 72, 72
1, 148800, Note_on_c, 1, 60, 45
1, 148800, Note_on_c, 1, 64, 47
1, 148878, Note_on_c, 0, 72, 0
1, 148880, Note_on_c, 0, 67, 56
1, 148958, Note_on_c, 0, 67, 0
1, 148960, Note_on_c, 0, 72, 69
1, 149038, Note_on_c, 0, 72, 0
1, 149040, Note_on_c, 0, 76, 69
1, 149118, Note_on_c, 0, 76, 0
1, 149120, Note_on_c, 0, 72, 49
1, 149198, Note_on_c, 0, 72, 0
1, 149200, Note_on_c, 0, 76, 78
1, 149278, Note_on_c, 0, 76, 0
1, 149278, Note_on_c, 1, 64, 0
1, 149278, Note_on_c, 1, 60, 0
1, 149280, Note_on_c, 0, 79, 72
1, 149358, Note_on_c, 0, 79, 0
1, 149360, Note_on_c, 0, 76, 72
1, 149438, Note_on_c, 0, 76, 0
1, 149440, Note_on_c, 0, 79, 68
1, 149518, Note_on_c, 0, 79, 0
1, 149520, Note_on_c, 0, 84, 90
1, 149598, Note_on_c, 0, 84, 0
1, 149600, Note_on_c, 0, 86, 78
1, 149678, Note_on_c, 0, 86, 0
1, 149680, Note_on_c, 0, 84, 73
1, 149758, Note_on_c, 0, 84, 0
1, 149760, Note_on_c, 0, 82, 63
1, 149760, Note_on_c, 1, 60, 46
1, 149760, Note_on_c, 1, 52, 57
1, 149760, Note_on_c, 1, 55, 46
1, 149838, Note_on_c, 0, 82, 0
1, 149840, Note_on_c, 0, 81, 60
1, 149918, Note_on_c, 0, 81, 0
1, 149920, Note_on_c, 0, 79, 62
1, 149998, Note_on_c, 0, 79, 0
1, 150000, Note_on_c, 0, 77, 62
1, 150078, Note_on_c, 0, 77, 0
1, 150080, Note_on_c, 0, 76, 66
1, 150158, Note_on_c, 0, 76, 0
1, 150160, Note_on_c, 0, 74, 73
1, 150238, Note_on_c, 0, 74, 0
1, 150240, Note_on_c, 0, 72, 61
1, 150318, Note_on_c, 0, 72, 0
1, 150320, Note_on_c, 0, 74, 34
1, 150398, Note_on_c, 0, 74, 0
1, 150400, Note_on_c, 0, 72, 52
1, 150478, Note_on_c, 0, 72, 0
1, 150478, Note_on_c, 1, 55, 0
1, 150480, Note_on_c, 0, 70, 63
1, 150480, Note_on_c, 1, 58, 44
1, 150558, Note_on_c, 0, 70, 0
1, 150560, Note_on_c, 0, 69, 49
1, 150638, Note_on_c, 0, 69, 0
1, 150640, Note_on_c, 0, 68, 49
1, 150718, Note_on_c, 0, 68, 0
1, 150718, Note_on_c, 1, 52, 0
1, 150718, Note_on_c, 1, 60, 0
1, 150718, Note_on_c, 1, 58, 0
1, 150720, Note_on_c, 0, 69, 61
1, 150720, Note_on_c, 1, 60, 60
1, 150720, Note_on_c, 1, 53, 49
1, 150720, Note_on_c, 1, 57, 51
1, 150798, Note_on_c, 0, 69, 0
1, 150840, Note_on_c, 0, 81, 52
1, 150958, Note_on_c, 0, 81, 0
1, 150960, Note_on_c, 0, 80, 56
1, 151078, Note_on_c, 0, 80, 0
1, 151080, Note_on_c, 0, 81, 63
1, 151198, Note_on_c, 0, 81, 0
1, 151198, Note_on_c, 1, 57, 0
1, 151198, Note_on_c, 1, 53, 0
1, 151198, Note_on_c, 1, 60, 0
1, 151200, Note_on_c, 0, 80, 68
1, 151318, Note_on_c, 0, 80, 0
1, 151320, Note_on_c, 0, 81, 70
1, 151438, Note_on_c, 0, 81, 0
1, 151440, Note_on_c, 0, 80, 67
1, 151558, Note_on_c, 0, 80, 0
1, 151560, Note_on_c, 0, 81, 66
1, 151678, Note_on_c, 0, 81, 0
1, 151680, Note_on_c, 1, 54, 60
1, 151680, Note_on_c, 1, 63, 47
1, 151800, Note_on_c, 0, 84, 68
1, 151918, Note_on_c, 0, 84, 0
1, 151920, Note_on_c, 0, 83, 67
1, 152038, Note_on_c, 0, 83, 0
1, 152040, Note_on_c, 0, 84, 83
1, 152158, Note_on_c, 0, 84, 0
1, 152158, Note_on_c, 1, 63, 0
1, 152158, Note_on_c, 1, 54, 0
1, 152160, Note_on_c, 0, 83, 104
1, 152278, Note_on_c, 0, 83, 0
1, 152280, Note_on_c, 0, 84, 86
1, 152398, Note_on_c, 0, 84, 0
1, 152400, Note_on_c, 0, 83, 80
1, 152518, Note_on_c, 0, 83, 0
1, 152520, Note_on_c, 0, 84, 74
1, 152638, Note_on_c, 0, 84, 0
1, 152640, Note_on_c, 0, 84, 80
1, 152640, Note_on_c, 1, 55, 63
1, 152758, Note_on_c, 0, 84, 0
1, 152758, Note_on_c, 1, 55, 0
1, 152760, Note_on_c, 0, 79, 74
1, 152760, Note_on_c, 1, 64, 35
1, 152878, Note_on_c, 0, 79, 0
1, 152878, Note_on_c, 1, 64, 0
1, 152880, Note_on_c, 0, 79, 66
1, 152880, Note_on_c, 1, 60, 37
1, 152950, Note_on_c, 0, 79, 0
1, 152998, Note_on_c, 1, 60, 0
1, 153000, Note_on_c, 0, 79, 63
1, 153000, Note_on_c, 1, 64, 50
1, 153070, Note_on_c, 0, 79, 0
1, 153118, Note_on_c, 1, 64, 0
1, 153120, Note_on_c, 0, 81, 66
1, 153120, Note_on_c, 1, 55, 62
1, 153238, Note_on_c, 0, 81, 0
1, 153238, Note_on_c, 1, 55, 0
1, 153240, Note_on_c, 0, 79, 72
1, 153240, Note_on_c, 1, 64, 51
1, 153358, Note_on_c, 0, 79, 0
1, 153358, Note_on_c, 1, 64, 0
1, 153360, Note_on_c, 0, 77, 66
1, 153360, Note_on_c, 1, 60, 41
1, 153430, Note_on_c, 0, 77, 0
1, 153478, Note_on_c, 1, 60, 0
1, 153480, Note_on_c, 0, 76, 63
1, 153480, Note_on_c, 1, 64, 49
1, 153550, Note_on_c, 0, 76, 0
1, 153598, Note_on_c, 1, 64, 0
1, 153600, Note_on_c, 0, 76, 68
1, 153600, Note_on_c, 1, 55, 70
1, 153718, Note_on_c, 1, 55, 0
1, 153720, Note_on_c, 1, 64, 56
1, 153838, Note_on_c, 1, 64, 0
1, 153840, Note_on_c, 1, 60, 30
1, 153958, Note_on_c, 1, 60, 0
1, 153960, Note_on_c, 1, 64, 38
1, 154078, Note_on_c, 0, 76, 0
1, 154078, Note_on_c, 1, 64, 0
1, 154080, Note_on_c, 0, 74, 66
1, 154080, Note_on_c, 1, 55, 63
1, 154138, Note_on_c, 0, 74, 0
1, 154140, Note_on_c, 0, 76, 67
1, 154198, Note_on_c, 0, 76, 0
1, 154198, Note_on_c, 1, 55, 0
1, 154200, Note_on_c, 0, 74, 50
1, 154200, Note_on_c, 1, 65, 37
1, 154258, Note_on_c, 0, 74, 0
1, 154260, Note_on_c, 0, 76, 58
1, 154318, Note_on_c, 0, 76, 0
1, 154318, Note_on_c, 1, 65, 0
1, 154320, Note_on_c, 0, 74, 62
1, 154320, Note_on_c, 1, 62, 38
1, 154366, Note_on_c, 0, 74, 0
1, 154368, Note_on_c, 0, 76, 67
1, 154414, Note_on_c, 0, 76, 0
1, 154416, Note_on_c, 0, 74, 69
1, 154438, Note_on_c, 1, 62, 0
1, 154440, Note_on_c, 1, 65, 27
1, 154462, Note_on_c, 0, 74, 0
1, 154464, Note_on_c, 0, 72, 60
1, 154510, Note_on_c, 0, 72, 0
1, 154512, Note_on_c, 0, 74, 63
1, 154558, Note_on_c, 0, 74, 0
1, 154558, Note_on_c, 1, 65, 0
1, 154560, Note_on_c, 0, 72, 67
1, 154560, Note_on_c, 1, 48, 38
1, 154678, Note_on_c, 1, 48, 0
1, 154680, Note_on_c, 1, 52, 49
1, 154798, Note_on_c, 1, 52, 0
1, 154800, Note_on_c, 1, 60, 39
1, 154918, Note_on_c, 1, 60, 0
1, 154920, Note_on_c, 1, 52, 45
1, 155038, Note_on_c, 0, 72, 0
1, 155038, Note_on_c, 1, 52, 0
1, 155040, Note_on_c, 0, 67, 70
1, 155040, Note_on_c, 1, 48, 56
1, 155158, Note_on_c, 1, 48, 0
1, 155160, Note_on_c, 1, 53, 46
1, 155278, Note_on_c, 1, 53, 0
1, 155280, Note_on_c, 1, 59, 62
1, 155398, Note_on_c, 0, 67, 0
1, 155398, Note_on_c, 1, 59, 0
1, 155400, Note_on_c, 0, 71, 64
1, 155400, Note_on_c, 1, 53, 51
1, 155438, Note_on_c, 0, 71, 0
1, 155440, Note_on_c, 0, 69, 41
1, 155478, Note_on_c, 0, 69, 0
1, 155480, Note_on_c, 0, 67, 49
1, 155518, Note_on_c, 0, 67, 0
1, 155518, Note_on_c, 1, 53, 0
1, 155520, Note_on_c, 0, 79, 51
1, 155520, Note_on_c, 1, 48, 58
1, 155638, Note_on_c, 0, 79, 0
1, 155638, Note_on_c, 1, 48, 0
1, 155640, Note_on_c, 1, 50, 40
1, 155758, Note_on_c, 1, 50, 0
1, 155760, Note_on_c, 0, 77, 74
1, 155760, Note_on_c, 1, 59, 36
1, 155878, Note_on_c, 0, 77, 0
1, 155878, Note_on_c, 1, 59, 0
1, 155880, Note_on_c, 1, 50, 51
1, 155998, Note_on_c, 1, 50, 0
1, 156000, Note_on_c, 0, 76, 73
1, 156000, Note_on_c, 1, 48, 60
1, 156118, Note_on_c, 0, 76, 0
1, 156118, Note_on_c, 1, 48, 0
1, 156120, Note_on_c, 1, 53, 34
1, 156238, Note_on_c, 1, 53, 0
1, 156240, Note_on_c, 0, 74, 69
1, 156240, Note_on_c, 1, 59, 41
1, 156358, Note_on_c, 1, 59, 0
1, 156360, Note_on_c, 1, 53, 40
1, 156478, Note_on_c, 0, 74, 0
1, 156478, Note_on_c, 1, 53, 0
1, 156480, Note_on_c, 0, 72, 70
1, 156480, Note_on_c, 1, 48, 56
1, 156598, Note_on_c, 1, 48, 0
1, 156600, Note_on_c, 1, 52, 34
1, 156718, Note_on_c, 0, 72, 0
1, 156718, Note_on_c, 1, 52, 0
1, 156720, Note_on_c, 1, 60, 28
1, 156838, Note_on_c, 1, 60, 0
1, 156840, Note_on_c, 1, 52, 36
1, 156958, Note_on_c, 1, 52, 0
1, 156960, Note_on_c, 0, 67, 70
1, 156960, Note_on_c, 1, 48, 57
1, 157078, Note_on_c, 1, 48, 0
1, 157080, Note_on_c, 1, 53, 52
1, 157198, Note_on_c, 1, 53, 0
1, 157200, Note_on_c, 1, 59, 40
1, 157318, Note_on_c, 0, 67, 0
1, 157318, Note_on_c, 1, 59, 0
1, 157320, Note_on_c, 0, 71, 64
1, 157320, Note_on_c, 1, 53, 55
1, 157358, Note_on_c, 0, 71, 0
1, 157360, Note_on_c, 0, 69, 41
1, 157398, Note_on_c, 0, 69, 0
1, 157400, Note_on_c, 0, 67, 49
1, 157438, Note_on_c, 0, 67, 0
1, 157438, Note_on_c, 1, 53, 0
1, 157440, Note_on_c, 0, 79, 51
1, 157440, Note_on_c, 1, 48, 58
1, 157558, Note_on_c, 0, 79, 0
1, 157558, Note_on_c, 1, 48, 0
1, 157560, Note_on_c, 1, 50, 40
1, 157678, Note_on_c, 1, 50, 0
1, 157680, Note_on_c, 0, 77, 74
1, 157680, Note_on_c, 1, 59, 36
1, 157798, Note_on_c, 0, 77, 0
1, 157798, Note_on_c, 1, 59, 0
1, 157800, Note_on_c, 1, 50, 51
1, 157918, Note_on_c, 1, 50, 0
1, 157920, Note_on_c, 0, 76, 73
1, 157920, Note_on_c, 1, 48, 60
1, 158038, Note_on_c, 0, 76, 0
1, 158038, Note_on_c, 1, 48, 0
1, 158040, Note_on_c, 1, 53, 34
1, 158158, Note_on_c, 1, 53, 0
1, 158160, Note_on_c, 0, 74, 69
1, 158160, Note_on_c, 1, 59, 41
1, 158278, Note_on_c, 1, 59, 0
1, 158280, Note_on_c, 1, 53, 40
1, 158398, Note_on_c, 0, 74, 0
1, 158398, Note_on_c, 1, 53, 0
1, 158400, Note_on_c, 0, 72, 70
1, 158400, Note_on_c, 1, 48, 56
1, 158518, Note_on_c, 1, 48, 0
1, 158520, Note_on_c, 1, 52, 34
1, 158638, Note_on_c, 0, 72, 0
1, 158638, Note_on_c, 1, 52, 0
1, 158640, Note_on_c, 1, 60, 28
1, 158758, Note_on_c, 1, 60, 0
1, 158760, Note_on_c, 1, 52, 36
1, 158840, Note_on_c, 0, 67, 52
1, 158878, Note_on_c, 1, 52, 0
1, 158880, Note_on_c, 0, 79, 81
1, 158880, Note_on_c, 1, 48, 57
1, 158998, Note_on_c, 1, 48, 0
1, 159000, Note_on_c, 1, 53, 52
1, 159118, Note_on_c, 0, 67, 0
1, 159118, Note_on_c, 1, 53, 0
1, 159120, Note_on_c, 1, 59, 40
1, 159238, Note_on_c, 0, 79, 0
1, 159238, Note_on_c, 1, 59, 0
1, 159240, Note_on_c, 0, 77, 68
1, 159240, Note_on_c, 1, 53, 55
1, 159278, Note_on_c, 0, 77, 0
1, 159280, Note_on_c, 0, 76, 70
1, 159318, Note_on_c, 0, 76, 0
1, 159320, Note_on_c, 0, 74, 41
1, 159358, Note_on_c, 0, 74, 0
1, 159358, Note_on_c, 1, 53, 0
1, 159360, Note_on_c, 0, 72, 71
1, 159360, Note_on_c, 1, 48, 56
1, 159478, Note_on_c, 1, 48, 0
1, 159480, Note_on_c, 1, 52, 34
1, 159598, Note_on_c, 0, 72, 0
1, 159598, Note_on_c, 1, 52, 0
1, 159600, Note_on_c, 1, 60, 28
1, 159718, Note_on_c, 1, 60, 0
1, 159720, Note_on_c, 1, 52, 36
1, 159800, Note_on_c, 0, 67, 52
1, 159838, Note_on_c, 1, 52, 0
1, 159840, Note_on_c, 0, 79, 81
1, 159840, Note_on_c, 1, 48, 57
1, 159958, Note_on_c, 1, 48, 0
1, 159960, Note_on_c, 1, 53, 52
1, 160078, Note_on_c, 0, 67, 0
1, 160078, Note_on_c, 1, 53, 0
1, 160080, Note_on_c, 1, 59, 40
1, 160198, Note_on_c, 0, 79, 0
1, 160198, Note_on_c, 1, 59, 0
1, 160200, Note_on_c, 0, 81, 77
1, 160200, Note_on_c, 1, 53, 55
1, 160258, Note_on_c, 0, 81, 0
1, 160260, Note_on_c, 0, 83, 77
1, 160318, Note_on_c, 0, 83, 0
1, 160318, Note_on_c, 1, 53, 0
1, 160320, Note_on_c, 0, 84, 70
1, 160320, Note_on_c, 1, 48, 56
1, 160438, Note_on_c, 1, 48, 0
1, 160440, Note_on_c, 1, 52, 34
1, 160558, Note_on_c, 0, 84, 0
1, 160558, Note_on_c, 1, 52, 0
1, 160560, Note_on_c, 1, 60, 28
1, 160678, Note_on_c, 1, 60, 0
1, 160680, Note_on_c, 1, 52, 36
1, 160798, Note_on_c, 1, 52, 0
1, 160800, Note_on_c, 0, 79, 59
1, 160800, Note_on_c, 1, 48, 57
1, 160878, Note_on_c, 0, 79, 0
1, 160880, Note_on_c, 0, 81, 59
1, 160918, Note_on_c, 1, 48, 0
1, 160920, Note_on_c, 1, 53, 52
1, 160958, Note_on_c, 0, 81, 0
1, 160960, Note_on_c, 0, 79, 70
1, 161038, Note_on_c, 0, 79, 0
1, 161038, Note_on_c, 1, 53, 0
1, 161040, Note_on_c, 0, 77, 60
1, 161040, Note_on_c, 1, 59, 40
1, 161118, Note_on_c, 0, 77, 0
1, 161120, Note_on_c, 0, 76, 62
1, 161158, Note_on_c, 1, 59, 0
1, 161160, Note_on_c, 1, 53, 55
1, 161198, Note_on_c, 0, 76, 0
1, 161200, Note_on_c, 0, 74, 62
1, 161278, Note_on_c, 0, 74, 0
1, 161278, Note_on_c, 1, 53, 0
1, 161280, Note_on_c, 0, 72, 69
1, 161280, Note_on_c, 1, 48, 56
1, 161398, Note_on_c, 1, 48, 0
1, 161400, Note_on_c, 1, 52, 34
1, 161518, Note_on_c, 0, 72, 0
1, 161518, Note_on_c, 1, 52, 0
1, 161520, Note_on_c, 1, 60, 28
1, 161638, Note_on_c, 1, 60, 0
1, 161640, Note_on_c, 1, 52, 36
1, 161758, Note_on_c, 1, 52, 0
1, 161760, Note_on_c, 0, 78, 70
1, 161760, Note_on_c, 1, 48, 57
1, 161838, Note_on_c, 0, 78, 0
1, 161840, Note_on_c, 0, 79, 62
1, 161878, Note_on_c, 1, 48, 0
1, 161880, Note_on_c, 1, 53, 52
1, 161918, Note_on_c, 0, 79, 0
1, 161920, Note_on_c, 0, 80, 75
1, 161998, Note_on_c, 0, 80, 0
1, 161998, Note_on_c, 1, 53, 0
1, 162000, Note_on_c, 0, 81, 77
1, 162000, Note_on_c, 1, 59, 40
1, 162078, Note_on_c, 0, 81, 0
1, 162080, Note_on_c, 0, 82, 75
1, 162118, Note_on_c, 1, 59, 0
1, 162120, Note_on_c, 1, 53, 55
1, 162158, Note_on_c, 0, 82, 0
1, 162160, Note_on_c, 0, 83, 73
1, 162238, Note_on_c, 0, 83, 0
1, 162238, Note_on_c, 1, 53, 0
1, 162240, Note_on_c, 0, 84, 81
1, 162240, Note_on_c, 1, 48, 46
1, 162240, Note_on_c, 1, 52, 30
1, 162257, Tempo, 740741
1, 162478, Note_on_c, 0, 84, 0
1, 162478, Note_on_c, 1, 52, 0
1, 162478, Note_on_c, 1, 48, 0
1, 162480, Note_on_c, 0, 67, 74
1, 162501, Tempo, 779221
1, 162658, Note_on_c, 0, 67, 0
1, 162660, Note_on_c, 0, 72, 64
1, 162718, Note_on_c, 0, 72, 0
1, 162720, Note_on_c, 0, 76, 73
1, 162720, Note_on_c, 0, 67, 64
1, 162779, Tempo, 821918
1, 162838, Note_on_c, 0, 67, 0
1, 162838, Note_on_c, 0, 76, 0
1, 162960, Note_on_c, 0, 74, 52
1, 162960, Note_on_c, 0, 65, 70
1, 162960, Note_on_c, 1, 55, 61
1, 163057, Tempo, 869565
1, 163078, Note_on_c, 0, 65, 0
1, 163078, Note_on_c, 0, 74, 0
1, 163078, Note_on_c, 1, 55, 0
1, 163200, Note_on_c, 0, 74, 36
1, 163200, Note_on_c, 0, 65, 49
1, 163200, Note_on_c, 1, 56, 52
1, 163331, Tempo, 967742
1, 163609, Tempo, 1016949
1, 163678, Note_on_c, 0, 65, 0
1, 163678, Note_on_c, 0, 74, 0
1, 163678, Note_on_c, 1, 56, 0
1, 163680, Note_on_c, 0, 72, 28
1, 163680, Note_on_c, 0, 64, 41
1, 163680, Note_on_c, 1, 57, 28
1, 163887, Tempo, 1071429
1, 163918, Note_on_c, 0, 64, 0
1, 163918, Note_on_c, 0, 72, 0
1, 163918, Note_on_c, 1, 57, 0
1, 163920, Tempo, 1111111
1, 164160, Note_on_c, 0, 77, 92
1, 164160, Note_on_c, 0, 74, 86
1, 164160, Note_on_c, 0, 81, 90
1, 164160, Note_on_c, 0, 69, 80
1, 164160, Note_on_c, 1, 53, 90
1, 164160, Note_on_c, 1, 41, 75
1, 164177, Tempo, 821918
1, 164398, Note_on_c, 0, 69, 0
1, 164398, Note_on_c, 0, 81, 0
1, 164398, Note_on_c, 0, 74, 0
1, 164398, Note_on_c, 0, 77, 0
1, 164398, Note_on_c, 1, 41, 0
1, 164398, Note_on_c, 1, 53, 0
1, 164640, Note_on_c, 0, 65, 74
1, 164640, Note_on_c, 0, 67, 72
1, 164640, Note_on_c, 0, 71, 72
1, 164640, Note_on_c, 0, 62, 78
1, 164640, Note_on_c, 1, 43, 69
1, 164640, Note_on_c, 1, 55, 78
1, 164878, Note_on_c, 0, 62, 0
1, 164878, Note_on_c, 0, 71, 0
1, 164878, Note_on_c, 0, 67, 0
1, 164878, Note_on_c, 0, 65, 0
1, 164878, Note_on_c, 1, 55, 0
1, 164878, Note_on_c, 1, 43, 0
1, 165120, Note_on_c, 0, 67, 90
1, 165120, Note_on_c, 0, 72, 90
1, 165120, Note_on_c, 0, 64, 78
1, 165120, Note_on_c, 0, 60, 70
1, 165120, Note_on_c, 1, 40, 83
1, 165120, Note_on_c, 1, 48, 92
1, 165120, Note_on_c, 1, 43, 70
1, 165120, Note_on_c, 1, 36, 83
1, 165358, Note_on_c, 0, 60, 0
1, 165358, Note_on_c, 0, 64, 0
1, 165358, Note_on_c, 0, 72, 0
1, 165358, Note_on_c, 0, 67, 0
1, 165358, Note_on_c, 1, 36, 0
1, 165358, Note_on_c, 1, 43, 0
1, 165358, Note_on_c, 1, 48, 0
1, 165358, Note_on_c, 1, 62, 0
1, 165358, Note_on_c, 1, 40, 0
1, 165368, End_track
0, 0, End_of_file