0, 0, Header, 0, 1, 120
1, 0, Start_track
1, 0, Tempo, 909091
1, 0, Note_on_c, 1, 39, 45
1, 0, Note_on_c, 1, 51, 30
1, 1, Note_on_c, 0, 67, 80
1, 1, Note_on_c, 0, 70, 68
1, 74, Note_on_c, 0, 67, 0
1, 75, Note_on_c, 0, 70, 0
1, 119, Note_on_c, 0, 63, 72
1, 120, Note_on_c, 0, 67, 76
1, 133, Note_on_c, 1, 51, 0
1, 133, Note_on_c, 1, 39, 0
1, 149, Note_on_c, 0, 63, 0
1, 150, Note_on_c, 0, 67, 0
1, 181, Note_on_c, 0, 65, 72
1, 181, Note_on_c, 0, 58, 55
1, 181, Note_on_c, 1, 46, 79
1, 196, Note_on_c, 0, 65, 0
1, 208, Note_on_c, 0, 58, 0
1, 240, Note_on_c, 0, 63, 56
1, 240, Note_on_c, 0, 55, 60
1, 240, Note_on_c, 1, 46, 0
1, 241, Note_on_c, 1, 51, 41
1, 300, Note_on_c, 0, 55, 0
1, 301, Note_on_c, 0, 63, 0
1, 301, Note_on_c, 0, 58, 68
1, 358, Note_on_c, 0, 58, 0
1, 358, Note_on_c, 1, 51, 0
1, 359, Note_on_c, 0, 63, 68
1, 418, Note_on_c, 0, 63, 0
1, 419, Note_on_c, 0, 65, 64
1, 419, Note_on_c, 0, 62, 51
1, 419, Note_on_c, 1, 46, 46
1, 448, Note_on_c, 0, 62, 0
1, 450, Note_on_c, 0, 65, 0
1, 479, Note_on_c, 0, 67, 76
1, 479, Note_on_c, 0, 63, 59
1, 479, Note_on_c, 1, 51, 39
1, 481, Note_on_c, 1, 46, 0
1, 539, Note_on_c, 0, 68, 72
1, 539, Note_on_c, 1, 48, 62
1, 542, Note_on_c, 0, 67, 0
1, 542, Note_on_c, 1, 51, 0
1, 599, Note_on_c, 0, 70, 68
1, 599, Note_on_c, 1, 43, 54
1, 600, Note_on_c, 0, 68, 0
1, 601, Note_on_c, 1, 48, 0
1, 658, Note_on_c, 0, 70, 0
1, 659, Note_on_c, 0, 72, 60
1, 659, Note_on_c, 1, 43, 0
1, 659, Note_on_c, 1, 44, 46
1, 707, Note_on_c, 0, 72, 0
1, 707, Note_on_c, 0, 63, 0
1, 719, Note_on_c, 0, 63, 59
1, 719, Note_on_c, 0, 67, 85
1, 721, Note_on_c, 1, 46, 47
1, 722, Note_on_c, 1, 44, 0
1, 811, Note_on_c, 0, 68, 72
1, 812, Note_on_c, 0, 67, 0
1, 826, Note_on_c, 0, 68, 0
1, 827, Note_on_c, 0, 63, 0
1, 840, Note_on_c, 0, 65, 85
1, 841, Note_on_c, 0, 62, 72
1, 869, Note_on_c, 0, 65, 0
1, 869, Note_on_c, 0, 67, 80
1, 898, Note_on_c, 0, 67, 0
1, 899, Note_on_c, 0, 68, 72
1, 902, Note_on_c, 1, 46, 0
1, 928, Note_on_c, 0, 68, 0
1, 929, Note_on_c, 0, 69, 93
1, 943, Note_on_c, 0, 62, 0
1, 945, Note_on_c, 0, 69, 0
1, 959, Note_on_c, 0, 70, 76
1, 959, Note_on_c, 0, 82, 89
1, 959, Note_on_c, 1, 67, 52
1, 1080, Note_on_c, 0, 79, 80
1, 1081, Note_on_c, 1, 63, 46
1, 1082, Note_on_c, 0, 82, 0
1, 1082, Note_on_c, 1, 67, 0
1, 1139, Note_on_c, 0, 79, 0
1, 1139, Note_on_c, 0, 77, 76
1, 1140, Note_on_c, 1, 63, 0
1, 1140, Note_on_c, 1, 58, 54
1, 1183, Note_on_c, 0, 77, 0
1, 1183, Note_on_c, 0, 70, 0
1, 1199, Note_on_c, 0, 70, 60
1, 1199, Note_on_c, 0, 75, 76
1, 1199, Note_on_c, 1, 58, 0
1, 1199, Note_on_c, 1, 55, 75
1, 1214, Note_on_c, 0, 75, 0
1, 1214, Note_on_c, 0, 70, 0
1, 1214, Note_on_c, 1, 55, 0
1, 1259, Note_on_c, 0, 74, 68
1, 1259, Note_on_c, 0, 77, 80
1, 1259, Note_on_c, 1, 58, 62
1, 1274, Note_on_c, 0, 77, 0
1, 1274, Note_on_c, 0, 74, 0
1, 1275, Note_on_c, 1, 58, 0
1, 1319, Note_on_c, 0, 75, 80
1, 1319, Note_on_c, 0, 79, 80
1, 1319, Note_on_c, 1, 63, 58
1, 1334, Note_on_c, 0, 79, 0
1, 1334, Note_on_c, 0, 75, 0
1, 1334, Note_on_c, 1, 63, 0
1, 1379, Note_on_c, 0, 80, 89
1, 1379, Note_on_c, 0, 75, 76
1, 1379, Note_on_c, 1, 60, 62
1, 1394, Note_on_c, 0, 75, 0
1, 1394, Note_on_c, 0, 80, 0
1, 1394, Note_on_c, 1, 60, 0
1, 1439, Note_on_c, 0, 82, 85
1, 1439, Note_on_c, 0, 75, 68
1, 1439, Note_on_c, 1, 55, 66
1, 1472, Note_on_c, 0, 75, 0
1, 1472, Note_on_c, 0, 82, 0
1, 1498, Note_on_c, 1, 55, 0
1, 1499, Note_on_c, 0, 83, 76
1, 1500, Note_on_c, 1, 65, 41
1, 1500, Note_on_c, 1, 56, 70
1, 1514, Note_on_c, 0, 83, 0
1, 1514, Note_on_c, 0, 84, 60
1, 1517, Note_on_c, 1, 56, 0
1, 1529, Note_on_c, 0, 80, 76
1, 1530, Note_on_c, 1, 65, 0
1, 1531, Note_on_c, 0, 84, 0
1, 1544, Note_on_c, 0, 80, 0
1, 1544, Note_on_c, 0, 77, 64
1, 1559, Note_on_c, 0, 75, 60
1, 1559, Note_on_c, 1, 58, 50
1, 1559, Note_on_c, 1, 67, 47
1, 1560, Note_on_c, 0, 77, 0
1, 1619, Note_on_c, 0, 79, 76
1, 1620, Note_on_c, 0, 75, 0
1, 1621, Note_on_c, 1, 67, 0
1, 1621, Note_on_c, 1, 68, 54
1, 1634, Note_on_c, 0, 77, 68
1, 1637, Note_on_c, 0, 79, 0
1, 1648, Note_on_c, 1, 68, 0
1, 1649, Note_on_c, 0, 76, 76
1, 1650, Note_on_c, 1, 58, 0
1, 1651, Note_on_c, 0, 77, 0
1, 1664, Note_on_c, 0, 76, 0
1, 1664, Note_on_c, 0, 77, 72
1, 1679, Note_on_c, 0, 77, 0
1, 1679, Note_on_c, 0, 74, 62
1, 1679, Note_on_c, 0, 77, 89
1, 1680, Note_on_c, 1, 68, 42
1, 1681, Note_on_c, 1, 63, 50
1, 1753, Note_on_c, 1, 68, 0
1, 1799, Note_on_c, 0, 75, 60
1, 1801, Note_on_c, 1, 67, 30
1, 1802, Note_on_c, 0, 77, 0
1, 1802, Note_on_c, 0, 74, 0
1, 1862, Note_on_c, 0, 75, 0
1, 1873, Note_on_c, 1, 67, 0
1, 1873, Note_on_c, 1, 63, 0
1, 1920, Note_on_c, 0, 70, 45
1, 1921, Note_on_c, 0, 67, 56
1, 1921, Note_on_c, 1, 51, 27
1, 1921, Note_on_c, 1, 39, 35
1, 1978, Note_on_c, 0, 67, 0
1, 1978, Note_on_c, 0, 70, 0
1, 2039, Note_on_c, 0, 67, 59
1, 2039, Note_on_c, 0, 63, 56
1, 2042, Note_on_c, 1, 39, 0
1, 2053, Note_on_c, 1, 51, 0
1, 2067, Note_on_c, 0, 63, 0
1, 2067, Note_on_c, 0, 67, 0
1, 2099, Note_on_c, 1, 46, 35
1, 2100, Note_on_c, 0, 65, 62
1, 2100, Note_on_c, 0, 58, 43
1, 2117, Note_on_c, 0, 65, 0
1, 2127, Note_on_c, 0, 58, 0
1, 2160, Note_on_c, 0, 63, 49
1, 2161, Note_on_c, 0, 55, 50
1, 2161, Note_on_c, 1, 51, 33
1, 2162, Note_on_c, 1, 46, 0
1, 2193, Note_on_c, 0, 63, 0
1, 2208, Note_on_c, 0, 55, 0
1, 2221, Note_on_c, 0, 58, 55
1, 2279, Note_on_c, 0, 63, 60
1, 2280, Note_on_c, 0, 58, 0
1, 2311, Note_on_c, 1, 51, 0
1, 2338, Note_on_c, 0, 63, 0
1, 2339, Note_on_c, 0, 65, 64
1, 2339, Note_on_c, 0, 62, 51
1, 2340, Note_on_c, 1, 46, 39
1, 2388, Note_on_c, 0, 62, 0
1, 2397, Note_on_c, 0, 65, 0
1, 2398, Note_on_c, 1, 46, 0
1, 2399, Note_on_c, 0, 67, 62
1, 2399, Note_on_c, 0, 63, 57
1, 2399, Note_on_c, 1, 51, 47
1, 2459, Note_on_c, 1, 48, 46
1, 2460, Note_on_c, 0, 67, 0
1, 2461, Note_on_c, 0, 68, 59
1, 2462, Note_on_c, 1, 51, 0
1, 2519, Note_on_c, 1, 48, 0
1, 2519, Note_on_c, 1, 43, 46
1, 2521, Note_on_c, 0, 70, 53
1, 2522, Note_on_c, 0, 68, 0
1, 2567, Note_on_c, 0, 70, 0
1, 2579, Note_on_c, 1, 44, 45
1, 2581, Note_on_c, 0, 72, 64
1, 2581, Note_on_c, 1, 43, 0
1, 2612, Note_on_c, 0, 72, 0
1, 2613, Note_on_c, 0, 63, 0
1, 2640, Note_on_c, 1, 46, 46
1, 2641, Note_on_c, 0, 67, 76
1, 2641, Note_on_c, 0, 63, 48
1, 2642, Note_on_c, 1, 44, 0
1, 2728, Note_on_c, 0, 67, 0
1, 2729, Note_on_c, 0, 68, 62
1, 2730, Note_on_c, 0, 63, 0
1, 2758, Note_on_c, 0, 68, 0
1, 2759, Note_on_c, 0, 65, 72
1, 2761, Note_on_c, 0, 62, 56
1, 2789, Note_on_c, 0, 65, 0
1, 2789, Note_on_c, 0, 67, 72
1, 2818, Note_on_c, 0, 67, 0
1, 2819, Note_on_c, 0, 68, 62
1, 2822, Note_on_c, 1, 46, 0
1, 2847, Note_on_c, 0, 68, 0
1, 2849, Note_on_c, 0, 69, 80
1, 2862, Note_on_c, 0, 62, 0
1, 2864, Note_on_c, 0, 69, 0
1, 2879, Note_on_c, 1, 67, 46
1, 2880, Note_on_c, 0, 82, 68
1, 2880, Note_on_c, 0, 70, 55
1, 2999, Note_on_c, 0, 79, 76
1, 3000, Note_on_c, 0, 82, 0
1, 3001, Note_on_c, 1, 63, 39
1, 3003, Note_on_c, 1, 67, 0
1, 3058, Note_on_c, 0, 79, 0
1, 3058, Note_on_c, 1, 63, 0
1, 3059, Note_on_c, 0, 77, 72
1, 3060, Note_on_c, 1, 58, 40
1, 3088, Note_on_c, 0, 70, 0
1, 3090, Note_on_c, 0, 77, 0
1, 3121, Note_on_c, 0, 70, 59
1, 3121, Note_on_c, 0, 75, 64
1, 3121, Note_on_c, 1, 55, 52
1, 3122, Note_on_c, 1, 58, 0
1, 3134, Note_on_c, 0, 75, 0
1, 3134, Note_on_c, 0, 70, 0
1, 3134, Note_on_c, 1, 55, 0
1, 3179, Note_on_c, 0, 74, 59
1, 3179, Note_on_c, 0, 77, 68
1, 3179, Note_on_c, 1, 58, 49
1, 3194, Note_on_c, 0, 77, 0
1, 3194, Note_on_c, 0, 74, 0
1, 3194, Note_on_c, 1, 58, 0
1, 3239, Note_on_c, 0, 75, 72
1, 3239, Note_on_c, 0, 79, 72
1, 3239, Note_on_c, 1, 63, 66
1, 3253, Note_on_c, 0, 75, 0
1, 3253, Note_on_c, 1, 63, 0
1, 3254, Note_on_c, 0, 79, 0
1, 3299, Note_on_c, 0, 80, 76
1, 3299, Note_on_c, 0, 75, 60
1, 3300, Note_on_c, 1, 60, 58
1, 3313, Note_on_c, 0, 75, 0
1, 3313, Note_on_c, 0, 80, 0
1, 3313, Note_on_c, 1, 60, 0
1, 3359, Note_on_c, 1, 55, 62
1, 3360, Note_on_c, 0, 82, 68
1, 3361, Note_on_c, 0, 75, 55
1, 3403, Note_on_c, 0, 82, 0
1, 3407, Note_on_c, 0, 75, 0
1, 3417, Note_on_c, 1, 55, 0
1, 3419, Note_on_c, 0, 83, 64
1, 3420, Note_on_c, 1, 65, 40
1, 3420, Note_on_c, 1, 56, 43
1, 3434, Note_on_c, 0, 83, 0
1, 3434, Note_on_c, 0, 84, 51
1, 3447, Note_on_c, 1, 56, 0
1, 3449, Note_on_c, 0, 80, 60
1, 3449, Note_on_c, 1, 65, 0
1, 3451, Note_on_c, 0, 84, 0
1, 3464, Note_on_c, 0, 80, 0
1, 3464, Note_on_c, 0, 77, 51
1, 3479, Note_on_c, 0, 75, 51
1, 3479, Note_on_c, 1, 58, 42
1, 3479, Note_on_c, 1, 67, 41
1, 3481, Note_on_c, 0, 77, 0
1, 3538, Note_on_c, 0, 75, 0
1, 3538, Note_on_c, 1, 67, 0
1, 3539, Note_on_c, 0, 79, 64
1, 3539, Note_on_c, 1, 68, 41
1, 3554, Note_on_c, 0, 77, 64
1, 3557, Note_on_c, 0, 79, 0
1, 3558, Note_on_c, 1, 68, 0
1, 3558, Note_on_c, 1, 58, 0
1, 3569, Note_on_c, 0, 76, 68
1, 3570, Note_on_c, 0, 77, 0
1, 3584, Note_on_c, 0, 77, 57
1, 3586, Note_on_c, 0, 76, 0
1, 3598, Note_on_c, 0, 77, 0
1, 3599, Note_on_c, 0, 74, 52
1, 3599, Note_on_c, 0, 77, 68
1, 3600, Note_on_c, 1, 68, 40
1, 3600, Note_on_c, 1, 63, 49
1, 3690, Note_on_c, 1, 68, 0
1, 3719, Note_on_c, 0, 75, 48
1, 3720, Note_on_c, 0, 77, 0
1, 3721, Note_on_c, 0, 74, 0
1, 3721, Note_on_c, 1, 67, 34
1, 3792, Note_on_c, 0, 75, 0
1, 3793, Note_on_c, 1, 67, 0
1, 3794, Note_on_c, 1, 63, 0
1, 3838, Note_on_c, 0, 77, 93
1, 3840, Note_on_c, 1, 62, 46
1, 3897, Note_on_c, 1, 62, 0
1, 3898, Note_on_c, 1, 58, 45
1, 3959, Note_on_c, 1, 63, 41
1, 3960, Note_on_c, 1, 58, 0
1, 3961, Note_on_c, 0, 79, 89
1, 3963, Note_on_c, 0, 77, 0
1, 4018, Note_on_c, 1, 63, 0
1, 4019, Note_on_c, 1, 58, 43
1, 4021, Note_on_c, 0, 75, 76
1, 4022, Note_on_c, 0, 79, 0
1, 4053, Note_on_c, 1, 58, 0
1, 4080, Note_on_c, 0, 75, 0
1, 4081, Note_on_c, 0, 80, 80
1, 4081, Note_on_c, 1, 58, 49
1, 4081, Note_on_c, 1, 65, 50
1, 4171, Note_on_c, 0, 77, 76
1, 4172, Note_on_c, 0, 80, 0
1, 4200, Note_on_c, 0, 77, 0
1, 4200, Note_on_c, 0, 74, 85
1, 4202, Note_on_c, 1, 65, 0
1, 4202, Note_on_c, 1, 58, 0
1, 4229, Note_on_c, 0, 74, 0
1, 4229, Note_on_c, 0, 75, 76
1, 4258, Note_on_c, 0, 75, 0
1, 4259, Note_on_c, 0, 77, 89
1, 4288, Note_on_c, 0, 77, 0
1, 4289, Note_on_c, 0, 78, 80
1, 4319, Note_on_c, 0, 79, 80
1, 4319, Note_on_c, 1, 63, 47
1, 4320, Note_on_c, 0, 78, 0
1, 4351, Note_on_c, 1, 63, 0
1, 4369, Note_on_c, 0, 79, 0
1, 4379, Note_on_c, 0, 79, 93
1, 4381, Note_on_c, 1, 63, 58
1, 4394, Note_on_c, 0, 79, 0
1, 4396, Note_on_c, 1, 63, 0
1, 4439, Note_on_c, 0, 80, 89
1, 4439, Note_on_c, 1, 63, 49
1, 4439, Note_on_c, 1, 65, 66
1, 4454, Note_on_c, 0, 80, 0
1, 4457, Note_on_c, 1, 65, 0
1, 4458, Note_on_c, 1, 63, 0
1, 4499, Note_on_c, 0, 81, 93
1, 4499, Note_on_c, 1, 66, 66
1, 4499, Note_on_c, 1, 63, 54
1, 4514, Note_on_c, 0, 81, 0
1, 4518, Note_on_c, 1, 63, 0
1, 4527, Note_on_c, 1, 66, 0
1, 4559, Note_on_c, 0, 82, 89
1, 4561, Note_on_c, 1, 63, 50
1, 4562, Note_on_c, 1, 67, 58
1, 4649, Note_on_c, 0, 82, 0
1, 4650, Note_on_c, 0, 84, 68
1, 4661, Note_on_c, 0, 82, 76
1, 4668, Note_on_c, 0, 84, 0
1, 4671, Note_on_c, 0, 82, 0
1, 4671, Note_on_c, 0, 80, 68
1, 4680, Note_on_c, 0, 79, 80
1, 4681, Note_on_c, 0, 80, 0
1, 4682, Note_on_c, 1, 67, 0
1, 4682, Note_on_c, 1, 63, 0
1, 4709, Note_on_c, 0, 80, 85
1, 4712, Note_on_c, 0, 79, 0
1, 4739, Note_on_c, 0, 80, 0
1, 4739, Note_on_c, 0, 82, 80
1, 4770, Note_on_c, 0, 82, 0
1, 4770, Note_on_c, 0, 83, 76
1, 4801, Note_on_c, 0, 83, 0
1, 4801, Note_on_c, 0, 84, 89
1, 4861, Note_on_c, 1, 68, 52
1, 4861, Note_on_c, 1, 75, 62
1, 4876, Note_on_c, 1, 68, 0
1, 4878, Note_on_c, 1, 75, 0
1, 4921, Note_on_c, 0, 82, 76
1, 4922, Note_on_c, 0, 84, 0
1, 4980, Note_on_c, 1, 75, 66
1, 4980, Note_on_c, 1, 66, 52
1, 5007, Note_on_c, 1, 66, 0
1, 5007, Note_on_c, 1, 75, 0
1, 5039, Note_on_c, 0, 81, 76
1, 5040, Note_on_c, 0, 82, 0
1, 5099, Note_on_c, 1, 75, 58
1, 5099, Note_on_c, 1, 65, 58
1, 5117, Note_on_c, 1, 65, 0
1, 5118, Note_on_c, 1, 75, 0
1, 5161, Note_on_c, 0, 80, 98
1, 5162, Note_on_c, 0, 81, 0
1, 5221, Note_on_c, 1, 59, 58
1, 5221, Note_on_c, 1, 62, 70
1, 5279, Note_on_c, 1, 59, 0
1, 5280, Note_on_c, 1, 62, 0
1, 5281, Note_on_c, 0, 79, 89
1, 5281, Note_on_c, 1, 60, 62
1, 5281, Note_on_c, 1, 63, 50
1, 5282, Note_on_c, 0, 80, 0
1, 5338, Note_on_c, 0, 79, 0
1, 5339, Note_on_c, 0, 87, 85
1, 5342, Note_on_c, 1, 60, 0
1, 5343, Note_on_c, 1, 63, 0
1, 5399, Note_on_c, 0, 77, 76
1, 5399, Note_on_c, 1, 56, 50
1, 5399, Note_on_c, 1, 60, 66
1, 5401, Note_on_c, 0, 87, 0
1, 5458, Note_on_c, 0, 77, 0
1, 5459, Note_on_c, 0, 84, 85
1, 5459, Note_on_c, 1, 68, 52
1, 5460, Note_on_c, 1, 60, 0
1, 5477, Note_on_c, 1, 68, 0
1, 5478, Note_on_c, 1, 56, 0
1, 5519, Note_on_c, 0, 75, 72
1, 5519, Note_on_c, 1, 58, 40
1, 5519, Note_on_c, 1, 67, 52
1, 5521, Note_on_c, 0, 84, 0
1, 5611, Note_on_c, 0, 77, 64
1, 5612, Note_on_c, 0, 75, 0
1, 5624, Note_on_c, 0, 77, 0
1, 5624, Note_on_c, 0, 75, 64
1, 5639, Note_on_c, 0, 74, 72
1, 5640, Note_on_c, 0, 75, 0
1, 5641, Note_on_c, 1, 65, 52
1, 5642, Note_on_c, 1, 67, 0
1, 5703, Note_on_c, 1, 65, 0
1, 5704, Note_on_c, 1, 58, 0
1, 5730, Note_on_c, 0, 74, 0
1, 5760, Note_on_c, 0, 70, 62
1, 5761, Note_on_c, 1, 51, 45
1, 5762, Note_on_c, 0, 67, 72
1, 5762, Note_on_c, 1, 39, 32
1, 5807, Note_on_c, 0, 70, 0
1, 5817, Note_on_c, 0, 67, 0
1, 5879, Note_on_c, 0, 63, 64
1, 5879, Note_on_c, 0, 67, 64
1, 5892, Note_on_c, 1, 39, 0
1, 5895, Note_on_c, 1, 51, 0
1, 5908, Note_on_c, 0, 67, 0
1, 5908, Note_on_c, 0, 63, 0
1, 5939, Note_on_c, 0, 65, 72
1, 5939, Note_on_c, 0, 58, 55
1, 5941, Note_on_c, 1, 46, 49
1, 5957, Note_on_c, 0, 65, 0
1, 5958, Note_on_c, 0, 58, 0
1, 5998, Note_on_c, 1, 46, 0
1, 5999, Note_on_c, 0, 63, 60
1, 5999, Note_on_c, 0, 55, 62
1, 6000, Note_on_c, 1, 51, 40
1, 6048, Note_on_c, 0, 55, 0
1, 6058, Note_on_c, 0, 63, 0
1, 6060, Note_on_c, 0, 58, 72
1, 6102, Note_on_c, 0, 58, 0
1, 6120, Note_on_c, 0, 63, 60
1, 6137, Note_on_c, 0, 63, 0
1, 6148, Note_on_c, 1, 51, 0
1, 6179, Note_on_c, 0, 65, 72
1, 6179, Note_on_c, 0, 62, 72
1, 6181, Note_on_c, 1, 46, 37
1, 6196, Note_on_c, 0, 62, 0
1, 6197, Note_on_c, 0, 65, 0
1, 6237, Note_on_c, 1, 46, 0
1, 6239, Note_on_c, 0, 63, 62
1, 6239, Note_on_c, 0, 67, 85
1, 6240, Note_on_c, 1, 51, 37
1, 6299, Note_on_c, 0, 68, 68
1, 6299, Note_on_c, 1, 51, 0
1, 6299, Note_on_c, 1, 48, 43
1, 6302, Note_on_c, 0, 67, 0
1, 6359, Note_on_c, 0, 70, 72
1, 6359, Note_on_c, 1, 43, 46
1, 6360, Note_on_c, 0, 68, 0
1, 6360, Note_on_c, 1, 48, 0
1, 6419, Note_on_c, 0, 70, 0
1, 6419, Note_on_c, 0, 72, 76
1, 6421, Note_on_c, 1, 44, 43
1, 6422, Note_on_c, 1, 43, 0
1, 6469, Note_on_c, 0, 72, 0
1, 6469, Note_on_c, 0, 63, 0
1, 6480, Note_on_c, 0, 63, 57
1, 6480, Note_on_c, 0, 67, 89
1, 6480, Note_on_c, 1, 46, 41
1, 6481, Note_on_c, 1, 44, 0
1, 6568, Note_on_c, 0, 67, 0
1, 6570, Note_on_c, 0, 63, 0
1, 6570, Note_on_c, 0, 68, 80
1, 6598, Note_on_c, 0, 68, 0
1, 6600, Note_on_c, 0, 65, 80
1, 6601, Note_on_c, 0, 62, 60
1, 6629, Note_on_c, 0, 67, 85
1, 6630, Note_on_c, 0, 65, 0
1, 6659, Note_on_c, 0, 67, 0
1, 6659, Note_on_c, 0, 68, 76
1, 6660, Note_on_c, 1, 46, 0
1, 6687, Note_on_c, 0, 68, 0
1, 6689, Note_on_c, 0, 69, 89
1, 6703, Note_on_c, 0, 62, 0
1, 6704, Note_on_c, 0, 69, 0
1, 6719, Note_on_c, 1, 67, 62
1, 6720, Note_on_c, 0, 70, 93
1, 6720, Note_on_c, 0, 82, 93
1, 6839, Note_on_c, 0, 79, 85
1, 6841, Note_on_c, 0, 82, 0
1, 6841, Note_on_c, 1, 63, 58
1, 6843, Note_on_c, 1, 67, 0
1, 6898, Note_on_c, 0, 79, 0
1, 6899, Note_on_c, 0, 77, 60
1, 6899, Note_on_c, 1, 63, 0
1, 6900, Note_on_c, 1, 58, 54
1, 6942, Note_on_c, 0, 77, 0
1, 6942, Note_on_c, 0, 70, 0
1, 6960, Note_on_c, 0, 75, 76
1, 6960, Note_on_c, 1, 55, 75
1, 6961, Note_on_c, 0, 70, 60
1, 6962, Note_on_c, 1, 58, 0
1, 6973, Note_on_c, 0, 75, 0
1, 6973, Note_on_c, 1, 55, 0
1, 6974, Note_on_c, 0, 70, 0
1, 7019, Note_on_c, 0, 74, 76
1, 7019, Note_on_c, 0, 77, 80
1, 7020, Note_on_c, 1, 58, 66
1, 7033, Note_on_c, 0, 74, 0
1, 7033, Note_on_c, 1, 58, 0
1, 7034, Note_on_c, 0, 77, 0
1, 7079, Note_on_c, 0, 75, 80
1, 7079, Note_on_c, 0, 79, 85
1, 7079, Note_on_c, 1, 63, 62
1, 7093, Note_on_c, 0, 75, 0
1, 7094, Note_on_c, 0, 79, 0
1, 7094, Note_on_c, 1, 63, 0
1, 7139, Note_on_c, 0, 80, 89
1, 7139, Note_on_c, 0, 75, 72
1, 7139, Note_on_c, 1, 60, 70
1, 7153, Note_on_c, 0, 75, 0
1, 7153, Note_on_c, 1, 60, 0
1, 7154, Note_on_c, 0, 80, 0
1, 7199, Note_on_c, 0, 82, 80
1, 7199, Note_on_c, 0, 75, 68
1, 7199, Note_on_c, 1, 55, 66
1, 7232, Note_on_c, 0, 82, 0
1, 7233, Note_on_c, 0, 75, 0
1, 7247, Note_on_c, 1, 55, 0
1, 7259, Note_on_c, 0, 83, 89
1, 7259, Note_on_c, 1, 56, 50
1, 7259, Note_on_c, 1, 65, 50
1, 7274, Note_on_c, 0, 83, 0
1, 7274, Note_on_c, 0, 84, 72
1, 7277, Note_on_c, 1, 56, 0
1, 7287, Note_on_c, 1, 65, 0
1, 7289, Note_on_c, 0, 80, 72
1, 7290, Note_on_c, 0, 84, 0
1, 7304, Note_on_c, 0, 77, 59
1, 7305, Note_on_c, 0, 80, 0
1, 7319, Note_on_c, 0, 77, 0
1, 7319, Note_on_c, 0, 75, 72
1, 7319, Note_on_c, 1, 58, 54
1, 7319, Note_on_c, 1, 67, 58
1, 7352, Note_on_c, 1, 67, 0
1, 7378, Note_on_c, 0, 75, 0
1, 7379, Note_on_c, 0, 79, 76
1, 7380, Note_on_c, 1, 68, 52
1, 7394, Note_on_c, 0, 77, 76
1, 7397, Note_on_c, 0, 79, 0
1, 7409, Note_on_c, 0, 76, 72
1, 7410, Note_on_c, 0, 77, 0
1, 7413, Note_on_c, 1, 68, 0
1, 7423, Note_on_c, 1, 58, 0
1, 7424, Note_on_c, 0, 76, 0
1, 7424, Note_on_c, 0, 77, 68
1, 7439, Note_on_c, 0, 77, 0
1, 7439, Note_on_c, 0, 74, 59
1, 7439, Note_on_c, 0, 77, 89
1, 7440, Note_on_c, 1, 68, 46
1, 7441, Note_on_c, 1, 63, 52
1, 7502, Note_on_c, 1, 68, 0
1, 7559, Note_on_c, 0, 75, 62
1, 7560, Note_on_c, 0, 77, 0
1, 7560, Note_on_c, 0, 74, 0
1, 7561, Note_on_c, 1, 67, 40
1, 7620, Note_on_c, 0, 75, 0
1, 7624, Note_on_c, 1, 67, 0
1, 7633, Note_on_c, 1, 63, 0
1, 7681, Note_on_c, 0, 75, 76
1, 7681, Note_on_c, 0, 79, 85
1, 7681, Note_on_c, 1, 48, 45
1, 7709, Note_on_c, 1, 48, 0
1, 7711, Note_on_c, 1, 60, 45
1, 7737, Note_on_c, 1, 60, 0
1, 7741, Note_on_c, 1, 60, 46
1, 7766, Note_on_c, 1, 60, 0
1, 7768, Note_on_c, 0, 75, 0
1, 7770, Note_on_c, 0, 74, 68
1, 7770, Note_on_c, 0, 77, 68
1, 7771, Note_on_c, 1, 60, 47
1, 7772, Note_on_c, 0, 79, 0
1, 7796, Note_on_c, 1, 60, 0
1, 7800, Note_on_c, 1, 60, 46
1, 7801, Note_on_c, 0, 72, 68
1, 7801, Note_on_c, 0, 75, 68
1, 7802, Note_on_c, 0, 77, 0
1, 7802, Note_on_c, 0, 74, 0
1, 7826, Note_on_c, 1, 60, 0
1, 7831, Note_on_c, 1, 60, 50
1, 7856, Note_on_c, 1, 60, 0
1, 7861, Note_on_c, 1, 60, 52
1, 7862, Note_on_c, 0, 72, 0
1, 7863, Note_on_c, 0, 75, 0
1, 7886, Note_on_c, 1, 60, 0
1, 7891, Note_on_c, 1, 60, 54
1, 7916, Note_on_c, 1, 60, 0
1, 7919, Note_on_c, 0, 77, 93
1, 7919, Note_on_c, 0, 80, 89
1, 7921, Note_on_c, 1, 47, 52
1, 7949, Note_on_c, 1, 59, 52
1, 7950, Note_on_c, 1, 47, 0
1, 7977, Note_on_c, 1, 59, 0
1, 7979, Note_on_c, 1, 59, 52
1, 8006, Note_on_c, 1, 59, 0
1, 8008, Note_on_c, 0, 77, 0
1, 8009, Note_on_c, 0, 75, 62
1, 8009, Note_on_c, 0, 79, 76
1, 8009, Note_on_c, 1, 59, 52
1, 8010, Note_on_c, 0, 80, 0
1, 8036, Note_on_c, 1, 59, 0
1, 8039, Note_on_c, 1, 59, 52
1, 8040, Note_on_c, 0, 79, 0
1, 8040, Note_on_c, 0, 75, 0
1, 8040, Note_on_c, 0, 74, 64
1, 8040, Note_on_c, 0, 77, 72
1, 8066, Note_on_c, 1, 59, 0
1, 8069, Note_on_c, 1, 59, 58
1, 8096, Note_on_c, 1, 59, 0
1, 8099, Note_on_c, 1, 59, 62
1, 8126, Note_on_c, 1, 59, 0
1, 8129, Note_on_c, 1, 59, 62
1, 8131, Note_on_c, 0, 77, 0
1, 8132, Note_on_c, 0, 74, 0
1, 8156, Note_on_c, 1, 59, 0
1, 8161, Note_on_c, 1, 60, 62
1, 8189, Note_on_c, 0, 75, 76
1, 8190, Note_on_c, 0, 72, 72
1, 8217, Note_on_c, 0, 72, 0
1, 8218, Note_on_c, 0, 75, 0
1, 8220, Note_on_c, 0, 74, 72
1, 8220, Note_on_c, 0, 77, 85
1, 8248, Note_on_c, 0, 77, 0
1, 8248, Note_on_c, 0, 74, 0
1, 8249, Note_on_c, 0, 75, 76
1, 8250, Note_on_c, 0, 79, 80
1, 8276, Note_on_c, 0, 79, 0
1, 8276, Note_on_c, 0, 75, 0
1, 8279, Note_on_c, 0, 79, 89
1, 8279, Note_on_c, 0, 75, 76
1, 8280, Note_on_c, 1, 60, 0
1, 8280, Note_on_c, 1, 56, 50
1, 8309, Note_on_c, 0, 75, 0
1, 8309, Note_on_c, 0, 74, 60
1, 8309, Note_on_c, 0, 77, 68
1, 8311, Note_on_c, 0, 79, 0
1, 8338, Note_on_c, 0, 77, 0
1, 8338, Note_on_c, 0, 74, 0
1, 8339, Note_on_c, 0, 77, 89
1, 8339, Note_on_c, 1, 56, 0
1, 8339, Note_on_c, 1, 54, 46
1, 8340, Note_on_c, 0, 74, 85
1, 8369, Note_on_c, 0, 72, 62
1, 8369, Note_on_c, 0, 75, 68
1, 8371, Note_on_c, 0, 74, 0
1, 8372, Note_on_c, 0, 77, 0
1, 8397, Note_on_c, 0, 72, 0
1, 8397, Note_on_c, 0, 75, 0
1, 8399, Note_on_c, 0, 75, 68
1, 8399, Note_on_c, 0, 72, 76
1, 8399, Note_on_c, 1, 54, 0
1, 8400, Note_on_c, 1, 55, 50
1, 8429, Note_on_c, 1, 55, 0
1, 8429, Note_on_c, 1, 43, 62
1, 8457, Note_on_c, 1, 43, 0
1, 8459, Note_on_c, 1, 55, 52
1, 8487, Note_on_c, 1, 55, 0
1, 8489, Note_on_c, 1, 55, 58
1, 8514, Note_on_c, 0, 72, 0
1, 8516, Note_on_c, 1, 55, 0
1, 8518, Note_on_c, 0, 75, 0
1, 8519, Note_on_c, 0, 71, 64
1, 8519, Note_on_c, 0, 74, 72
1, 8519, Note_on_c, 1, 55, 66
1, 8549, Note_on_c, 1, 55, 0
1, 8549, Note_on_c, 1, 53, 54
1, 8579, Note_on_c, 1, 53, 0
1, 8579, Note_on_c, 1, 51, 46
1, 8605, Note_on_c, 0, 74, 0
1, 8605, Note_on_c, 0, 71, 0
1, 8609, Note_on_c, 1, 50, 66
1, 8611, Note_on_c, 1, 51, 0
1, 8640, Note_on_c, 1, 50, 0
1, 8640, Note_on_c, 1, 48, 52
1, 8669, Note_on_c, 0, 75, 80
1, 8700, Note_on_c, 0, 72, 85
1, 8701, Note_on_c, 0, 75, 0
1, 8728, Note_on_c, 0, 72, 0
1, 8729, Note_on_c, 0, 68, 76
1, 8754, Note_on_c, 1, 48, 0
1, 8759, Note_on_c, 0, 68, 0
1, 8759, Note_on_c, 0, 67, 93
1, 8789, Note_on_c, 1, 60, 54
1, 8789, Note_on_c, 1, 63, 38
1, 8815, Note_on_c, 1, 60, 0
1, 8816, Note_on_c, 1, 63, 0
1, 8819, Note_on_c, 1, 63, 54
1, 8819, Note_on_c, 1, 60, 52
1, 8820, Note_on_c, 0, 67, 0
1, 8820, Note_on_c, 0, 66, 68
1, 8845, Note_on_c, 1, 60, 0
1, 8846, Note_on_c, 1, 63, 0
1, 8849, Note_on_c, 1, 63, 49
1, 8849, Note_on_c, 1, 60, 58
1, 8853, Note_on_c, 0, 66, 0
1, 8875, Note_on_c, 1, 60, 0
1, 8876, Note_on_c, 1, 63, 0
1, 8879, Note_on_c, 1, 58, 52
1, 8880, Note_on_c, 1, 62, 62
1, 8909, Note_on_c, 0, 82, 89
1, 8939, Note_on_c, 0, 82, 0
1, 8939, Note_on_c, 0, 79, 98
1, 8942, Note_on_c, 1, 62, 0
1, 8942, Note_on_c, 1, 58, 0
1, 8969, Note_on_c, 0, 79, 0
1, 8969, Note_on_c, 0, 75, 89
1, 8999, Note_on_c, 0, 74, 85
1, 9000, Note_on_c, 0, 75, 0
1, 9029, Note_on_c, 1, 67, 47
1, 9029, Note_on_c, 1, 64, 62
1, 9056, Note_on_c, 1, 64, 0
1, 9056, Note_on_c, 1, 67, 0
1, 9058, Note_on_c, 0, 74, 0
1, 9059, Note_on_c, 0, 73, 89
1, 9059, Note_on_c, 1, 64, 52
1, 9059, Note_on_c, 1, 67, 47
1, 9085, Note_on_c, 1, 67, 0
1, 9085, Note_on_c, 1, 64, 0
1, 9089, Note_on_c, 1, 64, 46
1, 9089, Note_on_c, 1, 67, 52
1, 9115, Note_on_c, 1, 64, 0
1, 9116, Note_on_c, 1, 67, 0
1, 9118, Note_on_c, 0, 73, 0
1, 9119, Note_on_c, 1, 62, 52
1, 9119, Note_on_c, 1, 66, 46
1, 9147, Note_on_c, 1, 66, 0
1, 9148, Note_on_c, 1, 62, 0
1, 9150, Note_on_c, 0, 74, 93
1, 9176, Note_on_c, 0, 74, 0
1, 9180, Note_on_c, 1, 63, 46
1, 9206, Note_on_c, 1, 63, 0
1, 9209, Note_on_c, 0, 70, 89
1, 9209, Note_on_c, 0, 67, 85
1, 9236, Note_on_c, 0, 67, 0
1, 9236, Note_on_c, 0, 70, 0
1, 9239, Note_on_c, 1, 60, 54
1, 9266, Note_on_c, 1, 60, 0
1, 9269, Note_on_c, 0, 69, 93
1, 9269, Note_on_c, 0, 72, 85
1, 9296, Note_on_c, 0, 72, 0
1, 9296, Note_on_c, 0, 69, 0
1, 9299, Note_on_c, 1, 62, 66
1, 9326, Note_on_c, 1, 62, 0
1, 9329, Note_on_c, 0, 66, 85
1, 9329, Note_on_c, 0, 69, 93
1, 9355, Note_on_c, 0, 69, 0
1, 9356, Note_on_c, 0, 66, 0
1, 9359, Note_on_c, 1, 55, 62
1, 9389, Note_on_c, 0, 67, 85
1, 9419, Note_on_c, 0, 69, 89
1, 9420, Note_on_c, 0, 67, 0
1, 9449, Note_on_c, 0, 71, 89
1, 9451, Note_on_c, 0, 69, 0
1, 9479, Note_on_c, 0, 71, 0
1, 9479, Note_on_c, 0, 72, 85
1, 9479, Note_on_c, 0, 69, 89
1, 9480, Note_on_c, 1, 55, 0
1, 9507, Note_on_c, 0, 69, 0
1, 9507, Note_on_c, 0, 72, 0
1, 9509, Note_on_c, 0, 74, 93
1, 9509, Note_on_c, 0, 71, 89
1, 9539, Note_on_c, 0, 71, 0
1, 9539, Note_on_c, 0, 74, 0
1, 9539, Note_on_c, 0, 75, 80
1, 9539, Note_on_c, 0, 72, 85
1, 9568, Note_on_c, 0, 72, 0
1, 9569, Note_on_c, 0, 75, 0
1, 9569, Note_on_c, 0, 74, 89
1, 9569, Note_on_c, 0, 77, 98
1, 9597, Note_on_c, 0, 74, 0
1, 9598, Note_on_c, 0, 77, 0
1, 9599, Note_on_c, 0, 75, 89
1, 9599, Note_on_c, 0, 79, 98
1, 9599, Note_on_c, 1, 48, 43
1, 9629, Note_on_c, 1, 60, 41
1, 9631, Note_on_c, 1, 48, 0
1, 9657, Note_on_c, 1, 60, 0
1, 9659, Note_on_c, 1, 60, 46
1, 9687, Note_on_c, 1, 60, 0
1, 9689, Note_on_c, 1, 60, 46
1, 9690, Note_on_c, 0, 75, 0
1, 9691, Note_on_c, 0, 77, 72
1, 9691, Note_on_c, 0, 74, 62
1, 9692, Note_on_c, 0, 79, 0
1, 9716, Note_on_c, 1, 60, 0
1, 9719, Note_on_c, 1, 60, 47
1, 9721, Note_on_c, 0, 74, 0
1, 9721, Note_on_c, 0, 75, 68
1, 9721, Note_on_c, 0, 72, 59
1, 9723, Note_on_c, 0, 77, 0
1, 9746, Note_on_c, 1, 60, 0
1, 9751, Note_on_c, 1, 60, 50
1, 9776, Note_on_c, 1, 60, 0
1, 9780, Note_on_c, 0, 72, 0
1, 9780, Note_on_c, 0, 75, 0
1, 9781, Note_on_c, 1, 60, 52
1, 9806, Note_on_c, 1, 60, 0
1, 9811, Note_on_c, 1, 60, 52
1, 9837, Note_on_c, 1, 60, 0
1, 9839, Note_on_c, 0, 77, 80
1, 9839, Note_on_c, 0, 80, 68
1, 9841, Note_on_c, 1, 47, 39
1, 9869, Note_on_c, 1, 47, 0
1, 9869, Note_on_c, 1, 59, 47
1, 9896, Note_on_c, 1, 59, 0
1, 9899, Note_on_c, 1, 59, 52
1, 9925, Note_on_c, 1, 59, 0
1, 9929, Note_on_c, 0, 75, 56
1, 9929, Note_on_c, 0, 79, 64
1, 9929, Note_on_c, 1, 59, 46
1, 9930, Note_on_c, 0, 77, 0
1, 9931, Note_on_c, 0, 80, 0
1, 9956, Note_on_c, 1, 59, 0
1, 9959, Note_on_c, 0, 75, 0
1, 9959, Note_on_c, 1, 59, 54
1, 9961, Note_on_c, 0, 79, 0
1, 9961, Note_on_c, 0, 74, 60
1, 9961, Note_on_c, 0, 77, 62
1, 9986, Note_on_c, 1, 59, 0
1, 9989, Note_on_c, 1, 59, 58
1, 10016, Note_on_c, 1, 59, 0
1, 10019, Note_on_c, 1, 59, 58
1, 10025, Note_on_c, 0, 77, 0
1, 10025, Note_on_c, 0, 74, 0
1, 10045, Note_on_c, 1, 59, 0
1, 10049, Note_on_c, 1, 59, 52
1, 10076, Note_on_c, 1, 59, 0
1, 10081, Note_on_c, 1, 60, 54
1, 10109, Note_on_c, 0, 75, 62
1, 10109, Note_on_c, 0, 72, 62
1, 10139, Note_on_c, 0, 75, 0
1, 10139, Note_on_c, 0, 77, 62
1, 10139, Note_on_c, 0, 74, 72
1, 10140, Note_on_c, 0, 72, 0
1, 10166, Note_on_c, 1, 60, 0
1, 10169, Note_on_c, 0, 74, 0
1, 10169, Note_on_c, 0, 77, 0
1, 10169, Note_on_c, 0, 75, 76
1, 10169, Note_on_c, 0, 79, 80
1, 10198, Note_on_c, 0, 79, 0
1, 10198, Note_on_c, 0, 75, 0
1, 10199, Note_on_c, 0, 75, 62
1, 10199, Note_on_c, 0, 79, 76
1, 10199, Note_on_c, 1, 56, 52
1, 10229, Note_on_c, 0, 77, 64
1, 10229, Note_on_c, 0, 74, 57
1, 10231, Note_on_c, 0, 79, 0
1, 10231, Note_on_c, 0, 75, 0
1, 10258, Note_on_c, 0, 77, 0
1, 10258, Note_on_c, 0, 74, 0
1, 10258, Note_on_c, 1, 56, 0
1, 10259, Note_on_c, 0, 77, 68
1, 10260, Note_on_c, 0, 74, 68
1, 10260, Note_on_c, 1, 54, 46
1, 10288, Note_on_c, 0, 74, 0
1, 10290, Note_on_c, 0, 72, 53
1, 10290, Note_on_c, 0, 75, 62
1, 10291, Note_on_c, 0, 77, 0
1, 10316, Note_on_c, 1, 54, 0
1, 10318, Note_on_c, 0, 75, 0
1, 10318, Note_on_c, 0, 72, 0
1, 10320, Note_on_c, 0, 75, 56
1, 10320, Note_on_c, 0, 72, 57
1, 10320, Note_on_c, 1, 55, 50
1, 10348, Note_on_c, 1, 55, 0
1, 10349, Note_on_c, 1, 43, 49
1, 10377, Note_on_c, 1, 43, 0
1, 10379, Note_on_c, 1, 55, 50
1, 10406, Note_on_c, 0, 75, 0
1, 10406, Note_on_c, 1, 55, 0
1, 10407, Note_on_c, 0, 72, 0
1, 10409, Note_on_c, 1, 55, 58
1, 10436, Note_on_c, 1, 55, 0
1, 10439, Note_on_c, 0, 71, 56
1, 10439, Note_on_c, 0, 74, 62
1, 10439, Note_on_c, 1, 55, 58
1, 10469, Note_on_c, 1, 55, 0
1, 10469, Note_on_c, 1, 53, 54
1, 10499, Note_on_c, 1, 51, 45
1, 10500, Note_on_c, 1, 53, 0
1, 10503, Note_on_c, 0, 74, 0
1, 10503, Note_on_c, 0, 71, 0
1, 10529, Note_on_c, 1, 51, 0
1, 10529, Note_on_c, 1, 50, 43
1, 10560, Note_on_c, 1, 48, 50
1, 10561, Note_on_c, 1, 50, 0
1, 10589, Note_on_c, 0, 75, 76
1, 10619, Note_on_c, 0, 72, 80
1, 10620, Note_on_c, 0, 75, 0
1, 10648, Note_on_c, 1, 48, 0
1, 10649, Note_on_c, 0, 72, 0
1, 10649, Note_on_c, 0, 68, 72
1, 10679, Note_on_c, 0, 67, 72
1, 10680, Note_on_c, 0, 68, 0
1, 10709, Note_on_c, 1, 63, 45
1, 10709, Note_on_c, 1, 60, 47
1, 10736, Note_on_c, 1, 60, 0
1, 10736, Note_on_c, 1, 63, 0
1, 10738, Note_on_c, 0, 67, 0
1, 10739, Note_on_c, 0, 66, 59
1, 10739, Note_on_c, 1, 63, 47
1, 10739, Note_on_c, 1, 60, 50
1, 10765, Note_on_c, 1, 60, 0
1, 10765, Note_on_c, 1, 63, 0
1, 10769, Note_on_c, 1, 63, 47
1, 10769, Note_on_c, 1, 60, 50
1, 10775, Note_on_c, 0, 66, 0
1, 10795, Note_on_c, 1, 60, 0
1, 10795, Note_on_c, 1, 63, 0
1, 10799, Note_on_c, 1, 58, 49
1, 10800, Note_on_c, 1, 62, 54
1, 10829, Note_on_c, 0, 82, 62
1, 10856, Note_on_c, 1, 58, 0
1, 10859, Note_on_c, 1, 62, 0
1, 10860, Note_on_c, 0, 79, 80
1, 10861, Note_on_c, 0, 82, 0
1, 10888, Note_on_c, 0, 79, 0
1, 10889, Note_on_c, 0, 75, 62
1, 10919, Note_on_c, 0, 75, 0
1, 10919, Note_on_c, 0, 74, 64
1, 10949, Note_on_c, 1, 64, 52
1, 10949, Note_on_c, 1, 67, 54
1, 10977, Note_on_c, 1, 64, 0
1, 10978, Note_on_c, 1, 67, 0
1, 10979, Note_on_c, 0, 73, 64
1, 10979, Note_on_c, 1, 64, 54
1, 10979, Note_on_c, 1, 67, 54
1, 10980, Note_on_c, 0, 74, 0
1, 11006, Note_on_c, 1, 67, 0
1, 11006, Note_on_c, 1, 64, 0
1, 11009, Note_on_c, 1, 64, 54
1, 11009, Note_on_c, 1, 67, 54
1, 11016, Note_on_c, 0, 73, 0
1, 11035, Note_on_c, 1, 64, 0
1, 11036, Note_on_c, 1, 67, 0
1, 11039, Note_on_c, 1, 62, 54
1, 11039, Note_on_c, 1, 66, 54
1, 11067, Note_on_c, 1, 66, 0
1, 11067, Note_on_c, 1, 62, 0
1, 11071, Note_on_c, 0, 74, 76
1, 11096, Note_on_c, 0, 74, 0
1, 11101, Note_on_c, 1, 63, 54
1, 11126, Note_on_c, 1, 63, 0
1, 11131, Note_on_c, 0, 70, 62
1, 11131, Note_on_c, 0, 67, 64
1, 11156, Note_on_c, 0, 67, 0
1, 11156, Note_on_c, 0, 70, 0
1, 11161, Note_on_c, 1, 60, 54
1, 11186, Note_on_c, 1, 60, 0
1, 11191, Note_on_c, 0, 72, 72
1, 11191, Note_on_c, 0, 69, 62
1, 11216, Note_on_c, 0, 69, 0
1, 11216, Note_on_c, 0, 72, 0
1, 11221, Note_on_c, 1, 62, 62
1, 11246, Note_on_c, 1, 62, 0
1, 11251, Note_on_c, 0, 66, 60
1, 11251, Note_on_c, 0, 69, 89
1, 11275, Note_on_c, 0, 69, 0
1, 11276, Note_on_c, 0, 66, 0
1, 11280, Note_on_c, 1, 55, 54
1, 11309, Note_on_c, 0, 67, 76
1, 11339, Note_on_c, 0, 67, 0
1, 11339, Note_on_c, 0, 69, 76
1, 11369, Note_on_c, 0, 71, 80
1, 11371, Note_on_c, 0, 69, 0
1, 11395, Note_on_c, 0, 71, 0
1, 11399, Note_on_c, 0, 72, 76
1, 11399, Note_on_c, 0, 69, 62
1, 11399, Note_on_c, 1, 55, 0
1, 11428, Note_on_c, 0, 69, 0
1, 11428, Note_on_c, 0, 72, 0
1, 11430, Note_on_c, 0, 74, 62
1, 11430, Note_on_c, 0, 71, 62
1, 11455, Note_on_c, 0, 71, 0
1, 11455, Note_on_c, 0, 74, 0
1, 11460, Note_on_c, 0, 75, 68
1, 11461, Note_on_c, 0, 72, 59
1, 11487, Note_on_c, 0, 72, 0
1, 11487, Note_on_c, 0, 75, 0
1, 11489, Note_on_c, 0, 77, 68
1, 11490, Note_on_c, 0, 74, 76
1, 11515, Note_on_c, 0, 74, 0
1, 11516, Note_on_c, 0, 77, 0
1, 11520, Note_on_c, 0, 79, 62
1, 11520, Note_on_c, 0, 76, 62
1, 11521, Note_on_c, 1, 60, 47
1, 11549, Note_on_c, 1, 60, 0
1, 11549, Note_on_c, 1, 70, 41
1, 11550, Note_on_c, 1, 67, 50
1, 11575, Note_on_c, 1, 67, 0
1, 11576, Note_on_c, 1, 70, 0
1, 11580, Note_on_c, 1, 70, 41
1, 11581, Note_on_c, 1, 67, 52
1, 11605, Note_on_c, 1, 70, 0
1, 11606, Note_on_c, 1, 67, 0
1, 11611, Note_on_c, 1, 70, 42
1, 11611, Note_on_c, 1, 67, 52
1, 11636, Note_on_c, 1, 67, 0
1, 11636, Note_on_c, 1, 70, 0
1, 11640, Note_on_c, 0, 76, 0
1, 11640, Note_on_c, 0, 79, 0
1, 11640, Note_on_c, 0, 77, 72
1, 11640, Note_on_c, 0, 80, 64
1, 11641, Note_on_c, 1, 60, 49
1, 11669, Note_on_c, 1, 68, 43
1, 11670, Note_on_c, 1, 65, 50
1, 11671, Note_on_c, 1, 60, 0
1, 11695, Note_on_c, 1, 65, 0
1, 11696, Note_on_c, 1, 68, 0
1, 11700, Note_on_c, 1, 68, 42
1, 11701, Note_on_c, 1, 65, 52
1, 11725, Note_on_c, 1, 68, 0
1, 11726, Note_on_c, 1, 65, 0
1, 11730, Note_on_c, 1, 68, 40
1, 11731, Note_on_c, 1, 65, 47
1, 11755, Note_on_c, 1, 65, 0
1, 11755, Note_on_c, 1, 68, 0
1, 11757, Note_on_c, 0, 80, 0
1, 11758, Note_on_c, 0, 77, 0
1, 11759, Note_on_c, 0, 82, 59
1, 11759, Note_on_c, 0, 79, 80
1, 11761, Note_on_c, 1, 60, 62
1, 11789, Note_on_c, 1, 60, 0
1, 11791, Note_on_c, 1, 67, 45
1, 11791, Note_on_c, 1, 64, 47
1, 11815, Note_on_c, 1, 64, 0
1, 11816, Note_on_c, 1, 67, 0
1, 11820, Note_on_c, 1, 67, 46
1, 11821, Note_on_c, 1, 64, 40
1, 11845, Note_on_c, 1, 64, 0
1, 11845, Note_on_c, 1, 67, 0
1, 11851, Note_on_c, 1, 64, 42
1, 11851, Note_on_c, 1, 67, 47
1, 11876, Note_on_c, 1, 67, 0
1, 11876, Note_on_c, 1, 64, 0
1, 11878, Note_on_c, 0, 79, 0
1, 11879, Note_on_c, 0, 82, 0
1, 11879, Note_on_c, 0, 80, 57
1, 11879, Note_on_c, 0, 77, 62
1, 11880, Note_on_c, 1, 60, 58
1, 11908, Note_on_c, 1, 60, 0
1, 11909, Note_on_c, 1, 68, 40
1, 11910, Note_on_c, 1, 65, 50
1, 11934, Note_on_c, 1, 65, 0
1, 11935, Note_on_c, 1, 68, 0
1, 11940, Note_on_c, 1, 59, 79
1, 11964, Note_on_c, 0, 77, 0
1, 11964, Note_on_c, 0, 80, 0
1, 11971, Note_on_c, 1, 68, 47
1, 11971, Note_on_c, 1, 65, 52
1, 11973, Note_on_c, 1, 59, 0
1, 11995, Note_on_c, 1, 65, 0
1, 11996, Note_on_c, 1, 68, 0
1, 12001, Note_on_c, 0, 74, 62
1, 12001, Note_on_c, 0, 77, 72
1, 12001, Note_on_c, 1, 58, 58
1, 12031, Note_on_c, 1, 68, 50
1, 12031, Note_on_c, 1, 65, 35
1, 12035, Note_on_c, 1, 58, 0
1, 12055, Note_on_c, 1, 65, 0
1, 12056, Note_on_c, 1, 68, 0
1, 12061, Note_on_c, 1, 68, 34
1, 12061, Note_on_c, 1, 65, 33
1, 12085, Note_on_c, 1, 65, 0
1, 12085, Note_on_c, 1, 68, 0
1, 12091, Note_on_c, 1, 68, 45
1, 12091, Note_on_c, 1, 65, 34
1, 12115, Note_on_c, 1, 65, 0
1, 12116, Note_on_c, 1, 68, 0
1, 12118, Note_on_c, 0, 77, 0
1, 12118, Note_on_c, 0, 74, 0
1, 12120, Note_on_c, 0, 75, 55
1, 12120, Note_on_c, 0, 79, 57
1, 12121, Note_on_c, 1, 58, 40
1, 12150, Note_on_c, 1, 67, 42
1, 12150, Note_on_c, 1, 63, 41
1, 12174, Note_on_c, 1, 63, 0
1, 12174, Note_on_c, 1, 67, 0
1, 12176, Note_on_c, 1, 58, 0
1, 12179, Note_on_c, 1, 63, 37
1, 12180, Note_on_c, 1, 67, 45
1, 12204, Note_on_c, 1, 67, 0
1, 12205, Note_on_c, 1, 63, 0
1, 12209, Note_on_c, 1, 67, 45
1, 12209, Note_on_c, 1, 63, 34
1, 12235, Note_on_c, 0, 79, 0
1, 12235, Note_on_c, 1, 63, 0
1, 12235, Note_on_c, 1, 67, 0
1, 12236, Note_on_c, 0, 75, 0
1, 12239, Note_on_c, 1, 58, 46
1, 12241, Note_on_c, 0, 77, 56
1, 12241, Note_on_c, 0, 80, 49
1, 12271, Note_on_c, 1, 65, 45
1, 12271, Note_on_c, 1, 62, 38
1, 12295, Note_on_c, 1, 62, 0
1, 12295, Note_on_c, 1, 65, 0
1, 12295, Note_on_c, 1, 58, 0
1, 12301, Note_on_c, 1, 65, 40
1, 12301, Note_on_c, 1, 62, 43
1, 12325, Note_on_c, 1, 62, 0
1, 12325, Note_on_c, 1, 65, 0
1, 12330, Note_on_c, 1, 65, 45
1, 12331, Note_on_c, 1, 62, 40
1, 12355, Note_on_c, 1, 62, 0
1, 12355, Note_on_c, 1, 65, 0
1, 12358, Note_on_c, 0, 80, 0
1, 12359, Note_on_c, 0, 79, 49
1, 12360, Note_on_c, 0, 77, 0
1, 12360, Note_on_c, 0, 75, 52
1, 12361, Note_on_c, 1, 58, 52
1, 12389, Note_on_c, 1, 63, 37
1, 12389, Note_on_c, 1, 67, 37
1, 12415, Note_on_c, 1, 67, 0
1, 12415, Note_on_c, 1, 63, 0
1, 12419, Note_on_c, 1, 67, 46
1, 12419, Note_on_c, 1, 63, 45
1, 12424, Note_on_c, 0, 75, 0
1, 12424, Note_on_c, 0, 79, 0
1, 12424, Note_on_c, 1, 58, 0
1, 12445, Note_on_c, 1, 63, 0
1, 12445, Note_on_c, 1, 67, 0
1, 12449, Note_on_c, 1, 67, 47
1, 12449, Note_on_c, 1, 63, 47
1, 12474, Note_on_c, 1, 63, 0
1, 12475, Note_on_c, 1, 67, 0
1, 12479, Note_on_c, 1, 57, 79
1, 12479, Note_on_c, 1, 60, 70
1, 12511, Note_on_c, 0, 78, 60
1, 12541, Note_on_c, 0, 78, 0
1, 12541, Note_on_c, 0, 79, 76
1, 12569, Note_on_c, 0, 79, 0
1, 12570, Note_on_c, 0, 78, 68
1, 12598, Note_on_c, 1, 57, 0
1, 12599, Note_on_c, 0, 78, 0
1, 12599, Note_on_c, 0, 86, 76
1, 12599, Note_on_c, 1, 60, 0
1, 12629, Note_on_c, 1, 59, 62
1, 12629, Note_on_c, 1, 67, 66
1, 12656, Note_on_c, 1, 67, 0
1, 12656, Note_on_c, 1, 59, 0
1, 12657, Note_on_c, 0, 86, 0
1, 12658, Note_on_c, 0, 77, 72
1, 12659, Note_on_c, 1, 59, 62
1, 12659, Note_on_c, 1, 67, 75
1, 12685, Note_on_c, 1, 59, 0
1, 12686, Note_on_c, 1, 67, 0
1, 12689, Note_on_c, 1, 59, 54
1, 12689, Note_on_c, 1, 67, 66
1, 12715, Note_on_c, 1, 67, 0
1, 12716, Note_on_c, 1, 59, 0
1, 12719, Note_on_c, 1, 67, 62
1, 12719, Note_on_c, 1, 60, 66
1, 12720, Note_on_c, 0, 77, 0
1, 12749, Note_on_c, 0, 76, 72
1, 12751, Note_on_c, 1, 67, 0
1, 12752, Note_on_c, 1, 60, 0
1, 12779, Note_on_c, 0, 77, 76
1, 12781, Note_on_c, 0, 76, 0
1, 12809, Note_on_c, 0, 77, 0
1, 12809, Note_on_c, 0, 76, 76
1, 12839, Note_on_c, 0, 76, 0
1, 12839, Note_on_c, 0, 84, 85
1, 12869, Note_on_c, 1, 60, 52
1, 12869, Note_on_c, 1, 56, 52
1, 12895, Note_on_c, 1, 56, 0
1, 12896, Note_on_c, 1, 60, 0
1, 12899, Note_on_c, 1, 60, 47
1, 12899, Note_on_c, 1, 56, 46
1, 12900, Note_on_c, 0, 75, 62
1, 12902, Note_on_c, 0, 84, 0
1, 12925, Note_on_c, 1, 56, 0
1, 12926, Note_on_c, 1, 60, 0
1, 12929, Note_on_c, 1, 56, 49
1, 12929, Note_on_c, 1, 60, 54
1, 12955, Note_on_c, 1, 60, 0
1, 12955, Note_on_c, 1, 56, 0
1, 12959, Note_on_c, 1, 56, 45
1, 12960, Note_on_c, 1, 53, 50
1, 12961, Note_on_c, 0, 75, 0
1, 12989, Note_on_c, 0, 73, 64
1, 13019, Note_on_c, 0, 72, 72
1, 13020, Note_on_c, 0, 73, 0
1, 13049, Note_on_c, 0, 72, 0
1, 13049, Note_on_c, 0, 73, 72
1, 13078, Note_on_c, 1, 53, 0
1, 13078, Note_on_c, 1, 56, 0
1, 13079, Note_on_c, 0, 76, 76
1, 13080, Note_on_c, 0, 73, 0
1, 13109, Note_on_c, 0, 77, 64
1, 13112, Note_on_c, 0, 76, 0
1, 13140, Note_on_c, 0, 79, 80
1, 13142, Note_on_c, 0, 77, 0
1, 13169, Note_on_c, 0, 80, 72
1, 13171, Note_on_c, 0, 79, 0
1, 13200, Note_on_c, 1, 63, 50
1, 13201, Note_on_c, 0, 80, 0
1, 13201, Note_on_c, 0, 72, 60
1, 13201, Note_on_c, 1, 55, 54
1, 13229, Note_on_c, 1, 63, 0
1, 13231, Note_on_c, 1, 64, 54
1, 13261, Note_on_c, 1, 64, 0
1, 13261, Note_on_c, 1, 65, 54
1, 13289, Note_on_c, 1, 65, 0
1, 13290, Note_on_c, 1, 66, 50
1, 13316, Note_on_c, 1, 55, 0
1, 13318, Note_on_c, 0, 72, 0
1, 13318, Note_on_c, 1, 66, 0
1, 13319, Note_on_c, 0, 71, 80
1, 13321, Note_on_c, 1, 67, 54
1, 13321, Note_on_c, 1, 55, 45
1, 13349, Note_on_c, 0, 74, 85
1, 13351, Note_on_c, 0, 71, 0
1, 13378, Note_on_c, 1, 67, 0
1, 13379, Note_on_c, 0, 74, 0
1, 13379, Note_on_c, 0, 75, 60
1, 13379, Note_on_c, 1, 55, 0
1, 13409, Note_on_c, 0, 77, 76
1, 13411, Note_on_c, 0, 75, 0
1, 13438, Note_on_c, 1, 48, 62
1, 13439, Note_on_c, 0, 77, 0
1, 13439, Note_on_c, 0, 75, 76
1, 13439, Note_on_c, 0, 79, 93
1, 13469, Note_on_c, 1, 48, 0
1, 13469, Note_on_c, 1, 60, 46
1, 13497, Note_on_c, 1, 60, 0
1, 13499, Note_on_c, 1, 60, 47
1, 13526, Note_on_c, 1, 60, 0
1, 13529, Note_on_c, 1, 60, 50
1, 13530, Note_on_c, 0, 74, 72
1, 13531, Note_on_c, 0, 75, 0
1, 13531, Note_on_c, 0, 77, 62
1, 13532, Note_on_c, 0, 79, 0
1, 13556, Note_on_c, 1, 60, 0
1, 13559, Note_on_c, 1, 60, 54
1, 13560, Note_on_c, 0, 74, 0
1, 13561, Note_on_c, 0, 77, 0
1, 13561, Note_on_c, 0, 75, 68
1, 13561, Note_on_c, 0, 72, 76
1, 13587, Note_on_c, 1, 60, 0
1, 13589, Note_on_c, 1, 60, 58
1, 13616, Note_on_c, 1, 60, 0
1, 13620, Note_on_c, 1, 60, 66
1, 13622, Note_on_c, 0, 72, 0
1, 13623, Note_on_c, 0, 75, 0
1, 13645, Note_on_c, 1, 60, 0
1, 13649, Note_on_c, 1, 60, 50
1, 13676, Note_on_c, 1, 60, 0
1, 13680, Note_on_c, 0, 77, 89
1, 13680, Note_on_c, 0, 80, 89
1, 13680, Note_on_c, 1, 47, 46
1, 13708, Note_on_c, 1, 47, 0
1, 13709, Note_on_c, 1, 59, 45
1, 13736, Note_on_c, 1, 59, 0
1, 13740, Note_on_c, 1, 59, 58
1, 13765, Note_on_c, 0, 80, 0
1, 13765, Note_on_c, 0, 77, 0
1, 13766, Note_on_c, 1, 59, 0
1, 13769, Note_on_c, 0, 79, 80
1, 13769, Note_on_c, 0, 75, 64
1, 13770, Note_on_c, 1, 59, 62
1, 13795, Note_on_c, 1, 59, 0
1, 13799, Note_on_c, 1, 59, 58
1, 13800, Note_on_c, 0, 75, 0
1, 13801, Note_on_c, 0, 77, 80
1, 13801, Note_on_c, 0, 74, 64
1, 13802, Note_on_c, 0, 79, 0
1, 13826, Note_on_c, 1, 59, 0
1, 13830, Note_on_c, 1, 59, 66
1, 13855, Note_on_c, 1, 59, 0
1, 13860, Note_on_c, 1, 59, 70
1, 13862, Note_on_c, 0, 74, 0
1, 13862, Note_on_c, 0, 77, 0
1, 13885, Note_on_c, 1, 59, 0
1, 13889, Note_on_c, 1, 59, 66
1, 13916, Note_on_c, 1, 59, 0
1, 13921, Note_on_c, 1, 60, 52
1, 13949, Note_on_c, 0, 75, 76
1, 13950, Note_on_c, 0, 72, 68
1, 13979, Note_on_c, 0, 72, 0
1, 13979, Note_on_c, 0, 75, 0
1, 13979, Note_on_c, 0, 77, 76
1, 13979, Note_on_c, 0, 74, 85
1, 14008, Note_on_c, 0, 74, 0
1, 14009, Note_on_c, 0, 77, 0
1, 14009, Note_on_c, 0, 75, 72
1, 14009, Note_on_c, 0, 79, 85
1, 14037, Note_on_c, 0, 79, 0
1, 14037, Note_on_c, 0, 75, 0
1, 14038, Note_on_c, 1, 60, 0
1, 14039, Note_on_c, 0, 75, 62
1, 14039, Note_on_c, 0, 79, 80
1, 14039, Note_on_c, 1, 56, 50
1, 14069, Note_on_c, 0, 75, 0
1, 14069, Note_on_c, 0, 74, 76
1, 14069, Note_on_c, 0, 77, 72
1, 14071, Note_on_c, 0, 79, 0
1, 14098, Note_on_c, 0, 77, 0
1, 14098, Note_on_c, 0, 74, 0
1, 14099, Note_on_c, 0, 77, 85
1, 14099, Note_on_c, 0, 74, 80
1, 14099, Note_on_c, 1, 54, 50
1, 14101, Note_on_c, 1, 56, 0
1, 14129, Note_on_c, 0, 72, 64
1, 14130, Note_on_c, 0, 74, 0
1, 14130, Note_on_c, 0, 75, 64
1, 14132, Note_on_c, 0, 77, 0
1, 14158, Note_on_c, 0, 75, 0
1, 14158, Note_on_c, 0, 72, 0
1, 14159, Note_on_c, 0, 75, 72
1, 14159, Note_on_c, 1, 54, 0
1, 14160, Note_on_c, 0, 72, 80
1, 14160, Note_on_c, 1, 55, 50
1, 14190, Note_on_c, 1, 55, 0
1, 14190, Note_on_c, 1, 43, 45
1, 14220, Note_on_c, 1, 43, 0
1, 14221, Note_on_c, 1, 55, 58
1, 14248, Note_on_c, 1, 55, 0
1, 14250, Note_on_c, 0, 75, 0
1, 14250, Note_on_c, 1, 55, 58
1, 14252, Note_on_c, 0, 72, 0
1, 14275, Note_on_c, 1, 55, 0
1, 14279, Note_on_c, 0, 71, 60
1, 14279, Note_on_c, 0, 74, 62
1, 14280, Note_on_c, 1, 55, 62
1, 14309, Note_on_c, 1, 55, 0
1, 14309, Note_on_c, 1, 53, 62
1, 14339, Note_on_c, 1, 53, 0
1, 14339, Note_on_c, 1, 51, 49
1, 14344, Note_on_c, 0, 74, 0
1, 14344, Note_on_c, 0, 71, 0
1, 14369, Note_on_c, 1, 51, 0
1, 14369, Note_on_c, 1, 50, 62
1, 14399, Note_on_c, 1, 50, 0
1, 14399, Note_on_c, 1, 48, 54
1, 14429, Note_on_c, 0, 79, 89
1, 14459, Note_on_c, 0, 75, 72
1, 14461, Note_on_c, 0, 79, 0
1, 14489, Note_on_c, 0, 75, 0
1, 14489, Note_on_c, 0, 71, 80
1, 14519, Note_on_c, 0, 74, 80
1, 14519, Note_on_c, 1, 48, 0
1, 14520, Note_on_c, 0, 71, 0
1, 14549, Note_on_c, 1, 63, 42
1, 14549, Note_on_c, 1, 67, 54
1, 14576, Note_on_c, 1, 67, 0
1, 14576, Note_on_c, 1, 63, 0
1, 14579, Note_on_c, 0, 72, 76
1, 14579, Note_on_c, 1, 67, 54
1, 14579, Note_on_c, 1, 63, 42
1, 14580, Note_on_c, 0, 74, 0
1, 14606, Note_on_c, 1, 63, 0
1, 14606, Note_on_c, 1, 67, 0
1, 14609, Note_on_c, 1, 67, 58
1, 14609, Note_on_c, 1, 63, 42
1, 14636, Note_on_c, 1, 63, 0
1, 14636, Note_on_c, 1, 67, 0
1, 14639, Note_on_c, 1, 68, 47
1, 14639, Note_on_c, 1, 65, 62
1, 14642, Note_on_c, 0, 72, 0
1, 14669, Note_on_c, 0, 84, 80
1, 14674, Note_on_c, 1, 65, 0
1, 14675, Note_on_c, 1, 68, 0
1, 14699, Note_on_c, 0, 84, 0
1, 14699, Note_on_c, 0, 80, 80
1, 14729, Note_on_c, 0, 80, 0
1, 14729, Note_on_c, 0, 76, 76
1, 14759, Note_on_c, 0, 79, 80
1, 14761, Note_on_c, 0, 76, 0
1, 14789, Note_on_c, 1, 72, 52
1, 14789, Note_on_c, 1, 68, 47
1, 14816, Note_on_c, 1, 68, 0
1, 14816, Note_on_c, 1, 72, 0
1, 14818, Note_on_c, 0, 79, 0
1, 14819, Note_on_c, 0, 78, 62
1, 14819, Note_on_c, 1, 68, 50
1, 14819, Note_on_c, 1, 72, 54
1, 14846, Note_on_c, 1, 72, 0
1, 14846, Note_on_c, 1, 68, 0
1, 14849, Note_on_c, 1, 68, 46
1, 14849, Note_on_c, 1, 72, 47
1, 14875, Note_on_c, 1, 68, 0
1, 14876, Note_on_c, 1, 72, 0
1, 14878, Note_on_c, 0, 78, 0
1, 14879, Note_on_c, 1, 71, 62
1, 14879, Note_on_c, 1, 67, 54
1, 14905, Note_on_c, 1, 67, 0
1, 14905, Note_on_c, 1, 71, 0
1, 14910, Note_on_c, 0, 79, 85
1, 14935, Note_on_c, 0, 79, 0
1, 14940, Note_on_c, 1, 68, 52
1, 14965, Note_on_c, 1, 68, 0
1, 14969, Note_on_c, 0, 72, 76
1, 14969, Note_on_c, 0, 75, 76
1, 14996, Note_on_c, 0, 75, 0
1, 14996, Note_on_c, 0, 72, 0
1, 15000, Note_on_c, 1, 65, 66
1, 15025, Note_on_c, 1, 65, 0
1, 15031, Note_on_c, 0, 74, 80
1, 15031, Note_on_c, 0, 77, 72
1, 15056, Note_on_c, 0, 77, 0
1, 15056, Note_on_c, 0, 74, 0
1, 15061, Note_on_c, 1, 67, 58
1, 15086, Note_on_c, 1, 67, 0
1, 15091, Note_on_c, 0, 74, 76
1, 15091, Note_on_c, 0, 71, 72
1, 15116, Note_on_c, 0, 71, 0
1, 15116, Note_on_c, 0, 74, 0
1, 15121, Note_on_c, 1, 60, 50
1, 15149, Note_on_c, 0, 71, 72
1, 15179, Note_on_c, 0, 72, 72
1, 15181, Note_on_c, 0, 71, 0
1, 15209, Note_on_c, 0, 72, 0
1, 15209, Note_on_c, 0, 71, 68
1, 15236, Note_on_c, 1, 60, 0
1, 15239, Note_on_c, 0, 71, 0
1, 15239, Note_on_c, 0, 72, 80
1, 15269, Note_on_c, 0, 71, 64
1, 15269, Note_on_c, 0, 74, 60
1, 15270, Note_on_c, 0, 72, 0
1, 15299, Note_on_c, 0, 74, 0
1, 15299, Note_on_c, 0, 71, 0
1, 15299, Note_on_c, 0, 76, 68
1, 15299, Note_on_c, 0, 72, 62
1, 15328, Note_on_c, 0, 72, 0
1, 15329, Note_on_c, 0, 76, 0
1, 15329, Note_on_c, 0, 77, 59
1, 15329, Note_on_c, 0, 74, 76
1, 15356, Note_on_c, 0, 74, 0
1, 15356, Note_on_c, 0, 77, 0
1, 15359, Note_on_c, 0, 79, 76
1, 15359, Note_on_c, 0, 76, 85
1, 15361, Note_on_c, 1, 60, 52
1, 15389, Note_on_c, 1, 60, 0
1, 15389, Note_on_c, 1, 70, 46
1, 15389, Note_on_c, 1, 67, 54
1, 15415, Note_on_c, 1, 67, 0
1, 15416, Note_on_c, 1, 70, 0
1, 15419, Note_on_c, 1, 70, 36
1, 15420, Note_on_c, 1, 67, 43
1, 15445, Note_on_c, 1, 67, 0
1, 15446, Note_on_c, 1, 70, 0
1, 15449, Note_on_c, 1, 70, 42
1, 15450, Note_on_c, 1, 67, 43
1, 15475, Note_on_c, 1, 67, 0
1, 15476, Note_on_c, 1, 70, 0
1, 15479, Note_on_c, 0, 80, 59
1, 15480, Note_on_c, 0, 76, 0
1, 15480, Note_on_c, 0, 79, 0
1, 15480, Note_on_c, 0, 77, 64
1, 15481, Note_on_c, 1, 60, 50
1, 15509, Note_on_c, 1, 68, 40
1, 15509, Note_on_c, 1, 65, 54
1, 15513, Note_on_c, 1, 60, 0
1, 15535, Note_on_c, 1, 65, 0
1, 15536, Note_on_c, 1, 68, 0
1, 15540, Note_on_c, 1, 68, 32
1, 15541, Note_on_c, 1, 65, 40
1, 15565, Note_on_c, 1, 68, 0
1, 15566, Note_on_c, 1, 65, 0
1, 15570, Note_on_c, 1, 68, 35
1, 15571, Note_on_c, 1, 65, 47
1, 15595, Note_on_c, 1, 68, 0
1, 15596, Note_on_c, 1, 65, 0
1, 15597, Note_on_c, 0, 80, 0
1, 15598, Note_on_c, 0, 77, 0
1, 15599, Note_on_c, 0, 79, 80
1, 15599, Note_on_c, 0, 82, 68
1, 15601, Note_on_c, 1, 60, 52
1, 15630, Note_on_c, 1, 64, 47
1, 15630, Note_on_c, 1, 67, 45
1, 15631, Note_on_c, 1, 60, 0
1, 15654, Note_on_c, 1, 64, 0
1, 15655, Note_on_c, 1, 67, 0
1, 15659, Note_on_c, 1, 64, 41
1, 15659, Note_on_c, 1, 67, 46
1, 15685, Note_on_c, 1, 67, 0
1, 15685, Note_on_c, 1, 64, 0
1, 15689, Note_on_c, 1, 64, 39
1, 15689, Note_on_c, 1, 67, 50
1, 15715, Note_on_c, 1, 67, 0
1, 15715, Note_on_c, 1, 64, 0
1, 15719, Note_on_c, 0, 77, 72
1, 15719, Note_on_c, 0, 80, 62
1, 15720, Note_on_c, 0, 79, 0
1, 15720, Note_on_c, 1, 60, 52
1, 15722, Note_on_c, 0, 82, 0
1, 15748, Note_on_c, 1, 60, 0
1, 15749, Note_on_c, 1, 68, 54
1, 15749, Note_on_c, 1, 65, 47
1, 15775, Note_on_c, 1, 65, 0
1, 15775, Note_on_c, 1, 68, 0
1, 15780, Note_on_c, 1, 59, 66
1, 15805, Note_on_c, 0, 77, 0
1, 15805, Note_on_c, 0, 80, 0
1, 15811, Note_on_c, 1, 68, 52
1, 15811, Note_on_c, 1, 65, 52
1, 15812, Note_on_c, 1, 59, 0
1, 15836, Note_on_c, 1, 65, 0
1, 15836, Note_on_c, 1, 68, 0
1, 15841, Note_on_c, 0, 74, 76
1, 15841, Note_on_c, 0, 77, 80
1, 15841, Note_on_c, 1, 58, 46
1, 15871, Note_on_c, 1, 68, 46
1, 15871, Note_on_c, 1, 65, 40
1, 15873, Note_on_c, 1, 58, 0
1, 15895, Note_on_c, 1, 65, 0
1, 15895, Note_on_c, 1, 68, 0
1, 15901, Note_on_c, 1, 68, 34
1, 15901, Note_on_c, 1, 65, 41
1, 15925, Note_on_c, 1, 65, 0
1, 15925, Note_on_c, 1, 68, 0
1, 15930, Note_on_c, 1, 68, 40
1, 15931, Note_on_c, 1, 65, 39
1, 15955, Note_on_c, 1, 65, 0
1, 15955, Note_on_c, 1, 68, 0
1, 15958, Note_on_c, 0, 77, 0
1, 15959, Note_on_c, 0, 74, 0
1, 15960, Note_on_c, 0, 75, 68
1, 15960, Note_on_c, 0, 79, 62
1, 15961, Note_on_c, 1, 58, 47
1, 15991, Note_on_c, 1, 63, 33
1, 15991, Note_on_c, 1, 67, 29
1, 16015, Note_on_c, 1, 63, 0
1, 16016, Note_on_c, 1, 67, 0
1, 16019, Note_on_c, 1, 67, 38
1, 16020, Note_on_c, 1, 63, 40
1, 16025, Note_on_c, 0, 75, 0
1, 16025, Note_on_c, 1, 58, 0
1, 16026, Note_on_c, 0, 79, 0
1, 16044, Note_on_c, 1, 63, 0
1, 16045, Note_on_c, 1, 67, 0
1, 16049, Note_on_c, 1, 67, 40
1, 16049, Note_on_c, 1, 63, 39
1, 16075, Note_on_c, 1, 63, 0
1, 16075, Note_on_c, 1, 67, 0
1, 16079, Note_on_c, 0, 77, 76
1, 16079, Note_on_c, 0, 80, 62
1, 16080, Note_on_c, 1, 58, 42
1, 16109, Note_on_c, 1, 65, 45
1, 16109, Note_on_c, 1, 62, 46
1, 16135, Note_on_c, 1, 62, 0
1, 16135, Note_on_c, 1, 65, 0
1, 16139, Note_on_c, 1, 65, 47
1, 16139, Note_on_c, 1, 62, 40
1, 16141, Note_on_c, 1, 58, 0
1, 16165, Note_on_c, 1, 62, 0
1, 16165, Note_on_c, 1, 65, 0
1, 16169, Note_on_c, 1, 62, 36
1, 16169, Note_on_c, 1, 65, 42
1, 16195, Note_on_c, 1, 65, 0
1, 16195, Note_on_c, 1, 62, 0
1, 16198, Note_on_c, 0, 77, 0
1, 16199, Note_on_c, 0, 80, 0
1, 16199, Note_on_c, 0, 75, 64
1, 16199, Note_on_c, 0, 79, 72
1, 16201, Note_on_c, 1, 58, 46
1, 16229, Note_on_c, 1, 63, 40
1, 16229, Note_on_c, 1, 67, 37
1, 16233, Note_on_c, 1, 58, 0
1, 16255, Note_on_c, 1, 67, 0
1, 16255, Note_on_c, 1, 63, 0
1, 16259, Note_on_c, 1, 63, 39
1, 16259, Note_on_c, 1, 67, 42
1, 16264, Note_on_c, 0, 75, 0
1, 16265, Note_on_c, 0, 79, 0
1, 16285, Note_on_c, 1, 67, 0
1, 16285, Note_on_c, 1, 63, 0
1, 16289, Note_on_c, 1, 63, 35
1, 16289, Note_on_c, 1, 67, 42
1, 16315, Note_on_c, 1, 67, 0
1, 16315, Note_on_c, 1, 63, 0
1, 16321, Note_on_c, 1, 57, 52
1, 16321, Note_on_c, 1, 60, 45
1, 16349, Note_on_c, 0, 78, 68
1, 16379, Note_on_c, 0, 78, 0
1, 16379, Note_on_c, 0, 79, 89
1, 16409, Note_on_c, 0, 78, 76
1, 16410, Note_on_c, 0, 79, 0
1, 16436, Note_on_c, 1, 57, 0
1, 16438, Note_on_c, 1, 60, 0
1, 16439, Note_on_c, 0, 86, 98
1, 16440, Note_on_c, 0, 78, 0
1, 16469, Note_on_c, 1, 59, 49
1, 16469, Note_on_c, 1, 67, 54
1, 16496, Note_on_c, 1, 67, 0
1, 16496, Note_on_c, 1, 59, 0
1, 16499, Note_on_c, 0, 86, 0
1, 16499, Note_on_c, 0, 77, 76
1, 16499, Note_on_c, 1, 67, 52
1, 16499, Note_on_c, 1, 59, 52
1, 16525, Note_on_c, 1, 59, 0
1, 16525, Note_on_c, 1, 67, 0
1, 16529, Note_on_c, 1, 59, 52
1, 16529, Note_on_c, 1, 67, 52
1, 16555, Note_on_c, 1, 67, 0
1, 16556, Note_on_c, 1, 59, 0
1, 16558, Note_on_c, 0, 77, 0
1, 16559, Note_on_c, 1, 67, 62
1, 16559, Note_on_c, 1, 60, 66
1, 16589, Note_on_c, 0, 76, 85
1, 16592, Note_on_c, 1, 60, 0
1, 16592, Note_on_c, 1, 67, 0
1, 16619, Note_on_c, 0, 77, 89
1, 16621, Note_on_c, 0, 76, 0
1, 16649, Note_on_c, 0, 76, 85
1, 16651, Note_on_c, 0, 77, 0
1, 16679, Note_on_c, 0, 84, 93
1, 16680, Note_on_c, 0, 76, 0
1, 16709, Note_on_c, 1, 60, 54
1, 16709, Note_on_c, 1, 56, 50
1, 16735, Note_on_c, 1, 56, 0
1, 16735, Note_on_c, 1, 60, 0
1, 16739, Note_on_c, 0, 84, 0
1, 16739, Note_on_c, 0, 75, 80
1, 16739, Note_on_c, 1, 56, 46
1, 16739, Note_on_c, 1, 60, 49
1, 16765, Note_on_c, 1, 60, 0
1, 16765, Note_on_c, 1, 56, 0
1, 16769, Note_on_c, 1, 56, 43
1, 16769, Note_on_c, 1, 60, 46
1, 16795, Note_on_c, 1, 60, 0
1, 16796, Note_on_c, 1, 56, 0
1, 16799, Note_on_c, 1, 56, 46
1, 16800, Note_on_c, 1, 53, 50
1, 16802, Note_on_c, 0, 75, 0
1, 16829, Note_on_c, 0, 73, 76
1, 16859, Note_on_c, 0, 73, 0
1, 16859, Note_on_c, 0, 72, 76
1, 16889, Note_on_c, 0, 72, 0
1, 16889, Note_on_c, 0, 73, 72
1, 16914, Note_on_c, 1, 53, 0
1, 16915, Note_on_c, 1, 56, 0
1, 16920, Note_on_c, 0, 76, 85
1, 16921, Note_on_c, 0, 73, 0
1, 16949, Note_on_c, 0, 77, 76
1, 16951, Note_on_c, 0, 76, 0
1, 16980, Note_on_c, 0, 77, 0
1, 16980, Note_on_c, 0, 79, 93
1, 17009, Note_on_c, 0, 80, 72
1, 17010, Note_on_c, 0, 79, 0
1, 17039, Note_on_c, 0, 72, 76
1, 17040, Note_on_c, 0, 80, 0
1, 17041, Note_on_c, 1, 55, 54
1, 17041, Note_on_c, 1, 63, 50
1, 17070, Note_on_c, 1, 64, 50
1, 17071, Note_on_c, 1, 63, 0
1, 17100, Note_on_c, 1, 65, 54
1, 17102, Note_on_c, 1, 64, 0
1, 17131, Note_on_c, 1, 66, 49
1, 17132, Note_on_c, 1, 65, 0
1, 17156, Note_on_c, 1, 55, 0
1, 17159, Note_on_c, 0, 72, 0
1, 17159, Note_on_c, 0, 71, 93
1, 17159, Note_on_c, 1, 66, 0
1, 17161, Note_on_c, 1, 67, 52
1, 17161, Note_on_c, 1, 55, 50
1, 17189, Note_on_c, 0, 74, 89
1, 17191, Note_on_c, 0, 71, 0
1, 17216, Note_on_c, 1, 67, 0
1, 17218, Note_on_c, 1, 55, 0
1, 17219, Note_on_c, 0, 74, 0
1, 17219, Note_on_c, 0, 75, 72
1, 17249, Note_on_c, 0, 77, 76
1, 17251, Note_on_c, 0, 75, 0
1, 17279, Note_on_c, 1, 48, 52
1, 17280, Note_on_c, 0, 75, 62
1, 17281, Note_on_c, 0, 77, 0
1, 17281, Note_on_c, 0, 79, 57
1, 17309, Note_on_c, 1, 48, 0
1, 17310, Note_on_c, 1, 60, 47
1, 17336, Note_on_c, 1, 60, 0
1, 17341, Note_on_c, 1, 60, 46
1, 17367, Note_on_c, 1, 60, 0
1, 17371, Note_on_c, 0, 74, 52
1, 17371, Note_on_c, 0, 77, 57
1, 17371, Note_on_c, 1, 60, 40
1, 17372, Note_on_c, 0, 79, 0
1, 17372, Note_on_c, 0, 75, 0
1, 17397, Note_on_c, 1, 60, 0
1, 17401, Note_on_c, 0, 74, 0
1, 17401, Note_on_c, 0, 75, 64
1, 17401, Note_on_c, 0, 72, 56
1, 17401, Note_on_c, 1, 60, 45
1, 17403, Note_on_c, 0, 77, 0
1, 17427, Note_on_c, 1, 60, 0
1, 17431, Note_on_c, 1, 60, 49
1, 17456, Note_on_c, 1, 60, 0
1, 17460, Note_on_c, 0, 72, 0
1, 17461, Note_on_c, 1, 60, 47
1, 17462, Note_on_c, 0, 75, 0
1, 17486, Note_on_c, 1, 60, 0
1, 17491, Note_on_c, 1, 60, 50
1, 17516, Note_on_c, 1, 60, 0
1, 17520, Note_on_c, 0, 77, 76
1, 17520, Note_on_c, 0, 80, 59
1, 17521, Note_on_c, 1, 47, 54
1, 17549, Note_on_c, 1, 47, 0
1, 17551, Note_on_c, 1, 59, 46
1, 17577, Note_on_c, 1, 59, 0
1, 17580, Note_on_c, 1, 59, 49
1, 17605, Note_on_c, 1, 59, 0
1, 17609, Note_on_c, 0, 77, 0
1, 17610, Note_on_c, 0, 80, 0
1, 17610, Note_on_c, 0, 75, 56
1, 17611, Note_on_c, 0, 79, 59
1, 17611, Note_on_c, 1, 59, 52
1, 17637, Note_on_c, 1, 59, 0
1, 17639, Note_on_c, 0, 75, 0
1, 17641, Note_on_c, 0, 79, 0
1, 17641, Note_on_c, 0, 74, 56
1, 17641, Note_on_c, 0, 77, 64
1, 17641, Note_on_c, 1, 59, 49
1, 17667, Note_on_c, 1, 59, 0
1, 17671, Note_on_c, 1, 59, 50
1, 17696, Note_on_c, 1, 59, 0
1, 17701, Note_on_c, 1, 59, 58
1, 17705, Note_on_c, 0, 77, 0
1, 17706, Note_on_c, 0, 74, 0
1, 17727, Note_on_c, 1, 59, 0
1, 17731, Note_on_c, 1, 59, 62
1, 17756, Note_on_c, 1, 59, 0
1, 17761, Note_on_c, 1, 60, 62
1, 17789, Note_on_c, 0, 75, 60
1, 17790, Note_on_c, 0, 72, 60
1, 17818, Note_on_c, 0, 72, 0
1, 17819, Note_on_c, 0, 75, 0
1, 17819, Note_on_c, 0, 77, 68
1, 17819, Note_on_c, 0, 74, 72
1, 17849, Note_on_c, 0, 74, 0
1, 17849, Note_on_c, 0, 77, 0
1, 17849, Note_on_c, 0, 75, 55
1, 17849, Note_on_c, 0, 79, 76
1, 17878, Note_on_c, 0, 79, 0
1, 17878, Note_on_c, 0, 75, 0
1, 17878, Note_on_c, 1, 60, 0
1, 17879, Note_on_c, 0, 75, 60
1, 17879, Note_on_c, 0, 79, 72
1, 17879, Note_on_c, 1, 56, 47
1, 17909, Note_on_c, 0, 75, 0
1, 17909, Note_on_c, 0, 74, 62
1, 17909, Note_on_c, 0, 77, 64
1, 17911, Note_on_c, 0, 79, 0
1, 17939, Note_on_c, 0, 74, 0
1, 17939, Note_on_c, 0, 74, 59
1, 17940, Note_on_c, 1, 56, 0
1, 17940, Note_on_c, 1, 54, 49
1, 17969, Note_on_c, 0, 74, 0
1, 17969, Note_on_c, 0, 77, 0
1, 17969, Note_on_c, 0, 75, 60
1, 17969, Note_on_c, 0, 72, 56
1, 17998, Note_on_c, 1, 54, 0
1, 17999, Note_on_c, 0, 72, 0
1, 17999, Note_on_c, 0, 75, 0
1, 17999, Note_on_c, 0, 75, 62
1, 18000, Note_on_c, 0, 72, 59
1, 18002, Note_on_c, 1, 55, 52
1, 18030, Note_on_c, 1, 55, 0
1, 18031, Note_on_c, 1, 43, 47
1, 18057, Note_on_c, 1, 43, 0
1, 18061, Note_on_c, 1, 55, 52
1, 18086, Note_on_c, 1, 55, 0
1, 18091, Note_on_c, 1, 55, 54
1, 18093, Note_on_c, 0, 72, 0
1, 18095, Note_on_c, 0, 75, 0
1, 18116, Note_on_c, 1, 55, 0
1, 18119, Note_on_c, 0, 74, 62
1, 18119, Note_on_c, 0, 71, 57
1, 18121, Note_on_c, 1, 55, 58
1, 18149, Note_on_c, 1, 55, 0
1, 18149, Note_on_c, 1, 53, 46
1, 18179, Note_on_c, 1, 53, 0
1, 18179, Note_on_c, 1, 51, 50
1, 18205, Note_on_c, 0, 71, 0
1, 18205, Note_on_c, 0, 74, 0
1, 18209, Note_on_c, 1, 51, 0
1, 18209, Note_on_c, 1, 50, 52
1, 18240, Note_on_c, 1, 50, 0
1, 18241, Note_on_c, 1, 48, 62
1, 18270, Note_on_c, 0, 79, 76
1, 18298, Note_on_c, 1, 48, 0
1, 18299, Note_on_c, 0, 75, 72
1, 18302, Note_on_c, 0, 79, 0
1, 18329, Note_on_c, 0, 75, 0
1, 18329, Note_on_c, 0, 71, 68
1, 18359, Note_on_c, 0, 74, 80
1, 18361, Note_on_c, 0, 71, 0
1, 18389, Note_on_c, 1, 63, 46
1, 18389, Note_on_c, 1, 67, 58
1, 18417, Note_on_c, 1, 67, 0
1, 18417, Note_on_c, 1, 63, 0
1, 18418, Note_on_c, 0, 74, 0
1, 18419, Note_on_c, 0, 72, 72
1, 18419, Note_on_c, 1, 67, 52
1, 18419, Note_on_c, 1, 63, 49
1, 18446, Note_on_c, 1, 63, 0
1, 18446, Note_on_c, 1, 67, 0
1, 18449, Note_on_c, 1, 63, 46
1, 18449, Note_on_c, 1, 67, 66
1, 18476, Note_on_c, 1, 67, 0
1, 18476, Note_on_c, 1, 63, 0
1, 18479, Note_on_c, 1, 68, 54
1, 18480, Note_on_c, 1, 65, 66
1, 18482, Note_on_c, 0, 72, 0
1, 18508, Note_on_c, 1, 65, 0
1, 18509, Note_on_c, 0, 84, 89
1, 18509, Note_on_c, 1, 68, 0
1, 18539, Note_on_c, 0, 80, 80
1, 18540, Note_on_c, 0, 84, 0
1, 18569, Note_on_c, 0, 80, 0
1, 18569, Note_on_c, 0, 76, 72
1, 18599, Note_on_c, 0, 79, 85
1, 18601, Note_on_c, 0, 76, 0
1, 18629, Note_on_c, 1, 68, 46
1, 18629, Note_on_c, 1, 72, 54
1, 18657, Note_on_c, 1, 72, 0
1, 18657, Note_on_c, 1, 68, 0
1, 18658, Note_on_c, 0, 79, 0
1, 18659, Note_on_c, 0, 78, 68
1, 18659, Note_on_c, 1, 68, 50
1, 18659, Note_on_c, 1, 72, 52
1, 18686, Note_on_c, 1, 68, 0
1, 18687, Note_on_c, 1, 72, 0
1, 18689, Note_on_c, 1, 68, 52
1, 18689, Note_on_c, 1, 72, 52
1, 18716, Note_on_c, 1, 68, 0
1, 18717, Note_on_c, 1, 72, 0
1, 18719, Note_on_c, 1, 67, 47
1, 18719, Note_on_c, 1, 71, 58
1, 18720, Note_on_c, 0, 78, 0
1, 18746, Note_on_c, 1, 71, 0
1, 18746, Note_on_c, 1, 67, 0
1, 18749, Note_on_c, 0, 79, 76
1, 18776, Note_on_c, 0, 79, 0
1, 18779, Note_on_c, 1, 68, 62
1, 18806, Note_on_c, 1, 68, 0
1, 18809, Note_on_c, 0, 72, 72
1, 18809, Note_on_c, 0, 75, 64
1, 18836, Note_on_c, 0, 75, 0
1, 18836, Note_on_c, 0, 72, 0
1, 18839, Note_on_c, 1, 65, 62
1, 18865, Note_on_c, 1, 65, 0
1, 18869, Note_on_c, 0, 77, 62
1, 18869, Note_on_c, 0, 74, 68
1, 18896, Note_on_c, 0, 74, 0
1, 18896, Note_on_c, 0, 77, 0
1, 18899, Note_on_c, 1, 67, 66
1, 18926, Note_on_c, 1, 67, 0
1, 18929, Note_on_c, 0, 74, 72
1, 18929, Note_on_c, 0, 71, 80
1, 18955, Note_on_c, 0, 71, 0
1, 18956, Note_on_c, 0, 74, 0
1, 18961, Note_on_c, 1, 60, 58
1, 18989, Note_on_c, 0, 71, 72
1, 19019, Note_on_c, 0, 72, 72
1, 19020, Note_on_c, 0, 71, 0
1, 19048, Note_on_c, 1, 60, 0
1, 19049, Note_on_c, 0, 71, 62
1, 19050, Note_on_c, 0, 72, 0
1, 19079, Note_on_c, 0, 72, 89
1, 19081, Note_on_c, 0, 71, 0
1, 19108, Note_on_c, 1, 66, 50
1, 19108, Note_on_c, 1, 63, 47
1, 19138, Note_on_c, 1, 64, 50
1, 19139, Note_on_c, 1, 63, 0
1, 19139, Note_on_c, 1, 66, 0
1, 19139, Note_on_c, 1, 67, 47
1, 19168, Note_on_c, 1, 66, 54
1, 19168, Note_on_c, 1, 63, 49
1, 19169, Note_on_c, 1, 67, 0
1, 19169, Note_on_c, 1, 64, 0
1, 19199, Note_on_c, 1, 63, 0
1, 19199, Note_on_c, 1, 64, 52
1, 19199, Note_on_c, 1, 67, 70
1, 19200, Note_on_c, 1, 66, 0
1, 19229, Note_on_c, 0, 73, 85
1, 19230, Note_on_c, 0, 72, 0
1, 19259, Note_on_c, 0, 72, 60
1, 19260, Note_on_c, 0, 73, 0
1, 19289, Note_on_c, 0, 73, 80
1, 19291, Note_on_c, 0, 72, 0
1, 19292, Note_on_c, 1, 67, 0
1, 19293, Note_on_c, 1, 64, 0
1, 19319, Note_on_c, 0, 72, 80
1, 19321, Note_on_c, 0, 73, 0
1, 19349, Note_on_c, 1, 64, 62
1, 19349, Note_on_c, 1, 67, 66
1, 19379, Note_on_c, 1, 64, 0
1, 19379, Note_on_c, 1, 65, 54
1, 19380, Note_on_c, 1, 68, 62
1, 19381, Note_on_c, 1, 67, 0
1, 19409, Note_on_c, 1, 68, 0
1, 19410, Note_on_c, 1, 65, 0
1, 19410, Note_on_c, 1, 64, 54
1, 19410, Note_on_c, 1, 67, 66
1, 19440, Note_on_c, 1, 64, 0
1, 19441, Note_on_c, 1, 67, 0
1, 19441, Note_on_c, 1, 68, 66
1, 19441, Note_on_c, 1, 65, 70
1, 19468, Note_on_c, 0, 72, 0
1, 19469, Note_on_c, 0, 76, 89
1, 19499, Note_on_c, 0, 77, 85
1, 19501, Note_on_c, 0, 76, 0
1, 19503, Note_on_c, 1, 65, 0
1, 19504, Note_on_c, 1, 68, 0
1, 19529, Note_on_c, 0, 80, 89
1, 19530, Note_on_c, 0, 77, 0
1, 19559, Note_on_c, 0, 71, 93
1, 19561, Note_on_c, 0, 80, 0
1, 19589, Note_on_c, 1, 66, 54
1, 19589, Note_on_c, 1, 63, 52
1, 19616, Note_on_c, 1, 63, 0
1, 19616, Note_on_c, 1, 66, 0
1, 19620, Note_on_c, 1, 62, 54
1, 19621, Note_on_c, 1, 65, 62
1, 19648, Note_on_c, 1, 62, 0
1, 19649, Note_on_c, 1, 65, 0
1, 19650, Note_on_c, 1, 66, 43
1, 19650, Note_on_c, 1, 63, 52
1, 19677, Note_on_c, 1, 63, 0
1, 19678, Note_on_c, 1, 66, 0
1, 19681, Note_on_c, 1, 65, 62
1, 19681, Note_on_c, 1, 62, 66
1, 19709, Note_on_c, 0, 69, 89
1, 19712, Note_on_c, 0, 71, 0
1, 19740, Note_on_c, 0, 70, 68
1, 19742, Note_on_c, 0, 69, 0
1, 19744, Note_on_c, 1, 62, 0
1, 19744, Note_on_c, 1, 65, 0
1, 19770, Note_on_c, 0, 69, 80
1, 19772, Note_on_c, 0, 70, 0
1, 19800, Note_on_c, 0, 70, 72
1, 19802, Note_on_c, 0, 69, 0
1, 19831, Note_on_c, 1, 67, 66
1, 19831, Note_on_c, 1, 64, 62
1, 19860, Note_on_c, 1, 64, 0
1, 19861, Note_on_c, 1, 67, 0
1, 19861, Note_on_c, 1, 68, 54
1, 19861, Note_on_c, 1, 65, 46
1, 19890, Note_on_c, 1, 68, 0
1, 19891, Note_on_c, 1, 65, 0
1, 19891, Note_on_c, 1, 64, 52
1, 19891, Note_on_c, 1, 67, 52
1, 19921, Note_on_c, 1, 67, 0
1, 19921, Note_on_c, 1, 64, 0
1, 19921, Note_on_c, 1, 68, 58
1, 19922, Note_on_c, 1, 65, 66
1, 19948, Note_on_c, 0, 70, 0
1, 19949, Note_on_c, 0, 73, 80
1, 19979, Note_on_c, 0, 74, 64
1, 19981, Note_on_c, 0, 73, 0
1, 20009, Note_on_c, 0, 75, 76
1, 20011, Note_on_c, 0, 74, 0
1, 20037, Note_on_c, 1, 65, 0
1, 20037, Note_on_c, 1, 68, 0
1, 20039, Note_on_c, 0, 75, 0
1, 20039, Note_on_c, 0, 76, 85
1, 20069, Note_on_c, 0, 77, 76
1, 20071, Note_on_c, 0, 76, 0
1, 20099, Note_on_c, 0, 77, 0
1, 20099, Note_on_c, 0, 78, 57
1, 20129, Note_on_c, 0, 78, 0
1, 20129, Note_on_c, 0, 79, 80
1, 20156, Note_on_c, 0, 79, 0
1, 20159, Note_on_c, 0, 82, 89
1, 20159, Note_on_c, 1, 70, 66
1, 20159, Note_on_c, 1, 65, 79
1, 20159, Note_on_c, 1, 62, 75
1, 20206, Note_on_c, 0, 81, 89
1, 20215, Note_on_c, 0, 82, 0
1, 20219, Note_on_c, 0, 81, 0
1, 20220, Note_on_c, 0, 80, 76
1, 20252, Note_on_c, 0, 80, 0
1, 20342, Note_on_c, 1, 62, 0
1, 20342, Note_on_c, 1, 65, 0
1, 20342, Note_on_c, 1, 70, 0
1, 20429, Note_on_c, 0, 64, 80
1, 20458, Note_on_c, 0, 65, 72
1, 20460, Note_on_c, 0, 64, 0
1, 20488, Note_on_c, 0, 67, 72
1, 20491, Note_on_c, 0, 65, 0
1, 20519, Note_on_c, 0, 68, 80
1, 20521, Note_on_c, 0, 67, 0
1, 20549, Note_on_c, 0, 68, 0
1, 20549, Note_on_c, 0, 67, 76
1, 20579, Note_on_c, 0, 68, 62
1, 20581, Note_on_c, 0, 67, 0
1, 20609, Note_on_c, 0, 69, 80
1, 20610, Note_on_c, 0, 68, 0
1, 20639, Note_on_c, 0, 69, 0
1, 20639, Note_on_c, 0, 70, 55
1, 20640, Note_on_c, 0, 67, 85
1, 20641, Note_on_c, 1, 39, 46
1, 20641, Note_on_c, 1, 51, 42
1, 20724, Note_on_c, 0, 67, 0
1, 20725, Note_on_c, 0, 70, 0
1, 20759, Note_on_c, 0, 63, 62
1, 20759, Note_on_c, 0, 67, 62
1, 20761, Note_on_c, 1, 51, 0
1, 20761, Note_on_c, 1, 39, 0
1, 20789, Note_on_c, 0, 67, 0
1, 20790, Note_on_c, 0, 63, 0
1, 20820, Note_on_c, 0, 65, 72
1, 20820, Note_on_c, 1, 46, 66
1, 20821, Note_on_c, 0, 58, 60
1, 20848, Note_on_c, 0, 65, 0
1, 20849, Note_on_c, 0, 58, 0
1, 20877, Note_on_c, 1, 46, 0
1, 20881, Note_on_c, 0, 63, 57
1, 20881, Note_on_c, 0, 55, 60
1, 20882, Note_on_c, 1, 51, 49
1, 20939, Note_on_c, 0, 55, 0
1, 20939, Note_on_c, 0, 63, 0
1, 20941, Note_on_c, 0, 58, 76
1, 20998, Note_on_c, 0, 58, 0
1, 21001, Note_on_c, 0, 63, 80
1, 21029, Note_on_c, 0, 63, 0
1, 21059, Note_on_c, 0, 65, 80
1, 21060, Note_on_c, 0, 62, 72
1, 21060, Note_on_c, 1, 51, 0
1, 21060, Note_on_c, 1, 46, 43
1, 21087, Note_on_c, 0, 62, 0
1, 21088, Note_on_c, 0, 65, 0
1, 21118, Note_on_c, 1, 46, 0
1, 21119, Note_on_c, 0, 67, 80
1, 21119, Note_on_c, 0, 63, 57
1, 21120, Note_on_c, 1, 51, 47
1, 21179, Note_on_c, 0, 68, 68
1, 21179, Note_on_c, 1, 48, 50
1, 21180, Note_on_c, 1, 51, 0
1, 21182, Note_on_c, 0, 67, 0
1, 21239, Note_on_c, 0, 70, 64
1, 21239, Note_on_c, 1, 43, 52
1, 21240, Note_on_c, 1, 48, 0
1, 21242, Note_on_c, 0, 68, 0
1, 21300, Note_on_c, 0, 70, 0
1, 21300, Note_on_c, 0, 72, 57
1, 21301, Note_on_c, 1, 44, 54
1, 21302, Note_on_c, 1, 43, 0
1, 21332, Note_on_c, 0, 72, 0
1, 21332, Note_on_c, 0, 63, 0
1, 21360, Note_on_c, 0, 63, 55
1, 21361, Note_on_c, 0, 67, 72
1, 21361, Note_on_c, 1, 44, 0
1, 21361, Note_on_c, 1, 46, 50
1, 21448, Note_on_c, 0, 67, 0
1, 21449, Note_on_c, 0, 68, 62
1, 21475, Note_on_c, 0, 63, 0
1, 21477, Note_on_c, 0, 68, 0
1, 21479, Note_on_c, 0, 65, 80
1, 21480, Note_on_c, 0, 62, 50
1, 21509, Note_on_c, 0, 67, 64
1, 21511, Note_on_c, 0, 65, 0
1, 21539, Note_on_c, 0, 68, 68
1, 21541, Note_on_c, 0, 67, 0
1, 21544, Note_on_c, 1, 46, 0
1, 21569, Note_on_c, 0, 68, 0
1, 21570, Note_on_c, 0, 69, 64
1, 21575, Note_on_c, 0, 62, 0
1, 21596, Note_on_c, 0, 69, 0
1, 21601, Note_on_c, 0, 82, 85
1, 21601, Note_on_c, 0, 70, 72
1, 21601, Note_on_c, 1, 67, 58
1, 21664, Note_on_c, 1, 67, 0
1, 21719, Note_on_c, 0, 82, 0
1, 21719, Note_on_c, 0, 79, 72
1, 21721, Note_on_c, 1, 63, 49
1, 21779, Note_on_c, 0, 77, 68
1, 21780, Note_on_c, 1, 63, 0
1, 21781, Note_on_c, 0, 79, 0
1, 21781, Note_on_c, 1, 58, 41
1, 21808, Note_on_c, 0, 70, 0
1, 21809, Note_on_c, 0, 77, 0
1, 21838, Note_on_c, 1, 58, 0
1, 21839, Note_on_c, 0, 75, 64
1, 21839, Note_on_c, 0, 70, 60
1, 21840, Note_on_c, 1, 55, 50
1, 21865, Note_on_c, 0, 70, 0
1, 21865, Note_on_c, 1, 55, 0
1, 21866, Note_on_c, 0, 75, 0
1, 21899, Note_on_c, 0, 74, 62
1, 21899, Note_on_c, 0, 77, 68
1, 21899, Note_on_c, 1, 58, 54
1, 21925, Note_on_c, 1, 58, 0
1, 21926, Note_on_c, 0, 77, 0
1, 21926, Note_on_c, 0, 74, 0
1, 21959, Note_on_c, 0, 79, 80
1, 21959, Note_on_c, 0, 75, 76
1, 21959, Note_on_c, 1, 63, 54
1, 21985, Note_on_c, 0, 75, 0
1, 21986, Note_on_c, 0, 79, 0
1, 21986, Note_on_c, 1, 63, 0
1, 22019, Note_on_c, 0, 75, 72
1, 22019, Note_on_c, 0, 80, 80
1, 22019, Note_on_c, 1, 60, 52
1, 22045, Note_on_c, 0, 75, 0
1, 22045, Note_on_c, 1, 60, 0
1, 22046, Note_on_c, 0, 80, 0
1, 22080, Note_on_c, 0, 82, 80
1, 22080, Note_on_c, 0, 75, 72
1, 22082, Note_on_c, 1, 55, 62
1, 22108, Note_on_c, 0, 75, 0
1, 22108, Note_on_c, 0, 82, 0
1, 22108, Note_on_c, 1, 55, 0
1, 22137, Note_on_c, 0, 83, 80
1, 22139, Note_on_c, 1, 56, 62
1, 22140, Note_on_c, 1, 65, 58
1, 22152, Note_on_c, 0, 83, 0
1, 22154, Note_on_c, 0, 84, 72
1, 22154, Note_on_c, 1, 56, 0
1, 22157, Note_on_c, 1, 65, 0
1, 22169, Note_on_c, 0, 80, 72
1, 22172, Note_on_c, 0, 84, 0
1, 22184, Note_on_c, 0, 77, 57
1, 22185, Note_on_c, 0, 80, 0
1, 22199, Note_on_c, 0, 75, 55
1, 22201, Note_on_c, 0, 77, 0
1, 22201, Note_on_c, 1, 67, 70
1, 22201, Note_on_c, 1, 58, 50
1, 22259, Note_on_c, 0, 79, 72
1, 22261, Note_on_c, 1, 67, 0
1, 22261, Note_on_c, 1, 68, 54
1, 22262, Note_on_c, 0, 75, 0
1, 22275, Note_on_c, 0, 77, 60
1, 22277, Note_on_c, 0, 79, 0
1, 22288, Note_on_c, 1, 68, 0
1, 22288, Note_on_c, 1, 58, 0
1, 22289, Note_on_c, 0, 76, 80
1, 22291, Note_on_c, 0, 77, 0
1, 22304, Note_on_c, 0, 77, 57
1, 22307, Note_on_c, 0, 76, 0
1, 22318, Note_on_c, 0, 77, 0
1, 22320, Note_on_c, 0, 74, 56
1, 22320, Note_on_c, 0, 77, 72
1, 22321, Note_on_c, 1, 68, 50
1, 22321, Note_on_c, 1, 63, 54
1, 22438, Note_on_c, 0, 77, 0
1, 22438, Note_on_c, 0, 74, 0
1, 22439, Note_on_c, 0, 75, 60
1, 22441, Note_on_c, 1, 67, 45
1, 22442, Note_on_c, 1, 68, 0
1, 22500, Note_on_c, 0, 75, 0
1, 22503, Note_on_c, 1, 63, 0
1, 22504, Note_on_c, 1, 67, 0
1, 22561, Note_on_c, 0, 72, 89
1, 22561, Note_on_c, 1, 56, 66
1, 22591, Note_on_c, 1, 63, 36
1, 22593, Note_on_c, 1, 56, 0
1, 22619, Note_on_c, 1, 63, 0
1, 22621, Note_on_c, 1, 60, 46
1, 22649, Note_on_c, 1, 60, 0
1, 22651, Note_on_c, 1, 63, 39
1, 22678, Note_on_c, 0, 72, 0
1, 22679, Note_on_c, 0, 75, 80
1, 22679, Note_on_c, 1, 63, 0
1, 22680, Note_on_c, 1, 58, 49
1, 22708, Note_on_c, 1, 58, 0
1, 22709, Note_on_c, 0, 73, 76
1, 22709, Note_on_c, 1, 63, 43
1, 22711, Note_on_c, 0, 75, 0
1, 22739, Note_on_c, 0, 70, 85
1, 22739, Note_on_c, 1, 63, 0
1, 22739, Note_on_c, 1, 61, 46
1, 22741, Note_on_c, 0, 73, 0
1, 22769, Note_on_c, 0, 67, 72
1, 22769, Note_on_c, 1, 61, 0
1, 22769, Note_on_c, 1, 63, 26
1, 22772, Note_on_c, 0, 70, 0
1, 22799, Note_on_c, 1, 63, 0
1, 22799, Note_on_c, 1, 60, 54
1, 22801, Note_on_c, 0, 68, 80
1, 22802, Note_on_c, 0, 67, 0
1, 22829, Note_on_c, 1, 60, 0
1, 22830, Note_on_c, 1, 63, 45
1, 22858, Note_on_c, 1, 63, 0
1, 22859, Note_on_c, 1, 56, 58
1, 22889, Note_on_c, 0, 70, 72
1, 22889, Note_on_c, 1, 56, 0
1, 22889, Note_on_c, 1, 63, 43
1, 22891, Note_on_c, 0, 68, 0
1, 22903, Note_on_c, 0, 70, 0
1, 22904, Note_on_c, 0, 72, 76
1, 22917, Note_on_c, 1, 63, 0
1, 22918, Note_on_c, 0, 70, 72
1, 22919, Note_on_c, 1, 55, 75
1, 22922, Note_on_c, 0, 72, 0
1, 22946, Note_on_c, 1, 55, 0
1, 22949, Note_on_c, 1, 63, 38
1, 22979, Note_on_c, 1, 63, 0
1, 22980, Note_on_c, 1, 51, 58
1, 22986, Note_on_c, 0, 70, 0
1, 23008, Note_on_c, 1, 51, 0
1, 23009, Note_on_c, 1, 63, 46
1, 23038, Note_on_c, 1, 63, 0
1, 23039, Note_on_c, 1, 55, 79
1, 23041, Note_on_c, 0, 73, 89
1, 23068, Note_on_c, 1, 55, 0
1, 23069, Note_on_c, 1, 63, 46
1, 23099, Note_on_c, 1, 63, 0
1, 23100, Note_on_c, 1, 58, 62
1, 23128, Note_on_c, 1, 58, 0
1, 23129, Note_on_c, 1, 63, 46
1, 23156, Note_on_c, 0, 73, 0
1, 23158, Note_on_c, 0, 77, 80
1, 23159, Note_on_c, 1, 63, 0
1, 23159, Note_on_c, 1, 56, 62
1, 23189, Note_on_c, 0, 75, 76
1, 23189, Note_on_c, 1, 56, 0
1, 23189, Note_on_c, 1, 63, 41
1, 23191, Note_on_c, 0, 77, 0
1, 23219, Note_on_c, 0, 73, 85
1, 23219, Note_on_c, 1, 63, 0
1, 23219, Note_on_c, 1, 60, 62
1, 23222, Note_on_c, 0, 75, 0
1, 23248, Note_on_c, 1, 60, 0
1, 23249, Note_on_c, 0, 73, 0
1, 23249, Note_on_c, 0, 72, 76
1, 23249, Note_on_c, 1, 63, 38
1, 23279, Note_on_c, 1, 63, 0
1, 23279, Note_on_c, 1, 55, 70
1, 23281, Note_on_c, 0, 70, 76
1, 23282, Note_on_c, 0, 72, 0
1, 23309, Note_on_c, 1, 55, 0
1, 23310, Note_on_c, 1, 63, 41
1, 23338, Note_on_c, 1, 63, 0
1, 23339, Note_on_c, 1, 51, 54
1, 23368, Note_on_c, 1, 51, 0
1, 23368, Note_on_c, 1, 63, 50
1, 23371, Note_on_c, 0, 72, 72
1, 23372, Note_on_c, 0, 70, 0
1, 23388, Note_on_c, 0, 72, 0
1, 23388, Note_on_c, 0, 73, 72
1, 23392, Note_on_c, 1, 63, 0
1, 23400, Note_on_c, 1, 56, 58
1, 23401, Note_on_c, 0, 72, 80
1, 23403, Note_on_c, 0, 73, 0
1, 23428, Note_on_c, 1, 56, 0
1, 23429, Note_on_c, 1, 63, 38
1, 23459, Note_on_c, 1, 63, 0
1, 23459, Note_on_c, 1, 60, 62
1, 23465, Note_on_c, 0, 72, 0
1, 23489, Note_on_c, 1, 60, 0
1, 23490, Note_on_c, 1, 63, 46
1, 23515, Note_on_c, 1, 63, 0
1, 23519, Note_on_c, 0, 84, 98
1, 23520, Note_on_c, 1, 58, 66
1, 23548, Note_on_c, 1, 58, 0
1, 23549, Note_on_c, 1, 67, 42
1, 23579, Note_on_c, 1, 67, 0
1, 23579, Note_on_c, 1, 64, 62
1, 23609, Note_on_c, 0, 76, 76
1, 23609, Note_on_c, 1, 64, 0
1, 23609, Note_on_c, 1, 67, 41
1, 23610, Note_on_c, 0, 84, 0
1, 23638, Note_on_c, 1, 67, 0
1, 23639, Note_on_c, 0, 76, 0
1, 23639, Note_on_c, 0, 77, 72
1, 23640, Note_on_c, 1, 56, 66
1, 23669, Note_on_c, 0, 77, 0
1, 23669, Note_on_c, 0, 79, 89
1, 23669, Note_on_c, 1, 65, 45
1, 23670, Note_on_c, 1, 56, 0
1, 23695, Note_on_c, 0, 79, 0
1, 23699, Note_on_c, 0, 80, 89
1, 23699, Note_on_c, 1, 65, 0
1, 23699, Note_on_c, 1, 60, 66
1, 23726, Note_on_c, 0, 80, 0
1, 23729, Note_on_c, 0, 81, 93
1, 23729, Note_on_c, 1, 60, 0
1, 23729, Note_on_c, 1, 65, 38
1, 23755, Note_on_c, 0, 81, 0
1, 23759, Note_on_c, 1, 65, 0
1, 23759, Note_on_c, 1, 56, 52
1, 23760, Note_on_c, 0, 82, 93
1, 23789, Note_on_c, 1, 65, 43
1, 23790, Note_on_c, 1, 56, 0
1, 23819, Note_on_c, 1, 65, 0
1, 23819, Note_on_c, 1, 62, 62
1, 23849, Note_on_c, 0, 74, 72
1, 23849, Note_on_c, 1, 62, 0
1, 23849, Note_on_c, 1, 65, 46
1, 23851, Note_on_c, 0, 82, 0
1, 23877, Note_on_c, 1, 65, 0
1, 23879, Note_on_c, 1, 55, 66
1, 23880, Note_on_c, 0, 75, 72
1, 23882, Note_on_c, 0, 74, 0
1, 23909, Note_on_c, 1, 55, 0
1, 23909, Note_on_c, 1, 63, 40
1, 23910, Note_on_c, 0, 75, 0
1, 23910, Note_on_c, 0, 77, 93
1, 23935, Note_on_c, 0, 77, 0
1, 23939, Note_on_c, 1, 63, 0
1, 23939, Note_on_c, 1, 58, 54
1, 23940, Note_on_c, 0, 78, 76
1, 23966, Note_on_c, 0, 78, 0
1, 23968, Note_on_c, 1, 58, 0
1, 23969, Note_on_c, 0, 79, 85
1, 23969, Note_on_c, 1, 63, 50
1, 23996, Note_on_c, 0, 79, 0
1, 23998, Note_on_c, 1, 63, 0
1, 23999, Note_on_c, 1, 56, 62
1, 24000, Note_on_c, 0, 79, 80
1, 24029, Note_on_c, 1, 56, 0
1, 24029, Note_on_c, 1, 65, 45
1, 24031, Note_on_c, 0, 72, 80
1, 24032, Note_on_c, 0, 79, 0
1, 24059, Note_on_c, 1, 65, 0
1, 24060, Note_on_c, 1, 60, 62
1, 24061, Note_on_c, 0, 72, 0
1, 24061, Note_on_c, 0, 80, 89
1, 24088, Note_on_c, 1, 60, 0
1, 24089, Note_on_c, 0, 80, 0
1, 24091, Note_on_c, 0, 77, 76
1, 24091, Note_on_c, 1, 65, 54
1, 24119, Note_on_c, 0, 77, 0
1, 24119, Note_on_c, 1, 65, 0
1, 24120, Note_on_c, 1, 58, 52
1, 24121, Note_on_c, 0, 77, 85
1, 24148, Note_on_c, 1, 58, 0
1, 24149, Note_on_c, 1, 67, 54
1, 24151, Note_on_c, 0, 77, 0
1, 24151, Note_on_c, 0, 75, 76
1, 24179, Note_on_c, 0, 75, 0
1, 24179, Note_on_c, 1, 67, 0
1, 24180, Note_on_c, 1, 58, 50
1, 24181, Note_on_c, 0, 75, 85
1, 24208, Note_on_c, 1, 58, 0
1, 24209, Note_on_c, 1, 68, 66
1, 24211, Note_on_c, 0, 75, 0
1, 24211, Note_on_c, 0, 74, 76
1, 24237, Note_on_c, 1, 68, 0
1, 24241, Note_on_c, 0, 74, 0
1, 24241, Note_on_c, 0, 75, 80
1, 24241, Note_on_c, 1, 63, 49
1, 24241, Note_on_c, 1, 67, 47
1, 24271, Note_on_c, 0, 75, 0
1, 24271, Note_on_c, 0, 74, 76
1, 24301, Note_on_c, 0, 74, 0
1, 24301, Note_on_c, 0, 75, 72
1, 24329, Note_on_c, 0, 75, 0
1, 24331, Note_on_c, 0, 77, 80
1, 24361, Note_on_c, 0, 77, 0
1, 24361, Note_on_c, 0, 75, 76
1, 24362, Note_on_c, 1, 67, 0
1, 24362, Note_on_c, 1, 63, 0
1, 24390, Note_on_c, 0, 74, 72
1, 24391, Note_on_c, 0, 75, 0
1, 24421, Note_on_c, 0, 73, 80
1, 24422, Note_on_c, 0, 74, 0
1, 24451, Note_on_c, 0, 73, 0
1, 24451, Note_on_c, 0, 70, 68
1, 24480, Note_on_c, 0, 70, 0
1, 24480, Note_on_c, 1, 56, 47
1, 24481, Note_on_c, 0, 72, 76
1, 24511, Note_on_c, 1, 63, 22
1, 24512, Note_on_c, 1, 56, 0
1, 24539, Note_on_c, 1, 63, 0
1, 24541, Note_on_c, 1, 60, 52
1, 24569, Note_on_c, 1, 60, 0
1, 24571, Note_on_c, 1, 63, 26
1, 24598, Note_on_c, 0, 72, 0
1, 24599, Note_on_c, 0, 75, 76
1, 24599, Note_on_c, 1, 63, 0
1, 24601, Note_on_c, 1, 58, 52
1, 24629, Note_on_c, 0, 73, 76
1, 24629, Note_on_c, 1, 58, 0
1, 24631, Note_on_c, 0, 75, 0
1, 24631, Note_on_c, 1, 63, 36
1, 24659, Note_on_c, 0, 70, 72
1, 24659, Note_on_c, 1, 63, 0
1, 24660, Note_on_c, 1, 61, 50
1, 24661, Note_on_c, 0, 73, 0
1, 24688, Note_on_c, 1, 61, 0
1, 24689, Note_on_c, 0, 67, 57
1, 24689, Note_on_c, 1, 63, 38
1, 24691, Note_on_c, 0, 70, 0
1, 24719, Note_on_c, 0, 68, 64
1, 24719, Note_on_c, 1, 63, 0
1, 24719, Note_on_c, 1, 60, 66
1, 24722, Note_on_c, 0, 67, 0
1, 24748, Note_on_c, 1, 60, 0
1, 24749, Note_on_c, 1, 63, 41
1, 24779, Note_on_c, 1, 63, 0
1, 24779, Note_on_c, 1, 56, 62
1, 24809, Note_on_c, 1, 56, 0
1, 24809, Note_on_c, 1, 63, 32
1, 24810, Note_on_c, 0, 68, 0
1, 24810, Note_on_c, 0, 70, 68
1, 24825, Note_on_c, 0, 72, 64
1, 24837, Note_on_c, 0, 70, 0
1, 24839, Note_on_c, 0, 70, 60
1, 24839, Note_on_c, 1, 63, 0
1, 24839, Note_on_c, 1, 55, 62
1, 24850, Note_on_c, 0, 72, 0
1, 24868, Note_on_c, 1, 55, 0
1, 24870, Note_on_c, 1, 63, 35
1, 24898, Note_on_c, 1, 63, 0
1, 24899, Note_on_c, 1, 51, 58
1, 24905, Note_on_c, 0, 70, 0
1, 24928, Note_on_c, 1, 51, 0
1, 24930, Note_on_c, 1, 63, 42
1, 24957, Note_on_c, 1, 63, 0
1, 24959, Note_on_c, 0, 73, 72
1, 24961, Note_on_c, 1, 55, 52
1, 24989, Note_on_c, 1, 55, 0
1, 24990, Note_on_c, 1, 63, 45
1, 25017, Note_on_c, 1, 63, 0
1, 25020, Note_on_c, 1, 58, 54
1, 25048, Note_on_c, 1, 58, 0
1, 25051, Note_on_c, 1, 63, 46
1, 25079, Note_on_c, 0, 73, 0
1, 25079, Note_on_c, 0, 77, 72
1, 25079, Note_on_c, 1, 63, 0
1, 25081, Note_on_c, 1, 56, 66
1, 25107, Note_on_c, 1, 56, 0
1, 25109, Note_on_c, 0, 75, 62
1, 25111, Note_on_c, 1, 63, 47
1, 25112, Note_on_c, 0, 77, 0
1, 25139, Note_on_c, 0, 73, 68
1, 25139, Note_on_c, 1, 63, 0
1, 25141, Note_on_c, 0, 75, 0
1, 25141, Note_on_c, 1, 60, 62
1, 25168, Note_on_c, 1, 60, 0
1, 25169, Note_on_c, 0, 73, 0
1, 25169, Note_on_c, 0, 72, 76
1, 25171, Note_on_c, 1, 63, 45
1, 25198, Note_on_c, 1, 63, 0
1, 25199, Note_on_c, 1, 55, 66
1, 25200, Note_on_c, 0, 70, 57
1, 25202, Note_on_c, 0, 72, 0
1, 25228, Note_on_c, 1, 55, 0
1, 25231, Note_on_c, 1, 63, 37
1, 25258, Note_on_c, 1, 63, 0
1, 25259, Note_on_c, 1, 51, 54
1, 25288, Note_on_c, 0, 72, 64
1, 25288, Note_on_c, 1, 51, 0
1, 25289, Note_on_c, 1, 63, 49
1, 25291, Note_on_c, 0, 70, 0
1, 25304, Note_on_c, 0, 73, 72
1, 25306, Note_on_c, 0, 72, 0
1, 25306, Note_on_c, 1, 63, 0
1, 25319, Note_on_c, 0, 73, 0
1, 25319, Note_on_c, 0, 72, 76
1, 25319, Note_on_c, 1, 56, 54
1, 25341, Note_on_c, 1, 56, 0
1, 25349, Note_on_c, 1, 63, 49
1, 25377, Note_on_c, 1, 63, 0
1, 25379, Note_on_c, 1, 60, 66
1, 25398, Note_on_c, 0, 72, 0
1, 25407, Note_on_c, 1, 60, 0
1, 25409, Note_on_c, 1, 63, 40
1, 25436, Note_on_c, 1, 63, 0
1, 25438, Note_on_c, 0, 84, 80
1, 25441, Note_on_c, 1, 58, 52
1, 25469, Note_on_c, 1, 58, 0
1, 25469, Note_on_c, 1, 67, 54
1, 25498, Note_on_c, 1, 67, 0
1, 25499, Note_on_c, 1, 64, 52
1, 25529, Note_on_c, 0, 76, 68
1, 25529, Note_on_c, 1, 64, 0
1, 25529, Note_on_c, 1, 67, 47
1, 25530, Note_on_c, 0, 84, 0
1, 25559, Note_on_c, 0, 77, 62
1, 25559, Note_on_c, 1, 67, 0
1, 25559, Note_on_c, 1, 56, 62
1, 25562, Note_on_c, 0, 76, 0
1, 25589, Note_on_c, 0, 79, 80
1, 25589, Note_on_c, 1, 56, 0
1, 25589, Note_on_c, 1, 65, 28
1, 25591, Note_on_c, 0, 77, 0
1, 25616, Note_on_c, 0, 79, 0
1, 25618, Note_on_c, 1, 65, 0
1, 25619, Note_on_c, 0, 80, 76
1, 25619, Note_on_c, 1, 60, 62
1, 25646, Note_on_c, 0, 80, 0
1, 25648, Note_on_c, 1, 60, 0
1, 25649, Note_on_c, 0, 81, 85
1, 25649, Note_on_c, 1, 65, 49
1, 25675, Note_on_c, 0, 81, 0
1, 25678, Note_on_c, 1, 65, 0
1, 25679, Note_on_c, 1, 56, 54
1, 25681, Note_on_c, 0, 82, 85
1, 25709, Note_on_c, 1, 56, 0
1, 25709, Note_on_c, 1, 65, 45
1, 25738, Note_on_c, 1, 65, 0
1, 25739, Note_on_c, 1, 62, 52
1, 25769, Note_on_c, 1, 62, 0
1, 25769, Note_on_c, 1, 65, 52
1, 25771, Note_on_c, 0, 82, 0
1, 25771, Note_on_c, 0, 74, 62
1, 25796, Note_on_c, 1, 65, 0
1, 25800, Note_on_c, 0, 75, 64
1, 25800, Note_on_c, 1, 55, 58
1, 25801, Note_on_c, 0, 74, 0
1, 25828, Note_on_c, 1, 55, 0
1, 25830, Note_on_c, 0, 75, 0
1, 25830, Note_on_c, 0, 77, 76
1, 25830, Note_on_c, 1, 63, 40
1, 25855, Note_on_c, 0, 77, 0
1, 25858, Note_on_c, 1, 63, 0
1, 25859, Note_on_c, 1, 58, 50
1, 25860, Note_on_c, 0, 78, 64
1, 25885, Note_on_c, 0, 78, 0
1, 25888, Note_on_c, 1, 58, 0
1, 25889, Note_on_c, 1, 63, 45
1, 25890, Note_on_c, 0, 79, 72
1, 25915, Note_on_c, 0, 79, 0
1, 25918, Note_on_c, 1, 63, 0
1, 25919, Note_on_c, 1, 56, 54
1, 25920, Note_on_c, 0, 79, 80
1, 25949, Note_on_c, 1, 56, 0
1, 25950, Note_on_c, 1, 65, 47
1, 25951, Note_on_c, 0, 79, 0
1, 25951, Note_on_c, 0, 72, 68
1, 25978, Note_on_c, 1, 65, 0
1, 25980, Note_on_c, 1, 60, 54
1, 25981, Note_on_c, 0, 72, 0
1, 25981, Note_on_c, 0, 80, 64
1, 26008, Note_on_c, 1, 60, 0
1, 26010, Note_on_c, 0, 77, 76
1, 26010, Note_on_c, 1, 65, 54
1, 26011, Note_on_c, 0, 80, 0
1, 26037, Note_on_c, 0, 77, 0
1, 26038, Note_on_c, 1, 65, 0
1, 26040, Note_on_c, 1, 58, 58
1, 26041, Note_on_c, 0, 77, 68
1, 26068, Note_on_c, 1, 58, 0
1, 26069, Note_on_c, 1, 67, 52
1, 26070, Note_on_c, 0, 77, 0
1, 26071, Note_on_c, 0, 75, 60
1, 26099, Note_on_c, 0, 75, 0
1, 26099, Note_on_c, 1, 67, 0
1, 26100, Note_on_c, 1, 58, 52
1, 26101, Note_on_c, 0, 75, 72
1, 26128, Note_on_c, 1, 58, 0
1, 26130, Note_on_c, 0, 75, 0
1, 26130, Note_on_c, 1, 68, 54
1, 26131, Note_on_c, 0, 74, 64
1, 26156, Note_on_c, 1, 68, 0
1, 26161, Note_on_c, 0, 74, 0
1, 26161, Note_on_c, 0, 75, 72
1, 26161, Note_on_c, 1, 63, 47
1, 26161, Note_on_c, 1, 67, 52
1, 26191, Note_on_c, 0, 75, 0
1, 26191, Note_on_c, 0, 74, 76
1, 26221, Note_on_c, 0, 74, 0
1, 26221, Note_on_c, 0, 75, 64
1, 26251, Note_on_c, 0, 75, 0
1, 26251, Note_on_c, 0, 77, 64
1, 26281, Note_on_c, 0, 77, 0
1, 26281, Note_on_c, 0, 75, 62
1, 26282, Note_on_c, 1, 67, 0
1, 26283, Note_on_c, 1, 63, 0
1, 26310, Note_on_c, 0, 75, 0
1, 26311, Note_on_c, 0, 74, 64
1, 26340, Note_on_c, 0, 74, 0
1, 26340, Note_on_c, 0, 73, 64
1, 26368, Note_on_c, 0, 73, 0
1, 26369, Note_on_c, 0, 70, 62
1, 26400, Note_on_c, 0, 70, 0
1, 26400, Note_on_c, 0, 72, 62
1, 26400, Note_on_c, 0, 69, 68
1, 26401, Note_on_c, 1, 63, 45
1, 26429, Note_on_c, 1, 63, 0
1, 26431, Note_on_c, 1, 66, 41
1, 26459, Note_on_c, 1, 66, 0
1, 26461, Note_on_c, 1, 63, 45
1, 26488, Note_on_c, 1, 63, 0
1, 26491, Note_on_c, 1, 66, 42
1, 26518, Note_on_c, 1, 66, 0
1, 26521, Note_on_c, 0, 71, 76
1, 26521, Note_on_c, 1, 63, 49
1, 26522, Note_on_c, 0, 72, 0
1, 26549, Note_on_c, 1, 63, 0
1, 26551, Note_on_c, 0, 71, 0
1, 26551, Note_on_c, 0, 72, 64
1, 26551, Note_on_c, 1, 65, 45
1, 26580, Note_on_c, 0, 73, 72
1, 26580, Note_on_c, 1, 63, 43
1, 26581, Note_on_c, 0, 72, 0
1, 26581, Note_on_c, 1, 65, 0
1, 26608, Note_on_c, 0, 73, 0
1, 26609, Note_on_c, 0, 72, 80
1, 26609, Note_on_c, 1, 63, 0
1, 26609, Note_on_c, 1, 65, 52
1, 26612, Note_on_c, 0, 69, 0
1, 26635, Note_on_c, 0, 72, 0
1, 26639, Note_on_c, 1, 65, 0
1, 26640, Note_on_c, 1, 62, 46
1, 26641, Note_on_c, 0, 68, 62
1, 26641, Note_on_c, 0, 77, 85
1, 26669, Note_on_c, 1, 62, 0
1, 26671, Note_on_c, 1, 65, 41
1, 26698, Note_on_c, 0, 77, 0
1, 26700, Note_on_c, 1, 65, 0
1, 26700, Note_on_c, 1, 62, 52
1, 26701, Note_on_c, 0, 70, 72
1, 26728, Note_on_c, 1, 62, 0
1, 26730, Note_on_c, 1, 65, 45
1, 26735, Note_on_c, 0, 70, 0
1, 26756, Note_on_c, 0, 68, 0
1, 26760, Note_on_c, 1, 65, 0
1, 26760, Note_on_c, 1, 61, 49
1, 26761, Note_on_c, 0, 69, 75
1, 26761, Note_on_c, 0, 67, 64
1, 26791, Note_on_c, 0, 69, 0
1, 26791, Note_on_c, 0, 70, 72
1, 26791, Note_on_c, 1, 63, 41
1, 26792, Note_on_c, 1, 61, 0
1, 26820, Note_on_c, 1, 63, 0
1, 26821, Note_on_c, 0, 70, 0
1, 26821, Note_on_c, 0, 72, 85
1, 26821, Note_on_c, 1, 61, 50
1, 26850, Note_on_c, 0, 70, 64
1, 26851, Note_on_c, 0, 72, 0
1, 26851, Note_on_c, 1, 61, 0
1, 26851, Note_on_c, 1, 63, 52
1, 26854, Note_on_c, 0, 67, 0
1, 26879, Note_on_c, 1, 63, 0
1, 26881, Note_on_c, 0, 70, 0
1, 26881, Note_on_c, 0, 66, 64
1, 26881, Note_on_c, 0, 75, 76
1, 26881, Note_on_c, 1, 60, 58
1, 26911, Note_on_c, 1, 60, 0
1, 26911, Note_on_c, 1, 63, 42
1, 26939, Note_on_c, 1, 63, 0
1, 26940, Note_on_c, 0, 75, 0
1, 26941, Note_on_c, 0, 68, 72
1, 26941, Note_on_c, 1, 60, 49
1, 26969, Note_on_c, 1, 60, 0
1, 26971, Note_on_c, 1, 63, 42
1, 26975, Note_on_c, 0, 66, 0
1, 26999, Note_on_c, 1, 63, 0
1, 27001, Note_on_c, 0, 65, 76
1, 27001, Note_on_c, 1, 61, 58
1, 27028, Note_on_c, 0, 65, 0
1, 27028, Note_on_c, 0, 68, 0
1, 27030, Note_on_c, 0, 70, 64
1, 27031, Note_on_c, 0, 67, 76
1, 27058, Note_on_c, 0, 70, 0
1, 27058, Note_on_c, 1, 61, 0
1, 27059, Note_on_c, 1, 58, 54
1, 27060, Note_on_c, 0, 67, 0
1, 27060, Note_on_c, 0, 68, 68
1, 27060, Note_on_c, 0, 72, 72
1, 27088, Note_on_c, 0, 72, 0
1, 27088, Note_on_c, 0, 68, 0
1, 27089, Note_on_c, 0, 70, 64
1, 27090, Note_on_c, 0, 73, 72
1, 27092, Note_on_c, 1, 58, 0
1, 27118, Note_on_c, 0, 73, 0
1, 27119, Note_on_c, 0, 70, 0
1, 27119, Note_on_c, 1, 63, 46
1, 27120, Note_on_c, 0, 72, 68
1, 27120, Note_on_c, 0, 68, 64
1, 27151, Note_on_c, 1, 62, 46
1, 27152, Note_on_c, 1, 63, 0
1, 27181, Note_on_c, 1, 62, 0
1, 27181, Note_on_c, 1, 63, 47
1, 27211, Note_on_c, 1, 63, 0
1, 27211, Note_on_c, 1, 62, 62
1, 27236, Note_on_c, 0, 68, 0
1, 27238, Note_on_c, 0, 72, 0
1, 27239, Note_on_c, 0, 70, 62
1, 27239, Note_on_c, 0, 67, 55
1, 27239, Note_on_c, 1, 62, 0
1, 27241, Note_on_c, 1, 63, 52
1, 27269, Note_on_c, 1, 63, 0
1, 27270, Note_on_c, 1, 58, 52
1, 27275, Note_on_c, 0, 67, 0
1, 27276, Note_on_c, 0, 70, 0
1, 27300, Note_on_c, 1, 58, 0
1, 27300, Note_on_c, 1, 55, 54
1, 27330, Note_on_c, 1, 55, 0
1, 27331, Note_on_c, 1, 51, 62
1, 27359, Note_on_c, 0, 80, 102
1, 27359, Note_on_c, 1, 51, 0
1, 27360, Note_on_c, 1, 53, 75
1, 27390, Note_on_c, 1, 53, 0
1, 27391, Note_on_c, 1, 60, 45
1, 27419, Note_on_c, 1, 60, 0
1, 27419, Note_on_c, 1, 56, 66
1, 27420, Note_on_c, 0, 80, 0
1, 27449, Note_on_c, 1, 56, 0
1, 27450, Note_on_c, 1, 60, 52
1, 27476, Note_on_c, 1, 60, 0
1, 27479, Note_on_c, 0, 79, 85
1, 27480, Note_on_c, 1, 56, 66
1, 27508, Note_on_c, 1, 56, 0
1, 27509, Note_on_c, 0, 77, 85
1, 27509, Note_on_c, 1, 65, 49
1, 27512, Note_on_c, 0, 79, 0
1, 27538, Note_on_c, 1, 65, 0
1, 27539, Note_on_c, 0, 75, 80
1, 27539, Note_on_c, 1, 58, 62
1, 27540, Note_on_c, 0, 77, 0
1, 27569, Note_on_c, 0, 74, 85
1, 27569, Note_on_c, 1, 58, 0
1, 27569, Note_on_c, 1, 65, 52
1, 27570, Note_on_c, 0, 75, 0
1, 27597, Note_on_c, 1, 65, 0
1, 27600, Note_on_c, 0, 74, 0
1, 27600, Note_on_c, 1, 55, 62
1, 27601, Note_on_c, 0, 85, 98
1, 27628, Note_on_c, 1, 55, 0
1, 27630, Note_on_c, 1, 63, 43
1, 27658, Note_on_c, 1, 63, 0
1, 27659, Note_on_c, 1, 58, 58
1, 27688, Note_on_c, 0, 85, 0
1, 27688, Note_on_c, 1, 58, 0
1, 27689, Note_on_c, 1, 63, 47
1, 27715, Note_on_c, 1, 63, 0
1, 27719, Note_on_c, 0, 84, 80
1, 27720, Note_on_c, 1, 61, 75
1, 27748, Note_on_c, 1, 61, 0
1, 27749, Note_on_c, 0, 82, 80
1, 27750, Note_on_c, 1, 70, 45
1, 27752, Note_on_c, 0, 84, 0
1, 27776, Note_on_c, 1, 70, 0
1, 27779, Note_on_c, 0, 80, 80
1, 27779, Note_on_c, 1, 63, 62
1, 27780, Note_on_c, 0, 82, 0
1, 27807, Note_on_c, 1, 63, 0
1, 27809, Note_on_c, 0, 79, 62
1, 27809, Note_on_c, 1, 70, 49
1, 27810, Note_on_c, 0, 80, 0
1, 27835, Note_on_c, 1, 70, 0
1, 27839, Note_on_c, 0, 79, 0
1, 27839, Note_on_c, 1, 68, 50
1, 27839, Note_on_c, 1, 60, 62
1, 27840, Note_on_c, 0, 80, 85
1, 27868, Note_on_c, 1, 60, 0
1, 27868, Note_on_c, 1, 68, 0
1, 27870, Note_on_c, 0, 72, 72
1, 27871, Note_on_c, 0, 80, 0
1, 27899, Note_on_c, 1, 61, 45
1, 27900, Note_on_c, 0, 72, 0
1, 27900, Note_on_c, 1, 65, 54
1, 27901, Note_on_c, 0, 70, 76
1, 27926, Note_on_c, 1, 65, 0
1, 27926, Note_on_c, 1, 61, 0
1, 27929, Note_on_c, 0, 70, 0
1, 27929, Note_on_c, 0, 77, 62
1, 27959, Note_on_c, 1, 51, 47
1, 27959, Note_on_c, 1, 60, 46
1, 27960, Note_on_c, 0, 75, 68
1, 27962, Note_on_c, 0, 77, 0
1, 27989, Note_on_c, 1, 60, 0
1, 27989, Note_on_c, 1, 51, 0
1, 27990, Note_on_c, 0, 68, 64
1, 27992, Note_on_c, 0, 75, 0
1, 28019, Note_on_c, 0, 73, 76
1, 28019, Note_on_c, 1, 51, 50
1, 28020, Note_on_c, 0, 68, 0
1, 28020, Note_on_c, 1, 58, 52
1, 28048, Note_on_c, 1, 58, 0
1, 28048, Note_on_c, 1, 51, 0
1, 28049, Note_on_c, 0, 73, 0
1, 28049, Note_on_c, 0, 67, 76
1, 28079, Note_on_c, 0, 70, 76
1, 28079, Note_on_c, 1, 61, 45
1, 28079, Note_on_c, 1, 56, 46
1, 28080, Note_on_c, 0, 67, 0
1, 28167, Note_on_c, 1, 61, 0
1, 28198, Note_on_c, 0, 70, 0
1, 28199, Note_on_c, 0, 68, 68
1, 28201, Note_on_c, 1, 60, 37
1, 28229, Note_on_c, 0, 70, 56
1, 28231, Note_on_c, 0, 68, 0
1, 28258, Note_on_c, 1, 56, 0
1, 28259, Note_on_c, 0, 70, 0
1, 28259, Note_on_c, 0, 71, 59
1, 28259, Note_on_c, 1, 60, 0
1, 28289, Note_on_c, 0, 72, 72
1, 28290, Note_on_c, 0, 71, 0
1, 28316, Note_on_c, 0, 72, 0
1, 28320, Note_on_c, 0, 69, 60
1, 28320, Note_on_c, 0, 72, 60
1, 28321, Note_on_c, 1, 63, 52
1, 28349, Note_on_c, 1, 63, 0
1, 28351, Note_on_c, 1, 66, 33
1, 28379, Note_on_c, 1, 66, 0
1, 28381, Note_on_c, 1, 63, 33
1, 28409, Note_on_c, 1, 63, 0
1, 28412, Note_on_c, 1, 66, 43
1, 28431, Note_on_c, 1, 66, 0
1, 28437, Note_on_c, 0, 71, 60
1, 28438, Note_on_c, 0, 72, 0
1, 28441, Note_on_c, 1, 63, 52
1, 28469, Note_on_c, 0, 71, 0
1, 28469, Note_on_c, 0, 72, 59
1, 28469, Note_on_c, 1, 63, 0
1, 28471, Note_on_c, 1, 65, 41
1, 28499, Note_on_c, 0, 73, 68
1, 28499, Note_on_c, 1, 65, 0
1, 28499, Note_on_c, 1, 63, 46
1, 28500, Note_on_c, 0, 72, 0
1, 28529, Note_on_c, 0, 73, 0
1, 28529, Note_on_c, 0, 72, 56
1, 28529, Note_on_c, 1, 63, 0
1, 28529, Note_on_c, 1, 65, 49
1, 28532, Note_on_c, 0, 69, 0
1, 28555, Note_on_c, 0, 72, 0
1, 28559, Note_on_c, 1, 65, 0
1, 28559, Note_on_c, 1, 62, 54
1, 28561, Note_on_c, 0, 68, 51
1, 28561, Note_on_c, 0, 77, 68
1, 28589, Note_on_c, 1, 62, 0
1, 28589, Note_on_c, 1, 65, 42
1, 28595, Note_on_c, 0, 77, 0
1, 28619, Note_on_c, 1, 62, 46
1, 28620, Note_on_c, 0, 70, 72
1, 28622, Note_on_c, 1, 65, 0
1, 28645, Note_on_c, 0, 68, 0
1, 28647, Note_on_c, 0, 70, 0
1, 28649, Note_on_c, 1, 62, 0
1, 28650, Note_on_c, 1, 65, 46
1, 28679, Note_on_c, 1, 61, 52
1, 28680, Note_on_c, 0, 67, 56
1, 28680, Note_on_c, 0, 69, 76
1, 28680, Note_on_c, 1, 65, 0
1, 28709, Note_on_c, 1, 61, 0
1, 28710, Note_on_c, 0, 70, 57
1, 28710, Note_on_c, 1, 63, 46
1, 28712, Note_on_c, 0, 69, 0
1, 28738, Note_on_c, 1, 63, 0
1, 28739, Note_on_c, 0, 72, 72
1, 28739, Note_on_c, 1, 61, 50
1, 28740, Note_on_c, 0, 70, 0
1, 28769, Note_on_c, 0, 72, 0
1, 28769, Note_on_c, 0, 70, 64
1, 28769, Note_on_c, 1, 61, 0
1, 28769, Note_on_c, 1, 63, 41
1, 28772, Note_on_c, 0, 67, 0
1, 28797, Note_on_c, 0, 70, 0
1, 28799, Note_on_c, 0, 66, 56
1, 28799, Note_on_c, 0, 75, 52
1, 28799, Note_on_c, 1, 63, 0
1, 28799, Note_on_c, 1, 60, 66
1, 28829, Note_on_c, 1, 60, 0
1, 28829, Note_on_c, 1, 63, 47
1, 28855, Note_on_c, 0, 75, 0
1, 28859, Note_on_c, 0, 68, 64
1, 28859, Note_on_c, 1, 63, 0
1, 28859, Note_on_c, 1, 60, 54
1, 28889, Note_on_c, 1, 60, 0
1, 28889, Note_on_c, 1, 63, 45
1, 28894, Note_on_c, 0, 66, 0
1, 28919, Note_on_c, 0, 65, 64
1, 28919, Note_on_c, 1, 63, 0
1, 28919, Note_on_c, 1, 61, 58
1, 28947, Note_on_c, 0, 65, 0
1, 28947, Note_on_c, 0, 68, 0
1, 28949, Note_on_c, 0, 70, 62
1, 28949, Note_on_c, 0, 67, 50
1, 28978, Note_on_c, 1, 61, 0
1, 28979, Note_on_c, 0, 67, 0
1, 28979, Note_on_c, 0, 70, 0
1, 28979, Note_on_c, 0, 68, 57
1, 28979, Note_on_c, 1, 58, 52
1, 28980, Note_on_c, 0, 72, 56
1, 29008, Note_on_c, 0, 72, 0
1, 29009, Note_on_c, 0, 68, 0
1, 29009, Note_on_c, 0, 70, 55
1, 29009, Note_on_c, 0, 73, 43
1, 29039, Note_on_c, 0, 73, 0
1, 29039, Note_on_c, 0, 70, 0
1, 29039, Note_on_c, 0, 72, 59
1, 29039, Note_on_c, 1, 58, 0
1, 29039, Note_on_c, 1, 63, 50
1, 29040, Note_on_c, 0, 68, 57
1, 29069, Note_on_c, 1, 62, 66
1, 29070, Note_on_c, 1, 63, 0
1, 29099, Note_on_c, 1, 62, 0
1, 29099, Note_on_c, 1, 63, 50
1, 29129, Note_on_c, 1, 63, 0
1, 29129, Note_on_c, 1, 62, 62
1, 29135, Note_on_c, 0, 68, 0
1, 29135, Note_on_c, 0, 72, 0
1, 29159, Note_on_c, 0, 67, 56
1, 29159, Note_on_c, 0, 70, 57
1, 29159, Note_on_c, 1, 62, 0
1, 29160, Note_on_c, 1, 63, 52
1, 29189, Note_on_c, 1, 63, 0
1, 29189, Note_on_c, 1, 58, 54
1, 29192, Note_on_c, 0, 67, 0
1, 29193, Note_on_c, 0, 70, 0
1, 29219, Note_on_c, 1, 55, 62
1, 29220, Note_on_c, 1, 58, 0
1, 29249, Note_on_c, 1, 51, 58
1, 29250, Note_on_c, 1, 55, 0
1, 29277, Note_on_c, 1, 51, 0
1, 29279, Note_on_c, 0, 80, 76
1, 29280, Note_on_c, 1, 53, 75
1, 29310, Note_on_c, 1, 53, 0
1, 29311, Note_on_c, 1, 60, 47
1, 29339, Note_on_c, 1, 60, 0
1, 29340, Note_on_c, 1, 56, 66
1, 29368, Note_on_c, 1, 56, 0
1, 29371, Note_on_c, 1, 60, 52
1, 29396, Note_on_c, 1, 60, 0
1, 29398, Note_on_c, 0, 80, 0
1, 29398, Note_on_c, 0, 79, 76
1, 29401, Note_on_c, 1, 56, 54
1, 29428, Note_on_c, 0, 77, 72
1, 29429, Note_on_c, 1, 56, 0
1, 29431, Note_on_c, 0, 79, 0
1, 29431, Note_on_c, 1, 65, 52
1, 29458, Note_on_c, 1, 65, 0
1, 29459, Note_on_c, 0, 75, 68
1, 29459, Note_on_c, 1, 58, 66
1, 29461, Note_on_c, 0, 77, 0
1, 29488, Note_on_c, 1, 58, 0
1, 29489, Note_on_c, 0, 74, 72
1, 29489, Note_on_c, 1, 65, 54
1, 29490, Note_on_c, 0, 75, 0
1, 29516, Note_on_c, 1, 65, 0
1, 29519, Note_on_c, 0, 85, 62
1, 29519, Note_on_c, 1, 55, 75
1, 29522, Note_on_c, 0, 74, 0
1, 29549, Note_on_c, 1, 55, 0
1, 29549, Note_on_c, 1, 63, 42
1, 29578, Note_on_c, 1, 63, 0
1, 29579, Note_on_c, 1, 58, 66
1, 29584, Note_on_c, 0, 85, 0
1, 29609, Note_on_c, 1, 58, 0
1, 29609, Note_on_c, 1, 63, 50
1, 29635, Note_on_c, 1, 63, 0
1, 29639, Note_on_c, 0, 84, 60
1, 29639, Note_on_c, 1, 61, 70
1, 29668, Note_on_c, 1, 70, 41
1, 29669, Note_on_c, 0, 82, 64
1, 29669, Note_on_c, 1, 61, 0
1, 29672, Note_on_c, 0, 84, 0
1, 29697, Note_on_c, 1, 70, 0
1, 29698, Note_on_c, 1, 63, 58
1, 29699, Note_on_c, 0, 80, 76
1, 29702, Note_on_c, 0, 82, 0
1, 29727, Note_on_c, 1, 63, 0
1, 29728, Note_on_c, 1, 70, 47
1, 29729, Note_on_c, 0, 80, 0
1, 29729, Note_on_c, 0, 79, 72
1, 29756, Note_on_c, 1, 70, 0
1, 29759, Note_on_c, 0, 79, 0
1, 29759, Note_on_c, 1, 60, 62
1, 29759, Note_on_c, 1, 68, 47
1, 29760, Note_on_c, 0, 80, 68
1, 29787, Note_on_c, 1, 60, 0
1, 29788, Note_on_c, 0, 80, 0
1, 29788, Note_on_c, 1, 68, 0
1, 29789, Note_on_c, 0, 72, 64
1, 29819, Note_on_c, 0, 72, 0
1, 29820, Note_on_c, 1, 61, 50
1, 29821, Note_on_c, 0, 70, 62
1, 29821, Note_on_c, 1, 65, 62
1, 29846, Note_on_c, 1, 65, 0
1, 29846, Note_on_c, 1, 61, 0
1, 29850, Note_on_c, 0, 70, 0
1, 29851, Note_on_c, 0, 77, 62
1, 29879, Note_on_c, 0, 77, 0
1, 29880, Note_on_c, 0, 75, 60
1, 29881, Note_on_c, 1, 51, 45
1, 29881, Note_on_c, 1, 60, 49
1, 29910, Note_on_c, 0, 68, 64
1, 29911, Note_on_c, 0, 75, 0
1, 29936, Note_on_c, 1, 60, 0
1, 29939, Note_on_c, 0, 73, 64
1, 29940, Note_on_c, 0, 68, 0
1, 29940, Note_on_c, 1, 58, 66
1, 29969, Note_on_c, 0, 73, 0
1, 29969, Note_on_c, 0, 67, 64
1, 29976, Note_on_c, 1, 51, 0
1, 29994, Note_on_c, 1, 58, 0
1, 29999, Note_on_c, 0, 70, 62
1, 29999, Note_on_c, 1, 61, 41
1, 30000, Note_on_c, 1, 56, 46
1, 30001, Note_on_c, 0, 67, 0
1, 30094, Note_on_c, 1, 61, 0
1, 30118, Note_on_c, 0, 70, 0
1, 30119, Note_on_c, 0, 68, 60
1, 30120, Note_on_c, 1, 60, 47
1, 30149, Note_on_c, 0, 70, 60
1, 30151, Note_on_c, 0, 68, 0
1, 30179, Note_on_c, 0, 70, 0
1, 30179, Note_on_c, 0, 71, 64
1, 30180, Note_on_c, 1, 60, 0
1, 30180, Note_on_c, 1, 56, 0
1, 30209, Note_on_c, 0, 71, 0
1, 30209, Note_on_c, 0, 72, 68
1, 30240, Note_on_c, 1, 67, 79
1, 30240, Note_on_c, 1, 64, 62
1, 30242, Note_on_c, 0, 72, 0
1, 30269, Note_on_c, 0, 72, 76
1, 30276, Note_on_c, 1, 64, 0
1, 30276, Note_on_c, 1, 67, 0
1, 30299, Note_on_c, 0, 73, 72
1, 30301, Note_on_c, 0, 72, 0
1, 30329, Note_on_c, 0, 73, 0
1, 30330, Note_on_c, 0, 72, 80
1, 30357, Note_on_c, 0, 72, 0
1, 30360, Note_on_c, 1, 68, 54
1, 30361, Note_on_c, 1, 65, 75
1, 30389, Note_on_c, 0, 72, 76
1, 30418, Note_on_c, 1, 65, 0
1, 30418, Note_on_c, 1, 68, 0
1, 30419, Note_on_c, 0, 84, 80
1, 30420, Note_on_c, 0, 72, 0
1, 30449, Note_on_c, 0, 72, 62
1, 30450, Note_on_c, 0, 84, 0
1, 30478, Note_on_c, 0, 72, 0
1, 30480, Note_on_c, 1, 65, 66
1, 30481, Note_on_c, 1, 62, 75
1, 30510, Note_on_c, 0, 70, 72
1, 30537, Note_on_c, 1, 62, 0
1, 30537, Note_on_c, 1, 65, 0
1, 30539, Note_on_c, 0, 70, 0
1, 30539, Note_on_c, 0, 71, 76
1, 30569, Note_on_c, 0, 71, 0
1, 30569, Note_on_c, 0, 70, 72
1, 30598, Note_on_c, 0, 70, 0
1, 30600, Note_on_c, 1, 67, 62
1, 30601, Note_on_c, 1, 63, 70
1, 30629, Note_on_c, 0, 70, 76
1, 30657, Note_on_c, 1, 63, 0
1, 30657, Note_on_c, 1, 67, 0
1, 30659, Note_on_c, 0, 82, 80
1, 30661, Note_on_c, 0, 70, 0
1, 30689, Note_on_c, 0, 70, 72
1, 30690, Note_on_c, 0, 82, 0
1, 30718, Note_on_c, 0, 70, 0
1, 30719, Note_on_c, 1, 63, 66
1, 30719, Note_on_c, 1, 59, 70
1, 30751, Note_on_c, 0, 69, 80
1, 30781, Note_on_c, 0, 69, 0
1, 30781, Note_on_c, 0, 70, 76
1, 30811, Note_on_c, 0, 70, 0
1, 30811, Note_on_c, 0, 69, 80
1, 30840, Note_on_c, 0, 69, 0
1, 30841, Note_on_c, 0, 75, 68
1, 30870, Note_on_c, 0, 69, 64
1, 30871, Note_on_c, 0, 75, 0
1, 30900, Note_on_c, 0, 78, 80
1, 30901, Note_on_c, 0, 69, 0
1, 30929, Note_on_c, 0, 69, 56
1, 30931, Note_on_c, 0, 78, 0
1, 30959, Note_on_c, 0, 69, 0
1, 30960, Note_on_c, 0, 70, 60
1, 30960, Note_on_c, 1, 63, 0
1, 30962, Note_on_c, 1, 59, 0
1, 30990, Note_on_c, 1, 58, 70
1, 31021, Note_on_c, 1, 62, 58
1, 31049, Note_on_c, 1, 65, 70
1, 31050, Note_on_c, 1, 62, 0
1, 31080, Note_on_c, 1, 66, 66
1, 31081, Note_on_c, 1, 65, 0
1, 31108, Note_on_c, 0, 70, 0
1, 31109, Note_on_c, 0, 69, 72
1, 31138, Note_on_c, 1, 66, 0
1, 31139, Note_on_c, 0, 78, 76
1, 31139, Note_on_c, 1, 63, 54
1, 31140, Note_on_c, 0, 69, 0
1, 31141, Note_on_c, 1, 58, 0
1, 31170, Note_on_c, 0, 69, 62
1, 31172, Note_on_c, 0, 78, 0
1, 31198, Note_on_c, 1, 63, 0
1, 31201, Note_on_c, 0, 70, 76
1, 31202, Note_on_c, 0, 69, 0
1, 31229, Note_on_c, 1, 58, 54
1, 31259, Note_on_c, 1, 62, 70
1, 31291, Note_on_c, 1, 62, 0
1, 31291, Note_on_c, 1, 65, 62
1, 31321, Note_on_c, 1, 65, 0
1, 31321, Note_on_c, 1, 66, 62
1, 31348, Note_on_c, 0, 70, 0
1, 31349, Note_on_c, 0, 69, 76
1, 31379, Note_on_c, 0, 78, 72
1, 31379, Note_on_c, 1, 63, 66
1, 31380, Note_on_c, 1, 66, 0
1, 31382, Note_on_c, 0, 69, 0
1, 31382, Note_on_c, 1, 58, 0
1, 31409, Note_on_c, 0, 69, 72
1, 31410, Note_on_c, 0, 78, 0
1, 31438, Note_on_c, 1, 63, 0
1, 31439, Note_on_c, 0, 69, 0
1, 31439, Note_on_c, 0, 70, 72
1, 31469, Note_on_c, 1, 58, 79
1, 31499, Note_on_c, 1, 62, 79
1, 31529, Note_on_c, 1, 65, 70
1, 31530, Note_on_c, 1, 62, 0
1, 31560, Note_on_c, 1, 68, 79
1, 31562, Note_on_c, 1, 65, 0
1, 31589, Note_on_c, 0, 70, 0
1, 31590, Note_on_c, 0, 74, 85
1, 31619, Note_on_c, 0, 74, 0
1, 31619, Note_on_c, 0, 77, 85
1, 31649, Note_on_c, 0, 80, 85
1, 31650, Note_on_c, 0, 77, 0
1, 31677, Note_on_c, 0, 80, 0
1, 31680, Note_on_c, 0, 83, 72
1, 31708, Note_on_c, 0, 83, 0
1, 31710, Note_on_c, 0, 84, 64
1, 31738, Note_on_c, 0, 84, 0
1, 31740, Note_on_c, 0, 86, 76
1, 31769, Note_on_c, 0, 86, 0
1, 31769, Note_on_c, 0, 84, 80
1, 31799, Note_on_c, 0, 82, 76
1, 31802, Note_on_c, 0, 84, 0
1, 31829, Note_on_c, 0, 80, 72
1, 31832, Note_on_c, 0, 82, 0
1, 31859, Note_on_c, 0, 79, 64
1, 31860, Note_on_c, 0, 80, 0
1, 31890, Note_on_c, 0, 79, 0
1, 31890, Note_on_c, 0, 77, 76
1, 31921, Note_on_c, 0, 75, 59
1, 31922, Note_on_c, 0, 77, 0
1, 32010, Note_on_c, 0, 77, 68
1, 32011, Note_on_c, 0, 75, 0
1, 32024, Note_on_c, 0, 75, 55
1, 32028, Note_on_c, 0, 77, 0
1, 32040, Note_on_c, 0, 75, 0
1, 32040, Note_on_c, 0, 74, 76
1, 32097, Note_on_c, 0, 74, 0
1, 32102, Note_on_c, 1, 68, 0
1, 32102, Note_on_c, 1, 58, 0
1, 32159, Note_on_c, 1, 39, 54
1, 32159, Note_on_c, 1, 51, 50
1, 32160, Note_on_c, 0, 70, 57
1, 32161, Note_on_c, 0, 67, 68
1, 32195, Note_on_c, 0, 67, 0
1, 32196, Note_on_c, 0, 70, 0
1, 32280, Note_on_c, 0, 67, 68
1, 32280, Note_on_c, 0, 63, 62
1, 32308, Note_on_c, 0, 63, 0
1, 32308, Note_on_c, 0, 67, 0
1, 32308, Note_on_c, 1, 51, 0
1, 32310, Note_on_c, 1, 39, 0
1, 32340, Note_on_c, 0, 65, 72
1, 32340, Note_on_c, 0, 58, 51
1, 32341, Note_on_c, 1, 46, 66
1, 32367, Note_on_c, 0, 58, 0
1, 32367, Note_on_c, 0, 65, 0
1, 32400, Note_on_c, 0, 63, 59
1, 32400, Note_on_c, 0, 55, 62
1, 32400, Note_on_c, 1, 46, 0
1, 32401, Note_on_c, 1, 51, 47
1, 32458, Note_on_c, 0, 55, 0
1, 32458, Note_on_c, 0, 63, 0
1, 32459, Note_on_c, 0, 58, 68
1, 32517, Note_on_c, 0, 58, 0
1, 32519, Note_on_c, 0, 63, 72
1, 32549, Note_on_c, 0, 63, 0
1, 32575, Note_on_c, 1, 51, 0
1, 32578, Note_on_c, 0, 65, 72
1, 32578, Note_on_c, 1, 46, 54
1, 32579, Note_on_c, 0, 62, 68
1, 32607, Note_on_c, 0, 62, 0
1, 32608, Note_on_c, 0, 65, 0
1, 32639, Note_on_c, 0, 67, 89
1, 32639, Note_on_c, 0, 63, 62
1, 32639, Note_on_c, 1, 51, 52
1, 32640, Note_on_c, 1, 46, 0
1, 32698, Note_on_c, 1, 48, 62
1, 32699, Note_on_c, 0, 68, 80
1, 32700, Note_on_c, 1, 51, 0
1, 32702, Note_on_c, 0, 67, 0
1, 32759, Note_on_c, 1, 43, 62
1, 32760, Note_on_c, 1, 48, 0
1, 32761, Note_on_c, 0, 70, 76
1, 32762, Note_on_c, 0, 68, 0
1, 32820, Note_on_c, 1, 44, 52
1, 32821, Note_on_c, 0, 70, 0
1, 32821, Note_on_c, 0, 72, 76
1, 32822, Note_on_c, 1, 43, 0
1, 32851, Note_on_c, 0, 72, 0
1, 32852, Note_on_c, 0, 63, 0
1, 32880, Note_on_c, 0, 63, 55
1, 32881, Note_on_c, 0, 67, 80
1, 32881, Note_on_c, 1, 46, 52
1, 32882, Note_on_c, 1, 44, 0
1, 32971, Note_on_c, 0, 68, 76
1, 32972, Note_on_c, 0, 67, 0
1, 32999, Note_on_c, 0, 68, 0
1, 32999, Note_on_c, 0, 63, 0
1, 33001, Note_on_c, 0, 65, 89
1, 33001, Note_on_c, 0, 62, 68
1, 33031, Note_on_c, 0, 65, 0
1, 33031, Note_on_c, 0, 67, 76
1, 33061, Note_on_c, 0, 67, 0
1, 33061, Note_on_c, 0, 68, 80
1, 33063, Note_on_c, 1, 46, 0
1, 33088, Note_on_c, 0, 68, 0
1, 33090, Note_on_c, 0, 69, 85
1, 33094, Note_on_c, 0, 62, 0
1, 33115, Note_on_c, 0, 69, 0
1, 33119, Note_on_c, 1, 67, 66
1, 33121, Note_on_c, 0, 70, 85
1, 33121, Note_on_c, 0, 82, 102
1, 33238, Note_on_c, 0, 82, 0
1, 33239, Note_on_c, 0, 79, 85
1, 33239, Note_on_c, 1, 67, 0
1, 33239, Note_on_c, 1, 63, 58
1, 33298, Note_on_c, 1, 63, 0
1, 33299, Note_on_c, 0, 77, 85
1, 33299, Note_on_c, 1, 58, 49
1, 33300, Note_on_c, 0, 79, 0
1, 33358, Note_on_c, 0, 77, 0
1, 33358, Note_on_c, 0, 70, 0
1, 33359, Note_on_c, 1, 55, 54
1, 33360, Note_on_c, 1, 58, 0
1, 33361, Note_on_c, 0, 75, 72
1, 33361, Note_on_c, 0, 70, 56
1, 33386, Note_on_c, 0, 70, 0
1, 33386, Note_on_c, 0, 75, 0
1, 33387, Note_on_c, 1, 55, 0
1, 33419, Note_on_c, 0, 74, 68
1, 33419, Note_on_c, 1, 58, 70
1, 33420, Note_on_c, 0, 77, 76
1, 33446, Note_on_c, 0, 77, 0
1, 33446, Note_on_c, 0, 74, 0
1, 33446, Note_on_c, 1, 58, 0
1, 33479, Note_on_c, 0, 75, 76
1, 33479, Note_on_c, 0, 79, 76
1, 33479, Note_on_c, 1, 63, 66
1, 33506, Note_on_c, 0, 79, 0
1, 33506, Note_on_c, 0, 75, 0
1, 33506, Note_on_c, 1, 63, 0
1, 33539, Note_on_c, 0, 75, 72
1, 33539, Note_on_c, 0, 80, 72
1, 33539, Note_on_c, 1, 60, 62
1, 33565, Note_on_c, 0, 75, 0
1, 33565, Note_on_c, 1, 60, 0
1, 33566, Note_on_c, 0, 80, 0
1, 33599, Note_on_c, 0, 82, 76
1, 33599, Note_on_c, 1, 55, 66
1, 33600, Note_on_c, 0, 75, 68
1, 33627, Note_on_c, 0, 75, 0
1, 33628, Note_on_c, 0, 82, 0
1, 33634, Note_on_c, 1, 55, 0
1, 33658, Note_on_c, 0, 83, 72
1, 33660, Note_on_c, 1, 56, 62
1, 33661, Note_on_c, 1, 65, 62
1, 33672, Note_on_c, 0, 83, 0
1, 33674, Note_on_c, 0, 84, 68
1, 33677, Note_on_c, 1, 56, 0
1, 33678, Note_on_c, 1, 65, 0
1, 33689, Note_on_c, 0, 80, 72
1, 33691, Note_on_c, 0, 84, 0
1, 33704, Note_on_c, 0, 80, 0
1, 33704, Note_on_c, 0, 77, 62
1, 33719, Note_on_c, 0, 77, 0
1, 33719, Note_on_c, 1, 67, 66
1, 33719, Note_on_c, 1, 58, 54
1, 33720, Note_on_c, 0, 75, 80
1, 33778, Note_on_c, 0, 75, 0
1, 33779, Note_on_c, 0, 79, 80
1, 33779, Note_on_c, 1, 67, 0
1, 33779, Note_on_c, 1, 68, 62
1, 33794, Note_on_c, 0, 77, 68
1, 33797, Note_on_c, 0, 79, 0
1, 33807, Note_on_c, 1, 68, 0
1, 33808, Note_on_c, 1, 58, 0
1, 33809, Note_on_c, 0, 76, 72
1, 33810, Note_on_c, 0, 77, 0
1, 33824, Note_on_c, 0, 76, 0
1, 33824, Note_on_c, 0, 77, 64
1, 33838, Note_on_c, 0, 77, 0
1, 33839, Note_on_c, 0, 74, 56
1, 33840, Note_on_c, 0, 77, 76
1, 33841, Note_on_c, 1, 68, 58
1, 33841, Note_on_c, 1, 63, 62
1, 33958, Note_on_c, 1, 68, 0
1, 33959, Note_on_c, 0, 75, 64
1, 33959, Note_on_c, 1, 67, 50
1, 33960, Note_on_c, 0, 77, 0
1, 33960, Note_on_c, 0, 74, 0
1, 34018, Note_on_c, 1, 63, 0
1, 34021, Note_on_c, 1, 67, 0
1, 34045, Note_on_c, 0, 75, 0
1, 34079, Note_on_c, 1, 51, 58
1, 34080, Note_on_c, 0, 72, 85
1, 34111, Note_on_c, 1, 60, 54
1, 34112, Note_on_c, 1, 51, 0
1, 34140, Note_on_c, 1, 60, 0
1, 34140, Note_on_c, 1, 56, 46
1, 34168, Note_on_c, 1, 56, 0
1, 34169, Note_on_c, 0, 74, 85
1, 34169, Note_on_c, 1, 60, 49
1, 34170, Note_on_c, 0, 72, 0
1, 34199, Note_on_c, 0, 75, 72
1, 34199, Note_on_c, 1, 60, 0
1, 34199, Note_on_c, 1, 51, 50
1, 34202, Note_on_c, 0, 74, 0
1, 34229, Note_on_c, 1, 60, 49
1, 34230, Note_on_c, 1, 51, 0
1, 34255, Note_on_c, 0, 75, 0
1, 34259, Note_on_c, 0, 75, 80
1, 34259, Note_on_c, 1, 60, 0
1, 34259, Note_on_c, 1, 56, 52
1, 34288, Note_on_c, 1, 56, 0
1, 34289, Note_on_c, 1, 60, 45
1, 34316, Note_on_c, 0, 75, 0
1, 34317, Note_on_c, 1, 60, 0
1, 34319, Note_on_c, 0, 75, 89
1, 34319, Note_on_c, 1, 51, 50
1, 34350, Note_on_c, 1, 51, 0
1, 34351, Note_on_c, 1, 58, 31
1, 34380, Note_on_c, 1, 58, 0
1, 34381, Note_on_c, 1, 55, 47
1, 34409, Note_on_c, 1, 55, 0
1, 34410, Note_on_c, 1, 58, 35
1, 34412, Note_on_c, 0, 75, 0
1, 34415, Note_on_c, 0, 74, 76
1, 34425, Note_on_c, 0, 72, 72
1, 34430, Note_on_c, 0, 74, 0
1, 34439, Note_on_c, 1, 58, 0
1, 34439, Note_on_c, 1, 51, 49
1, 34440, Note_on_c, 0, 72, 0
1, 34441, Note_on_c, 0, 70, 80
1, 34469, Note_on_c, 1, 51, 0
1, 34469, Note_on_c, 1, 58, 29
1, 34499, Note_on_c, 1, 58, 0
1, 34499, Note_on_c, 1, 55, 54
1, 34505, Note_on_c, 0, 70, 0
1, 34529, Note_on_c, 1, 55, 0
1, 34530, Note_on_c, 1, 58, 34
1, 34557, Note_on_c, 1, 58, 0
1, 34559, Note_on_c, 0, 72, 76
1, 34559, Note_on_c, 1, 51, 62
1, 34588, Note_on_c, 1, 51, 0
1, 34589, Note_on_c, 1, 60, 46
1, 34619, Note_on_c, 1, 60, 0
1, 34619, Note_on_c, 1, 56, 54
1, 34645, Note_on_c, 0, 72, 0
1, 34649, Note_on_c, 0, 74, 62
1, 34649, Note_on_c, 1, 56, 0
1, 34649, Note_on_c, 1, 60, 38
1, 34679, Note_on_c, 0, 74, 0
1, 34679, Note_on_c, 1, 60, 0
1, 34679, Note_on_c, 1, 51, 62
1, 34680, Note_on_c, 0, 75, 80
1, 34708, Note_on_c, 0, 75, 0
1, 34709, Note_on_c, 0, 75, 62
1, 34709, Note_on_c, 1, 51, 0
1, 34709, Note_on_c, 1, 60, 41
1, 34737, Note_on_c, 0, 75, 0
1, 34739, Note_on_c, 0, 75, 89
1, 34739, Note_on_c, 1, 60, 0
1, 34739, Note_on_c, 1, 56, 52
1, 34767, Note_on_c, 0, 75, 0
1, 34769, Note_on_c, 0, 75, 89
1, 34769, Note_on_c, 1, 56, 0
1, 34769, Note_on_c, 1, 60, 41
1, 34796, Note_on_c, 0, 75, 0
1, 34799, Note_on_c, 1, 51, 54
1, 34800, Note_on_c, 0, 75, 89
1, 34801, Note_on_c, 1, 60, 0
1, 34815, Note_on_c, 0, 75, 0
1, 34815, Note_on_c, 0, 79, 68
1, 34829, Note_on_c, 1, 58, 47
1, 34830, Note_on_c, 0, 79, 0
1, 34830, Note_on_c, 0, 77, 68
1, 34830, Note_on_c, 1, 51, 0
1, 34845, Note_on_c, 0, 77, 0
1, 34845, Note_on_c, 0, 75, 62
1, 34856, Note_on_c, 1, 58, 0
1, 34859, Note_on_c, 1, 55, 62
1, 34860, Note_on_c, 0, 74, 80
1, 34874, Note_on_c, 0, 75, 0
1, 34875, Note_on_c, 0, 77, 89
1, 34886, Note_on_c, 0, 74, 0
1, 34889, Note_on_c, 1, 55, 0
1, 34889, Note_on_c, 1, 58, 28
1, 34890, Note_on_c, 0, 77, 0
1, 34890, Note_on_c, 0, 75, 57
1, 34905, Note_on_c, 0, 72, 59
1, 34917, Note_on_c, 0, 75, 0
1, 34918, Note_on_c, 1, 58, 0
1, 34919, Note_on_c, 1, 51, 58
1, 34921, Note_on_c, 0, 70, 68
1, 34930, Note_on_c, 0, 72, 0
1, 34949, Note_on_c, 1, 58, 32
1, 34950, Note_on_c, 1, 51, 0
1, 34979, Note_on_c, 1, 58, 0
1, 34979, Note_on_c, 1, 55, 54
1, 34982, Note_on_c, 0, 70, 0
1, 35009, Note_on_c, 1, 55, 0
1, 35009, Note_on_c, 1, 58, 41
1, 35036, Note_on_c, 1, 58, 0
1, 35039, Note_on_c, 1, 48, 70
1, 35069, Note_on_c, 0, 79, 89
1, 35099, Note_on_c, 0, 80, 85
1, 35102, Note_on_c, 0, 79, 0
1, 35129, Note_on_c, 0, 80, 0
1, 35129, Note_on_c, 0, 84, 89
1, 35136, Note_on_c, 1, 48, 0
1, 35159, Note_on_c, 0, 76, 64
1, 35161, Note_on_c, 0, 84, 0
1, 35189, Note_on_c, 1, 70, 54
1, 35189, Note_on_c, 1, 62, 58
1, 35216, Note_on_c, 1, 62, 0
1, 35216, Note_on_c, 1, 70, 0
1, 35218, Note_on_c, 1, 62, 70
1, 35219, Note_on_c, 1, 70, 62
1, 35221, Note_on_c, 0, 76, 0
1, 35221, Note_on_c, 0, 77, 68
1, 35246, Note_on_c, 1, 70, 0
1, 35247, Note_on_c, 1, 62, 0
1, 35249, Note_on_c, 1, 70, 62
1, 35249, Note_on_c, 1, 62, 66
1, 35276, Note_on_c, 1, 62, 0
1, 35276, Note_on_c, 1, 70, 0
1, 35277, Note_on_c, 0, 77, 0
1, 35279, Note_on_c, 1, 70, 62
1, 35279, Note_on_c, 1, 63, 54
1, 35309, Note_on_c, 0, 78, 76
1, 35338, Note_on_c, 1, 63, 0
1, 35338, Note_on_c, 1, 70, 0
1, 35339, Note_on_c, 0, 78, 0
1, 35340, Note_on_c, 0, 79, 93
1, 35369, Note_on_c, 0, 79, 0
1, 35369, Note_on_c, 0, 82, 85
1, 35400, Note_on_c, 0, 74, 76
1, 35401, Note_on_c, 0, 82, 0
1, 35429, Note_on_c, 1, 70, 54
1, 35429, Note_on_c, 1, 67, 62
1, 35456, Note_on_c, 1, 67, 0
1, 35456, Note_on_c, 1, 70, 0
1, 35459, Note_on_c, 0, 74, 0
1, 35459, Note_on_c, 0, 75, 62
1, 35459, Note_on_c, 1, 70, 58
1, 35459, Note_on_c, 1, 67, 58
1, 35486, Note_on_c, 1, 67, 0
1, 35487, Note_on_c, 1, 70, 0
1, 35489, Note_on_c, 1, 70, 54
1, 35489, Note_on_c, 1, 67, 66
1, 35515, Note_on_c, 1, 67, 0
1, 35517, Note_on_c, 0, 75, 0
1, 35517, Note_on_c, 1, 70, 0
1, 35519, Note_on_c, 1, 72, 62
1, 35520, Note_on_c, 1, 68, 62
1, 35549, Note_on_c, 0, 76, 76
1, 35579, Note_on_c, 0, 77, 80
1, 35582, Note_on_c, 0, 76, 0
1, 35608, Note_on_c, 1, 68, 0
1, 35608, Note_on_c, 1, 72, 0
1, 35611, Note_on_c, 0, 77, 0
1, 35611, Note_on_c, 0, 80, 80
1, 35639, Note_on_c, 0, 80, 0
1, 35640, Note_on_c, 0, 71, 62
1, 35671, Note_on_c, 0, 72, 76
1, 35672, Note_on_c, 0, 71, 0
1, 35700, Note_on_c, 0, 72, 0
1, 35701, Note_on_c, 0, 75, 72
1, 35701, Note_on_c, 1, 58, 50
1, 35701, Note_on_c, 1, 68, 62
1, 35728, Note_on_c, 1, 68, 0
1, 35728, Note_on_c, 1, 58, 0
1, 35729, Note_on_c, 0, 74, 80
1, 35730, Note_on_c, 0, 75, 0
1, 35759, Note_on_c, 0, 74, 0
1, 35759, Note_on_c, 0, 77, 80
1, 35760, Note_on_c, 1, 68, 62
1, 35760, Note_on_c, 1, 59, 62
1, 35855, Note_on_c, 1, 59, 0
1, 35875, Note_on_c, 1, 68, 0
1, 35879, Note_on_c, 0, 75, 55
1, 35880, Note_on_c, 0, 77, 0
1, 35880, Note_on_c, 1, 67, 52
1, 35880, Note_on_c, 1, 60, 40
1, 35937, Note_on_c, 1, 67, 0
1, 35938, Note_on_c, 1, 60, 0
1, 35940, Note_on_c, 0, 75, 0
1, 35998, Note_on_c, 1, 53, 66
1, 35999, Note_on_c, 0, 75, 80
1, 36029, Note_on_c, 1, 60, 42
1, 36031, Note_on_c, 1, 53, 0
1, 36059, Note_on_c, 1, 60, 0
1, 36059, Note_on_c, 1, 57, 62
1, 36089, Note_on_c, 1, 57, 0
1, 36089, Note_on_c, 1, 60, 46
1, 36116, Note_on_c, 0, 75, 0
1, 36119, Note_on_c, 0, 74, 80
1, 36119, Note_on_c, 1, 60, 0
1, 36119, Note_on_c, 1, 51, 52
1, 36148, Note_on_c, 1, 60, 47
1, 36149, Note_on_c, 0, 72, 76
1, 36149, Note_on_c, 1, 51, 0
1, 36151, Note_on_c, 0, 74, 0
1, 36179, Note_on_c, 0, 70, 76
1, 36179, Note_on_c, 1, 60, 0
1, 36179, Note_on_c, 1, 53, 66
1, 36180, Note_on_c, 0, 72, 0
1, 36209, Note_on_c, 0, 70, 0
1, 36209, Note_on_c, 0, 69, 93
1, 36209, Note_on_c, 1, 53, 0
1, 36209, Note_on_c, 1, 60, 52
1, 36235, Note_on_c, 1, 60, 0
1, 36239, Note_on_c, 0, 69, 0
1, 36239, Note_on_c, 1, 50, 75
1, 36240, Note_on_c, 0, 80, 93
1, 36269, Note_on_c, 1, 50, 0
1, 36269, Note_on_c, 1, 58, 45
1, 36298, Note_on_c, 1, 58, 0
1, 36299, Note_on_c, 1, 53, 79
1, 36325, Note_on_c, 0, 80, 0
1, 36328, Note_on_c, 1, 53, 0
1, 36329, Note_on_c, 1, 58, 39
1, 36355, Note_on_c, 1, 58, 0
1, 36359, Note_on_c, 0, 79, 76
1, 36359, Note_on_c, 1, 56, 66
1, 36388, Note_on_c, 1, 56, 0
1, 36389, Note_on_c, 0, 77, 62
1, 36389, Note_on_c, 1, 65, 37
1, 36392, Note_on_c, 0, 79, 0
1, 36418, Note_on_c, 1, 65, 0
1, 36419, Note_on_c, 0, 75, 68
1, 36419, Note_on_c, 1, 58, 62
1, 36421, Note_on_c, 0, 77, 0
1, 36448, Note_on_c, 1, 58, 0
1, 36449, Note_on_c, 0, 74, 72
1, 36449, Note_on_c, 1, 65, 47
1, 36451, Note_on_c, 0, 75, 0
1, 36475, Note_on_c, 1, 65, 0
1, 36479, Note_on_c, 0, 74, 0
1, 36480, Note_on_c, 0, 75, 76
1, 36480, Note_on_c, 1, 55, 70
1, 36480, Note_on_c, 1, 63, 52
1, 36507, Note_on_c, 1, 63, 0
1, 36507, Note_on_c, 1, 55, 0
1, 36509, Note_on_c, 0, 67, 76
1, 36510, Note_on_c, 0, 75, 0
1, 36539, Note_on_c, 0, 67, 0
1, 36539, Note_on_c, 0, 65, 32
1, 36540, Note_on_c, 1, 56, 58
1, 36541, Note_on_c, 1, 60, 62
1, 36566, Note_on_c, 1, 56, 0
1, 36567, Note_on_c, 1, 60, 0
1, 36571, Note_on_c, 0, 72, 76
1, 36572, Note_on_c, 0, 65, 0
1, 36600, Note_on_c, 1, 46, 62
1, 36600, Note_on_c, 1, 55, 52
1, 36601, Note_on_c, 0, 72, 0
1, 36601, Note_on_c, 0, 70, 62
1, 36629, Note_on_c, 0, 63, 55
1, 36631, Note_on_c, 0, 70, 0
1, 36632, Note_on_c, 1, 55, 0
1, 36632, Note_on_c, 1, 46, 0
1, 36659, Note_on_c, 1, 46, 49
1, 36660, Note_on_c, 0, 68, 60
1, 36660, Note_on_c, 1, 53, 50
1, 36662, Note_on_c, 0, 63, 0
1, 36687, Note_on_c, 1, 53, 0
1, 36687, Note_on_c, 1, 46, 0
1, 36690, Note_on_c, 0, 62, 64
1, 36691, Note_on_c, 0, 68, 0
1, 36719, Note_on_c, 1, 51, 52
1, 36720, Note_on_c, 0, 63, 62
1, 36721, Note_on_c, 0, 62, 0
1, 36749, Note_on_c, 1, 55, 62
1, 36752, Note_on_c, 1, 51, 0
1, 36775, Note_on_c, 0, 63, 0
1, 36779, Note_on_c, 1, 58, 54
1, 36780, Note_on_c, 1, 55, 0
1, 36805, Note_on_c, 1, 58, 0
1, 36809, Note_on_c, 1, 58, 49
1, 36835, Note_on_c, 1, 58, 0
1, 36839, Note_on_c, 1, 58, 50
1, 36869, Note_on_c, 0, 80, 80
1, 36897, Note_on_c, 1, 58, 0
1, 36900, Note_on_c, 0, 77, 72
1, 36902, Note_on_c, 0, 80, 0
1, 36930, Note_on_c, 0, 74, 76
1, 36932, Note_on_c, 0, 77, 0
1, 36959, Note_on_c, 1, 63, 46
1, 36961, Note_on_c, 0, 82, 85
1, 36962, Note_on_c, 0, 74, 0
1, 36989, Note_on_c, 1, 63, 0
1, 36989, Note_on_c, 1, 67, 66
1, 37019, Note_on_c, 1, 67, 0
1, 37019, Note_on_c, 1, 70, 66
1, 37045, Note_on_c, 1, 70, 0
1, 37049, Note_on_c, 1, 70, 58
1, 37075, Note_on_c, 0, 82, 0
1, 37075, Note_on_c, 1, 70, 0
1, 37079, Note_on_c, 1, 70, 62
1, 37109, Note_on_c, 0, 80, 64
1, 37109, Note_on_c, 1, 70, 0
1, 37139, Note_on_c, 0, 77, 76
1, 37141, Note_on_c, 0, 80, 0
1, 37169, Note_on_c, 0, 74, 62
1, 37170, Note_on_c, 0, 77, 0
1, 37199, Note_on_c, 1, 39, 58
1, 37201, Note_on_c, 0, 74, 0
1, 37201, Note_on_c, 0, 75, 62
1, 37229, Note_on_c, 1, 43, 52
1, 37230, Note_on_c, 1, 39, 0
1, 37259, Note_on_c, 1, 46, 54
1, 37261, Note_on_c, 1, 43, 0
1, 37285, Note_on_c, 1, 46, 0
1, 37287, Note_on_c, 0, 75, 0
1, 37289, Note_on_c, 1, 46, 54
1, 37315, Note_on_c, 1, 46, 0
1, 37319, Note_on_c, 1, 46, 58
1, 37349, Note_on_c, 0, 68, 64
1, 37378, Note_on_c, 1, 46, 0
1, 37379, Note_on_c, 0, 68, 0
1, 37379, Note_on_c, 0, 65, 76
1, 37409, Note_on_c, 0, 62, 68
1, 37410, Note_on_c, 0, 65, 0
1, 37435, Note_on_c, 0, 62, 0
1, 37441, Note_on_c, 0, 65, 72
1, 37441, Note_on_c, 0, 56, 62
1, 37441, Note_on_c, 1, 34, 52
1, 37441, Note_on_c, 1, 46, 41
1, 37674, Note_on_c, 0, 56, 0
1, 37675, Note_on_c, 0, 65, 0
1, 37678, Note_on_c, 1, 46, 0
1, 37678, Note_on_c, 1, 34, 0
1, 37679, Note_on_c, 1, 39, 33
1, 37681, Note_on_c, 0, 55, 62
1, 37681, Note_on_c, 0, 63, 51
1, 37740, Note_on_c, 0, 55, 0
1, 37741, Note_on_c, 0, 63, 0
1, 37745, Note_on_c, 1, 39, 0
1, 37755, End_track
0, 0, End_of_file