0, 0, Header, 0, 1, 120
1, 0, Start_track
1, 0, Tempo, 545455
1, 421, Note_on_c, 0, 70, 93
1, 481, Note_on_c, 0, 70, 0
1, 481, Note_on_c, 0, 74, 93
1, 481, Note_on_c, 1, 58, 52
1, 541, Note_on_c, 1, 65, 33
1, 543, Note_on_c, 0, 74, 0
1, 545, Note_on_c, 1, 58, 0
1, 596, Note_on_c, 1, 65, 0
1, 601, Note_on_c, 0, 75, 72
1, 601, Note_on_c, 1, 60, 66
1, 659, Note_on_c, 0, 75, 0
1, 661, Note_on_c, 1, 60, 0
1, 661, Note_on_c, 1, 65, 37
1, 718, Note_on_c, 1, 65, 0
1, 719, Note_on_c, 0, 76, 89
1, 719, Note_on_c, 1, 62, 70
1, 778, Note_on_c, 1, 62, 0
1, 781, Note_on_c, 1, 65, 42
1, 838, Note_on_c, 1, 65, 0
1, 839, Note_on_c, 0, 76, 0
1, 839, Note_on_c, 0, 77, 89
1, 839, Note_on_c, 1, 58, 52
1, 899, Note_on_c, 1, 58, 0
1, 900, Note_on_c, 0, 74, 85
1, 900, Note_on_c, 1, 65, 27
1, 904, Note_on_c, 0, 77, 0
1, 916, Note_on_c, 0, 74, 0
1, 945, Note_on_c, 0, 74, 64
1, 954, Note_on_c, 1, 65, 0
1, 958, Note_on_c, 0, 74, 0
1, 961, Note_on_c, 0, 72, 76
1, 961, Note_on_c, 1, 57, 66
1, 988, Note_on_c, 0, 72, 0
1, 1016, Note_on_c, 1, 57, 0
1, 1019, Note_on_c, 1, 65, 32
1, 1021, Note_on_c, 0, 71, 80
1, 1048, Note_on_c, 0, 71, 0
1, 1078, Note_on_c, 1, 65, 0
1, 1079, Note_on_c, 1, 58, 52
1, 1081, Note_on_c, 0, 72, 85
1, 1107, Note_on_c, 0, 72, 0
1, 1136, Note_on_c, 1, 58, 0
1, 1139, Note_on_c, 1, 65, 27
1, 1140, Note_on_c, 0, 74, 76
1, 1166, Note_on_c, 0, 74, 0
1, 1197, Note_on_c, 1, 65, 0
1, 1199, Note_on_c, 1, 60, 66
1, 1200, Note_on_c, 0, 77, 93
1, 1236, Note_on_c, 1, 60, 0
1, 1259, Note_on_c, 1, 65, 29
1, 1317, Note_on_c, 1, 65, 0
1, 1318, Note_on_c, 0, 77, 0
1, 1319, Note_on_c, 0, 75, 72
1, 1319, Note_on_c, 1, 63, 58
1, 1377, Note_on_c, 0, 75, 0
1, 1377, Note_on_c, 1, 63, 0
1, 1379, Note_on_c, 0, 69, 85
1, 1379, Note_on_c, 1, 65, 41
1, 1407, Note_on_c, 0, 69, 0
1, 1438, Note_on_c, 1, 65, 0
1, 1439, Note_on_c, 0, 70, 85
1, 1439, Note_on_c, 1, 62, 66
1, 1467, Note_on_c, 0, 70, 0
1, 1495, Note_on_c, 1, 62, 0
1, 1499, Note_on_c, 0, 70, 89
1, 1499, Note_on_c, 1, 65, 33
1, 1558, Note_on_c, 1, 65, 0
1, 1560, Note_on_c, 1, 62, 62
1, 1616, Note_on_c, 1, 62, 0
1, 1619, Note_on_c, 1, 65, 40
1, 1620, Note_on_c, 0, 70, 0
1, 1621, Note_on_c, 0, 71, 89
1, 1678, Note_on_c, 0, 71, 0
1, 1678, Note_on_c, 1, 65, 0
1, 1679, Note_on_c, 0, 72, 89
1, 1679, Note_on_c, 1, 57, 70
1, 1706, Note_on_c, 0, 72, 0
1, 1735, Note_on_c, 1, 57, 0
1, 1738, Note_on_c, 1, 65, 36
1, 1739, Note_on_c, 0, 72, 93
1, 1799, Note_on_c, 1, 65, 0
1, 1799, Note_on_c, 1, 57, 62
1, 1857, Note_on_c, 1, 57, 0
1, 1858, Note_on_c, 0, 72, 0
1, 1859, Note_on_c, 0, 73, 80
1, 1859, Note_on_c, 1, 65, 47
1, 1890, Note_on_c, 1, 65, 0
1, 1919, Note_on_c, 1, 58, 58
1, 1920, Note_on_c, 0, 73, 0
1, 1921, Note_on_c, 0, 74, 89
1, 1978, Note_on_c, 1, 58, 0
1, 1979, Note_on_c, 0, 74, 0
1, 1979, Note_on_c, 1, 57, 58
1, 1981, Note_on_c, 0, 72, 85
1, 2038, Note_on_c, 1, 57, 0
1, 2039, Note_on_c, 1, 58, 52
1, 2040, Note_on_c, 0, 72, 0
1, 2041, Note_on_c, 0, 74, 80
1, 2098, Note_on_c, 1, 58, 0
1, 2099, Note_on_c, 0, 74, 0
1, 2099, Note_on_c, 0, 75, 64
1, 2099, Note_on_c, 0, 72, 72
1, 2099, Note_on_c, 1, 51, 54
1, 2154, Note_on_c, 0, 75, 0
1, 2156, Note_on_c, 0, 72, 0
1, 2160, Note_on_c, 0, 70, 76
1, 2160, Note_on_c, 0, 74, 76
1, 2161, Note_on_c, 1, 53, 49
1, 2162, Note_on_c, 1, 51, 0
1, 2278, Note_on_c, 0, 74, 0
1, 2278, Note_on_c, 0, 70, 0
1, 2281, Note_on_c, 0, 69, 68
1, 2281, Note_on_c, 0, 72, 64
1, 2283, Note_on_c, 1, 53, 0
1, 2337, Note_on_c, 0, 69, 0
1, 2338, Note_on_c, 0, 72, 0
1, 2341, Note_on_c, 0, 70, 72
1, 2369, Note_on_c, 0, 70, 0
1, 2370, Note_on_c, 0, 72, 72
1, 2399, Note_on_c, 0, 72, 0
1, 2401, Note_on_c, 0, 74, 76
1, 2402, Note_on_c, 1, 58, 66
1, 2458, Note_on_c, 0, 74, 0
1, 2461, Note_on_c, 1, 58, 0
1, 2462, Note_on_c, 1, 65, 40
1, 2515, Note_on_c, 1, 65, 0
1, 2518, Note_on_c, 0, 75, 68
1, 2521, Note_on_c, 1, 60, 70
1, 2579, Note_on_c, 0, 75, 0
1, 2580, Note_on_c, 1, 60, 0
1, 2582, Note_on_c, 1, 65, 46
1, 2640, Note_on_c, 1, 65, 0
1, 2641, Note_on_c, 0, 76, 72
1, 2641, Note_on_c, 1, 62, 54
1, 2699, Note_on_c, 1, 62, 0
1, 2702, Note_on_c, 1, 65, 40
1, 2760, Note_on_c, 0, 76, 0
1, 2760, Note_on_c, 0, 77, 64
1, 2760, Note_on_c, 1, 65, 0
1, 2764, Note_on_c, 1, 58, 50
1, 2820, Note_on_c, 0, 74, 64
1, 2820, Note_on_c, 1, 65, 36
1, 2822, Note_on_c, 0, 77, 0
1, 2824, Note_on_c, 1, 58, 0
1, 2854, Note_on_c, 0, 74, 0
1, 2865, Note_on_c, 0, 74, 72
1, 2872, Note_on_c, 1, 65, 0
1, 2879, Note_on_c, 0, 74, 0
1, 2881, Note_on_c, 0, 72, 64
1, 2882, Note_on_c, 1, 57, 54
1, 2907, Note_on_c, 0, 72, 0
1, 2937, Note_on_c, 1, 57, 0
1, 2939, Note_on_c, 1, 65, 49
1, 2940, Note_on_c, 0, 71, 68
1, 2966, Note_on_c, 0, 71, 0
1, 2999, Note_on_c, 1, 65, 0
1, 3000, Note_on_c, 0, 72, 76
1, 3001, Note_on_c, 1, 58, 52
1, 3026, Note_on_c, 0, 72, 0
1, 3058, Note_on_c, 1, 58, 0
1, 3059, Note_on_c, 0, 74, 72
1, 3061, Note_on_c, 1, 65, 40
1, 3087, Note_on_c, 0, 74, 0
1, 3118, Note_on_c, 1, 65, 0
1, 3119, Note_on_c, 0, 77, 72
1, 3119, Note_on_c, 1, 60, 66
1, 3178, Note_on_c, 1, 60, 0
1, 3180, Note_on_c, 1, 65, 38
1, 3238, Note_on_c, 0, 77, 0
1, 3238, Note_on_c, 1, 65, 0
1, 3239, Note_on_c, 0, 75, 72
1, 3240, Note_on_c, 1, 63, 50
1, 3297, Note_on_c, 0, 75, 0
1, 3298, Note_on_c, 1, 63, 0
1, 3299, Note_on_c, 0, 69, 80
1, 3299, Note_on_c, 1, 65, 47
1, 3326, Note_on_c, 0, 69, 0
1, 3357, Note_on_c, 1, 65, 0
1, 3359, Note_on_c, 0, 70, 72
1, 3359, Note_on_c, 1, 62, 62
1, 3421, Note_on_c, 0, 82, 89
1, 3423, Note_on_c, 0, 70, 0
1, 3477, Note_on_c, 0, 82, 0
1, 3481, Note_on_c, 0, 82, 76
1, 3485, Note_on_c, 1, 62, 0
1, 3507, Note_on_c, 0, 82, 0
1, 3541, Note_on_c, 0, 82, 85
1, 3567, Note_on_c, 0, 82, 0
1, 3599, Note_on_c, 1, 63, 47
1, 3599, Note_on_c, 1, 67, 45
1, 3601, Note_on_c, 0, 72, 76
1, 3661, Note_on_c, 0, 72, 0
1, 3661, Note_on_c, 0, 79, 72
1, 3717, Note_on_c, 0, 79, 0
1, 3718, Note_on_c, 1, 63, 0
1, 3720, Note_on_c, 1, 67, 0
1, 3721, Note_on_c, 0, 79, 93
1, 3747, Note_on_c, 0, 79, 0
1, 3781, Note_on_c, 0, 79, 93
1, 3807, Note_on_c, 0, 79, 0
1, 3840, Note_on_c, 0, 70, 85
1, 3841, Note_on_c, 1, 53, 58
1, 3841, Note_on_c, 1, 62, 52
1, 3876, Note_on_c, 0, 70, 0
1, 3899, Note_on_c, 0, 70, 80
1, 3903, Note_on_c, 1, 62, 0
1, 3954, Note_on_c, 0, 74, 89
1, 3957, Note_on_c, 1, 63, 52
1, 3960, Note_on_c, 0, 70, 0
1, 3976, Note_on_c, 0, 72, 64
1, 3982, Note_on_c, 0, 74, 0
1, 3991, Note_on_c, 0, 70, 64
1, 4002, Note_on_c, 0, 72, 0
1, 4018, Note_on_c, 0, 70, 0
1, 4018, Note_on_c, 0, 72, 76
1, 4018, Note_on_c, 1, 53, 0
1, 4022, Note_on_c, 1, 63, 0
1, 4049, Note_on_c, 0, 74, 68
1, 4051, Note_on_c, 0, 72, 0
1, 4079, Note_on_c, 0, 74, 0
1, 4079, Note_on_c, 0, 70, 80
1, 4080, Note_on_c, 1, 58, 50
1, 4081, Note_on_c, 1, 62, 45
1, 4176, Note_on_c, 0, 70, 0
1, 4202, Note_on_c, 1, 62, 0
1, 4202, Note_on_c, 1, 58, 0
1, 4259, Note_on_c, 0, 70, 60
1, 4289, Note_on_c, 0, 74, 76
1, 4291, Note_on_c, 0, 70, 0
1, 4319, Note_on_c, 0, 77, 72
1, 4319, Note_on_c, 1, 53, 62
1, 4320, Note_on_c, 0, 74, 0
1, 4378, Note_on_c, 0, 77, 0
1, 4381, Note_on_c, 1, 57, 54
1, 4383, Note_on_c, 1, 53, 0
1, 4439, Note_on_c, 0, 76, 89
1, 4441, Note_on_c, 1, 55, 75
1, 4442, Note_on_c, 1, 57, 0
1, 4499, Note_on_c, 0, 76, 0
1, 4500, Note_on_c, 1, 55, 0
1, 4501, Note_on_c, 1, 58, 26
1, 4560, Note_on_c, 0, 84, 93
1, 4560, Note_on_c, 1, 58, 0
1, 4561, Note_on_c, 1, 57, 66
1, 4586, Note_on_c, 0, 84, 0
1, 4620, Note_on_c, 0, 75, 85
1, 4621, Note_on_c, 1, 57, 0
1, 4621, Note_on_c, 1, 60, 46
1, 4678, Note_on_c, 1, 60, 0
1, 4681, Note_on_c, 1, 58, 58
1, 4738, Note_on_c, 0, 75, 0
1, 4739, Note_on_c, 1, 58, 0
1, 4740, Note_on_c, 0, 74, 80
1, 4741, Note_on_c, 1, 65, 52
1, 4802, Note_on_c, 1, 65, 0
1, 4803, Note_on_c, 1, 63, 62
1, 4861, Note_on_c, 0, 71, 80
1, 4862, Note_on_c, 0, 74, 0
1, 4918, Note_on_c, 0, 71, 0
1, 4920, Note_on_c, 0, 72, 76
1, 4977, Note_on_c, 1, 63, 0
1, 4978, Note_on_c, 0, 72, 0
1, 4979, Note_on_c, 0, 79, 85
1, 4979, Note_on_c, 1, 64, 66
1, 5039, Note_on_c, 0, 70, 76
1, 5040, Note_on_c, 0, 79, 0
1, 5041, Note_on_c, 1, 64, 0
1, 5041, Note_on_c, 1, 65, 54
1, 5131, Note_on_c, 0, 72, 59
1, 5132, Note_on_c, 0, 70, 0
1, 5145, Note_on_c, 0, 70, 76
1, 5146, Note_on_c, 0, 72, 0
1, 5162, Note_on_c, 0, 69, 85
1, 5172, Note_on_c, 0, 70, 0
1, 5177, Note_on_c, 1, 65, 0
1, 5194, Note_on_c, 0, 69, 0
1, 5222, Note_on_c, 0, 69, 60
1, 5252, Note_on_c, 0, 69, 0
1, 5252, Note_on_c, 0, 72, 72
1, 5280, Note_on_c, 0, 72, 0
1, 5281, Note_on_c, 0, 77, 85
1, 5281, Note_on_c, 1, 53, 66
1, 5308, Note_on_c, 0, 77, 0
1, 5340, Note_on_c, 1, 53, 0
1, 5341, Note_on_c, 1, 57, 46
1, 5397, Note_on_c, 1, 57, 0
1, 5399, Note_on_c, 0, 76, 93
1, 5401, Note_on_c, 1, 55, 66
1, 5428, Note_on_c, 0, 76, 0
1, 5460, Note_on_c, 1, 55, 0
1, 5461, Note_on_c, 1, 58, 40
1, 5519, Note_on_c, 0, 84, 93
1, 5520, Note_on_c, 1, 58, 0
1, 5521, Note_on_c, 1, 57, 62
1, 5547, Note_on_c, 0, 84, 0
1, 5578, Note_on_c, 1, 57, 0
1, 5580, Note_on_c, 0, 75, 93
1, 5581, Note_on_c, 1, 60, 46
1, 5638, Note_on_c, 1, 60, 0
1, 5639, Note_on_c, 1, 58, 62
1, 5697, Note_on_c, 1, 58, 0
1, 5698, Note_on_c, 0, 75, 0
1, 5699, Note_on_c, 0, 74, 93
1, 5699, Note_on_c, 1, 65, 62
1, 5729, Note_on_c, 1, 65, 0
1, 5761, Note_on_c, 1, 67, 70
1, 5761, Note_on_c, 1, 70, 54
1, 5762, Note_on_c, 0, 74, 0
1, 5819, Note_on_c, 0, 82, 85
1, 5879, Note_on_c, 0, 82, 0
1, 5879, Note_on_c, 0, 79, 89
1, 5934, Note_on_c, 1, 67, 0
1, 5938, Note_on_c, 0, 79, 0
1, 5938, Note_on_c, 0, 76, 80
1, 5938, Note_on_c, 1, 70, 0
1, 5999, Note_on_c, 0, 77, 76
1, 5999, Note_on_c, 1, 65, 52
1, 5999, Note_on_c, 1, 69, 41
1, 6000, Note_on_c, 0, 76, 0
1, 6057, Note_on_c, 0, 77, 0
1, 6058, Note_on_c, 0, 81, 72
1, 6117, Note_on_c, 0, 81, 0
1, 6117, Note_on_c, 0, 84, 93
1, 6124, Note_on_c, 1, 65, 0
1, 6125, Note_on_c, 1, 69, 0
1, 6149, Note_on_c, 0, 84, 0
1, 6178, Note_on_c, 0, 84, 89
1, 6207, Note_on_c, 0, 84, 0
1, 6238, Note_on_c, 1, 67, 66
1, 6238, Note_on_c, 1, 70, 62
1, 6301, Note_on_c, 0, 84, 85
1, 6331, Note_on_c, 0, 82, 68
1, 6333, Note_on_c, 0, 84, 0
1, 6361, Note_on_c, 0, 81, 76
1, 6363, Note_on_c, 0, 82, 0
1, 6391, Note_on_c, 0, 81, 0
1, 6391, Note_on_c, 0, 79, 59
1, 6421, Note_on_c, 0, 79, 0
1, 6421, Note_on_c, 0, 77, 64
1, 6423, Note_on_c, 1, 67, 0
1, 6426, Note_on_c, 1, 70, 0
1, 6451, Note_on_c, 0, 77, 0
1, 6451, Note_on_c, 0, 76, 64
1, 6480, Note_on_c, 0, 76, 0
1, 6481, Note_on_c, 0, 77, 76
1, 6481, Note_on_c, 1, 65, 46
1, 6481, Note_on_c, 1, 69, 38
1, 6511, Note_on_c, 0, 72, 56
1, 6513, Note_on_c, 0, 77, 0
1, 6541, Note_on_c, 0, 72, 0
1, 6541, Note_on_c, 0, 77, 76
1, 6568, Note_on_c, 1, 65, 0
1, 6569, Note_on_c, 0, 77, 0
1, 6569, Note_on_c, 0, 81, 76
1, 6571, Note_on_c, 1, 69, 0
1, 6599, Note_on_c, 0, 81, 0
1, 6599, Note_on_c, 0, 84, 89
1, 6634, Note_on_c, 0, 84, 0
1, 6660, Note_on_c, 0, 84, 89
1, 6693, Note_on_c, 0, 84, 0
1, 6720, Note_on_c, 1, 70, 54
1, 6721, Note_on_c, 1, 67, 66
1, 6751, Note_on_c, 0, 81, 93
1, 6781, Note_on_c, 0, 84, 80
1, 6783, Note_on_c, 0, 81, 0
1, 6810, Note_on_c, 0, 82, 60
1, 6813, Note_on_c, 0, 84, 0
1, 6841, Note_on_c, 0, 81, 76
1, 6843, Note_on_c, 0, 82, 0
1, 6871, Note_on_c, 0, 81, 0
1, 6871, Note_on_c, 0, 79, 57
1, 6896, Note_on_c, 1, 67, 0
1, 6898, Note_on_c, 1, 70, 0
1, 6899, Note_on_c, 0, 79, 0
1, 6901, Note_on_c, 0, 77, 59
1, 6930, Note_on_c, 0, 77, 0
1, 6931, Note_on_c, 0, 76, 62
1, 6959, Note_on_c, 1, 69, 50
1, 6959, Note_on_c, 1, 65, 54
1, 6961, Note_on_c, 0, 76, 0
1, 6961, Note_on_c, 0, 77, 72
1, 6990, Note_on_c, 0, 78, 53
1, 6991, Note_on_c, 0, 77, 0
1, 7021, Note_on_c, 0, 78, 0
1, 7021, Note_on_c, 0, 81, 85
1, 7049, Note_on_c, 0, 79, 80
1, 7051, Note_on_c, 0, 81, 0
1, 7080, Note_on_c, 1, 69, 0
1, 7081, Note_on_c, 0, 77, 72
1, 7081, Note_on_c, 1, 65, 0
1, 7082, Note_on_c, 0, 79, 0
1, 7109, Note_on_c, 0, 75, 64
1, 7111, Note_on_c, 0, 77, 0
1, 7139, Note_on_c, 0, 75, 0
1, 7139, Note_on_c, 0, 74, 64
1, 7169, Note_on_c, 0, 74, 0
1, 7169, Note_on_c, 0, 73, 47
1, 7199, Note_on_c, 0, 74, 80
1, 7199, Note_on_c, 1, 58, 50
1, 7201, Note_on_c, 0, 73, 0
1, 7258, Note_on_c, 0, 74, 0
1, 7261, Note_on_c, 1, 65, 39
1, 7262, Note_on_c, 1, 58, 0
1, 7319, Note_on_c, 0, 75, 80
1, 7321, Note_on_c, 1, 65, 0
1, 7321, Note_on_c, 1, 60, 66
1, 7356, Note_on_c, 0, 75, 0
1, 7380, Note_on_c, 1, 60, 0
1, 7381, Note_on_c, 1, 65, 37
1, 7439, Note_on_c, 0, 76, 76
1, 7440, Note_on_c, 1, 65, 0
1, 7440, Note_on_c, 1, 62, 54
1, 7501, Note_on_c, 1, 62, 0
1, 7502, Note_on_c, 1, 65, 31
1, 7558, Note_on_c, 0, 77, 76
1, 7558, Note_on_c, 1, 65, 0
1, 7560, Note_on_c, 0, 76, 0
1, 7560, Note_on_c, 1, 58, 62
1, 7620, Note_on_c, 0, 74, 76
1, 7621, Note_on_c, 0, 77, 0
1, 7621, Note_on_c, 1, 58, 0
1, 7622, Note_on_c, 1, 65, 42
1, 7656, Note_on_c, 0, 74, 0
1, 7665, Note_on_c, 0, 74, 76
1, 7677, Note_on_c, 0, 74, 0
1, 7678, Note_on_c, 1, 65, 0
1, 7681, Note_on_c, 0, 72, 76
1, 7681, Note_on_c, 1, 57, 62
1, 7708, Note_on_c, 0, 72, 0
1, 7738, Note_on_c, 1, 57, 0
1, 7740, Note_on_c, 0, 71, 72
1, 7741, Note_on_c, 1, 65, 36
1, 7766, Note_on_c, 0, 71, 0
1, 7798, Note_on_c, 1, 65, 0
1, 7799, Note_on_c, 1, 58, 52
1, 7800, Note_on_c, 0, 72, 76
1, 7826, Note_on_c, 0, 72, 0
1, 7859, Note_on_c, 0, 74, 76
1, 7859, Note_on_c, 1, 58, 0
1, 7861, Note_on_c, 1, 65, 40
1, 7886, Note_on_c, 0, 74, 0
1, 7918, Note_on_c, 1, 65, 0
1, 7919, Note_on_c, 0, 77, 85
1, 7919, Note_on_c, 1, 60, 62
1, 7978, Note_on_c, 1, 60, 0
1, 7980, Note_on_c, 1, 65, 35
1, 8038, Note_on_c, 1, 65, 0
1, 8039, Note_on_c, 0, 75, 64
1, 8039, Note_on_c, 1, 63, 62
1, 8040, Note_on_c, 0, 77, 0
1, 8098, Note_on_c, 0, 75, 0
1, 8098, Note_on_c, 0, 69, 80
1, 8098, Note_on_c, 1, 63, 0
1, 8099, Note_on_c, 1, 65, 41
1, 8129, Note_on_c, 0, 69, 0
1, 8158, Note_on_c, 0, 70, 80
1, 8158, Note_on_c, 1, 65, 0
1, 8158, Note_on_c, 1, 62, 58
1, 8186, Note_on_c, 0, 70, 0
1, 8217, Note_on_c, 1, 62, 0
1, 8218, Note_on_c, 0, 70, 98
1, 8219, Note_on_c, 1, 65, 26
1, 8276, Note_on_c, 1, 65, 0
1, 8278, Note_on_c, 1, 62, 52
1, 8336, Note_on_c, 1, 62, 0
1, 8339, Note_on_c, 0, 70, 0
1, 8339, Note_on_c, 0, 71, 76
1, 8339, Note_on_c, 1, 65, 32
1, 8397, Note_on_c, 1, 65, 0
1, 8398, Note_on_c, 0, 71, 0
1, 8398, Note_on_c, 0, 72, 89
1, 8398, Note_on_c, 1, 57, 58
1, 8426, Note_on_c, 0, 72, 0
1, 8456, Note_on_c, 1, 57, 0
1, 8458, Note_on_c, 1, 65, 33
1, 8459, Note_on_c, 0, 72, 93
1, 8517, Note_on_c, 1, 65, 0
1, 8519, Note_on_c, 1, 57, 62
1, 8577, Note_on_c, 0, 72, 0
1, 8577, Note_on_c, 1, 57, 0
1, 8579, Note_on_c, 0, 73, 85
1, 8579, Note_on_c, 1, 65, 62
1, 8639, Note_on_c, 0, 74, 89
1, 8639, Note_on_c, 1, 58, 52
1, 8640, Note_on_c, 0, 73, 0
1, 8640, Note_on_c, 1, 65, 0
1, 8698, Note_on_c, 0, 74, 0
1, 8699, Note_on_c, 0, 72, 72
1, 8699, Note_on_c, 1, 58, 0
1, 8699, Note_on_c, 1, 57, 79
1, 8759, Note_on_c, 0, 72, 0
1, 8759, Note_on_c, 0, 74, 80
1, 8759, Note_on_c, 1, 57, 0
1, 8759, Note_on_c, 1, 58, 70
1, 8817, Note_on_c, 1, 58, 0
1, 8819, Note_on_c, 0, 75, 72
1, 8819, Note_on_c, 1, 51, 58
1, 8820, Note_on_c, 0, 74, 0
1, 8820, Note_on_c, 0, 72, 76
1, 8856, Note_on_c, 0, 75, 0
1, 8876, Note_on_c, 0, 72, 0
1, 8881, Note_on_c, 0, 74, 76
1, 8881, Note_on_c, 0, 70, 72
1, 8881, Note_on_c, 1, 53, 66
1, 8882, Note_on_c, 1, 51, 0
1, 8997, Note_on_c, 0, 70, 0
1, 8997, Note_on_c, 0, 74, 0
1, 9000, Note_on_c, 0, 69, 76
1, 9000, Note_on_c, 0, 72, 68
1, 9001, Note_on_c, 1, 53, 0
1, 9057, Note_on_c, 0, 69, 0
1, 9059, Note_on_c, 0, 72, 0
1, 9061, Note_on_c, 0, 70, 59
1, 9089, Note_on_c, 0, 70, 0
1, 9091, Note_on_c, 0, 72, 64
1, 9119, Note_on_c, 0, 72, 0
1, 9119, Note_on_c, 1, 58, 50
1, 9120, Note_on_c, 0, 74, 64
1, 9180, Note_on_c, 0, 74, 0
1, 9181, Note_on_c, 1, 65, 27
1, 9184, Note_on_c, 1, 58, 0
1, 9238, Note_on_c, 1, 65, 0
1, 9239, Note_on_c, 0, 75, 59
1, 9240, Note_on_c, 1, 60, 54
1, 9298, Note_on_c, 0, 75, 0
1, 9301, Note_on_c, 1, 60, 0
1, 9301, Note_on_c, 1, 65, 38
1, 9358, Note_on_c, 1, 65, 0
1, 9359, Note_on_c, 0, 76, 72
1, 9361, Note_on_c, 1, 62, 49
1, 9418, Note_on_c, 1, 62, 0
1, 9422, Note_on_c, 1, 65, 39
1, 9477, Note_on_c, 1, 65, 0
1, 9479, Note_on_c, 0, 77, 64
1, 9480, Note_on_c, 0, 76, 0
1, 9481, Note_on_c, 1, 58, 47
1, 9538, Note_on_c, 1, 58, 0
1, 9540, Note_on_c, 0, 77, 0
1, 9540, Note_on_c, 0, 74, 72
1, 9541, Note_on_c, 1, 65, 41
1, 9567, Note_on_c, 0, 74, 0
1, 9597, Note_on_c, 0, 74, 62
1, 9598, Note_on_c, 1, 65, 0
1, 9600, Note_on_c, 0, 72, 72
1, 9601, Note_on_c, 1, 57, 47
1, 9626, Note_on_c, 0, 72, 0
1, 9626, Note_on_c, 0, 74, 0
1, 9659, Note_on_c, 1, 57, 0
1, 9661, Note_on_c, 0, 71, 68
1, 9661, Note_on_c, 1, 65, 36
1, 9687, Note_on_c, 0, 71, 0
1, 9717, Note_on_c, 1, 65, 0
1, 9720, Note_on_c, 1, 58, 45
1, 9721, Note_on_c, 0, 72, 72
1, 9747, Note_on_c, 0, 72, 0
1, 9778, Note_on_c, 1, 58, 0
1, 9779, Note_on_c, 1, 65, 37
1, 9781, Note_on_c, 0, 74, 76
1, 9807, Note_on_c, 0, 74, 0
1, 9838, Note_on_c, 1, 65, 0
1, 9839, Note_on_c, 0, 77, 72
1, 9839, Note_on_c, 1, 60, 58
1, 9897, Note_on_c, 1, 60, 0
1, 9899, Note_on_c, 1, 65, 25
1, 9958, Note_on_c, 0, 77, 0
1, 9958, Note_on_c, 1, 65, 0
1, 9959, Note_on_c, 0, 75, 59
1, 9959, Note_on_c, 1, 63, 45
1, 10017, Note_on_c, 1, 63, 0
1, 10018, Note_on_c, 0, 75, 0
1, 10019, Note_on_c, 0, 69, 68
1, 10019, Note_on_c, 1, 65, 42
1, 10047, Note_on_c, 0, 69, 0
1, 10078, Note_on_c, 1, 65, 0
1, 10079, Note_on_c, 0, 70, 60
1, 10079, Note_on_c, 1, 62, 62
1, 10139, Note_on_c, 0, 82, 72
1, 10140, Note_on_c, 0, 70, 0
1, 10167, Note_on_c, 1, 62, 0
1, 10171, Note_on_c, 0, 82, 0
1, 10199, Note_on_c, 0, 82, 80
1, 10227, Note_on_c, 0, 82, 0
1, 10259, Note_on_c, 0, 82, 72
1, 10286, Note_on_c, 0, 82, 0
1, 10318, Note_on_c, 1, 63, 52
1, 10318, Note_on_c, 1, 67, 50
1, 10319, Note_on_c, 0, 72, 72
1, 10378, Note_on_c, 0, 72, 0
1, 10378, Note_on_c, 0, 79, 76
1, 10411, Note_on_c, 0, 79, 0
1, 10414, Note_on_c, 1, 63, 0
1, 10415, Note_on_c, 1, 67, 0
1, 10438, Note_on_c, 0, 79, 85
1, 10466, Note_on_c, 0, 79, 0
1, 10498, Note_on_c, 0, 79, 80
1, 10526, Note_on_c, 0, 79, 0
1, 10558, Note_on_c, 1, 53, 58
1, 10558, Note_on_c, 1, 62, 50
1, 10559, Note_on_c, 0, 70, 72
1, 10561, Note_on_c, 0, 70, 80
1, 10589, Note_on_c, 0, 70, 0
1, 10594, Note_on_c, 0, 70, 0
1, 10619, Note_on_c, 0, 70, 57
1, 10623, Note_on_c, 1, 62, 0
1, 10674, Note_on_c, 0, 74, 76
1, 10678, Note_on_c, 1, 63, 52
1, 10679, Note_on_c, 0, 70, 0
1, 10694, Note_on_c, 0, 72, 68
1, 10699, Note_on_c, 0, 74, 0
1, 10709, Note_on_c, 0, 70, 56
1, 10713, Note_on_c, 0, 72, 0
1, 10732, Note_on_c, 0, 70, 0
1, 10738, Note_on_c, 0, 72, 76
1, 10743, Note_on_c, 1, 53, 0
1, 10747, Note_on_c, 1, 63, 0
1, 10768, Note_on_c, 0, 74, 64
1, 10771, Note_on_c, 0, 72, 0
1, 10799, Note_on_c, 0, 70, 72
1, 10801, Note_on_c, 0, 74, 0
1, 10801, Note_on_c, 1, 58, 47
1, 10801, Note_on_c, 1, 62, 50
1, 10915, Note_on_c, 0, 70, 0
1, 10923, Note_on_c, 1, 62, 0
1, 10924, Note_on_c, 1, 58, 0
1, 10982, Note_on_c, 0, 65, 72
1, 11037, Note_on_c, 0, 65, 0
1, 11042, Note_on_c, 0, 65, 64
1, 11042, Note_on_c, 0, 74, 76
1, 11043, Note_on_c, 1, 46, 83
1, 11067, Note_on_c, 0, 74, 0
1, 11067, Note_on_c, 0, 65, 0
1, 11097, Note_on_c, 1, 46, 0
1, 11102, Note_on_c, 0, 65, 72
1, 11102, Note_on_c, 0, 74, 85
1, 11102, Note_on_c, 1, 58, 39
1, 11130, Note_on_c, 1, 58, 0
1, 11162, Note_on_c, 1, 58, 50
1, 11187, Note_on_c, 0, 65, 0
1, 11189, Note_on_c, 1, 58, 0
1, 11192, Note_on_c, 0, 74, 0
1, 11222, Note_on_c, 1, 58, 50
1, 11223, Note_on_c, 0, 62, 62
1, 11223, Note_on_c, 0, 70, 68
1, 11249, Note_on_c, 1, 58, 0
1, 11251, Note_on_c, 0, 62, 0
1, 11253, Note_on_c, 0, 70, 0
1, 11282, Note_on_c, 0, 75, 80
1, 11282, Note_on_c, 0, 67, 76
1, 11282, Note_on_c, 1, 46, 58
1, 11306, Note_on_c, 0, 67, 0
1, 11307, Note_on_c, 0, 75, 0
1, 11338, Note_on_c, 1, 46, 0
1, 11341, Note_on_c, 1, 58, 46
1, 11342, Note_on_c, 0, 75, 64
1, 11342, Note_on_c, 0, 67, 76
1, 11369, Note_on_c, 1, 58, 0
1, 11401, Note_on_c, 1, 58, 58
1, 11423, Note_on_c, 0, 75, 0
1, 11425, Note_on_c, 0, 67, 0
1, 11428, Note_on_c, 1, 58, 0
1, 11461, Note_on_c, 0, 63, 60
1, 11461, Note_on_c, 0, 72, 72
1, 11461, Note_on_c, 1, 58, 58
1, 11486, Note_on_c, 1, 58, 0
1, 11516, Note_on_c, 0, 63, 0
1, 11518, Note_on_c, 0, 72, 0
1, 11521, Note_on_c, 0, 67, 85
1, 11521, Note_on_c, 1, 58, 66
1, 11521, Note_on_c, 1, 63, 54
1, 11581, Note_on_c, 0, 67, 0
1, 11581, Note_on_c, 0, 70, 72
1, 11638, Note_on_c, 1, 63, 0
1, 11639, Note_on_c, 1, 60, 66
1, 11641, Note_on_c, 0, 69, 76
1, 11642, Note_on_c, 0, 70, 0
1, 11701, Note_on_c, 0, 72, 80
1, 11702, Note_on_c, 0, 69, 0
1, 11734, Note_on_c, 1, 60, 0
1, 11734, Note_on_c, 1, 58, 0
1, 11761, Note_on_c, 0, 70, 72
1, 11762, Note_on_c, 1, 58, 46
1, 11762, Note_on_c, 1, 62, 47
1, 11763, Note_on_c, 0, 72, 0
1, 11789, Note_on_c, 0, 70, 0
1, 11789, Note_on_c, 0, 69, 76
1, 11821, Note_on_c, 0, 70, 72
1, 11824, Note_on_c, 0, 69, 0
1, 11851, Note_on_c, 0, 70, 0
1, 11851, Note_on_c, 0, 72, 85
1, 11881, Note_on_c, 0, 70, 72
1, 11883, Note_on_c, 0, 72, 0
1, 11903, Note_on_c, 1, 62, 0
1, 11905, Note_on_c, 1, 58, 0
1, 11908, Note_on_c, 0, 70, 0
1, 11941, Note_on_c, 0, 70, 72
1, 11969, Note_on_c, 0, 70, 0
1, 12001, Note_on_c, 1, 46, 54
1, 12002, Note_on_c, 0, 77, 72
1, 12002, Note_on_c, 0, 74, 76
1, 12028, Note_on_c, 0, 74, 0
1, 12028, Note_on_c, 0, 77, 0
1, 12058, Note_on_c, 1, 46, 0
1, 12061, Note_on_c, 1, 58, 43
1, 12062, Note_on_c, 0, 74, 76
1, 12062, Note_on_c, 0, 77, 85
1, 12095, Note_on_c, 1, 58, 0
1, 12123, Note_on_c, 1, 58, 49
1, 12151, Note_on_c, 1, 58, 0
1, 12173, Note_on_c, 0, 74, 0
1, 12175, Note_on_c, 0, 77, 0
1, 12181, Note_on_c, 1, 58, 52
1, 12182, Note_on_c, 0, 74, 80
1, 12182, Note_on_c, 0, 70, 64
1, 12209, Note_on_c, 1, 58, 0
1, 12239, Note_on_c, 0, 70, 0
1, 12240, Note_on_c, 0, 74, 0
1, 12241, Note_on_c, 1, 46, 66
1, 12242, Note_on_c, 0, 79, 93
1, 12242, Note_on_c, 0, 75, 76
1, 12267, Note_on_c, 0, 75, 0
1, 12267, Note_on_c, 0, 79, 0
1, 12300, Note_on_c, 1, 46, 0
1, 12301, Note_on_c, 0, 79, 80
1, 12301, Note_on_c, 0, 75, 72
1, 12301, Note_on_c, 1, 58, 47
1, 12328, Note_on_c, 1, 58, 0
1, 12362, Note_on_c, 1, 58, 58
1, 12384, Note_on_c, 0, 75, 0
1, 12385, Note_on_c, 0, 79, 0
1, 12387, Note_on_c, 1, 58, 0
1, 12421, Note_on_c, 0, 75, 68
1, 12421, Note_on_c, 0, 72, 60
1, 12421, Note_on_c, 1, 58, 58
1, 12447, Note_on_c, 1, 58, 0
1, 12448, Note_on_c, 0, 72, 0
1, 12448, Note_on_c, 0, 75, 0
1, 12481, Note_on_c, 0, 70, 62
1, 12482, Note_on_c, 1, 67, 70
1, 12482, Note_on_c, 1, 58, 50
1, 12542, Note_on_c, 0, 74, 80
1, 12543, Note_on_c, 0, 70, 0
1, 12601, Note_on_c, 1, 69, 70
1, 12602, Note_on_c, 0, 74, 0
1, 12602, Note_on_c, 0, 72, 76
1, 12603, Note_on_c, 1, 67, 0
1, 12662, Note_on_c, 0, 72, 0
1, 12662, Note_on_c, 0, 75, 93
1, 12665, Note_on_c, 1, 69, 0
1, 12683, Note_on_c, 1, 58, 0
1, 12721, Note_on_c, 1, 70, 58
1, 12721, Note_on_c, 1, 58, 52
1, 12722, Note_on_c, 0, 74, 89
1, 12723, Note_on_c, 0, 75, 0
1, 12752, Note_on_c, 0, 72, 62
1, 12754, Note_on_c, 0, 74, 0
1, 12782, Note_on_c, 0, 74, 89
1, 12784, Note_on_c, 0, 72, 0
1, 12812, Note_on_c, 0, 75, 55
1, 12813, Note_on_c, 0, 74, 0
1, 12834, Note_on_c, 1, 70, 0
1, 12836, Note_on_c, 1, 58, 0
1, 12842, Note_on_c, 0, 74, 85
1, 12844, Note_on_c, 0, 75, 0
1, 12869, Note_on_c, 0, 74, 0
1, 12901, Note_on_c, 0, 74, 85
1, 12928, Note_on_c, 0, 74, 0
1, 12960, Note_on_c, 0, 86, 72
1, 12961, Note_on_c, 1, 66, 62
1, 12987, Note_on_c, 0, 86, 0
1, 13019, Note_on_c, 0, 86, 85
1, 13020, Note_on_c, 1, 66, 0
1, 13021, Note_on_c, 1, 69, 46
1, 13078, Note_on_c, 1, 69, 0
1, 13079, Note_on_c, 0, 82, 76
1, 13079, Note_on_c, 1, 67, 62
1, 13081, Note_on_c, 0, 86, 0
1, 13138, Note_on_c, 0, 82, 0
1, 13138, Note_on_c, 0, 79, 68
1, 13138, Note_on_c, 1, 67, 0
1, 13139, Note_on_c, 1, 70, 49
1, 13197, Note_on_c, 1, 70, 0
1, 13199, Note_on_c, 0, 78, 72
1, 13199, Note_on_c, 1, 69, 66
1, 13200, Note_on_c, 0, 79, 0
1, 13257, Note_on_c, 1, 69, 0
1, 13259, Note_on_c, 1, 72, 42
1, 13317, Note_on_c, 1, 72, 0
1, 13318, Note_on_c, 1, 70, 62
1, 13319, Note_on_c, 0, 79, 72
1, 13320, Note_on_c, 0, 78, 0
1, 13376, Note_on_c, 1, 70, 0
1, 13378, Note_on_c, 1, 74, 58
1, 13380, Note_on_c, 0, 86, 80
1, 13381, Note_on_c, 0, 79, 0
1, 13440, Note_on_c, 1, 74, 0
1, 13441, Note_on_c, 0, 83, 68
1, 13441, Note_on_c, 1, 64, 50
1, 13442, Note_on_c, 0, 86, 0
1, 13470, Note_on_c, 0, 84, 76
1, 13471, Note_on_c, 0, 83, 0
1, 13498, Note_on_c, 1, 64, 0
1, 13499, Note_on_c, 0, 86, 76
1, 13499, Note_on_c, 1, 67, 46
1, 13500, Note_on_c, 0, 84, 0
1, 13529, Note_on_c, 0, 86, 0
1, 13529, Note_on_c, 0, 84, 62
1, 13558, Note_on_c, 1, 67, 0
1, 13559, Note_on_c, 0, 82, 57
1, 13559, Note_on_c, 1, 65, 54
1, 13560, Note_on_c, 0, 84, 0
1, 13589, Note_on_c, 0, 82, 0
1, 13589, Note_on_c, 0, 81, 80
1, 13619, Note_on_c, 0, 81, 0
1, 13619, Note_on_c, 0, 79, 51
1, 13619, Note_on_c, 1, 69, 54
1, 13621, Note_on_c, 1, 65, 0
1, 13649, Note_on_c, 0, 77, 59
1, 13651, Note_on_c, 0, 79, 0
1, 13679, Note_on_c, 1, 69, 0
1, 13679, Note_on_c, 1, 67, 58
1, 13681, Note_on_c, 0, 76, 59
1, 13682, Note_on_c, 0, 77, 0
1, 13739, Note_on_c, 1, 70, 62
1, 13740, Note_on_c, 1, 67, 0
1, 13796, Note_on_c, 0, 76, 0
1, 13797, Note_on_c, 1, 70, 0
1, 13798, Note_on_c, 0, 77, 64
1, 13799, Note_on_c, 1, 69, 58
1, 13857, Note_on_c, 1, 69, 0
1, 13859, Note_on_c, 0, 84, 80
1, 13859, Note_on_c, 1, 72, 62
1, 13860, Note_on_c, 0, 77, 0
1, 13886, Note_on_c, 1, 72, 0
1, 13919, Note_on_c, 0, 89, 93
1, 13920, Note_on_c, 1, 57, 62
1, 13921, Note_on_c, 1, 65, 52
1, 13922, Note_on_c, 0, 84, 0
1, 13951, Note_on_c, 0, 88, 76
1, 13954, Note_on_c, 0, 89, 0
1, 13981, Note_on_c, 0, 86, 76
1, 13984, Note_on_c, 0, 88, 0
1, 14011, Note_on_c, 0, 84, 68
1, 14013, Note_on_c, 0, 86, 0
1, 14041, Note_on_c, 0, 84, 0
1, 14041, Note_on_c, 0, 82, 55
1, 14042, Note_on_c, 1, 65, 0
1, 14042, Note_on_c, 1, 57, 0
1, 14071, Note_on_c, 0, 81, 52
1, 14073, Note_on_c, 0, 82, 0
1, 14100, Note_on_c, 0, 81, 0
1, 14100, Note_on_c, 0, 79, 53
1, 14131, Note_on_c, 0, 77, 85
1, 14134, Note_on_c, 0, 79, 0
1, 14159, Note_on_c, 0, 77, 0
1, 14161, Note_on_c, 0, 86, 80
1, 14161, Note_on_c, 1, 58, 62
1, 14161, Note_on_c, 1, 65, 62
1, 14161, Note_on_c, 1, 67, 70
1, 14192, Note_on_c, 0, 84, 68
1, 14214, Note_on_c, 0, 86, 0
1, 14221, Note_on_c, 0, 82, 59
1, 14224, Note_on_c, 0, 84, 0
1, 14251, Note_on_c, 0, 81, 64
1, 14254, Note_on_c, 0, 82, 0
1, 14280, Note_on_c, 1, 65, 0
1, 14281, Note_on_c, 0, 81, 0
1, 14281, Note_on_c, 0, 79, 64
1, 14283, Note_on_c, 1, 67, 0
1, 14283, Note_on_c, 1, 58, 0
1, 14309, Note_on_c, 0, 79, 0
1, 14310, Note_on_c, 0, 77, 59
1, 14341, Note_on_c, 0, 76, 51
1, 14342, Note_on_c, 0, 77, 0
1, 14369, Note_on_c, 0, 74, 85
1, 14371, Note_on_c, 0, 76, 0
1, 14399, Note_on_c, 0, 74, 0
1, 14399, Note_on_c, 0, 72, 60
1, 14401, Note_on_c, 1, 60, 75
1, 14401, Note_on_c, 1, 69, 66
1, 14431, Note_on_c, 0, 77, 64
1, 14432, Note_on_c, 0, 72, 0
1, 14459, Note_on_c, 0, 77, 0
1, 14459, Note_on_c, 0, 81, 80
1, 14463, Note_on_c, 1, 69, 0
1, 14488, Note_on_c, 0, 81, 0
1, 14489, Note_on_c, 0, 84, 85
1, 14517, Note_on_c, 0, 84, 0
1, 14519, Note_on_c, 0, 84, 80
1, 14519, Note_on_c, 1, 70, 66
1, 14549, Note_on_c, 0, 82, 60
1, 14554, Note_on_c, 0, 84, 0
1, 14578, Note_on_c, 1, 70, 0
1, 14578, Note_on_c, 1, 60, 0
1, 14579, Note_on_c, 0, 82, 0
1, 14579, Note_on_c, 0, 81, 76
1, 14608, Note_on_c, 0, 81, 0
1, 14609, Note_on_c, 0, 79, 89
1, 14636, Note_on_c, 0, 79, 0
1, 14639, Note_on_c, 0, 79, 89
1, 14639, Note_on_c, 1, 70, 54
1, 14639, Note_on_c, 1, 65, 62
1, 14726, Note_on_c, 1, 70, 0
1, 14757, Note_on_c, 1, 65, 0
1, 14759, Note_on_c, 1, 65, 30
1, 14759, Note_on_c, 1, 69, 52
1, 14760, Note_on_c, 0, 79, 0
1, 14760, Note_on_c, 0, 77, 72
1, 14816, Note_on_c, 0, 77, 0
1, 14818, Note_on_c, 1, 69, 0
1, 14819, Note_on_c, 1, 65, 0
1, 14822, Note_on_c, 0, 65, 76
1, 14877, Note_on_c, 0, 65, 0
1, 14881, Note_on_c, 0, 74, 68
1, 14882, Note_on_c, 0, 65, 76
1, 14882, Note_on_c, 1, 46, 47
1, 14907, Note_on_c, 0, 65, 0
1, 14908, Note_on_c, 0, 74, 0
1, 14937, Note_on_c, 1, 46, 0
1, 14941, Note_on_c, 1, 58, 36
1, 14942, Note_on_c, 0, 74, 80
1, 14942, Note_on_c, 0, 65, 72
1, 14970, Note_on_c, 1, 58, 0
1, 15002, Note_on_c, 1, 58, 47
1, 15030, Note_on_c, 1, 58, 0
1, 15033, Note_on_c, 0, 65, 0
1, 15056, Note_on_c, 0, 74, 0
1, 15062, Note_on_c, 0, 62, 60
1, 15062, Note_on_c, 1, 58, 49
1, 15063, Note_on_c, 0, 70, 64
1, 15090, Note_on_c, 1, 58, 0
1, 15094, Note_on_c, 0, 62, 0
1, 15113, Note_on_c, 0, 70, 0
1, 15122, Note_on_c, 0, 67, 93
1, 15122, Note_on_c, 0, 75, 89
1, 15122, Note_on_c, 1, 46, 49
1, 15147, Note_on_c, 0, 75, 0
1, 15147, Note_on_c, 0, 67, 0
1, 15178, Note_on_c, 1, 46, 0
1, 15181, Note_on_c, 0, 75, 76
1, 15181, Note_on_c, 0, 67, 72
1, 15181, Note_on_c, 1, 58, 42
1, 15209, Note_on_c, 1, 58, 0
1, 15243, Note_on_c, 1, 58, 49
1, 15266, Note_on_c, 0, 67, 0
1, 15268, Note_on_c, 0, 75, 0
1, 15268, Note_on_c, 1, 58, 0
1, 15301, Note_on_c, 0, 72, 76
1, 15301, Note_on_c, 0, 63, 47
1, 15302, Note_on_c, 1, 58, 49
1, 15327, Note_on_c, 1, 58, 0
1, 15354, Note_on_c, 0, 63, 0
1, 15360, Note_on_c, 0, 72, 0
1, 15361, Note_on_c, 0, 67, 72
1, 15361, Note_on_c, 1, 63, 54
1, 15361, Note_on_c, 1, 58, 47
1, 15422, Note_on_c, 0, 70, 68
1, 15423, Note_on_c, 0, 67, 0
1, 15480, Note_on_c, 0, 70, 0
1, 15481, Note_on_c, 0, 69, 80
1, 15482, Note_on_c, 1, 60, 52
1, 15483, Note_on_c, 1, 63, 0
1, 15542, Note_on_c, 0, 72, 72
1, 15543, Note_on_c, 0, 69, 0
1, 15566, Note_on_c, 1, 58, 0
1, 15568, Note_on_c, 1, 60, 0
1, 15602, Note_on_c, 0, 70, 72
1, 15602, Note_on_c, 1, 58, 52
1, 15602, Note_on_c, 1, 62, 62
1, 15604, Note_on_c, 0, 72, 0
1, 15632, Note_on_c, 0, 70, 0
1, 15632, Note_on_c, 0, 69, 68
1, 15662, Note_on_c, 0, 70, 56
1, 15664, Note_on_c, 0, 69, 0
1, 15687, Note_on_c, 1, 62, 0
1, 15690, Note_on_c, 0, 70, 0
1, 15692, Note_on_c, 0, 72, 57
1, 15692, Note_on_c, 1, 58, 0
1, 15721, Note_on_c, 0, 70, 68
1, 15722, Note_on_c, 0, 72, 0
1, 15748, Note_on_c, 0, 70, 0
1, 15782, Note_on_c, 0, 70, 72
1, 15807, Note_on_c, 0, 70, 0
1, 15841, Note_on_c, 1, 46, 49
1, 15842, Note_on_c, 0, 77, 80
1, 15842, Note_on_c, 0, 74, 85
1, 15867, Note_on_c, 0, 74, 0
1, 15867, Note_on_c, 0, 77, 0
1, 15898, Note_on_c, 1, 46, 0
1, 15901, Note_on_c, 0, 77, 89
1, 15901, Note_on_c, 0, 74, 89
1, 15901, Note_on_c, 1, 58, 36
1, 15929, Note_on_c, 1, 58, 0
1, 15961, Note_on_c, 1, 58, 50
1, 15988, Note_on_c, 1, 58, 0
1, 16014, Note_on_c, 0, 74, 0
1, 16015, Note_on_c, 0, 77, 0
1, 16019, Note_on_c, 1, 58, 49
1, 16021, Note_on_c, 0, 74, 80
1, 16021, Note_on_c, 0, 70, 62
1, 16048, Note_on_c, 1, 58, 0
1, 16077, Note_on_c, 0, 70, 0
1, 16078, Note_on_c, 0, 74, 0
1, 16081, Note_on_c, 0, 79, 85
1, 16081, Note_on_c, 0, 75, 80
1, 16081, Note_on_c, 1, 46, 49
1, 16106, Note_on_c, 0, 75, 0
1, 16107, Note_on_c, 0, 79, 0
1, 16136, Note_on_c, 1, 46, 0
1, 16139, Note_on_c, 1, 58, 47
1, 16141, Note_on_c, 0, 79, 85
1, 16141, Note_on_c, 0, 75, 72
1, 16168, Note_on_c, 1, 58, 0
1, 16201, Note_on_c, 1, 58, 58
1, 16227, Note_on_c, 1, 58, 0
1, 16232, Note_on_c, 0, 75, 0
1, 16233, Note_on_c, 0, 79, 0
1, 16259, Note_on_c, 1, 58, 47
1, 16261, Note_on_c, 0, 75, 72
1, 16261, Note_on_c, 0, 72, 59
1, 16286, Note_on_c, 1, 58, 0
1, 16289, Note_on_c, 0, 72, 0
1, 16293, Note_on_c, 0, 75, 0
1, 16321, Note_on_c, 0, 70, 72
1, 16321, Note_on_c, 1, 58, 52
1, 16321, Note_on_c, 1, 67, 66
1, 16382, Note_on_c, 0, 74, 80
1, 16384, Note_on_c, 0, 70, 0
1, 16441, Note_on_c, 0, 74, 0
1, 16441, Note_on_c, 0, 72, 80
1, 16441, Note_on_c, 1, 69, 66
1, 16444, Note_on_c, 1, 67, 0
1, 16501, Note_on_c, 0, 75, 72
1, 16501, Note_on_c, 1, 69, 0
1, 16503, Note_on_c, 0, 72, 0
1, 16505, Note_on_c, 1, 58, 0
1, 16560, Note_on_c, 0, 75, 0
1, 16560, Note_on_c, 1, 58, 50
1, 16561, Note_on_c, 0, 74, 76
1, 16561, Note_on_c, 1, 70, 54
1, 16592, Note_on_c, 0, 72, 62
1, 16593, Note_on_c, 0, 74, 0
1, 16622, Note_on_c, 0, 74, 72
1, 16624, Note_on_c, 0, 72, 0
1, 16651, Note_on_c, 0, 74, 0
1, 16651, Note_on_c, 0, 75, 64
1, 16681, Note_on_c, 0, 75, 0
1, 16681, Note_on_c, 0, 74, 89
1, 16685, Note_on_c, 1, 70, 0
1, 16686, Note_on_c, 1, 58, 0
1, 16707, Note_on_c, 0, 74, 0
1, 16741, Note_on_c, 0, 74, 72
1, 16772, Note_on_c, 0, 74, 0
1, 16801, Note_on_c, 0, 86, 85
1, 16801, Note_on_c, 1, 66, 52
1, 16829, Note_on_c, 0, 86, 0
1, 16861, Note_on_c, 1, 69, 54
1, 16862, Note_on_c, 0, 86, 98
1, 16862, Note_on_c, 1, 66, 0
1, 16921, Note_on_c, 1, 67, 70
1, 16922, Note_on_c, 0, 82, 85
1, 16922, Note_on_c, 1, 69, 0
1, 16925, Note_on_c, 0, 86, 0
1, 16981, Note_on_c, 0, 82, 0
1, 16981, Note_on_c, 0, 79, 56
1, 16981, Note_on_c, 1, 70, 52
1, 16983, Note_on_c, 1, 67, 0
1, 17041, Note_on_c, 0, 79, 0
1, 17041, Note_on_c, 0, 78, 72
1, 17041, Note_on_c, 1, 70, 0
1, 17042, Note_on_c, 1, 69, 79
1, 17100, Note_on_c, 1, 69, 0
1, 17101, Note_on_c, 1, 72, 50
1, 17160, Note_on_c, 1, 72, 0
1, 17161, Note_on_c, 1, 70, 62
1, 17162, Note_on_c, 0, 79, 72
1, 17165, Note_on_c, 0, 78, 0
1, 17218, Note_on_c, 1, 70, 0
1, 17219, Note_on_c, 1, 74, 62
1, 17221, Note_on_c, 0, 86, 89
1, 17222, Note_on_c, 0, 79, 0
1, 17281, Note_on_c, 1, 64, 62
1, 17282, Note_on_c, 0, 83, 76
1, 17282, Note_on_c, 1, 74, 0
1, 17283, Note_on_c, 0, 86, 0
1, 17312, Note_on_c, 0, 84, 72
1, 17315, Note_on_c, 0, 83, 0
1, 17340, Note_on_c, 0, 84, 0
1, 17341, Note_on_c, 0, 86, 64
1, 17341, Note_on_c, 1, 67, 46
1, 17343, Note_on_c, 1, 64, 0
1, 17371, Note_on_c, 0, 84, 85
1, 17373, Note_on_c, 0, 86, 0
1, 17401, Note_on_c, 0, 82, 72
1, 17401, Note_on_c, 1, 67, 0
1, 17401, Note_on_c, 1, 65, 66
1, 17403, Note_on_c, 0, 84, 0
1, 17431, Note_on_c, 0, 81, 76
1, 17433, Note_on_c, 0, 82, 0
1, 17460, Note_on_c, 1, 65, 0
1, 17461, Note_on_c, 0, 81, 0
1, 17461, Note_on_c, 0, 79, 57
1, 17461, Note_on_c, 1, 69, 52
1, 17489, Note_on_c, 0, 77, 68
1, 17491, Note_on_c, 0, 79, 0
1, 17519, Note_on_c, 0, 77, 0
1, 17520, Note_on_c, 0, 76, 64
1, 17520, Note_on_c, 1, 69, 0
1, 17521, Note_on_c, 1, 67, 66
1, 17580, Note_on_c, 1, 70, 46
1, 17582, Note_on_c, 1, 67, 0
1, 17638, Note_on_c, 1, 70, 0
1, 17640, Note_on_c, 1, 69, 66
1, 17641, Note_on_c, 0, 77, 62
1, 17642, Note_on_c, 0, 76, 0
1, 17698, Note_on_c, 1, 69, 0
1, 17699, Note_on_c, 0, 77, 0
1, 17700, Note_on_c, 1, 72, 54
1, 17701, Note_on_c, 0, 84, 75
1, 17735, Note_on_c, 0, 84, 0
1, 17759, Note_on_c, 1, 72, 0
1, 17760, Note_on_c, 1, 65, 62
1, 17761, Note_on_c, 0, 89, 85
1, 17761, Note_on_c, 1, 57, 52
1, 17791, Note_on_c, 0, 88, 64
1, 17793, Note_on_c, 0, 89, 0
1, 17821, Note_on_c, 0, 86, 76
1, 17822, Note_on_c, 0, 88, 0
1, 17849, Note_on_c, 0, 86, 0
1, 17850, Note_on_c, 0, 84, 59
1, 17880, Note_on_c, 0, 82, 56
1, 17882, Note_on_c, 0, 84, 0
1, 17885, Note_on_c, 1, 57, 0
1, 17885, Note_on_c, 1, 65, 0
1, 17909, Note_on_c, 0, 81, 64
1, 17912, Note_on_c, 0, 82, 0
1, 17939, Note_on_c, 0, 81, 0
1, 17940, Note_on_c, 0, 79, 60
1, 17969, Note_on_c, 0, 77, 76
1, 17972, Note_on_c, 0, 79, 0
1, 17998, Note_on_c, 0, 77, 0
1, 17999, Note_on_c, 0, 86, 76
1, 17999, Note_on_c, 1, 58, 52
1, 17999, Note_on_c, 1, 67, 62
1, 18000, Note_on_c, 1, 65, 70
1, 18031, Note_on_c, 0, 84, 68
1, 18034, Note_on_c, 0, 86, 0
1, 18059, Note_on_c, 0, 82, 47
1, 18063, Note_on_c, 0, 84, 0
1, 18089, Note_on_c, 0, 81, 64
1, 18093, Note_on_c, 0, 82, 0
1, 18119, Note_on_c, 1, 65, 0
1, 18121, Note_on_c, 0, 79, 64
1, 18121, Note_on_c, 1, 67, 0
1, 18122, Note_on_c, 0, 81, 0
1, 18123, Note_on_c, 1, 58, 0
1, 18149, Note_on_c, 0, 79, 0
1, 18149, Note_on_c, 0, 77, 51
1, 18179, Note_on_c, 0, 77, 0
1, 18179, Note_on_c, 0, 76, 57
1, 18209, Note_on_c, 0, 74, 62
1, 18212, Note_on_c, 0, 76, 0
1, 18239, Note_on_c, 0, 74, 0
1, 18239, Note_on_c, 0, 72, 55
1, 18239, Note_on_c, 1, 69, 62
1, 18239, Note_on_c, 1, 60, 52
1, 18240, Note_on_c, 1, 69, 70
1, 18241, Note_on_c, 1, 60, 62
1, 18269, Note_on_c, 0, 77, 53
1, 18272, Note_on_c, 0, 72, 0
1, 18299, Note_on_c, 0, 81, 68
1, 18300, Note_on_c, 0, 77, 0
1, 18329, Note_on_c, 0, 81, 0
1, 18329, Note_on_c, 0, 84, 76
1, 18357, Note_on_c, 0, 84, 0
1, 18359, Note_on_c, 0, 84, 80
1, 18359, Note_on_c, 1, 70, 58
1, 18362, Note_on_c, 1, 69, 0
1, 18362, Note_on_c, 1, 69, 0
1, 18390, Note_on_c, 0, 82, 72
1, 18394, Note_on_c, 0, 84, 0
1, 18420, Note_on_c, 0, 81, 76
1, 18420, Note_on_c, 1, 60, 0
1, 18421, Note_on_c, 1, 70, 0
1, 18422, Note_on_c, 0, 82, 0
1, 18447, Note_on_c, 1, 60, 0
1, 18448, Note_on_c, 0, 81, 0
1, 18451, Note_on_c, 0, 79, 85
1, 18477, Note_on_c, 0, 79, 0
1, 18479, Note_on_c, 1, 70, 54
1, 18479, Note_on_c, 1, 65, 52
1, 18480, Note_on_c, 0, 79, 93
1, 18599, Note_on_c, 1, 69, 50
1, 18602, Note_on_c, 0, 77, 72
1, 18602, Note_on_c, 1, 70, 0
1, 18604, Note_on_c, 0, 79, 0
1, 18660, Note_on_c, 1, 69, 0
1, 18661, Note_on_c, 0, 77, 0
1, 18662, Note_on_c, 1, 65, 0
1, 18663, Note_on_c, 0, 65, 76
1, 18720, Note_on_c, 0, 77, 89
1, 18720, Note_on_c, 0, 74, 76
1, 18720, Note_on_c, 1, 38, 66
1, 18722, Note_on_c, 0, 65, 0
1, 18745, Note_on_c, 0, 74, 0
1, 18745, Note_on_c, 0, 77, 0
1, 18776, Note_on_c, 1, 38, 0
1, 18779, Note_on_c, 1, 50, 50
1, 18781, Note_on_c, 0, 77, 93
1, 18781, Note_on_c, 0, 74, 85
1, 18809, Note_on_c, 1, 50, 0
1, 18841, Note_on_c, 1, 50, 66
1, 18844, Note_on_c, 0, 77, 0
1, 18845, Note_on_c, 0, 74, 0
1, 18869, Note_on_c, 1, 50, 0
1, 18899, Note_on_c, 1, 50, 66
1, 18901, Note_on_c, 0, 80, 76
1, 18901, Note_on_c, 0, 77, 76
1, 18927, Note_on_c, 1, 50, 0
1, 18954, Note_on_c, 0, 77, 0
1, 18955, Note_on_c, 0, 80, 0
1, 18961, Note_on_c, 1, 43, 62
1, 18962, Note_on_c, 0, 71, 72
1, 18962, Note_on_c, 0, 74, 93
1, 18986, Note_on_c, 0, 71, 0
1, 18987, Note_on_c, 0, 74, 0
1, 19015, Note_on_c, 1, 43, 0
1, 19020, Note_on_c, 1, 55, 52
1, 19022, Note_on_c, 0, 71, 76
1, 19022, Note_on_c, 0, 74, 89
1, 19048, Note_on_c, 1, 55, 0
1, 19081, Note_on_c, 1, 55, 52
1, 19107, Note_on_c, 0, 71, 0
1, 19108, Note_on_c, 1, 55, 0
1, 19109, Note_on_c, 0, 74, 0
1, 19141, Note_on_c, 0, 74, 76
1, 19141, Note_on_c, 1, 55, 52
1, 19142, Note_on_c, 0, 77, 80
1, 19167, Note_on_c, 1, 55, 0
1, 19197, Note_on_c, 0, 77, 0
1, 19198, Note_on_c, 0, 74, 0
1, 19201, Note_on_c, 0, 75, 72
1, 19201, Note_on_c, 0, 72, 76
1, 19201, Note_on_c, 1, 36, 43
1, 19226, Note_on_c, 0, 72, 0
1, 19227, Note_on_c, 0, 75, 0
1, 19258, Note_on_c, 1, 36, 0
1, 19260, Note_on_c, 1, 48, 50
1, 19261, Note_on_c, 0, 75, 76
1, 19261, Note_on_c, 0, 72, 72
1, 19288, Note_on_c, 1, 48, 0
1, 19321, Note_on_c, 1, 48, 54
1, 19344, Note_on_c, 0, 72, 0
1, 19344, Note_on_c, 0, 75, 0
1, 19349, Note_on_c, 1, 48, 0
1, 19380, Note_on_c, 0, 75, 68
1, 19381, Note_on_c, 0, 79, 85
1, 19381, Note_on_c, 1, 48, 62
1, 19411, Note_on_c, 1, 48, 0
1, 19415, Note_on_c, 0, 79, 0
1, 19434, Note_on_c, 0, 75, 0
1, 19439, Note_on_c, 1, 41, 58
1, 19441, Note_on_c, 0, 69, 80
1, 19441, Note_on_c, 0, 72, 85
1, 19466, Note_on_c, 0, 72, 0
1, 19466, Note_on_c, 0, 69, 0
1, 19495, Note_on_c, 1, 41, 0
1, 19499, Note_on_c, 1, 53, 52
1, 19501, Note_on_c, 0, 69, 89
1, 19501, Note_on_c, 0, 72, 85
1, 19529, Note_on_c, 1, 53, 0
1, 19559, Note_on_c, 1, 53, 62
1, 19586, Note_on_c, 0, 69, 0
1, 19588, Note_on_c, 0, 72, 0
1, 19588, Note_on_c, 1, 53, 0
1, 19618, Note_on_c, 1, 53, 54
1, 19620, Note_on_c, 0, 72, 76
1, 19621, Note_on_c, 0, 75, 76
1, 19647, Note_on_c, 0, 72, 0
1, 19647, Note_on_c, 1, 53, 0
1, 19649, Note_on_c, 0, 75, 0
1, 19679, Note_on_c, 1, 58, 58
1, 19683, Note_on_c, 0, 75, 85
1, 19713, Note_on_c, 0, 73, 68
1, 19734, Note_on_c, 0, 75, 0
1, 19739, Note_on_c, 1, 61, 58
1, 19740, Note_on_c, 1, 58, 0
1, 19741, Note_on_c, 0, 73, 0
1, 19742, Note_on_c, 0, 72, 80
1, 19772, Note_on_c, 0, 72, 0
1, 19772, Note_on_c, 0, 70, 62
1, 19800, Note_on_c, 0, 70, 0
1, 19801, Note_on_c, 1, 58, 62
1, 19802, Note_on_c, 0, 69, 64
1, 19804, Note_on_c, 1, 61, 0
1, 19831, Note_on_c, 0, 70, 72
1, 19832, Note_on_c, 0, 69, 0
1, 19861, Note_on_c, 0, 70, 0
1, 19861, Note_on_c, 1, 56, 79
1, 19862, Note_on_c, 0, 72, 62
1, 19862, Note_on_c, 1, 58, 0
1, 19891, Note_on_c, 0, 72, 0
1, 19891, Note_on_c, 0, 70, 64
1, 19918, Note_on_c, 1, 56, 0
1, 19919, Note_on_c, 1, 54, 62
1, 19921, Note_on_c, 0, 70, 0
1, 19921, Note_on_c, 0, 75, 80
1, 19951, Note_on_c, 0, 73, 62
1, 19954, Note_on_c, 0, 75, 0
1, 19979, Note_on_c, 0, 73, 0
1, 19980, Note_on_c, 1, 58, 66
1, 19981, Note_on_c, 0, 72, 76
1, 19982, Note_on_c, 1, 54, 0
1, 20011, Note_on_c, 0, 72, 0
1, 20011, Note_on_c, 0, 70, 62
1, 20038, Note_on_c, 1, 58, 0
1, 20040, Note_on_c, 1, 54, 62
1, 20041, Note_on_c, 0, 70, 0
1, 20041, Note_on_c, 0, 69, 76
1, 20071, Note_on_c, 0, 70, 72
1, 20073, Note_on_c, 0, 69, 0
1, 20098, Note_on_c, 1, 54, 0
1, 20099, Note_on_c, 0, 70, 0
1, 20099, Note_on_c, 0, 72, 72
1, 20099, Note_on_c, 1, 53, 66
1, 20129, Note_on_c, 0, 70, 76
1, 20132, Note_on_c, 0, 72, 0
1, 20156, Note_on_c, 0, 70, 0
1, 20158, Note_on_c, 1, 53, 0
1, 20160, Note_on_c, 1, 52, 52
1, 20161, Note_on_c, 0, 82, 93
1, 20187, Note_on_c, 0, 82, 0
1, 20216, Note_on_c, 1, 52, 0
1, 20221, Note_on_c, 0, 82, 93
1, 20281, Note_on_c, 1, 60, 75
1, 20281, Note_on_c, 1, 67, 75
1, 20307, Note_on_c, 0, 82, 0
1, 20342, Note_on_c, 0, 70, 64
1, 20342, Note_on_c, 0, 76, 72
1, 20374, Note_on_c, 0, 76, 0
1, 20393, Note_on_c, 0, 70, 0
1, 20402, Note_on_c, 0, 70, 62
1, 20402, Note_on_c, 1, 65, 62
1, 20403, Note_on_c, 0, 79, 85
1, 20403, Note_on_c, 1, 67, 0
1, 20403, Note_on_c, 1, 60, 0
1, 20458, Note_on_c, 0, 79, 0
1, 20461, Note_on_c, 0, 70, 0
1, 20522, Note_on_c, 0, 69, 62
1, 20522, Note_on_c, 0, 77, 60
1, 20545, Note_on_c, 1, 65, 0
1, 20548, Note_on_c, 0, 77, 0
1, 20550, Note_on_c, 0, 69, 0
1, 20582, Note_on_c, 0, 65, 62
1, 20640, Note_on_c, 0, 65, 0
1, 20642, Note_on_c, 1, 46, 54
1, 20643, Note_on_c, 0, 65, 80
1, 20643, Note_on_c, 0, 74, 76
1, 20667, Note_on_c, 0, 74, 0
1, 20667, Note_on_c, 0, 65, 0
1, 20697, Note_on_c, 1, 46, 0
1, 20702, Note_on_c, 0, 65, 62
1, 20702, Note_on_c, 0, 74, 72
1, 20702, Note_on_c, 1, 58, 41
1, 20732, Note_on_c, 1, 58, 0
1, 20762, Note_on_c, 1, 58, 52
1, 20788, Note_on_c, 0, 74, 0
1, 20790, Note_on_c, 0, 65, 0
1, 20790, Note_on_c, 1, 58, 0
1, 20822, Note_on_c, 1, 58, 58
1, 20823, Note_on_c, 0, 62, 53
1, 20823, Note_on_c, 0, 70, 57
1, 20850, Note_on_c, 1, 58, 0
1, 20873, Note_on_c, 0, 62, 0
1, 20876, Note_on_c, 0, 70, 0
1, 20882, Note_on_c, 0, 75, 80
1, 20882, Note_on_c, 0, 67, 56
1, 20882, Note_on_c, 1, 46, 62
1, 20907, Note_on_c, 0, 67, 0
1, 20907, Note_on_c, 0, 75, 0
1, 20937, Note_on_c, 1, 46, 0
1, 20941, Note_on_c, 1, 58, 54
1, 20942, Note_on_c, 0, 67, 68
1, 20942, Note_on_c, 0, 75, 80
1, 20968, Note_on_c, 1, 58, 0
1, 21001, Note_on_c, 1, 58, 58
1, 21025, Note_on_c, 0, 67, 0
1, 21026, Note_on_c, 0, 75, 0
1, 21027, Note_on_c, 1, 58, 0
1, 21061, Note_on_c, 0, 63, 60
1, 21061, Note_on_c, 0, 72, 76
1, 21061, Note_on_c, 1, 58, 54
1, 21087, Note_on_c, 1, 58, 0
1, 21118, Note_on_c, 0, 72, 0
1, 21118, Note_on_c, 0, 63, 0
1, 21121, Note_on_c, 0, 67, 80
1, 21121, Note_on_c, 1, 63, 62
1, 21121, Note_on_c, 1, 58, 52
1, 21178, Note_on_c, 0, 67, 0
1, 21181, Note_on_c, 0, 70, 76
1, 21240, Note_on_c, 1, 63, 0
1, 21240, Note_on_c, 1, 60, 52
1, 21241, Note_on_c, 0, 69, 80
1, 21242, Note_on_c, 0, 70, 0
1, 21301, Note_on_c, 0, 72, 80
1, 21302, Note_on_c, 0, 69, 0
1, 21328, Note_on_c, 1, 58, 0
1, 21331, Note_on_c, 1, 60, 0
1, 21360, Note_on_c, 1, 58, 54
1, 21361, Note_on_c, 0, 70, 64
1, 21361, Note_on_c, 1, 62, 66
1, 21365, Note_on_c, 0, 72, 0
1, 21391, Note_on_c, 0, 69, 68
1, 21393, Note_on_c, 0, 70, 0
1, 21421, Note_on_c, 0, 70, 59
1, 21424, Note_on_c, 0, 69, 0
1, 21449, Note_on_c, 0, 70, 0
1, 21451, Note_on_c, 0, 72, 80
1, 21481, Note_on_c, 0, 72, 0
1, 21481, Note_on_c, 0, 70, 72
1, 21483, Note_on_c, 1, 62, 0
1, 21485, Note_on_c, 1, 58, 0
1, 21507, Note_on_c, 0, 70, 0
1, 21542, Note_on_c, 0, 70, 93
1, 21567, Note_on_c, 0, 70, 0
1, 21601, Note_on_c, 1, 46, 62
1, 21602, Note_on_c, 0, 74, 89
1, 21602, Note_on_c, 0, 77, 89
1, 21626, Note_on_c, 0, 74, 0
1, 21627, Note_on_c, 0, 77, 0
1, 21661, Note_on_c, 1, 58, 62
1, 21662, Note_on_c, 0, 77, 72
1, 21663, Note_on_c, 0, 74, 80
1, 21663, Note_on_c, 1, 46, 0
1, 21713, Note_on_c, 1, 58, 0
1, 21722, Note_on_c, 1, 58, 54
1, 21748, Note_on_c, 0, 77, 0
1, 21749, Note_on_c, 0, 74, 0
1, 21751, Note_on_c, 1, 58, 0
1, 21782, Note_on_c, 0, 70, 72
1, 21782, Note_on_c, 0, 74, 85
1, 21782, Note_on_c, 1, 58, 62
1, 21812, Note_on_c, 1, 58, 0
1, 21837, Note_on_c, 0, 74, 0
1, 21837, Note_on_c, 0, 70, 0
1, 21842, Note_on_c, 0, 75, 80
1, 21842, Note_on_c, 0, 79, 76
1, 21842, Note_on_c, 1, 46, 79
1, 21866, Note_on_c, 0, 79, 0
1, 21867, Note_on_c, 0, 75, 0
1, 21897, Note_on_c, 1, 46, 0
1, 21902, Note_on_c, 0, 75, 93
1, 21902, Note_on_c, 0, 79, 89
1, 21902, Note_on_c, 1, 58, 52
1, 21930, Note_on_c, 1, 58, 0
1, 21962, Note_on_c, 1, 58, 66
1, 21987, Note_on_c, 0, 75, 0
1, 21988, Note_on_c, 1, 58, 0
1, 21990, Note_on_c, 0, 79, 0
1, 22021, Note_on_c, 0, 72, 72
1, 22021, Note_on_c, 0, 75, 72
1, 22022, Note_on_c, 1, 58, 79
1, 22047, Note_on_c, 1, 58, 0
1, 22055, Note_on_c, 0, 75, 0
1, 22074, Note_on_c, 0, 72, 0
1, 22082, Note_on_c, 0, 70, 72
1, 22082, Note_on_c, 1, 67, 62
1, 22082, Note_on_c, 1, 58, 54
1, 22140, Note_on_c, 0, 70, 0
1, 22141, Note_on_c, 0, 74, 68
1, 22199, Note_on_c, 0, 74, 0
1, 22201, Note_on_c, 0, 72, 76
1, 22201, Note_on_c, 1, 67, 0
1, 22201, Note_on_c, 1, 69, 75
1, 22260, Note_on_c, 0, 75, 76
1, 22262, Note_on_c, 0, 72, 0
1, 22264, Note_on_c, 1, 58, 0
1, 22265, Note_on_c, 1, 69, 0
1, 22320, Note_on_c, 0, 74, 80
1, 22320, Note_on_c, 1, 58, 52
1, 22321, Note_on_c, 1, 70, 58
1, 22322, Note_on_c, 0, 75, 0
1, 22351, Note_on_c, 0, 72, 60
1, 22352, Note_on_c, 0, 74, 0
1, 22380, Note_on_c, 0, 74, 76
1, 22381, Note_on_c, 0, 72, 0
1, 22409, Note_on_c, 0, 75, 56
1, 22410, Note_on_c, 0, 74, 0
1, 22438, Note_on_c, 1, 70, 0
1, 22439, Note_on_c, 0, 74, 72
1, 22439, Note_on_c, 1, 58, 0
1, 22442, Note_on_c, 0, 75, 0
1, 22468, Note_on_c, 0, 74, 0
1, 22499, Note_on_c, 0, 70, 72
1, 22527, Note_on_c, 0, 70, 0
1, 22559, Note_on_c, 0, 79, 93
1, 22559, Note_on_c, 1, 59, 70
1, 22587, Note_on_c, 0, 79, 0
1, 22619, Note_on_c, 1, 59, 0
1, 22619, Note_on_c, 1, 62, 62
1, 22621, Note_on_c, 0, 79, 89
1, 22680, Note_on_c, 1, 60, 79
1, 22681, Note_on_c, 0, 75, 68
1, 22682, Note_on_c, 1, 62, 0
1, 22683, Note_on_c, 0, 79, 0
1, 22741, Note_on_c, 0, 75, 0
1, 22741, Note_on_c, 0, 72, 76
1, 22741, Note_on_c, 1, 63, 54
1, 22743, Note_on_c, 1, 60, 0
1, 22800, Note_on_c, 0, 72, 0
1, 22801, Note_on_c, 0, 71, 85
1, 22801, Note_on_c, 1, 63, 0
1, 22801, Note_on_c, 1, 62, 70
1, 22860, Note_on_c, 1, 62, 0
1, 22861, Note_on_c, 1, 65, 66
1, 22920, Note_on_c, 1, 65, 0
1, 22921, Note_on_c, 1, 63, 66
1, 22922, Note_on_c, 0, 71, 0
1, 22922, Note_on_c, 0, 72, 76
1, 22980, Note_on_c, 0, 72, 0
1, 22980, Note_on_c, 1, 63, 0
1, 22981, Note_on_c, 0, 79, 89
1, 22982, Note_on_c, 1, 67, 66
1, 23013, Note_on_c, 0, 79, 0
1, 23040, Note_on_c, 1, 67, 0
1, 23041, Note_on_c, 1, 57, 83
1, 23042, Note_on_c, 0, 76, 80
1, 23072, Note_on_c, 0, 77, 76
1, 23074, Note_on_c, 0, 76, 0
1, 23101, Note_on_c, 0, 77, 0
1, 23102, Note_on_c, 0, 79, 80
1, 23102, Note_on_c, 1, 60, 62
1, 23103, Note_on_c, 1, 57, 0
1, 23131, Note_on_c, 0, 77, 68
1, 23135, Note_on_c, 0, 79, 0
1, 23161, Note_on_c, 0, 75, 64
1, 23161, Note_on_c, 1, 58, 54
1, 23162, Note_on_c, 0, 77, 0
1, 23162, Note_on_c, 1, 60, 0
1, 23189, Note_on_c, 0, 75, 0
1, 23191, Note_on_c, 0, 74, 64
1, 23221, Note_on_c, 0, 74, 0
1, 23221, Note_on_c, 0, 72, 55
1, 23221, Note_on_c, 1, 58, 0
1, 23221, Note_on_c, 1, 62, 75
1, 23250, Note_on_c, 0, 70, 39
1, 23251, Note_on_c, 0, 72, 0
1, 23279, Note_on_c, 1, 62, 0
1, 23281, Note_on_c, 0, 69, 76
1, 23281, Note_on_c, 1, 60, 75
1, 23282, Note_on_c, 0, 70, 0
1, 23338, Note_on_c, 1, 60, 0
1, 23341, Note_on_c, 1, 63, 46
1, 23399, Note_on_c, 0, 69, 0
1, 23401, Note_on_c, 0, 70, 64
1, 23401, Note_on_c, 1, 62, 79
1, 23402, Note_on_c, 1, 63, 0
1, 23456, Note_on_c, 0, 70, 0
1, 23460, Note_on_c, 1, 62, 0
1, 23461, Note_on_c, 1, 65, 79
1, 23462, Note_on_c, 0, 77, 76
1, 23486, Note_on_c, 1, 65, 0
1, 23488, Note_on_c, 0, 77, 0
1, 23521, Note_on_c, 1, 58, 70
1, 23521, Note_on_c, 1, 50, 75
1, 23521, Note_on_c, 1, 53, 79
1, 23522, Note_on_c, 0, 82, 85
1, 23550, Note_on_c, 0, 82, 0
1, 23552, Note_on_c, 0, 81, 76
1, 23581, Note_on_c, 0, 81, 0
1, 23581, Note_on_c, 0, 79, 80
1, 23609, Note_on_c, 0, 79, 0
1, 23611, Note_on_c, 0, 77, 68
1, 23640, Note_on_c, 0, 77, 0
1, 23641, Note_on_c, 0, 75, 57
1, 23643, Note_on_c, 1, 53, 0
1, 23644, Note_on_c, 1, 50, 0
1, 23645, Note_on_c, 1, 58, 0
1, 23668, Note_on_c, 0, 75, 0
1, 23671, Note_on_c, 0, 74, 76
1, 23699, Note_on_c, 0, 74, 0
1, 23700, Note_on_c, 0, 72, 72
1, 23728, Note_on_c, 0, 72, 0
1, 23731, Note_on_c, 0, 70, 72
1, 23759, Note_on_c, 0, 70, 0
1, 23761, Note_on_c, 0, 79, 89
1, 23761, Note_on_c, 1, 51, 79
1, 23761, Note_on_c, 1, 58, 66
1, 23762, Note_on_c, 1, 60, 83
1, 23791, Note_on_c, 0, 77, 80
1, 23794, Note_on_c, 0, 79, 0
1, 23821, Note_on_c, 0, 75, 62
1, 23823, Note_on_c, 0, 77, 0
1, 23851, Note_on_c, 0, 75, 0
1, 23851, Note_on_c, 0, 74, 72
1, 23877, Note_on_c, 1, 60, 0
1, 23877, Note_on_c, 1, 58, 0
1, 23877, Note_on_c, 1, 51, 0
1, 23879, Note_on_c, 0, 74, 0
1, 23880, Note_on_c, 0, 72, 64
1, 23909, Note_on_c, 0, 70, 62
1, 23910, Note_on_c, 0, 72, 0
1, 23939, Note_on_c, 0, 69, 64
1, 23942, Note_on_c, 0, 70, 0
1, 23969, Note_on_c, 0, 67, 76
1, 23970, Note_on_c, 0, 69, 0
1, 23997, Note_on_c, 0, 67, 0
1, 23999, Note_on_c, 0, 65, 72
1, 24001, Note_on_c, 1, 53, 66
1, 24001, Note_on_c, 1, 62, 70
1, 24029, Note_on_c, 0, 70, 60
1, 24031, Note_on_c, 0, 65, 0
1, 24059, Note_on_c, 0, 70, 0
1, 24059, Note_on_c, 0, 74, 76
1, 24088, Note_on_c, 0, 74, 0
1, 24088, Note_on_c, 0, 77, 72
1, 24117, Note_on_c, 0, 77, 0
1, 24119, Note_on_c, 0, 77, 89
1, 24119, Note_on_c, 1, 63, 66
1, 24121, Note_on_c, 1, 62, 0
1, 24149, Note_on_c, 0, 75, 57
1, 24152, Note_on_c, 0, 77, 0
1, 24179, Note_on_c, 0, 75, 0
1, 24179, Note_on_c, 0, 74, 80
1, 24181, Note_on_c, 1, 63, 0
1, 24182, Note_on_c, 1, 53, 0
1, 24208, Note_on_c, 0, 74, 0
1, 24209, Note_on_c, 0, 72, 76
1, 24236, Note_on_c, 0, 72, 0
1, 24239, Note_on_c, 0, 72, 85
1, 24239, Note_on_c, 1, 63, 70
1, 24239, Note_on_c, 1, 58, 66
1, 24333, Note_on_c, 1, 58, 0
1, 24357, Note_on_c, 1, 63, 0
1, 24359, Note_on_c, 1, 62, 62
1, 24359, Note_on_c, 1, 58, 52
1, 24360, Note_on_c, 0, 72, 0
1, 24361, Note_on_c, 0, 70, 80
1, 24389, Note_on_c, 0, 70, 0
1, 24415, Note_on_c, 1, 62, 0
1, 24417, Note_on_c, 1, 58, 0
1, 24421, Note_on_c, 0, 65, 64
1, 24478, Note_on_c, 0, 65, 0
1, 24482, Note_on_c, 0, 77, 72
1, 24482, Note_on_c, 0, 74, 80
1, 24482, Note_on_c, 1, 38, 66
1, 24506, Note_on_c, 0, 74, 0
1, 24507, Note_on_c, 0, 77, 0
1, 24537, Note_on_c, 1, 38, 0
1, 24541, Note_on_c, 1, 50, 58
1, 24542, Note_on_c, 0, 77, 72
1, 24542, Note_on_c, 0, 74, 64
1, 24569, Note_on_c, 1, 50, 0
1, 24602, Note_on_c, 1, 50, 62
1, 24604, Note_on_c, 0, 77, 0
1, 24625, Note_on_c, 0, 74, 0
1, 24630, Note_on_c, 1, 50, 0
1, 24661, Note_on_c, 1, 50, 66
1, 24663, Note_on_c, 0, 80, 76
1, 24663, Note_on_c, 0, 77, 85
1, 24690, Note_on_c, 1, 50, 0
1, 24715, Note_on_c, 0, 80, 0
1, 24716, Note_on_c, 0, 77, 0
1, 24722, Note_on_c, 0, 74, 72
1, 24722, Note_on_c, 1, 43, 62
1, 24723, Note_on_c, 0, 71, 62
1, 24746, Note_on_c, 0, 71, 0
1, 24747, Note_on_c, 0, 74, 0
1, 24776, Note_on_c, 1, 43, 0
1, 24782, Note_on_c, 1, 55, 52
1, 24783, Note_on_c, 0, 74, 72
1, 24783, Note_on_c, 0, 71, 62
1, 24810, Note_on_c, 1, 55, 0
1, 24842, Note_on_c, 1, 55, 54
1, 24866, Note_on_c, 0, 71, 0
1, 24869, Note_on_c, 0, 74, 0
1, 24869, Note_on_c, 1, 55, 0
1, 24902, Note_on_c, 0, 74, 76
1, 24902, Note_on_c, 0, 77, 80
1, 24902, Note_on_c, 1, 55, 66
1, 24927, Note_on_c, 1, 55, 0
1, 24955, Note_on_c, 0, 77, 0
1, 24956, Note_on_c, 0, 74, 0
1, 24961, Note_on_c, 1, 36, 70
1, 24962, Note_on_c, 0, 75, 72
1, 24962, Note_on_c, 0, 72, 80
1, 24987, Note_on_c, 0, 72, 0
1, 24988, Note_on_c, 0, 75, 0
1, 25013, Note_on_c, 1, 36, 0
1, 25021, Note_on_c, 0, 75, 89
1, 25021, Note_on_c, 1, 48, 58
1, 25022, Note_on_c, 0, 72, 80
1, 25049, Note_on_c, 1, 48, 0
1, 25081, Note_on_c, 1, 48, 66
1, 25104, Note_on_c, 0, 72, 0
1, 25104, Note_on_c, 0, 75, 0
1, 25108, Note_on_c, 1, 48, 0
1, 25141, Note_on_c, 0, 75, 72
1, 25141, Note_on_c, 0, 79, 80
1, 25141, Note_on_c, 1, 48, 58
1, 25168, Note_on_c, 1, 48, 0
1, 25194, Note_on_c, 0, 79, 0
1, 25196, Note_on_c, 0, 75, 0
1, 25199, Note_on_c, 1, 41, 62
1, 25201, Note_on_c, 0, 72, 72
1, 25201, Note_on_c, 0, 69, 76
1, 25226, Note_on_c, 0, 69, 0
1, 25227, Note_on_c, 0, 72, 0
1, 25257, Note_on_c, 1, 41, 0
1, 25260, Note_on_c, 0, 72, 76
1, 25260, Note_on_c, 0, 69, 55
1, 25260, Note_on_c, 1, 53, 52
1, 25287, Note_on_c, 1, 53, 0
1, 25319, Note_on_c, 1, 53, 62
1, 25348, Note_on_c, 0, 69, 0
1, 25348, Note_on_c, 0, 72, 0
1, 25348, Note_on_c, 1, 53, 0
1, 25380, Note_on_c, 1, 53, 62
1, 25381, Note_on_c, 0, 72, 80
1, 25381, Note_on_c, 0, 75, 68
1, 25406, Note_on_c, 1, 53, 0
1, 25411, Note_on_c, 0, 75, 0
1, 25411, Note_on_c, 0, 72, 0
1, 25441, Note_on_c, 0, 75, 76
1, 25441, Note_on_c, 1, 58, 66
1, 25471, Note_on_c, 0, 73, 72
1, 25473, Note_on_c, 0, 75, 0
1, 25499, Note_on_c, 0, 73, 0
1, 25499, Note_on_c, 1, 61, 58
1, 25500, Note_on_c, 0, 72, 80
1, 25500, Note_on_c, 1, 58, 0
1, 25529, Note_on_c, 0, 70, 57
1, 25531, Note_on_c, 0, 72, 0
1, 25559, Note_on_c, 0, 70, 0
1, 25559, Note_on_c, 0, 69, 85
1, 25559, Note_on_c, 1, 58, 58
1, 25560, Note_on_c, 1, 61, 0
1, 25589, Note_on_c, 0, 69, 0
1, 25589, Note_on_c, 0, 70, 76
1, 25618, Note_on_c, 1, 58, 0
1, 25619, Note_on_c, 0, 70, 0
1, 25619, Note_on_c, 0, 72, 76
1, 25619, Note_on_c, 1, 56, 75
1, 25649, Note_on_c, 0, 70, 72
1, 25651, Note_on_c, 0, 72, 0
1, 25678, Note_on_c, 1, 56, 0
1, 25679, Note_on_c, 0, 75, 72
1, 25679, Note_on_c, 1, 54, 66
1, 25682, Note_on_c, 0, 70, 0
1, 25709, Note_on_c, 0, 73, 76
1, 25712, Note_on_c, 0, 75, 0
1, 25738, Note_on_c, 1, 58, 66
1, 25739, Note_on_c, 0, 72, 76
1, 25740, Note_on_c, 1, 54, 0
1, 25742, Note_on_c, 0, 73, 0
1, 25768, Note_on_c, 0, 70, 72
1, 25771, Note_on_c, 0, 72, 0
1, 25799, Note_on_c, 0, 69, 85
1, 25799, Note_on_c, 1, 54, 70
1, 25800, Note_on_c, 0, 70, 0
1, 25800, Note_on_c, 1, 58, 0
1, 25828, Note_on_c, 0, 70, 68
1, 25830, Note_on_c, 0, 69, 0
1, 25857, Note_on_c, 1, 54, 0
1, 25858, Note_on_c, 0, 72, 76
1, 25858, Note_on_c, 1, 53, 70
1, 25859, Note_on_c, 0, 70, 0
1, 25888, Note_on_c, 0, 70, 76
1, 25891, Note_on_c, 0, 72, 0
1, 25916, Note_on_c, 0, 70, 0
1, 25919, Note_on_c, 0, 82, 98
1, 25919, Note_on_c, 1, 53, 0
1, 25919, Note_on_c, 1, 52, 79
1, 25946, Note_on_c, 0, 82, 0
1, 25954, Note_on_c, 1, 52, 0
1, 25979, Note_on_c, 0, 82, 98
1, 26041, Note_on_c, 1, 67, 79
1, 26041, Note_on_c, 1, 60, 70
1, 26045, Note_on_c, 0, 82, 0
1, 26102, Note_on_c, 0, 76, 89
1, 26103, Note_on_c, 0, 70, 62
1, 26153, Note_on_c, 0, 70, 0
1, 26154, Note_on_c, 0, 76, 0
1, 26160, Note_on_c, 0, 70, 62
1, 26160, Note_on_c, 0, 79, 89
1, 26162, Note_on_c, 1, 65, 79
1, 26163, Note_on_c, 1, 60, 0
1, 26165, Note_on_c, 1, 67, 0
1, 26280, Note_on_c, 0, 79, 0
1, 26280, Note_on_c, 0, 70, 0
1, 26282, Note_on_c, 0, 69, 72
1, 26282, Note_on_c, 0, 77, 76
1, 26310, Note_on_c, 0, 77, 0
1, 26310, Note_on_c, 0, 69, 0
1, 26341, Note_on_c, 1, 65, 0
1, 26343, Note_on_c, 0, 65, 64
1, 26394, Note_on_c, 0, 65, 0
1, 26402, Note_on_c, 0, 65, 62
1, 26402, Note_on_c, 0, 74, 76
1, 26402, Note_on_c, 1, 46, 49
1, 26427, Note_on_c, 0, 74, 0
1, 26427, Note_on_c, 0, 65, 0
1, 26459, Note_on_c, 1, 46, 0
1, 26462, Note_on_c, 1, 58, 49
1, 26463, Note_on_c, 0, 65, 68
1, 26463, Note_on_c, 0, 74, 76
1, 26490, Note_on_c, 1, 58, 0
1, 26522, Note_on_c, 1, 58, 52
1, 26547, Note_on_c, 0, 65, 0
1, 26548, Note_on_c, 0, 74, 0
1, 26550, Note_on_c, 1, 58, 0
1, 26581, Note_on_c, 0, 62, 55
1, 26581, Note_on_c, 1, 58, 54
1, 26582, Note_on_c, 0, 70, 60
1, 26607, Note_on_c, 0, 62, 0
1, 26608, Note_on_c, 0, 70, 0
1, 26609, Note_on_c, 1, 58, 0
1, 26640, Note_on_c, 0, 67, 72
1, 26641, Note_on_c, 0, 75, 76
1, 26642, Note_on_c, 1, 46, 52
1, 26666, Note_on_c, 0, 67, 0
1, 26667, Note_on_c, 0, 75, 0
1, 26696, Note_on_c, 1, 46, 0
1, 26700, Note_on_c, 1, 58, 50
1, 26701, Note_on_c, 0, 75, 80
1, 26701, Note_on_c, 0, 67, 76
1, 26727, Note_on_c, 1, 58, 0
1, 26761, Note_on_c, 1, 58, 58
1, 26764, Note_on_c, 0, 67, 0
1, 26784, Note_on_c, 0, 75, 0
1, 26788, Note_on_c, 1, 58, 0
1, 26819, Note_on_c, 1, 58, 54
1, 26821, Note_on_c, 0, 63, 62
1, 26821, Note_on_c, 0, 72, 72
1, 26847, Note_on_c, 1, 58, 0
1, 26851, Note_on_c, 0, 63, 0
1, 26853, Note_on_c, 0, 72, 0
1, 26881, Note_on_c, 0, 67, 72
1, 26881, Note_on_c, 1, 63, 66
1, 26881, Note_on_c, 1, 58, 54
1, 26941, Note_on_c, 0, 67, 0
1, 26941, Note_on_c, 0, 70, 76
1, 26999, Note_on_c, 0, 70, 0
1, 26999, Note_on_c, 1, 60, 46
1, 27001, Note_on_c, 0, 69, 76
1, 27001, Note_on_c, 1, 63, 0
1, 27061, Note_on_c, 0, 69, 0
1, 27061, Note_on_c, 0, 72, 80
1, 27090, Note_on_c, 1, 58, 0
1, 27092, Note_on_c, 1, 60, 0
1, 27121, Note_on_c, 0, 70, 62
1, 27121, Note_on_c, 1, 62, 62
1, 27121, Note_on_c, 1, 58, 52
1, 27122, Note_on_c, 0, 72, 0
1, 27151, Note_on_c, 0, 70, 0
1, 27151, Note_on_c, 0, 69, 76
1, 27181, Note_on_c, 0, 70, 60
1, 27183, Note_on_c, 0, 69, 0
1, 27209, Note_on_c, 0, 70, 0
1, 27211, Note_on_c, 0, 72, 76
1, 27213, Note_on_c, 1, 62, 0
1, 27235, Note_on_c, 1, 58, 0
1, 27241, Note_on_c, 0, 72, 0
1, 27241, Note_on_c, 0, 70, 76
1, 27267, Note_on_c, 0, 70, 0
1, 27302, Note_on_c, 0, 70, 89
1, 27327, Note_on_c, 0, 70, 0
1, 27360, Note_on_c, 1, 46, 62
1, 27361, Note_on_c, 0, 77, 76
1, 27361, Note_on_c, 0, 74, 85
1, 27386, Note_on_c, 0, 74, 0
1, 27386, Note_on_c, 0, 77, 0
1, 27416, Note_on_c, 1, 46, 0
1, 27419, Note_on_c, 1, 58, 52
1, 27422, Note_on_c, 0, 77, 89
1, 27422, Note_on_c, 0, 74, 93
1, 27448, Note_on_c, 1, 58, 0
1, 27481, Note_on_c, 1, 58, 50
1, 27508, Note_on_c, 1, 58, 0
1, 27514, Note_on_c, 0, 74, 0
1, 27533, Note_on_c, 0, 77, 0
1, 27541, Note_on_c, 1, 58, 50
1, 27542, Note_on_c, 0, 74, 93
1, 27542, Note_on_c, 0, 70, 62
1, 27568, Note_on_c, 1, 58, 0
1, 27599, Note_on_c, 0, 70, 0
1, 27600, Note_on_c, 0, 74, 0
1, 27601, Note_on_c, 1, 46, 66
1, 27602, Note_on_c, 0, 75, 80
1, 27602, Note_on_c, 0, 79, 93
1, 27626, Note_on_c, 0, 79, 0
1, 27627, Note_on_c, 0, 75, 0
1, 27654, Note_on_c, 1, 46, 0
1, 27661, Note_on_c, 1, 58, 50
1, 27662, Note_on_c, 0, 75, 93
1, 27662, Note_on_c, 0, 79, 98
1, 27688, Note_on_c, 1, 58, 0
1, 27722, Note_on_c, 1, 58, 52
1, 27744, Note_on_c, 0, 75, 0
1, 27745, Note_on_c, 0, 79, 0
1, 27747, Note_on_c, 1, 58, 0
1, 27781, Note_on_c, 0, 75, 80
1, 27781, Note_on_c, 0, 72, 76
1, 27781, Note_on_c, 1, 58, 62
1, 27807, Note_on_c, 1, 58, 0
1, 27809, Note_on_c, 0, 75, 0
1, 27813, Note_on_c, 0, 72, 0
1, 27841, Note_on_c, 0, 70, 72
1, 27841, Note_on_c, 1, 58, 66
1, 27841, Note_on_c, 1, 67, 83
1, 27898, Note_on_c, 0, 70, 0
1, 27901, Note_on_c, 0, 74, 72
1, 27959, Note_on_c, 1, 69, 79
1, 27960, Note_on_c, 0, 74, 0
1, 27961, Note_on_c, 0, 72, 76
1, 27962, Note_on_c, 1, 67, 0
1, 28021, Note_on_c, 0, 75, 76
1, 28023, Note_on_c, 0, 72, 0
1, 28025, Note_on_c, 1, 69, 0
1, 28026, Note_on_c, 1, 58, 0
1, 28081, Note_on_c, 0, 74, 76
1, 28081, Note_on_c, 1, 70, 58
1, 28081, Note_on_c, 1, 58, 54
1, 28082, Note_on_c, 0, 75, 0
1, 28111, Note_on_c, 0, 72, 64
1, 28113, Note_on_c, 0, 74, 0
1, 28141, Note_on_c, 0, 72, 0
1, 28141, Note_on_c, 0, 74, 76
1, 28169, Note_on_c, 0, 74, 0
1, 28171, Note_on_c, 0, 75, 46
1, 28198, Note_on_c, 1, 70, 0
1, 28201, Note_on_c, 0, 75, 0
1, 28201, Note_on_c, 0, 74, 80
1, 28202, Note_on_c, 1, 58, 0
1, 28227, Note_on_c, 0, 74, 0
1, 28259, Note_on_c, 0, 70, 72
1, 28287, Note_on_c, 0, 70, 0
1, 28319, Note_on_c, 0, 79, 93
1, 28319, Note_on_c, 1, 59, 66
1, 28347, Note_on_c, 0, 79, 0
1, 28381, Note_on_c, 0, 79, 98
1, 28381, Note_on_c, 1, 59, 0
1, 28381, Note_on_c, 1, 62, 58
1, 28410, Note_on_c, 1, 62, 0
1, 28441, Note_on_c, 0, 75, 76
1, 28441, Note_on_c, 1, 60, 75
1, 28443, Note_on_c, 0, 79, 0
1, 28500, Note_on_c, 1, 60, 0
1, 28501, Note_on_c, 0, 75, 0
1, 28501, Note_on_c, 0, 72, 72
1, 28501, Note_on_c, 1, 63, 62
1, 28560, Note_on_c, 0, 72, 0
1, 28561, Note_on_c, 0, 71, 93
1, 28562, Note_on_c, 1, 62, 66
1, 28563, Note_on_c, 1, 63, 0
1, 28622, Note_on_c, 1, 65, 70
1, 28624, Note_on_c, 1, 62, 0
1, 28680, Note_on_c, 0, 71, 0
1, 28681, Note_on_c, 0, 72, 89
1, 28681, Note_on_c, 1, 63, 62
1, 28682, Note_on_c, 1, 65, 0
1, 28740, Note_on_c, 1, 63, 0
1, 28741, Note_on_c, 1, 67, 62
1, 28742, Note_on_c, 0, 79, 93
1, 28743, Note_on_c, 0, 72, 0
1, 28767, Note_on_c, 0, 79, 0
1, 28802, Note_on_c, 0, 76, 76
1, 28802, Note_on_c, 1, 57, 75
1, 28803, Note_on_c, 1, 67, 0
1, 28830, Note_on_c, 0, 76, 0
1, 28832, Note_on_c, 0, 77, 72
1, 28860, Note_on_c, 0, 77, 0
1, 28861, Note_on_c, 0, 79, 72
1, 28861, Note_on_c, 1, 57, 0
1, 28862, Note_on_c, 1, 60, 38
1, 28891, Note_on_c, 0, 77, 72
1, 28893, Note_on_c, 0, 79, 0
1, 28921, Note_on_c, 0, 75, 64
1, 28921, Note_on_c, 1, 58, 66
1, 28923, Note_on_c, 0, 77, 0
1, 28923, Note_on_c, 1, 60, 0
1, 28950, Note_on_c, 0, 74, 85
1, 28951, Note_on_c, 0, 75, 0
1, 28978, Note_on_c, 0, 74, 0
1, 28979, Note_on_c, 0, 72, 68
1, 28981, Note_on_c, 1, 58, 0
1, 28981, Note_on_c, 1, 62, 66
1, 29009, Note_on_c, 0, 72, 0
1, 29009, Note_on_c, 0, 70, 56
1, 29038, Note_on_c, 1, 62, 0
1, 29039, Note_on_c, 0, 70, 0
1, 29039, Note_on_c, 0, 69, 72
1, 29039, Note_on_c, 1, 60, 58
1, 29099, Note_on_c, 1, 63, 50
1, 29101, Note_on_c, 1, 60, 0
1, 29158, Note_on_c, 1, 63, 0
1, 29159, Note_on_c, 0, 69, 0
1, 29159, Note_on_c, 0, 70, 72
1, 29159, Note_on_c, 1, 62, 62
1, 29218, Note_on_c, 0, 70, 0
1, 29219, Note_on_c, 1, 65, 70
1, 29220, Note_on_c, 1, 62, 0
1, 29221, Note_on_c, 0, 77, 76
1, 29248, Note_on_c, 0, 77, 0
1, 29278, Note_on_c, 1, 65, 0
1, 29280, Note_on_c, 0, 82, 72
1, 29280, Note_on_c, 1, 58, 70
1, 29280, Note_on_c, 1, 53, 79
1, 29280, Note_on_c, 1, 50, 83
1, 29310, Note_on_c, 0, 82, 0
1, 29310, Note_on_c, 0, 81, 72
1, 29339, Note_on_c, 0, 79, 62
1, 29341, Note_on_c, 0, 81, 0
1, 29369, Note_on_c, 0, 77, 60
1, 29370, Note_on_c, 0, 79, 0
1, 29399, Note_on_c, 0, 75, 59
1, 29402, Note_on_c, 0, 77, 0
1, 29405, Note_on_c, 1, 50, 0
1, 29405, Note_on_c, 1, 53, 0
1, 29405, Note_on_c, 1, 58, 0
1, 29429, Note_on_c, 0, 75, 0
1, 29429, Note_on_c, 0, 74, 68
1, 29459, Note_on_c, 0, 74, 0
1, 29459, Note_on_c, 0, 72, 51
1, 29489, Note_on_c, 0, 70, 64
1, 29490, Note_on_c, 0, 72, 0
1, 29519, Note_on_c, 0, 70, 0
1, 29519, Note_on_c, 0, 79, 85
1, 29519, Note_on_c, 1, 51, 75
1, 29519, Note_on_c, 1, 58, 70
1, 29519, Note_on_c, 1, 60, 75
1, 29551, Note_on_c, 0, 77, 72
1, 29554, Note_on_c, 0, 79, 0
1, 29579, Note_on_c, 0, 75, 59
1, 29581, Note_on_c, 0, 77, 0
1, 29609, Note_on_c, 0, 74, 76
1, 29612, Note_on_c, 0, 75, 0
1, 29639, Note_on_c, 0, 74, 0
1, 29639, Note_on_c, 0, 72, 72
1, 29639, Note_on_c, 1, 58, 0
1, 29640, Note_on_c, 1, 60, 0
1, 29642, Note_on_c, 1, 51, 0
1, 29669, Note_on_c, 0, 70, 57
1, 29671, Note_on_c, 0, 72, 0
1, 29699, Note_on_c, 0, 69, 64
1, 29701, Note_on_c, 0, 70, 0
1, 29728, Note_on_c, 0, 67, 51
1, 29732, Note_on_c, 0, 69, 0
1, 29757, Note_on_c, 0, 67, 0
1, 29759, Note_on_c, 0, 65, 76
1, 29759, Note_on_c, 1, 53, 62
1, 29759, Note_on_c, 1, 62, 62
1, 29789, Note_on_c, 0, 70, 62
1, 29790, Note_on_c, 0, 65, 0
1, 29819, Note_on_c, 0, 70, 0
1, 29819, Note_on_c, 0, 74, 76
1, 29849, Note_on_c, 0, 74, 0
1, 29849, Note_on_c, 0, 77, 80
1, 29877, Note_on_c, 0, 77, 0
1, 29879, Note_on_c, 0, 77, 80
1, 29879, Note_on_c, 1, 63, 62
1, 29882, Note_on_c, 1, 62, 0
1, 29911, Note_on_c, 0, 75, 55
1, 29914, Note_on_c, 0, 77, 0
1, 29937, Note_on_c, 1, 63, 0
1, 29937, Note_on_c, 1, 53, 0
1, 29940, Note_on_c, 0, 74, 72
1, 29941, Note_on_c, 0, 75, 0
1, 29967, Note_on_c, 0, 74, 0
1, 29969, Note_on_c, 0, 72, 80
1, 29996, Note_on_c, 0, 72, 0
1, 29999, Note_on_c, 1, 63, 58
1, 29999, Note_on_c, 1, 58, 62
1, 30000, Note_on_c, 0, 72, 89
1, 30121, Note_on_c, 0, 70, 80
1, 30121, Note_on_c, 1, 62, 47
1, 30122, Note_on_c, 0, 72, 0
1, 30122, Note_on_c, 1, 63, 0
1, 30154, Note_on_c, 0, 70, 0
1, 30182, Note_on_c, 0, 70, 72
1, 30204, Note_on_c, 1, 62, 0
1, 30207, Note_on_c, 1, 58, 0
1, 30210, Note_on_c, 0, 70, 0
1, 30211, Note_on_c, 0, 72, 76
1, 30238, Note_on_c, 0, 72, 0
1, 30241, Note_on_c, 0, 74, 89
1, 30301, Note_on_c, 1, 58, 52
1, 30301, Note_on_c, 1, 62, 52
1, 30330, Note_on_c, 1, 58, 0
1, 30331, Note_on_c, 1, 62, 0
1, 30361, Note_on_c, 1, 58, 58
1, 30361, Note_on_c, 1, 62, 66
1, 30362, Note_on_c, 0, 74, 0
1, 30419, Note_on_c, 1, 58, 0
1, 30420, Note_on_c, 1, 62, 0
1, 30421, Note_on_c, 0, 74, 80
1, 30449, Note_on_c, 0, 74, 0
1, 30451, Note_on_c, 0, 75, 72
1, 30478, Note_on_c, 0, 75, 0
1, 30481, Note_on_c, 0, 77, 85
1, 30540, Note_on_c, 1, 58, 62
1, 30541, Note_on_c, 1, 62, 66
1, 30569, Note_on_c, 1, 58, 0
1, 30571, Note_on_c, 1, 62, 0
1, 30595, Note_on_c, 0, 77, 0
1, 30601, Note_on_c, 1, 58, 66
1, 30601, Note_on_c, 1, 62, 70
1, 30661, Note_on_c, 0, 77, 80
1, 30663, Note_on_c, 1, 58, 0
1, 30664, Note_on_c, 1, 62, 0
1, 30691, Note_on_c, 0, 79, 76
1, 30695, Note_on_c, 0, 77, 0
1, 30719, Note_on_c, 0, 79, 0
1, 30721, Note_on_c, 0, 80, 93
1, 30779, Note_on_c, 0, 80, 0
1, 30781, Note_on_c, 0, 77, 89
1, 30840, Note_on_c, 0, 77, 0
1, 30841, Note_on_c, 0, 74, 93
1, 30900, Note_on_c, 0, 74, 0
1, 30901, Note_on_c, 0, 70, 85
1, 30960, Note_on_c, 0, 70, 0
1, 30961, Note_on_c, 0, 69, 93
1, 31022, Note_on_c, 0, 70, 76
1, 31023, Note_on_c, 0, 69, 0
1, 31081, Note_on_c, 0, 70, 0
1, 31082, Note_on_c, 0, 68, 76
1, 31140, Note_on_c, 0, 68, 0
1, 31141, Note_on_c, 0, 65, 80
1, 31200, Note_on_c, 0, 63, 59
1, 31201, Note_on_c, 0, 65, 0
1, 31229, Note_on_c, 0, 63, 0
1, 31259, Note_on_c, 0, 63, 64
1, 31289, Note_on_c, 0, 63, 0
1, 31319, Note_on_c, 0, 63, 55
1, 31319, Note_on_c, 1, 58, 52
1, 31319, Note_on_c, 1, 55, 47
1, 31349, Note_on_c, 0, 63, 0
1, 31379, Note_on_c, 0, 63, 56
1, 31408, Note_on_c, 1, 55, 0
1, 31409, Note_on_c, 1, 58, 0
1, 31412, Note_on_c, 0, 63, 0
1, 31439, Note_on_c, 0, 72, 76
1, 31474, Note_on_c, 0, 72, 0
1, 31500, Note_on_c, 0, 72, 55
1, 31529, Note_on_c, 0, 72, 0
1, 31559, Note_on_c, 1, 56, 66
1, 31559, Note_on_c, 1, 63, 52
1, 31560, Note_on_c, 0, 72, 68
1, 31589, Note_on_c, 0, 72, 0
1, 31621, Note_on_c, 0, 72, 56
1, 31649, Note_on_c, 0, 72, 0
1, 31650, Note_on_c, 1, 63, 0
1, 31652, Note_on_c, 1, 56, 0
1, 31681, Note_on_c, 0, 65, 76
1, 31734, Note_on_c, 0, 65, 0
1, 31740, Note_on_c, 0, 65, 68
1, 31773, Note_on_c, 0, 65, 0
1, 31799, Note_on_c, 0, 70, 68
1, 31801, Note_on_c, 1, 50, 70
1, 31801, Note_on_c, 1, 53, 62
1, 31832, Note_on_c, 0, 70, 0
1, 31859, Note_on_c, 0, 70, 68
1, 31861, Note_on_c, 1, 50, 0
1, 31863, Note_on_c, 1, 53, 0
1, 31892, Note_on_c, 0, 70, 0
1, 31919, Note_on_c, 1, 58, 50
1, 31919, Note_on_c, 1, 51, 62
1, 31921, Note_on_c, 0, 68, 72
1, 31978, Note_on_c, 0, 68, 0
1, 31979, Note_on_c, 0, 67, 72
1, 32005, Note_on_c, 1, 58, 0
1, 32007, Note_on_c, 1, 51, 0
1, 32039, Note_on_c, 0, 67, 0
1, 32040, Note_on_c, 0, 65, 89
1, 32066, Note_on_c, 0, 65, 0
1, 32101, Note_on_c, 0, 63, 76
1, 32126, Note_on_c, 0, 63, 0
1, 32161, Note_on_c, 0, 79, 80
1, 32187, Note_on_c, 0, 79, 0
1, 32219, Note_on_c, 0, 79, 80
1, 32219, Note_on_c, 1, 63, 70
1, 32246, Note_on_c, 1, 63, 0
1, 32247, Note_on_c, 0, 79, 0
1, 32279, Note_on_c, 0, 78, 76
1, 32279, Note_on_c, 1, 62, 79
1, 32306, Note_on_c, 1, 62, 0
1, 32307, Note_on_c, 0, 78, 0
1, 32339, Note_on_c, 0, 77, 80
1, 32339, Note_on_c, 1, 59, 75
1, 32366, Note_on_c, 1, 59, 0
1, 32367, Note_on_c, 0, 77, 0
1, 32399, Note_on_c, 0, 76, 72
1, 32399, Note_on_c, 1, 60, 75
1, 32427, Note_on_c, 0, 76, 0
1, 32427, Note_on_c, 1, 60, 0
1, 32459, Note_on_c, 0, 75, 80
1, 32459, Note_on_c, 1, 57, 79
1, 32486, Note_on_c, 1, 57, 0
1, 32487, Note_on_c, 0, 75, 0
1, 32518, Note_on_c, 0, 74, 76
1, 32519, Note_on_c, 1, 58, 75
1, 32548, Note_on_c, 0, 74, 0
1, 32578, Note_on_c, 1, 52, 83
1, 32579, Note_on_c, 0, 73, 80
1, 32607, Note_on_c, 0, 73, 0
1, 32636, Note_on_c, 1, 52, 0
1, 32638, Note_on_c, 1, 53, 79
1, 32639, Note_on_c, 0, 72, 80
1, 32667, Note_on_c, 0, 72, 0
1, 32699, Note_on_c, 0, 72, 76
1, 32727, Note_on_c, 0, 72, 0
1, 32758, Note_on_c, 1, 58, 0
1, 32759, Note_on_c, 0, 77, 89
1, 32759, Note_on_c, 1, 57, 66
1, 32787, Note_on_c, 0, 77, 0
1, 32818, Note_on_c, 0, 77, 85
1, 32847, Note_on_c, 0, 77, 0
1, 32879, Note_on_c, 0, 70, 85
1, 32879, Note_on_c, 1, 58, 70
1, 32880, Note_on_c, 1, 57, 0
1, 32880, Note_on_c, 1, 53, 0
1, 32906, Note_on_c, 1, 58, 0
1, 32938, Note_on_c, 1, 53, 70
1, 32967, Note_on_c, 1, 53, 0
1, 32998, Note_on_c, 1, 50, 79
1, 33025, Note_on_c, 0, 70, 0
1, 33027, Note_on_c, 1, 50, 0
1, 33058, Note_on_c, 1, 46, 70
1, 33087, Note_on_c, 1, 46, 0
1, 33119, Note_on_c, 0, 63, 46
1, 33152, Note_on_c, 0, 63, 0
1, 33179, Note_on_c, 0, 63, 59
1, 33209, Note_on_c, 0, 63, 0
1, 33238, Note_on_c, 1, 58, 54
1, 33238, Note_on_c, 1, 55, 70
1, 33239, Note_on_c, 0, 63, 57
1, 33268, Note_on_c, 0, 63, 0
1, 33298, Note_on_c, 0, 63, 59
1, 33328, Note_on_c, 0, 63, 0
1, 33333, Note_on_c, 1, 55, 0
1, 33334, Note_on_c, 1, 58, 0
1, 33358, Note_on_c, 0, 72, 56
1, 33393, Note_on_c, 0, 72, 0
1, 33419, Note_on_c, 0, 72, 62
1, 33449, Note_on_c, 0, 72, 0
1, 33478, Note_on_c, 1, 56, 70
1, 33478, Note_on_c, 1, 63, 54
1, 33479, Note_on_c, 0, 72, 62
1, 33508, Note_on_c, 0, 72, 0
1, 33539, Note_on_c, 0, 72, 55
1, 33540, Note_on_c, 1, 63, 0
1, 33543, Note_on_c, 1, 56, 0
1, 33568, Note_on_c, 0, 72, 0
1, 33599, Note_on_c, 0, 65, 62
1, 33635, Note_on_c, 0, 65, 0
1, 33659, Note_on_c, 0, 65, 56
1, 33694, Note_on_c, 0, 65, 0
1, 33719, Note_on_c, 0, 70, 55
1, 33719, Note_on_c, 1, 53, 79
1, 33719, Note_on_c, 1, 50, 83
1, 33752, Note_on_c, 0, 70, 0
1, 33779, Note_on_c, 0, 70, 64
1, 33809, Note_on_c, 0, 70, 0
1, 33840, Note_on_c, 1, 50, 0
1, 33840, Note_on_c, 1, 53, 0
1, 33840, Note_on_c, 1, 51, 54
1, 33841, Note_on_c, 0, 68, 57
1, 33841, Note_on_c, 1, 58, 42
1, 33897, Note_on_c, 0, 68, 0
1, 33899, Note_on_c, 0, 67, 60
1, 33932, Note_on_c, 1, 51, 0
1, 33933, Note_on_c, 1, 58, 0
1, 33959, Note_on_c, 0, 65, 64
1, 33960, Note_on_c, 0, 67, 0
1, 33988, Note_on_c, 0, 65, 0
1, 34019, Note_on_c, 0, 63, 68
1, 34046, Note_on_c, 0, 63, 0
1, 34079, Note_on_c, 0, 79, 76
1, 34107, Note_on_c, 0, 79, 0
1, 34138, Note_on_c, 1, 63, 75
1, 34139, Note_on_c, 0, 79, 80
1, 34166, Note_on_c, 1, 63, 0
1, 34167, Note_on_c, 0, 79, 0
1, 34199, Note_on_c, 0, 78, 64
1, 34199, Note_on_c, 1, 62, 83
1, 34226, Note_on_c, 1, 62, 0
1, 34227, Note_on_c, 0, 78, 0
1, 34259, Note_on_c, 0, 77, 85
1, 34259, Note_on_c, 1, 59, 75
1, 34286, Note_on_c, 1, 59, 0
1, 34287, Note_on_c, 0, 77, 0
1, 34319, Note_on_c, 0, 76, 76
1, 34319, Note_on_c, 1, 60, 75
1, 34346, Note_on_c, 1, 60, 0
1, 34347, Note_on_c, 0, 76, 0
1, 34379, Note_on_c, 0, 75, 72
1, 34379, Note_on_c, 1, 57, 75
1, 34406, Note_on_c, 1, 57, 0
1, 34407, Note_on_c, 0, 75, 0
1, 34439, Note_on_c, 0, 74, 76
1, 34439, Note_on_c, 1, 58, 58
1, 34468, Note_on_c, 0, 74, 0
1, 34497, Note_on_c, 1, 52, 54
1, 34499, Note_on_c, 0, 73, 80
1, 34527, Note_on_c, 0, 73, 0
1, 34559, Note_on_c, 0, 72, 89
1, 34559, Note_on_c, 1, 53, 58
1, 34560, Note_on_c, 1, 52, 0
1, 34587, Note_on_c, 0, 72, 0
1, 34620, Note_on_c, 0, 72, 76
1, 34646, Note_on_c, 0, 72, 0
1, 34679, Note_on_c, 0, 77, 89
1, 34681, Note_on_c, 1, 57, 54
1, 34682, Note_on_c, 1, 58, 0
1, 34707, Note_on_c, 0, 77, 0
1, 34739, Note_on_c, 0, 77, 85
1, 34767, Note_on_c, 0, 77, 0
1, 34798, Note_on_c, 1, 57, 0
1, 34798, Note_on_c, 1, 58, 62
1, 34799, Note_on_c, 0, 70, 80
1, 34800, Note_on_c, 1, 53, 0
1, 34826, Note_on_c, 1, 58, 0
1, 34859, Note_on_c, 1, 53, 58
1, 34887, Note_on_c, 1, 53, 0
1, 34919, Note_on_c, 1, 50, 75
1, 34922, Note_on_c, 0, 70, 0
1, 34946, Note_on_c, 1, 50, 0
1, 34980, Note_on_c, 1, 46, 83
1, 35006, Note_on_c, 1, 46, 0
1, 35041, Note_on_c, 1, 61, 62
1, 35066, Note_on_c, 1, 61, 0
1, 35101, Note_on_c, 0, 70, 93
1, 35101, Note_on_c, 1, 61, 79
1, 35127, Note_on_c, 1, 61, 0
1, 35160, Note_on_c, 0, 70, 0
1, 35161, Note_on_c, 0, 73, 89
1, 35161, Note_on_c, 1, 61, 66
1, 35187, Note_on_c, 1, 61, 0
1, 35218, Note_on_c, 0, 73, 0
1, 35219, Note_on_c, 1, 61, 75
1, 35221, Note_on_c, 0, 76, 93
1, 35246, Note_on_c, 1, 61, 0
1, 35280, Note_on_c, 0, 76, 0
1, 35281, Note_on_c, 0, 79, 93
1, 35281, Note_on_c, 1, 52, 70
1, 35308, Note_on_c, 1, 52, 0
1, 35341, Note_on_c, 0, 73, 80
1, 35341, Note_on_c, 1, 52, 66
1, 35342, Note_on_c, 0, 79, 0
1, 35367, Note_on_c, 1, 52, 0
1, 35399, Note_on_c, 0, 73, 0
1, 35400, Note_on_c, 1, 52, 66
1, 35401, Note_on_c, 0, 72, 64
1, 35426, Note_on_c, 1, 52, 0
1, 35460, Note_on_c, 0, 72, 0
1, 35461, Note_on_c, 0, 70, 76
1, 35461, Note_on_c, 1, 52, 75
1, 35486, Note_on_c, 1, 52, 0
1, 35519, Note_on_c, 0, 70, 0
1, 35521, Note_on_c, 0, 69, 85
1, 35521, Note_on_c, 1, 60, 75
1, 35546, Note_on_c, 1, 60, 0
1, 35580, Note_on_c, 0, 69, 0
1, 35581, Note_on_c, 0, 68, 76
1, 35581, Note_on_c, 1, 60, 66
1, 35606, Note_on_c, 1, 60, 0
1, 35637, Note_on_c, 0, 68, 0
1, 35641, Note_on_c, 0, 74, 89
1, 35641, Note_on_c, 1, 60, 58
1, 35667, Note_on_c, 1, 60, 0
1, 35699, Note_on_c, 1, 60, 66
1, 35701, Note_on_c, 0, 74, 0
1, 35701, Note_on_c, 0, 75, 89
1, 35726, Note_on_c, 1, 60, 0
1, 35754, Note_on_c, 0, 75, 0
1, 35759, Note_on_c, 0, 77, 80
1, 35759, Note_on_c, 1, 50, 70
1, 35786, Note_on_c, 1, 50, 0
1, 35819, Note_on_c, 0, 71, 89
1, 35819, Note_on_c, 1, 50, 66
1, 35821, Note_on_c, 0, 77, 0
1, 35846, Note_on_c, 1, 50, 0
1, 35879, Note_on_c, 0, 70, 76
1, 35879, Note_on_c, 1, 50, 66
1, 35881, Note_on_c, 0, 71, 0
1, 35906, Note_on_c, 1, 50, 0
1, 35939, Note_on_c, 0, 68, 85
1, 35939, Note_on_c, 1, 50, 70
1, 35941, Note_on_c, 0, 70, 0
1, 35967, Note_on_c, 1, 50, 0
1, 35997, Note_on_c, 0, 68, 0
1, 35999, Note_on_c, 0, 67, 80
1, 35999, Note_on_c, 1, 51, 70
1, 36026, Note_on_c, 1, 51, 0
1, 36057, Note_on_c, 0, 67, 0
1, 36059, Note_on_c, 0, 66, 76
1, 36059, Note_on_c, 1, 51, 66
1, 36086, Note_on_c, 1, 51, 0
1, 36119, Note_on_c, 0, 65, 80
1, 36119, Note_on_c, 1, 50, 70
1, 36120, Note_on_c, 0, 66, 0
1, 36147, Note_on_c, 1, 50, 0
1, 36178, Note_on_c, 0, 65, 0
1, 36179, Note_on_c, 0, 70, 76
1, 36179, Note_on_c, 1, 49, 83
1, 36206, Note_on_c, 1, 49, 0
1, 36238, Note_on_c, 0, 70, 0
1, 36239, Note_on_c, 0, 63, 76
1, 36239, Note_on_c, 1, 48, 62
1, 36267, Note_on_c, 1, 48, 0
1, 36299, Note_on_c, 1, 47, 79
1, 36300, Note_on_c, 0, 69, 89
1, 36301, Note_on_c, 0, 63, 0
1, 36327, Note_on_c, 1, 47, 0
1, 36358, Note_on_c, 0, 69, 0
1, 36359, Note_on_c, 0, 62, 76
1, 36359, Note_on_c, 1, 46, 66
1, 36387, Note_on_c, 1, 46, 0
1, 36417, Note_on_c, 0, 62, 0
1, 36418, Note_on_c, 1, 45, 83
1, 36419, Note_on_c, 0, 66, 72
1, 36419, Note_on_c, 0, 63, 76
1, 36446, Note_on_c, 1, 45, 0
1, 36477, Note_on_c, 0, 66, 0
1, 36478, Note_on_c, 0, 63, 0
1, 36479, Note_on_c, 0, 62, 52
1, 36479, Note_on_c, 0, 65, 68
1, 36479, Note_on_c, 1, 46, 58
1, 36537, Note_on_c, 1, 46, 0
1, 36538, Note_on_c, 1, 45, 66
1, 36539, Note_on_c, 0, 62, 0
1, 36540, Note_on_c, 0, 66, 68
1, 36540, Note_on_c, 0, 63, 56
1, 36541, Note_on_c, 0, 65, 0
1, 36596, Note_on_c, 0, 66, 0
1, 36597, Note_on_c, 1, 45, 0
1, 36598, Note_on_c, 0, 63, 0
1, 36598, Note_on_c, 1, 46, 49
1, 36599, Note_on_c, 0, 62, 62
1, 36599, Note_on_c, 0, 65, 80
1, 36657, Note_on_c, 1, 46, 0
1, 36659, Note_on_c, 0, 62, 0
1, 36660, Note_on_c, 1, 45, 70
1, 36661, Note_on_c, 0, 63, 68
1, 36661, Note_on_c, 0, 66, 80
1, 36662, Note_on_c, 0, 65, 0
1, 36716, Note_on_c, 0, 66, 0
1, 36716, Note_on_c, 0, 63, 0
1, 36720, Note_on_c, 0, 66, 80
1, 36720, Note_on_c, 1, 46, 70
1, 36721, Note_on_c, 0, 62, 62
1, 36723, Note_on_c, 1, 45, 0
1, 36779, Note_on_c, 0, 62, 0
1, 36780, Note_on_c, 0, 66, 0
1, 36780, Note_on_c, 1, 46, 0
1, 36781, Note_on_c, 0, 67, 89
1, 36781, Note_on_c, 0, 63, 76
1, 36838, Note_on_c, 0, 63, 0
1, 36838, Note_on_c, 0, 67, 0
1, 36839, Note_on_c, 0, 65, 76
1, 36839, Note_on_c, 0, 68, 62
1, 36875, Note_on_c, 0, 65, 0
1, 36895, Note_on_c, 0, 68, 0
1, 36900, Note_on_c, 0, 65, 76
1, 36900, Note_on_c, 0, 62, 60
1, 36955, Note_on_c, 0, 62, 0
1, 36957, Note_on_c, 0, 65, 0
1, 36959, Note_on_c, 0, 63, 64
1, 37014, Note_on_c, 0, 63, 0
1, 37020, Note_on_c, 0, 63, 59
1, 37052, Note_on_c, 0, 63, 0
1, 37079, Note_on_c, 0, 63, 64
1, 37081, Note_on_c, 1, 55, 52
1, 37081, Note_on_c, 1, 58, 49
1, 37111, Note_on_c, 0, 63, 0
1, 37139, Note_on_c, 0, 63, 62
1, 37168, Note_on_c, 1, 55, 0
1, 37169, Note_on_c, 0, 63, 0
1, 37170, Note_on_c, 1, 58, 0
1, 37199, Note_on_c, 0, 72, 76
1, 37236, Note_on_c, 0, 72, 0
1, 37259, Note_on_c, 0, 72, 76
1, 37291, Note_on_c, 0, 72, 0
1, 37319, Note_on_c, 0, 72, 72
1, 37321, Note_on_c, 1, 56, 66
1, 37321, Note_on_c, 1, 63, 50
1, 37351, Note_on_c, 0, 72, 0
1, 37379, Note_on_c, 0, 72, 80
1, 37383, Note_on_c, 1, 63, 0
1, 37385, Note_on_c, 1, 56, 0
1, 37409, Note_on_c, 0, 72, 0
1, 37440, Note_on_c, 0, 65, 76
1, 37475, Note_on_c, 0, 65, 0
1, 37499, Note_on_c, 0, 65, 62
1, 37534, Note_on_c, 0, 65, 0
1, 37560, Note_on_c, 0, 70, 76
1, 37560, Note_on_c, 1, 53, 66
1, 37561, Note_on_c, 1, 50, 66
1, 37595, Note_on_c, 0, 70, 0
1, 37619, Note_on_c, 0, 70, 72
1, 37623, Note_on_c, 1, 50, 0
1, 37624, Note_on_c, 1, 53, 0
1, 37656, Note_on_c, 0, 70, 0
1, 37679, Note_on_c, 0, 68, 72
1, 37679, Note_on_c, 1, 51, 58
1, 37680, Note_on_c, 1, 58, 43
1, 37738, Note_on_c, 0, 68, 0
1, 37739, Note_on_c, 0, 67, 76
1, 37744, Note_on_c, 1, 58, 0
1, 37744, Note_on_c, 1, 51, 0
1, 37799, Note_on_c, 0, 67, 0
1, 37799, Note_on_c, 0, 65, 72
1, 37828, Note_on_c, 0, 65, 0
1, 37859, Note_on_c, 0, 63, 80
1, 37886, Note_on_c, 0, 63, 0
1, 37919, Note_on_c, 0, 72, 80
1, 37947, Note_on_c, 0, 72, 0
1, 37978, Note_on_c, 1, 68, 79
1, 37979, Note_on_c, 0, 84, 93
1, 38006, Note_on_c, 1, 68, 0
1, 38008, Note_on_c, 0, 84, 0
1, 38038, Note_on_c, 1, 67, 79
1, 38039, Note_on_c, 0, 83, 85
1, 38066, Note_on_c, 1, 67, 0
1, 38068, Note_on_c, 0, 83, 0
1, 38098, Note_on_c, 1, 64, 58
1, 38099, Note_on_c, 0, 82, 76
1, 38126, Note_on_c, 1, 64, 0
1, 38127, Note_on_c, 0, 82, 0
1, 38158, Note_on_c, 1, 65, 79
1, 38159, Note_on_c, 0, 81, 80
1, 38186, Note_on_c, 1, 65, 0
1, 38187, Note_on_c, 0, 81, 0
1, 38218, Note_on_c, 1, 62, 62
1, 38219, Note_on_c, 0, 80, 80
1, 38246, Note_on_c, 1, 62, 0
1, 38247, Note_on_c, 0, 80, 0
1, 38279, Note_on_c, 0, 79, 76
1, 38279, Note_on_c, 1, 63, 83
1, 38308, Note_on_c, 0, 79, 0
1, 38338, Note_on_c, 0, 78, 76
1, 38338, Note_on_c, 1, 57, 58
1, 38367, Note_on_c, 0, 78, 0
1, 38398, Note_on_c, 0, 77, 80
1, 38399, Note_on_c, 1, 58, 66
1, 38400, Note_on_c, 1, 57, 0
1, 38427, Note_on_c, 0, 77, 0
1, 38459, Note_on_c, 0, 77, 85
1, 38487, Note_on_c, 0, 77, 0
1, 38519, Note_on_c, 0, 82, 80
1, 38519, Note_on_c, 1, 62, 62
1, 38520, Note_on_c, 1, 63, 0
1, 38547, Note_on_c, 0, 82, 0
1, 38579, Note_on_c, 0, 82, 72
1, 38608, Note_on_c, 0, 82, 0
1, 38639, Note_on_c, 0, 75, 93
1, 38639, Note_on_c, 1, 58, 0
1, 38639, Note_on_c, 1, 63, 75
1, 38640, Note_on_c, 1, 62, 0
1, 38666, Note_on_c, 1, 63, 0
1, 38699, Note_on_c, 1, 58, 66
1, 38728, Note_on_c, 1, 58, 0
1, 38759, Note_on_c, 1, 55, 70
1, 38763, Note_on_c, 0, 75, 0
1, 38786, Note_on_c, 1, 55, 0
1, 38819, Note_on_c, 1, 51, 70
1, 38846, Note_on_c, 1, 51, 0
1, 38879, Note_on_c, 1, 61, 50
1, 38906, Note_on_c, 1, 61, 0
1, 38939, Note_on_c, 1, 61, 54
1, 38941, Note_on_c, 0, 70, 72
1, 38966, Note_on_c, 1, 61, 0
1, 38999, Note_on_c, 0, 73, 85
1, 39000, Note_on_c, 0, 70, 0
1, 39001, Note_on_c, 1, 61, 62
1, 39027, Note_on_c, 1, 61, 0
1, 39057, Note_on_c, 0, 73, 0
1, 39059, Note_on_c, 0, 76, 76
1, 39060, Note_on_c, 1, 61, 54
1, 39085, Note_on_c, 1, 61, 0
1, 39118, Note_on_c, 0, 76, 0
1, 39119, Note_on_c, 0, 79, 85
1, 39119, Note_on_c, 1, 52, 45
1, 39147, Note_on_c, 1, 52, 0
1, 39179, Note_on_c, 0, 73, 72
1, 39180, Note_on_c, 1, 52, 52
1, 39182, Note_on_c, 0, 79, 0
1, 39206, Note_on_c, 1, 52, 0
1, 39238, Note_on_c, 0, 73, 0
1, 39239, Note_on_c, 0, 72, 57
1, 39239, Note_on_c, 1, 52, 58
1, 39267, Note_on_c, 1, 52, 0
1, 39299, Note_on_c, 0, 72, 0
1, 39299, Note_on_c, 0, 70, 72
1, 39299, Note_on_c, 1, 52, 70
1, 39326, Note_on_c, 1, 52, 0
1, 39359, Note_on_c, 0, 70, 0
1, 39359, Note_on_c, 0, 69, 85
1, 39359, Note_on_c, 1, 60, 52
1, 39387, Note_on_c, 1, 60, 0
1, 39419, Note_on_c, 0, 69, 0
1, 39419, Note_on_c, 1, 60, 58
1, 39420, Note_on_c, 0, 68, 68
1, 39447, Note_on_c, 1, 60, 0
1, 39478, Note_on_c, 0, 68, 0
1, 39479, Note_on_c, 1, 60, 58
1, 39480, Note_on_c, 0, 74, 80
1, 39506, Note_on_c, 1, 60, 0
1, 39537, Note_on_c, 0, 74, 0
1, 39538, Note_on_c, 1, 60, 58
1, 39539, Note_on_c, 0, 75, 60
1, 39566, Note_on_c, 1, 60, 0
1, 39595, Note_on_c, 0, 75, 0
1, 39599, Note_on_c, 0, 77, 89
1, 39599, Note_on_c, 1, 50, 66
1, 39627, Note_on_c, 1, 50, 0
1, 39658, Note_on_c, 1, 50, 54
1, 39659, Note_on_c, 0, 77, 0
1, 39659, Note_on_c, 0, 71, 89
1, 39687, Note_on_c, 1, 50, 0
1, 39718, Note_on_c, 0, 71, 0
1, 39719, Note_on_c, 0, 70, 72
1, 39719, Note_on_c, 1, 50, 58
1, 39746, Note_on_c, 1, 50, 0
1, 39777, Note_on_c, 0, 70, 0
1, 39779, Note_on_c, 0, 68, 80
1, 39779, Note_on_c, 1, 50, 66
1, 39806, Note_on_c, 1, 50, 0
1, 39838, Note_on_c, 1, 51, 58
1, 39839, Note_on_c, 0, 68, 0
1, 39839, Note_on_c, 0, 67, 76
1, 39866, Note_on_c, 1, 51, 0
1, 39899, Note_on_c, 0, 67, 0
1, 39899, Note_on_c, 0, 66, 72
1, 39899, Note_on_c, 1, 51, 62
1, 39926, Note_on_c, 1, 51, 0
1, 39959, Note_on_c, 0, 65, 85
1, 39959, Note_on_c, 1, 50, 66
1, 39960, Note_on_c, 0, 66, 0
1, 39987, Note_on_c, 1, 50, 0
1, 40019, Note_on_c, 0, 70, 72
1, 40019, Note_on_c, 1, 49, 66
1, 40020, Note_on_c, 0, 65, 0
1, 40046, Note_on_c, 1, 49, 0
1, 40079, Note_on_c, 0, 63, 76
1, 40080, Note_on_c, 0, 70, 0
1, 40080, Note_on_c, 1, 48, 58
1, 40107, Note_on_c, 1, 48, 0
1, 40139, Note_on_c, 1, 47, 66
1, 40140, Note_on_c, 0, 69, 89
1, 40142, Note_on_c, 0, 63, 0
1, 40167, Note_on_c, 1, 47, 0
1, 40198, Note_on_c, 0, 69, 0
1, 40199, Note_on_c, 0, 62, 76
1, 40199, Note_on_c, 1, 46, 66
1, 40227, Note_on_c, 1, 46, 0
1, 40258, Note_on_c, 0, 62, 0
1, 40259, Note_on_c, 0, 63, 68
1, 40259, Note_on_c, 0, 66, 64
1, 40259, Note_on_c, 1, 45, 62
1, 40287, Note_on_c, 1, 45, 0
1, 40295, Note_on_c, 0, 66, 0
1, 40296, Note_on_c, 0, 63, 0
1, 40319, Note_on_c, 1, 46, 54
1, 40320, Note_on_c, 0, 62, 62
1, 40321, Note_on_c, 0, 65, 76
1, 40376, Note_on_c, 0, 62, 0
1, 40378, Note_on_c, 0, 65, 0
1, 40378, Note_on_c, 1, 46, 0
1, 40379, Note_on_c, 1, 45, 62
1, 40381, Note_on_c, 0, 63, 72
1, 40381, Note_on_c, 0, 66, 64
1, 40436, Note_on_c, 0, 66, 0
1, 40437, Note_on_c, 0, 63, 0
1, 40440, Note_on_c, 1, 46, 58
1, 40441, Note_on_c, 0, 62, 68
1, 40441, Note_on_c, 0, 65, 72
1, 40442, Note_on_c, 1, 45, 0
1, 40497, Note_on_c, 0, 62, 0
1, 40498, Note_on_c, 0, 65, 0
1, 40498, Note_on_c, 1, 46, 0
1, 40500, Note_on_c, 0, 63, 76
1, 40500, Note_on_c, 1, 45, 66
1, 40501, Note_on_c, 0, 66, 76
1, 40555, Note_on_c, 0, 66, 0
1, 40556, Note_on_c, 0, 63, 0
1, 40559, Note_on_c, 0, 65, 72
1, 40559, Note_on_c, 0, 62, 64
1, 40560, Note_on_c, 1, 45, 0
1, 40560, Note_on_c, 1, 46, 75
1, 40596, Note_on_c, 0, 62, 0
1, 40615, Note_on_c, 0, 65, 0
1, 40616, Note_on_c, 1, 46, 0
1, 40619, Note_on_c, 0, 63, 64
1, 40619, Note_on_c, 0, 67, 80
1, 40652, Note_on_c, 0, 67, 0
1, 40652, Note_on_c, 0, 63, 0
1, 40679, Note_on_c, 0, 65, 76
1, 40679, Note_on_c, 0, 68, 60
1, 40712, Note_on_c, 0, 68, 0
1, 40712, Note_on_c, 0, 65, 0
1, 40739, Note_on_c, 0, 62, 59
1, 40739, Note_on_c, 0, 65, 64
1, 40773, Note_on_c, 0, 62, 0
1, 40775, Note_on_c, 0, 65, 0
1, 40800, Note_on_c, 0, 63, 60
1, 40833, Note_on_c, 0, 63, 0
1, 40859, Note_on_c, 0, 63, 64
1, 40889, Note_on_c, 0, 63, 0
1, 40919, Note_on_c, 0, 63, 72
1, 40921, Note_on_c, 1, 58, 52
1, 40921, Note_on_c, 1, 55, 50
1, 40951, Note_on_c, 0, 63, 0
1, 40979, Note_on_c, 0, 63, 93
1, 41006, Note_on_c, 1, 55, 0
1, 41007, Note_on_c, 1, 58, 0
1, 41016, Note_on_c, 0, 63, 0
1, 41039, Note_on_c, 0, 72, 93
1, 41095, Note_on_c, 0, 72, 0
1, 41099, Note_on_c, 0, 72, 85
1, 41132, Note_on_c, 0, 72, 0
1, 41159, Note_on_c, 0, 72, 80
1, 41159, Note_on_c, 1, 56, 62
1, 41161, Note_on_c, 1, 63, 52
1, 41188, Note_on_c, 0, 72, 0
1, 41219, Note_on_c, 1, 63, 0
1, 41221, Note_on_c, 0, 72, 80
1, 41222, Note_on_c, 1, 56, 0
1, 41249, Note_on_c, 0, 72, 0
1, 41281, Note_on_c, 0, 65, 85
1, 41315, Note_on_c, 0, 65, 0
1, 41339, Note_on_c, 0, 65, 72
1, 41374, Note_on_c, 0, 65, 0
1, 41399, Note_on_c, 0, 70, 76
1, 41400, Note_on_c, 1, 53, 54
1, 41401, Note_on_c, 1, 50, 58
1, 41434, Note_on_c, 0, 70, 0
1, 41459, Note_on_c, 0, 70, 80
1, 41463, Note_on_c, 1, 50, 0
1, 41466, Note_on_c, 1, 53, 0
1, 41491, Note_on_c, 0, 70, 0
1, 41518, Note_on_c, 1, 51, 52
1, 41519, Note_on_c, 0, 68, 80
1, 41519, Note_on_c, 1, 58, 43
1, 41579, Note_on_c, 0, 68, 0
1, 41579, Note_on_c, 0, 67, 80
1, 41605, Note_on_c, 1, 58, 0
1, 41605, Note_on_c, 1, 51, 0
1, 41639, Note_on_c, 0, 67, 0
1, 41639, Note_on_c, 0, 65, 80
1, 41667, Note_on_c, 0, 65, 0
1, 41699, Note_on_c, 0, 63, 85
1, 41726, Note_on_c, 0, 63, 0
1, 41759, Note_on_c, 0, 72, 93
1, 41787, Note_on_c, 0, 72, 0
1, 41818, Note_on_c, 1, 68, 66
1, 41819, Note_on_c, 0, 84, 89
1, 41846, Note_on_c, 1, 68, 0
1, 41847, Note_on_c, 0, 84, 0
1, 41878, Note_on_c, 1, 67, 79
1, 41879, Note_on_c, 0, 83, 80
1, 41906, Note_on_c, 1, 67, 0
1, 41907, Note_on_c, 0, 83, 0
1, 41938, Note_on_c, 1, 64, 66
1, 41939, Note_on_c, 0, 82, 80
1, 41967, Note_on_c, 0, 82, 0
1, 41967, Note_on_c, 1, 64, 0
1, 41998, Note_on_c, 1, 65, 70
1, 41999, Note_on_c, 0, 81, 62
1, 42026, Note_on_c, 1, 65, 0
1, 42027, Note_on_c, 0, 81, 0
1, 42058, Note_on_c, 1, 62, 66
1, 42059, Note_on_c, 0, 80, 80
1, 42086, Note_on_c, 1, 62, 0
1, 42087, Note_on_c, 0, 80, 0
1, 42118, Note_on_c, 1, 63, 79
1, 42119, Note_on_c, 0, 79, 93
1, 42147, Note_on_c, 0, 79, 0
1, 42178, Note_on_c, 1, 57, 70
1, 42179, Note_on_c, 0, 78, 72
1, 42207, Note_on_c, 0, 78, 0
1, 42239, Note_on_c, 0, 77, 93
1, 42239, Note_on_c, 1, 58, 79
1, 42240, Note_on_c, 1, 57, 0
1, 42267, Note_on_c, 0, 77, 0
1, 42300, Note_on_c, 0, 77, 89
1, 42327, Note_on_c, 0, 77, 0
1, 42361, Note_on_c, 0, 82, 76
1, 42361, Note_on_c, 1, 62, 66
1, 42363, Note_on_c, 1, 63, 0
1, 42388, Note_on_c, 0, 82, 0
1, 42419, Note_on_c, 0, 82, 76
1, 42444, Note_on_c, 1, 62, 0
1, 42447, Note_on_c, 0, 82, 0
1, 42450, Note_on_c, 1, 58, 0
1, 42479, Note_on_c, 0, 75, 76
1, 42482, Note_on_c, 1, 63, 62
1, 42510, Note_on_c, 1, 63, 0
1, 42540, Note_on_c, 1, 58, 66
1, 42568, Note_on_c, 1, 58, 0
1, 42599, Note_on_c, 1, 55, 66
1, 42602, Note_on_c, 0, 75, 0
1, 42627, Note_on_c, 1, 55, 0
1, 42661, Note_on_c, 1, 51, 66
1, 42688, Note_on_c, 1, 51, 0
1, 42722, Note_on_c, 1, 55, 54
1, 42779, Note_on_c, 1, 55, 0
1, 42781, Note_on_c, 1, 67, 70
1, 42842, Note_on_c, 1, 66, 50
1, 42865, Note_on_c, 1, 67, 0
1, 42898, Note_on_c, 1, 66, 0
1, 42899, Note_on_c, 0, 71, 80
1, 42901, Note_on_c, 1, 65, 52
1, 42958, Note_on_c, 0, 72, 76
1, 42959, Note_on_c, 1, 63, 54
1, 42960, Note_on_c, 0, 71, 0
1, 42961, Note_on_c, 1, 65, 0
1, 43017, Note_on_c, 1, 63, 0
1, 43018, Note_on_c, 1, 62, 66
1, 43019, Note_on_c, 0, 74, 85
1, 43020, Note_on_c, 0, 72, 0
1, 43077, Note_on_c, 1, 62, 0
1, 43078, Note_on_c, 1, 60, 62
1, 43079, Note_on_c, 0, 75, 89
1, 43080, Note_on_c, 0, 74, 0
1, 43136, Note_on_c, 0, 75, 0
1, 43138, Note_on_c, 1, 58, 66
1, 43139, Note_on_c, 0, 76, 89
1, 43140, Note_on_c, 1, 60, 0
1, 43198, Note_on_c, 1, 58, 0
1, 43198, Note_on_c, 1, 57, 75
1, 43199, Note_on_c, 0, 77, 93
1, 43200, Note_on_c, 0, 76, 0
1, 43226, Note_on_c, 0, 77, 0
1, 43259, Note_on_c, 0, 89, 68
1, 43285, Note_on_c, 1, 57, 0
1, 43318, Note_on_c, 0, 89, 0
1, 43319, Note_on_c, 0, 88, 80
1, 43379, Note_on_c, 0, 87, 80
1, 43379, Note_on_c, 1, 69, 70
1, 43382, Note_on_c, 0, 88, 0
1, 43439, Note_on_c, 0, 86, 60
1, 43439, Note_on_c, 1, 70, 70
1, 43441, Note_on_c, 0, 87, 0
1, 43441, Note_on_c, 1, 69, 0
1, 43498, Note_on_c, 1, 70, 0
1, 43499, Note_on_c, 1, 72, 70
1, 43501, Note_on_c, 0, 86, 0
1, 43501, Note_on_c, 0, 84, 64
1, 43559, Note_on_c, 1, 74, 66
1, 43560, Note_on_c, 1, 72, 0
1, 43561, Note_on_c, 0, 82, 72
1, 43563, Note_on_c, 0, 84, 0
1, 43617, Note_on_c, 1, 74, 0
1, 43619, Note_on_c, 1, 72, 58
1, 43620, Note_on_c, 0, 82, 0
1, 43620, Note_on_c, 0, 80, 72
1, 43678, Note_on_c, 0, 80, 0
1, 43679, Note_on_c, 0, 79, 80
1, 43679, Note_on_c, 1, 71, 75
1, 43681, Note_on_c, 1, 72, 0
1, 43707, Note_on_c, 1, 71, 0
1, 43708, Note_on_c, 0, 79, 0
1, 43739, Note_on_c, 0, 87, 76
1, 43739, Note_on_c, 1, 72, 75
1, 43766, Note_on_c, 0, 87, 0
1, 43766, Note_on_c, 1, 72, 0
1, 43799, Note_on_c, 0, 77, 76
1, 43799, Note_on_c, 1, 69, 66
1, 43827, Note_on_c, 0, 77, 0
1, 43827, Note_on_c, 1, 69, 0
1, 43859, Note_on_c, 0, 86, 85
1, 43859, Note_on_c, 1, 70, 70
1, 43886, Note_on_c, 1, 70, 0
1, 43887, Note_on_c, 0, 86, 0
1, 43919, Note_on_c, 0, 75, 72
1, 43919, Note_on_c, 1, 67, 58
1, 43947, Note_on_c, 0, 75, 0
1, 43947, Note_on_c, 1, 67, 0
1, 43979, Note_on_c, 0, 84, 80
1, 43979, Note_on_c, 1, 69, 83
1, 44006, Note_on_c, 0, 84, 0
1, 44006, Note_on_c, 1, 69, 0
1, 44039, Note_on_c, 0, 74, 72
1, 44039, Note_on_c, 1, 66, 52
1, 44066, Note_on_c, 1, 66, 0
1, 44067, Note_on_c, 0, 74, 0
1, 44099, Note_on_c, 0, 82, 85
1, 44099, Note_on_c, 1, 67, 79
1, 44126, Note_on_c, 1, 67, 0
1, 44127, Note_on_c, 0, 82, 0
1, 44159, Note_on_c, 1, 70, 62
1, 44160, Note_on_c, 1, 67, 79
1, 44221, Note_on_c, 0, 82, 76
1, 44280, Note_on_c, 0, 82, 0
1, 44282, Note_on_c, 0, 79, 89
1, 44340, Note_on_c, 0, 79, 0
1, 44341, Note_on_c, 0, 76, 76
1, 44397, Note_on_c, 0, 76, 0
1, 44398, Note_on_c, 1, 67, 0
1, 44398, Note_on_c, 1, 70, 0
1, 44401, Note_on_c, 0, 77, 76
1, 44401, Note_on_c, 1, 69, 47
1, 44401, Note_on_c, 1, 65, 39
1, 44458, Note_on_c, 0, 77, 0
1, 44459, Note_on_c, 0, 81, 68
1, 44518, Note_on_c, 0, 81, 0
1, 44519, Note_on_c, 0, 84, 89
1, 44520, Note_on_c, 1, 65, 0
1, 44520, Note_on_c, 1, 69, 0
1, 44547, Note_on_c, 0, 84, 0
1, 44579, Note_on_c, 0, 84, 89
1, 44607, Note_on_c, 0, 84, 0
1, 44639, Note_on_c, 1, 70, 70
1, 44639, Note_on_c, 1, 67, 83
1, 44701, Note_on_c, 0, 84, 76
1, 44731, Note_on_c, 0, 82, 76
1, 44733, Note_on_c, 0, 84, 0
1, 44761, Note_on_c, 0, 82, 0
1, 44761, Note_on_c, 0, 81, 76
1, 44789, Note_on_c, 0, 79, 72
1, 44791, Note_on_c, 0, 81, 0
1, 44819, Note_on_c, 0, 79, 0
1, 44819, Note_on_c, 0, 77, 62
1, 44849, Note_on_c, 0, 76, 62
1, 44852, Note_on_c, 0, 77, 0
1, 44879, Note_on_c, 0, 76, 0
1, 44879, Note_on_c, 0, 77, 76
1, 44879, Note_on_c, 1, 70, 0
1, 44879, Note_on_c, 1, 69, 46
1, 44879, Note_on_c, 1, 65, 52
1, 44880, Note_on_c, 1, 67, 0
1, 44908, Note_on_c, 0, 77, 0
1, 44908, Note_on_c, 0, 72, 76
1, 44938, Note_on_c, 0, 77, 68
1, 44939, Note_on_c, 0, 72, 0
1, 44968, Note_on_c, 0, 81, 72
1, 44969, Note_on_c, 0, 77, 0
1, 44998, Note_on_c, 0, 84, 89
1, 44999, Note_on_c, 0, 81, 0
1, 45001, Note_on_c, 1, 65, 0
1, 45001, Note_on_c, 1, 69, 0
1, 45027, Note_on_c, 0, 84, 0
1, 45058, Note_on_c, 0, 84, 85
1, 45088, Note_on_c, 0, 84, 0
1, 45118, Note_on_c, 1, 70, 79
1, 45119, Note_on_c, 1, 67, 83
1, 45149, Note_on_c, 0, 81, 80
1, 45179, Note_on_c, 0, 81, 0
1, 45179, Note_on_c, 0, 84, 76
1, 45209, Note_on_c, 0, 82, 59
1, 45215, Note_on_c, 0, 84, 0
1, 45239, Note_on_c, 0, 81, 76
1, 45241, Note_on_c, 0, 82, 0
1, 45269, Note_on_c, 0, 81, 0
1, 45269, Note_on_c, 0, 79, 72
1, 45299, Note_on_c, 0, 79, 0
1, 45299, Note_on_c, 0, 77, 64
1, 45328, Note_on_c, 0, 76, 56
1, 45329, Note_on_c, 0, 77, 0
1, 45358, Note_on_c, 1, 69, 47
1, 45359, Note_on_c, 0, 76, 0
1, 45359, Note_on_c, 0, 77, 76
1, 45359, Note_on_c, 1, 67, 0
1, 45359, Note_on_c, 1, 65, 47
1, 45360, Note_on_c, 1, 70, 0
1, 45389, Note_on_c, 0, 78, 62
1, 45390, Note_on_c, 0, 77, 0
1, 45418, Note_on_c, 0, 78, 0
1, 45419, Note_on_c, 0, 81, 85
1, 45449, Note_on_c, 0, 79, 80
1, 45452, Note_on_c, 0, 81, 0
1, 45479, Note_on_c, 0, 77, 64
1, 45480, Note_on_c, 1, 65, 0
1, 45480, Note_on_c, 1, 69, 0
1, 45483, Note_on_c, 0, 79, 0
1, 45509, Note_on_c, 0, 75, 55
1, 45511, Note_on_c, 0, 77, 0
1, 45539, Note_on_c, 0, 74, 64
1, 45540, Note_on_c, 0, 75, 0
1, 45569, Note_on_c, 0, 74, 0
1, 45569, Note_on_c, 0, 73, 72
1, 45599, Note_on_c, 0, 73, 0
1, 45599, Note_on_c, 0, 74, 76
1, 45599, Note_on_c, 1, 58, 45
1, 45627, Note_on_c, 0, 74, 0
1, 45659, Note_on_c, 1, 65, 41
1, 45660, Note_on_c, 1, 58, 0
1, 45717, Note_on_c, 1, 65, 0
1, 45720, Note_on_c, 1, 60, 66
1, 45721, Note_on_c, 0, 75, 76
1, 45747, Note_on_c, 0, 75, 0
1, 45781, Note_on_c, 1, 65, 40
1, 45782, Note_on_c, 1, 60, 0
1, 45841, Note_on_c, 0, 76, 80
1, 45841, Note_on_c, 1, 62, 54
1, 45843, Note_on_c, 1, 65, 0
1, 45900, Note_on_c, 1, 62, 0
1, 45902, Note_on_c, 1, 65, 38
1, 45960, Note_on_c, 1, 65, 0
1, 45961, Note_on_c, 0, 77, 76
1, 45961, Note_on_c, 1, 58, 54
1, 45962, Note_on_c, 0, 76, 0
1, 46018, Note_on_c, 0, 77, 0
1, 46020, Note_on_c, 0, 74, 80
1, 46021, Note_on_c, 1, 58, 0
1, 46022, Note_on_c, 1, 65, 45
1, 46046, Note_on_c, 0, 74, 0
1, 46065, Note_on_c, 0, 74, 72
1, 46077, Note_on_c, 1, 65, 0
1, 46079, Note_on_c, 0, 72, 89
1, 46080, Note_on_c, 0, 74, 0
1, 46081, Note_on_c, 1, 57, 66
1, 46107, Note_on_c, 0, 72, 0
1, 46139, Note_on_c, 0, 71, 76
1, 46140, Note_on_c, 1, 57, 0
1, 46141, Note_on_c, 1, 65, 35
1, 46167, Note_on_c, 0, 71, 0
1, 46196, Note_on_c, 1, 65, 0
1, 46199, Note_on_c, 0, 72, 85
1, 46199, Note_on_c, 1, 58, 50
1, 46226, Note_on_c, 0, 72, 0
1, 46257, Note_on_c, 1, 58, 0
1, 46259, Note_on_c, 0, 74, 80
1, 46259, Note_on_c, 1, 65, 50
1, 46286, Note_on_c, 0, 74, 0
1, 46317, Note_on_c, 1, 65, 0
1, 46319, Note_on_c, 0, 77, 85
1, 46319, Note_on_c, 1, 60, 66
1, 46377, Note_on_c, 1, 60, 0
1, 46379, Note_on_c, 1, 65, 42
1, 46437, Note_on_c, 1, 65, 0
1, 46438, Note_on_c, 1, 63, 58
1, 46439, Note_on_c, 0, 75, 62
1, 46440, Note_on_c, 0, 77, 0
1, 46495, Note_on_c, 1, 63, 0
1, 46498, Note_on_c, 0, 75, 0
1, 46498, Note_on_c, 1, 65, 46
1, 46499, Note_on_c, 0, 69, 80
1, 46526, Note_on_c, 0, 69, 0
1, 46556, Note_on_c, 1, 65, 0
1, 46558, Note_on_c, 1, 62, 66
1, 46559, Note_on_c, 0, 70, 89
1, 46586, Note_on_c, 0, 70, 0
1, 46616, Note_on_c, 1, 62, 0
1, 46619, Note_on_c, 1, 65, 31
1, 46620, Note_on_c, 0, 70, 89
1, 46677, Note_on_c, 1, 65, 0
1, 46678, Note_on_c, 1, 62, 58
1, 46735, Note_on_c, 1, 62, 0
1, 46738, Note_on_c, 0, 70, 0
1, 46739, Note_on_c, 1, 65, 41
1, 46740, Note_on_c, 0, 71, 76
1, 46797, Note_on_c, 1, 65, 0
1, 46798, Note_on_c, 0, 71, 0
1, 46798, Note_on_c, 1, 57, 75
1, 46799, Note_on_c, 0, 72, 89
1, 46826, Note_on_c, 0, 72, 0
1, 46856, Note_on_c, 1, 57, 0
1, 46858, Note_on_c, 1, 65, 40
1, 46859, Note_on_c, 0, 72, 89
1, 46917, Note_on_c, 1, 65, 0
1, 46919, Note_on_c, 1, 57, 66
1, 46975, Note_on_c, 1, 57, 0
1, 46978, Note_on_c, 0, 72, 0
1, 46978, Note_on_c, 0, 73, 85
1, 46978, Note_on_c, 1, 65, 49
1, 47007, Note_on_c, 1, 65, 0
1, 47038, Note_on_c, 1, 58, 62
1, 47039, Note_on_c, 0, 74, 85
1, 47040, Note_on_c, 0, 73, 0
1, 47097, Note_on_c, 0, 74, 0
1, 47098, Note_on_c, 1, 57, 52
1, 47099, Note_on_c, 0, 72, 72
1, 47101, Note_on_c, 1, 58, 0
1, 47158, Note_on_c, 0, 72, 0
1, 47159, Note_on_c, 0, 74, 89
1, 47159, Note_on_c, 1, 58, 58
1, 47160, Note_on_c, 1, 57, 0
1, 47219, Note_on_c, 0, 75, 64
1, 47219, Note_on_c, 0, 72, 72
1, 47219, Note_on_c, 1, 51, 54
1, 47220, Note_on_c, 0, 74, 0
1, 47220, Note_on_c, 1, 58, 0
1, 47252, Note_on_c, 0, 75, 0
1, 47254, Note_on_c, 0, 72, 0
1, 47277, Note_on_c, 1, 51, 0
1, 47279, Note_on_c, 0, 70, 64
1, 47279, Note_on_c, 0, 74, 62
1, 47279, Note_on_c, 1, 53, 49
1, 47366, Note_on_c, 0, 70, 0
1, 47368, Note_on_c, 0, 74, 0
1, 47398, Note_on_c, 1, 53, 0
1, 47400, Note_on_c, 0, 72, 64
1, 47400, Note_on_c, 0, 69, 62
1, 47457, Note_on_c, 0, 69, 0
1, 47459, Note_on_c, 0, 72, 0
1, 47459, Note_on_c, 0, 70, 62
1, 47489, Note_on_c, 0, 70, 0
1, 47489, Note_on_c, 0, 72, 76
1, 47519, Note_on_c, 0, 72, 0
1, 47519, Note_on_c, 0, 74, 76
1, 47519, Note_on_c, 1, 58, 66
1, 47577, Note_on_c, 0, 74, 0
1, 47579, Note_on_c, 1, 65, 45
1, 47580, Note_on_c, 1, 58, 0
1, 47616, Note_on_c, 1, 65, 0
1, 47638, Note_on_c, 0, 75, 76
1, 47639, Note_on_c, 1, 60, 75
1, 47697, Note_on_c, 0, 75, 0
1, 47699, Note_on_c, 1, 60, 0
1, 47699, Note_on_c, 1, 65, 32
1, 47757, Note_on_c, 1, 65, 0
1, 47758, Note_on_c, 1, 62, 62
1, 47759, Note_on_c, 0, 76, 85
1, 47817, Note_on_c, 1, 62, 0
1, 47820, Note_on_c, 1, 65, 41
1, 47877, Note_on_c, 1, 65, 0
1, 47879, Note_on_c, 0, 77, 76
1, 47879, Note_on_c, 1, 58, 58
1, 47881, Note_on_c, 0, 76, 0
1, 47937, Note_on_c, 1, 58, 0
1, 47940, Note_on_c, 0, 74, 85
1, 47941, Note_on_c, 1, 65, 46
1, 47942, Note_on_c, 0, 77, 0
1, 47965, Note_on_c, 0, 74, 0
1, 47985, Note_on_c, 0, 74, 72
1, 47997, Note_on_c, 1, 65, 0
1, 47999, Note_on_c, 1, 57, 75
1, 48000, Note_on_c, 0, 74, 0
1, 48002, Note_on_c, 0, 72, 76
1, 48057, Note_on_c, 1, 57, 0
1, 48058, Note_on_c, 0, 72, 0
1, 48059, Note_on_c, 1, 65, 49
1, 48061, Note_on_c, 0, 71, 85
1, 48089, Note_on_c, 0, 71, 0
1, 48117, Note_on_c, 1, 65, 0
1, 48119, Note_on_c, 1, 58, 58
1, 48120, Note_on_c, 0, 72, 62
1, 48146, Note_on_c, 0, 72, 0
1, 48177, Note_on_c, 1, 58, 0
1, 48178, Note_on_c, 1, 65, 46
1, 48180, Note_on_c, 0, 74, 80
1, 48206, Note_on_c, 0, 74, 0
1, 48237, Note_on_c, 1, 65, 0
1, 48238, Note_on_c, 1, 60, 62
1, 48239, Note_on_c, 0, 77, 85
1, 48297, Note_on_c, 1, 60, 0
1, 48298, Note_on_c, 1, 65, 52
1, 48358, Note_on_c, 0, 77, 0
1, 48358, Note_on_c, 1, 63, 62
1, 48359, Note_on_c, 0, 75, 64
1, 48359, Note_on_c, 1, 65, 0
1, 48417, Note_on_c, 1, 63, 0
1, 48418, Note_on_c, 0, 75, 0
1, 48418, Note_on_c, 1, 65, 47
1, 48419, Note_on_c, 0, 69, 72
1, 48477, Note_on_c, 1, 65, 0
1, 48478, Note_on_c, 0, 69, 0
1, 48479, Note_on_c, 0, 70, 76
1, 48479, Note_on_c, 1, 62, 75
1, 48535, Note_on_c, 0, 70, 0
1, 48539, Note_on_c, 0, 82, 76
1, 48572, Note_on_c, 0, 82, 0
1, 48596, Note_on_c, 1, 62, 0
1, 48600, Note_on_c, 0, 82, 85
1, 48627, Note_on_c, 0, 82, 0
1, 48660, Note_on_c, 0, 82, 80
1, 48688, Note_on_c, 0, 82, 0
1, 48719, Note_on_c, 1, 67, 66
1, 48719, Note_on_c, 1, 63, 62
1, 48721, Note_on_c, 0, 72, 80
1, 48780, Note_on_c, 0, 72, 0
1, 48780, Note_on_c, 0, 79, 76
1, 48836, Note_on_c, 0, 79, 0
1, 48840, Note_on_c, 0, 79, 85
1, 48840, Note_on_c, 1, 63, 0
1, 48840, Note_on_c, 1, 67, 0
1, 48866, Note_on_c, 0, 79, 0
1, 48901, Note_on_c, 0, 79, 85
1, 48926, Note_on_c, 0, 79, 0
1, 48959, Note_on_c, 0, 70, 76
1, 48960, Note_on_c, 1, 53, 66
1, 48961, Note_on_c, 1, 62, 83
1, 49016, Note_on_c, 0, 70, 0
1, 49019, Note_on_c, 0, 70, 72
1, 49078, Note_on_c, 0, 70, 0
1, 49079, Note_on_c, 0, 74, 80
1, 49081, Note_on_c, 1, 63, 62
1, 49084, Note_on_c, 1, 62, 0
1, 49094, Note_on_c, 0, 74, 0
1, 49095, Note_on_c, 0, 72, 56
1, 49110, Note_on_c, 0, 72, 0
1, 49111, Note_on_c, 0, 70, 68
1, 49138, Note_on_c, 0, 70, 0
1, 49138, Note_on_c, 0, 72, 68
1, 49169, Note_on_c, 0, 74, 72
1, 49171, Note_on_c, 0, 72, 0
1, 49198, Note_on_c, 1, 63, 0
1, 49199, Note_on_c, 0, 70, 76
1, 49199, Note_on_c, 1, 53, 0
1, 49199, Note_on_c, 1, 58, 52
1, 49199, Note_on_c, 1, 62, 79
1, 49201, Note_on_c, 0, 74, 0
1, 49315, Note_on_c, 0, 70, 0
1, 49322, Note_on_c, 1, 62, 0
1, 49324, Note_on_c, 1, 58, 0
1, 49380, Note_on_c, 0, 70, 85
1, 49436, Note_on_c, 0, 70, 0
1, 49439, Note_on_c, 0, 82, 89
1, 49439, Note_on_c, 0, 79, 93
1, 49441, Note_on_c, 1, 46, 58
1, 49465, Note_on_c, 0, 79, 0
1, 49466, Note_on_c, 0, 82, 0
1, 49495, Note_on_c, 1, 46, 0
1, 49499, Note_on_c, 1, 58, 42
1, 49501, Note_on_c, 0, 79, 89
1, 49501, Note_on_c, 0, 82, 76
1, 49529, Note_on_c, 1, 58, 0
1, 49559, Note_on_c, 1, 58, 50
1, 49565, Note_on_c, 0, 82, 0
1, 49566, Note_on_c, 0, 79, 0
1, 49588, Note_on_c, 1, 58, 0
1, 49619, Note_on_c, 0, 75, 64
1, 49619, Note_on_c, 0, 79, 80
1, 49619, Note_on_c, 1, 58, 54
1, 49649, Note_on_c, 1, 58, 0
1, 49677, Note_on_c, 0, 75, 0
1, 49678, Note_on_c, 0, 79, 0
1, 49679, Note_on_c, 0, 74, 72
1, 49679, Note_on_c, 0, 77, 76
1, 49679, Note_on_c, 1, 46, 58
1, 49706, Note_on_c, 0, 77, 0
1, 49707, Note_on_c, 0, 74, 0
1, 49715, Note_on_c, 1, 46, 0
1, 49739, Note_on_c, 0, 77, 80
1, 49739, Note_on_c, 0, 74, 76
1, 49739, Note_on_c, 1, 58, 54
1, 49768, Note_on_c, 1, 58, 0
1, 49799, Note_on_c, 1, 58, 52
1, 49804, Note_on_c, 0, 77, 0
1, 49805, Note_on_c, 0, 74, 0
1, 49828, Note_on_c, 1, 58, 0
1, 49859, Note_on_c, 0, 70, 64
1, 49859, Note_on_c, 0, 74, 80
1, 49859, Note_on_c, 1, 58, 52
1, 49885, Note_on_c, 1, 58, 0
1, 49915, Note_on_c, 0, 74, 0
1, 49915, Note_on_c, 0, 70, 0
1, 49919, Note_on_c, 0, 72, 89
1, 49919, Note_on_c, 0, 69, 76
1, 49919, Note_on_c, 1, 41, 54
1, 49947, Note_on_c, 0, 69, 0
1, 49947, Note_on_c, 0, 72, 0
1, 49977, Note_on_c, 1, 41, 0
1, 49979, Note_on_c, 0, 69, 76
1, 49979, Note_on_c, 1, 53, 50
1, 49980, Note_on_c, 0, 72, 80
1, 50008, Note_on_c, 1, 53, 0
1, 50009, Note_on_c, 0, 72, 0
1, 50039, Note_on_c, 1, 53, 54
1, 50068, Note_on_c, 1, 53, 0
1, 50076, Note_on_c, 0, 69, 0
1, 50098, Note_on_c, 1, 53, 62
1, 50099, Note_on_c, 0, 75, 80
1, 50100, Note_on_c, 0, 72, 76
1, 50128, Note_on_c, 1, 53, 0
1, 50156, Note_on_c, 0, 72, 0
1, 50156, Note_on_c, 0, 75, 0
1, 50159, Note_on_c, 0, 73, 72
1, 50159, Note_on_c, 0, 69, 68
1, 50159, Note_on_c, 1, 46, 62
1, 50216, Note_on_c, 0, 69, 0
1, 50216, Note_on_c, 0, 73, 0
1, 50217, Note_on_c, 1, 46, 0
1, 50218, Note_on_c, 0, 74, 76
1, 50218, Note_on_c, 1, 58, 50
1, 50219, Note_on_c, 0, 70, 76
1, 50247, Note_on_c, 0, 70, 0
1, 50248, Note_on_c, 0, 74, 0
1, 50248, Note_on_c, 1, 58, 0
1, 50278, Note_on_c, 1, 58, 50
1, 50279, Note_on_c, 0, 70, 64
1, 50279, Note_on_c, 0, 74, 76
1, 50308, Note_on_c, 1, 58, 0
1, 50312, Note_on_c, 0, 74, 0
1, 50312, Note_on_c, 0, 70, 0
1, 50338, Note_on_c, 1, 58, 52
1, 50339, Note_on_c, 0, 70, 85
1, 50368, Note_on_c, 1, 58, 0
1, 50397, Note_on_c, 0, 70, 0
1, 50398, Note_on_c, 1, 46, 52
1, 50399, Note_on_c, 0, 82, 89
1, 50399, Note_on_c, 0, 79, 89
1, 50426, Note_on_c, 0, 79, 0
1, 50427, Note_on_c, 0, 82, 0
1, 50458, Note_on_c, 1, 58, 52
1, 50459, Note_on_c, 0, 79, 89
1, 50459, Note_on_c, 0, 82, 72
1, 50459, Note_on_c, 1, 46, 0
1, 50488, Note_on_c, 1, 58, 0
1, 50518, Note_on_c, 1, 58, 58
1, 50522, Note_on_c, 0, 79, 0
1, 50523, Note_on_c, 0, 82, 0
1, 50548, Note_on_c, 1, 58, 0
1, 50578, Note_on_c, 1, 58, 52
1, 50580, Note_on_c, 0, 75, 62
1, 50580, Note_on_c, 0, 79, 76
1, 50607, Note_on_c, 1, 58, 0
1, 50637, Note_on_c, 0, 75, 0
1, 50638, Note_on_c, 0, 79, 0
1, 50638, Note_on_c, 1, 46, 70
1, 50639, Note_on_c, 0, 74, 62
1, 50639, Note_on_c, 0, 77, 76
1, 50666, Note_on_c, 0, 74, 0
1, 50667, Note_on_c, 0, 77, 0
1, 50673, Note_on_c, 1, 46, 0
1, 50698, Note_on_c, 1, 58, 50
1, 50699, Note_on_c, 0, 74, 72
1, 50699, Note_on_c, 0, 77, 72
1, 50728, Note_on_c, 1, 58, 0
1, 50758, Note_on_c, 1, 58, 54
1, 50763, Note_on_c, 0, 74, 0
1, 50765, Note_on_c, 0, 77, 0
1, 50787, Note_on_c, 1, 58, 0
1, 50818, Note_on_c, 1, 58, 50
1, 50819, Note_on_c, 0, 74, 80
1, 50819, Note_on_c, 0, 70, 68
1, 50845, Note_on_c, 1, 58, 0
1, 50847, Note_on_c, 0, 70, 0
1, 50847, Note_on_c, 0, 74, 0
1, 50878, Note_on_c, 1, 41, 54
1, 50879, Note_on_c, 0, 72, 80
1, 50879, Note_on_c, 0, 69, 68
1, 50907, Note_on_c, 0, 69, 0
1, 50908, Note_on_c, 0, 72, 0
1, 50917, Note_on_c, 1, 41, 0
1, 50938, Note_on_c, 1, 53, 52
1, 50939, Note_on_c, 0, 69, 72
1, 50939, Note_on_c, 0, 72, 76
1, 50967, Note_on_c, 1, 53, 0
1, 50998, Note_on_c, 1, 53, 66
1, 51005, Note_on_c, 0, 69, 0
1, 51006, Note_on_c, 0, 72, 0
1, 51027, Note_on_c, 1, 53, 0
1, 51057, Note_on_c, 1, 53, 58
1, 51059, Note_on_c, 0, 72, 72
1, 51059, Note_on_c, 0, 75, 64
1, 51088, Note_on_c, 0, 75, 0
1, 51088, Note_on_c, 0, 72, 0
1, 51088, Note_on_c, 1, 53, 0
1, 51118, Note_on_c, 1, 46, 62
1, 51119, Note_on_c, 0, 73, 76
1, 51119, Note_on_c, 0, 69, 64
1, 51176, Note_on_c, 1, 46, 0
1, 51178, Note_on_c, 0, 69, 0
1, 51178, Note_on_c, 0, 73, 0
1, 51178, Note_on_c, 1, 58, 49
1, 51179, Note_on_c, 0, 74, 64
1, 51179, Note_on_c, 0, 70, 62
1, 51208, Note_on_c, 1, 58, 0
1, 51235, Note_on_c, 0, 70, 0
1, 51235, Note_on_c, 0, 74, 0
1, 51238, Note_on_c, 1, 58, 62
1, 51239, Note_on_c, 0, 70, 62
1, 51240, Note_on_c, 0, 74, 76
1, 51266, Note_on_c, 1, 58, 0
1, 51273, Note_on_c, 0, 74, 0
1, 51274, Note_on_c, 0, 70, 0
1, 51301, Note_on_c, 0, 70, 80
1, 51361, Note_on_c, 0, 82, 80
1, 51362, Note_on_c, 0, 70, 0
1, 51414, Note_on_c, 0, 82, 0
1, 51421, Note_on_c, 0, 82, 68
1, 51450, Note_on_c, 0, 82, 0
1, 51479, Note_on_c, 1, 55, 66
1, 51482, Note_on_c, 0, 82, 64
1, 51510, Note_on_c, 0, 82, 0
1, 51541, Note_on_c, 0, 82, 76
1, 51569, Note_on_c, 0, 82, 0
1, 51599, Note_on_c, 0, 76, 89
1, 51630, Note_on_c, 0, 76, 0
1, 51658, Note_on_c, 1, 57, 75
1, 51660, Note_on_c, 1, 55, 0
1, 51661, Note_on_c, 0, 76, 80
1, 51687, Note_on_c, 1, 58, 50
1, 51688, Note_on_c, 0, 76, 0
1, 51689, Note_on_c, 1, 57, 0
1, 51718, Note_on_c, 1, 60, 70
1, 51719, Note_on_c, 0, 76, 80
1, 51719, Note_on_c, 1, 58, 0
1, 51749, Note_on_c, 0, 76, 0
1, 51778, Note_on_c, 1, 58, 66
1, 51779, Note_on_c, 0, 76, 80
1, 51779, Note_on_c, 1, 60, 0
1, 51809, Note_on_c, 0, 76, 0
1, 51839, Note_on_c, 0, 84, 93
1, 51869, Note_on_c, 0, 84, 0
1, 51899, Note_on_c, 0, 84, 80
1, 51899, Note_on_c, 1, 57, 66
1, 51901, Note_on_c, 1, 58, 0
1, 51928, Note_on_c, 0, 84, 0
1, 51959, Note_on_c, 0, 84, 89
1, 51988, Note_on_c, 0, 84, 0
1, 51988, Note_on_c, 1, 57, 0
1, 52018, Note_on_c, 1, 41, 66
1, 52019, Note_on_c, 0, 84, 85
1, 52049, Note_on_c, 0, 84, 0
1, 52079, Note_on_c, 0, 75, 93
1, 52079, Note_on_c, 1, 42, 66
1, 52080, Note_on_c, 1, 41, 0
1, 52109, Note_on_c, 0, 75, 0
1, 52137, Note_on_c, 1, 42, 0
1, 52138, Note_on_c, 1, 43, 58
1, 52139, Note_on_c, 0, 75, 89
1, 52169, Note_on_c, 0, 75, 0
1, 52199, Note_on_c, 0, 75, 89
1, 52199, Note_on_c, 1, 44, 66
1, 52201, Note_on_c, 1, 43, 0
1, 52229, Note_on_c, 0, 75, 0
1, 52258, Note_on_c, 0, 75, 89
1, 52258, Note_on_c, 1, 44, 0
1, 52258, Note_on_c, 1, 45, 62
1, 52287, Note_on_c, 0, 75, 0
1, 52317, Note_on_c, 1, 45, 0
1, 52318, Note_on_c, 1, 46, 66
1, 52319, Note_on_c, 0, 74, 93
1, 52349, Note_on_c, 0, 74, 0
1, 52356, Note_on_c, 1, 46, 0
1, 52378, Note_on_c, 1, 58, 75
1, 52379, Note_on_c, 0, 82, 89
1, 52406, Note_on_c, 1, 58, 0
1, 52409, Note_on_c, 0, 82, 0
1, 52438, Note_on_c, 0, 81, 93
1, 52438, Note_on_c, 1, 60, 75
1, 52467, Note_on_c, 1, 60, 0
1, 52468, Note_on_c, 0, 81, 0
1, 52498, Note_on_c, 1, 62, 83
1, 52499, Note_on_c, 0, 80, 93
1, 52526, Note_on_c, 1, 62, 0
1, 52527, Note_on_c, 0, 80, 0
1, 52558, Note_on_c, 1, 63, 79
1, 52559, Note_on_c, 0, 79, 85
1, 52586, Note_on_c, 1, 63, 0
1, 52588, Note_on_c, 0, 79, 0
1, 52618, Note_on_c, 1, 64, 75
1, 52619, Note_on_c, 0, 78, 72
1, 52646, Note_on_c, 1, 64, 0
1, 52647, Note_on_c, 0, 78, 0
1, 52678, Note_on_c, 0, 77, 80
1, 52679, Note_on_c, 1, 65, 75
1, 52707, Note_on_c, 0, 77, 0
1, 52708, Note_on_c, 1, 65, 0
1, 52738, Note_on_c, 0, 76, 85
1, 52738, Note_on_c, 1, 66, 70
1, 52767, Note_on_c, 1, 66, 0
1, 52768, Note_on_c, 0, 76, 0
1, 52798, Note_on_c, 1, 65, 83
1, 52799, Note_on_c, 0, 77, 85
1, 52859, Note_on_c, 0, 77, 0
1, 52859, Note_on_c, 0, 74, 76
1, 52889, Note_on_c, 0, 74, 0
1, 52897, Note_on_c, 1, 65, 0
1, 52919, Note_on_c, 0, 69, 85
1, 52919, Note_on_c, 0, 72, 89
1, 52919, Note_on_c, 1, 65, 79
1, 52980, Note_on_c, 0, 72, 0
1, 52980, Note_on_c, 0, 77, 80
1, 53036, Note_on_c, 0, 77, 0
1, 53036, Note_on_c, 0, 69, 0
1, 53041, Note_on_c, 0, 72, 76
1, 53041, Note_on_c, 0, 75, 68
1, 53041, Note_on_c, 1, 66, 62
1, 53042, Note_on_c, 1, 65, 0
1, 53158, Note_on_c, 0, 72, 0
1, 53159, Note_on_c, 0, 75, 0
1, 53161, Note_on_c, 0, 70, 64
1, 53161, Note_on_c, 0, 74, 76
1, 53162, Note_on_c, 1, 67, 70
1, 53163, Note_on_c, 1, 66, 0
1, 53217, Note_on_c, 1, 67, 0
1, 53222, Note_on_c, 1, 43, 79
1, 53247, Note_on_c, 1, 43, 0
1, 53252, Note_on_c, 0, 74, 0
1, 53252, Note_on_c, 0, 70, 0
1, 53281, Note_on_c, 1, 58, 58
1, 53308, Note_on_c, 1, 58, 0
1, 53339, Note_on_c, 0, 78, 85
1, 53341, Note_on_c, 1, 58, 62
1, 53367, Note_on_c, 1, 58, 0
1, 53397, Note_on_c, 0, 78, 0
1, 53399, Note_on_c, 0, 79, 93
1, 53400, Note_on_c, 1, 58, 75
1, 53427, Note_on_c, 1, 58, 0
1, 53458, Note_on_c, 0, 79, 0
1, 53459, Note_on_c, 0, 82, 80
1, 53459, Note_on_c, 1, 58, 70
1, 53487, Note_on_c, 1, 58, 0
1, 53518, Note_on_c, 0, 82, 0
1, 53519, Note_on_c, 0, 85, 93
1, 53519, Note_on_c, 1, 52, 70
1, 53547, Note_on_c, 1, 52, 0
1, 53578, Note_on_c, 1, 52, 66
1, 53607, Note_on_c, 1, 52, 0
1, 53612, Note_on_c, 0, 87, 72
1, 53613, Note_on_c, 0, 85, 0
1, 53625, Note_on_c, 0, 85, 76
1, 53627, Note_on_c, 0, 87, 0
1, 53638, Note_on_c, 1, 52, 62
1, 53640, Note_on_c, 0, 85, 0
1, 53643, Note_on_c, 0, 84, 80
1, 53666, Note_on_c, 1, 52, 0
1, 53698, Note_on_c, 1, 52, 75
1, 53701, Note_on_c, 0, 84, 0
1, 53702, Note_on_c, 0, 82, 76
1, 53726, Note_on_c, 1, 52, 0
1, 53758, Note_on_c, 0, 82, 0
1, 53758, Note_on_c, 1, 54, 62
1, 53762, Note_on_c, 0, 81, 89
1, 53787, Note_on_c, 1, 54, 0
1, 53792, Note_on_c, 0, 81, 0
1, 53818, Note_on_c, 1, 54, 66
1, 53823, Note_on_c, 0, 69, 80
1, 53847, Note_on_c, 1, 54, 0
1, 53877, Note_on_c, 0, 69, 0
1, 53879, Note_on_c, 0, 72, 89
1, 53881, Note_on_c, 1, 54, 66
1, 53907, Note_on_c, 1, 54, 0
1, 53939, Note_on_c, 1, 54, 70
1, 53940, Note_on_c, 0, 75, 76
1, 53942, Note_on_c, 0, 72, 0
1, 53966, Note_on_c, 1, 54, 0
1, 53998, Note_on_c, 0, 75, 0
1, 53999, Note_on_c, 0, 78, 80
1, 54000, Note_on_c, 1, 44, 75
1, 54027, Note_on_c, 1, 44, 0
1, 54031, Note_on_c, 0, 78, 0
1, 54061, Note_on_c, 1, 44, 83
1, 54087, Note_on_c, 1, 44, 0
1, 54090, Note_on_c, 0, 80, 68
1, 54105, Note_on_c, 0, 80, 0
1, 54105, Note_on_c, 0, 78, 64
1, 54119, Note_on_c, 1, 45, 83
1, 54120, Note_on_c, 0, 78, 0
1, 54121, Note_on_c, 0, 77, 68
1, 54147, Note_on_c, 1, 45, 0
1, 54177, Note_on_c, 0, 77, 0
1, 54178, Note_on_c, 0, 75, 76
1, 54179, Note_on_c, 1, 45, 70
1, 54207, Note_on_c, 1, 45, 0
1, 54237, Note_on_c, 0, 75, 0
1, 54238, Note_on_c, 0, 74, 89
1, 54239, Note_on_c, 1, 46, 79
1, 54267, Note_on_c, 0, 74, 0
1, 54267, Note_on_c, 1, 46, 0
1, 54298, Note_on_c, 0, 70, 76
1, 54298, Note_on_c, 1, 58, 79
1, 54326, Note_on_c, 0, 70, 0
1, 54326, Note_on_c, 1, 58, 0
1, 54358, Note_on_c, 0, 72, 89
1, 54358, Note_on_c, 1, 57, 79
1, 54386, Note_on_c, 1, 57, 0
1, 54387, Note_on_c, 0, 72, 0
1, 54418, Note_on_c, 1, 56, 79
1, 54419, Note_on_c, 0, 74, 89
1, 54446, Note_on_c, 1, 56, 0
1, 54447, Note_on_c, 0, 74, 0
1, 54478, Note_on_c, 1, 55, 83
1, 54479, Note_on_c, 0, 75, 89
1, 54506, Note_on_c, 0, 75, 0
1, 54506, Note_on_c, 1, 55, 0
1, 54538, Note_on_c, 1, 54, 83
1, 54539, Note_on_c, 0, 76, 89
1, 54566, Note_on_c, 1, 54, 0
1, 54567, Note_on_c, 0, 76, 0
1, 54598, Note_on_c, 1, 53, 79
1, 54599, Note_on_c, 0, 77, 89
1, 54626, Note_on_c, 1, 53, 0
1, 54627, Note_on_c, 0, 77, 0
1, 54658, Note_on_c, 1, 50, 83
1, 54659, Note_on_c, 0, 78, 76
1, 54686, Note_on_c, 1, 50, 0
1, 54687, Note_on_c, 0, 78, 0
1, 54719, Note_on_c, 0, 79, 89
1, 54719, Note_on_c, 1, 51, 88
1, 54756, Note_on_c, 1, 51, 0
1, 54775, Note_on_c, 0, 79, 0
1, 54840, Note_on_c, 1, 40, 83
1, 54840, Note_on_c, 1, 52, 88
1, 54841, Note_on_c, 0, 79, 102
1, 54841, Note_on_c, 0, 82, 93
1, 54841, Note_on_c, 0, 73, 89
1, 54895, Note_on_c, 1, 52, 0
1, 54896, Note_on_c, 1, 40, 0
1, 54899, Note_on_c, 0, 73, 0
1, 54903, Note_on_c, 0, 82, 0
1, 54903, Note_on_c, 0, 79, 0
1, 55018, Note_on_c, 0, 79, 93
1, 55079, Note_on_c, 0, 81, 93
1, 55080, Note_on_c, 0, 79, 0
1, 55137, Note_on_c, 0, 81, 0
1, 55138, Note_on_c, 0, 82, 105
1, 55176, Note_on_c, 0, 82, 0
1, 55197, Note_on_c, 1, 53, 70
1, 55198, Note_on_c, 0, 82, 105
1, 55228, Note_on_c, 0, 84, 89
1, 55229, Note_on_c, 0, 82, 0
1, 55258, Note_on_c, 0, 86, 72
1, 55258, Note_on_c, 1, 62, 47
1, 55259, Note_on_c, 1, 53, 0
1, 55261, Note_on_c, 0, 84, 0
1, 55288, Note_on_c, 0, 87, 62
1, 55289, Note_on_c, 0, 86, 0
1, 55317, Note_on_c, 1, 62, 0
1, 55317, Note_on_c, 1, 58, 62
1, 55318, Note_on_c, 0, 89, 85
1, 55319, Note_on_c, 0, 87, 0
1, 55348, Note_on_c, 0, 87, 72
1, 55351, Note_on_c, 0, 89, 0
1, 55376, Note_on_c, 1, 58, 0
1, 55378, Note_on_c, 0, 86, 85
1, 55378, Note_on_c, 1, 62, 50
1, 55379, Note_on_c, 0, 87, 0
1, 55408, Note_on_c, 0, 84, 68
1, 55409, Note_on_c, 0, 86, 0
1, 55417, Note_on_c, 1, 62, 0
1, 55437, Note_on_c, 1, 53, 66
1, 55438, Note_on_c, 0, 82, 72
1, 55439, Note_on_c, 0, 84, 0
1, 55468, Note_on_c, 0, 82, 0
1, 55468, Note_on_c, 0, 81, 57
1, 55497, Note_on_c, 1, 62, 62
1, 55498, Note_on_c, 0, 79, 60
1, 55499, Note_on_c, 0, 81, 0
1, 55501, Note_on_c, 1, 53, 0
1, 55528, Note_on_c, 0, 79, 0
1, 55529, Note_on_c, 0, 77, 85
1, 55536, Note_on_c, 1, 62, 0
1, 55557, Note_on_c, 1, 58, 54
1, 55558, Note_on_c, 0, 75, 68
1, 55561, Note_on_c, 0, 77, 0
1, 55589, Note_on_c, 0, 74, 64
1, 55591, Note_on_c, 0, 75, 0
1, 55616, Note_on_c, 1, 58, 0
1, 55617, Note_on_c, 1, 62, 70
1, 55619, Note_on_c, 0, 72, 76
1, 55621, Note_on_c, 0, 74, 0
1, 55648, Note_on_c, 0, 72, 0
1, 55649, Note_on_c, 0, 70, 55
1, 55649, Note_on_c, 1, 62, 0
1, 55677, Note_on_c, 1, 53, 75
1, 55678, Note_on_c, 0, 70, 0
1, 55681, Note_on_c, 0, 74, 76
1, 55694, Note_on_c, 0, 74, 0
1, 55696, Note_on_c, 0, 72, 68
1, 55711, Note_on_c, 0, 72, 0
1, 55711, Note_on_c, 0, 74, 64
1, 55725, Note_on_c, 0, 74, 0
1, 55726, Note_on_c, 0, 72, 68
1, 55728, Note_on_c, 1, 53, 0
1, 55737, Note_on_c, 1, 63, 62
1, 55740, Note_on_c, 0, 72, 0
1, 55741, Note_on_c, 0, 74, 72
1, 55755, Note_on_c, 0, 72, 72
1, 55756, Note_on_c, 0, 74, 0
1, 55769, Note_on_c, 0, 72, 0
1, 55770, Note_on_c, 0, 74, 60
1, 55778, Note_on_c, 1, 63, 0
1, 55784, Note_on_c, 0, 74, 0
1, 55784, Note_on_c, 0, 72, 62
1, 55797, Note_on_c, 1, 57, 83
1, 55799, Note_on_c, 0, 72, 0
1, 55799, Note_on_c, 0, 74, 76
1, 55814, Note_on_c, 0, 74, 0
1, 55814, Note_on_c, 0, 72, 76
1, 55829, Note_on_c, 0, 72, 0
1, 55829, Note_on_c, 0, 74, 64
1, 55844, Note_on_c, 0, 74, 0
1, 55844, Note_on_c, 0, 72, 64
1, 55856, Note_on_c, 1, 57, 0
1, 55857, Note_on_c, 1, 63, 58
1, 55859, Note_on_c, 0, 72, 0
1, 55859, Note_on_c, 0, 74, 64
1, 55873, Note_on_c, 0, 72, 60
1, 55874, Note_on_c, 0, 74, 0
1, 55889, Note_on_c, 0, 72, 0
1, 55890, Note_on_c, 0, 74, 59
1, 55892, Note_on_c, 1, 63, 0
1, 55905, Note_on_c, 0, 72, 64
1, 55906, Note_on_c, 0, 74, 0
1, 55917, Note_on_c, 1, 53, 83
1, 55918, Note_on_c, 0, 74, 72
1, 55920, Note_on_c, 0, 72, 0
1, 55934, Note_on_c, 0, 74, 0
1, 55935, Note_on_c, 0, 72, 62
1, 55950, Note_on_c, 0, 74, 72
1, 55959, Note_on_c, 0, 72, 0
1, 55965, Note_on_c, 0, 72, 68
1, 55966, Note_on_c, 0, 74, 0
1, 55977, Note_on_c, 1, 53, 0
1, 55977, Note_on_c, 1, 63, 52
1, 55980, Note_on_c, 0, 72, 0
1, 55980, Note_on_c, 0, 74, 62
1, 55995, Note_on_c, 0, 74, 0
1, 55995, Note_on_c, 0, 72, 68
1, 56009, Note_on_c, 0, 72, 0
1, 56010, Note_on_c, 0, 74, 64
1, 56017, Note_on_c, 1, 63, 0
1, 56025, Note_on_c, 0, 72, 68
1, 56026, Note_on_c, 0, 74, 0
1, 56037, Note_on_c, 1, 57, 79
1, 56038, Note_on_c, 0, 74, 72
1, 56040, Note_on_c, 0, 72, 0
1, 56053, Note_on_c, 0, 72, 59
1, 56054, Note_on_c, 0, 74, 0
1, 56068, Note_on_c, 0, 74, 64
1, 56069, Note_on_c, 0, 72, 0
1, 56078, Note_on_c, 1, 57, 0
1, 56083, Note_on_c, 0, 72, 68
1, 56084, Note_on_c, 0, 74, 0
1, 56097, Note_on_c, 1, 63, 54
1, 56099, Note_on_c, 0, 72, 0
1, 56099, Note_on_c, 0, 74, 60
1, 56113, Note_on_c, 0, 72, 60
1, 56114, Note_on_c, 0, 74, 0
1, 56126, Note_on_c, 1, 63, 0
1, 56129, Note_on_c, 0, 70, 68
1, 56131, Note_on_c, 0, 72, 0
1, 56133, Note_on_c, 1, 46, 50
1, 56144, Note_on_c, 0, 70, 0
1, 56144, Note_on_c, 0, 72, 72
1, 56159, Note_on_c, 0, 70, 76
1, 56161, Note_on_c, 0, 72, 0
1, 56193, Note_on_c, 1, 46, 0
1, 56217, Note_on_c, 1, 58, 50
1, 56248, Note_on_c, 0, 70, 0
1, 56248, Note_on_c, 1, 58, 0
1, 56278, Note_on_c, 1, 58, 52
1, 56308, Note_on_c, 1, 58, 0
1, 56338, Note_on_c, 1, 58, 46
1, 56367, Note_on_c, 1, 58, 0
1, 56399, Note_on_c, 1, 58, 52
1, 56427, Note_on_c, 1, 58, 0
1, 56461, Note_on_c, 0, 74, 76
1, 56461, Note_on_c, 0, 77, 80
1, 56521, Note_on_c, 0, 74, 0
1, 56521, Note_on_c, 0, 75, 68
1, 56521, Note_on_c, 0, 72, 76
1, 56522, Note_on_c, 0, 77, 0
1, 56580, Note_on_c, 0, 72, 0
1, 56581, Note_on_c, 0, 70, 56
1, 56581, Note_on_c, 0, 74, 89
1, 56583, Note_on_c, 0, 75, 0
1, 56639, Note_on_c, 0, 74, 0
1, 56640, Note_on_c, 0, 70, 0
1, 56640, Note_on_c, 1, 46, 62
1, 56641, Note_on_c, 0, 75, 68
1, 56641, Note_on_c, 0, 79, 85
1, 56695, Note_on_c, 1, 46, 0
1, 56701, Note_on_c, 1, 58, 46
1, 56728, Note_on_c, 1, 58, 0
1, 56761, Note_on_c, 0, 75, 0
1, 56761, Note_on_c, 1, 58, 52
1, 56763, Note_on_c, 0, 79, 0
1, 56788, Note_on_c, 1, 58, 0
1, 56819, Note_on_c, 1, 58, 52
1, 56847, Note_on_c, 1, 58, 0
1, 56881, Note_on_c, 1, 58, 49
1, 56907, Note_on_c, 1, 58, 0
1, 56940, Note_on_c, 0, 79, 76
1, 56940, Note_on_c, 0, 75, 59
1, 56997, Note_on_c, 0, 79, 0
1, 56999, Note_on_c, 0, 81, 89
1, 56999, Note_on_c, 0, 77, 80
1, 57002, Note_on_c, 0, 75, 0
1, 57058, Note_on_c, 0, 77, 0
1, 57058, Note_on_c, 0, 81, 0
1, 57059, Note_on_c, 0, 82, 76
1, 57060, Note_on_c, 0, 79, 72
1, 57118, Note_on_c, 0, 82, 0
1, 57118, Note_on_c, 1, 46, 66
1, 57119, Note_on_c, 0, 79, 0
1, 57119, Note_on_c, 0, 77, 76
1, 57119, Note_on_c, 0, 74, 80
1, 57175, Note_on_c, 1, 46, 0
1, 57178, Note_on_c, 1, 58, 43
1, 57208, Note_on_c, 1, 58, 0
1, 57238, Note_on_c, 0, 74, 0
1, 57238, Note_on_c, 0, 77, 0
1, 57239, Note_on_c, 1, 58, 52
1, 57268, Note_on_c, 1, 58, 0
1, 57298, Note_on_c, 1, 58, 52
1, 57327, Note_on_c, 1, 58, 0
1, 57359, Note_on_c, 1, 58, 54
1, 57387, Note_on_c, 1, 58, 0
1, 57419, Note_on_c, 0, 70, 76
1, 57419, Note_on_c, 0, 74, 89
1, 57478, Note_on_c, 0, 74, 0
1, 57479, Note_on_c, 0, 75, 76
1, 57480, Note_on_c, 0, 72, 80
1, 57481, Note_on_c, 0, 70, 0
1, 57537, Note_on_c, 0, 75, 0
1, 57539, Note_on_c, 0, 77, 62
1, 57539, Note_on_c, 0, 74, 72
1, 57541, Note_on_c, 0, 72, 0
1, 57598, Note_on_c, 1, 41, 45
1, 57599, Note_on_c, 0, 74, 0
1, 57599, Note_on_c, 0, 75, 72
1, 57599, Note_on_c, 0, 72, 80
1, 57600, Note_on_c, 0, 77, 0
1, 57635, Note_on_c, 1, 41, 0
1, 57658, Note_on_c, 1, 53, 52
1, 57689, Note_on_c, 1, 53, 0
1, 57696, Note_on_c, 0, 72, 0
1, 57696, Note_on_c, 0, 75, 0
1, 57718, Note_on_c, 1, 53, 62
1, 57748, Note_on_c, 1, 53, 0
1, 57778, Note_on_c, 1, 53, 58
1, 57807, Note_on_c, 1, 53, 0
1, 57839, Note_on_c, 1, 53, 54
1, 57866, Note_on_c, 1, 53, 0
1, 57899, Note_on_c, 0, 65, 89
1, 57958, Note_on_c, 0, 65, 0
1, 57958, Note_on_c, 0, 64, 80
1, 57959, Note_on_c, 0, 67, 89
1, 58016, Note_on_c, 0, 67, 0
1, 58017, Note_on_c, 0, 64, 0
1, 58018, Note_on_c, 0, 69, 64
1, 58018, Note_on_c, 0, 63, 72
1, 58078, Note_on_c, 1, 46, 97
1, 58079, Note_on_c, 0, 70, 89
1, 58079, Note_on_c, 0, 62, 89
1, 58080, Note_on_c, 0, 63, 0
1, 58080, Note_on_c, 0, 69, 0
1, 58108, Note_on_c, 1, 46, 0
1, 58135, Note_on_c, 0, 70, 0
1, 58136, Note_on_c, 0, 62, 0
1, 58199, Note_on_c, 0, 74, 85
1, 58199, Note_on_c, 0, 65, 80
1, 58201, Note_on_c, 1, 58, 103
1, 58235, Note_on_c, 0, 65, 0
1, 58235, Note_on_c, 0, 74, 0
1, 58235, Note_on_c, 1, 58, 0
1, 58319, Note_on_c, 0, 70, 76
1, 58319, Note_on_c, 0, 62, 72
1, 58322, Note_on_c, 1, 46, 88
1, 58354, Note_on_c, 1, 46, 0
1, 58407, Note_on_c, 0, 70, 0
1, 58410, Note_on_c, 0, 62, 0
1, 58420, End_track
0, 0, End_of_file