0, 0, Header, 0, 1, 120
1, 0, Start_track
1, 0, Tempo, 461538
1, 0, Note_on_c, 1, 58, 70
1, 1, Note_on_c, 0, 70, 64
1, 236, Note_on_c, 1, 58, 0
1, 239, Note_on_c, 0, 65, 68
1, 239, Note_on_c, 1, 53, 66
1, 241, Note_on_c, 0, 70, 0
1, 358, Note_on_c, 0, 65, 0
1, 359, Note_on_c, 0, 62, 68
1, 361, Note_on_c, 1, 50, 83
1, 363, Note_on_c, 1, 53, 0
1, 588, Note_on_c, 1, 50, 0
1, 597, Note_on_c, 1, 53, 66
1, 599, Note_on_c, 0, 65, 59
1, 601, Note_on_c, 0, 62, 0
1, 718, Note_on_c, 1, 58, 47
1, 719, Note_on_c, 0, 70, 60
1, 720, Note_on_c, 1, 53, 0
1, 728, Note_on_c, 0, 65, 0
1, 958, Note_on_c, 0, 74, 72
1, 959, Note_on_c, 0, 70, 0
1, 959, Note_on_c, 1, 62, 66
1, 964, Note_on_c, 1, 58, 0
1, 1079, Note_on_c, 0, 77, 64
1, 1079, Note_on_c, 1, 65, 54
1, 1082, Note_on_c, 1, 62, 0
1, 1086, Note_on_c, 0, 74, 0
1, 1322, Note_on_c, 0, 82, 62
1, 1327, Note_on_c, 1, 65, 0
1, 1339, Note_on_c, 0, 77, 0
1, 1382, Note_on_c, 0, 74, 62
1, 1385, Note_on_c, 0, 82, 0
1, 1441, Note_on_c, 1, 63, 40
1, 1441, Note_on_c, 1, 53, 52
1, 1441, Note_on_c, 1, 60, 58
1, 1442, Note_on_c, 0, 77, 62
1, 1443, Note_on_c, 0, 74, 0
1, 1501, Note_on_c, 0, 75, 59
1, 1503, Note_on_c, 0, 77, 0
1, 1558, Note_on_c, 0, 75, 0
1, 1559, Note_on_c, 0, 74, 72
1, 1617, Note_on_c, 0, 74, 0
1, 1619, Note_on_c, 0, 72, 55
1, 1678, Note_on_c, 0, 70, 64
1, 1682, Note_on_c, 0, 72, 0
1, 1739, Note_on_c, 0, 69, 72
1, 1743, Note_on_c, 0, 70, 0
1, 1799, Note_on_c, 0, 69, 0
1, 1799, Note_on_c, 0, 67, 57
1, 1859, Note_on_c, 0, 65, 64
1, 1865, Note_on_c, 0, 67, 0
1, 1919, Note_on_c, 0, 64, 60
1, 1923, Note_on_c, 0, 65, 0
1, 1979, Note_on_c, 0, 65, 60
1, 1980, Note_on_c, 0, 64, 0
1, 2038, Note_on_c, 0, 67, 68
1, 2039, Note_on_c, 0, 65, 0
1, 2079, Note_on_c, 1, 60, 0
1, 2083, Note_on_c, 1, 53, 0
1, 2084, Note_on_c, 1, 63, 0
1, 2098, Note_on_c, 0, 69, 56
1, 2099, Note_on_c, 0, 67, 0
1, 2158, Note_on_c, 1, 62, 43
1, 2159, Note_on_c, 0, 70, 72
1, 2159, Note_on_c, 1, 58, 43
1, 2164, Note_on_c, 0, 69, 0
1, 2179, Note_on_c, 0, 70, 0
1, 2218, Note_on_c, 0, 72, 64
1, 2234, Note_on_c, 0, 70, 57
1, 2235, Note_on_c, 0, 72, 0
1, 2251, Note_on_c, 0, 69, 62
1, 2256, Note_on_c, 0, 70, 0
1, 2278, Note_on_c, 0, 70, 56
1, 2283, Note_on_c, 0, 69, 0
1, 2299, Note_on_c, 1, 62, 0
1, 2300, Note_on_c, 1, 58, 0
1, 2336, Note_on_c, 0, 70, 0
1, 2339, Note_on_c, 0, 72, 76
1, 2356, Note_on_c, 0, 72, 0
1, 2399, Note_on_c, 0, 74, 68
1, 2417, Note_on_c, 0, 74, 0
1, 2458, Note_on_c, 0, 75, 68
1, 2474, Note_on_c, 0, 75, 0
1, 2518, Note_on_c, 0, 76, 59
1, 2578, Note_on_c, 0, 77, 68
1, 2582, Note_on_c, 0, 76, 0
1, 2638, Note_on_c, 0, 77, 0
1, 2638, Note_on_c, 0, 79, 62
1, 2699, Note_on_c, 0, 77, 60
1, 2704, Note_on_c, 0, 79, 0
1, 2759, Note_on_c, 0, 82, 72
1, 2766, Note_on_c, 0, 77, 0
1, 2820, Note_on_c, 0, 74, 62
1, 2821, Note_on_c, 0, 82, 0
1, 2880, Note_on_c, 1, 63, 41
1, 2880, Note_on_c, 1, 53, 54
1, 2881, Note_on_c, 0, 77, 68
1, 2881, Note_on_c, 1, 60, 58
1, 2882, Note_on_c, 0, 74, 0
1, 2939, Note_on_c, 0, 75, 57
1, 2942, Note_on_c, 0, 77, 0
1, 2999, Note_on_c, 0, 74, 64
1, 3003, Note_on_c, 0, 75, 0
1, 3059, Note_on_c, 0, 72, 62
1, 3061, Note_on_c, 0, 74, 0
1, 3119, Note_on_c, 0, 70, 64
1, 3122, Note_on_c, 0, 72, 0
1, 3177, Note_on_c, 0, 70, 0
1, 3178, Note_on_c, 0, 69, 64
1, 3239, Note_on_c, 0, 67, 56
1, 3240, Note_on_c, 0, 69, 0
1, 3299, Note_on_c, 0, 65, 62
1, 3305, Note_on_c, 0, 67, 0
1, 3359, Note_on_c, 0, 64, 60
1, 3361, Note_on_c, 0, 65, 0
1, 3419, Note_on_c, 0, 65, 64
1, 3420, Note_on_c, 0, 64, 0
1, 3479, Note_on_c, 0, 67, 64
1, 3481, Note_on_c, 0, 65, 0
1, 3534, Note_on_c, 0, 67, 0
1, 3535, Note_on_c, 1, 60, 0
1, 3538, Note_on_c, 1, 53, 0
1, 3538, Note_on_c, 1, 63, 0
1, 3539, Note_on_c, 0, 69, 60
1, 3599, Note_on_c, 0, 69, 0
1, 3599, Note_on_c, 0, 70, 62
1, 3600, Note_on_c, 1, 58, 49
1, 3600, Note_on_c, 1, 62, 52
1, 3649, Note_on_c, 0, 70, 0
1, 3659, Note_on_c, 1, 58, 0
1, 3660, Note_on_c, 1, 62, 0
1, 3721, Note_on_c, 0, 70, 68
1, 3722, Note_on_c, 1, 62, 52
1, 3722, Note_on_c, 1, 58, 52
1, 3769, Note_on_c, 0, 70, 0
1, 3774, Note_on_c, 1, 58, 0
1, 3777, Note_on_c, 1, 62, 0
1, 3841, Note_on_c, 0, 74, 72
1, 3842, Note_on_c, 1, 65, 58
1, 3842, Note_on_c, 1, 58, 50
1, 3885, Note_on_c, 0, 74, 0
1, 3898, Note_on_c, 1, 58, 0
1, 3902, Note_on_c, 1, 65, 0
1, 3963, Note_on_c, 1, 62, 62
1, 3963, Note_on_c, 1, 58, 46
1, 3964, Note_on_c, 0, 70, 68
1, 4078, Note_on_c, 0, 70, 0
1, 4100, Note_on_c, 1, 62, 0
1, 4102, Note_on_c, 1, 58, 0
1, 4171, Note_on_c, 0, 70, 64
1, 4190, Note_on_c, 0, 70, 0
1, 4201, Note_on_c, 0, 72, 72
1, 4223, Note_on_c, 0, 72, 0
1, 4228, Note_on_c, 0, 70, 62
1, 4252, Note_on_c, 0, 70, 0
1, 4257, Note_on_c, 0, 69, 62
1, 4288, Note_on_c, 0, 69, 0
1, 4288, Note_on_c, 0, 70, 62
1, 4318, Note_on_c, 0, 79, 76
1, 4319, Note_on_c, 0, 70, 0
1, 4408, Note_on_c, 0, 79, 0
1, 4438, Note_on_c, 1, 51, 50
1, 4439, Note_on_c, 1, 58, 46
1, 4439, Note_on_c, 1, 55, 70
1, 4532, Note_on_c, 0, 70, 72
1, 4542, Note_on_c, 1, 55, 0
1, 4542, Note_on_c, 1, 58, 0
1, 4545, Note_on_c, 1, 51, 0
1, 4546, Note_on_c, 0, 70, 0
1, 4562, Note_on_c, 0, 72, 64
1, 4588, Note_on_c, 0, 72, 0
1, 4591, Note_on_c, 0, 70, 57
1, 4616, Note_on_c, 0, 70, 0
1, 4621, Note_on_c, 0, 69, 60
1, 4649, Note_on_c, 0, 69, 0
1, 4650, Note_on_c, 0, 70, 62
1, 4676, Note_on_c, 0, 70, 0
1, 4681, Note_on_c, 0, 77, 64
1, 4778, Note_on_c, 0, 77, 0
1, 4801, Note_on_c, 1, 58, 49
1, 4801, Note_on_c, 1, 50, 58
1, 4801, Note_on_c, 1, 53, 70
1, 4891, Note_on_c, 0, 70, 76
1, 4910, Note_on_c, 0, 70, 0
1, 4916, Note_on_c, 1, 53, 0
1, 4918, Note_on_c, 1, 50, 0
1, 4918, Note_on_c, 1, 58, 0
1, 4921, Note_on_c, 0, 72, 68
1, 4949, Note_on_c, 0, 70, 53
1, 4950, Note_on_c, 0, 72, 0
1, 4977, Note_on_c, 0, 70, 0
1, 4979, Note_on_c, 0, 69, 64
1, 5006, Note_on_c, 0, 69, 0
1, 5009, Note_on_c, 0, 70, 50
1, 5039, Note_on_c, 0, 72, 68
1, 5041, Note_on_c, 1, 57, 66
1, 5041, Note_on_c, 1, 65, 52
1, 5042, Note_on_c, 0, 70, 0
1, 5158, Note_on_c, 0, 77, 68
1, 5160, Note_on_c, 0, 72, 0
1, 5278, Note_on_c, 0, 75, 64
1, 5279, Note_on_c, 0, 77, 0
1, 5387, Note_on_c, 1, 57, 0
1, 5398, Note_on_c, 1, 58, 35
1, 5399, Note_on_c, 0, 73, 62
1, 5405, Note_on_c, 0, 75, 0
1, 5520, Note_on_c, 0, 74, 60
1, 5524, Note_on_c, 0, 73, 0
1, 5526, Note_on_c, 1, 65, 0
1, 5534, Note_on_c, 1, 58, 0
1, 5576, Note_on_c, 0, 74, 0
1, 5611, Note_on_c, 0, 70, 64
1, 5631, Note_on_c, 0, 70, 0
1, 5641, Note_on_c, 0, 72, 68
1, 5669, Note_on_c, 0, 70, 57
1, 5672, Note_on_c, 0, 72, 0
1, 5694, Note_on_c, 0, 70, 0
1, 5698, Note_on_c, 0, 69, 60
1, 5728, Note_on_c, 0, 70, 56
1, 5729, Note_on_c, 0, 69, 0
1, 5759, Note_on_c, 0, 70, 0
1, 5759, Note_on_c, 0, 79, 76
1, 5878, Note_on_c, 1, 58, 42
1, 5878, Note_on_c, 1, 51, 46
1, 5878, Note_on_c, 1, 55, 70
1, 5883, Note_on_c, 0, 79, 0
1, 5970, Note_on_c, 0, 70, 64
1, 5986, Note_on_c, 0, 70, 0
1, 5999, Note_on_c, 0, 72, 68
1, 6018, Note_on_c, 1, 58, 0
1, 6019, Note_on_c, 1, 55, 0
1, 6022, Note_on_c, 1, 51, 0
1, 6028, Note_on_c, 0, 72, 0
1, 6029, Note_on_c, 0, 70, 68
1, 6057, Note_on_c, 0, 70, 0
1, 6059, Note_on_c, 0, 69, 64
1, 6088, Note_on_c, 0, 69, 0
1, 6088, Note_on_c, 0, 70, 60
1, 6117, Note_on_c, 0, 70, 0
1, 6119, Note_on_c, 0, 77, 72
1, 6242, Note_on_c, 1, 53, 66
1, 6242, Note_on_c, 1, 58, 41
1, 6242, Note_on_c, 1, 50, 52
1, 6245, Note_on_c, 0, 77, 0
1, 6329, Note_on_c, 0, 70, 62
1, 6346, Note_on_c, 0, 70, 0
1, 6359, Note_on_c, 0, 72, 76
1, 6364, Note_on_c, 1, 58, 0
1, 6364, Note_on_c, 1, 53, 0
1, 6366, Note_on_c, 1, 50, 0
1, 6389, Note_on_c, 0, 70, 57
1, 6391, Note_on_c, 0, 72, 0
1, 6419, Note_on_c, 0, 70, 0
1, 6419, Note_on_c, 0, 69, 64
1, 6446, Note_on_c, 0, 69, 0
1, 6448, Note_on_c, 0, 70, 60
1, 6475, Note_on_c, 0, 72, 64
1, 6477, Note_on_c, 0, 70, 0
1, 6478, Note_on_c, 1, 57, 58
1, 6478, Note_on_c, 1, 53, 54
1, 6596, Note_on_c, 0, 72, 0
1, 6597, Note_on_c, 1, 57, 0
1, 6598, Note_on_c, 0, 75, 64
1, 6598, Note_on_c, 1, 60, 52
1, 6719, Note_on_c, 0, 69, 59
1, 6719, Note_on_c, 1, 60, 0
1, 6719, Note_on_c, 1, 63, 52
1, 6722, Note_on_c, 0, 75, 0
1, 6839, Note_on_c, 0, 70, 60
1, 6839, Note_on_c, 1, 62, 66
1, 6839, Note_on_c, 1, 58, 45
1, 6841, Note_on_c, 1, 63, 0
1, 6842, Note_on_c, 0, 69, 0
1, 6846, Note_on_c, 1, 53, 0
1, 6962, Note_on_c, 0, 70, 0
1, 6975, Note_on_c, 1, 62, 0
1, 6977, Note_on_c, 1, 58, 0
1, 7199, Note_on_c, 1, 55, 79
1, 7201, Note_on_c, 0, 70, 72
1, 7201, Note_on_c, 0, 79, 85
1, 7201, Note_on_c, 0, 74, 89
1, 7242, Note_on_c, 0, 74, 0
1, 7246, Note_on_c, 0, 79, 0
1, 7249, Note_on_c, 0, 70, 0
1, 7319, Note_on_c, 1, 43, 79
1, 7321, Note_on_c, 0, 67, 72
1, 7324, Note_on_c, 1, 55, 0
1, 7375, Note_on_c, 0, 67, 0
1, 7428, Note_on_c, 1, 43, 0
1, 7559, Note_on_c, 0, 66, 64
1, 7559, Note_on_c, 0, 74, 80
1, 7559, Note_on_c, 0, 69, 85
1, 7561, Note_on_c, 1, 50, 79
1, 7609, Note_on_c, 0, 69, 0
1, 7610, Note_on_c, 0, 74, 0
1, 7612, Note_on_c, 0, 66, 0
1, 7674, Note_on_c, 1, 50, 0
1, 7678, Note_on_c, 1, 38, 75
1, 7681, Note_on_c, 0, 62, 68
1, 7745, Note_on_c, 0, 62, 0
1, 7787, Note_on_c, 1, 38, 0
1, 7913, Note_on_c, 1, 55, 46
1, 7913, Note_on_c, 1, 51, 42
1, 7919, Note_on_c, 0, 63, 62
1, 7979, Note_on_c, 1, 58, 37
1, 7980, Note_on_c, 1, 55, 0
1, 8031, Note_on_c, 1, 58, 0
1, 8038, Note_on_c, 1, 55, 41
1, 8098, Note_on_c, 1, 58, 42
1, 8101, Note_on_c, 1, 55, 0
1, 8153, Note_on_c, 1, 58, 0
1, 8158, Note_on_c, 1, 55, 46
1, 8161, Note_on_c, 0, 63, 0
1, 8161, Note_on_c, 0, 65, 72
1, 8191, Note_on_c, 0, 63, 57
1, 8196, Note_on_c, 0, 65, 0
1, 8218, Note_on_c, 0, 63, 0
1, 8218, Note_on_c, 1, 58, 46
1, 8219, Note_on_c, 0, 62, 62
1, 8219, Note_on_c, 1, 55, 0
1, 8250, Note_on_c, 0, 63, 52
1, 8254, Note_on_c, 0, 62, 0
1, 8267, Note_on_c, 1, 51, 0
1, 8281, Note_on_c, 0, 63, 0
1, 8281, Note_on_c, 0, 72, 64
1, 8281, Note_on_c, 1, 56, 54
1, 8281, Note_on_c, 1, 50, 46
1, 8285, Note_on_c, 1, 58, 0
1, 8339, Note_on_c, 0, 70, 60
1, 8341, Note_on_c, 1, 58, 49
1, 8342, Note_on_c, 0, 72, 0
1, 8343, Note_on_c, 1, 56, 0
1, 8394, Note_on_c, 0, 70, 0
1, 8400, Note_on_c, 1, 58, 0
1, 8401, Note_on_c, 0, 70, 68
1, 8401, Note_on_c, 1, 56, 52
1, 8461, Note_on_c, 1, 58, 45
1, 8464, Note_on_c, 1, 56, 0
1, 8473, Note_on_c, 0, 70, 0
1, 8521, Note_on_c, 0, 70, 68
1, 8521, Note_on_c, 1, 56, 47
1, 8524, Note_on_c, 1, 58, 0
1, 8578, Note_on_c, 1, 56, 0
1, 8579, Note_on_c, 1, 58, 43
1, 8611, Note_on_c, 0, 70, 0
1, 8638, Note_on_c, 1, 58, 0
1, 8638, Note_on_c, 1, 50, 0
1, 8639, Note_on_c, 1, 55, 46
1, 8640, Note_on_c, 1, 51, 49
1, 8641, Note_on_c, 0, 70, 64
1, 8699, Note_on_c, 1, 58, 41
1, 8701, Note_on_c, 0, 75, 57
1, 8703, Note_on_c, 0, 70, 0
1, 8703, Note_on_c, 1, 55, 0
1, 8761, Note_on_c, 0, 74, 72
1, 8761, Note_on_c, 1, 58, 0
1, 8761, Note_on_c, 1, 55, 41
1, 8763, Note_on_c, 0, 75, 0
1, 8819, Note_on_c, 1, 58, 42
1, 8821, Note_on_c, 0, 74, 0
1, 8821, Note_on_c, 0, 73, 60
1, 8821, Note_on_c, 1, 55, 0
1, 8875, Note_on_c, 0, 73, 0
1, 8876, Note_on_c, 1, 58, 0
1, 8879, Note_on_c, 1, 55, 35
1, 8880, Note_on_c, 0, 72, 57
1, 8936, Note_on_c, 1, 55, 0
1, 8938, Note_on_c, 1, 58, 46
1, 8941, Note_on_c, 0, 71, 72
1, 8945, Note_on_c, 0, 72, 0
1, 8999, Note_on_c, 1, 56, 52
1, 9000, Note_on_c, 1, 58, 0
1, 9001, Note_on_c, 0, 71, 0
1, 9001, Note_on_c, 0, 70, 57
1, 9001, Note_on_c, 1, 50, 58
1, 9006, Note_on_c, 1, 51, 0
1, 9059, Note_on_c, 1, 58, 46
1, 9062, Note_on_c, 1, 56, 0
1, 9121, Note_on_c, 1, 58, 0
1, 9121, Note_on_c, 1, 56, 41
1, 9128, Note_on_c, 0, 70, 0
1, 9176, Note_on_c, 1, 56, 0
1, 9179, Note_on_c, 1, 58, 46
1, 9236, Note_on_c, 1, 58, 0
1, 9238, Note_on_c, 1, 56, 49
1, 9298, Note_on_c, 1, 56, 0
1, 9298, Note_on_c, 1, 58, 49
1, 9358, Note_on_c, 1, 50, 0
1, 9359, Note_on_c, 1, 55, 49
1, 9359, Note_on_c, 1, 51, 50
1, 9361, Note_on_c, 1, 58, 0
1, 9362, Note_on_c, 0, 63, 64
1, 9421, Note_on_c, 1, 58, 45
1, 9429, Note_on_c, 1, 55, 0
1, 9478, Note_on_c, 1, 58, 0
1, 9481, Note_on_c, 1, 55, 45
1, 9540, Note_on_c, 1, 58, 46
1, 9542, Note_on_c, 1, 55, 0
1, 9590, Note_on_c, 0, 63, 0
1, 9596, Note_on_c, 1, 58, 0
1, 9599, Note_on_c, 0, 65, 64
1, 9599, Note_on_c, 1, 55, 46
1, 9629, Note_on_c, 0, 63, 62
1, 9637, Note_on_c, 0, 65, 0
1, 9655, Note_on_c, 1, 55, 0
1, 9658, Note_on_c, 0, 63, 0
1, 9658, Note_on_c, 1, 58, 50
1, 9659, Note_on_c, 0, 62, 57
1, 9675, Note_on_c, 1, 51, 0
1, 9689, Note_on_c, 0, 63, 59
1, 9694, Note_on_c, 0, 62, 0
1, 9720, Note_on_c, 1, 53, 34
1, 9720, Note_on_c, 1, 50, 54
1, 9721, Note_on_c, 0, 63, 0
1, 9721, Note_on_c, 0, 72, 62
1, 9724, Note_on_c, 1, 58, 0
1, 9778, Note_on_c, 0, 72, 0
1, 9779, Note_on_c, 0, 71, 64
1, 9779, Note_on_c, 1, 56, 52
1, 9781, Note_on_c, 1, 53, 0
1, 9829, Note_on_c, 0, 71, 0
1, 9839, Note_on_c, 0, 71, 76
1, 9839, Note_on_c, 1, 53, 45
1, 9840, Note_on_c, 1, 56, 0
1, 9899, Note_on_c, 1, 56, 52
1, 9904, Note_on_c, 1, 53, 0
1, 9944, Note_on_c, 0, 71, 0
1, 9957, Note_on_c, 1, 56, 0
1, 9958, Note_on_c, 1, 53, 46
1, 9959, Note_on_c, 0, 71, 76
1, 10018, Note_on_c, 1, 56, 52
1, 10019, Note_on_c, 1, 53, 0
1, 10076, Note_on_c, 1, 56, 0
1, 10076, Note_on_c, 1, 50, 0
1, 10078, Note_on_c, 0, 71, 0
1, 10078, Note_on_c, 1, 55, 58
1, 10078, Note_on_c, 1, 51, 47
1, 10082, Note_on_c, 0, 72, 62
1, 10138, Note_on_c, 1, 55, 0
1, 10138, Note_on_c, 1, 60, 50
1, 10142, Note_on_c, 0, 72, 0
1, 10142, Note_on_c, 0, 79, 72
1, 10201, Note_on_c, 1, 55, 52
1, 10202, Note_on_c, 0, 75, 62
1, 10203, Note_on_c, 1, 60, 0
1, 10205, Note_on_c, 0, 79, 0
1, 10259, Note_on_c, 1, 55, 0
1, 10260, Note_on_c, 1, 60, 46
1, 10261, Note_on_c, 0, 74, 68
1, 10263, Note_on_c, 0, 75, 0
1, 10311, Note_on_c, 1, 60, 0
1, 10318, Note_on_c, 0, 74, 0
1, 10321, Note_on_c, 0, 72, 60
1, 10321, Note_on_c, 1, 55, 54
1, 10378, Note_on_c, 1, 55, 0
1, 10380, Note_on_c, 1, 60, 52
1, 10381, Note_on_c, 0, 70, 62
1, 10386, Note_on_c, 0, 72, 0
1, 10404, Note_on_c, 1, 60, 0
1, 10417, Note_on_c, 1, 51, 0
1, 10440, Note_on_c, 0, 70, 0
1, 10441, Note_on_c, 0, 69, 72
1, 10441, Note_on_c, 1, 51, 50
1, 10441, Note_on_c, 1, 53, 43
1, 10496, Note_on_c, 1, 53, 0
1, 10499, Note_on_c, 1, 60, 52
1, 10542, Note_on_c, 1, 60, 0
1, 10560, Note_on_c, 1, 53, 50
1, 10573, Note_on_c, 0, 69, 0
1, 10620, Note_on_c, 1, 53, 0
1, 10621, Note_on_c, 1, 60, 46
1, 10658, Note_on_c, 1, 60, 0
1, 10679, Note_on_c, 1, 53, 46
1, 10738, Note_on_c, 1, 53, 0
1, 10740, Note_on_c, 1, 60, 52
1, 10779, Note_on_c, 1, 60, 0
1, 10799, Note_on_c, 0, 70, 60
1, 10799, Note_on_c, 1, 53, 52
1, 10799, Note_on_c, 1, 50, 47
1, 10801, Note_on_c, 1, 51, 0
1, 10859, Note_on_c, 0, 86, 64
1, 10859, Note_on_c, 1, 58, 47
1, 10860, Note_on_c, 1, 53, 0
1, 10867, Note_on_c, 0, 70, 0
1, 10918, Note_on_c, 1, 58, 0
1, 10919, Note_on_c, 0, 82, 76
1, 10919, Note_on_c, 1, 53, 54
1, 10920, Note_on_c, 0, 86, 0
1, 10977, Note_on_c, 1, 53, 0
1, 10978, Note_on_c, 0, 82, 0
1, 10979, Note_on_c, 0, 81, 62
1, 10979, Note_on_c, 1, 58, 50
1, 11034, Note_on_c, 1, 58, 0
1, 11039, Note_on_c, 0, 81, 0
1, 11039, Note_on_c, 0, 79, 62
1, 11039, Note_on_c, 1, 53, 47
1, 11096, Note_on_c, 1, 53, 0
1, 11098, Note_on_c, 1, 58, 50
1, 11099, Note_on_c, 0, 77, 62
1, 11103, Note_on_c, 0, 79, 0
1, 11159, Note_on_c, 1, 55, 52
1, 11160, Note_on_c, 1, 50, 0
1, 11161, Note_on_c, 0, 76, 62
1, 11161, Note_on_c, 1, 48, 66
1, 11162, Note_on_c, 1, 58, 0
1, 11163, Note_on_c, 0, 77, 0
1, 11220, Note_on_c, 1, 58, 47
1, 11222, Note_on_c, 1, 55, 0
1, 11280, Note_on_c, 1, 58, 0
1, 11280, Note_on_c, 1, 55, 52
1, 11288, Note_on_c, 0, 76, 0
1, 11339, Note_on_c, 1, 58, 40
1, 11342, Note_on_c, 1, 55, 0
1, 11399, Note_on_c, 1, 58, 0
1, 11400, Note_on_c, 1, 55, 50
1, 11458, Note_on_c, 1, 55, 0
1, 11459, Note_on_c, 1, 58, 49
1, 11516, Note_on_c, 1, 58, 0
1, 11519, Note_on_c, 0, 77, 64
1, 11519, Note_on_c, 1, 53, 50
1, 11520, Note_on_c, 1, 50, 47
1, 11522, Note_on_c, 1, 48, 0
1, 11580, Note_on_c, 1, 53, 0
1, 11580, Note_on_c, 1, 57, 47
1, 11581, Note_on_c, 0, 81, 68
1, 11583, Note_on_c, 0, 77, 0
1, 11636, Note_on_c, 1, 57, 0
1, 11639, Note_on_c, 1, 53, 46
1, 11641, Note_on_c, 0, 77, 68
1, 11644, Note_on_c, 0, 81, 0
1, 11698, Note_on_c, 1, 53, 0
1, 11699, Note_on_c, 1, 57, 46
1, 11701, Note_on_c, 0, 77, 0
1, 11701, Note_on_c, 0, 76, 72
1, 11756, Note_on_c, 1, 57, 0
1, 11759, Note_on_c, 0, 76, 0
1, 11759, Note_on_c, 1, 53, 46
1, 11761, Note_on_c, 0, 74, 60
1, 11797, Note_on_c, 1, 50, 0
1, 11817, Note_on_c, 1, 53, 0
1, 11819, Note_on_c, 1, 57, 47
1, 11820, Note_on_c, 0, 72, 68
1, 11823, Note_on_c, 0, 74, 0
1, 11832, Note_on_c, 1, 57, 0
1, 11880, Note_on_c, 1, 62, 41
1, 11881, Note_on_c, 0, 71, 64
1, 11881, Note_on_c, 1, 55, 52
1, 11883, Note_on_c, 0, 72, 0
1, 11941, Note_on_c, 1, 62, 0
1, 11941, Note_on_c, 1, 65, 49
1, 11995, Note_on_c, 1, 65, 0
1, 12001, Note_on_c, 1, 62, 46
1, 12012, Note_on_c, 0, 71, 0
1, 12056, Note_on_c, 1, 62, 0
1, 12061, Note_on_c, 1, 65, 36
1, 12114, Note_on_c, 1, 65, 0
1, 12118, Note_on_c, 1, 62, 50
1, 12178, Note_on_c, 1, 62, 0
1, 12179, Note_on_c, 1, 65, 49
1, 12236, Note_on_c, 1, 65, 0
1, 12236, Note_on_c, 1, 55, 0
1, 12239, Note_on_c, 1, 60, 50
1, 12239, Note_on_c, 1, 64, 54
1, 12271, Note_on_c, 0, 72, 64
1, 12300, Note_on_c, 0, 72, 0
1, 12301, Note_on_c, 0, 71, 57
1, 12332, Note_on_c, 0, 72, 68
1, 12336, Note_on_c, 0, 71, 0
1, 12362, Note_on_c, 0, 74, 76
1, 12363, Note_on_c, 0, 72, 0
1, 12381, Note_on_c, 1, 64, 0
1, 12387, Note_on_c, 1, 60, 0
1, 12392, Note_on_c, 0, 72, 55
1, 12393, Note_on_c, 0, 74, 0
1, 12420, Note_on_c, 0, 72, 0
1, 12422, Note_on_c, 0, 71, 53
1, 12452, Note_on_c, 0, 72, 62
1, 12457, Note_on_c, 0, 71, 0
1, 12481, Note_on_c, 0, 72, 0
1, 12482, Note_on_c, 1, 70, 66
1, 12512, Note_on_c, 0, 72, 76
1, 12543, Note_on_c, 0, 72, 0
1, 12543, Note_on_c, 0, 76, 60
1, 12572, Note_on_c, 0, 76, 0
1, 12572, Note_on_c, 0, 72, 64
1, 12594, Note_on_c, 0, 72, 0
1, 12603, Note_on_c, 1, 69, 66
1, 12605, Note_on_c, 1, 70, 0
1, 12631, Note_on_c, 0, 72, 60
1, 12662, Note_on_c, 0, 77, 60
1, 12666, Note_on_c, 0, 72, 0
1, 12691, Note_on_c, 0, 77, 0
1, 12692, Note_on_c, 0, 72, 55
1, 12717, Note_on_c, 1, 69, 0
1, 12718, Note_on_c, 0, 72, 0
1, 12722, Note_on_c, 1, 64, 50
1, 12752, Note_on_c, 0, 72, 68
1, 12783, Note_on_c, 0, 72, 0
1, 12783, Note_on_c, 0, 82, 64
1, 12811, Note_on_c, 0, 82, 0
1, 12812, Note_on_c, 0, 72, 64
1, 12833, Note_on_c, 0, 72, 0
1, 12836, Note_on_c, 1, 64, 0
1, 12841, Note_on_c, 1, 65, 54
1, 12872, Note_on_c, 0, 72, 62
1, 12901, Note_on_c, 0, 72, 0
1, 12902, Note_on_c, 0, 81, 68
1, 12932, Note_on_c, 0, 72, 64
1, 12933, Note_on_c, 0, 81, 0
1, 12958, Note_on_c, 0, 72, 0
1, 12962, Note_on_c, 0, 79, 68
1, 12962, Note_on_c, 1, 60, 39
1, 12964, Note_on_c, 1, 65, 0
1, 12992, Note_on_c, 0, 76, 62
1, 12995, Note_on_c, 0, 79, 0
1, 13022, Note_on_c, 0, 76, 0
1, 13022, Note_on_c, 0, 74, 57
1, 13052, Note_on_c, 0, 74, 0
1, 13052, Note_on_c, 0, 72, 55
1, 13073, Note_on_c, 1, 60, 0
1, 13081, Note_on_c, 0, 71, 60
1, 13082, Note_on_c, 0, 72, 0
1, 13110, Note_on_c, 0, 71, 0
1, 13111, Note_on_c, 0, 72, 68
1, 13141, Note_on_c, 0, 72, 0
1, 13141, Note_on_c, 0, 74, 60
1, 13170, Note_on_c, 0, 74, 0
1, 13171, Note_on_c, 0, 72, 64
1, 13200, Note_on_c, 0, 72, 0
1, 13201, Note_on_c, 1, 70, 79
1, 13231, Note_on_c, 0, 72, 62
1, 13259, Note_on_c, 0, 75, 59
1, 13261, Note_on_c, 0, 72, 0
1, 13289, Note_on_c, 0, 75, 0
1, 13289, Note_on_c, 0, 72, 68
1, 13313, Note_on_c, 0, 72, 0
1, 13320, Note_on_c, 1, 69, 75
1, 13321, Note_on_c, 1, 70, 0
1, 13349, Note_on_c, 0, 72, 60
1, 13376, Note_on_c, 0, 72, 0
1, 13379, Note_on_c, 0, 77, 68
1, 13404, Note_on_c, 0, 77, 0
1, 13409, Note_on_c, 0, 72, 64
1, 13435, Note_on_c, 0, 72, 0
1, 13441, Note_on_c, 1, 64, 66
1, 13443, Note_on_c, 1, 69, 0
1, 13469, Note_on_c, 0, 72, 68
1, 13498, Note_on_c, 0, 72, 0
1, 13499, Note_on_c, 0, 82, 60
1, 13529, Note_on_c, 0, 72, 64
1, 13531, Note_on_c, 0, 82, 0
1, 13553, Note_on_c, 0, 72, 0
1, 13558, Note_on_c, 1, 64, 0
1, 13559, Note_on_c, 1, 65, 75
1, 13589, Note_on_c, 0, 72, 72
1, 13620, Note_on_c, 0, 72, 0
1, 13621, Note_on_c, 0, 81, 72
1, 13646, Note_on_c, 0, 81, 0
1, 13649, Note_on_c, 0, 72, 60
1, 13678, Note_on_c, 1, 65, 0
1, 13679, Note_on_c, 1, 60, 58
1, 13680, Note_on_c, 0, 79, 64
1, 13681, Note_on_c, 0, 72, 0
1, 13709, Note_on_c, 0, 79, 0
1, 13709, Note_on_c, 0, 84, 64
1, 13741, Note_on_c, 0, 79, 64
1, 13749, Note_on_c, 0, 84, 0
1, 13769, Note_on_c, 0, 79, 0
1, 13771, Note_on_c, 0, 76, 62
1, 13800, Note_on_c, 0, 72, 72
1, 13807, Note_on_c, 1, 60, 0
1, 13808, Note_on_c, 0, 76, 0
1, 13828, Note_on_c, 0, 72, 0
1, 13829, Note_on_c, 0, 79, 60
1, 13861, Note_on_c, 0, 76, 62
1, 13864, Note_on_c, 0, 79, 0
1, 13890, Note_on_c, 0, 72, 62
1, 13892, Note_on_c, 0, 76, 0
1, 13918, Note_on_c, 0, 72, 0
1, 13920, Note_on_c, 0, 67, 53
1, 13949, Note_on_c, 0, 67, 0
1, 13949, Note_on_c, 0, 72, 48
1, 13949, Note_on_c, 1, 60, 70
1, 13979, Note_on_c, 0, 72, 0
1, 13979, Note_on_c, 0, 67, 62
1, 13980, Note_on_c, 1, 55, 58
1, 13987, Note_on_c, 1, 60, 0
1, 14009, Note_on_c, 0, 64, 44
1, 14010, Note_on_c, 1, 52, 47
1, 14011, Note_on_c, 0, 67, 0
1, 14015, Note_on_c, 1, 55, 0
1, 14034, Note_on_c, 1, 52, 0
1, 14040, Note_on_c, 0, 60, 72
1, 14041, Note_on_c, 1, 48, 79
1, 14049, Note_on_c, 0, 64, 0
1, 14155, Note_on_c, 1, 48, 0
1, 14158, Note_on_c, 0, 60, 0
1, 14161, Note_on_c, 0, 64, 64
1, 14161, Note_on_c, 0, 72, 59
1, 14161, Note_on_c, 0, 67, 64
1, 14161, Note_on_c, 1, 36, 70
1, 14282, Note_on_c, 1, 36, 0
1, 14286, Note_on_c, 0, 64, 0
1, 14288, Note_on_c, 0, 67, 0
1, 14290, Note_on_c, 0, 72, 0
1, 14400, Note_on_c, 1, 53, 66
1, 14639, Note_on_c, 1, 48, 46
1, 14641, Note_on_c, 1, 53, 0
1, 14760, Note_on_c, 1, 45, 62
1, 14762, Note_on_c, 1, 48, 0
1, 14997, Note_on_c, 1, 45, 0
1, 14998, Note_on_c, 1, 48, 66
1, 15119, Note_on_c, 1, 53, 52
1, 15121, Note_on_c, 1, 48, 0
1, 15181, Note_on_c, 0, 84, 60
1, 15224, Note_on_c, 0, 84, 0
1, 15241, Note_on_c, 0, 84, 62
1, 15280, Note_on_c, 0, 84, 0
1, 15301, Note_on_c, 0, 84, 64
1, 15334, Note_on_c, 0, 84, 0
1, 15360, Note_on_c, 0, 84, 64
1, 15361, Note_on_c, 1, 57, 54
1, 15375, Note_on_c, 1, 53, 0
1, 15402, Note_on_c, 0, 84, 0
1, 15420, Note_on_c, 0, 84, 76
1, 15476, Note_on_c, 1, 57, 0
1, 15479, Note_on_c, 0, 84, 0
1, 15479, Note_on_c, 0, 86, 72
1, 15481, Note_on_c, 1, 60, 47
1, 15539, Note_on_c, 0, 84, 76
1, 15542, Note_on_c, 0, 86, 0
1, 15599, Note_on_c, 0, 82, 62
1, 15601, Note_on_c, 0, 84, 0
1, 15614, Note_on_c, 1, 60, 0
1, 15659, Note_on_c, 0, 81, 68
1, 15660, Note_on_c, 0, 82, 0
1, 15717, Note_on_c, 0, 81, 0
1, 15718, Note_on_c, 0, 79, 62
1, 15778, Note_on_c, 0, 77, 72
1, 15779, Note_on_c, 0, 79, 0
1, 15826, Note_on_c, 0, 79, 62
1, 15827, Note_on_c, 1, 58, 50
1, 15831, Note_on_c, 0, 77, 0
1, 15842, Note_on_c, 0, 77, 62
1, 15845, Note_on_c, 0, 79, 0
1, 15860, Note_on_c, 0, 77, 0
1, 15869, Note_on_c, 0, 79, 64
1, 15884, Note_on_c, 0, 77, 68
1, 15892, Note_on_c, 0, 79, 0
1, 15904, Note_on_c, 0, 76, 56
1, 15907, Note_on_c, 0, 77, 0
1, 15946, Note_on_c, 0, 76, 0
1, 15955, Note_on_c, 0, 76, 80
1, 16081, Note_on_c, 1, 55, 62
1, 16091, Note_on_c, 1, 58, 0
1, 16093, Note_on_c, 0, 76, 0
1, 16201, Note_on_c, 1, 52, 52
1, 16203, Note_on_c, 1, 55, 0
1, 16430, Note_on_c, 1, 52, 0
1, 16439, Note_on_c, 1, 55, 58
1, 16559, Note_on_c, 1, 58, 54
1, 16570, Note_on_c, 1, 55, 0
1, 16619, Note_on_c, 0, 82, 64
1, 16665, Note_on_c, 0, 82, 0
1, 16681, Note_on_c, 0, 82, 76
1, 16725, Note_on_c, 0, 82, 0
1, 16741, Note_on_c, 0, 82, 68
1, 16782, Note_on_c, 0, 82, 0
1, 16800, Note_on_c, 0, 82, 80
1, 16800, Note_on_c, 1, 64, 66
1, 16807, Note_on_c, 1, 58, 0
1, 16844, Note_on_c, 0, 82, 0
1, 16861, Note_on_c, 0, 82, 80
1, 16919, Note_on_c, 0, 82, 0
1, 16921, Note_on_c, 0, 84, 85
1, 16921, Note_on_c, 1, 67, 62
1, 16923, Note_on_c, 1, 64, 0
1, 16979, Note_on_c, 0, 82, 76
1, 16983, Note_on_c, 0, 84, 0
1, 17039, Note_on_c, 0, 81, 68
1, 17040, Note_on_c, 0, 82, 0
1, 17051, Note_on_c, 1, 67, 0
1, 17098, Note_on_c, 0, 81, 0
1, 17099, Note_on_c, 0, 79, 62
1, 17156, Note_on_c, 0, 79, 0
1, 17159, Note_on_c, 0, 77, 68
1, 17218, Note_on_c, 0, 77, 0
1, 17219, Note_on_c, 0, 76, 64
1, 17279, Note_on_c, 0, 76, 0
1, 17279, Note_on_c, 0, 77, 76
1, 17279, Note_on_c, 1, 69, 50
1, 17339, Note_on_c, 1, 72, 39
1, 17340, Note_on_c, 1, 69, 0
1, 17399, Note_on_c, 1, 69, 54
1, 17400, Note_on_c, 1, 72, 0
1, 17413, Note_on_c, 0, 77, 0
1, 17459, Note_on_c, 0, 81, 72
1, 17459, Note_on_c, 1, 72, 45
1, 17460, Note_on_c, 1, 69, 0
1, 17517, Note_on_c, 1, 72, 0
1, 17519, Note_on_c, 0, 79, 76
1, 17519, Note_on_c, 1, 69, 54
1, 17521, Note_on_c, 0, 81, 0
1, 17575, Note_on_c, 1, 69, 0
1, 17579, Note_on_c, 0, 77, 76
1, 17579, Note_on_c, 1, 72, 47
1, 17582, Note_on_c, 0, 79, 0
1, 17639, Note_on_c, 0, 77, 0
1, 17639, Note_on_c, 0, 76, 72
1, 17639, Note_on_c, 1, 70, 54
1, 17644, Note_on_c, 1, 72, 0
1, 17696, Note_on_c, 1, 70, 0
1, 17699, Note_on_c, 1, 72, 49
1, 17759, Note_on_c, 1, 70, 47
1, 17765, Note_on_c, 1, 72, 0
1, 17773, Note_on_c, 0, 76, 0
1, 17819, Note_on_c, 0, 86, 89
1, 17819, Note_on_c, 1, 72, 43
1, 17823, Note_on_c, 1, 70, 0
1, 17879, Note_on_c, 0, 84, 68
1, 17880, Note_on_c, 1, 70, 49
1, 17882, Note_on_c, 1, 72, 0
1, 17883, Note_on_c, 0, 86, 0
1, 17936, Note_on_c, 0, 84, 0
1, 17939, Note_on_c, 0, 76, 72
1, 17939, Note_on_c, 1, 70, 0
1, 17939, Note_on_c, 1, 72, 46
1, 17995, Note_on_c, 1, 72, 0
1, 17999, Note_on_c, 0, 77, 76
1, 17999, Note_on_c, 1, 69, 52
1, 18000, Note_on_c, 0, 76, 0
1, 18059, Note_on_c, 1, 72, 47
1, 18062, Note_on_c, 1, 69, 0
1, 18118, Note_on_c, 1, 72, 0
1, 18119, Note_on_c, 1, 69, 47
1, 18138, Note_on_c, 0, 77, 0
1, 18178, Note_on_c, 1, 69, 0
1, 18179, Note_on_c, 1, 72, 45
1, 18181, Note_on_c, 0, 81, 55
1, 18237, Note_on_c, 1, 72, 0
1, 18239, Note_on_c, 0, 79, 62
1, 18239, Note_on_c, 1, 69, 42
1, 18245, Note_on_c, 0, 81, 0
1, 18296, Note_on_c, 1, 69, 0
1, 18299, Note_on_c, 0, 79, 0
1, 18299, Note_on_c, 0, 77, 62
1, 18299, Note_on_c, 1, 72, 46
1, 18359, Note_on_c, 0, 76, 56
1, 18359, Note_on_c, 1, 72, 0
1, 18359, Note_on_c, 1, 70, 45
1, 18364, Note_on_c, 0, 77, 0
1, 18419, Note_on_c, 1, 72, 47
1, 18423, Note_on_c, 1, 70, 0
1, 18479, Note_on_c, 1, 70, 41
1, 18481, Note_on_c, 1, 72, 0
1, 18500, Note_on_c, 0, 76, 0
1, 18535, Note_on_c, 1, 70, 0
1, 18539, Note_on_c, 0, 86, 52
1, 18539, Note_on_c, 1, 72, 37
1, 18595, Note_on_c, 1, 72, 0
1, 18597, Note_on_c, 0, 86, 0
1, 18599, Note_on_c, 0, 84, 57
1, 18599, Note_on_c, 1, 70, 42
1, 18659, Note_on_c, 0, 76, 62
1, 18659, Note_on_c, 1, 72, 46
1, 18660, Note_on_c, 0, 84, 0
1, 18660, Note_on_c, 1, 70, 0
1, 18716, Note_on_c, 0, 76, 0
1, 18719, Note_on_c, 0, 77, 62
1, 18719, Note_on_c, 1, 72, 0
1, 18719, Note_on_c, 1, 69, 54
1, 18779, Note_on_c, 1, 72, 41
1, 18780, Note_on_c, 1, 69, 0
1, 18839, Note_on_c, 1, 69, 52
1, 18840, Note_on_c, 1, 72, 0
1, 18851, Note_on_c, 0, 77, 0
1, 18899, Note_on_c, 0, 84, 76
1, 18899, Note_on_c, 1, 72, 47
1, 18900, Note_on_c, 1, 69, 0
1, 18954, Note_on_c, 1, 72, 0
1, 18959, Note_on_c, 0, 84, 0
1, 18959, Note_on_c, 0, 81, 62
1, 18959, Note_on_c, 1, 69, 43
1, 19019, Note_on_c, 0, 79, 76
1, 19019, Note_on_c, 1, 72, 52
1, 19021, Note_on_c, 1, 69, 0
1, 19027, Note_on_c, 0, 81, 0
1, 19077, Note_on_c, 1, 72, 0
1, 19079, Note_on_c, 0, 78, 68
1, 19079, Note_on_c, 1, 69, 54
1, 19079, Note_on_c, 1, 62, 50
1, 19085, Note_on_c, 0, 79, 0
1, 19139, Note_on_c, 1, 72, 46
1, 19143, Note_on_c, 1, 69, 0
1, 19199, Note_on_c, 1, 69, 49
1, 19201, Note_on_c, 1, 72, 0
1, 19206, Note_on_c, 0, 78, 0
1, 19257, Note_on_c, 1, 69, 0
1, 19259, Note_on_c, 0, 87, 64
1, 19259, Note_on_c, 1, 72, 46
1, 19312, Note_on_c, 1, 72, 0
1, 19317, Note_on_c, 0, 87, 0
1, 19319, Note_on_c, 0, 86, 76
1, 19319, Note_on_c, 1, 69, 46
1, 19372, Note_on_c, 1, 69, 0
1, 19373, Note_on_c, 1, 62, 0
1, 19378, Note_on_c, 0, 86, 0
1, 19379, Note_on_c, 0, 78, 59
1, 19379, Note_on_c, 1, 72, 45
1, 19412, Note_on_c, 1, 72, 0
1, 19439, Note_on_c, 0, 81, 72
1, 19439, Note_on_c, 1, 70, 52
1, 19439, Note_on_c, 1, 67, 50
1, 19441, Note_on_c, 0, 78, 0
1, 19499, Note_on_c, 0, 79, 62
1, 19500, Note_on_c, 0, 81, 0
1, 19559, Note_on_c, 0, 84, 76
1, 19559, Note_on_c, 1, 72, 70
1, 19559, Note_on_c, 1, 64, 49
1, 19561, Note_on_c, 1, 70, 0
1, 19562, Note_on_c, 0, 79, 0
1, 19563, Note_on_c, 1, 67, 0
1, 19619, Note_on_c, 0, 83, 80
1, 19622, Note_on_c, 0, 84, 0
1, 19678, Note_on_c, 0, 83, 0
1, 19679, Note_on_c, 0, 82, 68
1, 19679, Note_on_c, 1, 65, 58
1, 19685, Note_on_c, 1, 64, 0
1, 19739, Note_on_c, 0, 81, 62
1, 19740, Note_on_c, 0, 82, 0
1, 19797, Note_on_c, 1, 65, 0
1, 19799, Note_on_c, 0, 81, 0
1, 19799, Note_on_c, 0, 79, 76
1, 19799, Note_on_c, 1, 70, 58
1, 19799, Note_on_c, 1, 58, 45
1, 19801, Note_on_c, 1, 72, 0
1, 19891, Note_on_c, 0, 79, 0
1, 19891, Note_on_c, 0, 81, 68
1, 19919, Note_on_c, 1, 60, 58
1, 19919, Note_on_c, 1, 69, 66
1, 19920, Note_on_c, 0, 81, 0
1, 19920, Note_on_c, 1, 58, 0
1, 19921, Note_on_c, 0, 77, 80
1, 19927, Note_on_c, 1, 70, 0
1, 19990, Note_on_c, 0, 77, 0
1, 20039, Note_on_c, 1, 69, 0
1, 20040, Note_on_c, 1, 67, 66
1, 20041, Note_on_c, 0, 77, 72
1, 20055, Note_on_c, 0, 76, 64
1, 20056, Note_on_c, 0, 77, 0
1, 20071, Note_on_c, 0, 77, 64
1, 20073, Note_on_c, 0, 76, 0
1, 20086, Note_on_c, 0, 76, 76
1, 20087, Note_on_c, 0, 77, 0
1, 20101, Note_on_c, 0, 77, 62
1, 20103, Note_on_c, 0, 76, 0
1, 20116, Note_on_c, 0, 76, 62
1, 20120, Note_on_c, 0, 77, 0
1, 20131, Note_on_c, 0, 76, 0
1, 20131, Note_on_c, 0, 74, 72
1, 20148, Note_on_c, 0, 74, 0
1, 20151, Note_on_c, 0, 76, 62
1, 20159, Note_on_c, 1, 60, 0
1, 20160, Note_on_c, 0, 77, 72
1, 20160, Note_on_c, 1, 67, 0
1, 20160, Note_on_c, 1, 65, 75
1, 20165, Note_on_c, 0, 76, 0
1, 20191, Note_on_c, 0, 72, 68
1, 20197, Note_on_c, 0, 77, 0
1, 20221, Note_on_c, 0, 71, 59
1, 20224, Note_on_c, 0, 72, 0
1, 20252, Note_on_c, 0, 72, 68
1, 20257, Note_on_c, 0, 71, 0
1, 20282, Note_on_c, 0, 74, 72
1, 20284, Note_on_c, 0, 72, 0
1, 20312, Note_on_c, 0, 72, 64
1, 20317, Note_on_c, 0, 74, 0
1, 20332, Note_on_c, 1, 65, 0
1, 20342, Note_on_c, 0, 71, 64
1, 20342, Note_on_c, 1, 57, 62
1, 20343, Note_on_c, 0, 72, 0
1, 20369, Note_on_c, 0, 71, 0
1, 20372, Note_on_c, 0, 72, 62
1, 20402, Note_on_c, 0, 70, 62
1, 20403, Note_on_c, 1, 55, 58
1, 20405, Note_on_c, 0, 72, 0
1, 20409, Note_on_c, 1, 57, 0
1, 20432, Note_on_c, 0, 70, 0
1, 20432, Note_on_c, 0, 72, 64
1, 20459, Note_on_c, 1, 55, 0
1, 20461, Note_on_c, 0, 72, 0
1, 20462, Note_on_c, 0, 69, 57
1, 20462, Note_on_c, 1, 53, 45
1, 20488, Note_on_c, 0, 69, 0
1, 20492, Note_on_c, 0, 72, 72
1, 20521, Note_on_c, 0, 72, 0
1, 20521, Note_on_c, 0, 67, 64
1, 20522, Note_on_c, 1, 52, 54
1, 20525, Note_on_c, 1, 53, 0
1, 20551, Note_on_c, 0, 72, 62
1, 20553, Note_on_c, 0, 67, 0
1, 20581, Note_on_c, 0, 71, 76
1, 20582, Note_on_c, 0, 72, 0
1, 20611, Note_on_c, 0, 72, 76
1, 20613, Note_on_c, 0, 71, 0
1, 20639, Note_on_c, 0, 72, 0
1, 20641, Note_on_c, 0, 74, 59
1, 20663, Note_on_c, 1, 52, 0
1, 20671, Note_on_c, 0, 74, 0
1, 20671, Note_on_c, 0, 72, 57
1, 20700, Note_on_c, 1, 62, 70
1, 20701, Note_on_c, 0, 71, 57
1, 20704, Note_on_c, 0, 72, 0
1, 20731, Note_on_c, 0, 71, 0
1, 20731, Note_on_c, 0, 72, 64
1, 20745, Note_on_c, 0, 72, 0
1, 20760, Note_on_c, 0, 82, 72
1, 20761, Note_on_c, 1, 60, 62
1, 20763, Note_on_c, 1, 62, 0
1, 20789, Note_on_c, 0, 72, 56
1, 20793, Note_on_c, 0, 82, 0
1, 20817, Note_on_c, 0, 72, 0
1, 20819, Note_on_c, 0, 82, 76
1, 20819, Note_on_c, 1, 52, 62
1, 20824, Note_on_c, 1, 60, 0
1, 20849, Note_on_c, 0, 72, 53
1, 20853, Note_on_c, 0, 82, 0
1, 20872, Note_on_c, 0, 72, 0
1, 20878, Note_on_c, 1, 52, 0
1, 20879, Note_on_c, 0, 81, 72
1, 20879, Note_on_c, 1, 53, 50
1, 20909, Note_on_c, 0, 72, 53
1, 20915, Note_on_c, 0, 81, 0
1, 20935, Note_on_c, 0, 72, 0
1, 20939, Note_on_c, 0, 71, 53
1, 20968, Note_on_c, 0, 71, 0
1, 20969, Note_on_c, 0, 72, 59
1, 20997, Note_on_c, 0, 72, 0
1, 20999, Note_on_c, 0, 74, 49
1, 21011, Note_on_c, 1, 53, 0
1, 21029, Note_on_c, 0, 72, 48
1, 21035, Note_on_c, 0, 74, 0
1, 21058, Note_on_c, 1, 57, 58
1, 21059, Note_on_c, 0, 71, 51
1, 21061, Note_on_c, 0, 72, 0
1, 21087, Note_on_c, 0, 71, 0
1, 21089, Note_on_c, 0, 72, 60
1, 21119, Note_on_c, 0, 70, 57
1, 21119, Note_on_c, 1, 55, 66
1, 21121, Note_on_c, 0, 72, 0
1, 21121, Note_on_c, 1, 57, 0
1, 21149, Note_on_c, 0, 70, 0
1, 21149, Note_on_c, 0, 72, 59
1, 21174, Note_on_c, 0, 72, 0
1, 21179, Note_on_c, 1, 53, 62
1, 21180, Note_on_c, 1, 55, 0
1, 21181, Note_on_c, 0, 69, 53
1, 21208, Note_on_c, 0, 69, 0
1, 21209, Note_on_c, 0, 72, 57
1, 21236, Note_on_c, 1, 53, 0
1, 21238, Note_on_c, 0, 72, 0
1, 21239, Note_on_c, 0, 67, 52
1, 21240, Note_on_c, 1, 52, 70
1, 21264, Note_on_c, 0, 67, 0
1, 21269, Note_on_c, 0, 72, 62
1, 21299, Note_on_c, 0, 71, 60
1, 21300, Note_on_c, 0, 72, 0
1, 21329, Note_on_c, 0, 72, 62
1, 21330, Note_on_c, 0, 71, 0
1, 21359, Note_on_c, 0, 74, 52
1, 21360, Note_on_c, 0, 72, 0
1, 21379, Note_on_c, 1, 52, 0
1, 21389, Note_on_c, 0, 72, 62
1, 21391, Note_on_c, 0, 74, 0
1, 21418, Note_on_c, 1, 62, 52
1, 21419, Note_on_c, 0, 71, 56
1, 21421, Note_on_c, 0, 72, 0
1, 21449, Note_on_c, 0, 72, 76
1, 21450, Note_on_c, 0, 71, 0
1, 21467, Note_on_c, 0, 72, 0
1, 21479, Note_on_c, 1, 60, 50
1, 21480, Note_on_c, 0, 82, 76
1, 21484, Note_on_c, 1, 62, 0
1, 21509, Note_on_c, 0, 72, 64
1, 21510, Note_on_c, 0, 82, 0
1, 21536, Note_on_c, 0, 72, 0
1, 21539, Note_on_c, 0, 82, 72
1, 21539, Note_on_c, 1, 52, 54
1, 21546, Note_on_c, 1, 60, 0
1, 21569, Note_on_c, 0, 72, 52
1, 21573, Note_on_c, 0, 82, 0
1, 21594, Note_on_c, 0, 72, 0
1, 21599, Note_on_c, 0, 81, 72
1, 21601, Note_on_c, 1, 53, 50
1, 21603, Note_on_c, 1, 52, 0
1, 21629, Note_on_c, 0, 72, 62
1, 21633, Note_on_c, 0, 81, 0
1, 21657, Note_on_c, 0, 72, 0
1, 21659, Note_on_c, 0, 71, 53
1, 21688, Note_on_c, 0, 71, 0
1, 21689, Note_on_c, 0, 72, 60
1, 21719, Note_on_c, 0, 72, 0
1, 21719, Note_on_c, 0, 74, 59
1, 21732, Note_on_c, 1, 53, 0
1, 21749, Note_on_c, 0, 74, 0
1, 21749, Note_on_c, 0, 72, 60
1, 21779, Note_on_c, 0, 71, 56
1, 21779, Note_on_c, 1, 60, 58
1, 21781, Note_on_c, 0, 72, 0
1, 21808, Note_on_c, 0, 71, 0
1, 21809, Note_on_c, 0, 72, 68
1, 21839, Note_on_c, 0, 75, 55
1, 21839, Note_on_c, 1, 57, 70
1, 21841, Note_on_c, 0, 72, 0
1, 21843, Note_on_c, 1, 60, 0
1, 21868, Note_on_c, 0, 72, 62
1, 21873, Note_on_c, 0, 75, 0
1, 21899, Note_on_c, 0, 70, 55
1, 21899, Note_on_c, 1, 55, 58
1, 21900, Note_on_c, 1, 57, 0
1, 21901, Note_on_c, 0, 72, 0
1, 21926, Note_on_c, 0, 70, 0
1, 21928, Note_on_c, 0, 72, 56
1, 21955, Note_on_c, 1, 55, 0
1, 21959, Note_on_c, 0, 69, 62
1, 21959, Note_on_c, 1, 54, 62
1, 21960, Note_on_c, 0, 72, 0
1, 21989, Note_on_c, 0, 74, 60
1, 21992, Note_on_c, 0, 69, 0
1, 22019, Note_on_c, 0, 74, 0
1, 22019, Note_on_c, 0, 73, 62
1, 22049, Note_on_c, 0, 74, 62
1, 22052, Note_on_c, 0, 73, 0
1, 22078, Note_on_c, 0, 74, 0
1, 22079, Note_on_c, 0, 76, 72
1, 22101, Note_on_c, 1, 54, 0
1, 22109, Note_on_c, 0, 76, 0
1, 22109, Note_on_c, 0, 74, 57
1, 22139, Note_on_c, 0, 73, 68
1, 22139, Note_on_c, 1, 63, 62
1, 22140, Note_on_c, 0, 74, 0
1, 22167, Note_on_c, 0, 73, 0
1, 22169, Note_on_c, 0, 74, 72
1, 22197, Note_on_c, 0, 74, 0
1, 22199, Note_on_c, 0, 84, 89
1, 22199, Note_on_c, 1, 62, 79
1, 22200, Note_on_c, 1, 63, 0
1, 22227, Note_on_c, 0, 84, 0
1, 22228, Note_on_c, 0, 74, 56
1, 22258, Note_on_c, 0, 74, 0
1, 22259, Note_on_c, 0, 84, 76
1, 22259, Note_on_c, 1, 62, 0
1, 22259, Note_on_c, 1, 54, 66
1, 22288, Note_on_c, 0, 74, 51
1, 22291, Note_on_c, 0, 84, 0
1, 22318, Note_on_c, 0, 74, 0
1, 22319, Note_on_c, 0, 83, 80
1, 22319, Note_on_c, 1, 55, 52
1, 22320, Note_on_c, 1, 54, 0
1, 22350, Note_on_c, 1, 62, 54
1, 22357, Note_on_c, 1, 55, 0
1, 22379, Note_on_c, 1, 62, 0
1, 22380, Note_on_c, 1, 58, 52
1, 22408, Note_on_c, 1, 58, 0
1, 22409, Note_on_c, 1, 62, 58
1, 22438, Note_on_c, 1, 62, 0
1, 22439, Note_on_c, 0, 82, 68
1, 22440, Note_on_c, 1, 52, 52
1, 22443, Note_on_c, 0, 83, 0
1, 22471, Note_on_c, 1, 61, 58
1, 22488, Note_on_c, 1, 61, 0
1, 22492, Note_on_c, 1, 52, 0
1, 22501, Note_on_c, 1, 55, 62
1, 22529, Note_on_c, 1, 61, 54
1, 22547, Note_on_c, 1, 61, 0
1, 22554, Note_on_c, 1, 55, 0
1, 22559, Note_on_c, 0, 81, 68
1, 22559, Note_on_c, 1, 53, 58
1, 22566, Note_on_c, 0, 82, 0
1, 22591, Note_on_c, 1, 57, 66
1, 22608, Note_on_c, 1, 57, 0
1, 22611, Note_on_c, 1, 53, 0
1, 22621, Note_on_c, 1, 60, 58
1, 22645, Note_on_c, 1, 60, 0
1, 22650, Note_on_c, 1, 57, 50
1, 22664, Note_on_c, 1, 57, 0
1, 22676, Note_on_c, 0, 81, 0
1, 22679, Note_on_c, 0, 79, 76
1, 22680, Note_on_c, 1, 46, 70
1, 22680, Note_on_c, 1, 58, 70
1, 22711, Note_on_c, 0, 86, 80
1, 22719, Note_on_c, 0, 79, 0
1, 22742, Note_on_c, 0, 82, 72
1, 22744, Note_on_c, 0, 86, 0
1, 22772, Note_on_c, 0, 79, 51
1, 22778, Note_on_c, 0, 82, 0
1, 22795, Note_on_c, 1, 46, 0
1, 22800, Note_on_c, 1, 58, 0
1, 22801, Note_on_c, 1, 57, 66
1, 22802, Note_on_c, 0, 77, 60
1, 22802, Note_on_c, 1, 48, 54
1, 22805, Note_on_c, 0, 79, 0
1, 22831, Note_on_c, 0, 77, 0
1, 22832, Note_on_c, 0, 84, 64
1, 22861, Note_on_c, 0, 81, 64
1, 22863, Note_on_c, 0, 84, 0
1, 22886, Note_on_c, 0, 81, 0
1, 22891, Note_on_c, 0, 77, 46
1, 22919, Note_on_c, 1, 48, 0
1, 22921, Note_on_c, 0, 76, 68
1, 22921, Note_on_c, 1, 55, 54
1, 22922, Note_on_c, 1, 57, 0
1, 22922, Note_on_c, 1, 46, 52
1, 22926, Note_on_c, 0, 77, 0
1, 22951, Note_on_c, 0, 82, 62
1, 22955, Note_on_c, 0, 76, 0
1, 22981, Note_on_c, 0, 79, 72
1, 22983, Note_on_c, 0, 82, 0
1, 23011, Note_on_c, 0, 76, 68
1, 23012, Note_on_c, 0, 79, 0
1, 23019, Note_on_c, 1, 46, 0
1, 23033, Note_on_c, 1, 55, 0
1, 23041, Note_on_c, 0, 76, 0
1, 23041, Note_on_c, 0, 77, 62
1, 23042, Note_on_c, 1, 53, 66
1, 23042, Note_on_c, 1, 45, 58
1, 23071, Note_on_c, 0, 81, 64
1, 23073, Note_on_c, 0, 77, 0
1, 23101, Note_on_c, 0, 81, 0
1, 23101, Note_on_c, 0, 84, 76
1, 23132, Note_on_c, 0, 82, 59
1, 23139, Note_on_c, 0, 84, 0
1, 23162, Note_on_c, 0, 81, 76
1, 23164, Note_on_c, 0, 82, 0
1, 23176, Note_on_c, 1, 45, 0
1, 23178, Note_on_c, 1, 53, 0
1, 23191, Note_on_c, 0, 79, 76
1, 23196, Note_on_c, 0, 81, 0
1, 23221, Note_on_c, 0, 79, 0
1, 23221, Note_on_c, 0, 77, 59
1, 23246, Note_on_c, 0, 77, 0
1, 23251, Note_on_c, 0, 76, 62
1, 23281, Note_on_c, 0, 76, 0
1, 23281, Note_on_c, 0, 74, 68
1, 23282, Note_on_c, 1, 57, 75
1, 23282, Note_on_c, 1, 60, 66
1, 23311, Note_on_c, 0, 72, 55
1, 23312, Note_on_c, 0, 74, 0
1, 23338, Note_on_c, 1, 60, 0
1, 23339, Note_on_c, 1, 57, 0
1, 23341, Note_on_c, 0, 70, 60
1, 23345, Note_on_c, 0, 72, 0
1, 23371, Note_on_c, 0, 70, 0
1, 23371, Note_on_c, 0, 69, 50
1, 23401, Note_on_c, 0, 67, 62
1, 23401, Note_on_c, 1, 58, 54
1, 23402, Note_on_c, 1, 62, 70
1, 23405, Note_on_c, 0, 69, 0
1, 23431, Note_on_c, 0, 67, 0
1, 23431, Note_on_c, 0, 70, 62
1, 23461, Note_on_c, 0, 74, 72
1, 23463, Note_on_c, 0, 70, 0
1, 23491, Note_on_c, 0, 72, 60
1, 23496, Note_on_c, 1, 58, 0
1, 23497, Note_on_c, 0, 74, 0
1, 23499, Note_on_c, 1, 62, 0
1, 23521, Note_on_c, 0, 70, 68
1, 23523, Note_on_c, 0, 72, 0
1, 23552, Note_on_c, 0, 69, 62
1, 23559, Note_on_c, 0, 70, 0
1, 23582, Note_on_c, 0, 69, 0
1, 23582, Note_on_c, 0, 67, 64
1, 23612, Note_on_c, 0, 67, 0
1, 23612, Note_on_c, 0, 65, 64
1, 23642, Note_on_c, 0, 64, 64
1, 23642, Note_on_c, 1, 53, 54
1, 23642, Note_on_c, 1, 55, 52
1, 23642, Note_on_c, 1, 50, 62
1, 23648, Note_on_c, 0, 65, 0
1, 23672, Note_on_c, 0, 62, 52
1, 23674, Note_on_c, 0, 64, 0
1, 23696, Note_on_c, 1, 50, 0
1, 23698, Note_on_c, 0, 62, 0
1, 23701, Note_on_c, 0, 60, 55
1, 23704, Note_on_c, 1, 53, 0
1, 23708, Note_on_c, 1, 55, 0
1, 23731, Note_on_c, 0, 59, 62
1, 23733, Note_on_c, 0, 60, 0
1, 23761, Note_on_c, 1, 48, 54
1, 23762, Note_on_c, 0, 60, 72
1, 23764, Note_on_c, 0, 59, 0
1, 23782, Note_on_c, 0, 60, 0
1, 23792, Note_on_c, 1, 57, 43
1, 23795, Note_on_c, 1, 48, 0
1, 23821, Note_on_c, 0, 72, 80
1, 23821, Note_on_c, 1, 53, 41
1, 23822, Note_on_c, 1, 57, 0
1, 23842, Note_on_c, 0, 72, 0
1, 23851, Note_on_c, 1, 57, 52
1, 23853, Note_on_c, 1, 53, 0
1, 23873, Note_on_c, 1, 57, 0
1, 23881, Note_on_c, 0, 77, 72
1, 23881, Note_on_c, 1, 48, 50
1, 23897, Note_on_c, 0, 77, 0
1, 23909, Note_on_c, 1, 48, 0
1, 23911, Note_on_c, 1, 57, 52
1, 23939, Note_on_c, 1, 57, 0
1, 23941, Note_on_c, 1, 53, 34
1, 23942, Note_on_c, 0, 81, 85
1, 23956, Note_on_c, 0, 81, 0
1, 23970, Note_on_c, 1, 57, 49
1, 23971, Note_on_c, 1, 53, 0
1, 24001, Note_on_c, 1, 48, 50
1, 24002, Note_on_c, 0, 84, 76
1, 24004, Note_on_c, 1, 57, 0
1, 24018, Note_on_c, 0, 84, 0
1, 24031, Note_on_c, 1, 48, 0
1, 24031, Note_on_c, 1, 57, 52
1, 24061, Note_on_c, 0, 89, 72
1, 24061, Note_on_c, 1, 57, 0
1, 24061, Note_on_c, 1, 53, 49
1, 24074, Note_on_c, 0, 89, 0
1, 24092, Note_on_c, 1, 53, 0
1, 24095, Note_on_c, 1, 57, 52
1, 24120, Note_on_c, 0, 81, 62
1, 24121, Note_on_c, 1, 57, 0
1, 24121, Note_on_c, 1, 48, 54
1, 24129, Note_on_c, 0, 81, 0
1, 24135, Note_on_c, 0, 79, 62
1, 24144, Note_on_c, 0, 79, 0
1, 24150, Note_on_c, 0, 81, 62
1, 24151, Note_on_c, 1, 58, 43
1, 24156, Note_on_c, 1, 48, 0
1, 24159, Note_on_c, 0, 81, 0
1, 24165, Note_on_c, 0, 79, 62
1, 24174, Note_on_c, 0, 79, 0
1, 24176, Note_on_c, 1, 58, 0
1, 24180, Note_on_c, 0, 81, 62
1, 24180, Note_on_c, 1, 52, 52
1, 24189, Note_on_c, 0, 81, 0
1, 24195, Note_on_c, 0, 79, 62
1, 24204, Note_on_c, 0, 79, 0
1, 24206, Note_on_c, 1, 52, 0
1, 24210, Note_on_c, 0, 81, 62
1, 24211, Note_on_c, 1, 58, 41
1, 24219, Note_on_c, 0, 81, 0
1, 24225, Note_on_c, 0, 79, 62
1, 24234, Note_on_c, 0, 79, 0
1, 24236, Note_on_c, 1, 58, 0
1, 24239, Note_on_c, 1, 48, 62
1, 24240, Note_on_c, 0, 81, 62
1, 24255, Note_on_c, 0, 81, 0
1, 24255, Note_on_c, 0, 79, 62
1, 24270, Note_on_c, 0, 79, 0
1, 24270, Note_on_c, 0, 81, 62
1, 24270, Note_on_c, 1, 58, 46
1, 24273, Note_on_c, 1, 48, 0
1, 24285, Note_on_c, 0, 81, 0
1, 24285, Note_on_c, 0, 79, 62
1, 24297, Note_on_c, 1, 58, 0
1, 24299, Note_on_c, 1, 52, 49
1, 24300, Note_on_c, 0, 79, 0
1, 24300, Note_on_c, 0, 81, 62
1, 24315, Note_on_c, 0, 81, 0
1, 24315, Note_on_c, 0, 79, 62
1, 24321, Note_on_c, 1, 52, 0
1, 24329, Note_on_c, 1, 58, 42
1, 24330, Note_on_c, 0, 79, 0
1, 24330, Note_on_c, 0, 81, 62
1, 24345, Note_on_c, 0, 81, 0
1, 24345, Note_on_c, 0, 79, 62
1, 24354, Note_on_c, 1, 58, 0
1, 24360, Note_on_c, 0, 79, 0
1, 24360, Note_on_c, 0, 81, 62
1, 24360, Note_on_c, 1, 48, 62
1, 24375, Note_on_c, 0, 81, 0
1, 24375, Note_on_c, 0, 79, 62
1, 24388, Note_on_c, 1, 58, 47
1, 24390, Note_on_c, 0, 79, 0
1, 24390, Note_on_c, 0, 81, 62
1, 24392, Note_on_c, 1, 48, 0
1, 24405, Note_on_c, 0, 81, 0
1, 24405, Note_on_c, 0, 79, 62
1, 24419, Note_on_c, 1, 58, 0
1, 24419, Note_on_c, 1, 52, 52
1, 24420, Note_on_c, 0, 79, 0
1, 24420, Note_on_c, 0, 77, 62
1, 24441, Note_on_c, 1, 52, 0
1, 24448, Note_on_c, 1, 58, 46
1, 24450, Note_on_c, 0, 77, 0
1, 24450, Note_on_c, 0, 79, 62
1, 24469, Note_on_c, 1, 58, 0
1, 24478, Note_on_c, 1, 53, 58
1, 24480, Note_on_c, 0, 79, 0
1, 24480, Note_on_c, 0, 77, 62
1, 24539, Note_on_c, 1, 57, 49
1, 24548, Note_on_c, 1, 53, 0
1, 24600, Note_on_c, 0, 77, 0
1, 24601, Note_on_c, 1, 60, 54
1, 24602, Note_on_c, 1, 57, 0
1, 24661, Note_on_c, 1, 65, 66
1, 24663, Note_on_c, 1, 60, 0
1, 24722, Note_on_c, 1, 64, 66
1, 24728, Note_on_c, 1, 65, 0
1, 24781, Note_on_c, 1, 64, 0
1, 24781, Note_on_c, 1, 63, 54
1, 24839, Note_on_c, 0, 82, 80
1, 24841, Note_on_c, 1, 63, 0
1, 24842, Note_on_c, 1, 62, 52
1, 24899, Note_on_c, 1, 62, 0
1, 24902, Note_on_c, 1, 65, 54
1, 24961, Note_on_c, 0, 84, 68
1, 24962, Note_on_c, 1, 65, 0
1, 24962, Note_on_c, 1, 60, 52
1, 24966, Note_on_c, 0, 82, 0
1, 25018, Note_on_c, 1, 60, 0
1, 25021, Note_on_c, 1, 65, 50
1, 25080, Note_on_c, 1, 65, 0
1, 25081, Note_on_c, 0, 86, 68
1, 25081, Note_on_c, 1, 58, 43
1, 25086, Note_on_c, 0, 84, 0
1, 25138, Note_on_c, 1, 58, 0
1, 25141, Note_on_c, 1, 65, 52
1, 25198, Note_on_c, 1, 65, 0
1, 25201, Note_on_c, 0, 86, 0
1, 25201, Note_on_c, 1, 57, 49
1, 25202, Note_on_c, 0, 84, 68
1, 25260, Note_on_c, 1, 57, 0
1, 25261, Note_on_c, 1, 65, 45
1, 25318, Note_on_c, 1, 65, 0
1, 25319, Note_on_c, 1, 64, 52
1, 25379, Note_on_c, 1, 65, 50
1, 25380, Note_on_c, 0, 84, 0
1, 25381, Note_on_c, 0, 86, 76
1, 25381, Note_on_c, 1, 64, 0
1, 25411, Note_on_c, 0, 84, 60
1, 25418, Note_on_c, 0, 86, 0
1, 25441, Note_on_c, 0, 82, 72
1, 25441, Note_on_c, 1, 58, 50
1, 25443, Note_on_c, 1, 65, 0
1, 25446, Note_on_c, 0, 84, 0
1, 25471, Note_on_c, 0, 81, 64
1, 25477, Note_on_c, 0, 82, 0
1, 25499, Note_on_c, 1, 58, 0
1, 25500, Note_on_c, 1, 67, 54
1, 25502, Note_on_c, 0, 79, 60
1, 25503, Note_on_c, 0, 81, 0
1, 25532, Note_on_c, 0, 77, 59
1, 25538, Note_on_c, 0, 79, 0
1, 25560, Note_on_c, 0, 77, 0
1, 25560, Note_on_c, 0, 81, 85
1, 25560, Note_on_c, 1, 60, 58
1, 25562, Note_on_c, 1, 67, 0
1, 25620, Note_on_c, 1, 60, 0
1, 25620, Note_on_c, 1, 69, 49
1, 25677, Note_on_c, 1, 69, 0
1, 25679, Note_on_c, 1, 65, 54
1, 25736, Note_on_c, 0, 81, 0
1, 25737, Note_on_c, 1, 65, 0
1, 25739, Note_on_c, 0, 82, 72
1, 25739, Note_on_c, 1, 69, 54
1, 25794, Note_on_c, 1, 69, 0
1, 25798, Note_on_c, 1, 60, 50
1, 25799, Note_on_c, 0, 79, 76
1, 25802, Note_on_c, 0, 82, 0
1, 25854, Note_on_c, 1, 60, 0
1, 25858, Note_on_c, 1, 70, 52
1, 25884, Note_on_c, 1, 70, 0
1, 25916, Note_on_c, 0, 79, 0
1, 25918, Note_on_c, 1, 69, 62
1, 25919, Note_on_c, 0, 77, 62
1, 25938, Note_on_c, 1, 69, 0
1, 25977, Note_on_c, 1, 65, 54
1, 26034, Note_on_c, 1, 65, 0
1, 26037, Note_on_c, 1, 64, 62
1, 26096, Note_on_c, 1, 64, 0
1, 26097, Note_on_c, 1, 63, 54
1, 26155, Note_on_c, 1, 63, 0
1, 26156, Note_on_c, 1, 62, 70
1, 26159, Note_on_c, 0, 77, 0
1, 26217, Note_on_c, 1, 61, 50
1, 26222, Note_on_c, 1, 62, 0
1, 26278, Note_on_c, 1, 62, 62
1, 26279, Note_on_c, 0, 70, 68
1, 26284, Note_on_c, 1, 61, 0
1, 26335, Note_on_c, 0, 70, 0
1, 26337, Note_on_c, 1, 62, 0
1, 26338, Note_on_c, 1, 65, 52
1, 26339, Note_on_c, 0, 82, 72
1, 26396, Note_on_c, 0, 82, 0
1, 26399, Note_on_c, 0, 72, 76
1, 26399, Note_on_c, 1, 60, 52
1, 26406, Note_on_c, 1, 65, 0
1, 26458, Note_on_c, 1, 60, 0
1, 26458, Note_on_c, 1, 64, 66
1, 26459, Note_on_c, 0, 72, 0
1, 26459, Note_on_c, 0, 84, 76
1, 26519, Note_on_c, 0, 84, 0
1, 26519, Note_on_c, 1, 59, 79
1, 26520, Note_on_c, 0, 74, 72
1, 26524, Note_on_c, 1, 64, 0
1, 26579, Note_on_c, 1, 68, 54
1, 26580, Note_on_c, 0, 86, 76
1, 26582, Note_on_c, 0, 74, 0
1, 26582, Note_on_c, 1, 59, 0
1, 26636, Note_on_c, 1, 68, 0
1, 26639, Note_on_c, 1, 60, 66
1, 26640, Note_on_c, 0, 86, 0
1, 26641, Note_on_c, 0, 84, 85
1, 26699, Note_on_c, 1, 69, 54
1, 26702, Note_on_c, 0, 86, 76
1, 26703, Note_on_c, 1, 60, 0
1, 26706, Note_on_c, 0, 84, 0
1, 26730, Note_on_c, 0, 86, 0
1, 26731, Note_on_c, 0, 88, 76
1, 26759, Note_on_c, 1, 65, 58
1, 26761, Note_on_c, 0, 89, 72
1, 26763, Note_on_c, 0, 88, 0
1, 26764, Note_on_c, 1, 69, 0
1, 26791, Note_on_c, 0, 88, 68
1, 26797, Note_on_c, 0, 89, 0
1, 26821, Note_on_c, 0, 86, 80
1, 26821, Note_on_c, 1, 65, 0
1, 26821, Note_on_c, 1, 69, 49
1, 26824, Note_on_c, 0, 88, 0
1, 26850, Note_on_c, 0, 86, 0
1, 26850, Note_on_c, 0, 84, 62
1, 26876, Note_on_c, 1, 69, 0
1, 26879, Note_on_c, 1, 60, 54
1, 26880, Note_on_c, 0, 82, 62
1, 26881, Note_on_c, 0, 84, 0
1, 26910, Note_on_c, 0, 82, 0
1, 26910, Note_on_c, 0, 81, 72
1, 26938, Note_on_c, 1, 60, 0
1, 26939, Note_on_c, 0, 79, 60
1, 26939, Note_on_c, 1, 69, 54
1, 26941, Note_on_c, 0, 81, 0
1, 26969, Note_on_c, 0, 77, 62
1, 26974, Note_on_c, 0, 79, 0
1, 26994, Note_on_c, 1, 69, 0
1, 26996, Note_on_c, 0, 77, 0
1, 26999, Note_on_c, 1, 60, 66
1, 27001, Note_on_c, 0, 81, 80
1, 27059, Note_on_c, 1, 60, 0
1, 27059, Note_on_c, 1, 72, 52
1, 27115, Note_on_c, 1, 72, 0
1, 27119, Note_on_c, 1, 69, 45
1, 27179, Note_on_c, 1, 72, 50
1, 27181, Note_on_c, 0, 82, 64
1, 27181, Note_on_c, 1, 69, 0
1, 27182, Note_on_c, 0, 81, 0
1, 27208, Note_on_c, 1, 72, 0
1, 27240, Note_on_c, 1, 60, 62
1, 27241, Note_on_c, 0, 79, 72
1, 27245, Note_on_c, 0, 82, 0
1, 27275, Note_on_c, 1, 60, 0
1, 27299, Note_on_c, 1, 70, 62
1, 27312, Note_on_c, 1, 70, 0
1, 27361, Note_on_c, 0, 79, 0
1, 27362, Note_on_c, 0, 77, 68
1, 27391, Note_on_c, 1, 53, 66
1, 27421, Note_on_c, 1, 57, 75
1, 27427, Note_on_c, 1, 53, 0
1, 27452, Note_on_c, 1, 60, 66
1, 27456, Note_on_c, 1, 57, 0
1, 27482, Note_on_c, 1, 65, 66
1, 27483, Note_on_c, 1, 60, 0
1, 27498, Note_on_c, 0, 77, 0
1, 27512, Note_on_c, 0, 84, 85
1, 27518, Note_on_c, 1, 65, 0
1, 27542, Note_on_c, 0, 86, 72
1, 27543, Note_on_c, 0, 84, 0
1, 27571, Note_on_c, 0, 84, 80
1, 27572, Note_on_c, 0, 86, 0
1, 27602, Note_on_c, 0, 82, 64
1, 27602, Note_on_c, 1, 60, 52
1, 27602, Note_on_c, 1, 64, 58
1, 27607, Note_on_c, 0, 84, 0
1, 27630, Note_on_c, 0, 82, 0
1, 27631, Note_on_c, 0, 81, 72
1, 27640, Note_on_c, 1, 64, 0
1, 27642, Note_on_c, 1, 60, 0
1, 27661, Note_on_c, 0, 82, 64
1, 27663, Note_on_c, 0, 81, 0
1, 27691, Note_on_c, 0, 79, 68
1, 27693, Note_on_c, 0, 82, 0
1, 27721, Note_on_c, 0, 77, 68
1, 27724, Note_on_c, 0, 79, 0
1, 27750, Note_on_c, 1, 41, 70
1, 27781, Note_on_c, 1, 45, 70
1, 27791, Note_on_c, 1, 41, 0
1, 27809, Note_on_c, 1, 45, 0
1, 27811, Note_on_c, 1, 48, 62
1, 27824, Note_on_c, 0, 77, 0
1, 27841, Note_on_c, 1, 48, 0
1, 27841, Note_on_c, 1, 53, 50
1, 27872, Note_on_c, 0, 72, 76
1, 27878, Note_on_c, 1, 53, 0
1, 27901, Note_on_c, 0, 74, 62
1, 27902, Note_on_c, 0, 72, 0
1, 27928, Note_on_c, 0, 74, 0
1, 27931, Note_on_c, 0, 72, 64
1, 27960, Note_on_c, 0, 70, 62
1, 27960, Note_on_c, 1, 48, 54
1, 27960, Note_on_c, 1, 52, 52
1, 27962, Note_on_c, 0, 72, 0
1, 27991, Note_on_c, 0, 69, 68
1, 27993, Note_on_c, 0, 70, 0
1, 28008, Note_on_c, 1, 48, 0
1, 28009, Note_on_c, 1, 52, 0
1, 28020, Note_on_c, 0, 69, 0
1, 28021, Note_on_c, 0, 70, 64
1, 28051, Note_on_c, 0, 67, 55
1, 28054, Note_on_c, 0, 70, 0
1, 28077, Note_on_c, 0, 67, 0
1, 28082, Note_on_c, 0, 65, 72
1, 28082, Note_on_c, 1, 53, 52
1, 28123, Note_on_c, 0, 65, 0
1, 28201, Note_on_c, 0, 72, 80
1, 28201, Note_on_c, 0, 69, 76
1, 28201, Note_on_c, 0, 77, 72
1, 28201, Note_on_c, 1, 53, 0
1, 28202, Note_on_c, 1, 41, 66
1, 28245, Note_on_c, 0, 69, 0
1, 28248, Note_on_c, 0, 72, 0
1, 28252, Note_on_c, 0, 77, 0
1, 28327, Note_on_c, 1, 41, 0
1, 28441, Note_on_c, 0, 66, 89
1, 28441, Note_on_c, 1, 51, 88
1, 28498, Note_on_c, 0, 66, 0
1, 28560, Note_on_c, 0, 78, 68
1, 28561, Note_on_c, 0, 68, 76
1, 28561, Note_on_c, 0, 72, 80
1, 28561, Note_on_c, 1, 39, 70
1, 28565, Note_on_c, 1, 51, 0
1, 28636, Note_on_c, 0, 68, 0
1, 28639, Note_on_c, 0, 72, 0
1, 28641, Note_on_c, 0, 78, 0
1, 28674, Note_on_c, 1, 39, 0
1, 28793, Note_on_c, 1, 49, 28
1, 28793, Note_on_c, 1, 53, 40
1, 28794, Note_on_c, 0, 61, 59
1, 28860, Note_on_c, 1, 53, 0
1, 28860, Note_on_c, 1, 56, 41
1, 28920, Note_on_c, 1, 56, 0
1, 28920, Note_on_c, 1, 53, 40
1, 28977, Note_on_c, 1, 53, 0
1, 28980, Note_on_c, 1, 56, 30
1, 29034, Note_on_c, 1, 56, 0
1, 29039, Note_on_c, 0, 61, 0
1, 29039, Note_on_c, 1, 53, 36
1, 29040, Note_on_c, 0, 63, 59
1, 29071, Note_on_c, 0, 61, 62
1, 29078, Note_on_c, 0, 63, 0
1, 29099, Note_on_c, 1, 56, 38
1, 29100, Note_on_c, 1, 53, 0
1, 29101, Note_on_c, 0, 61, 0
1, 29101, Note_on_c, 0, 60, 64
1, 29106, Note_on_c, 1, 49, 0
1, 29131, Note_on_c, 0, 61, 57
1, 29133, Note_on_c, 1, 56, 0
1, 29138, Note_on_c, 0, 60, 0
1, 29161, Note_on_c, 0, 70, 56
1, 29162, Note_on_c, 0, 61, 0
1, 29162, Note_on_c, 1, 48, 50
1, 29162, Note_on_c, 1, 54, 39
1, 29220, Note_on_c, 1, 54, 0
1, 29222, Note_on_c, 0, 68, 62
1, 29222, Note_on_c, 1, 56, 42
1, 29226, Note_on_c, 0, 70, 0
1, 29276, Note_on_c, 0, 68, 0
1, 29280, Note_on_c, 0, 68, 64
1, 29283, Note_on_c, 1, 54, 46
1, 29292, Note_on_c, 1, 56, 0
1, 29343, Note_on_c, 1, 54, 0
1, 29343, Note_on_c, 1, 56, 40
1, 29347, Note_on_c, 0, 68, 0
1, 29400, Note_on_c, 1, 56, 0
1, 29402, Note_on_c, 0, 68, 72
1, 29403, Note_on_c, 1, 54, 45
1, 29460, Note_on_c, 1, 54, 0
1, 29462, Note_on_c, 1, 56, 40
1, 29474, Note_on_c, 1, 48, 0
1, 29481, Note_on_c, 0, 68, 0
1, 29522, Note_on_c, 0, 68, 57
1, 29522, Note_on_c, 1, 56, 0
1, 29522, Note_on_c, 1, 53, 43
1, 29522, Note_on_c, 1, 49, 40
1, 29576, Note_on_c, 1, 53, 0
1, 29581, Note_on_c, 1, 56, 34
1, 29582, Note_on_c, 0, 73, 60
1, 29583, Note_on_c, 0, 68, 0
1, 29639, Note_on_c, 1, 56, 0
1, 29640, Note_on_c, 0, 73, 0
1, 29641, Note_on_c, 0, 72, 64
1, 29641, Note_on_c, 1, 53, 45
1, 29697, Note_on_c, 1, 53, 0
1, 29701, Note_on_c, 1, 56, 35
1, 29702, Note_on_c, 0, 72, 0
1, 29702, Note_on_c, 0, 71, 68
1, 29759, Note_on_c, 1, 56, 0
1, 29760, Note_on_c, 0, 71, 0
1, 29761, Note_on_c, 0, 70, 60
1, 29761, Note_on_c, 1, 53, 46
1, 29820, Note_on_c, 0, 70, 0
1, 29820, Note_on_c, 1, 56, 37
1, 29821, Note_on_c, 0, 69, 76
1, 29823, Note_on_c, 1, 53, 0
1, 29827, Note_on_c, 1, 49, 0
1, 29860, Note_on_c, 1, 56, 0
1, 29880, Note_on_c, 0, 69, 0
1, 29881, Note_on_c, 0, 68, 60
1, 29881, Note_on_c, 1, 54, 41
1, 29881, Note_on_c, 1, 48, 49
1, 29936, Note_on_c, 1, 54, 0
1, 29941, Note_on_c, 1, 56, 30
1, 29997, Note_on_c, 1, 56, 0
1, 29999, Note_on_c, 1, 54, 43
1, 30007, Note_on_c, 0, 68, 0
1, 30054, Note_on_c, 1, 54, 0
1, 30059, Note_on_c, 1, 56, 35
1, 30117, Note_on_c, 1, 56, 0
1, 30118, Note_on_c, 1, 54, 40
1, 30178, Note_on_c, 1, 54, 0
1, 30178, Note_on_c, 1, 56, 34
1, 30187, Note_on_c, 1, 48, 0
1, 30215, Note_on_c, 1, 56, 0
1, 30238, Note_on_c, 1, 49, 34
1, 30239, Note_on_c, 1, 53, 46
1, 30240, Note_on_c, 0, 61, 72
1, 30299, Note_on_c, 1, 56, 37
1, 30301, Note_on_c, 1, 53, 0
1, 30355, Note_on_c, 1, 56, 0
1, 30359, Note_on_c, 1, 53, 42
1, 30415, Note_on_c, 1, 53, 0
1, 30418, Note_on_c, 1, 56, 26
1, 30475, Note_on_c, 1, 56, 0
1, 30478, Note_on_c, 1, 53, 40
1, 30479, Note_on_c, 0, 63, 64
1, 30480, Note_on_c, 0, 61, 0
1, 30511, Note_on_c, 0, 61, 68
1, 30516, Note_on_c, 0, 63, 0
1, 30539, Note_on_c, 1, 56, 35
1, 30541, Note_on_c, 0, 60, 62
1, 30542, Note_on_c, 1, 53, 0
1, 30546, Note_on_c, 0, 61, 0
1, 30549, Note_on_c, 1, 49, 0
1, 30571, Note_on_c, 0, 61, 52
1, 30572, Note_on_c, 1, 56, 0
1, 30577, Note_on_c, 0, 60, 0
1, 30601, Note_on_c, 0, 61, 0
1, 30602, Note_on_c, 0, 70, 56
1, 30602, Note_on_c, 1, 51, 43
1, 30602, Note_on_c, 1, 48, 47
1, 30658, Note_on_c, 0, 70, 0
1, 30659, Note_on_c, 1, 51, 0
1, 30661, Note_on_c, 1, 54, 39
1, 30662, Note_on_c, 0, 69, 76
1, 30713, Note_on_c, 0, 69, 0
1, 30722, Note_on_c, 0, 69, 53
1, 30722, Note_on_c, 1, 51, 45
1, 30724, Note_on_c, 1, 54, 0
1, 30778, Note_on_c, 1, 51, 0
1, 30781, Note_on_c, 1, 54, 38
1, 30811, Note_on_c, 0, 69, 0
1, 30836, Note_on_c, 1, 54, 0
1, 30839, Note_on_c, 0, 69, 72
1, 30841, Note_on_c, 1, 51, 45
1, 30898, Note_on_c, 1, 51, 0
1, 30899, Note_on_c, 1, 54, 38
1, 30902, Note_on_c, 1, 48, 0
1, 30942, Note_on_c, 1, 54, 0
1, 30959, Note_on_c, 0, 69, 0
1, 30959, Note_on_c, 1, 49, 46
1, 30960, Note_on_c, 0, 70, 72
1, 30960, Note_on_c, 1, 53, 46
1, 31017, Note_on_c, 1, 53, 0
1, 31019, Note_on_c, 0, 77, 76
1, 31021, Note_on_c, 0, 70, 0
1, 31021, Note_on_c, 1, 58, 36
1, 31074, Note_on_c, 1, 58, 0
1, 31079, Note_on_c, 1, 53, 43
1, 31081, Note_on_c, 0, 73, 72
1, 31087, Note_on_c, 0, 77, 0
1, 31134, Note_on_c, 1, 53, 0
1, 31138, Note_on_c, 1, 58, 30
1, 31141, Note_on_c, 0, 72, 72
1, 31144, Note_on_c, 0, 73, 0
1, 31201, Note_on_c, 0, 70, 56
1, 31201, Note_on_c, 1, 53, 47
1, 31202, Note_on_c, 0, 72, 0
1, 31204, Note_on_c, 1, 58, 0
1, 31259, Note_on_c, 1, 53, 0
1, 31261, Note_on_c, 0, 68, 55
1, 31261, Note_on_c, 1, 58, 41
1, 31266, Note_on_c, 0, 70, 0
1, 31268, Note_on_c, 1, 49, 0
1, 31281, Note_on_c, 1, 58, 0
1, 31322, Note_on_c, 0, 67, 51
1, 31322, Note_on_c, 1, 52, 52
1, 31322, Note_on_c, 1, 58, 33
1, 31323, Note_on_c, 0, 68, 0
1, 31375, Note_on_c, 1, 58, 0
1, 31381, Note_on_c, 1, 61, 40
1, 31436, Note_on_c, 1, 61, 0
1, 31439, Note_on_c, 0, 67, 0
1, 31440, Note_on_c, 1, 58, 41
1, 31494, Note_on_c, 1, 58, 0
1, 31499, Note_on_c, 1, 61, 35
1, 31557, Note_on_c, 1, 61, 0
1, 31558, Note_on_c, 1, 58, 43
1, 31614, Note_on_c, 1, 58, 0
1, 31618, Note_on_c, 1, 52, 0
1, 31618, Note_on_c, 1, 61, 43
1, 31645, Note_on_c, 1, 61, 0
1, 31678, Note_on_c, 1, 53, 46
1, 31679, Note_on_c, 1, 56, 50
1, 31681, Note_on_c, 0, 68, 60
1, 31738, Note_on_c, 1, 56, 0
1, 31739, Note_on_c, 1, 60, 40
1, 31741, Note_on_c, 0, 80, 85
1, 31742, Note_on_c, 0, 68, 0
1, 31800, Note_on_c, 1, 56, 47
1, 31801, Note_on_c, 0, 77, 64
1, 31802, Note_on_c, 1, 60, 0
1, 31806, Note_on_c, 0, 80, 0
1, 31854, Note_on_c, 1, 56, 0
1, 31859, Note_on_c, 1, 60, 40
1, 31861, Note_on_c, 0, 75, 57
1, 31864, Note_on_c, 0, 77, 0
1, 31916, Note_on_c, 1, 60, 0
1, 31919, Note_on_c, 1, 56, 40
1, 31921, Note_on_c, 0, 74, 64
1, 31922, Note_on_c, 0, 75, 0
1, 31978, Note_on_c, 0, 74, 0
1, 31979, Note_on_c, 1, 56, 0
1, 31979, Note_on_c, 1, 60, 50
1, 31981, Note_on_c, 0, 72, 56
1, 31990, Note_on_c, 1, 53, 0
1, 32000, Note_on_c, 1, 60, 0
1, 32039, Note_on_c, 1, 55, 41
1, 32041, Note_on_c, 0, 71, 64
1, 32041, Note_on_c, 1, 62, 46
1, 32045, Note_on_c, 0, 72, 0
1, 32097, Note_on_c, 1, 62, 0
1, 32099, Note_on_c, 1, 65, 49
1, 32159, Note_on_c, 1, 62, 45
1, 32161, Note_on_c, 1, 65, 0
1, 32164, Note_on_c, 0, 71, 0
1, 32216, Note_on_c, 1, 62, 0
1, 32219, Note_on_c, 1, 65, 42
1, 32275, Note_on_c, 1, 65, 0
1, 32280, Note_on_c, 1, 62, 40
1, 32338, Note_on_c, 1, 62, 0
1, 32339, Note_on_c, 1, 65, 49
1, 32342, Note_on_c, 1, 55, 0
1, 32369, Note_on_c, 1, 65, 0
1, 32400, Note_on_c, 1, 56, 43
1, 32401, Note_on_c, 0, 72, 72
1, 32401, Note_on_c, 1, 60, 52
1, 32419, Note_on_c, 0, 72, 0
1, 32461, Note_on_c, 1, 60, 0
1, 32461, Note_on_c, 1, 63, 39
1, 32462, Note_on_c, 0, 87, 68
1, 32521, Note_on_c, 0, 87, 0
1, 32521, Note_on_c, 0, 84, 68
1, 32521, Note_on_c, 1, 60, 46
1, 32523, Note_on_c, 1, 63, 0
1, 32575, Note_on_c, 1, 60, 0
1, 32580, Note_on_c, 1, 63, 35
1, 32581, Note_on_c, 0, 84, 0
1, 32582, Note_on_c, 0, 82, 80
1, 32634, Note_on_c, 1, 63, 0
1, 32636, Note_on_c, 0, 82, 0
1, 32640, Note_on_c, 0, 80, 60
1, 32640, Note_on_c, 1, 60, 46
1, 32699, Note_on_c, 0, 80, 0
1, 32699, Note_on_c, 0, 79, 64
1, 32699, Note_on_c, 1, 60, 0
1, 32699, Note_on_c, 1, 63, 32
1, 32713, Note_on_c, 1, 56, 0
1, 32723, Note_on_c, 1, 63, 0
1, 32759, Note_on_c, 1, 60, 46
1, 32759, Note_on_c, 1, 57, 46
1, 32761, Note_on_c, 0, 79, 0
1, 32761, Note_on_c, 0, 78, 56
1, 32821, Note_on_c, 1, 60, 0
1, 32821, Note_on_c, 1, 62, 36
1, 32871, Note_on_c, 1, 62, 0
1, 32879, Note_on_c, 1, 60, 46
1, 32881, Note_on_c, 0, 78, 0
1, 32941, Note_on_c, 1, 62, 49
1, 32946, Note_on_c, 1, 60, 0
1, 32995, Note_on_c, 1, 62, 0
1, 32999, Note_on_c, 1, 60, 49
1, 33058, Note_on_c, 1, 60, 0
1, 33060, Note_on_c, 1, 62, 47
1, 33070, Note_on_c, 1, 57, 0
1, 33073, Note_on_c, 1, 62, 0
1, 33119, Note_on_c, 1, 58, 40
1, 33119, Note_on_c, 1, 62, 54
1, 33120, Note_on_c, 0, 79, 76
1, 33177, Note_on_c, 1, 62, 0
1, 33179, Note_on_c, 1, 67, 41
1, 33180, Note_on_c, 0, 79, 0
1, 33180, Note_on_c, 0, 82, 60
1, 33236, Note_on_c, 1, 67, 0
1, 33238, Note_on_c, 1, 62, 52
1, 33239, Note_on_c, 0, 79, 68
1, 33240, Note_on_c, 0, 82, 0
1, 33295, Note_on_c, 1, 62, 0
1, 33299, Note_on_c, 1, 67, 36
1, 33301, Note_on_c, 0, 77, 57
1, 33303, Note_on_c, 0, 79, 0
1, 33356, Note_on_c, 1, 67, 0
1, 33358, Note_on_c, 1, 62, 50
1, 33361, Note_on_c, 0, 75, 56
1, 33363, Note_on_c, 0, 77, 0
1, 33414, Note_on_c, 1, 62, 0
1, 33418, Note_on_c, 1, 67, 45
1, 33419, Note_on_c, 0, 75, 0
1, 33420, Note_on_c, 0, 74, 59
1, 33442, Note_on_c, 1, 58, 0
1, 33449, Note_on_c, 1, 67, 0
1, 33479, Note_on_c, 1, 63, 46
1, 33479, Note_on_c, 1, 67, 41
1, 33481, Note_on_c, 0, 73, 57
1, 33483, Note_on_c, 0, 74, 0
1, 33514, Note_on_c, 1, 67, 0
1, 33539, Note_on_c, 1, 69, 34
1, 33595, Note_on_c, 1, 69, 0
1, 33598, Note_on_c, 0, 73, 0
1, 33600, Note_on_c, 1, 67, 20
1, 33655, Note_on_c, 1, 67, 0
1, 33659, Note_on_c, 1, 69, 43
1, 33716, Note_on_c, 1, 69, 0
1, 33719, Note_on_c, 1, 67, 41
1, 33774, Note_on_c, 1, 67, 0
1, 33779, Note_on_c, 1, 69, 50
1, 33782, Note_on_c, 1, 63, 0
1, 33798, Note_on_c, 1, 69, 0
1, 33838, Note_on_c, 1, 66, 66
1, 33838, Note_on_c, 1, 62, 75
1, 33840, Note_on_c, 1, 66, 62
1, 33840, Note_on_c, 1, 62, 83
1, 33872, Note_on_c, 0, 74, 89
1, 33897, Note_on_c, 1, 62, 0
1, 33899, Note_on_c, 1, 66, 0
1, 33902, Note_on_c, 0, 73, 57
1, 33907, Note_on_c, 0, 74, 0
1, 33930, Note_on_c, 0, 73, 0
1, 33932, Note_on_c, 0, 74, 89
1, 33962, Note_on_c, 0, 76, 76
1, 33963, Note_on_c, 0, 74, 0
1, 33982, Note_on_c, 1, 62, 0
1, 33984, Note_on_c, 1, 66, 0
1, 33991, Note_on_c, 0, 74, 72
1, 33992, Note_on_c, 0, 76, 0
1, 34022, Note_on_c, 0, 73, 62
1, 34023, Note_on_c, 0, 74, 0
1, 34048, Note_on_c, 0, 73, 0
1, 34051, Note_on_c, 0, 74, 76
1, 34074, Note_on_c, 0, 74, 0
1, 34081, Note_on_c, 1, 72, 83
1, 34112, Note_on_c, 0, 74, 80
1, 34142, Note_on_c, 0, 78, 72
1, 34144, Note_on_c, 0, 74, 0
1, 34172, Note_on_c, 0, 74, 80
1, 34173, Note_on_c, 0, 78, 0
1, 34192, Note_on_c, 0, 74, 0
1, 34202, Note_on_c, 1, 70, 79
1, 34210, Note_on_c, 1, 72, 0
1, 34231, Note_on_c, 0, 74, 76
1, 34260, Note_on_c, 0, 74, 0
1, 34261, Note_on_c, 0, 79, 80
1, 34290, Note_on_c, 0, 79, 0
1, 34291, Note_on_c, 0, 74, 62
1, 34312, Note_on_c, 0, 74, 0
1, 34319, Note_on_c, 1, 70, 0
1, 34321, Note_on_c, 1, 66, 79
1, 34351, Note_on_c, 0, 74, 76
1, 34381, Note_on_c, 0, 84, 89
1, 34382, Note_on_c, 0, 74, 0
1, 34409, Note_on_c, 0, 84, 0
1, 34411, Note_on_c, 0, 74, 62
1, 34431, Note_on_c, 0, 74, 0
1, 34438, Note_on_c, 1, 66, 0
1, 34441, Note_on_c, 1, 67, 88
1, 34471, Note_on_c, 0, 74, 72
1, 34501, Note_on_c, 0, 74, 0
1, 34502, Note_on_c, 0, 82, 80
1, 34531, Note_on_c, 0, 82, 0
1, 34532, Note_on_c, 0, 74, 76
1, 34556, Note_on_c, 0, 74, 0
1, 34561, Note_on_c, 0, 81, 76
1, 34562, Note_on_c, 1, 62, 83
1, 34564, Note_on_c, 1, 67, 0
1, 34591, Note_on_c, 0, 78, 64
1, 34593, Note_on_c, 0, 81, 0
1, 34621, Note_on_c, 0, 76, 76
1, 34624, Note_on_c, 0, 78, 0
1, 34650, Note_on_c, 0, 76, 0
1, 34651, Note_on_c, 0, 74, 68
1, 34681, Note_on_c, 0, 74, 0
1, 34681, Note_on_c, 0, 73, 68
1, 34685, Note_on_c, 1, 62, 0
1, 34709, Note_on_c, 0, 73, 0
1, 34711, Note_on_c, 0, 74, 62
1, 34741, Note_on_c, 0, 76, 76
1, 34742, Note_on_c, 0, 74, 0
1, 34770, Note_on_c, 0, 76, 0
1, 34771, Note_on_c, 0, 74, 76
1, 34794, Note_on_c, 0, 74, 0
1, 34801, Note_on_c, 1, 72, 92
1, 34831, Note_on_c, 0, 74, 76
1, 34861, Note_on_c, 0, 78, 76
1, 34862, Note_on_c, 0, 74, 0
1, 34891, Note_on_c, 0, 74, 76
1, 34893, Note_on_c, 0, 78, 0
1, 34910, Note_on_c, 0, 74, 0
1, 34921, Note_on_c, 1, 70, 83
1, 34922, Note_on_c, 1, 72, 0
1, 34952, Note_on_c, 0, 74, 76
1, 34982, Note_on_c, 0, 79, 76
1, 34983, Note_on_c, 0, 74, 0
1, 35009, Note_on_c, 0, 79, 0
1, 35012, Note_on_c, 0, 74, 80
1, 35029, Note_on_c, 0, 74, 0
1, 35042, Note_on_c, 1, 66, 79
1, 35046, Note_on_c, 1, 70, 0
1, 35072, Note_on_c, 0, 74, 72
1, 35099, Note_on_c, 0, 74, 0
1, 35102, Note_on_c, 0, 84, 85
1, 35132, Note_on_c, 0, 84, 0
1, 35132, Note_on_c, 0, 74, 76
1, 35148, Note_on_c, 0, 74, 0
1, 35159, Note_on_c, 1, 66, 0
1, 35161, Note_on_c, 1, 67, 83
1, 35192, Note_on_c, 0, 74, 76
1, 35217, Note_on_c, 0, 74, 0
1, 35221, Note_on_c, 0, 82, 76
1, 35249, Note_on_c, 0, 82, 0
1, 35251, Note_on_c, 0, 74, 72
1, 35276, Note_on_c, 0, 74, 0
1, 35279, Note_on_c, 1, 67, 0
1, 35281, Note_on_c, 0, 81, 76
1, 35281, Note_on_c, 1, 62, 83
1, 35311, Note_on_c, 0, 86, 72
1, 35312, Note_on_c, 0, 81, 0
1, 35341, Note_on_c, 0, 81, 68
1, 35344, Note_on_c, 0, 86, 0
1, 35370, Note_on_c, 0, 78, 53
1, 35372, Note_on_c, 0, 81, 0
1, 35400, Note_on_c, 0, 78, 0
1, 35401, Note_on_c, 0, 74, 80
1, 35401, Note_on_c, 1, 62, 0
1, 35431, Note_on_c, 0, 74, 0
1, 35431, Note_on_c, 0, 81, 60
1, 35461, Note_on_c, 0, 78, 62
1, 35465, Note_on_c, 0, 81, 0
1, 35489, Note_on_c, 0, 74, 68
1, 35491, Note_on_c, 0, 78, 0
1, 35516, Note_on_c, 0, 74, 0
1, 35519, Note_on_c, 0, 69, 72
1, 35549, Note_on_c, 0, 69, 0
1, 35549, Note_on_c, 0, 74, 80
1, 35549, Note_on_c, 1, 62, 83
1, 35576, Note_on_c, 0, 74, 0
1, 35579, Note_on_c, 0, 69, 68
1, 35579, Note_on_c, 1, 57, 79
1, 35582, Note_on_c, 1, 62, 0
1, 35609, Note_on_c, 0, 66, 64
1, 35609, Note_on_c, 1, 54, 66
1, 35610, Note_on_c, 1, 57, 0
1, 35611, Note_on_c, 0, 69, 0
1, 35630, Note_on_c, 0, 66, 0
1, 35638, Note_on_c, 1, 54, 0
1, 35639, Note_on_c, 1, 50, 79
1, 35641, Note_on_c, 0, 62, 89
1, 35704, Note_on_c, 0, 62, 0
1, 35754, Note_on_c, 1, 50, 0
1, 35759, Note_on_c, 1, 38, 83
1, 35761, Note_on_c, 0, 69, 80
1, 35761, Note_on_c, 0, 74, 76
1, 35761, Note_on_c, 0, 66, 64
1, 35824, Note_on_c, 0, 66, 0
1, 35827, Note_on_c, 0, 69, 0
1, 35832, Note_on_c, 0, 74, 0
1, 35890, Note_on_c, 1, 38, 0
1, 36002, Note_on_c, 1, 55, 49
1, 36238, Note_on_c, 1, 55, 0
1, 36241, Note_on_c, 1, 50, 45
1, 36361, Note_on_c, 1, 50, 0
1, 36361, Note_on_c, 1, 47, 43
1, 36597, Note_on_c, 1, 47, 0
1, 36598, Note_on_c, 1, 50, 62
1, 36718, Note_on_c, 1, 50, 0
1, 36721, Note_on_c, 1, 55, 54
1, 36781, Note_on_c, 0, 86, 76
1, 36820, Note_on_c, 0, 86, 0
1, 36841, Note_on_c, 0, 86, 68
1, 36881, Note_on_c, 0, 86, 0
1, 36902, Note_on_c, 0, 86, 76
1, 36938, Note_on_c, 0, 86, 0
1, 36960, Note_on_c, 1, 59, 70
1, 36961, Note_on_c, 1, 55, 0
1, 36962, Note_on_c, 0, 86, 76
1, 37001, Note_on_c, 0, 86, 0
1, 37021, Note_on_c, 0, 86, 89
1, 37078, Note_on_c, 0, 86, 0
1, 37080, Note_on_c, 1, 59, 0
1, 37082, Note_on_c, 0, 87, 72
1, 37082, Note_on_c, 1, 62, 50
1, 37142, Note_on_c, 0, 86, 72
1, 37144, Note_on_c, 0, 87, 0
1, 37202, Note_on_c, 0, 86, 0
1, 37202, Note_on_c, 0, 84, 68
1, 37213, Note_on_c, 1, 62, 0
1, 37261, Note_on_c, 0, 83, 68
1, 37262, Note_on_c, 0, 84, 0
1, 37318, Note_on_c, 0, 83, 0
1, 37322, Note_on_c, 0, 80, 72
1, 37380, Note_on_c, 0, 80, 0
1, 37384, Note_on_c, 0, 79, 80
1, 37422, Note_on_c, 0, 79, 0
1, 37440, Note_on_c, 0, 80, 60
1, 37440, Note_on_c, 1, 55, 52
1, 37455, Note_on_c, 0, 80, 0
1, 37455, Note_on_c, 0, 79, 60
1, 37470, Note_on_c, 0, 79, 0
1, 37470, Note_on_c, 0, 80, 60
1, 37485, Note_on_c, 0, 80, 0
1, 37485, Note_on_c, 0, 79, 60
1, 37500, Note_on_c, 0, 79, 0
1, 37500, Note_on_c, 0, 77, 60
1, 37560, Note_on_c, 0, 77, 0
1, 37560, Note_on_c, 0, 77, 60
1, 37680, Note_on_c, 0, 77, 0
1, 37683, Note_on_c, 1, 50, 47
1, 37700, Note_on_c, 1, 55, 0
1, 37801, Note_on_c, 1, 50, 0
1, 37802, Note_on_c, 1, 47, 47
1, 38023, Note_on_c, 1, 47, 0
1, 38037, Note_on_c, 1, 50, 66
1, 38160, Note_on_c, 1, 55, 66
1, 38169, Note_on_c, 1, 50, 0
1, 38221, Note_on_c, 0, 77, 68
1, 38268, Note_on_c, 0, 77, 0
1, 38282, Note_on_c, 0, 77, 72
1, 38325, Note_on_c, 0, 77, 0
1, 38342, Note_on_c, 0, 77, 76
1, 38386, Note_on_c, 0, 77, 0
1, 38402, Note_on_c, 0, 77, 80
1, 38402, Note_on_c, 1, 59, 66
1, 38410, Note_on_c, 1, 55, 0
1, 38444, Note_on_c, 0, 77, 0
1, 38462, Note_on_c, 0, 77, 80
1, 38515, Note_on_c, 0, 77, 0
1, 38522, Note_on_c, 0, 79, 89
1, 38522, Note_on_c, 1, 62, 54
1, 38523, Note_on_c, 1, 59, 0
1, 38580, Note_on_c, 0, 79, 0
1, 38581, Note_on_c, 0, 77, 76
1, 38641, Note_on_c, 0, 75, 62
1, 38644, Note_on_c, 0, 77, 0
1, 38648, Note_on_c, 1, 62, 0
1, 38700, Note_on_c, 0, 75, 0
1, 38701, Note_on_c, 0, 74, 64
1, 38761, Note_on_c, 0, 72, 62
1, 38762, Note_on_c, 0, 74, 0
1, 38821, Note_on_c, 0, 71, 64
1, 38826, Note_on_c, 0, 72, 0
1, 38881, Note_on_c, 0, 72, 72
1, 38884, Note_on_c, 0, 71, 0
1, 39113, Note_on_c, 0, 72, 0
1, 39119, Note_on_c, 0, 67, 62
1, 39242, Note_on_c, 0, 63, 56
1, 39248, Note_on_c, 0, 67, 0
1, 39477, Note_on_c, 0, 63, 0
1, 39481, Note_on_c, 0, 67, 76
1, 39600, Note_on_c, 0, 67, 0
1, 39601, Note_on_c, 0, 72, 72
1, 39659, Note_on_c, 1, 55, 50
1, 39691, Note_on_c, 1, 55, 0
1, 39719, Note_on_c, 1, 55, 58
1, 39757, Note_on_c, 1, 55, 0
1, 39778, Note_on_c, 1, 55, 62
1, 39810, Note_on_c, 1, 55, 0
1, 39838, Note_on_c, 1, 55, 70
1, 39840, Note_on_c, 0, 75, 64
1, 39841, Note_on_c, 0, 72, 0
1, 39868, Note_on_c, 1, 55, 0
1, 39899, Note_on_c, 1, 55, 75
1, 39936, Note_on_c, 1, 55, 0
1, 39954, Note_on_c, 0, 75, 0
1, 39961, Note_on_c, 0, 79, 64
1, 39961, Note_on_c, 1, 56, 75
1, 40021, Note_on_c, 1, 55, 62
1, 40022, Note_on_c, 1, 56, 0
1, 40081, Note_on_c, 1, 53, 50
1, 40082, Note_on_c, 0, 79, 0
1, 40084, Note_on_c, 1, 55, 0
1, 40137, Note_on_c, 1, 53, 0
1, 40139, Note_on_c, 1, 51, 47
1, 40199, Note_on_c, 1, 50, 52
1, 40200, Note_on_c, 1, 51, 0
1, 40254, Note_on_c, 1, 50, 0
1, 40258, Note_on_c, 1, 48, 50
1, 40303, Note_on_c, 1, 48, 0
1, 40319, Note_on_c, 1, 48, 62
1, 40321, Note_on_c, 0, 76, 72
1, 40379, Note_on_c, 1, 46, 70
1, 40381, Note_on_c, 1, 48, 0
1, 40426, Note_on_c, 1, 46, 0
1, 40441, Note_on_c, 1, 46, 50
1, 40559, Note_on_c, 0, 72, 72
1, 40561, Note_on_c, 0, 76, 0
1, 40566, Note_on_c, 1, 46, 0
1, 40681, Note_on_c, 0, 67, 68
1, 40687, Note_on_c, 0, 72, 0
1, 40921, Note_on_c, 0, 72, 76
1, 40922, Note_on_c, 0, 67, 0
1, 41040, Note_on_c, 0, 72, 0
1, 41041, Note_on_c, 0, 76, 76
1, 41099, Note_on_c, 1, 58, 52
1, 41146, Note_on_c, 1, 58, 0
1, 41159, Note_on_c, 1, 58, 62
1, 41197, Note_on_c, 1, 58, 0
1, 41219, Note_on_c, 1, 58, 66
1, 41252, Note_on_c, 1, 58, 0
1, 41279, Note_on_c, 1, 58, 70
1, 41280, Note_on_c, 0, 76, 0
1, 41280, Note_on_c, 0, 79, 85
1, 41301, Note_on_c, 1, 58, 0
1, 41338, Note_on_c, 1, 58, 70
1, 41372, Note_on_c, 1, 58, 0
1, 41399, Note_on_c, 1, 60, 79
1, 41401, Note_on_c, 0, 82, 85
1, 41407, Note_on_c, 0, 79, 0
1, 41459, Note_on_c, 1, 58, 52
1, 41464, Note_on_c, 1, 60, 0
1, 41519, Note_on_c, 1, 56, 66
1, 41520, Note_on_c, 1, 58, 0
1, 41525, Note_on_c, 0, 82, 0
1, 41576, Note_on_c, 1, 56, 0
1, 41579, Note_on_c, 1, 55, 54
1, 41638, Note_on_c, 1, 53, 62
1, 41639, Note_on_c, 1, 55, 0
1, 41694, Note_on_c, 1, 53, 0
1, 41697, Note_on_c, 1, 52, 46
1, 41758, Note_on_c, 1, 53, 58
1, 41760, Note_on_c, 1, 52, 0
1, 41822, Note_on_c, 0, 80, 76
1, 41867, Note_on_c, 0, 80, 0
1, 41883, Note_on_c, 0, 80, 76
1, 41909, Note_on_c, 1, 53, 0
1, 41926, Note_on_c, 0, 80, 0
1, 41942, Note_on_c, 0, 80, 76
1, 41980, Note_on_c, 0, 80, 0
1, 42002, Note_on_c, 0, 80, 85
1, 42045, Note_on_c, 0, 80, 0
1, 42061, Note_on_c, 0, 80, 80
1, 42121, Note_on_c, 0, 80, 0
1, 42121, Note_on_c, 1, 58, 41
1, 42121, Note_on_c, 1, 65, 45
1, 42121, Note_on_c, 1, 62, 50
1, 42122, Note_on_c, 0, 82, 76
1, 42182, Note_on_c, 0, 80, 72
1, 42184, Note_on_c, 0, 82, 0
1, 42191, Note_on_c, 1, 62, 0
1, 42191, Note_on_c, 1, 65, 0
1, 42241, Note_on_c, 1, 63, 50
1, 42241, Note_on_c, 1, 67, 45
1, 42242, Note_on_c, 0, 80, 0
1, 42242, Note_on_c, 0, 79, 76
1, 42280, Note_on_c, 1, 63, 0
1, 42289, Note_on_c, 1, 67, 0
1, 42301, Note_on_c, 0, 79, 0
1, 42301, Note_on_c, 0, 77, 68
1, 42361, Note_on_c, 1, 65, 54
1, 42361, Note_on_c, 1, 68, 50
1, 42362, Note_on_c, 0, 75, 72
1, 42365, Note_on_c, 0, 77, 0
1, 42412, Note_on_c, 1, 65, 0
1, 42415, Note_on_c, 0, 75, 0
1, 42420, Note_on_c, 1, 68, 0
1, 42421, Note_on_c, 0, 74, 64
1, 42452, Note_on_c, 1, 58, 0
1, 42481, Note_on_c, 0, 74, 0
1, 42482, Note_on_c, 1, 67, 46
1, 42482, Note_on_c, 1, 63, 49
1, 42542, Note_on_c, 0, 79, 76
1, 42586, Note_on_c, 0, 79, 0
1, 42601, Note_on_c, 0, 79, 72
1, 42604, Note_on_c, 1, 67, 0
1, 42607, Note_on_c, 1, 63, 0
1, 42651, Note_on_c, 0, 79, 0
1, 42661, Note_on_c, 0, 79, 76
1, 42705, Note_on_c, 0, 79, 0
1, 42721, Note_on_c, 0, 79, 80
1, 42764, Note_on_c, 0, 79, 0
1, 42781, Note_on_c, 0, 79, 89
1, 42839, Note_on_c, 1, 63, 47
1, 42839, Note_on_c, 1, 56, 52
1, 42839, Note_on_c, 1, 60, 70
1, 42841, Note_on_c, 0, 79, 0
1, 42841, Note_on_c, 0, 80, 76
1, 42893, Note_on_c, 1, 63, 0
1, 42897, Note_on_c, 1, 60, 0
1, 42901, Note_on_c, 0, 79, 85
1, 42906, Note_on_c, 0, 80, 0
1, 42959, Note_on_c, 0, 79, 0
1, 42959, Note_on_c, 1, 62, 62
1, 42959, Note_on_c, 1, 65, 52
1, 42960, Note_on_c, 0, 77, 76
1, 43019, Note_on_c, 1, 62, 0
1, 43020, Note_on_c, 0, 75, 57
1, 43020, Note_on_c, 1, 65, 0
1, 43022, Note_on_c, 0, 77, 0
1, 43079, Note_on_c, 1, 63, 52
1, 43080, Note_on_c, 1, 67, 47
1, 43081, Note_on_c, 0, 74, 64
1, 43086, Note_on_c, 0, 75, 0
1, 43142, Note_on_c, 0, 74, 0
1, 43142, Note_on_c, 0, 72, 53
1, 43143, Note_on_c, 1, 67, 0
1, 43143, Note_on_c, 1, 63, 0
1, 43190, Note_on_c, 1, 56, 0
1, 43201, Note_on_c, 1, 62, 50
1, 43202, Note_on_c, 0, 72, 0
1, 43202, Note_on_c, 1, 65, 50
1, 43261, Note_on_c, 0, 77, 72
1, 43310, Note_on_c, 0, 77, 0
1, 43313, Note_on_c, 1, 65, 0
1, 43316, Note_on_c, 1, 62, 0
1, 43321, Note_on_c, 0, 77, 89
1, 43371, Note_on_c, 0, 77, 0
1, 43381, Note_on_c, 0, 77, 76
1, 43423, Note_on_c, 0, 77, 0
1, 43441, Note_on_c, 0, 77, 80
1, 43479, Note_on_c, 0, 77, 0
1, 43501, Note_on_c, 0, 77, 80
1, 43520, Note_on_c, 0, 77, 0
1, 43561, Note_on_c, 0, 79, 76
1, 43561, Note_on_c, 1, 59, 52
1, 43561, Note_on_c, 1, 55, 50
1, 43561, Note_on_c, 1, 62, 50
1, 43614, Note_on_c, 1, 62, 0
1, 43616, Note_on_c, 1, 59, 0
1, 43621, Note_on_c, 0, 77, 76
1, 43626, Note_on_c, 0, 79, 0
1, 43681, Note_on_c, 0, 77, 0
1, 43681, Note_on_c, 0, 75, 68
1, 43681, Note_on_c, 1, 63, 47
1, 43681, Note_on_c, 1, 60, 62
1, 43723, Note_on_c, 1, 60, 0
1, 43726, Note_on_c, 1, 63, 0
1, 43740, Note_on_c, 0, 75, 0
1, 43740, Note_on_c, 0, 74, 76
1, 43801, Note_on_c, 0, 74, 0
1, 43801, Note_on_c, 0, 72, 64
1, 43801, Note_on_c, 1, 65, 47
1, 43801, Note_on_c, 1, 62, 58
1, 43850, Note_on_c, 1, 65, 0
1, 43851, Note_on_c, 1, 62, 0
1, 43854, Note_on_c, 1, 55, 0
1, 43860, Note_on_c, 0, 72, 0
1, 43861, Note_on_c, 0, 71, 51
1, 43921, Note_on_c, 0, 77, 68
1, 43922, Note_on_c, 1, 60, 52
1, 43922, Note_on_c, 1, 63, 45
1, 43924, Note_on_c, 0, 71, 0
1, 43981, Note_on_c, 0, 75, 62
1, 43983, Note_on_c, 0, 77, 0
1, 44037, Note_on_c, 1, 60, 0
1, 44038, Note_on_c, 1, 63, 0
1, 44041, Note_on_c, 0, 74, 72
1, 44043, Note_on_c, 0, 75, 0
1, 44101, Note_on_c, 0, 74, 0
1, 44101, Note_on_c, 0, 72, 72
1, 44161, Note_on_c, 0, 72, 0
1, 44161, Note_on_c, 0, 70, 62
1, 44161, Note_on_c, 1, 53, 66
1, 44161, Note_on_c, 1, 63, 49
1, 44213, Note_on_c, 1, 53, 0
1, 44219, Note_on_c, 1, 63, 0
1, 44221, Note_on_c, 0, 70, 0
1, 44221, Note_on_c, 0, 69, 62
1, 44243, Note_on_c, 0, 69, 0
1, 44281, Note_on_c, 0, 84, 89
1, 44281, Note_on_c, 1, 55, 54
1, 44281, Note_on_c, 1, 62, 50
1, 44341, Note_on_c, 0, 82, 68
1, 44348, Note_on_c, 0, 84, 0
1, 44399, Note_on_c, 0, 81, 80
1, 44400, Note_on_c, 0, 82, 0
1, 44404, Note_on_c, 1, 55, 0
1, 44405, Note_on_c, 1, 62, 0
1, 44460, Note_on_c, 0, 79, 76
1, 44464, Note_on_c, 0, 81, 0
1, 44519, Note_on_c, 1, 70, 46
1, 44520, Note_on_c, 1, 67, 52
1, 44521, Note_on_c, 0, 79, 0
1, 44521, Note_on_c, 0, 77, 62
1, 44580, Note_on_c, 0, 76, 64
1, 44585, Note_on_c, 0, 77, 0
1, 44607, Note_on_c, 1, 67, 0
1, 44607, Note_on_c, 1, 70, 0
1, 44641, Note_on_c, 0, 77, 72
1, 44644, Note_on_c, 0, 76, 0
1, 44699, Note_on_c, 1, 65, 52
1, 44748, Note_on_c, 1, 65, 0
1, 44755, Note_on_c, 0, 77, 0
1, 44759, Note_on_c, 1, 65, 62
1, 44804, Note_on_c, 1, 65, 0
1, 44819, Note_on_c, 1, 65, 70
1, 44864, Note_on_c, 1, 65, 0
1, 44879, Note_on_c, 1, 65, 66
1, 44881, Note_on_c, 0, 69, 64
1, 44881, Note_on_c, 0, 75, 57
1, 44932, Note_on_c, 1, 65, 0
1, 44941, Note_on_c, 1, 65, 66
1, 44993, Note_on_c, 0, 69, 0
1, 44997, Note_on_c, 0, 75, 0
1, 45001, Note_on_c, 0, 73, 55
1, 45001, Note_on_c, 0, 70, 57
1, 45001, Note_on_c, 1, 66, 70
1, 45003, Note_on_c, 1, 65, 0
1, 45060, Note_on_c, 1, 65, 70
1, 45067, Note_on_c, 1, 66, 0
1, 45119, Note_on_c, 1, 63, 52
1, 45120, Note_on_c, 0, 70, 0
1, 45121, Note_on_c, 1, 65, 0
1, 45122, Note_on_c, 0, 73, 0
1, 45177, Note_on_c, 1, 63, 0
1, 45179, Note_on_c, 1, 61, 52
1, 45238, Note_on_c, 0, 82, 76
1, 45238, Note_on_c, 0, 74, 85
1, 45239, Note_on_c, 1, 61, 0
1, 45239, Note_on_c, 1, 60, 62
1, 45299, Note_on_c, 1, 58, 52
1, 45300, Note_on_c, 1, 60, 0
1, 45303, Note_on_c, 0, 82, 0
1, 45304, Note_on_c, 0, 74, 0
1, 45357, Note_on_c, 1, 58, 0
1, 45359, Note_on_c, 0, 81, 68
1, 45359, Note_on_c, 0, 72, 56
1, 45418, Note_on_c, 1, 53, 49
1, 45426, Note_on_c, 0, 81, 0
1, 45427, Note_on_c, 0, 72, 0
1, 45466, Note_on_c, 1, 53, 0
1, 45478, Note_on_c, 1, 53, 62
1, 45526, Note_on_c, 1, 53, 0
1, 45538, Note_on_c, 1, 53, 66
1, 45582, Note_on_c, 1, 53, 0
1, 45598, Note_on_c, 1, 53, 75
1, 45601, Note_on_c, 0, 63, 64
1, 45601, Note_on_c, 0, 69, 68
1, 45645, Note_on_c, 1, 53, 0
1, 45658, Note_on_c, 1, 53, 62
1, 45716, Note_on_c, 0, 63, 0
1, 45718, Note_on_c, 1, 53, 0
1, 45719, Note_on_c, 0, 69, 0
1, 45719, Note_on_c, 1, 54, 66
1, 45721, Note_on_c, 0, 70, 59
1, 45721, Note_on_c, 0, 61, 55
1, 45779, Note_on_c, 1, 54, 0
1, 45779, Note_on_c, 1, 53, 66
1, 45836, Note_on_c, 0, 70, 0
1, 45839, Note_on_c, 0, 61, 0
1, 45841, Note_on_c, 1, 51, 58
1, 45843, Note_on_c, 1, 53, 0
1, 45897, Note_on_c, 1, 51, 0
1, 45899, Note_on_c, 1, 49, 75
1, 45958, Note_on_c, 1, 49, 0
1, 45959, Note_on_c, 1, 48, 62
1, 45961, Note_on_c, 0, 61, 72
1, 45962, Note_on_c, 0, 58, 59
1, 46019, Note_on_c, 1, 46, 75
1, 46021, Note_on_c, 1, 48, 0
1, 46033, Note_on_c, 0, 58, 0
1, 46037, Note_on_c, 0, 61, 0
1, 46081, Note_on_c, 1, 46, 0
1, 46081, Note_on_c, 1, 41, 50
1, 46082, Note_on_c, 0, 57, 56
1, 46082, Note_on_c, 0, 60, 57
1, 46136, Note_on_c, 0, 57, 0
1, 46138, Note_on_c, 0, 60, 0
1, 46143, Note_on_c, 0, 65, 60
1, 46187, Note_on_c, 0, 65, 0
1, 46202, Note_on_c, 0, 65, 64
1, 46210, Note_on_c, 1, 41, 0
1, 46240, Note_on_c, 0, 65, 0
1, 46262, Note_on_c, 0, 65, 68
1, 46289, Note_on_c, 0, 65, 0
1, 46321, Note_on_c, 0, 65, 80
1, 46362, Note_on_c, 0, 65, 0
1, 46381, Note_on_c, 0, 65, 80
1, 46437, Note_on_c, 0, 65, 0
1, 46441, Note_on_c, 0, 64, 72
1, 46441, Note_on_c, 1, 63, 70
1, 46441, Note_on_c, 1, 57, 79
1, 46441, Note_on_c, 1, 53, 70
1, 46500, Note_on_c, 0, 65, 64
1, 46502, Note_on_c, 0, 64, 0
1, 46561, Note_on_c, 0, 65, 0
1, 46561, Note_on_c, 0, 67, 64
1, 46621, Note_on_c, 0, 67, 0
1, 46621, Note_on_c, 0, 65, 64
1, 46681, Note_on_c, 0, 70, 72
1, 46689, Note_on_c, 0, 65, 0
1, 46741, Note_on_c, 0, 70, 0
1, 46742, Note_on_c, 0, 69, 80
1, 46798, Note_on_c, 0, 69, 0
1, 46801, Note_on_c, 0, 74, 76
1, 46860, Note_on_c, 0, 74, 0
1, 46861, Note_on_c, 0, 72, 68
1, 46921, Note_on_c, 0, 72, 0
1, 46921, Note_on_c, 0, 75, 85
1, 46980, Note_on_c, 0, 75, 0
1, 46981, Note_on_c, 0, 74, 89
1, 47041, Note_on_c, 0, 79, 80
1, 47045, Note_on_c, 0, 74, 0
1, 47099, Note_on_c, 0, 77, 76
1, 47103, Note_on_c, 0, 79, 0
1, 47151, Note_on_c, 0, 77, 0
1, 47160, Note_on_c, 0, 77, 93
1, 47289, Note_on_c, 1, 53, 0
1, 47291, Note_on_c, 1, 57, 0
1, 47294, Note_on_c, 1, 63, 0
1, 47342, Note_on_c, 0, 76, 76
1, 47350, Note_on_c, 0, 77, 0
1, 47401, Note_on_c, 0, 75, 64
1, 47404, Note_on_c, 0, 76, 0
1, 47460, Note_on_c, 0, 75, 0
1, 47461, Note_on_c, 0, 72, 60
1, 47521, Note_on_c, 0, 72, 0
1, 47521, Note_on_c, 0, 70, 62
1, 47521, Note_on_c, 1, 58, 50
1, 47703, Note_on_c, 1, 58, 0
1, 47751, Note_on_c, 0, 70, 0
1, 47758, Note_on_c, 0, 65, 53
1, 47759, Note_on_c, 1, 53, 50
1, 47840, Note_on_c, 1, 53, 0
1, 47878, Note_on_c, 0, 65, 0
1, 47878, Note_on_c, 1, 50, 50
1, 47883, Note_on_c, 0, 62, 59
1, 48087, Note_on_c, 1, 50, 0
1, 48101, Note_on_c, 0, 62, 0
1, 48118, Note_on_c, 0, 65, 72
1, 48119, Note_on_c, 1, 53, 58
1, 48225, Note_on_c, 1, 53, 0
1, 48238, Note_on_c, 0, 65, 0
1, 48238, Note_on_c, 1, 58, 62
1, 48241, Note_on_c, 0, 70, 64
1, 48410, Note_on_c, 1, 58, 0
1, 48479, Note_on_c, 0, 74, 72
1, 48479, Note_on_c, 1, 62, 66
1, 48481, Note_on_c, 0, 70, 0
1, 48543, Note_on_c, 1, 62, 0
1, 48600, Note_on_c, 1, 65, 62
1, 48602, Note_on_c, 0, 77, 72
1, 48603, Note_on_c, 0, 74, 0
1, 48841, Note_on_c, 1, 65, 0
1, 48842, Note_on_c, 0, 82, 72
1, 48844, Note_on_c, 0, 77, 0
1, 48899, Note_on_c, 0, 82, 0
1, 48902, Note_on_c, 0, 74, 64
1, 48961, Note_on_c, 1, 63, 50
1, 48961, Note_on_c, 1, 53, 66
1, 48961, Note_on_c, 1, 60, 62
1, 48962, Note_on_c, 0, 77, 72
1, 48963, Note_on_c, 0, 74, 0
1, 49022, Note_on_c, 0, 75, 64
1, 49023, Note_on_c, 0, 77, 0
1, 49081, Note_on_c, 0, 75, 0
1, 49082, Note_on_c, 0, 74, 76
1, 49140, Note_on_c, 0, 74, 0
1, 49141, Note_on_c, 0, 72, 72
1, 49201, Note_on_c, 0, 70, 72
1, 49209, Note_on_c, 0, 72, 0
1, 49259, Note_on_c, 0, 70, 0
1, 49261, Note_on_c, 0, 69, 76
1, 49321, Note_on_c, 0, 67, 76
1, 49323, Note_on_c, 0, 69, 0
1, 49381, Note_on_c, 0, 65, 80
1, 49384, Note_on_c, 0, 67, 0
1, 49441, Note_on_c, 0, 64, 62
1, 49442, Note_on_c, 0, 65, 0
1, 49501, Note_on_c, 0, 65, 68
1, 49502, Note_on_c, 0, 64, 0
1, 49559, Note_on_c, 0, 67, 76
1, 49561, Note_on_c, 0, 65, 0
1, 49605, Note_on_c, 1, 60, 0
1, 49606, Note_on_c, 1, 53, 0
1, 49610, Note_on_c, 1, 63, 0
1, 49615, Note_on_c, 0, 67, 0
1, 49619, Note_on_c, 0, 69, 64
1, 49677, Note_on_c, 0, 69, 0
1, 49679, Note_on_c, 0, 70, 76
1, 49679, Note_on_c, 1, 62, 49
1, 49679, Note_on_c, 1, 58, 47
1, 49696, Note_on_c, 0, 70, 0
1, 49743, Note_on_c, 0, 72, 64
1, 49757, Note_on_c, 0, 70, 62
1, 49761, Note_on_c, 0, 72, 0
1, 49772, Note_on_c, 0, 69, 80
1, 49780, Note_on_c, 0, 70, 0
1, 49799, Note_on_c, 0, 69, 0
1, 49799, Note_on_c, 0, 70, 76
1, 49815, Note_on_c, 1, 62, 0
1, 49818, Note_on_c, 1, 58, 0
1, 49856, Note_on_c, 0, 70, 0
1, 49860, Note_on_c, 0, 72, 85
1, 49877, Note_on_c, 0, 72, 0
1, 49921, Note_on_c, 0, 74, 76
1, 49942, Note_on_c, 0, 74, 0
1, 49981, Note_on_c, 0, 75, 72
1, 49998, Note_on_c, 0, 75, 0
1, 50041, Note_on_c, 0, 76, 64
1, 50096, Note_on_c, 0, 76, 0
1, 50099, Note_on_c, 0, 77, 62
1, 50160, Note_on_c, 0, 79, 72
1, 50161, Note_on_c, 0, 77, 0
1, 50221, Note_on_c, 0, 77, 68
1, 50222, Note_on_c, 0, 79, 0
1, 50281, Note_on_c, 0, 82, 72
1, 50284, Note_on_c, 0, 77, 0
1, 50341, Note_on_c, 0, 82, 0
1, 50341, Note_on_c, 0, 74, 64
1, 50399, Note_on_c, 1, 63, 39
1, 50399, Note_on_c, 1, 53, 52
1, 50399, Note_on_c, 1, 60, 54
1, 50401, Note_on_c, 0, 77, 64
1, 50404, Note_on_c, 0, 74, 0
1, 50461, Note_on_c, 0, 75, 64
1, 50465, Note_on_c, 0, 77, 0
1, 50521, Note_on_c, 0, 74, 76
1, 50525, Note_on_c, 0, 75, 0
1, 50577, Note_on_c, 0, 74, 0
1, 50580, Note_on_c, 0, 72, 72
1, 50641, Note_on_c, 0, 70, 64
1, 50647, Note_on_c, 0, 72, 0
1, 50699, Note_on_c, 0, 69, 60
1, 50702, Note_on_c, 0, 70, 0
1, 50759, Note_on_c, 0, 67, 64
1, 50760, Note_on_c, 0, 69, 0
1, 50820, Note_on_c, 0, 65, 68
1, 50827, Note_on_c, 0, 67, 0
1, 50880, Note_on_c, 0, 65, 0
1, 50880, Note_on_c, 0, 64, 64
1, 50940, Note_on_c, 0, 65, 76
1, 50941, Note_on_c, 0, 64, 0
1, 50999, Note_on_c, 0, 65, 0
1, 50999, Note_on_c, 0, 67, 62
1, 51029, Note_on_c, 1, 60, 0
1, 51030, Note_on_c, 1, 53, 0
1, 51031, Note_on_c, 1, 63, 0
1, 51056, Note_on_c, 0, 67, 0
1, 51059, Note_on_c, 0, 69, 72
1, 51120, Note_on_c, 0, 70, 64
1, 51120, Note_on_c, 1, 62, 41
1, 51120, Note_on_c, 1, 58, 41
1, 51124, Note_on_c, 0, 69, 0
1, 51167, Note_on_c, 0, 70, 0
1, 51188, Note_on_c, 1, 58, 0
1, 51190, Note_on_c, 1, 62, 0
1, 51241, Note_on_c, 1, 62, 47
1, 51241, Note_on_c, 1, 58, 46
1, 51242, Note_on_c, 0, 70, 76
1, 51288, Note_on_c, 0, 70, 0
1, 51297, Note_on_c, 1, 58, 0
1, 51301, Note_on_c, 1, 62, 0
1, 51362, Note_on_c, 0, 74, 72
1, 51363, Note_on_c, 1, 65, 49
1, 51363, Note_on_c, 1, 58, 43
1, 51409, Note_on_c, 1, 58, 0
1, 51410, Note_on_c, 0, 74, 0
1, 51412, Note_on_c, 1, 65, 0
1, 51482, Note_on_c, 0, 70, 64
1, 51482, Note_on_c, 1, 62, 54
1, 51482, Note_on_c, 1, 58, 41
1, 51550, Note_on_c, 1, 62, 0
1, 51561, Note_on_c, 1, 58, 0
1, 51610, Note_on_c, 0, 70, 0
1, 51692, Note_on_c, 0, 70, 85
1, 51713, Note_on_c, 0, 70, 0
1, 51721, Note_on_c, 0, 72, 62
1, 51749, Note_on_c, 0, 70, 62
1, 51751, Note_on_c, 0, 72, 0
1, 51781, Note_on_c, 0, 69, 72
1, 51784, Note_on_c, 0, 70, 0
1, 51810, Note_on_c, 0, 70, 64
1, 51815, Note_on_c, 0, 69, 0
1, 51836, Note_on_c, 0, 70, 0
1, 51842, Note_on_c, 0, 79, 76
1, 51956, Note_on_c, 0, 79, 0
1, 51959, Note_on_c, 1, 51, 50
1, 51959, Note_on_c, 1, 55, 70
1, 51959, Note_on_c, 1, 58, 49
1, 52048, Note_on_c, 0, 70, 72
1, 52066, Note_on_c, 0, 70, 0
1, 52078, Note_on_c, 0, 72, 72
1, 52095, Note_on_c, 1, 55, 0
1, 52096, Note_on_c, 1, 58, 0
1, 52098, Note_on_c, 1, 51, 0
1, 52108, Note_on_c, 0, 70, 60
1, 52110, Note_on_c, 0, 72, 0
1, 52138, Note_on_c, 0, 70, 0
1, 52138, Note_on_c, 0, 69, 62
1, 52169, Note_on_c, 0, 70, 60
1, 52170, Note_on_c, 0, 69, 0
1, 52200, Note_on_c, 0, 70, 0
1, 52200, Note_on_c, 0, 77, 72
1, 52322, Note_on_c, 1, 58, 52
1, 52322, Note_on_c, 1, 50, 70
1, 52322, Note_on_c, 1, 53, 75
1, 52330, Note_on_c, 0, 77, 0
1, 52412, Note_on_c, 0, 70, 72
1, 52428, Note_on_c, 0, 70, 0
1, 52442, Note_on_c, 0, 72, 68
1, 52464, Note_on_c, 1, 53, 0
1, 52466, Note_on_c, 1, 50, 0
1, 52466, Note_on_c, 1, 58, 0
1, 52471, Note_on_c, 0, 70, 62
1, 52474, Note_on_c, 0, 72, 0
1, 52501, Note_on_c, 0, 69, 64
1, 52502, Note_on_c, 0, 70, 0
1, 52528, Note_on_c, 0, 69, 0
1, 52531, Note_on_c, 0, 70, 60
1, 52561, Note_on_c, 1, 57, 66
1, 52561, Note_on_c, 1, 65, 52
1, 52562, Note_on_c, 0, 70, 0
1, 52562, Note_on_c, 0, 72, 60
1, 52678, Note_on_c, 0, 72, 0
1, 52679, Note_on_c, 0, 77, 64
1, 52801, Note_on_c, 0, 75, 62
1, 52812, Note_on_c, 0, 77, 0
1, 52915, Note_on_c, 1, 57, 0
1, 52921, Note_on_c, 1, 58, 31
1, 52923, Note_on_c, 0, 73, 60
1, 52928, Note_on_c, 0, 75, 0
1, 53040, Note_on_c, 0, 73, 0
1, 53042, Note_on_c, 0, 74, 62
1, 53056, Note_on_c, 1, 65, 0
1, 53057, Note_on_c, 1, 58, 0
1, 53096, Note_on_c, 0, 74, 0
1, 53132, Note_on_c, 0, 70, 64
1, 53154, Note_on_c, 0, 70, 0
1, 53162, Note_on_c, 0, 72, 80
1, 53191, Note_on_c, 0, 70, 60
1, 53193, Note_on_c, 0, 72, 0
1, 53218, Note_on_c, 0, 70, 0
1, 53221, Note_on_c, 0, 69, 80
1, 53251, Note_on_c, 0, 70, 60
1, 53259, Note_on_c, 0, 69, 0
1, 53278, Note_on_c, 0, 70, 0
1, 53281, Note_on_c, 0, 79, 80
1, 53387, Note_on_c, 0, 79, 0
1, 53398, Note_on_c, 1, 51, 52
1, 53398, Note_on_c, 1, 58, 52
1, 53399, Note_on_c, 1, 55, 66
1, 53491, Note_on_c, 0, 70, 72
1, 53507, Note_on_c, 0, 70, 0
1, 53521, Note_on_c, 0, 72, 68
1, 53533, Note_on_c, 1, 55, 0
1, 53534, Note_on_c, 1, 58, 0
1, 53537, Note_on_c, 1, 51, 0
1, 53550, Note_on_c, 0, 70, 56
1, 53551, Note_on_c, 0, 72, 0
1, 53580, Note_on_c, 0, 70, 0
1, 53580, Note_on_c, 0, 69, 72
1, 53611, Note_on_c, 0, 70, 57
1, 53612, Note_on_c, 0, 69, 0
1, 53641, Note_on_c, 0, 70, 0
1, 53641, Note_on_c, 0, 77, 72
1, 53751, Note_on_c, 0, 77, 0
1, 53758, Note_on_c, 1, 50, 62
1, 53758, Note_on_c, 1, 53, 70
1, 53758, Note_on_c, 1, 58, 52
1, 53849, Note_on_c, 0, 70, 85
1, 53868, Note_on_c, 0, 70, 0
1, 53881, Note_on_c, 0, 72, 76
1, 53895, Note_on_c, 1, 53, 0
1, 53895, Note_on_c, 1, 50, 0
1, 53896, Note_on_c, 1, 58, 0
1, 53911, Note_on_c, 0, 70, 56
1, 53914, Note_on_c, 0, 72, 0
1, 53941, Note_on_c, 0, 69, 68
1, 53942, Note_on_c, 0, 70, 0
1, 53967, Note_on_c, 0, 69, 0
1, 53971, Note_on_c, 0, 70, 72
1, 54001, Note_on_c, 0, 72, 72
1, 54001, Note_on_c, 1, 57, 52
1, 54001, Note_on_c, 1, 53, 47
1, 54002, Note_on_c, 0, 70, 0
1, 54113, Note_on_c, 1, 57, 0
1, 54119, Note_on_c, 0, 72, 0
1, 54119, Note_on_c, 0, 75, 64
1, 54121, Note_on_c, 1, 60, 49
1, 54234, Note_on_c, 1, 60, 0
1, 54239, Note_on_c, 1, 63, 46
1, 54241, Note_on_c, 0, 69, 62
1, 54246, Note_on_c, 0, 75, 0
1, 54296, Note_on_c, 1, 53, 0
1, 54302, Note_on_c, 1, 63, 0
1, 54361, Note_on_c, 1, 58, 49
1, 54361, Note_on_c, 1, 62, 50
1, 54362, Note_on_c, 0, 70, 57
1, 54369, Note_on_c, 0, 69, 0
1, 54479, Note_on_c, 0, 70, 0
1, 54496, Note_on_c, 1, 62, 0
1, 54497, Note_on_c, 1, 58, 0
1, 54721, Note_on_c, 1, 55, 79
1, 54722, Note_on_c, 0, 70, 80
1, 54722, Note_on_c, 0, 79, 93
1, 54722, Note_on_c, 0, 74, 93
1, 54751, Note_on_c, 0, 74, 0
1, 54754, Note_on_c, 0, 79, 0
1, 54754, Note_on_c, 0, 70, 0
1, 54840, Note_on_c, 1, 55, 0
1, 54841, Note_on_c, 0, 67, 89
1, 54841, Note_on_c, 1, 43, 79
1, 54892, Note_on_c, 0, 67, 0
1, 54954, Note_on_c, 1, 43, 0
1, 55078, Note_on_c, 1, 50, 75
1, 55081, Note_on_c, 0, 66, 85
1, 55081, Note_on_c, 0, 69, 98
1, 55081, Note_on_c, 0, 74, 93
1, 55115, Note_on_c, 0, 69, 0
1, 55115, Note_on_c, 0, 66, 0
1, 55117, Note_on_c, 0, 74, 0
1, 55201, Note_on_c, 1, 38, 79
1, 55202, Note_on_c, 0, 62, 76
1, 55208, Note_on_c, 1, 50, 0
1, 55304, Note_on_c, 0, 62, 0
1, 55314, Note_on_c, 1, 38, 0
1, 55438, Note_on_c, 1, 51, 42
1, 55438, Note_on_c, 1, 55, 41
1, 55442, Note_on_c, 0, 63, 72
1, 55501, Note_on_c, 1, 58, 42
1, 55509, Note_on_c, 1, 55, 0
1, 55560, Note_on_c, 1, 58, 0
1, 55561, Note_on_c, 1, 55, 47
1, 55615, Note_on_c, 1, 55, 0
1, 55619, Note_on_c, 1, 58, 38
1, 55675, Note_on_c, 1, 58, 0
1, 55679, Note_on_c, 1, 55, 42
1, 55682, Note_on_c, 0, 65, 64
1, 55683, Note_on_c, 0, 63, 0
1, 55711, Note_on_c, 0, 63, 55
1, 55714, Note_on_c, 0, 65, 0
1, 55738, Note_on_c, 0, 63, 0
1, 55740, Note_on_c, 0, 62, 59
1, 55740, Note_on_c, 1, 58, 36
1, 55744, Note_on_c, 1, 55, 0
1, 55754, Note_on_c, 1, 51, 0
1, 55769, Note_on_c, 0, 63, 60
1, 55775, Note_on_c, 0, 62, 0
1, 55793, Note_on_c, 1, 58, 0
1, 55800, Note_on_c, 0, 63, 0
1, 55801, Note_on_c, 0, 72, 56
1, 55801, Note_on_c, 1, 50, 52
1, 55801, Note_on_c, 1, 56, 40
1, 55860, Note_on_c, 0, 70, 60
1, 55860, Note_on_c, 1, 56, 0
1, 55860, Note_on_c, 1, 58, 40
1, 55864, Note_on_c, 0, 72, 0
1, 55913, Note_on_c, 0, 70, 0
1, 55920, Note_on_c, 1, 56, 45
1, 55921, Note_on_c, 0, 70, 62
1, 55923, Note_on_c, 1, 58, 0
1, 55979, Note_on_c, 1, 58, 41
1, 55980, Note_on_c, 1, 56, 0
1, 55994, Note_on_c, 0, 70, 0
1, 56039, Note_on_c, 1, 58, 0
1, 56040, Note_on_c, 1, 56, 47
1, 56041, Note_on_c, 0, 70, 64
1, 56099, Note_on_c, 1, 58, 41
1, 56100, Note_on_c, 1, 56, 0
1, 56100, Note_on_c, 1, 50, 0
1, 56113, Note_on_c, 0, 70, 0
1, 56149, Note_on_c, 1, 58, 0
1, 56159, Note_on_c, 1, 51, 50
1, 56161, Note_on_c, 0, 70, 76
1, 56161, Note_on_c, 1, 55, 54
1, 56220, Note_on_c, 1, 55, 0
1, 56220, Note_on_c, 1, 58, 41
1, 56222, Note_on_c, 0, 75, 64
1, 56229, Note_on_c, 0, 70, 0
1, 56281, Note_on_c, 1, 55, 47
1, 56282, Note_on_c, 0, 74, 76
1, 56284, Note_on_c, 0, 75, 0
1, 56284, Note_on_c, 1, 58, 0
1, 56338, Note_on_c, 1, 55, 0
1, 56341, Note_on_c, 0, 74, 0
1, 56341, Note_on_c, 1, 58, 42
1, 56342, Note_on_c, 0, 73, 72
1, 56399, Note_on_c, 0, 73, 0
1, 56401, Note_on_c, 1, 55, 52
1, 56402, Note_on_c, 0, 72, 62
1, 56403, Note_on_c, 1, 58, 0
1, 56460, Note_on_c, 1, 55, 0
1, 56461, Note_on_c, 0, 71, 76
1, 56461, Note_on_c, 1, 58, 37
1, 56464, Note_on_c, 0, 72, 0
1, 56469, Note_on_c, 1, 51, 0
1, 56489, Note_on_c, 1, 58, 0
1, 56521, Note_on_c, 1, 50, 58
1, 56521, Note_on_c, 1, 56, 46
1, 56522, Note_on_c, 0, 70, 62
1, 56526, Note_on_c, 0, 71, 0
1, 56581, Note_on_c, 1, 58, 41
1, 56584, Note_on_c, 1, 56, 0
1, 56641, Note_on_c, 1, 56, 46
1, 56642, Note_on_c, 1, 58, 0
1, 56648, Note_on_c, 0, 70, 0
1, 56699, Note_on_c, 1, 58, 42
1, 56700, Note_on_c, 1, 56, 0
1, 56754, Note_on_c, 1, 58, 0
1, 56759, Note_on_c, 1, 56, 50
1, 56814, Note_on_c, 1, 50, 0
1, 56819, Note_on_c, 1, 56, 0
1, 56819, Note_on_c, 1, 58, 37
1, 56850, Note_on_c, 1, 58, 0
1, 56879, Note_on_c, 1, 51, 46
1, 56879, Note_on_c, 1, 55, 50
1, 56881, Note_on_c, 0, 63, 76
1, 56939, Note_on_c, 1, 58, 42
1, 56940, Note_on_c, 1, 55, 0
1, 56997, Note_on_c, 1, 58, 0
1, 56999, Note_on_c, 1, 55, 42
1, 57053, Note_on_c, 1, 55, 0
1, 57058, Note_on_c, 1, 58, 35
1, 57110, Note_on_c, 1, 58, 0
1, 57118, Note_on_c, 1, 55, 47
1, 57122, Note_on_c, 0, 65, 72
1, 57126, Note_on_c, 0, 63, 0
1, 57152, Note_on_c, 0, 63, 62
1, 57159, Note_on_c, 0, 65, 0
1, 57180, Note_on_c, 1, 58, 36
1, 57181, Note_on_c, 0, 63, 0
1, 57181, Note_on_c, 0, 62, 62
1, 57183, Note_on_c, 1, 55, 0
1, 57189, Note_on_c, 1, 51, 0
1, 57211, Note_on_c, 0, 63, 60
1, 57212, Note_on_c, 0, 62, 0
1, 57216, Note_on_c, 1, 58, 0
1, 57241, Note_on_c, 0, 72, 76
1, 57242, Note_on_c, 0, 63, 0
1, 57242, Note_on_c, 1, 50, 54
1, 57242, Note_on_c, 1, 53, 52
1, 57296, Note_on_c, 0, 72, 0
1, 57300, Note_on_c, 1, 53, 0
1, 57301, Note_on_c, 0, 71, 80
1, 57301, Note_on_c, 1, 56, 41
1, 57357, Note_on_c, 0, 71, 0
1, 57360, Note_on_c, 1, 56, 0
1, 57361, Note_on_c, 0, 71, 80
1, 57361, Note_on_c, 1, 53, 54
1, 57420, Note_on_c, 1, 56, 45
1, 57421, Note_on_c, 1, 53, 0
1, 57463, Note_on_c, 0, 71, 0
1, 57478, Note_on_c, 1, 56, 0
1, 57479, Note_on_c, 1, 53, 66
1, 57481, Note_on_c, 0, 71, 93
1, 57534, Note_on_c, 1, 50, 0
1, 57537, Note_on_c, 1, 53, 0
1, 57539, Note_on_c, 1, 56, 49
1, 57560, Note_on_c, 1, 56, 0
1, 57595, Note_on_c, 0, 71, 0
1, 57599, Note_on_c, 1, 51, 52
1, 57599, Note_on_c, 1, 55, 66
1, 57601, Note_on_c, 0, 72, 89
1, 57659, Note_on_c, 1, 55, 0
1, 57659, Note_on_c, 1, 60, 49
1, 57661, Note_on_c, 0, 79, 85
1, 57666, Note_on_c, 0, 72, 0
1, 57720, Note_on_c, 1, 55, 52
1, 57721, Note_on_c, 0, 75, 72
1, 57723, Note_on_c, 1, 60, 0
1, 57728, Note_on_c, 0, 79, 0
1, 57778, Note_on_c, 1, 55, 0
1, 57779, Note_on_c, 1, 60, 49
1, 57781, Note_on_c, 0, 74, 76
1, 57782, Note_on_c, 0, 75, 0
1, 57833, Note_on_c, 1, 60, 0
1, 57839, Note_on_c, 1, 55, 50
1, 57842, Note_on_c, 0, 72, 62
1, 57844, Note_on_c, 0, 74, 0
1, 57897, Note_on_c, 1, 55, 0
1, 57899, Note_on_c, 1, 60, 52
1, 57902, Note_on_c, 0, 70, 59
1, 57902, Note_on_c, 1, 51, 0
1, 57911, Note_on_c, 0, 72, 0
1, 57926, Note_on_c, 1, 60, 0
1, 57961, Note_on_c, 1, 54, 50
1, 57961, Note_on_c, 1, 60, 54
1, 57962, Note_on_c, 0, 70, 0
1, 57962, Note_on_c, 0, 69, 64
1, 58020, Note_on_c, 1, 60, 0
1, 58021, Note_on_c, 1, 63, 45
1, 58081, Note_on_c, 1, 63, 0
1, 58081, Note_on_c, 1, 60, 54
1, 58083, Note_on_c, 0, 69, 0
1, 58140, Note_on_c, 1, 60, 0
1, 58140, Note_on_c, 1, 63, 46
1, 58195, Note_on_c, 1, 63, 0
1, 58199, Note_on_c, 1, 60, 50
1, 58257, Note_on_c, 1, 60, 0
1, 58259, Note_on_c, 1, 63, 45
1, 58260, Note_on_c, 1, 54, 0
1, 58281, Note_on_c, 1, 63, 0
1, 58319, Note_on_c, 1, 55, 54
1, 58319, Note_on_c, 1, 58, 50
1, 58322, Note_on_c, 0, 70, 76
1, 58342, Note_on_c, 0, 70, 0
1, 58379, Note_on_c, 1, 62, 52
1, 58380, Note_on_c, 1, 58, 0
1, 58382, Note_on_c, 0, 86, 85
1, 58439, Note_on_c, 1, 58, 49
1, 58440, Note_on_c, 1, 62, 0
1, 58441, Note_on_c, 0, 82, 80
1, 58442, Note_on_c, 0, 86, 0
1, 58494, Note_on_c, 1, 58, 0
1, 58498, Note_on_c, 0, 82, 0
1, 58499, Note_on_c, 1, 62, 50
1, 58501, Note_on_c, 0, 81, 72
1, 58558, Note_on_c, 1, 62, 0
1, 58559, Note_on_c, 1, 58, 43
1, 58560, Note_on_c, 0, 81, 0
1, 58561, Note_on_c, 0, 79, 72
1, 58619, Note_on_c, 1, 58, 0
1, 58619, Note_on_c, 1, 62, 58
1, 58621, Note_on_c, 0, 77, 64
1, 58622, Note_on_c, 0, 79, 0
1, 58633, Note_on_c, 1, 55, 0
1, 58660, Note_on_c, 1, 62, 0
1, 58679, Note_on_c, 1, 60, 50
1, 58681, Note_on_c, 0, 76, 62
1, 58681, Note_on_c, 1, 67, 58
1, 58684, Note_on_c, 0, 77, 0
1, 58723, Note_on_c, 1, 60, 0
1, 58741, Note_on_c, 1, 67, 0
1, 58741, Note_on_c, 1, 70, 47
1, 58777, Note_on_c, 1, 70, 0
1, 58801, Note_on_c, 1, 67, 62
1, 58804, Note_on_c, 0, 76, 0
1, 58833, Note_on_c, 1, 67, 0
1, 58861, Note_on_c, 1, 70, 45
1, 58905, Note_on_c, 1, 70, 0
1, 58921, Note_on_c, 1, 67, 66
1, 58967, Note_on_c, 1, 67, 0
1, 58980, Note_on_c, 1, 70, 46
1, 59002, Note_on_c, 1, 70, 0
1, 59041, Note_on_c, 1, 69, 62
1, 59041, Note_on_c, 1, 65, 58
1, 59072, Note_on_c, 0, 77, 76
1, 59102, Note_on_c, 0, 76, 76
1, 59105, Note_on_c, 0, 77, 0
1, 59131, Note_on_c, 0, 77, 80
1, 59135, Note_on_c, 0, 76, 0
1, 59161, Note_on_c, 0, 79, 85
1, 59162, Note_on_c, 0, 77, 0
1, 59166, Note_on_c, 1, 65, 0
1, 59171, Note_on_c, 1, 69, 0
1, 59191, Note_on_c, 0, 77, 68
1, 59195, Note_on_c, 0, 79, 0
1, 59220, Note_on_c, 0, 77, 0
1, 59221, Note_on_c, 0, 76, 64
1, 59251, Note_on_c, 0, 77, 76
1, 59253, Note_on_c, 0, 76, 0
1, 59273, Note_on_c, 0, 77, 0
1, 59281, Note_on_c, 1, 75, 75
1, 59311, Note_on_c, 0, 77, 76
1, 59342, Note_on_c, 0, 81, 85
1, 59344, Note_on_c, 0, 77, 0
1, 59372, Note_on_c, 0, 81, 0
1, 59372, Note_on_c, 0, 77, 72
1, 59395, Note_on_c, 0, 77, 0
1, 59401, Note_on_c, 1, 74, 79
1, 59402, Note_on_c, 1, 75, 0
1, 59432, Note_on_c, 0, 77, 76
1, 59462, Note_on_c, 0, 82, 80
1, 59464, Note_on_c, 0, 77, 0
1, 59492, Note_on_c, 0, 77, 76
1, 59494, Note_on_c, 0, 82, 0
1, 59516, Note_on_c, 0, 77, 0
1, 59521, Note_on_c, 1, 69, 79
1, 59523, Note_on_c, 1, 74, 0
1, 59553, Note_on_c, 0, 77, 76
1, 59583, Note_on_c, 0, 77, 0
1, 59583, Note_on_c, 0, 87, 76
1, 59612, Note_on_c, 0, 77, 72
1, 59613, Note_on_c, 0, 87, 0
1, 59632, Note_on_c, 0, 77, 0
1, 59642, Note_on_c, 1, 70, 70
1, 59648, Note_on_c, 1, 69, 0
1, 59673, Note_on_c, 0, 77, 76
1, 59699, Note_on_c, 0, 77, 0
1, 59703, Note_on_c, 0, 86, 80
1, 59733, Note_on_c, 0, 86, 0
1, 59733, Note_on_c, 0, 77, 68
1, 59755, Note_on_c, 0, 77, 0
1, 59762, Note_on_c, 0, 84, 89
1, 59762, Note_on_c, 1, 65, 66
1, 59765, Note_on_c, 1, 70, 0
1, 59791, Note_on_c, 0, 84, 0
1, 59792, Note_on_c, 0, 81, 68
1, 59822, Note_on_c, 0, 79, 76
1, 59824, Note_on_c, 0, 81, 0
1, 59850, Note_on_c, 0, 79, 0
1, 59852, Note_on_c, 0, 77, 62
1, 59882, Note_on_c, 0, 77, 0
1, 59882, Note_on_c, 0, 76, 76
1, 59893, Note_on_c, 1, 65, 0
1, 59912, Note_on_c, 0, 77, 64
1, 59913, Note_on_c, 0, 76, 0
1, 59940, Note_on_c, 0, 77, 0
1, 59942, Note_on_c, 0, 79, 64
1, 59972, Note_on_c, 0, 77, 68
1, 59974, Note_on_c, 0, 79, 0
1, 59992, Note_on_c, 0, 77, 0
1, 60002, Note_on_c, 1, 75, 92
1, 60031, Note_on_c, 0, 77, 80
1, 60061, Note_on_c, 0, 81, 80
1, 60063, Note_on_c, 0, 77, 0
1, 60091, Note_on_c, 0, 77, 68
1, 60093, Note_on_c, 0, 81, 0
1, 60112, Note_on_c, 0, 77, 0
1, 60118, Note_on_c, 1, 75, 0
1, 60121, Note_on_c, 1, 74, 83
1, 60151, Note_on_c, 0, 77, 72
1, 60181, Note_on_c, 0, 82, 80
1, 60185, Note_on_c, 0, 77, 0
1, 60210, Note_on_c, 0, 82, 0
1, 60211, Note_on_c, 0, 77, 72
1, 60233, Note_on_c, 0, 77, 0
1, 60241, Note_on_c, 1, 69, 79
1, 60242, Note_on_c, 1, 74, 0
1, 60271, Note_on_c, 0, 77, 89
1, 60300, Note_on_c, 0, 77, 0
1, 60301, Note_on_c, 0, 87, 80
1, 60331, Note_on_c, 0, 77, 76
1, 60333, Note_on_c, 0, 87, 0
1, 60351, Note_on_c, 0, 77, 0
1, 60361, Note_on_c, 1, 70, 79
1, 60365, Note_on_c, 1, 69, 0
1, 60391, Note_on_c, 0, 77, 72
1, 60421, Note_on_c, 0, 77, 0
1, 60421, Note_on_c, 0, 86, 85
1, 60451, Note_on_c, 0, 86, 0
1, 60451, Note_on_c, 0, 77, 59
1, 60479, Note_on_c, 0, 77, 0
1, 60480, Note_on_c, 1, 70, 0
1, 60481, Note_on_c, 0, 84, 76
1, 60481, Note_on_c, 1, 65, 66
1, 60510, Note_on_c, 0, 84, 0
1, 60511, Note_on_c, 0, 89, 80
1, 60542, Note_on_c, 0, 84, 62
1, 60550, Note_on_c, 0, 89, 0
1, 60571, Note_on_c, 0, 84, 0
1, 60571, Note_on_c, 0, 81, 57
1, 60601, Note_on_c, 0, 77, 64
1, 60608, Note_on_c, 1, 65, 0
1, 60611, Note_on_c, 0, 81, 0
1, 60630, Note_on_c, 0, 77, 0
1, 60631, Note_on_c, 0, 84, 76
1, 60662, Note_on_c, 0, 81, 72
1, 60665, Note_on_c, 0, 84, 0
1, 60691, Note_on_c, 0, 81, 0
1, 60691, Note_on_c, 0, 77, 62
1, 60721, Note_on_c, 0, 77, 0
1, 60721, Note_on_c, 0, 72, 72
1, 60750, Note_on_c, 1, 65, 79
1, 60751, Note_on_c, 0, 72, 0
1, 60751, Note_on_c, 0, 77, 60
1, 60781, Note_on_c, 0, 72, 80
1, 60781, Note_on_c, 1, 60, 62
1, 60785, Note_on_c, 1, 65, 0
1, 60790, Note_on_c, 0, 77, 0
1, 60811, Note_on_c, 0, 69, 64
1, 60811, Note_on_c, 1, 57, 70
1, 60812, Note_on_c, 1, 60, 0
1, 60813, Note_on_c, 0, 72, 0
1, 60841, Note_on_c, 1, 57, 0
1, 60841, Note_on_c, 1, 53, 70
1, 60842, Note_on_c, 0, 65, 72
1, 60849, Note_on_c, 0, 69, 0
1, 60886, Note_on_c, 0, 65, 0
1, 60953, Note_on_c, 1, 53, 0
1, 60959, Note_on_c, 1, 41, 75
1, 60962, Note_on_c, 0, 77, 76
1, 60962, Note_on_c, 0, 72, 76
1, 60962, Note_on_c, 0, 69, 72
1, 61042, Note_on_c, 0, 69, 0
1, 61043, Note_on_c, 0, 72, 0
1, 61044, Note_on_c, 0, 77, 0
1, 61093, Note_on_c, 1, 41, 0
1, 61201, Note_on_c, 1, 58, 52
1, 61391, Note_on_c, 1, 58, 0
1, 61443, Note_on_c, 1, 53, 45
1, 61512, Note_on_c, 1, 53, 0
1, 61561, Note_on_c, 1, 50, 52
1, 61714, Note_on_c, 1, 50, 0
1, 61797, Note_on_c, 1, 53, 62
1, 61888, Note_on_c, 1, 53, 0
1, 61921, Note_on_c, 1, 58, 52
1, 61981, Note_on_c, 0, 77, 62
1, 62027, Note_on_c, 0, 77, 0
1, 62042, Note_on_c, 0, 77, 72
1, 62090, Note_on_c, 0, 77, 0
1, 62098, Note_on_c, 1, 58, 0
1, 62101, Note_on_c, 0, 77, 72
1, 62144, Note_on_c, 0, 77, 0
1, 62161, Note_on_c, 0, 77, 89
1, 62161, Note_on_c, 1, 62, 62
1, 62204, Note_on_c, 0, 77, 0
1, 62221, Note_on_c, 0, 77, 89
1, 62277, Note_on_c, 1, 62, 0
1, 62278, Note_on_c, 0, 77, 0
1, 62280, Note_on_c, 1, 65, 66
1, 62281, Note_on_c, 0, 79, 89
1, 62341, Note_on_c, 0, 77, 76
1, 62345, Note_on_c, 0, 79, 0
1, 62401, Note_on_c, 0, 75, 62
1, 62406, Note_on_c, 0, 77, 0
1, 62443, Note_on_c, 1, 65, 0
1, 62461, Note_on_c, 0, 74, 72
1, 62465, Note_on_c, 0, 75, 0
1, 62521, Note_on_c, 0, 74, 0
1, 62521, Note_on_c, 0, 72, 76
1, 62581, Note_on_c, 0, 70, 72
1, 62584, Note_on_c, 0, 72, 0
1, 62624, Note_on_c, 0, 70, 0
1, 62640, Note_on_c, 1, 51, 52
1, 62641, Note_on_c, 0, 72, 80
1, 62656, Note_on_c, 0, 70, 57
1, 62659, Note_on_c, 0, 72, 0
1, 62672, Note_on_c, 0, 72, 72
1, 62673, Note_on_c, 0, 70, 0
1, 62687, Note_on_c, 0, 70, 60
1, 62694, Note_on_c, 0, 72, 0
1, 62703, Note_on_c, 0, 70, 0
1, 62707, Note_on_c, 0, 69, 76
1, 62748, Note_on_c, 0, 69, 0
1, 62761, Note_on_c, 0, 69, 76
1, 62882, Note_on_c, 1, 48, 54
1, 62887, Note_on_c, 0, 69, 0
1, 62887, Note_on_c, 1, 51, 0
1, 63002, Note_on_c, 1, 45, 58
1, 63006, Note_on_c, 1, 48, 0
1, 63239, Note_on_c, 1, 45, 0
1, 63241, Note_on_c, 1, 48, 62
1, 63361, Note_on_c, 1, 51, 58
1, 63363, Note_on_c, 1, 48, 0
1, 63421, Note_on_c, 0, 75, 62
1, 63468, Note_on_c, 0, 75, 0
1, 63481, Note_on_c, 0, 75, 76
1, 63508, Note_on_c, 0, 75, 0
1, 63541, Note_on_c, 0, 75, 76
1, 63585, Note_on_c, 0, 75, 0
1, 63594, Note_on_c, 1, 51, 0
1, 63599, Note_on_c, 1, 57, 62
1, 63600, Note_on_c, 0, 75, 76
1, 63643, Note_on_c, 0, 75, 0
1, 63660, Note_on_c, 0, 75, 85
1, 63719, Note_on_c, 1, 60, 50
1, 63720, Note_on_c, 0, 75, 0
1, 63721, Note_on_c, 0, 77, 93
1, 63722, Note_on_c, 1, 57, 0
1, 63781, Note_on_c, 0, 75, 68
1, 63788, Note_on_c, 0, 77, 0
1, 63842, Note_on_c, 0, 74, 76
1, 63846, Note_on_c, 0, 75, 0
1, 63858, Note_on_c, 1, 60, 0
1, 63901, Note_on_c, 0, 74, 0
1, 63901, Note_on_c, 0, 72, 60
1, 63961, Note_on_c, 0, 70, 62
1, 63966, Note_on_c, 0, 72, 0
1, 64018, Note_on_c, 0, 70, 0
1, 64021, Note_on_c, 0, 69, 62
1, 64080, Note_on_c, 1, 62, 41
1, 64081, Note_on_c, 0, 70, 60
1, 64085, Note_on_c, 0, 69, 0
1, 64141, Note_on_c, 1, 65, 46
1, 64143, Note_on_c, 1, 62, 0
1, 64200, Note_on_c, 1, 65, 0
1, 64201, Note_on_c, 1, 62, 43
1, 64235, Note_on_c, 0, 70, 0
1, 64260, Note_on_c, 1, 62, 0
1, 64261, Note_on_c, 0, 74, 62
1, 64261, Note_on_c, 1, 65, 40
1, 64319, Note_on_c, 1, 65, 0
1, 64320, Note_on_c, 0, 74, 0
1, 64320, Note_on_c, 1, 62, 47
1, 64321, Note_on_c, 0, 72, 72
1, 64376, Note_on_c, 1, 62, 0
1, 64379, Note_on_c, 1, 65, 47
1, 64381, Note_on_c, 0, 70, 68
1, 64386, Note_on_c, 0, 72, 0
1, 64440, Note_on_c, 1, 63, 49
1, 64442, Note_on_c, 0, 69, 76
1, 64443, Note_on_c, 1, 65, 0
1, 64446, Note_on_c, 0, 70, 0
1, 64501, Note_on_c, 1, 65, 41
1, 64505, Note_on_c, 1, 63, 0
1, 64561, Note_on_c, 1, 65, 0
1, 64561, Note_on_c, 1, 63, 43
1, 64570, Note_on_c, 0, 69, 0
1, 64621, Note_on_c, 0, 79, 89
1, 64621, Note_on_c, 1, 63, 0
1, 64621, Note_on_c, 1, 65, 42
1, 64681, Note_on_c, 0, 77, 62
1, 64681, Note_on_c, 1, 63, 45
1, 64682, Note_on_c, 0, 79, 0
1, 64684, Note_on_c, 1, 65, 0
1, 64739, Note_on_c, 0, 77, 0
1, 64739, Note_on_c, 1, 63, 0
1, 64740, Note_on_c, 0, 69, 64
1, 64740, Note_on_c, 1, 65, 46
1, 64800, Note_on_c, 1, 65, 0
1, 64800, Note_on_c, 1, 62, 52
1, 64801, Note_on_c, 0, 70, 59
1, 64805, Note_on_c, 0, 69, 0
1, 64861, Note_on_c, 1, 65, 42
1, 64865, Note_on_c, 1, 62, 0
1, 64919, Note_on_c, 1, 62, 45
1, 64920, Note_on_c, 1, 65, 0
1, 64936, Note_on_c, 0, 70, 0
1, 64979, Note_on_c, 1, 62, 0
1, 64980, Note_on_c, 1, 65, 43
1, 64981, Note_on_c, 0, 74, 55
1, 65038, Note_on_c, 0, 74, 0
1, 65039, Note_on_c, 1, 65, 0
1, 65039, Note_on_c, 1, 62, 45
1, 65041, Note_on_c, 0, 72, 55
1, 65097, Note_on_c, 1, 62, 0
1, 65099, Note_on_c, 1, 65, 45
1, 65100, Note_on_c, 0, 72, 0
1, 65101, Note_on_c, 0, 70, 52
1, 65158, Note_on_c, 1, 65, 0
1, 65159, Note_on_c, 1, 63, 46
1, 65161, Note_on_c, 0, 69, 59
1, 65164, Note_on_c, 0, 70, 0
1, 65221, Note_on_c, 1, 65, 46
1, 65223, Note_on_c, 1, 63, 0
1, 65281, Note_on_c, 1, 63, 45
1, 65284, Note_on_c, 1, 65, 0
1, 65294, Note_on_c, 0, 69, 0
1, 65340, Note_on_c, 1, 65, 45
1, 65341, Note_on_c, 0, 78, 51
1, 65341, Note_on_c, 1, 63, 0
1, 65399, Note_on_c, 0, 78, 0
1, 65400, Note_on_c, 0, 77, 57
1, 65401, Note_on_c, 1, 63, 52
1, 65405, Note_on_c, 1, 65, 0
1, 65457, Note_on_c, 1, 63, 0
1, 65459, Note_on_c, 1, 65, 47
1, 65461, Note_on_c, 0, 77, 0
1, 65461, Note_on_c, 0, 69, 56
1, 65519, Note_on_c, 1, 61, 47
1, 65521, Note_on_c, 0, 69, 0
1, 65521, Note_on_c, 0, 70, 56
1, 65521, Note_on_c, 1, 65, 0
1, 65576, Note_on_c, 1, 61, 0
1, 65579, Note_on_c, 1, 65, 42
1, 65639, Note_on_c, 1, 61, 46
1, 65640, Note_on_c, 1, 65, 0
1, 65644, Note_on_c, 0, 70, 0
1, 65697, Note_on_c, 1, 61, 0
1, 65699, Note_on_c, 1, 65, 41
1, 65701, Note_on_c, 0, 77, 76
1, 65760, Note_on_c, 1, 61, 50
1, 65761, Note_on_c, 0, 73, 85
1, 65761, Note_on_c, 1, 65, 0
1, 65763, Note_on_c, 0, 77, 0
1, 65818, Note_on_c, 1, 61, 0
1, 65819, Note_on_c, 1, 65, 54
1, 65821, Note_on_c, 0, 72, 68
1, 65827, Note_on_c, 0, 73, 0
1, 65862, Note_on_c, 1, 65, 0
1, 65879, Note_on_c, 1, 55, 54
1, 65879, Note_on_c, 1, 62, 52
1, 65882, Note_on_c, 0, 71, 85
1, 65888, Note_on_c, 0, 72, 0
1, 65941, Note_on_c, 1, 65, 54
1, 65942, Note_on_c, 1, 62, 0
1, 65969, Note_on_c, 0, 71, 0
1, 66000, Note_on_c, 1, 65, 0
1, 66000, Note_on_c, 1, 62, 62
1, 66061, Note_on_c, 0, 80, 85
1, 66061, Note_on_c, 1, 65, 54
1, 66062, Note_on_c, 1, 62, 0
1, 66115, Note_on_c, 1, 65, 0
1, 66118, Note_on_c, 0, 80, 0
1, 66119, Note_on_c, 1, 62, 66
1, 66121, Note_on_c, 0, 79, 80
1, 66176, Note_on_c, 1, 62, 0
1, 66179, Note_on_c, 1, 65, 62
1, 66180, Note_on_c, 0, 79, 0
1, 66181, Note_on_c, 0, 70, 72
1, 66186, Note_on_c, 1, 55, 0
1, 66211, Note_on_c, 1, 65, 0
1, 66239, Note_on_c, 1, 63, 50
1, 66239, Note_on_c, 1, 60, 58
1, 66241, Note_on_c, 0, 74, 76
1, 66245, Note_on_c, 0, 70, 0
1, 66301, Note_on_c, 0, 72, 76
1, 66302, Note_on_c, 0, 74, 0
1, 66326, Note_on_c, 1, 60, 0
1, 66334, Note_on_c, 1, 63, 0
1, 66361, Note_on_c, 1, 57, 70
1, 66361, Note_on_c, 1, 65, 62
1, 66362, Note_on_c, 0, 77, 85
1, 66366, Note_on_c, 0, 72, 0
1, 66420, Note_on_c, 0, 77, 0
1, 66421, Note_on_c, 0, 76, 80
1, 66448, Note_on_c, 1, 57, 0
1, 66480, Note_on_c, 0, 76, 0
1, 66481, Note_on_c, 0, 75, 80
1, 66482, Note_on_c, 1, 58, 52
1, 66536, Note_on_c, 1, 58, 0
1, 66536, Note_on_c, 1, 65, 0
1, 66540, Note_on_c, 0, 75, 0
1, 66541, Note_on_c, 0, 74, 64
1, 66594, Note_on_c, 0, 74, 0
1, 66600, Note_on_c, 1, 51, 66
1, 66600, Note_on_c, 1, 63, 52
1, 66602, Note_on_c, 0, 72, 80
1, 66659, Note_on_c, 1, 51, 0
1, 66664, Note_on_c, 1, 63, 0
1, 66685, Note_on_c, 0, 72, 0
1, 66691, Note_on_c, 0, 74, 64
1, 66712, Note_on_c, 0, 74, 0
1, 66719, Note_on_c, 0, 70, 68
1, 66726, Note_on_c, 1, 53, 70
1, 66727, Note_on_c, 1, 62, 62
1, 66806, Note_on_c, 0, 70, 0
1, 66838, Note_on_c, 1, 62, 0
1, 66838, Note_on_c, 1, 60, 62
1, 66840, Note_on_c, 0, 70, 60
1, 66855, Note_on_c, 0, 70, 0
1, 66855, Note_on_c, 0, 69, 60
1, 66870, Note_on_c, 0, 69, 0
1, 66870, Note_on_c, 0, 70, 60
1, 66885, Note_on_c, 0, 70, 0
1, 66885, Note_on_c, 0, 69, 60
1, 66900, Note_on_c, 0, 69, 0
1, 66900, Note_on_c, 0, 70, 60
1, 66915, Note_on_c, 0, 70, 0
1, 66915, Note_on_c, 0, 69, 60
1, 66930, Note_on_c, 0, 69, 0
1, 66930, Note_on_c, 0, 67, 60
1, 66945, Note_on_c, 0, 67, 0
1, 66945, Note_on_c, 0, 69, 60
1, 66958, Note_on_c, 1, 60, 0
1, 66960, Note_on_c, 0, 69, 0
1, 66960, Note_on_c, 1, 58, 54
1, 66961, Note_on_c, 0, 70, 80
1, 66966, Note_on_c, 1, 53, 0
1, 66991, Note_on_c, 0, 65, 76
1, 66996, Note_on_c, 0, 70, 0
1, 67021, Note_on_c, 0, 64, 62
1, 67024, Note_on_c, 0, 65, 0
1, 67049, Note_on_c, 0, 65, 76
1, 67050, Note_on_c, 0, 64, 0
1, 67080, Note_on_c, 0, 67, 80
1, 67081, Note_on_c, 0, 65, 0
1, 67106, Note_on_c, 1, 58, 0
1, 67109, Note_on_c, 0, 65, 62
1, 67112, Note_on_c, 0, 67, 0
1, 67139, Note_on_c, 1, 50, 83
1, 67140, Note_on_c, 0, 64, 64
1, 67142, Note_on_c, 0, 65, 0
1, 67170, Note_on_c, 0, 64, 0
1, 67170, Note_on_c, 0, 65, 68
1, 67200, Note_on_c, 0, 63, 62
1, 67201, Note_on_c, 1, 48, 79
1, 67202, Note_on_c, 0, 65, 0
1, 67203, Note_on_c, 1, 50, 0
1, 67229, Note_on_c, 0, 65, 76
1, 67230, Note_on_c, 0, 63, 0
1, 67258, Note_on_c, 0, 65, 0
1, 67259, Note_on_c, 0, 62, 57
1, 67261, Note_on_c, 1, 48, 0
1, 67261, Note_on_c, 1, 46, 62
1, 67287, Note_on_c, 0, 62, 0
1, 67289, Note_on_c, 0, 65, 68
1, 67317, Note_on_c, 1, 46, 0
1, 67319, Note_on_c, 0, 60, 62
1, 67319, Note_on_c, 1, 45, 66
1, 67320, Note_on_c, 0, 65, 0
1, 67346, Note_on_c, 0, 60, 0
1, 67349, Note_on_c, 0, 65, 76
1, 67379, Note_on_c, 0, 64, 72
1, 67381, Note_on_c, 0, 65, 0
1, 67409, Note_on_c, 0, 65, 68
1, 67410, Note_on_c, 0, 64, 0
1, 67439, Note_on_c, 0, 65, 0
1, 67439, Note_on_c, 0, 67, 62
1, 67440, Note_on_c, 1, 45, 0
1, 67469, Note_on_c, 0, 65, 68
1, 67473, Note_on_c, 0, 67, 0
1, 67498, Note_on_c, 1, 55, 70
1, 67499, Note_on_c, 0, 64, 62
1, 67501, Note_on_c, 0, 65, 0
1, 67529, Note_on_c, 0, 64, 0
1, 67529, Note_on_c, 0, 65, 80
1, 67542, Note_on_c, 0, 65, 0
1, 67559, Note_on_c, 0, 75, 76
1, 67559, Note_on_c, 1, 53, 66
1, 67563, Note_on_c, 1, 55, 0
1, 67588, Note_on_c, 0, 65, 68
1, 67589, Note_on_c, 0, 75, 0
1, 67617, Note_on_c, 0, 65, 0
1, 67619, Note_on_c, 0, 75, 80
1, 67619, Note_on_c, 1, 45, 70
1, 67621, Note_on_c, 1, 53, 0
1, 67649, Note_on_c, 0, 65, 64
1, 67650, Note_on_c, 0, 75, 0
1, 67668, Note_on_c, 0, 65, 0
1, 67677, Note_on_c, 0, 73, 43
1, 67679, Note_on_c, 0, 74, 76
1, 67679, Note_on_c, 1, 46, 62
1, 67681, Note_on_c, 0, 74, 80
1, 67681, Note_on_c, 1, 45, 0
1, 67687, Note_on_c, 0, 73, 0
1, 67708, Note_on_c, 0, 74, 0
1, 67711, Note_on_c, 0, 77, 76
1, 67716, Note_on_c, 0, 74, 0
1, 67741, Note_on_c, 0, 76, 76
1, 67744, Note_on_c, 0, 77, 0
1, 67771, Note_on_c, 0, 77, 72
1, 67772, Note_on_c, 0, 76, 0
1, 67801, Note_on_c, 0, 79, 80
1, 67802, Note_on_c, 0, 77, 0
1, 67810, Note_on_c, 1, 46, 0
1, 67829, Note_on_c, 0, 77, 62
1, 67836, Note_on_c, 0, 79, 0
1, 67860, Note_on_c, 0, 76, 76
1, 67861, Note_on_c, 1, 62, 70
1, 67862, Note_on_c, 0, 77, 0
1, 67889, Note_on_c, 0, 77, 60
1, 67890, Note_on_c, 0, 76, 0
1, 67920, Note_on_c, 0, 75, 72
1, 67921, Note_on_c, 1, 60, 66
1, 67923, Note_on_c, 0, 77, 0
1, 67923, Note_on_c, 1, 62, 0
1, 67949, Note_on_c, 0, 75, 0
1, 67949, Note_on_c, 0, 77, 72
1, 67979, Note_on_c, 1, 60, 0
1, 67979, Note_on_c, 1, 58, 54
1, 67980, Note_on_c, 0, 74, 68
1, 67981, Note_on_c, 0, 77, 0
1, 68009, Note_on_c, 0, 77, 68
1, 68010, Note_on_c, 0, 74, 0
1, 68040, Note_on_c, 0, 77, 0
1, 68040, Note_on_c, 0, 72, 72
1, 68040, Note_on_c, 1, 58, 0
1, 68040, Note_on_c, 1, 57, 58
1, 68068, Note_on_c, 0, 72, 0
1, 68069, Note_on_c, 0, 77, 72
1, 68100, Note_on_c, 0, 76, 80
1, 68101, Note_on_c, 0, 77, 0
1, 68129, Note_on_c, 0, 76, 0
1, 68129, Note_on_c, 0, 77, 76
1, 68157, Note_on_c, 0, 77, 0
1, 68159, Note_on_c, 0, 79, 85
1, 68160, Note_on_c, 1, 57, 0
1, 68189, Note_on_c, 0, 77, 76
1, 68195, Note_on_c, 0, 79, 0
1, 68219, Note_on_c, 0, 76, 62
1, 68220, Note_on_c, 0, 77, 0
1, 68221, Note_on_c, 1, 67, 70
1, 68247, Note_on_c, 0, 76, 0
1, 68249, Note_on_c, 0, 77, 68
1, 68261, Note_on_c, 0, 77, 0
1, 68279, Note_on_c, 0, 87, 76
1, 68281, Note_on_c, 1, 65, 66
1, 68285, Note_on_c, 1, 67, 0
1, 68309, Note_on_c, 0, 87, 0
1, 68309, Note_on_c, 0, 77, 64
1, 68336, Note_on_c, 0, 77, 0
1, 68339, Note_on_c, 0, 87, 76
1, 68339, Note_on_c, 1, 65, 0
1, 68339, Note_on_c, 1, 57, 66
1, 68368, Note_on_c, 0, 77, 68
1, 68369, Note_on_c, 0, 87, 0
1, 68392, Note_on_c, 0, 77, 0
1, 68395, Note_on_c, 1, 57, 0
1, 68398, Note_on_c, 0, 86, 80
1, 68399, Note_on_c, 1, 58, 49
1, 68403, Note_on_c, 1, 58, 66
1, 68429, Note_on_c, 0, 77, 56
1, 68435, Note_on_c, 0, 86, 0
1, 68458, Note_on_c, 0, 76, 56
1, 68459, Note_on_c, 0, 77, 0
1, 68487, Note_on_c, 0, 76, 0
1, 68488, Note_on_c, 0, 77, 72
1, 68501, Note_on_c, 1, 58, 0
1, 68517, Note_on_c, 0, 77, 0
1, 68518, Note_on_c, 0, 79, 72
1, 68540, Note_on_c, 1, 58, 0
1, 68547, Note_on_c, 0, 77, 60
1, 68551, Note_on_c, 0, 79, 0
1, 68577, Note_on_c, 0, 76, 68
1, 68578, Note_on_c, 0, 77, 0
1, 68578, Note_on_c, 1, 65, 66
1, 68607, Note_on_c, 0, 76, 0
1, 68607, Note_on_c, 0, 77, 72
1, 68632, Note_on_c, 1, 65, 0
1, 68637, Note_on_c, 0, 80, 76
1, 68637, Note_on_c, 1, 62, 70
1, 68639, Note_on_c, 0, 77, 0
1, 68667, Note_on_c, 0, 77, 72
1, 68673, Note_on_c, 0, 80, 0
1, 68694, Note_on_c, 1, 62, 0
1, 68697, Note_on_c, 0, 75, 52
1, 68697, Note_on_c, 1, 60, 70
1, 68700, Note_on_c, 0, 77, 0
1, 68725, Note_on_c, 0, 75, 0
1, 68727, Note_on_c, 0, 77, 62
1, 68756, Note_on_c, 0, 77, 0
1, 68756, Note_on_c, 1, 60, 0
1, 68757, Note_on_c, 0, 74, 64
1, 68757, Note_on_c, 1, 59, 79
1, 68760, Note_on_c, 0, 74, 80
1, 68781, Note_on_c, 0, 74, 0
1, 68789, Note_on_c, 0, 79, 50
1, 68804, Note_on_c, 0, 74, 0
1, 68821, Note_on_c, 0, 78, 68
1, 68827, Note_on_c, 0, 79, 0
1, 68849, Note_on_c, 0, 79, 64
1, 68856, Note_on_c, 0, 78, 0
1, 68880, Note_on_c, 0, 79, 0
1, 68880, Note_on_c, 0, 81, 68
1, 68889, Note_on_c, 1, 59, 0
1, 68910, Note_on_c, 0, 81, 0
1, 68910, Note_on_c, 0, 79, 72
1, 68940, Note_on_c, 0, 78, 62
1, 68941, Note_on_c, 1, 68, 70
1, 68943, Note_on_c, 0, 79, 0
1, 68967, Note_on_c, 0, 78, 0
1, 68969, Note_on_c, 0, 79, 80
1, 68998, Note_on_c, 0, 79, 0
1, 68999, Note_on_c, 1, 68, 0
1, 69000, Note_on_c, 1, 67, 70
1, 69001, Note_on_c, 0, 89, 80
1, 69029, Note_on_c, 0, 89, 0
1, 69030, Note_on_c, 0, 79, 72
1, 69060, Note_on_c, 0, 89, 80
1, 69061, Note_on_c, 0, 79, 0
1, 69061, Note_on_c, 1, 59, 62
1, 69063, Note_on_c, 1, 67, 0
1, 69090, Note_on_c, 0, 79, 64
1, 69098, Note_on_c, 0, 89, 0
1, 69108, Note_on_c, 1, 59, 0
1, 69120, Note_on_c, 0, 79, 0
1, 69121, Note_on_c, 0, 88, 80
1, 69121, Note_on_c, 1, 60, 75
1, 69151, Note_on_c, 1, 67, 62
1, 69160, Note_on_c, 1, 60, 0
1, 69179, Note_on_c, 1, 67, 0
1, 69181, Note_on_c, 1, 64, 47
1, 69211, Note_on_c, 1, 64, 0
1, 69211, Note_on_c, 1, 67, 52
1, 69234, Note_on_c, 1, 67, 0
1, 69239, Note_on_c, 1, 57, 66
1, 69240, Note_on_c, 0, 87, 80
1, 69246, Note_on_c, 0, 88, 0
1, 69270, Note_on_c, 1, 66, 45
1, 69275, Note_on_c, 1, 57, 0
1, 69299, Note_on_c, 1, 66, 0
1, 69299, Note_on_c, 1, 60, 62
1, 69329, Note_on_c, 1, 66, 52
1, 69330, Note_on_c, 1, 60, 0
1, 69357, Note_on_c, 1, 66, 0
1, 69359, Note_on_c, 1, 58, 62
1, 69361, Note_on_c, 0, 86, 76
1, 69365, Note_on_c, 0, 87, 0
1, 69391, Note_on_c, 1, 58, 0
1, 69391, Note_on_c, 1, 65, 54
1, 69420, Note_on_c, 1, 65, 0
1, 69421, Note_on_c, 1, 62, 54
1, 69432, Note_on_c, 0, 86, 0
1, 69449, Note_on_c, 1, 62, 0
1, 69451, Note_on_c, 1, 65, 66
1, 69463, Note_on_c, 1, 65, 0
1, 69479, Note_on_c, 0, 86, 80
1, 69480, Note_on_c, 0, 86, 80
1, 69481, Note_on_c, 1, 63, 66
1, 69481, Note_on_c, 1, 51, 79
1, 69510, Note_on_c, 0, 84, 64
1, 69515, Note_on_c, 0, 86, 0
1, 69523, Note_on_c, 0, 86, 0
1, 69538, Note_on_c, 1, 51, 0
1, 69541, Note_on_c, 0, 87, 64
1, 69543, Note_on_c, 0, 84, 0
1, 69546, Note_on_c, 1, 63, 0
1, 69571, Note_on_c, 0, 84, 76
1, 69574, Note_on_c, 0, 87, 0
1, 69589, Note_on_c, 0, 84, 0
1, 69601, Note_on_c, 0, 84, 76
1, 69601, Note_on_c, 1, 62, 66
1, 69601, Note_on_c, 1, 53, 75
1, 69631, Note_on_c, 0, 82, 64
1, 69636, Note_on_c, 0, 84, 0
1, 69660, Note_on_c, 1, 53, 0
1, 69661, Note_on_c, 1, 62, 0
1, 69662, Note_on_c, 0, 86, 76
1, 69663, Note_on_c, 0, 82, 0
1, 69691, Note_on_c, 0, 82, 62
1, 69698, Note_on_c, 0, 86, 0
1, 69707, Note_on_c, 0, 82, 0
1, 69722, Note_on_c, 0, 82, 80
1, 69722, Note_on_c, 1, 51, 62
1, 69722, Note_on_c, 1, 60, 58
1, 69751, Note_on_c, 0, 81, 62
1, 69755, Note_on_c, 0, 82, 0
1, 69771, Note_on_c, 1, 60, 0
1, 69775, Note_on_c, 1, 51, 0
1, 69782, Note_on_c, 0, 81, 0
1, 69782, Note_on_c, 0, 84, 72
1, 69812, Note_on_c, 0, 84, 0
1, 69812, Note_on_c, 0, 81, 62
1, 69835, Note_on_c, 0, 81, 0
1, 69842, Note_on_c, 0, 82, 62
1, 69842, Note_on_c, 1, 50, 83
1, 69842, Note_on_c, 1, 58, 50
1, 69872, Note_on_c, 0, 86, 85
1, 69873, Note_on_c, 0, 82, 0
1, 69900, Note_on_c, 0, 86, 0
1, 69902, Note_on_c, 0, 89, 76
1, 69905, Note_on_c, 1, 50, 0
1, 69909, Note_on_c, 1, 58, 0
1, 69932, Note_on_c, 0, 87, 62
1, 69940, Note_on_c, 0, 89, 0
1, 69962, Note_on_c, 0, 86, 80
1, 69965, Note_on_c, 0, 87, 0
1, 69992, Note_on_c, 0, 84, 72
1, 69993, Note_on_c, 0, 86, 0
1, 70022, Note_on_c, 0, 82, 57
1, 70023, Note_on_c, 0, 84, 0
1, 70050, Note_on_c, 0, 82, 0
1, 70052, Note_on_c, 0, 81, 76
1, 70081, Note_on_c, 0, 81, 0
1, 70081, Note_on_c, 0, 79, 59
1, 70081, Note_on_c, 1, 65, 79
1, 70081, Note_on_c, 1, 62, 83
1, 70111, Note_on_c, 0, 77, 56
1, 70116, Note_on_c, 0, 79, 0
1, 70134, Note_on_c, 1, 62, 0
1, 70139, Note_on_c, 1, 65, 0
1, 70141, Note_on_c, 0, 75, 56
1, 70144, Note_on_c, 0, 77, 0
1, 70171, Note_on_c, 0, 75, 0
1, 70171, Note_on_c, 0, 74, 62
1, 70201, Note_on_c, 0, 72, 64
1, 70201, Note_on_c, 1, 63, 58
1, 70202, Note_on_c, 1, 67, 66
1, 70203, Note_on_c, 0, 74, 0
1, 70231, Note_on_c, 0, 75, 68
1, 70234, Note_on_c, 0, 72, 0
1, 70252, Note_on_c, 1, 67, 0
1, 70253, Note_on_c, 1, 63, 0
1, 70261, Note_on_c, 0, 79, 80
1, 70262, Note_on_c, 0, 75, 0
1, 70291, Note_on_c, 0, 77, 68
1, 70296, Note_on_c, 0, 79, 0
1, 70321, Note_on_c, 0, 75, 72
1, 70326, Note_on_c, 0, 77, 0
1, 70351, Note_on_c, 0, 74, 72
1, 70358, Note_on_c, 0, 75, 0
1, 70381, Note_on_c, 0, 74, 0
1, 70381, Note_on_c, 0, 72, 76
1, 70411, Note_on_c, 0, 70, 56
1, 70416, Note_on_c, 0, 72, 0
1, 70441, Note_on_c, 0, 69, 80
1, 70441, Note_on_c, 1, 58, 62
1, 70441, Note_on_c, 1, 60, 66
1, 70442, Note_on_c, 1, 55, 66
1, 70446, Note_on_c, 0, 70, 0
1, 70471, Note_on_c, 0, 67, 64
1, 70472, Note_on_c, 0, 69, 0
1, 70497, Note_on_c, 1, 55, 0
1, 70500, Note_on_c, 1, 58, 0
1, 70501, Note_on_c, 0, 67, 0
1, 70501, Note_on_c, 0, 65, 62
1, 70501, Note_on_c, 1, 60, 0
1, 70531, Note_on_c, 0, 64, 51
1, 70532, Note_on_c, 0, 65, 0
1, 70561, Note_on_c, 0, 64, 0
1, 70561, Note_on_c, 1, 53, 66
1, 70562, Note_on_c, 0, 65, 80
1, 70576, Note_on_c, 0, 65, 0
1, 70592, Note_on_c, 1, 62, 52
1, 70598, Note_on_c, 1, 53, 0
1, 70622, Note_on_c, 0, 70, 76
1, 70622, Note_on_c, 1, 58, 47
1, 70623, Note_on_c, 1, 62, 0
1, 70634, Note_on_c, 0, 70, 0
1, 70651, Note_on_c, 1, 58, 0
1, 70652, Note_on_c, 1, 62, 54
1, 70677, Note_on_c, 1, 62, 0
1, 70681, Note_on_c, 1, 53, 54
1, 70682, Note_on_c, 0, 74, 76
1, 70699, Note_on_c, 0, 74, 0
1, 70712, Note_on_c, 1, 62, 54
1, 70715, Note_on_c, 1, 53, 0
1, 70740, Note_on_c, 1, 62, 0
1, 70741, Note_on_c, 0, 77, 72
1, 70742, Note_on_c, 1, 58, 45
1, 70758, Note_on_c, 0, 77, 0
1, 70767, Note_on_c, 1, 58, 0
1, 70771, Note_on_c, 1, 62, 52
1, 70793, Note_on_c, 1, 62, 0
1, 70799, Note_on_c, 0, 82, 76
1, 70800, Note_on_c, 1, 53, 52
1, 70817, Note_on_c, 0, 82, 0
1, 70831, Note_on_c, 1, 62, 52
1, 70834, Note_on_c, 1, 53, 0
1, 70858, Note_on_c, 1, 62, 0
1, 70859, Note_on_c, 1, 58, 50
1, 70860, Note_on_c, 0, 86, 93
1, 70871, Note_on_c, 0, 86, 0
1, 70887, Note_on_c, 1, 58, 0
1, 70889, Note_on_c, 1, 62, 54
1, 70913, Note_on_c, 1, 62, 0
1, 70917, Note_on_c, 1, 53, 58
1, 70919, Note_on_c, 0, 74, 76
1, 70934, Note_on_c, 0, 74, 0
1, 70935, Note_on_c, 0, 72, 64
1, 70949, Note_on_c, 0, 72, 0
1, 70950, Note_on_c, 1, 63, 49
1, 70951, Note_on_c, 0, 74, 59
1, 70952, Note_on_c, 1, 53, 0
1, 70963, Note_on_c, 0, 74, 0
1, 70965, Note_on_c, 0, 72, 64
1, 70974, Note_on_c, 1, 63, 0
1, 70979, Note_on_c, 1, 57, 52
1, 70980, Note_on_c, 0, 72, 0
1, 70981, Note_on_c, 0, 74, 64
1, 70995, Note_on_c, 0, 74, 0
1, 70996, Note_on_c, 0, 72, 62
1, 71000, Note_on_c, 1, 57, 0
1, 71009, Note_on_c, 0, 72, 0
1, 71009, Note_on_c, 1, 63, 47
1, 71011, Note_on_c, 0, 74, 62
1, 71025, Note_on_c, 0, 74, 0
1, 71026, Note_on_c, 0, 72, 57
1, 71034, Note_on_c, 1, 63, 0
1, 71038, Note_on_c, 0, 72, 0
1, 71039, Note_on_c, 1, 53, 62
1, 71041, Note_on_c, 0, 74, 68
1, 71054, Note_on_c, 0, 74, 0
1, 71056, Note_on_c, 0, 72, 64
1, 71069, Note_on_c, 0, 72, 0
1, 71069, Note_on_c, 1, 63, 49
1, 71071, Note_on_c, 0, 74, 64
1, 71071, Note_on_c, 1, 53, 0
1, 71084, Note_on_c, 0, 74, 0
1, 71086, Note_on_c, 0, 72, 59
1, 71093, Note_on_c, 1, 63, 0
1, 71099, Note_on_c, 1, 57, 62
1, 71101, Note_on_c, 0, 72, 0
1, 71101, Note_on_c, 0, 74, 62
1, 71114, Note_on_c, 0, 74, 0
1, 71116, Note_on_c, 0, 72, 60
1, 71119, Note_on_c, 1, 57, 0
1, 71129, Note_on_c, 1, 63, 49
1, 71130, Note_on_c, 0, 72, 0
1, 71131, Note_on_c, 0, 74, 62
1, 71144, Note_on_c, 0, 74, 0
1, 71146, Note_on_c, 0, 72, 60
1, 71154, Note_on_c, 1, 63, 0
1, 71159, Note_on_c, 1, 53, 62
1, 71160, Note_on_c, 0, 72, 0
1, 71161, Note_on_c, 0, 74, 68
1, 71175, Note_on_c, 0, 74, 0
1, 71176, Note_on_c, 0, 72, 62
1, 71189, Note_on_c, 1, 63, 50
1, 71191, Note_on_c, 0, 72, 0
1, 71192, Note_on_c, 0, 74, 64
1, 71192, Note_on_c, 1, 53, 0
1, 71205, Note_on_c, 0, 74, 0
1, 71206, Note_on_c, 0, 72, 64
1, 71215, Note_on_c, 1, 63, 0
1, 71219, Note_on_c, 1, 57, 54
1, 71220, Note_on_c, 0, 72, 0
1, 71220, Note_on_c, 0, 70, 60
1, 71245, Note_on_c, 1, 57, 0
1, 71250, Note_on_c, 0, 70, 0
1, 71250, Note_on_c, 0, 72, 60
1, 71251, Note_on_c, 1, 63, 42
1, 71274, Note_on_c, 1, 63, 0
1, 71280, Note_on_c, 0, 72, 0
1, 71280, Note_on_c, 0, 70, 72
1, 71281, Note_on_c, 1, 58, 50
1, 71342, Note_on_c, 1, 62, 66
1, 71343, Note_on_c, 1, 58, 0
1, 71362, Note_on_c, 0, 70, 0
1, 71402, Note_on_c, 1, 65, 66
1, 71404, Note_on_c, 1, 62, 0
1, 71458, Note_on_c, 1, 65, 0
1, 71462, Note_on_c, 1, 70, 54
1, 71516, Note_on_c, 1, 70, 0
1, 71522, Note_on_c, 1, 69, 54
1, 71581, Note_on_c, 1, 69, 0
1, 71582, Note_on_c, 1, 68, 46
1, 71639, Note_on_c, 1, 68, 0
1, 71640, Note_on_c, 0, 76, 72
1, 71642, Note_on_c, 1, 67, 54
1, 71699, Note_on_c, 1, 67, 0
1, 71701, Note_on_c, 1, 70, 54
1, 71759, Note_on_c, 1, 70, 0
1, 71761, Note_on_c, 1, 65, 62
1, 71762, Note_on_c, 0, 77, 80
1, 71771, Note_on_c, 0, 76, 0
1, 71820, Note_on_c, 1, 65, 0
1, 71821, Note_on_c, 1, 70, 47
1, 71881, Note_on_c, 1, 70, 0
1, 71881, Note_on_c, 1, 63, 58
1, 71882, Note_on_c, 0, 79, 85
1, 71883, Note_on_c, 0, 77, 0
1, 71941, Note_on_c, 1, 70, 49
1, 71943, Note_on_c, 1, 63, 0
1, 71996, Note_on_c, 1, 70, 0
1, 72001, Note_on_c, 1, 62, 58
1, 72002, Note_on_c, 0, 79, 0
1, 72003, Note_on_c, 0, 77, 80
1, 72058, Note_on_c, 1, 62, 0
1, 72059, Note_on_c, 1, 70, 49
1, 72120, Note_on_c, 1, 70, 0
1, 72121, Note_on_c, 1, 69, 54
1, 72176, Note_on_c, 0, 77, 0
1, 72180, Note_on_c, 1, 69, 0
1, 72181, Note_on_c, 1, 70, 52
1, 72182, Note_on_c, 0, 79, 60
1, 72194, Note_on_c, 1, 70, 0
1, 72212, Note_on_c, 0, 77, 72
1, 72219, Note_on_c, 0, 79, 0
1, 72242, Note_on_c, 0, 75, 64
1, 72242, Note_on_c, 1, 55, 62
1, 72247, Note_on_c, 0, 77, 0
1, 72271, Note_on_c, 0, 74, 72
1, 72273, Note_on_c, 0, 75, 0
1, 72295, Note_on_c, 1, 55, 0
1, 72300, Note_on_c, 0, 74, 0
1, 72301, Note_on_c, 0, 72, 56
1, 72301, Note_on_c, 1, 63, 52
1, 72323, Note_on_c, 1, 63, 0
1, 72331, Note_on_c, 0, 70, 60
1, 72335, Note_on_c, 0, 72, 0
1, 72359, Note_on_c, 0, 70, 0
1, 72359, Note_on_c, 1, 53, 58
1, 72361, Note_on_c, 0, 74, 72
1, 72420, Note_on_c, 1, 62, 50
1, 72422, Note_on_c, 1, 53, 0
1, 72481, Note_on_c, 1, 62, 0
1, 72481, Note_on_c, 1, 58, 45
1, 72536, Note_on_c, 0, 74, 0
1, 72537, Note_on_c, 1, 58, 0
1, 72539, Note_on_c, 0, 75, 72
1, 72541, Note_on_c, 1, 62, 58
1, 72559, Note_on_c, 1, 62, 0
1, 72599, Note_on_c, 0, 72, 72
1, 72599, Note_on_c, 1, 53, 58
1, 72603, Note_on_c, 0, 75, 0
1, 72655, Note_on_c, 1, 53, 0
1, 72658, Note_on_c, 1, 63, 39
1, 72683, Note_on_c, 1, 63, 0
1, 72718, Note_on_c, 1, 62, 66
1, 72720, Note_on_c, 0, 70, 56
1, 72721, Note_on_c, 0, 72, 0
1, 72779, Note_on_c, 1, 58, 45
1, 72784, Note_on_c, 1, 62, 0
1, 72838, Note_on_c, 1, 58, 0
1, 72838, Note_on_c, 1, 57, 66
1, 72840, Note_on_c, 0, 70, 0
1, 72899, Note_on_c, 1, 56, 66
1, 72902, Note_on_c, 1, 57, 0
1, 72959, Note_on_c, 1, 55, 66
1, 72962, Note_on_c, 1, 56, 0
1, 73019, Note_on_c, 1, 54, 62
1, 73024, Note_on_c, 1, 55, 0
1, 73079, Note_on_c, 0, 63, 80
1, 73081, Note_on_c, 1, 55, 70
1, 73085, Note_on_c, 1, 54, 0
1, 73136, Note_on_c, 0, 63, 0
1, 73139, Note_on_c, 0, 75, 68
1, 73139, Note_on_c, 1, 55, 0
1, 73140, Note_on_c, 1, 58, 54
1, 73161, Note_on_c, 0, 75, 0
1, 73198, Note_on_c, 1, 58, 0
1, 73199, Note_on_c, 0, 65, 93
1, 73199, Note_on_c, 1, 53, 66
1, 73257, Note_on_c, 0, 65, 0
1, 73258, Note_on_c, 1, 53, 0
1, 73259, Note_on_c, 0, 77, 80
1, 73259, Note_on_c, 1, 57, 79
1, 73274, Note_on_c, 0, 77, 0
1, 73318, Note_on_c, 1, 57, 0
1, 73319, Note_on_c, 0, 67, 85
1, 73319, Note_on_c, 1, 52, 75
1, 73372, Note_on_c, 1, 52, 0
1, 73378, Note_on_c, 1, 61, 54
1, 73379, Note_on_c, 0, 67, 0
1, 73379, Note_on_c, 0, 79, 89
1, 73395, Note_on_c, 0, 79, 0
1, 73428, Note_on_c, 1, 61, 0
1, 73438, Note_on_c, 1, 53, 79
1, 73440, Note_on_c, 0, 77, 80
1, 73499, Note_on_c, 1, 62, 54
1, 73501, Note_on_c, 0, 79, 80
1, 73503, Note_on_c, 0, 77, 0
1, 73504, Note_on_c, 1, 53, 0
1, 73531, Note_on_c, 0, 81, 64
1, 73536, Note_on_c, 0, 79, 0
1, 73559, Note_on_c, 1, 58, 54
1, 73560, Note_on_c, 0, 81, 0
1, 73561, Note_on_c, 0, 82, 72
1, 73561, Note_on_c, 1, 62, 0
1, 73591, Note_on_c, 0, 81, 64
1, 73593, Note_on_c, 0, 82, 0
1, 73619, Note_on_c, 1, 62, 52
1, 73621, Note_on_c, 0, 79, 80
1, 73621, Note_on_c, 1, 58, 0
1, 73627, Note_on_c, 0, 81, 0
1, 73651, Note_on_c, 0, 79, 0
1, 73651, Note_on_c, 0, 77, 62
1, 73674, Note_on_c, 1, 62, 0
1, 73680, Note_on_c, 1, 53, 52
1, 73681, Note_on_c, 0, 77, 0
1, 73681, Note_on_c, 0, 75, 60
1, 73711, Note_on_c, 0, 74, 76
1, 73712, Note_on_c, 0, 75, 0
1, 73739, Note_on_c, 1, 53, 0
1, 73741, Note_on_c, 0, 72, 64
1, 73741, Note_on_c, 1, 62, 52
1, 73742, Note_on_c, 0, 74, 0
1, 73771, Note_on_c, 0, 70, 57
1, 73773, Note_on_c, 0, 72, 0
1, 73793, Note_on_c, 1, 62, 0
1, 73799, Note_on_c, 0, 70, 0
1, 73801, Note_on_c, 0, 74, 89
1, 73801, Note_on_c, 1, 53, 58
1, 73856, Note_on_c, 1, 53, 0
1, 73859, Note_on_c, 1, 65, 52
1, 73917, Note_on_c, 1, 65, 0
1, 73920, Note_on_c, 1, 62, 50
1, 73978, Note_on_c, 0, 74, 0
1, 73981, Note_on_c, 0, 75, 64
1, 73981, Note_on_c, 1, 65, 58
1, 73983, Note_on_c, 1, 62, 0
1, 73996, Note_on_c, 1, 65, 0
1, 74040, Note_on_c, 0, 72, 76
1, 74040, Note_on_c, 1, 53, 54
1, 74045, Note_on_c, 0, 75, 0
1, 74096, Note_on_c, 1, 53, 0
1, 74099, Note_on_c, 1, 63, 54
1, 74114, Note_on_c, 1, 63, 0
1, 74161, Note_on_c, 0, 70, 85
1, 74164, Note_on_c, 0, 72, 0
1, 74191, Note_on_c, 1, 58, 62
1, 74221, Note_on_c, 1, 62, 79
1, 74225, Note_on_c, 1, 58, 0
1, 74251, Note_on_c, 1, 65, 70
1, 74252, Note_on_c, 1, 62, 0
1, 74281, Note_on_c, 0, 70, 0
1, 74281, Note_on_c, 1, 65, 0
1, 74282, Note_on_c, 1, 70, 66
1, 74310, Note_on_c, 0, 77, 72
1, 74317, Note_on_c, 1, 70, 0
1, 74335, Note_on_c, 0, 77, 0
1, 74343, Note_on_c, 0, 79, 72
1, 74368, Note_on_c, 0, 79, 0
1, 74372, Note_on_c, 0, 77, 68
1, 74401, Note_on_c, 0, 77, 0
1, 74402, Note_on_c, 0, 75, 64
1, 74402, Note_on_c, 1, 53, 66
1, 74402, Note_on_c, 1, 57, 70
1, 74431, Note_on_c, 0, 74, 76
1, 74432, Note_on_c, 0, 75, 0
1, 74445, Note_on_c, 1, 57, 0
1, 74445, Note_on_c, 1, 53, 0
1, 74461, Note_on_c, 0, 75, 64
1, 74464, Note_on_c, 0, 74, 0
1, 74491, Note_on_c, 0, 75, 0
1, 74491, Note_on_c, 0, 72, 60
1, 74521, Note_on_c, 0, 70, 68
1, 74525, Note_on_c, 0, 72, 0
1, 74551, Note_on_c, 1, 46, 83
1, 74582, Note_on_c, 1, 50, 79
1, 74587, Note_on_c, 1, 46, 0
1, 74598, Note_on_c, 0, 70, 0
1, 74611, Note_on_c, 1, 50, 0
1, 74612, Note_on_c, 1, 53, 66
1, 74640, Note_on_c, 1, 53, 0
1, 74641, Note_on_c, 1, 58, 62
1, 74672, Note_on_c, 0, 65, 80
1, 74681, Note_on_c, 1, 58, 0
1, 74701, Note_on_c, 0, 65, 0
1, 74702, Note_on_c, 0, 67, 62
1, 74731, Note_on_c, 0, 65, 72
1, 74733, Note_on_c, 0, 67, 0
1, 74761, Note_on_c, 0, 63, 68
1, 74761, Note_on_c, 1, 41, 66
1, 74761, Note_on_c, 1, 45, 66
1, 74766, Note_on_c, 0, 65, 0
1, 74791, Note_on_c, 0, 62, 64
1, 74794, Note_on_c, 0, 63, 0
1, 74821, Note_on_c, 0, 63, 62
1, 74824, Note_on_c, 0, 62, 0
1, 74837, Note_on_c, 1, 41, 0
1, 74838, Note_on_c, 1, 45, 0
1, 74851, Note_on_c, 0, 63, 0
1, 74851, Note_on_c, 0, 60, 57
1, 74881, Note_on_c, 1, 46, 75
1, 74882, Note_on_c, 0, 58, 85
1, 74883, Note_on_c, 0, 60, 0
1, 74924, Note_on_c, 0, 58, 0
1, 75002, Note_on_c, 1, 34, 75
1, 75003, Note_on_c, 0, 74, 62
1, 75003, Note_on_c, 0, 77, 76
1, 75003, Note_on_c, 0, 82, 85
1, 75005, Note_on_c, 1, 46, 0
1, 75051, Note_on_c, 0, 74, 0
1, 75052, Note_on_c, 0, 77, 0
1, 75053, Note_on_c, 0, 82, 0
1, 75067, Note_on_c, 1, 34, 0
1, 75077, End_track
0, 0, End_of_file