0, 0, Header, 0, 1, 480
1, 0, Start_track
1, 0, Tempo, 500000
1, 0, Note_on_c, 0, 71, 42
1, 64, Note_on_c, 0, 71, 0
1, 74, Note_on_c, 0, 69, 37
1, 146, Note_on_c, 0, 69, 0
1, 170, Note_on_c, 0, 68, 49
1, 238, Note_on_c, 0, 68, 0
1, 256, Note_on_c, 0, 69, 41
1, 378, Note_on_c, 0, 69, 0
1, 382, Note_on_c, 0, 72, 51
1, 406, Note_on_c, 0, 57, 23
1, 548, Note_on_c, 0, 72, 0
1, 593, Note_on_c, 0, 57, 0
1, 608, Note_on_c, 0, 64, 35
1, 610, Note_on_c, 0, 60, 27
1, 668, Note_on_c, 0, 64, 0
1, 688, Note_on_c, 0, 60, 0
1, 802, Note_on_c, 0, 74, 66
1, 832, Note_on_c, 0, 60, 24
1, 836, Note_on_c, 0, 64, 33
1, 890, Note_on_c, 0, 72, 62
1, 892, Note_on_c, 0, 74, 0
1, 908, Note_on_c, 0, 60, 0
1, 918, Note_on_c, 0, 64, 0
1, 980, Note_on_c, 0, 72, 0
1, 994, Note_on_c, 0, 71, 65
1, 1000, Note_on_c, 0, 60, 38
1, 1024, Note_on_c, 0, 64, 54
1, 1054, Note_on_c, 0, 71, 0
1, 1074, Note_on_c, 0, 60, 0
1, 1076, Note_on_c, 0, 72, 63
1, 1100, Note_on_c, 0, 64, 0
1, 1196, Note_on_c, 0, 76, 65
1, 1204, Note_on_c, 0, 72, 0
1, 1206, Note_on_c, 0, 57, 44
1, 1300, Note_on_c, 0, 57, 0
1, 1322, Note_on_c, 0, 76, 0
1, 1396, Note_on_c, 0, 64, 55
1, 1402, Note_on_c, 0, 60, 49
1, 1458, Note_on_c, 0, 64, 0
1, 1464, Note_on_c, 0, 60, 0
1, 1596, Note_on_c, 0, 77, 75
1, 1616, Note_on_c, 0, 64, 55
1, 1630, Note_on_c, 0, 60, 37
1, 1670, Note_on_c, 0, 64, 0
1, 1678, Note_on_c, 0, 76, 64
1, 1696, Note_on_c, 0, 60, 0
1, 1718, Note_on_c, 0, 77, 0
1, 1776, Note_on_c, 0, 60, 42
1, 1782, Note_on_c, 0, 75, 65
1, 1786, Note_on_c, 0, 76, 0
1, 1789, Note_on_c, 0, 64, 42
1, 1836, Note_on_c, 0, 75, 0
1, 1844, Note_on_c, 0, 60, 0
1, 1846, Note_on_c, 0, 64, 0
1, 1860, Note_on_c, 0, 76, 67
1, 1978, Note_on_c, 0, 76, 0
1, 1984, Note_on_c, 0, 83, 106
1, 1984, Note_on_c, 0, 57, 48
1, 2046, Note_on_c, 0, 57, 0
1, 2070, Note_on_c, 0, 81, 76
1, 2104, Note_on_c, 0, 83, 0
1, 2160, Note_on_c, 0, 80, 76
1, 2176, Note_on_c, 0, 81, 0
1, 2180, Note_on_c, 0, 64, 48
1, 2192, Note_on_c, 0, 60, 37
1, 2234, Note_on_c, 0, 64, 0
1, 2258, Note_on_c, 0, 60, 0
1, 2266, Note_on_c, 0, 81, 71
1, 2284, Note_on_c, 0, 80, 0
1, 2362, Note_on_c, 0, 81, 0
1, 2366, Note_on_c, 0, 83, 100
1, 2376, Note_on_c, 0, 57, 51
1, 2432, Note_on_c, 0, 57, 0
1, 2456, Note_on_c, 0, 81, 73
1, 2476, Note_on_c, 0, 83, 0
1, 2548, Note_on_c, 0, 81, 0
1, 2554, Note_on_c, 0, 80, 73
1, 2576, Note_on_c, 0, 60, 48
1, 2582, Note_on_c, 0, 64, 41
1, 2632, Note_on_c, 0, 60, 0
1, 2635, Note_on_c, 0, 64, 0
1, 2650, Note_on_c, 0, 81, 69
1, 2686, Note_on_c, 0, 80, 0
1, 2778, Note_on_c, 0, 57, 43
1, 2782, Note_on_c, 0, 81, 0
1, 2788, Note_on_c, 0, 84, 69
1, 2908, Note_on_c, 0, 57, 0
1, 3000, Note_on_c, 0, 64, 38
1, 3010, Note_on_c, 0, 60, 27
1, 3064, Note_on_c, 0, 64, 0
1, 3086, Note_on_c, 0, 60, 0
1, 3192, Note_on_c, 0, 60, 30
1, 3194, Note_on_c, 0, 84, 0
1, 3194, Note_on_c, 0, 81, 62
1, 3208, Note_on_c, 0, 64, 45
1, 3242, Note_on_c, 0, 81, 0
1, 3266, Note_on_c, 0, 60, 0
1, 3266, Note_on_c, 0, 64, 0
1, 3384, Note_on_c, 0, 60, 44
1, 3392, Note_on_c, 0, 64, 37
1, 3394, Note_on_c, 0, 84, 71
1, 3432, Note_on_c, 0, 84, 0
1, 3436, Note_on_c, 0, 60, 0
1, 3444, Note_on_c, 0, 64, 0
1, 3554, Note_on_c, 0, 79, 63
1, 3568, Note_on_c, 0, 81, 61
1, 3596, Note_on_c, 0, 52, 73
1, 3614, Note_on_c, 0, 83, 89
1, 3630, Note_on_c, 0, 81, 0
1, 3642, Note_on_c, 0, 52, 0
1, 3650, Note_on_c, 0, 79, 0
1, 3662, Note_on_c, 0, 83, 0
1, 3788, Note_on_c, 0, 78, 65
1, 3798, Note_on_c, 0, 64, 55
1, 3800, Note_on_c, 0, 81, 59
1, 3824, Note_on_c, 0, 59, 39
1, 3842, Note_on_c, 0, 78, 0
1, 3850, Note_on_c, 0, 81, 0
1, 3852, Note_on_c, 0, 64, 0
1, 3876, Note_on_c, 0, 59, 0
1, 3986, Note_on_c, 0, 79, 74
1, 3992, Note_on_c, 0, 76, 47
1, 4012, Note_on_c, 0, 59, 32
1, 4014, Note_on_c, 0, 64, 45
1, 4034, Note_on_c, 0, 79, 0
1, 4042, Note_on_c, 0, 76, 0
1, 4066, Note_on_c, 0, 64, 0
1, 4068, Note_on_c, 0, 59, 0
1, 4174, Note_on_c, 0, 78, 66
1, 4177, Note_on_c, 0, 64, 41
1, 4177, Note_on_c, 0, 81, 72
1, 4192, Note_on_c, 0, 59, 38
1, 4220, Note_on_c, 0, 78, 0
1, 4222, Note_on_c, 0, 81, 0
1, 4234, Note_on_c, 0, 64, 0
1, 4242, Note_on_c, 0, 59, 0
1, 4348, Note_on_c, 0, 79, 86
1, 4364, Note_on_c, 0, 81, 83
1, 4376, Note_on_c, 0, 52, 80
1, 4402, Note_on_c, 0, 83, 106
1, 4408, Note_on_c, 0, 79, 0
1, 4432, Note_on_c, 0, 52, 0
1, 4452, Note_on_c, 0, 81, 0
1, 4490, Note_on_c, 0, 83, 0
1, 4578, Note_on_c, 0, 78, 60
1, 4580, Note_on_c, 0, 81, 75
1, 4592, Note_on_c, 0, 64, 49
1, 4598, Note_on_c, 0, 59, 43
1, 4628, Note_on_c, 0, 78, 0
1, 4636, Note_on_c, 0, 81, 0
1, 4644, Note_on_c, 0, 64, 0
1, 4650, Note_on_c, 0, 59, 0
1, 4764, Note_on_c, 0, 76, 62
1, 4764, Note_on_c, 0, 79, 86
1, 4780, Note_on_c, 0, 64, 50
1, 4782, Note_on_c, 0, 59, 44
1, 4810, Note_on_c, 0, 79, 0
1, 4813, Note_on_c, 0, 76, 0
1, 4834, Note_on_c, 0, 64, 0
1, 4836, Note_on_c, 0, 59, 0
1, 4946, Note_on_c, 0, 78, 75
1, 4956, Note_on_c, 0, 81, 69
1, 4964, Note_on_c, 0, 64, 42
1, 4976, Note_on_c, 0, 59, 41
1, 4990, Note_on_c, 0, 78, 0
1, 5000, Note_on_c, 0, 81, 0
1, 5016, Note_on_c, 0, 64, 0
1, 5030, Note_on_c, 0, 59, 0
1, 5084, Note_on_c, 0, 79, 83
1, 5120, Note_on_c, 0, 81, 59
1, 5154, Note_on_c, 0, 52, 79
1, 5172, Note_on_c, 0, 83, 100
1, 5200, Note_on_c, 0, 79, 0
1, 5200, Note_on_c, 0, 52, 0
1, 5216, Note_on_c, 0, 83, 0
1, 5228, Note_on_c, 0, 81, 0
1, 5345, Note_on_c, 0, 64, 50
1, 5350, Note_on_c, 0, 78, 54
1, 5352, Note_on_c, 0, 81, 53
1, 5364, Note_on_c, 0, 59, 45
1, 5392, Note_on_c, 0, 64, 0
1, 5398, Note_on_c, 0, 78, 0
1, 5410, Note_on_c, 0, 81, 0
1, 5416, Note_on_c, 0, 59, 0
1, 5544, Note_on_c, 0, 79, 71
1, 5554, Note_on_c, 0, 76, 43
1, 5554, Note_on_c, 0, 47, 51
1, 5588, Note_on_c, 0, 79, 0
1, 5604, Note_on_c, 0, 76, 0
1, 5604, Note_on_c, 0, 47, 0
1, 5736, Note_on_c, 0, 75, 59
1, 5742, Note_on_c, 0, 78, 58
1, 5760, Note_on_c, 0, 59, 31
1, 5786, Note_on_c, 0, 75, 0
1, 5804, Note_on_c, 0, 78, 0
1, 5822, Note_on_c, 0, 59, 0
1, 5948, Note_on_c, 0, 76, 59
1, 5980, Note_on_c, 0, 52, 36
1, 6082, Note_on_c, 0, 76, 0
1, 6082, Note_on_c, 0, 52, 0
1, 6338, Note_on_c, 0, 71, 46
1, 6410, Note_on_c, 0, 71, 0
1, 6428, Note_on_c, 0, 69, 39
1, 6494, Note_on_c, 0, 69, 0
1, 6520, Note_on_c, 0, 68, 42
1, 6590, Note_on_c, 0, 68, 0
1, 6604, Note_on_c, 0, 69, 29
1, 6708, Note_on_c, 0, 69, 0
1, 6720, Note_on_c, 0, 72, 49
1, 6774, Note_on_c, 0, 57, 30
1, 6876, Note_on_c, 0, 57, 0
1, 6902, Note_on_c, 0, 72, 0
1, 6902, Note_on_c, 0, 64, 38
1, 6910, Note_on_c, 0, 60, 36
1, 6962, Note_on_c, 0, 64, 0
1, 6972, Note_on_c, 0, 60, 0
1, 7112, Note_on_c, 0, 74, 66
1, 7126, Note_on_c, 0, 64, 44
1, 7128, Note_on_c, 0, 60, 31
1, 7180, Note_on_c, 0, 74, 0
1, 7180, Note_on_c, 0, 64, 0
1, 7200, Note_on_c, 0, 60, 0
1, 7208, Note_on_c, 0, 72, 55
1, 7266, Note_on_c, 0, 72, 0
1, 7304, Note_on_c, 0, 60, 27
1, 7304, Note_on_c, 0, 71, 65
1, 7318, Note_on_c, 0, 64, 31
1, 7354, Note_on_c, 0, 71, 0
1, 7372, Note_on_c, 0, 60, 0
1, 7375, Note_on_c, 0, 64, 0
1, 7392, Note_on_c, 0, 72, 62
1, 7460, Note_on_c, 0, 72, 0
1, 7512, Note_on_c, 0, 57, 37
1, 7514, Note_on_c, 0, 76, 51
1, 7584, Note_on_c, 0, 57, 0
1, 7660, Note_on_c, 0, 76, 0
1, 7710, Note_on_c, 0, 64, 46
1, 7718, Note_on_c, 0, 60, 40
1, 7770, Note_on_c, 0, 64, 0
1, 7780, Note_on_c, 0, 60, 0
1, 7904, Note_on_c, 0, 77, 64
1, 7926, Note_on_c, 0, 60, 27
1, 7929, Note_on_c, 0, 64, 49
1, 7980, Note_on_c, 0, 64, 0
1, 7992, Note_on_c, 0, 77, 0
1, 7995, Note_on_c, 0, 76, 59
1, 8000, Note_on_c, 0, 60, 0
1, 8042, Note_on_c, 0, 76, 0
1, 8070, Note_on_c, 0, 75, 67
1, 8082, Note_on_c, 0, 60, 51
1, 8096, Note_on_c, 0, 64, 27
1, 8124, Note_on_c, 0, 75, 0
1, 8140, Note_on_c, 0, 60, 0
1, 8160, Note_on_c, 0, 64, 0
1, 8172, Note_on_c, 0, 76, 60
1, 8250, Note_on_c, 0, 76, 0
1, 8278, Note_on_c, 0, 83, 105
1, 8281, Note_on_c, 0, 57, 51
1, 8340, Note_on_c, 0, 57, 0
1, 8372, Note_on_c, 0, 81, 82
1, 8396, Note_on_c, 0, 83, 0
1, 8454, Note_on_c, 0, 80, 76
1, 8470, Note_on_c, 0, 64, 55
1, 8480, Note_on_c, 0, 60, 47
1, 8484, Note_on_c, 0, 81, 0
1, 8520, Note_on_c, 0, 64, 0
1, 8534, Note_on_c, 0, 60, 0
1, 8560, Note_on_c, 0, 81, 69
1, 8590, Note_on_c, 0, 80, 0
1, 8656, Note_on_c, 0, 83, 101
1, 8666, Note_on_c, 0, 57, 55
1, 8680, Note_on_c, 0, 81, 0
1, 8714, Note_on_c, 0, 57, 0
1, 8744, Note_on_c, 0, 81, 81
1, 8774, Note_on_c, 0, 83, 0
1, 8848, Note_on_c, 0, 80, 72
1, 8858, Note_on_c, 0, 64, 48
1, 8861, Note_on_c, 0, 81, 0
1, 8868, Note_on_c, 0, 60, 37
1, 8906, Note_on_c, 0, 64, 0
1, 8926, Note_on_c, 0, 81, 78
1, 8938, Note_on_c, 0, 60, 0
1, 8972, Note_on_c, 0, 80, 0
1, 9054, Note_on_c, 0, 81, 0
1, 9056, Note_on_c, 0, 84, 72
1, 9064, Note_on_c, 0, 57, 46
1, 9136, Note_on_c, 0, 57, 0
1, 9282, Note_on_c, 0, 64, 39
1, 9298, Note_on_c, 0, 60, 28
1, 9336, Note_on_c, 0, 84, 0
1, 9339, Note_on_c, 0, 64, 0
1, 9370, Note_on_c, 0, 60, 0
1, 9462, Note_on_c, 0, 81, 67
1, 9468, Note_on_c, 0, 60, 33
1, 9478, Note_on_c, 0, 64, 41
1, 9512, Note_on_c, 0, 81, 0
1, 9530, Note_on_c, 0, 64, 0
1, 9532, Note_on_c, 0, 60, 0
1, 9652, Note_on_c, 0, 84, 79
1, 9668, Note_on_c, 0, 64, 38
1, 9688, Note_on_c, 0, 84, 0
1, 9688, Note_on_c, 0, 60, 44
1, 9720, Note_on_c, 0, 64, 0
1, 9752, Note_on_c, 0, 60, 0
1, 9820, Note_on_c, 0, 79, 73
1, 9830, Note_on_c, 0, 81, 70
1, 9864, Note_on_c, 0, 52, 79
1, 9864, Note_on_c, 0, 83, 105
1, 9874, Note_on_c, 0, 79, 0
1, 9902, Note_on_c, 0, 81, 0
1, 9905, Note_on_c, 0, 52, 0
1, 9905, Note_on_c, 0, 83, 0
1, 10046, Note_on_c, 0, 78, 53
1, 10046, Note_on_c, 0, 81, 64
1, 10062, Note_on_c, 0, 64, 49
1, 10096, Note_on_c, 0, 78, 0
1, 10099, Note_on_c, 0, 81, 0
1, 10114, Note_on_c, 0, 64, 0
1, 10234, Note_on_c, 0, 79, 70
1, 10234, Note_on_c, 0, 76, 49
1, 10237, Note_on_c, 0, 59, 46
1, 10252, Note_on_c, 0, 64, 39
1, 10284, Note_on_c, 0, 79, 0
1, 10286, Note_on_c, 0, 76, 0
1, 10292, Note_on_c, 0, 59, 0
1, 10304, Note_on_c, 0, 64, 0
1, 10430, Note_on_c, 0, 78, 61
1, 10434, Note_on_c, 0, 81, 64
1, 10444, Note_on_c, 0, 64, 32
1, 10470, Note_on_c, 0, 59, 26
1, 10476, Note_on_c, 0, 78, 0
1, 10476, Note_on_c, 0, 81, 0
1, 10502, Note_on_c, 0, 64, 0
1, 10536, Note_on_c, 0, 59, 0
1, 10620, Note_on_c, 0, 79, 62
1, 10628, Note_on_c, 0, 81, 57
1, 10636, Note_on_c, 0, 52, 70
1, 10676, Note_on_c, 0, 79, 0
1, 10676, Note_on_c, 0, 81, 0
1, 10676, Note_on_c, 0, 83, 86
1, 10681, Note_on_c, 0, 52, 0
1, 10716, Note_on_c, 0, 83, 0
1, 10838, Note_on_c, 0, 81, 57
1, 10840, Note_on_c, 0, 64, 49
1, 10840, Note_on_c, 0, 78, 56
1, 10850, Note_on_c, 0, 59, 42
1, 10890, Note_on_c, 0, 78, 0
1, 10893, Note_on_c, 0, 81, 0
1, 10893, Note_on_c, 0, 64, 0
1, 10902, Note_on_c, 0, 59, 0
1, 11026, Note_on_c, 0, 79, 78
1, 11036, Note_on_c, 0, 76, 42
1, 11040, Note_on_c, 0, 64, 44
1, 11052, Note_on_c, 0, 59, 41
1, 11072, Note_on_c, 0, 79, 0
1, 11088, Note_on_c, 0, 76, 0
1, 11092, Note_on_c, 0, 64, 0
1, 11104, Note_on_c, 0, 59, 0
1, 11212, Note_on_c, 0, 78, 69
1, 11218, Note_on_c, 0, 81, 66
1, 11224, Note_on_c, 0, 59, 43
1, 11248, Note_on_c, 0, 64, 24
1, 11256, Note_on_c, 0, 78, 0
1, 11262, Note_on_c, 0, 81, 0
1, 11272, Note_on_c, 0, 59, 0
1, 11314, Note_on_c, 0, 64, 0
1, 11344, Note_on_c, 0, 79, 80
1, 11386, Note_on_c, 0, 81, 57
1, 11414, Note_on_c, 0, 52, 65
1, 11448, Note_on_c, 0, 83, 92
1, 11456, Note_on_c, 0, 79, 0
1, 11461, Note_on_c, 0, 52, 0
1, 11484, Note_on_c, 0, 81, 0
1, 11488, Note_on_c, 0, 83, 0
1, 11614, Note_on_c, 0, 78, 60
1, 11616, Note_on_c, 0, 64, 55
1, 11626, Note_on_c, 0, 59, 55
1, 11632, Note_on_c, 0, 81, 58
1, 11662, Note_on_c, 0, 64, 0
1, 11664, Note_on_c, 0, 78, 0
1, 11672, Note_on_c, 0, 59, 0
1, 11678, Note_on_c, 0, 81, 0
1, 11806, Note_on_c, 0, 79, 72
1, 11824, Note_on_c, 0, 76, 39
1, 11828, Note_on_c, 0, 47, 39
1, 11850, Note_on_c, 0, 79, 0
1, 11878, Note_on_c, 0, 76, 0
1, 11892, Note_on_c, 0, 47, 0
1, 11994, Note_on_c, 0, 75, 62
1, 12004, Note_on_c, 0, 78, 64
1, 12016, Note_on_c, 0, 59, 44
1, 12046, Note_on_c, 0, 75, 0
1, 12070, Note_on_c, 0, 78, 0
1, 12070, Note_on_c, 0, 59, 0
1, 12224, Note_on_c, 0, 76, 59
1, 12246, Note_on_c, 0, 52, 46
1, 12434, Note_on_c, 0, 52, 0
1, 12490, Note_on_c, 0, 76, 0
1, 12644, Note_on_c, 0, 76, 53
1, 12654, Note_on_c, 0, 72, 37
1, 12696, Note_on_c, 0, 76, 0
1, 12714, Note_on_c, 0, 72, 0
1, 12832, Note_on_c, 0, 74, 73
1, 12832, Note_on_c, 0, 77, 79
1, 12868, Note_on_c, 0, 74, 0
1, 12882, Note_on_c, 0, 77, 0
1, 13036, Note_on_c, 0, 79, 95
1, 13039, Note_on_c, 0, 76, 76
1, 13042, Note_on_c, 0, 48, 74
1, 13084, Note_on_c, 0, 76, 0
1, 13088, Note_on_c, 0, 48, 0
1, 13146, Note_on_c, 0, 79, 0
1, 13236, Note_on_c, 0, 60, 70
1, 13242, Note_on_c, 0, 79, 72
1, 13250, Note_on_c, 0, 76, 63
1, 13292, Note_on_c, 0, 79, 0
1, 13295, Note_on_c, 0, 60, 0
1, 13295, Note_on_c, 0, 76, 0
1, 13442, Note_on_c, 0, 52, 88
1, 13444, Note_on_c, 0, 81, 78
1, 13480, Note_on_c, 0, 52, 0
1, 13530, Note_on_c, 0, 79, 83
1, 13556, Note_on_c, 0, 81, 0
1, 13624, Note_on_c, 0, 64, 63
1, 13627, Note_on_c, 0, 79, 0
1, 13632, Note_on_c, 0, 77, 70
1, 13666, Note_on_c, 0, 64, 0
1, 13694, Note_on_c, 0, 77, 0
1, 13718, Note_on_c, 0, 76, 56
1, 13770, Note_on_c, 0, 76, 0
1, 13830, Note_on_c, 0, 71, 88
1, 13830, Note_on_c, 0, 74, 87
1, 13833, Note_on_c, 0, 55, 77
1, 14032, Note_on_c, 0, 67, 81
1, 14056, Note_on_c, 0, 71, 0
1, 14064, Note_on_c, 0, 55, 0
1, 14080, Note_on_c, 0, 67, 0
1, 14098, Note_on_c, 0, 74, 0
1, 14246, Note_on_c, 0, 72, 52
1, 14256, Note_on_c, 0, 76, 49
1, 14294, Note_on_c, 0, 72, 0
1, 14302, Note_on_c, 0, 76, 0
1, 14440, Note_on_c, 0, 74, 72
1, 14442, Note_on_c, 0, 77, 69
1, 14478, Note_on_c, 0, 74, 0
1, 14490, Note_on_c, 0, 77, 0
1, 14638, Note_on_c, 0, 48, 53
1, 14642, Note_on_c, 0, 79, 80
1, 14646, Note_on_c, 0, 76, 57
1, 14688, Note_on_c, 0, 79, 0
1, 14691, Note_on_c, 0, 76, 0
1, 14698, Note_on_c, 0, 48, 0
1, 14834, Note_on_c, 0, 79, 69
1, 14836, Note_on_c, 0, 60, 49
1, 14848, Note_on_c, 0, 76, 49
1, 14884, Note_on_c, 0, 79, 0
1, 14892, Note_on_c, 0, 60, 0
1, 14894, Note_on_c, 0, 76, 0
1, 15028, Note_on_c, 0, 52, 65
1, 15036, Note_on_c, 0, 81, 57
1, 15074, Note_on_c, 0, 52, 0
1, 15100, Note_on_c, 0, 81, 0
1, 15122, Note_on_c, 0, 79, 46
1, 15190, Note_on_c, 0, 79, 0
1, 15208, Note_on_c, 0, 64, 42
1, 15218, Note_on_c, 0, 77, 47
1, 15264, Note_on_c, 0, 64, 0
1, 15267, Note_on_c, 0, 77, 0
1, 15308, Note_on_c, 0, 76, 39
1, 15374, Note_on_c, 0, 76, 0
1, 15438, Note_on_c, 0, 55, 38
1, 15438, Note_on_c, 0, 74, 50
1, 15450, Note_on_c, 0, 71, 29
1, 15652, Note_on_c, 0, 55, 0
1, 15652, Note_on_c, 0, 74, 0
1, 15678, Note_on_c, 0, 71, 0
1, 15818, Note_on_c, 0, 69, 56
1, 15820, Note_on_c, 0, 72, 72
1, 15872, Note_on_c, 0, 69, 0
1, 15884, Note_on_c, 0, 72, 0
1, 16012, Note_on_c, 0, 71, 95
1, 16018, Note_on_c, 0, 74, 89
1, 16054, Note_on_c, 0, 71, 0
1, 16116, Note_on_c, 0, 74, 0
1, 16206, Note_on_c, 0, 45, 97
1, 16210, Note_on_c, 0, 76, 94
1, 16212, Note_on_c, 0, 72, 91
1, 16284, Note_on_c, 0, 72, 0
1, 16310, Note_on_c, 0, 76, 0
1, 16312, Note_on_c, 0, 45, 0
1, 16408, Note_on_c, 0, 57, 71
1, 16410, Note_on_c, 0, 76, 59
1, 16418, Note_on_c, 0, 72, 79
1, 16462, Note_on_c, 0, 72, 0
1, 16478, Note_on_c, 0, 57, 0
1, 16478, Note_on_c, 0, 76, 0
1, 16600, Note_on_c, 0, 48, 78
1, 16606, Note_on_c, 0, 77, 82
1, 16666, Note_on_c, 0, 48, 0
1, 16688, Note_on_c, 0, 76, 73
1, 16708, Note_on_c, 0, 77, 0
1, 16782, Note_on_c, 0, 76, 0
1, 16784, Note_on_c, 0, 60, 71
1, 16790, Note_on_c, 0, 74, 68
1, 16836, Note_on_c, 0, 74, 0
1, 16842, Note_on_c, 0, 60, 0
1, 16862, Note_on_c, 0, 72, 62
1, 16914, Note_on_c, 0, 72, 0
1, 16982, Note_on_c, 0, 52, 90
1, 16986, Note_on_c, 0, 68, 79
1, 16988, Note_on_c, 0, 71, 88
1, 17166, Note_on_c, 0, 68, 0
1, 17196, Note_on_c, 0, 64, 82
1, 17210, Note_on_c, 0, 52, 0
1, 17220, Note_on_c, 0, 71, 0
1, 17244, Note_on_c, 0, 64, 0
1, 17394, Note_on_c, 0, 72, 72
1, 17397, Note_on_c, 0, 69, 59
1, 17442, Note_on_c, 0, 72, 0
1, 17447, Note_on_c, 0, 69, 0
1, 17592, Note_on_c, 0, 71, 81
1, 17598, Note_on_c, 0, 74, 81
1, 17630, Note_on_c, 0, 71, 0
1, 17654, Note_on_c, 0, 74, 0
1, 17794, Note_on_c, 0, 76, 70
1, 17799, Note_on_c, 0, 72, 64
1, 17799, Note_on_c, 0, 45, 56
1, 17848, Note_on_c, 0, 72, 0
1, 17852, Note_on_c, 0, 76, 0
1, 17852, Note_on_c, 0, 45, 0
1, 17996, Note_on_c, 0, 72, 60
1, 17998, Note_on_c, 0, 57, 45
1, 17998, Note_on_c, 0, 76, 60
1, 18042, Note_on_c, 0, 76, 0
1, 18052, Note_on_c, 0, 72, 0
1, 18052, Note_on_c, 0, 57, 0
1, 18180, Note_on_c, 0, 48, 50
1, 18204, Note_on_c, 0, 77, 53
1, 18232, Note_on_c, 0, 48, 0
1, 18270, Note_on_c, 0, 77, 0
1, 18314, Note_on_c, 0, 76, 34
1, 18384, Note_on_c, 0, 76, 0
1, 18384, Note_on_c, 0, 60, 45
1, 18406, Note_on_c, 0, 74, 39
1, 18452, Note_on_c, 0, 60, 0
1, 18460, Note_on_c, 0, 74, 0
1, 18490, Note_on_c, 0, 72, 48
1, 18552, Note_on_c, 0, 72, 0
1, 18646, Note_on_c, 0, 71, 35
1, 18652, Note_on_c, 0, 68, 26
1, 18662, Note_on_c, 0, 52, 34
1, 18928, Note_on_c, 0, 68, 0
1, 18931, Note_on_c, 0, 71, 0
1, 18960, Note_on_c, 0, 52, 0
1, 19094, Note_on_c, 0, 71, 54
1, 19148, Note_on_c, 0, 71, 0
1, 19166, Note_on_c, 0, 69, 39
1, 19234, Note_on_c, 0, 69, 0
1, 19246, Note_on_c, 0, 68, 48
1, 19308, Note_on_c, 0, 68, 0
1, 19336, Note_on_c, 0, 69, 32
1, 19464, Note_on_c, 0, 69, 0
1, 19480, Note_on_c, 0, 72, 52
1, 19492, Note_on_c, 0, 57, 29
1, 19664, Note_on_c, 0, 57, 0
1, 19676, Note_on_c, 0, 72, 0
1, 19680, Note_on_c, 0, 60, 38
1, 19686, Note_on_c, 0, 64, 42
1, 19746, Note_on_c, 0, 64, 0
1, 19748, Note_on_c, 0, 60, 0
1, 19902, Note_on_c, 0, 74, 56
1, 19916, Note_on_c, 0, 64, 44
1, 19922, Note_on_c, 0, 60, 37
1, 19974, Note_on_c, 0, 74, 0
1, 19976, Note_on_c, 0, 64, 0
1, 19990, Note_on_c, 0, 60, 0
1, 19996, Note_on_c, 0, 72, 51
1, 20064, Note_on_c, 0, 72, 0
1, 20092, Note_on_c, 0, 71, 60
1, 20100, Note_on_c, 0, 64, 37
1, 20102, Note_on_c, 0, 60, 27
1, 20156, Note_on_c, 0, 71, 0
1, 20159, Note_on_c, 0, 64, 0
1, 20172, Note_on_c, 0, 60, 0
1, 20184, Note_on_c, 0, 72, 59
1, 20298, Note_on_c, 0, 72, 0
1, 20298, Note_on_c, 0, 76, 63
1, 20306, Note_on_c, 0, 57, 39
1, 20408, Note_on_c, 0, 57, 0
1, 20478, Note_on_c, 0, 76, 0
1, 20498, Note_on_c, 0, 64, 43
1, 20502, Note_on_c, 0, 60, 41
1, 20558, Note_on_c, 0, 64, 0
1, 20566, Note_on_c, 0, 60, 0
1, 20694, Note_on_c, 0, 77, 72
1, 20726, Note_on_c, 0, 64, 52
1, 20729, Note_on_c, 0, 60, 38
1, 20776, Note_on_c, 0, 64, 0
1, 20790, Note_on_c, 0, 76, 58
1, 20796, Note_on_c, 0, 60, 0
1, 20820, Note_on_c, 0, 77, 0
1, 20856, Note_on_c, 0, 76, 0
1, 20872, Note_on_c, 0, 75, 66
1, 20896, Note_on_c, 0, 60, 36
1, 20908, Note_on_c, 0, 64, 24
1, 20944, Note_on_c, 0, 75, 0
1, 20962, Note_on_c, 0, 60, 0
1, 20968, Note_on_c, 0, 64, 0
1, 20974, Note_on_c, 0, 76, 70
1, 21082, Note_on_c, 0, 76, 0
1, 21085, Note_on_c, 0, 83, 106
1, 21085, Note_on_c, 0, 57, 50
1, 21142, Note_on_c, 0, 57, 0
1, 21168, Note_on_c, 0, 81, 79
1, 21198, Note_on_c, 0, 83, 0
1, 21258, Note_on_c, 0, 64, 44
1, 21261, Note_on_c, 0, 80, 78
1, 21276, Note_on_c, 0, 60, 43
1, 21292, Note_on_c, 0, 81, 0
1, 21320, Note_on_c, 0, 64, 0
1, 21334, Note_on_c, 0, 60, 0
1, 21366, Note_on_c, 0, 81, 74
1, 21394, Note_on_c, 0, 80, 0
1, 21464, Note_on_c, 0, 83, 99
1, 21468, Note_on_c, 0, 57, 57
1, 21492, Note_on_c, 0, 81, 0
1, 21522, Note_on_c, 0, 57, 0
1, 21550, Note_on_c, 0, 81, 85
1, 21578, Note_on_c, 0, 83, 0
1, 21650, Note_on_c, 0, 64, 49
1, 21650, Note_on_c, 0, 80, 84
1, 21658, Note_on_c, 0, 60, 50
1, 21673, Note_on_c, 0, 81, 0
1, 21700, Note_on_c, 0, 64, 0
1, 21714, Note_on_c, 0, 60, 0
1, 21744, Note_on_c, 0, 81, 70
1, 21778, Note_on_c, 0, 80, 0
1, 21864, Note_on_c, 0, 84, 97
1, 21874, Note_on_c, 0, 53, 104
1, 21888, Note_on_c, 0, 81, 0
1, 22018, Note_on_c, 0, 53, 0
1, 22072, Note_on_c, 0, 63, 56
1, 22084, Note_on_c, 0, 57, 45
1, 22134, Note_on_c, 0, 63, 0
1, 22142, Note_on_c, 0, 57, 0
1, 22276, Note_on_c, 0, 81, 91
1, 22284, Note_on_c, 0, 63, 71
1, 22298, Note_on_c, 0, 57, 68
1, 22314, Note_on_c, 0, 84, 0
1, 22350, Note_on_c, 0, 63, 0
1, 22350, Note_on_c, 0, 57, 0
1, 22380, Note_on_c, 0, 81, 0
1, 22480, Note_on_c, 0, 83, 115
1, 22483, Note_on_c, 0, 63, 67
1, 22506, Note_on_c, 0, 57, 54
1, 22538, Note_on_c, 0, 63, 0
1, 22562, Note_on_c, 0, 57, 0
1, 22564, Note_on_c, 0, 83, 0
1, 22700, Note_on_c, 0, 52, 76
1, 22704, Note_on_c, 0, 84, 97
1, 22754, Note_on_c, 0, 52, 0
1, 22798, Note_on_c, 0, 84, 0
1, 22904, Note_on_c, 0, 64, 60
1, 22910, Note_on_c, 0, 83, 101
1, 22924, Note_on_c, 0, 57, 42
1, 22950, Note_on_c, 0, 64, 0
1, 22980, Note_on_c, 0, 57, 0
1, 22984, Note_on_c, 0, 83, 0
1, 23102, Note_on_c, 0, 50, 72
1, 23104, Note_on_c, 0, 81, 78
1, 23160, Note_on_c, 0, 50, 0
1, 23212, Note_on_c, 0, 81, 0
1, 23300, Note_on_c, 0, 80, 78
1, 23303, Note_on_c, 0, 59, 50
1, 23328, Note_on_c, 0, 53, 48
1, 23358, Note_on_c, 0, 59, 0
1, 23380, Note_on_c, 0, 80, 0
1, 23386, Note_on_c, 0, 53, 0
1, 23496, Note_on_c, 0, 48, 56
1, 23514, Note_on_c, 0, 81, 60
1, 23566, Note_on_c, 0, 48, 0
1, 23588, Note_on_c, 0, 81, 0
1, 23696, Note_on_c, 0, 76, 63
1, 23698, Note_on_c, 0, 57, 43
1, 23718, Note_on_c, 0, 52, 41
1, 23748, Note_on_c, 0, 76, 0
1, 23762, Note_on_c, 0, 57, 0
1, 23772, Note_on_c, 0, 52, 0
1, 23904, Note_on_c, 0, 77, 64
1, 23904, Note_on_c, 0, 50, 45
1, 23948, Note_on_c, 0, 77, 0
1, 23964, Note_on_c, 0, 50, 0
1, 24082, Note_on_c, 0, 59, 42
1, 24092, Note_on_c, 0, 53, 62
1, 24094, Note_on_c, 0, 74, 59
1, 24134, Note_on_c, 0, 59, 0
1, 24142, Note_on_c, 0, 74, 0
1, 24144, Note_on_c, 0, 53, 0
1, 24292, Note_on_c, 0, 72, 63
1, 24298, Note_on_c, 0, 57, 54
1, 24312, Note_on_c, 0, 52, 58
1, 24354, Note_on_c, 0, 57, 0
1, 24356, Note_on_c, 0, 52, 0
1, 24504, Note_on_c, 0, 57, 46
1, 24544, Note_on_c, 0, 52, 20
1, 24562, Note_on_c, 0, 57, 0
1, 24565, Note_on_c, 0, 72, 0
1, 24602, Note_on_c, 0, 52, 0
1, 24664, Note_on_c, 0, 72, 45
1, 24688, Note_on_c, 0, 52, 55
1, 24696, Note_on_c, 0, 56, 56
1, 24720, Note_on_c, 0, 72, 0
1, 24732, Note_on_c, 0, 71, 58
1, 24748, Note_on_c, 0, 52, 0
1, 24760, Note_on_c, 0, 56, 0
1, 24780, Note_on_c, 0, 71, 0
1, 24784, Note_on_c, 0, 72, 66
1, 24838, Note_on_c, 0, 72, 0
1, 24841, Note_on_c, 0, 71, 69
1, 24908, Note_on_c, 0, 71, 0
1, 24908, Note_on_c, 0, 56, 43
1, 24918, Note_on_c, 0, 72, 42
1, 24944, Note_on_c, 0, 71, 36
1, 24964, Note_on_c, 0, 56, 0
1, 24978, Note_on_c, 0, 72, 0
1, 25014, Note_on_c, 0, 69, 43
1, 25026, Note_on_c, 0, 71, 0
1, 25072, Note_on_c, 0, 69, 0
1, 25088, Note_on_c, 0, 71, 83
1, 25168, Note_on_c, 0, 71, 0
1, 25174, Note_on_c, 0, 69, 34
1, 25180, Note_on_c, 0, 57, 29
1, 25200, Note_on_c, 0, 45, 19
1, 25442, Note_on_c, 0, 69, 0
1, 25494, Note_on_c, 0, 45, 0
1, 25500, Note_on_c, 0, 57, 0
1, 25638, Note_on_c, 0, 72, 47
1, 25646, Note_on_c, 0, 76, 49
1, 25690, Note_on_c, 0, 72, 0
1, 25695, Note_on_c, 0, 76, 0
1, 25846, Note_on_c, 0, 74, 63
1, 25854, Note_on_c, 0, 77, 55
1, 25886, Note_on_c, 0, 74, 0
1, 25900, Note_on_c, 0, 77, 0
1, 26048, Note_on_c, 0, 79, 76
1, 26054, Note_on_c, 0, 48, 50
1, 26060, Note_on_c, 0, 76, 46
1, 26100, Note_on_c, 0, 79, 0
1, 26105, Note_on_c, 0, 48, 0
1, 26112, Note_on_c, 0, 76, 0
1, 26252, Note_on_c, 0, 79, 68
1, 26258, Note_on_c, 0, 60, 48
1, 26266, Note_on_c, 0, 76, 40
1, 26300, Note_on_c, 0, 79, 0
1, 26314, Note_on_c, 0, 60, 0
1, 26318, Note_on_c, 0, 76, 0
1, 26452, Note_on_c, 0, 81, 54
1, 26462, Note_on_c, 0, 52, 44
1, 26518, Note_on_c, 0, 52, 0
1, 26526, Note_on_c, 0, 81, 0
1, 26560, Note_on_c, 0, 79, 49
1, 26624, Note_on_c, 0, 79, 0
1, 26640, Note_on_c, 0, 77, 52
1, 26670, Note_on_c, 0, 64, 10
1, 26690, Note_on_c, 0, 77, 0
1, 26732, Note_on_c, 0, 64, 0
1, 26735, Note_on_c, 0, 76, 36
1, 26794, Note_on_c, 0, 76, 0
1, 26854, Note_on_c, 0, 74, 28
1, 26858, Note_on_c, 0, 71, 52
1, 26860, Note_on_c, 0, 55, 38
1, 26982, Note_on_c, 0, 71, 0
1, 27001, Note_on_c, 0, 74, 0
1, 27068, Note_on_c, 0, 67, 61
1, 27076, Note_on_c, 0, 55, 0
1, 27116, Note_on_c, 0, 67, 0
1, 27280, Note_on_c, 0, 72, 60
1, 27284, Note_on_c, 0, 76, 56
1, 27328, Note_on_c, 0, 72, 0
1, 27328, Note_on_c, 0, 76, 0
1, 27492, Note_on_c, 0, 77, 68
1, 27504, Note_on_c, 0, 74, 41
1, 27540, Note_on_c, 0, 77, 0
1, 27560, Note_on_c, 0, 74, 0
1, 27686, Note_on_c, 0, 79, 81
1, 27686, Note_on_c, 0, 48, 46
1, 27698, Note_on_c, 0, 76, 54
1, 27744, Note_on_c, 0, 79, 0
1, 27744, Note_on_c, 0, 76, 0
1, 27750, Note_on_c, 0, 48, 0
1, 27902, Note_on_c, 0, 79, 67
1, 27902, Note_on_c, 0, 60, 51
1, 27905, Note_on_c, 0, 76, 52
1, 27946, Note_on_c, 0, 79, 0
1, 27954, Note_on_c, 0, 76, 0
1, 27958, Note_on_c, 0, 60, 0
1, 28088, Note_on_c, 0, 52, 67
1, 28100, Note_on_c, 0, 81, 61
1, 28130, Note_on_c, 0, 52, 0
1, 28158, Note_on_c, 0, 81, 0
1, 28188, Note_on_c, 0, 79, 57
1, 28252, Note_on_c, 0, 79, 0
1, 28270, Note_on_c, 0, 64, 46
1, 28280, Note_on_c, 0, 77, 50
1, 28320, Note_on_c, 0, 64, 0
1, 28328, Note_on_c, 0, 77, 0
1, 28366, Note_on_c, 0, 76, 46
1, 28420, Note_on_c, 0, 76, 0
1, 28496, Note_on_c, 0, 74, 59
1, 28510, Note_on_c, 0, 55, 34
1, 28513, Note_on_c, 0, 71, 33
1, 28794, Note_on_c, 0, 55, 0
1, 28812, Note_on_c, 0, 71, 0
1, 28840, Note_on_c, 0, 74, 0
1, 28911, Note_on_c, 0, 72, 69
1, 28918, Note_on_c, 0, 69, 43
1, 28966, Note_on_c, 0, 72, 0
1, 28980, Note_on_c, 0, 69, 0
1, 29110, Note_on_c, 0, 71, 88
1, 29114, Note_on_c, 0, 74, 87
1, 29154, Note_on_c, 0, 71, 0
1, 29200, Note_on_c, 0, 74, 0
1, 29314, Note_on_c, 0, 76, 82
1, 29317, Note_on_c, 0, 72, 78
1, 29322, Note_on_c, 0, 45, 64
1, 29368, Note_on_c, 0, 72, 0
1, 29378, Note_on_c, 0, 45, 0
1, 29418, Note_on_c, 0, 76, 0
1, 29512, Note_on_c, 0, 57, 61
1, 29520, Note_on_c, 0, 72, 66
1, 29520, Note_on_c, 0, 76, 64
1, 29566, Note_on_c, 0, 76, 0
1, 29572, Note_on_c, 0, 72, 0
1, 29578, Note_on_c, 0, 57, 0
1, 29708, Note_on_c, 0, 77, 82
1, 29713, Note_on_c, 0, 48, 53
1, 29770, Note_on_c, 0, 48, 0
1, 29804, Note_on_c, 0, 76, 64
1, 29838, Note_on_c, 0, 77, 0
1, 29866, Note_on_c, 0, 76, 0
1, 29882, Note_on_c, 0, 60, 52
1, 29898, Note_on_c, 0, 74, 67
1, 29938, Note_on_c, 0, 74, 0
1, 29942, Note_on_c, 0, 60, 0
1, 29978, Note_on_c, 0, 72, 59
1, 30026, Note_on_c, 0, 72, 0
1, 30104, Note_on_c, 0, 68, 62
1, 30107, Note_on_c, 0, 71, 70
1, 30116, Note_on_c, 0, 52, 55
1, 30310, Note_on_c, 0, 64, 78
1, 30338, Note_on_c, 0, 68, 0
1, 30360, Note_on_c, 0, 64, 0
1, 30378, Note_on_c, 0, 71, 0
1, 30388, Note_on_c, 0, 52, 0
1, 30518, Note_on_c, 0, 69, 63
1, 30518, Note_on_c, 0, 72, 71
1, 30570, Note_on_c, 0, 69, 0
1, 30580, Note_on_c, 0, 72, 0
1, 30718, Note_on_c, 0, 71, 87
1, 30721, Note_on_c, 0, 74, 83
1, 30758, Note_on_c, 0, 71, 0
1, 30774, Note_on_c, 0, 74, 0
1, 30918, Note_on_c, 0, 76, 76
1, 30920, Note_on_c, 0, 45, 57
1, 30924, Note_on_c, 0, 72, 72
1, 30972, Note_on_c, 0, 72, 0
1, 30978, Note_on_c, 0, 45, 0
1, 30988, Note_on_c, 0, 76, 0
1, 31130, Note_on_c, 0, 76, 64
1, 31132, Note_on_c, 0, 57, 49
1, 31132, Note_on_c, 0, 72, 54
1, 31174, Note_on_c, 0, 76, 0
1, 31188, Note_on_c, 0, 72, 0
1, 31191, Note_on_c, 0, 57, 0
1, 31324, Note_on_c, 0, 48, 41
1, 31338, Note_on_c, 0, 77, 57
1, 31390, Note_on_c, 0, 48, 0
1, 31400, Note_on_c, 0, 77, 0
1, 31440, Note_on_c, 0, 76, 32
1, 31512, Note_on_c, 0, 76, 0
1, 31515, Note_on_c, 0, 60, 38
1, 31540, Note_on_c, 0, 74, 44
1, 31582, Note_on_c, 0, 60, 0
1, 31586, Note_on_c, 0, 74, 0
1, 31626, Note_on_c, 0, 72, 39
1, 31742, Note_on_c, 0, 72, 0
1, 31780, Note_on_c, 0, 71, 48
1, 31786, Note_on_c, 0, 68, 31
1, 31798, Note_on_c, 0, 52, 35
1, 32200, Note_on_c, 0, 68, 0
1, 32216, Note_on_c, 0, 71, 0
1, 32262, Note_on_c, 0, 52, 0
1, 32298, Note_on_c, 0, 71, 59
1, 32410, Note_on_c, 0, 69, 37
1, 32412, Note_on_c, 0, 71, 0
1, 32476, Note_on_c, 0, 69, 0
1, 32482, Note_on_c, 0, 68, 53
1, 32534, Note_on_c, 0, 68, 0
1, 32562, Note_on_c, 0, 69, 38
1, 32670, Note_on_c, 0, 69, 0
1, 32684, Note_on_c, 0, 57, 31
1, 32688, Note_on_c, 0, 72, 59
1, 32808, Note_on_c, 0, 57, 0
1, 32894, Note_on_c, 0, 64, 29
1, 32897, Note_on_c, 0, 60, 26
1, 32902, Note_on_c, 0, 72, 0
1, 32958, Note_on_c, 0, 64, 0
1, 32968, Note_on_c, 0, 60, 0
1, 33098, Note_on_c, 0, 74, 60
1, 33106, Note_on_c, 0, 64, 38
1, 33108, Note_on_c, 0, 60, 15
1, 33160, Note_on_c, 0, 74, 0
1, 33164, Note_on_c, 0, 64, 0
1, 33188, Note_on_c, 0, 60, 0
1, 33190, Note_on_c, 0, 72, 46
1, 33254, Note_on_c, 0, 72, 0
1, 33280, Note_on_c, 0, 71, 63
1, 33288, Note_on_c, 0, 60, 34
1, 33316, Note_on_c, 0, 64, 29
1, 33336, Note_on_c, 0, 71, 0
1, 33356, Note_on_c, 0, 60, 0
1, 33384, Note_on_c, 0, 64, 0
1, 33387, Note_on_c, 0, 72, 50
1, 33470, Note_on_c, 0, 72, 0
1, 33486, Note_on_c, 0, 57, 44
1, 33490, Note_on_c, 0, 76, 63
1, 33620, Note_on_c, 0, 57, 0
1, 33652, Note_on_c, 0, 76, 0
1, 33682, Note_on_c, 0, 64, 48
1, 33688, Note_on_c, 0, 60, 45
1, 33736, Note_on_c, 0, 64, 0
1, 33746, Note_on_c, 0, 60, 0
1, 33900, Note_on_c, 0, 77, 75
1, 33900, Note_on_c, 0, 64, 46
1, 33924, Note_on_c, 0, 60, 40
1, 33956, Note_on_c, 0, 64, 0
1, 33990, Note_on_c, 0, 60, 0
1, 33996, Note_on_c, 0, 76, 57
1, 34018, Note_on_c, 0, 77, 0
1, 34070, Note_on_c, 0, 76, 0
1, 34088, Note_on_c, 0, 75, 66
1, 34091, Note_on_c, 0, 60, 28
1, 34108, Note_on_c, 0, 64, 36
1, 34146, Note_on_c, 0, 75, 0
1, 34158, Note_on_c, 0, 60, 0
1, 34162, Note_on_c, 0, 64, 0
1, 34190, Note_on_c, 0, 76, 64
1, 34254, Note_on_c, 0, 76, 0
1, 34300, Note_on_c, 0, 57, 43
1, 34312, Note_on_c, 0, 83, 94
1, 34368, Note_on_c, 0, 57, 0
1, 34404, Note_on_c, 0, 81, 72
1, 34408, Note_on_c, 0, 83, 0
1, 34492, Note_on_c, 0, 81, 0
1, 34496, Note_on_c, 0, 64, 46
1, 34498, Note_on_c, 0, 80, 70
1, 34520, Note_on_c, 0, 60, 31
1, 34550, Note_on_c, 0, 64, 0
1, 34592, Note_on_c, 0, 60, 0
1, 34614, Note_on_c, 0, 81, 66
1, 34636, Note_on_c, 0, 80, 0
1, 34670, Note_on_c, 0, 81, 0
1, 34694, Note_on_c, 0, 83, 95
1, 34704, Note_on_c, 0, 57, 55
1, 34756, Note_on_c, 0, 57, 0
1, 34788, Note_on_c, 0, 81, 71
1, 34812, Note_on_c, 0, 83, 0
1, 34880, Note_on_c, 0, 80, 78
1, 34886, Note_on_c, 0, 64, 55
1, 34896, Note_on_c, 0, 81, 0
1, 34902, Note_on_c, 0, 60, 47
1, 34934, Note_on_c, 0, 64, 0
1, 34960, Note_on_c, 0, 60, 0
1, 34972, Note_on_c, 0, 81, 75
1, 34994, Note_on_c, 0, 80, 0
1, 35086, Note_on_c, 0, 53, 102
1, 35088, Note_on_c, 0, 84, 95
1, 35118, Note_on_c, 0, 81, 0
1, 35262, Note_on_c, 0, 53, 0
1, 35316, Note_on_c, 0, 63, 59
1, 35326, Note_on_c, 0, 57, 43
1, 35382, Note_on_c, 0, 63, 0
1, 35388, Note_on_c, 0, 57, 0
1, 35496, Note_on_c, 0, 81, 92
1, 35516, Note_on_c, 0, 63, 69
1, 35519, Note_on_c, 0, 84, 0
1, 35526, Note_on_c, 0, 57, 44
1, 35578, Note_on_c, 0, 63, 0
1, 35588, Note_on_c, 0, 57, 0
1, 35602, Note_on_c, 0, 81, 0
1, 35702, Note_on_c, 0, 83, 115
1, 35704, Note_on_c, 0, 63, 70
1, 35714, Note_on_c, 0, 57, 44
1, 35758, Note_on_c, 0, 63, 0
1, 35778, Note_on_c, 0, 57, 0
1, 35780, Note_on_c, 0, 83, 0
1, 35910, Note_on_c, 0, 84, 98
1, 35922, Note_on_c, 0, 52, 75
1, 35978, Note_on_c, 0, 52, 0
1, 36002, Note_on_c, 0, 84, 0
1, 36120, Note_on_c, 0, 64, 60
1, 36124, Note_on_c, 0, 83, 103
1, 36140, Note_on_c, 0, 57, 46
1, 36166, Note_on_c, 0, 64, 0
1, 36192, Note_on_c, 0, 57, 0
1, 36194, Note_on_c, 0, 83, 0
1, 36320, Note_on_c, 0, 81, 80
1, 36322, Note_on_c, 0, 50, 67
1, 36374, Note_on_c, 0, 50, 0
1, 36408, Note_on_c, 0, 81, 0
1, 36518, Note_on_c, 0, 59, 54
1, 36518, Note_on_c, 0, 80, 76
1, 36540, Note_on_c, 0, 53, 59
1, 36570, Note_on_c, 0, 59, 0
1, 36594, Note_on_c, 0, 53, 0
1, 36596, Note_on_c, 0, 80, 0
1, 36728, Note_on_c, 0, 48, 57
1, 36730, Note_on_c, 0, 81, 71
1, 36786, Note_on_c, 0, 48, 0
1, 36796, Note_on_c, 0, 81, 0
1, 36926, Note_on_c, 0, 76, 65
1, 36926, Note_on_c, 0, 57, 44
1, 36954, Note_on_c, 0, 52, 34
1, 36984, Note_on_c, 0, 76, 0
1, 36994, Note_on_c, 0, 57, 0
1, 37012, Note_on_c, 0, 52, 0
1, 37120, Note_on_c, 0, 50, 54
1, 37130, Note_on_c, 0, 77, 60
1, 37176, Note_on_c, 0, 77, 0
1, 37180, Note_on_c, 0, 50, 0
1, 37320, Note_on_c, 0, 59, 41
1, 37320, Note_on_c, 0, 74, 59
1, 37330, Note_on_c, 0, 53, 58
1, 37368, Note_on_c, 0, 74, 0
1, 37370, Note_on_c, 0, 59, 0
1, 37382, Note_on_c, 0, 53, 0
1, 37520, Note_on_c, 0, 72, 60
1, 37522, Note_on_c, 0, 57, 54
1, 37536, Note_on_c, 0, 52, 57
1, 37588, Note_on_c, 0, 57, 0
1, 37588, Note_on_c, 0, 52, 0
1, 37742, Note_on_c, 0, 57, 55
1, 37770, Note_on_c, 0, 52, 54
1, 37794, Note_on_c, 0, 57, 0
1, 37808, Note_on_c, 0, 72, 0
1, 37818, Note_on_c, 0, 52, 0
1, 37914, Note_on_c, 0, 72, 42
1, 37926, Note_on_c, 0, 56, 60
1, 37964, Note_on_c, 0, 52, 34
1, 37966, Note_on_c, 0, 72, 0
1, 37976, Note_on_c, 0, 71, 59
1, 38004, Note_on_c, 0, 56, 0
1, 38026, Note_on_c, 0, 52, 0
1, 38026, Note_on_c, 0, 71, 0
1, 38029, Note_on_c, 0, 72, 61
1, 38078, Note_on_c, 0, 72, 0
1, 38092, Note_on_c, 0, 71, 65
1, 38142, Note_on_c, 0, 71, 0
1, 38146, Note_on_c, 0, 72, 54
1, 38148, Note_on_c, 0, 56, 47
1, 38178, Note_on_c, 0, 52, 29
1, 38208, Note_on_c, 0, 72, 0
1, 38214, Note_on_c, 0, 71, 59
1, 38222, Note_on_c, 0, 56, 0
1, 38236, Note_on_c, 0, 52, 0
1, 38266, Note_on_c, 0, 71, 0
1, 38276, Note_on_c, 0, 69, 46
1, 38334, Note_on_c, 0, 69, 0
1, 38336, Note_on_c, 0, 71, 64
1, 38418, Note_on_c, 0, 57, 35
1, 38430, Note_on_c, 0, 71, 0
1, 38438, Note_on_c, 0, 69, 36
1, 38438, Note_on_c, 0, 45, 30
1, 38784, Note_on_c, 0, 69, 0
1, 38800, Note_on_c, 0, 45, 0
1, 38808, Note_on_c, 0, 57, 0
1, 38882, Note_on_c, 0, 69, 65
1, 38888, Note_on_c, 0, 81, 86
1, 38972, Note_on_c, 0, 69, 0
1, 38986, Note_on_c, 0, 81, 0
1, 39084, Note_on_c, 0, 83, 110
1, 39088, Note_on_c, 0, 71, 92
1, 39118, Note_on_c, 0, 83, 0
1, 39124, Note_on_c, 0, 71, 0
1, 39324, Note_on_c, 0, 45, 79
1, 39334, Note_on_c, 0, 49, 72
1, 39336, Note_on_c, 0, 73, 100
1, 39336, Note_on_c, 0, 85, 104
1, 39346, Note_on_c, 0, 52, 88
1, 39358, Note_on_c, 0, 57, 89
1, 39396, Note_on_c, 0, 45, 0
1, 39434, Note_on_c, 0, 49, 0
1, 39436, Note_on_c, 0, 52, 0
1, 39480, Note_on_c, 0, 57, 0
1, 39492, Note_on_c, 0, 85, 0
1, 39528, Note_on_c, 0, 73, 0
1, 39590, Note_on_c, 0, 57, 33
1, 39654, Note_on_c, 0, 57, 0
1, 39778, Note_on_c, 0, 69, 84
1, 39782, Note_on_c, 0, 81, 100
1, 39792, Note_on_c, 0, 57, 90
1, 39850, Note_on_c, 0, 57, 0
1, 39858, Note_on_c, 0, 69, 0
1, 39876, Note_on_c, 0, 81, 0
1, 39996, Note_on_c, 0, 83, 117
1, 39998, Note_on_c, 0, 71, 101
1, 40008, Note_on_c, 0, 57, 73
1, 40034, Note_on_c, 0, 71, 0
1, 40044, Note_on_c, 0, 83, 0
1, 40058, Note_on_c, 0, 57, 0
1, 40216, Note_on_c, 0, 45, 87
1, 40224, Note_on_c, 0, 49, 77
1, 40226, Note_on_c, 0, 73, 103
1, 40228, Note_on_c, 0, 85, 106
1, 40232, Note_on_c, 0, 52, 85
1, 40252, Note_on_c, 0, 57, 103
1, 40300, Note_on_c, 0, 45, 0
1, 40308, Note_on_c, 0, 73, 0
1, 40318, Note_on_c, 0, 49, 0
1, 40318, Note_on_c, 0, 52, 0
1, 40344, Note_on_c, 0, 85, 0
1, 40370, Note_on_c, 0, 57, 0
1, 40448, Note_on_c, 0, 83, 103
1, 40454, Note_on_c, 0, 71, 70
1, 40454, Note_on_c, 0, 57, 56
1, 40492, Note_on_c, 0, 83, 0
1, 40498, Note_on_c, 0, 71, 0
1, 40546, Note_on_c, 0, 57, 0
1, 40644, Note_on_c, 0, 81, 92
1, 40644, Note_on_c, 0, 69, 84
1, 40654, Note_on_c, 0, 57, 74
1, 40692, Note_on_c, 0, 81, 0
1, 40692, Note_on_c, 0, 69, 0
1, 40720, Note_on_c, 0, 57, 0
1, 40852, Note_on_c, 0, 68, 86
1, 40854, Note_on_c, 0, 80, 93
1, 40858, Note_on_c, 0, 57, 78
1, 40898, Note_on_c, 0, 57, 0
1, 40922, Note_on_c, 0, 68, 0
1, 40922, Note_on_c, 0, 80, 0
1, 41054, Note_on_c, 0, 38, 95
1, 41062, Note_on_c, 0, 45, 88
1, 41064, Note_on_c, 0, 42, 85
1, 41070, Note_on_c, 0, 66, 90
1, 41072, Note_on_c, 0, 78, 94
1, 41086, Note_on_c, 0, 50, 95
1, 41110, Note_on_c, 0, 38, 0
1, 41148, Note_on_c, 0, 45, 0
1, 41160, Note_on_c, 0, 78, 0
1, 41168, Note_on_c, 0, 42, 0
1, 41168, Note_on_c, 0, 66, 0
1, 41178, Note_on_c, 0, 50, 0
1, 41278, Note_on_c, 0, 68, 81
1, 41280, Note_on_c, 0, 80, 90
1, 41288, Note_on_c, 0, 50, 68
1, 41336, Note_on_c, 0, 50, 0
1, 41362, Note_on_c, 0, 68, 0
1, 41372, Note_on_c, 0, 80, 0
1, 41456, Note_on_c, 0, 39, 74
1, 41480, Note_on_c, 0, 45, 54
1, 41486, Note_on_c, 0, 81, 98
1, 41486, Note_on_c, 0, 42, 54
1, 41489, Note_on_c, 0, 69, 67
1, 41494, Note_on_c, 0, 51, 90
1, 41518, Note_on_c, 0, 39, 0
1, 41534, Note_on_c, 0, 42, 0
1, 41537, Note_on_c, 0, 71, 22
1, 41544, Note_on_c, 0, 45, 0
1, 41546, Note_on_c, 0, 81, 0
1, 41546, Note_on_c, 0, 69, 0
1, 41582, Note_on_c, 0, 51, 0
1, 41594, Note_on_c, 0, 71, 0
1, 41686, Note_on_c, 0, 71, 67
1, 41686, Note_on_c, 0, 83, 105
1, 41692, Note_on_c, 0, 51, 68
1, 41720, Note_on_c, 0, 83, 0
1, 41738, Note_on_c, 0, 71, 0
1, 41752, Note_on_c, 0, 51, 0
1, 41858, Note_on_c, 0, 40, 86
1, 41878, Note_on_c, 0, 44, 62
1, 41908, Note_on_c, 0, 80, 91
1, 41914, Note_on_c, 0, 68, 64
1, 41916, Note_on_c, 0, 47, 51
1, 41934, Note_on_c, 0, 52, 88
1, 41944, Note_on_c, 0, 70, 22
1, 41946, Note_on_c, 0, 80, 0
1, 41950, Note_on_c, 0, 40, 0
1, 41962, Note_on_c, 0, 47, 0
1, 41976, Note_on_c, 0, 68, 0
1, 41996, Note_on_c, 0, 44, 0
1, 42008, Note_on_c, 0, 70, 0
1, 42018, Note_on_c, 0, 52, 0
1, 42128, Note_on_c, 0, 52, 73
1, 42134, Note_on_c, 0, 76, 56
1, 42134, Note_on_c, 0, 64, 66
1, 42178, Note_on_c, 0, 52, 0
1, 42178, Note_on_c, 0, 64, 0
1, 42182, Note_on_c, 0, 76, 0
1, 42332, Note_on_c, 0, 81, 95
1, 42334, Note_on_c, 0, 69, 72
1, 42336, Note_on_c, 0, 52, 82
1, 42368, Note_on_c, 0, 81, 0
1, 42382, Note_on_c, 0, 69, 0
1, 42382, Note_on_c, 0, 52, 0
1, 42542, Note_on_c, 0, 52, 83
1, 42542, Note_on_c, 0, 71, 84
1, 42545, Note_on_c, 0, 83, 105
1, 42580, Note_on_c, 0, 71, 0
1, 42580, Note_on_c, 0, 83, 0
1, 42583, Note_on_c, 0, 52, 0
1, 42754, Note_on_c, 0, 45, 66
1, 42764, Note_on_c, 0, 49, 62
1, 42776, Note_on_c, 0, 52, 55
1, 42786, Note_on_c, 0, 85, 105
1, 42788, Note_on_c, 0, 73, 100
1, 42802, Note_on_c, 0, 57, 84
1, 42808, Note_on_c, 0, 45, 0
1, 42844, Note_on_c, 0, 52, 0
1, 42854, Note_on_c, 0, 49, 0
1, 42908, Note_on_c, 0, 57, 0
1, 42974, Note_on_c, 0, 85, 0
1, 42996, Note_on_c, 0, 73, 0
1, 43002, Note_on_c, 0, 57, 43
1, 43076, Note_on_c, 0, 57, 0
1, 43212, Note_on_c, 0, 69, 71
1, 43218, Note_on_c, 0, 57, 75
1, 43218, Note_on_c, 0, 81, 92
1, 43272, Note_on_c, 0, 69, 0
1, 43272, Note_on_c, 0, 57, 0
1, 43302, Note_on_c, 0, 81, 0
1, 43416, Note_on_c, 0, 57, 80
1, 43428, Note_on_c, 0, 71, 88
1, 43428, Note_on_c, 0, 83, 110
1, 43462, Note_on_c, 0, 83, 0
1, 43464, Note_on_c, 0, 71, 0
1, 43478, Note_on_c, 0, 57, 0
1, 43610, Note_on_c, 0, 45, 70
1, 43614, Note_on_c, 0, 49, 67
1, 43638, Note_on_c, 0, 85, 101
1, 43640, Note_on_c, 0, 73, 95
1, 43640, Note_on_c, 0, 52, 74
1, 43668, Note_on_c, 0, 57, 92
1, 43680, Note_on_c, 0, 45, 0
1, 43724, Note_on_c, 0, 85, 0
1, 43727, Note_on_c, 0, 49, 0
1, 43734, Note_on_c, 0, 52, 0
1, 43739, Note_on_c, 0, 73, 0
1, 43770, Note_on_c, 0, 57, 0
1, 43852, Note_on_c, 0, 83, 107
1, 43854, Note_on_c, 0, 71, 92
1, 43856, Note_on_c, 0, 57, 55
1, 43894, Note_on_c, 0, 83, 0
1, 43902, Note_on_c, 0, 71, 0
1, 43912, Note_on_c, 0, 57, 0
1, 44050, Note_on_c, 0, 69, 65
1, 44050, Note_on_c, 0, 81, 87
1, 44056, Note_on_c, 0, 57, 74
1, 44090, Note_on_c, 0, 81, 0
1, 44104, Note_on_c, 0, 69, 0
1, 44104, Note_on_c, 0, 57, 0
1, 44252, Note_on_c, 0, 57, 75
1, 44252, Note_on_c, 0, 68, 79
1, 44254, Note_on_c, 0, 80, 88
1, 44292, Note_on_c, 0, 57, 0
1, 44294, Note_on_c, 0, 80, 0
1, 44310, Note_on_c, 0, 68, 0
1, 44448, Note_on_c, 0, 38, 87
1, 44454, Note_on_c, 0, 42, 78
1, 44456, Note_on_c, 0, 45, 71
1, 44464, Note_on_c, 0, 66, 83
1, 44466, Note_on_c, 0, 78, 90
1, 44488, Note_on_c, 0, 50, 98
1, 44491, Note_on_c, 0, 38, 0
1, 44516, Note_on_c, 0, 45, 0
1, 44522, Note_on_c, 0, 66, 0
1, 44538, Note_on_c, 0, 78, 0
1, 44554, Note_on_c, 0, 42, 0
1, 44580, Note_on_c, 0, 50, 0
1, 44670, Note_on_c, 0, 83, 110
1, 44676, Note_on_c, 0, 50, 59
1, 44676, Note_on_c, 0, 71, 87
1, 44700, Note_on_c, 0, 83, 0
1, 44716, Note_on_c, 0, 71, 0
1, 44740, Note_on_c, 0, 50, 0
1, 44846, Note_on_c, 0, 40, 84
1, 44862, Note_on_c, 0, 44, 68
1, 44870, Note_on_c, 0, 68, 86
1, 44872, Note_on_c, 0, 80, 91
1, 44884, Note_on_c, 0, 47, 63
1, 44896, Note_on_c, 0, 40, 0
1, 44896, Note_on_c, 0, 52, 103
1, 44922, Note_on_c, 0, 80, 0
1, 44946, Note_on_c, 0, 47, 0
1, 44952, Note_on_c, 0, 68, 0
1, 44978, Note_on_c, 0, 44, 0
1, 44996, Note_on_c, 0, 52, 0
1, 45088, Note_on_c, 0, 76, 81
1, 45091, Note_on_c, 0, 64, 84
1, 45096, Note_on_c, 0, 52, 71
1, 45126, Note_on_c, 0, 64, 0
1, 45128, Note_on_c, 0, 76, 0
1, 45142, Note_on_c, 0, 52, 0
1, 45316, Note_on_c, 0, 81, 98
1, 45316, Note_on_c, 0, 69, 74
1, 45324, Note_on_c, 0, 45, 76
1, 45366, Note_on_c, 0, 45, 0
1, 45490, Note_on_c, 0, 69, 0
1, 45538, Note_on_c, 0, 81, 0
1, 45736, Note_on_c, 0, 81, 87
1, 45736, Note_on_c, 0, 69, 65
1, 45778, Note_on_c, 0, 81, 0
1, 45788, Note_on_c, 0, 69, 0
1, 45948, Note_on_c, 0, 83, 110
1, 45948, Note_on_c, 0, 71, 85
1, 45980, Note_on_c, 0, 83, 0
1, 45988, Note_on_c, 0, 71, 0
1, 46138, Note_on_c, 0, 45, 61
1, 46168, Note_on_c, 0, 49, 64
1, 46180, Note_on_c, 0, 52, 42
1, 46202, Note_on_c, 0, 73, 88
1, 46206, Note_on_c, 0, 85, 97
1, 46218, Note_on_c, 0, 57, 95
1, 46248, Note_on_c, 0, 45, 0
1, 46266, Note_on_c, 0, 49, 0
1, 46278, Note_on_c, 0, 52, 0
1, 46314, Note_on_c, 0, 57, 0
1, 46356, Note_on_c, 0, 85, 0
1, 46404, Note_on_c, 0, 73, 0
1, 46404, Note_on_c, 0, 57, 48
1, 46506, Note_on_c, 0, 57, 0
1, 46616, Note_on_c, 0, 69, 66
1, 46616, Note_on_c, 0, 81, 87
1, 46628, Note_on_c, 0, 57, 57
1, 46670, Note_on_c, 0, 69, 0
1, 46684, Note_on_c, 0, 57, 0
1, 46690, Note_on_c, 0, 81, 0
1, 46830, Note_on_c, 0, 83, 106
1, 46832, Note_on_c, 0, 57, 72
1, 46832, Note_on_c, 0, 71, 80
1, 46864, Note_on_c, 0, 83, 0
1, 46874, Note_on_c, 0, 71, 0
1, 46898, Note_on_c, 0, 57, 0
1, 47008, Note_on_c, 0, 45, 69
1, 47034, Note_on_c, 0, 49, 62
1, 47066, Note_on_c, 0, 85, 92
1, 47066, Note_on_c, 0, 52, 80
1, 47066, Note_on_c, 0, 73, 86
1, 47088, Note_on_c, 0, 57, 90
1, 47114, Note_on_c, 0, 45, 0
1, 47124, Note_on_c, 0, 52, 0
1, 47136, Note_on_c, 0, 49, 0
1, 47156, Note_on_c, 0, 85, 0
1, 47172, Note_on_c, 0, 73, 0
1, 47188, Note_on_c, 0, 57, 0
1, 47276, Note_on_c, 0, 57, 49
1, 47282, Note_on_c, 0, 83, 103
1, 47284, Note_on_c, 0, 71, 91
1, 47326, Note_on_c, 0, 83, 0
1, 47330, Note_on_c, 0, 71, 0
1, 47348, Note_on_c, 0, 57, 0
1, 47484, Note_on_c, 0, 69, 70
1, 47484, Note_on_c, 0, 81, 86
1, 47496, Note_on_c, 0, 57, 67
1, 47522, Note_on_c, 0, 81, 0
1, 47536, Note_on_c, 0, 69, 0
1, 47544, Note_on_c, 0, 57, 0
1, 47684, Note_on_c, 0, 68, 77
1, 47687, Note_on_c, 0, 80, 82
1, 47702, Note_on_c, 0, 57, 53
1, 47728, Note_on_c, 0, 80, 0
1, 47734, Note_on_c, 0, 68, 0
1, 47756, Note_on_c, 0, 57, 0
1, 47888, Note_on_c, 0, 38, 90
1, 47900, Note_on_c, 0, 42, 79
1, 47900, Note_on_c, 0, 45, 74
1, 47906, Note_on_c, 0, 66, 84
1, 47908, Note_on_c, 0, 78, 88
1, 47924, Note_on_c, 0, 50, 100
1, 47944, Note_on_c, 0, 38, 0
1, 47980, Note_on_c, 0, 45, 0
1, 47998, Note_on_c, 0, 66, 0
1, 48006, Note_on_c, 0, 42, 0
1, 48014, Note_on_c, 0, 50, 0
1, 48018, Note_on_c, 0, 78, 0
1, 48114, Note_on_c, 0, 68, 70
1, 48117, Note_on_c, 0, 80, 78
1, 48126, Note_on_c, 0, 50, 57
1, 48168, Note_on_c, 0, 68, 0
1, 48180, Note_on_c, 0, 80, 0
1, 48182, Note_on_c, 0, 50, 0
1, 48280, Note_on_c, 0, 39, 83
1, 48306, Note_on_c, 0, 42, 70
1, 48309, Note_on_c, 0, 45, 60
1, 48324, Note_on_c, 0, 81, 97
1, 48327, Note_on_c, 0, 39, 0
1, 48327, Note_on_c, 0, 69, 78
1, 48342, Note_on_c, 0, 51, 95
1, 48348, Note_on_c, 0, 42, 0
1, 48370, Note_on_c, 0, 81, 0
1, 48376, Note_on_c, 0, 69, 0
1, 48382, Note_on_c, 0, 45, 0
1, 48436, Note_on_c, 0, 51, 0
1, 48524, Note_on_c, 0, 51, 69
1, 48526, Note_on_c, 0, 83, 107
1, 48528, Note_on_c, 0, 71, 91
1, 48560, Note_on_c, 0, 83, 0
1, 48570, Note_on_c, 0, 71, 0
1, 48594, Note_on_c, 0, 51, 0
1, 48676, Note_on_c, 0, 40, 90
1, 48696, Note_on_c, 0, 44, 72
1, 48734, Note_on_c, 0, 47, 62
1, 48738, Note_on_c, 0, 68, 92
1, 48738, Note_on_c, 0, 80, 95
1, 48758, Note_on_c, 0, 52, 98
1, 48766, Note_on_c, 0, 40, 0
1, 48782, Note_on_c, 0, 47, 0
1, 48816, Note_on_c, 0, 80, 0
1, 48822, Note_on_c, 0, 44, 0
1, 48828, Note_on_c, 0, 68, 0
1, 48854, Note_on_c, 0, 52, 0
1, 48944, Note_on_c, 0, 76, 88
1, 48949, Note_on_c, 0, 52, 75
1, 48949, Note_on_c, 0, 64, 84
1, 48986, Note_on_c, 0, 64, 0
1, 48988, Note_on_c, 0, 76, 0
1, 49002, Note_on_c, 0, 52, 0
1, 49148, Note_on_c, 0, 81, 97
1, 49154, Note_on_c, 0, 69, 72
1, 49160, Note_on_c, 0, 52, 72
1, 49186, Note_on_c, 0, 81, 0
1, 49200, Note_on_c, 0, 52, 0
1, 49202, Note_on_c, 0, 69, 0
1, 49348, Note_on_c, 0, 83, 116
1, 49356, Note_on_c, 0, 71, 87
1, 49366, Note_on_c, 0, 52, 82
1, 49396, Note_on_c, 0, 71, 0
1, 49402, Note_on_c, 0, 52, 0
1, 49416, Note_on_c, 0, 83, 0
1, 49526, Note_on_c, 0, 45, 74
1, 49556, Note_on_c, 0, 49, 81
1, 49590, Note_on_c, 0, 52, 68
1, 49618, Note_on_c, 0, 73, 97
1, 49618, Note_on_c, 0, 85, 101
1, 49626, Note_on_c, 0, 57, 99
1, 49638, Note_on_c, 0, 45, 0
1, 49684, Note_on_c, 0, 49, 0
1, 49698, Note_on_c, 0, 52, 0
1, 49738, Note_on_c, 0, 57, 0
1, 49804, Note_on_c, 0, 85, 0
1, 49846, Note_on_c, 0, 73, 0
1, 49860, Note_on_c, 0, 57, 52
1, 49916, Note_on_c, 0, 57, 0
1, 50040, Note_on_c, 0, 81, 90
1, 50042, Note_on_c, 0, 69, 73
1, 50060, Note_on_c, 0, 57, 78
1, 50094, Note_on_c, 0, 69, 0
1, 50102, Note_on_c, 0, 57, 0
1, 50152, Note_on_c, 0, 81, 0
1, 50252, Note_on_c, 0, 83, 110
1, 50256, Note_on_c, 0, 71, 83
1, 50256, Note_on_c, 0, 57, 79
1, 50284, Note_on_c, 0, 83, 0
1, 50296, Note_on_c, 0, 71, 0
1, 50300, Note_on_c, 0, 57, 0
1, 50422, Note_on_c, 0, 45, 79
1, 50438, Note_on_c, 0, 49, 78
1, 50472, Note_on_c, 0, 73, 91
1, 50474, Note_on_c, 0, 52, 87
1, 50474, Note_on_c, 0, 85, 97
1, 50506, Note_on_c, 0, 57, 91
1, 50524, Note_on_c, 0, 45, 0
1, 50546, Note_on_c, 0, 49, 0
1, 50562, Note_on_c, 0, 73, 0
1, 50570, Note_on_c, 0, 85, 0
1, 50578, Note_on_c, 0, 52, 0
1, 50626, Note_on_c, 0, 57, 0
1, 50696, Note_on_c, 0, 83, 111
1, 50699, Note_on_c, 0, 57, 58
1, 50702, Note_on_c, 0, 71, 80
1, 50732, Note_on_c, 0, 83, 0
1, 50752, Note_on_c, 0, 71, 0
1, 50776, Note_on_c, 0, 57, 0
1, 50888, Note_on_c, 0, 57, 58
1, 50902, Note_on_c, 0, 81, 91
1, 50904, Note_on_c, 0, 69, 67
1, 50938, Note_on_c, 0, 81, 0
1, 50946, Note_on_c, 0, 57, 0
1, 50954, Note_on_c, 0, 69, 0
1, 51090, Note_on_c, 0, 57, 77
1, 51098, Note_on_c, 0, 68, 83
1, 51100, Note_on_c, 0, 80, 89
1, 51130, Note_on_c, 0, 57, 0
1, 51142, Note_on_c, 0, 80, 0
1, 51156, Note_on_c, 0, 68, 0
1, 51280, Note_on_c, 0, 38, 94
1, 51290, Note_on_c, 0, 42, 80
1, 51300, Note_on_c, 0, 45, 67
1, 51312, Note_on_c, 0, 66, 81
1, 51316, Note_on_c, 0, 78, 88
1, 51348, Note_on_c, 0, 38, 0
1, 51348, Note_on_c, 0, 50, 95
1, 51362, Note_on_c, 0, 66, 0
1, 51390, Note_on_c, 0, 78, 0
1, 51402, Note_on_c, 0, 42, 0
1, 51405, Note_on_c, 0, 45, 0
1, 51448, Note_on_c, 0, 50, 0
1, 51520, Note_on_c, 0, 50, 72
1, 51525, Note_on_c, 0, 83, 86
1, 51548, Note_on_c, 0, 71, 24
1, 51564, Note_on_c, 0, 83, 0
1, 51600, Note_on_c, 0, 50, 0
1, 51606, Note_on_c, 0, 71, 0
1, 51694, Note_on_c, 0, 40, 94
1, 51704, Note_on_c, 0, 44, 73
1, 51714, Note_on_c, 0, 68, 86
1, 51714, Note_on_c, 0, 80, 89
1, 51716, Note_on_c, 0, 47, 57
1, 51736, Note_on_c, 0, 40, 0
1, 51756, Note_on_c, 0, 52, 101
1, 51768, Note_on_c, 0, 80, 0
1, 51778, Note_on_c, 0, 68, 0
1, 51822, Note_on_c, 0, 44, 0
1, 51830, Note_on_c, 0, 47, 0
1, 51856, Note_on_c, 0, 52, 0
1, 51936, Note_on_c, 0, 52, 83
1, 51936, Note_on_c, 0, 76, 88
1, 51942, Note_on_c, 0, 64, 83
1, 51972, Note_on_c, 0, 76, 0
1, 51978, Note_on_c, 0, 64, 0
1, 51986, Note_on_c, 0, 52, 0
1, 52156, Note_on_c, 0, 81, 98
1, 52160, Note_on_c, 0, 69, 83
1, 52164, Note_on_c, 0, 45, 76
1, 52204, Note_on_c, 0, 45, 0
1, 52280, Note_on_c, 0, 69, 0
1, 52330, Note_on_c, 0, 81, 0
1, 52722, Note_on_c, 0, 85, 58
1, 52796, Note_on_c, 0, 85, 0
1, 52850, Note_on_c, 0, 86, 45
1, 52922, Note_on_c, 0, 86, 0
1, 52938, Note_on_c, 0, 85, 55
1, 53024, Note_on_c, 0, 85, 0
1, 53042, Note_on_c, 0, 83, 74
1, 53124, Note_on_c, 0, 83, 0
1, 53140, Note_on_c, 0, 81, 50
1, 53156, Note_on_c, 0, 54, 23
1, 53212, Note_on_c, 0, 81, 0
1, 53224, Note_on_c, 0, 83, 87
1, 53328, Note_on_c, 0, 61, 33
1, 53338, Note_on_c, 0, 81, 63
1, 53344, Note_on_c, 0, 57, 30
1, 53358, Note_on_c, 0, 83, 0
1, 53398, Note_on_c, 0, 61, 0
1, 53412, Note_on_c, 0, 57, 0
1, 53440, Note_on_c, 0, 54, 0
1, 53442, Note_on_c, 0, 80, 72
1, 53478, Note_on_c, 0, 81, 0
1, 53538, Note_on_c, 0, 78, 73
1, 53546, Note_on_c, 0, 57, 22
1, 53560, Note_on_c, 0, 61, 31
1, 53572, Note_on_c, 0, 80, 0
1, 53618, Note_on_c, 0, 57, 0
1, 53628, Note_on_c, 0, 61, 0
1, 53638, Note_on_c, 0, 81, 68
1, 53664, Note_on_c, 0, 78, 0
1, 53706, Note_on_c, 0, 61, 42
1, 53720, Note_on_c, 0, 80, 71
1, 53736, Note_on_c, 0, 57, 18
1, 53758, Note_on_c, 0, 81, 0
1, 53782, Note_on_c, 0, 61, 0
1, 53806, Note_on_c, 0, 57, 0
1, 53832, Note_on_c, 0, 78, 67
1, 53852, Note_on_c, 0, 80, 0
1, 53922, Note_on_c, 0, 56, 41
1, 53940, Note_on_c, 0, 77, 65
1, 53942, Note_on_c, 0, 78, 0
1, 54014, Note_on_c, 0, 77, 0
1, 54018, Note_on_c, 0, 78, 58
1, 54106, Note_on_c, 0, 61, 47
1, 54132, Note_on_c, 0, 80, 66
1, 54134, Note_on_c, 0, 59, 43
1, 54154, Note_on_c, 0, 56, 0
1, 54160, Note_on_c, 0, 78, 0
1, 54180, Note_on_c, 0, 61, 0
1, 54190, Note_on_c, 0, 59, 0
1, 54232, Note_on_c, 0, 77, 62
1, 54250, Note_on_c, 0, 80, 0
1, 54286, Note_on_c, 0, 77, 0
1, 54320, Note_on_c, 0, 73, 62
1, 54338, Note_on_c, 0, 61, 41
1, 54362, Note_on_c, 0, 59, 38
1, 54408, Note_on_c, 0, 61, 0
1, 54416, Note_on_c, 0, 73, 0
1, 54416, Note_on_c, 0, 75, 59
1, 54424, Note_on_c, 0, 59, 0
1, 54508, Note_on_c, 0, 75, 0
1, 54511, Note_on_c, 0, 77, 72
1, 54514, Note_on_c, 0, 59, 45
1, 54530, Note_on_c, 0, 61, 32
1, 54572, Note_on_c, 0, 59, 0
1, 54596, Note_on_c, 0, 73, 60
1, 54602, Note_on_c, 0, 61, 0
1, 54620, Note_on_c, 0, 77, 0
1, 54658, Note_on_c, 0, 73, 0
1, 54702, Note_on_c, 0, 54, 58
1, 54708, Note_on_c, 0, 78, 71
1, 54798, Note_on_c, 0, 54, 0
1, 54798, Note_on_c, 0, 77, 65
1, 54804, Note_on_c, 0, 78, 0
1, 54870, Note_on_c, 0, 77, 0
1, 54870, Note_on_c, 0, 61, 45
1, 54884, Note_on_c, 0, 57, 42
1, 54890, Note_on_c, 0, 78, 61
1, 54948, Note_on_c, 0, 61, 0
1, 54952, Note_on_c, 0, 57, 0
1, 54970, Note_on_c, 0, 80, 75
1, 55008, Note_on_c, 0, 78, 0
1, 55070, Note_on_c, 0, 80, 0
1, 55084, Note_on_c, 0, 61, 48
1, 55092, Note_on_c, 0, 81, 65
1, 55106, Note_on_c, 0, 57, 34
1, 55146, Note_on_c, 0, 61, 0
1, 55158, Note_on_c, 0, 80, 64
1, 55168, Note_on_c, 0, 57, 0
1, 55212, Note_on_c, 0, 81, 0
1, 55274, Note_on_c, 0, 80, 0
1, 55274, Note_on_c, 0, 81, 80
1, 55274, Note_on_c, 0, 57, 25
1, 55288, Note_on_c, 0, 61, 35
1, 55356, Note_on_c, 0, 57, 0
1, 55358, Note_on_c, 0, 61, 0
1, 55366, Note_on_c, 0, 81, 0
1, 55384, Note_on_c, 0, 83, 91
1, 55448, Note_on_c, 0, 83, 0
1, 55468, Note_on_c, 0, 85, 70
1, 55476, Note_on_c, 0, 53, 71
1, 55564, Note_on_c, 0, 53, 0
1, 55576, Note_on_c, 0, 85, 0
1, 55586, Note_on_c, 0, 84, 75
1, 55642, Note_on_c, 0, 61, 43
1, 55648, Note_on_c, 0, 84, 0
1, 55662, Note_on_c, 0, 56, 39
1, 55664, Note_on_c, 0, 85, 57
1, 55718, Note_on_c, 0, 61, 0
1, 55730, Note_on_c, 0, 56, 0
1, 55766, Note_on_c, 0, 84, 62
1, 55770, Note_on_c, 0, 85, 0
1, 55826, Note_on_c, 0, 84, 0
1, 55860, Note_on_c, 0, 85, 59
1, 55874, Note_on_c, 0, 61, 36
1, 55877, Note_on_c, 0, 56, 35
1, 55942, Note_on_c, 0, 56, 0
1, 55946, Note_on_c, 0, 61, 0
1, 55966, Note_on_c, 0, 85, 0
1, 55976, Note_on_c, 0, 86, 55
1, 56062, Note_on_c, 0, 85, 50
1, 56074, Note_on_c, 0, 61, 31
1, 56082, Note_on_c, 0, 86, 0
1, 56090, Note_on_c, 0, 56, 31
1, 56148, Note_on_c, 0, 61, 0
1, 56156, Note_on_c, 0, 56, 0
1, 56172, Note_on_c, 0, 83, 79
1, 56186, Note_on_c, 0, 85, 0
1, 56240, Note_on_c, 0, 83, 0
1, 56268, Note_on_c, 0, 54, 57
1, 56282, Note_on_c, 0, 81, 54
1, 56330, Note_on_c, 0, 81, 0
1, 56352, Note_on_c, 0, 54, 0
1, 56372, Note_on_c, 0, 83, 81
1, 56456, Note_on_c, 0, 61, 36
1, 56470, Note_on_c, 0, 83, 0
1, 56478, Note_on_c, 0, 57, 32
1, 56482, Note_on_c, 0, 81, 47
1, 56528, Note_on_c, 0, 61, 0
1, 56546, Note_on_c, 0, 57, 0
1, 56548, Note_on_c, 0, 81, 0
1, 56552, Note_on_c, 0, 80, 67
1, 56650, Note_on_c, 0, 80, 0
1, 56670, Note_on_c, 0, 78, 53
1, 56682, Note_on_c, 0, 57, 25
1, 56686, Note_on_c, 0, 61, 36
1, 56742, Note_on_c, 0, 78, 0
1, 56750, Note_on_c, 0, 57, 0
1, 56750, Note_on_c, 0, 61, 0
1, 56774, Note_on_c, 0, 81, 57
1, 56840, Note_on_c, 0, 81, 0
1, 56862, Note_on_c, 0, 80, 56
1, 56878, Note_on_c, 0, 61, 25
1, 56881, Note_on_c, 0, 57, 18
1, 56952, Note_on_c, 0, 61, 0
1, 56954, Note_on_c, 0, 57, 0
1, 56972, Note_on_c, 0, 80, 0
1, 56974, Note_on_c, 0, 78, 53
1, 57052, Note_on_c, 0, 78, 0
1, 57062, Note_on_c, 0, 56, 58
1, 57078, Note_on_c, 0, 76, 46
1, 57132, Note_on_c, 0, 76, 0
1, 57158, Note_on_c, 0, 78, 50
1, 57168, Note_on_c, 0, 56, 0
1, 57256, Note_on_c, 0, 64, 51
1, 57256, Note_on_c, 0, 61, 50
1, 57266, Note_on_c, 0, 80, 49
1, 57276, Note_on_c, 0, 78, 0
1, 57310, Note_on_c, 0, 64, 0
1, 57316, Note_on_c, 0, 61, 0
1, 57334, Note_on_c, 0, 80, 0
1, 57360, Note_on_c, 0, 76, 50
1, 57412, Note_on_c, 0, 76, 0
1, 57450, Note_on_c, 0, 73, 51
1, 57472, Note_on_c, 0, 61, 51
1, 57480, Note_on_c, 0, 64, 51
1, 57534, Note_on_c, 0, 64, 0
1, 57540, Note_on_c, 0, 61, 0
1, 57554, Note_on_c, 0, 73, 0
1, 57560, Note_on_c, 0, 75, 49
1, 57624, Note_on_c, 0, 75, 0
1, 57658, Note_on_c, 0, 76, 58
1, 57664, Note_on_c, 0, 64, 39
1, 57666, Note_on_c, 0, 61, 37
1, 57724, Note_on_c, 0, 64, 0
1, 57727, Note_on_c, 0, 76, 0
1, 57730, Note_on_c, 0, 61, 0
1, 57752, Note_on_c, 0, 73, 47
1, 57832, Note_on_c, 0, 73, 0
1, 57848, Note_on_c, 0, 56, 50
1, 57858, Note_on_c, 0, 75, 55
1, 57922, Note_on_c, 0, 75, 0
1, 57948, Note_on_c, 0, 76, 52
1, 57960, Note_on_c, 0, 56, 0
1, 58030, Note_on_c, 0, 76, 0
1, 58048, Note_on_c, 0, 66, 37
1, 58060, Note_on_c, 0, 78, 52
1, 58068, Note_on_c, 0, 63, 42
1, 58108, Note_on_c, 0, 66, 0
1, 58120, Note_on_c, 0, 63, 0
1, 58134, Note_on_c, 0, 75, 58
1, 58138, Note_on_c, 0, 78, 0
1, 58186, Note_on_c, 0, 75, 0
1, 58246, Note_on_c, 0, 72, 45
1, 58266, Note_on_c, 0, 66, 40
1, 58274, Note_on_c, 0, 63, 28
1, 58304, Note_on_c, 0, 72, 0
1, 58334, Note_on_c, 0, 73, 51
1, 58338, Note_on_c, 0, 63, 0
1, 58352, Note_on_c, 0, 66, 0
1, 58392, Note_on_c, 0, 73, 0
1, 58428, Note_on_c, 0, 75, 59
1, 58430, Note_on_c, 0, 66, 40
1, 58438, Note_on_c, 0, 63, 28
1, 58480, Note_on_c, 0, 75, 0
1, 58502, Note_on_c, 0, 63, 0
1, 58516, Note_on_c, 0, 66, 0
1, 58530, Note_on_c, 0, 72, 42
1, 58586, Note_on_c, 0, 72, 0
1, 58660, Note_on_c, 0, 73, 47
1, 58684, Note_on_c, 0, 64, 49
1, 58692, Note_on_c, 0, 61, 30
1, 58796, Note_on_c, 0, 64, 0
1, 58804, Note_on_c, 0, 73, 0
1, 58826, Note_on_c, 0, 61, 0
1, 59130, Note_on_c, 0, 85, 66
1, 59246, Note_on_c, 0, 86, 52
1, 59254, Note_on_c, 0, 85, 0
1, 59332, Note_on_c, 0, 85, 64
1, 59358, Note_on_c, 0, 86, 0
1, 59444, Note_on_c, 0, 83, 81
1, 59466, Note_on_c, 0, 85, 0
1, 59530, Note_on_c, 0, 83, 0
1, 59548, Note_on_c, 0, 81, 56
1, 59556, Note_on_c, 0, 54, 44
1, 59632, Note_on_c, 0, 81, 0
1, 59642, Note_on_c, 0, 54, 0
1, 59642, Note_on_c, 0, 83, 76
1, 59738, Note_on_c, 0, 81, 49
1, 59741, Note_on_c, 0, 61, 42
1, 59764, Note_on_c, 0, 57, 31
1, 59774, Note_on_c, 0, 83, 0
1, 59806, Note_on_c, 0, 61, 0
1, 59828, Note_on_c, 0, 57, 0
1, 59834, Note_on_c, 0, 80, 70
1, 59858, Note_on_c, 0, 81, 0
1, 59952, Note_on_c, 0, 78, 53
1, 59958, Note_on_c, 0, 57, 16
1, 59962, Note_on_c, 0, 61, 37
1, 59972, Note_on_c, 0, 80, 0
1, 60024, Note_on_c, 0, 61, 0
1, 60030, Note_on_c, 0, 57, 0
1, 60032, Note_on_c, 0, 78, 0
1, 60042, Note_on_c, 0, 81, 58
1, 60120, Note_on_c, 0, 81, 0
1, 60128, Note_on_c, 0, 80, 65
1, 60144, Note_on_c, 0, 61, 27
1, 60147, Note_on_c, 0, 57, 21
1, 60212, Note_on_c, 0, 61, 0
1, 60212, Note_on_c, 0, 57, 0
1, 60242, Note_on_c, 0, 78, 67
1, 60266, Note_on_c, 0, 80, 0
1, 60342, Note_on_c, 0, 56, 48
1, 60345, Note_on_c, 0, 78, 0
1, 60348, Note_on_c, 0, 77, 62
1, 60404, Note_on_c, 0, 77, 0
1, 60418, Note_on_c, 0, 56, 0
1, 60432, Note_on_c, 0, 78, 52
1, 60528, Note_on_c, 0, 61, 47
1, 60540, Note_on_c, 0, 80, 56
1, 60550, Note_on_c, 0, 59, 42
1, 60566, Note_on_c, 0, 78, 0
1, 60596, Note_on_c, 0, 61, 0
1, 60606, Note_on_c, 0, 59, 0
1, 60640, Note_on_c, 0, 77, 50
1, 60646, Note_on_c, 0, 80, 0
1, 60690, Note_on_c, 0, 77, 0
1, 60730, Note_on_c, 0, 73, 46
1, 60756, Note_on_c, 0, 61, 44
1, 60766, Note_on_c, 0, 59, 34
1, 60808, Note_on_c, 0, 73, 0
1, 60818, Note_on_c, 0, 61, 0
1, 60826, Note_on_c, 0, 75, 49
1, 60828, Note_on_c, 0, 59, 0
1, 60896, Note_on_c, 0, 75, 0
1, 60922, Note_on_c, 0, 59, 46
1, 60922, Note_on_c, 0, 77, 62
1, 60956, Note_on_c, 0, 61, 24
1, 60986, Note_on_c, 0, 59, 0
1, 61002, Note_on_c, 0, 77, 0
1, 61008, Note_on_c, 0, 73, 47
1, 61030, Note_on_c, 0, 61, 0
1, 61072, Note_on_c, 0, 73, 0
1, 61128, Note_on_c, 0, 54, 64
1, 61134, Note_on_c, 0, 78, 65
1, 61206, Note_on_c, 0, 54, 0
1, 61211, Note_on_c, 0, 78, 0
1, 61222, Note_on_c, 0, 77, 66
1, 61280, Note_on_c, 0, 77, 0
1, 61306, Note_on_c, 0, 61, 52
1, 61316, Note_on_c, 0, 78, 54
1, 61318, Note_on_c, 0, 57, 52
1, 61382, Note_on_c, 0, 61, 0
1, 61386, Note_on_c, 0, 57, 0
1, 61394, Note_on_c, 0, 80, 69
1, 61402, Note_on_c, 0, 78, 0
1, 61478, Note_on_c, 0, 80, 0
1, 61520, Note_on_c, 0, 81, 58
1, 61524, Note_on_c, 0, 61, 56
1, 61546, Note_on_c, 0, 57, 51
1, 61596, Note_on_c, 0, 80, 69
1, 61602, Note_on_c, 0, 61, 0
1, 61602, Note_on_c, 0, 57, 0
1, 61640, Note_on_c, 0, 81, 0
1, 61686, Note_on_c, 0, 80, 0
1, 61704, Note_on_c, 0, 81, 78
1, 61707, Note_on_c, 0, 57, 30
1, 61707, Note_on_c, 0, 61, 40
1, 61776, Note_on_c, 0, 57, 0
1, 61784, Note_on_c, 0, 61, 0
1, 61816, Note_on_c, 0, 83, 100
1, 61846, Note_on_c, 0, 81, 0
1, 61900, Note_on_c, 0, 83, 0
1, 61916, Note_on_c, 0, 53, 75
1, 61916, Note_on_c, 0, 85, 76
1, 62018, Note_on_c, 0, 84, 85
1, 62028, Note_on_c, 0, 85, 0
1, 62076, Note_on_c, 0, 53, 0
1, 62090, Note_on_c, 0, 61, 50
1, 62098, Note_on_c, 0, 56, 48
1, 62108, Note_on_c, 0, 85, 73
1, 62140, Note_on_c, 0, 84, 0
1, 62160, Note_on_c, 0, 61, 0
1, 62160, Note_on_c, 0, 56, 0
1, 62210, Note_on_c, 0, 84, 78
1, 62220, Note_on_c, 0, 85, 0
1, 62308, Note_on_c, 0, 61, 48
1, 62312, Note_on_c, 0, 85, 65
1, 62314, Note_on_c, 0, 56, 45
1, 62324, Note_on_c, 0, 84, 0
1, 62370, Note_on_c, 0, 61, 0
1, 62372, Note_on_c, 0, 56, 0
1, 62422, Note_on_c, 0, 86, 67
1, 62427, Note_on_c, 0, 85, 0
1, 62502, Note_on_c, 0, 85, 55
1, 62514, Note_on_c, 0, 61, 36
1, 62520, Note_on_c, 0, 56, 36
1, 62542, Note_on_c, 0, 86, 0
1, 62578, Note_on_c, 0, 61, 0
1, 62582, Note_on_c, 0, 56, 0
1, 62620, Note_on_c, 0, 83, 81
1, 62644, Note_on_c, 0, 85, 0
1, 62680, Note_on_c, 0, 83, 0
1, 62708, Note_on_c, 0, 54, 55
1, 62720, Note_on_c, 0, 81, 55
1, 62774, Note_on_c, 0, 81, 0
1, 62780, Note_on_c, 0, 54, 0
1, 62806, Note_on_c, 0, 83, 78
1, 62894, Note_on_c, 0, 61, 37
1, 62906, Note_on_c, 0, 57, 37
1, 62914, Note_on_c, 0, 83, 0
1, 62924, Note_on_c, 0, 81, 51
1, 62960, Note_on_c, 0, 61, 0
1, 62968, Note_on_c, 0, 57, 0
1, 62986, Note_on_c, 0, 81, 0
1, 62988, Note_on_c, 0, 80, 62
1, 63082, Note_on_c, 0, 80, 0
1, 63112, Note_on_c, 0, 78, 52
1, 63118, Note_on_c, 0, 61, 39
1, 63120, Note_on_c, 0, 57, 29
1, 63174, Note_on_c, 0, 78, 0
1, 63178, Note_on_c, 0, 61, 0
1, 63186, Note_on_c, 0, 57, 0
1, 63202, Note_on_c, 0, 81, 54
1, 63264, Note_on_c, 0, 81, 0
1, 63284, Note_on_c, 0, 80, 60
1, 63300, Note_on_c, 0, 57, 20
1, 63302, Note_on_c, 0, 61, 31
1, 63370, Note_on_c, 0, 57, 0
1, 63373, Note_on_c, 0, 61, 0
1, 63392, Note_on_c, 0, 78, 56
1, 63395, Note_on_c, 0, 80, 0
1, 63476, Note_on_c, 0, 56, 65
1, 63494, Note_on_c, 0, 78, 0
1, 63504, Note_on_c, 0, 76, 47
1, 63566, Note_on_c, 0, 76, 0
1, 63578, Note_on_c, 0, 56, 0
1, 63580, Note_on_c, 0, 78, 48
1, 63684, Note_on_c, 0, 61, 52
1, 63687, Note_on_c, 0, 80, 52
1, 63687, Note_on_c, 0, 64, 52
1, 63724, Note_on_c, 0, 78, 0
1, 63738, Note_on_c, 0, 64, 0
1, 63742, Note_on_c, 0, 61, 0
1, 63746, Note_on_c, 0, 80, 0
1, 63768, Note_on_c, 0, 76, 53
1, 63886, Note_on_c, 0, 76, 0
1, 63886, Note_on_c, 0, 73, 56
1, 63905, Note_on_c, 0, 64, 54
1, 63908, Note_on_c, 0, 61, 44
1, 63954, Note_on_c, 0, 64, 0
1, 63966, Note_on_c, 0, 61, 0
1, 63988, Note_on_c, 0, 75, 54
1, 64010, Note_on_c, 0, 73, 0
1, 64076, Note_on_c, 0, 76, 41
1, 64080, Note_on_c, 0, 75, 0
1, 64086, Note_on_c, 0, 61, 39
1, 64110, Note_on_c, 0, 64, 36
1, 64144, Note_on_c, 0, 61, 0
1, 64162, Note_on_c, 0, 64, 0
1, 64174, Note_on_c, 0, 76, 0
1, 64196, Note_on_c, 0, 73, 47
1, 64272, Note_on_c, 0, 73, 0
1, 64286, Note_on_c, 0, 56, 52
1, 64298, Note_on_c, 0, 75, 48
1, 64392, Note_on_c, 0, 76, 39
1, 64402, Note_on_c, 0, 75, 0
1, 64428, Note_on_c, 0, 56, 0
1, 64466, Note_on_c, 0, 66, 43
1, 64486, Note_on_c, 0, 63, 47
1, 64504, Note_on_c, 0, 78, 46
1, 64506, Note_on_c, 0, 76, 0
1, 64530, Note_on_c, 0, 66, 0
1, 64533, Note_on_c, 0, 63, 0
1, 64570, Note_on_c, 0, 78, 0
1, 64573, Note_on_c, 0, 75, 51
1, 64642, Note_on_c, 0, 75, 0
1, 64676, Note_on_c, 0, 66, 43
1, 64686, Note_on_c, 0, 72, 40
1, 64710, Note_on_c, 0, 63, 38
1, 64738, Note_on_c, 0, 66, 0
1, 64754, Note_on_c, 0, 72, 0
1, 64762, Note_on_c, 0, 63, 0
1, 64782, Note_on_c, 0, 73, 40
1, 64852, Note_on_c, 0, 73, 0
1, 64876, Note_on_c, 0, 63, 32
1, 64886, Note_on_c, 0, 75, 43
1, 64894, Note_on_c, 0, 66, 33
1, 64942, Note_on_c, 0, 63, 0
1, 64948, Note_on_c, 0, 75, 0
1, 64958, Note_on_c, 0, 66, 0
1, 64974, Note_on_c, 0, 72, 39
1, 65044, Note_on_c, 0, 72, 0
1, 65114, Note_on_c, 0, 73, 46
1, 65124, Note_on_c, 0, 64, 40
1, 65128, Note_on_c, 0, 61, 26
1, 65308, Note_on_c, 0, 61, 0
1, 65318, Note_on_c, 0, 64, 0
1, 65330, Note_on_c, 0, 73, 0
1, 65600, Note_on_c, 0, 76, 55
1, 65734, Note_on_c, 0, 74, 36
1, 65744, Note_on_c, 0, 76, 0
1, 65794, Note_on_c, 0, 73, 53
1, 65796, Note_on_c, 0, 74, 0
1, 65912, Note_on_c, 0, 71, 56
1, 65928, Note_on_c, 0, 73, 0
1, 65968, Note_on_c, 0, 71, 0
1, 66012, Note_on_c, 0, 69, 43
1, 66034, Note_on_c, 0, 57, 34
1, 66082, Note_on_c, 0, 69, 0
1, 66122, Note_on_c, 0, 71, 55
1, 66178, Note_on_c, 0, 57, 0
1, 66180, Note_on_c, 0, 71, 0
1, 66188, Note_on_c, 0, 73, 59
1, 66228, Note_on_c, 0, 61, 32
1, 66232, Note_on_c, 0, 64, 32
1, 66244, Note_on_c, 0, 73, 0
1, 66292, Note_on_c, 0, 64, 0
1, 66292, Note_on_c, 0, 74, 66
1, 66295, Note_on_c, 0, 61, 0
1, 66362, Note_on_c, 0, 74, 0
1, 66402, Note_on_c, 0, 76, 64
1, 66414, Note_on_c, 0, 64, 39
1, 66424, Note_on_c, 0, 61, 30
1, 66472, Note_on_c, 0, 78, 66
1, 66474, Note_on_c, 0, 76, 0
1, 66476, Note_on_c, 0, 64, 0
1, 66494, Note_on_c, 0, 61, 0
1, 66570, Note_on_c, 0, 80, 70
1, 66608, Note_on_c, 0, 61, 43
1, 66630, Note_on_c, 0, 64, 41
1, 66638, Note_on_c, 0, 78, 0
1, 66670, Note_on_c, 0, 81, 77
1, 66672, Note_on_c, 0, 61, 0
1, 66684, Note_on_c, 0, 64, 0
1, 66710, Note_on_c, 0, 80, 0
1, 66712, Note_on_c, 0, 81, 0
1, 66788, Note_on_c, 0, 81, 68
1, 66802, Note_on_c, 0, 59, 53
1, 66882, Note_on_c, 0, 59, 0
1, 66900, Note_on_c, 0, 80, 72
1, 66920, Note_on_c, 0, 81, 0
1, 66996, Note_on_c, 0, 78, 69
1, 66999, Note_on_c, 0, 64, 45
1, 67016, Note_on_c, 0, 62, 36
1, 67056, Note_on_c, 0, 64, 0
1, 67062, Note_on_c, 0, 80, 0
1, 67074, Note_on_c, 0, 62, 0
1, 67084, Note_on_c, 0, 76, 65
1, 67094, Note_on_c, 0, 78, 0
1, 67124, Note_on_c, 0, 76, 0
1, 67180, Note_on_c, 0, 76, 73
1, 67188, Note_on_c, 0, 56, 50
1, 67256, Note_on_c, 0, 56, 0
1, 67288, Note_on_c, 0, 74, 68
1, 67290, Note_on_c, 0, 76, 0
1, 67374, Note_on_c, 0, 73, 67
1, 67388, Note_on_c, 0, 64, 43
1, 67404, Note_on_c, 0, 62, 39
1, 67412, Note_on_c, 0, 74, 0
1, 67440, Note_on_c, 0, 64, 0
1, 67458, Note_on_c, 0, 62, 0
1, 67472, Note_on_c, 0, 71, 75
1, 67510, Note_on_c, 0, 73, 0
1, 67540, Note_on_c, 0, 71, 0
1, 67566, Note_on_c, 0, 57, 50
1, 67566, Note_on_c, 0, 69, 58
1, 67656, Note_on_c, 0, 69, 0
1, 67668, Note_on_c, 0, 71, 64
1, 67688, Note_on_c, 0, 57, 0
1, 67728, Note_on_c, 0, 71, 0
1, 67742, Note_on_c, 0, 73, 68
1, 67756, Note_on_c, 0, 64, 44
1, 67756, Note_on_c, 0, 61, 50
1, 67812, Note_on_c, 0, 64, 0
1, 67815, Note_on_c, 0, 61, 0
1, 67846, Note_on_c, 0, 74, 71
1, 67886, Note_on_c, 0, 73, 0
1, 67886, Note_on_c, 0, 74, 0
1, 67940, Note_on_c, 0, 76, 69
1, 67972, Note_on_c, 0, 61, 55
1, 67980, Note_on_c, 0, 64, 44
1, 68028, Note_on_c, 0, 61, 0
1, 68031, Note_on_c, 0, 78, 77
1, 68034, Note_on_c, 0, 64, 0
1, 68040, Note_on_c, 0, 76, 0
1, 68146, Note_on_c, 0, 80, 75
1, 68170, Note_on_c, 0, 78, 0
1, 68174, Note_on_c, 0, 61, 20
1, 68182, Note_on_c, 0, 64, 44
1, 68216, Note_on_c, 0, 80, 0
1, 68236, Note_on_c, 0, 64, 0
1, 68236, Note_on_c, 0, 81, 68
1, 68242, Note_on_c, 0, 61, 0
1, 68312, Note_on_c, 0, 81, 0
1, 68374, Note_on_c, 0, 82, 63
1, 68388, Note_on_c, 0, 52, 52
1, 68634, Note_on_c, 0, 52, 0
1, 68656, Note_on_c, 0, 56, 35
1, 68662, Note_on_c, 0, 82, 0
1, 68676, Note_on_c, 0, 62, 36
1, 68676, Note_on_c, 0, 83, 87
1, 68748, Note_on_c, 0, 56, 0
1, 68748, Note_on_c, 0, 62, 0
1, 68760, Note_on_c, 0, 83, 0
1, 68906, Note_on_c, 0, 76, 69
1, 68908, Note_on_c, 0, 62, 50
1, 68918, Note_on_c, 0, 56, 44
1, 68974, Note_on_c, 0, 62, 0
1, 68980, Note_on_c, 0, 56, 0
1, 68996, Note_on_c, 0, 74, 68
1, 69040, Note_on_c, 0, 76, 0
1, 69084, Note_on_c, 0, 73, 69
1, 69118, Note_on_c, 0, 74, 0
1, 69121, Note_on_c, 0, 62, 40
1, 69134, Note_on_c, 0, 56, 25
1, 69178, Note_on_c, 0, 62, 0
1, 69186, Note_on_c, 0, 71, 82
1, 69200, Note_on_c, 0, 56, 0
1, 69224, Note_on_c, 0, 73, 0
1, 69300, Note_on_c, 0, 69, 66
1, 69300, Note_on_c, 0, 57, 61
1, 69306, Note_on_c, 0, 71, 0
1, 69394, Note_on_c, 0, 71, 68
1, 69398, Note_on_c, 0, 69, 0
1, 69484, Note_on_c, 0, 64, 53
1, 69490, Note_on_c, 0, 73, 74
1, 69492, Note_on_c, 0, 61, 52
1, 69508, Note_on_c, 0, 57, 0
1, 69511, Note_on_c, 0, 71, 0
1, 69540, Note_on_c, 0, 64, 0
1, 69548, Note_on_c, 0, 61, 0
1, 69590, Note_on_c, 0, 74, 79
1, 69640, Note_on_c, 0, 73, 0
1, 69640, Note_on_c, 0, 74, 0
1, 69694, Note_on_c, 0, 76, 75
1, 69698, Note_on_c, 0, 64, 61
1, 69706, Note_on_c, 0, 61, 54
1, 69752, Note_on_c, 0, 64, 0
1, 69768, Note_on_c, 0, 61, 0
1, 69788, Note_on_c, 0, 78, 79
1, 69834, Note_on_c, 0, 76, 0
1, 69894, Note_on_c, 0, 80, 75
1, 69908, Note_on_c, 0, 61, 54
1, 69918, Note_on_c, 0, 64, 47
1, 69934, Note_on_c, 0, 78, 0
1, 69968, Note_on_c, 0, 61, 0
1, 69968, Note_on_c, 0, 64, 0
1, 69990, Note_on_c, 0, 81, 75
1, 70030, Note_on_c, 0, 81, 0
1, 70038, Note_on_c, 0, 80, 0
1, 70102, Note_on_c, 0, 81, 60
1, 70112, Note_on_c, 0, 59, 57
1, 70188, Note_on_c, 0, 59, 0
1, 70218, Note_on_c, 0, 80, 67
1, 70284, Note_on_c, 0, 81, 0
1, 70312, Note_on_c, 0, 78, 66
1, 70316, Note_on_c, 0, 64, 47
1, 70340, Note_on_c, 0, 62, 29
1, 70368, Note_on_c, 0, 80, 0
1, 70368, Note_on_c, 0, 64, 0
1, 70410, Note_on_c, 0, 62, 0
1, 70410, Note_on_c, 0, 76, 56
1, 70420, Note_on_c, 0, 78, 0
1, 70454, Note_on_c, 0, 76, 0
1, 70502, Note_on_c, 0, 56, 62
1, 70505, Note_on_c, 0, 76, 78
1, 70578, Note_on_c, 0, 56, 0
1, 70608, Note_on_c, 0, 74, 66
1, 70628, Note_on_c, 0, 76, 0
1, 70700, Note_on_c, 0, 73, 60
1, 70706, Note_on_c, 0, 62, 67
1, 70710, Note_on_c, 0, 64, 43
1, 70728, Note_on_c, 0, 74, 0
1, 70748, Note_on_c, 0, 62, 0
1, 70762, Note_on_c, 0, 64, 0
1, 70784, Note_on_c, 0, 71, 79
1, 70804, Note_on_c, 0, 73, 0
1, 70854, Note_on_c, 0, 71, 0
1, 70906, Note_on_c, 0, 73, 60
1, 70910, Note_on_c, 0, 57, 78
1, 70968, Note_on_c, 0, 57, 0
1, 70996, Note_on_c, 0, 76, 66
1, 71022, Note_on_c, 0, 73, 0
1, 71116, Note_on_c, 0, 54, 78
1, 71118, Note_on_c, 0, 69, 47
1, 71134, Note_on_c, 0, 76, 0
1, 71162, Note_on_c, 0, 54, 0
1, 71180, Note_on_c, 0, 73, 52
1, 71198, Note_on_c, 0, 69, 0
1, 71312, Note_on_c, 0, 71, 68
1, 71315, Note_on_c, 0, 50, 75
1, 71324, Note_on_c, 0, 73, 0
1, 71360, Note_on_c, 0, 50, 0
1, 71386, Note_on_c, 0, 71, 0
1, 71414, Note_on_c, 0, 74, 65
1, 71472, Note_on_c, 0, 74, 0
1, 71514, Note_on_c, 0, 68, 55
1, 71520, Note_on_c, 0, 52, 63
1, 71562, Note_on_c, 0, 52, 0
1, 71586, Note_on_c, 0, 68, 0
1, 71614, Note_on_c, 0, 71, 66
1, 71686, Note_on_c, 0, 71, 0
1, 71728, Note_on_c, 0, 45, 69
1, 71742, Note_on_c, 0, 69, 57
1, 71912, Note_on_c, 0, 45, 0
1, 71972, Note_on_c, 0, 69, 0
1, 72006, Note_on_c, 0, 57, 72
1, 72146, Note_on_c, 0, 57, 0
1, 72348, Note_on_c, 0, 85, 50
1, 72420, Note_on_c, 0, 85, 0
1, 72456, Note_on_c, 0, 86, 47
1, 72544, Note_on_c, 0, 86, 0
1, 72556, Note_on_c, 0, 85, 50
1, 72638, Note_on_c, 0, 85, 0
1, 72666, Note_on_c, 0, 83, 72
1, 72738, Note_on_c, 0, 83, 0
1, 72758, Note_on_c, 0, 54, 33
1, 72776, Note_on_c, 0, 81, 43
1, 72842, Note_on_c, 0, 81, 0
1, 72850, Note_on_c, 0, 83, 72
1, 72946, Note_on_c, 0, 81, 34
1, 72956, Note_on_c, 0, 61, 36
1, 72958, Note_on_c, 0, 83, 0
1, 72970, Note_on_c, 0, 54, 0
1, 72972, Note_on_c, 0, 57, 29
1, 73022, Note_on_c, 0, 61, 0
1, 73036, Note_on_c, 0, 57, 0
1, 73036, Note_on_c, 0, 80, 56
1, 73039, Note_on_c, 0, 81, 0
1, 73116, Note_on_c, 0, 80, 0
1, 73144, Note_on_c, 0, 57, 32
1, 73146, Note_on_c, 0, 78, 55
1, 73154, Note_on_c, 0, 61, 34
1, 73212, Note_on_c, 0, 57, 0
1, 73215, Note_on_c, 0, 78, 0
1, 73218, Note_on_c, 0, 61, 0
1, 73260, Note_on_c, 0, 81, 51
1, 73330, Note_on_c, 0, 81, 0
1, 73348, Note_on_c, 0, 80, 48
1, 73356, Note_on_c, 0, 61, 28
1, 73380, Note_on_c, 0, 57, 32
1, 73428, Note_on_c, 0, 61, 0
1, 73442, Note_on_c, 0, 57, 0
1, 73446, Note_on_c, 0, 80, 0
1, 73456, Note_on_c, 0, 78, 52
1, 73518, Note_on_c, 0, 78, 0
1, 73560, Note_on_c, 0, 56, 42
1, 73562, Note_on_c, 0, 77, 49
1, 73612, Note_on_c, 0, 77, 0
1, 73662, Note_on_c, 0, 56, 0
1, 73666, Note_on_c, 0, 78, 54
1, 73748, Note_on_c, 0, 61, 44
1, 73752, Note_on_c, 0, 78, 0
1, 73770, Note_on_c, 0, 80, 44
1, 73794, Note_on_c, 0, 59, 22
1, 73814, Note_on_c, 0, 61, 0
1, 73846, Note_on_c, 0, 80, 0
1, 73860, Note_on_c, 0, 59, 0
1, 73866, Note_on_c, 0, 77, 44
1, 73918, Note_on_c, 0, 77, 0
1, 73960, Note_on_c, 0, 73, 41
1, 73963, Note_on_c, 0, 59, 27
1, 73966, Note_on_c, 0, 61, 49
1, 74026, Note_on_c, 0, 61, 0
1, 74028, Note_on_c, 0, 73, 0
1, 74040, Note_on_c, 0, 59, 0
1, 74052, Note_on_c, 0, 75, 48
1, 74122, Note_on_c, 0, 75, 0
1, 74158, Note_on_c, 0, 59, 39
1, 74158, Note_on_c, 0, 77, 58
1, 74166, Note_on_c, 0, 61, 34
1, 74210, Note_on_c, 0, 77, 0
1, 74212, Note_on_c, 0, 59, 0
1, 74228, Note_on_c, 0, 61, 0
1, 74238, Note_on_c, 0, 73, 57
1, 74292, Note_on_c, 0, 73, 0
1, 74348, Note_on_c, 0, 54, 65
1, 74348, Note_on_c, 0, 78, 65
1, 74424, Note_on_c, 0, 78, 0
1, 74448, Note_on_c, 0, 54, 0
1, 74448, Note_on_c, 0, 77, 66
1, 74496, Note_on_c, 0, 77, 0
1, 74516, Note_on_c, 0, 61, 51
1, 74542, Note_on_c, 0, 78, 54
1, 74542, Note_on_c, 0, 57, 48
1, 74584, Note_on_c, 0, 61, 0
1, 74602, Note_on_c, 0, 57, 0
1, 74626, Note_on_c, 0, 78, 0
1, 74628, Note_on_c, 0, 80, 66
1, 74686, Note_on_c, 0, 80, 0
1, 74736, Note_on_c, 0, 81, 57
1, 74740, Note_on_c, 0, 61, 55
1, 74768, Note_on_c, 0, 57, 43
1, 74812, Note_on_c, 0, 61, 0
1, 74824, Note_on_c, 0, 57, 0
1, 74824, Note_on_c, 0, 80, 71
1, 74862, Note_on_c, 0, 81, 0
1, 74908, Note_on_c, 0, 80, 0
1, 74930, Note_on_c, 0, 81, 66
1, 74942, Note_on_c, 0, 61, 42
1, 74942, Note_on_c, 0, 57, 21
1, 75000, Note_on_c, 0, 57, 0
1, 75004, Note_on_c, 0, 61, 0
1, 75042, Note_on_c, 0, 83, 89
1, 75056, Note_on_c, 0, 81, 0
1, 75092, Note_on_c, 0, 83, 0
1, 75132, Note_on_c, 0, 49, 63
1, 75140, Note_on_c, 0, 85, 66
1, 75212, Note_on_c, 0, 85, 0
1, 75236, Note_on_c, 0, 84, 80
1, 75248, Note_on_c, 0, 49, 0
1, 75316, Note_on_c, 0, 61, 51
1, 75326, Note_on_c, 0, 84, 0
1, 75329, Note_on_c, 0, 56, 50
1, 75344, Note_on_c, 0, 85, 77
1, 75386, Note_on_c, 0, 61, 0
1, 75394, Note_on_c, 0, 56, 0
1, 75430, Note_on_c, 0, 84, 66
1, 75448, Note_on_c, 0, 85, 0
1, 75536, Note_on_c, 0, 85, 71
1, 75544, Note_on_c, 0, 55, 52
1, 75546, Note_on_c, 0, 61, 42
1, 75560, Note_on_c, 0, 84, 0
1, 75604, Note_on_c, 0, 55, 0
1, 75607, Note_on_c, 0, 61, 0
1, 75634, Note_on_c, 0, 85, 0
1, 75634, Note_on_c, 0, 84, 90
1, 75724, Note_on_c, 0, 84, 0
1, 75740, Note_on_c, 0, 85, 60
1, 75748, Note_on_c, 0, 61, 42
1, 75752, Note_on_c, 0, 54, 53
1, 75800, Note_on_c, 0, 54, 0
1, 75806, Note_on_c, 0, 61, 0
1, 75834, Note_on_c, 0, 82, 66
1, 75842, Note_on_c, 0, 85, 0
1, 75882, Note_on_c, 0, 82, 0
1, 75928, Note_on_c, 0, 86, 84
1, 75944, Note_on_c, 0, 47, 61
1, 76028, Note_on_c, 0, 47, 0
1, 76032, Note_on_c, 0, 85, 74
1, 76038, Note_on_c, 0, 86, 0
1, 76114, Note_on_c, 0, 85, 0
1, 76130, Note_on_c, 0, 86, 78
1, 76140, Note_on_c, 0, 59, 54
1, 76143, Note_on_c, 0, 54, 62
1, 76194, Note_on_c, 0, 59, 0
1, 76197, Note_on_c, 0, 54, 0
1, 76242, Note_on_c, 0, 85, 77
1, 76248, Note_on_c, 0, 86, 0
1, 76318, Note_on_c, 0, 85, 0
1, 76328, Note_on_c, 0, 86, 74
1, 76356, Note_on_c, 0, 54, 57
1, 76356, Note_on_c, 0, 59, 54
1, 76404, Note_on_c, 0, 59, 0
1, 76407, Note_on_c, 0, 54, 0
1, 76440, Note_on_c, 0, 85, 74
1, 76442, Note_on_c, 0, 86, 0
1, 76528, Note_on_c, 0, 85, 0
1, 76528, Note_on_c, 0, 86, 70
1, 76552, Note_on_c, 0, 59, 35
1, 76556, Note_on_c, 0, 54, 56
1, 76604, Note_on_c, 0, 59, 0
1, 76604, Note_on_c, 0, 54, 0
1, 76640, Note_on_c, 0, 85, 72
1, 76654, Note_on_c, 0, 86, 0
1, 76738, Note_on_c, 0, 85, 0
1, 76750, Note_on_c, 0, 47, 66
1, 76755, Note_on_c, 0, 86, 64
1, 76848, Note_on_c, 0, 85, 54
1, 76860, Note_on_c, 0, 47, 0
1, 76890, Note_on_c, 0, 86, 0
1, 76926, Note_on_c, 0, 83, 97
1, 76952, Note_on_c, 0, 59, 50
1, 76952, Note_on_c, 0, 56, 55
1, 76966, Note_on_c, 0, 85, 0
1, 76984, Note_on_c, 0, 83, 0
1, 77012, Note_on_c, 0, 59, 0
1, 77012, Note_on_c, 0, 56, 0
1, 77048, Note_on_c, 0, 81, 55
1, 77110, Note_on_c, 0, 81, 0
1, 77142, Note_on_c, 0, 80, 67
1, 77162, Note_on_c, 0, 56, 51
1, 77166, Note_on_c, 0, 59, 49
1, 77220, Note_on_c, 0, 59, 0
1, 77223, Note_on_c, 0, 56, 0
1, 77254, Note_on_c, 0, 80, 0
1, 77254, Note_on_c, 0, 81, 70
1, 77328, Note_on_c, 0, 81, 0
1, 77352, Note_on_c, 0, 83, 80
1, 77370, Note_on_c, 0, 59, 42
1, 77400, Note_on_c, 0, 56, 24
1, 77424, Note_on_c, 0, 59, 0
1, 77428, Note_on_c, 0, 83, 0
1, 77450, Note_on_c, 0, 80, 67
1, 77468, Note_on_c, 0, 56, 0
1, 77512, Note_on_c, 0, 80, 0
1, 77538, Note_on_c, 0, 49, 62
1, 77554, Note_on_c, 0, 81, 65
1, 77604, Note_on_c, 0, 49, 0
1, 77674, Note_on_c, 0, 83, 75
1, 77716, Note_on_c, 0, 81, 0
1, 77742, Note_on_c, 0, 83, 0
1, 77742, Note_on_c, 0, 85, 63
1, 77745, Note_on_c, 0, 57, 46
1, 77762, Note_on_c, 0, 54, 43
1, 77810, Note_on_c, 0, 57, 0
1, 77820, Note_on_c, 0, 54, 0
1, 77844, Note_on_c, 0, 78, 49
1, 77880, Note_on_c, 0, 85, 0
1, 77910, Note_on_c, 0, 78, 0
1, 77940, Note_on_c, 0, 49, 51
1, 77952, Note_on_c, 0, 77, 50
1, 78006, Note_on_c, 0, 49, 0
1, 78006, Note_on_c, 0, 77, 0
1, 78076, Note_on_c, 0, 78, 29
1, 78146, Note_on_c, 0, 59, 40
1, 78148, Note_on_c, 0, 78, 0
1, 78148, Note_on_c, 0, 56, 30
1, 78150, Note_on_c, 0, 80, 50
1, 78216, Note_on_c, 0, 56, 0
1, 78218, Note_on_c, 0, 80, 0
1, 78220, Note_on_c, 0, 59, 0
1, 78258, Note_on_c, 0, 77, 43
1, 78316, Note_on_c, 0, 77, 0
1, 78390, Note_on_c, 0, 78, 53
1, 78410, Note_on_c, 0, 57, 24
1, 78410, Note_on_c, 0, 54, 22
1, 78604, Note_on_c, 0, 78, 0
1, 78604, Note_on_c, 0, 57, 0
1, 78640, Note_on_c, 0, 54, 0
1, 78864, Note_on_c, 0, 76, 59
1, 78968, Note_on_c, 0, 74, 72
1, 79002, Note_on_c, 0, 76, 0
1, 79068, Note_on_c, 0, 73, 69
1, 79110, Note_on_c, 0, 74, 0
1, 79166, Note_on_c, 0, 71, 74
1, 79214, Note_on_c, 0, 73, 0
1, 79282, Note_on_c, 0, 69, 68
1, 79288, Note_on_c, 0, 71, 0
1, 79290, Note_on_c, 0, 57, 56
1, 79382, Note_on_c, 0, 71, 65
1, 79408, Note_on_c, 0, 69, 0
1, 79482, Note_on_c, 0, 73, 69
1, 79488, Note_on_c, 0, 61, 49
1, 79494, Note_on_c, 0, 64, 47
1, 79512, Note_on_c, 0, 71, 0
1, 79550, Note_on_c, 0, 61, 0
1, 79550, Note_on_c, 0, 64, 0
1, 79568, Note_on_c, 0, 57, 0
1, 79580, Note_on_c, 0, 74, 73
1, 79620, Note_on_c, 0, 73, 0
1, 79623, Note_on_c, 0, 74, 0
1, 79688, Note_on_c, 0, 76, 76
1, 79704, Note_on_c, 0, 61, 54
1, 79716, Note_on_c, 0, 64, 51
1, 79764, Note_on_c, 0, 64, 0
1, 79768, Note_on_c, 0, 61, 0
1, 79780, Note_on_c, 0, 78, 82
1, 79814, Note_on_c, 0, 76, 0
1, 79898, Note_on_c, 0, 80, 76
1, 79914, Note_on_c, 0, 61, 54
1, 79922, Note_on_c, 0, 64, 31
1, 79930, Note_on_c, 0, 78, 0
1, 79970, Note_on_c, 0, 61, 0
1, 79978, Note_on_c, 0, 64, 0
1, 79994, Note_on_c, 0, 81, 73
1, 80028, Note_on_c, 0, 80, 0
1, 80034, Note_on_c, 0, 81, 0
1, 80104, Note_on_c, 0, 81, 58
1, 80122, Note_on_c, 0, 59, 56
1, 80202, Note_on_c, 0, 59, 0
1, 80216, Note_on_c, 0, 80, 71
1, 80282, Note_on_c, 0, 81, 0
1, 80316, Note_on_c, 0, 78, 59
1, 80326, Note_on_c, 0, 64, 47
1, 80348, Note_on_c, 0, 62, 34
1, 80378, Note_on_c, 0, 64, 0
1, 80381, Note_on_c, 0, 80, 0
1, 80402, Note_on_c, 0, 76, 53
1, 80412, Note_on_c, 0, 62, 0
1, 80414, Note_on_c, 0, 78, 0
1, 80448, Note_on_c, 0, 76, 0
1, 80500, Note_on_c, 0, 76, 78
1, 80506, Note_on_c, 0, 56, 59
1, 80582, Note_on_c, 0, 56, 0
1, 80614, Note_on_c, 0, 74, 68
1, 80624, Note_on_c, 0, 76, 0
1, 80696, Note_on_c, 0, 73, 55
1, 80700, Note_on_c, 0, 64, 58
1, 80706, Note_on_c, 0, 62, 59
1, 80718, Note_on_c, 0, 74, 0
1, 80744, Note_on_c, 0, 64, 0
1, 80750, Note_on_c, 0, 62, 0
1, 80788, Note_on_c, 0, 71, 69
1, 80830, Note_on_c, 0, 73, 0
1, 80892, Note_on_c, 0, 71, 0
1, 80902, Note_on_c, 0, 69, 69
1, 80914, Note_on_c, 0, 57, 64
1, 81004, Note_on_c, 0, 71, 65
1, 81016, Note_on_c, 0, 69, 0
1, 81082, Note_on_c, 0, 71, 0
1, 81082, Note_on_c, 0, 64, 56
1, 81090, Note_on_c, 0, 73, 63
1, 81108, Note_on_c, 0, 61, 49
1, 81132, Note_on_c, 0, 57, 0
1, 81138, Note_on_c, 0, 64, 0
1, 81162, Note_on_c, 0, 61, 0
1, 81190, Note_on_c, 0, 74, 73
1, 81214, Note_on_c, 0, 73, 0
1, 81228, Note_on_c, 0, 74, 0
1, 81294, Note_on_c, 0, 76, 69
1, 81294, Note_on_c, 0, 64, 59
1, 81302, Note_on_c, 0, 61, 51
1, 81350, Note_on_c, 0, 64, 0
1, 81356, Note_on_c, 0, 61, 0
1, 81384, Note_on_c, 0, 78, 77
1, 81422, Note_on_c, 0, 76, 0
1, 81504, Note_on_c, 0, 80, 72
1, 81516, Note_on_c, 0, 78, 0
1, 81518, Note_on_c, 0, 64, 46
1, 81524, Note_on_c, 0, 61, 47
1, 81566, Note_on_c, 0, 80, 0
1, 81570, Note_on_c, 0, 64, 0
1, 81582, Note_on_c, 0, 61, 0
1, 81594, Note_on_c, 0, 81, 73
1, 81678, Note_on_c, 0, 81, 0
1, 81730, Note_on_c, 0, 82, 72
1, 81746, Note_on_c, 0, 52, 54
1, 81994, Note_on_c, 0, 52, 0
1, 82018, Note_on_c, 0, 56, 37
1, 82032, Note_on_c, 0, 62, 42
1, 82040, Note_on_c, 0, 83, 85
1, 82052, Note_on_c, 0, 82, 0
1, 82108, Note_on_c, 0, 62, 0
1, 82118, Note_on_c, 0, 56, 0
1, 82166, Note_on_c, 0, 83, 0
1, 82282, Note_on_c, 0, 76, 79
1, 82288, Note_on_c, 0, 62, 46
1, 82310, Note_on_c, 0, 56, 28
1, 82346, Note_on_c, 0, 62, 0
1, 82376, Note_on_c, 0, 74, 76
1, 82382, Note_on_c, 0, 56, 0
1, 82400, Note_on_c, 0, 76, 0
1, 82466, Note_on_c, 0, 73, 67
1, 82469, Note_on_c, 0, 56, 41
1, 82484, Note_on_c, 0, 74, 0
1, 82502, Note_on_c, 0, 62, 29
1, 82524, Note_on_c, 0, 56, 0
1, 82562, Note_on_c, 0, 71, 78
1, 82568, Note_on_c, 0, 62, 0
1, 82602, Note_on_c, 0, 73, 0
1, 82676, Note_on_c, 0, 69, 71
1, 82678, Note_on_c, 0, 57, 74
1, 82688, Note_on_c, 0, 71, 0
1, 82792, Note_on_c, 0, 71, 70
1, 82816, Note_on_c, 0, 69, 0
1, 82882, Note_on_c, 0, 57, 0
1, 82888, Note_on_c, 0, 73, 69
1, 82890, Note_on_c, 0, 61, 60
1, 82896, Note_on_c, 0, 64, 51
1, 82898, Note_on_c, 0, 71, 0
1, 82948, Note_on_c, 0, 64, 0
1, 82952, Note_on_c, 0, 61, 0
1, 82990, Note_on_c, 0, 74, 75
1, 83038, Note_on_c, 0, 74, 0
1, 83042, Note_on_c, 0, 73, 0
1, 83096, Note_on_c, 0, 76, 81
1, 83114, Note_on_c, 0, 61, 52
1, 83117, Note_on_c, 0, 64, 57
1, 83164, Note_on_c, 0, 64, 0
1, 83170, Note_on_c, 0, 61, 0
1, 83192, Note_on_c, 0, 78, 82
1, 83228, Note_on_c, 0, 76, 0
1, 83306, Note_on_c, 0, 80, 76
1, 83322, Note_on_c, 0, 61, 58
1, 83334, Note_on_c, 0, 78, 0
1, 83342, Note_on_c, 0, 64, 44
1, 83372, Note_on_c, 0, 61, 0
1, 83392, Note_on_c, 0, 64, 0
1, 83406, Note_on_c, 0, 81, 78
1, 83446, Note_on_c, 0, 81, 0
1, 83452, Note_on_c, 0, 80, 0
1, 83528, Note_on_c, 0, 59, 66
1, 83530, Note_on_c, 0, 81, 56
1, 83590, Note_on_c, 0, 59, 0
1, 83644, Note_on_c, 0, 80, 59
1, 83700, Note_on_c, 0, 81, 0
1, 83730, Note_on_c, 0, 64, 58
1, 83730, Note_on_c, 0, 78, 61
1, 83742, Note_on_c, 0, 62, 52
1, 83782, Note_on_c, 0, 64, 0
1, 83790, Note_on_c, 0, 80, 0
1, 83790, Note_on_c, 0, 62, 0
1, 83828, Note_on_c, 0, 76, 54
1, 83842, Note_on_c, 0, 78, 0
1, 83872, Note_on_c, 0, 76, 0
1, 83926, Note_on_c, 0, 76, 80
1, 83932, Note_on_c, 0, 56, 64
1, 83998, Note_on_c, 0, 56, 0
1, 84040, Note_on_c, 0, 74, 69
1, 84092, Note_on_c, 0, 76, 0
1, 84124, Note_on_c, 0, 73, 62
1, 84124, Note_on_c, 0, 64, 55
1, 84127, Note_on_c, 0, 62, 66
1, 84170, Note_on_c, 0, 74, 0
1, 84170, Note_on_c, 0, 62, 0
1, 84172, Note_on_c, 0, 64, 0
1, 84212, Note_on_c, 0, 71, 79
1, 84234, Note_on_c, 0, 73, 0
1, 84280, Note_on_c, 0, 71, 0
1, 84334, Note_on_c, 0, 57, 81
1, 84337, Note_on_c, 0, 73, 58
1, 84396, Note_on_c, 0, 57, 0
1, 84428, Note_on_c, 0, 76, 64
1, 84468, Note_on_c, 0, 73, 0
1, 84546, Note_on_c, 0, 69, 54
1, 84546, Note_on_c, 0, 54, 84
1, 84558, Note_on_c, 0, 76, 0
1, 84588, Note_on_c, 0, 54, 0
1, 84624, Note_on_c, 0, 73, 50
1, 84632, Note_on_c, 0, 69, 0
1, 84742, Note_on_c, 0, 71, 76
1, 84756, Note_on_c, 0, 50, 78
1, 84764, Note_on_c, 0, 73, 0
1, 84798, Note_on_c, 0, 50, 0
1, 84856, Note_on_c, 0, 74, 72
1, 84872, Note_on_c, 0, 71, 0
1, 84934, Note_on_c, 0, 74, 0
1, 84964, Note_on_c, 0, 52, 84
1, 84967, Note_on_c, 0, 68, 61
1, 84998, Note_on_c, 0, 52, 0
1, 85068, Note_on_c, 0, 71, 74
1, 85080, Note_on_c, 0, 68, 0
1, 85178, Note_on_c, 0, 71, 0
1, 85184, Note_on_c, 0, 45, 71
1, 85196, Note_on_c, 0, 69, 71
1, 85378, Note_on_c, 0, 45, 0
1, 85434, Note_on_c, 0, 69, 0
1, 85492, Note_on_c, 0, 57, 78
1, 85588, Note_on_c, 0, 57, 0
1, 85838, Note_on_c, 0, 85, 62
1, 85946, Note_on_c, 0, 86, 61
1, 85958, Note_on_c, 0, 85, 0
1, 86036, Note_on_c, 0, 85, 50
1, 86090, Note_on_c, 0, 86, 0
1, 86164, Note_on_c, 0, 83, 72
1, 86172, Note_on_c, 0, 85, 0
1, 86240, Note_on_c, 0, 54, 49
1, 86256, Note_on_c, 0, 83, 0
1, 86276, Note_on_c, 0, 81, 44
1, 86318, Note_on_c, 0, 54, 0
1, 86330, Note_on_c, 0, 81, 0
1, 86352, Note_on_c, 0, 83, 74
1, 86458, Note_on_c, 0, 61, 39
1, 86461, Note_on_c, 0, 81, 38
1, 86468, Note_on_c, 0, 83, 0
1, 86470, Note_on_c, 0, 57, 35
1, 86522, Note_on_c, 0, 61, 0
1, 86532, Note_on_c, 0, 57, 0
1, 86548, Note_on_c, 0, 81, 0
1, 86552, Note_on_c, 0, 80, 56
1, 86628, Note_on_c, 0, 80, 0
1, 86656, Note_on_c, 0, 78, 58
1, 86676, Note_on_c, 0, 61, 35
1, 86692, Note_on_c, 0, 57, 16
1, 86716, Note_on_c, 0, 78, 0
1, 86740, Note_on_c, 0, 61, 0
1, 86762, Note_on_c, 0, 81, 49
1, 86765, Note_on_c, 0, 57, 0
1, 86828, Note_on_c, 0, 81, 0
1, 86840, Note_on_c, 0, 61, 29
1, 86842, Note_on_c, 0, 57, 43
1, 86848, Note_on_c, 0, 80, 51
1, 86910, Note_on_c, 0, 61, 0
1, 86910, Note_on_c, 0, 57, 0
1, 86938, Note_on_c, 0, 80, 0
1, 86950, Note_on_c, 0, 78, 48
1, 87034, Note_on_c, 0, 78, 0
1, 87068, Note_on_c, 0, 77, 51
1, 87080, Note_on_c, 0, 56, 41
1, 87120, Note_on_c, 0, 77, 0
1, 87162, Note_on_c, 0, 56, 0
1, 87162, Note_on_c, 0, 78, 38
1, 87254, Note_on_c, 0, 80, 48
1, 87257, Note_on_c, 0, 61, 35
1, 87270, Note_on_c, 0, 78, 0
1, 87286, Note_on_c, 0, 59, 39
1, 87324, Note_on_c, 0, 61, 0
1, 87338, Note_on_c, 0, 59, 0
1, 87360, Note_on_c, 0, 77, 41
1, 87374, Note_on_c, 0, 80, 0
1, 87410, Note_on_c, 0, 77, 0
1, 87452, Note_on_c, 0, 73, 43
1, 87474, Note_on_c, 0, 61, 47
1, 87516, Note_on_c, 0, 59, 15
1, 87528, Note_on_c, 0, 73, 0
1, 87536, Note_on_c, 0, 61, 0
1, 87556, Note_on_c, 0, 75, 44
1, 87586, Note_on_c, 0, 59, 0
1, 87622, Note_on_c, 0, 75, 0
1, 87660, Note_on_c, 0, 59, 56
1, 87668, Note_on_c, 0, 77, 61
1, 87682, Note_on_c, 0, 61, 38
1, 87710, Note_on_c, 0, 59, 0
1, 87720, Note_on_c, 0, 77, 0
1, 87738, Note_on_c, 0, 73, 54
1, 87746, Note_on_c, 0, 61, 0
1, 87800, Note_on_c, 0, 73, 0
1, 87856, Note_on_c, 0, 78, 62
1, 87859, Note_on_c, 0, 54, 61
1, 87940, Note_on_c, 0, 54, 0
1, 87948, Note_on_c, 0, 78, 0
1, 87950, Note_on_c, 0, 77, 67
1, 88000, Note_on_c, 0, 77, 0
1, 88036, Note_on_c, 0, 61, 49
1, 88050, Note_on_c, 0, 78, 46
1, 88056, Note_on_c, 0, 57, 44
1, 88108, Note_on_c, 0, 61, 0
1, 88114, Note_on_c, 0, 57, 0
1, 88130, Note_on_c, 0, 80, 64
1, 88140, Note_on_c, 0, 78, 0
1, 88186, Note_on_c, 0, 80, 0
1, 88238, Note_on_c, 0, 81, 55
1, 88256, Note_on_c, 0, 61, 55
1, 88282, Note_on_c, 0, 57, 48
1, 88330, Note_on_c, 0, 80, 64
1, 88332, Note_on_c, 0, 61, 0
1, 88334, Note_on_c, 0, 57, 0
1, 88342, Note_on_c, 0, 81, 0
1, 88388, Note_on_c, 0, 80, 0
1, 88428, Note_on_c, 0, 81, 54
1, 88454, Note_on_c, 0, 61, 42
1, 88460, Note_on_c, 0, 57, 27
1, 88516, Note_on_c, 0, 61, 0
1, 88516, Note_on_c, 0, 57, 0
1, 88536, Note_on_c, 0, 83, 90
1, 88560, Note_on_c, 0, 81, 0
1, 88588, Note_on_c, 0, 83, 0
1, 88636, Note_on_c, 0, 49, 70
1, 88639, Note_on_c, 0, 85, 69
1, 88696, Note_on_c, 0, 49, 0
1, 88708, Note_on_c, 0, 85, 0
1, 88748, Note_on_c, 0, 84, 77
1, 88814, Note_on_c, 0, 61, 60
1, 88830, Note_on_c, 0, 84, 0
1, 88840, Note_on_c, 0, 56, 51
1, 88848, Note_on_c, 0, 85, 68
1, 88880, Note_on_c, 0, 61, 0
1, 88896, Note_on_c, 0, 56, 0
1, 88942, Note_on_c, 0, 85, 0
1, 88954, Note_on_c, 0, 84, 65
1, 89022, Note_on_c, 0, 84, 0
1, 89034, Note_on_c, 0, 61, 52
1, 89058, Note_on_c, 0, 55, 52
1, 89058, Note_on_c, 0, 85, 62
1, 89112, Note_on_c, 0, 55, 0
1, 89122, Note_on_c, 0, 61, 0
1, 89144, Note_on_c, 0, 85, 0
1, 89152, Note_on_c, 0, 84, 61
1, 89206, Note_on_c, 0, 84, 0
1, 89260, Note_on_c, 0, 85, 66
1, 89268, Note_on_c, 0, 61, 52
1, 89284, Note_on_c, 0, 54, 39
1, 89320, Note_on_c, 0, 61, 0
1, 89348, Note_on_c, 0, 54, 0
1, 89364, Note_on_c, 0, 82, 60
1, 89374, Note_on_c, 0, 85, 0
1, 89424, Note_on_c, 0, 82, 0
1, 89476, Note_on_c, 0, 86, 75
1, 89488, Note_on_c, 0, 47, 56
1, 89570, Note_on_c, 0, 86, 0
1, 89586, Note_on_c, 0, 47, 0
1, 89586, Note_on_c, 0, 85, 65
1, 89670, Note_on_c, 0, 85, 0
1, 89688, Note_on_c, 0, 54, 59
1, 89691, Note_on_c, 0, 59, 41
1, 89698, Note_on_c, 0, 86, 78
1, 89740, Note_on_c, 0, 54, 0
1, 89746, Note_on_c, 0, 59, 0
1, 89758, Note_on_c, 0, 86, 0
1, 89792, Note_on_c, 0, 85, 64
1, 89884, Note_on_c, 0, 85, 0
1, 89890, Note_on_c, 0, 86, 85
1, 89902, Note_on_c, 0, 54, 59
1, 89904, Note_on_c, 0, 59, 55
1, 89952, Note_on_c, 0, 59, 0
1, 89954, Note_on_c, 0, 54, 0
1, 89984, Note_on_c, 0, 86, 0
1, 89994, Note_on_c, 0, 85, 61
1, 90088, Note_on_c, 0, 85, 0
1, 90096, Note_on_c, 0, 86, 83
1, 90106, Note_on_c, 0, 54, 76
1, 90114, Note_on_c, 0, 59, 58
1, 90148, Note_on_c, 0, 54, 0
1, 90160, Note_on_c, 0, 59, 0
1, 90206, Note_on_c, 0, 85, 73
1, 90212, Note_on_c, 0, 86, 0
1, 90276, Note_on_c, 0, 85, 0
1, 90310, Note_on_c, 0, 86, 79
1, 90314, Note_on_c, 0, 47, 76
1, 90412, Note_on_c, 0, 47, 0
1, 90424, Note_on_c, 0, 85, 68
1, 90458, Note_on_c, 0, 86, 0
1, 90502, Note_on_c, 0, 59, 57
1, 90514, Note_on_c, 0, 83, 97
1, 90520, Note_on_c, 0, 56, 58
1, 90558, Note_on_c, 0, 85, 0
1, 90574, Note_on_c, 0, 59, 0
1, 90580, Note_on_c, 0, 56, 0
1, 90608, Note_on_c, 0, 83, 0
1, 90616, Note_on_c, 0, 81, 70
1, 90722, Note_on_c, 0, 80, 75
1, 90726, Note_on_c, 0, 81, 0
1, 90732, Note_on_c, 0, 59, 58
1, 90732, Note_on_c, 0, 56, 53
1, 90790, Note_on_c, 0, 59, 0
1, 90790, Note_on_c, 0, 56, 0
1, 90838, Note_on_c, 0, 81, 58
1, 90854, Note_on_c, 0, 80, 0
1, 90940, Note_on_c, 0, 83, 86
1, 90942, Note_on_c, 0, 56, 51
1, 90948, Note_on_c, 0, 81, 0
1, 90952, Note_on_c, 0, 59, 48
1, 91000, Note_on_c, 0, 56, 0
1, 91004, Note_on_c, 0, 59, 0
1, 91038, Note_on_c, 0, 83, 0
1, 91038, Note_on_c, 0, 80, 69
1, 91110, Note_on_c, 0, 80, 0
1, 91152, Note_on_c, 0, 81, 68
1, 91154, Note_on_c, 0, 49, 64
1, 91204, Note_on_c, 0, 49, 0
1, 91270, Note_on_c, 0, 83, 77
1, 91296, Note_on_c, 0, 81, 0
1, 91332, Note_on_c, 0, 83, 0
1, 91348, Note_on_c, 0, 85, 60
1, 91354, Note_on_c, 0, 57, 45
1, 91368, Note_on_c, 0, 54, 55
1, 91418, Note_on_c, 0, 54, 0
1, 91420, Note_on_c, 0, 57, 0
1, 91448, Note_on_c, 0, 78, 56
1, 91451, Note_on_c, 0, 85, 0
1, 91518, Note_on_c, 0, 78, 0
1, 91552, Note_on_c, 0, 49, 58
1, 91566, Note_on_c, 0, 77, 48
1, 91608, Note_on_c, 0, 49, 0
1, 91622, Note_on_c, 0, 77, 0
1, 91668, Note_on_c, 0, 78, 48
1, 91742, Note_on_c, 0, 78, 0
1, 91752, Note_on_c, 0, 59, 42
1, 91762, Note_on_c, 0, 56, 32
1, 91776, Note_on_c, 0, 80, 51
1, 91810, Note_on_c, 0, 59, 0
1, 91830, Note_on_c, 0, 56, 0
1, 91838, Note_on_c, 0, 80, 0
1, 91912, Note_on_c, 0, 77, 41
1, 91978, Note_on_c, 0, 77, 0
1, 92038, Note_on_c, 0, 57, 22
1, 92046, Note_on_c, 0, 54, 28
1, 92050, Note_on_c, 0, 78, 48
1, 92454, Note_on_c, 0, 57, 0
1, 92526, Note_on_c, 0, 54, 0
1, 92546, Note_on_c, 0, 81, 78
1, 92554, Note_on_c, 0, 69, 52
1, 92568, Note_on_c, 0, 78, 0
1, 92608, Note_on_c, 0, 69, 0
1, 92620, Note_on_c, 0, 81, 0
1, 92766, Note_on_c, 0, 83, 105
1, 92776, Note_on_c, 0, 71, 69
1, 92800, Note_on_c, 0, 83, 0
1, 92824, Note_on_c, 0, 71, 0
1, 93030, Note_on_c, 0, 45, 81
1, 93032, Note_on_c, 0, 85, 104
1, 93034, Note_on_c, 0, 49, 76
1, 93036, Note_on_c, 0, 73, 95
1, 93036, Note_on_c, 0, 57, 88
1, 93046, Note_on_c, 0, 52, 73
1, 93078, Note_on_c, 0, 45, 0
1, 93114, Note_on_c, 0, 52, 0
1, 93116, Note_on_c, 0, 49, 0
1, 93154, Note_on_c, 0, 57, 0
1, 93188, Note_on_c, 0, 85, 0
1, 93224, Note_on_c, 0, 73, 0
1, 93264, Note_on_c, 0, 57, 51
1, 93330, Note_on_c, 0, 57, 0
1, 93466, Note_on_c, 0, 69, 76
1, 93468, Note_on_c, 0, 81, 94
1, 93480, Note_on_c, 0, 57, 78
1, 93528, Note_on_c, 0, 69, 0
1, 93568, Note_on_c, 0, 57, 0
1, 93580, Note_on_c, 0, 81, 0
1, 93688, Note_on_c, 0, 83, 111
1, 93692, Note_on_c, 0, 71, 84
1, 93708, Note_on_c, 0, 57, 61
1, 93726, Note_on_c, 0, 83, 0
1, 93732, Note_on_c, 0, 71, 0
1, 93758, Note_on_c, 0, 57, 0
1, 93908, Note_on_c, 0, 45, 72
1, 93920, Note_on_c, 0, 85, 101
1, 93922, Note_on_c, 0, 73, 95
1, 93924, Note_on_c, 0, 49, 69
1, 93928, Note_on_c, 0, 52, 78
1, 93940, Note_on_c, 0, 57, 88
1, 93982, Note_on_c, 0, 45, 0
1, 93996, Note_on_c, 0, 49, 0
1, 93996, Note_on_c, 0, 52, 0
1, 94014, Note_on_c, 0, 85, 0
1, 94024, Note_on_c, 0, 73, 0
1, 94044, Note_on_c, 0, 57, 0
1, 94142, Note_on_c, 0, 83, 101
1, 94144, Note_on_c, 0, 57, 48
1, 94147, Note_on_c, 0, 71, 90
1, 94184, Note_on_c, 0, 83, 0
1, 94186, Note_on_c, 0, 71, 0
1, 94226, Note_on_c, 0, 57, 0
1, 94348, Note_on_c, 0, 81, 96
1, 94354, Note_on_c, 0, 69, 74
1, 94368, Note_on_c, 0, 57, 60
1, 94398, Note_on_c, 0, 81, 0
1, 94408, Note_on_c, 0, 69, 0
1, 94426, Note_on_c, 0, 57, 0
1, 94564, Note_on_c, 0, 68, 77
1, 94566, Note_on_c, 0, 80, 84
1, 94570, Note_on_c, 0, 57, 75
1, 94610, Note_on_c, 0, 80, 0
1, 94610, Note_on_c, 0, 57, 0
1, 94618, Note_on_c, 0, 68, 0
1, 94782, Note_on_c, 0, 38, 88
1, 94786, Note_on_c, 0, 42, 83
1, 94790, Note_on_c, 0, 45, 80
1, 94792, Note_on_c, 0, 66, 88
1, 94794, Note_on_c, 0, 78, 94
1, 94796, Note_on_c, 0, 50, 101
1, 94822, Note_on_c, 0, 38, 0
1, 94872, Note_on_c, 0, 45, 0
1, 94880, Note_on_c, 0, 66, 0
1, 94882, Note_on_c, 0, 78, 0
1, 94892, Note_on_c, 0, 42, 0
1, 94914, Note_on_c, 0, 50, 0
1, 95008, Note_on_c, 0, 80, 86
1, 95008, Note_on_c, 0, 68, 75
1, 95016, Note_on_c, 0, 50, 63
1, 95058, Note_on_c, 0, 68, 0
1, 95078, Note_on_c, 0, 80, 0
1, 95078, Note_on_c, 0, 50, 0
1, 95176, Note_on_c, 0, 39, 90
1, 95200, Note_on_c, 0, 45, 74
1, 95200, Note_on_c, 0, 42, 77
1, 95222, Note_on_c, 0, 39, 0
1, 95225, Note_on_c, 0, 81, 101
1, 95234, Note_on_c, 0, 69, 78
1, 95240, Note_on_c, 0, 51, 101
1, 95258, Note_on_c, 0, 42, 0
1, 95268, Note_on_c, 0, 81, 0
1, 95278, Note_on_c, 0, 69, 0
1, 95298, Note_on_c, 0, 45, 0
1, 95338, Note_on_c, 0, 51, 0
1, 95438, Note_on_c, 0, 83, 114
1, 95438, Note_on_c, 0, 51, 74
1, 95441, Note_on_c, 0, 71, 87
1, 95474, Note_on_c, 0, 83, 0
1, 95486, Note_on_c, 0, 71, 0
1, 95534, Note_on_c, 0, 51, 0
1, 95598, Note_on_c, 0, 40, 101
1, 95614, Note_on_c, 0, 44, 83
1, 95644, Note_on_c, 0, 47, 78
1, 95648, Note_on_c, 0, 80, 97
1, 95648, Note_on_c, 0, 68, 88
1, 95670, Note_on_c, 0, 52, 110
1, 95698, Note_on_c, 0, 40, 0
1, 95708, Note_on_c, 0, 44, 0
1, 95726, Note_on_c, 0, 80, 0
1, 95734, Note_on_c, 0, 47, 0
1, 95748, Note_on_c, 0, 68, 0
1, 95758, Note_on_c, 0, 52, 0
1, 95870, Note_on_c, 0, 76, 90
1, 95874, Note_on_c, 0, 64, 89
1, 95880, Note_on_c, 0, 52, 83
1, 95908, Note_on_c, 0, 76, 0
1, 95908, Note_on_c, 0, 64, 0
1, 95918, Note_on_c, 0, 52, 0
1, 96072, Note_on_c, 0, 81, 100
1, 96075, Note_on_c, 0, 69, 75
1, 96078, Note_on_c, 0, 52, 90
1, 96108, Note_on_c, 0, 81, 0
1, 96120, Note_on_c, 0, 52, 0
1, 96122, Note_on_c, 0, 69, 0
1, 96280, Note_on_c, 0, 83, 116
1, 96285, Note_on_c, 0, 52, 87
1, 96290, Note_on_c, 0, 71, 87
1, 96328, Note_on_c, 0, 52, 0
1, 96328, Note_on_c, 0, 71, 0
1, 96352, Note_on_c, 0, 83, 0
1, 96450, Note_on_c, 0, 45, 87
1, 96496, Note_on_c, 0, 52, 80
1, 96504, Note_on_c, 0, 50, 63
1, 96526, Note_on_c, 0, 85, 103
1, 96530, Note_on_c, 0, 73, 96
1, 96536, Note_on_c, 0, 57, 101
1, 96552, Note_on_c, 0, 50, 0
1, 96554, Note_on_c, 0, 45, 0
1, 96592, Note_on_c, 0, 52, 0
1, 96620, Note_on_c, 0, 57, 0
1, 96704, Note_on_c, 0, 85, 0
1, 96762, Note_on_c, 0, 57, 84
1, 96765, Note_on_c, 0, 73, 0
1, 96802, Note_on_c, 0, 57, 0
1, 96940, Note_on_c, 0, 69, 78
1, 96944, Note_on_c, 0, 81, 92
1, 96954, Note_on_c, 0, 57, 79
1, 97000, Note_on_c, 0, 57, 0
1, 97002, Note_on_c, 0, 69, 0
1, 97040, Note_on_c, 0, 81, 0
1, 97150, Note_on_c, 0, 57, 74
1, 97150, Note_on_c, 0, 83, 112
1, 97153, Note_on_c, 0, 71, 89
1, 97192, Note_on_c, 0, 83, 0
1, 97192, Note_on_c, 0, 71, 0
1, 97212, Note_on_c, 0, 57, 0
1, 97280, Note_on_c, 0, 45, 83
1, 97312, Note_on_c, 0, 49, 84
1, 97362, Note_on_c, 0, 52, 92
1, 97370, Note_on_c, 0, 85, 97
1, 97372, Note_on_c, 0, 73, 88
1, 97396, Note_on_c, 0, 57, 98
1, 97416, Note_on_c, 0, 45, 0
1, 97440, Note_on_c, 0, 49, 0
1, 97444, Note_on_c, 0, 52, 0
1, 97464, Note_on_c, 0, 85, 0
1, 97474, Note_on_c, 0, 73, 0
1, 97518, Note_on_c, 0, 57, 0
1, 97578, Note_on_c, 0, 83, 107
1, 97580, Note_on_c, 0, 71, 94
1, 97588, Note_on_c, 0, 57, 56
1, 97632, Note_on_c, 0, 71, 0
1, 97637, Note_on_c, 0, 83, 0
1, 97678, Note_on_c, 0, 57, 0
1, 97776, Note_on_c, 0, 57, 60
1, 97782, Note_on_c, 0, 81, 97
1, 97784, Note_on_c, 0, 69, 77
1, 97824, Note_on_c, 0, 81, 0
1, 97838, Note_on_c, 0, 69, 0
1, 97852, Note_on_c, 0, 57, 0
1, 97984, Note_on_c, 0, 57, 74
1, 97992, Note_on_c, 0, 68, 80
1, 97994, Note_on_c, 0, 80, 88
1, 98024, Note_on_c, 0, 57, 0
1, 98032, Note_on_c, 0, 80, 0
1, 98042, Note_on_c, 0, 68, 0
1, 98154, Note_on_c, 0, 38, 94
1, 98176, Note_on_c, 0, 42, 74
1, 98179, Note_on_c, 0, 45, 63
1, 98198, Note_on_c, 0, 38, 0
1, 98198, Note_on_c, 0, 66, 82
1, 98201, Note_on_c, 0, 78, 91
1, 98218, Note_on_c, 0, 50, 99
1, 98248, Note_on_c, 0, 66, 0
1, 98274, Note_on_c, 0, 78, 0
1, 98277, Note_on_c, 0, 45, 0
1, 98284, Note_on_c, 0, 42, 0
1, 98312, Note_on_c, 0, 50, 0
1, 98396, Note_on_c, 0, 83, 111
1, 98398, Note_on_c, 0, 50, 69
1, 98401, Note_on_c, 0, 71, 90
1, 98426, Note_on_c, 0, 83, 0
1, 98444, Note_on_c, 0, 71, 0
1, 98498, Note_on_c, 0, 50, 0
1, 98556, Note_on_c, 0, 40, 94
1, 98574, Note_on_c, 0, 44, 69
1, 98596, Note_on_c, 0, 47, 64
1, 98600, Note_on_c, 0, 68, 84
1, 98602, Note_on_c, 0, 80, 87
1, 98604, Note_on_c, 0, 40, 0
1, 98638, Note_on_c, 0, 52, 97
1, 98641, Note_on_c, 0, 80, 0
1, 98648, Note_on_c, 0, 68, 0
1, 98690, Note_on_c, 0, 44, 0
1, 98696, Note_on_c, 0, 47, 0
1, 98710, Note_on_c, 0, 52, 0
1, 98804, Note_on_c, 0, 76, 93
1, 98812, Note_on_c, 0, 64, 78
1, 98815, Note_on_c, 0, 52, 82
1, 98840, Note_on_c, 0, 76, 0
1, 98850, Note_on_c, 0, 64, 0
1, 98892, Note_on_c, 0, 52, 0
1, 99032, Note_on_c, 0, 81, 103
1, 99036, Note_on_c, 0, 69, 85
1, 99044, Note_on_c, 0, 45, 85
1, 99082, Note_on_c, 0, 45, 0
1, 99244, Note_on_c, 0, 69, 0
1, 99284, Note_on_c, 0, 81, 0
1, 99454, Note_on_c, 0, 81, 98
1, 99458, Note_on_c, 0, 69, 77
1, 99508, Note_on_c, 0, 69, 0
1, 99544, Note_on_c, 0, 81, 0
1, 99670, Note_on_c, 0, 83, 113
1, 99670, Note_on_c, 0, 71, 92
1, 99704, Note_on_c, 0, 83, 0
1, 99708, Note_on_c, 0, 71, 0
1, 99902, Note_on_c, 0, 45, 95
1, 99918, Note_on_c, 0, 49, 77
1, 99936, Note_on_c, 0, 52, 84
1, 99946, Note_on_c, 0, 85, 102
1, 99950, Note_on_c, 0, 73, 98
1, 99966, Note_on_c, 0, 57, 99
1, 100004, Note_on_c, 0, 45, 0
1, 100014, Note_on_c, 0, 49, 0
1, 100034, Note_on_c, 0, 52, 0
1, 100074, Note_on_c, 0, 57, 0
1, 100078, Note_on_c, 0, 85, 0
1, 100130, Note_on_c, 0, 73, 0
1, 100186, Note_on_c, 0, 57, 52
1, 100266, Note_on_c, 0, 57, 0
1, 100356, Note_on_c, 0, 69, 73
1, 100359, Note_on_c, 0, 81, 92
1, 100398, Note_on_c, 0, 57, 76
1, 100420, Note_on_c, 0, 69, 0
1, 100446, Note_on_c, 0, 57, 0
1, 100468, Note_on_c, 0, 81, 0
1, 100570, Note_on_c, 0, 83, 111
1, 100574, Note_on_c, 0, 71, 77
1, 100590, Note_on_c, 0, 57, 68
1, 100606, Note_on_c, 0, 83, 0
1, 100618, Note_on_c, 0, 71, 0
1, 100644, Note_on_c, 0, 57, 0
1, 100734, Note_on_c, 0, 45, 75
1, 100758, Note_on_c, 0, 49, 79
1, 100780, Note_on_c, 0, 52, 83
1, 100800, Note_on_c, 0, 73, 93
1, 100802, Note_on_c, 0, 85, 97
1, 100828, Note_on_c, 0, 57, 99
1, 100846, Note_on_c, 0, 45, 0
1, 100882, Note_on_c, 0, 49, 0
1, 100886, Note_on_c, 0, 85, 0
1, 100890, Note_on_c, 0, 73, 0
1, 100896, Note_on_c, 0, 52, 0
1, 100948, Note_on_c, 0, 57, 0
1, 101016, Note_on_c, 0, 83, 111
1, 101020, Note_on_c, 0, 71, 93
1, 101024, Note_on_c, 0, 57, 57
1, 101064, Note_on_c, 0, 83, 0
1, 101067, Note_on_c, 0, 71, 0
1, 101086, Note_on_c, 0, 57, 0
1, 101210, Note_on_c, 0, 81, 100
1, 101212, Note_on_c, 0, 69, 82
1, 101224, Note_on_c, 0, 57, 72
1, 101266, Note_on_c, 0, 81, 0
1, 101268, Note_on_c, 0, 57, 0
1, 101284, Note_on_c, 0, 69, 0
1, 101410, Note_on_c, 0, 68, 82
1, 101414, Note_on_c, 0, 80, 86
1, 101420, Note_on_c, 0, 57, 73
1, 101460, Note_on_c, 0, 80, 0
1, 101462, Note_on_c, 0, 57, 0
1, 101480, Note_on_c, 0, 68, 0
1, 101596, Note_on_c, 0, 38, 104
1, 101616, Note_on_c, 0, 45, 75
1, 101618, Note_on_c, 0, 42, 81
1, 101630, Note_on_c, 0, 66, 84
1, 101632, Note_on_c, 0, 78, 89
1, 101662, Note_on_c, 0, 50, 105
1, 101684, Note_on_c, 0, 38, 0
1, 101716, Note_on_c, 0, 66, 0
1, 101726, Note_on_c, 0, 45, 0
1, 101732, Note_on_c, 0, 78, 0
1, 101738, Note_on_c, 0, 42, 0
1, 101771, Note_on_c, 0, 50, 0
1, 101844, Note_on_c, 0, 68, 71
1, 101846, Note_on_c, 0, 80, 83
1, 101852, Note_on_c, 0, 50, 72
1, 101898, Note_on_c, 0, 68, 0
1, 101912, Note_on_c, 0, 50, 0
1, 101934, Note_on_c, 0, 80, 0
1, 101976, Note_on_c, 0, 39, 86
1, 102012, Note_on_c, 0, 42, 82
1, 102032, Note_on_c, 0, 45, 75
1, 102044, Note_on_c, 0, 81, 99
1, 102044, Note_on_c, 0, 69, 78
1, 102076, Note_on_c, 0, 51, 100
1, 102088, Note_on_c, 0, 39, 0
1, 102094, Note_on_c, 0, 69, 0
1, 102110, Note_on_c, 0, 42, 0
1, 102116, Note_on_c, 0, 81, 0
1, 102124, Note_on_c, 0, 45, 0
1, 102184, Note_on_c, 0, 51, 0
1, 102240, Note_on_c, 0, 83, 112
1, 102242, Note_on_c, 0, 71, 95
1, 102259, Note_on_c, 0, 51, 78
1, 102288, Note_on_c, 0, 83, 0
1, 102296, Note_on_c, 0, 71, 0
1, 102362, Note_on_c, 0, 51, 0
1, 102382, Note_on_c, 0, 40, 100
1, 102410, Note_on_c, 0, 44, 78
1, 102450, Note_on_c, 0, 68, 91
1, 102454, Note_on_c, 0, 80, 95
1, 102458, Note_on_c, 0, 47, 68
1, 102484, Note_on_c, 0, 52, 107
1, 102490, Note_on_c, 0, 40, 0
1, 102538, Note_on_c, 0, 44, 0
1, 102550, Note_on_c, 0, 47, 0
1, 102556, Note_on_c, 0, 68, 0
1, 102564, Note_on_c, 0, 80, 0
1, 102602, Note_on_c, 0, 52, 0
1, 102658, Note_on_c, 0, 76, 92
1, 102666, Note_on_c, 0, 64, 73
1, 102666, Note_on_c, 0, 52, 91
1, 102698, Note_on_c, 0, 76, 0
1, 102708, Note_on_c, 0, 64, 0
1, 102746, Note_on_c, 0, 52, 0
1, 102852, Note_on_c, 0, 81, 101
1, 102858, Note_on_c, 0, 52, 90
1, 102858, Note_on_c, 0, 69, 76
1, 102906, Note_on_c, 0, 69, 0
1, 102940, Note_on_c, 0, 52, 0
1, 102950, Note_on_c, 0, 81, 0
1, 103062, Note_on_c, 0, 52, 89
1, 103065, Note_on_c, 0, 71, 92
1, 103065, Note_on_c, 0, 83, 113
1, 103102, Note_on_c, 0, 71, 0
1, 103104, Note_on_c, 0, 83, 0
1, 103126, Note_on_c, 0, 52, 0
1, 103216, Note_on_c, 0, 45, 82
1, 103234, Note_on_c, 0, 49, 84
1, 103272, Note_on_c, 0, 52, 86
1, 103300, Note_on_c, 0, 85, 102
1, 103300, Note_on_c, 0, 73, 97
1, 103312, Note_on_c, 0, 57, 100
1, 103326, Note_on_c, 0, 45, 0
1, 103358, Note_on_c, 0, 49, 0
1, 103380, Note_on_c, 0, 52, 0
1, 103414, Note_on_c, 0, 57, 0
1, 103458, Note_on_c, 0, 85, 0
1, 103518, Note_on_c, 0, 73, 0
1, 103542, Note_on_c, 0, 57, 69
1, 103592, Note_on_c, 0, 57, 0
1, 103712, Note_on_c, 0, 69, 81
1, 103715, Note_on_c, 0, 81, 92
1, 103728, Note_on_c, 0, 57, 74
1, 103784, Note_on_c, 0, 69, 0
1, 103787, Note_on_c, 0, 57, 0
1, 103800, Note_on_c, 0, 81, 0
1, 103926, Note_on_c, 0, 57, 79
1, 103926, Note_on_c, 0, 83, 113
1, 103929, Note_on_c, 0, 71, 92
1, 103966, Note_on_c, 0, 71, 0
1, 103980, Note_on_c, 0, 57, 0
1, 103980, Note_on_c, 0, 83, 0
1, 104054, Note_on_c, 0, 45, 80
1, 104084, Note_on_c, 0, 49, 74
1, 104128, Note_on_c, 0, 52, 84
1, 104150, Note_on_c, 0, 85, 93
1, 104152, Note_on_c, 0, 73, 92
1, 104164, Note_on_c, 0, 45, 0
1, 104164, Note_on_c, 0, 57, 100
1, 104202, Note_on_c, 0, 49, 0
1, 104210, Note_on_c, 0, 52, 0
1, 104246, Note_on_c, 0, 85, 0
1, 104252, Note_on_c, 0, 73, 0
1, 104286, Note_on_c, 0, 57, 0
1, 104358, Note_on_c, 0, 83, 108
1, 104364, Note_on_c, 0, 71, 89
1, 104380, Note_on_c, 0, 57, 42
1, 104406, Note_on_c, 0, 71, 0
1, 104410, Note_on_c, 0, 83, 0
1, 104444, Note_on_c, 0, 57, 0
1, 104548, Note_on_c, 0, 57, 57
1, 104548, Note_on_c, 0, 81, 98
1, 104551, Note_on_c, 0, 69, 76
1, 104598, Note_on_c, 0, 71, 23
1, 104610, Note_on_c, 0, 57, 0
1, 104622, Note_on_c, 0, 69, 0
1, 104624, Note_on_c, 0, 81, 0
1, 104654, Note_on_c, 0, 71, 0
1, 104738, Note_on_c, 0, 57, 74
1, 104752, Note_on_c, 0, 68, 83
1, 104754, Note_on_c, 0, 80, 90
1, 104778, Note_on_c, 0, 57, 0
1, 104816, Note_on_c, 0, 68, 0
1, 104826, Note_on_c, 0, 80, 0
1, 104910, Note_on_c, 0, 38, 93
1, 104924, Note_on_c, 0, 42, 76
1, 104940, Note_on_c, 0, 45, 58
1, 104956, Note_on_c, 0, 38, 0
1, 104958, Note_on_c, 0, 66, 79
1, 104960, Note_on_c, 0, 78, 89
1, 104980, Note_on_c, 0, 50, 101
1, 105006, Note_on_c, 0, 66, 0
1, 105026, Note_on_c, 0, 42, 0
1, 105048, Note_on_c, 0, 78, 0
1, 105054, Note_on_c, 0, 45, 0
1, 105086, Note_on_c, 0, 50, 0
1, 105148, Note_on_c, 0, 50, 85
1, 105151, Note_on_c, 0, 83, 107
1, 105170, Note_on_c, 0, 71, 47
1, 105184, Note_on_c, 0, 83, 0
1, 105224, Note_on_c, 0, 50, 0
1, 105236, Note_on_c, 0, 71, 0
1, 105310, Note_on_c, 0, 40, 84
1, 105316, Note_on_c, 0, 44, 64
1, 105340, Note_on_c, 0, 47, 40
1, 105350, Note_on_c, 0, 68, 83
1, 105352, Note_on_c, 0, 80, 87
1, 105354, Note_on_c, 0, 40, 0
1, 105378, Note_on_c, 0, 52, 94
1, 105390, Note_on_c, 0, 80, 0
1, 105394, Note_on_c, 0, 68, 0
1, 105428, Note_on_c, 0, 44, 0
1, 105431, Note_on_c, 0, 47, 0
1, 105434, Note_on_c, 0, 52, 0
1, 105540, Note_on_c, 0, 76, 91
1, 105548, Note_on_c, 0, 64, 69
1, 105556, Note_on_c, 0, 52, 78
1, 105576, Note_on_c, 0, 76, 0
1, 105590, Note_on_c, 0, 64, 0
1, 105608, Note_on_c, 0, 52, 0
1, 105796, Note_on_c, 0, 45, 80
1, 105802, Note_on_c, 0, 81, 100
1, 105808, Note_on_c, 0, 69, 85
1, 105838, Note_on_c, 0, 45, 0
1, 105886, Note_on_c, 0, 81, 0
1, 105964, Note_on_c, 0, 69, 0
1, 106486, Note_on_c, 0, 71, 35
1, 106558, Note_on_c, 0, 71, 0
1, 106574, Note_on_c, 0, 69, 38
1, 106644, Note_on_c, 0, 69, 0
1, 106660, Note_on_c, 0, 68, 55
1, 106730, Note_on_c, 0, 68, 0
1, 106772, Note_on_c, 0, 69, 42
1, 106882, Note_on_c, 0, 57, 36
1, 106898, Note_on_c, 0, 72, 66
1, 106902, Note_on_c, 0, 69, 0
1, 107048, Note_on_c, 0, 57, 0
1, 107080, Note_on_c, 0, 72, 0
1, 107106, Note_on_c, 0, 64, 34
1, 107122, Note_on_c, 0, 60, 22
1, 107164, Note_on_c, 0, 64, 0
1, 107196, Note_on_c, 0, 60, 0
1, 107294, Note_on_c, 0, 60, 27
1, 107297, Note_on_c, 0, 74, 58
1, 107322, Note_on_c, 0, 64, 24
1, 107362, Note_on_c, 0, 60, 0
1, 107362, Note_on_c, 0, 74, 0
1, 107380, Note_on_c, 0, 72, 45
1, 107386, Note_on_c, 0, 64, 0
1, 107456, Note_on_c, 0, 72, 0
1, 107476, Note_on_c, 0, 71, 56
1, 107480, Note_on_c, 0, 64, 38
1, 107512, Note_on_c, 0, 60, 11
1, 107536, Note_on_c, 0, 71, 0
1, 107540, Note_on_c, 0, 64, 0
1, 107574, Note_on_c, 0, 72, 44
1, 107596, Note_on_c, 0, 60, 0
1, 107660, Note_on_c, 0, 72, 0
1, 107696, Note_on_c, 0, 76, 49
1, 107714, Note_on_c, 0, 57, 23
1, 107796, Note_on_c, 0, 57, 0
1, 107898, Note_on_c, 0, 64, 37
1, 107901, Note_on_c, 0, 76, 0
1, 107904, Note_on_c, 0, 60, 29
1, 107957, Note_on_c, 0, 64, 0
1, 107976, Note_on_c, 0, 60, 0
1, 108096, Note_on_c, 0, 77, 59
1, 108118, Note_on_c, 0, 60, 22
1, 108124, Note_on_c, 0, 64, 27
1, 108152, Note_on_c, 0, 77, 0
1, 108178, Note_on_c, 0, 76, 52
1, 108186, Note_on_c, 0, 64, 0
1, 108200, Note_on_c, 0, 60, 0
1, 108242, Note_on_c, 0, 76, 0
1, 108272, Note_on_c, 0, 75, 64
1, 108286, Note_on_c, 0, 64, 33
1, 108296, Note_on_c, 0, 60, 37
1, 108348, Note_on_c, 0, 64, 0
1, 108350, Note_on_c, 0, 75, 0
1, 108362, Note_on_c, 0, 60, 0
1, 108388, Note_on_c, 0, 76, 64
1, 108448, Note_on_c, 0, 76, 0
1, 108498, Note_on_c, 0, 83, 97
1, 108500, Note_on_c, 0, 57, 42
1, 108564, Note_on_c, 0, 57, 0
1, 108588, Note_on_c, 0, 81, 71
1, 108624, Note_on_c, 0, 83, 0
1, 108680, Note_on_c, 0, 81, 0
1, 108686, Note_on_c, 0, 80, 67
1, 108698, Note_on_c, 0, 64, 40
1, 108704, Note_on_c, 0, 60, 38
1, 108754, Note_on_c, 0, 64, 0
1, 108766, Note_on_c, 0, 60, 0
1, 108796, Note_on_c, 0, 81, 59
1, 108826, Note_on_c, 0, 80, 0
1, 108860, Note_on_c, 0, 81, 0
1, 108888, Note_on_c, 0, 83, 89
1, 108898, Note_on_c, 0, 57, 43
1, 108958, Note_on_c, 0, 57, 0
1, 108992, Note_on_c, 0, 81, 60
1, 109002, Note_on_c, 0, 83, 0
1, 109062, Note_on_c, 0, 81, 0
1, 109076, Note_on_c, 0, 80, 64
1, 109124, Note_on_c, 0, 64, 15
1, 109132, Note_on_c, 0, 60, 9
1, 109184, Note_on_c, 0, 60, 0
1, 109187, Note_on_c, 0, 81, 60
1, 109191, Note_on_c, 0, 64, 0
1, 109206, Note_on_c, 0, 80, 0
1, 109280, Note_on_c, 0, 81, 0
1, 109306, Note_on_c, 0, 84, 68
1, 109314, Note_on_c, 0, 57, 32
1, 109434, Note_on_c, 0, 57, 0
1, 109504, Note_on_c, 0, 64, 33
1, 109520, Note_on_c, 0, 60, 26
1, 109568, Note_on_c, 0, 64, 0
1, 109596, Note_on_c, 0, 60, 0
1, 109666, Note_on_c, 0, 84, 0
1, 109714, Note_on_c, 0, 60, 29
1, 109728, Note_on_c, 0, 81, 47
1, 109740, Note_on_c, 0, 64, 24
1, 109778, Note_on_c, 0, 60, 0
1, 109784, Note_on_c, 0, 81, 0
1, 109802, Note_on_c, 0, 64, 0
1, 109924, Note_on_c, 0, 84, 61
1, 109924, Note_on_c, 0, 64, 27
1, 109934, Note_on_c, 0, 60, 36
1, 109966, Note_on_c, 0, 84, 0
1, 109988, Note_on_c, 0, 64, 0
1, 110002, Note_on_c, 0, 60, 0
1, 110088, Note_on_c, 0, 79, 59
1, 110106, Note_on_c, 0, 81, 51
1, 110130, Note_on_c, 0, 52, 75
1, 110136, Note_on_c, 0, 83, 93
1, 110156, Note_on_c, 0, 79, 0
1, 110162, Note_on_c, 0, 81, 0
1, 110178, Note_on_c, 0, 83, 0
1, 110182, Note_on_c, 0, 52, 0
1, 110310, Note_on_c, 0, 78, 55
1, 110318, Note_on_c, 0, 81, 53
1, 110324, Note_on_c, 0, 64, 51
1, 110340, Note_on_c, 0, 59, 35
1, 110362, Note_on_c, 0, 78, 0
1, 110378, Note_on_c, 0, 81, 0
1, 110378, Note_on_c, 0, 64, 0
1, 110396, Note_on_c, 0, 59, 0
1, 110524, Note_on_c, 0, 79, 67
1, 110530, Note_on_c, 0, 76, 36
1, 110546, Note_on_c, 0, 64, 46
1, 110572, Note_on_c, 0, 79, 0
1, 110580, Note_on_c, 0, 59, 19
1, 110588, Note_on_c, 0, 76, 0
1, 110598, Note_on_c, 0, 64, 0
1, 110646, Note_on_c, 0, 59, 0
1, 110720, Note_on_c, 0, 78, 58
1, 110726, Note_on_c, 0, 59, 48
1, 110730, Note_on_c, 0, 81, 58
1, 110732, Note_on_c, 0, 64, 28
1, 110768, Note_on_c, 0, 78, 0
1, 110774, Note_on_c, 0, 81, 0
1, 110778, Note_on_c, 0, 59, 0
1, 110790, Note_on_c, 0, 64, 0
1, 110900, Note_on_c, 0, 79, 66
1, 110906, Note_on_c, 0, 81, 50
1, 110930, Note_on_c, 0, 52, 69
1, 110958, Note_on_c, 0, 83, 97
1, 110976, Note_on_c, 0, 79, 0
1, 110979, Note_on_c, 0, 52, 0
1, 111006, Note_on_c, 0, 81, 0
1, 111006, Note_on_c, 0, 83, 0
1, 111122, Note_on_c, 0, 78, 58
1, 111136, Note_on_c, 0, 81, 51
1, 111142, Note_on_c, 0, 64, 38
1, 111146, Note_on_c, 0, 59, 40
1, 111178, Note_on_c, 0, 78, 0
1, 111190, Note_on_c, 0, 81, 0
1, 111200, Note_on_c, 0, 64, 0
1, 111202, Note_on_c, 0, 59, 0
1, 111328, Note_on_c, 0, 79, 76
1, 111332, Note_on_c, 0, 76, 47
1, 111346, Note_on_c, 0, 64, 42
1, 111358, Note_on_c, 0, 59, 39
1, 111376, Note_on_c, 0, 79, 0
1, 111386, Note_on_c, 0, 76, 0
1, 111402, Note_on_c, 0, 64, 0
1, 111410, Note_on_c, 0, 59, 0
1, 111520, Note_on_c, 0, 78, 73
1, 111530, Note_on_c, 0, 64, 33
1, 111540, Note_on_c, 0, 81, 64
1, 111543, Note_on_c, 0, 59, 32
1, 111584, Note_on_c, 0, 78, 0
1, 111586, Note_on_c, 0, 81, 0
1, 111590, Note_on_c, 0, 64, 0
1, 111600, Note_on_c, 0, 59, 0
1, 111692, Note_on_c, 0, 79, 85
1, 111718, Note_on_c, 0, 52, 72
1, 111740, Note_on_c, 0, 81, 78
1, 111764, Note_on_c, 0, 52, 0
1, 111812, Note_on_c, 0, 83, 76
1, 111820, Note_on_c, 0, 79, 0
1, 111824, Note_on_c, 0, 81, 0
1, 111856, Note_on_c, 0, 83, 0
1, 111920, Note_on_c, 0, 78, 62
1, 111930, Note_on_c, 0, 64, 43
1, 111930, Note_on_c, 0, 81, 50
1, 111932, Note_on_c, 0, 59, 55
1, 111980, Note_on_c, 0, 64, 0
1, 111980, Note_on_c, 0, 59, 0
1, 111984, Note_on_c, 0, 81, 0
1, 111988, Note_on_c, 0, 78, 0
1, 112124, Note_on_c, 0, 47, 72
1, 112126, Note_on_c, 0, 76, 9
1, 112130, Note_on_c, 0, 79, 62
1, 112170, Note_on_c, 0, 47, 0
1, 112174, Note_on_c, 0, 76, 0
1, 112178, Note_on_c, 0, 79, 0
1, 112316, Note_on_c, 0, 75, 44
1, 112318, Note_on_c, 0, 78, 50
1, 112328, Note_on_c, 0, 59, 48
1, 112370, Note_on_c, 0, 75, 0
1, 112378, Note_on_c, 0, 59, 0
1, 112380, Note_on_c, 0, 78, 0
1, 112542, Note_on_c, 0, 76, 44
1, 112582, Note_on_c, 0, 52, 34
1, 112650, Note_on_c, 0, 52, 0
1, 112686, Note_on_c, 0, 76, 0
1, 113190, Note_on_c, 0, 71, 42
1, 113232, Note_on_c, 0, 69, 52
1, 113244, Note_on_c, 0, 71, 0
1, 113296, Note_on_c, 0, 69, 0
1, 113342, Note_on_c, 0, 68, 52
1, 113410, Note_on_c, 0, 68, 0
1, 113432, Note_on_c, 0, 69, 48
1, 113546, Note_on_c, 0, 69, 0
1, 113568, Note_on_c, 0, 72, 54
1, 113570, Note_on_c, 0, 57, 31
1, 113662, Note_on_c, 0, 57, 0
1, 113744, Note_on_c, 0, 72, 0
1, 113770, Note_on_c, 0, 64, 38
1, 113776, Note_on_c, 0, 60, 30
1, 113826, Note_on_c, 0, 64, 0
1, 113848, Note_on_c, 0, 60, 0
1, 113956, Note_on_c, 0, 74, 60
1, 113974, Note_on_c, 0, 60, 28
1, 113988, Note_on_c, 0, 64, 31
1, 114014, Note_on_c, 0, 74, 0
1, 114042, Note_on_c, 0, 60, 0
1, 114048, Note_on_c, 0, 64, 0
1, 114056, Note_on_c, 0, 72, 41
1, 114116, Note_on_c, 0, 72, 0
1, 114138, Note_on_c, 0, 71, 63
1, 114146, Note_on_c, 0, 60, 32
1, 114149, Note_on_c, 0, 64, 35
1, 114200, Note_on_c, 0, 71, 0
1, 114216, Note_on_c, 0, 64, 0
1, 114218, Note_on_c, 0, 60, 0
1, 114234, Note_on_c, 0, 72, 41
1, 114340, Note_on_c, 0, 72, 0
1, 114344, Note_on_c, 0, 76, 75
1, 114356, Note_on_c, 0, 57, 45
1, 114432, Note_on_c, 0, 57, 0
1, 114501, Note_on_c, 0, 76, 0
1, 114540, Note_on_c, 0, 64, 52
1, 114554, Note_on_c, 0, 60, 45
1, 114596, Note_on_c, 0, 64, 0
1, 114612, Note_on_c, 0, 60, 0
1, 114732, Note_on_c, 0, 77, 82
1, 114756, Note_on_c, 0, 64, 52
1, 114782, Note_on_c, 0, 60, 36
1, 114808, Note_on_c, 0, 64, 0
1, 114824, Note_on_c, 0, 76, 68
1, 114840, Note_on_c, 0, 77, 0
1, 114852, Note_on_c, 0, 60, 0
1, 114916, Note_on_c, 0, 75, 72
1, 114938, Note_on_c, 0, 76, 0
1, 114938, Note_on_c, 0, 60, 49
1, 114946, Note_on_c, 0, 64, 30
1, 115000, Note_on_c, 0, 60, 0
1, 115004, Note_on_c, 0, 64, 0
1, 115006, Note_on_c, 0, 76, 72
1, 115022, Note_on_c, 0, 75, 0
1, 115120, Note_on_c, 0, 57, 50
1, 115128, Note_on_c, 0, 76, 0
1, 115128, Note_on_c, 0, 83, 105
1, 115182, Note_on_c, 0, 57, 0
1, 115214, Note_on_c, 0, 81, 76
1, 115240, Note_on_c, 0, 83, 0
1, 115306, Note_on_c, 0, 80, 78
1, 115320, Note_on_c, 0, 64, 40
1, 115330, Note_on_c, 0, 60, 48
1, 115344, Note_on_c, 0, 81, 0
1, 115378, Note_on_c, 0, 64, 0
1, 115386, Note_on_c, 0, 60, 0
1, 115412, Note_on_c, 0, 81, 70
1, 115452, Note_on_c, 0, 80, 0
1, 115512, Note_on_c, 0, 83, 98
1, 115528, Note_on_c, 0, 57, 50
1, 115542, Note_on_c, 0, 81, 0
1, 115582, Note_on_c, 0, 57, 0
1, 115604, Note_on_c, 0, 81, 78
1, 115640, Note_on_c, 0, 83, 0
1, 115694, Note_on_c, 0, 80, 78
1, 115712, Note_on_c, 0, 64, 48
1, 115718, Note_on_c, 0, 81, 0
1, 115724, Note_on_c, 0, 60, 47
1, 115770, Note_on_c, 0, 64, 0
1, 115780, Note_on_c, 0, 60, 0
1, 115792, Note_on_c, 0, 81, 75
1, 115812, Note_on_c, 0, 80, 0
1, 115928, Note_on_c, 0, 84, 94
1, 115931, Note_on_c, 0, 57, 55
1, 115948, Note_on_c, 0, 81, 0
1, 116114, Note_on_c, 0, 57, 0
1, 116134, Note_on_c, 0, 64, 49
1, 116142, Note_on_c, 0, 60, 41
1, 116190, Note_on_c, 0, 64, 0
1, 116202, Note_on_c, 0, 60, 0
1, 116250, Note_on_c, 0, 84, 0
1, 116338, Note_on_c, 0, 81, 70
1, 116350, Note_on_c, 0, 64, 51
1, 116378, Note_on_c, 0, 60, 27
1, 116398, Note_on_c, 0, 81, 0
1, 116401, Note_on_c, 0, 64, 0
1, 116448, Note_on_c, 0, 60, 0
1, 116534, Note_on_c, 0, 60, 45
1, 116544, Note_on_c, 0, 84, 72
1, 116556, Note_on_c, 0, 64, 38
1, 116584, Note_on_c, 0, 84, 0
1, 116598, Note_on_c, 0, 60, 0
1, 116608, Note_on_c, 0, 64, 0
1, 116728, Note_on_c, 0, 79, 59
1, 116734, Note_on_c, 0, 81, 61
1, 116748, Note_on_c, 0, 52, 69
1, 116766, Note_on_c, 0, 83, 95
1, 116786, Note_on_c, 0, 79, 0
1, 116794, Note_on_c, 0, 81, 0
1, 116800, Note_on_c, 0, 52, 0
1, 116814, Note_on_c, 0, 83, 0
1, 116950, Note_on_c, 0, 81, 55
1, 116953, Note_on_c, 0, 78, 48
1, 116968, Note_on_c, 0, 64, 44
1, 116984, Note_on_c, 0, 59, 31
1, 117006, Note_on_c, 0, 78, 0
1, 117009, Note_on_c, 0, 81, 0
1, 117024, Note_on_c, 0, 64, 0
1, 117042, Note_on_c, 0, 59, 0
1, 117154, Note_on_c, 0, 76, 39
1, 117158, Note_on_c, 0, 79, 57
1, 117176, Note_on_c, 0, 59, 32
1, 117184, Note_on_c, 0, 64, 26
1, 117212, Note_on_c, 0, 79, 0
1, 117214, Note_on_c, 0, 76, 0
1, 117232, Note_on_c, 0, 59, 0
1, 117246, Note_on_c, 0, 64, 0
1, 117354, Note_on_c, 0, 78, 47
1, 117362, Note_on_c, 0, 64, 32
1, 117366, Note_on_c, 0, 81, 50
1, 117412, Note_on_c, 0, 78, 0
1, 117415, Note_on_c, 0, 81, 0
1, 117424, Note_on_c, 0, 64, 0
1, 117548, Note_on_c, 0, 79, 66
1, 117578, Note_on_c, 0, 52, 66
1, 117582, Note_on_c, 0, 81, 62
1, 117610, Note_on_c, 0, 79, 0
1, 117618, Note_on_c, 0, 83, 83
1, 117626, Note_on_c, 0, 52, 0
1, 117626, Note_on_c, 0, 81, 0
1, 117664, Note_on_c, 0, 83, 0
1, 117784, Note_on_c, 0, 78, 53
1, 117787, Note_on_c, 0, 64, 44
1, 117794, Note_on_c, 0, 81, 51
1, 117804, Note_on_c, 0, 59, 37
1, 117842, Note_on_c, 0, 78, 0
1, 117848, Note_on_c, 0, 64, 0
1, 117848, Note_on_c, 0, 81, 0
1, 117860, Note_on_c, 0, 59, 0
1, 117986, Note_on_c, 0, 79, 70
1, 117989, Note_on_c, 0, 76, 38
1, 118008, Note_on_c, 0, 64, 42
1, 118014, Note_on_c, 0, 59, 39
1, 118036, Note_on_c, 0, 79, 0
1, 118046, Note_on_c, 0, 76, 0
1, 118062, Note_on_c, 0, 64, 0
1, 118068, Note_on_c, 0, 59, 0
1, 118174, Note_on_c, 0, 78, 70
1, 118184, Note_on_c, 0, 81, 68
1, 118186, Note_on_c, 0, 64, 35
1, 118200, Note_on_c, 0, 59, 39
1, 118228, Note_on_c, 0, 78, 0
1, 118228, Note_on_c, 0, 81, 0
1, 118248, Note_on_c, 0, 64, 0
1, 118252, Note_on_c, 0, 59, 0
1, 118336, Note_on_c, 0, 79, 79
1, 118368, Note_on_c, 0, 81, 75
1, 118384, Note_on_c, 0, 52, 76
1, 118418, Note_on_c, 0, 83, 92
1, 118430, Note_on_c, 0, 81, 0
1, 118432, Note_on_c, 0, 52, 0
1, 118448, Note_on_c, 0, 79, 0
1, 118474, Note_on_c, 0, 83, 0
1, 118580, Note_on_c, 0, 81, 68
1, 118582, Note_on_c, 0, 78, 62
1, 118588, Note_on_c, 0, 64, 52
1, 118608, Note_on_c, 0, 59, 50
1, 118632, Note_on_c, 0, 78, 0
1, 118636, Note_on_c, 0, 64, 0
1, 118640, Note_on_c, 0, 81, 0
1, 118654, Note_on_c, 0, 59, 0
1, 118784, Note_on_c, 0, 79, 68
1, 118790, Note_on_c, 0, 47, 66
1, 118792, Note_on_c, 0, 76, 49
1, 118826, Note_on_c, 0, 79, 0
1, 118832, Note_on_c, 0, 47, 0
1, 118844, Note_on_c, 0, 76, 0
1, 118984, Note_on_c, 0, 75, 47
1, 118986, Note_on_c, 0, 78, 56
1, 119006, Note_on_c, 0, 59, 33
1, 119038, Note_on_c, 0, 75, 0
1, 119054, Note_on_c, 0, 78, 0
1, 119064, Note_on_c, 0, 59, 0
1, 119214, Note_on_c, 0, 76, 46
1, 119240, Note_on_c, 0, 52, 41
1, 119496, Note_on_c, 0, 76, 0
1, 119512, Note_on_c, 0, 52, 0
1, 119648, Note_on_c, 0, 72, 44
1, 119650, Note_on_c, 0, 76, 54
1, 119702, Note_on_c, 0, 76, 0
1, 119707, Note_on_c, 0, 72, 0
1, 119844, Note_on_c, 0, 74, 70
1, 119846, Note_on_c, 0, 77, 70
1, 119884, Note_on_c, 0, 74, 0
1, 119922, Note_on_c, 0, 77, 0
1, 120046, Note_on_c, 0, 79, 91
1, 120052, Note_on_c, 0, 76, 69
1, 120060, Note_on_c, 0, 48, 74
1, 120098, Note_on_c, 0, 76, 0
1, 120138, Note_on_c, 0, 79, 0
1, 120146, Note_on_c, 0, 48, 0
1, 120248, Note_on_c, 0, 76, 69
1, 120250, Note_on_c, 0, 60, 58
1, 120258, Note_on_c, 0, 79, 81
1, 120304, Note_on_c, 0, 79, 0
1, 120318, Note_on_c, 0, 76, 0
1, 120320, Note_on_c, 0, 60, 0
1, 120454, Note_on_c, 0, 81, 81
1, 120462, Note_on_c, 0, 52, 75
1, 120508, Note_on_c, 0, 52, 0
1, 120538, Note_on_c, 0, 79, 81
1, 120564, Note_on_c, 0, 81, 0
1, 120638, Note_on_c, 0, 77, 66
1, 120650, Note_on_c, 0, 64, 52
1, 120672, Note_on_c, 0, 79, 0
1, 120702, Note_on_c, 0, 64, 0
1, 120707, Note_on_c, 0, 77, 0
1, 120718, Note_on_c, 0, 76, 62
1, 120768, Note_on_c, 0, 76, 0
1, 120846, Note_on_c, 0, 74, 87
1, 120850, Note_on_c, 0, 71, 76
1, 120854, Note_on_c, 0, 55, 68
1, 121000, Note_on_c, 0, 74, 0
1, 121034, Note_on_c, 0, 71, 0
1, 121046, Note_on_c, 0, 55, 0
1, 121048, Note_on_c, 0, 67, 72
1, 121096, Note_on_c, 0, 67, 0
1, 121248, Note_on_c, 0, 72, 73
1, 121250, Note_on_c, 0, 76, 74
1, 121304, Note_on_c, 0, 76, 0
1, 121310, Note_on_c, 0, 72, 0
1, 121452, Note_on_c, 0, 77, 86
1, 121460, Note_on_c, 0, 74, 75
1, 121498, Note_on_c, 0, 74, 0
1, 121566, Note_on_c, 0, 77, 0
1, 121654, Note_on_c, 0, 79, 94
1, 121660, Note_on_c, 0, 76, 69
1, 121664, Note_on_c, 0, 48, 69
1, 121708, Note_on_c, 0, 76, 0
1, 121716, Note_on_c, 0, 48, 0
1, 121720, Note_on_c, 0, 79, 0
1, 121866, Note_on_c, 0, 76, 59
1, 121866, Note_on_c, 0, 60, 50
1, 121866, Note_on_c, 0, 79, 75
1, 121910, Note_on_c, 0, 79, 0
1, 121920, Note_on_c, 0, 76, 0
1, 121923, Note_on_c, 0, 60, 0
1, 122056, Note_on_c, 0, 81, 57
1, 122056, Note_on_c, 0, 52, 54
1, 122116, Note_on_c, 0, 52, 0
1, 122122, Note_on_c, 0, 81, 0
1, 122148, Note_on_c, 0, 79, 44
1, 122218, Note_on_c, 0, 79, 0
1, 122242, Note_on_c, 0, 77, 49
1, 122292, Note_on_c, 0, 77, 0
1, 122330, Note_on_c, 0, 76, 48
1, 122386, Note_on_c, 0, 76, 0
1, 122472, Note_on_c, 0, 55, 26
1, 122474, Note_on_c, 0, 71, 28
1, 122482, Note_on_c, 0, 74, 35
1, 122720, Note_on_c, 0, 55, 0
1, 122740, Note_on_c, 0, 71, 0
1, 122746, Note_on_c, 0, 74, 0
1, 122884, Note_on_c, 0, 69, 37
1, 122892, Note_on_c, 0, 72, 36
1, 122950, Note_on_c, 0, 69, 0
1, 122953, Note_on_c, 0, 72, 0
1, 123086, Note_on_c, 0, 74, 68
1, 123104, Note_on_c, 0, 71, 44
1, 123140, Note_on_c, 0, 74, 0
1, 123166, Note_on_c, 0, 71, 0
1, 123276, Note_on_c, 0, 45, 57
1, 123284, Note_on_c, 0, 76, 69
1, 123284, Note_on_c, 0, 72, 65
1, 123336, Note_on_c, 0, 72, 0
1, 123338, Note_on_c, 0, 45, 0
1, 123348, Note_on_c, 0, 76, 0
1, 123488, Note_on_c, 0, 72, 57
1, 123490, Note_on_c, 0, 76, 63
1, 123492, Note_on_c, 0, 57, 42
1, 123540, Note_on_c, 0, 76, 0
1, 123543, Note_on_c, 0, 72, 0
1, 123550, Note_on_c, 0, 57, 0
1, 123672, Note_on_c, 0, 48, 52
1, 123688, Note_on_c, 0, 77, 58
1, 123728, Note_on_c, 0, 48, 0
1, 123764, Note_on_c, 0, 77, 0
1, 123790, Note_on_c, 0, 76, 31
1, 123870, Note_on_c, 0, 76, 0
1, 123872, Note_on_c, 0, 74, 55
1, 123882, Note_on_c, 0, 60, 38
1, 123918, Note_on_c, 0, 74, 0
1, 123950, Note_on_c, 0, 60, 0
1, 123962, Note_on_c, 0, 72, 48
1, 124014, Note_on_c, 0, 72, 0
1, 124078, Note_on_c, 0, 68, 49
1, 124094, Note_on_c, 0, 71, 46
1, 124104, Note_on_c, 0, 52, 44
1, 124246, Note_on_c, 0, 68, 0
1, 124270, Note_on_c, 0, 52, 0
1, 124296, Note_on_c, 0, 64, 66
1, 124340, Note_on_c, 0, 64, 0
1, 124374, Note_on_c, 0, 71, 0
1, 124488, Note_on_c, 0, 69, 64
1, 124496, Note_on_c, 0, 72, 63
1, 124548, Note_on_c, 0, 69, 0
1, 124550, Note_on_c, 0, 72, 0
1, 124700, Note_on_c, 0, 71, 78
1, 124704, Note_on_c, 0, 74, 72
1, 124740, Note_on_c, 0, 71, 0
1, 124748, Note_on_c, 0, 74, 0
1, 124900, Note_on_c, 0, 76, 69
1, 124902, Note_on_c, 0, 72, 62
1, 124908, Note_on_c, 0, 45, 42
1, 124952, Note_on_c, 0, 72, 0
1, 124960, Note_on_c, 0, 76, 0
1, 124972, Note_on_c, 0, 45, 0
1, 125106, Note_on_c, 0, 72, 59
1, 125112, Note_on_c, 0, 76, 51
1, 125116, Note_on_c, 0, 57, 42
1, 125160, Note_on_c, 0, 72, 0
1, 125160, Note_on_c, 0, 76, 0
1, 125174, Note_on_c, 0, 57, 0
1, 125300, Note_on_c, 0, 48, 45
1, 125316, Note_on_c, 0, 77, 54
1, 125358, Note_on_c, 0, 48, 0
1, 125384, Note_on_c, 0, 77, 0
1, 125446, Note_on_c, 0, 76, 26
1, 125516, Note_on_c, 0, 76, 0
1, 125516, Note_on_c, 0, 60, 36
1, 125530, Note_on_c, 0, 74, 49
1, 125578, Note_on_c, 0, 74, 0
1, 125580, Note_on_c, 0, 60, 0
1, 125620, Note_on_c, 0, 72, 44
1, 125686, Note_on_c, 0, 72, 0
1, 125784, Note_on_c, 0, 68, 22
1, 125798, Note_on_c, 0, 71, 14
1, 125802, Note_on_c, 0, 52, 33
1, 126114, Note_on_c, 0, 68, 0
1, 126134, Note_on_c, 0, 52, 0
1, 126142, Note_on_c, 0, 71, 0
1, 126328, Note_on_c, 0, 71, 46
1, 126400, Note_on_c, 0, 71, 0
1, 126430, Note_on_c, 0, 69, 34
1, 126508, Note_on_c, 0, 69, 0
1, 126528, Note_on_c, 0, 68, 49
1, 126608, Note_on_c, 0, 68, 0
1, 126630, Note_on_c, 0, 69, 35
1, 126722, Note_on_c, 0, 69, 0
1, 126752, Note_on_c, 0, 72, 55
1, 126760, Note_on_c, 0, 57, 29
1, 126860, Note_on_c, 0, 57, 0
1, 126936, Note_on_c, 0, 72, 0
1, 126952, Note_on_c, 0, 60, 36
1, 126955, Note_on_c, 0, 64, 29
1, 127012, Note_on_c, 0, 60, 0
1, 127014, Note_on_c, 0, 64, 0
1, 127166, Note_on_c, 0, 74, 52
1, 127176, Note_on_c, 0, 64, 32
1, 127206, Note_on_c, 0, 60, 17
1, 127232, Note_on_c, 0, 64, 0
1, 127250, Note_on_c, 0, 74, 0
1, 127256, Note_on_c, 0, 72, 49
1, 127266, Note_on_c, 0, 60, 0
1, 127324, Note_on_c, 0, 72, 0
1, 127358, Note_on_c, 0, 71, 66
1, 127361, Note_on_c, 0, 60, 38
1, 127370, Note_on_c, 0, 64, 32
1, 127408, Note_on_c, 0, 71, 0
1, 127424, Note_on_c, 0, 60, 0
1, 127434, Note_on_c, 0, 64, 0
1, 127454, Note_on_c, 0, 72, 70
1, 127566, Note_on_c, 0, 72, 0
1, 127578, Note_on_c, 0, 76, 69
1, 127580, Note_on_c, 0, 57, 52
1, 127656, Note_on_c, 0, 57, 0
1, 127728, Note_on_c, 0, 76, 0
1, 127769, Note_on_c, 0, 64, 57
1, 127788, Note_on_c, 0, 60, 42
1, 127826, Note_on_c, 0, 64, 0
1, 127846, Note_on_c, 0, 60, 0
1, 127980, Note_on_c, 0, 77, 78
1, 127986, Note_on_c, 0, 64, 52
1, 128010, Note_on_c, 0, 60, 37
1, 128040, Note_on_c, 0, 64, 0
1, 128066, Note_on_c, 0, 76, 67
1, 128074, Note_on_c, 0, 60, 0
1, 128108, Note_on_c, 0, 77, 0
1, 128158, Note_on_c, 0, 76, 0
1, 128164, Note_on_c, 0, 75, 73
1, 128170, Note_on_c, 0, 60, 37
1, 128202, Note_on_c, 0, 64, 31
1, 128232, Note_on_c, 0, 75, 0
1, 128238, Note_on_c, 0, 60, 0
1, 128260, Note_on_c, 0, 64, 0
1, 128262, Note_on_c, 0, 76, 65
1, 128358, Note_on_c, 0, 76, 0
1, 128374, Note_on_c, 0, 57, 56
1, 128382, Note_on_c, 0, 83, 104
1, 128426, Note_on_c, 0, 57, 0
1, 128476, Note_on_c, 0, 81, 74
1, 128500, Note_on_c, 0, 83, 0
1, 128570, Note_on_c, 0, 80, 77
1, 128574, Note_on_c, 0, 64, 57
1, 128584, Note_on_c, 0, 60, 54
1, 128594, Note_on_c, 0, 81, 0
1, 128624, Note_on_c, 0, 64, 0
1, 128636, Note_on_c, 0, 60, 0
1, 128680, Note_on_c, 0, 81, 67
1, 128708, Note_on_c, 0, 80, 0
1, 128782, Note_on_c, 0, 83, 95
1, 128788, Note_on_c, 0, 81, 0
1, 128792, Note_on_c, 0, 57, 50
1, 128844, Note_on_c, 0, 57, 0
1, 128876, Note_on_c, 0, 81, 69
1, 128924, Note_on_c, 0, 83, 0
1, 128980, Note_on_c, 0, 80, 78
1, 128984, Note_on_c, 0, 81, 0
1, 128984, Note_on_c, 0, 64, 45
1, 128988, Note_on_c, 0, 60, 46
1, 129036, Note_on_c, 0, 64, 0
1, 129048, Note_on_c, 0, 60, 0
1, 129072, Note_on_c, 0, 81, 67
1, 129098, Note_on_c, 0, 80, 0
1, 129194, Note_on_c, 0, 53, 87
1, 129204, Note_on_c, 0, 81, 0
1, 129206, Note_on_c, 0, 84, 56
1, 129356, Note_on_c, 0, 53, 0
1, 129416, Note_on_c, 0, 63, 47
1, 129424, Note_on_c, 0, 57, 40
1, 129482, Note_on_c, 0, 63, 0
1, 129488, Note_on_c, 0, 57, 0
1, 129620, Note_on_c, 0, 81, 84
1, 129632, Note_on_c, 0, 63, 72
1, 129652, Note_on_c, 0, 57, 48
1, 129678, Note_on_c, 0, 84, 0
1, 129694, Note_on_c, 0, 63, 0
1, 129708, Note_on_c, 0, 57, 0
1, 129728, Note_on_c, 0, 81, 0
1, 129816, Note_on_c, 0, 83, 110
1, 129826, Note_on_c, 0, 63, 64
1, 129834, Note_on_c, 0, 57, 34
1, 129894, Note_on_c, 0, 63, 0
1, 129902, Note_on_c, 0, 57, 0
1, 129904, Note_on_c, 0, 83, 0
1, 129948, Note_on_c, 0, 81, 73
1, 130008, Note_on_c, 0, 83, 96
1, 130048, Note_on_c, 0, 52, 76
1, 130052, Note_on_c, 0, 84, 97
1, 130092, Note_on_c, 0, 81, 0
1, 130098, Note_on_c, 0, 52, 0
1, 130106, Note_on_c, 0, 83, 0
1, 130168, Note_on_c, 0, 84, 0
1, 130244, Note_on_c, 0, 64, 61
1, 130252, Note_on_c, 0, 83, 105
1, 130270, Note_on_c, 0, 57, 46
1, 130292, Note_on_c, 0, 64, 0
1, 130324, Note_on_c, 0, 57, 0
1, 130372, Note_on_c, 0, 83, 0
1, 130454, Note_on_c, 0, 81, 83
1, 130458, Note_on_c, 0, 50, 62
1, 130510, Note_on_c, 0, 50, 0
1, 130540, Note_on_c, 0, 81, 0
1, 130646, Note_on_c, 0, 80, 79
1, 130649, Note_on_c, 0, 59, 55
1, 130684, Note_on_c, 0, 53, 52
1, 130702, Note_on_c, 0, 59, 0
1, 130740, Note_on_c, 0, 53, 0
1, 130746, Note_on_c, 0, 80, 0
1, 130862, Note_on_c, 0, 81, 74
1, 130862, Note_on_c, 0, 48, 58
1, 130918, Note_on_c, 0, 48, 0
1, 130944, Note_on_c, 0, 81, 0
1, 131054, Note_on_c, 0, 76, 67
1, 131057, Note_on_c, 0, 57, 46
1, 131102, Note_on_c, 0, 52, 14
1, 131112, Note_on_c, 0, 76, 0
1, 131136, Note_on_c, 0, 57, 0
1, 131154, Note_on_c, 0, 52, 0
1, 131258, Note_on_c, 0, 50, 54
1, 131274, Note_on_c, 0, 77, 55
1, 131316, Note_on_c, 0, 50, 0
1, 131322, Note_on_c, 0, 77, 0
1, 131444, Note_on_c, 0, 59, 54
1, 131462, Note_on_c, 0, 74, 63
1, 131474, Note_on_c, 0, 53, 50
1, 131496, Note_on_c, 0, 59, 0
1, 131506, Note_on_c, 0, 74, 0
1, 131530, Note_on_c, 0, 53, 0
1, 131664, Note_on_c, 0, 57, 57
1, 131668, Note_on_c, 0, 72, 59
1, 131688, Note_on_c, 0, 52, 48
1, 131724, Note_on_c, 0, 57, 0
1, 131738, Note_on_c, 0, 52, 0
1, 131876, Note_on_c, 0, 57, 57
1, 131934, Note_on_c, 0, 52, 20
1, 131936, Note_on_c, 0, 72, 0
1, 131944, Note_on_c, 0, 57, 0
1, 131990, Note_on_c, 0, 52, 0
1, 132062, Note_on_c, 0, 72, 44
1, 132076, Note_on_c, 0, 52, 61
1, 132078, Note_on_c, 0, 56, 65
1, 132112, Note_on_c, 0, 71, 61
1, 132114, Note_on_c, 0, 72, 0
1, 132132, Note_on_c, 0, 52, 0
1, 132148, Note_on_c, 0, 56, 0
1, 132160, Note_on_c, 0, 71, 0
1, 132172, Note_on_c, 0, 72, 72
1, 132242, Note_on_c, 0, 72, 0
1, 132242, Note_on_c, 0, 71, 43
1, 132298, Note_on_c, 0, 56, 43
1, 132306, Note_on_c, 0, 71, 0
1, 132309, Note_on_c, 0, 52, 46
1, 132328, Note_on_c, 0, 72, 42
1, 132358, Note_on_c, 0, 56, 0
1, 132362, Note_on_c, 0, 52, 0
1, 132386, Note_on_c, 0, 72, 0
1, 132386, Note_on_c, 0, 71, 47
1, 132426, Note_on_c, 0, 69, 55
1, 132448, Note_on_c, 0, 71, 0
1, 132482, Note_on_c, 0, 69, 0
1, 132516, Note_on_c, 0, 71, 75
1, 132558, Note_on_c, 0, 71, 0
1, 132584, Note_on_c, 0, 45, 59
1, 132587, Note_on_c, 0, 57, 57
1, 132596, Note_on_c, 0, 69, 72
1, 132630, Note_on_c, 0, 45, 0
1, 132640, Note_on_c, 0, 57, 0
1, 132980, Note_on_c, 0, 69, 0
1, 133060, Note_on_c, 0, 69, 59
1, 133174, Note_on_c, 0, 69, 0
1, 133184, Note_on_c, 0, 81, 67
1, 133278, Note_on_c, 0, 81, 0
1, 133290, Note_on_c, 0, 71, 85
1, 133390, Note_on_c, 0, 71, 0
1, 133393, Note_on_c, 0, 83, 91
1, 133442, Note_on_c, 0, 83, 0
1, 133476, Note_on_c, 0, 45, 60
1, 133502, Note_on_c, 0, 49, 61
1, 133536, Note_on_c, 0, 73, 90
1, 133552, Note_on_c, 0, 52, 68
1, 133586, Note_on_c, 0, 57, 69
1, 133648, Note_on_c, 0, 45, 0
1, 133666, Note_on_c, 0, 85, 87
1, 133690, Note_on_c, 0, 49, 0
1, 133712, Note_on_c, 0, 52, 0
1, 133728, Note_on_c, 0, 57, 0
1, 133774, Note_on_c, 0, 73, 0
1, 133790, Note_on_c, 0, 85, 0
1, 133824, Note_on_c, 0, 57, 48
1, 133936, Note_on_c, 0, 57, 0
1, 134003, Note_on_c, 0, 69, 75
1, 134016, Note_on_c, 0, 57, 53
1, 134098, Note_on_c, 0, 81, 83
1, 134112, Note_on_c, 0, 69, 0
1, 134114, Note_on_c, 0, 57, 0
1, 134194, Note_on_c, 0, 81, 0
1, 134218, Note_on_c, 0, 71, 96
1, 134224, Note_on_c, 0, 57, 50
1, 134282, Note_on_c, 0, 57, 0
1, 134302, Note_on_c, 0, 83, 104
1, 134322, Note_on_c, 0, 71, 0
1, 134382, Note_on_c, 0, 83, 0
1, 134382, Note_on_c, 0, 45, 52
1, 134388, Note_on_c, 0, 49, 62
1, 134424, Note_on_c, 0, 52, 71
1, 134438, Note_on_c, 0, 73, 94
1, 134472, Note_on_c, 0, 57, 85
1, 134498, Note_on_c, 0, 45, 0
1, 134518, Note_on_c, 0, 49, 0
1, 134518, Note_on_c, 0, 85, 75
1, 134532, Note_on_c, 0, 52, 0
1, 134564, Note_on_c, 0, 57, 0
1, 134567, Note_on_c, 0, 73, 0
1, 134640, Note_on_c, 0, 85, 0
1, 134662, Note_on_c, 0, 71, 88
1, 134662, Note_on_c, 0, 57, 47
1, 134744, Note_on_c, 0, 83, 101
1, 134752, Note_on_c, 0, 57, 0
1, 134756, Note_on_c, 0, 71, 0
1, 134834, Note_on_c, 0, 83, 0
1, 134876, Note_on_c, 0, 69, 67
1, 134890, Note_on_c, 0, 57, 61
1, 134930, Note_on_c, 0, 81, 83
1, 134964, Note_on_c, 0, 69, 0
1, 134972, Note_on_c, 0, 57, 0
1, 135012, Note_on_c, 0, 81, 0
1, 135072, Note_on_c, 0, 68, 83
1, 135086, Note_on_c, 0, 57, 57
1, 135130, Note_on_c, 0, 57, 0
1, 135154, Note_on_c, 0, 80, 84
1, 135174, Note_on_c, 0, 68, 0
1, 135228, Note_on_c, 0, 80, 0
1, 135274, Note_on_c, 0, 66, 84
1, 135282, Note_on_c, 0, 42, 79
1, 135286, Note_on_c, 0, 38, 55
1, 135306, Note_on_c, 0, 45, 50
1, 135328, Note_on_c, 0, 50, 89
1, 135334, Note_on_c, 0, 38, 0
1, 135356, Note_on_c, 0, 78, 82
1, 135360, Note_on_c, 0, 45, 0
1, 135368, Note_on_c, 0, 66, 0
1, 135378, Note_on_c, 0, 50, 0
1, 135386, Note_on_c, 0, 42, 0
1, 135450, Note_on_c, 0, 78, 0
1, 135480, Note_on_c, 0, 68, 76
1, 135510, Note_on_c, 0, 50, 76
1, 135556, Note_on_c, 0, 80, 75
1, 135588, Note_on_c, 0, 50, 0
1, 135606, Note_on_c, 0, 68, 0
1, 135664, Note_on_c, 0, 39, 65
1, 135686, Note_on_c, 0, 45, 42
1, 135688, Note_on_c, 0, 80, 0
1, 135690, Note_on_c, 0, 42, 53
1, 135706, Note_on_c, 0, 69, 82
1, 135710, Note_on_c, 0, 39, 0
1, 135732, Note_on_c, 0, 51, 91
1, 135742, Note_on_c, 0, 42, 0
1, 135762, Note_on_c, 0, 45, 0
1, 135804, Note_on_c, 0, 81, 82
1, 135810, Note_on_c, 0, 69, 0
1, 135832, Note_on_c, 0, 51, 0
1, 135874, Note_on_c, 0, 81, 0
1, 135902, Note_on_c, 0, 51, 73
1, 135916, Note_on_c, 0, 71, 93
1, 135978, Note_on_c, 0, 83, 101
1, 136000, Note_on_c, 0, 51, 0
1, 136014, Note_on_c, 0, 71, 0
1, 136018, Note_on_c, 0, 83, 0
1, 136064, Note_on_c, 0, 40, 89
1, 136080, Note_on_c, 0, 44, 67
1, 136118, Note_on_c, 0, 47, 49
1, 136126, Note_on_c, 0, 68, 88
1, 136164, Note_on_c, 0, 40, 0
1, 136166, Note_on_c, 0, 52, 89
1, 136180, Note_on_c, 0, 47, 0
1, 136200, Note_on_c, 0, 80, 74
1, 136208, Note_on_c, 0, 44, 0
1, 136216, Note_on_c, 0, 52, 0
1, 136236, Note_on_c, 0, 68, 0
1, 136250, Note_on_c, 0, 80, 0
1, 136336, Note_on_c, 0, 52, 72
1, 136354, Note_on_c, 0, 64, 83
1, 136406, Note_on_c, 0, 64, 0
1, 136424, Note_on_c, 0, 52, 0
1, 136426, Note_on_c, 0, 76, 72
1, 136462, Note_on_c, 0, 76, 0
1, 136550, Note_on_c, 0, 52, 71
1, 136556, Note_on_c, 0, 69, 85
1, 136598, Note_on_c, 0, 52, 0
1, 136644, Note_on_c, 0, 81, 83
1, 136652, Note_on_c, 0, 69, 0
1, 136730, Note_on_c, 0, 81, 0
1, 136752, Note_on_c, 0, 52, 88
1, 136755, Note_on_c, 0, 71, 94
1, 136786, Note_on_c, 0, 52, 0
1, 136822, Note_on_c, 0, 83, 106
1, 136828, Note_on_c, 0, 71, 0
1, 136904, Note_on_c, 0, 83, 0
1, 136916, Note_on_c, 0, 45, 71
1, 136922, Note_on_c, 0, 49, 81
1, 136970, Note_on_c, 0, 52, 62
1, 136976, Note_on_c, 0, 45, 0
1, 137000, Note_on_c, 0, 73, 97
1, 137020, Note_on_c, 0, 57, 88
1, 137036, Note_on_c, 0, 49, 0
1, 137066, Note_on_c, 0, 52, 0
1, 137092, Note_on_c, 0, 85, 100
1, 137116, Note_on_c, 0, 57, 0
1, 137178, Note_on_c, 0, 73, 0
1, 137188, Note_on_c, 0, 85, 0
1, 137224, Note_on_c, 0, 57, 59
1, 137292, Note_on_c, 0, 57, 0
1, 137432, Note_on_c, 0, 69, 81
1, 137435, Note_on_c, 0, 57, 78
1, 137530, Note_on_c, 0, 57, 0
1, 137536, Note_on_c, 0, 81, 84
1, 137544, Note_on_c, 0, 69, 0
1, 137586, Note_on_c, 0, 81, 0
1, 137642, Note_on_c, 0, 57, 63
1, 137645, Note_on_c, 0, 71, 94
1, 137694, Note_on_c, 0, 57, 0
1, 137728, Note_on_c, 0, 71, 0
1, 137731, Note_on_c, 0, 83, 106
1, 137778, Note_on_c, 0, 83, 0
1, 137818, Note_on_c, 0, 45, 70
1, 137830, Note_on_c, 0, 49, 64
1, 137858, Note_on_c, 0, 52, 71
1, 137858, Note_on_c, 0, 73, 96
1, 137890, Note_on_c, 0, 57, 84
1, 137902, Note_on_c, 0, 45, 0
1, 137904, Note_on_c, 0, 52, 0
1, 137908, Note_on_c, 0, 49, 0
1, 137950, Note_on_c, 0, 85, 82
1, 137960, Note_on_c, 0, 73, 0
1, 137976, Note_on_c, 0, 57, 0
1, 138052, Note_on_c, 0, 85, 0
1, 138076, Note_on_c, 0, 57, 53
1, 138076, Note_on_c, 0, 71, 84
1, 138138, Note_on_c, 0, 57, 0
1, 138162, Note_on_c, 0, 83, 102
1, 138180, Note_on_c, 0, 71, 0
1, 138202, Note_on_c, 0, 83, 0
1, 138256, Note_on_c, 0, 57, 49
1, 138274, Note_on_c, 0, 69, 63
1, 138328, Note_on_c, 0, 81, 85
1, 138344, Note_on_c, 0, 57, 0
1, 138382, Note_on_c, 0, 69, 0
1, 138398, Note_on_c, 0, 81, 0
1, 138454, Note_on_c, 0, 57, 56
1, 138470, Note_on_c, 0, 68, 76
1, 138500, Note_on_c, 0, 57, 0
1, 138548, Note_on_c, 0, 80, 57
1, 138582, Note_on_c, 0, 68, 0
1, 138616, Note_on_c, 0, 80, 0
1, 138648, Note_on_c, 0, 42, 72
1, 138654, Note_on_c, 0, 38, 44
1, 138662, Note_on_c, 0, 66, 82
1, 138706, Note_on_c, 0, 50, 83
1, 138709, Note_on_c, 0, 38, 0
1, 138728, Note_on_c, 0, 42, 0
1, 138738, Note_on_c, 0, 78, 68
1, 138760, Note_on_c, 0, 50, 0
1, 138768, Note_on_c, 0, 66, 0
1, 138782, Note_on_c, 0, 78, 0
1, 138856, Note_on_c, 0, 50, 68
1, 138866, Note_on_c, 0, 71, 95
1, 138936, Note_on_c, 0, 83, 100
1, 138954, Note_on_c, 0, 71, 0
1, 138958, Note_on_c, 0, 50, 0
1, 138976, Note_on_c, 0, 83, 0
1, 139010, Note_on_c, 0, 40, 86
1, 139028, Note_on_c, 0, 44, 57
1, 139052, Note_on_c, 0, 47, 34
1, 139056, Note_on_c, 0, 40, 0
1, 139072, Note_on_c, 0, 68, 86
1, 139092, Note_on_c, 0, 52, 87
1, 139110, Note_on_c, 0, 47, 0
1, 139118, Note_on_c, 0, 44, 0
1, 139136, Note_on_c, 0, 52, 0
1, 139140, Note_on_c, 0, 80, 80
1, 139182, Note_on_c, 0, 80, 0
1, 139190, Note_on_c, 0, 68, 0
1, 139264, Note_on_c, 0, 52, 72
1, 139276, Note_on_c, 0, 64, 85
1, 139312, Note_on_c, 0, 52, 0
1, 139312, Note_on_c, 0, 64, 0
1, 139318, Note_on_c, 0, 76, 66
1, 139358, Note_on_c, 0, 76, 0
1, 139386, Note_on_c, 0, 45, 80
1, 139418, Note_on_c, 0, 49, 72
1, 139458, Note_on_c, 0, 52, 68
1, 139516, Note_on_c, 0, 57, 86
1, 139518, Note_on_c, 0, 81, 98
1, 139524, Note_on_c, 0, 69, 79
1, 139532, Note_on_c, 0, 45, 0
1, 139550, Note_on_c, 0, 49, 0
1, 139550, Note_on_c, 0, 81, 0
1, 139562, Note_on_c, 0, 52, 0
1, 139564, Note_on_c, 0, 69, 0
1, 139622, Note_on_c, 0, 57, 0
1, 139728, Note_on_c, 0, 57, 47
1, 139802, Note_on_c, 0, 57, 0
1, 139928, Note_on_c, 0, 85, 103
1, 139931, Note_on_c, 0, 73, 93
1, 139944, Note_on_c, 0, 57, 82
1, 139970, Note_on_c, 0, 73, 0
1, 139986, Note_on_c, 0, 57, 0
1, 139998, Note_on_c, 0, 85, 0
1, 140156, Note_on_c, 0, 57, 65
1, 140245, Note_on_c, 0, 57, 0
1, 140260, Note_on_c, 0, 85, 86
1, 140263, Note_on_c, 0, 73, 73
1, 140314, Note_on_c, 0, 85, 0
1, 140314, Note_on_c, 0, 73, 0
1, 140314, Note_on_c, 0, 45, 55
1, 140346, Note_on_c, 0, 49, 53
1, 140390, Note_on_c, 0, 73, 72
1, 140394, Note_on_c, 0, 52, 53
1, 140396, Note_on_c, 0, 85, 94
1, 140404, Note_on_c, 0, 57, 80
1, 140404, Note_on_c, 0, 76, 84
1, 140406, Note_on_c, 0, 81, 84
1, 140434, Note_on_c, 0, 45, 0
1, 140440, Note_on_c, 0, 52, 0
1, 140444, Note_on_c, 0, 49, 0
1, 140504, Note_on_c, 0, 57, 0
1, 140580, Note_on_c, 0, 73, 0
1, 140620, Note_on_c, 0, 57, 31
1, 140684, Note_on_c, 0, 76, 0
1, 140706, Note_on_c, 0, 57, 0
1, 140842, Note_on_c, 0, 57, 57
1, 140898, Note_on_c, 0, 57, 0
1, 140914, Note_on_c, 0, 81, 0
1, 140992, Note_on_c, 0, 85, 0
1, 141054, Note_on_c, 0, 57, 73
1, 141124, Note_on_c, 0, 57, 0
1, 141226, Note_on_c, 0, 45, 55
1, 141244, Note_on_c, 0, 49, 55
1, 141260, Note_on_c, 0, 52, 61
1, 141270, Note_on_c, 0, 85, 99
1, 141270, Note_on_c, 0, 73, 83
1, 141273, Note_on_c, 0, 81, 86
1, 141284, Note_on_c, 0, 76, 69
1, 141287, Note_on_c, 0, 45, 0
1, 141287, Note_on_c, 0, 57, 85
1, 141304, Note_on_c, 0, 52, 0
1, 141310, Note_on_c, 0, 49, 0
1, 141388, Note_on_c, 0, 57, 0
1, 141442, Note_on_c, 0, 73, 0
1, 141504, Note_on_c, 0, 57, 36
1, 141556, Note_on_c, 0, 76, 0
1, 141574, Note_on_c, 0, 57, 0
1, 141688, Note_on_c, 0, 81, 0
1, 141722, Note_on_c, 0, 57, 65
1, 141794, Note_on_c, 0, 57, 0
1, 141848, Note_on_c, 0, 85, 0
1, 141934, Note_on_c, 0, 57, 57
1, 141990, Note_on_c, 0, 57, 0
1, 142098, Note_on_c, 0, 45, 67
1, 142120, Note_on_c, 0, 49, 53
1, 142146, Note_on_c, 0, 52, 69
1, 142149, Note_on_c, 0, 86, 100
1, 142176, Note_on_c, 0, 57, 88
1, 142180, Note_on_c, 0, 45, 0
1, 142184, Note_on_c, 0, 49, 0
1, 142192, Note_on_c, 0, 52, 0
1, 142266, Note_on_c, 0, 85, 75
1, 142284, Note_on_c, 0, 57, 0
1, 142340, Note_on_c, 0, 86, 0
1, 142346, Note_on_c, 0, 57, 60
1, 142352, Note_on_c, 0, 83, 101
1, 142390, Note_on_c, 0, 85, 0
1, 142446, Note_on_c, 0, 57, 0
1, 142460, Note_on_c, 0, 85, 67
1, 142494, Note_on_c, 0, 83, 0
1, 142566, Note_on_c, 0, 86, 87
1, 142569, Note_on_c, 0, 57, 56
1, 142594, Note_on_c, 0, 85, 0
1, 142626, Note_on_c, 0, 57, 0
1, 142652, Note_on_c, 0, 85, 72
1, 142752, Note_on_c, 0, 83, 95
1, 142760, Note_on_c, 0, 86, 0
1, 142776, Note_on_c, 0, 57, 63
1, 142802, Note_on_c, 0, 85, 0
1, 142824, Note_on_c, 0, 57, 0
1, 142864, Note_on_c, 0, 85, 74
1, 142942, Note_on_c, 0, 83, 0
1, 142970, Note_on_c, 0, 38, 92
1, 142994, Note_on_c, 0, 42, 79
1, 142997, Note_on_c, 0, 86, 101
1, 143008, Note_on_c, 0, 81, 79
1, 143010, Note_on_c, 0, 78, 78
1, 143016, Note_on_c, 0, 45, 50
1, 143024, Note_on_c, 0, 50, 98
1, 143054, Note_on_c, 0, 38, 0
1, 143072, Note_on_c, 0, 85, 0
1, 143086, Note_on_c, 0, 45, 0
1, 143104, Note_on_c, 0, 42, 0
1, 143144, Note_on_c, 0, 50, 0
1, 143218, Note_on_c, 0, 50, 65
1, 143296, Note_on_c, 0, 50, 0
1, 143442, Note_on_c, 0, 50, 87
1, 143488, Note_on_c, 0, 50, 0
1, 143560, Note_on_c, 0, 81, 0
1, 143590, Note_on_c, 0, 78, 0
1, 143608, Note_on_c, 0, 86, 0
1, 143642, Note_on_c, 0, 50, 78
1, 143690, Note_on_c, 0, 50, 0
1, 143796, Note_on_c, 0, 45, 67
1, 143838, Note_on_c, 0, 49, 66
1, 143840, Note_on_c, 0, 86, 102
1, 143840, Note_on_c, 0, 52, 64
1, 143854, Note_on_c, 0, 76, 93
1, 143862, Note_on_c, 0, 85, 94
1, 143862, Note_on_c, 0, 81, 83
1, 143882, Note_on_c, 0, 57, 82
1, 143900, Note_on_c, 0, 81, 0
1, 143926, Note_on_c, 0, 45, 0
1, 143928, Note_on_c, 0, 86, 0
1, 143946, Note_on_c, 0, 76, 0
1, 143966, Note_on_c, 0, 52, 0
1, 143980, Note_on_c, 0, 49, 0
1, 143992, Note_on_c, 0, 57, 0
1, 143995, Note_on_c, 0, 85, 0
1, 144062, Note_on_c, 0, 86, 94
1, 144064, Note_on_c, 0, 57, 59
1, 144068, Note_on_c, 0, 85, 75
1, 144076, Note_on_c, 0, 76, 76
1, 144082, Note_on_c, 0, 81, 69
1, 144124, Note_on_c, 0, 81, 0
1, 144127, Note_on_c, 0, 76, 0
1, 144138, Note_on_c, 0, 86, 0
1, 144176, Note_on_c, 0, 57, 0
1, 144190, Note_on_c, 0, 85, 0
1, 144262, Note_on_c, 0, 86, 98
1, 144265, Note_on_c, 0, 57, 49
1, 144268, Note_on_c, 0, 85, 76
1, 144274, Note_on_c, 0, 76, 83
1, 144276, Note_on_c, 0, 81, 78
1, 144316, Note_on_c, 0, 81, 0
1, 144328, Note_on_c, 0, 76, 0
1, 144374, Note_on_c, 0, 86, 0
1, 144376, Note_on_c, 0, 57, 0
1, 144392, Note_on_c, 0, 85, 0
1, 144468, Note_on_c, 0, 86, 80
1, 144478, Note_on_c, 0, 57, 64
1, 144482, Note_on_c, 0, 85, 79
1, 144486, Note_on_c, 0, 76, 86
1, 144498, Note_on_c, 0, 81, 68
1, 144524, Note_on_c, 0, 57, 0
1, 144532, Note_on_c, 0, 76, 0
1, 144538, Note_on_c, 0, 81, 0
1, 144568, Note_on_c, 0, 86, 0
1, 144656, Note_on_c, 0, 85, 0
1, 144676, Note_on_c, 0, 40, 98
1, 144688, Note_on_c, 0, 44, 73
1, 144694, Note_on_c, 0, 83, 114
1, 144698, Note_on_c, 0, 80, 81
1, 144702, Note_on_c, 0, 76, 79
1, 144718, Note_on_c, 0, 47, 34
1, 144730, Note_on_c, 0, 40, 0
1, 144730, Note_on_c, 0, 52, 100
1, 144780, Note_on_c, 0, 47, 0
1, 144783, Note_on_c, 0, 44, 0
1, 144834, Note_on_c, 0, 52, 0
1, 144922, Note_on_c, 0, 52, 62
1, 145002, Note_on_c, 0, 52, 0
1, 145086, Note_on_c, 0, 80, 0
1, 145100, Note_on_c, 0, 76, 0
1, 145138, Note_on_c, 0, 52, 95
1, 145184, Note_on_c, 0, 52, 0
1, 145240, Note_on_c, 0, 83, 0
1, 145346, Note_on_c, 0, 88, 97
1, 145356, Note_on_c, 0, 52, 85
1, 145384, Note_on_c, 0, 88, 0
1, 145394, Note_on_c, 0, 52, 0
1, 145550, Note_on_c, 0, 45, 72
1, 145568, Note_on_c, 0, 49, 62
1, 145596, Note_on_c, 0, 73, 73
1, 145604, Note_on_c, 0, 85, 101
1, 145606, Note_on_c, 0, 81, 90
1, 145608, Note_on_c, 0, 45, 0
1, 145610, Note_on_c, 0, 76, 82
1, 145613, Note_on_c, 0, 52, 51
1, 145624, Note_on_c, 0, 57, 84
1, 145627, Note_on_c, 0, 49, 0
1, 145660, Note_on_c, 0, 52, 0
1, 145726, Note_on_c, 0, 57, 0
1, 145752, Note_on_c, 0, 73, 0
1, 145754, Note_on_c, 0, 76, 0
1, 145844, Note_on_c, 0, 57, 44
1, 145902, Note_on_c, 0, 57, 0
1, 145970, Note_on_c, 0, 81, 0
1, 146014, Note_on_c, 0, 85, 0
1, 146054, Note_on_c, 0, 57, 67
1, 146130, Note_on_c, 0, 57, 0
1, 146274, Note_on_c, 0, 57, 70
1, 146322, Note_on_c, 0, 57, 0
1, 146424, Note_on_c, 0, 45, 63
1, 146448, Note_on_c, 0, 49, 64
1, 146482, Note_on_c, 0, 85, 100
1, 146484, Note_on_c, 0, 73, 86
1, 146484, Note_on_c, 0, 52, 61
1, 146490, Note_on_c, 0, 81, 85
1, 146492, Note_on_c, 0, 57, 89
1, 146496, Note_on_c, 0, 76, 71
1, 146512, Note_on_c, 0, 45, 0
1, 146518, Note_on_c, 0, 49, 0
1, 146528, Note_on_c, 0, 52, 0
1, 146586, Note_on_c, 0, 57, 0
1, 146690, Note_on_c, 0, 73, 0
1, 146704, Note_on_c, 0, 57, 44
1, 146768, Note_on_c, 0, 57, 0
1, 146826, Note_on_c, 0, 76, 0
1, 146934, Note_on_c, 0, 57, 72
1, 146992, Note_on_c, 0, 81, 0
1, 146992, Note_on_c, 0, 57, 0
1, 147092, Note_on_c, 0, 85, 0
1, 147146, Note_on_c, 0, 57, 68
1, 147212, Note_on_c, 0, 57, 0
1, 147300, Note_on_c, 0, 45, 68
1, 147330, Note_on_c, 0, 49, 68
1, 147358, Note_on_c, 0, 52, 71
1, 147376, Note_on_c, 0, 86, 105
1, 147408, Note_on_c, 0, 57, 80
1, 147420, Note_on_c, 0, 45, 0
1, 147434, Note_on_c, 0, 52, 0
1, 147452, Note_on_c, 0, 49, 0
1, 147490, Note_on_c, 0, 85, 86
1, 147532, Note_on_c, 0, 57, 0
1, 147568, Note_on_c, 0, 86, 0
1, 147584, Note_on_c, 0, 83, 97
1, 147596, Note_on_c, 0, 57, 70
1, 147612, Note_on_c, 0, 85, 0
1, 147684, Note_on_c, 0, 85, 63
1, 147686, Note_on_c, 0, 57, 0
1, 147726, Note_on_c, 0, 83, 0
1, 147776, Note_on_c, 0, 57, 63
1, 147786, Note_on_c, 0, 86, 91
1, 147808, Note_on_c, 0, 85, 0
1, 147873, Note_on_c, 0, 85, 66
1, 147884, Note_on_c, 0, 57, 0
1, 147956, Note_on_c, 0, 83, 98
1, 147972, Note_on_c, 0, 57, 55
1, 147978, Note_on_c, 0, 86, 0
1, 148006, Note_on_c, 0, 85, 0
1, 148016, Note_on_c, 0, 57, 0
1, 148074, Note_on_c, 0, 85, 72
1, 148126, Note_on_c, 0, 83, 0
1, 148168, Note_on_c, 0, 38, 92
1, 148190, Note_on_c, 0, 86, 105
1, 148190, Note_on_c, 0, 42, 68
1, 148196, Note_on_c, 0, 78, 85
1, 148208, Note_on_c, 0, 38, 0
1, 148208, Note_on_c, 0, 45, 48
1, 148208, Note_on_c, 0, 81, 77
1, 148220, Note_on_c, 0, 50, 98
1, 148244, Note_on_c, 0, 42, 0
1, 148258, Note_on_c, 0, 85, 0
1, 148268, Note_on_c, 0, 45, 0
1, 148328, Note_on_c, 0, 50, 0
1, 148408, Note_on_c, 0, 50, 63
1, 148494, Note_on_c, 0, 50, 0
1, 148642, Note_on_c, 0, 50, 79
1, 148682, Note_on_c, 0, 81, 0
1, 148688, Note_on_c, 0, 50, 0
1, 148778, Note_on_c, 0, 78, 0
1, 148798, Note_on_c, 0, 86, 0
1, 148844, Note_on_c, 0, 50, 78
1, 148894, Note_on_c, 0, 50, 0
1, 149020, Note_on_c, 0, 45, 67
1, 149052, Note_on_c, 0, 49, 70
1, 149052, Note_on_c, 0, 86, 105
1, 149070, Note_on_c, 0, 76, 93
1, 149070, Note_on_c, 0, 85, 102
1, 149070, Note_on_c, 0, 52, 79
1, 149073, Note_on_c, 0, 81, 88
1, 149086, Note_on_c, 0, 45, 0
1, 149102, Note_on_c, 0, 57, 84
1, 149116, Note_on_c, 0, 81, 0
1, 149148, Note_on_c, 0, 49, 0
1, 149148, Note_on_c, 0, 86, 0
1, 149154, Note_on_c, 0, 52, 0
1, 149220, Note_on_c, 0, 57, 0
1, 149294, Note_on_c, 0, 57, 57
1, 149326, Note_on_c, 0, 81, 2
1, 149380, Note_on_c, 0, 57, 0
1, 149510, Note_on_c, 0, 57, 55
1, 149578, Note_on_c, 0, 57, 0
1, 149604, Note_on_c, 0, 81, 0
1, 149618, Note_on_c, 0, 76, 0
1, 149652, Note_on_c, 0, 85, 0
1, 149714, Note_on_c, 0, 57, 74
1, 149762, Note_on_c, 0, 57, 0
1, 149896, Note_on_c, 0, 40, 95
1, 149901, Note_on_c, 0, 85, 93
1, 149912, Note_on_c, 0, 44, 70
1, 149914, Note_on_c, 0, 47, 60
1, 149925, Note_on_c, 0, 76, 87
1, 149938, Note_on_c, 0, 83, 106
1, 149940, Note_on_c, 0, 80, 72
1, 149950, Note_on_c, 0, 52, 98
1, 150002, Note_on_c, 0, 40, 0
1, 150030, Note_on_c, 0, 76, 0
1, 150032, Note_on_c, 0, 44, 0
1, 150048, Note_on_c, 0, 47, 0
1, 150048, Note_on_c, 0, 52, 0
1, 150051, Note_on_c, 0, 85, 0
1, 150062, Note_on_c, 0, 80, 0
1, 150074, Note_on_c, 0, 83, 0
1, 150114, Note_on_c, 0, 85, 83
1, 150138, Note_on_c, 0, 80, 56
1, 150140, Note_on_c, 0, 83, 98
1, 150142, Note_on_c, 0, 52, 70
1, 150144, Note_on_c, 0, 76, 70
1, 150192, Note_on_c, 0, 76, 0
1, 150218, Note_on_c, 0, 52, 0
1, 150240, Note_on_c, 0, 85, 0
1, 150250, Note_on_c, 0, 80, 0
1, 150266, Note_on_c, 0, 83, 0
1, 150322, Note_on_c, 0, 85, 76
1, 150336, Note_on_c, 0, 83, 108
1, 150342, Note_on_c, 0, 80, 57
1, 150342, Note_on_c, 0, 52, 84
1, 150344, Note_on_c, 0, 76, 79
1, 150392, Note_on_c, 0, 76, 0
1, 150400, Note_on_c, 0, 52, 0
1, 150442, Note_on_c, 0, 85, 0
1, 150452, Note_on_c, 0, 80, 0
1, 150460, Note_on_c, 0, 83, 0
1, 150522, Note_on_c, 0, 85, 79
1, 150536, Note_on_c, 0, 83, 107
1, 150539, Note_on_c, 0, 76, 85
1, 150544, Note_on_c, 0, 80, 49
1, 150546, Note_on_c, 0, 52, 78
1, 150586, Note_on_c, 0, 52, 0
1, 150600, Note_on_c, 0, 76, 0
1, 150606, Note_on_c, 0, 80, 0
1, 150668, Note_on_c, 0, 83, 0
1, 150684, Note_on_c, 0, 85, 0
1, 150748, Note_on_c, 0, 81, 100
1, 150776, Note_on_c, 0, 57, 34
1, 150847, Note_on_c, 0, 57, 0
1, 150882, Note_on_c, 0, 64, 44
1, 150936, Note_on_c, 0, 64, 0
1, 150958, Note_on_c, 0, 61, 38
1, 150980, Note_on_c, 0, 81, 0
1, 151024, Note_on_c, 0, 61, 0
1, 151070, Note_on_c, 0, 64, 25
1, 151072, Note_on_c, 0, 76, 52
1, 151134, Note_on_c, 0, 76, 0
1, 151145, Note_on_c, 0, 81, 51
1, 151152, Note_on_c, 0, 64, 0
1, 151190, Note_on_c, 0, 57, 42
1, 151202, Note_on_c, 0, 85, 73
1, 151206, Note_on_c, 0, 81, 0
1, 151266, Note_on_c, 0, 57, 0
1, 151326, Note_on_c, 0, 64, 36
1, 151388, Note_on_c, 0, 64, 0
1, 151392, Note_on_c, 0, 85, 0
1, 151406, Note_on_c, 0, 61, 43
1, 151480, Note_on_c, 0, 85, 73
1, 151486, Note_on_c, 0, 61, 0
1, 151532, Note_on_c, 0, 64, 30
1, 151586, Note_on_c, 0, 85, 0
1, 151596, Note_on_c, 0, 76, 52
1, 151602, Note_on_c, 0, 64, 0
1, 151630, Note_on_c, 0, 81, 74
1, 151644, Note_on_c, 0, 85, 88
1, 151650, Note_on_c, 0, 57, 42
1, 151692, Note_on_c, 0, 76, 0
1, 151698, Note_on_c, 0, 81, 0
1, 151754, Note_on_c, 0, 57, 0
1, 151784, Note_on_c, 0, 64, 39
1, 151840, Note_on_c, 0, 64, 0
1, 151856, Note_on_c, 0, 61, 40
1, 151922, Note_on_c, 0, 61, 0
1, 151954, Note_on_c, 0, 64, 32
1, 152026, Note_on_c, 0, 64, 0
1, 152064, Note_on_c, 0, 57, 43
1, 152120, Note_on_c, 0, 57, 0
1, 152164, Note_on_c, 0, 64, 51
1, 152230, Note_on_c, 0, 64, 0
1, 152276, Note_on_c, 0, 61, 39
1, 152352, Note_on_c, 0, 61, 0
1, 152384, Note_on_c, 0, 64, 44
1, 152400, Note_on_c, 0, 85, 0
1, 152420, Note_on_c, 0, 76, 46
1, 152446, Note_on_c, 0, 64, 0
1, 152474, Note_on_c, 0, 81, 68
1, 152488, Note_on_c, 0, 76, 0
1, 152502, Note_on_c, 0, 57, 42
1, 152502, Note_on_c, 0, 85, 69
1, 152524, Note_on_c, 0, 81, 0
1, 152570, Note_on_c, 0, 57, 0
1, 152632, Note_on_c, 0, 64, 27
1, 152698, Note_on_c, 0, 64, 0
1, 152704, Note_on_c, 0, 61, 45
1, 152780, Note_on_c, 0, 61, 0
1, 152814, Note_on_c, 0, 64, 33
1, 152888, Note_on_c, 0, 64, 0
1, 152938, Note_on_c, 0, 57, 31
1, 153002, Note_on_c, 0, 57, 0
1, 153030, Note_on_c, 0, 64, 37
1, 153094, Note_on_c, 0, 64, 0
1, 153126, Note_on_c, 0, 61, 41
1, 153194, Note_on_c, 0, 61, 0
1, 153236, Note_on_c, 0, 85, 0
1, 153236, Note_on_c, 0, 64, 38
1, 153298, Note_on_c, 0, 64, 0
1, 153342, Note_on_c, 0, 86, 83
1, 153356, Note_on_c, 0, 57, 45
1, 153416, Note_on_c, 0, 57, 0
1, 153454, Note_on_c, 0, 85, 70
1, 153476, Note_on_c, 0, 64, 35
1, 153486, Note_on_c, 0, 86, 0
1, 153534, Note_on_c, 0, 64, 0
1, 153540, Note_on_c, 0, 61, 52
1, 153554, Note_on_c, 0, 83, 85
1, 153560, Note_on_c, 0, 85, 0
1, 153610, Note_on_c, 0, 61, 0
1, 153612, Note_on_c, 0, 83, 0
1, 153634, Note_on_c, 0, 85, 66
1, 153644, Note_on_c, 0, 64, 36
1, 153728, Note_on_c, 0, 64, 0
1, 153731, Note_on_c, 0, 85, 0
1, 153746, Note_on_c, 0, 86, 85
1, 153764, Note_on_c, 0, 57, 48
1, 153818, Note_on_c, 0, 57, 0
1, 153848, Note_on_c, 0, 64, 50
1, 153850, Note_on_c, 0, 85, 69
1, 153884, Note_on_c, 0, 86, 0
1, 153914, Note_on_c, 0, 64, 0
1, 153944, Note_on_c, 0, 61, 51
1, 153964, Note_on_c, 0, 85, 0
1, 153967, Note_on_c, 0, 83, 90
1, 154038, Note_on_c, 0, 61, 0
1, 154040, Note_on_c, 0, 64, 43
1, 154042, Note_on_c, 0, 85, 57
1, 154066, Note_on_c, 0, 83, 0
1, 154098, Note_on_c, 0, 64, 0
1, 154130, Note_on_c, 0, 85, 0
1, 154156, Note_on_c, 0, 86, 91
1, 154174, Note_on_c, 0, 57, 37
1, 154248, Note_on_c, 0, 57, 0
1, 154278, Note_on_c, 0, 66, 42
1, 154334, Note_on_c, 0, 66, 0
1, 154380, Note_on_c, 0, 62, 43
1, 154442, Note_on_c, 0, 62, 0
1, 154488, Note_on_c, 0, 66, 42
1, 154556, Note_on_c, 0, 66, 0
1, 154588, Note_on_c, 0, 57, 35
1, 154650, Note_on_c, 0, 57, 0
1, 154674, Note_on_c, 0, 66, 38
1, 154748, Note_on_c, 0, 66, 0
1, 154800, Note_on_c, 0, 62, 31
1, 154830, Note_on_c, 0, 86, 0
1, 154864, Note_on_c, 0, 62, 0
1, 154874, Note_on_c, 0, 66, 35
1, 154938, Note_on_c, 0, 66, 0
1, 154972, Note_on_c, 0, 86, 78
1, 154990, Note_on_c, 0, 85, 72
1, 155010, Note_on_c, 0, 57, 31
1, 155036, Note_on_c, 0, 86, 0
1, 155052, Note_on_c, 0, 85, 0
1, 155084, Note_on_c, 0, 64, 49
1, 155086, Note_on_c, 0, 57, 0
1, 155148, Note_on_c, 0, 64, 0
1, 155180, Note_on_c, 0, 86, 71
1, 155196, Note_on_c, 0, 61, 45
1, 155218, Note_on_c, 0, 85, 60
1, 155242, Note_on_c, 0, 86, 0
1, 155264, Note_on_c, 0, 85, 0
1, 155268, Note_on_c, 0, 61, 0
1, 155292, Note_on_c, 0, 64, 45
1, 155350, Note_on_c, 0, 64, 0
1, 155382, Note_on_c, 0, 86, 82
1, 155392, Note_on_c, 0, 57, 42
1, 155410, Note_on_c, 0, 85, 79
1, 155452, Note_on_c, 0, 85, 0
1, 155464, Note_on_c, 0, 57, 0
1, 155472, Note_on_c, 0, 64, 39
1, 155475, Note_on_c, 0, 86, 0
1, 155546, Note_on_c, 0, 64, 0
1, 155580, Note_on_c, 0, 86, 79
1, 155586, Note_on_c, 0, 61, 45
1, 155592, Note_on_c, 0, 85, 83
1, 155664, Note_on_c, 0, 86, 0
1, 155667, Note_on_c, 0, 61, 0
1, 155674, Note_on_c, 0, 64, 46
1, 155706, Note_on_c, 0, 85, 0
1, 155742, Note_on_c, 0, 64, 0
1, 155798, Note_on_c, 0, 83, 108
1, 155816, Note_on_c, 0, 52, 58
1, 155870, Note_on_c, 0, 52, 0
1, 155914, Note_on_c, 0, 64, 49
1, 155982, Note_on_c, 0, 64, 0
1, 156029, Note_on_c, 0, 59, 39
1, 156092, Note_on_c, 0, 59, 0
1, 156112, Note_on_c, 0, 64, 46
1, 156188, Note_on_c, 0, 64, 0
1, 156234, Note_on_c, 0, 52, 71
1, 156282, Note_on_c, 0, 52, 0
1, 156350, Note_on_c, 0, 64, 42
1, 156358, Note_on_c, 0, 83, 0
1, 156404, Note_on_c, 0, 64, 0
1, 156422, Note_on_c, 0, 88, 83
1, 156444, Note_on_c, 0, 59, 53
1, 156460, Note_on_c, 0, 88, 0
1, 156494, Note_on_c, 0, 59, 0
1, 156494, Note_on_c, 0, 64, 56
1, 156538, Note_on_c, 0, 64, 0
1, 156704, Note_on_c, 0, 85, 100
1, 156704, Note_on_c, 0, 73, 90
1, 156710, Note_on_c, 0, 81, 88
1, 156710, Note_on_c, 0, 76, 84
1, 156716, Note_on_c, 0, 45, 85
1, 156718, Note_on_c, 0, 49, 86
1, 156724, Note_on_c, 0, 57, 94
1, 156728, Note_on_c, 0, 52, 87
1, 156758, Note_on_c, 0, 45, 0
1, 156764, Note_on_c, 0, 52, 0
1, 156802, Note_on_c, 0, 49, 0
1, 156848, Note_on_c, 0, 57, 0
1, 156940, Note_on_c, 0, 57, 44
1, 157034, Note_on_c, 0, 73, 0
1, 157054, Note_on_c, 0, 57, 0
1, 157162, Note_on_c, 0, 57, 50
1, 157210, Note_on_c, 0, 81, 0
1, 157224, Note_on_c, 0, 85, 0
1, 157234, Note_on_c, 0, 76, 0
1, 157238, Note_on_c, 0, 57, 0
1, 157386, Note_on_c, 0, 57, 71
1, 157480, Note_on_c, 0, 57, 0
1, 157558, Note_on_c, 0, 45, 74
1, 157588, Note_on_c, 0, 49, 65
1, 157591, Note_on_c, 0, 52, 74
1, 157612, Note_on_c, 0, 73, 90
1, 157612, Note_on_c, 0, 85, 103
1, 157615, Note_on_c, 0, 76, 84
1, 157620, Note_on_c, 0, 81, 87
1, 157630, Note_on_c, 0, 57, 89
1, 157660, Note_on_c, 0, 45, 0
1, 157662, Note_on_c, 0, 49, 0
1, 157670, Note_on_c, 0, 52, 0
1, 157732, Note_on_c, 0, 57, 0
1, 157776, Note_on_c, 0, 73, 0
1, 157846, Note_on_c, 0, 57, 48
1, 157868, Note_on_c, 0, 76, 0
1, 157932, Note_on_c, 0, 57, 0
1, 158026, Note_on_c, 0, 81, 0
1, 158066, Note_on_c, 0, 57, 72
1, 158140, Note_on_c, 0, 57, 0
1, 158148, Note_on_c, 0, 85, 0
1, 158270, Note_on_c, 0, 57, 76
1, 158338, Note_on_c, 0, 57, 0
1, 158406, Note_on_c, 0, 45, 75
1, 158440, Note_on_c, 0, 49, 71
1, 158474, Note_on_c, 0, 52, 67
1, 158512, Note_on_c, 0, 86, 100
1, 158518, Note_on_c, 0, 57, 94
1, 158536, Note_on_c, 0, 45, 0
1, 158562, Note_on_c, 0, 49, 0
1, 158582, Note_on_c, 0, 52, 0
1, 158624, Note_on_c, 0, 85, 81
1, 158636, Note_on_c, 0, 57, 0
1, 158666, Note_on_c, 0, 86, 0
1, 158702, Note_on_c, 0, 57, 63
1, 158718, Note_on_c, 0, 83, 98
1, 158730, Note_on_c, 0, 85, 0
1, 158812, Note_on_c, 0, 57, 0
1, 158820, Note_on_c, 0, 85, 63
1, 158840, Note_on_c, 0, 83, 0
1, 158899, Note_on_c, 0, 57, 52
1, 158914, Note_on_c, 0, 86, 84
1, 158934, Note_on_c, 0, 85, 0
1, 158998, Note_on_c, 0, 57, 0
1, 159002, Note_on_c, 0, 85, 65
1, 159096, Note_on_c, 0, 83, 100
1, 159099, Note_on_c, 0, 57, 50
1, 159102, Note_on_c, 0, 86, 0
1, 159132, Note_on_c, 0, 85, 0
1, 159140, Note_on_c, 0, 57, 0
1, 159204, Note_on_c, 0, 85, 70
1, 159270, Note_on_c, 0, 83, 0
1, 159292, Note_on_c, 0, 38, 94
1, 159306, Note_on_c, 0, 42, 81
1, 159309, Note_on_c, 0, 86, 105
1, 159318, Note_on_c, 0, 45, 62
1, 159320, Note_on_c, 0, 78, 88
1, 159322, Note_on_c, 0, 81, 86
1, 159334, Note_on_c, 0, 50, 103
1, 159372, Note_on_c, 0, 45, 0
1, 159378, Note_on_c, 0, 38, 0
1, 159390, Note_on_c, 0, 85, 0
1, 159414, Note_on_c, 0, 42, 0
1, 159460, Note_on_c, 0, 50, 0
1, 159546, Note_on_c, 0, 50, 60
1, 159622, Note_on_c, 0, 50, 0
1, 159758, Note_on_c, 0, 50, 77
1, 159770, Note_on_c, 0, 81, 0
1, 159822, Note_on_c, 0, 50, 0
1, 159846, Note_on_c, 0, 86, 0
1, 159858, Note_on_c, 0, 78, 0
1, 159964, Note_on_c, 0, 50, 82
1, 160020, Note_on_c, 0, 50, 0
1, 160142, Note_on_c, 0, 45, 79
1, 160174, Note_on_c, 0, 86, 101
1, 160179, Note_on_c, 0, 49, 72
1, 160198, Note_on_c, 0, 76, 91
1, 160200, Note_on_c, 0, 52, 68
1, 160200, Note_on_c, 0, 85, 99
1, 160204, Note_on_c, 0, 81, 86
1, 160212, Note_on_c, 0, 57, 88
1, 160258, Note_on_c, 0, 45, 0
1, 160292, Note_on_c, 0, 86, 0
1, 160302, Note_on_c, 0, 49, 0
1, 160308, Note_on_c, 0, 52, 0
1, 160330, Note_on_c, 0, 57, 0
1, 160438, Note_on_c, 0, 57, 51
1, 160544, Note_on_c, 0, 57, 0
1, 160668, Note_on_c, 0, 57, 68
1, 160708, Note_on_c, 0, 81, 0
1, 160740, Note_on_c, 0, 57, 0
1, 160774, Note_on_c, 0, 76, 0
1, 160844, Note_on_c, 0, 85, 0
1, 160880, Note_on_c, 0, 57, 79
1, 160922, Note_on_c, 0, 57, 0
1, 161054, Note_on_c, 0, 40, 104
1, 161066, Note_on_c, 0, 85, 92
1, 161066, Note_on_c, 0, 47, 50
1, 161080, Note_on_c, 0, 44, 65
1, 161092, Note_on_c, 0, 76, 83
1, 161096, Note_on_c, 0, 83, 109
1, 161102, Note_on_c, 0, 80, 70
1, 161124, Note_on_c, 0, 52, 98
1, 161172, Note_on_c, 0, 40, 0
1, 161192, Note_on_c, 0, 76, 0
1, 161202, Note_on_c, 0, 85, 0
1, 161204, Note_on_c, 0, 44, 0
1, 161212, Note_on_c, 0, 47, 0
1, 161218, Note_on_c, 0, 52, 0
1, 161224, Note_on_c, 0, 80, 0
1, 161236, Note_on_c, 0, 83, 0
1, 161276, Note_on_c, 0, 85, 68
1, 161294, Note_on_c, 0, 52, 90
1, 161294, Note_on_c, 0, 83, 105
1, 161294, Note_on_c, 0, 80, 59
1, 161304, Note_on_c, 0, 76, 67
1, 161354, Note_on_c, 0, 76, 0
1, 161396, Note_on_c, 0, 85, 0
1, 161404, Note_on_c, 0, 52, 0
1, 161408, Note_on_c, 0, 80, 0
1, 161424, Note_on_c, 0, 83, 0
1, 161482, Note_on_c, 0, 85, 72
1, 161494, Note_on_c, 0, 83, 98
1, 161498, Note_on_c, 0, 52, 85
1, 161502, Note_on_c, 0, 76, 76
1, 161510, Note_on_c, 0, 80, 40
1, 161560, Note_on_c, 0, 76, 0
1, 161570, Note_on_c, 0, 52, 0
1, 161594, Note_on_c, 0, 80, 0
1, 161606, Note_on_c, 0, 85, 0
1, 161632, Note_on_c, 0, 83, 0
1, 161690, Note_on_c, 0, 85, 73
1, 161700, Note_on_c, 0, 83, 101
1, 161712, Note_on_c, 0, 76, 65
1, 161716, Note_on_c, 0, 52, 81
1, 161732, Note_on_c, 0, 80, 45
1, 161748, Note_on_c, 0, 83, 0
1, 161756, Note_on_c, 0, 52, 0
1, 161758, Note_on_c, 0, 76, 0
1, 161778, Note_on_c, 0, 85, 0
1, 161781, Note_on_c, 0, 80, 0
1, 161898, Note_on_c, 0, 45, 56
1, 161924, Note_on_c, 0, 49, 50
1, 161946, Note_on_c, 0, 81, 100
1, 161954, Note_on_c, 0, 52, 57
1, 161956, Note_on_c, 0, 69, 73
1, 161966, Note_on_c, 0, 73, 50
1, 161969, Note_on_c, 0, 76, 45
1, 161984, Note_on_c, 0, 57, 66
1, 162000, Note_on_c, 0, 45, 0
1, 162003, Note_on_c, 0, 52, 0
1, 162006, Note_on_c, 0, 49, 0
1, 162052, Note_on_c, 0, 57, 0
1, 162188, Note_on_c, 0, 57, 54
1, 162222, Note_on_c, 0, 76, 0
1, 162238, Note_on_c, 0, 81, 0
1, 162238, Note_on_c, 0, 57, 0
1, 162254, Note_on_c, 0, 69, 0
1, 162254, Note_on_c, 0, 73, 0
1, 162372, Note_on_c, 0, 57, 68
1, 162436, Note_on_c, 0, 57, 0
1, 162576, Note_on_c, 0, 85, 95
1, 162582, Note_on_c, 0, 57, 73
1, 162584, Note_on_c, 0, 73, 86
1, 162634, Note_on_c, 0, 73, 0
1, 162637, Note_on_c, 0, 57, 0
1, 162648, Note_on_c, 0, 85, 0
1, 162736, Note_on_c, 0, 45, 61
1, 162748, Note_on_c, 0, 49, 61
1, 162770, Note_on_c, 0, 52, 69
1, 162810, Note_on_c, 0, 81, 98
1, 162810, Note_on_c, 0, 69, 85
1, 162818, Note_on_c, 0, 57, 75
1, 162838, Note_on_c, 0, 45, 0
1, 162852, Note_on_c, 0, 49, 0
1, 162854, Note_on_c, 0, 52, 0
1, 162916, Note_on_c, 0, 57, 0
1, 162984, Note_on_c, 0, 69, 0
1, 163014, Note_on_c, 0, 57, 45
1, 163058, Note_on_c, 0, 81, 0
1, 163086, Note_on_c, 0, 57, 0
1, 163232, Note_on_c, 0, 57, 73
1, 163290, Note_on_c, 0, 57, 0
1, 163410, Note_on_c, 0, 88, 103
1, 163418, Note_on_c, 0, 76, 93
1, 163430, Note_on_c, 0, 57, 70
1, 163448, Note_on_c, 0, 88, 0
1, 163456, Note_on_c, 0, 76, 0
1, 163480, Note_on_c, 0, 57, 0
1, 163590, Note_on_c, 0, 45, 64
1, 163600, Note_on_c, 0, 49, 60
1, 163628, Note_on_c, 0, 52, 74
1, 163642, Note_on_c, 0, 81, 106
1, 163644, Note_on_c, 0, 69, 95
1, 163652, Note_on_c, 0, 45, 0
1, 163666, Note_on_c, 0, 57, 86
1, 163686, Note_on_c, 0, 52, 0
1, 163708, Note_on_c, 0, 49, 0
1, 163756, Note_on_c, 0, 57, 0
1, 163846, Note_on_c, 0, 57, 52
1, 163894, Note_on_c, 0, 69, 0
1, 163928, Note_on_c, 0, 57, 0
1, 163956, Note_on_c, 0, 81, 0
1, 164070, Note_on_c, 0, 57, 79
1, 164120, Note_on_c, 0, 57, 0
1, 164274, Note_on_c, 0, 57, 59
1, 164277, Note_on_c, 0, 85, 86
1, 164284, Note_on_c, 0, 73, 76
1, 164316, Note_on_c, 0, 85, 0
1, 164324, Note_on_c, 0, 57, 0
1, 164332, Note_on_c, 0, 73, 0
1, 164436, Note_on_c, 0, 45, 56
1, 164454, Note_on_c, 0, 49, 49
1, 164470, Note_on_c, 0, 52, 63
1, 164492, Note_on_c, 0, 69, 83
1, 164492, Note_on_c, 0, 81, 97
1, 164506, Note_on_c, 0, 57, 74
1, 164512, Note_on_c, 0, 45, 0
1, 164526, Note_on_c, 0, 49, 0
1, 164534, Note_on_c, 0, 52, 0
1, 164540, Note_on_c, 0, 69, 0
1, 164562, Note_on_c, 0, 81, 0
1, 164568, Note_on_c, 0, 57, 0
1, 164702, Note_on_c, 0, 85, 96
1, 164702, Note_on_c, 0, 73, 88
1, 164714, Note_on_c, 0, 57, 66
1, 164742, Note_on_c, 0, 85, 0
1, 164752, Note_on_c, 0, 73, 0
1, 164762, Note_on_c, 0, 57, 0
1, 164856, Note_on_c, 0, 45, 67
1, 164868, Note_on_c, 0, 49, 64
1, 164892, Note_on_c, 0, 52, 71
1, 164902, Note_on_c, 0, 81, 104
1, 164906, Note_on_c, 0, 69, 86
1, 164908, Note_on_c, 0, 45, 0
1, 164930, Note_on_c, 0, 57, 74
1, 164940, Note_on_c, 0, 69, 0
1, 164944, Note_on_c, 0, 52, 0
1, 164958, Note_on_c, 0, 49, 0
1, 164976, Note_on_c, 0, 81, 0
1, 164994, Note_on_c, 0, 57, 0
1, 165112, Note_on_c, 0, 88, 105
1, 165122, Note_on_c, 0, 76, 86
1, 165125, Note_on_c, 0, 57, 62
1, 165140, Note_on_c, 0, 88, 0
1, 165158, Note_on_c, 0, 76, 0
1, 165180, Note_on_c, 0, 57, 0
1, 165326, Note_on_c, 0, 69, 92
1, 165328, Note_on_c, 0, 81, 100
1, 165332, Note_on_c, 0, 57, 95
1, 165340, Note_on_c, 0, 45, 81
1, 165380, Note_on_c, 0, 45, 0
1, 165383, Note_on_c, 0, 57, 0
1, 165406, Note_on_c, 0, 69, 0
1, 165436, Note_on_c, 0, 81, 0
1, 165790, Note_on_c, 0, 69, 92
1, 165794, Note_on_c, 0, 81, 102
1, 165794, Note_on_c, 0, 73, 84
1, 165798, Note_on_c, 0, 76, 93
1, 165798, Note_on_c, 0, 57, 92
1, 165800, Note_on_c, 0, 45, 92
1, 165806, Note_on_c, 0, 49, 78
1, 165806, Note_on_c, 0, 52, 87
1, 165848, Note_on_c, 0, 52, 0
1, 165905, Note_on_c, 0, 45, 0
1, 165908, Note_on_c, 0, 57, 0
1, 165912, Note_on_c, 0, 69, 0
1, 165926, Note_on_c, 0, 49, 0
1, 165932, Note_on_c, 0, 81, 0
1, 165958, Note_on_c, 0, 76, 0
1, 165964, Note_on_c, 0, 73, 0
1, 166382, Note_on_c, 0, 69, 91
1, 166385, Note_on_c, 0, 81, 103
1, 166385, Note_on_c, 0, 73, 86
1, 166388, Note_on_c, 0, 76, 92
1, 166394, Note_on_c, 0, 57, 94
1, 166400, Note_on_c, 0, 45, 85
1, 166402, Note_on_c, 0, 49, 78
1, 166408, Note_on_c, 0, 52, 82
1, 166442, Note_on_c, 0, 57, 0
1, 166444, Note_on_c, 0, 52, 0
1, 166447, Note_on_c, 0, 45, 0
1, 166470, Note_on_c, 0, 49, 0
1, 166492, Note_on_c, 0, 69, 0
1, 166520, Note_on_c, 0, 81, 0
1, 166540, Note_on_c, 0, 76, 0
1, 166544, Note_on_c, 0, 73, 0
1, 166554, End_track
0, 0, End_of_file