0, 0, Header, 0, 1, 480
1, 0, Start_track
1, 0, Tempo, 500000
1, 60, Note_on_c, 0, 61, 47
1, 140, Note_on_c, 0, 64, 61
1, 178, Note_on_c, 0, 61, 0
1, 188, Note_on_c, 0, 69, 83
1, 190, Note_on_c, 0, 45, 62
1, 194, Note_on_c, 0, 57, 63
1, 260, Note_on_c, 0, 64, 0
1, 754, Note_on_c, 0, 57, 0
1, 886, Note_on_c, 0, 45, 0
1, 1146, Note_on_c, 0, 64, 74
1, 1150, Note_on_c, 0, 69, 0
1, 1166, Note_on_c, 0, 52, 64
1, 1166, Note_on_c, 0, 40, 65
1, 1266, Note_on_c, 0, 52, 0
1, 1266, Note_on_c, 0, 40, 0
1, 1350, Note_on_c, 0, 64, 0
1, 1616, Note_on_c, 0, 73, 75
1, 1619, Note_on_c, 0, 61, 75
1, 1626, Note_on_c, 0, 49, 66
1, 1912, Note_on_c, 0, 74, 70
1, 1933, Note_on_c, 0, 61, 0
1, 1950, Note_on_c, 0, 73, 0
1, 2014, Note_on_c, 0, 71, 73
1, 2036, Note_on_c, 0, 74, 0
1, 2134, Note_on_c, 0, 71, 0
1, 2140, Note_on_c, 0, 49, 0
1, 2146, Note_on_c, 0, 69, 56
1, 2156, Note_on_c, 0, 45, 27
1, 2164, Note_on_c, 0, 57, 26
1, 2442, Note_on_c, 0, 57, 0
1, 2534, Note_on_c, 0, 45, 0
1, 2586, Note_on_c, 0, 69, 0
1, 3156, Note_on_c, 0, 76, 32
1, 3444, Note_on_c, 0, 78, 41
1, 3488, Note_on_c, 0, 76, 0
1, 3538, Note_on_c, 0, 78, 0
1, 3558, Note_on_c, 0, 74, 57
1, 3616, Note_on_c, 0, 74, 0
1, 3674, Note_on_c, 0, 73, 61
1, 4146, Note_on_c, 0, 85, 64
1, 4164, Note_on_c, 0, 66, 16
1, 4172, Note_on_c, 0, 73, 0
1, 4190, Note_on_c, 0, 57, 12
1, 4322, Note_on_c, 0, 57, 0
1, 4422, Note_on_c, 0, 85, 0
1, 4424, Note_on_c, 0, 66, 0
1, 4686, Note_on_c, 0, 75, 56
1, 4702, Note_on_c, 0, 69, 16
1, 4722, Note_on_c, 0, 59, 20
1, 5300, Note_on_c, 0, 59, 0
1, 5318, Note_on_c, 0, 69, 0
1, 5324, Note_on_c, 0, 76, 32
1, 5352, Note_on_c, 0, 68, 15
1, 5364, Note_on_c, 0, 64, 17
1, 5372, Note_on_c, 0, 75, 0
1, 5828, Note_on_c, 0, 64, 0
1, 5848, Note_on_c, 0, 68, 0
1, 6450, Note_on_c, 0, 77, 29
1, 6518, Note_on_c, 0, 76, 0
1, 6766, Note_on_c, 0, 80, 35
1, 6776, Note_on_c, 0, 77, 0
1, 7024, Note_on_c, 0, 78, 41
1, 7112, Note_on_c, 0, 80, 0
1, 7258, Note_on_c, 0, 76, 40
1, 7286, Note_on_c, 0, 78, 0
1, 7488, Note_on_c, 0, 74, 42
1, 7528, Note_on_c, 0, 76, 0
1, 7736, Note_on_c, 0, 73, 33
1, 7780, Note_on_c, 0, 74, 0
1, 7964, Note_on_c, 0, 71, 50
1, 7982, Note_on_c, 0, 73, 0
1, 8210, Note_on_c, 0, 69, 37
1, 8213, Note_on_c, 0, 71, 0
1, 8236, Note_on_c, 0, 52, 26
1, 8448, Note_on_c, 0, 68, 44
1, 8454, Note_on_c, 0, 62, 47
1, 8502, Note_on_c, 0, 69, 0
1, 8680, Note_on_c, 0, 62, 0
1, 8690, Note_on_c, 0, 76, 46
1, 8712, Note_on_c, 0, 68, 0
1, 8720, Note_on_c, 0, 59, 36
1, 8922, Note_on_c, 0, 59, 0
1, 8922, Note_on_c, 0, 74, 50
1, 8936, Note_on_c, 0, 76, 0
1, 8942, Note_on_c, 0, 62, 36
1, 9032, Note_on_c, 0, 52, 0
1, 9094, Note_on_c, 0, 74, 0
1, 9112, Note_on_c, 0, 62, 0
1, 9164, Note_on_c, 0, 59, 37
1, 9370, Note_on_c, 0, 59, 0
1, 9376, Note_on_c, 0, 62, 45
1, 9615, Note_on_c, 0, 71, 76
1, 9650, Note_on_c, 0, 62, 0
1, 9658, Note_on_c, 0, 52, 40
1, 9850, Note_on_c, 0, 69, 66
1, 9862, Note_on_c, 0, 61, 41
1, 9890, Note_on_c, 0, 71, 0
1, 10070, Note_on_c, 0, 78, 68
1, 10076, Note_on_c, 0, 61, 0
1, 10098, Note_on_c, 0, 69, 0
1, 10108, Note_on_c, 0, 57, 34
1, 10304, Note_on_c, 0, 57, 0
1, 10309, Note_on_c, 0, 61, 34
1, 10316, Note_on_c, 0, 76, 59
1, 10337, Note_on_c, 0, 78, 0
1, 10500, Note_on_c, 0, 52, 0
1, 10512, Note_on_c, 0, 76, 0
1, 10524, Note_on_c, 0, 61, 0
1, 10556, Note_on_c, 0, 57, 34
1, 10734, Note_on_c, 0, 57, 0
1, 10758, Note_on_c, 0, 61, 45
1, 11008, Note_on_c, 0, 73, 77
1, 11022, Note_on_c, 0, 61, 0
1, 11026, Note_on_c, 0, 50, 49
1, 11254, Note_on_c, 0, 71, 92
1, 11290, Note_on_c, 0, 59, 41
1, 11324, Note_on_c, 0, 73, 0
1, 11542, Note_on_c, 0, 59, 0
1, 11542, Note_on_c, 0, 79, 83
1, 11554, Note_on_c, 0, 54, 40
1, 11560, Note_on_c, 0, 71, 0
1, 11818, Note_on_c, 0, 78, 67
1, 11836, Note_on_c, 0, 79, 0
1, 11854, Note_on_c, 0, 54, 0
1, 11862, Note_on_c, 0, 59, 33
1, 12042, Note_on_c, 0, 78, 0
1, 12045, Note_on_c, 0, 59, 0
1, 12054, Note_on_c, 0, 54, 41
1, 12138, Note_on_c, 0, 50, 0
1, 12316, Note_on_c, 0, 54, 0
1, 12316, Note_on_c, 0, 59, 33
1, 12676, Note_on_c, 0, 59, 0
1, 12676, Note_on_c, 0, 66, 30
1, 12694, Note_on_c, 0, 50, 22
1, 13152, Note_on_c, 0, 50, 0
1, 13218, Note_on_c, 0, 76, 22
1, 13238, Note_on_c, 0, 66, 0
1, 13462, Note_on_c, 0, 74, 36
1, 13474, Note_on_c, 0, 76, 0
1, 13682, Note_on_c, 0, 74, 0
1, 13694, Note_on_c, 0, 73, 31
1, 13924, Note_on_c, 0, 71, 44
1, 13946, Note_on_c, 0, 73, 0
1, 14188, Note_on_c, 0, 71, 0
1, 14196, Note_on_c, 0, 69, 27
1, 14200, Note_on_c, 0, 62, 26
1, 14224, Note_on_c, 0, 52, 16
1, 14454, Note_on_c, 0, 68, 31
1, 14474, Note_on_c, 0, 69, 0
1, 14634, Note_on_c, 0, 62, 0
1, 14692, Note_on_c, 0, 52, 0
1, 14764, Note_on_c, 0, 69, 28
1, 14776, Note_on_c, 0, 68, 0
1, 14776, Note_on_c, 0, 61, 22
1, 14796, Note_on_c, 0, 57, 9
1, 15210, Note_on_c, 0, 61, 0
1, 15210, Note_on_c, 0, 57, 0
1, 15270, Note_on_c, 0, 69, 0
1, 15760, Note_on_c, 0, 71, 47
1, 15818, Note_on_c, 0, 76, 49
1, 15884, Note_on_c, 0, 80, 64
1, 15942, Note_on_c, 0, 83, 115
1, 15954, Note_on_c, 0, 52, 93
1, 15996, Note_on_c, 0, 76, 0
1, 16030, Note_on_c, 0, 71, 0
1, 16084, Note_on_c, 0, 80, 0
1, 16158, Note_on_c, 0, 56, 69
1, 16190, Note_on_c, 0, 52, 0
1, 16390, Note_on_c, 0, 59, 68
1, 16400, Note_on_c, 0, 56, 0
1, 16598, Note_on_c, 0, 59, 0
1, 16618, Note_on_c, 0, 56, 53
1, 16828, Note_on_c, 0, 54, 70
1, 16846, Note_on_c, 0, 56, 0
1, 16980, Note_on_c, 0, 83, 0
1, 17064, Note_on_c, 0, 52, 74
1, 17072, Note_on_c, 0, 54, 0
1, 17304, Note_on_c, 0, 83, 110
1, 17308, Note_on_c, 0, 51, 61
1, 17316, Note_on_c, 0, 52, 0
1, 17410, Note_on_c, 0, 81, 73
1, 17480, Note_on_c, 0, 83, 0
1, 17520, Note_on_c, 0, 80, 72
1, 17538, Note_on_c, 0, 81, 0
1, 17540, Note_on_c, 0, 52, 63
1, 17542, Note_on_c, 0, 51, 0
1, 17630, Note_on_c, 0, 78, 70
1, 17660, Note_on_c, 0, 80, 0
1, 17674, Note_on_c, 0, 78, 0
1, 17696, Note_on_c, 0, 52, 0
1, 17742, Note_on_c, 0, 54, 54
1, 17750, Note_on_c, 0, 78, 70
1, 17878, Note_on_c, 0, 76, 58
1, 17896, Note_on_c, 0, 78, 0
1, 17988, Note_on_c, 0, 75, 72
1, 17994, Note_on_c, 0, 47, 34
1, 18004, Note_on_c, 0, 54, 0
1, 18008, Note_on_c, 0, 76, 0
1, 18096, Note_on_c, 0, 73, 65
1, 18134, Note_on_c, 0, 75, 0
1, 18210, Note_on_c, 0, 49, 46
1, 18216, Note_on_c, 0, 71, 81
1, 18244, Note_on_c, 0, 47, 0
1, 18262, Note_on_c, 0, 73, 0
1, 18310, Note_on_c, 0, 71, 0
1, 18318, Note_on_c, 0, 69, 67
1, 18432, Note_on_c, 0, 68, 72
1, 18440, Note_on_c, 0, 51, 50
1, 18452, Note_on_c, 0, 49, 0
1, 18455, Note_on_c, 0, 69, 0
1, 18544, Note_on_c, 0, 69, 47
1, 18558, Note_on_c, 0, 68, 0
1, 18646, Note_on_c, 0, 51, 0
1, 18649, Note_on_c, 0, 68, 64
1, 18664, Note_on_c, 0, 52, 51
1, 18676, Note_on_c, 0, 69, 0
1, 18748, Note_on_c, 0, 68, 0
1, 18762, Note_on_c, 0, 71, 91
1, 18846, Note_on_c, 0, 52, 0
1, 18872, Note_on_c, 0, 56, 35
1, 18884, Note_on_c, 0, 76, 68
1, 18898, Note_on_c, 0, 71, 0
1, 18990, Note_on_c, 0, 80, 70
1, 18998, Note_on_c, 0, 76, 0
1, 19092, Note_on_c, 0, 56, 0
1, 19120, Note_on_c, 0, 59, 38
1, 19132, Note_on_c, 0, 83, 86
1, 19172, Note_on_c, 0, 80, 0
1, 19372, Note_on_c, 0, 59, 0
1, 19374, Note_on_c, 0, 56, 42
1, 19608, Note_on_c, 0, 54, 46
1, 19611, Note_on_c, 0, 56, 0
1, 19844, Note_on_c, 0, 54, 0
1, 19880, Note_on_c, 0, 52, 42
1, 19940, Note_on_c, 0, 83, 0
1, 20084, Note_on_c, 0, 52, 0
1, 20098, Note_on_c, 0, 83, 88
1, 20106, Note_on_c, 0, 51, 42
1, 20182, Note_on_c, 0, 83, 0
1, 20210, Note_on_c, 0, 81, 45
1, 20306, Note_on_c, 0, 80, 59
1, 20318, Note_on_c, 0, 81, 0
1, 20344, Note_on_c, 0, 51, 0
1, 20350, Note_on_c, 0, 52, 46
1, 20420, Note_on_c, 0, 78, 62
1, 20432, Note_on_c, 0, 80, 0
1, 20462, Note_on_c, 0, 78, 0
1, 20526, Note_on_c, 0, 78, 57
1, 20528, Note_on_c, 0, 52, 0
1, 20546, Note_on_c, 0, 54, 42
1, 20652, Note_on_c, 0, 78, 0
1, 20652, Note_on_c, 0, 76, 54
1, 20766, Note_on_c, 0, 75, 60
1, 20771, Note_on_c, 0, 54, 0
1, 20784, Note_on_c, 0, 47, 27
1, 20790, Note_on_c, 0, 76, 0
1, 20880, Note_on_c, 0, 73, 53
1, 20914, Note_on_c, 0, 75, 0
1, 21000, Note_on_c, 0, 49, 34
1, 21002, Note_on_c, 0, 71, 65
1, 21010, Note_on_c, 0, 47, 0
1, 21016, Note_on_c, 0, 73, 0
1, 21060, Note_on_c, 0, 71, 0
1, 21100, Note_on_c, 0, 69, 52
1, 21214, Note_on_c, 0, 68, 58
1, 21240, Note_on_c, 0, 69, 0
1, 21240, Note_on_c, 0, 51, 33
1, 21246, Note_on_c, 0, 49, 0
1, 21322, Note_on_c, 0, 68, 0
1, 21325, Note_on_c, 0, 69, 35
1, 21434, Note_on_c, 0, 51, 0
1, 21446, Note_on_c, 0, 69, 0
1, 21456, Note_on_c, 0, 68, 43
1, 21493, Note_on_c, 0, 52, 33
1, 21540, Note_on_c, 0, 68, 0
1, 21584, Note_on_c, 0, 71, 51
1, 21690, Note_on_c, 0, 69, 42
1, 21693, Note_on_c, 0, 71, 0
1, 21784, Note_on_c, 0, 69, 0
1, 21792, Note_on_c, 0, 68, 52
1, 21914, Note_on_c, 0, 68, 0
1, 21920, Note_on_c, 0, 69, 55
1, 21994, Note_on_c, 0, 52, 0
1, 22024, Note_on_c, 0, 71, 72
1, 22026, Note_on_c, 0, 69, 0
1, 22130, Note_on_c, 0, 71, 0
1, 22130, Note_on_c, 0, 73, 67
1, 22244, Note_on_c, 0, 75, 71
1, 22284, Note_on_c, 0, 73, 0
1, 22332, Note_on_c, 0, 75, 0
1, 22348, Note_on_c, 0, 76, 67
1, 22454, Note_on_c, 0, 78, 73
1, 22486, Note_on_c, 0, 76, 0
1, 22566, Note_on_c, 0, 80, 78
1, 22606, Note_on_c, 0, 78, 0
1, 22666, Note_on_c, 0, 81, 78
1, 22688, Note_on_c, 0, 80, 0
1, 22784, Note_on_c, 0, 83, 98
1, 22798, Note_on_c, 0, 81, 0
1, 22890, Note_on_c, 0, 85, 68
1, 22920, Note_on_c, 0, 83, 0
1, 22998, Note_on_c, 0, 87, 63
1, 23026, Note_on_c, 0, 85, 0
1, 23114, Note_on_c, 0, 88, 70
1, 23140, Note_on_c, 0, 87, 0
1, 23232, Note_on_c, 0, 87, 48
1, 23278, Note_on_c, 0, 88, 0
1, 23352, Note_on_c, 0, 85, 55
1, 23374, Note_on_c, 0, 87, 0
1, 23452, Note_on_c, 0, 83, 74
1, 23484, Note_on_c, 0, 85, 0
1, 23544, Note_on_c, 0, 83, 0
1, 23578, Note_on_c, 0, 81, 41
1, 23662, Note_on_c, 0, 80, 54
1, 23678, Note_on_c, 0, 81, 0
1, 23782, Note_on_c, 0, 78, 58
1, 23866, Note_on_c, 0, 80, 0
1, 23898, Note_on_c, 0, 78, 0
1, 23908, Note_on_c, 0, 76, 34
1, 23990, Note_on_c, 0, 76, 0
1, 24000, Note_on_c, 0, 75, 43
1, 24148, Note_on_c, 0, 75, 0
1, 24158, Note_on_c, 0, 73, 36
1, 24182, Note_on_c, 0, 66, 11
1, 24192, Note_on_c, 0, 57, 21
1, 24350, Note_on_c, 0, 73, 0
1, 24380, Note_on_c, 0, 57, 0
1, 24576, Note_on_c, 0, 66, 0
1, 24630, Note_on_c, 0, 85, 52
1, 24762, Note_on_c, 0, 85, 0
1, 24766, Note_on_c, 0, 76, 49
1, 24772, Note_on_c, 0, 68, 25
1, 24816, Note_on_c, 0, 59, 22
1, 25264, Note_on_c, 0, 68, 0
1, 25326, Note_on_c, 0, 76, 0
1, 25328, Note_on_c, 0, 80, 35
1, 25334, Note_on_c, 0, 75, 26
1, 25348, Note_on_c, 0, 69, 11
1, 25594, Note_on_c, 0, 80, 0
1, 25626, Note_on_c, 0, 78, 28
1, 25788, Note_on_c, 0, 75, 0
1, 25836, Note_on_c, 0, 59, 0
1, 25844, Note_on_c, 0, 69, 0
1, 25918, Note_on_c, 0, 68, 20
1, 25918, Note_on_c, 0, 76, 33
1, 25926, Note_on_c, 0, 78, 0
1, 25940, Note_on_c, 0, 64, 20
1, 26190, Note_on_c, 0, 64, 0
1, 26668, Note_on_c, 0, 52, 20
1, 26748, Note_on_c, 0, 68, 0
1, 26999, Note_on_c, 0, 76, 0
1, 27162, Note_on_c, 0, 52, 0
1, 27678, Note_on_c, 0, 64, 49
1, 27830, Note_on_c, 0, 76, 67
1, 28030, Note_on_c, 0, 64, 0
1, 28332, Note_on_c, 0, 66, 42
1, 28356, Note_on_c, 0, 76, 0
1, 28426, Note_on_c, 0, 78, 81
1, 28672, Note_on_c, 0, 66, 0
1, 28828, Note_on_c, 0, 67, 59
1, 28926, Note_on_c, 0, 78, 0
1, 28972, Note_on_c, 0, 79, 84
1, 29056, Note_on_c, 0, 67, 0
1, 29318, Note_on_c, 0, 79, 0
1, 29460, Note_on_c, 0, 54, 25
1, 29500, Note_on_c, 0, 71, 73
1, 29782, Note_on_c, 0, 61, 44
1, 29884, Note_on_c, 0, 54, 0
1, 30012, Note_on_c, 0, 61, 0
1, 30012, Note_on_c, 0, 66, 35
1, 30038, Note_on_c, 0, 70, 35
1, 30082, Note_on_c, 0, 71, 0
1, 30286, Note_on_c, 0, 66, 0
1, 30290, Note_on_c, 0, 64, 48
1, 30472, Note_on_c, 0, 70, 0
1, 30488, Note_on_c, 0, 64, 0
1, 30508, Note_on_c, 0, 62, 49
1, 30732, Note_on_c, 0, 61, 41
1, 30734, Note_on_c, 0, 62, 0
1, 30812, Note_on_c, 0, 70, 62
1, 30960, Note_on_c, 0, 70, 0
1, 30960, Note_on_c, 0, 73, 52
1, 30962, Note_on_c, 0, 61, 0
1, 30992, Note_on_c, 0, 54, 39
1, 31222, Note_on_c, 0, 54, 0
1, 31240, Note_on_c, 0, 62, 37
1, 31422, Note_on_c, 0, 62, 0
1, 31454, Note_on_c, 0, 66, 24
1, 31466, Note_on_c, 0, 71, 50
1, 31536, Note_on_c, 0, 73, 0
1, 31730, Note_on_c, 0, 66, 0
1, 31732, Note_on_c, 0, 62, 32
1, 31884, Note_on_c, 0, 71, 0
1, 31962, Note_on_c, 0, 61, 32
1, 31974, Note_on_c, 0, 62, 0
1, 32222, Note_on_c, 0, 59, 32
1, 32238, Note_on_c, 0, 61, 0
1, 32322, Note_on_c, 0, 71, 54
1, 32324, Note_on_c, 0, 59, 0
1, 32468, Note_on_c, 0, 74, 62
1, 32476, Note_on_c, 0, 54, 40
1, 32496, Note_on_c, 0, 71, 0
1, 32700, Note_on_c, 0, 58, 34
1, 32726, Note_on_c, 0, 54, 0
1, 32939, Note_on_c, 0, 64, 32
1, 32939, Note_on_c, 0, 73, 31
1, 32943, Note_on_c, 0, 58, 0
1, 32964, Note_on_c, 0, 74, 0
1, 33170, Note_on_c, 0, 64, 0
1, 33182, Note_on_c, 0, 61, 32
1, 33256, Note_on_c, 0, 73, 0
1, 33420, Note_on_c, 0, 61, 0
1, 33432, Note_on_c, 0, 59, 21
1, 33642, Note_on_c, 0, 59, 0
1, 33650, Note_on_c, 0, 58, 21
1, 33736, Note_on_c, 0, 73, 46
1, 33824, Note_on_c, 0, 73, 0
1, 33906, Note_on_c, 0, 76, 54
1, 33944, Note_on_c, 0, 59, 31
1, 33950, Note_on_c, 0, 58, 0
1, 34132, Note_on_c, 0, 74, 64
1, 34150, Note_on_c, 0, 76, 0
1, 34268, Note_on_c, 0, 59, 0
1, 34314, Note_on_c, 0, 74, 0
1, 34368, Note_on_c, 0, 77, 71
1, 34614, Note_on_c, 0, 76, 70
1, 34642, Note_on_c, 0, 77, 0
1, 34742, Note_on_c, 0, 76, 0
1, 34934, Note_on_c, 0, 79, 54
1, 35222, Note_on_c, 0, 79, 0
1, 35240, Note_on_c, 0, 77, 40
1, 35322, Note_on_c, 0, 77, 0
1, 35586, Note_on_c, 0, 69, 31
1, 35608, Note_on_c, 0, 52, 21
1, 35902, Note_on_c, 0, 59, 20
1, 35944, Note_on_c, 0, 52, 0
1, 36008, Note_on_c, 0, 59, 0
1, 36130, Note_on_c, 0, 68, 29
1, 36142, Note_on_c, 0, 64, 29
1, 36152, Note_on_c, 0, 69, 0
1, 36378, Note_on_c, 0, 64, 0
1, 36400, Note_on_c, 0, 62, 32
1, 36438, Note_on_c, 0, 68, 0
1, 36608, Note_on_c, 0, 62, 0
1, 36634, Note_on_c, 0, 60, 29
1, 36878, Note_on_c, 0, 60, 0
1, 36881, Note_on_c, 0, 59, 27
1, 36956, Note_on_c, 0, 68, 46
1, 37076, Note_on_c, 0, 68, 0
1, 37124, Note_on_c, 0, 71, 54
1, 37127, Note_on_c, 0, 59, 0
1, 37146, Note_on_c, 0, 52, 34
1, 37374, Note_on_c, 0, 60, 44
1, 37398, Note_on_c, 0, 52, 0
1, 37610, Note_on_c, 0, 60, 0
1, 37616, Note_on_c, 0, 64, 48
1, 37620, Note_on_c, 0, 69, 27
1, 37656, Note_on_c, 0, 71, 0
1, 37824, Note_on_c, 0, 64, 0
1, 37852, Note_on_c, 0, 60, 46
1, 37954, Note_on_c, 0, 69, 0
1, 38062, Note_on_c, 0, 60, 0
1, 38090, Note_on_c, 0, 59, 42
1, 38288, Note_on_c, 0, 59, 0
1, 38306, Note_on_c, 0, 57, 37
1, 38380, Note_on_c, 0, 69, 52
1, 38524, Note_on_c, 0, 57, 0
1, 38532, Note_on_c, 0, 69, 0
1, 38546, Note_on_c, 0, 72, 62
1, 38558, Note_on_c, 0, 52, 43
1, 38768, Note_on_c, 0, 56, 44
1, 38792, Note_on_c, 0, 52, 0
1, 39008, Note_on_c, 0, 62, 35
1, 39011, Note_on_c, 0, 56, 0
1, 39038, Note_on_c, 0, 71, 44
1, 39114, Note_on_c, 0, 72, 0
1, 39224, Note_on_c, 0, 62, 0
1, 39258, Note_on_c, 0, 59, 32
1, 39472, Note_on_c, 0, 57, 34
1, 39475, Note_on_c, 0, 59, 0
1, 39584, Note_on_c, 0, 71, 0
1, 39694, Note_on_c, 0, 57, 0
1, 39696, Note_on_c, 0, 56, 38
1, 39812, Note_on_c, 0, 71, 59
1, 39962, Note_on_c, 0, 74, 68
1, 39974, Note_on_c, 0, 56, 0
1, 39974, Note_on_c, 0, 71, 0
1, 39988, Note_on_c, 0, 57, 34
1, 40216, Note_on_c, 0, 72, 72
1, 40280, Note_on_c, 0, 74, 0
1, 40446, Note_on_c, 0, 71, 87
1, 40468, Note_on_c, 0, 72, 0
1, 40620, Note_on_c, 0, 71, 0
1, 40688, Note_on_c, 0, 69, 50
1, 40694, Note_on_c, 0, 57, 0
1, 40924, Note_on_c, 0, 43, 41
1, 40924, Note_on_c, 0, 81, 79
1, 40927, Note_on_c, 0, 69, 0
1, 40940, Note_on_c, 0, 55, 39
1, 41076, Note_on_c, 0, 81, 0
1, 41148, Note_on_c, 0, 81, 79
1, 41206, Note_on_c, 0, 55, 0
1, 41286, Note_on_c, 0, 81, 0
1, 41344, Note_on_c, 0, 43, 0
1, 41384, Note_on_c, 0, 83, 110
1, 41400, Note_on_c, 0, 53, 75
1, 41402, Note_on_c, 0, 41, 57
1, 41632, Note_on_c, 0, 81, 95
1, 41724, Note_on_c, 0, 83, 0
1, 41876, Note_on_c, 0, 79, 94
1, 41956, Note_on_c, 0, 81, 0
1, 42102, Note_on_c, 0, 77, 87
1, 42150, Note_on_c, 0, 79, 0
1, 42178, Note_on_c, 0, 41, 0
1, 42236, Note_on_c, 0, 53, 0
1, 42324, Note_on_c, 0, 76, 85
1, 42330, Note_on_c, 0, 77, 0
1, 42548, Note_on_c, 0, 75, 85
1, 42596, Note_on_c, 0, 76, 0
1, 42794, Note_on_c, 0, 57, 54
1, 42804, Note_on_c, 0, 84, 86
1, 42810, Note_on_c, 0, 53, 69
1, 42840, Note_on_c, 0, 75, 0
1, 43036, Note_on_c, 0, 56, 57
1, 43076, Note_on_c, 0, 57, 0
1, 43286, Note_on_c, 0, 57, 60
1, 43360, Note_on_c, 0, 56, 0
1, 43526, Note_on_c, 0, 57, 0
1, 43544, Note_on_c, 0, 60, 50
1, 43800, Note_on_c, 0, 60, 0
1, 43810, Note_on_c, 0, 75, 56
1, 43822, Note_on_c, 0, 59, 33
1, 43880, Note_on_c, 0, 84, 0
1, 44040, Note_on_c, 0, 59, 0
1, 44088, Note_on_c, 0, 57, 35
1, 44292, Note_on_c, 0, 53, 0
1, 44490, Note_on_c, 0, 76, 39
1, 44500, Note_on_c, 0, 57, 0
1, 44500, Note_on_c, 0, 56, 21
1, 44516, Note_on_c, 0, 52, 27
1, 44538, Note_on_c, 0, 75, 0
1, 45248, Note_on_c, 0, 56, 0
1, 45374, Note_on_c, 0, 52, 0
1, 45548, Note_on_c, 0, 76, 0
1, 45554, Note_on_c, 0, 78, 50
1, 45680, Note_on_c, 0, 78, 0
1, 45702, Note_on_c, 0, 76, 22
1, 45772, Note_on_c, 0, 76, 0
1, 45844, Note_on_c, 0, 76, 60
1, 45948, Note_on_c, 0, 74, 69
1, 45968, Note_on_c, 0, 76, 0
1, 46014, Note_on_c, 0, 74, 0
1, 46070, Note_on_c, 0, 73, 58
1, 46162, Note_on_c, 0, 71, 83
1, 46200, Note_on_c, 0, 71, 0
1, 46203, Note_on_c, 0, 73, 0
1, 46334, Note_on_c, 0, 61, 75
1, 46416, Note_on_c, 0, 64, 63
1, 46464, Note_on_c, 0, 69, 81
1, 46464, Note_on_c, 0, 57, 52
1, 46467, Note_on_c, 0, 45, 43
1, 46488, Note_on_c, 0, 61, 0
1, 46568, Note_on_c, 0, 64, 0
1, 47144, Note_on_c, 0, 57, 0
1, 47264, Note_on_c, 0, 45, 0
1, 47470, Note_on_c, 0, 64, 91
1, 47472, Note_on_c, 0, 52, 91
1, 47480, Note_on_c, 0, 40, 88
1, 47500, Note_on_c, 0, 69, 0
1, 47672, Note_on_c, 0, 40, 0
1, 47696, Note_on_c, 0, 52, 0
1, 47916, Note_on_c, 0, 64, 0
1, 47954, Note_on_c, 0, 73, 86
1, 47956, Note_on_c, 0, 61, 88
1, 47964, Note_on_c, 0, 49, 80
1, 48268, Note_on_c, 0, 74, 78
1, 48290, Note_on_c, 0, 61, 0
1, 48332, Note_on_c, 0, 73, 0
1, 48370, Note_on_c, 0, 71, 82
1, 48412, Note_on_c, 0, 74, 0
1, 48514, Note_on_c, 0, 69, 63
1, 48524, Note_on_c, 0, 49, 0
1, 48524, Note_on_c, 0, 71, 0
1, 48536, Note_on_c, 0, 57, 36
1, 48550, Note_on_c, 0, 45, 36
1, 48832, Note_on_c, 0, 57, 0
1, 48880, Note_on_c, 0, 45, 0
1, 48942, Note_on_c, 0, 69, 0
1, 49508, Note_on_c, 0, 76, 45
1, 49808, Note_on_c, 0, 78, 43
1, 49850, Note_on_c, 0, 76, 0
1, 49932, Note_on_c, 0, 74, 64
1, 49938, Note_on_c, 0, 78, 0
1, 50016, Note_on_c, 0, 74, 0
1, 50066, Note_on_c, 0, 73, 62
1, 50520, Note_on_c, 0, 85, 64
1, 50526, Note_on_c, 0, 66, 24
1, 50542, Note_on_c, 0, 73, 0
1, 50560, Note_on_c, 0, 57, 21
1, 50754, Note_on_c, 0, 57, 0
1, 50806, Note_on_c, 0, 85, 0
1, 50816, Note_on_c, 0, 66, 0
1, 51056, Note_on_c, 0, 75, 42
1, 51072, Note_on_c, 0, 69, 14
1, 51118, Note_on_c, 0, 59, 8
1, 51648, Note_on_c, 0, 69, 0
1, 51686, Note_on_c, 0, 76, 27
1, 51734, Note_on_c, 0, 68, 5
1, 51746, Note_on_c, 0, 75, 0
1, 51768, Note_on_c, 0, 64, 9
1, 51774, Note_on_c, 0, 59, 0
1, 52162, Note_on_c, 0, 64, 0
1, 52194, Note_on_c, 0, 68, 0
1, 52718, Note_on_c, 0, 77, 34
1, 52814, Note_on_c, 0, 76, 0
1, 53044, Note_on_c, 0, 80, 38
1, 53067, Note_on_c, 0, 77, 0
1, 53318, Note_on_c, 0, 78, 38
1, 53384, Note_on_c, 0, 80, 0
1, 53560, Note_on_c, 0, 76, 43
1, 53584, Note_on_c, 0, 78, 0
1, 53778, Note_on_c, 0, 74, 54
1, 53780, Note_on_c, 0, 76, 0
1, 54008, Note_on_c, 0, 73, 45
1, 54064, Note_on_c, 0, 74, 0
1, 54248, Note_on_c, 0, 71, 52
1, 54276, Note_on_c, 0, 73, 0
1, 54492, Note_on_c, 0, 69, 32
1, 54516, Note_on_c, 0, 71, 0
1, 54538, Note_on_c, 0, 52, 29
1, 54739, Note_on_c, 0, 68, 41
1, 54782, Note_on_c, 0, 69, 0
1, 54810, Note_on_c, 0, 62, 20
1, 54996, Note_on_c, 0, 76, 37
1, 55012, Note_on_c, 0, 68, 0
1, 55012, Note_on_c, 0, 62, 0
1, 55060, Note_on_c, 0, 59, 23
1, 55264, Note_on_c, 0, 74, 33
1, 55269, Note_on_c, 0, 76, 0
1, 55269, Note_on_c, 0, 59, 0
1, 55278, Note_on_c, 0, 62, 30
1, 55446, Note_on_c, 0, 62, 0
1, 55452, Note_on_c, 0, 74, 0
1, 55522, Note_on_c, 0, 59, 28
1, 55682, Note_on_c, 0, 52, 0
1, 55742, Note_on_c, 0, 59, 0
1, 55754, Note_on_c, 0, 62, 28
1, 55972, Note_on_c, 0, 62, 0
1, 56012, Note_on_c, 0, 71, 52
1, 56040, Note_on_c, 0, 52, 35
1, 56250, Note_on_c, 0, 69, 48
1, 56256, Note_on_c, 0, 71, 0
1, 56262, Note_on_c, 0, 61, 30
1, 56488, Note_on_c, 0, 61, 0
1, 56496, Note_on_c, 0, 78, 52
1, 56516, Note_on_c, 0, 69, 0
1, 56540, Note_on_c, 0, 57, 19
1, 56728, Note_on_c, 0, 76, 38
1, 56736, Note_on_c, 0, 57, 0
1, 56736, Note_on_c, 0, 61, 31
1, 56752, Note_on_c, 0, 78, 0
1, 56928, Note_on_c, 0, 61, 0
1, 56950, Note_on_c, 0, 76, 0
1, 56986, Note_on_c, 0, 57, 32
1, 57012, Note_on_c, 0, 52, 0
1, 57164, Note_on_c, 0, 57, 0
1, 57192, Note_on_c, 0, 61, 34
1, 57410, Note_on_c, 0, 61, 0
1, 57452, Note_on_c, 0, 71, 76
1, 57454, Note_on_c, 0, 52, 40
1, 57710, Note_on_c, 0, 69, 69
1, 57728, Note_on_c, 0, 71, 0
1, 57744, Note_on_c, 0, 61, 36
1, 57964, Note_on_c, 0, 61, 0
1, 57970, Note_on_c, 0, 69, 0
1, 57976, Note_on_c, 0, 81, 74
1, 58011, Note_on_c, 0, 57, 25
1, 58242, Note_on_c, 0, 57, 0
1, 58252, Note_on_c, 0, 79, 70
1, 58256, Note_on_c, 0, 61, 32
1, 58298, Note_on_c, 0, 81, 0
1, 58474, Note_on_c, 0, 61, 0
1, 58504, Note_on_c, 0, 57, 32
1, 58524, Note_on_c, 0, 79, 0
1, 58710, Note_on_c, 0, 57, 0
1, 58726, Note_on_c, 0, 52, 0
1, 58748, Note_on_c, 0, 61, 42
1, 58846, Note_on_c, 0, 61, 0
1, 59121, Note_on_c, 0, 79, 52
1, 59140, Note_on_c, 0, 62, 15
1, 59142, Note_on_c, 0, 57, 17
1, 59148, Note_on_c, 0, 50, 15
1, 59388, Note_on_c, 0, 78, 52
1, 59480, Note_on_c, 0, 79, 0
1, 59632, Note_on_c, 0, 76, 51
1, 59658, Note_on_c, 0, 78, 0
1, 59702, Note_on_c, 0, 50, 0
1, 59710, Note_on_c, 0, 57, 0
1, 59714, Note_on_c, 0, 62, 0
1, 59856, Note_on_c, 0, 74, 63
1, 59862, Note_on_c, 0, 76, 0
1, 60116, Note_on_c, 0, 73, 57
1, 60136, Note_on_c, 0, 74, 0
1, 60342, Note_on_c, 0, 71, 71
1, 60364, Note_on_c, 0, 73, 0
1, 60636, Note_on_c, 0, 49, 35
1, 60644, Note_on_c, 0, 76, 52
1, 60694, Note_on_c, 0, 71, 0
1, 60730, Note_on_c, 0, 76, 0
1, 60770, Note_on_c, 0, 78, 49
1, 60826, Note_on_c, 0, 76, 35
1, 60856, Note_on_c, 0, 78, 0
1, 60896, Note_on_c, 0, 76, 0
1, 60918, Note_on_c, 0, 74, 52
1, 60998, Note_on_c, 0, 76, 34
1, 61028, Note_on_c, 0, 74, 0
1, 61160, Note_on_c, 0, 49, 0
1, 61170, Note_on_c, 0, 50, 26
1, 61210, Note_on_c, 0, 78, 51
1, 61224, Note_on_c, 0, 76, 0
1, 61360, Note_on_c, 0, 50, 0
1, 61372, Note_on_c, 0, 69, 44
1, 61372, Note_on_c, 0, 61, 30
1, 61382, Note_on_c, 0, 78, 0
1, 61432, Note_on_c, 0, 52, 28
1, 61810, Note_on_c, 0, 61, 0
1, 62018, Note_on_c, 0, 68, 37
1, 62050, Note_on_c, 0, 69, 0
1, 62082, Note_on_c, 0, 59, 19
1, 62282, Note_on_c, 0, 52, 0
1, 62366, Note_on_c, 0, 59, 0
1, 62366, Note_on_c, 0, 69, 50
1, 62428, Note_on_c, 0, 68, 0
1, 62440, Note_on_c, 0, 73, 58
1, 62486, Note_on_c, 0, 69, 0
1, 62520, Note_on_c, 0, 76, 77
1, 62520, Note_on_c, 0, 57, 37
1, 62570, Note_on_c, 0, 73, 0
1, 62782, Note_on_c, 0, 61, 43
1, 62808, Note_on_c, 0, 76, 0
1, 62822, Note_on_c, 0, 57, 0
1, 63024, Note_on_c, 0, 61, 0
1, 63030, Note_on_c, 0, 76, 67
1, 63048, Note_on_c, 0, 64, 44
1, 63258, Note_on_c, 0, 64, 0
1, 63272, Note_on_c, 0, 61, 52
1, 63504, Note_on_c, 0, 61, 0
1, 63518, Note_on_c, 0, 59, 45
1, 63738, Note_on_c, 0, 59, 0
1, 63750, Note_on_c, 0, 57, 42
1, 63852, Note_on_c, 0, 76, 0
1, 63992, Note_on_c, 0, 57, 0
1, 63997, Note_on_c, 0, 56, 35
1, 64008, Note_on_c, 0, 76, 59
1, 64146, Note_on_c, 0, 74, 54
1, 64158, Note_on_c, 0, 76, 0
1, 64254, Note_on_c, 0, 73, 52
1, 64272, Note_on_c, 0, 74, 0
1, 64272, Note_on_c, 0, 57, 32
1, 64290, Note_on_c, 0, 56, 0
1, 64378, Note_on_c, 0, 71, 78
1, 64404, Note_on_c, 0, 73, 0
1, 64418, Note_on_c, 0, 71, 0
1, 64500, Note_on_c, 0, 57, 0
1, 64514, Note_on_c, 0, 71, 51
1, 64534, Note_on_c, 0, 59, 31
1, 64630, Note_on_c, 0, 69, 54
1, 64660, Note_on_c, 0, 71, 0
1, 64738, Note_on_c, 0, 68, 57
1, 64766, Note_on_c, 0, 52, 48
1, 64778, Note_on_c, 0, 69, 0
1, 64816, Note_on_c, 0, 59, 0
1, 64862, Note_on_c, 0, 66, 48
1, 64894, Note_on_c, 0, 68, 0
1, 64978, Note_on_c, 0, 54, 55
1, 64992, Note_on_c, 0, 64, 59
1, 65002, Note_on_c, 0, 66, 0
1, 65005, Note_on_c, 0, 52, 0
1, 65096, Note_on_c, 0, 62, 66
1, 65120, Note_on_c, 0, 64, 0
1, 65198, Note_on_c, 0, 61, 67
1, 65216, Note_on_c, 0, 54, 0
1, 65216, Note_on_c, 0, 62, 0
1, 65216, Note_on_c, 0, 56, 39
1, 65296, Note_on_c, 0, 56, 0
1, 65298, Note_on_c, 0, 62, 63
1, 65318, Note_on_c, 0, 61, 0
1, 65420, Note_on_c, 0, 62, 0
1, 65420, Note_on_c, 0, 61, 62
1, 65458, Note_on_c, 0, 57, 49
1, 65546, Note_on_c, 0, 61, 0
1, 65556, Note_on_c, 0, 64, 75
1, 65682, Note_on_c, 0, 69, 65
1, 65687, Note_on_c, 0, 64, 0
1, 65708, Note_on_c, 0, 61, 49
1, 65742, Note_on_c, 0, 57, 0
1, 65804, Note_on_c, 0, 73, 67
1, 65828, Note_on_c, 0, 69, 0
1, 65956, Note_on_c, 0, 61, 0
1, 65978, Note_on_c, 0, 76, 65
1, 65981, Note_on_c, 0, 64, 45
1, 66014, Note_on_c, 0, 73, 0
1, 66220, Note_on_c, 0, 64, 0
1, 66236, Note_on_c, 0, 61, 41
1, 66468, Note_on_c, 0, 61, 0
1, 66490, Note_on_c, 0, 59, 35
1, 66684, Note_on_c, 0, 76, 0
1, 66702, Note_on_c, 0, 59, 0
1, 66732, Note_on_c, 0, 88, 59
1, 66744, Note_on_c, 0, 57, 33
1, 66860, Note_on_c, 0, 88, 0
1, 66974, Note_on_c, 0, 57, 0
1, 66984, Note_on_c, 0, 56, 35
1, 66992, Note_on_c, 0, 88, 69
1, 67114, Note_on_c, 0, 86, 65
1, 67130, Note_on_c, 0, 88, 0
1, 67228, Note_on_c, 0, 85, 67
1, 67238, Note_on_c, 0, 57, 35
1, 67248, Note_on_c, 0, 56, 0
1, 67256, Note_on_c, 0, 86, 0
1, 67360, Note_on_c, 0, 83, 84
1, 67380, Note_on_c, 0, 85, 0
1, 67400, Note_on_c, 0, 83, 0
1, 67438, Note_on_c, 0, 57, 0
1, 67466, Note_on_c, 0, 83, 60
1, 67488, Note_on_c, 0, 59, 35
1, 67570, Note_on_c, 0, 81, 23
1, 67588, Note_on_c, 0, 83, 0
1, 67716, Note_on_c, 0, 80, 60
1, 67718, Note_on_c, 0, 52, 49
1, 67730, Note_on_c, 0, 81, 0
1, 67752, Note_on_c, 0, 59, 0
1, 67850, Note_on_c, 0, 78, 57
1, 67870, Note_on_c, 0, 80, 0
1, 67922, Note_on_c, 0, 54, 48
1, 67968, Note_on_c, 0, 76, 54
1, 67971, Note_on_c, 0, 52, 0
1, 67976, Note_on_c, 0, 78, 0
1, 68076, Note_on_c, 0, 74, 69
1, 68102, Note_on_c, 0, 76, 0
1, 68170, Note_on_c, 0, 74, 0
1, 68186, Note_on_c, 0, 56, 36
1, 68192, Note_on_c, 0, 73, 56
1, 68202, Note_on_c, 0, 54, 0
1, 68292, Note_on_c, 0, 74, 62
1, 68310, Note_on_c, 0, 73, 0
1, 68406, Note_on_c, 0, 74, 0
1, 68416, Note_on_c, 0, 56, 0
1, 68424, Note_on_c, 0, 73, 48
1, 68448, Note_on_c, 0, 57, 25
1, 68552, Note_on_c, 0, 76, 61
1, 68558, Note_on_c, 0, 73, 0
1, 68652, Note_on_c, 0, 57, 0
1, 68674, Note_on_c, 0, 74, 70
1, 68696, Note_on_c, 0, 76, 0
1, 68754, Note_on_c, 0, 74, 0
1, 68760, Note_on_c, 0, 73, 66
1, 68878, Note_on_c, 0, 73, 0
1, 68890, Note_on_c, 0, 57, 43
1, 68894, Note_on_c, 0, 74, 87
1, 68900, Note_on_c, 0, 54, 42
1, 69018, Note_on_c, 0, 76, 74
1, 69050, Note_on_c, 0, 74, 0
1, 69090, Note_on_c, 0, 57, 0
1, 69128, Note_on_c, 0, 78, 82
1, 69146, Note_on_c, 0, 54, 0
1, 69160, Note_on_c, 0, 76, 0
1, 69250, Note_on_c, 0, 80, 80
1, 69290, Note_on_c, 0, 78, 0
1, 69360, Note_on_c, 0, 81, 87
1, 69363, Note_on_c, 0, 80, 0
1, 69366, Note_on_c, 0, 57, 51
1, 69370, Note_on_c, 0, 50, 51
1, 69374, Note_on_c, 0, 54, 55
1, 69460, Note_on_c, 0, 81, 0
1, 69490, Note_on_c, 0, 83, 107
1, 69550, Note_on_c, 0, 57, 0
1, 69604, Note_on_c, 0, 85, 84
1, 69612, Note_on_c, 0, 50, 0
1, 69614, Note_on_c, 0, 54, 0
1, 69632, Note_on_c, 0, 83, 0
1, 69724, Note_on_c, 0, 86, 85
1, 69784, Note_on_c, 0, 85, 0
1, 69852, Note_on_c, 0, 49, 33
1, 69854, Note_on_c, 0, 57, 33
1, 69854, Note_on_c, 0, 88, 84
1, 69870, Note_on_c, 0, 52, 36
1, 69884, Note_on_c, 0, 86, 0
1, 69986, Note_on_c, 0, 86, 63
1, 70038, Note_on_c, 0, 88, 0
1, 70106, Note_on_c, 0, 85, 69
1, 70130, Note_on_c, 0, 86, 0
1, 70234, Note_on_c, 0, 83, 87
1, 70250, Note_on_c, 0, 85, 0
1, 70298, Note_on_c, 0, 52, 0
1, 70304, Note_on_c, 0, 57, 0
1, 70336, Note_on_c, 0, 49, 0
1, 70346, Note_on_c, 0, 83, 0
1, 70358, Note_on_c, 0, 81, 60
1, 70470, Note_on_c, 0, 80, 61
1, 70498, Note_on_c, 0, 81, 0
1, 70578, Note_on_c, 0, 78, 62
1, 70610, Note_on_c, 0, 80, 0
1, 70722, Note_on_c, 0, 76, 49
1, 70746, Note_on_c, 0, 78, 0
1, 70826, Note_on_c, 0, 76, 0
1, 70834, Note_on_c, 0, 74, 55
1, 70942, Note_on_c, 0, 73, 55
1, 70964, Note_on_c, 0, 74, 0
1, 71062, Note_on_c, 0, 71, 60
1, 71086, Note_on_c, 0, 73, 0
1, 71162, Note_on_c, 0, 71, 0
1, 71178, Note_on_c, 0, 69, 43
1, 71384, Note_on_c, 0, 69, 0
1, 71430, Note_on_c, 0, 78, 44
1, 71454, Note_on_c, 0, 59, 25
1, 71468, Note_on_c, 0, 50, 23
1, 71492, Note_on_c, 0, 78, 0
1, 71514, Note_on_c, 0, 80, 59
1, 71578, Note_on_c, 0, 80, 0
1, 71592, Note_on_c, 0, 78, 34
1, 71664, Note_on_c, 0, 78, 0
1, 71664, Note_on_c, 0, 80, 52
1, 71728, Note_on_c, 0, 78, 62
1, 71788, Note_on_c, 0, 80, 0
1, 71824, Note_on_c, 0, 78, 0
1, 71826, Note_on_c, 0, 76, 50
1, 71858, Note_on_c, 0, 50, 0
1, 71884, Note_on_c, 0, 76, 0
1, 71890, Note_on_c, 0, 78, 66
1, 71972, Note_on_c, 0, 80, 66
1, 72012, Note_on_c, 0, 78, 0
1, 72076, Note_on_c, 0, 81, 65
1, 72092, Note_on_c, 0, 80, 0
1, 72166, Note_on_c, 0, 61, 17
1, 72180, Note_on_c, 0, 52, 32
1, 72202, Note_on_c, 0, 81, 0
1, 72212, Note_on_c, 0, 69, 49
1, 72266, Note_on_c, 0, 59, 0
1, 72702, Note_on_c, 0, 61, 0
1, 72748, Note_on_c, 0, 73, 39
1, 72758, Note_on_c, 0, 68, 31
1, 72772, Note_on_c, 0, 62, 23
1, 72782, Note_on_c, 0, 69, 0
1, 73056, Note_on_c, 0, 71, 41
1, 73064, Note_on_c, 0, 73, 0
1, 73242, Note_on_c, 0, 71, 0
1, 73248, Note_on_c, 0, 68, 0
1, 73264, Note_on_c, 0, 52, 0
1, 73302, Note_on_c, 0, 62, 0
1, 73356, Note_on_c, 0, 61, 16
1, 73362, Note_on_c, 0, 69, 20
1, 73368, Note_on_c, 0, 57, 15
1, 73666, Note_on_c, 0, 57, 0
1, 74036, Note_on_c, 0, 45, 16
1, 74082, Note_on_c, 0, 61, 0
1, 74148, Note_on_c, 0, 69, 0
1, 74198, Note_on_c, 0, 45, 0
1, 75820, Note_on_c, 0, 69, 17
1, 75822, Note_on_c, 0, 66, 22
1, 75834, Note_on_c, 0, 50, 9
1, 75858, Note_on_c, 0, 38, 20
1, 76086, Note_on_c, 0, 66, 0
1, 76106, Note_on_c, 0, 57, 19
1, 76288, Note_on_c, 0, 57, 0
1, 76344, Note_on_c, 0, 69, 0
1, 76346, Note_on_c, 0, 66, 35
1, 76360, Note_on_c, 0, 62, 26
1, 76606, Note_on_c, 0, 57, 28
1, 76696, Note_on_c, 0, 62, 0
1, 76756, Note_on_c, 0, 66, 0
1, 76756, Note_on_c, 0, 57, 0
1, 76840, Note_on_c, 0, 67, 34
1, 76854, Note_on_c, 0, 64, 29
1, 77088, Note_on_c, 0, 57, 26
1, 77106, Note_on_c, 0, 67, 0
1, 77196, Note_on_c, 0, 64, 0
1, 77218, Note_on_c, 0, 57, 0
1, 77344, Note_on_c, 0, 69, 27
1, 77356, Note_on_c, 0, 66, 16
1, 77586, Note_on_c, 0, 66, 0
1, 77600, Note_on_c, 0, 57, 21
1, 77692, Note_on_c, 0, 57, 0
1, 77786, Note_on_c, 0, 69, 0
1, 77844, Note_on_c, 0, 66, 29
1, 77878, Note_on_c, 0, 62, 22
1, 77996, Note_on_c, 0, 62, 0
1, 78006, Note_on_c, 0, 66, 0
1, 78076, Note_on_c, 0, 61, 44
1, 78094, Note_on_c, 0, 64, 43
1, 78214, Note_on_c, 0, 64, 0
1, 78246, Note_on_c, 0, 61, 0
1, 78296, Note_on_c, 0, 66, 45
1, 78336, Note_on_c, 0, 62, 27
1, 78378, Note_on_c, 0, 50, 0
1, 78386, Note_on_c, 0, 38, 0
1, 78416, Note_on_c, 0, 62, 0
1, 78520, Note_on_c, 0, 67, 55
1, 78526, Note_on_c, 0, 64, 51
1, 78538, Note_on_c, 0, 66, 0
1, 78570, Note_on_c, 0, 64, 0
1, 78594, Note_on_c, 0, 67, 0
1, 78762, Note_on_c, 0, 69, 54
1, 78782, Note_on_c, 0, 66, 31
1, 79010, Note_on_c, 0, 62, 39
1, 79070, Note_on_c, 0, 66, 0
1, 79232, Note_on_c, 0, 62, 0
1, 79258, Note_on_c, 0, 67, 40
1, 79266, Note_on_c, 0, 71, 69
1, 79286, Note_on_c, 0, 69, 0
1, 79442, Note_on_c, 0, 67, 0
1, 79494, Note_on_c, 0, 62, 33
1, 79554, Note_on_c, 0, 71, 0
1, 79566, Note_on_c, 0, 62, 0
1, 79714, Note_on_c, 0, 73, 52
1, 79734, Note_on_c, 0, 57, 24
1, 79736, Note_on_c, 0, 67, 40
1, 79770, Note_on_c, 0, 45, 22
1, 79836, Note_on_c, 0, 57, 0
1, 79850, Note_on_c, 0, 45, 0
1, 79926, Note_on_c, 0, 67, 0
1, 79966, Note_on_c, 0, 64, 34
1, 80054, Note_on_c, 0, 64, 0
1, 80174, Note_on_c, 0, 66, 33
1, 80180, Note_on_c, 0, 74, 63
1, 80182, Note_on_c, 0, 73, 0
1, 80190, Note_on_c, 0, 50, 39
1, 80214, Note_on_c, 0, 38, 17
1, 80310, Note_on_c, 0, 38, 0
1, 80322, Note_on_c, 0, 66, 0
1, 80352, Note_on_c, 0, 50, 0
1, 80360, Note_on_c, 0, 74, 0
1, 80412, Note_on_c, 0, 69, 25
1, 80484, Note_on_c, 0, 69, 0
1, 80710, Note_on_c, 0, 66, 38
1, 80722, Note_on_c, 0, 62, 43
1, 80725, Note_on_c, 0, 78, 55
1, 80788, Note_on_c, 0, 62, 0
1, 80800, Note_on_c, 0, 78, 0
1, 80876, Note_on_c, 0, 66, 0
1, 80942, Note_on_c, 0, 76, 57
1, 80952, Note_on_c, 0, 61, 44
1, 80970, Note_on_c, 0, 64, 39
1, 81138, Note_on_c, 0, 61, 0
1, 81160, Note_on_c, 0, 78, 75
1, 81174, Note_on_c, 0, 66, 51
1, 81176, Note_on_c, 0, 64, 0
1, 81196, Note_on_c, 0, 62, 43
1, 81218, Note_on_c, 0, 76, 0
1, 81274, Note_on_c, 0, 62, 0
1, 81382, Note_on_c, 0, 79, 83
1, 81402, Note_on_c, 0, 67, 50
1, 81408, Note_on_c, 0, 64, 42
1, 81416, Note_on_c, 0, 66, 0
1, 81456, Note_on_c, 0, 67, 0
1, 81459, Note_on_c, 0, 64, 0
1, 81476, Note_on_c, 0, 78, 0
1, 81628, Note_on_c, 0, 69, 43
1, 81628, Note_on_c, 0, 81, 73
1, 81631, Note_on_c, 0, 66, 30
1, 81650, Note_on_c, 0, 79, 0
1, 81880, Note_on_c, 0, 62, 39
1, 81978, Note_on_c, 0, 62, 0
1, 81981, Note_on_c, 0, 66, 0
1, 82104, Note_on_c, 0, 69, 0
1, 82106, Note_on_c, 0, 83, 85
1, 82118, Note_on_c, 0, 71, 42
1, 82136, Note_on_c, 0, 81, 0
1, 82158, Note_on_c, 0, 67, 10
1, 82356, Note_on_c, 0, 67, 0
1, 82364, Note_on_c, 0, 71, 0
1, 82378, Note_on_c, 0, 62, 39
1, 82438, Note_on_c, 0, 62, 0
1, 82588, Note_on_c, 0, 73, 43
1, 82596, Note_on_c, 0, 85, 50
1, 82608, Note_on_c, 0, 67, 32
1, 82620, Note_on_c, 0, 83, 0
1, 82814, Note_on_c, 0, 67, 0
1, 82844, Note_on_c, 0, 64, 33
1, 82946, Note_on_c, 0, 64, 0
1, 82988, Note_on_c, 0, 73, 0
1, 83070, Note_on_c, 0, 74, 38
1, 83072, Note_on_c, 0, 66, 21
1, 83078, Note_on_c, 0, 85, 0
1, 83078, Note_on_c, 0, 86, 46
1, 83318, Note_on_c, 0, 74, 0
1, 83352, Note_on_c, 0, 69, 19
1, 83444, Note_on_c, 0, 66, 0
1, 83584, Note_on_c, 0, 86, 0
1, 83592, Note_on_c, 0, 74, 47
1, 83595, Note_on_c, 0, 66, 22
1, 83602, Note_on_c, 0, 69, 0
1, 83664, Note_on_c, 0, 66, 0
1, 83808, Note_on_c, 0, 73, 61
1, 83820, Note_on_c, 0, 74, 0
1, 83838, Note_on_c, 0, 64, 36
1, 83878, Note_on_c, 0, 73, 0
1, 83898, Note_on_c, 0, 64, 0
1, 84036, Note_on_c, 0, 71, 71
1, 84044, Note_on_c, 0, 62, 59
1, 84106, Note_on_c, 0, 71, 0
1, 84240, Note_on_c, 0, 62, 0
1, 84246, Note_on_c, 0, 61, 62
1, 84249, Note_on_c, 0, 69, 62
1, 84336, Note_on_c, 0, 61, 0
1, 84498, Note_on_c, 0, 68, 54
1, 84518, Note_on_c, 0, 69, 0
1, 84518, Note_on_c, 0, 52, 60
1, 84521, Note_on_c, 0, 59, 43
1, 84764, Note_on_c, 0, 59, 0
1, 84770, Note_on_c, 0, 64, 38
1, 84864, Note_on_c, 0, 64, 0
1, 84970, Note_on_c, 0, 61, 58
1, 84976, Note_on_c, 0, 69, 61
1, 84990, Note_on_c, 0, 49, 54
1, 84992, Note_on_c, 0, 52, 0
1, 84995, Note_on_c, 0, 68, 0
1, 85214, Note_on_c, 0, 69, 0
1, 85262, Note_on_c, 0, 64, 25
1, 85324, Note_on_c, 0, 61, 0
1, 85380, Note_on_c, 0, 64, 0
1, 85430, Note_on_c, 0, 49, 0
1, 85468, Note_on_c, 0, 73, 50
1, 85476, Note_on_c, 0, 69, 29
1, 85486, Note_on_c, 0, 45, 33
1, 85650, Note_on_c, 0, 69, 0
1, 85728, Note_on_c, 0, 64, 42
1, 85822, Note_on_c, 0, 64, 0
1, 85924, Note_on_c, 0, 45, 0
1, 85948, Note_on_c, 0, 71, 52
1, 85956, Note_on_c, 0, 68, 30
1, 85968, Note_on_c, 0, 73, 0
1, 85971, Note_on_c, 0, 52, 36
1, 86142, Note_on_c, 0, 52, 0
1, 86182, Note_on_c, 0, 68, 0
1, 86188, Note_on_c, 0, 64, 34
1, 86248, Note_on_c, 0, 71, 0
1, 86282, Note_on_c, 0, 64, 0
1, 86502, Note_on_c, 0, 74, 39
1, 86502, Note_on_c, 0, 86, 76
1, 86528, Note_on_c, 0, 66, 18
1, 86654, Note_on_c, 0, 66, 0
1, 86774, Note_on_c, 0, 74, 0
1, 86774, Note_on_c, 0, 73, 53
1, 86774, Note_on_c, 0, 85, 65
1, 86798, Note_on_c, 0, 64, 26
1, 86804, Note_on_c, 0, 86, 0
1, 86830, Note_on_c, 0, 73, 0
1, 86864, Note_on_c, 0, 64, 0
1, 86952, Note_on_c, 0, 85, 0
1, 86996, Note_on_c, 0, 83, 82
1, 87002, Note_on_c, 0, 71, 63
1, 87018, Note_on_c, 0, 62, 38
1, 87058, Note_on_c, 0, 71, 0
1, 87116, Note_on_c, 0, 62, 0
1, 87152, Note_on_c, 0, 83, 0
1, 87224, Note_on_c, 0, 81, 62
1, 87226, Note_on_c, 0, 69, 40
1, 87232, Note_on_c, 0, 61, 48
1, 87266, Note_on_c, 0, 81, 0
1, 87292, Note_on_c, 0, 61, 0
1, 87338, Note_on_c, 0, 69, 0
1, 87448, Note_on_c, 0, 87, 55
1, 87516, Note_on_c, 0, 87, 0
1, 87528, Note_on_c, 0, 88, 60
1, 87540, Note_on_c, 0, 59, 45
1, 87542, Note_on_c, 0, 68, 47
1, 87744, Note_on_c, 0, 59, 0
1, 87768, Note_on_c, 0, 68, 0
1, 87800, Note_on_c, 0, 64, 40
1, 87818, Note_on_c, 0, 88, 0
1, 87872, Note_on_c, 0, 64, 0
1, 87972, Note_on_c, 0, 87, 30
1, 88006, Note_on_c, 0, 69, 29
1, 88008, Note_on_c, 0, 61, 28
1, 88020, Note_on_c, 0, 88, 61
1, 88039, Note_on_c, 0, 87, 0
1, 88170, Note_on_c, 0, 69, 0
1, 88240, Note_on_c, 0, 61, 0
1, 88266, Note_on_c, 0, 88, 0
1, 88280, Note_on_c, 0, 64, 29
1, 88348, Note_on_c, 0, 64, 0
1, 88402, Note_on_c, 0, 87, 23
1, 88436, Note_on_c, 0, 73, 28
1, 88472, Note_on_c, 0, 87, 0
1, 88486, Note_on_c, 0, 69, 13
1, 88488, Note_on_c, 0, 88, 30
1, 88656, Note_on_c, 0, 69, 0
1, 88722, Note_on_c, 0, 88, 0
1, 88722, Note_on_c, 0, 64, 35
1, 88802, Note_on_c, 0, 64, 0
1, 88880, Note_on_c, 0, 87, 17
1, 88954, Note_on_c, 0, 87, 0
1, 88986, Note_on_c, 0, 73, 0
1, 88986, Note_on_c, 0, 88, 17
1, 88989, Note_on_c, 0, 68, 20
1, 88992, Note_on_c, 0, 71, 32
1, 89145, Note_on_c, 0, 88, 0
1, 89308, Note_on_c, 0, 71, 0
1, 89314, Note_on_c, 0, 64, 35
1, 89390, Note_on_c, 0, 64, 0
1, 89472, Note_on_c, 0, 68, 0
1, 89568, Note_on_c, 0, 45, 51
1, 89586, Note_on_c, 0, 73, 57
1, 89600, Note_on_c, 0, 64, 45
1, 89796, Note_on_c, 0, 44, 68
1, 89801, Note_on_c, 0, 45, 0
1, 89822, Note_on_c, 0, 71, 79
1, 89856, Note_on_c, 0, 73, 0
1, 90032, Note_on_c, 0, 45, 73
1, 90038, Note_on_c, 0, 73, 73
1, 90054, Note_on_c, 0, 44, 0
1, 90116, Note_on_c, 0, 71, 0
1, 90264, Note_on_c, 0, 45, 0
1, 90272, Note_on_c, 0, 74, 78
1, 90278, Note_on_c, 0, 47, 68
1, 90308, Note_on_c, 0, 73, 0
1, 90416, Note_on_c, 0, 74, 0
1, 90500, Note_on_c, 0, 76, 73
1, 90516, Note_on_c, 0, 49, 65
1, 90536, Note_on_c, 0, 47, 0
1, 90748, Note_on_c, 0, 69, 33
1, 90866, Note_on_c, 0, 69, 0
1, 90996, Note_on_c, 0, 73, 62
1, 91002, Note_on_c, 0, 49, 0
1, 91006, Note_on_c, 0, 69, 33
1, 91008, Note_on_c, 0, 64, 0
1, 91014, Note_on_c, 0, 52, 58
1, 91088, Note_on_c, 0, 76, 0
1, 91258, Note_on_c, 0, 64, 51
1, 91286, Note_on_c, 0, 69, 0
1, 91434, Note_on_c, 0, 64, 0
1, 91466, Note_on_c, 0, 52, 0
1, 91476, Note_on_c, 0, 71, 74
1, 91476, Note_on_c, 0, 68, 48
1, 91488, Note_on_c, 0, 40, 57
1, 91542, Note_on_c, 0, 73, 0
1, 91724, Note_on_c, 0, 64, 45
1, 91782, Note_on_c, 0, 68, 0
1, 91874, Note_on_c, 0, 64, 0
1, 91888, Note_on_c, 0, 40, 0
1, 91952, Note_on_c, 0, 45, 39
1, 91960, Note_on_c, 0, 69, 59
1, 91996, Note_on_c, 0, 71, 0
1, 92090, Note_on_c, 0, 45, 0
1, 92206, Note_on_c, 0, 64, 34
1, 92218, Note_on_c, 0, 69, 0
1, 92264, Note_on_c, 0, 64, 0
1, 92428, Note_on_c, 0, 85, 47
1, 92446, Note_on_c, 0, 73, 37
1, 92462, Note_on_c, 0, 69, 21
1, 92674, Note_on_c, 0, 73, 0
1, 92686, Note_on_c, 0, 68, 35
1, 92688, Note_on_c, 0, 85, 0
1, 92700, Note_on_c, 0, 69, 0
1, 92704, Note_on_c, 0, 83, 58
1, 92724, Note_on_c, 0, 71, 41
1, 92898, Note_on_c, 0, 71, 0
1, 92914, Note_on_c, 0, 85, 70
1, 92920, Note_on_c, 0, 73, 44
1, 92936, Note_on_c, 0, 69, 24
1, 92942, Note_on_c, 0, 68, 0
1, 92958, Note_on_c, 0, 83, 0
1, 93050, Note_on_c, 0, 73, 0
1, 93058, Note_on_c, 0, 69, 0
1, 93128, Note_on_c, 0, 74, 49
1, 93140, Note_on_c, 0, 86, 77
1, 93156, Note_on_c, 0, 71, 32
1, 93186, Note_on_c, 0, 74, 0
1, 93218, Note_on_c, 0, 85, 0
1, 93226, Note_on_c, 0, 71, 0
1, 93398, Note_on_c, 0, 76, 29
1, 93401, Note_on_c, 0, 88, 59
1, 93412, Note_on_c, 0, 73, 26
1, 93418, Note_on_c, 0, 86, 0
1, 93482, Note_on_c, 0, 73, 0
1, 93650, Note_on_c, 0, 64, 25
1, 93784, Note_on_c, 0, 64, 0
1, 93874, Note_on_c, 0, 73, 30
1, 93888, Note_on_c, 0, 85, 38
1, 93900, Note_on_c, 0, 76, 0
1, 93902, Note_on_c, 0, 69, 10
1, 93948, Note_on_c, 0, 88, 0
1, 94120, Note_on_c, 0, 69, 0
1, 94138, Note_on_c, 0, 64, 25
1, 94272, Note_on_c, 0, 64, 0
1, 94388, Note_on_c, 0, 85, 0
1, 94400, Note_on_c, 0, 71, 28
1, 94402, Note_on_c, 0, 83, 47
1, 94406, Note_on_c, 0, 68, 28
1, 94412, Note_on_c, 0, 73, 0
1, 94620, Note_on_c, 0, 64, 34
1, 94710, Note_on_c, 0, 68, 0
1, 94768, Note_on_c, 0, 64, 0
1, 94800, Note_on_c, 0, 83, 0
1, 94854, Note_on_c, 0, 81, 36
1, 94874, Note_on_c, 0, 69, 32
1, 94876, Note_on_c, 0, 71, 0
1, 94952, Note_on_c, 0, 81, 0
1, 95104, Note_on_c, 0, 64, 38
1, 95120, Note_on_c, 0, 69, 0
1, 95318, Note_on_c, 0, 64, 0
1, 95326, Note_on_c, 0, 66, 39
1, 95352, Note_on_c, 0, 59, 36
1, 95364, Note_on_c, 0, 50, 30
1, 95578, Note_on_c, 0, 74, 59
1, 95598, Note_on_c, 0, 50, 0
1, 95620, Note_on_c, 0, 59, 0
1, 95628, Note_on_c, 0, 66, 0
1, 95808, Note_on_c, 0, 52, 51
1, 95810, Note_on_c, 0, 71, 78
1, 95840, Note_on_c, 0, 62, 34
1, 95920, Note_on_c, 0, 74, 0
1, 96038, Note_on_c, 0, 68, 67
1, 96108, Note_on_c, 0, 71, 0
1, 96154, Note_on_c, 0, 62, 0
1, 96166, Note_on_c, 0, 52, 0
1, 96262, Note_on_c, 0, 69, 55
1, 96266, Note_on_c, 0, 57, 27
1, 96276, Note_on_c, 0, 61, 40
1, 96326, Note_on_c, 0, 68, 0
1, 96468, Note_on_c, 0, 57, 0
1, 96472, Note_on_c, 0, 61, 0
1, 96492, Note_on_c, 0, 64, 59
1, 96522, Note_on_c, 0, 69, 0
1, 96708, Note_on_c, 0, 64, 0
1, 96716, Note_on_c, 0, 66, 36
1, 96746, Note_on_c, 0, 59, 34
1, 96748, Note_on_c, 0, 50, 36
1, 96930, Note_on_c, 0, 50, 0
1, 96938, Note_on_c, 0, 59, 0
1, 96968, Note_on_c, 0, 74, 42
1, 96971, Note_on_c, 0, 66, 0
1, 97206, Note_on_c, 0, 71, 45
1, 97216, Note_on_c, 0, 62, 25
1, 97222, Note_on_c, 0, 52, 26
1, 97232, Note_on_c, 0, 74, 0
1, 97430, Note_on_c, 0, 68, 39
1, 97448, Note_on_c, 0, 71, 0
1, 97491, Note_on_c, 0, 52, 0
1, 97512, Note_on_c, 0, 62, 0
1, 97696, Note_on_c, 0, 69, 25
1, 97714, Note_on_c, 0, 57, 14
1, 97714, Note_on_c, 0, 61, 27
1, 97720, Note_on_c, 0, 68, 0
1, 97954, Note_on_c, 0, 68, 44
1, 97960, Note_on_c, 0, 69, 0
1, 98156, Note_on_c, 0, 61, 0
1, 98188, Note_on_c, 0, 57, 0
1, 98188, Note_on_c, 0, 69, 43
1, 98238, Note_on_c, 0, 68, 0
1, 98462, Note_on_c, 0, 71, 40
1, 98486, Note_on_c, 0, 69, 0
1, 98732, Note_on_c, 0, 67, 30
1, 98824, Note_on_c, 0, 71, 0
1, 99030, Note_on_c, 0, 64, 33
1, 99044, Note_on_c, 0, 67, 0
1, 99400, Note_on_c, 0, 64, 0
1, 99418, Note_on_c, 0, 47, 16
1, 99422, Note_on_c, 0, 69, 23
1, 99428, Note_on_c, 0, 66, 23
1, 99432, Note_on_c, 0, 35, 26
1, 99724, Note_on_c, 0, 59, 25
1, 99740, Note_on_c, 0, 66, 0
1, 99906, Note_on_c, 0, 59, 0
1, 99988, Note_on_c, 0, 66, 31
1, 99994, Note_on_c, 0, 63, 36
1, 100022, Note_on_c, 0, 69, 0
1, 100250, Note_on_c, 0, 59, 33
1, 100282, Note_on_c, 0, 63, 0
1, 100330, Note_on_c, 0, 59, 0
1, 100464, Note_on_c, 0, 67, 46
1, 100474, Note_on_c, 0, 64, 39
1, 100504, Note_on_c, 0, 66, 0
1, 100710, Note_on_c, 0, 59, 36
1, 100824, Note_on_c, 0, 64, 0
1, 100900, Note_on_c, 0, 59, 0
1, 100910, Note_on_c, 0, 35, 0
1, 100936, Note_on_c, 0, 66, 37
1, 100936, Note_on_c, 0, 69, 48
1, 100956, Note_on_c, 0, 67, 0
1, 100984, Note_on_c, 0, 47, 0
1, 101144, Note_on_c, 0, 66, 0
1, 101178, Note_on_c, 0, 59, 30
1, 101410, Note_on_c, 0, 59, 0
1, 101456, Note_on_c, 0, 66, 25
1, 101472, Note_on_c, 0, 84, 65
1, 101480, Note_on_c, 0, 63, 23
1, 101502, Note_on_c, 0, 69, 0
1, 101646, Note_on_c, 0, 63, 0
1, 101688, Note_on_c, 0, 84, 0
1, 101704, Note_on_c, 0, 59, 30
1, 101712, Note_on_c, 0, 83, 88
1, 101850, Note_on_c, 0, 59, 0
1, 101920, Note_on_c, 0, 67, 43
1, 101924, Note_on_c, 0, 83, 0
1, 101928, Note_on_c, 0, 66, 0
1, 101928, Note_on_c, 0, 81, 69
1, 101940, Note_on_c, 0, 64, 35
1, 102152, Note_on_c, 0, 79, 73
1, 102157, Note_on_c, 0, 59, 38
1, 102180, Note_on_c, 0, 64, 0
1, 102188, Note_on_c, 0, 81, 0
1, 102248, Note_on_c, 0, 59, 0
1, 102338, Note_on_c, 0, 67, 0
1, 102388, Note_on_c, 0, 69, 24
1, 102396, Note_on_c, 0, 66, 21
1, 102402, Note_on_c, 0, 79, 0
1, 102414, Note_on_c, 0, 78, 55
1, 102584, Note_on_c, 0, 66, 0
1, 102628, Note_on_c, 0, 59, 33
1, 102686, Note_on_c, 0, 78, 0
1, 102742, Note_on_c, 0, 59, 0
1, 102850, Note_on_c, 0, 63, 44
1, 102853, Note_on_c, 0, 81, 47
1, 102856, Note_on_c, 0, 66, 34
1, 102870, Note_on_c, 0, 69, 0
1, 103074, Note_on_c, 0, 63, 0
1, 103104, Note_on_c, 0, 79, 54
1, 103106, Note_on_c, 0, 59, 30
1, 103116, Note_on_c, 0, 81, 0
1, 103120, Note_on_c, 0, 66, 0
1, 103310, Note_on_c, 0, 79, 0
1, 103314, Note_on_c, 0, 59, 0
1, 103314, Note_on_c, 0, 78, 49
1, 103332, Note_on_c, 0, 67, 29
1, 103335, Note_on_c, 0, 64, 31
1, 103542, Note_on_c, 0, 59, 24
1, 103560, Note_on_c, 0, 78, 0
1, 103566, Note_on_c, 0, 76, 37
1, 103582, Note_on_c, 0, 64, 0
1, 103690, Note_on_c, 0, 67, 0
1, 103708, Note_on_c, 0, 59, 0
1, 103732, Note_on_c, 0, 76, 0
1, 103800, Note_on_c, 0, 75, 42
1, 103802, Note_on_c, 0, 66, 23
1, 103814, Note_on_c, 0, 69, 24
1, 103902, Note_on_c, 0, 66, 0
1, 103910, Note_on_c, 0, 75, 0
1, 103914, Note_on_c, 0, 69, 0
1, 104326, Note_on_c, 0, 83, 113
1, 104330, Note_on_c, 0, 71, 105
1, 104332, Note_on_c, 0, 59, 84
1, 104340, Note_on_c, 0, 47, 69
1, 104404, Note_on_c, 0, 83, 0
1, 104418, Note_on_c, 0, 71, 0
1, 104426, Note_on_c, 0, 59, 0
1, 104446, Note_on_c, 0, 47, 0
1, 104540, Note_on_c, 0, 69, 85
1, 104542, Note_on_c, 0, 81, 93
1, 104548, Note_on_c, 0, 57, 75
1, 104550, Note_on_c, 0, 45, 76
1, 104614, Note_on_c, 0, 69, 0
1, 104614, Note_on_c, 0, 57, 0
1, 104614, Note_on_c, 0, 45, 0
1, 104617, Note_on_c, 0, 81, 0
1, 104734, Note_on_c, 0, 79, 100
1, 104742, Note_on_c, 0, 67, 89
1, 104750, Note_on_c, 0, 55, 92
1, 104750, Note_on_c, 0, 43, 91
1, 104792, Note_on_c, 0, 43, 0
1, 104806, Note_on_c, 0, 55, 0
1, 104832, Note_on_c, 0, 79, 0
1, 104838, Note_on_c, 0, 67, 0
1, 104936, Note_on_c, 0, 66, 86
1, 104939, Note_on_c, 0, 78, 89
1, 104944, Note_on_c, 0, 54, 95
1, 104952, Note_on_c, 0, 42, 86
1, 104988, Note_on_c, 0, 54, 0
1, 104991, Note_on_c, 0, 42, 0
1, 105014, Note_on_c, 0, 78, 0
1, 105050, Note_on_c, 0, 66, 0
1, 105182, Note_on_c, 0, 76, 89
1, 105192, Note_on_c, 0, 64, 81
1, 105192, Note_on_c, 0, 52, 103
1, 105192, Note_on_c, 0, 40, 105
1, 105254, Note_on_c, 0, 40, 0
1, 105286, Note_on_c, 0, 52, 0
1, 105292, Note_on_c, 0, 64, 0
1, 105314, Note_on_c, 0, 76, 0
1, 105636, Note_on_c, 0, 76, 93
1, 105640, Note_on_c, 0, 64, 92
1, 105642, Note_on_c, 0, 52, 100
1, 105646, Note_on_c, 0, 40, 97
1, 105686, Note_on_c, 0, 65, 28
1, 105710, Note_on_c, 0, 40, 0
1, 105736, Note_on_c, 0, 52, 0
1, 105739, Note_on_c, 0, 64, 0
1, 105750, Note_on_c, 0, 65, 0
1, 105788, Note_on_c, 0, 76, 0
1, 106100, Note_on_c, 0, 83, 112
1, 106108, Note_on_c, 0, 71, 91
1, 106110, Note_on_c, 0, 59, 85
1, 106112, Note_on_c, 0, 47, 82
1, 106160, Note_on_c, 0, 59, 0
1, 106176, Note_on_c, 0, 83, 0
1, 106176, Note_on_c, 0, 47, 0
1, 106224, Note_on_c, 0, 71, 0
1, 106552, Note_on_c, 0, 76, 75
1, 106560, Note_on_c, 0, 64, 73
1, 106566, Note_on_c, 0, 40, 68
1, 106568, Note_on_c, 0, 52, 65
1, 106598, Note_on_c, 0, 64, 0
1, 106608, Note_on_c, 0, 40, 0
1, 106608, Note_on_c, 0, 52, 0
1, 106676, Note_on_c, 0, 76, 0
1, 107022, Note_on_c, 0, 83, 103
1, 107025, Note_on_c, 0, 71, 81
1, 107032, Note_on_c, 0, 47, 68
1, 107034, Note_on_c, 0, 59, 62
1, 107082, Note_on_c, 0, 59, 0
1, 107085, Note_on_c, 0, 47, 0
1, 107107, Note_on_c, 0, 71, 0
1, 107116, Note_on_c, 0, 83, 0
1, 107222, Note_on_c, 0, 81, 91
1, 107222, Note_on_c, 0, 69, 75
1, 107228, Note_on_c, 0, 57, 65
1, 107232, Note_on_c, 0, 45, 70
1, 107280, Note_on_c, 0, 57, 0
1, 107288, Note_on_c, 0, 45, 0
1, 107310, Note_on_c, 0, 69, 0
1, 107334, Note_on_c, 0, 81, 0
1, 107418, Note_on_c, 0, 79, 99
1, 107421, Note_on_c, 0, 67, 88
1, 107428, Note_on_c, 0, 55, 84
1, 107430, Note_on_c, 0, 43, 85
1, 107506, Note_on_c, 0, 55, 0
1, 107508, Note_on_c, 0, 67, 0
1, 107514, Note_on_c, 0, 79, 0
1, 107546, Note_on_c, 0, 43, 0
1, 107616, Note_on_c, 0, 66, 84
1, 107619, Note_on_c, 0, 78, 89
1, 107624, Note_on_c, 0, 54, 79
1, 107634, Note_on_c, 0, 42, 66
1, 107676, Note_on_c, 0, 54, 0
1, 107712, Note_on_c, 0, 66, 0
1, 107720, Note_on_c, 0, 42, 0
1, 107736, Note_on_c, 0, 78, 0
1, 107852, Note_on_c, 0, 76, 94
1, 107855, Note_on_c, 0, 40, 96
1, 107858, Note_on_c, 0, 64, 92
1, 107858, Note_on_c, 0, 52, 92
1, 107960, Note_on_c, 0, 40, 0
1, 107962, Note_on_c, 0, 64, 0
1, 107966, Note_on_c, 0, 52, 0
1, 107990, Note_on_c, 0, 76, 0
1, 108314, Note_on_c, 0, 64, 79
1, 108316, Note_on_c, 0, 76, 80
1, 108316, Note_on_c, 0, 52, 88
1, 108319, Note_on_c, 0, 40, 87
1, 108358, Note_on_c, 0, 40, 0
1, 108386, Note_on_c, 0, 52, 0
1, 108402, Note_on_c, 0, 64, 0
1, 108464, Note_on_c, 0, 76, 0
1, 108780, Note_on_c, 0, 83, 98
1, 108783, Note_on_c, 0, 71, 70
1, 108786, Note_on_c, 0, 47, 76
1, 108788, Note_on_c, 0, 59, 73
1, 108824, Note_on_c, 0, 47, 0
1, 108827, Note_on_c, 0, 59, 0
1, 108836, Note_on_c, 0, 71, 0
1, 108848, Note_on_c, 0, 83, 0
1, 109244, Note_on_c, 0, 76, 69
1, 109256, Note_on_c, 0, 64, 57
1, 109270, Note_on_c, 0, 52, 55
1, 109273, Note_on_c, 0, 40, 65
1, 109358, Note_on_c, 0, 52, 0
1, 109360, Note_on_c, 0, 64, 0
1, 109396, Note_on_c, 0, 40, 0
1, 109454, Note_on_c, 0, 76, 0
1, 109730, Note_on_c, 0, 76, 46
1, 109814, Note_on_c, 0, 76, 0
1, 109958, Note_on_c, 0, 74, 61
1, 110016, Note_on_c, 0, 74, 0
1, 110170, Note_on_c, 0, 76, 63
1, 110300, Note_on_c, 0, 76, 0
1, 110400, Note_on_c, 0, 77, 65
1, 110536, Note_on_c, 0, 77, 0
1, 110628, Note_on_c, 0, 60, 30
1, 110652, Note_on_c, 0, 79, 71
1, 110884, Note_on_c, 0, 64, 39
1, 110950, Note_on_c, 0, 79, 0
1, 110972, Note_on_c, 0, 64, 0
1, 111112, Note_on_c, 0, 67, 31
1, 111120, Note_on_c, 0, 79, 59
1, 111306, Note_on_c, 0, 67, 0
1, 111332, Note_on_c, 0, 79, 0
1, 111340, Note_on_c, 0, 64, 40
1, 111476, Note_on_c, 0, 64, 0
1, 111547, Note_on_c, 0, 65, 34
1, 111554, Note_on_c, 0, 59, 38
1, 111576, Note_on_c, 0, 60, 0
1, 111764, Note_on_c, 0, 79, 85
1, 111786, Note_on_c, 0, 62, 34
1, 111788, Note_on_c, 0, 65, 0
1, 111898, Note_on_c, 0, 79, 0
1, 111982, Note_on_c, 0, 62, 0
1, 112004, Note_on_c, 0, 84, 70
1, 112026, Note_on_c, 0, 60, 28
1, 112090, Note_on_c, 0, 59, 0
1, 112236, Note_on_c, 0, 64, 34
1, 112430, Note_on_c, 0, 84, 0
1, 112432, Note_on_c, 0, 64, 0
1, 112450, Note_on_c, 0, 67, 34
1, 112462, Note_on_c, 0, 79, 40
1, 112696, Note_on_c, 0, 67, 0
1, 112732, Note_on_c, 0, 79, 0
1, 112732, Note_on_c, 0, 64, 26
1, 112818, Note_on_c, 0, 64, 0
1, 112922, Note_on_c, 0, 60, 0
1, 112932, Note_on_c, 0, 59, 28
1, 112948, Note_on_c, 0, 65, 14
1, 113158, Note_on_c, 0, 62, 27
1, 113226, Note_on_c, 0, 65, 0
1, 113368, Note_on_c, 0, 79, 76
1, 113382, Note_on_c, 0, 62, 0
1, 113408, Note_on_c, 0, 60, 25
1, 113414, Note_on_c, 0, 59, 0
1, 113606, Note_on_c, 0, 64, 40
1, 113688, Note_on_c, 0, 64, 0
1, 113704, Note_on_c, 0, 79, 0
1, 113810, Note_on_c, 0, 79, 68
1, 113819, Note_on_c, 0, 67, 37
1, 114060, Note_on_c, 0, 67, 0
1, 114078, Note_on_c, 0, 64, 30
1, 114244, Note_on_c, 0, 64, 0
1, 114308, Note_on_c, 0, 65, 24
1, 114316, Note_on_c, 0, 59, 28
1, 114318, Note_on_c, 0, 60, 0
1, 114444, Note_on_c, 0, 79, 0
1, 114506, Note_on_c, 0, 79, 91
1, 114564, Note_on_c, 0, 62, 27
1, 114648, Note_on_c, 0, 65, 0
1, 114738, Note_on_c, 0, 62, 0
1, 114746, Note_on_c, 0, 79, 0
1, 114748, Note_on_c, 0, 84, 73
1, 114768, Note_on_c, 0, 60, 36
1, 114778, Note_on_c, 0, 59, 0
1, 114986, Note_on_c, 0, 64, 43
1, 115098, Note_on_c, 0, 64, 0
1, 115194, Note_on_c, 0, 79, 49
1, 115218, Note_on_c, 0, 67, 25
1, 115220, Note_on_c, 0, 84, 0
1, 115454, Note_on_c, 0, 64, 34
1, 115468, Note_on_c, 0, 60, 0
1, 115596, Note_on_c, 0, 79, 0
1, 115618, Note_on_c, 0, 67, 0
1, 115636, Note_on_c, 0, 64, 0
1, 115670, Note_on_c, 0, 60, 42
1, 115902, Note_on_c, 0, 64, 44
1, 115972, Note_on_c, 0, 79, 89
1, 116110, Note_on_c, 0, 64, 0
1, 116148, Note_on_c, 0, 79, 0
1, 116168, Note_on_c, 0, 60, 0
1, 116188, Note_on_c, 0, 88, 72
1, 116188, Note_on_c, 0, 58, 28
1, 116438, Note_on_c, 0, 60, 43
1, 116688, Note_on_c, 0, 79, 48
1, 116694, Note_on_c, 0, 88, 0
1, 116698, Note_on_c, 0, 64, 27
1, 116708, Note_on_c, 0, 60, 0
1, 116888, Note_on_c, 0, 64, 0
1, 116920, Note_on_c, 0, 67, 39
1, 116930, Note_on_c, 0, 79, 0
1, 117094, Note_on_c, 0, 67, 0
1, 117148, Note_on_c, 0, 64, 48
1, 117282, Note_on_c, 0, 58, 0
1, 117348, Note_on_c, 0, 60, 43
1, 117394, Note_on_c, 0, 64, 0
1, 117418, Note_on_c, 0, 79, 92
1, 117592, Note_on_c, 0, 60, 0
1, 117594, Note_on_c, 0, 57, 39
1, 117614, Note_on_c, 0, 79, 0
1, 117616, Note_on_c, 0, 88, 86
1, 117842, Note_on_c, 0, 61, 52
1, 118058, Note_on_c, 0, 64, 54
1, 118068, Note_on_c, 0, 61, 0
1, 118124, Note_on_c, 0, 79, 79
1, 118126, Note_on_c, 0, 64, 0
1, 118138, Note_on_c, 0, 88, 0
1, 118286, Note_on_c, 0, 79, 0
1, 118292, Note_on_c, 0, 67, 51
1, 118378, Note_on_c, 0, 57, 0
1, 118468, Note_on_c, 0, 67, 0
1, 118530, Note_on_c, 0, 64, 64
1, 118734, Note_on_c, 0, 61, 59
1, 118752, Note_on_c, 0, 64, 0
1, 118844, Note_on_c, 0, 79, 92
1, 118884, Note_on_c, 0, 79, 0
1, 118982, Note_on_c, 0, 79, 67
1, 118984, Note_on_c, 0, 62, 57
1, 118998, Note_on_c, 0, 57, 37
1, 119026, Note_on_c, 0, 61, 0
1, 119250, Note_on_c, 0, 77, 66
1, 119318, Note_on_c, 0, 79, 0
1, 119466, Note_on_c, 0, 76, 64
1, 119492, Note_on_c, 0, 77, 0
1, 119694, Note_on_c, 0, 62, 0
1, 119698, Note_on_c, 0, 77, 64
1, 119732, Note_on_c, 0, 76, 0
1, 119784, Note_on_c, 0, 57, 0
1, 119914, Note_on_c, 0, 64, 30
1, 119932, Note_on_c, 0, 76, 46
1, 119932, Note_on_c, 0, 56, 30
1, 119964, Note_on_c, 0, 77, 0
1, 120122, Note_on_c, 0, 64, 0
1, 120144, Note_on_c, 0, 56, 0
1, 120156, Note_on_c, 0, 74, 52
1, 120176, Note_on_c, 0, 65, 29
1, 120184, Note_on_c, 0, 76, 0
1, 120252, Note_on_c, 0, 65, 0
1, 120390, Note_on_c, 0, 74, 0
1, 120398, Note_on_c, 0, 73, 37
1, 120414, Note_on_c, 0, 64, 32
1, 120456, Note_on_c, 0, 57, 15
1, 120620, Note_on_c, 0, 80, 45
1, 120668, Note_on_c, 0, 73, 0
1, 120864, Note_on_c, 0, 81, 53
1, 120888, Note_on_c, 0, 80, 0
1, 120914, Note_on_c, 0, 64, 0
1, 120998, Note_on_c, 0, 57, 0
1, 121076, Note_on_c, 0, 80, 75
1, 121118, Note_on_c, 0, 81, 0
1, 121318, Note_on_c, 0, 81, 82
1, 121350, Note_on_c, 0, 80, 0
1, 121548, Note_on_c, 0, 76, 76
1, 121584, Note_on_c, 0, 81, 0
1, 121778, Note_on_c, 0, 68, 44
1, 121786, Note_on_c, 0, 79, 77
1, 121794, Note_on_c, 0, 58, 30
1, 121822, Note_on_c, 0, 62, 32
1, 121828, Note_on_c, 0, 76, 0
1, 122018, Note_on_c, 0, 77, 71
1, 122064, Note_on_c, 0, 79, 0
1, 122246, Note_on_c, 0, 76, 54
1, 122256, Note_on_c, 0, 77, 0
1, 122480, Note_on_c, 0, 77, 44
1, 122496, Note_on_c, 0, 76, 0
1, 122702, Note_on_c, 0, 76, 53
1, 122708, Note_on_c, 0, 77, 0
1, 122852, Note_on_c, 0, 62, 0
1, 122928, Note_on_c, 0, 74, 48
1, 122932, Note_on_c, 0, 76, 0
1, 122986, Note_on_c, 0, 68, 0
1, 123000, Note_on_c, 0, 58, 0
1, 123130, Note_on_c, 0, 74, 0
1, 123156, Note_on_c, 0, 81, 49
1, 123162, Note_on_c, 0, 69, 17
1, 123178, Note_on_c, 0, 61, 22
1, 123186, Note_on_c, 0, 57, 15
1, 123382, Note_on_c, 0, 80, 66
1, 123402, Note_on_c, 0, 81, 0
1, 123480, Note_on_c, 0, 57, 0
1, 123486, Note_on_c, 0, 69, 0
1, 123558, Note_on_c, 0, 61, 0
1, 123614, Note_on_c, 0, 81, 68
1, 123660, Note_on_c, 0, 80, 0
1, 123832, Note_on_c, 0, 76, 64
1, 123852, Note_on_c, 0, 81, 0
1, 124072, Note_on_c, 0, 77, 61
1, 124075, Note_on_c, 0, 65, 21
1, 124084, Note_on_c, 0, 57, 22
1, 124090, Note_on_c, 0, 62, 26
1, 124110, Note_on_c, 0, 76, 0
1, 124270, Note_on_c, 0, 65, 0
1, 124273, Note_on_c, 0, 57, 0
1, 124276, Note_on_c, 0, 62, 0
1, 124296, Note_on_c, 0, 74, 63
1, 124310, Note_on_c, 0, 77, 0
1, 124498, Note_on_c, 0, 61, 40
1, 124500, Note_on_c, 0, 81, 56
1, 124504, Note_on_c, 0, 64, 49
1, 124512, Note_on_c, 0, 74, 0
1, 124522, Note_on_c, 0, 57, 39
1, 124728, Note_on_c, 0, 80, 68
1, 124772, Note_on_c, 0, 81, 0
1, 124798, Note_on_c, 0, 64, 0
1, 124801, Note_on_c, 0, 57, 0
1, 124856, Note_on_c, 0, 61, 0
1, 124976, Note_on_c, 0, 81, 71
1, 125018, Note_on_c, 0, 80, 0
1, 125200, Note_on_c, 0, 76, 57
1, 125224, Note_on_c, 0, 81, 0
1, 125448, Note_on_c, 0, 77, 43
1, 125450, Note_on_c, 0, 76, 0
1, 125464, Note_on_c, 0, 62, 26
1, 125466, Note_on_c, 0, 65, 20
1, 125468, Note_on_c, 0, 57, 21
1, 125662, Note_on_c, 0, 62, 0
1, 125662, Note_on_c, 0, 65, 0
1, 125665, Note_on_c, 0, 57, 0
1, 125700, Note_on_c, 0, 77, 0
1, 125706, Note_on_c, 0, 74, 47
1, 125936, Note_on_c, 0, 74, 0
1, 125952, Note_on_c, 0, 69, 32
1, 125958, Note_on_c, 0, 64, 26
1, 125970, Note_on_c, 0, 61, 18
1, 125982, Note_on_c, 0, 57, 22
1, 126172, Note_on_c, 0, 68, 48
1, 126184, Note_on_c, 0, 69, 0
1, 126380, Note_on_c, 0, 64, 0
1, 126406, Note_on_c, 0, 57, 0
1, 126410, Note_on_c, 0, 69, 41
1, 126436, Note_on_c, 0, 61, 0
1, 126438, Note_on_c, 0, 68, 0
1, 126644, Note_on_c, 0, 68, 44
1, 126662, Note_on_c, 0, 69, 0
1, 126926, Note_on_c, 0, 69, 20
1, 126958, Note_on_c, 0, 68, 0
1, 127198, Note_on_c, 0, 69, 0
1, 127214, Note_on_c, 0, 68, 14
1, 127624, Note_on_c, 0, 68, 0
1, 127638, Note_on_c, 0, 69, 19
1, 127648, Note_on_c, 0, 38, 24
1, 127648, Note_on_c, 0, 50, 20
1, 127666, Note_on_c, 0, 66, 9
1, 127892, Note_on_c, 0, 66, 0
1, 127968, Note_on_c, 0, 57, 14
1, 128154, Note_on_c, 0, 57, 0
1, 128238, Note_on_c, 0, 66, 23
1, 128248, Note_on_c, 0, 69, 0
1, 128258, Note_on_c, 0, 62, 16
1, 128490, Note_on_c, 0, 57, 24
1, 128503, Note_on_c, 0, 62, 0
1, 128584, Note_on_c, 0, 57, 0
1, 128666, Note_on_c, 0, 66, 0
1, 128714, Note_on_c, 0, 67, 41
1, 128748, Note_on_c, 0, 64, 34
1, 128966, Note_on_c, 0, 57, 43
1, 128990, Note_on_c, 0, 67, 0
1, 129046, Note_on_c, 0, 64, 0
1, 129054, Note_on_c, 0, 57, 0
1, 129192, Note_on_c, 0, 69, 41
1, 129204, Note_on_c, 0, 66, 38
1, 129426, Note_on_c, 0, 69, 0
1, 129440, Note_on_c, 0, 62, 54
1, 129448, Note_on_c, 0, 66, 0
1, 129508, Note_on_c, 0, 62, 0
1, 129534, Note_on_c, 0, 50, 0
1, 129684, Note_on_c, 0, 74, 67
1, 129706, Note_on_c, 0, 71, 46
1, 129872, Note_on_c, 0, 38, 0
1, 129922, Note_on_c, 0, 73, 60
1, 129930, Note_on_c, 0, 71, 0
1, 129936, Note_on_c, 0, 69, 42
1, 129968, Note_on_c, 0, 74, 0
1, 130131, Note_on_c, 0, 69, 0
1, 130166, Note_on_c, 0, 71, 66
1, 130180, Note_on_c, 0, 67, 33
1, 130194, Note_on_c, 0, 73, 0
1, 130216, Note_on_c, 0, 71, 0
1, 130374, Note_on_c, 0, 69, 54
1, 130382, Note_on_c, 0, 66, 36
1, 130404, Note_on_c, 0, 67, 0
1, 130522, Note_on_c, 0, 66, 0
1, 130636, Note_on_c, 0, 67, 57
1, 130652, Note_on_c, 0, 47, 55
1, 130658, Note_on_c, 0, 69, 0
1, 130894, Note_on_c, 0, 62, 35
1, 131080, Note_on_c, 0, 62, 0
1, 131084, Note_on_c, 0, 47, 0
1, 131122, Note_on_c, 0, 69, 43
1, 131128, Note_on_c, 0, 45, 45
1, 131132, Note_on_c, 0, 66, 27
1, 131142, Note_on_c, 0, 67, 0
1, 131392, Note_on_c, 0, 62, 33
1, 131426, Note_on_c, 0, 66, 0
1, 131478, Note_on_c, 0, 62, 0
1, 131596, Note_on_c, 0, 69, 0
1, 131598, Note_on_c, 0, 45, 0
1, 131600, Note_on_c, 0, 71, 43
1, 131620, Note_on_c, 0, 43, 37
1, 131620, Note_on_c, 0, 67, 21
1, 131848, Note_on_c, 0, 62, 27
1, 131964, Note_on_c, 0, 43, 0
1, 131982, Note_on_c, 0, 67, 0
1, 132002, Note_on_c, 0, 62, 0
1, 132030, Note_on_c, 0, 71, 0
1, 132064, Note_on_c, 0, 50, 37
1, 132070, Note_on_c, 0, 69, 30
1, 132090, Note_on_c, 0, 66, 13
1, 132236, Note_on_c, 0, 50, 0
1, 132286, Note_on_c, 0, 69, 0
1, 132308, Note_on_c, 0, 62, 39
1, 132334, Note_on_c, 0, 66, 0
1, 132368, Note_on_c, 0, 62, 0
1, 132622, Note_on_c, 0, 74, 36
1, 132625, Note_on_c, 0, 86, 63
1, 132634, Note_on_c, 0, 71, 24
1, 132748, Note_on_c, 0, 71, 0
1, 132864, Note_on_c, 0, 73, 52
1, 132874, Note_on_c, 0, 85, 68
1, 132900, Note_on_c, 0, 74, 0
1, 132903, Note_on_c, 0, 69, 28
1, 132914, Note_on_c, 0, 86, 0
1, 133016, Note_on_c, 0, 69, 0
1, 133066, Note_on_c, 0, 73, 0
1, 133094, Note_on_c, 0, 83, 95
1, 133096, Note_on_c, 0, 71, 45
1, 133104, Note_on_c, 0, 67, 39
1, 133118, Note_on_c, 0, 85, 0
1, 133160, Note_on_c, 0, 71, 0
1, 133268, Note_on_c, 0, 83, 0
1, 133306, Note_on_c, 0, 69, 46
1, 133309, Note_on_c, 0, 67, 0
1, 133316, Note_on_c, 0, 81, 69
1, 133328, Note_on_c, 0, 66, 27
1, 133400, Note_on_c, 0, 66, 0
1, 133576, Note_on_c, 0, 79, 74
1, 133592, Note_on_c, 0, 69, 0
1, 133596, Note_on_c, 0, 81, 0
1, 133596, Note_on_c, 0, 67, 41
1, 133622, Note_on_c, 0, 64, 27
1, 133834, Note_on_c, 0, 64, 0
1, 133854, Note_on_c, 0, 62, 22
1, 133982, Note_on_c, 0, 62, 0
1, 134046, Note_on_c, 0, 79, 0
1, 134060, Note_on_c, 0, 67, 0
1, 134063, Note_on_c, 0, 69, 34
1, 134070, Note_on_c, 0, 81, 58
1, 134084, Note_on_c, 0, 66, 16
1, 134314, Note_on_c, 0, 62, 28
1, 134322, Note_on_c, 0, 66, 0
1, 134460, Note_on_c, 0, 62, 0
1, 134470, Note_on_c, 0, 81, 0
1, 134524, Note_on_c, 0, 69, 0
1, 134538, Note_on_c, 0, 71, 36
1, 134544, Note_on_c, 0, 67, 28
1, 134552, Note_on_c, 0, 83, 73
1, 134806, Note_on_c, 0, 62, 25
1, 134808, Note_on_c, 0, 67, 0
1, 134914, Note_on_c, 0, 62, 0
1, 134980, Note_on_c, 0, 83, 0
1, 135056, Note_on_c, 0, 71, 0
1, 135074, Note_on_c, 0, 66, 13
1, 135079, Note_on_c, 0, 69, 20
1, 135087, Note_on_c, 0, 81, 44
1, 135366, Note_on_c, 0, 66, 0
1, 135366, Note_on_c, 0, 62, 19
1, 135484, Note_on_c, 0, 62, 0
1, 135538, Note_on_c, 0, 69, 0
1, 135566, Note_on_c, 0, 71, 35
1, 135588, Note_on_c, 0, 67, 16
1, 135618, Note_on_c, 0, 81, 0
1, 135706, Note_on_c, 0, 67, 0
1, 135758, Note_on_c, 0, 71, 0
1, 135786, Note_on_c, 0, 69, 32
1, 135800, Note_on_c, 0, 66, 20
1, 135996, Note_on_c, 0, 66, 0
1, 136008, Note_on_c, 0, 69, 0
1, 136028, Note_on_c, 0, 64, 38
1, 136034, Note_on_c, 0, 67, 28
1, 136110, Note_on_c, 0, 67, 0
1, 136240, Note_on_c, 0, 66, 52
1, 136262, Note_on_c, 0, 62, 36
1, 136276, Note_on_c, 0, 64, 0
1, 136328, Note_on_c, 0, 62, 0
1, 136516, Note_on_c, 0, 61, 38
1, 136528, Note_on_c, 0, 45, 29
1, 136534, Note_on_c, 0, 66, 0
1, 136536, Note_on_c, 0, 64, 51
1, 136776, Note_on_c, 0, 57, 40
1, 136858, Note_on_c, 0, 61, 0
1, 136936, Note_on_c, 0, 57, 0
1, 137018, Note_on_c, 0, 45, 0
1, 137018, Note_on_c, 0, 69, 37
1, 137021, Note_on_c, 0, 42, 44
1, 137036, Note_on_c, 0, 62, 36
1, 137044, Note_on_c, 0, 64, 0
1, 137256, Note_on_c, 0, 57, 29
1, 137268, Note_on_c, 0, 62, 0
1, 137414, Note_on_c, 0, 57, 0
1, 137486, Note_on_c, 0, 66, 36
1, 137488, Note_on_c, 0, 38, 38
1, 137500, Note_on_c, 0, 62, 32
1, 137514, Note_on_c, 0, 69, 0
1, 137524, Note_on_c, 0, 42, 0
1, 137736, Note_on_c, 0, 57, 30
1, 137739, Note_on_c, 0, 62, 0
1, 137856, Note_on_c, 0, 57, 0
1, 137928, Note_on_c, 0, 38, 0
1, 137960, Note_on_c, 0, 66, 0
1, 137974, Note_on_c, 0, 45, 30
1, 137977, Note_on_c, 0, 61, 31
1, 138006, Note_on_c, 0, 64, 32
1, 138168, Note_on_c, 0, 45, 0
1, 138210, Note_on_c, 0, 57, 41
1, 138264, Note_on_c, 0, 64, 0
1, 138274, Note_on_c, 0, 57, 0
1, 138284, Note_on_c, 0, 61, 0
1, 138560, Note_on_c, 0, 71, 35
1, 138564, Note_on_c, 0, 83, 74
1, 138566, Note_on_c, 0, 67, 32
1, 138644, Note_on_c, 0, 71, 0
1, 138784, Note_on_c, 0, 67, 0
1, 138790, Note_on_c, 0, 83, 0
1, 138810, Note_on_c, 0, 66, 32
1, 138813, Note_on_c, 0, 81, 65
1, 138813, Note_on_c, 0, 69, 44
1, 138944, Note_on_c, 0, 66, 0
1, 139048, Note_on_c, 0, 79, 72
1, 139056, Note_on_c, 0, 69, 0
1, 139064, Note_on_c, 0, 67, 38
1, 139086, Note_on_c, 0, 64, 32
1, 139088, Note_on_c, 0, 81, 0
1, 139160, Note_on_c, 0, 64, 0
1, 139234, Note_on_c, 0, 67, 0
1, 139268, Note_on_c, 0, 66, 45
1, 139278, Note_on_c, 0, 79, 0
1, 139280, Note_on_c, 0, 62, 39
1, 139286, Note_on_c, 0, 78, 48
1, 139324, Note_on_c, 0, 66, 0
1, 139454, Note_on_c, 0, 62, 0
1, 139458, Note_on_c, 0, 78, 0
1, 139470, Note_on_c, 0, 80, 42
1, 139518, Note_on_c, 0, 81, 56
1, 139518, Note_on_c, 0, 64, 44
1, 139520, Note_on_c, 0, 61, 35
1, 139530, Note_on_c, 0, 80, 0
1, 139718, Note_on_c, 0, 81, 0
1, 139744, Note_on_c, 0, 57, 41
1, 139782, Note_on_c, 0, 61, 0
1, 139840, Note_on_c, 0, 57, 0
1, 139936, Note_on_c, 0, 64, 0
1, 139939, Note_on_c, 0, 80, 48
1, 139984, Note_on_c, 0, 66, 16
1, 139987, Note_on_c, 0, 81, 57
1, 139992, Note_on_c, 0, 69, 24
1, 140002, Note_on_c, 0, 80, 0
1, 140128, Note_on_c, 0, 66, 0
1, 140186, Note_on_c, 0, 81, 0
1, 140206, Note_on_c, 0, 57, 27
1, 140374, Note_on_c, 0, 80, 31
1, 140384, Note_on_c, 0, 57, 0
1, 140426, Note_on_c, 0, 66, 30
1, 140440, Note_on_c, 0, 81, 43
1, 140442, Note_on_c, 0, 80, 0
1, 140446, Note_on_c, 0, 62, 29
1, 140458, Note_on_c, 0, 69, 0
1, 140650, Note_on_c, 0, 81, 0
1, 140666, Note_on_c, 0, 62, 0
1, 140666, Note_on_c, 0, 57, 31
1, 140818, Note_on_c, 0, 57, 0
1, 140826, Note_on_c, 0, 80, 20
1, 140880, Note_on_c, 0, 66, 0
1, 140898, Note_on_c, 0, 80, 0
1, 140898, Note_on_c, 0, 61, 33
1, 140908, Note_on_c, 0, 81, 27
1, 140932, Note_on_c, 0, 64, 28
1, 141058, Note_on_c, 0, 61, 0
1, 141064, Note_on_c, 0, 81, 0
1, 141104, Note_on_c, 0, 64, 0
1, 141222, Note_on_c, 0, 69, 23
1, 141298, Note_on_c, 0, 69, 0
1, 141500, Note_on_c, 0, 62, 39
1, 141506, Note_on_c, 0, 74, 56
1, 141532, Note_on_c, 0, 59, 21
1, 141716, Note_on_c, 0, 59, 0
1, 141734, Note_on_c, 0, 73, 58
1, 141742, Note_on_c, 0, 58, 35
1, 141750, Note_on_c, 0, 74, 0
1, 141922, Note_on_c, 0, 58, 0
1, 141962, Note_on_c, 0, 73, 0
1, 141964, Note_on_c, 0, 74, 75
1, 141974, Note_on_c, 0, 59, 44
1, 142122, Note_on_c, 0, 74, 0
1, 142148, Note_on_c, 0, 59, 0
1, 142184, Note_on_c, 0, 71, 70
1, 142198, Note_on_c, 0, 55, 51
1, 142230, Note_on_c, 0, 71, 0
1, 142378, Note_on_c, 0, 55, 0
1, 142408, Note_on_c, 0, 69, 51
1, 142424, Note_on_c, 0, 54, 48
1, 142480, Note_on_c, 0, 62, 0
1, 142648, Note_on_c, 0, 57, 48
1, 142651, Note_on_c, 0, 69, 0
1, 142754, Note_on_c, 0, 57, 0
1, 142876, Note_on_c, 0, 54, 0
1, 142882, Note_on_c, 0, 67, 57
1, 142896, Note_on_c, 0, 52, 49
1, 142906, Note_on_c, 0, 64, 41
1, 142978, Note_on_c, 0, 64, 0
1, 143130, Note_on_c, 0, 59, 46
1, 143264, Note_on_c, 0, 52, 0
1, 143304, Note_on_c, 0, 59, 0
1, 143350, Note_on_c, 0, 64, 69
1, 143352, Note_on_c, 0, 61, 51
1, 143354, Note_on_c, 0, 67, 0
1, 143356, Note_on_c, 0, 45, 34
1, 143596, Note_on_c, 0, 64, 0
1, 143606, Note_on_c, 0, 57, 50
1, 143674, Note_on_c, 0, 61, 0
1, 143782, Note_on_c, 0, 45, 0
1, 143818, Note_on_c, 0, 57, 0
1, 143838, Note_on_c, 0, 66, 48
1, 143838, Note_on_c, 0, 50, 52
1, 143864, Note_on_c, 0, 62, 37
1, 143958, Note_on_c, 0, 50, 0
1, 143982, Note_on_c, 0, 62, 0
1, 144086, Note_on_c, 0, 69, 54
1, 144134, Note_on_c, 0, 69, 0
1, 144138, Note_on_c, 0, 66, 0
1, 144397, Note_on_c, 0, 86, 54
1, 144402, Note_on_c, 0, 71, 41
1, 144408, Note_on_c, 0, 74, 61
1, 144610, Note_on_c, 0, 85, 69
1, 144616, Note_on_c, 0, 73, 62
1, 144620, Note_on_c, 0, 71, 0
1, 144624, Note_on_c, 0, 70, 42
1, 144654, Note_on_c, 0, 86, 0
1, 144666, Note_on_c, 0, 74, 0
1, 144818, Note_on_c, 0, 73, 0
1, 144854, Note_on_c, 0, 86, 71
1, 144858, Note_on_c, 0, 74, 55
1, 144860, Note_on_c, 0, 71, 48
1, 144868, Note_on_c, 0, 85, 0
1, 144890, Note_on_c, 0, 70, 0
1, 144972, Note_on_c, 0, 71, 0
1, 145084, Note_on_c, 0, 71, 56
1, 145098, Note_on_c, 0, 83, 96
1, 145101, Note_on_c, 0, 67, 37
1, 145116, Note_on_c, 0, 74, 0
1, 145136, Note_on_c, 0, 86, 0
1, 145288, Note_on_c, 0, 67, 0
1, 145330, Note_on_c, 0, 83, 0
1, 145352, Note_on_c, 0, 71, 0
1, 145356, Note_on_c, 0, 81, 71
1, 145364, Note_on_c, 0, 69, 36
1, 145394, Note_on_c, 0, 66, 17
1, 145554, Note_on_c, 0, 66, 0
1, 145560, Note_on_c, 0, 69, 0
1, 145588, Note_on_c, 0, 62, 44
1, 145732, Note_on_c, 0, 62, 0
1, 145768, Note_on_c, 0, 81, 0
1, 145800, Note_on_c, 0, 67, 45
1, 145806, Note_on_c, 0, 79, 63
1, 145832, Note_on_c, 0, 64, 36
1, 145918, Note_on_c, 0, 64, 0
1, 146034, Note_on_c, 0, 59, 33
1, 146192, Note_on_c, 0, 59, 0
1, 146246, Note_on_c, 0, 67, 0
1, 146248, Note_on_c, 0, 79, 0
1, 146262, Note_on_c, 0, 64, 46
1, 146267, Note_on_c, 0, 76, 38
1, 146276, Note_on_c, 0, 61, 30
1, 146484, Note_on_c, 0, 64, 0
1, 146500, Note_on_c, 0, 57, 32
1, 146544, Note_on_c, 0, 61, 0
1, 146682, Note_on_c, 0, 57, 0
1, 146704, Note_on_c, 0, 76, 0
1, 146732, Note_on_c, 0, 66, 31
1, 146735, Note_on_c, 0, 78, 33
1, 146780, Note_on_c, 0, 62, 23
1, 146890, Note_on_c, 0, 78, 0
1, 146944, Note_on_c, 0, 66, 0
1, 146966, Note_on_c, 0, 69, 34
1, 147046, Note_on_c, 0, 69, 0
1, 147216, Note_on_c, 0, 69, 40
1, 147228, Note_on_c, 0, 43, 35
1, 147236, Note_on_c, 0, 62, 0
1, 147238, Note_on_c, 0, 59, 34
1, 147460, Note_on_c, 0, 67, 50
1, 147468, Note_on_c, 0, 69, 0
1, 147486, Note_on_c, 0, 43, 0
1, 147702, Note_on_c, 0, 64, 60
1, 147708, Note_on_c, 0, 67, 0
1, 147708, Note_on_c, 0, 55, 42
1, 147711, Note_on_c, 0, 45, 35
1, 147722, Note_on_c, 0, 59, 0
1, 147930, Note_on_c, 0, 61, 65
1, 147944, Note_on_c, 0, 55, 0
1, 147982, Note_on_c, 0, 45, 0
1, 147988, Note_on_c, 0, 64, 0
1, 148156, Note_on_c, 0, 61, 0
1, 148168, Note_on_c, 0, 62, 70
1, 148182, Note_on_c, 0, 54, 39
1, 148198, Note_on_c, 0, 50, 36
1, 148414, Note_on_c, 0, 66, 53
1, 148444, Note_on_c, 0, 62, 0
1, 148450, Note_on_c, 0, 50, 0
1, 148468, Note_on_c, 0, 54, 0
1, 148584, Note_on_c, 0, 66, 0
1, 148682, Note_on_c, 0, 59, 40
1, 148682, Note_on_c, 0, 69, 39
1, 148709, Note_on_c, 0, 43, 37
1, 148908, Note_on_c, 0, 43, 0
1, 148946, Note_on_c, 0, 67, 39
1, 148960, Note_on_c, 0, 69, 0
1, 149090, Note_on_c, 0, 59, 0
1, 149115, Note_on_c, 0, 67, 0
1, 149190, Note_on_c, 0, 64, 45
1, 149206, Note_on_c, 0, 45, 22
1, 149214, Note_on_c, 0, 55, 30
1, 149360, Note_on_c, 0, 55, 0
1, 149386, Note_on_c, 0, 45, 0
1, 149422, Note_on_c, 0, 64, 0
1, 149470, Note_on_c, 0, 61, 31
1, 149750, Note_on_c, 0, 61, 0
1, 149786, Note_on_c, 0, 62, 28
1, 149810, Note_on_c, 0, 54, 27
1, 149830, Note_on_c, 0, 50, 22
1, 150010, Note_on_c, 0, 54, 0
1, 150018, Note_on_c, 0, 50, 0
1, 150240, Note_on_c, 0, 62, 0
1, 150506, Note_on_c, 0, 38, 27
1, 150638, Note_on_c, 0, 38, 0
1, 152292, Note_on_c, 0, 61, 43
1, 152352, Note_on_c, 0, 64, 63
1, 152410, Note_on_c, 0, 69, 76
1, 152414, Note_on_c, 0, 57, 59
1, 152422, Note_on_c, 0, 45, 52
1, 152436, Note_on_c, 0, 61, 0
1, 152520, Note_on_c, 0, 64, 0
1, 152996, Note_on_c, 0, 57, 0
1, 153042, Note_on_c, 0, 45, 0
1, 153364, Note_on_c, 0, 52, 57
1, 153366, Note_on_c, 0, 64, 81
1, 153366, Note_on_c, 0, 40, 61
1, 153374, Note_on_c, 0, 69, 0
1, 153528, Note_on_c, 0, 40, 0
1, 153536, Note_on_c, 0, 52, 0
1, 153836, Note_on_c, 0, 64, 0
1, 153836, Note_on_c, 0, 61, 58
1, 153842, Note_on_c, 0, 73, 70
1, 153854, Note_on_c, 0, 49, 44
1, 154134, Note_on_c, 0, 74, 60
1, 154150, Note_on_c, 0, 73, 0
1, 154153, Note_on_c, 0, 61, 0
1, 154232, Note_on_c, 0, 74, 0
1, 154236, Note_on_c, 0, 71, 62
1, 154352, Note_on_c, 0, 49, 0
1, 154366, Note_on_c, 0, 45, 22
1, 154366, Note_on_c, 0, 57, 12
1, 154369, Note_on_c, 0, 71, 0
1, 154372, Note_on_c, 0, 69, 37
1, 154770, Note_on_c, 0, 57, 0
1, 154804, Note_on_c, 0, 45, 0
1, 154836, Note_on_c, 0, 69, 0
1, 155252, Note_on_c, 0, 76, 40
1, 155538, Note_on_c, 0, 78, 41
1, 155598, Note_on_c, 0, 76, 0
1, 155624, Note_on_c, 0, 78, 0
1, 155670, Note_on_c, 0, 74, 36
1, 155782, Note_on_c, 0, 73, 43
1, 155800, Note_on_c, 0, 74, 0
1, 156248, Note_on_c, 0, 85, 56
1, 156272, Note_on_c, 0, 66, 17
1, 156280, Note_on_c, 0, 73, 0
1, 156282, Note_on_c, 0, 57, 27
1, 156488, Note_on_c, 0, 57, 0
1, 156528, Note_on_c, 0, 66, 0
1, 156536, Note_on_c, 0, 85, 0
1, 156754, Note_on_c, 0, 75, 39
1, 156764, Note_on_c, 0, 69, 14
1, 156800, Note_on_c, 0, 59, 15
1, 157280, Note_on_c, 0, 69, 0
1, 157304, Note_on_c, 0, 76, 26
1, 157332, Note_on_c, 0, 68, 18
1, 157340, Note_on_c, 0, 59, 0
1, 157358, Note_on_c, 0, 75, 0
1, 157361, Note_on_c, 0, 64, 17
1, 157974, Note_on_c, 0, 68, 0
1, 158008, Note_on_c, 0, 64, 0
1, 158224, Note_on_c, 0, 77, 50
1, 158326, Note_on_c, 0, 76, 0
1, 158493, Note_on_c, 0, 80, 52
1, 158528, Note_on_c, 0, 77, 0
1, 158732, Note_on_c, 0, 78, 48
1, 158810, Note_on_c, 0, 80, 0
1, 158966, Note_on_c, 0, 76, 48
1, 159004, Note_on_c, 0, 78, 0
1, 159206, Note_on_c, 0, 74, 42
1, 159238, Note_on_c, 0, 76, 0
1, 159436, Note_on_c, 0, 73, 38
1, 159504, Note_on_c, 0, 74, 0
1, 159670, Note_on_c, 0, 71, 56
1, 159714, Note_on_c, 0, 73, 0
1, 159918, Note_on_c, 0, 69, 34
1, 159940, Note_on_c, 0, 71, 0
1, 159952, Note_on_c, 0, 52, 31
1, 160160, Note_on_c, 0, 68, 44
1, 160208, Note_on_c, 0, 62, 24
1, 160244, Note_on_c, 0, 69, 0
1, 160394, Note_on_c, 0, 62, 0
1, 160396, Note_on_c, 0, 76, 43
1, 160434, Note_on_c, 0, 68, 0
1, 160438, Note_on_c, 0, 59, 24
1, 160652, Note_on_c, 0, 74, 37
1, 160660, Note_on_c, 0, 59, 0
1, 160666, Note_on_c, 0, 62, 28
1, 160682, Note_on_c, 0, 76, 0
1, 160866, Note_on_c, 0, 62, 0
1, 160892, Note_on_c, 0, 74, 0
1, 160908, Note_on_c, 0, 59, 37
1, 161074, Note_on_c, 0, 52, 0
1, 161126, Note_on_c, 0, 59, 0
1, 161136, Note_on_c, 0, 62, 34
1, 161358, Note_on_c, 0, 62, 0
1, 161370, Note_on_c, 0, 71, 62
1, 161400, Note_on_c, 0, 52, 35
1, 161598, Note_on_c, 0, 69, 57
1, 161614, Note_on_c, 0, 61, 35
1, 161632, Note_on_c, 0, 71, 0
1, 161824, Note_on_c, 0, 61, 0
1, 161834, Note_on_c, 0, 78, 57
1, 161846, Note_on_c, 0, 69, 0
1, 161868, Note_on_c, 0, 57, 22
1, 162052, Note_on_c, 0, 57, 0
1, 162058, Note_on_c, 0, 61, 34
1, 162088, Note_on_c, 0, 76, 45
1, 162100, Note_on_c, 0, 78, 0
1, 162288, Note_on_c, 0, 61, 0
1, 162322, Note_on_c, 0, 57, 40
1, 162334, Note_on_c, 0, 76, 0
1, 162466, Note_on_c, 0, 52, 0
1, 162538, Note_on_c, 0, 61, 46
1, 162552, Note_on_c, 0, 57, 0
1, 162784, Note_on_c, 0, 61, 0
1, 162790, Note_on_c, 0, 73, 62
1, 162812, Note_on_c, 0, 50, 40
1, 163044, Note_on_c, 0, 71, 84
1, 163052, Note_on_c, 0, 59, 43
1, 163114, Note_on_c, 0, 73, 0
1, 163264, Note_on_c, 0, 59, 0
1, 163280, Note_on_c, 0, 54, 49
1, 163294, Note_on_c, 0, 79, 84
1, 163316, Note_on_c, 0, 71, 0
1, 163518, Note_on_c, 0, 54, 0
1, 163534, Note_on_c, 0, 59, 46
1, 163566, Note_on_c, 0, 78, 64
1, 163580, Note_on_c, 0, 79, 0
1, 163724, Note_on_c, 0, 59, 0
1, 163754, Note_on_c, 0, 54, 52
1, 163757, Note_on_c, 0, 78, 0
1, 163810, Note_on_c, 0, 50, 0
1, 163982, Note_on_c, 0, 54, 0
1, 163985, Note_on_c, 0, 59, 41
1, 164264, Note_on_c, 0, 59, 0
1, 164284, Note_on_c, 0, 66, 48
1, 164294, Note_on_c, 0, 50, 38
1, 164772, Note_on_c, 0, 76, 42
1, 164777, Note_on_c, 0, 66, 0
1, 164832, Note_on_c, 0, 50, 0
1, 165018, Note_on_c, 0, 74, 47
1, 165086, Note_on_c, 0, 76, 0
1, 165236, Note_on_c, 0, 73, 42
1, 165252, Note_on_c, 0, 74, 0
1, 165464, Note_on_c, 0, 71, 49
1, 165476, Note_on_c, 0, 73, 0
1, 165702, Note_on_c, 0, 69, 41
1, 165716, Note_on_c, 0, 71, 0
1, 165722, Note_on_c, 0, 62, 20
1, 165728, Note_on_c, 0, 52, 22
1, 165970, Note_on_c, 0, 68, 25
1, 165980, Note_on_c, 0, 69, 0
1, 166132, Note_on_c, 0, 62, 0
1, 166214, Note_on_c, 0, 52, 0
1, 166258, Note_on_c, 0, 61, 25
1, 166262, Note_on_c, 0, 69, 22
1, 166282, Note_on_c, 0, 68, 0
1, 166300, Note_on_c, 0, 57, 12
1, 166686, Note_on_c, 0, 57, 0
1, 166689, Note_on_c, 0, 61, 0
1, 166834, Note_on_c, 0, 69, 0
1, 167208, Note_on_c, 0, 71, 68
1, 167270, Note_on_c, 0, 76, 53
1, 167326, Note_on_c, 0, 80, 74
1, 167368, Note_on_c, 0, 71, 0
1, 167386, Note_on_c, 0, 76, 0
1, 167402, Note_on_c, 0, 83, 111
1, 167414, Note_on_c, 0, 52, 69
1, 167478, Note_on_c, 0, 80, 0
1, 167646, Note_on_c, 0, 56, 59
1, 167812, Note_on_c, 0, 52, 0
1, 167864, Note_on_c, 0, 59, 57
1, 167886, Note_on_c, 0, 56, 0
1, 168102, Note_on_c, 0, 56, 50
1, 168122, Note_on_c, 0, 59, 0
1, 168332, Note_on_c, 0, 54, 52
1, 168348, Note_on_c, 0, 56, 0
1, 168544, Note_on_c, 0, 54, 0
1, 168570, Note_on_c, 0, 52, 53
1, 168608, Note_on_c, 0, 83, 0
1, 168782, Note_on_c, 0, 52, 0
1, 168786, Note_on_c, 0, 51, 50
1, 168814, Note_on_c, 0, 83, 85
1, 168886, Note_on_c, 0, 83, 0
1, 168920, Note_on_c, 0, 81, 49
1, 168992, Note_on_c, 0, 81, 0
1, 169012, Note_on_c, 0, 80, 63
1, 169016, Note_on_c, 0, 51, 0
1, 169016, Note_on_c, 0, 52, 48
1, 169088, Note_on_c, 0, 80, 0
1, 169120, Note_on_c, 0, 78, 65
1, 169164, Note_on_c, 0, 78, 0
1, 169186, Note_on_c, 0, 52, 0
1, 169220, Note_on_c, 0, 54, 53
1, 169236, Note_on_c, 0, 78, 65
1, 169366, Note_on_c, 0, 76, 52
1, 169369, Note_on_c, 0, 78, 0
1, 169432, Note_on_c, 0, 54, 0
1, 169458, Note_on_c, 0, 75, 66
1, 169472, Note_on_c, 0, 47, 33
1, 169490, Note_on_c, 0, 76, 0
1, 169562, Note_on_c, 0, 73, 64
1, 169590, Note_on_c, 0, 75, 0
1, 169668, Note_on_c, 0, 71, 79
1, 169680, Note_on_c, 0, 49, 45
1, 169710, Note_on_c, 0, 47, 0
1, 169718, Note_on_c, 0, 73, 0
1, 169748, Note_on_c, 0, 71, 0
1, 169766, Note_on_c, 0, 69, 65
1, 169874, Note_on_c, 0, 68, 71
1, 169884, Note_on_c, 0, 51, 51
1, 169906, Note_on_c, 0, 49, 0
1, 169906, Note_on_c, 0, 69, 0
1, 169974, Note_on_c, 0, 69, 62
1, 169998, Note_on_c, 0, 68, 0
1, 170088, Note_on_c, 0, 51, 0
1, 170088, Note_on_c, 0, 68, 66
1, 170096, Note_on_c, 0, 69, 0
1, 170110, Note_on_c, 0, 52, 60
1, 170196, Note_on_c, 0, 68, 0
1, 170208, Note_on_c, 0, 71, 74
1, 170292, Note_on_c, 0, 52, 0
1, 170296, Note_on_c, 0, 56, 54
1, 170320, Note_on_c, 0, 76, 68
1, 170352, Note_on_c, 0, 71, 0
1, 170426, Note_on_c, 0, 80, 70
1, 170434, Note_on_c, 0, 76, 0
1, 170526, Note_on_c, 0, 56, 0
1, 170544, Note_on_c, 0, 59, 50
1, 170560, Note_on_c, 0, 83, 83
1, 170568, Note_on_c, 0, 80, 0
1, 170798, Note_on_c, 0, 56, 41
1, 170804, Note_on_c, 0, 59, 0
1, 171028, Note_on_c, 0, 54, 43
1, 171034, Note_on_c, 0, 56, 0
1, 171260, Note_on_c, 0, 54, 0
1, 171264, Note_on_c, 0, 52, 49
1, 171358, Note_on_c, 0, 83, 0
1, 171494, Note_on_c, 0, 52, 0
1, 171494, Note_on_c, 0, 51, 55
1, 171502, Note_on_c, 0, 83, 94
1, 171610, Note_on_c, 0, 81, 63
1, 171638, Note_on_c, 0, 83, 0
1, 171712, Note_on_c, 0, 80, 70
1, 171724, Note_on_c, 0, 81, 0
1, 171724, Note_on_c, 0, 52, 65
1, 171736, Note_on_c, 0, 51, 0
1, 171824, Note_on_c, 0, 78, 70
1, 171829, Note_on_c, 0, 80, 0
1, 171868, Note_on_c, 0, 78, 0
1, 171910, Note_on_c, 0, 52, 0
1, 171942, Note_on_c, 0, 54, 55
1, 171945, Note_on_c, 0, 78, 62
1, 172068, Note_on_c, 0, 76, 57
1, 172073, Note_on_c, 0, 78, 0
1, 172164, Note_on_c, 0, 54, 0
1, 172176, Note_on_c, 0, 75, 68
1, 172176, Note_on_c, 0, 47, 37
1, 172208, Note_on_c, 0, 76, 0
1, 172276, Note_on_c, 0, 73, 60
1, 172304, Note_on_c, 0, 75, 0
1, 172390, Note_on_c, 0, 71, 70
1, 172393, Note_on_c, 0, 49, 43
1, 172398, Note_on_c, 0, 47, 0
1, 172436, Note_on_c, 0, 73, 0
1, 172486, Note_on_c, 0, 71, 0
1, 172496, Note_on_c, 0, 69, 52
1, 172598, Note_on_c, 0, 68, 68
1, 172601, Note_on_c, 0, 51, 40
1, 172614, Note_on_c, 0, 49, 0
1, 172628, Note_on_c, 0, 69, 0
1, 172700, Note_on_c, 0, 69, 51
1, 172712, Note_on_c, 0, 68, 0
1, 172796, Note_on_c, 0, 51, 0
1, 172820, Note_on_c, 0, 68, 47
1, 172838, Note_on_c, 0, 69, 0
1, 172848, Note_on_c, 0, 52, 45
1, 172942, Note_on_c, 0, 71, 61
1, 172954, Note_on_c, 0, 68, 0
1, 173034, Note_on_c, 0, 71, 0
1, 173054, Note_on_c, 0, 69, 54
1, 173146, Note_on_c, 0, 69, 0
1, 173156, Note_on_c, 0, 68, 56
1, 173282, Note_on_c, 0, 69, 61
1, 173288, Note_on_c, 0, 68, 0
1, 173354, Note_on_c, 0, 52, 0
1, 173384, Note_on_c, 0, 69, 0
1, 173384, Note_on_c, 0, 71, 72
1, 173486, Note_on_c, 0, 73, 68
1, 173500, Note_on_c, 0, 71, 0
1, 173598, Note_on_c, 0, 75, 69
1, 173644, Note_on_c, 0, 73, 0
1, 173690, Note_on_c, 0, 75, 0
1, 173704, Note_on_c, 0, 76, 73
1, 173808, Note_on_c, 0, 78, 72
1, 173832, Note_on_c, 0, 76, 0
1, 173914, Note_on_c, 0, 80, 78
1, 173950, Note_on_c, 0, 78, 0
1, 174018, Note_on_c, 0, 81, 71
1, 174032, Note_on_c, 0, 80, 0
1, 174112, Note_on_c, 0, 81, 0
1, 174130, Note_on_c, 0, 83, 98
1, 174238, Note_on_c, 0, 85, 63
1, 174266, Note_on_c, 0, 83, 0
1, 174344, Note_on_c, 0, 87, 56
1, 174392, Note_on_c, 0, 85, 0
1, 174454, Note_on_c, 0, 88, 67
1, 174484, Note_on_c, 0, 87, 0
1, 174562, Note_on_c, 0, 87, 54
1, 174614, Note_on_c, 0, 88, 0
1, 174676, Note_on_c, 0, 85, 62
1, 174696, Note_on_c, 0, 87, 0
1, 174804, Note_on_c, 0, 83, 81
1, 174810, Note_on_c, 0, 85, 0
1, 174928, Note_on_c, 0, 81, 44
1, 174936, Note_on_c, 0, 83, 0
1, 175022, Note_on_c, 0, 80, 40
1, 175042, Note_on_c, 0, 81, 0
1, 175150, Note_on_c, 0, 78, 47
1, 175192, Note_on_c, 0, 80, 0
1, 175274, Note_on_c, 0, 76, 25
1, 175296, Note_on_c, 0, 78, 0
1, 175362, Note_on_c, 0, 76, 0
1, 175364, Note_on_c, 0, 75, 47
1, 175528, Note_on_c, 0, 75, 0
1, 175532, Note_on_c, 0, 73, 41
1, 175544, Note_on_c, 0, 66, 24
1, 175566, Note_on_c, 0, 57, 23
1, 175706, Note_on_c, 0, 73, 0
1, 175862, Note_on_c, 0, 66, 0
1, 175970, Note_on_c, 0, 85, 58
1, 176048, Note_on_c, 0, 85, 0
1, 176066, Note_on_c, 0, 68, 31
1, 176076, Note_on_c, 0, 57, 0
1, 176086, Note_on_c, 0, 76, 65
1, 176110, Note_on_c, 0, 59, 28
1, 176554, Note_on_c, 0, 68, 0
1, 176596, Note_on_c, 0, 75, 41
1, 176600, Note_on_c, 0, 80, 55
1, 176606, Note_on_c, 0, 69, 25
1, 176614, Note_on_c, 0, 76, 0
1, 176832, Note_on_c, 0, 80, 0
1, 176856, Note_on_c, 0, 78, 38
1, 177110, Note_on_c, 0, 69, 0
1, 177130, Note_on_c, 0, 68, 25
1, 177140, Note_on_c, 0, 76, 36
1, 177156, Note_on_c, 0, 75, 0
1, 177156, Note_on_c, 0, 78, 0
1, 177164, Note_on_c, 0, 59, 0
1, 177178, Note_on_c, 0, 64, 14
1, 177416, Note_on_c, 0, 64, 0
1, 177828, Note_on_c, 0, 52, 18
1, 177866, Note_on_c, 0, 68, 0
1, 178072, Note_on_c, 0, 76, 0
1, 178296, Note_on_c, 0, 52, 0
1, 178764, Note_on_c, 0, 64, 55
1, 178930, Note_on_c, 0, 76, 70
1, 179014, Note_on_c, 0, 64, 0
1, 179354, Note_on_c, 0, 66, 55
1, 179366, Note_on_c, 0, 76, 0
1, 179470, Note_on_c, 0, 78, 72
1, 179728, Note_on_c, 0, 66, 0
1, 179850, Note_on_c, 0, 67, 51
1, 180008, Note_on_c, 0, 78, 0
1, 180018, Note_on_c, 0, 79, 80
1, 180244, Note_on_c, 0, 67, 0
1, 180334, Note_on_c, 0, 79, 0
1, 180506, Note_on_c, 0, 71, 70
1, 180519, Note_on_c, 0, 54, 34
1, 180780, Note_on_c, 0, 61, 47
1, 180890, Note_on_c, 0, 54, 0
1, 181008, Note_on_c, 0, 61, 0
1, 181010, Note_on_c, 0, 66, 37
1, 181032, Note_on_c, 0, 70, 42
1, 181070, Note_on_c, 0, 71, 0
1, 181258, Note_on_c, 0, 64, 58
1, 181296, Note_on_c, 0, 66, 0
1, 181398, Note_on_c, 0, 70, 0
1, 181486, Note_on_c, 0, 64, 0
1, 181486, Note_on_c, 0, 62, 59
1, 181724, Note_on_c, 0, 61, 47
1, 181732, Note_on_c, 0, 62, 0
1, 181800, Note_on_c, 0, 70, 67
1, 181938, Note_on_c, 0, 70, 0
1, 181950, Note_on_c, 0, 73, 59
1, 181968, Note_on_c, 0, 61, 0
1, 181971, Note_on_c, 0, 54, 47
1, 182204, Note_on_c, 0, 62, 52
1, 182226, Note_on_c, 0, 54, 0
1, 182414, Note_on_c, 0, 66, 22
1, 182420, Note_on_c, 0, 62, 0
1, 182438, Note_on_c, 0, 71, 58
1, 182478, Note_on_c, 0, 73, 0
1, 182680, Note_on_c, 0, 66, 0
1, 182682, Note_on_c, 0, 62, 42
1, 182730, Note_on_c, 0, 71, 0
1, 182880, Note_on_c, 0, 61, 50
1, 182885, Note_on_c, 0, 62, 0
1, 183118, Note_on_c, 0, 59, 47
1, 183172, Note_on_c, 0, 61, 0
1, 183216, Note_on_c, 0, 71, 74
1, 183372, Note_on_c, 0, 71, 0
1, 183376, Note_on_c, 0, 74, 79
1, 183400, Note_on_c, 0, 59, 0
1, 183400, Note_on_c, 0, 54, 49
1, 183616, Note_on_c, 0, 58, 43
1, 183666, Note_on_c, 0, 54, 0
1, 183832, Note_on_c, 0, 64, 49
1, 183850, Note_on_c, 0, 58, 0
1, 183878, Note_on_c, 0, 73, 33
1, 183908, Note_on_c, 0, 74, 0
1, 184078, Note_on_c, 0, 61, 38
1, 184116, Note_on_c, 0, 64, 0
1, 184182, Note_on_c, 0, 73, 0
1, 184314, Note_on_c, 0, 59, 31
1, 184320, Note_on_c, 0, 61, 0
1, 184532, Note_on_c, 0, 58, 32
1, 184538, Note_on_c, 0, 59, 0
1, 184652, Note_on_c, 0, 73, 50
1, 184772, Note_on_c, 0, 73, 0
1, 184816, Note_on_c, 0, 76, 50
1, 184844, Note_on_c, 0, 59, 29
1, 184856, Note_on_c, 0, 58, 0
1, 185056, Note_on_c, 0, 74, 63
1, 185086, Note_on_c, 0, 76, 0
1, 185244, Note_on_c, 0, 74, 0
1, 185286, Note_on_c, 0, 77, 70
1, 185352, Note_on_c, 0, 59, 0
1, 185520, Note_on_c, 0, 76, 73
1, 185550, Note_on_c, 0, 77, 0
1, 185642, Note_on_c, 0, 76, 0
1, 185772, Note_on_c, 0, 79, 70
1, 186054, Note_on_c, 0, 77, 63
1, 186062, Note_on_c, 0, 79, 0
1, 186148, Note_on_c, 0, 77, 0
1, 186346, Note_on_c, 0, 69, 34
1, 186380, Note_on_c, 0, 52, 24
1, 186610, Note_on_c, 0, 59, 38
1, 186718, Note_on_c, 0, 52, 0
1, 186824, Note_on_c, 0, 59, 0
1, 186864, Note_on_c, 0, 64, 37
1, 186867, Note_on_c, 0, 68, 28
1, 186916, Note_on_c, 0, 69, 0
1, 187092, Note_on_c, 0, 64, 0
1, 187100, Note_on_c, 0, 62, 42
1, 187244, Note_on_c, 0, 68, 0
1, 187296, Note_on_c, 0, 62, 0
1, 187332, Note_on_c, 0, 60, 34
1, 187568, Note_on_c, 0, 59, 36
1, 187570, Note_on_c, 0, 60, 0
1, 187638, Note_on_c, 0, 68, 57
1, 187742, Note_on_c, 0, 68, 0
1, 187788, Note_on_c, 0, 59, 0
1, 187814, Note_on_c, 0, 71, 59
1, 187832, Note_on_c, 0, 52, 45
1, 188054, Note_on_c, 0, 60, 48
1, 188060, Note_on_c, 0, 52, 0
1, 188264, Note_on_c, 0, 60, 0
1, 188270, Note_on_c, 0, 64, 44
1, 188324, Note_on_c, 0, 69, 35
1, 188358, Note_on_c, 0, 71, 0
1, 188466, Note_on_c, 0, 64, 0
1, 188510, Note_on_c, 0, 60, 39
1, 188610, Note_on_c, 0, 69, 0
1, 188694, Note_on_c, 0, 60, 0
1, 188736, Note_on_c, 0, 59, 35
1, 188934, Note_on_c, 0, 59, 0
1, 188948, Note_on_c, 0, 57, 30
1, 189038, Note_on_c, 0, 69, 37
1, 189118, Note_on_c, 0, 69, 0
1, 189194, Note_on_c, 0, 57, 0
1, 189194, Note_on_c, 0, 72, 37
1, 189222, Note_on_c, 0, 52, 38
1, 189452, Note_on_c, 0, 56, 32
1, 189455, Note_on_c, 0, 52, 0
1, 189660, Note_on_c, 0, 62, 35
1, 189706, Note_on_c, 0, 56, 0
1, 189714, Note_on_c, 0, 71, 41
1, 189782, Note_on_c, 0, 72, 0
1, 189874, Note_on_c, 0, 62, 0
1, 189920, Note_on_c, 0, 59, 34
1, 190136, Note_on_c, 0, 57, 39
1, 190152, Note_on_c, 0, 59, 0
1, 190164, Note_on_c, 0, 71, 0
1, 190368, Note_on_c, 0, 57, 0
1, 190374, Note_on_c, 0, 56, 39
1, 190448, Note_on_c, 0, 71, 63
1, 190614, Note_on_c, 0, 74, 69
1, 190616, Note_on_c, 0, 71, 0
1, 190628, Note_on_c, 0, 56, 0
1, 190648, Note_on_c, 0, 57, 30
1, 190848, Note_on_c, 0, 72, 66
1, 190904, Note_on_c, 0, 74, 0
1, 191080, Note_on_c, 0, 71, 80
1, 191122, Note_on_c, 0, 72, 0
1, 191300, Note_on_c, 0, 71, 0
1, 191300, Note_on_c, 0, 69, 74
1, 191356, Note_on_c, 0, 57, 0
1, 191520, Note_on_c, 0, 69, 0
1, 191536, Note_on_c, 0, 81, 85
1, 191556, Note_on_c, 0, 55, 46
1, 191560, Note_on_c, 0, 43, 38
1, 191632, Note_on_c, 0, 81, 0
1, 191758, Note_on_c, 0, 81, 84
1, 191848, Note_on_c, 0, 55, 0
1, 191886, Note_on_c, 0, 81, 0
1, 191998, Note_on_c, 0, 83, 110
1, 192010, Note_on_c, 0, 41, 67
1, 192012, Note_on_c, 0, 43, 0
1, 192014, Note_on_c, 0, 53, 85
1, 192240, Note_on_c, 0, 81, 95
1, 192364, Note_on_c, 0, 83, 0
1, 192468, Note_on_c, 0, 79, 97
1, 192556, Note_on_c, 0, 81, 0
1, 192688, Note_on_c, 0, 77, 93
1, 192718, Note_on_c, 0, 41, 0
1, 192724, Note_on_c, 0, 53, 0
1, 192754, Note_on_c, 0, 79, 0
1, 192906, Note_on_c, 0, 76, 87
1, 192936, Note_on_c, 0, 77, 0
1, 193128, Note_on_c, 0, 75, 92
1, 193182, Note_on_c, 0, 76, 0
1, 193380, Note_on_c, 0, 84, 91
1, 193392, Note_on_c, 0, 57, 49
1, 193396, Note_on_c, 0, 53, 73
1, 193436, Note_on_c, 0, 75, 0
1, 193600, Note_on_c, 0, 56, 53
1, 193630, Note_on_c, 0, 57, 0
1, 193857, Note_on_c, 0, 57, 59
1, 193874, Note_on_c, 0, 56, 0
1, 194122, Note_on_c, 0, 57, 0
1, 194132, Note_on_c, 0, 60, 42
1, 194382, Note_on_c, 0, 60, 0
1, 194390, Note_on_c, 0, 75, 51
1, 194414, Note_on_c, 0, 59, 37
1, 194474, Note_on_c, 0, 84, 0
1, 194616, Note_on_c, 0, 59, 0
1, 194662, Note_on_c, 0, 57, 32
1, 194884, Note_on_c, 0, 53, 0
1, 195030, Note_on_c, 0, 76, 42
1, 195046, Note_on_c, 0, 56, 21
1, 195070, Note_on_c, 0, 52, 40
1, 195080, Note_on_c, 0, 57, 0
1, 195096, Note_on_c, 0, 75, 0
1, 195868, Note_on_c, 0, 56, 0
1, 196012, Note_on_c, 0, 52, 0
1, 196070, Note_on_c, 0, 76, 0
1, 196070, Note_on_c, 0, 78, 50
1, 196216, Note_on_c, 0, 78, 0
1, 196216, Note_on_c, 0, 76, 46
1, 196268, Note_on_c, 0, 76, 0
1, 196336, Note_on_c, 0, 76, 57
1, 196466, Note_on_c, 0, 74, 75
1, 196498, Note_on_c, 0, 76, 0
1, 196586, Note_on_c, 0, 73, 52
1, 196591, Note_on_c, 0, 74, 0
1, 196656, Note_on_c, 0, 71, 81
1, 196692, Note_on_c, 0, 73, 0
1, 196692, Note_on_c, 0, 71, 0
1, 196824, Note_on_c, 0, 61, 79
1, 196868, Note_on_c, 0, 64, 66
1, 196920, Note_on_c, 0, 57, 52
1, 196920, Note_on_c, 0, 45, 44
1, 196922, Note_on_c, 0, 69, 81
1, 196946, Note_on_c, 0, 61, 0
1, 197140, Note_on_c, 0, 64, 0
1, 197594, Note_on_c, 0, 57, 0
1, 197700, Note_on_c, 0, 45, 0
1, 197904, Note_on_c, 0, 64, 76
1, 197920, Note_on_c, 0, 69, 0
1, 197920, Note_on_c, 0, 52, 65
1, 197926, Note_on_c, 0, 40, 67
1, 198078, Note_on_c, 0, 40, 0
1, 198096, Note_on_c, 0, 52, 0
1, 198382, Note_on_c, 0, 64, 0
1, 198388, Note_on_c, 0, 73, 82
1, 198396, Note_on_c, 0, 61, 58
1, 198400, Note_on_c, 0, 49, 58
1, 198664, Note_on_c, 0, 74, 74
1, 198696, Note_on_c, 0, 61, 0
1, 198710, Note_on_c, 0, 73, 0
1, 198768, Note_on_c, 0, 71, 74
1, 198808, Note_on_c, 0, 74, 0
1, 198878, Note_on_c, 0, 49, 0
1, 198886, Note_on_c, 0, 71, 0
1, 198886, Note_on_c, 0, 57, 23
1, 198896, Note_on_c, 0, 69, 61
1, 198908, Note_on_c, 0, 45, 26
1, 199274, Note_on_c, 0, 57, 0
1, 199314, Note_on_c, 0, 45, 0
1, 199362, Note_on_c, 0, 69, 0
1, 199802, Note_on_c, 0, 76, 41
1, 200078, Note_on_c, 0, 78, 36
1, 200132, Note_on_c, 0, 76, 0
1, 200162, Note_on_c, 0, 78, 0
1, 200182, Note_on_c, 0, 74, 52
1, 200304, Note_on_c, 0, 73, 62
1, 200314, Note_on_c, 0, 74, 0
1, 200792, Note_on_c, 0, 85, 63
1, 200836, Note_on_c, 0, 73, 0
1, 200836, Note_on_c, 0, 57, 26
1, 200836, Note_on_c, 0, 66, 18
1, 201058, Note_on_c, 0, 57, 0
1, 201082, Note_on_c, 0, 85, 0
1, 201282, Note_on_c, 0, 66, 0
1, 201294, Note_on_c, 0, 75, 55
1, 201310, Note_on_c, 0, 69, 21
1, 201354, Note_on_c, 0, 59, 19
1, 201814, Note_on_c, 0, 59, 0
1, 201856, Note_on_c, 0, 76, 34
1, 201858, Note_on_c, 0, 69, 0
1, 201880, Note_on_c, 0, 68, 12
1, 201902, Note_on_c, 0, 64, 19
1, 201922, Note_on_c, 0, 75, 0
1, 202378, Note_on_c, 0, 68, 0
1, 202430, Note_on_c, 0, 64, 0
1, 202760, Note_on_c, 0, 77, 38
1, 202828, Note_on_c, 0, 76, 0
1, 203072, Note_on_c, 0, 80, 31
1, 203090, Note_on_c, 0, 77, 0
1, 203320, Note_on_c, 0, 78, 42
1, 203388, Note_on_c, 0, 80, 0
1, 203558, Note_on_c, 0, 76, 37
1, 203584, Note_on_c, 0, 78, 0
1, 203778, Note_on_c, 0, 76, 0
1, 203780, Note_on_c, 0, 74, 44
1, 203998, Note_on_c, 0, 73, 39
1, 204054, Note_on_c, 0, 74, 0
1, 204222, Note_on_c, 0, 71, 51
1, 204240, Note_on_c, 0, 73, 0
1, 204456, Note_on_c, 0, 71, 0
1, 204461, Note_on_c, 0, 69, 35
1, 204524, Note_on_c, 0, 52, 23
1, 204694, Note_on_c, 0, 68, 40
1, 204710, Note_on_c, 0, 69, 0
1, 204756, Note_on_c, 0, 62, 27
1, 204940, Note_on_c, 0, 76, 38
1, 204958, Note_on_c, 0, 68, 0
1, 204984, Note_on_c, 0, 62, 0
1, 205020, Note_on_c, 0, 59, 24
1, 205154, Note_on_c, 0, 59, 0
1, 205194, Note_on_c, 0, 74, 38
1, 205210, Note_on_c, 0, 76, 0
1, 205254, Note_on_c, 0, 62, 22
1, 205368, Note_on_c, 0, 62, 0
1, 205448, Note_on_c, 0, 74, 0
1, 205474, Note_on_c, 0, 59, 26
1, 205658, Note_on_c, 0, 52, 0
1, 205700, Note_on_c, 0, 62, 35
1, 205712, Note_on_c, 0, 59, 0
1, 205936, Note_on_c, 0, 71, 63
1, 205954, Note_on_c, 0, 62, 0
1, 205988, Note_on_c, 0, 52, 34
1, 206168, Note_on_c, 0, 69, 50
1, 206181, Note_on_c, 0, 61, 36
1, 206196, Note_on_c, 0, 71, 0
1, 206400, Note_on_c, 0, 78, 60
1, 206406, Note_on_c, 0, 61, 0
1, 206408, Note_on_c, 0, 69, 0
1, 206420, Note_on_c, 0, 57, 42
1, 206626, Note_on_c, 0, 57, 0
1, 206631, Note_on_c, 0, 76, 50
1, 206635, Note_on_c, 0, 61, 39
1, 206642, Note_on_c, 0, 78, 0
1, 206726, Note_on_c, 0, 76, 0
1, 206810, Note_on_c, 0, 52, 0
1, 206828, Note_on_c, 0, 61, 0
1, 206864, Note_on_c, 0, 57, 44
1, 207082, Note_on_c, 0, 61, 46
1, 207136, Note_on_c, 0, 57, 0
1, 207314, Note_on_c, 0, 71, 74
1, 207330, Note_on_c, 0, 61, 0
1, 207348, Note_on_c, 0, 52, 61
1, 207560, Note_on_c, 0, 69, 75
1, 207574, Note_on_c, 0, 61, 51
1, 207590, Note_on_c, 0, 71, 0
1, 207816, Note_on_c, 0, 61, 0
1, 207838, Note_on_c, 0, 57, 41
1, 207841, Note_on_c, 0, 81, 82
1, 207852, Note_on_c, 0, 69, 0
1, 208086, Note_on_c, 0, 61, 45
1, 208096, Note_on_c, 0, 57, 0
1, 208128, Note_on_c, 0, 79, 78
1, 208196, Note_on_c, 0, 81, 0
1, 208332, Note_on_c, 0, 57, 48
1, 208335, Note_on_c, 0, 61, 0
1, 208380, Note_on_c, 0, 79, 0
1, 208462, Note_on_c, 0, 52, 0
1, 208544, Note_on_c, 0, 57, 0
1, 208564, Note_on_c, 0, 61, 49
1, 208696, Note_on_c, 0, 61, 0
1, 208898, Note_on_c, 0, 62, 22
1, 208906, Note_on_c, 0, 79, 64
1, 208914, Note_on_c, 0, 57, 22
1, 208932, Note_on_c, 0, 50, 23
1, 209178, Note_on_c, 0, 78, 57
1, 209222, Note_on_c, 0, 79, 0
1, 209408, Note_on_c, 0, 76, 64
1, 209453, Note_on_c, 0, 78, 0
1, 209618, Note_on_c, 0, 50, 0
1, 209634, Note_on_c, 0, 74, 74
1, 209640, Note_on_c, 0, 62, 0
1, 209642, Note_on_c, 0, 57, 0
1, 209654, Note_on_c, 0, 76, 0
1, 209870, Note_on_c, 0, 73, 64
1, 209903, Note_on_c, 0, 74, 0
1, 210100, Note_on_c, 0, 71, 76
1, 210124, Note_on_c, 0, 73, 0
1, 210366, Note_on_c, 0, 76, 53
1, 210372, Note_on_c, 0, 49, 35
1, 210428, Note_on_c, 0, 71, 0
1, 210496, Note_on_c, 0, 76, 0
1, 210512, Note_on_c, 0, 78, 51
1, 210572, Note_on_c, 0, 76, 52
1, 210610, Note_on_c, 0, 78, 0
1, 210680, Note_on_c, 0, 74, 51
1, 210694, Note_on_c, 0, 76, 0
1, 210746, Note_on_c, 0, 74, 0
1, 210760, Note_on_c, 0, 76, 75
1, 210908, Note_on_c, 0, 49, 0
1, 210968, Note_on_c, 0, 50, 42
1, 210974, Note_on_c, 0, 78, 51
1, 210986, Note_on_c, 0, 76, 0
1, 211036, Note_on_c, 0, 50, 0
1, 211182, Note_on_c, 0, 69, 41
1, 211194, Note_on_c, 0, 61, 41
1, 211208, Note_on_c, 0, 78, 0
1, 211224, Note_on_c, 0, 52, 42
1, 211738, Note_on_c, 0, 68, 44
1, 211764, Note_on_c, 0, 61, 0
1, 211772, Note_on_c, 0, 69, 0
1, 211778, Note_on_c, 0, 59, 27
1, 211982, Note_on_c, 0, 68, 0
1, 212024, Note_on_c, 0, 69, 55
1, 212108, Note_on_c, 0, 73, 59
1, 212160, Note_on_c, 0, 69, 0
1, 212182, Note_on_c, 0, 59, 0
1, 212190, Note_on_c, 0, 76, 82
1, 212212, Note_on_c, 0, 57, 35
1, 212228, Note_on_c, 0, 52, 0
1, 212246, Note_on_c, 0, 73, 0
1, 212398, Note_on_c, 0, 76, 0
1, 212452, Note_on_c, 0, 61, 47
1, 212676, Note_on_c, 0, 57, 0
1, 212692, Note_on_c, 0, 61, 0
1, 212696, Note_on_c, 0, 76, 49
1, 212718, Note_on_c, 0, 64, 35
1, 212896, Note_on_c, 0, 64, 0
1, 212944, Note_on_c, 0, 61, 35
1, 213136, Note_on_c, 0, 61, 0
1, 213171, Note_on_c, 0, 59, 26
1, 213388, Note_on_c, 0, 59, 0
1, 213402, Note_on_c, 0, 57, 32
1, 213466, Note_on_c, 0, 76, 0
1, 213620, Note_on_c, 0, 57, 0
1, 213625, Note_on_c, 0, 56, 34
1, 213636, Note_on_c, 0, 76, 59
1, 213758, Note_on_c, 0, 74, 63
1, 213780, Note_on_c, 0, 76, 0
1, 213816, Note_on_c, 0, 74, 0
1, 213852, Note_on_c, 0, 73, 53
1, 213888, Note_on_c, 0, 57, 31
1, 213896, Note_on_c, 0, 56, 0
1, 213972, Note_on_c, 0, 71, 69
1, 213978, Note_on_c, 0, 73, 0
1, 214016, Note_on_c, 0, 71, 0
1, 214088, Note_on_c, 0, 71, 68
1, 214114, Note_on_c, 0, 57, 0
1, 214130, Note_on_c, 0, 59, 36
1, 214208, Note_on_c, 0, 69, 55
1, 214236, Note_on_c, 0, 71, 0
1, 214298, Note_on_c, 0, 68, 57
1, 214332, Note_on_c, 0, 69, 0
1, 214350, Note_on_c, 0, 52, 55
1, 214378, Note_on_c, 0, 59, 0
1, 214416, Note_on_c, 0, 66, 57
1, 214454, Note_on_c, 0, 68, 0
1, 214532, Note_on_c, 0, 64, 62
1, 214536, Note_on_c, 0, 54, 58
1, 214540, Note_on_c, 0, 66, 0
1, 214564, Note_on_c, 0, 52, 0
1, 214636, Note_on_c, 0, 62, 77
1, 214652, Note_on_c, 0, 64, 0
1, 214738, Note_on_c, 0, 61, 75
1, 214754, Note_on_c, 0, 62, 0
1, 214774, Note_on_c, 0, 56, 53
1, 214792, Note_on_c, 0, 54, 0
1, 214848, Note_on_c, 0, 62, 66
1, 214864, Note_on_c, 0, 61, 0
1, 214960, Note_on_c, 0, 62, 0
1, 214968, Note_on_c, 0, 61, 72
1, 214971, Note_on_c, 0, 56, 0
1, 215004, Note_on_c, 0, 57, 43
1, 215066, Note_on_c, 0, 61, 0
1, 215088, Note_on_c, 0, 64, 72
1, 215194, Note_on_c, 0, 69, 63
1, 215204, Note_on_c, 0, 57, 0
1, 215204, Note_on_c, 0, 64, 0
1, 215214, Note_on_c, 0, 61, 46
1, 215306, Note_on_c, 0, 73, 60
1, 215320, Note_on_c, 0, 69, 0
1, 215414, Note_on_c, 0, 61, 0
1, 215438, Note_on_c, 0, 64, 49
1, 215438, Note_on_c, 0, 76, 76
1, 215470, Note_on_c, 0, 73, 0
1, 215654, Note_on_c, 0, 64, 0
1, 215664, Note_on_c, 0, 61, 52
1, 215892, Note_on_c, 0, 61, 0
1, 215902, Note_on_c, 0, 59, 51
1, 216080, Note_on_c, 0, 76, 0
1, 216122, Note_on_c, 0, 88, 80
1, 216130, Note_on_c, 0, 57, 44
1, 216136, Note_on_c, 0, 59, 0
1, 216224, Note_on_c, 0, 88, 0
1, 216358, Note_on_c, 0, 57, 0
1, 216358, Note_on_c, 0, 88, 94
1, 216360, Note_on_c, 0, 56, 46
1, 216472, Note_on_c, 0, 86, 80
1, 216530, Note_on_c, 0, 88, 0
1, 216582, Note_on_c, 0, 85, 75
1, 216604, Note_on_c, 0, 57, 44
1, 216610, Note_on_c, 0, 86, 0
1, 216614, Note_on_c, 0, 56, 0
1, 216704, Note_on_c, 0, 83, 98
1, 216724, Note_on_c, 0, 85, 0
1, 216738, Note_on_c, 0, 83, 0
1, 216826, Note_on_c, 0, 83, 82
1, 216830, Note_on_c, 0, 57, 0
1, 216844, Note_on_c, 0, 59, 41
1, 216952, Note_on_c, 0, 81, 69
1, 216988, Note_on_c, 0, 83, 0
1, 217052, Note_on_c, 0, 80, 70
1, 217072, Note_on_c, 0, 52, 59
1, 217082, Note_on_c, 0, 59, 0
1, 217086, Note_on_c, 0, 81, 0
1, 217168, Note_on_c, 0, 78, 68
1, 217204, Note_on_c, 0, 80, 0
1, 217280, Note_on_c, 0, 78, 0
1, 217280, Note_on_c, 0, 54, 59
1, 217288, Note_on_c, 0, 76, 53
1, 217292, Note_on_c, 0, 52, 0
1, 217402, Note_on_c, 0, 74, 74
1, 217414, Note_on_c, 0, 76, 0
1, 217522, Note_on_c, 0, 74, 0
1, 217522, Note_on_c, 0, 73, 65
1, 217522, Note_on_c, 0, 56, 40
1, 217528, Note_on_c, 0, 54, 0
1, 217632, Note_on_c, 0, 74, 66
1, 217642, Note_on_c, 0, 73, 0
1, 217754, Note_on_c, 0, 56, 0
1, 217768, Note_on_c, 0, 74, 0
1, 217768, Note_on_c, 0, 57, 45
1, 217768, Note_on_c, 0, 73, 65
1, 217880, Note_on_c, 0, 76, 64
1, 217888, Note_on_c, 0, 73, 0
1, 218004, Note_on_c, 0, 57, 0
1, 218006, Note_on_c, 0, 74, 67
1, 218012, Note_on_c, 0, 76, 0
1, 218078, Note_on_c, 0, 74, 0
1, 218098, Note_on_c, 0, 73, 57
1, 218218, Note_on_c, 0, 73, 0
1, 218218, Note_on_c, 0, 54, 69
1, 218224, Note_on_c, 0, 74, 84
1, 218228, Note_on_c, 0, 57, 45
1, 218350, Note_on_c, 0, 76, 63
1, 218352, Note_on_c, 0, 74, 0
1, 218420, Note_on_c, 0, 57, 0
1, 218448, Note_on_c, 0, 78, 76
1, 218456, Note_on_c, 0, 76, 0
1, 218494, Note_on_c, 0, 54, 0
1, 218562, Note_on_c, 0, 80, 78
1, 218600, Note_on_c, 0, 78, 0
1, 218674, Note_on_c, 0, 80, 0
1, 218674, Note_on_c, 0, 50, 72
1, 218680, Note_on_c, 0, 81, 85
1, 218688, Note_on_c, 0, 57, 32
1, 218714, Note_on_c, 0, 54, 43
1, 218796, Note_on_c, 0, 83, 101
1, 218802, Note_on_c, 0, 81, 0
1, 218812, Note_on_c, 0, 57, 0
1, 218908, Note_on_c, 0, 85, 79
1, 218914, Note_on_c, 0, 54, 0
1, 218926, Note_on_c, 0, 83, 0
1, 218986, Note_on_c, 0, 50, 0
1, 219024, Note_on_c, 0, 86, 84
1, 219080, Note_on_c, 0, 85, 0
1, 219146, Note_on_c, 0, 57, 47
1, 219150, Note_on_c, 0, 88, 83
1, 219162, Note_on_c, 0, 49, 39
1, 219176, Note_on_c, 0, 52, 46
1, 219181, Note_on_c, 0, 86, 0
1, 219284, Note_on_c, 0, 86, 60
1, 219334, Note_on_c, 0, 88, 0
1, 219396, Note_on_c, 0, 85, 71
1, 219416, Note_on_c, 0, 86, 0
1, 219512, Note_on_c, 0, 52, 0
1, 219524, Note_on_c, 0, 83, 95
1, 219538, Note_on_c, 0, 85, 0
1, 219542, Note_on_c, 0, 57, 0
1, 219586, Note_on_c, 0, 49, 0
1, 219630, Note_on_c, 0, 83, 0
1, 219648, Note_on_c, 0, 81, 64
1, 219750, Note_on_c, 0, 80, 68
1, 219778, Note_on_c, 0, 81, 0
1, 219870, Note_on_c, 0, 78, 67
1, 219908, Note_on_c, 0, 80, 0
1, 220006, Note_on_c, 0, 76, 56
1, 220046, Note_on_c, 0, 78, 0
1, 220126, Note_on_c, 0, 76, 0
1, 220132, Note_on_c, 0, 74, 57
1, 220264, Note_on_c, 0, 73, 47
1, 220270, Note_on_c, 0, 74, 0
1, 220408, Note_on_c, 0, 71, 56
1, 220456, Note_on_c, 0, 73, 0
1, 220474, Note_on_c, 0, 71, 0
1, 220501, Note_on_c, 0, 69, 56
1, 220628, Note_on_c, 0, 69, 0
1, 220638, Note_on_c, 0, 78, 80
1, 220640, Note_on_c, 0, 50, 41
1, 220644, Note_on_c, 0, 59, 37
1, 220716, Note_on_c, 0, 78, 0
1, 220732, Note_on_c, 0, 80, 70
1, 220802, Note_on_c, 0, 78, 66
1, 220828, Note_on_c, 0, 80, 0
1, 220898, Note_on_c, 0, 76, 60
1, 220920, Note_on_c, 0, 78, 0
1, 220976, Note_on_c, 0, 76, 0
1, 220976, Note_on_c, 0, 78, 78
1, 221008, Note_on_c, 0, 59, 0
1, 221062, Note_on_c, 0, 80, 78
1, 221126, Note_on_c, 0, 78, 0
1, 221166, Note_on_c, 0, 81, 69
1, 221202, Note_on_c, 0, 80, 0
1, 221252, Note_on_c, 0, 61, 29
1, 221292, Note_on_c, 0, 69, 62
1, 221294, Note_on_c, 0, 52, 31
1, 221296, Note_on_c, 0, 50, 0
1, 221302, Note_on_c, 0, 81, 0
1, 221760, Note_on_c, 0, 61, 0
1, 221812, Note_on_c, 0, 73, 44
1, 221820, Note_on_c, 0, 68, 37
1, 221834, Note_on_c, 0, 69, 0
1, 221848, Note_on_c, 0, 62, 30
1, 222114, Note_on_c, 0, 71, 55
1, 222124, Note_on_c, 0, 73, 0
1, 222412, Note_on_c, 0, 62, 0
1, 222430, Note_on_c, 0, 69, 36
1, 222430, Note_on_c, 0, 57, 23
1, 222442, Note_on_c, 0, 61, 42
1, 222460, Note_on_c, 0, 71, 0
1, 222500, Note_on_c, 0, 52, 0
1, 222500, Note_on_c, 0, 68, 0
1, 222810, Note_on_c, 0, 57, 0
1, 223066, Note_on_c, 0, 61, 0
1, 223074, Note_on_c, 0, 69, 0
1, 223276, Note_on_c, 0, 45, 27
1, 223680, Note_on_c, 0, 45, 0
1, 223690, End_track
0, 0, End_of_file