0, 0, Header, 0, 1, 480
1, 0, Start_track
1, 0, Tempo, 500000
1, 554, Note_on_c, 0, 60, 78
1, 568, Note_on_c, 0, 48, 60
1, 568, Note_on_c, 0, 36, 70
1, 602, Note_on_c, 0, 36, 0
1, 612, Note_on_c, 0, 48, 0
1, 727, Note_on_c, 0, 60, 0
1, 1202, Note_on_c, 0, 63, 76
1, 1202, Note_on_c, 0, 39, 67
1, 1202, Note_on_c, 0, 51, 62
1, 1240, Note_on_c, 0, 63, 0
1, 1240, Note_on_c, 0, 39, 0
1, 1255, Note_on_c, 0, 51, 0
1, 1476, Note_on_c, 0, 67, 93
1, 1490, Note_on_c, 0, 55, 68
1, 1504, Note_on_c, 0, 43, 45
1, 1533, Note_on_c, 0, 55, 0
1, 1548, Note_on_c, 0, 67, 0
1, 1557, Note_on_c, 0, 43, 0
1, 1764, Note_on_c, 0, 60, 72
1, 1764, Note_on_c, 0, 72, 102
1, 1764, Note_on_c, 0, 48, 82
1, 1816, Note_on_c, 0, 48, 0
1, 1845, Note_on_c, 0, 60, 0
1, 1864, Note_on_c, 0, 72, 0
1, 2066, Note_on_c, 0, 75, 73
1, 2071, Note_on_c, 0, 63, 69
1, 2076, Note_on_c, 0, 51, 67
1, 2124, Note_on_c, 0, 63, 0
1, 2143, Note_on_c, 0, 51, 0
1, 2239, Note_on_c, 0, 75, 0
1, 2594, Note_on_c, 0, 75, 69
1, 2642, Note_on_c, 0, 75, 0
1, 2689, Note_on_c, 0, 77, 75
1, 2733, Note_on_c, 0, 77, 0
1, 2748, Note_on_c, 0, 75, 69
1, 2801, Note_on_c, 0, 75, 0
1, 2824, Note_on_c, 0, 77, 77
1, 2868, Note_on_c, 0, 75, 75
1, 2872, Note_on_c, 0, 77, 0
1, 2949, Note_on_c, 0, 74, 81
1, 2954, Note_on_c, 0, 75, 0
1, 3002, Note_on_c, 0, 74, 0
1, 3016, Note_on_c, 0, 75, 90
1, 3122, Note_on_c, 0, 75, 0
1, 3122, Note_on_c, 0, 79, 88
1, 3410, Note_on_c, 0, 72, 75
1, 3410, Note_on_c, 0, 67, 39
1, 3415, Note_on_c, 0, 79, 0
1, 3424, Note_on_c, 0, 63, 26
1, 3477, Note_on_c, 0, 67, 0
1, 3496, Note_on_c, 0, 63, 0
1, 3496, Note_on_c, 0, 72, 0
1, 3703, Note_on_c, 0, 72, 70
1, 3703, Note_on_c, 0, 63, 35
1, 3717, Note_on_c, 0, 67, 53
1, 3775, Note_on_c, 0, 67, 0
1, 3780, Note_on_c, 0, 63, 0
1, 3832, Note_on_c, 0, 72, 0
1, 4005, Note_on_c, 0, 63, 44
1, 4010, Note_on_c, 0, 67, 54
1, 4010, Note_on_c, 0, 72, 74
1, 4068, Note_on_c, 0, 72, 0
1, 4072, Note_on_c, 0, 63, 0
1, 4072, Note_on_c, 0, 67, 0
1, 4317, Note_on_c, 0, 80, 64
1, 4644, Note_on_c, 0, 68, 26
1, 4651, Note_on_c, 0, 62, 19
1, 4651, Note_on_c, 0, 65, 21
1, 4653, Note_on_c, 0, 71, 33
1, 4687, Note_on_c, 0, 80, 0
1, 4728, Note_on_c, 0, 62, 0
1, 4733, Note_on_c, 0, 65, 0
1, 4778, Note_on_c, 0, 68, 0
1, 4831, Note_on_c, 0, 71, 0
1, 5054, Note_on_c, 0, 65, 16
1, 5056, Note_on_c, 0, 68, 29
1, 5059, Note_on_c, 0, 62, 19
1, 5066, Note_on_c, 0, 71, 31
1, 5203, Note_on_c, 0, 65, 0
1, 5213, Note_on_c, 0, 62, 0
1, 5220, Note_on_c, 0, 68, 0
1, 5301, Note_on_c, 0, 71, 0
1, 5964, Note_on_c, 0, 55, 106
1, 5968, Note_on_c, 0, 43, 100
1, 5973, Note_on_c, 0, 31, 105
1, 6199, Note_on_c, 0, 31, 0
1, 6266, Note_on_c, 0, 43, 0
1, 6405, Note_on_c, 0, 55, 0
1, 6597, Note_on_c, 0, 47, 88
1, 6597, Note_on_c, 0, 35, 85
1, 6602, Note_on_c, 0, 59, 92
1, 6636, Note_on_c, 0, 35, 0
1, 6645, Note_on_c, 0, 47, 0
1, 6674, Note_on_c, 0, 59, 0
1, 6890, Note_on_c, 0, 62, 98
1, 6904, Note_on_c, 0, 50, 103
1, 6904, Note_on_c, 0, 38, 103
1, 6933, Note_on_c, 0, 38, 0
1, 6952, Note_on_c, 0, 50, 0
1, 7034, Note_on_c, 0, 62, 0
1, 7197, Note_on_c, 0, 67, 104
1, 7202, Note_on_c, 0, 55, 97
1, 7202, Note_on_c, 0, 43, 97
1, 7255, Note_on_c, 0, 43, 0
1, 7284, Note_on_c, 0, 55, 0
1, 7317, Note_on_c, 0, 67, 0
1, 7500, Note_on_c, 0, 71, 78
1, 7504, Note_on_c, 0, 59, 70
1, 7509, Note_on_c, 0, 47, 67
1, 7605, Note_on_c, 0, 47, 0
1, 7615, Note_on_c, 0, 59, 0
1, 7648, Note_on_c, 0, 71, 0
1, 8052, Note_on_c, 0, 74, 54
1, 8100, Note_on_c, 0, 74, 0
1, 8143, Note_on_c, 0, 75, 55
1, 8176, Note_on_c, 0, 74, 87
1, 8191, Note_on_c, 0, 75, 0
1, 8229, Note_on_c, 0, 74, 0
1, 8253, Note_on_c, 0, 75, 69
1, 8316, Note_on_c, 0, 74, 72
1, 8320, Note_on_c, 0, 75, 0
1, 8354, Note_on_c, 0, 74, 0
1, 8354, Note_on_c, 0, 72, 80
1, 8407, Note_on_c, 0, 72, 0
1, 8416, Note_on_c, 0, 74, 95
1, 8474, Note_on_c, 0, 74, 0
1, 8532, Note_on_c, 0, 77, 81
1, 8824, Note_on_c, 0, 68, 40
1, 8829, Note_on_c, 0, 71, 55
1, 8843, Note_on_c, 0, 65, 31
1, 8853, Note_on_c, 0, 77, 0
1, 8857, Note_on_c, 0, 62, 21
1, 8934, Note_on_c, 0, 65, 0
1, 8934, Note_on_c, 0, 62, 0
1, 8959, Note_on_c, 0, 68, 0
1, 8973, Note_on_c, 0, 71, 0
1, 9127, Note_on_c, 0, 71, 53
1, 9132, Note_on_c, 0, 68, 55
1, 9141, Note_on_c, 0, 62, 34
1, 9150, Note_on_c, 0, 65, 46
1, 9208, Note_on_c, 0, 68, 0
1, 9213, Note_on_c, 0, 65, 0
1, 9213, Note_on_c, 0, 62, 0
1, 9261, Note_on_c, 0, 71, 0
1, 9429, Note_on_c, 0, 71, 67
1, 9434, Note_on_c, 0, 65, 51
1, 9439, Note_on_c, 0, 68, 50
1, 9468, Note_on_c, 0, 62, 32
1, 9506, Note_on_c, 0, 68, 0
1, 9525, Note_on_c, 0, 65, 0
1, 9535, Note_on_c, 0, 62, 0
1, 9540, Note_on_c, 0, 71, 0
1, 9736, Note_on_c, 0, 79, 70
1, 10039, Note_on_c, 0, 67, 40
1, 10048, Note_on_c, 0, 79, 0
1, 10048, Note_on_c, 0, 72, 50
1, 10048, Note_on_c, 0, 63, 34
1, 10135, Note_on_c, 0, 63, 0
1, 10144, Note_on_c, 0, 67, 0
1, 10207, Note_on_c, 0, 72, 0
1, 10428, Note_on_c, 0, 72, 42
1, 10437, Note_on_c, 0, 67, 25
1, 10442, Note_on_c, 0, 63, 22
1, 10600, Note_on_c, 0, 67, 0
1, 10639, Note_on_c, 0, 63, 0
1, 10644, Note_on_c, 0, 72, 0
1, 11296, Note_on_c, 0, 67, 87
1, 11311, Note_on_c, 0, 43, 33
1, 11368, Note_on_c, 0, 43, 0
1, 11474, Note_on_c, 0, 55, 48
1, 11536, Note_on_c, 0, 55, 0
1, 11599, Note_on_c, 0, 43, 69
1, 11647, Note_on_c, 0, 43, 0
1, 11743, Note_on_c, 0, 55, 76
1, 11810, Note_on_c, 0, 55, 0
1, 11853, Note_on_c, 0, 67, 0
1, 11877, Note_on_c, 0, 43, 67
1, 11920, Note_on_c, 0, 43, 0
1, 12040, Note_on_c, 0, 55, 56
1, 12098, Note_on_c, 0, 55, 0
1, 12199, Note_on_c, 0, 75, 67
1, 12213, Note_on_c, 0, 43, 24
1, 12228, Note_on_c, 0, 67, 43
1, 12285, Note_on_c, 0, 43, 0
1, 12376, Note_on_c, 0, 55, 47
1, 12448, Note_on_c, 0, 55, 0
1, 12496, Note_on_c, 0, 67, 0
1, 12535, Note_on_c, 0, 66, 48
1, 12564, Note_on_c, 0, 43, 31
1, 12626, Note_on_c, 0, 43, 0
1, 12732, Note_on_c, 0, 55, 38
1, 12799, Note_on_c, 0, 55, 0
1, 12818, Note_on_c, 0, 75, 0
1, 12837, Note_on_c, 0, 74, 69
1, 12847, Note_on_c, 0, 66, 0
1, 12861, Note_on_c, 0, 43, 33
1, 12866, Note_on_c, 0, 65, 48
1, 12938, Note_on_c, 0, 43, 0
1, 13015, Note_on_c, 0, 55, 46
1, 13077, Note_on_c, 0, 55, 0
1, 13087, Note_on_c, 0, 65, 0
1, 13101, Note_on_c, 0, 74, 0
1, 13130, Note_on_c, 0, 64, 60
1, 13144, Note_on_c, 0, 43, 39
1, 13207, Note_on_c, 0, 43, 0
1, 13221, Note_on_c, 0, 64, 0
1, 13303, Note_on_c, 0, 55, 56
1, 13365, Note_on_c, 0, 55, 0
1, 13389, Note_on_c, 0, 72, 86
1, 13423, Note_on_c, 0, 63, 62
1, 13442, Note_on_c, 0, 43, 58
1, 13495, Note_on_c, 0, 43, 0
1, 13533, Note_on_c, 0, 63, 0
1, 13591, Note_on_c, 0, 55, 70
1, 13639, Note_on_c, 0, 55, 0
1, 13716, Note_on_c, 0, 62, 88
1, 13716, Note_on_c, 0, 43, 69
1, 13773, Note_on_c, 0, 43, 0
1, 13874, Note_on_c, 0, 55, 64
1, 13932, Note_on_c, 0, 55, 0
1, 14013, Note_on_c, 0, 43, 48
1, 14037, Note_on_c, 0, 71, 58
1, 14090, Note_on_c, 0, 72, 0
1, 14162, Note_on_c, 0, 43, 0
1, 14196, Note_on_c, 0, 55, 59
1, 14244, Note_on_c, 0, 62, 0
1, 14258, Note_on_c, 0, 55, 0
1, 14311, Note_on_c, 0, 71, 0
1, 14349, Note_on_c, 0, 43, 51
1, 14397, Note_on_c, 0, 43, 0
1, 14484, Note_on_c, 0, 55, 51
1, 14551, Note_on_c, 0, 55, 0
1, 14656, Note_on_c, 0, 43, 35
1, 14680, Note_on_c, 0, 75, 47
1, 14680, Note_on_c, 0, 79, 84
1, 14762, Note_on_c, 0, 43, 0
1, 14839, Note_on_c, 0, 55, 49
1, 14901, Note_on_c, 0, 55, 0
1, 14983, Note_on_c, 0, 78, 90
1, 15036, Note_on_c, 0, 79, 0
1, 15036, Note_on_c, 0, 43, 16
1, 15088, Note_on_c, 0, 43, 0
1, 15156, Note_on_c, 0, 55, 53
1, 15218, Note_on_c, 0, 55, 0
1, 15285, Note_on_c, 0, 77, 98
1, 15295, Note_on_c, 0, 43, 49
1, 15304, Note_on_c, 0, 74, 75
1, 15338, Note_on_c, 0, 78, 0
1, 15348, Note_on_c, 0, 75, 0
1, 15372, Note_on_c, 0, 43, 0
1, 15468, Note_on_c, 0, 55, 66
1, 15549, Note_on_c, 0, 55, 0
1, 15568, Note_on_c, 0, 76, 104
1, 15612, Note_on_c, 0, 43, 54
1, 15669, Note_on_c, 0, 77, 0
1, 15669, Note_on_c, 0, 43, 0
1, 15708, Note_on_c, 0, 74, 0
1, 15765, Note_on_c, 0, 55, 73
1, 15837, Note_on_c, 0, 55, 0
1, 15861, Note_on_c, 0, 72, 95
1, 15866, Note_on_c, 0, 75, 95
1, 15895, Note_on_c, 0, 43, 62
1, 15914, Note_on_c, 0, 76, 0
1, 15962, Note_on_c, 0, 43, 0
1, 16053, Note_on_c, 0, 55, 69
1, 16106, Note_on_c, 0, 55, 0
1, 16173, Note_on_c, 0, 74, 97
1, 16188, Note_on_c, 0, 43, 87
1, 16202, Note_on_c, 0, 75, 0
1, 16327, Note_on_c, 0, 43, 0
1, 16332, Note_on_c, 0, 55, 88
1, 16394, Note_on_c, 0, 55, 0
1, 16466, Note_on_c, 0, 72, 0
1, 16471, Note_on_c, 0, 55, 89
1, 16476, Note_on_c, 0, 71, 66
1, 16519, Note_on_c, 0, 55, 0
1, 16610, Note_on_c, 0, 55, 75
1, 16658, Note_on_c, 0, 55, 0
1, 16692, Note_on_c, 0, 74, 0
1, 16754, Note_on_c, 0, 41, 101
1, 16783, Note_on_c, 0, 71, 0
1, 16869, Note_on_c, 0, 41, 0
1, 16898, Note_on_c, 0, 53, 94
1, 16951, Note_on_c, 0, 53, 0
1, 17052, Note_on_c, 0, 80, 103
1, 17061, Note_on_c, 0, 74, 92
1, 17061, Note_on_c, 0, 53, 70
1, 17066, Note_on_c, 0, 71, 78
1, 17109, Note_on_c, 0, 53, 0
1, 17200, Note_on_c, 0, 53, 60
1, 17253, Note_on_c, 0, 53, 0
1, 17349, Note_on_c, 0, 39, 106
1, 17469, Note_on_c, 0, 39, 0
1, 17488, Note_on_c, 0, 51, 89
1, 17536, Note_on_c, 0, 51, 0
1, 17551, Note_on_c, 0, 71, 0
1, 17618, Note_on_c, 0, 80, 0
1, 17656, Note_on_c, 0, 74, 0
1, 17666, Note_on_c, 0, 79, 87
1, 17666, Note_on_c, 0, 75, 62
1, 17666, Note_on_c, 0, 72, 83
1, 17680, Note_on_c, 0, 51, 65
1, 17728, Note_on_c, 0, 51, 0
1, 17805, Note_on_c, 0, 51, 65
1, 17853, Note_on_c, 0, 51, 0
1, 17930, Note_on_c, 0, 75, 0
1, 17935, Note_on_c, 0, 72, 0
1, 17968, Note_on_c, 0, 35, 95
1, 18016, Note_on_c, 0, 79, 0
1, 18055, Note_on_c, 0, 35, 0
1, 18112, Note_on_c, 0, 47, 76
1, 18160, Note_on_c, 0, 47, 0
1, 18184, Note_on_c, 0, 67, 91
1, 18252, Note_on_c, 0, 47, 70
1, 18280, Note_on_c, 0, 74, 95
1, 18290, Note_on_c, 0, 67, 0
1, 18304, Note_on_c, 0, 47, 0
1, 18400, Note_on_c, 0, 74, 0
1, 18410, Note_on_c, 0, 47, 57
1, 18453, Note_on_c, 0, 77, 87
1, 18463, Note_on_c, 0, 47, 0
1, 18487, Note_on_c, 0, 77, 0
1, 18525, Note_on_c, 0, 75, 86
1, 18559, Note_on_c, 0, 36, 81
1, 18568, Note_on_c, 0, 75, 0
1, 18578, Note_on_c, 0, 77, 61
1, 18626, Note_on_c, 0, 75, 89
1, 18674, Note_on_c, 0, 36, 0
1, 18674, Note_on_c, 0, 77, 0
1, 18703, Note_on_c, 0, 74, 79
1, 18722, Note_on_c, 0, 48, 71
1, 18736, Note_on_c, 0, 75, 0
1, 18775, Note_on_c, 0, 48, 0
1, 18775, Note_on_c, 0, 75, 48
1, 18780, Note_on_c, 0, 74, 0
1, 18823, Note_on_c, 0, 75, 0
1, 18832, Note_on_c, 0, 77, 71
1, 18900, Note_on_c, 0, 79, 88
1, 18900, Note_on_c, 0, 48, 62
1, 18928, Note_on_c, 0, 77, 0
1, 18943, Note_on_c, 0, 48, 0
1, 19029, Note_on_c, 0, 48, 64
1, 19106, Note_on_c, 0, 48, 0
1, 19154, Note_on_c, 0, 79, 0
1, 19178, Note_on_c, 0, 41, 106
1, 19298, Note_on_c, 0, 41, 0
1, 19322, Note_on_c, 0, 53, 94
1, 19394, Note_on_c, 0, 53, 0
1, 19461, Note_on_c, 0, 80, 106
1, 19466, Note_on_c, 0, 71, 92
1, 19471, Note_on_c, 0, 53, 88
1, 19476, Note_on_c, 0, 74, 95
1, 19562, Note_on_c, 0, 53, 0
1, 19629, Note_on_c, 0, 53, 92
1, 19682, Note_on_c, 0, 53, 0
1, 19792, Note_on_c, 0, 39, 106
1, 19879, Note_on_c, 0, 39, 0
1, 19932, Note_on_c, 0, 51, 91
1, 19941, Note_on_c, 0, 74, 0
1, 19960, Note_on_c, 0, 71, 0
1, 19975, Note_on_c, 0, 51, 0
1, 20085, Note_on_c, 0, 51, 79
1, 20090, Note_on_c, 0, 72, 89
1, 20090, Note_on_c, 0, 75, 67
1, 20095, Note_on_c, 0, 79, 89
1, 20138, Note_on_c, 0, 80, 0
1, 20138, Note_on_c, 0, 51, 0
1, 20253, Note_on_c, 0, 51, 62
1, 20316, Note_on_c, 0, 72, 0
1, 20316, Note_on_c, 0, 51, 0
1, 20335, Note_on_c, 0, 75, 0
1, 20344, Note_on_c, 0, 79, 0
1, 20392, Note_on_c, 0, 38, 103
1, 20541, Note_on_c, 0, 38, 0
1, 20546, Note_on_c, 0, 50, 94
1, 20594, Note_on_c, 0, 50, 0
1, 20618, Note_on_c, 0, 77, 91
1, 20671, Note_on_c, 0, 50, 85
1, 20700, Note_on_c, 0, 83, 88
1, 20719, Note_on_c, 0, 50, 0
1, 20738, Note_on_c, 0, 77, 0
1, 20863, Note_on_c, 0, 50, 59
1, 20887, Note_on_c, 0, 83, 0
1, 20911, Note_on_c, 0, 50, 0
1, 20911, Note_on_c, 0, 89, 72
1, 21002, Note_on_c, 0, 89, 0
1, 21026, Note_on_c, 0, 48, 68
1, 21031, Note_on_c, 0, 87, 72
1, 21122, Note_on_c, 0, 87, 0
1, 21170, Note_on_c, 0, 79, 82
1, 21295, Note_on_c, 0, 79, 0
1, 21324, Note_on_c, 0, 84, 85
1, 21333, Note_on_c, 0, 48, 0
1, 21434, Note_on_c, 0, 84, 0
1, 21448, Note_on_c, 0, 75, 75
1, 21520, Note_on_c, 0, 75, 0
1, 21607, Note_on_c, 0, 53, 71
1, 21770, Note_on_c, 0, 77, 73
1, 21885, Note_on_c, 0, 53, 0
1, 21909, Note_on_c, 0, 80, 66
1, 21928, Note_on_c, 0, 77, 0
1, 22063, Note_on_c, 0, 80, 0
1, 22068, Note_on_c, 0, 74, 64
1, 22154, Note_on_c, 0, 74, 0
1, 22216, Note_on_c, 0, 55, 59
1, 22365, Note_on_c, 0, 75, 57
1, 22447, Note_on_c, 0, 55, 0
1, 22514, Note_on_c, 0, 75, 0
1, 22528, Note_on_c, 0, 79, 58
1, 22672, Note_on_c, 0, 79, 0
1, 22687, Note_on_c, 0, 72, 49
1, 22768, Note_on_c, 0, 72, 0
1, 22840, Note_on_c, 0, 43, 39
1, 22975, Note_on_c, 0, 74, 39
1, 23028, Note_on_c, 0, 43, 0
1, 23090, Note_on_c, 0, 74, 0
1, 23128, Note_on_c, 0, 77, 50
1, 23234, Note_on_c, 0, 77, 0
1, 23287, Note_on_c, 0, 71, 33
1, 23340, Note_on_c, 0, 71, 0
1, 23464, Note_on_c, 0, 72, 114
1, 23469, Note_on_c, 0, 60, 100
1, 23695, Note_on_c, 0, 60, 0
1, 23839, Note_on_c, 0, 72, 0
1, 24069, Note_on_c, 0, 75, 101
1, 24079, Note_on_c, 0, 63, 96
1, 24156, Note_on_c, 0, 75, 0
1, 24199, Note_on_c, 0, 63, 0
1, 24372, Note_on_c, 0, 79, 109
1, 24381, Note_on_c, 0, 67, 98
1, 24439, Note_on_c, 0, 67, 0
1, 24468, Note_on_c, 0, 79, 0
1, 24688, Note_on_c, 0, 84, 113
1, 24688, Note_on_c, 0, 72, 111
1, 24794, Note_on_c, 0, 72, 0
1, 24818, Note_on_c, 0, 84, 0
1, 25015, Note_on_c, 0, 87, 102
1, 25024, Note_on_c, 0, 75, 101
1, 25120, Note_on_c, 0, 75, 0
1, 25164, Note_on_c, 0, 87, 0
1, 25528, Note_on_c, 0, 75, 82
1, 25572, Note_on_c, 0, 75, 0
1, 25610, Note_on_c, 0, 77, 94
1, 25648, Note_on_c, 0, 77, 0
1, 25677, Note_on_c, 0, 75, 71
1, 25720, Note_on_c, 0, 75, 0
1, 25725, Note_on_c, 0, 77, 94
1, 25778, Note_on_c, 0, 77, 0
1, 25788, Note_on_c, 0, 75, 78
1, 25860, Note_on_c, 0, 75, 0
1, 25860, Note_on_c, 0, 74, 98
1, 25946, Note_on_c, 0, 75, 90
1, 25970, Note_on_c, 0, 74, 0
1, 26052, Note_on_c, 0, 75, 0
1, 26071, Note_on_c, 0, 46, 119
1, 26071, Note_on_c, 0, 34, 115
1, 26080, Note_on_c, 0, 80, 103
1, 26196, Note_on_c, 0, 82, 106
1, 26272, Note_on_c, 0, 80, 0
1, 26292, Note_on_c, 0, 84, 107
1, 26320, Note_on_c, 0, 82, 0
1, 26383, Note_on_c, 0, 82, 99
1, 26407, Note_on_c, 0, 34, 0
1, 26460, Note_on_c, 0, 46, 0
1, 26479, Note_on_c, 0, 80, 92
1, 26484, Note_on_c, 0, 84, 0
1, 26546, Note_on_c, 0, 82, 0
1, 26584, Note_on_c, 0, 79, 94
1, 26618, Note_on_c, 0, 80, 0
1, 26671, Note_on_c, 0, 79, 0
1, 26676, Note_on_c, 0, 50, 106
1, 26685, Note_on_c, 0, 77, 97
1, 26690, Note_on_c, 0, 38, 83
1, 26719, Note_on_c, 0, 38, 0
1, 26767, Note_on_c, 0, 50, 0
1, 26786, Note_on_c, 0, 79, 91
1, 26805, Note_on_c, 0, 77, 0
1, 26848, Note_on_c, 0, 79, 0
1, 26863, Note_on_c, 0, 80, 86
1, 26968, Note_on_c, 0, 79, 93
1, 26973, Note_on_c, 0, 53, 104
1, 26978, Note_on_c, 0, 41, 100
1, 26988, Note_on_c, 0, 80, 0
1, 27012, Note_on_c, 0, 41, 0
1, 27055, Note_on_c, 0, 53, 0
1, 27069, Note_on_c, 0, 77, 89
1, 27074, Note_on_c, 0, 79, 0
1, 27170, Note_on_c, 0, 75, 84
1, 27189, Note_on_c, 0, 77, 0
1, 27280, Note_on_c, 0, 74, 101
1, 27280, Note_on_c, 0, 58, 113
1, 27290, Note_on_c, 0, 46, 108
1, 27300, Note_on_c, 0, 75, 0
1, 27333, Note_on_c, 0, 46, 0
1, 27367, Note_on_c, 0, 75, 86
1, 27381, Note_on_c, 0, 58, 0
1, 27391, Note_on_c, 0, 74, 0
1, 27477, Note_on_c, 0, 77, 96
1, 27501, Note_on_c, 0, 75, 0
1, 27578, Note_on_c, 0, 75, 78
1, 27583, Note_on_c, 0, 62, 95
1, 27592, Note_on_c, 0, 50, 92
1, 27616, Note_on_c, 0, 77, 0
1, 27669, Note_on_c, 0, 50, 0
1, 27674, Note_on_c, 0, 62, 0
1, 27684, Note_on_c, 0, 74, 89
1, 27717, Note_on_c, 0, 75, 0
1, 27780, Note_on_c, 0, 74, 0
1, 27780, Note_on_c, 0, 72, 84
1, 27880, Note_on_c, 0, 70, 98
1, 27890, Note_on_c, 0, 72, 0
1, 27967, Note_on_c, 0, 72, 88
1, 27996, Note_on_c, 0, 70, 0
1, 28068, Note_on_c, 0, 70, 89
1, 28092, Note_on_c, 0, 72, 0
1, 28197, Note_on_c, 0, 70, 0
1, 28197, Note_on_c, 0, 68, 63
1, 28288, Note_on_c, 0, 70, 61
1, 28298, Note_on_c, 0, 68, 0
1, 28399, Note_on_c, 0, 68, 56
1, 28423, Note_on_c, 0, 70, 0
1, 28490, Note_on_c, 0, 68, 0
1, 28581, Note_on_c, 0, 51, 33
1, 28586, Note_on_c, 0, 67, 55
1, 28788, Note_on_c, 0, 58, 62
1, 28893, Note_on_c, 0, 58, 0
1, 28946, Note_on_c, 0, 55, 47
1, 28980, Note_on_c, 0, 67, 0
1, 29004, Note_on_c, 0, 68, 69
1, 29052, Note_on_c, 0, 67, 73
1, 29061, Note_on_c, 0, 68, 0
1, 29080, Note_on_c, 0, 58, 55
1, 29104, Note_on_c, 0, 55, 0
1, 29124, Note_on_c, 0, 67, 0
1, 29138, Note_on_c, 0, 65, 63
1, 29186, Note_on_c, 0, 65, 0
1, 29210, Note_on_c, 0, 58, 0
1, 29220, Note_on_c, 0, 67, 71
1, 29320, Note_on_c, 0, 51, 0
1, 29320, Note_on_c, 0, 68, 60
1, 29325, Note_on_c, 0, 67, 0
1, 29330, Note_on_c, 0, 53, 33
1, 29488, Note_on_c, 0, 58, 49
1, 29594, Note_on_c, 0, 58, 0
1, 29671, Note_on_c, 0, 62, 52
1, 29676, Note_on_c, 0, 68, 0
1, 29695, Note_on_c, 0, 56, 35
1, 29743, Note_on_c, 0, 53, 0
1, 29781, Note_on_c, 0, 56, 0
1, 29858, Note_on_c, 0, 58, 55
1, 29935, Note_on_c, 0, 58, 0
1, 29983, Note_on_c, 0, 62, 0
1, 30012, Note_on_c, 0, 63, 61
1, 30021, Note_on_c, 0, 55, 40
1, 30074, Note_on_c, 0, 63, 0
1, 30170, Note_on_c, 0, 58, 61
1, 30184, Note_on_c, 0, 67, 76
1, 30237, Note_on_c, 0, 67, 0
1, 30276, Note_on_c, 0, 58, 0
1, 30367, Note_on_c, 0, 51, 46
1, 30367, Note_on_c, 0, 70, 73
1, 30381, Note_on_c, 0, 55, 0
1, 30535, Note_on_c, 0, 58, 61
1, 30626, Note_on_c, 0, 58, 0
1, 30708, Note_on_c, 0, 51, 0
1, 30736, Note_on_c, 0, 50, 50
1, 30880, Note_on_c, 0, 69, 49
1, 30890, Note_on_c, 0, 58, 63
1, 30900, Note_on_c, 0, 70, 0
1, 30967, Note_on_c, 0, 58, 0
1, 31039, Note_on_c, 0, 50, 0
1, 31072, Note_on_c, 0, 69, 0
1, 31082, Note_on_c, 0, 68, 57
1, 31101, Note_on_c, 0, 46, 60
1, 31231, Note_on_c, 0, 66, 67
1, 31236, Note_on_c, 0, 68, 0
1, 31250, Note_on_c, 0, 58, 61
1, 31332, Note_on_c, 0, 58, 0
1, 31413, Note_on_c, 0, 46, 0
1, 31418, Note_on_c, 0, 67, 81
1, 31447, Note_on_c, 0, 66, 0
1, 31452, Note_on_c, 0, 51, 39
1, 31624, Note_on_c, 0, 58, 55
1, 31696, Note_on_c, 0, 58, 0
1, 31845, Note_on_c, 0, 55, 29
1, 31855, Note_on_c, 0, 67, 0
1, 31864, Note_on_c, 0, 68, 76
1, 31936, Note_on_c, 0, 68, 0
1, 31936, Note_on_c, 0, 67, 73
1, 31956, Note_on_c, 0, 58, 43
1, 31965, Note_on_c, 0, 55, 0
1, 31994, Note_on_c, 0, 67, 0
1, 32018, Note_on_c, 0, 65, 67
1, 32100, Note_on_c, 0, 67, 57
1, 32119, Note_on_c, 0, 65, 0
1, 32128, Note_on_c, 0, 58, 0
1, 32176, Note_on_c, 0, 51, 0
1, 32224, Note_on_c, 0, 53, 28
1, 32229, Note_on_c, 0, 68, 62
1, 32239, Note_on_c, 0, 67, 0
1, 32412, Note_on_c, 0, 58, 49
1, 32498, Note_on_c, 0, 58, 0
1, 32594, Note_on_c, 0, 62, 65
1, 32613, Note_on_c, 0, 56, 42
1, 32623, Note_on_c, 0, 68, 0
1, 32690, Note_on_c, 0, 56, 0
1, 32724, Note_on_c, 0, 53, 0
1, 32743, Note_on_c, 0, 62, 0
1, 32776, Note_on_c, 0, 58, 42
1, 32853, Note_on_c, 0, 58, 0
1, 32949, Note_on_c, 0, 63, 37
1, 32992, Note_on_c, 0, 55, 29
1, 33127, Note_on_c, 0, 58, 42
1, 33132, Note_on_c, 0, 75, 55
1, 33146, Note_on_c, 0, 63, 0
1, 33204, Note_on_c, 0, 58, 0
1, 33304, Note_on_c, 0, 75, 0
1, 33314, Note_on_c, 0, 74, 69
1, 33333, Note_on_c, 0, 51, 30
1, 33415, Note_on_c, 0, 51, 0
1, 33420, Note_on_c, 0, 55, 0
1, 33468, Note_on_c, 0, 58, 46
1, 33468, Note_on_c, 0, 72, 84
1, 33501, Note_on_c, 0, 74, 0
1, 33535, Note_on_c, 0, 58, 0
1, 33612, Note_on_c, 0, 70, 91
1, 33650, Note_on_c, 0, 50, 44
1, 33660, Note_on_c, 0, 72, 0
1, 33775, Note_on_c, 0, 58, 59
1, 33794, Note_on_c, 0, 69, 85
1, 33813, Note_on_c, 0, 70, 0
1, 33861, Note_on_c, 0, 58, 0
1, 33890, Note_on_c, 0, 50, 0
1, 33948, Note_on_c, 0, 46, 70
1, 33948, Note_on_c, 0, 68, 78
1, 33996, Note_on_c, 0, 69, 0
1, 34106, Note_on_c, 0, 66, 80
1, 34116, Note_on_c, 0, 58, 70
1, 34135, Note_on_c, 0, 68, 0
1, 34221, Note_on_c, 0, 58, 0
1, 34274, Note_on_c, 0, 46, 0
1, 34317, Note_on_c, 0, 67, 85
1, 34322, Note_on_c, 0, 51, 50
1, 34327, Note_on_c, 0, 66, 0
1, 34509, Note_on_c, 0, 58, 55
1, 34581, Note_on_c, 0, 58, 0
1, 34687, Note_on_c, 0, 70, 74
1, 34720, Note_on_c, 0, 67, 0
1, 34740, Note_on_c, 0, 55, 25
1, 34869, Note_on_c, 0, 58, 54
1, 34879, Note_on_c, 0, 55, 0
1, 34951, Note_on_c, 0, 70, 0
1, 34956, Note_on_c, 0, 58, 0
1, 34994, Note_on_c, 0, 51, 0
1, 35061, Note_on_c, 0, 50, 40
1, 35191, Note_on_c, 0, 70, 92
1, 35224, Note_on_c, 0, 58, 68
1, 35301, Note_on_c, 0, 70, 0
1, 35306, Note_on_c, 0, 58, 0
1, 35364, Note_on_c, 0, 70, 106
1, 35397, Note_on_c, 0, 53, 46
1, 35464, Note_on_c, 0, 70, 0
1, 35474, Note_on_c, 0, 53, 0
1, 35517, Note_on_c, 0, 70, 108
1, 35546, Note_on_c, 0, 58, 52
1, 35575, Note_on_c, 0, 70, 0
1, 35637, Note_on_c, 0, 58, 0
1, 35647, Note_on_c, 0, 50, 0
1, 35709, Note_on_c, 0, 77, 94
1, 35757, Note_on_c, 0, 48, 43
1, 35911, Note_on_c, 0, 58, 53
1, 35930, Note_on_c, 0, 75, 69
1, 35949, Note_on_c, 0, 77, 0
1, 36050, Note_on_c, 0, 58, 0
1, 36079, Note_on_c, 0, 75, 0
1, 36136, Note_on_c, 0, 75, 84
1, 36146, Note_on_c, 0, 55, 26
1, 36223, Note_on_c, 0, 48, 0
1, 36266, Note_on_c, 0, 75, 0
1, 36319, Note_on_c, 0, 58, 54
1, 36386, Note_on_c, 0, 55, 0
1, 36410, Note_on_c, 0, 58, 0
1, 36516, Note_on_c, 0, 48, 49
1, 36664, Note_on_c, 0, 75, 83
1, 36679, Note_on_c, 0, 58, 61
1, 36717, Note_on_c, 0, 75, 0
1, 36765, Note_on_c, 0, 58, 0
1, 36804, Note_on_c, 0, 48, 0
1, 36828, Note_on_c, 0, 75, 84
1, 36866, Note_on_c, 0, 55, 50
1, 36885, Note_on_c, 0, 75, 0
1, 36919, Note_on_c, 0, 55, 0
1, 36981, Note_on_c, 0, 75, 77
1, 36986, Note_on_c, 0, 58, 80
1, 37034, Note_on_c, 0, 75, 0
1, 37044, Note_on_c, 0, 58, 0
1, 37173, Note_on_c, 0, 57, 63
1, 37173, Note_on_c, 0, 48, 73
1, 37173, Note_on_c, 0, 75, 92
1, 37197, Note_on_c, 0, 53, 61
1, 37380, Note_on_c, 0, 77, 85
1, 37413, Note_on_c, 0, 75, 0
1, 37423, Note_on_c, 0, 77, 0
1, 37432, Note_on_c, 0, 79, 86
1, 37519, Note_on_c, 0, 77, 92
1, 37557, Note_on_c, 0, 79, 0
1, 37668, Note_on_c, 0, 77, 0
1, 37687, Note_on_c, 0, 75, 88
1, 37778, Note_on_c, 0, 75, 0
1, 37855, Note_on_c, 0, 74, 95
1, 37903, Note_on_c, 0, 74, 0
1, 38018, Note_on_c, 0, 72, 95
1, 38090, Note_on_c, 0, 72, 0
1, 38172, Note_on_c, 0, 70, 98
1, 38229, Note_on_c, 0, 70, 0
1, 38340, Note_on_c, 0, 69, 89
1, 38378, Note_on_c, 0, 48, 0
1, 38388, Note_on_c, 0, 69, 0
1, 38388, Note_on_c, 0, 53, 0
1, 38440, Note_on_c, 0, 57, 0
1, 38532, Note_on_c, 0, 72, 87
1, 38892, Note_on_c, 0, 70, 66
1, 38901, Note_on_c, 0, 62, 57
1, 38901, Note_on_c, 0, 58, 67
1, 38940, Note_on_c, 0, 72, 0
1, 39218, Note_on_c, 0, 70, 0
1, 39266, Note_on_c, 0, 62, 0
1, 39266, Note_on_c, 0, 63, 47
1, 39271, Note_on_c, 0, 58, 0
1, 39280, Note_on_c, 0, 59, 43
1, 39612, Note_on_c, 0, 75, 69
1, 39679, Note_on_c, 0, 75, 0
1, 39770, Note_on_c, 0, 75, 75
1, 39818, Note_on_c, 0, 63, 0
1, 39828, Note_on_c, 0, 59, 0
1, 39880, Note_on_c, 0, 75, 0
1, 39962, Note_on_c, 0, 82, 84
1, 40327, Note_on_c, 0, 62, 49
1, 40332, Note_on_c, 0, 58, 42
1, 40471, Note_on_c, 0, 82, 0
1, 40687, Note_on_c, 0, 62, 0
1, 40692, Note_on_c, 0, 63, 38
1, 40706, Note_on_c, 0, 59, 43
1, 40735, Note_on_c, 0, 58, 0
1, 41056, Note_on_c, 0, 75, 49
1, 41119, Note_on_c, 0, 75, 0
1, 41133, Note_on_c, 0, 63, 0
1, 41152, Note_on_c, 0, 59, 0
1, 41220, Note_on_c, 0, 75, 48
1, 41311, Note_on_c, 0, 75, 0
1, 41436, Note_on_c, 0, 82, 52
1, 41805, Note_on_c, 0, 62, 37
1, 41810, Note_on_c, 0, 58, 44
1, 41997, Note_on_c, 0, 82, 0
1, 42165, Note_on_c, 0, 62, 0
1, 42175, Note_on_c, 0, 58, 0
1, 42175, Note_on_c, 0, 63, 41
1, 42194, Note_on_c, 0, 59, 36
1, 42549, Note_on_c, 0, 63, 0
1, 42554, Note_on_c, 0, 75, 56
1, 42564, Note_on_c, 0, 59, 0
1, 42612, Note_on_c, 0, 75, 0
1, 42708, Note_on_c, 0, 75, 54
1, 42852, Note_on_c, 0, 75, 0
1, 42904, Note_on_c, 0, 58, 65
1, 42909, Note_on_c, 0, 82, 75
1, 42914, Note_on_c, 0, 62, 46
1, 43144, Note_on_c, 0, 82, 0
1, 43207, Note_on_c, 0, 58, 0
1, 43216, Note_on_c, 0, 62, 0
1, 43236, Note_on_c, 0, 63, 48
1, 43250, Note_on_c, 0, 75, 72
1, 43255, Note_on_c, 0, 59, 49
1, 43298, Note_on_c, 0, 75, 0
1, 43394, Note_on_c, 0, 75, 66
1, 43514, Note_on_c, 0, 75, 0
1, 43543, Note_on_c, 0, 59, 0
1, 43576, Note_on_c, 0, 58, 55
1, 43576, Note_on_c, 0, 82, 79
1, 43581, Note_on_c, 0, 63, 0
1, 43596, Note_on_c, 0, 62, 36
1, 43788, Note_on_c, 0, 82, 0
1, 43869, Note_on_c, 0, 58, 0
1, 43884, Note_on_c, 0, 62, 0
1, 43893, Note_on_c, 0, 75, 68
1, 43908, Note_on_c, 0, 63, 39
1, 43922, Note_on_c, 0, 59, 29
1, 43941, Note_on_c, 0, 75, 0
1, 44037, Note_on_c, 0, 75, 50
1, 44181, Note_on_c, 0, 75, 0
1, 44239, Note_on_c, 0, 59, 0
1, 44239, Note_on_c, 0, 82, 46
1, 44258, Note_on_c, 0, 58, 40
1, 44277, Note_on_c, 0, 63, 0
1, 44287, Note_on_c, 0, 62, 17
1, 44479, Note_on_c, 0, 82, 0
1, 44604, Note_on_c, 0, 82, 49
1, 44824, Note_on_c, 0, 62, 0
1, 44844, Note_on_c, 0, 82, 0
1, 44868, Note_on_c, 0, 58, 0
1, 44949, Note_on_c, 0, 82, 73
1, 45194, Note_on_c, 0, 82, 0
1, 45271, Note_on_c, 0, 82, 82
1, 45453, Note_on_c, 0, 82, 0
1, 45621, Note_on_c, 0, 82, 79
1, 45813, Note_on_c, 0, 81, 83
1, 45847, Note_on_c, 0, 82, 0
1, 45972, Note_on_c, 0, 80, 82
1, 46000, Note_on_c, 0, 81, 0
1, 46130, Note_on_c, 0, 77, 84
1, 46149, Note_on_c, 0, 80, 0
1, 46303, Note_on_c, 0, 77, 0
1, 46312, Note_on_c, 0, 82, 72
1, 46514, Note_on_c, 0, 82, 0
1, 46519, Note_on_c, 0, 81, 52
1, 46692, Note_on_c, 0, 80, 48
1, 46701, Note_on_c, 0, 81, 0
1, 46869, Note_on_c, 0, 80, 0
1, 46888, Note_on_c, 0, 77, 48
1, 47119, Note_on_c, 0, 75, 53
1, 47128, Note_on_c, 0, 77, 0
1, 47167, Note_on_c, 0, 67, 21
1, 47311, Note_on_c, 0, 67, 0
1, 47325, Note_on_c, 0, 70, 52
1, 47412, Note_on_c, 0, 70, 0
1, 47512, Note_on_c, 0, 67, 41
1, 47608, Note_on_c, 0, 67, 0
1, 47680, Note_on_c, 0, 75, 0
1, 47680, Note_on_c, 0, 70, 50
1, 47695, Note_on_c, 0, 77, 66
1, 47748, Note_on_c, 0, 77, 0
1, 47752, Note_on_c, 0, 75, 74
1, 47767, Note_on_c, 0, 70, 0
1, 47834, Note_on_c, 0, 74, 71
1, 47844, Note_on_c, 0, 75, 0
1, 47906, Note_on_c, 0, 65, 25
1, 48012, Note_on_c, 0, 74, 0
1, 48016, Note_on_c, 0, 65, 0
1, 48026, Note_on_c, 0, 70, 56
1, 48122, Note_on_c, 0, 70, 0
1, 48189, Note_on_c, 0, 75, 78
1, 48247, Note_on_c, 0, 67, 35
1, 48309, Note_on_c, 0, 67, 0
1, 48376, Note_on_c, 0, 75, 0
1, 48376, Note_on_c, 0, 70, 52
1, 48463, Note_on_c, 0, 70, 0
1, 48554, Note_on_c, 0, 76, 92
1, 48626, Note_on_c, 0, 67, 33
1, 48698, Note_on_c, 0, 67, 0
1, 48741, Note_on_c, 0, 70, 53
1, 48933, Note_on_c, 0, 70, 0
1, 48986, Note_on_c, 0, 67, 23
1, 49072, Note_on_c, 0, 67, 0
1, 49125, Note_on_c, 0, 70, 50
1, 49226, Note_on_c, 0, 70, 0
1, 49288, Note_on_c, 0, 68, 44
1, 49303, Note_on_c, 0, 77, 57
1, 49332, Note_on_c, 0, 76, 0
1, 49442, Note_on_c, 0, 68, 0
1, 49471, Note_on_c, 0, 70, 58
1, 49528, Note_on_c, 0, 77, 0
1, 49552, Note_on_c, 0, 70, 0
1, 49648, Note_on_c, 0, 68, 36
1, 49720, Note_on_c, 0, 68, 0
1, 49792, Note_on_c, 0, 70, 56
1, 49903, Note_on_c, 0, 70, 0
1, 49975, Note_on_c, 0, 56, 65
1, 49999, Note_on_c, 0, 65, 43
1, 50138, Note_on_c, 0, 65, 0
1, 50181, Note_on_c, 0, 70, 47
1, 50296, Note_on_c, 0, 70, 0
1, 50421, Note_on_c, 0, 65, 28
1, 50479, Note_on_c, 0, 56, 0
1, 50498, Note_on_c, 0, 65, 0
1, 50512, Note_on_c, 0, 55, 61
1, 50536, Note_on_c, 0, 70, 49
1, 50589, Note_on_c, 0, 56, 37
1, 50599, Note_on_c, 0, 55, 0
1, 50647, Note_on_c, 0, 70, 0
1, 50700, Note_on_c, 0, 58, 68
1, 50714, Note_on_c, 0, 56, 0
1, 50752, Note_on_c, 0, 65, 39
1, 50877, Note_on_c, 0, 56, 68
1, 50896, Note_on_c, 0, 70, 49
1, 50920, Note_on_c, 0, 65, 0
1, 50930, Note_on_c, 0, 58, 0
1, 50988, Note_on_c, 0, 70, 0
1, 51045, Note_on_c, 0, 55, 75
1, 51074, Note_on_c, 0, 56, 0
1, 51093, Note_on_c, 0, 67, 25
1, 51175, Note_on_c, 0, 67, 0
1, 51199, Note_on_c, 0, 70, 51
1, 51204, Note_on_c, 0, 55, 0
1, 51213, Note_on_c, 0, 53, 68
1, 51348, Note_on_c, 0, 70, 0
1, 51391, Note_on_c, 0, 51, 68
1, 51415, Note_on_c, 0, 68, 44
1, 51429, Note_on_c, 0, 53, 0
1, 51568, Note_on_c, 0, 70, 49
1, 51703, Note_on_c, 0, 70, 0
1, 51775, Note_on_c, 0, 68, 0
1, 51837, Note_on_c, 0, 65, 18
1, 51943, Note_on_c, 0, 65, 0
1, 51952, Note_on_c, 0, 70, 47
1, 52044, Note_on_c, 0, 70, 0
1, 52149, Note_on_c, 0, 50, 47
1, 52168, Note_on_c, 0, 68, 39
1, 52202, Note_on_c, 0, 51, 0
1, 52260, Note_on_c, 0, 68, 0
1, 52317, Note_on_c, 0, 70, 50
1, 52336, Note_on_c, 0, 50, 0
1, 52418, Note_on_c, 0, 70, 0
1, 52538, Note_on_c, 0, 65, 33
1, 52615, Note_on_c, 0, 65, 0
1, 52696, Note_on_c, 0, 70, 54
1, 52807, Note_on_c, 0, 70, 0
1, 52879, Note_on_c, 0, 77, 89
1, 52941, Note_on_c, 0, 62, 20
1, 53023, Note_on_c, 0, 62, 0
1, 53037, Note_on_c, 0, 70, 50
1, 53133, Note_on_c, 0, 70, 0
1, 53224, Note_on_c, 0, 62, 45
1, 53335, Note_on_c, 0, 62, 0
1, 53378, Note_on_c, 0, 70, 64
1, 53426, Note_on_c, 0, 77, 0
1, 53426, Note_on_c, 0, 79, 83
1, 53498, Note_on_c, 0, 77, 88
1, 53517, Note_on_c, 0, 70, 0
1, 53532, Note_on_c, 0, 79, 0
1, 53589, Note_on_c, 0, 60, 51
1, 53594, Note_on_c, 0, 75, 84
1, 53618, Note_on_c, 0, 77, 0
1, 53695, Note_on_c, 0, 60, 0
1, 53757, Note_on_c, 0, 70, 69
1, 53911, Note_on_c, 0, 70, 0
1, 53935, Note_on_c, 0, 75, 0
1, 53935, Note_on_c, 0, 77, 95
1, 53978, Note_on_c, 0, 62, 44
1, 54036, Note_on_c, 0, 62, 0
1, 54117, Note_on_c, 0, 70, 57
1, 54136, Note_on_c, 0, 77, 0
1, 54213, Note_on_c, 0, 70, 0
1, 54285, Note_on_c, 0, 78, 79
1, 54324, Note_on_c, 0, 62, 30
1, 54410, Note_on_c, 0, 62, 0
1, 54482, Note_on_c, 0, 70, 52
1, 54664, Note_on_c, 0, 70, 0
1, 54693, Note_on_c, 0, 62, 42
1, 54765, Note_on_c, 0, 62, 0
1, 54856, Note_on_c, 0, 70, 45
1, 54996, Note_on_c, 0, 70, 0
1, 55034, Note_on_c, 0, 79, 62
1, 55044, Note_on_c, 0, 63, 44
1, 55077, Note_on_c, 0, 78, 0
1, 55231, Note_on_c, 0, 70, 48
1, 55236, Note_on_c, 0, 63, 0
1, 55269, Note_on_c, 0, 79, 0
1, 55322, Note_on_c, 0, 70, 0
1, 55423, Note_on_c, 0, 63, 34
1, 55490, Note_on_c, 0, 63, 0
1, 55581, Note_on_c, 0, 70, 32
1, 55682, Note_on_c, 0, 70, 0
1, 55773, Note_on_c, 0, 58, 60
1, 55826, Note_on_c, 0, 67, 22
1, 55951, Note_on_c, 0, 70, 47
1, 56042, Note_on_c, 0, 70, 0
1, 56138, Note_on_c, 0, 63, 37
1, 56157, Note_on_c, 0, 67, 0
1, 56268, Note_on_c, 0, 58, 0
1, 56301, Note_on_c, 0, 70, 48
1, 56311, Note_on_c, 0, 57, 62
1, 56378, Note_on_c, 0, 57, 0
1, 56392, Note_on_c, 0, 58, 64
1, 56397, Note_on_c, 0, 63, 0
1, 56397, Note_on_c, 0, 70, 0
1, 56460, Note_on_c, 0, 58, 0
1, 56474, Note_on_c, 0, 60, 65
1, 56527, Note_on_c, 0, 67, 34
1, 56652, Note_on_c, 0, 70, 46
1, 56652, Note_on_c, 0, 58, 80
1, 56680, Note_on_c, 0, 60, 0
1, 56733, Note_on_c, 0, 70, 0
1, 56815, Note_on_c, 0, 56, 70
1, 56820, Note_on_c, 0, 67, 0
1, 56839, Note_on_c, 0, 63, 29
1, 56853, Note_on_c, 0, 58, 0
1, 56973, Note_on_c, 0, 63, 0
1, 56983, Note_on_c, 0, 56, 0
1, 56983, Note_on_c, 0, 55, 77
1, 56992, Note_on_c, 0, 70, 47
1, 57026, Note_on_c, 0, 55, 0
1, 57098, Note_on_c, 0, 70, 0
1, 57175, Note_on_c, 0, 53, 69
1, 57208, Note_on_c, 0, 68, 43
1, 57367, Note_on_c, 0, 70, 52
1, 57477, Note_on_c, 0, 70, 0
1, 57602, Note_on_c, 0, 65, 26
1, 57621, Note_on_c, 0, 68, 0
1, 57698, Note_on_c, 0, 65, 0
1, 57751, Note_on_c, 0, 70, 23
1, 57842, Note_on_c, 0, 70, 0
1, 57924, Note_on_c, 0, 51, 48
1, 57957, Note_on_c, 0, 67, 28
1, 57991, Note_on_c, 0, 53, 0
1, 58106, Note_on_c, 0, 70, 48
1, 58173, Note_on_c, 0, 51, 0
1, 58183, Note_on_c, 0, 70, 0
1, 58308, Note_on_c, 0, 63, 32
1, 58336, Note_on_c, 0, 67, 0
1, 58394, Note_on_c, 0, 63, 0
1, 58456, Note_on_c, 0, 70, 43
1, 58528, Note_on_c, 0, 70, 0
1, 58639, Note_on_c, 0, 82, 111
1, 58644, Note_on_c, 0, 70, 91
1, 58672, Note_on_c, 0, 63, 61
1, 58778, Note_on_c, 0, 63, 0
1, 58816, Note_on_c, 0, 67, 63
1, 58946, Note_on_c, 0, 67, 0
1, 58989, Note_on_c, 0, 63, 72
1, 59167, Note_on_c, 0, 67, 70
1, 59220, Note_on_c, 0, 63, 0
1, 59277, Note_on_c, 0, 70, 0
1, 59301, Note_on_c, 0, 67, 0
1, 59340, Note_on_c, 0, 71, 90
1, 59340, Note_on_c, 0, 83, 100
1, 59344, Note_on_c, 0, 61, 65
1, 59359, Note_on_c, 0, 82, 0
1, 59512, Note_on_c, 0, 65, 77
1, 59536, Note_on_c, 0, 61, 0
1, 59637, Note_on_c, 0, 65, 0
1, 59676, Note_on_c, 0, 71, 0
1, 59695, Note_on_c, 0, 61, 78
1, 59844, Note_on_c, 0, 65, 80
1, 59863, Note_on_c, 0, 61, 0
1, 59959, Note_on_c, 0, 65, 0
1, 59959, Note_on_c, 0, 83, 0
1, 60012, Note_on_c, 0, 84, 114
1, 60016, Note_on_c, 0, 72, 103
1, 60026, Note_on_c, 0, 60, 92
1, 60189, Note_on_c, 0, 64, 82
1, 60232, Note_on_c, 0, 72, 0
1, 60252, Note_on_c, 0, 60, 0
1, 60271, Note_on_c, 0, 64, 0
1, 60376, Note_on_c, 0, 73, 83
1, 60376, Note_on_c, 0, 85, 101
1, 60386, Note_on_c, 0, 58, 95
1, 60410, Note_on_c, 0, 64, 72
1, 60444, Note_on_c, 0, 84, 0
1, 60645, Note_on_c, 0, 64, 0
1, 60674, Note_on_c, 0, 73, 0
1, 60708, Note_on_c, 0, 58, 0
1, 60712, Note_on_c, 0, 85, 0
1, 61557, Note_on_c, 0, 56, 35
1, 61562, Note_on_c, 0, 65, 32
1, 61768, Note_on_c, 0, 84, 54
1, 61932, Note_on_c, 0, 82, 79
1, 61956, Note_on_c, 0, 84, 0
1, 61984, Note_on_c, 0, 65, 0
1, 61999, Note_on_c, 0, 56, 0
1, 62085, Note_on_c, 0, 80, 79
1, 62138, Note_on_c, 0, 82, 0
1, 62263, Note_on_c, 0, 79, 81
1, 62296, Note_on_c, 0, 80, 0
1, 62440, Note_on_c, 0, 77, 82
1, 62450, Note_on_c, 0, 79, 0
1, 62618, Note_on_c, 0, 79, 77
1, 62661, Note_on_c, 0, 77, 0
1, 62791, Note_on_c, 0, 80, 70
1, 62800, Note_on_c, 0, 79, 0
1, 63021, Note_on_c, 0, 75, 50
1, 63026, Note_on_c, 0, 80, 0
1, 63357, Note_on_c, 0, 67, 42
1, 63391, Note_on_c, 0, 58, 33
1, 63717, Note_on_c, 0, 67, 0
1, 63741, Note_on_c, 0, 68, 52
1, 64000, Note_on_c, 0, 58, 0
1, 64188, Note_on_c, 0, 79, 43
1, 64207, Note_on_c, 0, 74, 32
1, 64212, Note_on_c, 0, 59, 27
1, 64226, Note_on_c, 0, 75, 0
1, 64418, Note_on_c, 0, 77, 53
1, 64428, Note_on_c, 0, 79, 0
1, 64437, Note_on_c, 0, 74, 0
1, 64476, Note_on_c, 0, 68, 0
1, 64600, Note_on_c, 0, 59, 0
1, 64624, Note_on_c, 0, 77, 0
1, 64668, Note_on_c, 0, 67, 30
1, 64682, Note_on_c, 0, 75, 42
1, 64687, Note_on_c, 0, 60, 32
1, 65071, Note_on_c, 0, 75, 0
1, 65133, Note_on_c, 0, 67, 0
1, 65191, Note_on_c, 0, 60, 0
1, 65234, Note_on_c, 0, 75, 38
1, 65436, Note_on_c, 0, 75, 0
1, 65440, Note_on_c, 0, 74, 55
1, 65608, Note_on_c, 0, 73, 52
1, 65623, Note_on_c, 0, 74, 0
1, 65796, Note_on_c, 0, 73, 0
1, 65796, Note_on_c, 0, 72, 82
1, 65973, Note_on_c, 0, 71, 74
1, 65992, Note_on_c, 0, 72, 0
1, 66165, Note_on_c, 0, 51, 52
1, 66175, Note_on_c, 0, 70, 89
1, 66199, Note_on_c, 0, 71, 0
1, 66376, Note_on_c, 0, 55, 60
1, 66405, Note_on_c, 0, 51, 0
1, 66516, Note_on_c, 0, 55, 0
1, 66535, Note_on_c, 0, 51, 65
1, 66712, Note_on_c, 0, 55, 65
1, 66722, Note_on_c, 0, 51, 0
1, 66842, Note_on_c, 0, 55, 0
1, 66880, Note_on_c, 0, 49, 68
1, 66885, Note_on_c, 0, 59, 71
1, 66885, Note_on_c, 0, 71, 83
1, 66900, Note_on_c, 0, 70, 0
1, 67082, Note_on_c, 0, 53, 69
1, 67111, Note_on_c, 0, 49, 0
1, 67240, Note_on_c, 0, 53, 0
1, 67255, Note_on_c, 0, 49, 86
1, 67413, Note_on_c, 0, 53, 83
1, 67432, Note_on_c, 0, 59, 0
1, 67485, Note_on_c, 0, 49, 0
1, 67533, Note_on_c, 0, 53, 0
1, 67576, Note_on_c, 0, 72, 110
1, 67586, Note_on_c, 0, 60, 95
1, 67586, Note_on_c, 0, 48, 94
1, 67620, Note_on_c, 0, 71, 0
1, 67744, Note_on_c, 0, 52, 88
1, 67807, Note_on_c, 0, 48, 0
1, 67807, Note_on_c, 0, 60, 0
1, 67845, Note_on_c, 0, 52, 0
1, 67946, Note_on_c, 0, 73, 97
1, 67951, Note_on_c, 0, 61, 84
1, 67960, Note_on_c, 0, 52, 74
1, 67960, Note_on_c, 0, 46, 95
1, 68018, Note_on_c, 0, 72, 0
1, 68306, Note_on_c, 0, 52, 0
1, 68335, Note_on_c, 0, 61, 0
1, 68354, Note_on_c, 0, 46, 0
1, 68402, Note_on_c, 0, 73, 0
1, 68997, Note_on_c, 0, 72, 111
1, 69002, Note_on_c, 0, 53, 101
1, 69002, Note_on_c, 0, 48, 103
1, 69012, Note_on_c, 0, 44, 78
1, 69127, Note_on_c, 0, 77, 99
1, 69151, Note_on_c, 0, 72, 0
1, 69218, Note_on_c, 0, 77, 0
1, 69237, Note_on_c, 0, 67, 98
1, 69348, Note_on_c, 0, 68, 95
1, 69372, Note_on_c, 0, 67, 0
1, 69448, Note_on_c, 0, 72, 95
1, 69487, Note_on_c, 0, 68, 0
1, 69544, Note_on_c, 0, 72, 0
1, 69554, Note_on_c, 0, 64, 94
1, 69664, Note_on_c, 0, 64, 0
1, 69674, Note_on_c, 0, 65, 95
1, 69784, Note_on_c, 0, 65, 0
1, 69784, Note_on_c, 0, 68, 92
1, 69890, Note_on_c, 0, 68, 0
1, 69895, Note_on_c, 0, 59, 87
1, 69986, Note_on_c, 0, 59, 0
1, 70000, Note_on_c, 0, 53, 0
1, 70000, Note_on_c, 0, 60, 92
1, 70063, Note_on_c, 0, 48, 0
1, 70092, Note_on_c, 0, 44, 0
1, 70106, Note_on_c, 0, 65, 91
1, 70125, Note_on_c, 0, 60, 0
1, 70202, Note_on_c, 0, 65, 0
1, 70216, Note_on_c, 0, 55, 94
1, 70336, Note_on_c, 0, 55, 0
1, 70351, Note_on_c, 0, 56, 97
1, 70365, Note_on_c, 0, 41, 109
1, 70380, Note_on_c, 0, 36, 109
1, 70385, Note_on_c, 0, 32, 109
1, 70476, Note_on_c, 0, 60, 92
1, 70509, Note_on_c, 0, 56, 0
1, 70581, Note_on_c, 0, 52, 92
1, 70600, Note_on_c, 0, 60, 0
1, 70692, Note_on_c, 0, 52, 0
1, 70696, Note_on_c, 0, 53, 92
1, 70802, Note_on_c, 0, 56, 91
1, 70826, Note_on_c, 0, 53, 0
1, 70903, Note_on_c, 0, 56, 0
1, 70908, Note_on_c, 0, 47, 86
1, 71018, Note_on_c, 0, 48, 106
1, 71032, Note_on_c, 0, 47, 0
1, 71138, Note_on_c, 0, 53, 87
1, 71143, Note_on_c, 0, 48, 0
1, 71176, Note_on_c, 0, 41, 0
1, 71191, Note_on_c, 0, 36, 0
1, 71224, Note_on_c, 0, 53, 0
1, 71244, Note_on_c, 0, 43, 95
1, 71349, Note_on_c, 0, 44, 92
1, 71373, Note_on_c, 0, 43, 0
1, 71474, Note_on_c, 0, 48, 91
1, 71512, Note_on_c, 0, 44, 0
1, 71580, Note_on_c, 0, 40, 99
1, 71628, Note_on_c, 0, 48, 0
1, 71719, Note_on_c, 0, 41, 97
1, 71728, Note_on_c, 0, 40, 0
1, 71758, Note_on_c, 0, 32, 0
1, 72247, Note_on_c, 0, 36, 88
1, 72304, Note_on_c, 0, 41, 0
1, 72439, Note_on_c, 0, 44, 81
1, 72453, Note_on_c, 0, 36, 0
1, 72631, Note_on_c, 0, 44, 0
1, 72636, Note_on_c, 0, 41, 96
1, 72804, Note_on_c, 0, 48, 98
1, 72828, Note_on_c, 0, 41, 0
1, 72957, Note_on_c, 0, 44, 89
1, 73010, Note_on_c, 0, 48, 0
1, 73135, Note_on_c, 0, 53, 91
1, 73144, Note_on_c, 0, 44, 0
1, 73269, Note_on_c, 0, 53, 0
1, 73303, Note_on_c, 0, 48, 97
1, 73452, Note_on_c, 0, 48, 0
1, 73456, Note_on_c, 0, 56, 89
1, 73610, Note_on_c, 0, 56, 0
1, 73620, Note_on_c, 0, 53, 94
1, 73778, Note_on_c, 0, 60, 95
1, 73788, Note_on_c, 0, 53, 0
1, 73936, Note_on_c, 0, 56, 92
1, 73994, Note_on_c, 0, 60, 0
1, 74109, Note_on_c, 0, 56, 0
1, 74109, Note_on_c, 0, 65, 96
1, 74229, Note_on_c, 0, 65, 0
1, 74268, Note_on_c, 0, 60, 89
1, 74416, Note_on_c, 0, 60, 0
1, 74436, Note_on_c, 0, 68, 86
1, 74589, Note_on_c, 0, 68, 0
1, 74608, Note_on_c, 0, 65, 80
1, 74767, Note_on_c, 0, 72, 89
1, 74781, Note_on_c, 0, 65, 0
1, 74925, Note_on_c, 0, 68, 88
1, 74973, Note_on_c, 0, 72, 0
1, 75103, Note_on_c, 0, 77, 94
1, 75112, Note_on_c, 0, 68, 0
1, 75228, Note_on_c, 0, 77, 0
1, 75252, Note_on_c, 0, 72, 100
1, 75415, Note_on_c, 0, 80, 95
1, 75420, Note_on_c, 0, 72, 0
1, 75564, Note_on_c, 0, 77, 101
1, 75626, Note_on_c, 0, 80, 0
1, 75765, Note_on_c, 0, 84, 104
1, 75789, Note_on_c, 0, 77, 0
1, 76029, Note_on_c, 0, 84, 0
1, 76096, Note_on_c, 0, 56, 53
1, 76111, Note_on_c, 0, 65, 91
1, 76116, Note_on_c, 0, 60, 78
1, 76408, Note_on_c, 0, 60, 0
1, 76423, Note_on_c, 0, 65, 0
1, 76432, Note_on_c, 0, 56, 0
1, 76476, Note_on_c, 0, 87, 90
1, 76845, Note_on_c, 0, 66, 48
1, 76868, Note_on_c, 0, 57, 43
1, 76874, Note_on_c, 0, 60, 40
1, 77013, Note_on_c, 0, 87, 0
1, 77061, Note_on_c, 0, 60, 0
1, 77065, Note_on_c, 0, 57, 0
1, 77162, Note_on_c, 0, 66, 0
1, 77258, Note_on_c, 0, 67, 45
1, 77258, Note_on_c, 0, 58, 49
1, 77272, Note_on_c, 0, 63, 40
1, 77450, Note_on_c, 0, 70, 81
1, 77623, Note_on_c, 0, 70, 0
1, 77642, Note_on_c, 0, 82, 88
1, 77791, Note_on_c, 0, 67, 0
1, 77815, Note_on_c, 0, 81, 88
1, 77829, Note_on_c, 0, 63, 0
1, 77839, Note_on_c, 0, 82, 0
1, 77848, Note_on_c, 0, 58, 0
1, 77978, Note_on_c, 0, 80, 86
1, 78016, Note_on_c, 0, 81, 0
1, 78156, Note_on_c, 0, 79, 90
1, 78165, Note_on_c, 0, 80, 0
1, 78304, Note_on_c, 0, 78, 81
1, 78314, Note_on_c, 0, 79, 0
1, 78477, Note_on_c, 0, 77, 84
1, 78482, Note_on_c, 0, 78, 0
1, 78520, Note_on_c, 0, 77, 0
1, 78660, Note_on_c, 0, 77, 83
1, 78842, Note_on_c, 0, 75, 61
1, 78880, Note_on_c, 0, 77, 0
1, 78948, Note_on_c, 0, 75, 0
1, 79015, Note_on_c, 0, 75, 80
1, 79058, Note_on_c, 0, 67, 44
1, 79072, Note_on_c, 0, 58, 34
1, 79423, Note_on_c, 0, 68, 53
1, 79437, Note_on_c, 0, 67, 0
1, 79773, Note_on_c, 0, 79, 65
1, 79797, Note_on_c, 0, 74, 44
1, 79807, Note_on_c, 0, 75, 0
1, 79927, Note_on_c, 0, 79, 0
1, 79960, Note_on_c, 0, 77, 42
1, 80052, Note_on_c, 0, 74, 0
1, 80104, Note_on_c, 0, 77, 0
1, 80114, Note_on_c, 0, 58, 0
1, 80119, Note_on_c, 0, 68, 0
1, 80138, Note_on_c, 0, 75, 41
1, 80148, Note_on_c, 0, 63, 31
1, 80306, Note_on_c, 0, 70, 56
1, 80416, Note_on_c, 0, 70, 0
1, 80469, Note_on_c, 0, 75, 0
1, 80512, Note_on_c, 0, 67, 46
1, 80570, Note_on_c, 0, 63, 0
1, 80623, Note_on_c, 0, 67, 0
1, 80647, Note_on_c, 0, 75, 58
1, 80666, Note_on_c, 0, 70, 57
1, 80805, Note_on_c, 0, 70, 0
1, 80829, Note_on_c, 0, 76, 74
1, 80858, Note_on_c, 0, 75, 0
1, 80868, Note_on_c, 0, 62, 41
1, 81016, Note_on_c, 0, 77, 66
1, 81026, Note_on_c, 0, 70, 57
1, 81036, Note_on_c, 0, 76, 0
1, 81112, Note_on_c, 0, 70, 0
1, 81146, Note_on_c, 0, 77, 0
1, 81194, Note_on_c, 0, 68, 62
1, 81213, Note_on_c, 0, 62, 0
1, 81266, Note_on_c, 0, 68, 0
1, 81348, Note_on_c, 0, 77, 93
1, 81352, Note_on_c, 0, 70, 70
1, 81525, Note_on_c, 0, 70, 0
1, 81525, Note_on_c, 0, 78, 83
1, 81535, Note_on_c, 0, 63, 54
1, 81540, Note_on_c, 0, 77, 0
1, 81688, Note_on_c, 0, 70, 63
1, 81732, Note_on_c, 0, 78, 0
1, 81736, Note_on_c, 0, 79, 61
1, 81828, Note_on_c, 0, 70, 0
1, 81837, Note_on_c, 0, 79, 0
1, 81876, Note_on_c, 0, 63, 0
1, 81890, Note_on_c, 0, 67, 56
1, 82029, Note_on_c, 0, 67, 0
1, 82029, Note_on_c, 0, 79, 87
1, 82048, Note_on_c, 0, 70, 78
1, 82096, Note_on_c, 0, 70, 0
1, 82221, Note_on_c, 0, 82, 87
1, 82236, Note_on_c, 0, 53, 65
1, 82269, Note_on_c, 0, 79, 0
1, 82399, Note_on_c, 0, 80, 69
1, 82404, Note_on_c, 0, 62, 58
1, 82466, Note_on_c, 0, 82, 0
1, 82538, Note_on_c, 0, 62, 0
1, 82572, Note_on_c, 0, 80, 0
1, 82572, Note_on_c, 0, 56, 73
1, 82668, Note_on_c, 0, 53, 0
1, 82716, Note_on_c, 0, 80, 97
1, 82735, Note_on_c, 0, 62, 67
1, 82869, Note_on_c, 0, 56, 0
1, 82884, Note_on_c, 0, 62, 0
1, 82898, Note_on_c, 0, 80, 0
1, 82898, Note_on_c, 0, 81, 88
1, 82908, Note_on_c, 0, 55, 62
1, 83076, Note_on_c, 0, 63, 66
1, 83076, Note_on_c, 0, 82, 85
1, 83085, Note_on_c, 0, 81, 0
1, 83200, Note_on_c, 0, 63, 0
1, 83244, Note_on_c, 0, 58, 86
1, 83248, Note_on_c, 0, 82, 0
1, 83388, Note_on_c, 0, 82, 110
1, 83407, Note_on_c, 0, 63, 70
1, 83479, Note_on_c, 0, 58, 0
1, 83536, Note_on_c, 0, 55, 0
1, 83560, Note_on_c, 0, 63, 0
1, 83570, Note_on_c, 0, 83, 94
1, 83589, Note_on_c, 0, 56, 62
1, 83599, Note_on_c, 0, 82, 0
1, 83748, Note_on_c, 0, 63, 57
1, 83762, Note_on_c, 0, 84, 87
1, 83767, Note_on_c, 0, 83, 0
1, 83863, Note_on_c, 0, 63, 0
1, 83925, Note_on_c, 0, 60, 65
1, 83930, Note_on_c, 0, 84, 0
1, 84012, Note_on_c, 0, 60, 0
1, 84060, Note_on_c, 0, 87, 103
1, 84074, Note_on_c, 0, 63, 64
1, 84088, Note_on_c, 0, 87, 0
1, 84295, Note_on_c, 0, 63, 0
1, 84295, Note_on_c, 0, 87, 97
1, 84319, Note_on_c, 0, 58, 58
1, 84338, Note_on_c, 0, 56, 0
1, 84511, Note_on_c, 0, 75, 75
1, 84511, Note_on_c, 0, 67, 61
1, 84535, Note_on_c, 0, 87, 0
1, 84607, Note_on_c, 0, 67, 0
1, 84621, Note_on_c, 0, 75, 0
1, 84688, Note_on_c, 0, 75, 76
1, 84712, Note_on_c, 0, 63, 51
1, 84871, Note_on_c, 0, 58, 0
1, 84895, Note_on_c, 0, 67, 64
1, 84967, Note_on_c, 0, 67, 0
1, 84972, Note_on_c, 0, 63, 0
1, 85063, Note_on_c, 0, 58, 54
1, 85260, Note_on_c, 0, 68, 51
1, 85336, Note_on_c, 0, 68, 0
1, 85423, Note_on_c, 0, 75, 0
1, 85423, Note_on_c, 0, 79, 58
1, 85456, Note_on_c, 0, 62, 37
1, 85548, Note_on_c, 0, 62, 0
1, 85600, Note_on_c, 0, 79, 0
1, 85600, Note_on_c, 0, 77, 74
1, 85605, Note_on_c, 0, 68, 57
1, 85629, Note_on_c, 0, 58, 0
1, 85648, Note_on_c, 0, 68, 0
1, 85658, Note_on_c, 0, 77, 0
1, 85764, Note_on_c, 0, 75, 79
1, 85778, Note_on_c, 0, 51, 73
1, 85807, Note_on_c, 0, 75, 0
1, 85941, Note_on_c, 0, 75, 70
1, 85951, Note_on_c, 0, 58, 70
1, 85980, Note_on_c, 0, 75, 0
1, 86018, Note_on_c, 0, 58, 0
1, 86100, Note_on_c, 0, 77, 72
1, 86133, Note_on_c, 0, 55, 54
1, 86133, Note_on_c, 0, 75, 84
1, 86143, Note_on_c, 0, 77, 0
1, 86176, Note_on_c, 0, 75, 0
1, 86205, Note_on_c, 0, 77, 73
1, 86239, Note_on_c, 0, 75, 71
1, 86253, Note_on_c, 0, 77, 0
1, 86287, Note_on_c, 0, 58, 67
1, 86301, Note_on_c, 0, 74, 80
1, 86306, Note_on_c, 0, 75, 0
1, 86349, Note_on_c, 0, 74, 0
1, 86378, Note_on_c, 0, 75, 78
1, 86402, Note_on_c, 0, 58, 0
1, 86421, Note_on_c, 0, 77, 94
1, 86426, Note_on_c, 0, 75, 0
1, 86440, Note_on_c, 0, 51, 0
1, 86460, Note_on_c, 0, 77, 0
1, 86469, Note_on_c, 0, 50, 59
1, 86474, Note_on_c, 0, 55, 0
1, 86613, Note_on_c, 0, 58, 74
1, 86618, Note_on_c, 0, 77, 83
1, 86652, Note_on_c, 0, 77, 0
1, 86728, Note_on_c, 0, 58, 0
1, 86743, Note_on_c, 0, 79, 95
1, 86776, Note_on_c, 0, 56, 55
1, 86781, Note_on_c, 0, 79, 0
1, 86810, Note_on_c, 0, 77, 78
1, 86853, Note_on_c, 0, 77, 0
1, 86858, Note_on_c, 0, 79, 78
1, 86906, Note_on_c, 0, 79, 0
1, 86906, Note_on_c, 0, 77, 65
1, 86930, Note_on_c, 0, 58, 74
1, 86935, Note_on_c, 0, 56, 0
1, 86959, Note_on_c, 0, 77, 0
1, 86968, Note_on_c, 0, 75, 69
1, 87026, Note_on_c, 0, 58, 0
1, 87031, Note_on_c, 0, 77, 88
1, 87050, Note_on_c, 0, 75, 0
1, 87108, Note_on_c, 0, 79, 95
1, 87122, Note_on_c, 0, 51, 68
1, 87136, Note_on_c, 0, 77, 0
1, 87141, Note_on_c, 0, 79, 0
1, 87151, Note_on_c, 0, 50, 0
1, 87285, Note_on_c, 0, 79, 92
1, 87290, Note_on_c, 0, 58, 75
1, 87319, Note_on_c, 0, 79, 0
1, 87415, Note_on_c, 0, 58, 0
1, 87429, Note_on_c, 0, 80, 78
1, 87468, Note_on_c, 0, 80, 0
1, 87472, Note_on_c, 0, 55, 56
1, 87472, Note_on_c, 0, 79, 91
1, 87511, Note_on_c, 0, 79, 0
1, 87535, Note_on_c, 0, 80, 73
1, 87573, Note_on_c, 0, 55, 0
1, 87573, Note_on_c, 0, 79, 85
1, 87588, Note_on_c, 0, 80, 0
1, 87607, Note_on_c, 0, 58, 82
1, 87621, Note_on_c, 0, 79, 0
1, 87621, Note_on_c, 0, 77, 87
1, 87664, Note_on_c, 0, 77, 0
1, 87693, Note_on_c, 0, 79, 96
1, 87756, Note_on_c, 0, 58, 0
1, 87780, Note_on_c, 0, 51, 0
1, 87780, Note_on_c, 0, 80, 101
1, 87784, Note_on_c, 0, 53, 67
1, 87804, Note_on_c, 0, 79, 0
1, 87876, Note_on_c, 0, 80, 0
1, 87943, Note_on_c, 0, 80, 93
1, 87948, Note_on_c, 0, 62, 67
1, 88015, Note_on_c, 0, 80, 0
1, 88087, Note_on_c, 0, 82, 106
1, 88096, Note_on_c, 0, 62, 0
1, 88120, Note_on_c, 0, 58, 79
1, 88144, Note_on_c, 0, 80, 79
1, 88154, Note_on_c, 0, 82, 0
1, 88197, Note_on_c, 0, 80, 0
1, 88221, Note_on_c, 0, 82, 93
1, 88240, Note_on_c, 0, 58, 0
1, 88260, Note_on_c, 0, 82, 0
1, 88264, Note_on_c, 0, 80, 67
1, 88269, Note_on_c, 0, 62, 65
1, 88298, Note_on_c, 0, 79, 94
1, 88308, Note_on_c, 0, 80, 0
1, 88317, Note_on_c, 0, 62, 0
1, 88341, Note_on_c, 0, 53, 0
1, 88380, Note_on_c, 0, 80, 86
1, 88404, Note_on_c, 0, 79, 0
1, 88461, Note_on_c, 0, 63, 78
1, 88471, Note_on_c, 0, 82, 113
1, 88476, Note_on_c, 0, 58, 68
1, 88500, Note_on_c, 0, 55, 52
1, 88509, Note_on_c, 0, 80, 0
1, 88591, Note_on_c, 0, 82, 0
1, 88600, Note_on_c, 0, 84, 105
1, 88711, Note_on_c, 0, 86, 97
1, 88730, Note_on_c, 0, 84, 0
1, 88826, Note_on_c, 0, 86, 0
1, 88826, Note_on_c, 0, 55, 0
1, 88826, Note_on_c, 0, 87, 95
1, 88831, Note_on_c, 0, 58, 0
1, 88836, Note_on_c, 0, 63, 0
1, 88951, Note_on_c, 0, 86, 88
1, 88980, Note_on_c, 0, 87, 0
1, 89042, Note_on_c, 0, 86, 0
1, 89061, Note_on_c, 0, 84, 91
1, 89181, Note_on_c, 0, 82, 102
1, 89200, Note_on_c, 0, 84, 0
1, 89287, Note_on_c, 0, 80, 84
1, 89330, Note_on_c, 0, 82, 0
1, 89392, Note_on_c, 0, 79, 90
1, 89436, Note_on_c, 0, 80, 0
1, 89493, Note_on_c, 0, 79, 0
1, 89508, Note_on_c, 0, 77, 81
1, 89608, Note_on_c, 0, 75, 84
1, 89623, Note_on_c, 0, 77, 0
1, 89700, Note_on_c, 0, 75, 0
1, 89733, Note_on_c, 0, 74, 81
1, 89853, Note_on_c, 0, 74, 0
1, 89858, Note_on_c, 0, 72, 105
1, 89959, Note_on_c, 0, 72, 0
1, 90213, Note_on_c, 0, 84, 102
1, 90213, Note_on_c, 0, 75, 83
1, 90213, Note_on_c, 0, 80, 91
1, 90213, Note_on_c, 0, 56, 85
1, 90285, Note_on_c, 0, 75, 0
1, 90304, Note_on_c, 0, 80, 0
1, 90314, Note_on_c, 0, 56, 0
1, 90376, Note_on_c, 0, 84, 0
1, 90554, Note_on_c, 0, 75, 92
1, 90554, Note_on_c, 0, 82, 110
1, 90564, Note_on_c, 0, 79, 95
1, 90573, Note_on_c, 0, 58, 85
1, 90597, Note_on_c, 0, 79, 0
1, 90645, Note_on_c, 0, 58, 0
1, 90650, Note_on_c, 0, 75, 0
1, 90660, Note_on_c, 0, 82, 0
1, 90914, Note_on_c, 0, 68, 79
1, 90919, Note_on_c, 0, 65, 89
1, 90919, Note_on_c, 0, 46, 87
1, 90919, Note_on_c, 0, 74, 88
1, 90972, Note_on_c, 0, 65, 0
1, 90986, Note_on_c, 0, 68, 0
1, 90991, Note_on_c, 0, 46, 0
1, 91020, Note_on_c, 0, 74, 0
1, 91269, Note_on_c, 0, 75, 88
1, 91279, Note_on_c, 0, 67, 79
1, 91279, Note_on_c, 0, 51, 58
1, 91322, Note_on_c, 0, 67, 0
1, 91380, Note_on_c, 0, 75, 0
1, 91456, Note_on_c, 0, 51, 0
1, 91692, Note_on_c, 0, 82, 87
1, 91816, Note_on_c, 0, 80, 69
1, 91840, Note_on_c, 0, 82, 0
1, 91912, Note_on_c, 0, 79, 79
1, 91917, Note_on_c, 0, 80, 0
1, 91984, Note_on_c, 0, 79, 0
1, 92042, Note_on_c, 0, 77, 74
1, 92138, Note_on_c, 0, 75, 72
1, 92157, Note_on_c, 0, 77, 0
1, 92215, Note_on_c, 0, 75, 0
1, 92263, Note_on_c, 0, 74, 69
1, 92311, Note_on_c, 0, 74, 0
1, 92354, Note_on_c, 0, 67, 49
1, 92359, Note_on_c, 0, 63, 32
1, 92368, Note_on_c, 0, 75, 66
1, 92464, Note_on_c, 0, 63, 0
1, 92474, Note_on_c, 0, 73, 65
1, 92493, Note_on_c, 0, 75, 0
1, 92512, Note_on_c, 0, 67, 0
1, 92556, Note_on_c, 0, 73, 0
1, 92573, Note_on_c, 0, 71, 69
1, 92621, Note_on_c, 0, 71, 0
1, 92709, Note_on_c, 0, 68, 41
1, 92714, Note_on_c, 0, 63, 41
1, 92714, Note_on_c, 0, 72, 81
1, 93002, Note_on_c, 0, 72, 0
1, 93036, Note_on_c, 0, 63, 0
1, 93064, Note_on_c, 0, 68, 0
1, 93093, Note_on_c, 0, 84, 74
1, 93208, Note_on_c, 0, 82, 80
1, 93218, Note_on_c, 0, 84, 0
1, 93314, Note_on_c, 0, 80, 73
1, 93343, Note_on_c, 0, 82, 0
1, 93420, Note_on_c, 0, 79, 81
1, 93439, Note_on_c, 0, 80, 0
1, 93496, Note_on_c, 0, 79, 0
1, 93544, Note_on_c, 0, 77, 59
1, 93631, Note_on_c, 0, 77, 0
1, 93660, Note_on_c, 0, 75, 47
1, 93741, Note_on_c, 0, 75, 0
1, 93760, Note_on_c, 0, 68, 44
1, 93770, Note_on_c, 0, 65, 43
1, 93784, Note_on_c, 0, 74, 57
1, 93789, Note_on_c, 0, 63, 32
1, 93842, Note_on_c, 0, 74, 0
1, 93847, Note_on_c, 0, 65, 0
1, 93852, Note_on_c, 0, 63, 0
1, 93852, Note_on_c, 0, 68, 0
1, 93861, Note_on_c, 0, 80, 59
1, 93962, Note_on_c, 0, 80, 0
1, 93986, Note_on_c, 0, 77, 64
1, 94053, Note_on_c, 0, 77, 0
1, 94149, Note_on_c, 0, 75, 52
1, 94149, Note_on_c, 0, 63, 30
1, 94159, Note_on_c, 0, 67, 37
1, 94274, Note_on_c, 0, 67, 0
1, 94279, Note_on_c, 0, 75, 0
1, 94327, Note_on_c, 0, 63, 0
1, 94538, Note_on_c, 0, 70, 75
1, 94644, Note_on_c, 0, 70, 0
1, 94644, Note_on_c, 0, 68, 66
1, 94749, Note_on_c, 0, 67, 74
1, 94802, Note_on_c, 0, 68, 0
1, 94807, Note_on_c, 0, 67, 0
1, 94860, Note_on_c, 0, 65, 62
1, 94951, Note_on_c, 0, 63, 79
1, 94984, Note_on_c, 0, 65, 0
1, 95066, Note_on_c, 0, 62, 71
1, 95076, Note_on_c, 0, 63, 0
1, 95133, Note_on_c, 0, 62, 0
1, 95148, Note_on_c, 0, 51, 50
1, 95157, Note_on_c, 0, 55, 55
1, 95167, Note_on_c, 0, 63, 61
1, 95234, Note_on_c, 0, 51, 0
1, 95282, Note_on_c, 0, 55, 0
1, 95282, Note_on_c, 0, 61, 69
1, 95301, Note_on_c, 0, 63, 0
1, 95402, Note_on_c, 0, 59, 56
1, 95412, Note_on_c, 0, 61, 0
1, 95541, Note_on_c, 0, 59, 0
1, 95565, Note_on_c, 0, 56, 45
1, 95565, Note_on_c, 0, 51, 40
1, 95570, Note_on_c, 0, 60, 62
1, 95892, Note_on_c, 0, 60, 0
1, 95944, Note_on_c, 0, 72, 73
1, 95959, Note_on_c, 0, 56, 0
1, 95964, Note_on_c, 0, 51, 0
1, 96026, Note_on_c, 0, 72, 0
1, 96050, Note_on_c, 0, 70, 80
1, 96146, Note_on_c, 0, 68, 80
1, 96204, Note_on_c, 0, 70, 0
1, 96266, Note_on_c, 0, 67, 79
1, 96280, Note_on_c, 0, 68, 0
1, 96333, Note_on_c, 0, 67, 0
1, 96362, Note_on_c, 0, 65, 79
1, 96468, Note_on_c, 0, 65, 0
1, 96472, Note_on_c, 0, 63, 79
1, 96578, Note_on_c, 0, 56, 63
1, 96592, Note_on_c, 0, 51, 55
1, 96592, Note_on_c, 0, 53, 58
1, 96597, Note_on_c, 0, 62, 75
1, 96616, Note_on_c, 0, 63, 0
1, 96645, Note_on_c, 0, 51, 0
1, 96650, Note_on_c, 0, 53, 0
1, 96650, Note_on_c, 0, 56, 0
1, 96684, Note_on_c, 0, 68, 70
1, 96722, Note_on_c, 0, 62, 0
1, 96799, Note_on_c, 0, 65, 76
1, 96808, Note_on_c, 0, 68, 0
1, 96861, Note_on_c, 0, 65, 0
1, 96924, Note_on_c, 0, 63, 100
1, 96948, Note_on_c, 0, 51, 70
1, 96948, Note_on_c, 0, 55, 63
1, 97240, Note_on_c, 0, 51, 0
1, 97274, Note_on_c, 0, 55, 0
1, 97442, Note_on_c, 0, 63, 0
1, 97610, Note_on_c, 0, 67, 100
1, 97701, Note_on_c, 0, 67, 0
1, 97932, Note_on_c, 0, 70, 104
1, 98052, Note_on_c, 0, 70, 0
1, 98282, Note_on_c, 0, 75, 93
1, 98296, Note_on_c, 0, 51, 92
1, 98296, Note_on_c, 0, 39, 87
1, 98412, Note_on_c, 0, 75, 0
1, 98647, Note_on_c, 0, 79, 91
1, 98733, Note_on_c, 0, 39, 0
1, 98748, Note_on_c, 0, 51, 0
1, 98762, Note_on_c, 0, 79, 0
1, 98964, Note_on_c, 0, 55, 101
1, 98978, Note_on_c, 0, 43, 92
1, 99112, Note_on_c, 0, 43, 0
1, 99141, Note_on_c, 0, 55, 0
1, 99194, Note_on_c, 0, 79, 95
1, 99228, Note_on_c, 0, 79, 0
1, 99266, Note_on_c, 0, 80, 82
1, 99300, Note_on_c, 0, 58, 101
1, 99300, Note_on_c, 0, 46, 101
1, 99314, Note_on_c, 0, 79, 78
1, 99328, Note_on_c, 0, 80, 0
1, 99396, Note_on_c, 0, 79, 0
1, 99396, Note_on_c, 0, 58, 0
1, 99400, Note_on_c, 0, 46, 0
1, 99400, Note_on_c, 0, 80, 86
1, 99487, Note_on_c, 0, 77, 92
1, 99501, Note_on_c, 0, 80, 0
1, 99554, Note_on_c, 0, 79, 100
1, 99588, Note_on_c, 0, 77, 0
1, 99655, Note_on_c, 0, 82, 106
1, 99660, Note_on_c, 0, 79, 0
1, 99660, Note_on_c, 0, 63, 79
1, 99664, Note_on_c, 0, 51, 86
1, 99808, Note_on_c, 0, 51, 0
1, 99828, Note_on_c, 0, 63, 0
1, 100024, Note_on_c, 0, 67, 66
1, 100024, Note_on_c, 0, 75, 78
1, 100039, Note_on_c, 0, 82, 0
1, 100044, Note_on_c, 0, 55, 59
1, 100212, Note_on_c, 0, 75, 0
1, 100231, Note_on_c, 0, 55, 0
1, 100231, Note_on_c, 0, 67, 0
1, 100365, Note_on_c, 0, 75, 76
1, 100514, Note_on_c, 0, 75, 0
1, 100677, Note_on_c, 0, 75, 58
1, 100802, Note_on_c, 0, 75, 0
1, 101052, Note_on_c, 0, 80, 40
1, 101071, Note_on_c, 0, 65, 39
1, 101076, Note_on_c, 0, 62, 29
1, 101100, Note_on_c, 0, 55, 23
1, 101445, Note_on_c, 0, 80, 0
1, 101460, Note_on_c, 0, 71, 33
1, 101565, Note_on_c, 0, 71, 0
1, 101570, Note_on_c, 0, 55, 0
1, 101589, Note_on_c, 0, 62, 0
1, 101594, Note_on_c, 0, 65, 0
1, 101988, Note_on_c, 0, 71, 16
1, 102477, Note_on_c, 0, 71, 0
1, 103365, Note_on_c, 0, 60, 110
1, 103375, Note_on_c, 0, 48, 106
1, 103380, Note_on_c, 0, 36, 98
1, 103744, Note_on_c, 0, 36, 0
1, 103816, Note_on_c, 0, 48, 0
1, 104004, Note_on_c, 0, 60, 0
1, 104100, Note_on_c, 0, 52, 110
1, 104100, Note_on_c, 0, 40, 103
1, 104100, Note_on_c, 0, 64, 107
1, 104143, Note_on_c, 0, 40, 0
1, 104172, Note_on_c, 0, 64, 0
1, 104181, Note_on_c, 0, 52, 0
1, 104421, Note_on_c, 0, 67, 106
1, 104426, Note_on_c, 0, 55, 107
1, 104426, Note_on_c, 0, 43, 103
1, 104464, Note_on_c, 0, 43, 0
1, 104508, Note_on_c, 0, 55, 0
1, 104536, Note_on_c, 0, 67, 0
1, 104743, Note_on_c, 0, 72, 112
1, 104748, Note_on_c, 0, 60, 105
1, 104752, Note_on_c, 0, 48, 108
1, 104824, Note_on_c, 0, 48, 0
1, 104834, Note_on_c, 0, 60, 0
1, 104868, Note_on_c, 0, 72, 0
1, 105069, Note_on_c, 0, 76, 103
1, 105069, Note_on_c, 0, 64, 95
1, 105079, Note_on_c, 0, 52, 89
1, 105170, Note_on_c, 0, 64, 0
1, 105180, Note_on_c, 0, 52, 0
1, 105218, Note_on_c, 0, 76, 0
1, 105597, Note_on_c, 0, 79, 87
1, 105636, Note_on_c, 0, 79, 0
1, 105732, Note_on_c, 0, 80, 97
1, 105794, Note_on_c, 0, 79, 97
1, 105823, Note_on_c, 0, 80, 0
1, 105852, Note_on_c, 0, 79, 0
1, 105880, Note_on_c, 0, 80, 96
1, 105928, Note_on_c, 0, 79, 92
1, 105976, Note_on_c, 0, 80, 0
1, 106015, Note_on_c, 0, 79, 0
1, 106015, Note_on_c, 0, 77, 95
1, 106096, Note_on_c, 0, 79, 87
1, 106149, Note_on_c, 0, 77, 0
1, 106192, Note_on_c, 0, 46, 123
1, 106202, Note_on_c, 0, 34, 114
1, 106216, Note_on_c, 0, 82, 110
1, 106250, Note_on_c, 0, 79, 0
1, 106327, Note_on_c, 0, 84, 100
1, 106389, Note_on_c, 0, 82, 0
1, 106423, Note_on_c, 0, 85, 100
1, 106442, Note_on_c, 0, 84, 0
1, 106524, Note_on_c, 0, 84, 92
1, 106528, Note_on_c, 0, 34, 0
1, 106591, Note_on_c, 0, 46, 0
1, 106624, Note_on_c, 0, 82, 108
1, 106639, Note_on_c, 0, 85, 0
1, 106692, Note_on_c, 0, 84, 0
1, 106740, Note_on_c, 0, 80, 96
1, 106788, Note_on_c, 0, 82, 0
1, 106855, Note_on_c, 0, 52, 110
1, 106855, Note_on_c, 0, 79, 101
1, 106855, Note_on_c, 0, 40, 103
1, 106869, Note_on_c, 0, 80, 0
1, 106884, Note_on_c, 0, 40, 0
1, 106956, Note_on_c, 0, 52, 0
1, 106956, Note_on_c, 0, 80, 88
1, 106984, Note_on_c, 0, 79, 0
1, 107076, Note_on_c, 0, 82, 105
1, 107085, Note_on_c, 0, 80, 0
1, 107167, Note_on_c, 0, 55, 106
1, 107172, Note_on_c, 0, 80, 84
1, 107172, Note_on_c, 0, 43, 100
1, 107205, Note_on_c, 0, 43, 0
1, 107224, Note_on_c, 0, 55, 0
1, 107229, Note_on_c, 0, 82, 0
1, 107282, Note_on_c, 0, 79, 100
1, 107330, Note_on_c, 0, 80, 0
1, 107388, Note_on_c, 0, 77, 98
1, 107397, Note_on_c, 0, 79, 0
1, 107484, Note_on_c, 0, 58, 110
1, 107498, Note_on_c, 0, 46, 105
1, 107503, Note_on_c, 0, 76, 106
1, 107541, Note_on_c, 0, 46, 0
1, 107584, Note_on_c, 0, 58, 0
1, 107599, Note_on_c, 0, 79, 98
1, 107604, Note_on_c, 0, 77, 0
1, 107608, Note_on_c, 0, 76, 0
1, 107695, Note_on_c, 0, 76, 97
1, 107728, Note_on_c, 0, 79, 0
1, 107796, Note_on_c, 0, 61, 86
1, 107800, Note_on_c, 0, 76, 0
1, 107810, Note_on_c, 0, 49, 80
1, 107810, Note_on_c, 0, 73, 92
1, 107906, Note_on_c, 0, 76, 85
1, 107916, Note_on_c, 0, 61, 0
1, 107930, Note_on_c, 0, 73, 0
1, 107959, Note_on_c, 0, 49, 0
1, 108016, Note_on_c, 0, 73, 70
1, 108050, Note_on_c, 0, 76, 0
1, 108098, Note_on_c, 0, 70, 100
1, 108122, Note_on_c, 0, 73, 0
1, 108204, Note_on_c, 0, 73, 79
1, 108208, Note_on_c, 0, 70, 0
1, 108304, Note_on_c, 0, 70, 75
1, 108343, Note_on_c, 0, 73, 0
1, 108405, Note_on_c, 0, 70, 0
1, 108420, Note_on_c, 0, 67, 76
1, 108468, Note_on_c, 0, 67, 0
1, 108482, Note_on_c, 0, 70, 73
1, 108612, Note_on_c, 0, 67, 73
1, 108616, Note_on_c, 0, 70, 0
1, 108688, Note_on_c, 0, 67, 0
1, 108760, Note_on_c, 0, 68, 63
1, 108775, Note_on_c, 0, 53, 49
1, 108967, Note_on_c, 0, 60, 41
1, 109087, Note_on_c, 0, 60, 0
1, 109159, Note_on_c, 0, 56, 30
1, 109221, Note_on_c, 0, 68, 0
1, 109260, Note_on_c, 0, 70, 64
1, 109312, Note_on_c, 0, 56, 0
1, 109313, Note_on_c, 0, 68, 65
1, 109322, Note_on_c, 0, 70, 0
1, 109351, Note_on_c, 0, 60, 25
1, 109380, Note_on_c, 0, 68, 0
1, 109404, Note_on_c, 0, 67, 36
1, 109452, Note_on_c, 0, 60, 0
1, 109456, Note_on_c, 0, 68, 67
1, 109480, Note_on_c, 0, 67, 0
1, 109572, Note_on_c, 0, 53, 0
1, 109615, Note_on_c, 0, 55, 25
1, 109615, Note_on_c, 0, 70, 65
1, 109639, Note_on_c, 0, 68, 0
1, 109812, Note_on_c, 0, 60, 45
1, 109936, Note_on_c, 0, 60, 0
1, 110004, Note_on_c, 0, 70, 0
1, 110008, Note_on_c, 0, 64, 66
1, 110018, Note_on_c, 0, 58, 40
1, 110128, Note_on_c, 0, 55, 0
1, 110143, Note_on_c, 0, 58, 0
1, 110205, Note_on_c, 0, 60, 44
1, 110282, Note_on_c, 0, 60, 0
1, 110349, Note_on_c, 0, 64, 0
1, 110359, Note_on_c, 0, 65, 71
1, 110378, Note_on_c, 0, 56, 39
1, 110474, Note_on_c, 0, 65, 0
1, 110541, Note_on_c, 0, 68, 72
1, 110551, Note_on_c, 0, 60, 41
1, 110604, Note_on_c, 0, 68, 0
1, 110637, Note_on_c, 0, 60, 0
1, 110724, Note_on_c, 0, 72, 72
1, 110724, Note_on_c, 0, 53, 37
1, 110776, Note_on_c, 0, 56, 0
1, 110930, Note_on_c, 0, 60, 40
1, 111055, Note_on_c, 0, 53, 0
1, 111064, Note_on_c, 0, 60, 0
1, 111103, Note_on_c, 0, 52, 45
1, 111319, Note_on_c, 0, 71, 37
1, 111343, Note_on_c, 0, 60, 34
1, 111372, Note_on_c, 0, 72, 0
1, 111429, Note_on_c, 0, 60, 0
1, 111496, Note_on_c, 0, 70, 68
1, 111501, Note_on_c, 0, 71, 0
1, 111520, Note_on_c, 0, 52, 0
1, 111520, Note_on_c, 0, 48, 48
1, 111650, Note_on_c, 0, 67, 74
1, 111655, Note_on_c, 0, 70, 0
1, 111664, Note_on_c, 0, 60, 55
1, 111679, Note_on_c, 0, 48, 0
1, 111818, Note_on_c, 0, 60, 0
1, 111832, Note_on_c, 0, 68, 83
1, 111852, Note_on_c, 0, 53, 50
1, 111876, Note_on_c, 0, 67, 0
1, 112020, Note_on_c, 0, 60, 49
1, 112120, Note_on_c, 0, 60, 0
1, 112183, Note_on_c, 0, 56, 48
1, 112260, Note_on_c, 0, 70, 81
1, 112264, Note_on_c, 0, 68, 0
1, 112322, Note_on_c, 0, 70, 0
1, 112336, Note_on_c, 0, 68, 67
1, 112356, Note_on_c, 0, 60, 40
1, 112384, Note_on_c, 0, 68, 0
1, 112389, Note_on_c, 0, 67, 77
1, 112447, Note_on_c, 0, 56, 0
1, 112456, Note_on_c, 0, 68, 64
1, 112461, Note_on_c, 0, 67, 0
1, 112504, Note_on_c, 0, 60, 0
1, 112586, Note_on_c, 0, 53, 0
1, 112596, Note_on_c, 0, 70, 76
1, 112610, Note_on_c, 0, 68, 0
1, 112624, Note_on_c, 0, 55, 31
1, 112816, Note_on_c, 0, 60, 44
1, 112917, Note_on_c, 0, 60, 0
1, 112975, Note_on_c, 0, 64, 68
1, 112989, Note_on_c, 0, 70, 0
1, 112994, Note_on_c, 0, 58, 45
1, 113148, Note_on_c, 0, 58, 0
1, 113186, Note_on_c, 0, 60, 38
1, 113191, Note_on_c, 0, 55, 0
1, 113272, Note_on_c, 0, 60, 0
1, 113311, Note_on_c, 0, 64, 0
1, 113340, Note_on_c, 0, 65, 70
1, 113364, Note_on_c, 0, 56, 37
1, 113536, Note_on_c, 0, 65, 0
1, 113546, Note_on_c, 0, 77, 83
1, 113556, Note_on_c, 0, 60, 37
1, 113642, Note_on_c, 0, 60, 0
1, 113700, Note_on_c, 0, 75, 76
1, 113733, Note_on_c, 0, 53, 42
1, 113752, Note_on_c, 0, 77, 0
1, 113815, Note_on_c, 0, 53, 0
1, 113848, Note_on_c, 0, 73, 86
1, 113892, Note_on_c, 0, 75, 0
1, 113892, Note_on_c, 0, 60, 30
1, 113978, Note_on_c, 0, 60, 0
1, 114021, Note_on_c, 0, 56, 0
1, 114021, Note_on_c, 0, 72, 94
1, 114031, Note_on_c, 0, 73, 0
1, 114060, Note_on_c, 0, 52, 39
1, 114184, Note_on_c, 0, 71, 73
1, 114218, Note_on_c, 0, 72, 0
1, 114242, Note_on_c, 0, 60, 29
1, 114319, Note_on_c, 0, 60, 0
1, 114352, Note_on_c, 0, 70, 89
1, 114372, Note_on_c, 0, 71, 0
1, 114376, Note_on_c, 0, 48, 58
1, 114391, Note_on_c, 0, 52, 0
1, 114482, Note_on_c, 0, 48, 0
1, 114516, Note_on_c, 0, 67, 87
1, 114525, Note_on_c, 0, 60, 67
1, 114540, Note_on_c, 0, 70, 0
1, 114592, Note_on_c, 0, 60, 0
1, 114693, Note_on_c, 0, 53, 108
1, 114703, Note_on_c, 0, 68, 92
1, 114741, Note_on_c, 0, 67, 0
1, 114813, Note_on_c, 0, 56, 100
1, 114828, Note_on_c, 0, 53, 0
1, 114904, Note_on_c, 0, 56, 0
1, 114938, Note_on_c, 0, 60, 92
1, 115048, Note_on_c, 0, 60, 0
1, 115058, Note_on_c, 0, 58, 108
1, 115164, Note_on_c, 0, 58, 0
1, 115164, Note_on_c, 0, 56, 86
1, 115168, Note_on_c, 0, 68, 0
1, 115279, Note_on_c, 0, 55, 91
1, 115288, Note_on_c, 0, 56, 0
1, 115380, Note_on_c, 0, 72, 110
1, 115404, Note_on_c, 0, 55, 0
1, 115404, Note_on_c, 0, 53, 92
1, 115495, Note_on_c, 0, 72, 0
1, 115504, Note_on_c, 0, 56, 90
1, 115519, Note_on_c, 0, 53, 0
1, 115605, Note_on_c, 0, 56, 0
1, 115639, Note_on_c, 0, 60, 86
1, 115716, Note_on_c, 0, 77, 109
1, 115735, Note_on_c, 0, 58, 108
1, 115749, Note_on_c, 0, 60, 0
1, 115792, Note_on_c, 0, 77, 0
1, 115845, Note_on_c, 0, 58, 0
1, 115850, Note_on_c, 0, 56, 89
1, 115946, Note_on_c, 0, 55, 92
1, 115956, Note_on_c, 0, 56, 0
1, 116047, Note_on_c, 0, 80, 104
1, 116066, Note_on_c, 0, 53, 87
1, 116076, Note_on_c, 0, 55, 0
1, 116157, Note_on_c, 0, 80, 0
1, 116167, Note_on_c, 0, 56, 81
1, 116172, Note_on_c, 0, 53, 0
1, 116239, Note_on_c, 0, 56, 0
1, 116287, Note_on_c, 0, 60, 82
1, 116388, Note_on_c, 0, 84, 110
1, 116397, Note_on_c, 0, 60, 0
1, 116407, Note_on_c, 0, 58, 93
1, 116498, Note_on_c, 0, 58, 0
1, 116503, Note_on_c, 0, 56, 81
1, 116512, Note_on_c, 0, 84, 0
1, 116546, Note_on_c, 0, 56, 0
1, 116608, Note_on_c, 0, 55, 84
1, 116671, Note_on_c, 0, 55, 0
1, 116719, Note_on_c, 0, 53, 101
1, 116820, Note_on_c, 0, 55, 99
1, 116824, Note_on_c, 0, 53, 0
1, 116925, Note_on_c, 0, 55, 0
1, 116925, Note_on_c, 0, 53, 72
1, 117021, Note_on_c, 0, 51, 100
1, 117026, Note_on_c, 0, 53, 0
1, 117117, Note_on_c, 0, 51, 0
1, 117132, Note_on_c, 0, 53, 71
1, 117232, Note_on_c, 0, 53, 0
1, 117242, Note_on_c, 0, 51, 85
1, 117280, Note_on_c, 0, 51, 0
1, 117372, Note_on_c, 0, 50, 121
1, 117372, Note_on_c, 0, 38, 118
1, 117376, Note_on_c, 0, 84, 111
1, 117487, Note_on_c, 0, 86, 100
1, 117511, Note_on_c, 0, 84, 0
1, 117588, Note_on_c, 0, 87, 93
1, 117597, Note_on_c, 0, 86, 0
1, 117698, Note_on_c, 0, 86, 80
1, 117741, Note_on_c, 0, 87, 0
1, 117808, Note_on_c, 0, 38, 0
1, 117813, Note_on_c, 0, 86, 0
1, 117818, Note_on_c, 0, 84, 95
1, 117847, Note_on_c, 0, 50, 0
1, 117924, Note_on_c, 0, 82, 101
1, 117948, Note_on_c, 0, 84, 0
1, 118015, Note_on_c, 0, 54, 110
1, 118020, Note_on_c, 0, 42, 103
1, 118029, Note_on_c, 0, 81, 105
1, 118044, Note_on_c, 0, 82, 0
1, 118072, Note_on_c, 0, 42, 0
1, 118096, Note_on_c, 0, 54, 0
1, 118125, Note_on_c, 0, 82, 95
1, 118144, Note_on_c, 0, 81, 0
1, 118231, Note_on_c, 0, 84, 101
1, 118250, Note_on_c, 0, 82, 0
1, 118332, Note_on_c, 0, 82, 97
1, 118341, Note_on_c, 0, 57, 116
1, 118346, Note_on_c, 0, 45, 111
1, 118375, Note_on_c, 0, 45, 0
1, 118384, Note_on_c, 0, 84, 0
1, 118413, Note_on_c, 0, 57, 0
1, 118452, Note_on_c, 0, 81, 101
1, 118485, Note_on_c, 0, 82, 0
1, 118548, Note_on_c, 0, 81, 0
1, 118557, Note_on_c, 0, 79, 96
1, 118644, Note_on_c, 0, 62, 115
1, 118648, Note_on_c, 0, 50, 113
1, 118658, Note_on_c, 0, 78, 103
1, 118672, Note_on_c, 0, 79, 0
1, 118677, Note_on_c, 0, 50, 0
1, 118716, Note_on_c, 0, 62, 0
1, 118764, Note_on_c, 0, 81, 100
1, 118792, Note_on_c, 0, 78, 0
1, 118855, Note_on_c, 0, 78, 88
1, 118927, Note_on_c, 0, 81, 0
1, 118946, Note_on_c, 0, 66, 111
1, 118956, Note_on_c, 0, 75, 94
1, 118956, Note_on_c, 0, 54, 98
1, 118999, Note_on_c, 0, 54, 0
1, 119008, Note_on_c, 0, 78, 0
1, 119028, Note_on_c, 0, 66, 0
1, 119052, Note_on_c, 0, 81, 88
1, 119080, Note_on_c, 0, 75, 0
1, 119152, Note_on_c, 0, 75, 81
1, 119239, Note_on_c, 0, 81, 0
1, 119268, Note_on_c, 0, 74, 97
1, 119292, Note_on_c, 0, 75, 0
1, 119373, Note_on_c, 0, 74, 0
1, 119373, Note_on_c, 0, 81, 83
1, 119455, Note_on_c, 0, 74, 74
1, 119532, Note_on_c, 0, 81, 0
1, 119570, Note_on_c, 0, 72, 92
1, 119580, Note_on_c, 0, 74, 0
1, 119652, Note_on_c, 0, 72, 0
1, 119661, Note_on_c, 0, 81, 57
1, 119772, Note_on_c, 0, 81, 0
1, 119772, Note_on_c, 0, 72, 79
1, 119901, Note_on_c, 0, 70, 113
1, 119916, Note_on_c, 0, 55, 57
1, 119954, Note_on_c, 0, 72, 0
1, 120016, Note_on_c, 0, 58, 78
1, 120074, Note_on_c, 0, 58, 0
1, 120132, Note_on_c, 0, 62, 68
1, 120184, Note_on_c, 0, 55, 0
1, 120237, Note_on_c, 0, 60, 90
1, 120252, Note_on_c, 0, 62, 0
1, 120328, Note_on_c, 0, 58, 98
1, 120348, Note_on_c, 0, 60, 0
1, 120444, Note_on_c, 0, 57, 88
1, 120463, Note_on_c, 0, 58, 0
1, 120568, Note_on_c, 0, 55, 87
1, 120573, Note_on_c, 0, 57, 0
1, 120573, Note_on_c, 0, 70, 0
1, 120578, Note_on_c, 0, 74, 113
1, 120655, Note_on_c, 0, 74, 0
1, 120674, Note_on_c, 0, 58, 95
1, 120679, Note_on_c, 0, 55, 0
1, 120789, Note_on_c, 0, 62, 87
1, 120794, Note_on_c, 0, 58, 0
1, 120890, Note_on_c, 0, 79, 112
1, 120900, Note_on_c, 0, 62, 0
1, 120904, Note_on_c, 0, 60, 88
1, 120991, Note_on_c, 0, 79, 0
1, 120996, Note_on_c, 0, 58, 91
1, 121010, Note_on_c, 0, 60, 0
1, 121101, Note_on_c, 0, 57, 87
1, 121125, Note_on_c, 0, 58, 0
1, 121226, Note_on_c, 0, 57, 0
1, 121226, Note_on_c, 0, 55, 81
1, 121226, Note_on_c, 0, 82, 117
1, 121332, Note_on_c, 0, 58, 94
1, 121341, Note_on_c, 0, 55, 0
1, 121389, Note_on_c, 0, 82, 0
1, 121456, Note_on_c, 0, 58, 0
1, 121456, Note_on_c, 0, 62, 73
1, 121557, Note_on_c, 0, 62, 0
1, 121562, Note_on_c, 0, 86, 110
1, 121591, Note_on_c, 0, 60, 75
1, 121658, Note_on_c, 0, 60, 0
1, 121687, Note_on_c, 0, 58, 84
1, 121725, Note_on_c, 0, 86, 0
1, 121768, Note_on_c, 0, 58, 0
1, 121797, Note_on_c, 0, 57, 79
1, 121850, Note_on_c, 0, 57, 0
1, 121912, Note_on_c, 0, 55, 74
1, 122023, Note_on_c, 0, 58, 78
1, 122042, Note_on_c, 0, 55, 0
1, 122124, Note_on_c, 0, 58, 0
1, 122128, Note_on_c, 0, 62, 55
1, 122210, Note_on_c, 0, 62, 0
1, 122234, Note_on_c, 0, 55, 76
1, 122364, Note_on_c, 0, 58, 82
1, 122383, Note_on_c, 0, 55, 0
1, 122440, Note_on_c, 0, 58, 0
1, 122450, Note_on_c, 0, 62, 46
1, 122517, Note_on_c, 0, 62, 0
1, 122551, Note_on_c, 0, 71, 100
1, 122565, Note_on_c, 0, 53, 72
1, 122680, Note_on_c, 0, 59, 59
1, 122728, Note_on_c, 0, 59, 0
1, 122767, Note_on_c, 0, 62, 65
1, 122824, Note_on_c, 0, 53, 0
1, 122824, Note_on_c, 0, 62, 0
1, 122887, Note_on_c, 0, 55, 72
1, 123040, Note_on_c, 0, 59, 38
1, 123045, Note_on_c, 0, 55, 0
1, 123098, Note_on_c, 0, 59, 0
1, 123108, Note_on_c, 0, 62, 51
1, 123184, Note_on_c, 0, 62, 0
1, 123218, Note_on_c, 0, 74, 108
1, 123223, Note_on_c, 0, 56, 77
1, 123228, Note_on_c, 0, 71, 0
1, 123280, Note_on_c, 0, 56, 0
1, 123357, Note_on_c, 0, 59, 42
1, 123362, Note_on_c, 0, 74, 0
1, 123410, Note_on_c, 0, 59, 0
1, 123420, Note_on_c, 0, 62, 53
1, 123487, Note_on_c, 0, 62, 0
1, 123535, Note_on_c, 0, 77, 109
1, 123549, Note_on_c, 0, 55, 69
1, 123655, Note_on_c, 0, 77, 0
1, 123684, Note_on_c, 0, 59, 56
1, 123708, Note_on_c, 0, 55, 0
1, 123756, Note_on_c, 0, 62, 56
1, 123760, Note_on_c, 0, 59, 0
1, 123818, Note_on_c, 0, 62, 0
1, 123856, Note_on_c, 0, 83, 106
1, 123880, Note_on_c, 0, 53, 71
1, 123991, Note_on_c, 0, 83, 0
1, 124005, Note_on_c, 0, 59, 55
1, 124058, Note_on_c, 0, 59, 0
1, 124087, Note_on_c, 0, 62, 55
1, 124144, Note_on_c, 0, 53, 0
1, 124159, Note_on_c, 0, 62, 0
1, 124216, Note_on_c, 0, 86, 109
1, 124226, Note_on_c, 0, 55, 69
1, 124351, Note_on_c, 0, 86, 0
1, 124356, Note_on_c, 0, 59, 62
1, 124370, Note_on_c, 0, 55, 0
1, 124437, Note_on_c, 0, 59, 0
1, 124442, Note_on_c, 0, 62, 64
1, 124548, Note_on_c, 0, 62, 0
1, 124557, Note_on_c, 0, 56, 81
1, 124682, Note_on_c, 0, 59, 57
1, 124701, Note_on_c, 0, 56, 0
1, 124768, Note_on_c, 0, 62, 71
1, 124821, Note_on_c, 0, 62, 0
1, 124831, Note_on_c, 0, 59, 0
1, 124893, Note_on_c, 0, 53, 79
1, 125013, Note_on_c, 0, 59, 59
1, 125080, Note_on_c, 0, 62, 63
1, 125104, Note_on_c, 0, 59, 0
1, 125143, Note_on_c, 0, 62, 0
1, 125157, Note_on_c, 0, 53, 0
1, 125205, Note_on_c, 0, 72, 118
1, 125220, Note_on_c, 0, 51, 76
1, 125316, Note_on_c, 0, 55, 77
1, 125422, Note_on_c, 0, 55, 0
1, 125436, Note_on_c, 0, 51, 0
1, 125436, Note_on_c, 0, 60, 75
1, 125522, Note_on_c, 0, 60, 0
1, 125551, Note_on_c, 0, 53, 89
1, 125676, Note_on_c, 0, 56, 75
1, 125728, Note_on_c, 0, 53, 0
1, 125781, Note_on_c, 0, 60, 77
1, 125786, Note_on_c, 0, 56, 0
1, 125872, Note_on_c, 0, 60, 0
1, 125887, Note_on_c, 0, 75, 101
1, 125896, Note_on_c, 0, 51, 84
1, 125901, Note_on_c, 0, 72, 0
1, 126002, Note_on_c, 0, 75, 0
1, 126021, Note_on_c, 0, 55, 69
1, 126050, Note_on_c, 0, 51, 0
1, 126088, Note_on_c, 0, 60, 67
1, 126146, Note_on_c, 0, 55, 0
1, 126204, Note_on_c, 0, 60, 0
1, 126218, Note_on_c, 0, 79, 110
1, 126232, Note_on_c, 0, 50, 80
1, 126290, Note_on_c, 0, 79, 0
1, 126362, Note_on_c, 0, 53, 59
1, 126381, Note_on_c, 0, 50, 0
1, 126444, Note_on_c, 0, 60, 65
1, 126511, Note_on_c, 0, 53, 0
1, 126540, Note_on_c, 0, 60, 0
1, 126549, Note_on_c, 0, 84, 113
1, 126573, Note_on_c, 0, 51, 76
1, 126679, Note_on_c, 0, 84, 0
1, 126698, Note_on_c, 0, 55, 67
1, 126770, Note_on_c, 0, 60, 68
1, 126794, Note_on_c, 0, 51, 0
1, 126794, Note_on_c, 0, 55, 0
1, 126856, Note_on_c, 0, 60, 0
1, 126900, Note_on_c, 0, 50, 74
1, 126900, Note_on_c, 0, 87, 103
1, 127029, Note_on_c, 0, 53, 67
1, 127058, Note_on_c, 0, 50, 0
1, 127068, Note_on_c, 0, 87, 0
1, 127130, Note_on_c, 0, 60, 72
1, 127202, Note_on_c, 0, 53, 0
1, 127216, Note_on_c, 0, 60, 0
1, 127250, Note_on_c, 0, 51, 84
1, 127365, Note_on_c, 0, 55, 75
1, 127490, Note_on_c, 0, 60, 46
1, 127500, Note_on_c, 0, 55, 0
1, 127524, Note_on_c, 0, 51, 0
1, 127548, Note_on_c, 0, 60, 0
1, 127581, Note_on_c, 0, 48, 97
1, 127720, Note_on_c, 0, 51, 74
1, 127778, Note_on_c, 0, 48, 0
1, 127797, Note_on_c, 0, 55, 76
1, 127845, Note_on_c, 0, 51, 0
1, 127908, Note_on_c, 0, 55, 0
1, 127917, Note_on_c, 0, 74, 119
1, 127917, Note_on_c, 0, 62, 110
1, 127927, Note_on_c, 0, 47, 89
1, 128042, Note_on_c, 0, 50, 79
1, 128100, Note_on_c, 0, 47, 0
1, 128138, Note_on_c, 0, 55, 82
1, 128152, Note_on_c, 0, 50, 0
1, 128200, Note_on_c, 0, 62, 0
1, 128239, Note_on_c, 0, 55, 0
1, 128268, Note_on_c, 0, 48, 81
1, 128277, Note_on_c, 0, 47, 55
1, 128320, Note_on_c, 0, 47, 0
1, 128373, Note_on_c, 0, 50, 90
1, 128460, Note_on_c, 0, 55, 87
1, 128493, Note_on_c, 0, 50, 0
1, 128517, Note_on_c, 0, 48, 0
1, 128570, Note_on_c, 0, 55, 0
1, 128570, Note_on_c, 0, 74, 0
1, 128594, Note_on_c, 0, 77, 112
1, 128594, Note_on_c, 0, 47, 88
1, 128594, Note_on_c, 0, 65, 110
1, 128709, Note_on_c, 0, 50, 79
1, 128714, Note_on_c, 0, 65, 0
1, 128772, Note_on_c, 0, 77, 0
1, 128781, Note_on_c, 0, 55, 79
1, 128810, Note_on_c, 0, 47, 0
1, 128844, Note_on_c, 0, 50, 0
1, 128906, Note_on_c, 0, 55, 0
1, 128925, Note_on_c, 0, 79, 117
1, 128925, Note_on_c, 0, 67, 114
1, 128935, Note_on_c, 0, 45, 97
1, 129016, Note_on_c, 0, 67, 0
1, 129040, Note_on_c, 0, 79, 0
1, 129064, Note_on_c, 0, 50, 74
1, 129141, Note_on_c, 0, 55, 79
1, 129180, Note_on_c, 0, 50, 0
1, 129184, Note_on_c, 0, 45, 0
1, 129237, Note_on_c, 0, 55, 0
1, 129266, Note_on_c, 0, 86, 117
1, 129266, Note_on_c, 0, 74, 113
1, 129276, Note_on_c, 0, 47, 86
1, 129376, Note_on_c, 0, 74, 0
1, 129400, Note_on_c, 0, 50, 77
1, 129424, Note_on_c, 0, 86, 0
1, 129468, Note_on_c, 0, 47, 0
1, 129492, Note_on_c, 0, 55, 73
1, 129549, Note_on_c, 0, 50, 0
1, 129583, Note_on_c, 0, 55, 0
1, 129626, Note_on_c, 0, 89, 115
1, 129626, Note_on_c, 0, 77, 111
1, 129640, Note_on_c, 0, 43, 91
1, 129684, Note_on_c, 0, 43, 0
1, 129727, Note_on_c, 0, 77, 0
1, 129741, Note_on_c, 0, 89, 0
1, 130754, Note_on_c, 0, 77, 72
1, 130879, Note_on_c, 0, 77, 0
1, 131128, Note_on_c, 0, 80, 75
1, 131287, Note_on_c, 0, 80, 0
1, 131565, Note_on_c, 0, 71, 51
1, 131575, Note_on_c, 0, 62, 49
1, 132405, Note_on_c, 0, 71, 0
1, 132405, Note_on_c, 0, 74, 74
1, 132415, Note_on_c, 0, 62, 0
1, 132487, Note_on_c, 0, 74, 0
1, 132842, Note_on_c, 0, 77, 59
1, 132952, Note_on_c, 0, 77, 0
1, 133332, Note_on_c, 0, 68, 41
1, 133340, Note_on_c, 0, 59, 32
1, 134349, Note_on_c, 0, 71, 69
1, 134354, Note_on_c, 0, 68, 0
1, 134387, Note_on_c, 0, 59, 0
1, 134527, Note_on_c, 0, 71, 0
1, 134767, Note_on_c, 0, 74, 84
1, 134916, Note_on_c, 0, 74, 0
1, 135151, Note_on_c, 0, 62, 83
1, 135304, Note_on_c, 0, 62, 0
1, 135640, Note_on_c, 0, 65, 52
1, 135876, Note_on_c, 0, 65, 0
1, 136384, Note_on_c, 0, 56, 56
1, 136404, Note_on_c, 0, 47, 29
1, 136408, Note_on_c, 0, 50, 40
1, 136408, Note_on_c, 0, 53, 29
1, 136432, Note_on_c, 0, 35, 26
1, 139178, Note_on_c, 0, 55, 17
1, 139370, Note_on_c, 0, 56, 0
1, 141112, Note_on_c, 0, 50, 0
1, 141117, Note_on_c, 0, 47, 0
1, 141141, Note_on_c, 0, 53, 0
1, 141141, Note_on_c, 0, 35, 0
1, 141180, Note_on_c, 0, 55, 0
1, 142341, Note_on_c, 0, 60, 110
1, 142346, Note_on_c, 0, 48, 111
1, 142351, Note_on_c, 0, 36, 106
1, 142404, Note_on_c, 0, 36, 0
1, 142432, Note_on_c, 0, 48, 0
1, 142480, Note_on_c, 0, 60, 0
1, 142984, Note_on_c, 0, 63, 99
1, 143004, Note_on_c, 0, 39, 96
1, 143004, Note_on_c, 0, 51, 100
1, 143037, Note_on_c, 0, 39, 0
1, 143047, Note_on_c, 0, 63, 0
1, 143052, Note_on_c, 0, 51, 0
1, 143316, Note_on_c, 0, 67, 108
1, 143316, Note_on_c, 0, 55, 110
1, 143320, Note_on_c, 0, 43, 100
1, 143349, Note_on_c, 0, 43, 0
1, 143392, Note_on_c, 0, 55, 0
1, 143416, Note_on_c, 0, 67, 0
1, 143628, Note_on_c, 0, 72, 114
1, 143632, Note_on_c, 0, 60, 110
1, 143637, Note_on_c, 0, 48, 107
1, 143680, Note_on_c, 0, 48, 0
1, 143733, Note_on_c, 0, 72, 0
1, 143733, Note_on_c, 0, 60, 0
1, 143935, Note_on_c, 0, 75, 102
1, 143935, Note_on_c, 0, 63, 104
1, 143944, Note_on_c, 0, 51, 103
1, 144021, Note_on_c, 0, 51, 0
1, 144031, Note_on_c, 0, 63, 0
1, 144069, Note_on_c, 0, 75, 0
1, 144386, Note_on_c, 0, 75, 64
1, 144429, Note_on_c, 0, 75, 0
1, 144458, Note_on_c, 0, 77, 88
1, 144496, Note_on_c, 0, 77, 0
1, 144496, Note_on_c, 0, 75, 76
1, 144578, Note_on_c, 0, 75, 0
1, 144578, Note_on_c, 0, 77, 80
1, 144631, Note_on_c, 0, 75, 86
1, 144640, Note_on_c, 0, 77, 0
1, 144684, Note_on_c, 0, 75, 0
1, 144698, Note_on_c, 0, 74, 90
1, 144746, Note_on_c, 0, 74, 0
1, 144770, Note_on_c, 0, 75, 87
1, 144866, Note_on_c, 0, 79, 97
1, 144885, Note_on_c, 0, 75, 0
1, 145164, Note_on_c, 0, 72, 84
1, 145173, Note_on_c, 0, 67, 59
1, 145183, Note_on_c, 0, 63, 46
1, 145192, Note_on_c, 0, 79, 0
1, 145255, Note_on_c, 0, 67, 0
1, 145260, Note_on_c, 0, 63, 0
1, 145308, Note_on_c, 0, 72, 0
1, 145480, Note_on_c, 0, 72, 87
1, 145500, Note_on_c, 0, 63, 42
1, 145504, Note_on_c, 0, 67, 50
1, 145572, Note_on_c, 0, 67, 0
1, 145576, Note_on_c, 0, 63, 0
1, 145620, Note_on_c, 0, 72, 0
1, 145816, Note_on_c, 0, 72, 69
1, 145826, Note_on_c, 0, 63, 31
1, 145831, Note_on_c, 0, 67, 52
1, 145912, Note_on_c, 0, 72, 0
1, 145936, Note_on_c, 0, 67, 0
1, 145941, Note_on_c, 0, 63, 0
1, 146157, Note_on_c, 0, 80, 60
1, 146493, Note_on_c, 0, 71, 36
1, 146503, Note_on_c, 0, 68, 26
1, 146532, Note_on_c, 0, 80, 0
1, 146541, Note_on_c, 0, 62, 21
1, 146565, Note_on_c, 0, 65, 18
1, 146642, Note_on_c, 0, 62, 0
1, 146652, Note_on_c, 0, 68, 0
1, 146656, Note_on_c, 0, 65, 0
1, 146695, Note_on_c, 0, 71, 0
1, 146901, Note_on_c, 0, 71, 27
1, 146911, Note_on_c, 0, 68, 31
1, 146988, Note_on_c, 0, 62, 16
1, 147007, Note_on_c, 0, 68, 0
1, 147069, Note_on_c, 0, 62, 0
1, 147079, Note_on_c, 0, 71, 0
1, 147784, Note_on_c, 0, 55, 110
1, 147794, Note_on_c, 0, 43, 108
1, 147794, Note_on_c, 0, 31, 113
1, 148120, Note_on_c, 0, 31, 0
1, 148178, Note_on_c, 0, 43, 0
1, 148293, Note_on_c, 0, 55, 0
1, 148452, Note_on_c, 0, 47, 103
1, 148452, Note_on_c, 0, 59, 96
1, 148456, Note_on_c, 0, 35, 95
1, 148509, Note_on_c, 0, 35, 0
1, 148519, Note_on_c, 0, 59, 0
1, 148524, Note_on_c, 0, 47, 0
1, 148764, Note_on_c, 0, 62, 90
1, 148764, Note_on_c, 0, 50, 110
1, 148768, Note_on_c, 0, 38, 108
1, 148802, Note_on_c, 0, 38, 0
1, 148855, Note_on_c, 0, 50, 0
1, 148874, Note_on_c, 0, 62, 0
1, 149076, Note_on_c, 0, 67, 111
1, 149080, Note_on_c, 0, 55, 108
1, 149085, Note_on_c, 0, 43, 102
1, 149167, Note_on_c, 0, 43, 0
1, 149196, Note_on_c, 0, 67, 0
1, 149200, Note_on_c, 0, 55, 0
1, 149373, Note_on_c, 0, 71, 94
1, 149373, Note_on_c, 0, 59, 95
1, 149378, Note_on_c, 0, 47, 90
1, 149455, Note_on_c, 0, 59, 0
1, 149469, Note_on_c, 0, 47, 0
1, 149503, Note_on_c, 0, 71, 0
1, 149863, Note_on_c, 0, 74, 61
1, 149911, Note_on_c, 0, 74, 0
1, 150012, Note_on_c, 0, 75, 71
1, 150055, Note_on_c, 0, 75, 0
1, 150064, Note_on_c, 0, 74, 89
1, 150098, Note_on_c, 0, 74, 0
1, 150132, Note_on_c, 0, 75, 69
1, 150180, Note_on_c, 0, 74, 80
1, 150232, Note_on_c, 0, 75, 0
1, 150247, Note_on_c, 0, 72, 80
1, 150256, Note_on_c, 0, 74, 0
1, 150309, Note_on_c, 0, 72, 0
1, 150328, Note_on_c, 0, 74, 95
1, 150376, Note_on_c, 0, 74, 0
1, 150420, Note_on_c, 0, 77, 94
1, 150727, Note_on_c, 0, 77, 0
1, 150727, Note_on_c, 0, 71, 67
1, 150741, Note_on_c, 0, 68, 56
1, 150765, Note_on_c, 0, 62, 45
1, 150770, Note_on_c, 0, 65, 41
1, 150852, Note_on_c, 0, 62, 0
1, 150852, Note_on_c, 0, 65, 0
1, 150856, Note_on_c, 0, 68, 0
1, 150876, Note_on_c, 0, 71, 0
1, 151034, Note_on_c, 0, 71, 74
1, 151039, Note_on_c, 0, 68, 66
1, 151058, Note_on_c, 0, 65, 66
1, 151087, Note_on_c, 0, 62, 33
1, 151116, Note_on_c, 0, 68, 0
1, 151116, Note_on_c, 0, 65, 0
1, 151149, Note_on_c, 0, 62, 0
1, 151168, Note_on_c, 0, 71, 0
1, 151341, Note_on_c, 0, 71, 72
1, 151351, Note_on_c, 0, 68, 54
1, 151365, Note_on_c, 0, 65, 47
1, 151394, Note_on_c, 0, 62, 25
1, 151432, Note_on_c, 0, 65, 0
1, 151437, Note_on_c, 0, 68, 0
1, 151461, Note_on_c, 0, 62, 0
1, 151461, Note_on_c, 0, 71, 0
1, 151668, Note_on_c, 0, 79, 59
1, 151999, Note_on_c, 0, 72, 51
1, 152018, Note_on_c, 0, 79, 0
1, 152018, Note_on_c, 0, 67, 32
1, 152018, Note_on_c, 0, 63, 30
1, 152104, Note_on_c, 0, 67, 0
1, 152128, Note_on_c, 0, 63, 0
1, 152167, Note_on_c, 0, 72, 0
1, 152368, Note_on_c, 0, 72, 43
1, 152383, Note_on_c, 0, 67, 31
1, 152397, Note_on_c, 0, 63, 25
1, 152517, Note_on_c, 0, 67, 0
1, 152560, Note_on_c, 0, 63, 0
1, 152570, Note_on_c, 0, 72, 0
1, 153261, Note_on_c, 0, 67, 97
1, 153295, Note_on_c, 0, 43, 50
1, 153352, Note_on_c, 0, 43, 0
1, 153453, Note_on_c, 0, 55, 71
1, 153535, Note_on_c, 0, 55, 0
1, 153583, Note_on_c, 0, 43, 76
1, 153664, Note_on_c, 0, 43, 0
1, 153732, Note_on_c, 0, 55, 72
1, 153794, Note_on_c, 0, 55, 0
1, 153880, Note_on_c, 0, 43, 69
1, 153933, Note_on_c, 0, 43, 0
1, 153991, Note_on_c, 0, 67, 0
1, 154063, Note_on_c, 0, 55, 62
1, 154116, Note_on_c, 0, 55, 0
1, 154245, Note_on_c, 0, 75, 73
1, 154250, Note_on_c, 0, 43, 39
1, 154269, Note_on_c, 0, 67, 49
1, 154384, Note_on_c, 0, 43, 0
1, 154447, Note_on_c, 0, 55, 39
1, 154514, Note_on_c, 0, 55, 0
1, 154586, Note_on_c, 0, 66, 52
1, 154596, Note_on_c, 0, 67, 0
1, 154596, Note_on_c, 0, 43, 29
1, 154663, Note_on_c, 0, 43, 0
1, 154773, Note_on_c, 0, 55, 37
1, 154836, Note_on_c, 0, 75, 0
1, 154850, Note_on_c, 0, 55, 0
1, 154912, Note_on_c, 0, 74, 69
1, 154927, Note_on_c, 0, 43, 34
1, 154951, Note_on_c, 0, 65, 45
1, 154970, Note_on_c, 0, 66, 0
1, 154999, Note_on_c, 0, 43, 0
1, 155095, Note_on_c, 0, 55, 46
1, 155152, Note_on_c, 0, 55, 0
1, 155172, Note_on_c, 0, 74, 0
1, 155205, Note_on_c, 0, 65, 0
1, 155224, Note_on_c, 0, 64, 78
1, 155244, Note_on_c, 0, 43, 47
1, 155306, Note_on_c, 0, 43, 0
1, 155364, Note_on_c, 0, 64, 0
1, 155416, Note_on_c, 0, 55, 58
1, 155469, Note_on_c, 0, 55, 0
1, 155536, Note_on_c, 0, 72, 98
1, 155541, Note_on_c, 0, 63, 75
1, 155556, Note_on_c, 0, 43, 56
1, 155618, Note_on_c, 0, 43, 0
1, 155685, Note_on_c, 0, 63, 0
1, 155714, Note_on_c, 0, 55, 72
1, 155762, Note_on_c, 0, 55, 0
1, 155863, Note_on_c, 0, 43, 73
1, 155872, Note_on_c, 0, 62, 84
1, 156064, Note_on_c, 0, 55, 53
1, 156088, Note_on_c, 0, 43, 0
1, 156160, Note_on_c, 0, 55, 0
1, 156237, Note_on_c, 0, 71, 58
1, 156242, Note_on_c, 0, 43, 25
1, 156280, Note_on_c, 0, 72, 0
1, 156381, Note_on_c, 0, 43, 0
1, 156410, Note_on_c, 0, 62, 0
1, 156434, Note_on_c, 0, 55, 42
1, 156501, Note_on_c, 0, 55, 0
1, 156516, Note_on_c, 0, 71, 0
1, 156583, Note_on_c, 0, 43, 47
1, 156640, Note_on_c, 0, 43, 0
1, 156770, Note_on_c, 0, 55, 41
1, 156832, Note_on_c, 0, 55, 0
1, 156919, Note_on_c, 0, 79, 82
1, 156924, Note_on_c, 0, 75, 49
1, 156928, Note_on_c, 0, 43, 43
1, 157015, Note_on_c, 0, 43, 0
1, 157101, Note_on_c, 0, 55, 45
1, 157164, Note_on_c, 0, 55, 0
1, 157255, Note_on_c, 0, 78, 88
1, 157255, Note_on_c, 0, 43, 43
1, 157308, Note_on_c, 0, 79, 0
1, 157308, Note_on_c, 0, 43, 0
1, 157437, Note_on_c, 0, 55, 37
1, 157504, Note_on_c, 0, 55, 0
1, 157591, Note_on_c, 0, 77, 92
1, 157610, Note_on_c, 0, 74, 64
1, 157610, Note_on_c, 0, 43, 34
1, 157658, Note_on_c, 0, 78, 0
1, 157658, Note_on_c, 0, 75, 0
1, 157701, Note_on_c, 0, 43, 0
1, 157759, Note_on_c, 0, 55, 50
1, 157840, Note_on_c, 0, 55, 0
1, 157893, Note_on_c, 0, 76, 105
1, 157893, Note_on_c, 0, 43, 53
1, 157960, Note_on_c, 0, 43, 0
1, 157984, Note_on_c, 0, 77, 0
1, 158023, Note_on_c, 0, 74, 0
1, 158071, Note_on_c, 0, 55, 60
1, 158128, Note_on_c, 0, 55, 0
1, 158191, Note_on_c, 0, 75, 94
1, 158196, Note_on_c, 0, 72, 87
1, 158205, Note_on_c, 0, 43, 57
1, 158248, Note_on_c, 0, 76, 0
1, 158263, Note_on_c, 0, 43, 0
1, 158364, Note_on_c, 0, 55, 69
1, 158416, Note_on_c, 0, 55, 0
1, 158508, Note_on_c, 0, 74, 107
1, 158522, Note_on_c, 0, 43, 97
1, 158570, Note_on_c, 0, 75, 0
1, 158680, Note_on_c, 0, 43, 0
1, 158685, Note_on_c, 0, 55, 85
1, 158738, Note_on_c, 0, 55, 0
1, 158839, Note_on_c, 0, 55, 58
1, 158839, Note_on_c, 0, 71, 72
1, 158868, Note_on_c, 0, 72, 0
1, 158892, Note_on_c, 0, 55, 0
1, 158983, Note_on_c, 0, 55, 52
1, 159050, Note_on_c, 0, 55, 0
1, 159146, Note_on_c, 0, 41, 105
1, 159160, Note_on_c, 0, 74, 0
1, 159223, Note_on_c, 0, 71, 0
1, 159276, Note_on_c, 0, 41, 0
1, 159304, Note_on_c, 0, 53, 91
1, 159352, Note_on_c, 0, 53, 0
1, 159468, Note_on_c, 0, 80, 105
1, 159472, Note_on_c, 0, 53, 66
1, 159472, Note_on_c, 0, 74, 94
1, 159477, Note_on_c, 0, 71, 82
1, 159516, Note_on_c, 0, 53, 0
1, 159616, Note_on_c, 0, 53, 53
1, 159674, Note_on_c, 0, 53, 0
1, 159799, Note_on_c, 0, 39, 91
1, 159962, Note_on_c, 0, 39, 0
1, 159991, Note_on_c, 0, 51, 76
1, 160010, Note_on_c, 0, 74, 0
1, 160015, Note_on_c, 0, 71, 0
1, 160072, Note_on_c, 0, 51, 0
1, 160159, Note_on_c, 0, 51, 83
1, 160159, Note_on_c, 0, 75, 71
1, 160159, Note_on_c, 0, 72, 82
1, 160159, Note_on_c, 0, 79, 92
1, 160212, Note_on_c, 0, 51, 0
1, 160221, Note_on_c, 0, 80, 0
1, 160322, Note_on_c, 0, 51, 72
1, 160370, Note_on_c, 0, 51, 0
1, 160495, Note_on_c, 0, 35, 87
1, 160533, Note_on_c, 0, 79, 0
1, 160538, Note_on_c, 0, 75, 0
1, 160548, Note_on_c, 0, 72, 0
1, 160610, Note_on_c, 0, 35, 0
1, 160648, Note_on_c, 0, 47, 83
1, 160706, Note_on_c, 0, 47, 0
1, 160725, Note_on_c, 0, 67, 97
1, 160792, Note_on_c, 0, 47, 72
1, 160816, Note_on_c, 0, 74, 104
1, 160845, Note_on_c, 0, 67, 0
1, 160874, Note_on_c, 0, 47, 0
1, 160956, Note_on_c, 0, 47, 69
1, 160984, Note_on_c, 0, 74, 0
1, 161004, Note_on_c, 0, 77, 87
1, 161037, Note_on_c, 0, 77, 0
1, 161061, Note_on_c, 0, 47, 0
1, 161080, Note_on_c, 0, 75, 93
1, 161119, Note_on_c, 0, 75, 0
1, 161119, Note_on_c, 0, 36, 86
1, 161143, Note_on_c, 0, 77, 62
1, 161191, Note_on_c, 0, 75, 89
1, 161239, Note_on_c, 0, 77, 0
1, 161244, Note_on_c, 0, 36, 0
1, 161263, Note_on_c, 0, 74, 91
1, 161287, Note_on_c, 0, 48, 75
1, 161292, Note_on_c, 0, 75, 0
1, 161330, Note_on_c, 0, 75, 88
1, 161349, Note_on_c, 0, 48, 0
1, 161349, Note_on_c, 0, 74, 0
1, 161392, Note_on_c, 0, 77, 98
1, 161421, Note_on_c, 0, 75, 0
1, 161469, Note_on_c, 0, 48, 73
1, 161474, Note_on_c, 0, 79, 106
1, 161517, Note_on_c, 0, 48, 0
1, 161541, Note_on_c, 0, 77, 0
1, 161642, Note_on_c, 0, 48, 80
1, 161690, Note_on_c, 0, 48, 0
1, 161800, Note_on_c, 0, 41, 102
1, 161820, Note_on_c, 0, 79, 0
1, 161944, Note_on_c, 0, 41, 0
1, 161954, Note_on_c, 0, 53, 100
1, 162055, Note_on_c, 0, 53, 0
1, 162108, Note_on_c, 0, 80, 105
1, 162108, Note_on_c, 0, 71, 88
1, 162112, Note_on_c, 0, 74, 98
1, 162117, Note_on_c, 0, 53, 91
1, 162218, Note_on_c, 0, 53, 0
1, 162285, Note_on_c, 0, 53, 94
1, 162328, Note_on_c, 0, 53, 0
1, 162448, Note_on_c, 0, 39, 100
1, 162568, Note_on_c, 0, 74, 0
1, 162607, Note_on_c, 0, 39, 0
1, 162612, Note_on_c, 0, 51, 86
1, 162616, Note_on_c, 0, 71, 0
1, 162708, Note_on_c, 0, 51, 0
1, 162799, Note_on_c, 0, 80, 0
1, 162818, Note_on_c, 0, 79, 104
1, 162818, Note_on_c, 0, 72, 98
1, 162818, Note_on_c, 0, 51, 71
1, 162823, Note_on_c, 0, 75, 76
1, 162895, Note_on_c, 0, 51, 0
1, 162957, Note_on_c, 0, 51, 86
1, 163000, Note_on_c, 0, 72, 0
1, 163034, Note_on_c, 0, 75, 0
1, 163058, Note_on_c, 0, 51, 0
1, 163063, Note_on_c, 0, 79, 0
1, 163130, Note_on_c, 0, 38, 104
1, 163269, Note_on_c, 0, 38, 0
1, 163284, Note_on_c, 0, 50, 92
1, 163332, Note_on_c, 0, 50, 0
1, 163346, Note_on_c, 0, 77, 95
1, 163423, Note_on_c, 0, 50, 77
1, 163437, Note_on_c, 0, 83, 98
1, 163485, Note_on_c, 0, 77, 0
1, 163490, Note_on_c, 0, 50, 0
1, 163600, Note_on_c, 0, 50, 62
1, 163648, Note_on_c, 0, 83, 0
1, 163658, Note_on_c, 0, 50, 0
1, 163668, Note_on_c, 0, 89, 88
1, 163778, Note_on_c, 0, 87, 90
1, 163792, Note_on_c, 0, 48, 84
1, 163797, Note_on_c, 0, 89, 0
1, 163927, Note_on_c, 0, 87, 0
1, 163951, Note_on_c, 0, 79, 84
1, 164114, Note_on_c, 0, 48, 0
1, 164114, Note_on_c, 0, 79, 0
1, 164119, Note_on_c, 0, 84, 92
1, 164248, Note_on_c, 0, 84, 0
1, 164253, Note_on_c, 0, 75, 77
1, 164392, Note_on_c, 0, 75, 0
1, 164440, Note_on_c, 0, 53, 64
1, 164604, Note_on_c, 0, 77, 59
1, 164738, Note_on_c, 0, 53, 0
1, 164752, Note_on_c, 0, 80, 57
1, 164776, Note_on_c, 0, 77, 0
1, 164925, Note_on_c, 0, 74, 55
1, 164968, Note_on_c, 0, 80, 0
1, 165016, Note_on_c, 0, 74, 0
1, 165093, Note_on_c, 0, 55, 56
1, 165256, Note_on_c, 0, 75, 54
1, 165396, Note_on_c, 0, 55, 0
1, 165420, Note_on_c, 0, 75, 0
1, 165424, Note_on_c, 0, 79, 50
1, 165592, Note_on_c, 0, 79, 0
1, 165592, Note_on_c, 0, 72, 48
1, 165669, Note_on_c, 0, 72, 0
1, 165751, Note_on_c, 0, 43, 41
1, 165919, Note_on_c, 0, 74, 50
1, 165962, Note_on_c, 0, 43, 0
1, 166005, Note_on_c, 0, 74, 0
1, 166072, Note_on_c, 0, 77, 54
1, 166144, Note_on_c, 0, 77, 0
1, 166221, Note_on_c, 0, 71, 43
1, 166264, Note_on_c, 0, 71, 0
1, 166384, Note_on_c, 0, 72, 113
1, 167042, Note_on_c, 0, 72, 0
1, 167052, Note_on_c, 0, 60, 106
1, 167052, Note_on_c, 0, 75, 105
1, 167124, Note_on_c, 0, 75, 0
1, 167392, Note_on_c, 0, 79, 108
1, 167469, Note_on_c, 0, 79, 0
1, 167714, Note_on_c, 0, 60, 0
1, 167719, Note_on_c, 0, 84, 112
1, 167728, Note_on_c, 0, 63, 102
1, 167834, Note_on_c, 0, 84, 0
1, 167868, Note_on_c, 0, 63, 0
1, 168045, Note_on_c, 0, 87, 103
1, 168050, Note_on_c, 0, 67, 105
1, 168093, Note_on_c, 0, 67, 0
1, 168132, Note_on_c, 0, 87, 0
1, 168381, Note_on_c, 0, 44, 109
1, 168381, Note_on_c, 0, 80, 103
1, 168386, Note_on_c, 0, 32, 112
1, 168391, Note_on_c, 0, 72, 109
1, 168544, Note_on_c, 0, 72, 0
1, 168549, Note_on_c, 0, 80, 0
1, 168732, Note_on_c, 0, 84, 115
1, 168732, Note_on_c, 0, 75, 95
1, 168799, Note_on_c, 0, 84, 0
1, 168804, Note_on_c, 0, 32, 0
1, 168832, Note_on_c, 0, 44, 0
1, 168837, Note_on_c, 0, 75, 0
1, 169048, Note_on_c, 0, 77, 109
1, 169048, Note_on_c, 0, 68, 101
1, 169058, Note_on_c, 0, 36, 106
1, 169063, Note_on_c, 0, 48, 107
1, 169159, Note_on_c, 0, 68, 0
1, 169159, Note_on_c, 0, 36, 0
1, 169178, Note_on_c, 0, 48, 0
1, 169212, Note_on_c, 0, 77, 0
1, 169370, Note_on_c, 0, 80, 103
1, 169375, Note_on_c, 0, 53, 103
1, 169375, Note_on_c, 0, 41, 97
1, 169375, Note_on_c, 0, 72, 103
1, 169500, Note_on_c, 0, 80, 0
1, 169500, Note_on_c, 0, 41, 0
1, 169524, Note_on_c, 0, 72, 0
1, 169543, Note_on_c, 0, 53, 0
1, 169706, Note_on_c, 0, 73, 92
1, 169716, Note_on_c, 0, 65, 88
1, 169725, Note_on_c, 0, 56, 88
1, 169740, Note_on_c, 0, 44, 72
1, 169855, Note_on_c, 0, 65, 0
1, 169869, Note_on_c, 0, 73, 0
1, 170066, Note_on_c, 0, 68, 72
1, 170066, Note_on_c, 0, 77, 88
1, 170138, Note_on_c, 0, 68, 0
1, 170239, Note_on_c, 0, 77, 0
1, 170306, Note_on_c, 0, 44, 0
1, 170368, Note_on_c, 0, 56, 0
1, 170599, Note_on_c, 0, 72, 76
1, 170810, Note_on_c, 0, 66, 39
1, 170935, Note_on_c, 0, 66, 0
1, 170978, Note_on_c, 0, 63, 41
1, 171040, Note_on_c, 0, 63, 0
1, 171122, Note_on_c, 0, 66, 43
1, 171199, Note_on_c, 0, 66, 0
1, 171290, Note_on_c, 0, 56, 38
1, 171367, Note_on_c, 0, 56, 0
1, 171458, Note_on_c, 0, 66, 35
1, 171540, Note_on_c, 0, 66, 0
1, 171597, Note_on_c, 0, 80, 67
1, 171616, Note_on_c, 0, 72, 0
1, 171631, Note_on_c, 0, 63, 33
1, 171708, Note_on_c, 0, 63, 0
1, 171784, Note_on_c, 0, 66, 34
1, 171861, Note_on_c, 0, 80, 0
1, 171919, Note_on_c, 0, 66, 0
1, 172010, Note_on_c, 0, 56, 27
1, 172048, Note_on_c, 0, 80, 57
1, 172216, Note_on_c, 0, 65, 46
1, 172308, Note_on_c, 0, 65, 0
1, 172394, Note_on_c, 0, 61, 33
1, 172432, Note_on_c, 0, 56, 0
1, 172509, Note_on_c, 0, 61, 0
1, 172548, Note_on_c, 0, 77, 51
1, 172567, Note_on_c, 0, 80, 0
1, 172581, Note_on_c, 0, 65, 32
1, 172615, Note_on_c, 0, 77, 0
1, 172653, Note_on_c, 0, 65, 0
1, 172725, Note_on_c, 0, 73, 52
1, 172740, Note_on_c, 0, 56, 41
1, 172840, Note_on_c, 0, 56, 0
1, 172912, Note_on_c, 0, 65, 43
1, 172951, Note_on_c, 0, 73, 0
1, 172980, Note_on_c, 0, 65, 0
1, 173028, Note_on_c, 0, 61, 39
1, 173090, Note_on_c, 0, 61, 0
1, 173186, Note_on_c, 0, 65, 45
1, 173258, Note_on_c, 0, 65, 0
1, 173402, Note_on_c, 0, 72, 81
1, 173412, Note_on_c, 0, 56, 30
1, 173589, Note_on_c, 0, 66, 44
1, 173656, Note_on_c, 0, 66, 0
1, 173738, Note_on_c, 0, 63, 30
1, 173748, Note_on_c, 0, 56, 0
1, 173815, Note_on_c, 0, 63, 0
1, 173863, Note_on_c, 0, 66, 46
1, 173944, Note_on_c, 0, 66, 0
1, 174040, Note_on_c, 0, 56, 49
1, 174108, Note_on_c, 0, 56, 0
1, 174180, Note_on_c, 0, 80, 81
1, 174199, Note_on_c, 0, 66, 46
1, 174237, Note_on_c, 0, 72, 0
1, 174271, Note_on_c, 0, 66, 0
1, 174348, Note_on_c, 0, 82, 94
1, 174362, Note_on_c, 0, 80, 0
1, 174362, Note_on_c, 0, 63, 41
1, 174429, Note_on_c, 0, 63, 0
1, 174501, Note_on_c, 0, 80, 78
1, 174520, Note_on_c, 0, 66, 38
1, 174535, Note_on_c, 0, 82, 0
1, 174549, Note_on_c, 0, 80, 0
1, 174621, Note_on_c, 0, 66, 0
1, 174684, Note_on_c, 0, 56, 37
1, 174703, Note_on_c, 0, 80, 68
1, 174890, Note_on_c, 0, 65, 48
1, 174967, Note_on_c, 0, 65, 0
1, 175063, Note_on_c, 0, 61, 35
1, 175087, Note_on_c, 0, 56, 0
1, 175188, Note_on_c, 0, 61, 0
1, 175240, Note_on_c, 0, 80, 0
1, 175250, Note_on_c, 0, 65, 34
1, 175260, Note_on_c, 0, 77, 37
1, 175327, Note_on_c, 0, 65, 0
1, 175332, Note_on_c, 0, 77, 0
1, 175413, Note_on_c, 0, 73, 44
1, 175428, Note_on_c, 0, 56, 43
1, 175596, Note_on_c, 0, 73, 0
1, 175605, Note_on_c, 0, 65, 47
1, 175672, Note_on_c, 0, 65, 0
1, 175730, Note_on_c, 0, 56, 0
1, 175740, Note_on_c, 0, 73, 59
1, 175764, Note_on_c, 0, 61, 41
1, 175831, Note_on_c, 0, 61, 0
1, 175898, Note_on_c, 0, 65, 72
1, 175941, Note_on_c, 0, 65, 0
1, 176076, Note_on_c, 0, 66, 76
1, 176104, Note_on_c, 0, 63, 58
1, 176104, Note_on_c, 0, 57, 31
1, 176119, Note_on_c, 0, 60, 40
1, 176234, Note_on_c, 0, 71, 75
1, 176272, Note_on_c, 0, 73, 0
1, 176388, Note_on_c, 0, 72, 97
1, 176436, Note_on_c, 0, 71, 0
1, 176546, Note_on_c, 0, 74, 94
1, 176584, Note_on_c, 0, 72, 0
1, 176709, Note_on_c, 0, 74, 0
1, 176709, Note_on_c, 0, 77, 85
1, 176853, Note_on_c, 0, 75, 75
1, 176872, Note_on_c, 0, 77, 0
1, 177007, Note_on_c, 0, 74, 81
1, 177021, Note_on_c, 0, 75, 0
1, 177160, Note_on_c, 0, 74, 0
1, 177165, Note_on_c, 0, 72, 76
1, 177170, Note_on_c, 0, 66, 0
1, 177175, Note_on_c, 0, 57, 0
1, 177180, Note_on_c, 0, 60, 0
1, 177189, Note_on_c, 0, 63, 0
1, 177309, Note_on_c, 0, 72, 0
1, 177343, Note_on_c, 0, 79, 71
1, 177698, Note_on_c, 0, 55, 29
1, 177703, Note_on_c, 0, 59, 38
1, 177789, Note_on_c, 0, 79, 0
1, 177991, Note_on_c, 0, 59, 0
1, 178020, Note_on_c, 0, 55, 0
1, 178020, Note_on_c, 0, 56, 46
1, 178024, Note_on_c, 0, 60, 53
1, 178356, Note_on_c, 0, 60, 0
1, 178360, Note_on_c, 0, 72, 73
1, 178399, Note_on_c, 0, 56, 0
1, 178399, Note_on_c, 0, 72, 0
1, 178485, Note_on_c, 0, 72, 65
1, 178639, Note_on_c, 0, 72, 0
1, 178696, Note_on_c, 0, 79, 56
1, 179056, Note_on_c, 0, 55, 30
1, 179056, Note_on_c, 0, 59, 36
1, 179349, Note_on_c, 0, 79, 0
1, 179349, Note_on_c, 0, 59, 0
1, 179364, Note_on_c, 0, 55, 0
1, 179397, Note_on_c, 0, 56, 35
1, 179416, Note_on_c, 0, 60, 43
1, 179695, Note_on_c, 0, 60, 0
1, 179714, Note_on_c, 0, 56, 0
1, 179728, Note_on_c, 0, 72, 65
1, 179776, Note_on_c, 0, 72, 0
1, 179877, Note_on_c, 0, 72, 58
1, 179954, Note_on_c, 0, 72, 0
1, 180050, Note_on_c, 0, 79, 74
1, 180064, Note_on_c, 0, 59, 42
1, 180084, Note_on_c, 0, 55, 35
1, 180314, Note_on_c, 0, 79, 0
1, 180324, Note_on_c, 0, 59, 0
1, 180348, Note_on_c, 0, 55, 0
1, 180386, Note_on_c, 0, 60, 53
1, 180391, Note_on_c, 0, 72, 76
1, 180400, Note_on_c, 0, 56, 38
1, 180434, Note_on_c, 0, 72, 0
1, 180535, Note_on_c, 0, 72, 68
1, 180621, Note_on_c, 0, 72, 0
1, 180684, Note_on_c, 0, 56, 0
1, 180684, Note_on_c, 0, 60, 0
1, 180698, Note_on_c, 0, 55, 55
1, 180703, Note_on_c, 0, 79, 84
1, 180712, Note_on_c, 0, 59, 45
1, 180914, Note_on_c, 0, 79, 0
1, 181000, Note_on_c, 0, 59, 0
1, 181010, Note_on_c, 0, 55, 0
1, 181010, Note_on_c, 0, 72, 78
1, 181024, Note_on_c, 0, 60, 53
1, 181029, Note_on_c, 0, 56, 48
1, 181053, Note_on_c, 0, 72, 0
1, 181149, Note_on_c, 0, 72, 62
1, 181274, Note_on_c, 0, 56, 0
1, 181274, Note_on_c, 0, 72, 0
1, 181293, Note_on_c, 0, 60, 0
1, 181341, Note_on_c, 0, 55, 32
1, 181356, Note_on_c, 0, 79, 54
1, 181375, Note_on_c, 0, 59, 29
1, 181581, Note_on_c, 0, 79, 0
1, 181706, Note_on_c, 0, 79, 46
1, 181768, Note_on_c, 0, 55, 0
1, 181802, Note_on_c, 0, 59, 0
1, 181903, Note_on_c, 0, 79, 0
1, 182047, Note_on_c, 0, 79, 65
1, 182234, Note_on_c, 0, 79, 0
1, 182407, Note_on_c, 0, 79, 84
1, 182599, Note_on_c, 0, 79, 0
1, 182767, Note_on_c, 0, 79, 78
1, 182935, Note_on_c, 0, 78, 72
1, 182954, Note_on_c, 0, 79, 0
1, 183103, Note_on_c, 0, 77, 79
1, 183108, Note_on_c, 0, 78, 0
1, 183261, Note_on_c, 0, 74, 71
1, 183276, Note_on_c, 0, 77, 0
1, 183420, Note_on_c, 0, 74, 0
1, 183448, Note_on_c, 0, 79, 58
1, 183631, Note_on_c, 0, 79, 0
1, 183631, Note_on_c, 0, 78, 52
1, 183813, Note_on_c, 0, 78, 0
1, 183823, Note_on_c, 0, 77, 54
1, 183928, Note_on_c, 0, 77, 0
1, 184000, Note_on_c, 0, 74, 49
1, 184255, Note_on_c, 0, 72, 61
1, 184260, Note_on_c, 0, 74, 0
1, 184269, Note_on_c, 0, 63, 23
1, 184485, Note_on_c, 0, 63, 0
1, 184490, Note_on_c, 0, 67, 43
1, 184562, Note_on_c, 0, 67, 0
1, 184648, Note_on_c, 0, 63, 26
1, 184792, Note_on_c, 0, 72, 0
1, 184821, Note_on_c, 0, 67, 47
1, 184826, Note_on_c, 0, 74, 66
1, 184845, Note_on_c, 0, 63, 0
1, 184879, Note_on_c, 0, 74, 0
1, 184884, Note_on_c, 0, 72, 66
1, 184888, Note_on_c, 0, 67, 0
1, 184989, Note_on_c, 0, 71, 66
1, 184994, Note_on_c, 0, 72, 0
1, 185018, Note_on_c, 0, 62, 23
1, 185152, Note_on_c, 0, 71, 0
1, 185176, Note_on_c, 0, 67, 55
1, 185244, Note_on_c, 0, 67, 0
1, 185248, Note_on_c, 0, 62, 0
1, 185325, Note_on_c, 0, 72, 89
1, 185364, Note_on_c, 0, 63, 39
1, 185464, Note_on_c, 0, 63, 0
1, 185517, Note_on_c, 0, 67, 59
1, 185522, Note_on_c, 0, 72, 0
1, 185580, Note_on_c, 0, 67, 0
1, 185680, Note_on_c, 0, 73, 75
1, 185719, Note_on_c, 0, 64, 49
1, 185848, Note_on_c, 0, 64, 0
1, 185887, Note_on_c, 0, 67, 47
1, 185959, Note_on_c, 0, 67, 0
1, 186064, Note_on_c, 0, 64, 41
1, 186136, Note_on_c, 0, 64, 0
1, 186237, Note_on_c, 0, 67, 39
1, 186343, Note_on_c, 0, 67, 0
1, 186400, Note_on_c, 0, 74, 50
1, 186434, Note_on_c, 0, 73, 0
1, 186448, Note_on_c, 0, 65, 38
1, 186549, Note_on_c, 0, 65, 0
1, 186621, Note_on_c, 0, 67, 37
1, 186640, Note_on_c, 0, 74, 0
1, 186693, Note_on_c, 0, 67, 0
1, 186804, Note_on_c, 0, 65, 20
1, 186904, Note_on_c, 0, 65, 0
1, 186948, Note_on_c, 0, 67, 31
1, 187029, Note_on_c, 0, 67, 0
1, 187149, Note_on_c, 0, 53, 54
1, 187149, Note_on_c, 0, 62, 33
1, 187255, Note_on_c, 0, 62, 0
1, 187332, Note_on_c, 0, 67, 41
1, 187418, Note_on_c, 0, 67, 0
1, 187519, Note_on_c, 0, 62, 41
1, 187600, Note_on_c, 0, 62, 0
1, 187658, Note_on_c, 0, 53, 0
1, 187668, Note_on_c, 0, 52, 65
1, 187677, Note_on_c, 0, 67, 41
1, 187730, Note_on_c, 0, 52, 0
1, 187744, Note_on_c, 0, 53, 52
1, 187768, Note_on_c, 0, 67, 0
1, 187855, Note_on_c, 0, 53, 0
1, 187864, Note_on_c, 0, 55, 66
1, 187874, Note_on_c, 0, 62, 41
1, 188028, Note_on_c, 0, 53, 70
1, 188047, Note_on_c, 0, 67, 44
1, 188052, Note_on_c, 0, 55, 0
1, 188128, Note_on_c, 0, 67, 0
1, 188181, Note_on_c, 0, 62, 0
1, 188191, Note_on_c, 0, 51, 69
1, 188196, Note_on_c, 0, 63, 46
1, 188210, Note_on_c, 0, 53, 0
1, 188354, Note_on_c, 0, 50, 76
1, 188368, Note_on_c, 0, 67, 41
1, 188378, Note_on_c, 0, 51, 0
1, 188440, Note_on_c, 0, 67, 0
1, 188560, Note_on_c, 0, 48, 71
1, 188575, Note_on_c, 0, 50, 0
1, 188604, Note_on_c, 0, 63, 0
1, 188604, Note_on_c, 0, 65, 27
1, 188757, Note_on_c, 0, 67, 46
1, 188839, Note_on_c, 0, 67, 0
1, 188954, Note_on_c, 0, 62, 30
1, 188964, Note_on_c, 0, 65, 0
1, 189146, Note_on_c, 0, 67, 43
1, 189156, Note_on_c, 0, 62, 0
1, 189223, Note_on_c, 0, 67, 0
1, 189328, Note_on_c, 0, 47, 46
1, 189357, Note_on_c, 0, 65, 36
1, 189367, Note_on_c, 0, 48, 0
1, 189487, Note_on_c, 0, 65, 0
1, 189520, Note_on_c, 0, 67, 37
1, 189592, Note_on_c, 0, 67, 0
1, 189597, Note_on_c, 0, 47, 0
1, 189693, Note_on_c, 0, 62, 32
1, 189784, Note_on_c, 0, 62, 0
1, 189856, Note_on_c, 0, 67, 36
1, 189952, Note_on_c, 0, 67, 0
1, 190053, Note_on_c, 0, 74, 76
1, 190082, Note_on_c, 0, 59, 35
1, 190250, Note_on_c, 0, 67, 55
1, 190269, Note_on_c, 0, 59, 0
1, 190370, Note_on_c, 0, 67, 0
1, 190413, Note_on_c, 0, 59, 42
1, 190509, Note_on_c, 0, 74, 0
1, 190533, Note_on_c, 0, 75, 70
1, 190576, Note_on_c, 0, 67, 42
1, 190586, Note_on_c, 0, 74, 84
1, 190591, Note_on_c, 0, 59, 0
1, 190620, Note_on_c, 0, 75, 0
1, 190624, Note_on_c, 0, 74, 0
1, 190653, Note_on_c, 0, 72, 87
1, 190725, Note_on_c, 0, 74, 79
1, 190740, Note_on_c, 0, 67, 0
1, 190744, Note_on_c, 0, 72, 0
1, 190831, Note_on_c, 0, 60, 49
1, 190845, Note_on_c, 0, 75, 83
1, 190869, Note_on_c, 0, 74, 0
1, 190999, Note_on_c, 0, 67, 61
1, 191018, Note_on_c, 0, 60, 0
1, 191032, Note_on_c, 0, 75, 0
1, 191133, Note_on_c, 0, 67, 0
1, 191181, Note_on_c, 0, 77, 94
1, 191200, Note_on_c, 0, 62, 46
1, 191292, Note_on_c, 0, 62, 0
1, 191364, Note_on_c, 0, 67, 56
1, 191402, Note_on_c, 0, 77, 0
1, 191445, Note_on_c, 0, 67, 0
1, 191546, Note_on_c, 0, 78, 73
1, 191584, Note_on_c, 0, 62, 38
1, 191719, Note_on_c, 0, 62, 0
1, 191767, Note_on_c, 0, 67, 41
1, 191853, Note_on_c, 0, 67, 0
1, 191983, Note_on_c, 0, 62, 27
1, 192069, Note_on_c, 0, 62, 0
1, 192151, Note_on_c, 0, 67, 41
1, 192228, Note_on_c, 0, 67, 0
1, 192295, Note_on_c, 0, 79, 50
1, 192314, Note_on_c, 0, 78, 0
1, 192338, Note_on_c, 0, 63, 27
1, 192429, Note_on_c, 0, 63, 0
1, 192516, Note_on_c, 0, 79, 0
1, 192516, Note_on_c, 0, 67, 36
1, 192602, Note_on_c, 0, 67, 0
1, 192684, Note_on_c, 0, 63, 31
1, 192760, Note_on_c, 0, 63, 0
1, 192876, Note_on_c, 0, 67, 25
1, 192948, Note_on_c, 0, 67, 0
1, 193005, Note_on_c, 0, 63, 44
1, 193015, Note_on_c, 0, 55, 55
1, 193202, Note_on_c, 0, 67, 32
1, 193284, Note_on_c, 0, 67, 0
1, 193336, Note_on_c, 0, 63, 0
1, 193356, Note_on_c, 0, 60, 48
1, 193461, Note_on_c, 0, 60, 0
1, 193490, Note_on_c, 0, 55, 0
1, 193519, Note_on_c, 0, 54, 66
1, 193548, Note_on_c, 0, 67, 37
1, 193591, Note_on_c, 0, 54, 0
1, 193610, Note_on_c, 0, 55, 42
1, 193653, Note_on_c, 0, 67, 0
1, 193701, Note_on_c, 0, 56, 78
1, 193711, Note_on_c, 0, 55, 0
1, 193735, Note_on_c, 0, 63, 53
1, 193879, Note_on_c, 0, 55, 80
1, 193898, Note_on_c, 0, 56, 0
1, 193903, Note_on_c, 0, 67, 50
1, 193984, Note_on_c, 0, 67, 0
1, 194032, Note_on_c, 0, 55, 0
1, 194052, Note_on_c, 0, 53, 77
1, 194066, Note_on_c, 0, 60, 52
1, 194186, Note_on_c, 0, 63, 0
1, 194205, Note_on_c, 0, 51, 79
1, 194239, Note_on_c, 0, 67, 43
1, 194244, Note_on_c, 0, 53, 0
1, 194344, Note_on_c, 0, 67, 0
1, 194344, Note_on_c, 0, 60, 0
1, 194397, Note_on_c, 0, 50, 80
1, 194431, Note_on_c, 0, 65, 47
1, 194440, Note_on_c, 0, 51, 0
1, 194599, Note_on_c, 0, 67, 47
1, 194618, Note_on_c, 0, 48, 30
1, 194666, Note_on_c, 0, 67, 0
1, 194671, Note_on_c, 0, 48, 0
1, 194781, Note_on_c, 0, 62, 40
1, 194805, Note_on_c, 0, 65, 0
1, 194944, Note_on_c, 0, 67, 44
1, 195021, Note_on_c, 0, 62, 0
1, 195055, Note_on_c, 0, 67, 0
1, 195146, Note_on_c, 0, 48, 71
1, 195156, Note_on_c, 0, 63, 34
1, 195160, Note_on_c, 0, 50, 0
1, 195338, Note_on_c, 0, 67, 44
1, 195396, Note_on_c, 0, 48, 0
1, 195405, Note_on_c, 0, 67, 0
1, 195516, Note_on_c, 0, 60, 45
1, 195559, Note_on_c, 0, 63, 0
1, 195592, Note_on_c, 0, 60, 0
1, 195703, Note_on_c, 0, 67, 45
1, 195818, Note_on_c, 0, 67, 0
1, 195900, Note_on_c, 0, 84, 120
1, 195904, Note_on_c, 0, 72, 119
1, 195924, Note_on_c, 0, 63, 70
1, 195924, Note_on_c, 0, 60, 67
1, 196077, Note_on_c, 0, 67, 79
1, 196082, Note_on_c, 0, 63, 0
1, 196092, Note_on_c, 0, 60, 0
1, 196250, Note_on_c, 0, 63, 69
1, 196250, Note_on_c, 0, 60, 88
1, 196264, Note_on_c, 0, 67, 0
1, 196351, Note_on_c, 0, 72, 0
1, 196423, Note_on_c, 0, 67, 89
1, 196461, Note_on_c, 0, 63, 0
1, 196557, Note_on_c, 0, 60, 0
1, 196567, Note_on_c, 0, 67, 0
1, 196586, Note_on_c, 0, 73, 105
1, 196591, Note_on_c, 0, 85, 108
1, 196596, Note_on_c, 0, 64, 98
1, 196600, Note_on_c, 0, 58, 98
1, 196653, Note_on_c, 0, 84, 0
1, 196773, Note_on_c, 0, 67, 88
1, 196821, Note_on_c, 0, 64, 0
1, 196831, Note_on_c, 0, 58, 0
1, 196908, Note_on_c, 0, 67, 0
1, 196932, Note_on_c, 0, 64, 80
1, 196936, Note_on_c, 0, 58, 78
1, 197100, Note_on_c, 0, 67, 97
1, 197104, Note_on_c, 0, 64, 0
1, 197186, Note_on_c, 0, 85, 0
1, 197191, Note_on_c, 0, 58, 0
1, 197191, Note_on_c, 0, 73, 0
1, 197200, Note_on_c, 0, 67, 0
1, 197292, Note_on_c, 0, 57, 92
1, 197292, Note_on_c, 0, 60, 93
1, 197292, Note_on_c, 0, 72, 115
1, 197292, Note_on_c, 0, 84, 119
1, 197479, Note_on_c, 0, 65, 83
1, 197508, Note_on_c, 0, 60, 0
1, 197560, Note_on_c, 0, 72, 0
1, 197599, Note_on_c, 0, 57, 0
1, 197599, Note_on_c, 0, 65, 0
1, 197613, Note_on_c, 0, 84, 0
1, 197748, Note_on_c, 0, 87, 111
1, 197752, Note_on_c, 0, 66, 95
1, 197752, Note_on_c, 0, 75, 99
1, 197762, Note_on_c, 0, 56, 87
1, 197772, Note_on_c, 0, 60, 71
1, 198180, Note_on_c, 0, 66, 0
1, 198208, Note_on_c, 0, 60, 0
1, 198218, Note_on_c, 0, 75, 0
1, 198232, Note_on_c, 0, 56, 0
1, 198242, Note_on_c, 0, 87, 0
1, 198333, Note_on_c, 0, 87, 26
1, 198396, Note_on_c, 0, 87, 0
1, 198477, Note_on_c, 0, 87, 73
1, 198660, Note_on_c, 0, 86, 87
1, 198679, Note_on_c, 0, 87, 0
1, 198828, Note_on_c, 0, 84, 93
1, 198837, Note_on_c, 0, 86, 0
1, 198996, Note_on_c, 0, 83, 79
1, 199005, Note_on_c, 0, 84, 0
1, 199154, Note_on_c, 0, 83, 0
1, 199168, Note_on_c, 0, 86, 79
1, 199308, Note_on_c, 0, 86, 0
1, 199365, Note_on_c, 0, 59, 27
1, 199375, Note_on_c, 0, 55, 28
1, 199399, Note_on_c, 0, 77, 31
1, 199528, Note_on_c, 0, 59, 0
1, 199610, Note_on_c, 0, 55, 0
1, 199720, Note_on_c, 0, 62, 42
1, 199754, Note_on_c, 0, 59, 40
1, 199807, Note_on_c, 0, 77, 0
1, 199908, Note_on_c, 0, 80, 75
1, 199999, Note_on_c, 0, 62, 0
1, 200008, Note_on_c, 0, 59, 0
1, 200066, Note_on_c, 0, 79, 84
1, 200090, Note_on_c, 0, 80, 0
1, 200215, Note_on_c, 0, 79, 0
1, 200229, Note_on_c, 0, 77, 89
1, 200412, Note_on_c, 0, 76, 88
1, 200421, Note_on_c, 0, 77, 0
1, 200604, Note_on_c, 0, 79, 69
1, 200613, Note_on_c, 0, 76, 0
1, 200767, Note_on_c, 0, 79, 0
1, 200776, Note_on_c, 0, 70, 63
1, 200776, Note_on_c, 0, 48, 40
1, 200800, Note_on_c, 0, 52, 35
1, 200901, Note_on_c, 0, 52, 0
1, 201093, Note_on_c, 0, 70, 0
1, 201132, Note_on_c, 0, 55, 61
1, 201132, Note_on_c, 0, 52, 60
1, 201136, Note_on_c, 0, 48, 0
1, 201309, Note_on_c, 0, 73, 72
1, 201434, Note_on_c, 0, 55, 0
1, 201463, Note_on_c, 0, 52, 0
1, 201482, Note_on_c, 0, 72, 92
1, 201516, Note_on_c, 0, 73, 0
1, 201645, Note_on_c, 0, 70, 91
1, 201664, Note_on_c, 0, 72, 0
1, 201832, Note_on_c, 0, 68, 73
1, 201832, Note_on_c, 0, 53, 43
1, 201842, Note_on_c, 0, 70, 0
1, 201976, Note_on_c, 0, 68, 0
1, 201991, Note_on_c, 0, 80, 82
1, 202164, Note_on_c, 0, 79, 89
1, 202192, Note_on_c, 0, 80, 0
1, 202336, Note_on_c, 0, 77, 88
1, 202360, Note_on_c, 0, 79, 0
1, 202399, Note_on_c, 0, 53, 0
1, 202500, Note_on_c, 0, 75, 75
1, 202524, Note_on_c, 0, 77, 0
1, 202672, Note_on_c, 0, 74, 76
1, 202682, Note_on_c, 0, 75, 0
1, 202855, Note_on_c, 0, 75, 62
1, 202879, Note_on_c, 0, 74, 0
1, 203047, Note_on_c, 0, 77, 60
1, 203052, Note_on_c, 0, 75, 0
1, 203287, Note_on_c, 0, 72, 67
1, 203306, Note_on_c, 0, 77, 0
1, 203311, Note_on_c, 0, 55, 33
1, 203661, Note_on_c, 0, 67, 59
1, 203661, Note_on_c, 0, 63, 53
1, 203757, Note_on_c, 0, 63, 0
1, 203892, Note_on_c, 0, 67, 0
1, 204093, Note_on_c, 0, 65, 42
1, 204106, Note_on_c, 0, 62, 32
1, 204399, Note_on_c, 0, 62, 0
1, 204444, Note_on_c, 0, 72, 0
1, 204448, Note_on_c, 0, 65, 0
1, 204463, Note_on_c, 0, 75, 46
1, 204477, Note_on_c, 0, 71, 24
1, 204516, Note_on_c, 0, 55, 0
1, 204568, Note_on_c, 0, 71, 0
1, 204621, Note_on_c, 0, 75, 0
1, 204698, Note_on_c, 0, 74, 50
1, 204746, Note_on_c, 0, 74, 0
1, 204928, Note_on_c, 0, 72, 73
1, 204928, Note_on_c, 0, 60, 68
1, 204957, Note_on_c, 0, 51, 40
1, 204962, Note_on_c, 0, 48, 40
1, 205130, Note_on_c, 0, 51, 0
1, 205140, Note_on_c, 0, 48, 0
1, 205159, Note_on_c, 0, 55, 55
1, 205250, Note_on_c, 0, 55, 0
1, 205317, Note_on_c, 0, 48, 74
1, 205322, Note_on_c, 0, 51, 53
1, 205423, Note_on_c, 0, 60, 0
1, 205471, Note_on_c, 0, 51, 0
1, 205485, Note_on_c, 0, 55, 68
1, 205490, Note_on_c, 0, 48, 0
1, 205629, Note_on_c, 0, 55, 0
1, 205653, Note_on_c, 0, 52, 80
1, 205668, Note_on_c, 0, 61, 86
1, 205668, Note_on_c, 0, 46, 79
1, 205677, Note_on_c, 0, 73, 88
1, 205725, Note_on_c, 0, 72, 0
1, 205855, Note_on_c, 0, 55, 83
1, 205860, Note_on_c, 0, 52, 0
1, 205888, Note_on_c, 0, 46, 0
1, 205975, Note_on_c, 0, 55, 0
1, 206028, Note_on_c, 0, 52, 90
1, 206037, Note_on_c, 0, 46, 88
1, 206143, Note_on_c, 0, 52, 0
1, 206186, Note_on_c, 0, 55, 89
1, 206239, Note_on_c, 0, 46, 0
1, 206248, Note_on_c, 0, 61, 0
1, 206263, Note_on_c, 0, 73, 0
1, 206301, Note_on_c, 0, 55, 0
1, 206368, Note_on_c, 0, 45, 87
1, 206378, Note_on_c, 0, 48, 94
1, 206378, Note_on_c, 0, 72, 110
1, 206378, Note_on_c, 0, 60, 95
1, 206570, Note_on_c, 0, 53, 76
1, 206574, Note_on_c, 0, 45, 0
1, 206637, Note_on_c, 0, 60, 0
1, 206642, Note_on_c, 0, 48, 0
1, 206661, Note_on_c, 0, 53, 0
1, 206690, Note_on_c, 0, 72, 0
1, 206839, Note_on_c, 0, 75, 100
1, 206843, Note_on_c, 0, 44, 65
1, 206844, Note_on_c, 0, 63, 88
1, 206848, Note_on_c, 0, 54, 77
1, 206852, Note_on_c, 0, 48, 69
1, 207356, Note_on_c, 0, 48, 0
1, 207362, Note_on_c, 0, 63, 0
1, 207372, Note_on_c, 0, 54, 0
1, 207409, Note_on_c, 0, 44, 0
1, 207410, Note_on_c, 0, 75, 0
1, 207650, Note_on_c, 0, 75, 62
1, 207837, Note_on_c, 0, 74, 73
1, 207852, Note_on_c, 0, 75, 0
1, 207996, Note_on_c, 0, 72, 76
1, 208005, Note_on_c, 0, 74, 0
1, 208159, Note_on_c, 0, 72, 0
1, 208178, Note_on_c, 0, 71, 64
1, 208341, Note_on_c, 0, 71, 0
1, 208360, Note_on_c, 0, 74, 66
1, 208548, Note_on_c, 0, 65, 67
1, 208548, Note_on_c, 0, 43, 44
1, 208557, Note_on_c, 0, 47, 40
1, 208572, Note_on_c, 0, 74, 0
1, 208744, Note_on_c, 0, 47, 0
1, 208917, Note_on_c, 0, 65, 0
1, 208917, Note_on_c, 0, 50, 64
1, 208932, Note_on_c, 0, 47, 59
1, 208965, Note_on_c, 0, 43, 0
1, 209085, Note_on_c, 0, 68, 72
1, 209224, Note_on_c, 0, 50, 0
1, 209248, Note_on_c, 0, 67, 83
1, 209253, Note_on_c, 0, 47, 0
1, 209277, Note_on_c, 0, 68, 0
1, 209412, Note_on_c, 0, 65, 83
1, 209436, Note_on_c, 0, 67, 0
1, 209599, Note_on_c, 0, 64, 83
1, 209637, Note_on_c, 0, 65, 0
1, 209796, Note_on_c, 0, 67, 71
1, 209824, Note_on_c, 0, 64, 0
1, 209988, Note_on_c, 0, 40, 57
1, 209988, Note_on_c, 0, 36, 59
1, 209988, Note_on_c, 0, 58, 68
1, 210026, Note_on_c, 0, 67, 0
1, 210165, Note_on_c, 0, 40, 0
1, 210396, Note_on_c, 0, 43, 56
1, 210400, Note_on_c, 0, 40, 63
1, 210410, Note_on_c, 0, 36, 0
1, 210420, Note_on_c, 0, 58, 0
1, 210588, Note_on_c, 0, 61, 71
1, 210741, Note_on_c, 0, 43, 0
1, 210760, Note_on_c, 0, 40, 0
1, 210784, Note_on_c, 0, 61, 0
1, 210789, Note_on_c, 0, 60, 77
1, 210957, Note_on_c, 0, 60, 0
1, 210957, Note_on_c, 0, 58, 89
1, 211149, Note_on_c, 0, 56, 103
1, 211159, Note_on_c, 0, 41, 105
1, 211164, Note_on_c, 0, 29, 106
1, 211168, Note_on_c, 0, 58, 0
1, 211269, Note_on_c, 0, 60, 92
1, 211312, Note_on_c, 0, 56, 0
1, 211375, Note_on_c, 0, 52, 94
1, 211404, Note_on_c, 0, 60, 0
1, 211495, Note_on_c, 0, 52, 0
1, 211500, Note_on_c, 0, 53, 97
1, 211629, Note_on_c, 0, 56, 95
1, 211648, Note_on_c, 0, 53, 0
1, 211730, Note_on_c, 0, 56, 0
1, 211749, Note_on_c, 0, 47, 79
1, 211860, Note_on_c, 0, 48, 101
1, 211864, Note_on_c, 0, 47, 0
1, 211932, Note_on_c, 0, 41, 0
1, 211975, Note_on_c, 0, 53, 79
1, 211984, Note_on_c, 0, 48, 0
1, 212066, Note_on_c, 0, 53, 0
1, 212071, Note_on_c, 0, 43, 96
1, 212186, Note_on_c, 0, 44, 90
1, 212224, Note_on_c, 0, 43, 0
1, 212292, Note_on_c, 0, 48, 94
1, 212335, Note_on_c, 0, 44, 0
1, 212392, Note_on_c, 0, 40, 92
1, 212421, Note_on_c, 0, 48, 0
1, 212488, Note_on_c, 0, 29, 0
1, 212493, Note_on_c, 0, 40, 0
1, 212508, Note_on_c, 0, 41, 95
1, 212618, Note_on_c, 0, 36, 95
1, 212647, Note_on_c, 0, 41, 0
1, 212714, Note_on_c, 0, 36, 0
1, 212724, Note_on_c, 0, 41, 72
1, 212853, Note_on_c, 0, 44, 76
1, 212863, Note_on_c, 0, 41, 0
1, 212935, Note_on_c, 0, 41, 85
1, 212949, Note_on_c, 0, 44, 0
1, 213045, Note_on_c, 0, 44, 72
1, 213093, Note_on_c, 0, 41, 0
1, 213165, Note_on_c, 0, 48, 90
1, 213184, Note_on_c, 0, 44, 0
1, 213261, Note_on_c, 0, 44, 75
1, 213300, Note_on_c, 0, 48, 0
1, 213372, Note_on_c, 0, 48, 90
1, 213405, Note_on_c, 0, 44, 0
1, 213487, Note_on_c, 0, 53, 94
1, 213506, Note_on_c, 0, 48, 0
1, 213559, Note_on_c, 0, 53, 0
1, 213588, Note_on_c, 0, 48, 87
1, 213708, Note_on_c, 0, 53, 87
1, 213717, Note_on_c, 0, 48, 0
1, 213813, Note_on_c, 0, 56, 90
1, 213837, Note_on_c, 0, 53, 0
1, 213904, Note_on_c, 0, 53, 84
1, 213909, Note_on_c, 0, 56, 0
1, 214000, Note_on_c, 0, 56, 71
1, 214068, Note_on_c, 0, 53, 0
1, 214130, Note_on_c, 0, 56, 0
1, 214130, Note_on_c, 0, 60, 58
1, 214212, Note_on_c, 0, 60, 0
1, 214221, Note_on_c, 0, 56, 75
1, 214303, Note_on_c, 0, 60, 69
1, 214336, Note_on_c, 0, 56, 0
1, 214423, Note_on_c, 0, 65, 94
1, 214432, Note_on_c, 0, 60, 0
1, 214476, Note_on_c, 0, 65, 0
1, 214509, Note_on_c, 0, 60, 76
1, 214624, Note_on_c, 0, 65, 95
1, 214648, Note_on_c, 0, 60, 0
1, 214735, Note_on_c, 0, 68, 90
1, 214744, Note_on_c, 0, 65, 0
1, 214826, Note_on_c, 0, 65, 88
1, 214840, Note_on_c, 0, 68, 0
1, 214917, Note_on_c, 0, 68, 80
1, 214980, Note_on_c, 0, 65, 0
1, 215032, Note_on_c, 0, 72, 98
1, 215047, Note_on_c, 0, 68, 0
1, 215138, Note_on_c, 0, 68, 81
1, 215162, Note_on_c, 0, 72, 0
1, 215229, Note_on_c, 0, 72, 90
1, 215272, Note_on_c, 0, 68, 0
1, 215340, Note_on_c, 0, 77, 100
1, 215359, Note_on_c, 0, 72, 0
1, 215412, Note_on_c, 0, 77, 0
1, 215440, Note_on_c, 0, 72, 94
1, 215556, Note_on_c, 0, 77, 100
1, 215584, Note_on_c, 0, 72, 0
1, 215656, Note_on_c, 0, 80, 94
1, 215671, Note_on_c, 0, 77, 0
1, 215752, Note_on_c, 0, 77, 95
1, 215781, Note_on_c, 0, 80, 0
1, 215863, Note_on_c, 0, 80, 85
1, 215892, Note_on_c, 0, 77, 0
1, 216007, Note_on_c, 0, 84, 92
1, 216012, Note_on_c, 0, 80, 0
1, 216175, Note_on_c, 0, 79, 92
1, 216223, Note_on_c, 0, 84, 0
1, 216362, Note_on_c, 0, 80, 83
1, 216381, Note_on_c, 0, 79, 0
1, 216535, Note_on_c, 0, 80, 0
1, 216540, Note_on_c, 0, 76, 86
1, 216722, Note_on_c, 0, 77, 82
1, 216751, Note_on_c, 0, 76, 0
1, 216895, Note_on_c, 0, 73, 68
1, 216909, Note_on_c, 0, 77, 0
1, 217077, Note_on_c, 0, 74, 71
1, 217096, Note_on_c, 0, 73, 0
1, 217245, Note_on_c, 0, 74, 0
1, 217255, Note_on_c, 0, 80, 58
1, 217456, Note_on_c, 0, 80, 0
1, 217466, Note_on_c, 0, 77, 47
1, 217665, Note_on_c, 0, 77, 0
1, 217706, Note_on_c, 0, 74, 36
1, 217870, Note_on_c, 0, 74, 0
1, 217884, Note_on_c, 0, 63, 31
1, 217888, Note_on_c, 0, 60, 21
1, 217912, Note_on_c, 0, 55, 30
1, 218090, Note_on_c, 0, 67, 53
1, 218181, Note_on_c, 0, 67, 0
1, 218287, Note_on_c, 0, 79, 57
1, 218464, Note_on_c, 0, 78, 52
1, 218488, Note_on_c, 0, 79, 0
1, 218541, Note_on_c, 0, 60, 0
1, 218551, Note_on_c, 0, 63, 0
1, 218556, Note_on_c, 0, 55, 0
1, 218642, Note_on_c, 0, 77, 73
1, 218671, Note_on_c, 0, 78, 0
1, 218820, Note_on_c, 0, 77, 0
1, 218820, Note_on_c, 0, 76, 80
1, 218997, Note_on_c, 0, 75, 70
1, 219055, Note_on_c, 0, 76, 0
1, 219170, Note_on_c, 0, 74, 76
1, 219184, Note_on_c, 0, 75, 0
1, 219237, Note_on_c, 0, 74, 0
1, 219367, Note_on_c, 0, 63, 38
1, 219381, Note_on_c, 0, 74, 65
1, 219396, Note_on_c, 0, 55, 23
1, 219602, Note_on_c, 0, 63, 0
1, 219645, Note_on_c, 0, 72, 75
1, 219645, Note_on_c, 0, 67, 37
1, 219693, Note_on_c, 0, 74, 0
1, 219741, Note_on_c, 0, 72, 0
1, 219775, Note_on_c, 0, 67, 0
1, 219837, Note_on_c, 0, 72, 67
1, 219866, Note_on_c, 0, 63, 50
1, 219938, Note_on_c, 0, 63, 0
1, 220044, Note_on_c, 0, 67, 54
1, 220149, Note_on_c, 0, 67, 0
1, 220236, Note_on_c, 0, 65, 60
1, 220380, Note_on_c, 0, 65, 0
1, 220404, Note_on_c, 0, 67, 51
1, 220519, Note_on_c, 0, 67, 0
1, 220586, Note_on_c, 0, 75, 47
1, 220600, Note_on_c, 0, 65, 48
1, 220605, Note_on_c, 0, 72, 0
1, 220610, Note_on_c, 0, 71, 29
1, 220653, Note_on_c, 0, 55, 0
1, 220802, Note_on_c, 0, 65, 0
1, 220802, Note_on_c, 0, 74, 51
1, 220802, Note_on_c, 0, 67, 42
1, 220807, Note_on_c, 0, 75, 0
1, 220831, Note_on_c, 0, 71, 0
1, 220874, Note_on_c, 0, 67, 0
1, 221042, Note_on_c, 0, 60, 43
1, 221047, Note_on_c, 0, 74, 0
1, 221052, Note_on_c, 0, 72, 51
1, 221239, Note_on_c, 0, 67, 51
1, 221316, Note_on_c, 0, 67, 0
1, 221397, Note_on_c, 0, 63, 44
1, 221407, Note_on_c, 0, 72, 0
1, 221503, Note_on_c, 0, 63, 0
1, 221570, Note_on_c, 0, 72, 81
1, 221594, Note_on_c, 0, 67, 48
1, 221647, Note_on_c, 0, 60, 0
1, 221700, Note_on_c, 0, 67, 0
1, 221748, Note_on_c, 0, 73, 73
1, 221767, Note_on_c, 0, 72, 0
1, 221776, Note_on_c, 0, 59, 38
1, 221944, Note_on_c, 0, 67, 54
1, 221954, Note_on_c, 0, 74, 57
1, 221964, Note_on_c, 0, 73, 0
1, 222016, Note_on_c, 0, 67, 0
1, 222093, Note_on_c, 0, 74, 0
1, 222146, Note_on_c, 0, 65, 49
1, 222276, Note_on_c, 0, 74, 76
1, 222295, Note_on_c, 0, 65, 0
1, 222314, Note_on_c, 0, 67, 59
1, 222357, Note_on_c, 0, 59, 0
1, 222448, Note_on_c, 0, 67, 0
1, 222472, Note_on_c, 0, 77, 77
1, 222487, Note_on_c, 0, 74, 0
1, 222487, Note_on_c, 0, 60, 52
1, 222660, Note_on_c, 0, 67, 42
1, 222660, Note_on_c, 0, 75, 43
1, 222679, Note_on_c, 0, 77, 0
1, 222780, Note_on_c, 0, 67, 0
1, 222789, Note_on_c, 0, 75, 0
1, 222842, Note_on_c, 0, 63, 50
1, 222938, Note_on_c, 0, 63, 0
1, 222996, Note_on_c, 0, 75, 70
1, 223015, Note_on_c, 0, 67, 48
1, 223020, Note_on_c, 0, 60, 0
1, 223072, Note_on_c, 0, 67, 0
1, 223178, Note_on_c, 0, 50, 79
1, 223183, Note_on_c, 0, 76, 88
1, 223231, Note_on_c, 0, 75, 0
1, 223360, Note_on_c, 0, 59, 42
1, 223370, Note_on_c, 0, 77, 70
1, 223380, Note_on_c, 0, 76, 0
1, 223490, Note_on_c, 0, 77, 0
1, 223490, Note_on_c, 0, 59, 0
1, 223533, Note_on_c, 0, 53, 67
1, 223591, Note_on_c, 0, 50, 0
1, 223701, Note_on_c, 0, 59, 53
1, 223706, Note_on_c, 0, 77, 100
1, 223778, Note_on_c, 0, 53, 0
1, 223888, Note_on_c, 0, 59, 0
1, 223888, Note_on_c, 0, 78, 90
1, 223898, Note_on_c, 0, 77, 0
1, 223898, Note_on_c, 0, 51, 59
1, 224080, Note_on_c, 0, 60, 47
1, 224085, Note_on_c, 0, 79, 79
1, 224114, Note_on_c, 0, 78, 0
1, 224157, Note_on_c, 0, 60, 0
1, 224181, Note_on_c, 0, 79, 0
1, 224205, Note_on_c, 0, 51, 0
1, 224239, Note_on_c, 0, 52, 69
1, 224388, Note_on_c, 0, 60, 67
1, 224388, Note_on_c, 0, 79, 103
1, 224532, Note_on_c, 0, 60, 0
1, 224565, Note_on_c, 0, 79, 0
1, 224570, Note_on_c, 0, 52, 0
1, 224580, Note_on_c, 0, 82, 100
1, 224589, Note_on_c, 0, 53, 65
1, 224767, Note_on_c, 0, 60, 51
1, 224772, Note_on_c, 0, 82, 0
1, 224772, Note_on_c, 0, 80, 83
1, 224872, Note_on_c, 0, 60, 0
1, 224872, Note_on_c, 0, 53, 0
1, 224916, Note_on_c, 0, 80, 0
1, 224935, Note_on_c, 0, 54, 59
1, 225117, Note_on_c, 0, 63, 51
1, 225117, Note_on_c, 0, 84, 88
1, 225208, Note_on_c, 0, 54, 0
1, 225237, Note_on_c, 0, 84, 0
1, 225285, Note_on_c, 0, 63, 0
1, 225391, Note_on_c, 0, 84, 83
1, 225410, Note_on_c, 0, 55, 35
1, 225636, Note_on_c, 0, 63, 33
1, 225645, Note_on_c, 0, 84, 0
1, 225655, Note_on_c, 0, 72, 79
1, 225765, Note_on_c, 0, 72, 0
1, 225804, Note_on_c, 0, 63, 0
1, 225876, Note_on_c, 0, 72, 65
1, 225895, Note_on_c, 0, 60, 34
1, 225986, Note_on_c, 0, 55, 0
1, 226005, Note_on_c, 0, 60, 0
1, 226072, Note_on_c, 0, 63, 53
1, 226164, Note_on_c, 0, 63, 0
1, 226236, Note_on_c, 0, 55, 55
1, 226418, Note_on_c, 0, 65, 59
1, 226567, Note_on_c, 0, 65, 0
1, 226576, Note_on_c, 0, 75, 67
1, 226605, Note_on_c, 0, 72, 0
1, 226610, Note_on_c, 0, 59, 40
1, 226668, Note_on_c, 0, 59, 0
1, 226759, Note_on_c, 0, 74, 88
1, 226773, Note_on_c, 0, 65, 50
1, 226778, Note_on_c, 0, 75, 0
1, 226792, Note_on_c, 0, 55, 0
1, 226831, Note_on_c, 0, 65, 0
1, 226869, Note_on_c, 0, 74, 0
1, 226932, Note_on_c, 0, 72, 106
1, 226941, Note_on_c, 0, 48, 106
1, 226989, Note_on_c, 0, 72, 0
1, 227124, Note_on_c, 0, 72, 100
1, 227124, Note_on_c, 0, 55, 75
1, 227152, Note_on_c, 0, 72, 0
1, 227253, Note_on_c, 0, 55, 0
1, 227272, Note_on_c, 0, 74, 90
1, 227306, Note_on_c, 0, 74, 0
1, 227306, Note_on_c, 0, 51, 71
1, 227316, Note_on_c, 0, 72, 101
1, 227349, Note_on_c, 0, 72, 0
1, 227373, Note_on_c, 0, 74, 92
1, 227431, Note_on_c, 0, 72, 82
1, 227464, Note_on_c, 0, 55, 71
1, 227474, Note_on_c, 0, 74, 0
1, 227498, Note_on_c, 0, 71, 75
1, 227512, Note_on_c, 0, 72, 0
1, 227584, Note_on_c, 0, 72, 103
1, 227589, Note_on_c, 0, 55, 0
1, 227599, Note_on_c, 0, 71, 0
1, 227618, Note_on_c, 0, 51, 0
1, 227628, Note_on_c, 0, 74, 105
1, 227637, Note_on_c, 0, 72, 0
1, 227642, Note_on_c, 0, 48, 0
1, 227642, Note_on_c, 0, 47, 76
1, 227676, Note_on_c, 0, 74, 0
1, 227805, Note_on_c, 0, 55, 84
1, 227820, Note_on_c, 0, 74, 99
1, 227848, Note_on_c, 0, 74, 0
1, 227935, Note_on_c, 0, 55, 0
1, 227959, Note_on_c, 0, 75, 84
1, 227988, Note_on_c, 0, 53, 71
1, 228012, Note_on_c, 0, 75, 0
1, 228016, Note_on_c, 0, 74, 88
1, 228055, Note_on_c, 0, 74, 0
1, 228074, Note_on_c, 0, 75, 84
1, 228127, Note_on_c, 0, 74, 85
1, 228160, Note_on_c, 0, 55, 73
1, 228170, Note_on_c, 0, 75, 0
1, 228189, Note_on_c, 0, 72, 76
1, 228208, Note_on_c, 0, 74, 0
1, 228213, Note_on_c, 0, 47, 0
1, 228256, Note_on_c, 0, 74, 76
1, 228271, Note_on_c, 0, 72, 0
1, 228290, Note_on_c, 0, 55, 0
1, 228309, Note_on_c, 0, 53, 0
1, 228324, Note_on_c, 0, 75, 95
1, 228333, Note_on_c, 0, 48, 89
1, 228343, Note_on_c, 0, 74, 0
1, 228381, Note_on_c, 0, 75, 0
1, 228496, Note_on_c, 0, 75, 83
1, 228501, Note_on_c, 0, 55, 73
1, 228535, Note_on_c, 0, 75, 0
1, 228640, Note_on_c, 0, 55, 0
1, 228650, Note_on_c, 0, 77, 97
1, 228655, Note_on_c, 0, 51, 74
1, 228698, Note_on_c, 0, 77, 0
1, 228703, Note_on_c, 0, 75, 79
1, 228746, Note_on_c, 0, 75, 0
1, 228765, Note_on_c, 0, 77, 95
1, 228808, Note_on_c, 0, 75, 79
1, 228818, Note_on_c, 0, 55, 70
1, 228847, Note_on_c, 0, 77, 0
1, 228876, Note_on_c, 0, 48, 0
1, 228885, Note_on_c, 0, 74, 90
1, 228900, Note_on_c, 0, 75, 0
1, 228938, Note_on_c, 0, 74, 0
1, 228952, Note_on_c, 0, 75, 75
1, 228986, Note_on_c, 0, 55, 0
1, 228991, Note_on_c, 0, 77, 103
1, 229005, Note_on_c, 0, 50, 88
1, 229010, Note_on_c, 0, 75, 0
1, 229015, Note_on_c, 0, 51, 0
1, 229077, Note_on_c, 0, 77, 0
1, 229159, Note_on_c, 0, 77, 100
1, 229173, Note_on_c, 0, 59, 75
1, 229207, Note_on_c, 0, 77, 0
1, 229298, Note_on_c, 0, 59, 0
1, 229303, Note_on_c, 0, 79, 97
1, 229341, Note_on_c, 0, 55, 75
1, 229346, Note_on_c, 0, 79, 0
1, 229356, Note_on_c, 0, 77, 92
1, 229394, Note_on_c, 0, 77, 0
1, 229413, Note_on_c, 0, 79, 98
1, 229442, Note_on_c, 0, 55, 0
1, 229456, Note_on_c, 0, 79, 0
1, 229456, Note_on_c, 0, 77, 89
1, 229485, Note_on_c, 0, 59, 61
1, 229519, Note_on_c, 0, 75, 86
1, 229528, Note_on_c, 0, 77, 0
1, 229543, Note_on_c, 0, 59, 0
1, 229605, Note_on_c, 0, 77, 101
1, 229610, Note_on_c, 0, 50, 0
1, 229615, Note_on_c, 0, 75, 0
1, 229687, Note_on_c, 0, 79, 106
1, 229687, Note_on_c, 0, 60, 87
1, 229692, Note_on_c, 0, 51, 79
1, 229720, Note_on_c, 0, 77, 0
1, 229816, Note_on_c, 0, 84, 107
1, 229831, Note_on_c, 0, 79, 0
1, 229946, Note_on_c, 0, 82, 108
1, 229965, Note_on_c, 0, 84, 0
1, 230052, Note_on_c, 0, 80, 100
1, 230095, Note_on_c, 0, 82, 0
1, 230167, Note_on_c, 0, 79, 98
1, 230200, Note_on_c, 0, 80, 0
1, 230287, Note_on_c, 0, 79, 0
1, 230287, Note_on_c, 0, 77, 95
1, 230402, Note_on_c, 0, 75, 94
1, 230412, Note_on_c, 0, 77, 0
1, 230532, Note_on_c, 0, 74, 94
1, 230551, Note_on_c, 0, 75, 0
1, 230647, Note_on_c, 0, 74, 0
1, 230652, Note_on_c, 0, 51, 0
1, 230652, Note_on_c, 0, 72, 93
1, 230724, Note_on_c, 0, 52, 88
1, 230767, Note_on_c, 0, 70, 101
1, 230800, Note_on_c, 0, 72, 0
1, 230887, Note_on_c, 0, 68, 88
1, 230935, Note_on_c, 0, 70, 0
1, 230988, Note_on_c, 0, 67, 95
1, 231016, Note_on_c, 0, 68, 0
1, 231055, Note_on_c, 0, 52, 0
1, 231122, Note_on_c, 0, 67, 0
1, 231122, Note_on_c, 0, 68, 96
1, 231127, Note_on_c, 0, 53, 86
1, 231199, Note_on_c, 0, 68, 0
1, 231237, Note_on_c, 0, 53, 0
1, 231328, Note_on_c, 0, 60, 0
1, 231468, Note_on_c, 0, 80, 97
1, 231468, Note_on_c, 0, 77, 99
1, 231468, Note_on_c, 0, 72, 103
1, 231472, Note_on_c, 0, 53, 94
1, 231568, Note_on_c, 0, 53, 0
1, 231578, Note_on_c, 0, 77, 0
1, 231616, Note_on_c, 0, 72, 0
1, 231640, Note_on_c, 0, 80, 0
1, 231837, Note_on_c, 0, 72, 104
1, 231837, Note_on_c, 0, 79, 105
1, 231847, Note_on_c, 0, 55, 86
1, 231847, Note_on_c, 0, 75, 78
1, 231885, Note_on_c, 0, 79, 0
1, 231890, Note_on_c, 0, 75, 0
1, 231890, Note_on_c, 0, 72, 0
1, 231909, Note_on_c, 0, 55, 0
1, 232207, Note_on_c, 0, 62, 92
1, 232216, Note_on_c, 0, 65, 91
1, 232216, Note_on_c, 0, 71, 85
1, 232221, Note_on_c, 0, 43, 81
1, 232274, Note_on_c, 0, 43, 0
1, 232336, Note_on_c, 0, 71, 0
1, 232341, Note_on_c, 0, 65, 0
1, 232351, Note_on_c, 0, 62, 0
1, 232600, Note_on_c, 0, 63, 90
1, 232605, Note_on_c, 0, 72, 99
1, 232605, Note_on_c, 0, 48, 90
1, 232639, Note_on_c, 0, 63, 0
1, 232644, Note_on_c, 0, 48, 0
1, 232687, Note_on_c, 0, 72, 0
1, 232989, Note_on_c, 0, 79, 79
1, 233100, Note_on_c, 0, 79, 0
1, 233104, Note_on_c, 0, 78, 79
1, 233220, Note_on_c, 0, 80, 77
1, 233224, Note_on_c, 0, 78, 0
1, 233344, Note_on_c, 0, 79, 83
1, 233383, Note_on_c, 0, 80, 0
1, 233460, Note_on_c, 0, 79, 0
1, 233474, Note_on_c, 0, 77, 73
1, 233599, Note_on_c, 0, 75, 59
1, 233608, Note_on_c, 0, 77, 0
1, 233695, Note_on_c, 0, 75, 0
1, 233695, Note_on_c, 0, 63, 61
1, 233695, Note_on_c, 0, 60, 61
1, 233709, Note_on_c, 0, 74, 73
1, 233772, Note_on_c, 0, 74, 0
1, 233805, Note_on_c, 0, 75, 65
1, 233877, Note_on_c, 0, 60, 0
1, 233925, Note_on_c, 0, 72, 80
1, 233940, Note_on_c, 0, 63, 0
1, 233944, Note_on_c, 0, 75, 0
1, 234055, Note_on_c, 0, 72, 0
1, 234060, Note_on_c, 0, 71, 65
1, 234074, Note_on_c, 0, 65, 48
1, 234074, Note_on_c, 0, 62, 46
1, 234088, Note_on_c, 0, 55, 44
1, 234396, Note_on_c, 0, 65, 0
1, 234434, Note_on_c, 0, 55, 0
1, 234453, Note_on_c, 0, 71, 0
1, 234453, Note_on_c, 0, 77, 81
1, 234458, Note_on_c, 0, 62, 0
1, 234516, Note_on_c, 0, 77, 0
1, 234568, Note_on_c, 0, 76, 84
1, 234669, Note_on_c, 0, 76, 0
1, 234679, Note_on_c, 0, 79, 83
1, 234794, Note_on_c, 0, 77, 79
1, 234799, Note_on_c, 0, 79, 0
1, 234895, Note_on_c, 0, 75, 74
1, 234900, Note_on_c, 0, 77, 0
1, 235020, Note_on_c, 0, 75, 0
1, 235020, Note_on_c, 0, 74, 72
1, 235106, Note_on_c, 0, 74, 0
1, 235135, Note_on_c, 0, 72, 70
1, 235135, Note_on_c, 0, 55, 48
1, 235140, Note_on_c, 0, 65, 43
1, 235149, Note_on_c, 0, 62, 39
1, 235226, Note_on_c, 0, 62, 0
1, 235230, Note_on_c, 0, 72, 0
1, 235255, Note_on_c, 0, 55, 0
1, 235260, Note_on_c, 0, 71, 53
1, 235274, Note_on_c, 0, 65, 0
1, 235345, Note_on_c, 0, 71, 0
1, 235375, Note_on_c, 0, 74, 63
1, 235432, Note_on_c, 0, 74, 0
1, 235514, Note_on_c, 0, 63, 38
1, 235524, Note_on_c, 0, 72, 55
1, 235524, Note_on_c, 0, 60, 42
1, 235884, Note_on_c, 0, 79, 61
1, 235898, Note_on_c, 0, 72, 0
1, 235922, Note_on_c, 0, 63, 0
1, 235975, Note_on_c, 0, 79, 0
1, 235989, Note_on_c, 0, 78, 71
1, 235999, Note_on_c, 0, 60, 0
1, 236109, Note_on_c, 0, 80, 78
1, 236133, Note_on_c, 0, 78, 0
1, 236234, Note_on_c, 0, 79, 87
1, 236272, Note_on_c, 0, 80, 0
1, 236335, Note_on_c, 0, 79, 0
1, 236354, Note_on_c, 0, 77, 91
1, 236474, Note_on_c, 0, 75, 82
1, 236488, Note_on_c, 0, 77, 0
1, 236556, Note_on_c, 0, 51, 88
1, 236565, Note_on_c, 0, 48, 83
1, 236575, Note_on_c, 0, 74, 99
1, 236584, Note_on_c, 0, 75, 0
1, 236623, Note_on_c, 0, 48, 0
1, 236666, Note_on_c, 0, 51, 0
1, 236685, Note_on_c, 0, 75, 77
1, 236709, Note_on_c, 0, 74, 0
1, 236781, Note_on_c, 0, 75, 0
1, 236781, Note_on_c, 0, 72, 103
1, 236882, Note_on_c, 0, 72, 0
1, 236887, Note_on_c, 0, 53, 109
1, 236887, Note_on_c, 0, 43, 101
1, 236892, Note_on_c, 0, 80, 104
1, 236892, Note_on_c, 0, 50, 105
1, 236896, Note_on_c, 0, 47, 90
1, 237007, Note_on_c, 0, 79, 101
1, 237036, Note_on_c, 0, 80, 0
1, 237108, Note_on_c, 0, 79, 0
1, 237122, Note_on_c, 0, 77, 100
1, 237213, Note_on_c, 0, 75, 100
1, 237252, Note_on_c, 0, 77, 0
1, 237333, Note_on_c, 0, 74, 105
1, 237376, Note_on_c, 0, 75, 0
1, 237429, Note_on_c, 0, 72, 103
1, 237439, Note_on_c, 0, 74, 0
1, 237540, Note_on_c, 0, 71, 93
1, 237549, Note_on_c, 0, 72, 0
1, 237655, Note_on_c, 0, 68, 97
1, 237698, Note_on_c, 0, 71, 0
1, 237756, Note_on_c, 0, 67, 94
1, 237823, Note_on_c, 0, 68, 0
1, 237866, Note_on_c, 0, 65, 100
1, 237876, Note_on_c, 0, 67, 0
1, 237924, Note_on_c, 0, 50, 0
1, 237928, Note_on_c, 0, 47, 0
1, 237928, Note_on_c, 0, 53, 0
1, 237967, Note_on_c, 0, 43, 0
1, 237972, Note_on_c, 0, 63, 88
1, 237981, Note_on_c, 0, 65, 0
1, 238068, Note_on_c, 0, 62, 85
1, 238111, Note_on_c, 0, 63, 0
1, 238178, Note_on_c, 0, 62, 0
1, 238183, Note_on_c, 0, 60, 119
1, 238188, Note_on_c, 0, 48, 116
1, 238188, Note_on_c, 0, 36, 112
1, 238624, Note_on_c, 0, 36, 0
1, 238653, Note_on_c, 0, 48, 0
1, 238912, Note_on_c, 0, 51, 104
1, 238912, Note_on_c, 0, 39, 99
1, 238946, Note_on_c, 0, 39, 0
1, 239004, Note_on_c, 0, 51, 0
1, 239148, Note_on_c, 0, 60, 0
1, 239239, Note_on_c, 0, 55, 108
1, 239244, Note_on_c, 0, 43, 104
1, 239287, Note_on_c, 0, 43, 0
1, 239325, Note_on_c, 0, 55, 0
1, 239556, Note_on_c, 0, 72, 116
1, 239565, Note_on_c, 0, 60, 109
1, 239575, Note_on_c, 0, 48, 104
1, 239618, Note_on_c, 0, 48, 0
1, 239661, Note_on_c, 0, 60, 0
1, 239877, Note_on_c, 0, 63, 102
1, 239877, Note_on_c, 0, 51, 95
1, 240151, Note_on_c, 0, 72, 0
1, 240208, Note_on_c, 0, 75, 103
1, 240309, Note_on_c, 0, 75, 0
1, 240444, Note_on_c, 0, 63, 0
1, 240516, Note_on_c, 0, 51, 0
1, 240535, Note_on_c, 0, 79, 111
1, 240684, Note_on_c, 0, 79, 0
1, 240861, Note_on_c, 0, 84, 114
1, 240871, Note_on_c, 0, 44, 109
1, 240871, Note_on_c, 0, 32, 106
1, 241044, Note_on_c, 0, 84, 0
1, 241221, Note_on_c, 0, 87, 100
1, 241303, Note_on_c, 0, 32, 0
1, 241322, Note_on_c, 0, 87, 0
1, 241336, Note_on_c, 0, 44, 0
1, 241548, Note_on_c, 0, 48, 111
1, 241552, Note_on_c, 0, 36, 103
1, 241677, Note_on_c, 0, 36, 0
1, 241701, Note_on_c, 0, 48, 0
1, 241869, Note_on_c, 0, 51, 111
1, 241879, Note_on_c, 0, 39, 100
1, 241975, Note_on_c, 0, 51, 0
1, 241994, Note_on_c, 0, 39, 0
1, 242200, Note_on_c, 0, 68, 108
1, 242205, Note_on_c, 0, 56, 97
1, 242210, Note_on_c, 0, 44, 93
1, 242301, Note_on_c, 0, 44, 0
1, 242306, Note_on_c, 0, 56, 0
1, 242536, Note_on_c, 0, 60, 106
1, 242541, Note_on_c, 0, 68, 0
1, 242541, Note_on_c, 0, 48, 101
1, 242642, Note_on_c, 0, 60, 0
1, 242652, Note_on_c, 0, 48, 0
1, 242844, Note_on_c, 0, 72, 116
1, 243002, Note_on_c, 0, 72, 0
1, 243151, Note_on_c, 0, 75, 108
1, 243319, Note_on_c, 0, 75, 0
1, 243492, Note_on_c, 0, 81, 111
1, 243496, Note_on_c, 0, 42, 117
1, 243501, Note_on_c, 0, 30, 111
1, 243751, Note_on_c, 0, 81, 0
1, 243861, Note_on_c, 0, 84, 106
1, 243914, Note_on_c, 0, 30, 0
1, 243948, Note_on_c, 0, 42, 0
1, 244063, Note_on_c, 0, 84, 0
1, 244197, Note_on_c, 0, 45, 114
1, 244197, Note_on_c, 0, 33, 111
1, 244255, Note_on_c, 0, 33, 0
1, 244303, Note_on_c, 0, 45, 0
1, 244495, Note_on_c, 0, 84, 106
1, 244495, Note_on_c, 0, 36, 96
1, 244500, Note_on_c, 0, 48, 111
1, 244581, Note_on_c, 0, 87, 100
1, 244586, Note_on_c, 0, 84, 0
1, 244586, Note_on_c, 0, 36, 0
1, 244586, Note_on_c, 0, 48, 0
1, 244677, Note_on_c, 0, 84, 86
1, 244749, Note_on_c, 0, 87, 0
1, 244773, Note_on_c, 0, 54, 98
1, 244778, Note_on_c, 0, 81, 103
1, 244778, Note_on_c, 0, 42, 95
1, 244792, Note_on_c, 0, 84, 0
1, 244831, Note_on_c, 0, 81, 0
1, 244850, Note_on_c, 0, 42, 0
1, 244864, Note_on_c, 0, 84, 102
1, 244869, Note_on_c, 0, 54, 0
1, 244970, Note_on_c, 0, 81, 98
1, 245028, Note_on_c, 0, 84, 0
1, 245066, Note_on_c, 0, 57, 105
1, 245066, Note_on_c, 0, 78, 97
1, 245066, Note_on_c, 0, 45, 105
1, 245090, Note_on_c, 0, 81, 0
1, 245143, Note_on_c, 0, 45, 0
1, 245152, Note_on_c, 0, 81, 103
1, 245186, Note_on_c, 0, 57, 0
1, 245191, Note_on_c, 0, 78, 0
1, 245244, Note_on_c, 0, 78, 94
1, 245306, Note_on_c, 0, 81, 0
1, 245364, Note_on_c, 0, 75, 96
1, 245364, Note_on_c, 0, 60, 105
1, 245373, Note_on_c, 0, 48, 103
1, 245388, Note_on_c, 0, 78, 0
1, 245431, Note_on_c, 0, 48, 0
1, 245436, Note_on_c, 0, 78, 103
1, 245460, Note_on_c, 0, 60, 0
1, 245460, Note_on_c, 0, 75, 0
1, 245551, Note_on_c, 0, 75, 76
1, 245608, Note_on_c, 0, 78, 0
1, 245656, Note_on_c, 0, 72, 97
1, 245661, Note_on_c, 0, 75, 0
1, 245671, Note_on_c, 0, 63, 96
1, 245676, Note_on_c, 0, 51, 95
1, 245709, Note_on_c, 0, 51, 0
1, 245714, Note_on_c, 0, 63, 0
1, 245748, Note_on_c, 0, 75, 85
1, 245762, Note_on_c, 0, 72, 0
1, 245844, Note_on_c, 0, 72, 84
1, 245916, Note_on_c, 0, 75, 0
1, 245992, Note_on_c, 0, 72, 0
1, 246002, Note_on_c, 0, 67, 108
1, 246016, Note_on_c, 0, 55, 82
1, 246122, Note_on_c, 0, 60, 69
1, 246151, Note_on_c, 0, 67, 0
1, 246165, Note_on_c, 0, 55, 0
1, 246204, Note_on_c, 0, 60, 0
1, 246247, Note_on_c, 0, 63, 58
1, 246314, Note_on_c, 0, 63, 0
1, 246396, Note_on_c, 0, 79, 112
1, 246444, Note_on_c, 0, 55, 40
1, 246501, Note_on_c, 0, 55, 0
1, 246520, Note_on_c, 0, 60, 50
1, 246588, Note_on_c, 0, 60, 0
1, 246597, Note_on_c, 0, 63, 52
1, 246703, Note_on_c, 0, 63, 0
1, 246727, Note_on_c, 0, 55, 69
1, 246842, Note_on_c, 0, 60, 77
1, 246847, Note_on_c, 0, 55, 0
1, 246904, Note_on_c, 0, 60, 0
1, 246962, Note_on_c, 0, 63, 66
1, 247039, Note_on_c, 0, 63, 0
1, 247058, Note_on_c, 0, 77, 98
1, 247087, Note_on_c, 0, 79, 0
1, 247096, Note_on_c, 0, 55, 41
1, 247140, Note_on_c, 0, 75, 88
1, 247154, Note_on_c, 0, 55, 0
1, 247159, Note_on_c, 0, 77, 0
1, 247164, Note_on_c, 0, 60, 67
1, 247216, Note_on_c, 0, 74, 94
1, 247231, Note_on_c, 0, 60, 0
1, 247260, Note_on_c, 0, 75, 0
1, 247260, Note_on_c, 0, 63, 61
1, 247298, Note_on_c, 0, 72, 101
1, 247312, Note_on_c, 0, 74, 0
1, 247360, Note_on_c, 0, 72, 0
1, 247360, Note_on_c, 0, 63, 0
1, 247380, Note_on_c, 0, 75, 97
1, 247394, Note_on_c, 0, 55, 69
1, 247442, Note_on_c, 0, 75, 0
1, 247461, Note_on_c, 0, 74, 87
1, 247495, Note_on_c, 0, 55, 0
1, 247495, Note_on_c, 0, 59, 42
1, 247509, Note_on_c, 0, 74, 0
1, 247509, Note_on_c, 0, 75, 89
1, 247552, Note_on_c, 0, 59, 0
1, 247552, Note_on_c, 0, 75, 0
1, 247572, Note_on_c, 0, 74, 89
1, 247600, Note_on_c, 0, 65, 63
1, 247610, Note_on_c, 0, 74, 0
1, 247624, Note_on_c, 0, 75, 84
1, 247668, Note_on_c, 0, 65, 0
1, 247696, Note_on_c, 0, 74, 71
1, 247711, Note_on_c, 0, 75, 0
1, 247725, Note_on_c, 0, 55, 59
1, 247764, Note_on_c, 0, 75, 66
1, 247768, Note_on_c, 0, 74, 0
1, 247783, Note_on_c, 0, 55, 0
1, 247812, Note_on_c, 0, 75, 0
1, 247826, Note_on_c, 0, 59, 43
1, 247836, Note_on_c, 0, 74, 79
1, 247874, Note_on_c, 0, 74, 0
1, 247884, Note_on_c, 0, 59, 0
1, 247884, Note_on_c, 0, 75, 75
1, 247936, Note_on_c, 0, 65, 66
1, 247941, Note_on_c, 0, 74, 85
1, 247946, Note_on_c, 0, 75, 0
1, 247994, Note_on_c, 0, 65, 0
1, 248013, Note_on_c, 0, 74, 0
1, 248018, Note_on_c, 0, 75, 84
1, 248052, Note_on_c, 0, 55, 58
1, 248085, Note_on_c, 0, 75, 0
1, 248095, Note_on_c, 0, 74, 88
1, 248104, Note_on_c, 0, 55, 0
1, 248138, Note_on_c, 0, 74, 0
1, 248148, Note_on_c, 0, 59, 44
1, 248152, Note_on_c, 0, 75, 79
1, 248205, Note_on_c, 0, 59, 0
1, 248210, Note_on_c, 0, 75, 0
1, 248215, Note_on_c, 0, 74, 83
1, 248253, Note_on_c, 0, 65, 54
1, 248263, Note_on_c, 0, 74, 0
1, 248277, Note_on_c, 0, 75, 85
1, 248316, Note_on_c, 0, 65, 0
1, 248349, Note_on_c, 0, 75, 0
1, 248349, Note_on_c, 0, 74, 74
1, 248368, Note_on_c, 0, 55, 56
1, 248407, Note_on_c, 0, 74, 0
1, 248426, Note_on_c, 0, 75, 81
1, 248450, Note_on_c, 0, 59, 48
1, 248488, Note_on_c, 0, 74, 81
1, 248498, Note_on_c, 0, 75, 0
1, 248522, Note_on_c, 0, 59, 0
1, 248532, Note_on_c, 0, 74, 0
1, 248536, Note_on_c, 0, 72, 83
1, 248623, Note_on_c, 0, 65, 60
1, 248652, Note_on_c, 0, 72, 0
1, 248652, Note_on_c, 0, 74, 63
1, 248690, Note_on_c, 0, 65, 0
1, 248748, Note_on_c, 0, 74, 0
1, 248839, Note_on_c, 0, 60, 69
1, 248911, Note_on_c, 0, 55, 0
1, 248983, Note_on_c, 0, 72, 63
1, 249103, Note_on_c, 0, 84, 60
1, 249122, Note_on_c, 0, 72, 0
1, 249194, Note_on_c, 0, 84, 0
1, 249223, Note_on_c, 0, 59, 44
1, 249247, Note_on_c, 0, 60, 0
1, 249352, Note_on_c, 0, 71, 41
1, 249487, Note_on_c, 0, 71, 0
1, 249496, Note_on_c, 0, 83, 36
1, 249597, Note_on_c, 0, 60, 43
1, 249616, Note_on_c, 0, 83, 0
1, 249631, Note_on_c, 0, 59, 0
1, 249698, Note_on_c, 0, 72, 64
1, 249808, Note_on_c, 0, 72, 0
1, 249813, Note_on_c, 0, 84, 70
1, 249861, Note_on_c, 0, 84, 0
1, 249943, Note_on_c, 0, 55, 83
1, 250072, Note_on_c, 0, 67, 73
1, 250087, Note_on_c, 0, 60, 0
1, 250173, Note_on_c, 0, 79, 80
1, 250183, Note_on_c, 0, 67, 0
1, 250255, Note_on_c, 0, 79, 0
1, 250288, Note_on_c, 0, 55, 0
1, 250293, Note_on_c, 0, 56, 62
1, 250418, Note_on_c, 0, 68, 58
1, 250543, Note_on_c, 0, 80, 49
1, 250610, Note_on_c, 0, 80, 0
1, 250615, Note_on_c, 0, 68, 0
1, 250653, Note_on_c, 0, 55, 48
1, 250663, Note_on_c, 0, 56, 0
1, 250788, Note_on_c, 0, 67, 59
1, 250888, Note_on_c, 0, 67, 0
1, 250898, Note_on_c, 0, 79, 54
1, 250989, Note_on_c, 0, 79, 0
1, 250999, Note_on_c, 0, 56, 48
1, 251018, Note_on_c, 0, 55, 0
1, 251114, Note_on_c, 0, 68, 62
1, 251220, Note_on_c, 0, 68, 0
1, 251220, Note_on_c, 0, 80, 61
1, 251263, Note_on_c, 0, 80, 0
1, 251340, Note_on_c, 0, 51, 81
1, 251445, Note_on_c, 0, 56, 0
1, 251464, Note_on_c, 0, 63, 70
1, 251584, Note_on_c, 0, 75, 61
1, 251604, Note_on_c, 0, 63, 0
1, 251656, Note_on_c, 0, 75, 0
1, 251700, Note_on_c, 0, 53, 69
1, 251805, Note_on_c, 0, 65, 63
1, 251810, Note_on_c, 0, 51, 0
1, 251925, Note_on_c, 0, 65, 0
1, 251940, Note_on_c, 0, 77, 28
1, 252016, Note_on_c, 0, 77, 0
1, 252036, Note_on_c, 0, 54, 55
1, 252170, Note_on_c, 0, 66, 50
1, 252189, Note_on_c, 0, 53, 0
1, 252271, Note_on_c, 0, 78, 50
1, 252333, Note_on_c, 0, 66, 0
1, 252352, Note_on_c, 0, 78, 0
1, 252396, Note_on_c, 0, 55, 47
1, 252429, Note_on_c, 0, 54, 0
1, 252492, Note_on_c, 0, 67, 52
1, 252544, Note_on_c, 0, 67, 0
1, 252592, Note_on_c, 0, 79, 44
1, 252626, Note_on_c, 0, 79, 0
1, 252684, Note_on_c, 0, 55, 0
1, 252741, Note_on_c, 0, 43, 66
1, 252871, Note_on_c, 0, 55, 45
1, 253005, Note_on_c, 0, 55, 0
1, 253005, Note_on_c, 0, 67, 43
1, 253058, Note_on_c, 0, 67, 0
1, 253149, Note_on_c, 0, 48, 74
1, 253216, Note_on_c, 0, 43, 0
1, 253279, Note_on_c, 0, 60, 64
1, 253394, Note_on_c, 0, 72, 61
1, 253447, Note_on_c, 0, 60, 0
1, 253466, Note_on_c, 0, 72, 0
1, 253495, Note_on_c, 0, 47, 57
1, 253538, Note_on_c, 0, 48, 0
1, 253634, Note_on_c, 0, 59, 43
1, 253740, Note_on_c, 0, 71, 43
1, 253764, Note_on_c, 0, 59, 0
1, 253850, Note_on_c, 0, 71, 0
1, 253874, Note_on_c, 0, 48, 50
1, 253888, Note_on_c, 0, 47, 0
1, 253975, Note_on_c, 0, 60, 50
1, 254066, Note_on_c, 0, 60, 0
1, 254066, Note_on_c, 0, 72, 65
1, 254114, Note_on_c, 0, 72, 0
1, 254196, Note_on_c, 0, 43, 91
1, 254320, Note_on_c, 0, 55, 72
1, 254359, Note_on_c, 0, 48, 0
1, 254416, Note_on_c, 0, 67, 78
1, 254436, Note_on_c, 0, 55, 0
1, 254522, Note_on_c, 0, 67, 0
1, 254536, Note_on_c, 0, 44, 61
1, 254556, Note_on_c, 0, 43, 0
1, 254652, Note_on_c, 0, 56, 66
1, 254762, Note_on_c, 0, 68, 50
1, 254834, Note_on_c, 0, 56, 0
1, 254892, Note_on_c, 0, 43, 51
1, 254906, Note_on_c, 0, 44, 0
1, 254935, Note_on_c, 0, 68, 0
1, 255031, Note_on_c, 0, 55, 40
1, 255112, Note_on_c, 0, 55, 0
1, 255141, Note_on_c, 0, 67, 48
1, 255261, Note_on_c, 0, 44, 44
1, 255266, Note_on_c, 0, 67, 0
1, 255280, Note_on_c, 0, 43, 0
1, 255343, Note_on_c, 0, 56, 59
1, 255463, Note_on_c, 0, 56, 0
1, 255463, Note_on_c, 0, 68, 65
1, 255511, Note_on_c, 0, 68, 0
1, 255607, Note_on_c, 0, 39, 76
1, 255732, Note_on_c, 0, 51, 72
1, 255746, Note_on_c, 0, 44, 0
1, 255794, Note_on_c, 0, 58, 32
1, 255828, Note_on_c, 0, 63, 55
1, 255852, Note_on_c, 0, 51, 0
1, 255885, Note_on_c, 0, 58, 0
1, 255895, Note_on_c, 0, 63, 0
1, 255948, Note_on_c, 0, 41, 69
1, 256000, Note_on_c, 0, 39, 0
1, 256048, Note_on_c, 0, 53, 62
1, 256159, Note_on_c, 0, 53, 0
1, 256178, Note_on_c, 0, 65, 35
1, 256255, Note_on_c, 0, 65, 0
1, 256284, Note_on_c, 0, 42, 48
1, 256322, Note_on_c, 0, 41, 0
1, 256408, Note_on_c, 0, 54, 53
1, 256524, Note_on_c, 0, 66, 46
1, 256548, Note_on_c, 0, 54, 0
1, 256591, Note_on_c, 0, 66, 0
1, 256648, Note_on_c, 0, 43, 44
1, 256653, Note_on_c, 0, 42, 0
1, 256744, Note_on_c, 0, 55, 50
1, 256812, Note_on_c, 0, 55, 0
1, 256845, Note_on_c, 0, 67, 75
1, 256884, Note_on_c, 0, 67, 0
1, 256912, Note_on_c, 0, 43, 0
1, 257037, Note_on_c, 0, 31, 69
1, 257181, Note_on_c, 0, 43, 64
1, 257277, Note_on_c, 0, 43, 0
1, 257349, Note_on_c, 0, 55, 53
1, 257436, Note_on_c, 0, 55, 0
1, 257503, Note_on_c, 0, 36, 63
1, 257584, Note_on_c, 0, 31, 0
1, 257642, Note_on_c, 0, 48, 60
1, 257786, Note_on_c, 0, 51, 54
1, 257920, Note_on_c, 0, 51, 0
1, 257944, Note_on_c, 0, 55, 41
1, 258002, Note_on_c, 0, 48, 0
1, 258050, Note_on_c, 0, 51, 39
1, 258069, Note_on_c, 0, 55, 0
1, 258165, Note_on_c, 0, 51, 0
1, 258194, Note_on_c, 0, 48, 41
1, 258300, Note_on_c, 0, 48, 0
1, 258300, Note_on_c, 0, 55, 40
1, 258410, Note_on_c, 0, 51, 52
1, 258420, Note_on_c, 0, 55, 0
1, 258530, Note_on_c, 0, 51, 0
1, 258530, Note_on_c, 0, 48, 54
1, 258602, Note_on_c, 0, 48, 0
1, 258669, Note_on_c, 0, 31, 73
1, 258684, Note_on_c, 0, 53, 47
1, 258732, Note_on_c, 0, 36, 0
1, 258784, Note_on_c, 0, 53, 0
1, 258808, Note_on_c, 0, 50, 61
1, 258919, Note_on_c, 0, 47, 50
1, 258928, Note_on_c, 0, 50, 0
1, 258981, Note_on_c, 0, 47, 0
1, 259044, Note_on_c, 0, 36, 67
1, 259092, Note_on_c, 0, 31, 0
1, 259164, Note_on_c, 0, 43, 65
1, 259293, Note_on_c, 0, 48, 63
1, 259341, Note_on_c, 0, 43, 0
1, 259384, Note_on_c, 0, 48, 0
1, 259413, Note_on_c, 0, 51, 55
1, 259557, Note_on_c, 0, 48, 46
1, 259567, Note_on_c, 0, 51, 0
1, 259653, Note_on_c, 0, 48, 0
1, 259663, Note_on_c, 0, 43, 39
1, 259783, Note_on_c, 0, 51, 49
1, 259812, Note_on_c, 0, 43, 0
1, 259874, Note_on_c, 0, 51, 0
1, 259903, Note_on_c, 0, 48, 43
1, 260013, Note_on_c, 0, 43, 41
1, 260061, Note_on_c, 0, 48, 0
1, 260128, Note_on_c, 0, 43, 0
1, 260181, Note_on_c, 0, 50, 42
1, 260186, Note_on_c, 0, 31, 47
1, 260196, Note_on_c, 0, 36, 0
1, 260330, Note_on_c, 0, 47, 36
1, 260368, Note_on_c, 0, 50, 0
1, 260436, Note_on_c, 0, 43, 47
1, 260498, Note_on_c, 0, 47, 0
1, 260551, Note_on_c, 0, 43, 0
1, 260604, Note_on_c, 0, 31, 0
1, 260647, Note_on_c, 0, 36, 37
1, 260656, Note_on_c, 0, 48, 45
1, 260935, Note_on_c, 0, 36, 0
1, 260944, Note_on_c, 0, 48, 0
1, 261506, Note_on_c, 0, 43, 34
1, 261511, Note_on_c, 0, 48, 30
1, 261515, Note_on_c, 0, 36, 28
1, 261516, Note_on_c, 0, 39, 23
1, 261827, Note_on_c, 0, 36, 0
1, 261847, Note_on_c, 0, 39, 0
1, 261861, Note_on_c, 0, 48, 0
1, 261862, Note_on_c, 0, 43, 0
1, 262596, Note_on_c, 0, 48, 26
1, 262600, Note_on_c, 0, 43, 19
1, 262608, Note_on_c, 0, 36, 16
1, 262620, Note_on_c, 0, 39, 16
1, 265109, Note_on_c, 0, 36, 0
1, 265159, Note_on_c, 0, 43, 0
1, 265168, Note_on_c, 0, 39, 0
1, 265178, Note_on_c, 0, 48, 0
1, 265188, End_track
0, 0, End_of_file