0, 0, Header, 0, 1, 480
1, 0, Start_track
1, 0, Tempo, 500000
1, 0, Note_on_c, 0, 71, 69
1, 42, Note_on_c, 0, 55, 18
1, 348, Note_on_c, 0, 62, 17
1, 498, Note_on_c, 0, 55, 0
1, 546, Note_on_c, 0, 62, 0
1, 592, Note_on_c, 0, 59, 15
1, 780, Note_on_c, 0, 59, 0
1, 790, Note_on_c, 0, 62, 36
1, 966, Note_on_c, 0, 62, 0
1, 1002, Note_on_c, 0, 55, 33
1, 1226, Note_on_c, 0, 62, 31
1, 1364, Note_on_c, 0, 62, 0
1, 1378, Note_on_c, 0, 55, 0
1, 1440, Note_on_c, 0, 59, 33
1, 1652, Note_on_c, 0, 59, 0
1, 1668, Note_on_c, 0, 62, 37
1, 1878, Note_on_c, 0, 62, 0
1, 1916, Note_on_c, 0, 74, 55
1, 1950, Note_on_c, 0, 57, 18
1, 2022, Note_on_c, 0, 71, 0
1, 2172, Note_on_c, 0, 72, 69
1, 2206, Note_on_c, 0, 62, 29
1, 2274, Note_on_c, 0, 74, 0
1, 2378, Note_on_c, 0, 71, 85
1, 2390, Note_on_c, 0, 62, 0
1, 2410, Note_on_c, 0, 60, 33
1, 2444, Note_on_c, 0, 72, 0
1, 2518, Note_on_c, 0, 60, 0
1, 2586, Note_on_c, 0, 72, 81
1, 2618, Note_on_c, 0, 62, 29
1, 2660, Note_on_c, 0, 71, 0
1, 2758, Note_on_c, 0, 62, 0
1, 2822, Note_on_c, 0, 57, 0
1, 2830, Note_on_c, 0, 74, 68
1, 2878, Note_on_c, 0, 55, 23
1, 2896, Note_on_c, 0, 72, 0
1, 3094, Note_on_c, 0, 62, 30
1, 3266, Note_on_c, 0, 62, 0
1, 3320, Note_on_c, 0, 59, 25
1, 3442, Note_on_c, 0, 55, 0
1, 3500, Note_on_c, 0, 71, 51
1, 3576, Note_on_c, 0, 62, 24
1, 3590, Note_on_c, 0, 74, 0
1, 3622, Note_on_c, 0, 59, 0
1, 3676, Note_on_c, 0, 62, 0
1, 3736, Note_on_c, 0, 67, 41
1, 3776, Note_on_c, 0, 55, 28
1, 3826, Note_on_c, 0, 71, 0
1, 3974, Note_on_c, 0, 62, 33
1, 4154, Note_on_c, 0, 62, 0
1, 4182, Note_on_c, 0, 55, 0
1, 4194, Note_on_c, 0, 59, 25
1, 4414, Note_on_c, 0, 62, 32
1, 4432, Note_on_c, 0, 59, 0
1, 4552, Note_on_c, 0, 62, 0
1, 4644, Note_on_c, 0, 55, 28
1, 4720, Note_on_c, 0, 67, 0
1, 4846, Note_on_c, 0, 62, 29
1, 5036, Note_on_c, 0, 62, 0
1, 5068, Note_on_c, 0, 59, 21
1, 5158, Note_on_c, 0, 55, 0
1, 5280, Note_on_c, 0, 59, 0
1, 5296, Note_on_c, 0, 62, 27
1, 5480, Note_on_c, 0, 62, 0
1, 5602, Note_on_c, 0, 55, 20
1, 5608, Note_on_c, 0, 79, 55
1, 5884, Note_on_c, 0, 64, 30
1, 6052, Note_on_c, 0, 64, 0
1, 6118, Note_on_c, 0, 60, 21
1, 6152, Note_on_c, 0, 55, 0
1, 6354, Note_on_c, 0, 64, 29
1, 6376, Note_on_c, 0, 60, 0
1, 6502, Note_on_c, 0, 64, 0
1, 6574, Note_on_c, 0, 55, 29
1, 6778, Note_on_c, 0, 64, 34
1, 6900, Note_on_c, 0, 64, 0
1, 6934, Note_on_c, 0, 55, 0
1, 7034, Note_on_c, 0, 81, 61
1, 7052, Note_on_c, 0, 60, 20
1, 7078, Note_on_c, 0, 79, 0
1, 7260, Note_on_c, 0, 60, 0
1, 7264, Note_on_c, 0, 79, 84
1, 7274, Note_on_c, 0, 64, 33
1, 7350, Note_on_c, 0, 81, 0
1, 7496, Note_on_c, 0, 64, 0
1, 7499, Note_on_c, 0, 78, 72
1, 7528, Note_on_c, 0, 55, 32
1, 7586, Note_on_c, 0, 79, 0
1, 7726, Note_on_c, 0, 76, 66
1, 7744, Note_on_c, 0, 61, 40
1, 7796, Note_on_c, 0, 78, 0
1, 7898, Note_on_c, 0, 61, 0
1, 7932, Note_on_c, 0, 74, 76
1, 7948, Note_on_c, 0, 58, 27
1, 7958, Note_on_c, 0, 76, 0
1, 8038, Note_on_c, 0, 55, 0
1, 8110, Note_on_c, 0, 58, 0
1, 8132, Note_on_c, 0, 73, 71
1, 8162, Note_on_c, 0, 61, 36
1, 8182, Note_on_c, 0, 74, 0
1, 8350, Note_on_c, 0, 61, 0
1, 8416, Note_on_c, 0, 74, 60
1, 8440, Note_on_c, 0, 55, 23
1, 8498, Note_on_c, 0, 73, 0
1, 8708, Note_on_c, 0, 62, 27
1, 8908, Note_on_c, 0, 62, 0
1, 8990, Note_on_c, 0, 59, 20
1, 8992, Note_on_c, 0, 55, 0
1, 9158, Note_on_c, 0, 59, 0
1, 9204, Note_on_c, 0, 71, 49
1, 9246, Note_on_c, 0, 62, 22
1, 9288, Note_on_c, 0, 74, 0
1, 9402, Note_on_c, 0, 62, 0
1, 9458, Note_on_c, 0, 67, 39
1, 9494, Note_on_c, 0, 55, 27
1, 9524, Note_on_c, 0, 71, 0
1, 9708, Note_on_c, 0, 62, 30
1, 9756, Note_on_c, 0, 55, 0
1, 9874, Note_on_c, 0, 62, 0
1, 9930, Note_on_c, 0, 59, 26
1, 10038, Note_on_c, 0, 59, 0
1, 10150, Note_on_c, 0, 62, 26
1, 10338, Note_on_c, 0, 62, 0
1, 10378, Note_on_c, 0, 55, 27
1, 10392, Note_on_c, 0, 67, 0
1, 10578, Note_on_c, 0, 62, 29
1, 10678, Note_on_c, 0, 62, 0
1, 10810, Note_on_c, 0, 59, 18
1, 10950, Note_on_c, 0, 59, 0
1, 11038, Note_on_c, 0, 62, 22
1, 11210, Note_on_c, 0, 62, 0
1, 11248, Note_on_c, 0, 55, 0
1, 11300, Note_on_c, 0, 72, 37
1, 11324, Note_on_c, 0, 57, 14
1, 11584, Note_on_c, 0, 62, 30
1, 11766, Note_on_c, 0, 62, 0
1, 11818, Note_on_c, 0, 60, 24
1, 11910, Note_on_c, 0, 57, 0
1, 12014, Note_on_c, 0, 60, 0
1, 12014, Note_on_c, 0, 69, 34
1, 12052, Note_on_c, 0, 62, 25
1, 12058, Note_on_c, 0, 72, 0
1, 12180, Note_on_c, 0, 62, 0
1, 12183, Note_on_c, 0, 69, 0
1, 12222, Note_on_c, 0, 66, 34
1, 12252, Note_on_c, 0, 57, 26
1, 12448, Note_on_c, 0, 66, 0
1, 12468, Note_on_c, 0, 62, 32
1, 12556, Note_on_c, 0, 62, 0
1, 12642, Note_on_c, 0, 69, 45
1, 12682, Note_on_c, 0, 60, 25
1, 12742, Note_on_c, 0, 57, 0
1, 12854, Note_on_c, 0, 69, 0
1, 12884, Note_on_c, 0, 62, 29
1, 12960, Note_on_c, 0, 60, 0
1, 12980, Note_on_c, 0, 62, 0
1, 13046, Note_on_c, 0, 71, 65
1, 13080, Note_on_c, 0, 57, 26
1, 13228, Note_on_c, 0, 71, 0
1, 13272, Note_on_c, 0, 62, 36
1, 13398, Note_on_c, 0, 62, 0
1, 13456, Note_on_c, 0, 72, 57
1, 13486, Note_on_c, 0, 60, 32
1, 13660, Note_on_c, 0, 72, 0
1, 13690, Note_on_c, 0, 62, 30
1, 13746, Note_on_c, 0, 60, 0
1, 13797, Note_on_c, 0, 62, 0
1, 13838, Note_on_c, 0, 57, 0
1, 13878, Note_on_c, 0, 74, 62
1, 13924, Note_on_c, 0, 55, 20
1, 14110, Note_on_c, 0, 62, 28
1, 14252, Note_on_c, 0, 62, 0
1, 14336, Note_on_c, 0, 59, 21
1, 14532, Note_on_c, 0, 71, 51
1, 14546, Note_on_c, 0, 59, 0
1, 14548, Note_on_c, 0, 74, 0
1, 14562, Note_on_c, 0, 62, 29
1, 14606, Note_on_c, 0, 55, 0
1, 14690, Note_on_c, 0, 62, 0
1, 14794, Note_on_c, 0, 71, 0
1, 14798, Note_on_c, 0, 79, 57
1, 14816, Note_on_c, 0, 52, 43
1, 15006, Note_on_c, 0, 59, 33
1, 15184, Note_on_c, 0, 59, 0
1, 15220, Note_on_c, 0, 55, 38
1, 15348, Note_on_c, 0, 52, 0
1, 15428, Note_on_c, 0, 55, 0
1, 15460, Note_on_c, 0, 59, 38
1, 15606, Note_on_c, 0, 59, 0
1, 15682, Note_on_c, 0, 47, 39
1, 15786, Note_on_c, 0, 79, 0
1, 15890, Note_on_c, 0, 55, 46
1, 16098, Note_on_c, 0, 55, 0
1, 16118, Note_on_c, 0, 50, 47
1, 16216, Note_on_c, 0, 50, 0
1, 16336, Note_on_c, 0, 55, 47
1, 16550, Note_on_c, 0, 55, 0
1, 16656, Note_on_c, 0, 81, 56
1, 16656, Note_on_c, 0, 48, 27
1, 16670, Note_on_c, 0, 52, 41
1, 16738, Note_on_c, 0, 47, 0
1, 16914, Note_on_c, 0, 79, 74
1, 16988, Note_on_c, 0, 81, 0
1, 17118, Note_on_c, 0, 78, 73
1, 17153, Note_on_c, 0, 79, 0
1, 17322, Note_on_c, 0, 79, 81
1, 17352, Note_on_c, 0, 78, 0
1, 17542, Note_on_c, 0, 55, 38
1, 17544, Note_on_c, 0, 78, 73
1, 17590, Note_on_c, 0, 79, 0
1, 17634, Note_on_c, 0, 52, 0
1, 17750, Note_on_c, 0, 76, 66
1, 17782, Note_on_c, 0, 78, 0
1, 17952, Note_on_c, 0, 75, 62
1, 17980, Note_on_c, 0, 76, 0
1, 18148, Note_on_c, 0, 76, 61
1, 18178, Note_on_c, 0, 75, 0
1, 18394, Note_on_c, 0, 74, 54
1, 18424, Note_on_c, 0, 52, 35
1, 18426, Note_on_c, 0, 76, 0
1, 18566, Note_on_c, 0, 48, 0
1, 18608, Note_on_c, 0, 72, 46
1, 18611, Note_on_c, 0, 74, 0
1, 18804, Note_on_c, 0, 72, 0
1, 18812, Note_on_c, 0, 71, 56
1, 19006, Note_on_c, 0, 55, 0
1, 19032, Note_on_c, 0, 72, 56
1, 19050, Note_on_c, 0, 71, 0
1, 19358, Note_on_c, 0, 71, 52
1, 19372, Note_on_c, 0, 52, 0
1, 19375, Note_on_c, 0, 55, 23
1, 19386, Note_on_c, 0, 50, 22
1, 19468, Note_on_c, 0, 72, 0
1, 20186, Note_on_c, 0, 71, 0
1, 20220, Note_on_c, 0, 72, 25
1, 20316, Note_on_c, 0, 72, 0
1, 20334, Note_on_c, 0, 71, 28
1, 20500, Note_on_c, 0, 71, 0
1, 20536, Note_on_c, 0, 54, 22
1, 20538, Note_on_c, 0, 55, 0
1, 20542, Note_on_c, 0, 69, 17
1, 21056, Note_on_c, 0, 74, 38
1, 21096, Note_on_c, 0, 69, 0
1, 21500, Note_on_c, 0, 73, 30
1, 21522, Note_on_c, 0, 50, 0
1, 21548, Note_on_c, 0, 54, 0
1, 21558, Note_on_c, 0, 74, 0
1, 22070, Note_on_c, 0, 72, 22
1, 22086, Note_on_c, 0, 73, 0
1, 22730, Note_on_c, 0, 71, 29
1, 22734, Note_on_c, 0, 72, 0
1, 22746, Note_on_c, 0, 55, 19
1, 23086, Note_on_c, 0, 62, 18
1, 23238, Note_on_c, 0, 62, 0
1, 23330, Note_on_c, 0, 59, 17
1, 23356, Note_on_c, 0, 55, 0
1, 23558, Note_on_c, 0, 59, 0
1, 23574, Note_on_c, 0, 62, 22
1, 23712, Note_on_c, 0, 62, 0
1, 23806, Note_on_c, 0, 55, 32
1, 24018, Note_on_c, 0, 67, 39
1, 24046, Note_on_c, 0, 62, 25
1, 24048, Note_on_c, 0, 71, 0
1, 24190, Note_on_c, 0, 62, 0
1, 24238, Note_on_c, 0, 71, 63
1, 24274, Note_on_c, 0, 67, 0
1, 24284, Note_on_c, 0, 59, 21
1, 24418, Note_on_c, 0, 59, 0
1, 24448, Note_on_c, 0, 74, 70
1, 24476, Note_on_c, 0, 71, 0
1, 24484, Note_on_c, 0, 62, 30
1, 24598, Note_on_c, 0, 62, 0
1, 24656, Note_on_c, 0, 55, 0
1, 24662, Note_on_c, 0, 72, 60
1, 24690, Note_on_c, 0, 57, 20
1, 24726, Note_on_c, 0, 74, 0
1, 24862, Note_on_c, 0, 69, 51
1, 24900, Note_on_c, 0, 62, 29
1, 24924, Note_on_c, 0, 72, 0
1, 25082, Note_on_c, 0, 62, 0
1, 25082, Note_on_c, 0, 72, 55
1, 25130, Note_on_c, 0, 60, 21
1, 25144, Note_on_c, 0, 69, 0
1, 25296, Note_on_c, 0, 76, 49
1, 25318, Note_on_c, 0, 72, 0
1, 25336, Note_on_c, 0, 62, 28
1, 25452, Note_on_c, 0, 60, 0
1, 25512, Note_on_c, 0, 62, 0
1, 25564, Note_on_c, 0, 74, 55
1, 25586, Note_on_c, 0, 57, 0
1, 25606, Note_on_c, 0, 55, 18
1, 25626, Note_on_c, 0, 76, 0
1, 25828, Note_on_c, 0, 62, 23
1, 26014, Note_on_c, 0, 62, 0
1, 26072, Note_on_c, 0, 59, 19
1, 26242, Note_on_c, 0, 55, 0
1, 26300, Note_on_c, 0, 71, 38
1, 26306, Note_on_c, 0, 74, 0
1, 26344, Note_on_c, 0, 62, 19
1, 26442, Note_on_c, 0, 62, 0
1, 26462, Note_on_c, 0, 71, 0
1, 26514, Note_on_c, 0, 67, 40
1, 26544, Note_on_c, 0, 59, 0
1, 26547, Note_on_c, 0, 55, 32
1, 26596, Note_on_c, 0, 67, 0
1, 26734, Note_on_c, 0, 67, 49
1, 26772, Note_on_c, 0, 62, 23
1, 26800, Note_on_c, 0, 67, 0
1, 26878, Note_on_c, 0, 62, 0
1, 26926, Note_on_c, 0, 69, 54
1, 26976, Note_on_c, 0, 59, 25
1, 27010, Note_on_c, 0, 69, 0
1, 27074, Note_on_c, 0, 55, 0
1, 27124, Note_on_c, 0, 71, 82
1, 27170, Note_on_c, 0, 62, 32
1, 27192, Note_on_c, 0, 71, 0
1, 27258, Note_on_c, 0, 62, 0
1, 27312, Note_on_c, 0, 72, 75
1, 27354, Note_on_c, 0, 55, 33
1, 27376, Note_on_c, 0, 59, 0
1, 27440, Note_on_c, 0, 72, 0
1, 27514, Note_on_c, 0, 74, 84
1, 27536, Note_on_c, 0, 62, 36
1, 27630, Note_on_c, 0, 74, 0
1, 27678, Note_on_c, 0, 62, 0
1, 27698, Note_on_c, 0, 76, 78
1, 27712, Note_on_c, 0, 59, 36
1, 27820, Note_on_c, 0, 76, 0
1, 27888, Note_on_c, 0, 78, 84
1, 27894, Note_on_c, 0, 55, 0
1, 27910, Note_on_c, 0, 62, 36
1, 27992, Note_on_c, 0, 78, 0
1, 28042, Note_on_c, 0, 59, 0
1, 28104, Note_on_c, 0, 79, 92
1, 28114, Note_on_c, 0, 62, 0
1, 28134, Note_on_c, 0, 55, 37
1, 28318, Note_on_c, 0, 78, 84
1, 28354, Note_on_c, 0, 79, 0
1, 28360, Note_on_c, 0, 64, 31
1, 28528, Note_on_c, 0, 64, 0
1, 28538, Note_on_c, 0, 79, 95
1, 28574, Note_on_c, 0, 60, 32
1, 28594, Note_on_c, 0, 78, 0
1, 28734, Note_on_c, 0, 78, 81
1, 28776, Note_on_c, 0, 55, 0
1, 28788, Note_on_c, 0, 64, 28
1, 28798, Note_on_c, 0, 79, 0
1, 28898, Note_on_c, 0, 64, 0
1, 28970, Note_on_c, 0, 81, 62
1, 29000, Note_on_c, 0, 55, 17
1, 29010, Note_on_c, 0, 78, 0
1, 29036, Note_on_c, 0, 60, 0
1, 29224, Note_on_c, 0, 79, 64
1, 29232, Note_on_c, 0, 64, 28
1, 29256, Note_on_c, 0, 81, 0
1, 29404, Note_on_c, 0, 64, 0
1, 29432, Note_on_c, 0, 78, 55
1, 29452, Note_on_c, 0, 79, 0
1, 29474, Note_on_c, 0, 60, 22
1, 29628, Note_on_c, 0, 55, 0
1, 29652, Note_on_c, 0, 79, 53
1, 29666, Note_on_c, 0, 78, 0
1, 29686, Note_on_c, 0, 64, 26
1, 29744, Note_on_c, 0, 60, 0
1, 29862, Note_on_c, 0, 78, 52
1, 29882, Note_on_c, 0, 79, 0
1, 29890, Note_on_c, 0, 55, 14
1, 29922, Note_on_c, 0, 64, 0
1, 30068, Note_on_c, 0, 76, 45
1, 30084, Note_on_c, 0, 61, 26
1, 30090, Note_on_c, 0, 78, 0
1, 30270, Note_on_c, 0, 76, 0
1, 30274, Note_on_c, 0, 74, 48
1, 30280, Note_on_c, 0, 61, 0
1, 30280, Note_on_c, 0, 58, 23
1, 30432, Note_on_c, 0, 55, 0
1, 30480, Note_on_c, 0, 73, 46
1, 30500, Note_on_c, 0, 74, 0
1, 30526, Note_on_c, 0, 61, 23
1, 30720, Note_on_c, 0, 74, 43
1, 30728, Note_on_c, 0, 58, 0
1, 30738, Note_on_c, 0, 73, 0
1, 30748, Note_on_c, 0, 55, 28
1, 30756, Note_on_c, 0, 61, 0
1, 30946, Note_on_c, 0, 74, 0
1, 30956, Note_on_c, 0, 71, 40
1, 31004, Note_on_c, 0, 62, 24
1, 31136, Note_on_c, 0, 62, 0
1, 31174, Note_on_c, 0, 71, 0
1, 31184, Note_on_c, 0, 74, 47
1, 31236, Note_on_c, 0, 59, 18
1, 31430, Note_on_c, 0, 74, 0
1, 31432, Note_on_c, 0, 55, 0
1, 31434, Note_on_c, 0, 71, 44
1, 31478, Note_on_c, 0, 62, 23
1, 31582, Note_on_c, 0, 62, 0
1, 31684, Note_on_c, 0, 71, 0
1, 31708, Note_on_c, 0, 67, 23
1, 31722, Note_on_c, 0, 59, 0
1, 31740, Note_on_c, 0, 55, 24
1, 31970, Note_on_c, 0, 62, 21
1, 32118, Note_on_c, 0, 62, 0
1, 32206, Note_on_c, 0, 59, 13
1, 32296, Note_on_c, 0, 55, 0
1, 32422, Note_on_c, 0, 62, 22
1, 32454, Note_on_c, 0, 59, 0
1, 32532, Note_on_c, 0, 62, 0
1, 32644, Note_on_c, 0, 55, 22
1, 32788, Note_on_c, 0, 67, 0
1, 32840, Note_on_c, 0, 62, 24
1, 32962, Note_on_c, 0, 62, 0
1, 33064, Note_on_c, 0, 59, 17
1, 33238, Note_on_c, 0, 59, 0
1, 33286, Note_on_c, 0, 62, 22
1, 33420, Note_on_c, 0, 62, 0
1, 33520, Note_on_c, 0, 57, 15
1, 33523, Note_on_c, 0, 72, 31
1, 33594, Note_on_c, 0, 55, 0
1, 33752, Note_on_c, 0, 69, 30
1, 33760, Note_on_c, 0, 62, 26
1, 33766, Note_on_c, 0, 72, 0
1, 33950, Note_on_c, 0, 62, 0
1, 33976, Note_on_c, 0, 72, 49
1, 33979, Note_on_c, 0, 69, 0
1, 33993, Note_on_c, 0, 60, 25
1, 34134, Note_on_c, 0, 57, 0
1, 34162, Note_on_c, 0, 72, 0
1, 34165, Note_on_c, 0, 60, 0
1, 34165, Note_on_c, 0, 69, 42
1, 34211, Note_on_c, 0, 62, 24
1, 34346, Note_on_c, 0, 69, 0
1, 34358, Note_on_c, 0, 62, 0
1, 34394, Note_on_c, 0, 66, 40
1, 34426, Note_on_c, 0, 57, 22
1, 34480, Note_on_c, 0, 66, 0
1, 34618, Note_on_c, 0, 69, 52
1, 34648, Note_on_c, 0, 62, 31
1, 34746, Note_on_c, 0, 62, 0
1, 34820, Note_on_c, 0, 68, 60
1, 34842, Note_on_c, 0, 69, 0
1, 34872, Note_on_c, 0, 60, 24
1, 34974, Note_on_c, 0, 57, 0
1, 35038, Note_on_c, 0, 69, 64
1, 35070, Note_on_c, 0, 62, 29
1, 35112, Note_on_c, 0, 68, 0
1, 35164, Note_on_c, 0, 62, 0
1, 35180, Note_on_c, 0, 60, 0
1, 35230, Note_on_c, 0, 70, 65
1, 35276, Note_on_c, 0, 69, 0
1, 35280, Note_on_c, 0, 57, 24
1, 35440, Note_on_c, 0, 71, 83
1, 35468, Note_on_c, 0, 62, 33
1, 35508, Note_on_c, 0, 70, 0
1, 35596, Note_on_c, 0, 62, 0
1, 35644, Note_on_c, 0, 72, 87
1, 35678, Note_on_c, 0, 60, 34
1, 35708, Note_on_c, 0, 71, 0
1, 35850, Note_on_c, 0, 73, 83
1, 35886, Note_on_c, 0, 62, 31
1, 35900, Note_on_c, 0, 72, 0
1, 35982, Note_on_c, 0, 62, 0
1, 36014, Note_on_c, 0, 60, 0
1, 36076, Note_on_c, 0, 74, 87
1, 36090, Note_on_c, 0, 57, 0
1, 36112, Note_on_c, 0, 73, 0
1, 36114, Note_on_c, 0, 55, 32
1, 36278, Note_on_c, 0, 71, 88
1, 36290, Note_on_c, 0, 62, 36
1, 36342, Note_on_c, 0, 74, 0
1, 36494, Note_on_c, 0, 74, 89
1, 36510, Note_on_c, 0, 62, 0
1, 36538, Note_on_c, 0, 59, 33
1, 36546, Note_on_c, 0, 71, 0
1, 36710, Note_on_c, 0, 71, 83
1, 36738, Note_on_c, 0, 74, 0
1, 36766, Note_on_c, 0, 62, 31
1, 36866, Note_on_c, 0, 59, 0
1, 36980, Note_on_c, 0, 55, 0
1, 36988, Note_on_c, 0, 62, 0
1, 37018, Note_on_c, 0, 79, 78
1, 37066, Note_on_c, 0, 52, 26
1, 37086, Note_on_c, 0, 71, 0
1, 37264, Note_on_c, 0, 59, 35
1, 37462, Note_on_c, 0, 59, 0
1, 37508, Note_on_c, 0, 55, 44
1, 37722, Note_on_c, 0, 52, 0
1, 37725, Note_on_c, 0, 55, 0
1, 37746, Note_on_c, 0, 79, 0
1, 37749, Note_on_c, 0, 59, 38
1, 37946, Note_on_c, 0, 59, 0
1, 37982, Note_on_c, 0, 47, 49
1, 38254, Note_on_c, 0, 83, 89
1, 38264, Note_on_c, 0, 55, 39
1, 38498, Note_on_c, 0, 55, 0
1, 38538, Note_on_c, 0, 78, 75
1, 38564, Note_on_c, 0, 50, 36
1, 38570, Note_on_c, 0, 83, 0
1, 38758, Note_on_c, 0, 47, 0
1, 38786, Note_on_c, 0, 79, 83
1, 38800, Note_on_c, 0, 55, 38
1, 38810, Note_on_c, 0, 78, 0
1, 38813, Note_on_c, 0, 50, 0
1, 38990, Note_on_c, 0, 55, 0
1, 39004, Note_on_c, 0, 75, 65
1, 39028, Note_on_c, 0, 48, 30
1, 39038, Note_on_c, 0, 79, 0
1, 39264, Note_on_c, 0, 57, 29
1, 39266, Note_on_c, 0, 76, 45
1, 39304, Note_on_c, 0, 75, 0
1, 39478, Note_on_c, 0, 57, 0
1, 39502, Note_on_c, 0, 72, 38
1, 39540, Note_on_c, 0, 76, 0
1, 39564, Note_on_c, 0, 52, 19
1, 39710, Note_on_c, 0, 52, 0
1, 39746, Note_on_c, 0, 69, 36
1, 39768, Note_on_c, 0, 57, 26
1, 39770, Note_on_c, 0, 72, 0
1, 39944, Note_on_c, 0, 57, 0
1, 40066, Note_on_c, 0, 67, 37
1, 40086, Note_on_c, 0, 50, 33
1, 40094, Note_on_c, 0, 69, 0
1, 40118, Note_on_c, 0, 48, 0
1, 40368, Note_on_c, 0, 59, 28
1, 40540, Note_on_c, 0, 67, 0
1, 40552, Note_on_c, 0, 59, 0
1, 40600, Note_on_c, 0, 55, 42
1, 40710, Note_on_c, 0, 50, 0
1, 40794, Note_on_c, 0, 67, 65
1, 40836, Note_on_c, 0, 59, 31
1, 40902, Note_on_c, 0, 55, 0
1, 41032, Note_on_c, 0, 59, 0
1, 41052, Note_on_c, 0, 71, 63
1, 41060, Note_on_c, 0, 67, 0
1, 41076, Note_on_c, 0, 66, 19
1, 41092, Note_on_c, 0, 50, 33
1, 41304, Note_on_c, 0, 69, 43
1, 41336, Note_on_c, 0, 60, 16
1, 41342, Note_on_c, 0, 71, 0
1, 41524, Note_on_c, 0, 60, 0
1, 41584, Note_on_c, 0, 69, 0
1, 41590, Note_on_c, 0, 67, 35
1, 41593, Note_on_c, 0, 57, 22
1, 41842, Note_on_c, 0, 67, 0
1, 41868, Note_on_c, 0, 57, 0
1, 41884, Note_on_c, 0, 69, 31
1, 41910, Note_on_c, 0, 60, 22
1, 42060, Note_on_c, 0, 60, 0
1, 42062, Note_on_c, 0, 66, 0
1, 42078, Note_on_c, 0, 69, 0
1, 42328, Note_on_c, 0, 69, 29
1, 42358, Note_on_c, 0, 60, 19
1, 42362, Note_on_c, 0, 66, 8
1, 42388, Note_on_c, 0, 55, 20
1, 42576, Note_on_c, 0, 50, 0
1, 43558, Note_on_c, 0, 60, 0
1, 43692, Note_on_c, 0, 67, 12
1, 43708, Note_on_c, 0, 59, 12
1, 43770, Note_on_c, 0, 66, 0
1, 43866, Note_on_c, 0, 69, 0
1, 44508, Note_on_c, 0, 55, 0
1, 44566, Note_on_c, 0, 59, 0
1, 44632, Note_on_c, 0, 67, 0
1, 45602, Note_on_c, 0, 74, 41
1, 45652, Note_on_c, 0, 62, 15
1, 45914, Note_on_c, 0, 69, 14
1, 45984, Note_on_c, 0, 62, 0
1, 46110, Note_on_c, 0, 69, 0
1, 46184, Note_on_c, 0, 66, 16
1, 46414, Note_on_c, 0, 69, 19
1, 46432, Note_on_c, 0, 66, 0
1, 46562, Note_on_c, 0, 69, 0
1, 46642, Note_on_c, 0, 62, 24
1, 46904, Note_on_c, 0, 69, 19
1, 46907, Note_on_c, 0, 73, 48
1, 46978, Note_on_c, 0, 74, 0
1, 47130, Note_on_c, 0, 69, 0
1, 47138, Note_on_c, 0, 76, 68
1, 47154, Note_on_c, 0, 66, 27
1, 47184, Note_on_c, 0, 73, 0
1, 47348, Note_on_c, 0, 62, 0
1, 47353, Note_on_c, 0, 74, 81
1, 47376, Note_on_c, 0, 76, 0
1, 47380, Note_on_c, 0, 69, 27
1, 47516, Note_on_c, 0, 69, 0
1, 47562, Note_on_c, 0, 79, 80
1, 47592, Note_on_c, 0, 74, 0
1, 47606, Note_on_c, 0, 62, 28
1, 47666, Note_on_c, 0, 66, 0
1, 47784, Note_on_c, 0, 78, 73
1, 47822, Note_on_c, 0, 69, 25
1, 47836, Note_on_c, 0, 79, 0
1, 47964, Note_on_c, 0, 69, 0
1, 47992, Note_on_c, 0, 76, 68
1, 48012, Note_on_c, 0, 66, 24
1, 48046, Note_on_c, 0, 78, 0
1, 48206, Note_on_c, 0, 74, 74
1, 48214, Note_on_c, 0, 66, 0
1, 48224, Note_on_c, 0, 76, 0
1, 48242, Note_on_c, 0, 69, 17
1, 48360, Note_on_c, 0, 69, 0
1, 48448, Note_on_c, 0, 73, 57
1, 48490, Note_on_c, 0, 64, 17
1, 48492, Note_on_c, 0, 62, 0
1, 48514, Note_on_c, 0, 74, 0
1, 48698, Note_on_c, 0, 69, 27
1, 48928, Note_on_c, 0, 69, 0
1, 48975, Note_on_c, 0, 67, 26
1, 49162, Note_on_c, 0, 64, 0
1, 49224, Note_on_c, 0, 74, 50
1, 49250, Note_on_c, 0, 67, 0
1, 49256, Note_on_c, 0, 69, 11
1, 49316, Note_on_c, 0, 73, 0
1, 49400, Note_on_c, 0, 69, 0
1, 49498, Note_on_c, 0, 76, 37
1, 49506, Note_on_c, 0, 64, 24
1, 49528, Note_on_c, 0, 74, 0
1, 49698, Note_on_c, 0, 69, 21
1, 49878, Note_on_c, 0, 69, 0
1, 49944, Note_on_c, 0, 64, 0
1, 49944, Note_on_c, 0, 67, 25
1, 50172, Note_on_c, 0, 67, 0
1, 50172, Note_on_c, 0, 69, 22
1, 50326, Note_on_c, 0, 69, 0
1, 50414, Note_on_c, 0, 64, 29
1, 50550, Note_on_c, 0, 76, 0
1, 50626, Note_on_c, 0, 69, 22
1, 50788, Note_on_c, 0, 69, 0
1, 50860, Note_on_c, 0, 67, 15
1, 50958, Note_on_c, 0, 64, 0
1, 51084, Note_on_c, 0, 67, 0
1, 51102, Note_on_c, 0, 69, 21
1, 51226, Note_on_c, 0, 69, 0
1, 51396, Note_on_c, 0, 76, 44
1, 51436, Note_on_c, 0, 61, 23
1, 51694, Note_on_c, 0, 69, 17
1, 51864, Note_on_c, 0, 69, 0
1, 51932, Note_on_c, 0, 67, 19
1, 51958, Note_on_c, 0, 61, 0
1, 52108, Note_on_c, 0, 67, 0
1, 52151, Note_on_c, 0, 69, 20
1, 52310, Note_on_c, 0, 69, 0
1, 52376, Note_on_c, 0, 61, 29
1, 52616, Note_on_c, 0, 75, 58
1, 52644, Note_on_c, 0, 69, 19
1, 52694, Note_on_c, 0, 76, 0
1, 52832, Note_on_c, 0, 78, 75
1, 52850, Note_on_c, 0, 69, 0
1, 52886, Note_on_c, 0, 75, 0
1, 52886, Note_on_c, 0, 67, 24
1, 53000, Note_on_c, 0, 61, 0
1, 53070, Note_on_c, 0, 76, 71
1, 53100, Note_on_c, 0, 78, 0
1, 53112, Note_on_c, 0, 69, 15
1, 53270, Note_on_c, 0, 69, 0
1, 53337, Note_on_c, 0, 81, 57
1, 53342, Note_on_c, 0, 67, 0
1, 53350, Note_on_c, 0, 76, 0
1, 53380, Note_on_c, 0, 61, 24
1, 53628, Note_on_c, 0, 79, 57
1, 53646, Note_on_c, 0, 69, 14
1, 53694, Note_on_c, 0, 81, 0
1, 53814, Note_on_c, 0, 69, 0
1, 53856, Note_on_c, 0, 78, 47
1, 53910, Note_on_c, 0, 79, 0
1, 53922, Note_on_c, 0, 67, 15
1, 54070, Note_on_c, 0, 67, 0
1, 54090, Note_on_c, 0, 76, 43
1, 54100, Note_on_c, 0, 78, 0
1, 54136, Note_on_c, 0, 69, 16
1, 54294, Note_on_c, 0, 69, 0
1, 54396, Note_on_c, 0, 74, 51
1, 54436, Note_on_c, 0, 62, 17
1, 54444, Note_on_c, 0, 76, 0
1, 54510, Note_on_c, 0, 61, 0
1, 54722, Note_on_c, 0, 69, 18
1, 54918, Note_on_c, 0, 69, 0
1, 54954, Note_on_c, 0, 66, 24
1, 55162, Note_on_c, 0, 76, 45
1, 55206, Note_on_c, 0, 69, 18
1, 55306, Note_on_c, 0, 74, 0
1, 55338, Note_on_c, 0, 69, 0
1, 55454, Note_on_c, 0, 62, 0
1, 55458, Note_on_c, 0, 78, 42
1, 55490, Note_on_c, 0, 66, 0
1, 55490, Note_on_c, 0, 61, 31
1, 55544, Note_on_c, 0, 76, 0
1, 55690, Note_on_c, 0, 69, 22
1, 55902, Note_on_c, 0, 69, 0
1, 55918, Note_on_c, 0, 62, 41
1, 56034, Note_on_c, 0, 61, 0
1, 56146, Note_on_c, 0, 69, 21
1, 56320, Note_on_c, 0, 69, 0
1, 56354, Note_on_c, 0, 59, 52
1, 56376, Note_on_c, 0, 62, 0
1, 56572, Note_on_c, 0, 67, 35
1, 56580, Note_on_c, 0, 78, 0
1, 56778, Note_on_c, 0, 67, 0
1, 56798, Note_on_c, 0, 62, 41
1, 57018, Note_on_c, 0, 67, 38
1, 57082, Note_on_c, 0, 62, 0
1, 57176, Note_on_c, 0, 59, 0
1, 57179, Note_on_c, 0, 67, 0
1, 57250, Note_on_c, 0, 78, 79
1, 57286, Note_on_c, 0, 57, 21
1, 57458, Note_on_c, 0, 66, 36
1, 57702, Note_on_c, 0, 66, 0
1, 57736, Note_on_c, 0, 62, 33
1, 57892, Note_on_c, 0, 62, 0
1, 57934, Note_on_c, 0, 66, 41
1, 58076, Note_on_c, 0, 57, 0
1, 58094, Note_on_c, 0, 66, 0
1, 58170, Note_on_c, 0, 55, 43
1, 58368, Note_on_c, 0, 76, 64
1, 58402, Note_on_c, 0, 64, 31
1, 58454, Note_on_c, 0, 78, 0
1, 58576, Note_on_c, 0, 79, 94
1, 58588, Note_on_c, 0, 64, 0
1, 58612, Note_on_c, 0, 61, 47
1, 58660, Note_on_c, 0, 76, 0
1, 58770, Note_on_c, 0, 55, 0
1, 58772, Note_on_c, 0, 78, 89
1, 58806, Note_on_c, 0, 64, 42
1, 58812, Note_on_c, 0, 79, 0
1, 58966, Note_on_c, 0, 64, 0
1, 58998, Note_on_c, 0, 83, 103
1, 59004, Note_on_c, 0, 54, 49
1, 59042, Note_on_c, 0, 61, 0
1, 59048, Note_on_c, 0, 78, 0
1, 59216, Note_on_c, 0, 81, 83
1, 59216, Note_on_c, 0, 62, 42
1, 59330, Note_on_c, 0, 83, 0
1, 59358, Note_on_c, 0, 62, 0
1, 59412, Note_on_c, 0, 79, 91
1, 59434, Note_on_c, 0, 57, 38
1, 59474, Note_on_c, 0, 54, 0
1, 59486, Note_on_c, 0, 81, 0
1, 59526, Note_on_c, 0, 57, 0
1, 59610, Note_on_c, 0, 78, 76
1, 59648, Note_on_c, 0, 62, 43
1, 59676, Note_on_c, 0, 79, 0
1, 59702, Note_on_c, 0, 62, 0
1, 59854, Note_on_c, 0, 76, 62
1, 59866, Note_on_c, 0, 59, 60
1, 59934, Note_on_c, 0, 78, 0
1, 60068, Note_on_c, 0, 67, 45
1, 60272, Note_on_c, 0, 67, 0
1, 60310, Note_on_c, 0, 64, 41
1, 60522, Note_on_c, 0, 67, 37
1, 60628, Note_on_c, 0, 64, 0
1, 60716, Note_on_c, 0, 67, 0
1, 60724, Note_on_c, 0, 59, 0
1, 60814, Note_on_c, 0, 57, 31
1, 61024, Note_on_c, 0, 75, 61
1, 61036, Note_on_c, 0, 66, 32
1, 61094, Note_on_c, 0, 76, 0
1, 61248, Note_on_c, 0, 78, 73
1, 61262, Note_on_c, 0, 66, 0
1, 61288, Note_on_c, 0, 63, 41
1, 61314, Note_on_c, 0, 75, 0
1, 61406, Note_on_c, 0, 57, 0
1, 61466, Note_on_c, 0, 76, 75
1, 61486, Note_on_c, 0, 66, 26
1, 61514, Note_on_c, 0, 78, 0
1, 61572, Note_on_c, 0, 63, 0
1, 61572, Note_on_c, 0, 66, 0
1, 61692, Note_on_c, 0, 81, 60
1, 61702, Note_on_c, 0, 55, 36
1, 61710, Note_on_c, 0, 76, 0
1, 61951, Note_on_c, 0, 64, 33
1, 61954, Note_on_c, 0, 79, 67
1, 62016, Note_on_c, 0, 81, 0
1, 62080, Note_on_c, 0, 64, 0
1, 62166, Note_on_c, 0, 78, 66
1, 62224, Note_on_c, 0, 79, 0
1, 62224, Note_on_c, 0, 59, 19
1, 62242, Note_on_c, 0, 55, 0
1, 62360, Note_on_c, 0, 59, 0
1, 62392, Note_on_c, 0, 78, 0
1, 62402, Note_on_c, 0, 76, 64
1, 62430, Note_on_c, 0, 64, 36
1, 62510, Note_on_c, 0, 64, 0
1, 62526, Note_on_c, 0, 76, 0
1, 62658, Note_on_c, 0, 76, 42
1, 62694, Note_on_c, 0, 57, 15
1, 62976, Note_on_c, 0, 74, 40
1, 62978, Note_on_c, 0, 66, 24
1, 62992, Note_on_c, 0, 76, 0
1, 63162, Note_on_c, 0, 74, 0
1, 63224, Note_on_c, 0, 66, 0
1, 63242, Note_on_c, 0, 74, 50
1, 63322, Note_on_c, 0, 62, 14
1, 63500, Note_on_c, 0, 57, 0
1, 63514, Note_on_c, 0, 66, 26
1, 63562, Note_on_c, 0, 62, 0
1, 63702, Note_on_c, 0, 66, 0
1, 63804, Note_on_c, 0, 57, 23
1, 64040, Note_on_c, 0, 69, 44
1, 64058, Note_on_c, 0, 66, 27
1, 64064, Note_on_c, 0, 74, 0
1, 64248, Note_on_c, 0, 66, 0
1, 64286, Note_on_c, 0, 74, 76
1, 64324, Note_on_c, 0, 69, 0
1, 64324, Note_on_c, 0, 62, 26
1, 64366, Note_on_c, 0, 57, 0
1, 64498, Note_on_c, 0, 62, 0
1, 64512, Note_on_c, 0, 78, 74
1, 64524, Note_on_c, 0, 66, 19
1, 64546, Note_on_c, 0, 74, 0
1, 64648, Note_on_c, 0, 78, 0
1, 64706, Note_on_c, 0, 66, 0
1, 64776, Note_on_c, 0, 78, 56
1, 64786, Note_on_c, 0, 73, 32
1, 64790, Note_on_c, 0, 57, 21
1, 65032, Note_on_c, 0, 67, 27
1, 65034, Note_on_c, 0, 76, 49
1, 65084, Note_on_c, 0, 78, 0
1, 65282, Note_on_c, 0, 67, 0
1, 65298, Note_on_c, 0, 74, 59
1, 65324, Note_on_c, 0, 64, 30
1, 65334, Note_on_c, 0, 76, 0
1, 65610, Note_on_c, 0, 74, 0
1, 65610, Note_on_c, 0, 76, 59
1, 65622, Note_on_c, 0, 67, 33
1, 65626, Note_on_c, 0, 64, 0
1, 65788, Note_on_c, 0, 73, 0
1, 65790, Note_on_c, 0, 67, 0
1, 65840, Note_on_c, 0, 76, 0
1, 66060, Note_on_c, 0, 76, 43
1, 66070, Note_on_c, 0, 73, 24
1, 66080, Note_on_c, 0, 67, 27
1, 66130, Note_on_c, 0, 62, 15
1, 66230, Note_on_c, 0, 57, 0
1, 67510, Note_on_c, 0, 74, 36
1, 67544, Note_on_c, 0, 67, 0
1, 67544, Note_on_c, 0, 66, 16
1, 67562, Note_on_c, 0, 73, 0
1, 67752, Note_on_c, 0, 76, 0
1, 67840, Note_on_c, 0, 75, 43
1, 67906, Note_on_c, 0, 74, 0
1, 68112, Note_on_c, 0, 76, 38
1, 68144, Note_on_c, 0, 75, 0
1, 68336, Note_on_c, 0, 75, 40
1, 68366, Note_on_c, 0, 76, 0
1, 68640, Note_on_c, 0, 78, 31
1, 68668, Note_on_c, 0, 75, 0
1, 68756, Note_on_c, 0, 66, 0
1, 68759, Note_on_c, 0, 62, 0
1, 69014, Note_on_c, 0, 76, 25
1, 69092, Note_on_c, 0, 78, 0
1, 69324, Note_on_c, 0, 74, 27
1, 69360, Note_on_c, 0, 76, 0
1, 69624, Note_on_c, 0, 72, 32
1, 69660, Note_on_c, 0, 74, 0
1, 70074, Note_on_c, 0, 71, 34
1, 70100, Note_on_c, 0, 55, 16
1, 70198, Note_on_c, 0, 72, 0
1, 70474, Note_on_c, 0, 62, 20
1, 70716, Note_on_c, 0, 62, 0
1, 70748, Note_on_c, 0, 55, 0
1, 70768, Note_on_c, 0, 59, 24
1, 71000, Note_on_c, 0, 59, 0
1, 71032, Note_on_c, 0, 62, 24
1, 71178, Note_on_c, 0, 62, 0
1, 71294, Note_on_c, 0, 55, 19
1, 71574, Note_on_c, 0, 62, 18
1, 71584, Note_on_c, 0, 67, 27
1, 71596, Note_on_c, 0, 71, 0
1, 71764, Note_on_c, 0, 62, 0
1, 71820, Note_on_c, 0, 67, 0
1, 71826, Note_on_c, 0, 71, 57
1, 71854, Note_on_c, 0, 59, 22
1, 71982, Note_on_c, 0, 59, 0
1, 72048, Note_on_c, 0, 74, 64
1, 72070, Note_on_c, 0, 71, 0
1, 72073, Note_on_c, 0, 62, 27
1, 72256, Note_on_c, 0, 62, 0
1, 72290, Note_on_c, 0, 72, 55
1, 72322, Note_on_c, 0, 57, 16
1, 72364, Note_on_c, 0, 74, 0
1, 72374, Note_on_c, 0, 55, 0
1, 72512, Note_on_c, 0, 69, 44
1, 72562, Note_on_c, 0, 62, 29
1, 72574, Note_on_c, 0, 72, 0
1, 72746, Note_on_c, 0, 62, 0
1, 72772, Note_on_c, 0, 72, 44
1, 72800, Note_on_c, 0, 69, 0
1, 72800, Note_on_c, 0, 60, 23
1, 73010, Note_on_c, 0, 76, 39
1, 73020, Note_on_c, 0, 72, 0
1, 73050, Note_on_c, 0, 60, 0
1, 73053, Note_on_c, 0, 62, 23
1, 73246, Note_on_c, 0, 62, 0
1, 73280, Note_on_c, 0, 57, 0
1, 73330, Note_on_c, 0, 74, 44
1, 73366, Note_on_c, 0, 55, 16
1, 73424, Note_on_c, 0, 76, 0
1, 73620, Note_on_c, 0, 62, 19
1, 73818, Note_on_c, 0, 62, 0
1, 73872, Note_on_c, 0, 59, 15
1, 74008, Note_on_c, 0, 55, 0
1, 74070, Note_on_c, 0, 74, 0
1, 74080, Note_on_c, 0, 71, 36
1, 74108, Note_on_c, 0, 62, 22
1, 74236, Note_on_c, 0, 62, 0
1, 74264, Note_on_c, 0, 71, 0
1, 74318, Note_on_c, 0, 67, 37
1, 74344, Note_on_c, 0, 59, 0
1, 74350, Note_on_c, 0, 55, 26
1, 74414, Note_on_c, 0, 67, 0
1, 74522, Note_on_c, 0, 67, 44
1, 74566, Note_on_c, 0, 62, 26
1, 74640, Note_on_c, 0, 67, 0
1, 74702, Note_on_c, 0, 62, 0
1, 74746, Note_on_c, 0, 69, 50
1, 74780, Note_on_c, 0, 59, 25
1, 74818, Note_on_c, 0, 69, 0
1, 74966, Note_on_c, 0, 71, 76
1, 74982, Note_on_c, 0, 62, 33
1, 75000, Note_on_c, 0, 55, 0
1, 75054, Note_on_c, 0, 71, 0
1, 75142, Note_on_c, 0, 62, 0
1, 75176, Note_on_c, 0, 72, 63
1, 75198, Note_on_c, 0, 55, 31
1, 75256, Note_on_c, 0, 59, 0
1, 75310, Note_on_c, 0, 72, 0
1, 75398, Note_on_c, 0, 74, 79
1, 75412, Note_on_c, 0, 62, 39
1, 75502, Note_on_c, 0, 74, 0
1, 75560, Note_on_c, 0, 62, 0
1, 75604, Note_on_c, 0, 76, 72
1, 75624, Note_on_c, 0, 59, 38
1, 75728, Note_on_c, 0, 76, 0
1, 75816, Note_on_c, 0, 78, 79
1, 75832, Note_on_c, 0, 62, 37
1, 75854, Note_on_c, 0, 55, 0
1, 75924, Note_on_c, 0, 78, 0
1, 76042, Note_on_c, 0, 79, 82
1, 76056, Note_on_c, 0, 59, 0
1, 76064, Note_on_c, 0, 55, 35
1, 76070, Note_on_c, 0, 62, 0
1, 76268, Note_on_c, 0, 78, 81
1, 76306, Note_on_c, 0, 64, 29
1, 76314, Note_on_c, 0, 79, 0
1, 76474, Note_on_c, 0, 64, 0
1, 76486, Note_on_c, 0, 79, 94
1, 76516, Note_on_c, 0, 60, 29
1, 76548, Note_on_c, 0, 78, 0
1, 76690, Note_on_c, 0, 78, 79
1, 76702, Note_on_c, 0, 55, 0
1, 76726, Note_on_c, 0, 64, 34
1, 76750, Note_on_c, 0, 79, 0
1, 76914, Note_on_c, 0, 64, 0
1, 76960, Note_on_c, 0, 81, 62
1, 76963, Note_on_c, 0, 55, 29
1, 76988, Note_on_c, 0, 78, 0
1, 77004, Note_on_c, 0, 60, 0
1, 77244, Note_on_c, 0, 64, 25
1, 77254, Note_on_c, 0, 79, 59
1, 77294, Note_on_c, 0, 81, 0
1, 77442, Note_on_c, 0, 64, 0
1, 77468, Note_on_c, 0, 78, 58
1, 77490, Note_on_c, 0, 79, 0
1, 77516, Note_on_c, 0, 60, 28
1, 77706, Note_on_c, 0, 79, 64
1, 77714, Note_on_c, 0, 78, 0
1, 77728, Note_on_c, 0, 55, 0
1, 77736, Note_on_c, 0, 64, 32
1, 77894, Note_on_c, 0, 60, 0
1, 77916, Note_on_c, 0, 64, 0
1, 77942, Note_on_c, 0, 78, 53
1, 77972, Note_on_c, 0, 79, 0
1, 77972, Note_on_c, 0, 55, 24
1, 78164, Note_on_c, 0, 61, 36
1, 78170, Note_on_c, 0, 76, 50
1, 78214, Note_on_c, 0, 78, 0
1, 78372, Note_on_c, 0, 61, 0
1, 78388, Note_on_c, 0, 74, 55
1, 78390, Note_on_c, 0, 76, 0
1, 78412, Note_on_c, 0, 58, 23
1, 78508, Note_on_c, 0, 55, 0
1, 78604, Note_on_c, 0, 73, 57
1, 78622, Note_on_c, 0, 61, 27
1, 78636, Note_on_c, 0, 74, 0
1, 78812, Note_on_c, 0, 61, 0
1, 78852, Note_on_c, 0, 74, 44
1, 78866, Note_on_c, 0, 55, 27
1, 78882, Note_on_c, 0, 73, 0
1, 78906, Note_on_c, 0, 58, 0
1, 79074, Note_on_c, 0, 71, 38
1, 79076, Note_on_c, 0, 74, 0
1, 79098, Note_on_c, 0, 62, 20
1, 79272, Note_on_c, 0, 62, 0
1, 79306, Note_on_c, 0, 71, 0
1, 79318, Note_on_c, 0, 74, 50
1, 79330, Note_on_c, 0, 59, 24
1, 79544, Note_on_c, 0, 71, 46
1, 79548, Note_on_c, 0, 74, 0
1, 79556, Note_on_c, 0, 59, 0
1, 79570, Note_on_c, 0, 62, 26
1, 79574, Note_on_c, 0, 55, 0
1, 79728, Note_on_c, 0, 62, 0
1, 79816, Note_on_c, 0, 71, 0
1, 79824, Note_on_c, 0, 67, 28
1, 79838, Note_on_c, 0, 55, 22
1, 80062, Note_on_c, 0, 62, 30
1, 80212, Note_on_c, 0, 62, 0
1, 80324, Note_on_c, 0, 59, 16
1, 80396, Note_on_c, 0, 55, 0
1, 80538, Note_on_c, 0, 62, 20
1, 80574, Note_on_c, 0, 59, 0
1, 80694, Note_on_c, 0, 62, 0
1, 80774, Note_on_c, 0, 67, 0
1, 80786, Note_on_c, 0, 55, 23
1, 80998, Note_on_c, 0, 62, 23
1, 81118, Note_on_c, 0, 62, 0
1, 81232, Note_on_c, 0, 59, 19
1, 81424, Note_on_c, 0, 59, 0
1, 81446, Note_on_c, 0, 62, 30
1, 81644, Note_on_c, 0, 62, 0
1, 81698, Note_on_c, 0, 72, 36
1, 81712, Note_on_c, 0, 55, 0
1, 81715, Note_on_c, 0, 57, 16
1, 81930, Note_on_c, 0, 69, 35
1, 81940, Note_on_c, 0, 62, 22
1, 81942, Note_on_c, 0, 72, 0
1, 82104, Note_on_c, 0, 62, 0
1, 82178, Note_on_c, 0, 72, 48
1, 82181, Note_on_c, 0, 69, 0
1, 82181, Note_on_c, 0, 60, 23
1, 82334, Note_on_c, 0, 57, 0
1, 82390, Note_on_c, 0, 69, 48
1, 82392, Note_on_c, 0, 72, 0
1, 82424, Note_on_c, 0, 62, 25
1, 82538, Note_on_c, 0, 62, 0
1, 82574, Note_on_c, 0, 69, 0
1, 82578, Note_on_c, 0, 60, 0
1, 82612, Note_on_c, 0, 66, 38
1, 82642, Note_on_c, 0, 57, 22
1, 82744, Note_on_c, 0, 66, 0
1, 82834, Note_on_c, 0, 69, 46
1, 82858, Note_on_c, 0, 62, 32
1, 82974, Note_on_c, 0, 62, 0
1, 83052, Note_on_c, 0, 68, 52
1, 83088, Note_on_c, 0, 69, 0
1, 83096, Note_on_c, 0, 60, 25
1, 83254, Note_on_c, 0, 57, 0
1, 83274, Note_on_c, 0, 69, 63
1, 83314, Note_on_c, 0, 62, 25
1, 83330, Note_on_c, 0, 68, 0
1, 83406, Note_on_c, 0, 62, 0
1, 83484, Note_on_c, 0, 70, 62
1, 83500, Note_on_c, 0, 60, 0
1, 83524, Note_on_c, 0, 57, 26
1, 83530, Note_on_c, 0, 69, 0
1, 83706, Note_on_c, 0, 71, 76
1, 83724, Note_on_c, 0, 62, 34
1, 83758, Note_on_c, 0, 70, 0
1, 83904, Note_on_c, 0, 62, 0
1, 83918, Note_on_c, 0, 72, 79
1, 83958, Note_on_c, 0, 60, 32
1, 83972, Note_on_c, 0, 71, 0
1, 84136, Note_on_c, 0, 73, 75
1, 84172, Note_on_c, 0, 62, 37
1, 84202, Note_on_c, 0, 72, 0
1, 84284, Note_on_c, 0, 62, 0
1, 84364, Note_on_c, 0, 60, 0
1, 84380, Note_on_c, 0, 74, 81
1, 84402, Note_on_c, 0, 55, 38
1, 84432, Note_on_c, 0, 73, 0
1, 84456, Note_on_c, 0, 57, 0
1, 84599, Note_on_c, 0, 71, 79
1, 84622, Note_on_c, 0, 62, 37
1, 84656, Note_on_c, 0, 74, 0
1, 84822, Note_on_c, 0, 62, 0
1, 84824, Note_on_c, 0, 74, 78
1, 84856, Note_on_c, 0, 59, 36
1, 84874, Note_on_c, 0, 71, 0
1, 85054, Note_on_c, 0, 71, 86
1, 85078, Note_on_c, 0, 74, 0
1, 85094, Note_on_c, 0, 62, 37
1, 85116, Note_on_c, 0, 59, 0
1, 85308, Note_on_c, 0, 62, 0
1, 85342, Note_on_c, 0, 55, 0
1, 85346, Note_on_c, 0, 79, 73
1, 85354, Note_on_c, 0, 52, 57
1, 85413, Note_on_c, 0, 71, 0
1, 85598, Note_on_c, 0, 59, 38
1, 85806, Note_on_c, 0, 59, 0
1, 85852, Note_on_c, 0, 55, 47
1, 86100, Note_on_c, 0, 59, 48
1, 86106, Note_on_c, 0, 55, 0
1, 86140, Note_on_c, 0, 52, 0
1, 86176, Note_on_c, 0, 79, 0
1, 86304, Note_on_c, 0, 59, 0
1, 86324, Note_on_c, 0, 47, 58
1, 86578, Note_on_c, 0, 55, 42
1, 86582, Note_on_c, 0, 83, 88
1, 86844, Note_on_c, 0, 55, 0
1, 86866, Note_on_c, 0, 78, 78
1, 86904, Note_on_c, 0, 50, 42
1, 86910, Note_on_c, 0, 83, 0
1, 87086, Note_on_c, 0, 47, 0
1, 87124, Note_on_c, 0, 79, 81
1, 87124, Note_on_c, 0, 55, 41
1, 87172, Note_on_c, 0, 78, 0
1, 87332, Note_on_c, 0, 55, 0
1, 87360, Note_on_c, 0, 75, 67
1, 87362, Note_on_c, 0, 50, 0
1, 87368, Note_on_c, 0, 48, 29
1, 87408, Note_on_c, 0, 79, 0
1, 87660, Note_on_c, 0, 76, 46
1, 87672, Note_on_c, 0, 57, 26
1, 87704, Note_on_c, 0, 75, 0
1, 87896, Note_on_c, 0, 57, 0
1, 87912, Note_on_c, 0, 72, 45
1, 87944, Note_on_c, 0, 52, 29
1, 87970, Note_on_c, 0, 76, 0
1, 88112, Note_on_c, 0, 48, 0
1, 88160, Note_on_c, 0, 69, 38
1, 88168, Note_on_c, 0, 57, 22
1, 88174, Note_on_c, 0, 72, 0
1, 88382, Note_on_c, 0, 57, 0
1, 88388, Note_on_c, 0, 52, 0
1, 88420, Note_on_c, 0, 50, 31
1, 88420, Note_on_c, 0, 67, 41
1, 88440, Note_on_c, 0, 69, 0
1, 88672, Note_on_c, 0, 59, 29
1, 88842, Note_on_c, 0, 59, 0
1, 88902, Note_on_c, 0, 55, 38
1, 88922, Note_on_c, 0, 67, 0
1, 89020, Note_on_c, 0, 50, 0
1, 89152, Note_on_c, 0, 67, 59
1, 89168, Note_on_c, 0, 59, 31
1, 89230, Note_on_c, 0, 55, 0
1, 89382, Note_on_c, 0, 59, 0
1, 89420, Note_on_c, 0, 50, 38
1, 89426, Note_on_c, 0, 71, 54
1, 89428, Note_on_c, 0, 66, 33
1, 89440, Note_on_c, 0, 67, 0
1, 89676, Note_on_c, 0, 69, 42
1, 89702, Note_on_c, 0, 60, 23
1, 89728, Note_on_c, 0, 71, 0
1, 89900, Note_on_c, 0, 60, 0
1, 89958, Note_on_c, 0, 67, 46
1, 89966, Note_on_c, 0, 57, 21
1, 89970, Note_on_c, 0, 69, 0
1, 90224, Note_on_c, 0, 57, 0
1, 90262, Note_on_c, 0, 69, 38
1, 90284, Note_on_c, 0, 67, 0
1, 90288, Note_on_c, 0, 60, 25
1, 90330, Note_on_c, 0, 66, 0
1, 90400, Note_on_c, 0, 69, 0
1, 90522, Note_on_c, 0, 60, 0
1, 90708, Note_on_c, 0, 50, 0
1, 90720, Note_on_c, 0, 69, 37
1, 90746, Note_on_c, 0, 55, 28
1, 90749, Note_on_c, 0, 60, 28
1, 90749, Note_on_c, 0, 66, 10
1, 92076, Note_on_c, 0, 60, 0
1, 92138, Note_on_c, 0, 67, 21
1, 92182, Note_on_c, 0, 59, 11
1, 92194, Note_on_c, 0, 69, 0
1, 92224, Note_on_c, 0, 66, 0
1, 92400, Note_on_c, 0, 55, 0
1, 92434, Note_on_c, 0, 59, 0
1, 92688, Note_on_c, 0, 67, 0
1, 94342, Note_on_c, 0, 70, 31
1, 94383, Note_on_c, 0, 55, 27
1, 94694, Note_on_c, 0, 62, 13
1, 94826, Note_on_c, 0, 55, 0
1, 94826, Note_on_c, 0, 62, 0
1, 94922, Note_on_c, 0, 58, 15
1, 95050, Note_on_c, 0, 58, 0
1, 95190, Note_on_c, 0, 62, 21
1, 95300, Note_on_c, 0, 62, 0
1, 95482, Note_on_c, 0, 55, 27
1, 95694, Note_on_c, 0, 69, 38
1, 95754, Note_on_c, 0, 62, 18
1, 95757, Note_on_c, 0, 70, 0
1, 95870, Note_on_c, 0, 62, 0
1, 95926, Note_on_c, 0, 72, 58
1, 95950, Note_on_c, 0, 69, 0
1, 95968, Note_on_c, 0, 58, 15
1, 96116, Note_on_c, 0, 58, 0
1, 96136, Note_on_c, 0, 70, 64
1, 96166, Note_on_c, 0, 72, 0
1, 96186, Note_on_c, 0, 62, 20
1, 96248, Note_on_c, 0, 70, 0
1, 96298, Note_on_c, 0, 62, 0
1, 96354, Note_on_c, 0, 70, 44
1, 96398, Note_on_c, 0, 57, 17
1, 96401, Note_on_c, 0, 55, 0
1, 96624, Note_on_c, 0, 69, 38
1, 96632, Note_on_c, 0, 62, 22
1, 96702, Note_on_c, 0, 70, 0
1, 96841, Note_on_c, 0, 67, 40
1, 96860, Note_on_c, 0, 62, 0
1, 96892, Note_on_c, 0, 60, 22
1, 96904, Note_on_c, 0, 69, 0
1, 97074, Note_on_c, 0, 66, 39
1, 97120, Note_on_c, 0, 67, 0
1, 97134, Note_on_c, 0, 62, 26
1, 97162, Note_on_c, 0, 60, 0
1, 97244, Note_on_c, 0, 62, 0
1, 97314, Note_on_c, 0, 57, 0
1, 97356, Note_on_c, 0, 67, 37
1, 97378, Note_on_c, 0, 55, 22
1, 97476, Note_on_c, 0, 66, 0
1, 97632, Note_on_c, 0, 62, 18
1, 97824, Note_on_c, 0, 62, 0
1, 97840, Note_on_c, 0, 58, 17
1, 98082, Note_on_c, 0, 55, 0
1, 98114, Note_on_c, 0, 70, 28
1, 98170, Note_on_c, 0, 62, 14
1, 98202, Note_on_c, 0, 58, 0
1, 98236, Note_on_c, 0, 67, 0
1, 98276, Note_on_c, 0, 62, 0
1, 98406, Note_on_c, 0, 74, 36
1, 98424, Note_on_c, 0, 55, 19
1, 98469, Note_on_c, 0, 70, 0
1, 98650, Note_on_c, 0, 62, 27
1, 98848, Note_on_c, 0, 62, 0
1, 98882, Note_on_c, 0, 58, 20
1, 98884, Note_on_c, 0, 55, 0
1, 99132, Note_on_c, 0, 62, 22
1, 99166, Note_on_c, 0, 58, 0
1, 99244, Note_on_c, 0, 62, 0
1, 99354, Note_on_c, 0, 55, 32
1, 99402, Note_on_c, 0, 74, 0
1, 99594, Note_on_c, 0, 62, 26
1, 99730, Note_on_c, 0, 62, 0
1, 99814, Note_on_c, 0, 58, 21
1, 100070, Note_on_c, 0, 62, 24
1, 100102, Note_on_c, 0, 58, 0
1, 100182, Note_on_c, 0, 62, 0
1, 100246, Note_on_c, 0, 55, 0
1, 100366, Note_on_c, 0, 74, 53
1, 100382, Note_on_c, 0, 54, 34
1, 100662, Note_on_c, 0, 62, 25
1, 100832, Note_on_c, 0, 62, 0
1, 100882, Note_on_c, 0, 57, 25
1, 101044, Note_on_c, 0, 54, 0
1, 101116, Note_on_c, 0, 62, 25
1, 101222, Note_on_c, 0, 62, 0
1, 101332, Note_on_c, 0, 54, 33
1, 101344, Note_on_c, 0, 57, 0
1, 101580, Note_on_c, 0, 73, 50
1, 101624, Note_on_c, 0, 62, 28
1, 101656, Note_on_c, 0, 74, 0
1, 101848, Note_on_c, 0, 75, 63
1, 101856, Note_on_c, 0, 62, 0
1, 101910, Note_on_c, 0, 57, 24
1, 101913, Note_on_c, 0, 73, 0
1, 102004, Note_on_c, 0, 57, 0
1, 102082, Note_on_c, 0, 74, 82
1, 102128, Note_on_c, 0, 62, 27
1, 102154, Note_on_c, 0, 75, 0
1, 102206, Note_on_c, 0, 74, 0
1, 102226, Note_on_c, 0, 62, 0
1, 102308, Note_on_c, 0, 74, 54
1, 102340, Note_on_c, 0, 50, 30
1, 102438, Note_on_c, 0, 54, 0
1, 102548, Note_on_c, 0, 72, 60
1, 102580, Note_on_c, 0, 62, 29
1, 102652, Note_on_c, 0, 74, 0
1, 102712, Note_on_c, 0, 62, 0
1, 102760, Note_on_c, 0, 70, 55
1, 102790, Note_on_c, 0, 54, 40
1, 102834, Note_on_c, 0, 72, 0
1, 102938, Note_on_c, 0, 50, 0
1, 102976, Note_on_c, 0, 69, 65
1, 102990, Note_on_c, 0, 62, 33
1, 103028, Note_on_c, 0, 70, 0
1, 103040, Note_on_c, 0, 54, 0
1, 103170, Note_on_c, 0, 62, 0
1, 103258, Note_on_c, 0, 70, 66
1, 103300, Note_on_c, 0, 55, 34
1, 103348, Note_on_c, 0, 69, 0
1, 103518, Note_on_c, 0, 62, 30
1, 103698, Note_on_c, 0, 62, 0
1, 103746, Note_on_c, 0, 58, 26
1, 103870, Note_on_c, 0, 55, 0
1, 103974, Note_on_c, 0, 74, 66
1, 103998, Note_on_c, 0, 62, 31
1, 104008, Note_on_c, 0, 58, 0
1, 104136, Note_on_c, 0, 70, 0
1, 104152, Note_on_c, 0, 62, 0
1, 104292, Note_on_c, 0, 79, 75
1, 104324, Note_on_c, 0, 55, 27
1, 104392, Note_on_c, 0, 74, 0
1, 104552, Note_on_c, 0, 62, 37
1, 104746, Note_on_c, 0, 62, 0
1, 104762, Note_on_c, 0, 58, 33
1, 104852, Note_on_c, 0, 55, 0
1, 104980, Note_on_c, 0, 58, 0
1, 105006, Note_on_c, 0, 62, 43
1, 105184, Note_on_c, 0, 62, 0
1, 105254, Note_on_c, 0, 55, 42
1, 105410, Note_on_c, 0, 79, 0
1, 105448, Note_on_c, 0, 63, 47
1, 105692, Note_on_c, 0, 58, 42
1, 105708, Note_on_c, 0, 63, 0
1, 105822, Note_on_c, 0, 55, 0
1, 105916, Note_on_c, 0, 63, 64
1, 105926, Note_on_c, 0, 58, 0
1, 106094, Note_on_c, 0, 63, 0
1, 106238, Note_on_c, 0, 77, 83
1, 106242, Note_on_c, 0, 57, 31
1, 106508, Note_on_c, 0, 65, 38
1, 106748, Note_on_c, 0, 65, 0
1, 106754, Note_on_c, 0, 60, 41
1, 106862, Note_on_c, 0, 57, 0
1, 106980, Note_on_c, 0, 60, 0
1, 106980, Note_on_c, 0, 65, 46
1, 107172, Note_on_c, 0, 65, 0
1, 107200, Note_on_c, 0, 57, 41
1, 107494, Note_on_c, 0, 81, 85
1, 107516, Note_on_c, 0, 65, 36
1, 107586, Note_on_c, 0, 77, 0
1, 107784, Note_on_c, 0, 65, 0
1, 107810, Note_on_c, 0, 84, 78
1, 107818, Note_on_c, 0, 60, 25
1, 107858, Note_on_c, 0, 81, 0
1, 108062, Note_on_c, 0, 57, 0
1, 108080, Note_on_c, 0, 82, 61
1, 108116, Note_on_c, 0, 65, 22
1, 108186, Note_on_c, 0, 84, 0
1, 108220, Note_on_c, 0, 60, 0
1, 108242, Note_on_c, 0, 65, 0
1, 108330, Note_on_c, 0, 81, 59
1, 108354, Note_on_c, 0, 57, 19
1, 108428, Note_on_c, 0, 82, 0
1, 108570, Note_on_c, 0, 79, 71
1, 108596, Note_on_c, 0, 65, 23
1, 108634, Note_on_c, 0, 81, 0
1, 108788, Note_on_c, 0, 77, 68
1, 108792, Note_on_c, 0, 65, 0
1, 108828, Note_on_c, 0, 60, 25
1, 108836, Note_on_c, 0, 79, 0
1, 108962, Note_on_c, 0, 60, 0
1, 109014, Note_on_c, 0, 75, 66
1, 109062, Note_on_c, 0, 65, 26
1, 109096, Note_on_c, 0, 77, 0
1, 109156, Note_on_c, 0, 65, 0
1, 109222, Note_on_c, 0, 57, 0
1, 109278, Note_on_c, 0, 74, 69
1, 109281, Note_on_c, 0, 58, 29
1, 109412, Note_on_c, 0, 75, 0
1, 109526, Note_on_c, 0, 65, 34
1, 109746, Note_on_c, 0, 65, 0
1, 109788, Note_on_c, 0, 62, 27
1, 109998, Note_on_c, 0, 62, 0
1, 110038, Note_on_c, 0, 65, 36
1, 110192, Note_on_c, 0, 65, 0
1, 110220, Note_on_c, 0, 58, 0
1, 110264, Note_on_c, 0, 55, 40
1, 110502, Note_on_c, 0, 79, 80
1, 110505, Note_on_c, 0, 62, 36
1, 110572, Note_on_c, 0, 74, 0
1, 110760, Note_on_c, 0, 62, 0
1, 110792, Note_on_c, 0, 82, 53
1, 110816, Note_on_c, 0, 58, 21
1, 110854, Note_on_c, 0, 79, 0
1, 111050, Note_on_c, 0, 55, 0
1, 111068, Note_on_c, 0, 81, 55
1, 111096, Note_on_c, 0, 62, 28
1, 111102, Note_on_c, 0, 58, 0
1, 111168, Note_on_c, 0, 82, 0
1, 111180, Note_on_c, 0, 62, 0
1, 111320, Note_on_c, 0, 79, 64
1, 111346, Note_on_c, 0, 50, 39
1, 111386, Note_on_c, 0, 81, 0
1, 111564, Note_on_c, 0, 77, 60
1, 111572, Note_on_c, 0, 58, 27
1, 111588, Note_on_c, 0, 79, 0
1, 111782, Note_on_c, 0, 75, 64
1, 111804, Note_on_c, 0, 58, 0
1, 111840, Note_on_c, 0, 53, 54
1, 111850, Note_on_c, 0, 77, 0
1, 112020, Note_on_c, 0, 74, 76
1, 112042, Note_on_c, 0, 58, 25
1, 112054, Note_on_c, 0, 53, 0
1, 112088, Note_on_c, 0, 75, 0
1, 112254, Note_on_c, 0, 71, 68
1, 112286, Note_on_c, 0, 50, 0
1, 112292, Note_on_c, 0, 74, 0
1, 112302, Note_on_c, 0, 58, 0
1, 112348, Note_on_c, 0, 51, 35
1, 112506, Note_on_c, 0, 72, 67
1, 112548, Note_on_c, 0, 60, 27
1, 112564, Note_on_c, 0, 71, 0
1, 112736, Note_on_c, 0, 60, 0
1, 112758, Note_on_c, 0, 75, 49
1, 112794, Note_on_c, 0, 55, 24
1, 112800, Note_on_c, 0, 72, 0
1, 113036, Note_on_c, 0, 79, 54
1, 113062, Note_on_c, 0, 75, 0
1, 113068, Note_on_c, 0, 55, 0
1, 113074, Note_on_c, 0, 60, 22
1, 113330, Note_on_c, 0, 60, 0
1, 113348, Note_on_c, 0, 70, 42
1, 113362, Note_on_c, 0, 53, 44
1, 113430, Note_on_c, 0, 79, 0
1, 113508, Note_on_c, 0, 51, 0
1, 113648, Note_on_c, 0, 62, 27
1, 113848, Note_on_c, 0, 62, 0
1, 113920, Note_on_c, 0, 58, 23
1, 113938, Note_on_c, 0, 70, 0
1, 113946, Note_on_c, 0, 53, 0
1, 114130, Note_on_c, 0, 58, 0
1, 114144, Note_on_c, 0, 70, 59
1, 114180, Note_on_c, 0, 62, 25
1, 114290, Note_on_c, 0, 62, 0
1, 114428, Note_on_c, 0, 74, 61
1, 114462, Note_on_c, 0, 53, 32
1, 114466, Note_on_c, 0, 70, 0
1, 114674, Note_on_c, 0, 63, 35
1, 114684, Note_on_c, 0, 72, 61
1, 114748, Note_on_c, 0, 74, 0
1, 114914, Note_on_c, 0, 63, 0
1, 114952, Note_on_c, 0, 70, 52
1, 115006, Note_on_c, 0, 60, 21
1, 115014, Note_on_c, 0, 72, 0
1, 115272, Note_on_c, 0, 72, 56
1, 115278, Note_on_c, 0, 60, 0
1, 115286, Note_on_c, 0, 63, 40
1, 115296, Note_on_c, 0, 70, 0
1, 115300, Note_on_c, 0, 53, 0
1, 115438, Note_on_c, 0, 63, 0
1, 115466, Note_on_c, 0, 72, 0
1, 115744, Note_on_c, 0, 72, 50
1, 115760, Note_on_c, 0, 69, 26
1, 115778, Note_on_c, 0, 63, 37
1, 115784, Note_on_c, 0, 58, 14
1, 117016, Note_on_c, 0, 70, 28
1, 117034, Note_on_c, 0, 63, 0
1, 117037, Note_on_c, 0, 69, 0
1, 117090, Note_on_c, 0, 62, 16
1, 117124, Note_on_c, 0, 72, 0
1, 117326, Note_on_c, 0, 69, 37
1, 117452, Note_on_c, 0, 70, 0
1, 117588, Note_on_c, 0, 72, 52
1, 117652, Note_on_c, 0, 69, 0
1, 117812, Note_on_c, 0, 70, 59
1, 117878, Note_on_c, 0, 72, 0
1, 117904, Note_on_c, 0, 62, 0
1, 117932, Note_on_c, 0, 58, 0
1, 118048, Note_on_c, 0, 74, 66
1, 118104, Note_on_c, 0, 70, 0
1, 118262, Note_on_c, 0, 72, 60
1, 118306, Note_on_c, 0, 74, 0
1, 118504, Note_on_c, 0, 75, 53
1, 118568, Note_on_c, 0, 72, 0
1, 118772, Note_on_c, 0, 74, 60
1, 118836, Note_on_c, 0, 75, 0
1, 119192, Note_on_c, 0, 56, 27
1, 119202, Note_on_c, 0, 77, 53
1, 119272, Note_on_c, 0, 74, 0
1, 119564, Note_on_c, 0, 65, 17
1, 119778, Note_on_c, 0, 65, 0
1, 119828, Note_on_c, 0, 60, 25
1, 120058, Note_on_c, 0, 60, 0
1, 120118, Note_on_c, 0, 65, 21
1, 120194, Note_on_c, 0, 65, 0
1, 120228, Note_on_c, 0, 56, 0
1, 120358, Note_on_c, 0, 55, 34
1, 120606, Note_on_c, 0, 80, 58
1, 120634, Note_on_c, 0, 62, 27
1, 120680, Note_on_c, 0, 77, 0
1, 120840, Note_on_c, 0, 62, 0
1, 120864, Note_on_c, 0, 79, 73
1, 120884, Note_on_c, 0, 59, 33
1, 120954, Note_on_c, 0, 80, 0
1, 121086, Note_on_c, 0, 77, 72
1, 121108, Note_on_c, 0, 79, 0
1, 121124, Note_on_c, 0, 62, 31
1, 121130, Note_on_c, 0, 59, 0
1, 121234, Note_on_c, 0, 62, 0
1, 121286, Note_on_c, 0, 55, 0
1, 121298, Note_on_c, 0, 75, 69
1, 121340, Note_on_c, 0, 53, 54
1, 121378, Note_on_c, 0, 77, 0
1, 121534, Note_on_c, 0, 74, 74
1, 121562, Note_on_c, 0, 62, 41
1, 121622, Note_on_c, 0, 75, 0
1, 121678, Note_on_c, 0, 62, 0
1, 121752, Note_on_c, 0, 72, 69
1, 121784, Note_on_c, 0, 74, 0
1, 121792, Note_on_c, 0, 55, 42
1, 121880, Note_on_c, 0, 55, 0
1, 121980, Note_on_c, 0, 71, 85
1, 122012, Note_on_c, 0, 72, 0
1, 122022, Note_on_c, 0, 62, 36
1, 122054, Note_on_c, 0, 53, 0
1, 122170, Note_on_c, 0, 62, 0
1, 122250, Note_on_c, 0, 72, 78
1, 122260, Note_on_c, 0, 51, 44
1, 122310, Note_on_c, 0, 71, 0
1, 122488, Note_on_c, 0, 60, 43
1, 122692, Note_on_c, 0, 60, 0
1, 122752, Note_on_c, 0, 55, 47
1, 123014, Note_on_c, 0, 55, 0
1, 123024, Note_on_c, 0, 75, 64
1, 123056, Note_on_c, 0, 60, 35
1, 123180, Note_on_c, 0, 72, 0
1, 123234, Note_on_c, 0, 60, 0
1, 123300, Note_on_c, 0, 79, 73
1, 123303, Note_on_c, 0, 50, 49
1, 123372, Note_on_c, 0, 51, 0
1, 123404, Note_on_c, 0, 75, 0
1, 123532, Note_on_c, 0, 59, 39
1, 123744, Note_on_c, 0, 59, 0
1, 123776, Note_on_c, 0, 53, 63
1, 123994, Note_on_c, 0, 53, 0
1, 124006, Note_on_c, 0, 59, 51
1, 124164, Note_on_c, 0, 50, 0
1, 124184, Note_on_c, 0, 59, 0
1, 124210, Note_on_c, 0, 79, 0
1, 124210, Note_on_c, 0, 48, 44
1, 124432, Note_on_c, 0, 60, 49
1, 124676, Note_on_c, 0, 51, 46
1, 124686, Note_on_c, 0, 60, 0
1, 124900, Note_on_c, 0, 60, 52
1, 124920, Note_on_c, 0, 51, 0
1, 125008, Note_on_c, 0, 60, 0
1, 125060, Note_on_c, 0, 48, 0
1, 125188, Note_on_c, 0, 79, 91
1, 125200, Note_on_c, 0, 49, 52
1, 125440, Note_on_c, 0, 58, 32
1, 125686, Note_on_c, 0, 58, 0
1, 125698, Note_on_c, 0, 52, 58
1, 125924, Note_on_c, 0, 58, 44
1, 125928, Note_on_c, 0, 52, 0
1, 126130, Note_on_c, 0, 58, 0
1, 126164, Note_on_c, 0, 50, 57
1, 126236, Note_on_c, 0, 49, 0
1, 126390, Note_on_c, 0, 78, 76
1, 126398, Note_on_c, 0, 58, 39
1, 126484, Note_on_c, 0, 79, 0
1, 126666, Note_on_c, 0, 58, 0
1, 126668, Note_on_c, 0, 81, 80
1, 126692, Note_on_c, 0, 55, 49
1, 126732, Note_on_c, 0, 78, 0
1, 126920, Note_on_c, 0, 79, 93
1, 126930, Note_on_c, 0, 58, 35
1, 126932, Note_on_c, 0, 55, 0
1, 127020, Note_on_c, 0, 81, 0
1, 127144, Note_on_c, 0, 58, 0
1, 127178, Note_on_c, 0, 50, 0
1, 127186, Note_on_c, 0, 82, 73
1, 127218, Note_on_c, 0, 51, 51
1, 127236, Note_on_c, 0, 79, 0
1, 127416, Note_on_c, 0, 73, 59
1, 127440, Note_on_c, 0, 58, 33
1, 127496, Note_on_c, 0, 82, 0
1, 127676, Note_on_c, 0, 58, 0
1, 127688, Note_on_c, 0, 82, 68
1, 127694, Note_on_c, 0, 73, 0
1, 127734, Note_on_c, 0, 55, 29
1, 127988, Note_on_c, 0, 55, 0
1, 127988, Note_on_c, 0, 73, 62
1, 128004, Note_on_c, 0, 58, 21
1, 128032, Note_on_c, 0, 82, 0
1, 128194, Note_on_c, 0, 73, 0
1, 128194, Note_on_c, 0, 58, 0
1, 128320, Note_on_c, 0, 51, 0
1, 128368, Note_on_c, 0, 73, 54
1, 128412, Note_on_c, 0, 50, 24
1, 128676, Note_on_c, 0, 58, 22
1, 128938, Note_on_c, 0, 58, 0
1, 129000, Note_on_c, 0, 55, 24
1, 129088, Note_on_c, 0, 50, 0
1, 129268, Note_on_c, 0, 55, 0
1, 129290, Note_on_c, 0, 58, 21
1, 129480, Note_on_c, 0, 58, 0
1, 129580, Note_on_c, 0, 74, 41
1, 129618, Note_on_c, 0, 50, 21
1, 129704, Note_on_c, 0, 73, 0
1, 129842, Note_on_c, 0, 57, 25
1, 130042, Note_on_c, 0, 57, 0
1, 130082, Note_on_c, 0, 54, 33
1, 130106, Note_on_c, 0, 50, 0
1, 130300, Note_on_c, 0, 54, 0
1, 130346, Note_on_c, 0, 57, 26
1, 130504, Note_on_c, 0, 57, 0
1, 130578, Note_on_c, 0, 50, 34
1, 130596, Note_on_c, 0, 74, 0
1, 130812, Note_on_c, 0, 57, 26
1, 130984, Note_on_c, 0, 57, 0
1, 131044, Note_on_c, 0, 54, 37
1, 131276, Note_on_c, 0, 54, 0
1, 131296, Note_on_c, 0, 57, 36
1, 131474, Note_on_c, 0, 57, 0
1, 131580, Note_on_c, 0, 75, 62
1, 131596, Note_on_c, 0, 48, 30
1, 131636, Note_on_c, 0, 50, 0
1, 131858, Note_on_c, 0, 57, 30
1, 132076, Note_on_c, 0, 57, 0
1, 132102, Note_on_c, 0, 54, 34
1, 132216, Note_on_c, 0, 48, 0
1, 132332, Note_on_c, 0, 57, 38
1, 132480, Note_on_c, 0, 54, 0
1, 132512, Note_on_c, 0, 57, 0
1, 132572, Note_on_c, 0, 48, 39
1, 132824, Note_on_c, 0, 72, 68
1, 132827, Note_on_c, 0, 57, 29
1, 132894, Note_on_c, 0, 75, 0
1, 133058, Note_on_c, 0, 57, 0
1, 133076, Note_on_c, 0, 81, 84
1, 133098, Note_on_c, 0, 54, 41
1, 133136, Note_on_c, 0, 72, 0
1, 133236, Note_on_c, 0, 48, 0
1, 133282, Note_on_c, 0, 78, 86
1, 133312, Note_on_c, 0, 57, 32
1, 133354, Note_on_c, 0, 81, 0
1, 133500, Note_on_c, 0, 57, 0
1, 133532, Note_on_c, 0, 84, 98
1, 133542, Note_on_c, 0, 48, 32
1, 133547, Note_on_c, 0, 78, 0
1, 133551, Note_on_c, 0, 54, 0
1, 133768, Note_on_c, 0, 81, 91
1, 133796, Note_on_c, 0, 57, 33
1, 133814, Note_on_c, 0, 84, 0
1, 134054, Note_on_c, 0, 57, 0
1, 134082, Note_on_c, 0, 87, 78
1, 134110, Note_on_c, 0, 81, 0
1, 134114, Note_on_c, 0, 54, 35
1, 134368, Note_on_c, 0, 78, 79
1, 134386, Note_on_c, 0, 48, 0
1, 134416, Note_on_c, 0, 57, 28
1, 134448, Note_on_c, 0, 54, 0
1, 134460, Note_on_c, 0, 87, 0
1, 134638, Note_on_c, 0, 57, 0
1, 134698, Note_on_c, 0, 86, 83
1, 134708, Note_on_c, 0, 46, 35
1, 134742, Note_on_c, 0, 78, 0
1, 135008, Note_on_c, 0, 55, 45
1, 135236, Note_on_c, 0, 55, 0
1, 135270, Note_on_c, 0, 50, 44
1, 135398, Note_on_c, 0, 46, 0
1, 135534, Note_on_c, 0, 55, 45
1, 135570, Note_on_c, 0, 50, 0
1, 135698, Note_on_c, 0, 55, 0
1, 135768, Note_on_c, 0, 46, 47
1, 136032, Note_on_c, 0, 81, 77
1, 136056, Note_on_c, 0, 55, 34
1, 136114, Note_on_c, 0, 86, 0
1, 136202, Note_on_c, 0, 55, 0
1, 136322, Note_on_c, 0, 82, 65
1, 136346, Note_on_c, 0, 50, 36
1, 136382, Note_on_c, 0, 81, 0
1, 136494, Note_on_c, 0, 46, 0
1, 136578, Note_on_c, 0, 78, 68
1, 136594, Note_on_c, 0, 55, 34
1, 136608, Note_on_c, 0, 82, 0
1, 136624, Note_on_c, 0, 50, 0
1, 136690, Note_on_c, 0, 55, 0
1, 136838, Note_on_c, 0, 46, 33
1, 136846, Note_on_c, 0, 79, 70
1, 136852, Note_on_c, 0, 78, 0
1, 137076, Note_on_c, 0, 73, 62
1, 137112, Note_on_c, 0, 55, 43
1, 137126, Note_on_c, 0, 79, 0
1, 137278, Note_on_c, 0, 55, 0
1, 137324, Note_on_c, 0, 74, 79
1, 137364, Note_on_c, 0, 50, 39
1, 137370, Note_on_c, 0, 73, 0
1, 137482, Note_on_c, 0, 50, 0
1, 137548, Note_on_c, 0, 70, 63
1, 137558, Note_on_c, 0, 74, 0
1, 137596, Note_on_c, 0, 55, 42
1, 137706, Note_on_c, 0, 70, 0
1, 137826, Note_on_c, 0, 70, 62
1, 137834, Note_on_c, 0, 55, 0
1, 137834, Note_on_c, 0, 48, 35
1, 137900, Note_on_c, 0, 46, 0
1, 138090, Note_on_c, 0, 69, 63
1, 138108, Note_on_c, 0, 57, 35
1, 138166, Note_on_c, 0, 70, 0
1, 138340, Note_on_c, 0, 57, 0
1, 138342, Note_on_c, 0, 72, 70
1, 138360, Note_on_c, 0, 51, 39
1, 138400, Note_on_c, 0, 69, 0
1, 138634, Note_on_c, 0, 75, 65
1, 138656, Note_on_c, 0, 57, 31
1, 138659, Note_on_c, 0, 51, 0
1, 138690, Note_on_c, 0, 72, 0
1, 138948, Note_on_c, 0, 57, 0
1, 138972, Note_on_c, 0, 48, 0
1, 138975, Note_on_c, 0, 67, 49
1, 139012, Note_on_c, 0, 50, 28
1, 139110, Note_on_c, 0, 75, 0
1, 139254, Note_on_c, 0, 58, 28
1, 139506, Note_on_c, 0, 58, 0
1, 139586, Note_on_c, 0, 55, 22
1, 139598, Note_on_c, 0, 50, 0
1, 139636, Note_on_c, 0, 67, 0
1, 139800, Note_on_c, 0, 67, 51
1, 139806, Note_on_c, 0, 55, 0
1, 139818, Note_on_c, 0, 58, 25
1, 140022, Note_on_c, 0, 58, 0
1, 140072, Note_on_c, 0, 70, 42
1, 140102, Note_on_c, 0, 50, 30
1, 140138, Note_on_c, 0, 67, 0
1, 140350, Note_on_c, 0, 69, 43
1, 140384, Note_on_c, 0, 60, 21
1, 140436, Note_on_c, 0, 70, 0
1, 140628, Note_on_c, 0, 60, 0
1, 140668, Note_on_c, 0, 67, 43
1, 140690, Note_on_c, 0, 57, 23
1, 140736, Note_on_c, 0, 69, 0
1, 141014, Note_on_c, 0, 69, 38
1, 141032, Note_on_c, 0, 67, 0
1, 141044, Note_on_c, 0, 60, 24
1, 141072, Note_on_c, 0, 57, 0
1, 141252, Note_on_c, 0, 60, 0
1, 141276, Note_on_c, 0, 69, 0
1, 141316, Note_on_c, 0, 50, 0
1, 141496, Note_on_c, 0, 69, 35
1, 141522, Note_on_c, 0, 66, 18
1, 141548, Note_on_c, 0, 60, 22
1, 141580, Note_on_c, 0, 55, 9
1, 142954, Note_on_c, 0, 60, 0
1, 142954, Note_on_c, 0, 58, 11
1, 142960, Note_on_c, 0, 66, 0
1, 142962, Note_on_c, 0, 67, 18
1, 143018, Note_on_c, 0, 69, 0
1, 143424, Note_on_c, 0, 66, 29
1, 143484, Note_on_c, 0, 67, 0
1, 143768, Note_on_c, 0, 67, 36
1, 143828, Note_on_c, 0, 66, 0
1, 144036, Note_on_c, 0, 68, 40
1, 144038, Note_on_c, 0, 58, 0
1, 144048, Note_on_c, 0, 55, 0
1, 144078, Note_on_c, 0, 67, 0
1, 144344, Note_on_c, 0, 69, 36
1, 144382, Note_on_c, 0, 68, 0
1, 144644, Note_on_c, 0, 68, 26
1, 144688, Note_on_c, 0, 69, 0
1, 144998, Note_on_c, 0, 69, 20
1, 145046, Note_on_c, 0, 68, 0
1, 145380, Note_on_c, 0, 70, 21
1, 145440, Note_on_c, 0, 69, 0
1, 146040, Note_on_c, 0, 71, 36
1, 146042, Note_on_c, 0, 70, 0
1, 146064, Note_on_c, 0, 55, 13
1, 146460, Note_on_c, 0, 62, 19
1, 146714, Note_on_c, 0, 62, 0
1, 146770, Note_on_c, 0, 59, 14
1, 146812, Note_on_c, 0, 55, 0
1, 146974, Note_on_c, 0, 59, 0
1, 147038, Note_on_c, 0, 62, 16
1, 147144, Note_on_c, 0, 62, 0
1, 147306, Note_on_c, 0, 55, 13
1, 147472, Note_on_c, 0, 55, 0
1, 147562, Note_on_c, 0, 62, 12
1, 147680, Note_on_c, 0, 62, 0
1, 147834, Note_on_c, 0, 59, 7
1, 148078, Note_on_c, 0, 59, 0
1, 148090, Note_on_c, 0, 62, 17
1, 148288, Note_on_c, 0, 62, 0
1, 148354, Note_on_c, 0, 74, 32
1, 148362, Note_on_c, 0, 57, 13
1, 148410, Note_on_c, 0, 71, 0
1, 148640, Note_on_c, 0, 72, 36
1, 148674, Note_on_c, 0, 62, 13
1, 148698, Note_on_c, 0, 74, 0
1, 148842, Note_on_c, 0, 62, 0
1, 148884, Note_on_c, 0, 71, 47
1, 148912, Note_on_c, 0, 72, 0
1, 148934, Note_on_c, 0, 60, 13
1, 149070, Note_on_c, 0, 60, 0
1, 149118, Note_on_c, 0, 72, 50
1, 149150, Note_on_c, 0, 57, 0
1, 149150, Note_on_c, 0, 71, 0
1, 149158, Note_on_c, 0, 62, 22
1, 149274, Note_on_c, 0, 62, 0
1, 149394, Note_on_c, 0, 74, 44
1, 149400, Note_on_c, 0, 55, 22
1, 149440, Note_on_c, 0, 72, 0
1, 149666, Note_on_c, 0, 62, 18
1, 149836, Note_on_c, 0, 62, 0
1, 149904, Note_on_c, 0, 59, 13
1, 150000, Note_on_c, 0, 55, 0
1, 150128, Note_on_c, 0, 71, 37
1, 150130, Note_on_c, 0, 59, 0
1, 150164, Note_on_c, 0, 62, 17
1, 150202, Note_on_c, 0, 74, 0
1, 150334, Note_on_c, 0, 62, 0
1, 150398, Note_on_c, 0, 67, 29
1, 150408, Note_on_c, 0, 71, 0
1, 150424, Note_on_c, 0, 55, 23
1, 150668, Note_on_c, 0, 62, 21
1, 150730, Note_on_c, 0, 55, 0
1, 150804, Note_on_c, 0, 67, 0
1, 150850, Note_on_c, 0, 62, 0
1, 150936, Note_on_c, 0, 59, 13
1, 151052, Note_on_c, 0, 59, 0
1, 151162, Note_on_c, 0, 62, 16
1, 151310, Note_on_c, 0, 62, 0
1, 151410, Note_on_c, 0, 55, 30
1, 151678, Note_on_c, 0, 62, 29
1, 151872, Note_on_c, 0, 62, 0
1, 151894, Note_on_c, 0, 55, 0
1, 151958, Note_on_c, 0, 59, 10
1, 152086, Note_on_c, 0, 59, 0
1, 152188, Note_on_c, 0, 62, 27
1, 152290, Note_on_c, 0, 62, 0
1, 152512, Note_on_c, 0, 79, 73
1, 152516, Note_on_c, 0, 55, 27
1, 152808, Note_on_c, 0, 64, 22
1, 152986, Note_on_c, 0, 64, 0
1, 153044, Note_on_c, 0, 60, 25
1, 153080, Note_on_c, 0, 55, 0
1, 153240, Note_on_c, 0, 60, 0
1, 153280, Note_on_c, 0, 64, 32
1, 153420, Note_on_c, 0, 64, 0
1, 153512, Note_on_c, 0, 55, 36
1, 153764, Note_on_c, 0, 64, 24
1, 153876, Note_on_c, 0, 64, 0
1, 153986, Note_on_c, 0, 81, 53
1, 154020, Note_on_c, 0, 60, 24
1, 154023, Note_on_c, 0, 79, 0
1, 154048, Note_on_c, 0, 55, 0
1, 154160, Note_on_c, 0, 60, 0
1, 154246, Note_on_c, 0, 79, 78
1, 154272, Note_on_c, 0, 64, 22
1, 154340, Note_on_c, 0, 81, 0
1, 154392, Note_on_c, 0, 64, 0
1, 154472, Note_on_c, 0, 78, 64
1, 154504, Note_on_c, 0, 55, 25
1, 154560, Note_on_c, 0, 79, 0
1, 154714, Note_on_c, 0, 76, 55
1, 154717, Note_on_c, 0, 61, 35
1, 154798, Note_on_c, 0, 78, 0
1, 154914, Note_on_c, 0, 61, 0
1, 154944, Note_on_c, 0, 74, 64
1, 154960, Note_on_c, 0, 58, 20
1, 154978, Note_on_c, 0, 76, 0
1, 155082, Note_on_c, 0, 55, 0
1, 155166, Note_on_c, 0, 73, 58
1, 155206, Note_on_c, 0, 61, 25
1, 155208, Note_on_c, 0, 74, 0
1, 155218, Note_on_c, 0, 58, 0
1, 155380, Note_on_c, 0, 61, 0
1, 155456, Note_on_c, 0, 74, 49
1, 155496, Note_on_c, 0, 55, 24
1, 155528, Note_on_c, 0, 73, 0
1, 155728, Note_on_c, 0, 62, 27
1, 155956, Note_on_c, 0, 62, 0
1, 156038, Note_on_c, 0, 59, 15
1, 156156, Note_on_c, 0, 55, 0
1, 156290, Note_on_c, 0, 59, 0
1, 156308, Note_on_c, 0, 71, 37
1, 156358, Note_on_c, 0, 62, 10
1, 156380, Note_on_c, 0, 74, 0
1, 156486, Note_on_c, 0, 62, 0
1, 156580, Note_on_c, 0, 67, 29
1, 156606, Note_on_c, 0, 55, 24
1, 156650, Note_on_c, 0, 71, 0
1, 156826, Note_on_c, 0, 62, 25
1, 156916, Note_on_c, 0, 55, 0
1, 157010, Note_on_c, 0, 62, 0
1, 157088, Note_on_c, 0, 59, 21
1, 157316, Note_on_c, 0, 59, 0
1, 157334, Note_on_c, 0, 62, 19
1, 157406, Note_on_c, 0, 67, 0
1, 157472, Note_on_c, 0, 62, 0
1, 157574, Note_on_c, 0, 55, 24
1, 157814, Note_on_c, 0, 62, 23
1, 157822, Note_on_c, 0, 55, 0
1, 157986, Note_on_c, 0, 62, 0
1, 158042, Note_on_c, 0, 59, 23
1, 158288, Note_on_c, 0, 62, 25
1, 158292, Note_on_c, 0, 59, 0
1, 158486, Note_on_c, 0, 62, 0
1, 158580, Note_on_c, 0, 57, 15
1, 158580, Note_on_c, 0, 72, 37
1, 158854, Note_on_c, 0, 62, 19
1, 159042, Note_on_c, 0, 57, 0
1, 159064, Note_on_c, 0, 62, 0
1, 159118, Note_on_c, 0, 60, 18
1, 159346, Note_on_c, 0, 69, 23
1, 159350, Note_on_c, 0, 60, 0
1, 159354, Note_on_c, 0, 62, 25
1, 159386, Note_on_c, 0, 72, 0
1, 159490, Note_on_c, 0, 62, 0
1, 159500, Note_on_c, 0, 69, 0
1, 159584, Note_on_c, 0, 66, 23
1, 159590, Note_on_c, 0, 57, 24
1, 159842, Note_on_c, 0, 66, 0
1, 159842, Note_on_c, 0, 62, 20
1, 159994, Note_on_c, 0, 62, 0
1, 160088, Note_on_c, 0, 69, 37
1, 160118, Note_on_c, 0, 60, 19
1, 160210, Note_on_c, 0, 57, 0
1, 160338, Note_on_c, 0, 69, 0
1, 160344, Note_on_c, 0, 62, 21
1, 160368, Note_on_c, 0, 60, 0
1, 160452, Note_on_c, 0, 62, 0
1, 160544, Note_on_c, 0, 71, 60
1, 160578, Note_on_c, 0, 57, 20
1, 160792, Note_on_c, 0, 71, 0
1, 160804, Note_on_c, 0, 62, 32
1, 160926, Note_on_c, 0, 62, 0
1, 161000, Note_on_c, 0, 72, 58
1, 161028, Note_on_c, 0, 60, 27
1, 161246, Note_on_c, 0, 72, 0
1, 161258, Note_on_c, 0, 62, 27
1, 161308, Note_on_c, 0, 60, 0
1, 161362, Note_on_c, 0, 62, 0
1, 161430, Note_on_c, 0, 57, 0
1, 161468, Note_on_c, 0, 74, 65
1, 161516, Note_on_c, 0, 55, 25
1, 161732, Note_on_c, 0, 62, 32
1, 161882, Note_on_c, 0, 62, 0
1, 161970, Note_on_c, 0, 59, 32
1, 162158, Note_on_c, 0, 59, 0
1, 162170, Note_on_c, 0, 71, 62
1, 162190, Note_on_c, 0, 55, 0
1, 162200, Note_on_c, 0, 62, 31
1, 162208, Note_on_c, 0, 74, 0
1, 162344, Note_on_c, 0, 62, 0
1, 162428, Note_on_c, 0, 79, 69
1, 162433, Note_on_c, 0, 52, 46
1, 162476, Note_on_c, 0, 71, 0
1, 162654, Note_on_c, 0, 59, 39
1, 162832, Note_on_c, 0, 59, 0
1, 162904, Note_on_c, 0, 55, 35
1, 163040, Note_on_c, 0, 52, 0
1, 163122, Note_on_c, 0, 55, 0
1, 163132, Note_on_c, 0, 59, 41
1, 163268, Note_on_c, 0, 59, 0
1, 163342, Note_on_c, 0, 47, 38
1, 163396, Note_on_c, 0, 79, 0
1, 163574, Note_on_c, 0, 55, 43
1, 163810, Note_on_c, 0, 55, 0
1, 163820, Note_on_c, 0, 50, 53
1, 164062, Note_on_c, 0, 55, 58
1, 164070, Note_on_c, 0, 50, 0
1, 164290, Note_on_c, 0, 55, 0
1, 164334, Note_on_c, 0, 81, 72
1, 164362, Note_on_c, 0, 48, 44
1, 164370, Note_on_c, 0, 52, 35
1, 164416, Note_on_c, 0, 47, 0
1, 164588, Note_on_c, 0, 79, 81
1, 164688, Note_on_c, 0, 81, 0
1, 164806, Note_on_c, 0, 78, 79
1, 164852, Note_on_c, 0, 79, 0
1, 165026, Note_on_c, 0, 79, 83
1, 165062, Note_on_c, 0, 78, 0
1, 165256, Note_on_c, 0, 78, 74
1, 165288, Note_on_c, 0, 55, 36
1, 165322, Note_on_c, 0, 79, 0
1, 165398, Note_on_c, 0, 52, 0
1, 165492, Note_on_c, 0, 76, 68
1, 165560, Note_on_c, 0, 78, 0
1, 165722, Note_on_c, 0, 75, 54
1, 165758, Note_on_c, 0, 76, 0
1, 165962, Note_on_c, 0, 76, 45
1, 165983, Note_on_c, 0, 75, 0
1, 166208, Note_on_c, 0, 74, 41
1, 166234, Note_on_c, 0, 76, 0
1, 166236, Note_on_c, 0, 52, 32
1, 166314, Note_on_c, 0, 55, 0
1, 166442, Note_on_c, 0, 72, 48
1, 166476, Note_on_c, 0, 74, 0
1, 166684, Note_on_c, 0, 71, 53
1, 166706, Note_on_c, 0, 72, 0
1, 166938, Note_on_c, 0, 72, 46
1, 166948, Note_on_c, 0, 71, 0
1, 167278, Note_on_c, 0, 71, 46
1, 167284, Note_on_c, 0, 50, 25
1, 167290, Note_on_c, 0, 48, 0
1, 167292, Note_on_c, 0, 52, 0
1, 167314, Note_on_c, 0, 55, 25
1, 167360, Note_on_c, 0, 72, 0
1, 168204, Note_on_c, 0, 71, 0
1, 168250, Note_on_c, 0, 72, 20
1, 168372, Note_on_c, 0, 72, 0
1, 168380, Note_on_c, 0, 71, 42
1, 168566, Note_on_c, 0, 71, 0
1, 168576, Note_on_c, 0, 55, 0
1, 168578, Note_on_c, 0, 69, 32
1, 168592, Note_on_c, 0, 54, 22
1, 169102, Note_on_c, 0, 74, 44
1, 169143, Note_on_c, 0, 69, 0
1, 169578, Note_on_c, 0, 73, 26
1, 169580, Note_on_c, 0, 74, 0
1, 169680, Note_on_c, 0, 50, 0
1, 169728, Note_on_c, 0, 54, 0
1, 170104, Note_on_c, 0, 72, 20
1, 170188, Note_on_c, 0, 73, 0
1, 170744, Note_on_c, 0, 71, 32
1, 170764, Note_on_c, 0, 55, 22
1, 170900, Note_on_c, 0, 72, 0
1, 171114, Note_on_c, 0, 62, 23
1, 171332, Note_on_c, 0, 62, 0
1, 171356, Note_on_c, 0, 55, 0
1, 171382, Note_on_c, 0, 59, 19
1, 171602, Note_on_c, 0, 59, 0
1, 171646, Note_on_c, 0, 62, 19
1, 171776, Note_on_c, 0, 62, 0
1, 171902, Note_on_c, 0, 55, 21
1, 172124, Note_on_c, 0, 71, 0
1, 172134, Note_on_c, 0, 55, 0
1, 172138, Note_on_c, 0, 67, 34
1, 172154, Note_on_c, 0, 62, 18
1, 172270, Note_on_c, 0, 62, 0
1, 172374, Note_on_c, 0, 71, 66
1, 172378, Note_on_c, 0, 67, 0
1, 172400, Note_on_c, 0, 59, 24
1, 172588, Note_on_c, 0, 59, 0
1, 172604, Note_on_c, 0, 74, 69
1, 172632, Note_on_c, 0, 71, 0
1, 172640, Note_on_c, 0, 62, 16
1, 172750, Note_on_c, 0, 62, 0
1, 172834, Note_on_c, 0, 72, 63
1, 172876, Note_on_c, 0, 57, 12
1, 172890, Note_on_c, 0, 74, 0
1, 173062, Note_on_c, 0, 69, 50
1, 173108, Note_on_c, 0, 62, 22
1, 173110, Note_on_c, 0, 72, 0
1, 173228, Note_on_c, 0, 62, 0
1, 173308, Note_on_c, 0, 72, 54
1, 173334, Note_on_c, 0, 60, 22
1, 173350, Note_on_c, 0, 69, 0
1, 173540, Note_on_c, 0, 76, 50
1, 173554, Note_on_c, 0, 72, 0
1, 173574, Note_on_c, 0, 62, 24
1, 173584, Note_on_c, 0, 60, 0
1, 173708, Note_on_c, 0, 62, 0
1, 173724, Note_on_c, 0, 57, 0
1, 173824, Note_on_c, 0, 74, 46
1, 173874, Note_on_c, 0, 55, 19
1, 173880, Note_on_c, 0, 76, 0
1, 174112, Note_on_c, 0, 62, 19
1, 174228, Note_on_c, 0, 62, 0
1, 174342, Note_on_c, 0, 59, 13
1, 174364, Note_on_c, 0, 55, 0
1, 174562, Note_on_c, 0, 74, 0
1, 174576, Note_on_c, 0, 71, 32
1, 174584, Note_on_c, 0, 62, 21
1, 174666, Note_on_c, 0, 71, 0
1, 174678, Note_on_c, 0, 59, 0
1, 174686, Note_on_c, 0, 62, 0
1, 174800, Note_on_c, 0, 67, 34
1, 174838, Note_on_c, 0, 55, 27
1, 174902, Note_on_c, 0, 67, 0
1, 175016, Note_on_c, 0, 67, 41
1, 175062, Note_on_c, 0, 62, 25
1, 175138, Note_on_c, 0, 67, 0
1, 175156, Note_on_c, 0, 62, 0
1, 175232, Note_on_c, 0, 69, 56
1, 175276, Note_on_c, 0, 59, 24
1, 175334, Note_on_c, 0, 69, 0
1, 175442, Note_on_c, 0, 71, 80
1, 175456, Note_on_c, 0, 55, 0
1, 175482, Note_on_c, 0, 62, 30
1, 175512, Note_on_c, 0, 71, 0
1, 175626, Note_on_c, 0, 62, 0
1, 175646, Note_on_c, 0, 72, 71
1, 175666, Note_on_c, 0, 55, 27
1, 175676, Note_on_c, 0, 59, 0
1, 175754, Note_on_c, 0, 72, 0
1, 175856, Note_on_c, 0, 74, 78
1, 175882, Note_on_c, 0, 62, 34
1, 175952, Note_on_c, 0, 74, 0
1, 175982, Note_on_c, 0, 62, 0
1, 176062, Note_on_c, 0, 76, 73
1, 176094, Note_on_c, 0, 59, 34
1, 176166, Note_on_c, 0, 76, 0
1, 176266, Note_on_c, 0, 78, 80
1, 176298, Note_on_c, 0, 55, 0
1, 176304, Note_on_c, 0, 62, 35
1, 176376, Note_on_c, 0, 78, 0
1, 176472, Note_on_c, 0, 59, 0
1, 176492, Note_on_c, 0, 79, 85
1, 176504, Note_on_c, 0, 62, 0
1, 176522, Note_on_c, 0, 55, 31
1, 176722, Note_on_c, 0, 78, 83
1, 176752, Note_on_c, 0, 64, 32
1, 176760, Note_on_c, 0, 79, 0
1, 176928, Note_on_c, 0, 64, 0
1, 176928, Note_on_c, 0, 79, 89
1, 176968, Note_on_c, 0, 60, 30
1, 176990, Note_on_c, 0, 78, 0
1, 177132, Note_on_c, 0, 78, 81
1, 177150, Note_on_c, 0, 55, 0
1, 177190, Note_on_c, 0, 79, 0
1, 177196, Note_on_c, 0, 64, 32
1, 177304, Note_on_c, 0, 60, 0
1, 177324, Note_on_c, 0, 64, 0
1, 177368, Note_on_c, 0, 81, 70
1, 177424, Note_on_c, 0, 78, 0
1, 177426, Note_on_c, 0, 55, 28
1, 177616, Note_on_c, 0, 79, 80
1, 177654, Note_on_c, 0, 64, 24
1, 177670, Note_on_c, 0, 81, 0
1, 177760, Note_on_c, 0, 64, 0
1, 177838, Note_on_c, 0, 78, 70
1, 177876, Note_on_c, 0, 79, 0
1, 177884, Note_on_c, 0, 60, 27
1, 177996, Note_on_c, 0, 60, 0
1, 178022, Note_on_c, 0, 55, 0
1, 178064, Note_on_c, 0, 79, 83
1, 178090, Note_on_c, 0, 78, 0
1, 178110, Note_on_c, 0, 64, 29
1, 178312, Note_on_c, 0, 64, 0
1, 178320, Note_on_c, 0, 78, 71
1, 178370, Note_on_c, 0, 55, 29
1, 178388, Note_on_c, 0, 79, 0
1, 178580, Note_on_c, 0, 76, 60
1, 178620, Note_on_c, 0, 61, 29
1, 178652, Note_on_c, 0, 78, 0
1, 178724, Note_on_c, 0, 61, 0
1, 178802, Note_on_c, 0, 74, 73
1, 178828, Note_on_c, 0, 76, 0
1, 178831, Note_on_c, 0, 58, 20
1, 178938, Note_on_c, 0, 55, 0
1, 179024, Note_on_c, 0, 73, 67
1, 179050, Note_on_c, 0, 61, 28
1, 179072, Note_on_c, 0, 74, 0
1, 179244, Note_on_c, 0, 61, 0
1, 179249, Note_on_c, 0, 58, 0
1, 179284, Note_on_c, 0, 74, 57
1, 179310, Note_on_c, 0, 73, 0
1, 179312, Note_on_c, 0, 55, 25
1, 179536, Note_on_c, 0, 71, 52
1, 179548, Note_on_c, 0, 74, 0
1, 179556, Note_on_c, 0, 62, 25
1, 179720, Note_on_c, 0, 62, 0
1, 179784, Note_on_c, 0, 71, 0
1, 179790, Note_on_c, 0, 74, 51
1, 179818, Note_on_c, 0, 59, 19
1, 179984, Note_on_c, 0, 55, 0
1, 180054, Note_on_c, 0, 74, 0
1, 180056, Note_on_c, 0, 59, 0
1, 180062, Note_on_c, 0, 71, 38
1, 180080, Note_on_c, 0, 62, 14
1, 180210, Note_on_c, 0, 62, 0
1, 180334, Note_on_c, 0, 67, 34
1, 180338, Note_on_c, 0, 71, 0
1, 180376, Note_on_c, 0, 55, 25
1, 180600, Note_on_c, 0, 62, 22
1, 180752, Note_on_c, 0, 62, 0
1, 180770, Note_on_c, 0, 55, 0
1, 180826, Note_on_c, 0, 59, 22
1, 180996, Note_on_c, 0, 59, 0
1, 181094, Note_on_c, 0, 62, 16
1, 181270, Note_on_c, 0, 62, 0
1, 181344, Note_on_c, 0, 55, 17
1, 181534, Note_on_c, 0, 67, 0
1, 181574, Note_on_c, 0, 62, 24
1, 181742, Note_on_c, 0, 62, 0
1, 181826, Note_on_c, 0, 59, 17
1, 181930, Note_on_c, 0, 55, 0
1, 181990, Note_on_c, 0, 59, 0
1, 182050, Note_on_c, 0, 62, 23
1, 182230, Note_on_c, 0, 62, 0
1, 182311, Note_on_c, 0, 57, 19
1, 182311, Note_on_c, 0, 72, 28
1, 182558, Note_on_c, 0, 72, 0
1, 182564, Note_on_c, 0, 69, 22
1, 182580, Note_on_c, 0, 62, 27
1, 182788, Note_on_c, 0, 62, 0
1, 182802, Note_on_c, 0, 72, 49
1, 182810, Note_on_c, 0, 69, 0
1, 182834, Note_on_c, 0, 60, 23
1, 182960, Note_on_c, 0, 57, 0
1, 183008, Note_on_c, 0, 69, 53
1, 183026, Note_on_c, 0, 72, 0
1, 183068, Note_on_c, 0, 62, 23
1, 183106, Note_on_c, 0, 60, 0
1, 183162, Note_on_c, 0, 62, 0
1, 183242, Note_on_c, 0, 66, 48
1, 183254, Note_on_c, 0, 69, 0
1, 183282, Note_on_c, 0, 57, 20
1, 183414, Note_on_c, 0, 66, 0
1, 183480, Note_on_c, 0, 69, 60
1, 183510, Note_on_c, 0, 62, 21
1, 183690, Note_on_c, 0, 62, 0
1, 183708, Note_on_c, 0, 68, 60
1, 183742, Note_on_c, 0, 69, 0
1, 183742, Note_on_c, 0, 60, 25
1, 183866, Note_on_c, 0, 57, 0
1, 183932, Note_on_c, 0, 69, 65
1, 183972, Note_on_c, 0, 62, 25
1, 183984, Note_on_c, 0, 60, 0
1, 183996, Note_on_c, 0, 68, 0
1, 184068, Note_on_c, 0, 62, 0
1, 184164, Note_on_c, 0, 70, 52
1, 184198, Note_on_c, 0, 57, 22
1, 184200, Note_on_c, 0, 69, 0
1, 184416, Note_on_c, 0, 71, 61
1, 184432, Note_on_c, 0, 62, 26
1, 184466, Note_on_c, 0, 70, 0
1, 184588, Note_on_c, 0, 62, 0
1, 184634, Note_on_c, 0, 72, 70
1, 184658, Note_on_c, 0, 60, 29
1, 184682, Note_on_c, 0, 71, 0
1, 184850, Note_on_c, 0, 73, 72
1, 184882, Note_on_c, 0, 62, 28
1, 184908, Note_on_c, 0, 72, 0
1, 184994, Note_on_c, 0, 62, 0
1, 185056, Note_on_c, 0, 60, 0
1, 185102, Note_on_c, 0, 74, 69
1, 185120, Note_on_c, 0, 57, 0
1, 185124, Note_on_c, 0, 55, 29
1, 185152, Note_on_c, 0, 73, 0
1, 185346, Note_on_c, 0, 71, 70
1, 185368, Note_on_c, 0, 62, 22
1, 185378, Note_on_c, 0, 74, 0
1, 185526, Note_on_c, 0, 62, 0
1, 185596, Note_on_c, 0, 74, 75
1, 185610, Note_on_c, 0, 71, 0
1, 185626, Note_on_c, 0, 59, 27
1, 185828, Note_on_c, 0, 71, 85
1, 185864, Note_on_c, 0, 74, 0
1, 185872, Note_on_c, 0, 62, 36
1, 185886, Note_on_c, 0, 59, 0
1, 186106, Note_on_c, 0, 62, 0
1, 186124, Note_on_c, 0, 55, 0
1, 186168, Note_on_c, 0, 79, 67
1, 186200, Note_on_c, 0, 52, 52
1, 186258, Note_on_c, 0, 71, 0
1, 186438, Note_on_c, 0, 59, 42
1, 186662, Note_on_c, 0, 59, 0
1, 186692, Note_on_c, 0, 55, 45
1, 186904, Note_on_c, 0, 52, 0
1, 186944, Note_on_c, 0, 59, 40
1, 186946, Note_on_c, 0, 55, 0
1, 187070, Note_on_c, 0, 79, 0
1, 187182, Note_on_c, 0, 59, 0
1, 187202, Note_on_c, 0, 47, 44
1, 187484, Note_on_c, 0, 83, 88
1, 187486, Note_on_c, 0, 55, 44
1, 187748, Note_on_c, 0, 55, 0
1, 187766, Note_on_c, 0, 78, 74
1, 187806, Note_on_c, 0, 83, 0
1, 187806, Note_on_c, 0, 50, 36
1, 187996, Note_on_c, 0, 50, 0
1, 188006, Note_on_c, 0, 47, 0
1, 188020, Note_on_c, 0, 79, 83
1, 188040, Note_on_c, 0, 55, 41
1, 188074, Note_on_c, 0, 78, 0
1, 188232, Note_on_c, 0, 55, 0
1, 188290, Note_on_c, 0, 75, 62
1, 188324, Note_on_c, 0, 48, 24
1, 188326, Note_on_c, 0, 79, 0
1, 188590, Note_on_c, 0, 76, 42
1, 188612, Note_on_c, 0, 57, 23
1, 188644, Note_on_c, 0, 75, 0
1, 188854, Note_on_c, 0, 57, 0
1, 188874, Note_on_c, 0, 72, 35
1, 188898, Note_on_c, 0, 52, 27
1, 188940, Note_on_c, 0, 76, 0
1, 189132, Note_on_c, 0, 48, 0
1, 189160, Note_on_c, 0, 69, 34
1, 189164, Note_on_c, 0, 72, 0
1, 189170, Note_on_c, 0, 52, 0
1, 189180, Note_on_c, 0, 57, 22
1, 189334, Note_on_c, 0, 57, 0
1, 189504, Note_on_c, 0, 67, 34
1, 189522, Note_on_c, 0, 50, 20
1, 189530, Note_on_c, 0, 69, 0
1, 189806, Note_on_c, 0, 59, 23
1, 189992, Note_on_c, 0, 59, 0
1, 190048, Note_on_c, 0, 55, 35
1, 190076, Note_on_c, 0, 67, 0
1, 190078, Note_on_c, 0, 50, 0
1, 190184, Note_on_c, 0, 55, 0
1, 190280, Note_on_c, 0, 67, 51
1, 190316, Note_on_c, 0, 59, 29
1, 190442, Note_on_c, 0, 59, 0
1, 190560, Note_on_c, 0, 71, 55
1, 190582, Note_on_c, 0, 67, 0
1, 190585, Note_on_c, 0, 66, 17
1, 190596, Note_on_c, 0, 50, 30
1, 190830, Note_on_c, 0, 69, 34
1, 190864, Note_on_c, 0, 71, 0
1, 190868, Note_on_c, 0, 60, 17
1, 191066, Note_on_c, 0, 60, 0
1, 191128, Note_on_c, 0, 67, 34
1, 191146, Note_on_c, 0, 69, 0
1, 191148, Note_on_c, 0, 57, 19
1, 191426, Note_on_c, 0, 57, 0
1, 191450, Note_on_c, 0, 67, 0
1, 191460, Note_on_c, 0, 69, 24
1, 191463, Note_on_c, 0, 60, 25
1, 191604, Note_on_c, 0, 60, 0
1, 191850, Note_on_c, 0, 66, 0
1, 191864, Note_on_c, 0, 50, 0
1, 191864, Note_on_c, 0, 67, 21
1, 191870, Note_on_c, 0, 69, 0
1, 191876, Note_on_c, 0, 59, 20
1, 191896, Note_on_c, 0, 55, 19
1, 192196, Note_on_c, 0, 66, 29
1, 192220, Note_on_c, 0, 67, 0
1, 192446, Note_on_c, 0, 69, 36
1, 192518, Note_on_c, 0, 66, 0
1, 192682, Note_on_c, 0, 67, 43
1, 192708, Note_on_c, 0, 69, 0
1, 192906, Note_on_c, 0, 71, 52
1, 192936, Note_on_c, 0, 67, 0
1, 192950, Note_on_c, 0, 59, 0
1, 192954, Note_on_c, 0, 55, 0
1, 193122, Note_on_c, 0, 69, 44
1, 193166, Note_on_c, 0, 71, 0
1, 193348, Note_on_c, 0, 72, 54
1, 193372, Note_on_c, 0, 69, 0
1, 193562, Note_on_c, 0, 71, 53
1, 193598, Note_on_c, 0, 72, 0
1, 193774, Note_on_c, 0, 74, 55
1, 193802, Note_on_c, 0, 71, 0
1, 193986, Note_on_c, 0, 72, 55
1, 194018, Note_on_c, 0, 74, 0
1, 194235, Note_on_c, 0, 76, 41
1, 194256, Note_on_c, 0, 72, 0
1, 194500, Note_on_c, 0, 74, 43
1, 194508, Note_on_c, 0, 76, 0
1, 194870, Note_on_c, 0, 74, 0
1, 194920, Note_on_c, 0, 77, 41
1, 194958, Note_on_c, 0, 57, 15
1, 195292, Note_on_c, 0, 65, 7
1, 195450, Note_on_c, 0, 65, 0
1, 195510, Note_on_c, 0, 57, 0
1, 195556, Note_on_c, 0, 60, 6
1, 195772, Note_on_c, 0, 60, 0
1, 195814, Note_on_c, 0, 65, 20
1, 195994, Note_on_c, 0, 65, 0
1, 196094, Note_on_c, 0, 57, 28
1, 196402, Note_on_c, 0, 65, 17
1, 196556, Note_on_c, 0, 65, 0
1, 196654, Note_on_c, 0, 79, 60
1, 196668, Note_on_c, 0, 57, 0
1, 196698, Note_on_c, 0, 60, 30
1, 196730, Note_on_c, 0, 77, 0
1, 196898, Note_on_c, 0, 81, 74
1, 196928, Note_on_c, 0, 79, 0
1, 196938, Note_on_c, 0, 65, 23
1, 197024, Note_on_c, 0, 60, 0
1, 197098, Note_on_c, 0, 65, 0
1, 197152, Note_on_c, 0, 79, 83
1, 197190, Note_on_c, 0, 59, 23
1, 197300, Note_on_c, 0, 81, 0
1, 197392, Note_on_c, 0, 77, 75
1, 197406, Note_on_c, 0, 67, 28
1, 197468, Note_on_c, 0, 79, 0
1, 197574, Note_on_c, 0, 67, 0
1, 197628, Note_on_c, 0, 76, 67
1, 197664, Note_on_c, 0, 62, 24
1, 197688, Note_on_c, 0, 77, 0
1, 197856, Note_on_c, 0, 74, 73
1, 197878, Note_on_c, 0, 62, 0
1, 197892, Note_on_c, 0, 76, 0
1, 197912, Note_on_c, 0, 67, 17
1, 198034, Note_on_c, 0, 67, 0
1, 198140, Note_on_c, 0, 75, 61
1, 198190, Note_on_c, 0, 59, 0
1, 198190, Note_on_c, 0, 60, 23
1, 198220, Note_on_c, 0, 74, 0
1, 198430, Note_on_c, 0, 67, 26
1, 198634, Note_on_c, 0, 67, 0
1, 198690, Note_on_c, 0, 64, 33
1, 198880, Note_on_c, 0, 60, 0
1, 198954, Note_on_c, 0, 64, 0
1, 198966, Note_on_c, 0, 67, 25
1, 199162, Note_on_c, 0, 67, 0
1, 199208, Note_on_c, 0, 76, 41
1, 199220, Note_on_c, 0, 60, 21
1, 199306, Note_on_c, 0, 75, 0
1, 199476, Note_on_c, 0, 67, 22
1, 199670, Note_on_c, 0, 67, 0
1, 199738, Note_on_c, 0, 64, 23
1, 199752, Note_on_c, 0, 60, 0
1, 199876, Note_on_c, 0, 76, 0
1, 199912, Note_on_c, 0, 64, 0
1, 199984, Note_on_c, 0, 67, 22
1, 200192, Note_on_c, 0, 67, 0
1, 200251, Note_on_c, 0, 60, 24
1, 200512, Note_on_c, 0, 79, 47
1, 200560, Note_on_c, 0, 67, 19
1, 200732, Note_on_c, 0, 67, 0
1, 200774, Note_on_c, 0, 78, 52
1, 200828, Note_on_c, 0, 64, 26
1, 200844, Note_on_c, 0, 79, 0
1, 200916, Note_on_c, 0, 64, 0
1, 201012, Note_on_c, 0, 76, 50
1, 201058, Note_on_c, 0, 78, 0
1, 201058, Note_on_c, 0, 67, 34
1, 201166, Note_on_c, 0, 60, 0
1, 201216, Note_on_c, 0, 67, 0
1, 201256, Note_on_c, 0, 74, 53
1, 201292, Note_on_c, 0, 76, 0
1, 201306, Note_on_c, 0, 59, 25
1, 201490, Note_on_c, 0, 74, 0
1, 201500, Note_on_c, 0, 71, 60
1, 201520, Note_on_c, 0, 62, 29
1, 201726, Note_on_c, 0, 62, 0
1, 201732, Note_on_c, 0, 59, 0
1, 201740, Note_on_c, 0, 69, 46
1, 201758, Note_on_c, 0, 71, 0
1, 201758, Note_on_c, 0, 60, 28
1, 201992, Note_on_c, 0, 60, 0
1, 202012, Note_on_c, 0, 76, 33
1, 202016, Note_on_c, 0, 64, 32
1, 202036, Note_on_c, 0, 69, 0
1, 202080, Note_on_c, 0, 64, 0
1, 202344, Note_on_c, 0, 67, 43
1, 202352, Note_on_c, 0, 50, 29
1, 202460, Note_on_c, 0, 76, 0
1, 202622, Note_on_c, 0, 59, 25
1, 202814, Note_on_c, 0, 59, 0
1, 202878, Note_on_c, 0, 55, 31
1, 202910, Note_on_c, 0, 67, 0
1, 202920, Note_on_c, 0, 50, 0
1, 203110, Note_on_c, 0, 67, 56
1, 203120, Note_on_c, 0, 55, 0
1, 203140, Note_on_c, 0, 59, 27
1, 203270, Note_on_c, 0, 59, 0
1, 203358, Note_on_c, 0, 71, 55
1, 203372, Note_on_c, 0, 66, 24
1, 203375, Note_on_c, 0, 67, 0
1, 203382, Note_on_c, 0, 50, 33
1, 203620, Note_on_c, 0, 69, 41
1, 203630, Note_on_c, 0, 60, 23
1, 203666, Note_on_c, 0, 71, 0
1, 203844, Note_on_c, 0, 60, 0
1, 203870, Note_on_c, 0, 67, 45
1, 203876, Note_on_c, 0, 69, 0
1, 203892, Note_on_c, 0, 57, 27
1, 204104, Note_on_c, 0, 67, 0
1, 204104, Note_on_c, 0, 57, 0
1, 204116, Note_on_c, 0, 69, 37
1, 204150, Note_on_c, 0, 60, 25
1, 204200, Note_on_c, 0, 66, 0
1, 204224, Note_on_c, 0, 60, 0
1, 204414, Note_on_c, 0, 67, 23
1, 204418, Note_on_c, 0, 59, 21
1, 204434, Note_on_c, 0, 50, 0
1, 204446, Note_on_c, 0, 69, 0
1, 204458, Note_on_c, 0, 55, 10
1, 204660, Note_on_c, 0, 66, 33
1, 204686, Note_on_c, 0, 67, 0
1, 204894, Note_on_c, 0, 69, 32
1, 204968, Note_on_c, 0, 66, 0
1, 205100, Note_on_c, 0, 67, 50
1, 205140, Note_on_c, 0, 69, 0
1, 205344, Note_on_c, 0, 71, 58
1, 205418, Note_on_c, 0, 67, 0
1, 205560, Note_on_c, 0, 69, 55
1, 205584, Note_on_c, 0, 59, 0
1, 205590, Note_on_c, 0, 55, 0
1, 205624, Note_on_c, 0, 71, 0
1, 205788, Note_on_c, 0, 72, 62
1, 205830, Note_on_c, 0, 69, 0
1, 206002, Note_on_c, 0, 71, 79
1, 206056, Note_on_c, 0, 72, 0
1, 206236, Note_on_c, 0, 74, 83
1, 206292, Note_on_c, 0, 71, 0
1, 206446, Note_on_c, 0, 72, 84
1, 206514, Note_on_c, 0, 74, 0
1, 206672, Note_on_c, 0, 76, 76
1, 206716, Note_on_c, 0, 72, 0
1, 206912, Note_on_c, 0, 74, 84
1, 206922, Note_on_c, 0, 76, 0
1, 207246, Note_on_c, 0, 77, 80
1, 207260, Note_on_c, 0, 45, 57
1, 207324, Note_on_c, 0, 74, 0
1, 207572, Note_on_c, 0, 53, 72
1, 207806, Note_on_c, 0, 53, 0
1, 207834, Note_on_c, 0, 48, 50
1, 208050, Note_on_c, 0, 48, 0
1, 208086, Note_on_c, 0, 53, 71
1, 208174, Note_on_c, 0, 53, 0
1, 208296, Note_on_c, 0, 47, 66
1, 208410, Note_on_c, 0, 45, 0
1, 208548, Note_on_c, 0, 55, 58
1, 208722, Note_on_c, 0, 55, 0
1, 208782, Note_on_c, 0, 79, 90
1, 208822, Note_on_c, 0, 50, 42
1, 208864, Note_on_c, 0, 77, 0
1, 209046, Note_on_c, 0, 81, 88
1, 209054, Note_on_c, 0, 50, 0
1, 209062, Note_on_c, 0, 55, 54
1, 209096, Note_on_c, 0, 79, 0
1, 209194, Note_on_c, 0, 55, 0
1, 209300, Note_on_c, 0, 79, 95
1, 209303, Note_on_c, 0, 43, 57
1, 209318, Note_on_c, 0, 47, 0
1, 209404, Note_on_c, 0, 81, 0
1, 209528, Note_on_c, 0, 77, 83
1, 209546, Note_on_c, 0, 55, 44
1, 209606, Note_on_c, 0, 79, 0
1, 209648, Note_on_c, 0, 55, 0
1, 209752, Note_on_c, 0, 76, 70
1, 209768, Note_on_c, 0, 77, 0
1, 209780, Note_on_c, 0, 47, 46
1, 209972, Note_on_c, 0, 74, 84
1, 209986, Note_on_c, 0, 55, 47
1, 210014, Note_on_c, 0, 76, 0
1, 210054, Note_on_c, 0, 55, 0
1, 210084, Note_on_c, 0, 47, 0
1, 210256, Note_on_c, 0, 76, 80
1, 210258, Note_on_c, 0, 48, 53
1, 210314, Note_on_c, 0, 43, 0
1, 210346, Note_on_c, 0, 74, 0
1, 210532, Note_on_c, 0, 55, 42
1, 210736, Note_on_c, 0, 55, 0
1, 210800, Note_on_c, 0, 52, 49
1, 210892, Note_on_c, 0, 52, 0
1, 211010, Note_on_c, 0, 48, 0
1, 211038, Note_on_c, 0, 55, 49
1, 211190, Note_on_c, 0, 55, 0
1, 211280, Note_on_c, 0, 78, 82
1, 211296, Note_on_c, 0, 48, 64
1, 211424, Note_on_c, 0, 76, 0
1, 211526, Note_on_c, 0, 57, 42
1, 211762, Note_on_c, 0, 57, 0
1, 211778, Note_on_c, 0, 51, 52
1, 211982, Note_on_c, 0, 51, 0
1, 212020, Note_on_c, 0, 57, 48
1, 212150, Note_on_c, 0, 48, 0
1, 212198, Note_on_c, 0, 57, 0
1, 212328, Note_on_c, 0, 79, 92
1, 212338, Note_on_c, 0, 49, 58
1, 212472, Note_on_c, 0, 78, 0
1, 212606, Note_on_c, 0, 58, 38
1, 212846, Note_on_c, 0, 58, 0
1, 212888, Note_on_c, 0, 52, 50
1, 213100, Note_on_c, 0, 49, 0
1, 213108, Note_on_c, 0, 79, 0
1, 213122, Note_on_c, 0, 52, 0
1, 213194, Note_on_c, 0, 58, 35
1, 213454, Note_on_c, 0, 58, 0
1, 213604, Note_on_c, 0, 67, 54
1, 213640, Note_on_c, 0, 50, 36
1, 213958, Note_on_c, 0, 59, 27
1, 214182, Note_on_c, 0, 59, 0
1, 214234, Note_on_c, 0, 50, 0
1, 214242, Note_on_c, 0, 55, 27
1, 214460, Note_on_c, 0, 55, 0
1, 214510, Note_on_c, 0, 59, 23
1, 214638, Note_on_c, 0, 59, 0
1, 214736, Note_on_c, 0, 50, 29
1, 215020, Note_on_c, 0, 59, 21
1, 215206, Note_on_c, 0, 59, 0
1, 215264, Note_on_c, 0, 67, 0
1, 215272, Note_on_c, 0, 69, 21
1, 215308, Note_on_c, 0, 55, 22
1, 215376, Note_on_c, 0, 50, 0
1, 215424, Note_on_c, 0, 69, 0
1, 215438, Note_on_c, 0, 67, 36
1, 215524, Note_on_c, 0, 67, 0
1, 215548, Note_on_c, 0, 66, 38
1, 215552, Note_on_c, 0, 55, 0
1, 215558, Note_on_c, 0, 59, 25
1, 215680, Note_on_c, 0, 66, 0
1, 215692, Note_on_c, 0, 67, 49
1, 215838, Note_on_c, 0, 59, 0
1, 215918, Note_on_c, 0, 71, 56
1, 215932, Note_on_c, 0, 50, 28
1, 215934, Note_on_c, 0, 66, 20
1, 215942, Note_on_c, 0, 67, 0
1, 216242, Note_on_c, 0, 60, 20
1, 216488, Note_on_c, 0, 60, 0
1, 216528, Note_on_c, 0, 69, 30
1, 216560, Note_on_c, 0, 57, 17
1, 216595, Note_on_c, 0, 71, 0
1, 216782, Note_on_c, 0, 57, 0
1, 216830, Note_on_c, 0, 60, 24
1, 216962, Note_on_c, 0, 60, 0
1, 217244, Note_on_c, 0, 59, 20
1, 217246, Note_on_c, 0, 50, 0
1, 217256, Note_on_c, 0, 67, 30
1, 217270, Note_on_c, 0, 69, 0
1, 217272, Note_on_c, 0, 55, 21
1, 217310, Note_on_c, 0, 66, 0
1, 217558, Note_on_c, 0, 62, 36
1, 217636, Note_on_c, 0, 67, 0
1, 217792, Note_on_c, 0, 62, 0
1, 217822, Note_on_c, 0, 71, 46
1, 217894, Note_on_c, 0, 71, 0
1, 218050, Note_on_c, 0, 71, 58
1, 218128, Note_on_c, 0, 71, 0
1, 218294, Note_on_c, 0, 71, 58
1, 218524, Note_on_c, 0, 67, 52
1, 218538, Note_on_c, 0, 71, 0
1, 218648, Note_on_c, 0, 55, 0
1, 218666, Note_on_c, 0, 59, 0
1, 218700, Note_on_c, 0, 67, 0
1, 218768, Note_on_c, 0, 74, 62
1, 218822, Note_on_c, 0, 74, 0
1, 218998, Note_on_c, 0, 74, 63
1, 219064, Note_on_c, 0, 74, 0
1, 219258, Note_on_c, 0, 74, 47
1, 219512, Note_on_c, 0, 71, 45
1, 219522, Note_on_c, 0, 74, 0
1, 219762, Note_on_c, 0, 71, 0
1, 219765, Note_on_c, 0, 69, 19
1, 219768, Note_on_c, 0, 60, 33
1, 219788, Note_on_c, 0, 50, 30
1, 220018, Note_on_c, 0, 69, 0
1, 220030, Note_on_c, 0, 71, 36
1, 220060, Note_on_c, 0, 60, 0
1, 220284, Note_on_c, 0, 71, 0
1, 220287, Note_on_c, 0, 67, 35
1, 220308, Note_on_c, 0, 59, 17
1, 220322, Note_on_c, 0, 50, 0
1, 220324, Note_on_c, 0, 55, 22
1, 220530, Note_on_c, 0, 62, 43
1, 220588, Note_on_c, 0, 67, 0
1, 220736, Note_on_c, 0, 62, 0
1, 220796, Note_on_c, 0, 71, 45
1, 220862, Note_on_c, 0, 71, 0
1, 221032, Note_on_c, 0, 71, 44
1, 221098, Note_on_c, 0, 71, 0
1, 221244, Note_on_c, 0, 59, 0
1, 221250, Note_on_c, 0, 55, 0
1, 221274, Note_on_c, 0, 71, 48
1, 221504, Note_on_c, 0, 67, 38
1, 221520, Note_on_c, 0, 71, 0
1, 221684, Note_on_c, 0, 67, 0
1, 221754, Note_on_c, 0, 74, 35
1, 221812, Note_on_c, 0, 74, 0
1, 221994, Note_on_c, 0, 74, 48
1, 222060, Note_on_c, 0, 74, 0
1, 222304, Note_on_c, 0, 74, 35
1, 222542, Note_on_c, 0, 74, 0
1, 222570, Note_on_c, 0, 71, 33
1, 222846, Note_on_c, 0, 71, 0
1, 222864, Note_on_c, 0, 69, 16
1, 222882, Note_on_c, 0, 60, 25
1, 222884, Note_on_c, 0, 50, 17
1, 223180, Note_on_c, 0, 71, 30
1, 223190, Note_on_c, 0, 69, 0
1, 223598, Note_on_c, 0, 60, 0
1, 223646, Note_on_c, 0, 67, 15
1, 223654, Note_on_c, 0, 59, 6
1, 223660, Note_on_c, 0, 55, 21
1, 223704, Note_on_c, 0, 71, 0
1, 223754, Note_on_c, 0, 50, 0
1, 224172, Note_on_c, 0, 55, 0
1, 224188, Note_on_c, 0, 59, 0
1, 224238, Note_on_c, 0, 67, 0
1, 225556, Note_on_c, 0, 67, 12
1, 225560, Note_on_c, 0, 43, 13
1, 225565, Note_on_c, 0, 59, 15
1, 226924, Note_on_c, 0, 59, 0
1, 226970, Note_on_c, 0, 43, 0
1, 227124, Note_on_c, 0, 67, 0
1, 227134, End_track
0, 0, End_of_file