0, 0, Header, 0, 1, 480
1, 0, Start_track
1, 0, Tempo, 500000
1, 0, Note_on_c, 0, 79, 36
1, 0, Note_on_c, 0, 76, 18
1, 66, Note_on_c, 0, 79, 0
1, 74, Note_on_c, 0, 76, 0
1, 246, Note_on_c, 0, 79, 55
1, 252, Note_on_c, 0, 76, 50
1, 300, Note_on_c, 0, 79, 0
1, 306, Note_on_c, 0, 76, 0
1, 488, Note_on_c, 0, 57, 35
1, 490, Note_on_c, 0, 76, 30
1, 492, Note_on_c, 0, 60, 45
1, 494, Note_on_c, 0, 72, 50
1, 550, Note_on_c, 0, 57, 0
1, 552, Note_on_c, 0, 76, 0
1, 560, Note_on_c, 0, 72, 0
1, 564, Note_on_c, 0, 60, 0
1, 730, Note_on_c, 0, 60, 48
1, 738, Note_on_c, 0, 57, 50
1, 788, Note_on_c, 0, 60, 0
1, 791, Note_on_c, 0, 57, 0
1, 976, Note_on_c, 0, 57, 47
1, 978, Note_on_c, 0, 77, 69
1, 984, Note_on_c, 0, 74, 66
1, 990, Note_on_c, 0, 53, 66
1, 1030, Note_on_c, 0, 74, 0
1, 1038, Note_on_c, 0, 57, 0
1, 1044, Note_on_c, 0, 77, 0
1, 1046, Note_on_c, 0, 53, 0
1, 1220, Note_on_c, 0, 77, 66
1, 1224, Note_on_c, 0, 74, 61
1, 1270, Note_on_c, 0, 77, 0
1, 1272, Note_on_c, 0, 74, 0
1, 1456, Note_on_c, 0, 71, 73
1, 1460, Note_on_c, 0, 74, 70
1, 1462, Note_on_c, 0, 59, 43
1, 1465, Note_on_c, 0, 55, 51
1, 1514, Note_on_c, 0, 71, 0
1, 1522, Note_on_c, 0, 59, 0
1, 1524, Note_on_c, 0, 74, 0
1, 1526, Note_on_c, 0, 55, 0
1, 1698, Note_on_c, 0, 59, 50
1, 1702, Note_on_c, 0, 55, 59
1, 1752, Note_on_c, 0, 59, 0
1, 1752, Note_on_c, 0, 55, 0
1, 1930, Note_on_c, 0, 52, 46
1, 1932, Note_on_c, 0, 55, 46
1, 1932, Note_on_c, 0, 72, 60
1, 2001, Note_on_c, 0, 52, 0
1, 2002, Note_on_c, 0, 55, 0
1, 2018, Note_on_c, 0, 72, 0
1, 2048, Note_on_c, 0, 74, 66
1, 2156, Note_on_c, 0, 76, 60
1, 2160, Note_on_c, 0, 74, 0
1, 2256, Note_on_c, 0, 76, 0
1, 2262, Note_on_c, 0, 72, 63
1, 2372, Note_on_c, 0, 72, 0
1, 2384, Note_on_c, 0, 69, 56
1, 2386, Note_on_c, 0, 53, 84
1, 2502, Note_on_c, 0, 69, 0
1, 2505, Note_on_c, 0, 71, 70
1, 2616, Note_on_c, 0, 72, 65
1, 2662, Note_on_c, 0, 71, 0
1, 2718, Note_on_c, 0, 73, 62
1, 2738, Note_on_c, 0, 72, 0
1, 2826, Note_on_c, 0, 74, 74
1, 2838, Note_on_c, 0, 73, 0
1, 2932, Note_on_c, 0, 76, 74
1, 2934, Note_on_c, 0, 74, 0
1, 3000, Note_on_c, 0, 53, 0
1, 3024, Note_on_c, 0, 50, 52
1, 3046, Note_on_c, 0, 76, 0
1, 3046, Note_on_c, 0, 77, 79
1, 3150, Note_on_c, 0, 74, 65
1, 3162, Note_on_c, 0, 77, 0
1, 3220, Note_on_c, 0, 50, 0
1, 3272, Note_on_c, 0, 72, 73
1, 3280, Note_on_c, 0, 74, 0
1, 3280, Note_on_c, 0, 55, 49
1, 3384, Note_on_c, 0, 71, 74
1, 3420, Note_on_c, 0, 72, 0
1, 3476, Note_on_c, 0, 69, 57
1, 3482, Note_on_c, 0, 71, 0
1, 3486, Note_on_c, 0, 55, 0
1, 3540, Note_on_c, 0, 69, 0
1, 3574, Note_on_c, 0, 67, 69
1, 3630, Note_on_c, 0, 67, 0
1, 3694, Note_on_c, 0, 79, 88
1, 3697, Note_on_c, 0, 76, 73
1, 3736, Note_on_c, 0, 76, 0
1, 3740, Note_on_c, 0, 79, 0
1, 3938, Note_on_c, 0, 79, 87
1, 3954, Note_on_c, 0, 76, 58
1, 4000, Note_on_c, 0, 76, 0
1, 4010, Note_on_c, 0, 79, 0
1, 4182, Note_on_c, 0, 76, 58
1, 4184, Note_on_c, 0, 72, 59
1, 4184, Note_on_c, 0, 60, 42
1, 4192, Note_on_c, 0, 57, 40
1, 4236, Note_on_c, 0, 72, 0
1, 4246, Note_on_c, 0, 60, 0
1, 4250, Note_on_c, 0, 57, 0
1, 4252, Note_on_c, 0, 76, 0
1, 4416, Note_on_c, 0, 60, 51
1, 4424, Note_on_c, 0, 57, 42
1, 4476, Note_on_c, 0, 60, 0
1, 4476, Note_on_c, 0, 57, 0
1, 4650, Note_on_c, 0, 81, 70
1, 4656, Note_on_c, 0, 77, 65
1, 4670, Note_on_c, 0, 53, 62
1, 4672, Note_on_c, 0, 50, 43
1, 4702, Note_on_c, 0, 77, 0
1, 4722, Note_on_c, 0, 81, 0
1, 4722, Note_on_c, 0, 53, 0
1, 4746, Note_on_c, 0, 50, 0
1, 4890, Note_on_c, 0, 81, 73
1, 4893, Note_on_c, 0, 77, 63
1, 4944, Note_on_c, 0, 77, 0
1, 4964, Note_on_c, 0, 81, 0
1, 5124, Note_on_c, 0, 59, 48
1, 5127, Note_on_c, 0, 74, 69
1, 5130, Note_on_c, 0, 55, 50
1, 5132, Note_on_c, 0, 71, 68
1, 5176, Note_on_c, 0, 59, 0
1, 5182, Note_on_c, 0, 55, 0
1, 5188, Note_on_c, 0, 71, 0
1, 5192, Note_on_c, 0, 74, 0
1, 5366, Note_on_c, 0, 55, 63
1, 5368, Note_on_c, 0, 59, 60
1, 5410, Note_on_c, 0, 59, 0
1, 5414, Note_on_c, 0, 55, 0
1, 5612, Note_on_c, 0, 81, 83
1, 5618, Note_on_c, 0, 48, 44
1, 5624, Note_on_c, 0, 52, 49
1, 5682, Note_on_c, 0, 52, 0
1, 5704, Note_on_c, 0, 48, 0
1, 5724, Note_on_c, 0, 79, 86
1, 5752, Note_on_c, 0, 81, 0
1, 5824, Note_on_c, 0, 77, 67
1, 5836, Note_on_c, 0, 79, 0
1, 5896, Note_on_c, 0, 77, 0
1, 5928, Note_on_c, 0, 76, 57
1, 6048, Note_on_c, 0, 57, 51
1, 6051, Note_on_c, 0, 73, 75
1, 6062, Note_on_c, 0, 53, 63
1, 6080, Note_on_c, 0, 76, 0
1, 6162, Note_on_c, 0, 74, 79
1, 6170, Note_on_c, 0, 73, 0
1, 6272, Note_on_c, 0, 76, 68
1, 6278, Note_on_c, 0, 74, 0
1, 6388, Note_on_c, 0, 77, 73
1, 6394, Note_on_c, 0, 76, 0
1, 6492, Note_on_c, 0, 69, 46
1, 6502, Note_on_c, 0, 77, 0
1, 6568, Note_on_c, 0, 53, 0
1, 6572, Note_on_c, 0, 57, 0
1, 6586, Note_on_c, 0, 69, 0
1, 6598, Note_on_c, 0, 72, 66
1, 6666, Note_on_c, 0, 72, 0
1, 6712, Note_on_c, 0, 65, 51
1, 6712, Note_on_c, 0, 55, 62
1, 6724, Note_on_c, 0, 71, 66
1, 6766, Note_on_c, 0, 65, 0
1, 6776, Note_on_c, 0, 55, 0
1, 6796, Note_on_c, 0, 71, 0
1, 6824, Note_on_c, 0, 74, 66
1, 6930, Note_on_c, 0, 74, 0
1, 6944, Note_on_c, 0, 64, 63
1, 6952, Note_on_c, 0, 60, 59
1, 6955, Note_on_c, 0, 72, 58
1, 6987, Note_on_c, 0, 64, 0
1, 7002, Note_on_c, 0, 60, 0
1, 7206, Note_on_c, 0, 72, 0
1, 7214, Note_on_c, 0, 48, 60
1, 7332, Note_on_c, 0, 48, 0
1, 7440, Note_on_c, 0, 79, 57
1, 7443, Note_on_c, 0, 76, 49
1, 7490, Note_on_c, 0, 79, 0
1, 7490, Note_on_c, 0, 76, 0
1, 7696, Note_on_c, 0, 76, 36
1, 7702, Note_on_c, 0, 79, 54
1, 7752, Note_on_c, 0, 76, 0
1, 7760, Note_on_c, 0, 79, 0
1, 7946, Note_on_c, 0, 60, 31
1, 7946, Note_on_c, 0, 76, 31
1, 7949, Note_on_c, 0, 57, 30
1, 7958, Note_on_c, 0, 72, 28
1, 8016, Note_on_c, 0, 57, 0
1, 8019, Note_on_c, 0, 60, 0
1, 8024, Note_on_c, 0, 76, 0
1, 8034, Note_on_c, 0, 72, 0
1, 8200, Note_on_c, 0, 57, 38
1, 8200, Note_on_c, 0, 60, 35
1, 8256, Note_on_c, 0, 57, 0
1, 8266, Note_on_c, 0, 60, 0
1, 8432, Note_on_c, 0, 77, 50
1, 8436, Note_on_c, 0, 74, 44
1, 8438, Note_on_c, 0, 57, 33
1, 8440, Note_on_c, 0, 53, 35
1, 8482, Note_on_c, 0, 77, 0
1, 8488, Note_on_c, 0, 74, 0
1, 8498, Note_on_c, 0, 57, 0
1, 8506, Note_on_c, 0, 53, 0
1, 8678, Note_on_c, 0, 74, 46
1, 8692, Note_on_c, 0, 77, 48
1, 8736, Note_on_c, 0, 74, 0
1, 8740, Note_on_c, 0, 77, 0
1, 8898, Note_on_c, 0, 59, 33
1, 8900, Note_on_c, 0, 55, 49
1, 8901, Note_on_c, 0, 71, 46
1, 8906, Note_on_c, 0, 74, 55
1, 8956, Note_on_c, 0, 55, 0
1, 8958, Note_on_c, 0, 59, 0
1, 8968, Note_on_c, 0, 74, 0
1, 8970, Note_on_c, 0, 71, 0
1, 9158, Note_on_c, 0, 55, 40
1, 9160, Note_on_c, 0, 59, 41
1, 9212, Note_on_c, 0, 59, 0
1, 9215, Note_on_c, 0, 55, 0
1, 9392, Note_on_c, 0, 72, 45
1, 9398, Note_on_c, 0, 55, 45
1, 9408, Note_on_c, 0, 52, 39
1, 9460, Note_on_c, 0, 72, 0
1, 9478, Note_on_c, 0, 55, 0
1, 9510, Note_on_c, 0, 74, 57
1, 9546, Note_on_c, 0, 52, 0
1, 9616, Note_on_c, 0, 74, 0
1, 9640, Note_on_c, 0, 76, 45
1, 9712, Note_on_c, 0, 76, 0
1, 9738, Note_on_c, 0, 72, 54
1, 9824, Note_on_c, 0, 72, 0
1, 9862, Note_on_c, 0, 53, 64
1, 9876, Note_on_c, 0, 69, 41
1, 9958, Note_on_c, 0, 69, 0
1, 9996, Note_on_c, 0, 71, 57
1, 10092, Note_on_c, 0, 71, 0
1, 10106, Note_on_c, 0, 72, 53
1, 10190, Note_on_c, 0, 72, 0
1, 10210, Note_on_c, 0, 73, 56
1, 10334, Note_on_c, 0, 74, 64
1, 10338, Note_on_c, 0, 73, 0
1, 10448, Note_on_c, 0, 76, 59
1, 10464, Note_on_c, 0, 74, 0
1, 10488, Note_on_c, 0, 53, 0
1, 10528, Note_on_c, 0, 76, 0
1, 10544, Note_on_c, 0, 50, 48
1, 10556, Note_on_c, 0, 77, 67
1, 10620, Note_on_c, 0, 77, 0
1, 10652, Note_on_c, 0, 74, 56
1, 10682, Note_on_c, 0, 50, 0
1, 10718, Note_on_c, 0, 74, 0
1, 10776, Note_on_c, 0, 72, 62
1, 10796, Note_on_c, 0, 55, 38
1, 10850, Note_on_c, 0, 72, 0
1, 10898, Note_on_c, 0, 71, 54
1, 10956, Note_on_c, 0, 71, 0
1, 10982, Note_on_c, 0, 69, 51
1, 10994, Note_on_c, 0, 55, 0
1, 11042, Note_on_c, 0, 69, 0
1, 11078, Note_on_c, 0, 67, 57
1, 11136, Note_on_c, 0, 67, 0
1, 11192, Note_on_c, 0, 79, 86
1, 11195, Note_on_c, 0, 76, 68
1, 11240, Note_on_c, 0, 76, 0
1, 11260, Note_on_c, 0, 79, 0
1, 11436, Note_on_c, 0, 79, 83
1, 11440, Note_on_c, 0, 76, 61
1, 11486, Note_on_c, 0, 76, 0
1, 11489, Note_on_c, 0, 79, 0
1, 11676, Note_on_c, 0, 60, 54
1, 11676, Note_on_c, 0, 57, 34
1, 11679, Note_on_c, 0, 72, 55
1, 11682, Note_on_c, 0, 76, 64
1, 11734, Note_on_c, 0, 60, 0
1, 11734, Note_on_c, 0, 57, 0
1, 11746, Note_on_c, 0, 72, 0
1, 11764, Note_on_c, 0, 76, 0
1, 11922, Note_on_c, 0, 60, 46
1, 11922, Note_on_c, 0, 57, 39
1, 11976, Note_on_c, 0, 60, 0
1, 11982, Note_on_c, 0, 57, 0
1, 12158, Note_on_c, 0, 81, 70
1, 12168, Note_on_c, 0, 77, 61
1, 12170, Note_on_c, 0, 50, 51
1, 12182, Note_on_c, 0, 53, 68
1, 12216, Note_on_c, 0, 77, 0
1, 12246, Note_on_c, 0, 53, 0
1, 12274, Note_on_c, 0, 81, 0
1, 12388, Note_on_c, 0, 50, 0
1, 12404, Note_on_c, 0, 77, 55
1, 12407, Note_on_c, 0, 81, 57
1, 12454, Note_on_c, 0, 77, 0
1, 12457, Note_on_c, 0, 81, 0
1, 12630, Note_on_c, 0, 59, 65
1, 12633, Note_on_c, 0, 55, 67
1, 12638, Note_on_c, 0, 74, 72
1, 12638, Note_on_c, 0, 71, 71
1, 12678, Note_on_c, 0, 59, 0
1, 12684, Note_on_c, 0, 55, 0
1, 12750, Note_on_c, 0, 71, 0
1, 12768, Note_on_c, 0, 74, 0
1, 12876, Note_on_c, 0, 55, 65
1, 12880, Note_on_c, 0, 59, 61
1, 12924, Note_on_c, 0, 55, 0
1, 12924, Note_on_c, 0, 59, 0
1, 13130, Note_on_c, 0, 48, 58
1, 13130, Note_on_c, 0, 81, 88
1, 13140, Note_on_c, 0, 52, 74
1, 13208, Note_on_c, 0, 52, 0
1, 13250, Note_on_c, 0, 81, 0
1, 13253, Note_on_c, 0, 79, 78
1, 13290, Note_on_c, 0, 48, 0
1, 13358, Note_on_c, 0, 77, 72
1, 13376, Note_on_c, 0, 79, 0
1, 13434, Note_on_c, 0, 77, 0
1, 13460, Note_on_c, 0, 76, 51
1, 13588, Note_on_c, 0, 73, 69
1, 13594, Note_on_c, 0, 57, 49
1, 13602, Note_on_c, 0, 76, 0
1, 13610, Note_on_c, 0, 53, 63
1, 13702, Note_on_c, 0, 74, 71
1, 13726, Note_on_c, 0, 73, 0
1, 13818, Note_on_c, 0, 76, 63
1, 13832, Note_on_c, 0, 74, 0
1, 13938, Note_on_c, 0, 77, 61
1, 13941, Note_on_c, 0, 76, 0
1, 14054, Note_on_c, 0, 69, 47
1, 14062, Note_on_c, 0, 77, 0
1, 14126, Note_on_c, 0, 57, 0
1, 14129, Note_on_c, 0, 53, 0
1, 14140, Note_on_c, 0, 69, 0
1, 14166, Note_on_c, 0, 72, 50
1, 14234, Note_on_c, 0, 72, 0
1, 14278, Note_on_c, 0, 55, 54
1, 14290, Note_on_c, 0, 65, 32
1, 14296, Note_on_c, 0, 71, 57
1, 14342, Note_on_c, 0, 55, 0
1, 14352, Note_on_c, 0, 65, 0
1, 14356, Note_on_c, 0, 71, 0
1, 14392, Note_on_c, 0, 74, 58
1, 14460, Note_on_c, 0, 74, 0
1, 14534, Note_on_c, 0, 60, 50
1, 14538, Note_on_c, 0, 64, 50
1, 14548, Note_on_c, 0, 72, 52
1, 14584, Note_on_c, 0, 64, 0
1, 14590, Note_on_c, 0, 60, 0
1, 14756, Note_on_c, 0, 72, 0
1, 14788, Note_on_c, 0, 48, 67
1, 14828, Note_on_c, 0, 48, 0
1, 15062, Note_on_c, 0, 60, 47
1, 15062, Note_on_c, 0, 76, 66
1, 15184, Note_on_c, 0, 67, 39
1, 15186, Note_on_c, 0, 78, 65
1, 15206, Note_on_c, 0, 76, 0
1, 15250, Note_on_c, 0, 67, 0
1, 15308, Note_on_c, 0, 64, 42
1, 15314, Note_on_c, 0, 79, 81
1, 15350, Note_on_c, 0, 78, 0
1, 15360, Note_on_c, 0, 79, 0
1, 15362, Note_on_c, 0, 64, 0
1, 15420, Note_on_c, 0, 67, 38
1, 15434, Note_on_c, 0, 79, 75
1, 15476, Note_on_c, 0, 60, 0
1, 15500, Note_on_c, 0, 79, 0
1, 15502, Note_on_c, 0, 67, 0
1, 15576, Note_on_c, 0, 81, 67
1, 15579, Note_on_c, 0, 59, 34
1, 15688, Note_on_c, 0, 79, 67
1, 15710, Note_on_c, 0, 67, 21
1, 15712, Note_on_c, 0, 81, 0
1, 15752, Note_on_c, 0, 79, 0
1, 15792, Note_on_c, 0, 78, 61
1, 15795, Note_on_c, 0, 67, 0
1, 15814, Note_on_c, 0, 62, 32
1, 15858, Note_on_c, 0, 59, 0
1, 15876, Note_on_c, 0, 62, 0
1, 15908, Note_on_c, 0, 78, 0
1, 15908, Note_on_c, 0, 67, 29
1, 15928, Note_on_c, 0, 76, 50
1, 15984, Note_on_c, 0, 67, 0
1, 16024, Note_on_c, 0, 76, 0
1, 16054, Note_on_c, 0, 74, 63
1, 16070, Note_on_c, 0, 54, 43
1, 16106, Note_on_c, 0, 74, 0
1, 16172, Note_on_c, 0, 74, 83
1, 16190, Note_on_c, 0, 62, 44
1, 16206, Note_on_c, 0, 74, 0
1, 16250, Note_on_c, 0, 62, 0
1, 16288, Note_on_c, 0, 74, 50
1, 16294, Note_on_c, 0, 57, 38
1, 16338, Note_on_c, 0, 74, 0
1, 16352, Note_on_c, 0, 57, 0
1, 16408, Note_on_c, 0, 74, 69
1, 16422, Note_on_c, 0, 62, 45
1, 16436, Note_on_c, 0, 54, 0
1, 16462, Note_on_c, 0, 74, 0
1, 16478, Note_on_c, 0, 62, 0
1, 16538, Note_on_c, 0, 76, 62
1, 16540, Note_on_c, 0, 55, 60
1, 16612, Note_on_c, 0, 76, 0
1, 16660, Note_on_c, 0, 74, 73
1, 16670, Note_on_c, 0, 62, 34
1, 16716, Note_on_c, 0, 74, 0
1, 16732, Note_on_c, 0, 62, 0
1, 16736, Note_on_c, 0, 55, 0
1, 16760, Note_on_c, 0, 59, 43
1, 16774, Note_on_c, 0, 72, 64
1, 16812, Note_on_c, 0, 59, 0
1, 16850, Note_on_c, 0, 72, 0
1, 16878, Note_on_c, 0, 71, 72
1, 16890, Note_on_c, 0, 62, 39
1, 16920, Note_on_c, 0, 71, 0
1, 16950, Note_on_c, 0, 62, 0
1, 17062, Note_on_c, 0, 88, 87
1, 17062, Note_on_c, 0, 47, 63
1, 17174, Note_on_c, 0, 86, 68
1, 17192, Note_on_c, 0, 55, 44
1, 17226, Note_on_c, 0, 88, 0
1, 17258, Note_on_c, 0, 55, 0
1, 17288, Note_on_c, 0, 84, 81
1, 17308, Note_on_c, 0, 86, 0
1, 17308, Note_on_c, 0, 50, 46
1, 17370, Note_on_c, 0, 50, 0
1, 17396, Note_on_c, 0, 83, 98
1, 17404, Note_on_c, 0, 84, 0
1, 17428, Note_on_c, 0, 47, 0
1, 17428, Note_on_c, 0, 55, 55
1, 17488, Note_on_c, 0, 55, 0
1, 17506, Note_on_c, 0, 83, 0
1, 17520, Note_on_c, 0, 80, 83
1, 17532, Note_on_c, 0, 48, 53
1, 17642, Note_on_c, 0, 57, 47
1, 17645, Note_on_c, 0, 81, 83
1, 17648, Note_on_c, 0, 80, 0
1, 17716, Note_on_c, 0, 57, 0
1, 17766, Note_on_c, 0, 83, 100
1, 17769, Note_on_c, 0, 52, 52
1, 17792, Note_on_c, 0, 81, 0
1, 17826, Note_on_c, 0, 52, 0
1, 17880, Note_on_c, 0, 57, 46
1, 17884, Note_on_c, 0, 84, 88
1, 17906, Note_on_c, 0, 83, 0
1, 17912, Note_on_c, 0, 48, 0
1, 17952, Note_on_c, 0, 57, 0
1, 17994, Note_on_c, 0, 84, 0
1, 18002, Note_on_c, 0, 76, 60
1, 18010, Note_on_c, 0, 49, 48
1, 18108, Note_on_c, 0, 78, 70
1, 18114, Note_on_c, 0, 76, 0
1, 18120, Note_on_c, 0, 57, 36
1, 18166, Note_on_c, 0, 49, 0
1, 18184, Note_on_c, 0, 57, 0
1, 18220, Note_on_c, 0, 52, 45
1, 18236, Note_on_c, 0, 79, 75
1, 18258, Note_on_c, 0, 78, 0
1, 18278, Note_on_c, 0, 52, 0
1, 18342, Note_on_c, 0, 81, 69
1, 18342, Note_on_c, 0, 57, 32
1, 18362, Note_on_c, 0, 79, 0
1, 18408, Note_on_c, 0, 81, 0
1, 18412, Note_on_c, 0, 57, 0
1, 18486, Note_on_c, 0, 79, 51
1, 18489, Note_on_c, 0, 50, 40
1, 18578, Note_on_c, 0, 79, 0
1, 18610, Note_on_c, 0, 78, 40
1, 18708, Note_on_c, 0, 78, 0
1, 18736, Note_on_c, 0, 76, 35
1, 18796, Note_on_c, 0, 76, 0
1, 18820, Note_on_c, 0, 50, 0
1, 18834, Note_on_c, 0, 74, 50
1, 18882, Note_on_c, 0, 74, 0
1, 18948, Note_on_c, 0, 86, 65
1, 18952, Note_on_c, 0, 83, 78
1, 18992, Note_on_c, 0, 83, 0
1, 18998, Note_on_c, 0, 86, 0
1, 19198, Note_on_c, 0, 86, 76
1, 19218, Note_on_c, 0, 83, 87
1, 19256, Note_on_c, 0, 83, 0
1, 19272, Note_on_c, 0, 86, 0
1, 19444, Note_on_c, 0, 83, 91
1, 19446, Note_on_c, 0, 79, 71
1, 19448, Note_on_c, 0, 67, 51
1, 19466, Note_on_c, 0, 64, 42
1, 19504, Note_on_c, 0, 79, 0
1, 19504, Note_on_c, 0, 67, 0
1, 19516, Note_on_c, 0, 64, 0
1, 19588, Note_on_c, 0, 83, 0
1, 19686, Note_on_c, 0, 67, 56
1, 19706, Note_on_c, 0, 64, 46
1, 19746, Note_on_c, 0, 67, 0
1, 19756, Note_on_c, 0, 64, 0
1, 19936, Note_on_c, 0, 84, 73
1, 19942, Note_on_c, 0, 81, 60
1, 19948, Note_on_c, 0, 64, 47
1, 19956, Note_on_c, 0, 60, 43
1, 19988, Note_on_c, 0, 81, 0
1, 20032, Note_on_c, 0, 84, 0
1, 20042, Note_on_c, 0, 64, 0
1, 20072, Note_on_c, 0, 60, 0
1, 20188, Note_on_c, 0, 84, 74
1, 20194, Note_on_c, 0, 81, 57
1, 20236, Note_on_c, 0, 84, 0
1, 20239, Note_on_c, 0, 81, 0
1, 20428, Note_on_c, 0, 66, 35
1, 20428, Note_on_c, 0, 81, 44
1, 20434, Note_on_c, 0, 78, 50
1, 20438, Note_on_c, 0, 62, 27
1, 20504, Note_on_c, 0, 62, 0
1, 20506, Note_on_c, 0, 66, 0
1, 20507, Note_on_c, 0, 81, 0
1, 20508, Note_on_c, 0, 78, 0
1, 20690, Note_on_c, 0, 66, 39
1, 20700, Note_on_c, 0, 62, 41
1, 20754, Note_on_c, 0, 62, 0
1, 20760, Note_on_c, 0, 66, 0
1, 20926, Note_on_c, 0, 79, 74
1, 20946, Note_on_c, 0, 62, 34
1, 20946, Note_on_c, 0, 59, 35
1, 21044, Note_on_c, 0, 79, 0
1, 21044, Note_on_c, 0, 62, 0
1, 21054, Note_on_c, 0, 81, 55
1, 21080, Note_on_c, 0, 59, 0
1, 21166, Note_on_c, 0, 83, 88
1, 21176, Note_on_c, 0, 81, 0
1, 21278, Note_on_c, 0, 83, 0
1, 21288, Note_on_c, 0, 79, 65
1, 21358, Note_on_c, 0, 79, 0
1, 21408, Note_on_c, 0, 55, 47
1, 21411, Note_on_c, 0, 75, 57
1, 21414, Note_on_c, 0, 48, 29
1, 21534, Note_on_c, 0, 76, 58
1, 21540, Note_on_c, 0, 75, 0
1, 21616, Note_on_c, 0, 76, 0
1, 21640, Note_on_c, 0, 79, 65
1, 21712, Note_on_c, 0, 79, 0
1, 21770, Note_on_c, 0, 76, 50
1, 21832, Note_on_c, 0, 76, 0
1, 21870, Note_on_c, 0, 50, 38
1, 21884, Note_on_c, 0, 74, 58
1, 21886, Note_on_c, 0, 48, 0
1, 21980, Note_on_c, 0, 74, 0
1, 21986, Note_on_c, 0, 71, 61
1, 22084, Note_on_c, 0, 71, 0
1, 22110, Note_on_c, 0, 55, 0
1, 22140, Note_on_c, 0, 72, 61
1, 22142, Note_on_c, 0, 54, 47
1, 22238, Note_on_c, 0, 72, 0
1, 22260, Note_on_c, 0, 69, 61
1, 22325, Note_on_c, 0, 50, 0
1, 22354, Note_on_c, 0, 54, 0
1, 22358, Note_on_c, 0, 69, 0
1, 22378, Note_on_c, 0, 67, 46
1, 22396, Note_on_c, 0, 55, 52
1, 22468, Note_on_c, 0, 55, 0
1, 22530, Note_on_c, 0, 67, 0
1, 22638, Note_on_c, 0, 43, 56
1, 22780, Note_on_c, 0, 43, 0
1, 22886, Note_on_c, 0, 67, 47
1, 23004, Note_on_c, 0, 69, 33
1, 23006, Note_on_c, 0, 67, 0
1, 23088, Note_on_c, 0, 69, 0
1, 23100, Note_on_c, 0, 71, 57
1, 23218, Note_on_c, 0, 72, 54
1, 23236, Note_on_c, 0, 71, 0
1, 23340, Note_on_c, 0, 72, 0
1, 23354, Note_on_c, 0, 74, 55
1, 23370, Note_on_c, 0, 59, 36
1, 23370, Note_on_c, 0, 55, 33
1, 23432, Note_on_c, 0, 55, 0
1, 23444, Note_on_c, 0, 59, 0
1, 23540, Note_on_c, 0, 74, 0
1, 23634, Note_on_c, 0, 43, 38
1, 23764, Note_on_c, 0, 43, 0
1, 23888, Note_on_c, 0, 71, 62
1, 24010, Note_on_c, 0, 71, 0
1, 24018, Note_on_c, 0, 72, 49
1, 24100, Note_on_c, 0, 74, 72
1, 24106, Note_on_c, 0, 72, 0
1, 24214, Note_on_c, 0, 76, 65
1, 24218, Note_on_c, 0, 74, 0
1, 24334, Note_on_c, 0, 77, 71
1, 24337, Note_on_c, 0, 59, 45
1, 24337, Note_on_c, 0, 55, 49
1, 24342, Note_on_c, 0, 76, 0
1, 24406, Note_on_c, 0, 55, 0
1, 24426, Note_on_c, 0, 59, 0
1, 24524, Note_on_c, 0, 77, 0
1, 24618, Note_on_c, 0, 43, 64
1, 24752, Note_on_c, 0, 43, 0
1, 24864, Note_on_c, 0, 74, 82
1, 24986, Note_on_c, 0, 76, 71
1, 25010, Note_on_c, 0, 74, 0
1, 25088, Note_on_c, 0, 77, 82
1, 25114, Note_on_c, 0, 76, 0
1, 25186, Note_on_c, 0, 79, 87
1, 25202, Note_on_c, 0, 77, 0
1, 25304, Note_on_c, 0, 79, 0
1, 25312, Note_on_c, 0, 81, 77
1, 25408, Note_on_c, 0, 81, 0
1, 25596, Note_on_c, 0, 80, 58
1, 25718, Note_on_c, 0, 80, 0
1, 25908, Note_on_c, 0, 79, 53
1, 26018, Note_on_c, 0, 79, 0
1, 26258, Note_on_c, 0, 78, 37
1, 26400, Note_on_c, 0, 78, 0
1, 26756, Note_on_c, 0, 77, 29
1, 27132, Note_on_c, 0, 77, 0
1, 27544, Note_on_c, 0, 79, 48
1, 27552, Note_on_c, 0, 76, 12
1, 27604, Note_on_c, 0, 79, 0
1, 27626, Note_on_c, 0, 76, 0
1, 27812, Note_on_c, 0, 76, 26
1, 27812, Note_on_c, 0, 79, 53
1, 27876, Note_on_c, 0, 76, 0
1, 27876, Note_on_c, 0, 79, 0
1, 28044, Note_on_c, 0, 72, 41
1, 28046, Note_on_c, 0, 76, 45
1, 28048, Note_on_c, 0, 60, 28
1, 28058, Note_on_c, 0, 57, 24
1, 28116, Note_on_c, 0, 72, 0
1, 28128, Note_on_c, 0, 60, 0
1, 28130, Note_on_c, 0, 76, 0
1, 28132, Note_on_c, 0, 57, 0
1, 28302, Note_on_c, 0, 60, 42
1, 28306, Note_on_c, 0, 57, 47
1, 28366, Note_on_c, 0, 57, 0
1, 28370, Note_on_c, 0, 60, 0
1, 28532, Note_on_c, 0, 77, 51
1, 28538, Note_on_c, 0, 74, 61
1, 28548, Note_on_c, 0, 57, 36
1, 28566, Note_on_c, 0, 53, 58
1, 28590, Note_on_c, 0, 74, 0
1, 28620, Note_on_c, 0, 57, 0
1, 28622, Note_on_c, 0, 77, 0
1, 28628, Note_on_c, 0, 53, 0
1, 28790, Note_on_c, 0, 77, 50
1, 28792, Note_on_c, 0, 74, 58
1, 28838, Note_on_c, 0, 77, 0
1, 28846, Note_on_c, 0, 74, 0
1, 29003, Note_on_c, 0, 74, 56
1, 29010, Note_on_c, 0, 59, 41
1, 29013, Note_on_c, 0, 71, 57
1, 29016, Note_on_c, 0, 55, 45
1, 29070, Note_on_c, 0, 59, 0
1, 29073, Note_on_c, 0, 71, 0
1, 29073, Note_on_c, 0, 55, 0
1, 29092, Note_on_c, 0, 74, 0
1, 29238, Note_on_c, 0, 59, 46
1, 29242, Note_on_c, 0, 55, 57
1, 29290, Note_on_c, 0, 59, 0
1, 29293, Note_on_c, 0, 55, 0
1, 29462, Note_on_c, 0, 72, 66
1, 29476, Note_on_c, 0, 55, 42
1, 29490, Note_on_c, 0, 52, 48
1, 29520, Note_on_c, 0, 72, 0
1, 29540, Note_on_c, 0, 55, 0
1, 29546, Note_on_c, 0, 52, 0
1, 29576, Note_on_c, 0, 74, 66
1, 29688, Note_on_c, 0, 76, 64
1, 29706, Note_on_c, 0, 74, 0
1, 29804, Note_on_c, 0, 72, 57
1, 29810, Note_on_c, 0, 76, 0
1, 29884, Note_on_c, 0, 72, 0
1, 29924, Note_on_c, 0, 69, 54
1, 29932, Note_on_c, 0, 53, 65
1, 29994, Note_on_c, 0, 69, 0
1, 30046, Note_on_c, 0, 71, 63
1, 30136, Note_on_c, 0, 71, 0
1, 30146, Note_on_c, 0, 72, 58
1, 30254, Note_on_c, 0, 72, 0
1, 30256, Note_on_c, 0, 73, 62
1, 30368, Note_on_c, 0, 73, 0
1, 30380, Note_on_c, 0, 74, 74
1, 30456, Note_on_c, 0, 74, 0
1, 30484, Note_on_c, 0, 76, 69
1, 30572, Note_on_c, 0, 53, 0
1, 30572, Note_on_c, 0, 76, 0
1, 30592, Note_on_c, 0, 50, 47
1, 30600, Note_on_c, 0, 77, 74
1, 30664, Note_on_c, 0, 77, 0
1, 30698, Note_on_c, 0, 74, 57
1, 30738, Note_on_c, 0, 50, 0
1, 30770, Note_on_c, 0, 74, 0
1, 30816, Note_on_c, 0, 72, 66
1, 30830, Note_on_c, 0, 55, 41
1, 30938, Note_on_c, 0, 71, 63
1, 30942, Note_on_c, 0, 72, 0
1, 31008, Note_on_c, 0, 71, 0
1, 31032, Note_on_c, 0, 55, 0
1, 31038, Note_on_c, 0, 69, 42
1, 31108, Note_on_c, 0, 69, 0
1, 31128, Note_on_c, 0, 67, 46
1, 31188, Note_on_c, 0, 67, 0
1, 31256, Note_on_c, 0, 76, 61
1, 31258, Note_on_c, 0, 79, 70
1, 31302, Note_on_c, 0, 76, 0
1, 31308, Note_on_c, 0, 79, 0
1, 31498, Note_on_c, 0, 79, 69
1, 31516, Note_on_c, 0, 76, 48
1, 31546, Note_on_c, 0, 79, 0
1, 31564, Note_on_c, 0, 76, 0
1, 31734, Note_on_c, 0, 76, 42
1, 31744, Note_on_c, 0, 72, 42
1, 31750, Note_on_c, 0, 60, 34
1, 31752, Note_on_c, 0, 57, 33
1, 31810, Note_on_c, 0, 72, 0
1, 31816, Note_on_c, 0, 57, 0
1, 31818, Note_on_c, 0, 60, 0
1, 31822, Note_on_c, 0, 76, 0
1, 31984, Note_on_c, 0, 57, 44
1, 32012, Note_on_c, 0, 60, 19
1, 32038, Note_on_c, 0, 57, 0
1, 32074, Note_on_c, 0, 60, 0
1, 32194, Note_on_c, 0, 81, 71
1, 32204, Note_on_c, 0, 77, 58
1, 32208, Note_on_c, 0, 53, 77
1, 32224, Note_on_c, 0, 50, 38
1, 32254, Note_on_c, 0, 77, 0
1, 32268, Note_on_c, 0, 53, 0
1, 32298, Note_on_c, 0, 81, 0
1, 32300, Note_on_c, 0, 50, 0
1, 32436, Note_on_c, 0, 77, 65
1, 32450, Note_on_c, 0, 81, 59
1, 32494, Note_on_c, 0, 77, 0
1, 32494, Note_on_c, 0, 81, 0
1, 32676, Note_on_c, 0, 59, 50
1, 32680, Note_on_c, 0, 71, 63
1, 32684, Note_on_c, 0, 74, 58
1, 32692, Note_on_c, 0, 55, 49
1, 32728, Note_on_c, 0, 59, 0
1, 32742, Note_on_c, 0, 71, 0
1, 32744, Note_on_c, 0, 74, 0
1, 32744, Note_on_c, 0, 55, 0
1, 32900, Note_on_c, 0, 59, 49
1, 32918, Note_on_c, 0, 55, 63
1, 32956, Note_on_c, 0, 59, 0
1, 32964, Note_on_c, 0, 55, 0
1, 33138, Note_on_c, 0, 81, 75
1, 33146, Note_on_c, 0, 48, 51
1, 33148, Note_on_c, 0, 52, 67
1, 33202, Note_on_c, 0, 52, 0
1, 33216, Note_on_c, 0, 48, 0
1, 33234, Note_on_c, 0, 79, 73
1, 33276, Note_on_c, 0, 81, 0
1, 33346, Note_on_c, 0, 77, 74
1, 33370, Note_on_c, 0, 79, 0
1, 33434, Note_on_c, 0, 77, 0
1, 33448, Note_on_c, 0, 76, 54
1, 33584, Note_on_c, 0, 73, 62
1, 33586, Note_on_c, 0, 76, 0
1, 33592, Note_on_c, 0, 57, 41
1, 33612, Note_on_c, 0, 53, 51
1, 33694, Note_on_c, 0, 74, 68
1, 33730, Note_on_c, 0, 73, 0
1, 33798, Note_on_c, 0, 76, 59
1, 33840, Note_on_c, 0, 74, 0
1, 33916, Note_on_c, 0, 77, 66
1, 33928, Note_on_c, 0, 76, 0
1, 34026, Note_on_c, 0, 77, 0
1, 34040, Note_on_c, 0, 69, 49
1, 34100, Note_on_c, 0, 53, 0
1, 34106, Note_on_c, 0, 57, 0
1, 34126, Note_on_c, 0, 69, 0
1, 34142, Note_on_c, 0, 72, 55
1, 34218, Note_on_c, 0, 72, 0
1, 34256, Note_on_c, 0, 65, 27
1, 34256, Note_on_c, 0, 55, 43
1, 34266, Note_on_c, 0, 71, 58
1, 34322, Note_on_c, 0, 65, 0
1, 34322, Note_on_c, 0, 55, 0
1, 34325, Note_on_c, 0, 71, 0
1, 34354, Note_on_c, 0, 74, 59
1, 34414, Note_on_c, 0, 74, 0
1, 34506, Note_on_c, 0, 72, 48
1, 34508, Note_on_c, 0, 60, 37
1, 34510, Note_on_c, 0, 64, 43
1, 34560, Note_on_c, 0, 64, 0
1, 34576, Note_on_c, 0, 60, 0
1, 34746, Note_on_c, 0, 48, 51
1, 34798, Note_on_c, 0, 48, 0
1, 34836, Note_on_c, 0, 72, 0
1, 34988, Note_on_c, 0, 64, 78
1, 35002, Note_on_c, 0, 60, 65
1, 35068, Note_on_c, 0, 60, 0
1, 35080, Note_on_c, 0, 64, 0
1, 35244, Note_on_c, 0, 64, 73
1, 35258, Note_on_c, 0, 60, 61
1, 35292, Note_on_c, 0, 64, 0
1, 35306, Note_on_c, 0, 60, 0
1, 35512, Note_on_c, 0, 60, 54
1, 35518, Note_on_c, 0, 76, 41
1, 35518, Note_on_c, 0, 57, 41
1, 35590, Note_on_c, 0, 76, 0
1, 35606, Note_on_c, 0, 60, 0
1, 35632, Note_on_c, 0, 75, 42
1, 35635, Note_on_c, 0, 57, 0
1, 35730, Note_on_c, 0, 75, 0
1, 35752, Note_on_c, 0, 77, 42
1, 35812, Note_on_c, 0, 77, 0
1, 35858, Note_on_c, 0, 76, 32
1, 35942, Note_on_c, 0, 76, 0
1, 35972, Note_on_c, 0, 62, 70
1, 35992, Note_on_c, 0, 59, 44
1, 36030, Note_on_c, 0, 62, 0
1, 36048, Note_on_c, 0, 59, 0
1, 36220, Note_on_c, 0, 59, 49
1, 36228, Note_on_c, 0, 62, 55
1, 36270, Note_on_c, 0, 59, 0
1, 36282, Note_on_c, 0, 62, 0
1, 36448, Note_on_c, 0, 76, 72
1, 36484, Note_on_c, 0, 59, 35
1, 36487, Note_on_c, 0, 56, 39
1, 36554, Note_on_c, 0, 76, 0
1, 36568, Note_on_c, 0, 75, 57
1, 36592, Note_on_c, 0, 59, 0
1, 36624, Note_on_c, 0, 56, 0
1, 36684, Note_on_c, 0, 77, 62
1, 36708, Note_on_c, 0, 75, 0
1, 36794, Note_on_c, 0, 77, 0
1, 36796, Note_on_c, 0, 76, 46
1, 36850, Note_on_c, 0, 76, 0
1, 36908, Note_on_c, 0, 84, 98
1, 36912, Note_on_c, 0, 76, 63
1, 36964, Note_on_c, 0, 76, 0
1, 37002, Note_on_c, 0, 84, 0
1, 37152, Note_on_c, 0, 84, 90
1, 37155, Note_on_c, 0, 76, 76
1, 37226, Note_on_c, 0, 76, 0
1, 37250, Note_on_c, 0, 84, 0
1, 37412, Note_on_c, 0, 72, 61
1, 37412, Note_on_c, 0, 81, 63
1, 37420, Note_on_c, 0, 64, 51
1, 37472, Note_on_c, 0, 64, 0
1, 37480, Note_on_c, 0, 72, 0
1, 37532, Note_on_c, 0, 63, 54
1, 37544, Note_on_c, 0, 81, 0
1, 37614, Note_on_c, 0, 63, 0
1, 37650, Note_on_c, 0, 65, 36
1, 37710, Note_on_c, 0, 65, 0
1, 37774, Note_on_c, 0, 64, 42
1, 37850, Note_on_c, 0, 64, 0
1, 37886, Note_on_c, 0, 83, 95
1, 37892, Note_on_c, 0, 74, 66
1, 37942, Note_on_c, 0, 74, 0
1, 37962, Note_on_c, 0, 83, 0
1, 38124, Note_on_c, 0, 83, 85
1, 38136, Note_on_c, 0, 74, 60
1, 38178, Note_on_c, 0, 83, 0
1, 38182, Note_on_c, 0, 74, 0
1, 38360, Note_on_c, 0, 64, 54
1, 38362, Note_on_c, 0, 80, 66
1, 38376, Note_on_c, 0, 71, 52
1, 38444, Note_on_c, 0, 64, 0
1, 38464, Note_on_c, 0, 71, 0
1, 38470, Note_on_c, 0, 80, 0
1, 38472, Note_on_c, 0, 63, 48
1, 38538, Note_on_c, 0, 63, 0
1, 38588, Note_on_c, 0, 65, 26
1, 38658, Note_on_c, 0, 65, 0
1, 38692, Note_on_c, 0, 64, 55
1, 38738, Note_on_c, 0, 64, 0
1, 38854, Note_on_c, 0, 81, 65
1, 38870, Note_on_c, 0, 64, 35
1, 38878, Note_on_c, 0, 60, 37
1, 38986, Note_on_c, 0, 81, 0
1, 38992, Note_on_c, 0, 76, 48
1, 39068, Note_on_c, 0, 76, 0
1, 39118, Note_on_c, 0, 72, 42
1, 39180, Note_on_c, 0, 72, 0
1, 39222, Note_on_c, 0, 69, 44
1, 39284, Note_on_c, 0, 69, 0
1, 39342, Note_on_c, 0, 72, 58
1, 39354, Note_on_c, 0, 64, 0
1, 39362, Note_on_c, 0, 60, 0
1, 39364, Note_on_c, 0, 62, 50
1, 39370, Note_on_c, 0, 65, 35
1, 39468, Note_on_c, 0, 72, 0
1, 39478, Note_on_c, 0, 70, 66
1, 39530, Note_on_c, 0, 70, 0
1, 39604, Note_on_c, 0, 70, 52
1, 39662, Note_on_c, 0, 70, 0
1, 39720, Note_on_c, 0, 70, 62
1, 39790, Note_on_c, 0, 70, 0
1, 39852, Note_on_c, 0, 74, 76
1, 39860, Note_on_c, 0, 65, 0
1, 39866, Note_on_c, 0, 67, 46
1, 39872, Note_on_c, 0, 62, 0
1, 39878, Note_on_c, 0, 64, 50
1, 39968, Note_on_c, 0, 73, 67
1, 39970, Note_on_c, 0, 74, 0
1, 40044, Note_on_c, 0, 73, 0
1, 40098, Note_on_c, 0, 73, 76
1, 40144, Note_on_c, 0, 73, 0
1, 40216, Note_on_c, 0, 73, 63
1, 40294, Note_on_c, 0, 73, 0
1, 40320, Note_on_c, 0, 67, 0
1, 40348, Note_on_c, 0, 64, 0
1, 40368, Note_on_c, 0, 76, 56
1, 40371, Note_on_c, 0, 65, 41
1, 40378, Note_on_c, 0, 69, 34
1, 40464, Note_on_c, 0, 76, 0
1, 40482, Note_on_c, 0, 74, 67
1, 40522, Note_on_c, 0, 74, 0
1, 40588, Note_on_c, 0, 65, 0
1, 40604, Note_on_c, 0, 77, 80
1, 40612, Note_on_c, 0, 61, 47
1, 40720, Note_on_c, 0, 77, 0
1, 40728, Note_on_c, 0, 76, 57
1, 40776, Note_on_c, 0, 76, 0
1, 40840, Note_on_c, 0, 61, 0
1, 40852, Note_on_c, 0, 79, 91
1, 40878, Note_on_c, 0, 62, 36
1, 40970, Note_on_c, 0, 77, 78
1, 40994, Note_on_c, 0, 79, 0
1, 41008, Note_on_c, 0, 77, 0
1, 41092, Note_on_c, 0, 62, 0
1, 41094, Note_on_c, 0, 77, 63
1, 41106, Note_on_c, 0, 64, 42
1, 41208, Note_on_c, 0, 76, 84
1, 41216, Note_on_c, 0, 69, 0
1, 41232, Note_on_c, 0, 77, 0
1, 41252, Note_on_c, 0, 76, 0
1, 41354, Note_on_c, 0, 64, 0
1, 41358, Note_on_c, 0, 76, 80
1, 41372, Note_on_c, 0, 69, 31
1, 41396, Note_on_c, 0, 65, 24
1, 41478, Note_on_c, 0, 76, 0
1, 41478, Note_on_c, 0, 75, 79
1, 41696, Note_on_c, 0, 75, 0
1, 41712, Note_on_c, 0, 84, 81
1, 41750, Note_on_c, 0, 69, 0
1, 41786, Note_on_c, 0, 65, 0
1, 42024, Note_on_c, 0, 69, 34
1, 42042, Note_on_c, 0, 65, 23
1, 42250, Note_on_c, 0, 69, 0
1, 42282, Note_on_c, 0, 75, 50
1, 42285, Note_on_c, 0, 84, 0
1, 42288, Note_on_c, 0, 65, 0
1, 42582, Note_on_c, 0, 76, 43
1, 42604, Note_on_c, 0, 52, 52
1, 42614, Note_on_c, 0, 75, 0
1, 42722, Note_on_c, 0, 64, 49
1, 42786, Note_on_c, 0, 64, 0
1, 42810, Note_on_c, 0, 52, 0
1, 42844, Note_on_c, 0, 56, 42
1, 42924, Note_on_c, 0, 56, 0
1, 42982, Note_on_c, 0, 64, 22
1, 43056, Note_on_c, 0, 64, 0
1, 43060, Note_on_c, 0, 76, 0
1, 43108, Note_on_c, 0, 83, 94
1, 43112, Note_on_c, 0, 59, 16
1, 43190, Note_on_c, 0, 59, 0
1, 43226, Note_on_c, 0, 80, 66
1, 43226, Note_on_c, 0, 64, 22
1, 43238, Note_on_c, 0, 83, 0
1, 43300, Note_on_c, 0, 64, 0
1, 43332, Note_on_c, 0, 56, 27
1, 43344, Note_on_c, 0, 76, 57
1, 43364, Note_on_c, 0, 80, 0
1, 43416, Note_on_c, 0, 56, 0
1, 43452, Note_on_c, 0, 74, 70
1, 43462, Note_on_c, 0, 76, 0
1, 43468, Note_on_c, 0, 64, 25
1, 43542, Note_on_c, 0, 64, 0
1, 43590, Note_on_c, 0, 72, 75
1, 43593, Note_on_c, 0, 74, 0
1, 43593, Note_on_c, 0, 52, 44
1, 43694, Note_on_c, 0, 72, 0
1, 43708, Note_on_c, 0, 76, 73
1, 43726, Note_on_c, 0, 64, 34
1, 43742, Note_on_c, 0, 52, 0
1, 43796, Note_on_c, 0, 64, 0
1, 43814, Note_on_c, 0, 81, 75
1, 43830, Note_on_c, 0, 76, 0
1, 43838, Note_on_c, 0, 57, 28
1, 43918, Note_on_c, 0, 57, 0
1, 43932, Note_on_c, 0, 80, 75
1, 43958, Note_on_c, 0, 81, 0
1, 43961, Note_on_c, 0, 64, 18
1, 44036, Note_on_c, 0, 64, 0
1, 44054, Note_on_c, 0, 60, 43
1, 44074, Note_on_c, 0, 81, 58
1, 44086, Note_on_c, 0, 80, 0
1, 44132, Note_on_c, 0, 60, 0
1, 44154, Note_on_c, 0, 64, 28
1, 44184, Note_on_c, 0, 76, 58
1, 44190, Note_on_c, 0, 81, 0
1, 44246, Note_on_c, 0, 64, 0
1, 44262, Note_on_c, 0, 76, 0
1, 44294, Note_on_c, 0, 72, 56
1, 44294, Note_on_c, 0, 57, 33
1, 44370, Note_on_c, 0, 72, 0
1, 44376, Note_on_c, 0, 57, 0
1, 44402, Note_on_c, 0, 69, 55
1, 44432, Note_on_c, 0, 64, 39
1, 44502, Note_on_c, 0, 69, 0
1, 44504, Note_on_c, 0, 64, 0
1, 44528, Note_on_c, 0, 68, 62
1, 44544, Note_on_c, 0, 52, 44
1, 44652, Note_on_c, 0, 71, 76
1, 44658, Note_on_c, 0, 68, 0
1, 44674, Note_on_c, 0, 64, 41
1, 44714, Note_on_c, 0, 52, 0
1, 44744, Note_on_c, 0, 64, 0
1, 44756, Note_on_c, 0, 56, 47
1, 44782, Note_on_c, 0, 76, 65
1, 44800, Note_on_c, 0, 71, 0
1, 44830, Note_on_c, 0, 56, 0
1, 44866, Note_on_c, 0, 64, 37
1, 44876, Note_on_c, 0, 80, 75
1, 44894, Note_on_c, 0, 76, 0
1, 44950, Note_on_c, 0, 64, 0
1, 44988, Note_on_c, 0, 59, 51
1, 45006, Note_on_c, 0, 83, 104
1, 45034, Note_on_c, 0, 80, 0
1, 45050, Note_on_c, 0, 59, 0
1, 45100, Note_on_c, 0, 64, 43
1, 45106, Note_on_c, 0, 80, 64
1, 45164, Note_on_c, 0, 83, 0
1, 45184, Note_on_c, 0, 64, 0
1, 45210, Note_on_c, 0, 56, 50
1, 45226, Note_on_c, 0, 76, 72
1, 45258, Note_on_c, 0, 80, 0
1, 45306, Note_on_c, 0, 56, 0
1, 45328, Note_on_c, 0, 74, 83
1, 45336, Note_on_c, 0, 76, 0
1, 45348, Note_on_c, 0, 64, 58
1, 45404, Note_on_c, 0, 64, 0
1, 45458, Note_on_c, 0, 72, 83
1, 45468, Note_on_c, 0, 52, 57
1, 45472, Note_on_c, 0, 74, 0
1, 45566, Note_on_c, 0, 72, 0
1, 45580, Note_on_c, 0, 76, 78
1, 45598, Note_on_c, 0, 64, 48
1, 45612, Note_on_c, 0, 52, 0
1, 45666, Note_on_c, 0, 64, 0
1, 45680, Note_on_c, 0, 81, 77
1, 45698, Note_on_c, 0, 76, 0
1, 45698, Note_on_c, 0, 57, 44
1, 45772, Note_on_c, 0, 57, 0
1, 45796, Note_on_c, 0, 80, 75
1, 45824, Note_on_c, 0, 81, 0
1, 45826, Note_on_c, 0, 64, 32
1, 45888, Note_on_c, 0, 64, 0
1, 45910, Note_on_c, 0, 60, 45
1, 45922, Note_on_c, 0, 81, 50
1, 45924, Note_on_c, 0, 80, 0
1, 45982, Note_on_c, 0, 60, 0
1, 46008, Note_on_c, 0, 64, 32
1, 46030, Note_on_c, 0, 81, 0
1, 46040, Note_on_c, 0, 76, 49
1, 46078, Note_on_c, 0, 64, 0
1, 46098, Note_on_c, 0, 76, 0
1, 46132, Note_on_c, 0, 57, 36
1, 46142, Note_on_c, 0, 72, 46
1, 46202, Note_on_c, 0, 57, 0
1, 46202, Note_on_c, 0, 72, 0
1, 46250, Note_on_c, 0, 69, 49
1, 46362, Note_on_c, 0, 69, 0
1, 46388, Note_on_c, 0, 64, 63
1, 46394, Note_on_c, 0, 52, 51
1, 46598, Note_on_c, 0, 64, 0
1, 46604, Note_on_c, 0, 52, 0
1, 46934, Note_on_c, 0, 72, 57
1, 46938, Note_on_c, 0, 76, 46
1, 46988, Note_on_c, 0, 72, 0
1, 47004, Note_on_c, 0, 76, 0
1, 47176, Note_on_c, 0, 76, 56
1, 47179, Note_on_c, 0, 72, 62
1, 47236, Note_on_c, 0, 72, 0
1, 47244, Note_on_c, 0, 76, 0
1, 47438, Note_on_c, 0, 64, 57
1, 47440, Note_on_c, 0, 72, 48
1, 47440, Note_on_c, 0, 69, 36
1, 47516, Note_on_c, 0, 64, 0
1, 47530, Note_on_c, 0, 69, 0
1, 47552, Note_on_c, 0, 63, 52
1, 47660, Note_on_c, 0, 65, 49
1, 47668, Note_on_c, 0, 63, 0
1, 47672, Note_on_c, 0, 72, 0
1, 47748, Note_on_c, 0, 65, 0
1, 47808, Note_on_c, 0, 64, 42
1, 47878, Note_on_c, 0, 64, 0
1, 47918, Note_on_c, 0, 74, 68
1, 47920, Note_on_c, 0, 71, 70
1, 47972, Note_on_c, 0, 71, 0
1, 47978, Note_on_c, 0, 74, 0
1, 48184, Note_on_c, 0, 74, 64
1, 48187, Note_on_c, 0, 71, 49
1, 48230, Note_on_c, 0, 74, 0
1, 48242, Note_on_c, 0, 71, 0
1, 48412, Note_on_c, 0, 71, 57
1, 48424, Note_on_c, 0, 64, 59
1, 48430, Note_on_c, 0, 68, 34
1, 48498, Note_on_c, 0, 64, 0
1, 48532, Note_on_c, 0, 68, 0
1, 48534, Note_on_c, 0, 63, 59
1, 48602, Note_on_c, 0, 63, 0
1, 48616, Note_on_c, 0, 71, 0
1, 48634, Note_on_c, 0, 65, 43
1, 48690, Note_on_c, 0, 65, 0
1, 48746, Note_on_c, 0, 64, 52
1, 48796, Note_on_c, 0, 64, 0
1, 48908, Note_on_c, 0, 60, 94
1, 48914, Note_on_c, 0, 52, 98
1, 48950, Note_on_c, 0, 52, 0
1, 48968, Note_on_c, 0, 60, 0
1, 49160, Note_on_c, 0, 60, 88
1, 49176, Note_on_c, 0, 52, 85
1, 49216, Note_on_c, 0, 52, 0
1, 49268, Note_on_c, 0, 60, 0
1, 49420, Note_on_c, 0, 57, 78
1, 49432, Note_on_c, 0, 64, 70
1, 49435, Note_on_c, 0, 48, 61
1, 49532, Note_on_c, 0, 63, 70
1, 49538, Note_on_c, 0, 64, 0
1, 49604, Note_on_c, 0, 48, 0
1, 49610, Note_on_c, 0, 57, 0
1, 49662, Note_on_c, 0, 65, 49
1, 49668, Note_on_c, 0, 63, 0
1, 49748, Note_on_c, 0, 65, 0
1, 49788, Note_on_c, 0, 64, 52
1, 49842, Note_on_c, 0, 64, 0
1, 49902, Note_on_c, 0, 50, 89
1, 49902, Note_on_c, 0, 59, 90
1, 49962, Note_on_c, 0, 50, 0
1, 50010, Note_on_c, 0, 59, 0
1, 50160, Note_on_c, 0, 59, 86
1, 50172, Note_on_c, 0, 50, 87
1, 50234, Note_on_c, 0, 50, 0
1, 50252, Note_on_c, 0, 59, 0
1, 50430, Note_on_c, 0, 88, 83
1, 50433, Note_on_c, 0, 56, 81
1, 50450, Note_on_c, 0, 47, 63
1, 50556, Note_on_c, 0, 47, 0
1, 50556, Note_on_c, 0, 87, 67
1, 50574, Note_on_c, 0, 88, 0
1, 50590, Note_on_c, 0, 56, 0
1, 50682, Note_on_c, 0, 89, 75
1, 50696, Note_on_c, 0, 87, 0
1, 50780, Note_on_c, 0, 88, 82
1, 50806, Note_on_c, 0, 89, 0
1, 50830, Note_on_c, 0, 88, 0
1, 50922, Note_on_c, 0, 86, 93
1, 50932, Note_on_c, 0, 56, 46
1, 50934, Note_on_c, 0, 59, 59
1, 51032, Note_on_c, 0, 85, 76
1, 51064, Note_on_c, 0, 86, 0
1, 51172, Note_on_c, 0, 88, 72
1, 51196, Note_on_c, 0, 85, 0
1, 51280, Note_on_c, 0, 86, 83
1, 51314, Note_on_c, 0, 88, 0
1, 51322, Note_on_c, 0, 86, 0
1, 51332, Note_on_c, 0, 56, 0
1, 51346, Note_on_c, 0, 59, 0
1, 51418, Note_on_c, 0, 86, 67
1, 51434, Note_on_c, 0, 60, 49
1, 51446, Note_on_c, 0, 57, 31
1, 51516, Note_on_c, 0, 57, 0
1, 51548, Note_on_c, 0, 84, 79
1, 51562, Note_on_c, 0, 86, 0
1, 51588, Note_on_c, 0, 84, 0
1, 51644, Note_on_c, 0, 60, 0
1, 51682, Note_on_c, 0, 84, 61
1, 51708, Note_on_c, 0, 62, 43
1, 51726, Note_on_c, 0, 59, 25
1, 51802, Note_on_c, 0, 84, 0
1, 51805, Note_on_c, 0, 83, 82
1, 51844, Note_on_c, 0, 83, 0
1, 51872, Note_on_c, 0, 59, 0
1, 51892, Note_on_c, 0, 62, 0
1, 51924, Note_on_c, 0, 83, 83
1, 51954, Note_on_c, 0, 64, 45
1, 51968, Note_on_c, 0, 60, 30
1, 52030, Note_on_c, 0, 60, 0
1, 52048, Note_on_c, 0, 83, 0
1, 52048, Note_on_c, 0, 81, 65
1, 52090, Note_on_c, 0, 81, 0
1, 52168, Note_on_c, 0, 81, 57
1, 52196, Note_on_c, 0, 61, 45
1, 52234, Note_on_c, 0, 64, 0
1, 52288, Note_on_c, 0, 79, 73
1, 52290, Note_on_c, 0, 61, 0
1, 52304, Note_on_c, 0, 81, 0
1, 52330, Note_on_c, 0, 79, 0
1, 52400, Note_on_c, 0, 79, 71
1, 52402, Note_on_c, 0, 69, 55
1, 52430, Note_on_c, 0, 62, 48
1, 52524, Note_on_c, 0, 77, 70
1, 52544, Note_on_c, 0, 79, 0
1, 52562, Note_on_c, 0, 77, 0
1, 52638, Note_on_c, 0, 77, 66
1, 52667, Note_on_c, 0, 62, 0
1, 52667, Note_on_c, 0, 64, 63
1, 52754, Note_on_c, 0, 76, 69
1, 52774, Note_on_c, 0, 77, 0
1, 52794, Note_on_c, 0, 76, 0
1, 52820, Note_on_c, 0, 64, 0
1, 52878, Note_on_c, 0, 76, 59
1, 52894, Note_on_c, 0, 65, 51
1, 53000, Note_on_c, 0, 74, 77
1, 53020, Note_on_c, 0, 76, 0
1, 53036, Note_on_c, 0, 74, 0
1, 53090, Note_on_c, 0, 65, 0
1, 53112, Note_on_c, 0, 74, 58
1, 53130, Note_on_c, 0, 64, 45
1, 53210, Note_on_c, 0, 69, 0
1, 53210, Note_on_c, 0, 74, 0
1, 53213, Note_on_c, 0, 72, 76
1, 53338, Note_on_c, 0, 64, 0
1, 53360, Note_on_c, 0, 70, 67
1, 53376, Note_on_c, 0, 72, 0
1, 53382, Note_on_c, 0, 65, 30
1, 53398, Note_on_c, 0, 62, 29
1, 53488, Note_on_c, 0, 77, 73
1, 53496, Note_on_c, 0, 70, 0
1, 53604, Note_on_c, 0, 74, 72
1, 53606, Note_on_c, 0, 77, 0
1, 53624, Note_on_c, 0, 65, 0
1, 53646, Note_on_c, 0, 62, 0
1, 53718, Note_on_c, 0, 70, 60
1, 53754, Note_on_c, 0, 74, 0
1, 53868, Note_on_c, 0, 69, 59
1, 53882, Note_on_c, 0, 60, 47
1, 53888, Note_on_c, 0, 70, 0
1, 53917, Note_on_c, 0, 52, 25
1, 54156, Note_on_c, 0, 68, 52
1, 54164, Note_on_c, 0, 60, 0
1, 54174, Note_on_c, 0, 59, 45
1, 54192, Note_on_c, 0, 69, 0
1, 54406, Note_on_c, 0, 59, 0
1, 54450, Note_on_c, 0, 57, 34
1, 54460, Note_on_c, 0, 69, 40
1, 54474, Note_on_c, 0, 68, 0
1, 54522, Note_on_c, 0, 52, 0
1, 54584, Note_on_c, 0, 60, 51
1, 54670, Note_on_c, 0, 60, 0
1, 54704, Note_on_c, 0, 64, 46
1, 54792, Note_on_c, 0, 69, 0
1, 54812, Note_on_c, 0, 64, 0
1, 54836, Note_on_c, 0, 60, 45
1, 54896, Note_on_c, 0, 60, 0
1, 54922, Note_on_c, 0, 68, 60
1, 54925, Note_on_c, 0, 52, 65
1, 54990, Note_on_c, 0, 57, 0
1, 55046, Note_on_c, 0, 74, 70
1, 55046, Note_on_c, 0, 59, 47
1, 55054, Note_on_c, 0, 68, 0
1, 55118, Note_on_c, 0, 59, 0
1, 55146, Note_on_c, 0, 62, 54
1, 55158, Note_on_c, 0, 71, 73
1, 55184, Note_on_c, 0, 74, 0
1, 55264, Note_on_c, 0, 68, 70
1, 55290, Note_on_c, 0, 62, 0
1, 55293, Note_on_c, 0, 59, 50
1, 55324, Note_on_c, 0, 71, 0
1, 55368, Note_on_c, 0, 59, 0
1, 55402, Note_on_c, 0, 69, 71
1, 55408, Note_on_c, 0, 52, 0
1, 55411, Note_on_c, 0, 57, 52
1, 55414, Note_on_c, 0, 68, 0
1, 55538, Note_on_c, 0, 60, 53
1, 55607, Note_on_c, 0, 69, 0
1, 55622, Note_on_c, 0, 60, 0
1, 55642, Note_on_c, 0, 64, 53
1, 55712, Note_on_c, 0, 64, 0
1, 55744, Note_on_c, 0, 60, 43
1, 55814, Note_on_c, 0, 60, 0
1, 55864, Note_on_c, 0, 52, 64
1, 55880, Note_on_c, 0, 68, 54
1, 55890, Note_on_c, 0, 57, 0
1, 55994, Note_on_c, 0, 59, 45
1, 55997, Note_on_c, 0, 68, 0
1, 56012, Note_on_c, 0, 74, 50
1, 56062, Note_on_c, 0, 59, 0
1, 56092, Note_on_c, 0, 62, 43
1, 56108, Note_on_c, 0, 74, 0
1, 56118, Note_on_c, 0, 71, 65
1, 56196, Note_on_c, 0, 62, 0
1, 56226, Note_on_c, 0, 68, 51
1, 56234, Note_on_c, 0, 59, 38
1, 56240, Note_on_c, 0, 71, 0
1, 56246, Note_on_c, 0, 52, 0
1, 56294, Note_on_c, 0, 59, 0
1, 56326, Note_on_c, 0, 68, 0
1, 56338, Note_on_c, 0, 57, 30
1, 56356, Note_on_c, 0, 69, 48
1, 56470, Note_on_c, 0, 60, 50
1, 56534, Note_on_c, 0, 60, 0
1, 56570, Note_on_c, 0, 64, 44
1, 56573, Note_on_c, 0, 69, 0
1, 56638, Note_on_c, 0, 64, 0
1, 56710, Note_on_c, 0, 60, 50
1, 56774, Note_on_c, 0, 60, 0
1, 56774, Note_on_c, 0, 68, 47
1, 56802, Note_on_c, 0, 52, 51
1, 56810, Note_on_c, 0, 57, 0
1, 56874, Note_on_c, 0, 68, 0
1, 56912, Note_on_c, 0, 74, 63
1, 56928, Note_on_c, 0, 59, 30
1, 56988, Note_on_c, 0, 59, 0
1, 57012, Note_on_c, 0, 62, 43
1, 57014, Note_on_c, 0, 71, 74
1, 57020, Note_on_c, 0, 74, 0
1, 57060, Note_on_c, 0, 52, 0
1, 57120, Note_on_c, 0, 68, 70
1, 57120, Note_on_c, 0, 59, 33
1, 57134, Note_on_c, 0, 62, 0
1, 57142, Note_on_c, 0, 71, 0
1, 57200, Note_on_c, 0, 59, 0
1, 57236, Note_on_c, 0, 57, 55
1, 57252, Note_on_c, 0, 69, 73
1, 57268, Note_on_c, 0, 68, 0
1, 57374, Note_on_c, 0, 60, 50
1, 57376, Note_on_c, 0, 76, 75
1, 57404, Note_on_c, 0, 69, 0
1, 57446, Note_on_c, 0, 60, 0
1, 57476, Note_on_c, 0, 64, 54
1, 57492, Note_on_c, 0, 72, 78
1, 57554, Note_on_c, 0, 76, 0
1, 57574, Note_on_c, 0, 64, 0
1, 57602, Note_on_c, 0, 60, 55
1, 57602, Note_on_c, 0, 69, 78
1, 57628, Note_on_c, 0, 72, 0
1, 57681, Note_on_c, 0, 60, 0
1, 57686, Note_on_c, 0, 57, 0
1, 57722, Note_on_c, 0, 55, 65
1, 57736, Note_on_c, 0, 71, 96
1, 57780, Note_on_c, 0, 69, 0
1, 57856, Note_on_c, 0, 77, 85
1, 57864, Note_on_c, 0, 62, 59
1, 57890, Note_on_c, 0, 71, 0
1, 57930, Note_on_c, 0, 62, 0
1, 57992, Note_on_c, 0, 65, 40
1, 58002, Note_on_c, 0, 74, 78
1, 58018, Note_on_c, 0, 77, 0
1, 58102, Note_on_c, 0, 65, 0
1, 58124, Note_on_c, 0, 74, 0
1, 58127, Note_on_c, 0, 71, 71
1, 58140, Note_on_c, 0, 55, 0
1, 58148, Note_on_c, 0, 62, 44
1, 58286, Note_on_c, 0, 62, 0
1, 58310, Note_on_c, 0, 71, 0
1, 59364, Note_on_c, 0, 79, 57
1, 59370, Note_on_c, 0, 76, 39
1, 59416, Note_on_c, 0, 79, 0
1, 59422, Note_on_c, 0, 76, 0
1, 59616, Note_on_c, 0, 76, 49
1, 59624, Note_on_c, 0, 79, 67
1, 59664, Note_on_c, 0, 76, 0
1, 59672, Note_on_c, 0, 79, 0
1, 59856, Note_on_c, 0, 60, 39
1, 59862, Note_on_c, 0, 57, 37
1, 59862, Note_on_c, 0, 72, 49
1, 59866, Note_on_c, 0, 76, 45
1, 59920, Note_on_c, 0, 57, 0
1, 59923, Note_on_c, 0, 72, 0
1, 59926, Note_on_c, 0, 76, 0
1, 59932, Note_on_c, 0, 60, 0
1, 60108, Note_on_c, 0, 60, 46
1, 60116, Note_on_c, 0, 57, 39
1, 60172, Note_on_c, 0, 57, 0
1, 60175, Note_on_c, 0, 60, 0
1, 60356, Note_on_c, 0, 77, 61
1, 60356, Note_on_c, 0, 57, 41
1, 60359, Note_on_c, 0, 74, 60
1, 60360, Note_on_c, 0, 53, 53
1, 60402, Note_on_c, 0, 74, 0
1, 60414, Note_on_c, 0, 77, 0
1, 60424, Note_on_c, 0, 57, 0
1, 60430, Note_on_c, 0, 53, 0
1, 60606, Note_on_c, 0, 74, 59
1, 60614, Note_on_c, 0, 77, 61
1, 60652, Note_on_c, 0, 74, 0
1, 60660, Note_on_c, 0, 77, 0
1, 60852, Note_on_c, 0, 74, 51
1, 60852, Note_on_c, 0, 71, 55
1, 60858, Note_on_c, 0, 55, 44
1, 60860, Note_on_c, 0, 59, 39
1, 60912, Note_on_c, 0, 71, 0
1, 60920, Note_on_c, 0, 74, 0
1, 60920, Note_on_c, 0, 55, 0
1, 60920, Note_on_c, 0, 59, 0
1, 61098, Note_on_c, 0, 55, 55
1, 61100, Note_on_c, 0, 59, 48
1, 61150, Note_on_c, 0, 55, 0
1, 61153, Note_on_c, 0, 59, 0
1, 61344, Note_on_c, 0, 55, 37
1, 61354, Note_on_c, 0, 72, 50
1, 61360, Note_on_c, 0, 52, 43
1, 61420, Note_on_c, 0, 72, 0
1, 61422, Note_on_c, 0, 55, 0
1, 61432, Note_on_c, 0, 52, 0
1, 61474, Note_on_c, 0, 74, 50
1, 61558, Note_on_c, 0, 74, 0
1, 61586, Note_on_c, 0, 76, 55
1, 61648, Note_on_c, 0, 76, 0
1, 61686, Note_on_c, 0, 72, 57
1, 61770, Note_on_c, 0, 72, 0
1, 61806, Note_on_c, 0, 69, 46
1, 61812, Note_on_c, 0, 53, 75
1, 61878, Note_on_c, 0, 69, 0
1, 61920, Note_on_c, 0, 71, 63
1, 61990, Note_on_c, 0, 71, 0
1, 62024, Note_on_c, 0, 72, 39
1, 62114, Note_on_c, 0, 72, 0
1, 62130, Note_on_c, 0, 73, 59
1, 62244, Note_on_c, 0, 74, 68
1, 62246, Note_on_c, 0, 73, 0
1, 62322, Note_on_c, 0, 74, 0
1, 62352, Note_on_c, 0, 76, 56
1, 62434, Note_on_c, 0, 53, 0
1, 62438, Note_on_c, 0, 76, 0
1, 62462, Note_on_c, 0, 77, 68
1, 62472, Note_on_c, 0, 50, 44
1, 62546, Note_on_c, 0, 77, 0
1, 62566, Note_on_c, 0, 74, 58
1, 62644, Note_on_c, 0, 50, 0
1, 62682, Note_on_c, 0, 74, 0
1, 62694, Note_on_c, 0, 72, 71
1, 62708, Note_on_c, 0, 55, 44
1, 62812, Note_on_c, 0, 71, 68
1, 62822, Note_on_c, 0, 72, 0
1, 62878, Note_on_c, 0, 71, 0
1, 62906, Note_on_c, 0, 55, 0
1, 62910, Note_on_c, 0, 69, 53
1, 62974, Note_on_c, 0, 69, 0
1, 63004, Note_on_c, 0, 67, 63
1, 63064, Note_on_c, 0, 67, 0
1, 63140, Note_on_c, 0, 79, 71
1, 63143, Note_on_c, 0, 76, 51
1, 63190, Note_on_c, 0, 79, 0
1, 63192, Note_on_c, 0, 76, 0
1, 63390, Note_on_c, 0, 79, 61
1, 63390, Note_on_c, 0, 76, 48
1, 63442, Note_on_c, 0, 79, 0
1, 63442, Note_on_c, 0, 76, 0
1, 63622, Note_on_c, 0, 60, 41
1, 63632, Note_on_c, 0, 72, 49
1, 63632, Note_on_c, 0, 76, 46
1, 63632, Note_on_c, 0, 57, 31
1, 63694, Note_on_c, 0, 60, 0
1, 63694, Note_on_c, 0, 72, 0
1, 63696, Note_on_c, 0, 57, 0
1, 63702, Note_on_c, 0, 76, 0
1, 63860, Note_on_c, 0, 60, 53
1, 63868, Note_on_c, 0, 57, 44
1, 63926, Note_on_c, 0, 60, 0
1, 63926, Note_on_c, 0, 57, 0
1, 64095, Note_on_c, 0, 81, 77
1, 64104, Note_on_c, 0, 77, 67
1, 64110, Note_on_c, 0, 50, 59
1, 64116, Note_on_c, 0, 53, 75
1, 64158, Note_on_c, 0, 77, 0
1, 64170, Note_on_c, 0, 53, 0
1, 64186, Note_on_c, 0, 50, 0
1, 64214, Note_on_c, 0, 81, 0
1, 64348, Note_on_c, 0, 77, 65
1, 64351, Note_on_c, 0, 81, 67
1, 64396, Note_on_c, 0, 77, 0
1, 64396, Note_on_c, 0, 81, 0
1, 64576, Note_on_c, 0, 59, 54
1, 64588, Note_on_c, 0, 55, 52
1, 64594, Note_on_c, 0, 74, 66
1, 64594, Note_on_c, 0, 71, 69
1, 64632, Note_on_c, 0, 59, 0
1, 64642, Note_on_c, 0, 55, 0
1, 64648, Note_on_c, 0, 74, 0
1, 64648, Note_on_c, 0, 71, 0
1, 64822, Note_on_c, 0, 55, 63
1, 64828, Note_on_c, 0, 59, 57
1, 64874, Note_on_c, 0, 55, 0
1, 64874, Note_on_c, 0, 59, 0
1, 65068, Note_on_c, 0, 52, 75
1, 65072, Note_on_c, 0, 48, 54
1, 65072, Note_on_c, 0, 81, 80
1, 65126, Note_on_c, 0, 52, 0
1, 65186, Note_on_c, 0, 79, 81
1, 65188, Note_on_c, 0, 48, 0
1, 65200, Note_on_c, 0, 81, 0
1, 65284, Note_on_c, 0, 77, 73
1, 65300, Note_on_c, 0, 79, 0
1, 65366, Note_on_c, 0, 77, 0
1, 65392, Note_on_c, 0, 76, 57
1, 65518, Note_on_c, 0, 73, 68
1, 65528, Note_on_c, 0, 76, 0
1, 65528, Note_on_c, 0, 53, 65
1, 65531, Note_on_c, 0, 57, 38
1, 65632, Note_on_c, 0, 74, 69
1, 65662, Note_on_c, 0, 73, 0
1, 65738, Note_on_c, 0, 76, 64
1, 65778, Note_on_c, 0, 74, 0
1, 65866, Note_on_c, 0, 77, 63
1, 65869, Note_on_c, 0, 76, 0
1, 65970, Note_on_c, 0, 69, 54
1, 65976, Note_on_c, 0, 77, 0
1, 66038, Note_on_c, 0, 57, 0
1, 66046, Note_on_c, 0, 53, 0
1, 66056, Note_on_c, 0, 69, 0
1, 66078, Note_on_c, 0, 72, 62
1, 66152, Note_on_c, 0, 72, 0
1, 66196, Note_on_c, 0, 65, 37
1, 66198, Note_on_c, 0, 71, 72
1, 66206, Note_on_c, 0, 55, 44
1, 66258, Note_on_c, 0, 65, 0
1, 66278, Note_on_c, 0, 71, 0
1, 66280, Note_on_c, 0, 55, 0
1, 66310, Note_on_c, 0, 74, 63
1, 66406, Note_on_c, 0, 74, 0
1, 66460, Note_on_c, 0, 64, 47
1, 66463, Note_on_c, 0, 72, 56
1, 66466, Note_on_c, 0, 60, 49
1, 66508, Note_on_c, 0, 64, 0
1, 66524, Note_on_c, 0, 60, 0
1, 66676, Note_on_c, 0, 72, 0
1, 66716, Note_on_c, 0, 48, 55
1, 66772, Note_on_c, 0, 48, 0
1, 66972, Note_on_c, 0, 71, 61
1, 66977, Note_on_c, 0, 53, 63
1, 67054, Note_on_c, 0, 71, 0
1, 67084, Note_on_c, 0, 59, 28
1, 67104, Note_on_c, 0, 77, 47
1, 67156, Note_on_c, 0, 59, 0
1, 67206, Note_on_c, 0, 77, 0
1, 67209, Note_on_c, 0, 55, 36
1, 67213, Note_on_c, 0, 74, 66
1, 67282, Note_on_c, 0, 74, 0
1, 67296, Note_on_c, 0, 55, 0
1, 67312, Note_on_c, 0, 71, 68
1, 67334, Note_on_c, 0, 59, 29
1, 67356, Note_on_c, 0, 53, 0
1, 67368, Note_on_c, 0, 71, 0
1, 67400, Note_on_c, 0, 59, 0
1, 67434, Note_on_c, 0, 81, 79
1, 67440, Note_on_c, 0, 52, 52
1, 67550, Note_on_c, 0, 79, 80
1, 67554, Note_on_c, 0, 60, 23
1, 67560, Note_on_c, 0, 81, 0
1, 67640, Note_on_c, 0, 60, 0
1, 67656, Note_on_c, 0, 55, 46
1, 67662, Note_on_c, 0, 77, 77
1, 67678, Note_on_c, 0, 79, 0
1, 67722, Note_on_c, 0, 55, 0
1, 67744, Note_on_c, 0, 60, 26
1, 67758, Note_on_c, 0, 77, 0
1, 67758, Note_on_c, 0, 76, 67
1, 67802, Note_on_c, 0, 52, 0
1, 67824, Note_on_c, 0, 60, 0
1, 67854, Note_on_c, 0, 76, 0
1, 67874, Note_on_c, 0, 53, 76
1, 67878, Note_on_c, 0, 74, 85
1, 67966, Note_on_c, 0, 74, 0
1, 67986, Note_on_c, 0, 77, 81
1, 67996, Note_on_c, 0, 59, 48
1, 68058, Note_on_c, 0, 59, 0
1, 68106, Note_on_c, 0, 74, 84
1, 68114, Note_on_c, 0, 77, 0
1, 68124, Note_on_c, 0, 55, 39
1, 68192, Note_on_c, 0, 55, 0
1, 68194, Note_on_c, 0, 71, 84
1, 68214, Note_on_c, 0, 59, 51
1, 68228, Note_on_c, 0, 74, 0
1, 68276, Note_on_c, 0, 59, 0
1, 68278, Note_on_c, 0, 71, 0
1, 68322, Note_on_c, 0, 81, 88
1, 68330, Note_on_c, 0, 53, 0
1, 68334, Note_on_c, 0, 52, 62
1, 68414, Note_on_c, 0, 60, 51
1, 68426, Note_on_c, 0, 79, 88
1, 68462, Note_on_c, 0, 81, 0
1, 68492, Note_on_c, 0, 60, 0
1, 68534, Note_on_c, 0, 77, 83
1, 68537, Note_on_c, 0, 55, 47
1, 68546, Note_on_c, 0, 79, 0
1, 68564, Note_on_c, 0, 52, 0
1, 68596, Note_on_c, 0, 55, 0
1, 68624, Note_on_c, 0, 76, 74
1, 68630, Note_on_c, 0, 60, 43
1, 68652, Note_on_c, 0, 77, 0
1, 68674, Note_on_c, 0, 76, 0
1, 68702, Note_on_c, 0, 60, 0
1, 68748, Note_on_c, 0, 86, 103
1, 68770, Note_on_c, 0, 53, 68
1, 68854, Note_on_c, 0, 84, 91
1, 68860, Note_on_c, 0, 62, 55
1, 68912, Note_on_c, 0, 86, 0
1, 68916, Note_on_c, 0, 62, 0
1, 68944, Note_on_c, 0, 53, 0
1, 68966, Note_on_c, 0, 83, 107
1, 68980, Note_on_c, 0, 57, 36
1, 69008, Note_on_c, 0, 84, 0
1, 69052, Note_on_c, 0, 57, 0
1, 69070, Note_on_c, 0, 81, 81
1, 69073, Note_on_c, 0, 83, 0
1, 69084, Note_on_c, 0, 62, 43
1, 69116, Note_on_c, 0, 81, 0
1, 69144, Note_on_c, 0, 62, 0
1, 69188, Note_on_c, 0, 81, 82
1, 69202, Note_on_c, 0, 55, 47
1, 69294, Note_on_c, 0, 64, 50
1, 69310, Note_on_c, 0, 79, 85
1, 69324, Note_on_c, 0, 55, 0
1, 69340, Note_on_c, 0, 81, 0
1, 69348, Note_on_c, 0, 64, 0
1, 69414, Note_on_c, 0, 79, 0
1, 69416, Note_on_c, 0, 77, 72
1, 69418, Note_on_c, 0, 60, 31
1, 69486, Note_on_c, 0, 77, 0
1, 69486, Note_on_c, 0, 60, 0
1, 69512, Note_on_c, 0, 76, 55
1, 69512, Note_on_c, 0, 64, 47
1, 69556, Note_on_c, 0, 76, 0
1, 69566, Note_on_c, 0, 64, 0
1, 69618, Note_on_c, 0, 76, 64
1, 69638, Note_on_c, 0, 55, 47
1, 69704, Note_on_c, 0, 55, 0
1, 69736, Note_on_c, 0, 65, 43
1, 69736, Note_on_c, 0, 74, 64
1, 69756, Note_on_c, 0, 76, 0
1, 69790, Note_on_c, 0, 65, 0
1, 69806, Note_on_c, 0, 74, 0
1, 69836, Note_on_c, 0, 72, 56
1, 69854, Note_on_c, 0, 62, 44
1, 69890, Note_on_c, 0, 72, 0
1, 69908, Note_on_c, 0, 62, 0
1, 69924, Note_on_c, 0, 71, 67
1, 69962, Note_on_c, 0, 65, 40
1, 69984, Note_on_c, 0, 71, 0
1, 70020, Note_on_c, 0, 65, 0
1, 70064, Note_on_c, 0, 74, 62
1, 70076, Note_on_c, 0, 60, 49
1, 70184, Note_on_c, 0, 67, 44
1, 70244, Note_on_c, 0, 67, 0
1, 70268, Note_on_c, 0, 60, 0
1, 70288, Note_on_c, 0, 64, 42
1, 70296, Note_on_c, 0, 74, 0
1, 70310, Note_on_c, 0, 72, 51
1, 70340, Note_on_c, 0, 64, 0
1, 70362, Note_on_c, 0, 72, 0
1, 70380, Note_on_c, 0, 67, 44
1, 70442, Note_on_c, 0, 67, 0
1, 70566, Note_on_c, 0, 53, 73
1, 70570, Note_on_c, 0, 71, 51
1, 70638, Note_on_c, 0, 71, 0
1, 70668, Note_on_c, 0, 77, 57
1, 70688, Note_on_c, 0, 59, 30
1, 70691, Note_on_c, 0, 53, 0
1, 70742, Note_on_c, 0, 77, 0
1, 70745, Note_on_c, 0, 59, 0
1, 70772, Note_on_c, 0, 55, 48
1, 70780, Note_on_c, 0, 74, 59
1, 70834, Note_on_c, 0, 74, 0
1, 70836, Note_on_c, 0, 55, 0
1, 70880, Note_on_c, 0, 71, 63
1, 70890, Note_on_c, 0, 59, 40
1, 70936, Note_on_c, 0, 71, 0
1, 70952, Note_on_c, 0, 59, 0
1, 71010, Note_on_c, 0, 52, 65
1, 71012, Note_on_c, 0, 81, 75
1, 71074, Note_on_c, 0, 52, 0
1, 71108, Note_on_c, 0, 60, 45
1, 71116, Note_on_c, 0, 79, 69
1, 71132, Note_on_c, 0, 81, 0
1, 71178, Note_on_c, 0, 60, 0
1, 71208, Note_on_c, 0, 79, 0
1, 71228, Note_on_c, 0, 55, 42
1, 71231, Note_on_c, 0, 77, 63
1, 71290, Note_on_c, 0, 55, 0
1, 71300, Note_on_c, 0, 77, 0
1, 71318, Note_on_c, 0, 60, 36
1, 71340, Note_on_c, 0, 76, 51
1, 71382, Note_on_c, 0, 60, 0
1, 71408, Note_on_c, 0, 76, 0
1, 71452, Note_on_c, 0, 53, 69
1, 71468, Note_on_c, 0, 74, 62
1, 71518, Note_on_c, 0, 74, 0
1, 71564, Note_on_c, 0, 59, 45
1, 71566, Note_on_c, 0, 53, 0
1, 71572, Note_on_c, 0, 77, 54
1, 71622, Note_on_c, 0, 59, 0
1, 71648, Note_on_c, 0, 77, 0
1, 71680, Note_on_c, 0, 74, 64
1, 71694, Note_on_c, 0, 55, 29
1, 71730, Note_on_c, 0, 74, 0
1, 71764, Note_on_c, 0, 55, 0
1, 71776, Note_on_c, 0, 71, 63
1, 71788, Note_on_c, 0, 59, 51
1, 71828, Note_on_c, 0, 71, 0
1, 71840, Note_on_c, 0, 59, 0
1, 71900, Note_on_c, 0, 52, 69
1, 71904, Note_on_c, 0, 81, 73
1, 71952, Note_on_c, 0, 52, 0
1, 71994, Note_on_c, 0, 81, 0
1, 72000, Note_on_c, 0, 60, 42
1, 72004, Note_on_c, 0, 79, 76
1, 72066, Note_on_c, 0, 60, 0
1, 72086, Note_on_c, 0, 79, 0
1, 72110, Note_on_c, 0, 55, 45
1, 72110, Note_on_c, 0, 77, 72
1, 72168, Note_on_c, 0, 55, 0
1, 72168, Note_on_c, 0, 77, 0
1, 72204, Note_on_c, 0, 76, 61
1, 72204, Note_on_c, 0, 60, 40
1, 72248, Note_on_c, 0, 76, 0
1, 72274, Note_on_c, 0, 60, 0
1, 72324, Note_on_c, 0, 86, 94
1, 72330, Note_on_c, 0, 53, 87
1, 72434, Note_on_c, 0, 84, 87
1, 72438, Note_on_c, 0, 62, 50
1, 72462, Note_on_c, 0, 53, 0
1, 72490, Note_on_c, 0, 86, 0
1, 72496, Note_on_c, 0, 62, 0
1, 72538, Note_on_c, 0, 57, 46
1, 72546, Note_on_c, 0, 83, 102
1, 72590, Note_on_c, 0, 84, 0
1, 72604, Note_on_c, 0, 57, 0
1, 72644, Note_on_c, 0, 83, 0
1, 72644, Note_on_c, 0, 81, 79
1, 72662, Note_on_c, 0, 62, 50
1, 72688, Note_on_c, 0, 81, 0
1, 72716, Note_on_c, 0, 62, 0
1, 72754, Note_on_c, 0, 81, 84
1, 72764, Note_on_c, 0, 55, 70
1, 72838, Note_on_c, 0, 55, 0
1, 72870, Note_on_c, 0, 79, 91
1, 72872, Note_on_c, 0, 64, 45
1, 72916, Note_on_c, 0, 81, 0
1, 72924, Note_on_c, 0, 64, 0
1, 72969, Note_on_c, 0, 60, 48
1, 72980, Note_on_c, 0, 77, 83
1, 72992, Note_on_c, 0, 79, 0
1, 73040, Note_on_c, 0, 60, 0
1, 73068, Note_on_c, 0, 64, 51
1, 73078, Note_on_c, 0, 76, 66
1, 73086, Note_on_c, 0, 77, 0
1, 73118, Note_on_c, 0, 64, 0
1, 73124, Note_on_c, 0, 76, 0
1, 73186, Note_on_c, 0, 76, 73
1, 73188, Note_on_c, 0, 55, 62
1, 73244, Note_on_c, 0, 55, 0
1, 73268, Note_on_c, 0, 65, 57
1, 73300, Note_on_c, 0, 74, 73
1, 73320, Note_on_c, 0, 76, 0
1, 73320, Note_on_c, 0, 65, 0
1, 73370, Note_on_c, 0, 62, 55
1, 73392, Note_on_c, 0, 72, 77
1, 73418, Note_on_c, 0, 74, 0
1, 73426, Note_on_c, 0, 62, 0
1, 73468, Note_on_c, 0, 65, 58
1, 73484, Note_on_c, 0, 72, 0
1, 73490, Note_on_c, 0, 71, 64
1, 73518, Note_on_c, 0, 65, 0
1, 73538, Note_on_c, 0, 71, 0
1, 73596, Note_on_c, 0, 72, 92
1, 73608, Note_on_c, 0, 60, 72
1, 73692, Note_on_c, 0, 64, 55
1, 73706, Note_on_c, 0, 60, 0
1, 73716, Note_on_c, 0, 76, 71
1, 73736, Note_on_c, 0, 72, 0
1, 73750, Note_on_c, 0, 64, 0
1, 73784, Note_on_c, 0, 76, 0
1, 73808, Note_on_c, 0, 67, 76
1, 73812, Note_on_c, 0, 55, 80
1, 73868, Note_on_c, 0, 55, 0
1, 73896, Note_on_c, 0, 67, 0
1, 73926, Note_on_c, 0, 72, 72
1, 73934, Note_on_c, 0, 60, 47
1, 73990, Note_on_c, 0, 72, 0
1, 73998, Note_on_c, 0, 60, 0
1, 74040, Note_on_c, 0, 52, 92
1, 74043, Note_on_c, 0, 64, 84
1, 74120, Note_on_c, 0, 64, 0
1, 74146, Note_on_c, 0, 52, 0
1, 74154, Note_on_c, 0, 67, 66
1, 74162, Note_on_c, 0, 55, 70
1, 74212, Note_on_c, 0, 55, 0
1, 74230, Note_on_c, 0, 67, 0
1, 74270, Note_on_c, 0, 48, 54
1, 74270, Note_on_c, 0, 60, 64
1, 74322, Note_on_c, 0, 60, 0
1, 74360, Note_on_c, 0, 48, 0
1, 74368, Note_on_c, 0, 52, 88
1, 74412, Note_on_c, 0, 52, 0
1, 74504, Note_on_c, 0, 67, 85
1, 74512, Note_on_c, 0, 55, 93
1, 74614, Note_on_c, 0, 67, 0
1, 74636, Note_on_c, 0, 72, 80
1, 74680, Note_on_c, 0, 72, 0
1, 74746, Note_on_c, 0, 55, 0
1, 74752, Note_on_c, 0, 72, 45
1, 74754, Note_on_c, 0, 76, 70
1, 74792, Note_on_c, 0, 76, 0
1, 74808, Note_on_c, 0, 72, 0
1, 74870, Note_on_c, 0, 79, 63
1, 74874, Note_on_c, 0, 76, 70
1, 74922, Note_on_c, 0, 79, 0
1, 74924, Note_on_c, 0, 76, 0
1, 74998, Note_on_c, 0, 79, 100
1, 75000, Note_on_c, 0, 76, 80
1, 75014, Note_on_c, 0, 43, 65
1, 75124, Note_on_c, 0, 74, 85
1, 75130, Note_on_c, 0, 76, 0
1, 75130, Note_on_c, 0, 77, 72
1, 75190, Note_on_c, 0, 79, 0
1, 75198, Note_on_c, 0, 43, 0
1, 75230, Note_on_c, 0, 74, 0
1, 75232, Note_on_c, 0, 72, 65
1, 75236, Note_on_c, 0, 76, 80
1, 75268, Note_on_c, 0, 77, 0
1, 75272, Note_on_c, 0, 76, 0
1, 75278, Note_on_c, 0, 72, 0
1, 75370, Note_on_c, 0, 71, 87
1, 75370, Note_on_c, 0, 74, 78
1, 75410, Note_on_c, 0, 71, 0
1, 75422, Note_on_c, 0, 74, 0
1, 75488, Note_on_c, 0, 72, 85
1, 75504, Note_on_c, 0, 60, 65
1, 75588, Note_on_c, 0, 76, 79
1, 75590, Note_on_c, 0, 72, 0
1, 75606, Note_on_c, 0, 64, 61
1, 75618, Note_on_c, 0, 60, 0
1, 75650, Note_on_c, 0, 64, 0
1, 75668, Note_on_c, 0, 76, 0
1, 75702, Note_on_c, 0, 67, 74
1, 75728, Note_on_c, 0, 55, 69
1, 75758, Note_on_c, 0, 67, 0
1, 75776, Note_on_c, 0, 55, 0
1, 75824, Note_on_c, 0, 60, 58
1, 75826, Note_on_c, 0, 72, 62
1, 75880, Note_on_c, 0, 60, 0
1, 75900, Note_on_c, 0, 72, 0
1, 75930, Note_on_c, 0, 52, 81
1, 75932, Note_on_c, 0, 64, 71
1, 76004, Note_on_c, 0, 52, 0
1, 76020, Note_on_c, 0, 64, 0
1, 76028, Note_on_c, 0, 67, 68
1, 76031, Note_on_c, 0, 55, 77
1, 76078, Note_on_c, 0, 55, 0
1, 76142, Note_on_c, 0, 67, 0
1, 76144, Note_on_c, 0, 48, 56
1, 76144, Note_on_c, 0, 60, 47
1, 76204, Note_on_c, 0, 60, 0
1, 76228, Note_on_c, 0, 64, 71
1, 76231, Note_on_c, 0, 48, 0
1, 76231, Note_on_c, 0, 52, 83
1, 76266, Note_on_c, 0, 64, 0
1, 76280, Note_on_c, 0, 52, 0
1, 76368, Note_on_c, 0, 55, 84
1, 76370, Note_on_c, 0, 67, 74
1, 76452, Note_on_c, 0, 67, 0
1, 76482, Note_on_c, 0, 72, 81
1, 76522, Note_on_c, 0, 72, 0
1, 76588, Note_on_c, 0, 55, 0
1, 76590, Note_on_c, 0, 76, 81
1, 76634, Note_on_c, 0, 76, 0
1, 76716, Note_on_c, 0, 76, 69
1, 76722, Note_on_c, 0, 79, 95
1, 76758, Note_on_c, 0, 76, 0
1, 76758, Note_on_c, 0, 79, 0
1, 76836, Note_on_c, 0, 79, 82
1, 76842, Note_on_c, 0, 76, 58
1, 76850, Note_on_c, 0, 43, 60
1, 76952, Note_on_c, 0, 76, 0
1, 76958, Note_on_c, 0, 74, 84
1, 76962, Note_on_c, 0, 77, 73
1, 77014, Note_on_c, 0, 79, 0
1, 77030, Note_on_c, 0, 43, 0
1, 77050, Note_on_c, 0, 74, 0
1, 77092, Note_on_c, 0, 77, 0
1, 77100, Note_on_c, 0, 72, 67
1, 77100, Note_on_c, 0, 76, 70
1, 77138, Note_on_c, 0, 76, 0
1, 77148, Note_on_c, 0, 72, 0
1, 77214, Note_on_c, 0, 74, 83
1, 77226, Note_on_c, 0, 71, 95
1, 77264, Note_on_c, 0, 71, 0
1, 77268, Note_on_c, 0, 74, 0
1, 77346, Note_on_c, 0, 72, 98
1, 77348, Note_on_c, 0, 48, 83
1, 77356, Note_on_c, 0, 36, 85
1, 77392, Note_on_c, 0, 36, 0
1, 77424, Note_on_c, 0, 48, 0
1, 77526, Note_on_c, 0, 72, 0
1, 77642, Note_on_c, 0, 76, 78
1, 77644, Note_on_c, 0, 52, 93
1, 77646, Note_on_c, 0, 84, 94
1, 77648, Note_on_c, 0, 40, 94
1, 77654, Note_on_c, 0, 79, 78
1, 77680, Note_on_c, 0, 40, 0
1, 77690, Note_on_c, 0, 84, 0
1, 77692, Note_on_c, 0, 76, 0
1, 77692, Note_on_c, 0, 79, 0
1, 77708, Note_on_c, 0, 52, 0
1, 77962, Note_on_c, 0, 72, 89
1, 77968, Note_on_c, 0, 64, 85
1, 77970, Note_on_c, 0, 55, 91
1, 77980, Note_on_c, 0, 43, 75
1, 78018, Note_on_c, 0, 55, 0
1, 78022, Note_on_c, 0, 43, 0
1, 78026, Note_on_c, 0, 64, 0
1, 78062, Note_on_c, 0, 72, 0
1, 78288, Note_on_c, 0, 72, 84
1, 78290, Note_on_c, 0, 52, 91
1, 78292, Note_on_c, 0, 40, 95
1, 78294, Note_on_c, 0, 64, 80
1, 78364, Note_on_c, 0, 64, 0
1, 78378, Note_on_c, 0, 40, 0
1, 78400, Note_on_c, 0, 52, 0
1, 78410, Note_on_c, 0, 72, 0
1, 78786, Note_on_c, 0, 48, 69
1, 78788, Note_on_c, 0, 72, 84
1, 78788, Note_on_c, 0, 36, 80
1, 78794, Note_on_c, 0, 64, 83
1, 79706, Note_on_c, 0, 48, 0
1, 79718, Note_on_c, 0, 64, 0
1, 79746, Note_on_c, 0, 36, 0
1, 79760, Note_on_c, 0, 72, 0
1, 79770, End_track
0, 0, End_of_file