0, 0, Header, 0, 1, 480
1, 0, Start_track
1, 0, Tempo, 500000
1, 0, Note_on_c, 0, 79, 56
1, 232, Note_on_c, 0, 63, 48
1, 237, Note_on_c, 0, 60, 40
1, 439, Note_on_c, 0, 79, 0
1, 458, Note_on_c, 0, 75, 61
1, 516, Note_on_c, 0, 75, 0
1, 708, Note_on_c, 0, 72, 87
1, 909, Note_on_c, 0, 60, 0
1, 914, Note_on_c, 0, 63, 0
1, 924, Note_on_c, 0, 62, 47
1, 928, Note_on_c, 0, 65, 59
1, 1111, Note_on_c, 0, 72, 0
1, 1130, Note_on_c, 0, 71, 72
1, 1226, Note_on_c, 0, 71, 0
1, 1356, Note_on_c, 0, 62, 0
1, 1356, Note_on_c, 0, 80, 85
1, 1365, Note_on_c, 0, 65, 0
1, 1576, Note_on_c, 0, 59, 51
1, 1576, Note_on_c, 0, 62, 42
1, 1792, Note_on_c, 0, 79, 77
1, 1812, Note_on_c, 0, 80, 0
1, 1840, Note_on_c, 0, 79, 0
1, 2028, Note_on_c, 0, 77, 84
1, 2248, Note_on_c, 0, 62, 0
1, 2253, Note_on_c, 0, 67, 46
1, 2258, Note_on_c, 0, 60, 54
1, 2277, Note_on_c, 0, 59, 0
1, 2464, Note_on_c, 0, 75, 69
1, 2517, Note_on_c, 0, 77, 0
1, 2546, Note_on_c, 0, 75, 0
1, 2628, Note_on_c, 0, 60, 0
1, 2637, Note_on_c, 0, 67, 0
1, 2680, Note_on_c, 0, 79, 99
1, 2906, Note_on_c, 0, 63, 51
1, 2911, Note_on_c, 0, 67, 70
1, 3117, Note_on_c, 0, 84, 93
1, 3151, Note_on_c, 0, 79, 0
1, 3252, Note_on_c, 0, 84, 0
1, 3266, Note_on_c, 0, 63, 0
1, 3343, Note_on_c, 0, 82, 99
1, 3372, Note_on_c, 0, 64, 63
1, 3559, Note_on_c, 0, 64, 0
1, 3573, Note_on_c, 0, 68, 78
1, 3583, Note_on_c, 0, 67, 0
1, 3607, Note_on_c, 0, 65, 73
1, 3775, Note_on_c, 0, 65, 0
1, 3794, Note_on_c, 0, 80, 91
1, 3866, Note_on_c, 0, 82, 0
1, 3919, Note_on_c, 0, 80, 0
1, 3924, Note_on_c, 0, 68, 0
1, 4005, Note_on_c, 0, 70, 79
1, 4015, Note_on_c, 0, 79, 94
1, 4020, Note_on_c, 0, 67, 64
1, 4236, Note_on_c, 0, 72, 84
1, 4240, Note_on_c, 0, 68, 69
1, 4250, Note_on_c, 0, 70, 0
1, 4260, Note_on_c, 0, 67, 0
1, 4418, Note_on_c, 0, 79, 0
1, 4437, Note_on_c, 0, 77, 98
1, 4552, Note_on_c, 0, 77, 0
1, 4610, Note_on_c, 0, 68, 0
1, 4672, Note_on_c, 0, 78, 80
1, 4677, Note_on_c, 0, 69, 44
1, 4874, Note_on_c, 0, 69, 0
1, 4927, Note_on_c, 0, 67, 44
1, 5152, Note_on_c, 0, 72, 0
1, 5176, Note_on_c, 0, 78, 0
1, 5186, Note_on_c, 0, 79, 62
1, 5200, Note_on_c, 0, 71, 31
1, 5258, Note_on_c, 0, 79, 0
1, 5316, Note_on_c, 0, 71, 0
1, 5320, Note_on_c, 0, 67, 0
1, 5498, Note_on_c, 0, 67, 62
1, 5743, Note_on_c, 0, 51, 59
1, 5751, Note_on_c, 0, 48, 63
1, 5964, Note_on_c, 0, 63, 62
1, 6002, Note_on_c, 0, 67, 0
1, 6088, Note_on_c, 0, 63, 0
1, 6175, Note_on_c, 0, 60, 83
1, 6399, Note_on_c, 0, 48, 0
1, 6405, Note_on_c, 0, 53, 67
1, 6415, Note_on_c, 0, 50, 72
1, 6477, Note_on_c, 0, 51, 0
1, 6631, Note_on_c, 0, 59, 78
1, 6640, Note_on_c, 0, 60, 0
1, 6828, Note_on_c, 0, 59, 0
1, 6866, Note_on_c, 0, 68, 83
1, 6924, Note_on_c, 0, 50, 0
1, 7077, Note_on_c, 0, 53, 0
1, 7082, Note_on_c, 0, 47, 57
1, 7087, Note_on_c, 0, 50, 76
1, 7303, Note_on_c, 0, 67, 77
1, 7336, Note_on_c, 0, 68, 0
1, 7408, Note_on_c, 0, 67, 0
1, 7562, Note_on_c, 0, 65, 81
1, 7773, Note_on_c, 0, 49, 65
1, 7778, Note_on_c, 0, 50, 0
1, 7778, Note_on_c, 0, 46, 74
1, 7797, Note_on_c, 0, 47, 0
1, 7989, Note_on_c, 0, 65, 0
1, 7994, Note_on_c, 0, 64, 88
1, 8104, Note_on_c, 0, 46, 0
1, 8104, Note_on_c, 0, 64, 0
1, 8109, Note_on_c, 0, 49, 0
1, 8224, Note_on_c, 0, 73, 88
1, 8450, Note_on_c, 0, 55, 63
1, 8460, Note_on_c, 0, 52, 59
1, 8676, Note_on_c, 0, 72, 79
1, 8714, Note_on_c, 0, 73, 0
1, 8858, Note_on_c, 0, 72, 0
1, 8901, Note_on_c, 0, 55, 0
1, 8901, Note_on_c, 0, 70, 82
1, 8930, Note_on_c, 0, 60, 57
1, 9021, Note_on_c, 0, 52, 0
1, 9117, Note_on_c, 0, 68, 87
1, 9132, Note_on_c, 0, 53, 62
1, 9180, Note_on_c, 0, 70, 0
1, 9319, Note_on_c, 0, 55, 67
1, 9319, Note_on_c, 0, 67, 88
1, 9324, Note_on_c, 0, 53, 0
1, 9324, Note_on_c, 0, 68, 0
1, 9501, Note_on_c, 0, 60, 0
1, 9525, Note_on_c, 0, 55, 0
1, 9535, Note_on_c, 0, 66, 76
1, 9540, Note_on_c, 0, 67, 0
1, 9549, Note_on_c, 0, 56, 55
1, 9698, Note_on_c, 0, 56, 0
1, 9765, Note_on_c, 0, 63, 58
1, 9765, Note_on_c, 0, 55, 53
1, 9765, Note_on_c, 0, 67, 78
1, 9770, Note_on_c, 0, 66, 0
1, 9842, Note_on_c, 0, 63, 0
1, 9967, Note_on_c, 0, 55, 0
1, 9986, Note_on_c, 0, 63, 58
1, 10005, Note_on_c, 0, 60, 53
1, 10015, Note_on_c, 0, 67, 0
1, 10063, Note_on_c, 0, 60, 0
1, 10159, Note_on_c, 0, 63, 0
1, 10216, Note_on_c, 0, 53, 53
1, 10221, Note_on_c, 0, 43, 47
1, 10226, Note_on_c, 0, 62, 34
1, 10231, Note_on_c, 0, 59, 31
1, 10274, Note_on_c, 0, 53, 0
1, 10279, Note_on_c, 0, 43, 0
1, 10322, Note_on_c, 0, 59, 0
1, 10336, Note_on_c, 0, 62, 0
1, 10495, Note_on_c, 0, 51, 42
1, 10495, Note_on_c, 0, 60, 55
1, 10514, Note_on_c, 0, 48, 47
1, 10677, Note_on_c, 0, 48, 0
1, 10687, Note_on_c, 0, 60, 0
1, 10696, Note_on_c, 0, 51, 0
1, 11004, Note_on_c, 0, 77, 84
1, 11056, Note_on_c, 0, 77, 0
1, 11056, Note_on_c, 0, 75, 70
1, 11100, Note_on_c, 0, 74, 87
1, 11114, Note_on_c, 0, 75, 0
1, 11143, Note_on_c, 0, 74, 0
1, 11162, Note_on_c, 0, 72, 68
1, 11205, Note_on_c, 0, 62, 50
1, 11215, Note_on_c, 0, 79, 99
1, 11215, Note_on_c, 0, 59, 48
1, 11229, Note_on_c, 0, 72, 0
1, 11253, Note_on_c, 0, 79, 0
1, 11263, Note_on_c, 0, 62, 0
1, 11340, Note_on_c, 0, 59, 0
1, 11354, Note_on_c, 0, 55, 37
1, 11421, Note_on_c, 0, 79, 80
1, 11426, Note_on_c, 0, 55, 0
1, 11436, Note_on_c, 0, 67, 44
1, 11440, Note_on_c, 0, 63, 58
1, 11450, Note_on_c, 0, 60, 58
1, 11455, Note_on_c, 0, 79, 0
1, 11498, Note_on_c, 0, 67, 0
1, 11498, Note_on_c, 0, 63, 0
1, 11503, Note_on_c, 0, 60, 0
1, 11532, Note_on_c, 0, 55, 51
1, 11632, Note_on_c, 0, 79, 98
1, 11652, Note_on_c, 0, 67, 62
1, 11656, Note_on_c, 0, 55, 0
1, 11666, Note_on_c, 0, 79, 0
1, 11666, Note_on_c, 0, 65, 73
1, 11676, Note_on_c, 0, 62, 57
1, 11700, Note_on_c, 0, 67, 0
1, 11714, Note_on_c, 0, 65, 0
1, 11728, Note_on_c, 0, 62, 0
1, 11762, Note_on_c, 0, 55, 70
1, 11868, Note_on_c, 0, 79, 115
1, 11877, Note_on_c, 0, 67, 101
1, 11882, Note_on_c, 0, 63, 83
1, 11892, Note_on_c, 0, 55, 0
1, 11896, Note_on_c, 0, 60, 60
1, 11963, Note_on_c, 0, 60, 0
1, 11968, Note_on_c, 0, 63, 0
1, 11997, Note_on_c, 0, 55, 60
1, 12112, Note_on_c, 0, 63, 67
1, 12117, Note_on_c, 0, 67, 0
1, 12122, Note_on_c, 0, 60, 59
1, 12127, Note_on_c, 0, 55, 0
1, 12170, Note_on_c, 0, 63, 0
1, 12194, Note_on_c, 0, 60, 0
1, 12237, Note_on_c, 0, 55, 48
1, 12333, Note_on_c, 0, 77, 95
1, 12348, Note_on_c, 0, 79, 0
1, 12362, Note_on_c, 0, 55, 0
1, 12362, Note_on_c, 0, 63, 60
1, 12372, Note_on_c, 0, 60, 66
1, 12386, Note_on_c, 0, 75, 89
1, 12410, Note_on_c, 0, 63, 0
1, 12434, Note_on_c, 0, 60, 0
1, 12439, Note_on_c, 0, 77, 0
1, 12448, Note_on_c, 0, 74, 92
1, 12453, Note_on_c, 0, 55, 59
1, 12501, Note_on_c, 0, 75, 0
1, 12501, Note_on_c, 0, 72, 97
1, 12544, Note_on_c, 0, 62, 81
1, 12554, Note_on_c, 0, 59, 65
1, 12564, Note_on_c, 0, 74, 0
1, 12564, Note_on_c, 0, 79, 106
1, 12568, Note_on_c, 0, 55, 0
1, 12607, Note_on_c, 0, 72, 0
1, 12621, Note_on_c, 0, 62, 0
1, 12626, Note_on_c, 0, 79, 0
1, 12655, Note_on_c, 0, 55, 77
1, 12688, Note_on_c, 0, 59, 0
1, 12775, Note_on_c, 0, 55, 0
1, 12775, Note_on_c, 0, 79, 87
1, 12784, Note_on_c, 0, 67, 49
1, 12784, Note_on_c, 0, 63, 81
1, 12794, Note_on_c, 0, 60, 66
1, 12808, Note_on_c, 0, 79, 0
1, 12837, Note_on_c, 0, 63, 0
1, 12842, Note_on_c, 0, 60, 0
1, 12842, Note_on_c, 0, 67, 0
1, 12890, Note_on_c, 0, 55, 64
1, 12981, Note_on_c, 0, 79, 97
1, 13000, Note_on_c, 0, 67, 72
1, 13015, Note_on_c, 0, 55, 0
1, 13015, Note_on_c, 0, 79, 0
1, 13015, Note_on_c, 0, 65, 80
1, 13029, Note_on_c, 0, 62, 67
1, 13044, Note_on_c, 0, 67, 0
1, 13063, Note_on_c, 0, 65, 0
1, 13082, Note_on_c, 0, 62, 0
1, 13125, Note_on_c, 0, 55, 74
1, 13216, Note_on_c, 0, 79, 115
1, 13221, Note_on_c, 0, 67, 108
1, 13236, Note_on_c, 0, 63, 88
1, 13240, Note_on_c, 0, 60, 78
1, 13269, Note_on_c, 0, 55, 0
1, 13307, Note_on_c, 0, 60, 0
1, 13336, Note_on_c, 0, 63, 0
1, 13346, Note_on_c, 0, 55, 85
1, 13437, Note_on_c, 0, 67, 0
1, 13447, Note_on_c, 0, 63, 75
1, 13464, Note_on_c, 0, 60, 64
1, 13509, Note_on_c, 0, 55, 0
1, 13560, Note_on_c, 0, 60, 0
1, 13567, Note_on_c, 0, 63, 0
1, 13615, Note_on_c, 0, 55, 50
1, 13658, Note_on_c, 0, 77, 91
1, 13672, Note_on_c, 0, 79, 0
1, 13692, Note_on_c, 0, 63, 50
1, 13696, Note_on_c, 0, 75, 83
1, 13706, Note_on_c, 0, 60, 62
1, 13720, Note_on_c, 0, 55, 0
1, 13740, Note_on_c, 0, 77, 0
1, 13740, Note_on_c, 0, 63, 0
1, 13764, Note_on_c, 0, 74, 97
1, 13802, Note_on_c, 0, 74, 0
1, 13807, Note_on_c, 0, 75, 0
1, 13807, Note_on_c, 0, 72, 88
1, 13816, Note_on_c, 0, 55, 56
1, 13826, Note_on_c, 0, 60, 0
1, 13845, Note_on_c, 0, 72, 0
1, 13855, Note_on_c, 0, 55, 0
1, 13908, Note_on_c, 0, 71, 88
1, 13922, Note_on_c, 0, 74, 92
1, 13936, Note_on_c, 0, 80, 105
1, 14095, Note_on_c, 0, 71, 0
1, 14157, Note_on_c, 0, 74, 0
1, 14167, Note_on_c, 0, 41, 105
1, 14172, Note_on_c, 0, 53, 106
1, 14205, Note_on_c, 0, 41, 0
1, 14272, Note_on_c, 0, 53, 0
1, 14282, Note_on_c, 0, 80, 0
1, 14416, Note_on_c, 0, 65, 108
1, 14421, Note_on_c, 0, 53, 98
1, 14536, Note_on_c, 0, 65, 0
1, 14570, Note_on_c, 0, 53, 0
1, 14613, Note_on_c, 0, 72, 90
1, 14642, Note_on_c, 0, 75, 94
1, 14652, Note_on_c, 0, 79, 111
1, 14863, Note_on_c, 0, 51, 101
1, 14868, Note_on_c, 0, 39, 92
1, 14901, Note_on_c, 0, 39, 0
1, 14920, Note_on_c, 0, 51, 0
1, 15093, Note_on_c, 0, 63, 106
1, 15103, Note_on_c, 0, 51, 102
1, 15141, Note_on_c, 0, 79, 0
1, 15151, Note_on_c, 0, 51, 0
1, 15160, Note_on_c, 0, 63, 0
1, 15213, Note_on_c, 0, 72, 0
1, 15232, Note_on_c, 0, 75, 0
1, 15348, Note_on_c, 0, 62, 109
1, 15348, Note_on_c, 0, 50, 109
1, 15468, Note_on_c, 0, 50, 0
1, 15554, Note_on_c, 0, 74, 93
1, 15568, Note_on_c, 0, 77, 103
1, 15573, Note_on_c, 0, 62, 0
1, 15592, Note_on_c, 0, 83, 95
1, 15607, Note_on_c, 0, 77, 0
1, 15607, Note_on_c, 0, 74, 0
1, 15688, Note_on_c, 0, 83, 0
1, 15794, Note_on_c, 0, 77, 108
1, 15804, Note_on_c, 0, 83, 86
1, 15813, Note_on_c, 0, 86, 106
1, 15828, Note_on_c, 0, 77, 0
1, 15900, Note_on_c, 0, 83, 0
1, 15914, Note_on_c, 0, 86, 0
1, 16063, Note_on_c, 0, 86, 110
1, 16063, Note_on_c, 0, 79, 111
1, 16068, Note_on_c, 0, 89, 114
1, 16072, Note_on_c, 0, 59, 83
1, 16082, Note_on_c, 0, 47, 71
1, 16092, Note_on_c, 0, 79, 0
1, 16116, Note_on_c, 0, 47, 0
1, 16120, Note_on_c, 0, 59, 0
1, 16144, Note_on_c, 0, 86, 0
1, 16149, Note_on_c, 0, 89, 0
1, 17978, Note_on_c, 0, 75, 39
1, 18871, Note_on_c, 0, 66, 30
1, 18885, Note_on_c, 0, 63, 24
1, 18919, Note_on_c, 0, 60, 16
1, 19034, Note_on_c, 0, 75, 0
1, 19327, Note_on_c, 0, 60, 0
1, 19365, Note_on_c, 0, 63, 0
1, 19480, Note_on_c, 0, 66, 0
1, 19783, Note_on_c, 0, 65, 31
1, 19784, Note_on_c, 0, 67, 34
1, 19785, Note_on_c, 0, 62, 25
1, 19789, Note_on_c, 0, 59, 16
1, 20097, Note_on_c, 0, 62, 0
1, 20159, Note_on_c, 0, 67, 0
1, 20186, Note_on_c, 0, 68, 60
1, 20191, Note_on_c, 0, 65, 0
1, 20211, Note_on_c, 0, 59, 0
1, 20287, Note_on_c, 0, 68, 0
1, 20325, Note_on_c, 0, 60, 40
1, 20326, Note_on_c, 0, 63, 44
1, 20330, Note_on_c, 0, 67, 70
1, 20373, Note_on_c, 0, 67, 0
1, 20379, Note_on_c, 0, 63, 0
1, 20388, Note_on_c, 0, 60, 0
1, 20588, Note_on_c, 0, 67, 54
1, 20589, Note_on_c, 0, 63, 61
1, 20599, Note_on_c, 0, 53, 66
1, 20660, Note_on_c, 0, 67, 0
1, 20666, Note_on_c, 0, 53, 0
1, 20666, Note_on_c, 0, 63, 0
1, 20719, Note_on_c, 0, 65, 54
1, 20723, Note_on_c, 0, 62, 28
1, 20791, Note_on_c, 0, 65, 0
1, 20795, Note_on_c, 0, 62, 0
1, 20820, Note_on_c, 0, 60, 64
1, 20820, Note_on_c, 0, 63, 78
1, 20826, Note_on_c, 0, 55, 57
1, 20868, Note_on_c, 0, 63, 0
1, 20879, Note_on_c, 0, 55, 0
1, 20882, Note_on_c, 0, 60, 0
1, 21098, Note_on_c, 0, 59, 44
1, 21098, Note_on_c, 0, 62, 50
1, 21103, Note_on_c, 0, 43, 37
1, 21146, Note_on_c, 0, 59, 0
1, 21156, Note_on_c, 0, 62, 0
1, 21160, Note_on_c, 0, 43, 0
1, 21415, Note_on_c, 0, 60, 44
1, 21434, Note_on_c, 0, 48, 34
1, 21492, Note_on_c, 0, 60, 0
1, 21501, Note_on_c, 0, 48, 0
1, 21967, Note_on_c, 0, 77, 77
1, 22020, Note_on_c, 0, 75, 75
1, 22039, Note_on_c, 0, 77, 0
1, 22072, Note_on_c, 0, 74, 80
1, 22096, Note_on_c, 0, 75, 0
1, 22111, Note_on_c, 0, 74, 0
1, 22116, Note_on_c, 0, 72, 85
1, 22159, Note_on_c, 0, 72, 0
1, 22159, Note_on_c, 0, 59, 47
1, 22161, Note_on_c, 0, 62, 52
1, 22168, Note_on_c, 0, 79, 106
1, 22197, Note_on_c, 0, 79, 0
1, 22219, Note_on_c, 0, 62, 0
1, 22221, Note_on_c, 0, 59, 0
1, 22255, Note_on_c, 0, 55, 68
1, 22308, Note_on_c, 0, 55, 0
1, 22380, Note_on_c, 0, 63, 64
1, 22388, Note_on_c, 0, 60, 51
1, 22389, Note_on_c, 0, 79, 100
1, 22394, Note_on_c, 0, 67, 88
1, 22423, Note_on_c, 0, 79, 0
1, 22428, Note_on_c, 0, 67, 0
1, 22440, Note_on_c, 0, 60, 0
1, 22471, Note_on_c, 0, 63, 0
1, 22490, Note_on_c, 0, 55, 71
1, 22562, Note_on_c, 0, 55, 0
1, 22620, Note_on_c, 0, 79, 109
1, 22629, Note_on_c, 0, 65, 74
1, 22629, Note_on_c, 0, 67, 101
1, 22630, Note_on_c, 0, 62, 63
1, 22653, Note_on_c, 0, 79, 0
1, 22663, Note_on_c, 0, 67, 0
1, 22678, Note_on_c, 0, 62, 0
1, 22682, Note_on_c, 0, 65, 0
1, 22749, Note_on_c, 0, 55, 73
1, 22884, Note_on_c, 0, 79, 114
1, 22884, Note_on_c, 0, 67, 100
1, 22884, Note_on_c, 0, 63, 75
1, 22893, Note_on_c, 0, 55, 0
1, 22893, Note_on_c, 0, 60, 70
1, 22946, Note_on_c, 0, 60, 0
1, 22956, Note_on_c, 0, 63, 0
1, 23023, Note_on_c, 0, 55, 62
1, 23090, Note_on_c, 0, 67, 0
1, 23138, Note_on_c, 0, 63, 72
1, 23144, Note_on_c, 0, 60, 65
1, 23148, Note_on_c, 0, 55, 0
1, 23200, Note_on_c, 0, 63, 0
1, 23212, Note_on_c, 0, 60, 0
1, 23258, Note_on_c, 0, 55, 54
1, 23383, Note_on_c, 0, 55, 0
1, 23388, Note_on_c, 0, 63, 69
1, 23392, Note_on_c, 0, 60, 62
1, 23402, Note_on_c, 0, 77, 99
1, 23416, Note_on_c, 0, 79, 0
1, 23440, Note_on_c, 0, 63, 0
1, 23450, Note_on_c, 0, 75, 88
1, 23460, Note_on_c, 0, 60, 0
1, 23484, Note_on_c, 0, 55, 57
1, 23508, Note_on_c, 0, 77, 0
1, 23522, Note_on_c, 0, 74, 91
1, 23556, Note_on_c, 0, 75, 0
1, 23570, Note_on_c, 0, 72, 101
1, 23604, Note_on_c, 0, 55, 0
1, 23604, Note_on_c, 0, 62, 78
1, 23608, Note_on_c, 0, 74, 0
1, 23608, Note_on_c, 0, 59, 70
1, 23637, Note_on_c, 0, 79, 110
1, 23690, Note_on_c, 0, 72, 0
1, 23719, Note_on_c, 0, 79, 0
1, 23719, Note_on_c, 0, 62, 0
1, 23728, Note_on_c, 0, 55, 70
1, 23762, Note_on_c, 0, 59, 0
1, 23868, Note_on_c, 0, 79, 106
1, 23872, Note_on_c, 0, 63, 76
1, 23872, Note_on_c, 0, 67, 77
1, 23877, Note_on_c, 0, 55, 0
1, 23877, Note_on_c, 0, 60, 70
1, 23896, Note_on_c, 0, 79, 0
1, 23911, Note_on_c, 0, 67, 0
1, 23940, Note_on_c, 0, 60, 0
1, 23944, Note_on_c, 0, 63, 0
1, 23973, Note_on_c, 0, 55, 68
1, 24103, Note_on_c, 0, 79, 108
1, 24112, Note_on_c, 0, 67, 91
1, 24122, Note_on_c, 0, 62, 72
1, 24122, Note_on_c, 0, 65, 87
1, 24132, Note_on_c, 0, 55, 0
1, 24132, Note_on_c, 0, 79, 0
1, 24146, Note_on_c, 0, 67, 0
1, 24179, Note_on_c, 0, 62, 0
1, 24184, Note_on_c, 0, 65, 0
1, 24223, Note_on_c, 0, 55, 77
1, 24362, Note_on_c, 0, 79, 116
1, 24367, Note_on_c, 0, 67, 100
1, 24368, Note_on_c, 0, 60, 84
1, 24370, Note_on_c, 0, 63, 86
1, 24400, Note_on_c, 0, 55, 0
1, 24440, Note_on_c, 0, 60, 0
1, 24486, Note_on_c, 0, 63, 0
1, 24487, Note_on_c, 0, 55, 73
1, 24501, Note_on_c, 0, 67, 0
1, 24626, Note_on_c, 0, 63, 70
1, 24632, Note_on_c, 0, 60, 80
1, 24655, Note_on_c, 0, 55, 0
1, 24698, Note_on_c, 0, 63, 0
1, 24704, Note_on_c, 0, 60, 0
1, 24751, Note_on_c, 0, 55, 62
1, 24856, Note_on_c, 0, 77, 91
1, 24861, Note_on_c, 0, 63, 69
1, 24866, Note_on_c, 0, 60, 75
1, 24871, Note_on_c, 0, 79, 0
1, 24880, Note_on_c, 0, 55, 0
1, 24904, Note_on_c, 0, 75, 86
1, 24938, Note_on_c, 0, 63, 0
1, 24943, Note_on_c, 0, 60, 0
1, 24952, Note_on_c, 0, 77, 0
1, 24976, Note_on_c, 0, 74, 92
1, 25010, Note_on_c, 0, 55, 39
1, 25020, Note_on_c, 0, 75, 0
1, 25020, Note_on_c, 0, 72, 103
1, 25029, Note_on_c, 0, 74, 0
1, 25053, Note_on_c, 0, 72, 0
1, 25116, Note_on_c, 0, 55, 0
1, 25120, Note_on_c, 0, 71, 96
1, 25130, Note_on_c, 0, 74, 94
1, 25159, Note_on_c, 0, 80, 103
1, 25221, Note_on_c, 0, 71, 0
1, 25341, Note_on_c, 0, 74, 0
1, 25394, Note_on_c, 0, 53, 109
1, 25394, Note_on_c, 0, 41, 106
1, 25423, Note_on_c, 0, 41, 0
1, 25428, Note_on_c, 0, 80, 0
1, 25480, Note_on_c, 0, 53, 0
1, 25648, Note_on_c, 0, 65, 111
1, 25653, Note_on_c, 0, 53, 105
1, 25783, Note_on_c, 0, 65, 0
1, 25831, Note_on_c, 0, 53, 0
1, 25869, Note_on_c, 0, 72, 102
1, 25888, Note_on_c, 0, 75, 100
1, 25903, Note_on_c, 0, 79, 111
1, 26128, Note_on_c, 0, 51, 105
1, 26128, Note_on_c, 0, 39, 100
1, 26167, Note_on_c, 0, 39, 0
1, 26220, Note_on_c, 0, 51, 0
1, 26364, Note_on_c, 0, 63, 108
1, 26368, Note_on_c, 0, 51, 104
1, 26378, Note_on_c, 0, 72, 0
1, 26392, Note_on_c, 0, 75, 0
1, 26392, Note_on_c, 0, 79, 0
1, 26412, Note_on_c, 0, 63, 0
1, 26412, Note_on_c, 0, 51, 0
1, 26623, Note_on_c, 0, 62, 113
1, 26623, Note_on_c, 0, 50, 115
1, 26748, Note_on_c, 0, 50, 0
1, 26805, Note_on_c, 0, 62, 0
1, 26844, Note_on_c, 0, 74, 81
1, 26853, Note_on_c, 0, 77, 108
1, 26872, Note_on_c, 0, 83, 102
1, 26935, Note_on_c, 0, 74, 0
1, 26940, Note_on_c, 0, 77, 0
1, 26968, Note_on_c, 0, 83, 0
1, 27088, Note_on_c, 0, 77, 103
1, 27103, Note_on_c, 0, 83, 94
1, 27108, Note_on_c, 0, 86, 112
1, 27170, Note_on_c, 0, 77, 0
1, 27189, Note_on_c, 0, 83, 0
1, 27232, Note_on_c, 0, 86, 0
1, 27376, Note_on_c, 0, 79, 110
1, 27381, Note_on_c, 0, 86, 111
1, 27400, Note_on_c, 0, 59, 83
1, 27400, Note_on_c, 0, 89, 116
1, 27405, Note_on_c, 0, 47, 73
1, 27448, Note_on_c, 0, 79, 0
1, 27487, Note_on_c, 0, 86, 0
1, 27496, Note_on_c, 0, 59, 0
1, 27511, Note_on_c, 0, 89, 0
1, 27511, Note_on_c, 0, 47, 0
1, 29364, Note_on_c, 0, 75, 48
1, 30261, Note_on_c, 0, 66, 48
1, 30270, Note_on_c, 0, 63, 25
1, 30272, Note_on_c, 0, 60, 26
1, 30405, Note_on_c, 0, 75, 0
1, 30699, Note_on_c, 0, 60, 0
1, 30760, Note_on_c, 0, 63, 0
1, 30847, Note_on_c, 0, 66, 0
1, 31144, Note_on_c, 0, 67, 50
1, 31148, Note_on_c, 0, 65, 37
1, 31149, Note_on_c, 0, 59, 23
1, 31152, Note_on_c, 0, 62, 26
1, 31571, Note_on_c, 0, 67, 0
1, 31584, Note_on_c, 0, 65, 0
1, 31600, Note_on_c, 0, 68, 53
1, 31608, Note_on_c, 0, 62, 0
1, 31687, Note_on_c, 0, 59, 0
1, 31692, Note_on_c, 0, 68, 0
1, 31740, Note_on_c, 0, 63, 42
1, 31740, Note_on_c, 0, 67, 45
1, 31748, Note_on_c, 0, 60, 33
1, 31805, Note_on_c, 0, 60, 0
1, 31812, Note_on_c, 0, 67, 0
1, 31816, Note_on_c, 0, 63, 0
1, 32021, Note_on_c, 0, 67, 65
1, 32023, Note_on_c, 0, 63, 62
1, 32023, Note_on_c, 0, 53, 59
1, 32088, Note_on_c, 0, 67, 0
1, 32100, Note_on_c, 0, 63, 0
1, 32148, Note_on_c, 0, 65, 69
1, 32162, Note_on_c, 0, 62, 37
1, 32191, Note_on_c, 0, 53, 0
1, 32205, Note_on_c, 0, 65, 0
1, 32224, Note_on_c, 0, 62, 0
1, 32263, Note_on_c, 0, 60, 59
1, 32263, Note_on_c, 0, 63, 65
1, 32296, Note_on_c, 0, 55, 56
1, 32316, Note_on_c, 0, 63, 0
1, 32349, Note_on_c, 0, 55, 0
1, 32359, Note_on_c, 0, 60, 0
1, 32556, Note_on_c, 0, 62, 51
1, 32560, Note_on_c, 0, 43, 54
1, 32564, Note_on_c, 0, 59, 34
1, 32617, Note_on_c, 0, 59, 0
1, 32618, Note_on_c, 0, 62, 0
1, 32623, Note_on_c, 0, 43, 0
1, 32911, Note_on_c, 0, 48, 31
1, 32916, Note_on_c, 0, 60, 48
1, 33122, Note_on_c, 0, 48, 0
1, 33141, Note_on_c, 0, 60, 0
1, 33952, Note_on_c, 0, 56, 84
1, 33957, Note_on_c, 0, 62, 95
1, 33957, Note_on_c, 0, 58, 95
1, 33957, Note_on_c, 0, 46, 95
1, 33962, Note_on_c, 0, 34, 94
1, 33962, Note_on_c, 0, 53, 88
1, 34000, Note_on_c, 0, 34, 0
1, 34005, Note_on_c, 0, 46, 0
1, 34144, Note_on_c, 0, 53, 0
1, 34274, Note_on_c, 0, 56, 0
1, 34356, Note_on_c, 0, 58, 0
1, 35311, Note_on_c, 0, 62, 0
1, 36117, Note_on_c, 0, 51, 38
1, 36300, Note_on_c, 0, 55, 45
1, 36391, Note_on_c, 0, 55, 0
1, 36420, Note_on_c, 0, 58, 49
1, 36492, Note_on_c, 0, 58, 0
1, 36516, Note_on_c, 0, 55, 25
1, 36607, Note_on_c, 0, 51, 0
1, 36621, Note_on_c, 0, 55, 0
1, 36645, Note_on_c, 0, 58, 55
1, 36732, Note_on_c, 0, 58, 0
1, 36756, Note_on_c, 0, 55, 19
1, 36871, Note_on_c, 0, 55, 0
1, 36885, Note_on_c, 0, 51, 58
1, 36962, Note_on_c, 0, 51, 0
1, 37015, Note_on_c, 0, 55, 38
1, 37135, Note_on_c, 0, 70, 84
1, 37135, Note_on_c, 0, 58, 64
1, 37140, Note_on_c, 0, 55, 0
1, 37212, Note_on_c, 0, 58, 0
1, 37216, Note_on_c, 0, 70, 0
1, 37264, Note_on_c, 0, 55, 25
1, 37375, Note_on_c, 0, 70, 94
1, 37399, Note_on_c, 0, 55, 0
1, 37413, Note_on_c, 0, 58, 60
1, 37490, Note_on_c, 0, 70, 0
1, 37490, Note_on_c, 0, 58, 0
1, 37514, Note_on_c, 0, 55, 34
1, 37605, Note_on_c, 0, 55, 0
1, 37677, Note_on_c, 0, 51, 51
1, 37677, Note_on_c, 0, 70, 69
1, 37821, Note_on_c, 0, 53, 50
1, 37826, Note_on_c, 0, 70, 0
1, 37836, Note_on_c, 0, 72, 80
1, 37879, Note_on_c, 0, 53, 0
1, 37879, Note_on_c, 0, 72, 0
1, 37884, Note_on_c, 0, 70, 80
1, 37912, Note_on_c, 0, 56, 47
1, 37936, Note_on_c, 0, 69, 82
1, 37941, Note_on_c, 0, 70, 0
1, 37980, Note_on_c, 0, 56, 0
1, 37999, Note_on_c, 0, 69, 0
1, 37999, Note_on_c, 0, 70, 92
1, 38061, Note_on_c, 0, 53, 64
1, 38124, Note_on_c, 0, 53, 0
1, 38124, Note_on_c, 0, 72, 87
1, 38143, Note_on_c, 0, 70, 0
1, 38196, Note_on_c, 0, 56, 61
1, 38229, Note_on_c, 0, 70, 85
1, 38258, Note_on_c, 0, 72, 0
1, 38306, Note_on_c, 0, 56, 0
1, 38311, Note_on_c, 0, 51, 0
1, 38368, Note_on_c, 0, 53, 38
1, 38450, Note_on_c, 0, 53, 0
1, 38474, Note_on_c, 0, 51, 56
1, 38503, Note_on_c, 0, 80, 79
1, 38527, Note_on_c, 0, 70, 0
1, 38642, Note_on_c, 0, 53, 59
1, 38709, Note_on_c, 0, 53, 0
1, 38757, Note_on_c, 0, 56, 48
1, 38829, Note_on_c, 0, 56, 0
1, 38839, Note_on_c, 0, 51, 0
1, 38887, Note_on_c, 0, 53, 58
1, 38954, Note_on_c, 0, 53, 0
1, 39012, Note_on_c, 0, 74, 77
1, 39012, Note_on_c, 0, 56, 54
1, 39031, Note_on_c, 0, 80, 0
1, 39117, Note_on_c, 0, 56, 0
1, 39141, Note_on_c, 0, 53, 52
1, 39204, Note_on_c, 0, 53, 0
1, 39261, Note_on_c, 0, 51, 48
1, 39280, Note_on_c, 0, 77, 76
1, 39324, Note_on_c, 0, 74, 0
1, 39424, Note_on_c, 0, 55, 41
1, 39448, Note_on_c, 0, 51, 0
1, 39501, Note_on_c, 0, 55, 0
1, 39535, Note_on_c, 0, 58, 62
1, 39607, Note_on_c, 0, 58, 0
1, 39669, Note_on_c, 0, 55, 25
1, 39765, Note_on_c, 0, 55, 0
1, 39789, Note_on_c, 0, 58, 46
1, 39804, Note_on_c, 0, 77, 0
1, 39808, Note_on_c, 0, 75, 43
1, 39914, Note_on_c, 0, 58, 0
1, 39957, Note_on_c, 0, 55, 50
1, 40020, Note_on_c, 0, 55, 0
1, 40063, Note_on_c, 0, 75, 0
1, 40068, Note_on_c, 0, 51, 52
1, 40188, Note_on_c, 0, 51, 0
1, 40221, Note_on_c, 0, 55, 48
1, 40298, Note_on_c, 0, 55, 0
1, 40317, Note_on_c, 0, 58, 60
1, 40317, Note_on_c, 0, 70, 80
1, 40384, Note_on_c, 0, 58, 0
1, 40437, Note_on_c, 0, 55, 33
1, 40471, Note_on_c, 0, 70, 0
1, 40552, Note_on_c, 0, 55, 0
1, 40552, Note_on_c, 0, 58, 66
1, 40552, Note_on_c, 0, 70, 78
1, 40639, Note_on_c, 0, 58, 0
1, 40653, Note_on_c, 0, 55, 51
1, 40696, Note_on_c, 0, 70, 0
1, 40740, Note_on_c, 0, 55, 0
1, 40797, Note_on_c, 0, 69, 87
1, 40802, Note_on_c, 0, 51, 50
1, 40917, Note_on_c, 0, 70, 91
1, 40927, Note_on_c, 0, 69, 0
1, 40936, Note_on_c, 0, 53, 50
1, 40999, Note_on_c, 0, 53, 0
1, 41032, Note_on_c, 0, 72, 93
1, 41042, Note_on_c, 0, 70, 0
1, 41042, Note_on_c, 0, 56, 51
1, 41109, Note_on_c, 0, 56, 0
1, 41152, Note_on_c, 0, 73, 89
1, 41162, Note_on_c, 0, 51, 0
1, 41181, Note_on_c, 0, 53, 49
1, 41186, Note_on_c, 0, 72, 0
1, 41248, Note_on_c, 0, 53, 0
1, 41268, Note_on_c, 0, 74, 94
1, 41282, Note_on_c, 0, 73, 0
1, 41282, Note_on_c, 0, 56, 60
1, 41354, Note_on_c, 0, 56, 0
1, 41368, Note_on_c, 0, 53, 44
1, 41388, Note_on_c, 0, 75, 89
1, 41412, Note_on_c, 0, 74, 0
1, 41445, Note_on_c, 0, 53, 0
1, 41498, Note_on_c, 0, 76, 100
1, 41512, Note_on_c, 0, 75, 0
1, 41512, Note_on_c, 0, 51, 60
1, 41608, Note_on_c, 0, 77, 97
1, 41632, Note_on_c, 0, 53, 54
1, 41637, Note_on_c, 0, 76, 0
1, 41714, Note_on_c, 0, 53, 0
1, 41724, Note_on_c, 0, 51, 0
1, 41724, Note_on_c, 0, 78, 95
1, 41728, Note_on_c, 0, 77, 0
1, 41748, Note_on_c, 0, 56, 54
1, 41824, Note_on_c, 0, 56, 0
1, 41839, Note_on_c, 0, 79, 95
1, 41882, Note_on_c, 0, 78, 0
1, 41887, Note_on_c, 0, 53, 54
1, 41959, Note_on_c, 0, 53, 0
1, 41973, Note_on_c, 0, 80, 93
1, 41992, Note_on_c, 0, 79, 0
1, 41997, Note_on_c, 0, 56, 57
1, 42074, Note_on_c, 0, 56, 0
1, 42088, Note_on_c, 0, 74, 92
1, 42112, Note_on_c, 0, 53, 32
1, 42132, Note_on_c, 0, 80, 0
1, 42194, Note_on_c, 0, 53, 0
1, 42247, Note_on_c, 0, 51, 48
1, 42252, Note_on_c, 0, 77, 72
1, 42276, Note_on_c, 0, 74, 0
1, 42400, Note_on_c, 0, 55, 50
1, 42477, Note_on_c, 0, 55, 0
1, 42516, Note_on_c, 0, 58, 53
1, 42583, Note_on_c, 0, 58, 0
1, 42626, Note_on_c, 0, 55, 24
1, 42650, Note_on_c, 0, 51, 0
1, 42751, Note_on_c, 0, 55, 0
1, 42765, Note_on_c, 0, 58, 57
1, 42794, Note_on_c, 0, 75, 44
1, 42842, Note_on_c, 0, 58, 0
1, 42856, Note_on_c, 0, 77, 0
1, 42909, Note_on_c, 0, 55, 28
1, 43000, Note_on_c, 0, 55, 0
1, 43029, Note_on_c, 0, 51, 50
1, 43130, Note_on_c, 0, 51, 0
1, 43135, Note_on_c, 0, 75, 0
1, 43168, Note_on_c, 0, 55, 34
1, 43269, Note_on_c, 0, 55, 0
1, 43279, Note_on_c, 0, 75, 66
1, 43284, Note_on_c, 0, 58, 55
1, 43356, Note_on_c, 0, 58, 0
1, 43394, Note_on_c, 0, 55, 26
1, 43428, Note_on_c, 0, 75, 0
1, 43490, Note_on_c, 0, 55, 0
1, 43524, Note_on_c, 0, 58, 67
1, 43533, Note_on_c, 0, 75, 75
1, 43620, Note_on_c, 0, 55, 40
1, 43644, Note_on_c, 0, 58, 0
1, 43692, Note_on_c, 0, 55, 0
1, 43692, Note_on_c, 0, 75, 0
1, 43792, Note_on_c, 0, 47, 65
1, 43807, Note_on_c, 0, 75, 72
1, 43951, Note_on_c, 0, 51, 72
1, 44018, Note_on_c, 0, 51, 0
1, 44110, Note_on_c, 0, 57, 55
1, 44210, Note_on_c, 0, 75, 0
1, 44216, Note_on_c, 0, 57, 0
1, 44239, Note_on_c, 0, 77, 78
1, 44277, Note_on_c, 0, 75, 76
1, 44287, Note_on_c, 0, 77, 0
1, 44303, Note_on_c, 0, 51, 57
1, 44354, Note_on_c, 0, 74, 84
1, 44364, Note_on_c, 0, 75, 0
1, 44380, Note_on_c, 0, 51, 0
1, 44383, Note_on_c, 0, 47, 0
1, 44412, Note_on_c, 0, 74, 0
1, 44426, Note_on_c, 0, 75, 97
1, 44436, Note_on_c, 0, 57, 32
1, 44541, Note_on_c, 0, 77, 104
1, 44565, Note_on_c, 0, 75, 0
1, 44575, Note_on_c, 0, 57, 0
1, 44575, Note_on_c, 0, 51, 62
1, 44680, Note_on_c, 0, 51, 0
1, 44724, Note_on_c, 0, 78, 79
1, 44733, Note_on_c, 0, 77, 0
1, 44743, Note_on_c, 0, 47, 52
1, 44896, Note_on_c, 0, 51, 57
1, 44968, Note_on_c, 0, 51, 0
1, 45002, Note_on_c, 0, 54, 49
1, 45084, Note_on_c, 0, 54, 0
1, 45132, Note_on_c, 0, 51, 55
1, 45223, Note_on_c, 0, 51, 0
1, 45271, Note_on_c, 0, 54, 47
1, 45295, Note_on_c, 0, 69, 58
1, 45304, Note_on_c, 0, 78, 0
1, 45400, Note_on_c, 0, 51, 52
1, 45405, Note_on_c, 0, 47, 0
1, 45472, Note_on_c, 0, 54, 0
1, 45520, Note_on_c, 0, 51, 0
1, 45573, Note_on_c, 0, 70, 66
1, 45588, Note_on_c, 0, 69, 0
1, 45592, Note_on_c, 0, 46, 52
1, 45592, Note_on_c, 0, 50, 54
1, 45852, Note_on_c, 0, 50, 0
1, 45871, Note_on_c, 0, 70, 0
1, 45880, Note_on_c, 0, 58, 52
1, 45928, Note_on_c, 0, 46, 0
1, 46024, Note_on_c, 0, 70, 72
1, 46149, Note_on_c, 0, 70, 0
1, 46168, Note_on_c, 0, 69, 59
1, 46212, Note_on_c, 0, 58, 0
1, 46264, Note_on_c, 0, 70, 72
1, 46279, Note_on_c, 0, 69, 0
1, 46404, Note_on_c, 0, 71, 76
1, 46413, Note_on_c, 0, 70, 0
1, 46528, Note_on_c, 0, 72, 92
1, 46552, Note_on_c, 0, 71, 0
1, 46644, Note_on_c, 0, 73, 83
1, 46648, Note_on_c, 0, 72, 0
1, 46768, Note_on_c, 0, 73, 0
1, 46773, Note_on_c, 0, 74, 81
1, 46898, Note_on_c, 0, 63, 56
1, 46898, Note_on_c, 0, 75, 68
1, 46903, Note_on_c, 0, 74, 0
1, 46917, Note_on_c, 0, 59, 47
1, 47028, Note_on_c, 0, 69, 63
1, 47042, Note_on_c, 0, 75, 0
1, 47066, Note_on_c, 0, 63, 0
1, 47085, Note_on_c, 0, 59, 0
1, 47095, Note_on_c, 0, 69, 0
1, 47157, Note_on_c, 0, 70, 76
1, 47167, Note_on_c, 0, 58, 55
1, 47172, Note_on_c, 0, 62, 46
1, 47277, Note_on_c, 0, 62, 0
1, 47287, Note_on_c, 0, 70, 0
1, 47287, Note_on_c, 0, 58, 0
1, 47479, Note_on_c, 0, 46, 55
1, 47560, Note_on_c, 0, 58, 74
1, 47671, Note_on_c, 0, 58, 0
1, 47695, Note_on_c, 0, 57, 66
1, 47738, Note_on_c, 0, 46, 0
1, 47824, Note_on_c, 0, 58, 82
1, 47829, Note_on_c, 0, 57, 0
1, 47920, Note_on_c, 0, 58, 0
1, 47935, Note_on_c, 0, 59, 64
1, 48064, Note_on_c, 0, 59, 0
1, 48064, Note_on_c, 0, 60, 65
1, 48132, Note_on_c, 0, 60, 0
1, 48160, Note_on_c, 0, 61, 60
1, 48237, Note_on_c, 0, 61, 0
1, 48276, Note_on_c, 0, 62, 64
1, 48357, Note_on_c, 0, 62, 0
1, 48410, Note_on_c, 0, 63, 60
1, 48434, Note_on_c, 0, 51, 44
1, 48444, Note_on_c, 0, 47, 43
1, 48496, Note_on_c, 0, 63, 0
1, 48544, Note_on_c, 0, 57, 60
1, 48583, Note_on_c, 0, 51, 0
1, 48621, Note_on_c, 0, 57, 0
1, 48621, Note_on_c, 0, 47, 0
1, 48674, Note_on_c, 0, 58, 58
1, 48684, Note_on_c, 0, 46, 54
1, 48693, Note_on_c, 0, 50, 45
1, 48813, Note_on_c, 0, 50, 0
1, 48818, Note_on_c, 0, 58, 0
1, 48828, Note_on_c, 0, 46, 0
1, 48967, Note_on_c, 0, 34, 75
1, 49120, Note_on_c, 0, 81, 73
1, 49221, Note_on_c, 0, 34, 0
1, 49221, Note_on_c, 0, 82, 94
1, 49240, Note_on_c, 0, 81, 0
1, 49356, Note_on_c, 0, 81, 75
1, 49370, Note_on_c, 0, 82, 0
1, 49509, Note_on_c, 0, 81, 0
1, 49533, Note_on_c, 0, 82, 73
1, 49663, Note_on_c, 0, 82, 0
1, 49792, Note_on_c, 0, 58, 71
1, 49917, Note_on_c, 0, 69, 73
1, 50004, Note_on_c, 0, 58, 0
1, 50018, Note_on_c, 0, 70, 87
1, 50023, Note_on_c, 0, 69, 0
1, 50138, Note_on_c, 0, 69, 71
1, 50162, Note_on_c, 0, 70, 0
1, 50282, Note_on_c, 0, 69, 0
1, 50296, Note_on_c, 0, 70, 69
1, 50440, Note_on_c, 0, 70, 0
1, 50560, Note_on_c, 0, 46, 52
1, 50733, Note_on_c, 0, 57, 44
1, 50820, Note_on_c, 0, 57, 0
1, 50834, Note_on_c, 0, 58, 64
1, 50844, Note_on_c, 0, 46, 0
1, 50944, Note_on_c, 0, 58, 0
1, 50973, Note_on_c, 0, 57, 48
1, 51127, Note_on_c, 0, 57, 0
1, 51132, Note_on_c, 0, 58, 62
1, 51314, Note_on_c, 0, 58, 0
1, 51415, Note_on_c, 0, 34, 68
1, 51573, Note_on_c, 0, 45, 82
1, 51693, Note_on_c, 0, 46, 91
1, 51698, Note_on_c, 0, 45, 0
1, 51784, Note_on_c, 0, 34, 0
1, 51818, Note_on_c, 0, 45, 81
1, 51837, Note_on_c, 0, 46, 0
1, 51928, Note_on_c, 0, 45, 0
1, 51962, Note_on_c, 0, 46, 102
1, 52082, Note_on_c, 0, 46, 0
1, 52092, Note_on_c, 0, 47, 86
1, 52202, Note_on_c, 0, 47, 0
1, 52231, Note_on_c, 0, 48, 90
1, 52293, Note_on_c, 0, 48, 0
1, 52346, Note_on_c, 0, 46, 106
1, 52461, Note_on_c, 0, 46, 0
1, 52480, Note_on_c, 0, 44, 89
1, 52586, Note_on_c, 0, 44, 0
1, 52624, Note_on_c, 0, 43, 67
1, 52700, Note_on_c, 0, 43, 0
1, 52749, Note_on_c, 0, 41, 100
1, 52840, Note_on_c, 0, 41, 0
1, 52860, Note_on_c, 0, 39, 88
1, 52956, Note_on_c, 0, 39, 0
1, 52989, Note_on_c, 0, 38, 89
1, 53080, Note_on_c, 0, 38, 0
1, 53121, Note_on_c, 0, 36, 91
1, 53178, Note_on_c, 0, 36, 0
1, 53250, Note_on_c, 0, 34, 88
1, 53308, Note_on_c, 0, 34, 0
1, 53378, Note_on_c, 0, 32, 84
1, 53479, Note_on_c, 0, 32, 0
1, 53575, Note_on_c, 0, 31, 118
1, 54175, Note_on_c, 0, 31, 0
1, 54751, Note_on_c, 0, 87, 106
1, 54751, Note_on_c, 0, 75, 98
1, 54765, Note_on_c, 0, 43, 92
1, 55644, Note_on_c, 0, 43, 0
1, 55764, Note_on_c, 0, 44, 47
1, 55802, Note_on_c, 0, 87, 0
1, 55874, Note_on_c, 0, 75, 0
1, 56047, Note_on_c, 0, 83, 52
1, 56056, Note_on_c, 0, 71, 31
1, 56176, Note_on_c, 0, 71, 0
1, 56215, Note_on_c, 0, 83, 0
1, 56220, Note_on_c, 0, 44, 0
1, 56320, Note_on_c, 0, 84, 81
1, 56330, Note_on_c, 0, 72, 84
1, 56354, Note_on_c, 0, 84, 0
1, 56383, Note_on_c, 0, 72, 0
1, 56580, Note_on_c, 0, 76, 99
1, 56589, Note_on_c, 0, 64, 73
1, 56599, Note_on_c, 0, 60, 51
1, 56599, Note_on_c, 0, 56, 48
1, 56752, Note_on_c, 0, 64, 0
1, 56776, Note_on_c, 0, 76, 0
1, 56853, Note_on_c, 0, 77, 104
1, 56872, Note_on_c, 0, 65, 78
1, 56973, Note_on_c, 0, 65, 0
1, 57007, Note_on_c, 0, 77, 0
1, 57117, Note_on_c, 0, 80, 92
1, 57127, Note_on_c, 0, 56, 0
1, 57132, Note_on_c, 0, 68, 67
1, 57141, Note_on_c, 0, 60, 0
1, 57189, Note_on_c, 0, 68, 0
1, 57376, Note_on_c, 0, 80, 0
1, 57400, Note_on_c, 0, 75, 87
1, 57909, Note_on_c, 0, 66, 41
1, 57943, Note_on_c, 0, 57, 34
1, 58101, Note_on_c, 0, 66, 0
1, 58154, Note_on_c, 0, 57, 0
1, 58221, Note_on_c, 0, 67, 47
1, 58240, Note_on_c, 0, 58, 34
1, 58524, Note_on_c, 0, 67, 0
1, 58744, Note_on_c, 0, 68, 35
1, 58749, Note_on_c, 0, 79, 50
1, 58764, Note_on_c, 0, 58, 0
1, 58764, Note_on_c, 0, 75, 0
1, 58769, Note_on_c, 0, 74, 24
1, 58860, Note_on_c, 0, 74, 0
1, 58922, Note_on_c, 0, 77, 56
1, 58936, Note_on_c, 0, 79, 0
1, 58994, Note_on_c, 0, 68, 0
1, 59004, Note_on_c, 0, 77, 0
1, 59061, Note_on_c, 0, 51, 53
1, 59066, Note_on_c, 0, 75, 56
1, 59196, Note_on_c, 0, 58, 64
1, 59210, Note_on_c, 0, 75, 0
1, 59258, Note_on_c, 0, 58, 0
1, 59272, Note_on_c, 0, 51, 0
1, 59344, Note_on_c, 0, 55, 39
1, 59407, Note_on_c, 0, 55, 0
1, 59440, Note_on_c, 0, 58, 60
1, 59450, Note_on_c, 0, 75, 66
1, 59512, Note_on_c, 0, 58, 0
1, 59584, Note_on_c, 0, 75, 0
1, 59584, Note_on_c, 0, 74, 68
1, 59599, Note_on_c, 0, 55, 36
1, 59656, Note_on_c, 0, 74, 0
1, 59666, Note_on_c, 0, 55, 0
1, 59690, Note_on_c, 0, 75, 67
1, 59690, Note_on_c, 0, 58, 67
1, 59743, Note_on_c, 0, 75, 0
1, 59757, Note_on_c, 0, 58, 0
1, 59829, Note_on_c, 0, 76, 94
1, 59839, Note_on_c, 0, 50, 63
1, 59968, Note_on_c, 0, 58, 72
1, 59973, Note_on_c, 0, 50, 0
1, 59992, Note_on_c, 0, 76, 0
1, 59992, Note_on_c, 0, 77, 66
1, 60040, Note_on_c, 0, 58, 0
1, 60079, Note_on_c, 0, 56, 52
1, 60127, Note_on_c, 0, 77, 0
1, 60146, Note_on_c, 0, 56, 0
1, 60208, Note_on_c, 0, 58, 68
1, 60228, Note_on_c, 0, 77, 80
1, 60276, Note_on_c, 0, 58, 0
1, 60285, Note_on_c, 0, 77, 0
1, 60328, Note_on_c, 0, 50, 52
1, 60362, Note_on_c, 0, 76, 70
1, 60386, Note_on_c, 0, 50, 0
1, 60415, Note_on_c, 0, 76, 0
1, 60463, Note_on_c, 0, 58, 51
1, 60482, Note_on_c, 0, 77, 79
1, 60530, Note_on_c, 0, 77, 0
1, 60540, Note_on_c, 0, 58, 0
1, 60616, Note_on_c, 0, 78, 69
1, 60631, Note_on_c, 0, 49, 49
1, 60751, Note_on_c, 0, 58, 59
1, 60760, Note_on_c, 0, 78, 0
1, 60780, Note_on_c, 0, 79, 59
1, 60828, Note_on_c, 0, 58, 0
1, 60832, Note_on_c, 0, 49, 0
1, 60861, Note_on_c, 0, 79, 0
1, 60876, Note_on_c, 0, 51, 57
1, 60948, Note_on_c, 0, 51, 0
1, 61000, Note_on_c, 0, 58, 67
1, 61020, Note_on_c, 0, 79, 79
1, 61058, Note_on_c, 0, 79, 0
1, 61096, Note_on_c, 0, 58, 0
1, 61130, Note_on_c, 0, 78, 86
1, 61130, Note_on_c, 0, 49, 66
1, 61178, Note_on_c, 0, 78, 0
1, 61197, Note_on_c, 0, 49, 0
1, 61255, Note_on_c, 0, 79, 89
1, 61260, Note_on_c, 0, 58, 80
1, 61288, Note_on_c, 0, 79, 0
1, 61322, Note_on_c, 0, 58, 0
1, 61389, Note_on_c, 0, 79, 81
1, 61394, Note_on_c, 0, 48, 72
1, 61514, Note_on_c, 0, 79, 0
1, 61514, Note_on_c, 0, 56, 53
1, 61543, Note_on_c, 0, 80, 71
1, 61557, Note_on_c, 0, 48, 0
1, 61605, Note_on_c, 0, 56, 0
1, 61663, Note_on_c, 0, 51, 56
1, 61696, Note_on_c, 0, 80, 0
1, 61725, Note_on_c, 0, 51, 0
1, 61768, Note_on_c, 0, 56, 67
1, 61778, Note_on_c, 0, 80, 78
1, 61826, Note_on_c, 0, 56, 0
1, 61850, Note_on_c, 0, 80, 0
1, 61903, Note_on_c, 0, 48, 73
1, 61912, Note_on_c, 0, 79, 93
1, 61951, Note_on_c, 0, 48, 0
1, 61965, Note_on_c, 0, 79, 0
1, 62023, Note_on_c, 0, 56, 69
1, 62028, Note_on_c, 0, 80, 96
1, 62071, Note_on_c, 0, 56, 0
1, 62071, Note_on_c, 0, 80, 0
1, 62172, Note_on_c, 0, 82, 104
1, 62186, Note_on_c, 0, 43, 56
1, 62311, Note_on_c, 0, 79, 79
1, 62340, Note_on_c, 0, 82, 0
1, 62440, Note_on_c, 0, 79, 0
1, 62450, Note_on_c, 0, 87, 68
1, 62484, Note_on_c, 0, 43, 0
1, 62493, Note_on_c, 0, 87, 0
1, 62575, Note_on_c, 0, 87, 60
1, 62623, Note_on_c, 0, 87, 0
1, 62714, Note_on_c, 0, 87, 68
1, 62757, Note_on_c, 0, 87, 0
1, 62868, Note_on_c, 0, 87, 73
1, 62911, Note_on_c, 0, 87, 0
1, 63007, Note_on_c, 0, 65, 60
1, 63007, Note_on_c, 0, 56, 51
1, 63151, Note_on_c, 0, 77, 64
1, 63252, Note_on_c, 0, 65, 0
1, 63252, Note_on_c, 0, 77, 0
1, 63285, Note_on_c, 0, 84, 75
1, 63295, Note_on_c, 0, 56, 0
1, 63324, Note_on_c, 0, 84, 0
1, 63400, Note_on_c, 0, 84, 75
1, 63453, Note_on_c, 0, 84, 0
1, 63544, Note_on_c, 0, 84, 76
1, 63592, Note_on_c, 0, 84, 0
1, 63698, Note_on_c, 0, 84, 71
1, 63751, Note_on_c, 0, 84, 0
1, 63828, Note_on_c, 0, 67, 57
1, 63832, Note_on_c, 0, 58, 52
1, 63972, Note_on_c, 0, 75, 64
1, 64077, Note_on_c, 0, 67, 0
1, 64092, Note_on_c, 0, 75, 0
1, 64120, Note_on_c, 0, 82, 79
1, 64130, Note_on_c, 0, 58, 0
1, 64168, Note_on_c, 0, 82, 0
1, 64250, Note_on_c, 0, 82, 76
1, 64303, Note_on_c, 0, 82, 0
1, 64394, Note_on_c, 0, 82, 71
1, 64452, Note_on_c, 0, 82, 0
1, 64538, Note_on_c, 0, 82, 71
1, 64586, Note_on_c, 0, 82, 0
1, 64668, Note_on_c, 0, 58, 50
1, 64692, Note_on_c, 0, 65, 41
1, 64826, Note_on_c, 0, 68, 62
1, 64884, Note_on_c, 0, 65, 0
1, 64927, Note_on_c, 0, 68, 0
1, 64956, Note_on_c, 0, 58, 0
1, 64984, Note_on_c, 0, 74, 64
1, 65028, Note_on_c, 0, 74, 0
1, 65095, Note_on_c, 0, 74, 87
1, 65133, Note_on_c, 0, 74, 0
1, 65229, Note_on_c, 0, 74, 85
1, 65277, Note_on_c, 0, 74, 0
1, 65359, Note_on_c, 0, 74, 91
1, 65436, Note_on_c, 0, 74, 0
1, 65532, Note_on_c, 0, 51, 87
1, 65536, Note_on_c, 0, 75, 98
1, 65546, Note_on_c, 0, 70, 74
1, 65546, Note_on_c, 0, 67, 83
1, 65680, Note_on_c, 0, 58, 88
1, 65690, Note_on_c, 0, 70, 0
1, 65704, Note_on_c, 0, 75, 0
1, 65719, Note_on_c, 0, 51, 0
1, 65728, Note_on_c, 0, 67, 0
1, 65772, Note_on_c, 0, 58, 0
1, 65829, Note_on_c, 0, 55, 72
1, 65892, Note_on_c, 0, 55, 0
1, 65959, Note_on_c, 0, 58, 67
1, 65968, Note_on_c, 0, 63, 71
1, 66040, Note_on_c, 0, 58, 0
1, 66055, Note_on_c, 0, 63, 0
1, 66103, Note_on_c, 0, 51, 57
1, 66108, Note_on_c, 0, 62, 64
1, 66165, Note_on_c, 0, 51, 0
1, 66204, Note_on_c, 0, 62, 0
1, 66213, Note_on_c, 0, 58, 57
1, 66232, Note_on_c, 0, 63, 73
1, 66300, Note_on_c, 0, 58, 0
1, 66362, Note_on_c, 0, 64, 89
1, 66372, Note_on_c, 0, 50, 55
1, 66386, Note_on_c, 0, 63, 0
1, 66487, Note_on_c, 0, 64, 0
1, 66501, Note_on_c, 0, 58, 57
1, 66516, Note_on_c, 0, 65, 72
1, 66525, Note_on_c, 0, 50, 0
1, 66573, Note_on_c, 0, 65, 0
1, 66573, Note_on_c, 0, 58, 0
1, 66621, Note_on_c, 0, 56, 50
1, 66684, Note_on_c, 0, 56, 0
1, 66746, Note_on_c, 0, 58, 68
1, 66760, Note_on_c, 0, 65, 64
1, 66813, Note_on_c, 0, 65, 0
1, 66818, Note_on_c, 0, 58, 0
1, 66876, Note_on_c, 0, 50, 59
1, 66885, Note_on_c, 0, 64, 43
1, 66938, Note_on_c, 0, 64, 0
1, 66943, Note_on_c, 0, 50, 0
1, 66991, Note_on_c, 0, 58, 59
1, 66991, Note_on_c, 0, 65, 79
1, 67068, Note_on_c, 0, 65, 0
1, 67096, Note_on_c, 0, 58, 0
1, 67125, Note_on_c, 0, 66, 83
1, 67130, Note_on_c, 0, 49, 62
1, 67264, Note_on_c, 0, 58, 73
1, 67269, Note_on_c, 0, 66, 0
1, 67288, Note_on_c, 0, 67, 63
1, 67298, Note_on_c, 0, 49, 0
1, 67336, Note_on_c, 0, 58, 0
1, 67346, Note_on_c, 0, 67, 0
1, 67394, Note_on_c, 0, 51, 62
1, 67471, Note_on_c, 0, 51, 0
1, 67524, Note_on_c, 0, 67, 83
1, 67533, Note_on_c, 0, 58, 65
1, 67581, Note_on_c, 0, 67, 0
1, 67610, Note_on_c, 0, 58, 0
1, 67648, Note_on_c, 0, 66, 81
1, 67663, Note_on_c, 0, 49, 56
1, 67720, Note_on_c, 0, 66, 0
1, 67754, Note_on_c, 0, 49, 0
1, 67768, Note_on_c, 0, 67, 92
1, 67773, Note_on_c, 0, 58, 69
1, 67807, Note_on_c, 0, 67, 0
1, 67879, Note_on_c, 0, 58, 0
1, 67903, Note_on_c, 0, 67, 83
1, 67917, Note_on_c, 0, 48, 65
1, 68042, Note_on_c, 0, 56, 54
1, 68052, Note_on_c, 0, 67, 0
1, 68056, Note_on_c, 0, 68, 73
1, 68100, Note_on_c, 0, 48, 0
1, 68128, Note_on_c, 0, 56, 0
1, 68172, Note_on_c, 0, 68, 0
1, 68181, Note_on_c, 0, 51, 54
1, 68253, Note_on_c, 0, 51, 0
1, 68287, Note_on_c, 0, 68, 79
1, 68296, Note_on_c, 0, 56, 62
1, 68354, Note_on_c, 0, 56, 0
1, 68364, Note_on_c, 0, 68, 0
1, 68412, Note_on_c, 0, 67, 91
1, 68426, Note_on_c, 0, 48, 76
1, 68460, Note_on_c, 0, 67, 0
1, 68474, Note_on_c, 0, 48, 0
1, 68532, Note_on_c, 0, 68, 95
1, 68560, Note_on_c, 0, 56, 63
1, 68608, Note_on_c, 0, 56, 0
1, 68613, Note_on_c, 0, 68, 0
1, 68676, Note_on_c, 0, 70, 100
1, 68685, Note_on_c, 0, 43, 70
1, 68810, Note_on_c, 0, 67, 76
1, 68820, Note_on_c, 0, 70, 0
1, 68920, Note_on_c, 0, 67, 0
1, 68935, Note_on_c, 0, 75, 78
1, 68973, Note_on_c, 0, 43, 0
1, 68983, Note_on_c, 0, 75, 0
1, 69074, Note_on_c, 0, 75, 71
1, 69127, Note_on_c, 0, 75, 0
1, 69204, Note_on_c, 0, 75, 73
1, 69266, Note_on_c, 0, 75, 0
1, 69343, Note_on_c, 0, 75, 76
1, 69386, Note_on_c, 0, 75, 0
1, 69487, Note_on_c, 0, 53, 59
1, 69492, Note_on_c, 0, 44, 51
1, 69597, Note_on_c, 0, 65, 82
1, 69727, Note_on_c, 0, 65, 0
1, 69751, Note_on_c, 0, 72, 74
1, 69765, Note_on_c, 0, 53, 0
1, 69794, Note_on_c, 0, 72, 0
1, 69823, Note_on_c, 0, 44, 0
1, 69861, Note_on_c, 0, 72, 89
1, 69914, Note_on_c, 0, 72, 0
1, 70015, Note_on_c, 0, 72, 72
1, 70063, Note_on_c, 0, 72, 0
1, 70154, Note_on_c, 0, 72, 73
1, 70202, Note_on_c, 0, 72, 0
1, 70293, Note_on_c, 0, 46, 59
1, 70293, Note_on_c, 0, 55, 58
1, 70423, Note_on_c, 0, 63, 66
1, 70509, Note_on_c, 0, 63, 0
1, 70567, Note_on_c, 0, 70, 73
1, 70586, Note_on_c, 0, 55, 0
1, 70615, Note_on_c, 0, 70, 0
1, 70639, Note_on_c, 0, 46, 0
1, 70687, Note_on_c, 0, 70, 61
1, 70749, Note_on_c, 0, 70, 0
1, 70831, Note_on_c, 0, 70, 66
1, 70888, Note_on_c, 0, 70, 0
1, 70975, Note_on_c, 0, 70, 63
1, 71032, Note_on_c, 0, 70, 0
1, 71138, Note_on_c, 0, 46, 50
1, 71138, Note_on_c, 0, 53, 45
1, 71292, Note_on_c, 0, 56, 53
1, 71432, Note_on_c, 0, 56, 0
1, 71450, Note_on_c, 0, 62, 51
1, 71498, Note_on_c, 0, 62, 0
1, 71527, Note_on_c, 0, 46, 0
1, 71527, Note_on_c, 0, 53, 0
1, 71556, Note_on_c, 0, 62, 84
1, 71604, Note_on_c, 0, 62, 0
1, 71700, Note_on_c, 0, 62, 69
1, 71757, Note_on_c, 0, 62, 0
1, 71839, Note_on_c, 0, 62, 72
1, 71906, Note_on_c, 0, 62, 0
1, 72007, Note_on_c, 0, 51, 43
1, 72007, Note_on_c, 0, 63, 48
1, 72146, Note_on_c, 0, 58, 63
1, 72160, Note_on_c, 0, 63, 0
1, 72232, Note_on_c, 0, 58, 0
1, 72288, Note_on_c, 0, 55, 63
1, 72352, Note_on_c, 0, 51, 0
1, 72374, Note_on_c, 0, 55, 0
1, 72405, Note_on_c, 0, 58, 56
1, 72496, Note_on_c, 0, 58, 0
1, 72549, Note_on_c, 0, 55, 54
1, 72616, Note_on_c, 0, 55, 0
1, 72655, Note_on_c, 0, 58, 67
1, 72727, Note_on_c, 0, 58, 0
1, 72780, Note_on_c, 0, 46, 80
1, 72804, Note_on_c, 0, 56, 50
1, 72904, Note_on_c, 0, 56, 0
1, 72928, Note_on_c, 0, 58, 61
1, 73024, Note_on_c, 0, 58, 0
1, 73053, Note_on_c, 0, 48, 86
1, 73068, Note_on_c, 0, 56, 62
1, 73144, Note_on_c, 0, 46, 0
1, 73159, Note_on_c, 0, 56, 0
1, 73188, Note_on_c, 0, 58, 78
1, 73279, Note_on_c, 0, 58, 0
1, 73303, Note_on_c, 0, 50, 92
1, 73317, Note_on_c, 0, 56, 64
1, 73360, Note_on_c, 0, 48, 0
1, 73408, Note_on_c, 0, 56, 0
1, 73437, Note_on_c, 0, 58, 72
1, 73548, Note_on_c, 0, 50, 0
1, 73557, Note_on_c, 0, 58, 0
1, 73572, Note_on_c, 0, 51, 73
1, 73600, Note_on_c, 0, 55, 57
1, 73711, Note_on_c, 0, 58, 65
1, 73730, Note_on_c, 0, 55, 0
1, 73821, Note_on_c, 0, 51, 0
1, 73864, Note_on_c, 0, 58, 0
1, 73879, Note_on_c, 0, 55, 50
1, 73975, Note_on_c, 0, 58, 45
1, 73980, Note_on_c, 0, 55, 0
1, 74128, Note_on_c, 0, 58, 0
1, 74133, Note_on_c, 0, 55, 51
1, 74229, Note_on_c, 0, 58, 51
1, 74268, Note_on_c, 0, 55, 0
1, 74378, Note_on_c, 0, 58, 0
1, 74378, Note_on_c, 0, 70, 72
1, 74388, Note_on_c, 0, 56, 65
1, 74508, Note_on_c, 0, 58, 45
1, 74517, Note_on_c, 0, 56, 0
1, 74647, Note_on_c, 0, 72, 82
1, 74652, Note_on_c, 0, 56, 45
1, 74661, Note_on_c, 0, 58, 0
1, 74733, Note_on_c, 0, 70, 0
1, 74781, Note_on_c, 0, 58, 50
1, 74800, Note_on_c, 0, 56, 0
1, 74896, Note_on_c, 0, 56, 44
1, 74901, Note_on_c, 0, 58, 0
1, 74911, Note_on_c, 0, 72, 0
1, 74920, Note_on_c, 0, 74, 75
1, 75031, Note_on_c, 0, 56, 0
1, 75040, Note_on_c, 0, 58, 48
1, 75160, Note_on_c, 0, 58, 0
1, 75189, Note_on_c, 0, 55, 43
1, 75204, Note_on_c, 0, 74, 0
1, 75213, Note_on_c, 0, 75, 51
1, 75295, Note_on_c, 0, 55, 0
1, 75309, Note_on_c, 0, 58, 45
1, 75424, Note_on_c, 0, 58, 0
1, 75458, Note_on_c, 0, 55, 36
1, 75530, Note_on_c, 0, 75, 0
1, 75530, Note_on_c, 0, 55, 0
1, 75549, Note_on_c, 0, 58, 53
1, 75664, Note_on_c, 0, 58, 0
1, 75712, Note_on_c, 0, 55, 25
1, 75799, Note_on_c, 0, 55, 0
1, 75799, Note_on_c, 0, 58, 50
1, 75962, Note_on_c, 0, 58, 0
1, 75967, Note_on_c, 0, 82, 79
1, 75976, Note_on_c, 0, 56, 50
1, 76072, Note_on_c, 0, 56, 0
1, 76082, Note_on_c, 0, 58, 53
1, 76245, Note_on_c, 0, 58, 0
1, 76245, Note_on_c, 0, 84, 67
1, 76250, Note_on_c, 0, 56, 45
1, 76284, Note_on_c, 0, 82, 0
1, 76351, Note_on_c, 0, 56, 0
1, 76351, Note_on_c, 0, 58, 57
1, 76432, Note_on_c, 0, 58, 0
1, 76480, Note_on_c, 0, 56, 42
1, 76495, Note_on_c, 0, 84, 0
1, 76514, Note_on_c, 0, 86, 59
1, 76620, Note_on_c, 0, 58, 52
1, 76644, Note_on_c, 0, 56, 0
1, 76797, Note_on_c, 0, 58, 0
1, 76816, Note_on_c, 0, 86, 0
1, 76836, Note_on_c, 0, 87, 51
1, 76850, Note_on_c, 0, 55, 36
1, 77200, Note_on_c, 0, 87, 0
1, 77263, Note_on_c, 0, 55, 0
1, 77268, Note_on_c, 0, 58, 64
1, 77364, Note_on_c, 0, 58, 0
1, 77431, Note_on_c, 0, 63, 35
1, 77493, Note_on_c, 0, 63, 0
1, 77522, Note_on_c, 0, 58, 71
1, 77632, Note_on_c, 0, 58, 0
1, 77685, Note_on_c, 0, 67, 70
1, 77781, Note_on_c, 0, 63, 71
1, 77800, Note_on_c, 0, 67, 0
1, 77911, Note_on_c, 0, 63, 0
1, 77916, Note_on_c, 0, 70, 88
1, 77954, Note_on_c, 0, 70, 0
1, 78045, Note_on_c, 0, 67, 60
1, 78165, Note_on_c, 0, 67, 0
1, 78165, Note_on_c, 0, 75, 78
1, 78280, Note_on_c, 0, 70, 91
1, 78285, Note_on_c, 0, 75, 0
1, 78324, Note_on_c, 0, 70, 0
1, 78429, Note_on_c, 0, 45, 103
1, 78429, Note_on_c, 0, 39, 86
1, 78434, Note_on_c, 0, 41, 89
1, 78444, Note_on_c, 0, 65, 74
1, 78549, Note_on_c, 0, 60, 83
1, 78602, Note_on_c, 0, 65, 0
1, 78708, Note_on_c, 0, 69, 88
1, 78717, Note_on_c, 0, 60, 0
1, 78818, Note_on_c, 0, 65, 81
1, 78866, Note_on_c, 0, 69, 0
1, 78909, Note_on_c, 0, 39, 0
1, 78909, Note_on_c, 0, 41, 0
1, 78933, Note_on_c, 0, 65, 0
1, 78943, Note_on_c, 0, 72, 94
1, 78948, Note_on_c, 0, 45, 0
1, 78976, Note_on_c, 0, 72, 0
1, 79082, Note_on_c, 0, 69, 70
1, 79149, Note_on_c, 0, 69, 0
1, 79207, Note_on_c, 0, 77, 95
1, 79221, Note_on_c, 0, 57, 103
1, 79226, Note_on_c, 0, 53, 85
1, 79226, Note_on_c, 0, 51, 79
1, 79332, Note_on_c, 0, 72, 89
1, 79384, Note_on_c, 0, 77, 0
1, 79442, Note_on_c, 0, 72, 0
1, 79466, Note_on_c, 0, 81, 95
1, 79500, Note_on_c, 0, 81, 0
1, 79586, Note_on_c, 0, 77, 97
1, 79672, Note_on_c, 0, 53, 0
1, 79692, Note_on_c, 0, 51, 0
1, 79701, Note_on_c, 0, 77, 0
1, 79716, Note_on_c, 0, 84, 97
1, 79740, Note_on_c, 0, 57, 0
1, 79831, Note_on_c, 0, 81, 95
1, 79840, Note_on_c, 0, 84, 0
1, 79860, Note_on_c, 0, 81, 0
1, 80023, Note_on_c, 0, 68, 101
1, 80032, Note_on_c, 0, 59, 96
1, 80037, Note_on_c, 0, 56, 88
1, 80042, Note_on_c, 0, 53, 87
1, 80047, Note_on_c, 0, 50, 87
1, 80157, Note_on_c, 0, 65, 92
1, 80210, Note_on_c, 0, 68, 0
1, 80301, Note_on_c, 0, 71, 85
1, 80340, Note_on_c, 0, 65, 0
1, 80412, Note_on_c, 0, 68, 96
1, 80479, Note_on_c, 0, 71, 0
1, 80527, Note_on_c, 0, 59, 0
1, 80527, Note_on_c, 0, 53, 0
1, 80536, Note_on_c, 0, 56, 0
1, 80536, Note_on_c, 0, 74, 100
1, 80556, Note_on_c, 0, 50, 0
1, 80560, Note_on_c, 0, 68, 0
1, 80570, Note_on_c, 0, 74, 0
1, 80656, Note_on_c, 0, 71, 83
1, 80728, Note_on_c, 0, 71, 0
1, 80791, Note_on_c, 0, 56, 100
1, 80796, Note_on_c, 0, 77, 100
1, 80805, Note_on_c, 0, 53, 85
1, 80810, Note_on_c, 0, 50, 81
1, 80810, Note_on_c, 0, 48, 94
1, 80911, Note_on_c, 0, 74, 95
1, 80944, Note_on_c, 0, 77, 0
1, 81026, Note_on_c, 0, 74, 0
1, 81031, Note_on_c, 0, 80, 100
1, 81146, Note_on_c, 0, 80, 0
1, 81146, Note_on_c, 0, 77, 105
1, 81199, Note_on_c, 0, 53, 0
1, 81204, Note_on_c, 0, 50, 0
1, 81271, Note_on_c, 0, 86, 107
1, 81280, Note_on_c, 0, 48, 0
1, 81309, Note_on_c, 0, 56, 0
1, 81314, Note_on_c, 0, 77, 0
1, 81391, Note_on_c, 0, 80, 103
1, 81477, Note_on_c, 0, 86, 0
1, 81540, Note_on_c, 0, 55, 94
1, 81544, Note_on_c, 0, 89, 115
1, 81544, Note_on_c, 0, 86, 35
1, 81544, Note_on_c, 0, 47, 80
1, 81549, Note_on_c, 0, 80, 0
1, 81559, Note_on_c, 0, 53, 85
1, 81559, Note_on_c, 0, 50, 87
1, 81597, Note_on_c, 0, 86, 0
1, 81909, Note_on_c, 0, 53, 0
1, 81914, Note_on_c, 0, 55, 0
1, 81914, Note_on_c, 0, 50, 0
1, 81952, Note_on_c, 0, 89, 0
1, 81976, Note_on_c, 0, 47, 0
1, 83152, Note_on_c, 0, 79, 49
1, 83431, Note_on_c, 0, 67, 41
1, 83432, Note_on_c, 0, 63, 34
1, 83436, Note_on_c, 0, 60, 34
1, 83676, Note_on_c, 0, 75, 53
1, 83724, Note_on_c, 0, 79, 0
1, 83762, Note_on_c, 0, 75, 0
1, 83954, Note_on_c, 0, 72, 74
1, 84008, Note_on_c, 0, 63, 0
1, 84175, Note_on_c, 0, 60, 0
1, 84199, Note_on_c, 0, 67, 0
1, 84213, Note_on_c, 0, 65, 35
1, 84218, Note_on_c, 0, 62, 35
1, 84410, Note_on_c, 0, 72, 0
1, 84429, Note_on_c, 0, 71, 46
1, 84607, Note_on_c, 0, 71, 0
1, 84636, Note_on_c, 0, 62, 0
1, 84674, Note_on_c, 0, 65, 0
1, 84679, Note_on_c, 0, 80, 78
1, 84919, Note_on_c, 0, 59, 42
1, 84928, Note_on_c, 0, 62, 34
1, 85164, Note_on_c, 0, 79, 63
1, 85178, Note_on_c, 0, 80, 0
1, 85212, Note_on_c, 0, 79, 0
1, 85423, Note_on_c, 0, 77, 61
1, 85586, Note_on_c, 0, 62, 0
1, 85620, Note_on_c, 0, 59, 0
1, 85670, Note_on_c, 0, 67, 42
1, 85682, Note_on_c, 0, 60, 28
1, 85898, Note_on_c, 0, 75, 53
1, 85903, Note_on_c, 0, 77, 0
1, 86008, Note_on_c, 0, 75, 0
1, 86066, Note_on_c, 0, 60, 0
1, 86107, Note_on_c, 0, 67, 0
1, 86138, Note_on_c, 0, 79, 91
1, 86364, Note_on_c, 0, 67, 70
1, 86368, Note_on_c, 0, 63, 63
1, 86623, Note_on_c, 0, 84, 97
1, 86652, Note_on_c, 0, 79, 0
1, 86824, Note_on_c, 0, 63, 0
1, 86853, Note_on_c, 0, 82, 100
1, 86868, Note_on_c, 0, 64, 69
1, 86911, Note_on_c, 0, 64, 0
1, 86925, Note_on_c, 0, 84, 0
1, 87103, Note_on_c, 0, 68, 82
1, 87103, Note_on_c, 0, 65, 76
1, 87156, Note_on_c, 0, 67, 0
1, 87328, Note_on_c, 0, 80, 90
1, 87386, Note_on_c, 0, 82, 0
1, 87458, Note_on_c, 0, 80, 0
1, 87506, Note_on_c, 0, 68, 0
1, 87506, Note_on_c, 0, 65, 0
1, 87549, Note_on_c, 0, 70, 72
1, 87568, Note_on_c, 0, 79, 94
1, 87568, Note_on_c, 0, 67, 57
1, 87708, Note_on_c, 0, 70, 0
1, 87765, Note_on_c, 0, 67, 0
1, 87799, Note_on_c, 0, 68, 77
1, 87804, Note_on_c, 0, 72, 82
1, 88029, Note_on_c, 0, 79, 0
1, 88029, Note_on_c, 0, 77, 95
1, 88197, Note_on_c, 0, 68, 0
1, 88202, Note_on_c, 0, 77, 0
1, 88279, Note_on_c, 0, 78, 75
1, 88279, Note_on_c, 0, 69, 50
1, 88432, Note_on_c, 0, 69, 0
1, 88538, Note_on_c, 0, 67, 31
1, 88735, Note_on_c, 0, 72, 0
1, 88783, Note_on_c, 0, 78, 0
1, 88816, Note_on_c, 0, 79, 45
1, 88845, Note_on_c, 0, 71, 34
1, 88888, Note_on_c, 0, 67, 0
1, 88893, Note_on_c, 0, 71, 0
1, 88917, Note_on_c, 0, 79, 0
1, 89152, Note_on_c, 0, 67, 59
1, 89378, Note_on_c, 0, 51, 54
1, 89383, Note_on_c, 0, 48, 56
1, 89623, Note_on_c, 0, 63, 65
1, 89647, Note_on_c, 0, 67, 0
1, 89743, Note_on_c, 0, 63, 0
1, 89872, Note_on_c, 0, 60, 78
1, 90088, Note_on_c, 0, 48, 0
1, 90108, Note_on_c, 0, 51, 0
1, 90108, Note_on_c, 0, 50, 48
1, 90108, Note_on_c, 0, 53, 70
1, 90319, Note_on_c, 0, 60, 0
1, 90328, Note_on_c, 0, 59, 70
1, 90516, Note_on_c, 0, 50, 0
1, 90535, Note_on_c, 0, 59, 0
1, 90588, Note_on_c, 0, 68, 73
1, 90592, Note_on_c, 0, 53, 0
1, 90818, Note_on_c, 0, 50, 62
1, 90832, Note_on_c, 0, 47, 50
1, 91058, Note_on_c, 0, 67, 67
1, 91063, Note_on_c, 0, 68, 0
1, 91284, Note_on_c, 0, 67, 0
1, 91341, Note_on_c, 0, 65, 69
1, 91519, Note_on_c, 0, 50, 0
1, 91548, Note_on_c, 0, 47, 0
1, 91581, Note_on_c, 0, 49, 51
1, 91581, Note_on_c, 0, 46, 56
1, 91821, Note_on_c, 0, 65, 0
1, 91821, Note_on_c, 0, 64, 69
1, 91864, Note_on_c, 0, 46, 0
1, 91864, Note_on_c, 0, 49, 0
1, 91941, Note_on_c, 0, 64, 0
1, 92071, Note_on_c, 0, 73, 86
1, 92316, Note_on_c, 0, 52, 65
1, 92316, Note_on_c, 0, 55, 71
1, 92565, Note_on_c, 0, 72, 88
1, 92613, Note_on_c, 0, 73, 0
1, 92805, Note_on_c, 0, 70, 94
1, 92820, Note_on_c, 0, 60, 69
1, 92844, Note_on_c, 0, 55, 0
1, 92853, Note_on_c, 0, 52, 0
1, 92863, Note_on_c, 0, 72, 0
1, 93060, Note_on_c, 0, 68, 82
1, 93084, Note_on_c, 0, 53, 68
1, 93112, Note_on_c, 0, 70, 0
1, 93290, Note_on_c, 0, 53, 0
1, 93295, Note_on_c, 0, 68, 0
1, 93300, Note_on_c, 0, 67, 83
1, 93304, Note_on_c, 0, 55, 63
1, 93487, Note_on_c, 0, 60, 0
1, 93525, Note_on_c, 0, 55, 0
1, 93540, Note_on_c, 0, 56, 65
1, 93540, Note_on_c, 0, 66, 77
1, 93559, Note_on_c, 0, 67, 0
1, 93756, Note_on_c, 0, 56, 0
1, 93799, Note_on_c, 0, 67, 79
1, 93804, Note_on_c, 0, 66, 0
1, 93804, Note_on_c, 0, 55, 63
1, 93976, Note_on_c, 0, 55, 0
1, 94010, Note_on_c, 0, 63, 73
1, 94015, Note_on_c, 0, 67, 0
1, 94024, Note_on_c, 0, 60, 63
1, 94072, Note_on_c, 0, 60, 0
1, 94120, Note_on_c, 0, 63, 0
1, 94274, Note_on_c, 0, 53, 65
1, 94274, Note_on_c, 0, 62, 64
1, 94274, Note_on_c, 0, 43, 69
1, 94274, Note_on_c, 0, 59, 56
1, 94317, Note_on_c, 0, 43, 0
1, 94327, Note_on_c, 0, 53, 0
1, 94332, Note_on_c, 0, 59, 0
1, 94332, Note_on_c, 0, 62, 0
1, 94563, Note_on_c, 0, 48, 67
1, 94563, Note_on_c, 0, 60, 80
1, 94567, Note_on_c, 0, 51, 76
1, 94602, Note_on_c, 0, 48, 0
1, 94615, Note_on_c, 0, 51, 0
1, 94630, Note_on_c, 0, 60, 0
1, 95151, Note_on_c, 0, 77, 88
1, 95199, Note_on_c, 0, 75, 76
1, 95237, Note_on_c, 0, 77, 0
1, 95261, Note_on_c, 0, 74, 72
1, 95309, Note_on_c, 0, 72, 85
1, 95324, Note_on_c, 0, 75, 0
1, 95328, Note_on_c, 0, 74, 0
1, 95391, Note_on_c, 0, 62, 75
1, 95391, Note_on_c, 0, 79, 109
1, 95396, Note_on_c, 0, 59, 69
1, 95448, Note_on_c, 0, 72, 0
1, 95453, Note_on_c, 0, 62, 0
1, 95492, Note_on_c, 0, 79, 0
1, 95501, Note_on_c, 0, 59, 0
1, 95511, Note_on_c, 0, 55, 76
1, 95640, Note_on_c, 0, 79, 103
1, 95650, Note_on_c, 0, 67, 63
1, 95650, Note_on_c, 0, 63, 75
1, 95655, Note_on_c, 0, 55, 0
1, 95664, Note_on_c, 0, 60, 70
1, 95674, Note_on_c, 0, 79, 0
1, 95693, Note_on_c, 0, 67, 0
1, 95712, Note_on_c, 0, 60, 0
1, 95727, Note_on_c, 0, 63, 0
1, 95756, Note_on_c, 0, 55, 57
1, 95871, Note_on_c, 0, 79, 102
1, 95871, Note_on_c, 0, 67, 89
1, 95880, Note_on_c, 0, 55, 0
1, 95890, Note_on_c, 0, 65, 76
1, 95904, Note_on_c, 0, 62, 59
1, 95919, Note_on_c, 0, 67, 0
1, 95924, Note_on_c, 0, 79, 0
1, 95943, Note_on_c, 0, 65, 0
1, 95952, Note_on_c, 0, 62, 0
1, 96010, Note_on_c, 0, 55, 66
1, 96125, Note_on_c, 0, 55, 0
1, 96125, Note_on_c, 0, 79, 114
1, 96135, Note_on_c, 0, 67, 99
1, 96144, Note_on_c, 0, 63, 79
1, 96164, Note_on_c, 0, 60, 69
1, 96212, Note_on_c, 0, 63, 0
1, 96216, Note_on_c, 0, 60, 0
1, 96274, Note_on_c, 0, 55, 71
1, 96384, Note_on_c, 0, 63, 69
1, 96389, Note_on_c, 0, 67, 0
1, 96404, Note_on_c, 0, 55, 0
1, 96404, Note_on_c, 0, 60, 69
1, 96447, Note_on_c, 0, 63, 0
1, 96466, Note_on_c, 0, 60, 0
1, 96500, Note_on_c, 0, 55, 62
1, 96629, Note_on_c, 0, 79, 0
1, 96634, Note_on_c, 0, 55, 0
1, 96634, Note_on_c, 0, 63, 74
1, 96639, Note_on_c, 0, 77, 97
1, 96644, Note_on_c, 0, 60, 65
1, 96677, Note_on_c, 0, 75, 87
1, 96692, Note_on_c, 0, 63, 0
1, 96725, Note_on_c, 0, 60, 0
1, 96749, Note_on_c, 0, 77, 0
1, 96749, Note_on_c, 0, 55, 55
1, 96749, Note_on_c, 0, 74, 94
1, 96802, Note_on_c, 0, 75, 0
1, 96812, Note_on_c, 0, 72, 93
1, 96855, Note_on_c, 0, 74, 0
1, 96874, Note_on_c, 0, 62, 80
1, 96879, Note_on_c, 0, 55, 0
1, 96884, Note_on_c, 0, 59, 73
1, 96893, Note_on_c, 0, 79, 108
1, 96927, Note_on_c, 0, 72, 0
1, 96975, Note_on_c, 0, 79, 0
1, 96980, Note_on_c, 0, 62, 0
1, 97004, Note_on_c, 0, 55, 75
1, 97013, Note_on_c, 0, 59, 0
1, 97128, Note_on_c, 0, 79, 102
1, 97138, Note_on_c, 0, 63, 79
1, 97143, Note_on_c, 0, 55, 0
1, 97143, Note_on_c, 0, 67, 71
1, 97152, Note_on_c, 0, 60, 71
1, 97167, Note_on_c, 0, 79, 0
1, 97186, Note_on_c, 0, 67, 0
1, 97210, Note_on_c, 0, 60, 0
1, 97253, Note_on_c, 0, 63, 0
1, 97272, Note_on_c, 0, 55, 63
1, 97373, Note_on_c, 0, 79, 108
1, 97378, Note_on_c, 0, 67, 92
1, 97383, Note_on_c, 0, 65, 75
1, 97389, Note_on_c, 0, 62, 66
1, 97397, Note_on_c, 0, 55, 0
1, 97407, Note_on_c, 0, 79, 0
1, 97416, Note_on_c, 0, 67, 0
1, 97432, Note_on_c, 0, 62, 0
1, 97436, Note_on_c, 0, 65, 0
1, 97512, Note_on_c, 0, 55, 74
1, 97632, Note_on_c, 0, 79, 117
1, 97637, Note_on_c, 0, 67, 105
1, 97647, Note_on_c, 0, 63, 89
1, 97666, Note_on_c, 0, 55, 0
1, 97666, Note_on_c, 0, 60, 73
1, 97719, Note_on_c, 0, 60, 0
1, 97743, Note_on_c, 0, 63, 0
1, 97757, Note_on_c, 0, 55, 76
1, 97887, Note_on_c, 0, 63, 86
1, 97911, Note_on_c, 0, 55, 0
1, 97911, Note_on_c, 0, 60, 74
1, 97916, Note_on_c, 0, 67, 0
1, 97949, Note_on_c, 0, 63, 0
1, 98007, Note_on_c, 0, 60, 0
1, 98012, Note_on_c, 0, 55, 64
1, 98112, Note_on_c, 0, 79, 0
1, 98122, Note_on_c, 0, 77, 90
1, 98136, Note_on_c, 0, 63, 69
1, 98146, Note_on_c, 0, 55, 0
1, 98151, Note_on_c, 0, 60, 64
1, 98170, Note_on_c, 0, 75, 84
1, 98180, Note_on_c, 0, 63, 0
1, 98223, Note_on_c, 0, 77, 0
1, 98242, Note_on_c, 0, 74, 97
1, 98252, Note_on_c, 0, 60, 0
1, 98256, Note_on_c, 0, 55, 54
1, 98280, Note_on_c, 0, 75, 0
1, 98290, Note_on_c, 0, 74, 0
1, 98295, Note_on_c, 0, 72, 89
1, 98314, Note_on_c, 0, 55, 0
1, 98328, Note_on_c, 0, 72, 0
1, 98396, Note_on_c, 0, 71, 83
1, 98405, Note_on_c, 0, 74, 103
1, 98415, Note_on_c, 0, 80, 110
1, 98559, Note_on_c, 0, 71, 0
1, 98636, Note_on_c, 0, 74, 0
1, 98650, Note_on_c, 0, 53, 107
1, 98655, Note_on_c, 0, 41, 105
1, 98660, Note_on_c, 0, 80, 0
1, 98688, Note_on_c, 0, 41, 0
1, 98756, Note_on_c, 0, 53, 0
1, 98919, Note_on_c, 0, 65, 109
1, 98919, Note_on_c, 0, 53, 101
1, 99063, Note_on_c, 0, 65, 0
1, 99111, Note_on_c, 0, 53, 0
1, 99140, Note_on_c, 0, 72, 95
1, 99164, Note_on_c, 0, 75, 96
1, 99173, Note_on_c, 0, 79, 112
1, 99413, Note_on_c, 0, 51, 103
1, 99418, Note_on_c, 0, 39, 99
1, 99452, Note_on_c, 0, 39, 0
1, 99495, Note_on_c, 0, 51, 0
1, 99533, Note_on_c, 0, 79, 0
1, 99562, Note_on_c, 0, 75, 0
1, 99567, Note_on_c, 0, 72, 0
1, 99658, Note_on_c, 0, 63, 106
1, 99668, Note_on_c, 0, 51, 101
1, 99706, Note_on_c, 0, 51, 0
1, 99725, Note_on_c, 0, 63, 0
1, 99917, Note_on_c, 0, 62, 110
1, 99922, Note_on_c, 0, 50, 109
1, 100080, Note_on_c, 0, 50, 0
1, 100090, Note_on_c, 0, 62, 0
1, 100143, Note_on_c, 0, 74, 95
1, 100162, Note_on_c, 0, 77, 105
1, 100176, Note_on_c, 0, 83, 100
1, 100200, Note_on_c, 0, 77, 0
1, 100224, Note_on_c, 0, 74, 0
1, 100282, Note_on_c, 0, 83, 0
1, 100392, Note_on_c, 0, 77, 104
1, 100421, Note_on_c, 0, 83, 74
1, 100431, Note_on_c, 0, 86, 106
1, 100474, Note_on_c, 0, 77, 0
1, 100508, Note_on_c, 0, 83, 0
1, 100541, Note_on_c, 0, 86, 0
1, 100690, Note_on_c, 0, 79, 101
1, 100704, Note_on_c, 0, 86, 105
1, 100714, Note_on_c, 0, 59, 81
1, 100714, Note_on_c, 0, 47, 73
1, 100719, Note_on_c, 0, 89, 115
1, 100762, Note_on_c, 0, 79, 0
1, 100762, Note_on_c, 0, 47, 0
1, 100767, Note_on_c, 0, 59, 0
1, 100800, Note_on_c, 0, 86, 0
1, 100810, Note_on_c, 0, 89, 0
1, 102437, Note_on_c, 0, 75, 59
1, 103320, Note_on_c, 0, 66, 57
1, 103330, Note_on_c, 0, 60, 26
1, 103330, Note_on_c, 0, 63, 28
1, 103445, Note_on_c, 0, 75, 0
1, 103723, Note_on_c, 0, 60, 0
1, 103824, Note_on_c, 0, 63, 0
1, 103973, Note_on_c, 0, 66, 0
1, 104152, Note_on_c, 0, 65, 49
1, 104156, Note_on_c, 0, 62, 17
1, 104158, Note_on_c, 0, 59, 40
1, 104160, Note_on_c, 0, 67, 63
1, 104506, Note_on_c, 0, 62, 0
1, 104522, Note_on_c, 0, 59, 0
1, 104549, Note_on_c, 0, 67, 0
1, 104550, Note_on_c, 0, 65, 0
1, 104564, Note_on_c, 0, 68, 64
1, 104640, Note_on_c, 0, 68, 0
1, 104674, Note_on_c, 0, 63, 54
1, 104679, Note_on_c, 0, 67, 62
1, 104684, Note_on_c, 0, 60, 48
1, 104722, Note_on_c, 0, 63, 0
1, 104722, Note_on_c, 0, 67, 0
1, 104732, Note_on_c, 0, 60, 0
1, 104967, Note_on_c, 0, 63, 62
1, 104967, Note_on_c, 0, 67, 73
1, 104976, Note_on_c, 0, 53, 58
1, 105034, Note_on_c, 0, 63, 0
1, 105077, Note_on_c, 0, 53, 0
1, 105077, Note_on_c, 0, 67, 0
1, 105087, Note_on_c, 0, 65, 68
1, 105096, Note_on_c, 0, 62, 55
1, 105144, Note_on_c, 0, 65, 0
1, 105154, Note_on_c, 0, 62, 0
1, 105216, Note_on_c, 0, 60, 60
1, 105216, Note_on_c, 0, 63, 69
1, 105221, Note_on_c, 0, 55, 67
1, 105264, Note_on_c, 0, 63, 0
1, 105269, Note_on_c, 0, 55, 0
1, 105279, Note_on_c, 0, 60, 0
1, 105500, Note_on_c, 0, 43, 49
1, 105500, Note_on_c, 0, 62, 52
1, 105509, Note_on_c, 0, 59, 27
1, 105567, Note_on_c, 0, 43, 0
1, 105567, Note_on_c, 0, 62, 0
1, 105572, Note_on_c, 0, 59, 0
1, 105831, Note_on_c, 0, 60, 45
1, 105864, Note_on_c, 0, 48, 28
1, 105951, Note_on_c, 0, 48, 0
1, 105975, Note_on_c, 0, 60, 0
1, 106373, Note_on_c, 0, 77, 93
1, 106440, Note_on_c, 0, 75, 74
1, 106460, Note_on_c, 0, 77, 0
1, 106503, Note_on_c, 0, 74, 94
1, 106536, Note_on_c, 0, 75, 0
1, 106541, Note_on_c, 0, 74, 0
1, 106570, Note_on_c, 0, 72, 84
1, 106623, Note_on_c, 0, 62, 72
1, 106628, Note_on_c, 0, 59, 70
1, 106637, Note_on_c, 0, 79, 111
1, 106700, Note_on_c, 0, 72, 0
1, 106704, Note_on_c, 0, 62, 0
1, 106738, Note_on_c, 0, 79, 0
1, 106738, Note_on_c, 0, 55, 82
1, 106752, Note_on_c, 0, 59, 0
1, 106868, Note_on_c, 0, 55, 0
1, 106872, Note_on_c, 0, 67, 90
1, 106877, Note_on_c, 0, 79, 106
1, 106882, Note_on_c, 0, 60, 70
1, 106882, Note_on_c, 0, 63, 73
1, 106920, Note_on_c, 0, 67, 0
1, 106925, Note_on_c, 0, 79, 0
1, 106940, Note_on_c, 0, 60, 0
1, 106964, Note_on_c, 0, 63, 0
1, 106978, Note_on_c, 0, 55, 71
1, 107108, Note_on_c, 0, 55, 0
1, 107122, Note_on_c, 0, 79, 110
1, 107127, Note_on_c, 0, 65, 78
1, 107132, Note_on_c, 0, 67, 98
1, 107141, Note_on_c, 0, 62, 74
1, 107160, Note_on_c, 0, 79, 0
1, 107170, Note_on_c, 0, 67, 0
1, 107175, Note_on_c, 0, 65, 0
1, 107208, Note_on_c, 0, 62, 0
1, 107232, Note_on_c, 0, 55, 71
1, 107376, Note_on_c, 0, 63, 82
1, 107381, Note_on_c, 0, 79, 117
1, 107386, Note_on_c, 0, 67, 106
1, 107400, Note_on_c, 0, 55, 0
1, 107405, Note_on_c, 0, 60, 63
1, 107448, Note_on_c, 0, 63, 0
1, 107463, Note_on_c, 0, 60, 0
1, 107482, Note_on_c, 0, 55, 74
1, 107607, Note_on_c, 0, 67, 0
1, 107616, Note_on_c, 0, 63, 76
1, 107631, Note_on_c, 0, 60, 71
1, 107636, Note_on_c, 0, 55, 0
1, 107708, Note_on_c, 0, 63, 0
1, 107727, Note_on_c, 0, 60, 0
1, 107727, Note_on_c, 0, 55, 72
1, 107871, Note_on_c, 0, 63, 73
1, 107876, Note_on_c, 0, 55, 0
1, 107880, Note_on_c, 0, 60, 76
1, 107880, Note_on_c, 0, 77, 101
1, 107904, Note_on_c, 0, 79, 0
1, 107919, Note_on_c, 0, 63, 0
1, 107928, Note_on_c, 0, 75, 87
1, 107947, Note_on_c, 0, 60, 0
1, 107981, Note_on_c, 0, 55, 66
1, 107991, Note_on_c, 0, 74, 94
1, 108000, Note_on_c, 0, 77, 0
1, 108044, Note_on_c, 0, 75, 0
1, 108053, Note_on_c, 0, 72, 106
1, 108082, Note_on_c, 0, 74, 0
1, 108111, Note_on_c, 0, 62, 83
1, 108120, Note_on_c, 0, 59, 77
1, 108130, Note_on_c, 0, 55, 0
1, 108130, Note_on_c, 0, 79, 112
1, 108202, Note_on_c, 0, 72, 0
1, 108231, Note_on_c, 0, 62, 0
1, 108231, Note_on_c, 0, 55, 75
1, 108250, Note_on_c, 0, 79, 0
1, 108250, Note_on_c, 0, 59, 0
1, 108370, Note_on_c, 0, 63, 81
1, 108380, Note_on_c, 0, 60, 77
1, 108380, Note_on_c, 0, 79, 107
1, 108380, Note_on_c, 0, 67, 98
1, 108384, Note_on_c, 0, 55, 0
1, 108423, Note_on_c, 0, 67, 0
1, 108442, Note_on_c, 0, 79, 0
1, 108471, Note_on_c, 0, 60, 0
1, 108476, Note_on_c, 0, 55, 71
1, 108480, Note_on_c, 0, 63, 0
1, 108624, Note_on_c, 0, 55, 0
1, 108624, Note_on_c, 0, 65, 87
1, 108624, Note_on_c, 0, 79, 111
1, 108629, Note_on_c, 0, 67, 105
1, 108634, Note_on_c, 0, 62, 84
1, 108663, Note_on_c, 0, 79, 0
1, 108663, Note_on_c, 0, 67, 0
1, 108706, Note_on_c, 0, 65, 0
1, 108740, Note_on_c, 0, 55, 78
1, 108744, Note_on_c, 0, 62, 0
1, 108884, Note_on_c, 0, 79, 117
1, 108884, Note_on_c, 0, 67, 110
1, 108888, Note_on_c, 0, 63, 92
1, 108903, Note_on_c, 0, 60, 66
1, 108917, Note_on_c, 0, 55, 0
1, 108999, Note_on_c, 0, 60, 0
1, 108999, Note_on_c, 0, 63, 0
1, 108999, Note_on_c, 0, 55, 81
1, 109138, Note_on_c, 0, 63, 75
1, 109157, Note_on_c, 0, 60, 67
1, 109167, Note_on_c, 0, 55, 0
1, 109181, Note_on_c, 0, 67, 0
1, 109215, Note_on_c, 0, 63, 0
1, 109248, Note_on_c, 0, 60, 0
1, 109248, Note_on_c, 0, 55, 76
1, 109349, Note_on_c, 0, 79, 0
1, 109378, Note_on_c, 0, 77, 95
1, 109383, Note_on_c, 0, 63, 76
1, 109397, Note_on_c, 0, 55, 0
1, 109407, Note_on_c, 0, 60, 74
1, 109431, Note_on_c, 0, 75, 84
1, 109450, Note_on_c, 0, 63, 0
1, 109488, Note_on_c, 0, 77, 0
1, 109498, Note_on_c, 0, 74, 98
1, 109532, Note_on_c, 0, 55, 54
1, 109536, Note_on_c, 0, 75, 0
1, 109541, Note_on_c, 0, 74, 0
1, 109546, Note_on_c, 0, 72, 88
1, 109551, Note_on_c, 0, 60, 0
1, 109584, Note_on_c, 0, 72, 0
1, 109637, Note_on_c, 0, 71, 96
1, 109656, Note_on_c, 0, 74, 98
1, 109666, Note_on_c, 0, 55, 0
1, 109671, Note_on_c, 0, 80, 108
1, 109863, Note_on_c, 0, 74, 0
1, 109906, Note_on_c, 0, 53, 106
1, 109906, Note_on_c, 0, 41, 106
1, 109916, Note_on_c, 0, 71, 0
1, 109935, Note_on_c, 0, 41, 0
1, 109959, Note_on_c, 0, 53, 0
1, 110016, Note_on_c, 0, 80, 0
1, 110175, Note_on_c, 0, 65, 110
1, 110180, Note_on_c, 0, 53, 103
1, 110295, Note_on_c, 0, 65, 0
1, 110357, Note_on_c, 0, 53, 0
1, 110405, Note_on_c, 0, 72, 93
1, 110434, Note_on_c, 0, 75, 100
1, 110439, Note_on_c, 0, 79, 113
1, 110698, Note_on_c, 0, 51, 106
1, 110698, Note_on_c, 0, 39, 102
1, 110732, Note_on_c, 0, 39, 0
1, 110746, Note_on_c, 0, 51, 0
1, 110914, Note_on_c, 0, 79, 0
1, 110928, Note_on_c, 0, 63, 106
1, 110933, Note_on_c, 0, 51, 103
1, 110972, Note_on_c, 0, 51, 0
1, 110986, Note_on_c, 0, 63, 0
1, 111044, Note_on_c, 0, 72, 0
1, 111125, Note_on_c, 0, 75, 0
1, 111192, Note_on_c, 0, 62, 110
1, 111197, Note_on_c, 0, 50, 110
1, 111370, Note_on_c, 0, 50, 0
1, 111384, Note_on_c, 0, 62, 0
1, 111418, Note_on_c, 0, 74, 90
1, 111437, Note_on_c, 0, 77, 106
1, 111456, Note_on_c, 0, 83, 103
1, 111500, Note_on_c, 0, 74, 0
1, 111514, Note_on_c, 0, 77, 0
1, 111557, Note_on_c, 0, 83, 0
1, 111677, Note_on_c, 0, 77, 103
1, 111687, Note_on_c, 0, 83, 99
1, 111706, Note_on_c, 0, 86, 110
1, 111778, Note_on_c, 0, 77, 0
1, 111792, Note_on_c, 0, 83, 0
1, 111821, Note_on_c, 0, 86, 0
1, 111994, Note_on_c, 0, 79, 107
1, 111999, Note_on_c, 0, 86, 110
1, 112004, Note_on_c, 0, 89, 115
1, 112008, Note_on_c, 0, 59, 88
1, 112008, Note_on_c, 0, 47, 76
1, 112042, Note_on_c, 0, 47, 0
1, 112056, Note_on_c, 0, 59, 0
1, 112066, Note_on_c, 0, 79, 0
1, 112104, Note_on_c, 0, 86, 0
1, 112124, Note_on_c, 0, 89, 0
1, 113693, Note_on_c, 0, 61, 106
1, 113698, Note_on_c, 0, 49, 103
1, 113871, Note_on_c, 0, 61, 0
1, 113895, Note_on_c, 0, 49, 0
1, 114000, Note_on_c, 0, 76, 105
1, 114005, Note_on_c, 0, 70, 103
1, 114005, Note_on_c, 0, 67, 102
1, 114015, Note_on_c, 0, 58, 107
1, 114020, Note_on_c, 0, 46, 108
1, 114039, Note_on_c, 0, 67, 0
1, 114044, Note_on_c, 0, 70, 0
1, 114048, Note_on_c, 0, 76, 0
1, 114120, Note_on_c, 0, 58, 0
1, 114159, Note_on_c, 0, 46, 0
1, 114341, Note_on_c, 0, 70, 108
1, 114341, Note_on_c, 0, 79, 110
1, 114351, Note_on_c, 0, 55, 104
1, 114351, Note_on_c, 0, 43, 103
1, 114351, Note_on_c, 0, 76, 99
1, 114500, Note_on_c, 0, 70, 0
1, 114500, Note_on_c, 0, 55, 0
1, 114509, Note_on_c, 0, 76, 0
1, 114519, Note_on_c, 0, 79, 0
1, 114596, Note_on_c, 0, 43, 0
1, 114740, Note_on_c, 0, 82, 114
1, 114740, Note_on_c, 0, 73, 99
1, 114744, Note_on_c, 0, 79, 103
1, 114754, Note_on_c, 0, 40, 108
1, 114754, Note_on_c, 0, 52, 100
1, 114989, Note_on_c, 0, 52, 0
1, 115013, Note_on_c, 0, 73, 0
1, 115085, Note_on_c, 0, 40, 0
1, 115090, Note_on_c, 0, 79, 0
1, 115109, Note_on_c, 0, 82, 0
1, 117260, Note_on_c, 0, 53, 28
1, 117490, Note_on_c, 0, 56, 38
1, 117600, Note_on_c, 0, 53, 0
1, 117740, Note_on_c, 0, 60, 40
1, 117778, Note_on_c, 0, 56, 0
1, 117984, Note_on_c, 0, 60, 0
1, 117994, Note_on_c, 0, 52, 38
1, 118239, Note_on_c, 0, 55, 39
1, 118407, Note_on_c, 0, 52, 0
1, 118440, Note_on_c, 0, 55, 0
1, 118469, Note_on_c, 0, 58, 53
1, 118580, Note_on_c, 0, 58, 0
1, 118695, Note_on_c, 0, 72, 84
1, 118733, Note_on_c, 0, 53, 34
1, 118930, Note_on_c, 0, 56, 52
1, 119103, Note_on_c, 0, 72, 0
1, 119127, Note_on_c, 0, 53, 0
1, 119141, Note_on_c, 0, 56, 0
1, 119184, Note_on_c, 0, 60, 51
1, 119386, Note_on_c, 0, 60, 0
1, 119429, Note_on_c, 0, 72, 85
1, 119439, Note_on_c, 0, 52, 23
1, 119674, Note_on_c, 0, 55, 45
1, 119736, Note_on_c, 0, 72, 0
1, 119823, Note_on_c, 0, 55, 0
1, 119832, Note_on_c, 0, 52, 0
1, 119876, Note_on_c, 0, 58, 58
1, 119976, Note_on_c, 0, 72, 64
1, 120024, Note_on_c, 0, 58, 0
1, 120039, Note_on_c, 0, 72, 0
1, 120154, Note_on_c, 0, 53, 34
1, 120173, Note_on_c, 0, 73, 58
1, 120404, Note_on_c, 0, 56, 43
1, 120663, Note_on_c, 0, 60, 31
1, 120682, Note_on_c, 0, 56, 0
1, 120716, Note_on_c, 0, 72, 45
1, 120720, Note_on_c, 0, 73, 0
1, 120720, Note_on_c, 0, 53, 0
1, 120759, Note_on_c, 0, 60, 0
1, 120893, Note_on_c, 0, 52, 41
1, 121018, Note_on_c, 0, 72, 0
1, 121133, Note_on_c, 0, 55, 32
1, 121172, Note_on_c, 0, 52, 0
1, 121320, Note_on_c, 0, 55, 0
1, 121349, Note_on_c, 0, 58, 41
1, 121416, Note_on_c, 0, 84, 71
1, 121464, Note_on_c, 0, 58, 0
1, 121498, Note_on_c, 0, 84, 0
1, 121608, Note_on_c, 0, 85, 65
1, 121618, Note_on_c, 0, 53, 29
1, 121839, Note_on_c, 0, 56, 41
1, 122084, Note_on_c, 0, 60, 44
1, 122170, Note_on_c, 0, 60, 0
1, 122208, Note_on_c, 0, 84, 34
1, 122218, Note_on_c, 0, 53, 0
1, 122228, Note_on_c, 0, 85, 0
1, 122228, Note_on_c, 0, 56, 0
1, 122372, Note_on_c, 0, 51, 31
1, 122516, Note_on_c, 0, 84, 0
1, 122578, Note_on_c, 0, 55, 46
1, 122688, Note_on_c, 0, 55, 0
1, 122746, Note_on_c, 0, 51, 0
1, 122794, Note_on_c, 0, 60, 52
1, 122847, Note_on_c, 0, 60, 0
1, 123044, Note_on_c, 0, 62, 97
1, 123053, Note_on_c, 0, 50, 88
1, 123072, Note_on_c, 0, 62, 0
1, 123087, Note_on_c, 0, 50, 0
1, 123322, Note_on_c, 0, 78, 109
1, 123322, Note_on_c, 0, 72, 111
1, 123322, Note_on_c, 0, 69, 111
1, 123327, Note_on_c, 0, 60, 108
1, 123327, Note_on_c, 0, 48, 104
1, 123399, Note_on_c, 0, 60, 0
1, 123404, Note_on_c, 0, 72, 0
1, 123404, Note_on_c, 0, 69, 0
1, 123418, Note_on_c, 0, 48, 0
1, 123476, Note_on_c, 0, 78, 0
1, 123581, Note_on_c, 0, 81, 114
1, 123586, Note_on_c, 0, 72, 108
1, 123586, Note_on_c, 0, 57, 103
1, 123591, Note_on_c, 0, 45, 110
1, 123592, Note_on_c, 0, 78, 106
1, 123629, Note_on_c, 0, 45, 0
1, 123648, Note_on_c, 0, 57, 0
1, 123682, Note_on_c, 0, 81, 0
1, 123697, Note_on_c, 0, 78, 0
1, 123725, Note_on_c, 0, 72, 0
1, 123898, Note_on_c, 0, 54, 106
1, 123898, Note_on_c, 0, 84, 119
1, 123898, Note_on_c, 0, 42, 103
1, 123903, Note_on_c, 0, 75, 111
1, 123903, Note_on_c, 0, 81, 110
1, 123941, Note_on_c, 0, 42, 0
1, 123951, Note_on_c, 0, 54, 0
1, 124205, Note_on_c, 0, 75, 0
1, 124296, Note_on_c, 0, 84, 0
1, 124301, Note_on_c, 0, 81, 0
1, 125732, Note_on_c, 0, 55, 20
1, 125972, Note_on_c, 0, 58, 50
1, 126236, Note_on_c, 0, 62, 36
1, 126298, Note_on_c, 0, 58, 0
1, 126442, Note_on_c, 0, 55, 0
1, 126471, Note_on_c, 0, 54, 40
1, 126485, Note_on_c, 0, 62, 0
1, 126716, Note_on_c, 0, 57, 39
1, 126946, Note_on_c, 0, 54, 0
1, 126960, Note_on_c, 0, 60, 48
1, 126975, Note_on_c, 0, 57, 0
1, 127268, Note_on_c, 0, 74, 80
1, 127282, Note_on_c, 0, 60, 0
1, 127292, Note_on_c, 0, 55, 34
1, 127556, Note_on_c, 0, 58, 50
1, 127671, Note_on_c, 0, 74, 0
1, 127815, Note_on_c, 0, 62, 35
1, 127839, Note_on_c, 0, 58, 0
1, 127882, Note_on_c, 0, 55, 0
1, 127992, Note_on_c, 0, 62, 0
1, 128084, Note_on_c, 0, 54, 25
1, 128088, Note_on_c, 0, 74, 67
1, 128352, Note_on_c, 0, 57, 44
1, 128410, Note_on_c, 0, 74, 0
1, 128544, Note_on_c, 0, 57, 0
1, 128568, Note_on_c, 0, 60, 40
1, 128616, Note_on_c, 0, 74, 89
1, 128660, Note_on_c, 0, 54, 0
1, 128775, Note_on_c, 0, 60, 0
1, 128823, Note_on_c, 0, 75, 67
1, 128842, Note_on_c, 0, 55, 34
1, 128852, Note_on_c, 0, 74, 0
1, 129092, Note_on_c, 0, 58, 57
1, 129332, Note_on_c, 0, 58, 0
1, 129360, Note_on_c, 0, 74, 43
1, 129365, Note_on_c, 0, 62, 25
1, 129394, Note_on_c, 0, 75, 0
1, 129466, Note_on_c, 0, 55, 0
1, 129557, Note_on_c, 0, 54, 40
1, 129572, Note_on_c, 0, 62, 0
1, 129778, Note_on_c, 0, 74, 0
1, 129821, Note_on_c, 0, 57, 46
1, 130028, Note_on_c, 0, 57, 0
1, 130042, Note_on_c, 0, 60, 53
1, 130100, Note_on_c, 0, 86, 98
1, 130234, Note_on_c, 0, 54, 0
1, 130244, Note_on_c, 0, 60, 0
1, 130301, Note_on_c, 0, 87, 91
1, 130325, Note_on_c, 0, 55, 32
1, 130330, Note_on_c, 0, 86, 0
1, 130570, Note_on_c, 0, 58, 54
1, 130776, Note_on_c, 0, 55, 0
1, 130839, Note_on_c, 0, 62, 38
1, 130872, Note_on_c, 0, 58, 0
1, 130920, Note_on_c, 0, 86, 61
1, 130930, Note_on_c, 0, 87, 0
1, 131021, Note_on_c, 0, 62, 0
1, 131108, Note_on_c, 0, 55, 59
1, 131132, Note_on_c, 0, 86, 0
1, 131314, Note_on_c, 0, 59, 76
1, 131520, Note_on_c, 0, 62, 83
1, 131530, Note_on_c, 0, 59, 0
1, 131573, Note_on_c, 0, 79, 118
1, 131583, Note_on_c, 0, 67, 106
1, 131650, Note_on_c, 0, 62, 0
1, 131679, Note_on_c, 0, 67, 0
1, 131708, Note_on_c, 0, 79, 0
1, 131784, Note_on_c, 0, 80, 113
1, 131789, Note_on_c, 0, 68, 44
1, 131799, Note_on_c, 0, 65, 87
1, 131810, Note_on_c, 0, 62, 51
1, 131813, Note_on_c, 0, 55, 0
1, 131813, Note_on_c, 0, 59, 61
1, 133230, Note_on_c, 0, 68, 0
1, 133388, Note_on_c, 0, 80, 0
1, 133407, Note_on_c, 0, 79, 55
1, 133436, Note_on_c, 0, 67, 29
1, 133716, Note_on_c, 0, 62, 0
1, 133743, Note_on_c, 0, 65, 0
1, 133772, Note_on_c, 0, 67, 0
1, 133776, Note_on_c, 0, 59, 0
1, 133776, Note_on_c, 0, 79, 0
1, 135010, Note_on_c, 0, 48, 46
1, 135149, Note_on_c, 0, 51, 52
1, 135216, Note_on_c, 0, 51, 0
1, 135260, Note_on_c, 0, 48, 0
1, 135260, Note_on_c, 0, 55, 42
1, 135341, Note_on_c, 0, 55, 0
1, 135370, Note_on_c, 0, 51, 40
1, 135432, Note_on_c, 0, 51, 0
1, 135466, Note_on_c, 0, 55, 43
1, 135567, Note_on_c, 0, 55, 0
1, 135586, Note_on_c, 0, 51, 34
1, 135677, Note_on_c, 0, 51, 0
1, 135735, Note_on_c, 0, 48, 50
1, 135855, Note_on_c, 0, 51, 52
1, 135936, Note_on_c, 0, 51, 0
1, 135984, Note_on_c, 0, 48, 0
1, 135984, Note_on_c, 0, 67, 65
1, 136013, Note_on_c, 0, 55, 41
1, 136080, Note_on_c, 0, 67, 0
1, 136085, Note_on_c, 0, 55, 0
1, 136109, Note_on_c, 0, 51, 47
1, 136191, Note_on_c, 0, 51, 0
1, 136215, Note_on_c, 0, 67, 74
1, 136263, Note_on_c, 0, 55, 40
1, 136282, Note_on_c, 0, 67, 0
1, 136340, Note_on_c, 0, 55, 0
1, 136364, Note_on_c, 0, 51, 42
1, 136436, Note_on_c, 0, 51, 0
1, 136498, Note_on_c, 0, 48, 50
1, 136498, Note_on_c, 0, 67, 60
1, 136584, Note_on_c, 0, 67, 0
1, 136604, Note_on_c, 0, 68, 73
1, 136623, Note_on_c, 0, 50, 47
1, 136666, Note_on_c, 0, 67, 81
1, 136671, Note_on_c, 0, 68, 0
1, 136724, Note_on_c, 0, 67, 0
1, 136743, Note_on_c, 0, 50, 0
1, 136743, Note_on_c, 0, 66, 73
1, 136786, Note_on_c, 0, 53, 45
1, 136815, Note_on_c, 0, 67, 79
1, 136834, Note_on_c, 0, 66, 0
1, 136863, Note_on_c, 0, 53, 0
1, 136935, Note_on_c, 0, 68, 87
1, 136944, Note_on_c, 0, 50, 52
1, 136959, Note_on_c, 0, 67, 0
1, 137007, Note_on_c, 0, 50, 0
1, 137084, Note_on_c, 0, 53, 57
1, 137084, Note_on_c, 0, 67, 75
1, 137093, Note_on_c, 0, 68, 0
1, 137127, Note_on_c, 0, 48, 0
1, 137189, Note_on_c, 0, 53, 0
1, 137213, Note_on_c, 0, 50, 41
1, 137300, Note_on_c, 0, 50, 0
1, 137372, Note_on_c, 0, 77, 84
1, 137381, Note_on_c, 0, 67, 0
1, 137386, Note_on_c, 0, 48, 48
1, 137559, Note_on_c, 0, 50, 48
1, 137626, Note_on_c, 0, 50, 0
1, 137688, Note_on_c, 0, 53, 39
1, 137765, Note_on_c, 0, 53, 0
1, 137832, Note_on_c, 0, 50, 39
1, 137866, Note_on_c, 0, 48, 0
1, 137900, Note_on_c, 0, 50, 0
1, 137933, Note_on_c, 0, 71, 55
1, 137972, Note_on_c, 0, 77, 0
1, 137996, Note_on_c, 0, 53, 40
1, 138068, Note_on_c, 0, 53, 0
1, 138087, Note_on_c, 0, 50, 57
1, 138144, Note_on_c, 0, 50, 0
1, 138192, Note_on_c, 0, 74, 71
1, 138226, Note_on_c, 0, 48, 51
1, 138250, Note_on_c, 0, 71, 0
1, 138356, Note_on_c, 0, 51, 52
1, 138428, Note_on_c, 0, 51, 0
1, 138452, Note_on_c, 0, 55, 45
1, 138557, Note_on_c, 0, 55, 0
1, 138576, Note_on_c, 0, 51, 42
1, 138658, Note_on_c, 0, 51, 0
1, 138687, Note_on_c, 0, 74, 0
1, 138701, Note_on_c, 0, 72, 57
1, 138730, Note_on_c, 0, 55, 36
1, 138759, Note_on_c, 0, 48, 0
1, 138816, Note_on_c, 0, 55, 0
1, 138826, Note_on_c, 0, 51, 57
1, 138864, Note_on_c, 0, 72, 0
1, 138888, Note_on_c, 0, 51, 0
1, 138936, Note_on_c, 0, 48, 63
1, 139056, Note_on_c, 0, 51, 61
1, 139128, Note_on_c, 0, 51, 0
1, 139181, Note_on_c, 0, 79, 92
1, 139196, Note_on_c, 0, 55, 48
1, 139277, Note_on_c, 0, 55, 0
1, 139282, Note_on_c, 0, 79, 0
1, 139306, Note_on_c, 0, 51, 51
1, 139316, Note_on_c, 0, 48, 0
1, 139402, Note_on_c, 0, 51, 0
1, 139436, Note_on_c, 0, 79, 97
1, 139464, Note_on_c, 0, 55, 59
1, 139541, Note_on_c, 0, 55, 0
1, 139560, Note_on_c, 0, 51, 56
1, 139608, Note_on_c, 0, 79, 0
1, 139628, Note_on_c, 0, 51, 0
1, 139680, Note_on_c, 0, 48, 57
1, 139690, Note_on_c, 0, 78, 86
1, 139810, Note_on_c, 0, 50, 67
1, 139815, Note_on_c, 0, 79, 93
1, 139829, Note_on_c, 0, 78, 0
1, 139868, Note_on_c, 0, 50, 0
1, 139930, Note_on_c, 0, 80, 92
1, 139944, Note_on_c, 0, 79, 0
1, 139949, Note_on_c, 0, 53, 40
1, 140021, Note_on_c, 0, 53, 0
1, 140040, Note_on_c, 0, 79, 85
1, 140098, Note_on_c, 0, 80, 0
1, 140098, Note_on_c, 0, 50, 49
1, 140136, Note_on_c, 0, 48, 0
1, 140141, Note_on_c, 0, 79, 0
1, 140156, Note_on_c, 0, 50, 0
1, 140175, Note_on_c, 0, 77, 90
1, 140213, Note_on_c, 0, 53, 46
1, 140285, Note_on_c, 0, 53, 0
1, 140285, Note_on_c, 0, 75, 86
1, 140290, Note_on_c, 0, 77, 0
1, 140333, Note_on_c, 0, 50, 60
1, 140396, Note_on_c, 0, 50, 0
1, 140400, Note_on_c, 0, 74, 92
1, 140439, Note_on_c, 0, 48, 60
1, 140444, Note_on_c, 0, 75, 0
1, 140520, Note_on_c, 0, 72, 96
1, 140544, Note_on_c, 0, 74, 0
1, 140559, Note_on_c, 0, 50, 50
1, 140612, Note_on_c, 0, 50, 0
1, 140636, Note_on_c, 0, 71, 78
1, 140645, Note_on_c, 0, 72, 0
1, 140645, Note_on_c, 0, 53, 56
1, 140717, Note_on_c, 0, 53, 0
1, 140756, Note_on_c, 0, 74, 94
1, 140760, Note_on_c, 0, 50, 45
1, 140784, Note_on_c, 0, 71, 0
1, 140804, Note_on_c, 0, 48, 0
1, 140837, Note_on_c, 0, 50, 0
1, 140871, Note_on_c, 0, 74, 0
1, 140876, Note_on_c, 0, 77, 91
1, 140890, Note_on_c, 0, 53, 57
1, 140981, Note_on_c, 0, 71, 76
1, 140991, Note_on_c, 0, 77, 0
1, 140996, Note_on_c, 0, 53, 0
1, 140996, Note_on_c, 0, 50, 61
1, 141077, Note_on_c, 0, 50, 0
1, 141120, Note_on_c, 0, 71, 0
1, 141159, Note_on_c, 0, 48, 52
1, 141168, Note_on_c, 0, 74, 77
1, 141317, Note_on_c, 0, 51, 50
1, 141399, Note_on_c, 0, 51, 0
1, 141452, Note_on_c, 0, 55, 40
1, 141528, Note_on_c, 0, 55, 0
1, 141562, Note_on_c, 0, 51, 56
1, 141634, Note_on_c, 0, 51, 0
1, 141735, Note_on_c, 0, 72, 63
1, 141749, Note_on_c, 0, 55, 32
1, 141754, Note_on_c, 0, 74, 0
1, 141816, Note_on_c, 0, 55, 0
1, 141826, Note_on_c, 0, 51, 37
1, 141922, Note_on_c, 0, 48, 0
1, 141946, Note_on_c, 0, 51, 0
1, 141975, Note_on_c, 0, 46, 76
1, 141989, Note_on_c, 0, 72, 0
1, 142124, Note_on_c, 0, 52, 59
1, 142176, Note_on_c, 0, 52, 0
1, 142234, Note_on_c, 0, 72, 84
1, 142248, Note_on_c, 0, 55, 48
1, 142306, Note_on_c, 0, 55, 0
1, 142349, Note_on_c, 0, 72, 0
1, 142368, Note_on_c, 0, 52, 59
1, 142416, Note_on_c, 0, 52, 0
1, 142474, Note_on_c, 0, 72, 87
1, 142488, Note_on_c, 0, 55, 63
1, 142551, Note_on_c, 0, 55, 0
1, 142580, Note_on_c, 0, 52, 61
1, 142589, Note_on_c, 0, 72, 0
1, 142604, Note_on_c, 0, 46, 0
1, 142628, Note_on_c, 0, 52, 0
1, 142719, Note_on_c, 0, 45, 80
1, 142724, Note_on_c, 0, 72, 89
1, 142839, Note_on_c, 0, 48, 75
1, 142930, Note_on_c, 0, 48, 0
1, 142944, Note_on_c, 0, 53, 67
1, 142959, Note_on_c, 0, 72, 0
1, 142997, Note_on_c, 0, 74, 82
1, 143026, Note_on_c, 0, 53, 0
1, 143040, Note_on_c, 0, 72, 87
1, 143074, Note_on_c, 0, 48, 79
1, 143093, Note_on_c, 0, 74, 0
1, 143122, Note_on_c, 0, 71, 82
1, 143127, Note_on_c, 0, 48, 0
1, 143141, Note_on_c, 0, 72, 0
1, 143180, Note_on_c, 0, 53, 78
1, 143204, Note_on_c, 0, 72, 109
1, 143232, Note_on_c, 0, 71, 0
1, 143232, Note_on_c, 0, 53, 0
1, 143271, Note_on_c, 0, 48, 84
1, 143328, Note_on_c, 0, 48, 0
1, 143357, Note_on_c, 0, 74, 106
1, 143396, Note_on_c, 0, 72, 0
1, 143396, Note_on_c, 0, 53, 75
1, 143434, Note_on_c, 0, 45, 0
1, 143458, Note_on_c, 0, 53, 0
1, 143516, Note_on_c, 0, 44, 67
1, 143525, Note_on_c, 0, 75, 86
1, 143568, Note_on_c, 0, 74, 0
1, 143655, Note_on_c, 0, 48, 78
1, 143770, Note_on_c, 0, 51, 63
1, 143784, Note_on_c, 0, 48, 0
1, 143842, Note_on_c, 0, 51, 0
1, 143871, Note_on_c, 0, 48, 66
1, 143972, Note_on_c, 0, 48, 0
1, 144024, Note_on_c, 0, 51, 59
1, 144029, Note_on_c, 0, 75, 0
1, 144034, Note_on_c, 0, 66, 62
1, 144140, Note_on_c, 0, 51, 0
1, 144168, Note_on_c, 0, 48, 57
1, 144207, Note_on_c, 0, 44, 0
1, 144231, Note_on_c, 0, 48, 0
1, 144332, Note_on_c, 0, 66, 0
1, 144346, Note_on_c, 0, 43, 36
1, 144351, Note_on_c, 0, 67, 51
1, 144351, Note_on_c, 0, 47, 44
1, 144677, Note_on_c, 0, 67, 0
1, 144687, Note_on_c, 0, 55, 51
1, 144778, Note_on_c, 0, 47, 0
1, 144807, Note_on_c, 0, 43, 0
1, 144836, Note_on_c, 0, 67, 55
1, 144903, Note_on_c, 0, 67, 0
1, 144941, Note_on_c, 0, 66, 72
1, 145061, Note_on_c, 0, 67, 88
1, 145066, Note_on_c, 0, 66, 0
1, 145090, Note_on_c, 0, 55, 0
1, 145167, Note_on_c, 0, 67, 0
1, 145181, Note_on_c, 0, 68, 84
1, 145292, Note_on_c, 0, 68, 0
1, 145301, Note_on_c, 0, 69, 84
1, 145392, Note_on_c, 0, 69, 0
1, 145402, Note_on_c, 0, 70, 94
1, 145536, Note_on_c, 0, 71, 66
1, 145541, Note_on_c, 0, 70, 0
1, 145618, Note_on_c, 0, 56, 62
1, 145628, Note_on_c, 0, 60, 61
1, 145647, Note_on_c, 0, 71, 0
1, 145661, Note_on_c, 0, 72, 79
1, 145772, Note_on_c, 0, 66, 69
1, 145800, Note_on_c, 0, 72, 0
1, 145844, Note_on_c, 0, 66, 0
1, 145848, Note_on_c, 0, 60, 0
1, 145853, Note_on_c, 0, 56, 0
1, 145916, Note_on_c, 0, 55, 75
1, 145916, Note_on_c, 0, 59, 62
1, 145925, Note_on_c, 0, 67, 74
1, 145988, Note_on_c, 0, 67, 0
1, 145997, Note_on_c, 0, 59, 0
1, 146026, Note_on_c, 0, 55, 0
1, 146208, Note_on_c, 0, 43, 75
1, 146348, Note_on_c, 0, 55, 68
1, 146391, Note_on_c, 0, 43, 0
1, 146420, Note_on_c, 0, 55, 0
1, 146448, Note_on_c, 0, 54, 80
1, 146578, Note_on_c, 0, 55, 83
1, 146583, Note_on_c, 0, 54, 0
1, 146684, Note_on_c, 0, 55, 0
1, 146688, Note_on_c, 0, 56, 81
1, 146813, Note_on_c, 0, 56, 0
1, 146813, Note_on_c, 0, 57, 83
1, 146885, Note_on_c, 0, 57, 0
1, 146919, Note_on_c, 0, 58, 82
1, 147010, Note_on_c, 0, 58, 0
1, 147033, Note_on_c, 0, 59, 82
1, 147106, Note_on_c, 0, 59, 0
1, 147130, Note_on_c, 0, 60, 82
1, 147144, Note_on_c, 0, 44, 63
1, 147144, Note_on_c, 0, 48, 78
1, 147288, Note_on_c, 0, 54, 68
1, 147293, Note_on_c, 0, 60, 0
1, 147351, Note_on_c, 0, 44, 0
1, 147356, Note_on_c, 0, 48, 0
1, 147380, Note_on_c, 0, 54, 0
1, 147456, Note_on_c, 0, 47, 40
1, 147456, Note_on_c, 0, 43, 28
1, 147461, Note_on_c, 0, 55, 59
1, 147552, Note_on_c, 0, 47, 0
1, 147591, Note_on_c, 0, 43, 0
1, 147668, Note_on_c, 0, 55, 0
1, 147850, Note_on_c, 0, 31, 62
1, 147980, Note_on_c, 0, 78, 72
1, 148061, Note_on_c, 0, 31, 0
1, 148109, Note_on_c, 0, 79, 85
1, 148119, Note_on_c, 0, 78, 0
1, 148215, Note_on_c, 0, 78, 69
1, 148224, Note_on_c, 0, 79, 0
1, 148364, Note_on_c, 0, 78, 0
1, 148364, Note_on_c, 0, 79, 76
1, 148493, Note_on_c, 0, 79, 0
1, 148618, Note_on_c, 0, 55, 43
1, 148748, Note_on_c, 0, 66, 62
1, 148824, Note_on_c, 0, 66, 0
1, 148863, Note_on_c, 0, 55, 0
1, 148868, Note_on_c, 0, 67, 70
1, 148949, Note_on_c, 0, 67, 0
1, 148992, Note_on_c, 0, 66, 60
1, 149093, Note_on_c, 0, 66, 0
1, 149141, Note_on_c, 0, 67, 69
1, 149228, Note_on_c, 0, 67, 0
1, 149386, Note_on_c, 0, 43, 53
1, 149530, Note_on_c, 0, 54, 58
1, 149636, Note_on_c, 0, 54, 0
1, 149650, Note_on_c, 0, 43, 0
1, 149655, Note_on_c, 0, 55, 59
1, 149775, Note_on_c, 0, 54, 55
1, 149784, Note_on_c, 0, 55, 0
1, 149928, Note_on_c, 0, 55, 34
1, 149933, Note_on_c, 0, 54, 0
1, 150106, Note_on_c, 0, 55, 0
1, 150317, Note_on_c, 0, 31, 46
1, 150600, Note_on_c, 0, 42, 61
1, 150668, Note_on_c, 0, 31, 0
1, 150725, Note_on_c, 0, 43, 76
1, 150740, Note_on_c, 0, 42, 0
1, 150864, Note_on_c, 0, 42, 82
1, 150888, Note_on_c, 0, 43, 0
1, 151018, Note_on_c, 0, 43, 81
1, 151037, Note_on_c, 0, 42, 0
1, 151157, Note_on_c, 0, 38, 89
1, 151172, Note_on_c, 0, 43, 0
1, 151301, Note_on_c, 0, 39, 88
1, 151320, Note_on_c, 0, 38, 0
1, 151407, Note_on_c, 0, 39, 0
1, 151421, Note_on_c, 0, 35, 79
1, 151570, Note_on_c, 0, 35, 0
1, 151575, Note_on_c, 0, 36, 80
1, 151695, Note_on_c, 0, 30, 78
1, 151700, Note_on_c, 0, 36, 0
1, 151738, Note_on_c, 0, 30, 0
1, 151829, Note_on_c, 0, 31, 101
1, 151964, Note_on_c, 0, 30, 90
1, 151968, Note_on_c, 0, 31, 0
1, 152088, Note_on_c, 0, 31, 75
1, 152112, Note_on_c, 0, 30, 0
1, 152228, Note_on_c, 0, 30, 79
1, 152247, Note_on_c, 0, 31, 0
1, 152367, Note_on_c, 0, 31, 76
1, 152386, Note_on_c, 0, 30, 0
1, 152501, Note_on_c, 0, 30, 90
1, 152516, Note_on_c, 0, 31, 0
1, 152583, Note_on_c, 0, 30, 0
1, 152679, Note_on_c, 0, 31, 107
1, 152876, Note_on_c, 0, 31, 0
1, 152895, Note_on_c, 0, 35, 91
1, 153024, Note_on_c, 0, 35, 0
1, 153048, Note_on_c, 0, 38, 97
1, 153149, Note_on_c, 0, 38, 0
1, 153188, Note_on_c, 0, 43, 100
1, 153274, Note_on_c, 0, 43, 0
1, 153336, Note_on_c, 0, 47, 91
1, 153423, Note_on_c, 0, 47, 0
1, 153466, Note_on_c, 0, 50, 108
1, 153567, Note_on_c, 0, 50, 0
1, 153605, Note_on_c, 0, 55, 103
1, 153701, Note_on_c, 0, 55, 0
1, 153749, Note_on_c, 0, 59, 87
1, 153855, Note_on_c, 0, 59, 0
1, 153888, Note_on_c, 0, 62, 96
1, 153922, Note_on_c, 0, 62, 0
1, 154037, Note_on_c, 0, 67, 106
1, 154124, Note_on_c, 0, 67, 0
1, 154196, Note_on_c, 0, 71, 97
1, 154292, Note_on_c, 0, 71, 0
1, 154359, Note_on_c, 0, 74, 109
1, 154397, Note_on_c, 0, 74, 0
1, 154661, Note_on_c, 0, 89, 121
1, 154661, Note_on_c, 0, 77, 111
1, 154983, Note_on_c, 0, 44, 108
1, 154983, Note_on_c, 0, 32, 105
1, 155007, Note_on_c, 0, 32, 0
1, 155031, Note_on_c, 0, 44, 0
1, 155348, Note_on_c, 0, 89, 0
1, 155391, Note_on_c, 0, 56, 109
1, 155391, Note_on_c, 0, 44, 100
1, 155429, Note_on_c, 0, 77, 0
1, 155674, Note_on_c, 0, 83, 106
1, 155674, Note_on_c, 0, 71, 92
1, 155924, Note_on_c, 0, 56, 0
1, 155948, Note_on_c, 0, 44, 0
1, 155981, Note_on_c, 0, 55, 103
1, 155991, Note_on_c, 0, 43, 96
1, 156072, Note_on_c, 0, 55, 0
1, 156096, Note_on_c, 0, 43, 0
1, 156255, Note_on_c, 0, 53, 92
1, 156260, Note_on_c, 0, 41, 93
1, 156312, Note_on_c, 0, 41, 0
1, 156341, Note_on_c, 0, 53, 0
1, 156557, Note_on_c, 0, 40, 81
1, 156557, Note_on_c, 0, 52, 75
1, 156740, Note_on_c, 0, 71, 0
1, 156821, Note_on_c, 0, 40, 0
1, 156840, Note_on_c, 0, 84, 100
1, 156850, Note_on_c, 0, 72, 95
1, 156855, Note_on_c, 0, 52, 0
1, 156864, Note_on_c, 0, 83, 0
1, 156864, Note_on_c, 0, 84, 0
1, 156888, Note_on_c, 0, 72, 0
1, 157128, Note_on_c, 0, 58, 84
1, 157138, Note_on_c, 0, 76, 101
1, 157138, Note_on_c, 0, 64, 81
1, 157148, Note_on_c, 0, 46, 66
1, 157335, Note_on_c, 0, 58, 0
1, 157335, Note_on_c, 0, 46, 0
1, 157426, Note_on_c, 0, 57, 69
1, 157431, Note_on_c, 0, 45, 68
1, 157556, Note_on_c, 0, 64, 0
1, 157580, Note_on_c, 0, 45, 0
1, 157599, Note_on_c, 0, 76, 0
1, 157647, Note_on_c, 0, 57, 0
1, 157695, Note_on_c, 0, 77, 90
1, 157700, Note_on_c, 0, 65, 75
1, 157733, Note_on_c, 0, 77, 0
1, 157738, Note_on_c, 0, 65, 0
1, 157968, Note_on_c, 0, 56, 50
1, 157978, Note_on_c, 0, 78, 67
1, 158232, Note_on_c, 0, 56, 0
1, 158290, Note_on_c, 0, 55, 44
1, 158516, Note_on_c, 0, 78, 0
1, 158535, Note_on_c, 0, 79, 64
1, 158751, Note_on_c, 0, 55, 0
1, 158804, Note_on_c, 0, 79, 0
1, 158870, Note_on_c, 0, 54, 30
1, 158871, Note_on_c, 0, 81, 52
1, 158872, Note_on_c, 0, 63, 27
1, 158874, Note_on_c, 0, 72, 49
1, 158932, Note_on_c, 0, 72, 0
1, 158964, Note_on_c, 0, 63, 0
1, 158976, Note_on_c, 0, 81, 0
1, 159014, Note_on_c, 0, 54, 0
1, 159257, Note_on_c, 0, 55, 21
1, 159260, Note_on_c, 0, 72, 61
1, 159261, Note_on_c, 0, 63, 22
1, 159261, Note_on_c, 0, 67, 33
1, 159741, Note_on_c, 0, 63, 0
1, 159798, Note_on_c, 0, 67, 0
1, 159845, Note_on_c, 0, 72, 0
1, 159850, Note_on_c, 0, 75, 52
1, 159858, Note_on_c, 0, 65, 21
1, 159858, Note_on_c, 0, 71, 23
1, 159876, Note_on_c, 0, 55, 0
1, 159906, Note_on_c, 0, 65, 0
1, 159944, Note_on_c, 0, 71, 0
1, 160004, Note_on_c, 0, 75, 0
1, 160037, Note_on_c, 0, 74, 44
1, 160176, Note_on_c, 0, 74, 0
1, 160224, Note_on_c, 0, 48, 48
1, 160224, Note_on_c, 0, 72, 54
1, 160383, Note_on_c, 0, 55, 48
1, 160431, Note_on_c, 0, 72, 0
1, 160460, Note_on_c, 0, 55, 0
1, 160503, Note_on_c, 0, 51, 56
1, 160565, Note_on_c, 0, 48, 0
1, 160570, Note_on_c, 0, 51, 0
1, 160637, Note_on_c, 0, 72, 74
1, 160642, Note_on_c, 0, 55, 58
1, 160690, Note_on_c, 0, 72, 0
1, 160709, Note_on_c, 0, 55, 0
1, 160757, Note_on_c, 0, 48, 62
1, 160762, Note_on_c, 0, 71, 55
1, 160810, Note_on_c, 0, 71, 0
1, 160820, Note_on_c, 0, 48, 0
1, 160887, Note_on_c, 0, 72, 91
1, 160892, Note_on_c, 0, 55, 52
1, 160935, Note_on_c, 0, 72, 0
1, 160973, Note_on_c, 0, 55, 0
1, 161012, Note_on_c, 0, 73, 79
1, 161021, Note_on_c, 0, 47, 53
1, 161165, Note_on_c, 0, 73, 0
1, 161175, Note_on_c, 0, 55, 43
1, 161194, Note_on_c, 0, 74, 50
1, 161237, Note_on_c, 0, 55, 0
1, 161285, Note_on_c, 0, 53, 49
1, 161343, Note_on_c, 0, 74, 0
1, 161352, Note_on_c, 0, 53, 0
1, 161367, Note_on_c, 0, 47, 0
1, 161424, Note_on_c, 0, 55, 65
1, 161424, Note_on_c, 0, 74, 92
1, 161472, Note_on_c, 0, 74, 0
1, 161492, Note_on_c, 0, 55, 0
1, 161554, Note_on_c, 0, 73, 86
1, 161568, Note_on_c, 0, 47, 46
1, 161602, Note_on_c, 0, 73, 0
1, 161660, Note_on_c, 0, 47, 0
1, 161684, Note_on_c, 0, 74, 100
1, 161693, Note_on_c, 0, 55, 69
1, 161732, Note_on_c, 0, 74, 0
1, 161765, Note_on_c, 0, 55, 0
1, 161823, Note_on_c, 0, 75, 87
1, 161823, Note_on_c, 0, 46, 92
1, 161952, Note_on_c, 0, 55, 64
1, 161976, Note_on_c, 0, 75, 0
1, 161981, Note_on_c, 0, 76, 78
1, 161991, Note_on_c, 0, 46, 0
1, 162024, Note_on_c, 0, 55, 0
1, 162111, Note_on_c, 0, 48, 67
1, 162149, Note_on_c, 0, 76, 0
1, 162202, Note_on_c, 0, 48, 0
1, 162221, Note_on_c, 0, 76, 99
1, 162240, Note_on_c, 0, 55, 64
1, 162322, Note_on_c, 0, 55, 0
1, 162332, Note_on_c, 0, 76, 0
1, 162351, Note_on_c, 0, 75, 97
1, 162360, Note_on_c, 0, 46, 89
1, 162447, Note_on_c, 0, 75, 0
1, 162476, Note_on_c, 0, 76, 110
1, 162490, Note_on_c, 0, 55, 74
1, 162504, Note_on_c, 0, 46, 0
1, 162552, Note_on_c, 0, 76, 0
1, 162610, Note_on_c, 0, 55, 0
1, 162624, Note_on_c, 0, 76, 108
1, 162634, Note_on_c, 0, 44, 88
1, 162759, Note_on_c, 0, 44, 0
1, 162778, Note_on_c, 0, 77, 97
1, 162783, Note_on_c, 0, 53, 73
1, 162807, Note_on_c, 0, 76, 0
1, 162874, Note_on_c, 0, 77, 0
1, 162908, Note_on_c, 0, 53, 0
1, 162927, Note_on_c, 0, 48, 92
1, 162980, Note_on_c, 0, 48, 0
1, 163032, Note_on_c, 0, 77, 103
1, 163032, Note_on_c, 0, 53, 71
1, 163124, Note_on_c, 0, 77, 0
1, 163128, Note_on_c, 0, 53, 0
1, 163162, Note_on_c, 0, 76, 98
1, 163167, Note_on_c, 0, 44, 83
1, 163220, Note_on_c, 0, 44, 0
1, 163224, Note_on_c, 0, 76, 0
1, 163282, Note_on_c, 0, 53, 70
1, 163282, Note_on_c, 0, 77, 105
1, 163325, Note_on_c, 0, 53, 0
1, 163364, Note_on_c, 0, 77, 0
1, 163431, Note_on_c, 0, 79, 104
1, 163431, Note_on_c, 0, 39, 91
1, 163560, Note_on_c, 0, 72, 96
1, 163608, Note_on_c, 0, 79, 0
1, 163676, Note_on_c, 0, 72, 0
1, 163709, Note_on_c, 0, 84, 85
1, 163714, Note_on_c, 0, 39, 0
1, 163748, Note_on_c, 0, 84, 0
1, 163834, Note_on_c, 0, 84, 81
1, 163892, Note_on_c, 0, 84, 0
1, 163983, Note_on_c, 0, 84, 79
1, 164036, Note_on_c, 0, 84, 0
1, 164132, Note_on_c, 0, 84, 87
1, 164180, Note_on_c, 0, 84, 0
1, 164266, Note_on_c, 0, 53, 56
1, 164271, Note_on_c, 0, 62, 55
1, 164410, Note_on_c, 0, 74, 74
1, 164540, Note_on_c, 0, 74, 0
1, 164554, Note_on_c, 0, 80, 75
1, 164573, Note_on_c, 0, 62, 0
1, 164602, Note_on_c, 0, 80, 0
1, 164616, Note_on_c, 0, 53, 0
1, 164679, Note_on_c, 0, 80, 72
1, 164732, Note_on_c, 0, 80, 0
1, 164823, Note_on_c, 0, 80, 68
1, 164876, Note_on_c, 0, 80, 0
1, 164972, Note_on_c, 0, 80, 64
1, 165034, Note_on_c, 0, 80, 0
1, 165106, Note_on_c, 0, 63, 44
1, 165149, Note_on_c, 0, 55, 31
1, 165269, Note_on_c, 0, 72, 61
1, 165336, Note_on_c, 0, 72, 0
1, 165428, Note_on_c, 0, 79, 57
1, 165447, Note_on_c, 0, 55, 0
1, 165461, Note_on_c, 0, 63, 0
1, 165476, Note_on_c, 0, 79, 0
1, 165557, Note_on_c, 0, 79, 70
1, 165605, Note_on_c, 0, 79, 0
1, 165720, Note_on_c, 0, 79, 63
1, 165773, Note_on_c, 0, 79, 0
1, 165845, Note_on_c, 0, 79, 81
1, 165888, Note_on_c, 0, 79, 0
1, 165994, Note_on_c, 0, 62, 44
1, 165999, Note_on_c, 0, 55, 48
1, 166143, Note_on_c, 0, 65, 75
1, 166196, Note_on_c, 0, 62, 0
1, 166224, Note_on_c, 0, 65, 0
1, 166263, Note_on_c, 0, 55, 0
1, 166287, Note_on_c, 0, 71, 59
1, 166325, Note_on_c, 0, 71, 0
1, 166402, Note_on_c, 0, 71, 66
1, 166450, Note_on_c, 0, 71, 0
1, 166560, Note_on_c, 0, 71, 66
1, 166604, Note_on_c, 0, 71, 0
1, 166685, Note_on_c, 0, 71, 75
1, 166748, Note_on_c, 0, 71, 0
1, 166844, Note_on_c, 0, 63, 81
1, 166848, Note_on_c, 0, 72, 100
1, 166853, Note_on_c, 0, 48, 93
1, 166863, Note_on_c, 0, 67, 80
1, 166959, Note_on_c, 0, 67, 0
1, 166988, Note_on_c, 0, 72, 0
1, 166988, Note_on_c, 0, 48, 0
1, 166988, Note_on_c, 0, 55, 70
1, 167045, Note_on_c, 0, 63, 0
1, 167093, Note_on_c, 0, 55, 0
1, 167103, Note_on_c, 0, 51, 73
1, 167223, Note_on_c, 0, 51, 0
1, 167252, Note_on_c, 0, 55, 55
1, 167261, Note_on_c, 0, 60, 80
1, 167300, Note_on_c, 0, 60, 0
1, 167324, Note_on_c, 0, 55, 0
1, 167391, Note_on_c, 0, 48, 71
1, 167396, Note_on_c, 0, 59, 61
1, 167434, Note_on_c, 0, 59, 0
1, 167444, Note_on_c, 0, 48, 0
1, 167511, Note_on_c, 0, 60, 73
1, 167530, Note_on_c, 0, 55, 55
1, 167564, Note_on_c, 0, 60, 0
1, 167592, Note_on_c, 0, 55, 0
1, 167655, Note_on_c, 0, 61, 76
1, 167674, Note_on_c, 0, 47, 53
1, 167794, Note_on_c, 0, 55, 55
1, 167808, Note_on_c, 0, 61, 0
1, 167808, Note_on_c, 0, 62, 65
1, 167818, Note_on_c, 0, 47, 0
1, 167900, Note_on_c, 0, 62, 0
1, 167900, Note_on_c, 0, 55, 0
1, 167938, Note_on_c, 0, 53, 58
1, 167996, Note_on_c, 0, 53, 0
1, 168048, Note_on_c, 0, 62, 83
1, 168058, Note_on_c, 0, 55, 67
1, 168096, Note_on_c, 0, 62, 0
1, 168120, Note_on_c, 0, 55, 0
1, 168178, Note_on_c, 0, 61, 90
1, 168188, Note_on_c, 0, 47, 62
1, 168231, Note_on_c, 0, 61, 0
1, 168250, Note_on_c, 0, 47, 0
1, 168322, Note_on_c, 0, 62, 85
1, 168332, Note_on_c, 0, 55, 62
1, 168375, Note_on_c, 0, 62, 0
1, 168408, Note_on_c, 0, 55, 0
1, 168452, Note_on_c, 0, 63, 88
1, 168461, Note_on_c, 0, 46, 93
1, 168591, Note_on_c, 0, 64, 80
1, 168591, Note_on_c, 0, 55, 64
1, 168596, Note_on_c, 0, 63, 0
1, 168596, Note_on_c, 0, 46, 0
1, 168672, Note_on_c, 0, 55, 0
1, 168716, Note_on_c, 0, 64, 0
1, 168735, Note_on_c, 0, 48, 76
1, 168821, Note_on_c, 0, 48, 0
1, 168836, Note_on_c, 0, 64, 84
1, 168855, Note_on_c, 0, 55, 72
1, 168903, Note_on_c, 0, 64, 0
1, 168927, Note_on_c, 0, 55, 0
1, 168970, Note_on_c, 0, 63, 94
1, 168975, Note_on_c, 0, 46, 92
1, 169066, Note_on_c, 0, 63, 0
1, 169066, Note_on_c, 0, 46, 0
1, 169085, Note_on_c, 0, 55, 82
1, 169100, Note_on_c, 0, 64, 94
1, 169133, Note_on_c, 0, 64, 0
1, 169167, Note_on_c, 0, 55, 0
1, 169229, Note_on_c, 0, 64, 92
1, 169248, Note_on_c, 0, 45, 97
1, 169368, Note_on_c, 0, 65, 97
1, 169373, Note_on_c, 0, 53, 74
1, 169397, Note_on_c, 0, 45, 0
1, 169421, Note_on_c, 0, 64, 0
1, 169469, Note_on_c, 0, 53, 0
1, 169484, Note_on_c, 0, 65, 0
1, 169508, Note_on_c, 0, 48, 92
1, 169604, Note_on_c, 0, 48, 0
1, 169623, Note_on_c, 0, 53, 84
1, 169628, Note_on_c, 0, 65, 109
1, 169690, Note_on_c, 0, 65, 0
1, 169704, Note_on_c, 0, 53, 0
1, 169752, Note_on_c, 0, 45, 97
1, 169752, Note_on_c, 0, 64, 101
1, 169834, Note_on_c, 0, 64, 0
1, 169863, Note_on_c, 0, 45, 0
1, 169868, Note_on_c, 0, 53, 92
1, 169882, Note_on_c, 0, 65, 101
1, 169935, Note_on_c, 0, 65, 0
1, 169940, Note_on_c, 0, 53, 0
1, 170018, Note_on_c, 0, 65, 103
1, 170021, Note_on_c, 0, 44, 101
1, 170144, Note_on_c, 0, 66, 103
1, 170160, Note_on_c, 0, 51, 80
1, 170170, Note_on_c, 0, 65, 0
1, 170213, Note_on_c, 0, 44, 0
1, 170280, Note_on_c, 0, 51, 0
1, 170282, Note_on_c, 0, 66, 0
1, 170295, Note_on_c, 0, 48, 90
1, 170396, Note_on_c, 0, 51, 79
1, 170400, Note_on_c, 0, 48, 0
1, 170410, Note_on_c, 0, 66, 96
1, 170496, Note_on_c, 0, 51, 0
1, 170506, Note_on_c, 0, 66, 0
1, 170525, Note_on_c, 0, 44, 78
1, 170530, Note_on_c, 0, 65, 101
1, 170616, Note_on_c, 0, 65, 0
1, 170640, Note_on_c, 0, 66, 102
1, 170645, Note_on_c, 0, 51, 86
1, 170664, Note_on_c, 0, 44, 0
1, 170717, Note_on_c, 0, 51, 0
1, 170722, Note_on_c, 0, 66, 0
1, 170780, Note_on_c, 0, 66, 105
1, 170789, Note_on_c, 0, 43, 98
1, 170909, Note_on_c, 0, 51, 93
1, 170909, Note_on_c, 0, 67, 99
1, 170952, Note_on_c, 0, 66, 0
1, 170986, Note_on_c, 0, 43, 0
1, 171024, Note_on_c, 0, 51, 0
1, 171024, Note_on_c, 0, 67, 0
1, 171044, Note_on_c, 0, 48, 93
1, 171164, Note_on_c, 0, 48, 0
1, 171164, Note_on_c, 0, 51, 92
1, 171178, Note_on_c, 0, 67, 105
1, 171231, Note_on_c, 0, 67, 0
1, 171245, Note_on_c, 0, 51, 0
1, 171288, Note_on_c, 0, 43, 73
1, 171308, Note_on_c, 0, 66, 86
1, 171346, Note_on_c, 0, 43, 0
1, 171365, Note_on_c, 0, 66, 0
1, 171394, Note_on_c, 0, 51, 78
1, 171432, Note_on_c, 0, 67, 92
1, 171471, Note_on_c, 0, 51, 0
1, 171548, Note_on_c, 0, 67, 0
1, 171581, Note_on_c, 0, 69, 95
1, 171586, Note_on_c, 0, 42, 55
1, 171888, Note_on_c, 0, 72, 87
1, 171951, Note_on_c, 0, 69, 0
1, 172191, Note_on_c, 0, 75, 65
1, 172210, Note_on_c, 0, 72, 0
1, 172277, Note_on_c, 0, 42, 0
1, 172464, Note_on_c, 0, 54, 47
1, 172767, Note_on_c, 0, 74, 59
1, 172829, Note_on_c, 0, 75, 0
1, 173045, Note_on_c, 0, 72, 63
1, 173074, Note_on_c, 0, 74, 0
1, 173117, Note_on_c, 0, 54, 0
1, 173280, Note_on_c, 0, 65, 49
1, 173290, Note_on_c, 0, 55, 32
1, 173290, Note_on_c, 0, 62, 31
1, 173583, Note_on_c, 0, 72, 0
1, 173583, Note_on_c, 0, 71, 46
1, 173842, Note_on_c, 0, 71, 0
1, 173852, Note_on_c, 0, 77, 62
1, 173938, Note_on_c, 0, 65, 0
1, 173952, Note_on_c, 0, 62, 0
1, 174053, Note_on_c, 0, 55, 0
1, 174135, Note_on_c, 0, 65, 52
1, 174135, Note_on_c, 0, 56, 48
1, 174149, Note_on_c, 0, 62, 30
1, 174413, Note_on_c, 0, 74, 69
1, 174437, Note_on_c, 0, 77, 0
1, 174696, Note_on_c, 0, 83, 70
1, 174730, Note_on_c, 0, 74, 0
1, 174744, Note_on_c, 0, 62, 0
1, 174749, Note_on_c, 0, 65, 0
1, 174884, Note_on_c, 0, 56, 0
1, 174951, Note_on_c, 0, 65, 38
1, 174961, Note_on_c, 0, 62, 29
1, 174966, Note_on_c, 0, 55, 26
1, 175234, Note_on_c, 0, 83, 0
1, 175234, Note_on_c, 0, 77, 61
1, 175460, Note_on_c, 0, 62, 0
1, 175484, Note_on_c, 0, 65, 0
1, 175493, Note_on_c, 0, 77, 0
1, 175517, Note_on_c, 0, 86, 52
1, 175542, Note_on_c, 0, 55, 0
1, 175786, Note_on_c, 0, 56, 45
1, 175796, Note_on_c, 0, 65, 33
1, 175802, Note_on_c, 0, 62, 22
1, 176074, Note_on_c, 0, 83, 54
1, 176098, Note_on_c, 0, 86, 0
1, 176234, Note_on_c, 0, 62, 0
1, 176280, Note_on_c, 0, 65, 0
1, 176357, Note_on_c, 0, 83, 0
1, 176357, Note_on_c, 0, 89, 63
1, 176410, Note_on_c, 0, 56, 0
1, 176639, Note_on_c, 0, 62, 33
1, 176640, Note_on_c, 0, 65, 46
1, 176645, Note_on_c, 0, 55, 37
1, 176784, Note_on_c, 0, 86, 55
1, 176837, Note_on_c, 0, 89, 0
1, 176919, Note_on_c, 0, 86, 0
1, 176933, Note_on_c, 0, 83, 52
1, 177039, Note_on_c, 0, 83, 0
1, 177048, Note_on_c, 0, 80, 66
1, 177076, Note_on_c, 0, 62, 0
1, 177087, Note_on_c, 0, 65, 0
1, 177178, Note_on_c, 0, 80, 0
1, 177197, Note_on_c, 0, 55, 0
1, 177207, Note_on_c, 0, 77, 75
1, 177278, Note_on_c, 0, 77, 0
1, 177334, Note_on_c, 0, 74, 70
1, 177406, Note_on_c, 0, 74, 0
1, 177442, Note_on_c, 0, 71, 71
1, 177533, Note_on_c, 0, 71, 0
1, 177576, Note_on_c, 0, 68, 72
1, 177687, Note_on_c, 0, 68, 0
1, 177696, Note_on_c, 0, 65, 82
1, 177744, Note_on_c, 0, 65, 0
1, 177816, Note_on_c, 0, 62, 74
1, 177927, Note_on_c, 0, 59, 73
1, 177936, Note_on_c, 0, 62, 0
1, 178028, Note_on_c, 0, 59, 0
1, 178047, Note_on_c, 0, 56, 91
1, 178085, Note_on_c, 0, 56, 0
1, 178176, Note_on_c, 0, 55, 76
1, 178311, Note_on_c, 0, 67, 84
1, 178421, Note_on_c, 0, 68, 85
1, 178426, Note_on_c, 0, 67, 0
1, 178536, Note_on_c, 0, 68, 0
1, 178541, Note_on_c, 0, 69, 87
1, 178556, Note_on_c, 0, 55, 0
1, 178652, Note_on_c, 0, 69, 0
1, 178661, Note_on_c, 0, 70, 98
1, 178781, Note_on_c, 0, 70, 0
1, 178786, Note_on_c, 0, 71, 76
1, 178901, Note_on_c, 0, 71, 0
1, 178935, Note_on_c, 0, 72, 68
1, 179055, Note_on_c, 0, 72, 0
1, 179055, Note_on_c, 0, 74, 87
1, 179151, Note_on_c, 0, 74, 0
1, 179189, Note_on_c, 0, 75, 69
1, 179271, Note_on_c, 0, 75, 0
1, 179314, Note_on_c, 0, 76, 70
1, 179372, Note_on_c, 0, 76, 0
1, 179444, Note_on_c, 0, 77, 54
1, 179506, Note_on_c, 0, 77, 0
1, 179549, Note_on_c, 0, 78, 62
1, 179612, Note_on_c, 0, 78, 0
1, 179708, Note_on_c, 0, 79, 64
1, 179708, Note_on_c, 0, 60, 37
1, 179717, Note_on_c, 0, 63, 33
1, 180010, Note_on_c, 0, 75, 55
1, 180034, Note_on_c, 0, 79, 0
1, 180135, Note_on_c, 0, 75, 0
1, 180288, Note_on_c, 0, 72, 61
1, 180495, Note_on_c, 0, 63, 0
1, 180509, Note_on_c, 0, 60, 0
1, 180557, Note_on_c, 0, 65, 42
1, 180572, Note_on_c, 0, 62, 17
1, 180783, Note_on_c, 0, 72, 0
1, 180831, Note_on_c, 0, 71, 37
1, 180951, Note_on_c, 0, 71, 0
1, 181114, Note_on_c, 0, 80, 54
1, 181133, Note_on_c, 0, 62, 0
1, 181172, Note_on_c, 0, 65, 0
1, 181378, Note_on_c, 0, 62, 23
1, 181383, Note_on_c, 0, 59, 30
1, 181666, Note_on_c, 0, 79, 33
1, 181714, Note_on_c, 0, 80, 0
1, 181738, Note_on_c, 0, 79, 0
1, 181954, Note_on_c, 0, 77, 52
1, 181964, Note_on_c, 0, 62, 0
1, 182036, Note_on_c, 0, 59, 0
1, 182218, Note_on_c, 0, 60, 32
1, 182223, Note_on_c, 0, 67, 35
1, 182492, Note_on_c, 0, 77, 0
1, 182511, Note_on_c, 0, 75, 46
1, 182645, Note_on_c, 0, 75, 0
1, 182684, Note_on_c, 0, 67, 0
1, 182693, Note_on_c, 0, 60, 0
1, 182770, Note_on_c, 0, 79, 76
1, 183034, Note_on_c, 0, 67, 57
1, 183044, Note_on_c, 0, 63, 48
1, 183317, Note_on_c, 0, 84, 65
1, 183327, Note_on_c, 0, 79, 0
1, 183514, Note_on_c, 0, 63, 0
1, 183572, Note_on_c, 0, 84, 0
1, 183581, Note_on_c, 0, 82, 71
1, 183586, Note_on_c, 0, 64, 53
1, 183648, Note_on_c, 0, 64, 0
1, 183845, Note_on_c, 0, 68, 62
1, 183855, Note_on_c, 0, 67, 0
1, 183855, Note_on_c, 0, 65, 60
1, 184095, Note_on_c, 0, 80, 74
1, 184143, Note_on_c, 0, 82, 0
1, 184229, Note_on_c, 0, 68, 0
1, 184311, Note_on_c, 0, 65, 0
1, 184354, Note_on_c, 0, 67, 64
1, 184354, Note_on_c, 0, 70, 62
1, 184364, Note_on_c, 0, 79, 81
1, 184392, Note_on_c, 0, 80, 0
1, 184575, Note_on_c, 0, 70, 0
1, 184580, Note_on_c, 0, 67, 0
1, 184637, Note_on_c, 0, 72, 58
1, 184637, Note_on_c, 0, 68, 52
1, 184882, Note_on_c, 0, 79, 0
1, 184882, Note_on_c, 0, 77, 78
1, 185079, Note_on_c, 0, 68, 0
1, 185156, Note_on_c, 0, 78, 51
1, 185180, Note_on_c, 0, 77, 0
1, 185208, Note_on_c, 0, 69, 26
1, 185372, Note_on_c, 0, 69, 0
1, 185439, Note_on_c, 0, 67, 44
1, 185688, Note_on_c, 0, 72, 0
1, 185727, Note_on_c, 0, 78, 0
1, 185770, Note_on_c, 0, 79, 37
1, 185775, Note_on_c, 0, 71, 23
1, 185871, Note_on_c, 0, 67, 0
1, 185885, Note_on_c, 0, 79, 0
1, 185919, Note_on_c, 0, 71, 0
1, 186245, Note_on_c, 0, 67, 55
1, 186754, Note_on_c, 0, 51, 37
1, 186773, Note_on_c, 0, 55, 35
1, 187114, Note_on_c, 0, 63, 64
1, 187229, Note_on_c, 0, 67, 0
1, 187517, Note_on_c, 0, 60, 75
1, 187556, Note_on_c, 0, 63, 0
1, 187690, Note_on_c, 0, 55, 0
1, 187733, Note_on_c, 0, 51, 0
1, 187848, Note_on_c, 0, 60, 0
1, 188079, Note_on_c, 0, 60, 63
1, 188084, Note_on_c, 0, 56, 26
1, 188088, Note_on_c, 0, 53, 26
1, 188093, Note_on_c, 0, 50, 28
1, 189010, Note_on_c, 0, 53, 0
1, 189048, Note_on_c, 0, 50, 0
1, 189068, Note_on_c, 0, 56, 0
1, 190738, Note_on_c, 0, 60, 0
1, 190815, Note_on_c, 0, 59, 16
1, 191338, Note_on_c, 0, 59, 0
1, 192264, Note_on_c, 0, 68, 68
1, 192629, Note_on_c, 0, 47, 50
1, 192629, Note_on_c, 0, 50, 68
1, 192932, Note_on_c, 0, 67, 88
1, 193047, Note_on_c, 0, 68, 0
1, 193272, Note_on_c, 0, 65, 100
1, 193282, Note_on_c, 0, 67, 0
1, 193282, Note_on_c, 0, 47, 0
1, 193282, Note_on_c, 0, 50, 0
1, 193464, Note_on_c, 0, 65, 0
1, 193700, Note_on_c, 0, 65, 99
1, 193719, Note_on_c, 0, 49, 70
1, 193719, Note_on_c, 0, 55, 70
1, 193728, Note_on_c, 0, 46, 70
1, 195821, Note_on_c, 0, 64, 30
1, 195956, Note_on_c, 0, 65, 0
1, 196383, Note_on_c, 0, 49, 0
1, 196464, Note_on_c, 0, 55, 0
1, 196556, Note_on_c, 0, 46, 0
1, 196743, Note_on_c, 0, 64, 0
1, 197640, Note_on_c, 0, 70, 56
1, 198000, Note_on_c, 0, 60, 41
1, 198010, Note_on_c, 0, 52, 36
1, 198384, Note_on_c, 0, 68, 55
1, 198476, Note_on_c, 0, 70, 0
1, 198749, Note_on_c, 0, 68, 0
1, 198759, Note_on_c, 0, 67, 59
1, 198984, Note_on_c, 0, 60, 0
1, 199076, Note_on_c, 0, 67, 0
1, 199090, Note_on_c, 0, 52, 0
1, 199320, Note_on_c, 0, 67, 46
1, 199335, Note_on_c, 0, 60, 25
1, 199340, Note_on_c, 0, 53, 28
1, 201111, Note_on_c, 0, 68, 28
1, 201216, Note_on_c, 0, 67, 0
1, 201879, Note_on_c, 0, 60, 0
1, 201888, Note_on_c, 0, 53, 0
1, 201922, Note_on_c, 0, 68, 0
1, 202368, Note_on_c, 0, 71, 50
1, 202728, Note_on_c, 0, 53, 38
1, 202730, Note_on_c, 0, 56, 41
1, 203031, Note_on_c, 0, 72, 66
1, 203084, Note_on_c, 0, 71, 0
1, 203444, Note_on_c, 0, 72, 0
1, 203463, Note_on_c, 0, 74, 63
1, 203709, Note_on_c, 0, 56, 0
1, 203780, Note_on_c, 0, 53, 0
1, 203818, Note_on_c, 0, 74, 0
1, 204149, Note_on_c, 0, 74, 47
1, 204160, Note_on_c, 0, 57, 25
1, 204165, Note_on_c, 0, 54, 26
1, 206208, Note_on_c, 0, 77, 37
1, 206319, Note_on_c, 0, 74, 0
1, 206765, Note_on_c, 0, 75, 22
1, 206775, Note_on_c, 0, 77, 0
1, 207534, Note_on_c, 0, 57, 0
1, 207549, Note_on_c, 0, 54, 0
1, 207620, Note_on_c, 0, 75, 0
1, 208503, Note_on_c, 0, 72, 54
1, 208556, Note_on_c, 0, 72, 0
1, 208733, Note_on_c, 0, 74, 70
1, 208757, Note_on_c, 0, 66, 33
1, 208772, Note_on_c, 0, 72, 66
1, 208791, Note_on_c, 0, 63, 32
1, 208824, Note_on_c, 0, 57, 26
1, 208848, Note_on_c, 0, 74, 0
1, 208997, Note_on_c, 0, 71, 47
1, 209002, Note_on_c, 0, 72, 0
1, 209160, Note_on_c, 0, 63, 0
1, 209194, Note_on_c, 0, 57, 0
1, 209218, Note_on_c, 0, 66, 0
1, 209218, Note_on_c, 0, 71, 0
1, 209247, Note_on_c, 0, 72, 69
1, 209304, Note_on_c, 0, 72, 0
1, 209535, Note_on_c, 0, 63, 49
1, 209540, Note_on_c, 0, 67, 74
1, 209543, Note_on_c, 0, 55, 42
1, 209668, Note_on_c, 0, 55, 0
1, 209684, Note_on_c, 0, 63, 0
1, 209741, Note_on_c, 0, 67, 0
1, 210408, Note_on_c, 0, 59, 52
1, 210408, Note_on_c, 0, 50, 59
1, 210409, Note_on_c, 0, 43, 46
1, 210413, Note_on_c, 0, 53, 54
1, 210528, Note_on_c, 0, 50, 0
1, 210543, Note_on_c, 0, 43, 0
1, 210552, Note_on_c, 0, 53, 0
1, 210596, Note_on_c, 0, 59, 0
1, 211304, Note_on_c, 0, 60, 62
1, 211309, Note_on_c, 0, 48, 39
1, 211310, Note_on_c, 0, 51, 46
1, 211314, Note_on_c, 0, 36, 34
1, 211443, Note_on_c, 0, 51, 0
1, 211453, Note_on_c, 0, 48, 0
1, 211458, Note_on_c, 0, 36, 0
1, 211492, Note_on_c, 0, 60, 0
1, 211896, Note_on_c, 0, 77, 96
1, 211940, Note_on_c, 0, 75, 84
1, 212002, Note_on_c, 0, 77, 0
1, 212012, Note_on_c, 0, 74, 97
1, 212040, Note_on_c, 0, 75, 0
1, 212055, Note_on_c, 0, 74, 0
1, 212069, Note_on_c, 0, 72, 87
1, 212112, Note_on_c, 0, 72, 0
1, 212156, Note_on_c, 0, 79, 117
1, 212160, Note_on_c, 0, 59, 73
1, 212170, Note_on_c, 0, 62, 64
1, 212213, Note_on_c, 0, 62, 0
1, 212232, Note_on_c, 0, 79, 0
1, 212261, Note_on_c, 0, 55, 89
1, 212271, Note_on_c, 0, 59, 0
1, 212400, Note_on_c, 0, 79, 114
1, 212400, Note_on_c, 0, 63, 80
1, 212405, Note_on_c, 0, 60, 76
1, 212405, Note_on_c, 0, 67, 94
1, 212410, Note_on_c, 0, 55, 0
1, 212434, Note_on_c, 0, 79, 0
1, 212439, Note_on_c, 0, 67, 0
1, 212453, Note_on_c, 0, 60, 0
1, 212487, Note_on_c, 0, 63, 0
1, 212487, Note_on_c, 0, 55, 79
1, 212626, Note_on_c, 0, 55, 0
1, 212640, Note_on_c, 0, 79, 112
1, 212645, Note_on_c, 0, 65, 76
1, 212645, Note_on_c, 0, 67, 99
1, 212655, Note_on_c, 0, 62, 70
1, 212669, Note_on_c, 0, 79, 0
1, 212679, Note_on_c, 0, 67, 0
1, 212698, Note_on_c, 0, 65, 0
1, 212722, Note_on_c, 0, 62, 0
1, 212751, Note_on_c, 0, 55, 75
1, 212900, Note_on_c, 0, 79, 119
1, 212904, Note_on_c, 0, 67, 106
1, 212914, Note_on_c, 0, 63, 79
1, 212924, Note_on_c, 0, 60, 80
1, 212928, Note_on_c, 0, 55, 0
1, 213015, Note_on_c, 0, 63, 0
1, 213024, Note_on_c, 0, 60, 0
1, 213034, Note_on_c, 0, 55, 53
1, 213168, Note_on_c, 0, 63, 70
1, 213188, Note_on_c, 0, 55, 0
1, 213197, Note_on_c, 0, 67, 0
1, 213197, Note_on_c, 0, 60, 68
1, 213231, Note_on_c, 0, 63, 0
1, 213255, Note_on_c, 0, 60, 0
1, 213284, Note_on_c, 0, 55, 55
1, 213408, Note_on_c, 0, 77, 103
1, 213418, Note_on_c, 0, 55, 0
1, 213423, Note_on_c, 0, 63, 65
1, 213428, Note_on_c, 0, 79, 0
1, 213432, Note_on_c, 0, 60, 59
1, 213466, Note_on_c, 0, 75, 91
1, 213480, Note_on_c, 0, 63, 0
1, 213500, Note_on_c, 0, 60, 0
1, 213524, Note_on_c, 0, 55, 56
1, 213533, Note_on_c, 0, 77, 0
1, 213543, Note_on_c, 0, 74, 97
1, 213581, Note_on_c, 0, 75, 0
1, 213600, Note_on_c, 0, 72, 105
1, 213639, Note_on_c, 0, 74, 0
1, 213658, Note_on_c, 0, 62, 73
1, 213663, Note_on_c, 0, 55, 0
1, 213663, Note_on_c, 0, 59, 67
1, 213672, Note_on_c, 0, 79, 117
1, 213706, Note_on_c, 0, 72, 0
1, 213764, Note_on_c, 0, 79, 0
1, 213768, Note_on_c, 0, 62, 0
1, 213778, Note_on_c, 0, 55, 67
1, 213797, Note_on_c, 0, 59, 0
1, 213917, Note_on_c, 0, 79, 113
1, 213927, Note_on_c, 0, 63, 79
1, 213927, Note_on_c, 0, 67, 91
1, 213932, Note_on_c, 0, 55, 0
1, 213936, Note_on_c, 0, 60, 76
1, 213965, Note_on_c, 0, 67, 0
1, 213975, Note_on_c, 0, 79, 0
1, 213989, Note_on_c, 0, 60, 0
1, 213999, Note_on_c, 0, 63, 0
1, 214028, Note_on_c, 0, 55, 73
1, 214152, Note_on_c, 0, 55, 0
1, 214172, Note_on_c, 0, 79, 115
1, 214172, Note_on_c, 0, 67, 109
1, 214181, Note_on_c, 0, 65, 88
1, 214186, Note_on_c, 0, 62, 74
1, 214215, Note_on_c, 0, 67, 0
1, 214248, Note_on_c, 0, 62, 0
1, 214248, Note_on_c, 0, 65, 0
1, 214268, Note_on_c, 0, 79, 0
1, 214296, Note_on_c, 0, 55, 90
1, 214445, Note_on_c, 0, 79, 116
1, 214450, Note_on_c, 0, 67, 111
1, 214464, Note_on_c, 0, 63, 83
1, 214479, Note_on_c, 0, 60, 81
1, 214498, Note_on_c, 0, 55, 0
1, 214580, Note_on_c, 0, 63, 0
1, 214584, Note_on_c, 0, 60, 0
1, 214604, Note_on_c, 0, 55, 69
1, 214685, Note_on_c, 0, 67, 0
1, 214728, Note_on_c, 0, 63, 72
1, 214738, Note_on_c, 0, 55, 0
1, 214738, Note_on_c, 0, 60, 67
1, 214786, Note_on_c, 0, 63, 0
1, 214829, Note_on_c, 0, 55, 63
1, 214834, Note_on_c, 0, 60, 0
1, 214901, Note_on_c, 0, 79, 0
1, 214968, Note_on_c, 0, 55, 0
1, 214973, Note_on_c, 0, 63, 68
1, 214973, Note_on_c, 0, 77, 104
1, 214988, Note_on_c, 0, 60, 66
1, 215026, Note_on_c, 0, 63, 0
1, 215026, Note_on_c, 0, 75, 83
1, 215064, Note_on_c, 0, 77, 0
1, 215103, Note_on_c, 0, 74, 97
1, 215112, Note_on_c, 0, 55, 57
1, 215117, Note_on_c, 0, 60, 0
1, 215127, Note_on_c, 0, 75, 0
1, 215141, Note_on_c, 0, 74, 0
1, 215141, Note_on_c, 0, 72, 99
1, 215175, Note_on_c, 0, 72, 0
1, 215204, Note_on_c, 0, 55, 0
1, 215256, Note_on_c, 0, 71, 95
1, 215271, Note_on_c, 0, 74, 102
1, 215285, Note_on_c, 0, 80, 109
1, 215516, Note_on_c, 0, 53, 107
1, 215520, Note_on_c, 0, 41, 103
1, 215549, Note_on_c, 0, 74, 0
1, 215549, Note_on_c, 0, 41, 0
1, 215568, Note_on_c, 0, 71, 0
1, 215607, Note_on_c, 0, 53, 0
1, 215631, Note_on_c, 0, 80, 0
1, 215804, Note_on_c, 0, 65, 107
1, 215808, Note_on_c, 0, 53, 105
1, 215861, Note_on_c, 0, 64, 21
1, 215904, Note_on_c, 0, 65, 0
1, 215909, Note_on_c, 0, 64, 0
1, 215943, Note_on_c, 0, 53, 0
1, 216044, Note_on_c, 0, 72, 95
1, 216068, Note_on_c, 0, 79, 113
1, 216068, Note_on_c, 0, 75, 92
1, 216312, Note_on_c, 0, 51, 105
1, 216317, Note_on_c, 0, 39, 98
1, 216346, Note_on_c, 0, 39, 0
1, 216356, Note_on_c, 0, 51, 0
1, 216572, Note_on_c, 0, 75, 0
1, 216572, Note_on_c, 0, 63, 104
1, 216576, Note_on_c, 0, 51, 103
1, 216605, Note_on_c, 0, 79, 0
1, 216624, Note_on_c, 0, 51, 0
1, 216653, Note_on_c, 0, 63, 0
1, 216692, Note_on_c, 0, 72, 0
1, 216840, Note_on_c, 0, 62, 108
1, 216845, Note_on_c, 0, 50, 108
1, 216994, Note_on_c, 0, 50, 0
1, 217032, Note_on_c, 0, 62, 0
1, 217066, Note_on_c, 0, 74, 80
1, 217080, Note_on_c, 0, 77, 104
1, 217100, Note_on_c, 0, 83, 102
1, 217143, Note_on_c, 0, 74, 0
1, 217172, Note_on_c, 0, 77, 0
1, 217191, Note_on_c, 0, 83, 0
1, 217335, Note_on_c, 0, 77, 103
1, 217344, Note_on_c, 0, 83, 103
1, 217359, Note_on_c, 0, 86, 112
1, 217416, Note_on_c, 0, 77, 0
1, 217450, Note_on_c, 0, 83, 0
1, 217488, Note_on_c, 0, 86, 0
1, 217637, Note_on_c, 0, 79, 115
1, 217637, Note_on_c, 0, 86, 114
1, 217642, Note_on_c, 0, 89, 119
1, 217647, Note_on_c, 0, 59, 86
1, 217652, Note_on_c, 0, 47, 80
1, 217680, Note_on_c, 0, 79, 0
1, 217695, Note_on_c, 0, 47, 0
1, 217714, Note_on_c, 0, 59, 0
1, 217724, Note_on_c, 0, 86, 0
1, 217752, Note_on_c, 0, 89, 0
1, 219783, Note_on_c, 0, 75, 60
1, 220704, Note_on_c, 0, 66, 57
1, 220738, Note_on_c, 0, 63, 26
1, 220743, Note_on_c, 0, 60, 28
1, 220820, Note_on_c, 0, 75, 0
1, 221160, Note_on_c, 0, 60, 0
1, 221204, Note_on_c, 0, 63, 0
1, 221348, Note_on_c, 0, 66, 0
1, 221559, Note_on_c, 0, 65, 45
1, 221564, Note_on_c, 0, 59, 29
1, 221568, Note_on_c, 0, 62, 27
1, 221573, Note_on_c, 0, 67, 73
1, 221972, Note_on_c, 0, 62, 0
1, 221996, Note_on_c, 0, 67, 0
1, 222000, Note_on_c, 0, 68, 68
1, 222010, Note_on_c, 0, 65, 0
1, 222044, Note_on_c, 0, 59, 0
1, 222096, Note_on_c, 0, 63, 51
1, 222101, Note_on_c, 0, 68, 0
1, 222106, Note_on_c, 0, 67, 72
1, 222120, Note_on_c, 0, 60, 54
1, 222159, Note_on_c, 0, 63, 0
1, 222173, Note_on_c, 0, 60, 0
1, 222202, Note_on_c, 0, 67, 0
1, 222384, Note_on_c, 0, 67, 78
1, 222389, Note_on_c, 0, 63, 65
1, 222404, Note_on_c, 0, 53, 52
1, 222447, Note_on_c, 0, 63, 0
1, 222495, Note_on_c, 0, 67, 0
1, 222514, Note_on_c, 0, 65, 76
1, 222514, Note_on_c, 0, 62, 60
1, 222576, Note_on_c, 0, 62, 0
1, 222581, Note_on_c, 0, 65, 0
1, 222591, Note_on_c, 0, 53, 0
1, 222648, Note_on_c, 0, 63, 75
1, 222648, Note_on_c, 0, 60, 69
1, 222672, Note_on_c, 0, 55, 60
1, 222725, Note_on_c, 0, 55, 0
1, 222754, Note_on_c, 0, 63, 0
1, 222773, Note_on_c, 0, 60, 0
1, 222936, Note_on_c, 0, 62, 54
1, 222941, Note_on_c, 0, 43, 45
1, 222946, Note_on_c, 0, 59, 30
1, 222999, Note_on_c, 0, 62, 0
1, 223004, Note_on_c, 0, 59, 0
1, 223004, Note_on_c, 0, 43, 0
1, 223292, Note_on_c, 0, 48, 39
1, 223296, Note_on_c, 0, 60, 39
1, 223368, Note_on_c, 0, 48, 0
1, 223479, Note_on_c, 0, 60, 0
1, 223848, Note_on_c, 0, 77, 80
1, 223911, Note_on_c, 0, 77, 0
1, 223920, Note_on_c, 0, 75, 58
1, 223988, Note_on_c, 0, 74, 79
1, 223992, Note_on_c, 0, 75, 0
1, 224021, Note_on_c, 0, 74, 0
1, 224036, Note_on_c, 0, 72, 80
1, 224093, Note_on_c, 0, 59, 60
1, 224112, Note_on_c, 0, 62, 61
1, 224122, Note_on_c, 0, 72, 0
1, 224127, Note_on_c, 0, 79, 105
1, 224180, Note_on_c, 0, 62, 0
1, 224228, Note_on_c, 0, 55, 72
1, 224237, Note_on_c, 0, 79, 0
1, 224252, Note_on_c, 0, 59, 0
1, 224357, Note_on_c, 0, 55, 0
1, 224362, Note_on_c, 0, 67, 87
1, 224362, Note_on_c, 0, 79, 94
1, 224362, Note_on_c, 0, 63, 68
1, 224386, Note_on_c, 0, 60, 66
1, 224400, Note_on_c, 0, 67, 0
1, 224400, Note_on_c, 0, 79, 0
1, 224444, Note_on_c, 0, 60, 0
1, 224482, Note_on_c, 0, 63, 0
1, 224487, Note_on_c, 0, 55, 70
1, 224621, Note_on_c, 0, 55, 0
1, 224621, Note_on_c, 0, 79, 104
1, 224621, Note_on_c, 0, 67, 93
1, 224626, Note_on_c, 0, 65, 78
1, 224636, Note_on_c, 0, 62, 67
1, 224655, Note_on_c, 0, 79, 0
1, 224660, Note_on_c, 0, 67, 0
1, 224679, Note_on_c, 0, 65, 0
1, 224693, Note_on_c, 0, 62, 0
1, 224746, Note_on_c, 0, 55, 65
1, 224885, Note_on_c, 0, 55, 0
1, 224885, Note_on_c, 0, 79, 115
1, 224890, Note_on_c, 0, 67, 104
1, 224890, Note_on_c, 0, 63, 73
1, 224900, Note_on_c, 0, 60, 74
1, 224962, Note_on_c, 0, 60, 0
1, 224972, Note_on_c, 0, 63, 0
1, 225015, Note_on_c, 0, 55, 66
1, 225135, Note_on_c, 0, 63, 72
1, 225154, Note_on_c, 0, 67, 0
1, 225154, Note_on_c, 0, 60, 72
1, 225159, Note_on_c, 0, 55, 0
1, 225226, Note_on_c, 0, 63, 0
1, 225236, Note_on_c, 0, 60, 0
1, 225245, Note_on_c, 0, 55, 68
1, 225269, Note_on_c, 0, 79, 0
1, 225384, Note_on_c, 0, 55, 0
1, 225404, Note_on_c, 0, 63, 69
1, 225408, Note_on_c, 0, 77, 96
1, 225408, Note_on_c, 0, 60, 62
1, 225456, Note_on_c, 0, 63, 0
1, 225466, Note_on_c, 0, 75, 74
1, 225480, Note_on_c, 0, 60, 0
1, 225490, Note_on_c, 0, 77, 0
1, 225519, Note_on_c, 0, 55, 58
1, 225533, Note_on_c, 0, 74, 83
1, 225557, Note_on_c, 0, 75, 0
1, 225572, Note_on_c, 0, 74, 0
1, 225591, Note_on_c, 0, 72, 95
1, 225644, Note_on_c, 0, 72, 0
1, 225653, Note_on_c, 0, 55, 0
1, 225653, Note_on_c, 0, 59, 67
1, 225658, Note_on_c, 0, 62, 71
1, 225658, Note_on_c, 0, 79, 99
1, 225696, Note_on_c, 0, 79, 0
1, 225711, Note_on_c, 0, 62, 0
1, 225740, Note_on_c, 0, 59, 0
1, 225795, Note_on_c, 0, 55, 47
1, 225876, Note_on_c, 0, 55, 0
1, 225908, Note_on_c, 0, 79, 93
1, 225912, Note_on_c, 0, 67, 72
1, 225922, Note_on_c, 0, 63, 70
1, 225932, Note_on_c, 0, 60, 69
1, 225946, Note_on_c, 0, 79, 0
1, 225956, Note_on_c, 0, 67, 0
1, 225989, Note_on_c, 0, 63, 0
1, 225989, Note_on_c, 0, 60, 0
1, 226004, Note_on_c, 0, 55, 63
1, 226148, Note_on_c, 0, 79, 101
1, 226152, Note_on_c, 0, 67, 85
1, 226162, Note_on_c, 0, 65, 76
1, 226172, Note_on_c, 0, 55, 0
1, 226176, Note_on_c, 0, 62, 70
1, 226191, Note_on_c, 0, 79, 0
1, 226196, Note_on_c, 0, 67, 0
1, 226229, Note_on_c, 0, 65, 0
1, 226244, Note_on_c, 0, 62, 0
1, 226258, Note_on_c, 0, 55, 81
1, 226402, Note_on_c, 0, 79, 113
1, 226407, Note_on_c, 0, 67, 100
1, 226416, Note_on_c, 0, 63, 85
1, 226431, Note_on_c, 0, 60, 81
1, 226436, Note_on_c, 0, 55, 0
1, 226527, Note_on_c, 0, 55, 70
1, 226532, Note_on_c, 0, 63, 0
1, 226556, Note_on_c, 0, 60, 0
1, 226666, Note_on_c, 0, 67, 0
1, 226666, Note_on_c, 0, 63, 83
1, 226680, Note_on_c, 0, 60, 59
1, 226685, Note_on_c, 0, 55, 0
1, 226752, Note_on_c, 0, 63, 0
1, 226776, Note_on_c, 0, 55, 76
1, 226796, Note_on_c, 0, 60, 0
1, 226853, Note_on_c, 0, 79, 0
1, 226916, Note_on_c, 0, 55, 0
1, 226920, Note_on_c, 0, 63, 80
1, 226925, Note_on_c, 0, 77, 97
1, 226935, Note_on_c, 0, 60, 61
1, 226968, Note_on_c, 0, 63, 0
1, 226968, Note_on_c, 0, 75, 83
1, 226988, Note_on_c, 0, 77, 0
1, 227045, Note_on_c, 0, 55, 38
1, 227050, Note_on_c, 0, 74, 92
1, 227055, Note_on_c, 0, 60, 0
1, 227079, Note_on_c, 0, 75, 0
1, 227093, Note_on_c, 0, 74, 0
1, 227098, Note_on_c, 0, 72, 88
1, 227136, Note_on_c, 0, 72, 0
1, 227170, Note_on_c, 0, 55, 0
1, 227189, Note_on_c, 0, 71, 99
1, 227204, Note_on_c, 0, 74, 101
1, 227213, Note_on_c, 0, 80, 107
1, 227444, Note_on_c, 0, 74, 0
1, 227477, Note_on_c, 0, 53, 106
1, 227482, Note_on_c, 0, 41, 104
1, 227511, Note_on_c, 0, 41, 0
1, 227549, Note_on_c, 0, 53, 0
1, 227564, Note_on_c, 0, 71, 0
1, 227636, Note_on_c, 0, 80, 0
1, 227760, Note_on_c, 0, 65, 111
1, 227765, Note_on_c, 0, 53, 103
1, 227885, Note_on_c, 0, 65, 0
1, 227933, Note_on_c, 0, 53, 0
1, 227996, Note_on_c, 0, 72, 103
1, 228020, Note_on_c, 0, 75, 101
1, 228020, Note_on_c, 0, 79, 113
1, 228269, Note_on_c, 0, 39, 100
1, 228269, Note_on_c, 0, 51, 100
1, 228308, Note_on_c, 0, 39, 0
1, 228308, Note_on_c, 0, 51, 0
1, 228519, Note_on_c, 0, 63, 106
1, 228528, Note_on_c, 0, 79, 0
1, 228528, Note_on_c, 0, 51, 104
1, 228591, Note_on_c, 0, 51, 0
1, 228624, Note_on_c, 0, 63, 0
1, 228677, Note_on_c, 0, 72, 0
1, 228706, Note_on_c, 0, 75, 0
1, 228807, Note_on_c, 0, 62, 110
1, 228812, Note_on_c, 0, 50, 110
1, 228941, Note_on_c, 0, 50, 0
1, 228975, Note_on_c, 0, 62, 0
1, 229056, Note_on_c, 0, 74, 94
1, 229061, Note_on_c, 0, 77, 106
1, 229080, Note_on_c, 0, 83, 103
1, 229133, Note_on_c, 0, 74, 0
1, 229143, Note_on_c, 0, 77, 0
1, 229191, Note_on_c, 0, 83, 0
1, 229340, Note_on_c, 0, 83, 103
1, 229340, Note_on_c, 0, 77, 112
1, 229344, Note_on_c, 0, 86, 110
1, 229436, Note_on_c, 0, 77, 0
1, 229503, Note_on_c, 0, 83, 0
1, 229551, Note_on_c, 0, 86, 0
1, 229647, Note_on_c, 0, 89, 119
1, 229647, Note_on_c, 0, 86, 101
1, 229647, Note_on_c, 0, 79, 117
1, 229652, Note_on_c, 0, 59, 86
1, 229652, Note_on_c, 0, 47, 79
1, 229752, Note_on_c, 0, 59, 0
1, 229786, Note_on_c, 0, 47, 0
1, 229786, Note_on_c, 0, 79, 0
1, 229858, Note_on_c, 0, 89, 0
1, 229863, Note_on_c, 0, 86, 0
1, 231048, Note_on_c, 0, 61, 115
1, 231053, Note_on_c, 0, 49, 108
1, 231212, Note_on_c, 0, 61, 0
1, 231236, Note_on_c, 0, 49, 0
1, 231336, Note_on_c, 0, 70, 107
1, 231336, Note_on_c, 0, 76, 108
1, 231341, Note_on_c, 0, 67, 105
1, 231346, Note_on_c, 0, 58, 113
1, 231356, Note_on_c, 0, 46, 111
1, 231370, Note_on_c, 0, 67, 0
1, 231380, Note_on_c, 0, 70, 0
1, 231394, Note_on_c, 0, 76, 0
1, 231437, Note_on_c, 0, 58, 0
1, 231480, Note_on_c, 0, 46, 0
1, 231624, Note_on_c, 0, 70, 107
1, 231624, Note_on_c, 0, 79, 111
1, 231624, Note_on_c, 0, 76, 104
1, 231634, Note_on_c, 0, 55, 106
1, 231634, Note_on_c, 0, 43, 105
1, 231720, Note_on_c, 0, 55, 0
1, 231749, Note_on_c, 0, 43, 0
1, 231764, Note_on_c, 0, 70, 0
1, 231764, Note_on_c, 0, 76, 0
1, 231768, Note_on_c, 0, 79, 0
1, 232004, Note_on_c, 0, 73, 104
1, 232004, Note_on_c, 0, 79, 110
1, 232004, Note_on_c, 0, 82, 117
1, 232013, Note_on_c, 0, 52, 110
1, 232018, Note_on_c, 0, 40, 110
1, 232349, Note_on_c, 0, 52, 0
1, 232359, Note_on_c, 0, 73, 0
1, 232402, Note_on_c, 0, 40, 0
1, 232460, Note_on_c, 0, 82, 0
1, 232493, Note_on_c, 0, 79, 0
1, 234308, Note_on_c, 0, 53, 33
1, 234576, Note_on_c, 0, 56, 39
1, 234730, Note_on_c, 0, 53, 0
1, 234860, Note_on_c, 0, 60, 38
1, 234932, Note_on_c, 0, 56, 0
1, 235124, Note_on_c, 0, 52, 43
1, 235128, Note_on_c, 0, 60, 0
1, 235388, Note_on_c, 0, 55, 40
1, 235604, Note_on_c, 0, 52, 0
1, 235632, Note_on_c, 0, 58, 51
1, 235704, Note_on_c, 0, 55, 0
1, 235892, Note_on_c, 0, 72, 75
1, 235916, Note_on_c, 0, 58, 0
1, 235920, Note_on_c, 0, 53, 37
1, 236165, Note_on_c, 0, 56, 48
1, 236266, Note_on_c, 0, 72, 0
1, 236420, Note_on_c, 0, 60, 53
1, 236434, Note_on_c, 0, 53, 0
1, 236444, Note_on_c, 0, 56, 0
1, 236664, Note_on_c, 0, 72, 65
1, 236669, Note_on_c, 0, 60, 0
1, 236736, Note_on_c, 0, 52, 21
1, 236943, Note_on_c, 0, 55, 39
1, 236976, Note_on_c, 0, 72, 0
1, 236996, Note_on_c, 0, 52, 0
1, 237087, Note_on_c, 0, 55, 0
1, 237154, Note_on_c, 0, 58, 50
1, 237226, Note_on_c, 0, 72, 73
1, 237236, Note_on_c, 0, 58, 0
1, 237288, Note_on_c, 0, 72, 0
1, 237389, Note_on_c, 0, 53, 33
1, 237399, Note_on_c, 0, 73, 63
1, 237648, Note_on_c, 0, 56, 43
1, 237903, Note_on_c, 0, 60, 37
1, 237922, Note_on_c, 0, 56, 0
1, 237951, Note_on_c, 0, 53, 0
1, 237951, Note_on_c, 0, 72, 46
1, 237965, Note_on_c, 0, 73, 0
1, 238114, Note_on_c, 0, 60, 0
1, 238205, Note_on_c, 0, 52, 46
1, 238258, Note_on_c, 0, 72, 0
1, 238455, Note_on_c, 0, 55, 37
1, 238637, Note_on_c, 0, 52, 0
1, 238666, Note_on_c, 0, 55, 0
1, 238671, Note_on_c, 0, 58, 58
1, 238776, Note_on_c, 0, 84, 81
1, 238815, Note_on_c, 0, 84, 0
1, 238829, Note_on_c, 0, 58, 0
1, 238911, Note_on_c, 0, 85, 77
1, 238911, Note_on_c, 0, 53, 43
1, 239175, Note_on_c, 0, 56, 39
1, 239434, Note_on_c, 0, 56, 0
1, 239448, Note_on_c, 0, 85, 0
1, 239453, Note_on_c, 0, 60, 30
1, 239458, Note_on_c, 0, 53, 0
1, 239472, Note_on_c, 0, 84, 45
1, 239573, Note_on_c, 0, 60, 0
1, 239592, Note_on_c, 0, 84, 0
1, 239703, Note_on_c, 0, 52, 44
1, 239957, Note_on_c, 0, 55, 51
1, 240192, Note_on_c, 0, 58, 60
1, 240250, Note_on_c, 0, 55, 0
1, 240260, Note_on_c, 0, 52, 0
1, 240274, Note_on_c, 0, 60, 71
1, 240418, Note_on_c, 0, 61, 78
1, 240428, Note_on_c, 0, 60, 0
1, 240432, Note_on_c, 0, 58, 0
1, 240447, Note_on_c, 0, 53, 44
1, 240677, Note_on_c, 0, 53, 0
1, 240687, Note_on_c, 0, 56, 64
1, 240855, Note_on_c, 0, 56, 0
1, 240922, Note_on_c, 0, 60, 72
1, 240922, Note_on_c, 0, 53, 51
1, 240980, Note_on_c, 0, 61, 0
1, 241028, Note_on_c, 0, 60, 0
1, 241066, Note_on_c, 0, 53, 0
1, 241148, Note_on_c, 0, 54, 78
1, 241392, Note_on_c, 0, 57, 85
1, 241604, Note_on_c, 0, 57, 0
1, 241637, Note_on_c, 0, 63, 75
1, 241685, Note_on_c, 0, 54, 0
1, 241704, Note_on_c, 0, 84, 101
1, 241829, Note_on_c, 0, 63, 0
1, 241844, Note_on_c, 0, 72, 105
1, 241868, Note_on_c, 0, 84, 0
1, 241868, Note_on_c, 0, 55, 67
1, 242084, Note_on_c, 0, 60, 78
1, 242266, Note_on_c, 0, 55, 0
1, 242314, Note_on_c, 0, 60, 0
1, 242338, Note_on_c, 0, 63, 70
1, 242477, Note_on_c, 0, 72, 0
1, 242525, Note_on_c, 0, 63, 0
1, 242544, Note_on_c, 0, 74, 88
1, 242554, Note_on_c, 0, 55, 65
1, 242578, Note_on_c, 0, 74, 0
1, 242597, Note_on_c, 0, 75, 79
1, 242640, Note_on_c, 0, 75, 0
1, 242655, Note_on_c, 0, 74, 79
1, 242703, Note_on_c, 0, 74, 0
1, 242732, Note_on_c, 0, 75, 58
1, 242780, Note_on_c, 0, 75, 0
1, 242784, Note_on_c, 0, 59, 49
1, 242794, Note_on_c, 0, 74, 77
1, 242832, Note_on_c, 0, 74, 0
1, 242837, Note_on_c, 0, 75, 84
1, 242904, Note_on_c, 0, 74, 74
1, 242948, Note_on_c, 0, 75, 0
1, 242996, Note_on_c, 0, 74, 0
1, 242996, Note_on_c, 0, 59, 0
1, 243005, Note_on_c, 0, 72, 91
1, 243020, Note_on_c, 0, 65, 62
1, 243111, Note_on_c, 0, 72, 0
1, 243111, Note_on_c, 0, 65, 0
1, 243120, Note_on_c, 0, 74, 51
1, 243226, Note_on_c, 0, 55, 0
1, 243245, Note_on_c, 0, 74, 0
1, 243260, Note_on_c, 0, 72, 75
1, 243264, Note_on_c, 0, 63, 48
1, 243274, Note_on_c, 0, 60, 39
1, 243317, Note_on_c, 0, 63, 0
1, 243394, Note_on_c, 0, 67, 61
1, 243408, Note_on_c, 0, 72, 0
1, 243447, Note_on_c, 0, 67, 0
1, 243504, Note_on_c, 0, 63, 58
1, 243567, Note_on_c, 0, 63, 0
1, 243620, Note_on_c, 0, 60, 0
1, 243620, Note_on_c, 0, 67, 78
1, 243677, Note_on_c, 0, 67, 0
1, 243735, Note_on_c, 0, 63, 56
1, 243797, Note_on_c, 0, 63, 0
1, 243831, Note_on_c, 0, 67, 63
1, 243946, Note_on_c, 0, 67, 0
1, 243970, Note_on_c, 0, 65, 71
1, 243970, Note_on_c, 0, 55, 90
1, 244076, Note_on_c, 0, 67, 57
1, 244090, Note_on_c, 0, 65, 0
1, 244200, Note_on_c, 0, 65, 61
1, 244215, Note_on_c, 0, 57, 90
1, 244220, Note_on_c, 0, 67, 0
1, 244292, Note_on_c, 0, 55, 0
1, 244306, Note_on_c, 0, 65, 0
1, 244311, Note_on_c, 0, 67, 67
1, 244416, Note_on_c, 0, 65, 60
1, 244440, Note_on_c, 0, 67, 0
1, 244445, Note_on_c, 0, 59, 78
1, 244460, Note_on_c, 0, 57, 0
1, 244527, Note_on_c, 0, 67, 80
1, 244556, Note_on_c, 0, 59, 0
1, 244560, Note_on_c, 0, 65, 0
1, 244565, Note_on_c, 0, 67, 0
1, 244704, Note_on_c, 0, 60, 86
1, 244704, Note_on_c, 0, 63, 75
1, 244748, Note_on_c, 0, 60, 0
1, 244834, Note_on_c, 0, 60, 72
1, 244853, Note_on_c, 0, 63, 0
1, 244877, Note_on_c, 0, 60, 0
1, 244930, Note_on_c, 0, 55, 66
1, 245045, Note_on_c, 0, 60, 71
1, 245050, Note_on_c, 0, 55, 0
1, 245175, Note_on_c, 0, 60, 0
1, 245175, Note_on_c, 0, 51, 78
1, 245242, Note_on_c, 0, 51, 0
1, 245300, Note_on_c, 0, 55, 63
1, 245429, Note_on_c, 0, 67, 89
1, 245434, Note_on_c, 0, 55, 0
1, 245434, Note_on_c, 0, 53, 62
1, 245564, Note_on_c, 0, 53, 0
1, 245568, Note_on_c, 0, 55, 64
1, 245679, Note_on_c, 0, 69, 88
1, 245688, Note_on_c, 0, 55, 0
1, 245688, Note_on_c, 0, 53, 59
1, 245736, Note_on_c, 0, 67, 0
1, 245780, Note_on_c, 0, 53, 0
1, 245794, Note_on_c, 0, 55, 59
1, 245900, Note_on_c, 0, 69, 0
1, 245924, Note_on_c, 0, 55, 0
1, 245924, Note_on_c, 0, 71, 76
1, 245948, Note_on_c, 0, 53, 59
1, 246020, Note_on_c, 0, 53, 0
1, 246053, Note_on_c, 0, 55, 39
1, 246164, Note_on_c, 0, 71, 0
1, 246173, Note_on_c, 0, 55, 0
1, 246178, Note_on_c, 0, 72, 96
1, 246178, Note_on_c, 0, 51, 67
1, 246279, Note_on_c, 0, 51, 0
1, 246279, Note_on_c, 0, 55, 44
1, 246404, Note_on_c, 0, 51, 62
1, 246408, Note_on_c, 0, 55, 0
1, 246437, Note_on_c, 0, 72, 0
1, 246500, Note_on_c, 0, 55, 63
1, 246528, Note_on_c, 0, 51, 0
1, 246620, Note_on_c, 0, 51, 53
1, 246634, Note_on_c, 0, 55, 0
1, 246740, Note_on_c, 0, 55, 53
1, 246759, Note_on_c, 0, 51, 0
1, 246898, Note_on_c, 0, 79, 88
1, 246903, Note_on_c, 0, 55, 0
1, 246903, Note_on_c, 0, 53, 68
1, 246970, Note_on_c, 0, 53, 0
1, 246994, Note_on_c, 0, 55, 62
1, 247133, Note_on_c, 0, 55, 0
1, 247148, Note_on_c, 0, 81, 83
1, 247152, Note_on_c, 0, 53, 65
1, 247205, Note_on_c, 0, 53, 0
1, 247210, Note_on_c, 0, 79, 0
1, 247234, Note_on_c, 0, 55, 49
1, 247368, Note_on_c, 0, 53, 63
1, 247373, Note_on_c, 0, 55, 0
1, 247383, Note_on_c, 0, 83, 78
1, 247421, Note_on_c, 0, 81, 0
1, 247484, Note_on_c, 0, 55, 52
1, 247503, Note_on_c, 0, 53, 0
1, 247623, Note_on_c, 0, 55, 0
1, 247647, Note_on_c, 0, 51, 62
1, 247656, Note_on_c, 0, 84, 103
1, 247661, Note_on_c, 0, 83, 0
1, 247738, Note_on_c, 0, 51, 0
1, 247762, Note_on_c, 0, 55, 44
1, 247901, Note_on_c, 0, 55, 0
1, 247901, Note_on_c, 0, 51, 60
1, 248016, Note_on_c, 0, 55, 45
1, 248031, Note_on_c, 0, 51, 0
1, 248132, Note_on_c, 0, 51, 52
1, 248141, Note_on_c, 0, 55, 0
1, 248223, Note_on_c, 0, 55, 82
1, 248242, Note_on_c, 0, 51, 0
1, 248266, Note_on_c, 0, 55, 0
1, 248376, Note_on_c, 0, 52, 73
1, 248386, Note_on_c, 0, 82, 113
1, 248453, Note_on_c, 0, 84, 0
1, 248492, Note_on_c, 0, 52, 0
1, 248506, Note_on_c, 0, 60, 69
1, 248616, Note_on_c, 0, 52, 60
1, 248636, Note_on_c, 0, 60, 0
1, 248727, Note_on_c, 0, 60, 47
1, 248746, Note_on_c, 0, 52, 0
1, 248861, Note_on_c, 0, 60, 0
1, 248861, Note_on_c, 0, 52, 64
1, 248962, Note_on_c, 0, 60, 54
1, 248991, Note_on_c, 0, 52, 0
1, 249087, Note_on_c, 0, 80, 101
1, 249096, Note_on_c, 0, 60, 0
1, 249101, Note_on_c, 0, 53, 79
1, 249159, Note_on_c, 0, 82, 0
1, 249192, Note_on_c, 0, 53, 0
1, 249197, Note_on_c, 0, 60, 54
1, 249332, Note_on_c, 0, 60, 0
1, 249336, Note_on_c, 0, 53, 70
1, 249442, Note_on_c, 0, 60, 51
1, 249456, Note_on_c, 0, 53, 0
1, 249567, Note_on_c, 0, 60, 0
1, 249572, Note_on_c, 0, 53, 52
1, 249672, Note_on_c, 0, 60, 48
1, 249701, Note_on_c, 0, 53, 0
1, 249807, Note_on_c, 0, 55, 78
1, 249807, Note_on_c, 0, 77, 98
1, 249816, Note_on_c, 0, 60, 0
1, 249831, Note_on_c, 0, 80, 0
1, 249912, Note_on_c, 0, 55, 0
1, 249922, Note_on_c, 0, 59, 60
1, 250028, Note_on_c, 0, 59, 0
1, 250032, Note_on_c, 0, 55, 55
1, 250148, Note_on_c, 0, 59, 47
1, 250167, Note_on_c, 0, 55, 0
1, 250253, Note_on_c, 0, 55, 60
1, 250272, Note_on_c, 0, 59, 0
1, 250364, Note_on_c, 0, 59, 49
1, 250388, Note_on_c, 0, 55, 0
1, 250488, Note_on_c, 0, 59, 0
1, 250508, Note_on_c, 0, 56, 75
1, 250512, Note_on_c, 0, 75, 84
1, 250570, Note_on_c, 0, 77, 0
1, 250594, Note_on_c, 0, 56, 0
1, 250637, Note_on_c, 0, 60, 59
1, 250714, Note_on_c, 0, 60, 0
1, 250767, Note_on_c, 0, 56, 64
1, 250853, Note_on_c, 0, 56, 0
1, 250887, Note_on_c, 0, 60, 72
1, 250973, Note_on_c, 0, 60, 0
1, 250997, Note_on_c, 0, 56, 63
1, 251079, Note_on_c, 0, 56, 0
1, 251098, Note_on_c, 0, 60, 64
1, 251122, Note_on_c, 0, 75, 0
1, 251213, Note_on_c, 0, 73, 97
1, 251228, Note_on_c, 0, 60, 0
1, 251237, Note_on_c, 0, 53, 69
1, 251352, Note_on_c, 0, 53, 0
1, 251357, Note_on_c, 0, 56, 70
1, 251477, Note_on_c, 0, 53, 62
1, 251496, Note_on_c, 0, 56, 0
1, 251578, Note_on_c, 0, 56, 62
1, 251602, Note_on_c, 0, 53, 0
1, 251717, Note_on_c, 0, 56, 0
1, 251727, Note_on_c, 0, 53, 46
1, 251823, Note_on_c, 0, 56, 45
1, 251866, Note_on_c, 0, 53, 0
1, 251895, Note_on_c, 0, 73, 0
1, 251933, Note_on_c, 0, 56, 0
1, 251948, Note_on_c, 0, 72, 99
1, 251962, Note_on_c, 0, 55, 63
1, 252063, Note_on_c, 0, 55, 0
1, 252063, Note_on_c, 0, 63, 62
1, 252149, Note_on_c, 0, 63, 0
1, 252178, Note_on_c, 0, 55, 46
1, 252293, Note_on_c, 0, 63, 62
1, 252303, Note_on_c, 0, 55, 0
1, 252394, Note_on_c, 0, 63, 0
1, 252408, Note_on_c, 0, 55, 53
1, 252519, Note_on_c, 0, 63, 50
1, 252528, Note_on_c, 0, 55, 0
1, 252605, Note_on_c, 0, 63, 0
1, 252605, Note_on_c, 0, 72, 0
1, 252658, Note_on_c, 0, 55, 43
1, 252672, Note_on_c, 0, 71, 78
1, 252754, Note_on_c, 0, 55, 0
1, 252797, Note_on_c, 0, 62, 52
1, 252860, Note_on_c, 0, 62, 0
1, 252908, Note_on_c, 0, 55, 50
1, 252989, Note_on_c, 0, 55, 0
1, 253032, Note_on_c, 0, 71, 0
1, 253056, Note_on_c, 0, 62, 42
1, 253119, Note_on_c, 0, 62, 0
1, 253162, Note_on_c, 0, 55, 55
1, 253244, Note_on_c, 0, 55, 0
1, 253277, Note_on_c, 0, 62, 45
1, 253335, Note_on_c, 0, 62, 0
1, 253392, Note_on_c, 0, 56, 72
1, 253402, Note_on_c, 0, 63, 54
1, 253474, Note_on_c, 0, 63, 0
1, 253527, Note_on_c, 0, 72, 61
1, 253618, Note_on_c, 0, 72, 0
1, 253661, Note_on_c, 0, 63, 39
1, 253671, Note_on_c, 0, 56, 0
1, 253724, Note_on_c, 0, 63, 0
1, 253800, Note_on_c, 0, 72, 66
1, 253858, Note_on_c, 0, 72, 0
1, 253901, Note_on_c, 0, 63, 54
1, 253959, Note_on_c, 0, 63, 0
1, 254026, Note_on_c, 0, 72, 73
1, 254084, Note_on_c, 0, 72, 0
1, 254132, Note_on_c, 0, 84, 113
1, 254132, Note_on_c, 0, 63, 61
1, 254208, Note_on_c, 0, 63, 0
1, 254280, Note_on_c, 0, 72, 76
1, 254348, Note_on_c, 0, 72, 0
1, 254381, Note_on_c, 0, 63, 58
1, 254482, Note_on_c, 0, 63, 0
1, 254525, Note_on_c, 0, 72, 75
1, 254650, Note_on_c, 0, 63, 72
1, 254679, Note_on_c, 0, 72, 0
1, 254784, Note_on_c, 0, 63, 0
1, 254808, Note_on_c, 0, 72, 62
1, 254813, Note_on_c, 0, 84, 0
1, 254938, Note_on_c, 0, 72, 0
1, 254938, Note_on_c, 0, 87, 107
1, 254962, Note_on_c, 0, 63, 62
1, 255034, Note_on_c, 0, 63, 0
1, 255120, Note_on_c, 0, 72, 69
1, 255221, Note_on_c, 0, 72, 0
1, 255240, Note_on_c, 0, 87, 0
1, 255255, Note_on_c, 0, 63, 64
1, 255336, Note_on_c, 0, 63, 0
1, 255408, Note_on_c, 0, 72, 67
1, 255495, Note_on_c, 0, 72, 0
1, 255548, Note_on_c, 0, 63, 61
1, 255615, Note_on_c, 0, 63, 0
1, 255716, Note_on_c, 0, 72, 48
1, 255783, Note_on_c, 0, 72, 0
1, 255797, Note_on_c, 0, 30, 99
1, 255826, Note_on_c, 0, 63, 59
1, 255888, Note_on_c, 0, 63, 0
1, 255980, Note_on_c, 0, 72, 50
1, 256037, Note_on_c, 0, 72, 0
1, 256061, Note_on_c, 0, 63, 59
1, 256128, Note_on_c, 0, 63, 0
1, 256220, Note_on_c, 0, 72, 64
1, 256272, Note_on_c, 0, 72, 0
1, 256306, Note_on_c, 0, 63, 58
1, 256378, Note_on_c, 0, 63, 0
1, 256445, Note_on_c, 0, 72, 71
1, 256460, Note_on_c, 0, 30, 0
1, 256503, Note_on_c, 0, 72, 0
1, 256536, Note_on_c, 0, 31, 113
1, 256556, Note_on_c, 0, 63, 63
1, 256690, Note_on_c, 0, 63, 0
1, 256700, Note_on_c, 0, 72, 70
1, 256772, Note_on_c, 0, 72, 0
1, 256781, Note_on_c, 0, 63, 59
1, 256920, Note_on_c, 0, 63, 0
1, 256935, Note_on_c, 0, 72, 72
1, 256992, Note_on_c, 0, 72, 0
1, 257026, Note_on_c, 0, 63, 41
1, 257165, Note_on_c, 0, 63, 0
1, 257184, Note_on_c, 0, 72, 75
1, 257194, Note_on_c, 0, 31, 0
1, 257276, Note_on_c, 0, 72, 0
1, 257300, Note_on_c, 0, 32, 105
1, 257328, Note_on_c, 0, 63, 68
1, 257429, Note_on_c, 0, 63, 0
1, 257468, Note_on_c, 0, 72, 73
1, 257540, Note_on_c, 0, 72, 0
1, 257588, Note_on_c, 0, 63, 69
1, 257674, Note_on_c, 0, 63, 0
1, 257717, Note_on_c, 0, 72, 66
1, 257780, Note_on_c, 0, 72, 0
1, 257823, Note_on_c, 0, 63, 63
1, 257880, Note_on_c, 0, 63, 0
1, 257948, Note_on_c, 0, 72, 69
1, 258005, Note_on_c, 0, 72, 0
1, 258048, Note_on_c, 0, 29, 97
1, 258068, Note_on_c, 0, 62, 66
1, 258116, Note_on_c, 0, 32, 0
1, 258197, Note_on_c, 0, 62, 0
1, 258207, Note_on_c, 0, 72, 72
1, 258288, Note_on_c, 0, 72, 0
1, 258327, Note_on_c, 0, 62, 45
1, 258442, Note_on_c, 0, 62, 0
1, 258476, Note_on_c, 0, 72, 65
1, 258528, Note_on_c, 0, 72, 0
1, 258591, Note_on_c, 0, 62, 42
1, 258672, Note_on_c, 0, 62, 0
1, 258740, Note_on_c, 0, 72, 49
1, 258797, Note_on_c, 0, 72, 0
1, 258836, Note_on_c, 0, 31, 78
1, 258850, Note_on_c, 0, 62, 63
1, 258898, Note_on_c, 0, 29, 0
1, 258960, Note_on_c, 0, 62, 0
1, 258999, Note_on_c, 0, 71, 47
1, 259061, Note_on_c, 0, 71, 0
1, 259133, Note_on_c, 0, 62, 44
1, 259205, Note_on_c, 0, 62, 0
1, 259263, Note_on_c, 0, 71, 43
1, 259330, Note_on_c, 0, 71, 0
1, 259421, Note_on_c, 0, 62, 41
1, 259493, Note_on_c, 0, 62, 0
1, 259570, Note_on_c, 0, 71, 24
1, 259647, Note_on_c, 0, 71, 0
1, 259728, Note_on_c, 0, 63, 33
1, 259733, Note_on_c, 0, 36, 45
1, 259767, Note_on_c, 0, 31, 0
1, 259872, Note_on_c, 0, 72, 53
1, 259997, Note_on_c, 0, 63, 0
1, 260002, Note_on_c, 0, 72, 0
1, 260079, Note_on_c, 0, 67, 42
1, 260117, Note_on_c, 0, 36, 0
1, 260146, Note_on_c, 0, 67, 0
1, 260189, Note_on_c, 0, 63, 58
1, 260261, Note_on_c, 0, 63, 0
1, 260328, Note_on_c, 0, 67, 63
1, 260434, Note_on_c, 0, 67, 0
1, 260434, Note_on_c, 0, 63, 60
1, 260520, Note_on_c, 0, 63, 0
1, 260602, Note_on_c, 0, 62, 54
1, 260703, Note_on_c, 0, 62, 0
1, 260741, Note_on_c, 0, 65, 37
1, 260804, Note_on_c, 0, 65, 0
1, 260832, Note_on_c, 0, 62, 16
1, 260837, Note_on_c, 0, 67, 56
1, 260842, Note_on_c, 0, 79, 55
1, 260890, Note_on_c, 0, 67, 0
1, 260909, Note_on_c, 0, 79, 0
1, 260957, Note_on_c, 0, 65, 37
1, 260962, Note_on_c, 0, 81, 75
1, 261024, Note_on_c, 0, 65, 0
1, 261048, Note_on_c, 0, 81, 0
1, 261077, Note_on_c, 0, 67, 52
1, 261077, Note_on_c, 0, 83, 68
1, 261140, Note_on_c, 0, 67, 0
1, 261154, Note_on_c, 0, 83, 0
1, 261183, Note_on_c, 0, 79, 84
1, 261192, Note_on_c, 0, 65, 39
1, 261226, Note_on_c, 0, 62, 0
1, 261240, Note_on_c, 0, 79, 0
1, 261260, Note_on_c, 0, 65, 0
1, 261327, Note_on_c, 0, 60, 47
1, 261327, Note_on_c, 0, 84, 81
1, 261365, Note_on_c, 0, 84, 0
1, 261413, Note_on_c, 0, 60, 0
1, 261432, Note_on_c, 0, 63, 42
1, 261504, Note_on_c, 0, 63, 0
1, 261591, Note_on_c, 0, 67, 41
1, 261591, Note_on_c, 0, 72, 73
1, 261648, Note_on_c, 0, 67, 0
1, 261648, Note_on_c, 0, 72, 0
1, 261692, Note_on_c, 0, 63, 52
1, 261711, Note_on_c, 0, 74, 76
1, 261749, Note_on_c, 0, 63, 0
1, 261816, Note_on_c, 0, 74, 0
1, 261826, Note_on_c, 0, 75, 75
1, 261831, Note_on_c, 0, 67, 53
1, 261932, Note_on_c, 0, 63, 46
1, 261936, Note_on_c, 0, 67, 0
1, 261951, Note_on_c, 0, 72, 84
1, 261960, Note_on_c, 0, 75, 0
1, 262004, Note_on_c, 0, 63, 0
1, 262028, Note_on_c, 0, 72, 0
1, 262095, Note_on_c, 0, 62, 49
1, 262105, Note_on_c, 0, 79, 60
1, 262220, Note_on_c, 0, 79, 0
1, 262220, Note_on_c, 0, 65, 40
1, 262292, Note_on_c, 0, 65, 0
1, 262325, Note_on_c, 0, 71, 51
1, 262344, Note_on_c, 0, 67, 49
1, 262388, Note_on_c, 0, 71, 0
1, 262407, Note_on_c, 0, 67, 0
1, 262455, Note_on_c, 0, 72, 67
1, 262469, Note_on_c, 0, 65, 50
1, 262522, Note_on_c, 0, 65, 0
1, 262536, Note_on_c, 0, 72, 0
1, 262584, Note_on_c, 0, 74, 62
1, 262594, Note_on_c, 0, 67, 50
1, 262656, Note_on_c, 0, 67, 0
1, 262661, Note_on_c, 0, 74, 0
1, 262685, Note_on_c, 0, 65, 38
1, 262700, Note_on_c, 0, 62, 0
1, 262704, Note_on_c, 0, 71, 43
1, 262752, Note_on_c, 0, 65, 0
1, 262767, Note_on_c, 0, 71, 0
1, 262834, Note_on_c, 0, 60, 45
1, 262844, Note_on_c, 0, 72, 63
1, 262935, Note_on_c, 0, 63, 56
1, 262997, Note_on_c, 0, 63, 0
1, 263064, Note_on_c, 0, 67, 52
1, 263127, Note_on_c, 0, 67, 0
1, 263180, Note_on_c, 0, 60, 0
1, 263180, Note_on_c, 0, 63, 55
1, 263184, Note_on_c, 0, 72, 0
1, 263252, Note_on_c, 0, 63, 0
1, 263328, Note_on_c, 0, 67, 36
1, 263415, Note_on_c, 0, 67, 0
1, 263424, Note_on_c, 0, 63, 54
1, 263482, Note_on_c, 0, 63, 0
1, 263559, Note_on_c, 0, 62, 55
1, 263693, Note_on_c, 0, 65, 42
1, 263765, Note_on_c, 0, 65, 0
1, 263804, Note_on_c, 0, 43, 71
1, 263818, Note_on_c, 0, 67, 43
1, 263876, Note_on_c, 0, 67, 0
1, 263890, Note_on_c, 0, 62, 0
1, 263909, Note_on_c, 0, 45, 84
1, 263924, Note_on_c, 0, 43, 0
1, 263933, Note_on_c, 0, 65, 46
1, 263986, Note_on_c, 0, 65, 0
1, 264020, Note_on_c, 0, 47, 70
1, 264039, Note_on_c, 0, 45, 0
1, 264058, Note_on_c, 0, 67, 63
1, 264120, Note_on_c, 0, 67, 0
1, 264130, Note_on_c, 0, 43, 75
1, 264140, Note_on_c, 0, 47, 0
1, 264188, Note_on_c, 0, 65, 34
1, 264240, Note_on_c, 0, 43, 0
1, 264255, Note_on_c, 0, 65, 0
1, 264288, Note_on_c, 0, 48, 92
1, 264288, Note_on_c, 0, 60, 59
1, 264322, Note_on_c, 0, 48, 0
1, 264413, Note_on_c, 0, 63, 61
1, 264480, Note_on_c, 0, 63, 0
1, 264572, Note_on_c, 0, 36, 99
1, 264586, Note_on_c, 0, 67, 48
1, 264644, Note_on_c, 0, 67, 0
1, 264672, Note_on_c, 0, 63, 59
1, 264677, Note_on_c, 0, 38, 86
1, 264692, Note_on_c, 0, 36, 0
1, 264749, Note_on_c, 0, 63, 0
1, 264788, Note_on_c, 0, 39, 84
1, 264821, Note_on_c, 0, 38, 0
1, 264826, Note_on_c, 0, 67, 55
1, 264888, Note_on_c, 0, 67, 0
1, 264903, Note_on_c, 0, 36, 92
1, 264922, Note_on_c, 0, 63, 53
1, 264932, Note_on_c, 0, 39, 0
1, 264951, Note_on_c, 0, 60, 0
1, 264980, Note_on_c, 0, 63, 0
1, 265023, Note_on_c, 0, 36, 0
1, 265055, Note_on_c, 0, 43, 79
1, 265076, Note_on_c, 0, 62, 51
1, 265134, Note_on_c, 0, 62, 0
1, 265154, Note_on_c, 0, 43, 0
1, 265214, Note_on_c, 0, 65, 51
1, 265272, Note_on_c, 0, 65, 0
1, 265340, Note_on_c, 0, 31, 75
1, 265344, Note_on_c, 0, 67, 51
1, 265397, Note_on_c, 0, 67, 0
1, 265445, Note_on_c, 0, 31, 0
1, 265464, Note_on_c, 0, 65, 49
1, 265464, Note_on_c, 0, 33, 76
1, 265527, Note_on_c, 0, 65, 0
1, 265584, Note_on_c, 0, 67, 52
1, 265589, Note_on_c, 0, 33, 0
1, 265594, Note_on_c, 0, 35, 47
1, 265637, Note_on_c, 0, 67, 0
1, 265685, Note_on_c, 0, 35, 0
1, 265708, Note_on_c, 0, 65, 52
1, 265714, Note_on_c, 0, 31, 63
1, 265761, Note_on_c, 0, 65, 0
1, 265863, Note_on_c, 0, 31, 0
1, 265916, Note_on_c, 0, 36, 61
1, 265918, Note_on_c, 0, 60, 47
1, 265918, Note_on_c, 0, 63, 44
1, 266098, Note_on_c, 0, 60, 0
1, 266110, Note_on_c, 0, 63, 0
1, 266127, Note_on_c, 0, 36, 0
1, 266976, Note_on_c, 0, 79, 112
1, 266981, Note_on_c, 0, 67, 113
1, 266981, Note_on_c, 0, 75, 100
1, 266986, Note_on_c, 0, 72, 114
1, 266986, Note_on_c, 0, 60, 95
1, 266996, Note_on_c, 0, 48, 86
1, 267000, Note_on_c, 0, 55, 94
1, 267005, Note_on_c, 0, 51, 82
1, 267240, Note_on_c, 0, 60, 0
1, 267250, Note_on_c, 0, 67, 0
1, 267260, Note_on_c, 0, 48, 0
1, 267274, Note_on_c, 0, 55, 0
1, 267284, Note_on_c, 0, 72, 0
1, 267298, Note_on_c, 0, 51, 0
1, 267322, Note_on_c, 0, 75, 0
1, 267327, Note_on_c, 0, 79, 0
1, 267917, Note_on_c, 0, 75, 107
1, 267917, Note_on_c, 0, 84, 116
1, 267922, Note_on_c, 0, 72, 119
1, 267922, Note_on_c, 0, 48, 113
1, 267922, Note_on_c, 0, 79, 110
1, 267927, Note_on_c, 0, 39, 95
1, 267932, Note_on_c, 0, 36, 92
1, 267936, Note_on_c, 0, 43, 95
1, 268373, Note_on_c, 0, 72, 0
1, 268383, Note_on_c, 0, 39, 0
1, 268392, Note_on_c, 0, 75, 0
1, 268397, Note_on_c, 0, 84, 0
1, 268402, Note_on_c, 0, 48, 0
1, 268402, Note_on_c, 0, 36, 0
1, 268426, Note_on_c, 0, 79, 0
1, 268431, Note_on_c, 0, 43, 0
1, 268441, End_track
0, 0, End_of_file