0, 0, Header, 0, 1, 480
1, 0, Start_track
1, 0, Tempo, 500000
1, 988, Note_on_c, 0, 70, 65
1, 998, Note_on_c, 0, 51, 16
1, 1555, Note_on_c, 0, 55, 16
1, 1828, Note_on_c, 0, 51, 0
1, 1876, Note_on_c, 0, 55, 0
1, 1943, Note_on_c, 0, 58, 27
1, 2188, Note_on_c, 0, 58, 0
1, 2380, Note_on_c, 0, 55, 20
1, 2659, Note_on_c, 0, 55, 0
1, 2827, Note_on_c, 0, 67, 43
1, 2831, Note_on_c, 0, 51, 21
1, 3014, Note_on_c, 0, 70, 0
1, 3268, Note_on_c, 0, 55, 20
1, 3335, Note_on_c, 0, 67, 0
1, 3542, Note_on_c, 0, 55, 0
1, 3638, Note_on_c, 0, 58, 41
1, 3652, Note_on_c, 0, 67, 55
1, 3729, Note_on_c, 0, 58, 0
1, 3820, Note_on_c, 0, 67, 0
1, 4017, Note_on_c, 0, 51, 0
1, 4046, Note_on_c, 0, 55, 19
1, 4156, Note_on_c, 0, 55, 0
1, 4459, Note_on_c, 0, 63, 39
1, 4463, Note_on_c, 0, 67, 72
1, 4463, Note_on_c, 0, 46, 38
1, 4910, Note_on_c, 0, 51, 36
1, 5337, Note_on_c, 0, 51, 0
1, 5404, Note_on_c, 0, 55, 25
1, 5807, Note_on_c, 0, 55, 0
1, 5817, Note_on_c, 0, 46, 0
1, 5827, Note_on_c, 0, 51, 23
1, 6047, Note_on_c, 0, 68, 38
1, 6071, Note_on_c, 0, 67, 0
1, 6211, Note_on_c, 0, 51, 0
1, 6273, Note_on_c, 0, 68, 0
1, 6335, Note_on_c, 0, 63, 0
1, 6340, Note_on_c, 0, 46, 39
1, 6345, Note_on_c, 0, 65, 39
1, 6379, Note_on_c, 0, 62, 23
1, 6772, Note_on_c, 0, 50, 39
1, 7012, Note_on_c, 0, 50, 0
1, 7204, Note_on_c, 0, 53, 25
1, 7550, Note_on_c, 0, 62, 0
1, 7579, Note_on_c, 0, 53, 0
1, 7588, Note_on_c, 0, 65, 0
1, 7679, Note_on_c, 0, 50, 29
1, 7795, Note_on_c, 0, 50, 0
1, 7905, Note_on_c, 0, 46, 0
1, 8227, Note_on_c, 0, 63, 65
1, 8241, Note_on_c, 0, 55, 53
1, 8246, Note_on_c, 0, 51, 47
1, 8745, Note_on_c, 0, 58, 38
1, 8774, Note_on_c, 0, 55, 0
1, 9215, Note_on_c, 0, 55, 25
1, 9230, Note_on_c, 0, 58, 0
1, 9604, Note_on_c, 0, 55, 0
1, 9647, Note_on_c, 0, 58, 34
1, 10060, Note_on_c, 0, 62, 58
1, 10070, Note_on_c, 0, 46, 66
1, 10070, Note_on_c, 0, 65, 75
1, 10123, Note_on_c, 0, 58, 0
1, 10151, Note_on_c, 0, 63, 0
1, 10156, Note_on_c, 0, 51, 0
1, 10502, Note_on_c, 0, 58, 51
1, 10703, Note_on_c, 0, 62, 0
1, 10963, Note_on_c, 0, 62, 43
1, 11015, Note_on_c, 0, 58, 0
1, 11423, Note_on_c, 0, 58, 51
1, 11438, Note_on_c, 0, 62, 0
1, 11543, Note_on_c, 0, 65, 0
1, 11764, Note_on_c, 0, 58, 0
1, 11961, Note_on_c, 0, 67, 54
1, 11971, Note_on_c, 0, 63, 40
1, 12009, Note_on_c, 0, 39, 34
1, 12043, Note_on_c, 0, 46, 0
1, 12254, Note_on_c, 0, 67, 0
1, 12268, Note_on_c, 0, 68, 69
1, 12326, Note_on_c, 0, 63, 0
1, 12393, Note_on_c, 0, 67, 54
1, 12417, Note_on_c, 0, 68, 0
1, 12455, Note_on_c, 0, 67, 0
1, 12499, Note_on_c, 0, 65, 64
1, 12595, Note_on_c, 0, 65, 0
1, 12614, Note_on_c, 0, 67, 76
1, 12835, Note_on_c, 0, 68, 72
1, 12883, Note_on_c, 0, 67, 0
1, 13055, Note_on_c, 0, 70, 80
1, 13084, Note_on_c, 0, 68, 0
1, 13286, Note_on_c, 0, 72, 78
1, 13295, Note_on_c, 0, 70, 0
1, 13507, Note_on_c, 0, 72, 0
1, 13521, Note_on_c, 0, 74, 52
1, 13780, Note_on_c, 0, 75, 44
1, 13790, Note_on_c, 0, 74, 0
1, 14001, Note_on_c, 0, 39, 0
1, 14164, Note_on_c, 0, 75, 0
1, 14174, Note_on_c, 0, 70, 41
1, 14726, Note_on_c, 0, 70, 0
1, 15542, Note_on_c, 0, 79, 49
1, 15542, Note_on_c, 0, 75, 16
1, 16027, Note_on_c, 0, 77, 59
1, 16031, Note_on_c, 0, 75, 0
1, 16036, Note_on_c, 0, 74, 42
1, 16094, Note_on_c, 0, 79, 0
1, 16401, Note_on_c, 0, 74, 0
1, 16435, Note_on_c, 0, 77, 0
1, 16435, Note_on_c, 0, 75, 54
1, 16444, Note_on_c, 0, 72, 48
1, 16713, Note_on_c, 0, 75, 0
1, 16886, Note_on_c, 0, 70, 55
1, 16895, Note_on_c, 0, 74, 64
1, 16905, Note_on_c, 0, 72, 0
1, 17332, Note_on_c, 0, 68, 48
1, 17337, Note_on_c, 0, 72, 63
1, 17347, Note_on_c, 0, 50, 40
1, 17361, Note_on_c, 0, 70, 0
1, 17409, Note_on_c, 0, 74, 0
1, 17735, Note_on_c, 0, 51, 55
1, 17740, Note_on_c, 0, 68, 0
1, 17755, Note_on_c, 0, 50, 0
1, 17755, Note_on_c, 0, 67, 57
1, 17759, Note_on_c, 0, 72, 0
1, 17759, Note_on_c, 0, 70, 78
1, 17899, Note_on_c, 0, 70, 0
1, 18110, Note_on_c, 0, 67, 0
1, 18119, Note_on_c, 0, 68, 66
1, 18139, Note_on_c, 0, 65, 50
1, 18163, Note_on_c, 0, 53, 52
1, 18297, Note_on_c, 0, 51, 0
1, 18532, Note_on_c, 0, 68, 0
1, 18532, Note_on_c, 0, 67, 80
1, 18547, Note_on_c, 0, 63, 48
1, 18556, Note_on_c, 0, 65, 0
1, 18561, Note_on_c, 0, 55, 49
1, 18662, Note_on_c, 0, 53, 0
1, 18835, Note_on_c, 0, 63, 0
1, 18998, Note_on_c, 0, 72, 83
1, 19007, Note_on_c, 0, 55, 0
1, 19012, Note_on_c, 0, 56, 41
1, 19027, Note_on_c, 0, 60, 46
1, 19075, Note_on_c, 0, 67, 0
1, 19439, Note_on_c, 0, 68, 73
1, 19459, Note_on_c, 0, 60, 0
1, 19463, Note_on_c, 0, 53, 42
1, 19473, Note_on_c, 0, 65, 40
1, 19502, Note_on_c, 0, 72, 0
1, 19555, Note_on_c, 0, 56, 0
1, 19876, Note_on_c, 0, 67, 69
1, 19900, Note_on_c, 0, 63, 38
1, 19905, Note_on_c, 0, 53, 0
1, 19915, Note_on_c, 0, 65, 0
1, 19919, Note_on_c, 0, 57, 56
1, 19934, Note_on_c, 0, 68, 0
1, 20356, Note_on_c, 0, 58, 48
1, 20361, Note_on_c, 0, 57, 0
1, 20769, Note_on_c, 0, 58, 0
1, 20783, Note_on_c, 0, 55, 36
1, 21235, Note_on_c, 0, 55, 0
1, 21263, Note_on_c, 0, 51, 28
1, 21652, Note_on_c, 0, 63, 0
1, 21700, Note_on_c, 0, 51, 0
1, 21825, Note_on_c, 0, 65, 41
1, 21825, Note_on_c, 0, 62, 16
1, 21854, Note_on_c, 0, 46, 36
1, 21892, Note_on_c, 0, 67, 0
1, 22425, Note_on_c, 0, 65, 0
1, 22425, Note_on_c, 0, 62, 0
1, 22425, Note_on_c, 0, 67, 40
1, 22689, Note_on_c, 0, 67, 0
1, 22857, Note_on_c, 0, 68, 41
1, 22915, Note_on_c, 0, 46, 0
1, 23126, Note_on_c, 0, 68, 0
1, 23347, Note_on_c, 0, 69, 25
1, 23726, Note_on_c, 0, 69, 0
1, 23999, Note_on_c, 0, 70, 39
1, 24038, Note_on_c, 0, 51, 20
1, 24505, Note_on_c, 0, 51, 0
1, 24508, Note_on_c, 0, 55, 29
1, 24878, Note_on_c, 0, 55, 0
1, 24988, Note_on_c, 0, 58, 17
1, 25147, Note_on_c, 0, 74, 42
1, 25214, Note_on_c, 0, 70, 0
1, 25372, Note_on_c, 0, 74, 0
1, 25382, Note_on_c, 0, 58, 0
1, 25382, Note_on_c, 0, 55, 35
1, 25396, Note_on_c, 0, 75, 29
1, 25502, Note_on_c, 0, 55, 0
1, 25579, Note_on_c, 0, 70, 55
1, 25583, Note_on_c, 0, 75, 0
1, 25684, Note_on_c, 0, 70, 0
1, 25799, Note_on_c, 0, 67, 48
1, 25814, Note_on_c, 0, 51, 30
1, 26068, Note_on_c, 0, 67, 0
1, 26255, Note_on_c, 0, 67, 52
1, 26275, Note_on_c, 0, 55, 34
1, 26284, Note_on_c, 0, 51, 0
1, 26438, Note_on_c, 0, 67, 0
1, 26606, Note_on_c, 0, 55, 0
1, 26683, Note_on_c, 0, 67, 59
1, 26711, Note_on_c, 0, 58, 35
1, 26831, Note_on_c, 0, 67, 0
1, 26836, Note_on_c, 0, 58, 0
1, 27153, Note_on_c, 0, 67, 63
1, 27220, Note_on_c, 0, 55, 21
1, 27307, Note_on_c, 0, 55, 0
1, 27326, Note_on_c, 0, 67, 0
1, 27724, Note_on_c, 0, 67, 60
1, 27729, Note_on_c, 0, 63, 38
1, 27791, Note_on_c, 0, 46, 34
1, 28262, Note_on_c, 0, 51, 31
1, 28747, Note_on_c, 0, 51, 0
1, 28751, Note_on_c, 0, 55, 20
1, 28823, Note_on_c, 0, 67, 0
1, 28891, Note_on_c, 0, 68, 46
1, 28958, Note_on_c, 0, 68, 0
1, 29020, Note_on_c, 0, 67, 32
1, 29097, Note_on_c, 0, 67, 0
1, 29124, Note_on_c, 0, 65, 26
1, 29215, Note_on_c, 0, 65, 0
1, 29222, Note_on_c, 0, 67, 45
1, 29251, Note_on_c, 0, 51, 33
1, 29342, Note_on_c, 0, 55, 0
1, 29447, Note_on_c, 0, 46, 0
1, 29457, Note_on_c, 0, 67, 0
1, 29476, Note_on_c, 0, 68, 49
1, 29611, Note_on_c, 0, 63, 0
1, 29697, Note_on_c, 0, 51, 0
1, 29774, Note_on_c, 0, 65, 44
1, 29774, Note_on_c, 0, 46, 41
1, 29788, Note_on_c, 0, 62, 27
1, 29807, Note_on_c, 0, 68, 0
1, 30225, Note_on_c, 0, 50, 39
1, 30403, Note_on_c, 0, 62, 0
1, 30479, Note_on_c, 0, 65, 0
1, 30643, Note_on_c, 0, 50, 0
1, 30671, Note_on_c, 0, 53, 42
1, 30873, Note_on_c, 0, 70, 61
1, 31084, Note_on_c, 0, 53, 0
1, 31099, Note_on_c, 0, 68, 66
1, 31118, Note_on_c, 0, 70, 0
1, 31156, Note_on_c, 0, 50, 36
1, 31295, Note_on_c, 0, 68, 0
1, 31315, Note_on_c, 0, 65, 73
1, 31367, Note_on_c, 0, 65, 0
1, 31444, Note_on_c, 0, 50, 0
1, 31559, Note_on_c, 0, 63, 83
1, 31574, Note_on_c, 0, 51, 50
1, 31819, Note_on_c, 0, 46, 0
1, 32006, Note_on_c, 0, 58, 52
1, 32404, Note_on_c, 0, 58, 0
1, 32457, Note_on_c, 0, 55, 55
1, 32927, Note_on_c, 0, 58, 48
1, 32990, Note_on_c, 0, 55, 0
1, 33311, Note_on_c, 0, 58, 0
1, 33331, Note_on_c, 0, 46, 82
1, 33331, Note_on_c, 0, 65, 71
1, 33345, Note_on_c, 0, 62, 58
1, 33398, Note_on_c, 0, 63, 0
1, 33475, Note_on_c, 0, 51, 0
1, 33753, Note_on_c, 0, 58, 54
1, 33811, Note_on_c, 0, 62, 0
1, 34190, Note_on_c, 0, 62, 45
1, 34247, Note_on_c, 0, 58, 0
1, 34655, Note_on_c, 0, 58, 48
1, 34689, Note_on_c, 0, 62, 0
1, 34751, Note_on_c, 0, 65, 0
1, 34876, Note_on_c, 0, 58, 0
1, 35097, Note_on_c, 0, 63, 44
1, 35097, Note_on_c, 0, 67, 62
1, 35135, Note_on_c, 0, 39, 41
1, 35203, Note_on_c, 0, 46, 0
1, 35356, Note_on_c, 0, 67, 0
1, 35409, Note_on_c, 0, 68, 65
1, 35433, Note_on_c, 0, 63, 0
1, 35496, Note_on_c, 0, 67, 57
1, 35510, Note_on_c, 0, 68, 0
1, 35548, Note_on_c, 0, 67, 0
1, 35567, Note_on_c, 0, 65, 81
1, 35645, Note_on_c, 0, 65, 0
1, 35663, Note_on_c, 0, 67, 62
1, 35865, Note_on_c, 0, 68, 80
1, 35899, Note_on_c, 0, 67, 0
1, 36067, Note_on_c, 0, 70, 84
1, 36095, Note_on_c, 0, 68, 0
1, 36292, Note_on_c, 0, 72, 73
1, 36302, Note_on_c, 0, 70, 0
1, 36499, Note_on_c, 0, 72, 0
1, 36513, Note_on_c, 0, 74, 61
1, 36758, Note_on_c, 0, 74, 0
1, 36758, Note_on_c, 0, 75, 46
1, 37113, Note_on_c, 0, 75, 0
1, 37118, Note_on_c, 0, 70, 38
1, 37161, Note_on_c, 0, 39, 0
1, 37593, Note_on_c, 0, 70, 0
1, 38222, Note_on_c, 0, 75, 38
1, 38361, Note_on_c, 0, 75, 0
1, 38471, Note_on_c, 0, 74, 58
1, 38524, Note_on_c, 0, 74, 0
1, 38663, Note_on_c, 0, 73, 64
1, 38750, Note_on_c, 0, 73, 0
1, 38884, Note_on_c, 0, 72, 65
1, 38956, Note_on_c, 0, 72, 0
1, 39143, Note_on_c, 0, 71, 40
1, 39499, Note_on_c, 0, 71, 0
1, 39652, Note_on_c, 0, 63, 19
1, 39664, Note_on_c, 0, 55, 21
1, 40096, Note_on_c, 0, 55, 0
1, 40137, Note_on_c, 0, 63, 0
1, 40185, Note_on_c, 0, 75, 52
1, 40305, Note_on_c, 0, 75, 0
1, 40415, Note_on_c, 0, 74, 85
1, 40483, Note_on_c, 0, 74, 0
1, 40603, Note_on_c, 0, 73, 75
1, 40727, Note_on_c, 0, 73, 0
1, 40804, Note_on_c, 0, 72, 89
1, 40924, Note_on_c, 0, 72, 0
1, 41063, Note_on_c, 0, 71, 60
1, 41385, Note_on_c, 0, 71, 0
1, 41548, Note_on_c, 0, 63, 36
1, 41563, Note_on_c, 0, 55, 40
1, 41889, Note_on_c, 0, 55, 0
1, 41894, Note_on_c, 0, 63, 0
1, 42038, Note_on_c, 0, 75, 47
1, 42211, Note_on_c, 0, 75, 0
1, 42273, Note_on_c, 0, 74, 67
1, 42331, Note_on_c, 0, 74, 0
1, 42465, Note_on_c, 0, 73, 76
1, 42590, Note_on_c, 0, 73, 0
1, 42676, Note_on_c, 0, 72, 94
1, 42839, Note_on_c, 0, 72, 0
1, 43007, Note_on_c, 0, 71, 69
1, 43017, Note_on_c, 0, 63, 41
1, 43051, Note_on_c, 0, 55, 30
1, 44495, Note_on_c, 0, 55, 0
1, 44774, Note_on_c, 0, 72, 44
1, 44788, Note_on_c, 0, 56, 19
1, 44894, Note_on_c, 0, 71, 0
1, 45331, Note_on_c, 0, 63, 0
1, 45350, Note_on_c, 0, 72, 0
1, 45407, Note_on_c, 0, 56, 0
1, 45988, Note_on_c, 0, 65, 34
1, 46084, Note_on_c, 0, 65, 0
1, 46243, Note_on_c, 0, 67, 61
1, 46305, Note_on_c, 0, 67, 0
1, 46435, Note_on_c, 0, 68, 80
1, 46555, Note_on_c, 0, 68, 0
1, 46655, Note_on_c, 0, 69, 85
1, 46785, Note_on_c, 0, 69, 0
1, 46934, Note_on_c, 0, 70, 71
1, 47846, Note_on_c, 0, 51, 36
1, 47855, Note_on_c, 0, 43, 47
1, 48091, Note_on_c, 0, 72, 73
1, 48167, Note_on_c, 0, 70, 0
1, 48311, Note_on_c, 0, 74, 81
1, 48326, Note_on_c, 0, 72, 0
1, 48451, Note_on_c, 0, 74, 0
1, 48523, Note_on_c, 0, 75, 79
1, 48571, Note_on_c, 0, 75, 0
1, 48801, Note_on_c, 0, 63, 76
1, 48825, Note_on_c, 0, 46, 57
1, 48839, Note_on_c, 0, 58, 50
1, 48839, Note_on_c, 0, 55, 39
1, 48844, Note_on_c, 0, 51, 0
1, 49022, Note_on_c, 0, 43, 0
1, 49795, Note_on_c, 0, 56, 53
1, 49862, Note_on_c, 0, 55, 0
1, 50145, Note_on_c, 0, 58, 0
1, 50251, Note_on_c, 0, 62, 38
1, 50251, Note_on_c, 0, 67, 55
1, 50385, Note_on_c, 0, 63, 0
1, 50524, Note_on_c, 0, 65, 61
1, 50577, Note_on_c, 0, 67, 0
1, 50687, Note_on_c, 0, 56, 0
1, 50836, Note_on_c, 0, 63, 46
1, 50850, Note_on_c, 0, 55, 31
1, 50854, Note_on_c, 0, 51, 29
1, 50855, Note_on_c, 0, 65, 0
1, 50894, Note_on_c, 0, 62, 0
1, 50995, Note_on_c, 0, 46, 0
1, 51214, Note_on_c, 0, 55, 0
1, 51248, Note_on_c, 0, 51, 0
1, 51273, Note_on_c, 0, 63, 0
1, 51998, Note_on_c, 0, 63, 25
1, 52008, Note_on_c, 0, 51, 24
1, 52022, Note_on_c, 0, 55, 16
1, 52238, Note_on_c, 0, 55, 0
1, 52253, Note_on_c, 0, 51, 0
1, 52286, Note_on_c, 0, 63, 0
1, 54508, Note_on_c, 0, 77, 57
1, 54531, Note_on_c, 0, 74, 29
1, 54536, Note_on_c, 0, 58, 30
1, 55060, Note_on_c, 0, 65, 29
1, 55175, Note_on_c, 0, 74, 0
1, 55454, Note_on_c, 0, 65, 0
1, 55521, Note_on_c, 0, 74, 18
1, 55665, Note_on_c, 0, 74, 0
1, 55953, Note_on_c, 0, 65, 30
1, 56385, Note_on_c, 0, 65, 0
1, 56404, Note_on_c, 0, 70, 40
1, 56409, Note_on_c, 0, 74, 68
1, 56553, Note_on_c, 0, 77, 0
1, 56860, Note_on_c, 0, 70, 0
1, 56894, Note_on_c, 0, 65, 28
1, 57239, Note_on_c, 0, 65, 0
1, 57287, Note_on_c, 0, 70, 41
1, 57614, Note_on_c, 0, 70, 0
1, 57733, Note_on_c, 0, 58, 0
1, 57743, Note_on_c, 0, 65, 31
1, 57782, Note_on_c, 0, 74, 0
1, 58243, Note_on_c, 0, 77, 77
1, 58252, Note_on_c, 0, 74, 57
1, 58267, Note_on_c, 0, 65, 0
1, 58281, Note_on_c, 0, 53, 29
1, 58295, Note_on_c, 0, 41, 25
1, 59519, Note_on_c, 0, 74, 0
1, 59639, Note_on_c, 0, 77, 0
1, 59668, Note_on_c, 0, 73, 36
1, 59678, Note_on_c, 0, 76, 40
1, 59745, Note_on_c, 0, 73, 0
1, 59884, Note_on_c, 0, 76, 0
1, 59908, Note_on_c, 0, 75, 54
1, 59927, Note_on_c, 0, 72, 55
1, 59961, Note_on_c, 0, 75, 0
1, 60124, Note_on_c, 0, 72, 0
1, 60139, Note_on_c, 0, 74, 50
1, 60143, Note_on_c, 0, 70, 45
1, 60403, Note_on_c, 0, 74, 0
1, 60441, Note_on_c, 0, 70, 0
1, 60470, Note_on_c, 0, 72, 46
1, 60484, Note_on_c, 0, 69, 18
1, 60897, Note_on_c, 0, 69, 0
1, 60931, Note_on_c, 0, 53, 0
1, 60935, Note_on_c, 0, 72, 0
1, 60998, Note_on_c, 0, 41, 0
1, 61377, Note_on_c, 0, 78, 65
1, 61411, Note_on_c, 0, 74, 46
1, 61478, Note_on_c, 0, 74, 0
1, 61607, Note_on_c, 0, 78, 0
1, 61612, Note_on_c, 0, 75, 63
1, 61612, Note_on_c, 0, 79, 78
1, 61814, Note_on_c, 0, 79, 0
1, 61814, Note_on_c, 0, 78, 78
1, 61823, Note_on_c, 0, 75, 0
1, 61833, Note_on_c, 0, 74, 72
1, 61895, Note_on_c, 0, 74, 0
1, 62011, Note_on_c, 0, 78, 0
1, 62020, Note_on_c, 0, 75, 62
1, 62044, Note_on_c, 0, 79, 76
1, 62097, Note_on_c, 0, 75, 0
1, 62198, Note_on_c, 0, 79, 0
1, 62251, Note_on_c, 0, 66, 56
1, 62279, Note_on_c, 0, 69, 49
1, 62279, Note_on_c, 0, 72, 51
1, 62471, Note_on_c, 0, 66, 0
1, 62471, Note_on_c, 0, 65, 71
1, 62515, Note_on_c, 0, 69, 0
1, 62529, Note_on_c, 0, 72, 0
1, 62654, Note_on_c, 0, 65, 0
1, 62659, Note_on_c, 0, 66, 65
1, 62870, Note_on_c, 0, 66, 0
1, 62870, Note_on_c, 0, 65, 71
1, 63052, Note_on_c, 0, 65, 0
1, 63071, Note_on_c, 0, 78, 82
1, 63091, Note_on_c, 0, 74, 69
1, 63278, Note_on_c, 0, 74, 0
1, 63278, Note_on_c, 0, 79, 74
1, 63287, Note_on_c, 0, 75, 65
1, 63302, Note_on_c, 0, 78, 0
1, 63470, Note_on_c, 0, 75, 0
1, 63484, Note_on_c, 0, 79, 0
1, 63489, Note_on_c, 0, 78, 62
1, 63494, Note_on_c, 0, 74, 56
1, 63609, Note_on_c, 0, 74, 0
1, 63686, Note_on_c, 0, 78, 0
1, 63691, Note_on_c, 0, 75, 49
1, 63710, Note_on_c, 0, 79, 44
1, 63748, Note_on_c, 0, 75, 0
1, 63931, Note_on_c, 0, 79, 0
1, 63940, Note_on_c, 0, 66, 36
1, 63955, Note_on_c, 0, 69, 33
1, 63979, Note_on_c, 0, 72, 28
1, 64175, Note_on_c, 0, 66, 0
1, 64190, Note_on_c, 0, 65, 36
1, 64343, Note_on_c, 0, 69, 0
1, 64353, Note_on_c, 0, 72, 0
1, 64363, Note_on_c, 0, 65, 0
1, 64415, Note_on_c, 0, 66, 32
1, 64627, Note_on_c, 0, 66, 0
1, 64641, Note_on_c, 0, 65, 40
1, 64857, Note_on_c, 0, 71, 57
1, 64900, Note_on_c, 0, 65, 0
1, 65073, Note_on_c, 0, 72, 78
1, 65121, Note_on_c, 0, 71, 0
1, 65279, Note_on_c, 0, 74, 90
1, 65342, Note_on_c, 0, 72, 0
1, 65495, Note_on_c, 0, 75, 85
1, 65563, Note_on_c, 0, 74, 0
1, 65788, Note_on_c, 0, 77, 85
1, 65793, Note_on_c, 0, 58, 72
1, 65961, Note_on_c, 0, 75, 0
1, 66326, Note_on_c, 0, 60, 59
1, 66801, Note_on_c, 0, 63, 44
1, 66854, Note_on_c, 0, 77, 0
1, 66854, Note_on_c, 0, 60, 0
1, 66883, Note_on_c, 0, 79, 59
1, 66979, Note_on_c, 0, 77, 67
1, 66993, Note_on_c, 0, 79, 0
1, 67103, Note_on_c, 0, 77, 0
1, 67103, Note_on_c, 0, 76, 84
1, 67209, Note_on_c, 0, 77, 64
1, 67252, Note_on_c, 0, 76, 0
1, 67406, Note_on_c, 0, 77, 0
1, 67411, Note_on_c, 0, 79, 65
1, 67415, Note_on_c, 0, 63, 0
1, 67420, Note_on_c, 0, 69, 31
1, 67670, Note_on_c, 0, 75, 54
1, 67703, Note_on_c, 0, 69, 0
1, 67708, Note_on_c, 0, 79, 0
1, 67727, Note_on_c, 0, 58, 0
1, 68063, Note_on_c, 0, 70, 34
1, 68063, Note_on_c, 0, 74, 36
1, 68107, Note_on_c, 0, 58, 24
1, 68179, Note_on_c, 0, 75, 0
1, 68635, Note_on_c, 0, 70, 0
1, 68639, Note_on_c, 0, 74, 0
1, 68745, Note_on_c, 0, 58, 0
1, 69196, Note_on_c, 0, 77, 52
1, 69604, Note_on_c, 0, 77, 0
1, 69614, Note_on_c, 0, 74, 66
1, 69739, Note_on_c, 0, 77, 84
1, 69767, Note_on_c, 0, 74, 0
1, 70099, Note_on_c, 0, 74, 75
1, 70113, Note_on_c, 0, 77, 0
1, 70295, Note_on_c, 0, 50, 37
1, 70339, Note_on_c, 0, 82, 80
1, 70372, Note_on_c, 0, 74, 0
1, 70790, Note_on_c, 0, 53, 39
1, 70972, Note_on_c, 0, 82, 0
1, 71006, Note_on_c, 0, 53, 0
1, 71073, Note_on_c, 0, 50, 0
1, 71241, Note_on_c, 0, 58, 46
1, 71303, Note_on_c, 0, 82, 96
1, 71553, Note_on_c, 0, 58, 0
1, 71745, Note_on_c, 0, 53, 27
1, 71985, Note_on_c, 0, 53, 0
1, 72191, Note_on_c, 0, 50, 36
1, 72657, Note_on_c, 0, 53, 30
1, 72993, Note_on_c, 0, 53, 0
1, 73118, Note_on_c, 0, 58, 33
1, 73372, Note_on_c, 0, 84, 66
1, 73468, Note_on_c, 0, 82, 0
1, 73665, Note_on_c, 0, 86, 69
1, 73694, Note_on_c, 0, 84, 0
1, 73718, Note_on_c, 0, 53, 34
1, 73727, Note_on_c, 0, 58, 0
1, 73886, Note_on_c, 0, 50, 0
1, 73900, Note_on_c, 0, 82, 88
1, 74097, Note_on_c, 0, 53, 0
1, 74159, Note_on_c, 0, 86, 0
1, 74164, Note_on_c, 0, 81, 84
1, 74169, Note_on_c, 0, 51, 41
1, 74284, Note_on_c, 0, 82, 0
1, 74635, Note_on_c, 0, 79, 70
1, 74707, Note_on_c, 0, 81, 0
1, 74707, Note_on_c, 0, 55, 23
1, 75057, Note_on_c, 0, 79, 0
1, 75134, Note_on_c, 0, 79, 74
1, 75143, Note_on_c, 0, 58, 31
1, 75278, Note_on_c, 0, 55, 0
1, 75580, Note_on_c, 0, 58, 0
1, 75595, Note_on_c, 0, 51, 0
1, 75676, Note_on_c, 0, 55, 18
1, 76007, Note_on_c, 0, 55, 0
1, 76065, Note_on_c, 0, 51, 23
1, 76540, Note_on_c, 0, 51, 0
1, 76545, Note_on_c, 0, 55, 33
1, 76972, Note_on_c, 0, 58, 45
1, 76991, Note_on_c, 0, 55, 0
1, 77174, Note_on_c, 0, 81, 74
1, 77246, Note_on_c, 0, 79, 0
1, 77404, Note_on_c, 0, 58, 0
1, 77433, Note_on_c, 0, 82, 79
1, 77467, Note_on_c, 0, 81, 0
1, 77481, Note_on_c, 0, 55, 31
1, 77659, Note_on_c, 0, 79, 83
1, 77726, Note_on_c, 0, 82, 0
1, 77841, Note_on_c, 0, 55, 0
1, 77923, Note_on_c, 0, 77, 79
1, 77932, Note_on_c, 0, 53, 26
1, 77951, Note_on_c, 0, 79, 0
1, 78470, Note_on_c, 0, 75, 60
1, 78494, Note_on_c, 0, 57, 31
1, 78614, Note_on_c, 0, 77, 0
1, 78859, Note_on_c, 0, 75, 0
1, 78897, Note_on_c, 0, 53, 0
1, 78902, Note_on_c, 0, 57, 0
1, 78950, Note_on_c, 0, 60, 26
1, 78964, Note_on_c, 0, 75, 48
1, 79262, Note_on_c, 0, 60, 0
1, 79420, Note_on_c, 0, 57, 31
1, 79761, Note_on_c, 0, 57, 0
1, 79886, Note_on_c, 0, 53, 23
1, 80030, Note_on_c, 0, 75, 0
1, 80323, Note_on_c, 0, 75, 60
1, 80332, Note_on_c, 0, 57, 30
1, 80591, Note_on_c, 0, 75, 0
1, 80611, Note_on_c, 0, 57, 0
1, 80755, Note_on_c, 0, 75, 59
1, 80798, Note_on_c, 0, 60, 38
1, 80999, Note_on_c, 0, 75, 0
1, 81143, Note_on_c, 0, 60, 0
1, 81235, Note_on_c, 0, 75, 54
1, 81278, Note_on_c, 0, 57, 24
1, 81283, Note_on_c, 0, 53, 0
1, 81451, Note_on_c, 0, 75, 0
1, 81479, Note_on_c, 0, 57, 0
1, 81772, Note_on_c, 0, 73, 42
1, 81772, Note_on_c, 0, 55, 27
1, 82223, Note_on_c, 0, 58, 28
1, 82727, Note_on_c, 0, 58, 0
1, 82761, Note_on_c, 0, 74, 42
1, 82799, Note_on_c, 0, 62, 16
1, 82881, Note_on_c, 0, 73, 0
1, 83131, Note_on_c, 0, 74, 0
1, 83155, Note_on_c, 0, 55, 0
1, 83159, Note_on_c, 0, 62, 0
1, 83207, Note_on_c, 0, 58, 40
1, 83299, Note_on_c, 0, 58, 0
1, 83611, Note_on_c, 0, 55, 37
1, 83817, Note_on_c, 0, 70, 76
1, 83903, Note_on_c, 0, 70, 0
1, 84019, Note_on_c, 0, 72, 84
1, 84047, Note_on_c, 0, 58, 45
1, 84129, Note_on_c, 0, 72, 0
1, 84206, Note_on_c, 0, 74, 95
1, 84321, Note_on_c, 0, 74, 0
1, 84403, Note_on_c, 0, 75, 88
1, 84427, Note_on_c, 0, 58, 0
1, 84441, Note_on_c, 0, 62, 34
1, 84523, Note_on_c, 0, 75, 0
1, 84604, Note_on_c, 0, 77, 99
1, 84710, Note_on_c, 0, 77, 0
1, 84739, Note_on_c, 0, 62, 0
1, 84806, Note_on_c, 0, 79, 103
1, 84835, Note_on_c, 0, 58, 49
1, 84854, Note_on_c, 0, 55, 0
1, 84921, Note_on_c, 0, 79, 0
1, 84993, Note_on_c, 0, 58, 0
1, 85017, Note_on_c, 0, 81, 104
1, 85127, Note_on_c, 0, 81, 0
1, 85252, Note_on_c, 0, 82, 108
1, 85286, Note_on_c, 0, 50, 61
1, 85583, Note_on_c, 0, 77, 98
1, 85607, Note_on_c, 0, 82, 0
1, 85727, Note_on_c, 0, 86, 108
1, 85761, Note_on_c, 0, 53, 58
1, 85780, Note_on_c, 0, 77, 0
1, 86044, Note_on_c, 0, 82, 110
1, 86155, Note_on_c, 0, 86, 0
1, 86193, Note_on_c, 0, 58, 69
1, 86265, Note_on_c, 0, 89, 100
1, 86327, Note_on_c, 0, 82, 0
1, 86375, Note_on_c, 0, 53, 0
1, 86683, Note_on_c, 0, 50, 0
1, 86702, Note_on_c, 0, 58, 0
1, 86707, Note_on_c, 0, 53, 52
1, 87124, Note_on_c, 0, 50, 63
1, 87148, Note_on_c, 0, 53, 0
1, 87321, Note_on_c, 0, 86, 85
1, 87547, Note_on_c, 0, 83, 86
1, 87551, Note_on_c, 0, 89, 0
1, 87561, Note_on_c, 0, 53, 57
1, 87628, Note_on_c, 0, 86, 0
1, 87739, Note_on_c, 0, 80, 90
1, 87815, Note_on_c, 0, 83, 0
1, 87940, Note_on_c, 0, 50, 0
1, 87955, Note_on_c, 0, 77, 98
1, 87974, Note_on_c, 0, 80, 0
1, 87998, Note_on_c, 0, 56, 50
1, 88007, Note_on_c, 0, 53, 0
1, 88079, Note_on_c, 0, 50, 16
1, 88171, Note_on_c, 0, 74, 78
1, 88195, Note_on_c, 0, 77, 0
1, 88343, Note_on_c, 0, 71, 78
1, 88396, Note_on_c, 0, 74, 0
1, 88411, Note_on_c, 0, 53, 45
1, 88415, Note_on_c, 0, 50, 0
1, 88531, Note_on_c, 0, 68, 86
1, 88598, Note_on_c, 0, 71, 0
1, 88723, Note_on_c, 0, 53, 0
1, 88756, Note_on_c, 0, 56, 0
1, 88804, Note_on_c, 0, 67, 86
1, 88828, Note_on_c, 0, 68, 0
1, 88828, Note_on_c, 0, 51, 44
1, 89265, Note_on_c, 0, 78, 88
1, 89308, Note_on_c, 0, 67, 0
1, 89308, Note_on_c, 0, 55, 48
1, 89822, Note_on_c, 0, 60, 47
1, 89875, Note_on_c, 0, 78, 0
1, 89875, Note_on_c, 0, 55, 0
1, 89879, Note_on_c, 0, 79, 81
1, 89975, Note_on_c, 0, 78, 68
1, 90004, Note_on_c, 0, 79, 0
1, 90076, Note_on_c, 0, 76, 86
1, 90086, Note_on_c, 0, 78, 0
1, 90167, Note_on_c, 0, 78, 81
1, 90230, Note_on_c, 0, 76, 0
1, 90287, Note_on_c, 0, 79, 94
1, 90292, Note_on_c, 0, 55, 54
1, 90335, Note_on_c, 0, 78, 0
1, 90551, Note_on_c, 0, 60, 0
1, 90643, Note_on_c, 0, 51, 0
1, 90739, Note_on_c, 0, 52, 66
1, 90753, Note_on_c, 0, 55, 0
1, 90959, Note_on_c, 0, 81, 88
1, 90983, Note_on_c, 0, 79, 0
1, 91055, Note_on_c, 0, 79, 95
1, 91094, Note_on_c, 0, 81, 0
1, 91156, Note_on_c, 0, 78, 86
1, 91166, Note_on_c, 0, 55, 68
1, 91195, Note_on_c, 0, 79, 0
1, 91271, Note_on_c, 0, 79, 92
1, 91291, Note_on_c, 0, 78, 0
1, 91406, Note_on_c, 0, 81, 102
1, 91459, Note_on_c, 0, 79, 0
1, 91641, Note_on_c, 0, 61, 67
1, 91785, Note_on_c, 0, 55, 0
1, 91915, Note_on_c, 0, 82, 91
1, 91943, Note_on_c, 0, 81, 0
1, 92006, Note_on_c, 0, 81, 79
1, 92035, Note_on_c, 0, 82, 0
1, 92063, Note_on_c, 0, 81, 0
1, 92073, Note_on_c, 0, 79, 85
1, 92188, Note_on_c, 0, 81, 89
1, 92227, Note_on_c, 0, 79, 0
1, 92246, Note_on_c, 0, 55, 42
1, 92351, Note_on_c, 0, 82, 96
1, 92385, Note_on_c, 0, 81, 0
1, 92491, Note_on_c, 0, 52, 0
1, 92673, Note_on_c, 0, 61, 0
1, 92716, Note_on_c, 0, 55, 0
1, 92769, Note_on_c, 0, 53, 51
1, 92903, Note_on_c, 0, 86, 73
1, 92932, Note_on_c, 0, 82, 0
1, 92990, Note_on_c, 0, 84, 82
1, 93014, Note_on_c, 0, 86, 0
1, 93028, Note_on_c, 0, 84, 0
1, 93047, Note_on_c, 0, 82, 80
1, 93139, Note_on_c, 0, 84, 81
1, 93167, Note_on_c, 0, 82, 0
1, 93268, Note_on_c, 0, 86, 83
1, 93268, Note_on_c, 0, 58, 54
1, 93292, Note_on_c, 0, 84, 0
1, 93532, Note_on_c, 0, 89, 71
1, 93547, Note_on_c, 0, 86, 0
1, 93825, Note_on_c, 0, 62, 32
1, 93863, Note_on_c, 0, 58, 0
1, 93921, Note_on_c, 0, 77, 76
1, 93940, Note_on_c, 0, 89, 0
1, 94411, Note_on_c, 0, 58, 31
1, 94420, Note_on_c, 0, 53, 0
1, 94502, Note_on_c, 0, 62, 0
1, 94963, Note_on_c, 0, 58, 0
1, 94972, Note_on_c, 0, 53, 32
1, 95236, Note_on_c, 0, 78, 53
1, 95303, Note_on_c, 0, 77, 0
1, 95491, Note_on_c, 0, 79, 66
1, 95500, Note_on_c, 0, 78, 0
1, 95510, Note_on_c, 0, 57, 37
1, 95711, Note_on_c, 0, 77, 74
1, 95726, Note_on_c, 0, 79, 0
1, 95779, Note_on_c, 0, 77, 0
1, 95918, Note_on_c, 0, 57, 0
1, 95947, Note_on_c, 0, 77, 64
1, 95961, Note_on_c, 0, 60, 32
1, 96163, Note_on_c, 0, 75, 47
1, 96191, Note_on_c, 0, 77, 0
1, 96302, Note_on_c, 0, 60, 0
1, 96355, Note_on_c, 0, 53, 0
1, 96374, Note_on_c, 0, 74, 59
1, 96388, Note_on_c, 0, 57, 23
1, 96393, Note_on_c, 0, 75, 0
1, 96503, Note_on_c, 0, 57, 0
1, 96585, Note_on_c, 0, 74, 0
1, 96604, Note_on_c, 0, 72, 49
1, 96844, Note_on_c, 0, 58, 50
1, 96883, Note_on_c, 0, 70, 50
1, 96902, Note_on_c, 0, 72, 0
1, 97127, Note_on_c, 0, 62, 48
1, 97358, Note_on_c, 0, 65, 50
1, 97367, Note_on_c, 0, 62, 0
1, 97579, Note_on_c, 0, 65, 0
1, 97579, Note_on_c, 0, 62, 44
1, 97756, Note_on_c, 0, 62, 0
1, 97780, Note_on_c, 0, 70, 0
1, 97833, Note_on_c, 0, 65, 44
1, 97905, Note_on_c, 0, 65, 0
1, 98039, Note_on_c, 0, 62, 38
1, 98131, Note_on_c, 0, 62, 0
1, 98241, Note_on_c, 0, 58, 0
1, 98275, Note_on_c, 0, 65, 35
1, 98366, Note_on_c, 0, 65, 0
1, 98519, Note_on_c, 0, 62, 38
1, 98577, Note_on_c, 0, 62, 0
1, 98855, Note_on_c, 0, 63, 29
1, 98865, Note_on_c, 0, 69, 47
1, 98899, Note_on_c, 0, 53, 20
1, 99134, Note_on_c, 0, 72, 58
1, 99355, Note_on_c, 0, 72, 0
1, 99369, Note_on_c, 0, 79, 64
1, 99388, Note_on_c, 0, 69, 0
1, 99571, Note_on_c, 0, 77, 80
1, 99609, Note_on_c, 0, 79, 0
1, 99791, Note_on_c, 0, 79, 84
1, 99801, Note_on_c, 0, 63, 0
1, 99820, Note_on_c, 0, 77, 0
1, 99945, Note_on_c, 0, 53, 0
1, 99979, Note_on_c, 0, 77, 84
1, 100036, Note_on_c, 0, 79, 0
1, 100204, Note_on_c, 0, 79, 94
1, 100233, Note_on_c, 0, 77, 0
1, 100420, Note_on_c, 0, 77, 92
1, 100478, Note_on_c, 0, 79, 0
1, 100516, Note_on_c, 0, 77, 0
1, 100646, Note_on_c, 0, 77, 72
1, 100646, Note_on_c, 0, 58, 45
1, 100886, Note_on_c, 0, 62, 38
1, 101078, Note_on_c, 0, 62, 0
1, 101111, Note_on_c, 0, 65, 41
1, 101260, Note_on_c, 0, 65, 0
1, 101332, Note_on_c, 0, 62, 46
1, 101534, Note_on_c, 0, 62, 0
1, 101567, Note_on_c, 0, 82, 56
1, 101577, Note_on_c, 0, 65, 34
1, 101582, Note_on_c, 0, 77, 0
1, 101750, Note_on_c, 0, 65, 0
1, 101812, Note_on_c, 0, 62, 44
1, 101836, Note_on_c, 0, 82, 0
1, 101918, Note_on_c, 0, 62, 0
1, 102028, Note_on_c, 0, 65, 42
1, 102062, Note_on_c, 0, 58, 0
1, 102105, Note_on_c, 0, 65, 0
1, 102249, Note_on_c, 0, 62, 50
1, 102302, Note_on_c, 0, 62, 0
1, 102523, Note_on_c, 0, 69, 54
1, 102532, Note_on_c, 0, 63, 33
1, 102550, Note_on_c, 0, 53, 40
1, 102743, Note_on_c, 0, 72, 71
1, 102897, Note_on_c, 0, 69, 0
1, 102955, Note_on_c, 0, 79, 79
1, 102983, Note_on_c, 0, 72, 0
1, 103171, Note_on_c, 0, 77, 91
1, 103180, Note_on_c, 0, 63, 0
1, 103228, Note_on_c, 0, 79, 0
1, 103309, Note_on_c, 0, 53, 0
1, 103396, Note_on_c, 0, 79, 94
1, 103430, Note_on_c, 0, 77, 0
1, 103593, Note_on_c, 0, 77, 94
1, 103617, Note_on_c, 0, 79, 0
1, 103804, Note_on_c, 0, 79, 81
1, 103838, Note_on_c, 0, 77, 0
1, 104025, Note_on_c, 0, 77, 76
1, 104083, Note_on_c, 0, 79, 0
1, 104159, Note_on_c, 0, 77, 0
1, 104241, Note_on_c, 0, 58, 50
1, 104250, Note_on_c, 0, 77, 60
1, 104500, Note_on_c, 0, 62, 53
1, 104702, Note_on_c, 0, 62, 0
1, 104731, Note_on_c, 0, 65, 49
1, 104894, Note_on_c, 0, 65, 0
1, 104932, Note_on_c, 0, 58, 0
1, 104951, Note_on_c, 0, 62, 44
1, 105110, Note_on_c, 0, 62, 0
1, 105187, Note_on_c, 0, 65, 49
1, 105191, Note_on_c, 0, 77, 0
1, 105191, Note_on_c, 0, 70, 50
1, 105374, Note_on_c, 0, 65, 0
1, 105374, Note_on_c, 0, 62, 52
1, 105580, Note_on_c, 0, 62, 0
1, 105595, Note_on_c, 0, 65, 65
1, 105599, Note_on_c, 0, 70, 0
1, 105811, Note_on_c, 0, 62, 71
1, 105825, Note_on_c, 0, 65, 0
1, 105974, Note_on_c, 0, 62, 0
1, 106051, Note_on_c, 0, 63, 58
1, 106051, Note_on_c, 0, 69, 74
1, 106079, Note_on_c, 0, 53, 59
1, 106281, Note_on_c, 0, 72, 88
1, 106507, Note_on_c, 0, 69, 0
1, 106507, Note_on_c, 0, 79, 84
1, 106550, Note_on_c, 0, 72, 0
1, 106703, Note_on_c, 0, 77, 94
1, 106771, Note_on_c, 0, 79, 0
1, 106929, Note_on_c, 0, 79, 97
1, 106948, Note_on_c, 0, 77, 0
1, 107135, Note_on_c, 0, 77, 88
1, 107159, Note_on_c, 0, 79, 0
1, 107375, Note_on_c, 0, 79, 76
1, 107385, Note_on_c, 0, 77, 0
1, 107591, Note_on_c, 0, 63, 0
1, 107611, Note_on_c, 0, 77, 72
1, 107620, Note_on_c, 0, 79, 0
1, 107692, Note_on_c, 0, 77, 0
1, 107875, Note_on_c, 0, 77, 85
1, 107879, Note_on_c, 0, 58, 48
1, 107889, Note_on_c, 0, 62, 33
1, 107894, Note_on_c, 0, 53, 0
1, 108115, Note_on_c, 0, 70, 83
1, 108187, Note_on_c, 0, 77, 0
1, 108345, Note_on_c, 0, 82, 94
1, 108359, Note_on_c, 0, 70, 0
1, 108451, Note_on_c, 0, 82, 0
1, 108532, Note_on_c, 0, 82, 92
1, 108633, Note_on_c, 0, 82, 0
1, 108729, Note_on_c, 0, 82, 91
1, 108964, Note_on_c, 0, 74, 65
1, 108993, Note_on_c, 0, 82, 0
1, 109113, Note_on_c, 0, 74, 0
1, 109166, Note_on_c, 0, 86, 81
1, 109276, Note_on_c, 0, 86, 0
1, 109363, Note_on_c, 0, 58, 0
1, 109367, Note_on_c, 0, 86, 84
1, 109415, Note_on_c, 0, 62, 0
1, 109468, Note_on_c, 0, 86, 0
1, 109579, Note_on_c, 0, 86, 84
1, 109795, Note_on_c, 0, 77, 72
1, 109819, Note_on_c, 0, 86, 0
1, 109982, Note_on_c, 0, 77, 0
1, 110020, Note_on_c, 0, 89, 86
1, 110126, Note_on_c, 0, 89, 0
1, 110212, Note_on_c, 0, 89, 90
1, 110323, Note_on_c, 0, 89, 0
1, 110423, Note_on_c, 0, 65, 43
1, 110428, Note_on_c, 0, 89, 79
1, 110429, Note_on_c, 0, 75, 42
1, 110432, Note_on_c, 0, 69, 42
1, 110539, Note_on_c, 0, 89, 0
1, 110659, Note_on_c, 0, 89, 59
1, 110740, Note_on_c, 0, 89, 0
1, 110865, Note_on_c, 0, 89, 73
1, 110947, Note_on_c, 0, 89, 0
1, 111110, Note_on_c, 0, 89, 58
1, 111278, Note_on_c, 0, 75, 0
1, 111283, Note_on_c, 0, 89, 0
1, 111296, Note_on_c, 0, 69, 0
1, 111331, Note_on_c, 0, 65, 0
1, 111412, Note_on_c, 0, 82, 59
1, 111417, Note_on_c, 0, 70, 33
1, 111431, Note_on_c, 0, 74, 27
1, 111868, Note_on_c, 0, 74, 0
1, 111878, Note_on_c, 0, 82, 0
1, 111950, Note_on_c, 0, 70, 0
1, 112372, Note_on_c, 0, 75, 39
1, 112372, Note_on_c, 0, 89, 73
1, 112400, Note_on_c, 0, 69, 37
1, 112401, Note_on_c, 0, 65, 36
1, 112502, Note_on_c, 0, 89, 0
1, 112583, Note_on_c, 0, 89, 71
1, 112699, Note_on_c, 0, 89, 0
1, 112809, Note_on_c, 0, 89, 50
1, 112871, Note_on_c, 0, 89, 0
1, 113020, Note_on_c, 0, 75, 0
1, 113063, Note_on_c, 0, 89, 54
1, 113068, Note_on_c, 0, 65, 0
1, 113106, Note_on_c, 0, 69, 0
1, 113116, Note_on_c, 0, 89, 0
1, 113340, Note_on_c, 0, 82, 34
1, 113356, Note_on_c, 0, 74, 28
1, 113362, Note_on_c, 0, 70, 38
1, 113836, Note_on_c, 0, 74, 0
1, 113907, Note_on_c, 0, 82, 0
1, 113918, Note_on_c, 0, 70, 0
1, 114297, Note_on_c, 0, 89, 34
1, 114311, Note_on_c, 0, 75, 19
1, 114334, Note_on_c, 0, 65, 16
1, 114339, Note_on_c, 0, 69, 34
1, 114374, Note_on_c, 0, 89, 0
1, 114575, Note_on_c, 0, 89, 45
1, 114638, Note_on_c, 0, 89, 0
1, 114839, Note_on_c, 0, 89, 31
1, 114901, Note_on_c, 0, 65, 0
1, 114902, Note_on_c, 0, 89, 0
1, 114926, Note_on_c, 0, 75, 0
1, 114939, Note_on_c, 0, 69, 0
1, 115103, Note_on_c, 0, 89, 25
1, 115175, Note_on_c, 0, 89, 0
1, 115535, Note_on_c, 0, 82, 34
1, 115545, Note_on_c, 0, 70, 22
1, 115569, Note_on_c, 0, 74, 16
1, 115996, Note_on_c, 0, 74, 0
1, 116068, Note_on_c, 0, 70, 0
1, 116102, Note_on_c, 0, 82, 0
1, 116543, Note_on_c, 0, 36, 98
1, 116548, Note_on_c, 0, 48, 98
1, 117465, Note_on_c, 0, 56, 77
1, 117470, Note_on_c, 0, 51, 93
1, 117489, Note_on_c, 0, 53, 79
1, 118483, Note_on_c, 0, 48, 0
1, 118487, Note_on_c, 0, 36, 0
1, 118641, Note_on_c, 0, 47, 74
1, 118651, Note_on_c, 0, 35, 62
1, 119471, Note_on_c, 0, 47, 0
1, 119980, Note_on_c, 0, 46, 43
1, 119990, Note_on_c, 0, 50, 45
1, 119999, Note_on_c, 0, 34, 34
1, 120081, Note_on_c, 0, 35, 0
1, 120326, Note_on_c, 0, 51, 0
1, 121439, Note_on_c, 0, 50, 0
1, 121502, Note_on_c, 0, 51, 46
1, 121569, Note_on_c, 0, 53, 0
1, 121727, Note_on_c, 0, 56, 0
1, 121833, Note_on_c, 0, 50, 50
1, 121843, Note_on_c, 0, 51, 0
1, 122107, Note_on_c, 0, 53, 60
1, 122188, Note_on_c, 0, 50, 0
1, 122318, Note_on_c, 0, 53, 0
1, 122342, Note_on_c, 0, 56, 66
1, 122390, Note_on_c, 0, 56, 0
1, 122567, Note_on_c, 0, 62, 68
1, 122831, Note_on_c, 0, 65, 71
1, 122851, Note_on_c, 0, 62, 0
1, 123062, Note_on_c, 0, 46, 0
1, 123100, Note_on_c, 0, 65, 0
1, 123119, Note_on_c, 0, 68, 68
1, 123182, Note_on_c, 0, 68, 0
1, 123441, Note_on_c, 0, 74, 58
1, 123628, Note_on_c, 0, 34, 0
1, 123791, Note_on_c, 0, 74, 0
1, 123791, Note_on_c, 0, 77, 41
1, 124127, Note_on_c, 0, 77, 0
1, 124161, Note_on_c, 0, 80, 27
1, 124814, Note_on_c, 0, 80, 0
1, 126604, Note_on_c, 0, 70, 49
1, 126633, Note_on_c, 0, 51, 24
1, 127012, Note_on_c, 0, 51, 0
1, 127180, Note_on_c, 0, 55, 31
1, 127627, Note_on_c, 0, 55, 0
1, 127679, Note_on_c, 0, 58, 29
1, 127953, Note_on_c, 0, 70, 0
1, 127953, Note_on_c, 0, 69, 61
1, 128102, Note_on_c, 0, 69, 0
1, 128102, Note_on_c, 0, 70, 78
1, 128246, Note_on_c, 0, 70, 0
1, 128251, Note_on_c, 0, 72, 74
1, 128284, Note_on_c, 0, 55, 38
1, 128385, Note_on_c, 0, 70, 71
1, 128404, Note_on_c, 0, 72, 0
1, 128515, Note_on_c, 0, 70, 0
1, 128515, Note_on_c, 0, 69, 66
1, 128611, Note_on_c, 0, 70, 71
1, 128639, Note_on_c, 0, 69, 0
1, 128759, Note_on_c, 0, 55, 0
1, 128759, Note_on_c, 0, 51, 34
1, 128779, Note_on_c, 0, 67, 70
1, 128783, Note_on_c, 0, 70, 0
1, 129201, Note_on_c, 0, 58, 0
1, 129278, Note_on_c, 0, 55, 24
1, 129311, Note_on_c, 0, 67, 0
1, 129527, Note_on_c, 0, 51, 0
1, 129652, Note_on_c, 0, 55, 0
1, 129705, Note_on_c, 0, 58, 42
1, 129715, Note_on_c, 0, 67, 73
1, 129844, Note_on_c, 0, 67, 0
1, 130070, Note_on_c, 0, 58, 0
1, 130147, Note_on_c, 0, 55, 34
1, 130574, Note_on_c, 0, 55, 0
1, 130598, Note_on_c, 0, 63, 44
1, 130607, Note_on_c, 0, 67, 62
1, 130617, Note_on_c, 0, 46, 46
1, 131150, Note_on_c, 0, 51, 33
1, 131481, Note_on_c, 0, 51, 0
1, 131644, Note_on_c, 0, 55, 30
1, 131735, Note_on_c, 0, 67, 0
1, 131755, Note_on_c, 0, 68, 58
1, 131841, Note_on_c, 0, 68, 0
1, 131865, Note_on_c, 0, 67, 46
1, 131999, Note_on_c, 0, 67, 0
1, 132009, Note_on_c, 0, 65, 50
1, 132129, Note_on_c, 0, 51, 29
1, 132139, Note_on_c, 0, 67, 36
1, 132145, Note_on_c, 0, 65, 0
1, 132201, Note_on_c, 0, 55, 0
1, 132335, Note_on_c, 0, 46, 0
1, 132436, Note_on_c, 0, 67, 0
1, 132451, Note_on_c, 0, 68, 43
1, 132676, Note_on_c, 0, 68, 0
1, 132743, Note_on_c, 0, 46, 36
1, 132753, Note_on_c, 0, 65, 36
1, 132767, Note_on_c, 0, 62, 24
1, 132791, Note_on_c, 0, 63, 0
1, 132830, Note_on_c, 0, 51, 0
1, 133252, Note_on_c, 0, 50, 33
1, 133641, Note_on_c, 0, 65, 0
1, 133742, Note_on_c, 0, 50, 0
1, 133751, Note_on_c, 0, 53, 28
1, 133948, Note_on_c, 0, 62, 0
1, 133977, Note_on_c, 0, 70, 52
1, 134174, Note_on_c, 0, 70, 0
1, 134183, Note_on_c, 0, 53, 0
1, 134212, Note_on_c, 0, 68, 61
1, 134251, Note_on_c, 0, 50, 32
1, 134308, Note_on_c, 0, 68, 0
1, 134443, Note_on_c, 0, 65, 76
1, 134481, Note_on_c, 0, 46, 0
1, 134491, Note_on_c, 0, 65, 0
1, 134510, Note_on_c, 0, 50, 0
1, 134707, Note_on_c, 0, 63, 82
1, 134707, Note_on_c, 0, 55, 75
1, 134711, Note_on_c, 0, 51, 58
1, 135220, Note_on_c, 0, 58, 49
1, 135331, Note_on_c, 0, 55, 0
1, 135710, Note_on_c, 0, 55, 41
1, 135729, Note_on_c, 0, 58, 0
1, 136156, Note_on_c, 0, 55, 0
1, 136195, Note_on_c, 0, 58, 42
1, 136665, Note_on_c, 0, 65, 86
1, 136665, Note_on_c, 0, 46, 93
1, 136675, Note_on_c, 0, 62, 63
1, 136727, Note_on_c, 0, 58, 0
1, 136742, Note_on_c, 0, 63, 0
1, 136766, Note_on_c, 0, 51, 0
1, 137135, Note_on_c, 0, 58, 48
1, 137356, Note_on_c, 0, 62, 0
1, 137606, Note_on_c, 0, 62, 45
1, 137668, Note_on_c, 0, 58, 0
1, 138119, Note_on_c, 0, 62, 0
1, 138119, Note_on_c, 0, 58, 48
1, 138206, Note_on_c, 0, 65, 0
1, 138451, Note_on_c, 0, 58, 0
1, 138604, Note_on_c, 0, 67, 70
1, 138609, Note_on_c, 0, 63, 47
1, 138619, Note_on_c, 0, 46, 0
1, 138643, Note_on_c, 0, 39, 43
1, 138892, Note_on_c, 0, 67, 0
1, 138940, Note_on_c, 0, 68, 65
1, 138964, Note_on_c, 0, 63, 0
1, 139022, Note_on_c, 0, 67, 52
1, 139036, Note_on_c, 0, 68, 0
1, 139070, Note_on_c, 0, 67, 0
1, 139103, Note_on_c, 0, 65, 69
1, 139180, Note_on_c, 0, 67, 57
1, 139219, Note_on_c, 0, 65, 0
1, 139396, Note_on_c, 0, 68, 70
1, 139430, Note_on_c, 0, 67, 0
1, 139603, Note_on_c, 0, 70, 72
1, 139631, Note_on_c, 0, 68, 0
1, 139843, Note_on_c, 0, 72, 65
1, 139847, Note_on_c, 0, 70, 0
1, 140054, Note_on_c, 0, 72, 0
1, 140054, Note_on_c, 0, 74, 59
1, 140308, Note_on_c, 0, 74, 0
1, 140313, Note_on_c, 0, 75, 43
1, 140649, Note_on_c, 0, 75, 0
1, 140678, Note_on_c, 0, 70, 37
1, 141081, Note_on_c, 0, 70, 0
1, 141086, Note_on_c, 0, 39, 0
1, 141902, Note_on_c, 0, 79, 52
1, 141916, Note_on_c, 0, 75, 16
1, 142353, Note_on_c, 0, 75, 0
1, 142377, Note_on_c, 0, 77, 50
1, 142406, Note_on_c, 0, 79, 0
1, 142430, Note_on_c, 0, 74, 16
1, 142799, Note_on_c, 0, 74, 0
1, 142852, Note_on_c, 0, 75, 41
1, 142857, Note_on_c, 0, 77, 0
1, 142862, Note_on_c, 0, 72, 25
1, 143207, Note_on_c, 0, 75, 0
1, 143399, Note_on_c, 0, 70, 42
1, 143402, Note_on_c, 0, 74, 48
1, 143404, Note_on_c, 0, 72, 0
1, 143913, Note_on_c, 0, 50, 30
1, 143918, Note_on_c, 0, 38, 17
1, 144134, Note_on_c, 0, 70, 0
1, 144148, Note_on_c, 0, 74, 0
1, 144158, Note_on_c, 0, 68, 48
1, 144172, Note_on_c, 0, 72, 54
1, 144201, Note_on_c, 0, 50, 0
1, 144249, Note_on_c, 0, 38, 0
1, 144403, Note_on_c, 0, 51, 55
1, 144417, Note_on_c, 0, 39, 55
1, 144479, Note_on_c, 0, 68, 0
1, 144633, Note_on_c, 0, 70, 78
1, 144643, Note_on_c, 0, 39, 0
1, 144652, Note_on_c, 0, 67, 64
1, 144676, Note_on_c, 0, 51, 0
1, 144681, Note_on_c, 0, 72, 0
1, 144844, Note_on_c, 0, 41, 68
1, 144854, Note_on_c, 0, 53, 63
1, 145079, Note_on_c, 0, 65, 67
1, 145084, Note_on_c, 0, 67, 0
1, 145084, Note_on_c, 0, 68, 75
1, 145113, Note_on_c, 0, 70, 0
1, 145137, Note_on_c, 0, 41, 0
1, 145142, Note_on_c, 0, 53, 0
1, 145305, Note_on_c, 0, 55, 76
1, 145319, Note_on_c, 0, 43, 56
1, 145540, Note_on_c, 0, 67, 82
1, 145550, Note_on_c, 0, 63, 58
1, 145569, Note_on_c, 0, 65, 0
1, 145569, Note_on_c, 0, 55, 0
1, 145588, Note_on_c, 0, 68, 0
1, 145766, Note_on_c, 0, 56, 55
1, 145780, Note_on_c, 0, 43, 0
1, 145780, Note_on_c, 0, 44, 62
1, 145929, Note_on_c, 0, 63, 0
1, 146030, Note_on_c, 0, 72, 73
1, 146030, Note_on_c, 0, 60, 46
1, 146092, Note_on_c, 0, 67, 0
1, 146111, Note_on_c, 0, 56, 0
1, 146265, Note_on_c, 0, 44, 0
1, 146284, Note_on_c, 0, 41, 57
1, 146299, Note_on_c, 0, 53, 31
1, 146486, Note_on_c, 0, 60, 0
1, 146505, Note_on_c, 0, 41, 0
1, 146539, Note_on_c, 0, 68, 70
1, 146563, Note_on_c, 0, 65, 48
1, 146606, Note_on_c, 0, 72, 0
1, 146620, Note_on_c, 0, 53, 0
1, 146870, Note_on_c, 0, 67, 70
1, 146879, Note_on_c, 0, 63, 47
1, 146889, Note_on_c, 0, 57, 52
1, 146903, Note_on_c, 0, 65, 0
1, 147004, Note_on_c, 0, 68, 0
1, 147393, Note_on_c, 0, 58, 58
1, 147446, Note_on_c, 0, 57, 0
1, 147863, Note_on_c, 0, 55, 36
1, 147873, Note_on_c, 0, 58, 0
1, 148387, Note_on_c, 0, 51, 31
1, 148391, Note_on_c, 0, 55, 0
1, 148867, Note_on_c, 0, 63, 0
1, 148871, Note_on_c, 0, 51, 0
1, 149006, Note_on_c, 0, 65, 36
1, 149030, Note_on_c, 0, 62, 24
1, 149035, Note_on_c, 0, 46, 41
1, 149073, Note_on_c, 0, 67, 0
1, 149519, Note_on_c, 0, 67, 52
1, 149601, Note_on_c, 0, 65, 0
1, 149942, Note_on_c, 0, 62, 0
1, 149975, Note_on_c, 0, 68, 43
1, 149985, Note_on_c, 0, 67, 0
1, 150163, Note_on_c, 0, 46, 0
1, 150494, Note_on_c, 0, 68, 0
1, 150523, Note_on_c, 0, 69, 20
1, 151017, Note_on_c, 0, 69, 0
1, 151199, Note_on_c, 0, 51, 23
1, 151204, Note_on_c, 0, 70, 43
1, 151727, Note_on_c, 0, 51, 0
1, 151737, Note_on_c, 0, 55, 27
1, 152169, Note_on_c, 0, 55, 0
1, 152169, Note_on_c, 0, 58, 39
1, 152366, Note_on_c, 0, 74, 46
1, 152390, Note_on_c, 0, 70, 0
1, 152543, Note_on_c, 0, 58, 0
1, 152601, Note_on_c, 0, 74, 0
1, 152615, Note_on_c, 0, 75, 38
1, 152630, Note_on_c, 0, 55, 33
1, 152836, Note_on_c, 0, 70, 59
1, 152865, Note_on_c, 0, 75, 0
1, 153081, Note_on_c, 0, 55, 0
1, 153105, Note_on_c, 0, 67, 48
1, 153119, Note_on_c, 0, 70, 0
1, 153119, Note_on_c, 0, 51, 29
1, 153412, Note_on_c, 0, 67, 0
1, 153681, Note_on_c, 0, 67, 41
1, 153715, Note_on_c, 0, 55, 22
1, 153859, Note_on_c, 0, 67, 0
1, 154156, Note_on_c, 0, 67, 54
1, 154180, Note_on_c, 0, 55, 0
1, 154180, Note_on_c, 0, 58, 40
1, 154319, Note_on_c, 0, 67, 0
1, 154526, Note_on_c, 0, 58, 0
1, 154588, Note_on_c, 0, 51, 0
1, 154607, Note_on_c, 0, 67, 68
1, 154651, Note_on_c, 0, 55, 31
1, 154790, Note_on_c, 0, 55, 0
1, 154795, Note_on_c, 0, 67, 0
1, 155140, Note_on_c, 0, 67, 69
1, 155145, Note_on_c, 0, 63, 45
1, 155174, Note_on_c, 0, 46, 41
1, 155654, Note_on_c, 0, 51, 38
1, 156167, Note_on_c, 0, 55, 25
1, 156177, Note_on_c, 0, 51, 0
1, 156292, Note_on_c, 0, 67, 0
1, 156398, Note_on_c, 0, 68, 40
1, 156484, Note_on_c, 0, 68, 0
1, 156551, Note_on_c, 0, 67, 32
1, 156619, Note_on_c, 0, 67, 0
1, 156652, Note_on_c, 0, 65, 43
1, 156724, Note_on_c, 0, 65, 0
1, 156724, Note_on_c, 0, 51, 30
1, 156772, Note_on_c, 0, 67, 25
1, 156897, Note_on_c, 0, 46, 0
1, 157007, Note_on_c, 0, 55, 0
1, 157027, Note_on_c, 0, 67, 0
1, 157065, Note_on_c, 0, 68, 44
1, 157185, Note_on_c, 0, 63, 0
1, 157286, Note_on_c, 0, 46, 47
1, 157315, Note_on_c, 0, 65, 44
1, 157324, Note_on_c, 0, 62, 26
1, 157339, Note_on_c, 0, 68, 0
1, 157348, Note_on_c, 0, 51, 0
1, 157747, Note_on_c, 0, 50, 36
1, 157934, Note_on_c, 0, 62, 0
1, 157943, Note_on_c, 0, 65, 0
1, 158231, Note_on_c, 0, 53, 36
1, 158241, Note_on_c, 0, 46, 0
1, 158347, Note_on_c, 0, 50, 0
1, 158471, Note_on_c, 0, 58, 56
1, 158721, Note_on_c, 0, 53, 0
1, 158726, Note_on_c, 0, 60, 70
1, 158745, Note_on_c, 0, 46, 59
1, 158750, Note_on_c, 0, 58, 0
1, 158875, Note_on_c, 0, 46, 0
1, 158956, Note_on_c, 0, 62, 66
1, 159153, Note_on_c, 0, 60, 0
1, 159206, Note_on_c, 0, 63, 59
1, 159215, Note_on_c, 0, 51, 54
1, 159369, Note_on_c, 0, 62, 0
1, 159700, Note_on_c, 0, 58, 47
1, 160214, Note_on_c, 0, 55, 40
1, 160281, Note_on_c, 0, 58, 0
1, 160699, Note_on_c, 0, 58, 46
1, 160809, Note_on_c, 0, 55, 0
1, 160958, Note_on_c, 0, 63, 0
1, 161150, Note_on_c, 0, 46, 80
1, 161159, Note_on_c, 0, 65, 79
1, 161169, Note_on_c, 0, 62, 51
1, 161227, Note_on_c, 0, 51, 0
1, 161255, Note_on_c, 0, 58, 0
1, 161644, Note_on_c, 0, 58, 62
1, 161759, Note_on_c, 0, 62, 0
1, 162110, Note_on_c, 0, 62, 50
1, 162273, Note_on_c, 0, 58, 0
1, 162590, Note_on_c, 0, 65, 0
1, 162614, Note_on_c, 0, 62, 0
1, 162619, Note_on_c, 0, 58, 59
1, 162691, Note_on_c, 0, 58, 0
1, 162739, Note_on_c, 0, 46, 0
1, 163079, Note_on_c, 0, 67, 71
1, 163089, Note_on_c, 0, 63, 38
1, 163113, Note_on_c, 0, 39, 41
1, 163315, Note_on_c, 0, 67, 0
1, 163353, Note_on_c, 0, 63, 0
1, 163367, Note_on_c, 0, 68, 60
1, 163430, Note_on_c, 0, 68, 0
1, 163435, Note_on_c, 0, 67, 60
1, 163483, Note_on_c, 0, 67, 0
1, 163516, Note_on_c, 0, 65, 67
1, 163583, Note_on_c, 0, 65, 0
1, 163583, Note_on_c, 0, 67, 73
1, 163823, Note_on_c, 0, 68, 81
1, 163847, Note_on_c, 0, 67, 0
1, 164054, Note_on_c, 0, 68, 0
1, 164054, Note_on_c, 0, 70, 69
1, 164193, Note_on_c, 0, 70, 0
1, 164279, Note_on_c, 0, 72, 67
1, 164519, Note_on_c, 0, 72, 0
1, 164539, Note_on_c, 0, 74, 57
1, 164577, Note_on_c, 0, 39, 0
1, 164649, Note_on_c, 0, 74, 0
1, 164831, Note_on_c, 0, 75, 50
1, 165220, Note_on_c, 0, 70, 45
1, 165254, Note_on_c, 0, 75, 0
1, 165662, Note_on_c, 0, 70, 0
1, 166545, Note_on_c, 0, 75, 36
1, 166723, Note_on_c, 0, 75, 0
1, 166814, Note_on_c, 0, 74, 50
1, 166871, Note_on_c, 0, 74, 0
1, 167011, Note_on_c, 0, 73, 63
1, 167107, Note_on_c, 0, 73, 0
1, 167236, Note_on_c, 0, 72, 77
1, 167371, Note_on_c, 0, 72, 0
1, 167505, Note_on_c, 0, 71, 57
1, 167913, Note_on_c, 0, 71, 0
1, 167990, Note_on_c, 0, 63, 26
1, 168003, Note_on_c, 0, 55, 31
1, 168446, Note_on_c, 0, 75, 53
1, 168451, Note_on_c, 0, 63, 0
1, 168455, Note_on_c, 0, 55, 0
1, 168580, Note_on_c, 0, 75, 0
1, 168667, Note_on_c, 0, 74, 74
1, 168743, Note_on_c, 0, 74, 0
1, 168863, Note_on_c, 0, 73, 70
1, 168983, Note_on_c, 0, 73, 0
1, 169094, Note_on_c, 0, 72, 78
1, 169223, Note_on_c, 0, 72, 0
1, 169363, Note_on_c, 0, 71, 48
1, 169670, Note_on_c, 0, 71, 0
1, 169828, Note_on_c, 0, 63, 28
1, 169852, Note_on_c, 0, 55, 27
1, 170212, Note_on_c, 0, 55, 0
1, 170251, Note_on_c, 0, 63, 0
1, 170270, Note_on_c, 0, 75, 65
1, 170428, Note_on_c, 0, 75, 0
1, 170505, Note_on_c, 0, 74, 89
1, 170611, Note_on_c, 0, 74, 0
1, 170711, Note_on_c, 0, 73, 88
1, 170817, Note_on_c, 0, 73, 0
1, 170932, Note_on_c, 0, 72, 95
1, 171076, Note_on_c, 0, 72, 0
1, 171225, Note_on_c, 0, 71, 88
1, 171225, Note_on_c, 0, 63, 64
1, 171239, Note_on_c, 0, 55, 62
1, 171249, Note_on_c, 0, 61, 59
1, 172670, Note_on_c, 0, 55, 0
1, 172814, Note_on_c, 0, 61, 0
1, 173207, Note_on_c, 0, 72, 39
1, 173220, Note_on_c, 0, 56, 22
1, 173220, Note_on_c, 0, 60, 19
1, 173337, Note_on_c, 0, 71, 0
1, 173769, Note_on_c, 0, 72, 0
1, 173806, Note_on_c, 0, 60, 0
1, 173875, Note_on_c, 0, 63, 0
1, 173882, Note_on_c, 0, 56, 0
1, 174494, Note_on_c, 0, 65, 34
1, 174638, Note_on_c, 0, 65, 0
1, 174753, Note_on_c, 0, 67, 50
1, 174815, Note_on_c, 0, 67, 0
1, 174950, Note_on_c, 0, 68, 69
1, 175060, Note_on_c, 0, 68, 0
1, 175185, Note_on_c, 0, 69, 70
1, 175319, Note_on_c, 0, 69, 0
1, 175511, Note_on_c, 0, 70, 62
1, 176515, Note_on_c, 0, 51, 26
1, 176515, Note_on_c, 0, 43, 25
1, 176807, Note_on_c, 0, 70, 0
1, 176851, Note_on_c, 0, 74, 37
1, 176903, Note_on_c, 0, 74, 0
1, 176975, Note_on_c, 0, 72, 42
1, 177091, Note_on_c, 0, 72, 0
1, 177091, Note_on_c, 0, 75, 50
1, 177201, Note_on_c, 0, 75, 0
1, 177220, Note_on_c, 0, 74, 73
1, 177321, Note_on_c, 0, 74, 0
1, 177364, Note_on_c, 0, 77, 50
1, 177465, Note_on_c, 0, 77, 0
1, 177489, Note_on_c, 0, 75, 67
1, 177532, Note_on_c, 0, 75, 0
1, 177724, Note_on_c, 0, 63, 69
1, 177724, Note_on_c, 0, 46, 47
1, 177734, Note_on_c, 0, 58, 59
1, 177758, Note_on_c, 0, 51, 0
1, 177763, Note_on_c, 0, 55, 32
1, 177883, Note_on_c, 0, 43, 0
1, 178833, Note_on_c, 0, 63, 0
1, 178919, Note_on_c, 0, 65, 32
1, 178987, Note_on_c, 0, 65, 0
1, 179030, Note_on_c, 0, 63, 32
1, 179092, Note_on_c, 0, 63, 0
1, 179135, Note_on_c, 0, 62, 26
1, 179150, Note_on_c, 0, 56, 34
1, 179212, Note_on_c, 0, 63, 35
1, 179222, Note_on_c, 0, 55, 0
1, 179222, Note_on_c, 0, 62, 0
1, 179260, Note_on_c, 0, 58, 0
1, 179433, Note_on_c, 0, 63, 0
1, 179457, Note_on_c, 0, 62, 19
1, 179471, Note_on_c, 0, 67, 40
1, 179812, Note_on_c, 0, 67, 0
1, 179812, Note_on_c, 0, 65, 38
1, 179822, Note_on_c, 0, 56, 0
1, 179918, Note_on_c, 0, 62, 0
1, 179971, Note_on_c, 0, 46, 0
1, 180153, Note_on_c, 0, 65, 0
1, 180187, Note_on_c, 0, 63, 28
1, 180215, Note_on_c, 0, 51, 20
1, 180239, Note_on_c, 0, 55, 27
1, 180638, Note_on_c, 0, 55, 0
1, 180671, Note_on_c, 0, 51, 0
1, 180676, Note_on_c, 0, 63, 0
1, 181430, Note_on_c, 0, 63, 17
1, 181447, Note_on_c, 0, 51, 16
1, 181447, Note_on_c, 0, 55, 16
1, 181619, Note_on_c, 0, 51, 0
1, 181672, Note_on_c, 0, 55, 0
1, 181742, Note_on_c, 0, 63, 0
1, 183979, Note_on_c, 0, 32, 30
1, 183988, Note_on_c, 0, 51, 34
1, 183993, Note_on_c, 0, 60, 61
1, 184579, Note_on_c, 0, 32, 0
1, 184631, Note_on_c, 0, 44, 22
1, 184828, Note_on_c, 0, 44, 0
1, 185131, Note_on_c, 0, 44, 22
1, 185279, Note_on_c, 0, 44, 0
1, 185596, Note_on_c, 0, 44, 17
1, 185769, Note_on_c, 0, 44, 0
1, 185774, Note_on_c, 0, 51, 0
1, 186071, Note_on_c, 0, 44, 27
1, 186158, Note_on_c, 0, 58, 65
1, 186182, Note_on_c, 0, 49, 25
1, 186431, Note_on_c, 0, 44, 0
1, 186475, Note_on_c, 0, 60, 0
1, 186647, Note_on_c, 0, 44, 17
1, 186772, Note_on_c, 0, 44, 0
1, 187103, Note_on_c, 0, 44, 19
1, 187238, Note_on_c, 0, 44, 0
1, 187507, Note_on_c, 0, 49, 0
1, 187603, Note_on_c, 0, 44, 22
1, 187732, Note_on_c, 0, 44, 0
1, 188193, Note_on_c, 0, 63, 41
1, 188231, Note_on_c, 0, 56, 35
1, 188231, Note_on_c, 0, 44, 19
1, 188236, Note_on_c, 0, 48, 24
1, 188428, Note_on_c, 0, 58, 0
1, 188553, Note_on_c, 0, 44, 0
1, 188774, Note_on_c, 0, 44, 27
1, 188951, Note_on_c, 0, 44, 0
1, 189254, Note_on_c, 0, 44, 29
1, 189489, Note_on_c, 0, 44, 0
1, 189753, Note_on_c, 0, 44, 23
1, 190027, Note_on_c, 0, 44, 0
1, 190161, Note_on_c, 0, 56, 0
1, 190292, Note_on_c, 0, 46, 42
1, 190300, Note_on_c, 0, 39, 31
1, 190315, Note_on_c, 0, 48, 0
1, 190319, Note_on_c, 0, 55, 21
1, 190607, Note_on_c, 0, 65, 41
1, 190660, Note_on_c, 0, 39, 0
1, 190665, Note_on_c, 0, 63, 0
1, 190862, Note_on_c, 0, 63, 60
1, 190900, Note_on_c, 0, 39, 28
1, 190905, Note_on_c, 0, 65, 0
1, 191107, Note_on_c, 0, 65, 68
1, 191126, Note_on_c, 0, 39, 0
1, 191174, Note_on_c, 0, 63, 0
1, 191318, Note_on_c, 0, 61, 71
1, 191337, Note_on_c, 0, 65, 0
1, 191366, Note_on_c, 0, 39, 30
1, 191524, Note_on_c, 0, 63, 74
1, 191539, Note_on_c, 0, 39, 0
1, 191558, Note_on_c, 0, 61, 0
1, 191745, Note_on_c, 0, 61, 68
1, 191774, Note_on_c, 0, 63, 0
1, 191774, Note_on_c, 0, 39, 45
1, 191899, Note_on_c, 0, 55, 0
1, 191908, Note_on_c, 0, 61, 0
1, 191976, Note_on_c, 0, 46, 0
1, 191990, Note_on_c, 0, 63, 61
1, 192014, Note_on_c, 0, 39, 0
1, 192364, Note_on_c, 0, 51, 50
1, 192364, Note_on_c, 0, 60, 70
1, 192393, Note_on_c, 0, 32, 40
1, 192695, Note_on_c, 0, 63, 0
1, 192897, Note_on_c, 0, 44, 41
1, 193099, Note_on_c, 0, 32, 0
1, 193209, Note_on_c, 0, 44, 0
1, 193435, Note_on_c, 0, 44, 28
1, 193636, Note_on_c, 0, 44, 0
1, 193910, Note_on_c, 0, 44, 28
1, 194107, Note_on_c, 0, 44, 0
1, 194198, Note_on_c, 0, 51, 0
1, 194390, Note_on_c, 0, 44, 29
1, 194399, Note_on_c, 0, 58, 71
1, 194419, Note_on_c, 0, 49, 38
1, 194731, Note_on_c, 0, 44, 0
1, 194865, Note_on_c, 0, 60, 0
1, 194913, Note_on_c, 0, 44, 31
1, 195158, Note_on_c, 0, 44, 0
1, 195350, Note_on_c, 0, 44, 38
1, 195599, Note_on_c, 0, 44, 0
1, 195763, Note_on_c, 0, 49, 0
1, 195835, Note_on_c, 0, 44, 38
1, 195983, Note_on_c, 0, 58, 0
1, 196012, Note_on_c, 0, 44, 0
1, 196324, Note_on_c, 0, 44, 39
1, 196324, Note_on_c, 0, 48, 49
1, 196337, Note_on_c, 0, 63, 67
1, 196347, Note_on_c, 0, 56, 40
1, 196727, Note_on_c, 0, 44, 0
1, 196915, Note_on_c, 0, 44, 39
1, 197203, Note_on_c, 0, 44, 0
1, 197390, Note_on_c, 0, 44, 40
1, 197711, Note_on_c, 0, 44, 0
1, 197894, Note_on_c, 0, 44, 48
1, 198148, Note_on_c, 0, 44, 0
1, 198228, Note_on_c, 0, 56, 0
1, 198355, Note_on_c, 0, 48, 0
1, 198369, Note_on_c, 0, 46, 57
1, 198379, Note_on_c, 0, 55, 46
1, 198383, Note_on_c, 0, 39, 37
1, 198646, Note_on_c, 0, 63, 0
1, 198657, Note_on_c, 0, 65, 78
1, 198772, Note_on_c, 0, 39, 0
1, 198916, Note_on_c, 0, 63, 76
1, 198935, Note_on_c, 0, 65, 0
1, 198955, Note_on_c, 0, 39, 50
1, 199156, Note_on_c, 0, 65, 78
1, 199190, Note_on_c, 0, 39, 0
1, 199223, Note_on_c, 0, 63, 0
1, 199372, Note_on_c, 0, 61, 73
1, 199406, Note_on_c, 0, 39, 41
1, 199449, Note_on_c, 0, 65, 0
1, 199593, Note_on_c, 0, 63, 76
1, 199631, Note_on_c, 0, 61, 0
1, 199641, Note_on_c, 0, 39, 0
1, 199795, Note_on_c, 0, 61, 74
1, 199814, Note_on_c, 0, 39, 60
1, 199819, Note_on_c, 0, 63, 0
1, 200020, Note_on_c, 0, 39, 0
1, 200020, Note_on_c, 0, 55, 0
1, 200025, Note_on_c, 0, 46, 0
1, 200030, Note_on_c, 0, 63, 78
1, 200135, Note_on_c, 0, 61, 0
1, 200337, Note_on_c, 0, 60, 81
1, 200347, Note_on_c, 0, 56, 55
1, 200356, Note_on_c, 0, 44, 51
1, 200447, Note_on_c, 0, 63, 0
1, 200750, Note_on_c, 0, 56, 0
1, 200899, Note_on_c, 0, 56, 62
1, 200947, Note_on_c, 0, 60, 0
1, 201182, Note_on_c, 0, 56, 0
1, 201383, Note_on_c, 0, 56, 51
1, 201393, Note_on_c, 0, 68, 86
1, 201422, Note_on_c, 0, 60, 45
1, 201427, Note_on_c, 0, 44, 0
1, 201700, Note_on_c, 0, 56, 0
1, 201897, Note_on_c, 0, 56, 43
1, 202214, Note_on_c, 0, 56, 0
1, 202396, Note_on_c, 0, 56, 38
1, 202636, Note_on_c, 0, 56, 0
1, 202867, Note_on_c, 0, 56, 47
1, 203068, Note_on_c, 0, 56, 0
1, 203303, Note_on_c, 0, 56, 34
1, 203342, Note_on_c, 0, 63, 57
1, 203342, Note_on_c, 0, 67, 75
1, 203486, Note_on_c, 0, 68, 0
1, 203543, Note_on_c, 0, 60, 0
1, 203625, Note_on_c, 0, 56, 0
1, 203827, Note_on_c, 0, 56, 29
1, 204081, Note_on_c, 0, 56, 0
1, 204110, Note_on_c, 0, 63, 0
1, 204119, Note_on_c, 0, 67, 0
1, 204364, Note_on_c, 0, 67, 75
1, 204364, Note_on_c, 0, 63, 60
1, 204393, Note_on_c, 0, 56, 29
1, 204887, Note_on_c, 0, 65, 62
1, 204892, Note_on_c, 0, 61, 48
1, 204945, Note_on_c, 0, 67, 0
1, 204945, Note_on_c, 0, 63, 0
1, 205473, Note_on_c, 0, 60, 39
1, 205478, Note_on_c, 0, 63, 50
1, 205526, Note_on_c, 0, 65, 0
1, 205569, Note_on_c, 0, 61, 0
1, 205713, Note_on_c, 0, 56, 0
1, 205905, Note_on_c, 0, 60, 0
1, 205987, Note_on_c, 0, 63, 0
1, 207095, Note_on_c, 0, 74, 30
1, 207595, Note_on_c, 0, 75, 57
1, 207662, Note_on_c, 0, 74, 0
1, 207993, Note_on_c, 0, 77, 70
1, 208075, Note_on_c, 0, 75, 0
1, 208497, Note_on_c, 0, 75, 38
1, 208521, Note_on_c, 0, 77, 0
1, 208838, Note_on_c, 0, 75, 0
1, 208977, Note_on_c, 0, 75, 33
1, 209020, Note_on_c, 0, 51, 23
1, 209505, Note_on_c, 0, 58, 27
1, 209505, Note_on_c, 0, 67, 30
1, 209548, Note_on_c, 0, 75, 0
1, 209759, Note_on_c, 0, 67, 0
1, 209788, Note_on_c, 0, 58, 0
1, 209947, Note_on_c, 0, 61, 28
1, 209956, Note_on_c, 0, 67, 52
1, 210326, Note_on_c, 0, 61, 0
1, 210335, Note_on_c, 0, 51, 0
1, 210369, Note_on_c, 0, 58, 42
1, 210623, Note_on_c, 0, 58, 0
1, 210811, Note_on_c, 0, 51, 45
1, 211171, Note_on_c, 0, 58, 45
1, 211209, Note_on_c, 0, 67, 0
1, 211262, Note_on_c, 0, 68, 63
1, 211353, Note_on_c, 0, 67, 70
1, 211372, Note_on_c, 0, 68, 0
1, 211415, Note_on_c, 0, 67, 0
1, 211444, Note_on_c, 0, 65, 78
1, 211555, Note_on_c, 0, 67, 78
1, 211569, Note_on_c, 0, 65, 0
1, 211622, Note_on_c, 0, 61, 38
1, 211641, Note_on_c, 0, 58, 0
1, 211675, Note_on_c, 0, 68, 86
1, 211708, Note_on_c, 0, 67, 0
1, 212006, Note_on_c, 0, 61, 0
1, 212030, Note_on_c, 0, 58, 45
1, 212035, Note_on_c, 0, 51, 0
1, 212092, Note_on_c, 0, 70, 94
1, 212111, Note_on_c, 0, 68, 0
1, 212164, Note_on_c, 0, 58, 0
1, 212366, Note_on_c, 0, 70, 0
1, 212471, Note_on_c, 0, 51, 34
1, 212515, Note_on_c, 0, 70, 87
1, 212937, Note_on_c, 0, 56, 44
1, 213119, Note_on_c, 0, 72, 84
1, 213187, Note_on_c, 0, 70, 0
1, 213331, Note_on_c, 0, 60, 36
1, 213407, Note_on_c, 0, 68, 69
1, 213460, Note_on_c, 0, 72, 0
1, 213599, Note_on_c, 0, 56, 0
1, 213719, Note_on_c, 0, 51, 0
1, 213729, Note_on_c, 0, 68, 0
1, 213748, Note_on_c, 0, 60, 0
1, 213806, Note_on_c, 0, 56, 37
1, 213911, Note_on_c, 0, 56, 0
1, 214209, Note_on_c, 0, 74, 71
1, 214214, Note_on_c, 0, 51, 36
1, 214435, Note_on_c, 0, 75, 77
1, 214473, Note_on_c, 0, 74, 0
1, 214627, Note_on_c, 0, 56, 48
1, 214627, Note_on_c, 0, 74, 99
1, 214699, Note_on_c, 0, 75, 0
1, 214819, Note_on_c, 0, 75, 90
1, 214857, Note_on_c, 0, 74, 0
1, 215015, Note_on_c, 0, 74, 96
1, 215044, Note_on_c, 0, 60, 38
1, 215083, Note_on_c, 0, 75, 0
1, 215174, Note_on_c, 0, 56, 0
1, 215227, Note_on_c, 0, 75, 90
1, 215294, Note_on_c, 0, 74, 0
1, 215452, Note_on_c, 0, 77, 87
1, 215467, Note_on_c, 0, 75, 0
1, 215476, Note_on_c, 0, 56, 43
1, 215587, Note_on_c, 0, 51, 0
1, 215611, Note_on_c, 0, 60, 0
1, 215668, Note_on_c, 0, 75, 78
1, 215697, Note_on_c, 0, 77, 0
1, 215774, Note_on_c, 0, 75, 0
1, 215822, Note_on_c, 0, 56, 0
1, 215899, Note_on_c, 0, 75, 67
1, 215961, Note_on_c, 0, 51, 32
1, 216436, Note_on_c, 0, 70, 60
1, 216518, Note_on_c, 0, 55, 27
1, 216551, Note_on_c, 0, 75, 0
1, 216758, Note_on_c, 0, 70, 0
1, 216863, Note_on_c, 0, 70, 49
1, 216897, Note_on_c, 0, 55, 0
1, 216916, Note_on_c, 0, 58, 29
1, 217118, Note_on_c, 0, 51, 0
1, 217238, Note_on_c, 0, 58, 0
1, 217319, Note_on_c, 0, 55, 25
1, 217651, Note_on_c, 0, 55, 0
1, 217699, Note_on_c, 0, 51, 32
1, 217876, Note_on_c, 0, 70, 0
1, 217886, Note_on_c, 0, 72, 64
1, 218030, Note_on_c, 0, 70, 77
1, 218059, Note_on_c, 0, 72, 0
1, 218083, Note_on_c, 0, 55, 34
1, 218140, Note_on_c, 0, 51, 0
1, 218169, Note_on_c, 0, 69, 75
1, 218174, Note_on_c, 0, 70, 0
1, 218294, Note_on_c, 0, 70, 79
1, 218332, Note_on_c, 0, 69, 0
1, 218428, Note_on_c, 0, 58, 37
1, 218457, Note_on_c, 0, 72, 83
1, 218491, Note_on_c, 0, 70, 0
1, 218495, Note_on_c, 0, 51, 16
1, 218659, Note_on_c, 0, 55, 0
1, 218894, Note_on_c, 0, 73, 64
1, 218918, Note_on_c, 0, 55, 22
1, 218937, Note_on_c, 0, 72, 0
1, 218951, Note_on_c, 0, 51, 0
1, 219009, Note_on_c, 0, 58, 0
1, 219350, Note_on_c, 0, 71, 39
1, 219374, Note_on_c, 0, 55, 0
1, 219388, Note_on_c, 0, 51, 27
1, 219503, Note_on_c, 0, 73, 0
1, 219772, Note_on_c, 0, 56, 38
1, 220199, Note_on_c, 0, 56, 0
1, 220219, Note_on_c, 0, 60, 25
1, 220233, Note_on_c, 0, 72, 42
1, 220286, Note_on_c, 0, 71, 0
1, 220507, Note_on_c, 0, 72, 0
1, 220564, Note_on_c, 0, 51, 0
1, 220612, Note_on_c, 0, 60, 0
1, 220617, Note_on_c, 0, 56, 33
1, 221068, Note_on_c, 0, 71, 41
1, 221068, Note_on_c, 0, 51, 23
1, 221078, Note_on_c, 0, 56, 0
1, 221299, Note_on_c, 0, 71, 0
1, 221299, Note_on_c, 0, 72, 58
1, 221476, Note_on_c, 0, 71, 58
1, 221500, Note_on_c, 0, 72, 0
1, 221563, Note_on_c, 0, 51, 0
1, 221663, Note_on_c, 0, 72, 85
1, 221687, Note_on_c, 0, 71, 0
1, 221860, Note_on_c, 0, 71, 73
1, 221894, Note_on_c, 0, 72, 0
1, 222057, Note_on_c, 0, 72, 100
1, 222071, Note_on_c, 0, 71, 0
1, 222235, Note_on_c, 0, 72, 0
1, 222254, Note_on_c, 0, 73, 89
1, 222355, Note_on_c, 0, 73, 0
1, 222451, Note_on_c, 0, 72, 109
1, 222605, Note_on_c, 0, 72, 0
1, 222703, Note_on_c, 0, 80, 96
1, 222708, Note_on_c, 0, 70, 88
1, 222732, Note_on_c, 0, 77, 75
1, 222732, Note_on_c, 0, 74, 66
1, 222765, Note_on_c, 0, 50, 41
1, 222785, Note_on_c, 0, 74, 0
1, 222852, Note_on_c, 0, 70, 0
1, 222953, Note_on_c, 0, 77, 0
1, 223020, Note_on_c, 0, 80, 0
1, 223106, Note_on_c, 0, 50, 0
1, 223169, Note_on_c, 0, 53, 49
1, 223423, Note_on_c, 0, 53, 0
1, 223634, Note_on_c, 0, 58, 58
1, 223649, Note_on_c, 0, 80, 100
1, 223850, Note_on_c, 0, 58, 0
1, 224057, Note_on_c, 0, 53, 55
1, 224455, Note_on_c, 0, 53, 0
1, 224575, Note_on_c, 0, 50, 44
1, 224877, Note_on_c, 0, 79, 74
1, 224882, Note_on_c, 0, 80, 0
1, 224945, Note_on_c, 0, 50, 0
1, 225031, Note_on_c, 0, 79, 0
1, 225031, Note_on_c, 0, 80, 81
1, 225137, Note_on_c, 0, 82, 91
1, 225141, Note_on_c, 0, 80, 0
1, 225228, Note_on_c, 0, 80, 73
1, 225271, Note_on_c, 0, 82, 0
1, 225329, Note_on_c, 0, 79, 91
1, 225357, Note_on_c, 0, 80, 0
1, 225367, Note_on_c, 0, 79, 0
1, 225415, Note_on_c, 0, 77, 80
1, 225468, Note_on_c, 0, 77, 0
1, 225487, Note_on_c, 0, 75, 79
1, 225573, Note_on_c, 0, 74, 82
1, 225607, Note_on_c, 0, 75, 0
1, 225607, Note_on_c, 0, 74, 0
1, 225641, Note_on_c, 0, 72, 85
1, 225727, Note_on_c, 0, 70, 88
1, 225765, Note_on_c, 0, 72, 0
1, 225809, Note_on_c, 0, 68, 81
1, 225852, Note_on_c, 0, 70, 0
1, 225881, Note_on_c, 0, 67, 80
1, 225929, Note_on_c, 0, 68, 0
1, 225929, Note_on_c, 0, 67, 0
1, 225967, Note_on_c, 0, 65, 84
1, 226029, Note_on_c, 0, 65, 0
1, 226039, Note_on_c, 0, 63, 72
1, 226121, Note_on_c, 0, 62, 76
1, 226149, Note_on_c, 0, 63, 0
1, 226159, Note_on_c, 0, 62, 0
1, 226183, Note_on_c, 0, 60, 77
1, 226255, Note_on_c, 0, 58, 93
1, 226293, Note_on_c, 0, 60, 0
1, 226337, Note_on_c, 0, 56, 83
1, 226418, Note_on_c, 0, 58, 0
1, 226437, Note_on_c, 0, 55, 96
1, 226476, Note_on_c, 0, 39, 55
1, 226509, Note_on_c, 0, 56, 0
1, 226884, Note_on_c, 0, 43, 86
1, 226903, Note_on_c, 0, 55, 0
1, 227158, Note_on_c, 0, 43, 0
1, 227340, Note_on_c, 0, 51, 87
1, 227364, Note_on_c, 0, 46, 86
1, 227638, Note_on_c, 0, 46, 0
1, 227777, Note_on_c, 0, 43, 69
1, 227810, Note_on_c, 0, 39, 0
1, 228228, Note_on_c, 0, 43, 0
1, 228309, Note_on_c, 0, 39, 52
1, 228415, Note_on_c, 0, 53, 70
1, 228420, Note_on_c, 0, 51, 0
1, 228559, Note_on_c, 0, 51, 73
1, 228578, Note_on_c, 0, 53, 0
1, 228665, Note_on_c, 0, 50, 81
1, 228669, Note_on_c, 0, 51, 0
1, 228761, Note_on_c, 0, 51, 69
1, 228789, Note_on_c, 0, 50, 0
1, 228823, Note_on_c, 0, 51, 0
1, 228852, Note_on_c, 0, 53, 81
1, 228929, Note_on_c, 0, 53, 0
1, 228948, Note_on_c, 0, 55, 88
1, 229015, Note_on_c, 0, 56, 86
1, 229063, Note_on_c, 0, 55, 0
1, 229106, Note_on_c, 0, 58, 100
1, 229135, Note_on_c, 0, 39, 0
1, 229145, Note_on_c, 0, 58, 0
1, 229145, Note_on_c, 0, 56, 0
1, 229178, Note_on_c, 0, 60, 87
1, 229245, Note_on_c, 0, 60, 0
1, 229260, Note_on_c, 0, 62, 90
1, 229322, Note_on_c, 0, 63, 91
1, 229351, Note_on_c, 0, 63, 0
1, 229356, Note_on_c, 0, 62, 0
1, 229399, Note_on_c, 0, 65, 96
1, 229476, Note_on_c, 0, 67, 99
1, 229483, Note_on_c, 0, 65, 0
1, 229533, Note_on_c, 0, 68, 88
1, 229596, Note_on_c, 0, 67, 0
1, 229601, Note_on_c, 0, 70, 98
1, 229639, Note_on_c, 0, 68, 0
1, 229644, Note_on_c, 0, 70, 0
1, 229677, Note_on_c, 0, 72, 96
1, 229745, Note_on_c, 0, 72, 0
1, 229749, Note_on_c, 0, 74, 104
1, 229807, Note_on_c, 0, 75, 92
1, 229826, Note_on_c, 0, 74, 0
1, 229841, Note_on_c, 0, 75, 0
1, 229884, Note_on_c, 0, 77, 104
1, 229951, Note_on_c, 0, 79, 102
1, 229994, Note_on_c, 0, 77, 0
1, 230018, Note_on_c, 0, 80, 95
1, 230076, Note_on_c, 0, 79, 0
1, 230076, Note_on_c, 0, 82, 104
1, 230124, Note_on_c, 0, 80, 0
1, 230129, Note_on_c, 0, 82, 0
1, 230162, Note_on_c, 0, 84, 101
1, 230229, Note_on_c, 0, 86, 72
1, 230268, Note_on_c, 0, 84, 0
1, 230335, Note_on_c, 0, 87, 104
1, 230345, Note_on_c, 0, 48, 59
1, 230359, Note_on_c, 0, 86, 0
1, 230681, Note_on_c, 0, 87, 0
1, 230733, Note_on_c, 0, 48, 0
1, 230762, Note_on_c, 0, 51, 50
1, 231141, Note_on_c, 0, 51, 0
1, 231180, Note_on_c, 0, 57, 71
1, 231261, Note_on_c, 0, 87, 107
1, 231545, Note_on_c, 0, 57, 0
1, 231717, Note_on_c, 0, 51, 59
1, 232044, Note_on_c, 0, 51, 0
1, 232145, Note_on_c, 0, 48, 69
1, 232649, Note_on_c, 0, 87, 0
1, 232663, Note_on_c, 0, 86, 72
1, 232807, Note_on_c, 0, 87, 74
1, 232812, Note_on_c, 0, 86, 0
1, 232917, Note_on_c, 0, 87, 0
1, 232927, Note_on_c, 0, 89, 79
1, 233013, Note_on_c, 0, 87, 75
1, 233047, Note_on_c, 0, 89, 0
1, 233138, Note_on_c, 0, 86, 87
1, 233157, Note_on_c, 0, 87, 0
1, 233229, Note_on_c, 0, 86, 0
1, 233239, Note_on_c, 0, 84, 84
1, 233258, Note_on_c, 0, 48, 0
1, 233340, Note_on_c, 0, 84, 0
1, 233340, Note_on_c, 0, 82, 94
1, 233426, Note_on_c, 0, 81, 81
1, 233460, Note_on_c, 0, 82, 0
1, 233508, Note_on_c, 0, 79, 89
1, 233527, Note_on_c, 0, 81, 0
1, 233541, Note_on_c, 0, 79, 0
1, 233580, Note_on_c, 0, 77, 72
1, 233642, Note_on_c, 0, 77, 0
1, 233647, Note_on_c, 0, 75, 81
1, 233757, Note_on_c, 0, 74, 80
1, 233791, Note_on_c, 0, 74, 0
1, 233801, Note_on_c, 0, 75, 0
1, 233810, Note_on_c, 0, 72, 91
1, 233901, Note_on_c, 0, 70, 80
1, 233911, Note_on_c, 0, 72, 0
1, 233973, Note_on_c, 0, 69, 75
1, 234031, Note_on_c, 0, 70, 0
1, 234036, Note_on_c, 0, 67, 85
1, 234045, Note_on_c, 0, 69, 0
1, 234074, Note_on_c, 0, 67, 0
1, 234113, Note_on_c, 0, 65, 80
1, 234165, Note_on_c, 0, 65, 0
1, 234204, Note_on_c, 0, 63, 74
1, 234324, Note_on_c, 0, 62, 76
1, 234329, Note_on_c, 0, 63, 0
1, 234329, Note_on_c, 0, 46, 55
1, 234559, Note_on_c, 0, 65, 85
1, 234583, Note_on_c, 0, 62, 0
1, 234881, Note_on_c, 0, 70, 82
1, 234895, Note_on_c, 0, 65, 0
1, 235068, Note_on_c, 0, 46, 0
1, 235437, Note_on_c, 0, 68, 51
1, 235457, Note_on_c, 0, 62, 42
1, 235716, Note_on_c, 0, 70, 0
1, 235970, Note_on_c, 0, 70, 72
1, 236436, Note_on_c, 0, 62, 0
1, 236445, Note_on_c, 0, 68, 0
1, 236484, Note_on_c, 0, 66, 40
1, 236498, Note_on_c, 0, 63, 31
1, 236959, Note_on_c, 0, 75, 55
1, 236988, Note_on_c, 0, 70, 0
1, 237468, Note_on_c, 0, 71, 32
1, 237530, Note_on_c, 0, 75, 0
1, 237943, Note_on_c, 0, 69, 36
1, 238025, Note_on_c, 0, 71, 0
1, 238212, Note_on_c, 0, 66, 0
1, 238380, Note_on_c, 0, 70, 52
1, 238393, Note_on_c, 0, 62, 20
1, 238398, Note_on_c, 0, 65, 28
1, 238423, Note_on_c, 0, 63, 0
1, 238428, Note_on_c, 0, 69, 0
1, 238609, Note_on_c, 0, 65, 0
1, 238647, Note_on_c, 0, 62, 0
1, 238649, Note_on_c, 0, 70, 0
1, 238845, Note_on_c, 0, 75, 72
1, 239287, Note_on_c, 0, 71, 57
1, 239301, Note_on_c, 0, 66, 47
1, 239301, Note_on_c, 0, 63, 44
1, 239426, Note_on_c, 0, 75, 0
1, 239786, Note_on_c, 0, 69, 55
1, 239906, Note_on_c, 0, 71, 0
1, 240146, Note_on_c, 0, 66, 0
1, 240199, Note_on_c, 0, 70, 58
1, 240218, Note_on_c, 0, 63, 0
1, 240226, Note_on_c, 0, 65, 34
1, 240237, Note_on_c, 0, 69, 0
1, 240241, Note_on_c, 0, 62, 18
1, 240442, Note_on_c, 0, 65, 0
1, 240449, Note_on_c, 0, 70, 0
1, 240505, Note_on_c, 0, 62, 0
1, 240641, Note_on_c, 0, 75, 76
1, 241111, Note_on_c, 0, 71, 55
1, 241140, Note_on_c, 0, 66, 33
1, 241149, Note_on_c, 0, 63, 25
1, 241298, Note_on_c, 0, 75, 0
1, 241620, Note_on_c, 0, 69, 38
1, 241701, Note_on_c, 0, 71, 0
1, 241893, Note_on_c, 0, 66, 0
1, 242157, Note_on_c, 0, 70, 41
1, 242181, Note_on_c, 0, 69, 0
1, 242205, Note_on_c, 0, 63, 0
1, 242210, Note_on_c, 0, 65, 26
1, 242220, Note_on_c, 0, 62, 16
1, 242441, Note_on_c, 0, 70, 0
1, 242604, Note_on_c, 0, 70, 63
1, 243065, Note_on_c, 0, 69, 55
1, 243156, Note_on_c, 0, 70, 0
1, 243228, Note_on_c, 0, 65, 0
1, 243314, Note_on_c, 0, 62, 0
1, 243482, Note_on_c, 0, 70, 73
1, 243597, Note_on_c, 0, 69, 0
1, 243890, Note_on_c, 0, 69, 73
1, 244010, Note_on_c, 0, 70, 0
1, 244317, Note_on_c, 0, 70, 74
1, 244447, Note_on_c, 0, 69, 0
1, 244802, Note_on_c, 0, 71, 49
1, 244879, Note_on_c, 0, 70, 0
1, 245479, Note_on_c, 0, 70, 36
1, 245532, Note_on_c, 0, 71, 0
1, 245762, Note_on_c, 0, 70, 0
1, 246223, Note_on_c, 0, 70, 31
1, 246285, Note_on_c, 0, 61, 21
1, 246290, Note_on_c, 0, 42, 17
1, 246391, Note_on_c, 0, 42, 0
1, 246756, Note_on_c, 0, 54, 25
1, 246943, Note_on_c, 0, 54, 0
1, 247193, Note_on_c, 0, 54, 20
1, 247317, Note_on_c, 0, 54, 0
1, 247591, Note_on_c, 0, 54, 16
1, 247769, Note_on_c, 0, 54, 0
1, 247817, Note_on_c, 0, 61, 0
1, 248028, Note_on_c, 0, 54, 17
1, 248071, Note_on_c, 0, 68, 50
1, 248084, Note_on_c, 0, 59, 33
1, 248220, Note_on_c, 0, 70, 0
1, 248306, Note_on_c, 0, 54, 0
1, 248527, Note_on_c, 0, 54, 16
1, 248642, Note_on_c, 0, 54, 0
1, 248935, Note_on_c, 0, 54, 20
1, 249074, Note_on_c, 0, 54, 0
1, 249236, Note_on_c, 0, 59, 0
1, 249367, Note_on_c, 0, 54, 16
1, 249501, Note_on_c, 0, 54, 0
1, 249818, Note_on_c, 0, 73, 60
1, 249833, Note_on_c, 0, 58, 39
1, 249837, Note_on_c, 0, 66, 41
1, 249847, Note_on_c, 0, 54, 23
1, 250082, Note_on_c, 0, 68, 0
1, 250159, Note_on_c, 0, 54, 0
1, 250356, Note_on_c, 0, 54, 33
1, 250490, Note_on_c, 0, 54, 0
1, 250783, Note_on_c, 0, 54, 26
1, 250946, Note_on_c, 0, 54, 0
1, 251210, Note_on_c, 0, 54, 34
1, 251335, Note_on_c, 0, 54, 0
1, 251431, Note_on_c, 0, 66, 0
1, 251503, Note_on_c, 0, 58, 0
1, 251642, Note_on_c, 0, 49, 34
1, 251642, Note_on_c, 0, 56, 35
1, 251661, Note_on_c, 0, 65, 45
1, 251868, Note_on_c, 0, 49, 0
1, 251892, Note_on_c, 0, 75, 60
1, 251935, Note_on_c, 0, 73, 0
1, 252122, Note_on_c, 0, 73, 70
1, 252132, Note_on_c, 0, 49, 39
1, 252165, Note_on_c, 0, 75, 0
1, 252333, Note_on_c, 0, 75, 78
1, 252367, Note_on_c, 0, 49, 0
1, 252549, Note_on_c, 0, 71, 68
1, 252564, Note_on_c, 0, 73, 0
1, 252569, Note_on_c, 0, 75, 0
1, 252569, Note_on_c, 0, 49, 44
1, 252741, Note_on_c, 0, 49, 0
1, 252741, Note_on_c, 0, 73, 73
1, 252751, Note_on_c, 0, 71, 0
1, 252967, Note_on_c, 0, 71, 68
1, 252996, Note_on_c, 0, 49, 47
1, 253001, Note_on_c, 0, 73, 0
1, 253068, Note_on_c, 0, 65, 0
1, 253092, Note_on_c, 0, 56, 0
1, 253173, Note_on_c, 0, 49, 0
1, 253202, Note_on_c, 0, 71, 0
1, 253221, Note_on_c, 0, 73, 68
1, 253591, Note_on_c, 0, 70, 78
1, 253601, Note_on_c, 0, 61, 36
1, 253639, Note_on_c, 0, 42, 28
1, 253826, Note_on_c, 0, 73, 0
1, 254066, Note_on_c, 0, 54, 40
1, 254220, Note_on_c, 0, 42, 0
1, 254258, Note_on_c, 0, 54, 0
1, 254513, Note_on_c, 0, 54, 32
1, 254666, Note_on_c, 0, 54, 0
1, 254945, Note_on_c, 0, 54, 20
1, 255098, Note_on_c, 0, 54, 0
1, 255170, Note_on_c, 0, 61, 0
1, 255372, Note_on_c, 0, 54, 27
1, 255374, Note_on_c, 0, 68, 64
1, 255393, Note_on_c, 0, 59, 32
1, 255597, Note_on_c, 0, 70, 0
1, 255684, Note_on_c, 0, 54, 0
1, 255861, Note_on_c, 0, 54, 20
1, 256015, Note_on_c, 0, 54, 0
1, 256289, Note_on_c, 0, 54, 21
1, 256433, Note_on_c, 0, 54, 0
1, 256608, Note_on_c, 0, 59, 0
1, 256745, Note_on_c, 0, 54, 18
1, 256908, Note_on_c, 0, 54, 0
1, 257181, Note_on_c, 0, 73, 53
1, 257220, Note_on_c, 0, 58, 32
1, 257229, Note_on_c, 0, 54, 17
1, 257229, Note_on_c, 0, 66, 34
1, 257443, Note_on_c, 0, 68, 0
1, 257489, Note_on_c, 0, 54, 0
1, 257690, Note_on_c, 0, 54, 26
1, 257997, Note_on_c, 0, 54, 0
1, 258132, Note_on_c, 0, 54, 23
1, 258314, Note_on_c, 0, 54, 0
1, 258597, Note_on_c, 0, 54, 35
1, 258703, Note_on_c, 0, 54, 0
1, 258770, Note_on_c, 0, 58, 0
1, 258871, Note_on_c, 0, 66, 0
1, 259039, Note_on_c, 0, 56, 32
1, 259049, Note_on_c, 0, 49, 31
1, 259053, Note_on_c, 0, 65, 45
1, 259289, Note_on_c, 0, 75, 58
1, 259346, Note_on_c, 0, 73, 0
1, 259356, Note_on_c, 0, 49, 0
1, 259524, Note_on_c, 0, 73, 65
1, 259553, Note_on_c, 0, 75, 0
1, 259562, Note_on_c, 0, 49, 44
1, 259735, Note_on_c, 0, 49, 0
1, 259735, Note_on_c, 0, 75, 72
1, 259826, Note_on_c, 0, 73, 0
1, 259951, Note_on_c, 0, 71, 68
1, 259970, Note_on_c, 0, 49, 30
1, 259975, Note_on_c, 0, 75, 0
1, 260143, Note_on_c, 0, 73, 73
1, 260186, Note_on_c, 0, 49, 0
1, 260191, Note_on_c, 0, 71, 0
1, 260359, Note_on_c, 0, 71, 78
1, 260378, Note_on_c, 0, 49, 39
1, 260397, Note_on_c, 0, 73, 0
1, 260565, Note_on_c, 0, 49, 0
1, 260565, Note_on_c, 0, 56, 0
1, 260599, Note_on_c, 0, 73, 68
1, 260642, Note_on_c, 0, 71, 0
1, 260916, Note_on_c, 0, 54, 34
1, 260940, Note_on_c, 0, 70, 69
1, 261002, Note_on_c, 0, 65, 0
1, 261017, Note_on_c, 0, 73, 0
1, 261372, Note_on_c, 0, 61, 35
1, 261458, Note_on_c, 0, 70, 0
1, 261477, Note_on_c, 0, 71, 51
1, 261612, Note_on_c, 0, 71, 0
1, 261612, Note_on_c, 0, 70, 78
1, 261727, Note_on_c, 0, 70, 0
1, 261727, Note_on_c, 0, 68, 72
1, 261818, Note_on_c, 0, 61, 0
1, 261837, Note_on_c, 0, 70, 72
1, 261871, Note_on_c, 0, 68, 0
1, 261871, Note_on_c, 0, 58, 38
1, 261996, Note_on_c, 0, 73, 67
1, 262068, Note_on_c, 0, 70, 0
1, 262313, Note_on_c, 0, 61, 36
1, 262433, Note_on_c, 0, 58, 0
1, 262509, Note_on_c, 0, 54, 0
1, 262663, Note_on_c, 0, 61, 0
1, 262740, Note_on_c, 0, 53, 44
1, 263153, Note_on_c, 0, 61, 43
1, 263585, Note_on_c, 0, 61, 0
1, 263604, Note_on_c, 0, 71, 61
1, 263661, Note_on_c, 0, 53, 0
1, 263685, Note_on_c, 0, 52, 29
1, 263887, Note_on_c, 0, 73, 0
1, 264079, Note_on_c, 0, 70, 79
1, 264098, Note_on_c, 0, 61, 32
1, 264137, Note_on_c, 0, 71, 0
1, 264305, Note_on_c, 0, 61, 0
1, 264353, Note_on_c, 0, 70, 0
1, 264453, Note_on_c, 0, 52, 0
1, 264516, Note_on_c, 0, 68, 74
1, 264535, Note_on_c, 0, 51, 32
1, 264972, Note_on_c, 0, 61, 34
1, 265058, Note_on_c, 0, 67, 55
1, 265101, Note_on_c, 0, 68, 0
1, 265236, Note_on_c, 0, 51, 0
1, 265322, Note_on_c, 0, 61, 0
1, 265337, Note_on_c, 0, 67, 0
1, 265457, Note_on_c, 0, 51, 29
1, 265783, Note_on_c, 0, 51, 0
1, 265893, Note_on_c, 0, 61, 24
1, 266153, Note_on_c, 0, 67, 39
1, 266162, Note_on_c, 0, 61, 0
1, 266306, Note_on_c, 0, 67, 0
1, 266325, Note_on_c, 0, 51, 35
1, 266330, Note_on_c, 0, 70, 59
1, 266772, Note_on_c, 0, 59, 41
1, 266805, Note_on_c, 0, 70, 0
1, 266849, Note_on_c, 0, 51, 0
1, 266969, Note_on_c, 0, 68, 68
1, 267041, Note_on_c, 0, 59, 0
1, 267194, Note_on_c, 0, 71, 67
1, 267204, Note_on_c, 0, 51, 44
1, 267281, Note_on_c, 0, 68, 0
1, 267626, Note_on_c, 0, 55, 41
1, 267833, Note_on_c, 0, 70, 74
1, 267876, Note_on_c, 0, 71, 0
1, 267881, Note_on_c, 0, 55, 0
1, 268049, Note_on_c, 0, 73, 75
1, 268077, Note_on_c, 0, 56, 46
1, 268164, Note_on_c, 0, 70, 0
1, 268202, Note_on_c, 0, 51, 0
1, 268452, Note_on_c, 0, 63, 47
1, 268677, Note_on_c, 0, 71, 73
1, 268788, Note_on_c, 0, 73, 0
1, 268845, Note_on_c, 0, 63, 0
1, 268865, Note_on_c, 0, 59, 41
1, 268951, Note_on_c, 0, 75, 72
1, 269090, Note_on_c, 0, 71, 0
1, 269340, Note_on_c, 0, 63, 35
1, 269589, Note_on_c, 0, 59, 0
1, 269633, Note_on_c, 0, 63, 0
1, 269810, Note_on_c, 0, 55, 55
1, 269820, Note_on_c, 0, 56, 0
1, 270204, Note_on_c, 0, 74, 73
1, 270209, Note_on_c, 0, 63, 44
1, 270271, Note_on_c, 0, 75, 0
1, 270415, Note_on_c, 0, 75, 90
1, 270516, Note_on_c, 0, 74, 0
1, 270607, Note_on_c, 0, 63, 0
1, 270621, Note_on_c, 0, 77, 83
1, 270636, Note_on_c, 0, 54, 59
1, 270684, Note_on_c, 0, 75, 0
1, 270727, Note_on_c, 0, 55, 0
1, 270842, Note_on_c, 0, 75, 81
1, 270962, Note_on_c, 0, 77, 0
1, 271039, Note_on_c, 0, 73, 86
1, 271073, Note_on_c, 0, 63, 48
1, 271111, Note_on_c, 0, 75, 0
1, 271226, Note_on_c, 0, 72, 95
1, 271236, Note_on_c, 0, 63, 0
1, 271255, Note_on_c, 0, 73, 0
1, 271457, Note_on_c, 0, 70, 94
1, 271485, Note_on_c, 0, 53, 46
1, 271543, Note_on_c, 0, 54, 0
1, 271557, Note_on_c, 0, 72, 0
1, 271922, Note_on_c, 0, 63, 36
1, 272018, Note_on_c, 0, 69, 54
1, 272066, Note_on_c, 0, 70, 0
1, 272191, Note_on_c, 0, 53, 0
1, 272316, Note_on_c, 0, 69, 0
1, 272340, Note_on_c, 0, 63, 0
1, 272412, Note_on_c, 0, 53, 33
1, 272844, Note_on_c, 0, 63, 47
1, 272940, Note_on_c, 0, 53, 0
1, 273079, Note_on_c, 0, 69, 62
1, 273276, Note_on_c, 0, 63, 0
1, 273276, Note_on_c, 0, 72, 69
1, 273281, Note_on_c, 0, 53, 37
1, 273372, Note_on_c, 0, 69, 0
1, 273684, Note_on_c, 0, 61, 48
1, 273789, Note_on_c, 0, 53, 0
1, 273914, Note_on_c, 0, 70, 84
1, 274044, Note_on_c, 0, 61, 0
1, 274101, Note_on_c, 0, 73, 79
1, 274106, Note_on_c, 0, 53, 55
1, 274173, Note_on_c, 0, 72, 0
1, 274197, Note_on_c, 0, 70, 0
1, 274509, Note_on_c, 0, 57, 73
1, 274721, Note_on_c, 0, 57, 0
1, 274745, Note_on_c, 0, 72, 99
1, 274797, Note_on_c, 0, 73, 0
1, 274922, Note_on_c, 0, 58, 71
1, 274937, Note_on_c, 0, 75, 85
1, 274951, Note_on_c, 0, 53, 0
1, 275013, Note_on_c, 0, 72, 0
1, 275345, Note_on_c, 0, 65, 63
1, 275652, Note_on_c, 0, 73, 85
1, 275743, Note_on_c, 0, 65, 0
1, 275781, Note_on_c, 0, 75, 0
1, 275834, Note_on_c, 0, 61, 45
1, 275921, Note_on_c, 0, 77, 90
1, 276012, Note_on_c, 0, 73, 0
1, 276305, Note_on_c, 0, 65, 45
1, 276655, Note_on_c, 0, 65, 0
1, 276684, Note_on_c, 0, 61, 0
1, 276708, Note_on_c, 0, 57, 72
1, 276756, Note_on_c, 0, 58, 0
1, 277111, Note_on_c, 0, 76, 91
1, 277140, Note_on_c, 0, 65, 58
1, 277207, Note_on_c, 0, 77, 0
1, 277327, Note_on_c, 0, 77, 98
1, 277404, Note_on_c, 0, 76, 0
1, 277433, Note_on_c, 0, 65, 0
1, 277538, Note_on_c, 0, 79, 96
1, 277548, Note_on_c, 0, 56, 68
1, 277586, Note_on_c, 0, 77, 0
1, 277601, Note_on_c, 0, 57, 0
1, 277735, Note_on_c, 0, 77, 106
1, 277836, Note_on_c, 0, 79, 0
1, 277917, Note_on_c, 0, 75, 88
1, 277941, Note_on_c, 0, 65, 64
1, 277989, Note_on_c, 0, 77, 0
1, 278047, Note_on_c, 0, 56, 0
1, 278119, Note_on_c, 0, 74, 96
1, 278167, Note_on_c, 0, 75, 0
1, 278201, Note_on_c, 0, 74, 0
1, 278273, Note_on_c, 0, 65, 0
1, 278340, Note_on_c, 0, 72, 98
1, 278359, Note_on_c, 0, 55, 58
1, 278796, Note_on_c, 0, 67, 49
1, 278815, Note_on_c, 0, 71, 52
1, 278868, Note_on_c, 0, 72, 0
1, 279161, Note_on_c, 0, 67, 0
1, 279175, Note_on_c, 0, 55, 0
1, 279209, Note_on_c, 0, 65, 46
1, 279439, Note_on_c, 0, 71, 0
1, 279621, Note_on_c, 0, 67, 51
1, 279861, Note_on_c, 0, 71, 45
1, 279972, Note_on_c, 0, 67, 0
1, 280058, Note_on_c, 0, 74, 58
1, 280058, Note_on_c, 0, 63, 30
1, 280073, Note_on_c, 0, 71, 0
1, 280087, Note_on_c, 0, 65, 0
1, 280466, Note_on_c, 0, 67, 38
1, 280701, Note_on_c, 0, 74, 0
1, 280701, Note_on_c, 0, 72, 67
1, 280740, Note_on_c, 0, 67, 0
1, 280884, Note_on_c, 0, 75, 75
1, 280893, Note_on_c, 0, 59, 29
1, 280941, Note_on_c, 0, 72, 0
1, 280946, Note_on_c, 0, 63, 0
1, 281273, Note_on_c, 0, 67, 48
1, 281484, Note_on_c, 0, 74, 88
1, 281546, Note_on_c, 0, 75, 0
1, 281546, Note_on_c, 0, 67, 0
1, 281671, Note_on_c, 0, 59, 0
1, 281676, Note_on_c, 0, 77, 87
1, 281705, Note_on_c, 0, 60, 36
1, 281748, Note_on_c, 0, 74, 0
1, 282065, Note_on_c, 0, 67, 43
1, 282300, Note_on_c, 0, 75, 81
1, 282353, Note_on_c, 0, 67, 0
1, 282372, Note_on_c, 0, 77, 0
1, 282497, Note_on_c, 0, 63, 36
1, 282549, Note_on_c, 0, 79, 79
1, 282583, Note_on_c, 0, 75, 0
1, 282991, Note_on_c, 0, 67, 33
1, 283221, Note_on_c, 0, 67, 0
1, 283322, Note_on_c, 0, 63, 0
1, 283394, Note_on_c, 0, 60, 0
1, 283409, Note_on_c, 0, 58, 42
1, 283797, Note_on_c, 0, 78, 72
1, 283831, Note_on_c, 0, 79, 0
1, 283831, Note_on_c, 0, 67, 38
1, 284009, Note_on_c, 0, 79, 90
1, 284052, Note_on_c, 0, 78, 0
1, 284133, Note_on_c, 0, 67, 0
1, 284220, Note_on_c, 0, 80, 86
1, 284239, Note_on_c, 0, 79, 0
1, 284263, Note_on_c, 0, 62, 24
1, 284421, Note_on_c, 0, 79, 91
1, 284556, Note_on_c, 0, 80, 0
1, 284599, Note_on_c, 0, 77, 90
1, 284623, Note_on_c, 0, 79, 0
1, 284633, Note_on_c, 0, 67, 40
1, 284781, Note_on_c, 0, 75, 85
1, 284791, Note_on_c, 0, 67, 0
1, 284925, Note_on_c, 0, 77, 0
1, 284993, Note_on_c, 0, 74, 94
1, 285002, Note_on_c, 0, 58, 0
1, 285012, Note_on_c, 0, 56, 57
1, 285036, Note_on_c, 0, 62, 0
1, 285113, Note_on_c, 0, 75, 0
1, 285463, Note_on_c, 0, 67, 62
1, 285741, Note_on_c, 0, 72, 100
1, 285833, Note_on_c, 0, 74, 0
1, 285943, Note_on_c, 0, 67, 0
1, 285972, Note_on_c, 0, 63, 53
1, 286082, Note_on_c, 0, 84, 105
1, 286428, Note_on_c, 0, 72, 0
1, 286447, Note_on_c, 0, 67, 66
1, 286653, Note_on_c, 0, 56, 0
1, 286865, Note_on_c, 0, 56, 55
1, 286879, Note_on_c, 0, 67, 0
1, 287004, Note_on_c, 0, 63, 0
1, 287282, Note_on_c, 0, 66, 62
1, 287330, Note_on_c, 0, 84, 0
1, 287335, Note_on_c, 0, 86, 86
1, 287412, Note_on_c, 0, 84, 93
1, 287450, Note_on_c, 0, 86, 0
1, 287484, Note_on_c, 0, 83, 81
1, 287503, Note_on_c, 0, 84, 0
1, 287580, Note_on_c, 0, 84, 98
1, 287618, Note_on_c, 0, 83, 0
1, 287762, Note_on_c, 0, 86, 92
1, 287825, Note_on_c, 0, 84, 0
1, 287873, Note_on_c, 0, 63, 48
1, 287983, Note_on_c, 0, 66, 0
1, 288026, Note_on_c, 0, 87, 74
1, 288074, Note_on_c, 0, 86, 0
1, 288453, Note_on_c, 0, 63, 0
1, 288468, Note_on_c, 0, 60, 39
1, 288799, Note_on_c, 0, 87, 0
1, 288818, Note_on_c, 0, 78, 50
1, 288842, Note_on_c, 0, 56, 0
1, 288905, Note_on_c, 0, 60, 0
1, 289183, Note_on_c, 0, 79, 51
1, 289212, Note_on_c, 0, 78, 0
1, 289418, Note_on_c, 0, 55, 42
1, 289644, Note_on_c, 0, 59, 43
1, 289831, Note_on_c, 0, 55, 0
1, 289860, Note_on_c, 0, 62, 55
1, 289980, Note_on_c, 0, 79, 0
1, 290081, Note_on_c, 0, 59, 0
1, 290081, Note_on_c, 0, 67, 63
1, 290114, Note_on_c, 0, 62, 0
1, 290277, Note_on_c, 0, 71, 60
1, 290474, Note_on_c, 0, 74, 73
1, 290513, Note_on_c, 0, 71, 0
1, 290623, Note_on_c, 0, 67, 0
1, 290671, Note_on_c, 0, 79, 80
1, 290690, Note_on_c, 0, 74, 0
1, 290877, Note_on_c, 0, 78, 69
1, 290897, Note_on_c, 0, 79, 0
1, 291089, Note_on_c, 0, 55, 57
1, 291281, Note_on_c, 0, 60, 62
1, 291444, Note_on_c, 0, 55, 0
1, 291482, Note_on_c, 0, 63, 69
1, 291569, Note_on_c, 0, 60, 0
1, 291612, Note_on_c, 0, 78, 0
1, 291684, Note_on_c, 0, 66, 69
1, 291746, Note_on_c, 0, 63, 0
1, 291833, Note_on_c, 0, 66, 0
1, 291861, Note_on_c, 0, 69, 85
1, 292063, Note_on_c, 0, 72, 94
1, 292125, Note_on_c, 0, 69, 0
1, 292255, Note_on_c, 0, 78, 85
1, 292317, Note_on_c, 0, 72, 0
1, 292471, Note_on_c, 0, 79, 85
1, 292543, Note_on_c, 0, 78, 0
1, 292668, Note_on_c, 0, 55, 75
1, 292841, Note_on_c, 0, 59, 66
1, 292946, Note_on_c, 0, 55, 0
1, 293023, Note_on_c, 0, 62, 61
1, 293105, Note_on_c, 0, 59, 0
1, 293172, Note_on_c, 0, 79, 0
1, 293239, Note_on_c, 0, 67, 64
1, 293258, Note_on_c, 0, 62, 0
1, 293407, Note_on_c, 0, 67, 0
1, 293417, Note_on_c, 0, 71, 56
1, 293633, Note_on_c, 0, 71, 0
1, 293633, Note_on_c, 0, 74, 63
1, 293786, Note_on_c, 0, 74, 0
1, 293815, Note_on_c, 0, 79, 64
1, 294055, Note_on_c, 0, 79, 0
1, 294055, Note_on_c, 0, 78, 56
1, 294218, Note_on_c, 0, 55, 34
1, 294425, Note_on_c, 0, 60, 36
1, 294554, Note_on_c, 0, 55, 0
1, 294621, Note_on_c, 0, 63, 42
1, 294708, Note_on_c, 0, 63, 0
1, 294756, Note_on_c, 0, 78, 0
1, 294804, Note_on_c, 0, 60, 0
1, 294833, Note_on_c, 0, 66, 36
1, 295025, Note_on_c, 0, 69, 50
1, 295063, Note_on_c, 0, 66, 0
1, 295212, Note_on_c, 0, 69, 0
1, 295226, Note_on_c, 0, 72, 59
1, 295375, Note_on_c, 0, 72, 0
1, 295423, Note_on_c, 0, 78, 52
1, 295644, Note_on_c, 0, 79, 50
1, 295677, Note_on_c, 0, 78, 0
1, 295812, Note_on_c, 0, 55, 38
1, 296018, Note_on_c, 0, 59, 38
1, 296095, Note_on_c, 0, 55, 0
1, 296201, Note_on_c, 0, 62, 43
1, 296340, Note_on_c, 0, 79, 0
1, 296369, Note_on_c, 0, 59, 0
1, 296412, Note_on_c, 0, 62, 0
1, 296431, Note_on_c, 0, 67, 46
1, 296527, Note_on_c, 0, 67, 0
1, 296633, Note_on_c, 0, 71, 32
1, 296801, Note_on_c, 0, 71, 0
1, 296829, Note_on_c, 0, 74, 51
1, 296978, Note_on_c, 0, 74, 0
1, 297007, Note_on_c, 0, 78, 53
1, 297233, Note_on_c, 0, 78, 0
1, 297237, Note_on_c, 0, 79, 51
1, 297410, Note_on_c, 0, 55, 37
1, 297621, Note_on_c, 0, 59, 42
1, 297660, Note_on_c, 0, 55, 0
1, 297813, Note_on_c, 0, 62, 40
1, 297866, Note_on_c, 0, 79, 0
1, 297996, Note_on_c, 0, 59, 0
1, 298039, Note_on_c, 0, 62, 0
1, 298039, Note_on_c, 0, 67, 51
1, 298125, Note_on_c, 0, 67, 0
1, 298217, Note_on_c, 0, 71, 49
1, 298413, Note_on_c, 0, 74, 73
1, 298447, Note_on_c, 0, 71, 0
1, 298625, Note_on_c, 0, 79, 83
1, 298673, Note_on_c, 0, 74, 0
1, 298893, Note_on_c, 0, 80, 64
1, 298975, Note_on_c, 0, 79, 0
1, 299109, Note_on_c, 0, 53, 51
1, 299311, Note_on_c, 0, 59, 60
1, 299402, Note_on_c, 0, 53, 0
1, 299503, Note_on_c, 0, 62, 69
1, 299537, Note_on_c, 0, 59, 0
1, 299657, Note_on_c, 0, 80, 0
1, 299700, Note_on_c, 0, 62, 0
1, 299709, Note_on_c, 0, 65, 76
1, 299849, Note_on_c, 0, 65, 0
1, 299897, Note_on_c, 0, 71, 83
1, 300108, Note_on_c, 0, 74, 94
1, 300165, Note_on_c, 0, 71, 0
1, 300300, Note_on_c, 0, 80, 95
1, 300367, Note_on_c, 0, 74, 0
1, 300521, Note_on_c, 0, 81, 95
1, 300607, Note_on_c, 0, 80, 0
1, 300722, Note_on_c, 0, 51, 84
1, 300938, Note_on_c, 0, 57, 88
1, 301116, Note_on_c, 0, 51, 0
1, 301135, Note_on_c, 0, 60, 88
1, 301202, Note_on_c, 0, 57, 0
1, 301289, Note_on_c, 0, 81, 0
1, 301346, Note_on_c, 0, 63, 90
1, 301365, Note_on_c, 0, 60, 0
1, 301466, Note_on_c, 0, 63, 0
1, 301509, Note_on_c, 0, 72, 101
1, 301730, Note_on_c, 0, 77, 101
1, 301793, Note_on_c, 0, 72, 0
1, 301965, Note_on_c, 0, 81, 103
1, 301985, Note_on_c, 0, 77, 0
1, 302129, Note_on_c, 0, 81, 0
1, 302249, Note_on_c, 0, 82, 105
1, 302258, Note_on_c, 0, 50, 83
1, 302580, Note_on_c, 0, 83, 90
1, 302666, Note_on_c, 0, 82, 0
1, 302873, Note_on_c, 0, 84, 87
1, 302911, Note_on_c, 0, 83, 0
1, 303103, Note_on_c, 0, 82, 97
1, 303165, Note_on_c, 0, 84, 0
1, 303300, Note_on_c, 0, 80, 83
1, 303377, Note_on_c, 0, 82, 0
1, 303497, Note_on_c, 0, 79, 91
1, 303540, Note_on_c, 0, 80, 0
1, 303684, Note_on_c, 0, 77, 89
1, 303703, Note_on_c, 0, 79, 0
1, 303866, Note_on_c, 0, 75, 77
1, 303929, Note_on_c, 0, 77, 0
1, 303953, Note_on_c, 0, 50, 0
1, 304068, Note_on_c, 0, 74, 85
1, 304130, Note_on_c, 0, 75, 0
1, 304250, Note_on_c, 0, 74, 0
1, 304250, Note_on_c, 0, 72, 87
1, 304418, Note_on_c, 0, 70, 84
1, 304442, Note_on_c, 0, 72, 0
1, 304605, Note_on_c, 0, 69, 76
1, 304649, Note_on_c, 0, 70, 0
1, 304797, Note_on_c, 0, 68, 73
1, 304845, Note_on_c, 0, 69, 0
1, 304985, Note_on_c, 0, 67, 73
1, 305028, Note_on_c, 0, 68, 0
1, 305177, Note_on_c, 0, 65, 74
1, 305186, Note_on_c, 0, 67, 0
1, 305359, Note_on_c, 0, 63, 63
1, 305393, Note_on_c, 0, 65, 0
1, 305561, Note_on_c, 0, 46, 75
1, 305561, Note_on_c, 0, 53, 58
1, 305565, Note_on_c, 0, 56, 56
1, 305575, Note_on_c, 0, 62, 57
1, 305618, Note_on_c, 0, 63, 0
1, 305772, Note_on_c, 0, 60, 75
1, 305786, Note_on_c, 0, 62, 0
1, 305978, Note_on_c, 0, 58, 80
1, 305988, Note_on_c, 0, 60, 0
1, 306175, Note_on_c, 0, 60, 69
1, 306189, Note_on_c, 0, 58, 0
1, 306372, Note_on_c, 0, 62, 65
1, 306396, Note_on_c, 0, 60, 0
1, 306569, Note_on_c, 0, 63, 56
1, 306588, Note_on_c, 0, 62, 0
1, 306770, Note_on_c, 0, 65, 59
1, 306785, Note_on_c, 0, 63, 0
1, 306986, Note_on_c, 0, 67, 58
1, 307044, Note_on_c, 0, 65, 0
1, 307197, Note_on_c, 0, 68, 55
1, 307202, Note_on_c, 0, 67, 0
1, 307433, Note_on_c, 0, 67, 54
1, 307447, Note_on_c, 0, 68, 0
1, 307649, Note_on_c, 0, 67, 0
1, 307658, Note_on_c, 0, 65, 53
1, 307889, Note_on_c, 0, 65, 0
1, 307913, Note_on_c, 0, 64, 45
1, 308162, Note_on_c, 0, 64, 0
1, 308177, Note_on_c, 0, 65, 42
1, 308441, Note_on_c, 0, 65, 0
1, 308465, Note_on_c, 0, 67, 35
1, 308767, Note_on_c, 0, 67, 0
1, 308777, Note_on_c, 0, 68, 29
1, 309199, Note_on_c, 0, 69, 33
1, 309204, Note_on_c, 0, 68, 0
1, 309602, Note_on_c, 0, 53, 0
1, 309674, Note_on_c, 0, 69, 0
1, 309900, Note_on_c, 0, 56, 0
1, 310020, Note_on_c, 0, 70, 46
1, 310044, Note_on_c, 0, 46, 0
1, 310049, Note_on_c, 0, 51, 24
1, 310610, Note_on_c, 0, 55, 34
1, 311095, Note_on_c, 0, 58, 37
1, 311105, Note_on_c, 0, 55, 0
1, 311282, Note_on_c, 0, 72, 65
1, 311316, Note_on_c, 0, 70, 0
1, 311373, Note_on_c, 0, 51, 0
1, 311527, Note_on_c, 0, 72, 0
1, 311527, Note_on_c, 0, 74, 60
1, 311546, Note_on_c, 0, 55, 28
1, 311719, Note_on_c, 0, 74, 0
1, 311743, Note_on_c, 0, 75, 65
1, 311801, Note_on_c, 0, 75, 0
1, 311940, Note_on_c, 0, 55, 0
1, 311945, Note_on_c, 0, 51, 32
1, 311973, Note_on_c, 0, 75, 58
1, 312261, Note_on_c, 0, 58, 0
1, 312405, Note_on_c, 0, 67, 48
1, 312415, Note_on_c, 0, 55, 23
1, 312468, Note_on_c, 0, 75, 0
1, 312698, Note_on_c, 0, 67, 0
1, 312909, Note_on_c, 0, 67, 35
1, 312929, Note_on_c, 0, 58, 27
1, 312938, Note_on_c, 0, 55, 0
1, 313106, Note_on_c, 0, 67, 0
1, 313341, Note_on_c, 0, 58, 0
1, 313380, Note_on_c, 0, 67, 46
1, 313399, Note_on_c, 0, 51, 0
1, 313418, Note_on_c, 0, 55, 37
1, 313505, Note_on_c, 0, 55, 0
1, 313514, Note_on_c, 0, 67, 0
1, 313855, Note_on_c, 0, 67, 68
1, 313865, Note_on_c, 0, 63, 36
1, 313874, Note_on_c, 0, 46, 48
1, 314364, Note_on_c, 0, 51, 33
1, 314906, Note_on_c, 0, 55, 22
1, 314925, Note_on_c, 0, 51, 0
1, 314945, Note_on_c, 0, 67, 0
1, 314993, Note_on_c, 0, 68, 50
1, 315084, Note_on_c, 0, 68, 0
1, 315146, Note_on_c, 0, 67, 50
1, 315199, Note_on_c, 0, 67, 0
1, 315252, Note_on_c, 0, 65, 43
1, 315324, Note_on_c, 0, 65, 0
1, 315367, Note_on_c, 0, 51, 39
1, 315367, Note_on_c, 0, 67, 32
1, 315377, Note_on_c, 0, 55, 0
1, 315583, Note_on_c, 0, 46, 0
1, 315617, Note_on_c, 0, 67, 0
1, 315636, Note_on_c, 0, 68, 42
1, 315775, Note_on_c, 0, 51, 0
1, 315804, Note_on_c, 0, 63, 0
1, 315900, Note_on_c, 0, 46, 45
1, 315909, Note_on_c, 0, 62, 26
1, 315924, Note_on_c, 0, 65, 45
1, 315953, Note_on_c, 0, 68, 0
1, 316375, Note_on_c, 0, 50, 38
1, 316409, Note_on_c, 0, 62, 0
1, 316471, Note_on_c, 0, 65, 0
1, 316879, Note_on_c, 0, 53, 24
1, 316884, Note_on_c, 0, 50, 0
1, 317066, Note_on_c, 0, 70, 49
1, 317268, Note_on_c, 0, 70, 0
1, 317268, Note_on_c, 0, 69, 64
1, 317407, Note_on_c, 0, 53, 0
1, 317431, Note_on_c, 0, 69, 0
1, 317436, Note_on_c, 0, 68, 68
1, 317465, Note_on_c, 0, 50, 36
1, 317484, Note_on_c, 0, 46, 0
1, 317580, Note_on_c, 0, 68, 0
1, 317604, Note_on_c, 0, 67, 66
1, 317676, Note_on_c, 0, 67, 0
1, 317767, Note_on_c, 0, 65, 72
1, 317810, Note_on_c, 0, 65, 0
1, 317887, Note_on_c, 0, 50, 0
1, 317983, Note_on_c, 0, 63, 89
1, 318002, Note_on_c, 0, 51, 50
1, 318017, Note_on_c, 0, 55, 47
1, 318506, Note_on_c, 0, 58, 45
1, 318535, Note_on_c, 0, 55, 0
1, 318938, Note_on_c, 0, 58, 0
1, 318957, Note_on_c, 0, 55, 44
1, 319413, Note_on_c, 0, 55, 0
1, 319418, Note_on_c, 0, 58, 59
1, 319836, Note_on_c, 0, 46, 78
1, 319850, Note_on_c, 0, 65, 88
1, 319869, Note_on_c, 0, 58, 0
1, 319874, Note_on_c, 0, 62, 59
1, 319937, Note_on_c, 0, 51, 0
1, 319937, Note_on_c, 0, 63, 0
1, 320306, Note_on_c, 0, 58, 60
1, 320388, Note_on_c, 0, 62, 0
1, 320753, Note_on_c, 0, 62, 49
1, 320762, Note_on_c, 0, 58, 0
1, 321228, Note_on_c, 0, 62, 0
1, 321257, Note_on_c, 0, 58, 55
1, 321357, Note_on_c, 0, 58, 0
1, 321410, Note_on_c, 0, 65, 0
1, 321684, Note_on_c, 0, 46, 0
1, 321775, Note_on_c, 0, 67, 79
1, 321798, Note_on_c, 0, 63, 35
1, 321799, Note_on_c, 0, 39, 46
1, 322145, Note_on_c, 0, 67, 0
1, 322206, Note_on_c, 0, 63, 0
1, 322216, Note_on_c, 0, 68, 31
1, 322278, Note_on_c, 0, 68, 0
1, 322289, Note_on_c, 0, 67, 56
1, 322347, Note_on_c, 0, 67, 0
1, 322356, Note_on_c, 0, 65, 65
1, 322437, Note_on_c, 0, 65, 0
1, 322442, Note_on_c, 0, 67, 75
1, 322677, Note_on_c, 0, 68, 77
1, 322711, Note_on_c, 0, 67, 0
1, 322893, Note_on_c, 0, 70, 80
1, 322898, Note_on_c, 0, 68, 0
1, 323109, Note_on_c, 0, 72, 71
1, 323119, Note_on_c, 0, 70, 0
1, 323316, Note_on_c, 0, 72, 0
1, 323335, Note_on_c, 0, 74, 56
1, 323565, Note_on_c, 0, 74, 0
1, 323589, Note_on_c, 0, 75, 40
1, 323945, Note_on_c, 0, 70, 44
1, 323978, Note_on_c, 0, 75, 0
1, 324199, Note_on_c, 0, 39, 0
1, 324468, Note_on_c, 0, 70, 0
1, 325025, Note_on_c, 0, 75, 24
1, 325255, Note_on_c, 0, 75, 0
1, 325289, Note_on_c, 0, 79, 34
1, 325442, Note_on_c, 0, 79, 0
1, 325519, Note_on_c, 0, 74, 27
1, 325706, Note_on_c, 0, 77, 50
1, 325721, Note_on_c, 0, 74, 0
1, 325917, Note_on_c, 0, 72, 52
1, 325941, Note_on_c, 0, 77, 0
1, 326105, Note_on_c, 0, 72, 0
1, 326109, Note_on_c, 0, 75, 50
1, 326316, Note_on_c, 0, 70, 67
1, 326335, Note_on_c, 0, 75, 0
1, 326546, Note_on_c, 0, 74, 58
1, 326556, Note_on_c, 0, 70, 0
1, 326709, Note_on_c, 0, 74, 0
1, 326733, Note_on_c, 0, 38, 42
1, 326738, Note_on_c, 0, 68, 50
1, 326969, Note_on_c, 0, 72, 43
1, 326978, Note_on_c, 0, 50, 36
1, 326988, Note_on_c, 0, 68, 0
1, 327036, Note_on_c, 0, 38, 0
1, 327060, Note_on_c, 0, 72, 0
1, 327103, Note_on_c, 0, 50, 0
1, 327161, Note_on_c, 0, 67, 59
1, 327161, Note_on_c, 0, 39, 62
1, 327353, Note_on_c, 0, 70, 77
1, 327362, Note_on_c, 0, 67, 0
1, 327362, Note_on_c, 0, 51, 59
1, 327434, Note_on_c, 0, 39, 0
1, 327521, Note_on_c, 0, 51, 0
1, 327559, Note_on_c, 0, 70, 0
1, 327564, Note_on_c, 0, 41, 78
1, 327564, Note_on_c, 0, 65, 75
1, 327746, Note_on_c, 0, 68, 73
1, 327770, Note_on_c, 0, 53, 72
1, 327785, Note_on_c, 0, 41, 0
1, 327818, Note_on_c, 0, 65, 0
1, 327948, Note_on_c, 0, 53, 0
1, 327953, Note_on_c, 0, 63, 74
1, 327967, Note_on_c, 0, 43, 70
1, 328063, Note_on_c, 0, 68, 0
1, 328154, Note_on_c, 0, 55, 62
1, 328164, Note_on_c, 0, 67, 84
1, 328284, Note_on_c, 0, 43, 0
1, 328322, Note_on_c, 0, 55, 0
1, 328361, Note_on_c, 0, 44, 62
1, 328370, Note_on_c, 0, 63, 0
1, 328380, Note_on_c, 0, 60, 78
1, 328418, Note_on_c, 0, 67, 0
1, 328591, Note_on_c, 0, 72, 87
1, 328591, Note_on_c, 0, 56, 49
1, 328663, Note_on_c, 0, 56, 0
1, 328716, Note_on_c, 0, 60, 0
1, 328778, Note_on_c, 0, 44, 0
1, 328797, Note_on_c, 0, 65, 87
1, 328797, Note_on_c, 0, 41, 68
1, 328831, Note_on_c, 0, 72, 0
1, 328956, Note_on_c, 0, 41, 0
1, 329004, Note_on_c, 0, 68, 85
1, 329004, Note_on_c, 0, 53, 65
1, 329052, Note_on_c, 0, 53, 0
1, 329095, Note_on_c, 0, 65, 0
1, 329229, Note_on_c, 0, 63, 48
1, 329229, Note_on_c, 0, 57, 75
1, 329234, Note_on_c, 0, 67, 79
1, 329311, Note_on_c, 0, 68, 0
1, 329450, Note_on_c, 0, 58, 75
1, 329570, Note_on_c, 0, 57, 0
1, 329700, Note_on_c, 0, 60, 55
1, 329705, Note_on_c, 0, 58, 0
1, 329901, Note_on_c, 0, 58, 55
1, 329959, Note_on_c, 0, 60, 0
1, 330137, Note_on_c, 0, 57, 43
1, 330141, Note_on_c, 0, 58, 0
1, 330309, Note_on_c, 0, 57, 0
1, 330338, Note_on_c, 0, 58, 58
1, 330559, Note_on_c, 0, 58, 0
1, 330569, Note_on_c, 0, 55, 48
1, 330785, Note_on_c, 0, 55, 0
1, 330809, Note_on_c, 0, 51, 38
1, 330977, Note_on_c, 0, 63, 0
1, 331077, Note_on_c, 0, 51, 0
1, 331121, Note_on_c, 0, 67, 0
1, 331140, Note_on_c, 0, 46, 50
1, 331141, Note_on_c, 0, 62, 31
1, 331145, Note_on_c, 0, 65, 43
1, 331356, Note_on_c, 0, 65, 0
1, 331519, Note_on_c, 0, 63, 41
1, 331587, Note_on_c, 0, 62, 0
1, 331596, Note_on_c, 0, 63, 0
1, 331769, Note_on_c, 0, 62, 50
1, 331903, Note_on_c, 0, 62, 0
1, 331994, Note_on_c, 0, 63, 55
1, 332047, Note_on_c, 0, 46, 0
1, 332119, Note_on_c, 0, 63, 0
1, 332220, Note_on_c, 0, 65, 50
1, 332349, Note_on_c, 0, 65, 0
1, 332455, Note_on_c, 0, 67, 48
1, 332551, Note_on_c, 0, 67, 0
1, 332724, Note_on_c, 0, 68, 38
1, 332887, Note_on_c, 0, 68, 0
1, 333045, Note_on_c, 0, 69, 30
1, 333372, Note_on_c, 0, 69, 0
1, 333405, Note_on_c, 0, 70, 51
1, 333420, Note_on_c, 0, 51, 29
1, 334025, Note_on_c, 0, 55, 35
1, 334471, Note_on_c, 0, 55, 0
1, 334490, Note_on_c, 0, 58, 38
1, 334711, Note_on_c, 0, 74, 52
1, 334769, Note_on_c, 0, 70, 0
1, 334769, Note_on_c, 0, 74, 0
1, 334817, Note_on_c, 0, 72, 57
1, 334893, Note_on_c, 0, 72, 0
1, 334932, Note_on_c, 0, 51, 0
1, 334941, Note_on_c, 0, 75, 57
1, 334951, Note_on_c, 0, 55, 34
1, 335042, Note_on_c, 0, 75, 0
1, 335061, Note_on_c, 0, 74, 54
1, 335124, Note_on_c, 0, 74, 0
1, 335167, Note_on_c, 0, 77, 77
1, 335220, Note_on_c, 0, 77, 0
1, 335282, Note_on_c, 0, 75, 74
1, 335335, Note_on_c, 0, 75, 0
1, 335561, Note_on_c, 0, 55, 0
1, 335561, Note_on_c, 0, 75, 63
1, 335575, Note_on_c, 0, 51, 36
1, 335805, Note_on_c, 0, 58, 0
1, 336108, Note_on_c, 0, 67, 52
1, 336132, Note_on_c, 0, 75, 0
1, 336141, Note_on_c, 0, 55, 35
1, 336353, Note_on_c, 0, 67, 0
1, 336521, Note_on_c, 0, 67, 71
1, 336545, Note_on_c, 0, 55, 0
1, 336573, Note_on_c, 0, 58, 42
1, 336669, Note_on_c, 0, 67, 0
1, 336929, Note_on_c, 0, 58, 0
1, 336967, Note_on_c, 0, 67, 73
1, 337029, Note_on_c, 0, 55, 27
1, 337053, Note_on_c, 0, 51, 0
1, 337097, Note_on_c, 0, 67, 0
1, 337101, Note_on_c, 0, 55, 0
1, 337496, Note_on_c, 0, 63, 41
1, 337499, Note_on_c, 0, 67, 72
1, 337509, Note_on_c, 0, 46, 41
1, 337889, Note_on_c, 0, 51, 40
1, 337979, Note_on_c, 0, 67, 0
1, 338013, Note_on_c, 0, 68, 65
1, 338114, Note_on_c, 0, 68, 0
1, 338133, Note_on_c, 0, 67, 54
1, 338244, Note_on_c, 0, 67, 0
1, 338249, Note_on_c, 0, 65, 74
1, 338364, Note_on_c, 0, 67, 62
1, 338407, Note_on_c, 0, 65, 0
1, 338412, Note_on_c, 0, 51, 0
1, 338474, Note_on_c, 0, 55, 20
1, 338565, Note_on_c, 0, 70, 81
1, 338613, Note_on_c, 0, 67, 0
1, 338978, Note_on_c, 0, 55, 0
1, 339021, Note_on_c, 0, 51, 32
1, 339089, Note_on_c, 0, 46, 0
1, 339266, Note_on_c, 0, 51, 0
1, 339416, Note_on_c, 0, 63, 0
1, 339559, Note_on_c, 0, 62, 27
1, 339588, Note_on_c, 0, 46, 40
1, 339833, Note_on_c, 0, 69, 41
1, 339837, Note_on_c, 0, 70, 0
1, 339909, Note_on_c, 0, 69, 0
1, 340049, Note_on_c, 0, 68, 55
1, 340073, Note_on_c, 0, 50, 38
1, 340159, Note_on_c, 0, 68, 0
1, 340284, Note_on_c, 0, 65, 53
1, 340351, Note_on_c, 0, 65, 0
1, 340481, Note_on_c, 0, 50, 0
1, 340524, Note_on_c, 0, 70, 50
1, 340567, Note_on_c, 0, 53, 28
1, 340725, Note_on_c, 0, 70, 0
1, 340749, Note_on_c, 0, 62, 0
1, 340764, Note_on_c, 0, 68, 48
1, 340845, Note_on_c, 0, 68, 0
1, 341028, Note_on_c, 0, 53, 0
1, 341081, Note_on_c, 0, 50, 21
1, 341095, Note_on_c, 0, 67, 30
1, 341191, Note_on_c, 0, 67, 0
1, 341258, Note_on_c, 0, 50, 0
1, 341282, Note_on_c, 0, 46, 0
1, 341393, Note_on_c, 0, 65, 51
1, 341455, Note_on_c, 0, 65, 0
1, 341757, Note_on_c, 0, 63, 70
1, 341781, Note_on_c, 0, 39, 44
1, 341781, Note_on_c, 0, 51, 35
1, 342252, Note_on_c, 0, 58, 55
1, 342727, Note_on_c, 0, 55, 46
1, 342737, Note_on_c, 0, 58, 0
1, 343053, Note_on_c, 0, 51, 0
1, 343106, Note_on_c, 0, 55, 0
1, 343241, Note_on_c, 0, 58, 44
1, 343337, Note_on_c, 0, 63, 0
1, 343370, Note_on_c, 0, 58, 0
1, 343447, Note_on_c, 0, 64, 72
1, 343557, Note_on_c, 0, 39, 0
1, 343682, Note_on_c, 0, 65, 80
1, 343701, Note_on_c, 0, 46, 78
1, 343706, Note_on_c, 0, 34, 71
1, 343793, Note_on_c, 0, 64, 0
1, 344143, Note_on_c, 0, 62, 48
1, 344498, Note_on_c, 0, 46, 0
1, 344589, Note_on_c, 0, 58, 58
1, 344599, Note_on_c, 0, 62, 0
1, 345050, Note_on_c, 0, 58, 0
1, 345093, Note_on_c, 0, 62, 50
1, 345137, Note_on_c, 0, 34, 0
1, 345199, Note_on_c, 0, 62, 0
1, 345218, Note_on_c, 0, 65, 0
1, 345333, Note_on_c, 0, 66, 76
1, 345381, Note_on_c, 0, 66, 0
1, 345645, Note_on_c, 0, 63, 48
1, 345650, Note_on_c, 0, 67, 77
1, 345655, Note_on_c, 0, 51, 41
1, 345665, Note_on_c, 0, 39, 38
1, 345972, Note_on_c, 0, 67, 0
1, 346001, Note_on_c, 0, 68, 61
1, 346068, Note_on_c, 0, 67, 54
1, 346073, Note_on_c, 0, 68, 0
1, 346140, Note_on_c, 0, 67, 0
1, 346159, Note_on_c, 0, 66, 72
1, 346236, Note_on_c, 0, 66, 0
1, 346245, Note_on_c, 0, 67, 71
1, 346447, Note_on_c, 0, 63, 0
1, 346457, Note_on_c, 0, 68, 72
1, 346466, Note_on_c, 0, 67, 0
1, 346673, Note_on_c, 0, 68, 0
1, 346682, Note_on_c, 0, 69, 70
1, 346725, Note_on_c, 0, 51, 0
1, 346884, Note_on_c, 0, 70, 73
1, 346898, Note_on_c, 0, 69, 0
1, 347028, Note_on_c, 0, 70, 0
1, 347047, Note_on_c, 0, 71, 64
1, 347143, Note_on_c, 0, 71, 0
1, 347191, Note_on_c, 0, 72, 78
1, 347282, Note_on_c, 0, 72, 0
1, 347311, Note_on_c, 0, 73, 62
1, 347417, Note_on_c, 0, 73, 0
1, 347460, Note_on_c, 0, 74, 53
1, 347489, Note_on_c, 0, 39, 0
1, 347561, Note_on_c, 0, 74, 0
1, 347589, Note_on_c, 0, 75, 45
1, 347825, Note_on_c, 0, 75, 0
1, 347849, Note_on_c, 0, 70, 46
1, 348319, Note_on_c, 0, 70, 0
1, 349197, Note_on_c, 0, 75, 27
1, 349375, Note_on_c, 0, 75, 0
1, 349495, Note_on_c, 0, 74, 28
1, 349567, Note_on_c, 0, 74, 0
1, 349697, Note_on_c, 0, 73, 45
1, 349783, Note_on_c, 0, 73, 0
1, 349937, Note_on_c, 0, 72, 64
1, 350076, Note_on_c, 0, 72, 0
1, 350172, Note_on_c, 0, 63, 51
1, 350196, Note_on_c, 0, 71, 40
1, 350335, Note_on_c, 0, 63, 0
1, 350421, Note_on_c, 0, 62, 54
1, 350513, Note_on_c, 0, 62, 0
1, 350628, Note_on_c, 0, 61, 58
1, 350695, Note_on_c, 0, 61, 0
1, 350858, Note_on_c, 0, 60, 49
1, 350959, Note_on_c, 0, 60, 0
1, 350993, Note_on_c, 0, 71, 0
1, 351151, Note_on_c, 0, 75, 49
1, 351170, Note_on_c, 0, 59, 39
1, 351185, Note_on_c, 0, 55, 34
1, 351338, Note_on_c, 0, 75, 0
1, 351405, Note_on_c, 0, 74, 71
1, 351482, Note_on_c, 0, 74, 0
1, 351607, Note_on_c, 0, 55, 0
1, 351607, Note_on_c, 0, 73, 76
1, 351669, Note_on_c, 0, 59, 0
1, 351746, Note_on_c, 0, 73, 0
1, 351837, Note_on_c, 0, 72, 85
1, 351986, Note_on_c, 0, 72, 0
1, 352068, Note_on_c, 0, 63, 64
1, 352082, Note_on_c, 0, 71, 65
1, 352241, Note_on_c, 0, 63, 0
1, 352289, Note_on_c, 0, 62, 68
1, 352404, Note_on_c, 0, 62, 0
1, 352481, Note_on_c, 0, 61, 78
1, 352577, Note_on_c, 0, 71, 0
1, 352596, Note_on_c, 0, 61, 0
1, 352692, Note_on_c, 0, 60, 78
1, 352841, Note_on_c, 0, 60, 0
1, 352951, Note_on_c, 0, 55, 47
1, 352955, Note_on_c, 0, 75, 80
1, 352956, Note_on_c, 0, 59, 47
1, 353035, Note_on_c, 0, 75, 0
1, 353157, Note_on_c, 0, 74, 88
1, 353167, Note_on_c, 0, 55, 0
1, 353277, Note_on_c, 0, 74, 0
1, 353278, Note_on_c, 0, 59, 0
1, 353373, Note_on_c, 0, 73, 87
1, 353508, Note_on_c, 0, 73, 0
1, 353613, Note_on_c, 0, 72, 89
1, 353916, Note_on_c, 0, 63, 52
1, 353930, Note_on_c, 0, 55, 34
1, 353997, Note_on_c, 0, 71, 75
1, 354031, Note_on_c, 0, 72, 0
1, 354909, Note_on_c, 0, 71, 0
1, 354914, Note_on_c, 0, 72, 66
1, 355087, Note_on_c, 0, 71, 58
1, 355111, Note_on_c, 0, 72, 0
1, 355212, Note_on_c, 0, 71, 0
1, 355212, Note_on_c, 0, 70, 80
1, 355332, Note_on_c, 0, 71, 52
1, 355351, Note_on_c, 0, 70, 0
1, 355557, Note_on_c, 0, 71, 0
1, 355562, Note_on_c, 0, 74, 59
1, 356311, Note_on_c, 0, 74, 0
1, 356330, Note_on_c, 0, 55, 0
1, 356349, Note_on_c, 0, 72, 36
1, 356474, Note_on_c, 0, 72, 0
1, 356580, Note_on_c, 0, 72, 56
1, 356604, Note_on_c, 0, 56, 26
1, 356853, Note_on_c, 0, 63, 0
1, 356873, Note_on_c, 0, 72, 0
1, 356892, Note_on_c, 0, 56, 0
1, 358773, Note_on_c, 0, 65, 16
1, 358980, Note_on_c, 0, 65, 0
1, 359090, Note_on_c, 0, 67, 42
1, 359253, Note_on_c, 0, 67, 0
1, 359349, Note_on_c, 0, 68, 60
1, 359484, Note_on_c, 0, 68, 0
1, 359633, Note_on_c, 0, 69, 69
1, 359767, Note_on_c, 0, 69, 0
1, 360017, Note_on_c, 0, 70, 62
1, 360938, Note_on_c, 0, 70, 0
1, 361034, Note_on_c, 0, 51, 30
1, 361044, Note_on_c, 0, 43, 24
1, 361255, Note_on_c, 0, 71, 37
1, 361327, Note_on_c, 0, 71, 0
1, 361442, Note_on_c, 0, 72, 68
1, 361500, Note_on_c, 0, 72, 0
1, 361610, Note_on_c, 0, 73, 71
1, 361711, Note_on_c, 0, 73, 0
1, 361730, Note_on_c, 0, 51, 0
1, 361773, Note_on_c, 0, 74, 75
1, 361802, Note_on_c, 0, 43, 0
1, 361860, Note_on_c, 0, 74, 0
1, 361961, Note_on_c, 0, 75, 72
1, 362133, Note_on_c, 0, 46, 52
1, 362162, Note_on_c, 0, 55, 35
1, 362225, Note_on_c, 0, 63, 68
1, 362239, Note_on_c, 0, 75, 0
1, 363161, Note_on_c, 0, 55, 0
1, 363209, Note_on_c, 0, 56, 35
1, 363343, Note_on_c, 0, 63, 0
1, 363353, Note_on_c, 0, 65, 63
1, 363463, Note_on_c, 0, 63, 48
1, 363468, Note_on_c, 0, 65, 0
1, 363597, Note_on_c, 0, 62, 57
1, 363617, Note_on_c, 0, 63, 0
1, 363693, Note_on_c, 0, 63, 58
1, 363717, Note_on_c, 0, 62, 0
1, 363895, Note_on_c, 0, 63, 0
1, 363905, Note_on_c, 0, 67, 48
1, 363929, Note_on_c, 0, 62, 33
1, 364241, Note_on_c, 0, 65, 49
1, 364274, Note_on_c, 0, 67, 0
1, 364673, Note_on_c, 0, 51, 30
1, 364677, Note_on_c, 0, 63, 38
1, 364730, Note_on_c, 0, 62, 0
1, 364745, Note_on_c, 0, 56, 0
1, 364773, Note_on_c, 0, 65, 0
1, 364783, Note_on_c, 0, 46, 0
1, 365249, Note_on_c, 0, 55, 25
1, 365383, Note_on_c, 0, 51, 0
1, 365676, Note_on_c, 0, 55, 0
1, 365681, Note_on_c, 0, 58, 41
1, 365753, Note_on_c, 0, 63, 0
1, 366021, Note_on_c, 0, 58, 0
1, 366093, Note_on_c, 0, 55, 48
1, 366549, Note_on_c, 0, 72, 72
1, 366559, Note_on_c, 0, 51, 39
1, 366626, Note_on_c, 0, 55, 0
1, 367025, Note_on_c, 0, 56, 40
1, 367466, Note_on_c, 0, 60, 38
1, 367476, Note_on_c, 0, 56, 0
1, 367543, Note_on_c, 0, 72, 0
1, 367567, Note_on_c, 0, 74, 61
1, 367658, Note_on_c, 0, 72, 70
1, 367668, Note_on_c, 0, 74, 0
1, 367769, Note_on_c, 0, 71, 63
1, 367783, Note_on_c, 0, 72, 0
1, 367860, Note_on_c, 0, 72, 88
1, 367917, Note_on_c, 0, 71, 0
1, 368028, Note_on_c, 0, 56, 36
1, 368033, Note_on_c, 0, 75, 72
1, 368047, Note_on_c, 0, 72, 0
1, 368066, Note_on_c, 0, 60, 0
1, 368215, Note_on_c, 0, 51, 0
1, 368273, Note_on_c, 0, 72, 92
1, 368311, Note_on_c, 0, 75, 0
1, 368498, Note_on_c, 0, 51, 37
1, 368503, Note_on_c, 0, 70, 76
1, 368522, Note_on_c, 0, 72, 0
1, 368546, Note_on_c, 0, 56, 0
1, 368705, Note_on_c, 0, 79, 85
1, 368729, Note_on_c, 0, 70, 0
1, 368925, Note_on_c, 0, 77, 93
1, 368959, Note_on_c, 0, 55, 38
1, 369045, Note_on_c, 0, 79, 0
1, 369117, Note_on_c, 0, 75, 82
1, 369204, Note_on_c, 0, 77, 0
1, 369329, Note_on_c, 0, 74, 89
1, 369372, Note_on_c, 0, 58, 43
1, 369391, Note_on_c, 0, 75, 0
1, 369439, Note_on_c, 0, 55, 0
1, 369540, Note_on_c, 0, 75, 81
1, 369607, Note_on_c, 0, 74, 0
1, 369756, Note_on_c, 0, 77, 73
1, 369765, Note_on_c, 0, 75, 0
1, 369799, Note_on_c, 0, 55, 41
1, 369847, Note_on_c, 0, 51, 0
1, 369991, Note_on_c, 0, 75, 70
1, 370020, Note_on_c, 0, 77, 0
1, 370269, Note_on_c, 0, 51, 35
1, 370279, Note_on_c, 0, 58, 0
1, 370289, Note_on_c, 0, 74, 68
1, 370332, Note_on_c, 0, 55, 0
1, 370346, Note_on_c, 0, 75, 0
1, 370725, Note_on_c, 0, 56, 33
1, 370730, Note_on_c, 0, 72, 48
1, 370778, Note_on_c, 0, 74, 0
1, 371196, Note_on_c, 0, 60, 39
1, 371215, Note_on_c, 0, 56, 0
1, 371268, Note_on_c, 0, 72, 0
1, 371306, Note_on_c, 0, 74, 50
1, 371373, Note_on_c, 0, 74, 0
1, 371388, Note_on_c, 0, 72, 59
1, 371445, Note_on_c, 0, 72, 0
1, 371498, Note_on_c, 0, 71, 38
1, 371565, Note_on_c, 0, 72, 48
1, 371599, Note_on_c, 0, 71, 0
1, 371714, Note_on_c, 0, 72, 0
1, 371714, Note_on_c, 0, 60, 0
1, 371724, Note_on_c, 0, 75, 41
1, 371729, Note_on_c, 0, 56, 35
1, 371901, Note_on_c, 0, 51, 0
1, 371959, Note_on_c, 0, 75, 0
1, 371978, Note_on_c, 0, 72, 48
1, 372026, Note_on_c, 0, 56, 0
1, 372156, Note_on_c, 0, 72, 0
1, 372209, Note_on_c, 0, 70, 51
1, 372228, Note_on_c, 0, 51, 32
1, 372236, Note_on_c, 0, 58, 20
1, 372236, Note_on_c, 0, 55, 17
1, 372439, Note_on_c, 0, 79, 80
1, 372463, Note_on_c, 0, 70, 0
1, 372665, Note_on_c, 0, 77, 84
1, 372761, Note_on_c, 0, 79, 0
1, 372876, Note_on_c, 0, 75, 66
1, 372914, Note_on_c, 0, 77, 0
1, 373076, Note_on_c, 0, 55, 0
1, 373076, Note_on_c, 0, 58, 0
1, 373087, Note_on_c, 0, 74, 62
1, 373097, Note_on_c, 0, 75, 0
1, 373116, Note_on_c, 0, 51, 0
1, 373298, Note_on_c, 0, 75, 60
1, 373322, Note_on_c, 0, 74, 0
1, 373519, Note_on_c, 0, 77, 50
1, 373533, Note_on_c, 0, 75, 0
1, 373764, Note_on_c, 0, 75, 27
1, 373769, Note_on_c, 0, 77, 0
1, 373980, Note_on_c, 0, 75, 0
1, 373985, Note_on_c, 0, 44, 40
1, 373985, Note_on_c, 0, 53, 42
1, 373994, Note_on_c, 0, 48, 41
1, 374201, Note_on_c, 0, 75, 71
1, 374431, Note_on_c, 0, 74, 74
1, 374469, Note_on_c, 0, 53, 0
1, 374474, Note_on_c, 0, 75, 0
1, 374618, Note_on_c, 0, 48, 0
1, 374652, Note_on_c, 0, 72, 75
1, 374672, Note_on_c, 0, 44, 0
1, 374690, Note_on_c, 0, 74, 0
1, 374868, Note_on_c, 0, 71, 55
1, 374897, Note_on_c, 0, 72, 0
1, 375089, Note_on_c, 0, 72, 68
1, 375127, Note_on_c, 0, 71, 0
1, 375324, Note_on_c, 0, 72, 0
1, 375329, Note_on_c, 0, 74, 48
1, 375559, Note_on_c, 0, 74, 0
1, 375626, Note_on_c, 0, 72, 18
1, 375789, Note_on_c, 0, 72, 0
1, 375847, Note_on_c, 0, 46, 39
1, 375847, Note_on_c, 0, 55, 35
1, 375972, Note_on_c, 0, 72, 67
1, 376025, Note_on_c, 0, 72, 0
1, 376034, Note_on_c, 0, 70, 73
1, 376106, Note_on_c, 0, 70, 0
1, 376130, Note_on_c, 0, 69, 40
1, 376178, Note_on_c, 0, 70, 78
1, 376212, Note_on_c, 0, 69, 0
1, 376322, Note_on_c, 0, 70, 0
1, 376332, Note_on_c, 0, 75, 52
1, 376399, Note_on_c, 0, 55, 0
1, 376413, Note_on_c, 0, 46, 0
1, 376557, Note_on_c, 0, 75, 0
1, 376557, Note_on_c, 0, 70, 55
1, 376639, Note_on_c, 0, 70, 0
1, 376740, Note_on_c, 0, 51, 39
1, 376764, Note_on_c, 0, 46, 42
1, 376845, Note_on_c, 0, 68, 59
1, 376903, Note_on_c, 0, 68, 0
1, 376917, Note_on_c, 0, 67, 57
1, 376961, Note_on_c, 0, 67, 0
1, 376975, Note_on_c, 0, 65, 47
1, 377047, Note_on_c, 0, 67, 62
1, 377105, Note_on_c, 0, 65, 0
1, 377133, Note_on_c, 0, 67, 0
1, 377162, Note_on_c, 0, 70, 61
1, 377253, Note_on_c, 0, 46, 0
1, 377263, Note_on_c, 0, 51, 0
1, 377369, Note_on_c, 0, 70, 0
1, 377407, Note_on_c, 0, 67, 28
1, 377570, Note_on_c, 0, 67, 0
1, 377613, Note_on_c, 0, 53, 39
1, 377623, Note_on_c, 0, 46, 38
1, 377709, Note_on_c, 0, 70, 58
1, 377767, Note_on_c, 0, 68, 53
1, 377772, Note_on_c, 0, 70, 0
1, 377829, Note_on_c, 0, 68, 0
1, 377853, Note_on_c, 0, 67, 45
1, 377925, Note_on_c, 0, 68, 46
1, 377940, Note_on_c, 0, 67, 0
1, 378079, Note_on_c, 0, 68, 0
1, 378117, Note_on_c, 0, 72, 29
1, 378223, Note_on_c, 0, 46, 0
1, 378261, Note_on_c, 0, 53, 0
1, 378305, Note_on_c, 0, 72, 0
1, 378343, Note_on_c, 0, 68, 36
1, 378439, Note_on_c, 0, 68, 0
1, 378569, Note_on_c, 0, 56, 38
1, 378597, Note_on_c, 0, 46, 38
1, 378679, Note_on_c, 0, 63, 60
1, 378741, Note_on_c, 0, 63, 0
1, 378756, Note_on_c, 0, 62, 53
1, 378813, Note_on_c, 0, 62, 0
1, 378847, Note_on_c, 0, 60, 51
1, 378943, Note_on_c, 0, 62, 28
1, 378967, Note_on_c, 0, 60, 0
1, 379101, Note_on_c, 0, 62, 0
1, 379125, Note_on_c, 0, 65, 35
1, 379183, Note_on_c, 0, 46, 0
1, 379250, Note_on_c, 0, 56, 0
1, 379370, Note_on_c, 0, 62, 36
1, 379389, Note_on_c, 0, 65, 0
1, 379673, Note_on_c, 0, 63, 25
1, 379692, Note_on_c, 0, 51, 30
1, 379716, Note_on_c, 0, 62, 0
1, 380205, Note_on_c, 0, 51, 0
1, 380229, Note_on_c, 0, 55, 28
1, 380297, Note_on_c, 0, 63, 0
1, 380618, Note_on_c, 0, 55, 0
1, 380637, Note_on_c, 0, 58, 41
1, 380844, Note_on_c, 0, 75, 59
1, 380949, Note_on_c, 0, 75, 0
1, 381021, Note_on_c, 0, 58, 0
1, 381074, Note_on_c, 0, 74, 72
1, 381113, Note_on_c, 0, 55, 36
1, 381146, Note_on_c, 0, 74, 0
1, 381266, Note_on_c, 0, 73, 81
1, 381338, Note_on_c, 0, 55, 0
1, 381386, Note_on_c, 0, 73, 0
1, 381540, Note_on_c, 0, 71, 53
1, 381549, Note_on_c, 0, 51, 39
1, 382001, Note_on_c, 0, 72, 49
1, 382005, Note_on_c, 0, 56, 32
1, 382034, Note_on_c, 0, 71, 0
1, 382106, Note_on_c, 0, 51, 0
1, 382418, Note_on_c, 0, 56, 0
1, 382447, Note_on_c, 0, 60, 29
1, 382673, Note_on_c, 0, 75, 54
1, 382701, Note_on_c, 0, 72, 0
1, 382740, Note_on_c, 0, 75, 0
1, 382793, Note_on_c, 0, 74, 52
1, 382855, Note_on_c, 0, 74, 0
1, 382874, Note_on_c, 0, 56, 36
1, 382879, Note_on_c, 0, 60, 0
1, 382889, Note_on_c, 0, 77, 69
1, 382961, Note_on_c, 0, 77, 0
1, 382994, Note_on_c, 0, 75, 56
1, 383066, Note_on_c, 0, 75, 0
1, 383090, Note_on_c, 0, 74, 59
1, 383138, Note_on_c, 0, 74, 0
1, 383181, Note_on_c, 0, 72, 55
1, 383287, Note_on_c, 0, 72, 0
1, 383292, Note_on_c, 0, 51, 35
1, 383297, Note_on_c, 0, 70, 70
1, 383306, Note_on_c, 0, 56, 0
1, 383498, Note_on_c, 0, 79, 84
1, 383503, Note_on_c, 0, 70, 0
1, 383705, Note_on_c, 0, 77, 92
1, 383724, Note_on_c, 0, 55, 39
1, 383767, Note_on_c, 0, 79, 0
1, 383815, Note_on_c, 0, 51, 0
1, 383897, Note_on_c, 0, 75, 79
1, 383925, Note_on_c, 0, 77, 0
1, 384122, Note_on_c, 0, 74, 78
1, 384141, Note_on_c, 0, 58, 52
1, 384146, Note_on_c, 0, 55, 0
1, 384151, Note_on_c, 0, 75, 0
1, 384319, Note_on_c, 0, 51, 16
1, 384348, Note_on_c, 0, 75, 85
1, 384396, Note_on_c, 0, 74, 0
1, 384415, Note_on_c, 0, 51, 0
1, 384549, Note_on_c, 0, 77, 93
1, 384588, Note_on_c, 0, 58, 0
1, 384588, Note_on_c, 0, 55, 43
1, 384602, Note_on_c, 0, 75, 0
1, 384756, Note_on_c, 0, 75, 90
1, 384818, Note_on_c, 0, 77, 0
1, 385039, Note_on_c, 0, 74, 97
1, 385039, Note_on_c, 0, 51, 46
1, 385073, Note_on_c, 0, 55, 0
1, 385125, Note_on_c, 0, 75, 0
1, 385399, Note_on_c, 0, 72, 91
1, 385433, Note_on_c, 0, 74, 0
1, 385557, Note_on_c, 0, 56, 49
1, 385658, Note_on_c, 0, 72, 0
1, 385668, Note_on_c, 0, 84, 89
1, 386052, Note_on_c, 0, 56, 0
1, 386138, Note_on_c, 0, 60, 35
1, 386268, Note_on_c, 0, 84, 0
1, 386282, Note_on_c, 0, 82, 63
1, 386421, Note_on_c, 0, 80, 64
1, 386436, Note_on_c, 0, 82, 0
1, 386541, Note_on_c, 0, 79, 76
1, 386546, Note_on_c, 0, 80, 0
1, 386647, Note_on_c, 0, 79, 0
1, 386661, Note_on_c, 0, 51, 0
1, 386676, Note_on_c, 0, 77, 76
1, 386690, Note_on_c, 0, 56, 30
1, 386695, Note_on_c, 0, 60, 0
1, 386791, Note_on_c, 0, 75, 67
1, 386801, Note_on_c, 0, 77, 0
1, 386921, Note_on_c, 0, 74, 74
1, 386935, Note_on_c, 0, 75, 0
1, 386988, Note_on_c, 0, 74, 0
1, 387021, Note_on_c, 0, 56, 0
1, 387021, Note_on_c, 0, 72, 73
1, 387146, Note_on_c, 0, 58, 41
1, 387151, Note_on_c, 0, 51, 34
1, 387175, Note_on_c, 0, 72, 0
1, 387185, Note_on_c, 0, 70, 74
1, 387213, Note_on_c, 0, 55, 30
1, 387381, Note_on_c, 0, 70, 0
1, 387396, Note_on_c, 0, 79, 78
1, 387631, Note_on_c, 0, 77, 75
1, 387669, Note_on_c, 0, 79, 0
1, 387842, Note_on_c, 0, 75, 55
1, 387861, Note_on_c, 0, 77, 0
1, 387948, Note_on_c, 0, 58, 0
1, 388015, Note_on_c, 0, 51, 0
1, 388058, Note_on_c, 0, 74, 52
1, 388063, Note_on_c, 0, 75, 0
1, 388077, Note_on_c, 0, 55, 0
1, 388279, Note_on_c, 0, 75, 54
1, 388308, Note_on_c, 0, 74, 0
1, 388519, Note_on_c, 0, 77, 56
1, 388524, Note_on_c, 0, 75, 0
1, 388754, Note_on_c, 0, 77, 0
1, 388769, Note_on_c, 0, 75, 36
1, 388917, Note_on_c, 0, 75, 0
1, 388965, Note_on_c, 0, 58, 53
1, 388965, Note_on_c, 0, 62, 47
1, 388970, Note_on_c, 0, 56, 48
1, 388985, Note_on_c, 0, 53, 39
1, 389196, Note_on_c, 0, 80, 80
1, 389426, Note_on_c, 0, 79, 90
1, 389508, Note_on_c, 0, 56, 0
1, 389513, Note_on_c, 0, 58, 0
1, 389541, Note_on_c, 0, 80, 0
1, 389556, Note_on_c, 0, 62, 0
1, 389628, Note_on_c, 0, 77, 96
1, 389647, Note_on_c, 0, 53, 0
1, 389729, Note_on_c, 0, 79, 0
1, 389839, Note_on_c, 0, 76, 97
1, 389887, Note_on_c, 0, 77, 0
1, 390060, Note_on_c, 0, 77, 98
1, 390165, Note_on_c, 0, 76, 0
1, 390266, Note_on_c, 0, 79, 101
1, 390324, Note_on_c, 0, 77, 0
1, 390477, Note_on_c, 0, 77, 107
1, 390588, Note_on_c, 0, 79, 0
1, 390818, Note_on_c, 0, 82, 111
1, 390929, Note_on_c, 0, 77, 0
1, 391274, Note_on_c, 0, 55, 71
1, 391730, Note_on_c, 0, 55, 0
1, 391749, Note_on_c, 0, 58, 84
1, 391879, Note_on_c, 0, 80, 77
1, 391937, Note_on_c, 0, 82, 0
1, 391970, Note_on_c, 0, 79, 92
1, 392018, Note_on_c, 0, 80, 0
1, 392047, Note_on_c, 0, 79, 0
1, 392066, Note_on_c, 0, 77, 87
1, 392100, Note_on_c, 0, 58, 0
1, 392143, Note_on_c, 0, 75, 83
1, 392167, Note_on_c, 0, 77, 0
1, 392229, Note_on_c, 0, 74, 86
1, 392258, Note_on_c, 0, 63, 64
1, 392268, Note_on_c, 0, 74, 0
1, 392277, Note_on_c, 0, 75, 0
1, 392292, Note_on_c, 0, 72, 92
1, 392311, Note_on_c, 0, 63, 0
1, 392378, Note_on_c, 0, 70, 96
1, 392402, Note_on_c, 0, 72, 0
1, 392450, Note_on_c, 0, 68, 83
1, 392508, Note_on_c, 0, 67, 90
1, 392522, Note_on_c, 0, 70, 0
1, 392551, Note_on_c, 0, 67, 0
1, 392561, Note_on_c, 0, 68, 0
1, 392575, Note_on_c, 0, 65, 83
1, 392652, Note_on_c, 0, 63, 79
1, 392676, Note_on_c, 0, 65, 0
1, 392719, Note_on_c, 0, 62, 89
1, 392753, Note_on_c, 0, 62, 0
1, 392757, Note_on_c, 0, 63, 0
1, 392781, Note_on_c, 0, 60, 81
1, 392849, Note_on_c, 0, 58, 105
1, 392882, Note_on_c, 0, 60, 0
1, 392925, Note_on_c, 0, 56, 89
1, 393002, Note_on_c, 0, 55, 110
1, 393050, Note_on_c, 0, 58, 0
1, 393089, Note_on_c, 0, 56, 0
1, 393458, Note_on_c, 0, 36, 79
1, 393929, Note_on_c, 0, 39, 70
1, 394245, Note_on_c, 0, 36, 0
1, 394409, Note_on_c, 0, 48, 67
1, 394519, Note_on_c, 0, 39, 0
1, 394797, Note_on_c, 0, 48, 0
1, 394797, Note_on_c, 0, 53, 97
1, 395210, Note_on_c, 0, 32, 91
1, 395229, Note_on_c, 0, 55, 0
1, 395695, Note_on_c, 0, 36, 79
1, 395887, Note_on_c, 0, 32, 0
1, 396156, Note_on_c, 0, 41, 63
1, 396170, Note_on_c, 0, 36, 0
1, 396549, Note_on_c, 0, 51, 95
1, 396717, Note_on_c, 0, 41, 0
1, 396876, Note_on_c, 0, 53, 0
1, 396986, Note_on_c, 0, 33, 95
1, 397442, Note_on_c, 0, 36, 86
1, 397884, Note_on_c, 0, 41, 76
1, 397932, Note_on_c, 0, 36, 0
1, 398340, Note_on_c, 0, 34, 91
1, 398393, Note_on_c, 0, 41, 0
1, 398417, Note_on_c, 0, 33, 0
1, 398873, Note_on_c, 0, 50, 89
1, 399026, Note_on_c, 0, 51, 0
1, 399386, Note_on_c, 0, 39, 83
1, 399597, Note_on_c, 0, 34, 0
1, 399953, Note_on_c, 0, 48, 94
1, 400140, Note_on_c, 0, 50, 0
1, 400423, Note_on_c, 0, 38, 88
1, 400524, Note_on_c, 0, 39, 0
1, 400917, Note_on_c, 0, 46, 99
1, 401148, Note_on_c, 0, 48, 0
1, 401450, Note_on_c, 0, 36, 94
1, 401685, Note_on_c, 0, 38, 0
1, 402141, Note_on_c, 0, 45, 94
1, 402453, Note_on_c, 0, 46, 0
1, 403073, Note_on_c, 0, 44, 85
1, 403092, Note_on_c, 0, 34, 97
1, 403092, Note_on_c, 0, 41, 85
1, 403097, Note_on_c, 0, 38, 84
1, 403154, Note_on_c, 0, 36, 0
1, 403346, Note_on_c, 0, 45, 0
1, 405703, Note_on_c, 0, 46, 48
1, 405813, Note_on_c, 0, 44, 0
1, 406025, Note_on_c, 0, 41, 0
1, 406025, Note_on_c, 0, 44, 44
1, 406087, Note_on_c, 0, 46, 0
1, 406241, Note_on_c, 0, 43, 54
1, 406265, Note_on_c, 0, 44, 0
1, 406428, Note_on_c, 0, 44, 62
1, 406452, Note_on_c, 0, 43, 0
1, 406572, Note_on_c, 0, 46, 85
1, 406601, Note_on_c, 0, 44, 0
1, 406706, Note_on_c, 0, 48, 73
1, 406711, Note_on_c, 0, 46, 0
1, 406855, Note_on_c, 0, 50, 76
1, 406865, Note_on_c, 0, 48, 0
1, 406975, Note_on_c, 0, 50, 0
1, 406975, Note_on_c, 0, 51, 76
1, 407057, Note_on_c, 0, 51, 0
1, 407076, Note_on_c, 0, 53, 70
1, 407162, Note_on_c, 0, 53, 0
1, 407186, Note_on_c, 0, 55, 74
1, 407273, Note_on_c, 0, 56, 79
1, 407297, Note_on_c, 0, 55, 0
1, 407359, Note_on_c, 0, 58, 98
1, 407393, Note_on_c, 0, 56, 0
1, 407407, Note_on_c, 0, 58, 0
1, 407441, Note_on_c, 0, 60, 84
1, 407508, Note_on_c, 0, 60, 0
1, 407517, Note_on_c, 0, 38, 0
1, 407532, Note_on_c, 0, 62, 82
1, 407594, Note_on_c, 0, 63, 82
1, 407628, Note_on_c, 0, 62, 0
1, 407633, Note_on_c, 0, 63, 0
1, 407633, Note_on_c, 0, 34, 0
1, 407671, Note_on_c, 0, 65, 91
1, 407748, Note_on_c, 0, 65, 0
1, 407757, Note_on_c, 0, 67, 92
1, 407820, Note_on_c, 0, 68, 83
1, 407868, Note_on_c, 0, 67, 0
1, 407892, Note_on_c, 0, 70, 100
1, 407921, Note_on_c, 0, 68, 0
1, 407925, Note_on_c, 0, 70, 0
1, 407964, Note_on_c, 0, 72, 94
1, 408021, Note_on_c, 0, 72, 0
1, 408050, Note_on_c, 0, 74, 95
1, 408103, Note_on_c, 0, 75, 88
1, 408141, Note_on_c, 0, 75, 0
1, 408151, Note_on_c, 0, 74, 0
1, 408189, Note_on_c, 0, 77, 96
1, 408276, Note_on_c, 0, 79, 95
1, 408305, Note_on_c, 0, 77, 0
1, 408333, Note_on_c, 0, 80, 86
1, 408386, Note_on_c, 0, 79, 0
1, 408415, Note_on_c, 0, 82, 95
1, 408458, Note_on_c, 0, 80, 0
1, 408458, Note_on_c, 0, 82, 0
1, 408497, Note_on_c, 0, 84, 94
1, 408578, Note_on_c, 0, 86, 88
1, 408588, Note_on_c, 0, 84, 0
1, 408679, Note_on_c, 0, 87, 83
1, 408698, Note_on_c, 0, 86, 0
1, 408818, Note_on_c, 0, 89, 80
1, 408842, Note_on_c, 0, 87, 0
1, 409413, Note_on_c, 0, 86, 60
1, 409481, Note_on_c, 0, 89, 0
1, 409879, Note_on_c, 0, 82, 60
1, 409884, Note_on_c, 0, 86, 0
1, 410239, Note_on_c, 0, 82, 0
1, 410484, Note_on_c, 0, 81, 59
1, 412980, Note_on_c, 0, 81, 0
1, 413028, Note_on_c, 0, 80, 19
1, 415303, Note_on_c, 0, 80, 0
1, 415965, Note_on_c, 0, 51, 29
1, 416205, Note_on_c, 0, 80, 59
1, 416268, Note_on_c, 0, 80, 0
1, 416287, Note_on_c, 0, 79, 63
1, 416330, Note_on_c, 0, 79, 0
1, 416369, Note_on_c, 0, 77, 54
1, 416426, Note_on_c, 0, 79, 50
1, 416441, Note_on_c, 0, 77, 0
1, 416532, Note_on_c, 0, 79, 0
1, 416537, Note_on_c, 0, 82, 45
1, 416580, Note_on_c, 0, 51, 0
1, 416781, Note_on_c, 0, 82, 0
1, 416801, Note_on_c, 0, 79, 32
1, 416959, Note_on_c, 0, 79, 0
1, 417036, Note_on_c, 0, 55, 32
1, 417257, Note_on_c, 0, 77, 56
1, 417309, Note_on_c, 0, 77, 0
1, 417314, Note_on_c, 0, 75, 48
1, 417367, Note_on_c, 0, 75, 0
1, 417377, Note_on_c, 0, 74, 57
1, 417439, Note_on_c, 0, 75, 60
1, 417453, Note_on_c, 0, 74, 0
1, 417549, Note_on_c, 0, 75, 0
1, 417554, Note_on_c, 0, 79, 57
1, 417564, Note_on_c, 0, 55, 0
1, 417741, Note_on_c, 0, 79, 0
1, 417765, Note_on_c, 0, 75, 32
1, 417881, Note_on_c, 0, 75, 0
1, 417981, Note_on_c, 0, 56, 42
1, 418116, Note_on_c, 0, 74, 59
1, 418164, Note_on_c, 0, 74, 0
1, 418188, Note_on_c, 0, 72, 58
1, 418236, Note_on_c, 0, 72, 0
1, 418245, Note_on_c, 0, 71, 47
1, 418317, Note_on_c, 0, 72, 70
1, 418327, Note_on_c, 0, 71, 0
1, 418404, Note_on_c, 0, 72, 0
1, 418442, Note_on_c, 0, 75, 46
1, 418476, Note_on_c, 0, 56, 0
1, 418677, Note_on_c, 0, 75, 0
1, 418725, Note_on_c, 0, 72, 43
1, 418855, Note_on_c, 0, 72, 0
1, 418970, Note_on_c, 0, 60, 36
1, 419066, Note_on_c, 0, 70, 60
1, 419128, Note_on_c, 0, 70, 0
1, 419148, Note_on_c, 0, 68, 57
1, 419196, Note_on_c, 0, 68, 0
1, 419224, Note_on_c, 0, 67, 46
1, 419292, Note_on_c, 0, 68, 53
1, 419300, Note_on_c, 0, 67, 0
1, 419388, Note_on_c, 0, 60, 0
1, 419431, Note_on_c, 0, 68, 0
1, 419431, Note_on_c, 0, 72, 72
1, 419666, Note_on_c, 0, 68, 69
1, 419705, Note_on_c, 0, 72, 0
1, 419969, Note_on_c, 0, 67, 51
1, 419973, Note_on_c, 0, 68, 0
1, 419983, Note_on_c, 0, 46, 41
1, 420247, Note_on_c, 0, 70, 54
1, 420257, Note_on_c, 0, 67, 0
1, 420511, Note_on_c, 0, 55, 41
1, 420775, Note_on_c, 0, 69, 61
1, 420881, Note_on_c, 0, 70, 0
1, 420957, Note_on_c, 0, 55, 0
1, 420996, Note_on_c, 0, 51, 42
1, 421245, Note_on_c, 0, 68, 50
1, 421255, Note_on_c, 0, 69, 0
1, 421505, Note_on_c, 0, 55, 37
1, 421519, Note_on_c, 0, 46, 0
1, 421677, Note_on_c, 0, 51, 0
1, 421701, Note_on_c, 0, 68, 0
1, 421721, Note_on_c, 0, 67, 47
1, 421740, Note_on_c, 0, 55, 0
1, 421884, Note_on_c, 0, 67, 0
1, 421951, Note_on_c, 0, 46, 51
1, 421956, Note_on_c, 0, 65, 50
1, 422148, Note_on_c, 0, 67, 58
1, 422153, Note_on_c, 0, 65, 0
1, 422205, Note_on_c, 0, 67, 0
1, 422239, Note_on_c, 0, 65, 70
1, 422301, Note_on_c, 0, 65, 0
1, 422306, Note_on_c, 0, 67, 60
1, 422369, Note_on_c, 0, 67, 0
1, 422373, Note_on_c, 0, 56, 43
1, 422393, Note_on_c, 0, 65, 67
1, 422441, Note_on_c, 0, 65, 0
1, 422455, Note_on_c, 0, 67, 68
1, 422503, Note_on_c, 0, 67, 0
1, 422513, Note_on_c, 0, 65, 83
1, 422565, Note_on_c, 0, 65, 0
1, 422599, Note_on_c, 0, 67, 62
1, 422642, Note_on_c, 0, 65, 77
1, 422647, Note_on_c, 0, 67, 0
1, 422705, Note_on_c, 0, 65, 0
1, 422743, Note_on_c, 0, 67, 51
1, 422772, Note_on_c, 0, 56, 0
1, 422781, Note_on_c, 0, 65, 80
1, 422796, Note_on_c, 0, 67, 0
1, 422805, Note_on_c, 0, 50, 39
1, 422839, Note_on_c, 0, 65, 0
1, 422857, Note_on_c, 0, 67, 33
1, 422885, Note_on_c, 0, 67, 0
1, 422916, Note_on_c, 0, 65, 73
1, 422973, Note_on_c, 0, 65, 0
1, 422987, Note_on_c, 0, 67, 33
1, 423025, Note_on_c, 0, 67, 0
1, 423069, Note_on_c, 0, 65, 42
1, 423213, Note_on_c, 0, 56, 36
1, 423222, Note_on_c, 0, 67, 33
1, 423233, Note_on_c, 0, 65, 0
1, 423305, Note_on_c, 0, 67, 0
1, 423343, Note_on_c, 0, 65, 52
1, 423453, Note_on_c, 0, 65, 0
1, 423492, Note_on_c, 0, 63, 38
1, 423497, Note_on_c, 0, 50, 0
1, 423578, Note_on_c, 0, 46, 0
1, 423655, Note_on_c, 0, 63, 0
1, 423674, Note_on_c, 0, 65, 44
1, 423698, Note_on_c, 0, 56, 0
1, 423909, Note_on_c, 0, 51, 32
1, 423948, Note_on_c, 0, 63, 40
1, 423957, Note_on_c, 0, 65, 0
1, 424231, Note_on_c, 0, 55, 41
1, 424471, Note_on_c, 0, 58, 53
1, 424476, Note_on_c, 0, 55, 0
1, 424649, Note_on_c, 0, 58, 0
1, 424706, Note_on_c, 0, 55, 38
1, 424884, Note_on_c, 0, 55, 0
1, 424917, Note_on_c, 0, 58, 44
1, 425109, Note_on_c, 0, 58, 0
1, 425143, Note_on_c, 0, 55, 45
1, 425277, Note_on_c, 0, 55, 0
1, 425301, Note_on_c, 0, 63, 0
1, 425349, Note_on_c, 0, 58, 41
1, 425493, Note_on_c, 0, 51, 0
1, 425503, Note_on_c, 0, 58, 0
1, 425604, Note_on_c, 0, 55, 41
1, 425753, Note_on_c, 0, 55, 0
1, 425911, Note_on_c, 0, 56, 41
1, 425916, Note_on_c, 0, 62, 34
1, 425930, Note_on_c, 0, 46, 38
1, 426180, Note_on_c, 0, 65, 50
1, 426429, Note_on_c, 0, 72, 54
1, 426492, Note_on_c, 0, 65, 0
1, 426631, Note_on_c, 0, 70, 72
1, 426655, Note_on_c, 0, 62, 0
1, 426660, Note_on_c, 0, 72, 0
1, 426799, Note_on_c, 0, 56, 0
1, 426813, Note_on_c, 0, 46, 0
1, 426861, Note_on_c, 0, 72, 76
1, 426895, Note_on_c, 0, 70, 0
1, 427063, Note_on_c, 0, 70, 79
1, 427111, Note_on_c, 0, 72, 0
1, 427303, Note_on_c, 0, 72, 77
1, 427332, Note_on_c, 0, 70, 0
1, 427548, Note_on_c, 0, 70, 78
1, 427553, Note_on_c, 0, 72, 0
1, 427677, Note_on_c, 0, 70, 0
1, 427817, Note_on_c, 0, 51, 41
1, 427841, Note_on_c, 0, 70, 54
1, 428138, Note_on_c, 0, 55, 47
1, 428157, Note_on_c, 0, 51, 0
1, 428359, Note_on_c, 0, 55, 0
1, 428364, Note_on_c, 0, 58, 54
1, 428565, Note_on_c, 0, 58, 0
1, 428609, Note_on_c, 0, 55, 35
1, 428805, Note_on_c, 0, 55, 0
1, 428829, Note_on_c, 0, 58, 55
1, 428834, Note_on_c, 0, 75, 43
1, 428873, Note_on_c, 0, 70, 0
1, 429031, Note_on_c, 0, 58, 0
1, 429069, Note_on_c, 0, 55, 50
1, 429223, Note_on_c, 0, 55, 0
1, 429285, Note_on_c, 0, 58, 45
1, 429324, Note_on_c, 0, 75, 0
1, 429405, Note_on_c, 0, 58, 0
1, 429535, Note_on_c, 0, 55, 34
1, 429693, Note_on_c, 0, 55, 0
1, 429833, Note_on_c, 0, 56, 33
1, 429842, Note_on_c, 0, 62, 39
1, 429866, Note_on_c, 0, 46, 40
1, 430101, Note_on_c, 0, 65, 55
1, 430193, Note_on_c, 0, 62, 0
1, 430274, Note_on_c, 0, 56, 0
1, 430341, Note_on_c, 0, 72, 79
1, 430361, Note_on_c, 0, 65, 0
1, 430442, Note_on_c, 0, 46, 0
1, 430548, Note_on_c, 0, 70, 89
1, 430581, Note_on_c, 0, 72, 0
1, 430778, Note_on_c, 0, 72, 80
1, 430812, Note_on_c, 0, 70, 0
1, 430985, Note_on_c, 0, 70, 76
1, 431028, Note_on_c, 0, 72, 0
1, 431215, Note_on_c, 0, 72, 75
1, 431244, Note_on_c, 0, 70, 0
1, 431465, Note_on_c, 0, 70, 71
1, 431469, Note_on_c, 0, 72, 0
1, 431609, Note_on_c, 0, 70, 0
1, 431767, Note_on_c, 0, 51, 30
1, 431781, Note_on_c, 0, 70, 54
1, 432069, Note_on_c, 0, 55, 39
1, 432079, Note_on_c, 0, 51, 0
1, 432295, Note_on_c, 0, 55, 0
1, 432300, Note_on_c, 0, 58, 47
1, 432506, Note_on_c, 0, 58, 0
1, 432549, Note_on_c, 0, 55, 34
1, 432737, Note_on_c, 0, 55, 0
1, 432751, Note_on_c, 0, 58, 53
1, 432785, Note_on_c, 0, 63, 37
1, 432837, Note_on_c, 0, 70, 0
1, 432981, Note_on_c, 0, 58, 0
1, 433005, Note_on_c, 0, 55, 49
1, 433178, Note_on_c, 0, 55, 0
1, 433212, Note_on_c, 0, 58, 65
1, 433274, Note_on_c, 0, 63, 0
1, 433409, Note_on_c, 0, 58, 0
1, 433442, Note_on_c, 0, 55, 61
1, 433543, Note_on_c, 0, 55, 0
1, 433677, Note_on_c, 0, 62, 70
1, 433677, Note_on_c, 0, 56, 47
1, 433692, Note_on_c, 0, 46, 52
1, 433893, Note_on_c, 0, 65, 79
1, 434119, Note_on_c, 0, 72, 88
1, 434148, Note_on_c, 0, 65, 0
1, 434306, Note_on_c, 0, 70, 97
1, 434364, Note_on_c, 0, 72, 0
1, 434493, Note_on_c, 0, 62, 0
1, 434541, Note_on_c, 0, 72, 90
1, 434575, Note_on_c, 0, 70, 0
1, 434757, Note_on_c, 0, 70, 89
1, 434777, Note_on_c, 0, 72, 0
1, 434973, Note_on_c, 0, 72, 81
1, 434993, Note_on_c, 0, 70, 0
1, 435170, Note_on_c, 0, 72, 0
1, 435180, Note_on_c, 0, 70, 84
1, 435194, Note_on_c, 0, 56, 0
1, 435295, Note_on_c, 0, 70, 0
1, 435415, Note_on_c, 0, 70, 75
1, 435415, Note_on_c, 0, 51, 39
1, 435420, Note_on_c, 0, 55, 39
1, 435578, Note_on_c, 0, 46, 0
1, 435636, Note_on_c, 0, 63, 75
1, 435698, Note_on_c, 0, 70, 0
1, 435876, Note_on_c, 0, 63, 0
1, 435890, Note_on_c, 0, 75, 69
1, 435962, Note_on_c, 0, 75, 0
1, 436092, Note_on_c, 0, 75, 81
1, 436173, Note_on_c, 0, 75, 0
1, 436298, Note_on_c, 0, 75, 78
1, 436447, Note_on_c, 0, 51, 0
1, 436466, Note_on_c, 0, 55, 0
1, 436533, Note_on_c, 0, 67, 70
1, 436572, Note_on_c, 0, 75, 0
1, 436706, Note_on_c, 0, 67, 0
1, 436749, Note_on_c, 0, 79, 78
1, 436841, Note_on_c, 0, 79, 0
1, 436961, Note_on_c, 0, 79, 75
1, 437037, Note_on_c, 0, 79, 0
1, 437181, Note_on_c, 0, 79, 68
1, 437393, Note_on_c, 0, 70, 64
1, 437402, Note_on_c, 0, 79, 0
1, 437599, Note_on_c, 0, 70, 0
1, 437609, Note_on_c, 0, 82, 88
1, 437709, Note_on_c, 0, 82, 0
1, 437820, Note_on_c, 0, 82, 92
1, 437925, Note_on_c, 0, 82, 0
1, 438041, Note_on_c, 0, 68, 46
1, 438045, Note_on_c, 0, 82, 80
1, 438051, Note_on_c, 0, 58, 46
1, 438064, Note_on_c, 0, 62, 34
1, 438161, Note_on_c, 0, 82, 0
1, 438252, Note_on_c, 0, 82, 70
1, 438362, Note_on_c, 0, 82, 0
1, 438463, Note_on_c, 0, 82, 65
1, 438554, Note_on_c, 0, 82, 0
1, 438722, Note_on_c, 0, 82, 53
1, 438813, Note_on_c, 0, 82, 0
1, 438876, Note_on_c, 0, 68, 0
1, 438933, Note_on_c, 0, 62, 0
1, 439034, Note_on_c, 0, 75, 38
1, 439035, Note_on_c, 0, 63, 26
1, 439044, Note_on_c, 0, 67, 27
1, 439193, Note_on_c, 0, 58, 0
1, 439418, Note_on_c, 0, 67, 0
1, 439433, Note_on_c, 0, 75, 0
1, 439477, Note_on_c, 0, 63, 0
1, 440018, Note_on_c, 0, 82, 68
1, 440027, Note_on_c, 0, 62, 34
1, 440028, Note_on_c, 0, 68, 40
1, 440028, Note_on_c, 0, 58, 42
1, 440143, Note_on_c, 0, 82, 0
1, 440244, Note_on_c, 0, 82, 71
1, 440340, Note_on_c, 0, 82, 0
1, 440465, Note_on_c, 0, 82, 69
1, 440551, Note_on_c, 0, 82, 0
1, 440709, Note_on_c, 0, 82, 59
1, 440796, Note_on_c, 0, 82, 0
1, 440868, Note_on_c, 0, 68, 0
1, 440920, Note_on_c, 0, 62, 0
1, 441021, Note_on_c, 0, 67, 24
1, 441021, Note_on_c, 0, 75, 26
1, 441026, Note_on_c, 0, 63, 22
1, 441036, Note_on_c, 0, 58, 0
1, 441324, Note_on_c, 0, 67, 0
1, 441391, Note_on_c, 0, 63, 0
1, 441434, Note_on_c, 0, 75, 0
1, 442073, Note_on_c, 0, 82, 46
1, 442073, Note_on_c, 0, 58, 29
1, 442076, Note_on_c, 0, 62, 24
1, 442078, Note_on_c, 0, 68, 28
1, 442178, Note_on_c, 0, 82, 0
1, 442322, Note_on_c, 0, 82, 56
1, 442413, Note_on_c, 0, 82, 0
1, 442577, Note_on_c, 0, 82, 47
1, 442649, Note_on_c, 0, 82, 0
1, 442831, Note_on_c, 0, 82, 41
1, 442911, Note_on_c, 0, 62, 0
1, 442928, Note_on_c, 0, 68, 0
1, 442941, Note_on_c, 0, 82, 0
1, 443292, Note_on_c, 0, 87, 38
1, 443297, Note_on_c, 0, 63, 20
1, 443311, Note_on_c, 0, 67, 24
1, 443421, Note_on_c, 0, 58, 0
1, 444045, Note_on_c, 0, 67, 0
1, 444117, Note_on_c, 0, 63, 0
1, 444185, Note_on_c, 0, 87, 0
1, 445173, Note_on_c, 0, 56, 80
1, 445183, Note_on_c, 0, 62, 82
1, 445183, Note_on_c, 0, 58, 84
1, 445188, Note_on_c, 0, 46, 105
1, 445442, Note_on_c, 0, 46, 0
1, 445581, Note_on_c, 0, 46, 76
1, 445721, Note_on_c, 0, 46, 0
1, 445879, Note_on_c, 0, 46, 77
1, 446004, Note_on_c, 0, 46, 0
1, 446119, Note_on_c, 0, 46, 59
1, 446253, Note_on_c, 0, 46, 0
1, 446364, Note_on_c, 0, 46, 59
1, 446493, Note_on_c, 0, 46, 0
1, 446618, Note_on_c, 0, 46, 53
1, 446757, Note_on_c, 0, 46, 0
1, 446916, Note_on_c, 0, 46, 52
1, 447026, Note_on_c, 0, 46, 0
1, 447213, Note_on_c, 0, 46, 52
1, 447353, Note_on_c, 0, 58, 0
1, 447377, Note_on_c, 0, 46, 0
1, 447487, Note_on_c, 0, 56, 0
1, 447631, Note_on_c, 0, 63, 48
1, 447649, Note_on_c, 0, 58, 37
1, 447655, Note_on_c, 0, 39, 38
1, 447659, Note_on_c, 0, 55, 25
1, 447996, Note_on_c, 0, 62, 0
1, 448258, Note_on_c, 0, 58, 0
1, 448260, Note_on_c, 0, 39, 0
1, 448264, Note_on_c, 0, 55, 0
1, 448337, Note_on_c, 0, 63, 0
1, 448764, Note_on_c, 0, 56, 39
1, 448764, Note_on_c, 0, 65, 50
1, 448768, Note_on_c, 0, 62, 31
1, 448768, Note_on_c, 0, 58, 37
1, 448773, Note_on_c, 0, 46, 34
1, 448913, Note_on_c, 0, 46, 0
1, 449028, Note_on_c, 0, 46, 46
1, 449133, Note_on_c, 0, 46, 0
1, 449287, Note_on_c, 0, 46, 44
1, 449349, Note_on_c, 0, 58, 0
1, 449369, Note_on_c, 0, 46, 0
1, 449454, Note_on_c, 0, 62, 0
1, 449561, Note_on_c, 0, 56, 0
1, 449575, Note_on_c, 0, 46, 46
1, 449657, Note_on_c, 0, 46, 0
1, 449901, Note_on_c, 0, 63, 40
1, 449919, Note_on_c, 0, 58, 27
1, 449920, Note_on_c, 0, 55, 34
1, 449921, Note_on_c, 0, 39, 31
1, 449978, Note_on_c, 0, 65, 0
1, 450361, Note_on_c, 0, 55, 0
1, 450394, Note_on_c, 0, 58, 0
1, 450439, Note_on_c, 0, 39, 0
1, 450473, Note_on_c, 0, 63, 0
1, 451457, Note_on_c, 0, 58, 30
1, 451457, Note_on_c, 0, 65, 36
1, 451461, Note_on_c, 0, 56, 22
1, 451461, Note_on_c, 0, 62, 16
1, 451476, Note_on_c, 0, 34, 24
1, 451634, Note_on_c, 0, 34, 0
1, 451807, Note_on_c, 0, 34, 34
1, 451961, Note_on_c, 0, 34, 0
1, 452157, Note_on_c, 0, 34, 33
1, 452335, Note_on_c, 0, 34, 0
1, 452599, Note_on_c, 0, 34, 27
1, 452796, Note_on_c, 0, 34, 0
1, 452873, Note_on_c, 0, 58, 0
1, 452949, Note_on_c, 0, 62, 0
1, 453021, Note_on_c, 0, 56, 0
1, 453223, Note_on_c, 0, 65, 0
1, 453641, Note_on_c, 0, 63, 26
1, 453658, Note_on_c, 0, 55, 20
1, 453658, Note_on_c, 0, 58, 16
1, 453659, Note_on_c, 0, 39, 16
1, 455170, Note_on_c, 0, 55, 0
1, 455203, Note_on_c, 0, 58, 0
1, 455244, Note_on_c, 0, 63, 0
1, 455421, Note_on_c, 0, 39, 0
1, 455431, End_track
0, 0, End_of_file