0, 0, Header, 0, 1, 256
1, 0, Start_track
1, 0, Tempo, 600000
1, 0, Note_on_c, 0, 45, 64
1, 0, Note_on_c, 0, 57, 64
1, 128, Note_on_c, 0, 62, 73
1, 128, Note_on_c, 0, 45, 0
1, 128, Note_on_c, 0, 57, 0
1, 128, Note_on_c, 0, 50, 71
1, 256, Note_on_c, 0, 62, 0
1, 256, Note_on_c, 0, 50, 0
1, 256, Note_on_c, 0, 45, 78
1, 256, Note_on_c, 0, 57, 78
1, 384, Note_on_c, 0, 62, 70
1, 384, Note_on_c, 0, 45, 0
1, 384, Note_on_c, 0, 57, 0
1, 384, Note_on_c, 0, 50, 72
1, 512, Note_on_c, 0, 62, 0
1, 512, Note_on_c, 0, 66, 82
1, 512, Note_on_c, 0, 50, 0
1, 512, Note_on_c, 0, 54, 78
1, 640, Note_on_c, 0, 66, 0
1, 640, Note_on_c, 0, 62, 68
1, 640, Note_on_c, 0, 54, 0
1, 640, Note_on_c, 0, 50, 71
1, 768, Note_on_c, 0, 62, 0
1, 768, Note_on_c, 0, 50, 0
1, 768, Note_on_c, 0, 66, 82
1, 768, Note_on_c, 0, 54, 74
1, 896, Note_on_c, 0, 66, 0
1, 896, Note_on_c, 0, 69, 87
1, 896, Note_on_c, 0, 54, 0
1, 896, Note_on_c, 0, 57, 75
1, 1152, Note_on_c, 0, 69, 0
1, 1152, Note_on_c, 0, 69, 75
1, 1152, Note_on_c, 0, 57, 0
1, 1152, Note_on_c, 0, 57, 71
1, 1280, Note_on_c, 0, 69, 0
1, 1280, Note_on_c, 0, 69, 76
1, 1280, Note_on_c, 0, 57, 0
1, 1280, Note_on_c, 0, 57, 78
1, 1536, Note_on_c, 0, 69, 0
1, 1536, Note_on_c, 0, 57, 0
1, 1536, Note_on_c, 0, 67, 85
1, 1536, Note_on_c, 0, 73, 85
1, 1536, Note_on_c, 0, 74, 85
1, 1578, Note_on_c, 0, 73, 0
1, 1578, Note_on_c, 0, 74, 0
1, 1578, Note_on_c, 0, 73, 72
1, 1621, Note_on_c, 0, 73, 0
1, 1621, Note_on_c, 0, 71, 74
1, 1621, Note_on_c, 0, 73, 74
1, 1664, Note_on_c, 0, 67, 0
1, 1664, Note_on_c, 0, 71, 0
1, 1664, Note_on_c, 0, 73, 0
1, 1664, Note_on_c, 0, 66, 77
1, 1664, Note_on_c, 0, 74, 77
1, 1920, Note_on_c, 0, 66, 0
1, 1920, Note_on_c, 0, 74, 0
1, 1920, Note_on_c, 0, 76, 85
1, 1920, Note_on_c, 0, 78, 85
1, 1920, Note_on_c, 0, 61, 65
1, 1962, Note_on_c, 0, 76, 0
1, 1962, Note_on_c, 0, 78, 0
1, 1962, Note_on_c, 0, 76, 72
1, 2005, Note_on_c, 0, 76, 0
1, 2005, Note_on_c, 0, 74, 76
1, 2005, Note_on_c, 0, 76, 76
1, 2048, Note_on_c, 0, 74, 0
1, 2048, Note_on_c, 0, 76, 0
1, 2048, Note_on_c, 0, 78, 81
1, 2048, Note_on_c, 0, 61, 0
1, 2048, Note_on_c, 0, 62, 78
1, 2175, Note_on_c, 0, 78, 0
1, 2175, Note_on_c, 0, 62, 0
1, 2304, Note_on_c, 0, 81, 83
1, 2304, Note_on_c, 0, 55, 84
1, 2304, Note_on_c, 0, 64, 84
1, 2368, Note_on_c, 0, 81, 0
1, 2368, Note_on_c, 0, 79, 73
1, 2432, Note_on_c, 0, 79, 0
1, 2432, Note_on_c, 0, 78, 68
1, 2432, Note_on_c, 0, 55, 0
1, 2432, Note_on_c, 0, 64, 0
1, 2432, Note_on_c, 0, 57, 72
1, 2432, Note_on_c, 0, 62, 72
1, 2816, Note_on_c, 0, 78, 0
1, 2816, Note_on_c, 0, 76, 71
1, 2816, Note_on_c, 0, 57, 0
1, 2816, Note_on_c, 0, 62, 0
1, 2816, Note_on_c, 0, 61, 75
1, 2943, Note_on_c, 0, 76, 0
1, 2943, Note_on_c, 0, 61, 0
1, 3072, Note_on_c, 0, 47, 69
1, 3072, Note_on_c, 0, 59, 69
1, 3200, Note_on_c, 0, 64, 69
1, 3200, Note_on_c, 0, 47, 0
1, 3200, Note_on_c, 0, 59, 0
1, 3200, Note_on_c, 0, 52, 68
1, 3328, Note_on_c, 0, 64, 0
1, 3328, Note_on_c, 0, 52, 0
1, 3328, Note_on_c, 0, 47, 83
1, 3328, Note_on_c, 0, 59, 83
1, 3456, Note_on_c, 0, 64, 67
1, 3456, Note_on_c, 0, 47, 0
1, 3456, Note_on_c, 0, 59, 0
1, 3456, Note_on_c, 0, 52, 69
1, 3584, Note_on_c, 0, 64, 0
1, 3584, Note_on_c, 0, 67, 81
1, 3584, Note_on_c, 0, 52, 0
1, 3584, Note_on_c, 0, 55, 77
1, 3712, Note_on_c, 0, 67, 0
1, 3712, Note_on_c, 0, 64, 71
1, 3712, Note_on_c, 0, 55, 0
1, 3712, Note_on_c, 0, 52, 73
1, 3840, Note_on_c, 0, 64, 0
1, 3840, Note_on_c, 0, 52, 0
1, 3840, Note_on_c, 0, 67, 83
1, 3840, Note_on_c, 0, 55, 75
1, 3968, Note_on_c, 0, 67, 0
1, 3968, Note_on_c, 0, 71, 84
1, 3968, Note_on_c, 0, 55, 0
1, 3968, Note_on_c, 0, 59, 81
1, 4224, Note_on_c, 0, 71, 0
1, 4224, Note_on_c, 0, 71, 78
1, 4224, Note_on_c, 0, 59, 0
1, 4224, Note_on_c, 0, 59, 76
1, 4352, Note_on_c, 0, 71, 0
1, 4352, Note_on_c, 0, 71, 78
1, 4352, Note_on_c, 0, 59, 0
1, 4352, Note_on_c, 0, 59, 76
1, 4608, Note_on_c, 0, 71, 0
1, 4608, Note_on_c, 0, 59, 0
1, 4608, Note_on_c, 0, 66, 82
1, 4608, Note_on_c, 0, 69, 82
1, 4608, Note_on_c, 0, 75, 82
1, 4736, Note_on_c, 0, 66, 0
1, 4736, Note_on_c, 0, 69, 0
1, 4736, Note_on_c, 0, 75, 0
1, 4736, Note_on_c, 0, 67, 82
1, 4736, Note_on_c, 0, 71, 82
1, 4736, Note_on_c, 0, 78, 82
1, 4800, Note_on_c, 0, 78, 0
1, 4800, Note_on_c, 0, 76, 74
1, 4864, Note_on_c, 0, 76, 0
1, 4864, Note_on_c, 0, 79, 82
1, 4928, Note_on_c, 0, 79, 0
1, 4928, Note_on_c, 0, 78, 72
1, 4992, Note_on_c, 0, 67, 0
1, 4992, Note_on_c, 0, 71, 0
1, 4992, Note_on_c, 0, 78, 0
1, 4992, Note_on_c, 0, 81, 84
1, 5056, Note_on_c, 0, 81, 0
1, 5056, Note_on_c, 0, 79, 74
1, 5120, Note_on_c, 0, 79, 0
1, 5120, Note_on_c, 0, 83, 83
1, 5247, Note_on_c, 0, 83, 0
1, 5376, Note_on_c, 0, 73, 64
1, 5376, Note_on_c, 0, 57, 69
1, 5376, Note_on_c, 0, 64, 69
1, 5504, Note_on_c, 0, 73, 0
1, 5504, Note_on_c, 0, 76, 79
1, 5504, Note_on_c, 0, 57, 0
1, 5504, Note_on_c, 0, 64, 0
1, 5504, Note_on_c, 0, 62, 84
1, 5504, Note_on_c, 0, 67, 84
1, 5888, Note_on_c, 0, 76, 0
1, 5888, Note_on_c, 0, 66, 74
1, 5888, Note_on_c, 0, 74, 74
1, 5888, Note_on_c, 0, 62, 0
1, 5888, Note_on_c, 0, 67, 0
1, 6015, Note_on_c, 0, 66, 0
1, 6015, Note_on_c, 0, 74, 0
1, 6144, Note_on_c, 0, 45, 66
1, 6272, Note_on_c, 0, 45, 0
1, 6272, Note_on_c, 0, 50, 78
1, 6400, Note_on_c, 0, 74, 74
1, 6400, Note_on_c, 0, 50, 0
1, 6400, Note_on_c, 0, 45, 71
1, 6528, Note_on_c, 0, 74, 0
1, 6528, Note_on_c, 0, 78, 83
1, 6528, Note_on_c, 0, 45, 0
1, 6528, Note_on_c, 0, 50, 79
1, 6656, Note_on_c, 0, 78, 0
1, 6656, Note_on_c, 0, 81, 86
1, 6656, Note_on_c, 0, 50, 0
1, 6656, Note_on_c, 0, 54, 82
1, 6784, Note_on_c, 0, 81, 0
1, 6784, Note_on_c, 0, 78, 73
1, 6784, Note_on_c, 0, 54, 0
1, 6784, Note_on_c, 0, 50, 77
1, 6912, Note_on_c, 0, 78, 0
1, 6912, Note_on_c, 0, 50, 0
1, 6912, Note_on_c, 0, 86, 101
1, 6912, Note_on_c, 0, 54, 91
1, 7024, Note_on_c, 0, 86, 0
1, 7024, Note_on_c, 0, 54, 0
1, 7040, Note_on_c, 0, 57, 80
1, 7104, Note_on_c, 0, 85, 68
1, 7168, Note_on_c, 0, 85, 0
1, 7168, Note_on_c, 0, 88, 81
1, 7232, Note_on_c, 0, 88, 0
1, 7232, Note_on_c, 0, 86, 64
1, 7296, Note_on_c, 0, 86, 0
1, 7296, Note_on_c, 0, 85, 73
1, 7296, Note_on_c, 0, 57, 0
1, 7296, Note_on_c, 0, 57, 77
1, 7360, Note_on_c, 0, 85, 0
1, 7360, Note_on_c, 0, 83, 71
1, 7424, Note_on_c, 0, 83, 0
1, 7424, Note_on_c, 0, 81, 66
1, 7424, Note_on_c, 0, 57, 0
1, 7424, Note_on_c, 0, 57, 72
1, 7488, Note_on_c, 0, 81, 0
1, 7488, Note_on_c, 0, 83, 75
1, 7552, Note_on_c, 0, 83, 0
1, 7552, Note_on_c, 0, 81, 71
1, 7616, Note_on_c, 0, 81, 0
1, 7616, Note_on_c, 0, 79, 72
1, 7680, Note_on_c, 0, 79, 0
1, 7680, Note_on_c, 0, 57, 0
1, 7680, Note_on_c, 0, 78, 72
1, 7680, Note_on_c, 0, 61, 83
1, 7744, Note_on_c, 0, 78, 0
1, 7744, Note_on_c, 0, 76, 75
1, 7808, Note_on_c, 0, 76, 0
1, 7808, Note_on_c, 0, 78, 78
1, 7808, Note_on_c, 0, 61, 0
1, 7808, Note_on_c, 0, 62, 82
1, 7872, Note_on_c, 0, 78, 0
1, 7872, Note_on_c, 0, 81, 84
1, 7872, Note_on_c, 0, 62, 0
1, 7936, Note_on_c, 0, 81, 0
1, 7936, Note_on_c, 0, 78, 73
1, 8000, Note_on_c, 0, 78, 0
1, 8000, Note_on_c, 0, 74, 66
1, 8064, Note_on_c, 0, 74, 0
1, 8064, Note_on_c, 0, 64, 72
1, 8064, Note_on_c, 0, 73, 72
1, 8128, Note_on_c, 0, 73, 0
1, 8128, Note_on_c, 0, 69, 61
1, 8192, Note_on_c, 0, 64, 0
1, 8192, Note_on_c, 0, 69, 0
1, 8192, Note_on_c, 0, 66, 81
1, 8192, Note_on_c, 0, 74, 81
1, 8256, Note_on_c, 0, 66, 0
1, 8256, Note_on_c, 0, 74, 0
1, 8256, Note_on_c, 0, 73, 73
1, 8320, Note_on_c, 0, 73, 0
1, 8320, Note_on_c, 0, 74, 75
1, 8384, Note_on_c, 0, 74, 0
1, 8384, Note_on_c, 0, 78, 87
1, 8448, Note_on_c, 0, 78, 0
1, 8448, Note_on_c, 0, 67, 76
1, 8448, Note_on_c, 0, 76, 76
1, 8512, Note_on_c, 0, 76, 0
1, 8512, Note_on_c, 0, 79, 83
1, 8576, Note_on_c, 0, 67, 0
1, 8576, Note_on_c, 0, 79, 0
1, 8576, Note_on_c, 0, 66, 61
1, 8576, Note_on_c, 0, 74, 61
1, 8576, Note_on_c, 0, 57, 68
1, 8944, Note_on_c, 0, 57, 0
1, 8960, Note_on_c, 0, 66, 0
1, 8960, Note_on_c, 0, 74, 0
1, 8960, Note_on_c, 0, 73, 69
1, 8960, Note_on_c, 0, 64, 92
1, 9087, Note_on_c, 0, 73, 0
1, 9087, Note_on_c, 0, 64, 0
1, 9216, Note_on_c, 0, 47, 65
1, 9344, Note_on_c, 0, 47, 0
1, 9344, Note_on_c, 0, 52, 79
1, 9472, Note_on_c, 0, 76, 70
1, 9472, Note_on_c, 0, 52, 0
1, 9472, Note_on_c, 0, 47, 74
1, 9600, Note_on_c, 0, 76, 0
1, 9600, Note_on_c, 0, 79, 79
1, 9600, Note_on_c, 0, 47, 0
1, 9600, Note_on_c, 0, 52, 83
1, 9728, Note_on_c, 0, 79, 0
1, 9728, Note_on_c, 0, 83, 85
1, 9728, Note_on_c, 0, 52, 0
1, 9728, Note_on_c, 0, 55, 79
1, 9856, Note_on_c, 0, 83, 0
1, 9856, Note_on_c, 0, 79, 67
1, 9856, Note_on_c, 0, 55, 0
1, 9856, Note_on_c, 0, 52, 72
1, 9984, Note_on_c, 0, 79, 0
1, 9984, Note_on_c, 0, 52, 0
1, 9984, Note_on_c, 0, 88, 105
1, 9984, Note_on_c, 0, 55, 92
1, 10096, Note_on_c, 0, 88, 0
1, 10096, Note_on_c, 0, 55, 0
1, 10112, Note_on_c, 0, 59, 81
1, 10176, Note_on_c, 0, 87, 67
1, 10240, Note_on_c, 0, 87, 0
1, 10240, Note_on_c, 0, 84, 67
1, 10304, Note_on_c, 0, 84, 0
1, 10304, Note_on_c, 0, 83, 72
1, 10368, Note_on_c, 0, 83, 0
1, 10368, Note_on_c, 0, 81, 70
1, 10368, Note_on_c, 0, 59, 0
1, 10368, Note_on_c, 0, 59, 76
1, 10432, Note_on_c, 0, 81, 0
1, 10432, Note_on_c, 0, 79, 74
1, 10496, Note_on_c, 0, 79, 0
1, 10496, Note_on_c, 0, 78, 69
1, 10496, Note_on_c, 0, 59, 0
1, 10496, Note_on_c, 0, 59, 72
1, 10560, Note_on_c, 0, 78, 0
1, 10560, Note_on_c, 0, 76, 71
1, 10624, Note_on_c, 0, 76, 0
1, 10624, Note_on_c, 0, 75, 75
1, 10688, Note_on_c, 0, 75, 0
1, 10688, Note_on_c, 0, 72, 67
1, 10752, Note_on_c, 0, 72, 0
1, 10752, Note_on_c, 0, 59, 0
1, 10752, Note_on_c, 0, 63, 73
1, 10752, Note_on_c, 0, 71, 73
1, 10816, Note_on_c, 0, 71, 0
1, 10816, Note_on_c, 0, 69, 72
1, 10880, Note_on_c, 0, 63, 0
1, 10880, Note_on_c, 0, 69, 0
1, 10880, Note_on_c, 0, 64, 70
1, 10880, Note_on_c, 0, 67, 70
1, 10944, Note_on_c, 0, 67, 0
1, 10944, Note_on_c, 0, 71, 83
1, 11008, Note_on_c, 0, 71, 0
1, 11008, Note_on_c, 0, 76, 88
1, 11072, Note_on_c, 0, 64, 0
1, 11072, Note_on_c, 0, 76, 0
1, 11072, Note_on_c, 0, 71, 62
1, 11136, Note_on_c, 0, 71, 0
1, 11136, Note_on_c, 0, 79, 90
1, 11200, Note_on_c, 0, 79, 0
1, 11200, Note_on_c, 0, 76, 70
1, 11264, Note_on_c, 0, 76, 0
1, 11264, Note_on_c, 0, 83, 93
1, 11392, Note_on_c, 0, 83, 0
1, 11392, Note_on_c, 0, 71, 57
1, 11520, Note_on_c, 0, 71, 0
1, 11520, Note_on_c, 0, 67, 76
1, 11520, Note_on_c, 0, 73, 76
1, 11520, Note_on_c, 0, 57, 74
1, 11648, Note_on_c, 0, 67, 0
1, 11648, Note_on_c, 0, 73, 0
1, 11648, Note_on_c, 0, 62, 84
1, 11648, Note_on_c, 0, 74, 84
1, 11648, Note_on_c, 0, 57, 0
1, 11776, Note_on_c, 0, 62, 0
1, 11776, Note_on_c, 0, 66, 76
1, 11904, Note_on_c, 0, 66, 0
1, 11904, Note_on_c, 0, 74, 0
1, 11904, Note_on_c, 0, 69, 67
1, 12032, Note_on_c, 0, 69, 0
1, 12032, Note_on_c, 0, 62, 61
1, 12160, Note_on_c, 0, 62, 0
1, 12160, Note_on_c, 0, 86, 95
1, 12160, Note_on_c, 0, 66, 67
1, 12224, Note_on_c, 0, 86, 0
1, 12224, Note_on_c, 0, 85, 73
1, 12288, Note_on_c, 0, 85, 0
1, 12288, Note_on_c, 0, 66, 0
1, 12288, Note_on_c, 0, 83, 69
1, 12288, Note_on_c, 0, 69, 80
1, 12352, Note_on_c, 0, 83, 0
1, 12352, Note_on_c, 0, 81, 67
1, 12416, Note_on_c, 0, 81, 0
1, 12416, Note_on_c, 0, 80, 66
1, 12416, Note_on_c, 0, 69, 0
1, 12416, Note_on_c, 0, 61, 63
1, 12480, Note_on_c, 0, 80, 0
1, 12480, Note_on_c, 0, 81, 79
1, 12544, Note_on_c, 0, 81, 0
1, 12544, Note_on_c, 0, 80, 74
1, 12544, Note_on_c, 0, 61, 0
1, 12544, Note_on_c, 0, 64, 77
1, 12608, Note_on_c, 0, 80, 0
1, 12608, Note_on_c, 0, 81, 80
1, 12672, Note_on_c, 0, 81, 0
1, 12672, Note_on_c, 0, 83, 82
1, 12672, Note_on_c, 0, 64, 0
1, 12672, Note_on_c, 0, 69, 87
1, 12736, Note_on_c, 0, 83, 0
1, 12736, Note_on_c, 0, 81, 71
1, 12800, Note_on_c, 0, 81, 0
1, 12800, Note_on_c, 0, 69, 0
1, 12800, Note_on_c, 0, 64, 68
1, 12928, Note_on_c, 0, 81, 66
1, 12928, Note_on_c, 0, 64, 0
1, 12928, Note_on_c, 0, 67, 84
1, 12992, Note_on_c, 0, 81, 0
1, 12992, Note_on_c, 0, 79, 69
1, 13056, Note_on_c, 0, 79, 0
1, 13056, Note_on_c, 0, 67, 0
1, 13056, Note_on_c, 0, 69, 73
1, 13056, Note_on_c, 0, 78, 73
1, 13120, Note_on_c, 0, 78, 0
1, 13120, Note_on_c, 0, 76, 71
1, 13184, Note_on_c, 0, 69, 0
1, 13184, Note_on_c, 0, 76, 0
1, 13184, Note_on_c, 0, 62, 68
1, 13184, Note_on_c, 0, 73, 68
1, 13248, Note_on_c, 0, 73, 0
1, 13248, Note_on_c, 0, 74, 81
1, 13312, Note_on_c, 0, 62, 0
1, 13312, Note_on_c, 0, 74, 0
1, 13312, Note_on_c, 0, 66, 72
1, 13312, Note_on_c, 0, 73, 72
1, 13376, Note_on_c, 0, 73, 0
1, 13376, Note_on_c, 0, 74, 75
1, 13440, Note_on_c, 0, 66, 0
1, 13440, Note_on_c, 0, 74, 0
1, 13440, Note_on_c, 0, 69, 83
1, 13440, Note_on_c, 0, 76, 83
1, 13504, Note_on_c, 0, 76, 0
1, 13504, Note_on_c, 0, 74, 75
1, 13568, Note_on_c, 0, 69, 0
1, 13568, Note_on_c, 0, 74, 0
1, 13568, Note_on_c, 0, 62, 52
1, 13696, Note_on_c, 0, 62, 0
1, 13696, Note_on_c, 0, 86, 91
1, 13696, Note_on_c, 0, 66, 72
1, 13760, Note_on_c, 0, 86, 0
1, 13760, Note_on_c, 0, 85, 76
1, 13824, Note_on_c, 0, 85, 0
1, 13824, Note_on_c, 0, 66, 0
1, 13824, Note_on_c, 0, 83, 70
1, 13824, Note_on_c, 0, 69, 82
1, 13888, Note_on_c, 0, 83, 0
1, 13888, Note_on_c, 0, 81, 67
1, 13952, Note_on_c, 0, 81, 0
1, 13952, Note_on_c, 0, 80, 72
1, 13952, Note_on_c, 0, 69, 0
1, 13952, Note_on_c, 0, 61, 58
1, 14016, Note_on_c, 0, 80, 0
1, 14016, Note_on_c, 0, 81, 77
1, 14080, Note_on_c, 0, 81, 0
1, 14080, Note_on_c, 0, 80, 71
1, 14080, Note_on_c, 0, 61, 0
1, 14080, Note_on_c, 0, 64, 78
1, 14144, Note_on_c, 0, 80, 0
1, 14144, Note_on_c, 0, 81, 77
1, 14208, Note_on_c, 0, 81, 0
1, 14208, Note_on_c, 0, 83, 73
1, 14208, Note_on_c, 0, 64, 0
1, 14208, Note_on_c, 0, 69, 88
1, 14272, Note_on_c, 0, 83, 0
1, 14272, Note_on_c, 0, 81, 76
1, 14336, Note_on_c, 0, 81, 0
1, 14336, Note_on_c, 0, 69, 0
1, 14336, Note_on_c, 0, 64, 66
1, 14464, Note_on_c, 0, 81, 68
1, 14464, Note_on_c, 0, 64, 0
1, 14464, Note_on_c, 0, 67, 80
1, 14528, Note_on_c, 0, 81, 0
1, 14528, Note_on_c, 0, 79, 68
1, 14592, Note_on_c, 0, 79, 0
1, 14592, Note_on_c, 0, 67, 0
1, 14592, Note_on_c, 0, 69, 73
1, 14592, Note_on_c, 0, 78, 73
1, 14656, Note_on_c, 0, 78, 0
1, 14656, Note_on_c, 0, 76, 66
1, 14720, Note_on_c, 0, 69, 0
1, 14720, Note_on_c, 0, 76, 0
1, 14720, Note_on_c, 0, 66, 66
1, 14720, Note_on_c, 0, 69, 66
1, 14720, Note_on_c, 0, 73, 66
1, 14784, Note_on_c, 0, 73, 0
1, 14784, Note_on_c, 0, 74, 77
1, 14848, Note_on_c, 0, 74, 0
1, 14848, Note_on_c, 0, 73, 65
1, 14912, Note_on_c, 0, 73, 0
1, 14912, Note_on_c, 0, 74, 80
1, 14976, Note_on_c, 0, 66, 0
1, 14976, Note_on_c, 0, 69, 0
1, 14976, Note_on_c, 0, 74, 0
1, 14976, Note_on_c, 0, 79, 89
1, 15040, Note_on_c, 0, 79, 0
1, 15040, Note_on_c, 0, 78, 71
1, 15104, Note_on_c, 0, 78, 0
1, 15104, Note_on_c, 0, 69, 68
1, 15104, Note_on_c, 0, 75, 68
1, 15104, Note_on_c, 0, 61, 70
1, 15168, Note_on_c, 0, 75, 0
1, 15168, Note_on_c, 0, 76, 75
1, 15232, Note_on_c, 0, 76, 0
1, 15232, Note_on_c, 0, 75, 76
1, 15296, Note_on_c, 0, 75, 0
1, 15296, Note_on_c, 0, 76, 79
1, 15360, Note_on_c, 0, 69, 0
1, 15360, Note_on_c, 0, 76, 0
1, 15360, Note_on_c, 0, 61, 0
1, 15360, Note_on_c, 0, 81, 83
1, 15424, Note_on_c, 0, 81, 0
1, 15424, Note_on_c, 0, 79, 75
1, 15488, Note_on_c, 0, 79, 0
1, 15488, Note_on_c, 0, 77, 73
1, 15488, Note_on_c, 0, 62, 69
1, 15488, Note_on_c, 0, 69, 69
1, 15552, Note_on_c, 0, 77, 0
1, 15552, Note_on_c, 0, 78, 78
1, 15616, Note_on_c, 0, 78, 0
1, 15616, Note_on_c, 0, 77, 72
1, 15680, Note_on_c, 0, 77, 0
1, 15680, Note_on_c, 0, 78, 78
1, 15744, Note_on_c, 0, 78, 0
1, 15744, Note_on_c, 0, 83, 83
1, 15744, Note_on_c, 0, 62, 0
1, 15744, Note_on_c, 0, 69, 0
1, 15808, Note_on_c, 0, 83, 0
1, 15808, Note_on_c, 0, 81, 75
1, 15872, Note_on_c, 0, 81, 0
1, 15872, Note_on_c, 0, 81, 74
1, 15872, Note_on_c, 0, 64, 67
1, 15872, Note_on_c, 0, 69, 67
1, 15936, Note_on_c, 0, 81, 0
1, 15936, Note_on_c, 0, 79, 74
1, 16000, Note_on_c, 0, 79, 0
1, 16000, Note_on_c, 0, 78, 73
1, 16000, Note_on_c, 0, 64, 0
1, 16000, Note_on_c, 0, 66, 75
1, 16064, Note_on_c, 0, 78, 0
1, 16064, Note_on_c, 0, 76, 71
1, 16128, Note_on_c, 0, 76, 0
1, 16128, Note_on_c, 0, 66, 0
1, 16128, Note_on_c, 0, 67, 67
1, 16128, Note_on_c, 0, 74, 67
1, 16192, Note_on_c, 0, 74, 0
1, 16192, Note_on_c, 0, 73, 74
1, 16256, Note_on_c, 0, 67, 0
1, 16256, Note_on_c, 0, 73, 0
1, 16256, Note_on_c, 0, 66, 75
1, 16256, Note_on_c, 0, 69, 75
1, 16256, Note_on_c, 0, 73, 75
1, 16256, Note_on_c, 0, 69, 0
1, 16320, Note_on_c, 0, 73, 0
1, 16320, Note_on_c, 0, 74, 77
1, 16384, Note_on_c, 0, 74, 0
1, 16384, Note_on_c, 0, 73, 75
1, 16448, Note_on_c, 0, 66, 0
1, 16448, Note_on_c, 0, 69, 0
1, 16448, Note_on_c, 0, 73, 0
1, 16448, Note_on_c, 0, 74, 81
1, 16512, Note_on_c, 0, 74, 0
1, 16512, Note_on_c, 0, 79, 85
1, 16576, Note_on_c, 0, 79, 0
1, 16576, Note_on_c, 0, 78, 73
1, 16640, Note_on_c, 0, 78, 0
1, 16640, Note_on_c, 0, 69, 68
1, 16640, Note_on_c, 0, 75, 68
1, 16640, Note_on_c, 0, 61, 70
1, 16704, Note_on_c, 0, 75, 0
1, 16704, Note_on_c, 0, 76, 81
1, 16768, Note_on_c, 0, 76, 0
1, 16768, Note_on_c, 0, 75, 72
1, 16832, Note_on_c, 0, 75, 0
1, 16832, Note_on_c, 0, 76, 77
1, 16896, Note_on_c, 0, 69, 0
1, 16896, Note_on_c, 0, 76, 0
1, 16896, Note_on_c, 0, 61, 0
1, 16896, Note_on_c, 0, 81, 84
1, 16960, Note_on_c, 0, 81, 0
1, 16960, Note_on_c, 0, 79, 72
1, 17024, Note_on_c, 0, 79, 0
1, 17024, Note_on_c, 0, 77, 71
1, 17024, Note_on_c, 0, 62, 66
1, 17024, Note_on_c, 0, 69, 66
1, 17088, Note_on_c, 0, 77, 0
1, 17088, Note_on_c, 0, 78, 84
1, 17152, Note_on_c, 0, 78, 0
1, 17152, Note_on_c, 0, 77, 74
1, 17216, Note_on_c, 0, 77, 0
1, 17216, Note_on_c, 0, 78, 81
1, 17280, Note_on_c, 0, 78, 0
1, 17280, Note_on_c, 0, 83, 83
1, 17280, Note_on_c, 0, 62, 0
1, 17280, Note_on_c, 0, 69, 0
1, 17344, Note_on_c, 0, 83, 0
1, 17344, Note_on_c, 0, 81, 70
1, 17408, Note_on_c, 0, 81, 0
1, 17408, Note_on_c, 0, 81, 78
1, 17408, Note_on_c, 0, 64, 66
1, 17408, Note_on_c, 0, 69, 66
1, 17472, Note_on_c, 0, 81, 0
1, 17472, Note_on_c, 0, 79, 72
1, 17536, Note_on_c, 0, 79, 0
1, 17536, Note_on_c, 0, 78, 70
1, 17536, Note_on_c, 0, 64, 0
1, 17536, Note_on_c, 0, 66, 74
1, 17600, Note_on_c, 0, 78, 0
1, 17600, Note_on_c, 0, 76, 72
1, 17664, Note_on_c, 0, 76, 0
1, 17664, Note_on_c, 0, 66, 0
1, 17664, Note_on_c, 0, 67, 73
1, 17664, Note_on_c, 0, 74, 73
1, 17728, Note_on_c, 0, 74, 0
1, 17728, Note_on_c, 0, 73, 77
1, 17792, Note_on_c, 0, 67, 0
1, 17792, Note_on_c, 0, 73, 0
1, 17792, Note_on_c, 0, 66, 68
1, 17792, Note_on_c, 0, 69, 68
1, 17792, Note_on_c, 0, 69, 0
1, 17856, Note_on_c, 0, 74, 84
1, 17920, Note_on_c, 0, 74, 0
1, 17920, Note_on_c, 0, 78, 81
1, 17984, Note_on_c, 0, 66, 0
1, 17984, Note_on_c, 0, 69, 0
1, 17984, Note_on_c, 0, 78, 0
1, 17984, Note_on_c, 0, 81, 85
1, 18048, Note_on_c, 0, 81, 0
1, 18048, Note_on_c, 0, 86, 89
1, 18048, Note_on_c, 0, 64, 67
1, 18048, Note_on_c, 0, 67, 67
1, 18112, Note_on_c, 0, 86, 0
1, 18112, Note_on_c, 0, 85, 69
1, 18176, Note_on_c, 0, 85, 0
1, 18176, Note_on_c, 0, 64, 0
1, 18176, Note_on_c, 0, 67, 0
1, 18176, Note_on_c, 0, 62, 71
1, 18176, Note_on_c, 0, 66, 71
1, 18240, Note_on_c, 0, 71, 69
1, 18304, Note_on_c, 0, 71, 0
1, 18304, Note_on_c, 0, 74, 87
1, 18368, Note_on_c, 0, 74, 0
1, 18368, Note_on_c, 0, 78, 83
1, 18432, Note_on_c, 0, 78, 0
1, 18432, Note_on_c, 0, 62, 0
1, 18432, Note_on_c, 0, 66, 0
1, 18432, Note_on_c, 0, 83, 91
1, 18432, Note_on_c, 0, 61, 66
1, 18432, Note_on_c, 0, 64, 66
1, 18496, Note_on_c, 0, 83, 0
1, 18496, Note_on_c, 0, 81, 72
1, 18560, Note_on_c, 0, 81, 0
1, 18560, Note_on_c, 0, 61, 0
1, 18560, Note_on_c, 0, 64, 0
1, 18560, Note_on_c, 0, 59, 65
1, 18560, Note_on_c, 0, 62, 65
1, 18624, Note_on_c, 0, 67, 68
1, 18688, Note_on_c, 0, 67, 0
1, 18688, Note_on_c, 0, 71, 85
1, 18752, Note_on_c, 0, 71, 0
1, 18752, Note_on_c, 0, 74, 82
1, 18816, Note_on_c, 0, 74, 0
1, 18816, Note_on_c, 0, 79, 90
1, 18816, Note_on_c, 0, 59, 0
1, 18816, Note_on_c, 0, 62, 0
1, 18816, Note_on_c, 0, 57, 76
1, 18816, Note_on_c, 0, 61, 76
1, 18880, Note_on_c, 0, 79, 0
1, 18880, Note_on_c, 0, 78, 75
1, 18944, Note_on_c, 0, 78, 0
1, 18944, Note_on_c, 0, 57, 0
1, 18944, Note_on_c, 0, 61, 0
1, 18944, Note_on_c, 0, 55, 73
1, 18944, Note_on_c, 0, 59, 73
1, 19008, Note_on_c, 0, 64, 68
1, 19072, Note_on_c, 0, 64, 0
1, 19072, Note_on_c, 0, 67, 79
1, 19136, Note_on_c, 0, 67, 0
1, 19136, Note_on_c, 0, 71, 82
1, 19200, Note_on_c, 0, 71, 0
1, 19200, Note_on_c, 0, 55, 0
1, 19200, Note_on_c, 0, 59, 0
1, 19200, Note_on_c, 0, 76, 88
1, 19200, Note_on_c, 0, 56, 75
1, 19200, Note_on_c, 0, 59, 75
1, 19264, Note_on_c, 0, 76, 0
1, 19264, Note_on_c, 0, 74, 71
1, 19328, Note_on_c, 0, 74, 0
1, 19328, Note_on_c, 0, 73, 76
1, 19328, Note_on_c, 0, 56, 0
1, 19328, Note_on_c, 0, 59, 0
1, 19328, Note_on_c, 0, 57, 72
1, 19392, Note_on_c, 0, 73, 0
1, 19392, Note_on_c, 0, 64, 60
1, 19392, Note_on_c, 0, 57, 0
1, 19456, Note_on_c, 0, 64, 0
1, 19456, Note_on_c, 0, 81, 90
1, 19456, Note_on_c, 0, 61, 66
1, 19520, Note_on_c, 0, 81, 0
1, 19520, Note_on_c, 0, 61, 0
1, 19520, Note_on_c, 0, 64, 78
1, 19584, Note_on_c, 0, 74, 67
1, 19584, Note_on_c, 0, 78, 67
1, 19584, Note_on_c, 0, 64, 0
1, 19584, Note_on_c, 0, 62, 75
1, 19648, Note_on_c, 0, 74, 0
1, 19648, Note_on_c, 0, 78, 0
1, 19648, Note_on_c, 0, 62, 0
1, 19648, Note_on_c, 0, 66, 89
1, 19712, Note_on_c, 0, 73, 67
1, 19712, Note_on_c, 0, 76, 67
1, 19712, Note_on_c, 0, 66, 0
1, 19712, Note_on_c, 0, 57, 67
1, 19776, Note_on_c, 0, 73, 0
1, 19776, Note_on_c, 0, 76, 0
1, 19776, Note_on_c, 0, 64, 51
1, 19776, Note_on_c, 0, 57, 0
1, 19840, Note_on_c, 0, 64, 0
1, 19840, Note_on_c, 0, 81, 95
1, 19840, Note_on_c, 0, 61, 68
1, 19904, Note_on_c, 0, 81, 0
1, 19904, Note_on_c, 0, 61, 0
1, 19904, Note_on_c, 0, 64, 82
1, 19968, Note_on_c, 0, 64, 0
1, 19968, Note_on_c, 0, 74, 63
1, 19968, Note_on_c, 0, 78, 63
1, 19968, Note_on_c, 0, 62, 67
1, 20032, Note_on_c, 0, 74, 0
1, 20032, Note_on_c, 0, 78, 0
1, 20032, Note_on_c, 0, 62, 0
1, 20032, Note_on_c, 0, 66, 84
1, 20096, Note_on_c, 0, 73, 69
1, 20096, Note_on_c, 0, 76, 69
1, 20096, Note_on_c, 0, 66, 0
1, 20096, Note_on_c, 0, 57, 75
1, 20096, Note_on_c, 0, 61, 75
1, 20096, Note_on_c, 0, 64, 75
1, 20224, Note_on_c, 0, 73, 0
1, 20224, Note_on_c, 0, 76, 0
1, 20224, Note_on_c, 0, 81, 83
1, 20224, Note_on_c, 0, 57, 0
1, 20224, Note_on_c, 0, 61, 0
1, 20224, Note_on_c, 0, 64, 0
1, 20352, Note_on_c, 0, 81, 0
1, 20352, Note_on_c, 0, 57, 52
1, 20352, Note_on_c, 0, 69, 52
1, 20352, Note_on_c, 0, 45, 70
1, 20480, Note_on_c, 0, 57, 0
1, 20480, Note_on_c, 0, 69, 0
1, 20480, Note_on_c, 0, 57, 72
1, 20480, Note_on_c, 0, 69, 72
1, 20480, Note_on_c, 0, 45, 0
1, 20480, Note_on_c, 0, 45, 72
1, 20607, Note_on_c, 0, 57, 0
1, 20607, Note_on_c, 0, 69, 0
1, 20607, Note_on_c, 0, 45, 0
1, 20736, Note_on_c, 0, 76, 90
1, 20864, Note_on_c, 0, 76, 0
1, 20864, Note_on_c, 0, 81, 94
1, 20864, Note_on_c, 0, 64, 68
1, 20992, Note_on_c, 0, 81, 0
1, 20992, Note_on_c, 0, 69, 70
1, 20992, Note_on_c, 0, 76, 70
1, 20992, Note_on_c, 0, 64, 0
1, 21120, Note_on_c, 0, 69, 0
1, 21120, Note_on_c, 0, 76, 0
1, 21120, Note_on_c, 0, 81, 90
1, 21120, Note_on_c, 0, 64, 68
1, 21248, Note_on_c, 0, 81, 0
1, 21248, Note_on_c, 0, 85, 83
1, 21248, Note_on_c, 0, 64, 0
1, 21248, Note_on_c, 0, 69, 83
1, 21376, Note_on_c, 0, 85, 0
1, 21376, Note_on_c, 0, 73, 72
1, 21376, Note_on_c, 0, 81, 72
1, 21376, Note_on_c, 0, 69, 0
1, 21504, Note_on_c, 0, 73, 0
1, 21504, Note_on_c, 0, 81, 0
1, 21504, Note_on_c, 0, 85, 86
1, 21504, Note_on_c, 0, 69, 69
1, 21632, Note_on_c, 0, 85, 0
1, 21632, Note_on_c, 0, 88, 80
1, 21632, Note_on_c, 0, 69, 0
1, 21632, Note_on_c, 0, 73, 82
1, 21696, Note_on_c, 0, 88, 0
1, 21696, Note_on_c, 0, 86, 73
1, 21760, Note_on_c, 0, 86, 0
1, 21760, Note_on_c, 0, 85, 70
1, 21760, Note_on_c, 0, 73, 0
1, 21760, Note_on_c, 0, 76, 86
1, 21824, Note_on_c, 0, 85, 0
1, 21824, Note_on_c, 0, 74, 70
1, 21824, Note_on_c, 0, 83, 70
1, 21824, Note_on_c, 0, 76, 0
1, 21888, Note_on_c, 0, 74, 0
1, 21888, Note_on_c, 0, 83, 0
1, 21888, Note_on_c, 0, 73, 73
1, 21888, Note_on_c, 0, 82, 73
1, 21952, Note_on_c, 0, 73, 0
1, 21952, Note_on_c, 0, 82, 0
1, 21952, Note_on_c, 0, 71, 68
1, 21952, Note_on_c, 0, 80, 68
1, 22016, Note_on_c, 0, 71, 0
1, 22016, Note_on_c, 0, 80, 0
1, 22016, Note_on_c, 0, 70, 70
1, 22016, Note_on_c, 0, 78, 70
1, 22080, Note_on_c, 0, 70, 0
1, 22080, Note_on_c, 0, 78, 0
1, 22080, Note_on_c, 0, 68, 66
1, 22080, Note_on_c, 0, 76, 66
1, 22144, Note_on_c, 0, 68, 0
1, 22144, Note_on_c, 0, 76, 0
1, 22144, Note_on_c, 0, 66, 71
1, 22144, Note_on_c, 0, 74, 71
1, 22208, Note_on_c, 0, 66, 0
1, 22208, Note_on_c, 0, 74, 0
1, 22208, Note_on_c, 0, 64, 73
1, 22208, Note_on_c, 0, 73, 73
1, 22272, Note_on_c, 0, 64, 0
1, 22272, Note_on_c, 0, 73, 0
1, 22272, Note_on_c, 0, 62, 69
1, 22272, Note_on_c, 0, 71, 69
1, 22336, Note_on_c, 0, 62, 0
1, 22336, Note_on_c, 0, 71, 0
1, 22336, Note_on_c, 0, 61, 71
1, 22336, Note_on_c, 0, 70, 71
1, 22400, Note_on_c, 0, 61, 0
1, 22400, Note_on_c, 0, 70, 0
1, 22400, Note_on_c, 0, 71, 74
1, 22400, Note_on_c, 0, 59, 69
1, 22464, Note_on_c, 0, 71, 0
1, 22464, Note_on_c, 0, 59, 0
1, 22464, Note_on_c, 0, 58, 73
1, 22528, Note_on_c, 0, 66, 72
1, 22528, Note_on_c, 0, 58, 0
1, 22528, Note_on_c, 0, 59, 78
1, 22656, Note_on_c, 0, 66, 0
1, 22656, Note_on_c, 0, 71, 83
1, 22656, Note_on_c, 0, 59, 0
1, 22656, Note_on_c, 0, 54, 71
1, 22784, Note_on_c, 0, 71, 0
1, 22784, Note_on_c, 0, 74, 81
1, 22784, Note_on_c, 0, 54, 0
1, 22784, Note_on_c, 0, 59, 75
1, 22912, Note_on_c, 0, 74, 0
1, 22912, Note_on_c, 0, 62, 71
1, 22912, Note_on_c, 0, 71, 71
1, 22912, Note_on_c, 0, 59, 0
1, 23040, Note_on_c, 0, 62, 0
1, 23040, Note_on_c, 0, 71, 0
1, 23040, Note_on_c, 0, 74, 82
1, 23040, Note_on_c, 0, 59, 70
1, 23168, Note_on_c, 0, 74, 0
1, 23168, Note_on_c, 0, 78, 83
1, 23168, Note_on_c, 0, 59, 0
1, 23168, Note_on_c, 0, 62, 83
1, 23232, Note_on_c, 0, 78, 0
1, 23232, Note_on_c, 0, 76, 70
1, 23296, Note_on_c, 0, 76, 0
1, 23296, Note_on_c, 0, 66, 68
1, 23296, Note_on_c, 0, 74, 68
1, 23296, Note_on_c, 0, 62, 0
1, 23360, Note_on_c, 0, 66, 0
1, 23360, Note_on_c, 0, 74, 0
1, 23360, Note_on_c, 0, 64, 71
1, 23360, Note_on_c, 0, 73, 71
1, 23424, Note_on_c, 0, 64, 0
1, 23424, Note_on_c, 0, 73, 0
1, 23424, Note_on_c, 0, 62, 69
1, 23424, Note_on_c, 0, 71, 69
1, 23488, Note_on_c, 0, 62, 0
1, 23488, Note_on_c, 0, 71, 0
1, 23488, Note_on_c, 0, 61, 73
1, 23488, Note_on_c, 0, 70, 73
1, 23552, Note_on_c, 0, 61, 0
1, 23552, Note_on_c, 0, 70, 0
1, 23552, Note_on_c, 0, 74, 82
1, 23552, Note_on_c, 0, 59, 66
1, 23616, Note_on_c, 0, 74, 0
1, 23616, Note_on_c, 0, 73, 71
1, 23616, Note_on_c, 0, 59, 0
1, 23616, Note_on_c, 0, 58, 75
1, 23680, Note_on_c, 0, 73, 0
1, 23680, Note_on_c, 0, 71, 71
1, 23680, Note_on_c, 0, 58, 0
1, 23680, Note_on_c, 0, 62, 84
1, 23744, Note_on_c, 0, 71, 0
1, 23744, Note_on_c, 0, 61, 67
1, 23744, Note_on_c, 0, 69, 67
1, 23744, Note_on_c, 0, 62, 0
1, 23808, Note_on_c, 0, 61, 0
1, 23808, Note_on_c, 0, 69, 0
1, 23808, Note_on_c, 0, 68, 75
1, 23808, Note_on_c, 0, 59, 70
1, 23872, Note_on_c, 0, 68, 0
1, 23872, Note_on_c, 0, 66, 74
1, 23872, Note_on_c, 0, 59, 0
1, 23872, Note_on_c, 0, 57, 74
1, 23936, Note_on_c, 0, 66, 0
1, 23936, Note_on_c, 0, 64, 68
1, 23936, Note_on_c, 0, 57, 0
1, 23936, Note_on_c, 0, 56, 75
1, 24000, Note_on_c, 0, 64, 0
1, 24000, Note_on_c, 0, 56, 0
1, 24000, Note_on_c, 0, 54, 72
1, 24064, Note_on_c, 0, 54, 0
1, 24064, Note_on_c, 0, 52, 82
1, 24064, Note_on_c, 0, 59, 82
1, 24192, Note_on_c, 0, 64, 68
1, 24192, Note_on_c, 0, 52, 0
1, 24192, Note_on_c, 0, 59, 0
1, 24192, Note_on_c, 0, 47, 71
1, 24320, Note_on_c, 0, 64, 0
1, 24320, Note_on_c, 0, 68, 81
1, 24320, Note_on_c, 0, 47, 0
1, 24320, Note_on_c, 0, 52, 77
1, 24448, Note_on_c, 0, 68, 0
1, 24448, Note_on_c, 0, 64, 70
1, 24448, Note_on_c, 0, 52, 0
1, 24448, Note_on_c, 0, 56, 82
1, 24576, Note_on_c, 0, 64, 0
1, 24576, Note_on_c, 0, 56, 0
1, 24576, Note_on_c, 0, 68, 86
1, 24576, Note_on_c, 0, 52, 73
1, 24704, Note_on_c, 0, 68, 0
1, 24704, Note_on_c, 0, 71, 85
1, 24704, Note_on_c, 0, 52, 0
1, 24704, Note_on_c, 0, 56, 79
1, 24768, Note_on_c, 0, 71, 0
1, 24768, Note_on_c, 0, 73, 83
1, 24832, Note_on_c, 0, 73, 0
1, 24832, Note_on_c, 0, 74, 78
1, 24832, Note_on_c, 0, 56, 0
1, 24832, Note_on_c, 0, 59, 81
1, 24896, Note_on_c, 0, 74, 0
1, 24896, Note_on_c, 0, 73, 72
1, 24896, Note_on_c, 0, 59, 0
1, 24896, Note_on_c, 0, 61, 82
1, 24960, Note_on_c, 0, 73, 0
1, 24960, Note_on_c, 0, 62, 74
1, 24960, Note_on_c, 0, 71, 74
1, 24960, Note_on_c, 0, 61, 0
1, 25024, Note_on_c, 0, 62, 0
1, 25024, Note_on_c, 0, 71, 0
1, 25024, Note_on_c, 0, 61, 70
1, 25024, Note_on_c, 0, 69, 70
1, 25088, Note_on_c, 0, 61, 0
1, 25088, Note_on_c, 0, 69, 0
1, 25088, Note_on_c, 0, 68, 72
1, 25088, Note_on_c, 0, 59, 66
1, 25152, Note_on_c, 0, 68, 0
1, 25152, Note_on_c, 0, 66, 74
1, 25152, Note_on_c, 0, 59, 0
1, 25152, Note_on_c, 0, 57, 73
1, 25216, Note_on_c, 0, 66, 0
1, 25216, Note_on_c, 0, 64, 71
1, 25216, Note_on_c, 0, 57, 0
1, 25216, Note_on_c, 0, 56, 72
1, 25280, Note_on_c, 0, 64, 0
1, 25280, Note_on_c, 0, 66, 81
1, 25280, Note_on_c, 0, 56, 0
1, 25280, Note_on_c, 0, 54, 75
1, 25344, Note_on_c, 0, 66, 0
1, 25344, Note_on_c, 0, 54, 0
1, 25344, Note_on_c, 0, 62, 66
1, 25344, Note_on_c, 0, 56, 80
1, 25408, Note_on_c, 0, 62, 0
1, 25408, Note_on_c, 0, 64, 81
1, 25408, Note_on_c, 0, 56, 0
1, 25408, Note_on_c, 0, 52, 74
1, 25472, Note_on_c, 0, 64, 0
1, 25472, Note_on_c, 0, 61, 69
1, 25472, Note_on_c, 0, 52, 0
1, 25472, Note_on_c, 0, 57, 80
1, 25536, Note_on_c, 0, 61, 0
1, 25536, Note_on_c, 0, 64, 80
1, 25600, Note_on_c, 0, 64, 0
1, 25600, Note_on_c, 0, 63, 73
1, 25664, Note_on_c, 0, 63, 0
1, 25664, Note_on_c, 0, 64, 80
1, 25664, Note_on_c, 0, 57, 0
1, 25728, Note_on_c, 0, 64, 0
1, 25728, Note_on_c, 0, 66, 84
1, 25792, Note_on_c, 0, 66, 0
1, 25792, Note_on_c, 0, 64, 73
1, 25856, Note_on_c, 0, 64, 0
1, 25856, Note_on_c, 0, 61, 86
1, 25856, Note_on_c, 0, 69, 86
1, 25856, Note_on_c, 0, 57, 68
1, 25920, Note_on_c, 0, 69, 0
1, 25920, Note_on_c, 0, 64, 70
1, 25984, Note_on_c, 0, 64, 0
1, 25984, Note_on_c, 0, 63, 73
1, 26048, Note_on_c, 0, 63, 0
1, 26048, Note_on_c, 0, 64, 79
1, 26112, Note_on_c, 0, 61, 0
1, 26112, Note_on_c, 0, 64, 0
1, 26112, Note_on_c, 0, 57, 0
1, 26112, Note_on_c, 0, 66, 82
1, 26176, Note_on_c, 0, 66, 0
1, 26176, Note_on_c, 0, 64, 71
1, 26240, Note_on_c, 0, 64, 0
1, 26240, Note_on_c, 0, 56, 68
1, 26240, Note_on_c, 0, 59, 68
1, 26304, Note_on_c, 0, 64, 68
1, 26304, Note_on_c, 0, 59, 0
1, 26368, Note_on_c, 0, 64, 0
1, 26368, Note_on_c, 0, 63, 69
1, 26432, Note_on_c, 0, 63, 0
1, 26432, Note_on_c, 0, 64, 78
1, 26496, Note_on_c, 0, 64, 0
1, 26496, Note_on_c, 0, 61, 65
1, 26496, Note_on_c, 0, 56, 0
1, 26496, Note_on_c, 0, 57, 76
1, 26560, Note_on_c, 0, 61, 0
1, 26560, Note_on_c, 0, 64, 80
1, 26624, Note_on_c, 0, 64, 0
1, 26624, Note_on_c, 0, 62, 71
1, 26624, Note_on_c, 0, 57, 0
1, 26624, Note_on_c, 0, 59, 77
1, 26688, Note_on_c, 0, 62, 0
1, 26688, Note_on_c, 0, 64, 80
1, 26752, Note_on_c, 0, 64, 0
1, 26752, Note_on_c, 0, 61, 73
1, 26752, Note_on_c, 0, 59, 0
1, 26752, Note_on_c, 0, 57, 73
1, 26816, Note_on_c, 0, 61, 0
1, 26816, Note_on_c, 0, 64, 82
1, 26880, Note_on_c, 0, 64, 0
1, 26880, Note_on_c, 0, 57, 0
1, 26880, Note_on_c, 0, 56, 79
1, 26880, Note_on_c, 0, 59, 79
1, 26944, Note_on_c, 0, 64, 68
1, 26944, Note_on_c, 0, 59, 0
1, 27008, Note_on_c, 0, 64, 0
1, 27008, Note_on_c, 0, 61, 66
1, 27008, Note_on_c, 0, 56, 0
1, 27008, Note_on_c, 0, 57, 80
1, 27072, Note_on_c, 0, 61, 0
1, 27072, Note_on_c, 0, 64, 80
1, 27136, Note_on_c, 0, 64, 0
1, 27136, Note_on_c, 0, 63, 67
1, 27200, Note_on_c, 0, 63, 0
1, 27200, Note_on_c, 0, 64, 78
1, 27264, Note_on_c, 0, 64, 0
1, 27264, Note_on_c, 0, 66, 83
1, 27264, Note_on_c, 0, 57, 0
1, 27328, Note_on_c, 0, 66, 0
1, 27328, Note_on_c, 0, 64, 71
1, 27392, Note_on_c, 0, 64, 0
1, 27392, Note_on_c, 0, 61, 82
1, 27392, Note_on_c, 0, 69, 82
1, 27392, Note_on_c, 0, 57, 70
1, 27456, Note_on_c, 0, 69, 0
1, 27456, Note_on_c, 0, 64, 68
1, 27520, Note_on_c, 0, 64, 0
1, 27520, Note_on_c, 0, 63, 74
1, 27584, Note_on_c, 0, 63, 0
1, 27584, Note_on_c, 0, 64, 75
1, 27648, Note_on_c, 0, 61, 0
1, 27648, Note_on_c, 0, 64, 0
1, 27648, Note_on_c, 0, 57, 0
1, 27648, Note_on_c, 0, 66, 80
1, 27712, Note_on_c, 0, 66, 0
1, 27712, Note_on_c, 0, 64, 70
1, 27776, Note_on_c, 0, 64, 0
1, 27776, Note_on_c, 0, 56, 68
1, 27776, Note_on_c, 0, 59, 68
1, 27840, Note_on_c, 0, 64, 67
1, 27840, Note_on_c, 0, 59, 0
1, 27904, Note_on_c, 0, 64, 0
1, 27904, Note_on_c, 0, 63, 75
1, 27968, Note_on_c, 0, 63, 0
1, 27968, Note_on_c, 0, 64, 80
1, 28032, Note_on_c, 0, 64, 0
1, 28032, Note_on_c, 0, 61, 69
1, 28032, Note_on_c, 0, 56, 0
1, 28032, Note_on_c, 0, 57, 76
1, 28096, Note_on_c, 0, 61, 0
1, 28096, Note_on_c, 0, 64, 84
1, 28160, Note_on_c, 0, 64, 0
1, 28160, Note_on_c, 0, 62, 72
1, 28160, Note_on_c, 0, 57, 0
1, 28160, Note_on_c, 0, 59, 78
1, 28224, Note_on_c, 0, 62, 0
1, 28224, Note_on_c, 0, 64, 77
1, 28288, Note_on_c, 0, 64, 0
1, 28288, Note_on_c, 0, 61, 66
1, 28288, Note_on_c, 0, 59, 0
1, 28288, Note_on_c, 0, 57, 75
1, 28352, Note_on_c, 0, 61, 0
1, 28352, Note_on_c, 0, 64, 83
1, 28416, Note_on_c, 0, 64, 0
1, 28416, Note_on_c, 0, 57, 0
1, 28416, Note_on_c, 0, 56, 81
1, 28416, Note_on_c, 0, 59, 81
1, 28480, Note_on_c, 0, 64, 69
1, 28480, Note_on_c, 0, 59, 0
1, 28544, Note_on_c, 0, 64, 0
1, 28544, Note_on_c, 0, 56, 0
1, 28544, Note_on_c, 0, 57, 79
1, 28608, Note_on_c, 0, 61, 65
1, 28672, Note_on_c, 0, 61, 0
1, 28672, Note_on_c, 0, 64, 80
1, 28736, Note_on_c, 0, 64, 0
1, 28736, Note_on_c, 0, 69, 89
1, 28800, Note_on_c, 0, 69, 0
1, 28800, Note_on_c, 0, 73, 88
1, 28800, Note_on_c, 0, 57, 0
1, 28864, Note_on_c, 0, 73, 0
1, 28864, Note_on_c, 0, 76, 86
1, 28928, Note_on_c, 0, 76, 0
1, 28928, Note_on_c, 0, 81, 86
1, 28928, Note_on_c, 0, 57, 67
1, 28928, Note_on_c, 0, 61, 67
1, 28992, Note_on_c, 0, 81, 0
1, 28992, Note_on_c, 0, 80, 75
1, 29056, Note_on_c, 0, 80, 0
1, 29056, Note_on_c, 0, 78, 74
1, 29056, Note_on_c, 0, 57, 0
1, 29056, Note_on_c, 0, 61, 0
1, 29056, Note_on_c, 0, 59, 76
1, 29056, Note_on_c, 0, 62, 76
1, 29120, Note_on_c, 0, 78, 0
1, 29120, Note_on_c, 0, 76, 65
1, 29184, Note_on_c, 0, 76, 0
1, 29184, Note_on_c, 0, 59, 0
1, 29184, Note_on_c, 0, 62, 0
1, 29184, Note_on_c, 0, 74, 71
1, 29184, Note_on_c, 0, 61, 81
1, 29184, Note_on_c, 0, 64, 81
1, 29248, Note_on_c, 0, 74, 0
1, 29248, Note_on_c, 0, 73, 72
1, 29312, Note_on_c, 0, 73, 0
1, 29312, Note_on_c, 0, 62, 61
1, 29312, Note_on_c, 0, 66, 61
1, 29312, Note_on_c, 0, 61, 0
1, 29312, Note_on_c, 0, 64, 0
1, 29376, Note_on_c, 0, 70, 88
1, 29440, Note_on_c, 0, 70, 0
1, 29440, Note_on_c, 0, 71, 79
1, 29504, Note_on_c, 0, 71, 0
1, 29504, Note_on_c, 0, 73, 79
1, 29568, Note_on_c, 0, 62, 0
1, 29568, Note_on_c, 0, 66, 0
1, 29568, Note_on_c, 0, 73, 0
1, 29568, Note_on_c, 0, 74, 80
1, 29632, Note_on_c, 0, 74, 0
1, 29632, Note_on_c, 0, 76, 79
1, 29696, Note_on_c, 0, 76, 0
1, 29696, Note_on_c, 0, 78, 76
1, 29696, Note_on_c, 0, 59, 69
1, 29696, Note_on_c, 0, 62, 69
1, 29760, Note_on_c, 0, 78, 0
1, 29760, Note_on_c, 0, 76, 74
1, 29824, Note_on_c, 0, 76, 0
1, 29824, Note_on_c, 0, 74, 73
1, 29824, Note_on_c, 0, 59, 0
1, 29824, Note_on_c, 0, 62, 0
1, 29824, Note_on_c, 0, 61, 84
1, 29824, Note_on_c, 0, 64, 84
1, 29888, Note_on_c, 0, 74, 0
1, 29888, Note_on_c, 0, 73, 71
1, 29952, Note_on_c, 0, 73, 0
1, 29952, Note_on_c, 0, 61, 0
1, 29952, Note_on_c, 0, 64, 0
1, 29952, Note_on_c, 0, 62, 65
1, 29952, Note_on_c, 0, 66, 65
1, 29952, Note_on_c, 0, 71, 65
1, 30016, Note_on_c, 0, 71, 0
1, 30016, Note_on_c, 0, 69, 67
1, 30080, Note_on_c, 0, 62, 0
1, 30080, Note_on_c, 0, 66, 0
1, 30080, Note_on_c, 0, 69, 0
1, 30080, Note_on_c, 0, 64, 65
1, 30080, Note_on_c, 0, 52, 74
1, 30144, Note_on_c, 0, 64, 0
1, 30144, Note_on_c, 0, 73, 90
1, 30208, Note_on_c, 0, 73, 0
1, 30208, Note_on_c, 0, 61, 70
1, 30208, Note_on_c, 0, 69, 70
1, 30208, Note_on_c, 0, 57, 81
1, 30272, Note_on_c, 0, 69, 0
1, 30272, Note_on_c, 0, 76, 87
1, 30336, Note_on_c, 0, 61, 0
1, 30336, Note_on_c, 0, 76, 0
1, 30336, Note_on_c, 0, 73, 74
1, 30336, Note_on_c, 0, 57, 0
1, 30336, Note_on_c, 0, 57, 84
1, 30336, Note_on_c, 0, 61, 84
1, 30400, Note_on_c, 0, 73, 0
1, 30400, Note_on_c, 0, 81, 93
1, 30464, Note_on_c, 0, 81, 0
1, 30464, Note_on_c, 0, 52, 0
1, 30464, Note_on_c, 0, 57, 0
1, 30464, Note_on_c, 0, 61, 0
1, 30464, Note_on_c, 0, 52, 70
1, 30528, Note_on_c, 0, 71, 74
1, 30592, Note_on_c, 0, 71, 0
1, 30592, Note_on_c, 0, 62, 75
1, 30592, Note_on_c, 0, 72, 75
1, 30592, Note_on_c, 0, 56, 73
1, 30634, Note_on_c, 0, 72, 0
1, 30634, Note_on_c, 0, 71, 74
1, 30677, Note_on_c, 0, 71, 0
1, 30677, Note_on_c, 0, 72, 77
1, 30720, Note_on_c, 0, 62, 0
1, 30720, Note_on_c, 0, 72, 0
1, 30720, Note_on_c, 0, 56, 0
1, 30720, Note_on_c, 0, 62, 73
1, 30720, Note_on_c, 0, 71, 73
1, 30720, Note_on_c, 0, 56, 75
1, 30762, Note_on_c, 0, 71, 0
1, 30762, Note_on_c, 0, 69, 79
1, 30762, Note_on_c, 0, 72, 79
1, 30805, Note_on_c, 0, 69, 0
1, 30805, Note_on_c, 0, 72, 0
1, 30805, Note_on_c, 0, 71, 71
1, 30848, Note_on_c, 0, 62, 0
1, 30848, Note_on_c, 0, 71, 0
1, 30848, Note_on_c, 0, 61, 76
1, 30848, Note_on_c, 0, 69, 76
1, 30848, Note_on_c, 0, 71, 76
1, 30848, Note_on_c, 0, 52, 0
1, 30848, Note_on_c, 0, 56, 0
1, 30848, Note_on_c, 0, 57, 78
1, 30879, Note_on_c, 0, 71, 0
1, 30976, Note_on_c, 0, 61, 0
1, 30976, Note_on_c, 0, 69, 0
1, 30976, Note_on_c, 0, 57, 0
1, 30976, Note_on_c, 0, 45, 67
1, 31104, Note_on_c, 0, 45, 0
1, 31104, Note_on_c, 0, 45, 81
1, 31104, Note_on_c, 0, 57, 81
1, 31232, Note_on_c, 0, 45, 0
1, 31232, Note_on_c, 0, 57, 0
1, 31232, Note_on_c, 0, 45, 74
1, 31232, Note_on_c, 0, 57, 74
1, 31359, Note_on_c, 0, 45, 0
1, 31359, Note_on_c, 0, 57, 0
1, 31488, Note_on_c, 0, 73, 67
1, 31616, Note_on_c, 0, 73, 0
1, 31616, Note_on_c, 0, 74, 80
1, 31872, Note_on_c, 0, 74, 0
1, 31872, Note_on_c, 0, 76, 80
1, 32000, Note_on_c, 0, 76, 0
1, 32000, Note_on_c, 0, 78, 84
1, 32128, Note_on_c, 0, 78, 0
1, 32128, Note_on_c, 0, 76, 70
1, 32192, Note_on_c, 0, 76, 0
1, 32192, Note_on_c, 0, 74, 70
1, 32256, Note_on_c, 0, 74, 0
1, 32256, Note_on_c, 0, 73, 73
1, 32320, Note_on_c, 0, 73, 0
1, 32320, Note_on_c, 0, 71, 69
1, 32384, Note_on_c, 0, 71, 0
1, 32384, Note_on_c, 0, 62, 71
1, 32384, Note_on_c, 0, 69, 71
1, 32384, Note_on_c, 0, 52, 69
1, 32384, Note_on_c, 0, 59, 69
1, 32768, Note_on_c, 0, 69, 0
1, 32768, Note_on_c, 0, 68, 70
1, 33024, Note_on_c, 0, 62, 0
1, 33024, Note_on_c, 0, 68, 0
1, 33024, Note_on_c, 0, 52, 0
1, 33024, Note_on_c, 0, 59, 0
1, 33024, Note_on_c, 0, 66, 74
1, 33024, Note_on_c, 0, 50, 80
1, 33024, Note_on_c, 0, 56, 80
1, 33152, Note_on_c, 0, 66, 0
1, 33152, Note_on_c, 0, 66, 74
1, 33152, Note_on_c, 0, 50, 0
1, 33152, Note_on_c, 0, 56, 0
1, 33152, Note_on_c, 0, 49, 76
1, 33152, Note_on_c, 0, 57, 76
1, 33280, Note_on_c, 0, 66, 0
1, 33280, Note_on_c, 0, 64, 70
1, 33408, Note_on_c, 0, 64, 0
1, 33408, Note_on_c, 0, 64, 74
1, 33408, Note_on_c, 0, 49, 0
1, 33408, Note_on_c, 0, 57, 0
1, 33471, Note_on_c, 0, 64, 0
1, 33536, Note_on_c, 0, 64, 74
1, 33664, Note_on_c, 0, 64, 0
1, 33664, Note_on_c, 0, 69, 89
1, 33664, Note_on_c, 0, 49, 69
1, 33792, Note_on_c, 0, 69, 0
1, 33792, Note_on_c, 0, 49, 0
1, 33792, Note_on_c, 0, 69, 82
1, 33792, Note_on_c, 0, 73, 82
1, 33792, Note_on_c, 0, 45, 71
1, 33920, Note_on_c, 0, 69, 0
1, 33920, Note_on_c, 0, 73, 0
1, 33920, Note_on_c, 0, 69, 79
1, 33920, Note_on_c, 0, 73, 79
1, 33920, Note_on_c, 0, 45, 0
1, 33920, Note_on_c, 0, 52, 81
1, 34176, Note_on_c, 0, 73, 0
1, 34176, Note_on_c, 0, 74, 76
1, 34304, Note_on_c, 0, 69, 0
1, 34304, Note_on_c, 0, 74, 0
1, 34304, Note_on_c, 0, 68, 70
1, 34304, Note_on_c, 0, 71, 70
1, 34431, Note_on_c, 0, 68, 0
1, 34431, Note_on_c, 0, 71, 0
1, 34560, Note_on_c, 0, 52, 0
1, 34560, Note_on_c, 0, 73, 81
1, 34688, Note_on_c, 0, 73, 0
1, 34688, Note_on_c, 0, 74, 80
1, 34816, Note_on_c, 0, 74, 0
1, 34816, Note_on_c, 0, 74, 79
1, 34880, Note_on_c, 0, 74, 0
1, 34880, Note_on_c, 0, 73, 69
1, 34944, Note_on_c, 0, 73, 0
1, 34944, Note_on_c, 0, 76, 82
1, 35008, Note_on_c, 0, 76, 0
1, 35008, Note_on_c, 0, 74, 74
1, 35072, Note_on_c, 0, 74, 0
1, 35072, Note_on_c, 0, 78, 83
1, 35136, Note_on_c, 0, 78, 0
1, 35136, Note_on_c, 0, 76, 74
1, 35200, Note_on_c, 0, 76, 0
1, 35200, Note_on_c, 0, 74, 69
1, 35264, Note_on_c, 0, 74, 0
1, 35264, Note_on_c, 0, 73, 78
1, 35328, Note_on_c, 0, 73, 0
1, 35328, Note_on_c, 0, 74, 79
1, 35392, Note_on_c, 0, 74, 0
1, 35392, Note_on_c, 0, 71, 67
1, 35456, Note_on_c, 0, 71, 0
1, 35456, Note_on_c, 0, 62, 70
1, 35456, Note_on_c, 0, 69, 70
1, 35456, Note_on_c, 0, 52, 70
1, 35456, Note_on_c, 0, 59, 70
1, 35520, Note_on_c, 0, 69, 0
1, 35520, Note_on_c, 0, 68, 75
1, 35584, Note_on_c, 0, 68, 0
1, 35584, Note_on_c, 0, 71, 77
1, 35648, Note_on_c, 0, 71, 0
1, 35648, Note_on_c, 0, 69, 71
1, 35712, Note_on_c, 0, 69, 0
1, 35712, Note_on_c, 0, 73, 87
1, 35776, Note_on_c, 0, 73, 0
1, 35776, Note_on_c, 0, 71, 73
1, 35840, Note_on_c, 0, 71, 0
1, 35840, Note_on_c, 0, 74, 78
1, 35904, Note_on_c, 0, 74, 0
1, 35904, Note_on_c, 0, 73, 74
1, 35968, Note_on_c, 0, 73, 0
1, 35968, Note_on_c, 0, 76, 81
1, 36032, Note_on_c, 0, 76, 0
1, 36032, Note_on_c, 0, 74, 69
1, 36096, Note_on_c, 0, 62, 0
1, 36096, Note_on_c, 0, 74, 0
1, 36096, Note_on_c, 0, 52, 0
1, 36096, Note_on_c, 0, 59, 0
1, 36096, Note_on_c, 0, 78, 82
1, 36096, Note_on_c, 0, 62, 97
1, 36096, Note_on_c, 0, 68, 97
1, 36160, Note_on_c, 0, 78, 0
1, 36160, Note_on_c, 0, 76, 68
1, 36224, Note_on_c, 0, 76, 0
1, 36224, Note_on_c, 0, 69, 74
1, 36224, Note_on_c, 0, 76, 74
1, 36224, Note_on_c, 0, 62, 0
1, 36224, Note_on_c, 0, 68, 0
1, 36224, Note_on_c, 0, 61, 66
1, 36288, Note_on_c, 0, 76, 0
1, 36288, Note_on_c, 0, 81, 86
1, 36352, Note_on_c, 0, 69, 0
1, 36352, Note_on_c, 0, 81, 0
1, 36352, Note_on_c, 0, 80, 71
1, 36352, Note_on_c, 0, 61, 0
1, 36416, Note_on_c, 0, 80, 0
1, 36416, Note_on_c, 0, 79, 68
1, 36480, Note_on_c, 0, 79, 0
1, 36480, Note_on_c, 0, 78, 72
1, 36480, Note_on_c, 0, 62, 65
1, 36480, Note_on_c, 0, 69, 65
1, 36544, Note_on_c, 0, 78, 0
1, 36544, Note_on_c, 0, 77, 69
1, 36608, Note_on_c, 0, 77, 0
1, 36608, Note_on_c, 0, 69, 73
1, 36608, Note_on_c, 0, 76, 73
1, 36608, Note_on_c, 0, 62, 0
1, 36608, Note_on_c, 0, 69, 0
1, 36608, Note_on_c, 0, 61, 59
1, 36672, Note_on_c, 0, 76, 0
1, 36672, Note_on_c, 0, 81, 88
1, 36736, Note_on_c, 0, 69, 0
1, 36736, Note_on_c, 0, 81, 0
1, 36736, Note_on_c, 0, 80, 72
1, 36736, Note_on_c, 0, 61, 0
1, 36800, Note_on_c, 0, 80, 0
1, 36800, Note_on_c, 0, 79, 73
1, 36864, Note_on_c, 0, 79, 0
1, 36864, Note_on_c, 0, 78, 70
1, 36864, Note_on_c, 0, 62, 70
1, 36864, Note_on_c, 0, 69, 70
1, 36928, Note_on_c, 0, 78, 0
1, 36928, Note_on_c, 0, 77, 73
1, 36992, Note_on_c, 0, 77, 0
1, 36992, Note_on_c, 0, 69, 71
1, 36992, Note_on_c, 0, 76, 71
1, 36992, Note_on_c, 0, 62, 0
1, 36992, Note_on_c, 0, 69, 0
1, 36992, Note_on_c, 0, 61, 57
1, 37376, Note_on_c, 0, 69, 0
1, 37376, Note_on_c, 0, 76, 0
1, 37376, Note_on_c, 0, 71, 79
1, 37376, Note_on_c, 0, 77, 79
1, 37376, Note_on_c, 0, 68, 85
1, 37760, Note_on_c, 0, 71, 0
1, 37760, Note_on_c, 0, 77, 0
1, 37760, Note_on_c, 0, 78, 86
1, 37760, Note_on_c, 0, 68, 0
1, 37760, Note_on_c, 0, 62, 79
1, 37760, Note_on_c, 0, 66, 79
1, 37760, Note_on_c, 0, 69, 79
1, 38016, Note_on_c, 0, 78, 0
1, 38016, Note_on_c, 0, 78, 78
1, 38016, Note_on_c, 0, 62, 0
1, 38016, Note_on_c, 0, 66, 0
1, 38016, Note_on_c, 0, 69, 0
1, 38080, Note_on_c, 0, 78, 0
1, 38080, Note_on_c, 0, 80, 76
1, 38144, Note_on_c, 0, 80, 0
1, 38144, Note_on_c, 0, 81, 79
1, 38208, Note_on_c, 0, 81, 0
1, 38208, Note_on_c, 0, 77, 64
1, 38272, Note_on_c, 0, 77, 0
1, 38272, Note_on_c, 0, 78, 77
1, 38336, Note_on_c, 0, 78, 0
1, 38336, Note_on_c, 0, 73, 65
1, 38400, Note_on_c, 0, 73, 0
1, 38400, Note_on_c, 0, 74, 75
1, 38464, Note_on_c, 0, 74, 0
1, 38464, Note_on_c, 0, 71, 65
1, 38528, Note_on_c, 0, 71, 0
1, 38528, Note_on_c, 0, 69, 73
1, 38784, Note_on_c, 0, 61, 75
1, 38784, Note_on_c, 0, 61, 0
1, 38784, Note_on_c, 0, 52, 67
1, 38912, Note_on_c, 0, 61, 0
1, 38912, Note_on_c, 0, 62, 78
1, 38912, Note_on_c, 0, 52, 0
1, 38912, Note_on_c, 0, 53, 73
1, 39168, Note_on_c, 0, 62, 0
1, 39168, Note_on_c, 0, 53, 0
1, 39168, Note_on_c, 0, 63, 73
1, 39168, Note_on_c, 0, 54, 79
1, 39296, Note_on_c, 0, 63, 0
1, 39296, Note_on_c, 0, 69, 0
1, 39296, Note_on_c, 0, 64, 84
1, 39296, Note_on_c, 0, 69, 84
1, 39296, Note_on_c, 0, 73, 84
1, 39296, Note_on_c, 0, 54, 0
1, 39296, Note_on_c, 0, 52, 73
1, 39680, Note_on_c, 0, 64, 0
1, 39680, Note_on_c, 0, 69, 0
1, 39680, Note_on_c, 0, 73, 0
1, 39680, Note_on_c, 0, 62, 81
1, 39680, Note_on_c, 0, 68, 81
1, 39680, Note_on_c, 0, 71, 81
1, 39680, Note_on_c, 0, 73, 81
1, 39744, Note_on_c, 0, 73, 0
1, 39775, Note_on_c, 0, 71, 0
1, 39808, Note_on_c, 0, 69, 77
1, 39920, Note_on_c, 0, 62, 0
1, 39920, Note_on_c, 0, 68, 0
1, 39920, Note_on_c, 0, 69, 0
1, 39936, Note_on_c, 0, 71, 75
1, 39999, Note_on_c, 0, 71, 0
1, 40064, Note_on_c, 0, 69, 71
1, 40064, Note_on_c, 0, 52, 0
1, 40064, Note_on_c, 0, 57, 82
1, 40192, Note_on_c, 0, 69, 0
1, 40192, Note_on_c, 0, 61, 60
1, 40192, Note_on_c, 0, 57, 0
1, 40320, Note_on_c, 0, 61, 0
1, 40320, Note_on_c, 0, 64, 95
1, 40320, Note_on_c, 0, 75, 95
1, 40384, Note_on_c, 0, 75, 0
1, 40384, Note_on_c, 0, 76, 82
1, 40448, Note_on_c, 0, 64, 0
1, 40448, Note_on_c, 0, 76, 0
1, 40448, Note_on_c, 0, 78, 78
1, 40448, Note_on_c, 0, 57, 69
1, 40512, Note_on_c, 0, 78, 0
1, 40512, Note_on_c, 0, 76, 75
1, 40576, Note_on_c, 0, 76, 0
1, 40576, Note_on_c, 0, 74, 68
1, 40576, Note_on_c, 0, 57, 0
1, 40576, Note_on_c, 0, 61, 79
1, 40640, Note_on_c, 0, 74, 0
1, 40640, Note_on_c, 0, 73, 72
1, 40704, Note_on_c, 0, 73, 0
1, 40704, Note_on_c, 0, 61, 0
1, 40704, Note_on_c, 0, 64, 68
1, 40704, Note_on_c, 0, 71, 68
1, 40768, Note_on_c, 0, 71, 0
1, 40768, Note_on_c, 0, 69, 69
1, 40832, Note_on_c, 0, 64, 0
1, 40832, Note_on_c, 0, 69, 0
1, 40832, Note_on_c, 0, 68, 71
1, 40832, Note_on_c, 0, 52, 65
1, 40896, Note_on_c, 0, 68, 0
1, 40896, Note_on_c, 0, 69, 79
1, 40960, Note_on_c, 0, 69, 0
1, 40960, Note_on_c, 0, 71, 78
1, 40960, Note_on_c, 0, 52, 0
1, 40960, Note_on_c, 0, 56, 79
1, 41024, Note_on_c, 0, 71, 0
1, 41024, Note_on_c, 0, 73, 82
1, 41088, Note_on_c, 0, 73, 0
1, 41088, Note_on_c, 0, 74, 75
1, 41088, Note_on_c, 0, 56, 0
1, 41088, Note_on_c, 0, 59, 77
1, 41152, Note_on_c, 0, 74, 0
1, 41152, Note_on_c, 0, 76, 82
1, 41216, Note_on_c, 0, 76, 0
1, 41216, Note_on_c, 0, 78, 82
1, 41216, Note_on_c, 0, 59, 0
1, 41216, Note_on_c, 0, 52, 72
1, 41280, Note_on_c, 0, 78, 0
1, 41280, Note_on_c, 0, 80, 79
1, 41344, Note_on_c, 0, 80, 0
1, 41344, Note_on_c, 0, 81, 78
1, 41344, Note_on_c, 0, 52, 0
1, 41344, Note_on_c, 0, 56, 81
1, 41408, Note_on_c, 0, 81, 0
1, 41408, Note_on_c, 0, 83, 82
1, 41472, Note_on_c, 0, 83, 0
1, 41472, Note_on_c, 0, 56, 0
1, 41472, Note_on_c, 0, 85, 80
1, 41472, Note_on_c, 0, 59, 82
1, 41536, Note_on_c, 0, 85, 0
1, 41536, Note_on_c, 0, 86, 80
1, 41536, Note_on_c, 0, 59, 0
1, 41600, Note_on_c, 0, 86, 0
1, 41600, Note_on_c, 0, 85, 71
1, 41600, Note_on_c, 0, 57, 72
1, 41728, Note_on_c, 0, 85, 0
1, 41728, Note_on_c, 0, 57, 0
1, 41728, Note_on_c, 0, 61, 79
1, 41856, Note_on_c, 0, 64, 63
1, 41856, Note_on_c, 0, 75, 63
1, 41856, Note_on_c, 0, 61, 0
1, 41920, Note_on_c, 0, 75, 0
1, 41920, Note_on_c, 0, 76, 77
1, 41984, Note_on_c, 0, 64, 0
1, 41984, Note_on_c, 0, 76, 0
1, 41984, Note_on_c, 0, 78, 81
1, 41984, Note_on_c, 0, 57, 67
1, 42048, Note_on_c, 0, 78, 0
1, 42048, Note_on_c, 0, 76, 67
1, 42112, Note_on_c, 0, 76, 0
1, 42112, Note_on_c, 0, 74, 68
1, 42112, Note_on_c, 0, 57, 0
1, 42112, Note_on_c, 0, 61, 82
1, 42176, Note_on_c, 0, 74, 0
1, 42176, Note_on_c, 0, 73, 73
1, 42240, Note_on_c, 0, 73, 0
1, 42240, Note_on_c, 0, 61, 0
1, 42240, Note_on_c, 0, 64, 69
1, 42240, Note_on_c, 0, 71, 69
1, 42304, Note_on_c, 0, 71, 0
1, 42304, Note_on_c, 0, 69, 73
1, 42368, Note_on_c, 0, 64, 0
1, 42368, Note_on_c, 0, 69, 0
1, 42368, Note_on_c, 0, 68, 68
1, 42368, Note_on_c, 0, 52, 70
1, 42432, Note_on_c, 0, 68, 0
1, 42432, Note_on_c, 0, 66, 68
1, 42496, Note_on_c, 0, 66, 0
1, 42496, Note_on_c, 0, 64, 67
1, 42496, Note_on_c, 0, 52, 0
1, 42496, Note_on_c, 0, 59, 80
1, 42560, Note_on_c, 0, 64, 0
1, 42560, Note_on_c, 0, 66, 85
1, 42624, Note_on_c, 0, 66, 0
1, 42624, Note_on_c, 0, 62, 85
1, 42624, Note_on_c, 0, 68, 85
1, 42624, Note_on_c, 0, 59, 0
1, 42688, Note_on_c, 0, 68, 0
1, 42688, Note_on_c, 0, 69, 76
1, 42752, Note_on_c, 0, 62, 0
1, 42752, Note_on_c, 0, 69, 0
1, 42752, Note_on_c, 0, 71, 84
1, 42752, Note_on_c, 0, 52, 65
1, 42816, Note_on_c, 0, 71, 0
1, 42816, Note_on_c, 0, 73, 82
1, 42880, Note_on_c, 0, 73, 0
1, 42880, Note_on_c, 0, 74, 79
1, 42880, Note_on_c, 0, 52, 0
1, 42880, Note_on_c, 0, 59, 78
1, 42944, Note_on_c, 0, 74, 0
1, 42944, Note_on_c, 0, 76, 84
1, 43008, Note_on_c, 0, 76, 0
1, 43008, Note_on_c, 0, 59, 0
1, 43008, Note_on_c, 0, 78, 86
1, 43008, Note_on_c, 0, 62, 78
1, 43072, Note_on_c, 0, 78, 0
1, 43072, Note_on_c, 0, 80, 79
1, 43072, Note_on_c, 0, 62, 0
1, 43136, Note_on_c, 0, 80, 0
1, 43136, Note_on_c, 0, 81, 76
1, 43136, Note_on_c, 0, 57, 68
1, 43136, Note_on_c, 0, 61, 68
1, 43264, Note_on_c, 0, 81, 0
1, 43264, Note_on_c, 0, 76, 67
1, 43392, Note_on_c, 0, 76, 0
1, 43392, Note_on_c, 0, 85, 86
1, 43392, Note_on_c, 0, 61, 0
1, 43392, Note_on_c, 0, 64, 86
1, 43520, Note_on_c, 0, 85, 0
1, 43520, Note_on_c, 0, 81, 70
1, 43520, Note_on_c, 0, 57, 0
1, 43520, Note_on_c, 0, 64, 0
1, 43520, Note_on_c, 0, 57, 70
1, 43520, Note_on_c, 0, 61, 70
1, 43648, Note_on_c, 0, 81, 0
1, 43648, Note_on_c, 0, 76, 66
1, 43776, Note_on_c, 0, 76, 0
1, 43776, Note_on_c, 0, 61, 0
1, 43776, Note_on_c, 0, 85, 92
1, 43776, Note_on_c, 0, 64, 82
1, 43904, Note_on_c, 0, 85, 0
1, 43904, Note_on_c, 0, 81, 66
1, 43904, Note_on_c, 0, 57, 0
1, 43904, Note_on_c, 0, 64, 0
1, 43904, Note_on_c, 0, 57, 74
1, 43904, Note_on_c, 0, 61, 74
1, 44096, Note_on_c, 0, 81, 0
1, 44096, Note_on_c, 0, 57, 0
1, 44096, Note_on_c, 0, 61, 0
1, 44672, Note_on_c, 0, 45, 78
1, 44672, Note_on_c, 0, 57, 78
1, 44800, Note_on_c, 0, 62, 66
1, 44800, Note_on_c, 0, 45, 0
1, 44800, Note_on_c, 0, 57, 0
1, 44800, Note_on_c, 0, 50, 71
1, 44928, Note_on_c, 0, 62, 0
1, 44928, Note_on_c, 0, 50, 0
1, 44928, Note_on_c, 0, 45, 79
1, 44928, Note_on_c, 0, 57, 79
1, 45056, Note_on_c, 0, 62, 66
1, 45056, Note_on_c, 0, 45, 0
1, 45056, Note_on_c, 0, 57, 0
1, 45056, Note_on_c, 0, 50, 67
1, 45184, Note_on_c, 0, 62, 0
1, 45184, Note_on_c, 0, 66, 88
1, 45184, Note_on_c, 0, 50, 0
1, 45184, Note_on_c, 0, 54, 81
1, 45312, Note_on_c, 0, 66, 0
1, 45312, Note_on_c, 0, 54, 0
1, 45312, Note_on_c, 0, 62, 75
1, 45312, Note_on_c, 0, 50, 73
1, 45440, Note_on_c, 0, 62, 0
1, 45440, Note_on_c, 0, 66, 83
1, 45440, Note_on_c, 0, 50, 0
1, 45440, Note_on_c, 0, 54, 79
1, 45568, Note_on_c, 0, 66, 0
1, 45568, Note_on_c, 0, 69, 86
1, 45568, Note_on_c, 0, 54, 0
1, 45568, Note_on_c, 0, 57, 84
1, 45824, Note_on_c, 0, 69, 0
1, 45824, Note_on_c, 0, 69, 73
1, 45824, Note_on_c, 0, 57, 0
1, 45824, Note_on_c, 0, 57, 75
1, 45952, Note_on_c, 0, 69, 0
1, 45952, Note_on_c, 0, 69, 75
1, 45952, Note_on_c, 0, 57, 0
1, 45952, Note_on_c, 0, 57, 76
1, 46208, Note_on_c, 0, 69, 0
1, 46208, Note_on_c, 0, 67, 92
1, 46208, Note_on_c, 0, 73, 92
1, 46208, Note_on_c, 0, 74, 92
1, 46208, Note_on_c, 0, 57, 0
1, 46250, Note_on_c, 0, 73, 0
1, 46250, Note_on_c, 0, 74, 0
1, 46250, Note_on_c, 0, 73, 75
1, 46293, Note_on_c, 0, 73, 0
1, 46293, Note_on_c, 0, 71, 73
1, 46293, Note_on_c, 0, 73, 73
1, 46336, Note_on_c, 0, 67, 0
1, 46336, Note_on_c, 0, 71, 0
1, 46336, Note_on_c, 0, 73, 0
1, 46336, Note_on_c, 0, 66, 82
1, 46336, Note_on_c, 0, 74, 82
1, 46527, Note_on_c, 0, 66, 0
1, 46527, Note_on_c, 0, 74, 0
1, 46592, Note_on_c, 0, 76, 87
1, 46592, Note_on_c, 0, 78, 87
1, 46592, Note_on_c, 0, 61, 69
1, 46634, Note_on_c, 0, 76, 0
1, 46634, Note_on_c, 0, 78, 0
1, 46634, Note_on_c, 0, 76, 68
1, 46677, Note_on_c, 0, 76, 0
1, 46677, Note_on_c, 0, 74, 76
1, 46677, Note_on_c, 0, 76, 76
1, 46720, Note_on_c, 0, 74, 0
1, 46720, Note_on_c, 0, 76, 0
1, 46720, Note_on_c, 0, 78, 77
1, 46720, Note_on_c, 0, 61, 0
1, 46720, Note_on_c, 0, 62, 82
1, 46848, Note_on_c, 0, 78, 0
1, 46848, Note_on_c, 0, 62, 0
1, 46976, Note_on_c, 0, 81, 66
1, 46976, Note_on_c, 0, 55, 74
1, 46976, Note_on_c, 0, 64, 74
1, 47040, Note_on_c, 0, 81, 0
1, 47040, Note_on_c, 0, 79, 73
1, 47104, Note_on_c, 0, 79, 0
1, 47104, Note_on_c, 0, 78, 68
1, 47104, Note_on_c, 0, 55, 0
1, 47104, Note_on_c, 0, 64, 0
1, 47104, Note_on_c, 0, 57, 73
1, 47104, Note_on_c, 0, 62, 73
1, 47488, Note_on_c, 0, 78, 0
1, 47488, Note_on_c, 0, 76, 73
1, 47488, Note_on_c, 0, 57, 0
1, 47488, Note_on_c, 0, 62, 0
1, 47488, Note_on_c, 0, 61, 74
1, 47616, Note_on_c, 0, 76, 0
1, 47616, Note_on_c, 0, 61, 0
1, 47744, Note_on_c, 0, 47, 67
1, 47744, Note_on_c, 0, 59, 67
1, 47872, Note_on_c, 0, 64, 72
1, 47872, Note_on_c, 0, 47, 0
1, 47872, Note_on_c, 0, 59, 0
1, 47872, Note_on_c, 0, 52, 72
1, 48000, Note_on_c, 0, 64, 0
1, 48000, Note_on_c, 0, 52, 0
1, 48000, Note_on_c, 0, 47, 80
1, 48000, Note_on_c, 0, 59, 80
1, 48128, Note_on_c, 0, 64, 67
1, 48128, Note_on_c, 0, 47, 0
1, 48128, Note_on_c, 0, 59, 0
1, 48128, Note_on_c, 0, 52, 69
1, 48256, Note_on_c, 0, 64, 0
1, 48256, Note_on_c, 0, 67, 78
1, 48256, Note_on_c, 0, 52, 0
1, 48256, Note_on_c, 0, 55, 78
1, 48384, Note_on_c, 0, 67, 0
1, 48384, Note_on_c, 0, 55, 0
1, 48384, Note_on_c, 0, 64, 76
1, 48384, Note_on_c, 0, 52, 72
1, 48512, Note_on_c, 0, 64, 0
1, 48512, Note_on_c, 0, 67, 79
1, 48512, Note_on_c, 0, 52, 0
1, 48512, Note_on_c, 0, 55, 78
1, 48640, Note_on_c, 0, 67, 0
1, 48640, Note_on_c, 0, 71, 81
1, 48640, Note_on_c, 0, 55, 0
1, 48640, Note_on_c, 0, 59, 85
1, 48896, Note_on_c, 0, 71, 0
1, 48896, Note_on_c, 0, 71, 70
1, 48896, Note_on_c, 0, 59, 0
1, 48896, Note_on_c, 0, 59, 79
1, 49024, Note_on_c, 0, 71, 0
1, 49024, Note_on_c, 0, 71, 77
1, 49024, Note_on_c, 0, 59, 0
1, 49024, Note_on_c, 0, 59, 78
1, 49280, Note_on_c, 0, 71, 0
1, 49280, Note_on_c, 0, 66, 81
1, 49280, Note_on_c, 0, 69, 81
1, 49280, Note_on_c, 0, 75, 81
1, 49280, Note_on_c, 0, 59, 0
1, 49408, Note_on_c, 0, 66, 0
1, 49408, Note_on_c, 0, 69, 0
1, 49408, Note_on_c, 0, 75, 0
1, 49408, Note_on_c, 0, 67, 78
1, 49408, Note_on_c, 0, 71, 78
1, 49408, Note_on_c, 0, 78, 78
1, 49472, Note_on_c, 0, 78, 0
1, 49472, Note_on_c, 0, 76, 74
1, 49536, Note_on_c, 0, 76, 0
1, 49536, Note_on_c, 0, 79, 82
1, 49600, Note_on_c, 0, 79, 0
1, 49600, Note_on_c, 0, 78, 73
1, 49664, Note_on_c, 0, 67, 0
1, 49664, Note_on_c, 0, 71, 0
1, 49664, Note_on_c, 0, 78, 0
1, 49664, Note_on_c, 0, 81, 82
1, 49728, Note_on_c, 0, 81, 0
1, 49728, Note_on_c, 0, 79, 68
1, 49792, Note_on_c, 0, 79, 0
1, 49792, Note_on_c, 0, 83, 81
1, 49920, Note_on_c, 0, 83, 0
1, 50048, Note_on_c, 0, 73, 61
1, 50048, Note_on_c, 0, 57, 68
1, 50048, Note_on_c, 0, 64, 68
1, 50176, Note_on_c, 0, 73, 0
1, 50176, Note_on_c, 0, 76, 80
1, 50176, Note_on_c, 0, 57, 0
1, 50176, Note_on_c, 0, 64, 0
1, 50176, Note_on_c, 0, 62, 83
1, 50176, Note_on_c, 0, 67, 83
1, 50560, Note_on_c, 0, 76, 0
1, 50560, Note_on_c, 0, 66, 75
1, 50560, Note_on_c, 0, 74, 75
1, 50560, Note_on_c, 0, 62, 0
1, 50560, Note_on_c, 0, 67, 0
1, 50688, Note_on_c, 0, 66, 0
1, 50688, Note_on_c, 0, 74, 0
1, 50816, Note_on_c, 0, 45, 65
1, 50944, Note_on_c, 0, 45, 0
1, 50944, Note_on_c, 0, 50, 77
1, 51072, Note_on_c, 0, 74, 71
1, 51072, Note_on_c, 0, 50, 0
1, 51072, Note_on_c, 0, 45, 67
1, 51200, Note_on_c, 0, 74, 0
1, 51200, Note_on_c, 0, 78, 82
1, 51200, Note_on_c, 0, 45, 0
1, 51200, Note_on_c, 0, 50, 77
1, 51328, Note_on_c, 0, 78, 0
1, 51328, Note_on_c, 0, 81, 87
1, 51328, Note_on_c, 0, 50, 0
1, 51328, Note_on_c, 0, 54, 84
1, 51456, Note_on_c, 0, 81, 0
1, 51456, Note_on_c, 0, 54, 0
1, 51456, Note_on_c, 0, 78, 67
1, 51456, Note_on_c, 0, 50, 70
1, 51584, Note_on_c, 0, 78, 0
1, 51584, Note_on_c, 0, 86, 99
1, 51584, Note_on_c, 0, 50, 0
1, 51584, Note_on_c, 0, 54, 92
1, 51696, Note_on_c, 0, 86, 0
1, 51696, Note_on_c, 0, 54, 0
1, 51712, Note_on_c, 0, 57, 77
1, 51776, Note_on_c, 0, 85, 69
1, 51840, Note_on_c, 0, 85, 0
1, 51840, Note_on_c, 0, 88, 82
1, 51904, Note_on_c, 0, 88, 0
1, 51904, Note_on_c, 0, 86, 70
1, 51968, Note_on_c, 0, 86, 0
1, 51968, Note_on_c, 0, 85, 75
1, 51968, Note_on_c, 0, 57, 0
1, 51968, Note_on_c, 0, 57, 71
1, 52032, Note_on_c, 0, 85, 0
1, 52032, Note_on_c, 0, 83, 70
1, 52096, Note_on_c, 0, 83, 0
1, 52096, Note_on_c, 0, 81, 70
1, 52096, Note_on_c, 0, 57, 0
1, 52096, Note_on_c, 0, 57, 75
1, 52160, Note_on_c, 0, 81, 0
1, 52160, Note_on_c, 0, 83, 79
1, 52224, Note_on_c, 0, 83, 0
1, 52224, Note_on_c, 0, 81, 70
1, 52288, Note_on_c, 0, 81, 0
1, 52288, Note_on_c, 0, 79, 70
1, 52352, Note_on_c, 0, 79, 0
1, 52352, Note_on_c, 0, 78, 72
1, 52352, Note_on_c, 0, 57, 0
1, 52352, Note_on_c, 0, 61, 80
1, 52416, Note_on_c, 0, 78, 0
1, 52416, Note_on_c, 0, 76, 69
1, 52480, Note_on_c, 0, 76, 0
1, 52480, Note_on_c, 0, 78, 78
1, 52480, Note_on_c, 0, 61, 0
1, 52480, Note_on_c, 0, 62, 81
1, 52544, Note_on_c, 0, 78, 0
1, 52544, Note_on_c, 0, 81, 82
1, 52544, Note_on_c, 0, 62, 0
1, 52608, Note_on_c, 0, 81, 0
1, 52608, Note_on_c, 0, 78, 73
1, 52672, Note_on_c, 0, 78, 0
1, 52672, Note_on_c, 0, 74, 69
1, 52736, Note_on_c, 0, 74, 0
1, 52736, Note_on_c, 0, 64, 75
1, 52736, Note_on_c, 0, 73, 75
1, 52800, Note_on_c, 0, 73, 0
1, 52800, Note_on_c, 0, 69, 67
1, 52864, Note_on_c, 0, 64, 0
1, 52864, Note_on_c, 0, 69, 0
1, 52864, Note_on_c, 0, 66, 85
1, 52864, Note_on_c, 0, 74, 85
1, 52928, Note_on_c, 0, 66, 0
1, 52928, Note_on_c, 0, 74, 0
1, 52928, Note_on_c, 0, 73, 74
1, 52992, Note_on_c, 0, 73, 0
1, 52992, Note_on_c, 0, 74, 75
1, 53056, Note_on_c, 0, 74, 0
1, 53056, Note_on_c, 0, 78, 81
1, 53120, Note_on_c, 0, 78, 0
1, 53120, Note_on_c, 0, 67, 71
1, 53120, Note_on_c, 0, 76, 71
1, 53184, Note_on_c, 0, 76, 0
1, 53184, Note_on_c, 0, 79, 81
1, 53248, Note_on_c, 0, 67, 0
1, 53248, Note_on_c, 0, 79, 0
1, 53248, Note_on_c, 0, 66, 69
1, 53248, Note_on_c, 0, 74, 69
1, 53248, Note_on_c, 0, 57, 69
1, 53601, Note_on_c, 0, 57, 0
1, 53632, Note_on_c, 0, 66, 0
1, 53632, Note_on_c, 0, 74, 0
1, 53632, Note_on_c, 0, 73, 76
1, 53632, Note_on_c, 0, 64, 94
1, 53760, Note_on_c, 0, 73, 0
1, 53760, Note_on_c, 0, 64, 0
1, 53888, Note_on_c, 0, 47, 67
1, 54016, Note_on_c, 0, 47, 0
1, 54016, Note_on_c, 0, 52, 76
1, 54144, Note_on_c, 0, 76, 68
1, 54144, Note_on_c, 0, 52, 0
1, 54144, Note_on_c, 0, 47, 69
1, 54272, Note_on_c, 0, 76, 0
1, 54272, Note_on_c, 0, 79, 81
1, 54272, Note_on_c, 0, 47, 0
1, 54272, Note_on_c, 0, 52, 82
1, 54400, Note_on_c, 0, 79, 0
1, 54400, Note_on_c, 0, 83, 86
1, 54400, Note_on_c, 0, 52, 0
1, 54400, Note_on_c, 0, 55, 84
1, 54528, Note_on_c, 0, 83, 0
1, 54528, Note_on_c, 0, 55, 0
1, 54528, Note_on_c, 0, 79, 64
1, 54528, Note_on_c, 0, 52, 73
1, 54656, Note_on_c, 0, 79, 0
1, 54656, Note_on_c, 0, 88, 102
1, 54656, Note_on_c, 0, 52, 0
1, 54656, Note_on_c, 0, 55, 92
1, 54768, Note_on_c, 0, 88, 0
1, 54768, Note_on_c, 0, 55, 0
1, 54784, Note_on_c, 0, 59, 83
1, 54848, Note_on_c, 0, 87, 67
1, 54912, Note_on_c, 0, 87, 0
1, 54912, Note_on_c, 0, 84, 64
1, 54976, Note_on_c, 0, 84, 0
1, 54976, Note_on_c, 0, 83, 72
1, 55040, Note_on_c, 0, 83, 0
1, 55040, Note_on_c, 0, 81, 67
1, 55040, Note_on_c, 0, 59, 0
1, 55040, Note_on_c, 0, 59, 73
1, 55104, Note_on_c, 0, 81, 0
1, 55104, Note_on_c, 0, 79, 73
1, 55168, Note_on_c, 0, 79, 0
1, 55168, Note_on_c, 0, 78, 74
1, 55168, Note_on_c, 0, 59, 0
1, 55168, Note_on_c, 0, 59, 77
1, 55232, Note_on_c, 0, 78, 0
1, 55232, Note_on_c, 0, 76, 73
1, 55296, Note_on_c, 0, 76, 0
1, 55296, Note_on_c, 0, 75, 71
1, 55360, Note_on_c, 0, 75, 0
1, 55360, Note_on_c, 0, 72, 67
1, 55424, Note_on_c, 0, 72, 0
1, 55424, Note_on_c, 0, 63, 69
1, 55424, Note_on_c, 0, 71, 69
1, 55424, Note_on_c, 0, 59, 0
1, 55488, Note_on_c, 0, 71, 0
1, 55488, Note_on_c, 0, 69, 70
1, 55552, Note_on_c, 0, 63, 0
1, 55552, Note_on_c, 0, 69, 0
1, 55552, Note_on_c, 0, 64, 70
1, 55552, Note_on_c, 0, 67, 70
1, 55616, Note_on_c, 0, 67, 0
1, 55616, Note_on_c, 0, 71, 82
1, 55680, Note_on_c, 0, 71, 0
1, 55680, Note_on_c, 0, 76, 87
1, 55744, Note_on_c, 0, 64, 0
1, 55744, Note_on_c, 0, 76, 0
1, 55744, Note_on_c, 0, 71, 67
1, 55808, Note_on_c, 0, 71, 0
1, 55808, Note_on_c, 0, 79, 88
1, 55872, Note_on_c, 0, 79, 0
1, 55872, Note_on_c, 0, 76, 75
1, 55936, Note_on_c, 0, 76, 0
1, 55936, Note_on_c, 0, 83, 88
1, 56064, Note_on_c, 0, 83, 0
1, 56064, Note_on_c, 0, 71, 60
1, 56192, Note_on_c, 0, 71, 0
1, 56192, Note_on_c, 0, 67, 74
1, 56192, Note_on_c, 0, 73, 74
1, 56192, Note_on_c, 0, 57, 66
1, 56320, Note_on_c, 0, 67, 0
1, 56320, Note_on_c, 0, 73, 0
1, 56320, Note_on_c, 0, 62, 82
1, 56320, Note_on_c, 0, 74, 82
1, 56320, Note_on_c, 0, 57, 0
1, 56448, Note_on_c, 0, 62, 0
1, 56448, Note_on_c, 0, 66, 77
1, 56576, Note_on_c, 0, 66, 0
1, 56576, Note_on_c, 0, 74, 0
1, 56576, Note_on_c, 0, 69, 60
1, 56704, Note_on_c, 0, 69, 0
1, 56704, Note_on_c, 0, 62, 63
1, 56832, Note_on_c, 0, 62, 0
1, 56832, Note_on_c, 0, 86, 94
1, 56832, Note_on_c, 0, 66, 65
1, 56896, Note_on_c, 0, 86, 0
1, 56896, Note_on_c, 0, 85, 73
1, 56960, Note_on_c, 0, 85, 0
1, 56960, Note_on_c, 0, 83, 72
1, 56960, Note_on_c, 0, 66, 0
1, 56960, Note_on_c, 0, 69, 83
1, 57024, Note_on_c, 0, 83, 0
1, 57024, Note_on_c, 0, 81, 67
1, 57088, Note_on_c, 0, 81, 0
1, 57088, Note_on_c, 0, 80, 71
1, 57088, Note_on_c, 0, 69, 0
1, 57088, Note_on_c, 0, 61, 62
1, 57152, Note_on_c, 0, 80, 0
1, 57152, Note_on_c, 0, 81, 76
1, 57216, Note_on_c, 0, 81, 0
1, 57216, Note_on_c, 0, 80, 73
1, 57216, Note_on_c, 0, 61, 0
1, 57216, Note_on_c, 0, 64, 82
1, 57280, Note_on_c, 0, 80, 0
1, 57280, Note_on_c, 0, 81, 82
1, 57344, Note_on_c, 0, 81, 0
1, 57344, Note_on_c, 0, 83, 79
1, 57344, Note_on_c, 0, 64, 0
1, 57344, Note_on_c, 0, 69, 82
1, 57408, Note_on_c, 0, 83, 0
1, 57408, Note_on_c, 0, 81, 69
1, 57472, Note_on_c, 0, 81, 0
1, 57472, Note_on_c, 0, 69, 0
1, 57472, Note_on_c, 0, 64, 64
1, 57600, Note_on_c, 0, 64, 0
1, 57600, Note_on_c, 0, 81, 69
1, 57600, Note_on_c, 0, 67, 80
1, 57664, Note_on_c, 0, 81, 0
1, 57664, Note_on_c, 0, 79, 70
1, 57728, Note_on_c, 0, 79, 0
1, 57728, Note_on_c, 0, 69, 74
1, 57728, Note_on_c, 0, 78, 74
1, 57728, Note_on_c, 0, 67, 0
1, 57792, Note_on_c, 0, 78, 0
1, 57792, Note_on_c, 0, 76, 75
1, 57856, Note_on_c, 0, 69, 0
1, 57856, Note_on_c, 0, 76, 0
1, 57856, Note_on_c, 0, 62, 70
1, 57856, Note_on_c, 0, 73, 70
1, 57920, Note_on_c, 0, 73, 0
1, 57920, Note_on_c, 0, 74, 80
1, 57984, Note_on_c, 0, 62, 0
1, 57984, Note_on_c, 0, 74, 0
1, 57984, Note_on_c, 0, 66, 75
1, 57984, Note_on_c, 0, 73, 75
1, 58048, Note_on_c, 0, 73, 0
1, 58048, Note_on_c, 0, 74, 75
1, 58112, Note_on_c, 0, 66, 0
1, 58112, Note_on_c, 0, 74, 0
1, 58112, Note_on_c, 0, 69, 83
1, 58112, Note_on_c, 0, 76, 83
1, 58176, Note_on_c, 0, 76, 0
1, 58176, Note_on_c, 0, 74, 67
1, 58240, Note_on_c, 0, 69, 0
1, 58240, Note_on_c, 0, 74, 0
1, 58240, Note_on_c, 0, 62, 54
1, 58368, Note_on_c, 0, 62, 0
1, 58368, Note_on_c, 0, 86, 94
1, 58368, Note_on_c, 0, 66, 70
1, 58432, Note_on_c, 0, 86, 0
1, 58432, Note_on_c, 0, 85, 77
1, 58496, Note_on_c, 0, 85, 0
1, 58496, Note_on_c, 0, 83, 72
1, 58496, Note_on_c, 0, 66, 0
1, 58496, Note_on_c, 0, 69, 79
1, 58560, Note_on_c, 0, 83, 0
1, 58560, Note_on_c, 0, 81, 69
1, 58624, Note_on_c, 0, 81, 0
1, 58624, Note_on_c, 0, 80, 72
1, 58624, Note_on_c, 0, 69, 0
1, 58624, Note_on_c, 0, 61, 61
1, 58688, Note_on_c, 0, 80, 0
1, 58688, Note_on_c, 0, 81, 81
1, 58752, Note_on_c, 0, 81, 0
1, 58752, Note_on_c, 0, 80, 73
1, 58752, Note_on_c, 0, 61, 0
1, 58752, Note_on_c, 0, 64, 80
1, 58816, Note_on_c, 0, 80, 0
1, 58816, Note_on_c, 0, 81, 78
1, 58880, Note_on_c, 0, 81, 0
1, 58880, Note_on_c, 0, 83, 77
1, 58880, Note_on_c, 0, 64, 0
1, 58880, Note_on_c, 0, 69, 90
1, 58944, Note_on_c, 0, 83, 0
1, 58944, Note_on_c, 0, 81, 72
1, 59008, Note_on_c, 0, 81, 0
1, 59008, Note_on_c, 0, 69, 0
1, 59008, Note_on_c, 0, 64, 69
1, 59136, Note_on_c, 0, 64, 0
1, 59136, Note_on_c, 0, 81, 69
1, 59136, Note_on_c, 0, 67, 82
1, 59200, Note_on_c, 0, 81, 0
1, 59200, Note_on_c, 0, 79, 67
1, 59264, Note_on_c, 0, 79, 0
1, 59264, Note_on_c, 0, 69, 68
1, 59264, Note_on_c, 0, 78, 68
1, 59264, Note_on_c, 0, 67, 0
1, 59328, Note_on_c, 0, 78, 0
1, 59328, Note_on_c, 0, 76, 70
1, 59392, Note_on_c, 0, 69, 0
1, 59392, Note_on_c, 0, 76, 0
1, 59392, Note_on_c, 0, 66, 65
1, 59392, Note_on_c, 0, 69, 65
1, 59392, Note_on_c, 0, 73, 65
1, 59456, Note_on_c, 0, 73, 0
1, 59456, Note_on_c, 0, 74, 78
1, 59520, Note_on_c, 0, 74, 0
1, 59520, Note_on_c, 0, 73, 72
1, 59584, Note_on_c, 0, 73, 0
1, 59584, Note_on_c, 0, 74, 80
1, 59648, Note_on_c, 0, 66, 0
1, 59648, Note_on_c, 0, 69, 0
1, 59648, Note_on_c, 0, 74, 0
1, 59648, Note_on_c, 0, 79, 89
1, 59712, Note_on_c, 0, 79, 0
1, 59712, Note_on_c, 0, 78, 70
1, 59776, Note_on_c, 0, 78, 0
1, 59776, Note_on_c, 0, 69, 67
1, 59776, Note_on_c, 0, 75, 67
1, 59776, Note_on_c, 0, 61, 69
1, 59840, Note_on_c, 0, 75, 0
1, 59840, Note_on_c, 0, 76, 77
1, 59904, Note_on_c, 0, 76, 0
1, 59904, Note_on_c, 0, 75, 73
1, 59968, Note_on_c, 0, 75, 0
1, 59968, Note_on_c, 0, 76, 77
1, 60032, Note_on_c, 0, 69, 0
1, 60032, Note_on_c, 0, 76, 0
1, 60032, Note_on_c, 0, 81, 81
1, 60032, Note_on_c, 0, 61, 0
1, 60096, Note_on_c, 0, 81, 0
1, 60096, Note_on_c, 0, 79, 68
1, 60160, Note_on_c, 0, 79, 0
1, 60160, Note_on_c, 0, 77, 69
1, 60160, Note_on_c, 0, 62, 66
1, 60160, Note_on_c, 0, 69, 66
1, 60224, Note_on_c, 0, 77, 0
1, 60224, Note_on_c, 0, 78, 84
1, 60288, Note_on_c, 0, 78, 0
1, 60288, Note_on_c, 0, 77, 68
1, 60352, Note_on_c, 0, 77, 0
1, 60352, Note_on_c, 0, 78, 82
1, 60416, Note_on_c, 0, 78, 0
1, 60416, Note_on_c, 0, 83, 86
1, 60416, Note_on_c, 0, 62, 0
1, 60416, Note_on_c, 0, 69, 0
1, 60480, Note_on_c, 0, 83, 0
1, 60480, Note_on_c, 0, 81, 69
1, 60544, Note_on_c, 0, 81, 0
1, 60544, Note_on_c, 0, 81, 79
1, 60544, Note_on_c, 0, 64, 69
1, 60544, Note_on_c, 0, 69, 69
1, 60608, Note_on_c, 0, 81, 0
1, 60608, Note_on_c, 0, 79, 71
1, 60672, Note_on_c, 0, 79, 0
1, 60672, Note_on_c, 0, 64, 0
1, 60672, Note_on_c, 0, 78, 69
1, 60672, Note_on_c, 0, 66, 75
1, 60736, Note_on_c, 0, 78, 0
1, 60736, Note_on_c, 0, 76, 66
1, 60800, Note_on_c, 0, 76, 0
1, 60800, Note_on_c, 0, 67, 71
1, 60800, Note_on_c, 0, 74, 71
1, 60800, Note_on_c, 0, 66, 0
1, 60864, Note_on_c, 0, 74, 0
1, 60864, Note_on_c, 0, 73, 70
1, 60928, Note_on_c, 0, 67, 0
1, 60928, Note_on_c, 0, 73, 0
1, 60928, Note_on_c, 0, 66, 74
1, 60928, Note_on_c, 0, 69, 74
1, 60928, Note_on_c, 0, 73, 74
1, 60928, Note_on_c, 0, 69, 0
1, 60992, Note_on_c, 0, 73, 0
1, 60992, Note_on_c, 0, 74, 80
1, 61056, Note_on_c, 0, 74, 0
1, 61056, Note_on_c, 0, 73, 74
1, 61120, Note_on_c, 0, 66, 0
1, 61120, Note_on_c, 0, 69, 0
1, 61120, Note_on_c, 0, 73, 0
1, 61120, Note_on_c, 0, 74, 74
1, 61184, Note_on_c, 0, 74, 0
1, 61184, Note_on_c, 0, 79, 88
1, 61248, Note_on_c, 0, 79, 0
1, 61248, Note_on_c, 0, 78, 75
1, 61312, Note_on_c, 0, 78, 0
1, 61312, Note_on_c, 0, 69, 67
1, 61312, Note_on_c, 0, 75, 67
1, 61312, Note_on_c, 0, 61, 64
1, 61376, Note_on_c, 0, 75, 0
1, 61376, Note_on_c, 0, 76, 76
1, 61440, Note_on_c, 0, 76, 0
1, 61440, Note_on_c, 0, 75, 70
1, 61504, Note_on_c, 0, 75, 0
1, 61504, Note_on_c, 0, 76, 76
1, 61568, Note_on_c, 0, 69, 0
1, 61568, Note_on_c, 0, 76, 0
1, 61568, Note_on_c, 0, 81, 85
1, 61568, Note_on_c, 0, 61, 0
1, 61632, Note_on_c, 0, 81, 0
1, 61632, Note_on_c, 0, 79, 73
1, 61696, Note_on_c, 0, 79, 0
1, 61696, Note_on_c, 0, 77, 69
1, 61696, Note_on_c, 0, 62, 63
1, 61696, Note_on_c, 0, 69, 63
1, 61760, Note_on_c, 0, 77, 0
1, 61760, Note_on_c, 0, 78, 78
1, 61824, Note_on_c, 0, 78, 0
1, 61824, Note_on_c, 0, 77, 76
1, 61888, Note_on_c, 0, 77, 0
1, 61888, Note_on_c, 0, 78, 79
1, 61952, Note_on_c, 0, 78, 0
1, 61952, Note_on_c, 0, 83, 93
1, 61952, Note_on_c, 0, 62, 0
1, 61952, Note_on_c, 0, 69, 0
1, 62016, Note_on_c, 0, 83, 0
1, 62016, Note_on_c, 0, 81, 73
1, 62080, Note_on_c, 0, 81, 0
1, 62080, Note_on_c, 0, 81, 78
1, 62080, Note_on_c, 0, 64, 69
1, 62080, Note_on_c, 0, 69, 69
1, 62144, Note_on_c, 0, 81, 0
1, 62144, Note_on_c, 0, 79, 69
1, 62208, Note_on_c, 0, 79, 0
1, 62208, Note_on_c, 0, 64, 0
1, 62208, Note_on_c, 0, 78, 69
1, 62208, Note_on_c, 0, 66, 74
1, 62272, Note_on_c, 0, 78, 0
1, 62272, Note_on_c, 0, 76, 69
1, 62336, Note_on_c, 0, 76, 0
1, 62336, Note_on_c, 0, 67, 74
1, 62336, Note_on_c, 0, 74, 74
1, 62336, Note_on_c, 0, 66, 0
1, 62400, Note_on_c, 0, 74, 0
1, 62400, Note_on_c, 0, 73, 74
1, 62464, Note_on_c, 0, 67, 0
1, 62464, Note_on_c, 0, 73, 0
1, 62464, Note_on_c, 0, 66, 68
1, 62464, Note_on_c, 0, 69, 68
1, 62464, Note_on_c, 0, 69, 0
1, 62528, Note_on_c, 0, 74, 83
1, 62592, Note_on_c, 0, 74, 0
1, 62592, Note_on_c, 0, 78, 87
1, 62656, Note_on_c, 0, 66, 0
1, 62656, Note_on_c, 0, 69, 0
1, 62656, Note_on_c, 0, 78, 0
1, 62656, Note_on_c, 0, 81, 85
1, 62720, Note_on_c, 0, 81, 0
1, 62720, Note_on_c, 0, 86, 89
1, 62720, Note_on_c, 0, 64, 67
1, 62720, Note_on_c, 0, 67, 67
1, 62784, Note_on_c, 0, 86, 0
1, 62784, Note_on_c, 0, 85, 75
1, 62848, Note_on_c, 0, 85, 0
1, 62848, Note_on_c, 0, 64, 0
1, 62848, Note_on_c, 0, 67, 0
1, 62848, Note_on_c, 0, 62, 72
1, 62848, Note_on_c, 0, 66, 72
1, 62912, Note_on_c, 0, 71, 70
1, 62976, Note_on_c, 0, 71, 0
1, 62976, Note_on_c, 0, 74, 80
1, 63040, Note_on_c, 0, 74, 0
1, 63040, Note_on_c, 0, 78, 83
1, 63104, Note_on_c, 0, 78, 0
1, 63104, Note_on_c, 0, 83, 86
1, 63104, Note_on_c, 0, 62, 0
1, 63104, Note_on_c, 0, 66, 0
1, 63104, Note_on_c, 0, 61, 77
1, 63104, Note_on_c, 0, 64, 77
1, 63168, Note_on_c, 0, 83, 0
1, 63168, Note_on_c, 0, 81, 74
1, 63232, Note_on_c, 0, 81, 0
1, 63232, Note_on_c, 0, 61, 0
1, 63232, Note_on_c, 0, 64, 0
1, 63232, Note_on_c, 0, 59, 71
1, 63232, Note_on_c, 0, 62, 71
1, 63296, Note_on_c, 0, 67, 70
1, 63360, Note_on_c, 0, 67, 0
1, 63360, Note_on_c, 0, 71, 79
1, 63424, Note_on_c, 0, 71, 0
1, 63424, Note_on_c, 0, 74, 79
1, 63488, Note_on_c, 0, 74, 0
1, 63488, Note_on_c, 0, 79, 83
1, 63488, Note_on_c, 0, 59, 0
1, 63488, Note_on_c, 0, 62, 0
1, 63488, Note_on_c, 0, 57, 70
1, 63488, Note_on_c, 0, 61, 70
1, 63552, Note_on_c, 0, 79, 0
1, 63552, Note_on_c, 0, 78, 75
1, 63616, Note_on_c, 0, 78, 0
1, 63616, Note_on_c, 0, 57, 0
1, 63616, Note_on_c, 0, 61, 0
1, 63616, Note_on_c, 0, 55, 71
1, 63616, Note_on_c, 0, 59, 71
1, 63680, Note_on_c, 0, 64, 73
1, 63744, Note_on_c, 0, 64, 0
1, 63744, Note_on_c, 0, 67, 83
1, 63808, Note_on_c, 0, 67, 0
1, 63808, Note_on_c, 0, 71, 81
1, 63872, Note_on_c, 0, 71, 0
1, 63872, Note_on_c, 0, 76, 87
1, 63872, Note_on_c, 0, 55, 0
1, 63872, Note_on_c, 0, 59, 0
1, 63872, Note_on_c, 0, 56, 73
1, 63872, Note_on_c, 0, 59, 73
1, 63936, Note_on_c, 0, 76, 0
1, 63936, Note_on_c, 0, 74, 72
1, 64000, Note_on_c, 0, 74, 0
1, 64000, Note_on_c, 0, 73, 71
1, 64000, Note_on_c, 0, 56, 0
1, 64000, Note_on_c, 0, 59, 0
1, 64000, Note_on_c, 0, 57, 73
1, 64064, Note_on_c, 0, 73, 0
1, 64064, Note_on_c, 0, 64, 59
1, 64064, Note_on_c, 0, 57, 0
1, 64128, Note_on_c, 0, 64, 0
1, 64128, Note_on_c, 0, 81, 92
1, 64128, Note_on_c, 0, 61, 70
1, 64192, Note_on_c, 0, 81, 0
1, 64192, Note_on_c, 0, 61, 0
1, 64192, Note_on_c, 0, 64, 78
1, 64256, Note_on_c, 0, 74, 67
1, 64256, Note_on_c, 0, 78, 67
1, 64256, Note_on_c, 0, 64, 0
1, 64256, Note_on_c, 0, 62, 72
1, 64320, Note_on_c, 0, 74, 0
1, 64320, Note_on_c, 0, 78, 0
1, 64320, Note_on_c, 0, 62, 0
1, 64320, Note_on_c, 0, 66, 84
1, 64384, Note_on_c, 0, 73, 69
1, 64384, Note_on_c, 0, 76, 69
1, 64384, Note_on_c, 0, 66, 0
1, 64384, Note_on_c, 0, 57, 71
1, 64448, Note_on_c, 0, 73, 0
1, 64448, Note_on_c, 0, 76, 0
1, 64448, Note_on_c, 0, 64, 59
1, 64448, Note_on_c, 0, 57, 0
1, 64512, Note_on_c, 0, 64, 0
1, 64512, Note_on_c, 0, 81, 90
1, 64512, Note_on_c, 0, 61, 66
1, 64576, Note_on_c, 0, 81, 0
1, 64576, Note_on_c, 0, 61, 0
1, 64576, Note_on_c, 0, 64, 86
1, 64640, Note_on_c, 0, 74, 72
1, 64640, Note_on_c, 0, 78, 72
1, 64640, Note_on_c, 0, 64, 0
1, 64640, Note_on_c, 0, 62, 71
1, 64704, Note_on_c, 0, 74, 0
1, 64704, Note_on_c, 0, 78, 0
1, 64704, Note_on_c, 0, 62, 0
1, 64704, Note_on_c, 0, 66, 77
1, 64768, Note_on_c, 0, 73, 69
1, 64768, Note_on_c, 0, 76, 69
1, 64768, Note_on_c, 0, 66, 0
1, 64768, Note_on_c, 0, 57, 75
1, 64768, Note_on_c, 0, 61, 75
1, 64768, Note_on_c, 0, 64, 75
1, 64896, Note_on_c, 0, 73, 0
1, 64896, Note_on_c, 0, 76, 0
1, 64896, Note_on_c, 0, 81, 87
1, 64896, Note_on_c, 0, 57, 0
1, 64896, Note_on_c, 0, 61, 0
1, 64896, Note_on_c, 0, 64, 0
1, 65024, Note_on_c, 0, 81, 0
1, 65024, Note_on_c, 0, 57, 56
1, 65024, Note_on_c, 0, 69, 56
1, 65024, Note_on_c, 0, 45, 68
1, 65152, Note_on_c, 0, 57, 0
1, 65152, Note_on_c, 0, 69, 0
1, 65152, Note_on_c, 0, 57, 73
1, 65152, Note_on_c, 0, 69, 73
1, 65152, Note_on_c, 0, 45, 0
1, 65152, Note_on_c, 0, 45, 73
1, 65280, Note_on_c, 0, 57, 0
1, 65280, Note_on_c, 0, 69, 0
1, 65280, Note_on_c, 0, 45, 0
1, 65408, Note_on_c, 0, 76, 68
1, 65536, Note_on_c, 0, 76, 0
1, 65536, Note_on_c, 0, 81, 82
1, 65536, Note_on_c, 0, 64, 69
1, 65664, Note_on_c, 0, 81, 0
1, 65664, Note_on_c, 0, 69, 60
1, 65664, Note_on_c, 0, 76, 60
1, 65664, Note_on_c, 0, 64, 0
1, 65792, Note_on_c, 0, 69, 0
1, 65792, Note_on_c, 0, 76, 0
1, 65792, Note_on_c, 0, 81, 85
1, 65792, Note_on_c, 0, 64, 69
1, 65920, Note_on_c, 0, 81, 0
1, 65920, Note_on_c, 0, 85, 90
1, 65920, Note_on_c, 0, 64, 0
1, 65920, Note_on_c, 0, 69, 87
1, 66048, Note_on_c, 0, 85, 0
1, 66048, Note_on_c, 0, 69, 0
1, 66048, Note_on_c, 0, 73, 69
1, 66048, Note_on_c, 0, 81, 69
1, 66176, Note_on_c, 0, 73, 0
1, 66176, Note_on_c, 0, 81, 0
1, 66176, Note_on_c, 0, 85, 82
1, 66176, Note_on_c, 0, 69, 69
1, 66304, Note_on_c, 0, 85, 0
1, 66304, Note_on_c, 0, 88, 84
1, 66304, Note_on_c, 0, 69, 0
1, 66304, Note_on_c, 0, 73, 84
1, 66368, Note_on_c, 0, 88, 0
1, 66368, Note_on_c, 0, 86, 72
1, 66432, Note_on_c, 0, 86, 0
1, 66432, Note_on_c, 0, 85, 69
1, 66432, Note_on_c, 0, 73, 0
1, 66432, Note_on_c, 0, 76, 83
1, 66496, Note_on_c, 0, 85, 0
1, 66496, Note_on_c, 0, 74, 67
1, 66496, Note_on_c, 0, 83, 67
1, 66496, Note_on_c, 0, 76, 0
1, 66560, Note_on_c, 0, 74, 0
1, 66560, Note_on_c, 0, 83, 0
1, 66560, Note_on_c, 0, 73, 72
1, 66560, Note_on_c, 0, 82, 72
1, 66624, Note_on_c, 0, 73, 0
1, 66624, Note_on_c, 0, 82, 0
1, 66624, Note_on_c, 0, 71, 66
1, 66624, Note_on_c, 0, 80, 66
1, 66688, Note_on_c, 0, 71, 0
1, 66688, Note_on_c, 0, 80, 0
1, 66688, Note_on_c, 0, 70, 69
1, 66688, Note_on_c, 0, 78, 69
1, 66752, Note_on_c, 0, 70, 0
1, 66752, Note_on_c, 0, 78, 0
1, 66752, Note_on_c, 0, 68, 73
1, 66752, Note_on_c, 0, 76, 73
1, 66816, Note_on_c, 0, 68, 0
1, 66816, Note_on_c, 0, 76, 0
1, 66816, Note_on_c, 0, 66, 67
1, 66816, Note_on_c, 0, 74, 67
1, 66880, Note_on_c, 0, 66, 0
1, 66880, Note_on_c, 0, 74, 0
1, 66880, Note_on_c, 0, 64, 72
1, 66880, Note_on_c, 0, 73, 72
1, 66944, Note_on_c, 0, 64, 0
1, 66944, Note_on_c, 0, 73, 0
1, 66944, Note_on_c, 0, 62, 69
1, 66944, Note_on_c, 0, 71, 69
1, 67008, Note_on_c, 0, 62, 0
1, 67008, Note_on_c, 0, 71, 0
1, 67008, Note_on_c, 0, 61, 76
1, 67008, Note_on_c, 0, 70, 76
1, 67072, Note_on_c, 0, 61, 0
1, 67072, Note_on_c, 0, 70, 0
1, 67072, Note_on_c, 0, 71, 80
1, 67072, Note_on_c, 0, 59, 65
1, 67136, Note_on_c, 0, 71, 0
1, 67136, Note_on_c, 0, 59, 0
1, 67136, Note_on_c, 0, 58, 72
1, 67200, Note_on_c, 0, 66, 70
1, 67200, Note_on_c, 0, 58, 0
1, 67200, Note_on_c, 0, 59, 76
1, 67328, Note_on_c, 0, 66, 0
1, 67328, Note_on_c, 0, 71, 86
1, 67328, Note_on_c, 0, 59, 0
1, 67328, Note_on_c, 0, 54, 71
1, 67456, Note_on_c, 0, 71, 0
1, 67456, Note_on_c, 0, 74, 85
1, 67456, Note_on_c, 0, 54, 0
1, 67456, Note_on_c, 0, 59, 76
1, 67584, Note_on_c, 0, 74, 0
1, 67584, Note_on_c, 0, 59, 0
1, 67584, Note_on_c, 0, 62, 66
1, 67584, Note_on_c, 0, 71, 66
1, 67712, Note_on_c, 0, 62, 0
1, 67712, Note_on_c, 0, 71, 0
1, 67712, Note_on_c, 0, 74, 77
1, 67712, Note_on_c, 0, 59, 69
1, 67840, Note_on_c, 0, 74, 0
1, 67840, Note_on_c, 0, 78, 86
1, 67840, Note_on_c, 0, 59, 0
1, 67840, Note_on_c, 0, 62, 80
1, 67904, Note_on_c, 0, 78, 0
1, 67904, Note_on_c, 0, 76, 72
1, 67968, Note_on_c, 0, 76, 0
1, 67968, Note_on_c, 0, 66, 68
1, 67968, Note_on_c, 0, 74, 68
1, 67968, Note_on_c, 0, 62, 0
1, 68032, Note_on_c, 0, 66, 0
1, 68032, Note_on_c, 0, 74, 0
1, 68032, Note_on_c, 0, 64, 72
1, 68032, Note_on_c, 0, 73, 72
1, 68096, Note_on_c, 0, 64, 0
1, 68096, Note_on_c, 0, 73, 0
1, 68096, Note_on_c, 0, 62, 74
1, 68096, Note_on_c, 0, 71, 74
1, 68160, Note_on_c, 0, 62, 0
1, 68160, Note_on_c, 0, 71, 0
1, 68160, Note_on_c, 0, 61, 74
1, 68160, Note_on_c, 0, 70, 74
1, 68224, Note_on_c, 0, 61, 0
1, 68224, Note_on_c, 0, 70, 0
1, 68224, Note_on_c, 0, 74, 83
1, 68224, Note_on_c, 0, 59, 64
1, 68288, Note_on_c, 0, 74, 0
1, 68288, Note_on_c, 0, 73, 74
1, 68288, Note_on_c, 0, 59, 0
1, 68288, Note_on_c, 0, 58, 73
1, 68352, Note_on_c, 0, 73, 0
1, 68352, Note_on_c, 0, 58, 0
1, 68352, Note_on_c, 0, 71, 71
1, 68352, Note_on_c, 0, 62, 82
1, 68416, Note_on_c, 0, 71, 0
1, 68416, Note_on_c, 0, 61, 71
1, 68416, Note_on_c, 0, 69, 71
1, 68416, Note_on_c, 0, 62, 0
1, 68480, Note_on_c, 0, 61, 0
1, 68480, Note_on_c, 0, 69, 0
1, 68480, Note_on_c, 0, 68, 70
1, 68480, Note_on_c, 0, 59, 65
1, 68544, Note_on_c, 0, 68, 0
1, 68544, Note_on_c, 0, 66, 71
1, 68544, Note_on_c, 0, 59, 0
1, 68544, Note_on_c, 0, 57, 72
1, 68608, Note_on_c, 0, 66, 0
1, 68608, Note_on_c, 0, 64, 73
1, 68608, Note_on_c, 0, 57, 0
1, 68608, Note_on_c, 0, 56, 75
1, 68672, Note_on_c, 0, 64, 0
1, 68672, Note_on_c, 0, 56, 0
1, 68672, Note_on_c, 0, 54, 78
1, 68736, Note_on_c, 0, 54, 0
1, 68736, Note_on_c, 0, 52, 77
1, 68736, Note_on_c, 0, 59, 77
1, 68864, Note_on_c, 0, 64, 68
1, 68864, Note_on_c, 0, 52, 0
1, 68864, Note_on_c, 0, 59, 0
1, 68864, Note_on_c, 0, 47, 68
1, 68992, Note_on_c, 0, 64, 0
1, 68992, Note_on_c, 0, 68, 82
1, 68992, Note_on_c, 0, 47, 0
1, 68992, Note_on_c, 0, 52, 77
1, 69120, Note_on_c, 0, 68, 0
1, 69120, Note_on_c, 0, 52, 0
1, 69120, Note_on_c, 0, 64, 71
1, 69120, Note_on_c, 0, 56, 81
1, 69248, Note_on_c, 0, 64, 0
1, 69248, Note_on_c, 0, 68, 85
1, 69248, Note_on_c, 0, 56, 0
1, 69248, Note_on_c, 0, 52, 73
1, 69376, Note_on_c, 0, 68, 0
1, 69376, Note_on_c, 0, 71, 83
1, 69376, Note_on_c, 0, 52, 0
1, 69376, Note_on_c, 0, 56, 77
1, 69440, Note_on_c, 0, 71, 0
1, 69440, Note_on_c, 0, 73, 83
1, 69504, Note_on_c, 0, 73, 0
1, 69504, Note_on_c, 0, 74, 78
1, 69504, Note_on_c, 0, 56, 0
1, 69504, Note_on_c, 0, 59, 80
1, 69568, Note_on_c, 0, 74, 0
1, 69568, Note_on_c, 0, 73, 73
1, 69568, Note_on_c, 0, 59, 0
1, 69568, Note_on_c, 0, 61, 83
1, 69632, Note_on_c, 0, 73, 0
1, 69632, Note_on_c, 0, 62, 72
1, 69632, Note_on_c, 0, 71, 72
1, 69632, Note_on_c, 0, 61, 0
1, 69696, Note_on_c, 0, 62, 0
1, 69696, Note_on_c, 0, 71, 0
1, 69696, Note_on_c, 0, 61, 74
1, 69696, Note_on_c, 0, 69, 74
1, 69760, Note_on_c, 0, 61, 0
1, 69760, Note_on_c, 0, 69, 0
1, 69760, Note_on_c, 0, 68, 71
1, 69760, Note_on_c, 0, 59, 68
1, 69824, Note_on_c, 0, 68, 0
1, 69824, Note_on_c, 0, 66, 70
1, 69824, Note_on_c, 0, 59, 0
1, 69824, Note_on_c, 0, 57, 70
1, 69888, Note_on_c, 0, 66, 0
1, 69888, Note_on_c, 0, 57, 0
1, 69888, Note_on_c, 0, 64, 71
1, 69888, Note_on_c, 0, 56, 70
1, 69952, Note_on_c, 0, 64, 0
1, 69952, Note_on_c, 0, 66, 80
1, 69952, Note_on_c, 0, 56, 0
1, 69952, Note_on_c, 0, 54, 72
1, 70016, Note_on_c, 0, 66, 0
1, 70016, Note_on_c, 0, 62, 64
1, 70016, Note_on_c, 0, 54, 0
1, 70016, Note_on_c, 0, 56, 77
1, 70080, Note_on_c, 0, 62, 0
1, 70080, Note_on_c, 0, 64, 82
1, 70080, Note_on_c, 0, 56, 0
1, 70080, Note_on_c, 0, 52, 69
1, 70144, Note_on_c, 0, 64, 0
1, 70144, Note_on_c, 0, 61, 71
1, 70144, Note_on_c, 0, 52, 0
1, 70144, Note_on_c, 0, 57, 76
1, 70208, Note_on_c, 0, 61, 0
1, 70208, Note_on_c, 0, 64, 81
1, 70272, Note_on_c, 0, 64, 0
1, 70272, Note_on_c, 0, 63, 72
1, 70336, Note_on_c, 0, 63, 0
1, 70336, Note_on_c, 0, 64, 79
1, 70336, Note_on_c, 0, 57, 0
1, 70400, Note_on_c, 0, 64, 0
1, 70400, Note_on_c, 0, 66, 78
1, 70464, Note_on_c, 0, 66, 0
1, 70464, Note_on_c, 0, 64, 70
1, 70528, Note_on_c, 0, 64, 0
1, 70528, Note_on_c, 0, 61, 82
1, 70528, Note_on_c, 0, 69, 82
1, 70528, Note_on_c, 0, 57, 68
1, 70592, Note_on_c, 0, 69, 0
1, 70592, Note_on_c, 0, 64, 69
1, 70656, Note_on_c, 0, 64, 0
1, 70656, Note_on_c, 0, 63, 69
1, 70720, Note_on_c, 0, 63, 0
1, 70720, Note_on_c, 0, 64, 78
1, 70784, Note_on_c, 0, 61, 0
1, 70784, Note_on_c, 0, 64, 0
1, 70784, Note_on_c, 0, 66, 79
1, 70784, Note_on_c, 0, 57, 0
1, 70848, Note_on_c, 0, 66, 0
1, 70848, Note_on_c, 0, 64, 67
1, 70912, Note_on_c, 0, 64, 0
1, 70912, Note_on_c, 0, 56, 72
1, 70912, Note_on_c, 0, 59, 72
1, 70976, Note_on_c, 0, 64, 66
1, 70976, Note_on_c, 0, 59, 0
1, 71040, Note_on_c, 0, 64, 0
1, 71040, Note_on_c, 0, 63, 67
1, 71104, Note_on_c, 0, 63, 0
1, 71104, Note_on_c, 0, 64, 79
1, 71168, Note_on_c, 0, 64, 0
1, 71168, Note_on_c, 0, 61, 70
1, 71168, Note_on_c, 0, 56, 0
1, 71168, Note_on_c, 0, 57, 82
1, 71232, Note_on_c, 0, 61, 0
1, 71232, Note_on_c, 0, 64, 84
1, 71296, Note_on_c, 0, 64, 0
1, 71296, Note_on_c, 0, 62, 67
1, 71296, Note_on_c, 0, 57, 0
1, 71296, Note_on_c, 0, 59, 83
1, 71360, Note_on_c, 0, 62, 0
1, 71360, Note_on_c, 0, 64, 78
1, 71424, Note_on_c, 0, 64, 0
1, 71424, Note_on_c, 0, 59, 0
1, 71424, Note_on_c, 0, 61, 69
1, 71424, Note_on_c, 0, 57, 74
1, 71488, Note_on_c, 0, 61, 0
1, 71488, Note_on_c, 0, 64, 81
1, 71552, Note_on_c, 0, 64, 0
1, 71552, Note_on_c, 0, 57, 0
1, 71552, Note_on_c, 0, 56, 75
1, 71552, Note_on_c, 0, 59, 75
1, 71616, Note_on_c, 0, 64, 67
1, 71616, Note_on_c, 0, 59, 0
1, 71680, Note_on_c, 0, 64, 0
1, 71680, Note_on_c, 0, 61, 67
1, 71680, Note_on_c, 0, 56, 0
1, 71680, Note_on_c, 0, 57, 77
1, 71744, Note_on_c, 0, 61, 0
1, 71744, Note_on_c, 0, 64, 80
1, 71808, Note_on_c, 0, 64, 0
1, 71808, Note_on_c, 0, 63, 71
1, 71872, Note_on_c, 0, 63, 0
1, 71872, Note_on_c, 0, 64, 76
1, 71936, Note_on_c, 0, 64, 0
1, 71936, Note_on_c, 0, 66, 81
1, 71936, Note_on_c, 0, 57, 0
1, 72000, Note_on_c, 0, 66, 0
1, 72000, Note_on_c, 0, 64, 72
1, 72064, Note_on_c, 0, 64, 0
1, 72064, Note_on_c, 0, 61, 86
1, 72064, Note_on_c, 0, 69, 86
1, 72064, Note_on_c, 0, 57, 72
1, 72128, Note_on_c, 0, 69, 0
1, 72128, Note_on_c, 0, 64, 65
1, 72192, Note_on_c, 0, 64, 0
1, 72192, Note_on_c, 0, 63, 74
1, 72256, Note_on_c, 0, 63, 0
1, 72256, Note_on_c, 0, 64, 82
1, 72320, Note_on_c, 0, 61, 0
1, 72320, Note_on_c, 0, 64, 0
1, 72320, Note_on_c, 0, 66, 83
1, 72320, Note_on_c, 0, 57, 0
1, 72384, Note_on_c, 0, 66, 0
1, 72384, Note_on_c, 0, 64, 75
1, 72448, Note_on_c, 0, 64, 0
1, 72448, Note_on_c, 0, 56, 69
1, 72448, Note_on_c, 0, 59, 69
1, 72512, Note_on_c, 0, 64, 64
1, 72512, Note_on_c, 0, 59, 0
1, 72576, Note_on_c, 0, 64, 0
1, 72576, Note_on_c, 0, 63, 65
1, 72640, Note_on_c, 0, 63, 0
1, 72640, Note_on_c, 0, 64, 78
1, 72704, Note_on_c, 0, 64, 0
1, 72704, Note_on_c, 0, 61, 71
1, 72704, Note_on_c, 0, 56, 0
1, 72704, Note_on_c, 0, 57, 80
1, 72768, Note_on_c, 0, 61, 0
1, 72768, Note_on_c, 0, 64, 78
1, 72832, Note_on_c, 0, 64, 0
1, 72832, Note_on_c, 0, 62, 72
1, 72832, Note_on_c, 0, 57, 0
1, 72832, Note_on_c, 0, 59, 76
1, 72896, Note_on_c, 0, 62, 0
1, 72896, Note_on_c, 0, 64, 80
1, 72960, Note_on_c, 0, 64, 0
1, 72960, Note_on_c, 0, 59, 0
1, 72960, Note_on_c, 0, 61, 69
1, 72960, Note_on_c, 0, 57, 76
1, 73024, Note_on_c, 0, 61, 0
1, 73024, Note_on_c, 0, 64, 82
1, 73088, Note_on_c, 0, 64, 0
1, 73088, Note_on_c, 0, 57, 0
1, 73088, Note_on_c, 0, 56, 82
1, 73088, Note_on_c, 0, 59, 82
1, 73152, Note_on_c, 0, 64, 73
1, 73152, Note_on_c, 0, 59, 0
1, 73216, Note_on_c, 0, 64, 0
1, 73216, Note_on_c, 0, 56, 0
1, 73216, Note_on_c, 0, 57, 84
1, 73280, Note_on_c, 0, 61, 68
1, 73344, Note_on_c, 0, 61, 0
1, 73344, Note_on_c, 0, 64, 81
1, 73408, Note_on_c, 0, 64, 0
1, 73408, Note_on_c, 0, 69, 87
1, 73472, Note_on_c, 0, 69, 0
1, 73472, Note_on_c, 0, 73, 85
1, 73472, Note_on_c, 0, 57, 0
1, 73536, Note_on_c, 0, 73, 0
1, 73536, Note_on_c, 0, 76, 89
1, 73600, Note_on_c, 0, 76, 0
1, 73600, Note_on_c, 0, 81, 86
1, 73600, Note_on_c, 0, 57, 69
1, 73600, Note_on_c, 0, 61, 69
1, 73664, Note_on_c, 0, 81, 0
1, 73664, Note_on_c, 0, 80, 78
1, 73728, Note_on_c, 0, 80, 0
1, 73728, Note_on_c, 0, 57, 0
1, 73728, Note_on_c, 0, 61, 0
1, 73728, Note_on_c, 0, 78, 71
1, 73728, Note_on_c, 0, 59, 78
1, 73728, Note_on_c, 0, 62, 78
1, 73792, Note_on_c, 0, 78, 0
1, 73792, Note_on_c, 0, 76, 73
1, 73856, Note_on_c, 0, 76, 0
1, 73856, Note_on_c, 0, 74, 68
1, 73856, Note_on_c, 0, 59, 0
1, 73856, Note_on_c, 0, 62, 0
1, 73856, Note_on_c, 0, 61, 83
1, 73856, Note_on_c, 0, 64, 83
1, 73920, Note_on_c, 0, 74, 0
1, 73920, Note_on_c, 0, 73, 71
1, 73984, Note_on_c, 0, 73, 0
1, 73984, Note_on_c, 0, 62, 65
1, 73984, Note_on_c, 0, 66, 65
1, 73984, Note_on_c, 0, 61, 0
1, 73984, Note_on_c, 0, 64, 0
1, 74048, Note_on_c, 0, 70, 81
1, 74112, Note_on_c, 0, 70, 0
1, 74112, Note_on_c, 0, 71, 82
1, 74176, Note_on_c, 0, 71, 0
1, 74176, Note_on_c, 0, 73, 83
1, 74240, Note_on_c, 0, 62, 0
1, 74240, Note_on_c, 0, 66, 0
1, 74240, Note_on_c, 0, 73, 0
1, 74240, Note_on_c, 0, 74, 82
1, 74304, Note_on_c, 0, 74, 0
1, 74304, Note_on_c, 0, 76, 82
1, 74368, Note_on_c, 0, 76, 0
1, 74368, Note_on_c, 0, 78, 80
1, 74368, Note_on_c, 0, 59, 65
1, 74368, Note_on_c, 0, 62, 65
1, 74432, Note_on_c, 0, 78, 0
1, 74432, Note_on_c, 0, 76, 66
1, 74496, Note_on_c, 0, 76, 0
1, 74496, Note_on_c, 0, 59, 0
1, 74496, Note_on_c, 0, 62, 0
1, 74496, Note_on_c, 0, 74, 67
1, 74496, Note_on_c, 0, 61, 78
1, 74496, Note_on_c, 0, 64, 78
1, 74560, Note_on_c, 0, 74, 0
1, 74560, Note_on_c, 0, 73, 76
1, 74624, Note_on_c, 0, 73, 0
1, 74624, Note_on_c, 0, 62, 69
1, 74624, Note_on_c, 0, 66, 69
1, 74624, Note_on_c, 0, 71, 69
1, 74624, Note_on_c, 0, 61, 0
1, 74624, Note_on_c, 0, 64, 0
1, 74688, Note_on_c, 0, 71, 0
1, 74688, Note_on_c, 0, 69, 73
1, 74752, Note_on_c, 0, 62, 0
1, 74752, Note_on_c, 0, 66, 0
1, 74752, Note_on_c, 0, 69, 0
1, 74752, Note_on_c, 0, 64, 64
1, 74752, Note_on_c, 0, 52, 70
1, 74816, Note_on_c, 0, 64, 0
1, 74816, Note_on_c, 0, 73, 93
1, 74880, Note_on_c, 0, 73, 0
1, 74880, Note_on_c, 0, 61, 75
1, 74880, Note_on_c, 0, 69, 75
1, 74880, Note_on_c, 0, 57, 78
1, 74944, Note_on_c, 0, 69, 0
1, 74944, Note_on_c, 0, 76, 87
1, 75008, Note_on_c, 0, 61, 0
1, 75008, Note_on_c, 0, 76, 0
1, 75008, Note_on_c, 0, 73, 70
1, 75008, Note_on_c, 0, 57, 0
1, 75008, Note_on_c, 0, 57, 85
1, 75008, Note_on_c, 0, 61, 85
1, 75072, Note_on_c, 0, 73, 0
1, 75072, Note_on_c, 0, 81, 88
1, 75136, Note_on_c, 0, 81, 0
1, 75136, Note_on_c, 0, 52, 0
1, 75136, Note_on_c, 0, 57, 0
1, 75136, Note_on_c, 0, 61, 0
1, 75136, Note_on_c, 0, 52, 65
1, 75200, Note_on_c, 0, 71, 63
1, 75264, Note_on_c, 0, 71, 0
1, 75264, Note_on_c, 0, 62, 74
1, 75264, Note_on_c, 0, 71, 74
1, 75264, Note_on_c, 0, 72, 74
1, 75264, Note_on_c, 0, 56, 80
1, 75306, Note_on_c, 0, 72, 0
1, 75328, Note_on_c, 0, 56, 0
1, 75349, Note_on_c, 0, 62, 0
1, 75349, Note_on_c, 0, 71, 0
1, 75349, Note_on_c, 0, 72, 81
1, 75392, Note_on_c, 0, 72, 0
1, 75392, Note_on_c, 0, 62, 70
1, 75392, Note_on_c, 0, 71, 70
1, 75392, Note_on_c, 0, 56, 78
1, 75434, Note_on_c, 0, 71, 0
1, 75434, Note_on_c, 0, 69, 77
1, 75434, Note_on_c, 0, 72, 77
1, 75477, Note_on_c, 0, 69, 0
1, 75477, Note_on_c, 0, 72, 0
1, 75477, Note_on_c, 0, 71, 71
1, 75520, Note_on_c, 0, 62, 0
1, 75520, Note_on_c, 0, 71, 0
1, 75520, Note_on_c, 0, 61, 75
1, 75520, Note_on_c, 0, 69, 75
1, 75520, Note_on_c, 0, 71, 75
1, 75520, Note_on_c, 0, 52, 0
1, 75520, Note_on_c, 0, 56, 0
1, 75520, Note_on_c, 0, 57, 79
1, 75551, Note_on_c, 0, 71, 0
1, 75648, Note_on_c, 0, 61, 0
1, 75648, Note_on_c, 0, 69, 0
1, 75648, Note_on_c, 0, 57, 0
1, 75648, Note_on_c, 0, 45, 65
1, 75776, Note_on_c, 0, 45, 0
1, 75776, Note_on_c, 0, 45, 85
1, 75776, Note_on_c, 0, 57, 85
1, 75904, Note_on_c, 0, 45, 0
1, 75904, Note_on_c, 0, 57, 0
1, 75904, Note_on_c, 0, 45, 76
1, 75904, Note_on_c, 0, 57, 76
1, 76032, Note_on_c, 0, 45, 0
1, 76032, Note_on_c, 0, 57, 0
1, 76160, Note_on_c, 0, 73, 64
1, 76288, Note_on_c, 0, 73, 0
1, 76288, Note_on_c, 0, 74, 76
1, 76544, Note_on_c, 0, 74, 0
1, 76544, Note_on_c, 0, 76, 81
1, 76672, Note_on_c, 0, 76, 0
1, 76672, Note_on_c, 0, 78, 79
1, 76800, Note_on_c, 0, 78, 0
1, 76800, Note_on_c, 0, 76, 72
1, 76864, Note_on_c, 0, 76, 0
1, 76864, Note_on_c, 0, 74, 69
1, 76928, Note_on_c, 0, 74, 0
1, 76928, Note_on_c, 0, 73, 69
1, 76992, Note_on_c, 0, 73, 0
1, 76992, Note_on_c, 0, 71, 71
1, 77056, Note_on_c, 0, 71, 0
1, 77056, Note_on_c, 0, 62, 67
1, 77056, Note_on_c, 0, 69, 67
1, 77056, Note_on_c, 0, 52, 68
1, 77056, Note_on_c, 0, 59, 68
1, 77440, Note_on_c, 0, 69, 0
1, 77440, Note_on_c, 0, 68, 72
1, 77696, Note_on_c, 0, 62, 0
1, 77696, Note_on_c, 0, 68, 0
1, 77696, Note_on_c, 0, 66, 72
1, 77696, Note_on_c, 0, 52, 0
1, 77696, Note_on_c, 0, 59, 0
1, 77696, Note_on_c, 0, 50, 73
1, 77696, Note_on_c, 0, 56, 73
1, 77824, Note_on_c, 0, 66, 0
1, 77824, Note_on_c, 0, 66, 75
1, 77824, Note_on_c, 0, 50, 0
1, 77824, Note_on_c, 0, 56, 0
1, 77824, Note_on_c, 0, 49, 81
1, 77824, Note_on_c, 0, 57, 81
1, 77952, Note_on_c, 0, 66, 0
1, 77952, Note_on_c, 0, 64, 68
1, 78080, Note_on_c, 0, 64, 0
1, 78080, Note_on_c, 0, 64, 70
1, 78080, Note_on_c, 0, 49, 0
1, 78080, Note_on_c, 0, 57, 0
1, 78143, Note_on_c, 0, 64, 0
1, 78208, Note_on_c, 0, 64, 78
1, 78336, Note_on_c, 0, 64, 0
1, 78336, Note_on_c, 0, 69, 91
1, 78336, Note_on_c, 0, 49, 66
1, 78464, Note_on_c, 0, 69, 0
1, 78464, Note_on_c, 0, 69, 88
1, 78464, Note_on_c, 0, 73, 88
1, 78464, Note_on_c, 0, 49, 0
1, 78464, Note_on_c, 0, 45, 72
1, 78592, Note_on_c, 0, 69, 0
1, 78592, Note_on_c, 0, 73, 0
1, 78592, Note_on_c, 0, 69, 74
1, 78592, Note_on_c, 0, 73, 74
1, 78592, Note_on_c, 0, 45, 0
1, 78592, Note_on_c, 0, 52, 84
1, 78848, Note_on_c, 0, 73, 0
1, 78848, Note_on_c, 0, 74, 84
1, 78976, Note_on_c, 0, 69, 0
1, 78976, Note_on_c, 0, 74, 0
1, 78976, Note_on_c, 0, 68, 66
1, 78976, Note_on_c, 0, 71, 66
1, 79039, Note_on_c, 0, 68, 0
1, 79039, Note_on_c, 0, 71, 0
1, 79232, Note_on_c, 0, 73, 68
1, 79232, Note_on_c, 0, 52, 0
1, 79360, Note_on_c, 0, 73, 0
1, 79360, Note_on_c, 0, 74, 75
1, 79488, Note_on_c, 0, 74, 0
1, 79488, Note_on_c, 0, 74, 73
1, 79552, Note_on_c, 0, 74, 0
1, 79552, Note_on_c, 0, 73, 71
1, 79616, Note_on_c, 0, 73, 0
1, 79616, Note_on_c, 0, 76, 79
1, 79680, Note_on_c, 0, 76, 0
1, 79680, Note_on_c, 0, 74, 73
1, 79744, Note_on_c, 0, 74, 0
1, 79744, Note_on_c, 0, 78, 82
1, 79808, Note_on_c, 0, 78, 0
1, 79808, Note_on_c, 0, 76, 69
1, 79872, Note_on_c, 0, 76, 0
1, 79872, Note_on_c, 0, 74, 70
1, 79936, Note_on_c, 0, 74, 0
1, 79936, Note_on_c, 0, 73, 71
1, 80000, Note_on_c, 0, 73, 0
1, 80000, Note_on_c, 0, 74, 78
1, 80064, Note_on_c, 0, 74, 0
1, 80064, Note_on_c, 0, 71, 69
1, 80128, Note_on_c, 0, 71, 0
1, 80128, Note_on_c, 0, 62, 71
1, 80128, Note_on_c, 0, 69, 71
1, 80128, Note_on_c, 0, 52, 70
1, 80128, Note_on_c, 0, 59, 70
1, 80192, Note_on_c, 0, 69, 0
1, 80192, Note_on_c, 0, 68, 72
1, 80256, Note_on_c, 0, 68, 0
1, 80256, Note_on_c, 0, 71, 88
1, 80320, Note_on_c, 0, 71, 0
1, 80320, Note_on_c, 0, 69, 68
1, 80384, Note_on_c, 0, 69, 0
1, 80384, Note_on_c, 0, 73, 81
1, 80448, Note_on_c, 0, 73, 0
1, 80448, Note_on_c, 0, 71, 73
1, 80512, Note_on_c, 0, 71, 0
1, 80512, Note_on_c, 0, 74, 84
1, 80576, Note_on_c, 0, 74, 0
1, 80576, Note_on_c, 0, 73, 69
1, 80640, Note_on_c, 0, 73, 0
1, 80640, Note_on_c, 0, 76, 86
1, 80704, Note_on_c, 0, 76, 0
1, 80704, Note_on_c, 0, 74, 70
1, 80768, Note_on_c, 0, 62, 0
1, 80768, Note_on_c, 0, 74, 0
1, 80768, Note_on_c, 0, 78, 86
1, 80768, Note_on_c, 0, 52, 0
1, 80768, Note_on_c, 0, 59, 0
1, 80768, Note_on_c, 0, 62, 92
1, 80768, Note_on_c, 0, 68, 92
1, 80832, Note_on_c, 0, 78, 0
1, 80832, Note_on_c, 0, 76, 69
1, 80896, Note_on_c, 0, 76, 0
1, 80896, Note_on_c, 0, 69, 71
1, 80896, Note_on_c, 0, 76, 71
1, 80896, Note_on_c, 0, 62, 0
1, 80896, Note_on_c, 0, 68, 0
1, 80896, Note_on_c, 0, 61, 65
1, 80960, Note_on_c, 0, 76, 0
1, 80960, Note_on_c, 0, 81, 85
1, 81024, Note_on_c, 0, 69, 0
1, 81024, Note_on_c, 0, 81, 0
1, 81024, Note_on_c, 0, 80, 76
1, 81024, Note_on_c, 0, 61, 0
1, 81088, Note_on_c, 0, 80, 0
1, 81088, Note_on_c, 0, 79, 70
1, 81152, Note_on_c, 0, 79, 0
1, 81152, Note_on_c, 0, 78, 73
1, 81152, Note_on_c, 0, 62, 68
1, 81152, Note_on_c, 0, 69, 68
1, 81216, Note_on_c, 0, 78, 0
1, 81216, Note_on_c, 0, 77, 74
1, 81280, Note_on_c, 0, 77, 0
1, 81280, Note_on_c, 0, 69, 69
1, 81280, Note_on_c, 0, 76, 69
1, 81280, Note_on_c, 0, 62, 0
1, 81280, Note_on_c, 0, 69, 0
1, 81280, Note_on_c, 0, 61, 59
1, 81344, Note_on_c, 0, 76, 0
1, 81344, Note_on_c, 0, 81, 87
1, 81408, Note_on_c, 0, 69, 0
1, 81408, Note_on_c, 0, 81, 0
1, 81408, Note_on_c, 0, 61, 0
1, 81408, Note_on_c, 0, 80, 73
1, 81472, Note_on_c, 0, 80, 0
1, 81472, Note_on_c, 0, 79, 72
1, 81536, Note_on_c, 0, 79, 0
1, 81536, Note_on_c, 0, 78, 72
1, 81536, Note_on_c, 0, 62, 70
1, 81536, Note_on_c, 0, 69, 70
1, 81600, Note_on_c, 0, 78, 0
1, 81600, Note_on_c, 0, 77, 74
1, 81664, Note_on_c, 0, 77, 0
1, 81664, Note_on_c, 0, 69, 72
1, 81664, Note_on_c, 0, 76, 72
1, 81664, Note_on_c, 0, 62, 0
1, 81664, Note_on_c, 0, 69, 0
1, 81664, Note_on_c, 0, 61, 60
1, 82048, Note_on_c, 0, 69, 0
1, 82048, Note_on_c, 0, 76, 0
1, 82048, Note_on_c, 0, 71, 79
1, 82048, Note_on_c, 0, 77, 79
1, 82048, Note_on_c, 0, 68, 89
1, 82432, Note_on_c, 0, 71, 0
1, 82432, Note_on_c, 0, 77, 0
1, 82432, Note_on_c, 0, 78, 76
1, 82432, Note_on_c, 0, 68, 0
1, 82432, Note_on_c, 0, 62, 83
1, 82432, Note_on_c, 0, 66, 83
1, 82432, Note_on_c, 0, 69, 83
1, 82623, Note_on_c, 0, 78, 0
1, 82623, Note_on_c, 0, 62, 0
1, 82623, Note_on_c, 0, 66, 0
1, 82623, Note_on_c, 0, 69, 0
1, 82688, Note_on_c, 0, 78, 76
1, 82752, Note_on_c, 0, 78, 0
1, 82752, Note_on_c, 0, 80, 75
1, 82816, Note_on_c, 0, 80, 0
1, 82816, Note_on_c, 0, 81, 81
1, 82880, Note_on_c, 0, 81, 0
1, 82880, Note_on_c, 0, 77, 64
1, 82944, Note_on_c, 0, 77, 0
1, 82944, Note_on_c, 0, 78, 76
1, 83008, Note_on_c, 0, 78, 0
1, 83008, Note_on_c, 0, 73, 67
1, 83072, Note_on_c, 0, 73, 0
1, 83072, Note_on_c, 0, 74, 81
1, 83136, Note_on_c, 0, 74, 0
1, 83136, Note_on_c, 0, 71, 73
1, 83200, Note_on_c, 0, 71, 0
1, 83200, Note_on_c, 0, 69, 71
1, 83456, Note_on_c, 0, 61, 79
1, 83456, Note_on_c, 0, 61, 0
1, 83456, Note_on_c, 0, 52, 64
1, 83584, Note_on_c, 0, 61, 0
1, 83584, Note_on_c, 0, 62, 72
1, 83584, Note_on_c, 0, 52, 0
1, 83584, Note_on_c, 0, 53, 72
1, 83840, Note_on_c, 0, 62, 0
1, 83840, Note_on_c, 0, 63, 73
1, 83840, Note_on_c, 0, 53, 0
1, 83840, Note_on_c, 0, 54, 76
1, 83968, Note_on_c, 0, 63, 0
1, 83968, Note_on_c, 0, 69, 0
1, 83968, Note_on_c, 0, 64, 90
1, 83968, Note_on_c, 0, 69, 90
1, 83968, Note_on_c, 0, 73, 90
1, 83968, Note_on_c, 0, 54, 0
1, 83968, Note_on_c, 0, 52, 75
1, 84352, Note_on_c, 0, 64, 0
1, 84352, Note_on_c, 0, 69, 0
1, 84352, Note_on_c, 0, 73, 0
1, 84352, Note_on_c, 0, 62, 74
1, 84352, Note_on_c, 0, 68, 74
1, 84352, Note_on_c, 0, 71, 74
1, 84352, Note_on_c, 0, 73, 74
1, 84416, Note_on_c, 0, 73, 0
1, 84480, Note_on_c, 0, 71, 0
1, 84480, Note_on_c, 0, 69, 70
1, 84543, Note_on_c, 0, 69, 0
1, 84608, Note_on_c, 0, 71, 80
1, 84671, Note_on_c, 0, 62, 0
1, 84671, Note_on_c, 0, 68, 0
1, 84671, Note_on_c, 0, 71, 0
1, 84736, Note_on_c, 0, 69, 72
1, 84736, Note_on_c, 0, 52, 0
1, 84736, Note_on_c, 0, 57, 81
1, 84864, Note_on_c, 0, 69, 0
1, 84864, Note_on_c, 0, 61, 59
1, 84864, Note_on_c, 0, 57, 0
1, 84992, Note_on_c, 0, 61, 0
1, 84992, Note_on_c, 0, 64, 98
1, 84992, Note_on_c, 0, 75, 98
1, 85056, Note_on_c, 0, 75, 0
1, 85056, Note_on_c, 0, 76, 81
1, 85120, Note_on_c, 0, 64, 0
1, 85120, Note_on_c, 0, 76, 0
1, 85120, Note_on_c, 0, 78, 77
1, 85120, Note_on_c, 0, 57, 67
1, 85184, Note_on_c, 0, 78, 0
1, 85184, Note_on_c, 0, 76, 71
1, 85248, Note_on_c, 0, 76, 0
1, 85248, Note_on_c, 0, 57, 0
1, 85248, Note_on_c, 0, 74, 68
1, 85248, Note_on_c, 0, 61, 81
1, 85312, Note_on_c, 0, 74, 0
1, 85312, Note_on_c, 0, 73, 75
1, 85376, Note_on_c, 0, 73, 0
1, 85376, Note_on_c, 0, 64, 69
1, 85376, Note_on_c, 0, 71, 69
1, 85376, Note_on_c, 0, 61, 0
1, 85440, Note_on_c, 0, 71, 0
1, 85440, Note_on_c, 0, 69, 71
1, 85504, Note_on_c, 0, 64, 0
1, 85504, Note_on_c, 0, 69, 0
1, 85504, Note_on_c, 0, 68, 71
1, 85504, Note_on_c, 0, 52, 68
1, 85568, Note_on_c, 0, 68, 0
1, 85568, Note_on_c, 0, 69, 79
1, 85632, Note_on_c, 0, 69, 0
1, 85632, Note_on_c, 0, 71, 84
1, 85632, Note_on_c, 0, 52, 0
1, 85632, Note_on_c, 0, 56, 79
1, 85696, Note_on_c, 0, 71, 0
1, 85696, Note_on_c, 0, 73, 85
1, 85760, Note_on_c, 0, 73, 0
1, 85760, Note_on_c, 0, 74, 86
1, 85760, Note_on_c, 0, 56, 0
1, 85760, Note_on_c, 0, 59, 77
1, 85824, Note_on_c, 0, 74, 0
1, 85824, Note_on_c, 0, 76, 80
1, 85888, Note_on_c, 0, 76, 0
1, 85888, Note_on_c, 0, 78, 82
1, 85888, Note_on_c, 0, 59, 0
1, 85888, Note_on_c, 0, 52, 69
1, 85952, Note_on_c, 0, 78, 0
1, 85952, Note_on_c, 0, 80, 90
1, 86016, Note_on_c, 0, 80, 0
1, 86016, Note_on_c, 0, 52, 0
1, 86016, Note_on_c, 0, 81, 83
1, 86016, Note_on_c, 0, 56, 79
1, 86080, Note_on_c, 0, 81, 0
1, 86080, Note_on_c, 0, 83, 79
1, 86144, Note_on_c, 0, 83, 0
1, 86144, Note_on_c, 0, 85, 81
1, 86144, Note_on_c, 0, 56, 0
1, 86144, Note_on_c, 0, 59, 80
1, 86208, Note_on_c, 0, 85, 0
1, 86208, Note_on_c, 0, 86, 79
1, 86208, Note_on_c, 0, 59, 0
1, 86272, Note_on_c, 0, 86, 0
1, 86272, Note_on_c, 0, 85, 71
1, 86272, Note_on_c, 0, 57, 69
1, 86400, Note_on_c, 0, 85, 0
1, 86400, Note_on_c, 0, 57, 0
1, 86400, Note_on_c, 0, 61, 83
1, 86528, Note_on_c, 0, 64, 68
1, 86528, Note_on_c, 0, 75, 68
1, 86528, Note_on_c, 0, 61, 0
1, 86592, Note_on_c, 0, 75, 0
1, 86592, Note_on_c, 0, 76, 82
1, 86656, Note_on_c, 0, 64, 0
1, 86656, Note_on_c, 0, 76, 0
1, 86656, Note_on_c, 0, 78, 83
1, 86656, Note_on_c, 0, 57, 71
1, 86720, Note_on_c, 0, 78, 0
1, 86720, Note_on_c, 0, 76, 73
1, 86784, Note_on_c, 0, 76, 0
1, 86784, Note_on_c, 0, 57, 0
1, 86784, Note_on_c, 0, 74, 65
1, 86784, Note_on_c, 0, 61, 84
1, 86848, Note_on_c, 0, 74, 0
1, 86848, Note_on_c, 0, 73, 70
1, 86912, Note_on_c, 0, 73, 0
1, 86912, Note_on_c, 0, 64, 73
1, 86912, Note_on_c, 0, 71, 73
1, 86912, Note_on_c, 0, 61, 0
1, 86976, Note_on_c, 0, 71, 0
1, 86976, Note_on_c, 0, 69, 67
1, 87040, Note_on_c, 0, 64, 0
1, 87040, Note_on_c, 0, 69, 0
1, 87040, Note_on_c, 0, 68, 71
1, 87040, Note_on_c, 0, 52, 72
1, 87104, Note_on_c, 0, 68, 0
1, 87104, Note_on_c, 0, 66, 70
1, 87168, Note_on_c, 0, 66, 0
1, 87168, Note_on_c, 0, 64, 71
1, 87168, Note_on_c, 0, 52, 0
1, 87168, Note_on_c, 0, 59, 82
1, 87232, Note_on_c, 0, 64, 0
1, 87232, Note_on_c, 0, 66, 80
1, 87296, Note_on_c, 0, 66, 0
1, 87296, Note_on_c, 0, 62, 79
1, 87296, Note_on_c, 0, 68, 79
1, 87296, Note_on_c, 0, 59, 0
1, 87360, Note_on_c, 0, 68, 0
1, 87360, Note_on_c, 0, 69, 77
1, 87424, Note_on_c, 0, 62, 0
1, 87424, Note_on_c, 0, 69, 0
1, 87424, Note_on_c, 0, 71, 82
1, 87424, Note_on_c, 0, 52, 66
1, 87488, Note_on_c, 0, 71, 0
1, 87488, Note_on_c, 0, 73, 83
1, 87552, Note_on_c, 0, 73, 0
1, 87552, Note_on_c, 0, 52, 0
1, 87552, Note_on_c, 0, 74, 80
1, 87552, Note_on_c, 0, 59, 76
1, 87616, Note_on_c, 0, 74, 0
1, 87616, Note_on_c, 0, 76, 83
1, 87680, Note_on_c, 0, 76, 0
1, 87680, Note_on_c, 0, 78, 82
1, 87680, Note_on_c, 0, 59, 0
1, 87680, Note_on_c, 0, 62, 83
1, 87744, Note_on_c, 0, 78, 0
1, 87744, Note_on_c, 0, 80, 80
1, 87744, Note_on_c, 0, 62, 0
1, 87808, Note_on_c, 0, 80, 0
1, 87808, Note_on_c, 0, 81, 81
1, 87808, Note_on_c, 0, 57, 74
1, 87808, Note_on_c, 0, 61, 74
1, 87936, Note_on_c, 0, 81, 0
1, 87936, Note_on_c, 0, 76, 63
1, 88064, Note_on_c, 0, 76, 0
1, 88064, Note_on_c, 0, 85, 93
1, 88064, Note_on_c, 0, 61, 0
1, 88064, Note_on_c, 0, 64, 82
1, 88192, Note_on_c, 0, 85, 0
1, 88192, Note_on_c, 0, 81, 69
1, 88192, Note_on_c, 0, 57, 0
1, 88192, Note_on_c, 0, 64, 0
1, 88192, Note_on_c, 0, 57, 68
1, 88192, Note_on_c, 0, 61, 68
1, 88320, Note_on_c, 0, 81, 0
1, 88320, Note_on_c, 0, 76, 66
1, 88448, Note_on_c, 0, 76, 0
1, 88448, Note_on_c, 0, 85, 88
1, 88448, Note_on_c, 0, 61, 0
1, 88448, Note_on_c, 0, 64, 86
1, 88576, Note_on_c, 0, 85, 0
1, 88576, Note_on_c, 0, 81, 69
1, 88576, Note_on_c, 0, 57, 0
1, 88576, Note_on_c, 0, 64, 0
1, 88576, Note_on_c, 0, 57, 68
1, 88576, Note_on_c, 0, 61, 68
1, 88768, Note_on_c, 0, 81, 0
1, 88768, Note_on_c, 0, 57, 0
1, 88768, Note_on_c, 0, 61, 0
1, 89344, Note_on_c, 0, 81, 66
1, 89344, Note_on_c, 0, 57, 68
1, 89344, Note_on_c, 0, 60, 68
1, 89472, Note_on_c, 0, 81, 0
1, 89472, Note_on_c, 0, 76, 64
1, 89600, Note_on_c, 0, 76, 0
1, 89600, Note_on_c, 0, 84, 88
1, 89600, Note_on_c, 0, 60, 0
1, 89600, Note_on_c, 0, 64, 84
1, 89728, Note_on_c, 0, 84, 0
1, 89728, Note_on_c, 0, 81, 77
1, 89728, Note_on_c, 0, 57, 0
1, 89728, Note_on_c, 0, 64, 0
1, 89728, Note_on_c, 0, 57, 65
1, 89728, Note_on_c, 0, 60, 65
1, 89856, Note_on_c, 0, 81, 0
1, 89856, Note_on_c, 0, 76, 67
1, 89984, Note_on_c, 0, 76, 0
1, 89984, Note_on_c, 0, 84, 92
1, 89984, Note_on_c, 0, 60, 0
1, 89984, Note_on_c, 0, 64, 83
1, 90112, Note_on_c, 0, 84, 0
1, 90112, Note_on_c, 0, 81, 72
1, 90112, Note_on_c, 0, 57, 0
1, 90112, Note_on_c, 0, 64, 0
1, 90112, Note_on_c, 0, 57, 70
1, 90112, Note_on_c, 0, 60, 70
1, 90304, Note_on_c, 0, 81, 0
1, 90304, Note_on_c, 0, 57, 0
1, 90304, Note_on_c, 0, 60, 0
1, 90880, Note_on_c, 0, 81, 68
1, 90880, Note_on_c, 0, 53, 72
1, 90880, Note_on_c, 0, 60, 72
1, 90880, Note_on_c, 0, 63, 72
1, 91008, Note_on_c, 0, 81, 0
1, 91008, Note_on_c, 0, 75, 57
1, 91136, Note_on_c, 0, 75, 0
1, 91136, Note_on_c, 0, 84, 89
1, 91136, Note_on_c, 0, 53, 0
1, 91136, Note_on_c, 0, 60, 0
1, 91136, Note_on_c, 0, 63, 0
1, 91136, Note_on_c, 0, 54, 66
1, 91264, Note_on_c, 0, 84, 0
1, 91264, Note_on_c, 0, 81, 69
1, 91264, Note_on_c, 0, 54, 0
1, 91264, Note_on_c, 0, 53, 92
1, 91264, Note_on_c, 0, 60, 92
1, 91264, Note_on_c, 0, 63, 92
1, 91392, Note_on_c, 0, 81, 0
1, 91392, Note_on_c, 0, 75, 65
1, 91520, Note_on_c, 0, 75, 0
1, 91520, Note_on_c, 0, 84, 89
1, 91520, Note_on_c, 0, 53, 0
1, 91520, Note_on_c, 0, 60, 0
1, 91520, Note_on_c, 0, 63, 0
1, 91520, Note_on_c, 0, 54, 72
1, 91648, Note_on_c, 0, 84, 0
1, 91648, Note_on_c, 0, 81, 73
1, 91648, Note_on_c, 0, 54, 0
1, 91648, Note_on_c, 0, 53, 92
1, 91648, Note_on_c, 0, 60, 92
1, 91648, Note_on_c, 0, 63, 92
1, 91904, Note_on_c, 0, 81, 0
1, 91904, Note_on_c, 0, 53, 0
1, 91904, Note_on_c, 0, 60, 0
1, 91904, Note_on_c, 0, 63, 0
1, 92288, Note_on_c, 0, 65, 67
1, 92416, Note_on_c, 0, 65, 0
1, 92416, Note_on_c, 0, 70, 83
1, 92544, Note_on_c, 0, 70, 0
1, 92544, Note_on_c, 0, 65, 65
1, 92672, Note_on_c, 0, 65, 0
1, 92672, Note_on_c, 0, 70, 85
1, 92800, Note_on_c, 0, 70, 0
1, 92800, Note_on_c, 0, 74, 87
1, 92928, Note_on_c, 0, 74, 0
1, 92928, Note_on_c, 0, 70, 65
1, 93056, Note_on_c, 0, 70, 0
1, 93056, Note_on_c, 0, 74, 88
1, 93056, Note_on_c, 0, 53, 69
1, 93184, Note_on_c, 0, 74, 0
1, 93184, Note_on_c, 0, 77, 81
1, 93184, Note_on_c, 0, 53, 0
1, 93184, Note_on_c, 0, 58, 84
1, 93312, Note_on_c, 0, 58, 0
1, 93312, Note_on_c, 0, 53, 75
1, 93440, Note_on_c, 0, 77, 0
1, 93440, Note_on_c, 0, 77, 75
1, 93440, Note_on_c, 0, 53, 0
1, 93440, Note_on_c, 0, 58, 76
1, 93568, Note_on_c, 0, 77, 0
1, 93568, Note_on_c, 0, 77, 74
1, 93568, Note_on_c, 0, 58, 0
1, 93568, Note_on_c, 0, 62, 84
1, 93696, Note_on_c, 0, 62, 0
1, 93696, Note_on_c, 0, 58, 73
1, 93824, Note_on_c, 0, 77, 0
1, 93824, Note_on_c, 0, 82, 87
1, 93824, Note_on_c, 0, 58, 0
1, 93824, Note_on_c, 0, 62, 92
1, 93952, Note_on_c, 0, 82, 0
1, 93952, Note_on_c, 0, 81, 77
1, 93952, Note_on_c, 0, 62, 0
1, 93952, Note_on_c, 0, 65, 81
1, 94016, Note_on_c, 0, 81, 0
1, 94016, Note_on_c, 0, 79, 70
1, 94080, Note_on_c, 0, 79, 0
1, 94080, Note_on_c, 0, 77, 70
1, 94144, Note_on_c, 0, 77, 0
1, 94144, Note_on_c, 0, 79, 85
1, 94208, Note_on_c, 0, 79, 0
1, 94208, Note_on_c, 0, 81, 80
1, 94208, Note_on_c, 0, 65, 0
1, 94208, Note_on_c, 0, 65, 77
1, 94272, Note_on_c, 0, 81, 0
1, 94272, Note_on_c, 0, 82, 81
1, 94336, Note_on_c, 0, 82, 0
1, 94336, Note_on_c, 0, 84, 81
1, 94336, Note_on_c, 0, 65, 0
1, 94336, Note_on_c, 0, 65, 77
1, 94400, Note_on_c, 0, 84, 0
1, 94400, Note_on_c, 0, 82, 71
1, 94464, Note_on_c, 0, 82, 0
1, 94464, Note_on_c, 0, 81, 73
1, 94528, Note_on_c, 0, 81, 0
1, 94528, Note_on_c, 0, 82, 78
1, 94592, Note_on_c, 0, 82, 0
1, 94592, Note_on_c, 0, 84, 79
1, 94592, Note_on_c, 0, 65, 0
1, 94592, Note_on_c, 0, 70, 88
1, 94656, Note_on_c, 0, 84, 0
1, 94656, Note_on_c, 0, 86, 84
1, 94720, Note_on_c, 0, 86, 0
1, 94720, Note_on_c, 0, 87, 79
1, 94720, Note_on_c, 0, 70, 0
1, 94720, Note_on_c, 0, 69, 73
1, 94784, Note_on_c, 0, 87, 0
1, 94784, Note_on_c, 0, 69, 0
1, 94784, Note_on_c, 0, 67, 73
1, 94848, Note_on_c, 0, 77, 72
1, 94848, Note_on_c, 0, 67, 0
1, 94848, Note_on_c, 0, 65, 71
1, 94912, Note_on_c, 0, 77, 0
1, 94912, Note_on_c, 0, 65, 0
1, 94912, Note_on_c, 0, 67, 80
1, 94976, Note_on_c, 0, 87, 65
1, 94976, Note_on_c, 0, 67, 0
1, 94976, Note_on_c, 0, 69, 82
1, 95040, Note_on_c, 0, 69, 0
1, 95040, Note_on_c, 0, 70, 77
1, 95104, Note_on_c, 0, 70, 0
1, 95104, Note_on_c, 0, 72, 83
1, 95168, Note_on_c, 0, 72, 0
1, 95168, Note_on_c, 0, 70, 69
1, 95232, Note_on_c, 0, 87, 0
1, 95232, Note_on_c, 0, 70, 0
1, 95232, Note_on_c, 0, 77, 53
1, 95232, Note_on_c, 0, 69, 71
1, 95296, Note_on_c, 0, 77, 0
1, 95296, Note_on_c, 0, 69, 0
1, 95296, Note_on_c, 0, 70, 78
1, 95360, Note_on_c, 0, 87, 66
1, 95360, Note_on_c, 0, 70, 0
1, 95360, Note_on_c, 0, 72, 81
1, 95424, Note_on_c, 0, 72, 0
1, 95424, Note_on_c, 0, 74, 83
1, 95488, Note_on_c, 0, 74, 0
1, 95488, Note_on_c, 0, 75, 79
1, 95552, Note_on_c, 0, 87, 0
1, 95552, Note_on_c, 0, 89, 80
1, 95616, Note_on_c, 0, 89, 0
1, 95616, Note_on_c, 0, 87, 72
1, 95680, Note_on_c, 0, 87, 0
1, 95680, Note_on_c, 0, 77, 69
1, 95680, Note_on_c, 0, 86, 69
1, 95680, Note_on_c, 0, 75, 0
1, 95744, Note_on_c, 0, 77, 0
1, 95744, Note_on_c, 0, 86, 0
1, 95744, Note_on_c, 0, 75, 74
1, 95744, Note_on_c, 0, 84, 74
1, 95808, Note_on_c, 0, 75, 0
1, 95808, Note_on_c, 0, 84, 0
1, 95808, Note_on_c, 0, 74, 73
1, 95808, Note_on_c, 0, 82, 73
1, 95872, Note_on_c, 0, 74, 0
1, 95872, Note_on_c, 0, 82, 0
1, 95872, Note_on_c, 0, 72, 72
1, 95872, Note_on_c, 0, 81, 72
1, 95936, Note_on_c, 0, 72, 0
1, 95936, Note_on_c, 0, 81, 0
1, 95936, Note_on_c, 0, 74, 82
1, 95936, Note_on_c, 0, 82, 82
1, 96000, Note_on_c, 0, 74, 0
1, 96000, Note_on_c, 0, 82, 0
1, 96000, Note_on_c, 0, 72, 72
1, 96000, Note_on_c, 0, 81, 72
1, 96064, Note_on_c, 0, 72, 0
1, 96064, Note_on_c, 0, 81, 0
1, 96064, Note_on_c, 0, 70, 71
1, 96064, Note_on_c, 0, 79, 71
1, 96128, Note_on_c, 0, 70, 0
1, 96128, Note_on_c, 0, 79, 0
1, 96128, Note_on_c, 0, 69, 71
1, 96128, Note_on_c, 0, 77, 71
1, 96192, Note_on_c, 0, 69, 0
1, 96192, Note_on_c, 0, 77, 0
1, 96192, Note_on_c, 0, 67, 69
1, 96192, Note_on_c, 0, 75, 69
1, 96256, Note_on_c, 0, 67, 0
1, 96256, Note_on_c, 0, 75, 0
1, 96256, Note_on_c, 0, 66, 72
1, 96256, Note_on_c, 0, 74, 72
1, 96320, Note_on_c, 0, 74, 0
1, 96320, Note_on_c, 0, 75, 84
1, 96384, Note_on_c, 0, 75, 0
1, 96384, Note_on_c, 0, 74, 75
1, 96448, Note_on_c, 0, 74, 0
1, 96448, Note_on_c, 0, 84, 95
1, 96512, Note_on_c, 0, 66, 0
1, 96512, Note_on_c, 0, 84, 0
1, 96512, Note_on_c, 0, 75, 62
1, 96512, Note_on_c, 0, 67, 68
1, 96576, Note_on_c, 0, 75, 0
1, 96576, Note_on_c, 0, 84, 91
1, 96576, Note_on_c, 0, 67, 0
1, 96640, Note_on_c, 0, 84, 0
1, 96640, Note_on_c, 0, 74, 64
1, 96640, Note_on_c, 0, 66, 65
1, 96704, Note_on_c, 0, 74, 0
1, 96704, Note_on_c, 0, 75, 69
1, 96768, Note_on_c, 0, 75, 0
1, 96768, Note_on_c, 0, 74, 71
1, 96832, Note_on_c, 0, 74, 0
1, 96832, Note_on_c, 0, 84, 95
1, 96896, Note_on_c, 0, 84, 0
1, 96896, Note_on_c, 0, 75, 59
1, 96896, Note_on_c, 0, 66, 0
1, 96896, Note_on_c, 0, 67, 77
1, 96960, Note_on_c, 0, 75, 0
1, 96960, Note_on_c, 0, 84, 91
1, 96960, Note_on_c, 0, 67, 0
1, 97024, Note_on_c, 0, 84, 0
1, 97024, Note_on_c, 0, 74, 57
1, 97024, Note_on_c, 0, 66, 70
1, 97088, Note_on_c, 0, 74, 0
1, 97088, Note_on_c, 0, 84, 87
1, 97152, Note_on_c, 0, 84, 0
1, 97152, Note_on_c, 0, 81, 75
1, 97216, Note_on_c, 0, 81, 0
1, 97216, Note_on_c, 0, 79, 68
1, 97280, Note_on_c, 0, 79, 0
1, 97280, Note_on_c, 0, 78, 70
1, 97280, Note_on_c, 0, 66, 0
1, 97344, Note_on_c, 0, 78, 0
1, 97344, Note_on_c, 0, 75, 70
1, 97408, Note_on_c, 0, 75, 0
1, 97408, Note_on_c, 0, 74, 69
1, 97472, Note_on_c, 0, 74, 0
1, 97472, Note_on_c, 0, 75, 80
1, 97536, Note_on_c, 0, 75, 0
1, 97536, Note_on_c, 0, 74, 73
1, 97600, Note_on_c, 0, 74, 0
1, 97600, Note_on_c, 0, 72, 68
1, 97664, Note_on_c, 0, 72, 0
1, 97664, Note_on_c, 0, 70, 73
1, 97664, Note_on_c, 0, 50, 67
1, 97728, Note_on_c, 0, 70, 0
1, 97728, Note_on_c, 0, 69, 66
1, 97792, Note_on_c, 0, 69, 0
1, 97792, Note_on_c, 0, 67, 73
1, 97792, Note_on_c, 0, 50, 0
1, 97792, Note_on_c, 0, 55, 79
1, 97920, Note_on_c, 0, 67, 0
1, 97920, Note_on_c, 0, 55, 0
1, 97920, Note_on_c, 0, 50, 69
1, 98048, Note_on_c, 0, 62, 68
1, 98048, Note_on_c, 0, 50, 0
1, 98048, Note_on_c, 0, 55, 83
1, 98176, Note_on_c, 0, 62, 0
1, 98176, Note_on_c, 0, 67, 83
1, 98176, Note_on_c, 0, 55, 0
1, 98176, Note_on_c, 0, 58, 76
1, 98304, Note_on_c, 0, 67, 0
1, 98304, Note_on_c, 0, 58, 0
1, 98304, Note_on_c, 0, 62, 65
1, 98304, Note_on_c, 0, 55, 77
1, 98432, Note_on_c, 0, 62, 0
1, 98432, Note_on_c, 0, 67, 85
1, 98432, Note_on_c, 0, 55, 0
1, 98432, Note_on_c, 0, 58, 77
1, 98560, Note_on_c, 0, 67, 0
1, 98560, Note_on_c, 0, 62, 85
1, 98560, Note_on_c, 0, 70, 85
1, 98560, Note_on_c, 0, 58, 0
1, 98688, Note_on_c, 0, 70, 0
1, 98688, Note_on_c, 0, 67, 69
1, 98816, Note_on_c, 0, 62, 0
1, 98816, Note_on_c, 0, 67, 0
1, 98816, Note_on_c, 0, 62, 82
1, 98816, Note_on_c, 0, 70, 82
1, 98944, Note_on_c, 0, 62, 0
1, 98944, Note_on_c, 0, 70, 0
1, 98944, Note_on_c, 0, 62, 85
1, 98944, Note_on_c, 0, 74, 85
1, 99200, Note_on_c, 0, 62, 0
1, 99200, Note_on_c, 0, 74, 0
1, 99200, Note_on_c, 0, 67, 78
1, 99200, Note_on_c, 0, 74, 78
1, 99328, Note_on_c, 0, 67, 0
1, 99328, Note_on_c, 0, 74, 0
1, 99328, Note_on_c, 0, 66, 77
1, 99328, Note_on_c, 0, 74, 77
1, 99392, Note_on_c, 0, 66, 0
1, 99392, Note_on_c, 0, 64, 71
1, 99456, Note_on_c, 0, 64, 0
1, 99456, Note_on_c, 0, 66, 77
1, 99520, Note_on_c, 0, 66, 0
1, 99520, Note_on_c, 0, 62, 78
1, 99584, Note_on_c, 0, 62, 0
1, 99584, Note_on_c, 0, 74, 0
1, 99584, Note_on_c, 0, 70, 86
1, 99584, Note_on_c, 0, 79, 86
1, 99712, Note_on_c, 0, 70, 0
1, 99712, Note_on_c, 0, 79, 0
1, 99712, Note_on_c, 0, 69, 73
1, 99712, Note_on_c, 0, 78, 73
1, 99776, Note_on_c, 0, 69, 0
1, 99776, Note_on_c, 0, 78, 0
1, 99776, Note_on_c, 0, 76, 72
1, 99840, Note_on_c, 0, 76, 0
1, 99840, Note_on_c, 0, 78, 79
1, 99904, Note_on_c, 0, 78, 0
1, 99904, Note_on_c, 0, 74, 64
1, 99968, Note_on_c, 0, 74, 0
1, 99968, Note_on_c, 0, 82, 92
1, 99968, Note_on_c, 0, 67, 69
1, 100096, Note_on_c, 0, 82, 0
1, 100096, Note_on_c, 0, 81, 75
1, 100096, Note_on_c, 0, 67, 0
1, 100096, Note_on_c, 0, 66, 69
1, 100160, Note_on_c, 0, 81, 0
1, 100160, Note_on_c, 0, 66, 0
1, 100160, Note_on_c, 0, 64, 70
1, 100224, Note_on_c, 0, 64, 0
1, 100224, Note_on_c, 0, 66, 83
1, 100288, Note_on_c, 0, 66, 0
1, 100288, Note_on_c, 0, 62, 71
1, 100352, Note_on_c, 0, 72, 69
1, 100352, Note_on_c, 0, 81, 69
1, 100352, Note_on_c, 0, 62, 0
1, 100480, Note_on_c, 0, 72, 0
1, 100480, Note_on_c, 0, 81, 0
1, 100480, Note_on_c, 0, 70, 72
1, 100480, Note_on_c, 0, 79, 72
1, 100544, Note_on_c, 0, 70, 0
1, 100544, Note_on_c, 0, 79, 0
1, 100544, Note_on_c, 0, 78, 68
1, 100608, Note_on_c, 0, 78, 0
1, 100608, Note_on_c, 0, 79, 82
1, 100672, Note_on_c, 0, 79, 0
1, 100672, Note_on_c, 0, 74, 66
1, 100736, Note_on_c, 0, 74, 0
1, 100736, Note_on_c, 0, 84, 92
1, 100736, Note_on_c, 0, 69, 70
1, 100864, Note_on_c, 0, 84, 0
1, 100864, Note_on_c, 0, 82, 75
1, 100864, Note_on_c, 0, 69, 0
1, 100864, Note_on_c, 0, 67, 69
1, 100928, Note_on_c, 0, 82, 0
1, 100928, Note_on_c, 0, 74, 60
1, 100992, Note_on_c, 0, 74, 0
1, 100992, Note_on_c, 0, 75, 76
1, 101056, Note_on_c, 0, 75, 0
1, 101056, Note_on_c, 0, 74, 76
1, 101120, Note_on_c, 0, 74, 0
1, 101120, Note_on_c, 0, 75, 81
1, 101184, Note_on_c, 0, 75, 0
1, 101184, Note_on_c, 0, 74, 69
1, 101248, Note_on_c, 0, 74, 0
1, 101248, Note_on_c, 0, 81, 86
1, 101248, Note_on_c, 0, 67, 0
1, 101248, Note_on_c, 0, 65, 68
1, 101312, Note_on_c, 0, 81, 0
1, 101312, Note_on_c, 0, 75, 68
1, 101376, Note_on_c, 0, 75, 0
1, 101376, Note_on_c, 0, 76, 74
1, 101440, Note_on_c, 0, 76, 0
1, 101440, Note_on_c, 0, 75, 76
1, 101504, Note_on_c, 0, 75, 0
1, 101504, Note_on_c, 0, 76, 73
1, 101568, Note_on_c, 0, 76, 0
1, 101568, Note_on_c, 0, 75, 77
1, 101632, Note_on_c, 0, 75, 0
1, 101632, Note_on_c, 0, 80, 87
1, 101632, Note_on_c, 0, 65, 0
1, 101632, Note_on_c, 0, 64, 70
1, 101696, Note_on_c, 0, 80, 0
1, 101696, Note_on_c, 0, 81, 77
1, 101760, Note_on_c, 0, 81, 0
1, 101760, Note_on_c, 0, 83, 78
1, 101824, Note_on_c, 0, 83, 0
1, 101824, Note_on_c, 0, 84, 83
1, 101888, Note_on_c, 0, 84, 0
1, 101888, Note_on_c, 0, 86, 80
1, 101888, Note_on_c, 0, 64, 0
1, 101952, Note_on_c, 0, 86, 0
1, 101952, Note_on_c, 0, 84, 73
1, 102016, Note_on_c, 0, 84, 0
1, 102016, Note_on_c, 0, 83, 74
1, 102080, Note_on_c, 0, 83, 0
1, 102080, Note_on_c, 0, 81, 66
1, 102144, Note_on_c, 0, 81, 0
1, 102144, Note_on_c, 0, 80, 71
1, 102208, Note_on_c, 0, 80, 0
1, 102208, Note_on_c, 0, 77, 77
1, 102272, Note_on_c, 0, 77, 0
1, 102272, Note_on_c, 0, 76, 70
1, 102336, Note_on_c, 0, 76, 0
1, 102336, Note_on_c, 0, 74, 68
1, 102400, Note_on_c, 0, 74, 0
1, 102400, Note_on_c, 0, 72, 77
1, 102400, Note_on_c, 0, 57, 68
1, 102464, Note_on_c, 0, 64, 73
1, 102464, Note_on_c, 0, 57, 0
1, 102528, Note_on_c, 0, 64, 0
1, 102528, Note_on_c, 0, 65, 78
1, 102592, Note_on_c, 0, 65, 0
1, 102592, Note_on_c, 0, 64, 76
1, 102656, Note_on_c, 0, 64, 0
1, 102656, Note_on_c, 0, 65, 74
1, 102720, Note_on_c, 0, 65, 0
1, 102720, Note_on_c, 0, 64, 71
1, 102784, Note_on_c, 0, 64, 0
1, 102784, Note_on_c, 0, 72, 0
1, 102784, Note_on_c, 0, 71, 72
1, 102784, Note_on_c, 0, 55, 69
1, 102848, Note_on_c, 0, 65, 75
1, 102848, Note_on_c, 0, 55, 0
1, 102912, Note_on_c, 0, 65, 0
1, 102912, Note_on_c, 0, 66, 76
1, 102976, Note_on_c, 0, 66, 0
1, 102976, Note_on_c, 0, 65, 76
1, 103040, Note_on_c, 0, 65, 0
1, 103040, Note_on_c, 0, 66, 75
1, 103104, Note_on_c, 0, 66, 0
1, 103104, Note_on_c, 0, 65, 76
1, 103168, Note_on_c, 0, 65, 0
1, 103168, Note_on_c, 0, 71, 0
1, 103168, Note_on_c, 0, 66, 65
1, 103168, Note_on_c, 0, 54, 63
1, 103232, Note_on_c, 0, 70, 84
1, 103296, Note_on_c, 0, 70, 0
1, 103296, Note_on_c, 0, 73, 87
1, 103360, Note_on_c, 0, 73, 0
1, 103360, Note_on_c, 0, 78, 84
1, 103424, Note_on_c, 0, 66, 0
1, 103424, Note_on_c, 0, 78, 0
1, 103424, Note_on_c, 0, 82, 84
1, 103424, Note_on_c, 0, 54, 0
1, 103488, Note_on_c, 0, 82, 0
1, 103488, Note_on_c, 0, 85, 86
1, 103552, Note_on_c, 0, 85, 0
1, 103552, Note_on_c, 0, 88, 82
1, 103616, Note_on_c, 0, 88, 0
1, 103616, Note_on_c, 0, 85, 70
1, 103680, Note_on_c, 0, 85, 0
1, 103680, Note_on_c, 0, 82, 70
1, 103744, Note_on_c, 0, 82, 0
1, 103744, Note_on_c, 0, 79, 66
1, 103808, Note_on_c, 0, 79, 0
1, 103808, Note_on_c, 0, 78, 73
1, 103872, Note_on_c, 0, 78, 0
1, 103872, Note_on_c, 0, 76, 67
1, 103936, Note_on_c, 0, 76, 0
1, 103936, Note_on_c, 0, 74, 70
1, 104000, Note_on_c, 0, 74, 0
1, 104000, Note_on_c, 0, 59, 71
1, 104064, Note_on_c, 0, 59, 0
1, 104064, Note_on_c, 0, 62, 80
1, 104128, Note_on_c, 0, 66, 69
1, 104128, Note_on_c, 0, 62, 0
1, 104192, Note_on_c, 0, 66, 0
1, 104192, Note_on_c, 0, 71, 85
1, 104256, Note_on_c, 0, 74, 79
1, 104320, Note_on_c, 0, 71, 0
1, 104320, Note_on_c, 0, 74, 0
1, 104320, Note_on_c, 0, 77, 83
1, 104384, Note_on_c, 0, 77, 0
1, 104384, Note_on_c, 0, 55, 72
1, 104448, Note_on_c, 0, 55, 0
1, 104448, Note_on_c, 0, 59, 83
1, 104512, Note_on_c, 0, 62, 71
1, 104512, Note_on_c, 0, 59, 0
1, 104576, Note_on_c, 0, 62, 0
1, 104576, Note_on_c, 0, 67, 85
1, 104640, Note_on_c, 0, 71, 94
1, 104640, Note_on_c, 0, 77, 94
1, 104704, Note_on_c, 0, 67, 0
1, 104704, Note_on_c, 0, 71, 0
1, 104704, Note_on_c, 0, 77, 0
1, 104704, Note_on_c, 0, 78, 77
1, 104704, Note_on_c, 0, 54, 65
1, 104768, Note_on_c, 0, 78, 0
1, 104768, Note_on_c, 0, 73, 65
1, 104832, Note_on_c, 0, 73, 0
1, 104832, Note_on_c, 0, 78, 85
1, 104832, Note_on_c, 0, 58, 90
1, 104832, Note_on_c, 0, 61, 90
1, 104896, Note_on_c, 0, 78, 0
1, 104896, Note_on_c, 0, 82, 85
1, 104960, Note_on_c, 0, 82, 0
1, 104960, Note_on_c, 0, 85, 88
1, 104960, Note_on_c, 0, 58, 0
1, 104960, Note_on_c, 0, 61, 0
1, 104960, Note_on_c, 0, 58, 78
1, 104960, Note_on_c, 0, 61, 78
1, 105024, Note_on_c, 0, 85, 0
1, 105024, Note_on_c, 0, 82, 68
1, 105088, Note_on_c, 0, 82, 0
1, 105088, Note_on_c, 0, 86, 86
1, 105088, Note_on_c, 0, 54, 0
1, 105088, Note_on_c, 0, 58, 0
1, 105088, Note_on_c, 0, 61, 0
1, 105088, Note_on_c, 0, 54, 71
1, 105152, Note_on_c, 0, 86, 0
1, 105152, Note_on_c, 0, 83, 69
1, 105216, Note_on_c, 0, 83, 0
1, 105216, Note_on_c, 0, 86, 87
1, 105216, Note_on_c, 0, 59, 89
1, 105216, Note_on_c, 0, 62, 89
1, 105280, Note_on_c, 0, 86, 0
1, 105280, Note_on_c, 0, 83, 70
1, 105344, Note_on_c, 0, 83, 0
1, 105344, Note_on_c, 0, 80, 63
1, 105344, Note_on_c, 0, 59, 0
1, 105344, Note_on_c, 0, 62, 0
1, 105344, Note_on_c, 0, 59, 79
1, 105344, Note_on_c, 0, 62, 79
1, 105408, Note_on_c, 0, 80, 0
1, 105408, Note_on_c, 0, 77, 67
1, 105472, Note_on_c, 0, 77, 0
1, 105472, Note_on_c, 0, 78, 81
1, 105472, Note_on_c, 0, 54, 0
1, 105472, Note_on_c, 0, 59, 0
1, 105472, Note_on_c, 0, 62, 0
1, 105472, Note_on_c, 0, 54, 71
1, 105536, Note_on_c, 0, 78, 0
1, 105536, Note_on_c, 0, 73, 62
1, 105600, Note_on_c, 0, 73, 0
1, 105600, Note_on_c, 0, 78, 86
1, 105600, Note_on_c, 0, 58, 87
1, 105600, Note_on_c, 0, 61, 87
1, 105664, Note_on_c, 0, 78, 0
1, 105664, Note_on_c, 0, 82, 89
1, 105728, Note_on_c, 0, 82, 0
1, 105728, Note_on_c, 0, 85, 82
1, 105728, Note_on_c, 0, 58, 0
1, 105728, Note_on_c, 0, 61, 0
1, 105728, Note_on_c, 0, 58, 74
1, 105728, Note_on_c, 0, 61, 74
1, 105792, Note_on_c, 0, 85, 0
1, 105792, Note_on_c, 0, 82, 69
1, 105856, Note_on_c, 0, 82, 0
1, 105856, Note_on_c, 0, 86, 85
1, 105856, Note_on_c, 0, 54, 0
1, 105856, Note_on_c, 0, 58, 0
1, 105856, Note_on_c, 0, 61, 0
1, 105856, Note_on_c, 0, 54, 71
1, 105920, Note_on_c, 0, 86, 0
1, 105920, Note_on_c, 0, 83, 71
1, 105984, Note_on_c, 0, 83, 0
1, 105984, Note_on_c, 0, 86, 75
1, 105984, Note_on_c, 0, 59, 91
1, 105984, Note_on_c, 0, 62, 91
1, 106048, Note_on_c, 0, 86, 0
1, 106048, Note_on_c, 0, 83, 72
1, 106112, Note_on_c, 0, 83, 0
1, 106112, Note_on_c, 0, 80, 67
1, 106112, Note_on_c, 0, 59, 0
1, 106112, Note_on_c, 0, 62, 0
1, 106112, Note_on_c, 0, 59, 75
1, 106112, Note_on_c, 0, 62, 75
1, 106176, Note_on_c, 0, 80, 0
1, 106176, Note_on_c, 0, 77, 67
1, 106240, Note_on_c, 0, 77, 0
1, 106240, Note_on_c, 0, 78, 79
1, 106240, Note_on_c, 0, 54, 0
1, 106240, Note_on_c, 0, 59, 0
1, 106240, Note_on_c, 0, 62, 0
1, 106240, Note_on_c, 0, 54, 68
1, 106240, Note_on_c, 0, 58, 68
1, 106240, Note_on_c, 0, 61, 68
1, 106368, Note_on_c, 0, 78, 0
1, 106368, Note_on_c, 0, 73, 64
1, 106496, Note_on_c, 0, 73, 0
1, 106496, Note_on_c, 0, 82, 96
1, 106496, Note_on_c, 0, 54, 0
1, 106496, Note_on_c, 0, 58, 0
1, 106496, Note_on_c, 0, 61, 0
1, 106624, Note_on_c, 0, 82, 0
1, 106624, Note_on_c, 0, 78, 70
1, 106752, Note_on_c, 0, 78, 0
1, 106752, Note_on_c, 0, 73, 65
1, 106880, Note_on_c, 0, 73, 0
1, 106880, Note_on_c, 0, 82, 87
1, 107008, Note_on_c, 0, 82, 0
1, 107008, Note_on_c, 0, 66, 79
1, 107008, Note_on_c, 0, 78, 79
1, 107120, Note_on_c, 0, 66, 0
1, 107120, Note_on_c, 0, 78, 0
1, 107136, Note_on_c, 0, 61, 65
1, 107264, Note_on_c, 0, 70, 66
1, 107264, Note_on_c, 0, 61, 0
1, 107392, Note_on_c, 0, 70, 0
1, 107392, Note_on_c, 0, 66, 66
1, 107520, Note_on_c, 0, 66, 0
1, 107520, Note_on_c, 0, 61, 63
1, 107648, Note_on_c, 0, 61, 0
1, 107648, Note_on_c, 0, 70, 91
1, 107776, Note_on_c, 0, 70, 0
1, 107776, Note_on_c, 0, 66, 104
1, 107776, Note_on_c, 0, 78, 104
1, 107888, Note_on_c, 0, 66, 0
1, 107888, Note_on_c, 0, 78, 0
1, 107904, Note_on_c, 0, 73, 67
1, 108032, Note_on_c, 0, 73, 0
1, 108032, Note_on_c, 0, 81, 96
1, 108160, Note_on_c, 0, 81, 0
1, 108160, Note_on_c, 0, 78, 75
1, 108288, Note_on_c, 0, 78, 0
1, 108288, Note_on_c, 0, 73, 65
1, 108416, Note_on_c, 0, 73, 0
1, 108416, Note_on_c, 0, 81, 87
1, 108544, Note_on_c, 0, 81, 0
1, 108544, Note_on_c, 0, 80, 72
1, 108544, Note_on_c, 0, 66, 72
1, 108544, Note_on_c, 0, 71, 72
1, 108672, Note_on_c, 0, 80, 0
1, 108672, Note_on_c, 0, 73, 61
1, 108800, Note_on_c, 0, 73, 0
1, 108800, Note_on_c, 0, 83, 89
1, 108928, Note_on_c, 0, 83, 0
1, 108928, Note_on_c, 0, 80, 71
1, 108928, Note_on_c, 0, 66, 0
1, 108928, Note_on_c, 0, 65, 75
1, 109056, Note_on_c, 0, 80, 0
1, 109056, Note_on_c, 0, 73, 59
1, 109184, Note_on_c, 0, 73, 0
1, 109184, Note_on_c, 0, 83, 91
1, 109312, Note_on_c, 0, 83, 0
1, 109312, Note_on_c, 0, 82, 80
1, 109312, Note_on_c, 0, 65, 0
1, 109312, Note_on_c, 0, 71, 0
1, 109312, Note_on_c, 0, 64, 65
1, 109312, Note_on_c, 0, 67, 65
1, 109440, Note_on_c, 0, 82, 0
1, 109440, Note_on_c, 0, 73, 58
1, 109568, Note_on_c, 0, 73, 0
1, 109568, Note_on_c, 0, 85, 94
1, 109696, Note_on_c, 0, 85, 0
1, 109696, Note_on_c, 0, 82, 73
1, 109696, Note_on_c, 0, 67, 0
1, 109696, Note_on_c, 0, 66, 68
1, 109824, Note_on_c, 0, 82, 0
1, 109824, Note_on_c, 0, 73, 61
1, 109952, Note_on_c, 0, 73, 0
1, 109952, Note_on_c, 0, 85, 90
1, 110080, Note_on_c, 0, 85, 0
1, 110080, Note_on_c, 0, 83, 84
1, 110080, Note_on_c, 0, 64, 0
1, 110080, Note_on_c, 0, 66, 0
1, 110080, Note_on_c, 0, 59, 82
1, 110192, Note_on_c, 0, 83, 0
1, 110192, Note_on_c, 0, 59, 0
1, 110208, Note_on_c, 0, 54, 71
1, 110336, Note_on_c, 0, 54, 0
1, 110336, Note_on_c, 0, 62, 93
1, 110464, Note_on_c, 0, 62, 0
1, 110464, Note_on_c, 0, 59, 78
1, 110592, Note_on_c, 0, 59, 0
1, 110592, Note_on_c, 0, 54, 66
1, 110720, Note_on_c, 0, 62, 66
1, 110720, Note_on_c, 0, 54, 0
1, 110848, Note_on_c, 0, 62, 0
1, 110848, Note_on_c, 0, 76, 95
1, 110848, Note_on_c, 0, 83, 95
1, 110848, Note_on_c, 0, 61, 67
1, 110976, Note_on_c, 0, 61, 0
1, 110976, Note_on_c, 0, 54, 70
1, 111104, Note_on_c, 0, 54, 0
1, 111104, Note_on_c, 0, 64, 93
1, 111232, Note_on_c, 0, 83, 0
1, 111232, Note_on_c, 0, 82, 74
1, 111232, Note_on_c, 0, 64, 0
1, 111232, Note_on_c, 0, 61, 71
1, 111360, Note_on_c, 0, 61, 0
1, 111360, Note_on_c, 0, 54, 65
1, 111488, Note_on_c, 0, 54, 0
1, 111488, Note_on_c, 0, 64, 94
1, 111616, Note_on_c, 0, 76, 0
1, 111616, Note_on_c, 0, 82, 0
1, 111616, Note_on_c, 0, 72, 76
1, 111616, Note_on_c, 0, 81, 76
1, 111616, Note_on_c, 0, 64, 0
1, 111616, Note_on_c, 0, 63, 69
1, 111744, Note_on_c, 0, 63, 0
1, 111744, Note_on_c, 0, 54, 69
1, 111872, Note_on_c, 0, 54, 0
1, 111872, Note_on_c, 0, 66, 100
1, 112000, Note_on_c, 0, 72, 0
1, 112000, Note_on_c, 0, 66, 0
1, 112000, Note_on_c, 0, 63, 91
1, 112000, Note_on_c, 0, 71, 91
1, 112128, Note_on_c, 0, 63, 0
1, 112128, Note_on_c, 0, 54, 78
1, 112256, Note_on_c, 0, 54, 0
1, 112256, Note_on_c, 0, 66, 71
1, 112384, Note_on_c, 0, 81, 0
1, 112384, Note_on_c, 0, 76, 79
1, 112384, Note_on_c, 0, 66, 0
1, 112384, Note_on_c, 0, 71, 0
1, 112384, Note_on_c, 0, 64, 70
1, 112496, Note_on_c, 0, 76, 0
1, 112496, Note_on_c, 0, 64, 0
1, 112512, Note_on_c, 0, 71, 66
1, 112640, Note_on_c, 0, 71, 0
1, 112640, Note_on_c, 0, 79, 90
1, 112768, Note_on_c, 0, 79, 0
1, 112768, Note_on_c, 0, 76, 76
1, 112896, Note_on_c, 0, 76, 0
1, 112896, Note_on_c, 0, 71, 65
1, 113024, Note_on_c, 0, 71, 0
1, 113024, Note_on_c, 0, 79, 85
1, 113152, Note_on_c, 0, 79, 0
1, 113152, Note_on_c, 0, 78, 74
1, 113152, Note_on_c, 0, 59, 65
1, 113152, Note_on_c, 0, 64, 65
1, 113280, Note_on_c, 0, 78, 0
1, 113280, Note_on_c, 0, 71, 59
1, 113408, Note_on_c, 0, 71, 0
1, 113408, Note_on_c, 0, 81, 87
1, 113536, Note_on_c, 0, 81, 0
1, 113536, Note_on_c, 0, 78, 72
1, 113536, Note_on_c, 0, 64, 0
1, 113536, Note_on_c, 0, 63, 71
1, 113664, Note_on_c, 0, 78, 0
1, 113664, Note_on_c, 0, 71, 66
1, 113792, Note_on_c, 0, 71, 0
1, 113792, Note_on_c, 0, 81, 87
1, 113920, Note_on_c, 0, 81, 0
1, 113920, Note_on_c, 0, 80, 73
1, 113920, Note_on_c, 0, 59, 0
1, 113920, Note_on_c, 0, 63, 0
1, 113920, Note_on_c, 0, 53, 75
1, 113920, Note_on_c, 0, 62, 75
1, 114048, Note_on_c, 0, 80, 0
1, 114048, Note_on_c, 0, 71, 57
1, 114176, Note_on_c, 0, 71, 0
1, 114176, Note_on_c, 0, 83, 91
1, 114304, Note_on_c, 0, 83, 0
1, 114304, Note_on_c, 0, 80, 69
1, 114304, Note_on_c, 0, 53, 0
1, 114304, Note_on_c, 0, 52, 81
1, 114432, Note_on_c, 0, 80, 0
1, 114432, Note_on_c, 0, 71, 61
1, 114560, Note_on_c, 0, 71, 0
1, 114560, Note_on_c, 0, 83, 90
1, 114688, Note_on_c, 0, 83, 0
1, 114688, Note_on_c, 0, 81, 87
1, 114688, Note_on_c, 0, 52, 0
1, 114688, Note_on_c, 0, 62, 0
1, 114688, Note_on_c, 0, 61, 88
1, 114800, Note_on_c, 0, 81, 0
1, 114800, Note_on_c, 0, 61, 0
1, 114816, Note_on_c, 0, 57, 72
1, 114944, Note_on_c, 0, 64, 71
1, 114944, Note_on_c, 0, 57, 0
1, 115072, Note_on_c, 0, 64, 0
1, 115072, Note_on_c, 0, 61, 66
1, 115200, Note_on_c, 0, 61, 0
1, 115200, Note_on_c, 0, 57, 69
1, 115328, Note_on_c, 0, 64, 72
1, 115328, Note_on_c, 0, 57, 0
1, 115456, Note_on_c, 0, 64, 0
1, 115456, Note_on_c, 0, 81, 101
1, 115456, Note_on_c, 0, 62, 70
1, 115456, Note_on_c, 0, 70, 70
1, 115584, Note_on_c, 0, 62, 0
1, 115584, Note_on_c, 0, 57, 69
1, 115712, Note_on_c, 0, 57, 0
1, 115712, Note_on_c, 0, 65, 76
1, 115840, Note_on_c, 0, 65, 0
1, 115840, Note_on_c, 0, 70, 0
1, 115840, Note_on_c, 0, 63, 80
1, 115840, Note_on_c, 0, 71, 80
1, 115968, Note_on_c, 0, 63, 0
1, 115968, Note_on_c, 0, 57, 79
1, 116096, Note_on_c, 0, 57, 0
1, 116096, Note_on_c, 0, 66, 74
1, 116224, Note_on_c, 0, 81, 0
1, 116224, Note_on_c, 0, 81, 82
1, 116224, Note_on_c, 0, 66, 0
1, 116224, Note_on_c, 0, 71, 0
1, 116224, Note_on_c, 0, 64, 75
1, 116224, Note_on_c, 0, 72, 75
1, 116352, Note_on_c, 0, 64, 0
1, 116352, Note_on_c, 0, 57, 78
1, 116480, Note_on_c, 0, 57, 0
1, 116480, Note_on_c, 0, 67, 81
1, 116608, Note_on_c, 0, 73, 74
1, 116608, Note_on_c, 0, 67, 0
1, 116608, Note_on_c, 0, 72, 0
1, 116608, Note_on_c, 0, 64, 66
1, 116736, Note_on_c, 0, 64, 0
1, 116736, Note_on_c, 0, 57, 61
1, 116864, Note_on_c, 0, 57, 0
1, 116864, Note_on_c, 0, 67, 91
1, 116992, Note_on_c, 0, 73, 0
1, 116992, Note_on_c, 0, 81, 0
1, 116992, Note_on_c, 0, 74, 76
1, 116992, Note_on_c, 0, 81, 76
1, 116992, Note_on_c, 0, 67, 0
1, 116992, Note_on_c, 0, 66, 73
1, 117120, Note_on_c, 0, 66, 0
1, 117120, Note_on_c, 0, 57, 70
1, 117248, Note_on_c, 0, 69, 72
1, 117248, Note_on_c, 0, 57, 0
1, 117376, Note_on_c, 0, 69, 0
1, 117376, Note_on_c, 0, 74, 0
1, 117376, Note_on_c, 0, 75, 78
1, 117376, Note_on_c, 0, 65, 65
1, 117504, Note_on_c, 0, 65, 0
1, 117504, Note_on_c, 0, 57, 69
1, 117632, Note_on_c, 0, 69, 75
1, 117632, Note_on_c, 0, 57, 0
1, 117760, Note_on_c, 0, 69, 0
1, 117760, Note_on_c, 0, 75, 0
1, 117760, Note_on_c, 0, 81, 0
1, 117760, Note_on_c, 0, 76, 78
1, 117760, Note_on_c, 0, 81, 78
1, 117760, Note_on_c, 0, 64, 66
1, 117888, Note_on_c, 0, 64, 0
1, 117888, Note_on_c, 0, 57, 73
1, 118016, Note_on_c, 0, 69, 81
1, 118016, Note_on_c, 0, 57, 0
1, 118144, Note_on_c, 0, 69, 0
1, 118144, Note_on_c, 0, 76, 0
1, 118144, Note_on_c, 0, 78, 74
1, 118144, Note_on_c, 0, 62, 65
1, 118272, Note_on_c, 0, 62, 0
1, 118272, Note_on_c, 0, 57, 67
1, 118400, Note_on_c, 0, 69, 74
1, 118400, Note_on_c, 0, 57, 0
1, 118528, Note_on_c, 0, 69, 0
1, 118528, Note_on_c, 0, 78, 0
1, 118528, Note_on_c, 0, 81, 0
1, 118528, Note_on_c, 0, 79, 69
1, 118528, Note_on_c, 0, 57, 69
1, 118528, Note_on_c, 0, 61, 69
1, 118592, Note_on_c, 0, 79, 0
1, 118592, Note_on_c, 0, 81, 83
1, 118656, Note_on_c, 0, 81, 0
1, 118656, Note_on_c, 0, 83, 85
1, 118720, Note_on_c, 0, 83, 0
1, 118720, Note_on_c, 0, 81, 70
1, 118720, Note_on_c, 0, 57, 0
1, 118720, Note_on_c, 0, 61, 0
1, 118784, Note_on_c, 0, 81, 0
1, 118784, Note_on_c, 0, 79, 67
1, 118848, Note_on_c, 0, 79, 0
1, 118848, Note_on_c, 0, 78, 74
1, 118912, Note_on_c, 0, 78, 0
1, 118912, Note_on_c, 0, 76, 69
1, 118976, Note_on_c, 0, 76, 0
1, 118976, Note_on_c, 0, 78, 76
1, 119040, Note_on_c, 0, 78, 0
1, 119040, Note_on_c, 0, 79, 83
1, 119104, Note_on_c, 0, 79, 0
1, 119104, Note_on_c, 0, 78, 76
1, 119168, Note_on_c, 0, 78, 0
1, 119168, Note_on_c, 0, 76, 70
1, 119232, Note_on_c, 0, 76, 0
1, 119232, Note_on_c, 0, 74, 68
1, 119296, Note_on_c, 0, 74, 0
1, 119296, Note_on_c, 0, 73, 72
1, 119360, Note_on_c, 0, 73, 0
1, 119360, Note_on_c, 0, 74, 79
1, 119424, Note_on_c, 0, 74, 0
1, 119424, Note_on_c, 0, 76, 81
1, 119488, Note_on_c, 0, 76, 0
1, 119488, Note_on_c, 0, 74, 75
1, 119552, Note_on_c, 0, 74, 0
1, 119552, Note_on_c, 0, 73, 74
1, 119616, Note_on_c, 0, 73, 0
1, 119616, Note_on_c, 0, 71, 67
1, 119680, Note_on_c, 0, 71, 0
1, 119680, Note_on_c, 0, 69, 68
1, 119744, Note_on_c, 0, 69, 0
1, 119744, Note_on_c, 0, 71, 79
1, 119808, Note_on_c, 0, 71, 0
1, 119808, Note_on_c, 0, 69, 71
1, 119872, Note_on_c, 0, 69, 0
1, 119872, Note_on_c, 0, 67, 71
1, 119936, Note_on_c, 0, 67, 0
1, 119936, Note_on_c, 0, 66, 69
1, 119936, Note_on_c, 0, 45, 67
1, 120000, Note_on_c, 0, 66, 0
1, 120000, Note_on_c, 0, 64, 73
1, 120064, Note_on_c, 0, 64, 0
1, 120064, Note_on_c, 0, 62, 72
1, 120064, Note_on_c, 0, 45, 0
1, 120064, Note_on_c, 0, 50, 77
1, 120192, Note_on_c, 0, 62, 0
1, 120192, Note_on_c, 0, 50, 0
1, 120192, Note_on_c, 0, 45, 78
1, 120192, Note_on_c, 0, 57, 78
1, 120320, Note_on_c, 0, 62, 69
1, 120320, Note_on_c, 0, 45, 0
1, 120320, Note_on_c, 0, 57, 0
1, 120320, Note_on_c, 0, 50, 64
1, 120448, Note_on_c, 0, 62, 0
1, 120448, Note_on_c, 0, 66, 79
1, 120448, Note_on_c, 0, 50, 0
1, 120448, Note_on_c, 0, 54, 80
1, 120576, Note_on_c, 0, 66, 0
1, 120576, Note_on_c, 0, 54, 0
1, 120576, Note_on_c, 0, 62, 70
1, 120576, Note_on_c, 0, 50, 70
1, 120704, Note_on_c, 0, 62, 0
1, 120704, Note_on_c, 0, 66, 85
1, 120704, Note_on_c, 0, 50, 0
1, 120704, Note_on_c, 0, 54, 80
1, 120832, Note_on_c, 0, 66, 0
1, 120832, Note_on_c, 0, 69, 86
1, 120832, Note_on_c, 0, 54, 0
1, 120832, Note_on_c, 0, 57, 78
1, 121088, Note_on_c, 0, 69, 0
1, 121088, Note_on_c, 0, 69, 74
1, 121088, Note_on_c, 0, 57, 0
1, 121088, Note_on_c, 0, 57, 79
1, 121216, Note_on_c, 0, 69, 0
1, 121216, Note_on_c, 0, 69, 74
1, 121216, Note_on_c, 0, 57, 0
1, 121216, Note_on_c, 0, 57, 76
1, 121472, Note_on_c, 0, 69, 0
1, 121472, Note_on_c, 0, 67, 80
1, 121472, Note_on_c, 0, 73, 80
1, 121472, Note_on_c, 0, 74, 80
1, 121472, Note_on_c, 0, 57, 0
1, 121514, Note_on_c, 0, 73, 0
1, 121514, Note_on_c, 0, 74, 0
1, 121514, Note_on_c, 0, 73, 73
1, 121557, Note_on_c, 0, 73, 0
1, 121557, Note_on_c, 0, 71, 80
1, 121557, Note_on_c, 0, 73, 80
1, 121600, Note_on_c, 0, 67, 0
1, 121600, Note_on_c, 0, 71, 0
1, 121600, Note_on_c, 0, 73, 0
1, 121600, Note_on_c, 0, 66, 83
1, 121600, Note_on_c, 0, 74, 83
1, 121791, Note_on_c, 0, 66, 0
1, 121791, Note_on_c, 0, 74, 0
1, 121856, Note_on_c, 0, 76, 83
1, 121856, Note_on_c, 0, 78, 83
1, 121856, Note_on_c, 0, 61, 67
1, 121898, Note_on_c, 0, 76, 0
1, 121898, Note_on_c, 0, 78, 0
1, 121898, Note_on_c, 0, 76, 75
1, 121941, Note_on_c, 0, 76, 0
1, 121941, Note_on_c, 0, 74, 79
1, 121941, Note_on_c, 0, 76, 79
1, 121984, Note_on_c, 0, 74, 0
1, 121984, Note_on_c, 0, 76, 0
1, 121984, Note_on_c, 0, 78, 81
1, 121984, Note_on_c, 0, 61, 0
1, 121984, Note_on_c, 0, 62, 77
1, 122112, Note_on_c, 0, 78, 0
1, 122112, Note_on_c, 0, 62, 0
1, 122240, Note_on_c, 0, 81, 69
1, 122240, Note_on_c, 0, 55, 70
1, 122240, Note_on_c, 0, 64, 70
1, 122304, Note_on_c, 0, 81, 0
1, 122304, Note_on_c, 0, 79, 72
1, 122368, Note_on_c, 0, 79, 0
1, 122368, Note_on_c, 0, 78, 71
1, 122368, Note_on_c, 0, 55, 0
1, 122368, Note_on_c, 0, 64, 0
1, 122368, Note_on_c, 0, 57, 72
1, 122368, Note_on_c, 0, 62, 72
1, 122752, Note_on_c, 0, 78, 0
1, 122752, Note_on_c, 0, 76, 70
1, 122752, Note_on_c, 0, 57, 0
1, 122752, Note_on_c, 0, 62, 0
1, 122752, Note_on_c, 0, 61, 73
1, 122880, Note_on_c, 0, 76, 0
1, 122880, Note_on_c, 0, 61, 0
1, 123008, Note_on_c, 0, 47, 66
1, 123008, Note_on_c, 0, 59, 66
1, 123136, Note_on_c, 0, 64, 64
1, 123136, Note_on_c, 0, 47, 0
1, 123136, Note_on_c, 0, 59, 0
1, 123136, Note_on_c, 0, 52, 69
1, 123264, Note_on_c, 0, 64, 0
1, 123264, Note_on_c, 0, 52, 0
1, 123264, Note_on_c, 0, 47, 82
1, 123264, Note_on_c, 0, 59, 82
1, 123392, Note_on_c, 0, 64, 63
1, 123392, Note_on_c, 0, 47, 0
1, 123392, Note_on_c, 0, 59, 0
1, 123392, Note_on_c, 0, 52, 69
1, 123520, Note_on_c, 0, 64, 0
1, 123520, Note_on_c, 0, 67, 82
1, 123520, Note_on_c, 0, 52, 0
1, 123520, Note_on_c, 0, 55, 76
1, 123648, Note_on_c, 0, 67, 0
1, 123648, Note_on_c, 0, 55, 0
1, 123648, Note_on_c, 0, 64, 69
1, 123648, Note_on_c, 0, 52, 69
1, 123776, Note_on_c, 0, 64, 0
1, 123776, Note_on_c, 0, 67, 78
1, 123776, Note_on_c, 0, 52, 0
1, 123776, Note_on_c, 0, 55, 80
1, 123904, Note_on_c, 0, 67, 0
1, 123904, Note_on_c, 0, 71, 82
1, 123904, Note_on_c, 0, 55, 0
1, 123904, Note_on_c, 0, 59, 82
1, 124160, Note_on_c, 0, 71, 0
1, 124160, Note_on_c, 0, 71, 78
1, 124160, Note_on_c, 0, 59, 0
1, 124160, Note_on_c, 0, 59, 72
1, 124288, Note_on_c, 0, 71, 0
1, 124288, Note_on_c, 0, 71, 73
1, 124288, Note_on_c, 0, 59, 0
1, 124288, Note_on_c, 0, 59, 77
1, 124544, Note_on_c, 0, 71, 0
1, 124544, Note_on_c, 0, 66, 84
1, 124544, Note_on_c, 0, 69, 84
1, 124544, Note_on_c, 0, 75, 84
1, 124544, Note_on_c, 0, 59, 0
1, 124672, Note_on_c, 0, 66, 0
1, 124672, Note_on_c, 0, 69, 0
1, 124672, Note_on_c, 0, 75, 0
1, 124672, Note_on_c, 0, 67, 84
1, 124672, Note_on_c, 0, 71, 84
1, 124672, Note_on_c, 0, 78, 84
1, 124736, Note_on_c, 0, 78, 0
1, 124736, Note_on_c, 0, 76, 70
1, 124800, Note_on_c, 0, 76, 0
1, 124800, Note_on_c, 0, 79, 82
1, 124864, Note_on_c, 0, 79, 0
1, 124864, Note_on_c, 0, 78, 74
1, 124928, Note_on_c, 0, 67, 0
1, 124928, Note_on_c, 0, 71, 0
1, 124928, Note_on_c, 0, 78, 0
1, 124928, Note_on_c, 0, 81, 80
1, 124992, Note_on_c, 0, 81, 0
1, 124992, Note_on_c, 0, 79, 74
1, 125056, Note_on_c, 0, 79, 0
1, 125056, Note_on_c, 0, 83, 84
1, 125184, Note_on_c, 0, 83, 0
1, 125312, Note_on_c, 0, 73, 69
1, 125312, Note_on_c, 0, 57, 65
1, 125312, Note_on_c, 0, 64, 65
1, 125440, Note_on_c, 0, 73, 0
1, 125440, Note_on_c, 0, 76, 77
1, 125440, Note_on_c, 0, 57, 0
1, 125440, Note_on_c, 0, 64, 0
1, 125440, Note_on_c, 0, 62, 82
1, 125440, Note_on_c, 0, 67, 82
1, 125824, Note_on_c, 0, 76, 0
1, 125824, Note_on_c, 0, 66, 73
1, 125824, Note_on_c, 0, 74, 73
1, 125824, Note_on_c, 0, 62, 0
1, 125824, Note_on_c, 0, 67, 0
1, 125952, Note_on_c, 0, 66, 0
1, 125952, Note_on_c, 0, 74, 0
1, 126080, Note_on_c, 0, 45, 69
1, 126208, Note_on_c, 0, 45, 0
1, 126208, Note_on_c, 0, 50, 78
1, 126336, Note_on_c, 0, 74, 71
1, 126336, Note_on_c, 0, 50, 0
1, 126336, Note_on_c, 0, 45, 72
1, 126464, Note_on_c, 0, 74, 0
1, 126464, Note_on_c, 0, 78, 76
1, 126464, Note_on_c, 0, 45, 0
1, 126464, Note_on_c, 0, 50, 79
1, 126592, Note_on_c, 0, 78, 0
1, 126592, Note_on_c, 0, 81, 81
1, 126592, Note_on_c, 0, 50, 0
1, 126592, Note_on_c, 0, 54, 80
1, 126720, Note_on_c, 0, 81, 0
1, 126720, Note_on_c, 0, 54, 0
1, 126720, Note_on_c, 0, 78, 69
1, 126720, Note_on_c, 0, 50, 67
1, 126848, Note_on_c, 0, 78, 0
1, 126848, Note_on_c, 0, 86, 103
1, 126848, Note_on_c, 0, 50, 0
1, 126848, Note_on_c, 0, 54, 91
1, 126960, Note_on_c, 0, 86, 0
1, 126960, Note_on_c, 0, 54, 0
1, 126976, Note_on_c, 0, 57, 80
1, 127040, Note_on_c, 0, 85, 66
1, 127104, Note_on_c, 0, 85, 0
1, 127104, Note_on_c, 0, 88, 82
1, 127168, Note_on_c, 0, 88, 0
1, 127168, Note_on_c, 0, 86, 70
1, 127232, Note_on_c, 0, 86, 0
1, 127232, Note_on_c, 0, 85, 71
1, 127232, Note_on_c, 0, 57, 0
1, 127232, Note_on_c, 0, 57, 75
1, 127296, Note_on_c, 0, 85, 0
1, 127296, Note_on_c, 0, 83, 69
1, 127360, Note_on_c, 0, 83, 0
1, 127360, Note_on_c, 0, 81, 73
1, 127360, Note_on_c, 0, 57, 0
1, 127360, Note_on_c, 0, 57, 73
1, 127424, Note_on_c, 0, 81, 0
1, 127424, Note_on_c, 0, 83, 81
1, 127488, Note_on_c, 0, 83, 0
1, 127488, Note_on_c, 0, 81, 76
1, 127552, Note_on_c, 0, 81, 0
1, 127552, Note_on_c, 0, 79, 70
1, 127616, Note_on_c, 0, 79, 0
1, 127616, Note_on_c, 0, 67, 71
1, 127616, Note_on_c, 0, 78, 71
1, 127616, Note_on_c, 0, 57, 0
1, 127680, Note_on_c, 0, 78, 0
1, 127680, Note_on_c, 0, 76, 72
1, 127744, Note_on_c, 0, 76, 0
1, 127744, Note_on_c, 0, 74, 72
1, 127808, Note_on_c, 0, 67, 0
1, 127808, Note_on_c, 0, 66, 77
1, 127872, Note_on_c, 0, 66, 0
1, 127872, Note_on_c, 0, 69, 78
1, 127936, Note_on_c, 0, 69, 0
1, 127936, Note_on_c, 0, 74, 0
1, 127936, Note_on_c, 0, 67, 63
1, 128000, Note_on_c, 0, 67, 0
1, 128000, Note_on_c, 0, 66, 84
1, 128000, Note_on_c, 0, 74, 84
1, 128064, Note_on_c, 0, 66, 0
1, 128064, Note_on_c, 0, 74, 0
1, 128064, Note_on_c, 0, 64, 66
1, 128128, Note_on_c, 0, 64, 0
1, 128128, Note_on_c, 0, 62, 93
1, 128128, Note_on_c, 0, 74, 93
1, 128192, Note_on_c, 0, 62, 0
1, 128192, Note_on_c, 0, 74, 0
1, 128192, Note_on_c, 0, 64, 59
1, 128256, Note_on_c, 0, 64, 0
1, 128256, Note_on_c, 0, 62, 72
1, 128320, Note_on_c, 0, 62, 0
1, 128320, Note_on_c, 0, 60, 73
1, 128384, Note_on_c, 0, 60, 0
1, 128384, Note_on_c, 0, 62, 79
1, 128384, Note_on_c, 0, 59, 70
1, 128448, Note_on_c, 0, 62, 0
1, 128448, Note_on_c, 0, 59, 0
1, 128448, Note_on_c, 0, 57, 72
1, 128512, Note_on_c, 0, 67, 67
1, 128512, Note_on_c, 0, 57, 0
1, 128512, Note_on_c, 0, 55, 71
1, 128640, Note_on_c, 0, 67, 0
1, 128640, Note_on_c, 0, 62, 69
1, 128640, Note_on_c, 0, 55, 0
1, 128640, Note_on_c, 0, 43, 66
1, 128768, Note_on_c, 0, 62, 0
1, 128768, Note_on_c, 0, 67, 88
1, 128768, Note_on_c, 0, 43, 0
1, 128768, Note_on_c, 0, 47, 75
1, 128896, Note_on_c, 0, 67, 0
1, 128896, Note_on_c, 0, 71, 91
1, 128896, Note_on_c, 0, 47, 0
1, 128896, Note_on_c, 0, 50, 81
1, 129024, Note_on_c, 0, 71, 0
1, 129024, Note_on_c, 0, 50, 0
1, 129024, Note_on_c, 0, 67, 69
1, 129024, Note_on_c, 0, 47, 70
1, 129152, Note_on_c, 0, 67, 0
1, 129152, Note_on_c, 0, 71, 94
1, 129152, Note_on_c, 0, 47, 0
1, 129152, Note_on_c, 0, 55, 98
1, 129264, Note_on_c, 0, 71, 0
1, 129264, Note_on_c, 0, 55, 0
1, 129280, Note_on_c, 0, 74, 84
1, 129344, Note_on_c, 0, 54, 68
1, 129408, Note_on_c, 0, 54, 0
1, 129408, Note_on_c, 0, 57, 78
1, 129472, Note_on_c, 0, 57, 0
1, 129472, Note_on_c, 0, 55, 70
1, 129536, Note_on_c, 0, 74, 0
1, 129536, Note_on_c, 0, 74, 77
1, 129536, Note_on_c, 0, 55, 0
1, 129536, Note_on_c, 0, 54, 77
1, 129600, Note_on_c, 0, 74, 0
1, 129600, Note_on_c, 0, 54, 0
1, 129600, Note_on_c, 0, 52, 75
1, 129664, Note_on_c, 0, 74, 70
1, 129664, Note_on_c, 0, 52, 0
1, 129664, Note_on_c, 0, 50, 74
1, 129728, Note_on_c, 0, 74, 0
1, 129728, Note_on_c, 0, 50, 0
1, 129728, Note_on_c, 0, 52, 79
1, 129792, Note_on_c, 0, 52, 0
1, 129792, Note_on_c, 0, 50, 69
1, 129856, Note_on_c, 0, 50, 0
1, 129856, Note_on_c, 0, 48, 78
1, 129920, Note_on_c, 0, 72, 67
1, 129920, Note_on_c, 0, 48, 0
1, 129920, Note_on_c, 0, 47, 79
1, 129984, Note_on_c, 0, 47, 0
1, 129984, Note_on_c, 0, 45, 72
1, 130048, Note_on_c, 0, 45, 0
1, 130048, Note_on_c, 0, 43, 68
1, 130112, Note_on_c, 0, 72, 0
1, 130112, Note_on_c, 0, 71, 72
1, 130112, Note_on_c, 0, 43, 0
1, 130176, Note_on_c, 0, 71, 0
1, 130176, Note_on_c, 0, 74, 82
1, 130240, Note_on_c, 0, 74, 0
1, 130240, Note_on_c, 0, 72, 71
1, 130304, Note_on_c, 0, 72, 0
1, 130304, Note_on_c, 0, 60, 74
1, 130304, Note_on_c, 0, 71, 74
1, 130368, Note_on_c, 0, 71, 0
1, 130368, Note_on_c, 0, 69, 68
1, 130432, Note_on_c, 0, 69, 0
1, 130432, Note_on_c, 0, 67, 66
1, 130496, Note_on_c, 0, 60, 0
1, 130496, Note_on_c, 0, 67, 0
1, 130496, Note_on_c, 0, 59, 68
1, 130560, Note_on_c, 0, 59, 0
1, 130560, Note_on_c, 0, 62, 69
1, 130624, Note_on_c, 0, 62, 0
1, 130624, Note_on_c, 0, 60, 69
1, 130688, Note_on_c, 0, 60, 0
1, 130688, Note_on_c, 0, 84, 95
1, 130688, Note_on_c, 0, 59, 67
1, 130752, Note_on_c, 0, 59, 0
1, 130752, Note_on_c, 0, 57, 74
1, 130816, Note_on_c, 0, 57, 0
1, 130816, Note_on_c, 0, 55, 77
1, 130880, Note_on_c, 0, 84, 0
1, 130880, Note_on_c, 0, 83, 80
1, 130880, Note_on_c, 0, 55, 0
1, 130944, Note_on_c, 0, 83, 0
1, 130944, Note_on_c, 0, 86, 81
1, 131008, Note_on_c, 0, 86, 0
1, 131008, Note_on_c, 0, 84, 68
1, 131072, Note_on_c, 0, 84, 0
1, 131072, Note_on_c, 0, 72, 72
1, 131072, Note_on_c, 0, 83, 72
1, 131136, Note_on_c, 0, 83, 0
1, 131136, Note_on_c, 0, 81, 69
1, 131200, Note_on_c, 0, 81, 0
1, 131200, Note_on_c, 0, 80, 71
1, 131264, Note_on_c, 0, 72, 0
1, 131264, Note_on_c, 0, 80, 0
1, 131264, Note_on_c, 0, 71, 55
1, 131328, Note_on_c, 0, 71, 0
1, 131328, Note_on_c, 0, 76, 83
1, 131392, Note_on_c, 0, 76, 0
1, 131392, Note_on_c, 0, 74, 73
1, 131456, Note_on_c, 0, 74, 0
1, 131456, Note_on_c, 0, 72, 72
1, 131520, Note_on_c, 0, 72, 0
1, 131520, Note_on_c, 0, 71, 72
1, 131584, Note_on_c, 0, 71, 0
1, 131584, Note_on_c, 0, 69, 69
1, 131648, Note_on_c, 0, 69, 0
1, 131648, Note_on_c, 0, 72, 84
1, 131712, Note_on_c, 0, 72, 0
1, 131712, Note_on_c, 0, 76, 84
1, 131776, Note_on_c, 0, 76, 0
1, 131776, Note_on_c, 0, 74, 68
1, 131840, Note_on_c, 0, 74, 0
1, 131840, Note_on_c, 0, 62, 69
1, 131840, Note_on_c, 0, 72, 69
1, 131904, Note_on_c, 0, 72, 0
1, 131904, Note_on_c, 0, 71, 72
1, 131968, Note_on_c, 0, 71, 0
1, 131968, Note_on_c, 0, 69, 73
1, 132032, Note_on_c, 0, 62, 0
1, 132032, Note_on_c, 0, 69, 0
1, 132032, Note_on_c, 0, 60, 55
1, 132096, Note_on_c, 0, 60, 0
1, 132096, Note_on_c, 0, 64, 82
1, 132160, Note_on_c, 0, 64, 0
1, 132160, Note_on_c, 0, 62, 69
1, 132224, Note_on_c, 0, 62, 0
1, 132224, Note_on_c, 0, 86, 99
1, 132224, Note_on_c, 0, 60, 68
1, 132288, Note_on_c, 0, 60, 0
1, 132288, Note_on_c, 0, 59, 77
1, 132352, Note_on_c, 0, 59, 0
1, 132352, Note_on_c, 0, 57, 73
1, 132416, Note_on_c, 0, 86, 0
1, 132416, Note_on_c, 0, 84, 74
1, 132416, Note_on_c, 0, 57, 0
1, 132480, Note_on_c, 0, 84, 0
1, 132480, Note_on_c, 0, 88, 84
1, 132544, Note_on_c, 0, 88, 0
1, 132544, Note_on_c, 0, 86, 73
1, 132608, Note_on_c, 0, 86, 0
1, 132608, Note_on_c, 0, 74, 73
1, 132608, Note_on_c, 0, 84, 73
1, 132672, Note_on_c, 0, 84, 0
1, 132672, Note_on_c, 0, 83, 72
1, 132736, Note_on_c, 0, 83, 0
1, 132736, Note_on_c, 0, 82, 69
1, 132800, Note_on_c, 0, 74, 0
1, 132800, Note_on_c, 0, 82, 0
1, 132800, Note_on_c, 0, 73, 58
1, 132864, Note_on_c, 0, 73, 0
1, 132864, Note_on_c, 0, 78, 84
1, 132928, Note_on_c, 0, 78, 0
1, 132928, Note_on_c, 0, 76, 75
1, 132992, Note_on_c, 0, 76, 0
1, 132992, Note_on_c, 0, 74, 69
1, 133056, Note_on_c, 0, 74, 0
1, 133056, Note_on_c, 0, 73, 68
1, 133120, Note_on_c, 0, 73, 0
1, 133120, Note_on_c, 0, 71, 72
1, 133184, Note_on_c, 0, 71, 0
1, 133184, Note_on_c, 0, 74, 83
1, 133248, Note_on_c, 0, 74, 0
1, 133248, Note_on_c, 0, 78, 82
1, 133312, Note_on_c, 0, 78, 0
1, 133312, Note_on_c, 0, 76, 73
1, 133376, Note_on_c, 0, 76, 0
1, 133376, Note_on_c, 0, 64, 69
1, 133376, Note_on_c, 0, 74, 69
1, 133440, Note_on_c, 0, 74, 0
1, 133440, Note_on_c, 0, 73, 68
1, 133504, Note_on_c, 0, 73, 0
1, 133504, Note_on_c, 0, 71, 72
1, 133568, Note_on_c, 0, 64, 0
1, 133568, Note_on_c, 0, 71, 0
1, 133568, Note_on_c, 0, 62, 54
1, 133632, Note_on_c, 0, 62, 0
1, 133632, Note_on_c, 0, 67, 86
1, 133696, Note_on_c, 0, 67, 0
1, 133696, Note_on_c, 0, 66, 75
1, 133760, Note_on_c, 0, 66, 0
1, 133760, Note_on_c, 0, 78, 96
1, 133760, Note_on_c, 0, 64, 71
1, 133824, Note_on_c, 0, 64, 0
1, 133824, Note_on_c, 0, 62, 71
1, 133888, Note_on_c, 0, 62, 0
1, 133888, Note_on_c, 0, 61, 69
1, 133952, Note_on_c, 0, 78, 0
1, 133952, Note_on_c, 0, 76, 75
1, 133952, Note_on_c, 0, 61, 0
1, 134016, Note_on_c, 0, 76, 0
1, 134016, Note_on_c, 0, 79, 81
1, 134080, Note_on_c, 0, 79, 0
1, 134080, Note_on_c, 0, 78, 75
1, 134144, Note_on_c, 0, 78, 0
1, 134144, Note_on_c, 0, 66, 70
1, 134144, Note_on_c, 0, 76, 70
1, 134208, Note_on_c, 0, 76, 0
1, 134208, Note_on_c, 0, 74, 67
1, 134272, Note_on_c, 0, 74, 0
1, 134272, Note_on_c, 0, 73, 69
1, 134336, Note_on_c, 0, 66, 0
1, 134336, Note_on_c, 0, 73, 0
1, 134336, Note_on_c, 0, 64, 55
1, 134400, Note_on_c, 0, 64, 0
1, 134400, Note_on_c, 0, 69, 85
1, 134464, Note_on_c, 0, 69, 0
1, 134464, Note_on_c, 0, 67, 74
1, 134528, Note_on_c, 0, 67, 0
1, 134528, Note_on_c, 0, 79, 95
1, 134528, Note_on_c, 0, 66, 68
1, 134592, Note_on_c, 0, 79, 0
1, 134592, Note_on_c, 0, 66, 0
1, 134592, Note_on_c, 0, 64, 67
1, 134656, Note_on_c, 0, 78, 69
1, 134656, Note_on_c, 0, 64, 0
1, 134656, Note_on_c, 0, 62, 66
1, 134720, Note_on_c, 0, 78, 0
1, 134720, Note_on_c, 0, 74, 68
1, 134720, Note_on_c, 0, 62, 0
1, 134784, Note_on_c, 0, 74, 0
1, 134784, Note_on_c, 0, 78, 80
1, 134848, Note_on_c, 0, 78, 0
1, 134848, Note_on_c, 0, 81, 88
1, 134912, Note_on_c, 0, 81, 0
1, 134912, Note_on_c, 0, 86, 94
1, 134912, Note_on_c, 0, 64, 66
1, 134912, Note_on_c, 0, 67, 66
1, 134976, Note_on_c, 0, 86, 0
1, 134976, Note_on_c, 0, 85, 73
1, 135040, Note_on_c, 0, 85, 0
1, 135040, Note_on_c, 0, 64, 0
1, 135040, Note_on_c, 0, 67, 0
1, 135040, Note_on_c, 0, 62, 74
1, 135040, Note_on_c, 0, 66, 74
1, 135104, Note_on_c, 0, 71, 67
1, 135168, Note_on_c, 0, 71, 0
1, 135168, Note_on_c, 0, 74, 81
1, 135232, Note_on_c, 0, 74, 0
1, 135232, Note_on_c, 0, 78, 87
1, 135296, Note_on_c, 0, 78, 0
1, 135296, Note_on_c, 0, 83, 89
1, 135296, Note_on_c, 0, 62, 0
1, 135296, Note_on_c, 0, 66, 0
1, 135296, Note_on_c, 0, 61, 69
1, 135296, Note_on_c, 0, 64, 69
1, 135360, Note_on_c, 0, 83, 0
1, 135360, Note_on_c, 0, 81, 73
1, 135424, Note_on_c, 0, 81, 0
1, 135424, Note_on_c, 0, 61, 0
1, 135424, Note_on_c, 0, 64, 0
1, 135424, Note_on_c, 0, 59, 73
1, 135424, Note_on_c, 0, 62, 73
1, 135488, Note_on_c, 0, 67, 66
1, 135552, Note_on_c, 0, 67, 0
1, 135552, Note_on_c, 0, 71, 86
1, 135616, Note_on_c, 0, 71, 0
1, 135616, Note_on_c, 0, 74, 83
1, 135680, Note_on_c, 0, 74, 0
1, 135680, Note_on_c, 0, 79, 90
1, 135680, Note_on_c, 0, 59, 0
1, 135680, Note_on_c, 0, 62, 0
1, 135680, Note_on_c, 0, 57, 72
1, 135680, Note_on_c, 0, 61, 72
1, 135744, Note_on_c, 0, 79, 0
1, 135744, Note_on_c, 0, 78, 76
1, 135808, Note_on_c, 0, 78, 0
1, 135808, Note_on_c, 0, 57, 0
1, 135808, Note_on_c, 0, 61, 0
1, 135808, Note_on_c, 0, 55, 69
1, 135808, Note_on_c, 0, 59, 69
1, 135872, Note_on_c, 0, 64, 71
1, 135936, Note_on_c, 0, 64, 0
1, 135936, Note_on_c, 0, 67, 82
1, 136000, Note_on_c, 0, 67, 0
1, 136000, Note_on_c, 0, 71, 89
1, 136064, Note_on_c, 0, 71, 0
1, 136064, Note_on_c, 0, 76, 91
1, 136064, Note_on_c, 0, 55, 0
1, 136064, Note_on_c, 0, 59, 0
1, 136064, Note_on_c, 0, 56, 78
1, 136064, Note_on_c, 0, 59, 78
1, 136128, Note_on_c, 0, 76, 0
1, 136128, Note_on_c, 0, 74, 75
1, 136192, Note_on_c, 0, 74, 0
1, 136192, Note_on_c, 0, 73, 73
1, 136192, Note_on_c, 0, 56, 0
1, 136192, Note_on_c, 0, 59, 0
1, 136192, Note_on_c, 0, 57, 71
1, 136256, Note_on_c, 0, 73, 0
1, 136256, Note_on_c, 0, 64, 57
1, 136256, Note_on_c, 0, 57, 0
1, 136320, Note_on_c, 0, 64, 0
1, 136320, Note_on_c, 0, 81, 92
1, 136320, Note_on_c, 0, 61, 68
1, 136384, Note_on_c, 0, 81, 0
1, 136384, Note_on_c, 0, 61, 0
1, 136384, Note_on_c, 0, 64, 81
1, 136448, Note_on_c, 0, 74, 68
1, 136448, Note_on_c, 0, 78, 68
1, 136448, Note_on_c, 0, 64, 0
1, 136448, Note_on_c, 0, 62, 74
1, 136512, Note_on_c, 0, 74, 0
1, 136512, Note_on_c, 0, 78, 0
1, 136512, Note_on_c, 0, 62, 0
1, 136512, Note_on_c, 0, 66, 82
1, 136576, Note_on_c, 0, 73, 66
1, 136576, Note_on_c, 0, 76, 66
1, 136576, Note_on_c, 0, 66, 0
1, 136576, Note_on_c, 0, 57, 70
1, 136640, Note_on_c, 0, 73, 0
1, 136640, Note_on_c, 0, 76, 0
1, 136640, Note_on_c, 0, 64, 54
1, 136640, Note_on_c, 0, 57, 0
1, 136704, Note_on_c, 0, 64, 0
1, 136704, Note_on_c, 0, 81, 91
1, 136704, Note_on_c, 0, 61, 65
1, 136768, Note_on_c, 0, 81, 0
1, 136768, Note_on_c, 0, 61, 0
1, 136768, Note_on_c, 0, 64, 84
1, 136832, Note_on_c, 0, 74, 69
1, 136832, Note_on_c, 0, 78, 69
1, 136832, Note_on_c, 0, 64, 0
1, 136832, Note_on_c, 0, 62, 71
1, 136896, Note_on_c, 0, 74, 0
1, 136896, Note_on_c, 0, 78, 0
1, 136896, Note_on_c, 0, 62, 0
1, 136896, Note_on_c, 0, 66, 81
1, 136960, Note_on_c, 0, 73, 69
1, 136960, Note_on_c, 0, 76, 69
1, 136960, Note_on_c, 0, 66, 0
1, 136960, Note_on_c, 0, 57, 71
1, 136960, Note_on_c, 0, 61, 71
1, 136960, Note_on_c, 0, 64, 71
1, 137088, Note_on_c, 0, 73, 0
1, 137088, Note_on_c, 0, 76, 0
1, 137088, Note_on_c, 0, 81, 85
1, 137088, Note_on_c, 0, 57, 0
1, 137088, Note_on_c, 0, 61, 0
1, 137088, Note_on_c, 0, 64, 0
1, 137216, Note_on_c, 0, 81, 0
1, 137216, Note_on_c, 0, 57, 57
1, 137216, Note_on_c, 0, 69, 57
1, 137216, Note_on_c, 0, 45, 68
1, 137344, Note_on_c, 0, 57, 0
1, 137344, Note_on_c, 0, 69, 0
1, 137344, Note_on_c, 0, 57, 67
1, 137344, Note_on_c, 0, 69, 67
1, 137344, Note_on_c, 0, 45, 0
1, 137344, Note_on_c, 0, 45, 74
1, 137472, Note_on_c, 0, 57, 0
1, 137472, Note_on_c, 0, 69, 0
1, 137472, Note_on_c, 0, 45, 0
1, 137600, Note_on_c, 0, 66, 69
1, 137728, Note_on_c, 0, 66, 0
1, 137728, Note_on_c, 0, 67, 78
1, 137984, Note_on_c, 0, 67, 0
1, 137984, Note_on_c, 0, 69, 82
1, 138112, Note_on_c, 0, 69, 0
1, 138112, Note_on_c, 0, 71, 85
1, 138240, Note_on_c, 0, 71, 0
1, 138240, Note_on_c, 0, 69, 71
1, 138304, Note_on_c, 0, 69, 0
1, 138304, Note_on_c, 0, 67, 72
1, 138368, Note_on_c, 0, 67, 0
1, 138368, Note_on_c, 0, 66, 74
1, 138432, Note_on_c, 0, 66, 0
1, 138432, Note_on_c, 0, 64, 67
1, 138496, Note_on_c, 0, 64, 0
1, 138496, Note_on_c, 0, 55, 70
1, 138496, Note_on_c, 0, 62, 70
1, 138496, Note_on_c, 0, 45, 69
1, 138496, Note_on_c, 0, 52, 69
1, 138880, Note_on_c, 0, 62, 0
1, 138880, Note_on_c, 0, 61, 72
1, 139136, Note_on_c, 0, 55, 0
1, 139136, Note_on_c, 0, 61, 0
1, 139136, Note_on_c, 0, 59, 75
1, 139136, Note_on_c, 0, 45, 0
1, 139136, Note_on_c, 0, 52, 0
1, 139136, Note_on_c, 0, 43, 72
1, 139136, Note_on_c, 0, 49, 72
1, 139264, Note_on_c, 0, 59, 0
1, 139264, Note_on_c, 0, 59, 71
1, 139264, Note_on_c, 0, 43, 0
1, 139264, Note_on_c, 0, 49, 0
1, 139264, Note_on_c, 0, 42, 78
1, 139264, Note_on_c, 0, 50, 78
1, 139392, Note_on_c, 0, 59, 0
1, 139392, Note_on_c, 0, 57, 70
1, 139520, Note_on_c, 0, 57, 0
1, 139520, Note_on_c, 0, 57, 78
1, 139520, Note_on_c, 0, 42, 0
1, 139520, Note_on_c, 0, 50, 0
1, 139583, Note_on_c, 0, 57, 0
1, 139648, Note_on_c, 0, 57, 65
1, 139776, Note_on_c, 0, 57, 0
1, 139776, Note_on_c, 0, 62, 67
1, 139776, Note_on_c, 0, 42, 61
1, 139904, Note_on_c, 0, 62, 0
1, 139904, Note_on_c, 0, 62, 82
1, 139904, Note_on_c, 0, 66, 82
1, 139904, Note_on_c, 0, 42, 0
1, 139904, Note_on_c, 0, 38, 67
1, 139967, Note_on_c, 0, 62, 0
1, 139967, Note_on_c, 0, 66, 0
1, 139967, Note_on_c, 0, 38, 0
1, 140032, Note_on_c, 0, 62, 75
1, 140032, Note_on_c, 0, 66, 75
1, 140032, Note_on_c, 0, 45, 82
1, 140288, Note_on_c, 0, 62, 0
1, 140288, Note_on_c, 0, 66, 0
1, 140288, Note_on_c, 0, 64, 81
1, 140288, Note_on_c, 0, 67, 81
1, 140416, Note_on_c, 0, 64, 0
1, 140416, Note_on_c, 0, 67, 0
1, 140416, Note_on_c, 0, 61, 67
1, 140416, Note_on_c, 0, 64, 67
1, 140544, Note_on_c, 0, 61, 0
1, 140544, Note_on_c, 0, 64, 0
1, 140672, Note_on_c, 0, 66, 69
1, 140672, Note_on_c, 0, 45, 0
1, 140800, Note_on_c, 0, 66, 0
1, 140800, Note_on_c, 0, 67, 83
1, 141056, Note_on_c, 0, 67, 0
1, 141056, Note_on_c, 0, 69, 82
1, 141184, Note_on_c, 0, 69, 0
1, 141184, Note_on_c, 0, 71, 79
1, 141312, Note_on_c, 0, 71, 0
1, 141312, Note_on_c, 0, 69, 72
1, 141376, Note_on_c, 0, 69, 0
1, 141376, Note_on_c, 0, 67, 72
1, 141440, Note_on_c, 0, 67, 0
1, 141440, Note_on_c, 0, 66, 69
1, 141504, Note_on_c, 0, 66, 0
1, 141504, Note_on_c, 0, 64, 71
1, 141568, Note_on_c, 0, 64, 0
1, 141568, Note_on_c, 0, 55, 70
1, 141568, Note_on_c, 0, 62, 70
1, 141568, Note_on_c, 0, 45, 72
1, 141568, Note_on_c, 0, 52, 72
1, 141952, Note_on_c, 0, 62, 0
1, 141952, Note_on_c, 0, 61, 74
1, 142080, Note_on_c, 0, 61, 0
1, 142080, Note_on_c, 0, 71, 92
1, 142208, Note_on_c, 0, 55, 0
1, 142208, Note_on_c, 0, 71, 0
1, 142208, Note_on_c, 0, 69, 73
1, 142208, Note_on_c, 0, 45, 0
1, 142208, Note_on_c, 0, 52, 0
1, 142208, Note_on_c, 0, 43, 75
1, 142208, Note_on_c, 0, 49, 75
1, 142336, Note_on_c, 0, 69, 0
1, 142336, Note_on_c, 0, 69, 75
1, 142336, Note_on_c, 0, 43, 0
1, 142336, Note_on_c, 0, 49, 0
1, 142336, Note_on_c, 0, 42, 75
1, 142336, Note_on_c, 0, 50, 75
1, 142464, Note_on_c, 0, 69, 0
1, 142464, Note_on_c, 0, 74, 85
1, 142464, Note_on_c, 0, 42, 0
1, 142464, Note_on_c, 0, 50, 0
1, 142592, Note_on_c, 0, 74, 0
1, 142592, Note_on_c, 0, 55, 56
1, 142592, Note_on_c, 0, 62, 56
1, 142592, Note_on_c, 0, 47, 69
1, 142720, Note_on_c, 0, 55, 0
1, 142720, Note_on_c, 0, 62, 0
1, 142720, Note_on_c, 0, 57, 81
1, 142720, Note_on_c, 0, 62, 81
1, 142720, Note_on_c, 0, 66, 81
1, 142720, Note_on_c, 0, 47, 0
1, 142720, Note_on_c, 0, 45, 70
1, 142848, Note_on_c, 0, 57, 0
1, 142848, Note_on_c, 0, 62, 0
1, 142848, Note_on_c, 0, 66, 0
1, 142848, Note_on_c, 0, 45, 0
1, 142976, Note_on_c, 0, 55, 67
1, 142976, Note_on_c, 0, 61, 67
1, 142976, Note_on_c, 0, 64, 67
1, 142976, Note_on_c, 0, 45, 67
1, 143104, Note_on_c, 0, 55, 0
1, 143104, Note_on_c, 0, 61, 0
1, 143104, Note_on_c, 0, 64, 0
1, 143104, Note_on_c, 0, 61, 76
1, 143104, Note_on_c, 0, 64, 76
1, 143104, Note_on_c, 0, 45, 0
1, 143104, Note_on_c, 0, 50, 82
1, 143104, Note_on_c, 0, 55, 82
1, 143488, Note_on_c, 0, 61, 0
1, 143488, Note_on_c, 0, 64, 0
1, 143488, Note_on_c, 0, 62, 71
1, 143488, Note_on_c, 0, 50, 0
1, 143488, Note_on_c, 0, 55, 0
1, 143488, Note_on_c, 0, 54, 73
1, 143616, Note_on_c, 0, 62, 0
1, 143616, Note_on_c, 0, 54, 0
1, 143744, Note_on_c, 0, 78, 66
1, 143872, Note_on_c, 0, 78, 0
1, 143872, Note_on_c, 0, 79, 79
1, 144000, Note_on_c, 0, 79, 0
1, 144000, Note_on_c, 0, 79, 75
1, 144064, Note_on_c, 0, 79, 0
1, 144064, Note_on_c, 0, 78, 72
1, 144128, Note_on_c, 0, 78, 0
1, 144128, Note_on_c, 0, 81, 83
1, 144192, Note_on_c, 0, 81, 0
1, 144192, Note_on_c, 0, 79, 67
1, 144256, Note_on_c, 0, 79, 0
1, 144256, Note_on_c, 0, 83, 85
1, 144320, Note_on_c, 0, 83, 0
1, 144320, Note_on_c, 0, 81, 73
1, 144384, Note_on_c, 0, 81, 0
1, 144384, Note_on_c, 0, 79, 67
1, 144448, Note_on_c, 0, 79, 0
1, 144448, Note_on_c, 0, 78, 74
1, 144512, Note_on_c, 0, 78, 0
1, 144512, Note_on_c, 0, 79, 76
1, 144576, Note_on_c, 0, 79, 0
1, 144576, Note_on_c, 0, 76, 72
1, 144640, Note_on_c, 0, 76, 0
1, 144640, Note_on_c, 0, 67, 66
1, 144640, Note_on_c, 0, 74, 66
1, 144640, Note_on_c, 0, 57, 68
1, 144640, Note_on_c, 0, 64, 68
1, 144896, Note_on_c, 0, 74, 0
1, 144896, Note_on_c, 0, 76, 79
1, 144960, Note_on_c, 0, 76, 0
1, 144960, Note_on_c, 0, 74, 69
1, 145024, Note_on_c, 0, 74, 0
1, 145024, Note_on_c, 0, 73, 73
1, 145280, Note_on_c, 0, 67, 0
1, 145280, Note_on_c, 0, 73, 0
1, 145280, Note_on_c, 0, 62, 72
1, 145280, Note_on_c, 0, 68, 72
1, 145280, Note_on_c, 0, 71, 72
1, 145280, Note_on_c, 0, 57, 0
1, 145280, Note_on_c, 0, 64, 0
1, 145280, Note_on_c, 0, 59, 74
1, 145408, Note_on_c, 0, 62, 0
1, 145408, Note_on_c, 0, 68, 0
1, 145408, Note_on_c, 0, 71, 0
1, 145408, Note_on_c, 0, 61, 76
1, 145408, Note_on_c, 0, 64, 76
1, 145408, Note_on_c, 0, 67, 76
1, 145408, Note_on_c, 0, 71, 76
1, 145408, Note_on_c, 0, 59, 0
1, 145536, Note_on_c, 0, 71, 0
1, 145536, Note_on_c, 0, 69, 70
1, 145664, Note_on_c, 0, 69, 0
1, 145664, Note_on_c, 0, 69, 74
1, 145727, Note_on_c, 0, 61, 0
1, 145727, Note_on_c, 0, 64, 0
1, 145727, Note_on_c, 0, 67, 0
1, 145727, Note_on_c, 0, 69, 0
1, 145792, Note_on_c, 0, 62, 76
1, 145792, Note_on_c, 0, 66, 76
1, 145792, Note_on_c, 0, 69, 76
1, 145920, Note_on_c, 0, 69, 0
1, 145920, Note_on_c, 0, 74, 86
1, 146048, Note_on_c, 0, 62, 0
1, 146048, Note_on_c, 0, 66, 0
1, 146048, Note_on_c, 0, 74, 0
1, 146048, Note_on_c, 0, 74, 87
1, 146048, Note_on_c, 0, 78, 87
1, 146111, Note_on_c, 0, 74, 0
1, 146111, Note_on_c, 0, 78, 0
1, 146176, Note_on_c, 0, 69, 71
1, 146176, Note_on_c, 0, 74, 71
1, 146176, Note_on_c, 0, 78, 71
1, 146176, Note_on_c, 0, 57, 69
1, 146432, Note_on_c, 0, 74, 0
1, 146432, Note_on_c, 0, 78, 0
1, 146432, Note_on_c, 0, 76, 77
1, 146432, Note_on_c, 0, 79, 77
1, 146560, Note_on_c, 0, 76, 0
1, 146560, Note_on_c, 0, 79, 0
1, 146560, Note_on_c, 0, 73, 71
1, 146560, Note_on_c, 0, 76, 71
1, 146623, Note_on_c, 0, 69, 0
1, 146623, Note_on_c, 0, 73, 0
1, 146623, Note_on_c, 0, 76, 0
1, 146688, Note_on_c, 0, 57, 0
1, 146816, Note_on_c, 0, 78, 66
1, 146944, Note_on_c, 0, 78, 0
1, 146944, Note_on_c, 0, 79, 81
1, 147072, Note_on_c, 0, 79, 0
1, 147072, Note_on_c, 0, 79, 77
1, 147136, Note_on_c, 0, 79, 0
1, 147136, Note_on_c, 0, 78, 73
1, 147200, Note_on_c, 0, 78, 0
1, 147200, Note_on_c, 0, 81, 84
1, 147264, Note_on_c, 0, 81, 0
1, 147264, Note_on_c, 0, 79, 70
1, 147328, Note_on_c, 0, 79, 0
1, 147328, Note_on_c, 0, 83, 78
1, 147392, Note_on_c, 0, 83, 0
1, 147392, Note_on_c, 0, 81, 75
1, 147456, Note_on_c, 0, 81, 0
1, 147456, Note_on_c, 0, 79, 68
1, 147520, Note_on_c, 0, 79, 0
1, 147520, Note_on_c, 0, 78, 70
1, 147584, Note_on_c, 0, 78, 0
1, 147584, Note_on_c, 0, 79, 78
1, 147648, Note_on_c, 0, 79, 0
1, 147648, Note_on_c, 0, 76, 72
1, 147712, Note_on_c, 0, 76, 0
1, 147712, Note_on_c, 0, 67, 67
1, 147712, Note_on_c, 0, 69, 67
1, 147712, Note_on_c, 0, 74, 67
1, 147776, Note_on_c, 0, 74, 0
1, 147776, Note_on_c, 0, 73, 70
1, 147840, Note_on_c, 0, 73, 0
1, 147840, Note_on_c, 0, 76, 85
1, 147904, Note_on_c, 0, 76, 0
1, 147904, Note_on_c, 0, 74, 73
1, 147968, Note_on_c, 0, 74, 0
1, 147968, Note_on_c, 0, 78, 82
1, 148032, Note_on_c, 0, 78, 0
1, 148032, Note_on_c, 0, 76, 78
1, 148096, Note_on_c, 0, 76, 0
1, 148096, Note_on_c, 0, 79, 77
1, 148160, Note_on_c, 0, 79, 0
1, 148160, Note_on_c, 0, 78, 74
1, 148224, Note_on_c, 0, 78, 0
1, 148224, Note_on_c, 0, 81, 86
1, 148288, Note_on_c, 0, 81, 0
1, 148288, Note_on_c, 0, 79, 73
1, 148352, Note_on_c, 0, 79, 0
1, 148352, Note_on_c, 0, 83, 79
1, 148416, Note_on_c, 0, 83, 0
1, 148416, Note_on_c, 0, 81, 72
1, 148480, Note_on_c, 0, 67, 0
1, 148480, Note_on_c, 0, 69, 0
1, 148480, Note_on_c, 0, 81, 0
1, 148480, Note_on_c, 0, 81, 73
1, 148608, Note_on_c, 0, 75, 75
1, 148608, Note_on_c, 0, 65, 67
1, 148736, Note_on_c, 0, 75, 0
1, 148736, Note_on_c, 0, 75, 75
1, 148736, Note_on_c, 0, 65, 0
1, 148736, Note_on_c, 0, 65, 72
1, 148864, Note_on_c, 0, 75, 0
1, 148864, Note_on_c, 0, 81, 0
1, 148864, Note_on_c, 0, 80, 76
1, 148864, Note_on_c, 0, 65, 0
1, 148992, Note_on_c, 0, 74, 75
1, 148992, Note_on_c, 0, 64, 69
1, 149120, Note_on_c, 0, 74, 0
1, 149120, Note_on_c, 0, 74, 74
1, 149120, Note_on_c, 0, 64, 0
1, 149120, Note_on_c, 0, 64, 80
1, 149248, Note_on_c, 0, 74, 0
1, 149248, Note_on_c, 0, 80, 0
1, 149248, Note_on_c, 0, 79, 70
1, 149248, Note_on_c, 0, 64, 0
1, 149376, Note_on_c, 0, 71, 75
1, 149376, Note_on_c, 0, 74, 75
1, 149504, Note_on_c, 0, 71, 0
1, 149504, Note_on_c, 0, 74, 0
1, 149504, Note_on_c, 0, 71, 79
1, 149504, Note_on_c, 0, 74, 79
1, 149632, Note_on_c, 0, 71, 0
1, 149632, Note_on_c, 0, 74, 0
1, 149632, Note_on_c, 0, 79, 0
1, 149632, Note_on_c, 0, 70, 76
1, 149632, Note_on_c, 0, 73, 76
1, 149632, Note_on_c, 0, 78, 76
1, 149760, Note_on_c, 0, 70, 0
1, 149760, Note_on_c, 0, 73, 0
1, 149760, Note_on_c, 0, 78, 0
1, 149888, Note_on_c, 0, 66, 64
1, 150016, Note_on_c, 0, 66, 0
1, 150016, Note_on_c, 0, 71, 82
1, 150016, Note_on_c, 0, 54, 70
1, 150144, Note_on_c, 0, 71, 0
1, 150144, Note_on_c, 0, 66, 68
1, 150144, Note_on_c, 0, 54, 0
1, 150144, Note_on_c, 0, 59, 77
1, 150272, Note_on_c, 0, 66, 0
1, 150272, Note_on_c, 0, 71, 84
1, 150272, Note_on_c, 0, 59, 0
1, 150272, Note_on_c, 0, 54, 74
1, 150400, Note_on_c, 0, 71, 0
1, 150400, Note_on_c, 0, 74, 86
1, 150400, Note_on_c, 0, 54, 0
1, 150400, Note_on_c, 0, 59, 78
1, 150528, Note_on_c, 0, 74, 0
1, 150528, Note_on_c, 0, 59, 0
1, 150528, Note_on_c, 0, 62, 68
1, 150528, Note_on_c, 0, 71, 68
1, 150656, Note_on_c, 0, 62, 0
1, 150656, Note_on_c, 0, 71, 0
1, 150656, Note_on_c, 0, 74, 81
1, 150656, Note_on_c, 0, 59, 71
1, 150784, Note_on_c, 0, 74, 0
1, 150784, Note_on_c, 0, 78, 84
1, 150784, Note_on_c, 0, 59, 0
1, 150784, Note_on_c, 0, 62, 80
1, 150848, Note_on_c, 0, 78, 0
1, 150848, Note_on_c, 0, 76, 76
1, 150912, Note_on_c, 0, 76, 0
1, 150912, Note_on_c, 0, 66, 71
1, 150912, Note_on_c, 0, 74, 71
1, 150912, Note_on_c, 0, 62, 0
1, 150976, Note_on_c, 0, 66, 0
1, 150976, Note_on_c, 0, 74, 0
1, 150976, Note_on_c, 0, 64, 73
1, 150976, Note_on_c, 0, 73, 73
1, 151040, Note_on_c, 0, 64, 0
1, 151040, Note_on_c, 0, 73, 0
1, 151040, Note_on_c, 0, 62, 70
1, 151040, Note_on_c, 0, 71, 70
1, 151104, Note_on_c, 0, 62, 0
1, 151104, Note_on_c, 0, 71, 0
1, 151104, Note_on_c, 0, 61, 71
1, 151104, Note_on_c, 0, 70, 71
1, 151168, Note_on_c, 0, 61, 0
1, 151168, Note_on_c, 0, 70, 0
1, 151168, Note_on_c, 0, 74, 84
1, 151168, Note_on_c, 0, 59, 70
1, 151232, Note_on_c, 0, 74, 0
1, 151232, Note_on_c, 0, 73, 74
1, 151232, Note_on_c, 0, 59, 0
1, 151232, Note_on_c, 0, 58, 76
1, 151296, Note_on_c, 0, 73, 0
1, 151296, Note_on_c, 0, 58, 0
1, 151296, Note_on_c, 0, 71, 69
1, 151296, Note_on_c, 0, 62, 80
1, 151360, Note_on_c, 0, 71, 0
1, 151360, Note_on_c, 0, 61, 71
1, 151360, Note_on_c, 0, 69, 71
1, 151360, Note_on_c, 0, 62, 0
1, 151424, Note_on_c, 0, 61, 0
1, 151424, Note_on_c, 0, 69, 0
1, 151424, Note_on_c, 0, 67, 75
1, 151424, Note_on_c, 0, 59, 70
1, 151488, Note_on_c, 0, 67, 0
1, 151488, Note_on_c, 0, 66, 69
1, 151488, Note_on_c, 0, 59, 0
1, 151488, Note_on_c, 0, 57, 74
1, 151552, Note_on_c, 0, 66, 0
1, 151552, Note_on_c, 0, 64, 70
1, 151552, Note_on_c, 0, 57, 0
1, 151552, Note_on_c, 0, 55, 71
1, 151616, Note_on_c, 0, 64, 0
1, 151616, Note_on_c, 0, 55, 0
1, 151616, Note_on_c, 0, 54, 74
1, 151680, Note_on_c, 0, 54, 0
1, 151680, Note_on_c, 0, 52, 84
1, 151680, Note_on_c, 0, 59, 84
1, 151808, Note_on_c, 0, 64, 71
1, 151808, Note_on_c, 0, 52, 0
1, 151808, Note_on_c, 0, 59, 0
1, 151808, Note_on_c, 0, 47, 62
1, 151936, Note_on_c, 0, 64, 0
1, 151936, Note_on_c, 0, 67, 88
1, 151936, Note_on_c, 0, 47, 0
1, 151936, Note_on_c, 0, 52, 74
1, 152064, Note_on_c, 0, 67, 0
1, 152064, Note_on_c, 0, 52, 0
1, 152064, Note_on_c, 0, 64, 68
1, 152064, Note_on_c, 0, 55, 78
1, 152192, Note_on_c, 0, 64, 0
1, 152192, Note_on_c, 0, 67, 83
1, 152192, Note_on_c, 0, 55, 0
1, 152192, Note_on_c, 0, 52, 69
1, 152320, Note_on_c, 0, 67, 0
1, 152320, Note_on_c, 0, 71, 89
1, 152320, Note_on_c, 0, 52, 0
1, 152320, Note_on_c, 0, 55, 77
1, 152384, Note_on_c, 0, 71, 0
1, 152384, Note_on_c, 0, 69, 75
1, 152448, Note_on_c, 0, 69, 0
1, 152448, Note_on_c, 0, 67, 73
1, 152448, Note_on_c, 0, 55, 0
1, 152448, Note_on_c, 0, 59, 80
1, 152512, Note_on_c, 0, 67, 0
1, 152512, Note_on_c, 0, 66, 68
1, 152512, Note_on_c, 0, 59, 0
1, 152512, Note_on_c, 0, 57, 81
1, 152576, Note_on_c, 0, 66, 0
1, 152576, Note_on_c, 0, 64, 71
1, 152576, Note_on_c, 0, 57, 0
1, 152576, Note_on_c, 0, 55, 74
1, 152640, Note_on_c, 0, 64, 0
1, 152640, Note_on_c, 0, 63, 76
1, 152640, Note_on_c, 0, 55, 0
1, 152640, Note_on_c, 0, 54, 76
1, 152704, Note_on_c, 0, 63, 0
1, 152704, Note_on_c, 0, 79, 94
1, 152704, Note_on_c, 0, 54, 0
1, 152704, Note_on_c, 0, 52, 71
1, 152768, Note_on_c, 0, 79, 0
1, 152768, Note_on_c, 0, 78, 77
1, 152768, Note_on_c, 0, 52, 0
1, 152768, Note_on_c, 0, 51, 73
1, 152832, Note_on_c, 0, 78, 0
1, 152832, Note_on_c, 0, 51, 0
1, 152832, Note_on_c, 0, 67, 73
1, 152832, Note_on_c, 0, 76, 73
1, 152896, Note_on_c, 0, 67, 0
1, 152896, Note_on_c, 0, 76, 0
1, 152896, Note_on_c, 0, 66, 70
1, 152896, Note_on_c, 0, 74, 70
1, 152960, Note_on_c, 0, 66, 0
1, 152960, Note_on_c, 0, 74, 0
1, 152960, Note_on_c, 0, 64, 69
1, 152960, Note_on_c, 0, 73, 69
1, 153024, Note_on_c, 0, 64, 0
1, 153024, Note_on_c, 0, 73, 0
1, 153024, Note_on_c, 0, 62, 70
1, 153024, Note_on_c, 0, 71, 70
1, 153088, Note_on_c, 0, 62, 0
1, 153088, Note_on_c, 0, 71, 0
1, 153088, Note_on_c, 0, 61, 71
1, 153088, Note_on_c, 0, 69, 71
1, 153152, Note_on_c, 0, 61, 0
1, 153152, Note_on_c, 0, 69, 0
1, 153152, Note_on_c, 0, 59, 71
1, 153216, Note_on_c, 0, 64, 70
1, 153216, Note_on_c, 0, 59, 0
1, 153216, Note_on_c, 0, 57, 69
1, 153344, Note_on_c, 0, 64, 0
1, 153344, Note_on_c, 0, 69, 88
1, 153344, Note_on_c, 0, 57, 0
1, 153344, Note_on_c, 0, 52, 67
1, 153472, Note_on_c, 0, 69, 0
1, 153472, Note_on_c, 0, 73, 85
1, 153472, Note_on_c, 0, 52, 0
1, 153472, Note_on_c, 0, 57, 77
1, 153600, Note_on_c, 0, 73, 0
1, 153600, Note_on_c, 0, 57, 0
1, 153600, Note_on_c, 0, 61, 70
1, 153600, Note_on_c, 0, 69, 70
1, 153728, Note_on_c, 0, 61, 0
1, 153728, Note_on_c, 0, 69, 0
1, 153728, Note_on_c, 0, 73, 82
1, 153728, Note_on_c, 0, 57, 62
1, 153856, Note_on_c, 0, 73, 0
1, 153856, Note_on_c, 0, 76, 85
1, 153856, Note_on_c, 0, 57, 0
1, 153856, Note_on_c, 0, 61, 86
1, 153920, Note_on_c, 0, 76, 0
1, 153920, Note_on_c, 0, 78, 83
1, 153984, Note_on_c, 0, 78, 0
1, 153984, Note_on_c, 0, 79, 79
1, 153984, Note_on_c, 0, 61, 0
1, 153984, Note_on_c, 0, 64, 80
1, 154048, Note_on_c, 0, 79, 0
1, 154048, Note_on_c, 0, 78, 72
1, 154048, Note_on_c, 0, 64, 0
1, 154048, Note_on_c, 0, 66, 85
1, 154112, Note_on_c, 0, 78, 0
1, 154112, Note_on_c, 0, 67, 71
1, 154112, Note_on_c, 0, 76, 71
1, 154112, Note_on_c, 0, 66, 0
1, 154176, Note_on_c, 0, 67, 0
1, 154176, Note_on_c, 0, 76, 0
1, 154176, Note_on_c, 0, 66, 67
1, 154176, Note_on_c, 0, 74, 67
1, 154240, Note_on_c, 0, 66, 0
1, 154240, Note_on_c, 0, 74, 0
1, 154240, Note_on_c, 0, 64, 73
1, 154240, Note_on_c, 0, 73, 73
1, 154304, Note_on_c, 0, 64, 0
1, 154304, Note_on_c, 0, 73, 0
1, 154304, Note_on_c, 0, 62, 71
1, 154304, Note_on_c, 0, 71, 71
1, 154368, Note_on_c, 0, 62, 0
1, 154368, Note_on_c, 0, 71, 0
1, 154368, Note_on_c, 0, 61, 74
1, 154368, Note_on_c, 0, 69, 74
1, 154432, Note_on_c, 0, 61, 0
1, 154432, Note_on_c, 0, 69, 0
1, 154432, Note_on_c, 0, 71, 80
1, 154432, Note_on_c, 0, 59, 64
1, 154496, Note_on_c, 0, 71, 0
1, 154496, Note_on_c, 0, 61, 73
1, 154496, Note_on_c, 0, 67, 73
1, 154496, Note_on_c, 0, 59, 0
1, 154560, Note_on_c, 0, 61, 0
1, 154560, Note_on_c, 0, 67, 0
1, 154560, Note_on_c, 0, 69, 82
1, 154560, Note_on_c, 0, 57, 63
1, 154624, Note_on_c, 0, 69, 0
1, 154624, Note_on_c, 0, 62, 71
1, 154624, Note_on_c, 0, 66, 71
1, 154624, Note_on_c, 0, 57, 0
1, 154688, Note_on_c, 0, 66, 0
1, 154688, Note_on_c, 0, 69, 84
1, 154752, Note_on_c, 0, 69, 0
1, 154752, Note_on_c, 0, 68, 73
1, 154816, Note_on_c, 0, 62, 0
1, 154816, Note_on_c, 0, 68, 0
1, 154816, Note_on_c, 0, 69, 80
1, 154880, Note_on_c, 0, 69, 0
1, 154880, Note_on_c, 0, 71, 77
1, 154944, Note_on_c, 0, 71, 0
1, 154944, Note_on_c, 0, 69, 72
1, 155008, Note_on_c, 0, 69, 0
1, 155008, Note_on_c, 0, 62, 83
1, 155008, Note_on_c, 0, 66, 83
1, 155008, Note_on_c, 0, 74, 83
1, 155072, Note_on_c, 0, 74, 0
1, 155072, Note_on_c, 0, 69, 68
1, 155136, Note_on_c, 0, 69, 0
1, 155136, Note_on_c, 0, 68, 68
1, 155200, Note_on_c, 0, 68, 0
1, 155200, Note_on_c, 0, 69, 77
1, 155264, Note_on_c, 0, 62, 0
1, 155264, Note_on_c, 0, 66, 0
1, 155264, Note_on_c, 0, 69, 0
1, 155264, Note_on_c, 0, 71, 79
1, 155328, Note_on_c, 0, 71, 0
1, 155328, Note_on_c, 0, 69, 75
1, 155392, Note_on_c, 0, 69, 0
1, 155392, Note_on_c, 0, 61, 61
1, 155392, Note_on_c, 0, 64, 61
1, 155456, Note_on_c, 0, 64, 0
1, 155456, Note_on_c, 0, 69, 83
1, 155520, Note_on_c, 0, 69, 0
1, 155520, Note_on_c, 0, 68, 77
1, 155584, Note_on_c, 0, 68, 0
1, 155584, Note_on_c, 0, 69, 80
1, 155648, Note_on_c, 0, 61, 0
1, 155648, Note_on_c, 0, 69, 0
1, 155648, Note_on_c, 0, 62, 67
1, 155648, Note_on_c, 0, 66, 67
1, 155712, Note_on_c, 0, 66, 0
1, 155712, Note_on_c, 0, 69, 81
1, 155776, Note_on_c, 0, 62, 0
1, 155776, Note_on_c, 0, 69, 0
1, 155776, Note_on_c, 0, 64, 72
1, 155776, Note_on_c, 0, 67, 72
1, 155840, Note_on_c, 0, 67, 0
1, 155840, Note_on_c, 0, 69, 76
1, 155904, Note_on_c, 0, 64, 0
1, 155904, Note_on_c, 0, 69, 0
1, 155904, Note_on_c, 0, 62, 70
1, 155904, Note_on_c, 0, 66, 70
1, 155968, Note_on_c, 0, 66, 0
1, 155968, Note_on_c, 0, 69, 80
1, 156032, Note_on_c, 0, 62, 0
1, 156032, Note_on_c, 0, 69, 0
1, 156032, Note_on_c, 0, 61, 67
1, 156032, Note_on_c, 0, 64, 67
1, 156096, Note_on_c, 0, 64, 0
1, 156096, Note_on_c, 0, 69, 81
1, 156160, Note_on_c, 0, 61, 0
1, 156160, Note_on_c, 0, 69, 0
1, 156160, Note_on_c, 0, 62, 70
1, 156160, Note_on_c, 0, 66, 70
1, 156224, Note_on_c, 0, 81, 98
1, 156288, Note_on_c, 0, 81, 0
1, 156288, Note_on_c, 0, 80, 76
1, 156352, Note_on_c, 0, 80, 0
1, 156352, Note_on_c, 0, 81, 83
1, 156416, Note_on_c, 0, 62, 0
1, 156416, Note_on_c, 0, 66, 0
1, 156416, Note_on_c, 0, 81, 0
1, 156416, Note_on_c, 0, 83, 79
1, 156480, Note_on_c, 0, 83, 0
1, 156480, Note_on_c, 0, 81, 68
1, 156544, Note_on_c, 0, 81, 0
1, 156544, Note_on_c, 0, 74, 87
1, 156544, Note_on_c, 0, 78, 87
1, 156544, Note_on_c, 0, 86, 87
1, 156608, Note_on_c, 0, 86, 0
1, 156608, Note_on_c, 0, 81, 70
1, 156672, Note_on_c, 0, 81, 0
1, 156672, Note_on_c, 0, 80, 72
1, 156736, Note_on_c, 0, 80, 0
1, 156736, Note_on_c, 0, 81, 76
1, 156800, Note_on_c, 0, 74, 0
1, 156800, Note_on_c, 0, 78, 0
1, 156800, Note_on_c, 0, 81, 0
1, 156800, Note_on_c, 0, 83, 78
1, 156864, Note_on_c, 0, 83, 0
1, 156864, Note_on_c, 0, 81, 74
1, 156928, Note_on_c, 0, 81, 0
1, 156928, Note_on_c, 0, 73, 65
1, 156928, Note_on_c, 0, 76, 65
1, 156992, Note_on_c, 0, 76, 0
1, 156992, Note_on_c, 0, 81, 84
1, 157056, Note_on_c, 0, 81, 0
1, 157056, Note_on_c, 0, 80, 72
1, 157120, Note_on_c, 0, 80, 0
1, 157120, Note_on_c, 0, 81, 78
1, 157184, Note_on_c, 0, 73, 0
1, 157184, Note_on_c, 0, 81, 0
1, 157184, Note_on_c, 0, 74, 66
1, 157184, Note_on_c, 0, 78, 66
1, 157248, Note_on_c, 0, 78, 0
1, 157248, Note_on_c, 0, 81, 82
1, 157312, Note_on_c, 0, 74, 0
1, 157312, Note_on_c, 0, 81, 0
1, 157312, Note_on_c, 0, 76, 73
1, 157312, Note_on_c, 0, 79, 73
1, 157376, Note_on_c, 0, 79, 0
1, 157376, Note_on_c, 0, 81, 77
1, 157440, Note_on_c, 0, 76, 0
1, 157440, Note_on_c, 0, 81, 0
1, 157440, Note_on_c, 0, 74, 70
1, 157440, Note_on_c, 0, 78, 70
1, 157504, Note_on_c, 0, 78, 0
1, 157504, Note_on_c, 0, 81, 80
1, 157568, Note_on_c, 0, 74, 0
1, 157568, Note_on_c, 0, 81, 0
1, 157568, Note_on_c, 0, 73, 64
1, 157568, Note_on_c, 0, 76, 64
1, 157632, Note_on_c, 0, 76, 0
1, 157632, Note_on_c, 0, 81, 84
1, 157696, Note_on_c, 0, 73, 0
1, 157696, Note_on_c, 0, 81, 0
1, 157696, Note_on_c, 0, 74, 61
1, 157760, Note_on_c, 0, 78, 83
1, 157824, Note_on_c, 0, 78, 0
1, 157824, Note_on_c, 0, 79, 78
1, 157888, Note_on_c, 0, 79, 0
1, 157888, Note_on_c, 0, 81, 81
1, 157952, Note_on_c, 0, 74, 0
1, 157952, Note_on_c, 0, 81, 0
1, 157952, Note_on_c, 0, 83, 77
1, 158016, Note_on_c, 0, 83, 0
1, 158016, Note_on_c, 0, 85, 82
1, 158080, Note_on_c, 0, 85, 0
1, 158080, Note_on_c, 0, 86, 82
1, 158080, Note_on_c, 0, 62, 68
1, 158080, Note_on_c, 0, 66, 68
1, 158144, Note_on_c, 0, 86, 0
1, 158144, Note_on_c, 0, 85, 76
1, 158208, Note_on_c, 0, 85, 0
1, 158208, Note_on_c, 0, 62, 0
1, 158208, Note_on_c, 0, 66, 0
1, 158208, Note_on_c, 0, 83, 74
1, 158208, Note_on_c, 0, 64, 75
1, 158208, Note_on_c, 0, 67, 75
1, 158272, Note_on_c, 0, 83, 0
1, 158272, Note_on_c, 0, 81, 77
1, 158336, Note_on_c, 0, 81, 0
1, 158336, Note_on_c, 0, 79, 71
1, 158336, Note_on_c, 0, 64, 0
1, 158336, Note_on_c, 0, 67, 0
1, 158336, Note_on_c, 0, 66, 85
1, 158336, Note_on_c, 0, 69, 85
1, 158400, Note_on_c, 0, 79, 0
1, 158400, Note_on_c, 0, 78, 70
1, 158400, Note_on_c, 0, 66, 0
1, 158400, Note_on_c, 0, 69, 0
1, 158464, Note_on_c, 0, 78, 0
1, 158464, Note_on_c, 0, 67, 63
1, 158464, Note_on_c, 0, 71, 63
1, 158528, Note_on_c, 0, 75, 82
1, 158592, Note_on_c, 0, 75, 0
1, 158592, Note_on_c, 0, 76, 78
1, 158656, Note_on_c, 0, 76, 0
1, 158656, Note_on_c, 0, 78, 82
1, 158720, Note_on_c, 0, 67, 0
1, 158720, Note_on_c, 0, 71, 0
1, 158720, Note_on_c, 0, 78, 0
1, 158720, Note_on_c, 0, 79, 84
1, 158784, Note_on_c, 0, 79, 0
1, 158784, Note_on_c, 0, 81, 83
1, 158848, Note_on_c, 0, 81, 0
1, 158848, Note_on_c, 0, 83, 81
1, 158848, Note_on_c, 0, 64, 69
1, 158848, Note_on_c, 0, 67, 69
1, 158912, Note_on_c, 0, 83, 0
1, 158912, Note_on_c, 0, 81, 69
1, 158976, Note_on_c, 0, 81, 0
1, 158976, Note_on_c, 0, 64, 0
1, 158976, Note_on_c, 0, 67, 0
1, 158976, Note_on_c, 0, 79, 69
1, 158976, Note_on_c, 0, 66, 78
1, 158976, Note_on_c, 0, 69, 78
1, 159040, Note_on_c, 0, 79, 0
1, 159040, Note_on_c, 0, 78, 73
1, 159104, Note_on_c, 0, 78, 0
1, 159104, Note_on_c, 0, 67, 71
1, 159104, Note_on_c, 0, 71, 71
1, 159104, Note_on_c, 0, 76, 71
1, 159104, Note_on_c, 0, 66, 0
1, 159104, Note_on_c, 0, 69, 0
1, 159168, Note_on_c, 0, 67, 0
1, 159168, Note_on_c, 0, 71, 0
1, 159168, Note_on_c, 0, 76, 0
1, 159168, Note_on_c, 0, 74, 73
1, 159232, Note_on_c, 0, 74, 0
1, 159232, Note_on_c, 0, 57, 71
1, 159296, Note_on_c, 0, 68, 69
1, 159360, Note_on_c, 0, 68, 0
1, 159360, Note_on_c, 0, 66, 82
1, 159360, Note_on_c, 0, 71, 82
1, 159360, Note_on_c, 0, 62, 83
1, 159424, Note_on_c, 0, 71, 0
1, 159424, Note_on_c, 0, 69, 72
1, 159488, Note_on_c, 0, 66, 0
1, 159488, Note_on_c, 0, 69, 0
1, 159488, Note_on_c, 0, 66, 82
1, 159488, Note_on_c, 0, 73, 82
1, 159488, Note_on_c, 0, 62, 0
1, 159488, Note_on_c, 0, 62, 80
1, 159552, Note_on_c, 0, 73, 0
1, 159552, Note_on_c, 0, 71, 73
1, 159616, Note_on_c, 0, 66, 0
1, 159616, Note_on_c, 0, 71, 0
1, 159616, Note_on_c, 0, 74, 85
1, 159616, Note_on_c, 0, 57, 0
1, 159616, Note_on_c, 0, 62, 0
1, 159616, Note_on_c, 0, 57, 71
1, 159680, Note_on_c, 0, 74, 0
1, 159680, Note_on_c, 0, 73, 75
1, 159744, Note_on_c, 0, 73, 0
1, 159744, Note_on_c, 0, 76, 80
1, 159744, Note_on_c, 0, 62, 91
1, 159744, Note_on_c, 0, 66, 91
1, 159808, Note_on_c, 0, 76, 0
1, 159808, Note_on_c, 0, 74, 72
1, 159872, Note_on_c, 0, 74, 0
1, 159872, Note_on_c, 0, 78, 84
1, 159872, Note_on_c, 0, 62, 0
1, 159872, Note_on_c, 0, 66, 0
1, 159872, Note_on_c, 0, 62, 78
1, 159872, Note_on_c, 0, 66, 78
1, 159936, Note_on_c, 0, 78, 0
1, 159936, Note_on_c, 0, 76, 70
1, 160000, Note_on_c, 0, 76, 0
1, 160000, Note_on_c, 0, 79, 78
1, 160000, Note_on_c, 0, 57, 0
1, 160000, Note_on_c, 0, 62, 0
1, 160000, Note_on_c, 0, 66, 0
1, 160000, Note_on_c, 0, 57, 65
1, 160064, Note_on_c, 0, 79, 0
1, 160064, Note_on_c, 0, 78, 72
1, 160128, Note_on_c, 0, 78, 0
1, 160128, Note_on_c, 0, 81, 86
1, 160128, Note_on_c, 0, 62, 91
1, 160128, Note_on_c, 0, 66, 91
1, 160192, Note_on_c, 0, 81, 0
1, 160192, Note_on_c, 0, 79, 72
1, 160256, Note_on_c, 0, 79, 0
1, 160256, Note_on_c, 0, 83, 82
1, 160256, Note_on_c, 0, 62, 0
1, 160256, Note_on_c, 0, 66, 0
1, 160256, Note_on_c, 0, 62, 77
1, 160256, Note_on_c, 0, 66, 77
1, 160320, Note_on_c, 0, 83, 0
1, 160320, Note_on_c, 0, 81, 71
1, 160384, Note_on_c, 0, 81, 0
1, 160384, Note_on_c, 0, 85, 83
1, 160384, Note_on_c, 0, 57, 0
1, 160384, Note_on_c, 0, 62, 0
1, 160384, Note_on_c, 0, 66, 0
1, 160384, Note_on_c, 0, 57, 65
1, 160448, Note_on_c, 0, 85, 0
1, 160448, Note_on_c, 0, 83, 75
1, 160512, Note_on_c, 0, 83, 0
1, 160512, Note_on_c, 0, 86, 84
1, 160512, Note_on_c, 0, 62, 94
1, 160512, Note_on_c, 0, 66, 94
1, 160576, Note_on_c, 0, 86, 0
1, 160576, Note_on_c, 0, 85, 71
1, 160640, Note_on_c, 0, 85, 0
1, 160640, Note_on_c, 0, 88, 77
1, 160640, Note_on_c, 0, 62, 0
1, 160640, Note_on_c, 0, 66, 0
1, 160640, Note_on_c, 0, 62, 76
1, 160640, Note_on_c, 0, 66, 76
1, 160704, Note_on_c, 0, 88, 0
1, 160704, Note_on_c, 0, 86, 70
1, 160768, Note_on_c, 0, 86, 0
1, 160768, Note_on_c, 0, 89, 80
1, 160768, Note_on_c, 0, 57, 0
1, 160768, Note_on_c, 0, 62, 0
1, 160768, Note_on_c, 0, 66, 0
1, 160768, Note_on_c, 0, 56, 81
1, 160768, Note_on_c, 0, 59, 81
1, 160768, Note_on_c, 0, 62, 81
1, 160768, Note_on_c, 0, 65, 81
1, 160959, Note_on_c, 0, 89, 0
1, 161024, Note_on_c, 0, 83, 65
1, 161024, Note_on_c, 0, 56, 0
1, 161024, Note_on_c, 0, 59, 0
1, 161024, Note_on_c, 0, 62, 0
1, 161024, Note_on_c, 0, 65, 0
1, 161088, Note_on_c, 0, 83, 0
1, 161088, Note_on_c, 0, 85, 83
1, 161152, Note_on_c, 0, 85, 0
1, 161152, Note_on_c, 0, 86, 75
1, 161216, Note_on_c, 0, 86, 0
1, 161216, Note_on_c, 0, 80, 61
1, 161280, Note_on_c, 0, 80, 0
1, 161280, Note_on_c, 0, 83, 83
1, 161344, Note_on_c, 0, 83, 0
1, 161344, Note_on_c, 0, 74, 60
1, 161408, Note_on_c, 0, 74, 0
1, 161408, Note_on_c, 0, 77, 76
1, 161472, Note_on_c, 0, 77, 0
1, 161472, Note_on_c, 0, 71, 66
1, 161536, Note_on_c, 0, 71, 0
1, 161536, Note_on_c, 0, 74, 81
1, 161792, Note_on_c, 0, 66, 73
1, 161792, Note_on_c, 0, 57, 64
1, 161920, Note_on_c, 0, 66, 0
1, 161920, Note_on_c, 0, 67, 76
1, 161920, Note_on_c, 0, 57, 0
1, 161920, Note_on_c, 0, 58, 78
1, 162176, Note_on_c, 0, 67, 0
1, 162176, Note_on_c, 0, 68, 79
1, 162176, Note_on_c, 0, 58, 0
1, 162176, Note_on_c, 0, 59, 75
1, 162304, Note_on_c, 0, 68, 0
1, 162304, Note_on_c, 0, 74, 0
1, 162304, Note_on_c, 0, 69, 82
1, 162304, Note_on_c, 0, 74, 82
1, 162304, Note_on_c, 0, 78, 82
1, 162304, Note_on_c, 0, 59, 0
1, 162304, Note_on_c, 0, 57, 76
1, 162688, Note_on_c, 0, 69, 0
1, 162688, Note_on_c, 0, 74, 0
1, 162688, Note_on_c, 0, 78, 0
1, 162688, Note_on_c, 0, 67, 79
1, 162688, Note_on_c, 0, 73, 79
1, 162688, Note_on_c, 0, 76, 79
1, 162688, Note_on_c, 0, 78, 79
1, 162752, Note_on_c, 0, 78, 0
1, 162816, Note_on_c, 0, 76, 0
1, 162816, Note_on_c, 0, 74, 68
1, 162879, Note_on_c, 0, 74, 0
1, 162944, Note_on_c, 0, 76, 83
1, 163007, Note_on_c, 0, 67, 0
1, 163007, Note_on_c, 0, 73, 0
1, 163007, Note_on_c, 0, 76, 0
1, 163072, Note_on_c, 0, 62, 71
1, 163072, Note_on_c, 0, 74, 71
1, 163072, Note_on_c, 0, 57, 0
1, 163200, Note_on_c, 0, 62, 0
1, 163200, Note_on_c, 0, 74, 0
1, 163200, Note_on_c, 0, 66, 61
1, 163328, Note_on_c, 0, 66, 0
1, 163328, Note_on_c, 0, 69, 96
1, 163328, Note_on_c, 0, 80, 96
1, 163392, Note_on_c, 0, 80, 0
1, 163392, Note_on_c, 0, 81, 81
1, 163456, Note_on_c, 0, 69, 0
1, 163456, Note_on_c, 0, 81, 0
1, 163456, Note_on_c, 0, 83, 76
1, 163456, Note_on_c, 0, 62, 68
1, 163520, Note_on_c, 0, 83, 0
1, 163520, Note_on_c, 0, 81, 72
1, 163584, Note_on_c, 0, 81, 0
1, 163584, Note_on_c, 0, 62, 0
1, 163584, Note_on_c, 0, 79, 72
1, 163584, Note_on_c, 0, 66, 82
1, 163648, Note_on_c, 0, 79, 0
1, 163648, Note_on_c, 0, 78, 75
1, 163712, Note_on_c, 0, 78, 0
1, 163712, Note_on_c, 0, 69, 67
1, 163712, Note_on_c, 0, 76, 67
1, 163712, Note_on_c, 0, 66, 0
1, 163776, Note_on_c, 0, 76, 0
1, 163776, Note_on_c, 0, 74, 66
1, 163840, Note_on_c, 0, 69, 0
1, 163840, Note_on_c, 0, 74, 0
1, 163840, Note_on_c, 0, 73, 67
1, 163840, Note_on_c, 0, 57, 67
1, 163904, Note_on_c, 0, 73, 0
1, 163904, Note_on_c, 0, 74, 74
1, 163968, Note_on_c, 0, 74, 0
1, 163968, Note_on_c, 0, 75, 80
1, 163968, Note_on_c, 0, 57, 0
1, 163968, Note_on_c, 0, 61, 83
1, 164032, Note_on_c, 0, 75, 0
1, 164032, Note_on_c, 0, 76, 78
1, 164096, Note_on_c, 0, 76, 0
1, 164096, Note_on_c, 0, 77, 81
1, 164096, Note_on_c, 0, 61, 0
1, 164096, Note_on_c, 0, 64, 88
1, 164160, Note_on_c, 0, 77, 0
1, 164160, Note_on_c, 0, 78, 82
1, 164224, Note_on_c, 0, 78, 0
1, 164224, Note_on_c, 0, 79, 78
1, 164224, Note_on_c, 0, 64, 0
1, 164224, Note_on_c, 0, 57, 70
1, 164288, Note_on_c, 0, 79, 0
1, 164288, Note_on_c, 0, 80, 82
1, 164352, Note_on_c, 0, 80, 0
1, 164352, Note_on_c, 0, 57, 0
1, 164352, Note_on_c, 0, 81, 77
1, 164352, Note_on_c, 0, 61, 88
1, 164416, Note_on_c, 0, 81, 0
1, 164416, Note_on_c, 0, 82, 77
1, 164480, Note_on_c, 0, 82, 0
1, 164480, Note_on_c, 0, 83, 80
1, 164480, Note_on_c, 0, 61, 0
1, 164480, Note_on_c, 0, 64, 83
1, 164544, Note_on_c, 0, 83, 0
1, 164544, Note_on_c, 0, 79, 70
1, 164608, Note_on_c, 0, 79, 0
1, 164608, Note_on_c, 0, 78, 74
1, 164608, Note_on_c, 0, 64, 0
1, 164608, Note_on_c, 0, 62, 75
1, 164736, Note_on_c, 0, 78, 0
1, 164736, Note_on_c, 0, 66, 55
1, 164736, Note_on_c, 0, 62, 0
1, 164864, Note_on_c, 0, 66, 0
1, 164864, Note_on_c, 0, 69, 93
1, 164864, Note_on_c, 0, 80, 93
1, 164928, Note_on_c, 0, 80, 0
1, 164928, Note_on_c, 0, 81, 83
1, 164992, Note_on_c, 0, 69, 0
1, 164992, Note_on_c, 0, 81, 0
1, 164992, Note_on_c, 0, 83, 81
1, 164992, Note_on_c, 0, 62, 62
1, 165056, Note_on_c, 0, 83, 0
1, 165056, Note_on_c, 0, 81, 71
1, 165120, Note_on_c, 0, 81, 0
1, 165120, Note_on_c, 0, 62, 0
1, 165120, Note_on_c, 0, 79, 72
1, 165120, Note_on_c, 0, 66, 83
1, 165184, Note_on_c, 0, 79, 0
1, 165184, Note_on_c, 0, 78, 72
1, 165248, Note_on_c, 0, 78, 0
1, 165248, Note_on_c, 0, 69, 73
1, 165248, Note_on_c, 0, 76, 73
1, 165248, Note_on_c, 0, 66, 0
1, 165312, Note_on_c, 0, 76, 0
1, 165312, Note_on_c, 0, 74, 67
1, 165376, Note_on_c, 0, 69, 0
1, 165376, Note_on_c, 0, 74, 0
1, 165376, Note_on_c, 0, 73, 68
1, 165376, Note_on_c, 0, 57, 68
1, 165440, Note_on_c, 0, 73, 0
1, 165440, Note_on_c, 0, 74, 79
1, 165504, Note_on_c, 0, 74, 0
1, 165504, Note_on_c, 0, 64, 84
1, 165504, Note_on_c, 0, 75, 84
1, 165504, Note_on_c, 0, 57, 0
1, 165568, Note_on_c, 0, 75, 0
1, 165568, Note_on_c, 0, 76, 81
1, 165632, Note_on_c, 0, 64, 0
1, 165632, Note_on_c, 0, 76, 0
1, 165632, Note_on_c, 0, 67, 77
1, 165632, Note_on_c, 0, 77, 77
1, 165696, Note_on_c, 0, 77, 0
1, 165696, Note_on_c, 0, 78, 83
1, 165760, Note_on_c, 0, 67, 0
1, 165760, Note_on_c, 0, 78, 0
1, 165760, Note_on_c, 0, 79, 83
1, 165760, Note_on_c, 0, 57, 67
1, 165824, Note_on_c, 0, 79, 0
1, 165824, Note_on_c, 0, 81, 87
1, 165888, Note_on_c, 0, 81, 0
1, 165888, Note_on_c, 0, 57, 0
1, 165888, Note_on_c, 0, 83, 85
1, 165888, Note_on_c, 0, 64, 84
1, 165952, Note_on_c, 0, 83, 0
1, 165952, Note_on_c, 0, 79, 66
1, 166016, Note_on_c, 0, 79, 0
1, 166016, Note_on_c, 0, 76, 68
1, 166016, Note_on_c, 0, 64, 0
1, 166016, Note_on_c, 0, 67, 82
1, 166080, Note_on_c, 0, 76, 0
1, 166080, Note_on_c, 0, 73, 67
1, 166144, Note_on_c, 0, 73, 0
1, 166144, Note_on_c, 0, 66, 78
1, 166144, Note_on_c, 0, 74, 78
1, 166144, Note_on_c, 0, 67, 0
1, 166144, Note_on_c, 0, 62, 69
1, 166272, Note_on_c, 0, 74, 0
1, 166272, Note_on_c, 0, 69, 71
1, 166400, Note_on_c, 0, 66, 0
1, 166400, Note_on_c, 0, 69, 0
1, 166400, Note_on_c, 0, 78, 91
1, 166400, Note_on_c, 0, 69, 91
1, 166528, Note_on_c, 0, 78, 0
1, 166528, Note_on_c, 0, 66, 70
1, 166528, Note_on_c, 0, 74, 70
1, 166528, Note_on_c, 0, 62, 0
1, 166528, Note_on_c, 0, 69, 0
1, 166528, Note_on_c, 0, 62, 63
1, 166656, Note_on_c, 0, 74, 0
1, 166656, Note_on_c, 0, 69, 65
1, 166784, Note_on_c, 0, 66, 0
1, 166784, Note_on_c, 0, 69, 0
1, 166784, Note_on_c, 0, 78, 88
1, 166784, Note_on_c, 0, 69, 87
1, 166912, Note_on_c, 0, 78, 0
1, 166912, Note_on_c, 0, 66, 72
1, 166912, Note_on_c, 0, 74, 72
1, 166912, Note_on_c, 0, 62, 0
1, 166912, Note_on_c, 0, 69, 0
1, 166912, Note_on_c, 0, 62, 66
1, 167168, Note_on_c, 0, 66, 0
1, 167168, Note_on_c, 0, 74, 0
1, 167168, Note_on_c, 0, 62, 0
1, 167178, End_track
0, 0, End_of_file