0, 0, Header, 0, 1, 384
1, 0, Start_track
1, 0, Tempo, 441176
1, 1536, Note_on_c, 0, 60, 72
1, 1584, Note_on_c, 0, 60, 0
1, 1584, Note_on_c, 0, 64, 72
1, 1632, Note_on_c, 0, 64, 0
1, 1632, Note_on_c, 0, 67, 72
1, 1680, Note_on_c, 0, 67, 0
1, 1680, Note_on_c, 0, 72, 72
1, 1680, Note_on_c, 1, 48, 72
1, 1680, Note_on_c, 1, 36, 72
1, 2284, Note_on_c, 0, 72, 0
1, 2284, Note_on_c, 1, 48, 0
1, 2284, Note_on_c, 1, 36, 0
1, 2304, Note_on_c, 0, 67, 72
1, 2304, Note_on_c, 1, 43, 72
1, 2304, Note_on_c, 1, 31, 72
1, 3068, Note_on_c, 0, 67, 0
1, 3068, Note_on_c, 1, 43, 0
1, 3068, Note_on_c, 1, 31, 0
1, 3072, Note_on_c, 0, 76, 72
1, 3072, Note_on_c, 1, 52, 72
1, 3644, Note_on_c, 1, 52, 0
1, 3648, Note_on_c, 0, 76, 0
1, 3648, Note_on_c, 0, 77, 72
1, 3648, Note_on_c, 1, 53, 72
1, 3740, Note_on_c, 0, 77, 0
1, 3740, Note_on_c, 1, 53, 0
1, 3744, Note_on_c, 0, 74, 72
1, 3744, Note_on_c, 1, 50, 72
1, 3836, Note_on_c, 0, 74, 0
1, 3836, Note_on_c, 1, 50, 0
1, 3840, Note_on_c, 0, 72, 72
1, 3840, Note_on_c, 1, 48, 72
1, 4220, Note_on_c, 0, 72, 0
1, 4220, Note_on_c, 1, 48, 0
1, 4608, Note_on_c, 0, 79, 51
1, 4608, Note_on_c, 0, 64, 51
1, 4752, Note_on_c, 0, 64, 0
1, 4800, Note_on_c, 0, 67, 51
1, 4944, Note_on_c, 0, 67, 0
1, 4988, Note_on_c, 0, 79, 0
1, 4992, Note_on_c, 0, 79, 51
1, 4992, Note_on_c, 0, 64, 51
1, 5136, Note_on_c, 0, 64, 0
1, 5184, Note_on_c, 0, 67, 51
1, 5328, Note_on_c, 0, 67, 0
1, 5372, Note_on_c, 0, 79, 0
1, 5376, Note_on_c, 0, 61, 51
1, 5520, Note_on_c, 0, 61, 0
1, 5568, Note_on_c, 0, 67, 51
1, 5712, Note_on_c, 0, 67, 0
1, 5760, Note_on_c, 0, 81, 51
1, 5760, Note_on_c, 0, 61, 51
1, 5904, Note_on_c, 0, 61, 0
1, 5952, Note_on_c, 0, 67, 51
1, 6096, Note_on_c, 0, 67, 0
1, 6140, Note_on_c, 0, 81, 0
1, 6144, Note_on_c, 0, 79, 51
1, 6192, Note_on_c, 0, 79, 0
1, 6192, Note_on_c, 0, 77, 51
1, 6192, Note_on_c, 0, 62, 51
1, 6336, Note_on_c, 0, 62, 0
1, 6336, Note_on_c, 0, 67, 51
1, 6480, Note_on_c, 0, 67, 0
1, 6524, Note_on_c, 0, 77, 0
1, 6528, Note_on_c, 0, 77, 51
1, 6528, Note_on_c, 0, 62, 51
1, 6672, Note_on_c, 0, 62, 0
1, 6720, Note_on_c, 0, 67, 51
1, 6864, Note_on_c, 0, 67, 0
1, 6908, Note_on_c, 0, 77, 0
1, 6912, Note_on_c, 0, 59, 51
1, 7056, Note_on_c, 0, 59, 0
1, 7104, Note_on_c, 0, 67, 51
1, 7248, Note_on_c, 0, 67, 0
1, 7296, Note_on_c, 0, 79, 51
1, 7296, Note_on_c, 0, 59, 51
1, 7440, Note_on_c, 0, 59, 0
1, 7488, Note_on_c, 0, 67, 51
1, 7632, Note_on_c, 0, 67, 0
1, 7676, Note_on_c, 0, 79, 0
1, 7680, Note_on_c, 0, 77, 51
1, 7728, Note_on_c, 0, 77, 0
1, 7728, Note_on_c, 0, 76, 51
1, 7728, Note_on_c, 0, 60, 51
1, 7872, Note_on_c, 0, 60, 0
1, 7872, Note_on_c, 0, 67, 51
1, 8016, Note_on_c, 0, 67, 0
1, 8060, Note_on_c, 0, 76, 0
1, 8064, Note_on_c, 0, 76, 51
1, 8064, Note_on_c, 0, 60, 51
1, 8208, Note_on_c, 0, 60, 0
1, 8256, Note_on_c, 0, 67, 51
1, 8400, Note_on_c, 0, 67, 0
1, 8444, Note_on_c, 0, 76, 0
1, 8448, Note_on_c, 0, 64, 51
1, 8592, Note_on_c, 0, 64, 0
1, 8640, Note_on_c, 0, 67, 51
1, 8784, Note_on_c, 0, 67, 0
1, 8832, Note_on_c, 0, 79, 51
1, 8832, Note_on_c, 0, 64, 51
1, 8976, Note_on_c, 0, 64, 0
1, 9024, Note_on_c, 0, 79, 0
1, 9024, Note_on_c, 0, 76, 51
1, 9024, Note_on_c, 0, 67, 51
1, 9168, Note_on_c, 0, 67, 0
1, 9216, Note_on_c, 0, 76, 0
1, 9216, Note_on_c, 0, 73, 51
1, 9216, Note_on_c, 0, 69, 51
1, 9216, Note_on_c, 0, 65, 51
1, 9360, Note_on_c, 0, 73, 0
1, 9408, Note_on_c, 0, 74, 51
1, 9552, Note_on_c, 0, 74, 0
1, 9600, Note_on_c, 0, 77, 51
1, 9744, Note_on_c, 0, 77, 0
1, 9792, Note_on_c, 0, 76, 51
1, 9936, Note_on_c, 0, 76, 0
1, 9984, Note_on_c, 0, 73, 51
1, 10128, Note_on_c, 0, 73, 0
1, 10176, Note_on_c, 0, 74, 51
1, 10320, Note_on_c, 0, 74, 0
1, 10368, Note_on_c, 0, 77, 51
1, 10512, Note_on_c, 0, 77, 0
1, 10560, Note_on_c, 0, 76, 51
1, 10704, Note_on_c, 0, 76, 0
1, 10748, Note_on_c, 0, 69, 0
1, 10748, Note_on_c, 0, 65, 0
1, 10752, Note_on_c, 0, 73, 51
1, 10896, Note_on_c, 0, 73, 0
1, 10944, Note_on_c, 0, 74, 51
1, 11088, Note_on_c, 0, 74, 0
1, 11136, Note_on_c, 0, 77, 51
1, 11136, Note_on_c, 1, 62, 51
1, 11136, Note_on_c, 1, 57, 51
1, 11136, Note_on_c, 1, 53, 51
1, 11280, Note_on_c, 0, 77, 0
1, 11328, Note_on_c, 0, 81, 51
1, 11472, Note_on_c, 0, 81, 0
1, 11516, Note_on_c, 1, 62, 0
1, 11516, Note_on_c, 1, 57, 0
1, 11516, Note_on_c, 1, 53, 0
1, 11520, Note_on_c, 0, 79, 51
1, 11520, Note_on_c, 1, 64, 51
1, 11520, Note_on_c, 1, 55, 51
1, 11520, Note_on_c, 1, 60, 51
1, 11664, Note_on_c, 0, 79, 0
1, 11712, Note_on_c, 0, 76, 51
1, 11856, Note_on_c, 0, 76, 0
1, 11900, Note_on_c, 1, 64, 0
1, 11900, Note_on_c, 1, 55, 0
1, 11900, Note_on_c, 1, 60, 0
1, 11904, Note_on_c, 0, 77, 51
1, 11904, Note_on_c, 1, 62, 51
1, 11904, Note_on_c, 1, 59, 51
1, 11904, Note_on_c, 1, 55, 51
1, 12048, Note_on_c, 0, 77, 0
1, 12096, Note_on_c, 0, 74, 51
1, 12240, Note_on_c, 0, 74, 0
1, 12284, Note_on_c, 1, 62, 0
1, 12284, Note_on_c, 1, 59, 0
1, 12284, Note_on_c, 1, 55, 0
1, 12288, Note_on_c, 0, 60, 72
1, 12336, Note_on_c, 0, 60, 0
1, 12336, Note_on_c, 0, 64, 72
1, 12384, Note_on_c, 0, 64, 0
1, 12384, Note_on_c, 0, 67, 72
1, 12432, Note_on_c, 0, 67, 0
1, 12432, Note_on_c, 0, 72, 72
1, 12432, Note_on_c, 1, 48, 72
1, 12432, Note_on_c, 1, 36, 72
1, 13036, Note_on_c, 0, 72, 0
1, 13036, Note_on_c, 1, 48, 0
1, 13036, Note_on_c, 1, 36, 0
1, 13056, Note_on_c, 0, 67, 72
1, 13056, Note_on_c, 1, 43, 72
1, 13056, Note_on_c, 1, 31, 72
1, 13820, Note_on_c, 0, 67, 0
1, 13820, Note_on_c, 1, 43, 0
1, 13820, Note_on_c, 1, 31, 0
1, 13824, Note_on_c, 0, 76, 72
1, 13824, Note_on_c, 1, 52, 72
1, 14396, Note_on_c, 0, 76, 0
1, 14396, Note_on_c, 1, 52, 0
1, 14400, Note_on_c, 0, 77, 72
1, 14400, Note_on_c, 1, 53, 72
1, 14492, Note_on_c, 0, 77, 0
1, 14492, Note_on_c, 1, 53, 0
1, 14496, Note_on_c, 0, 74, 72
1, 14496, Note_on_c, 1, 50, 72
1, 14576, Note_on_c, 1, 48, 72
1, 14588, Note_on_c, 0, 74, 0
1, 14588, Note_on_c, 1, 50, 0
1, 14592, Note_on_c, 0, 72, 72
1, 14956, Note_on_c, 1, 48, 0
1, 14972, Note_on_c, 0, 72, 0
1, 15360, Note_on_c, 0, 79, 51
1, 15360, Note_on_c, 0, 64, 51
1, 15504, Note_on_c, 0, 64, 0
1, 15552, Note_on_c, 0, 67, 51
1, 15696, Note_on_c, 0, 67, 0
1, 15740, Note_on_c, 0, 79, 0
1, 15744, Note_on_c, 0, 79, 51
1, 15744, Note_on_c, 0, 64, 51
1, 15888, Note_on_c, 0, 64, 0
1, 15936, Note_on_c, 0, 67, 51
1, 16080, Note_on_c, 0, 67, 0
1, 16124, Note_on_c, 0, 79, 0
1, 16128, Note_on_c, 0, 61, 51
1, 16272, Note_on_c, 0, 61, 0
1, 16320, Note_on_c, 0, 67, 51
1, 16464, Note_on_c, 0, 67, 0
1, 16512, Note_on_c, 0, 61, 51
1, 16512, Note_on_c, 0, 81, 51
1, 16656, Note_on_c, 0, 61, 0
1, 16704, Note_on_c, 0, 67, 51
1, 16848, Note_on_c, 0, 67, 0
1, 16892, Note_on_c, 0, 81, 0
1, 16896, Note_on_c, 0, 79, 51
1, 16944, Note_on_c, 0, 79, 0
1, 16944, Note_on_c, 0, 77, 51
1, 16944, Note_on_c, 0, 62, 51
1, 17088, Note_on_c, 0, 62, 0
1, 17088, Note_on_c, 0, 67, 51
1, 17232, Note_on_c, 0, 67, 0
1, 17276, Note_on_c, 0, 77, 0
1, 17280, Note_on_c, 0, 77, 51
1, 17280, Note_on_c, 0, 62, 51
1, 17424, Note_on_c, 0, 62, 0
1, 17472, Note_on_c, 0, 67, 51
1, 17616, Note_on_c, 0, 67, 0
1, 17660, Note_on_c, 0, 77, 0
1, 17664, Note_on_c, 0, 59, 51
1, 17808, Note_on_c, 0, 59, 0
1, 17856, Note_on_c, 0, 78, 51
1, 17856, Note_on_c, 0, 67, 51
1, 18000, Note_on_c, 0, 78, 0
1, 18000, Note_on_c, 0, 67, 0
1, 18048, Note_on_c, 0, 81, 51
1, 18048, Note_on_c, 0, 59, 51
1, 18192, Note_on_c, 0, 81, 0
1, 18192, Note_on_c, 0, 59, 0
1, 18240, Note_on_c, 0, 79, 51
1, 18240, Note_on_c, 0, 67, 51
1, 18384, Note_on_c, 0, 79, 0
1, 18384, Note_on_c, 0, 67, 0
1, 18432, Note_on_c, 0, 77, 51
1, 18476, Note_on_c, 0, 77, 0
1, 18480, Note_on_c, 0, 76, 51
1, 18480, Note_on_c, 0, 60, 51
1, 18624, Note_on_c, 0, 60, 0
1, 18624, Note_on_c, 0, 67, 51
1, 18768, Note_on_c, 0, 67, 0
1, 18812, Note_on_c, 0, 76, 0
1, 18816, Note_on_c, 0, 76, 51
1, 18816, Note_on_c, 0, 60, 51
1, 18960, Note_on_c, 0, 60, 0
1, 19008, Note_on_c, 0, 67, 51
1, 19152, Note_on_c, 0, 67, 0
1, 19196, Note_on_c, 0, 76, 0
1, 19200, Note_on_c, 0, 64, 51
1, 19344, Note_on_c, 0, 64, 0
1, 19392, Note_on_c, 0, 76, 51
1, 19392, Note_on_c, 0, 67, 51
1, 19536, Note_on_c, 0, 76, 0
1, 19536, Note_on_c, 0, 67, 0
1, 19584, Note_on_c, 0, 79, 51
1, 19584, Note_on_c, 0, 64, 51
1, 19728, Note_on_c, 0, 79, 0
1, 19728, Note_on_c, 0, 64, 0
1, 19776, Note_on_c, 0, 76, 51
1, 19776, Note_on_c, 0, 67, 51
1, 19920, Note_on_c, 0, 76, 0
1, 19920, Note_on_c, 0, 67, 0
1, 19968, Note_on_c, 0, 73, 72
1, 19968, Note_on_c, 0, 67, 51
1, 19968, Note_on_c, 0, 70, 51
1, 20496, Note_on_c, 0, 67, 0
1, 20496, Note_on_c, 0, 70, 0
1, 20540, Note_on_c, 0, 73, 0
1, 20544, Note_on_c, 0, 74, 51
1, 20636, Note_on_c, 0, 74, 0
1, 20640, Note_on_c, 0, 76, 51
1, 20732, Note_on_c, 0, 76, 0
1, 20736, Note_on_c, 0, 74, 51
1, 20736, Note_on_c, 0, 65, 51
1, 20736, Note_on_c, 0, 69, 51
1, 21116, Note_on_c, 0, 74, 0
1, 21116, Note_on_c, 0, 65, 0
1, 21116, Note_on_c, 0, 69, 0
1, 21312, Note_on_c, 0, 77, 51
1, 21456, Note_on_c, 0, 77, 0
1, 21504, Note_on_c, 0, 76, 72
1, 21504, Note_on_c, 0, 71, 51
1, 21504, Note_on_c, 0, 67, 51
1, 22032, Note_on_c, 0, 71, 0
1, 22032, Note_on_c, 0, 67, 0
1, 22076, Note_on_c, 0, 76, 0
1, 22080, Note_on_c, 0, 77, 51
1, 22172, Note_on_c, 0, 77, 0
1, 22176, Note_on_c, 0, 79, 51
1, 22268, Note_on_c, 0, 79, 0
1, 22272, Note_on_c, 0, 77, 51
1, 22272, Note_on_c, 0, 72, 51
1, 22272, Note_on_c, 0, 69, 51
1, 22652, Note_on_c, 0, 77, 0
1, 22652, Note_on_c, 0, 72, 0
1, 22652, Note_on_c, 0, 69, 0
1, 23040, Note_on_c, 0, 84, 72
1, 23040, Note_on_c, 0, 72, 72
1, 23040, Note_on_c, 1, 57, 72
1, 23184, Note_on_c, 0, 84, 0
1, 23184, Note_on_c, 0, 72, 0
1, 23184, Note_on_c, 1, 57, 0
1, 23232, Note_on_c, 0, 84, 72
1, 23232, Note_on_c, 0, 72, 72
1, 23232, Note_on_c, 1, 60, 72
1, 23376, Note_on_c, 0, 84, 0
1, 23376, Note_on_c, 0, 72, 0
1, 23376, Note_on_c, 1, 60, 0
1, 23424, Note_on_c, 0, 84, 72
1, 23424, Note_on_c, 0, 72, 72
1, 23424, Note_on_c, 1, 57, 72
1, 23568, Note_on_c, 1, 57, 0
1, 23616, Note_on_c, 1, 60, 72
1, 23760, Note_on_c, 1, 60, 0
1, 23808, Note_on_c, 1, 53, 51
1, 23952, Note_on_c, 1, 53, 0
1, 24000, Note_on_c, 1, 60, 51
1, 24144, Note_on_c, 1, 60, 0
1, 24188, Note_on_c, 0, 84, 0
1, 24188, Note_on_c, 0, 72, 0
1, 24192, Note_on_c, 0, 83, 51
1, 24192, Note_on_c, 1, 53, 51
1, 24336, Note_on_c, 1, 53, 0
1, 24380, Note_on_c, 0, 83, 0
1, 24384, Note_on_c, 0, 81, 51
1, 24384, Note_on_c, 1, 60, 51
1, 24528, Note_on_c, 1, 60, 0
1, 24572, Note_on_c, 0, 81, 0
1, 24576, Note_on_c, 0, 79, 72
1, 24576, Note_on_c, 0, 72, 72
1, 24576, Note_on_c, 1, 52, 72
1, 24720, Note_on_c, 0, 79, 0
1, 24720, Note_on_c, 0, 72, 0
1, 24720, Note_on_c, 1, 52, 0
1, 24768, Note_on_c, 0, 72, 72
1, 24768, Note_on_c, 0, 79, 72
1, 24768, Note_on_c, 1, 60, 72
1, 24912, Note_on_c, 0, 72, 0
1, 24912, Note_on_c, 0, 79, 0
1, 24912, Note_on_c, 1, 60, 0
1, 24960, Note_on_c, 0, 79, 72
1, 24960, Note_on_c, 0, 72, 72
1, 24960, Note_on_c, 1, 52, 72
1, 25104, Note_on_c, 1, 52, 0
1, 25152, Note_on_c, 1, 60, 72
1, 25296, Note_on_c, 1, 60, 0
1, 25344, Note_on_c, 1, 48, 51
1, 25488, Note_on_c, 0, 79, 0
1, 25488, Note_on_c, 0, 72, 0
1, 25488, Note_on_c, 1, 48, 0
1, 25536, Note_on_c, 1, 60, 51
1, 25680, Note_on_c, 1, 60, 0
1, 25728, Note_on_c, 0, 77, 51
1, 25728, Note_on_c, 1, 48, 51
1, 25872, Note_on_c, 0, 77, 0
1, 25872, Note_on_c, 1, 48, 0
1, 25920, Note_on_c, 0, 76, 51
1, 25920, Note_on_c, 1, 60, 51
1, 26064, Note_on_c, 0, 76, 0
1, 26064, Note_on_c, 1, 60, 0
1, 26112, Note_on_c, 0, 76, 51
1, 26112, Note_on_c, 1, 53, 51
1, 26204, Note_on_c, 0, 76, 0
1, 26208, Note_on_c, 0, 74, 51
1, 26256, Note_on_c, 1, 53, 0
1, 26300, Note_on_c, 0, 74, 0
1, 26304, Note_on_c, 0, 77, 51
1, 26304, Note_on_c, 1, 57, 51
1, 26396, Note_on_c, 0, 77, 0
1, 26400, Note_on_c, 0, 81, 51
1, 26448, Note_on_c, 1, 57, 0
1, 26492, Note_on_c, 0, 81, 0
1, 26496, Note_on_c, 0, 79, 51
1, 26496, Note_on_c, 1, 53, 51
1, 26540, Note_on_c, 0, 79, 0
1, 26544, Note_on_c, 0, 77, 51
1, 26640, Note_on_c, 1, 53, 0
1, 26684, Note_on_c, 0, 77, 0
1, 26688, Note_on_c, 0, 76, 51
1, 26688, Note_on_c, 1, 62, 51
1, 26780, Note_on_c, 0, 76, 0
1, 26784, Note_on_c, 0, 74, 51
1, 26832, Note_on_c, 1, 62, 0
1, 26876, Note_on_c, 0, 74, 0
1, 26880, Note_on_c, 0, 72, 51
1, 26880, Note_on_c, 1, 55, 51
1, 27024, Note_on_c, 1, 55, 0
1, 27072, Note_on_c, 1, 64, 51
1, 27216, Note_on_c, 1, 64, 0
1, 27260, Note_on_c, 0, 72, 0
1, 27264, Note_on_c, 0, 71, 51
1, 27264, Note_on_c, 1, 55, 51
1, 27308, Note_on_c, 0, 71, 0
1, 27312, Note_on_c, 0, 72, 51
1, 27356, Note_on_c, 0, 72, 0
1, 27360, Note_on_c, 0, 71, 51
1, 27404, Note_on_c, 0, 71, 0
1, 27408, Note_on_c, 0, 72, 51
1, 27408, Note_on_c, 1, 55, 0
1, 27452, Note_on_c, 0, 72, 0
1, 27456, Note_on_c, 0, 69, 51
1, 27456, Note_on_c, 1, 62, 51
1, 27548, Note_on_c, 0, 69, 0
1, 27552, Note_on_c, 0, 72, 51
1, 27600, Note_on_c, 1, 62, 0
1, 27644, Note_on_c, 0, 72, 0
1, 27648, Note_on_c, 0, 84, 72
1, 27648, Note_on_c, 0, 72, 72
1, 27648, Note_on_c, 1, 57, 72
1, 27792, Note_on_c, 0, 84, 0
1, 27792, Note_on_c, 0, 72, 0
1, 27792, Note_on_c, 1, 57, 0
1, 27840, Note_on_c, 0, 84, 72
1, 27840, Note_on_c, 0, 72, 72
1, 27840, Note_on_c, 1, 60, 72
1, 27984, Note_on_c, 0, 84, 0
1, 27984, Note_on_c, 0, 72, 0
1, 27984, Note_on_c, 1, 60, 0
1, 28032, Note_on_c, 0, 84, 72
1, 28032, Note_on_c, 0, 72, 72
1, 28032, Note_on_c, 1, 57, 72
1, 28176, Note_on_c, 1, 57, 0
1, 28224, Note_on_c, 1, 60, 72
1, 28368, Note_on_c, 1, 60, 0
1, 28416, Note_on_c, 1, 53, 51
1, 28560, Note_on_c, 1, 53, 0
1, 28604, Note_on_c, 0, 84, 0
1, 28604, Note_on_c, 0, 72, 0
1, 28608, Note_on_c, 0, 86, 51
1, 28608, Note_on_c, 1, 60, 51
1, 28700, Note_on_c, 0, 86, 0
1, 28704, Note_on_c, 0, 84, 51
1, 28752, Note_on_c, 1, 60, 0
1, 28796, Note_on_c, 0, 84, 0
1, 28800, Note_on_c, 0, 83, 51
1, 28800, Note_on_c, 1, 53, 51
1, 28944, Note_on_c, 0, 83, 0
1, 28944, Note_on_c, 1, 53, 0
1, 28992, Note_on_c, 0, 81, 51
1, 28992, Note_on_c, 1, 60, 51
1, 29136, Note_on_c, 0, 81, 0
1, 29136, Note_on_c, 1, 60, 0
1, 29184, Note_on_c, 0, 79, 72
1, 29184, Note_on_c, 0, 72, 72
1, 29184, Note_on_c, 1, 52, 72
1, 29328, Note_on_c, 0, 79, 0
1, 29328, Note_on_c, 0, 72, 0
1, 29328, Note_on_c, 1, 52, 0
1, 29376, Note_on_c, 0, 72, 72
1, 29376, Note_on_c, 0, 79, 72
1, 29376, Note_on_c, 1, 60, 72
1, 29520, Note_on_c, 0, 72, 0
1, 29520, Note_on_c, 0, 79, 0
1, 29520, Note_on_c, 1, 60, 0
1, 29568, Note_on_c, 0, 79, 72
1, 29568, Note_on_c, 0, 72, 72
1, 29568, Note_on_c, 1, 52, 72
1, 29712, Note_on_c, 1, 52, 0
1, 29760, Note_on_c, 1, 60, 72
1, 29904, Note_on_c, 1, 60, 0
1, 29952, Note_on_c, 1, 48, 51
1, 30096, Note_on_c, 1, 48, 0
1, 30140, Note_on_c, 0, 79, 0
1, 30140, Note_on_c, 0, 72, 0
1, 30144, Note_on_c, 0, 81, 51
1, 30144, Note_on_c, 1, 60, 51
1, 30236, Note_on_c, 0, 81, 0
1, 30240, Note_on_c, 0, 79, 51
1, 30288, Note_on_c, 1, 60, 0
1, 30332, Note_on_c, 0, 79, 0
1, 30336, Note_on_c, 0, 77, 51
1, 30336, Note_on_c, 1, 48, 51
1, 30480, Note_on_c, 0, 77, 0
1, 30480, Note_on_c, 1, 48, 0
1, 30528, Note_on_c, 0, 76, 51
1, 30528, Note_on_c, 1, 60, 51
1, 30672, Note_on_c, 0, 76, 0
1, 30672, Note_on_c, 1, 60, 0
1, 30720, Note_on_c, 0, 76, 51
1, 30720, Note_on_c, 1, 53, 51
1, 30812, Note_on_c, 0, 76, 0
1, 30816, Note_on_c, 0, 71, 51
1, 30864, Note_on_c, 1, 53, 0
1, 30908, Note_on_c, 0, 71, 0
1, 30912, Note_on_c, 0, 81, 51
1, 30912, Note_on_c, 1, 60, 51
1, 31004, Note_on_c, 0, 81, 0
1, 31008, Note_on_c, 0, 80, 51
1, 31056, Note_on_c, 1, 60, 0
1, 31100, Note_on_c, 0, 80, 0
1, 31104, Note_on_c, 0, 83, 51
1, 31104, Note_on_c, 1, 53, 51
1, 31148, Note_on_c, 0, 83, 0
1, 31152, Note_on_c, 0, 81, 51
1, 31248, Note_on_c, 1, 53, 0
1, 31292, Note_on_c, 0, 81, 0
1, 31296, Note_on_c, 0, 79, 51
1, 31296, Note_on_c, 1, 62, 51
1, 31388, Note_on_c, 0, 79, 0
1, 31392, Note_on_c, 0, 77, 51
1, 31440, Note_on_c, 1, 62, 0
1, 31484, Note_on_c, 0, 77, 0
1, 31488, Note_on_c, 0, 76, 51
1, 31488, Note_on_c, 1, 55, 51
1, 31632, Note_on_c, 1, 55, 0
1, 31680, Note_on_c, 1, 60, 51
1, 31824, Note_on_c, 1, 60, 0
1, 31868, Note_on_c, 0, 76, 0
1, 31872, Note_on_c, 0, 74, 51
1, 31872, Note_on_c, 1, 55, 51
1, 31916, Note_on_c, 0, 74, 0
1, 31920, Note_on_c, 0, 76, 51
1, 31952, Note_on_c, 0, 74, 51
1, 31964, Note_on_c, 0, 76, 0
1, 31996, Note_on_c, 0, 74, 0
1, 32016, Note_on_c, 0, 76, 51
1, 32016, Note_on_c, 1, 55, 0
1, 32060, Note_on_c, 0, 76, 0
1, 32064, Note_on_c, 0, 72, 51
1, 32064, Note_on_c, 1, 59, 51
1, 32156, Note_on_c, 0, 72, 0
1, 32160, Note_on_c, 0, 74, 51
1, 32208, Note_on_c, 1, 59, 0
1, 32252, Note_on_c, 0, 74, 0
1, 32256, Note_on_c, 0, 72, 72
1, 32256, Note_on_c, 1, 64, 72
1, 32256, Note_on_c, 1, 60, 72
1, 32400, Note_on_c, 1, 64, 0
1, 32400, Note_on_c, 1, 60, 0
1, 32448, Note_on_c, 1, 64, 51
1, 32448, Note_on_c, 1, 60, 51
1, 32592, Note_on_c, 1, 64, 0
1, 32592, Note_on_c, 1, 60, 0
1, 32636, Note_on_c, 0, 72, 0
1, 32640, Note_on_c, 1, 64, 51
1, 32640, Note_on_c, 1, 60, 51
1, 32784, Note_on_c, 0, 74, 51
1, 32784, Note_on_c, 1, 64, 0
1, 32784, Note_on_c, 1, 60, 0
1, 32832, Note_on_c, 0, 74, 0
1, 32832, Note_on_c, 0, 72, 51
1, 32832, Note_on_c, 1, 60, 51
1, 32832, Note_on_c, 1, 64, 51
1, 32924, Note_on_c, 0, 72, 0
1, 32928, Note_on_c, 0, 71, 51
1, 32976, Note_on_c, 1, 60, 0
1, 32976, Note_on_c, 1, 64, 0
1, 33020, Note_on_c, 0, 71, 0
1, 33024, Note_on_c, 0, 72, 51
1, 33024, Note_on_c, 1, 64, 51
1, 33024, Note_on_c, 1, 60, 51
1, 33168, Note_on_c, 0, 72, 0
1, 33168, Note_on_c, 1, 64, 0
1, 33168, Note_on_c, 1, 60, 0
1, 33216, Note_on_c, 0, 75, 51
1, 33216, Note_on_c, 1, 64, 51
1, 33216, Note_on_c, 1, 60, 51
1, 33360, Note_on_c, 0, 75, 0
1, 33360, Note_on_c, 1, 64, 0
1, 33360, Note_on_c, 1, 60, 0
1, 33408, Note_on_c, 0, 76, 51
1, 33408, Note_on_c, 1, 64, 51
1, 33408, Note_on_c, 1, 60, 51
1, 33552, Note_on_c, 0, 76, 0
1, 33552, Note_on_c, 1, 64, 0
1, 33552, Note_on_c, 1, 60, 0
1, 33600, Note_on_c, 0, 78, 51
1, 33600, Note_on_c, 1, 64, 51
1, 33600, Note_on_c, 1, 60, 51
1, 33744, Note_on_c, 0, 78, 0
1, 33744, Note_on_c, 1, 64, 0
1, 33744, Note_on_c, 1, 60, 0
1, 33792, Note_on_c, 0, 79, 51
1, 33792, Note_on_c, 1, 64, 51
1, 33792, Note_on_c, 1, 60, 51
1, 33936, Note_on_c, 0, 79, 0
1, 33936, Note_on_c, 1, 64, 0
1, 33936, Note_on_c, 1, 60, 0
1, 33984, Note_on_c, 0, 83, 51
1, 33984, Note_on_c, 1, 64, 51
1, 33984, Note_on_c, 1, 60, 51
1, 34128, Note_on_c, 0, 83, 0
1, 34128, Note_on_c, 1, 64, 0
1, 34128, Note_on_c, 1, 60, 0
1, 34176, Note_on_c, 0, 84, 51
1, 34176, Note_on_c, 1, 64, 51
1, 34176, Note_on_c, 1, 60, 51
1, 34320, Note_on_c, 0, 84, 0
1, 34320, Note_on_c, 1, 64, 0
1, 34320, Note_on_c, 1, 60, 0
1, 34368, Note_on_c, 0, 87, 51
1, 34368, Note_on_c, 1, 60, 51
1, 34368, Note_on_c, 1, 64, 51
1, 34512, Note_on_c, 0, 87, 0
1, 34512, Note_on_c, 1, 60, 0
1, 34512, Note_on_c, 1, 64, 0
1, 34560, Note_on_c, 0, 88, 51
1, 34560, Note_on_c, 1, 64, 51
1, 34560, Note_on_c, 1, 60, 51
1, 34704, Note_on_c, 1, 64, 0
1, 34704, Note_on_c, 1, 60, 0
1, 34752, Note_on_c, 1, 64, 51
1, 34752, Note_on_c, 1, 60, 51
1, 34896, Note_on_c, 1, 64, 0
1, 34896, Note_on_c, 1, 60, 0
1, 34940, Note_on_c, 0, 88, 0
1, 34944, Note_on_c, 1, 64, 51
1, 34944, Note_on_c, 1, 60, 51
1, 35088, Note_on_c, 1, 64, 0
1, 35088, Note_on_c, 1, 60, 0
1, 35136, Note_on_c, 1, 64, 51
1, 35136, Note_on_c, 1, 60, 51
1, 35280, Note_on_c, 1, 64, 0
1, 35280, Note_on_c, 1, 60, 0
1, 35328, Note_on_c, 0, 74, 72
1, 35328, Note_on_c, 1, 59, 72
1, 35328, Note_on_c, 1, 62, 72
1, 35344, Note_on_c, 0, 79, 72
1, 35364, Note_on_c, 0, 86, 72
1, 35472, Note_on_c, 1, 59, 0
1, 35472, Note_on_c, 1, 62, 0
1, 35520, Note_on_c, 1, 59, 51
1, 35520, Note_on_c, 1, 62, 51
1, 35664, Note_on_c, 1, 59, 0
1, 35664, Note_on_c, 1, 62, 0
1, 35708, Note_on_c, 0, 74, 0
1, 35712, Note_on_c, 1, 59, 51
1, 35712, Note_on_c, 1, 62, 51
1, 35724, Note_on_c, 0, 79, 0
1, 35744, Note_on_c, 0, 86, 0
1, 35856, Note_on_c, 0, 72, 51
1, 35856, Note_on_c, 1, 59, 0
1, 35856, Note_on_c, 1, 62, 0
1, 35904, Note_on_c, 0, 72, 0
1, 35904, Note_on_c, 0, 71, 51
1, 35904, Note_on_c, 1, 59, 51
1, 35904, Note_on_c, 1, 62, 51
1, 35996, Note_on_c, 0, 71, 0
1, 36000, Note_on_c, 0, 69, 51
1, 36048, Note_on_c, 1, 59, 0
1, 36048, Note_on_c, 1, 62, 0
1, 36092, Note_on_c, 0, 69, 0
1, 36096, Note_on_c, 0, 71, 51
1, 36096, Note_on_c, 1, 59, 51
1, 36096, Note_on_c, 1, 62, 51
1, 36240, Note_on_c, 0, 71, 0
1, 36240, Note_on_c, 1, 59, 0
1, 36240, Note_on_c, 1, 62, 0
1, 36288, Note_on_c, 0, 73, 51
1, 36288, Note_on_c, 1, 59, 51
1, 36288, Note_on_c, 1, 62, 51
1, 36432, Note_on_c, 0, 73, 0
1, 36432, Note_on_c, 1, 59, 0
1, 36432, Note_on_c, 1, 62, 0
1, 36480, Note_on_c, 0, 74, 51
1, 36480, Note_on_c, 1, 62, 51
1, 36480, Note_on_c, 1, 59, 51
1, 36624, Note_on_c, 0, 74, 0
1, 36624, Note_on_c, 1, 62, 0
1, 36624, Note_on_c, 1, 59, 0
1, 36672, Note_on_c, 0, 78, 51
1, 36672, Note_on_c, 1, 59, 51
1, 36672, Note_on_c, 1, 62, 51
1, 36816, Note_on_c, 0, 78, 0
1, 36816, Note_on_c, 1, 59, 0
1, 36816, Note_on_c, 1, 62, 0
1, 36864, Note_on_c, 0, 79, 51
1, 36864, Note_on_c, 1, 62, 51
1, 36864, Note_on_c, 1, 59, 51
1, 37008, Note_on_c, 0, 79, 0
1, 37008, Note_on_c, 1, 62, 0
1, 37008, Note_on_c, 1, 59, 0
1, 37056, Note_on_c, 0, 82, 51
1, 37056, Note_on_c, 1, 62, 51
1, 37056, Note_on_c, 1, 59, 51
1, 37200, Note_on_c, 0, 82, 0
1, 37200, Note_on_c, 1, 62, 0
1, 37200, Note_on_c, 1, 59, 0
1, 37248, Note_on_c, 0, 83, 51
1, 37248, Note_on_c, 1, 62, 51
1, 37248, Note_on_c, 1, 59, 51
1, 37392, Note_on_c, 0, 83, 0
1, 37392, Note_on_c, 1, 62, 0
1, 37392, Note_on_c, 1, 59, 0
1, 37440, Note_on_c, 0, 85, 51
1, 37440, Note_on_c, 1, 59, 51
1, 37440, Note_on_c, 1, 62, 51
1, 37584, Note_on_c, 0, 85, 0
1, 37584, Note_on_c, 1, 59, 0
1, 37584, Note_on_c, 1, 62, 0
1, 37632, Note_on_c, 0, 86, 51
1, 37632, Note_on_c, 1, 62, 51
1, 37632, Note_on_c, 1, 59, 51
1, 37776, Note_on_c, 1, 62, 0
1, 37776, Note_on_c, 1, 59, 0
1, 37824, Note_on_c, 1, 62, 51
1, 37824, Note_on_c, 1, 59, 51
1, 37968, Note_on_c, 1, 62, 0
1, 37968, Note_on_c, 1, 59, 0
1, 38012, Note_on_c, 0, 86, 0
1, 38016, Note_on_c, 1, 62, 51
1, 38016, Note_on_c, 1, 59, 51
1, 38160, Note_on_c, 1, 62, 0
1, 38160, Note_on_c, 1, 59, 0
1, 38208, Note_on_c, 1, 62, 51
1, 38208, Note_on_c, 1, 59, 51
1, 38352, Note_on_c, 1, 62, 0
1, 38352, Note_on_c, 1, 59, 0
1, 38400, Note_on_c, 0, 72, 72
1, 38400, Note_on_c, 1, 54, 72
1, 38400, Note_on_c, 1, 57, 72
1, 38400, Note_on_c, 1, 62, 72
1, 38416, Note_on_c, 0, 78, 72
1, 38436, Note_on_c, 0, 81, 72
1, 38456, Note_on_c, 0, 84, 72
1, 38544, Note_on_c, 1, 54, 0
1, 38544, Note_on_c, 1, 57, 0
1, 38544, Note_on_c, 1, 62, 0
1, 38592, Note_on_c, 1, 54, 51
1, 38592, Note_on_c, 1, 57, 51
1, 38592, Note_on_c, 1, 62, 51
1, 38736, Note_on_c, 1, 54, 0
1, 38736, Note_on_c, 1, 57, 0
1, 38736, Note_on_c, 1, 62, 0
1, 38780, Note_on_c, 0, 72, 0
1, 38784, Note_on_c, 1, 54, 51
1, 38784, Note_on_c, 1, 62, 51
1, 38784, Note_on_c, 1, 57, 51
1, 38796, Note_on_c, 0, 78, 0
1, 38816, Note_on_c, 0, 81, 0
1, 38836, Note_on_c, 0, 84, 0
1, 38928, Note_on_c, 0, 71, 51
1, 38928, Note_on_c, 1, 54, 0
1, 38928, Note_on_c, 1, 62, 0
1, 38928, Note_on_c, 1, 57, 0
1, 38976, Note_on_c, 0, 71, 0
1, 38976, Note_on_c, 0, 69, 51
1, 38976, Note_on_c, 1, 54, 51
1, 38976, Note_on_c, 1, 57, 51
1, 38976, Note_on_c, 1, 62, 51
1, 39068, Note_on_c, 0, 69, 0
1, 39072, Note_on_c, 0, 68, 56
1, 39120, Note_on_c, 1, 54, 0
1, 39120, Note_on_c, 1, 57, 0
1, 39120, Note_on_c, 1, 62, 0
1, 39164, Note_on_c, 0, 68, 0
1, 39168, Note_on_c, 0, 69, 62
1, 39168, Note_on_c, 1, 54, 51
1, 39168, Note_on_c, 1, 57, 51
1, 39168, Note_on_c, 1, 62, 51
1, 39312, Note_on_c, 0, 69, 0
1, 39312, Note_on_c, 1, 54, 0
1, 39312, Note_on_c, 1, 57, 0
1, 39312, Note_on_c, 1, 62, 0
1, 39360, Note_on_c, 0, 71, 63
1, 39360, Note_on_c, 1, 54, 51
1, 39360, Note_on_c, 1, 57, 51
1, 39360, Note_on_c, 1, 62, 51
1, 39504, Note_on_c, 0, 71, 0
1, 39504, Note_on_c, 1, 54, 0
1, 39504, Note_on_c, 1, 57, 0
1, 39504, Note_on_c, 1, 62, 0
1, 39552, Note_on_c, 0, 72, 65
1, 39552, Note_on_c, 1, 57, 51
1, 39552, Note_on_c, 1, 62, 51
1, 39552, Note_on_c, 1, 54, 51
1, 39696, Note_on_c, 0, 72, 0
1, 39696, Note_on_c, 1, 57, 0
1, 39696, Note_on_c, 1, 62, 0
1, 39696, Note_on_c, 1, 54, 0
1, 39744, Note_on_c, 0, 77, 66
1, 39744, Note_on_c, 1, 54, 51
1, 39744, Note_on_c, 1, 57, 51
1, 39744, Note_on_c, 1, 62, 51
1, 39888, Note_on_c, 0, 77, 0
1, 39888, Note_on_c, 1, 54, 0
1, 39888, Note_on_c, 1, 57, 0
1, 39888, Note_on_c, 1, 62, 0
1, 39936, Note_on_c, 0, 78, 67
1, 39936, Note_on_c, 1, 54, 51
1, 39936, Note_on_c, 1, 57, 51
1, 39936, Note_on_c, 1, 62, 51
1, 40080, Note_on_c, 0, 78, 0
1, 40080, Note_on_c, 1, 54, 0
1, 40080, Note_on_c, 1, 57, 0
1, 40080, Note_on_c, 1, 62, 0
1, 40128, Note_on_c, 0, 80, 68
1, 40128, Note_on_c, 1, 54, 51
1, 40128, Note_on_c, 1, 57, 51
1, 40128, Note_on_c, 1, 62, 51
1, 40272, Note_on_c, 0, 80, 0
1, 40272, Note_on_c, 1, 54, 0
1, 40272, Note_on_c, 1, 57, 0
1, 40272, Note_on_c, 1, 62, 0
1, 40320, Note_on_c, 0, 81, 70
1, 40320, Note_on_c, 1, 54, 51
1, 40320, Note_on_c, 1, 57, 51
1, 40320, Note_on_c, 1, 62, 51
1, 40464, Note_on_c, 0, 81, 0
1, 40464, Note_on_c, 1, 54, 0
1, 40464, Note_on_c, 1, 57, 0
1, 40464, Note_on_c, 1, 62, 0
1, 40512, Note_on_c, 0, 83, 71
1, 40512, Note_on_c, 1, 54, 51
1, 40512, Note_on_c, 1, 57, 51
1, 40512, Note_on_c, 1, 62, 51
1, 40656, Note_on_c, 0, 83, 0
1, 40656, Note_on_c, 1, 54, 0
1, 40656, Note_on_c, 1, 57, 0
1, 40656, Note_on_c, 1, 62, 0
1, 40704, Note_on_c, 0, 84, 72
1, 40704, Note_on_c, 1, 54, 51
1, 40704, Note_on_c, 1, 57, 51
1, 40704, Note_on_c, 1, 62, 51
1, 40848, Note_on_c, 1, 54, 0
1, 40848, Note_on_c, 1, 57, 0
1, 40848, Note_on_c, 1, 62, 0
1, 40896, Note_on_c, 1, 54, 51
1, 40896, Note_on_c, 1, 57, 51
1, 40896, Note_on_c, 1, 62, 51
1, 41040, Note_on_c, 1, 54, 0
1, 41040, Note_on_c, 1, 57, 0
1, 41040, Note_on_c, 1, 62, 0
1, 41084, Note_on_c, 0, 84, 0
1, 41088, Note_on_c, 1, 54, 51
1, 41088, Note_on_c, 1, 57, 51
1, 41088, Note_on_c, 1, 62, 51
1, 41232, Note_on_c, 1, 54, 0
1, 41232, Note_on_c, 1, 57, 0
1, 41232, Note_on_c, 1, 62, 0
1, 41280, Note_on_c, 1, 54, 51
1, 41280, Note_on_c, 1, 62, 51
1, 41280, Note_on_c, 1, 57, 51
1, 41424, Note_on_c, 1, 54, 0
1, 41424, Note_on_c, 1, 62, 0
1, 41424, Note_on_c, 1, 57, 0
1, 41472, Note_on_c, 0, 84, 75
1, 41472, Note_on_c, 1, 55, 72
1, 41516, Note_on_c, 0, 84, 0
1, 41520, Note_on_c, 0, 83, 51
1, 41616, Note_on_c, 1, 55, 0
1, 41660, Note_on_c, 0, 83, 0
1, 41664, Note_on_c, 0, 81, 51
1, 41664, Note_on_c, 1, 62, 72
1, 41756, Note_on_c, 0, 81, 0
1, 41760, Note_on_c, 0, 79, 51
1, 41808, Note_on_c, 1, 62, 0
1, 41852, Note_on_c, 0, 79, 0
1, 41856, Note_on_c, 0, 79, 51
1, 41856, Note_on_c, 1, 57, 51
1, 41900, Note_on_c, 0, 79, 0
1, 41904, Note_on_c, 0, 78, 51
1, 42000, Note_on_c, 1, 57, 0
1, 42044, Note_on_c, 0, 78, 0
1, 42048, Note_on_c, 0, 76, 51
1, 42048, Note_on_c, 1, 62, 51
1, 42140, Note_on_c, 0, 76, 0
1, 42144, Note_on_c, 0, 74, 51
1, 42192, Note_on_c, 1, 62, 0
1, 42236, Note_on_c, 0, 74, 0
1, 42240, Note_on_c, 0, 74, 51
1, 42240, Note_on_c, 1, 54, 72
1, 42272, Note_on_c, 0, 74, 0
1, 42288, Note_on_c, 0, 78, 51
1, 42320, Note_on_c, 0, 78, 0
1, 42336, Note_on_c, 0, 81, 51
1, 42368, Note_on_c, 0, 81, 0
1, 42384, Note_on_c, 0, 84, 75
1, 42384, Note_on_c, 1, 54, 0
1, 42432, Note_on_c, 1, 62, 51
1, 42576, Note_on_c, 1, 62, 0
1, 42624, Note_on_c, 1, 50, 51
1, 42768, Note_on_c, 1, 50, 0
1, 42816, Note_on_c, 1, 62, 51
1, 42960, Note_on_c, 1, 62, 0
1, 43008, Note_on_c, 0, 84, 68
1, 43008, Note_on_c, 1, 55, 51
1, 43028, Note_on_c, 0, 84, 0
1, 43052, Note_on_c, 0, 84, 0
1, 43056, Note_on_c, 0, 83, 51
1, 43152, Note_on_c, 1, 55, 0
1, 43196, Note_on_c, 0, 83, 0
1, 43200, Note_on_c, 0, 81, 51
1, 43200, Note_on_c, 1, 62, 51
1, 43292, Note_on_c, 0, 81, 0
1, 43296, Note_on_c, 0, 79, 51
1, 43344, Note_on_c, 1, 62, 0
1, 43388, Note_on_c, 0, 79, 0
1, 43392, Note_on_c, 0, 79, 51
1, 43392, Note_on_c, 1, 59, 51
1, 43436, Note_on_c, 0, 79, 0
1, 43440, Note_on_c, 0, 78, 51
1, 43536, Note_on_c, 1, 59, 0
1, 43580, Note_on_c, 0, 78, 0
1, 43584, Note_on_c, 0, 76, 51
1, 43584, Note_on_c, 1, 62, 51
1, 43676, Note_on_c, 0, 76, 0
1, 43680, Note_on_c, 0, 74, 51
1, 43728, Note_on_c, 1, 62, 0
1, 43772, Note_on_c, 0, 74, 0
1, 43776, Note_on_c, 0, 74, 51
1, 43776, Note_on_c, 1, 54, 72
1, 43808, Note_on_c, 0, 74, 0
1, 43824, Note_on_c, 0, 78, 51
1, 43856, Note_on_c, 0, 78, 0
1, 43872, Note_on_c, 0, 81, 51
1, 43904, Note_on_c, 0, 81, 0
1, 43920, Note_on_c, 0, 84, 75
1, 43920, Note_on_c, 1, 54, 0
1, 43968, Note_on_c, 1, 62, 51
1, 44112, Note_on_c, 1, 62, 0
1, 44160, Note_on_c, 1, 50, 51
1, 44304, Note_on_c, 1, 50, 0
1, 44352, Note_on_c, 1, 62, 51
1, 44496, Note_on_c, 1, 62, 0
1, 44544, Note_on_c, 0, 83, 72
1, 44544, Note_on_c, 1, 62, 72
1, 44544, Note_on_c, 1, 55, 72
1, 44564, Note_on_c, 0, 84, 0
1, 44636, Note_on_c, 0, 83, 0
1, 44640, Note_on_c, 0, 81, 72
1, 44732, Note_on_c, 0, 81, 0
1, 44736, Note_on_c, 0, 84, 72
1, 44828, Note_on_c, 0, 84, 0
1, 44832, Note_on_c, 0, 83, 72
1, 44924, Note_on_c, 0, 83, 0
1, 44924, Note_on_c, 1, 62, 0
1, 44924, Note_on_c, 1, 55, 0
1, 44928, Note_on_c, 0, 86, 72
1, 45072, Note_on_c, 0, 86, 0
1, 45072, Note_on_c, 0, 78, 72
1, 45216, Note_on_c, 0, 78, 0
1, 45312, Note_on_c, 0, 79, 72
1, 45312, Note_on_c, 1, 59, 72
1, 45312, Note_on_c, 1, 62, 72
1, 45404, Note_on_c, 0, 79, 0
1, 45408, Note_on_c, 0, 78, 72
1, 45500, Note_on_c, 0, 78, 0
1, 45504, Note_on_c, 0, 81, 72
1, 45596, Note_on_c, 0, 81, 0
1, 45600, Note_on_c, 0, 79, 72
1, 45692, Note_on_c, 0, 79, 0
1, 45692, Note_on_c, 1, 59, 0
1, 45692, Note_on_c, 1, 62, 0
1, 45696, Note_on_c, 0, 83, 72
1, 45840, Note_on_c, 0, 83, 0
1, 45888, Note_on_c, 0, 75, 72
1, 46032, Note_on_c, 0, 75, 0
1, 46080, Note_on_c, 0, 76, 72
1, 46080, Note_on_c, 1, 60, 72
1, 46080, Note_on_c, 1, 67, 72
1, 46172, Note_on_c, 0, 76, 0
1, 46176, Note_on_c, 0, 75, 72
1, 46268, Note_on_c, 0, 75, 0
1, 46272, Note_on_c, 0, 78, 72
1, 46364, Note_on_c, 0, 78, 0
1, 46368, Note_on_c, 0, 76, 72
1, 46460, Note_on_c, 0, 76, 0
1, 46460, Note_on_c, 1, 60, 0
1, 46460, Note_on_c, 1, 67, 0
1, 46464, Note_on_c, 0, 79, 72
1, 46608, Note_on_c, 0, 79, 0
1, 46656, Note_on_c, 0, 71, 72
1, 46800, Note_on_c, 0, 71, 0
1, 46848, Note_on_c, 0, 72, 72
1, 46848, Note_on_c, 1, 67, 72
1, 46848, Note_on_c, 1, 64, 72
1, 46940, Note_on_c, 0, 72, 0
1, 46944, Note_on_c, 0, 71, 72
1, 47036, Note_on_c, 0, 71, 0
1, 47040, Note_on_c, 0, 74, 72
1, 47132, Note_on_c, 0, 74, 0
1, 47136, Note_on_c, 0, 72, 72
1, 47228, Note_on_c, 0, 72, 0
1, 47228, Note_on_c, 1, 67, 0
1, 47228, Note_on_c, 1, 64, 0
1, 47232, Note_on_c, 0, 76, 72
1, 47376, Note_on_c, 0, 76, 0
1, 47424, Note_on_c, 0, 68, 72
1, 47568, Note_on_c, 0, 68, 0
1, 47616, Note_on_c, 0, 69, 72
1, 47616, Note_on_c, 1, 57, 72
1, 47900, Note_on_c, 0, 69, 0
1, 47900, Note_on_c, 1, 57, 0
1, 47904, Note_on_c, 0, 71, 72
1, 47904, Note_on_c, 1, 59, 72
1, 47996, Note_on_c, 0, 71, 0
1, 47996, Note_on_c, 1, 59, 0
1, 48000, Note_on_c, 0, 72, 72
1, 48000, Note_on_c, 1, 60, 72
1, 48284, Note_on_c, 0, 72, 0
1, 48284, Note_on_c, 1, 60, 0
1, 48288, Note_on_c, 0, 71, 72
1, 48288, Note_on_c, 1, 59, 72
1, 48380, Note_on_c, 0, 71, 0
1, 48380, Note_on_c, 1, 59, 0
1, 48384, Note_on_c, 0, 69, 72
1, 48384, Note_on_c, 1, 57, 72
1, 48668, Note_on_c, 0, 69, 0
1, 48668, Note_on_c, 1, 57, 0
1, 48672, Note_on_c, 0, 67, 72
1, 48672, Note_on_c, 1, 55, 72
1, 48764, Note_on_c, 0, 67, 0
1, 48764, Note_on_c, 1, 55, 0
1, 48768, Note_on_c, 0, 66, 72
1, 48768, Note_on_c, 1, 54, 72
1, 49052, Note_on_c, 0, 66, 0
1, 49052, Note_on_c, 1, 54, 0
1, 49056, Note_on_c, 0, 64, 72
1, 49056, Note_on_c, 1, 52, 72
1, 49148, Note_on_c, 0, 64, 0
1, 49148, Note_on_c, 1, 52, 0
1, 49152, Note_on_c, 0, 62, 72
1, 49152, Note_on_c, 1, 50, 72
1, 49340, Note_on_c, 0, 62, 0
1, 49340, Note_on_c, 1, 50, 0
1, 49344, Note_on_c, 0, 66, 72
1, 49344, Note_on_c, 1, 54, 72
1, 49436, Note_on_c, 0, 66, 0
1, 49436, Note_on_c, 1, 54, 0
1, 49440, Note_on_c, 0, 69, 72
1, 49440, Note_on_c, 1, 57, 72
1, 49532, Note_on_c, 0, 69, 0
1, 49532, Note_on_c, 1, 57, 0
1, 49536, Note_on_c, 0, 74, 72
1, 49536, Note_on_c, 1, 62, 72
1, 49680, Note_on_c, 0, 74, 0
1, 49680, Note_on_c, 1, 62, 0
1, 49728, Note_on_c, 0, 74, 72
1, 49728, Note_on_c, 1, 62, 72
1, 49872, Note_on_c, 0, 74, 0
1, 49872, Note_on_c, 1, 62, 0
1, 49920, Note_on_c, 0, 74, 72
1, 49920, Note_on_c, 1, 62, 72
1, 50300, Note_on_c, 0, 74, 0
1, 50300, Note_on_c, 1, 62, 0
1, 50688, Note_on_c, 1, 61, 51
1, 50832, Note_on_c, 1, 61, 0
1, 50880, Note_on_c, 1, 62, 51
1, 51024, Note_on_c, 1, 62, 0
1, 51072, Note_on_c, 1, 61, 51
1, 51216, Note_on_c, 1, 61, 0
1, 51264, Note_on_c, 1, 62, 51
1, 51408, Note_on_c, 1, 62, 0
1, 51456, Note_on_c, 1, 61, 51
1, 51600, Note_on_c, 1, 61, 0
1, 51648, Note_on_c, 1, 62, 51
1, 51792, Note_on_c, 1, 62, 0
1, 51840, Note_on_c, 1, 61, 51
1, 51984, Note_on_c, 1, 61, 0
1, 52032, Note_on_c, 1, 62, 52
1, 52176, Note_on_c, 1, 62, 0
1, 52224, Note_on_c, 1, 60, 55
1, 52368, Note_on_c, 1, 60, 0
1, 52416, Note_on_c, 1, 62, 57
1, 52560, Note_on_c, 1, 62, 0
1, 52608, Note_on_c, 1, 59, 60
1, 52752, Note_on_c, 1, 59, 0
1, 52800, Note_on_c, 1, 62, 62
1, 52944, Note_on_c, 1, 62, 0
1, 52992, Note_on_c, 1, 60, 65
1, 53136, Note_on_c, 1, 60, 0
1, 53184, Note_on_c, 1, 62, 67
1, 53328, Note_on_c, 1, 62, 0
1, 53376, Note_on_c, 1, 57, 70
1, 53520, Note_on_c, 1, 57, 0
1, 53568, Note_on_c, 1, 62, 72
1, 53712, Note_on_c, 1, 62, 0
1, 53760, Note_on_c, 0, 83, 51
1, 53760, Note_on_c, 1, 55, 51
1, 53904, Note_on_c, 0, 83, 0
1, 53904, Note_on_c, 0, 84, 51
1, 53904, Note_on_c, 1, 55, 0
1, 53952, Note_on_c, 1, 62, 51
1, 54048, Note_on_c, 0, 84, 0
1, 54096, Note_on_c, 1, 62, 0
1, 54144, Note_on_c, 0, 86, 51
1, 54144, Note_on_c, 1, 55, 51
1, 54288, Note_on_c, 0, 86, 0
1, 54288, Note_on_c, 1, 55, 0
1, 54336, Note_on_c, 0, 83, 51
1, 54336, Note_on_c, 1, 62, 51
1, 54480, Note_on_c, 0, 83, 0
1, 54480, Note_on_c, 1, 62, 0
1, 54528, Note_on_c, 0, 79, 51
1, 54528, Note_on_c, 1, 59, 51
1, 54672, Note_on_c, 1, 59, 0
1, 54720, Note_on_c, 1, 62, 51
1, 54864, Note_on_c, 1, 62, 0
1, 54912, Note_on_c, 1, 59, 51
1, 55056, Note_on_c, 1, 59, 0
1, 55104, Note_on_c, 1, 62, 51
1, 55248, Note_on_c, 1, 62, 0
1, 55292, Note_on_c, 0, 79, 0
1, 55296, Note_on_c, 0, 81, 51
1, 55296, Note_on_c, 1, 60, 51
1, 55440, Note_on_c, 0, 81, 0
1, 55440, Note_on_c, 1, 60, 0
1, 55488, Note_on_c, 0, 83, 51
1, 55488, Note_on_c, 1, 62, 51
1, 55632, Note_on_c, 0, 83, 0
1, 55632, Note_on_c, 1, 62, 0
1, 55680, Note_on_c, 0, 84, 51
1, 55680, Note_on_c, 1, 60, 51
1, 55824, Note_on_c, 0, 84, 0
1, 55824, Note_on_c, 1, 60, 0
1, 55872, Note_on_c, 0, 81, 51
1, 55872, Note_on_c, 1, 62, 51
1, 56016, Note_on_c, 0, 81, 0
1, 56016, Note_on_c, 1, 62, 0
1, 56064, Note_on_c, 0, 78, 51
1, 56064, Note_on_c, 1, 57, 51
1, 56208, Note_on_c, 1, 57, 0
1, 56256, Note_on_c, 1, 62, 51
1, 56400, Note_on_c, 1, 62, 0
1, 56448, Note_on_c, 1, 57, 51
1, 56592, Note_on_c, 1, 57, 0
1, 56640, Note_on_c, 1, 62, 51
1, 56784, Note_on_c, 1, 62, 0
1, 56828, Note_on_c, 0, 78, 0
1, 56832, Note_on_c, 0, 79, 51
1, 56832, Note_on_c, 1, 59, 51
1, 56924, Note_on_c, 0, 79, 0
1, 56928, Note_on_c, 0, 78, 51
1, 56976, Note_on_c, 1, 59, 0
1, 57024, Note_on_c, 1, 62, 51
1, 57116, Note_on_c, 0, 78, 0
1, 57168, Note_on_c, 1, 62, 0
1, 57216, Note_on_c, 0, 76, 51
1, 57216, Note_on_c, 1, 55, 51
1, 57308, Note_on_c, 0, 76, 0
1, 57312, Note_on_c, 0, 74, 51
1, 57360, Note_on_c, 1, 55, 0
1, 57408, Note_on_c, 1, 62, 51
1, 57500, Note_on_c, 0, 74, 0
1, 57552, Note_on_c, 1, 62, 0
1, 57600, Note_on_c, 0, 71, 51
1, 57600, Note_on_c, 1, 57, 51
1, 57692, Note_on_c, 0, 71, 0
1, 57696, Note_on_c, 0, 72, 51
1, 57744, Note_on_c, 1, 57, 0
1, 57792, Note_on_c, 1, 62, 51
1, 57884, Note_on_c, 0, 72, 0
1, 57936, Note_on_c, 1, 62, 0
1, 57984, Note_on_c, 1, 54, 51
1, 58128, Note_on_c, 1, 54, 0
1, 58176, Note_on_c, 1, 62, 51
1, 58320, Note_on_c, 1, 62, 0
1, 58368, Note_on_c, 0, 72, 51
1, 58368, Note_on_c, 1, 55, 51
1, 58460, Note_on_c, 0, 72, 0
1, 58464, Note_on_c, 0, 71, 51
1, 58512, Note_on_c, 1, 55, 0
1, 58560, Note_on_c, 1, 62, 51
1, 58652, Note_on_c, 0, 71, 0
1, 58704, Note_on_c, 1, 62, 0
1, 58752, Note_on_c, 0, 69, 51
1, 58752, Note_on_c, 1, 52, 51
1, 58844, Note_on_c, 0, 69, 0
1, 58848, Note_on_c, 0, 67, 51
1, 58896, Note_on_c, 1, 52, 0
1, 58944, Note_on_c, 1, 61, 51
1, 59036, Note_on_c, 0, 67, 0
1, 59088, Note_on_c, 1, 61, 0
1, 59136, Note_on_c, 0, 71, 51
1, 59136, Note_on_c, 1, 50, 51
1, 59228, Note_on_c, 0, 71, 0
1, 59232, Note_on_c, 0, 69, 51
1, 59280, Note_on_c, 1, 50, 0
1, 59328, Note_on_c, 1, 62, 51
1, 59420, Note_on_c, 0, 69, 0
1, 59472, Note_on_c, 1, 62, 0
1, 59520, Note_on_c, 1, 60, 51
1, 59664, Note_on_c, 1, 60, 0
1, 59712, Note_on_c, 1, 57, 51
1, 59856, Note_on_c, 1, 57, 0
1, 59904, Note_on_c, 0, 83, 51
1, 59904, Note_on_c, 1, 55, 51
1, 60048, Note_on_c, 0, 83, 0
1, 60048, Note_on_c, 1, 55, 0
1, 60096, Note_on_c, 0, 84, 51
1, 60096, Note_on_c, 1, 62, 51
1, 60240, Note_on_c, 0, 84, 0
1, 60240, Note_on_c, 1, 62, 0
1, 60288, Note_on_c, 0, 86, 51
1, 60288, Note_on_c, 1, 55, 51
1, 60432, Note_on_c, 0, 86, 0
1, 60432, Note_on_c, 1, 55, 0
1, 60480, Note_on_c, 0, 83, 51
1, 60480, Note_on_c, 1, 62, 51
1, 60624, Note_on_c, 0, 83, 0
1, 60624, Note_on_c, 1, 62, 0
1, 60672, Note_on_c, 0, 79, 51
1, 60672, Note_on_c, 1, 59, 51
1, 60816, Note_on_c, 1, 59, 0
1, 60864, Note_on_c, 1, 62, 51
1, 61008, Note_on_c, 1, 62, 0
1, 61056, Note_on_c, 1, 59, 51
1, 61200, Note_on_c, 0, 79, 0
1, 61200, Note_on_c, 1, 59, 0
1, 61248, Note_on_c, 1, 62, 51
1, 61392, Note_on_c, 1, 62, 0
1, 61440, Note_on_c, 0, 81, 51
1, 61440, Note_on_c, 1, 60, 51
1, 61584, Note_on_c, 0, 81, 0
1, 61584, Note_on_c, 1, 60, 0
1, 61632, Note_on_c, 0, 83, 51
1, 61632, Note_on_c, 1, 62, 51
1, 61776, Note_on_c, 0, 83, 0
1, 61776, Note_on_c, 1, 62, 0
1, 61824, Note_on_c, 0, 84, 51
1, 61824, Note_on_c, 1, 60, 51
1, 61968, Note_on_c, 0, 84, 0
1, 61968, Note_on_c, 1, 60, 0
1, 62016, Note_on_c, 0, 81, 51
1, 62016, Note_on_c, 1, 62, 51
1, 62160, Note_on_c, 0, 81, 0
1, 62160, Note_on_c, 1, 62, 0
1, 62208, Note_on_c, 0, 78, 51
1, 62208, Note_on_c, 1, 57, 51
1, 62352, Note_on_c, 1, 57, 0
1, 62400, Note_on_c, 1, 62, 51
1, 62544, Note_on_c, 1, 62, 0
1, 62592, Note_on_c, 1, 57, 51
1, 62736, Note_on_c, 0, 78, 0
1, 62736, Note_on_c, 1, 57, 0
1, 62784, Note_on_c, 1, 62, 51
1, 62928, Note_on_c, 1, 62, 0
1, 62976, Note_on_c, 0, 79, 51
1, 62976, Note_on_c, 1, 59, 51
1, 63068, Note_on_c, 0, 79, 0
1, 63072, Note_on_c, 0, 78, 51
1, 63120, Note_on_c, 1, 59, 0
1, 63168, Note_on_c, 1, 62, 51
1, 63260, Note_on_c, 0, 78, 0
1, 63312, Note_on_c, 1, 62, 0
1, 63360, Note_on_c, 0, 76, 51
1, 63360, Note_on_c, 1, 55, 51
1, 63452, Note_on_c, 0, 76, 0
1, 63456, Note_on_c, 0, 74, 51
1, 63504, Note_on_c, 1, 55, 0
1, 63552, Note_on_c, 1, 62, 51
1, 63644, Note_on_c, 0, 74, 0
1, 63696, Note_on_c, 1, 62, 0
1, 63744, Note_on_c, 0, 71, 51
1, 63744, Note_on_c, 1, 57, 51
1, 63836, Note_on_c, 0, 71, 0
1, 63840, Note_on_c, 0, 72, 51
1, 63888, Note_on_c, 1, 57, 0
1, 63936, Note_on_c, 1, 62, 51
1, 64028, Note_on_c, 0, 72, 0
1, 64080, Note_on_c, 1, 62, 0
1, 64128, Note_on_c, 1, 54, 51
1, 64272, Note_on_c, 1, 54, 0
1, 64320, Note_on_c, 1, 62, 51
1, 64464, Note_on_c, 1, 62, 0
1, 64512, Note_on_c, 0, 72, 51
1, 64512, Note_on_c, 1, 55, 51
1, 64604, Note_on_c, 0, 72, 0
1, 64608, Note_on_c, 0, 71, 51
1, 64656, Note_on_c, 1, 55, 0
1, 64704, Note_on_c, 1, 62, 51
1, 64796, Note_on_c, 0, 71, 0
1, 64848, Note_on_c, 1, 62, 0
1, 64896, Note_on_c, 0, 69, 51
1, 64896, Note_on_c, 1, 52, 51
1, 64988, Note_on_c, 0, 69, 0
1, 64992, Note_on_c, 0, 67, 51
1, 65040, Note_on_c, 1, 52, 0
1, 65088, Note_on_c, 1, 61, 51
1, 65180, Note_on_c, 0, 67, 0
1, 65232, Note_on_c, 1, 61, 0
1, 65280, Note_on_c, 0, 76, 51
1, 65280, Note_on_c, 1, 50, 51
1, 65372, Note_on_c, 0, 76, 0
1, 65376, Note_on_c, 0, 74, 51
1, 65424, Note_on_c, 1, 50, 0
1, 65472, Note_on_c, 1, 62, 51
1, 65564, Note_on_c, 0, 74, 0
1, 65616, Note_on_c, 1, 62, 0
1, 65664, Note_on_c, 1, 48, 51
1, 65808, Note_on_c, 1, 48, 0
1, 65856, Note_on_c, 1, 60, 51
1, 66000, Note_on_c, 1, 60, 0
1, 66048, Note_on_c, 0, 86, 72
1, 66048, Note_on_c, 0, 74, 72
1, 66048, Note_on_c, 1, 47, 72
1, 66140, Note_on_c, 1, 47, 0
1, 66144, Note_on_c, 1, 55, 72
1, 66236, Note_on_c, 1, 55, 0
1, 66240, Note_on_c, 1, 54, 72
1, 66332, Note_on_c, 1, 54, 0
1, 66336, Note_on_c, 1, 55, 72
1, 66428, Note_on_c, 1, 55, 0
1, 66432, Note_on_c, 1, 57, 72
1, 66524, Note_on_c, 1, 57, 0
1, 66528, Note_on_c, 1, 55, 72
1, 66620, Note_on_c, 1, 55, 0
1, 66624, Note_on_c, 1, 54, 72
1, 66716, Note_on_c, 1, 54, 0
1, 66720, Note_on_c, 1, 55, 72
1, 66812, Note_on_c, 0, 86, 0
1, 66812, Note_on_c, 0, 74, 0
1, 66812, Note_on_c, 1, 55, 0
1, 66816, Note_on_c, 0, 84, 72
1, 66816, Note_on_c, 1, 47, 72
1, 66960, Note_on_c, 0, 84, 0
1, 67008, Note_on_c, 0, 83, 72
1, 67152, Note_on_c, 0, 83, 0
1, 67196, Note_on_c, 1, 47, 0
1, 67200, Note_on_c, 0, 81, 72
1, 67344, Note_on_c, 0, 81, 0
1, 67392, Note_on_c, 0, 79, 72
1, 67536, Note_on_c, 0, 79, 0
1, 67584, Note_on_c, 0, 88, 72
1, 67584, Note_on_c, 0, 76, 72
1, 67584, Note_on_c, 1, 48, 72
1, 67676, Note_on_c, 1, 48, 0
1, 67680, Note_on_c, 1, 55, 72
1, 67772, Note_on_c, 1, 55, 0
1, 67776, Note_on_c, 1, 54, 72
1, 67868, Note_on_c, 1, 54, 0
1, 67872, Note_on_c, 1, 55, 72
1, 67964, Note_on_c, 1, 55, 0
1, 67968, Note_on_c, 1, 57, 72
1, 68060, Note_on_c, 1, 57, 0
1, 68064, Note_on_c, 1, 55, 72
1, 68156, Note_on_c, 1, 55, 0
1, 68160, Note_on_c, 1, 54, 72
1, 68252, Note_on_c, 1, 54, 0
1, 68256, Note_on_c, 1, 55, 72
1, 68348, Note_on_c, 0, 88, 0
1, 68348, Note_on_c, 0, 76, 0
1, 68348, Note_on_c, 1, 55, 0
1, 68352, Note_on_c, 0, 86, 72
1, 68352, Note_on_c, 1, 48, 72
1, 68496, Note_on_c, 0, 86, 0
1, 68544, Note_on_c, 0, 84, 72
1, 68688, Note_on_c, 0, 84, 0
1, 68732, Note_on_c, 1, 48, 0
1, 68736, Note_on_c, 0, 83, 72
1, 68880, Note_on_c, 0, 83, 0
1, 68928, Note_on_c, 0, 81, 72
1, 69072, Note_on_c, 0, 81, 0
1, 69120, Note_on_c, 0, 83, 51
1, 69120, Note_on_c, 1, 50, 51
1, 69212, Note_on_c, 0, 83, 0
1, 69216, Note_on_c, 0, 84, 51
1, 69264, Note_on_c, 1, 50, 0
1, 69308, Note_on_c, 0, 84, 0
1, 69312, Note_on_c, 0, 86, 51
1, 69312, Note_on_c, 1, 55, 51
1, 69404, Note_on_c, 0, 86, 0
1, 69408, Note_on_c, 0, 83, 51
1, 69456, Note_on_c, 1, 55, 0
1, 69500, Note_on_c, 0, 83, 0
1, 69504, Note_on_c, 0, 79, 51
1, 69504, Note_on_c, 1, 59, 51
1, 69648, Note_on_c, 1, 59, 0
1, 69692, Note_on_c, 0, 79, 0
1, 69696, Note_on_c, 1, 55, 51
1, 69840, Note_on_c, 1, 55, 0
1, 69888, Note_on_c, 0, 81, 51
1, 69888, Note_on_c, 1, 50, 51
1, 69980, Note_on_c, 0, 81, 0
1, 69984, Note_on_c, 0, 83, 51
1, 70032, Note_on_c, 1, 50, 0
1, 70076, Note_on_c, 0, 83, 0
1, 70080, Note_on_c, 0, 84, 51
1, 70080, Note_on_c, 1, 57, 51
1, 70172, Note_on_c, 0, 84, 0
1, 70176, Note_on_c, 0, 81, 51
1, 70224, Note_on_c, 1, 57, 0
1, 70268, Note_on_c, 0, 81, 0
1, 70272, Note_on_c, 0, 78, 51
1, 70272, Note_on_c, 1, 60, 51
1, 70416, Note_on_c, 1, 60, 0
1, 70460, Note_on_c, 0, 78, 0
1, 70464, Note_on_c, 1, 57, 51
1, 70608, Note_on_c, 1, 57, 0
1, 70656, Note_on_c, 0, 86, 72
1, 70656, Note_on_c, 0, 74, 72
1, 70656, Note_on_c, 1, 48, 72
1, 70748, Note_on_c, 1, 48, 0
1, 70752, Note_on_c, 1, 55, 51
1, 70844, Note_on_c, 1, 55, 0
1, 70848, Note_on_c, 1, 54, 51
1, 70940, Note_on_c, 1, 54, 0
1, 70944, Note_on_c, 1, 55, 51
1, 71036, Note_on_c, 1, 55, 0
1, 71040, Note_on_c, 1, 57, 51
1, 71132, Note_on_c, 1, 57, 0
1, 71136, Note_on_c, 1, 55, 51
1, 71228, Note_on_c, 1, 55, 0
1, 71232, Note_on_c, 1, 54, 51
1, 71324, Note_on_c, 1, 54, 0
1, 71328, Note_on_c, 1, 55, 51
1, 71420, Note_on_c, 0, 86, 0
1, 71420, Note_on_c, 0, 74, 0
1, 71420, Note_on_c, 1, 55, 0
1, 71424, Note_on_c, 0, 84, 72
1, 71424, Note_on_c, 1, 47, 51
1, 71516, Note_on_c, 0, 84, 0
1, 71520, Note_on_c, 0, 86, 72
1, 71612, Note_on_c, 0, 86, 0
1, 71616, Note_on_c, 0, 84, 72
1, 71708, Note_on_c, 0, 84, 0
1, 71712, Note_on_c, 0, 83, 72
1, 71804, Note_on_c, 0, 83, 0
1, 71804, Note_on_c, 1, 47, 0
1, 71808, Note_on_c, 0, 81, 72
1, 71900, Note_on_c, 0, 81, 0
1, 71904, Note_on_c, 0, 83, 72
1, 71996, Note_on_c, 0, 83, 0
1, 72000, Note_on_c, 0, 81, 72
1, 72092, Note_on_c, 0, 81, 0
1, 72096, Note_on_c, 0, 79, 72
1, 72188, Note_on_c, 0, 79, 0
1, 72192, Note_on_c, 0, 88, 72
1, 72192, Note_on_c, 0, 76, 72
1, 72192, Note_on_c, 1, 48, 51
1, 72284, Note_on_c, 1, 48, 0
1, 72288, Note_on_c, 1, 55, 51
1, 72380, Note_on_c, 1, 55, 0
1, 72384, Note_on_c, 1, 54, 51
1, 72476, Note_on_c, 1, 54, 0
1, 72480, Note_on_c, 1, 55, 51
1, 72572, Note_on_c, 1, 55, 0
1, 72576, Note_on_c, 1, 57, 51
1, 72668, Note_on_c, 1, 57, 0
1, 72672, Note_on_c, 1, 55, 51
1, 72764, Note_on_c, 1, 55, 0
1, 72768, Note_on_c, 1, 54, 51
1, 72860, Note_on_c, 1, 54, 0
1, 72864, Note_on_c, 1, 55, 51
1, 72956, Note_on_c, 0, 88, 0
1, 72956, Note_on_c, 0, 76, 0
1, 72956, Note_on_c, 1, 55, 0
1, 72960, Note_on_c, 0, 86, 72
1, 72960, Note_on_c, 1, 48, 51
1, 73052, Note_on_c, 0, 86, 0
1, 73056, Note_on_c, 0, 88, 72
1, 73148, Note_on_c, 0, 88, 0
1, 73152, Note_on_c, 0, 86, 72
1, 73244, Note_on_c, 0, 86, 0
1, 73248, Note_on_c, 0, 84, 72
1, 73340, Note_on_c, 0, 84, 0
1, 73340, Note_on_c, 1, 48, 0
1, 73344, Note_on_c, 0, 83, 72
1, 73436, Note_on_c, 0, 83, 0
1, 73440, Note_on_c, 0, 84, 72
1, 73532, Note_on_c, 0, 84, 0
1, 73536, Note_on_c, 0, 83, 72
1, 73628, Note_on_c, 0, 83, 0
1, 73632, Note_on_c, 0, 81, 72
1, 73724, Note_on_c, 0, 81, 0
1, 73728, Note_on_c, 0, 83, 51
1, 73728, Note_on_c, 0, 62, 51
1, 73872, Note_on_c, 0, 83, 0
1, 73872, Note_on_c, 0, 62, 0
1, 73920, Note_on_c, 0, 79, 51
1, 73920, Note_on_c, 0, 67, 51
1, 74064, Note_on_c, 0, 79, 0
1, 74064, Note_on_c, 0, 67, 0
1, 74112, Note_on_c, 0, 64, 51
1, 74112, Note_on_c, 0, 84, 77
1, 74256, Note_on_c, 0, 64, 0
1, 74304, Note_on_c, 0, 67, 51
1, 74448, Note_on_c, 0, 67, 0
1, 74492, Note_on_c, 0, 84, 0
1, 74496, Note_on_c, 0, 83, 51
1, 74496, Note_on_c, 0, 62, 51
1, 74640, Note_on_c, 0, 83, 0
1, 74640, Note_on_c, 0, 62, 0
1, 74688, Note_on_c, 0, 79, 51
1, 74688, Note_on_c, 0, 67, 51
1, 74832, Note_on_c, 0, 79, 0
1, 74832, Note_on_c, 0, 67, 0
1, 74880, Note_on_c, 0, 88, 77
1, 74880, Note_on_c, 0, 60, 51
1, 75024, Note_on_c, 0, 60, 0
1, 75072, Note_on_c, 0, 67, 51
1, 75216, Note_on_c, 0, 67, 0
1, 75260, Note_on_c, 0, 88, 0
1, 75264, Note_on_c, 0, 86, 51
1, 75264, Note_on_c, 0, 59, 51
1, 75408, Note_on_c, 0, 86, 0
1, 75408, Note_on_c, 0, 59, 0
1, 75456, Note_on_c, 0, 79, 51
1, 75456, Note_on_c, 0, 67, 51
1, 75600, Note_on_c, 0, 79, 0
1, 75600, Note_on_c, 0, 67, 0
1, 75648, Note_on_c, 0, 84, 77
1, 75648, Note_on_c, 0, 64, 51
1, 75792, Note_on_c, 0, 64, 0
1, 75840, Note_on_c, 0, 67, 51
1, 75984, Note_on_c, 0, 67, 0
1, 76028, Note_on_c, 0, 84, 0
1, 76032, Note_on_c, 0, 83, 51
1, 76032, Note_on_c, 0, 62, 51
1, 76176, Note_on_c, 0, 83, 0
1, 76176, Note_on_c, 0, 62, 0
1, 76224, Note_on_c, 0, 79, 51
1, 76224, Note_on_c, 0, 67, 51
1, 76368, Note_on_c, 0, 79, 0
1, 76368, Note_on_c, 0, 67, 0
1, 76416, Note_on_c, 0, 88, 77
1, 76416, Note_on_c, 0, 60, 51
1, 76560, Note_on_c, 0, 60, 0
1, 76608, Note_on_c, 0, 67, 51
1, 76752, Note_on_c, 0, 67, 0
1, 76796, Note_on_c, 0, 88, 0
1, 76800, Note_on_c, 0, 89, 72
1, 76800, Note_on_c, 0, 77, 72
1, 76800, Note_on_c, 0, 68, 66
1, 76800, Note_on_c, 0, 62, 66
1, 76800, Note_on_c, 0, 59, 66
1, 76944, Note_on_c, 0, 68, 0
1, 76944, Note_on_c, 0, 62, 0
1, 76944, Note_on_c, 0, 59, 0
1, 76992, Note_on_c, 0, 68, 66
1, 76992, Note_on_c, 0, 62, 66
1, 76992, Note_on_c, 0, 59, 66
1, 77136, Note_on_c, 0, 68, 0
1, 77136, Note_on_c, 0, 62, 0
1, 77136, Note_on_c, 0, 59, 0
1, 77184, Note_on_c, 0, 68, 66
1, 77184, Note_on_c, 0, 62, 66
1, 77184, Note_on_c, 0, 59, 66
1, 77328, Note_on_c, 0, 68, 0
1, 77328, Note_on_c, 0, 62, 0
1, 77328, Note_on_c, 0, 59, 0
1, 77376, Note_on_c, 0, 68, 66
1, 77376, Note_on_c, 0, 62, 66
1, 77376, Note_on_c, 0, 59, 66
1, 77520, Note_on_c, 0, 68, 0
1, 77520, Note_on_c, 0, 62, 0
1, 77520, Note_on_c, 0, 59, 0
1, 77564, Note_on_c, 0, 89, 0
1, 77564, Note_on_c, 0, 77, 0
1, 77568, Note_on_c, 0, 89, 72
1, 77568, Note_on_c, 0, 77, 72
1, 77568, Note_on_c, 0, 68, 66
1, 77568, Note_on_c, 0, 62, 66
1, 77568, Note_on_c, 0, 59, 66
1, 77712, Note_on_c, 0, 68, 0
1, 77712, Note_on_c, 0, 62, 0
1, 77712, Note_on_c, 0, 59, 0
1, 77760, Note_on_c, 0, 68, 66
1, 77760, Note_on_c, 0, 62, 66
1, 77760, Note_on_c, 0, 59, 66
1, 77904, Note_on_c, 0, 68, 0
1, 77904, Note_on_c, 0, 62, 0
1, 77904, Note_on_c, 0, 59, 0
1, 77948, Note_on_c, 0, 89, 0
1, 77948, Note_on_c, 0, 77, 0
1, 77952, Note_on_c, 0, 89, 72
1, 77952, Note_on_c, 0, 77, 72
1, 77952, Note_on_c, 0, 68, 66
1, 77952, Note_on_c, 0, 62, 66
1, 77952, Note_on_c, 0, 59, 66
1, 78096, Note_on_c, 0, 68, 0
1, 78096, Note_on_c, 0, 62, 0
1, 78096, Note_on_c, 0, 59, 0
1, 78144, Note_on_c, 0, 68, 66
1, 78144, Note_on_c, 0, 62, 66
1, 78144, Note_on_c, 0, 59, 66
1, 78288, Note_on_c, 0, 68, 0
1, 78288, Note_on_c, 0, 62, 0
1, 78288, Note_on_c, 0, 59, 0
1, 78332, Note_on_c, 0, 89, 0
1, 78332, Note_on_c, 0, 77, 0
1, 78336, Note_on_c, 0, 88, 72
1, 78336, Note_on_c, 0, 76, 72
1, 78336, Note_on_c, 0, 68, 66
1, 78336, Note_on_c, 0, 62, 66
1, 78336, Note_on_c, 0, 59, 66
1, 78480, Note_on_c, 0, 88, 0
1, 78480, Note_on_c, 0, 76, 0
1, 78480, Note_on_c, 0, 68, 0
1, 78480, Note_on_c, 0, 62, 0
1, 78480, Note_on_c, 0, 59, 0
1, 78528, Note_on_c, 0, 86, 72
1, 78672, Note_on_c, 0, 86, 0
1, 78720, Note_on_c, 0, 84, 72
1, 78768, Note_on_c, 0, 84, 0
1, 78768, Note_on_c, 0, 86, 72
1, 78816, Note_on_c, 0, 86, 0
1, 78816, Note_on_c, 0, 84, 72
1, 78864, Note_on_c, 0, 84, 0
1, 78864, Note_on_c, 0, 86, 72
1, 78912, Note_on_c, 0, 86, 0
1, 78912, Note_on_c, 0, 83, 66
1, 79100, Note_on_c, 0, 83, 0
1, 79104, Note_on_c, 0, 81, 72
1, 79152, Note_on_c, 0, 81, 0
1, 79152, Note_on_c, 0, 83, 72
1, 79200, Note_on_c, 0, 83, 0
1, 79200, Note_on_c, 0, 81, 72
1, 79248, Note_on_c, 0, 81, 0
1, 79248, Note_on_c, 0, 83, 72
1, 79296, Note_on_c, 0, 83, 0
1, 79296, Note_on_c, 0, 79, 66
1, 79484, Note_on_c, 0, 79, 0
1, 79488, Note_on_c, 0, 78, 72
1, 79536, Note_on_c, 0, 78, 0
1, 79536, Note_on_c, 0, 79, 72
1, 79584, Note_on_c, 0, 79, 0
1, 79584, Note_on_c, 0, 78, 72
1, 79632, Note_on_c, 0, 78, 0
1, 79632, Note_on_c, 0, 79, 72
1, 79680, Note_on_c, 0, 79, 0
1, 79680, Note_on_c, 0, 76, 66
1, 79868, Note_on_c, 0, 76, 0
1, 79872, Note_on_c, 0, 74, 72
1, 79872, Note_on_c, 1, 50, 66
1, 79964, Note_on_c, 1, 50, 0
1, 79968, Note_on_c, 1, 59, 66
1, 80016, Note_on_c, 0, 74, 0
1, 80060, Note_on_c, 1, 59, 0
1, 80064, Note_on_c, 0, 76, 72
1, 80064, Note_on_c, 1, 55, 66
1, 80156, Note_on_c, 0, 76, 0
1, 80156, Note_on_c, 1, 55, 0
1, 80160, Note_on_c, 0, 78, 72
1, 80160, Note_on_c, 1, 59, 66
1, 80252, Note_on_c, 0, 78, 0
1, 80252, Note_on_c, 1, 59, 0
1, 80256, Note_on_c, 0, 79, 72
1, 80256, Note_on_c, 1, 50, 66
1, 80348, Note_on_c, 0, 79, 0
1, 80348, Note_on_c, 1, 50, 0
1, 80352, Note_on_c, 0, 81, 72
1, 80352, Note_on_c, 1, 59, 66
1, 80444, Note_on_c, 0, 81, 0
1, 80444, Note_on_c, 1, 59, 0
1, 80448, Note_on_c, 0, 83, 72
1, 80448, Note_on_c, 1, 55, 66
1, 80540, Note_on_c, 0, 83, 0
1, 80540, Note_on_c, 1, 55, 0
1, 80544, Note_on_c, 0, 84, 72
1, 80544, Note_on_c, 1, 59, 66
1, 80636, Note_on_c, 0, 84, 0
1, 80636, Note_on_c, 1, 59, 0
1, 80640, Note_on_c, 0, 86, 72
1, 80640, Note_on_c, 1, 50, 66
1, 80732, Note_on_c, 0, 86, 0
1, 80732, Note_on_c, 1, 50, 0
1, 80736, Note_on_c, 0, 84, 72
1, 80736, Note_on_c, 1, 59, 66
1, 80828, Note_on_c, 0, 84, 0
1, 80828, Note_on_c, 1, 59, 0
1, 80832, Note_on_c, 0, 83, 72
1, 80832, Note_on_c, 1, 55, 66
1, 80924, Note_on_c, 0, 83, 0
1, 80924, Note_on_c, 1, 55, 0
1, 80928, Note_on_c, 0, 84, 72
1, 80928, Note_on_c, 1, 59, 66
1, 81020, Note_on_c, 0, 84, 0
1, 81020, Note_on_c, 1, 59, 0
1, 81024, Note_on_c, 0, 86, 72
1, 81024, Note_on_c, 1, 50, 66
1, 81116, Note_on_c, 0, 86, 0
1, 81116, Note_on_c, 1, 50, 0
1, 81120, Note_on_c, 0, 83, 72
1, 81120, Note_on_c, 1, 59, 66
1, 81212, Note_on_c, 0, 83, 0
1, 81212, Note_on_c, 1, 59, 0
1, 81216, Note_on_c, 0, 81, 72
1, 81216, Note_on_c, 1, 55, 66
1, 81308, Note_on_c, 0, 81, 0
1, 81308, Note_on_c, 1, 55, 0
1, 81312, Note_on_c, 0, 79, 72
1, 81312, Note_on_c, 1, 59, 66
1, 81404, Note_on_c, 0, 79, 0
1, 81404, Note_on_c, 1, 59, 0
1, 81408, Note_on_c, 0, 81, 66
1, 81408, Note_on_c, 1, 50, 61
1, 81452, Note_on_c, 0, 81, 0
1, 81456, Note_on_c, 0, 83, 66
1, 81500, Note_on_c, 0, 83, 0
1, 81500, Note_on_c, 1, 50, 0
1, 81504, Note_on_c, 0, 81, 66
1, 81504, Note_on_c, 1, 60, 61
1, 81548, Note_on_c, 0, 81, 0
1, 81552, Note_on_c, 0, 83, 66
1, 81596, Note_on_c, 0, 83, 0
1, 81596, Note_on_c, 1, 60, 0
1, 81600, Note_on_c, 0, 81, 66
1, 81600, Note_on_c, 1, 53, 61
1, 81644, Note_on_c, 0, 81, 0
1, 81648, Note_on_c, 0, 83, 66
1, 81692, Note_on_c, 0, 83, 0
1, 81692, Note_on_c, 1, 53, 0
1, 81696, Note_on_c, 0, 81, 66
1, 81696, Note_on_c, 1, 60, 61
1, 81740, Note_on_c, 0, 81, 0
1, 81744, Note_on_c, 0, 83, 66
1, 81788, Note_on_c, 0, 83, 0
1, 81788, Note_on_c, 1, 60, 0
1, 81792, Note_on_c, 0, 81, 66
1, 81792, Note_on_c, 1, 50, 61
1, 81836, Note_on_c, 0, 81, 0
1, 81840, Note_on_c, 0, 83, 66
1, 81884, Note_on_c, 0, 83, 0
1, 81884, Note_on_c, 1, 50, 0
1, 81888, Note_on_c, 0, 81, 66
1, 81888, Note_on_c, 1, 60, 61
1, 81932, Note_on_c, 0, 81, 0
1, 81936, Note_on_c, 0, 83, 66
1, 81980, Note_on_c, 0, 83, 0
1, 81980, Note_on_c, 1, 60, 0
1, 81984, Note_on_c, 0, 81, 66
1, 81984, Note_on_c, 1, 53, 61
1, 82028, Note_on_c, 0, 81, 0
1, 82032, Note_on_c, 0, 83, 66
1, 82076, Note_on_c, 0, 83, 0
1, 82076, Note_on_c, 1, 53, 0
1, 82080, Note_on_c, 0, 81, 66
1, 82080, Note_on_c, 1, 60, 61
1, 82124, Note_on_c, 0, 81, 0
1, 82128, Note_on_c, 0, 83, 66
1, 82172, Note_on_c, 0, 83, 0
1, 82172, Note_on_c, 1, 60, 0
1, 82176, Note_on_c, 0, 81, 66
1, 82176, Note_on_c, 1, 50, 61
1, 82220, Note_on_c, 0, 81, 0
1, 82224, Note_on_c, 0, 83, 66
1, 82268, Note_on_c, 0, 83, 0
1, 82268, Note_on_c, 1, 50, 0
1, 82272, Note_on_c, 0, 81, 66
1, 82272, Note_on_c, 1, 60, 61
1, 82316, Note_on_c, 0, 81, 0
1, 82320, Note_on_c, 0, 83, 66
1, 82364, Note_on_c, 0, 83, 0
1, 82364, Note_on_c, 1, 60, 0
1, 82368, Note_on_c, 0, 81, 66
1, 82368, Note_on_c, 1, 53, 61
1, 82412, Note_on_c, 0, 81, 0
1, 82416, Note_on_c, 0, 83, 66
1, 82460, Note_on_c, 0, 83, 0
1, 82460, Note_on_c, 1, 53, 0
1, 82464, Note_on_c, 0, 81, 66
1, 82464, Note_on_c, 1, 60, 61
1, 82508, Note_on_c, 0, 81, 0
1, 82512, Note_on_c, 0, 83, 66
1, 82556, Note_on_c, 0, 83, 0
1, 82556, Note_on_c, 1, 60, 0
1, 82560, Note_on_c, 0, 81, 66
1, 82560, Note_on_c, 1, 50, 61
1, 82604, Note_on_c, 0, 81, 0
1, 82608, Note_on_c, 0, 83, 66
1, 82652, Note_on_c, 0, 83, 0
1, 82652, Note_on_c, 1, 50, 0
1, 82656, Note_on_c, 0, 81, 66
1, 82656, Note_on_c, 1, 60, 61
1, 82700, Note_on_c, 0, 81, 0
1, 82704, Note_on_c, 0, 83, 66
1, 82748, Note_on_c, 0, 83, 0
1, 82748, Note_on_c, 1, 60, 0
1, 82752, Note_on_c, 0, 79, 66
1, 82752, Note_on_c, 1, 53, 61
1, 82844, Note_on_c, 0, 79, 0
1, 82844, Note_on_c, 1, 53, 0
1, 82848, Note_on_c, 0, 81, 66
1, 82848, Note_on_c, 1, 60, 61
1, 82940, Note_on_c, 0, 81, 0
1, 82940, Note_on_c, 1, 60, 0
1, 82944, Note_on_c, 0, 79, 66
1, 82944, Note_on_c, 1, 59, 51
1, 82944, Note_on_c, 1, 55, 51
1, 83324, Note_on_c, 0, 79, 0
1, 83324, Note_on_c, 1, 59, 0
1, 83324, Note_on_c, 1, 55, 0
1, 83328, Note_on_c, 0, 67, 51
1, 83472, Note_on_c, 0, 71, 51
1, 83616, Note_on_c, 0, 71, 0
1, 83708, Note_on_c, 0, 67, 0
1, 83712, Note_on_c, 0, 74, 51
1, 83712, Note_on_c, 0, 69, 51
1, 83856, Note_on_c, 0, 74, 0
1, 83904, Note_on_c, 0, 72, 51
1, 84048, Note_on_c, 0, 72, 0
1, 84092, Note_on_c, 0, 69, 0
1, 84096, Note_on_c, 0, 66, 51
1, 84288, Note_on_c, 0, 69, 51
1, 84432, Note_on_c, 0, 69, 0
1, 84476, Note_on_c, 0, 66, 0
1, 84480, Note_on_c, 0, 72, 51
1, 84480, Note_on_c, 0, 67, 51
1, 84624, Note_on_c, 0, 72, 0
1, 84672, Note_on_c, 0, 71, 51
1, 84816, Note_on_c, 0, 71, 0
1, 84860, Note_on_c, 0, 67, 0
1, 84864, Note_on_c, 0, 64, 51
1, 85056, Note_on_c, 0, 67, 51
1, 85200, Note_on_c, 0, 67, 0
1, 85244, Note_on_c, 0, 64, 0
1, 85248, Note_on_c, 0, 71, 51
1, 85248, Note_on_c, 0, 60, 51
1, 85392, Note_on_c, 0, 71, 0
1, 85440, Note_on_c, 0, 69, 51
1, 85584, Note_on_c, 0, 69, 0
1, 85628, Note_on_c, 0, 60, 0
1, 85632, Note_on_c, 0, 62, 51
1, 85824, Note_on_c, 0, 66, 51
1, 85968, Note_on_c, 0, 66, 0
1, 86012, Note_on_c, 0, 62, 0
1, 86016, Note_on_c, 0, 69, 51
1, 86016, Note_on_c, 0, 59, 51
1, 86160, Note_on_c, 0, 69, 0
1, 86208, Note_on_c, 0, 67, 51
1, 86352, Note_on_c, 0, 67, 0
1, 86396, Note_on_c, 0, 59, 0
1, 86400, Note_on_c, 0, 71, 72
1, 86400, Note_on_c, 1, 43, 77
1, 86400, Note_on_c, 1, 55, 77
1, 86492, Note_on_c, 0, 71, 0
1, 86496, Note_on_c, 0, 72, 72
1, 86588, Note_on_c, 0, 72, 0
1, 86592, Note_on_c, 0, 74, 72
1, 86684, Note_on_c, 0, 74, 0
1, 86688, Note_on_c, 0, 71, 72
1, 86780, Note_on_c, 0, 71, 0
1, 86780, Note_on_c, 1, 43, 0
1, 86780, Note_on_c, 1, 55, 0
1, 86784, Note_on_c, 0, 72, 72
1, 86784, Note_on_c, 1, 57, 77
1, 86784, Note_on_c, 1, 45, 77
1, 86876, Note_on_c, 0, 72, 0
1, 86880, Note_on_c, 0, 74, 72
1, 86972, Note_on_c, 0, 74, 0
1, 86976, Note_on_c, 0, 76, 72
1, 87068, Note_on_c, 0, 76, 0
1, 87072, Note_on_c, 0, 72, 72
1, 87164, Note_on_c, 0, 72, 0
1, 87164, Note_on_c, 1, 57, 0
1, 87164, Note_on_c, 1, 45, 0
1, 87168, Note_on_c, 0, 81, 72
1, 87168, Note_on_c, 1, 42, 77
1, 87168, Note_on_c, 1, 54, 77
1, 87260, Note_on_c, 0, 81, 0
1, 87264, Note_on_c, 0, 83, 72
1, 87356, Note_on_c, 0, 83, 0
1, 87360, Note_on_c, 0, 84, 72
1, 87452, Note_on_c, 0, 84, 0
1, 87456, Note_on_c, 0, 81, 72
1, 87548, Note_on_c, 0, 81, 0
1, 87548, Note_on_c, 1, 42, 0
1, 87548, Note_on_c, 1, 54, 0
1, 87552, Note_on_c, 0, 83, 72
1, 87552, Note_on_c, 1, 55, 77
1, 87552, Note_on_c, 1, 43, 77
1, 87644, Note_on_c, 0, 83, 0
1, 87648, Note_on_c, 0, 84, 72
1, 87740, Note_on_c, 0, 84, 0
1, 87744, Note_on_c, 0, 86, 72
1, 87836, Note_on_c, 0, 86, 0
1, 87840, Note_on_c, 0, 83, 72
1, 87932, Note_on_c, 0, 83, 0
1, 87932, Note_on_c, 1, 55, 0
1, 87932, Note_on_c, 1, 43, 0
1, 87936, Note_on_c, 0, 67, 72
1, 87936, Note_on_c, 1, 52, 77
1, 87936, Note_on_c, 1, 40, 77
1, 88028, Note_on_c, 0, 67, 0
1, 88032, Note_on_c, 0, 69, 72
1, 88124, Note_on_c, 0, 69, 0
1, 88128, Note_on_c, 0, 71, 72
1, 88220, Note_on_c, 0, 71, 0
1, 88224, Note_on_c, 0, 67, 72
1, 88316, Note_on_c, 0, 67, 0
1, 88316, Note_on_c, 1, 52, 0
1, 88316, Note_on_c, 1, 40, 0
1, 88320, Note_on_c, 0, 69, 72
1, 88320, Note_on_c, 1, 48, 77
1, 88320, Note_on_c, 1, 36, 77
1, 88412, Note_on_c, 0, 69, 0
1, 88416, Note_on_c, 0, 71, 72
1, 88508, Note_on_c, 0, 71, 0
1, 88512, Note_on_c, 0, 72, 72
1, 88604, Note_on_c, 0, 72, 0
1, 88608, Note_on_c, 0, 69, 72
1, 88700, Note_on_c, 0, 69, 0
1, 88700, Note_on_c, 1, 48, 0
1, 88700, Note_on_c, 1, 36, 0
1, 88704, Note_on_c, 0, 78, 72
1, 88704, Note_on_c, 1, 50, 77
1, 88704, Note_on_c, 1, 38, 77
1, 88796, Note_on_c, 0, 78, 0
1, 88800, Note_on_c, 0, 79, 72
1, 88892, Note_on_c, 0, 79, 0
1, 88896, Note_on_c, 0, 81, 72
1, 88944, Note_on_c, 1, 50, 0
1, 88944, Note_on_c, 1, 38, 0
1, 88988, Note_on_c, 0, 81, 0
1, 88992, Note_on_c, 0, 78, 72
1, 89084, Note_on_c, 0, 78, 0
1, 89088, Note_on_c, 0, 79, 77
1, 89088, Note_on_c, 1, 43, 77
1, 89328, Note_on_c, 1, 43, 0
1, 89468, Note_on_c, 0, 79, 0
1, 89472, Note_on_c, 0, 74, 77
1, 89472, Note_on_c, 1, 55, 77
1, 89472, Note_on_c, 1, 43, 77
1, 89488, Note_on_c, 0, 79, 77
1, 89508, Note_on_c, 0, 83, 77
1, 89712, Note_on_c, 1, 55, 0
1, 89712, Note_on_c, 1, 43, 0
1, 89852, Note_on_c, 0, 74, 0
1, 89856, Note_on_c, 0, 71, 77
1, 89856, Note_on_c, 1, 55, 77
1, 89856, Note_on_c, 1, 43, 77
1, 89868, Note_on_c, 0, 79, 0
1, 89872, Note_on_c, 0, 74, 77
1, 89888, Note_on_c, 0, 83, 0
1, 89892, Note_on_c, 0, 79, 77
1, 90096, Note_on_c, 1, 55, 0
1, 90096, Note_on_c, 1, 43, 0
1, 90236, Note_on_c, 0, 71, 0
1, 90252, Note_on_c, 0, 74, 0
1, 90272, Note_on_c, 0, 79, 0
1, 90624, Note_on_c, 0, 60, 72
1, 90672, Note_on_c, 0, 60, 0
1, 90672, Note_on_c, 0, 64, 72
1, 90720, Note_on_c, 0, 64, 0
1, 90720, Note_on_c, 0, 67, 72
1, 90768, Note_on_c, 0, 67, 0
1, 90768, Note_on_c, 0, 72, 72
1, 90768, Note_on_c, 1, 48, 72
1, 90768, Note_on_c, 1, 36, 72
1, 91372, Note_on_c, 0, 72, 0
1, 91372, Note_on_c, 1, 48, 0
1, 91372, Note_on_c, 1, 36, 0
1, 91392, Note_on_c, 0, 67, 72
1, 91392, Note_on_c, 1, 43, 72
1, 91392, Note_on_c, 1, 31, 72
1, 92156, Note_on_c, 0, 67, 0
1, 92156, Note_on_c, 1, 43, 0
1, 92156, Note_on_c, 1, 31, 0
1, 92160, Note_on_c, 0, 76, 72
1, 92160, Note_on_c, 1, 52, 72
1, 92732, Note_on_c, 1, 52, 0
1, 92736, Note_on_c, 0, 76, 0
1, 92736, Note_on_c, 0, 77, 72
1, 92736, Note_on_c, 1, 53, 72
1, 92828, Note_on_c, 0, 77, 0
1, 92828, Note_on_c, 1, 53, 0
1, 92832, Note_on_c, 0, 74, 72
1, 92832, Note_on_c, 1, 50, 72
1, 92924, Note_on_c, 0, 74, 0
1, 92924, Note_on_c, 1, 50, 0
1, 92928, Note_on_c, 0, 72, 72
1, 92928, Note_on_c, 1, 48, 72
1, 93308, Note_on_c, 0, 72, 0
1, 93308, Note_on_c, 1, 48, 0
1, 93696, Note_on_c, 0, 79, 51
1, 93696, Note_on_c, 0, 64, 51
1, 93840, Note_on_c, 0, 64, 0
1, 93888, Note_on_c, 0, 67, 51
1, 94032, Note_on_c, 0, 67, 0
1, 94076, Note_on_c, 0, 79, 0
1, 94080, Note_on_c, 0, 79, 51
1, 94080, Note_on_c, 0, 64, 51
1, 94224, Note_on_c, 0, 64, 0
1, 94272, Note_on_c, 0, 67, 51
1, 94416, Note_on_c, 0, 67, 0
1, 94460, Note_on_c, 0, 79, 0
1, 94464, Note_on_c, 0, 61, 51
1, 94608, Note_on_c, 0, 61, 0
1, 94656, Note_on_c, 0, 67, 51
1, 94800, Note_on_c, 0, 67, 0
1, 94848, Note_on_c, 0, 81, 51
1, 94848, Note_on_c, 0, 61, 51
1, 94992, Note_on_c, 0, 61, 0
1, 95040, Note_on_c, 0, 67, 51
1, 95184, Note_on_c, 0, 67, 0
1, 95228, Note_on_c, 0, 81, 0
1, 95232, Note_on_c, 0, 79, 51
1, 95280, Note_on_c, 0, 79, 0
1, 95280, Note_on_c, 0, 77, 51
1, 95280, Note_on_c, 0, 62, 51
1, 95424, Note_on_c, 0, 62, 0
1, 95424, Note_on_c, 0, 67, 51
1, 95568, Note_on_c, 0, 67, 0
1, 95612, Note_on_c, 0, 77, 0
1, 95616, Note_on_c, 0, 77, 51
1, 95616, Note_on_c, 0, 62, 51
1, 95760, Note_on_c, 0, 62, 0
1, 95808, Note_on_c, 0, 67, 51
1, 95952, Note_on_c, 0, 67, 0
1, 95996, Note_on_c, 0, 77, 0
1, 96000, Note_on_c, 0, 59, 51
1, 96144, Note_on_c, 0, 59, 0
1, 96192, Note_on_c, 0, 67, 51
1, 96336, Note_on_c, 0, 67, 0
1, 96384, Note_on_c, 0, 79, 51
1, 96384, Note_on_c, 0, 59, 51
1, 96528, Note_on_c, 0, 59, 0
1, 96576, Note_on_c, 0, 67, 51
1, 96720, Note_on_c, 0, 67, 0
1, 96764, Note_on_c, 0, 79, 0
1, 96768, Note_on_c, 0, 77, 51
1, 96816, Note_on_c, 0, 77, 0
1, 96816, Note_on_c, 0, 76, 51
1, 96816, Note_on_c, 0, 60, 51
1, 96960, Note_on_c, 0, 60, 0
1, 96960, Note_on_c, 0, 67, 51
1, 97104, Note_on_c, 0, 67, 0
1, 97148, Note_on_c, 0, 76, 0
1, 97152, Note_on_c, 0, 76, 51
1, 97152, Note_on_c, 0, 60, 51
1, 97296, Note_on_c, 0, 60, 0
1, 97344, Note_on_c, 0, 67, 51
1, 97488, Note_on_c, 0, 67, 0
1, 97532, Note_on_c, 0, 76, 0
1, 97536, Note_on_c, 0, 64, 51
1, 97680, Note_on_c, 0, 64, 0
1, 97728, Note_on_c, 0, 67, 51
1, 97872, Note_on_c, 0, 67, 0
1, 97920, Note_on_c, 0, 79, 51
1, 97920, Note_on_c, 0, 64, 51
1, 98064, Note_on_c, 0, 64, 0
1, 98112, Note_on_c, 0, 79, 0
1, 98112, Note_on_c, 0, 76, 51
1, 98112, Note_on_c, 0, 67, 51
1, 98256, Note_on_c, 0, 67, 0
1, 98304, Note_on_c, 0, 76, 0
1, 98304, Note_on_c, 0, 73, 51
1, 98304, Note_on_c, 0, 69, 51
1, 98304, Note_on_c, 0, 65, 51
1, 98448, Note_on_c, 0, 73, 0
1, 98496, Note_on_c, 0, 74, 51
1, 98640, Note_on_c, 0, 74, 0
1, 98688, Note_on_c, 0, 77, 51
1, 98832, Note_on_c, 0, 77, 0
1, 98880, Note_on_c, 0, 76, 51
1, 99024, Note_on_c, 0, 76, 0
1, 99072, Note_on_c, 0, 73, 51
1, 99216, Note_on_c, 0, 73, 0
1, 99264, Note_on_c, 0, 74, 51
1, 99408, Note_on_c, 0, 74, 0
1, 99456, Note_on_c, 0, 77, 51
1, 99600, Note_on_c, 0, 77, 0
1, 99648, Note_on_c, 0, 76, 51
1, 99792, Note_on_c, 0, 76, 0
1, 99836, Note_on_c, 0, 69, 0
1, 99836, Note_on_c, 0, 65, 0
1, 99840, Note_on_c, 0, 73, 51
1, 99984, Note_on_c, 0, 73, 0
1, 100032, Note_on_c, 0, 74, 51
1, 100176, Note_on_c, 0, 74, 0
1, 100224, Note_on_c, 0, 77, 51
1, 100224, Note_on_c, 1, 62, 51
1, 100224, Note_on_c, 1, 57, 51
1, 100224, Note_on_c, 1, 53, 51
1, 100368, Note_on_c, 0, 77, 0
1, 100416, Note_on_c, 0, 81, 51
1, 100560, Note_on_c, 0, 81, 0
1, 100604, Note_on_c, 1, 62, 0
1, 100604, Note_on_c, 1, 57, 0
1, 100604, Note_on_c, 1, 53, 0
1, 100608, Note_on_c, 0, 79, 51
1, 100608, Note_on_c, 1, 64, 51
1, 100608, Note_on_c, 1, 55, 51
1, 100608, Note_on_c, 1, 60, 51
1, 100752, Note_on_c, 0, 79, 0
1, 100800, Note_on_c, 0, 76, 51
1, 100944, Note_on_c, 0, 76, 0
1, 100988, Note_on_c, 1, 64, 0
1, 100988, Note_on_c, 1, 55, 0
1, 100988, Note_on_c, 1, 60, 0
1, 100992, Note_on_c, 0, 77, 51
1, 100992, Note_on_c, 1, 62, 51
1, 100992, Note_on_c, 1, 59, 51
1, 100992, Note_on_c, 1, 55, 51
1, 101136, Note_on_c, 0, 77, 0
1, 101184, Note_on_c, 0, 74, 51
1, 101328, Note_on_c, 0, 74, 0
1, 101372, Note_on_c, 1, 62, 0
1, 101372, Note_on_c, 1, 59, 0
1, 101372, Note_on_c, 1, 55, 0
1, 101376, Note_on_c, 0, 60, 72
1, 101424, Note_on_c, 0, 60, 0
1, 101424, Note_on_c, 0, 64, 72
1, 101472, Note_on_c, 0, 64, 0
1, 101472, Note_on_c, 0, 67, 72
1, 101520, Note_on_c, 0, 67, 0
1, 101520, Note_on_c, 0, 72, 72
1, 101520, Note_on_c, 1, 48, 72
1, 101520, Note_on_c, 1, 36, 72
1, 102124, Note_on_c, 0, 72, 0
1, 102124, Note_on_c, 1, 48, 0
1, 102124, Note_on_c, 1, 36, 0
1, 102144, Note_on_c, 0, 67, 72
1, 102144, Note_on_c, 1, 43, 72
1, 102144, Note_on_c, 1, 31, 72
1, 102908, Note_on_c, 0, 67, 0
1, 102908, Note_on_c, 1, 43, 0
1, 102908, Note_on_c, 1, 31, 0
1, 102912, Note_on_c, 0, 76, 72
1, 102912, Note_on_c, 1, 52, 72
1, 103484, Note_on_c, 0, 76, 0
1, 103484, Note_on_c, 1, 52, 0
1, 103488, Note_on_c, 0, 77, 72
1, 103488, Note_on_c, 1, 53, 72
1, 103580, Note_on_c, 0, 77, 0
1, 103580, Note_on_c, 1, 53, 0
1, 103584, Note_on_c, 0, 74, 72
1, 103584, Note_on_c, 1, 50, 72
1, 103664, Note_on_c, 1, 48, 72
1, 103676, Note_on_c, 0, 74, 0
1, 103676, Note_on_c, 1, 50, 0
1, 103680, Note_on_c, 0, 72, 72
1, 104044, Note_on_c, 1, 48, 0
1, 104060, Note_on_c, 0, 72, 0
1, 104448, Note_on_c, 0, 79, 51
1, 104448, Note_on_c, 0, 64, 51
1, 104592, Note_on_c, 0, 64, 0
1, 104640, Note_on_c, 0, 67, 51
1, 104784, Note_on_c, 0, 67, 0
1, 104828, Note_on_c, 0, 79, 0
1, 104832, Note_on_c, 0, 79, 51
1, 104832, Note_on_c, 0, 64, 51
1, 104976, Note_on_c, 0, 64, 0
1, 105024, Note_on_c, 0, 67, 51
1, 105168, Note_on_c, 0, 67, 0
1, 105212, Note_on_c, 0, 79, 0
1, 105216, Note_on_c, 0, 61, 51
1, 105360, Note_on_c, 0, 61, 0
1, 105408, Note_on_c, 0, 67, 51
1, 105552, Note_on_c, 0, 67, 0
1, 105600, Note_on_c, 0, 61, 51
1, 105600, Note_on_c, 0, 81, 51
1, 105744, Note_on_c, 0, 61, 0
1, 105792, Note_on_c, 0, 67, 51
1, 105936, Note_on_c, 0, 67, 0
1, 105980, Note_on_c, 0, 81, 0
1, 105984, Note_on_c, 0, 79, 51
1, 106032, Note_on_c, 0, 79, 0
1, 106032, Note_on_c, 0, 77, 51
1, 106032, Note_on_c, 0, 62, 51
1, 106176, Note_on_c, 0, 62, 0
1, 106176, Note_on_c, 0, 67, 51
1, 106320, Note_on_c, 0, 67, 0
1, 106364, Note_on_c, 0, 77, 0
1, 106368, Note_on_c, 0, 77, 51
1, 106368, Note_on_c, 0, 62, 51
1, 106512, Note_on_c, 0, 62, 0
1, 106560, Note_on_c, 0, 67, 51
1, 106704, Note_on_c, 0, 67, 0
1, 106748, Note_on_c, 0, 77, 0
1, 106752, Note_on_c, 0, 59, 51
1, 106896, Note_on_c, 0, 59, 0
1, 106944, Note_on_c, 0, 78, 51
1, 106944, Note_on_c, 0, 67, 51
1, 107088, Note_on_c, 0, 78, 0
1, 107088, Note_on_c, 0, 67, 0
1, 107136, Note_on_c, 0, 81, 51
1, 107136, Note_on_c, 0, 59, 51
1, 107280, Note_on_c, 0, 81, 0
1, 107280, Note_on_c, 0, 59, 0
1, 107328, Note_on_c, 0, 79, 51
1, 107328, Note_on_c, 0, 67, 51
1, 107472, Note_on_c, 0, 79, 0
1, 107472, Note_on_c, 0, 67, 0
1, 107520, Note_on_c, 0, 77, 51
1, 107564, Note_on_c, 0, 77, 0
1, 107568, Note_on_c, 0, 76, 51
1, 107568, Note_on_c, 0, 60, 51
1, 107712, Note_on_c, 0, 60, 0
1, 107712, Note_on_c, 0, 67, 51
1, 107856, Note_on_c, 0, 67, 0
1, 107900, Note_on_c, 0, 76, 0
1, 107904, Note_on_c, 0, 76, 51
1, 107904, Note_on_c, 0, 60, 51
1, 108048, Note_on_c, 0, 60, 0
1, 108096, Note_on_c, 0, 67, 51
1, 108240, Note_on_c, 0, 67, 0
1, 108284, Note_on_c, 0, 76, 0
1, 108288, Note_on_c, 0, 64, 51
1, 108432, Note_on_c, 0, 64, 0
1, 108480, Note_on_c, 0, 76, 51
1, 108480, Note_on_c, 0, 67, 51
1, 108624, Note_on_c, 0, 76, 0
1, 108624, Note_on_c, 0, 67, 0
1, 108672, Note_on_c, 0, 79, 51
1, 108672, Note_on_c, 0, 64, 51
1, 108816, Note_on_c, 0, 79, 0
1, 108816, Note_on_c, 0, 64, 0
1, 108864, Note_on_c, 0, 76, 51
1, 108864, Note_on_c, 0, 67, 51
1, 109008, Note_on_c, 0, 76, 0
1, 109008, Note_on_c, 0, 67, 0
1, 109056, Note_on_c, 0, 73, 72
1, 109056, Note_on_c, 0, 67, 51
1, 109056, Note_on_c, 0, 70, 51
1, 109584, Note_on_c, 0, 67, 0
1, 109584, Note_on_c, 0, 70, 0
1, 109628, Note_on_c, 0, 73, 0
1, 109632, Note_on_c, 0, 74, 51
1, 109724, Note_on_c, 0, 74, 0
1, 109728, Note_on_c, 0, 76, 51
1, 109820, Note_on_c, 0, 76, 0
1, 109824, Note_on_c, 0, 74, 51
1, 109824, Note_on_c, 0, 65, 51
1, 109824, Note_on_c, 0, 69, 51
1, 110204, Note_on_c, 0, 74, 0
1, 110204, Note_on_c, 0, 65, 0
1, 110204, Note_on_c, 0, 69, 0
1, 110400, Note_on_c, 0, 77, 51
1, 110544, Note_on_c, 0, 77, 0
1, 110592, Note_on_c, 0, 76, 72
1, 110592, Note_on_c, 0, 71, 51
1, 110592, Note_on_c, 0, 67, 51
1, 111120, Note_on_c, 0, 71, 0
1, 111120, Note_on_c, 0, 67, 0
1, 111164, Note_on_c, 0, 76, 0
1, 111168, Note_on_c, 0, 77, 51
1, 111260, Note_on_c, 0, 77, 0
1, 111264, Note_on_c, 0, 79, 51
1, 111356, Note_on_c, 0, 79, 0
1, 111360, Note_on_c, 0, 77, 51
1, 111360, Note_on_c, 0, 72, 51
1, 111360, Note_on_c, 0, 69, 51
1, 111740, Note_on_c, 0, 77, 0
1, 111740, Note_on_c, 0, 72, 0
1, 111740, Note_on_c, 0, 69, 0
1, 112128, Note_on_c, 0, 84, 72
1, 112128, Note_on_c, 0, 72, 72
1, 112128, Note_on_c, 1, 57, 72
1, 112272, Note_on_c, 0, 84, 0
1, 112272, Note_on_c, 0, 72, 0
1, 112272, Note_on_c, 1, 57, 0
1, 112320, Note_on_c, 0, 84, 72
1, 112320, Note_on_c, 0, 72, 72
1, 112320, Note_on_c, 1, 60, 72
1, 112464, Note_on_c, 0, 84, 0
1, 112464, Note_on_c, 0, 72, 0
1, 112464, Note_on_c, 1, 60, 0
1, 112512, Note_on_c, 0, 84, 72
1, 112512, Note_on_c, 0, 72, 72
1, 112512, Note_on_c, 1, 57, 72
1, 112656, Note_on_c, 1, 57, 0
1, 112704, Note_on_c, 1, 60, 72
1, 112848, Note_on_c, 1, 60, 0
1, 112896, Note_on_c, 1, 53, 51
1, 113040, Note_on_c, 1, 53, 0
1, 113088, Note_on_c, 1, 60, 51
1, 113232, Note_on_c, 1, 60, 0
1, 113276, Note_on_c, 0, 84, 0
1, 113276, Note_on_c, 0, 72, 0
1, 113280, Note_on_c, 0, 83, 51
1, 113280, Note_on_c, 1, 53, 51
1, 113424, Note_on_c, 1, 53, 0
1, 113468, Note_on_c, 0, 83, 0
1, 113472, Note_on_c, 0, 81, 51
1, 113472, Note_on_c, 1, 60, 51
1, 113616, Note_on_c, 1, 60, 0
1, 113660, Note_on_c, 0, 81, 0
1, 113664, Note_on_c, 0, 79, 72
1, 113664, Note_on_c, 0, 72, 72
1, 113664, Note_on_c, 1, 52, 72
1, 113808, Note_on_c, 0, 79, 0
1, 113808, Note_on_c, 0, 72, 0
1, 113808, Note_on_c, 1, 52, 0
1, 113856, Note_on_c, 0, 72, 72
1, 113856, Note_on_c, 0, 79, 72
1, 113856, Note_on_c, 1, 60, 72
1, 114000, Note_on_c, 0, 72, 0
1, 114000, Note_on_c, 0, 79, 0
1, 114000, Note_on_c, 1, 60, 0
1, 114048, Note_on_c, 0, 79, 72
1, 114048, Note_on_c, 0, 72, 72
1, 114048, Note_on_c, 1, 52, 72
1, 114192, Note_on_c, 1, 52, 0
1, 114240, Note_on_c, 1, 60, 72
1, 114384, Note_on_c, 1, 60, 0
1, 114432, Note_on_c, 1, 48, 51
1, 114576, Note_on_c, 0, 79, 0
1, 114576, Note_on_c, 0, 72, 0
1, 114576, Note_on_c, 1, 48, 0
1, 114624, Note_on_c, 1, 60, 51
1, 114768, Note_on_c, 1, 60, 0
1, 114816, Note_on_c, 0, 77, 51
1, 114816, Note_on_c, 1, 48, 51
1, 114960, Note_on_c, 0, 77, 0
1, 114960, Note_on_c, 1, 48, 0
1, 115008, Note_on_c, 0, 76, 51
1, 115008, Note_on_c, 1, 60, 51
1, 115152, Note_on_c, 0, 76, 0
1, 115152, Note_on_c, 1, 60, 0
1, 115200, Note_on_c, 0, 76, 51
1, 115200, Note_on_c, 1, 53, 51
1, 115292, Note_on_c, 0, 76, 0
1, 115296, Note_on_c, 0, 74, 51
1, 115344, Note_on_c, 1, 53, 0
1, 115388, Note_on_c, 0, 74, 0
1, 115392, Note_on_c, 0, 77, 51
1, 115392, Note_on_c, 1, 57, 51
1, 115484, Note_on_c, 0, 77, 0
1, 115488, Note_on_c, 0, 81, 51
1, 115536, Note_on_c, 1, 57, 0
1, 115580, Note_on_c, 0, 81, 0
1, 115584, Note_on_c, 0, 79, 51
1, 115584, Note_on_c, 1, 53, 51
1, 115628, Note_on_c, 0, 79, 0
1, 115632, Note_on_c, 0, 77, 51
1, 115728, Note_on_c, 1, 53, 0
1, 115772, Note_on_c, 0, 77, 0
1, 115776, Note_on_c, 0, 76, 51
1, 115776, Note_on_c, 1, 62, 51
1, 115868, Note_on_c, 0, 76, 0
1, 115872, Note_on_c, 0, 74, 51
1, 115920, Note_on_c, 1, 62, 0
1, 115964, Note_on_c, 0, 74, 0
1, 115968, Note_on_c, 0, 72, 51
1, 115968, Note_on_c, 1, 55, 51
1, 116112, Note_on_c, 1, 55, 0
1, 116160, Note_on_c, 1, 64, 51
1, 116304, Note_on_c, 1, 64, 0
1, 116348, Note_on_c, 0, 72, 0
1, 116352, Note_on_c, 0, 71, 51
1, 116352, Note_on_c, 1, 55, 51
1, 116396, Note_on_c, 0, 71, 0
1, 116400, Note_on_c, 0, 72, 51
1, 116444, Note_on_c, 0, 72, 0
1, 116448, Note_on_c, 0, 71, 51
1, 116492, Note_on_c, 0, 71, 0
1, 116496, Note_on_c, 0, 72, 51
1, 116496, Note_on_c, 1, 55, 0
1, 116540, Note_on_c, 0, 72, 0
1, 116544, Note_on_c, 0, 69, 51
1, 116544, Note_on_c, 1, 62, 51
1, 116636, Note_on_c, 0, 69, 0
1, 116640, Note_on_c, 0, 71, 51
1, 116688, Note_on_c, 1, 62, 0
1, 116732, Note_on_c, 0, 71, 0
1, 116736, Note_on_c, 0, 84, 72
1, 116736, Note_on_c, 0, 72, 72
1, 116736, Note_on_c, 1, 57, 72
1, 116880, Note_on_c, 0, 84, 0
1, 116880, Note_on_c, 0, 72, 0
1, 116880, Note_on_c, 1, 57, 0
1, 116928, Note_on_c, 0, 84, 72
1, 116928, Note_on_c, 0, 72, 72
1, 116928, Note_on_c, 1, 60, 72
1, 117072, Note_on_c, 0, 84, 0
1, 117072, Note_on_c, 0, 72, 0
1, 117072, Note_on_c, 1, 60, 0
1, 117120, Note_on_c, 0, 84, 72
1, 117120, Note_on_c, 0, 72, 72
1, 117120, Note_on_c, 1, 57, 72
1, 117264, Note_on_c, 1, 57, 0
1, 117312, Note_on_c, 1, 60, 72
1, 117456, Note_on_c, 1, 60, 0
1, 117504, Note_on_c, 1, 53, 51
1, 117648, Note_on_c, 1, 53, 0
1, 117692, Note_on_c, 0, 84, 0
1, 117692, Note_on_c, 0, 72, 0
1, 117696, Note_on_c, 0, 86, 51
1, 117696, Note_on_c, 1, 60, 51
1, 117788, Note_on_c, 0, 86, 0
1, 117792, Note_on_c, 0, 84, 51
1, 117840, Note_on_c, 1, 60, 0
1, 117884, Note_on_c, 0, 84, 0
1, 117888, Note_on_c, 0, 83, 51
1, 117888, Note_on_c, 1, 53, 51
1, 118032, Note_on_c, 0, 83, 0
1, 118032, Note_on_c, 1, 53, 0
1, 118080, Note_on_c, 0, 81, 51
1, 118080, Note_on_c, 1, 60, 51
1, 118224, Note_on_c, 0, 81, 0
1, 118224, Note_on_c, 1, 60, 0
1, 118272, Note_on_c, 0, 79, 72
1, 118272, Note_on_c, 0, 72, 72
1, 118272, Note_on_c, 1, 52, 72
1, 118416, Note_on_c, 0, 79, 0
1, 118416, Note_on_c, 0, 72, 0
1, 118416, Note_on_c, 1, 52, 0
1, 118464, Note_on_c, 0, 72, 72
1, 118464, Note_on_c, 0, 79, 72
1, 118464, Note_on_c, 1, 60, 72
1, 118608, Note_on_c, 0, 72, 0
1, 118608, Note_on_c, 0, 79, 0
1, 118608, Note_on_c, 1, 60, 0
1, 118656, Note_on_c, 0, 79, 72
1, 118656, Note_on_c, 0, 72, 72
1, 118656, Note_on_c, 1, 52, 72
1, 118800, Note_on_c, 1, 52, 0
1, 118848, Note_on_c, 1, 60, 72
1, 118992, Note_on_c, 1, 60, 0
1, 119040, Note_on_c, 1, 48, 51
1, 119184, Note_on_c, 1, 48, 0
1, 119228, Note_on_c, 0, 79, 0
1, 119228, Note_on_c, 0, 72, 0
1, 119232, Note_on_c, 0, 81, 51
1, 119232, Note_on_c, 1, 60, 51
1, 119324, Note_on_c, 0, 81, 0
1, 119328, Note_on_c, 0, 79, 51
1, 119376, Note_on_c, 1, 60, 0
1, 119420, Note_on_c, 0, 79, 0
1, 119424, Note_on_c, 0, 77, 51
1, 119424, Note_on_c, 1, 48, 51
1, 119568, Note_on_c, 0, 77, 0
1, 119568, Note_on_c, 1, 48, 0
1, 119616, Note_on_c, 0, 76, 51
1, 119616, Note_on_c, 1, 60, 51
1, 119760, Note_on_c, 0, 76, 0
1, 119760, Note_on_c, 1, 60, 0
1, 119808, Note_on_c, 0, 76, 51
1, 119808, Note_on_c, 1, 53, 51
1, 119900, Note_on_c, 0, 76, 0
1, 119904, Note_on_c, 0, 71, 51
1, 119952, Note_on_c, 1, 53, 0
1, 119996, Note_on_c, 0, 71, 0
1, 120000, Note_on_c, 0, 81, 51
1, 120000, Note_on_c, 1, 60, 51
1, 120092, Note_on_c, 0, 81, 0
1, 120096, Note_on_c, 0, 80, 51
1, 120144, Note_on_c, 1, 60, 0
1, 120188, Note_on_c, 0, 80, 0
1, 120192, Note_on_c, 0, 83, 51
1, 120192, Note_on_c, 1, 53, 51
1, 120236, Note_on_c, 0, 83, 0
1, 120240, Note_on_c, 0, 81, 51
1, 120336, Note_on_c, 1, 53, 0
1, 120380, Note_on_c, 0, 81, 0
1, 120384, Note_on_c, 0, 79, 51
1, 120384, Note_on_c, 1, 62, 51
1, 120476, Note_on_c, 0, 79, 0
1, 120480, Note_on_c, 0, 77, 51
1, 120528, Note_on_c, 1, 62, 0
1, 120572, Note_on_c, 0, 77, 0
1, 120576, Note_on_c, 0, 76, 51
1, 120576, Note_on_c, 1, 55, 51
1, 120720, Note_on_c, 1, 55, 0
1, 120768, Note_on_c, 1, 60, 51
1, 120912, Note_on_c, 1, 60, 0
1, 120956, Note_on_c, 0, 76, 0
1, 120960, Note_on_c, 0, 74, 51
1, 120960, Note_on_c, 1, 55, 51
1, 121004, Note_on_c, 0, 74, 0
1, 121008, Note_on_c, 0, 76, 51
1, 121040, Note_on_c, 0, 74, 51
1, 121052, Note_on_c, 0, 76, 0
1, 121084, Note_on_c, 0, 74, 0
1, 121104, Note_on_c, 0, 76, 51
1, 121104, Note_on_c, 1, 55, 0
1, 121148, Note_on_c, 0, 76, 0
1, 121152, Note_on_c, 0, 74, 51
1, 121152, Note_on_c, 1, 59, 51
1, 121244, Note_on_c, 0, 74, 0
1, 121248, Note_on_c, 0, 76, 51
1, 121296, Note_on_c, 1, 59, 0
1, 121340, Note_on_c, 0, 76, 0
1, 121344, Note_on_c, 0, 72, 72
1, 121344, Note_on_c, 1, 64, 72
1, 121344, Note_on_c, 1, 60, 72
1, 121488, Note_on_c, 1, 64, 0
1, 121488, Note_on_c, 1, 60, 0
1, 121536, Note_on_c, 1, 64, 51
1, 121536, Note_on_c, 1, 60, 51
1, 121680, Note_on_c, 1, 64, 0
1, 121680, Note_on_c, 1, 60, 0
1, 121724, Note_on_c, 0, 72, 0
1, 121728, Note_on_c, 1, 64, 51
1, 121728, Note_on_c, 1, 60, 51
1, 121872, Note_on_c, 0, 74, 51
1, 121872, Note_on_c, 1, 64, 0
1, 121872, Note_on_c, 1, 60, 0
1, 121920, Note_on_c, 0, 74, 0
1, 121920, Note_on_c, 0, 72, 51
1, 121920, Note_on_c, 1, 60, 51
1, 121920, Note_on_c, 1, 64, 51
1, 122012, Note_on_c, 0, 72, 0
1, 122016, Note_on_c, 0, 71, 51
1, 122064, Note_on_c, 1, 60, 0
1, 122064, Note_on_c, 1, 64, 0
1, 122108, Note_on_c, 0, 71, 0
1, 122112, Note_on_c, 0, 72, 51
1, 122112, Note_on_c, 1, 64, 51
1, 122112, Note_on_c, 1, 60, 51
1, 122256, Note_on_c, 0, 72, 0
1, 122256, Note_on_c, 1, 64, 0
1, 122256, Note_on_c, 1, 60, 0
1, 122304, Note_on_c, 0, 75, 51
1, 122304, Note_on_c, 1, 64, 51
1, 122304, Note_on_c, 1, 60, 51
1, 122448, Note_on_c, 0, 75, 0
1, 122448, Note_on_c, 1, 64, 0
1, 122448, Note_on_c, 1, 60, 0
1, 122496, Note_on_c, 0, 76, 51
1, 122496, Note_on_c, 1, 64, 51
1, 122496, Note_on_c, 1, 60, 51
1, 122640, Note_on_c, 0, 76, 0
1, 122640, Note_on_c, 1, 64, 0
1, 122640, Note_on_c, 1, 60, 0
1, 122688, Note_on_c, 0, 78, 51
1, 122688, Note_on_c, 1, 64, 51
1, 122688, Note_on_c, 1, 60, 51
1, 122832, Note_on_c, 0, 78, 0
1, 122832, Note_on_c, 1, 64, 0
1, 122832, Note_on_c, 1, 60, 0
1, 122880, Note_on_c, 0, 79, 51
1, 122880, Note_on_c, 1, 64, 51
1, 122880, Note_on_c, 1, 60, 51
1, 123024, Note_on_c, 0, 79, 0
1, 123024, Note_on_c, 1, 64, 0
1, 123024, Note_on_c, 1, 60, 0
1, 123072, Note_on_c, 0, 83, 51
1, 123072, Note_on_c, 1, 64, 51
1, 123072, Note_on_c, 1, 60, 51
1, 123216, Note_on_c, 0, 83, 0
1, 123216, Note_on_c, 1, 64, 0
1, 123216, Note_on_c, 1, 60, 0
1, 123264, Note_on_c, 0, 84, 51
1, 123264, Note_on_c, 1, 64, 51
1, 123264, Note_on_c, 1, 60, 51
1, 123408, Note_on_c, 0, 84, 0
1, 123408, Note_on_c, 1, 64, 0
1, 123408, Note_on_c, 1, 60, 0
1, 123456, Note_on_c, 0, 87, 51
1, 123456, Note_on_c, 1, 60, 51
1, 123456, Note_on_c, 1, 64, 51
1, 123600, Note_on_c, 0, 87, 0
1, 123600, Note_on_c, 1, 60, 0
1, 123600, Note_on_c, 1, 64, 0
1, 123648, Note_on_c, 0, 88, 51
1, 123648, Note_on_c, 1, 64, 51
1, 123648, Note_on_c, 1, 60, 51
1, 123792, Note_on_c, 1, 64, 0
1, 123792, Note_on_c, 1, 60, 0
1, 123840, Note_on_c, 1, 64, 51
1, 123840, Note_on_c, 1, 60, 51
1, 123984, Note_on_c, 1, 64, 0
1, 123984, Note_on_c, 1, 60, 0
1, 124028, Note_on_c, 0, 88, 0
1, 124032, Note_on_c, 1, 64, 51
1, 124032, Note_on_c, 1, 60, 51
1, 124176, Note_on_c, 1, 64, 0
1, 124176, Note_on_c, 1, 60, 0
1, 124224, Note_on_c, 1, 64, 51
1, 124224, Note_on_c, 1, 60, 51
1, 124368, Note_on_c, 1, 64, 0
1, 124368, Note_on_c, 1, 60, 0
1, 124416, Note_on_c, 0, 74, 72
1, 124416, Note_on_c, 1, 59, 72
1, 124416, Note_on_c, 1, 62, 72
1, 124432, Note_on_c, 0, 79, 72
1, 124452, Note_on_c, 0, 86, 72
1, 124560, Note_on_c, 1, 59, 0
1, 124560, Note_on_c, 1, 62, 0
1, 124608, Note_on_c, 1, 59, 51
1, 124608, Note_on_c, 1, 62, 51
1, 124752, Note_on_c, 1, 59, 0
1, 124752, Note_on_c, 1, 62, 0
1, 124796, Note_on_c, 0, 74, 0
1, 124800, Note_on_c, 1, 59, 51
1, 124800, Note_on_c, 1, 62, 51
1, 124812, Note_on_c, 0, 79, 0
1, 124832, Note_on_c, 0, 86, 0
1, 124944, Note_on_c, 0, 72, 51
1, 124944, Note_on_c, 1, 59, 0
1, 124944, Note_on_c, 1, 62, 0
1, 124992, Note_on_c, 0, 72, 0
1, 124992, Note_on_c, 0, 71, 51
1, 124992, Note_on_c, 1, 59, 51
1, 124992, Note_on_c, 1, 62, 51
1, 125084, Note_on_c, 0, 71, 0
1, 125088, Note_on_c, 0, 69, 51
1, 125136, Note_on_c, 1, 59, 0
1, 125136, Note_on_c, 1, 62, 0
1, 125180, Note_on_c, 0, 69, 0
1, 125184, Note_on_c, 0, 71, 51
1, 125184, Note_on_c, 1, 59, 51
1, 125184, Note_on_c, 1, 62, 51
1, 125328, Note_on_c, 0, 71, 0
1, 125328, Note_on_c, 1, 59, 0
1, 125328, Note_on_c, 1, 62, 0
1, 125376, Note_on_c, 0, 73, 51
1, 125376, Note_on_c, 1, 59, 51
1, 125376, Note_on_c, 1, 62, 51
1, 125520, Note_on_c, 0, 73, 0
1, 125520, Note_on_c, 1, 59, 0
1, 125520, Note_on_c, 1, 62, 0
1, 125568, Note_on_c, 0, 74, 51
1, 125568, Note_on_c, 1, 62, 51
1, 125568, Note_on_c, 1, 59, 51
1, 125712, Note_on_c, 0, 74, 0
1, 125712, Note_on_c, 1, 62, 0
1, 125712, Note_on_c, 1, 59, 0
1, 125760, Note_on_c, 0, 78, 51
1, 125760, Note_on_c, 1, 59, 51
1, 125760, Note_on_c, 1, 62, 51
1, 125904, Note_on_c, 0, 78, 0
1, 125904, Note_on_c, 1, 59, 0
1, 125904, Note_on_c, 1, 62, 0
1, 125952, Note_on_c, 0, 79, 51
1, 125952, Note_on_c, 1, 62, 51
1, 125952, Note_on_c, 1, 59, 51
1, 126096, Note_on_c, 0, 79, 0
1, 126096, Note_on_c, 1, 62, 0
1, 126096, Note_on_c, 1, 59, 0
1, 126144, Note_on_c, 0, 82, 51
1, 126144, Note_on_c, 1, 62, 51
1, 126144, Note_on_c, 1, 59, 51
1, 126288, Note_on_c, 0, 82, 0
1, 126288, Note_on_c, 1, 62, 0
1, 126288, Note_on_c, 1, 59, 0
1, 126336, Note_on_c, 0, 83, 51
1, 126336, Note_on_c, 1, 62, 51
1, 126336, Note_on_c, 1, 59, 51
1, 126480, Note_on_c, 0, 83, 0
1, 126480, Note_on_c, 1, 62, 0
1, 126480, Note_on_c, 1, 59, 0
1, 126528, Note_on_c, 0, 85, 51
1, 126528, Note_on_c, 1, 59, 51
1, 126528, Note_on_c, 1, 62, 51
1, 126672, Note_on_c, 0, 85, 0
1, 126672, Note_on_c, 1, 59, 0
1, 126672, Note_on_c, 1, 62, 0
1, 126720, Note_on_c, 0, 86, 51
1, 126720, Note_on_c, 1, 62, 51
1, 126720, Note_on_c, 1, 59, 51
1, 126864, Note_on_c, 1, 62, 0
1, 126864, Note_on_c, 1, 59, 0
1, 126912, Note_on_c, 1, 62, 51
1, 126912, Note_on_c, 1, 59, 51
1, 127056, Note_on_c, 1, 62, 0
1, 127056, Note_on_c, 1, 59, 0
1, 127100, Note_on_c, 0, 86, 0
1, 127104, Note_on_c, 1, 62, 51
1, 127104, Note_on_c, 1, 59, 51
1, 127248, Note_on_c, 1, 62, 0
1, 127248, Note_on_c, 1, 59, 0
1, 127296, Note_on_c, 1, 62, 51
1, 127296, Note_on_c, 1, 59, 51
1, 127440, Note_on_c, 1, 62, 0
1, 127440, Note_on_c, 1, 59, 0
1, 127488, Note_on_c, 0, 72, 72
1, 127488, Note_on_c, 1, 54, 72
1, 127488, Note_on_c, 1, 57, 72
1, 127488, Note_on_c, 1, 62, 72
1, 127504, Note_on_c, 0, 78, 72
1, 127524, Note_on_c, 0, 81, 72
1, 127544, Note_on_c, 0, 84, 72
1, 127632, Note_on_c, 1, 54, 0
1, 127632, Note_on_c, 1, 57, 0
1, 127632, Note_on_c, 1, 62, 0
1, 127680, Note_on_c, 1, 54, 51
1, 127680, Note_on_c, 1, 57, 51
1, 127680, Note_on_c, 1, 62, 51
1, 127824, Note_on_c, 1, 54, 0
1, 127824, Note_on_c, 1, 57, 0
1, 127824, Note_on_c, 1, 62, 0
1, 127868, Note_on_c, 0, 72, 0
1, 127872, Note_on_c, 1, 54, 51
1, 127872, Note_on_c, 1, 62, 51
1, 127872, Note_on_c, 1, 57, 51
1, 127884, Note_on_c, 0, 78, 0
1, 127904, Note_on_c, 0, 81, 0
1, 127924, Note_on_c, 0, 84, 0
1, 128016, Note_on_c, 0, 71, 51
1, 128016, Note_on_c, 1, 54, 0
1, 128016, Note_on_c, 1, 62, 0
1, 128016, Note_on_c, 1, 57, 0
1, 128064, Note_on_c, 0, 71, 0
1, 128064, Note_on_c, 0, 69, 51
1, 128064, Note_on_c, 1, 54, 51
1, 128064, Note_on_c, 1, 57, 51
1, 128064, Note_on_c, 1, 62, 51
1, 128156, Note_on_c, 0, 69, 0
1, 128160, Note_on_c, 0, 68, 56
1, 128208, Note_on_c, 1, 54, 0
1, 128208, Note_on_c, 1, 57, 0
1, 128208, Note_on_c, 1, 62, 0
1, 128252, Note_on_c, 0, 68, 0
1, 128256, Note_on_c, 0, 69, 62
1, 128256, Note_on_c, 1, 54, 51
1, 128256, Note_on_c, 1, 57, 51
1, 128256, Note_on_c, 1, 62, 51
1, 128400, Note_on_c, 0, 69, 0
1, 128400, Note_on_c, 1, 54, 0
1, 128400, Note_on_c, 1, 57, 0
1, 128400, Note_on_c, 1, 62, 0
1, 128448, Note_on_c, 0, 71, 63
1, 128448, Note_on_c, 1, 54, 51
1, 128448, Note_on_c, 1, 57, 51
1, 128448, Note_on_c, 1, 62, 51
1, 128592, Note_on_c, 0, 71, 0
1, 128592, Note_on_c, 1, 54, 0
1, 128592, Note_on_c, 1, 57, 0
1, 128592, Note_on_c, 1, 62, 0
1, 128640, Note_on_c, 0, 72, 65
1, 128640, Note_on_c, 1, 57, 51
1, 128640, Note_on_c, 1, 62, 51
1, 128640, Note_on_c, 1, 54, 51
1, 128784, Note_on_c, 0, 72, 0
1, 128784, Note_on_c, 1, 57, 0
1, 128784, Note_on_c, 1, 62, 0
1, 128784, Note_on_c, 1, 54, 0
1, 128832, Note_on_c, 0, 77, 66
1, 128832, Note_on_c, 1, 54, 51
1, 128832, Note_on_c, 1, 57, 51
1, 128832, Note_on_c, 1, 62, 51
1, 128976, Note_on_c, 0, 77, 0
1, 128976, Note_on_c, 1, 54, 0
1, 128976, Note_on_c, 1, 57, 0
1, 128976, Note_on_c, 1, 62, 0
1, 129024, Note_on_c, 0, 78, 67
1, 129024, Note_on_c, 1, 54, 51
1, 129024, Note_on_c, 1, 57, 51
1, 129024, Note_on_c, 1, 62, 51
1, 129168, Note_on_c, 0, 78, 0
1, 129168, Note_on_c, 1, 54, 0
1, 129168, Note_on_c, 1, 57, 0
1, 129168, Note_on_c, 1, 62, 0
1, 129216, Note_on_c, 0, 80, 68
1, 129216, Note_on_c, 1, 54, 51
1, 129216, Note_on_c, 1, 57, 51
1, 129216, Note_on_c, 1, 62, 51
1, 129360, Note_on_c, 0, 80, 0
1, 129360, Note_on_c, 1, 54, 0
1, 129360, Note_on_c, 1, 57, 0
1, 129360, Note_on_c, 1, 62, 0
1, 129408, Note_on_c, 0, 81, 70
1, 129408, Note_on_c, 1, 54, 51
1, 129408, Note_on_c, 1, 57, 51
1, 129408, Note_on_c, 1, 62, 51
1, 129552, Note_on_c, 0, 81, 0
1, 129552, Note_on_c, 1, 54, 0
1, 129552, Note_on_c, 1, 57, 0
1, 129552, Note_on_c, 1, 62, 0
1, 129600, Note_on_c, 0, 83, 71
1, 129600, Note_on_c, 1, 54, 51
1, 129600, Note_on_c, 1, 57, 51
1, 129600, Note_on_c, 1, 62, 51
1, 129744, Note_on_c, 0, 83, 0
1, 129744, Note_on_c, 1, 54, 0
1, 129744, Note_on_c, 1, 57, 0
1, 129744, Note_on_c, 1, 62, 0
1, 129792, Note_on_c, 0, 84, 72
1, 129792, Note_on_c, 1, 54, 51
1, 129792, Note_on_c, 1, 57, 51
1, 129792, Note_on_c, 1, 62, 51
1, 129936, Note_on_c, 1, 54, 0
1, 129936, Note_on_c, 1, 57, 0
1, 129936, Note_on_c, 1, 62, 0
1, 129984, Note_on_c, 1, 54, 51
1, 129984, Note_on_c, 1, 57, 51
1, 129984, Note_on_c, 1, 62, 51
1, 130032, Note_on_c, 0, 84, 0
1, 130128, Note_on_c, 1, 54, 0
1, 130128, Note_on_c, 1, 57, 0
1, 130128, Note_on_c, 1, 62, 0
1, 130176, Note_on_c, 1, 54, 51
1, 130176, Note_on_c, 1, 57, 51
1, 130176, Note_on_c, 1, 62, 51
1, 130320, Note_on_c, 1, 54, 0
1, 130320, Note_on_c, 1, 57, 0
1, 130320, Note_on_c, 1, 62, 0
1, 130368, Note_on_c, 1, 54, 51
1, 130368, Note_on_c, 1, 62, 51
1, 130368, Note_on_c, 1, 57, 51
1, 130512, Note_on_c, 1, 54, 0
1, 130512, Note_on_c, 1, 62, 0
1, 130512, Note_on_c, 1, 57, 0
1, 130560, Note_on_c, 0, 84, 75
1, 130560, Note_on_c, 1, 55, 72
1, 130604, Note_on_c, 0, 84, 0
1, 130608, Note_on_c, 0, 83, 51
1, 130704, Note_on_c, 1, 55, 0
1, 130748, Note_on_c, 0, 83, 0
1, 130752, Note_on_c, 0, 81, 51
1, 130752, Note_on_c, 1, 62, 72
1, 130844, Note_on_c, 0, 81, 0
1, 130848, Note_on_c, 0, 79, 51
1, 130896, Note_on_c, 1, 62, 0
1, 130940, Note_on_c, 0, 79, 0
1, 130944, Note_on_c, 0, 79, 51
1, 130944, Note_on_c, 1, 57, 51
1, 130988, Note_on_c, 0, 79, 0
1, 130992, Note_on_c, 0, 78, 51
1, 131088, Note_on_c, 1, 57, 0
1, 131132, Note_on_c, 0, 78, 0
1, 131136, Note_on_c, 0, 76, 51
1, 131136, Note_on_c, 1, 62, 51
1, 131228, Note_on_c, 0, 76, 0
1, 131232, Note_on_c, 0, 74, 51
1, 131280, Note_on_c, 1, 62, 0
1, 131324, Note_on_c, 0, 74, 0
1, 131328, Note_on_c, 0, 74, 51
1, 131328, Note_on_c, 1, 54, 72
1, 131360, Note_on_c, 0, 74, 0
1, 131376, Note_on_c, 0, 78, 51
1, 131408, Note_on_c, 0, 78, 0
1, 131424, Note_on_c, 0, 81, 51
1, 131456, Note_on_c, 0, 81, 0
1, 131472, Note_on_c, 0, 84, 75
1, 131472, Note_on_c, 1, 54, 0
1, 131520, Note_on_c, 1, 62, 51
1, 131664, Note_on_c, 1, 62, 0
1, 131712, Note_on_c, 1, 50, 51
1, 131856, Note_on_c, 1, 50, 0
1, 131904, Note_on_c, 1, 62, 51
1, 132048, Note_on_c, 1, 62, 0
1, 132096, Note_on_c, 0, 84, 68
1, 132096, Note_on_c, 1, 55, 51
1, 132116, Note_on_c, 0, 84, 0
1, 132140, Note_on_c, 0, 84, 0
1, 132144, Note_on_c, 0, 83, 51
1, 132240, Note_on_c, 1, 55, 0
1, 132284, Note_on_c, 0, 83, 0
1, 132288, Note_on_c, 0, 81, 51
1, 132288, Note_on_c, 1, 62, 51
1, 132380, Note_on_c, 0, 81, 0
1, 132384, Note_on_c, 0, 79, 51
1, 132432, Note_on_c, 1, 62, 0
1, 132476, Note_on_c, 0, 79, 0
1, 132480, Note_on_c, 0, 79, 51
1, 132480, Note_on_c, 1, 59, 51
1, 132524, Note_on_c, 0, 79, 0
1, 132528, Note_on_c, 0, 78, 51
1, 132624, Note_on_c, 1, 59, 0
1, 132668, Note_on_c, 0, 78, 0
1, 132672, Note_on_c, 0, 76, 51
1, 132672, Note_on_c, 1, 62, 51
1, 132764, Note_on_c, 0, 76, 0
1, 132768, Note_on_c, 0, 74, 51
1, 132816, Note_on_c, 1, 62, 0
1, 132860, Note_on_c, 0, 74, 0
1, 132864, Note_on_c, 0, 74, 51
1, 132864, Note_on_c, 1, 54, 72
1, 132896, Note_on_c, 0, 74, 0
1, 132912, Note_on_c, 0, 78, 51
1, 132944, Note_on_c, 0, 78, 0
1, 132960, Note_on_c, 0, 81, 51
1, 132992, Note_on_c, 0, 81, 0
1, 133008, Note_on_c, 0, 84, 75
1, 133008, Note_on_c, 1, 54, 0
1, 133056, Note_on_c, 1, 62, 51
1, 133200, Note_on_c, 1, 62, 0
1, 133248, Note_on_c, 1, 50, 51
1, 133392, Note_on_c, 1, 50, 0
1, 133440, Note_on_c, 1, 62, 51
1, 133584, Note_on_c, 1, 62, 0
1, 133632, Note_on_c, 0, 83, 72
1, 133632, Note_on_c, 1, 62, 72
1, 133632, Note_on_c, 1, 55, 72
1, 133652, Note_on_c, 0, 84, 0
1, 133724, Note_on_c, 0, 83, 0
1, 133728, Note_on_c, 0, 81, 72
1, 133820, Note_on_c, 0, 81, 0
1, 133824, Note_on_c, 0, 84, 72
1, 133916, Note_on_c, 0, 84, 0
1, 133920, Note_on_c, 0, 83, 72
1, 134012, Note_on_c, 0, 83, 0
1, 134012, Note_on_c, 1, 62, 0
1, 134012, Note_on_c, 1, 55, 0
1, 134016, Note_on_c, 0, 86, 72
1, 134160, Note_on_c, 0, 86, 0
1, 134160, Note_on_c, 0, 78, 72
1, 134304, Note_on_c, 0, 78, 0
1, 134400, Note_on_c, 0, 79, 72
1, 134400, Note_on_c, 1, 59, 72
1, 134400, Note_on_c, 1, 62, 72
1, 134492, Note_on_c, 0, 79, 0
1, 134496, Note_on_c, 0, 78, 72
1, 134588, Note_on_c, 0, 78, 0
1, 134592, Note_on_c, 0, 81, 72
1, 134684, Note_on_c, 0, 81, 0
1, 134688, Note_on_c, 0, 79, 72
1, 134780, Note_on_c, 0, 79, 0
1, 134780, Note_on_c, 1, 59, 0
1, 134780, Note_on_c, 1, 62, 0
1, 134784, Note_on_c, 0, 83, 72
1, 134928, Note_on_c, 0, 83, 0
1, 134976, Note_on_c, 0, 75, 72
1, 135120, Note_on_c, 0, 75, 0
1, 135168, Note_on_c, 0, 76, 72
1, 135168, Note_on_c, 1, 60, 72
1, 135168, Note_on_c, 1, 67, 72
1, 135260, Note_on_c, 0, 76, 0
1, 135264, Note_on_c, 0, 75, 72
1, 135356, Note_on_c, 0, 75, 0
1, 135360, Note_on_c, 0, 78, 72
1, 135452, Note_on_c, 0, 78, 0
1, 135456, Note_on_c, 0, 76, 72
1, 135548, Note_on_c, 0, 76, 0
1, 135548, Note_on_c, 1, 60, 0
1, 135548, Note_on_c, 1, 67, 0
1, 135552, Note_on_c, 0, 79, 72
1, 135696, Note_on_c, 0, 79, 0
1, 135744, Note_on_c, 0, 71, 72
1, 135888, Note_on_c, 0, 71, 0
1, 135936, Note_on_c, 0, 72, 72
1, 135936, Note_on_c, 1, 67, 72
1, 135936, Note_on_c, 1, 64, 72
1, 136028, Note_on_c, 0, 72, 0
1, 136032, Note_on_c, 0, 71, 72
1, 136124, Note_on_c, 0, 71, 0
1, 136128, Note_on_c, 0, 74, 72
1, 136220, Note_on_c, 0, 74, 0
1, 136224, Note_on_c, 0, 72, 72
1, 136316, Note_on_c, 0, 72, 0
1, 136316, Note_on_c, 1, 67, 0
1, 136316, Note_on_c, 1, 64, 0
1, 136320, Note_on_c, 0, 76, 72
1, 136464, Note_on_c, 0, 76, 0
1, 136512, Note_on_c, 0, 68, 72
1, 136656, Note_on_c, 0, 68, 0
1, 136704, Note_on_c, 0, 69, 72
1, 136704, Note_on_c, 1, 57, 72
1, 136988, Note_on_c, 0, 69, 0
1, 136988, Note_on_c, 1, 57, 0
1, 136992, Note_on_c, 0, 71, 72
1, 136992, Note_on_c, 1, 59, 72
1, 137084, Note_on_c, 0, 71, 0
1, 137084, Note_on_c, 1, 59, 0
1, 137088, Note_on_c, 0, 72, 72
1, 137088, Note_on_c, 1, 60, 72
1, 137372, Note_on_c, 0, 72, 0
1, 137372, Note_on_c, 1, 60, 0
1, 137376, Note_on_c, 0, 71, 72
1, 137376, Note_on_c, 1, 59, 72
1, 137468, Note_on_c, 0, 71, 0
1, 137468, Note_on_c, 1, 59, 0
1, 137472, Note_on_c, 0, 69, 72
1, 137472, Note_on_c, 1, 57, 72
1, 137756, Note_on_c, 0, 69, 0
1, 137756, Note_on_c, 1, 57, 0
1, 137760, Note_on_c, 0, 67, 72
1, 137760, Note_on_c, 1, 55, 72
1, 137852, Note_on_c, 0, 67, 0
1, 137852, Note_on_c, 1, 55, 0
1, 137856, Note_on_c, 0, 66, 72
1, 137856, Note_on_c, 1, 54, 72
1, 138140, Note_on_c, 0, 66, 0
1, 138140, Note_on_c, 1, 54, 0
1, 138144, Note_on_c, 0, 64, 72
1, 138144, Note_on_c, 1, 52, 72
1, 138236, Note_on_c, 0, 64, 0
1, 138236, Note_on_c, 1, 52, 0
1, 138240, Note_on_c, 0, 62, 72
1, 138240, Note_on_c, 1, 50, 72
1, 138428, Note_on_c, 0, 62, 0
1, 138428, Note_on_c, 1, 50, 0
1, 138432, Note_on_c, 0, 66, 72
1, 138432, Note_on_c, 1, 54, 72
1, 138524, Note_on_c, 0, 66, 0
1, 138524, Note_on_c, 1, 54, 0
1, 138528, Note_on_c, 0, 69, 72
1, 138528, Note_on_c, 1, 57, 72
1, 138620, Note_on_c, 0, 69, 0
1, 138620, Note_on_c, 1, 57, 0
1, 138624, Note_on_c, 0, 74, 72
1, 138624, Note_on_c, 1, 62, 72
1, 138768, Note_on_c, 0, 74, 0
1, 138768, Note_on_c, 1, 62, 0
1, 138816, Note_on_c, 0, 74, 72
1, 138816, Note_on_c, 1, 62, 72
1, 138960, Note_on_c, 0, 74, 0
1, 138960, Note_on_c, 1, 62, 0
1, 139008, Note_on_c, 0, 74, 72
1, 139008, Note_on_c, 1, 62, 72
1, 139388, Note_on_c, 0, 74, 0
1, 139388, Note_on_c, 1, 62, 0
1, 139776, Note_on_c, 1, 61, 51
1, 139920, Note_on_c, 1, 61, 0
1, 139968, Note_on_c, 1, 62, 51
1, 140112, Note_on_c, 1, 62, 0
1, 140160, Note_on_c, 1, 61, 51
1, 140304, Note_on_c, 1, 61, 0
1, 140352, Note_on_c, 1, 62, 51
1, 140496, Note_on_c, 1, 62, 0
1, 140544, Note_on_c, 1, 61, 51
1, 140688, Note_on_c, 1, 61, 0
1, 140736, Note_on_c, 1, 62, 51
1, 140880, Note_on_c, 1, 62, 0
1, 140928, Note_on_c, 1, 61, 51
1, 141072, Note_on_c, 1, 61, 0
1, 141120, Note_on_c, 1, 62, 52
1, 141264, Note_on_c, 1, 62, 0
1, 141312, Note_on_c, 1, 60, 55
1, 141456, Note_on_c, 1, 60, 0
1, 141504, Note_on_c, 1, 62, 57
1, 141648, Note_on_c, 1, 62, 0
1, 141696, Note_on_c, 1, 59, 60
1, 141840, Note_on_c, 1, 59, 0
1, 141888, Note_on_c, 1, 62, 62
1, 142032, Note_on_c, 1, 62, 0
1, 142080, Note_on_c, 1, 60, 65
1, 142224, Note_on_c, 1, 60, 0
1, 142272, Note_on_c, 1, 62, 67
1, 142416, Note_on_c, 1, 62, 0
1, 142464, Note_on_c, 1, 57, 70
1, 142608, Note_on_c, 1, 57, 0
1, 142656, Note_on_c, 1, 62, 72
1, 142800, Note_on_c, 1, 62, 0
1, 142848, Note_on_c, 0, 83, 51
1, 142848, Note_on_c, 1, 55, 51
1, 142992, Note_on_c, 0, 83, 0
1, 142992, Note_on_c, 0, 84, 51
1, 142992, Note_on_c, 1, 55, 0
1, 143040, Note_on_c, 1, 62, 51
1, 143136, Note_on_c, 0, 84, 0
1, 143184, Note_on_c, 1, 62, 0
1, 143232, Note_on_c, 0, 86, 51
1, 143232, Note_on_c, 1, 55, 51
1, 143376, Note_on_c, 0, 86, 0
1, 143376, Note_on_c, 1, 55, 0
1, 143424, Note_on_c, 0, 83, 51
1, 143424, Note_on_c, 1, 62, 51
1, 143568, Note_on_c, 0, 83, 0
1, 143568, Note_on_c, 1, 62, 0
1, 143616, Note_on_c, 0, 79, 51
1, 143616, Note_on_c, 1, 59, 51
1, 143760, Note_on_c, 1, 59, 0
1, 143808, Note_on_c, 1, 62, 51
1, 143952, Note_on_c, 1, 62, 0
1, 144000, Note_on_c, 1, 59, 51
1, 144144, Note_on_c, 1, 59, 0
1, 144192, Note_on_c, 1, 62, 51
1, 144336, Note_on_c, 1, 62, 0
1, 144380, Note_on_c, 0, 79, 0
1, 144384, Note_on_c, 0, 81, 51
1, 144384, Note_on_c, 1, 60, 51
1, 144528, Note_on_c, 0, 81, 0
1, 144528, Note_on_c, 1, 60, 0
1, 144576, Note_on_c, 0, 83, 51
1, 144576, Note_on_c, 1, 62, 51
1, 144720, Note_on_c, 0, 83, 0
1, 144720, Note_on_c, 1, 62, 0
1, 144768, Note_on_c, 0, 84, 51
1, 144768, Note_on_c, 1, 60, 51
1, 144912, Note_on_c, 0, 84, 0
1, 144912, Note_on_c, 1, 60, 0
1, 144960, Note_on_c, 0, 81, 51
1, 144960, Note_on_c, 1, 62, 51
1, 145104, Note_on_c, 0, 81, 0
1, 145104, Note_on_c, 1, 62, 0
1, 145152, Note_on_c, 0, 78, 51
1, 145152, Note_on_c, 1, 57, 51
1, 145296, Note_on_c, 1, 57, 0
1, 145344, Note_on_c, 1, 62, 51
1, 145488, Note_on_c, 1, 62, 0
1, 145536, Note_on_c, 1, 57, 51
1, 145680, Note_on_c, 1, 57, 0
1, 145728, Note_on_c, 1, 62, 51
1, 145872, Note_on_c, 1, 62, 0
1, 145916, Note_on_c, 0, 78, 0
1, 145920, Note_on_c, 0, 79, 51
1, 145920, Note_on_c, 1, 59, 51
1, 146012, Note_on_c, 0, 79, 0
1, 146016, Note_on_c, 0, 78, 51
1, 146064, Note_on_c, 1, 59, 0
1, 146112, Note_on_c, 1, 62, 51
1, 146204, Note_on_c, 0, 78, 0
1, 146256, Note_on_c, 1, 62, 0
1, 146304, Note_on_c, 0, 76, 51
1, 146304, Note_on_c, 1, 55, 51
1, 146396, Note_on_c, 0, 76, 0
1, 146400, Note_on_c, 0, 74, 51
1, 146448, Note_on_c, 1, 55, 0
1, 146496, Note_on_c, 1, 62, 51
1, 146588, Note_on_c, 0, 74, 0
1, 146640, Note_on_c, 1, 62, 0
1, 146688, Note_on_c, 0, 71, 51
1, 146688, Note_on_c, 1, 57, 51
1, 146780, Note_on_c, 0, 71, 0
1, 146784, Note_on_c, 0, 72, 51
1, 146832, Note_on_c, 1, 57, 0
1, 146880, Note_on_c, 1, 62, 51
1, 146972, Note_on_c, 0, 72, 0
1, 147024, Note_on_c, 1, 62, 0
1, 147072, Note_on_c, 1, 54, 51
1, 147216, Note_on_c, 1, 54, 0
1, 147264, Note_on_c, 1, 62, 51
1, 147408, Note_on_c, 1, 62, 0
1, 147456, Note_on_c, 0, 72, 51
1, 147456, Note_on_c, 1, 55, 51
1, 147548, Note_on_c, 0, 72, 0
1, 147552, Note_on_c, 0, 71, 51
1, 147600, Note_on_c, 1, 55, 0
1, 147648, Note_on_c, 1, 62, 51
1, 147740, Note_on_c, 0, 71, 0
1, 147792, Note_on_c, 1, 62, 0
1, 147840, Note_on_c, 0, 69, 51
1, 147840, Note_on_c, 1, 52, 51
1, 147932, Note_on_c, 0, 69, 0
1, 147936, Note_on_c, 0, 67, 51
1, 147984, Note_on_c, 1, 52, 0
1, 148032, Note_on_c, 1, 61, 51
1, 148124, Note_on_c, 0, 67, 0
1, 148176, Note_on_c, 1, 61, 0
1, 148224, Note_on_c, 0, 71, 51
1, 148224, Note_on_c, 1, 50, 51
1, 148316, Note_on_c, 0, 71, 0
1, 148320, Note_on_c, 0, 69, 51
1, 148368, Note_on_c, 1, 50, 0
1, 148416, Note_on_c, 1, 62, 51
1, 148508, Note_on_c, 0, 69, 0
1, 148560, Note_on_c, 1, 62, 0
1, 148608, Note_on_c, 1, 60, 51
1, 148752, Note_on_c, 1, 60, 0
1, 148800, Note_on_c, 1, 57, 51
1, 148944, Note_on_c, 1, 57, 0
1, 148992, Note_on_c, 0, 83, 51
1, 148992, Note_on_c, 1, 55, 51
1, 149136, Note_on_c, 0, 83, 0
1, 149136, Note_on_c, 1, 55, 0
1, 149184, Note_on_c, 0, 84, 51
1, 149184, Note_on_c, 1, 62, 51
1, 149328, Note_on_c, 0, 84, 0
1, 149328, Note_on_c, 1, 62, 0
1, 149376, Note_on_c, 0, 86, 51
1, 149376, Note_on_c, 1, 55, 51
1, 149520, Note_on_c, 0, 86, 0
1, 149520, Note_on_c, 1, 55, 0
1, 149568, Note_on_c, 0, 83, 51
1, 149568, Note_on_c, 1, 62, 51
1, 149712, Note_on_c, 0, 83, 0
1, 149712, Note_on_c, 1, 62, 0
1, 149760, Note_on_c, 0, 79, 51
1, 149760, Note_on_c, 1, 59, 51
1, 149904, Note_on_c, 1, 59, 0
1, 149952, Note_on_c, 1, 62, 51
1, 150096, Note_on_c, 1, 62, 0
1, 150144, Note_on_c, 1, 59, 51
1, 150288, Note_on_c, 0, 79, 0
1, 150288, Note_on_c, 1, 59, 0
1, 150336, Note_on_c, 1, 62, 51
1, 150480, Note_on_c, 1, 62, 0
1, 150528, Note_on_c, 0, 81, 51
1, 150528, Note_on_c, 1, 60, 51
1, 150672, Note_on_c, 0, 81, 0
1, 150672, Note_on_c, 1, 60, 0
1, 150720, Note_on_c, 0, 83, 51
1, 150720, Note_on_c, 1, 62, 51
1, 150864, Note_on_c, 0, 83, 0
1, 150864, Note_on_c, 1, 62, 0
1, 150912, Note_on_c, 0, 84, 51
1, 150912, Note_on_c, 1, 60, 51
1, 151056, Note_on_c, 0, 84, 0
1, 151056, Note_on_c, 1, 60, 0
1, 151104, Note_on_c, 0, 81, 51
1, 151104, Note_on_c, 1, 62, 51
1, 151248, Note_on_c, 0, 81, 0
1, 151248, Note_on_c, 1, 62, 0
1, 151296, Note_on_c, 0, 78, 51
1, 151296, Note_on_c, 1, 57, 51
1, 151440, Note_on_c, 1, 57, 0
1, 151488, Note_on_c, 1, 62, 51
1, 151632, Note_on_c, 1, 62, 0
1, 151680, Note_on_c, 1, 57, 51
1, 151824, Note_on_c, 0, 78, 0
1, 151824, Note_on_c, 1, 57, 0
1, 151872, Note_on_c, 1, 62, 51
1, 152016, Note_on_c, 1, 62, 0
1, 152064, Note_on_c, 0, 79, 51
1, 152064, Note_on_c, 1, 59, 51
1, 152156, Note_on_c, 0, 79, 0
1, 152160, Note_on_c, 0, 78, 51
1, 152208, Note_on_c, 1, 59, 0
1, 152256, Note_on_c, 1, 62, 51
1, 152348, Note_on_c, 0, 78, 0
1, 152400, Note_on_c, 1, 62, 0
1, 152448, Note_on_c, 0, 76, 51
1, 152448, Note_on_c, 1, 55, 51
1, 152540, Note_on_c, 0, 76, 0
1, 152544, Note_on_c, 0, 74, 51
1, 152592, Note_on_c, 1, 55, 0
1, 152640, Note_on_c, 1, 62, 51
1, 152732, Note_on_c, 0, 74, 0
1, 152784, Note_on_c, 1, 62, 0
1, 152832, Note_on_c, 0, 71, 51
1, 152832, Note_on_c, 1, 57, 51
1, 152924, Note_on_c, 0, 71, 0
1, 152928, Note_on_c, 0, 72, 51
1, 152976, Note_on_c, 1, 57, 0
1, 153024, Note_on_c, 1, 62, 51
1, 153116, Note_on_c, 0, 72, 0
1, 153168, Note_on_c, 1, 62, 0
1, 153216, Note_on_c, 1, 54, 51
1, 153360, Note_on_c, 1, 54, 0
1, 153408, Note_on_c, 1, 62, 51
1, 153552, Note_on_c, 1, 62, 0
1, 153600, Note_on_c, 0, 72, 51
1, 153600, Note_on_c, 1, 55, 51
1, 153692, Note_on_c, 0, 72, 0
1, 153696, Note_on_c, 0, 71, 51
1, 153744, Note_on_c, 1, 55, 0
1, 153792, Note_on_c, 1, 62, 51
1, 153884, Note_on_c, 0, 71, 0
1, 153936, Note_on_c, 1, 62, 0
1, 153984, Note_on_c, 0, 69, 51
1, 153984, Note_on_c, 1, 52, 51
1, 154076, Note_on_c, 0, 69, 0
1, 154080, Note_on_c, 0, 67, 51
1, 154128, Note_on_c, 1, 52, 0
1, 154176, Note_on_c, 1, 61, 51
1, 154268, Note_on_c, 0, 67, 0
1, 154320, Note_on_c, 1, 61, 0
1, 154368, Note_on_c, 0, 76, 51
1, 154368, Note_on_c, 1, 50, 51
1, 154460, Note_on_c, 0, 76, 0
1, 154464, Note_on_c, 0, 74, 51
1, 154512, Note_on_c, 1, 50, 0
1, 154560, Note_on_c, 1, 62, 51
1, 154652, Note_on_c, 0, 74, 0
1, 154704, Note_on_c, 1, 62, 0
1, 154752, Note_on_c, 1, 48, 51
1, 154896, Note_on_c, 1, 48, 0
1, 154944, Note_on_c, 1, 60, 51
1, 155088, Note_on_c, 1, 60, 0
1, 155136, Note_on_c, 0, 86, 72
1, 155136, Note_on_c, 0, 74, 72
1, 155136, Note_on_c, 1, 47, 72
1, 155228, Note_on_c, 1, 47, 0
1, 155232, Note_on_c, 1, 55, 72
1, 155324, Note_on_c, 1, 55, 0
1, 155328, Note_on_c, 1, 54, 72
1, 155420, Note_on_c, 1, 54, 0
1, 155424, Note_on_c, 1, 55, 72
1, 155516, Note_on_c, 1, 55, 0
1, 155520, Note_on_c, 1, 57, 72
1, 155612, Note_on_c, 1, 57, 0
1, 155616, Note_on_c, 1, 55, 72
1, 155708, Note_on_c, 1, 55, 0
1, 155712, Note_on_c, 1, 54, 72
1, 155804, Note_on_c, 1, 54, 0
1, 155808, Note_on_c, 1, 55, 72
1, 155900, Note_on_c, 0, 86, 0
1, 155900, Note_on_c, 0, 74, 0
1, 155900, Note_on_c, 1, 55, 0
1, 155904, Note_on_c, 0, 84, 72
1, 155904, Note_on_c, 1, 47, 72
1, 156048, Note_on_c, 0, 84, 0
1, 156096, Note_on_c, 0, 83, 72
1, 156240, Note_on_c, 0, 83, 0
1, 156284, Note_on_c, 1, 47, 0
1, 156288, Note_on_c, 0, 81, 72
1, 156432, Note_on_c, 0, 81, 0
1, 156480, Note_on_c, 0, 79, 72
1, 156624, Note_on_c, 0, 79, 0
1, 156672, Note_on_c, 0, 88, 72
1, 156672, Note_on_c, 0, 76, 72
1, 156672, Note_on_c, 1, 48, 72
1, 156764, Note_on_c, 1, 48, 0
1, 156768, Note_on_c, 1, 55, 72
1, 156860, Note_on_c, 1, 55, 0
1, 156864, Note_on_c, 1, 54, 72
1, 156956, Note_on_c, 1, 54, 0
1, 156960, Note_on_c, 1, 55, 72
1, 157052, Note_on_c, 1, 55, 0
1, 157056, Note_on_c, 1, 57, 72
1, 157148, Note_on_c, 1, 57, 0
1, 157152, Note_on_c, 1, 55, 72
1, 157244, Note_on_c, 1, 55, 0
1, 157248, Note_on_c, 1, 54, 72
1, 157340, Note_on_c, 1, 54, 0
1, 157344, Note_on_c, 1, 55, 72
1, 157436, Note_on_c, 0, 88, 0
1, 157436, Note_on_c, 0, 76, 0
1, 157436, Note_on_c, 1, 55, 0
1, 157440, Note_on_c, 0, 86, 72
1, 157440, Note_on_c, 1, 48, 72
1, 157584, Note_on_c, 0, 86, 0
1, 157632, Note_on_c, 0, 84, 72
1, 157776, Note_on_c, 0, 84, 0
1, 157820, Note_on_c, 1, 48, 0
1, 157824, Note_on_c, 0, 83, 72
1, 157968, Note_on_c, 0, 83, 0
1, 158016, Note_on_c, 0, 81, 72
1, 158160, Note_on_c, 0, 81, 0
1, 158208, Note_on_c, 0, 83, 51
1, 158208, Note_on_c, 1, 50, 51
1, 158300, Note_on_c, 0, 83, 0
1, 158304, Note_on_c, 0, 84, 51
1, 158352, Note_on_c, 1, 50, 0
1, 158396, Note_on_c, 0, 84, 0
1, 158400, Note_on_c, 0, 86, 51
1, 158400, Note_on_c, 1, 55, 51
1, 158492, Note_on_c, 0, 86, 0
1, 158496, Note_on_c, 0, 83, 51
1, 158544, Note_on_c, 1, 55, 0
1, 158588, Note_on_c, 0, 83, 0
1, 158592, Note_on_c, 0, 79, 51
1, 158592, Note_on_c, 1, 59, 51
1, 158736, Note_on_c, 1, 59, 0
1, 158780, Note_on_c, 0, 79, 0
1, 158784, Note_on_c, 1, 55, 51
1, 158928, Note_on_c, 1, 55, 0
1, 158976, Note_on_c, 0, 81, 51
1, 158976, Note_on_c, 1, 50, 51
1, 159068, Note_on_c, 0, 81, 0
1, 159072, Note_on_c, 0, 83, 51
1, 159120, Note_on_c, 1, 50, 0
1, 159164, Note_on_c, 0, 83, 0
1, 159168, Note_on_c, 0, 84, 51
1, 159168, Note_on_c, 1, 57, 51
1, 159260, Note_on_c, 0, 84, 0
1, 159264, Note_on_c, 0, 81, 51
1, 159312, Note_on_c, 1, 57, 0
1, 159356, Note_on_c, 0, 81, 0
1, 159360, Note_on_c, 0, 78, 51
1, 159360, Note_on_c, 1, 60, 51
1, 159504, Note_on_c, 1, 60, 0
1, 159548, Note_on_c, 0, 78, 0
1, 159552, Note_on_c, 1, 57, 51
1, 159696, Note_on_c, 1, 57, 0
1, 159744, Note_on_c, 0, 86, 72
1, 159744, Note_on_c, 0, 74, 72
1, 159744, Note_on_c, 1, 48, 72
1, 159836, Note_on_c, 1, 48, 0
1, 159840, Note_on_c, 1, 55, 51
1, 159932, Note_on_c, 1, 55, 0
1, 159936, Note_on_c, 1, 54, 51
1, 160028, Note_on_c, 1, 54, 0
1, 160032, Note_on_c, 1, 55, 51
1, 160124, Note_on_c, 1, 55, 0
1, 160128, Note_on_c, 1, 57, 51
1, 160220, Note_on_c, 1, 57, 0
1, 160224, Note_on_c, 1, 55, 51
1, 160316, Note_on_c, 1, 55, 0
1, 160320, Note_on_c, 1, 54, 51
1, 160412, Note_on_c, 1, 54, 0
1, 160416, Note_on_c, 1, 55, 51
1, 160508, Note_on_c, 0, 86, 0
1, 160508, Note_on_c, 0, 74, 0
1, 160508, Note_on_c, 1, 55, 0
1, 160512, Note_on_c, 0, 84, 72
1, 160512, Note_on_c, 1, 47, 51
1, 160604, Note_on_c, 0, 84, 0
1, 160608, Note_on_c, 0, 86, 72
1, 160700, Note_on_c, 0, 86, 0
1, 160704, Note_on_c, 0, 84, 72
1, 160796, Note_on_c, 0, 84, 0
1, 160800, Note_on_c, 0, 83, 72
1, 160892, Note_on_c, 0, 83, 0
1, 160892, Note_on_c, 1, 47, 0
1, 160896, Note_on_c, 0, 81, 72
1, 160988, Note_on_c, 0, 81, 0
1, 160992, Note_on_c, 0, 83, 72
1, 161084, Note_on_c, 0, 83, 0
1, 161088, Note_on_c, 0, 81, 72
1, 161180, Note_on_c, 0, 81, 0
1, 161184, Note_on_c, 0, 79, 72
1, 161276, Note_on_c, 0, 79, 0
1, 161280, Note_on_c, 0, 88, 72
1, 161280, Note_on_c, 0, 76, 72
1, 161280, Note_on_c, 1, 48, 51
1, 161372, Note_on_c, 1, 48, 0
1, 161376, Note_on_c, 1, 55, 51
1, 161468, Note_on_c, 1, 55, 0
1, 161472, Note_on_c, 1, 54, 51
1, 161564, Note_on_c, 1, 54, 0
1, 161568, Note_on_c, 1, 55, 51
1, 161660, Note_on_c, 1, 55, 0
1, 161664, Note_on_c, 1, 57, 51
1, 161756, Note_on_c, 1, 57, 0
1, 161760, Note_on_c, 1, 55, 51
1, 161852, Note_on_c, 1, 55, 0
1, 161856, Note_on_c, 1, 54, 51
1, 161948, Note_on_c, 1, 54, 0
1, 161952, Note_on_c, 1, 55, 51
1, 162044, Note_on_c, 0, 88, 0
1, 162044, Note_on_c, 0, 76, 0
1, 162044, Note_on_c, 1, 55, 0
1, 162048, Note_on_c, 0, 86, 72
1, 162048, Note_on_c, 1, 48, 51
1, 162140, Note_on_c, 0, 86, 0
1, 162144, Note_on_c, 0, 88, 72
1, 162236, Note_on_c, 0, 88, 0
1, 162240, Note_on_c, 0, 86, 72
1, 162332, Note_on_c, 0, 86, 0
1, 162336, Note_on_c, 0, 84, 72
1, 162428, Note_on_c, 0, 84, 0
1, 162428, Note_on_c, 1, 48, 0
1, 162432, Note_on_c, 0, 83, 72
1, 162524, Note_on_c, 0, 83, 0
1, 162528, Note_on_c, 0, 84, 72
1, 162620, Note_on_c, 0, 84, 0
1, 162624, Note_on_c, 0, 83, 72
1, 162716, Note_on_c, 0, 83, 0
1, 162720, Note_on_c, 0, 81, 72
1, 162812, Note_on_c, 0, 81, 0
1, 162816, Note_on_c, 0, 83, 51
1, 162816, Note_on_c, 0, 62, 51
1, 162960, Note_on_c, 0, 83, 0
1, 162960, Note_on_c, 0, 62, 0
1, 163008, Note_on_c, 0, 79, 51
1, 163008, Note_on_c, 0, 67, 51
1, 163152, Note_on_c, 0, 79, 0
1, 163152, Note_on_c, 0, 67, 0
1, 163200, Note_on_c, 0, 64, 51
1, 163200, Note_on_c, 0, 84, 77
1, 163344, Note_on_c, 0, 64, 0
1, 163392, Note_on_c, 0, 67, 51
1, 163536, Note_on_c, 0, 67, 0
1, 163580, Note_on_c, 0, 84, 0
1, 163584, Note_on_c, 0, 83, 51
1, 163584, Note_on_c, 0, 62, 51
1, 163728, Note_on_c, 0, 83, 0
1, 163728, Note_on_c, 0, 62, 0
1, 163776, Note_on_c, 0, 79, 51
1, 163776, Note_on_c, 0, 67, 51
1, 163920, Note_on_c, 0, 79, 0
1, 163920, Note_on_c, 0, 67, 0
1, 163968, Note_on_c, 0, 88, 77
1, 163968, Note_on_c, 0, 60, 51
1, 164112, Note_on_c, 0, 60, 0
1, 164160, Note_on_c, 0, 67, 51
1, 164304, Note_on_c, 0, 67, 0
1, 164348, Note_on_c, 0, 88, 0
1, 164352, Note_on_c, 0, 86, 51
1, 164352, Note_on_c, 0, 59, 51
1, 164496, Note_on_c, 0, 86, 0
1, 164496, Note_on_c, 0, 59, 0
1, 164544, Note_on_c, 0, 79, 51
1, 164544, Note_on_c, 0, 67, 51
1, 164688, Note_on_c, 0, 79, 0
1, 164688, Note_on_c, 0, 67, 0
1, 164736, Note_on_c, 0, 84, 77
1, 164736, Note_on_c, 0, 64, 51
1, 164880, Note_on_c, 0, 64, 0
1, 164928, Note_on_c, 0, 67, 51
1, 165072, Note_on_c, 0, 67, 0
1, 165116, Note_on_c, 0, 84, 0
1, 165120, Note_on_c, 0, 83, 51
1, 165120, Note_on_c, 0, 62, 51
1, 165264, Note_on_c, 0, 83, 0
1, 165264, Note_on_c, 0, 62, 0
1, 165312, Note_on_c, 0, 79, 51
1, 165312, Note_on_c, 0, 67, 51
1, 165456, Note_on_c, 0, 79, 0
1, 165456, Note_on_c, 0, 67, 0
1, 165504, Note_on_c, 0, 88, 77
1, 165504, Note_on_c, 0, 60, 51
1, 165648, Note_on_c, 0, 60, 0
1, 165696, Note_on_c, 0, 67, 51
1, 165840, Note_on_c, 0, 67, 0
1, 165884, Note_on_c, 0, 88, 0
1, 165888, Note_on_c, 0, 89, 72
1, 165888, Note_on_c, 0, 77, 72
1, 165888, Note_on_c, 0, 68, 66
1, 165888, Note_on_c, 0, 62, 66
1, 165888, Note_on_c, 0, 59, 66
1, 166032, Note_on_c, 0, 68, 0
1, 166032, Note_on_c, 0, 62, 0
1, 166032, Note_on_c, 0, 59, 0
1, 166080, Note_on_c, 0, 68, 66
1, 166080, Note_on_c, 0, 62, 66
1, 166080, Note_on_c, 0, 59, 66
1, 166224, Note_on_c, 0, 68, 0
1, 166224, Note_on_c, 0, 62, 0
1, 166224, Note_on_c, 0, 59, 0
1, 166272, Note_on_c, 0, 68, 66
1, 166272, Note_on_c, 0, 62, 66
1, 166272, Note_on_c, 0, 59, 66
1, 166416, Note_on_c, 0, 68, 0
1, 166416, Note_on_c, 0, 62, 0
1, 166416, Note_on_c, 0, 59, 0
1, 166464, Note_on_c, 0, 68, 66
1, 166464, Note_on_c, 0, 62, 66
1, 166464, Note_on_c, 0, 59, 66
1, 166608, Note_on_c, 0, 68, 0
1, 166608, Note_on_c, 0, 62, 0
1, 166608, Note_on_c, 0, 59, 0
1, 166652, Note_on_c, 0, 89, 0
1, 166652, Note_on_c, 0, 77, 0
1, 166656, Note_on_c, 0, 89, 72
1, 166656, Note_on_c, 0, 77, 72
1, 166656, Note_on_c, 0, 68, 66
1, 166656, Note_on_c, 0, 62, 66
1, 166656, Note_on_c, 0, 59, 66
1, 166800, Note_on_c, 0, 68, 0
1, 166800, Note_on_c, 0, 62, 0
1, 166800, Note_on_c, 0, 59, 0
1, 166848, Note_on_c, 0, 68, 66
1, 166848, Note_on_c, 0, 62, 66
1, 166848, Note_on_c, 0, 59, 66
1, 166992, Note_on_c, 0, 68, 0
1, 166992, Note_on_c, 0, 62, 0
1, 166992, Note_on_c, 0, 59, 0
1, 167036, Note_on_c, 0, 89, 0
1, 167036, Note_on_c, 0, 77, 0
1, 167040, Note_on_c, 0, 89, 72
1, 167040, Note_on_c, 0, 77, 72
1, 167040, Note_on_c, 0, 68, 66
1, 167040, Note_on_c, 0, 62, 66
1, 167040, Note_on_c, 0, 59, 66
1, 167184, Note_on_c, 0, 68, 0
1, 167184, Note_on_c, 0, 62, 0
1, 167184, Note_on_c, 0, 59, 0
1, 167232, Note_on_c, 0, 68, 66
1, 167232, Note_on_c, 0, 62, 66
1, 167232, Note_on_c, 0, 59, 66
1, 167376, Note_on_c, 0, 68, 0
1, 167376, Note_on_c, 0, 62, 0
1, 167376, Note_on_c, 0, 59, 0
1, 167420, Note_on_c, 0, 89, 0
1, 167420, Note_on_c, 0, 77, 0
1, 167424, Note_on_c, 0, 88, 72
1, 167424, Note_on_c, 0, 76, 72
1, 167424, Note_on_c, 0, 68, 66
1, 167424, Note_on_c, 0, 62, 66
1, 167424, Note_on_c, 0, 59, 66
1, 167568, Note_on_c, 0, 88, 0
1, 167568, Note_on_c, 0, 76, 0
1, 167568, Note_on_c, 0, 68, 0
1, 167568, Note_on_c, 0, 62, 0
1, 167568, Note_on_c, 0, 59, 0
1, 167616, Note_on_c, 0, 86, 72
1, 167760, Note_on_c, 0, 86, 0
1, 167808, Note_on_c, 0, 84, 72
1, 167856, Note_on_c, 0, 84, 0
1, 167856, Note_on_c, 0, 86, 72
1, 167904, Note_on_c, 0, 86, 0
1, 167904, Note_on_c, 0, 84, 72
1, 167952, Note_on_c, 0, 84, 0
1, 167952, Note_on_c, 0, 86, 72
1, 168000, Note_on_c, 0, 86, 0
1, 168000, Note_on_c, 0, 83, 66
1, 168188, Note_on_c, 0, 83, 0
1, 168192, Note_on_c, 0, 81, 72
1, 168240, Note_on_c, 0, 81, 0
1, 168240, Note_on_c, 0, 83, 72
1, 168288, Note_on_c, 0, 83, 0
1, 168288, Note_on_c, 0, 81, 72
1, 168336, Note_on_c, 0, 81, 0
1, 168336, Note_on_c, 0, 83, 72
1, 168384, Note_on_c, 0, 83, 0
1, 168384, Note_on_c, 0, 79, 66
1, 168572, Note_on_c, 0, 79, 0
1, 168576, Note_on_c, 0, 78, 72
1, 168624, Note_on_c, 0, 78, 0
1, 168624, Note_on_c, 0, 79, 72
1, 168672, Note_on_c, 0, 79, 0
1, 168672, Note_on_c, 0, 78, 72
1, 168720, Note_on_c, 0, 78, 0
1, 168720, Note_on_c, 0, 79, 72
1, 168768, Note_on_c, 0, 79, 0
1, 168768, Note_on_c, 0, 76, 66
1, 168956, Note_on_c, 0, 76, 0
1, 168960, Note_on_c, 0, 74, 72
1, 168960, Note_on_c, 1, 50, 66
1, 169052, Note_on_c, 1, 50, 0
1, 169056, Note_on_c, 1, 59, 66
1, 169104, Note_on_c, 0, 74, 0
1, 169148, Note_on_c, 1, 59, 0
1, 169152, Note_on_c, 0, 76, 72
1, 169152, Note_on_c, 1, 55, 66
1, 169244, Note_on_c, 0, 76, 0
1, 169244, Note_on_c, 1, 55, 0
1, 169248, Note_on_c, 0, 78, 72
1, 169248, Note_on_c, 1, 59, 66
1, 169340, Note_on_c, 0, 78, 0
1, 169340, Note_on_c, 1, 59, 0
1, 169344, Note_on_c, 0, 79, 72
1, 169344, Note_on_c, 1, 50, 66
1, 169436, Note_on_c, 0, 79, 0
1, 169436, Note_on_c, 1, 50, 0
1, 169440, Note_on_c, 0, 81, 72
1, 169440, Note_on_c, 1, 59, 66
1, 169532, Note_on_c, 0, 81, 0
1, 169532, Note_on_c, 1, 59, 0
1, 169536, Note_on_c, 0, 83, 72
1, 169536, Note_on_c, 1, 55, 66
1, 169628, Note_on_c, 0, 83, 0
1, 169628, Note_on_c, 1, 55, 0
1, 169632, Note_on_c, 0, 84, 72
1, 169632, Note_on_c, 1, 59, 66
1, 169724, Note_on_c, 0, 84, 0
1, 169724, Note_on_c, 1, 59, 0
1, 169728, Note_on_c, 0, 86, 72
1, 169728, Note_on_c, 1, 50, 66
1, 169820, Note_on_c, 0, 86, 0
1, 169820, Note_on_c, 1, 50, 0
1, 169824, Note_on_c, 0, 84, 72
1, 169824, Note_on_c, 1, 59, 66
1, 169916, Note_on_c, 0, 84, 0
1, 169916, Note_on_c, 1, 59, 0
1, 169920, Note_on_c, 0, 83, 72
1, 169920, Note_on_c, 1, 55, 66
1, 170012, Note_on_c, 0, 83, 0
1, 170012, Note_on_c, 1, 55, 0
1, 170016, Note_on_c, 0, 84, 72
1, 170016, Note_on_c, 1, 59, 66
1, 170108, Note_on_c, 0, 84, 0
1, 170108, Note_on_c, 1, 59, 0
1, 170112, Note_on_c, 0, 86, 72
1, 170112, Note_on_c, 1, 50, 66
1, 170204, Note_on_c, 0, 86, 0
1, 170204, Note_on_c, 1, 50, 0
1, 170208, Note_on_c, 0, 83, 72
1, 170208, Note_on_c, 1, 59, 66
1, 170300, Note_on_c, 0, 83, 0
1, 170300, Note_on_c, 1, 59, 0
1, 170304, Note_on_c, 0, 81, 72
1, 170304, Note_on_c, 1, 55, 66
1, 170396, Note_on_c, 0, 81, 0
1, 170396, Note_on_c, 1, 55, 0
1, 170400, Note_on_c, 0, 79, 72
1, 170400, Note_on_c, 1, 59, 66
1, 170492, Note_on_c, 0, 79, 0
1, 170492, Note_on_c, 1, 59, 0
1, 170496, Note_on_c, 0, 81, 66
1, 170496, Note_on_c, 1, 50, 61
1, 170540, Note_on_c, 0, 81, 0
1, 170544, Note_on_c, 0, 83, 66
1, 170588, Note_on_c, 0, 83, 0
1, 170588, Note_on_c, 1, 50, 0
1, 170592, Note_on_c, 0, 81, 66
1, 170592, Note_on_c, 1, 60, 61
1, 170636, Note_on_c, 0, 81, 0
1, 170640, Note_on_c, 0, 83, 66
1, 170684, Note_on_c, 0, 83, 0
1, 170684, Note_on_c, 1, 60, 0
1, 170688, Note_on_c, 0, 81, 66
1, 170688, Note_on_c, 1, 53, 61
1, 170732, Note_on_c, 0, 81, 0
1, 170736, Note_on_c, 0, 83, 66
1, 170780, Note_on_c, 0, 83, 0
1, 170780, Note_on_c, 1, 53, 0
1, 170784, Note_on_c, 0, 81, 66
1, 170784, Note_on_c, 1, 60, 61
1, 170828, Note_on_c, 0, 81, 0
1, 170832, Note_on_c, 0, 83, 66
1, 170876, Note_on_c, 0, 83, 0
1, 170876, Note_on_c, 1, 60, 0
1, 170880, Note_on_c, 0, 81, 66
1, 170880, Note_on_c, 1, 50, 61
1, 170924, Note_on_c, 0, 81, 0
1, 170928, Note_on_c, 0, 83, 66
1, 170972, Note_on_c, 0, 83, 0
1, 170972, Note_on_c, 1, 50, 0
1, 170976, Note_on_c, 0, 81, 66
1, 170976, Note_on_c, 1, 60, 61
1, 171020, Note_on_c, 0, 81, 0
1, 171024, Note_on_c, 0, 83, 66
1, 171068, Note_on_c, 0, 83, 0
1, 171068, Note_on_c, 1, 60, 0
1, 171072, Note_on_c, 0, 81, 66
1, 171072, Note_on_c, 1, 53, 61
1, 171116, Note_on_c, 0, 81, 0
1, 171120, Note_on_c, 0, 83, 66
1, 171164, Note_on_c, 0, 83, 0
1, 171164, Note_on_c, 1, 53, 0
1, 171168, Note_on_c, 0, 81, 66
1, 171168, Note_on_c, 1, 60, 61
1, 171212, Note_on_c, 0, 81, 0
1, 171216, Note_on_c, 0, 83, 66
1, 171260, Note_on_c, 0, 83, 0
1, 171260, Note_on_c, 1, 60, 0
1, 171264, Note_on_c, 0, 81, 66
1, 171264, Note_on_c, 1, 50, 61
1, 171308, Note_on_c, 0, 81, 0
1, 171312, Note_on_c, 0, 83, 66
1, 171356, Note_on_c, 0, 83, 0
1, 171356, Note_on_c, 1, 50, 0
1, 171360, Note_on_c, 0, 81, 66
1, 171360, Note_on_c, 1, 60, 61
1, 171404, Note_on_c, 0, 81, 0
1, 171408, Note_on_c, 0, 83, 66
1, 171452, Note_on_c, 0, 83, 0
1, 171452, Note_on_c, 1, 60, 0
1, 171456, Note_on_c, 0, 81, 66
1, 171456, Note_on_c, 1, 53, 61
1, 171500, Note_on_c, 0, 81, 0
1, 171504, Note_on_c, 0, 83, 66
1, 171548, Note_on_c, 0, 83, 0
1, 171548, Note_on_c, 1, 53, 0
1, 171552, Note_on_c, 0, 81, 66
1, 171552, Note_on_c, 1, 60, 61
1, 171596, Note_on_c, 0, 81, 0
1, 171600, Note_on_c, 0, 83, 66
1, 171644, Note_on_c, 0, 83, 0
1, 171644, Note_on_c, 1, 60, 0
1, 171648, Note_on_c, 0, 81, 66
1, 171648, Note_on_c, 1, 50, 61
1, 171692, Note_on_c, 0, 81, 0
1, 171696, Note_on_c, 0, 83, 66
1, 171740, Note_on_c, 0, 83, 0
1, 171740, Note_on_c, 1, 50, 0
1, 171744, Note_on_c, 0, 81, 66
1, 171744, Note_on_c, 1, 60, 61
1, 171788, Note_on_c, 0, 81, 0
1, 171792, Note_on_c, 0, 83, 66
1, 171836, Note_on_c, 0, 83, 0
1, 171836, Note_on_c, 1, 60, 0
1, 171840, Note_on_c, 0, 79, 66
1, 171840, Note_on_c, 1, 53, 61
1, 171932, Note_on_c, 0, 79, 0
1, 171932, Note_on_c, 1, 53, 0
1, 171936, Note_on_c, 0, 81, 66
1, 171936, Note_on_c, 1, 60, 61
1, 172028, Note_on_c, 0, 81, 0
1, 172028, Note_on_c, 1, 60, 0
1, 172032, Note_on_c, 0, 79, 66
1, 172032, Note_on_c, 1, 59, 51
1, 172032, Note_on_c, 1, 55, 51
1, 172412, Note_on_c, 0, 79, 0
1, 172412, Note_on_c, 1, 59, 0
1, 172412, Note_on_c, 1, 55, 0
1, 172416, Note_on_c, 0, 67, 51
1, 172560, Note_on_c, 0, 71, 51
1, 172704, Note_on_c, 0, 71, 0
1, 172796, Note_on_c, 0, 67, 0
1, 172800, Note_on_c, 0, 74, 51
1, 172800, Note_on_c, 0, 69, 51
1, 172944, Note_on_c, 0, 74, 0
1, 172992, Note_on_c, 0, 72, 51
1, 173136, Note_on_c, 0, 72, 0
1, 173180, Note_on_c, 0, 69, 0
1, 173184, Note_on_c, 0, 66, 51
1, 173376, Note_on_c, 0, 69, 51
1, 173520, Note_on_c, 0, 69, 0
1, 173564, Note_on_c, 0, 66, 0
1, 173568, Note_on_c, 0, 72, 51
1, 173568, Note_on_c, 0, 67, 51
1, 173712, Note_on_c, 0, 72, 0
1, 173760, Note_on_c, 0, 71, 51
1, 173904, Note_on_c, 0, 71, 0
1, 173948, Note_on_c, 0, 67, 0
1, 173952, Note_on_c, 0, 64, 51
1, 174144, Note_on_c, 0, 67, 51
1, 174288, Note_on_c, 0, 67, 0
1, 174332, Note_on_c, 0, 64, 0
1, 174336, Note_on_c, 0, 71, 51
1, 174336, Note_on_c, 0, 60, 51
1, 174480, Note_on_c, 0, 71, 0
1, 174528, Note_on_c, 0, 69, 51
1, 174672, Note_on_c, 0, 69, 0
1, 174716, Note_on_c, 0, 60, 0
1, 174720, Note_on_c, 0, 62, 51
1, 174912, Note_on_c, 0, 66, 51
1, 175056, Note_on_c, 0, 66, 0
1, 175100, Note_on_c, 0, 62, 0
1, 175104, Note_on_c, 0, 69, 51
1, 175104, Note_on_c, 0, 59, 51
1, 175248, Note_on_c, 0, 69, 0
1, 175296, Note_on_c, 0, 67, 51
1, 175440, Note_on_c, 0, 67, 0
1, 175484, Note_on_c, 0, 59, 0
1, 175488, Note_on_c, 0, 71, 72
1, 175488, Note_on_c, 1, 43, 77
1, 175488, Note_on_c, 1, 55, 77
1, 175580, Note_on_c, 0, 71, 0
1, 175584, Note_on_c, 0, 72, 72
1, 175676, Note_on_c, 0, 72, 0
1, 175680, Note_on_c, 0, 74, 72
1, 175772, Note_on_c, 0, 74, 0
1, 175776, Note_on_c, 0, 71, 72
1, 175868, Note_on_c, 0, 71, 0
1, 175868, Note_on_c, 1, 43, 0
1, 175868, Note_on_c, 1, 55, 0
1, 175872, Note_on_c, 0, 72, 72
1, 175872, Note_on_c, 1, 57, 77
1, 175872, Note_on_c, 1, 45, 77
1, 175964, Note_on_c, 0, 72, 0
1, 175968, Note_on_c, 0, 74, 72
1, 176060, Note_on_c, 0, 74, 0
1, 176064, Note_on_c, 0, 76, 72
1, 176156, Note_on_c, 0, 76, 0
1, 176160, Note_on_c, 0, 72, 72
1, 176252, Note_on_c, 0, 72, 0
1, 176252, Note_on_c, 1, 57, 0
1, 176252, Note_on_c, 1, 45, 0
1, 176256, Note_on_c, 0, 81, 72
1, 176256, Note_on_c, 1, 42, 77
1, 176256, Note_on_c, 1, 54, 77
1, 176348, Note_on_c, 0, 81, 0
1, 176352, Note_on_c, 0, 83, 72
1, 176444, Note_on_c, 0, 83, 0
1, 176448, Note_on_c, 0, 84, 72
1, 176540, Note_on_c, 0, 84, 0
1, 176544, Note_on_c, 0, 81, 72
1, 176636, Note_on_c, 0, 81, 0
1, 176636, Note_on_c, 1, 42, 0
1, 176636, Note_on_c, 1, 54, 0
1, 176640, Note_on_c, 0, 83, 72
1, 176640, Note_on_c, 1, 55, 77
1, 176640, Note_on_c, 1, 43, 77
1, 176732, Note_on_c, 0, 83, 0
1, 176736, Note_on_c, 0, 84, 72
1, 176828, Note_on_c, 0, 84, 0
1, 176832, Note_on_c, 0, 86, 72
1, 176924, Note_on_c, 0, 86, 0
1, 176928, Note_on_c, 0, 83, 72
1, 177020, Note_on_c, 0, 83, 0
1, 177020, Note_on_c, 1, 55, 0
1, 177020, Note_on_c, 1, 43, 0
1, 177024, Note_on_c, 0, 67, 72
1, 177024, Note_on_c, 1, 52, 77
1, 177024, Note_on_c, 1, 40, 77
1, 177116, Note_on_c, 0, 67, 0
1, 177120, Note_on_c, 0, 69, 72
1, 177212, Note_on_c, 0, 69, 0
1, 177216, Note_on_c, 0, 71, 72
1, 177308, Note_on_c, 0, 71, 0
1, 177312, Note_on_c, 0, 67, 72
1, 177404, Note_on_c, 0, 67, 0
1, 177404, Note_on_c, 1, 52, 0
1, 177404, Note_on_c, 1, 40, 0
1, 177408, Note_on_c, 0, 69, 72
1, 177408, Note_on_c, 1, 48, 77
1, 177408, Note_on_c, 1, 36, 77
1, 177500, Note_on_c, 0, 69, 0
1, 177504, Note_on_c, 0, 71, 72
1, 177596, Note_on_c, 0, 71, 0
1, 177600, Note_on_c, 0, 72, 72
1, 177692, Note_on_c, 0, 72, 0
1, 177696, Note_on_c, 0, 69, 72
1, 177788, Note_on_c, 0, 69, 0
1, 177788, Note_on_c, 1, 48, 0
1, 177788, Note_on_c, 1, 36, 0
1, 177792, Note_on_c, 0, 78, 72
1, 177792, Note_on_c, 1, 50, 77
1, 177792, Note_on_c, 1, 38, 77
1, 177884, Note_on_c, 0, 78, 0
1, 177888, Note_on_c, 0, 79, 72
1, 177980, Note_on_c, 0, 79, 0
1, 177984, Note_on_c, 0, 81, 72
1, 178076, Note_on_c, 0, 81, 0
1, 178080, Note_on_c, 0, 78, 72
1, 178172, Note_on_c, 0, 78, 0
1, 178172, Note_on_c, 1, 50, 0
1, 178172, Note_on_c, 1, 38, 0
1, 178176, Note_on_c, 0, 79, 77
1, 178176, Note_on_c, 1, 43, 77
1, 178556, Note_on_c, 0, 79, 0
1, 178556, Note_on_c, 1, 43, 0
1, 178560, Note_on_c, 0, 74, 77
1, 178560, Note_on_c, 1, 55, 77
1, 178560, Note_on_c, 1, 43, 77
1, 178576, Note_on_c, 0, 79, 77
1, 178596, Note_on_c, 0, 83, 77
1, 178940, Note_on_c, 0, 74, 0
1, 178940, Note_on_c, 1, 55, 0
1, 178940, Note_on_c, 1, 43, 0
1, 178944, Note_on_c, 0, 71, 77
1, 178944, Note_on_c, 1, 55, 77
1, 178944, Note_on_c, 1, 43, 77
1, 178956, Note_on_c, 0, 79, 0
1, 178960, Note_on_c, 0, 74, 77
1, 178976, Note_on_c, 0, 83, 0
1, 178980, Note_on_c, 0, 79, 77
1, 179324, Note_on_c, 0, 71, 0
1, 179324, Note_on_c, 1, 55, 0
1, 179324, Note_on_c, 1, 43, 0
1, 179340, Note_on_c, 0, 74, 0
1, 179360, Note_on_c, 0, 79, 0
1, 179712, Note_on_c, 0, 55, 72
1, 179760, Note_on_c, 0, 55, 0
1, 179760, Note_on_c, 0, 58, 72
1, 179808, Note_on_c, 0, 58, 0
1, 179808, Note_on_c, 0, 62, 72
1, 179856, Note_on_c, 0, 62, 0
1, 179856, Note_on_c, 0, 67, 72
1, 179856, Note_on_c, 1, 43, 72
1, 179856, Note_on_c, 1, 31, 72
1, 180460, Note_on_c, 0, 67, 0
1, 180480, Note_on_c, 0, 62, 72
1, 180480, Note_on_c, 1, 38, 72
1, 180620, Note_on_c, 1, 43, 0
1, 180620, Note_on_c, 1, 31, 0
1, 181244, Note_on_c, 0, 62, 0
1, 181244, Note_on_c, 1, 38, 0
1, 181248, Note_on_c, 0, 70, 72
1, 181248, Note_on_c, 1, 46, 72
1, 181820, Note_on_c, 0, 70, 0
1, 181820, Note_on_c, 1, 46, 0
1, 181824, Note_on_c, 0, 72, 72
1, 181824, Note_on_c, 1, 48, 72
1, 181916, Note_on_c, 0, 72, 0
1, 181916, Note_on_c, 1, 48, 0
1, 181920, Note_on_c, 0, 69, 72
1, 181920, Note_on_c, 1, 45, 72
1, 182012, Note_on_c, 0, 69, 0
1, 182012, Note_on_c, 1, 45, 0
1, 182016, Note_on_c, 0, 67, 72
1, 182016, Note_on_c, 1, 43, 72
1, 182396, Note_on_c, 0, 67, 0
1, 182396, Note_on_c, 1, 43, 0
1, 182784, Note_on_c, 0, 74, 51
1, 182784, Note_on_c, 0, 70, 51
1, 183356, Note_on_c, 0, 74, 0
1, 183356, Note_on_c, 0, 70, 0
1, 183360, Note_on_c, 0, 75, 51
1, 183360, Note_on_c, 0, 72, 51
1, 183452, Note_on_c, 0, 75, 0
1, 183452, Note_on_c, 0, 72, 0
1, 183456, Note_on_c, 0, 72, 51
1, 183456, Note_on_c, 0, 69, 51
1, 183548, Note_on_c, 0, 72, 0
1, 183548, Note_on_c, 0, 69, 0
1, 183552, Note_on_c, 0, 70, 51
1, 183552, Note_on_c, 0, 67, 51
1, 183932, Note_on_c, 0, 70, 0
1, 183932, Note_on_c, 0, 67, 0
1, 184320, Note_on_c, 0, 82, 41
1, 184320, Note_on_c, 0, 74, 41
1, 184892, Note_on_c, 0, 82, 0
1, 184892, Note_on_c, 0, 74, 0
1, 184896, Note_on_c, 0, 84, 41
1, 184896, Note_on_c, 0, 75, 41
1, 184988, Note_on_c, 0, 84, 0
1, 184988, Note_on_c, 0, 75, 0
1, 184992, Note_on_c, 0, 81, 41
1, 184992, Note_on_c, 0, 72, 41
1, 185084, Note_on_c, 0, 81, 0
1, 185084, Note_on_c, 0, 72, 0
1, 185088, Note_on_c, 0, 79, 41
1, 185088, Note_on_c, 0, 70, 41
1, 185468, Note_on_c, 0, 79, 0
1, 185468, Note_on_c, 0, 70, 0
1, 185856, Note_on_c, 0, 62, 51
1, 185856, Note_on_c, 0, 58, 51
1, 186000, Note_on_c, 0, 62, 0
1, 186000, Note_on_c, 0, 58, 0
1, 186048, Note_on_c, 0, 67, 51
1, 186192, Note_on_c, 0, 67, 0
1, 186240, Note_on_c, 0, 79, 51
1, 186240, Note_on_c, 0, 62, 51
1, 186240, Note_on_c, 0, 58, 51
1, 186384, Note_on_c, 0, 62, 0
1, 186384, Note_on_c, 0, 58, 0
1, 186432, Note_on_c, 0, 67, 51
1, 186576, Note_on_c, 0, 67, 0
1, 186620, Note_on_c, 0, 79, 0
1, 186624, Note_on_c, 0, 86, 51
1, 186624, Note_on_c, 0, 62, 51
1, 186624, Note_on_c, 0, 58, 51
1, 186768, Note_on_c, 0, 62, 0
1, 186768, Note_on_c, 0, 58, 0
1, 186816, Note_on_c, 0, 67, 51
1, 186960, Note_on_c, 0, 67, 0
1, 187004, Note_on_c, 0, 86, 0
1, 187008, Note_on_c, 0, 62, 51
1, 187008, Note_on_c, 0, 58, 51
1, 187008, Note_on_c, 0, 88, 51
1, 187152, Note_on_c, 0, 62, 0
1, 187152, Note_on_c, 0, 58, 0
1, 187200, Note_on_c, 0, 67, 51
1, 187344, Note_on_c, 0, 67, 0
1, 187388, Note_on_c, 0, 88, 0
1, 187392, Note_on_c, 0, 86, 51
1, 187392, Note_on_c, 0, 64, 51
1, 187392, Note_on_c, 0, 57, 51
1, 187536, Note_on_c, 0, 64, 0
1, 187536, Note_on_c, 0, 57, 0
1, 187584, Note_on_c, 0, 67, 51
1, 187728, Note_on_c, 0, 67, 0
1, 187776, Note_on_c, 0, 64, 51
1, 187776, Note_on_c, 0, 57, 51
1, 187920, Note_on_c, 0, 86, 0
1, 187920, Note_on_c, 0, 64, 0
1, 187920, Note_on_c, 0, 57, 0
1, 187968, Note_on_c, 0, 67, 51
1, 188112, Note_on_c, 0, 67, 0
1, 188160, Note_on_c, 0, 85, 51
1, 188160, Note_on_c, 0, 64, 51
1, 188160, Note_on_c, 0, 57, 51
1, 188304, Note_on_c, 0, 64, 0
1, 188304, Note_on_c, 0, 57, 0
1, 188352, Note_on_c, 0, 67, 51
1, 188496, Note_on_c, 0, 67, 0
1, 188540, Note_on_c, 0, 85, 0
1, 188544, Note_on_c, 0, 64, 51
1, 188544, Note_on_c, 0, 57, 51
1, 188688, Note_on_c, 0, 64, 0
1, 188688, Note_on_c, 0, 57, 0
1, 188736, Note_on_c, 0, 67, 51
1, 188880, Note_on_c, 0, 67, 0
1, 188928, Note_on_c, 0, 62, 51
1, 188928, Note_on_c, 0, 58, 51
1, 189072, Note_on_c, 0, 62, 0
1, 189072, Note_on_c, 0, 58, 0
1, 189120, Note_on_c, 0, 67, 51
1, 189216, Note_on_c, 0, 79, 51
1, 189264, Note_on_c, 0, 67, 0
1, 189308, Note_on_c, 0, 79, 0
1, 189312, Note_on_c, 0, 62, 51
1, 189312, Note_on_c, 0, 58, 51
1, 189312, Note_on_c, 0, 79, 51
1, 189356, Note_on_c, 0, 79, 0
1, 189360, Note_on_c, 0, 81, 51
1, 189404, Note_on_c, 0, 81, 0
1, 189408, Note_on_c, 0, 79, 51
1, 189452, Note_on_c, 0, 79, 0
1, 189456, Note_on_c, 0, 62, 0
1, 189456, Note_on_c, 0, 58, 0
1, 189456, Note_on_c, 0, 81, 51
1, 189500, Note_on_c, 0, 81, 0
1, 189504, Note_on_c, 0, 78, 51
1, 189504, Note_on_c, 0, 67, 51
1, 189548, Note_on_c, 0, 78, 0
1, 189600, Note_on_c, 0, 79, 51
1, 189644, Note_on_c, 0, 79, 0
1, 189648, Note_on_c, 0, 67, 0
1, 189696, Note_on_c, 0, 86, 51
1, 189696, Note_on_c, 0, 62, 51
1, 189696, Note_on_c, 0, 58, 51
1, 189840, Note_on_c, 0, 62, 0
1, 189840, Note_on_c, 0, 58, 0
1, 189888, Note_on_c, 0, 67, 51
1, 190032, Note_on_c, 0, 67, 0
1, 190076, Note_on_c, 0, 86, 0
1, 190080, Note_on_c, 0, 88, 51
1, 190080, Note_on_c, 0, 62, 51
1, 190080, Note_on_c, 0, 58, 51
1, 190224, Note_on_c, 0, 62, 0
1, 190224, Note_on_c, 0, 58, 0
1, 190272, Note_on_c, 0, 67, 51
1, 190416, Note_on_c, 0, 67, 0
1, 190460, Note_on_c, 0, 88, 0
1, 190464, Note_on_c, 0, 86, 51
1, 190464, Note_on_c, 0, 64, 51
1, 190464, Note_on_c, 0, 57, 51
1, 190608, Note_on_c, 0, 64, 0
1, 190608, Note_on_c, 0, 57, 0
1, 190656, Note_on_c, 0, 67, 51
1, 190800, Note_on_c, 0, 67, 0
1, 190848, Note_on_c, 0, 64, 51
1, 190848, Note_on_c, 0, 57, 51
1, 190992, Note_on_c, 0, 64, 0
1, 190992, Note_on_c, 0, 57, 0
1, 191040, Note_on_c, 0, 67, 51
1, 191184, Note_on_c, 0, 67, 0
1, 191228, Note_on_c, 0, 86, 0
1, 191232, Note_on_c, 0, 85, 51
1, 191232, Note_on_c, 0, 64, 51
1, 191232, Note_on_c, 0, 57, 51
1, 191376, Note_on_c, 0, 64, 0
1, 191376, Note_on_c, 0, 57, 0
1, 191424, Note_on_c, 0, 67, 51
1, 191568, Note_on_c, 0, 67, 0
1, 191612, Note_on_c, 0, 85, 0
1, 191616, Note_on_c, 0, 64, 51
1, 191616, Note_on_c, 0, 57, 51
1, 191760, Note_on_c, 0, 64, 0
1, 191760, Note_on_c, 0, 57, 0
1, 191808, Note_on_c, 0, 67, 51
1, 191952, Note_on_c, 0, 67, 0
1, 192000, Note_on_c, 1, 50, 72
1, 192044, Note_on_c, 1, 50, 0
1, 192048, Note_on_c, 1, 53, 72
1, 192092, Note_on_c, 1, 53, 0
1, 192096, Note_on_c, 1, 57, 72
1, 192140, Note_on_c, 1, 57, 0
1, 192144, Note_on_c, 1, 38, 72
1, 192144, Note_on_c, 1, 62, 72
1, 192144, Note_on_c, 1, 50, 72
1, 192748, Note_on_c, 1, 38, 0
1, 192748, Note_on_c, 1, 62, 0
1, 192748, Note_on_c, 1, 50, 0
1, 192768, Note_on_c, 1, 45, 72
1, 192768, Note_on_c, 1, 57, 72
1, 193532, Note_on_c, 1, 45, 0
1, 193532, Note_on_c, 1, 57, 0
1, 193536, Note_on_c, 0, 65, 72
1, 193536, Note_on_c, 1, 53, 72
1, 194108, Note_on_c, 0, 65, 0
1, 194108, Note_on_c, 1, 53, 0
1, 194112, Note_on_c, 0, 67, 72
1, 194112, Note_on_c, 1, 55, 72
1, 194204, Note_on_c, 0, 67, 0
1, 194204, Note_on_c, 1, 55, 0
1, 194208, Note_on_c, 0, 64, 72
1, 194208, Note_on_c, 1, 52, 72
1, 194300, Note_on_c, 0, 64, 0
1, 194300, Note_on_c, 1, 52, 0
1, 194304, Note_on_c, 0, 62, 72
1, 194304, Note_on_c, 1, 50, 72
1, 194684, Note_on_c, 1, 50, 0
1, 195068, Note_on_c, 0, 62, 0
1, 195072, Note_on_c, 1, 57, 51
1, 195072, Note_on_c, 1, 53, 51
1, 195216, Note_on_c, 1, 57, 0
1, 195264, Note_on_c, 1, 62, 51
1, 195360, Note_on_c, 0, 74, 51
1, 195408, Note_on_c, 1, 62, 0
1, 195452, Note_on_c, 0, 74, 0
1, 195452, Note_on_c, 1, 53, 0
1, 195456, Note_on_c, 0, 76, 51
1, 195456, Note_on_c, 1, 57, 51
1, 195456, Note_on_c, 1, 53, 51
1, 195500, Note_on_c, 0, 76, 0
1, 195504, Note_on_c, 0, 74, 51
1, 195548, Note_on_c, 0, 74, 0
1, 195552, Note_on_c, 0, 73, 51
1, 195596, Note_on_c, 0, 73, 0
1, 195600, Note_on_c, 0, 74, 51
1, 195600, Note_on_c, 1, 57, 0
1, 195644, Note_on_c, 0, 74, 0
1, 195648, Note_on_c, 0, 73, 51
1, 195648, Note_on_c, 1, 62, 51
1, 195740, Note_on_c, 0, 73, 0
1, 195744, Note_on_c, 0, 74, 51
1, 195792, Note_on_c, 1, 62, 0
1, 195836, Note_on_c, 0, 74, 0
1, 195836, Note_on_c, 1, 53, 0
1, 195840, Note_on_c, 0, 81, 51
1, 195840, Note_on_c, 1, 57, 51
1, 195840, Note_on_c, 1, 53, 51
1, 195984, Note_on_c, 1, 57, 0
1, 196032, Note_on_c, 1, 62, 51
1, 196176, Note_on_c, 1, 62, 0
1, 196220, Note_on_c, 0, 81, 0
1, 196220, Note_on_c, 1, 53, 0
1, 196224, Note_on_c, 0, 83, 51
1, 196224, Note_on_c, 1, 57, 51
1, 196224, Note_on_c, 1, 53, 51
1, 196368, Note_on_c, 1, 57, 0
1, 196416, Note_on_c, 1, 62, 51
1, 196560, Note_on_c, 1, 62, 0
1, 196604, Note_on_c, 0, 83, 0
1, 196604, Note_on_c, 1, 53, 0
1, 196608, Note_on_c, 0, 81, 51
1, 196608, Note_on_c, 1, 59, 51
1, 196608, Note_on_c, 1, 52, 51
1, 196752, Note_on_c, 1, 59, 0
1, 196800, Note_on_c, 1, 62, 51
1, 196944, Note_on_c, 1, 62, 0
1, 196988, Note_on_c, 1, 52, 0
1, 196992, Note_on_c, 1, 59, 51
1, 196992, Note_on_c, 1, 52, 51
1, 197136, Note_on_c, 1, 59, 0
1, 197184, Note_on_c, 1, 62, 51
1, 197328, Note_on_c, 1, 62, 0
1, 197372, Note_on_c, 0, 81, 0
1, 197372, Note_on_c, 1, 52, 0
1, 197376, Note_on_c, 0, 80, 51
1, 197376, Note_on_c, 1, 59, 51
1, 197376, Note_on_c, 1, 52, 51
1, 197520, Note_on_c, 1, 59, 0
1, 197568, Note_on_c, 1, 62, 51
1, 197712, Note_on_c, 1, 62, 0
1, 197756, Note_on_c, 0, 80, 0
1, 197756, Note_on_c, 1, 52, 0
1, 197760, Note_on_c, 1, 59, 51
1, 197760, Note_on_c, 1, 52, 51
1, 197904, Note_on_c, 1, 59, 0
1, 197952, Note_on_c, 1, 62, 51
1, 198096, Note_on_c, 1, 62, 0
1, 198140, Note_on_c, 1, 52, 0
1, 198144, Note_on_c, 1, 57, 51
1, 198144, Note_on_c, 1, 53, 51
1, 198160, Note_on_c, 1, 53, 51
1, 198288, Note_on_c, 1, 57, 0
1, 198336, Note_on_c, 0, 81, 51
1, 198336, Note_on_c, 1, 62, 51
1, 198480, Note_on_c, 0, 81, 0
1, 198480, Note_on_c, 1, 62, 0
1, 198524, Note_on_c, 1, 53, 0
1, 198528, Note_on_c, 0, 86, 51
1, 198528, Note_on_c, 1, 57, 51
1, 198528, Note_on_c, 1, 53, 51
1, 198540, Note_on_c, 1, 53, 0
1, 198672, Note_on_c, 0, 86, 0
1, 198672, Note_on_c, 1, 57, 0
1, 198720, Note_on_c, 0, 85, 51
1, 198720, Note_on_c, 1, 62, 51
1, 198864, Note_on_c, 0, 85, 0
1, 198864, Note_on_c, 1, 62, 0
1, 198908, Note_on_c, 1, 53, 0
1, 198912, Note_on_c, 0, 88, 51
1, 198912, Note_on_c, 1, 57, 51
1, 198912, Note_on_c, 1, 53, 51
1, 199056, Note_on_c, 0, 88, 0
1, 199056, Note_on_c, 1, 57, 0
1, 199104, Note_on_c, 0, 86, 51
1, 199104, Note_on_c, 1, 62, 51
1, 199248, Note_on_c, 0, 86, 0
1, 199248, Note_on_c, 1, 62, 0
1, 199292, Note_on_c, 1, 53, 0
1, 199296, Note_on_c, 0, 84, 51
1, 199296, Note_on_c, 1, 57, 51
1, 199296, Note_on_c, 1, 53, 51
1, 199440, Note_on_c, 0, 84, 0
1, 199440, Note_on_c, 1, 57, 0
1, 199488, Note_on_c, 0, 83, 51
1, 199488, Note_on_c, 1, 62, 51
1, 199632, Note_on_c, 0, 83, 0
1, 199632, Note_on_c, 1, 62, 0
1, 199676, Note_on_c, 1, 53, 0
1, 199680, Note_on_c, 0, 81, 51
1, 199680, Note_on_c, 1, 59, 51
1, 199680, Note_on_c, 1, 52, 51
1, 199824, Note_on_c, 1, 59, 0
1, 199872, Note_on_c, 1, 62, 51
1, 200016, Note_on_c, 1, 62, 0
1, 200060, Note_on_c, 1, 52, 0
1, 200064, Note_on_c, 1, 59, 51
1, 200064, Note_on_c, 1, 52, 51
1, 200208, Note_on_c, 1, 59, 0
1, 200256, Note_on_c, 1, 62, 51
1, 200352, Note_on_c, 0, 81, 0
1, 200352, Note_on_c, 0, 83, 51
1, 200400, Note_on_c, 0, 83, 0
1, 200400, Note_on_c, 0, 81, 51
1, 200400, Note_on_c, 1, 62, 0
1, 200444, Note_on_c, 1, 52, 0
1, 200448, Note_on_c, 0, 81, 0
1, 200448, Note_on_c, 0, 80, 51
1, 200448, Note_on_c, 1, 59, 51
1, 200448, Note_on_c, 1, 52, 51
1, 200592, Note_on_c, 1, 59, 0
1, 200640, Note_on_c, 1, 62, 51
1, 200784, Note_on_c, 1, 62, 0
1, 200828, Note_on_c, 0, 80, 0
1, 200828, Note_on_c, 1, 52, 0
1, 200832, Note_on_c, 1, 59, 51
1, 200832, Note_on_c, 1, 52, 51
1, 200976, Note_on_c, 1, 59, 0
1, 201024, Note_on_c, 1, 62, 51
1, 201168, Note_on_c, 1, 62, 0
1, 201212, Note_on_c, 1, 52, 0
1, 201216, Note_on_c, 0, 84, 51
1, 201216, Note_on_c, 0, 72, 51
1, 201216, Note_on_c, 1, 57, 72
1, 201308, Note_on_c, 1, 57, 0
1, 201312, Note_on_c, 1, 64, 72
1, 201404, Note_on_c, 1, 64, 0
1, 201408, Note_on_c, 1, 60, 72
1, 201500, Note_on_c, 1, 60, 0
1, 201504, Note_on_c, 1, 64, 72
1, 201596, Note_on_c, 1, 64, 0
1, 201600, Note_on_c, 1, 57, 72
1, 201692, Note_on_c, 1, 57, 0
1, 201696, Note_on_c, 1, 64, 72
1, 201788, Note_on_c, 1, 64, 0
1, 201792, Note_on_c, 1, 60, 72
1, 201884, Note_on_c, 1, 60, 0
1, 201888, Note_on_c, 1, 64, 72
1, 201980, Note_on_c, 0, 84, 0
1, 201980, Note_on_c, 0, 72, 0
1, 201980, Note_on_c, 1, 64, 0
1, 201984, Note_on_c, 0, 81, 51
1, 201984, Note_on_c, 0, 69, 51
1, 201984, Note_on_c, 1, 57, 72
1, 202076, Note_on_c, 1, 57, 0
1, 202080, Note_on_c, 1, 64, 72
1, 202172, Note_on_c, 1, 64, 0
1, 202176, Note_on_c, 1, 60, 72
1, 202268, Note_on_c, 1, 60, 0
1, 202272, Note_on_c, 1, 64, 72
1, 202364, Note_on_c, 1, 64, 0
1, 202368, Note_on_c, 1, 57, 72
1, 202460, Note_on_c, 1, 57, 0
1, 202464, Note_on_c, 1, 64, 72
1, 202556, Note_on_c, 1, 64, 0
1, 202560, Note_on_c, 1, 60, 72
1, 202652, Note_on_c, 1, 60, 0
1, 202656, Note_on_c, 1, 64, 72
1, 202748, Note_on_c, 0, 81, 0
1, 202748, Note_on_c, 0, 69, 0
1, 202748, Note_on_c, 1, 64, 0
1, 202752, Note_on_c, 0, 87, 51
1, 202752, Note_on_c, 1, 57, 72
1, 202844, Note_on_c, 1, 57, 0
1, 202848, Note_on_c, 1, 66, 72
1, 202940, Note_on_c, 1, 66, 0
1, 202944, Note_on_c, 1, 60, 72
1, 203036, Note_on_c, 1, 60, 0
1, 203040, Note_on_c, 1, 66, 72
1, 203132, Note_on_c, 1, 66, 0
1, 203136, Note_on_c, 1, 57, 72
1, 203228, Note_on_c, 1, 57, 0
1, 203232, Note_on_c, 1, 66, 72
1, 203324, Note_on_c, 0, 87, 0
1, 203324, Note_on_c, 1, 66, 0
1, 203328, Note_on_c, 0, 88, 51
1, 203328, Note_on_c, 1, 60, 72
1, 203420, Note_on_c, 0, 88, 0
1, 203420, Note_on_c, 1, 60, 0
1, 203424, Note_on_c, 0, 87, 51
1, 203424, Note_on_c, 1, 66, 72
1, 203516, Note_on_c, 0, 87, 0
1, 203516, Note_on_c, 1, 66, 0
1, 203520, Note_on_c, 0, 88, 51
1, 203520, Note_on_c, 1, 57, 72
1, 203612, Note_on_c, 1, 57, 0
1, 203616, Note_on_c, 1, 66, 72
1, 203708, Note_on_c, 1, 66, 0
1, 203712, Note_on_c, 1, 59, 72
1, 203804, Note_on_c, 1, 59, 0
1, 203808, Note_on_c, 1, 66, 72
1, 203900, Note_on_c, 0, 88, 0
1, 203900, Note_on_c, 1, 66, 0
1, 203904, Note_on_c, 1, 57, 72
1, 203996, Note_on_c, 1, 57, 0
1, 204000, Note_on_c, 1, 66, 72
1, 204092, Note_on_c, 1, 66, 0
1, 204096, Note_on_c, 1, 59, 72
1, 204188, Note_on_c, 1, 59, 0
1, 204192, Note_on_c, 1, 66, 72
1, 204284, Note_on_c, 1, 66, 0
1, 204288, Note_on_c, 0, 82, 51
1, 204288, Note_on_c, 0, 70, 51
1, 204288, Note_on_c, 1, 55, 72
1, 204380, Note_on_c, 1, 55, 0
1, 204384, Note_on_c, 1, 62, 72
1, 204476, Note_on_c, 1, 62, 0
1, 204480, Note_on_c, 1, 58, 72
1, 204572, Note_on_c, 1, 58, 0
1, 204576, Note_on_c, 1, 62, 72
1, 204668, Note_on_c, 1, 62, 0
1, 204672, Note_on_c, 1, 55, 72
1, 204764, Note_on_c, 1, 55, 0
1, 204768, Note_on_c, 1, 62, 72
1, 204860, Note_on_c, 1, 62, 0
1, 204864, Note_on_c, 1, 58, 72
1, 204956, Note_on_c, 1, 58, 0
1, 204960, Note_on_c, 1, 62, 72
1, 205052, Note_on_c, 0, 82, 0
1, 205052, Note_on_c, 0, 70, 0
1, 205052, Note_on_c, 1, 62, 0
1, 205056, Note_on_c, 0, 79, 51
1, 205056, Note_on_c, 0, 67, 51
1, 205056, Note_on_c, 1, 55, 72
1, 205148, Note_on_c, 1, 55, 0
1, 205152, Note_on_c, 1, 61, 72
1, 205244, Note_on_c, 1, 61, 0
1, 205248, Note_on_c, 1, 58, 72
1, 205340, Note_on_c, 1, 58, 0
1, 205344, Note_on_c, 1, 61, 72
1, 205436, Note_on_c, 1, 61, 0
1, 205440, Note_on_c, 1, 55, 72
1, 205532, Note_on_c, 1, 55, 0
1, 205536, Note_on_c, 1, 61, 72
1, 205628, Note_on_c, 1, 61, 0
1, 205632, Note_on_c, 1, 58, 72
1, 205724, Note_on_c, 1, 58, 0
1, 205728, Note_on_c, 1, 61, 72
1, 205820, Note_on_c, 0, 79, 0
1, 205820, Note_on_c, 0, 67, 0
1, 205820, Note_on_c, 1, 61, 0
1, 205824, Note_on_c, 0, 85, 51
1, 205824, Note_on_c, 1, 55, 72
1, 205916, Note_on_c, 1, 55, 0
1, 205920, Note_on_c, 1, 64, 72
1, 206012, Note_on_c, 1, 64, 0
1, 206016, Note_on_c, 1, 58, 72
1, 206108, Note_on_c, 1, 58, 0
1, 206112, Note_on_c, 1, 64, 72
1, 206204, Note_on_c, 1, 64, 0
1, 206208, Note_on_c, 1, 55, 72
1, 206300, Note_on_c, 1, 55, 0
1, 206304, Note_on_c, 1, 64, 72
1, 206396, Note_on_c, 0, 85, 0
1, 206396, Note_on_c, 1, 64, 0
1, 206400, Note_on_c, 0, 86, 51
1, 206400, Note_on_c, 1, 58, 72
1, 206492, Note_on_c, 0, 86, 0
1, 206492, Note_on_c, 1, 58, 0
1, 206496, Note_on_c, 0, 85, 51
1, 206496, Note_on_c, 1, 64, 72
1, 206588, Note_on_c, 0, 85, 0
1, 206588, Note_on_c, 1, 64, 0
1, 206592, Note_on_c, 0, 86, 51
1, 206592, Note_on_c, 1, 54, 72
1, 206684, Note_on_c, 1, 54, 0
1, 206688, Note_on_c, 1, 62, 72
1, 206780, Note_on_c, 1, 62, 0
1, 206784, Note_on_c, 1, 57, 72
1, 206876, Note_on_c, 1, 57, 0
1, 206880, Note_on_c, 1, 62, 72
1, 206972, Note_on_c, 0, 86, 0
1, 206972, Note_on_c, 1, 62, 0
1, 206976, Note_on_c, 1, 54, 72
1, 207068, Note_on_c, 1, 54, 0
1, 207072, Note_on_c, 1, 62, 72
1, 207164, Note_on_c, 1, 62, 0
1, 207168, Note_on_c, 1, 57, 72
1, 207260, Note_on_c, 1, 57, 0
1, 207264, Note_on_c, 1, 62, 72
1, 207356, Note_on_c, 1, 62, 0
1, 207360, Note_on_c, 0, 83, 51
1, 207360, Note_on_c, 1, 53, 72
1, 207452, Note_on_c, 1, 53, 0
1, 207456, Note_on_c, 1, 60, 72
1, 207548, Note_on_c, 1, 60, 0
1, 207552, Note_on_c, 1, 56, 72
1, 207644, Note_on_c, 1, 56, 0
1, 207648, Note_on_c, 1, 62, 72
1, 207740, Note_on_c, 1, 62, 0
1, 207744, Note_on_c, 1, 53, 72
1, 207836, Note_on_c, 1, 53, 0
1, 207840, Note_on_c, 1, 60, 72
1, 207932, Note_on_c, 0, 83, 0
1, 207932, Note_on_c, 1, 60, 0
1, 207936, Note_on_c, 0, 84, 51
1, 207936, Note_on_c, 1, 56, 72
1, 208028, Note_on_c, 0, 84, 0
1, 208028, Note_on_c, 1, 56, 0
1, 208032, Note_on_c, 0, 83, 51
1, 208032, Note_on_c, 1, 60, 72
1, 208124, Note_on_c, 0, 83, 0
1, 208124, Note_on_c, 1, 60, 0
1, 208128, Note_on_c, 0, 84, 51
1, 208128, Note_on_c, 1, 52, 72
1, 208220, Note_on_c, 1, 52, 0
1, 208224, Note_on_c, 1, 60, 72
1, 208316, Note_on_c, 1, 60, 0
1, 208320, Note_on_c, 1, 55, 72
1, 208412, Note_on_c, 1, 55, 0
1, 208416, Note_on_c, 1, 60, 72
1, 208508, Note_on_c, 0, 84, 0
1, 208508, Note_on_c, 1, 60, 0
1, 208512, Note_on_c, 1, 52, 72
1, 208604, Note_on_c, 1, 52, 0
1, 208608, Note_on_c, 1, 60, 72
1, 208700, Note_on_c, 1, 60, 0
1, 208704, Note_on_c, 1, 55, 72
1, 208796, Note_on_c, 1, 55, 0
1, 208800, Note_on_c, 1, 60, 72
1, 208892, Note_on_c, 1, 60, 0
1, 208896, Note_on_c, 0, 80, 51
1, 208896, Note_on_c, 1, 50, 72
1, 208988, Note_on_c, 1, 50, 0
1, 208992, Note_on_c, 1, 59, 72
1, 209084, Note_on_c, 1, 59, 0
1, 209088, Note_on_c, 1, 53, 72
1, 209180, Note_on_c, 1, 53, 0
1, 209184, Note_on_c, 1, 59, 72
1, 209276, Note_on_c, 1, 59, 0
1, 209280, Note_on_c, 1, 50, 72
1, 209372, Note_on_c, 1, 50, 0
1, 209376, Note_on_c, 1, 59, 72
1, 209468, Note_on_c, 0, 80, 0
1, 209468, Note_on_c, 1, 59, 0
1, 209472, Note_on_c, 0, 81, 51
1, 209472, Note_on_c, 1, 53, 72
1, 209564, Note_on_c, 0, 81, 0
1, 209564, Note_on_c, 1, 53, 0
1, 209568, Note_on_c, 0, 80, 51
1, 209568, Note_on_c, 1, 59, 72
1, 209660, Note_on_c, 0, 80, 0
1, 209660, Note_on_c, 1, 59, 0
1, 209664, Note_on_c, 0, 81, 51
1, 209664, Note_on_c, 1, 48, 72
1, 209756, Note_on_c, 1, 48, 0
1, 209760, Note_on_c, 1, 57, 72
1, 209852, Note_on_c, 1, 57, 0
1, 209856, Note_on_c, 1, 52, 72
1, 209948, Note_on_c, 1, 52, 0
1, 209952, Note_on_c, 1, 57, 72
1, 210044, Note_on_c, 0, 81, 0
1, 210044, Note_on_c, 1, 57, 0
1, 210048, Note_on_c, 1, 48, 72
1, 210140, Note_on_c, 1, 48, 0
1, 210144, Note_on_c, 1, 57, 72
1, 210236, Note_on_c, 1, 57, 0
1, 210240, Note_on_c, 1, 52, 72
1, 210332, Note_on_c, 1, 52, 0
1, 210336, Note_on_c, 1, 57, 72
1, 210428, Note_on_c, 1, 57, 0
1, 210432, Note_on_c, 1, 51, 72
1, 210432, Note_on_c, 1, 39, 72
1, 210624, Note_on_c, 0, 81, 51
1, 210768, Note_on_c, 0, 81, 0
1, 210812, Note_on_c, 1, 51, 0
1, 210812, Note_on_c, 1, 39, 0
1, 210816, Note_on_c, 0, 84, 51
1, 210960, Note_on_c, 0, 84, 0
1, 211008, Note_on_c, 0, 78, 51
1, 211152, Note_on_c, 0, 78, 0
1, 211200, Note_on_c, 0, 81, 51
1, 211344, Note_on_c, 0, 81, 0
1, 211392, Note_on_c, 0, 75, 51
1, 211536, Note_on_c, 0, 75, 0
1, 211584, Note_on_c, 0, 78, 51
1, 211728, Note_on_c, 0, 78, 0
1, 211776, Note_on_c, 0, 72, 51
1, 211920, Note_on_c, 0, 72, 0
1, 211968, Note_on_c, 0, 75, 51
1, 212112, Note_on_c, 0, 75, 0
1, 212160, Note_on_c, 0, 69, 51
1, 212160, Note_on_c, 1, 57, 72
1, 212304, Note_on_c, 0, 69, 0
1, 212304, Note_on_c, 1, 57, 0
1, 212352, Note_on_c, 0, 72, 51
1, 212352, Note_on_c, 1, 60, 72
1, 212496, Note_on_c, 0, 72, 0
1, 212496, Note_on_c, 1, 60, 0
1, 212544, Note_on_c, 0, 66, 51
1, 212544, Note_on_c, 1, 54, 72
1, 212688, Note_on_c, 0, 66, 0
1, 212688, Note_on_c, 1, 54, 0
1, 212736, Note_on_c, 0, 69, 51
1, 212736, Note_on_c, 1, 57, 72
1, 212880, Note_on_c, 0, 69, 0
1, 212880, Note_on_c, 1, 57, 0
1, 212928, Note_on_c, 0, 63, 51
1, 212928, Note_on_c, 1, 51, 72
1, 213072, Note_on_c, 0, 63, 0
1, 213072, Note_on_c, 1, 51, 0
1, 213120, Note_on_c, 0, 66, 51
1, 213120, Note_on_c, 1, 54, 72
1, 213264, Note_on_c, 0, 66, 0
1, 213264, Note_on_c, 1, 54, 0
1, 213312, Note_on_c, 0, 57, 51
1, 213312, Note_on_c, 1, 45, 72
1, 213456, Note_on_c, 0, 57, 0
1, 213456, Note_on_c, 1, 45, 0
1, 213504, Note_on_c, 1, 60, 72
1, 213504, Note_on_c, 1, 48, 72
1, 213648, Note_on_c, 1, 60, 0
1, 213648, Note_on_c, 1, 48, 0
1, 213696, Note_on_c, 1, 54, 72
1, 213696, Note_on_c, 1, 42, 72
1, 213840, Note_on_c, 1, 54, 0
1, 213840, Note_on_c, 1, 42, 0
1, 213888, Note_on_c, 1, 57, 72
1, 213888, Note_on_c, 1, 45, 72
1, 214032, Note_on_c, 1, 57, 0
1, 214032, Note_on_c, 1, 45, 0
1, 214080, Note_on_c, 1, 51, 72
1, 214080, Note_on_c, 1, 39, 72
1, 214224, Note_on_c, 1, 51, 0
1, 214224, Note_on_c, 1, 39, 0
1, 214272, Note_on_c, 1, 52, 72
1, 214272, Note_on_c, 1, 40, 72
1, 214652, Note_on_c, 1, 52, 0
1, 214652, Note_on_c, 1, 40, 0
1, 214656, Note_on_c, 0, 80, 51
1, 214656, Note_on_c, 0, 76, 51
1, 214656, Note_on_c, 0, 71, 51
1, 214656, Note_on_c, 0, 74, 51
1, 214656, Note_on_c, 1, 52, 72
1, 214656, Note_on_c, 1, 40, 72
1, 215036, Note_on_c, 0, 80, 0
1, 215036, Note_on_c, 0, 76, 0
1, 215036, Note_on_c, 0, 71, 0
1, 215036, Note_on_c, 0, 74, 0
1, 215036, Note_on_c, 1, 52, 0
1, 215036, Note_on_c, 1, 40, 0
1, 215040, Note_on_c, 0, 81, 51
1, 215040, Note_on_c, 0, 76, 51
1, 215040, Note_on_c, 0, 72, 51
1, 215040, Note_on_c, 1, 57, 51
1, 215040, Note_on_c, 1, 45, 51
1, 215420, Note_on_c, 0, 81, 0
1, 215420, Note_on_c, 0, 76, 0
1, 215420, Note_on_c, 0, 72, 0
1, 215420, Note_on_c, 1, 57, 0
1, 215420, Note_on_c, 1, 45, 0
1, 215424, Note_on_c, 0, 69, 51
1, 215616, Note_on_c, 0, 72, 51
1, 215760, Note_on_c, 0, 72, 0
1, 215804, Note_on_c, 0, 69, 0
1, 215808, Note_on_c, 0, 76, 51
1, 215808, Note_on_c, 0, 71, 51
1, 215952, Note_on_c, 0, 76, 0
1, 216000, Note_on_c, 0, 74, 51
1, 216144, Note_on_c, 0, 74, 0
1, 216188, Note_on_c, 0, 71, 0
1, 216192, Note_on_c, 0, 68, 51
1, 216384, Note_on_c, 0, 71, 51
1, 216528, Note_on_c, 0, 71, 0
1, 216572, Note_on_c, 0, 68, 0
1, 216576, Note_on_c, 0, 74, 51
1, 216576, Note_on_c, 0, 69, 51
1, 216720, Note_on_c, 0, 74, 0
1, 216768, Note_on_c, 0, 72, 51
1, 216912, Note_on_c, 0, 72, 0
1, 216956, Note_on_c, 0, 69, 0
1, 216960, Note_on_c, 0, 65, 51
1, 217152, Note_on_c, 0, 69, 51
1, 217296, Note_on_c, 0, 69, 0
1, 217340, Note_on_c, 0, 65, 0
1, 217344, Note_on_c, 0, 72, 51
1, 217344, Note_on_c, 0, 62, 51
1, 217488, Note_on_c, 0, 72, 0
1, 217536, Note_on_c, 0, 71, 51
1, 217680, Note_on_c, 0, 71, 0
1, 217724, Note_on_c, 0, 62, 0
1, 217728, Note_on_c, 0, 64, 51
1, 217920, Note_on_c, 0, 68, 51
1, 218064, Note_on_c, 0, 68, 0
1, 218108, Note_on_c, 0, 64, 0
1, 218112, Note_on_c, 0, 71, 51
1, 218112, Note_on_c, 0, 60, 51
1, 218256, Note_on_c, 0, 71, 0
1, 218304, Note_on_c, 0, 69, 51
1, 218448, Note_on_c, 0, 69, 0
1, 218492, Note_on_c, 0, 60, 0
1, 218496, Note_on_c, 0, 72, 72
1, 218496, Note_on_c, 1, 45, 72
1, 218496, Note_on_c, 1, 57, 72
1, 218588, Note_on_c, 0, 72, 0
1, 218592, Note_on_c, 0, 74, 72
1, 218684, Note_on_c, 0, 74, 0
1, 218688, Note_on_c, 0, 76, 72
1, 218780, Note_on_c, 0, 76, 0
1, 218784, Note_on_c, 0, 72, 72
1, 218876, Note_on_c, 0, 72, 0
1, 218876, Note_on_c, 1, 45, 0
1, 218876, Note_on_c, 1, 57, 0
1, 218880, Note_on_c, 0, 74, 72
1, 218880, Note_on_c, 1, 59, 72
1, 218880, Note_on_c, 1, 47, 72
1, 218972, Note_on_c, 0, 74, 0
1, 218976, Note_on_c, 0, 76, 72
1, 219068, Note_on_c, 0, 76, 0
1, 219072, Note_on_c, 0, 77, 72
1, 219164, Note_on_c, 0, 77, 0
1, 219168, Note_on_c, 0, 74, 72
1, 219260, Note_on_c, 0, 74, 0
1, 219260, Note_on_c, 1, 59, 0
1, 219260, Note_on_c, 1, 47, 0
1, 219264, Note_on_c, 0, 71, 72
1, 219264, Note_on_c, 1, 44, 72
1, 219264, Note_on_c, 1, 56, 72
1, 219356, Note_on_c, 0, 71, 0
1, 219360, Note_on_c, 0, 72, 72
1, 219452, Note_on_c, 0, 72, 0
1, 219456, Note_on_c, 0, 74, 72
1, 219548, Note_on_c, 0, 74, 0
1, 219552, Note_on_c, 0, 71, 72
1, 219644, Note_on_c, 0, 71, 0
1, 219644, Note_on_c, 1, 44, 0
1, 219644, Note_on_c, 1, 56, 0
1, 219648, Note_on_c, 0, 72, 72
1, 219648, Note_on_c, 1, 57, 72
1, 219648, Note_on_c, 1, 45, 72
1, 219740, Note_on_c, 0, 72, 0
1, 219744, Note_on_c, 0, 74, 72
1, 219836, Note_on_c, 0, 74, 0
1, 219840, Note_on_c, 0, 76, 72
1, 219932, Note_on_c, 0, 76, 0
1, 219936, Note_on_c, 0, 72, 72
1, 220028, Note_on_c, 0, 72, 0
1, 220028, Note_on_c, 1, 57, 0
1, 220028, Note_on_c, 1, 45, 0
1, 220032, Note_on_c, 0, 69, 72
1, 220032, Note_on_c, 1, 53, 72
1, 220032, Note_on_c, 1, 41, 72
1, 220124, Note_on_c, 0, 69, 0
1, 220128, Note_on_c, 0, 71, 72
1, 220220, Note_on_c, 0, 71, 0
1, 220224, Note_on_c, 0, 72, 72
1, 220316, Note_on_c, 0, 72, 0
1, 220320, Note_on_c, 0, 69, 72
1, 220412, Note_on_c, 0, 69, 0
1, 220412, Note_on_c, 1, 53, 0
1, 220412, Note_on_c, 1, 41, 0
1, 220416, Note_on_c, 0, 71, 72
1, 220416, Note_on_c, 1, 50, 72
1, 220416, Note_on_c, 1, 38, 72
1, 220508, Note_on_c, 0, 71, 0
1, 220512, Note_on_c, 0, 72, 72
1, 220604, Note_on_c, 0, 72, 0
1, 220608, Note_on_c, 0, 74, 72
1, 220700, Note_on_c, 0, 74, 0
1, 220704, Note_on_c, 0, 71, 72
1, 220796, Note_on_c, 0, 71, 0
1, 220796, Note_on_c, 1, 50, 0
1, 220796, Note_on_c, 1, 38, 0
1, 220800, Note_on_c, 0, 68, 72
1, 220800, Note_on_c, 1, 40, 72
1, 220800, Note_on_c, 1, 52, 72
1, 220892, Note_on_c, 0, 68, 0
1, 220896, Note_on_c, 0, 69, 72
1, 220988, Note_on_c, 0, 69, 0
1, 220992, Note_on_c, 0, 71, 72
1, 221084, Note_on_c, 0, 71, 0
1, 221088, Note_on_c, 0, 68, 72
1, 221180, Note_on_c, 0, 68, 0
1, 221180, Note_on_c, 1, 40, 0
1, 221180, Note_on_c, 1, 52, 0
1, 221184, Note_on_c, 0, 57, 72
1, 221228, Note_on_c, 0, 57, 0
1, 221232, Note_on_c, 0, 60, 72
1, 221276, Note_on_c, 0, 60, 0
1, 221280, Note_on_c, 0, 64, 72
1, 221324, Note_on_c, 0, 64, 0
1, 221328, Note_on_c, 0, 69, 72
1, 221328, Note_on_c, 1, 45, 72
1, 221328, Note_on_c, 1, 33, 72
1, 221932, Note_on_c, 0, 69, 0
1, 221952, Note_on_c, 0, 64, 72
1, 221952, Note_on_c, 1, 40, 72
1, 222092, Note_on_c, 1, 45, 0
1, 222092, Note_on_c, 1, 33, 0
1, 222716, Note_on_c, 0, 64, 0
1, 222716, Note_on_c, 1, 40, 0
1, 222720, Note_on_c, 0, 72, 72
1, 222720, Note_on_c, 1, 48, 72
1, 223292, Note_on_c, 0, 72, 0
1, 223292, Note_on_c, 1, 48, 0
1, 223296, Note_on_c, 0, 74, 72
1, 223296, Note_on_c, 1, 50, 72
1, 223344, Note_on_c, 0, 74, 0
1, 223388, Note_on_c, 1, 50, 0
1, 223392, Note_on_c, 0, 71, 72
1, 223392, Note_on_c, 1, 47, 72
1, 223440, Note_on_c, 0, 71, 0
1, 223484, Note_on_c, 1, 47, 0
1, 223488, Note_on_c, 0, 69, 72
1, 223488, Note_on_c, 1, 45, 72
1, 223868, Note_on_c, 0, 69, 0
1, 223868, Note_on_c, 1, 45, 0
1, 224256, Note_on_c, 0, 76, 51
1, 224256, Note_on_c, 0, 72, 51
1, 224828, Note_on_c, 0, 76, 0
1, 224828, Note_on_c, 0, 72, 0
1, 224832, Note_on_c, 0, 77, 51
1, 224832, Note_on_c, 0, 74, 51
1, 224924, Note_on_c, 0, 77, 0
1, 224924, Note_on_c, 0, 74, 0
1, 224928, Note_on_c, 0, 74, 51
1, 224928, Note_on_c, 0, 71, 51
1, 225020, Note_on_c, 0, 74, 0
1, 225020, Note_on_c, 0, 71, 0
1, 225024, Note_on_c, 0, 72, 51
1, 225024, Note_on_c, 0, 69, 51
1, 225404, Note_on_c, 0, 72, 0
1, 225404, Note_on_c, 0, 69, 0
1, 225792, Note_on_c, 0, 84, 41
1, 225792, Note_on_c, 0, 76, 41
1, 226364, Note_on_c, 0, 84, 0
1, 226364, Note_on_c, 0, 76, 0
1, 226368, Note_on_c, 0, 86, 41
1, 226368, Note_on_c, 0, 77, 41
1, 226460, Note_on_c, 0, 86, 0
1, 226460, Note_on_c, 0, 77, 0
1, 226464, Note_on_c, 0, 83, 41
1, 226464, Note_on_c, 0, 74, 41
1, 226556, Note_on_c, 0, 83, 0
1, 226556, Note_on_c, 0, 74, 0
1, 226560, Note_on_c, 0, 81, 41
1, 226560, Note_on_c, 0, 72, 41
1, 226940, Note_on_c, 0, 81, 0
1, 226940, Note_on_c, 0, 72, 0
1, 227328, Note_on_c, 0, 59, 72
1, 227376, Note_on_c, 0, 59, 0
1, 227376, Note_on_c, 0, 62, 72
1, 227424, Note_on_c, 0, 62, 0
1, 227424, Note_on_c, 0, 67, 72
1, 227472, Note_on_c, 0, 67, 0
1, 227472, Note_on_c, 0, 71, 72
1, 227472, Note_on_c, 1, 47, 72
1, 227472, Note_on_c, 1, 35, 72
1, 228076, Note_on_c, 0, 71, 0
1, 228076, Note_on_c, 1, 47, 0
1, 228076, Note_on_c, 1, 35, 0
1, 228096, Note_on_c, 0, 67, 72
1, 228096, Note_on_c, 1, 43, 72
1, 228096, Note_on_c, 1, 31, 72
1, 228860, Note_on_c, 0, 67, 0
1, 228860, Note_on_c, 1, 43, 0
1, 228860, Note_on_c, 1, 31, 0
1, 228864, Note_on_c, 0, 74, 72
1, 228864, Note_on_c, 1, 50, 72
1, 229436, Note_on_c, 0, 74, 0
1, 229436, Note_on_c, 1, 50, 0
1, 229440, Note_on_c, 0, 76, 72
1, 229440, Note_on_c, 1, 52, 72
1, 229532, Note_on_c, 0, 76, 0
1, 229532, Note_on_c, 1, 52, 0
1, 229536, Note_on_c, 0, 72, 72
1, 229536, Note_on_c, 1, 48, 72
1, 229628, Note_on_c, 0, 72, 0
1, 229628, Note_on_c, 1, 48, 0
1, 229632, Note_on_c, 0, 71, 72
1, 229632, Note_on_c, 1, 47, 72
1, 230012, Note_on_c, 0, 71, 0
1, 230012, Note_on_c, 1, 47, 0
1, 230400, Note_on_c, 0, 77, 51
1, 230400, Note_on_c, 0, 74, 51
1, 230972, Note_on_c, 0, 77, 0
1, 230972, Note_on_c, 0, 74, 0
1, 230976, Note_on_c, 0, 79, 51
1, 230976, Note_on_c, 0, 76, 51
1, 231068, Note_on_c, 0, 79, 0
1, 231068, Note_on_c, 0, 76, 0
1, 231072, Note_on_c, 0, 76, 51
1, 231072, Note_on_c, 0, 72, 51
1, 231164, Note_on_c, 0, 76, 0
1, 231164, Note_on_c, 0, 72, 0
1, 231168, Note_on_c, 0, 74, 51
1, 231168, Note_on_c, 0, 71, 51
1, 231548, Note_on_c, 0, 74, 0
1, 231548, Note_on_c, 0, 71, 0
1, 231936, Note_on_c, 0, 86, 41
1, 231936, Note_on_c, 0, 77, 41
1, 232508, Note_on_c, 0, 86, 0
1, 232508, Note_on_c, 0, 77, 0
1, 232512, Note_on_c, 0, 88, 41
1, 232512, Note_on_c, 0, 79, 41
1, 232604, Note_on_c, 0, 88, 0
1, 232604, Note_on_c, 0, 79, 0
1, 232608, Note_on_c, 0, 84, 41
1, 232608, Note_on_c, 0, 76, 41
1, 232700, Note_on_c, 0, 84, 0
1, 232700, Note_on_c, 0, 76, 0
1, 232704, Note_on_c, 0, 83, 41
1, 232704, Note_on_c, 0, 74, 41
1, 233084, Note_on_c, 0, 83, 0
1, 233084, Note_on_c, 0, 74, 0
1, 233472, Note_on_c, 0, 60, 72
1, 233520, Note_on_c, 0, 60, 0
1, 233520, Note_on_c, 0, 64, 72
1, 233568, Note_on_c, 0, 64, 0
1, 233568, Note_on_c, 0, 67, 72
1, 233616, Note_on_c, 0, 67, 0
1, 233616, Note_on_c, 0, 72, 72
1, 233616, Note_on_c, 1, 48, 51
1, 233616, Note_on_c, 1, 36, 51
1, 234144, Note_on_c, 1, 48, 0
1, 234144, Note_on_c, 1, 36, 0
1, 234220, Note_on_c, 0, 72, 0
1, 234240, Note_on_c, 0, 67, 72
1, 234240, Note_on_c, 1, 43, 51
1, 234240, Note_on_c, 1, 31, 51
1, 234768, Note_on_c, 1, 43, 0
1, 234768, Note_on_c, 1, 31, 0
1, 235004, Note_on_c, 0, 67, 0
1, 235008, Note_on_c, 0, 76, 72
1, 235008, Note_on_c, 1, 52, 51
1, 235580, Note_on_c, 0, 76, 0
1, 235580, Note_on_c, 1, 52, 0
1, 235584, Note_on_c, 0, 77, 72
1, 235584, Note_on_c, 1, 55, 51
1, 235676, Note_on_c, 0, 77, 0
1, 235676, Note_on_c, 1, 55, 0
1, 235680, Note_on_c, 0, 74, 72
1, 235680, Note_on_c, 1, 50, 51
1, 235772, Note_on_c, 0, 74, 0
1, 235772, Note_on_c, 1, 50, 0
1, 235776, Note_on_c, 0, 72, 72
1, 235776, Note_on_c, 1, 48, 51
1, 236156, Note_on_c, 0, 72, 0
1, 236156, Note_on_c, 1, 48, 0
1, 236544, Note_on_c, 0, 79, 51
1, 236544, Note_on_c, 0, 64, 51
1, 236688, Note_on_c, 0, 64, 0
1, 236736, Note_on_c, 0, 67, 51
1, 236880, Note_on_c, 0, 67, 0
1, 236924, Note_on_c, 0, 79, 0
1, 236928, Note_on_c, 0, 79, 51
1, 236928, Note_on_c, 0, 64, 51
1, 237072, Note_on_c, 0, 64, 0
1, 237120, Note_on_c, 0, 67, 51
1, 237264, Note_on_c, 0, 67, 0
1, 237308, Note_on_c, 0, 79, 0
1, 237312, Note_on_c, 0, 61, 51
1, 237456, Note_on_c, 0, 61, 0
1, 237504, Note_on_c, 0, 67, 51
1, 237648, Note_on_c, 0, 67, 0
1, 237696, Note_on_c, 0, 81, 51
1, 237696, Note_on_c, 0, 61, 51
1, 237840, Note_on_c, 0, 61, 0
1, 237888, Note_on_c, 0, 67, 51
1, 238032, Note_on_c, 0, 67, 0
1, 238076, Note_on_c, 0, 81, 0
1, 238080, Note_on_c, 0, 79, 51
1, 238080, Note_on_c, 0, 62, 51
1, 238128, Note_on_c, 0, 77, 51
1, 238224, Note_on_c, 0, 79, 0
1, 238224, Note_on_c, 0, 62, 0
1, 238272, Note_on_c, 0, 67, 51
1, 238416, Note_on_c, 0, 67, 0
1, 238464, Note_on_c, 0, 77, 51
1, 238464, Note_on_c, 0, 62, 51
1, 238508, Note_on_c, 0, 77, 0
1, 238608, Note_on_c, 0, 62, 0
1, 238656, Note_on_c, 0, 67, 51
1, 238800, Note_on_c, 0, 67, 0
1, 238844, Note_on_c, 0, 77, 0
1, 238848, Note_on_c, 0, 59, 51
1, 238992, Note_on_c, 0, 59, 0
1, 239040, Note_on_c, 0, 67, 51
1, 239184, Note_on_c, 0, 67, 0
1, 239232, Note_on_c, 0, 79, 51
1, 239232, Note_on_c, 0, 59, 51
1, 239376, Note_on_c, 0, 59, 0
1, 239424, Note_on_c, 0, 67, 51
1, 239472, Note_on_c, 0, 79, 0
1, 239568, Note_on_c, 0, 67, 0
1, 239616, Note_on_c, 0, 77, 51
1, 239616, Note_on_c, 0, 60, 51
1, 239664, Note_on_c, 0, 76, 51
1, 239760, Note_on_c, 0, 77, 0
1, 239760, Note_on_c, 0, 60, 0
1, 239808, Note_on_c, 0, 67, 51
1, 239952, Note_on_c, 0, 67, 0
1, 240000, Note_on_c, 0, 76, 51
1, 240000, Note_on_c, 0, 60, 51
1, 240044, Note_on_c, 0, 76, 0
1, 240144, Note_on_c, 0, 60, 0
1, 240192, Note_on_c, 0, 67, 51
1, 240336, Note_on_c, 0, 67, 0
1, 240380, Note_on_c, 0, 76, 0
1, 240384, Note_on_c, 0, 64, 51
1, 240528, Note_on_c, 0, 64, 0
1, 240576, Note_on_c, 0, 67, 51
1, 240720, Note_on_c, 0, 67, 0
1, 240768, Note_on_c, 0, 79, 51
1, 240768, Note_on_c, 0, 64, 51
1, 240912, Note_on_c, 0, 79, 0
1, 240912, Note_on_c, 0, 64, 0
1, 240960, Note_on_c, 0, 76, 51
1, 240960, Note_on_c, 0, 67, 51
1, 241104, Note_on_c, 0, 76, 0
1, 241104, Note_on_c, 0, 67, 0
1, 241152, Note_on_c, 0, 73, 51
1, 241152, Note_on_c, 0, 69, 51
1, 241152, Note_on_c, 0, 65, 51
1, 241296, Note_on_c, 0, 73, 0
1, 241344, Note_on_c, 0, 74, 51
1, 241488, Note_on_c, 0, 74, 0
1, 241536, Note_on_c, 0, 77, 51
1, 241680, Note_on_c, 0, 77, 0
1, 241728, Note_on_c, 0, 76, 51
1, 241872, Note_on_c, 0, 76, 0
1, 241920, Note_on_c, 0, 73, 51
1, 242064, Note_on_c, 0, 73, 0
1, 242112, Note_on_c, 0, 74, 51
1, 242256, Note_on_c, 0, 74, 0
1, 242304, Note_on_c, 0, 77, 51
1, 242448, Note_on_c, 0, 77, 0
1, 242496, Note_on_c, 0, 76, 51
1, 242640, Note_on_c, 0, 76, 0
1, 242684, Note_on_c, 0, 69, 0
1, 242684, Note_on_c, 0, 65, 0
1, 242688, Note_on_c, 0, 73, 51
1, 242832, Note_on_c, 0, 73, 0
1, 242880, Note_on_c, 0, 74, 51
1, 243024, Note_on_c, 0, 74, 0
1, 243072, Note_on_c, 0, 77, 51
1, 243072, Note_on_c, 1, 62, 51
1, 243072, Note_on_c, 1, 53, 51
1, 243072, Note_on_c, 1, 57, 51
1, 243216, Note_on_c, 0, 77, 0
1, 243264, Note_on_c, 0, 81, 51
1, 243408, Note_on_c, 0, 81, 0
1, 243452, Note_on_c, 1, 62, 0
1, 243452, Note_on_c, 1, 53, 0
1, 243452, Note_on_c, 1, 57, 0
1, 243456, Note_on_c, 0, 79, 51
1, 243456, Note_on_c, 1, 64, 51
1, 243456, Note_on_c, 1, 60, 51
1, 243456, Note_on_c, 1, 55, 51
1, 243600, Note_on_c, 0, 79, 0
1, 243648, Note_on_c, 0, 76, 51
1, 243792, Note_on_c, 0, 76, 0
1, 243836, Note_on_c, 1, 64, 0
1, 243836, Note_on_c, 1, 60, 0
1, 243836, Note_on_c, 1, 55, 0
1, 243840, Note_on_c, 0, 77, 51
1, 243840, Note_on_c, 1, 62, 51
1, 243840, Note_on_c, 1, 59, 51
1, 243840, Note_on_c, 1, 55, 51
1, 243984, Note_on_c, 0, 77, 0
1, 244032, Note_on_c, 0, 74, 51
1, 244176, Note_on_c, 0, 74, 0
1, 244220, Note_on_c, 1, 62, 0
1, 244220, Note_on_c, 1, 59, 0
1, 244220, Note_on_c, 1, 55, 0
1, 244224, Note_on_c, 0, 60, 72
1, 244272, Note_on_c, 0, 60, 0
1, 244272, Note_on_c, 0, 63, 72
1, 244320, Note_on_c, 0, 63, 0
1, 244320, Note_on_c, 0, 67, 72
1, 244368, Note_on_c, 0, 67, 0
1, 244368, Note_on_c, 0, 72, 72
1, 244368, Note_on_c, 1, 48, 72
1, 244368, Note_on_c, 1, 36, 72
1, 244972, Note_on_c, 0, 72, 0
1, 244972, Note_on_c, 1, 48, 0
1, 244972, Note_on_c, 1, 36, 0
1, 244992, Note_on_c, 0, 67, 72
1, 244992, Note_on_c, 1, 43, 72
1, 244992, Note_on_c, 1, 31, 72
1, 245756, Note_on_c, 0, 67, 0
1, 245756, Note_on_c, 1, 43, 0
1, 245756, Note_on_c, 1, 31, 0
1, 245760, Note_on_c, 0, 75, 72
1, 245760, Note_on_c, 1, 51, 72
1, 246332, Note_on_c, 0, 75, 0
1, 246332, Note_on_c, 1, 51, 0
1, 246336, Note_on_c, 0, 77, 72
1, 246336, Note_on_c, 1, 53, 72
1, 246428, Note_on_c, 0, 77, 0
1, 246428, Note_on_c, 1, 53, 0
1, 246432, Note_on_c, 0, 74, 72
1, 246432, Note_on_c, 1, 50, 72
1, 246524, Note_on_c, 0, 74, 0
1, 246524, Note_on_c, 1, 50, 0
1, 246528, Note_on_c, 0, 72, 72
1, 246528, Note_on_c, 1, 48, 72
1, 246908, Note_on_c, 0, 72, 0
1, 246908, Note_on_c, 1, 48, 0
1, 247296, Note_on_c, 0, 63, 51
1, 247296, Note_on_c, 0, 78, 51
1, 247340, Note_on_c, 0, 78, 0
1, 247344, Note_on_c, 0, 79, 51
1, 247440, Note_on_c, 0, 63, 0
1, 247488, Note_on_c, 0, 67, 51
1, 247632, Note_on_c, 0, 67, 0
1, 247680, Note_on_c, 0, 79, 51
1, 247680, Note_on_c, 0, 63, 51
1, 247684, Note_on_c, 0, 79, 0
1, 247824, Note_on_c, 0, 63, 0
1, 247872, Note_on_c, 0, 67, 51
1, 248016, Note_on_c, 0, 67, 0
1, 248060, Note_on_c, 0, 79, 0
1, 248064, Note_on_c, 0, 60, 51
1, 248208, Note_on_c, 0, 60, 0
1, 248256, Note_on_c, 0, 72, 51
1, 248256, Note_on_c, 0, 67, 51
1, 248400, Note_on_c, 0, 72, 0
1, 248400, Note_on_c, 0, 67, 0
1, 248448, Note_on_c, 0, 84, 51
1, 248448, Note_on_c, 0, 60, 51
1, 248592, Note_on_c, 0, 84, 0
1, 248592, Note_on_c, 0, 60, 0
1, 248640, Note_on_c, 0, 80, 51
1, 248640, Note_on_c, 0, 67, 51
1, 248784, Note_on_c, 0, 80, 0
1, 248784, Note_on_c, 0, 67, 0
1, 248832, Note_on_c, 0, 79, 51
1, 248832, Note_on_c, 0, 62, 51
1, 248976, Note_on_c, 0, 79, 0
1, 248976, Note_on_c, 0, 62, 0
1, 249024, Note_on_c, 0, 78, 51
1, 249024, Note_on_c, 0, 67, 51
1, 249168, Note_on_c, 0, 78, 0
1, 249168, Note_on_c, 0, 67, 0
1, 249216, Note_on_c, 0, 77, 51
1, 249216, Note_on_c, 0, 62, 51
1, 249360, Note_on_c, 0, 62, 0
1, 249408, Note_on_c, 0, 67, 51
1, 249552, Note_on_c, 0, 67, 0
1, 249596, Note_on_c, 0, 77, 0
1, 249600, Note_on_c, 0, 59, 51
1, 249744, Note_on_c, 0, 59, 0
1, 249792, Note_on_c, 0, 77, 51
1, 249792, Note_on_c, 0, 67, 51
1, 249936, Note_on_c, 0, 77, 0
1, 249936, Note_on_c, 0, 67, 0
1, 249984, Note_on_c, 0, 80, 51
1, 249984, Note_on_c, 0, 59, 51
1, 250128, Note_on_c, 0, 80, 0
1, 250128, Note_on_c, 0, 59, 0
1, 250176, Note_on_c, 0, 77, 51
1, 250176, Note_on_c, 0, 67, 51
1, 250320, Note_on_c, 0, 77, 0
1, 250320, Note_on_c, 0, 67, 0
1, 250368, Note_on_c, 0, 77, 72
1, 250368, Note_on_c, 0, 61, 51
1, 250368, Note_on_c, 0, 58, 51
1, 250512, Note_on_c, 0, 77, 0
1, 250512, Note_on_c, 0, 61, 0
1, 250512, Note_on_c, 0, 58, 0
1, 250560, Note_on_c, 0, 76, 72
1, 250560, Note_on_c, 0, 67, 51
1, 250704, Note_on_c, 0, 76, 0
1, 250704, Note_on_c, 0, 67, 0
1, 250752, Note_on_c, 0, 85, 51
1, 250752, Note_on_c, 0, 61, 51
1, 250752, Note_on_c, 0, 58, 51
1, 250896, Note_on_c, 0, 61, 0
1, 250896, Note_on_c, 0, 58, 0
1, 250944, Note_on_c, 0, 67, 51
1, 251088, Note_on_c, 0, 67, 0
1, 251136, Note_on_c, 0, 61, 51
1, 251136, Note_on_c, 0, 58, 51
1, 251280, Note_on_c, 0, 61, 0
1, 251280, Note_on_c, 0, 58, 0
1, 251328, Note_on_c, 0, 67, 51
1, 251472, Note_on_c, 0, 67, 0
1, 251516, Note_on_c, 0, 85, 0
1, 251520, Note_on_c, 0, 61, 51
1, 251520, Note_on_c, 0, 58, 51
1, 251520, Note_on_c, 0, 76, 51
1, 251664, Note_on_c, 0, 61, 0
1, 251664, Note_on_c, 0, 58, 0
1, 251712, Note_on_c, 0, 67, 51
1, 251856, Note_on_c, 0, 67, 0
1, 251900, Note_on_c, 0, 76, 0
1, 251904, Note_on_c, 0, 79, 51
1, 251904, Note_on_c, 0, 60, 51
1, 251904, Note_on_c, 0, 56, 51
1, 252048, Note_on_c, 0, 60, 0
1, 252048, Note_on_c, 0, 56, 0
1, 252096, Note_on_c, 0, 64, 51
1, 252240, Note_on_c, 0, 64, 0
1, 252284, Note_on_c, 0, 79, 0
1, 252288, Note_on_c, 0, 77, 51
1, 252288, Note_on_c, 0, 60, 51
1, 252288, Note_on_c, 0, 56, 51
1, 252432, Note_on_c, 0, 60, 0
1, 252432, Note_on_c, 0, 56, 0
1, 252480, Note_on_c, 0, 65, 51
1, 252624, Note_on_c, 0, 65, 0
1, 252668, Note_on_c, 0, 77, 0
1, 252672, Note_on_c, 0, 60, 51
1, 252672, Note_on_c, 0, 56, 51
1, 252816, Note_on_c, 0, 60, 0
1, 252816, Note_on_c, 0, 56, 0
1, 252864, Note_on_c, 0, 77, 51
1, 252864, Note_on_c, 0, 65, 51
1, 253008, Note_on_c, 0, 77, 0
1, 253008, Note_on_c, 0, 65, 0
1, 253056, Note_on_c, 0, 84, 51
1, 253056, Note_on_c, 0, 60, 51
1, 253056, Note_on_c, 0, 56, 51
1, 253200, Note_on_c, 0, 84, 0
1, 253200, Note_on_c, 0, 60, 0
1, 253200, Note_on_c, 0, 56, 0
1, 253248, Note_on_c, 0, 80, 51
1, 253248, Note_on_c, 0, 65, 51
1, 253392, Note_on_c, 0, 80, 0
1, 253392, Note_on_c, 0, 65, 0
1, 253440, Note_on_c, 0, 79, 72
1, 253440, Note_on_c, 0, 63, 51
1, 253440, Note_on_c, 0, 60, 51
1, 253584, Note_on_c, 0, 79, 0
1, 253584, Note_on_c, 0, 63, 0
1, 253584, Note_on_c, 0, 60, 0
1, 253632, Note_on_c, 0, 78, 72
1, 253632, Note_on_c, 0, 69, 51
1, 253776, Note_on_c, 0, 78, 0
1, 253776, Note_on_c, 0, 69, 0
1, 253824, Note_on_c, 0, 63, 51
1, 253824, Note_on_c, 0, 60, 51
1, 253824, Note_on_c, 0, 87, 51
1, 253968, Note_on_c, 0, 63, 0
1, 253968, Note_on_c, 0, 60, 0
1, 254016, Note_on_c, 0, 69, 51
1, 254160, Note_on_c, 0, 69, 0
1, 254208, Note_on_c, 0, 63, 51
1, 254208, Note_on_c, 0, 60, 51
1, 254352, Note_on_c, 0, 63, 0
1, 254352, Note_on_c, 0, 60, 0
1, 254400, Note_on_c, 0, 69, 51
1, 254544, Note_on_c, 0, 69, 0
1, 254588, Note_on_c, 0, 87, 0
1, 254592, Note_on_c, 0, 63, 51
1, 254592, Note_on_c, 0, 60, 51
1, 254592, Note_on_c, 0, 78, 51
1, 254736, Note_on_c, 0, 63, 0
1, 254736, Note_on_c, 0, 60, 0
1, 254784, Note_on_c, 0, 69, 51
1, 254928, Note_on_c, 0, 69, 0
1, 254972, Note_on_c, 0, 78, 0
1, 254976, Note_on_c, 0, 81, 41
1, 254976, Note_on_c, 0, 62, 41
1, 254976, Note_on_c, 0, 59, 41
1, 255120, Note_on_c, 0, 81, 0
1, 255168, Note_on_c, 0, 79, 41
1, 255312, Note_on_c, 0, 79, 0
1, 255356, Note_on_c, 0, 62, 0
1, 255356, Note_on_c, 0, 59, 0
1, 255360, Note_on_c, 0, 78, 41
1, 255504, Note_on_c, 0, 78, 0
1, 255552, Note_on_c, 0, 79, 41
1, 255696, Note_on_c, 0, 79, 0
1, 255744, Note_on_c, 0, 78, 41
1, 255888, Note_on_c, 0, 78, 0
1, 255936, Note_on_c, 0, 79, 41
1, 256080, Note_on_c, 0, 79, 0
1, 256128, Note_on_c, 0, 78, 41
1, 256272, Note_on_c, 0, 78, 0
1, 256320, Note_on_c, 0, 79, 41
1, 256464, Note_on_c, 0, 79, 0
1, 256512, Note_on_c, 0, 77, 46
1, 256656, Note_on_c, 0, 77, 0
1, 256704, Note_on_c, 0, 79, 51
1, 256704, Note_on_c, 0, 67, 51
1, 256848, Note_on_c, 0, 79, 0
1, 256848, Note_on_c, 0, 67, 0
1, 256896, Note_on_c, 0, 77, 55
1, 256896, Note_on_c, 0, 66, 55
1, 257040, Note_on_c, 0, 77, 0
1, 257040, Note_on_c, 0, 66, 0
1, 257088, Note_on_c, 0, 79, 57
1, 257088, Note_on_c, 0, 67, 57
1, 257232, Note_on_c, 0, 79, 0
1, 257232, Note_on_c, 0, 67, 0
1, 257280, Note_on_c, 0, 80, 61
1, 257280, Note_on_c, 0, 68, 61
1, 257424, Note_on_c, 0, 80, 0
1, 257424, Note_on_c, 0, 68, 0
1, 257472, Note_on_c, 0, 81, 66
1, 257472, Note_on_c, 0, 69, 66
1, 257616, Note_on_c, 0, 81, 0
1, 257616, Note_on_c, 0, 69, 0
1, 257664, Note_on_c, 0, 82, 67
1, 257664, Note_on_c, 0, 70, 67
1, 257808, Note_on_c, 0, 82, 0
1, 257808, Note_on_c, 0, 70, 0
1, 257856, Note_on_c, 0, 83, 70
1, 257856, Note_on_c, 0, 71, 70
1, 258000, Note_on_c, 0, 83, 0
1, 258000, Note_on_c, 0, 71, 0
1, 258048, Note_on_c, 0, 84, 72
1, 258048, Note_on_c, 0, 72, 72
1, 258048, Note_on_c, 1, 57, 72
1, 258192, Note_on_c, 0, 84, 0
1, 258192, Note_on_c, 0, 72, 0
1, 258192, Note_on_c, 1, 57, 0
1, 258240, Note_on_c, 0, 84, 72
1, 258240, Note_on_c, 0, 72, 72
1, 258240, Note_on_c, 1, 60, 72
1, 258384, Note_on_c, 0, 84, 0
1, 258384, Note_on_c, 0, 72, 0
1, 258384, Note_on_c, 1, 60, 0
1, 258432, Note_on_c, 0, 84, 72
1, 258432, Note_on_c, 0, 72, 72
1, 258432, Note_on_c, 1, 57, 72
1, 258576, Note_on_c, 1, 57, 0
1, 258624, Note_on_c, 1, 60, 72
1, 258768, Note_on_c, 1, 60, 0
1, 258816, Note_on_c, 1, 53, 51
1, 258960, Note_on_c, 1, 53, 0
1, 259008, Note_on_c, 1, 60, 51
1, 259152, Note_on_c, 1, 60, 0
1, 259196, Note_on_c, 0, 84, 0
1, 259196, Note_on_c, 0, 72, 0
1, 259200, Note_on_c, 0, 83, 51
1, 259200, Note_on_c, 1, 53, 51
1, 259344, Note_on_c, 0, 83, 0
1, 259344, Note_on_c, 1, 53, 0
1, 259392, Note_on_c, 0, 81, 51
1, 259392, Note_on_c, 1, 60, 51
1, 259536, Note_on_c, 0, 81, 0
1, 259536, Note_on_c, 1, 60, 0
1, 259584, Note_on_c, 0, 79, 72
1, 259584, Note_on_c, 0, 72, 72
1, 259584, Note_on_c, 1, 52, 72
1, 259728, Note_on_c, 0, 79, 0
1, 259728, Note_on_c, 0, 72, 0
1, 259728, Note_on_c, 1, 52, 0
1, 259776, Note_on_c, 0, 79, 72
1, 259776, Note_on_c, 0, 72, 72
1, 259776, Note_on_c, 1, 60, 72
1, 259920, Note_on_c, 0, 79, 0
1, 259920, Note_on_c, 0, 72, 0
1, 259920, Note_on_c, 1, 60, 0
1, 259968, Note_on_c, 0, 79, 72
1, 259968, Note_on_c, 0, 72, 72
1, 259968, Note_on_c, 1, 52, 72
1, 260112, Note_on_c, 1, 52, 0
1, 260160, Note_on_c, 1, 60, 72
1, 260304, Note_on_c, 1, 60, 0
1, 260352, Note_on_c, 1, 48, 51
1, 260496, Note_on_c, 1, 48, 0
1, 260544, Note_on_c, 1, 60, 51
1, 260688, Note_on_c, 1, 60, 0
1, 260732, Note_on_c, 0, 79, 0
1, 260732, Note_on_c, 0, 72, 0
1, 260736, Note_on_c, 0, 77, 51
1, 260736, Note_on_c, 1, 48, 51
1, 260880, Note_on_c, 0, 77, 0
1, 260880, Note_on_c, 1, 48, 0
1, 260928, Note_on_c, 0, 76, 51
1, 260928, Note_on_c, 1, 60, 51
1, 261072, Note_on_c, 0, 76, 0
1, 261072, Note_on_c, 1, 60, 0
1, 261120, Note_on_c, 0, 76, 51
1, 261120, Note_on_c, 1, 53, 51
1, 261212, Note_on_c, 0, 76, 0
1, 261216, Note_on_c, 0, 74, 51
1, 261264, Note_on_c, 1, 53, 0
1, 261308, Note_on_c, 0, 74, 0
1, 261312, Note_on_c, 0, 77, 51
1, 261312, Note_on_c, 1, 57, 51
1, 261404, Note_on_c, 0, 77, 0
1, 261408, Note_on_c, 0, 76, 51
1, 261456, Note_on_c, 1, 57, 0
1, 261500, Note_on_c, 0, 76, 0
1, 261504, Note_on_c, 0, 79, 51
1, 261504, Note_on_c, 1, 53, 51
1, 261548, Note_on_c, 0, 79, 0
1, 261552, Note_on_c, 0, 77, 51
1, 261648, Note_on_c, 1, 53, 0
1, 261692, Note_on_c, 0, 77, 0
1, 261696, Note_on_c, 0, 76, 51
1, 261696, Note_on_c, 1, 62, 51
1, 261788, Note_on_c, 0, 76, 0
1, 261792, Note_on_c, 0, 74, 51
1, 261840, Note_on_c, 1, 62, 0
1, 261884, Note_on_c, 0, 74, 0
1, 261888, Note_on_c, 0, 72, 51
1, 261888, Note_on_c, 1, 55, 51
1, 262032, Note_on_c, 1, 55, 0
1, 262080, Note_on_c, 1, 64, 51
1, 262224, Note_on_c, 1, 64, 0
1, 262268, Note_on_c, 0, 72, 0
1, 262272, Note_on_c, 0, 71, 51
1, 262272, Note_on_c, 1, 55, 51
1, 262316, Note_on_c, 0, 71, 0
1, 262320, Note_on_c, 0, 72, 51
1, 262364, Note_on_c, 0, 72, 0
1, 262368, Note_on_c, 0, 71, 51
1, 262412, Note_on_c, 0, 71, 0
1, 262416, Note_on_c, 0, 72, 51
1, 262416, Note_on_c, 1, 55, 0
1, 262460, Note_on_c, 0, 72, 0
1, 262464, Note_on_c, 0, 69, 51
1, 262464, Note_on_c, 1, 62, 51
1, 262556, Note_on_c, 0, 69, 0
1, 262560, Note_on_c, 0, 71, 51
1, 262608, Note_on_c, 1, 62, 0
1, 262652, Note_on_c, 0, 71, 0
1, 262656, Note_on_c, 0, 84, 72
1, 262656, Note_on_c, 0, 72, 72
1, 262656, Note_on_c, 1, 57, 72
1, 262800, Note_on_c, 0, 84, 0
1, 262800, Note_on_c, 0, 72, 0
1, 262800, Note_on_c, 1, 57, 0
1, 262848, Note_on_c, 0, 84, 72
1, 262848, Note_on_c, 0, 72, 72
1, 262848, Note_on_c, 1, 60, 72
1, 262992, Note_on_c, 0, 84, 0
1, 262992, Note_on_c, 0, 72, 0
1, 262992, Note_on_c, 1, 60, 0
1, 263040, Note_on_c, 0, 84, 72
1, 263040, Note_on_c, 0, 72, 72
1, 263040, Note_on_c, 1, 57, 72
1, 263184, Note_on_c, 1, 57, 0
1, 263232, Note_on_c, 1, 60, 72
1, 263376, Note_on_c, 1, 60, 0
1, 263424, Note_on_c, 1, 53, 51
1, 263568, Note_on_c, 1, 53, 0
1, 263612, Note_on_c, 0, 84, 0
1, 263612, Note_on_c, 0, 72, 0
1, 263616, Note_on_c, 0, 86, 51
1, 263616, Note_on_c, 1, 60, 51
1, 263708, Note_on_c, 0, 86, 0
1, 263712, Note_on_c, 0, 84, 51
1, 263760, Note_on_c, 1, 60, 0
1, 263804, Note_on_c, 0, 84, 0
1, 263808, Note_on_c, 0, 83, 51
1, 263808, Note_on_c, 1, 53, 51
1, 263952, Note_on_c, 1, 53, 0
1, 263996, Note_on_c, 0, 83, 0
1, 264000, Note_on_c, 0, 81, 51
1, 264000, Note_on_c, 1, 60, 51
1, 264144, Note_on_c, 1, 60, 0
1, 264188, Note_on_c, 0, 81, 0
1, 264192, Note_on_c, 0, 79, 72
1, 264192, Note_on_c, 0, 72, 72
1, 264192, Note_on_c, 1, 52, 72
1, 264336, Note_on_c, 0, 79, 0
1, 264336, Note_on_c, 0, 72, 0
1, 264336, Note_on_c, 1, 52, 0
1, 264384, Note_on_c, 0, 79, 72
1, 264384, Note_on_c, 0, 72, 72
1, 264384, Note_on_c, 1, 60, 72
1, 264528, Note_on_c, 0, 79, 0
1, 264528, Note_on_c, 0, 72, 0
1, 264528, Note_on_c, 1, 60, 0
1, 264576, Note_on_c, 0, 79, 72
1, 264576, Note_on_c, 0, 72, 72
1, 264576, Note_on_c, 1, 52, 72
1, 264720, Note_on_c, 1, 52, 0
1, 264768, Note_on_c, 1, 62, 72
1, 264912, Note_on_c, 1, 62, 0
1, 264960, Note_on_c, 1, 48, 51
1, 265104, Note_on_c, 1, 48, 0
1, 265148, Note_on_c, 0, 79, 0
1, 265148, Note_on_c, 0, 72, 0
1, 265152, Note_on_c, 0, 81, 51
1, 265152, Note_on_c, 1, 60, 51
1, 265244, Note_on_c, 0, 81, 0
1, 265248, Note_on_c, 0, 79, 51
1, 265296, Note_on_c, 1, 60, 0
1, 265340, Note_on_c, 0, 79, 0
1, 265344, Note_on_c, 0, 77, 51
1, 265344, Note_on_c, 1, 48, 51
1, 265488, Note_on_c, 1, 48, 0
1, 265532, Note_on_c, 0, 77, 0
1, 265536, Note_on_c, 0, 76, 51
1, 265536, Note_on_c, 1, 60, 51
1, 265680, Note_on_c, 1, 60, 0
1, 265724, Note_on_c, 0, 76, 0
1, 265728, Note_on_c, 0, 76, 51
1, 265728, Note_on_c, 1, 53, 51
1, 265820, Note_on_c, 0, 76, 0
1, 265824, Note_on_c, 0, 74, 51
1, 265872, Note_on_c, 1, 53, 0
1, 265916, Note_on_c, 0, 74, 0
1, 265920, Note_on_c, 0, 81, 51
1, 265920, Note_on_c, 1, 60, 51
1, 266012, Note_on_c, 0, 81, 0
1, 266016, Note_on_c, 0, 80, 51
1, 266064, Note_on_c, 1, 60, 0
1, 266108, Note_on_c, 0, 80, 0
1, 266112, Note_on_c, 0, 83, 51
1, 266112, Note_on_c, 1, 53, 51
1, 266156, Note_on_c, 0, 83, 0
1, 266160, Note_on_c, 0, 81, 51
1, 266256, Note_on_c, 1, 53, 0
1, 266300, Note_on_c, 0, 81, 0
1, 266304, Note_on_c, 0, 79, 51
1, 266304, Note_on_c, 1, 60, 51
1, 266396, Note_on_c, 0, 79, 0
1, 266400, Note_on_c, 0, 77, 51
1, 266448, Note_on_c, 1, 60, 0
1, 266492, Note_on_c, 0, 77, 0
1, 266496, Note_on_c, 0, 76, 51
1, 266496, Note_on_c, 1, 55, 51
1, 266640, Note_on_c, 1, 55, 0
1, 266688, Note_on_c, 1, 60, 51
1, 266832, Note_on_c, 1, 60, 0
1, 266876, Note_on_c, 0, 76, 0
1, 266880, Note_on_c, 0, 74, 51
1, 266880, Note_on_c, 1, 55, 51
1, 266924, Note_on_c, 0, 74, 0
1, 266928, Note_on_c, 0, 76, 51
1, 266972, Note_on_c, 0, 76, 0
1, 266976, Note_on_c, 0, 74, 51
1, 267020, Note_on_c, 0, 74, 0
1, 267024, Note_on_c, 0, 76, 51
1, 267024, Note_on_c, 1, 55, 0
1, 267068, Note_on_c, 0, 76, 0
1, 267072, Note_on_c, 0, 72, 51
1, 267072, Note_on_c, 1, 60, 51
1, 267164, Note_on_c, 0, 72, 0
1, 267168, Note_on_c, 0, 74, 51
1, 267216, Note_on_c, 1, 60, 0
1, 267260, Note_on_c, 0, 74, 0
1, 267264, Note_on_c, 0, 72, 72
1, 267264, Note_on_c, 1, 64, 51
1, 267264, Note_on_c, 1, 60, 51
1, 267408, Note_on_c, 1, 64, 0
1, 267408, Note_on_c, 1, 60, 0
1, 267456, Note_on_c, 1, 64, 51
1, 267456, Note_on_c, 1, 60, 51
1, 267504, Note_on_c, 0, 72, 0
1, 267600, Note_on_c, 1, 64, 0
1, 267600, Note_on_c, 1, 60, 0
1, 267648, Note_on_c, 1, 60, 51
1, 267648, Note_on_c, 1, 64, 51
1, 267792, Note_on_c, 0, 74, 51
1, 267792, Note_on_c, 1, 60, 0
1, 267792, Note_on_c, 1, 64, 0
1, 267836, Note_on_c, 0, 74, 0
1, 267840, Note_on_c, 0, 72, 51
1, 267840, Note_on_c, 1, 64, 51
1, 267840, Note_on_c, 1, 60, 51
1, 267932, Note_on_c, 0, 72, 0
1, 267936, Note_on_c, 0, 71, 51
1, 267984, Note_on_c, 1, 64, 0
1, 267984, Note_on_c, 1, 60, 0
1, 268028, Note_on_c, 0, 71, 0
1, 268032, Note_on_c, 0, 72, 51
1, 268032, Note_on_c, 1, 64, 51
1, 268032, Note_on_c, 1, 60, 51
1, 268176, Note_on_c, 0, 72, 0
1, 268176, Note_on_c, 1, 64, 0
1, 268176, Note_on_c, 1, 60, 0
1, 268224, Note_on_c, 0, 75, 51
1, 268224, Note_on_c, 1, 64, 51
1, 268224, Note_on_c, 1, 60, 51
1, 268368, Note_on_c, 0, 75, 0
1, 268368, Note_on_c, 1, 64, 0
1, 268368, Note_on_c, 1, 60, 0
1, 268416, Note_on_c, 0, 76, 51
1, 268416, Note_on_c, 1, 64, 51
1, 268416, Note_on_c, 1, 60, 51
1, 268560, Note_on_c, 0, 76, 0
1, 268560, Note_on_c, 1, 64, 0
1, 268560, Note_on_c, 1, 60, 0
1, 268608, Note_on_c, 0, 78, 51
1, 268608, Note_on_c, 1, 60, 51
1, 268608, Note_on_c, 1, 64, 51
1, 268752, Note_on_c, 0, 78, 0
1, 268752, Note_on_c, 1, 60, 0
1, 268752, Note_on_c, 1, 64, 0
1, 268800, Note_on_c, 0, 79, 51
1, 268800, Note_on_c, 1, 60, 51
1, 268800, Note_on_c, 1, 64, 51
1, 268944, Note_on_c, 0, 79, 0
1, 268944, Note_on_c, 1, 60, 0
1, 268944, Note_on_c, 1, 64, 0
1, 268992, Note_on_c, 0, 83, 51
1, 268992, Note_on_c, 1, 64, 51
1, 268992, Note_on_c, 1, 60, 51
1, 269136, Note_on_c, 0, 83, 0
1, 269136, Note_on_c, 0, 84, 51
1, 269136, Note_on_c, 1, 64, 0
1, 269136, Note_on_c, 1, 60, 0
1, 269184, Note_on_c, 1, 64, 51
1, 269184, Note_on_c, 1, 60, 51
1, 269280, Note_on_c, 0, 84, 0
1, 269328, Note_on_c, 1, 64, 0
1, 269328, Note_on_c, 1, 60, 0
1, 269376, Note_on_c, 0, 87, 51
1, 269376, Note_on_c, 1, 64, 51
1, 269376, Note_on_c, 1, 60, 51
1, 269520, Note_on_c, 0, 87, 0
1, 269520, Note_on_c, 1, 64, 0
1, 269520, Note_on_c, 1, 60, 0
1, 269568, Note_on_c, 0, 88, 51
1, 269568, Note_on_c, 1, 64, 51
1, 269568, Note_on_c, 1, 60, 51
1, 269712, Note_on_c, 1, 64, 0
1, 269712, Note_on_c, 1, 60, 0
1, 269760, Note_on_c, 1, 64, 51
1, 269760, Note_on_c, 1, 60, 51
1, 269904, Note_on_c, 1, 64, 0
1, 269904, Note_on_c, 1, 60, 0
1, 269948, Note_on_c, 0, 88, 0
1, 269952, Note_on_c, 1, 60, 51
1, 269952, Note_on_c, 1, 64, 51
1, 270096, Note_on_c, 1, 60, 0
1, 270096, Note_on_c, 1, 64, 0
1, 270144, Note_on_c, 1, 64, 51
1, 270144, Note_on_c, 1, 60, 51
1, 270288, Note_on_c, 1, 64, 0
1, 270288, Note_on_c, 1, 60, 0
1, 270336, Note_on_c, 0, 74, 72
1, 270336, Note_on_c, 1, 59, 51
1, 270336, Note_on_c, 1, 62, 51
1, 270352, Note_on_c, 0, 79, 72
1, 270372, Note_on_c, 0, 86, 72
1, 270480, Note_on_c, 1, 59, 0
1, 270480, Note_on_c, 1, 62, 0
1, 270528, Note_on_c, 1, 59, 51
1, 270528, Note_on_c, 1, 62, 51
1, 270672, Note_on_c, 1, 59, 0
1, 270672, Note_on_c, 1, 62, 0
1, 270716, Note_on_c, 0, 74, 0
1, 270720, Note_on_c, 1, 59, 51
1, 270720, Note_on_c, 1, 62, 51
1, 270732, Note_on_c, 0, 79, 0
1, 270752, Note_on_c, 0, 86, 0
1, 270864, Note_on_c, 0, 72, 51
1, 270864, Note_on_c, 1, 59, 0
1, 270864, Note_on_c, 1, 62, 0
1, 270908, Note_on_c, 0, 72, 0
1, 270912, Note_on_c, 0, 71, 51
1, 270912, Note_on_c, 1, 59, 51
1, 270912, Note_on_c, 1, 62, 51
1, 271004, Note_on_c, 0, 71, 0
1, 271008, Note_on_c, 0, 69, 51
1, 271056, Note_on_c, 1, 59, 0
1, 271056, Note_on_c, 1, 62, 0
1, 271100, Note_on_c, 0, 69, 0
1, 271104, Note_on_c, 0, 71, 51
1, 271104, Note_on_c, 1, 59, 51
1, 271104, Note_on_c, 1, 62, 51
1, 271248, Note_on_c, 0, 71, 0
1, 271248, Note_on_c, 1, 59, 0
1, 271248, Note_on_c, 1, 62, 0
1, 271296, Note_on_c, 0, 73, 51
1, 271296, Note_on_c, 1, 59, 51
1, 271296, Note_on_c, 1, 62, 51
1, 271440, Note_on_c, 0, 73, 0
1, 271440, Note_on_c, 1, 59, 0
1, 271440, Note_on_c, 1, 62, 0
1, 271488, Note_on_c, 0, 74, 51
1, 271488, Note_on_c, 1, 59, 51
1, 271488, Note_on_c, 1, 62, 51
1, 271632, Note_on_c, 0, 74, 0
1, 271632, Note_on_c, 1, 59, 0
1, 271632, Note_on_c, 1, 62, 0
1, 271680, Note_on_c, 0, 78, 51
1, 271680, Note_on_c, 1, 59, 51
1, 271680, Note_on_c, 1, 62, 51
1, 271824, Note_on_c, 0, 78, 0
1, 271824, Note_on_c, 1, 59, 0
1, 271824, Note_on_c, 1, 62, 0
1, 271872, Note_on_c, 0, 79, 51
1, 271872, Note_on_c, 1, 59, 51
1, 271872, Note_on_c, 1, 62, 51
1, 272016, Note_on_c, 0, 79, 0
1, 272016, Note_on_c, 1, 59, 0
1, 272016, Note_on_c, 1, 62, 0
1, 272064, Note_on_c, 0, 81, 51
1, 272064, Note_on_c, 1, 59, 51
1, 272064, Note_on_c, 1, 62, 51
1, 272208, Note_on_c, 0, 81, 0
1, 272208, Note_on_c, 1, 59, 0
1, 272208, Note_on_c, 1, 62, 0
1, 272256, Note_on_c, 0, 83, 51
1, 272256, Note_on_c, 1, 59, 51
1, 272256, Note_on_c, 1, 62, 51
1, 272400, Note_on_c, 0, 83, 0
1, 272400, Note_on_c, 1, 59, 0
1, 272400, Note_on_c, 1, 62, 0
1, 272448, Note_on_c, 0, 85, 51
1, 272448, Note_on_c, 1, 59, 51
1, 272448, Note_on_c, 1, 62, 51
1, 272592, Note_on_c, 0, 85, 0
1, 272592, Note_on_c, 1, 59, 0
1, 272592, Note_on_c, 1, 62, 0
1, 272640, Note_on_c, 0, 86, 51
1, 272640, Note_on_c, 1, 59, 51
1, 272640, Note_on_c, 1, 62, 51
1, 272784, Note_on_c, 1, 59, 0
1, 272784, Note_on_c, 1, 62, 0
1, 272832, Note_on_c, 1, 59, 51
1, 272832, Note_on_c, 1, 62, 51
1, 272976, Note_on_c, 1, 59, 0
1, 272976, Note_on_c, 1, 62, 0
1, 273020, Note_on_c, 0, 86, 0
1, 273024, Note_on_c, 1, 59, 51
1, 273024, Note_on_c, 1, 62, 51
1, 273168, Note_on_c, 1, 59, 0
1, 273168, Note_on_c, 1, 62, 0
1, 273216, Note_on_c, 1, 59, 51
1, 273216, Note_on_c, 1, 62, 51
1, 273360, Note_on_c, 1, 59, 0
1, 273360, Note_on_c, 1, 62, 0
1, 273408, Note_on_c, 0, 72, 72
1, 273408, Note_on_c, 1, 54, 51
1, 273408, Note_on_c, 1, 57, 51
1, 273408, Note_on_c, 1, 62, 51
1, 273424, Note_on_c, 0, 78, 72
1, 273444, Note_on_c, 0, 84, 72
1, 273552, Note_on_c, 1, 54, 0
1, 273552, Note_on_c, 1, 57, 0
1, 273552, Note_on_c, 1, 62, 0
1, 273600, Note_on_c, 1, 54, 51
1, 273600, Note_on_c, 1, 57, 51
1, 273600, Note_on_c, 1, 62, 51
1, 273744, Note_on_c, 1, 54, 0
1, 273744, Note_on_c, 1, 57, 0
1, 273744, Note_on_c, 1, 62, 0
1, 273788, Note_on_c, 0, 72, 0
1, 273792, Note_on_c, 1, 54, 51
1, 273792, Note_on_c, 1, 57, 51
1, 273792, Note_on_c, 1, 62, 51
1, 273804, Note_on_c, 0, 78, 0
1, 273824, Note_on_c, 0, 84, 0
1, 273936, Note_on_c, 0, 71, 51
1, 273936, Note_on_c, 1, 54, 0
1, 273936, Note_on_c, 1, 57, 0
1, 273936, Note_on_c, 1, 62, 0
1, 273980, Note_on_c, 0, 71, 0
1, 273984, Note_on_c, 0, 69, 51
1, 273984, Note_on_c, 1, 54, 51
1, 273984, Note_on_c, 1, 57, 51
1, 273984, Note_on_c, 1, 62, 51
1, 274076, Note_on_c, 0, 69, 0
1, 274080, Note_on_c, 0, 68, 51
1, 274128, Note_on_c, 1, 54, 0
1, 274128, Note_on_c, 1, 57, 0
1, 274128, Note_on_c, 1, 62, 0
1, 274172, Note_on_c, 0, 68, 0
1, 274176, Note_on_c, 0, 69, 51
1, 274176, Note_on_c, 1, 54, 51
1, 274176, Note_on_c, 1, 57, 51
1, 274176, Note_on_c, 1, 62, 51
1, 274320, Note_on_c, 0, 69, 0
1, 274320, Note_on_c, 1, 54, 0
1, 274320, Note_on_c, 1, 57, 0
1, 274320, Note_on_c, 1, 62, 0
1, 274368, Note_on_c, 0, 71, 51
1, 274368, Note_on_c, 1, 54, 51
1, 274368, Note_on_c, 1, 57, 51
1, 274368, Note_on_c, 1, 62, 51
1, 274512, Note_on_c, 0, 71, 0
1, 274512, Note_on_c, 1, 54, 0
1, 274512, Note_on_c, 1, 57, 0
1, 274512, Note_on_c, 1, 62, 0
1, 274560, Note_on_c, 0, 72, 51
1, 274560, Note_on_c, 1, 54, 51
1, 274560, Note_on_c, 1, 57, 51
1, 274560, Note_on_c, 1, 62, 51
1, 274704, Note_on_c, 0, 72, 0
1, 274704, Note_on_c, 1, 54, 0
1, 274704, Note_on_c, 1, 57, 0
1, 274704, Note_on_c, 1, 62, 0
1, 274752, Note_on_c, 0, 77, 51
1, 274752, Note_on_c, 1, 54, 51
1, 274752, Note_on_c, 1, 57, 51
1, 274752, Note_on_c, 1, 62, 51
1, 274896, Note_on_c, 0, 77, 0
1, 274896, Note_on_c, 1, 54, 0
1, 274896, Note_on_c, 1, 57, 0
1, 274896, Note_on_c, 1, 62, 0
1, 274944, Note_on_c, 0, 78, 51
1, 274944, Note_on_c, 1, 54, 51
1, 274944, Note_on_c, 1, 57, 51
1, 274944, Note_on_c, 1, 62, 51
1, 275088, Note_on_c, 0, 78, 0
1, 275088, Note_on_c, 1, 54, 0
1, 275088, Note_on_c, 1, 57, 0
1, 275088, Note_on_c, 1, 62, 0
1, 275136, Note_on_c, 0, 80, 51
1, 275136, Note_on_c, 1, 54, 51
1, 275136, Note_on_c, 1, 57, 51
1, 275136, Note_on_c, 1, 62, 51
1, 275280, Note_on_c, 0, 80, 0
1, 275280, Note_on_c, 1, 54, 0
1, 275280, Note_on_c, 1, 57, 0
1, 275280, Note_on_c, 1, 62, 0
1, 275328, Note_on_c, 0, 81, 51
1, 275328, Note_on_c, 1, 54, 51
1, 275328, Note_on_c, 1, 57, 51
1, 275328, Note_on_c, 1, 62, 51
1, 275472, Note_on_c, 0, 81, 0
1, 275472, Note_on_c, 1, 54, 0
1, 275472, Note_on_c, 1, 57, 0
1, 275472, Note_on_c, 1, 62, 0
1, 275520, Note_on_c, 0, 83, 51
1, 275520, Note_on_c, 1, 54, 51
1, 275520, Note_on_c, 1, 57, 51
1, 275520, Note_on_c, 1, 62, 51
1, 275664, Note_on_c, 0, 83, 0
1, 275664, Note_on_c, 1, 54, 0
1, 275664, Note_on_c, 1, 57, 0
1, 275664, Note_on_c, 1, 62, 0
1, 275712, Note_on_c, 0, 84, 51
1, 275712, Note_on_c, 1, 54, 51
1, 275712, Note_on_c, 1, 57, 51
1, 275712, Note_on_c, 1, 62, 51
1, 275856, Note_on_c, 1, 54, 0
1, 275856, Note_on_c, 1, 57, 0
1, 275856, Note_on_c, 1, 62, 0
1, 275904, Note_on_c, 1, 54, 51
1, 275904, Note_on_c, 1, 57, 51
1, 275904, Note_on_c, 1, 62, 51
1, 276048, Note_on_c, 1, 54, 0
1, 276048, Note_on_c, 1, 57, 0
1, 276048, Note_on_c, 1, 62, 0
1, 276092, Note_on_c, 0, 84, 0
1, 276096, Note_on_c, 1, 54, 51
1, 276096, Note_on_c, 1, 57, 51
1, 276096, Note_on_c, 1, 62, 51
1, 276240, Note_on_c, 1, 54, 0
1, 276240, Note_on_c, 1, 57, 0
1, 276240, Note_on_c, 1, 62, 0
1, 276288, Note_on_c, 1, 57, 51
1, 276288, Note_on_c, 1, 62, 51
1, 276288, Note_on_c, 1, 54, 51
1, 276432, Note_on_c, 1, 57, 0
1, 276432, Note_on_c, 1, 62, 0
1, 276432, Note_on_c, 1, 54, 0
1, 276480, Note_on_c, 0, 83, 72
1, 276480, Note_on_c, 1, 62, 72
1, 276480, Note_on_c, 1, 55, 72
1, 276572, Note_on_c, 0, 83, 0
1, 276576, Note_on_c, 0, 81, 72
1, 276668, Note_on_c, 0, 81, 0
1, 276672, Note_on_c, 0, 84, 72
1, 276764, Note_on_c, 0, 84, 0
1, 276768, Note_on_c, 0, 83, 72
1, 276860, Note_on_c, 0, 83, 0
1, 276864, Note_on_c, 0, 86, 72
1, 277008, Note_on_c, 0, 86, 0
1, 277008, Note_on_c, 1, 62, 0
1, 277008, Note_on_c, 1, 55, 0
1, 277056, Note_on_c, 0, 78, 72
1, 277200, Note_on_c, 0, 78, 0
1, 277248, Note_on_c, 0, 79, 72
1, 277248, Note_on_c, 1, 59, 72
1, 277248, Note_on_c, 1, 55, 72
1, 277340, Note_on_c, 0, 79, 0
1, 277344, Note_on_c, 0, 78, 72
1, 277436, Note_on_c, 0, 78, 0
1, 277440, Note_on_c, 0, 81, 72
1, 277532, Note_on_c, 0, 81, 0
1, 277536, Note_on_c, 0, 79, 72
1, 277628, Note_on_c, 0, 79, 0
1, 277632, Note_on_c, 0, 83, 72
1, 277776, Note_on_c, 0, 83, 0
1, 277776, Note_on_c, 1, 59, 0
1, 277776, Note_on_c, 1, 55, 0
1, 277824, Note_on_c, 0, 74, 72
1, 277968, Note_on_c, 0, 74, 0
1, 278016, Note_on_c, 0, 76, 72
1, 278016, Note_on_c, 1, 60, 72
1, 278016, Note_on_c, 1, 55, 72
1, 278108, Note_on_c, 0, 76, 0
1, 278112, Note_on_c, 0, 75, 72
1, 278204, Note_on_c, 0, 75, 0
1, 278208, Note_on_c, 0, 78, 72
1, 278300, Note_on_c, 0, 78, 0
1, 278304, Note_on_c, 0, 76, 72
1, 278396, Note_on_c, 0, 76, 0
1, 278400, Note_on_c, 0, 79, 72
1, 278544, Note_on_c, 0, 79, 0
1, 278544, Note_on_c, 1, 60, 0
1, 278544, Note_on_c, 1, 55, 0
1, 278592, Note_on_c, 0, 71, 72
1, 278736, Note_on_c, 0, 71, 0
1, 278784, Note_on_c, 0, 72, 72
1, 278784, Note_on_c, 1, 55, 72
1, 278784, Note_on_c, 1, 64, 72
1, 278876, Note_on_c, 0, 72, 0
1, 278880, Note_on_c, 0, 71, 72
1, 278972, Note_on_c, 0, 71, 0
1, 278976, Note_on_c, 0, 74, 72
1, 279068, Note_on_c, 0, 74, 0
1, 279072, Note_on_c, 0, 72, 72
1, 279164, Note_on_c, 0, 72, 0
1, 279168, Note_on_c, 0, 76, 72
1, 279312, Note_on_c, 0, 76, 0
1, 279312, Note_on_c, 1, 55, 0
1, 279312, Note_on_c, 1, 64, 0
1, 279360, Note_on_c, 0, 69, 72
1, 279504, Note_on_c, 0, 69, 0
1, 279552, Note_on_c, 0, 71, 72
1, 279552, Note_on_c, 1, 67, 72
1, 279552, Note_on_c, 1, 55, 72
1, 279644, Note_on_c, 0, 71, 0
1, 279648, Note_on_c, 0, 69, 72
1, 279740, Note_on_c, 0, 69, 0
1, 279744, Note_on_c, 0, 72, 72
1, 279836, Note_on_c, 0, 72, 0
1, 279840, Note_on_c, 0, 71, 72
1, 279932, Note_on_c, 0, 71, 0
1, 279932, Note_on_c, 1, 67, 0
1, 279932, Note_on_c, 1, 55, 0
1, 279936, Note_on_c, 0, 74, 72
1, 280080, Note_on_c, 0, 74, 0
1, 280128, Note_on_c, 0, 66, 72
1, 280128, Note_on_c, 1, 54, 72
1, 280272, Note_on_c, 0, 66, 0
1, 280272, Note_on_c, 1, 54, 0
1, 280320, Note_on_c, 0, 67, 72
1, 280320, Note_on_c, 1, 55, 72
1, 280412, Note_on_c, 0, 67, 0
1, 280412, Note_on_c, 1, 55, 0
1, 280416, Note_on_c, 0, 66, 72
1, 280416, Note_on_c, 1, 54, 72
1, 280508, Note_on_c, 0, 66, 0
1, 280508, Note_on_c, 1, 54, 0
1, 280512, Note_on_c, 0, 69, 72
1, 280512, Note_on_c, 1, 57, 72
1, 280604, Note_on_c, 0, 69, 0
1, 280604, Note_on_c, 1, 57, 0
1, 280608, Note_on_c, 0, 67, 72
1, 280608, Note_on_c, 1, 55, 72
1, 280700, Note_on_c, 0, 67, 0
1, 280700, Note_on_c, 1, 55, 0
1, 280704, Note_on_c, 0, 71, 72
1, 280704, Note_on_c, 1, 59, 72
1, 280848, Note_on_c, 0, 71, 0
1, 280848, Note_on_c, 1, 59, 0
1, 280896, Note_on_c, 0, 62, 72
1, 280896, Note_on_c, 1, 50, 72
1, 281040, Note_on_c, 0, 62, 0
1, 281040, Note_on_c, 1, 50, 0
1, 281088, Note_on_c, 0, 64, 72
1, 281088, Note_on_c, 1, 52, 72
1, 281372, Note_on_c, 0, 64, 0
1, 281372, Note_on_c, 1, 52, 0
1, 281376, Note_on_c, 0, 62, 72
1, 281376, Note_on_c, 1, 50, 72
1, 281468, Note_on_c, 0, 62, 0
1, 281468, Note_on_c, 1, 50, 0
1, 281472, Note_on_c, 0, 60, 72
1, 281472, Note_on_c, 1, 48, 72
1, 281756, Note_on_c, 0, 60, 0
1, 281756, Note_on_c, 1, 48, 0
1, 281760, Note_on_c, 0, 59, 72
1, 281760, Note_on_c, 1, 47, 72
1, 281852, Note_on_c, 0, 59, 0
1, 281852, Note_on_c, 1, 47, 0
1, 281856, Note_on_c, 0, 60, 72
1, 281856, Note_on_c, 1, 48, 72
1, 282140, Note_on_c, 0, 60, 0
1, 282140, Note_on_c, 1, 48, 0
1, 282144, Note_on_c, 1, 45, 72
1, 282144, Note_on_c, 1, 57, 72
1, 282236, Note_on_c, 1, 45, 0
1, 282236, Note_on_c, 1, 57, 0
1, 282240, Note_on_c, 1, 43, 72
1, 282240, Note_on_c, 1, 55, 72
1, 282524, Note_on_c, 1, 43, 0
1, 282524, Note_on_c, 1, 55, 0
1, 282528, Note_on_c, 1, 53, 72
1, 282528, Note_on_c, 1, 41, 72
1, 282620, Note_on_c, 1, 53, 0
1, 282620, Note_on_c, 1, 41, 0
1, 282624, Note_on_c, 1, 43, 72
1, 282624, Note_on_c, 1, 55, 72
1, 282768, Note_on_c, 1, 43, 0
1, 282768, Note_on_c, 1, 55, 0
1, 282816, Note_on_c, 1, 47, 72
1, 282816, Note_on_c, 1, 59, 72
1, 282908, Note_on_c, 1, 47, 0
1, 282908, Note_on_c, 1, 59, 0
1, 282912, Note_on_c, 0, 62, 72
1, 282912, Note_on_c, 1, 50, 72
1, 283004, Note_on_c, 0, 62, 0
1, 283004, Note_on_c, 1, 50, 0
1, 283008, Note_on_c, 0, 67, 72
1, 283008, Note_on_c, 1, 55, 72
1, 283152, Note_on_c, 0, 67, 0
1, 283152, Note_on_c, 1, 55, 0
1, 283200, Note_on_c, 0, 67, 72
1, 283200, Note_on_c, 1, 55, 72
1, 283344, Note_on_c, 0, 67, 0
1, 283344, Note_on_c, 1, 55, 0
1, 283392, Note_on_c, 0, 67, 72
1, 283392, Note_on_c, 1, 55, 72
1, 283772, Note_on_c, 0, 67, 0
1, 283772, Note_on_c, 1, 55, 0
1, 284160, Note_on_c, 0, 78, 51
1, 284304, Note_on_c, 0, 78, 0
1, 284352, Note_on_c, 0, 79, 51
1, 284496, Note_on_c, 0, 79, 0
1, 284544, Note_on_c, 0, 78, 51
1, 284688, Note_on_c, 0, 78, 0
1, 284736, Note_on_c, 0, 79, 51
1, 284880, Note_on_c, 0, 79, 0
1, 284928, Note_on_c, 0, 78, 51
1, 285072, Note_on_c, 0, 78, 0
1, 285120, Note_on_c, 0, 79, 51
1, 285264, Note_on_c, 0, 79, 0
1, 285312, Note_on_c, 0, 78, 51
1, 285456, Note_on_c, 0, 78, 0
1, 285504, Note_on_c, 0, 79, 51
1, 285648, Note_on_c, 0, 79, 0
1, 285696, Note_on_c, 0, 77, 51
1, 285840, Note_on_c, 0, 77, 0
1, 285888, Note_on_c, 0, 79, 51
1, 286032, Note_on_c, 0, 79, 0
1, 286080, Note_on_c, 0, 76, 51
1, 286224, Note_on_c, 0, 76, 0
1, 286272, Note_on_c, 0, 79, 51
1, 286416, Note_on_c, 0, 79, 0
1, 286464, Note_on_c, 0, 77, 51
1, 286608, Note_on_c, 0, 77, 0
1, 286656, Note_on_c, 0, 79, 51
1, 286800, Note_on_c, 0, 79, 0
1, 286848, Note_on_c, 0, 74, 51
1, 286992, Note_on_c, 0, 74, 0
1, 287040, Note_on_c, 0, 79, 51
1, 287184, Note_on_c, 0, 79, 0
1, 287232, Note_on_c, 0, 72, 51
1, 287232, Note_on_c, 0, 64, 51
1, 287376, Note_on_c, 0, 72, 0
1, 287376, Note_on_c, 0, 64, 0
1, 287424, Note_on_c, 0, 79, 51
1, 287424, Note_on_c, 0, 65, 51
1, 287568, Note_on_c, 0, 79, 0
1, 287568, Note_on_c, 0, 65, 0
1, 287616, Note_on_c, 0, 72, 51
1, 287616, Note_on_c, 0, 67, 51
1, 287760, Note_on_c, 0, 72, 0
1, 287760, Note_on_c, 0, 67, 0
1, 287808, Note_on_c, 0, 79, 51
1, 287808, Note_on_c, 0, 64, 51
1, 287952, Note_on_c, 0, 79, 0
1, 287952, Note_on_c, 0, 64, 0
1, 288000, Note_on_c, 0, 76, 51
1, 288000, Note_on_c, 0, 60, 51
1, 288144, Note_on_c, 0, 76, 0
1, 288192, Note_on_c, 0, 79, 51
1, 288336, Note_on_c, 0, 79, 0
1, 288384, Note_on_c, 0, 76, 51
1, 288528, Note_on_c, 0, 60, 0
1, 288528, Note_on_c, 0, 76, 0
1, 288576, Note_on_c, 0, 79, 51
1, 288720, Note_on_c, 0, 79, 0
1, 288768, Note_on_c, 0, 77, 51
1, 288768, Note_on_c, 0, 62, 51
1, 288912, Note_on_c, 0, 77, 0
1, 288912, Note_on_c, 0, 62, 0
1, 288960, Note_on_c, 0, 79, 51
1, 288960, Note_on_c, 0, 64, 51
1, 289104, Note_on_c, 0, 79, 0
1, 289104, Note_on_c, 0, 64, 0
1, 289152, Note_on_c, 0, 77, 51
1, 289152, Note_on_c, 0, 65, 51
1, 289296, Note_on_c, 0, 77, 0
1, 289296, Note_on_c, 0, 65, 0
1, 289344, Note_on_c, 0, 79, 51
1, 289344, Note_on_c, 0, 62, 51
1, 289488, Note_on_c, 0, 79, 0
1, 289488, Note_on_c, 0, 62, 0
1, 289536, Note_on_c, 0, 74, 51
1, 289536, Note_on_c, 0, 59, 51
1, 289680, Note_on_c, 0, 74, 0
1, 289728, Note_on_c, 0, 79, 51
1, 289872, Note_on_c, 0, 79, 0
1, 289920, Note_on_c, 0, 74, 51
1, 290064, Note_on_c, 0, 59, 0
1, 290064, Note_on_c, 0, 74, 0
1, 290112, Note_on_c, 0, 79, 51
1, 290256, Note_on_c, 0, 79, 0
1, 290304, Note_on_c, 0, 76, 51
1, 290304, Note_on_c, 0, 62, 51
1, 290396, Note_on_c, 0, 62, 0
1, 290400, Note_on_c, 0, 60, 51
1, 290448, Note_on_c, 0, 76, 0
1, 290496, Note_on_c, 0, 79, 51
1, 290544, Note_on_c, 0, 60, 0
1, 290640, Note_on_c, 0, 79, 0
1, 290688, Note_on_c, 0, 72, 51
1, 290688, Note_on_c, 0, 65, 51
1, 290780, Note_on_c, 0, 65, 0
1, 290784, Note_on_c, 0, 64, 51
1, 290832, Note_on_c, 0, 72, 0
1, 290880, Note_on_c, 0, 79, 51
1, 290928, Note_on_c, 0, 64, 0
1, 291024, Note_on_c, 0, 79, 0
1, 291072, Note_on_c, 0, 71, 51
1, 291072, Note_on_c, 0, 61, 51
1, 291164, Note_on_c, 0, 61, 0
1, 291168, Note_on_c, 0, 62, 51
1, 291216, Note_on_c, 0, 71, 0
1, 291264, Note_on_c, 0, 79, 51
1, 291312, Note_on_c, 0, 62, 0
1, 291408, Note_on_c, 0, 79, 0
1, 291456, Note_on_c, 0, 74, 51
1, 291600, Note_on_c, 0, 74, 0
1, 291648, Note_on_c, 0, 79, 51
1, 291792, Note_on_c, 0, 79, 0
1, 291840, Note_on_c, 0, 72, 51
1, 291840, Note_on_c, 0, 65, 51
1, 291932, Note_on_c, 0, 65, 0
1, 291936, Note_on_c, 0, 64, 51
1, 291984, Note_on_c, 0, 72, 0
1, 292032, Note_on_c, 0, 79, 51
1, 292080, Note_on_c, 0, 64, 0
1, 292176, Note_on_c, 0, 79, 0
1, 292224, Note_on_c, 0, 72, 51
1, 292224, Note_on_c, 0, 67, 51
1, 292316, Note_on_c, 0, 72, 0
1, 292320, Note_on_c, 0, 66, 51
1, 292368, Note_on_c, 0, 67, 0
1, 292416, Note_on_c, 0, 81, 51
1, 292464, Note_on_c, 0, 66, 0
1, 292560, Note_on_c, 0, 81, 0
1, 292608, Note_on_c, 0, 71, 51
1, 292608, Note_on_c, 0, 69, 51
1, 292700, Note_on_c, 0, 69, 0
1, 292704, Note_on_c, 0, 67, 51
1, 292752, Note_on_c, 0, 71, 0
1, 292800, Note_on_c, 0, 74, 51
1, 292848, Note_on_c, 0, 67, 0
1, 292944, Note_on_c, 0, 74, 0
1, 292992, Note_on_c, 0, 78, 51
1, 293136, Note_on_c, 0, 78, 0
1, 293184, Note_on_c, 0, 79, 51
1, 293328, Note_on_c, 0, 79, 0
1, 293376, Note_on_c, 0, 76, 51
1, 293376, Note_on_c, 1, 48, 51
1, 293520, Note_on_c, 0, 76, 0
1, 293520, Note_on_c, 1, 48, 0
1, 293568, Note_on_c, 0, 77, 51
1, 293568, Note_on_c, 1, 55, 51
1, 293712, Note_on_c, 0, 77, 0
1, 293712, Note_on_c, 1, 55, 0
1, 293760, Note_on_c, 0, 79, 51
1, 293760, Note_on_c, 1, 48, 51
1, 293904, Note_on_c, 0, 79, 0
1, 293904, Note_on_c, 1, 48, 0
1, 293952, Note_on_c, 0, 76, 51
1, 293952, Note_on_c, 1, 55, 51
1, 294096, Note_on_c, 0, 76, 0
1, 294096, Note_on_c, 1, 55, 0
1, 294144, Note_on_c, 0, 72, 51
1, 294144, Note_on_c, 1, 52, 51
1, 294288, Note_on_c, 1, 52, 0
1, 294336, Note_on_c, 1, 55, 51
1, 294480, Note_on_c, 1, 55, 0
1, 294528, Note_on_c, 1, 52, 51
1, 294672, Note_on_c, 1, 52, 0
1, 294720, Note_on_c, 1, 55, 51
1, 294864, Note_on_c, 1, 55, 0
1, 294908, Note_on_c, 0, 72, 0
1, 294912, Note_on_c, 0, 74, 51
1, 294912, Note_on_c, 1, 53, 51
1, 295056, Note_on_c, 0, 74, 0
1, 295056, Note_on_c, 1, 53, 0
1, 295104, Note_on_c, 0, 76, 51
1, 295104, Note_on_c, 1, 55, 51
1, 295248, Note_on_c, 0, 76, 0
1, 295248, Note_on_c, 1, 55, 0
1, 295296, Note_on_c, 0, 77, 51
1, 295296, Note_on_c, 1, 53, 51
1, 295440, Note_on_c, 0, 77, 0
1, 295440, Note_on_c, 0, 74, 51
1, 295440, Note_on_c, 1, 53, 0
1, 295488, Note_on_c, 1, 55, 51
1, 295584, Note_on_c, 0, 74, 0
1, 295632, Note_on_c, 1, 55, 0
1, 295680, Note_on_c, 0, 83, 51
1, 295680, Note_on_c, 1, 50, 51
1, 295824, Note_on_c, 1, 50, 0
1, 295872, Note_on_c, 1, 55, 51
1, 296016, Note_on_c, 1, 55, 0
1, 296064, Note_on_c, 1, 50, 51
1, 296208, Note_on_c, 1, 50, 0
1, 296256, Note_on_c, 1, 55, 51
1, 296400, Note_on_c, 1, 55, 0
1, 296444, Note_on_c, 0, 83, 0
1, 296448, Note_on_c, 0, 84, 51
1, 296448, Note_on_c, 1, 52, 51
1, 296540, Note_on_c, 0, 84, 0
1, 296544, Note_on_c, 0, 83, 51
1, 296592, Note_on_c, 1, 52, 0
1, 296640, Note_on_c, 1, 55, 51
1, 296784, Note_on_c, 1, 55, 0
1, 296828, Note_on_c, 0, 83, 0
1, 296832, Note_on_c, 0, 81, 51
1, 296832, Note_on_c, 1, 48, 51
1, 296924, Note_on_c, 0, 81, 0
1, 296928, Note_on_c, 0, 79, 51
1, 296976, Note_on_c, 1, 48, 0
1, 297024, Note_on_c, 1, 55, 51
1, 297168, Note_on_c, 1, 55, 0
1, 297212, Note_on_c, 0, 79, 0
1, 297216, Note_on_c, 0, 76, 51
1, 297216, Note_on_c, 1, 50, 51
1, 297308, Note_on_c, 0, 76, 0
1, 297312, Note_on_c, 0, 77, 51
1, 297360, Note_on_c, 1, 50, 0
1, 297408, Note_on_c, 1, 55, 51
1, 297552, Note_on_c, 1, 55, 0
1, 297596, Note_on_c, 0, 77, 0
1, 297600, Note_on_c, 1, 47, 51
1, 297744, Note_on_c, 1, 47, 0
1, 297792, Note_on_c, 1, 55, 51
1, 297936, Note_on_c, 1, 55, 0
1, 297984, Note_on_c, 0, 77, 51
1, 297984, Note_on_c, 1, 48, 51
1, 298076, Note_on_c, 0, 77, 0
1, 298080, Note_on_c, 0, 76, 51
1, 298128, Note_on_c, 1, 48, 0
1, 298176, Note_on_c, 1, 55, 51
1, 298320, Note_on_c, 1, 55, 0
1, 298364, Note_on_c, 0, 76, 0
1, 298368, Note_on_c, 0, 74, 51
1, 298368, Note_on_c, 1, 45, 51
1, 298460, Note_on_c, 0, 74, 0
1, 298464, Note_on_c, 0, 72, 51
1, 298512, Note_on_c, 1, 45, 0
1, 298560, Note_on_c, 1, 54, 51
1, 298704, Note_on_c, 1, 54, 0
1, 298748, Note_on_c, 0, 72, 0
1, 298752, Note_on_c, 0, 81, 51
1, 298752, Note_on_c, 1, 43, 51
1, 298844, Note_on_c, 0, 81, 0
1, 298848, Note_on_c, 0, 79, 51
1, 298896, Note_on_c, 1, 43, 0
1, 298944, Note_on_c, 1, 55, 51
1, 299088, Note_on_c, 1, 55, 0
1, 299132, Note_on_c, 0, 79, 0
1, 299136, Note_on_c, 1, 41, 51
1, 299280, Note_on_c, 1, 41, 0
1, 299328, Note_on_c, 1, 53, 51
1, 299472, Note_on_c, 1, 53, 0
1, 299520, Note_on_c, 0, 79, 72
1, 299520, Note_on_c, 0, 67, 72
1, 299520, Note_on_c, 1, 40, 51
1, 299612, Note_on_c, 1, 40, 0
1, 299616, Note_on_c, 1, 48, 51
1, 299708, Note_on_c, 1, 48, 0
1, 299712, Note_on_c, 1, 47, 51
1, 299804, Note_on_c, 1, 47, 0
1, 299808, Note_on_c, 1, 48, 51
1, 299900, Note_on_c, 1, 48, 0
1, 299904, Note_on_c, 1, 50, 51
1, 299996, Note_on_c, 1, 50, 0
1, 300000, Note_on_c, 1, 48, 51
1, 300092, Note_on_c, 1, 48, 0
1, 300096, Note_on_c, 1, 47, 51
1, 300188, Note_on_c, 1, 47, 0
1, 300192, Note_on_c, 1, 48, 51
1, 300284, Note_on_c, 0, 79, 0
1, 300284, Note_on_c, 0, 67, 0
1, 300284, Note_on_c, 1, 48, 0
1, 300288, Note_on_c, 0, 77, 51
1, 300288, Note_on_c, 1, 40, 51
1, 300432, Note_on_c, 0, 77, 0
1, 300480, Note_on_c, 0, 76, 51
1, 300528, Note_on_c, 1, 40, 0
1, 300624, Note_on_c, 0, 76, 0
1, 300672, Note_on_c, 0, 74, 51
1, 300816, Note_on_c, 0, 74, 0
1, 300864, Note_on_c, 0, 72, 51
1, 301008, Note_on_c, 0, 72, 0
1, 301056, Note_on_c, 0, 81, 51
1, 301056, Note_on_c, 0, 69, 51
1, 301056, Note_on_c, 1, 41, 51
1, 301148, Note_on_c, 1, 41, 0
1, 301152, Note_on_c, 1, 48, 51
1, 301244, Note_on_c, 1, 48, 0
1, 301248, Note_on_c, 1, 47, 51
1, 301340, Note_on_c, 1, 47, 0
1, 301344, Note_on_c, 1, 48, 51
1, 301436, Note_on_c, 0, 81, 0
1, 301436, Note_on_c, 0, 69, 0
1, 301436, Note_on_c, 1, 48, 0
1, 301440, Note_on_c, 1, 50, 51
1, 301532, Note_on_c, 1, 50, 0
1, 301536, Note_on_c, 1, 48, 51
1, 301628, Note_on_c, 1, 48, 0
1, 301632, Note_on_c, 1, 47, 51
1, 301724, Note_on_c, 1, 47, 0
1, 301728, Note_on_c, 1, 48, 51
1, 301820, Note_on_c, 1, 48, 0
1, 301824, Note_on_c, 0, 79, 51
1, 301824, Note_on_c, 1, 41, 51
1, 301968, Note_on_c, 0, 79, 0
1, 302016, Note_on_c, 0, 77, 51
1, 302160, Note_on_c, 0, 77, 0
1, 302204, Note_on_c, 1, 41, 0
1, 302208, Note_on_c, 0, 76, 51
1, 302352, Note_on_c, 0, 76, 0
1, 302400, Note_on_c, 0, 74, 51
1, 302544, Note_on_c, 0, 74, 0
1, 302592, Note_on_c, 0, 76, 51
1, 302592, Note_on_c, 1, 43, 51
1, 302684, Note_on_c, 0, 76, 0
1, 302688, Note_on_c, 0, 77, 51
1, 302736, Note_on_c, 1, 43, 0
1, 302780, Note_on_c, 0, 77, 0
1, 302784, Note_on_c, 0, 79, 51
1, 302784, Note_on_c, 1, 48, 51
1, 302876, Note_on_c, 0, 79, 0
1, 302880, Note_on_c, 0, 76, 51
1, 302928, Note_on_c, 1, 48, 0
1, 302972, Note_on_c, 0, 76, 0
1, 302976, Note_on_c, 0, 72, 51
1, 302976, Note_on_c, 1, 52, 51
1, 303120, Note_on_c, 0, 72, 0
1, 303120, Note_on_c, 1, 52, 0
1, 303168, Note_on_c, 1, 48, 51
1, 303312, Note_on_c, 1, 48, 0
1, 303360, Note_on_c, 0, 74, 51
1, 303360, Note_on_c, 1, 43, 51
1, 303452, Note_on_c, 0, 74, 0
1, 303456, Note_on_c, 0, 76, 51
1, 303504, Note_on_c, 1, 43, 0
1, 303548, Note_on_c, 0, 76, 0
1, 303552, Note_on_c, 0, 77, 51
1, 303552, Note_on_c, 1, 50, 51
1, 303644, Note_on_c, 0, 77, 0
1, 303648, Note_on_c, 0, 74, 51
1, 303696, Note_on_c, 1, 50, 0
1, 303740, Note_on_c, 0, 74, 0
1, 303744, Note_on_c, 0, 71, 51
1, 303744, Note_on_c, 1, 53, 51
1, 303888, Note_on_c, 0, 71, 0
1, 303888, Note_on_c, 1, 53, 0
1, 303936, Note_on_c, 1, 50, 51
1, 304080, Note_on_c, 1, 50, 0
1, 304128, Note_on_c, 0, 79, 72
1, 304128, Note_on_c, 0, 67, 72
1, 304128, Note_on_c, 1, 52, 51
1, 304220, Note_on_c, 1, 52, 0
1, 304224, Note_on_c, 1, 60, 51
1, 304316, Note_on_c, 1, 60, 0
1, 304320, Note_on_c, 1, 59, 51
1, 304412, Note_on_c, 1, 59, 0
1, 304416, Note_on_c, 1, 60, 51
1, 304508, Note_on_c, 1, 60, 0
1, 304512, Note_on_c, 1, 62, 51
1, 304604, Note_on_c, 1, 62, 0
1, 304608, Note_on_c, 1, 60, 51
1, 304700, Note_on_c, 1, 60, 0
1, 304704, Note_on_c, 1, 59, 51
1, 304796, Note_on_c, 1, 59, 0
1, 304800, Note_on_c, 1, 60, 51
1, 304892, Note_on_c, 0, 79, 0
1, 304892, Note_on_c, 0, 67, 0
1, 304892, Note_on_c, 1, 60, 0
1, 304896, Note_on_c, 0, 77, 51
1, 304896, Note_on_c, 1, 52, 51
1, 304988, Note_on_c, 0, 77, 0
1, 304992, Note_on_c, 0, 79, 51
1, 305084, Note_on_c, 0, 79, 0
1, 305088, Note_on_c, 0, 77, 51
1, 305180, Note_on_c, 0, 77, 0
1, 305184, Note_on_c, 0, 76, 51
1, 305276, Note_on_c, 0, 76, 0
1, 305276, Note_on_c, 1, 52, 0
1, 305280, Note_on_c, 0, 74, 51
1, 305372, Note_on_c, 0, 74, 0
1, 305376, Note_on_c, 0, 76, 51
1, 305468, Note_on_c, 0, 76, 0
1, 305472, Note_on_c, 0, 74, 51
1, 305564, Note_on_c, 0, 74, 0
1, 305568, Note_on_c, 0, 72, 51
1, 305660, Note_on_c, 0, 72, 0
1, 305664, Note_on_c, 0, 84, 51
1, 305664, Note_on_c, 0, 72, 51
1, 305664, Note_on_c, 1, 57, 51
1, 305756, Note_on_c, 1, 57, 0
1, 305760, Note_on_c, 1, 65, 51
1, 305852, Note_on_c, 1, 65, 0
1, 305856, Note_on_c, 1, 64, 51
1, 305948, Note_on_c, 1, 64, 0
1, 305952, Note_on_c, 1, 65, 51
1, 306044, Note_on_c, 1, 65, 0
1, 306048, Note_on_c, 1, 67, 51
1, 306140, Note_on_c, 1, 67, 0
1, 306144, Note_on_c, 1, 65, 51
1, 306236, Note_on_c, 1, 65, 0
1, 306240, Note_on_c, 1, 64, 51
1, 306332, Note_on_c, 1, 64, 0
1, 306336, Note_on_c, 1, 65, 51
1, 306428, Note_on_c, 0, 84, 0
1, 306428, Note_on_c, 0, 72, 0
1, 306428, Note_on_c, 1, 65, 0
1, 306432, Note_on_c, 0, 83, 51
1, 306432, Note_on_c, 1, 57, 51
1, 306524, Note_on_c, 0, 83, 0
1, 306528, Note_on_c, 0, 84, 51
1, 306620, Note_on_c, 0, 84, 0
1, 306624, Note_on_c, 0, 83, 51
1, 306716, Note_on_c, 0, 83, 0
1, 306720, Note_on_c, 0, 81, 51
1, 306812, Note_on_c, 0, 81, 0
1, 306812, Note_on_c, 1, 57, 0
1, 306816, Note_on_c, 0, 79, 51
1, 306908, Note_on_c, 0, 79, 0
1, 306912, Note_on_c, 0, 81, 51
1, 307004, Note_on_c, 0, 81, 0
1, 307008, Note_on_c, 0, 79, 51
1, 307100, Note_on_c, 0, 79, 0
1, 307104, Note_on_c, 0, 77, 51
1, 307196, Note_on_c, 0, 77, 0
1, 307200, Note_on_c, 0, 76, 51
1, 307200, Note_on_c, 1, 55, 51
1, 307344, Note_on_c, 0, 76, 0
1, 307344, Note_on_c, 1, 55, 0
1, 307392, Note_on_c, 0, 72, 51
1, 307392, Note_on_c, 1, 60, 51
1, 307536, Note_on_c, 0, 72, 0
1, 307536, Note_on_c, 1, 60, 0
1, 307584, Note_on_c, 0, 77, 72
1, 307584, Note_on_c, 1, 57, 51
1, 307728, Note_on_c, 1, 57, 0
1, 307776, Note_on_c, 1, 60, 51
1, 307920, Note_on_c, 1, 60, 0
1, 307964, Note_on_c, 0, 77, 0
1, 307968, Note_on_c, 0, 76, 51
1, 307968, Note_on_c, 1, 55, 51
1, 308112, Note_on_c, 0, 76, 0
1, 308112, Note_on_c, 1, 55, 0
1, 308160, Note_on_c, 0, 72, 51
1, 308160, Note_on_c, 1, 60, 51
1, 308304, Note_on_c, 0, 72, 0
1, 308304, Note_on_c, 1, 60, 0
1, 308352, Note_on_c, 0, 81, 72
1, 308352, Note_on_c, 1, 53, 51
1, 308496, Note_on_c, 1, 53, 0
1, 308544, Note_on_c, 1, 60, 51
1, 308688, Note_on_c, 1, 60, 0
1, 308732, Note_on_c, 0, 81, 0
1, 308736, Note_on_c, 0, 79, 51
1, 308736, Note_on_c, 1, 52, 51
1, 308880, Note_on_c, 0, 79, 0
1, 308880, Note_on_c, 1, 52, 0
1, 308928, Note_on_c, 0, 72, 51
1, 308928, Note_on_c, 1, 60, 51
1, 309072, Note_on_c, 0, 72, 0
1, 309072, Note_on_c, 1, 60, 0
1, 309120, Note_on_c, 0, 77, 72
1, 309120, Note_on_c, 1, 57, 51
1, 309264, Note_on_c, 1, 57, 0
1, 309312, Note_on_c, 1, 60, 51
1, 309456, Note_on_c, 1, 60, 0
1, 309500, Note_on_c, 0, 77, 0
1, 309504, Note_on_c, 0, 76, 51
1, 309504, Note_on_c, 1, 55, 51
1, 309648, Note_on_c, 0, 76, 0
1, 309648, Note_on_c, 1, 55, 0
1, 309696, Note_on_c, 0, 72, 51
1, 309696, Note_on_c, 1, 60, 51
1, 309840, Note_on_c, 0, 72, 0
1, 309840, Note_on_c, 1, 60, 0
1, 309888, Note_on_c, 0, 81, 72
1, 309888, Note_on_c, 1, 53, 51
1, 310032, Note_on_c, 1, 53, 0
1, 310080, Note_on_c, 1, 60, 51
1, 310224, Note_on_c, 1, 60, 0
1, 310268, Note_on_c, 0, 81, 0
1, 310272, Note_on_c, 0, 82, 72
1, 310272, Note_on_c, 0, 70, 72
1, 310272, Note_on_c, 1, 52, 66
1, 310272, Note_on_c, 1, 55, 66
1, 310272, Note_on_c, 1, 61, 66
1, 310416, Note_on_c, 1, 52, 0
1, 310416, Note_on_c, 1, 55, 0
1, 310416, Note_on_c, 1, 61, 0
1, 310464, Note_on_c, 1, 52, 66
1, 310464, Note_on_c, 1, 55, 66
1, 310464, Note_on_c, 1, 61, 66
1, 310608, Note_on_c, 1, 52, 0
1, 310608, Note_on_c, 1, 55, 0
1, 310608, Note_on_c, 1, 61, 0
1, 310656, Note_on_c, 1, 55, 66
1, 310656, Note_on_c, 1, 52, 66
1, 310656, Note_on_c, 1, 61, 66
1, 310800, Note_on_c, 1, 55, 0
1, 310800, Note_on_c, 1, 52, 0
1, 310800, Note_on_c, 1, 61, 0
1, 310848, Note_on_c, 1, 52, 66
1, 310848, Note_on_c, 1, 55, 66
1, 310848, Note_on_c, 1, 61, 66
1, 310992, Note_on_c, 1, 52, 0
1, 310992, Note_on_c, 1, 55, 0
1, 310992, Note_on_c, 1, 61, 0
1, 311036, Note_on_c, 0, 82, 0
1, 311036, Note_on_c, 0, 70, 0
1, 311040, Note_on_c, 0, 82, 72
1, 311040, Note_on_c, 0, 70, 72
1, 311040, Note_on_c, 1, 52, 66
1, 311040, Note_on_c, 1, 55, 66
1, 311040, Note_on_c, 1, 61, 66
1, 311184, Note_on_c, 1, 52, 0
1, 311184, Note_on_c, 1, 55, 0
1, 311184, Note_on_c, 1, 61, 0
1, 311232, Note_on_c, 1, 61, 66
1, 311232, Note_on_c, 1, 55, 66
1, 311232, Note_on_c, 1, 52, 66
1, 311376, Note_on_c, 1, 61, 0
1, 311376, Note_on_c, 1, 55, 0
1, 311376, Note_on_c, 1, 52, 0
1, 311420, Note_on_c, 0, 82, 0
1, 311420, Note_on_c, 0, 70, 0
1, 311424, Note_on_c, 0, 82, 72
1, 311424, Note_on_c, 0, 70, 72
1, 311424, Note_on_c, 1, 55, 66
1, 311424, Note_on_c, 1, 61, 66
1, 311424, Note_on_c, 1, 52, 66
1, 311568, Note_on_c, 1, 55, 0
1, 311568, Note_on_c, 1, 61, 0
1, 311568, Note_on_c, 1, 52, 0
1, 311616, Note_on_c, 1, 52, 66
1, 311616, Note_on_c, 1, 55, 66
1, 311616, Note_on_c, 1, 61, 66
1, 311760, Note_on_c, 1, 52, 0
1, 311760, Note_on_c, 1, 55, 0
1, 311760, Note_on_c, 1, 61, 0
1, 311804, Note_on_c, 0, 82, 0
1, 311804, Note_on_c, 0, 70, 0
1, 311808, Note_on_c, 0, 81, 72
1, 311808, Note_on_c, 0, 69, 72
1, 311808, Note_on_c, 1, 62, 65
1, 311808, Note_on_c, 1, 57, 65
1, 311808, Note_on_c, 1, 53, 65
1, 311952, Note_on_c, 0, 81, 0
1, 311952, Note_on_c, 0, 69, 0
1, 312000, Note_on_c, 0, 79, 72
1, 312144, Note_on_c, 0, 79, 0
1, 312188, Note_on_c, 1, 62, 0
1, 312188, Note_on_c, 1, 57, 0
1, 312188, Note_on_c, 1, 53, 0
1, 312192, Note_on_c, 0, 77, 72
1, 312236, Note_on_c, 0, 77, 0
1, 312240, Note_on_c, 0, 79, 72
1, 312284, Note_on_c, 0, 79, 0
1, 312288, Note_on_c, 0, 77, 72
1, 312332, Note_on_c, 0, 77, 0
1, 312336, Note_on_c, 0, 79, 72
1, 312380, Note_on_c, 0, 79, 0
1, 312384, Note_on_c, 0, 76, 72
1, 312528, Note_on_c, 0, 76, 0
1, 312576, Note_on_c, 0, 74, 72
1, 312620, Note_on_c, 0, 74, 0
1, 312624, Note_on_c, 0, 76, 72
1, 312668, Note_on_c, 0, 76, 0
1, 312672, Note_on_c, 0, 74, 72
1, 312716, Note_on_c, 0, 74, 0
1, 312720, Note_on_c, 0, 76, 72
1, 312764, Note_on_c, 0, 76, 0
1, 312768, Note_on_c, 0, 72, 72
1, 312912, Note_on_c, 0, 72, 0
1, 312960, Note_on_c, 0, 71, 66
1, 313004, Note_on_c, 0, 71, 0
1, 313008, Note_on_c, 0, 72, 66
1, 313052, Note_on_c, 0, 72, 0
1, 313056, Note_on_c, 0, 71, 66
1, 313100, Note_on_c, 0, 71, 0
1, 313104, Note_on_c, 0, 72, 66
1, 313148, Note_on_c, 0, 72, 0
1, 313152, Note_on_c, 0, 69, 66
1, 313296, Note_on_c, 0, 69, 0
1, 313344, Note_on_c, 0, 67, 66
1, 313344, Note_on_c, 1, 55, 61
1, 313436, Note_on_c, 1, 55, 0
1, 313440, Note_on_c, 1, 64, 61
1, 313488, Note_on_c, 0, 67, 0
1, 313532, Note_on_c, 1, 64, 0
1, 313536, Note_on_c, 0, 69, 66
1, 313536, Note_on_c, 1, 60, 61
1, 313628, Note_on_c, 0, 69, 0
1, 313628, Note_on_c, 1, 60, 0
1, 313632, Note_on_c, 0, 71, 66
1, 313632, Note_on_c, 1, 64, 61
1, 313724, Note_on_c, 0, 71, 0
1, 313724, Note_on_c, 1, 64, 0
1, 313728, Note_on_c, 0, 72, 66
1, 313728, Note_on_c, 1, 55, 61
1, 313820, Note_on_c, 0, 72, 0
1, 313820, Note_on_c, 1, 55, 0
1, 313824, Note_on_c, 0, 74, 66
1, 313824, Note_on_c, 1, 64, 61
1, 313916, Note_on_c, 0, 74, 0
1, 313916, Note_on_c, 1, 64, 0
1, 313920, Note_on_c, 0, 76, 66
1, 313920, Note_on_c, 1, 60, 61
1, 314012, Note_on_c, 0, 76, 0
1, 314012, Note_on_c, 1, 60, 0
1, 314016, Note_on_c, 0, 77, 66
1, 314016, Note_on_c, 1, 64, 61
1, 314108, Note_on_c, 0, 77, 0
1, 314108, Note_on_c, 1, 64, 0
1, 314112, Note_on_c, 0, 78, 66
1, 314112, Note_on_c, 1, 55, 61
1, 314204, Note_on_c, 0, 78, 0
1, 314204, Note_on_c, 1, 55, 0
1, 314208, Note_on_c, 0, 79, 66
1, 314208, Note_on_c, 1, 64, 61
1, 314300, Note_on_c, 0, 79, 0
1, 314300, Note_on_c, 1, 64, 0
1, 314304, Note_on_c, 0, 81, 66
1, 314304, Note_on_c, 1, 60, 61
1, 314396, Note_on_c, 0, 81, 0
1, 314396, Note_on_c, 1, 60, 0
1, 314400, Note_on_c, 0, 79, 66
1, 314400, Note_on_c, 1, 64, 61
1, 314492, Note_on_c, 0, 79, 0
1, 314492, Note_on_c, 1, 64, 0
1, 314496, Note_on_c, 0, 78, 66
1, 314496, Note_on_c, 1, 55, 61
1, 314540, Note_on_c, 0, 78, 0
1, 314544, Note_on_c, 0, 76, 66
1, 314588, Note_on_c, 1, 55, 0
1, 314592, Note_on_c, 1, 64, 61
1, 314684, Note_on_c, 0, 76, 0
1, 314684, Note_on_c, 1, 64, 0
1, 314688, Note_on_c, 0, 74, 66
1, 314688, Note_on_c, 1, 60, 61
1, 314780, Note_on_c, 0, 74, 0
1, 314780, Note_on_c, 1, 60, 0
1, 314784, Note_on_c, 0, 72, 66
1, 314784, Note_on_c, 1, 64, 61
1, 314876, Note_on_c, 0, 72, 0
1, 314876, Note_on_c, 1, 64, 0
1, 314880, Note_on_c, 0, 74, 66
1, 314880, Note_on_c, 1, 55, 61
1, 314924, Note_on_c, 0, 74, 0
1, 314928, Note_on_c, 0, 76, 66
1, 314972, Note_on_c, 0, 76, 0
1, 314972, Note_on_c, 1, 55, 0
1, 314976, Note_on_c, 0, 74, 66
1, 314976, Note_on_c, 1, 65, 61
1, 315020, Note_on_c, 0, 74, 0
1, 315024, Note_on_c, 0, 76, 66
1, 315068, Note_on_c, 0, 76, 0
1, 315068, Note_on_c, 1, 65, 0
1, 315072, Note_on_c, 0, 74, 66
1, 315072, Note_on_c, 1, 59, 61
1, 315116, Note_on_c, 0, 74, 0
1, 315120, Note_on_c, 0, 76, 66
1, 315136, Note_on_c, 1, 65, 61
1, 315164, Note_on_c, 0, 76, 0
1, 315164, Note_on_c, 1, 59, 0
1, 315168, Note_on_c, 0, 74, 66
1, 315212, Note_on_c, 0, 74, 0
1, 315216, Note_on_c, 0, 76, 66
1, 315228, Note_on_c, 1, 65, 0
1, 315260, Note_on_c, 0, 76, 0
1, 315264, Note_on_c, 0, 74, 66
1, 315264, Note_on_c, 1, 55, 61
1, 315308, Note_on_c, 0, 74, 0
1, 315312, Note_on_c, 0, 76, 66
1, 315356, Note_on_c, 0, 76, 0
1, 315356, Note_on_c, 1, 55, 0
1, 315360, Note_on_c, 0, 74, 66
1, 315360, Note_on_c, 1, 65, 61
1, 315404, Note_on_c, 0, 74, 0
1, 315408, Note_on_c, 0, 76, 66
1, 315452, Note_on_c, 0, 76, 0
1, 315452, Note_on_c, 1, 65, 0
1, 315456, Note_on_c, 0, 74, 66
1, 315456, Note_on_c, 1, 59, 61
1, 315500, Note_on_c, 0, 74, 0
1, 315504, Note_on_c, 0, 76, 66
1, 315548, Note_on_c, 0, 76, 0
1, 315548, Note_on_c, 1, 59, 0
1, 315552, Note_on_c, 0, 74, 66
1, 315552, Note_on_c, 1, 65, 61
1, 315596, Note_on_c, 0, 74, 0
1, 315600, Note_on_c, 0, 76, 66
1, 315644, Note_on_c, 0, 76, 0
1, 315644, Note_on_c, 1, 65, 0
1, 315648, Note_on_c, 0, 74, 66
1, 315648, Note_on_c, 1, 55, 61
1, 315692, Note_on_c, 0, 74, 0
1, 315696, Note_on_c, 0, 76, 66
1, 315712, Note_on_c, 1, 65, 61
1, 315740, Note_on_c, 0, 76, 0
1, 315740, Note_on_c, 1, 55, 0
1, 315744, Note_on_c, 0, 74, 66
1, 315788, Note_on_c, 0, 74, 0
1, 315792, Note_on_c, 0, 76, 66
1, 315804, Note_on_c, 1, 65, 0
1, 315836, Note_on_c, 0, 76, 0
1, 315840, Note_on_c, 0, 74, 66
1, 315840, Note_on_c, 1, 59, 61
1, 315884, Note_on_c, 0, 74, 0
1, 315888, Note_on_c, 0, 76, 66
1, 315932, Note_on_c, 0, 76, 0
1, 315932, Note_on_c, 1, 59, 0
1, 315936, Note_on_c, 0, 74, 66
1, 315936, Note_on_c, 1, 65, 61
1, 315980, Note_on_c, 0, 74, 0
1, 315984, Note_on_c, 0, 76, 66
1, 316028, Note_on_c, 0, 76, 0
1, 316028, Note_on_c, 1, 65, 0
1, 316032, Note_on_c, 0, 74, 66
1, 316032, Note_on_c, 1, 55, 61
1, 316076, Note_on_c, 0, 74, 0
1, 316080, Note_on_c, 0, 76, 66
1, 316124, Note_on_c, 0, 76, 0
1, 316124, Note_on_c, 1, 55, 0
1, 316128, Note_on_c, 0, 74, 66
1, 316128, Note_on_c, 1, 65, 61
1, 316172, Note_on_c, 0, 74, 0
1, 316176, Note_on_c, 0, 76, 66
1, 316220, Note_on_c, 0, 76, 0
1, 316220, Note_on_c, 1, 65, 0
1, 316224, Note_on_c, 0, 72, 66
1, 316224, Note_on_c, 1, 59, 61
1, 316316, Note_on_c, 0, 72, 0
1, 316316, Note_on_c, 1, 59, 0
1, 316320, Note_on_c, 0, 74, 66
1, 316320, Note_on_c, 1, 65, 61
1, 316412, Note_on_c, 0, 74, 0
1, 316412, Note_on_c, 1, 65, 0
1, 316416, Note_on_c, 0, 72, 51
1, 316416, Note_on_c, 1, 64, 61
1, 316416, Note_on_c, 1, 60, 61
1, 316796, Note_on_c, 0, 72, 0
1, 316796, Note_on_c, 1, 64, 0
1, 316796, Note_on_c, 1, 60, 0
1, 316800, Note_on_c, 0, 72, 51
1, 316992, Note_on_c, 0, 76, 51
1, 317136, Note_on_c, 0, 76, 0
1, 317180, Note_on_c, 0, 72, 0
1, 317184, Note_on_c, 0, 79, 51
1, 317184, Note_on_c, 0, 74, 51
1, 317328, Note_on_c, 0, 79, 0
1, 317376, Note_on_c, 0, 77, 51
1, 317520, Note_on_c, 0, 77, 0
1, 317564, Note_on_c, 0, 74, 0
1, 317568, Note_on_c, 0, 71, 51
1, 317760, Note_on_c, 0, 74, 51
1, 317904, Note_on_c, 0, 74, 0
1, 317948, Note_on_c, 0, 71, 0
1, 317952, Note_on_c, 0, 77, 51
1, 317952, Note_on_c, 0, 72, 51
1, 318096, Note_on_c, 0, 77, 0
1, 318144, Note_on_c, 0, 76, 51
1, 318288, Note_on_c, 0, 76, 0
1, 318332, Note_on_c, 0, 72, 0
1, 318336, Note_on_c, 0, 69, 51
1, 318528, Note_on_c, 0, 72, 51
1, 318672, Note_on_c, 0, 72, 0
1, 318716, Note_on_c, 0, 69, 0
1, 318720, Note_on_c, 0, 76, 51
1, 318720, Note_on_c, 0, 65, 51
1, 318864, Note_on_c, 0, 76, 0
1, 318912, Note_on_c, 0, 74, 51
1, 319056, Note_on_c, 0, 74, 0
1, 319100, Note_on_c, 0, 65, 0
1, 319104, Note_on_c, 0, 67, 51
1, 319296, Note_on_c, 0, 71, 51
1, 319440, Note_on_c, 0, 71, 0
1, 319484, Note_on_c, 0, 67, 0
1, 319488, Note_on_c, 0, 74, 51
1, 319488, Note_on_c, 0, 64, 51
1, 319632, Note_on_c, 0, 74, 0
1, 319680, Note_on_c, 0, 72, 51
1, 319824, Note_on_c, 0, 72, 0
1, 319868, Note_on_c, 0, 64, 0
1, 319872, Note_on_c, 0, 76, 72
1, 319872, Note_on_c, 1, 60, 72
1, 319872, Note_on_c, 1, 48, 72
1, 319964, Note_on_c, 0, 76, 0
1, 319968, Note_on_c, 0, 77, 72
1, 320060, Note_on_c, 0, 77, 0
1, 320064, Note_on_c, 0, 79, 72
1, 320156, Note_on_c, 0, 79, 0
1, 320160, Note_on_c, 0, 76, 72
1, 320252, Note_on_c, 0, 76, 0
1, 320252, Note_on_c, 1, 60, 0
1, 320252, Note_on_c, 1, 48, 0
1, 320256, Note_on_c, 0, 77, 72
1, 320256, Note_on_c, 1, 62, 72
1, 320256, Note_on_c, 1, 50, 72
1, 320348, Note_on_c, 0, 77, 0
1, 320352, Note_on_c, 0, 79, 72
1, 320444, Note_on_c, 0, 79, 0
1, 320448, Note_on_c, 0, 81, 72
1, 320540, Note_on_c, 0, 81, 0
1, 320544, Note_on_c, 0, 77, 72
1, 320636, Note_on_c, 0, 77, 0
1, 320636, Note_on_c, 1, 62, 0
1, 320636, Note_on_c, 1, 50, 0
1, 320640, Note_on_c, 0, 74, 72
1, 320640, Note_on_c, 1, 59, 72
1, 320640, Note_on_c, 1, 47, 72
1, 320732, Note_on_c, 0, 74, 0
1, 320736, Note_on_c, 0, 76, 72
1, 320828, Note_on_c, 0, 76, 0
1, 320832, Note_on_c, 0, 77, 72
1, 320924, Note_on_c, 0, 77, 0
1, 320928, Note_on_c, 0, 74, 72
1, 321020, Note_on_c, 0, 74, 0
1, 321020, Note_on_c, 1, 59, 0
1, 321020, Note_on_c, 1, 47, 0
1, 321024, Note_on_c, 0, 76, 72
1, 321024, Note_on_c, 1, 60, 72
1, 321024, Note_on_c, 1, 48, 72
1, 321116, Note_on_c, 0, 76, 0
1, 321120, Note_on_c, 0, 77, 72
1, 321212, Note_on_c, 0, 77, 0
1, 321216, Note_on_c, 0, 79, 72
1, 321308, Note_on_c, 0, 79, 0
1, 321312, Note_on_c, 0, 76, 72
1, 321404, Note_on_c, 0, 76, 0
1, 321404, Note_on_c, 1, 60, 0
1, 321404, Note_on_c, 1, 48, 0
1, 321408, Note_on_c, 0, 72, 72
1, 321408, Note_on_c, 1, 57, 72
1, 321408, Note_on_c, 1, 45, 72
1, 321500, Note_on_c, 0, 72, 0
1, 321504, Note_on_c, 0, 74, 72
1, 321596, Note_on_c, 0, 74, 0
1, 321600, Note_on_c, 0, 76, 72
1, 321692, Note_on_c, 0, 76, 0
1, 321696, Note_on_c, 0, 72, 72
1, 321788, Note_on_c, 0, 72, 0
1, 321788, Note_on_c, 1, 57, 0
1, 321788, Note_on_c, 1, 45, 0
1, 321792, Note_on_c, 0, 74, 72
1, 321792, Note_on_c, 1, 53, 72
1, 321792, Note_on_c, 1, 41, 72
1, 321884, Note_on_c, 0, 74, 0
1, 321888, Note_on_c, 0, 76, 72
1, 321980, Note_on_c, 0, 76, 0
1, 321984, Note_on_c, 0, 77, 72
1, 322076, Note_on_c, 0, 77, 0
1, 322080, Note_on_c, 0, 74, 72
1, 322172, Note_on_c, 0, 74, 0
1, 322172, Note_on_c, 1, 53, 0
1, 322172, Note_on_c, 1, 41, 0
1, 322176, Note_on_c, 0, 71, 72
1, 322176, Note_on_c, 1, 55, 72
1, 322176, Note_on_c, 1, 43, 72
1, 322268, Note_on_c, 0, 71, 0
1, 322272, Note_on_c, 0, 72, 72
1, 322364, Note_on_c, 0, 72, 0
1, 322368, Note_on_c, 0, 74, 72
1, 322416, Note_on_c, 0, 71, 72
1, 322460, Note_on_c, 0, 74, 0
1, 322508, Note_on_c, 0, 71, 0
1, 322556, Note_on_c, 1, 55, 0
1, 322556, Note_on_c, 1, 43, 0
1, 322560, Note_on_c, 0, 60, 72
1, 322604, Note_on_c, 0, 60, 0
1, 322608, Note_on_c, 0, 64, 72
1, 322652, Note_on_c, 0, 64, 0
1, 322656, Note_on_c, 0, 67, 72
1, 322700, Note_on_c, 0, 67, 0
1, 322704, Note_on_c, 0, 72, 72
1, 322704, Note_on_c, 1, 48, 72
1, 322704, Note_on_c, 1, 36, 72
1, 323308, Note_on_c, 0, 72, 0
1, 323328, Note_on_c, 0, 67, 72
1, 323328, Note_on_c, 1, 43, 72
1, 323468, Note_on_c, 1, 48, 0
1, 323468, Note_on_c, 1, 36, 0
1, 324092, Note_on_c, 0, 67, 0
1, 324092, Note_on_c, 1, 43, 0
1, 324096, Note_on_c, 0, 76, 72
1, 324096, Note_on_c, 1, 52, 72
1, 324668, Note_on_c, 0, 76, 0
1, 324668, Note_on_c, 1, 52, 0
1, 324672, Note_on_c, 0, 77, 72
1, 324672, Note_on_c, 1, 53, 72
1, 324764, Note_on_c, 0, 77, 0
1, 324764, Note_on_c, 1, 53, 0
1, 324768, Note_on_c, 0, 74, 72
1, 324768, Note_on_c, 1, 50, 72
1, 324860, Note_on_c, 0, 74, 0
1, 324860, Note_on_c, 1, 50, 0
1, 324864, Note_on_c, 0, 72, 72
1, 324864, Note_on_c, 1, 48, 72
1, 325244, Note_on_c, 0, 72, 0
1, 325244, Note_on_c, 1, 48, 0
1, 325248, Note_on_c, 0, 74, 73
1, 325248, Note_on_c, 1, 55, 77
1, 325248, Note_on_c, 1, 43, 77
1, 325340, Note_on_c, 0, 74, 0
1, 325344, Note_on_c, 0, 77, 75
1, 325436, Note_on_c, 0, 77, 0
1, 325440, Note_on_c, 0, 79, 76
1, 325532, Note_on_c, 0, 79, 0
1, 325536, Note_on_c, 0, 83, 77
1, 325628, Note_on_c, 0, 83, 0
1, 325628, Note_on_c, 1, 55, 0
1, 325628, Note_on_c, 1, 43, 0
1, 325632, Note_on_c, 0, 72, 77
1, 325632, Note_on_c, 1, 60, 77
1, 325724, Note_on_c, 0, 72, 0
1, 325728, Note_on_c, 0, 76, 77
1, 325820, Note_on_c, 0, 76, 0
1, 325824, Note_on_c, 0, 79, 77
1, 325916, Note_on_c, 0, 79, 0
1, 325920, Note_on_c, 0, 83, 77
1, 326012, Note_on_c, 0, 83, 0
1, 326012, Note_on_c, 1, 60, 0
1, 326016, Note_on_c, 0, 74, 77
1, 326016, Note_on_c, 1, 55, 77
1, 326016, Note_on_c, 1, 43, 77
1, 326108, Note_on_c, 0, 74, 0
1, 326112, Note_on_c, 0, 77, 77
1, 326204, Note_on_c, 0, 77, 0
1, 326208, Note_on_c, 0, 79, 77
1, 326300, Note_on_c, 0, 79, 0
1, 326304, Note_on_c, 0, 83, 77
1, 326396, Note_on_c, 0, 83, 0
1, 326396, Note_on_c, 1, 55, 0
1, 326396, Note_on_c, 1, 43, 0
1, 326400, Note_on_c, 0, 72, 77
1, 326400, Note_on_c, 1, 60, 77
1, 326400, Note_on_c, 1, 48, 77
1, 326492, Note_on_c, 0, 72, 0
1, 326496, Note_on_c, 0, 76, 77
1, 326588, Note_on_c, 0, 76, 0
1, 326592, Note_on_c, 0, 79, 77
1, 326684, Note_on_c, 0, 79, 0
1, 326688, Note_on_c, 0, 84, 77
1, 326780, Note_on_c, 0, 84, 0
1, 326780, Note_on_c, 1, 60, 0
1, 326780, Note_on_c, 1, 48, 0
1, 326784, Note_on_c, 0, 74, 77
1, 326784, Note_on_c, 1, 55, 77
1, 326784, Note_on_c, 1, 43, 77
1, 326876, Note_on_c, 0, 74, 0
1, 326880, Note_on_c, 0, 77, 77
1, 326972, Note_on_c, 0, 77, 0
1, 326976, Note_on_c, 0, 79, 77
1, 327068, Note_on_c, 0, 79, 0
1, 327072, Note_on_c, 0, 83, 77
1, 327164, Note_on_c, 0, 83, 0
1, 327164, Note_on_c, 1, 55, 0
1, 327164, Note_on_c, 1, 43, 0
1, 327168, Note_on_c, 0, 84, 77
1, 327168, Note_on_c, 0, 76, 77
1, 327168, Note_on_c, 1, 60, 77
1, 327168, Note_on_c, 1, 48, 77
1, 327548, Note_on_c, 0, 84, 0
1, 327548, Note_on_c, 0, 76, 0
1, 327548, Note_on_c, 1, 60, 0
1, 327548, Note_on_c, 1, 48, 0
1, 327552, Note_on_c, 0, 64, 77
1, 327552, Note_on_c, 0, 67, 77
1, 327552, Note_on_c, 0, 72, 77
1, 327552, Note_on_c, 1, 48, 77
1, 327552, Note_on_c, 1, 36, 77
1, 327932, Note_on_c, 0, 64, 0
1, 327932, Note_on_c, 0, 67, 0
1, 327932, Note_on_c, 0, 72, 0
1, 327932, Note_on_c, 1, 48, 0
1, 327932, Note_on_c, 1, 36, 0
1, 327936, Note_on_c, 0, 72, 77
1, 327936, Note_on_c, 0, 67, 77
1, 327936, Note_on_c, 0, 64, 77
1, 327936, Note_on_c, 1, 48, 77
1, 327936, Note_on_c, 1, 36, 77
1, 328316, Note_on_c, 0, 72, 0
1, 328316, Note_on_c, 0, 67, 0
1, 328316, Note_on_c, 0, 64, 0
1, 328316, Note_on_c, 1, 48, 0
1, 328316, Note_on_c, 1, 36, 0
1, 328704, Note_on_c, 0, 55, 72
1, 328752, Note_on_c, 0, 55, 0
1, 328752, Note_on_c, 0, 58, 72
1, 328800, Note_on_c, 0, 58, 0
1, 328800, Note_on_c, 0, 62, 72
1, 328848, Note_on_c, 0, 62, 0
1, 328848, Note_on_c, 0, 67, 72
1, 328848, Note_on_c, 1, 43, 72
1, 328848, Note_on_c, 1, 31, 72
1, 329452, Note_on_c, 0, 67, 0
1, 329472, Note_on_c, 0, 62, 72
1, 329472, Note_on_c, 1, 38, 72
1, 329612, Note_on_c, 1, 43, 0
1, 329612, Note_on_c, 1, 31, 0
1, 330236, Note_on_c, 0, 62, 0
1, 330236, Note_on_c, 1, 38, 0
1, 330240, Note_on_c, 0, 70, 72
1, 330240, Note_on_c, 1, 46, 72
1, 330812, Note_on_c, 0, 70, 0
1, 330812, Note_on_c, 1, 46, 0
1, 330816, Note_on_c, 0, 72, 72
1, 330816, Note_on_c, 1, 48, 72
1, 330908, Note_on_c, 0, 72, 0
1, 330908, Note_on_c, 1, 48, 0
1, 330912, Note_on_c, 0, 69, 72
1, 330912, Note_on_c, 1, 45, 72
1, 331004, Note_on_c, 0, 69, 0
1, 331004, Note_on_c, 1, 45, 0
1, 331008, Note_on_c, 0, 67, 72
1, 331008, Note_on_c, 1, 43, 72
1, 331388, Note_on_c, 0, 67, 0
1, 331388, Note_on_c, 1, 43, 0
1, 331776, Note_on_c, 0, 74, 51
1, 331776, Note_on_c, 0, 70, 51
1, 332348, Note_on_c, 0, 74, 0
1, 332348, Note_on_c, 0, 70, 0
1, 332352, Note_on_c, 0, 75, 51
1, 332352, Note_on_c, 0, 72, 51
1, 332444, Note_on_c, 0, 75, 0
1, 332444, Note_on_c, 0, 72, 0
1, 332448, Note_on_c, 0, 72, 51
1, 332448, Note_on_c, 0, 69, 51
1, 332540, Note_on_c, 0, 72, 0
1, 332540, Note_on_c, 0, 69, 0
1, 332544, Note_on_c, 0, 70, 51
1, 332544, Note_on_c, 0, 67, 51
1, 332924, Note_on_c, 0, 70, 0
1, 332924, Note_on_c, 0, 67, 0
1, 333312, Note_on_c, 0, 82, 41
1, 333312, Note_on_c, 0, 74, 41
1, 333884, Note_on_c, 0, 82, 0
1, 333884, Note_on_c, 0, 74, 0
1, 333888, Note_on_c, 0, 84, 41
1, 333888, Note_on_c, 0, 75, 41
1, 333980, Note_on_c, 0, 84, 0
1, 333980, Note_on_c, 0, 75, 0
1, 333984, Note_on_c, 0, 81, 41
1, 333984, Note_on_c, 0, 72, 41
1, 334076, Note_on_c, 0, 81, 0
1, 334076, Note_on_c, 0, 72, 0
1, 334080, Note_on_c, 0, 79, 41
1, 334080, Note_on_c, 0, 70, 41
1, 334460, Note_on_c, 0, 79, 0
1, 334460, Note_on_c, 0, 70, 0
1, 334848, Note_on_c, 0, 62, 51
1, 334848, Note_on_c, 0, 58, 51
1, 334992, Note_on_c, 0, 62, 0
1, 334992, Note_on_c, 0, 58, 0
1, 335040, Note_on_c, 0, 67, 51
1, 335184, Note_on_c, 0, 67, 0
1, 335232, Note_on_c, 0, 79, 51
1, 335232, Note_on_c, 0, 62, 51
1, 335232, Note_on_c, 0, 58, 51
1, 335376, Note_on_c, 0, 62, 0
1, 335376, Note_on_c, 0, 58, 0
1, 335424, Note_on_c, 0, 67, 51
1, 335568, Note_on_c, 0, 67, 0
1, 335612, Note_on_c, 0, 79, 0
1, 335616, Note_on_c, 0, 86, 51
1, 335616, Note_on_c, 0, 62, 51
1, 335616, Note_on_c, 0, 58, 51
1, 335760, Note_on_c, 0, 62, 0
1, 335760, Note_on_c, 0, 58, 0
1, 335808, Note_on_c, 0, 67, 51
1, 335952, Note_on_c, 0, 67, 0
1, 335996, Note_on_c, 0, 86, 0
1, 336000, Note_on_c, 0, 62, 51
1, 336000, Note_on_c, 0, 58, 51
1, 336000, Note_on_c, 0, 88, 51
1, 336144, Note_on_c, 0, 62, 0
1, 336144, Note_on_c, 0, 58, 0
1, 336192, Note_on_c, 0, 67, 51
1, 336336, Note_on_c, 0, 67, 0
1, 336380, Note_on_c, 0, 88, 0
1, 336384, Note_on_c, 0, 86, 51
1, 336384, Note_on_c, 0, 64, 51
1, 336384, Note_on_c, 0, 57, 51
1, 336528, Note_on_c, 0, 64, 0
1, 336528, Note_on_c, 0, 57, 0
1, 336576, Note_on_c, 0, 67, 51
1, 336720, Note_on_c, 0, 67, 0
1, 336768, Note_on_c, 0, 64, 51
1, 336768, Note_on_c, 0, 57, 51
1, 336912, Note_on_c, 0, 86, 0
1, 336912, Note_on_c, 0, 64, 0
1, 336912, Note_on_c, 0, 57, 0
1, 336960, Note_on_c, 0, 67, 51
1, 337104, Note_on_c, 0, 67, 0
1, 337152, Note_on_c, 0, 85, 51
1, 337152, Note_on_c, 0, 64, 51
1, 337152, Note_on_c, 0, 57, 51
1, 337296, Note_on_c, 0, 64, 0
1, 337296, Note_on_c, 0, 57, 0
1, 337344, Note_on_c, 0, 67, 51
1, 337488, Note_on_c, 0, 67, 0
1, 337532, Note_on_c, 0, 85, 0
1, 337536, Note_on_c, 0, 64, 51
1, 337536, Note_on_c, 0, 57, 51
1, 337680, Note_on_c, 0, 64, 0
1, 337680, Note_on_c, 0, 57, 0
1, 337728, Note_on_c, 0, 67, 51
1, 337872, Note_on_c, 0, 67, 0
1, 337920, Note_on_c, 0, 62, 51
1, 337920, Note_on_c, 0, 58, 51
1, 338064, Note_on_c, 0, 62, 0
1, 338064, Note_on_c, 0, 58, 0
1, 338112, Note_on_c, 0, 67, 51
1, 338208, Note_on_c, 0, 79, 51
1, 338256, Note_on_c, 0, 67, 0
1, 338300, Note_on_c, 0, 79, 0
1, 338304, Note_on_c, 0, 62, 51
1, 338304, Note_on_c, 0, 58, 51
1, 338304, Note_on_c, 0, 79, 51
1, 338348, Note_on_c, 0, 79, 0
1, 338352, Note_on_c, 0, 81, 51
1, 338396, Note_on_c, 0, 81, 0
1, 338400, Note_on_c, 0, 79, 51
1, 338444, Note_on_c, 0, 79, 0
1, 338448, Note_on_c, 0, 62, 0
1, 338448, Note_on_c, 0, 58, 0
1, 338448, Note_on_c, 0, 81, 51
1, 338492, Note_on_c, 0, 81, 0
1, 338496, Note_on_c, 0, 78, 51
1, 338496, Note_on_c, 0, 67, 51
1, 338540, Note_on_c, 0, 78, 0
1, 338592, Note_on_c, 0, 79, 51
1, 338636, Note_on_c, 0, 79, 0
1, 338640, Note_on_c, 0, 67, 0
1, 338688, Note_on_c, 0, 86, 51
1, 338688, Note_on_c, 0, 62, 51
1, 338688, Note_on_c, 0, 58, 51
1, 338832, Note_on_c, 0, 62, 0
1, 338832, Note_on_c, 0, 58, 0
1, 338880, Note_on_c, 0, 67, 51
1, 339024, Note_on_c, 0, 67, 0
1, 339068, Note_on_c, 0, 86, 0
1, 339072, Note_on_c, 0, 88, 51
1, 339072, Note_on_c, 0, 62, 51
1, 339072, Note_on_c, 0, 58, 51
1, 339216, Note_on_c, 0, 62, 0
1, 339216, Note_on_c, 0, 58, 0
1, 339264, Note_on_c, 0, 67, 51
1, 339408, Note_on_c, 0, 67, 0
1, 339452, Note_on_c, 0, 88, 0
1, 339456, Note_on_c, 0, 86, 51
1, 339456, Note_on_c, 0, 64, 51
1, 339456, Note_on_c, 0, 57, 51
1, 339600, Note_on_c, 0, 64, 0
1, 339600, Note_on_c, 0, 57, 0
1, 339648, Note_on_c, 0, 67, 51
1, 339792, Note_on_c, 0, 67, 0
1, 339840, Note_on_c, 0, 64, 51
1, 339840, Note_on_c, 0, 57, 51
1, 339984, Note_on_c, 0, 64, 0
1, 339984, Note_on_c, 0, 57, 0
1, 340032, Note_on_c, 0, 67, 51
1, 340176, Note_on_c, 0, 67, 0
1, 340220, Note_on_c, 0, 86, 0
1, 340224, Note_on_c, 0, 85, 51
1, 340224, Note_on_c, 0, 64, 51
1, 340224, Note_on_c, 0, 57, 51
1, 340368, Note_on_c, 0, 64, 0
1, 340368, Note_on_c, 0, 57, 0
1, 340416, Note_on_c, 0, 67, 51
1, 340560, Note_on_c, 0, 67, 0
1, 340604, Note_on_c, 0, 85, 0
1, 340608, Note_on_c, 0, 64, 51
1, 340608, Note_on_c, 0, 57, 51
1, 340752, Note_on_c, 0, 64, 0
1, 340752, Note_on_c, 0, 57, 0
1, 340800, Note_on_c, 0, 67, 51
1, 340944, Note_on_c, 0, 67, 0
1, 340992, Note_on_c, 1, 50, 72
1, 341036, Note_on_c, 1, 50, 0
1, 341040, Note_on_c, 1, 53, 72
1, 341084, Note_on_c, 1, 53, 0
1, 341088, Note_on_c, 1, 57, 72
1, 341132, Note_on_c, 1, 57, 0
1, 341136, Note_on_c, 1, 38, 72
1, 341136, Note_on_c, 1, 62, 72
1, 341136, Note_on_c, 1, 50, 72
1, 341740, Note_on_c, 1, 38, 0
1, 341740, Note_on_c, 1, 62, 0
1, 341740, Note_on_c, 1, 50, 0
1, 341760, Note_on_c, 1, 45, 72
1, 341760, Note_on_c, 1, 57, 72
1, 342524, Note_on_c, 1, 45, 0
1, 342524, Note_on_c, 1, 57, 0
1, 342528, Note_on_c, 0, 65, 72
1, 342528, Note_on_c, 1, 53, 72
1, 343100, Note_on_c, 0, 65, 0
1, 343100, Note_on_c, 1, 53, 0
1, 343104, Note_on_c, 0, 67, 72
1, 343104, Note_on_c, 1, 55, 72
1, 343196, Note_on_c, 0, 67, 0
1, 343196, Note_on_c, 1, 55, 0
1, 343200, Note_on_c, 0, 64, 72
1, 343200, Note_on_c, 1, 52, 72
1, 343292, Note_on_c, 0, 64, 0
1, 343292, Note_on_c, 1, 52, 0
1, 343296, Note_on_c, 0, 62, 72
1, 343296, Note_on_c, 1, 50, 72
1, 343676, Note_on_c, 1, 50, 0
1, 344060, Note_on_c, 0, 62, 0
1, 344064, Note_on_c, 1, 57, 51
1, 344064, Note_on_c, 1, 53, 51
1, 344208, Note_on_c, 1, 57, 0
1, 344256, Note_on_c, 1, 62, 51
1, 344352, Note_on_c, 0, 74, 51
1, 344400, Note_on_c, 1, 62, 0
1, 344444, Note_on_c, 0, 74, 0
1, 344444, Note_on_c, 1, 53, 0
1, 344448, Note_on_c, 0, 76, 51
1, 344448, Note_on_c, 1, 57, 51
1, 344448, Note_on_c, 1, 53, 51
1, 344492, Note_on_c, 0, 76, 0
1, 344496, Note_on_c, 0, 74, 51
1, 344540, Note_on_c, 0, 74, 0
1, 344544, Note_on_c, 0, 73, 51
1, 344588, Note_on_c, 0, 73, 0
1, 344592, Note_on_c, 0, 74, 51
1, 344592, Note_on_c, 1, 57, 0
1, 344636, Note_on_c, 0, 74, 0
1, 344640, Note_on_c, 0, 73, 51
1, 344640, Note_on_c, 1, 62, 51
1, 344732, Note_on_c, 0, 73, 0
1, 344736, Note_on_c, 0, 74, 51
1, 344784, Note_on_c, 1, 62, 0
1, 344828, Note_on_c, 0, 74, 0
1, 344828, Note_on_c, 1, 53, 0
1, 344832, Note_on_c, 0, 81, 51
1, 344832, Note_on_c, 1, 57, 51
1, 344832, Note_on_c, 1, 53, 51
1, 344976, Note_on_c, 1, 57, 0
1, 345024, Note_on_c, 1, 62, 51
1, 345168, Note_on_c, 1, 62, 0
1, 345212, Note_on_c, 0, 81, 0
1, 345212, Note_on_c, 1, 53, 0
1, 345216, Note_on_c, 0, 83, 51
1, 345216, Note_on_c, 1, 57, 51
1, 345216, Note_on_c, 1, 53, 51
1, 345360, Note_on_c, 1, 57, 0
1, 345408, Note_on_c, 1, 62, 51
1, 345552, Note_on_c, 1, 62, 0
1, 345596, Note_on_c, 0, 83, 0
1, 345596, Note_on_c, 1, 53, 0
1, 345600, Note_on_c, 0, 81, 51
1, 345600, Note_on_c, 1, 59, 51
1, 345600, Note_on_c, 1, 52, 51
1, 345744, Note_on_c, 1, 59, 0
1, 345792, Note_on_c, 1, 62, 51
1, 345936, Note_on_c, 1, 62, 0
1, 345980, Note_on_c, 1, 52, 0
1, 345984, Note_on_c, 1, 59, 51
1, 345984, Note_on_c, 1, 52, 51
1, 346128, Note_on_c, 1, 59, 0
1, 346176, Note_on_c, 1, 62, 51
1, 346320, Note_on_c, 1, 62, 0
1, 346364, Note_on_c, 0, 81, 0
1, 346364, Note_on_c, 1, 52, 0
1, 346368, Note_on_c, 0, 80, 51
1, 346368, Note_on_c, 1, 59, 51
1, 346368, Note_on_c, 1, 52, 51
1, 346512, Note_on_c, 1, 59, 0
1, 346560, Note_on_c, 1, 62, 51
1, 346704, Note_on_c, 1, 62, 0
1, 346748, Note_on_c, 0, 80, 0
1, 346748, Note_on_c, 1, 52, 0
1, 346752, Note_on_c, 1, 59, 51
1, 346752, Note_on_c, 1, 52, 51
1, 346896, Note_on_c, 1, 59, 0
1, 346944, Note_on_c, 1, 62, 51
1, 347088, Note_on_c, 1, 62, 0
1, 347132, Note_on_c, 1, 52, 0
1, 347136, Note_on_c, 1, 57, 51
1, 347136, Note_on_c, 1, 53, 51
1, 347152, Note_on_c, 1, 53, 51
1, 347280, Note_on_c, 1, 57, 0
1, 347328, Note_on_c, 0, 81, 51
1, 347328, Note_on_c, 1, 62, 51
1, 347472, Note_on_c, 0, 81, 0
1, 347472, Note_on_c, 1, 62, 0
1, 347516, Note_on_c, 1, 53, 0
1, 347520, Note_on_c, 0, 86, 51
1, 347520, Note_on_c, 1, 57, 51
1, 347520, Note_on_c, 1, 53, 51
1, 347532, Note_on_c, 1, 53, 0
1, 347664, Note_on_c, 0, 86, 0
1, 347664, Note_on_c, 1, 57, 0
1, 347712, Note_on_c, 0, 85, 51
1, 347712, Note_on_c, 1, 62, 51
1, 347856, Note_on_c, 0, 85, 0
1, 347856, Note_on_c, 1, 62, 0
1, 347900, Note_on_c, 1, 53, 0
1, 347904, Note_on_c, 0, 88, 51
1, 347904, Note_on_c, 1, 57, 51
1, 347904, Note_on_c, 1, 53, 51
1, 348048, Note_on_c, 0, 88, 0
1, 348048, Note_on_c, 1, 57, 0
1, 348096, Note_on_c, 0, 86, 51
1, 348096, Note_on_c, 1, 62, 51
1, 348240, Note_on_c, 0, 86, 0
1, 348240, Note_on_c, 1, 62, 0
1, 348284, Note_on_c, 1, 53, 0
1, 348288, Note_on_c, 0, 84, 51
1, 348288, Note_on_c, 1, 57, 51
1, 348288, Note_on_c, 1, 53, 51
1, 348432, Note_on_c, 0, 84, 0
1, 348432, Note_on_c, 1, 57, 0
1, 348480, Note_on_c, 0, 83, 51
1, 348480, Note_on_c, 1, 62, 51
1, 348624, Note_on_c, 0, 83, 0
1, 348624, Note_on_c, 1, 62, 0
1, 348668, Note_on_c, 1, 53, 0
1, 348672, Note_on_c, 0, 81, 51
1, 348672, Note_on_c, 1, 59, 51
1, 348672, Note_on_c, 1, 52, 51
1, 348816, Note_on_c, 1, 59, 0
1, 348864, Note_on_c, 1, 62, 51
1, 349008, Note_on_c, 1, 62, 0
1, 349052, Note_on_c, 1, 52, 0
1, 349056, Note_on_c, 1, 59, 51
1, 349056, Note_on_c, 1, 52, 51
1, 349200, Note_on_c, 1, 59, 0
1, 349248, Note_on_c, 1, 62, 51
1, 349344, Note_on_c, 0, 81, 0
1, 349344, Note_on_c, 0, 83, 51
1, 349392, Note_on_c, 0, 83, 0
1, 349392, Note_on_c, 0, 81, 51
1, 349392, Note_on_c, 1, 62, 0
1, 349436, Note_on_c, 1, 52, 0
1, 349440, Note_on_c, 0, 81, 0
1, 349440, Note_on_c, 0, 80, 51
1, 349440, Note_on_c, 1, 59, 51
1, 349440, Note_on_c, 1, 52, 51
1, 349584, Note_on_c, 1, 59, 0
1, 349632, Note_on_c, 1, 62, 51
1, 349776, Note_on_c, 1, 62, 0
1, 349820, Note_on_c, 0, 80, 0
1, 349820, Note_on_c, 1, 52, 0
1, 349824, Note_on_c, 1, 59, 51
1, 349824, Note_on_c, 1, 52, 51
1, 349968, Note_on_c, 1, 59, 0
1, 350016, Note_on_c, 1, 62, 51
1, 350160, Note_on_c, 1, 62, 0
1, 350204, Note_on_c, 1, 52, 0
1, 350208, Note_on_c, 0, 84, 51
1, 350208, Note_on_c, 0, 72, 51
1, 350208, Note_on_c, 1, 57, 72
1, 350300, Note_on_c, 1, 57, 0
1, 350304, Note_on_c, 1, 64, 72
1, 350396, Note_on_c, 1, 64, 0
1, 350400, Note_on_c, 1, 60, 72
1, 350492, Note_on_c, 1, 60, 0
1, 350496, Note_on_c, 1, 64, 72
1, 350588, Note_on_c, 1, 64, 0
1, 350592, Note_on_c, 1, 57, 72
1, 350684, Note_on_c, 1, 57, 0
1, 350688, Note_on_c, 1, 64, 72
1, 350780, Note_on_c, 1, 64, 0
1, 350784, Note_on_c, 1, 60, 72
1, 350876, Note_on_c, 1, 60, 0
1, 350880, Note_on_c, 1, 64, 72
1, 350972, Note_on_c, 0, 84, 0
1, 350972, Note_on_c, 0, 72, 0
1, 350972, Note_on_c, 1, 64, 0
1, 350976, Note_on_c, 0, 81, 51
1, 350976, Note_on_c, 0, 69, 51
1, 350976, Note_on_c, 1, 57, 72
1, 351068, Note_on_c, 1, 57, 0
1, 351072, Note_on_c, 1, 64, 72
1, 351164, Note_on_c, 1, 64, 0
1, 351168, Note_on_c, 1, 60, 72
1, 351260, Note_on_c, 1, 60, 0
1, 351264, Note_on_c, 1, 64, 72
1, 351356, Note_on_c, 1, 64, 0
1, 351360, Note_on_c, 1, 57, 72
1, 351452, Note_on_c, 1, 57, 0
1, 351456, Note_on_c, 1, 64, 72
1, 351548, Note_on_c, 1, 64, 0
1, 351552, Note_on_c, 1, 60, 72
1, 351644, Note_on_c, 1, 60, 0
1, 351648, Note_on_c, 1, 64, 72
1, 351740, Note_on_c, 0, 81, 0
1, 351740, Note_on_c, 0, 69, 0
1, 351740, Note_on_c, 1, 64, 0
1, 351744, Note_on_c, 0, 87, 51
1, 351744, Note_on_c, 1, 57, 72
1, 351836, Note_on_c, 1, 57, 0
1, 351840, Note_on_c, 1, 66, 72
1, 351932, Note_on_c, 1, 66, 0
1, 351936, Note_on_c, 1, 60, 72
1, 352028, Note_on_c, 1, 60, 0
1, 352032, Note_on_c, 1, 66, 72
1, 352124, Note_on_c, 1, 66, 0
1, 352128, Note_on_c, 1, 57, 72
1, 352220, Note_on_c, 1, 57, 0
1, 352224, Note_on_c, 1, 66, 72
1, 352316, Note_on_c, 0, 87, 0
1, 352316, Note_on_c, 1, 66, 0
1, 352320, Note_on_c, 0, 88, 51
1, 352320, Note_on_c, 1, 60, 72
1, 352412, Note_on_c, 0, 88, 0
1, 352412, Note_on_c, 1, 60, 0
1, 352416, Note_on_c, 0, 87, 51
1, 352416, Note_on_c, 1, 66, 72
1, 352508, Note_on_c, 0, 87, 0
1, 352508, Note_on_c, 1, 66, 0
1, 352512, Note_on_c, 0, 88, 51
1, 352512, Note_on_c, 1, 57, 72
1, 352604, Note_on_c, 1, 57, 0
1, 352608, Note_on_c, 1, 66, 72
1, 352700, Note_on_c, 1, 66, 0
1, 352704, Note_on_c, 1, 59, 72
1, 352796, Note_on_c, 1, 59, 0
1, 352800, Note_on_c, 1, 66, 72
1, 352892, Note_on_c, 0, 88, 0
1, 352892, Note_on_c, 1, 66, 0
1, 352896, Note_on_c, 1, 57, 72
1, 352988, Note_on_c, 1, 57, 0
1, 352992, Note_on_c, 1, 66, 72
1, 353084, Note_on_c, 1, 66, 0
1, 353088, Note_on_c, 1, 59, 72
1, 353180, Note_on_c, 1, 59, 0
1, 353184, Note_on_c, 1, 66, 72
1, 353276, Note_on_c, 1, 66, 0
1, 353280, Note_on_c, 0, 82, 51
1, 353280, Note_on_c, 0, 70, 51
1, 353280, Note_on_c, 1, 55, 72
1, 353372, Note_on_c, 1, 55, 0
1, 353376, Note_on_c, 1, 62, 72
1, 353468, Note_on_c, 1, 62, 0
1, 353472, Note_on_c, 1, 58, 72
1, 353564, Note_on_c, 1, 58, 0
1, 353568, Note_on_c, 1, 62, 72
1, 353660, Note_on_c, 1, 62, 0
1, 353664, Note_on_c, 1, 55, 72
1, 353756, Note_on_c, 1, 55, 0
1, 353760, Note_on_c, 1, 62, 72
1, 353852, Note_on_c, 1, 62, 0
1, 353856, Note_on_c, 1, 58, 72
1, 353948, Note_on_c, 1, 58, 0
1, 353952, Note_on_c, 1, 62, 72
1, 354044, Note_on_c, 0, 82, 0
1, 354044, Note_on_c, 0, 70, 0
1, 354044, Note_on_c, 1, 62, 0
1, 354048, Note_on_c, 0, 79, 51
1, 354048, Note_on_c, 0, 67, 51
1, 354048, Note_on_c, 1, 55, 72
1, 354140, Note_on_c, 1, 55, 0
1, 354144, Note_on_c, 1, 61, 72
1, 354236, Note_on_c, 1, 61, 0
1, 354240, Note_on_c, 1, 58, 72
1, 354332, Note_on_c, 1, 58, 0
1, 354336, Note_on_c, 1, 61, 72
1, 354428, Note_on_c, 1, 61, 0
1, 354432, Note_on_c, 1, 55, 72
1, 354524, Note_on_c, 1, 55, 0
1, 354528, Note_on_c, 1, 61, 72
1, 354620, Note_on_c, 1, 61, 0
1, 354624, Note_on_c, 1, 58, 72
1, 354716, Note_on_c, 1, 58, 0
1, 354720, Note_on_c, 1, 61, 72
1, 354812, Note_on_c, 0, 79, 0
1, 354812, Note_on_c, 0, 67, 0
1, 354812, Note_on_c, 1, 61, 0
1, 354816, Note_on_c, 0, 85, 51
1, 354816, Note_on_c, 1, 55, 72
1, 354908, Note_on_c, 1, 55, 0
1, 354912, Note_on_c, 1, 64, 72
1, 355004, Note_on_c, 1, 64, 0
1, 355008, Note_on_c, 1, 58, 72
1, 355100, Note_on_c, 1, 58, 0
1, 355104, Note_on_c, 1, 64, 72
1, 355196, Note_on_c, 1, 64, 0
1, 355200, Note_on_c, 1, 55, 72
1, 355292, Note_on_c, 1, 55, 0
1, 355296, Note_on_c, 1, 64, 72
1, 355388, Note_on_c, 0, 85, 0
1, 355388, Note_on_c, 1, 64, 0
1, 355392, Note_on_c, 0, 86, 51
1, 355392, Note_on_c, 1, 58, 72
1, 355484, Note_on_c, 0, 86, 0
1, 355484, Note_on_c, 1, 58, 0
1, 355488, Note_on_c, 0, 85, 51
1, 355488, Note_on_c, 1, 64, 72
1, 355580, Note_on_c, 0, 85, 0
1, 355580, Note_on_c, 1, 64, 0
1, 355584, Note_on_c, 0, 86, 51
1, 355584, Note_on_c, 1, 54, 72
1, 355676, Note_on_c, 1, 54, 0
1, 355680, Note_on_c, 1, 62, 72
1, 355772, Note_on_c, 1, 62, 0
1, 355776, Note_on_c, 1, 57, 72
1, 355868, Note_on_c, 1, 57, 0
1, 355872, Note_on_c, 1, 62, 72
1, 355964, Note_on_c, 0, 86, 0
1, 355964, Note_on_c, 1, 62, 0
1, 355968, Note_on_c, 1, 54, 72
1, 356060, Note_on_c, 1, 54, 0
1, 356064, Note_on_c, 1, 62, 72
1, 356156, Note_on_c, 1, 62, 0
1, 356160, Note_on_c, 1, 57, 72
1, 356252, Note_on_c, 1, 57, 0
1, 356256, Note_on_c, 1, 62, 72
1, 356348, Note_on_c, 1, 62, 0
1, 356352, Note_on_c, 0, 83, 51
1, 356352, Note_on_c, 1, 53, 72
1, 356444, Note_on_c, 1, 53, 0
1, 356448, Note_on_c, 1, 60, 72
1, 356540, Note_on_c, 1, 60, 0
1, 356544, Note_on_c, 1, 56, 72
1, 356636, Note_on_c, 1, 56, 0
1, 356640, Note_on_c, 1, 62, 72
1, 356732, Note_on_c, 1, 62, 0
1, 356736, Note_on_c, 1, 53, 72
1, 356828, Note_on_c, 1, 53, 0
1, 356832, Note_on_c, 1, 60, 72
1, 356924, Note_on_c, 0, 83, 0
1, 356924, Note_on_c, 1, 60, 0
1, 356928, Note_on_c, 0, 84, 51
1, 356928, Note_on_c, 1, 56, 72
1, 357020, Note_on_c, 0, 84, 0
1, 357020, Note_on_c, 1, 56, 0
1, 357024, Note_on_c, 0, 83, 51
1, 357024, Note_on_c, 1, 60, 72
1, 357116, Note_on_c, 0, 83, 0
1, 357116, Note_on_c, 1, 60, 0
1, 357120, Note_on_c, 0, 84, 51
1, 357120, Note_on_c, 1, 52, 72
1, 357212, Note_on_c, 1, 52, 0
1, 357216, Note_on_c, 1, 60, 72
1, 357308, Note_on_c, 1, 60, 0
1, 357312, Note_on_c, 1, 55, 72
1, 357404, Note_on_c, 1, 55, 0
1, 357408, Note_on_c, 1, 60, 72
1, 357500, Note_on_c, 0, 84, 0
1, 357500, Note_on_c, 1, 60, 0
1, 357504, Note_on_c, 1, 52, 72
1, 357596, Note_on_c, 1, 52, 0
1, 357600, Note_on_c, 1, 60, 72
1, 357692, Note_on_c, 1, 60, 0
1, 357696, Note_on_c, 1, 55, 72
1, 357788, Note_on_c, 1, 55, 0
1, 357792, Note_on_c, 1, 60, 72
1, 357884, Note_on_c, 1, 60, 0
1, 357888, Note_on_c, 0, 80, 51
1, 357888, Note_on_c, 1, 50, 72
1, 357980, Note_on_c, 1, 50, 0
1, 357984, Note_on_c, 1, 59, 72
1, 358076, Note_on_c, 1, 59, 0
1, 358080, Note_on_c, 1, 53, 72
1, 358172, Note_on_c, 1, 53, 0
1, 358176, Note_on_c, 1, 59, 72
1, 358268, Note_on_c, 1, 59, 0
1, 358272, Note_on_c, 1, 50, 72
1, 358364, Note_on_c, 1, 50, 0
1, 358368, Note_on_c, 1, 59, 72
1, 358460, Note_on_c, 0, 80, 0
1, 358460, Note_on_c, 1, 59, 0
1, 358464, Note_on_c, 0, 81, 51
1, 358464, Note_on_c, 1, 53, 72
1, 358556, Note_on_c, 0, 81, 0
1, 358556, Note_on_c, 1, 53, 0
1, 358560, Note_on_c, 0, 80, 51
1, 358560, Note_on_c, 1, 59, 72
1, 358652, Note_on_c, 0, 80, 0
1, 358652, Note_on_c, 1, 59, 0
1, 358656, Note_on_c, 0, 81, 51
1, 358656, Note_on_c, 1, 48, 72
1, 358748, Note_on_c, 1, 48, 0
1, 358752, Note_on_c, 1, 57, 72
1, 358844, Note_on_c, 1, 57, 0
1, 358848, Note_on_c, 1, 52, 72
1, 358940, Note_on_c, 1, 52, 0
1, 358944, Note_on_c, 1, 57, 72
1, 359036, Note_on_c, 0, 81, 0
1, 359036, Note_on_c, 1, 57, 0
1, 359040, Note_on_c, 1, 48, 72
1, 359132, Note_on_c, 1, 48, 0
1, 359136, Note_on_c, 1, 57, 72
1, 359228, Note_on_c, 1, 57, 0
1, 359232, Note_on_c, 1, 52, 72
1, 359324, Note_on_c, 1, 52, 0
1, 359328, Note_on_c, 1, 57, 72
1, 359420, Note_on_c, 1, 57, 0
1, 359424, Note_on_c, 1, 51, 72
1, 359424, Note_on_c, 1, 39, 72
1, 359616, Note_on_c, 0, 81, 51
1, 359760, Note_on_c, 0, 81, 0
1, 359804, Note_on_c, 1, 51, 0
1, 359804, Note_on_c, 1, 39, 0
1, 359808, Note_on_c, 0, 84, 51
1, 359952, Note_on_c, 0, 84, 0
1, 360000, Note_on_c, 0, 78, 51
1, 360144, Note_on_c, 0, 78, 0
1, 360192, Note_on_c, 0, 81, 51
1, 360336, Note_on_c, 0, 81, 0
1, 360384, Note_on_c, 0, 75, 51
1, 360528, Note_on_c, 0, 75, 0
1, 360576, Note_on_c, 0, 78, 51
1, 360720, Note_on_c, 0, 78, 0
1, 360768, Note_on_c, 0, 72, 51
1, 360912, Note_on_c, 0, 72, 0
1, 360960, Note_on_c, 0, 75, 51
1, 361104, Note_on_c, 0, 75, 0
1, 361152, Note_on_c, 0, 69, 51
1, 361152, Note_on_c, 1, 57, 72
1, 361296, Note_on_c, 0, 69, 0
1, 361296, Note_on_c, 1, 57, 0
1, 361344, Note_on_c, 0, 72, 51
1, 361344, Note_on_c, 1, 60, 72
1, 361488, Note_on_c, 0, 72, 0
1, 361488, Note_on_c, 1, 60, 0
1, 361536, Note_on_c, 0, 66, 51
1, 361536, Note_on_c, 1, 54, 72
1, 361680, Note_on_c, 0, 66, 0
1, 361680, Note_on_c, 1, 54, 0
1, 361728, Note_on_c, 0, 69, 51
1, 361728, Note_on_c, 1, 57, 72
1, 361872, Note_on_c, 0, 69, 0
1, 361872, Note_on_c, 1, 57, 0
1, 361920, Note_on_c, 0, 63, 51
1, 361920, Note_on_c, 1, 51, 72
1, 362064, Note_on_c, 0, 63, 0
1, 362064, Note_on_c, 1, 51, 0
1, 362112, Note_on_c, 0, 66, 51
1, 362112, Note_on_c, 1, 54, 72
1, 362256, Note_on_c, 0, 66, 0
1, 362256, Note_on_c, 1, 54, 0
1, 362304, Note_on_c, 0, 57, 51
1, 362304, Note_on_c, 1, 45, 72
1, 362448, Note_on_c, 0, 57, 0
1, 362448, Note_on_c, 1, 45, 0
1, 362496, Note_on_c, 1, 60, 72
1, 362496, Note_on_c, 1, 48, 72
1, 362640, Note_on_c, 1, 60, 0
1, 362640, Note_on_c, 1, 48, 0
1, 362688, Note_on_c, 1, 54, 72
1, 362688, Note_on_c, 1, 42, 72
1, 362832, Note_on_c, 1, 54, 0
1, 362832, Note_on_c, 1, 42, 0
1, 362880, Note_on_c, 1, 57, 72
1, 362880, Note_on_c, 1, 45, 72
1, 363024, Note_on_c, 1, 57, 0
1, 363024, Note_on_c, 1, 45, 0
1, 363072, Note_on_c, 1, 51, 72
1, 363072, Note_on_c, 1, 39, 72
1, 363216, Note_on_c, 1, 51, 0
1, 363216, Note_on_c, 1, 39, 0
1, 363264, Note_on_c, 1, 52, 72
1, 363264, Note_on_c, 1, 40, 72
1, 363644, Note_on_c, 1, 52, 0
1, 363644, Note_on_c, 1, 40, 0
1, 363648, Note_on_c, 0, 80, 51
1, 363648, Note_on_c, 0, 76, 51
1, 363648, Note_on_c, 0, 71, 51
1, 363648, Note_on_c, 0, 74, 51
1, 363648, Note_on_c, 1, 52, 72
1, 363648, Note_on_c, 1, 40, 72
1, 364028, Note_on_c, 0, 80, 0
1, 364028, Note_on_c, 0, 76, 0
1, 364028, Note_on_c, 0, 71, 0
1, 364028, Note_on_c, 0, 74, 0
1, 364028, Note_on_c, 1, 52, 0
1, 364028, Note_on_c, 1, 40, 0
1, 364032, Note_on_c, 0, 81, 51
1, 364032, Note_on_c, 0, 76, 51
1, 364032, Note_on_c, 0, 72, 51
1, 364032, Note_on_c, 1, 57, 51
1, 364032, Note_on_c, 1, 45, 51
1, 364412, Note_on_c, 0, 81, 0
1, 364412, Note_on_c, 0, 76, 0
1, 364412, Note_on_c, 0, 72, 0
1, 364412, Note_on_c, 1, 57, 0
1, 364412, Note_on_c, 1, 45, 0
1, 364416, Note_on_c, 0, 69, 51
1, 364608, Note_on_c, 0, 72, 51
1, 364752, Note_on_c, 0, 72, 0
1, 364796, Note_on_c, 0, 69, 0
1, 364800, Note_on_c, 0, 76, 51
1, 364800, Note_on_c, 0, 71, 51
1, 364944, Note_on_c, 0, 76, 0
1, 364992, Note_on_c, 0, 74, 51
1, 365136, Note_on_c, 0, 74, 0
1, 365180, Note_on_c, 0, 71, 0
1, 365184, Note_on_c, 0, 68, 51
1, 365376, Note_on_c, 0, 71, 51
1, 365520, Note_on_c, 0, 71, 0
1, 365564, Note_on_c, 0, 68, 0
1, 365568, Note_on_c, 0, 74, 51
1, 365568, Note_on_c, 0, 69, 51
1, 365712, Note_on_c, 0, 74, 0
1, 365760, Note_on_c, 0, 72, 51
1, 365904, Note_on_c, 0, 72, 0
1, 365948, Note_on_c, 0, 69, 0
1, 365952, Note_on_c, 0, 65, 51
1, 366144, Note_on_c, 0, 69, 51
1, 366288, Note_on_c, 0, 69, 0
1, 366332, Note_on_c, 0, 65, 0
1, 366336, Note_on_c, 0, 72, 51
1, 366336, Note_on_c, 0, 62, 51
1, 366480, Note_on_c, 0, 72, 0
1, 366528, Note_on_c, 0, 71, 51
1, 366672, Note_on_c, 0, 71, 0
1, 366716, Note_on_c, 0, 62, 0
1, 366720, Note_on_c, 0, 64, 51
1, 366912, Note_on_c, 0, 68, 51
1, 367056, Note_on_c, 0, 68, 0
1, 367100, Note_on_c, 0, 64, 0
1, 367104, Note_on_c, 0, 71, 51
1, 367104, Note_on_c, 0, 60, 51
1, 367248, Note_on_c, 0, 71, 0
1, 367296, Note_on_c, 0, 69, 51
1, 367440, Note_on_c, 0, 69, 0
1, 367484, Note_on_c, 0, 60, 0
1, 367488, Note_on_c, 0, 72, 72
1, 367488, Note_on_c, 1, 45, 72
1, 367488, Note_on_c, 1, 57, 72
1, 367580, Note_on_c, 0, 72, 0
1, 367584, Note_on_c, 0, 74, 72
1, 367676, Note_on_c, 0, 74, 0
1, 367680, Note_on_c, 0, 76, 72
1, 367772, Note_on_c, 0, 76, 0
1, 367776, Note_on_c, 0, 72, 72
1, 367868, Note_on_c, 0, 72, 0
1, 367868, Note_on_c, 1, 45, 0
1, 367868, Note_on_c, 1, 57, 0
1, 367872, Note_on_c, 0, 74, 72
1, 367872, Note_on_c, 1, 59, 72
1, 367872, Note_on_c, 1, 47, 72
1, 367964, Note_on_c, 0, 74, 0
1, 367968, Note_on_c, 0, 76, 72
1, 368060, Note_on_c, 0, 76, 0
1, 368064, Note_on_c, 0, 77, 72
1, 368156, Note_on_c, 0, 77, 0
1, 368160, Note_on_c, 0, 74, 72
1, 368252, Note_on_c, 0, 74, 0
1, 368252, Note_on_c, 1, 59, 0
1, 368252, Note_on_c, 1, 47, 0
1, 368256, Note_on_c, 0, 71, 72
1, 368256, Note_on_c, 1, 44, 72
1, 368256, Note_on_c, 1, 56, 72
1, 368348, Note_on_c, 0, 71, 0
1, 368352, Note_on_c, 0, 72, 72
1, 368444, Note_on_c, 0, 72, 0
1, 368448, Note_on_c, 0, 74, 72
1, 368540, Note_on_c, 0, 74, 0
1, 368544, Note_on_c, 0, 71, 72
1, 368636, Note_on_c, 0, 71, 0
1, 368636, Note_on_c, 1, 44, 0
1, 368636, Note_on_c, 1, 56, 0
1, 368640, Note_on_c, 0, 72, 72
1, 368640, Note_on_c, 1, 57, 72
1, 368640, Note_on_c, 1, 45, 72
1, 368732, Note_on_c, 0, 72, 0
1, 368736, Note_on_c, 0, 74, 72
1, 368828, Note_on_c, 0, 74, 0
1, 368832, Note_on_c, 0, 76, 72
1, 368924, Note_on_c, 0, 76, 0
1, 368928, Note_on_c, 0, 72, 72
1, 369020, Note_on_c, 0, 72, 0
1, 369020, Note_on_c, 1, 57, 0
1, 369020, Note_on_c, 1, 45, 0
1, 369024, Note_on_c, 0, 69, 72
1, 369024, Note_on_c, 1, 53, 72
1, 369024, Note_on_c, 1, 41, 72
1, 369116, Note_on_c, 0, 69, 0
1, 369120, Note_on_c, 0, 71, 72
1, 369212, Note_on_c, 0, 71, 0
1, 369216, Note_on_c, 0, 72, 72
1, 369308, Note_on_c, 0, 72, 0
1, 369312, Note_on_c, 0, 69, 72
1, 369404, Note_on_c, 0, 69, 0
1, 369404, Note_on_c, 1, 53, 0
1, 369404, Note_on_c, 1, 41, 0
1, 369408, Note_on_c, 0, 71, 72
1, 369408, Note_on_c, 1, 50, 72
1, 369408, Note_on_c, 1, 38, 72
1, 369500, Note_on_c, 0, 71, 0
1, 369504, Note_on_c, 0, 72, 72
1, 369596, Note_on_c, 0, 72, 0
1, 369600, Note_on_c, 0, 74, 72
1, 369692, Note_on_c, 0, 74, 0
1, 369696, Note_on_c, 0, 71, 72
1, 369788, Note_on_c, 0, 71, 0
1, 369788, Note_on_c, 1, 50, 0
1, 369788, Note_on_c, 1, 38, 0
1, 369792, Note_on_c, 0, 68, 72
1, 369792, Note_on_c, 1, 40, 72
1, 369792, Note_on_c, 1, 52, 72
1, 369884, Note_on_c, 0, 68, 0
1, 369888, Note_on_c, 0, 69, 72
1, 369980, Note_on_c, 0, 69, 0
1, 369984, Note_on_c, 0, 71, 72
1, 370076, Note_on_c, 0, 71, 0
1, 370080, Note_on_c, 0, 68, 72
1, 370172, Note_on_c, 0, 68, 0
1, 370172, Note_on_c, 1, 40, 0
1, 370172, Note_on_c, 1, 52, 0
1, 370176, Note_on_c, 0, 57, 72
1, 370220, Note_on_c, 0, 57, 0
1, 370224, Note_on_c, 0, 60, 72
1, 370268, Note_on_c, 0, 60, 0
1, 370272, Note_on_c, 0, 64, 72
1, 370316, Note_on_c, 0, 64, 0
1, 370320, Note_on_c, 0, 69, 72
1, 370320, Note_on_c, 1, 45, 72
1, 370320, Note_on_c, 1, 33, 72
1, 370924, Note_on_c, 0, 69, 0
1, 370944, Note_on_c, 0, 64, 72
1, 370944, Note_on_c, 1, 40, 72
1, 371084, Note_on_c, 1, 45, 0
1, 371084, Note_on_c, 1, 33, 0
1, 371708, Note_on_c, 0, 64, 0
1, 371708, Note_on_c, 1, 40, 0
1, 371712, Note_on_c, 0, 72, 72
1, 371712, Note_on_c, 1, 48, 72
1, 372284, Note_on_c, 0, 72, 0
1, 372284, Note_on_c, 1, 48, 0
1, 372288, Note_on_c, 0, 74, 72
1, 372288, Note_on_c, 1, 50, 72
1, 372336, Note_on_c, 0, 74, 0
1, 372380, Note_on_c, 1, 50, 0
1, 372384, Note_on_c, 0, 71, 72
1, 372384, Note_on_c, 1, 47, 72
1, 372432, Note_on_c, 0, 71, 0
1, 372476, Note_on_c, 1, 47, 0
1, 372480, Note_on_c, 0, 69, 72
1, 372480, Note_on_c, 1, 45, 72
1, 372860, Note_on_c, 0, 69, 0
1, 372860, Note_on_c, 1, 45, 0
1, 373248, Note_on_c, 0, 76, 51
1, 373248, Note_on_c, 0, 72, 51
1, 373820, Note_on_c, 0, 76, 0
1, 373820, Note_on_c, 0, 72, 0
1, 373824, Note_on_c, 0, 77, 51
1, 373824, Note_on_c, 0, 74, 51
1, 373916, Note_on_c, 0, 77, 0
1, 373916, Note_on_c, 0, 74, 0
1, 373920, Note_on_c, 0, 74, 51
1, 373920, Note_on_c, 0, 71, 51
1, 374012, Note_on_c, 0, 74, 0
1, 374012, Note_on_c, 0, 71, 0
1, 374016, Note_on_c, 0, 72, 51
1, 374016, Note_on_c, 0, 69, 51
1, 374396, Note_on_c, 0, 72, 0
1, 374396, Note_on_c, 0, 69, 0
1, 374784, Note_on_c, 0, 84, 41
1, 374784, Note_on_c, 0, 76, 41
1, 375356, Note_on_c, 0, 84, 0
1, 375356, Note_on_c, 0, 76, 0
1, 375360, Note_on_c, 0, 86, 41
1, 375360, Note_on_c, 0, 77, 41
1, 375452, Note_on_c, 0, 86, 0
1, 375452, Note_on_c, 0, 77, 0
1, 375456, Note_on_c, 0, 83, 41
1, 375456, Note_on_c, 0, 74, 41
1, 375548, Note_on_c, 0, 83, 0
1, 375548, Note_on_c, 0, 74, 0
1, 375552, Note_on_c, 0, 81, 41
1, 375552, Note_on_c, 0, 72, 41
1, 375932, Note_on_c, 0, 81, 0
1, 375932, Note_on_c, 0, 72, 0
1, 376320, Note_on_c, 0, 59, 72
1, 376368, Note_on_c, 0, 59, 0
1, 376368, Note_on_c, 0, 62, 72
1, 376416, Note_on_c, 0, 62, 0
1, 376416, Note_on_c, 0, 67, 72
1, 376464, Note_on_c, 0, 67, 0
1, 376464, Note_on_c, 0, 71, 72
1, 376464, Note_on_c, 1, 47, 72
1, 376464, Note_on_c, 1, 35, 72
1, 377068, Note_on_c, 0, 71, 0
1, 377068, Note_on_c, 1, 47, 0
1, 377068, Note_on_c, 1, 35, 0
1, 377088, Note_on_c, 0, 67, 72
1, 377088, Note_on_c, 1, 43, 72
1, 377088, Note_on_c, 1, 31, 72
1, 377852, Note_on_c, 0, 67, 0
1, 377852, Note_on_c, 1, 43, 0
1, 377852, Note_on_c, 1, 31, 0
1, 377856, Note_on_c, 0, 74, 72
1, 377856, Note_on_c, 1, 50, 72
1, 378428, Note_on_c, 0, 74, 0
1, 378428, Note_on_c, 1, 50, 0
1, 378432, Note_on_c, 0, 76, 72
1, 378432, Note_on_c, 1, 52, 72
1, 378524, Note_on_c, 0, 76, 0
1, 378524, Note_on_c, 1, 52, 0
1, 378528, Note_on_c, 0, 72, 72
1, 378528, Note_on_c, 1, 48, 72
1, 378620, Note_on_c, 0, 72, 0
1, 378620, Note_on_c, 1, 48, 0
1, 378624, Note_on_c, 0, 71, 72
1, 378624, Note_on_c, 1, 47, 72
1, 379004, Note_on_c, 0, 71, 0
1, 379004, Note_on_c, 1, 47, 0
1, 379392, Note_on_c, 0, 77, 51
1, 379392, Note_on_c, 0, 74, 51
1, 379964, Note_on_c, 0, 77, 0
1, 379964, Note_on_c, 0, 74, 0
1, 379968, Note_on_c, 0, 79, 51
1, 379968, Note_on_c, 0, 76, 51
1, 380060, Note_on_c, 0, 79, 0
1, 380060, Note_on_c, 0, 76, 0
1, 380064, Note_on_c, 0, 76, 51
1, 380064, Note_on_c, 0, 72, 51
1, 380156, Note_on_c, 0, 76, 0
1, 380156, Note_on_c, 0, 72, 0
1, 380160, Note_on_c, 0, 74, 51
1, 380160, Note_on_c, 0, 71, 51
1, 380540, Note_on_c, 0, 74, 0
1, 380540, Note_on_c, 0, 71, 0
1, 380928, Note_on_c, 0, 86, 41
1, 380928, Note_on_c, 0, 77, 41
1, 381500, Note_on_c, 0, 86, 0
1, 381500, Note_on_c, 0, 77, 0
1, 381504, Note_on_c, 0, 88, 41
1, 381504, Note_on_c, 0, 79, 41
1, 381596, Note_on_c, 0, 88, 0
1, 381596, Note_on_c, 0, 79, 0
1, 381600, Note_on_c, 0, 84, 41
1, 381600, Note_on_c, 0, 76, 41
1, 381692, Note_on_c, 0, 84, 0
1, 381692, Note_on_c, 0, 76, 0
1, 381696, Note_on_c, 0, 83, 41
1, 381696, Note_on_c, 0, 74, 41
1, 382076, Note_on_c, 0, 83, 0
1, 382076, Note_on_c, 0, 74, 0
1, 382464, Note_on_c, 0, 60, 72
1, 382512, Note_on_c, 0, 60, 0
1, 382512, Note_on_c, 0, 64, 72
1, 382560, Note_on_c, 0, 64, 0
1, 382560, Note_on_c, 0, 67, 72
1, 382608, Note_on_c, 0, 67, 0
1, 382608, Note_on_c, 0, 72, 72
1, 382608, Note_on_c, 1, 48, 51
1, 382608, Note_on_c, 1, 36, 51
1, 383136, Note_on_c, 1, 48, 0
1, 383136, Note_on_c, 1, 36, 0
1, 383212, Note_on_c, 0, 72, 0
1, 383232, Note_on_c, 0, 67, 72
1, 383232, Note_on_c, 1, 43, 51
1, 383232, Note_on_c, 1, 31, 51
1, 383760, Note_on_c, 1, 43, 0
1, 383760, Note_on_c, 1, 31, 0
1, 383996, Note_on_c, 0, 67, 0
1, 384000, Note_on_c, 0, 76, 72
1, 384000, Note_on_c, 1, 52, 51
1, 384572, Note_on_c, 0, 76, 0
1, 384572, Note_on_c, 1, 52, 0
1, 384576, Note_on_c, 0, 77, 72
1, 384576, Note_on_c, 1, 55, 51
1, 384668, Note_on_c, 0, 77, 0
1, 384668, Note_on_c, 1, 55, 0
1, 384672, Note_on_c, 0, 74, 72
1, 384672, Note_on_c, 1, 50, 51
1, 384764, Note_on_c, 0, 74, 0
1, 384764, Note_on_c, 1, 50, 0
1, 384768, Note_on_c, 0, 72, 72
1, 384768, Note_on_c, 1, 48, 51
1, 385148, Note_on_c, 0, 72, 0
1, 385148, Note_on_c, 1, 48, 0
1, 385536, Note_on_c, 0, 79, 51
1, 385536, Note_on_c, 0, 64, 51
1, 385680, Note_on_c, 0, 64, 0
1, 385728, Note_on_c, 0, 67, 51
1, 385872, Note_on_c, 0, 67, 0
1, 385916, Note_on_c, 0, 79, 0
1, 385920, Note_on_c, 0, 79, 51
1, 385920, Note_on_c, 0, 64, 51
1, 386064, Note_on_c, 0, 64, 0
1, 386112, Note_on_c, 0, 67, 51
1, 386256, Note_on_c, 0, 67, 0
1, 386300, Note_on_c, 0, 79, 0
1, 386304, Note_on_c, 0, 61, 51
1, 386448, Note_on_c, 0, 61, 0
1, 386496, Note_on_c, 0, 67, 51
1, 386640, Note_on_c, 0, 67, 0
1, 386688, Note_on_c, 0, 81, 51
1, 386688, Note_on_c, 0, 61, 51
1, 386832, Note_on_c, 0, 61, 0
1, 386880, Note_on_c, 0, 67, 51
1, 387024, Note_on_c, 0, 67, 0
1, 387068, Note_on_c, 0, 81, 0
1, 387072, Note_on_c, 0, 79, 51
1, 387072, Note_on_c, 0, 62, 51
1, 387120, Note_on_c, 0, 77, 51
1, 387216, Note_on_c, 0, 79, 0
1, 387216, Note_on_c, 0, 62, 0
1, 387264, Note_on_c, 0, 67, 51
1, 387408, Note_on_c, 0, 67, 0
1, 387456, Note_on_c, 0, 77, 51
1, 387456, Note_on_c, 0, 62, 51
1, 387500, Note_on_c, 0, 77, 0
1, 387600, Note_on_c, 0, 62, 0
1, 387648, Note_on_c, 0, 67, 51
1, 387792, Note_on_c, 0, 67, 0
1, 387836, Note_on_c, 0, 77, 0
1, 387840, Note_on_c, 0, 59, 51
1, 387984, Note_on_c, 0, 59, 0
1, 388032, Note_on_c, 0, 67, 51
1, 388176, Note_on_c, 0, 67, 0
1, 388224, Note_on_c, 0, 79, 51
1, 388224, Note_on_c, 0, 59, 51
1, 388368, Note_on_c, 0, 59, 0
1, 388416, Note_on_c, 0, 67, 51
1, 388464, Note_on_c, 0, 79, 0
1, 388560, Note_on_c, 0, 67, 0
1, 388608, Note_on_c, 0, 77, 51
1, 388608, Note_on_c, 0, 60, 51
1, 388656, Note_on_c, 0, 76, 51
1, 388752, Note_on_c, 0, 77, 0
1, 388752, Note_on_c, 0, 60, 0
1, 388800, Note_on_c, 0, 67, 51
1, 388944, Note_on_c, 0, 67, 0
1, 388992, Note_on_c, 0, 76, 51
1, 388992, Note_on_c, 0, 60, 51
1, 389036, Note_on_c, 0, 76, 0
1, 389136, Note_on_c, 0, 60, 0
1, 389184, Note_on_c, 0, 67, 51
1, 389328, Note_on_c, 0, 67, 0
1, 389372, Note_on_c, 0, 76, 0
1, 389376, Note_on_c, 0, 64, 51
1, 389520, Note_on_c, 0, 64, 0
1, 389568, Note_on_c, 0, 67, 51
1, 389712, Note_on_c, 0, 67, 0
1, 389760, Note_on_c, 0, 79, 51
1, 389760, Note_on_c, 0, 64, 51
1, 389904, Note_on_c, 0, 79, 0
1, 389904, Note_on_c, 0, 64, 0
1, 389952, Note_on_c, 0, 76, 51
1, 389952, Note_on_c, 0, 67, 51
1, 390096, Note_on_c, 0, 76, 0
1, 390096, Note_on_c, 0, 67, 0
1, 390144, Note_on_c, 0, 73, 51
1, 390144, Note_on_c, 0, 69, 51
1, 390144, Note_on_c, 0, 65, 51
1, 390288, Note_on_c, 0, 73, 0
1, 390336, Note_on_c, 0, 74, 51
1, 390480, Note_on_c, 0, 74, 0
1, 390528, Note_on_c, 0, 77, 51
1, 390672, Note_on_c, 0, 77, 0
1, 390720, Note_on_c, 0, 76, 51
1, 390864, Note_on_c, 0, 76, 0
1, 390912, Note_on_c, 0, 73, 51
1, 391056, Note_on_c, 0, 73, 0
1, 391104, Note_on_c, 0, 74, 51
1, 391248, Note_on_c, 0, 74, 0
1, 391296, Note_on_c, 0, 77, 51
1, 391440, Note_on_c, 0, 77, 0
1, 391488, Note_on_c, 0, 76, 51
1, 391632, Note_on_c, 0, 76, 0
1, 391676, Note_on_c, 0, 69, 0
1, 391676, Note_on_c, 0, 65, 0
1, 391680, Note_on_c, 0, 73, 51
1, 391824, Note_on_c, 0, 73, 0
1, 391872, Note_on_c, 0, 74, 51
1, 392016, Note_on_c, 0, 74, 0
1, 392064, Note_on_c, 0, 77, 51
1, 392064, Note_on_c, 1, 62, 51
1, 392064, Note_on_c, 1, 53, 51
1, 392064, Note_on_c, 1, 57, 51
1, 392208, Note_on_c, 0, 77, 0
1, 392256, Note_on_c, 0, 81, 51
1, 392400, Note_on_c, 0, 81, 0
1, 392444, Note_on_c, 1, 62, 0
1, 392444, Note_on_c, 1, 53, 0
1, 392444, Note_on_c, 1, 57, 0
1, 392448, Note_on_c, 0, 79, 51
1, 392448, Note_on_c, 1, 64, 51
1, 392448, Note_on_c, 1, 60, 51
1, 392448, Note_on_c, 1, 55, 51
1, 392592, Note_on_c, 0, 79, 0
1, 392640, Note_on_c, 0, 76, 51
1, 392784, Note_on_c, 0, 76, 0
1, 392828, Note_on_c, 1, 64, 0
1, 392828, Note_on_c, 1, 60, 0
1, 392828, Note_on_c, 1, 55, 0
1, 392832, Note_on_c, 0, 77, 51
1, 392832, Note_on_c, 1, 62, 51
1, 392832, Note_on_c, 1, 59, 51
1, 392832, Note_on_c, 1, 55, 51
1, 392976, Note_on_c, 0, 77, 0
1, 393024, Note_on_c, 0, 74, 51
1, 393168, Note_on_c, 0, 74, 0
1, 393212, Note_on_c, 1, 62, 0
1, 393212, Note_on_c, 1, 59, 0
1, 393212, Note_on_c, 1, 55, 0
1, 393216, Note_on_c, 0, 60, 72
1, 393264, Note_on_c, 0, 60, 0
1, 393264, Note_on_c, 0, 63, 72
1, 393312, Note_on_c, 0, 63, 0
1, 393312, Note_on_c, 0, 67, 72
1, 393360, Note_on_c, 0, 67, 0
1, 393360, Note_on_c, 0, 72, 72
1, 393360, Note_on_c, 1, 48, 72
1, 393360, Note_on_c, 1, 36, 72
1, 393964, Note_on_c, 0, 72, 0
1, 393964, Note_on_c, 1, 48, 0
1, 393964, Note_on_c, 1, 36, 0
1, 393984, Note_on_c, 0, 67, 72
1, 393984, Note_on_c, 1, 43, 72
1, 393984, Note_on_c, 1, 31, 72
1, 394748, Note_on_c, 0, 67, 0
1, 394748, Note_on_c, 1, 43, 0
1, 394748, Note_on_c, 1, 31, 0
1, 394752, Note_on_c, 0, 75, 72
1, 394752, Note_on_c, 1, 51, 72
1, 395324, Note_on_c, 0, 75, 0
1, 395324, Note_on_c, 1, 51, 0
1, 395328, Note_on_c, 0, 77, 72
1, 395328, Note_on_c, 1, 53, 72
1, 395420, Note_on_c, 0, 77, 0
1, 395420, Note_on_c, 1, 53, 0
1, 395424, Note_on_c, 0, 74, 72
1, 395424, Note_on_c, 1, 50, 72
1, 395516, Note_on_c, 0, 74, 0
1, 395516, Note_on_c, 1, 50, 0
1, 395520, Note_on_c, 0, 72, 72
1, 395520, Note_on_c, 1, 48, 72
1, 395900, Note_on_c, 0, 72, 0
1, 395900, Note_on_c, 1, 48, 0
1, 396288, Note_on_c, 0, 78, 51
1, 396332, Note_on_c, 0, 78, 0
1, 396336, Note_on_c, 0, 79, 51
1, 396336, Note_on_c, 0, 63, 51
1, 396480, Note_on_c, 0, 63, 0
1, 396480, Note_on_c, 0, 67, 51
1, 396624, Note_on_c, 0, 67, 0
1, 396672, Note_on_c, 0, 79, 51
1, 396672, Note_on_c, 0, 63, 51
1, 396676, Note_on_c, 0, 79, 0
1, 396816, Note_on_c, 0, 63, 0
1, 396864, Note_on_c, 0, 67, 51
1, 397008, Note_on_c, 0, 67, 0
1, 397052, Note_on_c, 0, 79, 0
1, 397056, Note_on_c, 0, 60, 51
1, 397200, Note_on_c, 0, 60, 0
1, 397248, Note_on_c, 0, 72, 51
1, 397248, Note_on_c, 0, 67, 51
1, 397392, Note_on_c, 0, 72, 0
1, 397392, Note_on_c, 0, 67, 0
1, 397440, Note_on_c, 0, 84, 51
1, 397440, Note_on_c, 0, 60, 51
1, 397584, Note_on_c, 0, 84, 0
1, 397584, Note_on_c, 0, 60, 0
1, 397632, Note_on_c, 0, 80, 51
1, 397632, Note_on_c, 0, 67, 51
1, 397776, Note_on_c, 0, 80, 0
1, 397776, Note_on_c, 0, 67, 0
1, 397824, Note_on_c, 0, 79, 51
1, 397824, Note_on_c, 0, 62, 51
1, 397968, Note_on_c, 0, 79, 0
1, 397968, Note_on_c, 0, 62, 0
1, 398016, Note_on_c, 0, 78, 51
1, 398016, Note_on_c, 0, 67, 51
1, 398160, Note_on_c, 0, 78, 0
1, 398160, Note_on_c, 0, 67, 0
1, 398208, Note_on_c, 0, 77, 51
1, 398208, Note_on_c, 0, 62, 51
1, 398352, Note_on_c, 0, 62, 0
1, 398400, Note_on_c, 0, 67, 51
1, 398544, Note_on_c, 0, 67, 0
1, 398588, Note_on_c, 0, 77, 0
1, 398592, Note_on_c, 0, 59, 51
1, 398736, Note_on_c, 0, 59, 0
1, 398784, Note_on_c, 0, 77, 51
1, 398784, Note_on_c, 0, 67, 51
1, 398928, Note_on_c, 0, 77, 0
1, 398928, Note_on_c, 0, 67, 0
1, 398976, Note_on_c, 0, 80, 51
1, 398976, Note_on_c, 0, 59, 51
1, 399120, Note_on_c, 0, 80, 0
1, 399120, Note_on_c, 0, 59, 0
1, 399168, Note_on_c, 0, 77, 51
1, 399168, Note_on_c, 0, 67, 51
1, 399312, Note_on_c, 0, 77, 0
1, 399312, Note_on_c, 0, 67, 0
1, 399360, Note_on_c, 0, 77, 72
1, 399360, Note_on_c, 0, 61, 51
1, 399360, Note_on_c, 0, 58, 51
1, 399504, Note_on_c, 0, 77, 0
1, 399504, Note_on_c, 0, 61, 0
1, 399504, Note_on_c, 0, 58, 0
1, 399552, Note_on_c, 0, 76, 72
1, 399552, Note_on_c, 0, 67, 51
1, 399696, Note_on_c, 0, 76, 0
1, 399696, Note_on_c, 0, 67, 0
1, 399744, Note_on_c, 0, 85, 51
1, 399744, Note_on_c, 0, 61, 51
1, 399744, Note_on_c, 0, 58, 51
1, 399888, Note_on_c, 0, 61, 0
1, 399888, Note_on_c, 0, 58, 0
1, 399936, Note_on_c, 0, 67, 51
1, 400080, Note_on_c, 0, 67, 0
1, 400128, Note_on_c, 0, 61, 51
1, 400128, Note_on_c, 0, 58, 51
1, 400272, Note_on_c, 0, 61, 0
1, 400272, Note_on_c, 0, 58, 0
1, 400320, Note_on_c, 0, 67, 51
1, 400464, Note_on_c, 0, 67, 0
1, 400508, Note_on_c, 0, 85, 0
1, 400512, Note_on_c, 0, 61, 51
1, 400512, Note_on_c, 0, 58, 51
1, 400512, Note_on_c, 0, 76, 51
1, 400656, Note_on_c, 0, 61, 0
1, 400656, Note_on_c, 0, 58, 0
1, 400704, Note_on_c, 0, 67, 51
1, 400848, Note_on_c, 0, 67, 0
1, 400892, Note_on_c, 0, 76, 0
1, 400896, Note_on_c, 0, 79, 51
1, 400896, Note_on_c, 0, 60, 51
1, 400896, Note_on_c, 0, 56, 51
1, 401040, Note_on_c, 0, 60, 0
1, 401040, Note_on_c, 0, 56, 0
1, 401088, Note_on_c, 0, 64, 51
1, 401232, Note_on_c, 0, 64, 0
1, 401276, Note_on_c, 0, 79, 0
1, 401280, Note_on_c, 0, 77, 51
1, 401280, Note_on_c, 0, 60, 51
1, 401280, Note_on_c, 0, 56, 51
1, 401424, Note_on_c, 0, 60, 0
1, 401424, Note_on_c, 0, 56, 0
1, 401472, Note_on_c, 0, 65, 51
1, 401616, Note_on_c, 0, 65, 0
1, 401660, Note_on_c, 0, 77, 0
1, 401664, Note_on_c, 0, 60, 51
1, 401664, Note_on_c, 0, 56, 51
1, 401808, Note_on_c, 0, 60, 0
1, 401808, Note_on_c, 0, 56, 0
1, 401856, Note_on_c, 0, 77, 51
1, 401856, Note_on_c, 0, 65, 51
1, 402000, Note_on_c, 0, 77, 0
1, 402000, Note_on_c, 0, 65, 0
1, 402048, Note_on_c, 0, 84, 51
1, 402048, Note_on_c, 0, 60, 51
1, 402048, Note_on_c, 0, 56, 51
1, 402192, Note_on_c, 0, 84, 0
1, 402192, Note_on_c, 0, 60, 0
1, 402192, Note_on_c, 0, 56, 0
1, 402240, Note_on_c, 0, 80, 51
1, 402240, Note_on_c, 0, 65, 51
1, 402384, Note_on_c, 0, 80, 0
1, 402384, Note_on_c, 0, 65, 0
1, 402432, Note_on_c, 0, 79, 72
1, 402432, Note_on_c, 0, 63, 51
1, 402432, Note_on_c, 0, 60, 51
1, 402576, Note_on_c, 0, 79, 0
1, 402576, Note_on_c, 0, 63, 0
1, 402576, Note_on_c, 0, 60, 0
1, 402624, Note_on_c, 0, 78, 72
1, 402624, Note_on_c, 0, 69, 51
1, 402768, Note_on_c, 0, 78, 0
1, 402768, Note_on_c, 0, 69, 0
1, 402816, Note_on_c, 0, 63, 51
1, 402816, Note_on_c, 0, 60, 51
1, 402816, Note_on_c, 0, 87, 51
1, 402960, Note_on_c, 0, 63, 0
1, 402960, Note_on_c, 0, 60, 0
1, 403008, Note_on_c, 0, 69, 51
1, 403152, Note_on_c, 0, 69, 0
1, 403200, Note_on_c, 0, 63, 51
1, 403200, Note_on_c, 0, 60, 51
1, 403344, Note_on_c, 0, 63, 0
1, 403344, Note_on_c, 0, 60, 0
1, 403392, Note_on_c, 0, 69, 51
1, 403536, Note_on_c, 0, 69, 0
1, 403580, Note_on_c, 0, 87, 0
1, 403584, Note_on_c, 0, 63, 51
1, 403584, Note_on_c, 0, 60, 51
1, 403584, Note_on_c, 0, 78, 51
1, 403728, Note_on_c, 0, 63, 0
1, 403728, Note_on_c, 0, 60, 0
1, 403776, Note_on_c, 0, 69, 51
1, 403920, Note_on_c, 0, 69, 0
1, 403964, Note_on_c, 0, 78, 0
1, 403968, Note_on_c, 0, 81, 41
1, 403968, Note_on_c, 0, 62, 41
1, 403968, Note_on_c, 0, 59, 41
1, 404112, Note_on_c, 0, 81, 0
1, 404160, Note_on_c, 0, 79, 41
1, 404304, Note_on_c, 0, 79, 0
1, 404348, Note_on_c, 0, 62, 0
1, 404348, Note_on_c, 0, 59, 0
1, 404352, Note_on_c, 0, 78, 41
1, 404496, Note_on_c, 0, 78, 0
1, 404544, Note_on_c, 0, 79, 41
1, 404688, Note_on_c, 0, 79, 0
1, 404736, Note_on_c, 0, 78, 41
1, 404880, Note_on_c, 0, 78, 0
1, 404928, Note_on_c, 0, 79, 41
1, 405072, Note_on_c, 0, 79, 0
1, 405120, Note_on_c, 0, 78, 41
1, 405264, Note_on_c, 0, 78, 0
1, 405312, Note_on_c, 0, 79, 41
1, 405456, Note_on_c, 0, 79, 0
1, 405504, Note_on_c, 0, 77, 46
1, 405648, Note_on_c, 0, 77, 0
1, 405696, Note_on_c, 0, 79, 51
1, 405696, Note_on_c, 0, 67, 51
1, 405840, Note_on_c, 0, 79, 0
1, 405840, Note_on_c, 0, 67, 0
1, 405888, Note_on_c, 0, 77, 55
1, 405888, Note_on_c, 0, 66, 55
1, 406032, Note_on_c, 0, 77, 0
1, 406032, Note_on_c, 0, 66, 0
1, 406080, Note_on_c, 0, 79, 57
1, 406080, Note_on_c, 0, 67, 57
1, 406224, Note_on_c, 0, 79, 0
1, 406224, Note_on_c, 0, 67, 0
1, 406272, Note_on_c, 0, 80, 61
1, 406272, Note_on_c, 0, 68, 61
1, 406416, Note_on_c, 0, 80, 0
1, 406416, Note_on_c, 0, 68, 0
1, 406464, Note_on_c, 0, 81, 66
1, 406464, Note_on_c, 0, 69, 66
1, 406608, Note_on_c, 0, 81, 0
1, 406608, Note_on_c, 0, 69, 0
1, 406656, Note_on_c, 0, 82, 67
1, 406656, Note_on_c, 0, 70, 67
1, 406800, Note_on_c, 0, 82, 0
1, 406800, Note_on_c, 0, 70, 0
1, 406848, Note_on_c, 0, 83, 70
1, 406848, Note_on_c, 0, 71, 70
1, 406992, Note_on_c, 0, 83, 0
1, 406992, Note_on_c, 0, 71, 0
1, 407040, Note_on_c, 0, 84, 72
1, 407040, Note_on_c, 0, 72, 72
1, 407040, Note_on_c, 1, 57, 72
1, 407184, Note_on_c, 0, 84, 0
1, 407184, Note_on_c, 0, 72, 0
1, 407184, Note_on_c, 1, 57, 0
1, 407232, Note_on_c, 0, 84, 72
1, 407232, Note_on_c, 0, 72, 72
1, 407232, Note_on_c, 1, 60, 72
1, 407376, Note_on_c, 0, 84, 0
1, 407376, Note_on_c, 0, 72, 0
1, 407376, Note_on_c, 1, 60, 0
1, 407424, Note_on_c, 0, 84, 72
1, 407424, Note_on_c, 0, 72, 72
1, 407424, Note_on_c, 1, 57, 72
1, 407568, Note_on_c, 1, 57, 0
1, 407616, Note_on_c, 1, 60, 72
1, 407760, Note_on_c, 1, 60, 0
1, 407808, Note_on_c, 1, 53, 51
1, 407952, Note_on_c, 1, 53, 0
1, 408000, Note_on_c, 1, 60, 51
1, 408144, Note_on_c, 1, 60, 0
1, 408188, Note_on_c, 0, 84, 0
1, 408188, Note_on_c, 0, 72, 0
1, 408192, Note_on_c, 0, 83, 51
1, 408192, Note_on_c, 1, 53, 51
1, 408336, Note_on_c, 0, 83, 0
1, 408336, Note_on_c, 1, 53, 0
1, 408384, Note_on_c, 0, 81, 51
1, 408384, Note_on_c, 1, 60, 51
1, 408528, Note_on_c, 0, 81, 0
1, 408528, Note_on_c, 1, 60, 0
1, 408576, Note_on_c, 0, 79, 72
1, 408576, Note_on_c, 0, 72, 72
1, 408576, Note_on_c, 1, 52, 72
1, 408720, Note_on_c, 0, 79, 0
1, 408720, Note_on_c, 0, 72, 0
1, 408720, Note_on_c, 1, 52, 0
1, 408768, Note_on_c, 0, 79, 72
1, 408768, Note_on_c, 0, 72, 72
1, 408768, Note_on_c, 1, 60, 72
1, 408912, Note_on_c, 0, 79, 0
1, 408912, Note_on_c, 0, 72, 0
1, 408912, Note_on_c, 1, 60, 0
1, 408960, Note_on_c, 0, 79, 72
1, 408960, Note_on_c, 0, 72, 72
1, 408960, Note_on_c, 1, 52, 72
1, 409104, Note_on_c, 1, 52, 0
1, 409152, Note_on_c, 1, 60, 72
1, 409296, Note_on_c, 1, 60, 0
1, 409344, Note_on_c, 1, 48, 51
1, 409488, Note_on_c, 1, 48, 0
1, 409536, Note_on_c, 1, 60, 51
1, 409680, Note_on_c, 1, 60, 0
1, 409724, Note_on_c, 0, 79, 0
1, 409724, Note_on_c, 0, 72, 0
1, 409728, Note_on_c, 0, 77, 51
1, 409728, Note_on_c, 1, 48, 51
1, 409872, Note_on_c, 0, 77, 0
1, 409872, Note_on_c, 1, 48, 0
1, 409920, Note_on_c, 0, 76, 51
1, 409920, Note_on_c, 1, 60, 51
1, 410064, Note_on_c, 0, 76, 0
1, 410064, Note_on_c, 1, 60, 0
1, 410112, Note_on_c, 0, 76, 51
1, 410112, Note_on_c, 1, 53, 51
1, 410204, Note_on_c, 0, 76, 0
1, 410208, Note_on_c, 0, 74, 51
1, 410256, Note_on_c, 1, 53, 0
1, 410300, Note_on_c, 0, 74, 0
1, 410304, Note_on_c, 0, 77, 51
1, 410304, Note_on_c, 1, 57, 51
1, 410396, Note_on_c, 0, 77, 0
1, 410400, Note_on_c, 0, 76, 51
1, 410448, Note_on_c, 1, 57, 0
1, 410492, Note_on_c, 0, 76, 0
1, 410496, Note_on_c, 0, 79, 51
1, 410496, Note_on_c, 1, 53, 51
1, 410588, Note_on_c, 0, 79, 0
1, 410592, Note_on_c, 0, 77, 51
1, 410640, Note_on_c, 1, 53, 0
1, 410684, Note_on_c, 0, 77, 0
1, 410688, Note_on_c, 0, 76, 51
1, 410688, Note_on_c, 1, 62, 51
1, 410780, Note_on_c, 0, 76, 0
1, 410784, Note_on_c, 0, 74, 51
1, 410832, Note_on_c, 1, 62, 0
1, 410876, Note_on_c, 0, 74, 0
1, 410880, Note_on_c, 0, 72, 51
1, 410880, Note_on_c, 1, 55, 51
1, 411024, Note_on_c, 1, 55, 0
1, 411072, Note_on_c, 1, 64, 51
1, 411216, Note_on_c, 1, 64, 0
1, 411260, Note_on_c, 0, 72, 0
1, 411264, Note_on_c, 0, 71, 51
1, 411264, Note_on_c, 1, 55, 51
1, 411308, Note_on_c, 0, 71, 0
1, 411312, Note_on_c, 0, 72, 51
1, 411356, Note_on_c, 0, 72, 0
1, 411360, Note_on_c, 0, 71, 51
1, 411404, Note_on_c, 0, 71, 0
1, 411408, Note_on_c, 0, 72, 51
1, 411408, Note_on_c, 1, 55, 0
1, 411452, Note_on_c, 0, 72, 0
1, 411456, Note_on_c, 0, 69, 51
1, 411456, Note_on_c, 1, 62, 51
1, 411548, Note_on_c, 0, 69, 0
1, 411552, Note_on_c, 0, 71, 51
1, 411600, Note_on_c, 1, 62, 0
1, 411644, Note_on_c, 0, 71, 0
1, 411648, Note_on_c, 0, 84, 72
1, 411648, Note_on_c, 0, 72, 72
1, 411648, Note_on_c, 1, 57, 72
1, 411792, Note_on_c, 0, 84, 0
1, 411792, Note_on_c, 0, 72, 0
1, 411792, Note_on_c, 1, 57, 0
1, 411840, Note_on_c, 0, 84, 72
1, 411840, Note_on_c, 0, 72, 72
1, 411840, Note_on_c, 1, 60, 72
1, 411984, Note_on_c, 0, 84, 0
1, 411984, Note_on_c, 0, 72, 0
1, 411984, Note_on_c, 1, 60, 0
1, 412032, Note_on_c, 0, 84, 72
1, 412032, Note_on_c, 0, 72, 72
1, 412032, Note_on_c, 1, 57, 72
1, 412176, Note_on_c, 1, 57, 0
1, 412224, Note_on_c, 1, 60, 72
1, 412368, Note_on_c, 1, 60, 0
1, 412416, Note_on_c, 1, 53, 51
1, 412560, Note_on_c, 1, 53, 0
1, 412604, Note_on_c, 0, 84, 0
1, 412604, Note_on_c, 0, 72, 0
1, 412608, Note_on_c, 0, 86, 51
1, 412608, Note_on_c, 1, 60, 51
1, 412700, Note_on_c, 0, 86, 0
1, 412704, Note_on_c, 0, 84, 51
1, 412752, Note_on_c, 1, 60, 0
1, 412796, Note_on_c, 0, 84, 0
1, 412800, Note_on_c, 0, 83, 51
1, 412800, Note_on_c, 1, 53, 51
1, 412944, Note_on_c, 1, 53, 0
1, 412988, Note_on_c, 0, 83, 0
1, 412992, Note_on_c, 0, 81, 51
1, 412992, Note_on_c, 1, 60, 51
1, 413136, Note_on_c, 1, 60, 0
1, 413180, Note_on_c, 0, 81, 0
1, 413184, Note_on_c, 0, 79, 72
1, 413184, Note_on_c, 0, 72, 72
1, 413184, Note_on_c, 1, 52, 72
1, 413328, Note_on_c, 0, 79, 0
1, 413328, Note_on_c, 0, 72, 0
1, 413328, Note_on_c, 1, 52, 0
1, 413376, Note_on_c, 0, 79, 72
1, 413376, Note_on_c, 0, 72, 72
1, 413376, Note_on_c, 1, 60, 72
1, 413520, Note_on_c, 0, 79, 0
1, 413520, Note_on_c, 0, 72, 0
1, 413520, Note_on_c, 1, 60, 0
1, 413568, Note_on_c, 0, 79, 72
1, 413568, Note_on_c, 0, 72, 72
1, 413568, Note_on_c, 1, 52, 72
1, 413712, Note_on_c, 1, 52, 0
1, 413760, Note_on_c, 1, 62, 72
1, 413904, Note_on_c, 1, 62, 0
1, 413952, Note_on_c, 1, 48, 51
1, 414096, Note_on_c, 1, 48, 0
1, 414140, Note_on_c, 0, 79, 0
1, 414140, Note_on_c, 0, 72, 0
1, 414144, Note_on_c, 0, 81, 51
1, 414144, Note_on_c, 1, 60, 51
1, 414236, Note_on_c, 0, 81, 0
1, 414240, Note_on_c, 0, 79, 51
1, 414288, Note_on_c, 1, 60, 0
1, 414332, Note_on_c, 0, 79, 0
1, 414336, Note_on_c, 0, 77, 51
1, 414336, Note_on_c, 1, 48, 51
1, 414480, Note_on_c, 1, 48, 0
1, 414524, Note_on_c, 0, 77, 0
1, 414528, Note_on_c, 0, 76, 51
1, 414528, Note_on_c, 1, 60, 51
1, 414672, Note_on_c, 1, 60, 0
1, 414716, Note_on_c, 0, 76, 0
1, 414720, Note_on_c, 0, 76, 51
1, 414720, Note_on_c, 1, 53, 51
1, 414812, Note_on_c, 0, 76, 0
1, 414816, Note_on_c, 0, 74, 51
1, 414864, Note_on_c, 1, 53, 0
1, 414908, Note_on_c, 0, 74, 0
1, 414912, Note_on_c, 0, 81, 51
1, 414912, Note_on_c, 1, 60, 51
1, 415004, Note_on_c, 0, 81, 0
1, 415008, Note_on_c, 0, 80, 51
1, 415056, Note_on_c, 1, 60, 0
1, 415100, Note_on_c, 0, 80, 0
1, 415104, Note_on_c, 0, 83, 51
1, 415104, Note_on_c, 1, 53, 51
1, 415148, Note_on_c, 0, 83, 0
1, 415152, Note_on_c, 0, 81, 51
1, 415248, Note_on_c, 1, 53, 0
1, 415292, Note_on_c, 0, 81, 0
1, 415296, Note_on_c, 0, 79, 51
1, 415296, Note_on_c, 1, 60, 51
1, 415388, Note_on_c, 0, 79, 0
1, 415392, Note_on_c, 0, 77, 51
1, 415440, Note_on_c, 1, 60, 0
1, 415484, Note_on_c, 0, 77, 0
1, 415488, Note_on_c, 0, 76, 51
1, 415488, Note_on_c, 1, 55, 51
1, 415632, Note_on_c, 1, 55, 0
1, 415680, Note_on_c, 1, 60, 51
1, 415824, Note_on_c, 1, 60, 0
1, 415868, Note_on_c, 0, 76, 0
1, 415872, Note_on_c, 0, 74, 51
1, 415872, Note_on_c, 1, 55, 51
1, 415916, Note_on_c, 0, 74, 0
1, 415920, Note_on_c, 0, 76, 51
1, 415964, Note_on_c, 0, 76, 0
1, 415968, Note_on_c, 0, 74, 51
1, 416012, Note_on_c, 0, 74, 0
1, 416016, Note_on_c, 0, 76, 51
1, 416016, Note_on_c, 1, 55, 0
1, 416060, Note_on_c, 0, 76, 0
1, 416064, Note_on_c, 0, 72, 51
1, 416064, Note_on_c, 1, 60, 51
1, 416156, Note_on_c, 0, 72, 0
1, 416160, Note_on_c, 0, 74, 51
1, 416208, Note_on_c, 1, 60, 0
1, 416252, Note_on_c, 0, 74, 0
1, 416256, Note_on_c, 0, 72, 72
1, 416256, Note_on_c, 1, 64, 51
1, 416256, Note_on_c, 1, 60, 51
1, 416400, Note_on_c, 1, 64, 0
1, 416400, Note_on_c, 1, 60, 0
1, 416448, Note_on_c, 1, 64, 51
1, 416448, Note_on_c, 1, 60, 51
1, 416496, Note_on_c, 0, 72, 0
1, 416592, Note_on_c, 1, 64, 0
1, 416592, Note_on_c, 1, 60, 0
1, 416640, Note_on_c, 1, 60, 51
1, 416640, Note_on_c, 1, 64, 51
1, 416784, Note_on_c, 0, 74, 51
1, 416784, Note_on_c, 1, 60, 0
1, 416784, Note_on_c, 1, 64, 0
1, 416828, Note_on_c, 0, 74, 0
1, 416832, Note_on_c, 0, 72, 51
1, 416832, Note_on_c, 1, 64, 51
1, 416832, Note_on_c, 1, 60, 51
1, 416924, Note_on_c, 0, 72, 0
1, 416928, Note_on_c, 0, 71, 51
1, 416976, Note_on_c, 1, 64, 0
1, 416976, Note_on_c, 1, 60, 0
1, 417020, Note_on_c, 0, 71, 0
1, 417024, Note_on_c, 0, 72, 51
1, 417024, Note_on_c, 1, 64, 51
1, 417024, Note_on_c, 1, 60, 51
1, 417168, Note_on_c, 0, 72, 0
1, 417168, Note_on_c, 1, 64, 0
1, 417168, Note_on_c, 1, 60, 0
1, 417216, Note_on_c, 0, 75, 51
1, 417216, Note_on_c, 1, 64, 51
1, 417216, Note_on_c, 1, 60, 51
1, 417360, Note_on_c, 0, 75, 0
1, 417360, Note_on_c, 1, 64, 0
1, 417360, Note_on_c, 1, 60, 0
1, 417408, Note_on_c, 0, 76, 51
1, 417408, Note_on_c, 1, 64, 51
1, 417408, Note_on_c, 1, 60, 51
1, 417552, Note_on_c, 0, 76, 0
1, 417552, Note_on_c, 1, 64, 0
1, 417552, Note_on_c, 1, 60, 0
1, 417600, Note_on_c, 0, 78, 51
1, 417600, Note_on_c, 1, 60, 51
1, 417600, Note_on_c, 1, 64, 51
1, 417744, Note_on_c, 0, 78, 0
1, 417744, Note_on_c, 1, 60, 0
1, 417744, Note_on_c, 1, 64, 0
1, 417792, Note_on_c, 0, 79, 51
1, 417792, Note_on_c, 1, 60, 51
1, 417792, Note_on_c, 1, 64, 51
1, 417936, Note_on_c, 0, 79, 0
1, 417936, Note_on_c, 1, 60, 0
1, 417936, Note_on_c, 1, 64, 0
1, 417984, Note_on_c, 0, 83, 51
1, 417984, Note_on_c, 1, 64, 51
1, 417984, Note_on_c, 1, 60, 51
1, 418128, Note_on_c, 0, 83, 0
1, 418128, Note_on_c, 0, 84, 51
1, 418128, Note_on_c, 1, 64, 0
1, 418128, Note_on_c, 1, 60, 0
1, 418176, Note_on_c, 1, 64, 51
1, 418176, Note_on_c, 1, 60, 51
1, 418272, Note_on_c, 0, 84, 0
1, 418320, Note_on_c, 1, 64, 0
1, 418320, Note_on_c, 1, 60, 0
1, 418368, Note_on_c, 0, 87, 51
1, 418368, Note_on_c, 1, 64, 51
1, 418368, Note_on_c, 1, 60, 51
1, 418512, Note_on_c, 0, 87, 0
1, 418512, Note_on_c, 1, 64, 0
1, 418512, Note_on_c, 1, 60, 0
1, 418560, Note_on_c, 0, 88, 51
1, 418560, Note_on_c, 1, 64, 51
1, 418560, Note_on_c, 1, 60, 51
1, 418704, Note_on_c, 1, 64, 0
1, 418704, Note_on_c, 1, 60, 0
1, 418752, Note_on_c, 1, 64, 51
1, 418752, Note_on_c, 1, 60, 51
1, 418896, Note_on_c, 1, 64, 0
1, 418896, Note_on_c, 1, 60, 0
1, 418940, Note_on_c, 0, 88, 0
1, 418944, Note_on_c, 1, 60, 51
1, 418944, Note_on_c, 1, 64, 51
1, 419088, Note_on_c, 1, 60, 0
1, 419088, Note_on_c, 1, 64, 0
1, 419136, Note_on_c, 1, 64, 51
1, 419136, Note_on_c, 1, 60, 51
1, 419280, Note_on_c, 1, 64, 0
1, 419280, Note_on_c, 1, 60, 0
1, 419328, Note_on_c, 0, 74, 72
1, 419328, Note_on_c, 1, 59, 51
1, 419328, Note_on_c, 1, 62, 51
1, 419344, Note_on_c, 0, 79, 72
1, 419364, Note_on_c, 0, 86, 72
1, 419472, Note_on_c, 1, 59, 0
1, 419472, Note_on_c, 1, 62, 0
1, 419520, Note_on_c, 1, 59, 51
1, 419520, Note_on_c, 1, 62, 51
1, 419664, Note_on_c, 1, 59, 0
1, 419664, Note_on_c, 1, 62, 0
1, 419708, Note_on_c, 0, 74, 0
1, 419712, Note_on_c, 1, 59, 51
1, 419712, Note_on_c, 1, 62, 51
1, 419724, Note_on_c, 0, 79, 0
1, 419744, Note_on_c, 0, 86, 0
1, 419856, Note_on_c, 0, 72, 51
1, 419856, Note_on_c, 1, 59, 0
1, 419856, Note_on_c, 1, 62, 0
1, 419900, Note_on_c, 0, 72, 0
1, 419904, Note_on_c, 0, 71, 51
1, 419904, Note_on_c, 1, 59, 51
1, 419904, Note_on_c, 1, 62, 51
1, 419996, Note_on_c, 0, 71, 0
1, 420000, Note_on_c, 0, 69, 51
1, 420048, Note_on_c, 1, 59, 0
1, 420048, Note_on_c, 1, 62, 0
1, 420092, Note_on_c, 0, 69, 0
1, 420096, Note_on_c, 0, 71, 51
1, 420096, Note_on_c, 1, 59, 51
1, 420096, Note_on_c, 1, 62, 51
1, 420240, Note_on_c, 0, 71, 0
1, 420240, Note_on_c, 1, 59, 0
1, 420240, Note_on_c, 1, 62, 0
1, 420288, Note_on_c, 0, 73, 51
1, 420288, Note_on_c, 1, 59, 51
1, 420288, Note_on_c, 1, 62, 51
1, 420432, Note_on_c, 0, 73, 0
1, 420432, Note_on_c, 1, 59, 0
1, 420432, Note_on_c, 1, 62, 0
1, 420480, Note_on_c, 0, 74, 51
1, 420480, Note_on_c, 1, 59, 51
1, 420480, Note_on_c, 1, 62, 51
1, 420624, Note_on_c, 0, 74, 0
1, 420624, Note_on_c, 1, 59, 0
1, 420624, Note_on_c, 1, 62, 0
1, 420672, Note_on_c, 0, 78, 51
1, 420672, Note_on_c, 1, 59, 51
1, 420672, Note_on_c, 1, 62, 51
1, 420816, Note_on_c, 0, 78, 0
1, 420816, Note_on_c, 1, 59, 0
1, 420816, Note_on_c, 1, 62, 0
1, 420864, Note_on_c, 0, 79, 51
1, 420864, Note_on_c, 1, 59, 51
1, 420864, Note_on_c, 1, 62, 51
1, 421008, Note_on_c, 0, 79, 0
1, 421008, Note_on_c, 1, 59, 0
1, 421008, Note_on_c, 1, 62, 0
1, 421056, Note_on_c, 0, 81, 51
1, 421056, Note_on_c, 1, 59, 51
1, 421056, Note_on_c, 1, 62, 51
1, 421200, Note_on_c, 0, 81, 0
1, 421200, Note_on_c, 1, 59, 0
1, 421200, Note_on_c, 1, 62, 0
1, 421248, Note_on_c, 0, 83, 51
1, 421248, Note_on_c, 1, 59, 51
1, 421248, Note_on_c, 1, 62, 51
1, 421392, Note_on_c, 0, 83, 0
1, 421392, Note_on_c, 1, 59, 0
1, 421392, Note_on_c, 1, 62, 0
1, 421440, Note_on_c, 0, 85, 51
1, 421440, Note_on_c, 1, 59, 51
1, 421440, Note_on_c, 1, 62, 51
1, 421584, Note_on_c, 0, 85, 0
1, 421584, Note_on_c, 1, 59, 0
1, 421584, Note_on_c, 1, 62, 0
1, 421632, Note_on_c, 0, 86, 51
1, 421632, Note_on_c, 1, 59, 51
1, 421632, Note_on_c, 1, 62, 51
1, 421776, Note_on_c, 1, 59, 0
1, 421776, Note_on_c, 1, 62, 0
1, 421824, Note_on_c, 1, 59, 51
1, 421824, Note_on_c, 1, 62, 51
1, 421968, Note_on_c, 1, 59, 0
1, 421968, Note_on_c, 1, 62, 0
1, 422012, Note_on_c, 0, 86, 0
1, 422016, Note_on_c, 1, 59, 51
1, 422016, Note_on_c, 1, 62, 51
1, 422160, Note_on_c, 1, 59, 0
1, 422160, Note_on_c, 1, 62, 0
1, 422208, Note_on_c, 1, 59, 51
1, 422208, Note_on_c, 1, 62, 51
1, 422352, Note_on_c, 1, 59, 0
1, 422352, Note_on_c, 1, 62, 0
1, 422400, Note_on_c, 0, 72, 72
1, 422400, Note_on_c, 1, 54, 51
1, 422400, Note_on_c, 1, 57, 51
1, 422400, Note_on_c, 1, 62, 51
1, 422416, Note_on_c, 0, 78, 72
1, 422436, Note_on_c, 0, 84, 72
1, 422544, Note_on_c, 1, 54, 0
1, 422544, Note_on_c, 1, 57, 0
1, 422544, Note_on_c, 1, 62, 0
1, 422592, Note_on_c, 1, 54, 51
1, 422592, Note_on_c, 1, 57, 51
1, 422592, Note_on_c, 1, 62, 51
1, 422736, Note_on_c, 1, 54, 0
1, 422736, Note_on_c, 1, 57, 0
1, 422736, Note_on_c, 1, 62, 0
1, 422780, Note_on_c, 0, 72, 0
1, 422784, Note_on_c, 1, 54, 51
1, 422784, Note_on_c, 1, 57, 51
1, 422784, Note_on_c, 1, 62, 51
1, 422796, Note_on_c, 0, 78, 0
1, 422816, Note_on_c, 0, 84, 0
1, 422928, Note_on_c, 0, 71, 51
1, 422928, Note_on_c, 1, 54, 0
1, 422928, Note_on_c, 1, 57, 0
1, 422928, Note_on_c, 1, 62, 0
1, 422972, Note_on_c, 0, 71, 0
1, 422976, Note_on_c, 0, 69, 51
1, 422976, Note_on_c, 1, 54, 51
1, 422976, Note_on_c, 1, 57, 51
1, 422976, Note_on_c, 1, 62, 51
1, 423068, Note_on_c, 0, 69, 0
1, 423072, Note_on_c, 0, 68, 51
1, 423120, Note_on_c, 1, 54, 0
1, 423120, Note_on_c, 1, 57, 0
1, 423120, Note_on_c, 1, 62, 0
1, 423164, Note_on_c, 0, 68, 0
1, 423168, Note_on_c, 0, 69, 51
1, 423168, Note_on_c, 1, 54, 51
1, 423168, Note_on_c, 1, 57, 51
1, 423168, Note_on_c, 1, 62, 51
1, 423312, Note_on_c, 0, 69, 0
1, 423312, Note_on_c, 1, 54, 0
1, 423312, Note_on_c, 1, 57, 0
1, 423312, Note_on_c, 1, 62, 0
1, 423360, Note_on_c, 0, 71, 51
1, 423360, Note_on_c, 1, 54, 51
1, 423360, Note_on_c, 1, 57, 51
1, 423360, Note_on_c, 1, 62, 51
1, 423504, Note_on_c, 0, 71, 0
1, 423504, Note_on_c, 1, 54, 0
1, 423504, Note_on_c, 1, 57, 0
1, 423504, Note_on_c, 1, 62, 0
1, 423552, Note_on_c, 0, 72, 51
1, 423552, Note_on_c, 1, 54, 51
1, 423552, Note_on_c, 1, 57, 51
1, 423552, Note_on_c, 1, 62, 51
1, 423696, Note_on_c, 0, 72, 0
1, 423696, Note_on_c, 1, 54, 0
1, 423696, Note_on_c, 1, 57, 0
1, 423696, Note_on_c, 1, 62, 0
1, 423744, Note_on_c, 0, 77, 51
1, 423744, Note_on_c, 1, 54, 51
1, 423744, Note_on_c, 1, 57, 51
1, 423744, Note_on_c, 1, 62, 51
1, 423888, Note_on_c, 0, 77, 0
1, 423888, Note_on_c, 1, 54, 0
1, 423888, Note_on_c, 1, 57, 0
1, 423888, Note_on_c, 1, 62, 0
1, 423936, Note_on_c, 0, 78, 51
1, 423936, Note_on_c, 1, 54, 51
1, 423936, Note_on_c, 1, 57, 51
1, 423936, Note_on_c, 1, 62, 51
1, 424080, Note_on_c, 0, 78, 0
1, 424080, Note_on_c, 1, 54, 0
1, 424080, Note_on_c, 1, 57, 0
1, 424080, Note_on_c, 1, 62, 0
1, 424128, Note_on_c, 0, 80, 51
1, 424128, Note_on_c, 1, 54, 51
1, 424128, Note_on_c, 1, 57, 51
1, 424128, Note_on_c, 1, 62, 51
1, 424272, Note_on_c, 0, 80, 0
1, 424272, Note_on_c, 1, 54, 0
1, 424272, Note_on_c, 1, 57, 0
1, 424272, Note_on_c, 1, 62, 0
1, 424320, Note_on_c, 0, 81, 51
1, 424320, Note_on_c, 1, 54, 51
1, 424320, Note_on_c, 1, 57, 51
1, 424320, Note_on_c, 1, 62, 51
1, 424464, Note_on_c, 0, 81, 0
1, 424464, Note_on_c, 1, 54, 0
1, 424464, Note_on_c, 1, 57, 0
1, 424464, Note_on_c, 1, 62, 0
1, 424512, Note_on_c, 0, 83, 51
1, 424512, Note_on_c, 1, 54, 51
1, 424512, Note_on_c, 1, 57, 51
1, 424512, Note_on_c, 1, 62, 51
1, 424656, Note_on_c, 0, 83, 0
1, 424656, Note_on_c, 1, 54, 0
1, 424656, Note_on_c, 1, 57, 0
1, 424656, Note_on_c, 1, 62, 0
1, 424704, Note_on_c, 0, 84, 51
1, 424704, Note_on_c, 1, 54, 51
1, 424704, Note_on_c, 1, 57, 51
1, 424704, Note_on_c, 1, 62, 51
1, 424848, Note_on_c, 1, 54, 0
1, 424848, Note_on_c, 1, 57, 0
1, 424848, Note_on_c, 1, 62, 0
1, 424896, Note_on_c, 1, 54, 51
1, 424896, Note_on_c, 1, 57, 51
1, 424896, Note_on_c, 1, 62, 51
1, 425040, Note_on_c, 1, 54, 0
1, 425040, Note_on_c, 1, 57, 0
1, 425040, Note_on_c, 1, 62, 0
1, 425084, Note_on_c, 0, 84, 0
1, 425088, Note_on_c, 1, 54, 51
1, 425088, Note_on_c, 1, 57, 51
1, 425088, Note_on_c, 1, 62, 51
1, 425232, Note_on_c, 1, 54, 0
1, 425232, Note_on_c, 1, 57, 0
1, 425232, Note_on_c, 1, 62, 0
1, 425280, Note_on_c, 1, 57, 51
1, 425280, Note_on_c, 1, 62, 51
1, 425280, Note_on_c, 1, 54, 51
1, 425424, Note_on_c, 1, 57, 0
1, 425424, Note_on_c, 1, 62, 0
1, 425424, Note_on_c, 1, 54, 0
1, 425472, Note_on_c, 0, 83, 72
1, 425472, Note_on_c, 1, 62, 72
1, 425472, Note_on_c, 1, 55, 72
1, 425564, Note_on_c, 0, 83, 0
1, 425568, Note_on_c, 0, 81, 72
1, 425660, Note_on_c, 0, 81, 0
1, 425664, Note_on_c, 0, 84, 72
1, 425756, Note_on_c, 0, 84, 0
1, 425760, Note_on_c, 0, 83, 72
1, 425852, Note_on_c, 0, 83, 0
1, 425856, Note_on_c, 0, 86, 72
1, 426000, Note_on_c, 0, 86, 0
1, 426000, Note_on_c, 1, 62, 0
1, 426000, Note_on_c, 1, 55, 0
1, 426048, Note_on_c, 0, 78, 72
1, 426192, Note_on_c, 0, 78, 0
1, 426240, Note_on_c, 0, 79, 72
1, 426240, Note_on_c, 1, 59, 72
1, 426240, Note_on_c, 1, 55, 72
1, 426332, Note_on_c, 0, 79, 0
1, 426336, Note_on_c, 0, 78, 72
1, 426428, Note_on_c, 0, 78, 0
1, 426432, Note_on_c, 0, 81, 72
1, 426524, Note_on_c, 0, 81, 0
1, 426528, Note_on_c, 0, 79, 72
1, 426620, Note_on_c, 0, 79, 0
1, 426624, Note_on_c, 0, 83, 72
1, 426768, Note_on_c, 0, 83, 0
1, 426768, Note_on_c, 1, 59, 0
1, 426768, Note_on_c, 1, 55, 0
1, 426816, Note_on_c, 0, 74, 72
1, 426960, Note_on_c, 0, 74, 0
1, 427008, Note_on_c, 0, 76, 72
1, 427008, Note_on_c, 1, 60, 72
1, 427008, Note_on_c, 1, 55, 72
1, 427100, Note_on_c, 0, 76, 0
1, 427104, Note_on_c, 0, 75, 72
1, 427196, Note_on_c, 0, 75, 0
1, 427200, Note_on_c, 0, 78, 72
1, 427292, Note_on_c, 0, 78, 0
1, 427296, Note_on_c, 0, 76, 72
1, 427388, Note_on_c, 0, 76, 0
1, 427392, Note_on_c, 0, 79, 72
1, 427536, Note_on_c, 0, 79, 0
1, 427536, Note_on_c, 1, 60, 0
1, 427536, Note_on_c, 1, 55, 0
1, 427584, Note_on_c, 0, 71, 72
1, 427728, Note_on_c, 0, 71, 0
1, 427776, Note_on_c, 0, 72, 72
1, 427776, Note_on_c, 1, 55, 72
1, 427776, Note_on_c, 1, 64, 72
1, 427868, Note_on_c, 0, 72, 0
1, 427872, Note_on_c, 0, 71, 72
1, 427964, Note_on_c, 0, 71, 0
1, 427968, Note_on_c, 0, 74, 72
1, 428060, Note_on_c, 0, 74, 0
1, 428064, Note_on_c, 0, 72, 72
1, 428156, Note_on_c, 0, 72, 0
1, 428160, Note_on_c, 0, 76, 72
1, 428304, Note_on_c, 0, 76, 0
1, 428304, Note_on_c, 1, 55, 0
1, 428304, Note_on_c, 1, 64, 0
1, 428352, Note_on_c, 0, 69, 72
1, 428496, Note_on_c, 0, 69, 0
1, 428544, Note_on_c, 0, 71, 72
1, 428544, Note_on_c, 1, 67, 72
1, 428544, Note_on_c, 1, 55, 72
1, 428636, Note_on_c, 0, 71, 0
1, 428640, Note_on_c, 0, 69, 72
1, 428732, Note_on_c, 0, 69, 0
1, 428736, Note_on_c, 0, 72, 72
1, 428828, Note_on_c, 0, 72, 0
1, 428832, Note_on_c, 0, 71, 72
1, 428924, Note_on_c, 0, 71, 0
1, 428924, Note_on_c, 1, 67, 0
1, 428924, Note_on_c, 1, 55, 0
1, 428928, Note_on_c, 0, 74, 72
1, 429072, Note_on_c, 0, 74, 0
1, 429120, Note_on_c, 0, 66, 72
1, 429120, Note_on_c, 1, 54, 72
1, 429264, Note_on_c, 0, 66, 0
1, 429264, Note_on_c, 1, 54, 0
1, 429312, Note_on_c, 0, 67, 72
1, 429312, Note_on_c, 1, 55, 72
1, 429404, Note_on_c, 0, 67, 0
1, 429404, Note_on_c, 1, 55, 0
1, 429408, Note_on_c, 0, 66, 72
1, 429408, Note_on_c, 1, 54, 72
1, 429500, Note_on_c, 0, 66, 0
1, 429500, Note_on_c, 1, 54, 0
1, 429504, Note_on_c, 0, 69, 72
1, 429504, Note_on_c, 1, 57, 72
1, 429596, Note_on_c, 0, 69, 0
1, 429596, Note_on_c, 1, 57, 0
1, 429600, Note_on_c, 0, 67, 72
1, 429600, Note_on_c, 1, 55, 72
1, 429692, Note_on_c, 0, 67, 0
1, 429692, Note_on_c, 1, 55, 0
1, 429696, Note_on_c, 0, 71, 72
1, 429696, Note_on_c, 1, 59, 72
1, 429840, Note_on_c, 0, 71, 0
1, 429840, Note_on_c, 1, 59, 0
1, 429888, Note_on_c, 0, 62, 72
1, 429888, Note_on_c, 1, 50, 72
1, 430032, Note_on_c, 0, 62, 0
1, 430032, Note_on_c, 1, 50, 0
1, 430080, Note_on_c, 0, 64, 72
1, 430080, Note_on_c, 1, 52, 72
1, 430364, Note_on_c, 0, 64, 0
1, 430364, Note_on_c, 1, 52, 0
1, 430368, Note_on_c, 0, 62, 72
1, 430368, Note_on_c, 1, 50, 72
1, 430460, Note_on_c, 0, 62, 0
1, 430460, Note_on_c, 1, 50, 0
1, 430464, Note_on_c, 0, 60, 72
1, 430464, Note_on_c, 1, 48, 72
1, 430748, Note_on_c, 0, 60, 0
1, 430748, Note_on_c, 1, 48, 0
1, 430752, Note_on_c, 0, 59, 72
1, 430752, Note_on_c, 1, 47, 72
1, 430844, Note_on_c, 0, 59, 0
1, 430844, Note_on_c, 1, 47, 0
1, 430848, Note_on_c, 0, 60, 72
1, 430848, Note_on_c, 1, 48, 72
1, 431132, Note_on_c, 0, 60, 0
1, 431132, Note_on_c, 1, 48, 0
1, 431136, Note_on_c, 1, 45, 72
1, 431136, Note_on_c, 1, 57, 72
1, 431228, Note_on_c, 1, 45, 0
1, 431228, Note_on_c, 1, 57, 0
1, 431232, Note_on_c, 1, 43, 72
1, 431232, Note_on_c, 1, 55, 72
1, 431516, Note_on_c, 1, 43, 0
1, 431516, Note_on_c, 1, 55, 0
1, 431520, Note_on_c, 1, 53, 72
1, 431520, Note_on_c, 1, 41, 72
1, 431612, Note_on_c, 1, 53, 0
1, 431612, Note_on_c, 1, 41, 0
1, 431616, Note_on_c, 1, 43, 72
1, 431616, Note_on_c, 1, 55, 72
1, 431760, Note_on_c, 1, 43, 0
1, 431760, Note_on_c, 1, 55, 0
1, 431808, Note_on_c, 1, 47, 72
1, 431808, Note_on_c, 1, 59, 72
1, 431900, Note_on_c, 1, 47, 0
1, 431900, Note_on_c, 1, 59, 0
1, 431904, Note_on_c, 0, 62, 72
1, 431904, Note_on_c, 1, 50, 72
1, 431996, Note_on_c, 0, 62, 0
1, 431996, Note_on_c, 1, 50, 0
1, 432000, Note_on_c, 0, 67, 72
1, 432000, Note_on_c, 1, 55, 72
1, 432144, Note_on_c, 0, 67, 0
1, 432144, Note_on_c, 1, 55, 0
1, 432192, Note_on_c, 0, 67, 72
1, 432192, Note_on_c, 1, 55, 72
1, 432336, Note_on_c, 0, 67, 0
1, 432336, Note_on_c, 1, 55, 0
1, 432384, Note_on_c, 0, 67, 72
1, 432384, Note_on_c, 1, 55, 72
1, 432764, Note_on_c, 0, 67, 0
1, 432764, Note_on_c, 1, 55, 0
1, 433152, Note_on_c, 0, 78, 51
1, 433296, Note_on_c, 0, 78, 0
1, 433344, Note_on_c, 0, 79, 51
1, 433488, Note_on_c, 0, 79, 0
1, 433536, Note_on_c, 0, 78, 51
1, 433680, Note_on_c, 0, 78, 0
1, 433728, Note_on_c, 0, 79, 51
1, 433872, Note_on_c, 0, 79, 0
1, 433920, Note_on_c, 0, 78, 51
1, 434064, Note_on_c, 0, 78, 0
1, 434112, Note_on_c, 0, 79, 51
1, 434256, Note_on_c, 0, 79, 0
1, 434304, Note_on_c, 0, 78, 51
1, 434448, Note_on_c, 0, 78, 0
1, 434496, Note_on_c, 0, 79, 51
1, 434640, Note_on_c, 0, 79, 0
1, 434688, Note_on_c, 0, 77, 51
1, 434832, Note_on_c, 0, 77, 0
1, 434880, Note_on_c, 0, 79, 51
1, 435024, Note_on_c, 0, 79, 0
1, 435072, Note_on_c, 0, 76, 51
1, 435216, Note_on_c, 0, 76, 0
1, 435264, Note_on_c, 0, 79, 51
1, 435408, Note_on_c, 0, 79, 0
1, 435456, Note_on_c, 0, 77, 51
1, 435600, Note_on_c, 0, 77, 0
1, 435648, Note_on_c, 0, 79, 51
1, 435792, Note_on_c, 0, 79, 0
1, 435840, Note_on_c, 0, 74, 51
1, 435984, Note_on_c, 0, 74, 0
1, 436032, Note_on_c, 0, 79, 51
1, 436176, Note_on_c, 0, 79, 0
1, 436224, Note_on_c, 0, 72, 51
1, 436224, Note_on_c, 0, 64, 51
1, 436368, Note_on_c, 0, 72, 0
1, 436368, Note_on_c, 0, 64, 0
1, 436416, Note_on_c, 0, 79, 51
1, 436416, Note_on_c, 0, 65, 51
1, 436560, Note_on_c, 0, 79, 0
1, 436560, Note_on_c, 0, 65, 0
1, 436608, Note_on_c, 0, 72, 51
1, 436608, Note_on_c, 0, 67, 51
1, 436752, Note_on_c, 0, 72, 0
1, 436752, Note_on_c, 0, 67, 0
1, 436800, Note_on_c, 0, 79, 51
1, 436800, Note_on_c, 0, 64, 51
1, 436944, Note_on_c, 0, 79, 0
1, 436944, Note_on_c, 0, 64, 0
1, 436992, Note_on_c, 0, 76, 51
1, 436992, Note_on_c, 0, 60, 51
1, 437136, Note_on_c, 0, 76, 0
1, 437184, Note_on_c, 0, 79, 51
1, 437328, Note_on_c, 0, 79, 0
1, 437376, Note_on_c, 0, 76, 51
1, 437520, Note_on_c, 0, 60, 0
1, 437520, Note_on_c, 0, 76, 0
1, 437568, Note_on_c, 0, 79, 51
1, 437712, Note_on_c, 0, 79, 0
1, 437760, Note_on_c, 0, 77, 51
1, 437760, Note_on_c, 0, 62, 51
1, 437904, Note_on_c, 0, 77, 0
1, 437904, Note_on_c, 0, 62, 0
1, 437952, Note_on_c, 0, 79, 51
1, 437952, Note_on_c, 0, 64, 51
1, 438096, Note_on_c, 0, 79, 0
1, 438096, Note_on_c, 0, 64, 0
1, 438144, Note_on_c, 0, 77, 51
1, 438144, Note_on_c, 0, 65, 51
1, 438288, Note_on_c, 0, 77, 0
1, 438288, Note_on_c, 0, 65, 0
1, 438336, Note_on_c, 0, 79, 51
1, 438336, Note_on_c, 0, 62, 51
1, 438480, Note_on_c, 0, 79, 0
1, 438480, Note_on_c, 0, 62, 0
1, 438528, Note_on_c, 0, 74, 51
1, 438528, Note_on_c, 0, 59, 51
1, 438672, Note_on_c, 0, 74, 0
1, 438720, Note_on_c, 0, 79, 51
1, 438864, Note_on_c, 0, 79, 0
1, 438912, Note_on_c, 0, 74, 51
1, 439056, Note_on_c, 0, 59, 0
1, 439056, Note_on_c, 0, 74, 0
1, 439104, Note_on_c, 0, 79, 51
1, 439248, Note_on_c, 0, 79, 0
1, 439296, Note_on_c, 0, 76, 51
1, 439296, Note_on_c, 0, 62, 51
1, 439388, Note_on_c, 0, 62, 0
1, 439392, Note_on_c, 0, 60, 51
1, 439440, Note_on_c, 0, 76, 0
1, 439488, Note_on_c, 0, 79, 51
1, 439536, Note_on_c, 0, 60, 0
1, 439632, Note_on_c, 0, 79, 0
1, 439680, Note_on_c, 0, 72, 51
1, 439680, Note_on_c, 0, 65, 51
1, 439772, Note_on_c, 0, 65, 0
1, 439776, Note_on_c, 0, 64, 51
1, 439824, Note_on_c, 0, 72, 0
1, 439872, Note_on_c, 0, 79, 51
1, 439920, Note_on_c, 0, 64, 0
1, 440016, Note_on_c, 0, 79, 0
1, 440064, Note_on_c, 0, 71, 51
1, 440064, Note_on_c, 0, 61, 51
1, 440156, Note_on_c, 0, 61, 0
1, 440160, Note_on_c, 0, 62, 51
1, 440208, Note_on_c, 0, 71, 0
1, 440256, Note_on_c, 0, 79, 51
1, 440304, Note_on_c, 0, 62, 0
1, 440400, Note_on_c, 0, 79, 0
1, 440448, Note_on_c, 0, 74, 51
1, 440592, Note_on_c, 0, 74, 0
1, 440640, Note_on_c, 0, 79, 51
1, 440784, Note_on_c, 0, 79, 0
1, 440832, Note_on_c, 0, 72, 51
1, 440832, Note_on_c, 0, 65, 51
1, 440924, Note_on_c, 0, 65, 0
1, 440928, Note_on_c, 0, 64, 51
1, 440976, Note_on_c, 0, 72, 0
1, 441024, Note_on_c, 0, 79, 51
1, 441072, Note_on_c, 0, 64, 0
1, 441168, Note_on_c, 0, 79, 0
1, 441216, Note_on_c, 0, 72, 51
1, 441216, Note_on_c, 0, 67, 51
1, 441308, Note_on_c, 0, 72, 0
1, 441312, Note_on_c, 0, 66, 51
1, 441360, Note_on_c, 0, 67, 0
1, 441408, Note_on_c, 0, 81, 51
1, 441456, Note_on_c, 0, 66, 0
1, 441552, Note_on_c, 0, 81, 0
1, 441600, Note_on_c, 0, 71, 51
1, 441600, Note_on_c, 0, 69, 51
1, 441692, Note_on_c, 0, 69, 0
1, 441696, Note_on_c, 0, 67, 51
1, 441744, Note_on_c, 0, 71, 0
1, 441792, Note_on_c, 0, 74, 51
1, 441840, Note_on_c, 0, 67, 0
1, 441936, Note_on_c, 0, 74, 0
1, 441984, Note_on_c, 0, 78, 51
1, 442128, Note_on_c, 0, 78, 0
1, 442176, Note_on_c, 0, 79, 51
1, 442320, Note_on_c, 0, 79, 0
1, 442368, Note_on_c, 0, 76, 51
1, 442368, Note_on_c, 1, 48, 51
1, 442512, Note_on_c, 0, 76, 0
1, 442512, Note_on_c, 1, 48, 0
1, 442560, Note_on_c, 0, 77, 51
1, 442560, Note_on_c, 1, 55, 51
1, 442704, Note_on_c, 0, 77, 0
1, 442704, Note_on_c, 1, 55, 0
1, 442752, Note_on_c, 0, 79, 51
1, 442752, Note_on_c, 1, 48, 51
1, 442896, Note_on_c, 0, 79, 0
1, 442896, Note_on_c, 1, 48, 0
1, 442944, Note_on_c, 0, 76, 51
1, 442944, Note_on_c, 1, 55, 51
1, 443088, Note_on_c, 0, 76, 0
1, 443088, Note_on_c, 1, 55, 0
1, 443136, Note_on_c, 0, 72, 51
1, 443136, Note_on_c, 1, 52, 51
1, 443280, Note_on_c, 1, 52, 0
1, 443328, Note_on_c, 1, 55, 51
1, 443472, Note_on_c, 1, 55, 0
1, 443520, Note_on_c, 1, 52, 51
1, 443664, Note_on_c, 1, 52, 0
1, 443712, Note_on_c, 1, 55, 51
1, 443856, Note_on_c, 1, 55, 0
1, 443900, Note_on_c, 0, 72, 0
1, 443904, Note_on_c, 0, 74, 51
1, 443904, Note_on_c, 1, 53, 51
1, 444048, Note_on_c, 0, 74, 0
1, 444048, Note_on_c, 1, 53, 0
1, 444096, Note_on_c, 0, 76, 51
1, 444096, Note_on_c, 1, 55, 51
1, 444240, Note_on_c, 0, 76, 0
1, 444240, Note_on_c, 1, 55, 0
1, 444288, Note_on_c, 0, 77, 51
1, 444288, Note_on_c, 1, 53, 51
1, 444432, Note_on_c, 0, 77, 0
1, 444432, Note_on_c, 0, 74, 51
1, 444432, Note_on_c, 1, 53, 0
1, 444480, Note_on_c, 1, 55, 51
1, 444576, Note_on_c, 0, 74, 0
1, 444624, Note_on_c, 1, 55, 0
1, 444672, Note_on_c, 0, 83, 51
1, 444672, Note_on_c, 1, 50, 51
1, 444816, Note_on_c, 1, 50, 0
1, 444864, Note_on_c, 1, 55, 51
1, 445008, Note_on_c, 1, 55, 0
1, 445056, Note_on_c, 1, 50, 51
1, 445200, Note_on_c, 1, 50, 0
1, 445248, Note_on_c, 1, 55, 51
1, 445392, Note_on_c, 1, 55, 0
1, 445436, Note_on_c, 0, 83, 0
1, 445440, Note_on_c, 0, 84, 51
1, 445440, Note_on_c, 1, 52, 51
1, 445532, Note_on_c, 0, 84, 0
1, 445536, Note_on_c, 0, 83, 51
1, 445584, Note_on_c, 1, 52, 0
1, 445632, Note_on_c, 1, 55, 51
1, 445776, Note_on_c, 1, 55, 0
1, 445820, Note_on_c, 0, 83, 0
1, 445824, Note_on_c, 0, 81, 51
1, 445824, Note_on_c, 1, 48, 51
1, 445916, Note_on_c, 0, 81, 0
1, 445920, Note_on_c, 0, 79, 51
1, 445968, Note_on_c, 1, 48, 0
1, 446016, Note_on_c, 1, 55, 51
1, 446160, Note_on_c, 1, 55, 0
1, 446204, Note_on_c, 0, 79, 0
1, 446208, Note_on_c, 0, 76, 51
1, 446208, Note_on_c, 1, 50, 51
1, 446300, Note_on_c, 0, 76, 0
1, 446304, Note_on_c, 0, 77, 51
1, 446352, Note_on_c, 1, 50, 0
1, 446400, Note_on_c, 1, 55, 51
1, 446544, Note_on_c, 1, 55, 0
1, 446588, Note_on_c, 0, 77, 0
1, 446592, Note_on_c, 1, 47, 51
1, 446736, Note_on_c, 1, 47, 0
1, 446784, Note_on_c, 1, 55, 51
1, 446928, Note_on_c, 1, 55, 0
1, 446976, Note_on_c, 0, 77, 51
1, 446976, Note_on_c, 1, 48, 51
1, 447068, Note_on_c, 0, 77, 0
1, 447072, Note_on_c, 0, 76, 51
1, 447120, Note_on_c, 1, 48, 0
1, 447168, Note_on_c, 1, 55, 51
1, 447312, Note_on_c, 1, 55, 0
1, 447356, Note_on_c, 0, 76, 0
1, 447360, Note_on_c, 0, 74, 51
1, 447360, Note_on_c, 1, 45, 51
1, 447452, Note_on_c, 0, 74, 0
1, 447456, Note_on_c, 0, 72, 51
1, 447504, Note_on_c, 1, 45, 0
1, 447552, Note_on_c, 1, 54, 51
1, 447696, Note_on_c, 1, 54, 0
1, 447740, Note_on_c, 0, 72, 0
1, 447744, Note_on_c, 0, 81, 51
1, 447744, Note_on_c, 1, 43, 51
1, 447836, Note_on_c, 0, 81, 0
1, 447840, Note_on_c, 0, 79, 51
1, 447888, Note_on_c, 1, 43, 0
1, 447936, Note_on_c, 1, 55, 51
1, 448080, Note_on_c, 1, 55, 0
1, 448124, Note_on_c, 0, 79, 0
1, 448128, Note_on_c, 1, 41, 51
1, 448272, Note_on_c, 1, 41, 0
1, 448320, Note_on_c, 1, 53, 51
1, 448464, Note_on_c, 1, 53, 0
1, 448512, Note_on_c, 0, 79, 72
1, 448512, Note_on_c, 0, 67, 72
1, 448512, Note_on_c, 1, 40, 51
1, 448604, Note_on_c, 1, 40, 0
1, 448608, Note_on_c, 1, 48, 51
1, 448700, Note_on_c, 1, 48, 0
1, 448704, Note_on_c, 1, 47, 51
1, 448796, Note_on_c, 1, 47, 0
1, 448800, Note_on_c, 1, 48, 51
1, 448892, Note_on_c, 1, 48, 0
1, 448896, Note_on_c, 1, 50, 51
1, 448988, Note_on_c, 1, 50, 0
1, 448992, Note_on_c, 1, 48, 51
1, 449084, Note_on_c, 1, 48, 0
1, 449088, Note_on_c, 1, 47, 51
1, 449180, Note_on_c, 1, 47, 0
1, 449184, Note_on_c, 1, 48, 51
1, 449276, Note_on_c, 0, 79, 0
1, 449276, Note_on_c, 0, 67, 0
1, 449276, Note_on_c, 1, 48, 0
1, 449280, Note_on_c, 0, 77, 51
1, 449280, Note_on_c, 1, 40, 51
1, 449424, Note_on_c, 0, 77, 0
1, 449472, Note_on_c, 0, 76, 51
1, 449520, Note_on_c, 1, 40, 0
1, 449616, Note_on_c, 0, 76, 0
1, 449664, Note_on_c, 0, 74, 51
1, 449808, Note_on_c, 0, 74, 0
1, 449856, Note_on_c, 0, 72, 51
1, 450000, Note_on_c, 0, 72, 0
1, 450048, Note_on_c, 0, 81, 51
1, 450048, Note_on_c, 0, 69, 51
1, 450048, Note_on_c, 1, 41, 51
1, 450140, Note_on_c, 1, 41, 0
1, 450144, Note_on_c, 1, 48, 51
1, 450236, Note_on_c, 1, 48, 0
1, 450240, Note_on_c, 1, 47, 51
1, 450332, Note_on_c, 1, 47, 0
1, 450336, Note_on_c, 1, 48, 51
1, 450428, Note_on_c, 0, 81, 0
1, 450428, Note_on_c, 0, 69, 0
1, 450428, Note_on_c, 1, 48, 0
1, 450432, Note_on_c, 1, 50, 51
1, 450524, Note_on_c, 1, 50, 0
1, 450528, Note_on_c, 1, 48, 51
1, 450620, Note_on_c, 1, 48, 0
1, 450624, Note_on_c, 1, 47, 51
1, 450716, Note_on_c, 1, 47, 0
1, 450720, Note_on_c, 1, 48, 51
1, 450812, Note_on_c, 1, 48, 0
1, 450816, Note_on_c, 0, 79, 51
1, 450816, Note_on_c, 1, 41, 51
1, 450960, Note_on_c, 0, 79, 0
1, 451008, Note_on_c, 0, 77, 51
1, 451152, Note_on_c, 0, 77, 0
1, 451196, Note_on_c, 1, 41, 0
1, 451200, Note_on_c, 0, 76, 51
1, 451344, Note_on_c, 0, 76, 0
1, 451392, Note_on_c, 0, 74, 51
1, 451536, Note_on_c, 0, 74, 0
1, 451584, Note_on_c, 0, 76, 51
1, 451584, Note_on_c, 1, 43, 51
1, 451676, Note_on_c, 0, 76, 0
1, 451680, Note_on_c, 0, 77, 51
1, 451728, Note_on_c, 1, 43, 0
1, 451772, Note_on_c, 0, 77, 0
1, 451776, Note_on_c, 0, 79, 51
1, 451776, Note_on_c, 1, 48, 51
1, 451868, Note_on_c, 0, 79, 0
1, 451872, Note_on_c, 0, 76, 51
1, 451920, Note_on_c, 1, 48, 0
1, 451964, Note_on_c, 0, 76, 0
1, 451968, Note_on_c, 0, 72, 51
1, 451968, Note_on_c, 1, 52, 51
1, 452112, Note_on_c, 0, 72, 0
1, 452112, Note_on_c, 1, 52, 0
1, 452160, Note_on_c, 1, 48, 51
1, 452304, Note_on_c, 1, 48, 0
1, 452352, Note_on_c, 0, 74, 51
1, 452352, Note_on_c, 1, 43, 51
1, 452444, Note_on_c, 0, 74, 0
1, 452448, Note_on_c, 0, 76, 51
1, 452496, Note_on_c, 1, 43, 0
1, 452540, Note_on_c, 0, 76, 0
1, 452544, Note_on_c, 0, 77, 51
1, 452544, Note_on_c, 1, 50, 51
1, 452636, Note_on_c, 0, 77, 0
1, 452640, Note_on_c, 0, 74, 51
1, 452688, Note_on_c, 1, 50, 0
1, 452732, Note_on_c, 0, 74, 0
1, 452736, Note_on_c, 0, 71, 51
1, 452736, Note_on_c, 1, 53, 51
1, 452880, Note_on_c, 0, 71, 0
1, 452880, Note_on_c, 1, 53, 0
1, 452928, Note_on_c, 1, 50, 51
1, 453072, Note_on_c, 1, 50, 0
1, 453120, Note_on_c, 0, 79, 72
1, 453120, Note_on_c, 0, 67, 72
1, 453120, Note_on_c, 1, 52, 51
1, 453212, Note_on_c, 1, 52, 0
1, 453216, Note_on_c, 1, 60, 51
1, 453308, Note_on_c, 1, 60, 0
1, 453312, Note_on_c, 1, 59, 51
1, 453404, Note_on_c, 1, 59, 0
1, 453408, Note_on_c, 1, 60, 51
1, 453500, Note_on_c, 1, 60, 0
1, 453504, Note_on_c, 1, 62, 51
1, 453596, Note_on_c, 1, 62, 0
1, 453600, Note_on_c, 1, 60, 51
1, 453692, Note_on_c, 1, 60, 0
1, 453696, Note_on_c, 1, 59, 51
1, 453788, Note_on_c, 1, 59, 0
1, 453792, Note_on_c, 1, 60, 51
1, 453884, Note_on_c, 0, 79, 0
1, 453884, Note_on_c, 0, 67, 0
1, 453884, Note_on_c, 1, 60, 0
1, 453888, Note_on_c, 0, 77, 51
1, 453888, Note_on_c, 1, 52, 51
1, 453980, Note_on_c, 0, 77, 0
1, 453984, Note_on_c, 0, 79, 51
1, 454076, Note_on_c, 0, 79, 0
1, 454080, Note_on_c, 0, 77, 51
1, 454172, Note_on_c, 0, 77, 0
1, 454176, Note_on_c, 0, 76, 51
1, 454268, Note_on_c, 0, 76, 0
1, 454268, Note_on_c, 1, 52, 0
1, 454272, Note_on_c, 0, 74, 51
1, 454364, Note_on_c, 0, 74, 0
1, 454368, Note_on_c, 0, 76, 51
1, 454460, Note_on_c, 0, 76, 0
1, 454464, Note_on_c, 0, 74, 51
1, 454556, Note_on_c, 0, 74, 0
1, 454560, Note_on_c, 0, 72, 51
1, 454652, Note_on_c, 0, 72, 0
1, 454656, Note_on_c, 0, 84, 51
1, 454656, Note_on_c, 0, 72, 51
1, 454656, Note_on_c, 1, 57, 51
1, 454748, Note_on_c, 1, 57, 0
1, 454752, Note_on_c, 1, 65, 51
1, 454844, Note_on_c, 1, 65, 0
1, 454848, Note_on_c, 1, 64, 51
1, 454940, Note_on_c, 1, 64, 0
1, 454944, Note_on_c, 1, 65, 51
1, 455036, Note_on_c, 1, 65, 0
1, 455040, Note_on_c, 1, 67, 51
1, 455132, Note_on_c, 1, 67, 0
1, 455136, Note_on_c, 1, 65, 51
1, 455228, Note_on_c, 1, 65, 0
1, 455232, Note_on_c, 1, 64, 51
1, 455324, Note_on_c, 1, 64, 0
1, 455328, Note_on_c, 1, 65, 51
1, 455420, Note_on_c, 0, 84, 0
1, 455420, Note_on_c, 0, 72, 0
1, 455420, Note_on_c, 1, 65, 0
1, 455424, Note_on_c, 0, 83, 51
1, 455424, Note_on_c, 1, 57, 51
1, 455516, Note_on_c, 0, 83, 0
1, 455520, Note_on_c, 0, 84, 51
1, 455612, Note_on_c, 0, 84, 0
1, 455616, Note_on_c, 0, 83, 51
1, 455708, Note_on_c, 0, 83, 0
1, 455712, Note_on_c, 0, 81, 51
1, 455804, Note_on_c, 0, 81, 0
1, 455804, Note_on_c, 1, 57, 0
1, 455808, Note_on_c, 0, 79, 51
1, 455900, Note_on_c, 0, 79, 0
1, 455904, Note_on_c, 0, 81, 51
1, 455996, Note_on_c, 0, 81, 0
1, 456000, Note_on_c, 0, 79, 51
1, 456092, Note_on_c, 0, 79, 0
1, 456096, Note_on_c, 0, 77, 51
1, 456188, Note_on_c, 0, 77, 0
1, 456192, Note_on_c, 0, 76, 51
1, 456192, Note_on_c, 1, 55, 51
1, 456336, Note_on_c, 0, 76, 0
1, 456336, Note_on_c, 1, 55, 0
1, 456384, Note_on_c, 0, 72, 51
1, 456384, Note_on_c, 1, 60, 51
1, 456528, Note_on_c, 0, 72, 0
1, 456528, Note_on_c, 1, 60, 0
1, 456576, Note_on_c, 0, 77, 72
1, 456576, Note_on_c, 1, 57, 51
1, 456720, Note_on_c, 1, 57, 0
1, 456768, Note_on_c, 1, 60, 51
1, 456912, Note_on_c, 1, 60, 0
1, 456956, Note_on_c, 0, 77, 0
1, 456960, Note_on_c, 0, 76, 51
1, 456960, Note_on_c, 1, 55, 51
1, 457104, Note_on_c, 0, 76, 0
1, 457104, Note_on_c, 1, 55, 0
1, 457152, Note_on_c, 0, 72, 51
1, 457152, Note_on_c, 1, 60, 51
1, 457296, Note_on_c, 0, 72, 0
1, 457296, Note_on_c, 1, 60, 0
1, 457344, Note_on_c, 0, 81, 72
1, 457344, Note_on_c, 1, 53, 51
1, 457488, Note_on_c, 1, 53, 0
1, 457536, Note_on_c, 1, 60, 51
1, 457680, Note_on_c, 1, 60, 0
1, 457724, Note_on_c, 0, 81, 0
1, 457728, Note_on_c, 0, 79, 51
1, 457728, Note_on_c, 1, 52, 51
1, 457872, Note_on_c, 0, 79, 0
1, 457872, Note_on_c, 1, 52, 0
1, 457920, Note_on_c, 0, 72, 51
1, 457920, Note_on_c, 1, 60, 51
1, 458064, Note_on_c, 0, 72, 0
1, 458064, Note_on_c, 1, 60, 0
1, 458112, Note_on_c, 0, 77, 72
1, 458112, Note_on_c, 1, 57, 51
1, 458256, Note_on_c, 1, 57, 0
1, 458304, Note_on_c, 1, 60, 51
1, 458448, Note_on_c, 1, 60, 0
1, 458492, Note_on_c, 0, 77, 0
1, 458496, Note_on_c, 0, 76, 51
1, 458496, Note_on_c, 1, 55, 51
1, 458640, Note_on_c, 0, 76, 0
1, 458640, Note_on_c, 1, 55, 0
1, 458688, Note_on_c, 0, 72, 51
1, 458688, Note_on_c, 1, 60, 51
1, 458832, Note_on_c, 0, 72, 0
1, 458832, Note_on_c, 1, 60, 0
1, 458880, Note_on_c, 0, 81, 72
1, 458880, Note_on_c, 1, 53, 51
1, 459024, Note_on_c, 1, 53, 0
1, 459072, Note_on_c, 1, 60, 51
1, 459216, Note_on_c, 1, 60, 0
1, 459260, Note_on_c, 0, 81, 0
1, 459264, Note_on_c, 0, 82, 72
1, 459264, Note_on_c, 0, 70, 72
1, 459264, Note_on_c, 1, 52, 66
1, 459264, Note_on_c, 1, 55, 66
1, 459264, Note_on_c, 1, 61, 66
1, 459408, Note_on_c, 1, 52, 0
1, 459408, Note_on_c, 1, 55, 0
1, 459408, Note_on_c, 1, 61, 0
1, 459456, Note_on_c, 1, 52, 66
1, 459456, Note_on_c, 1, 55, 66
1, 459456, Note_on_c, 1, 61, 66
1, 459600, Note_on_c, 1, 52, 0
1, 459600, Note_on_c, 1, 55, 0
1, 459600, Note_on_c, 1, 61, 0
1, 459648, Note_on_c, 1, 55, 66
1, 459648, Note_on_c, 1, 52, 66
1, 459648, Note_on_c, 1, 61, 66
1, 459792, Note_on_c, 1, 55, 0
1, 459792, Note_on_c, 1, 52, 0
1, 459792, Note_on_c, 1, 61, 0
1, 459840, Note_on_c, 1, 52, 66
1, 459840, Note_on_c, 1, 55, 66
1, 459840, Note_on_c, 1, 61, 66
1, 459984, Note_on_c, 1, 52, 0
1, 459984, Note_on_c, 1, 55, 0
1, 459984, Note_on_c, 1, 61, 0
1, 460028, Note_on_c, 0, 82, 0
1, 460028, Note_on_c, 0, 70, 0
1, 460032, Note_on_c, 0, 82, 72
1, 460032, Note_on_c, 0, 70, 72
1, 460032, Note_on_c, 1, 52, 66
1, 460032, Note_on_c, 1, 55, 66
1, 460032, Note_on_c, 1, 61, 66
1, 460176, Note_on_c, 1, 52, 0
1, 460176, Note_on_c, 1, 55, 0
1, 460176, Note_on_c, 1, 61, 0
1, 460224, Note_on_c, 1, 61, 66
1, 460224, Note_on_c, 1, 55, 66
1, 460224, Note_on_c, 1, 52, 66
1, 460368, Note_on_c, 1, 61, 0
1, 460368, Note_on_c, 1, 55, 0
1, 460368, Note_on_c, 1, 52, 0
1, 460412, Note_on_c, 0, 82, 0
1, 460412, Note_on_c, 0, 70, 0
1, 460416, Note_on_c, 0, 82, 72
1, 460416, Note_on_c, 0, 70, 72
1, 460416, Note_on_c, 1, 55, 66
1, 460416, Note_on_c, 1, 61, 66
1, 460416, Note_on_c, 1, 52, 66
1, 460560, Note_on_c, 1, 55, 0
1, 460560, Note_on_c, 1, 61, 0
1, 460560, Note_on_c, 1, 52, 0
1, 460608, Note_on_c, 1, 52, 66
1, 460608, Note_on_c, 1, 55, 66
1, 460608, Note_on_c, 1, 61, 66
1, 460752, Note_on_c, 1, 52, 0
1, 460752, Note_on_c, 1, 55, 0
1, 460752, Note_on_c, 1, 61, 0
1, 460796, Note_on_c, 0, 82, 0
1, 460796, Note_on_c, 0, 70, 0
1, 460800, Note_on_c, 0, 81, 72
1, 460800, Note_on_c, 0, 69, 72
1, 460800, Note_on_c, 1, 62, 65
1, 460800, Note_on_c, 1, 57, 65
1, 460800, Note_on_c, 1, 53, 65
1, 460944, Note_on_c, 0, 81, 0
1, 460944, Note_on_c, 0, 69, 0
1, 460992, Note_on_c, 0, 79, 72
1, 461136, Note_on_c, 0, 79, 0
1, 461180, Note_on_c, 1, 62, 0
1, 461180, Note_on_c, 1, 57, 0
1, 461180, Note_on_c, 1, 53, 0
1, 461184, Note_on_c, 0, 77, 72
1, 461228, Note_on_c, 0, 77, 0
1, 461232, Note_on_c, 0, 79, 72
1, 461276, Note_on_c, 0, 79, 0
1, 461280, Note_on_c, 0, 77, 72
1, 461324, Note_on_c, 0, 77, 0
1, 461328, Note_on_c, 0, 79, 72
1, 461372, Note_on_c, 0, 79, 0
1, 461376, Note_on_c, 0, 76, 72
1, 461520, Note_on_c, 0, 76, 0
1, 461568, Note_on_c, 0, 74, 72
1, 461612, Note_on_c, 0, 74, 0
1, 461616, Note_on_c, 0, 76, 72
1, 461660, Note_on_c, 0, 76, 0
1, 461664, Note_on_c, 0, 74, 72
1, 461708, Note_on_c, 0, 74, 0
1, 461712, Note_on_c, 0, 76, 72
1, 461756, Note_on_c, 0, 76, 0
1, 461760, Note_on_c, 0, 72, 72
1, 461904, Note_on_c, 0, 72, 0
1, 461952, Note_on_c, 0, 71, 66
1, 461996, Note_on_c, 0, 71, 0
1, 462000, Note_on_c, 0, 72, 66
1, 462044, Note_on_c, 0, 72, 0
1, 462048, Note_on_c, 0, 71, 66
1, 462092, Note_on_c, 0, 71, 0
1, 462096, Note_on_c, 0, 72, 66
1, 462140, Note_on_c, 0, 72, 0
1, 462144, Note_on_c, 0, 69, 66
1, 462288, Note_on_c, 0, 69, 0
1, 462336, Note_on_c, 0, 67, 66
1, 462336, Note_on_c, 1, 55, 61
1, 462428, Note_on_c, 1, 55, 0
1, 462432, Note_on_c, 1, 64, 61
1, 462480, Note_on_c, 0, 67, 0
1, 462524, Note_on_c, 1, 64, 0
1, 462528, Note_on_c, 0, 69, 66
1, 462528, Note_on_c, 1, 60, 61
1, 462620, Note_on_c, 0, 69, 0
1, 462620, Note_on_c, 1, 60, 0
1, 462624, Note_on_c, 0, 71, 66
1, 462624, Note_on_c, 1, 64, 61
1, 462716, Note_on_c, 0, 71, 0
1, 462716, Note_on_c, 1, 64, 0
1, 462720, Note_on_c, 0, 72, 66
1, 462720, Note_on_c, 1, 55, 61
1, 462812, Note_on_c, 0, 72, 0
1, 462812, Note_on_c, 1, 55, 0
1, 462816, Note_on_c, 0, 74, 66
1, 462816, Note_on_c, 1, 64, 61
1, 462908, Note_on_c, 0, 74, 0
1, 462908, Note_on_c, 1, 64, 0
1, 462912, Note_on_c, 0, 76, 66
1, 462912, Note_on_c, 1, 60, 61
1, 463004, Note_on_c, 0, 76, 0
1, 463004, Note_on_c, 1, 60, 0
1, 463008, Note_on_c, 0, 77, 66
1, 463008, Note_on_c, 1, 64, 61
1, 463100, Note_on_c, 0, 77, 0
1, 463100, Note_on_c, 1, 64, 0
1, 463104, Note_on_c, 0, 78, 66
1, 463104, Note_on_c, 1, 55, 61
1, 463196, Note_on_c, 0, 78, 0
1, 463196, Note_on_c, 1, 55, 0
1, 463200, Note_on_c, 0, 79, 66
1, 463200, Note_on_c, 1, 64, 61
1, 463292, Note_on_c, 0, 79, 0
1, 463292, Note_on_c, 1, 64, 0
1, 463296, Note_on_c, 0, 81, 66
1, 463296, Note_on_c, 1, 60, 61
1, 463388, Note_on_c, 0, 81, 0
1, 463388, Note_on_c, 1, 60, 0
1, 463392, Note_on_c, 0, 79, 66
1, 463392, Note_on_c, 1, 64, 61
1, 463484, Note_on_c, 0, 79, 0
1, 463484, Note_on_c, 1, 64, 0
1, 463488, Note_on_c, 0, 78, 66
1, 463488, Note_on_c, 1, 55, 61
1, 463532, Note_on_c, 0, 78, 0
1, 463536, Note_on_c, 0, 76, 66
1, 463580, Note_on_c, 1, 55, 0
1, 463584, Note_on_c, 1, 64, 61
1, 463676, Note_on_c, 0, 76, 0
1, 463676, Note_on_c, 1, 64, 0
1, 463680, Note_on_c, 0, 74, 66
1, 463680, Note_on_c, 1, 60, 61
1, 463772, Note_on_c, 0, 74, 0
1, 463772, Note_on_c, 1, 60, 0
1, 463776, Note_on_c, 0, 72, 66
1, 463776, Note_on_c, 1, 64, 61
1, 463868, Note_on_c, 0, 72, 0
1, 463868, Note_on_c, 1, 64, 0
1, 463872, Note_on_c, 0, 74, 66
1, 463872, Note_on_c, 1, 55, 61
1, 463916, Note_on_c, 0, 74, 0
1, 463920, Note_on_c, 0, 76, 66
1, 463964, Note_on_c, 0, 76, 0
1, 463964, Note_on_c, 1, 55, 0
1, 463968, Note_on_c, 0, 74, 66
1, 463968, Note_on_c, 1, 65, 61
1, 464012, Note_on_c, 0, 74, 0
1, 464016, Note_on_c, 0, 76, 66
1, 464060, Note_on_c, 0, 76, 0
1, 464060, Note_on_c, 1, 65, 0
1, 464064, Note_on_c, 0, 74, 66
1, 464064, Note_on_c, 1, 59, 61
1, 464108, Note_on_c, 0, 74, 0
1, 464112, Note_on_c, 0, 76, 66
1, 464128, Note_on_c, 1, 65, 61
1, 464156, Note_on_c, 0, 76, 0
1, 464156, Note_on_c, 1, 59, 0
1, 464160, Note_on_c, 0, 74, 66
1, 464204, Note_on_c, 0, 74, 0
1, 464208, Note_on_c, 0, 76, 66
1, 464220, Note_on_c, 1, 65, 0
1, 464252, Note_on_c, 0, 76, 0
1, 464256, Note_on_c, 0, 74, 66
1, 464256, Note_on_c, 1, 55, 61
1, 464300, Note_on_c, 0, 74, 0
1, 464304, Note_on_c, 0, 76, 66
1, 464348, Note_on_c, 0, 76, 0
1, 464348, Note_on_c, 1, 55, 0
1, 464352, Note_on_c, 0, 74, 66
1, 464352, Note_on_c, 1, 65, 61
1, 464396, Note_on_c, 0, 74, 0
1, 464400, Note_on_c, 0, 76, 66
1, 464444, Note_on_c, 0, 76, 0
1, 464444, Note_on_c, 1, 65, 0
1, 464448, Note_on_c, 0, 74, 66
1, 464448, Note_on_c, 1, 59, 61
1, 464492, Note_on_c, 0, 74, 0
1, 464496, Note_on_c, 0, 76, 66
1, 464540, Note_on_c, 0, 76, 0
1, 464540, Note_on_c, 1, 59, 0
1, 464544, Note_on_c, 0, 74, 66
1, 464544, Note_on_c, 1, 65, 61
1, 464588, Note_on_c, 0, 74, 0
1, 464592, Note_on_c, 0, 76, 66
1, 464636, Note_on_c, 0, 76, 0
1, 464636, Note_on_c, 1, 65, 0
1, 464640, Note_on_c, 0, 74, 66
1, 464640, Note_on_c, 1, 55, 61
1, 464684, Note_on_c, 0, 74, 0
1, 464688, Note_on_c, 0, 76, 66
1, 464704, Note_on_c, 1, 65, 61
1, 464732, Note_on_c, 0, 76, 0
1, 464732, Note_on_c, 1, 55, 0
1, 464736, Note_on_c, 0, 74, 66
1, 464780, Note_on_c, 0, 74, 0
1, 464784, Note_on_c, 0, 76, 66
1, 464796, Note_on_c, 1, 65, 0
1, 464828, Note_on_c, 0, 76, 0
1, 464832, Note_on_c, 0, 74, 66
1, 464832, Note_on_c, 1, 59, 61
1, 464876, Note_on_c, 0, 74, 0
1, 464880, Note_on_c, 0, 76, 66
1, 464924, Note_on_c, 0, 76, 0
1, 464924, Note_on_c, 1, 59, 0
1, 464928, Note_on_c, 0, 74, 66
1, 464928, Note_on_c, 1, 65, 61
1, 464972, Note_on_c, 0, 74, 0
1, 464976, Note_on_c, 0, 76, 66
1, 465020, Note_on_c, 0, 76, 0
1, 465020, Note_on_c, 1, 65, 0
1, 465024, Note_on_c, 0, 74, 66
1, 465024, Note_on_c, 1, 55, 61
1, 465068, Note_on_c, 0, 74, 0
1, 465072, Note_on_c, 0, 76, 66
1, 465116, Note_on_c, 0, 76, 0
1, 465116, Note_on_c, 1, 55, 0
1, 465120, Note_on_c, 0, 74, 66
1, 465120, Note_on_c, 1, 65, 61
1, 465164, Note_on_c, 0, 74, 0
1, 465168, Note_on_c, 0, 76, 66
1, 465212, Note_on_c, 0, 76, 0
1, 465212, Note_on_c, 1, 65, 0
1, 465216, Note_on_c, 0, 72, 66
1, 465216, Note_on_c, 1, 59, 61
1, 465308, Note_on_c, 0, 72, 0
1, 465308, Note_on_c, 1, 59, 0
1, 465312, Note_on_c, 0, 74, 66
1, 465312, Note_on_c, 1, 65, 61
1, 465404, Note_on_c, 0, 74, 0
1, 465404, Note_on_c, 1, 65, 0
1, 465408, Note_on_c, 0, 72, 51
1, 465408, Note_on_c, 1, 64, 61
1, 465408, Note_on_c, 1, 60, 61
1, 465788, Note_on_c, 0, 72, 0
1, 465788, Note_on_c, 1, 64, 0
1, 465788, Note_on_c, 1, 60, 0
1, 465792, Note_on_c, 0, 72, 51
1, 465984, Note_on_c, 0, 76, 51
1, 466128, Note_on_c, 0, 76, 0
1, 466172, Note_on_c, 0, 72, 0
1, 466176, Note_on_c, 0, 79, 51
1, 466176, Note_on_c, 0, 74, 51
1, 466320, Note_on_c, 0, 79, 0
1, 466368, Note_on_c, 0, 77, 51
1, 466512, Note_on_c, 0, 77, 0
1, 466556, Note_on_c, 0, 74, 0
1, 466560, Note_on_c, 0, 71, 51
1, 466752, Note_on_c, 0, 74, 51
1, 466896, Note_on_c, 0, 74, 0
1, 466940, Note_on_c, 0, 71, 0
1, 466944, Note_on_c, 0, 77, 51
1, 466944, Note_on_c, 0, 72, 51
1, 467088, Note_on_c, 0, 77, 0
1, 467136, Note_on_c, 0, 76, 51
1, 467280, Note_on_c, 0, 76, 0
1, 467324, Note_on_c, 0, 72, 0
1, 467328, Note_on_c, 0, 69, 51
1, 467520, Note_on_c, 0, 72, 51
1, 467664, Note_on_c, 0, 72, 0
1, 467708, Note_on_c, 0, 69, 0
1, 467712, Note_on_c, 0, 76, 51
1, 467712, Note_on_c, 0, 65, 51
1, 467856, Note_on_c, 0, 76, 0
1, 467904, Note_on_c, 0, 74, 51
1, 468048, Note_on_c, 0, 74, 0
1, 468092, Note_on_c, 0, 65, 0
1, 468096, Note_on_c, 0, 67, 51
1, 468288, Note_on_c, 0, 71, 51
1, 468432, Note_on_c, 0, 71, 0
1, 468476, Note_on_c, 0, 67, 0
1, 468480, Note_on_c, 0, 74, 51
1, 468480, Note_on_c, 0, 64, 51
1, 468624, Note_on_c, 0, 74, 0
1, 468672, Note_on_c, 0, 72, 51
1, 468816, Note_on_c, 0, 72, 0
1, 468860, Note_on_c, 0, 64, 0
1, 468864, Note_on_c, 0, 76, 72
1, 468864, Note_on_c, 1, 60, 72
1, 468864, Note_on_c, 1, 48, 72
1, 468956, Note_on_c, 0, 76, 0
1, 468960, Note_on_c, 0, 77, 72
1, 469052, Note_on_c, 0, 77, 0
1, 469056, Note_on_c, 0, 79, 72
1, 469148, Note_on_c, 0, 79, 0
1, 469152, Note_on_c, 0, 76, 72
1, 469244, Note_on_c, 0, 76, 0
1, 469244, Note_on_c, 1, 60, 0
1, 469244, Note_on_c, 1, 48, 0
1, 469248, Note_on_c, 0, 77, 72
1, 469248, Note_on_c, 1, 62, 72
1, 469248, Note_on_c, 1, 50, 72
1, 469340, Note_on_c, 0, 77, 0
1, 469344, Note_on_c, 0, 79, 72
1, 469436, Note_on_c, 0, 79, 0
1, 469440, Note_on_c, 0, 81, 72
1, 469532, Note_on_c, 0, 81, 0
1, 469536, Note_on_c, 0, 77, 72
1, 469628, Note_on_c, 0, 77, 0
1, 469628, Note_on_c, 1, 62, 0
1, 469628, Note_on_c, 1, 50, 0
1, 469632, Note_on_c, 0, 74, 72
1, 469632, Note_on_c, 1, 59, 72
1, 469632, Note_on_c, 1, 47, 72
1, 469724, Note_on_c, 0, 74, 0
1, 469728, Note_on_c, 0, 76, 72
1, 469820, Note_on_c, 0, 76, 0
1, 469824, Note_on_c, 0, 77, 72
1, 469916, Note_on_c, 0, 77, 0
1, 469920, Note_on_c, 0, 74, 72
1, 470012, Note_on_c, 0, 74, 0
1, 470012, Note_on_c, 1, 59, 0
1, 470012, Note_on_c, 1, 47, 0
1, 470016, Note_on_c, 0, 76, 72
1, 470016, Note_on_c, 1, 60, 72
1, 470016, Note_on_c, 1, 48, 72
1, 470108, Note_on_c, 0, 76, 0
1, 470112, Note_on_c, 0, 77, 72
1, 470204, Note_on_c, 0, 77, 0
1, 470208, Note_on_c, 0, 79, 72
1, 470300, Note_on_c, 0, 79, 0
1, 470304, Note_on_c, 0, 76, 72
1, 470396, Note_on_c, 0, 76, 0
1, 470396, Note_on_c, 1, 60, 0
1, 470396, Note_on_c, 1, 48, 0
1, 470400, Note_on_c, 0, 72, 72
1, 470400, Note_on_c, 1, 57, 72
1, 470400, Note_on_c, 1, 45, 72
1, 470492, Note_on_c, 0, 72, 0
1, 470496, Note_on_c, 0, 74, 72
1, 470588, Note_on_c, 0, 74, 0
1, 470592, Note_on_c, 0, 76, 72
1, 470684, Note_on_c, 0, 76, 0
1, 470688, Note_on_c, 0, 72, 72
1, 470780, Note_on_c, 0, 72, 0
1, 470780, Note_on_c, 1, 57, 0
1, 470780, Note_on_c, 1, 45, 0
1, 470784, Note_on_c, 0, 74, 72
1, 470784, Note_on_c, 1, 53, 72
1, 470784, Note_on_c, 1, 41, 72
1, 470876, Note_on_c, 0, 74, 0
1, 470880, Note_on_c, 0, 76, 72
1, 470972, Note_on_c, 0, 76, 0
1, 470976, Note_on_c, 0, 77, 72
1, 471068, Note_on_c, 0, 77, 0
1, 471072, Note_on_c, 0, 74, 72
1, 471164, Note_on_c, 0, 74, 0
1, 471164, Note_on_c, 1, 53, 0
1, 471164, Note_on_c, 1, 41, 0
1, 471168, Note_on_c, 0, 71, 72
1, 471168, Note_on_c, 1, 55, 72
1, 471168, Note_on_c, 1, 43, 72
1, 471260, Note_on_c, 0, 71, 0
1, 471264, Note_on_c, 0, 72, 72
1, 471356, Note_on_c, 0, 72, 0
1, 471360, Note_on_c, 0, 74, 72
1, 471408, Note_on_c, 0, 71, 72
1, 471452, Note_on_c, 0, 74, 0
1, 471500, Note_on_c, 0, 71, 0
1, 471548, Note_on_c, 1, 55, 0
1, 471548, Note_on_c, 1, 43, 0
1, 471552, Note_on_c, 0, 60, 72
1, 471596, Note_on_c, 0, 60, 0
1, 471600, Note_on_c, 0, 64, 72
1, 471644, Note_on_c, 0, 64, 0
1, 471648, Note_on_c, 0, 67, 72
1, 471692, Note_on_c, 0, 67, 0
1, 471696, Note_on_c, 0, 72, 72
1, 471696, Note_on_c, 1, 48, 72
1, 471696, Note_on_c, 1, 36, 72
1, 472300, Note_on_c, 0, 72, 0
1, 472320, Note_on_c, 0, 67, 72
1, 472320, Note_on_c, 1, 43, 72
1, 472460, Note_on_c, 1, 48, 0
1, 472460, Note_on_c, 1, 36, 0
1, 473084, Note_on_c, 0, 67, 0
1, 473084, Note_on_c, 1, 43, 0
1, 473088, Note_on_c, 0, 76, 72
1, 473088, Note_on_c, 1, 52, 72
1, 473660, Note_on_c, 0, 76, 0
1, 473660, Note_on_c, 1, 52, 0
1, 473664, Note_on_c, 0, 77, 72
1, 473664, Note_on_c, 1, 53, 72
1, 473756, Note_on_c, 0, 77, 0
1, 473756, Note_on_c, 1, 53, 0
1, 473760, Note_on_c, 0, 74, 72
1, 473760, Note_on_c, 1, 50, 72
1, 473852, Note_on_c, 0, 74, 0
1, 473852, Note_on_c, 1, 50, 0
1, 473856, Note_on_c, 0, 72, 72
1, 473856, Note_on_c, 1, 48, 72
1, 474236, Note_on_c, 0, 72, 0
1, 474236, Note_on_c, 1, 48, 0
1, 474240, Note_on_c, 0, 74, 73
1, 474240, Note_on_c, 1, 55, 77
1, 474240, Note_on_c, 1, 43, 77
1, 474332, Note_on_c, 0, 74, 0
1, 474336, Note_on_c, 0, 77, 75
1, 474428, Note_on_c, 0, 77, 0
1, 474432, Note_on_c, 0, 79, 76
1, 474524, Note_on_c, 0, 79, 0
1, 474528, Note_on_c, 0, 83, 77
1, 474620, Note_on_c, 0, 83, 0
1, 474620, Note_on_c, 1, 55, 0
1, 474620, Note_on_c, 1, 43, 0
1, 474624, Note_on_c, 0, 72, 77
1, 474624, Note_on_c, 1, 60, 77
1, 474716, Note_on_c, 0, 72, 0
1, 474720, Note_on_c, 0, 76, 77
1, 474812, Note_on_c, 0, 76, 0
1, 474816, Note_on_c, 0, 79, 77
1, 474908, Note_on_c, 0, 79, 0
1, 474912, Note_on_c, 0, 83, 77
1, 475004, Note_on_c, 0, 83, 0
1, 475004, Note_on_c, 1, 60, 0
1, 475008, Note_on_c, 0, 74, 77
1, 475008, Note_on_c, 1, 55, 77
1, 475008, Note_on_c, 1, 43, 77
1, 475100, Note_on_c, 0, 74, 0
1, 475104, Note_on_c, 0, 77, 77
1, 475196, Note_on_c, 0, 77, 0
1, 475200, Note_on_c, 0, 79, 77
1, 475292, Note_on_c, 0, 79, 0
1, 475296, Note_on_c, 0, 83, 77
1, 475388, Note_on_c, 0, 83, 0
1, 475388, Note_on_c, 1, 55, 0
1, 475388, Note_on_c, 1, 43, 0
1, 475392, Note_on_c, 0, 72, 77
1, 475392, Note_on_c, 1, 60, 77
1, 475392, Note_on_c, 1, 48, 77
1, 475484, Note_on_c, 0, 72, 0
1, 475488, Note_on_c, 0, 76, 77
1, 475580, Note_on_c, 0, 76, 0
1, 475584, Note_on_c, 0, 79, 77
1, 475676, Note_on_c, 0, 79, 0
1, 475680, Note_on_c, 0, 84, 77
1, 475772, Note_on_c, 0, 84, 0
1, 475772, Note_on_c, 1, 60, 0
1, 475772, Note_on_c, 1, 48, 0
1, 475776, Note_on_c, 0, 74, 77
1, 475776, Note_on_c, 1, 55, 77
1, 475776, Note_on_c, 1, 43, 77
1, 475868, Note_on_c, 0, 74, 0
1, 475872, Note_on_c, 0, 77, 77
1, 475964, Note_on_c, 0, 77, 0
1, 475968, Note_on_c, 0, 79, 77
1, 476060, Note_on_c, 0, 79, 0
1, 476064, Note_on_c, 0, 83, 77
1, 476156, Note_on_c, 0, 83, 0
1, 476156, Note_on_c, 1, 55, 0
1, 476156, Note_on_c, 1, 43, 0
1, 476160, Note_on_c, 0, 84, 77
1, 476160, Note_on_c, 0, 76, 77
1, 476160, Note_on_c, 1, 60, 77
1, 476160, Note_on_c, 1, 48, 77
1, 476540, Note_on_c, 0, 84, 0
1, 476540, Note_on_c, 0, 76, 0
1, 476540, Note_on_c, 1, 60, 0
1, 476540, Note_on_c, 1, 48, 0
1, 476544, Note_on_c, 0, 64, 77
1, 476544, Note_on_c, 0, 67, 77
1, 476544, Note_on_c, 0, 72, 77
1, 476544, Note_on_c, 1, 48, 77
1, 476544, Note_on_c, 1, 36, 77
1, 476924, Note_on_c, 0, 64, 0
1, 476924, Note_on_c, 0, 67, 0
1, 476924, Note_on_c, 0, 72, 0
1, 476924, Note_on_c, 1, 48, 0
1, 476924, Note_on_c, 1, 36, 0
1, 476928, Note_on_c, 0, 72, 77
1, 476928, Note_on_c, 0, 67, 77
1, 476928, Note_on_c, 0, 64, 77
1, 476928, Note_on_c, 1, 48, 77
1, 476928, Note_on_c, 1, 36, 77
1, 477308, Note_on_c, 0, 72, 0
1, 477308, Note_on_c, 0, 67, 0
1, 477308, Note_on_c, 0, 64, 0
1, 477308, Note_on_c, 1, 48, 0
1, 477308, Note_on_c, 1, 36, 0
1, 477318, End_track
0, 0, End_of_file