0, 0, Header, 0, 1, 384
1, 0, Start_track
1, 0, Tempo, 1200000
1, 1152, Note_on_c, 0, 69, 50
1, 1248, Note_on_c, 0, 69, 0
1, 1296, Note_on_c, 0, 65, 50
1, 1328, Note_on_c, 0, 65, 0
1, 1344, Note_on_c, 0, 70, 50
1, 1440, Note_on_c, 0, 70, 0
1, 1488, Note_on_c, 0, 67, 50
1, 1520, Note_on_c, 0, 67, 0
1, 1536, Note_on_c, 0, 72, 75
1, 1536, Note_on_c, 1, 53, 75
1, 1536, Note_on_c, 1, 57, 75
1, 1728, Note_on_c, 0, 72, 0
1, 1728, Note_on_c, 1, 57, 0
1, 1792, Note_on_c, 1, 53, 0
1, 1824, Note_on_c, 0, 69, 50
1, 1824, Note_on_c, 1, 60, 50
1, 1888, Note_on_c, 0, 69, 0
1, 1888, Note_on_c, 1, 60, 0
1, 1920, Note_on_c, 0, 65, 50
1, 1920, Note_on_c, 1, 53, 50
1, 1920, Note_on_c, 1, 57, 50
1, 2048, Note_on_c, 0, 65, 0
1, 2048, Note_on_c, 1, 53, 0
1, 2048, Note_on_c, 1, 57, 0
1, 2304, Note_on_c, 0, 74, 50
1, 2400, Note_on_c, 0, 74, 0
1, 2448, Note_on_c, 0, 70, 50
1, 2480, Note_on_c, 0, 70, 0
1, 2496, Note_on_c, 0, 76, 50
1, 2592, Note_on_c, 0, 76, 0
1, 2640, Note_on_c, 0, 72, 50
1, 2672, Note_on_c, 0, 72, 0
1, 2688, Note_on_c, 0, 77, 75
1, 2688, Note_on_c, 1, 57, 75
1, 2688, Note_on_c, 1, 60, 75
1, 2880, Note_on_c, 0, 77, 0
1, 2880, Note_on_c, 1, 60, 0
1, 2944, Note_on_c, 1, 57, 0
1, 2976, Note_on_c, 0, 72, 50
1, 2976, Note_on_c, 1, 65, 50
1, 3040, Note_on_c, 0, 72, 0
1, 3040, Note_on_c, 1, 65, 0
1, 3072, Note_on_c, 0, 69, 50
1, 3072, Note_on_c, 1, 57, 50
1, 3072, Note_on_c, 1, 60, 50
1, 3200, Note_on_c, 0, 69, 0
1, 3200, Note_on_c, 1, 57, 0
1, 3200, Note_on_c, 1, 60, 0
1, 3456, Note_on_c, 0, 77, 75
1, 3552, Note_on_c, 0, 77, 0
1, 3600, Note_on_c, 0, 72, 75
1, 3632, Note_on_c, 0, 72, 0
1, 3648, Note_on_c, 0, 79, 75
1, 3744, Note_on_c, 0, 79, 0
1, 3792, Note_on_c, 0, 76, 75
1, 3824, Note_on_c, 0, 76, 0
1, 3840, Note_on_c, 0, 81, 75
1, 3936, Note_on_c, 0, 81, 0
1, 3984, Note_on_c, 0, 79, 75
1, 4016, Note_on_c, 0, 79, 0
1, 4032, Note_on_c, 0, 77, 75
1, 4128, Note_on_c, 0, 77, 0
1, 4176, Note_on_c, 0, 76, 75
1, 4208, Note_on_c, 0, 76, 0
1, 4224, Note_on_c, 0, 77, 75
1, 4320, Note_on_c, 0, 77, 0
1, 4368, Note_on_c, 0, 72, 75
1, 4400, Note_on_c, 0, 72, 0
1, 4416, Note_on_c, 1, 57, 75
1, 4416, Note_on_c, 1, 53, 75
1, 4432, Note_on_c, 0, 74, 75
1, 4528, Note_on_c, 0, 74, 0
1, 4544, Note_on_c, 1, 57, 0
1, 4544, Note_on_c, 1, 53, 0
1, 4560, Note_on_c, 0, 69, 75
1, 4592, Note_on_c, 0, 69, 0
1, 4608, Note_on_c, 0, 62, 75
1, 4608, Note_on_c, 0, 72, 75
1, 4608, Note_on_c, 1, 55, 75
1, 4736, Note_on_c, 0, 62, 0
1, 4736, Note_on_c, 0, 72, 0
1, 4736, Note_on_c, 1, 55, 0
1, 4800, Note_on_c, 0, 64, 75
1, 4800, Note_on_c, 0, 70, 75
1, 4800, Note_on_c, 1, 48, 75
1, 4820, Note_on_c, 0, 70, 0
1, 4824, Note_on_c, 0, 72, 75
1, 4844, Note_on_c, 0, 72, 0
1, 4848, Note_on_c, 0, 70, 75
1, 4868, Note_on_c, 0, 70, 0
1, 4872, Note_on_c, 0, 72, 75
1, 4892, Note_on_c, 0, 72, 0
1, 4896, Note_on_c, 0, 70, 75
1, 4916, Note_on_c, 0, 70, 0
1, 4920, Note_on_c, 0, 72, 75
1, 4928, Note_on_c, 0, 64, 0
1, 4928, Note_on_c, 1, 48, 0
1, 4940, Note_on_c, 0, 72, 0
1, 4944, Note_on_c, 0, 69, 75
1, 4964, Note_on_c, 0, 69, 0
1, 4968, Note_on_c, 0, 70, 75
1, 4988, Note_on_c, 0, 70, 0
1, 4992, Note_on_c, 0, 69, 75
1, 4992, Note_on_c, 0, 65, 75
1, 4992, Note_on_c, 1, 53, 75
1, 5120, Note_on_c, 1, 53, 0
1, 5180, Note_on_c, 0, 69, 0
1, 5180, Note_on_c, 0, 65, 0
1, 5376, Note_on_c, 0, 69, 50
1, 5468, Note_on_c, 0, 69, 0
1, 5472, Note_on_c, 0, 70, 50
1, 5564, Note_on_c, 0, 70, 0
1, 5568, Note_on_c, 0, 71, 50
1, 5660, Note_on_c, 0, 71, 0
1, 5664, Note_on_c, 0, 72, 50
1, 5756, Note_on_c, 0, 72, 0
1, 5760, Note_on_c, 0, 65, 75
1, 5760, Note_on_c, 1, 57, 75
1, 5760, Note_on_c, 1, 48, 75
1, 5952, Note_on_c, 0, 65, 0
1, 6016, Note_on_c, 1, 57, 0
1, 6048, Note_on_c, 0, 67, 50
1, 6080, Note_on_c, 0, 67, 0
1, 6096, Note_on_c, 0, 65, 50
1, 6128, Note_on_c, 0, 65, 0
1, 6140, Note_on_c, 1, 48, 0
1, 6144, Note_on_c, 0, 64, 50
1, 6144, Note_on_c, 1, 55, 50
1, 6144, Note_on_c, 1, 48, 50
1, 6272, Note_on_c, 0, 64, 0
1, 6272, Note_on_c, 1, 55, 0
1, 6272, Note_on_c, 1, 48, 0
1, 6336, Note_on_c, 1, 58, 50
1, 6432, Note_on_c, 0, 76, 50
1, 6464, Note_on_c, 1, 58, 0
1, 6496, Note_on_c, 0, 76, 0
1, 6528, Note_on_c, 0, 79, 50
1, 6528, Note_on_c, 1, 57, 50
1, 6592, Note_on_c, 0, 79, 0
1, 6624, Note_on_c, 0, 77, 50
1, 6656, Note_on_c, 1, 57, 0
1, 6688, Note_on_c, 0, 77, 0
1, 6720, Note_on_c, 0, 76, 50
1, 6720, Note_on_c, 1, 57, 50
1, 6720, Note_on_c, 1, 53, 50
1, 6784, Note_on_c, 0, 76, 0
1, 6816, Note_on_c, 0, 74, 50
1, 6848, Note_on_c, 1, 57, 0
1, 6848, Note_on_c, 1, 53, 0
1, 6880, Note_on_c, 0, 74, 0
1, 6912, Note_on_c, 0, 72, 50
1, 6912, Note_on_c, 1, 62, 50
1, 6912, Note_on_c, 1, 55, 50
1, 7104, Note_on_c, 0, 72, 0
1, 7200, Note_on_c, 0, 74, 50
1, 7232, Note_on_c, 0, 74, 0
1, 7248, Note_on_c, 0, 72, 50
1, 7280, Note_on_c, 0, 72, 0
1, 7296, Note_on_c, 0, 71, 50
1, 7296, Note_on_c, 1, 62, 0
1, 7296, Note_on_c, 1, 55, 0
1, 7424, Note_on_c, 0, 71, 0
1, 7488, Note_on_c, 1, 61, 50
1, 7488, Note_on_c, 1, 53, 50
1, 7584, Note_on_c, 0, 70, 75
1, 7616, Note_on_c, 1, 61, 0
1, 7616, Note_on_c, 1, 53, 0
1, 7648, Note_on_c, 0, 70, 0
1, 7680, Note_on_c, 0, 82, 50
1, 7680, Note_on_c, 1, 60, 50
1, 7680, Note_on_c, 1, 52, 50
1, 7744, Note_on_c, 0, 82, 0
1, 7776, Note_on_c, 0, 79, 50
1, 7808, Note_on_c, 1, 52, 0
1, 7840, Note_on_c, 0, 79, 0
1, 7872, Note_on_c, 0, 77, 50
1, 7872, Note_on_c, 1, 58, 50
1, 7936, Note_on_c, 0, 77, 0
1, 7936, Note_on_c, 1, 60, 0
1, 7968, Note_on_c, 0, 76, 50
1, 8000, Note_on_c, 1, 58, 0
1, 8032, Note_on_c, 0, 76, 0
1, 8064, Note_on_c, 0, 77, 50
1, 8064, Note_on_c, 1, 60, 50
1, 8064, Note_on_c, 1, 57, 50
1, 8096, Note_on_c, 0, 77, 0
1, 8112, Note_on_c, 0, 79, 50
1, 8144, Note_on_c, 0, 79, 0
1, 8160, Note_on_c, 0, 77, 50
1, 8192, Note_on_c, 0, 77, 0
1, 8208, Note_on_c, 0, 79, 50
1, 8240, Note_on_c, 0, 79, 0
1, 8256, Note_on_c, 0, 81, 50
1, 8288, Note_on_c, 0, 81, 0
1, 8304, Note_on_c, 0, 82, 50
1, 8320, Note_on_c, 1, 60, 0
1, 8320, Note_on_c, 1, 57, 0
1, 8336, Note_on_c, 0, 82, 0
1, 8352, Note_on_c, 0, 81, 50
1, 8384, Note_on_c, 0, 81, 0
1, 8400, Note_on_c, 0, 82, 50
1, 8432, Note_on_c, 0, 82, 0
1, 8448, Note_on_c, 0, 84, 50
1, 8576, Note_on_c, 0, 84, 0
1, 8640, Note_on_c, 1, 45, 50
1, 8688, Note_on_c, 0, 72, 50
1, 8688, Note_on_c, 0, 65, 50
1, 8752, Note_on_c, 0, 72, 0
1, 8752, Note_on_c, 0, 65, 0
1, 8768, Note_on_c, 1, 45, 0
1, 8832, Note_on_c, 0, 76, 50
1, 8832, Note_on_c, 1, 46, 50
1, 8876, Note_on_c, 0, 76, 0
1, 8880, Note_on_c, 0, 74, 50
1, 8880, Note_on_c, 0, 65, 50
1, 8960, Note_on_c, 1, 46, 0
1, 9008, Note_on_c, 0, 74, 0
1, 9008, Note_on_c, 0, 65, 0
1, 9024, Note_on_c, 0, 72, 50
1, 9024, Note_on_c, 1, 50, 50
1, 9068, Note_on_c, 0, 72, 0
1, 9072, Note_on_c, 0, 70, 50
1, 9072, Note_on_c, 0, 65, 50
1, 9152, Note_on_c, 1, 50, 0
1, 9200, Note_on_c, 0, 70, 0
1, 9200, Note_on_c, 0, 65, 0
1, 9216, Note_on_c, 0, 69, 75
1, 9216, Note_on_c, 0, 65, 75
1, 9216, Note_on_c, 1, 48, 75
1, 9408, Note_on_c, 0, 69, 0
1, 9472, Note_on_c, 0, 65, 0
1, 9504, Note_on_c, 0, 70, 75
1, 9536, Note_on_c, 0, 70, 0
1, 9552, Note_on_c, 0, 69, 75
1, 9584, Note_on_c, 0, 69, 0
1, 9600, Note_on_c, 0, 67, 75
1, 9600, Note_on_c, 0, 64, 75
1, 9600, Note_on_c, 1, 48, 0
1, 9792, Note_on_c, 1, 46, 75
1, 9856, Note_on_c, 0, 67, 0
1, 9856, Note_on_c, 0, 64, 0
1, 9920, Note_on_c, 1, 46, 0
1, 9984, Note_on_c, 1, 45, 75
1, 10112, Note_on_c, 1, 45, 0
1, 10176, Note_on_c, 1, 43, 75
1, 10304, Note_on_c, 1, 43, 0
1, 10368, Note_on_c, 0, 69, 50
1, 10368, Note_on_c, 1, 41, 50
1, 10464, Note_on_c, 0, 69, 0
1, 10496, Note_on_c, 1, 41, 0
1, 10512, Note_on_c, 0, 65, 50
1, 10544, Note_on_c, 0, 65, 0
1, 10560, Note_on_c, 0, 70, 50
1, 10656, Note_on_c, 0, 70, 0
1, 10704, Note_on_c, 0, 67, 50
1, 10736, Note_on_c, 0, 67, 0
1, 10752, Note_on_c, 0, 72, 75
1, 10752, Note_on_c, 1, 57, 75
1, 10752, Note_on_c, 1, 53, 75
1, 10944, Note_on_c, 0, 72, 0
1, 10944, Note_on_c, 1, 57, 0
1, 11008, Note_on_c, 1, 53, 0
1, 11040, Note_on_c, 0, 69, 50
1, 11040, Note_on_c, 1, 60, 50
1, 11104, Note_on_c, 0, 69, 0
1, 11104, Note_on_c, 1, 60, 0
1, 11136, Note_on_c, 0, 65, 50
1, 11136, Note_on_c, 1, 53, 50
1, 11136, Note_on_c, 1, 57, 50
1, 11264, Note_on_c, 0, 65, 0
1, 11264, Note_on_c, 1, 53, 0
1, 11264, Note_on_c, 1, 57, 0
1, 11520, Note_on_c, 0, 74, 50
1, 11616, Note_on_c, 0, 74, 0
1, 11664, Note_on_c, 0, 70, 50
1, 11696, Note_on_c, 0, 70, 0
1, 11712, Note_on_c, 0, 76, 50
1, 11808, Note_on_c, 0, 76, 0
1, 11856, Note_on_c, 0, 72, 50
1, 11888, Note_on_c, 0, 72, 0
1, 11904, Note_on_c, 0, 77, 75
1, 11904, Note_on_c, 1, 57, 75
1, 11904, Note_on_c, 1, 60, 75
1, 12096, Note_on_c, 0, 77, 0
1, 12096, Note_on_c, 1, 60, 0
1, 12160, Note_on_c, 1, 57, 0
1, 12192, Note_on_c, 0, 72, 50
1, 12192, Note_on_c, 1, 65, 50
1, 12256, Note_on_c, 0, 72, 0
1, 12256, Note_on_c, 1, 65, 0
1, 12288, Note_on_c, 0, 69, 50
1, 12288, Note_on_c, 1, 60, 50
1, 12288, Note_on_c, 1, 57, 50
1, 12416, Note_on_c, 0, 69, 0
1, 12416, Note_on_c, 1, 60, 0
1, 12416, Note_on_c, 1, 57, 0
1, 12672, Note_on_c, 0, 84, 75
1, 12768, Note_on_c, 0, 84, 0
1, 12816, Note_on_c, 0, 81, 75
1, 12848, Note_on_c, 0, 81, 0
1, 12864, Note_on_c, 0, 82, 75
1, 12960, Note_on_c, 0, 82, 0
1, 13008, Note_on_c, 0, 79, 75
1, 13040, Note_on_c, 0, 79, 0
1, 13056, Note_on_c, 0, 81, 75
1, 13056, Note_on_c, 0, 72, 75
1, 13152, Note_on_c, 0, 81, 0
1, 13152, Note_on_c, 0, 72, 0
1, 13200, Note_on_c, 0, 77, 75
1, 13200, Note_on_c, 0, 69, 75
1, 13232, Note_on_c, 0, 77, 0
1, 13232, Note_on_c, 0, 69, 0
1, 13248, Note_on_c, 0, 79, 75
1, 13248, Note_on_c, 0, 70, 75
1, 13344, Note_on_c, 0, 79, 0
1, 13344, Note_on_c, 0, 70, 0
1, 13392, Note_on_c, 0, 76, 75
1, 13392, Note_on_c, 0, 67, 75
1, 13424, Note_on_c, 0, 76, 0
1, 13424, Note_on_c, 0, 67, 0
1, 13440, Note_on_c, 0, 77, 75
1, 13440, Note_on_c, 0, 69, 75
1, 13536, Note_on_c, 0, 77, 0
1, 13568, Note_on_c, 0, 69, 0
1, 13584, Note_on_c, 0, 72, 75
1, 13616, Note_on_c, 0, 72, 0
1, 13632, Note_on_c, 0, 74, 75
1, 13632, Note_on_c, 0, 66, 75
1, 13728, Note_on_c, 0, 74, 0
1, 13760, Note_on_c, 0, 66, 0
1, 13776, Note_on_c, 0, 69, 75
1, 13808, Note_on_c, 0, 69, 0
1, 13824, Note_on_c, 0, 72, 75
1, 13824, Note_on_c, 0, 67, 75
1, 13952, Note_on_c, 0, 72, 0
1, 13952, Note_on_c, 0, 67, 0
1, 14016, Note_on_c, 0, 70, 75
1, 14016, Note_on_c, 0, 64, 75
1, 14036, Note_on_c, 0, 70, 0
1, 14040, Note_on_c, 0, 72, 75
1, 14060, Note_on_c, 0, 72, 0
1, 14064, Note_on_c, 0, 70, 75
1, 14084, Note_on_c, 0, 70, 0
1, 14088, Note_on_c, 0, 72, 75
1, 14108, Note_on_c, 0, 72, 0
1, 14112, Note_on_c, 0, 70, 75
1, 14132, Note_on_c, 0, 70, 0
1, 14136, Note_on_c, 0, 72, 75
1, 14144, Note_on_c, 0, 64, 0
1, 14156, Note_on_c, 0, 72, 0
1, 14160, Note_on_c, 0, 69, 75
1, 14180, Note_on_c, 0, 69, 0
1, 14184, Note_on_c, 0, 70, 75
1, 14204, Note_on_c, 0, 70, 0
1, 14208, Note_on_c, 0, 69, 75
1, 14208, Note_on_c, 0, 65, 75
1, 14336, Note_on_c, 0, 69, 0
1, 14336, Note_on_c, 0, 65, 0
1, 14592, Note_on_c, 0, 69, 50
1, 14656, Note_on_c, 0, 69, 0
1, 14688, Note_on_c, 0, 70, 50
1, 14752, Note_on_c, 0, 70, 0
1, 14784, Note_on_c, 0, 71, 50
1, 14848, Note_on_c, 0, 71, 0
1, 14880, Note_on_c, 0, 72, 50
1, 14944, Note_on_c, 0, 72, 0
1, 14976, Note_on_c, 0, 65, 75
1, 14976, Note_on_c, 1, 57, 75
1, 14976, Note_on_c, 1, 48, 75
1, 15168, Note_on_c, 0, 65, 0
1, 15232, Note_on_c, 1, 57, 0
1, 15232, Note_on_c, 1, 48, 0
1, 15264, Note_on_c, 0, 67, 50
1, 15296, Note_on_c, 0, 67, 0
1, 15312, Note_on_c, 0, 65, 50
1, 15344, Note_on_c, 0, 65, 0
1, 15360, Note_on_c, 0, 64, 50
1, 15360, Note_on_c, 1, 55, 50
1, 15360, Note_on_c, 1, 48, 50
1, 15488, Note_on_c, 0, 64, 0
1, 15488, Note_on_c, 1, 55, 0
1, 15488, Note_on_c, 1, 48, 0
1, 15648, Note_on_c, 0, 76, 50
1, 15712, Note_on_c, 0, 76, 0
1, 15744, Note_on_c, 0, 79, 50
1, 15808, Note_on_c, 0, 79, 0
1, 15840, Note_on_c, 0, 77, 50
1, 15904, Note_on_c, 0, 77, 0
1, 15920, Note_on_c, 0, 76, 50
1, 15984, Note_on_c, 0, 76, 0
1, 16032, Note_on_c, 0, 74, 50
1, 16096, Note_on_c, 0, 74, 0
1, 16128, Note_on_c, 0, 72, 75
1, 16128, Note_on_c, 1, 62, 75
1, 16128, Note_on_c, 1, 55, 75
1, 16192, Note_on_c, 0, 72, 0
1, 16224, Note_on_c, 0, 71, 50
1, 16256, Note_on_c, 1, 62, 0
1, 16256, Note_on_c, 1, 55, 0
1, 16288, Note_on_c, 0, 71, 0
1, 16316, Note_on_c, 0, 70, 50
1, 16320, Note_on_c, 1, 60, 50
1, 16320, Note_on_c, 1, 52, 50
1, 16444, Note_on_c, 0, 70, 0
1, 16448, Note_on_c, 1, 60, 0
1, 16448, Note_on_c, 1, 52, 0
1, 16800, Note_on_c, 0, 67, 50
1, 16800, Note_on_c, 1, 40, 50
1, 16864, Note_on_c, 0, 67, 0
1, 16864, Note_on_c, 1, 40, 0
1, 16896, Note_on_c, 0, 60, 50
1, 16896, Note_on_c, 0, 69, 50
1, 16896, Note_on_c, 1, 41, 50
1, 16988, Note_on_c, 0, 69, 0
1, 16992, Note_on_c, 0, 70, 50
1, 17036, Note_on_c, 0, 70, 0
1, 17040, Note_on_c, 0, 69, 50
1, 17084, Note_on_c, 0, 69, 0
1, 17088, Note_on_c, 0, 67, 50
1, 17088, Note_on_c, 1, 41, 0
1, 17132, Note_on_c, 0, 67, 0
1, 17136, Note_on_c, 0, 69, 50
1, 17152, Note_on_c, 0, 60, 0
1, 17180, Note_on_c, 0, 69, 0
1, 17184, Note_on_c, 0, 70, 50
1, 17184, Note_on_c, 1, 43, 50
1, 17248, Note_on_c, 1, 43, 0
1, 17276, Note_on_c, 0, 70, 0
1, 17280, Note_on_c, 0, 65, 50
1, 17280, Note_on_c, 0, 72, 50
1, 17280, Note_on_c, 1, 45, 50
1, 17372, Note_on_c, 0, 72, 0
1, 17376, Note_on_c, 0, 74, 56
1, 17420, Note_on_c, 0, 74, 0
1, 17424, Note_on_c, 0, 72, 56
1, 17468, Note_on_c, 0, 72, 0
1, 17472, Note_on_c, 0, 70, 56
1, 17472, Note_on_c, 1, 45, 0
1, 17516, Note_on_c, 0, 70, 0
1, 17520, Note_on_c, 0, 72, 56
1, 17536, Note_on_c, 0, 65, 0
1, 17564, Note_on_c, 0, 72, 0
1, 17568, Note_on_c, 0, 74, 62
1, 17568, Note_on_c, 1, 46, 56
1, 17632, Note_on_c, 0, 74, 0
1, 17632, Note_on_c, 1, 46, 0
1, 17664, Note_on_c, 0, 65, 62
1, 17664, Note_on_c, 0, 57, 62
1, 17664, Note_on_c, 1, 48, 62
1, 17792, Note_on_c, 0, 65, 0
1, 17792, Note_on_c, 0, 57, 0
1, 17792, Note_on_c, 1, 48, 0
1, 18048, Note_on_c, 0, 67, 67
1, 18048, Note_on_c, 0, 58, 67
1, 18048, Note_on_c, 1, 36, 68
1, 18176, Note_on_c, 0, 67, 0
1, 18240, Note_on_c, 0, 65, 72
1, 18304, Note_on_c, 0, 58, 0
1, 18304, Note_on_c, 0, 65, 0
1, 18304, Note_on_c, 1, 36, 0
1, 18336, Note_on_c, 0, 67, 72
1, 18400, Note_on_c, 0, 67, 0
1, 18432, Note_on_c, 0, 58, 75
1, 18432, Note_on_c, 0, 67, 75
1, 18432, Note_on_c, 1, 41, 75
1, 18688, Note_on_c, 0, 58, 0
1, 18688, Note_on_c, 0, 67, 0
1, 18816, Note_on_c, 0, 65, 75
1, 18816, Note_on_c, 0, 57, 75
1, 18816, Note_on_c, 1, 41, 0
1, 18944, Note_on_c, 0, 65, 0
1, 18944, Note_on_c, 0, 57, 0
1, 19008, Note_on_c, 0, 60, 75
1, 19008, Note_on_c, 1, 48, 75
1, 19136, Note_on_c, 0, 60, 0
1, 19136, Note_on_c, 1, 48, 0
1, 19200, Note_on_c, 0, 57, 75
1, 19200, Note_on_c, 1, 45, 75
1, 19328, Note_on_c, 0, 57, 0
1, 19328, Note_on_c, 1, 45, 0
1, 19392, Note_on_c, 0, 60, 75
1, 19392, Note_on_c, 1, 48, 75
1, 19520, Note_on_c, 0, 60, 0
1, 19520, Note_on_c, 1, 48, 0
1, 19584, Note_on_c, 0, 65, 75
1, 19584, Note_on_c, 1, 41, 75
1, 19604, Note_on_c, 0, 65, 0
1, 19604, Note_on_c, 0, 69, 75
1, 19700, Note_on_c, 0, 69, 0
1, 19728, Note_on_c, 0, 65, 75
1, 19760, Note_on_c, 0, 65, 0
1, 19772, Note_on_c, 1, 41, 0
1, 19776, Note_on_c, 0, 67, 75
1, 19796, Note_on_c, 0, 67, 0
1, 19800, Note_on_c, 0, 70, 75
1, 19896, Note_on_c, 0, 70, 0
1, 19920, Note_on_c, 0, 67, 75
1, 19952, Note_on_c, 0, 67, 0
1, 19968, Note_on_c, 0, 69, 50
1, 19968, Note_on_c, 1, 53, 75
1, 19988, Note_on_c, 0, 69, 0
1, 19988, Note_on_c, 0, 72, 50
1, 19988, Note_on_c, 1, 53, 0
1, 19988, Note_on_c, 1, 53, 75
1, 19988, Note_on_c, 1, 57, 75
1, 20180, Note_on_c, 0, 72, 0
1, 20180, Note_on_c, 1, 57, 0
1, 20244, Note_on_c, 1, 53, 0
1, 20256, Note_on_c, 0, 69, 50
1, 20256, Note_on_c, 1, 60, 50
1, 20320, Note_on_c, 0, 69, 0
1, 20320, Note_on_c, 1, 60, 0
1, 20352, Note_on_c, 0, 65, 50
1, 20352, Note_on_c, 1, 57, 50
1, 20352, Note_on_c, 1, 53, 50
1, 20480, Note_on_c, 0, 65, 0
1, 20480, Note_on_c, 1, 57, 0
1, 20480, Note_on_c, 1, 53, 0
1, 20736, Note_on_c, 0, 70, 50
1, 20756, Note_on_c, 0, 70, 0
1, 20756, Note_on_c, 0, 74, 50
1, 20852, Note_on_c, 0, 74, 0
1, 20880, Note_on_c, 0, 70, 50
1, 20912, Note_on_c, 0, 70, 0
1, 20928, Note_on_c, 0, 72, 50
1, 20948, Note_on_c, 0, 72, 0
1, 20952, Note_on_c, 0, 76, 50
1, 21048, Note_on_c, 0, 76, 0
1, 21072, Note_on_c, 0, 72, 50
1, 21104, Note_on_c, 0, 72, 0
1, 21120, Note_on_c, 0, 72, 75
1, 21120, Note_on_c, 1, 57, 75
1, 21140, Note_on_c, 0, 72, 0
1, 21140, Note_on_c, 0, 77, 75
1, 21140, Note_on_c, 1, 57, 0
1, 21140, Note_on_c, 1, 57, 75
1, 21140, Note_on_c, 1, 60, 75
1, 21332, Note_on_c, 0, 77, 0
1, 21332, Note_on_c, 1, 60, 0
1, 21396, Note_on_c, 1, 57, 0
1, 21408, Note_on_c, 0, 72, 50
1, 21408, Note_on_c, 1, 65, 50
1, 21472, Note_on_c, 0, 72, 0
1, 21472, Note_on_c, 1, 65, 0
1, 21504, Note_on_c, 0, 69, 50
1, 21504, Note_on_c, 1, 57, 50
1, 21504, Note_on_c, 1, 60, 50
1, 21632, Note_on_c, 0, 69, 0
1, 21632, Note_on_c, 1, 57, 0
1, 21632, Note_on_c, 1, 60, 0
1, 21888, Note_on_c, 0, 72, 75
1, 21908, Note_on_c, 0, 72, 0
1, 21908, Note_on_c, 0, 77, 75
1, 22004, Note_on_c, 0, 77, 0
1, 22032, Note_on_c, 0, 72, 75
1, 22064, Note_on_c, 0, 72, 0
1, 22080, Note_on_c, 0, 76, 75
1, 22100, Note_on_c, 0, 76, 0
1, 22104, Note_on_c, 0, 79, 75
1, 22200, Note_on_c, 0, 79, 0
1, 22224, Note_on_c, 0, 76, 75
1, 22256, Note_on_c, 0, 76, 0
1, 22272, Note_on_c, 0, 77, 75
1, 22292, Note_on_c, 0, 77, 0
1, 22292, Note_on_c, 0, 81, 75
1, 22388, Note_on_c, 0, 81, 0
1, 22416, Note_on_c, 0, 79, 75
1, 22448, Note_on_c, 0, 79, 0
1, 22464, Note_on_c, 0, 79, 75
1, 22484, Note_on_c, 0, 79, 0
1, 22488, Note_on_c, 0, 77, 75
1, 22584, Note_on_c, 0, 77, 0
1, 22608, Note_on_c, 0, 76, 75
1, 22640, Note_on_c, 0, 76, 0
1, 22656, Note_on_c, 0, 76, 75
1, 22676, Note_on_c, 0, 76, 0
1, 22676, Note_on_c, 0, 74, 75
1, 22772, Note_on_c, 0, 74, 0
1, 22800, Note_on_c, 0, 72, 75
1, 22832, Note_on_c, 0, 72, 0
1, 22848, Note_on_c, 0, 72, 50
1, 22848, Note_on_c, 1, 53, 50
1, 22848, Note_on_c, 1, 60, 50
1, 22868, Note_on_c, 0, 72, 0
1, 22872, Note_on_c, 0, 70, 50
1, 22968, Note_on_c, 0, 70, 0
1, 22976, Note_on_c, 1, 53, 0
1, 22976, Note_on_c, 1, 60, 0
1, 22992, Note_on_c, 0, 69, 50
1, 23024, Note_on_c, 0, 69, 0
1, 23040, Note_on_c, 0, 72, 50
1, 23040, Note_on_c, 1, 55, 50
1, 23040, Note_on_c, 1, 60, 50
1, 23104, Note_on_c, 0, 72, 0
1, 23136, Note_on_c, 0, 71, 50
1, 23168, Note_on_c, 1, 55, 0
1, 23200, Note_on_c, 0, 71, 0
1, 23232, Note_on_c, 0, 72, 50
1, 23232, Note_on_c, 1, 52, 50
1, 23296, Note_on_c, 0, 72, 0
1, 23296, Note_on_c, 1, 60, 0
1, 23328, Note_on_c, 0, 70, 50
1, 23360, Note_on_c, 1, 52, 0
1, 23392, Note_on_c, 0, 70, 0
1, 23424, Note_on_c, 0, 69, 50
1, 23424, Note_on_c, 1, 60, 50
1, 23424, Note_on_c, 1, 53, 50
1, 23552, Note_on_c, 0, 69, 0
1, 23552, Note_on_c, 1, 53, 0
1, 23680, Note_on_c, 1, 60, 0
1, 23808, Note_on_c, 0, 69, 75
1, 23840, Note_on_c, 0, 69, 0
1, 23856, Note_on_c, 0, 70, 75
1, 23888, Note_on_c, 0, 70, 0
1, 23904, Note_on_c, 0, 69, 75
1, 23936, Note_on_c, 0, 69, 0
1, 23952, Note_on_c, 0, 70, 75
1, 23984, Note_on_c, 0, 70, 0
1, 24000, Note_on_c, 0, 71, 75
1, 24032, Note_on_c, 0, 71, 0
1, 24048, Note_on_c, 0, 72, 75
1, 24080, Note_on_c, 0, 72, 0
1, 24096, Note_on_c, 0, 71, 75
1, 24128, Note_on_c, 0, 71, 0
1, 24144, Note_on_c, 0, 72, 75
1, 24176, Note_on_c, 0, 72, 0
1, 24192, Note_on_c, 0, 65, 75
1, 24192, Note_on_c, 1, 57, 75
1, 24192, Note_on_c, 1, 53, 75
1, 24192, Note_on_c, 1, 48, 75
1, 24384, Note_on_c, 0, 65, 0
1, 24448, Note_on_c, 1, 57, 0
1, 24448, Note_on_c, 1, 53, 0
1, 24448, Note_on_c, 1, 48, 0
1, 24464, Note_on_c, 0, 67, 50
1, 24496, Note_on_c, 0, 67, 0
1, 24528, Note_on_c, 0, 65, 50
1, 24560, Note_on_c, 0, 65, 0
1, 24576, Note_on_c, 0, 64, 50
1, 24576, Note_on_c, 1, 58, 50
1, 24576, Note_on_c, 1, 55, 50
1, 24576, Note_on_c, 1, 48, 50
1, 24704, Note_on_c, 0, 64, 0
1, 24704, Note_on_c, 1, 58, 0
1, 24704, Note_on_c, 1, 55, 0
1, 24704, Note_on_c, 1, 48, 0
1, 24768, Note_on_c, 1, 60, 50
1, 24768, Note_on_c, 1, 58, 50
1, 24864, Note_on_c, 0, 76, 50
1, 24896, Note_on_c, 1, 58, 0
1, 24928, Note_on_c, 0, 76, 0
1, 24960, Note_on_c, 0, 79, 50
1, 24960, Note_on_c, 1, 57, 50
1, 24992, Note_on_c, 0, 79, 0
1, 25008, Note_on_c, 0, 77, 50
1, 25024, Note_on_c, 1, 60, 0
1, 25040, Note_on_c, 0, 77, 0
1, 25056, Note_on_c, 0, 76, 50
1, 25088, Note_on_c, 0, 76, 0
1, 25088, Note_on_c, 1, 57, 0
1, 25104, Note_on_c, 0, 77, 50
1, 25136, Note_on_c, 0, 77, 0
1, 25152, Note_on_c, 0, 79, 50
1, 25152, Note_on_c, 1, 57, 50
1, 25152, Note_on_c, 1, 53, 50
1, 25184, Note_on_c, 0, 79, 0
1, 25200, Note_on_c, 0, 77, 50
1, 25232, Note_on_c, 0, 77, 0
1, 25248, Note_on_c, 0, 76, 50
1, 25280, Note_on_c, 0, 76, 0
1, 25280, Note_on_c, 1, 57, 0
1, 25280, Note_on_c, 1, 53, 0
1, 25296, Note_on_c, 0, 74, 50
1, 25328, Note_on_c, 0, 74, 0
1, 25344, Note_on_c, 0, 72, 75
1, 25344, Note_on_c, 1, 62, 75
1, 25344, Note_on_c, 1, 55, 75
1, 25632, Note_on_c, 0, 74, 50
1, 25664, Note_on_c, 0, 74, 0
1, 25680, Note_on_c, 0, 72, 50
1, 25712, Note_on_c, 0, 72, 0
1, 25728, Note_on_c, 0, 72, 0
1, 25728, Note_on_c, 0, 71, 50
1, 25728, Note_on_c, 1, 62, 0
1, 25728, Note_on_c, 1, 55, 0
1, 25856, Note_on_c, 0, 71, 0
1, 25920, Note_on_c, 1, 61, 50
1, 25920, Note_on_c, 1, 53, 50
1, 26016, Note_on_c, 0, 70, 75
1, 26048, Note_on_c, 1, 61, 0
1, 26048, Note_on_c, 1, 53, 0
1, 26080, Note_on_c, 0, 70, 0
1, 26112, Note_on_c, 0, 82, 75
1, 26112, Note_on_c, 1, 60, 75
1, 26112, Note_on_c, 1, 52, 75
1, 26144, Note_on_c, 0, 82, 0
1, 26160, Note_on_c, 0, 81, 75
1, 26192, Note_on_c, 0, 81, 0
1, 26208, Note_on_c, 0, 82, 75
1, 26240, Note_on_c, 0, 82, 0
1, 26240, Note_on_c, 1, 60, 0
1, 26240, Note_on_c, 1, 52, 0
1, 26256, Note_on_c, 0, 81, 75
1, 26288, Note_on_c, 0, 81, 0
1, 26304, Note_on_c, 0, 82, 75
1, 26304, Note_on_c, 1, 60, 75
1, 26304, Note_on_c, 1, 58, 75
1, 26336, Note_on_c, 0, 82, 0
1, 26352, Note_on_c, 0, 79, 75
1, 26384, Note_on_c, 0, 79, 0
1, 26400, Note_on_c, 0, 77, 75
1, 26432, Note_on_c, 0, 77, 0
1, 26432, Note_on_c, 1, 60, 0
1, 26432, Note_on_c, 1, 58, 0
1, 26448, Note_on_c, 0, 76, 75
1, 26480, Note_on_c, 0, 76, 0
1, 26496, Note_on_c, 0, 77, 75
1, 26496, Note_on_c, 1, 57, 75
1, 26496, Note_on_c, 1, 60, 75
1, 26540, Note_on_c, 0, 77, 0
1, 26544, Note_on_c, 0, 79, 75
1, 26564, Note_on_c, 0, 79, 0
1, 26568, Note_on_c, 0, 77, 75
1, 26588, Note_on_c, 0, 77, 0
1, 26592, Note_on_c, 0, 76, 75
1, 26612, Note_on_c, 0, 76, 0
1, 26616, Note_on_c, 0, 77, 75
1, 26636, Note_on_c, 0, 77, 0
1, 26640, Note_on_c, 0, 79, 75
1, 26684, Note_on_c, 0, 79, 0
1, 26688, Note_on_c, 0, 81, 75
1, 26732, Note_on_c, 0, 81, 0
1, 26736, Note_on_c, 0, 82, 75
1, 26752, Note_on_c, 1, 57, 0
1, 26752, Note_on_c, 1, 60, 0
1, 26756, Note_on_c, 0, 82, 0
1, 26756, Note_on_c, 0, 81, 75
1, 26776, Note_on_c, 0, 81, 0
1, 26784, Note_on_c, 0, 79, 75
1, 26804, Note_on_c, 0, 79, 0
1, 26808, Note_on_c, 0, 81, 75
1, 26828, Note_on_c, 0, 81, 0
1, 26832, Note_on_c, 0, 82, 75
1, 26876, Note_on_c, 0, 82, 0
1, 26880, Note_on_c, 0, 84, 50
1, 26944, Note_on_c, 0, 84, 0
1, 26976, Note_on_c, 0, 77, 50
1, 27040, Note_on_c, 0, 77, 0
1, 27072, Note_on_c, 0, 76, 50
1, 27072, Note_on_c, 1, 53, 50
1, 27072, Note_on_c, 1, 45, 50
1, 27136, Note_on_c, 0, 76, 0
1, 27168, Note_on_c, 0, 75, 50
1, 27200, Note_on_c, 1, 45, 0
1, 27232, Note_on_c, 0, 75, 0
1, 27264, Note_on_c, 0, 74, 50
1, 27264, Note_on_c, 1, 46, 50
1, 27328, Note_on_c, 0, 74, 0
1, 27328, Note_on_c, 1, 53, 0
1, 27360, Note_on_c, 0, 73, 50
1, 27392, Note_on_c, 1, 46, 0
1, 27424, Note_on_c, 0, 73, 0
1, 27456, Note_on_c, 0, 72, 50
1, 27456, Note_on_c, 1, 53, 50
1, 27520, Note_on_c, 0, 72, 0
1, 27552, Note_on_c, 0, 70, 50
1, 27584, Note_on_c, 1, 53, 0
1, 27616, Note_on_c, 0, 70, 0
1, 27648, Note_on_c, 0, 69, 50
1, 27648, Note_on_c, 1, 53, 50
1, 27648, Note_on_c, 1, 48, 50
1, 27840, Note_on_c, 0, 69, 0
1, 27904, Note_on_c, 1, 53, 0
1, 27904, Note_on_c, 1, 48, 0
1, 27936, Note_on_c, 0, 70, 50
1, 27968, Note_on_c, 0, 70, 0
1, 27984, Note_on_c, 0, 69, 50
1, 28016, Note_on_c, 0, 69, 0
1, 28032, Note_on_c, 0, 67, 50
1, 28032, Note_on_c, 1, 52, 50
1, 28032, Note_on_c, 1, 48, 50
1, 28160, Note_on_c, 1, 52, 0
1, 28160, Note_on_c, 1, 48, 0
1, 28224, Note_on_c, 1, 46, 75
1, 28256, Note_on_c, 1, 46, 0
1, 28272, Note_on_c, 1, 48, 75
1, 28288, Note_on_c, 0, 67, 0
1, 28304, Note_on_c, 1, 48, 0
1, 28320, Note_on_c, 1, 46, 75
1, 28352, Note_on_c, 1, 46, 0
1, 28416, Note_on_c, 1, 45, 75
1, 28448, Note_on_c, 1, 45, 0
1, 28464, Note_on_c, 1, 46, 75
1, 28496, Note_on_c, 1, 46, 0
1, 28512, Note_on_c, 1, 45, 75
1, 28544, Note_on_c, 1, 45, 0
1, 28608, Note_on_c, 1, 43, 75
1, 28640, Note_on_c, 1, 43, 0
1, 28656, Note_on_c, 1, 45, 75
1, 28688, Note_on_c, 1, 45, 0
1, 28704, Note_on_c, 1, 43, 75
1, 28736, Note_on_c, 1, 43, 0
1, 28800, Note_on_c, 0, 69, 50
1, 28800, Note_on_c, 1, 41, 50
1, 28832, Note_on_c, 0, 69, 0
1, 28848, Note_on_c, 0, 67, 50
1, 28880, Note_on_c, 0, 67, 0
1, 28896, Note_on_c, 0, 69, 50
1, 28928, Note_on_c, 0, 69, 0
1, 28928, Note_on_c, 1, 41, 0
1, 28944, Note_on_c, 0, 65, 50
1, 28976, Note_on_c, 0, 65, 0
1, 28992, Note_on_c, 0, 70, 50
1, 29024, Note_on_c, 0, 70, 0
1, 29040, Note_on_c, 0, 69, 50
1, 29072, Note_on_c, 0, 69, 0
1, 29088, Note_on_c, 0, 70, 50
1, 29120, Note_on_c, 0, 70, 0
1, 29136, Note_on_c, 0, 67, 50
1, 29168, Note_on_c, 0, 67, 0
1, 29184, Note_on_c, 0, 72, 75
1, 29184, Note_on_c, 1, 57, 75
1, 29184, Note_on_c, 1, 53, 75
1, 29312, Note_on_c, 0, 72, 0
1, 29376, Note_on_c, 0, 72, 50
1, 29408, Note_on_c, 0, 72, 0
1, 29424, Note_on_c, 0, 71, 50
1, 29440, Note_on_c, 1, 57, 0
1, 29440, Note_on_c, 1, 53, 0
1, 29456, Note_on_c, 0, 71, 0
1, 29472, Note_on_c, 0, 72, 50
1, 29504, Note_on_c, 0, 72, 0
1, 29520, Note_on_c, 0, 69, 50
1, 29552, Note_on_c, 0, 69, 0
1, 29568, Note_on_c, 0, 65, 50
1, 29568, Note_on_c, 1, 57, 50
1, 29568, Note_on_c, 1, 53, 50
1, 29696, Note_on_c, 0, 65, 0
1, 29696, Note_on_c, 1, 57, 0
1, 29696, Note_on_c, 1, 53, 0
1, 29952, Note_on_c, 0, 74, 50
1, 29984, Note_on_c, 0, 74, 0
1, 30000, Note_on_c, 0, 72, 50
1, 30032, Note_on_c, 0, 72, 0
1, 30048, Note_on_c, 0, 74, 50
1, 30080, Note_on_c, 0, 74, 0
1, 30096, Note_on_c, 0, 70, 50
1, 30128, Note_on_c, 0, 70, 0
1, 30144, Note_on_c, 0, 76, 50
1, 30176, Note_on_c, 0, 76, 0
1, 30192, Note_on_c, 0, 74, 50
1, 30224, Note_on_c, 0, 74, 0
1, 30240, Note_on_c, 0, 76, 50
1, 30272, Note_on_c, 0, 76, 0
1, 30288, Note_on_c, 0, 72, 50
1, 30320, Note_on_c, 0, 72, 0
1, 30336, Note_on_c, 0, 77, 75
1, 30336, Note_on_c, 1, 60, 75
1, 30336, Note_on_c, 1, 57, 75
1, 30464, Note_on_c, 0, 77, 0
1, 30528, Note_on_c, 0, 77, 50
1, 30560, Note_on_c, 0, 77, 0
1, 30576, Note_on_c, 0, 76, 50
1, 30592, Note_on_c, 1, 60, 0
1, 30592, Note_on_c, 1, 57, 0
1, 30608, Note_on_c, 0, 76, 0
1, 30624, Note_on_c, 0, 77, 50
1, 30656, Note_on_c, 0, 77, 0
1, 30672, Note_on_c, 0, 72, 50
1, 30704, Note_on_c, 0, 72, 0
1, 30720, Note_on_c, 0, 69, 50
1, 30720, Note_on_c, 1, 60, 50
1, 30720, Note_on_c, 1, 57, 50
1, 30848, Note_on_c, 0, 69, 0
1, 30848, Note_on_c, 1, 60, 0
1, 30848, Note_on_c, 1, 57, 0
1, 31104, Note_on_c, 0, 84, 75
1, 31136, Note_on_c, 0, 84, 0
1, 31152, Note_on_c, 0, 82, 75
1, 31184, Note_on_c, 0, 82, 0
1, 31200, Note_on_c, 0, 84, 75
1, 31232, Note_on_c, 0, 84, 0
1, 31248, Note_on_c, 0, 81, 75
1, 31280, Note_on_c, 0, 81, 0
1, 31296, Note_on_c, 0, 82, 75
1, 31328, Note_on_c, 0, 82, 0
1, 31344, Note_on_c, 0, 81, 75
1, 31376, Note_on_c, 0, 81, 0
1, 31392, Note_on_c, 0, 82, 75
1, 31424, Note_on_c, 0, 82, 0
1, 31440, Note_on_c, 0, 79, 75
1, 31472, Note_on_c, 0, 79, 0
1, 31488, Note_on_c, 0, 81, 75
1, 31488, Note_on_c, 0, 72, 75
1, 31520, Note_on_c, 0, 81, 0
1, 31520, Note_on_c, 0, 72, 0
1, 31536, Note_on_c, 0, 79, 75
1, 31536, Note_on_c, 0, 70, 75
1, 31568, Note_on_c, 0, 79, 0
1, 31568, Note_on_c, 0, 70, 0
1, 31584, Note_on_c, 0, 81, 75
1, 31584, Note_on_c, 0, 72, 75
1, 31616, Note_on_c, 0, 81, 0
1, 31616, Note_on_c, 0, 72, 0
1, 31632, Note_on_c, 0, 77, 75
1, 31632, Note_on_c, 0, 69, 75
1, 31664, Note_on_c, 0, 77, 0
1, 31664, Note_on_c, 0, 69, 0
1, 31680, Note_on_c, 0, 79, 75
1, 31680, Note_on_c, 0, 70, 75
1, 31712, Note_on_c, 0, 79, 0
1, 31712, Note_on_c, 0, 70, 0
1, 31728, Note_on_c, 0, 77, 75
1, 31728, Note_on_c, 0, 69, 75
1, 31760, Note_on_c, 0, 77, 0
1, 31760, Note_on_c, 0, 69, 0
1, 31776, Note_on_c, 0, 79, 75
1, 31776, Note_on_c, 0, 70, 75
1, 31808, Note_on_c, 0, 79, 0
1, 31808, Note_on_c, 0, 70, 0
1, 31824, Note_on_c, 0, 76, 75
1, 31824, Note_on_c, 0, 67, 75
1, 31856, Note_on_c, 0, 76, 0
1, 31856, Note_on_c, 0, 67, 0
1, 31872, Note_on_c, 0, 77, 75
1, 31872, Note_on_c, 0, 69, 75
1, 31904, Note_on_c, 0, 77, 0
1, 31920, Note_on_c, 0, 79, 75
1, 31952, Note_on_c, 0, 79, 0
1, 31968, Note_on_c, 0, 81, 75
1, 32000, Note_on_c, 0, 81, 0
1, 32016, Note_on_c, 0, 76, 75
1, 32048, Note_on_c, 0, 76, 0
1, 32064, Note_on_c, 0, 69, 0
1, 32064, Note_on_c, 0, 77, 75
1, 32096, Note_on_c, 0, 77, 0
1, 32112, Note_on_c, 0, 72, 75
1, 32144, Note_on_c, 0, 72, 0
1, 32160, Note_on_c, 0, 74, 75
1, 32160, Note_on_c, 0, 65, 75
1, 32192, Note_on_c, 0, 74, 0
1, 32208, Note_on_c, 0, 69, 75
1, 32224, Note_on_c, 0, 65, 0
1, 32240, Note_on_c, 0, 69, 0
1, 32256, Note_on_c, 0, 72, 75
1, 32256, Note_on_c, 0, 67, 75
1, 32384, Note_on_c, 0, 67, 0
1, 32400, Note_on_c, 0, 70, 75
1, 32432, Note_on_c, 0, 70, 0
1, 32448, Note_on_c, 0, 72, 0
1, 32448, Note_on_c, 0, 79, 75
1, 32448, Note_on_c, 0, 64, 75
1, 32576, Note_on_c, 0, 64, 0
1, 32592, Note_on_c, 0, 70, 75
1, 32624, Note_on_c, 0, 70, 0
1, 32640, Note_on_c, 0, 79, 0
1, 32640, Note_on_c, 0, 69, 75
1, 32640, Note_on_c, 0, 65, 75
1, 32768, Note_on_c, 0, 69, 0
1, 32768, Note_on_c, 0, 65, 0
1, 33024, Note_on_c, 0, 69, 50
1, 33084, Note_on_c, 0, 69, 0
1, 33088, Note_on_c, 0, 70, 50
1, 33148, Note_on_c, 0, 70, 0
1, 33152, Note_on_c, 0, 71, 50
1, 33212, Note_on_c, 0, 71, 0
1, 33216, Note_on_c, 0, 72, 50
1, 33276, Note_on_c, 0, 72, 0
1, 33280, Note_on_c, 0, 73, 50
1, 33340, Note_on_c, 0, 73, 0
1, 33344, Note_on_c, 0, 74, 50
1, 33404, Note_on_c, 0, 74, 0
1, 33408, Note_on_c, 0, 65, 75
1, 33408, Note_on_c, 1, 57, 75
1, 33408, Note_on_c, 1, 48, 75
1, 33600, Note_on_c, 0, 65, 0
1, 33664, Note_on_c, 1, 57, 0
1, 33664, Note_on_c, 1, 48, 0
1, 33696, Note_on_c, 0, 67, 50
1, 33728, Note_on_c, 0, 67, 0
1, 33744, Note_on_c, 0, 65, 50
1, 33776, Note_on_c, 0, 65, 0
1, 33792, Note_on_c, 0, 64, 50
1, 33792, Note_on_c, 1, 48, 50
1, 33792, Note_on_c, 1, 55, 50
1, 33920, Note_on_c, 0, 64, 0
1, 33920, Note_on_c, 1, 48, 0
1, 33920, Note_on_c, 1, 55, 0
1, 34080, Note_on_c, 0, 76, 50
1, 34144, Note_on_c, 0, 76, 0
1, 34176, Note_on_c, 0, 79, 50
1, 34236, Note_on_c, 0, 79, 0
1, 34240, Note_on_c, 0, 78, 50
1, 34300, Note_on_c, 0, 78, 0
1, 34304, Note_on_c, 0, 77, 50
1, 34364, Note_on_c, 0, 77, 0
1, 34368, Note_on_c, 0, 76, 50
1, 34428, Note_on_c, 0, 76, 0
1, 34432, Note_on_c, 0, 75, 50
1, 34492, Note_on_c, 0, 75, 0
1, 34496, Note_on_c, 0, 74, 50
1, 34556, Note_on_c, 0, 74, 0
1, 34560, Note_on_c, 0, 72, 75
1, 34560, Note_on_c, 1, 62, 75
1, 34560, Note_on_c, 1, 55, 75
1, 34592, Note_on_c, 0, 72, 0
1, 34608, Note_on_c, 0, 70, 75
1, 34640, Note_on_c, 0, 70, 0
1, 34656, Note_on_c, 0, 79, 75
1, 34688, Note_on_c, 0, 79, 0
1, 34688, Note_on_c, 1, 62, 0
1, 34688, Note_on_c, 1, 55, 0
1, 34752, Note_on_c, 0, 70, 75
1, 34752, Note_on_c, 1, 60, 75
1, 34752, Note_on_c, 1, 52, 75
1, 34880, Note_on_c, 0, 70, 0
1, 34880, Note_on_c, 1, 60, 0
1, 34880, Note_on_c, 1, 52, 0
1, 35232, Note_on_c, 1, 40, 50
1, 35232, Note_on_c, 1, 55, 50
1, 35296, Note_on_c, 1, 40, 0
1, 35296, Note_on_c, 1, 55, 0
1, 35328, Note_on_c, 1, 41, 50
1, 35328, Note_on_c, 1, 57, 50
1, 35360, Note_on_c, 1, 57, 0
1, 35376, Note_on_c, 1, 58, 50
1, 35408, Note_on_c, 1, 58, 0
1, 35424, Note_on_c, 1, 57, 50
1, 35456, Note_on_c, 1, 57, 0
1, 35472, Note_on_c, 1, 55, 50
1, 35504, Note_on_c, 1, 55, 0
1, 35520, Note_on_c, 1, 41, 0
1, 35520, Note_on_c, 1, 57, 50
1, 35552, Note_on_c, 1, 57, 0
1, 35568, Note_on_c, 1, 58, 50
1, 35600, Note_on_c, 1, 58, 0
1, 35616, Note_on_c, 1, 43, 50
1, 35616, Note_on_c, 1, 57, 50
1, 35648, Note_on_c, 1, 57, 0
1, 35664, Note_on_c, 1, 58, 50
1, 35680, Note_on_c, 1, 43, 0
1, 35696, Note_on_c, 1, 58, 0
1, 35712, Note_on_c, 1, 60, 50
1, 35712, Note_on_c, 1, 45, 50
1, 35744, Note_on_c, 1, 60, 0
1, 35760, Note_on_c, 1, 62, 50
1, 35792, Note_on_c, 1, 62, 0
1, 35808, Note_on_c, 1, 60, 50
1, 35840, Note_on_c, 1, 60, 0
1, 35856, Note_on_c, 1, 58, 50
1, 35888, Note_on_c, 1, 58, 0
1, 35904, Note_on_c, 1, 45, 0
1, 35904, Note_on_c, 1, 60, 50
1, 35936, Note_on_c, 1, 60, 0
1, 35952, Note_on_c, 1, 62, 50
1, 35984, Note_on_c, 1, 62, 0
1, 36000, Note_on_c, 1, 60, 50
1, 36000, Note_on_c, 1, 46, 50
1, 36032, Note_on_c, 1, 60, 0
1, 36048, Note_on_c, 1, 62, 50
1, 36064, Note_on_c, 1, 46, 0
1, 36080, Note_on_c, 1, 62, 0
1, 36096, Note_on_c, 1, 53, 50
1, 36096, Note_on_c, 1, 48, 50
1, 36224, Note_on_c, 1, 53, 0
1, 36224, Note_on_c, 1, 48, 0
1, 36432, Note_on_c, 1, 57, 50
1, 36476, Note_on_c, 1, 57, 0
1, 36480, Note_on_c, 1, 46, 50
1, 36480, Note_on_c, 1, 36, 50
1, 36480, Note_on_c, 1, 52, 50
1, 36480, Note_on_c, 1, 55, 50
1, 36608, Note_on_c, 1, 55, 0
1, 36672, Note_on_c, 1, 53, 50
1, 36736, Note_on_c, 1, 46, 0
1, 36736, Note_on_c, 1, 36, 0
1, 36736, Note_on_c, 1, 52, 0
1, 36736, Note_on_c, 1, 53, 0
1, 36768, Note_on_c, 1, 55, 50
1, 36832, Note_on_c, 1, 55, 0
1, 36864, Note_on_c, 1, 55, 75
1, 36864, Note_on_c, 1, 52, 75
1, 36864, Note_on_c, 1, 46, 75
1, 36864, Note_on_c, 1, 41, 75
1, 37120, Note_on_c, 1, 55, 0
1, 37120, Note_on_c, 1, 52, 0
1, 37120, Note_on_c, 1, 46, 0
1, 37120, Note_on_c, 1, 41, 0
1, 37248, Note_on_c, 1, 53, 50
1, 37248, Note_on_c, 1, 45, 50
1, 37248, Note_on_c, 1, 41, 50
1, 37376, Note_on_c, 1, 53, 0
1, 37376, Note_on_c, 1, 45, 0
1, 37376, Note_on_c, 1, 41, 0
1, 37440, Note_on_c, 1, 53, 50
1, 37440, Note_on_c, 1, 41, 50
1, 37568, Note_on_c, 1, 53, 0
1, 37568, Note_on_c, 1, 41, 0
1, 37632, Note_on_c, 1, 52, 50
1, 37632, Note_on_c, 1, 40, 50
1, 37760, Note_on_c, 1, 52, 0
1, 37760, Note_on_c, 1, 40, 0
1, 37824, Note_on_c, 1, 50, 50
1, 37824, Note_on_c, 1, 38, 50
1, 37952, Note_on_c, 1, 50, 0
1, 37952, Note_on_c, 1, 38, 0
1, 38016, Note_on_c, 0, 64, 50
1, 38016, Note_on_c, 1, 48, 50
1, 38016, Note_on_c, 1, 36, 50
1, 38080, Note_on_c, 0, 64, 0
1, 38112, Note_on_c, 0, 67, 50
1, 38176, Note_on_c, 0, 67, 0
1, 38208, Note_on_c, 0, 72, 50
1, 38272, Note_on_c, 0, 72, 0
1, 38272, Note_on_c, 1, 48, 0
1, 38272, Note_on_c, 1, 36, 0
1, 38304, Note_on_c, 0, 76, 50
1, 38368, Note_on_c, 0, 76, 0
1, 38400, Note_on_c, 0, 79, 50
1, 38592, Note_on_c, 0, 64, 50
1, 38592, Note_on_c, 0, 60, 50
1, 38656, Note_on_c, 0, 79, 0
1, 38720, Note_on_c, 0, 64, 0
1, 38720, Note_on_c, 0, 60, 0
1, 38784, Note_on_c, 0, 79, 50
1, 38784, Note_on_c, 0, 64, 50
1, 38784, Note_on_c, 0, 60, 50
1, 38876, Note_on_c, 0, 79, 0
1, 38880, Note_on_c, 0, 81, 50
1, 38912, Note_on_c, 0, 64, 0
1, 38912, Note_on_c, 0, 60, 0
1, 38924, Note_on_c, 0, 81, 0
1, 38928, Note_on_c, 0, 79, 50
1, 38972, Note_on_c, 0, 79, 0
1, 38976, Note_on_c, 0, 78, 50
1, 38976, Note_on_c, 0, 64, 50
1, 38976, Note_on_c, 0, 60, 50
1, 39020, Note_on_c, 0, 78, 0
1, 39024, Note_on_c, 0, 79, 50
1, 39068, Note_on_c, 0, 79, 0
1, 39088, Note_on_c, 0, 81, 50
1, 39104, Note_on_c, 0, 64, 0
1, 39104, Note_on_c, 0, 60, 0
1, 39152, Note_on_c, 0, 81, 0
1, 39168, Note_on_c, 0, 72, 50
1, 39360, Note_on_c, 0, 65, 50
1, 39360, Note_on_c, 0, 62, 50
1, 39424, Note_on_c, 0, 72, 0
1, 39488, Note_on_c, 0, 65, 0
1, 39488, Note_on_c, 0, 62, 0
1, 39552, Note_on_c, 0, 71, 50
1, 39552, Note_on_c, 0, 65, 50
1, 39552, Note_on_c, 0, 62, 50
1, 39680, Note_on_c, 0, 71, 0
1, 39680, Note_on_c, 0, 65, 0
1, 39680, Note_on_c, 0, 62, 0
1, 39744, Note_on_c, 0, 65, 50
1, 39744, Note_on_c, 0, 62, 50
1, 39872, Note_on_c, 0, 65, 0
1, 39872, Note_on_c, 0, 62, 0
1, 39936, Note_on_c, 0, 70, 50
1, 39936, Note_on_c, 0, 65, 50
1, 39936, Note_on_c, 0, 62, 50
1, 40000, Note_on_c, 0, 70, 0
1, 40032, Note_on_c, 0, 74, 50
1, 40064, Note_on_c, 0, 65, 0
1, 40064, Note_on_c, 0, 62, 0
1, 40096, Note_on_c, 0, 74, 0
1, 40128, Note_on_c, 0, 77, 50
1, 40128, Note_on_c, 0, 65, 50
1, 40128, Note_on_c, 0, 62, 50
1, 40192, Note_on_c, 0, 77, 0
1, 40224, Note_on_c, 0, 83, 50
1, 40256, Note_on_c, 0, 65, 0
1, 40256, Note_on_c, 0, 62, 0
1, 40288, Note_on_c, 0, 83, 0
1, 40320, Note_on_c, 0, 86, 50
1, 40512, Note_on_c, 0, 86, 0
1, 40512, Note_on_c, 1, 59, 50
1, 40512, Note_on_c, 1, 55, 50
1, 40608, Note_on_c, 0, 83, 50
1, 40640, Note_on_c, 1, 59, 0
1, 40640, Note_on_c, 1, 55, 0
1, 40672, Note_on_c, 0, 83, 0
1, 40704, Note_on_c, 0, 89, 50
1, 40704, Note_on_c, 1, 59, 50
1, 40704, Note_on_c, 1, 55, 50
1, 40768, Note_on_c, 0, 89, 0
1, 40800, Note_on_c, 0, 86, 50
1, 40832, Note_on_c, 1, 59, 0
1, 40832, Note_on_c, 1, 55, 0
1, 40864, Note_on_c, 0, 86, 0
1, 40896, Note_on_c, 0, 83, 50
1, 40896, Note_on_c, 1, 59, 50
1, 40896, Note_on_c, 1, 55, 50
1, 40960, Note_on_c, 0, 83, 0
1, 40992, Note_on_c, 0, 79, 50
1, 41024, Note_on_c, 1, 59, 0
1, 41024, Note_on_c, 1, 55, 0
1, 41056, Note_on_c, 0, 79, 0
1, 41088, Note_on_c, 0, 78, 50
1, 41088, Note_on_c, 1, 59, 50
1, 41088, Note_on_c, 1, 55, 50
1, 41152, Note_on_c, 0, 78, 0
1, 41184, Note_on_c, 0, 79, 50
1, 41216, Note_on_c, 1, 59, 0
1, 41216, Note_on_c, 1, 55, 0
1, 41248, Note_on_c, 0, 79, 0
1, 41280, Note_on_c, 0, 81, 50
1, 41280, Note_on_c, 1, 59, 50
1, 41280, Note_on_c, 1, 55, 50
1, 41344, Note_on_c, 0, 81, 0
1, 41376, Note_on_c, 0, 77, 50
1, 41408, Note_on_c, 1, 59, 0
1, 41408, Note_on_c, 1, 55, 0
1, 41440, Note_on_c, 0, 77, 0
1, 41472, Note_on_c, 0, 75, 50
1, 41664, Note_on_c, 1, 60, 50
1, 41664, Note_on_c, 1, 48, 50
1, 41728, Note_on_c, 0, 75, 0
1, 41792, Note_on_c, 1, 60, 0
1, 41792, Note_on_c, 1, 48, 0
1, 41856, Note_on_c, 0, 76, 50
1, 41856, Note_on_c, 1, 60, 50
1, 41856, Note_on_c, 1, 48, 50
1, 41984, Note_on_c, 0, 76, 0
1, 41984, Note_on_c, 1, 60, 0
1, 41984, Note_on_c, 1, 48, 0
1, 42048, Note_on_c, 1, 48, 50
1, 42048, Note_on_c, 1, 60, 50
1, 42176, Note_on_c, 1, 48, 0
1, 42176, Note_on_c, 1, 60, 0
1, 42240, Note_on_c, 0, 72, 75
1, 42240, Note_on_c, 1, 40, 75
1, 42304, Note_on_c, 0, 72, 0
1, 42336, Note_on_c, 0, 76, 75
1, 42368, Note_on_c, 1, 40, 0
1, 42400, Note_on_c, 0, 76, 0
1, 42432, Note_on_c, 0, 79, 75
1, 42432, Note_on_c, 1, 52, 75
1, 42496, Note_on_c, 0, 79, 0
1, 42528, Note_on_c, 0, 84, 75
1, 42560, Note_on_c, 1, 52, 0
1, 42624, Note_on_c, 0, 84, 75
1, 42624, Note_on_c, 0, 72, 75
1, 42624, Note_on_c, 1, 41, 75
1, 42628, Note_on_c, 0, 84, 0
1, 42688, Note_on_c, 0, 84, 0
1, 42720, Note_on_c, 0, 74, 75
1, 42752, Note_on_c, 1, 41, 0
1, 42784, Note_on_c, 0, 74, 0
1, 42816, Note_on_c, 0, 74, 75
1, 42816, Note_on_c, 1, 53, 75
1, 42880, Note_on_c, 0, 72, 0
1, 42912, Note_on_c, 1, 53, 0
1, 42944, Note_on_c, 0, 74, 0
1, 42960, Note_on_c, 1, 52, 75
1, 42992, Note_on_c, 1, 52, 0
1, 43008, Note_on_c, 0, 74, 75
1, 43008, Note_on_c, 0, 72, 75
1, 43008, Note_on_c, 1, 53, 75
1, 43072, Note_on_c, 0, 74, 0
1, 43104, Note_on_c, 0, 84, 75
1, 43136, Note_on_c, 1, 53, 0
1, 43168, Note_on_c, 0, 84, 0
1, 43200, Note_on_c, 0, 75, 75
1, 43200, Note_on_c, 1, 54, 75
1, 43264, Note_on_c, 0, 72, 0
1, 43264, Note_on_c, 0, 75, 0
1, 43296, Note_on_c, 0, 84, 75
1, 43328, Note_on_c, 1, 54, 0
1, 43360, Note_on_c, 0, 84, 0
1, 43392, Note_on_c, 0, 72, 75
1, 43392, Note_on_c, 0, 72, 75
1, 43392, Note_on_c, 1, 55, 75
1, 43456, Note_on_c, 0, 72, 0
1, 43488, Note_on_c, 0, 76, 75
1, 43520, Note_on_c, 1, 55, 0
1, 43552, Note_on_c, 0, 76, 0
1, 43584, Note_on_c, 0, 79, 75
1, 43584, Note_on_c, 1, 43, 75
1, 43648, Note_on_c, 0, 72, 0
1, 43648, Note_on_c, 0, 79, 0
1, 43680, Note_on_c, 0, 84, 75
1, 43712, Note_on_c, 1, 43, 0
1, 43744, Note_on_c, 0, 84, 0
1, 43776, Note_on_c, 0, 84, 75
1, 43776, Note_on_c, 0, 72, 75
1, 43776, Note_on_c, 1, 45, 75
1, 43840, Note_on_c, 0, 84, 0
1, 43872, Note_on_c, 0, 77, 75
1, 43904, Note_on_c, 1, 45, 0
1, 43936, Note_on_c, 0, 77, 0
1, 43968, Note_on_c, 0, 77, 75
1, 43968, Note_on_c, 1, 57, 75
1, 44032, Note_on_c, 0, 72, 0
1, 44032, Note_on_c, 1, 57, 0
1, 44064, Note_on_c, 1, 56, 75
1, 44096, Note_on_c, 0, 77, 0
1, 44128, Note_on_c, 1, 56, 0
1, 44160, Note_on_c, 0, 77, 75
1, 44160, Note_on_c, 0, 72, 75
1, 44160, Note_on_c, 1, 57, 75
1, 44224, Note_on_c, 0, 77, 0
1, 44240, Note_on_c, 0, 84, 75
1, 44288, Note_on_c, 1, 57, 0
1, 44304, Note_on_c, 0, 84, 0
1, 44352, Note_on_c, 0, 77, 75
1, 44352, Note_on_c, 1, 45, 75
1, 44416, Note_on_c, 0, 72, 0
1, 44416, Note_on_c, 0, 77, 0
1, 44448, Note_on_c, 0, 84, 75
1, 44480, Note_on_c, 1, 45, 0
1, 44512, Note_on_c, 0, 84, 0
1, 44544, Note_on_c, 0, 72, 75
1, 44544, Note_on_c, 0, 72, 75
1, 44544, Note_on_c, 1, 40, 75
1, 44608, Note_on_c, 0, 72, 0
1, 44640, Note_on_c, 0, 76, 75
1, 44672, Note_on_c, 1, 40, 0
1, 44704, Note_on_c, 0, 76, 0
1, 44736, Note_on_c, 0, 79, 75
1, 44736, Note_on_c, 1, 52, 75
1, 44800, Note_on_c, 0, 72, 0
1, 44800, Note_on_c, 0, 79, 0
1, 44832, Note_on_c, 0, 82, 75
1, 44864, Note_on_c, 1, 52, 0
1, 44896, Note_on_c, 0, 82, 0
1, 44928, Note_on_c, 0, 79, 50
1, 44928, Note_on_c, 1, 60, 50
1, 44928, Note_on_c, 1, 52, 50
1, 44992, Note_on_c, 0, 79, 0
1, 45024, Note_on_c, 0, 81, 50
1, 45056, Note_on_c, 1, 60, 0
1, 45088, Note_on_c, 0, 81, 0
1, 45120, Note_on_c, 0, 77, 50
1, 45120, Note_on_c, 1, 62, 50
1, 45184, Note_on_c, 0, 77, 0
1, 45184, Note_on_c, 1, 52, 0
1, 45216, Note_on_c, 0, 74, 50
1, 45248, Note_on_c, 1, 62, 0
1, 45280, Note_on_c, 0, 74, 0
1, 45312, Note_on_c, 0, 72, 50
1, 45312, Note_on_c, 1, 55, 50
1, 45312, Note_on_c, 1, 64, 50
1, 45568, Note_on_c, 0, 72, 0
1, 45568, Note_on_c, 1, 55, 0
1, 45568, Note_on_c, 1, 64, 0
1, 45696, Note_on_c, 0, 74, 50
1, 45696, Note_on_c, 0, 71, 50
1, 45696, Note_on_c, 1, 55, 50
1, 45696, Note_on_c, 1, 65, 50
1, 45888, Note_on_c, 0, 74, 0
1, 45952, Note_on_c, 0, 71, 0
1, 45952, Note_on_c, 1, 55, 0
1, 45952, Note_on_c, 1, 65, 0
1, 45984, Note_on_c, 0, 72, 50
1, 46048, Note_on_c, 0, 72, 0
1, 46080, Note_on_c, 0, 72, 50
1, 46080, Note_on_c, 0, 72, 50
1, 46080, Note_on_c, 1, 60, 50
1, 46080, Note_on_c, 1, 64, 50
1, 46208, Note_on_c, 1, 60, 0
1, 46208, Note_on_c, 1, 64, 0
1, 46272, Note_on_c, 1, 48, 75
1, 46460, Note_on_c, 1, 48, 0
1, 46464, Note_on_c, 1, 60, 50
1, 46592, Note_on_c, 0, 72, 0
1, 46652, Note_on_c, 1, 60, 0
1, 46656, Note_on_c, 1, 58, 50
1, 46844, Note_on_c, 1, 58, 0
1, 46848, Note_on_c, 0, 72, 0
1, 46848, Note_on_c, 0, 72, 50
1, 46848, Note_on_c, 1, 57, 50
1, 46976, Note_on_c, 0, 72, 0
1, 47036, Note_on_c, 1, 57, 0
1, 47040, Note_on_c, 0, 73, 75
1, 47040, Note_on_c, 1, 55, 50
1, 47168, Note_on_c, 0, 73, 0
1, 47228, Note_on_c, 1, 55, 0
1, 47232, Note_on_c, 0, 74, 50
1, 47232, Note_on_c, 0, 72, 50
1, 47232, Note_on_c, 1, 54, 50
1, 47420, Note_on_c, 1, 54, 0
1, 47424, Note_on_c, 1, 50, 50
1, 47488, Note_on_c, 0, 74, 0
1, 47488, Note_on_c, 0, 72, 0
1, 47612, Note_on_c, 1, 50, 0
1, 47616, Note_on_c, 0, 74, 50
1, 47616, Note_on_c, 0, 70, 50
1, 47616, Note_on_c, 1, 58, 50
1, 47804, Note_on_c, 1, 58, 0
1, 47808, Note_on_c, 0, 74, 0
1, 47808, Note_on_c, 1, 57, 50
1, 47904, Note_on_c, 0, 76, 50
1, 47936, Note_on_c, 0, 76, 0
1, 47952, Note_on_c, 0, 78, 50
1, 47984, Note_on_c, 0, 78, 0
1, 47996, Note_on_c, 1, 57, 0
1, 48000, Note_on_c, 0, 79, 75
1, 48000, Note_on_c, 1, 55, 75
1, 48128, Note_on_c, 0, 70, 0
1, 48128, Note_on_c, 0, 79, 0
1, 48188, Note_on_c, 1, 55, 0
1, 48192, Note_on_c, 0, 74, 75
1, 48192, Note_on_c, 1, 53, 75
1, 48320, Note_on_c, 0, 74, 0
1, 48380, Note_on_c, 1, 53, 0
1, 48384, Note_on_c, 0, 72, 75
1, 48384, Note_on_c, 0, 70, 75
1, 48384, Note_on_c, 1, 52, 75
1, 48572, Note_on_c, 1, 52, 0
1, 48576, Note_on_c, 1, 48, 75
1, 48640, Note_on_c, 0, 72, 0
1, 48640, Note_on_c, 0, 70, 0
1, 48764, Note_on_c, 1, 48, 0
1, 48768, Note_on_c, 0, 72, 75
1, 48768, Note_on_c, 0, 69, 75
1, 48768, Note_on_c, 1, 57, 75
1, 48956, Note_on_c, 1, 57, 0
1, 48960, Note_on_c, 0, 72, 0
1, 48960, Note_on_c, 1, 55, 75
1, 49056, Note_on_c, 0, 74, 75
1, 49088, Note_on_c, 0, 74, 0
1, 49104, Note_on_c, 0, 76, 75
1, 49136, Note_on_c, 0, 76, 0
1, 49148, Note_on_c, 1, 55, 0
1, 49152, Note_on_c, 0, 77, 75
1, 49152, Note_on_c, 1, 53, 75
1, 49280, Note_on_c, 0, 69, 0
1, 49280, Note_on_c, 0, 77, 0
1, 49340, Note_on_c, 1, 53, 0
1, 49344, Note_on_c, 0, 72, 75
1, 49344, Note_on_c, 1, 52, 75
1, 49472, Note_on_c, 0, 72, 0
1, 49532, Note_on_c, 1, 52, 0
1, 49536, Note_on_c, 0, 70, 75
1, 49536, Note_on_c, 0, 69, 75
1, 49536, Note_on_c, 1, 50, 75
1, 49664, Note_on_c, 0, 69, 0
1, 49728, Note_on_c, 0, 67, 75
1, 49792, Note_on_c, 0, 70, 0
1, 49792, Note_on_c, 0, 67, 0
1, 49792, Note_on_c, 1, 50, 0
1, 49824, Note_on_c, 0, 66, 75
1, 49888, Note_on_c, 0, 66, 0
1, 49920, Note_on_c, 0, 70, 50
1, 49920, Note_on_c, 0, 67, 50
1, 49920, Note_on_c, 1, 52, 50
1, 50048, Note_on_c, 0, 70, 0
1, 50048, Note_on_c, 0, 67, 0
1, 50048, Note_on_c, 1, 52, 0
1, 50112, Note_on_c, 0, 72, 50
1, 50112, Note_on_c, 0, 64, 50
1, 50112, Note_on_c, 1, 48, 50
1, 50160, Note_on_c, 0, 70, 50
1, 50176, Note_on_c, 0, 72, 0
1, 50224, Note_on_c, 0, 70, 0
1, 50240, Note_on_c, 0, 64, 0
1, 50240, Note_on_c, 1, 48, 0
1, 50304, Note_on_c, 0, 69, 50
1, 50304, Note_on_c, 0, 66, 50
1, 50304, Note_on_c, 1, 50, 50
1, 50432, Note_on_c, 0, 69, 0
1, 50432, Note_on_c, 0, 66, 0
1, 50432, Note_on_c, 1, 50, 0
1, 50448, Note_on_c, 0, 72, 50
1, 50448, Note_on_c, 0, 69, 50
1, 50492, Note_on_c, 0, 72, 0
1, 50492, Note_on_c, 0, 69, 0
1, 50496, Note_on_c, 0, 70, 50
1, 50496, Note_on_c, 0, 67, 50
1, 50496, Note_on_c, 1, 46, 50
1, 50624, Note_on_c, 0, 70, 0
1, 50624, Note_on_c, 0, 67, 0
1, 50624, Note_on_c, 1, 46, 0
1, 50688, Note_on_c, 0, 69, 50
1, 50688, Note_on_c, 0, 65, 50
1, 50688, Note_on_c, 1, 48, 50
1, 50816, Note_on_c, 1, 48, 0
1, 50880, Note_on_c, 1, 60, 50
1, 50944, Note_on_c, 0, 69, 0
1, 50944, Note_on_c, 0, 65, 0
1, 51008, Note_on_c, 1, 60, 0
1, 51072, Note_on_c, 0, 67, 50
1, 51072, Note_on_c, 0, 64, 50
1, 51072, Note_on_c, 1, 60, 75
1, 51136, Note_on_c, 1, 60, 0
1, 51168, Note_on_c, 1, 48, 50
1, 51200, Note_on_c, 0, 67, 0
1, 51200, Note_on_c, 0, 64, 0
1, 51232, Note_on_c, 1, 48, 0
1, 51264, Note_on_c, 1, 58, 50
1, 51328, Note_on_c, 1, 58, 0
1, 51360, Note_on_c, 1, 46, 50
1, 51424, Note_on_c, 1, 46, 0
1, 51456, Note_on_c, 1, 57, 50
1, 51520, Note_on_c, 1, 57, 0
1, 51552, Note_on_c, 1, 45, 50
1, 51616, Note_on_c, 1, 45, 0
1, 51648, Note_on_c, 1, 55, 50
1, 51712, Note_on_c, 1, 55, 0
1, 51744, Note_on_c, 1, 43, 50
1, 51808, Note_on_c, 1, 43, 0
1, 51840, Note_on_c, 0, 69, 50
1, 51840, Note_on_c, 1, 53, 50
1, 51840, Note_on_c, 1, 41, 50
1, 51872, Note_on_c, 0, 69, 0
1, 51888, Note_on_c, 0, 65, 50
1, 51968, Note_on_c, 1, 53, 0
1, 51968, Note_on_c, 1, 41, 0
1, 51984, Note_on_c, 0, 65, 0
1, 52032, Note_on_c, 0, 70, 50
1, 52064, Note_on_c, 0, 70, 0
1, 52080, Note_on_c, 0, 67, 50
1, 52176, Note_on_c, 0, 67, 0
1, 52224, Note_on_c, 0, 72, 75
1, 52224, Note_on_c, 1, 57, 75
1, 52224, Note_on_c, 1, 53, 75
1, 52352, Note_on_c, 0, 72, 0
1, 52464, Note_on_c, 0, 70, 50
1, 52480, Note_on_c, 1, 57, 0
1, 52480, Note_on_c, 1, 53, 0
1, 52496, Note_on_c, 0, 70, 0
1, 52512, Note_on_c, 0, 69, 50
1, 52544, Note_on_c, 0, 69, 0
1, 52560, Note_on_c, 0, 67, 50
1, 52592, Note_on_c, 0, 67, 0
1, 52608, Note_on_c, 0, 65, 50
1, 52608, Note_on_c, 1, 57, 50
1, 52608, Note_on_c, 1, 53, 50
1, 52736, Note_on_c, 0, 65, 0
1, 52736, Note_on_c, 1, 57, 0
1, 52736, Note_on_c, 1, 53, 0
1, 52992, Note_on_c, 0, 74, 50
1, 53024, Note_on_c, 0, 74, 0
1, 53040, Note_on_c, 0, 70, 50
1, 53136, Note_on_c, 0, 70, 0
1, 53184, Note_on_c, 0, 76, 50
1, 53216, Note_on_c, 0, 76, 0
1, 53232, Note_on_c, 0, 72, 50
1, 53328, Note_on_c, 0, 72, 0
1, 53376, Note_on_c, 0, 77, 75
1, 53376, Note_on_c, 1, 57, 75
1, 53376, Note_on_c, 1, 60, 75
1, 53504, Note_on_c, 0, 77, 0
1, 53568, Note_on_c, 0, 76, 50
1, 53600, Note_on_c, 0, 76, 0
1, 53616, Note_on_c, 0, 74, 50
1, 53632, Note_on_c, 1, 57, 0
1, 53632, Note_on_c, 1, 60, 0
1, 53648, Note_on_c, 0, 74, 0
1, 53664, Note_on_c, 0, 72, 50
1, 53696, Note_on_c, 0, 72, 0
1, 53712, Note_on_c, 0, 70, 50
1, 53744, Note_on_c, 0, 70, 0
1, 53760, Note_on_c, 0, 69, 50
1, 53760, Note_on_c, 1, 57, 50
1, 53760, Note_on_c, 1, 60, 50
1, 53888, Note_on_c, 0, 69, 0
1, 53888, Note_on_c, 1, 57, 0
1, 53888, Note_on_c, 1, 60, 0
1, 54144, Note_on_c, 0, 77, 75
1, 54176, Note_on_c, 0, 77, 0
1, 54192, Note_on_c, 0, 74, 75
1, 54288, Note_on_c, 0, 74, 0
1, 54336, Note_on_c, 0, 81, 75
1, 54368, Note_on_c, 0, 81, 0
1, 54384, Note_on_c, 0, 77, 75
1, 54480, Note_on_c, 0, 77, 0
1, 54528, Note_on_c, 0, 84, 75
1, 54560, Note_on_c, 0, 84, 0
1, 54576, Note_on_c, 0, 80, 75
1, 54672, Note_on_c, 0, 80, 0
1, 54720, Note_on_c, 0, 81, 75
1, 54752, Note_on_c, 0, 81, 0
1, 54768, Note_on_c, 0, 76, 75
1, 54864, Note_on_c, 0, 76, 0
1, 54912, Note_on_c, 0, 77, 75
1, 54944, Note_on_c, 0, 77, 0
1, 54960, Note_on_c, 0, 72, 75
1, 55056, Note_on_c, 0, 72, 0
1, 55104, Note_on_c, 0, 74, 75
1, 55104, Note_on_c, 1, 57, 75
1, 55104, Note_on_c, 1, 53, 75
1, 55136, Note_on_c, 0, 74, 0
1, 55152, Note_on_c, 0, 69, 75
1, 55232, Note_on_c, 1, 57, 0
1, 55232, Note_on_c, 1, 53, 0
1, 55248, Note_on_c, 0, 69, 0
1, 55296, Note_on_c, 0, 72, 75
1, 55296, Note_on_c, 1, 50, 75
1, 55296, Note_on_c, 1, 53, 75
1, 55328, Note_on_c, 0, 72, 0
1, 55344, Note_on_c, 0, 71, 75
1, 55424, Note_on_c, 1, 50, 0
1, 55424, Note_on_c, 1, 53, 0
1, 55440, Note_on_c, 0, 71, 0
1, 55488, Note_on_c, 0, 72, 75
1, 55488, Note_on_c, 1, 55, 75
1, 55488, Note_on_c, 1, 52, 75
1, 55520, Note_on_c, 0, 72, 0
1, 55536, Note_on_c, 0, 70, 75
1, 55616, Note_on_c, 1, 55, 0
1, 55616, Note_on_c, 1, 52, 0
1, 55632, Note_on_c, 0, 70, 0
1, 55680, Note_on_c, 0, 69, 75
1, 55680, Note_on_c, 1, 60, 75
1, 55680, Note_on_c, 1, 53, 75
1, 55808, Note_on_c, 0, 69, 0
1, 55808, Note_on_c, 1, 60, 0
1, 55808, Note_on_c, 1, 53, 0
1, 56064, Note_on_c, 0, 69, 50
1, 56064, Note_on_c, 0, 81, 50
1, 56128, Note_on_c, 0, 69, 0
1, 56128, Note_on_c, 0, 81, 0
1, 56160, Note_on_c, 0, 82, 50
1, 56160, Note_on_c, 0, 70, 50
1, 56224, Note_on_c, 0, 82, 0
1, 56224, Note_on_c, 0, 70, 0
1, 56256, Note_on_c, 0, 83, 50
1, 56256, Note_on_c, 0, 71, 50
1, 56320, Note_on_c, 0, 83, 0
1, 56320, Note_on_c, 0, 71, 0
1, 56352, Note_on_c, 0, 84, 50
1, 56352, Note_on_c, 0, 72, 50
1, 56416, Note_on_c, 0, 84, 0
1, 56416, Note_on_c, 0, 72, 0
1, 56448, Note_on_c, 0, 77, 75
1, 56448, Note_on_c, 0, 65, 75
1, 56448, Note_on_c, 1, 57, 75
1, 56448, Note_on_c, 1, 48, 75
1, 56640, Note_on_c, 0, 77, 0
1, 56704, Note_on_c, 0, 65, 0
1, 56704, Note_on_c, 1, 57, 0
1, 56704, Note_on_c, 1, 48, 0
1, 56736, Note_on_c, 0, 79, 50
1, 56768, Note_on_c, 0, 79, 0
1, 56784, Note_on_c, 0, 77, 50
1, 56816, Note_on_c, 0, 77, 0
1, 56832, Note_on_c, 0, 76, 50
1, 56832, Note_on_c, 0, 64, 50
1, 56832, Note_on_c, 1, 55, 50
1, 56832, Note_on_c, 1, 48, 50
1, 56960, Note_on_c, 0, 76, 0
1, 56960, Note_on_c, 0, 64, 0
1, 56960, Note_on_c, 1, 55, 0
1, 56960, Note_on_c, 1, 48, 0
1, 57120, Note_on_c, 0, 76, 50
1, 57120, Note_on_c, 0, 64, 50
1, 57184, Note_on_c, 0, 76, 0
1, 57184, Note_on_c, 0, 64, 0
1, 57216, Note_on_c, 0, 79, 50
1, 57216, Note_on_c, 0, 67, 50
1, 57280, Note_on_c, 0, 79, 0
1, 57280, Note_on_c, 0, 67, 0
1, 57312, Note_on_c, 0, 65, 50
1, 57312, Note_on_c, 0, 77, 50
1, 57376, Note_on_c, 0, 65, 0
1, 57376, Note_on_c, 0, 77, 0
1, 57408, Note_on_c, 0, 64, 50
1, 57408, Note_on_c, 0, 76, 50
1, 57472, Note_on_c, 0, 64, 0
1, 57472, Note_on_c, 0, 76, 0
1, 57504, Note_on_c, 0, 62, 50
1, 57504, Note_on_c, 0, 74, 50
1, 57568, Note_on_c, 0, 62, 0
1, 57568, Note_on_c, 0, 74, 0
1, 57600, Note_on_c, 0, 72, 75
1, 57600, Note_on_c, 0, 60, 75
1, 57600, Note_on_c, 1, 53, 75
1, 57600, Note_on_c, 1, 50, 75
1, 57664, Note_on_c, 0, 72, 0
1, 57664, Note_on_c, 0, 60, 0
1, 57696, Note_on_c, 0, 70, 50
1, 57696, Note_on_c, 0, 58, 50
1, 57728, Note_on_c, 1, 53, 0
1, 57728, Note_on_c, 1, 50, 0
1, 57760, Note_on_c, 0, 70, 0
1, 57760, Note_on_c, 0, 58, 0
1, 57792, Note_on_c, 0, 70, 50
1, 57792, Note_on_c, 0, 58, 50
1, 57792, Note_on_c, 1, 55, 50
1, 57792, Note_on_c, 1, 52, 50
1, 57920, Note_on_c, 0, 70, 0
1, 57920, Note_on_c, 0, 58, 0
1, 57920, Note_on_c, 1, 55, 0
1, 57920, Note_on_c, 1, 52, 0
1, 58272, Note_on_c, 0, 79, 50
1, 58336, Note_on_c, 0, 79, 0
1, 58368, Note_on_c, 0, 84, 50
1, 58368, Note_on_c, 1, 41, 50
1, 58368, Note_on_c, 1, 45, 50
1, 58464, Note_on_c, 0, 84, 0
1, 58496, Note_on_c, 1, 41, 0
1, 58496, Note_on_c, 1, 45, 0
1, 58512, Note_on_c, 0, 81, 50
1, 58544, Note_on_c, 0, 81, 0
1, 58560, Note_on_c, 0, 82, 50
1, 58560, Note_on_c, 1, 43, 56
1, 58560, Note_on_c, 1, 48, 56
1, 58656, Note_on_c, 0, 82, 0
1, 58688, Note_on_c, 1, 43, 0
1, 58688, Note_on_c, 1, 48, 0
1, 58704, Note_on_c, 0, 76, 50
1, 58736, Note_on_c, 0, 76, 0
1, 58752, Note_on_c, 0, 77, 56
1, 58752, Note_on_c, 1, 45, 62
1, 58752, Note_on_c, 1, 48, 62
1, 58848, Note_on_c, 0, 77, 0
1, 58880, Note_on_c, 1, 45, 0
1, 58880, Note_on_c, 1, 48, 0
1, 58896, Note_on_c, 0, 72, 62
1, 58928, Note_on_c, 0, 72, 0
1, 58944, Note_on_c, 0, 74, 67
1, 58944, Note_on_c, 1, 53, 68
1, 58944, Note_on_c, 1, 46, 68
1, 59040, Note_on_c, 0, 74, 0
1, 59072, Note_on_c, 1, 53, 0
1, 59072, Note_on_c, 1, 46, 0
1, 59088, Note_on_c, 0, 65, 71
1, 59120, Note_on_c, 0, 65, 0
1, 59136, Note_on_c, 0, 65, 75
1, 59136, Note_on_c, 1, 57, 75
1, 59136, Note_on_c, 1, 48, 75
1, 59264, Note_on_c, 0, 65, 0
1, 59264, Note_on_c, 1, 57, 0
1, 59264, Note_on_c, 1, 48, 0
1, 59472, Note_on_c, 0, 69, 50
1, 59516, Note_on_c, 0, 69, 0
1, 59520, Note_on_c, 0, 67, 50
1, 59520, Note_on_c, 0, 64, 50
1, 59520, Note_on_c, 1, 58, 50
1, 59520, Note_on_c, 1, 48, 50
1, 59648, Note_on_c, 0, 67, 0
1, 59712, Note_on_c, 0, 65, 50
1, 59776, Note_on_c, 0, 64, 0
1, 59776, Note_on_c, 0, 65, 0
1, 59776, Note_on_c, 1, 58, 0
1, 59776, Note_on_c, 1, 48, 0
1, 59808, Note_on_c, 0, 67, 50
1, 59872, Note_on_c, 0, 67, 0
1, 59904, Note_on_c, 0, 64, 50
1, 59904, Note_on_c, 0, 67, 50
1, 59904, Note_on_c, 1, 58, 50
1, 59904, Note_on_c, 1, 53, 50
1, 60096, Note_on_c, 0, 65, 50
1, 60096, Note_on_c, 1, 57, 50
1, 60096, Note_on_c, 1, 53, 50
1, 60160, Note_on_c, 0, 64, 0
1, 60160, Note_on_c, 0, 67, 0
1, 60160, Note_on_c, 1, 58, 0
1, 60160, Note_on_c, 1, 53, 0
1, 60224, Note_on_c, 0, 65, 0
1, 60224, Note_on_c, 1, 57, 0
1, 60224, Note_on_c, 1, 53, 0
1, 60480, Note_on_c, 1, 41, 50
1, 60512, Note_on_c, 1, 41, 0
1, 60528, Note_on_c, 1, 53, 50
1, 60624, Note_on_c, 1, 53, 0
1, 60672, Note_on_c, 1, 40, 50
1, 60704, Note_on_c, 1, 40, 0
1, 60720, Note_on_c, 1, 52, 50
1, 60816, Note_on_c, 1, 52, 0
1, 60864, Note_on_c, 1, 38, 50
1, 60896, Note_on_c, 1, 38, 0
1, 60912, Note_on_c, 1, 50, 50
1, 61008, Note_on_c, 1, 50, 0
1, 61056, Note_on_c, 0, 64, 75
1, 61056, Note_on_c, 1, 48, 75
1, 61056, Note_on_c, 1, 36, 75
1, 61088, Note_on_c, 0, 64, 0
1, 61104, Note_on_c, 0, 67, 75
1, 61136, Note_on_c, 0, 67, 0
1, 61152, Note_on_c, 0, 65, 75
1, 61184, Note_on_c, 0, 65, 0
1, 61200, Note_on_c, 0, 64, 75
1, 61232, Note_on_c, 0, 64, 0
1, 61248, Note_on_c, 0, 65, 75
1, 61280, Note_on_c, 0, 65, 0
1, 61296, Note_on_c, 0, 67, 75
1, 61312, Note_on_c, 1, 48, 0
1, 61312, Note_on_c, 1, 36, 0
1, 61328, Note_on_c, 0, 67, 0
1, 61344, Note_on_c, 0, 69, 75
1, 61376, Note_on_c, 0, 69, 0
1, 61392, Note_on_c, 0, 71, 75
1, 61424, Note_on_c, 0, 71, 0
1, 61440, Note_on_c, 0, 72, 75
1, 61472, Note_on_c, 0, 72, 0
1, 61488, Note_on_c, 0, 74, 75
1, 61520, Note_on_c, 0, 74, 0
1, 61536, Note_on_c, 0, 72, 75
1, 61568, Note_on_c, 0, 72, 0
1, 61584, Note_on_c, 0, 71, 75
1, 61616, Note_on_c, 0, 71, 0
1, 61632, Note_on_c, 0, 72, 75
1, 61632, Note_on_c, 0, 60, 75
1, 61632, Note_on_c, 0, 64, 75
1, 61664, Note_on_c, 0, 72, 0
1, 61680, Note_on_c, 0, 74, 75
1, 61712, Note_on_c, 0, 74, 0
1, 61728, Note_on_c, 0, 76, 75
1, 61760, Note_on_c, 0, 60, 0
1, 61760, Note_on_c, 0, 64, 0
1, 61760, Note_on_c, 0, 76, 0
1, 61776, Note_on_c, 0, 77, 75
1, 61808, Note_on_c, 0, 77, 0
1, 61824, Note_on_c, 0, 79, 75
1, 61824, Note_on_c, 0, 64, 75
1, 61824, Note_on_c, 0, 60, 75
1, 61856, Note_on_c, 0, 79, 0
1, 61872, Note_on_c, 0, 81, 75
1, 61904, Note_on_c, 0, 81, 0
1, 61920, Note_on_c, 0, 79, 75
1, 61952, Note_on_c, 0, 64, 0
1, 61952, Note_on_c, 0, 60, 0
1, 61952, Note_on_c, 0, 79, 0
1, 61968, Note_on_c, 0, 78, 75
1, 62000, Note_on_c, 0, 78, 0
1, 62016, Note_on_c, 0, 79, 75
1, 62016, Note_on_c, 0, 64, 75
1, 62016, Note_on_c, 0, 60, 75
1, 62048, Note_on_c, 0, 79, 0
1, 62064, Note_on_c, 0, 81, 75
1, 62096, Note_on_c, 0, 81, 0
1, 62112, Note_on_c, 0, 79, 75
1, 62144, Note_on_c, 0, 64, 0
1, 62144, Note_on_c, 0, 60, 0
1, 62144, Note_on_c, 0, 79, 0
1, 62176, Note_on_c, 0, 81, 75
1, 62208, Note_on_c, 0, 81, 0
1, 62208, Note_on_c, 0, 72, 50
1, 62400, Note_on_c, 0, 72, 0
1, 62400, Note_on_c, 0, 62, 50
1, 62400, Note_on_c, 0, 65, 50
1, 62496, Note_on_c, 0, 74, 50
1, 62528, Note_on_c, 0, 62, 0
1, 62528, Note_on_c, 0, 65, 0
1, 62528, Note_on_c, 0, 74, 0
1, 62544, Note_on_c, 0, 72, 50
1, 62576, Note_on_c, 0, 72, 0
1, 62592, Note_on_c, 0, 71, 50
1, 62592, Note_on_c, 0, 65, 50
1, 62592, Note_on_c, 0, 62, 50
1, 62720, Note_on_c, 0, 71, 0
1, 62720, Note_on_c, 0, 65, 0
1, 62720, Note_on_c, 0, 62, 0
1, 62784, Note_on_c, 0, 65, 50
1, 62784, Note_on_c, 0, 62, 50
1, 62912, Note_on_c, 0, 65, 0
1, 62912, Note_on_c, 0, 62, 0
1, 62976, Note_on_c, 0, 65, 50
1, 62976, Note_on_c, 0, 62, 50
1, 63072, Note_on_c, 0, 70, 50
1, 63104, Note_on_c, 0, 65, 0
1, 63104, Note_on_c, 0, 62, 0
1, 63136, Note_on_c, 0, 70, 0
1, 63168, Note_on_c, 0, 74, 50
1, 63168, Note_on_c, 0, 65, 50
1, 63168, Note_on_c, 0, 62, 50
1, 63232, Note_on_c, 0, 74, 0
1, 63264, Note_on_c, 0, 77, 50
1, 63296, Note_on_c, 0, 65, 0
1, 63296, Note_on_c, 0, 62, 0
1, 63328, Note_on_c, 0, 77, 0
1, 63360, Note_on_c, 0, 83, 52
1, 63456, Note_on_c, 0, 83, 0
1, 63504, Note_on_c, 0, 77, 55
1, 63536, Note_on_c, 0, 77, 0
1, 63552, Note_on_c, 0, 86, 57
1, 63552, Note_on_c, 1, 55, 62
1, 63552, Note_on_c, 1, 59, 62
1, 63648, Note_on_c, 0, 86, 0
1, 63680, Note_on_c, 1, 55, 0
1, 63680, Note_on_c, 1, 59, 0
1, 63696, Note_on_c, 0, 83, 60
1, 63728, Note_on_c, 0, 83, 0
1, 63744, Note_on_c, 0, 89, 62
1, 63744, Note_on_c, 1, 55, 66
1, 63744, Note_on_c, 1, 59, 66
1, 63776, Note_on_c, 0, 89, 0
1, 63792, Note_on_c, 0, 88, 65
1, 63824, Note_on_c, 0, 88, 0
1, 63840, Note_on_c, 0, 86, 67
1, 63872, Note_on_c, 0, 86, 0
1, 63872, Note_on_c, 1, 55, 0
1, 63872, Note_on_c, 1, 59, 0
1, 63888, Note_on_c, 0, 88, 70
1, 63920, Note_on_c, 0, 88, 0
1, 63936, Note_on_c, 0, 86, 71
1, 63936, Note_on_c, 1, 55, 70
1, 63936, Note_on_c, 1, 59, 70
1, 63968, Note_on_c, 0, 86, 0
1, 63984, Note_on_c, 0, 84, 72
1, 64016, Note_on_c, 0, 84, 0
1, 64032, Note_on_c, 0, 83, 73
1, 64064, Note_on_c, 0, 83, 0
1, 64064, Note_on_c, 1, 55, 0
1, 64064, Note_on_c, 1, 59, 0
1, 64080, Note_on_c, 0, 84, 75
1, 64112, Note_on_c, 0, 84, 0
1, 64128, Note_on_c, 0, 83, 75
1, 64128, Note_on_c, 1, 55, 75
1, 64128, Note_on_c, 1, 59, 75
1, 64160, Note_on_c, 0, 83, 0
1, 64176, Note_on_c, 0, 84, 75
1, 64208, Note_on_c, 0, 84, 0
1, 64224, Note_on_c, 0, 86, 75
1, 64256, Note_on_c, 0, 86, 0
1, 64256, Note_on_c, 1, 55, 0
1, 64256, Note_on_c, 1, 59, 0
1, 64272, Note_on_c, 0, 84, 75
1, 64304, Note_on_c, 0, 84, 0
1, 64320, Note_on_c, 0, 83, 75
1, 64320, Note_on_c, 1, 55, 75
1, 64320, Note_on_c, 1, 59, 75
1, 64352, Note_on_c, 0, 83, 0
1, 64368, Note_on_c, 0, 81, 75
1, 64400, Note_on_c, 0, 81, 0
1, 64416, Note_on_c, 0, 79, 75
1, 64448, Note_on_c, 0, 79, 0
1, 64448, Note_on_c, 1, 55, 0
1, 64448, Note_on_c, 1, 59, 0
1, 64464, Note_on_c, 0, 77, 75
1, 64496, Note_on_c, 0, 77, 0
1, 64512, Note_on_c, 0, 75, 50
1, 64576, Note_on_c, 0, 75, 0
1, 64608, Note_on_c, 0, 76, 50
1, 64672, Note_on_c, 0, 76, 0
1, 64704, Note_on_c, 0, 77, 50
1, 64704, Note_on_c, 1, 60, 50
1, 64704, Note_on_c, 1, 48, 50
1, 64768, Note_on_c, 0, 77, 0
1, 64800, Note_on_c, 0, 76, 50
1, 64832, Note_on_c, 1, 60, 0
1, 64832, Note_on_c, 1, 48, 0
1, 64864, Note_on_c, 0, 76, 0
1, 64896, Note_on_c, 0, 76, 50
1, 64896, Note_on_c, 1, 60, 50
1, 64896, Note_on_c, 1, 48, 50
1, 65024, Note_on_c, 0, 76, 0
1, 65024, Note_on_c, 1, 60, 0
1, 65024, Note_on_c, 1, 48, 0
1, 65088, Note_on_c, 1, 60, 50
1, 65088, Note_on_c, 1, 48, 50
1, 65216, Note_on_c, 1, 60, 0
1, 65216, Note_on_c, 1, 48, 0
1, 65280, Note_on_c, 0, 72, 75
1, 65280, Note_on_c, 1, 40, 75
1, 65312, Note_on_c, 0, 72, 0
1, 65328, Note_on_c, 0, 74, 75
1, 65360, Note_on_c, 0, 74, 0
1, 65376, Note_on_c, 0, 76, 75
1, 65408, Note_on_c, 0, 76, 0
1, 65408, Note_on_c, 1, 40, 0
1, 65424, Note_on_c, 0, 77, 75
1, 65456, Note_on_c, 0, 77, 0
1, 65472, Note_on_c, 0, 79, 75
1, 65472, Note_on_c, 1, 52, 75
1, 65504, Note_on_c, 0, 79, 0
1, 65520, Note_on_c, 0, 81, 75
1, 65552, Note_on_c, 0, 81, 0
1, 65568, Note_on_c, 0, 83, 75
1, 65600, Note_on_c, 0, 83, 0
1, 65600, Note_on_c, 1, 52, 0
1, 65616, Note_on_c, 0, 84, 75
1, 65648, Note_on_c, 0, 84, 0
1, 65664, Note_on_c, 0, 84, 75
1, 65664, Note_on_c, 0, 72, 75
1, 65664, Note_on_c, 1, 41, 75
1, 65728, Note_on_c, 0, 84, 0
1, 65760, Note_on_c, 0, 74, 75
1, 65792, Note_on_c, 1, 41, 0
1, 65824, Note_on_c, 0, 74, 0
1, 65856, Note_on_c, 0, 74, 75
1, 65856, Note_on_c, 1, 53, 75
1, 65876, Note_on_c, 1, 53, 0
1, 65880, Note_on_c, 1, 55, 75
1, 65900, Note_on_c, 1, 55, 0
1, 65904, Note_on_c, 1, 53, 75
1, 65920, Note_on_c, 0, 72, 0
1, 65924, Note_on_c, 1, 53, 0
1, 65928, Note_on_c, 1, 55, 75
1, 65948, Note_on_c, 1, 55, 0
1, 65952, Note_on_c, 1, 52, 75
1, 65972, Note_on_c, 1, 52, 0
1, 65976, Note_on_c, 1, 53, 75
1, 65984, Note_on_c, 0, 74, 0
1, 65996, Note_on_c, 1, 53, 0
1, 66000, Note_on_c, 1, 52, 75
1, 66044, Note_on_c, 1, 52, 0
1, 66048, Note_on_c, 0, 74, 75
1, 66048, Note_on_c, 0, 72, 75
1, 66048, Note_on_c, 1, 53, 75
1, 66144, Note_on_c, 0, 74, 0
1, 66176, Note_on_c, 1, 53, 0
1, 66192, Note_on_c, 0, 84, 75
1, 66224, Note_on_c, 0, 84, 0
1, 66240, Note_on_c, 0, 75, 75
1, 66240, Note_on_c, 1, 54, 75
1, 66304, Note_on_c, 0, 72, 0
1, 66336, Note_on_c, 0, 75, 0
1, 66368, Note_on_c, 1, 54, 0
1, 66384, Note_on_c, 0, 84, 75
1, 66416, Note_on_c, 0, 84, 0
1, 66432, Note_on_c, 0, 72, 75
1, 66432, Note_on_c, 0, 72, 75
1, 66432, Note_on_c, 1, 55, 75
1, 66464, Note_on_c, 0, 72, 0
1, 66480, Note_on_c, 0, 74, 75
1, 66512, Note_on_c, 0, 74, 0
1, 66528, Note_on_c, 0, 76, 75
1, 66560, Note_on_c, 0, 76, 0
1, 66560, Note_on_c, 1, 55, 0
1, 66576, Note_on_c, 0, 77, 75
1, 66608, Note_on_c, 0, 77, 0
1, 66624, Note_on_c, 0, 79, 75
1, 66624, Note_on_c, 1, 43, 75
1, 66656, Note_on_c, 0, 79, 0
1, 66672, Note_on_c, 0, 81, 75
1, 66688, Note_on_c, 0, 72, 0
1, 66704, Note_on_c, 0, 81, 0
1, 66720, Note_on_c, 0, 83, 75
1, 66752, Note_on_c, 0, 83, 0
1, 66752, Note_on_c, 1, 43, 0
1, 66768, Note_on_c, 0, 84, 75
1, 66800, Note_on_c, 0, 84, 0
1, 66816, Note_on_c, 0, 84, 75
1, 66816, Note_on_c, 0, 72, 75
1, 66816, Note_on_c, 1, 45, 75
1, 66880, Note_on_c, 0, 84, 0
1, 66912, Note_on_c, 0, 77, 75
1, 66944, Note_on_c, 1, 45, 0
1, 66976, Note_on_c, 0, 77, 0
1, 67008, Note_on_c, 0, 77, 75
1, 67008, Note_on_c, 1, 57, 75
1, 67028, Note_on_c, 1, 57, 0
1, 67032, Note_on_c, 1, 58, 75
1, 67052, Note_on_c, 1, 58, 0
1, 67056, Note_on_c, 1, 57, 75
1, 67072, Note_on_c, 0, 72, 0
1, 67076, Note_on_c, 1, 57, 0
1, 67080, Note_on_c, 1, 58, 75
1, 67100, Note_on_c, 1, 58, 0
1, 67104, Note_on_c, 1, 55, 75
1, 67124, Note_on_c, 1, 55, 0
1, 67128, Note_on_c, 1, 57, 75
1, 67136, Note_on_c, 0, 77, 0
1, 67148, Note_on_c, 1, 57, 0
1, 67152, Note_on_c, 1, 56, 75
1, 67196, Note_on_c, 1, 56, 0
1, 67200, Note_on_c, 0, 77, 75
1, 67200, Note_on_c, 0, 72, 75
1, 67200, Note_on_c, 1, 57, 75
1, 67296, Note_on_c, 0, 77, 0
1, 67328, Note_on_c, 1, 57, 0
1, 67344, Note_on_c, 0, 84, 75
1, 67376, Note_on_c, 0, 84, 0
1, 67392, Note_on_c, 0, 78, 75
1, 67392, Note_on_c, 1, 45, 75
1, 67456, Note_on_c, 0, 72, 0
1, 67520, Note_on_c, 1, 45, 0
1, 67536, Note_on_c, 0, 84, 75
1, 67568, Note_on_c, 0, 84, 0
1, 67584, Note_on_c, 0, 72, 75
1, 67584, Note_on_c, 0, 72, 75
1, 67584, Note_on_c, 1, 40, 75
1, 67616, Note_on_c, 0, 72, 0
1, 67632, Note_on_c, 0, 74, 75
1, 67664, Note_on_c, 0, 74, 0
1, 67680, Note_on_c, 0, 76, 75
1, 67712, Note_on_c, 0, 76, 0
1, 67712, Note_on_c, 1, 40, 0
1, 67728, Note_on_c, 0, 77, 75
1, 67760, Note_on_c, 0, 77, 0
1, 67776, Note_on_c, 0, 79, 75
1, 67776, Note_on_c, 1, 52, 75
1, 67808, Note_on_c, 0, 79, 0
1, 67824, Note_on_c, 0, 81, 75
1, 67840, Note_on_c, 0, 72, 0
1, 67856, Note_on_c, 0, 81, 0
1, 67872, Note_on_c, 0, 78, 0
1, 67872, Note_on_c, 0, 83, 75
1, 67904, Note_on_c, 0, 83, 0
1, 67904, Note_on_c, 1, 52, 0
1, 67920, Note_on_c, 0, 84, 75
1, 67952, Note_on_c, 0, 84, 0
1, 67968, Note_on_c, 0, 80, 50
1, 67968, Note_on_c, 1, 53, 50
1, 67968, Note_on_c, 1, 57, 50
1, 68000, Note_on_c, 0, 80, 0
1, 68016, Note_on_c, 0, 81, 50
1, 68048, Note_on_c, 0, 81, 0
1, 68064, Note_on_c, 0, 83, 50
1, 68064, Note_on_c, 1, 61, 50
1, 68096, Note_on_c, 0, 83, 0
1, 68096, Note_on_c, 1, 53, 0
1, 68096, Note_on_c, 1, 57, 0
1, 68112, Note_on_c, 0, 81, 50
1, 68128, Note_on_c, 1, 61, 0
1, 68144, Note_on_c, 0, 81, 0
1, 68160, Note_on_c, 0, 79, 50
1, 68160, Note_on_c, 1, 53, 50
1, 68160, Note_on_c, 1, 62, 50
1, 68192, Note_on_c, 0, 79, 0
1, 68208, Note_on_c, 0, 77, 50
1, 68224, Note_on_c, 1, 62, 0
1, 68240, Note_on_c, 0, 77, 0
1, 68256, Note_on_c, 0, 76, 50
1, 68288, Note_on_c, 0, 76, 0
1, 68288, Note_on_c, 1, 53, 0
1, 68304, Note_on_c, 0, 74, 50
1, 68336, Note_on_c, 0, 74, 0
1, 68352, Note_on_c, 0, 72, 50
1, 68352, Note_on_c, 1, 55, 50
1, 68352, Note_on_c, 1, 64, 50
1, 68480, Note_on_c, 1, 55, 0
1, 68480, Note_on_c, 1, 64, 0
1, 68544, Note_on_c, 1, 55, 50
1, 68544, Note_on_c, 1, 64, 50
1, 68608, Note_on_c, 0, 72, 0
1, 68672, Note_on_c, 1, 55, 0
1, 68672, Note_on_c, 1, 64, 0
1, 68688, Note_on_c, 0, 76, 50
1, 68732, Note_on_c, 0, 76, 0
1, 68736, Note_on_c, 0, 74, 50
1, 68736, Note_on_c, 0, 71, 50
1, 68736, Note_on_c, 1, 55, 50
1, 68736, Note_on_c, 1, 65, 50
1, 68864, Note_on_c, 1, 55, 0
1, 68864, Note_on_c, 1, 65, 0
1, 68896, Note_on_c, 1, 65, 50
1, 68928, Note_on_c, 0, 74, 0
1, 68928, Note_on_c, 1, 55, 50
1, 68992, Note_on_c, 0, 71, 0
1, 69024, Note_on_c, 0, 72, 50
1, 69024, Note_on_c, 1, 65, 0
1, 69056, Note_on_c, 1, 55, 0
1, 69088, Note_on_c, 0, 72, 0
1, 69120, Note_on_c, 0, 72, 75
1, 69120, Note_on_c, 0, 72, 75
1, 69120, Note_on_c, 1, 64, 75
1, 69120, Note_on_c, 1, 60, 75
1, 69248, Note_on_c, 1, 64, 0
1, 69248, Note_on_c, 1, 60, 0
1, 69312, Note_on_c, 1, 48, 75
1, 69440, Note_on_c, 1, 48, 0
1, 69504, Note_on_c, 1, 60, 75
1, 69536, Note_on_c, 1, 60, 0
1, 69552, Note_on_c, 1, 62, 75
1, 69584, Note_on_c, 1, 62, 0
1, 69600, Note_on_c, 1, 60, 75
1, 69632, Note_on_c, 0, 72, 0
1, 69632, Note_on_c, 1, 60, 0
1, 69696, Note_on_c, 1, 58, 75
1, 69728, Note_on_c, 1, 58, 0
1, 69744, Note_on_c, 1, 60, 75
1, 69776, Note_on_c, 1, 60, 0
1, 69792, Note_on_c, 1, 58, 75
1, 69824, Note_on_c, 1, 58, 0
1, 69888, Note_on_c, 0, 72, 0
1, 69888, Note_on_c, 0, 72, 75
1, 69888, Note_on_c, 1, 57, 75
1, 69920, Note_on_c, 1, 57, 0
1, 69936, Note_on_c, 1, 58, 75
1, 69968, Note_on_c, 1, 58, 0
1, 69984, Note_on_c, 1, 57, 75
1, 70016, Note_on_c, 0, 72, 0
1, 70016, Note_on_c, 1, 57, 0
1, 70080, Note_on_c, 0, 73, 75
1, 70080, Note_on_c, 1, 55, 75
1, 70112, Note_on_c, 1, 55, 0
1, 70128, Note_on_c, 1, 57, 75
1, 70160, Note_on_c, 1, 57, 0
1, 70176, Note_on_c, 1, 55, 75
1, 70208, Note_on_c, 0, 73, 0
1, 70208, Note_on_c, 1, 55, 0
1, 70272, Note_on_c, 0, 74, 75
1, 70272, Note_on_c, 1, 54, 75
1, 70304, Note_on_c, 1, 54, 0
1, 70320, Note_on_c, 1, 55, 75
1, 70352, Note_on_c, 1, 55, 0
1, 70352, Note_on_c, 1, 54, 75
1, 70384, Note_on_c, 1, 54, 0
1, 70464, Note_on_c, 1, 50, 75
1, 70496, Note_on_c, 1, 50, 0
1, 70512, Note_on_c, 1, 52, 75
1, 70528, Note_on_c, 0, 74, 0
1, 70544, Note_on_c, 1, 52, 0
1, 70560, Note_on_c, 1, 50, 75
1, 70592, Note_on_c, 1, 50, 0
1, 70656, Note_on_c, 0, 74, 75
1, 70656, Note_on_c, 0, 70, 75
1, 70656, Note_on_c, 1, 58, 75
1, 70688, Note_on_c, 1, 58, 0
1, 70704, Note_on_c, 1, 60, 75
1, 70736, Note_on_c, 1, 60, 0
1, 70752, Note_on_c, 1, 58, 75
1, 70784, Note_on_c, 1, 58, 0
1, 70848, Note_on_c, 0, 74, 0
1, 70848, Note_on_c, 1, 57, 75
1, 70880, Note_on_c, 1, 57, 0
1, 70896, Note_on_c, 1, 58, 75
1, 70928, Note_on_c, 1, 58, 0
1, 70944, Note_on_c, 0, 76, 75
1, 70944, Note_on_c, 1, 57, 75
1, 70976, Note_on_c, 0, 76, 0
1, 70976, Note_on_c, 1, 57, 0
1, 70992, Note_on_c, 0, 78, 75
1, 71024, Note_on_c, 0, 78, 0
1, 71040, Note_on_c, 0, 79, 75
1, 71040, Note_on_c, 1, 55, 75
1, 71072, Note_on_c, 1, 55, 0
1, 71088, Note_on_c, 1, 57, 75
1, 71104, Note_on_c, 0, 79, 0
1, 71120, Note_on_c, 1, 57, 0
1, 71136, Note_on_c, 0, 81, 75
1, 71136, Note_on_c, 1, 55, 75
1, 71168, Note_on_c, 0, 70, 0
1, 71168, Note_on_c, 1, 55, 0
1, 71200, Note_on_c, 0, 81, 0
1, 71232, Note_on_c, 0, 82, 75
1, 71232, Note_on_c, 1, 53, 75
1, 71264, Note_on_c, 1, 53, 0
1, 71280, Note_on_c, 1, 55, 75
1, 71296, Note_on_c, 0, 82, 0
1, 71312, Note_on_c, 1, 55, 0
1, 71328, Note_on_c, 0, 74, 75
1, 71328, Note_on_c, 1, 53, 75
1, 71360, Note_on_c, 1, 53, 0
1, 71392, Note_on_c, 0, 74, 0
1, 71424, Note_on_c, 0, 72, 75
1, 71424, Note_on_c, 1, 52, 75
1, 71456, Note_on_c, 1, 52, 0
1, 71472, Note_on_c, 1, 53, 75
1, 71504, Note_on_c, 1, 53, 0
1, 71520, Note_on_c, 1, 52, 75
1, 71552, Note_on_c, 1, 52, 0
1, 71616, Note_on_c, 1, 48, 75
1, 71648, Note_on_c, 1, 48, 0
1, 71664, Note_on_c, 1, 50, 75
1, 71680, Note_on_c, 0, 72, 0
1, 71696, Note_on_c, 1, 50, 0
1, 71712, Note_on_c, 1, 48, 75
1, 71744, Note_on_c, 1, 48, 0
1, 71808, Note_on_c, 0, 72, 75
1, 71808, Note_on_c, 0, 69, 75
1, 71808, Note_on_c, 1, 57, 75
1, 71840, Note_on_c, 1, 57, 0
1, 71856, Note_on_c, 1, 58, 75
1, 71888, Note_on_c, 1, 58, 0
1, 71904, Note_on_c, 1, 57, 75
1, 71936, Note_on_c, 1, 57, 0
1, 72000, Note_on_c, 0, 72, 0
1, 72000, Note_on_c, 1, 55, 75
1, 72032, Note_on_c, 1, 55, 0
1, 72048, Note_on_c, 1, 57, 75
1, 72080, Note_on_c, 1, 57, 0
1, 72096, Note_on_c, 0, 74, 75
1, 72096, Note_on_c, 1, 55, 75
1, 72128, Note_on_c, 0, 74, 0
1, 72128, Note_on_c, 1, 55, 0
1, 72144, Note_on_c, 0, 76, 75
1, 72176, Note_on_c, 0, 76, 0
1, 72192, Note_on_c, 0, 77, 75
1, 72192, Note_on_c, 1, 53, 75
1, 72224, Note_on_c, 1, 53, 0
1, 72240, Note_on_c, 1, 55, 75
1, 72256, Note_on_c, 0, 77, 0
1, 72272, Note_on_c, 1, 55, 0
1, 72288, Note_on_c, 0, 79, 75
1, 72288, Note_on_c, 1, 53, 75
1, 72320, Note_on_c, 0, 69, 0
1, 72320, Note_on_c, 1, 53, 0
1, 72352, Note_on_c, 0, 79, 0
1, 72384, Note_on_c, 0, 81, 75
1, 72384, Note_on_c, 1, 52, 75
1, 72416, Note_on_c, 1, 52, 0
1, 72432, Note_on_c, 1, 53, 75
1, 72448, Note_on_c, 0, 81, 0
1, 72464, Note_on_c, 1, 53, 0
1, 72480, Note_on_c, 0, 72, 75
1, 72480, Note_on_c, 1, 52, 75
1, 72512, Note_on_c, 1, 52, 0
1, 72544, Note_on_c, 0, 72, 0
1, 72576, Note_on_c, 0, 69, 75
1, 72576, Note_on_c, 0, 70, 75
1, 72576, Note_on_c, 1, 50, 75
1, 72704, Note_on_c, 0, 69, 0
1, 72768, Note_on_c, 0, 67, 75
1, 72832, Note_on_c, 0, 70, 0
1, 72832, Note_on_c, 0, 67, 0
1, 72832, Note_on_c, 1, 50, 0
1, 72864, Note_on_c, 0, 66, 75
1, 72928, Note_on_c, 0, 66, 0
1, 72960, Note_on_c, 0, 70, 50
1, 72960, Note_on_c, 0, 67, 50
1, 72960, Note_on_c, 1, 52, 50
1, 73088, Note_on_c, 0, 70, 0
1, 73088, Note_on_c, 1, 52, 0
1, 73152, Note_on_c, 0, 74, 50
1, 73152, Note_on_c, 1, 48, 50
1, 73216, Note_on_c, 0, 67, 0
1, 73216, Note_on_c, 0, 74, 0
1, 73248, Note_on_c, 0, 72, 50
1, 73280, Note_on_c, 1, 48, 0
1, 73312, Note_on_c, 0, 72, 0
1, 73344, Note_on_c, 0, 70, 50
1, 73344, Note_on_c, 0, 67, 50
1, 73344, Note_on_c, 1, 50, 50
1, 73408, Note_on_c, 0, 70, 0
1, 73408, Note_on_c, 0, 67, 0
1, 73440, Note_on_c, 0, 65, 50
1, 73440, Note_on_c, 0, 69, 50
1, 73472, Note_on_c, 1, 50, 0
1, 73504, Note_on_c, 0, 65, 0
1, 73504, Note_on_c, 0, 69, 0
1, 73536, Note_on_c, 0, 69, 50
1, 73536, Note_on_c, 0, 72, 50
1, 73536, Note_on_c, 1, 46, 50
1, 73600, Note_on_c, 0, 69, 0
1, 73600, Note_on_c, 0, 72, 0
1, 73632, Note_on_c, 0, 67, 50
1, 73632, Note_on_c, 0, 70, 50
1, 73664, Note_on_c, 1, 46, 0
1, 73696, Note_on_c, 0, 67, 0
1, 73696, Note_on_c, 0, 70, 0
1, 73728, Note_on_c, 0, 69, 50
1, 73728, Note_on_c, 0, 65, 50
1, 73728, Note_on_c, 1, 48, 50
1, 73856, Note_on_c, 0, 69, 0
1, 73856, Note_on_c, 1, 48, 0
1, 73920, Note_on_c, 0, 67, 50
1, 73920, Note_on_c, 1, 60, 50
1, 73952, Note_on_c, 0, 67, 0
1, 73968, Note_on_c, 0, 69, 50
1, 73984, Note_on_c, 0, 65, 0
1, 74000, Note_on_c, 0, 69, 0
1, 74016, Note_on_c, 0, 70, 50
1, 74048, Note_on_c, 0, 70, 0
1, 74048, Note_on_c, 1, 60, 0
1, 74064, Note_on_c, 0, 69, 50
1, 74096, Note_on_c, 0, 69, 0
1, 74112, Note_on_c, 0, 67, 50
1, 74112, Note_on_c, 0, 64, 50
1, 74112, Note_on_c, 1, 58, 50
1, 74144, Note_on_c, 1, 58, 0
1, 74160, Note_on_c, 1, 62, 50
1, 74192, Note_on_c, 1, 62, 0
1, 74208, Note_on_c, 1, 48, 50
1, 74240, Note_on_c, 0, 67, 0
1, 74240, Note_on_c, 0, 64, 0
1, 74240, Note_on_c, 1, 48, 0
1, 74304, Note_on_c, 1, 57, 50
1, 74336, Note_on_c, 1, 57, 0
1, 74352, Note_on_c, 1, 58, 50
1, 74384, Note_on_c, 1, 58, 0
1, 74400, Note_on_c, 1, 46, 50
1, 74432, Note_on_c, 1, 46, 0
1, 74496, Note_on_c, 1, 55, 50
1, 74528, Note_on_c, 1, 55, 0
1, 74544, Note_on_c, 1, 57, 50
1, 74576, Note_on_c, 1, 57, 0
1, 74592, Note_on_c, 1, 45, 50
1, 74624, Note_on_c, 1, 45, 0
1, 74688, Note_on_c, 1, 53, 50
1, 74720, Note_on_c, 1, 53, 0
1, 74736, Note_on_c, 1, 55, 50
1, 74768, Note_on_c, 1, 55, 0
1, 74784, Note_on_c, 1, 43, 50
1, 74816, Note_on_c, 1, 43, 0
1, 74880, Note_on_c, 0, 70, 50
1, 74880, Note_on_c, 1, 41, 50
1, 74912, Note_on_c, 0, 70, 0
1, 74928, Note_on_c, 0, 69, 50
1, 74960, Note_on_c, 0, 69, 0
1, 74976, Note_on_c, 0, 68, 50
1, 75008, Note_on_c, 0, 68, 0
1, 75008, Note_on_c, 1, 41, 0
1, 75024, Note_on_c, 0, 69, 50
1, 75056, Note_on_c, 0, 69, 0
1, 75072, Note_on_c, 0, 72, 50
1, 75104, Note_on_c, 0, 72, 0
1, 75120, Note_on_c, 0, 70, 50
1, 75152, Note_on_c, 0, 70, 0
1, 75168, Note_on_c, 0, 69, 50
1, 75200, Note_on_c, 0, 69, 0
1, 75216, Note_on_c, 0, 70, 50
1, 75248, Note_on_c, 0, 70, 0
1, 75264, Note_on_c, 0, 72, 75
1, 75264, Note_on_c, 1, 53, 50
1, 75264, Note_on_c, 1, 57, 50
1, 75392, Note_on_c, 0, 72, 0
1, 75392, Note_on_c, 1, 57, 0
1, 75456, Note_on_c, 0, 72, 50
1, 75456, Note_on_c, 1, 57, 50
1, 75488, Note_on_c, 0, 72, 0
1, 75488, Note_on_c, 1, 57, 0
1, 75504, Note_on_c, 0, 69, 50
1, 75504, Note_on_c, 1, 60, 50
1, 75520, Note_on_c, 1, 53, 0
1, 75536, Note_on_c, 0, 69, 0
1, 75536, Note_on_c, 1, 60, 0
1, 75552, Note_on_c, 0, 72, 50
1, 75552, Note_on_c, 1, 57, 50
1, 75584, Note_on_c, 0, 72, 0
1, 75584, Note_on_c, 1, 57, 0
1, 75600, Note_on_c, 0, 69, 50
1, 75600, Note_on_c, 1, 60, 50
1, 75632, Note_on_c, 0, 69, 0
1, 75632, Note_on_c, 1, 60, 0
1, 75648, Note_on_c, 0, 65, 50
1, 75648, Note_on_c, 1, 53, 50
1, 75648, Note_on_c, 1, 57, 50
1, 75776, Note_on_c, 0, 65, 0
1, 75776, Note_on_c, 1, 53, 0
1, 75776, Note_on_c, 1, 57, 0
1, 76032, Note_on_c, 0, 76, 50
1, 76064, Note_on_c, 0, 76, 0
1, 76080, Note_on_c, 0, 74, 50
1, 76112, Note_on_c, 0, 74, 0
1, 76128, Note_on_c, 0, 73, 50
1, 76160, Note_on_c, 0, 73, 0
1, 76176, Note_on_c, 0, 74, 50
1, 76208, Note_on_c, 0, 74, 0
1, 76224, Note_on_c, 0, 77, 50
1, 76256, Note_on_c, 0, 77, 0
1, 76272, Note_on_c, 0, 76, 50
1, 76304, Note_on_c, 0, 76, 0
1, 76320, Note_on_c, 0, 74, 50
1, 76352, Note_on_c, 0, 74, 0
1, 76368, Note_on_c, 0, 76, 50
1, 76400, Note_on_c, 0, 76, 0
1, 76416, Note_on_c, 0, 77, 75
1, 76416, Note_on_c, 1, 57, 50
1, 76416, Note_on_c, 1, 60, 50
1, 76544, Note_on_c, 0, 77, 0
1, 76544, Note_on_c, 1, 60, 0
1, 76608, Note_on_c, 0, 77, 50
1, 76608, Note_on_c, 1, 60, 50
1, 76640, Note_on_c, 0, 77, 0
1, 76640, Note_on_c, 1, 60, 0
1, 76656, Note_on_c, 0, 72, 50
1, 76656, Note_on_c, 1, 65, 50
1, 76672, Note_on_c, 1, 57, 0
1, 76688, Note_on_c, 0, 72, 0
1, 76688, Note_on_c, 1, 65, 0
1, 76704, Note_on_c, 0, 77, 50
1, 76704, Note_on_c, 1, 60, 50
1, 76736, Note_on_c, 0, 77, 0
1, 76736, Note_on_c, 1, 60, 0
1, 76752, Note_on_c, 0, 72, 50
1, 76752, Note_on_c, 1, 65, 50
1, 76784, Note_on_c, 0, 72, 0
1, 76784, Note_on_c, 1, 65, 0
1, 76800, Note_on_c, 0, 69, 50
1, 76800, Note_on_c, 1, 57, 50
1, 76800, Note_on_c, 1, 60, 50
1, 76928, Note_on_c, 0, 69, 0
1, 76928, Note_on_c, 1, 57, 0
1, 76928, Note_on_c, 1, 60, 0
1, 77184, Note_on_c, 0, 79, 75
1, 77216, Note_on_c, 0, 79, 0
1, 77232, Note_on_c, 0, 77, 75
1, 77264, Note_on_c, 0, 77, 0
1, 77280, Note_on_c, 0, 76, 75
1, 77312, Note_on_c, 0, 76, 0
1, 77328, Note_on_c, 0, 77, 75
1, 77360, Note_on_c, 0, 77, 0
1, 77376, Note_on_c, 0, 81, 75
1, 77408, Note_on_c, 0, 81, 0
1, 77424, Note_on_c, 0, 79, 75
1, 77456, Note_on_c, 0, 79, 0
1, 77472, Note_on_c, 0, 78, 75
1, 77504, Note_on_c, 0, 78, 0
1, 77520, Note_on_c, 0, 79, 75
1, 77552, Note_on_c, 0, 79, 0
1, 77568, Note_on_c, 0, 81, 75
1, 77568, Note_on_c, 1, 57, 50
1, 77568, Note_on_c, 1, 60, 50
1, 77600, Note_on_c, 0, 81, 0
1, 77616, Note_on_c, 0, 82, 75
1, 77648, Note_on_c, 0, 82, 0
1, 77664, Note_on_c, 0, 84, 75
1, 77696, Note_on_c, 0, 84, 0
1, 77712, Note_on_c, 0, 82, 75
1, 77744, Note_on_c, 0, 82, 0
1, 77760, Note_on_c, 0, 81, 75
1, 77792, Note_on_c, 0, 81, 0
1, 77808, Note_on_c, 0, 79, 75
1, 77824, Note_on_c, 1, 57, 0
1, 77824, Note_on_c, 1, 60, 0
1, 77840, Note_on_c, 0, 79, 0
1, 77856, Note_on_c, 0, 77, 75
1, 77888, Note_on_c, 0, 77, 0
1, 77904, Note_on_c, 0, 76, 75
1, 77936, Note_on_c, 0, 76, 0
1, 77952, Note_on_c, 0, 77, 75
1, 77952, Note_on_c, 1, 57, 75
1, 77952, Note_on_c, 1, 60, 75
1, 77984, Note_on_c, 0, 77, 0
1, 78000, Note_on_c, 0, 79, 75
1, 78032, Note_on_c, 0, 79, 0
1, 78048, Note_on_c, 0, 81, 75
1, 78080, Note_on_c, 0, 81, 0
1, 78080, Note_on_c, 1, 60, 0
1, 78096, Note_on_c, 0, 76, 75
1, 78128, Note_on_c, 0, 76, 0
1, 78144, Note_on_c, 0, 77, 75
1, 78144, Note_on_c, 1, 62, 75
1, 78176, Note_on_c, 0, 77, 0
1, 78192, Note_on_c, 0, 72, 75
1, 78208, Note_on_c, 1, 57, 0
1, 78224, Note_on_c, 0, 72, 0
1, 78240, Note_on_c, 0, 74, 75
1, 78272, Note_on_c, 0, 74, 0
1, 78272, Note_on_c, 1, 62, 0
1, 78288, Note_on_c, 0, 69, 75
1, 78320, Note_on_c, 0, 69, 0
1, 78336, Note_on_c, 0, 72, 75
1, 78336, Note_on_c, 1, 55, 75
1, 78336, Note_on_c, 1, 62, 75
1, 78368, Note_on_c, 0, 72, 0
1, 78384, Note_on_c, 0, 70, 75
1, 78416, Note_on_c, 0, 70, 0
1, 78432, Note_on_c, 0, 69, 75
1, 78464, Note_on_c, 0, 69, 0
1, 78464, Note_on_c, 1, 55, 0
1, 78464, Note_on_c, 1, 62, 0
1, 78480, Note_on_c, 0, 70, 75
1, 78512, Note_on_c, 0, 70, 0
1, 78528, Note_on_c, 0, 72, 75
1, 78528, Note_on_c, 1, 60, 75
1, 78528, Note_on_c, 1, 64, 75
1, 78560, Note_on_c, 0, 72, 0
1, 78576, Note_on_c, 0, 70, 75
1, 78608, Note_on_c, 0, 70, 0
1, 78624, Note_on_c, 0, 69, 75
1, 78656, Note_on_c, 0, 69, 0
1, 78656, Note_on_c, 1, 60, 0
1, 78656, Note_on_c, 1, 64, 0
1, 78672, Note_on_c, 0, 70, 75
1, 78704, Note_on_c, 0, 70, 0
1, 78720, Note_on_c, 0, 69, 75
1, 78720, Note_on_c, 1, 53, 75
1, 78720, Note_on_c, 1, 65, 75
1, 78848, Note_on_c, 0, 69, 0
1, 78848, Note_on_c, 1, 53, 0
1, 78848, Note_on_c, 1, 65, 0
1, 79104, Note_on_c, 1, 45, 50
1, 79104, Note_on_c, 1, 57, 50
1, 79168, Note_on_c, 1, 45, 0
1, 79168, Note_on_c, 1, 57, 0
1, 79200, Note_on_c, 1, 46, 50
1, 79200, Note_on_c, 1, 58, 50
1, 79264, Note_on_c, 1, 46, 0
1, 79264, Note_on_c, 1, 58, 0
1, 79296, Note_on_c, 1, 47, 50
1, 79296, Note_on_c, 1, 59, 50
1, 79360, Note_on_c, 1, 47, 0
1, 79360, Note_on_c, 1, 59, 0
1, 79392, Note_on_c, 1, 48, 50
1, 79392, Note_on_c, 1, 60, 50
1, 79456, Note_on_c, 1, 48, 0
1, 79484, Note_on_c, 1, 60, 0
1, 79488, Note_on_c, 0, 72, 75
1, 79488, Note_on_c, 0, 69, 75
1, 79488, Note_on_c, 1, 53, 75
1, 79488, Note_on_c, 1, 41, 75
1, 79552, Note_on_c, 0, 72, 0
1, 79552, Note_on_c, 0, 69, 0
1, 79584, Note_on_c, 0, 72, 50
1, 79584, Note_on_c, 0, 69, 50
1, 79648, Note_on_c, 0, 72, 0
1, 79648, Note_on_c, 0, 69, 0
1, 79680, Note_on_c, 0, 69, 50
1, 79680, Note_on_c, 0, 72, 50
1, 79680, Note_on_c, 1, 53, 0
1, 79680, Note_on_c, 1, 41, 0
1, 79744, Note_on_c, 0, 69, 0
1, 79744, Note_on_c, 0, 72, 0
1, 79776, Note_on_c, 0, 72, 50
1, 79776, Note_on_c, 0, 69, 50
1, 79776, Note_on_c, 1, 55, 50
1, 79808, Note_on_c, 1, 55, 0
1, 79824, Note_on_c, 1, 53, 50
1, 79840, Note_on_c, 0, 72, 0
1, 79840, Note_on_c, 0, 69, 0
1, 79856, Note_on_c, 1, 53, 0
1, 79872, Note_on_c, 0, 72, 50
1, 79872, Note_on_c, 0, 70, 50
1, 79872, Note_on_c, 1, 52, 50
1, 79872, Note_on_c, 1, 40, 50
1, 79936, Note_on_c, 0, 72, 0
1, 79936, Note_on_c, 0, 70, 0
1, 79968, Note_on_c, 0, 70, 50
1, 79968, Note_on_c, 0, 72, 50
1, 80000, Note_on_c, 1, 52, 0
1, 80000, Note_on_c, 1, 40, 0
1, 80032, Note_on_c, 0, 70, 0
1, 80032, Note_on_c, 0, 72, 0
1, 80064, Note_on_c, 0, 70, 50
1, 80064, Note_on_c, 0, 72, 50
1, 80112, Note_on_c, 0, 72, 50
1, 80112, Note_on_c, 1, 52, 50
1, 80128, Note_on_c, 0, 70, 0
1, 80128, Note_on_c, 0, 72, 0
1, 80160, Note_on_c, 0, 70, 50
1, 80160, Note_on_c, 1, 64, 50
1, 80176, Note_on_c, 0, 72, 0
1, 80176, Note_on_c, 1, 52, 0
1, 80224, Note_on_c, 0, 70, 0
1, 80224, Note_on_c, 1, 64, 0
1, 80256, Note_on_c, 0, 72, 55
1, 80256, Note_on_c, 0, 70, 55
1, 80256, Note_on_c, 1, 67, 50
1, 80256, Note_on_c, 1, 55, 50
1, 80320, Note_on_c, 0, 72, 0
1, 80320, Note_on_c, 0, 70, 0
1, 80320, Note_on_c, 1, 67, 0
1, 80320, Note_on_c, 1, 55, 0
1, 80352, Note_on_c, 0, 72, 60
1, 80352, Note_on_c, 0, 69, 60
1, 80352, Note_on_c, 1, 65, 50
1, 80352, Note_on_c, 1, 53, 50
1, 80416, Note_on_c, 0, 72, 0
1, 80416, Note_on_c, 0, 69, 0
1, 80416, Note_on_c, 1, 65, 0
1, 80416, Note_on_c, 1, 53, 0
1, 80448, Note_on_c, 0, 67, 65
1, 80448, Note_on_c, 0, 72, 65
1, 80448, Note_on_c, 1, 64, 50
1, 80448, Note_on_c, 1, 52, 50
1, 80512, Note_on_c, 0, 67, 0
1, 80512, Note_on_c, 0, 72, 0
1, 80512, Note_on_c, 1, 64, 0
1, 80512, Note_on_c, 1, 52, 0
1, 80544, Note_on_c, 0, 72, 70
1, 80544, Note_on_c, 0, 65, 70
1, 80544, Note_on_c, 1, 62, 50
1, 80544, Note_on_c, 1, 50, 50
1, 80608, Note_on_c, 0, 72, 0
1, 80608, Note_on_c, 0, 65, 0
1, 80608, Note_on_c, 1, 62, 0
1, 80636, Note_on_c, 1, 50, 0
1, 80640, Note_on_c, 0, 72, 75
1, 80640, Note_on_c, 0, 64, 75
1, 80640, Note_on_c, 1, 60, 75
1, 80640, Note_on_c, 1, 48, 75
1, 80704, Note_on_c, 0, 72, 0
1, 80704, Note_on_c, 0, 64, 0
1, 80704, Note_on_c, 1, 60, 0
1, 80704, Note_on_c, 1, 48, 0
1, 80736, Note_on_c, 0, 74, 75
1, 80736, Note_on_c, 0, 65, 75
1, 80736, Note_on_c, 1, 59, 75
1, 80736, Note_on_c, 1, 47, 75
1, 80800, Note_on_c, 0, 74, 0
1, 80800, Note_on_c, 0, 65, 0
1, 80800, Note_on_c, 1, 59, 0
1, 80800, Note_on_c, 1, 47, 0
1, 80832, Note_on_c, 0, 76, 75
1, 80832, Note_on_c, 0, 67, 75
1, 80832, Note_on_c, 1, 58, 75
1, 80832, Note_on_c, 1, 46, 75
1, 80960, Note_on_c, 0, 76, 0
1, 80960, Note_on_c, 0, 67, 0
1, 80960, Note_on_c, 1, 58, 0
1, 80960, Note_on_c, 1, 46, 0
1, 81216, Note_on_c, 0, 77, 50
1, 81216, Note_on_c, 0, 65, 50
1, 81216, Note_on_c, 1, 57, 50
1, 81216, Note_on_c, 1, 45, 50
1, 81344, Note_on_c, 0, 77, 0
1, 81344, Note_on_c, 0, 65, 0
1, 81344, Note_on_c, 1, 57, 0
1, 81344, Note_on_c, 1, 45, 0
1, 81600, Note_on_c, 0, 74, 50
1, 81600, Note_on_c, 0, 65, 50
1, 81600, Note_on_c, 1, 56, 50
1, 81600, Note_on_c, 1, 47, 50
1, 81728, Note_on_c, 0, 74, 0
1, 81728, Note_on_c, 0, 65, 0
1, 81728, Note_on_c, 1, 56, 0
1, 81728, Note_on_c, 1, 47, 0
1, 81984, Note_on_c, 0, 72, 50
1, 81984, Note_on_c, 0, 65, 50
1, 81984, Note_on_c, 1, 48, 50
1, 81984, Note_on_c, 1, 57, 50
1, 82112, Note_on_c, 0, 72, 0
1, 82112, Note_on_c, 0, 65, 0
1, 82112, Note_on_c, 1, 48, 0
1, 82112, Note_on_c, 1, 57, 0
1, 82368, Note_on_c, 0, 65, 50
1, 82368, Note_on_c, 0, 60, 50
1, 82368, Note_on_c, 1, 57, 50
1, 82368, Note_on_c, 1, 48, 50
1, 82496, Note_on_c, 0, 65, 0
1, 82496, Note_on_c, 0, 60, 0
1, 82496, Note_on_c, 1, 57, 0
1, 82496, Note_on_c, 1, 48, 0
1, 82512, Note_on_c, 0, 69, 50
1, 82556, Note_on_c, 0, 69, 0
1, 82560, Note_on_c, 0, 67, 50
1, 82560, Note_on_c, 1, 58, 50
1, 82560, Note_on_c, 1, 48, 50
1, 82608, Note_on_c, 0, 64, 50
1, 82688, Note_on_c, 0, 67, 0
1, 82688, Note_on_c, 1, 58, 0
1, 82688, Note_on_c, 1, 48, 0
1, 82736, Note_on_c, 0, 64, 0
1, 82752, Note_on_c, 0, 65, 50
1, 82752, Note_on_c, 0, 62, 50
1, 82752, Note_on_c, 1, 58, 50
1, 82752, Note_on_c, 1, 48, 50
1, 82816, Note_on_c, 0, 65, 0
1, 82816, Note_on_c, 0, 62, 0
1, 82848, Note_on_c, 0, 67, 50
1, 82848, Note_on_c, 0, 64, 50
1, 82880, Note_on_c, 1, 58, 0
1, 82880, Note_on_c, 1, 48, 0
1, 82912, Note_on_c, 0, 67, 0
1, 82912, Note_on_c, 0, 64, 0
1, 82944, Note_on_c, 0, 67, 50
1, 82944, Note_on_c, 0, 64, 50
1, 82944, Note_on_c, 1, 58, 50
1, 82944, Note_on_c, 1, 53, 50
1, 83072, Note_on_c, 0, 67, 0
1, 83136, Note_on_c, 0, 68, 50
1, 83200, Note_on_c, 0, 64, 0
1, 83200, Note_on_c, 1, 58, 0
1, 83200, Note_on_c, 1, 53, 0
1, 83264, Note_on_c, 0, 68, 0
1, 83328, Note_on_c, 0, 69, 50
1, 83328, Note_on_c, 0, 65, 50
1, 83328, Note_on_c, 1, 57, 50
1, 83328, Note_on_c, 1, 53, 50
1, 83456, Note_on_c, 0, 69, 0
1, 83456, Note_on_c, 0, 65, 0
1, 83456, Note_on_c, 1, 57, 0
1, 83456, Note_on_c, 1, 53, 0
1, 83712, Note_on_c, 0, 69, 75
1, 83744, Note_on_c, 0, 69, 0
1, 83760, Note_on_c, 0, 81, 75
1, 83792, Note_on_c, 0, 81, 0
1, 83808, Note_on_c, 0, 70, 75
1, 83840, Note_on_c, 0, 70, 0
1, 83856, Note_on_c, 0, 82, 75
1, 83888, Note_on_c, 0, 82, 0
1, 83904, Note_on_c, 0, 71, 75
1, 83936, Note_on_c, 0, 71, 0
1, 83952, Note_on_c, 0, 83, 75
1, 83984, Note_on_c, 0, 83, 0
1, 84000, Note_on_c, 0, 72, 75
1, 84032, Note_on_c, 0, 72, 0
1, 84048, Note_on_c, 0, 84, 75
1, 84080, Note_on_c, 0, 84, 0
1, 84096, Note_on_c, 0, 65, 75
1, 84096, Note_on_c, 1, 36, 75
1, 84096, Note_on_c, 1, 48, 75
1, 84140, Note_on_c, 0, 65, 0
1, 84144, Note_on_c, 0, 77, 75
1, 84160, Note_on_c, 1, 36, 0
1, 84160, Note_on_c, 1, 48, 0
1, 84192, Note_on_c, 1, 38, 50
1, 84192, Note_on_c, 1, 50, 50
1, 84256, Note_on_c, 1, 38, 0
1, 84256, Note_on_c, 1, 50, 0
1, 84288, Note_on_c, 1, 52, 50
1, 84288, Note_on_c, 1, 40, 50
1, 84336, Note_on_c, 0, 77, 0
1, 84384, Note_on_c, 0, 79, 50
1, 84416, Note_on_c, 0, 79, 0
1, 84416, Note_on_c, 1, 52, 0
1, 84416, Note_on_c, 1, 40, 0
1, 84432, Note_on_c, 0, 77, 50
1, 84464, Note_on_c, 0, 77, 0
1, 84480, Note_on_c, 0, 76, 50
1, 84608, Note_on_c, 0, 76, 0
1, 84768, Note_on_c, 0, 76, 75
1, 84800, Note_on_c, 0, 76, 0
1, 84816, Note_on_c, 0, 88, 75
1, 84848, Note_on_c, 0, 88, 0
1, 84864, Note_on_c, 0, 77, 75
1, 84896, Note_on_c, 0, 77, 0
1, 84912, Note_on_c, 0, 89, 75
1, 84944, Note_on_c, 0, 89, 0
1, 84960, Note_on_c, 0, 76, 75
1, 84992, Note_on_c, 0, 76, 0
1, 85008, Note_on_c, 0, 88, 75
1, 85040, Note_on_c, 0, 88, 0
1, 85056, Note_on_c, 0, 77, 75
1, 85088, Note_on_c, 0, 77, 0
1, 85104, Note_on_c, 0, 89, 75
1, 85136, Note_on_c, 0, 89, 0
1, 85152, Note_on_c, 0, 74, 75
1, 85184, Note_on_c, 0, 74, 0
1, 85200, Note_on_c, 0, 86, 75
1, 85232, Note_on_c, 0, 86, 0
1, 85248, Note_on_c, 0, 72, 75
1, 85248, Note_on_c, 1, 48, 75
1, 85248, Note_on_c, 1, 36, 75
1, 85280, Note_on_c, 0, 72, 0
1, 85296, Note_on_c, 0, 84, 75
1, 85312, Note_on_c, 1, 48, 0
1, 85312, Note_on_c, 1, 36, 0
1, 85328, Note_on_c, 0, 84, 0
1, 85344, Note_on_c, 0, 70, 75
1, 85344, Note_on_c, 1, 50, 75
1, 85344, Note_on_c, 1, 38, 75
1, 85376, Note_on_c, 0, 70, 0
1, 85392, Note_on_c, 0, 82, 75
1, 85408, Note_on_c, 1, 50, 0
1, 85408, Note_on_c, 1, 38, 0
1, 85424, Note_on_c, 0, 82, 0
1, 85440, Note_on_c, 0, 70, 75
1, 85440, Note_on_c, 1, 52, 75
1, 85440, Note_on_c, 1, 40, 75
1, 85472, Note_on_c, 0, 70, 0
1, 85488, Note_on_c, 0, 82, 75
1, 85520, Note_on_c, 0, 82, 0
1, 85568, Note_on_c, 1, 52, 0
1, 85568, Note_on_c, 1, 40, 0
1, 85920, Note_on_c, 0, 79, 50
1, 85920, Note_on_c, 1, 58, 50
1, 85920, Note_on_c, 1, 52, 50
1, 85984, Note_on_c, 0, 79, 0
1, 85984, Note_on_c, 1, 58, 0
1, 85984, Note_on_c, 1, 52, 0
1, 86016, Note_on_c, 0, 84, 50
1, 86016, Note_on_c, 1, 57, 50
1, 86016, Note_on_c, 1, 53, 50
1, 86048, Note_on_c, 0, 84, 0
1, 86064, Note_on_c, 0, 81, 50
1, 86096, Note_on_c, 0, 81, 0
1, 86112, Note_on_c, 0, 77, 50
1, 86144, Note_on_c, 0, 77, 0
1, 86144, Note_on_c, 1, 57, 0
1, 86144, Note_on_c, 1, 53, 0
1, 86208, Note_on_c, 0, 82, 50
1, 86208, Note_on_c, 1, 58, 50
1, 86208, Note_on_c, 1, 55, 50
1, 86240, Note_on_c, 0, 82, 0
1, 86256, Note_on_c, 0, 79, 50
1, 86288, Note_on_c, 0, 79, 0
1, 86304, Note_on_c, 0, 76, 50
1, 86336, Note_on_c, 0, 76, 0
1, 86336, Note_on_c, 1, 58, 0
1, 86336, Note_on_c, 1, 55, 0
1, 86400, Note_on_c, 0, 77, 75
1, 86400, Note_on_c, 1, 60, 75
1, 86400, Note_on_c, 1, 57, 75
1, 86432, Note_on_c, 0, 77, 0
1, 86448, Note_on_c, 0, 72, 50
1, 86480, Note_on_c, 0, 72, 0
1, 86496, Note_on_c, 0, 69, 50
1, 86528, Note_on_c, 0, 69, 0
1, 86528, Note_on_c, 1, 60, 0
1, 86528, Note_on_c, 1, 57, 0
1, 86592, Note_on_c, 0, 74, 50
1, 86592, Note_on_c, 1, 55, 50
1, 86592, Note_on_c, 1, 46, 50
1, 86624, Note_on_c, 0, 74, 0
1, 86640, Note_on_c, 0, 70, 50
1, 86672, Note_on_c, 0, 70, 0
1, 86688, Note_on_c, 0, 67, 50
1, 86720, Note_on_c, 0, 67, 0
1, 86720, Note_on_c, 1, 55, 0
1, 86720, Note_on_c, 1, 46, 0
1, 86784, Note_on_c, 0, 65, 50
1, 86784, Note_on_c, 1, 57, 50
1, 86784, Note_on_c, 1, 48, 50
1, 86912, Note_on_c, 0, 65, 0
1, 86912, Note_on_c, 1, 57, 0
1, 86912, Note_on_c, 1, 48, 0
1, 87120, Note_on_c, 0, 69, 50
1, 87164, Note_on_c, 0, 69, 0
1, 87168, Note_on_c, 0, 67, 50
1, 87168, Note_on_c, 0, 64, 50
1, 87168, Note_on_c, 1, 58, 50
1, 87168, Note_on_c, 1, 48, 50
1, 87296, Note_on_c, 0, 67, 0
1, 87360, Note_on_c, 0, 65, 50
1, 87424, Note_on_c, 0, 64, 0
1, 87424, Note_on_c, 0, 65, 0
1, 87424, Note_on_c, 1, 58, 0
1, 87424, Note_on_c, 1, 48, 0
1, 87456, Note_on_c, 0, 67, 50
1, 87520, Note_on_c, 0, 67, 0
1, 87552, Note_on_c, 0, 65, 50
1, 87552, Note_on_c, 1, 57, 75
1, 87552, Note_on_c, 1, 53, 75
1, 87616, Note_on_c, 0, 65, 0
1, 87648, Note_on_c, 0, 72, 75
1, 87680, Note_on_c, 1, 57, 0
1, 87680, Note_on_c, 1, 53, 0
1, 87712, Note_on_c, 0, 72, 0
1, 87744, Note_on_c, 0, 71, 70
1, 87808, Note_on_c, 0, 71, 0
1, 87840, Note_on_c, 0, 70, 67
1, 87904, Note_on_c, 0, 70, 0
1, 87936, Note_on_c, 0, 69, 65
1, 88000, Note_on_c, 0, 69, 0
1, 88032, Note_on_c, 0, 68, 60
1, 88096, Note_on_c, 0, 68, 0
1, 88128, Note_on_c, 0, 67, 55
1, 88192, Note_on_c, 0, 67, 0
1, 88224, Note_on_c, 0, 65, 52
1, 88288, Note_on_c, 0, 65, 0
1, 88320, Note_on_c, 0, 69, 50
1, 88320, Note_on_c, 1, 58, 50
1, 88320, Note_on_c, 1, 48, 50
1, 88364, Note_on_c, 0, 69, 0
1, 88368, Note_on_c, 0, 67, 50
1, 88368, Note_on_c, 0, 64, 50
1, 88496, Note_on_c, 0, 67, 0
1, 88512, Note_on_c, 0, 65, 50
1, 88576, Note_on_c, 0, 65, 0
1, 88576, Note_on_c, 1, 58, 0
1, 88576, Note_on_c, 1, 48, 0
1, 88608, Note_on_c, 0, 67, 50
1, 88672, Note_on_c, 0, 67, 0
1, 88692, Note_on_c, 0, 64, 0
1, 88704, Note_on_c, 0, 65, 50
1, 88704, Note_on_c, 1, 57, 75
1, 88704, Note_on_c, 1, 53, 75
1, 88768, Note_on_c, 0, 65, 0
1, 88800, Note_on_c, 0, 72, 75
1, 88832, Note_on_c, 1, 57, 0
1, 88832, Note_on_c, 1, 53, 0
1, 88864, Note_on_c, 0, 72, 0
1, 88896, Note_on_c, 0, 71, 70
1, 88960, Note_on_c, 0, 71, 0
1, 88992, Note_on_c, 0, 70, 67
1, 89056, Note_on_c, 0, 70, 0
1, 89088, Note_on_c, 0, 69, 65
1, 89152, Note_on_c, 0, 69, 0
1, 89184, Note_on_c, 0, 68, 60
1, 89248, Note_on_c, 0, 68, 0
1, 89280, Note_on_c, 0, 67, 55
1, 89344, Note_on_c, 0, 67, 0
1, 89376, Note_on_c, 0, 65, 52
1, 89440, Note_on_c, 0, 65, 0
1, 89472, Note_on_c, 0, 69, 50
1, 89516, Note_on_c, 0, 69, 0
1, 89520, Note_on_c, 0, 67, 50
1, 89520, Note_on_c, 0, 64, 50
1, 89648, Note_on_c, 0, 67, 0
1, 89664, Note_on_c, 0, 65, 50
1, 89728, Note_on_c, 0, 65, 0
1, 89760, Note_on_c, 0, 67, 50
1, 89824, Note_on_c, 0, 67, 0
1, 89844, Note_on_c, 0, 64, 0
1, 89856, Note_on_c, 0, 65, 50
1, 89856, Note_on_c, 1, 57, 50
1, 89856, Note_on_c, 1, 53, 50
1, 89984, Note_on_c, 0, 65, 0
1, 89984, Note_on_c, 1, 57, 0
1, 89984, Note_on_c, 1, 53, 0
1, 90240, Note_on_c, 1, 60, 37
1, 90432, Note_on_c, 1, 45, 37
1, 90432, Note_on_c, 1, 33, 37
1, 90432, Note_on_c, 1, 57, 37
1, 90432, Note_on_c, 1, 53, 37
1, 90496, Note_on_c, 1, 60, 0
1, 90560, Note_on_c, 1, 45, 0
1, 90560, Note_on_c, 1, 33, 0
1, 90560, Note_on_c, 1, 57, 0
1, 90560, Note_on_c, 1, 53, 0
1, 90624, Note_on_c, 1, 55, 37
1, 90624, Note_on_c, 1, 52, 37
1, 90752, Note_on_c, 1, 55, 0
1, 90752, Note_on_c, 1, 52, 0
1, 90816, Note_on_c, 1, 48, 37
1, 90816, Note_on_c, 1, 36, 37
1, 90816, Note_on_c, 1, 58, 37
1, 90816, Note_on_c, 1, 55, 37
1, 90944, Note_on_c, 1, 48, 0
1, 90944, Note_on_c, 1, 36, 0
1, 90944, Note_on_c, 1, 58, 0
1, 90944, Note_on_c, 1, 55, 0
1, 91008, Note_on_c, 1, 58, 37
1, 91008, Note_on_c, 1, 55, 37
1, 91008, Note_on_c, 1, 52, 37
1, 91008, Note_on_c, 1, 48, 37
1, 91008, Note_on_c, 1, 41, 37
1, 91520, Note_on_c, 1, 58, 0
1, 91520, Note_on_c, 1, 55, 0
1, 91520, Note_on_c, 1, 52, 0
1, 91520, Note_on_c, 1, 48, 0
1, 91520, Note_on_c, 1, 41, 0
1, 91776, Note_on_c, 1, 57, 37
1, 91776, Note_on_c, 1, 48, 37
1, 91776, Note_on_c, 1, 41, 37
1, 91776, Note_on_c, 1, 53, 37
1, 91904, Note_on_c, 1, 57, 0
1, 91904, Note_on_c, 1, 48, 0
1, 91904, Note_on_c, 1, 41, 0
1, 91904, Note_on_c, 1, 53, 0
1, 91914, End_track
0, 0, End_of_file