0, 0, Header, 0, 1, 16384
1, 0, Start_track
1, 0, Tempo, 500000
1, 0, Note_on_c, 0, 60, 76
1, 0, Note_on_c, 0, 60, 76
1, 7372, Note_on_c, 0, 60, 0
1, 8192, Note_on_c, 0, 67, 76
1, 15564, Note_on_c, 0, 67, 0
1, 16384, Note_on_c, 0, 64, 76
1, 23756, Note_on_c, 0, 64, 0
1, 24576, Note_on_c, 0, 67, 76
1, 29491, Note_on_c, 0, 60, 0
1, 31948, Note_on_c, 0, 67, 0
1, 32768, Note_on_c, 0, 76, 76
1, 32768, Note_on_c, 0, 60, 76
1, 40140, Note_on_c, 0, 60, 0
1, 40960, Note_on_c, 0, 67, 76
1, 47513, Note_on_c, 0, 76, 0
1, 48332, Note_on_c, 0, 67, 0
1, 49152, Note_on_c, 0, 79, 76
1, 49152, Note_on_c, 0, 64, 76
1, 56524, Note_on_c, 0, 64, 0
1, 57344, Note_on_c, 0, 67, 76
1, 63897, Note_on_c, 0, 79, 0
1, 64716, Note_on_c, 0, 67, 0
1, 65536, Note_on_c, 0, 71, 76
1, 65536, Note_on_c, 0, 62, 76
1, 72908, Note_on_c, 0, 62, 0
1, 73728, Note_on_c, 0, 67, 76
1, 81100, Note_on_c, 0, 67, 0
1, 81920, Note_on_c, 0, 65, 76
1, 87654, Note_on_c, 0, 71, 0
1, 89292, Note_on_c, 0, 65, 0
1, 90112, Note_on_c, 0, 72, 76
1, 90112, Note_on_c, 0, 67, 76
1, 93798, Note_on_c, 0, 72, 0
1, 94208, Note_on_c, 0, 74, 76
1, 97484, Note_on_c, 0, 67, 0
1, 97894, Note_on_c, 0, 74, 0
1, 98304, Note_on_c, 0, 72, 76
1, 98304, Note_on_c, 0, 60, 76
1, 105676, Note_on_c, 0, 60, 0
1, 106496, Note_on_c, 0, 67, 76
1, 113049, Note_on_c, 0, 72, 0
1, 113868, Note_on_c, 0, 67, 0
1, 114688, Note_on_c, 0, 64, 76
1, 122060, Note_on_c, 0, 64, 0
1, 122880, Note_on_c, 0, 67, 76
1, 130252, Note_on_c, 0, 67, 0
1, 131072, Note_on_c, 0, 81, 76
1, 131072, Note_on_c, 0, 60, 76
1, 138444, Note_on_c, 0, 60, 0
1, 139264, Note_on_c, 0, 69, 76
1, 146636, Note_on_c, 0, 69, 0
1, 147456, Note_on_c, 0, 65, 76
1, 154828, Note_on_c, 0, 65, 0
1, 155648, Note_on_c, 0, 69, 76
1, 160563, Note_on_c, 0, 81, 0
1, 163020, Note_on_c, 0, 69, 0
1, 163840, Note_on_c, 0, 79, 76
1, 163840, Note_on_c, 0, 60, 76
1, 171212, Note_on_c, 0, 60, 0
1, 172032, Note_on_c, 0, 67, 76
1, 178585, Note_on_c, 0, 79, 0
1, 179404, Note_on_c, 0, 67, 0
1, 180224, Note_on_c, 0, 84, 76
1, 180224, Note_on_c, 0, 64, 76
1, 187596, Note_on_c, 0, 64, 0
1, 188416, Note_on_c, 0, 67, 76
1, 194969, Note_on_c, 0, 84, 0
1, 195788, Note_on_c, 0, 67, 0
1, 196608, Note_on_c, 0, 79, 76
1, 196608, Note_on_c, 0, 59, 76
1, 203980, Note_on_c, 0, 59, 0
1, 204800, Note_on_c, 0, 67, 76
1, 211353, Note_on_c, 0, 79, 0
1, 212172, Note_on_c, 0, 67, 0
1, 212992, Note_on_c, 0, 79, 76
1, 212992, Note_on_c, 0, 62, 76
1, 214835, Note_on_c, 0, 79, 0
1, 215040, Note_on_c, 0, 77, 76
1, 216883, Note_on_c, 0, 77, 0
1, 217088, Note_on_c, 0, 79, 76
1, 218931, Note_on_c, 0, 79, 0
1, 219136, Note_on_c, 0, 77, 76
1, 220364, Note_on_c, 0, 62, 0
1, 220979, Note_on_c, 0, 77, 0
1, 221184, Note_on_c, 0, 76, 76
1, 221184, Note_on_c, 0, 67, 76
1, 224870, Note_on_c, 0, 76, 0
1, 225280, Note_on_c, 0, 77, 76
1, 228556, Note_on_c, 0, 67, 0
1, 228966, Note_on_c, 0, 77, 0
1, 229376, Note_on_c, 0, 76, 76
1, 229376, Note_on_c, 0, 60, 76
1, 236748, Note_on_c, 0, 60, 0
1, 237568, Note_on_c, 0, 67, 76
1, 244121, Note_on_c, 0, 76, 0
1, 244940, Note_on_c, 0, 67, 0
1, 245760, Note_on_c, 0, 64, 76
1, 253132, Note_on_c, 0, 64, 0
1, 253952, Note_on_c, 0, 67, 76
1, 261324, Note_on_c, 0, 67, 0
1, 262144, Note_on_c, 0, 69, 76
1, 262144, Note_on_c, 0, 65, 76
1, 269516, Note_on_c, 0, 69, 0
1, 270336, Note_on_c, 0, 71, 76
1, 274022, Note_on_c, 0, 71, 0
1, 274432, Note_on_c, 0, 72, 76
1, 276889, Note_on_c, 0, 65, 0
1, 278118, Note_on_c, 0, 72, 0
1, 278528, Note_on_c, 0, 74, 76
1, 282214, Note_on_c, 0, 74, 0
1, 282624, Note_on_c, 0, 76, 76
1, 286310, Note_on_c, 0, 76, 0
1, 286720, Note_on_c, 0, 77, 76
1, 290406, Note_on_c, 0, 77, 0
1, 290816, Note_on_c, 0, 79, 76
1, 294502, Note_on_c, 0, 79, 0
1, 294912, Note_on_c, 0, 81, 76
1, 298598, Note_on_c, 0, 81, 0
1, 299008, Note_on_c, 0, 79, 76
1, 302694, Note_on_c, 0, 79, 0
1, 303104, Note_on_c, 0, 77, 76
1, 306790, Note_on_c, 0, 77, 0
1, 307200, Note_on_c, 0, 76, 76
1, 310886, Note_on_c, 0, 76, 0
1, 311296, Note_on_c, 0, 74, 76
1, 311296, Note_on_c, 0, 53, 76
1, 311296, Note_on_c, 0, 60, 76
1, 314982, Note_on_c, 0, 74, 0
1, 315392, Note_on_c, 0, 72, 76
1, 319078, Note_on_c, 0, 72, 0
1, 319488, Note_on_c, 0, 71, 76
1, 323174, Note_on_c, 0, 71, 0
1, 323584, Note_on_c, 0, 69, 76
1, 326041, Note_on_c, 0, 60, 0
1, 326041, Note_on_c, 0, 53, 0
1, 327270, Note_on_c, 0, 69, 0
1, 327680, Note_on_c, 0, 67, 76
1, 327680, Note_on_c, 0, 60, 76
1, 327680, Note_on_c, 0, 52, 76
1, 335052, Note_on_c, 0, 67, 0
1, 335872, Note_on_c, 0, 69, 76
1, 339558, Note_on_c, 0, 69, 0
1, 339968, Note_on_c, 0, 71, 76
1, 342425, Note_on_c, 0, 52, 0
1, 342425, Note_on_c, 0, 60, 0
1, 343654, Note_on_c, 0, 71, 0
1, 344064, Note_on_c, 0, 72, 76
1, 347750, Note_on_c, 0, 72, 0
1, 348160, Note_on_c, 0, 74, 76
1, 351846, Note_on_c, 0, 74, 0
1, 352256, Note_on_c, 0, 76, 76
1, 355942, Note_on_c, 0, 76, 0
1, 356352, Note_on_c, 0, 77, 76
1, 360038, Note_on_c, 0, 77, 0
1, 360448, Note_on_c, 0, 79, 76
1, 364134, Note_on_c, 0, 79, 0
1, 364544, Note_on_c, 0, 77, 76
1, 368230, Note_on_c, 0, 77, 0
1, 368640, Note_on_c, 0, 76, 76
1, 372326, Note_on_c, 0, 76, 0
1, 372736, Note_on_c, 0, 74, 76
1, 376422, Note_on_c, 0, 74, 0
1, 376832, Note_on_c, 0, 72, 76
1, 376832, Note_on_c, 0, 52, 76
1, 376832, Note_on_c, 0, 60, 76
1, 380518, Note_on_c, 0, 72, 0
1, 380928, Note_on_c, 0, 71, 76
1, 384614, Note_on_c, 0, 71, 0
1, 385024, Note_on_c, 0, 69, 76
1, 388710, Note_on_c, 0, 69, 0
1, 389120, Note_on_c, 0, 67, 76
1, 391577, Note_on_c, 0, 60, 0
1, 391577, Note_on_c, 0, 52, 0
1, 392806, Note_on_c, 0, 67, 0
1, 393216, Note_on_c, 0, 65, 76
1, 393216, Note_on_c, 0, 50, 76
1, 393216, Note_on_c, 0, 60, 76
1, 400588, Note_on_c, 0, 65, 0
1, 401408, Note_on_c, 0, 67, 76
1, 405094, Note_on_c, 0, 67, 0
1, 405504, Note_on_c, 0, 69, 76
1, 407961, Note_on_c, 0, 60, 0
1, 407961, Note_on_c, 0, 50, 0
1, 409190, Note_on_c, 0, 69, 0
1, 409600, Note_on_c, 0, 71, 76
1, 413286, Note_on_c, 0, 71, 0
1, 413696, Note_on_c, 0, 72, 76
1, 417382, Note_on_c, 0, 72, 0
1, 417792, Note_on_c, 0, 74, 76
1, 421478, Note_on_c, 0, 74, 0
1, 421888, Note_on_c, 0, 76, 76
1, 425574, Note_on_c, 0, 76, 0
1, 425984, Note_on_c, 0, 77, 76
1, 429670, Note_on_c, 0, 77, 0
1, 430080, Note_on_c, 0, 76, 76
1, 433766, Note_on_c, 0, 76, 0
1, 434176, Note_on_c, 0, 74, 76
1, 437862, Note_on_c, 0, 74, 0
1, 438272, Note_on_c, 0, 72, 76
1, 441958, Note_on_c, 0, 72, 0
1, 442368, Note_on_c, 0, 71, 76
1, 442368, Note_on_c, 0, 59, 76
1, 442368, Note_on_c, 0, 50, 76
1, 446054, Note_on_c, 0, 71, 0
1, 446464, Note_on_c, 0, 69, 76
1, 450150, Note_on_c, 0, 69, 0
1, 450560, Note_on_c, 0, 67, 76
1, 454246, Note_on_c, 0, 67, 0
1, 454656, Note_on_c, 0, 65, 76
1, 457113, Note_on_c, 0, 50, 0
1, 457113, Note_on_c, 0, 59, 0
1, 458342, Note_on_c, 0, 65, 0
1, 458752, Note_on_c, 0, 64, 76
1, 458752, Note_on_c, 0, 60, 76
1, 458752, Note_on_c, 0, 48, 76
1, 466124, Note_on_c, 0, 64, 0
1, 466944, Note_on_c, 0, 65, 76
1, 470630, Note_on_c, 0, 65, 0
1, 471040, Note_on_c, 0, 67, 76
1, 473497, Note_on_c, 0, 48, 0
1, 473497, Note_on_c, 0, 60, 0
1, 474726, Note_on_c, 0, 67, 0
1, 475136, Note_on_c, 0, 69, 76
1, 478822, Note_on_c, 0, 69, 0
1, 479232, Note_on_c, 0, 71, 76
1, 482918, Note_on_c, 0, 71, 0
1, 483328, Note_on_c, 0, 72, 76
1, 487014, Note_on_c, 0, 72, 0
1, 487424, Note_on_c, 0, 74, 76
1, 491110, Note_on_c, 0, 74, 0
1, 491520, Note_on_c, 0, 76, 76
1, 495206, Note_on_c, 0, 76, 0
1, 495616, Note_on_c, 0, 74, 76
1, 499302, Note_on_c, 0, 74, 0
1, 499712, Note_on_c, 0, 72, 76
1, 503398, Note_on_c, 0, 72, 0
1, 503808, Note_on_c, 0, 71, 76
1, 507494, Note_on_c, 0, 71, 0
1, 507904, Note_on_c, 0, 69, 76
1, 507904, Note_on_c, 0, 48, 76
1, 507904, Note_on_c, 0, 52, 76
1, 511590, Note_on_c, 0, 69, 0
1, 512000, Note_on_c, 0, 67, 76
1, 515686, Note_on_c, 0, 67, 0
1, 516096, Note_on_c, 0, 65, 76
1, 519782, Note_on_c, 0, 65, 0
1, 520192, Note_on_c, 0, 64, 76
1, 522649, Note_on_c, 0, 52, 0
1, 522649, Note_on_c, 0, 48, 0
1, 523878, Note_on_c, 0, 64, 0
1, 524288, Note_on_c, 0, 62, 76
1, 524288, Note_on_c, 0, 53, 76
1, 524288, Note_on_c, 0, 57, 76
1, 531660, Note_on_c, 0, 62, 0
1, 532480, Note_on_c, 0, 64, 76
1, 536166, Note_on_c, 0, 64, 0
1, 536576, Note_on_c, 0, 65, 76
1, 540262, Note_on_c, 0, 65, 0
1, 540672, Note_on_c, 0, 67, 76
1, 544358, Note_on_c, 0, 67, 0
1, 544768, Note_on_c, 0, 69, 76
1, 548454, Note_on_c, 0, 69, 0
1, 548864, Note_on_c, 0, 71, 76
1, 552550, Note_on_c, 0, 71, 0
1, 552960, Note_on_c, 0, 73, 76
1, 556646, Note_on_c, 0, 73, 0
1, 557056, Note_on_c, 0, 74, 76
1, 560742, Note_on_c, 0, 74, 0
1, 561152, Note_on_c, 0, 69, 76
1, 564838, Note_on_c, 0, 69, 0
1, 565248, Note_on_c, 0, 71, 76
1, 568934, Note_on_c, 0, 71, 0
1, 569344, Note_on_c, 0, 73, 76
1, 573030, Note_on_c, 0, 73, 0
1, 573440, Note_on_c, 0, 74, 76
1, 577126, Note_on_c, 0, 74, 0
1, 577536, Note_on_c, 0, 76, 76
1, 581222, Note_on_c, 0, 76, 0
1, 581632, Note_on_c, 0, 77, 76
1, 583270, Note_on_c, 0, 57, 0
1, 583270, Note_on_c, 0, 53, 0
1, 585318, Note_on_c, 0, 77, 0
1, 585728, Note_on_c, 0, 79, 76
1, 589414, Note_on_c, 0, 79, 0
1, 589824, Note_on_c, 0, 81, 76
1, 589824, Note_on_c, 0, 53, 76
1, 593510, Note_on_c, 0, 81, 0
1, 593920, Note_on_c, 0, 83, 76
1, 597606, Note_on_c, 0, 83, 0
1, 598016, Note_on_c, 0, 84, 76
1, 601702, Note_on_c, 0, 84, 0
1, 602112, Note_on_c, 0, 83, 76
1, 605798, Note_on_c, 0, 83, 0
1, 606208, Note_on_c, 0, 81, 76
1, 609894, Note_on_c, 0, 81, 0
1, 610304, Note_on_c, 0, 79, 76
1, 611942, Note_on_c, 0, 53, 0
1, 613990, Note_on_c, 0, 79, 0
1, 614400, Note_on_c, 0, 77, 76
1, 614400, Note_on_c, 0, 55, 76
1, 618086, Note_on_c, 0, 77, 0
1, 618496, Note_on_c, 0, 76, 76
1, 621772, Note_on_c, 0, 55, 0
1, 622182, Note_on_c, 0, 76, 0
1, 622592, Note_on_c, 0, 77, 76
1, 622592, Note_on_c, 0, 57, 76
1, 626278, Note_on_c, 0, 77, 0
1, 626688, Note_on_c, 0, 79, 76
1, 630374, Note_on_c, 0, 79, 0
1, 630784, Note_on_c, 0, 81, 76
1, 634470, Note_on_c, 0, 81, 0
1, 634880, Note_on_c, 0, 79, 76
1, 638566, Note_on_c, 0, 79, 0
1, 638976, Note_on_c, 0, 77, 76
1, 642662, Note_on_c, 0, 77, 0
1, 643072, Note_on_c, 0, 76, 76
1, 644710, Note_on_c, 0, 57, 0
1, 646758, Note_on_c, 0, 76, 0
1, 647168, Note_on_c, 0, 74, 76
1, 647168, Note_on_c, 0, 54, 76
1, 650854, Note_on_c, 0, 74, 0
1, 651264, Note_on_c, 0, 72, 76
1, 654540, Note_on_c, 0, 54, 0
1, 654950, Note_on_c, 0, 72, 0
1, 655360, Note_on_c, 0, 71, 76
1, 655360, Note_on_c, 0, 43, 76
1, 659046, Note_on_c, 0, 43, 0
1, 659456, Note_on_c, 0, 47, 76
1, 662732, Note_on_c, 0, 71, 0
1, 663142, Note_on_c, 0, 47, 0
1, 663552, Note_on_c, 0, 79, 76
1, 663552, Note_on_c, 0, 50, 76
1, 667238, Note_on_c, 0, 50, 0
1, 667648, Note_on_c, 0, 55, 76
1, 670924, Note_on_c, 0, 79, 0
1, 671334, Note_on_c, 0, 55, 0
1, 671744, Note_on_c, 0, 76, 76
1, 671744, Note_on_c, 0, 43, 76
1, 675430, Note_on_c, 0, 43, 0
1, 675840, Note_on_c, 0, 48, 76
1, 679116, Note_on_c, 0, 76, 0
1, 679526, Note_on_c, 0, 48, 0
1, 679936, Note_on_c, 0, 72, 76
1, 679936, Note_on_c, 0, 52, 76
1, 683622, Note_on_c, 0, 52, 0
1, 684032, Note_on_c, 0, 55, 76
1, 687308, Note_on_c, 0, 72, 0
1, 687718, Note_on_c, 0, 55, 0
1, 688128, Note_on_c, 0, 74, 76
1, 688128, Note_on_c, 0, 43, 76
1, 691814, Note_on_c, 0, 43, 0
1, 692224, Note_on_c, 0, 47, 76
1, 695500, Note_on_c, 0, 74, 0
1, 695910, Note_on_c, 0, 47, 0
1, 696320, Note_on_c, 0, 79, 76
1, 696320, Note_on_c, 0, 50, 76
1, 700006, Note_on_c, 0, 50, 0
1, 700416, Note_on_c, 0, 55, 76
1, 703692, Note_on_c, 0, 79, 0
1, 704102, Note_on_c, 0, 55, 0
1, 704512, Note_on_c, 0, 76, 76
1, 704512, Note_on_c, 0, 43, 76
1, 708198, Note_on_c, 0, 43, 0
1, 708608, Note_on_c, 0, 48, 76
1, 711884, Note_on_c, 0, 76, 0
1, 712294, Note_on_c, 0, 48, 0
1, 712704, Note_on_c, 0, 72, 76
1, 712704, Note_on_c, 0, 52, 76
1, 716390, Note_on_c, 0, 52, 0
1, 716800, Note_on_c, 0, 55, 76
1, 720076, Note_on_c, 0, 72, 0
1, 720486, Note_on_c, 0, 55, 0
1, 720896, Note_on_c, 0, 74, 76
1, 720896, Note_on_c, 0, 43, 76
1, 724582, Note_on_c, 0, 74, 0
1, 724582, Note_on_c, 0, 43, 0
1, 737280, Note_on_c, 0, 71, 76
1, 737280, Note_on_c, 0, 74, 76
1, 737280, Note_on_c, 0, 79, 76
1, 737280, Note_on_c, 0, 55, 76
1, 740966, Note_on_c, 0, 71, 0
1, 740966, Note_on_c, 0, 55, 0
1, 740966, Note_on_c, 0, 79, 0
1, 740966, Note_on_c, 0, 74, 0
1, 753664, Note_on_c, 0, 67, 76
1, 753664, Note_on_c, 0, 43, 76
1, 757350, Note_on_c, 0, 67, 0
1, 757350, Note_on_c, 0, 43, 0
1, 786432, Note_on_c, 0, 61, 76
1, 790118, Note_on_c, 0, 61, 0
1, 790528, Note_on_c, 0, 62, 76
1, 794214, Note_on_c, 0, 62, 0
1, 794624, Note_on_c, 0, 61, 76
1, 798310, Note_on_c, 0, 61, 0
1, 798720, Note_on_c, 0, 62, 76
1, 802406, Note_on_c, 0, 62, 0
1, 802816, Note_on_c, 0, 61, 76
1, 806502, Note_on_c, 0, 61, 0
1, 806912, Note_on_c, 0, 62, 76
1, 810598, Note_on_c, 0, 62, 0
1, 811008, Note_on_c, 0, 61, 76
1, 814694, Note_on_c, 0, 61, 0
1, 815104, Note_on_c, 0, 62, 76
1, 818790, Note_on_c, 0, 62, 0
1, 819200, Note_on_c, 0, 60, 76
1, 822886, Note_on_c, 0, 60, 0
1, 823296, Note_on_c, 0, 62, 76
1, 826982, Note_on_c, 0, 62, 0
1, 827392, Note_on_c, 0, 60, 76
1, 831078, Note_on_c, 0, 60, 0
1, 831488, Note_on_c, 0, 62, 76
1, 835174, Note_on_c, 0, 62, 0
1, 835584, Note_on_c, 0, 60, 76
1, 839270, Note_on_c, 0, 60, 0
1, 839680, Note_on_c, 0, 62, 76
1, 843366, Note_on_c, 0, 62, 0
1, 843776, Note_on_c, 0, 60, 76
1, 847462, Note_on_c, 0, 60, 0
1, 847872, Note_on_c, 0, 62, 76
1, 851558, Note_on_c, 0, 62, 0
1, 851968, Note_on_c, 0, 86, 76
1, 851968, Note_on_c, 0, 59, 76
1, 855654, Note_on_c, 0, 59, 0
1, 856064, Note_on_c, 0, 62, 76
1, 859340, Note_on_c, 0, 86, 0
1, 859750, Note_on_c, 0, 62, 0
1, 860160, Note_on_c, 0, 83, 76
1, 860160, Note_on_c, 0, 59, 76
1, 863846, Note_on_c, 0, 59, 0
1, 864256, Note_on_c, 0, 62, 76
1, 867532, Note_on_c, 0, 83, 0
1, 867942, Note_on_c, 0, 62, 0
1, 868352, Note_on_c, 0, 79, 76
1, 868352, Note_on_c, 0, 59, 76
1, 872038, Note_on_c, 0, 59, 0
1, 872448, Note_on_c, 0, 62, 76
1, 876134, Note_on_c, 0, 62, 0
1, 876544, Note_on_c, 0, 59, 76
1, 880230, Note_on_c, 0, 59, 0
1, 880640, Note_on_c, 0, 62, 76
1, 884326, Note_on_c, 0, 62, 0
1, 884736, Note_on_c, 0, 59, 76
1, 888422, Note_on_c, 0, 59, 0
1, 888832, Note_on_c, 0, 62, 76
1, 890470, Note_on_c, 0, 79, 0
1, 892518, Note_on_c, 0, 62, 0
1, 892928, Note_on_c, 0, 81, 76
1, 892928, Note_on_c, 0, 59, 76
1, 896614, Note_on_c, 0, 81, 0
1, 896614, Note_on_c, 0, 59, 0
1, 897024, Note_on_c, 0, 83, 76
1, 897024, Note_on_c, 0, 62, 76
1, 900710, Note_on_c, 0, 83, 0
1, 900710, Note_on_c, 0, 62, 0
1, 901120, Note_on_c, 0, 81, 76
1, 901120, Note_on_c, 0, 59, 76
1, 904806, Note_on_c, 0, 59, 0
1, 905216, Note_on_c, 0, 62, 76
1, 908492, Note_on_c, 0, 81, 0
1, 908902, Note_on_c, 0, 62, 0
1, 909312, Note_on_c, 0, 79, 76
1, 909312, Note_on_c, 0, 59, 76
1, 912998, Note_on_c, 0, 59, 0
1, 913408, Note_on_c, 0, 62, 76
1, 916684, Note_on_c, 0, 79, 0
1, 917094, Note_on_c, 0, 62, 0
1, 917504, Note_on_c, 0, 81, 76
1, 917504, Note_on_c, 0, 60, 76
1, 919347, Note_on_c, 0, 81, 0
1, 919552, Note_on_c, 0, 79, 76
1, 921190, Note_on_c, 0, 60, 0
1, 921395, Note_on_c, 0, 79, 0
1, 921600, Note_on_c, 0, 81, 76
1, 921600, Note_on_c, 0, 62, 76
1, 923443, Note_on_c, 0, 81, 0
1, 923648, Note_on_c, 0, 79, 76
1, 925286, Note_on_c, 0, 62, 0
1, 925491, Note_on_c, 0, 79, 0
1, 925696, Note_on_c, 0, 81, 76
1, 925696, Note_on_c, 0, 59, 76
1, 927539, Note_on_c, 0, 81, 0
1, 927744, Note_on_c, 0, 79, 76
1, 929382, Note_on_c, 0, 59, 0
1, 929587, Note_on_c, 0, 79, 0
1, 929792, Note_on_c, 0, 78, 76
1, 929792, Note_on_c, 0, 62, 76
1, 933478, Note_on_c, 0, 78, 0
1, 933478, Note_on_c, 0, 62, 0
1, 933888, Note_on_c, 0, 78, 76
1, 933888, Note_on_c, 0, 57, 76
1, 937574, Note_on_c, 0, 57, 0
1, 937984, Note_on_c, 0, 62, 76
1, 941670, Note_on_c, 0, 62, 0
1, 942080, Note_on_c, 0, 59, 76
1, 945766, Note_on_c, 0, 59, 0
1, 946176, Note_on_c, 0, 62, 76
1, 948633, Note_on_c, 0, 78, 0
1, 949862, Note_on_c, 0, 62, 0
1, 950272, Note_on_c, 0, 60, 76
1, 953958, Note_on_c, 0, 60, 0
1, 954368, Note_on_c, 0, 62, 76
1, 958054, Note_on_c, 0, 62, 0
1, 958464, Note_on_c, 0, 59, 76
1, 962150, Note_on_c, 0, 59, 0
1, 962560, Note_on_c, 0, 62, 76
1, 966246, Note_on_c, 0, 62, 0
1, 966656, Note_on_c, 0, 60, 76
1, 970342, Note_on_c, 0, 60, 0
1, 970752, Note_on_c, 0, 62, 76
1, 974438, Note_on_c, 0, 62, 0
1, 974848, Note_on_c, 0, 57, 76
1, 978534, Note_on_c, 0, 57, 0
1, 978944, Note_on_c, 0, 62, 76
1, 982630, Note_on_c, 0, 62, 0
1, 983040, Note_on_c, 0, 86, 76
1, 983040, Note_on_c, 0, 59, 76
1, 986726, Note_on_c, 0, 59, 0
1, 987136, Note_on_c, 0, 62, 76
1, 990412, Note_on_c, 0, 86, 0
1, 990822, Note_on_c, 0, 62, 0
1, 991232, Note_on_c, 0, 83, 76
1, 991232, Note_on_c, 0, 59, 76
1, 994918, Note_on_c, 0, 59, 0
1, 995328, Note_on_c, 0, 62, 76
1, 998604, Note_on_c, 0, 83, 0
1, 999014, Note_on_c, 0, 62, 0
1, 999424, Note_on_c, 0, 79, 76
1, 999424, Note_on_c, 0, 59, 76
1, 1003110, Note_on_c, 0, 59, 0
1, 1003520, Note_on_c, 0, 62, 76
1, 1007206, Note_on_c, 0, 62, 0
1, 1007616, Note_on_c, 0, 59, 76
1, 1011302, Note_on_c, 0, 59, 0
1, 1011712, Note_on_c, 0, 62, 76
1, 1015398, Note_on_c, 0, 62, 0
1, 1015808, Note_on_c, 0, 59, 76
1, 1019494, Note_on_c, 0, 59, 0
1, 1019904, Note_on_c, 0, 62, 76
1, 1021542, Note_on_c, 0, 79, 0
1, 1023590, Note_on_c, 0, 62, 0
1, 1024000, Note_on_c, 0, 81, 76
1, 1024000, Note_on_c, 0, 59, 76
1, 1027686, Note_on_c, 0, 81, 0
1, 1027686, Note_on_c, 0, 59, 0
1, 1028096, Note_on_c, 0, 83, 76
1, 1028096, Note_on_c, 0, 62, 76
1, 1031782, Note_on_c, 0, 83, 0
1, 1031782, Note_on_c, 0, 62, 0
1, 1032192, Note_on_c, 0, 81, 76
1, 1032192, Note_on_c, 0, 59, 76
1, 1035878, Note_on_c, 0, 59, 0
1, 1036288, Note_on_c, 0, 62, 76
1, 1039564, Note_on_c, 0, 81, 0
1, 1039974, Note_on_c, 0, 62, 0
1, 1040384, Note_on_c, 0, 79, 76
1, 1040384, Note_on_c, 0, 59, 76
1, 1044070, Note_on_c, 0, 59, 0
1, 1044480, Note_on_c, 0, 62, 76
1, 1047756, Note_on_c, 0, 79, 0
1, 1048166, Note_on_c, 0, 62, 0
1, 1048576, Note_on_c, 0, 81, 76
1, 1048576, Note_on_c, 0, 60, 76
1, 1050419, Note_on_c, 0, 81, 0
1, 1050624, Note_on_c, 0, 79, 76
1, 1052262, Note_on_c, 0, 60, 0
1, 1052467, Note_on_c, 0, 79, 0
1, 1052672, Note_on_c, 0, 81, 76
1, 1052672, Note_on_c, 0, 62, 76
1, 1054515, Note_on_c, 0, 81, 0
1, 1054720, Note_on_c, 0, 79, 76
1, 1056358, Note_on_c, 0, 62, 0
1, 1056563, Note_on_c, 0, 79, 0
1, 1056768, Note_on_c, 0, 81, 76
1, 1056768, Note_on_c, 0, 59, 76
1, 1058611, Note_on_c, 0, 81, 0
1, 1058816, Note_on_c, 0, 79, 76
1, 1060454, Note_on_c, 0, 59, 0
1, 1060659, Note_on_c, 0, 79, 0
1, 1060864, Note_on_c, 0, 78, 76
1, 1060864, Note_on_c, 0, 62, 76
1, 1064550, Note_on_c, 0, 78, 0
1, 1064550, Note_on_c, 0, 62, 0
1, 1064960, Note_on_c, 0, 78, 76
1, 1064960, Note_on_c, 0, 57, 76
1, 1068646, Note_on_c, 0, 57, 0
1, 1069056, Note_on_c, 0, 62, 76
1, 1072742, Note_on_c, 0, 62, 0
1, 1073152, Note_on_c, 0, 59, 76
1, 1076838, Note_on_c, 0, 59, 0
1, 1077248, Note_on_c, 0, 62, 76
1, 1079705, Note_on_c, 0, 78, 0
1, 1080934, Note_on_c, 0, 62, 0
1, 1081344, Note_on_c, 0, 60, 76
1, 1085030, Note_on_c, 0, 60, 0
1, 1085440, Note_on_c, 0, 62, 76
1, 1089126, Note_on_c, 0, 62, 0
1, 1089536, Note_on_c, 0, 59, 76
1, 1093222, Note_on_c, 0, 59, 0
1, 1093632, Note_on_c, 0, 62, 76
1, 1097318, Note_on_c, 0, 62, 0
1, 1097728, Note_on_c, 0, 60, 76
1, 1101414, Note_on_c, 0, 60, 0
1, 1101824, Note_on_c, 0, 62, 76
1, 1105510, Note_on_c, 0, 62, 0
1, 1105920, Note_on_c, 0, 57, 76
1, 1109606, Note_on_c, 0, 57, 0
1, 1110016, Note_on_c, 0, 62, 76
1, 1113702, Note_on_c, 0, 62, 0
1, 1114112, Note_on_c, 0, 86, 76
1, 1114112, Note_on_c, 0, 86, 76
1, 1117798, Note_on_c, 0, 86, 0
1, 1118208, Note_on_c, 0, 59, 76
1, 1121894, Note_on_c, 0, 59, 0
1, 1122304, Note_on_c, 0, 62, 76
1, 1125990, Note_on_c, 0, 62, 0
1, 1126400, Note_on_c, 0, 67, 76
1, 1128857, Note_on_c, 0, 86, 0
1, 1130086, Note_on_c, 0, 67, 0
1, 1130496, Note_on_c, 0, 71, 76
1, 1130496, Note_on_c, 0, 71, 76
1, 1134182, Note_on_c, 0, 71, 0
1, 1134592, Note_on_c, 0, 86, 76
1, 1138278, Note_on_c, 0, 86, 0
1, 1138688, Note_on_c, 0, 83, 76
1, 1142374, Note_on_c, 0, 83, 0
1, 1142784, Note_on_c, 0, 79, 76
1, 1145241, Note_on_c, 0, 71, 0
1, 1146470, Note_on_c, 0, 79, 0
1, 1146880, Note_on_c, 0, 76, 76
1, 1146880, Note_on_c, 0, 76, 76
1, 1150566, Note_on_c, 0, 76, 0
1, 1150976, Note_on_c, 0, 60, 76
1, 1154662, Note_on_c, 0, 60, 0
1, 1155072, Note_on_c, 0, 64, 76
1, 1158758, Note_on_c, 0, 64, 0
1, 1159168, Note_on_c, 0, 67, 76
1, 1161625, Note_on_c, 0, 76, 0
1, 1162854, Note_on_c, 0, 67, 0
1, 1163264, Note_on_c, 0, 72, 76
1, 1163264, Note_on_c, 0, 72, 76
1, 1166950, Note_on_c, 0, 72, 0
1, 1167360, Note_on_c, 0, 76, 76
1, 1171046, Note_on_c, 0, 76, 0
1, 1171456, Note_on_c, 0, 79, 76
1, 1175142, Note_on_c, 0, 79, 0
1, 1175552, Note_on_c, 0, 76, 76
1, 1178009, Note_on_c, 0, 72, 0
1, 1179238, Note_on_c, 0, 76, 0
1, 1179648, Note_on_c, 0, 84, 76
1, 1179648, Note_on_c, 0, 84, 76
1, 1183334, Note_on_c, 0, 84, 0
1, 1183744, Note_on_c, 0, 57, 76
1, 1187430, Note_on_c, 0, 57, 0
1, 1187840, Note_on_c, 0, 60, 76
1, 1191526, Note_on_c, 0, 60, 0
1, 1191936, Note_on_c, 0, 66, 76
1, 1194393, Note_on_c, 0, 84, 0
1, 1195622, Note_on_c, 0, 66, 0
1, 1196032, Note_on_c, 0, 69, 76
1, 1196032, Note_on_c, 0, 69, 76
1, 1199718, Note_on_c, 0, 69, 0
1, 1200128, Note_on_c, 0, 84, 76
1, 1203814, Note_on_c, 0, 84, 0
1, 1204224, Note_on_c, 0, 81, 76
1, 1207910, Note_on_c, 0, 81, 0
1, 1208320, Note_on_c, 0, 78, 76
1, 1210777, Note_on_c, 0, 69, 0
1, 1212006, Note_on_c, 0, 78, 0
1, 1212416, Note_on_c, 0, 74, 76
1, 1212416, Note_on_c, 0, 74, 76
1, 1216102, Note_on_c, 0, 74, 0
1, 1216512, Note_on_c, 0, 59, 76
1, 1220198, Note_on_c, 0, 59, 0
1, 1220608, Note_on_c, 0, 62, 76
1, 1224294, Note_on_c, 0, 62, 0
1, 1224704, Note_on_c, 0, 66, 76
1, 1227161, Note_on_c, 0, 74, 0
1, 1228390, Note_on_c, 0, 66, 0
1, 1228800, Note_on_c, 0, 71, 76
1, 1228800, Note_on_c, 0, 71, 76
1, 1232486, Note_on_c, 0, 71, 0
1, 1232896, Note_on_c, 0, 74, 76
1, 1236582, Note_on_c, 0, 74, 0
1, 1236992, Note_on_c, 0, 78, 76
1, 1240678, Note_on_c, 0, 78, 0
1, 1241088, Note_on_c, 0, 74, 76
1, 1243545, Note_on_c, 0, 71, 0
1, 1244774, Note_on_c, 0, 74, 0
1, 1245184, Note_on_c, 0, 83, 76
1, 1245184, Note_on_c, 0, 83, 76
1, 1248870, Note_on_c, 0, 83, 0
1, 1249280, Note_on_c, 0, 55, 76
1, 1252966, Note_on_c, 0, 55, 0
1, 1253376, Note_on_c, 0, 59, 76
1, 1257062, Note_on_c, 0, 59, 0
1, 1257472, Note_on_c, 0, 64, 76
1, 1259929, Note_on_c, 0, 83, 0
1, 1261158, Note_on_c, 0, 64, 0
1, 1261568, Note_on_c, 0, 67, 76
1, 1261568, Note_on_c, 0, 67, 76
1, 1265254, Note_on_c, 0, 67, 0
1, 1265664, Note_on_c, 0, 83, 76
1, 1269350, Note_on_c, 0, 83, 0
1, 1269760, Note_on_c, 0, 79, 76
1, 1273446, Note_on_c, 0, 79, 0
1, 1273856, Note_on_c, 0, 76, 76
1, 1276313, Note_on_c, 0, 67, 0
1, 1277542, Note_on_c, 0, 76, 0
1, 1277952, Note_on_c, 0, 72, 76
1, 1277952, Note_on_c, 0, 72, 76
1, 1281638, Note_on_c, 0, 72, 0
1, 1282048, Note_on_c, 0, 57, 76
1, 1285734, Note_on_c, 0, 57, 0
1, 1286144, Note_on_c, 0, 60, 76
1, 1289830, Note_on_c, 0, 60, 0
1, 1290240, Note_on_c, 0, 64, 76
1, 1292697, Note_on_c, 0, 72, 0
1, 1293926, Note_on_c, 0, 64, 0
1, 1294336, Note_on_c, 0, 69, 76
1, 1294336, Note_on_c, 0, 69, 76
1, 1298022, Note_on_c, 0, 69, 0
1, 1298432, Note_on_c, 0, 72, 76
1, 1302118, Note_on_c, 0, 72, 0
1, 1302528, Note_on_c, 0, 76, 76
1, 1306214, Note_on_c, 0, 76, 0
1, 1306624, Note_on_c, 0, 72, 76
1, 1309081, Note_on_c, 0, 69, 0
1, 1310310, Note_on_c, 0, 72, 0
1, 1310720, Note_on_c, 0, 81, 76
1, 1310720, Note_on_c, 0, 81, 76
1, 1314406, Note_on_c, 0, 81, 0
1, 1314816, Note_on_c, 0, 54, 76
1, 1318502, Note_on_c, 0, 54, 0
1, 1318912, Note_on_c, 0, 57, 76
1, 1322598, Note_on_c, 0, 57, 0
1, 1323008, Note_on_c, 0, 62, 76
1, 1325465, Note_on_c, 0, 81, 0
1, 1326694, Note_on_c, 0, 62, 0
1, 1327104, Note_on_c, 0, 66, 76
1, 1327104, Note_on_c, 0, 66, 76
1, 1330790, Note_on_c, 0, 66, 0
1, 1331200, Note_on_c, 0, 81, 76
1, 1334886, Note_on_c, 0, 81, 0
1, 1335296, Note_on_c, 0, 78, 76
1, 1338982, Note_on_c, 0, 78, 0
1, 1339392, Note_on_c, 0, 74, 76
1, 1341849, Note_on_c, 0, 66, 0
1, 1343078, Note_on_c, 0, 74, 0
1, 1343488, Note_on_c, 0, 71, 76
1, 1343488, Note_on_c, 0, 71, 76
1, 1347174, Note_on_c, 0, 71, 0
1, 1347584, Note_on_c, 0, 55, 76
1, 1351270, Note_on_c, 0, 55, 0
1, 1351680, Note_on_c, 0, 59, 76
1, 1355366, Note_on_c, 0, 59, 0
1, 1355776, Note_on_c, 0, 62, 76
1, 1358233, Note_on_c, 0, 71, 0
1, 1359462, Note_on_c, 0, 62, 0
1, 1359872, Note_on_c, 0, 67, 76
1, 1359872, Note_on_c, 0, 67, 76
1, 1363558, Note_on_c, 0, 67, 0
1, 1363968, Note_on_c, 0, 79, 76
1, 1367654, Note_on_c, 0, 79, 0
1, 1368064, Note_on_c, 0, 74, 76
1, 1371750, Note_on_c, 0, 74, 0
1, 1372160, Note_on_c, 0, 71, 76
1, 1374617, Note_on_c, 0, 67, 0
1, 1375846, Note_on_c, 0, 71, 0
1, 1376256, Note_on_c, 0, 69, 76
1, 1376256, Note_on_c, 0, 60, 76
1, 1376256, Note_on_c, 0, 64, 76
1, 1383628, Note_on_c, 0, 60, 0
1, 1383628, Note_on_c, 0, 64, 0
1, 1384448, Note_on_c, 0, 60, 76
1, 1384448, Note_on_c, 0, 64, 76
1, 1391820, Note_on_c, 0, 60, 0
1, 1391820, Note_on_c, 0, 64, 0
1, 1392640, Note_on_c, 0, 60, 76
1, 1392640, Note_on_c, 0, 64, 76
1, 1400012, Note_on_c, 0, 60, 0
1, 1400012, Note_on_c, 0, 64, 0
1, 1400832, Note_on_c, 0, 60, 76
1, 1400832, Note_on_c, 0, 64, 76
1, 1405747, Note_on_c, 0, 69, 0
1, 1408204, Note_on_c, 0, 64, 0
1, 1408204, Note_on_c, 0, 60, 0
1, 1409024, Note_on_c, 0, 71, 76
1, 1409024, Note_on_c, 0, 60, 76
1, 1409024, Note_on_c, 0, 64, 76
1, 1410867, Note_on_c, 0, 71, 0
1, 1411072, Note_on_c, 0, 72, 76
1, 1416396, Note_on_c, 0, 64, 0
1, 1416396, Note_on_c, 0, 60, 0
1, 1417216, Note_on_c, 0, 60, 76
1, 1417216, Note_on_c, 0, 64, 76
1, 1423974, Note_on_c, 0, 72, 0
1, 1424588, Note_on_c, 0, 64, 0
1, 1424588, Note_on_c, 0, 60, 0
1, 1425408, Note_on_c, 0, 75, 76
1, 1425408, Note_on_c, 0, 60, 76
1, 1425408, Note_on_c, 0, 64, 76
1, 1427251, Note_on_c, 0, 75, 0
1, 1427456, Note_on_c, 0, 76, 76
1, 1432780, Note_on_c, 0, 64, 0
1, 1432780, Note_on_c, 0, 60, 0
1, 1433600, Note_on_c, 0, 60, 76
1, 1433600, Note_on_c, 0, 64, 76
1, 1440358, Note_on_c, 0, 76, 0
1, 1440972, Note_on_c, 0, 64, 0
1, 1440972, Note_on_c, 0, 60, 0
1, 1441792, Note_on_c, 0, 80, 76
1, 1441792, Note_on_c, 0, 60, 76
1, 1441792, Note_on_c, 0, 64, 76
1, 1443635, Note_on_c, 0, 80, 0
1, 1443840, Note_on_c, 0, 81, 76
1, 1449164, Note_on_c, 0, 64, 0
1, 1449164, Note_on_c, 0, 60, 0
1, 1449984, Note_on_c, 0, 60, 76
1, 1449984, Note_on_c, 0, 64, 76
1, 1457356, Note_on_c, 0, 60, 0
1, 1457356, Note_on_c, 0, 64, 0
1, 1458176, Note_on_c, 0, 60, 76
1, 1458176, Note_on_c, 0, 64, 76
1, 1465548, Note_on_c, 0, 60, 0
1, 1465548, Note_on_c, 0, 64, 0
1, 1466368, Note_on_c, 0, 83, 76
1, 1466368, Note_on_c, 0, 60, 76
1, 1466368, Note_on_c, 0, 64, 76
1, 1466368, Note_on_c, 0, 81, 0
1, 1468211, Note_on_c, 0, 83, 0
1, 1468416, Note_on_c, 0, 81, 76
1, 1470259, Note_on_c, 0, 81, 0
1, 1470464, Note_on_c, 0, 80, 76
1, 1472307, Note_on_c, 0, 80, 0
1, 1472512, Note_on_c, 0, 81, 76
1, 1473740, Note_on_c, 0, 64, 0
1, 1473740, Note_on_c, 0, 60, 0
1, 1474355, Note_on_c, 0, 81, 0
1, 1474560, Note_on_c, 0, 84, 76
1, 1474560, Note_on_c, 0, 60, 76
1, 1474560, Note_on_c, 0, 64, 76
1, 1481932, Note_on_c, 0, 84, 0
1, 1481932, Note_on_c, 0, 64, 0
1, 1481932, Note_on_c, 0, 60, 0
1, 1482752, Note_on_c, 0, 81, 76
1, 1482752, Note_on_c, 0, 60, 76
1, 1482752, Note_on_c, 0, 64, 76
1, 1490124, Note_on_c, 0, 81, 0
1, 1490124, Note_on_c, 0, 64, 0
1, 1490124, Note_on_c, 0, 60, 0
1, 1490944, Note_on_c, 0, 84, 76
1, 1490944, Note_on_c, 0, 60, 76
1, 1490944, Note_on_c, 0, 64, 76
1, 1498316, Note_on_c, 0, 84, 0
1, 1498316, Note_on_c, 0, 64, 0
1, 1498316, Note_on_c, 0, 60, 0
1, 1499136, Note_on_c, 0, 81, 76
1, 1499136, Note_on_c, 0, 60, 76
1, 1499136, Note_on_c, 0, 64, 76
1, 1506508, Note_on_c, 0, 81, 0
1, 1506508, Note_on_c, 0, 64, 0
1, 1506508, Note_on_c, 0, 60, 0
1, 1507328, Note_on_c, 0, 83, 76
1, 1507328, Note_on_c, 0, 62, 76
1, 1511014, Note_on_c, 0, 62, 0
1, 1511424, Note_on_c, 0, 71, 76
1, 1514700, Note_on_c, 0, 83, 0
1, 1515110, Note_on_c, 0, 71, 0
1, 1515520, Note_on_c, 0, 79, 76
1, 1515520, Note_on_c, 0, 67, 76
1, 1519206, Note_on_c, 0, 67, 0
1, 1519616, Note_on_c, 0, 71, 76
1, 1522892, Note_on_c, 0, 79, 0
1, 1523302, Note_on_c, 0, 71, 0
1, 1523712, Note_on_c, 0, 86, 76
1, 1523712, Note_on_c, 0, 62, 76
1, 1527398, Note_on_c, 0, 62, 0
1, 1527808, Note_on_c, 0, 71, 76
1, 1531494, Note_on_c, 0, 71, 0
1, 1531904, Note_on_c, 0, 67, 76
1, 1535590, Note_on_c, 0, 67, 0
1, 1536000, Note_on_c, 0, 71, 76
1, 1539686, Note_on_c, 0, 71, 0
1, 1540096, Note_on_c, 0, 62, 76
1, 1543782, Note_on_c, 0, 62, 0
1, 1544192, Note_on_c, 0, 71, 76
1, 1547878, Note_on_c, 0, 71, 0
1, 1548288, Note_on_c, 0, 67, 76
1, 1551974, Note_on_c, 0, 67, 0
1, 1552384, Note_on_c, 0, 71, 76
1, 1553203, Note_on_c, 0, 86, 0
1, 1556070, Note_on_c, 0, 71, 0
1, 1556480, Note_on_c, 0, 84, 76
1, 1556480, Note_on_c, 0, 62, 76
1, 1560166, Note_on_c, 0, 84, 0
1, 1560166, Note_on_c, 0, 62, 0
1, 1560576, Note_on_c, 0, 83, 76
1, 1560576, Note_on_c, 0, 71, 76
1, 1564262, Note_on_c, 0, 83, 0
1, 1564262, Note_on_c, 0, 71, 0
1, 1564672, Note_on_c, 0, 81, 76
1, 1564672, Note_on_c, 0, 67, 76
1, 1568358, Note_on_c, 0, 81, 0
1, 1568358, Note_on_c, 0, 67, 0
1, 1568768, Note_on_c, 0, 79, 76
1, 1568768, Note_on_c, 0, 71, 76
1, 1572454, Note_on_c, 0, 79, 0
1, 1572454, Note_on_c, 0, 71, 0
1, 1572864, Note_on_c, 0, 83, 76
1, 1572864, Note_on_c, 0, 62, 76
1, 1574707, Note_on_c, 0, 83, 0
1, 1574912, Note_on_c, 0, 81, 76
1, 1576550, Note_on_c, 0, 62, 0
1, 1576755, Note_on_c, 0, 81, 0
1, 1576960, Note_on_c, 0, 83, 76
1, 1576960, Note_on_c, 0, 72, 76
1, 1578803, Note_on_c, 0, 83, 0
1, 1579008, Note_on_c, 0, 81, 76
1, 1580646, Note_on_c, 0, 72, 0
1, 1580851, Note_on_c, 0, 81, 0
1, 1581056, Note_on_c, 0, 83, 76
1, 1581056, Note_on_c, 0, 66, 76
1, 1582899, Note_on_c, 0, 83, 0
1, 1583104, Note_on_c, 0, 81, 76
1, 1584742, Note_on_c, 0, 66, 0
1, 1584947, Note_on_c, 0, 81, 0
1, 1585152, Note_on_c, 0, 83, 76
1, 1585152, Note_on_c, 0, 72, 76
1, 1586995, Note_on_c, 0, 83, 0
1, 1587200, Note_on_c, 0, 81, 76
1, 1588838, Note_on_c, 0, 72, 0
1, 1589043, Note_on_c, 0, 81, 0
1, 1589248, Note_on_c, 0, 83, 76
1, 1589248, Note_on_c, 0, 62, 76
1, 1591091, Note_on_c, 0, 83, 0
1, 1591296, Note_on_c, 0, 81, 76
1, 1592934, Note_on_c, 0, 62, 0
1, 1593139, Note_on_c, 0, 81, 0
1, 1593344, Note_on_c, 0, 83, 76
1, 1593344, Note_on_c, 0, 72, 76
1, 1595187, Note_on_c, 0, 83, 0
1, 1595392, Note_on_c, 0, 81, 76
1, 1597030, Note_on_c, 0, 72, 0
1, 1597235, Note_on_c, 0, 81, 0
1, 1597440, Note_on_c, 0, 83, 76
1, 1597440, Note_on_c, 0, 66, 76
1, 1599283, Note_on_c, 0, 83, 0
1, 1599488, Note_on_c, 0, 81, 76
1, 1601126, Note_on_c, 0, 66, 0
1, 1601331, Note_on_c, 0, 81, 0
1, 1601536, Note_on_c, 0, 83, 76
1, 1601536, Note_on_c, 0, 72, 76
1, 1603379, Note_on_c, 0, 83, 0
1, 1603584, Note_on_c, 0, 81, 76
1, 1605222, Note_on_c, 0, 72, 0
1, 1605427, Note_on_c, 0, 81, 0
1, 1605632, Note_on_c, 0, 83, 76
1, 1605632, Note_on_c, 0, 62, 76
1, 1607475, Note_on_c, 0, 83, 0
1, 1607680, Note_on_c, 0, 81, 76
1, 1609318, Note_on_c, 0, 62, 0
1, 1609523, Note_on_c, 0, 81, 0
1, 1609728, Note_on_c, 0, 83, 76
1, 1609728, Note_on_c, 0, 72, 76
1, 1611571, Note_on_c, 0, 83, 0
1, 1611776, Note_on_c, 0, 81, 76
1, 1613414, Note_on_c, 0, 72, 0
1, 1613619, Note_on_c, 0, 81, 0
1, 1613824, Note_on_c, 0, 83, 76
1, 1613824, Note_on_c, 0, 66, 76
1, 1615667, Note_on_c, 0, 83, 0
1, 1615872, Note_on_c, 0, 81, 76
1, 1617510, Note_on_c, 0, 66, 0
1, 1617715, Note_on_c, 0, 81, 0
1, 1617920, Note_on_c, 0, 83, 76
1, 1617920, Note_on_c, 0, 72, 76
1, 1619763, Note_on_c, 0, 83, 0
1, 1619968, Note_on_c, 0, 81, 76
1, 1621606, Note_on_c, 0, 72, 0
1, 1621811, Note_on_c, 0, 81, 0
1, 1622016, Note_on_c, 0, 83, 76
1, 1622016, Note_on_c, 0, 62, 76
1, 1623859, Note_on_c, 0, 83, 0
1, 1624064, Note_on_c, 0, 81, 76
1, 1625702, Note_on_c, 0, 62, 0
1, 1625907, Note_on_c, 0, 81, 0
1, 1626112, Note_on_c, 0, 83, 76
1, 1626112, Note_on_c, 0, 72, 76
1, 1627955, Note_on_c, 0, 83, 0
1, 1628160, Note_on_c, 0, 81, 76
1, 1629798, Note_on_c, 0, 72, 0
1, 1630003, Note_on_c, 0, 81, 0
1, 1630208, Note_on_c, 0, 79, 76
1, 1630208, Note_on_c, 0, 66, 76
1, 1633894, Note_on_c, 0, 79, 0
1, 1633894, Note_on_c, 0, 66, 0
1, 1634304, Note_on_c, 0, 81, 76
1, 1634304, Note_on_c, 0, 72, 76
1, 1637990, Note_on_c, 0, 81, 0
1, 1637990, Note_on_c, 0, 72, 0
1, 1638400, Note_on_c, 0, 79, 76
1, 1638400, Note_on_c, 0, 67, 76
1, 1638400, Note_on_c, 0, 71, 76
1, 1646592, Note_on_c, 0, 79, 0
1, 1646592, Note_on_c, 0, 71, 0
1, 1646592, Note_on_c, 0, 67, 0
1, 1654784, Note_on_c, 0, 79, 76
1, 1658470, Note_on_c, 0, 79, 0
1, 1658880, Note_on_c, 0, 74, 76
1, 1662566, Note_on_c, 0, 74, 0
1, 1662976, Note_on_c, 0, 79, 76
1, 1666662, Note_on_c, 0, 79, 0
1, 1667072, Note_on_c, 0, 83, 76
1, 1670758, Note_on_c, 0, 83, 0
1, 1671168, Note_on_c, 0, 86, 76
1, 1674854, Note_on_c, 0, 86, 0
1, 1675264, Note_on_c, 0, 83, 76
1, 1678950, Note_on_c, 0, 83, 0
1, 1679360, Note_on_c, 0, 79, 76
1, 1683046, Note_on_c, 0, 79, 0
1, 1683456, Note_on_c, 0, 83, 76
1, 1687142, Note_on_c, 0, 83, 0
1, 1687552, Note_on_c, 0, 84, 76
1, 1687552, Note_on_c, 0, 62, 76
1, 1687552, Note_on_c, 0, 69, 76
1, 1687552, Note_on_c, 0, 72, 76
1, 1691238, Note_on_c, 0, 84, 0
1, 1691648, Note_on_c, 0, 81, 76
1, 1695334, Note_on_c, 0, 81, 0
1, 1695744, Note_on_c, 0, 78, 76
1, 1699430, Note_on_c, 0, 78, 0
1, 1699840, Note_on_c, 0, 81, 76
1, 1702297, Note_on_c, 0, 72, 0
1, 1702297, Note_on_c, 0, 62, 0
1, 1702297, Note_on_c, 0, 69, 0
1, 1703526, Note_on_c, 0, 81, 0
1, 1703936, Note_on_c, 0, 79, 76
1, 1703936, Note_on_c, 0, 67, 76
1, 1703936, Note_on_c, 0, 71, 76
1, 1712128, Note_on_c, 0, 79, 0
1, 1712128, Note_on_c, 0, 71, 0
1, 1712128, Note_on_c, 0, 67, 0
1, 1720320, Note_on_c, 0, 67, 76
1, 1724006, Note_on_c, 0, 67, 0
1, 1724416, Note_on_c, 0, 62, 76
1, 1728102, Note_on_c, 0, 62, 0
1, 1728512, Note_on_c, 0, 67, 76
1, 1732198, Note_on_c, 0, 67, 0
1, 1732608, Note_on_c, 0, 71, 76
1, 1736294, Note_on_c, 0, 71, 0
1, 1736704, Note_on_c, 0, 74, 76
1, 1740390, Note_on_c, 0, 74, 0
1, 1740800, Note_on_c, 0, 71, 76
1, 1744486, Note_on_c, 0, 71, 0
1, 1744896, Note_on_c, 0, 67, 76
1, 1748582, Note_on_c, 0, 67, 0
1, 1748992, Note_on_c, 0, 71, 76
1, 1752678, Note_on_c, 0, 71, 0
1, 1753088, Note_on_c, 0, 72, 76
1, 1753088, Note_on_c, 0, 50, 76
1, 1753088, Note_on_c, 0, 57, 76
1, 1753088, Note_on_c, 0, 60, 76
1, 1756774, Note_on_c, 0, 72, 0
1, 1757184, Note_on_c, 0, 69, 76
1, 1760870, Note_on_c, 0, 69, 0
1, 1761280, Note_on_c, 0, 66, 76
1, 1764966, Note_on_c, 0, 66, 0
1, 1765376, Note_on_c, 0, 69, 76
1, 1767833, Note_on_c, 0, 60, 0
1, 1767833, Note_on_c, 0, 50, 0
1, 1767833, Note_on_c, 0, 57, 0
1, 1769062, Note_on_c, 0, 69, 0
1, 1769472, Note_on_c, 0, 67, 76
1, 1769472, Note_on_c, 0, 55, 76
1, 1769472, Note_on_c, 0, 59, 76
1, 1777664, Note_on_c, 0, 67, 0
1, 1777664, Note_on_c, 0, 59, 0
1, 1777664, Note_on_c, 0, 55, 0
1, 1785856, Note_on_c, 0, 74, 76
1, 1785856, Note_on_c, 0, 83, 76
1, 1785856, Note_on_c, 0, 55, 76
1, 1785856, Note_on_c, 0, 43, 76
1, 1794048, Note_on_c, 0, 74, 0
1, 1794048, Note_on_c, 0, 43, 0
1, 1794048, Note_on_c, 0, 55, 0
1, 1794048, Note_on_c, 0, 83, 0
1, 1802240, Note_on_c, 0, 71, 76
1, 1802240, Note_on_c, 0, 79, 76
1, 1802240, Note_on_c, 0, 43, 76
1, 1802240, Note_on_c, 0, 55, 76
1, 1810432, Note_on_c, 0, 71, 0
1, 1810432, Note_on_c, 0, 55, 0
1, 1810432, Note_on_c, 0, 43, 0
1, 1810432, Note_on_c, 0, 79, 0
1, 1835008, Note_on_c, 0, 67, 76
1, 1835008, Note_on_c, 0, 43, 76
1, 1835008, Note_on_c, 0, 55, 76
1, 1849753, Note_on_c, 0, 67, 0
1, 1849753, Note_on_c, 0, 55, 0
1, 1849753, Note_on_c, 0, 43, 0
1, 1851392, Note_on_c, 0, 79, 76
1, 1855078, Note_on_c, 0, 79, 0
1, 1855488, Note_on_c, 0, 74, 76
1, 1859174, Note_on_c, 0, 74, 0
1, 1859584, Note_on_c, 0, 79, 76
1, 1863270, Note_on_c, 0, 79, 0
1, 1863680, Note_on_c, 0, 82, 76
1, 1867366, Note_on_c, 0, 82, 0
1, 1867776, Note_on_c, 0, 86, 76
1, 1871462, Note_on_c, 0, 86, 0
1, 1871872, Note_on_c, 0, 82, 76
1, 1875558, Note_on_c, 0, 82, 0
1, 1875968, Note_on_c, 0, 79, 76
1, 1879654, Note_on_c, 0, 79, 0
1, 1880064, Note_on_c, 0, 82, 76
1, 1883750, Note_on_c, 0, 82, 0
1, 1884160, Note_on_c, 0, 84, 76
1, 1884160, Note_on_c, 0, 62, 76
1, 1884160, Note_on_c, 0, 69, 76
1, 1884160, Note_on_c, 0, 72, 76
1, 1887846, Note_on_c, 0, 84, 0
1, 1888256, Note_on_c, 0, 81, 76
1, 1891942, Note_on_c, 0, 81, 0
1, 1892352, Note_on_c, 0, 78, 76
1, 1896038, Note_on_c, 0, 78, 0
1, 1896448, Note_on_c, 0, 81, 76
1, 1898905, Note_on_c, 0, 72, 0
1, 1898905, Note_on_c, 0, 62, 0
1, 1898905, Note_on_c, 0, 69, 0
1, 1900134, Note_on_c, 0, 81, 0
1, 1900544, Note_on_c, 0, 79, 76
1, 1900544, Note_on_c, 0, 67, 76
1, 1900544, Note_on_c, 0, 70, 76
1, 1908736, Note_on_c, 0, 79, 0
1, 1915289, Note_on_c, 0, 70, 0
1, 1915289, Note_on_c, 0, 67, 0
1, 1916928, Note_on_c, 0, 67, 76
1, 1920614, Note_on_c, 0, 67, 0
1, 1921024, Note_on_c, 0, 62, 76
1, 1924710, Note_on_c, 0, 62, 0
1, 1925120, Note_on_c, 0, 67, 76
1, 1928806, Note_on_c, 0, 67, 0
1, 1929216, Note_on_c, 0, 70, 76
1, 1932902, Note_on_c, 0, 70, 0
1, 1933312, Note_on_c, 0, 74, 76
1, 1936998, Note_on_c, 0, 74, 0
1, 1937408, Note_on_c, 0, 70, 76
1, 1941094, Note_on_c, 0, 70, 0
1, 1941504, Note_on_c, 0, 67, 76
1, 1945190, Note_on_c, 0, 67, 0
1, 1945600, Note_on_c, 0, 70, 76
1, 1949286, Note_on_c, 0, 70, 0
1, 1949696, Note_on_c, 0, 72, 76
1, 1949696, Note_on_c, 0, 50, 76
1, 1949696, Note_on_c, 0, 57, 76
1, 1949696, Note_on_c, 0, 60, 76
1, 1953382, Note_on_c, 0, 72, 0
1, 1953792, Note_on_c, 0, 69, 76
1, 1957478, Note_on_c, 0, 69, 0
1, 1957888, Note_on_c, 0, 66, 76
1, 1961574, Note_on_c, 0, 66, 0
1, 1961984, Note_on_c, 0, 69, 76
1, 1964441, Note_on_c, 0, 60, 0
1, 1964441, Note_on_c, 0, 50, 0
1, 1964441, Note_on_c, 0, 57, 0
1, 1965670, Note_on_c, 0, 69, 0
1, 1966080, Note_on_c, 0, 67, 76
1, 1970176, Note_on_c, 0, 43, 76
1, 1973862, Note_on_c, 0, 43, 0
1, 1974272, Note_on_c, 0, 67, 0
1, 1974272, Note_on_c, 0, 45, 76
1, 1977958, Note_on_c, 0, 45, 0
1, 1978368, Note_on_c, 0, 46, 76
1, 1982054, Note_on_c, 0, 46, 0
1, 1982464, Note_on_c, 0, 48, 76
1, 1986150, Note_on_c, 0, 48, 0
1, 1986560, Note_on_c, 0, 50, 76
1, 1990246, Note_on_c, 0, 50, 0
1, 1990656, Note_on_c, 0, 52, 76
1, 1994342, Note_on_c, 0, 52, 0
1, 1994752, Note_on_c, 0, 54, 76
1, 1998438, Note_on_c, 0, 54, 0
1, 1998848, Note_on_c, 0, 55, 76
1, 2002944, Note_on_c, 0, 79, 76
1, 2006630, Note_on_c, 0, 79, 0
1, 2007040, Note_on_c, 0, 82, 76
1, 2010726, Note_on_c, 0, 82, 0
1, 2011136, Note_on_c, 0, 81, 76
1, 2013593, Note_on_c, 0, 55, 0
1, 2014822, Note_on_c, 0, 81, 0
1, 2015232, Note_on_c, 0, 79, 76
1, 2018918, Note_on_c, 0, 79, 0
1, 2019328, Note_on_c, 0, 77, 76
1, 2023014, Note_on_c, 0, 77, 0
1, 2023424, Note_on_c, 0, 76, 76
1, 2027110, Note_on_c, 0, 76, 0
1, 2027520, Note_on_c, 0, 74, 76
1, 2031206, Note_on_c, 0, 74, 0
1, 2031616, Note_on_c, 0, 73, 76
1, 2035712, Note_on_c, 0, 45, 76
1, 2039398, Note_on_c, 0, 45, 0
1, 2039808, Note_on_c, 0, 47, 76
1, 2043494, Note_on_c, 0, 47, 0
1, 2043904, Note_on_c, 0, 49, 76
1, 2046361, Note_on_c, 0, 73, 0
1, 2047590, Note_on_c, 0, 49, 0
1, 2048000, Note_on_c, 0, 50, 76
1, 2051686, Note_on_c, 0, 50, 0
1, 2052096, Note_on_c, 0, 52, 76
1, 2055782, Note_on_c, 0, 52, 0
1, 2056192, Note_on_c, 0, 54, 76
1, 2059878, Note_on_c, 0, 54, 0
1, 2060288, Note_on_c, 0, 56, 76
1, 2063974, Note_on_c, 0, 56, 0
1, 2064384, Note_on_c, 0, 57, 76
1, 2068480, Note_on_c, 0, 85, 76
1, 2072166, Note_on_c, 0, 85, 0
1, 2072576, Note_on_c, 0, 88, 76
1, 2076262, Note_on_c, 0, 88, 0
1, 2076672, Note_on_c, 0, 86, 76
1, 2079129, Note_on_c, 0, 57, 0
1, 2080358, Note_on_c, 0, 86, 0
1, 2080768, Note_on_c, 0, 85, 76
1, 2084454, Note_on_c, 0, 85, 0
1, 2084864, Note_on_c, 0, 82, 76
1, 2088550, Note_on_c, 0, 82, 0
1, 2088960, Note_on_c, 0, 81, 76
1, 2092646, Note_on_c, 0, 81, 0
1, 2093056, Note_on_c, 0, 79, 76
1, 2096742, Note_on_c, 0, 79, 0
1, 2097152, Note_on_c, 0, 77, 76
1, 2097152, Note_on_c, 0, 50, 76
1, 2097152, Note_on_c, 0, 38, 76
1, 2111897, Note_on_c, 0, 77, 0
1, 2111897, Note_on_c, 0, 38, 0
1, 2111897, Note_on_c, 0, 50, 0
1, 2113536, Note_on_c, 0, 74, 76
1, 2117222, Note_on_c, 0, 74, 0
1, 2117632, Note_on_c, 0, 69, 76
1, 2121318, Note_on_c, 0, 69, 0
1, 2121728, Note_on_c, 0, 74, 76
1, 2125414, Note_on_c, 0, 74, 0
1, 2125824, Note_on_c, 0, 77, 76
1, 2129510, Note_on_c, 0, 77, 0
1, 2129920, Note_on_c, 0, 81, 76
1, 2133606, Note_on_c, 0, 81, 0
1, 2134016, Note_on_c, 0, 77, 76
1, 2137702, Note_on_c, 0, 77, 0
1, 2138112, Note_on_c, 0, 74, 76
1, 2141798, Note_on_c, 0, 74, 0
1, 2142208, Note_on_c, 0, 77, 76
1, 2145894, Note_on_c, 0, 77, 0
1, 2146304, Note_on_c, 0, 79, 76
1, 2146304, Note_on_c, 0, 57, 76
1, 2146304, Note_on_c, 0, 64, 76
1, 2146304, Note_on_c, 0, 67, 76
1, 2149990, Note_on_c, 0, 79, 0
1, 2150400, Note_on_c, 0, 76, 76
1, 2154086, Note_on_c, 0, 76, 0
1, 2154496, Note_on_c, 0, 73, 76
1, 2158182, Note_on_c, 0, 73, 0
1, 2158592, Note_on_c, 0, 76, 76
1, 2161049, Note_on_c, 0, 67, 0
1, 2161049, Note_on_c, 0, 57, 0
1, 2161049, Note_on_c, 0, 64, 0
1, 2162278, Note_on_c, 0, 76, 0
1, 2162688, Note_on_c, 0, 74, 76
1, 2162688, Note_on_c, 0, 62, 76
1, 2162688, Note_on_c, 0, 65, 76
1, 2170880, Note_on_c, 0, 74, 0
1, 2177433, Note_on_c, 0, 65, 0
1, 2177433, Note_on_c, 0, 62, 0
1, 2179072, Note_on_c, 0, 62, 76
1, 2182758, Note_on_c, 0, 62, 0
1, 2183168, Note_on_c, 0, 57, 76
1, 2186854, Note_on_c, 0, 57, 0
1, 2187264, Note_on_c, 0, 62, 76
1, 2190950, Note_on_c, 0, 62, 0
1, 2191360, Note_on_c, 0, 65, 76
1, 2195046, Note_on_c, 0, 65, 0
1, 2195456, Note_on_c, 0, 69, 76
1, 2199142, Note_on_c, 0, 69, 0
1, 2199552, Note_on_c, 0, 65, 76
1, 2203238, Note_on_c, 0, 65, 0
1, 2203648, Note_on_c, 0, 62, 76
1, 2207334, Note_on_c, 0, 62, 0
1, 2207744, Note_on_c, 0, 65, 76
1, 2211430, Note_on_c, 0, 65, 0
1, 2211840, Note_on_c, 0, 67, 76
1, 2211840, Note_on_c, 0, 45, 76
1, 2211840, Note_on_c, 0, 52, 76
1, 2211840, Note_on_c, 0, 55, 76
1, 2215526, Note_on_c, 0, 67, 0
1, 2215936, Note_on_c, 0, 64, 76
1, 2219622, Note_on_c, 0, 64, 0
1, 2220032, Note_on_c, 0, 61, 76
1, 2223718, Note_on_c, 0, 61, 0
1, 2224128, Note_on_c, 0, 64, 76
1, 2226585, Note_on_c, 0, 55, 0
1, 2226585, Note_on_c, 0, 45, 0
1, 2226585, Note_on_c, 0, 52, 0
1, 2227814, Note_on_c, 0, 64, 0
1, 2228224, Note_on_c, 0, 50, 76
1, 2228224, Note_on_c, 0, 53, 76
1, 2232320, Note_on_c, 0, 62, 76
1, 2236006, Note_on_c, 0, 62, 0
1, 2236416, Note_on_c, 0, 64, 76
1, 2240102, Note_on_c, 0, 64, 0
1, 2240512, Note_on_c, 0, 65, 76
1, 2242969, Note_on_c, 0, 50, 0
1, 2242969, Note_on_c, 0, 53, 0
1, 2244198, Note_on_c, 0, 65, 0
1, 2244608, Note_on_c, 0, 67, 76
1, 2248294, Note_on_c, 0, 67, 0
1, 2248704, Note_on_c, 0, 69, 76
1, 2252390, Note_on_c, 0, 69, 0
1, 2252800, Note_on_c, 0, 71, 76
1, 2256486, Note_on_c, 0, 71, 0
1, 2256896, Note_on_c, 0, 73, 76
1, 2260582, Note_on_c, 0, 73, 0
1, 2260992, Note_on_c, 0, 74, 76
1, 2265088, Note_on_c, 0, 62, 76
1, 2268774, Note_on_c, 0, 62, 0
1, 2269184, Note_on_c, 0, 65, 76
1, 2272870, Note_on_c, 0, 65, 0
1, 2273280, Note_on_c, 0, 64, 76
1, 2275737, Note_on_c, 0, 74, 0
1, 2276966, Note_on_c, 0, 64, 0
1, 2277376, Note_on_c, 0, 62, 76
1, 2281062, Note_on_c, 0, 62, 0
1, 2281472, Note_on_c, 0, 60, 76
1, 2285158, Note_on_c, 0, 60, 0
1, 2285568, Note_on_c, 0, 59, 76
1, 2289254, Note_on_c, 0, 59, 0
1, 2289664, Note_on_c, 0, 57, 76
1, 2293350, Note_on_c, 0, 57, 0
1, 2293760, Note_on_c, 0, 56, 76
1, 2297856, Note_on_c, 0, 71, 76
1, 2301542, Note_on_c, 0, 71, 0
1, 2301952, Note_on_c, 0, 72, 76
1, 2305638, Note_on_c, 0, 72, 0
1, 2306048, Note_on_c, 0, 74, 76
1, 2308505, Note_on_c, 0, 56, 0
1, 2309734, Note_on_c, 0, 74, 0
1, 2310144, Note_on_c, 0, 76, 76
1, 2313830, Note_on_c, 0, 76, 0
1, 2314240, Note_on_c, 0, 78, 76
1, 2317926, Note_on_c, 0, 78, 0
1, 2318336, Note_on_c, 0, 80, 76
1, 2322022, Note_on_c, 0, 80, 0
1, 2322432, Note_on_c, 0, 81, 76
1, 2326118, Note_on_c, 0, 81, 0
1, 2326528, Note_on_c, 0, 83, 76
1, 2330624, Note_on_c, 0, 56, 76
1, 2334310, Note_on_c, 0, 56, 0
1, 2334720, Note_on_c, 0, 59, 76
1, 2338406, Note_on_c, 0, 59, 0
1, 2338816, Note_on_c, 0, 57, 76
1, 2341273, Note_on_c, 0, 83, 0
1, 2342502, Note_on_c, 0, 57, 0
1, 2342912, Note_on_c, 0, 56, 76
1, 2346598, Note_on_c, 0, 56, 0
1, 2347008, Note_on_c, 0, 53, 76
1, 2350694, Note_on_c, 0, 53, 0
1, 2351104, Note_on_c, 0, 52, 76
1, 2354790, Note_on_c, 0, 52, 0
1, 2355200, Note_on_c, 0, 50, 76
1, 2358886, Note_on_c, 0, 50, 0
1, 2359296, Note_on_c, 0, 48, 76
1, 2363392, Note_on_c, 0, 81, 76
1, 2367078, Note_on_c, 0, 81, 0
1, 2367488, Note_on_c, 0, 88, 76
1, 2371174, Note_on_c, 0, 88, 0
1, 2371584, Note_on_c, 0, 86, 76
1, 2374041, Note_on_c, 0, 48, 0
1, 2375270, Note_on_c, 0, 86, 0
1, 2375680, Note_on_c, 0, 84, 76
1, 2379366, Note_on_c, 0, 84, 0
1, 2379776, Note_on_c, 0, 83, 76
1, 2383462, Note_on_c, 0, 83, 0
1, 2383872, Note_on_c, 0, 81, 76
1, 2387558, Note_on_c, 0, 81, 0
1, 2387968, Note_on_c, 0, 79, 76
1, 2391654, Note_on_c, 0, 79, 0
1, 2392064, Note_on_c, 0, 77, 76
1, 2396160, Note_on_c, 0, 62, 76
1, 2399846, Note_on_c, 0, 62, 0
1, 2400256, Note_on_c, 0, 69, 76
1, 2403942, Note_on_c, 0, 69, 0
1, 2404352, Note_on_c, 0, 67, 76
1, 2406809, Note_on_c, 0, 77, 0
1, 2408038, Note_on_c, 0, 67, 0
1, 2408448, Note_on_c, 0, 65, 76
1, 2412134, Note_on_c, 0, 65, 0
1, 2412544, Note_on_c, 0, 64, 76
1, 2416230, Note_on_c, 0, 64, 0
1, 2416640, Note_on_c, 0, 62, 76
1, 2420326, Note_on_c, 0, 62, 0
1, 2420736, Note_on_c, 0, 60, 76
1, 2424422, Note_on_c, 0, 60, 0
1, 2424832, Note_on_c, 0, 59, 76
1, 2428928, Note_on_c, 0, 79, 76
1, 2432614, Note_on_c, 0, 79, 0
1, 2433024, Note_on_c, 0, 86, 76
1, 2436710, Note_on_c, 0, 86, 0
1, 2437120, Note_on_c, 0, 84, 76
1, 2439577, Note_on_c, 0, 59, 0
1, 2440806, Note_on_c, 0, 84, 0
1, 2441216, Note_on_c, 0, 83, 76
1, 2444902, Note_on_c, 0, 83, 0
1, 2445312, Note_on_c, 0, 81, 76
1, 2448998, Note_on_c, 0, 81, 0
1, 2449408, Note_on_c, 0, 79, 76
1, 2453094, Note_on_c, 0, 79, 0
1, 2453504, Note_on_c, 0, 77, 76
1, 2457190, Note_on_c, 0, 77, 0
1, 2457600, Note_on_c, 0, 76, 76
1, 2461696, Note_on_c, 0, 60, 76
1, 2465382, Note_on_c, 0, 60, 0
1, 2465792, Note_on_c, 0, 67, 76
1, 2469478, Note_on_c, 0, 67, 0
1, 2469888, Note_on_c, 0, 65, 76
1, 2472345, Note_on_c, 0, 76, 0
1, 2473574, Note_on_c, 0, 65, 0
1, 2473984, Note_on_c, 0, 64, 76
1, 2477670, Note_on_c, 0, 64, 0
1, 2478080, Note_on_c, 0, 62, 76
1, 2481766, Note_on_c, 0, 62, 0
1, 2482176, Note_on_c, 0, 60, 76
1, 2485862, Note_on_c, 0, 60, 0
1, 2486272, Note_on_c, 0, 59, 76
1, 2489958, Note_on_c, 0, 59, 0
1, 2490368, Note_on_c, 0, 57, 76
1, 2494464, Note_on_c, 0, 77, 76
1, 2498150, Note_on_c, 0, 77, 0
1, 2498560, Note_on_c, 0, 84, 76
1, 2502246, Note_on_c, 0, 84, 0
1, 2502656, Note_on_c, 0, 83, 76
1, 2505113, Note_on_c, 0, 57, 0
1, 2506342, Note_on_c, 0, 83, 0
1, 2506752, Note_on_c, 0, 81, 76
1, 2510438, Note_on_c, 0, 81, 0
1, 2510848, Note_on_c, 0, 79, 76
1, 2514534, Note_on_c, 0, 79, 0
1, 2514944, Note_on_c, 0, 77, 76
1, 2518630, Note_on_c, 0, 77, 0
1, 2519040, Note_on_c, 0, 76, 76
1, 2522726, Note_on_c, 0, 76, 0
1, 2523136, Note_on_c, 0, 74, 76
1, 2527232, Note_on_c, 0, 59, 76
1, 2530918, Note_on_c, 0, 59, 0
1, 2531328, Note_on_c, 0, 65, 76
1, 2535014, Note_on_c, 0, 65, 0
1, 2535424, Note_on_c, 0, 64, 76
1, 2537881, Note_on_c, 0, 74, 0
1, 2539110, Note_on_c, 0, 64, 0
1, 2539520, Note_on_c, 0, 62, 76
1, 2543206, Note_on_c, 0, 62, 0
1, 2543616, Note_on_c, 0, 60, 76
1, 2547302, Note_on_c, 0, 60, 0
1, 2547712, Note_on_c, 0, 59, 76
1, 2551398, Note_on_c, 0, 59, 0
1, 2551808, Note_on_c, 0, 57, 76
1, 2555494, Note_on_c, 0, 57, 0
1, 2555904, Note_on_c, 0, 56, 76
1, 2560000, Note_on_c, 0, 76, 76
1, 2563686, Note_on_c, 0, 76, 0
1, 2564096, Note_on_c, 0, 83, 76
1, 2567782, Note_on_c, 0, 83, 0
1, 2568192, Note_on_c, 0, 81, 76
1, 2570649, Note_on_c, 0, 56, 0
1, 2571878, Note_on_c, 0, 81, 0
1, 2572288, Note_on_c, 0, 80, 76
1, 2575974, Note_on_c, 0, 80, 0
1, 2576384, Note_on_c, 0, 77, 76
1, 2580070, Note_on_c, 0, 77, 0
1, 2580480, Note_on_c, 0, 76, 76
1, 2584166, Note_on_c, 0, 76, 0
1, 2584576, Note_on_c, 0, 74, 76
1, 2588262, Note_on_c, 0, 74, 0
1, 2588672, Note_on_c, 0, 72, 76
1, 2592768, Note_on_c, 0, 57, 76
1, 2596454, Note_on_c, 0, 57, 0
1, 2596864, Note_on_c, 0, 60, 76
1, 2600550, Note_on_c, 0, 60, 0
1, 2600960, Note_on_c, 0, 59, 76
1, 2603417, Note_on_c, 0, 72, 0
1, 2604646, Note_on_c, 0, 59, 0
1, 2605056, Note_on_c, 0, 57, 76
1, 2608742, Note_on_c, 0, 57, 0
1, 2609152, Note_on_c, 0, 55, 76
1, 2612838, Note_on_c, 0, 55, 0
1, 2613248, Note_on_c, 0, 53, 76
1, 2616934, Note_on_c, 0, 53, 0
1, 2617344, Note_on_c, 0, 52, 76
1, 2621030, Note_on_c, 0, 52, 0
1, 2621440, Note_on_c, 0, 50, 76
1, 2625536, Note_on_c, 0, 70, 76
1, 2629222, Note_on_c, 0, 70, 0
1, 2629632, Note_on_c, 0, 74, 76
1, 2633318, Note_on_c, 0, 74, 0
1, 2633728, Note_on_c, 0, 72, 76
1, 2637414, Note_on_c, 0, 72, 0
1, 2637824, Note_on_c, 0, 70, 76
1, 2641510, Note_on_c, 0, 70, 0
1, 2641920, Note_on_c, 0, 69, 76
1, 2645606, Note_on_c, 0, 69, 0
1, 2646016, Note_on_c, 0, 67, 76
1, 2649702, Note_on_c, 0, 67, 0
1, 2650112, Note_on_c, 0, 65, 76
1, 2650931, Note_on_c, 0, 50, 0
1, 2653798, Note_on_c, 0, 65, 0
1, 2654208, Note_on_c, 0, 64, 76
1, 2654208, Note_on_c, 0, 48, 76
1, 2654208, Note_on_c, 0, 58, 76
1, 2654208, Note_on_c, 0, 55, 76
1, 2657894, Note_on_c, 0, 64, 0
1, 2658304, Note_on_c, 0, 65, 76
1, 2661990, Note_on_c, 0, 65, 0
1, 2662400, Note_on_c, 0, 67, 76
1, 2666086, Note_on_c, 0, 67, 0
1, 2666496, Note_on_c, 0, 69, 76
1, 2670182, Note_on_c, 0, 69, 0
1, 2670592, Note_on_c, 0, 70, 76
1, 2674278, Note_on_c, 0, 70, 0
1, 2674688, Note_on_c, 0, 72, 76
1, 2678374, Note_on_c, 0, 72, 0
1, 2678784, Note_on_c, 0, 74, 76
1, 2682470, Note_on_c, 0, 74, 0
1, 2682880, Note_on_c, 0, 76, 76
1, 2683699, Note_on_c, 0, 55, 0
1, 2683699, Note_on_c, 0, 48, 0
1, 2683699, Note_on_c, 0, 58, 0
1, 2686566, Note_on_c, 0, 76, 0
1, 2686976, Note_on_c, 0, 77, 76
1, 2686976, Note_on_c, 0, 65, 76
1, 2694348, Note_on_c, 0, 65, 0
1, 2695168, Note_on_c, 0, 72, 76
1, 2702540, Note_on_c, 0, 72, 0
1, 2703360, Note_on_c, 0, 69, 76
1, 2710732, Note_on_c, 0, 69, 0
1, 2711552, Note_on_c, 0, 72, 76
1, 2716467, Note_on_c, 0, 77, 0
1, 2718924, Note_on_c, 0, 72, 0
1, 2719744, Note_on_c, 0, 81, 76
1, 2719744, Note_on_c, 0, 65, 76
1, 2727116, Note_on_c, 0, 65, 0
1, 2727936, Note_on_c, 0, 72, 76
1, 2734489, Note_on_c, 0, 81, 0
1, 2735308, Note_on_c, 0, 72, 0
1, 2736128, Note_on_c, 0, 84, 76
1, 2736128, Note_on_c, 0, 69, 76
1, 2743500, Note_on_c, 0, 69, 0
1, 2744320, Note_on_c, 0, 72, 76
1, 2750873, Note_on_c, 0, 84, 0
1, 2751692, Note_on_c, 0, 72, 0
1, 2752512, Note_on_c, 0, 76, 76
1, 2752512, Note_on_c, 0, 67, 76
1, 2759884, Note_on_c, 0, 67, 0
1, 2760704, Note_on_c, 0, 72, 76
1, 2768076, Note_on_c, 0, 72, 0
1, 2768896, Note_on_c, 0, 70, 76
1, 2774630, Note_on_c, 0, 76, 0
1, 2776268, Note_on_c, 0, 70, 0
1, 2777088, Note_on_c, 0, 77, 76
1, 2777088, Note_on_c, 0, 72, 76
1, 2780774, Note_on_c, 0, 77, 0
1, 2781184, Note_on_c, 0, 79, 76
1, 2784460, Note_on_c, 0, 72, 0
1, 2784870, Note_on_c, 0, 79, 0
1, 2785280, Note_on_c, 0, 77, 76
1, 2785280, Note_on_c, 0, 65, 76
1, 2792652, Note_on_c, 0, 65, 0
1, 2793472, Note_on_c, 0, 72, 76
1, 2800025, Note_on_c, 0, 77, 0
1, 2800844, Note_on_c, 0, 72, 0
1, 2801664, Note_on_c, 0, 69, 76
1, 2809036, Note_on_c, 0, 69, 0
1, 2809856, Note_on_c, 0, 72, 76
1, 2817228, Note_on_c, 0, 72, 0
1, 2818048, Note_on_c, 0, 86, 76
1, 2818048, Note_on_c, 0, 65, 76
1, 2825420, Note_on_c, 0, 65, 0
1, 2826240, Note_on_c, 0, 74, 76
1, 2833612, Note_on_c, 0, 74, 0
1, 2834432, Note_on_c, 0, 70, 76
1, 2841804, Note_on_c, 0, 70, 0
1, 2842624, Note_on_c, 0, 74, 76
1, 2847539, Note_on_c, 0, 86, 0
1, 2849996, Note_on_c, 0, 74, 0
1, 2850816, Note_on_c, 0, 84, 76
1, 2850816, Note_on_c, 0, 65, 76
1, 2858188, Note_on_c, 0, 65, 0
1, 2859008, Note_on_c, 0, 72, 76
1, 2865561, Note_on_c, 0, 84, 0
1, 2866380, Note_on_c, 0, 72, 0
1, 2867200, Note_on_c, 0, 89, 76
1, 2867200, Note_on_c, 0, 69, 76
1, 2874572, Note_on_c, 0, 69, 0
1, 2875392, Note_on_c, 0, 72, 76
1, 2881945, Note_on_c, 0, 89, 0
1, 2882764, Note_on_c, 0, 72, 0
1, 2883584, Note_on_c, 0, 84, 76
1, 2883584, Note_on_c, 0, 64, 76
1, 2890956, Note_on_c, 0, 64, 0
1, 2891776, Note_on_c, 0, 72, 76
1, 2898329, Note_on_c, 0, 84, 0
1, 2899148, Note_on_c, 0, 72, 0
1, 2899968, Note_on_c, 0, 84, 76
1, 2899968, Note_on_c, 0, 67, 76
1, 2901811, Note_on_c, 0, 84, 0
1, 2902016, Note_on_c, 0, 82, 76
1, 2903859, Note_on_c, 0, 82, 0
1, 2904064, Note_on_c, 0, 84, 76
1, 2905907, Note_on_c, 0, 84, 0
1, 2906112, Note_on_c, 0, 82, 76
1, 2907340, Note_on_c, 0, 67, 0
1, 2907955, Note_on_c, 0, 82, 0
1, 2908160, Note_on_c, 0, 81, 76
1, 2908160, Note_on_c, 0, 72, 76
1, 2911846, Note_on_c, 0, 81, 0
1, 2912256, Note_on_c, 0, 82, 76
1, 2915532, Note_on_c, 0, 72, 0
1, 2915942, Note_on_c, 0, 82, 0
1, 2916352, Note_on_c, 0, 81, 76
1, 2916352, Note_on_c, 0, 65, 76
1, 2923724, Note_on_c, 0, 65, 0
1, 2924544, Note_on_c, 0, 72, 76
1, 2931097, Note_on_c, 0, 81, 0
1, 2931916, Note_on_c, 0, 72, 0
1, 2932736, Note_on_c, 0, 69, 76
1, 2940108, Note_on_c, 0, 69, 0
1, 2940928, Note_on_c, 0, 72, 76
1, 2948300, Note_on_c, 0, 72, 0
1, 2949120, Note_on_c, 0, 74, 76
1, 2949120, Note_on_c, 0, 70, 76
1, 2956492, Note_on_c, 0, 74, 0
1, 2957312, Note_on_c, 0, 76, 76
1, 2960998, Note_on_c, 0, 76, 0
1, 2961408, Note_on_c, 0, 77, 76
1, 2963865, Note_on_c, 0, 70, 0
1, 2965094, Note_on_c, 0, 77, 0
1, 2965504, Note_on_c, 0, 79, 76
1, 2969190, Note_on_c, 0, 79, 0
1, 2969600, Note_on_c, 0, 81, 76
1, 2973286, Note_on_c, 0, 81, 0
1, 2973696, Note_on_c, 0, 82, 76
1, 2977382, Note_on_c, 0, 82, 0
1, 2977792, Note_on_c, 0, 84, 76
1, 2981478, Note_on_c, 0, 84, 0
1, 2981888, Note_on_c, 0, 86, 76
1, 2985574, Note_on_c, 0, 86, 0
1, 2985984, Note_on_c, 0, 84, 76
1, 2989670, Note_on_c, 0, 84, 0
1, 2990080, Note_on_c, 0, 82, 76
1, 2993766, Note_on_c, 0, 82, 0
1, 2994176, Note_on_c, 0, 81, 76
1, 2997862, Note_on_c, 0, 81, 0
1, 2998272, Note_on_c, 0, 79, 76
1, 2998272, Note_on_c, 0, 58, 76
1, 2998272, Note_on_c, 0, 65, 76
1, 3001958, Note_on_c, 0, 79, 0
1, 3002368, Note_on_c, 0, 77, 76
1, 3006054, Note_on_c, 0, 77, 0
1, 3006464, Note_on_c, 0, 65, 0
1, 3006464, Note_on_c, 0, 58, 0
1, 3006464, Note_on_c, 0, 76, 76
1, 3010150, Note_on_c, 0, 76, 0
1, 3010560, Note_on_c, 0, 74, 76
1, 3014246, Note_on_c, 0, 74, 0
1, 3014656, Note_on_c, 0, 72, 76
1, 3014656, Note_on_c, 0, 57, 76
1, 3014656, Note_on_c, 0, 65, 76
1, 3022028, Note_on_c, 0, 72, 0
1, 3022848, Note_on_c, 0, 65, 0
1, 3022848, Note_on_c, 0, 57, 0
1, 3022848, Note_on_c, 0, 74, 76
1, 3026534, Note_on_c, 0, 74, 0
1, 3026944, Note_on_c, 0, 76, 76
1, 3030630, Note_on_c, 0, 76, 0
1, 3031040, Note_on_c, 0, 77, 76
1, 3034726, Note_on_c, 0, 77, 0
1, 3035136, Note_on_c, 0, 79, 76
1, 3038822, Note_on_c, 0, 79, 0
1, 3039232, Note_on_c, 0, 81, 76
1, 3042918, Note_on_c, 0, 81, 0
1, 3043328, Note_on_c, 0, 82, 76
1, 3047014, Note_on_c, 0, 82, 0
1, 3047424, Note_on_c, 0, 84, 76
1, 3051110, Note_on_c, 0, 84, 0
1, 3051520, Note_on_c, 0, 82, 76
1, 3055206, Note_on_c, 0, 82, 0
1, 3055616, Note_on_c, 0, 81, 76
1, 3059302, Note_on_c, 0, 81, 0
1, 3059712, Note_on_c, 0, 79, 76
1, 3063398, Note_on_c, 0, 79, 0
1, 3063808, Note_on_c, 0, 77, 76
1, 3063808, Note_on_c, 0, 57, 76
1, 3063808, Note_on_c, 0, 65, 76
1, 3067494, Note_on_c, 0, 77, 0
1, 3067904, Note_on_c, 0, 76, 76
1, 3071590, Note_on_c, 0, 76, 0
1, 3072000, Note_on_c, 0, 65, 0
1, 3072000, Note_on_c, 0, 57, 0
1, 3072000, Note_on_c, 0, 74, 76
1, 3075686, Note_on_c, 0, 74, 0
1, 3076096, Note_on_c, 0, 72, 76
1, 3079782, Note_on_c, 0, 72, 0
1, 3080192, Note_on_c, 0, 70, 76
1, 3080192, Note_on_c, 0, 55, 76
1, 3080192, Note_on_c, 0, 65, 76
1, 3087564, Note_on_c, 0, 70, 0
1, 3088384, Note_on_c, 0, 65, 0
1, 3088384, Note_on_c, 0, 55, 0
1, 3088384, Note_on_c, 0, 72, 76
1, 3092070, Note_on_c, 0, 72, 0
1, 3092480, Note_on_c, 0, 74, 76
1, 3096166, Note_on_c, 0, 74, 0
1, 3096576, Note_on_c, 0, 76, 76
1, 3100262, Note_on_c, 0, 76, 0
1, 3100672, Note_on_c, 0, 77, 76
1, 3104358, Note_on_c, 0, 77, 0
1, 3104768, Note_on_c, 0, 79, 76
1, 3108454, Note_on_c, 0, 79, 0
1, 3108864, Note_on_c, 0, 81, 76
1, 3112550, Note_on_c, 0, 81, 0
1, 3112960, Note_on_c, 0, 82, 76
1, 3116646, Note_on_c, 0, 82, 0
1, 3117056, Note_on_c, 0, 81, 76
1, 3120742, Note_on_c, 0, 81, 0
1, 3121152, Note_on_c, 0, 79, 76
1, 3124838, Note_on_c, 0, 79, 0
1, 3125248, Note_on_c, 0, 77, 76
1, 3128934, Note_on_c, 0, 77, 0
1, 3129344, Note_on_c, 0, 76, 76
1, 3133030, Note_on_c, 0, 76, 0
1, 3133440, Note_on_c, 0, 74, 76
1, 3137126, Note_on_c, 0, 74, 0
1, 3137536, Note_on_c, 0, 72, 76
1, 3141222, Note_on_c, 0, 72, 0
1, 3141632, Note_on_c, 0, 70, 76
1, 3145318, Note_on_c, 0, 70, 0
1, 3145728, Note_on_c, 0, 81, 76
1, 3145728, Note_on_c, 0, 53, 76
1, 3153100, Note_on_c, 0, 53, 0
1, 3153920, Note_on_c, 0, 81, 0
1, 3153920, Note_on_c, 0, 55, 76
1, 3157606, Note_on_c, 0, 55, 0
1, 3158016, Note_on_c, 0, 57, 76
1, 3161702, Note_on_c, 0, 57, 0
1, 3162112, Note_on_c, 0, 58, 76
1, 3165798, Note_on_c, 0, 58, 0
1, 3166208, Note_on_c, 0, 60, 76
1, 3169894, Note_on_c, 0, 60, 0
1, 3170304, Note_on_c, 0, 62, 76
1, 3173990, Note_on_c, 0, 62, 0
1, 3174400, Note_on_c, 0, 64, 76
1, 3178086, Note_on_c, 0, 64, 0
1, 3178496, Note_on_c, 0, 65, 76
1, 3182182, Note_on_c, 0, 65, 0
1, 3182592, Note_on_c, 0, 64, 76
1, 3186278, Note_on_c, 0, 64, 0
1, 3186688, Note_on_c, 0, 62, 76
1, 3190374, Note_on_c, 0, 62, 0
1, 3190784, Note_on_c, 0, 60, 76
1, 3194470, Note_on_c, 0, 60, 0
1, 3194880, Note_on_c, 0, 72, 76
1, 3194880, Note_on_c, 0, 81, 76
1, 3194880, Note_on_c, 0, 58, 76
1, 3198566, Note_on_c, 0, 58, 0
1, 3198976, Note_on_c, 0, 57, 76
1, 3202662, Note_on_c, 0, 57, 0
1, 3203072, Note_on_c, 0, 72, 0
1, 3203072, Note_on_c, 0, 81, 0
1, 3203072, Note_on_c, 0, 55, 76
1, 3206758, Note_on_c, 0, 55, 0
1, 3207168, Note_on_c, 0, 53, 76
1, 3210854, Note_on_c, 0, 53, 0
1, 3211264, Note_on_c, 0, 72, 76
1, 3211264, Note_on_c, 0, 79, 76
1, 3211264, Note_on_c, 0, 52, 76
1, 3218636, Note_on_c, 0, 52, 0
1, 3219456, Note_on_c, 0, 72, 0
1, 3219456, Note_on_c, 0, 79, 0
1, 3219456, Note_on_c, 0, 53, 76
1, 3223142, Note_on_c, 0, 53, 0
1, 3223552, Note_on_c, 0, 55, 76
1, 3227238, Note_on_c, 0, 55, 0
1, 3227648, Note_on_c, 0, 57, 76
1, 3231334, Note_on_c, 0, 57, 0
1, 3231744, Note_on_c, 0, 59, 76
1, 3235430, Note_on_c, 0, 59, 0
1, 3235840, Note_on_c, 0, 60, 76
1, 3239526, Note_on_c, 0, 60, 0
1, 3239936, Note_on_c, 0, 62, 76
1, 3243622, Note_on_c, 0, 62, 0
1, 3244032, Note_on_c, 0, 64, 76
1, 3247718, Note_on_c, 0, 64, 0
1, 3248128, Note_on_c, 0, 62, 76
1, 3251814, Note_on_c, 0, 62, 0
1, 3252224, Note_on_c, 0, 60, 76
1, 3255910, Note_on_c, 0, 60, 0
1, 3256320, Note_on_c, 0, 59, 76
1, 3260006, Note_on_c, 0, 59, 0
1, 3260416, Note_on_c, 0, 72, 76
1, 3260416, Note_on_c, 0, 79, 76
1, 3260416, Note_on_c, 0, 57, 76
1, 3264102, Note_on_c, 0, 57, 0
1, 3264512, Note_on_c, 0, 55, 76
1, 3268198, Note_on_c, 0, 55, 0
1, 3268608, Note_on_c, 0, 72, 0
1, 3268608, Note_on_c, 0, 79, 0
1, 3268608, Note_on_c, 0, 53, 76
1, 3272294, Note_on_c, 0, 53, 0
1, 3272704, Note_on_c, 0, 52, 76
1, 3276390, Note_on_c, 0, 52, 0
1, 3276800, Note_on_c, 0, 72, 76
1, 3276800, Note_on_c, 0, 77, 76
1, 3276800, Note_on_c, 0, 50, 76
1, 3284172, Note_on_c, 0, 50, 0
1, 3284992, Note_on_c, 0, 72, 0
1, 3284992, Note_on_c, 0, 77, 0
1, 3284992, Note_on_c, 0, 52, 76
1, 3288678, Note_on_c, 0, 52, 0
1, 3289088, Note_on_c, 0, 53, 76
1, 3292774, Note_on_c, 0, 53, 0
1, 3293184, Note_on_c, 0, 55, 76
1, 3296870, Note_on_c, 0, 55, 0
1, 3297280, Note_on_c, 0, 57, 76
1, 3300966, Note_on_c, 0, 57, 0
1, 3301376, Note_on_c, 0, 59, 76
1, 3305062, Note_on_c, 0, 59, 0
1, 3305472, Note_on_c, 0, 60, 76
1, 3309158, Note_on_c, 0, 60, 0
1, 3309568, Note_on_c, 0, 62, 76
1, 3313254, Note_on_c, 0, 62, 0
1, 3313664, Note_on_c, 0, 60, 76
1, 3317350, Note_on_c, 0, 60, 0
1, 3317760, Note_on_c, 0, 59, 76
1, 3321446, Note_on_c, 0, 59, 0
1, 3321856, Note_on_c, 0, 57, 76
1, 3325542, Note_on_c, 0, 57, 0
1, 3325952, Note_on_c, 0, 71, 76
1, 3325952, Note_on_c, 0, 77, 76
1, 3325952, Note_on_c, 0, 55, 76
1, 3329638, Note_on_c, 0, 55, 0
1, 3330048, Note_on_c, 0, 53, 76
1, 3333734, Note_on_c, 0, 53, 0
1, 3334144, Note_on_c, 0, 71, 0
1, 3334144, Note_on_c, 0, 77, 0
1, 3334144, Note_on_c, 0, 52, 76
1, 3337830, Note_on_c, 0, 52, 0
1, 3338240, Note_on_c, 0, 50, 76
1, 3341926, Note_on_c, 0, 50, 0
1, 3342336, Note_on_c, 0, 72, 76
1, 3342336, Note_on_c, 0, 76, 76
1, 3342336, Note_on_c, 0, 48, 76
1, 3349708, Note_on_c, 0, 48, 0
1, 3350528, Note_on_c, 0, 72, 0
1, 3350528, Note_on_c, 0, 76, 0
1, 3350528, Note_on_c, 0, 50, 76
1, 3354214, Note_on_c, 0, 50, 0
1, 3354624, Note_on_c, 0, 52, 76
1, 3358310, Note_on_c, 0, 52, 0
1, 3358720, Note_on_c, 0, 53, 76
1, 3362406, Note_on_c, 0, 53, 0
1, 3362816, Note_on_c, 0, 55, 76
1, 3366502, Note_on_c, 0, 55, 0
1, 3366912, Note_on_c, 0, 57, 76
1, 3370598, Note_on_c, 0, 57, 0
1, 3371008, Note_on_c, 0, 59, 76
1, 3374694, Note_on_c, 0, 59, 0
1, 3375104, Note_on_c, 0, 60, 76
1, 3378790, Note_on_c, 0, 60, 0
1, 3379200, Note_on_c, 0, 59, 76
1, 3382886, Note_on_c, 0, 59, 0
1, 3383296, Note_on_c, 0, 57, 76
1, 3386982, Note_on_c, 0, 57, 0
1, 3387392, Note_on_c, 0, 55, 76
1, 3391078, Note_on_c, 0, 55, 0
1, 3391488, Note_on_c, 0, 72, 76
1, 3391488, Note_on_c, 0, 76, 76
1, 3391488, Note_on_c, 0, 53, 76
1, 3395174, Note_on_c, 0, 53, 0
1, 3395584, Note_on_c, 0, 52, 76
1, 3399270, Note_on_c, 0, 52, 0
1, 3399680, Note_on_c, 0, 72, 0
1, 3399680, Note_on_c, 0, 76, 0
1, 3399680, Note_on_c, 0, 50, 76
1, 3403366, Note_on_c, 0, 50, 0
1, 3403776, Note_on_c, 0, 48, 76
1, 3407462, Note_on_c, 0, 48, 0
1, 3407872, Note_on_c, 0, 74, 76
1, 3407872, Note_on_c, 0, 53, 76
1, 3407872, Note_on_c, 0, 57, 76
1, 3411558, Note_on_c, 0, 74, 0
1, 3411968, Note_on_c, 0, 62, 76
1, 3415654, Note_on_c, 0, 62, 0
1, 3416064, Note_on_c, 0, 64, 76
1, 3419750, Note_on_c, 0, 64, 0
1, 3420160, Note_on_c, 0, 65, 76
1, 3423846, Note_on_c, 0, 65, 0
1, 3424256, Note_on_c, 0, 67, 76
1, 3427942, Note_on_c, 0, 67, 0
1, 3428352, Note_on_c, 0, 69, 76
1, 3432038, Note_on_c, 0, 69, 0
1, 3432448, Note_on_c, 0, 71, 76
1, 3436134, Note_on_c, 0, 71, 0
1, 3436544, Note_on_c, 0, 73, 76
1, 3440230, Note_on_c, 0, 73, 0
1, 3440640, Note_on_c, 0, 74, 76
1, 3444326, Note_on_c, 0, 74, 0
1, 3444736, Note_on_c, 0, 69, 76
1, 3448422, Note_on_c, 0, 69, 0
1, 3448832, Note_on_c, 0, 71, 76
1, 3452518, Note_on_c, 0, 71, 0
1, 3452928, Note_on_c, 0, 73, 76
1, 3456614, Note_on_c, 0, 73, 0
1, 3457024, Note_on_c, 0, 74, 76
1, 3460710, Note_on_c, 0, 74, 0
1, 3461120, Note_on_c, 0, 76, 76
1, 3464806, Note_on_c, 0, 76, 0
1, 3465216, Note_on_c, 0, 77, 76
1, 3466854, Note_on_c, 0, 57, 0
1, 3466854, Note_on_c, 0, 53, 0
1, 3468902, Note_on_c, 0, 77, 0
1, 3469312, Note_on_c, 0, 79, 76
1, 3472998, Note_on_c, 0, 79, 0
1, 3473408, Note_on_c, 0, 81, 76
1, 3473408, Note_on_c, 0, 53, 76
1, 3477094, Note_on_c, 0, 81, 0
1, 3477504, Note_on_c, 0, 83, 76
1, 3481190, Note_on_c, 0, 83, 0
1, 3481600, Note_on_c, 0, 84, 76
1, 3485286, Note_on_c, 0, 84, 0
1, 3485696, Note_on_c, 0, 83, 76
1, 3489382, Note_on_c, 0, 83, 0
1, 3489792, Note_on_c, 0, 81, 76
1, 3493478, Note_on_c, 0, 81, 0
1, 3493888, Note_on_c, 0, 79, 76
1, 3495526, Note_on_c, 0, 53, 0
1, 3497574, Note_on_c, 0, 79, 0
1, 3497984, Note_on_c, 0, 77, 76
1, 3497984, Note_on_c, 0, 55, 76
1, 3501670, Note_on_c, 0, 77, 0
1, 3502080, Note_on_c, 0, 76, 76
1, 3505356, Note_on_c, 0, 55, 0
1, 3505766, Note_on_c, 0, 76, 0
1, 3506176, Note_on_c, 0, 77, 76
1, 3506176, Note_on_c, 0, 57, 76
1, 3509862, Note_on_c, 0, 77, 0
1, 3510272, Note_on_c, 0, 79, 76
1, 3513958, Note_on_c, 0, 79, 0
1, 3514368, Note_on_c, 0, 81, 76
1, 3518054, Note_on_c, 0, 81, 0
1, 3518464, Note_on_c, 0, 79, 76
1, 3522150, Note_on_c, 0, 79, 0
1, 3522560, Note_on_c, 0, 77, 76
1, 3526246, Note_on_c, 0, 77, 0
1, 3526656, Note_on_c, 0, 76, 76
1, 3528294, Note_on_c, 0, 57, 0
1, 3530342, Note_on_c, 0, 76, 0
1, 3530752, Note_on_c, 0, 74, 76
1, 3530752, Note_on_c, 0, 54, 76
1, 3534438, Note_on_c, 0, 74, 0
1, 3534848, Note_on_c, 0, 72, 76
1, 3538124, Note_on_c, 0, 54, 0
1, 3538534, Note_on_c, 0, 72, 0
1, 3538944, Note_on_c, 0, 71, 76
1, 3538944, Note_on_c, 0, 43, 76
1, 3542630, Note_on_c, 0, 43, 0
1, 3543040, Note_on_c, 0, 47, 76
1, 3546316, Note_on_c, 0, 71, 0
1, 3546726, Note_on_c, 0, 47, 0
1, 3547136, Note_on_c, 0, 79, 76
1, 3547136, Note_on_c, 0, 50, 76
1, 3550822, Note_on_c, 0, 50, 0
1, 3551232, Note_on_c, 0, 55, 76
1, 3554508, Note_on_c, 0, 79, 0
1, 3554918, Note_on_c, 0, 55, 0
1, 3555328, Note_on_c, 0, 76, 76
1, 3555328, Note_on_c, 0, 43, 76
1, 3559014, Note_on_c, 0, 43, 0
1, 3559424, Note_on_c, 0, 48, 76
1, 3562700, Note_on_c, 0, 76, 0
1, 3563110, Note_on_c, 0, 48, 0
1, 3563520, Note_on_c, 0, 72, 76
1, 3563520, Note_on_c, 0, 52, 76
1, 3567206, Note_on_c, 0, 52, 0
1, 3567616, Note_on_c, 0, 55, 76
1, 3570892, Note_on_c, 0, 72, 0
1, 3571302, Note_on_c, 0, 55, 0
1, 3571712, Note_on_c, 0, 74, 76
1, 3571712, Note_on_c, 0, 43, 76
1, 3575398, Note_on_c, 0, 43, 0
1, 3575808, Note_on_c, 0, 47, 76
1, 3579084, Note_on_c, 0, 74, 0
1, 3579494, Note_on_c, 0, 47, 0
1, 3579904, Note_on_c, 0, 79, 76
1, 3579904, Note_on_c, 0, 50, 76
1, 3583590, Note_on_c, 0, 50, 0
1, 3584000, Note_on_c, 0, 55, 76
1, 3587276, Note_on_c, 0, 79, 0
1, 3587686, Note_on_c, 0, 55, 0
1, 3588096, Note_on_c, 0, 76, 76
1, 3588096, Note_on_c, 0, 43, 76
1, 3591782, Note_on_c, 0, 43, 0
1, 3592192, Note_on_c, 0, 48, 76
1, 3595468, Note_on_c, 0, 76, 0
1, 3595878, Note_on_c, 0, 48, 0
1, 3596288, Note_on_c, 0, 72, 76
1, 3596288, Note_on_c, 0, 52, 76
1, 3599974, Note_on_c, 0, 52, 0
1, 3600384, Note_on_c, 0, 55, 76
1, 3603660, Note_on_c, 0, 72, 0
1, 3604070, Note_on_c, 0, 55, 0
1, 3604480, Note_on_c, 0, 74, 76
1, 3604480, Note_on_c, 0, 43, 76
1, 3612672, Note_on_c, 0, 74, 0
1, 3612672, Note_on_c, 0, 43, 0
1, 3620864, Note_on_c, 0, 71, 76
1, 3620864, Note_on_c, 0, 74, 76
1, 3620864, Note_on_c, 0, 79, 76
1, 3620864, Note_on_c, 0, 55, 76
1, 3629056, Note_on_c, 0, 71, 0
1, 3629056, Note_on_c, 0, 55, 0
1, 3629056, Note_on_c, 0, 79, 0
1, 3629056, Note_on_c, 0, 74, 0
1, 3637248, Note_on_c, 0, 67, 76
1, 3637248, Note_on_c, 0, 43, 76
1, 3645440, Note_on_c, 0, 67, 0
1, 3645440, Note_on_c, 0, 43, 0
1, 3670016, Note_on_c, 0, 66, 76
1, 3673702, Note_on_c, 0, 66, 0
1, 3674112, Note_on_c, 0, 67, 76
1, 3677798, Note_on_c, 0, 67, 0
1, 3678208, Note_on_c, 0, 66, 76
1, 3681894, Note_on_c, 0, 66, 0
1, 3682304, Note_on_c, 0, 67, 76
1, 3685990, Note_on_c, 0, 67, 0
1, 3686400, Note_on_c, 0, 66, 76
1, 3690086, Note_on_c, 0, 66, 0
1, 3690496, Note_on_c, 0, 67, 76
1, 3694182, Note_on_c, 0, 67, 0
1, 3694592, Note_on_c, 0, 66, 76
1, 3698278, Note_on_c, 0, 66, 0
1, 3698688, Note_on_c, 0, 67, 76
1, 3702374, Note_on_c, 0, 67, 0
1, 3702784, Note_on_c, 0, 65, 76
1, 3706470, Note_on_c, 0, 65, 0
1, 3706880, Note_on_c, 0, 67, 76
1, 3710566, Note_on_c, 0, 67, 0
1, 3710976, Note_on_c, 0, 65, 76
1, 3714662, Note_on_c, 0, 65, 0
1, 3715072, Note_on_c, 0, 67, 76
1, 3718758, Note_on_c, 0, 67, 0
1, 3719168, Note_on_c, 0, 65, 76
1, 3722854, Note_on_c, 0, 65, 0
1, 3723264, Note_on_c, 0, 67, 76
1, 3726950, Note_on_c, 0, 67, 0
1, 3727360, Note_on_c, 0, 65, 76
1, 3731046, Note_on_c, 0, 65, 0
1, 3731456, Note_on_c, 0, 67, 76
1, 3735142, Note_on_c, 0, 67, 0
1, 3735552, Note_on_c, 0, 79, 76
1, 3735552, Note_on_c, 0, 64, 76
1, 3739238, Note_on_c, 0, 64, 0
1, 3739648, Note_on_c, 0, 67, 76
1, 3742924, Note_on_c, 0, 79, 0
1, 3743334, Note_on_c, 0, 67, 0
1, 3743744, Note_on_c, 0, 76, 76
1, 3743744, Note_on_c, 0, 64, 76
1, 3747430, Note_on_c, 0, 64, 0
1, 3747840, Note_on_c, 0, 67, 76
1, 3751116, Note_on_c, 0, 76, 0
1, 3751526, Note_on_c, 0, 67, 0
1, 3751936, Note_on_c, 0, 72, 76
1, 3751936, Note_on_c, 0, 64, 76
1, 3755622, Note_on_c, 0, 64, 0
1, 3756032, Note_on_c, 0, 67, 76
1, 3759718, Note_on_c, 0, 67, 0
1, 3760128, Note_on_c, 0, 64, 76
1, 3763814, Note_on_c, 0, 64, 0
1, 3764224, Note_on_c, 0, 67, 76
1, 3767910, Note_on_c, 0, 67, 0
1, 3768320, Note_on_c, 0, 64, 76
1, 3772006, Note_on_c, 0, 64, 0
1, 3772416, Note_on_c, 0, 67, 76
1, 3774054, Note_on_c, 0, 72, 0
1, 3776102, Note_on_c, 0, 67, 0
1, 3776512, Note_on_c, 0, 74, 76
1, 3776512, Note_on_c, 0, 64, 76
1, 3780198, Note_on_c, 0, 74, 0
1, 3780198, Note_on_c, 0, 64, 0
1, 3780608, Note_on_c, 0, 76, 76
1, 3780608, Note_on_c, 0, 67, 76
1, 3784294, Note_on_c, 0, 76, 0
1, 3784294, Note_on_c, 0, 67, 0
1, 3784704, Note_on_c, 0, 74, 76
1, 3784704, Note_on_c, 0, 64, 76
1, 3788390, Note_on_c, 0, 64, 0
1, 3788800, Note_on_c, 0, 67, 76
1, 3792076, Note_on_c, 0, 74, 0
1, 3792486, Note_on_c, 0, 67, 0
1, 3792896, Note_on_c, 0, 72, 76
1, 3792896, Note_on_c, 0, 64, 76
1, 3796582, Note_on_c, 0, 64, 0
1, 3796992, Note_on_c, 0, 72, 0
1, 3796992, Note_on_c, 0, 67, 76
1, 3800678, Note_on_c, 0, 67, 0
1, 3801088, Note_on_c, 0, 74, 76
1, 3801088, Note_on_c, 0, 65, 76
1, 3802931, Note_on_c, 0, 74, 0
1, 3803136, Note_on_c, 0, 72, 76
1, 3804774, Note_on_c, 0, 65, 0
1, 3804979, Note_on_c, 0, 72, 0
1, 3805184, Note_on_c, 0, 74, 76
1, 3805184, Note_on_c, 0, 67, 76
1, 3807027, Note_on_c, 0, 74, 0
1, 3807232, Note_on_c, 0, 72, 76
1, 3808870, Note_on_c, 0, 67, 0
1, 3809075, Note_on_c, 0, 72, 0
1, 3809280, Note_on_c, 0, 74, 76
1, 3809280, Note_on_c, 0, 64, 76
1, 3811123, Note_on_c, 0, 74, 0
1, 3811328, Note_on_c, 0, 72, 76
1, 3812966, Note_on_c, 0, 64, 0
1, 3813171, Note_on_c, 0, 72, 0
1, 3813376, Note_on_c, 0, 71, 76
1, 3813376, Note_on_c, 0, 67, 76
1, 3815424, Note_on_c, 0, 71, 0
1, 3817062, Note_on_c, 0, 67, 0
1, 3817472, Note_on_c, 0, 71, 76
1, 3817472, Note_on_c, 0, 62, 76
1, 3821158, Note_on_c, 0, 62, 0
1, 3821568, Note_on_c, 0, 67, 76
1, 3825254, Note_on_c, 0, 67, 0
1, 3825664, Note_on_c, 0, 64, 76
1, 3829350, Note_on_c, 0, 64, 0
1, 3829760, Note_on_c, 0, 67, 76
1, 3832217, Note_on_c, 0, 71, 0
1, 3833446, Note_on_c, 0, 67, 0
1, 3833856, Note_on_c, 0, 65, 76
1, 3837542, Note_on_c, 0, 65, 0
1, 3837952, Note_on_c, 0, 67, 76
1, 3841638, Note_on_c, 0, 67, 0
1, 3842048, Note_on_c, 0, 64, 76
1, 3845734, Note_on_c, 0, 64, 0
1, 3846144, Note_on_c, 0, 67, 76
1, 3849830, Note_on_c, 0, 67, 0
1, 3850240, Note_on_c, 0, 65, 76
1, 3853926, Note_on_c, 0, 65, 0
1, 3854336, Note_on_c, 0, 67, 76
1, 3858022, Note_on_c, 0, 67, 0
1, 3858432, Note_on_c, 0, 62, 76
1, 3862118, Note_on_c, 0, 62, 0
1, 3862528, Note_on_c, 0, 67, 76
1, 3866214, Note_on_c, 0, 67, 0
1, 3866624, Note_on_c, 0, 79, 76
1, 3866624, Note_on_c, 0, 64, 76
1, 3870310, Note_on_c, 0, 64, 0
1, 3870720, Note_on_c, 0, 67, 76
1, 3873996, Note_on_c, 0, 79, 0
1, 3874406, Note_on_c, 0, 67, 0
1, 3874816, Note_on_c, 0, 76, 76
1, 3874816, Note_on_c, 0, 64, 76
1, 3878502, Note_on_c, 0, 64, 0
1, 3878912, Note_on_c, 0, 67, 76
1, 3882188, Note_on_c, 0, 76, 0
1, 3882598, Note_on_c, 0, 67, 0
1, 3883008, Note_on_c, 0, 72, 76
1, 3883008, Note_on_c, 0, 64, 76
1, 3886694, Note_on_c, 0, 64, 0
1, 3887104, Note_on_c, 0, 67, 76
1, 3890790, Note_on_c, 0, 67, 0
1, 3891200, Note_on_c, 0, 64, 76
1, 3894886, Note_on_c, 0, 64, 0
1, 3895296, Note_on_c, 0, 67, 76
1, 3898982, Note_on_c, 0, 67, 0
1, 3899392, Note_on_c, 0, 64, 76
1, 3903078, Note_on_c, 0, 64, 0
1, 3903488, Note_on_c, 0, 67, 76
1, 3905126, Note_on_c, 0, 72, 0
1, 3907174, Note_on_c, 0, 67, 0
1, 3907584, Note_on_c, 0, 74, 76
1, 3907584, Note_on_c, 0, 64, 76
1, 3911270, Note_on_c, 0, 74, 0
1, 3911270, Note_on_c, 0, 64, 0
1, 3911680, Note_on_c, 0, 76, 76
1, 3911680, Note_on_c, 0, 67, 76
1, 3915366, Note_on_c, 0, 76, 0
1, 3915366, Note_on_c, 0, 67, 0
1, 3915776, Note_on_c, 0, 74, 76
1, 3915776, Note_on_c, 0, 64, 76
1, 3919462, Note_on_c, 0, 64, 0
1, 3919872, Note_on_c, 0, 67, 76
1, 3923148, Note_on_c, 0, 74, 0
1, 3923558, Note_on_c, 0, 67, 0
1, 3923968, Note_on_c, 0, 72, 76
1, 3923968, Note_on_c, 0, 64, 76
1, 3927654, Note_on_c, 0, 64, 0
1, 3928064, Note_on_c, 0, 72, 0
1, 3928064, Note_on_c, 0, 67, 76
1, 3931750, Note_on_c, 0, 67, 0
1, 3932160, Note_on_c, 0, 74, 76
1, 3932160, Note_on_c, 0, 65, 76
1, 3934003, Note_on_c, 0, 74, 0
1, 3934208, Note_on_c, 0, 72, 76
1, 3935846, Note_on_c, 0, 65, 0
1, 3936051, Note_on_c, 0, 72, 0
1, 3936256, Note_on_c, 0, 74, 76
1, 3936256, Note_on_c, 0, 67, 76
1, 3938099, Note_on_c, 0, 74, 0
1, 3938304, Note_on_c, 0, 72, 76
1, 3939942, Note_on_c, 0, 67, 0
1, 3940147, Note_on_c, 0, 72, 0
1, 3940352, Note_on_c, 0, 74, 76
1, 3940352, Note_on_c, 0, 64, 76
1, 3942195, Note_on_c, 0, 74, 0
1, 3942400, Note_on_c, 0, 72, 76
1, 3944038, Note_on_c, 0, 64, 0
1, 3944243, Note_on_c, 0, 72, 0
1, 3944448, Note_on_c, 0, 71, 76
1, 3944448, Note_on_c, 0, 67, 76
1, 3946496, Note_on_c, 0, 71, 0
1, 3948134, Note_on_c, 0, 67, 0
1, 3948544, Note_on_c, 0, 71, 76
1, 3948544, Note_on_c, 0, 62, 76
1, 3952230, Note_on_c, 0, 62, 0
1, 3952640, Note_on_c, 0, 67, 76
1, 3956326, Note_on_c, 0, 67, 0
1, 3956736, Note_on_c, 0, 64, 76
1, 3960422, Note_on_c, 0, 64, 0
1, 3960832, Note_on_c, 0, 67, 76
1, 3963289, Note_on_c, 0, 71, 0
1, 3964518, Note_on_c, 0, 67, 0
1, 3964928, Note_on_c, 0, 65, 76
1, 3968614, Note_on_c, 0, 65, 0
1, 3969024, Note_on_c, 0, 67, 76
1, 3972710, Note_on_c, 0, 67, 0
1, 3973120, Note_on_c, 0, 64, 76
1, 3976806, Note_on_c, 0, 64, 0
1, 3977216, Note_on_c, 0, 67, 76
1, 3980902, Note_on_c, 0, 67, 0
1, 3981312, Note_on_c, 0, 65, 76
1, 3984998, Note_on_c, 0, 65, 0
1, 3985408, Note_on_c, 0, 67, 76
1, 3989094, Note_on_c, 0, 67, 0
1, 3989504, Note_on_c, 0, 62, 76
1, 3993190, Note_on_c, 0, 62, 0
1, 3993600, Note_on_c, 0, 67, 76
1, 3997286, Note_on_c, 0, 67, 0
1, 3997696, Note_on_c, 0, 79, 76
1, 4001792, Note_on_c, 0, 52, 76
1, 4005478, Note_on_c, 0, 52, 0
1, 4005888, Note_on_c, 0, 55, 76
1, 4009574, Note_on_c, 0, 55, 0
1, 4009984, Note_on_c, 0, 60, 76
1, 4012441, Note_on_c, 0, 79, 0
1, 4013670, Note_on_c, 0, 60, 0
1, 4014080, Note_on_c, 0, 64, 76
1, 4018176, Note_on_c, 0, 79, 76
1, 4021862, Note_on_c, 0, 79, 0
1, 4022272, Note_on_c, 0, 76, 76
1, 4025958, Note_on_c, 0, 76, 0
1, 4026368, Note_on_c, 0, 72, 76
1, 4028825, Note_on_c, 0, 64, 0
1, 4030054, Note_on_c, 0, 72, 0
1, 4030464, Note_on_c, 0, 69, 76
1, 4034560, Note_on_c, 0, 53, 76
1, 4038246, Note_on_c, 0, 53, 0
1, 4038656, Note_on_c, 0, 57, 76
1, 4042342, Note_on_c, 0, 57, 0
1, 4042752, Note_on_c, 0, 60, 76
1, 4045209, Note_on_c, 0, 69, 0
1, 4046438, Note_on_c, 0, 60, 0
1, 4046848, Note_on_c, 0, 65, 76
1, 4050944, Note_on_c, 0, 69, 76
1, 4054630, Note_on_c, 0, 69, 0
1, 4055040, Note_on_c, 0, 72, 76
1, 4058726, Note_on_c, 0, 72, 0
1, 4059136, Note_on_c, 0, 69, 76
1, 4061593, Note_on_c, 0, 65, 0
1, 4062822, Note_on_c, 0, 69, 0
1, 4063232, Note_on_c, 0, 77, 76
1, 4067328, Note_on_c, 0, 50, 76
1, 4071014, Note_on_c, 0, 50, 0
1, 4071424, Note_on_c, 0, 53, 76
1, 4075110, Note_on_c, 0, 53, 0
1, 4075520, Note_on_c, 0, 59, 76
1, 4077977, Note_on_c, 0, 77, 0
1, 4079206, Note_on_c, 0, 59, 0
1, 4079616, Note_on_c, 0, 62, 76
1, 4083712, Note_on_c, 0, 77, 76
1, 4087398, Note_on_c, 0, 77, 0
1, 4087808, Note_on_c, 0, 74, 76
1, 4091494, Note_on_c, 0, 74, 0
1, 4091904, Note_on_c, 0, 71, 76
1, 4094361, Note_on_c, 0, 62, 0
1, 4095590, Note_on_c, 0, 71, 0
1, 4096000, Note_on_c, 0, 67, 76
1, 4100096, Note_on_c, 0, 52, 76
1, 4103782, Note_on_c, 0, 52, 0
1, 4104192, Note_on_c, 0, 55, 76
1, 4107878, Note_on_c, 0, 55, 0
1, 4108288, Note_on_c, 0, 59, 76
1, 4110745, Note_on_c, 0, 67, 0
1, 4111974, Note_on_c, 0, 59, 0
1, 4112384, Note_on_c, 0, 64, 76
1, 4116480, Note_on_c, 0, 79, 76
1, 4120166, Note_on_c, 0, 79, 0
1, 4120576, Note_on_c, 0, 83, 76
1, 4124262, Note_on_c, 0, 83, 0
1, 4124672, Note_on_c, 0, 79, 76
1, 4127129, Note_on_c, 0, 64, 0
1, 4128358, Note_on_c, 0, 79, 0
1, 4128768, Note_on_c, 0, 88, 76
1, 4132864, Note_on_c, 0, 60, 76
1, 4136550, Note_on_c, 0, 60, 0
1, 4136960, Note_on_c, 0, 64, 76
1, 4140646, Note_on_c, 0, 64, 0
1, 4141056, Note_on_c, 0, 69, 76
1, 4143513, Note_on_c, 0, 88, 0
1, 4144742, Note_on_c, 0, 69, 0
1, 4145152, Note_on_c, 0, 72, 76
1, 4149248, Note_on_c, 0, 88, 76
1, 4152934, Note_on_c, 0, 88, 0
1, 4153344, Note_on_c, 0, 84, 76
1, 4157030, Note_on_c, 0, 84, 0
1, 4157440, Note_on_c, 0, 81, 76
1, 4159897, Note_on_c, 0, 72, 0
1, 4161126, Note_on_c, 0, 81, 0
1, 4161536, Note_on_c, 0, 77, 76
1, 4165632, Note_on_c, 0, 62, 76
1, 4169318, Note_on_c, 0, 62, 0
1, 4169728, Note_on_c, 0, 65, 76
1, 4173414, Note_on_c, 0, 65, 0
1, 4173824, Note_on_c, 0, 69, 76
1, 4176281, Note_on_c, 0, 77, 0
1, 4177510, Note_on_c, 0, 69, 0
1, 4177920, Note_on_c, 0, 74, 76
1, 4182016, Note_on_c, 0, 77, 76
1, 4185702, Note_on_c, 0, 77, 0
1, 4186112, Note_on_c, 0, 81, 76
1, 4189798, Note_on_c, 0, 81, 0
1, 4190208, Note_on_c, 0, 77, 76
1, 4192665, Note_on_c, 0, 74, 0
1, 4193894, Note_on_c, 0, 77, 0
1, 4194304, Note_on_c, 0, 86, 76
1, 4198400, Note_on_c, 0, 59, 76
1, 4202086, Note_on_c, 0, 59, 0
1, 4202496, Note_on_c, 0, 62, 76
1, 4206182, Note_on_c, 0, 62, 0
1, 4206592, Note_on_c, 0, 67, 76
1, 4209049, Note_on_c, 0, 86, 0
1, 4210278, Note_on_c, 0, 67, 0
1, 4210688, Note_on_c, 0, 71, 76
1, 4214784, Note_on_c, 0, 86, 76
1, 4218470, Note_on_c, 0, 86, 0
1, 4218880, Note_on_c, 0, 83, 76
1, 4222566, Note_on_c, 0, 83, 0
1, 4222976, Note_on_c, 0, 79, 76
1, 4225433, Note_on_c, 0, 71, 0
1, 4226662, Note_on_c, 0, 79, 0
1, 4227072, Note_on_c, 0, 76, 76
1, 4231168, Note_on_c, 0, 60, 76
1, 4234854, Note_on_c, 0, 60, 0
1, 4235264, Note_on_c, 0, 64, 76
1, 4238950, Note_on_c, 0, 64, 0
1, 4239360, Note_on_c, 0, 67, 76
1, 4241817, Note_on_c, 0, 76, 0
1, 4243046, Note_on_c, 0, 67, 0
1, 4243456, Note_on_c, 0, 72, 76
1, 4247552, Note_on_c, 0, 84, 76
1, 4251238, Note_on_c, 0, 84, 0
1, 4251648, Note_on_c, 0, 79, 76
1, 4255334, Note_on_c, 0, 79, 0
1, 4255744, Note_on_c, 0, 76, 76
1, 4258201, Note_on_c, 0, 72, 0
1, 4259430, Note_on_c, 0, 76, 0
1, 4259840, Note_on_c, 0, 74, 76
1, 4268032, Note_on_c, 0, 65, 76
1, 4268032, Note_on_c, 0, 69, 76
1, 4275404, Note_on_c, 0, 65, 0
1, 4275404, Note_on_c, 0, 69, 0
1, 4276224, Note_on_c, 0, 65, 76
1, 4276224, Note_on_c, 0, 69, 76
1, 4283596, Note_on_c, 0, 65, 0
1, 4283596, Note_on_c, 0, 69, 0
1, 4284416, Note_on_c, 0, 65, 76
1, 4284416, Note_on_c, 0, 69, 76
1, 4289331, Note_on_c, 0, 74, 0
1, 4291788, Note_on_c, 0, 69, 0
1, 4291788, Note_on_c, 0, 65, 0
1, 4292608, Note_on_c, 0, 73, 76
1, 4292608, Note_on_c, 0, 65, 76
1, 4292608, Note_on_c, 0, 69, 76
1, 4294451, Note_on_c, 0, 73, 0
1, 4294656, Note_on_c, 0, 74, 76
1, 4299980, Note_on_c, 0, 69, 0
1, 4299980, Note_on_c, 0, 65, 0
1, 4300800, Note_on_c, 0, 65, 76
1, 4300800, Note_on_c, 0, 69, 76
1, 4307558, Note_on_c, 0, 74, 0
1, 4308172, Note_on_c, 0, 69, 0
1, 4308172, Note_on_c, 0, 65, 0
1, 4308992, Note_on_c, 0, 73, 76
1, 4308992, Note_on_c, 0, 65, 76
1, 4308992, Note_on_c, 0, 69, 76
1, 4310835, Note_on_c, 0, 73, 0
1, 4311040, Note_on_c, 0, 74, 76
1, 4316364, Note_on_c, 0, 69, 0
1, 4316364, Note_on_c, 0, 65, 0
1, 4317184, Note_on_c, 0, 65, 76
1, 4317184, Note_on_c, 0, 69, 76
1, 4323942, Note_on_c, 0, 74, 0
1, 4324556, Note_on_c, 0, 69, 0
1, 4324556, Note_on_c, 0, 65, 0
1, 4325376, Note_on_c, 0, 81, 76
1, 4333568, Note_on_c, 0, 54, 76
1, 4333568, Note_on_c, 0, 60, 76
1, 4333568, Note_on_c, 0, 63, 76
1, 4340940, Note_on_c, 0, 54, 0
1, 4340940, Note_on_c, 0, 63, 0
1, 4340940, Note_on_c, 0, 60, 0
1, 4341760, Note_on_c, 0, 54, 76
1, 4341760, Note_on_c, 0, 60, 76
1, 4341760, Note_on_c, 0, 63, 76
1, 4349132, Note_on_c, 0, 54, 0
1, 4349132, Note_on_c, 0, 63, 0
1, 4349132, Note_on_c, 0, 60, 0
1, 4349952, Note_on_c, 0, 54, 76
1, 4349952, Note_on_c, 0, 60, 76
1, 4349952, Note_on_c, 0, 63, 76
1, 4354867, Note_on_c, 0, 81, 0
1, 4357324, Note_on_c, 0, 63, 0
1, 4357324, Note_on_c, 0, 60, 0
1, 4357324, Note_on_c, 0, 54, 0
1, 4358144, Note_on_c, 0, 80, 76
1, 4358144, Note_on_c, 0, 54, 76
1, 4358144, Note_on_c, 0, 60, 76
1, 4358144, Note_on_c, 0, 63, 76
1, 4359987, Note_on_c, 0, 80, 0
1, 4360192, Note_on_c, 0, 81, 76
1, 4365516, Note_on_c, 0, 63, 0
1, 4365516, Note_on_c, 0, 54, 0
1, 4365516, Note_on_c, 0, 60, 0
1, 4366336, Note_on_c, 0, 54, 76
1, 4366336, Note_on_c, 0, 60, 76
1, 4366336, Note_on_c, 0, 63, 76
1, 4373094, Note_on_c, 0, 81, 0
1, 4373708, Note_on_c, 0, 63, 0
1, 4373708, Note_on_c, 0, 60, 0
1, 4373708, Note_on_c, 0, 54, 0
1, 4374528, Note_on_c, 0, 80, 76
1, 4374528, Note_on_c, 0, 54, 76
1, 4374528, Note_on_c, 0, 60, 76
1, 4374528, Note_on_c, 0, 63, 76
1, 4376371, Note_on_c, 0, 80, 0
1, 4376576, Note_on_c, 0, 81, 76
1, 4381900, Note_on_c, 0, 63, 0
1, 4381900, Note_on_c, 0, 54, 0
1, 4381900, Note_on_c, 0, 60, 0
1, 4382720, Note_on_c, 0, 54, 76
1, 4382720, Note_on_c, 0, 60, 76
1, 4382720, Note_on_c, 0, 63, 76
1, 4389478, Note_on_c, 0, 81, 0
1, 4390092, Note_on_c, 0, 63, 0
1, 4390092, Note_on_c, 0, 60, 0
1, 4390092, Note_on_c, 0, 54, 0
1, 4390912, Note_on_c, 0, 79, 76
1, 4390912, Note_on_c, 0, 55, 76
1, 4394598, Note_on_c, 0, 55, 0
1, 4395008, Note_on_c, 0, 64, 76
1, 4398284, Note_on_c, 0, 79, 0
1, 4398694, Note_on_c, 0, 64, 0
1, 4399104, Note_on_c, 0, 81, 76
1, 4399104, Note_on_c, 0, 60, 76
1, 4402790, Note_on_c, 0, 81, 0
1, 4402790, Note_on_c, 0, 60, 0
1, 4403200, Note_on_c, 0, 83, 76
1, 4403200, Note_on_c, 0, 64, 76
1, 4406886, Note_on_c, 0, 83, 0
1, 4406886, Note_on_c, 0, 64, 0
1, 4407296, Note_on_c, 0, 84, 76
1, 4407296, Note_on_c, 0, 55, 76
1, 4410982, Note_on_c, 0, 84, 0
1, 4410982, Note_on_c, 0, 55, 0
1, 4411392, Note_on_c, 0, 86, 76
1, 4411392, Note_on_c, 0, 64, 76
1, 4415078, Note_on_c, 0, 86, 0
1, 4415078, Note_on_c, 0, 64, 0
1, 4415488, Note_on_c, 0, 88, 76
1, 4415488, Note_on_c, 0, 60, 76
1, 4419174, Note_on_c, 0, 88, 0
1, 4419174, Note_on_c, 0, 60, 0
1, 4419584, Note_on_c, 0, 86, 76
1, 4419584, Note_on_c, 0, 64, 76
1, 4423270, Note_on_c, 0, 86, 0
1, 4423270, Note_on_c, 0, 64, 0
1, 4423680, Note_on_c, 0, 84, 76
1, 4423680, Note_on_c, 0, 55, 76
1, 4427366, Note_on_c, 0, 84, 0
1, 4427366, Note_on_c, 0, 55, 0
1, 4427776, Note_on_c, 0, 83, 76
1, 4427776, Note_on_c, 0, 64, 76
1, 4431462, Note_on_c, 0, 83, 0
1, 4431462, Note_on_c, 0, 64, 0
1, 4431872, Note_on_c, 0, 81, 76
1, 4431872, Note_on_c, 0, 60, 76
1, 4435558, Note_on_c, 0, 81, 0
1, 4435558, Note_on_c, 0, 60, 0
1, 4435968, Note_on_c, 0, 79, 76
1, 4435968, Note_on_c, 0, 64, 76
1, 4439654, Note_on_c, 0, 79, 0
1, 4439654, Note_on_c, 0, 64, 0
1, 4440064, Note_on_c, 0, 77, 76
1, 4440064, Note_on_c, 0, 55, 76
1, 4443750, Note_on_c, 0, 77, 0
1, 4443750, Note_on_c, 0, 55, 0
1, 4444160, Note_on_c, 0, 76, 76
1, 4444160, Note_on_c, 0, 64, 76
1, 4447846, Note_on_c, 0, 76, 0
1, 4447846, Note_on_c, 0, 64, 0
1, 4448256, Note_on_c, 0, 74, 76
1, 4448256, Note_on_c, 0, 60, 76
1, 4451942, Note_on_c, 0, 74, 0
1, 4451942, Note_on_c, 0, 60, 0
1, 4452352, Note_on_c, 0, 72, 76
1, 4452352, Note_on_c, 0, 64, 76
1, 4456038, Note_on_c, 0, 72, 0
1, 4456038, Note_on_c, 0, 64, 0
1, 4456448, Note_on_c, 0, 76, 76
1, 4456448, Note_on_c, 0, 55, 76
1, 4458291, Note_on_c, 0, 76, 0
1, 4458496, Note_on_c, 0, 74, 76
1, 4460134, Note_on_c, 0, 55, 0
1, 4460339, Note_on_c, 0, 74, 0
1, 4460544, Note_on_c, 0, 76, 76
1, 4460544, Note_on_c, 0, 65, 76
1, 4462387, Note_on_c, 0, 76, 0
1, 4462592, Note_on_c, 0, 74, 76
1, 4464230, Note_on_c, 0, 65, 0
1, 4464435, Note_on_c, 0, 74, 0
1, 4464640, Note_on_c, 0, 76, 76
1, 4464640, Note_on_c, 0, 59, 76
1, 4466483, Note_on_c, 0, 76, 0
1, 4466688, Note_on_c, 0, 74, 76
1, 4468326, Note_on_c, 0, 59, 0
1, 4468531, Note_on_c, 0, 74, 0
1, 4468736, Note_on_c, 0, 76, 76
1, 4468736, Note_on_c, 0, 65, 76
1, 4470579, Note_on_c, 0, 76, 0
1, 4470784, Note_on_c, 0, 74, 76
1, 4472422, Note_on_c, 0, 65, 0
1, 4472627, Note_on_c, 0, 74, 0
1, 4472832, Note_on_c, 0, 76, 76
1, 4472832, Note_on_c, 0, 55, 76
1, 4474675, Note_on_c, 0, 76, 0
1, 4474880, Note_on_c, 0, 74, 76
1, 4476518, Note_on_c, 0, 55, 0
1, 4476723, Note_on_c, 0, 74, 0
1, 4476928, Note_on_c, 0, 76, 76
1, 4476928, Note_on_c, 0, 65, 76
1, 4478771, Note_on_c, 0, 76, 0
1, 4478976, Note_on_c, 0, 74, 76
1, 4480614, Note_on_c, 0, 65, 0
1, 4480819, Note_on_c, 0, 74, 0
1, 4481024, Note_on_c, 0, 76, 76
1, 4481024, Note_on_c, 0, 59, 76
1, 4482867, Note_on_c, 0, 76, 0
1, 4483072, Note_on_c, 0, 74, 76
1, 4484710, Note_on_c, 0, 59, 0
1, 4484915, Note_on_c, 0, 74, 0
1, 4485120, Note_on_c, 0, 76, 76
1, 4485120, Note_on_c, 0, 65, 76
1, 4486963, Note_on_c, 0, 76, 0
1, 4487168, Note_on_c, 0, 74, 76
1, 4488806, Note_on_c, 0, 65, 0
1, 4489011, Note_on_c, 0, 74, 0
1, 4489216, Note_on_c, 0, 76, 76
1, 4489216, Note_on_c, 0, 55, 76
1, 4491059, Note_on_c, 0, 76, 0
1, 4491264, Note_on_c, 0, 74, 76
1, 4492902, Note_on_c, 0, 55, 0
1, 4493107, Note_on_c, 0, 74, 0
1, 4493312, Note_on_c, 0, 76, 76
1, 4493312, Note_on_c, 0, 65, 76
1, 4495155, Note_on_c, 0, 76, 0
1, 4495360, Note_on_c, 0, 74, 76
1, 4496998, Note_on_c, 0, 65, 0
1, 4497203, Note_on_c, 0, 74, 0
1, 4497408, Note_on_c, 0, 76, 76
1, 4497408, Note_on_c, 0, 59, 76
1, 4499251, Note_on_c, 0, 76, 0
1, 4499456, Note_on_c, 0, 74, 76
1, 4501094, Note_on_c, 0, 59, 0
1, 4501299, Note_on_c, 0, 74, 0
1, 4501504, Note_on_c, 0, 76, 76
1, 4501504, Note_on_c, 0, 65, 76
1, 4503347, Note_on_c, 0, 76, 0
1, 4503552, Note_on_c, 0, 74, 76
1, 4505190, Note_on_c, 0, 65, 0
1, 4505395, Note_on_c, 0, 74, 0
1, 4505600, Note_on_c, 0, 76, 76
1, 4505600, Note_on_c, 0, 55, 76
1, 4507443, Note_on_c, 0, 76, 0
1, 4507648, Note_on_c, 0, 74, 76
1, 4509286, Note_on_c, 0, 55, 0
1, 4509491, Note_on_c, 0, 74, 0
1, 4509696, Note_on_c, 0, 76, 76
1, 4509696, Note_on_c, 0, 65, 76
1, 4511539, Note_on_c, 0, 76, 0
1, 4511744, Note_on_c, 0, 74, 76
1, 4513382, Note_on_c, 0, 65, 0
1, 4513587, Note_on_c, 0, 74, 0
1, 4513792, Note_on_c, 0, 72, 76
1, 4513792, Note_on_c, 0, 59, 76
1, 4517478, Note_on_c, 0, 72, 0
1, 4517478, Note_on_c, 0, 59, 0
1, 4517888, Note_on_c, 0, 74, 76
1, 4517888, Note_on_c, 0, 65, 76
1, 4521574, Note_on_c, 0, 74, 0
1, 4521574, Note_on_c, 0, 65, 0
1, 4521984, Note_on_c, 0, 72, 76
1, 4521984, Note_on_c, 0, 60, 76
1, 4521984, Note_on_c, 0, 64, 76
1, 4530176, Note_on_c, 0, 72, 0
1, 4530176, Note_on_c, 0, 64, 0
1, 4530176, Note_on_c, 0, 60, 0
1, 4538368, Note_on_c, 0, 72, 76
1, 4542054, Note_on_c, 0, 72, 0
1, 4542464, Note_on_c, 0, 67, 76
1, 4546150, Note_on_c, 0, 67, 0
1, 4546560, Note_on_c, 0, 72, 76
1, 4550246, Note_on_c, 0, 72, 0
1, 4550656, Note_on_c, 0, 76, 76
1, 4554342, Note_on_c, 0, 76, 0
1, 4554752, Note_on_c, 0, 79, 76
1, 4558438, Note_on_c, 0, 79, 0
1, 4558848, Note_on_c, 0, 76, 76
1, 4562534, Note_on_c, 0, 76, 0
1, 4562944, Note_on_c, 0, 72, 76
1, 4566630, Note_on_c, 0, 72, 0
1, 4567040, Note_on_c, 0, 76, 76
1, 4570726, Note_on_c, 0, 76, 0
1, 4571136, Note_on_c, 0, 77, 76
1, 4571136, Note_on_c, 0, 55, 76
1, 4571136, Note_on_c, 0, 62, 76
1, 4571136, Note_on_c, 0, 65, 76
1, 4574822, Note_on_c, 0, 77, 0
1, 4575232, Note_on_c, 0, 74, 76
1, 4578918, Note_on_c, 0, 74, 0
1, 4579328, Note_on_c, 0, 71, 76
1, 4583014, Note_on_c, 0, 71, 0
1, 4583424, Note_on_c, 0, 74, 76
1, 4585881, Note_on_c, 0, 65, 0
1, 4585881, Note_on_c, 0, 55, 0
1, 4585881, Note_on_c, 0, 62, 0
1, 4587110, Note_on_c, 0, 74, 0
1, 4587520, Note_on_c, 0, 72, 76
1, 4587520, Note_on_c, 0, 60, 76
1, 4587520, Note_on_c, 0, 64, 76
1, 4595712, Note_on_c, 0, 72, 0
1, 4595712, Note_on_c, 0, 64, 0
1, 4595712, Note_on_c, 0, 60, 0
1, 4603904, Note_on_c, 0, 60, 76
1, 4607590, Note_on_c, 0, 60, 0
1, 4608000, Note_on_c, 0, 55, 76
1, 4611686, Note_on_c, 0, 55, 0
1, 4612096, Note_on_c, 0, 60, 76
1, 4615782, Note_on_c, 0, 60, 0
1, 4616192, Note_on_c, 0, 64, 76
1, 4619878, Note_on_c, 0, 64, 0
1, 4620288, Note_on_c, 0, 67, 76
1, 4623974, Note_on_c, 0, 67, 0
1, 4624384, Note_on_c, 0, 64, 76
1, 4628070, Note_on_c, 0, 64, 0
1, 4628480, Note_on_c, 0, 60, 76
1, 4632166, Note_on_c, 0, 60, 0
1, 4632576, Note_on_c, 0, 64, 76
1, 4636262, Note_on_c, 0, 64, 0
1, 4636672, Note_on_c, 0, 65, 76
1, 4636672, Note_on_c, 0, 43, 76
1, 4636672, Note_on_c, 0, 50, 76
1, 4636672, Note_on_c, 0, 53, 76
1, 4640358, Note_on_c, 0, 65, 0
1, 4640768, Note_on_c, 0, 62, 76
1, 4644454, Note_on_c, 0, 62, 0
1, 4644864, Note_on_c, 0, 59, 76
1, 4648550, Note_on_c, 0, 59, 0
1, 4648960, Note_on_c, 0, 62, 76
1, 4651417, Note_on_c, 0, 53, 0
1, 4651417, Note_on_c, 0, 43, 0
1, 4651417, Note_on_c, 0, 50, 0
1, 4652646, Note_on_c, 0, 62, 0
1, 4653056, Note_on_c, 0, 60, 76
1, 4653056, Note_on_c, 0, 48, 76
1, 4653056, Note_on_c, 0, 52, 76
1, 4661248, Note_on_c, 0, 60, 0
1, 4661248, Note_on_c, 0, 52, 0
1, 4661248, Note_on_c, 0, 48, 0
1, 4669440, Note_on_c, 0, 76, 76
1, 4669440, Note_on_c, 0, 79, 76
1, 4669440, Note_on_c, 0, 84, 76
1, 4669440, Note_on_c, 0, 60, 76
1, 4677632, Note_on_c, 0, 76, 0
1, 4677632, Note_on_c, 0, 60, 0
1, 4677632, Note_on_c, 0, 84, 0
1, 4677632, Note_on_c, 0, 79, 0
1, 4685824, Note_on_c, 0, 72, 76
1, 4685824, Note_on_c, 0, 36, 76
1, 4685824, Note_on_c, 0, 48, 76
1, 4694016, Note_on_c, 0, 72, 0
1, 4694016, Note_on_c, 0, 48, 0
1, 4694016, Note_on_c, 0, 36, 0
1, 4694026, End_track
0, 0, End_of_file