0, 0, Header, 0, 1, 384
1, 0, Start_track
1, 0, Tempo, 697674
1, 1344, Note_on_c, 0, 79, 68
1, 1472, Note_on_c, 0, 79, 0
1, 1536, Note_on_c, 0, 77, 68
1, 1536, Note_on_c, 0, 60, 68
1, 1600, Note_on_c, 0, 77, 0
1, 1600, Note_on_c, 0, 60, 0
1, 1600, Note_on_c, 0, 76, 68
1, 1632, Note_on_c, 0, 64, 68
1, 1696, Note_on_c, 0, 64, 0
1, 1728, Note_on_c, 0, 76, 0
1, 1728, Note_on_c, 0, 74, 68
1, 1728, Note_on_c, 0, 67, 68
1, 1792, Note_on_c, 0, 74, 0
1, 1792, Note_on_c, 0, 67, 0
1, 1824, Note_on_c, 0, 72, 68
1, 1824, Note_on_c, 0, 64, 68
1, 1888, Note_on_c, 0, 72, 0
1, 1888, Note_on_c, 0, 64, 0
1, 1920, Note_on_c, 0, 72, 68
1, 1920, Note_on_c, 0, 60, 68
1, 1984, Note_on_c, 0, 60, 0
1, 2016, Note_on_c, 0, 64, 68
1, 2048, Note_on_c, 0, 72, 0
1, 2080, Note_on_c, 0, 64, 0
1, 2112, Note_on_c, 0, 72, 68
1, 2112, Note_on_c, 0, 67, 68
1, 2176, Note_on_c, 0, 67, 0
1, 2208, Note_on_c, 0, 64, 68
1, 2240, Note_on_c, 0, 72, 0
1, 2272, Note_on_c, 0, 64, 0
1, 2304, Note_on_c, 0, 72, 68
1, 2304, Note_on_c, 0, 60, 68
1, 2368, Note_on_c, 0, 60, 0
1, 2400, Note_on_c, 0, 64, 68
1, 2464, Note_on_c, 0, 64, 0
1, 2496, Note_on_c, 0, 67, 68
1, 2560, Note_on_c, 0, 67, 0
1, 2592, Note_on_c, 0, 64, 68
1, 2656, Note_on_c, 0, 64, 0
1, 2688, Note_on_c, 0, 72, 0
1, 2688, Note_on_c, 0, 60, 68
1, 2752, Note_on_c, 0, 60, 0
1, 2784, Note_on_c, 0, 64, 68
1, 2848, Note_on_c, 0, 64, 0
1, 2880, Note_on_c, 0, 84, 68
1, 2880, Note_on_c, 0, 67, 68
1, 2944, Note_on_c, 0, 67, 0
1, 2976, Note_on_c, 0, 64, 68
1, 3008, Note_on_c, 0, 84, 0
1, 3040, Note_on_c, 0, 64, 0
1, 3072, Note_on_c, 0, 83, 68
1, 3072, Note_on_c, 0, 60, 68
1, 3136, Note_on_c, 0, 83, 0
1, 3136, Note_on_c, 0, 60, 0
1, 3136, Note_on_c, 0, 81, 68
1, 3168, Note_on_c, 0, 65, 68
1, 3232, Note_on_c, 0, 65, 0
1, 3264, Note_on_c, 0, 81, 0
1, 3264, Note_on_c, 0, 79, 68
1, 3264, Note_on_c, 0, 69, 68
1, 3328, Note_on_c, 0, 79, 0
1, 3328, Note_on_c, 0, 69, 0
1, 3360, Note_on_c, 0, 77, 68
1, 3360, Note_on_c, 0, 65, 68
1, 3424, Note_on_c, 0, 77, 0
1, 3424, Note_on_c, 0, 65, 0
1, 3456, Note_on_c, 0, 77, 68
1, 3456, Note_on_c, 0, 60, 68
1, 3520, Note_on_c, 0, 60, 0
1, 3552, Note_on_c, 0, 65, 68
1, 3584, Note_on_c, 0, 77, 0
1, 3616, Note_on_c, 0, 65, 0
1, 3648, Note_on_c, 0, 77, 68
1, 3648, Note_on_c, 0, 69, 68
1, 3712, Note_on_c, 0, 69, 0
1, 3744, Note_on_c, 0, 65, 68
1, 3776, Note_on_c, 0, 77, 0
1, 3808, Note_on_c, 0, 65, 0
1, 3840, Note_on_c, 0, 77, 68
1, 3840, Note_on_c, 0, 60, 68
1, 3904, Note_on_c, 0, 60, 0
1, 3936, Note_on_c, 0, 65, 68
1, 4000, Note_on_c, 0, 65, 0
1, 4032, Note_on_c, 0, 69, 68
1, 4096, Note_on_c, 0, 69, 0
1, 4128, Note_on_c, 0, 65, 68
1, 4192, Note_on_c, 0, 65, 0
1, 4224, Note_on_c, 0, 77, 0
1, 4224, Note_on_c, 0, 60, 68
1, 4288, Note_on_c, 0, 60, 0
1, 4320, Note_on_c, 0, 65, 68
1, 4384, Note_on_c, 0, 65, 0
1, 4416, Note_on_c, 0, 81, 68
1, 4416, Note_on_c, 0, 69, 68
1, 4480, Note_on_c, 0, 69, 0
1, 4512, Note_on_c, 0, 65, 68
1, 4544, Note_on_c, 0, 81, 0
1, 4576, Note_on_c, 0, 65, 0
1, 4608, Note_on_c, 0, 81, 68
1, 4608, Note_on_c, 0, 60, 68
1, 4672, Note_on_c, 0, 81, 0
1, 4672, Note_on_c, 0, 60, 0
1, 4672, Note_on_c, 0, 79, 68
1, 4704, Note_on_c, 0, 64, 68
1, 4768, Note_on_c, 0, 79, 0
1, 4768, Note_on_c, 0, 64, 0
1, 4800, Note_on_c, 0, 77, 68
1, 4800, Note_on_c, 0, 67, 68
1, 4864, Note_on_c, 0, 77, 0
1, 4864, Note_on_c, 0, 67, 0
1, 4896, Note_on_c, 0, 76, 68
1, 4896, Note_on_c, 0, 64, 68
1, 4960, Note_on_c, 0, 76, 0
1, 4960, Note_on_c, 0, 64, 0
1, 4992, Note_on_c, 0, 76, 68
1, 4992, Note_on_c, 0, 60, 68
1, 5056, Note_on_c, 0, 60, 0
1, 5088, Note_on_c, 0, 64, 68
1, 5120, Note_on_c, 0, 76, 0
1, 5152, Note_on_c, 0, 64, 0
1, 5184, Note_on_c, 0, 79, 68
1, 5184, Note_on_c, 0, 67, 68
1, 5248, Note_on_c, 0, 67, 0
1, 5280, Note_on_c, 0, 64, 68
1, 5312, Note_on_c, 0, 79, 0
1, 5344, Note_on_c, 0, 64, 0
1, 5376, Note_on_c, 0, 79, 68
1, 5376, Note_on_c, 0, 59, 68
1, 5440, Note_on_c, 0, 79, 0
1, 5440, Note_on_c, 0, 59, 0
1, 5440, Note_on_c, 0, 77, 68
1, 5472, Note_on_c, 0, 62, 68
1, 5536, Note_on_c, 0, 77, 0
1, 5536, Note_on_c, 0, 62, 0
1, 5568, Note_on_c, 0, 76, 68
1, 5568, Note_on_c, 0, 67, 68
1, 5632, Note_on_c, 0, 76, 0
1, 5632, Note_on_c, 0, 67, 0
1, 5664, Note_on_c, 0, 74, 68
1, 5664, Note_on_c, 0, 62, 68
1, 5728, Note_on_c, 0, 74, 0
1, 5728, Note_on_c, 0, 62, 0
1, 5760, Note_on_c, 0, 74, 68
1, 5760, Note_on_c, 0, 59, 68
1, 5824, Note_on_c, 0, 59, 0
1, 5856, Note_on_c, 0, 62, 68
1, 5888, Note_on_c, 0, 74, 0
1, 5920, Note_on_c, 0, 62, 0
1, 5952, Note_on_c, 0, 77, 68
1, 5952, Note_on_c, 0, 67, 68
1, 6016, Note_on_c, 0, 67, 0
1, 6048, Note_on_c, 0, 62, 68
1, 6080, Note_on_c, 0, 77, 0
1, 6112, Note_on_c, 0, 62, 0
1, 6144, Note_on_c, 0, 77, 68
1, 6144, Note_on_c, 0, 60, 68
1, 6208, Note_on_c, 0, 77, 0
1, 6208, Note_on_c, 0, 76, 68
1, 6272, Note_on_c, 0, 60, 0
1, 6304, Note_on_c, 0, 76, 0
1, 6336, Note_on_c, 0, 74, 68
1, 6336, Note_on_c, 0, 67, 68
1, 6336, Note_on_c, 0, 64, 68
1, 6400, Note_on_c, 0, 74, 0
1, 6432, Note_on_c, 0, 72, 68
1, 6464, Note_on_c, 0, 67, 0
1, 6464, Note_on_c, 0, 64, 0
1, 6496, Note_on_c, 0, 72, 0
1, 6528, Note_on_c, 0, 71, 68
1, 6528, Note_on_c, 0, 65, 68
1, 6528, Note_on_c, 0, 62, 68
1, 6656, Note_on_c, 0, 71, 0
1, 6656, Note_on_c, 0, 65, 0
1, 6656, Note_on_c, 0, 62, 0
1, 6720, Note_on_c, 0, 72, 68
1, 6720, Note_on_c, 0, 64, 68
1, 6720, Note_on_c, 0, 60, 68
1, 6848, Note_on_c, 0, 72, 0
1, 6848, Note_on_c, 0, 64, 0
1, 6848, Note_on_c, 0, 60, 0
1, 6912, Note_on_c, 0, 60, 68
1, 6912, Note_on_c, 0, 55, 68
1, 6928, Note_on_c, 0, 76, 68
1, 7168, Note_on_c, 0, 60, 0
1, 7168, Note_on_c, 0, 55, 0
1, 7296, Note_on_c, 0, 74, 68
1, 7296, Note_on_c, 0, 55, 68
1, 7296, Note_on_c, 0, 59, 68
1, 7312, Note_on_c, 0, 76, 0
1, 7424, Note_on_c, 0, 74, 0
1, 7424, Note_on_c, 0, 55, 0
1, 7424, Note_on_c, 0, 59, 0
1, 7488, Note_on_c, 0, 79, 68
1, 7616, Note_on_c, 0, 79, 0
1, 7680, Note_on_c, 0, 77, 68
1, 7680, Note_on_c, 0, 60, 68
1, 7744, Note_on_c, 0, 77, 0
1, 7744, Note_on_c, 0, 60, 0
1, 7744, Note_on_c, 0, 76, 68
1, 7776, Note_on_c, 0, 64, 68
1, 7840, Note_on_c, 0, 76, 0
1, 7840, Note_on_c, 0, 64, 0
1, 7872, Note_on_c, 0, 74, 68
1, 7872, Note_on_c, 0, 67, 68
1, 7936, Note_on_c, 0, 74, 0
1, 7936, Note_on_c, 0, 67, 0
1, 7968, Note_on_c, 0, 72, 68
1, 7968, Note_on_c, 0, 64, 68
1, 8032, Note_on_c, 0, 72, 0
1, 8032, Note_on_c, 0, 64, 0
1, 8064, Note_on_c, 0, 72, 68
1, 8064, Note_on_c, 0, 60, 68
1, 8128, Note_on_c, 0, 60, 0
1, 8160, Note_on_c, 0, 64, 68
1, 8192, Note_on_c, 0, 72, 0
1, 8224, Note_on_c, 0, 64, 0
1, 8256, Note_on_c, 0, 72, 68
1, 8256, Note_on_c, 0, 67, 68
1, 8320, Note_on_c, 0, 67, 0
1, 8352, Note_on_c, 0, 64, 68
1, 8384, Note_on_c, 0, 72, 0
1, 8416, Note_on_c, 0, 64, 0
1, 8448, Note_on_c, 0, 71, 68
1, 8448, Note_on_c, 0, 60, 68
1, 8480, Note_on_c, 0, 71, 0
1, 8480, Note_on_c, 0, 72, 68
1, 8512, Note_on_c, 0, 60, 0
1, 8512, Note_on_c, 0, 72, 0
1, 8512, Note_on_c, 0, 74, 68
1, 8544, Note_on_c, 0, 74, 0
1, 8544, Note_on_c, 0, 64, 68
1, 8544, Note_on_c, 0, 72, 68
1, 8608, Note_on_c, 0, 64, 0
1, 8640, Note_on_c, 0, 67, 68
1, 8704, Note_on_c, 0, 67, 0
1, 8736, Note_on_c, 0, 64, 68
1, 8800, Note_on_c, 0, 64, 0
1, 8832, Note_on_c, 0, 60, 68
1, 8896, Note_on_c, 0, 60, 0
1, 8928, Note_on_c, 0, 64, 68
1, 8992, Note_on_c, 0, 64, 0
1, 9024, Note_on_c, 0, 84, 68
1, 9024, Note_on_c, 0, 67, 68
1, 9056, Note_on_c, 0, 72, 0
1, 9088, Note_on_c, 0, 67, 0
1, 9120, Note_on_c, 0, 64, 68
1, 9152, Note_on_c, 0, 84, 0
1, 9184, Note_on_c, 0, 64, 0
1, 9216, Note_on_c, 0, 83, 68
1, 9216, Note_on_c, 0, 60, 68
1, 9280, Note_on_c, 0, 83, 0
1, 9280, Note_on_c, 0, 60, 0
1, 9280, Note_on_c, 0, 81, 68
1, 9312, Note_on_c, 0, 65, 68
1, 9376, Note_on_c, 0, 81, 0
1, 9376, Note_on_c, 0, 65, 0
1, 9408, Note_on_c, 0, 79, 68
1, 9408, Note_on_c, 0, 69, 68
1, 9472, Note_on_c, 0, 79, 0
1, 9472, Note_on_c, 0, 69, 0
1, 9504, Note_on_c, 0, 77, 68
1, 9504, Note_on_c, 0, 65, 68
1, 9568, Note_on_c, 0, 77, 0
1, 9568, Note_on_c, 0, 65, 0
1, 9600, Note_on_c, 0, 77, 68
1, 9600, Note_on_c, 0, 60, 68
1, 9664, Note_on_c, 0, 60, 0
1, 9696, Note_on_c, 0, 65, 68
1, 9728, Note_on_c, 0, 77, 0
1, 9760, Note_on_c, 0, 65, 0
1, 9792, Note_on_c, 0, 77, 68
1, 9792, Note_on_c, 0, 69, 68
1, 9856, Note_on_c, 0, 69, 0
1, 9888, Note_on_c, 0, 65, 68
1, 9920, Note_on_c, 0, 77, 0
1, 9952, Note_on_c, 0, 65, 0
1, 9984, Note_on_c, 0, 76, 68
1, 9984, Note_on_c, 0, 60, 68
1, 10016, Note_on_c, 0, 76, 0
1, 10032, Note_on_c, 0, 77, 68
1, 10048, Note_on_c, 0, 60, 0
1, 10064, Note_on_c, 0, 77, 0
1, 10080, Note_on_c, 0, 79, 68
1, 10080, Note_on_c, 0, 65, 68
1, 10112, Note_on_c, 0, 79, 0
1, 10112, Note_on_c, 0, 77, 68
1, 10144, Note_on_c, 0, 65, 0
1, 10176, Note_on_c, 0, 69, 68
1, 10240, Note_on_c, 0, 69, 0
1, 10272, Note_on_c, 0, 65, 68
1, 10336, Note_on_c, 0, 65, 0
1, 10368, Note_on_c, 0, 60, 68
1, 10432, Note_on_c, 0, 60, 0
1, 10464, Note_on_c, 0, 65, 68
1, 10496, Note_on_c, 0, 77, 0
1, 10528, Note_on_c, 0, 65, 0
1, 10560, Note_on_c, 0, 81, 68
1, 10560, Note_on_c, 0, 69, 68
1, 10624, Note_on_c, 0, 69, 0
1, 10656, Note_on_c, 0, 65, 68
1, 10688, Note_on_c, 0, 81, 0
1, 10720, Note_on_c, 0, 65, 0
1, 10752, Note_on_c, 0, 81, 68
1, 10752, Note_on_c, 0, 60, 68
1, 10816, Note_on_c, 0, 81, 0
1, 10816, Note_on_c, 0, 60, 0
1, 10816, Note_on_c, 0, 79, 68
1, 10848, Note_on_c, 0, 64, 68
1, 10912, Note_on_c, 0, 79, 0
1, 10912, Note_on_c, 0, 64, 0
1, 10944, Note_on_c, 0, 77, 68
1, 10944, Note_on_c, 0, 67, 68
1, 11008, Note_on_c, 0, 77, 0
1, 11008, Note_on_c, 0, 67, 0
1, 11040, Note_on_c, 0, 76, 68
1, 11040, Note_on_c, 0, 64, 68
1, 11104, Note_on_c, 0, 76, 0
1, 11104, Note_on_c, 0, 64, 0
1, 11136, Note_on_c, 0, 76, 68
1, 11136, Note_on_c, 0, 61, 68
1, 11200, Note_on_c, 0, 61, 0
1, 11232, Note_on_c, 0, 64, 68
1, 11264, Note_on_c, 0, 76, 0
1, 11296, Note_on_c, 0, 64, 0
1, 11328, Note_on_c, 0, 79, 68
1, 11328, Note_on_c, 0, 69, 68
1, 11392, Note_on_c, 0, 69, 0
1, 11424, Note_on_c, 0, 64, 68
1, 11456, Note_on_c, 0, 79, 0
1, 11488, Note_on_c, 0, 64, 0
1, 11520, Note_on_c, 0, 79, 68
1, 11520, Note_on_c, 0, 62, 68
1, 11584, Note_on_c, 0, 79, 0
1, 11584, Note_on_c, 0, 62, 0
1, 11584, Note_on_c, 0, 77, 68
1, 11616, Note_on_c, 0, 65, 68
1, 11680, Note_on_c, 0, 77, 0
1, 11680, Note_on_c, 0, 65, 0
1, 11712, Note_on_c, 0, 76, 68
1, 11712, Note_on_c, 0, 69, 68
1, 11776, Note_on_c, 0, 76, 0
1, 11776, Note_on_c, 0, 69, 0
1, 11808, Note_on_c, 0, 74, 68
1, 11808, Note_on_c, 0, 65, 68
1, 11872, Note_on_c, 0, 74, 0
1, 11872, Note_on_c, 0, 65, 0
1, 11904, Note_on_c, 0, 74, 68
1, 11904, Note_on_c, 0, 60, 68
1, 11968, Note_on_c, 0, 60, 0
1, 12000, Note_on_c, 0, 62, 68
1, 12032, Note_on_c, 0, 74, 0
1, 12064, Note_on_c, 0, 62, 0
1, 12096, Note_on_c, 0, 77, 68
1, 12096, Note_on_c, 0, 69, 68
1, 12160, Note_on_c, 0, 69, 0
1, 12192, Note_on_c, 0, 62, 68
1, 12224, Note_on_c, 0, 77, 0
1, 12256, Note_on_c, 0, 62, 0
1, 12288, Note_on_c, 0, 77, 68
1, 12288, Note_on_c, 0, 67, 68
1, 12288, Note_on_c, 0, 60, 68
1, 12352, Note_on_c, 0, 77, 0
1, 12352, Note_on_c, 0, 76, 68
1, 12416, Note_on_c, 0, 67, 0
1, 12416, Note_on_c, 0, 60, 0
1, 12480, Note_on_c, 0, 77, 68
1, 12480, Note_on_c, 1, 53, 68
1, 12480, Note_on_c, 1, 62, 68
1, 12544, Note_on_c, 0, 76, 0
1, 12544, Note_on_c, 0, 77, 0
1, 12576, Note_on_c, 0, 74, 68
1, 12608, Note_on_c, 1, 53, 0
1, 12608, Note_on_c, 1, 62, 0
1, 12640, Note_on_c, 0, 74, 0
1, 12672, Note_on_c, 0, 72, 68
1, 12672, Note_on_c, 1, 55, 68
1, 12672, Note_on_c, 1, 64, 68
1, 12800, Note_on_c, 0, 72, 0
1, 12800, Note_on_c, 1, 64, 0
1, 12864, Note_on_c, 0, 71, 68
1, 12864, Note_on_c, 1, 62, 68
1, 12928, Note_on_c, 1, 55, 0
1, 12992, Note_on_c, 0, 71, 0
1, 12992, Note_on_c, 1, 62, 0
1, 13056, Note_on_c, 0, 81, 68
1, 13056, Note_on_c, 0, 60, 68
1, 13120, Note_on_c, 0, 81, 0
1, 13120, Note_on_c, 0, 60, 0
1, 13120, Note_on_c, 0, 79, 68
1, 13152, Note_on_c, 0, 64, 68
1, 13216, Note_on_c, 0, 79, 0
1, 13216, Note_on_c, 0, 64, 0
1, 13248, Note_on_c, 0, 77, 68
1, 13248, Note_on_c, 0, 67, 68
1, 13312, Note_on_c, 0, 77, 0
1, 13312, Note_on_c, 0, 67, 0
1, 13344, Note_on_c, 0, 76, 68
1, 13344, Note_on_c, 0, 64, 68
1, 13408, Note_on_c, 0, 76, 0
1, 13408, Note_on_c, 0, 64, 0
1, 13440, Note_on_c, 0, 88, 68
1, 13440, Note_on_c, 0, 61, 68
1, 13504, Note_on_c, 0, 88, 0
1, 13504, Note_on_c, 0, 61, 0
1, 13536, Note_on_c, 0, 85, 68
1, 13536, Note_on_c, 0, 64, 68
1, 13600, Note_on_c, 0, 85, 0
1, 13600, Note_on_c, 0, 64, 0
1, 13632, Note_on_c, 0, 81, 68
1, 13632, Note_on_c, 0, 69, 68
1, 13696, Note_on_c, 0, 81, 0
1, 13696, Note_on_c, 0, 69, 0
1, 13728, Note_on_c, 0, 79, 68
1, 13728, Note_on_c, 0, 64, 68
1, 13792, Note_on_c, 0, 79, 0
1, 13792, Note_on_c, 0, 64, 0
1, 13824, Note_on_c, 0, 79, 68
1, 13824, Note_on_c, 0, 62, 68
1, 13888, Note_on_c, 0, 79, 0
1, 13888, Note_on_c, 0, 62, 0
1, 13888, Note_on_c, 0, 77, 68
1, 13920, Note_on_c, 0, 65, 68
1, 13984, Note_on_c, 0, 77, 0
1, 13984, Note_on_c, 0, 65, 0
1, 14016, Note_on_c, 0, 76, 68
1, 14016, Note_on_c, 0, 69, 68
1, 14080, Note_on_c, 0, 76, 0
1, 14080, Note_on_c, 0, 69, 0
1, 14112, Note_on_c, 0, 74, 68
1, 14112, Note_on_c, 0, 65, 68
1, 14176, Note_on_c, 0, 74, 0
1, 14176, Note_on_c, 0, 65, 0
1, 14208, Note_on_c, 0, 86, 68
1, 14208, Note_on_c, 0, 59, 68
1, 14272, Note_on_c, 0, 86, 0
1, 14272, Note_on_c, 0, 59, 0
1, 14304, Note_on_c, 0, 83, 68
1, 14304, Note_on_c, 0, 62, 68
1, 14368, Note_on_c, 0, 83, 0
1, 14368, Note_on_c, 0, 62, 0
1, 14400, Note_on_c, 0, 79, 68
1, 14400, Note_on_c, 0, 67, 68
1, 14464, Note_on_c, 0, 79, 0
1, 14464, Note_on_c, 0, 67, 0
1, 14496, Note_on_c, 0, 77, 68
1, 14496, Note_on_c, 0, 62, 68
1, 14560, Note_on_c, 0, 77, 0
1, 14560, Note_on_c, 0, 62, 0
1, 14592, Note_on_c, 0, 77, 68
1, 14592, Note_on_c, 0, 67, 68
1, 14592, Note_on_c, 0, 60, 68
1, 14656, Note_on_c, 0, 77, 0
1, 14656, Note_on_c, 0, 76, 68
1, 14720, Note_on_c, 0, 67, 0
1, 14720, Note_on_c, 0, 60, 0
1, 14752, Note_on_c, 0, 76, 0
1, 14784, Note_on_c, 0, 81, 68
1, 14784, Note_on_c, 1, 53, 68
1, 14784, Note_on_c, 1, 62, 68
1, 14848, Note_on_c, 0, 81, 0
1, 14880, Note_on_c, 0, 77, 68
1, 14912, Note_on_c, 1, 53, 0
1, 14912, Note_on_c, 1, 62, 0
1, 14944, Note_on_c, 0, 77, 0
1, 14976, Note_on_c, 0, 76, 68
1, 14976, Note_on_c, 1, 55, 68
1, 14976, Note_on_c, 1, 60, 68
1, 15040, Note_on_c, 0, 76, 0
1, 15072, Note_on_c, 0, 79, 68
1, 15104, Note_on_c, 1, 60, 0
1, 15136, Note_on_c, 0, 79, 0
1, 15168, Note_on_c, 0, 77, 68
1, 15168, Note_on_c, 1, 59, 68
1, 15232, Note_on_c, 0, 77, 0
1, 15232, Note_on_c, 1, 55, 0
1, 15264, Note_on_c, 0, 74, 68
1, 15296, Note_on_c, 1, 59, 0
1, 15328, Note_on_c, 0, 74, 0
1, 15360, Note_on_c, 0, 72, 75
1, 15360, Note_on_c, 1, 60, 75
1, 15488, Note_on_c, 0, 72, 0
1, 15488, Note_on_c, 1, 60, 0
1, 15552, Note_on_c, 1, 55, 75
1, 15552, Note_on_c, 1, 43, 75
1, 15680, Note_on_c, 1, 55, 0
1, 15680, Note_on_c, 1, 43, 0
1, 15744, Note_on_c, 0, 60, 75
1, 15744, Note_on_c, 1, 52, 75
1, 15744, Note_on_c, 1, 40, 75
1, 15808, Note_on_c, 0, 60, 0
1, 15840, Note_on_c, 0, 64, 75
1, 15872, Note_on_c, 1, 52, 0
1, 15872, Note_on_c, 1, 40, 0
1, 15904, Note_on_c, 0, 64, 0
1, 15936, Note_on_c, 0, 67, 75
1, 15936, Note_on_c, 1, 48, 75
1, 15936, Note_on_c, 1, 36, 75
1, 16000, Note_on_c, 0, 67, 0
1, 16032, Note_on_c, 0, 72, 75
1, 16064, Note_on_c, 1, 48, 0
1, 16064, Note_on_c, 1, 36, 0
1, 16096, Note_on_c, 0, 72, 0
1, 16128, Note_on_c, 0, 72, 75
1, 16128, Note_on_c, 0, 64, 75
1, 16128, Note_on_c, 1, 55, 75
1, 16128, Note_on_c, 1, 43, 75
1, 16256, Note_on_c, 1, 55, 0
1, 16256, Note_on_c, 1, 43, 0
1, 16320, Note_on_c, 1, 55, 75
1, 16384, Note_on_c, 0, 72, 0
1, 16384, Note_on_c, 0, 64, 0
1, 16448, Note_on_c, 1, 55, 0
1, 16512, Note_on_c, 0, 76, 75
1, 16512, Note_on_c, 1, 55, 75
1, 16576, Note_on_c, 0, 76, 0
1, 16576, Note_on_c, 0, 74, 75
1, 16640, Note_on_c, 1, 55, 0
1, 16672, Note_on_c, 0, 74, 0
1, 16704, Note_on_c, 0, 72, 75
1, 16704, Note_on_c, 1, 55, 75
1, 16768, Note_on_c, 0, 72, 0
1, 16800, Note_on_c, 0, 74, 75
1, 16832, Note_on_c, 1, 55, 0
1, 16864, Note_on_c, 0, 74, 0
1, 16896, Note_on_c, 0, 72, 75
1, 16896, Note_on_c, 0, 64, 75
1, 16896, Note_on_c, 1, 60, 75
1, 17024, Note_on_c, 0, 72, 0
1, 17024, Note_on_c, 0, 64, 0
1, 17024, Note_on_c, 1, 60, 0
1, 17088, Note_on_c, 1, 55, 75
1, 17088, Note_on_c, 1, 43, 75
1, 17216, Note_on_c, 1, 55, 0
1, 17216, Note_on_c, 1, 43, 0
1, 17280, Note_on_c, 0, 64, 75
1, 17280, Note_on_c, 0, 60, 75
1, 17280, Note_on_c, 1, 52, 75
1, 17280, Note_on_c, 1, 40, 75
1, 17344, Note_on_c, 0, 64, 0
1, 17344, Note_on_c, 0, 60, 0
1, 17376, Note_on_c, 0, 67, 75
1, 17376, Note_on_c, 0, 64, 75
1, 17408, Note_on_c, 1, 52, 0
1, 17408, Note_on_c, 1, 40, 0
1, 17440, Note_on_c, 0, 67, 0
1, 17440, Note_on_c, 0, 64, 0
1, 17472, Note_on_c, 0, 72, 75
1, 17472, Note_on_c, 0, 67, 75
1, 17472, Note_on_c, 1, 48, 75
1, 17472, Note_on_c, 1, 36, 75
1, 17536, Note_on_c, 0, 72, 0
1, 17536, Note_on_c, 0, 67, 0
1, 17568, Note_on_c, 0, 76, 75
1, 17568, Note_on_c, 0, 72, 75
1, 17600, Note_on_c, 1, 48, 0
1, 17600, Note_on_c, 1, 36, 0
1, 17632, Note_on_c, 0, 76, 0
1, 17632, Note_on_c, 0, 72, 0
1, 17664, Note_on_c, 0, 76, 75
1, 17664, Note_on_c, 0, 72, 75
1, 17664, Note_on_c, 1, 55, 75
1, 17664, Note_on_c, 1, 43, 75
1, 17792, Note_on_c, 1, 55, 0
1, 17792, Note_on_c, 1, 43, 0
1, 17856, Note_on_c, 1, 55, 75
1, 17920, Note_on_c, 0, 76, 0
1, 17920, Note_on_c, 0, 72, 0
1, 17984, Note_on_c, 1, 55, 0
1, 18048, Note_on_c, 0, 79, 75
1, 18048, Note_on_c, 0, 76, 75
1, 18048, Note_on_c, 1, 55, 75
1, 18112, Note_on_c, 0, 79, 0
1, 18112, Note_on_c, 0, 76, 0
1, 18112, Note_on_c, 0, 77, 75
1, 18112, Note_on_c, 0, 74, 75
1, 18176, Note_on_c, 1, 55, 0
1, 18208, Note_on_c, 0, 77, 0
1, 18208, Note_on_c, 0, 74, 0
1, 18240, Note_on_c, 0, 76, 75
1, 18240, Note_on_c, 0, 72, 75
1, 18240, Note_on_c, 1, 55, 75
1, 18304, Note_on_c, 0, 76, 0
1, 18304, Note_on_c, 0, 72, 0
1, 18336, Note_on_c, 0, 77, 75
1, 18336, Note_on_c, 0, 74, 75
1, 18368, Note_on_c, 1, 55, 0
1, 18400, Note_on_c, 0, 77, 0
1, 18400, Note_on_c, 0, 74, 0
1, 18432, Note_on_c, 0, 76, 75
1, 18432, Note_on_c, 0, 72, 75
1, 18432, Note_on_c, 1, 60, 75
1, 18560, Note_on_c, 0, 76, 0
1, 18560, Note_on_c, 0, 72, 0
1, 18560, Note_on_c, 1, 60, 0
1, 18624, Note_on_c, 1, 55, 75
1, 18624, Note_on_c, 1, 43, 75
1, 18752, Note_on_c, 1, 55, 0
1, 18752, Note_on_c, 1, 43, 0
1, 18816, Note_on_c, 0, 72, 75
1, 18816, Note_on_c, 1, 52, 75
1, 18816, Note_on_c, 1, 40, 75
1, 18880, Note_on_c, 0, 72, 0
1, 18912, Note_on_c, 0, 76, 75
1, 18944, Note_on_c, 1, 52, 0
1, 18944, Note_on_c, 1, 40, 0
1, 18976, Note_on_c, 0, 76, 0
1, 19008, Note_on_c, 0, 79, 75
1, 19008, Note_on_c, 1, 48, 75
1, 19008, Note_on_c, 1, 36, 75
1, 19072, Note_on_c, 0, 79, 0
1, 19104, Note_on_c, 0, 84, 75
1, 19136, Note_on_c, 1, 48, 0
1, 19136, Note_on_c, 1, 36, 0
1, 19168, Note_on_c, 0, 84, 0
1, 19200, Note_on_c, 0, 80, 75
1, 19200, Note_on_c, 1, 53, 75
1, 19328, Note_on_c, 0, 80, 0
1, 19392, Note_on_c, 0, 81, 75
1, 19456, Note_on_c, 0, 81, 0
1, 19456, Note_on_c, 1, 53, 0
1, 19584, Note_on_c, 0, 78, 75
1, 19584, Note_on_c, 1, 52, 75
1, 19712, Note_on_c, 0, 78, 0
1, 19776, Note_on_c, 0, 79, 75
1, 19840, Note_on_c, 0, 79, 0
1, 19840, Note_on_c, 1, 52, 0
1, 19968, Note_on_c, 0, 76, 75
1, 19968, Note_on_c, 1, 57, 75
1, 20096, Note_on_c, 0, 76, 0
1, 20160, Note_on_c, 0, 77, 75
1, 20224, Note_on_c, 0, 77, 0
1, 20224, Note_on_c, 1, 57, 0
1, 20352, Note_on_c, 0, 75, 75
1, 20352, Note_on_c, 1, 55, 75
1, 20480, Note_on_c, 0, 75, 0
1, 20544, Note_on_c, 0, 76, 75
1, 20608, Note_on_c, 0, 76, 0
1, 20608, Note_on_c, 1, 55, 0
1, 20736, Note_on_c, 0, 73, 75
1, 20736, Note_on_c, 1, 57, 75
1, 20736, Note_on_c, 1, 53, 75
1, 20800, Note_on_c, 0, 73, 0
1, 20848, Note_on_c, 0, 74, 75
1, 20912, Note_on_c, 0, 74, 0
1, 20928, Note_on_c, 0, 77, 75
1, 20992, Note_on_c, 0, 77, 0
1, 20992, Note_on_c, 1, 57, 0
1, 20992, Note_on_c, 1, 53, 0
1, 21024, Note_on_c, 0, 81, 75
1, 21088, Note_on_c, 0, 81, 0
1, 21120, Note_on_c, 0, 79, 75
1, 21184, Note_on_c, 0, 79, 0
1, 21216, Note_on_c, 0, 77, 75
1, 21280, Note_on_c, 0, 77, 0
1, 21312, Note_on_c, 0, 76, 75
1, 21312, Note_on_c, 1, 65, 75
1, 21312, Note_on_c, 1, 53, 75
1, 21376, Note_on_c, 0, 76, 0
1, 21408, Note_on_c, 0, 74, 75
1, 21440, Note_on_c, 1, 65, 0
1, 21440, Note_on_c, 1, 53, 0
1, 21472, Note_on_c, 0, 74, 0
1, 21504, Note_on_c, 0, 72, 75
1, 21504, Note_on_c, 1, 64, 75
1, 21632, Note_on_c, 0, 72, 0
1, 21632, Note_on_c, 1, 64, 0
1, 21696, Note_on_c, 0, 71, 75
1, 21696, Note_on_c, 1, 62, 75
1, 21824, Note_on_c, 0, 71, 0
1, 21824, Note_on_c, 1, 62, 0
1, 21888, Note_on_c, 0, 60, 75
1, 21952, Note_on_c, 0, 60, 0
1, 21984, Note_on_c, 0, 64, 75
1, 22048, Note_on_c, 0, 64, 0
1, 22080, Note_on_c, 0, 67, 75
1, 22144, Note_on_c, 0, 67, 0
1, 22176, Note_on_c, 0, 72, 75
1, 22240, Note_on_c, 0, 72, 0
1, 22272, Note_on_c, 0, 72, 75
1, 22272, Note_on_c, 0, 64, 75
1, 22272, Note_on_c, 1, 43, 75
1, 22336, Note_on_c, 1, 43, 0
1, 22368, Note_on_c, 1, 48, 75
1, 22432, Note_on_c, 1, 48, 0
1, 22464, Note_on_c, 1, 52, 75
1, 22528, Note_on_c, 0, 72, 0
1, 22528, Note_on_c, 0, 64, 0
1, 22528, Note_on_c, 1, 52, 0
1, 22560, Note_on_c, 1, 55, 75
1, 22624, Note_on_c, 1, 55, 0
1, 22656, Note_on_c, 0, 76, 75
1, 22656, Note_on_c, 1, 55, 75
1, 22720, Note_on_c, 0, 76, 0
1, 22720, Note_on_c, 0, 74, 75
1, 22784, Note_on_c, 1, 55, 0
1, 22816, Note_on_c, 0, 74, 0
1, 22848, Note_on_c, 0, 72, 75
1, 22848, Note_on_c, 1, 55, 75
1, 22912, Note_on_c, 0, 72, 0
1, 22944, Note_on_c, 0, 74, 75
1, 22976, Note_on_c, 1, 55, 0
1, 23008, Note_on_c, 0, 74, 0
1, 23040, Note_on_c, 0, 72, 75
1, 23040, Note_on_c, 0, 64, 75
1, 23040, Note_on_c, 1, 60, 75
1, 23168, Note_on_c, 0, 72, 0
1, 23168, Note_on_c, 0, 64, 0
1, 23168, Note_on_c, 1, 60, 0
1, 23232, Note_on_c, 1, 48, 75
1, 23360, Note_on_c, 1, 48, 0
1, 23424, Note_on_c, 0, 64, 75
1, 23424, Note_on_c, 0, 60, 75
1, 23488, Note_on_c, 0, 64, 0
1, 23488, Note_on_c, 0, 60, 0
1, 23520, Note_on_c, 0, 67, 75
1, 23520, Note_on_c, 0, 64, 75
1, 23584, Note_on_c, 0, 67, 0
1, 23584, Note_on_c, 0, 64, 0
1, 23616, Note_on_c, 0, 72, 75
1, 23616, Note_on_c, 0, 67, 75
1, 23680, Note_on_c, 0, 72, 0
1, 23680, Note_on_c, 0, 67, 0
1, 23712, Note_on_c, 0, 76, 75
1, 23712, Note_on_c, 0, 72, 75
1, 23776, Note_on_c, 0, 76, 0
1, 23776, Note_on_c, 0, 72, 0
1, 23808, Note_on_c, 0, 76, 75
1, 23808, Note_on_c, 0, 72, 75
1, 23808, Note_on_c, 1, 43, 75
1, 23872, Note_on_c, 1, 43, 0
1, 23904, Note_on_c, 1, 48, 75
1, 23968, Note_on_c, 1, 48, 0
1, 24000, Note_on_c, 1, 52, 75
1, 24064, Note_on_c, 0, 76, 0
1, 24064, Note_on_c, 0, 72, 0
1, 24064, Note_on_c, 1, 52, 0
1, 24096, Note_on_c, 1, 55, 75
1, 24160, Note_on_c, 1, 55, 0
1, 24192, Note_on_c, 0, 79, 75
1, 24192, Note_on_c, 0, 76, 75
1, 24192, Note_on_c, 1, 55, 75
1, 24256, Note_on_c, 0, 79, 0
1, 24256, Note_on_c, 0, 76, 0
1, 24256, Note_on_c, 0, 77, 75
1, 24256, Note_on_c, 0, 74, 75
1, 24320, Note_on_c, 1, 55, 0
1, 24352, Note_on_c, 0, 77, 0
1, 24352, Note_on_c, 0, 74, 0
1, 24384, Note_on_c, 0, 76, 75
1, 24384, Note_on_c, 0, 72, 75
1, 24384, Note_on_c, 1, 55, 75
1, 24448, Note_on_c, 0, 76, 0
1, 24448, Note_on_c, 0, 72, 0
1, 24480, Note_on_c, 0, 77, 75
1, 24480, Note_on_c, 0, 74, 75
1, 24512, Note_on_c, 1, 55, 0
1, 24544, Note_on_c, 0, 77, 0
1, 24544, Note_on_c, 0, 74, 0
1, 24576, Note_on_c, 0, 76, 75
1, 24576, Note_on_c, 0, 72, 75
1, 24576, Note_on_c, 1, 60, 75
1, 24704, Note_on_c, 0, 76, 0
1, 24704, Note_on_c, 0, 72, 0
1, 24704, Note_on_c, 1, 60, 0
1, 24768, Note_on_c, 1, 48, 75
1, 24896, Note_on_c, 1, 48, 0
1, 24960, Note_on_c, 0, 72, 75
1, 25024, Note_on_c, 0, 72, 0
1, 25056, Note_on_c, 0, 76, 75
1, 25120, Note_on_c, 0, 76, 0
1, 25152, Note_on_c, 0, 79, 75
1, 25216, Note_on_c, 0, 79, 0
1, 25248, Note_on_c, 0, 84, 75
1, 25312, Note_on_c, 0, 84, 0
1, 25344, Note_on_c, 0, 80, 75
1, 25408, Note_on_c, 0, 80, 0
1, 25440, Note_on_c, 0, 81, 75
1, 25504, Note_on_c, 0, 81, 0
1, 25536, Note_on_c, 0, 81, 75
1, 25536, Note_on_c, 1, 60, 75
1, 25600, Note_on_c, 0, 81, 0
1, 25632, Note_on_c, 0, 81, 75
1, 25696, Note_on_c, 0, 81, 0
1, 25728, Note_on_c, 0, 78, 75
1, 25792, Note_on_c, 0, 78, 0
1, 25792, Note_on_c, 1, 60, 0
1, 25824, Note_on_c, 0, 79, 75
1, 25888, Note_on_c, 0, 79, 0
1, 25920, Note_on_c, 0, 79, 75
1, 25920, Note_on_c, 1, 60, 75
1, 25984, Note_on_c, 0, 79, 0
1, 26016, Note_on_c, 0, 79, 75
1, 26048, Note_on_c, 1, 60, 0
1, 26080, Note_on_c, 0, 79, 0
1, 26112, Note_on_c, 0, 76, 75
1, 26112, Note_on_c, 1, 60, 75
1, 26176, Note_on_c, 0, 76, 0
1, 26208, Note_on_c, 0, 77, 75
1, 26240, Note_on_c, 1, 60, 0
1, 26272, Note_on_c, 0, 77, 0
1, 26304, Note_on_c, 0, 77, 75
1, 26304, Note_on_c, 1, 60, 75
1, 26368, Note_on_c, 0, 77, 0
1, 26400, Note_on_c, 0, 77, 75
1, 26464, Note_on_c, 0, 77, 0
1, 26496, Note_on_c, 0, 75, 75
1, 26560, Note_on_c, 0, 75, 0
1, 26560, Note_on_c, 1, 60, 0
1, 26592, Note_on_c, 0, 76, 75
1, 26656, Note_on_c, 0, 76, 0
1, 26688, Note_on_c, 0, 76, 75
1, 26688, Note_on_c, 1, 60, 75
1, 26752, Note_on_c, 0, 76, 0
1, 26784, Note_on_c, 0, 76, 75
1, 26816, Note_on_c, 1, 60, 0
1, 26848, Note_on_c, 0, 76, 0
1, 26880, Note_on_c, 0, 84, 75
1, 26880, Note_on_c, 0, 72, 75
1, 26880, Note_on_c, 1, 52, 75
1, 26944, Note_on_c, 1, 52, 0
1, 26976, Note_on_c, 1, 53, 75
1, 27008, Note_on_c, 0, 84, 0
1, 27040, Note_on_c, 1, 53, 0
1, 27072, Note_on_c, 0, 81, 75
1, 27072, Note_on_c, 1, 53, 75
1, 27136, Note_on_c, 0, 72, 0
1, 27136, Note_on_c, 1, 53, 0
1, 27168, Note_on_c, 1, 53, 75
1, 27232, Note_on_c, 1, 53, 0
1, 27264, Note_on_c, 0, 72, 75
1, 27264, Note_on_c, 1, 51, 75
1, 27328, Note_on_c, 0, 81, 0
1, 27328, Note_on_c, 1, 51, 0
1, 27360, Note_on_c, 1, 52, 75
1, 27424, Note_on_c, 1, 52, 0
1, 27456, Note_on_c, 0, 79, 75
1, 27456, Note_on_c, 1, 52, 75
1, 27520, Note_on_c, 0, 72, 0
1, 27520, Note_on_c, 1, 52, 0
1, 27552, Note_on_c, 1, 52, 75
1, 27584, Note_on_c, 0, 79, 0
1, 27616, Note_on_c, 1, 52, 0
1, 27648, Note_on_c, 0, 79, 75
1, 27648, Note_on_c, 0, 72, 75
1, 27648, Note_on_c, 1, 49, 75
1, 27712, Note_on_c, 1, 49, 0
1, 27744, Note_on_c, 1, 50, 75
1, 27776, Note_on_c, 0, 79, 0
1, 27808, Note_on_c, 1, 50, 0
1, 27840, Note_on_c, 0, 77, 75
1, 27840, Note_on_c, 1, 50, 75
1, 27904, Note_on_c, 0, 72, 0
1, 27904, Note_on_c, 1, 50, 0
1, 27936, Note_on_c, 1, 50, 75
1, 28000, Note_on_c, 1, 50, 0
1, 28032, Note_on_c, 0, 72, 75
1, 28032, Note_on_c, 1, 47, 75
1, 28096, Note_on_c, 0, 77, 0
1, 28096, Note_on_c, 1, 47, 0
1, 28128, Note_on_c, 1, 48, 75
1, 28192, Note_on_c, 1, 48, 0
1, 28224, Note_on_c, 0, 76, 75
1, 28224, Note_on_c, 1, 48, 75
1, 28288, Note_on_c, 0, 72, 0
1, 28288, Note_on_c, 1, 48, 0
1, 28320, Note_on_c, 1, 48, 75
1, 28352, Note_on_c, 0, 76, 0
1, 28384, Note_on_c, 1, 48, 0
1, 28416, Note_on_c, 0, 74, 50
1, 28416, Note_on_c, 1, 57, 50
1, 28416, Note_on_c, 1, 53, 50
1, 28508, Note_on_c, 0, 74, 0
1, 28512, Note_on_c, 0, 76, 50
1, 28556, Note_on_c, 0, 76, 0
1, 28560, Note_on_c, 0, 74, 50
1, 28604, Note_on_c, 0, 74, 0
1, 28608, Note_on_c, 0, 73, 50
1, 28652, Note_on_c, 0, 73, 0
1, 28656, Note_on_c, 0, 74, 50
1, 28700, Note_on_c, 0, 74, 0
1, 28704, Note_on_c, 0, 76, 50
1, 28768, Note_on_c, 0, 76, 0
1, 28800, Note_on_c, 0, 77, 50
1, 28892, Note_on_c, 0, 77, 0
1, 28896, Note_on_c, 0, 79, 50
1, 28928, Note_on_c, 1, 57, 0
1, 28928, Note_on_c, 1, 53, 0
1, 28940, Note_on_c, 0, 79, 0
1, 28944, Note_on_c, 0, 77, 50
1, 28988, Note_on_c, 0, 77, 0
1, 28992, Note_on_c, 0, 76, 50
1, 29036, Note_on_c, 0, 76, 0
1, 29040, Note_on_c, 0, 77, 50
1, 29084, Note_on_c, 0, 77, 0
1, 29088, Note_on_c, 0, 79, 50
1, 29152, Note_on_c, 0, 79, 0
1, 29184, Note_on_c, 0, 81, 50
1, 29184, Note_on_c, 1, 57, 50
1, 29184, Note_on_c, 1, 53, 50
1, 29276, Note_on_c, 0, 81, 0
1, 29280, Note_on_c, 0, 83, 50
1, 29324, Note_on_c, 0, 83, 0
1, 29328, Note_on_c, 0, 81, 50
1, 29372, Note_on_c, 0, 81, 0
1, 29376, Note_on_c, 0, 80, 50
1, 29420, Note_on_c, 0, 80, 0
1, 29424, Note_on_c, 0, 81, 50
1, 29440, Note_on_c, 1, 57, 0
1, 29440, Note_on_c, 1, 53, 0
1, 29468, Note_on_c, 0, 81, 0
1, 29472, Note_on_c, 0, 83, 50
1, 29536, Note_on_c, 0, 83, 0
1, 29568, Note_on_c, 0, 84, 75
1, 29568, Note_on_c, 1, 57, 50
1, 29568, Note_on_c, 1, 54, 50
1, 29696, Note_on_c, 1, 57, 0
1, 29696, Note_on_c, 1, 54, 0
1, 29760, Note_on_c, 0, 84, 0
1, 29856, Note_on_c, 0, 76, 50
1, 29920, Note_on_c, 0, 76, 0
1, 29952, Note_on_c, 0, 79, 50
1, 30144, Note_on_c, 1, 55, 50
1, 30160, Note_on_c, 1, 60, 50
1, 30208, Note_on_c, 0, 79, 0
1, 30272, Note_on_c, 1, 55, 0
1, 30288, Note_on_c, 1, 60, 0
1, 30336, Note_on_c, 0, 79, 50
1, 30336, Note_on_c, 1, 60, 50
1, 30336, Note_on_c, 1, 55, 50
1, 30400, Note_on_c, 0, 79, 0
1, 30400, Note_on_c, 0, 78, 50
1, 30432, Note_on_c, 0, 78, 0
1, 30464, Note_on_c, 1, 60, 0
1, 30464, Note_on_c, 1, 55, 0
1, 30480, Note_on_c, 0, 79, 50
1, 30512, Note_on_c, 0, 79, 0
1, 30528, Note_on_c, 0, 81, 50
1, 30528, Note_on_c, 1, 60, 50
1, 30528, Note_on_c, 1, 55, 50
1, 30560, Note_on_c, 0, 81, 0
1, 30576, Note_on_c, 0, 79, 50
1, 30608, Note_on_c, 0, 79, 0
1, 30624, Note_on_c, 0, 77, 50
1, 30656, Note_on_c, 0, 77, 0
1, 30656, Note_on_c, 1, 60, 0
1, 30656, Note_on_c, 1, 55, 0
1, 30672, Note_on_c, 0, 76, 50
1, 30704, Note_on_c, 0, 76, 0
1, 30720, Note_on_c, 0, 74, 50
1, 30720, Note_on_c, 1, 59, 50
1, 30720, Note_on_c, 1, 55, 50
1, 30848, Note_on_c, 0, 74, 0
1, 30848, Note_on_c, 1, 59, 0
1, 30848, Note_on_c, 1, 55, 0
1, 30912, Note_on_c, 0, 67, 50
1, 30912, Note_on_c, 0, 71, 50
1, 31040, Note_on_c, 0, 67, 0
1, 31040, Note_on_c, 0, 71, 0
1, 31104, Note_on_c, 0, 72, 50
1, 31104, Note_on_c, 0, 69, 50
1, 31232, Note_on_c, 0, 72, 0
1, 31232, Note_on_c, 0, 69, 0
1, 31296, Note_on_c, 0, 74, 75
1, 31296, Note_on_c, 0, 69, 75
1, 31296, Note_on_c, 0, 66, 75
1, 31424, Note_on_c, 0, 74, 0
1, 31424, Note_on_c, 0, 69, 0
1, 31424, Note_on_c, 0, 66, 0
1, 31488, Note_on_c, 0, 86, 75
1, 31488, Note_on_c, 0, 71, 75
1, 31488, Note_on_c, 0, 67, 75
1, 31536, Note_on_c, 0, 86, 0
1, 31552, Note_on_c, 0, 88, 75
1, 31600, Note_on_c, 0, 88, 0
1, 31616, Note_on_c, 0, 71, 0
1, 31616, Note_on_c, 0, 67, 0
1, 31616, Note_on_c, 0, 86, 75
1, 31664, Note_on_c, 0, 86, 0
1, 31680, Note_on_c, 0, 84, 75
1, 31728, Note_on_c, 0, 84, 0
1, 31744, Note_on_c, 0, 83, 75
1, 31792, Note_on_c, 0, 83, 0
1, 31808, Note_on_c, 0, 81, 75
1, 31856, Note_on_c, 0, 81, 0
1, 31872, Note_on_c, 0, 83, 75
1, 31920, Note_on_c, 0, 83, 0
1, 31936, Note_on_c, 0, 84, 75
1, 31984, Note_on_c, 0, 84, 0
1, 32000, Note_on_c, 0, 83, 75
1, 32048, Note_on_c, 0, 83, 0
1, 32064, Note_on_c, 0, 81, 75
1, 32112, Note_on_c, 0, 81, 0
1, 32128, Note_on_c, 0, 79, 75
1, 32176, Note_on_c, 0, 79, 0
1, 32192, Note_on_c, 0, 78, 75
1, 32240, Note_on_c, 0, 78, 0
1, 32256, Note_on_c, 0, 79, 75
1, 32304, Note_on_c, 0, 79, 0
1, 32320, Note_on_c, 0, 81, 75
1, 32368, Note_on_c, 0, 81, 0
1, 32384, Note_on_c, 0, 79, 75
1, 32432, Note_on_c, 0, 79, 0
1, 32448, Note_on_c, 0, 78, 75
1, 32496, Note_on_c, 0, 78, 0
1, 32512, Note_on_c, 0, 76, 75
1, 32560, Note_on_c, 0, 76, 0
1, 32576, Note_on_c, 0, 75, 75
1, 32624, Note_on_c, 0, 75, 0
1, 32640, Note_on_c, 0, 76, 75
1, 32688, Note_on_c, 0, 76, 0
1, 32704, Note_on_c, 0, 78, 75
1, 32752, Note_on_c, 0, 78, 0
1, 32768, Note_on_c, 0, 76, 75
1, 32816, Note_on_c, 0, 76, 0
1, 32832, Note_on_c, 0, 74, 75
1, 32880, Note_on_c, 0, 74, 0
1, 32896, Note_on_c, 0, 72, 75
1, 32944, Note_on_c, 0, 72, 0
1, 32960, Note_on_c, 0, 71, 75
1, 33008, Note_on_c, 0, 71, 0
1, 33024, Note_on_c, 0, 72, 75
1, 33216, Note_on_c, 0, 72, 0
1, 33216, Note_on_c, 1, 57, 75
1, 33216, Note_on_c, 1, 55, 75
1, 33216, Note_on_c, 1, 64, 75
1, 33312, Note_on_c, 0, 76, 75
1, 33344, Note_on_c, 0, 76, 0
1, 33344, Note_on_c, 1, 57, 0
1, 33344, Note_on_c, 1, 55, 0
1, 33344, Note_on_c, 1, 64, 0
1, 33360, Note_on_c, 0, 74, 75
1, 33392, Note_on_c, 0, 74, 0
1, 33408, Note_on_c, 0, 72, 75
1, 33408, Note_on_c, 1, 57, 75
1, 33408, Note_on_c, 1, 55, 75
1, 33408, Note_on_c, 1, 64, 75
1, 33536, Note_on_c, 0, 72, 0
1, 33536, Note_on_c, 1, 57, 0
1, 33536, Note_on_c, 1, 55, 0
1, 33536, Note_on_c, 1, 64, 0
1, 33600, Note_on_c, 1, 57, 75
1, 33600, Note_on_c, 1, 55, 75
1, 33600, Note_on_c, 1, 64, 75
1, 33696, Note_on_c, 0, 72, 50
1, 33728, Note_on_c, 1, 57, 0
1, 33728, Note_on_c, 1, 55, 0
1, 33728, Note_on_c, 1, 64, 0
1, 33760, Note_on_c, 0, 72, 0
1, 33792, Note_on_c, 0, 72, 50
1, 33984, Note_on_c, 0, 72, 0
1, 33984, Note_on_c, 1, 57, 50
1, 33984, Note_on_c, 1, 55, 50
1, 33984, Note_on_c, 1, 63, 50
1, 34080, Note_on_c, 0, 75, 50
1, 34112, Note_on_c, 0, 75, 0
1, 34112, Note_on_c, 1, 57, 0
1, 34112, Note_on_c, 1, 55, 0
1, 34112, Note_on_c, 1, 63, 0
1, 34128, Note_on_c, 0, 74, 50
1, 34160, Note_on_c, 0, 74, 0
1, 34176, Note_on_c, 0, 72, 50
1, 34176, Note_on_c, 1, 57, 50
1, 34176, Note_on_c, 1, 55, 50
1, 34176, Note_on_c, 1, 63, 50
1, 34304, Note_on_c, 0, 72, 0
1, 34304, Note_on_c, 1, 57, 0
1, 34304, Note_on_c, 1, 55, 0
1, 34304, Note_on_c, 1, 63, 0
1, 34368, Note_on_c, 1, 57, 50
1, 34368, Note_on_c, 1, 55, 50
1, 34368, Note_on_c, 1, 63, 50
1, 34464, Note_on_c, 0, 72, 75
1, 34496, Note_on_c, 1, 57, 0
1, 34496, Note_on_c, 1, 55, 0
1, 34496, Note_on_c, 1, 63, 0
1, 34528, Note_on_c, 0, 72, 0
1, 34560, Note_on_c, 0, 84, 75
1, 34560, Note_on_c, 1, 62, 75
1, 34560, Note_on_c, 1, 57, 75
1, 34560, Note_on_c, 1, 54, 75
1, 34608, Note_on_c, 0, 84, 0
1, 34624, Note_on_c, 0, 86, 75
1, 34672, Note_on_c, 0, 86, 0
1, 34688, Note_on_c, 0, 84, 75
1, 34688, Note_on_c, 1, 62, 0
1, 34688, Note_on_c, 1, 57, 0
1, 34688, Note_on_c, 1, 54, 0
1, 34736, Note_on_c, 0, 84, 0
1, 34752, Note_on_c, 0, 83, 75
1, 34800, Note_on_c, 0, 83, 0
1, 34816, Note_on_c, 0, 81, 75
1, 34864, Note_on_c, 0, 81, 0
1, 34880, Note_on_c, 0, 80, 75
1, 34928, Note_on_c, 0, 80, 0
1, 34944, Note_on_c, 0, 81, 75
1, 34992, Note_on_c, 0, 81, 0
1, 35008, Note_on_c, 0, 83, 75
1, 35056, Note_on_c, 0, 83, 0
1, 35072, Note_on_c, 0, 81, 75
1, 35120, Note_on_c, 0, 81, 0
1, 35136, Note_on_c, 0, 79, 75
1, 35184, Note_on_c, 0, 79, 0
1, 35200, Note_on_c, 0, 78, 75
1, 35248, Note_on_c, 0, 78, 0
1, 35264, Note_on_c, 0, 77, 75
1, 35312, Note_on_c, 0, 77, 0
1, 35328, Note_on_c, 0, 78, 75
1, 35376, Note_on_c, 0, 78, 0
1, 35392, Note_on_c, 0, 79, 75
1, 35440, Note_on_c, 0, 79, 0
1, 35456, Note_on_c, 0, 78, 75
1, 35504, Note_on_c, 0, 78, 0
1, 35520, Note_on_c, 0, 76, 75
1, 35568, Note_on_c, 0, 76, 0
1, 35584, Note_on_c, 0, 74, 75
1, 35632, Note_on_c, 0, 74, 0
1, 35648, Note_on_c, 0, 73, 75
1, 35696, Note_on_c, 0, 73, 0
1, 35712, Note_on_c, 0, 74, 75
1, 35760, Note_on_c, 0, 74, 0
1, 35776, Note_on_c, 0, 76, 75
1, 35824, Note_on_c, 0, 76, 0
1, 35840, Note_on_c, 0, 74, 75
1, 35888, Note_on_c, 0, 74, 0
1, 35904, Note_on_c, 0, 72, 75
1, 35952, Note_on_c, 0, 72, 0
1, 35968, Note_on_c, 0, 71, 75
1, 36016, Note_on_c, 0, 71, 0
1, 36032, Note_on_c, 0, 69, 75
1, 36080, Note_on_c, 0, 69, 0
1, 36096, Note_on_c, 0, 71, 75
1, 36288, Note_on_c, 0, 71, 0
1, 36288, Note_on_c, 1, 55, 75
1, 36288, Note_on_c, 1, 62, 75
1, 36384, Note_on_c, 0, 74, 75
1, 36416, Note_on_c, 0, 74, 0
1, 36416, Note_on_c, 1, 55, 0
1, 36416, Note_on_c, 1, 62, 0
1, 36432, Note_on_c, 0, 72, 75
1, 36464, Note_on_c, 0, 72, 0
1, 36480, Note_on_c, 0, 71, 75
1, 36480, Note_on_c, 1, 55, 75
1, 36480, Note_on_c, 1, 62, 75
1, 36608, Note_on_c, 0, 71, 0
1, 36608, Note_on_c, 1, 55, 0
1, 36608, Note_on_c, 1, 62, 0
1, 36672, Note_on_c, 1, 55, 75
1, 36672, Note_on_c, 1, 62, 75
1, 36768, Note_on_c, 0, 71, 50
1, 36800, Note_on_c, 1, 55, 0
1, 36800, Note_on_c, 1, 62, 0
1, 36832, Note_on_c, 0, 71, 0
1, 36864, Note_on_c, 0, 71, 50
1, 37056, Note_on_c, 0, 71, 0
1, 37056, Note_on_c, 1, 55, 50
1, 37056, Note_on_c, 1, 62, 50
1, 37152, Note_on_c, 0, 74, 50
1, 37184, Note_on_c, 0, 74, 0
1, 37184, Note_on_c, 1, 55, 0
1, 37184, Note_on_c, 1, 62, 0
1, 37200, Note_on_c, 0, 72, 50
1, 37232, Note_on_c, 0, 72, 0
1, 37248, Note_on_c, 0, 71, 50
1, 37248, Note_on_c, 1, 55, 50
1, 37248, Note_on_c, 1, 62, 50
1, 37376, Note_on_c, 0, 71, 0
1, 37376, Note_on_c, 1, 55, 0
1, 37376, Note_on_c, 1, 62, 0
1, 37440, Note_on_c, 1, 55, 50
1, 37440, Note_on_c, 1, 62, 50
1, 37536, Note_on_c, 0, 74, 75
1, 37568, Note_on_c, 1, 55, 0
1, 37568, Note_on_c, 1, 62, 0
1, 37600, Note_on_c, 0, 74, 0
1, 37632, Note_on_c, 0, 83, 75
1, 37632, Note_on_c, 1, 55, 75
1, 37632, Note_on_c, 1, 47, 75
1, 37680, Note_on_c, 0, 83, 0
1, 37696, Note_on_c, 0, 86, 75
1, 37744, Note_on_c, 0, 86, 0
1, 37760, Note_on_c, 0, 84, 75
1, 37808, Note_on_c, 0, 84, 0
1, 37824, Note_on_c, 0, 83, 75
1, 37872, Note_on_c, 0, 83, 0
1, 37888, Note_on_c, 0, 81, 75
1, 37888, Note_on_c, 1, 55, 0
1, 37888, Note_on_c, 1, 47, 0
1, 37936, Note_on_c, 0, 81, 0
1, 37952, Note_on_c, 0, 79, 75
1, 38000, Note_on_c, 0, 79, 0
1, 38016, Note_on_c, 0, 78, 75
1, 38064, Note_on_c, 0, 78, 0
1, 38080, Note_on_c, 0, 81, 75
1, 38128, Note_on_c, 0, 81, 0
1, 38144, Note_on_c, 0, 79, 75
1, 38192, Note_on_c, 0, 79, 0
1, 38208, Note_on_c, 0, 83, 75
1, 38256, Note_on_c, 0, 83, 0
1, 38272, Note_on_c, 0, 75, 75
1, 38320, Note_on_c, 0, 75, 0
1, 38336, Note_on_c, 0, 78, 75
1, 38384, Note_on_c, 0, 78, 0
1, 38400, Note_on_c, 0, 76, 75
1, 38400, Note_on_c, 1, 55, 75
1, 38400, Note_on_c, 1, 48, 75
1, 38448, Note_on_c, 0, 76, 0
1, 38464, Note_on_c, 0, 79, 75
1, 38512, Note_on_c, 0, 79, 0
1, 38528, Note_on_c, 0, 78, 75
1, 38576, Note_on_c, 0, 78, 0
1, 38592, Note_on_c, 0, 76, 75
1, 38640, Note_on_c, 0, 76, 0
1, 38656, Note_on_c, 0, 74, 75
1, 38656, Note_on_c, 1, 55, 0
1, 38656, Note_on_c, 1, 48, 0
1, 38704, Note_on_c, 0, 74, 0
1, 38720, Note_on_c, 0, 72, 75
1, 38768, Note_on_c, 0, 72, 0
1, 38784, Note_on_c, 0, 71, 75
1, 38832, Note_on_c, 0, 71, 0
1, 38848, Note_on_c, 0, 74, 75
1, 38896, Note_on_c, 0, 74, 0
1, 38912, Note_on_c, 0, 72, 75
1, 38960, Note_on_c, 0, 72, 0
1, 38976, Note_on_c, 0, 76, 75
1, 39024, Note_on_c, 0, 76, 0
1, 39040, Note_on_c, 0, 68, 75
1, 39088, Note_on_c, 0, 68, 0
1, 39104, Note_on_c, 0, 71, 75
1, 39152, Note_on_c, 0, 71, 0
1, 39168, Note_on_c, 0, 69, 75
1, 39168, Note_on_c, 1, 57, 75
1, 39216, Note_on_c, 0, 69, 0
1, 39216, Note_on_c, 1, 57, 0
1, 39232, Note_on_c, 0, 72, 75
1, 39232, Note_on_c, 1, 60, 75
1, 39280, Note_on_c, 0, 72, 0
1, 39280, Note_on_c, 1, 60, 0
1, 39296, Note_on_c, 0, 71, 75
1, 39296, Note_on_c, 1, 59, 75
1, 39344, Note_on_c, 0, 71, 0
1, 39344, Note_on_c, 1, 59, 0
1, 39360, Note_on_c, 0, 69, 75
1, 39360, Note_on_c, 1, 57, 75
1, 39408, Note_on_c, 0, 69, 0
1, 39408, Note_on_c, 1, 57, 0
1, 39424, Note_on_c, 0, 67, 75
1, 39424, Note_on_c, 1, 55, 75
1, 39472, Note_on_c, 0, 67, 0
1, 39472, Note_on_c, 1, 55, 0
1, 39488, Note_on_c, 0, 66, 75
1, 39488, Note_on_c, 1, 54, 75
1, 39536, Note_on_c, 0, 66, 0
1, 39536, Note_on_c, 1, 54, 0
1, 39552, Note_on_c, 0, 64, 75
1, 39552, Note_on_c, 1, 52, 75
1, 39600, Note_on_c, 0, 64, 0
1, 39600, Note_on_c, 1, 52, 0
1, 39616, Note_on_c, 0, 67, 75
1, 39616, Note_on_c, 1, 55, 75
1, 39664, Note_on_c, 0, 67, 0
1, 39664, Note_on_c, 1, 55, 0
1, 39680, Note_on_c, 0, 66, 75
1, 39680, Note_on_c, 1, 54, 75
1, 39728, Note_on_c, 0, 66, 0
1, 39728, Note_on_c, 1, 54, 0
1, 39744, Note_on_c, 0, 69, 75
1, 39744, Note_on_c, 1, 57, 75
1, 39792, Note_on_c, 0, 69, 0
1, 39792, Note_on_c, 1, 57, 0
1, 39808, Note_on_c, 0, 61, 75
1, 39808, Note_on_c, 1, 49, 75
1, 39856, Note_on_c, 0, 61, 0
1, 39856, Note_on_c, 1, 49, 0
1, 39872, Note_on_c, 0, 64, 75
1, 39872, Note_on_c, 1, 52, 75
1, 39920, Note_on_c, 0, 64, 0
1, 39936, Note_on_c, 0, 62, 75
1, 39936, Note_on_c, 1, 50, 75
1, 39940, Note_on_c, 1, 52, 0
1, 39984, Note_on_c, 0, 62, 0
1, 39984, Note_on_c, 1, 50, 0
1, 40000, Note_on_c, 0, 64, 75
1, 40000, Note_on_c, 1, 52, 75
1, 40048, Note_on_c, 0, 64, 0
1, 40048, Note_on_c, 1, 52, 0
1, 40064, Note_on_c, 0, 61, 75
1, 40064, Note_on_c, 1, 49, 75
1, 40112, Note_on_c, 0, 61, 0
1, 40112, Note_on_c, 1, 49, 0
1, 40128, Note_on_c, 0, 62, 75
1, 40128, Note_on_c, 1, 50, 75
1, 40176, Note_on_c, 0, 62, 0
1, 40176, Note_on_c, 1, 50, 0
1, 40192, Note_on_c, 0, 64, 75
1, 40192, Note_on_c, 1, 52, 75
1, 40240, Note_on_c, 0, 64, 0
1, 40240, Note_on_c, 1, 52, 0
1, 40256, Note_on_c, 0, 61, 75
1, 40256, Note_on_c, 1, 49, 75
1, 40304, Note_on_c, 0, 61, 0
1, 40304, Note_on_c, 1, 49, 0
1, 40320, Note_on_c, 0, 62, 75
1, 40320, Note_on_c, 1, 50, 75
1, 40368, Note_on_c, 0, 62, 0
1, 40368, Note_on_c, 1, 50, 0
1, 40384, Note_on_c, 0, 64, 75
1, 40384, Note_on_c, 1, 52, 75
1, 40432, Note_on_c, 0, 64, 0
1, 40432, Note_on_c, 1, 52, 0
1, 40448, Note_on_c, 0, 61, 75
1, 40448, Note_on_c, 1, 49, 75
1, 40496, Note_on_c, 0, 61, 0
1, 40496, Note_on_c, 1, 49, 0
1, 40512, Note_on_c, 0, 62, 75
1, 40512, Note_on_c, 1, 50, 75
1, 40560, Note_on_c, 0, 62, 0
1, 40560, Note_on_c, 1, 50, 0
1, 40576, Note_on_c, 0, 64, 75
1, 40576, Note_on_c, 1, 52, 75
1, 40624, Note_on_c, 0, 64, 0
1, 40624, Note_on_c, 1, 52, 0
1, 40640, Note_on_c, 0, 61, 75
1, 40640, Note_on_c, 1, 49, 75
1, 40688, Note_on_c, 0, 61, 0
1, 40688, Note_on_c, 1, 49, 0
1, 40704, Note_on_c, 0, 62, 75
1, 40704, Note_on_c, 1, 50, 75
1, 40832, Note_on_c, 0, 62, 0
1, 40832, Note_on_c, 1, 50, 0
1, 40896, Note_on_c, 0, 72, 50
1, 41024, Note_on_c, 0, 72, 0
1, 41088, Note_on_c, 0, 72, 50
1, 41216, Note_on_c, 0, 72, 0
1, 41280, Note_on_c, 0, 72, 50
1, 41408, Note_on_c, 0, 72, 0
1, 41472, Note_on_c, 0, 72, 50
1, 41472, Note_on_c, 0, 66, 50
1, 41472, Note_on_c, 0, 62, 50
1, 41536, Note_on_c, 0, 66, 0
1, 41568, Note_on_c, 0, 69, 50
1, 41600, Note_on_c, 0, 72, 0
1, 41600, Note_on_c, 0, 62, 0
1, 41632, Note_on_c, 0, 69, 0
1, 41664, Note_on_c, 0, 84, 50
1, 41664, Note_on_c, 0, 66, 50
1, 41664, Note_on_c, 0, 63, 50
1, 41728, Note_on_c, 0, 66, 0
1, 41760, Note_on_c, 0, 69, 50
1, 41792, Note_on_c, 0, 84, 0
1, 41792, Note_on_c, 0, 63, 0
1, 41824, Note_on_c, 0, 69, 0
1, 41856, Note_on_c, 0, 84, 50
1, 41856, Note_on_c, 0, 66, 50
1, 41856, Note_on_c, 0, 62, 50
1, 41920, Note_on_c, 0, 66, 0
1, 41952, Note_on_c, 0, 69, 50
1, 41984, Note_on_c, 0, 84, 0
1, 41984, Note_on_c, 0, 62, 0
1, 42016, Note_on_c, 0, 69, 0
1, 42048, Note_on_c, 0, 84, 50
1, 42048, Note_on_c, 0, 66, 50
1, 42048, Note_on_c, 0, 63, 50
1, 42112, Note_on_c, 0, 66, 0
1, 42144, Note_on_c, 0, 69, 50
1, 42176, Note_on_c, 0, 84, 0
1, 42176, Note_on_c, 0, 63, 0
1, 42208, Note_on_c, 0, 69, 0
1, 42240, Note_on_c, 0, 84, 50
1, 42240, Note_on_c, 0, 62, 50
1, 42240, Note_on_c, 0, 66, 50
1, 42304, Note_on_c, 0, 66, 0
1, 42336, Note_on_c, 0, 69, 50
1, 42368, Note_on_c, 0, 62, 0
1, 42400, Note_on_c, 0, 69, 0
1, 42432, Note_on_c, 0, 84, 0
1, 42432, Note_on_c, 0, 66, 50
1, 42432, Note_on_c, 0, 63, 50
1, 42496, Note_on_c, 0, 66, 0
1, 42528, Note_on_c, 0, 81, 50
1, 42528, Note_on_c, 0, 69, 50
1, 42560, Note_on_c, 0, 63, 0
1, 42592, Note_on_c, 0, 81, 0
1, 42592, Note_on_c, 0, 69, 0
1, 42624, Note_on_c, 0, 78, 50
1, 42624, Note_on_c, 0, 62, 50
1, 42624, Note_on_c, 0, 66, 50
1, 42688, Note_on_c, 0, 66, 0
1, 42720, Note_on_c, 0, 69, 50
1, 42752, Note_on_c, 0, 78, 0
1, 42752, Note_on_c, 0, 62, 0
1, 42784, Note_on_c, 0, 69, 0
1, 42816, Note_on_c, 0, 66, 50
1, 42816, Note_on_c, 0, 63, 50
1, 42880, Note_on_c, 0, 66, 0
1, 42912, Note_on_c, 0, 69, 50
1, 42944, Note_on_c, 0, 63, 0
1, 42976, Note_on_c, 0, 69, 0
1, 43008, Note_on_c, 0, 66, 50
1, 43008, Note_on_c, 0, 62, 50
1, 43072, Note_on_c, 0, 66, 0
1, 43104, Note_on_c, 0, 72, 50
1, 43104, Note_on_c, 0, 69, 50
1, 43136, Note_on_c, 0, 62, 0
1, 43168, Note_on_c, 0, 72, 0
1, 43168, Note_on_c, 0, 69, 0
1, 43200, Note_on_c, 0, 84, 50
1, 43200, Note_on_c, 0, 66, 50
1, 43200, Note_on_c, 0, 63, 50
1, 43264, Note_on_c, 0, 84, 0
1, 43296, Note_on_c, 0, 84, 50
1, 43296, Note_on_c, 0, 69, 50
1, 43328, Note_on_c, 0, 66, 0
1, 43328, Note_on_c, 0, 63, 0
1, 43360, Note_on_c, 0, 84, 0
1, 43360, Note_on_c, 0, 69, 0
1, 43392, Note_on_c, 0, 84, 52
1, 43392, Note_on_c, 0, 62, 55
1, 43392, Note_on_c, 0, 66, 55
1, 43456, Note_on_c, 0, 84, 0
1, 43456, Note_on_c, 0, 66, 0
1, 43488, Note_on_c, 0, 84, 57
1, 43488, Note_on_c, 0, 69, 57
1, 43520, Note_on_c, 0, 62, 0
1, 43552, Note_on_c, 0, 84, 0
1, 43552, Note_on_c, 0, 69, 0
1, 43584, Note_on_c, 0, 84, 60
1, 43584, Note_on_c, 0, 66, 60
1, 43584, Note_on_c, 0, 63, 60
1, 43648, Note_on_c, 0, 84, 0
1, 43648, Note_on_c, 0, 66, 0
1, 43680, Note_on_c, 0, 84, 62
1, 43680, Note_on_c, 0, 69, 62
1, 43712, Note_on_c, 0, 63, 0
1, 43744, Note_on_c, 0, 84, 0
1, 43744, Note_on_c, 0, 69, 0
1, 43776, Note_on_c, 0, 84, 65
1, 43776, Note_on_c, 0, 66, 65
1, 43776, Note_on_c, 0, 62, 65
1, 43840, Note_on_c, 0, 66, 0
1, 43872, Note_on_c, 0, 69, 66
1, 43904, Note_on_c, 0, 62, 0
1, 43936, Note_on_c, 0, 69, 0
1, 43968, Note_on_c, 0, 84, 0
1, 43968, Note_on_c, 0, 66, 67
1, 43968, Note_on_c, 0, 63, 67
1, 44032, Note_on_c, 0, 66, 0
1, 44064, Note_on_c, 0, 81, 68
1, 44064, Note_on_c, 0, 69, 68
1, 44096, Note_on_c, 0, 63, 0
1, 44128, Note_on_c, 0, 81, 0
1, 44128, Note_on_c, 0, 69, 0
1, 44160, Note_on_c, 0, 78, 70
1, 44160, Note_on_c, 0, 66, 70
1, 44160, Note_on_c, 0, 62, 70
1, 44224, Note_on_c, 0, 66, 0
1, 44256, Note_on_c, 0, 69, 71
1, 44288, Note_on_c, 0, 78, 0
1, 44288, Note_on_c, 0, 62, 0
1, 44320, Note_on_c, 0, 69, 0
1, 44352, Note_on_c, 0, 66, 72
1, 44352, Note_on_c, 0, 63, 72
1, 44416, Note_on_c, 0, 66, 0
1, 44448, Note_on_c, 0, 69, 73
1, 44480, Note_on_c, 0, 63, 0
1, 44512, Note_on_c, 0, 69, 0
1, 44544, Note_on_c, 0, 84, 75
1, 44544, Note_on_c, 0, 66, 75
1, 44544, Note_on_c, 0, 62, 75
1, 44608, Note_on_c, 0, 66, 0
1, 44640, Note_on_c, 0, 69, 75
1, 44672, Note_on_c, 0, 84, 0
1, 44672, Note_on_c, 0, 62, 0
1, 44704, Note_on_c, 0, 69, 0
1, 44736, Note_on_c, 0, 84, 75
1, 44736, Note_on_c, 0, 66, 75
1, 44736, Note_on_c, 0, 63, 75
1, 44768, Note_on_c, 0, 84, 0
1, 44784, Note_on_c, 0, 81, 75
1, 44800, Note_on_c, 0, 66, 0
1, 44816, Note_on_c, 0, 81, 0
1, 44832, Note_on_c, 0, 84, 75
1, 44832, Note_on_c, 0, 69, 75
1, 44864, Note_on_c, 0, 63, 0
1, 44864, Note_on_c, 0, 84, 0
1, 44880, Note_on_c, 0, 81, 75
1, 44896, Note_on_c, 0, 69, 0
1, 44912, Note_on_c, 0, 81, 0
1, 44928, Note_on_c, 0, 78, 75
1, 44928, Note_on_c, 0, 66, 75
1, 44928, Note_on_c, 0, 62, 75
1, 44992, Note_on_c, 0, 66, 0
1, 45024, Note_on_c, 0, 69, 75
1, 45056, Note_on_c, 0, 78, 0
1, 45056, Note_on_c, 0, 62, 0
1, 45088, Note_on_c, 0, 69, 0
1, 45120, Note_on_c, 0, 66, 75
1, 45120, Note_on_c, 0, 60, 75
1, 45184, Note_on_c, 0, 66, 0
1, 45216, Note_on_c, 0, 69, 75
1, 45248, Note_on_c, 0, 60, 0
1, 45280, Note_on_c, 0, 69, 0
1, 45312, Note_on_c, 0, 74, 82
1, 45312, Note_on_c, 0, 67, 82
1, 45312, Note_on_c, 0, 59, 82
1, 45344, Note_on_c, 0, 74, 0
1, 45360, Note_on_c, 0, 86, 82
1, 45392, Note_on_c, 0, 86, 0
1, 45408, Note_on_c, 0, 74, 82
1, 45440, Note_on_c, 0, 67, 0
1, 45440, Note_on_c, 0, 59, 0
1, 45440, Note_on_c, 0, 74, 0
1, 45456, Note_on_c, 0, 86, 82
1, 45488, Note_on_c, 0, 86, 0
1, 45504, Note_on_c, 0, 74, 82
1, 45536, Note_on_c, 0, 74, 0
1, 45552, Note_on_c, 0, 86, 82
1, 45584, Note_on_c, 0, 86, 0
1, 45600, Note_on_c, 0, 74, 82
1, 45632, Note_on_c, 0, 74, 0
1, 45648, Note_on_c, 0, 86, 82
1, 45680, Note_on_c, 0, 86, 0
1, 45696, Note_on_c, 0, 74, 82
1, 45696, Note_on_c, 0, 67, 82
1, 45696, Note_on_c, 0, 71, 82
1, 45728, Note_on_c, 0, 74, 0
1, 45744, Note_on_c, 0, 86, 82
1, 45776, Note_on_c, 0, 86, 0
1, 45792, Note_on_c, 0, 74, 82
1, 45824, Note_on_c, 0, 67, 0
1, 45824, Note_on_c, 0, 71, 0
1, 45824, Note_on_c, 0, 74, 0
1, 45840, Note_on_c, 0, 86, 82
1, 45872, Note_on_c, 0, 86, 0
1, 45888, Note_on_c, 0, 74, 82
1, 45888, Note_on_c, 0, 66, 82
1, 45888, Note_on_c, 0, 72, 82
1, 45920, Note_on_c, 0, 74, 0
1, 45936, Note_on_c, 0, 86, 82
1, 45968, Note_on_c, 0, 86, 0
1, 45984, Note_on_c, 0, 74, 82
1, 46016, Note_on_c, 0, 66, 0
1, 46016, Note_on_c, 0, 72, 0
1, 46016, Note_on_c, 0, 74, 0
1, 46032, Note_on_c, 0, 86, 82
1, 46064, Note_on_c, 0, 86, 0
1, 46080, Note_on_c, 0, 74, 82
1, 46080, Note_on_c, 0, 71, 82
1, 46080, Note_on_c, 0, 67, 82
1, 46112, Note_on_c, 0, 74, 0
1, 46128, Note_on_c, 0, 86, 82
1, 46160, Note_on_c, 0, 86, 0
1, 46176, Note_on_c, 0, 74, 82
1, 46208, Note_on_c, 0, 71, 0
1, 46208, Note_on_c, 0, 67, 0
1, 46208, Note_on_c, 0, 74, 0
1, 46224, Note_on_c, 0, 86, 82
1, 46256, Note_on_c, 0, 86, 0
1, 46272, Note_on_c, 0, 74, 82
1, 46304, Note_on_c, 0, 74, 0
1, 46320, Note_on_c, 0, 86, 82
1, 46352, Note_on_c, 0, 86, 0
1, 46368, Note_on_c, 0, 74, 82
1, 46400, Note_on_c, 0, 74, 0
1, 46416, Note_on_c, 0, 86, 82
1, 46448, Note_on_c, 0, 86, 0
1, 46464, Note_on_c, 0, 74, 82
1, 46464, Note_on_c, 1, 59, 87
1, 46464, Note_on_c, 1, 55, 87
1, 46496, Note_on_c, 0, 74, 0
1, 46512, Note_on_c, 0, 86, 82
1, 46544, Note_on_c, 0, 86, 0
1, 46560, Note_on_c, 0, 74, 82
1, 46592, Note_on_c, 0, 74, 0
1, 46592, Note_on_c, 1, 59, 0
1, 46592, Note_on_c, 1, 55, 0
1, 46608, Note_on_c, 0, 86, 82
1, 46640, Note_on_c, 0, 86, 0
1, 46656, Note_on_c, 0, 74, 82
1, 46656, Note_on_c, 1, 54, 87
1, 46672, Note_on_c, 1, 60, 87
1, 46688, Note_on_c, 0, 74, 0
1, 46704, Note_on_c, 0, 86, 82
1, 46736, Note_on_c, 0, 86, 0
1, 46752, Note_on_c, 0, 74, 82
1, 46784, Note_on_c, 0, 74, 0
1, 46784, Note_on_c, 1, 54, 0
1, 46800, Note_on_c, 0, 86, 82
1, 46800, Note_on_c, 1, 60, 0
1, 46832, Note_on_c, 0, 86, 0
1, 46848, Note_on_c, 0, 74, 82
1, 46848, Note_on_c, 1, 59, 87
1, 46848, Note_on_c, 1, 55, 87
1, 46880, Note_on_c, 0, 74, 0
1, 46896, Note_on_c, 0, 86, 82
1, 46928, Note_on_c, 0, 86, 0
1, 46944, Note_on_c, 0, 74, 82
1, 46976, Note_on_c, 0, 74, 0
1, 46976, Note_on_c, 1, 59, 0
1, 46976, Note_on_c, 1, 55, 0
1, 46992, Note_on_c, 0, 86, 82
1, 47024, Note_on_c, 0, 86, 0
1, 47040, Note_on_c, 0, 74, 82
1, 47072, Note_on_c, 0, 74, 0
1, 47088, Note_on_c, 0, 86, 82
1, 47120, Note_on_c, 0, 86, 0
1, 47136, Note_on_c, 0, 74, 82
1, 47168, Note_on_c, 0, 74, 0
1, 47184, Note_on_c, 0, 86, 82
1, 47216, Note_on_c, 0, 86, 0
1, 47232, Note_on_c, 0, 74, 82
1, 47232, Note_on_c, 0, 67, 82
1, 47232, Note_on_c, 0, 71, 82
1, 47264, Note_on_c, 0, 74, 0
1, 47280, Note_on_c, 0, 86, 82
1, 47296, Note_on_c, 0, 67, 0
1, 47296, Note_on_c, 0, 71, 0
1, 47312, Note_on_c, 0, 86, 0
1, 47328, Note_on_c, 0, 74, 82
1, 47328, Note_on_c, 0, 71, 82
1, 47328, Note_on_c, 0, 67, 82
1, 47360, Note_on_c, 0, 74, 0
1, 47376, Note_on_c, 0, 86, 82
1, 47392, Note_on_c, 0, 71, 0
1, 47392, Note_on_c, 0, 67, 0
1, 47408, Note_on_c, 0, 86, 0
1, 47424, Note_on_c, 0, 74, 82
1, 47424, Note_on_c, 0, 66, 82
1, 47424, Note_on_c, 0, 72, 82
1, 47456, Note_on_c, 0, 74, 0
1, 47472, Note_on_c, 0, 86, 82
1, 47488, Note_on_c, 0, 66, 0
1, 47488, Note_on_c, 0, 72, 0
1, 47504, Note_on_c, 0, 86, 0
1, 47520, Note_on_c, 0, 74, 82
1, 47520, Note_on_c, 0, 66, 82
1, 47520, Note_on_c, 0, 72, 82
1, 47552, Note_on_c, 0, 74, 0
1, 47568, Note_on_c, 0, 86, 82
1, 47584, Note_on_c, 0, 66, 0
1, 47584, Note_on_c, 0, 72, 0
1, 47600, Note_on_c, 0, 86, 0
1, 47616, Note_on_c, 0, 74, 82
1, 47616, Note_on_c, 0, 71, 82
1, 47616, Note_on_c, 0, 67, 82
1, 47648, Note_on_c, 0, 74, 0
1, 47664, Note_on_c, 0, 86, 82
1, 47696, Note_on_c, 0, 86, 0
1, 47712, Note_on_c, 0, 74, 82
1, 47744, Note_on_c, 0, 71, 0
1, 47744, Note_on_c, 0, 67, 0
1, 47744, Note_on_c, 0, 74, 0
1, 47760, Note_on_c, 0, 86, 82
1, 47792, Note_on_c, 0, 86, 0
1, 47808, Note_on_c, 0, 74, 82
1, 47840, Note_on_c, 0, 74, 0
1, 47856, Note_on_c, 0, 86, 82
1, 47888, Note_on_c, 0, 86, 0
1, 47920, Note_on_c, 0, 74, 82
1, 47952, Note_on_c, 0, 74, 0
1, 47952, Note_on_c, 0, 86, 82
1, 47984, Note_on_c, 0, 86, 0
1, 48000, Note_on_c, 0, 74, 82
1, 48000, Note_on_c, 1, 59, 87
1, 48000, Note_on_c, 1, 55, 87
1, 48032, Note_on_c, 0, 74, 0
1, 48048, Note_on_c, 0, 86, 82
1, 48064, Note_on_c, 1, 59, 0
1, 48064, Note_on_c, 1, 55, 0
1, 48080, Note_on_c, 0, 86, 0
1, 48096, Note_on_c, 0, 74, 82
1, 48096, Note_on_c, 1, 59, 87
1, 48096, Note_on_c, 1, 55, 87
1, 48128, Note_on_c, 0, 74, 0
1, 48144, Note_on_c, 0, 86, 82
1, 48160, Note_on_c, 1, 59, 0
1, 48160, Note_on_c, 1, 55, 0
1, 48176, Note_on_c, 0, 86, 0
1, 48192, Note_on_c, 0, 74, 82
1, 48192, Note_on_c, 1, 60, 87
1, 48192, Note_on_c, 1, 54, 87
1, 48224, Note_on_c, 0, 74, 0
1, 48240, Note_on_c, 0, 86, 82
1, 48256, Note_on_c, 1, 60, 0
1, 48256, Note_on_c, 1, 54, 0
1, 48272, Note_on_c, 0, 86, 0
1, 48288, Note_on_c, 0, 74, 82
1, 48288, Note_on_c, 1, 60, 87
1, 48288, Note_on_c, 1, 54, 87
1, 48320, Note_on_c, 0, 74, 0
1, 48336, Note_on_c, 0, 86, 82
1, 48352, Note_on_c, 1, 60, 0
1, 48352, Note_on_c, 1, 54, 0
1, 48368, Note_on_c, 0, 86, 0
1, 48384, Note_on_c, 0, 74, 82
1, 48384, Note_on_c, 0, 86, 82
1, 48384, Note_on_c, 1, 59, 87
1, 48384, Note_on_c, 1, 55, 87
1, 48448, Note_on_c, 0, 74, 0
1, 48448, Note_on_c, 0, 86, 0
1, 48480, Note_on_c, 0, 84, 82
1, 48512, Note_on_c, 1, 59, 0
1, 48512, Note_on_c, 1, 55, 0
1, 48544, Note_on_c, 0, 84, 0
1, 48576, Note_on_c, 0, 83, 82
1, 48640, Note_on_c, 0, 83, 0
1, 48672, Note_on_c, 0, 81, 82
1, 48736, Note_on_c, 0, 81, 0
1, 48768, Note_on_c, 0, 79, 82
1, 48832, Note_on_c, 0, 79, 0
1, 48864, Note_on_c, 0, 78, 82
1, 48928, Note_on_c, 0, 78, 0
1, 48960, Note_on_c, 0, 76, 82
1, 49024, Note_on_c, 0, 76, 0
1, 49056, Note_on_c, 0, 74, 82
1, 49120, Note_on_c, 0, 74, 0
1, 49152, Note_on_c, 0, 76, 82
1, 49152, Note_on_c, 1, 57, 87
1, 49152, Note_on_c, 1, 52, 87
1, 49152, Note_on_c, 1, 48, 87
1, 49216, Note_on_c, 0, 76, 0
1, 49248, Note_on_c, 0, 74, 82
1, 49280, Note_on_c, 1, 57, 0
1, 49280, Note_on_c, 1, 52, 0
1, 49280, Note_on_c, 1, 48, 0
1, 49312, Note_on_c, 0, 74, 0
1, 49344, Note_on_c, 0, 72, 82
1, 49408, Note_on_c, 0, 72, 0
1, 49440, Note_on_c, 0, 71, 82
1, 49504, Note_on_c, 0, 71, 0
1, 49536, Note_on_c, 0, 69, 82
1, 49600, Note_on_c, 0, 69, 0
1, 49632, Note_on_c, 0, 67, 82
1, 49696, Note_on_c, 0, 67, 0
1, 49744, Note_on_c, 0, 66, 82
1, 49808, Note_on_c, 0, 66, 0
1, 49824, Note_on_c, 0, 64, 82
1, 49888, Note_on_c, 0, 64, 0
1, 49920, Note_on_c, 0, 62, 82
1, 49920, Note_on_c, 1, 50, 87
1, 49920, Note_on_c, 1, 38, 87
1, 50048, Note_on_c, 0, 62, 0
1, 50048, Note_on_c, 1, 50, 0
1, 50048, Note_on_c, 1, 38, 0
1, 50304, Note_on_c, 0, 66, 82
1, 50304, Note_on_c, 0, 60, 82
1, 50304, Note_on_c, 0, 57, 82
1, 50304, Note_on_c, 1, 51, 87
1, 50304, Note_on_c, 1, 39, 87
1, 50432, Note_on_c, 0, 66, 0
1, 50432, Note_on_c, 0, 60, 0
1, 50432, Note_on_c, 0, 57, 0
1, 50432, Note_on_c, 1, 51, 0
1, 50432, Note_on_c, 1, 39, 0
1, 50688, Note_on_c, 0, 67, 82
1, 50688, Note_on_c, 0, 59, 82
1, 50688, Note_on_c, 0, 55, 82
1, 50688, Note_on_c, 1, 52, 87
1, 50688, Note_on_c, 1, 40, 87
1, 50816, Note_on_c, 0, 67, 0
1, 50816, Note_on_c, 0, 59, 0
1, 50816, Note_on_c, 0, 55, 0
1, 50816, Note_on_c, 1, 52, 0
1, 50816, Note_on_c, 1, 40, 0
1, 51456, Note_on_c, 0, 81, 50
1, 51552, Note_on_c, 0, 79, 50
1, 51584, Note_on_c, 0, 81, 0
1, 51648, Note_on_c, 0, 69, 50
1, 51648, Note_on_c, 0, 64, 50
1, 51648, Note_on_c, 0, 61, 50
1, 51744, Note_on_c, 0, 79, 0
1, 51776, Note_on_c, 0, 69, 0
1, 51776, Note_on_c, 0, 64, 0
1, 51776, Note_on_c, 0, 61, 0
1, 51840, Note_on_c, 0, 79, 50
1, 51840, Note_on_c, 0, 69, 50
1, 51840, Note_on_c, 0, 64, 50
1, 51840, Note_on_c, 0, 61, 50
1, 51904, Note_on_c, 0, 79, 0
1, 51936, Note_on_c, 0, 78, 50
1, 51968, Note_on_c, 0, 69, 0
1, 51968, Note_on_c, 0, 64, 0
1, 51968, Note_on_c, 0, 61, 0
1, 52000, Note_on_c, 0, 78, 0
1, 52032, Note_on_c, 0, 79, 50
1, 52032, Note_on_c, 0, 69, 50
1, 52032, Note_on_c, 0, 64, 50
1, 52032, Note_on_c, 0, 61, 50
1, 52096, Note_on_c, 0, 79, 0
1, 52128, Note_on_c, 0, 76, 50
1, 52160, Note_on_c, 0, 69, 0
1, 52160, Note_on_c, 0, 64, 0
1, 52160, Note_on_c, 0, 61, 0
1, 52192, Note_on_c, 0, 76, 0
1, 52224, Note_on_c, 0, 74, 50
1, 52416, Note_on_c, 0, 71, 50
1, 52416, Note_on_c, 0, 67, 50
1, 52416, Note_on_c, 0, 62, 50
1, 52480, Note_on_c, 0, 74, 0
1, 52544, Note_on_c, 0, 71, 0
1, 52544, Note_on_c, 0, 67, 0
1, 52544, Note_on_c, 0, 62, 0
1, 52608, Note_on_c, 0, 74, 50
1, 52608, Note_on_c, 0, 71, 50
1, 52608, Note_on_c, 0, 67, 50
1, 52608, Note_on_c, 0, 62, 50
1, 52672, Note_on_c, 0, 74, 0
1, 52704, Note_on_c, 0, 73, 50
1, 52736, Note_on_c, 0, 71, 0
1, 52736, Note_on_c, 0, 67, 0
1, 52736, Note_on_c, 0, 62, 0
1, 52768, Note_on_c, 0, 73, 0
1, 52800, Note_on_c, 0, 74, 50
1, 52800, Note_on_c, 0, 71, 50
1, 52800, Note_on_c, 0, 67, 50
1, 52800, Note_on_c, 0, 62, 50
1, 52864, Note_on_c, 0, 74, 0
1, 52896, Note_on_c, 0, 71, 50
1, 52928, Note_on_c, 0, 71, 0
1, 52928, Note_on_c, 0, 67, 0
1, 52928, Note_on_c, 0, 62, 0
1, 52960, Note_on_c, 0, 71, 0
1, 52992, Note_on_c, 0, 74, 50
1, 53088, Note_on_c, 0, 72, 50
1, 53120, Note_on_c, 0, 74, 0
1, 53184, Note_on_c, 0, 69, 50
1, 53184, Note_on_c, 0, 62, 50
1, 53184, Note_on_c, 0, 66, 50
1, 53280, Note_on_c, 0, 72, 0
1, 53312, Note_on_c, 0, 69, 0
1, 53312, Note_on_c, 0, 62, 0
1, 53312, Note_on_c, 0, 66, 0
1, 53376, Note_on_c, 0, 72, 50
1, 53376, Note_on_c, 0, 69, 50
1, 53376, Note_on_c, 0, 66, 50
1, 53376, Note_on_c, 0, 62, 50
1, 53440, Note_on_c, 0, 72, 0
1, 53472, Note_on_c, 0, 71, 50
1, 53504, Note_on_c, 0, 69, 0
1, 53504, Note_on_c, 0, 66, 0
1, 53504, Note_on_c, 0, 62, 0
1, 53536, Note_on_c, 0, 71, 0
1, 53568, Note_on_c, 0, 72, 50
1, 53568, Note_on_c, 0, 69, 50
1, 53568, Note_on_c, 0, 62, 50
1, 53568, Note_on_c, 0, 66, 50
1, 53632, Note_on_c, 0, 72, 0
1, 53664, Note_on_c, 0, 69, 50
1, 53696, Note_on_c, 0, 69, 0
1, 53696, Note_on_c, 0, 62, 0
1, 53696, Note_on_c, 0, 66, 0
1, 53728, Note_on_c, 0, 69, 0
1, 53760, Note_on_c, 0, 74, 75
1, 53792, Note_on_c, 0, 74, 0
1, 53808, Note_on_c, 0, 86, 75
1, 53840, Note_on_c, 0, 86, 0
1, 53856, Note_on_c, 0, 74, 75
1, 53888, Note_on_c, 0, 74, 0
1, 53904, Note_on_c, 0, 86, 75
1, 53936, Note_on_c, 0, 86, 0
1, 53952, Note_on_c, 0, 74, 75
1, 53984, Note_on_c, 0, 74, 0
1, 54000, Note_on_c, 0, 86, 75
1, 54032, Note_on_c, 0, 86, 0
1, 54048, Note_on_c, 0, 74, 75
1, 54080, Note_on_c, 0, 74, 0
1, 54096, Note_on_c, 0, 86, 75
1, 54128, Note_on_c, 0, 86, 0
1, 54144, Note_on_c, 0, 74, 75
1, 54144, Note_on_c, 0, 70, 75
1, 54144, Note_on_c, 0, 67, 75
1, 54176, Note_on_c, 0, 74, 0
1, 54192, Note_on_c, 0, 86, 75
1, 54224, Note_on_c, 0, 86, 0
1, 54240, Note_on_c, 0, 74, 75
1, 54272, Note_on_c, 0, 70, 0
1, 54272, Note_on_c, 0, 67, 0
1, 54272, Note_on_c, 0, 74, 0
1, 54288, Note_on_c, 0, 86, 75
1, 54320, Note_on_c, 0, 86, 0
1, 54336, Note_on_c, 0, 74, 75
1, 54336, Note_on_c, 0, 72, 75
1, 54336, Note_on_c, 0, 66, 75
1, 54368, Note_on_c, 0, 74, 0
1, 54384, Note_on_c, 0, 86, 75
1, 54416, Note_on_c, 0, 86, 0
1, 54432, Note_on_c, 0, 74, 75
1, 54464, Note_on_c, 0, 72, 0
1, 54464, Note_on_c, 0, 66, 0
1, 54464, Note_on_c, 0, 74, 0
1, 54480, Note_on_c, 0, 86, 75
1, 54512, Note_on_c, 0, 86, 0
1, 54528, Note_on_c, 0, 74, 75
1, 54528, Note_on_c, 0, 70, 75
1, 54528, Note_on_c, 0, 67, 75
1, 54560, Note_on_c, 0, 74, 0
1, 54576, Note_on_c, 0, 86, 75
1, 54608, Note_on_c, 0, 86, 0
1, 54624, Note_on_c, 0, 74, 75
1, 54656, Note_on_c, 0, 70, 0
1, 54656, Note_on_c, 0, 67, 0
1, 54656, Note_on_c, 0, 74, 0
1, 54672, Note_on_c, 0, 86, 75
1, 54704, Note_on_c, 0, 86, 0
1, 54720, Note_on_c, 0, 74, 75
1, 54752, Note_on_c, 0, 74, 0
1, 54768, Note_on_c, 0, 86, 75
1, 54800, Note_on_c, 0, 86, 0
1, 54816, Note_on_c, 0, 74, 75
1, 54848, Note_on_c, 0, 74, 0
1, 54864, Note_on_c, 0, 86, 75
1, 54896, Note_on_c, 0, 86, 0
1, 54912, Note_on_c, 0, 74, 75
1, 54912, Note_on_c, 1, 58, 75
1, 54912, Note_on_c, 1, 55, 75
1, 54944, Note_on_c, 0, 74, 0
1, 54960, Note_on_c, 0, 86, 75
1, 54992, Note_on_c, 0, 86, 0
1, 55008, Note_on_c, 0, 74, 75
1, 55040, Note_on_c, 0, 74, 0
1, 55040, Note_on_c, 1, 58, 0
1, 55040, Note_on_c, 1, 55, 0
1, 55056, Note_on_c, 0, 86, 75
1, 55088, Note_on_c, 0, 86, 0
1, 55104, Note_on_c, 0, 74, 75
1, 55104, Note_on_c, 1, 62, 75
1, 55104, Note_on_c, 1, 54, 75
1, 55136, Note_on_c, 0, 74, 0
1, 55152, Note_on_c, 0, 86, 75
1, 55184, Note_on_c, 0, 86, 0
1, 55200, Note_on_c, 0, 74, 75
1, 55232, Note_on_c, 0, 74, 0
1, 55232, Note_on_c, 1, 62, 0
1, 55232, Note_on_c, 1, 54, 0
1, 55248, Note_on_c, 0, 86, 75
1, 55280, Note_on_c, 0, 86, 0
1, 55296, Note_on_c, 0, 74, 75
1, 55296, Note_on_c, 1, 58, 75
1, 55296, Note_on_c, 1, 55, 75
1, 55328, Note_on_c, 0, 74, 0
1, 55344, Note_on_c, 0, 86, 75
1, 55376, Note_on_c, 0, 86, 0
1, 55392, Note_on_c, 0, 74, 75
1, 55424, Note_on_c, 0, 74, 0
1, 55424, Note_on_c, 1, 58, 0
1, 55424, Note_on_c, 1, 55, 0
1, 55440, Note_on_c, 0, 86, 75
1, 55472, Note_on_c, 0, 86, 0
1, 55488, Note_on_c, 0, 74, 75
1, 55520, Note_on_c, 0, 74, 0
1, 55536, Note_on_c, 0, 86, 75
1, 55568, Note_on_c, 0, 86, 0
1, 55584, Note_on_c, 0, 74, 75
1, 55616, Note_on_c, 0, 74, 0
1, 55632, Note_on_c, 0, 86, 75
1, 55664, Note_on_c, 0, 86, 0
1, 55680, Note_on_c, 0, 74, 75
1, 55680, Note_on_c, 0, 67, 75
1, 55680, Note_on_c, 0, 71, 75
1, 55712, Note_on_c, 0, 74, 0
1, 55728, Note_on_c, 0, 86, 75
1, 55744, Note_on_c, 0, 67, 0
1, 55744, Note_on_c, 0, 71, 0
1, 55760, Note_on_c, 0, 86, 0
1, 55776, Note_on_c, 0, 74, 75
1, 55776, Note_on_c, 0, 67, 75
1, 55776, Note_on_c, 0, 71, 75
1, 55808, Note_on_c, 0, 74, 0
1, 55824, Note_on_c, 0, 86, 75
1, 55840, Note_on_c, 0, 67, 0
1, 55840, Note_on_c, 0, 71, 0
1, 55856, Note_on_c, 0, 86, 0
1, 55872, Note_on_c, 0, 74, 75
1, 55872, Note_on_c, 0, 66, 75
1, 55872, Note_on_c, 0, 72, 75
1, 55904, Note_on_c, 0, 74, 0
1, 55920, Note_on_c, 0, 86, 75
1, 55936, Note_on_c, 0, 66, 0
1, 55936, Note_on_c, 0, 72, 0
1, 55952, Note_on_c, 0, 86, 0
1, 55968, Note_on_c, 0, 74, 75
1, 55968, Note_on_c, 0, 72, 75
1, 55968, Note_on_c, 0, 66, 75
1, 56000, Note_on_c, 0, 74, 0
1, 56016, Note_on_c, 0, 86, 75
1, 56032, Note_on_c, 0, 72, 0
1, 56032, Note_on_c, 0, 66, 0
1, 56048, Note_on_c, 0, 86, 0
1, 56064, Note_on_c, 0, 74, 75
1, 56064, Note_on_c, 0, 67, 75
1, 56064, Note_on_c, 0, 71, 75
1, 56096, Note_on_c, 0, 74, 0
1, 56112, Note_on_c, 0, 86, 75
1, 56144, Note_on_c, 0, 86, 0
1, 56160, Note_on_c, 0, 74, 75
1, 56192, Note_on_c, 0, 67, 0
1, 56192, Note_on_c, 0, 71, 0
1, 56192, Note_on_c, 0, 74, 0
1, 56208, Note_on_c, 0, 86, 75
1, 56240, Note_on_c, 0, 86, 0
1, 56256, Note_on_c, 0, 74, 75
1, 56288, Note_on_c, 0, 74, 0
1, 56304, Note_on_c, 0, 86, 75
1, 56336, Note_on_c, 0, 86, 0
1, 56352, Note_on_c, 0, 74, 75
1, 56384, Note_on_c, 0, 74, 0
1, 56400, Note_on_c, 0, 86, 75
1, 56432, Note_on_c, 0, 86, 0
1, 56448, Note_on_c, 0, 74, 75
1, 56448, Note_on_c, 1, 59, 75
1, 56448, Note_on_c, 1, 55, 75
1, 56480, Note_on_c, 0, 74, 0
1, 56496, Note_on_c, 0, 86, 75
1, 56512, Note_on_c, 1, 59, 0
1, 56512, Note_on_c, 1, 55, 0
1, 56528, Note_on_c, 0, 86, 0
1, 56544, Note_on_c, 0, 74, 75
1, 56544, Note_on_c, 1, 59, 75
1, 56544, Note_on_c, 1, 55, 75
1, 56576, Note_on_c, 0, 74, 0
1, 56592, Note_on_c, 0, 86, 75
1, 56608, Note_on_c, 1, 59, 0
1, 56608, Note_on_c, 1, 55, 0
1, 56624, Note_on_c, 0, 86, 0
1, 56640, Note_on_c, 0, 74, 75
1, 56640, Note_on_c, 1, 54, 75
1, 56640, Note_on_c, 1, 60, 75
1, 56672, Note_on_c, 0, 74, 0
1, 56688, Note_on_c, 0, 86, 75
1, 56704, Note_on_c, 1, 54, 0
1, 56704, Note_on_c, 1, 60, 0
1, 56720, Note_on_c, 0, 86, 0
1, 56736, Note_on_c, 0, 74, 75
1, 56736, Note_on_c, 1, 60, 75
1, 56736, Note_on_c, 1, 54, 75
1, 56768, Note_on_c, 0, 74, 0
1, 56784, Note_on_c, 0, 86, 75
1, 56800, Note_on_c, 1, 60, 0
1, 56800, Note_on_c, 1, 54, 0
1, 56816, Note_on_c, 0, 86, 0
1, 56832, Note_on_c, 0, 74, 75
1, 56832, Note_on_c, 1, 59, 75
1, 56832, Note_on_c, 1, 55, 75
1, 56864, Note_on_c, 0, 74, 0
1, 56880, Note_on_c, 0, 86, 75
1, 56912, Note_on_c, 0, 86, 0
1, 56944, Note_on_c, 0, 74, 75
1, 56960, Note_on_c, 1, 59, 0
1, 56960, Note_on_c, 1, 55, 0
1, 56976, Note_on_c, 0, 74, 0
1, 56976, Note_on_c, 0, 86, 75
1, 57008, Note_on_c, 0, 86, 0
1, 57024, Note_on_c, 0, 75, 50
1, 57024, Note_on_c, 1, 54, 50
1, 57024, Note_on_c, 1, 47, 50
1, 57024, Note_on_c, 1, 57, 50
1, 57056, Note_on_c, 0, 75, 0
1, 57072, Note_on_c, 0, 87, 50
1, 57104, Note_on_c, 0, 87, 0
1, 57120, Note_on_c, 0, 75, 50
1, 57152, Note_on_c, 0, 75, 0
1, 57168, Note_on_c, 0, 87, 50
1, 57200, Note_on_c, 0, 87, 0
1, 57216, Note_on_c, 0, 75, 50
1, 57248, Note_on_c, 0, 75, 0
1, 57264, Note_on_c, 0, 87, 50
1, 57296, Note_on_c, 0, 87, 0
1, 57312, Note_on_c, 0, 75, 50
1, 57344, Note_on_c, 0, 75, 0
1, 57360, Note_on_c, 0, 87, 50
1, 57392, Note_on_c, 0, 87, 0
1, 57408, Note_on_c, 0, 75, 50
1, 57408, Note_on_c, 1, 54, 0
1, 57408, Note_on_c, 1, 47, 0
1, 57408, Note_on_c, 1, 57, 0
1, 57440, Note_on_c, 0, 75, 0
1, 57456, Note_on_c, 0, 87, 50
1, 57488, Note_on_c, 0, 87, 0
1, 57504, Note_on_c, 0, 75, 50
1, 57536, Note_on_c, 0, 75, 0
1, 57552, Note_on_c, 0, 87, 50
1, 57584, Note_on_c, 0, 87, 0
1, 57600, Note_on_c, 0, 76, 75
1, 57600, Note_on_c, 1, 55, 75
1, 57600, Note_on_c, 1, 48, 75
1, 57632, Note_on_c, 0, 76, 0
1, 57648, Note_on_c, 0, 88, 75
1, 57680, Note_on_c, 0, 88, 0
1, 57696, Note_on_c, 0, 76, 75
1, 57728, Note_on_c, 0, 76, 0
1, 57728, Note_on_c, 1, 55, 0
1, 57728, Note_on_c, 1, 48, 0
1, 57744, Note_on_c, 0, 88, 75
1, 57776, Note_on_c, 0, 88, 0
1, 57792, Note_on_c, 0, 73, 50
1, 57792, Note_on_c, 1, 55, 50
1, 57792, Note_on_c, 1, 52, 50
1, 57792, Note_on_c, 1, 49, 50
1, 57824, Note_on_c, 0, 73, 0
1, 57840, Note_on_c, 0, 85, 50
1, 57872, Note_on_c, 0, 85, 0
1, 57888, Note_on_c, 0, 73, 50
1, 57920, Note_on_c, 0, 73, 0
1, 57936, Note_on_c, 0, 85, 50
1, 57968, Note_on_c, 0, 85, 0
1, 57984, Note_on_c, 0, 73, 50
1, 58016, Note_on_c, 0, 73, 0
1, 58032, Note_on_c, 0, 85, 50
1, 58064, Note_on_c, 0, 85, 0
1, 58080, Note_on_c, 0, 73, 50
1, 58112, Note_on_c, 0, 73, 0
1, 58128, Note_on_c, 0, 85, 50
1, 58160, Note_on_c, 0, 85, 0
1, 58176, Note_on_c, 0, 73, 50
1, 58176, Note_on_c, 1, 55, 0
1, 58176, Note_on_c, 1, 52, 0
1, 58176, Note_on_c, 1, 49, 0
1, 58208, Note_on_c, 0, 73, 0
1, 58224, Note_on_c, 0, 85, 50
1, 58256, Note_on_c, 0, 85, 0
1, 58272, Note_on_c, 0, 73, 50
1, 58304, Note_on_c, 0, 73, 0
1, 58320, Note_on_c, 0, 85, 50
1, 58352, Note_on_c, 0, 85, 0
1, 58368, Note_on_c, 0, 83, 75
1, 58368, Note_on_c, 1, 55, 75
1, 58368, Note_on_c, 1, 50, 75
1, 58416, Note_on_c, 0, 83, 0
1, 58432, Note_on_c, 0, 86, 75
1, 58480, Note_on_c, 0, 86, 0
1, 58496, Note_on_c, 0, 83, 75
1, 58496, Note_on_c, 1, 55, 0
1, 58496, Note_on_c, 1, 50, 0
1, 58544, Note_on_c, 0, 83, 0
1, 58560, Note_on_c, 0, 79, 75
1, 58608, Note_on_c, 0, 79, 0
1, 58624, Note_on_c, 0, 74, 75
1, 58672, Note_on_c, 0, 74, 0
1, 58688, Note_on_c, 0, 71, 75
1, 58736, Note_on_c, 0, 71, 0
1, 58752, Note_on_c, 0, 67, 75
1, 58800, Note_on_c, 0, 67, 0
1, 58816, Note_on_c, 0, 71, 75
1, 58816, Note_on_c, 1, 59, 75
1, 58864, Note_on_c, 0, 71, 0
1, 58864, Note_on_c, 1, 59, 0
1, 58880, Note_on_c, 0, 67, 75
1, 58880, Note_on_c, 1, 55, 75
1, 58928, Note_on_c, 0, 67, 0
1, 58928, Note_on_c, 1, 55, 0
1, 58944, Note_on_c, 0, 62, 75
1, 58944, Note_on_c, 1, 50, 75
1, 58992, Note_on_c, 0, 62, 0
1, 58992, Note_on_c, 1, 50, 0
1, 59008, Note_on_c, 0, 59, 75
1, 59008, Note_on_c, 1, 47, 75
1, 59056, Note_on_c, 0, 59, 0
1, 59056, Note_on_c, 1, 47, 0
1, 59072, Note_on_c, 0, 55, 75
1, 59072, Note_on_c, 1, 43, 75
1, 59120, Note_on_c, 1, 43, 0
1, 59136, Note_on_c, 0, 62, 75
1, 59136, Note_on_c, 1, 38, 75
1, 59140, Note_on_c, 0, 55, 0
1, 59264, Note_on_c, 0, 62, 0
1, 59264, Note_on_c, 1, 38, 0
1, 59520, Note_on_c, 0, 78, 75
1, 59520, Note_on_c, 0, 74, 75
1, 59520, Note_on_c, 0, 72, 75
1, 59520, Note_on_c, 0, 69, 75
1, 59520, Note_on_c, 1, 62, 75
1, 59520, Note_on_c, 1, 50, 75
1, 59648, Note_on_c, 0, 78, 0
1, 59648, Note_on_c, 0, 74, 0
1, 59648, Note_on_c, 0, 72, 0
1, 59648, Note_on_c, 0, 69, 0
1, 59648, Note_on_c, 1, 62, 0
1, 59648, Note_on_c, 1, 50, 0
1, 59904, Note_on_c, 0, 79, 75
1, 59904, Note_on_c, 0, 74, 75
1, 59904, Note_on_c, 0, 71, 75
1, 59904, Note_on_c, 0, 67, 75
1, 59904, Note_on_c, 1, 55, 75
1, 59904, Note_on_c, 1, 43, 75
1, 60032, Note_on_c, 0, 79, 0
1, 60032, Note_on_c, 0, 74, 0
1, 60032, Note_on_c, 0, 71, 0
1, 60032, Note_on_c, 0, 67, 0
1, 60032, Note_on_c, 1, 55, 0
1, 60032, Note_on_c, 1, 43, 0
1, 60288, Note_on_c, 0, 67, 50
1, 60352, Note_on_c, 0, 67, 0
1, 60384, Note_on_c, 0, 69, 50
1, 60448, Note_on_c, 0, 69, 0
1, 60480, Note_on_c, 0, 71, 50
1, 60544, Note_on_c, 0, 71, 0
1, 60576, Note_on_c, 0, 72, 50
1, 60640, Note_on_c, 0, 72, 0
1, 60672, Note_on_c, 0, 74, 50
1, 60800, Note_on_c, 0, 74, 0
1, 60864, Note_on_c, 0, 76, 50
1, 60992, Note_on_c, 0, 76, 0
1, 61056, Note_on_c, 0, 74, 50
1, 61184, Note_on_c, 0, 74, 0
1, 61264, Note_on_c, 0, 73, 50
1, 61392, Note_on_c, 0, 73, 0
1, 61440, Note_on_c, 0, 72, 50
1, 61568, Note_on_c, 0, 72, 0
1, 61632, Note_on_c, 1, 63, 50
1, 61632, Note_on_c, 1, 54, 50
1, 61760, Note_on_c, 1, 63, 0
1, 61760, Note_on_c, 1, 54, 0
1, 61824, Note_on_c, 0, 71, 50
1, 61952, Note_on_c, 0, 71, 0
1, 62016, Note_on_c, 1, 55, 50
1, 62016, Note_on_c, 1, 62, 50
1, 62144, Note_on_c, 1, 55, 0
1, 62144, Note_on_c, 1, 62, 0
1, 62208, Note_on_c, 1, 52, 50
1, 62208, Note_on_c, 1, 48, 50
1, 62336, Note_on_c, 1, 52, 0
1, 62336, Note_on_c, 1, 48, 0
1, 62400, Note_on_c, 0, 69, 50
1, 62528, Note_on_c, 0, 69, 0
1, 62592, Note_on_c, 0, 72, 50
1, 62720, Note_on_c, 0, 72, 0
1, 62784, Note_on_c, 0, 66, 50
1, 62784, Note_on_c, 1, 60, 50
1, 62784, Note_on_c, 1, 50, 50
1, 62912, Note_on_c, 0, 66, 0
1, 62912, Note_on_c, 1, 60, 0
1, 62912, Note_on_c, 1, 50, 0
1, 62976, Note_on_c, 0, 67, 50
1, 62976, Note_on_c, 1, 59, 50
1, 62976, Note_on_c, 1, 55, 50
1, 63104, Note_on_c, 0, 67, 0
1, 63104, Note_on_c, 1, 59, 0
1, 63104, Note_on_c, 1, 55, 0
1, 63168, Note_on_c, 1, 43, 50
1, 63296, Note_on_c, 1, 43, 0
1, 63360, Note_on_c, 0, 79, 50
1, 63424, Note_on_c, 0, 79, 0
1, 63456, Note_on_c, 0, 81, 50
1, 63520, Note_on_c, 0, 81, 0
1, 63552, Note_on_c, 0, 83, 50
1, 63616, Note_on_c, 0, 83, 0
1, 63648, Note_on_c, 0, 84, 50
1, 63712, Note_on_c, 0, 84, 0
1, 63744, Note_on_c, 0, 86, 50
1, 63872, Note_on_c, 0, 86, 0
1, 63936, Note_on_c, 0, 88, 50
1, 64064, Note_on_c, 0, 88, 0
1, 64128, Note_on_c, 0, 86, 50
1, 64256, Note_on_c, 0, 86, 0
1, 64320, Note_on_c, 0, 85, 50
1, 64448, Note_on_c, 0, 85, 0
1, 64512, Note_on_c, 0, 84, 50
1, 64640, Note_on_c, 0, 84, 0
1, 64704, Note_on_c, 0, 66, 50
1, 64704, Note_on_c, 0, 63, 50
1, 64832, Note_on_c, 0, 66, 0
1, 64832, Note_on_c, 0, 63, 0
1, 64896, Note_on_c, 0, 83, 50
1, 65024, Note_on_c, 0, 83, 0
1, 65088, Note_on_c, 0, 67, 50
1, 65088, Note_on_c, 0, 64, 50
1, 65216, Note_on_c, 0, 67, 0
1, 65216, Note_on_c, 0, 64, 0
1, 65280, Note_on_c, 0, 64, 50
1, 65280, Note_on_c, 0, 60, 50
1, 65472, Note_on_c, 0, 81, 50
1, 65536, Note_on_c, 0, 64, 0
1, 65536, Note_on_c, 0, 60, 0
1, 65600, Note_on_c, 0, 81, 0
1, 65664, Note_on_c, 0, 84, 50
1, 65792, Note_on_c, 0, 84, 0
1, 65856, Note_on_c, 0, 78, 50
1, 65856, Note_on_c, 0, 72, 50
1, 65856, Note_on_c, 0, 62, 50
1, 65984, Note_on_c, 0, 78, 0
1, 65984, Note_on_c, 0, 72, 0
1, 65984, Note_on_c, 0, 62, 0
1, 66048, Note_on_c, 0, 79, 50
1, 66048, Note_on_c, 0, 71, 50
1, 66048, Note_on_c, 0, 67, 50
1, 66176, Note_on_c, 0, 71, 0
1, 66176, Note_on_c, 0, 67, 0
1, 66240, Note_on_c, 1, 62, 75
1, 66240, Note_on_c, 1, 50, 75
1, 66304, Note_on_c, 0, 79, 0
1, 66368, Note_on_c, 1, 62, 0
1, 66368, Note_on_c, 1, 50, 0
1, 66432, Note_on_c, 1, 59, 75
1, 66432, Note_on_c, 1, 47, 75
1, 66560, Note_on_c, 1, 59, 0
1, 66560, Note_on_c, 1, 47, 0
1, 66624, Note_on_c, 0, 67, 75
1, 66624, Note_on_c, 0, 62, 75
1, 66624, Note_on_c, 0, 59, 75
1, 66624, Note_on_c, 1, 55, 75
1, 66624, Note_on_c, 1, 43, 75
1, 66752, Note_on_c, 0, 67, 0
1, 66752, Note_on_c, 0, 62, 0
1, 66752, Note_on_c, 0, 59, 0
1, 66752, Note_on_c, 1, 55, 0
1, 66752, Note_on_c, 1, 43, 0
1, 66816, Note_on_c, 0, 71, 75
1, 66816, Note_on_c, 0, 67, 75
1, 66816, Note_on_c, 0, 62, 75
1, 67008, Note_on_c, 1, 59, 75
1, 67008, Note_on_c, 1, 47, 75
1, 67072, Note_on_c, 0, 71, 0
1, 67072, Note_on_c, 0, 67, 0
1, 67072, Note_on_c, 0, 62, 0
1, 67136, Note_on_c, 1, 59, 0
1, 67136, Note_on_c, 1, 47, 0
1, 67200, Note_on_c, 1, 55, 75
1, 67200, Note_on_c, 1, 43, 75
1, 67328, Note_on_c, 1, 55, 0
1, 67328, Note_on_c, 1, 43, 0
1, 67392, Note_on_c, 0, 71, 75
1, 67392, Note_on_c, 0, 67, 75
1, 67392, Note_on_c, 0, 62, 75
1, 67392, Note_on_c, 1, 50, 75
1, 67392, Note_on_c, 1, 38, 75
1, 67520, Note_on_c, 0, 71, 0
1, 67520, Note_on_c, 0, 67, 0
1, 67520, Note_on_c, 0, 62, 0
1, 67520, Note_on_c, 1, 50, 0
1, 67520, Note_on_c, 1, 38, 0
1, 67584, Note_on_c, 0, 74, 75
1, 67584, Note_on_c, 0, 71, 75
1, 67584, Note_on_c, 0, 67, 75
1, 67776, Note_on_c, 1, 53, 75
1, 67776, Note_on_c, 1, 41, 75
1, 67840, Note_on_c, 0, 74, 0
1, 67840, Note_on_c, 0, 71, 0
1, 67840, Note_on_c, 0, 67, 0
1, 67904, Note_on_c, 1, 53, 0
1, 67904, Note_on_c, 1, 41, 0
1, 67968, Note_on_c, 1, 50, 75
1, 67968, Note_on_c, 1, 38, 75
1, 68096, Note_on_c, 1, 50, 0
1, 68096, Note_on_c, 1, 38, 0
1, 68160, Note_on_c, 0, 74, 75
1, 68160, Note_on_c, 0, 67, 75
1, 68160, Note_on_c, 0, 71, 75
1, 68160, Note_on_c, 1, 47, 75
1, 68160, Note_on_c, 1, 35, 75
1, 68288, Note_on_c, 0, 74, 0
1, 68288, Note_on_c, 0, 67, 0
1, 68288, Note_on_c, 0, 71, 0
1, 68288, Note_on_c, 1, 47, 0
1, 68288, Note_on_c, 1, 35, 0
1, 68352, Note_on_c, 0, 77, 75
1, 68352, Note_on_c, 0, 74, 75
1, 68352, Note_on_c, 0, 71, 75
1, 68352, Note_on_c, 0, 67, 75
1, 68544, Note_on_c, 1, 50, 75
1, 68544, Note_on_c, 1, 38, 75
1, 68608, Note_on_c, 0, 77, 0
1, 68608, Note_on_c, 0, 74, 0
1, 68608, Note_on_c, 0, 71, 0
1, 68608, Note_on_c, 0, 67, 0
1, 68672, Note_on_c, 1, 50, 0
1, 68672, Note_on_c, 1, 38, 0
1, 68736, Note_on_c, 1, 47, 75
1, 68736, Note_on_c, 1, 35, 75
1, 68864, Note_on_c, 1, 47, 0
1, 68864, Note_on_c, 1, 35, 0
1, 68928, Note_on_c, 0, 77, 75
1, 68928, Note_on_c, 0, 74, 75
1, 68928, Note_on_c, 0, 71, 75
1, 68928, Note_on_c, 0, 67, 75
1, 68928, Note_on_c, 1, 43, 75
1, 68928, Note_on_c, 1, 31, 75
1, 69056, Note_on_c, 0, 77, 0
1, 69056, Note_on_c, 0, 74, 0
1, 69056, Note_on_c, 0, 71, 0
1, 69056, Note_on_c, 0, 67, 0
1, 69056, Note_on_c, 1, 43, 0
1, 69056, Note_on_c, 1, 31, 0
1, 69120, Note_on_c, 0, 83, 75
1, 69120, Note_on_c, 0, 79, 75
1, 69120, Note_on_c, 0, 77, 75
1, 69120, Note_on_c, 0, 74, 75
1, 69120, Note_on_c, 1, 55, 75
1, 69120, Note_on_c, 1, 43, 75
1, 69248, Note_on_c, 0, 83, 0
1, 69248, Note_on_c, 0, 79, 0
1, 69248, Note_on_c, 0, 77, 0
1, 69248, Note_on_c, 0, 74, 0
1, 69312, Note_on_c, 0, 77, 50
1, 69376, Note_on_c, 1, 55, 0
1, 69376, Note_on_c, 1, 43, 0
1, 69440, Note_on_c, 0, 77, 0
1, 69504, Note_on_c, 0, 74, 50
1, 69632, Note_on_c, 0, 74, 0
1, 69696, Note_on_c, 0, 71, 50
1, 69696, Note_on_c, 1, 62, 50
1, 69696, Note_on_c, 1, 59, 50
1, 69696, Note_on_c, 1, 55, 50
1, 69824, Note_on_c, 0, 71, 0
1, 69824, Note_on_c, 1, 62, 0
1, 69824, Note_on_c, 1, 59, 0
1, 69824, Note_on_c, 1, 55, 0
1, 69888, Note_on_c, 1, 55, 50
1, 69904, Note_on_c, 1, 62, 50
1, 69904, Note_on_c, 1, 59, 50
1, 70080, Note_on_c, 0, 83, 50
1, 70144, Note_on_c, 1, 55, 0
1, 70160, Note_on_c, 1, 62, 0
1, 70160, Note_on_c, 1, 59, 0
1, 70208, Note_on_c, 0, 83, 0
1, 70272, Note_on_c, 0, 77, 50
1, 70400, Note_on_c, 0, 77, 0
1, 70464, Note_on_c, 0, 74, 50
1, 70464, Note_on_c, 1, 59, 50
1, 70464, Note_on_c, 1, 62, 50
1, 70464, Note_on_c, 1, 55, 50
1, 70592, Note_on_c, 0, 74, 0
1, 70592, Note_on_c, 1, 59, 0
1, 70592, Note_on_c, 1, 62, 0
1, 70592, Note_on_c, 1, 55, 0
1, 70656, Note_on_c, 1, 62, 50
1, 70656, Note_on_c, 1, 59, 50
1, 70656, Note_on_c, 1, 55, 50
1, 70848, Note_on_c, 0, 89, 50
1, 70912, Note_on_c, 1, 62, 0
1, 70912, Note_on_c, 1, 59, 0
1, 70912, Note_on_c, 1, 55, 0
1, 70976, Note_on_c, 0, 89, 0
1, 71040, Note_on_c, 0, 86, 50
1, 71168, Note_on_c, 0, 86, 0
1, 71232, Note_on_c, 0, 83, 50
1, 71232, Note_on_c, 1, 62, 50
1, 71232, Note_on_c, 1, 59, 50
1, 71232, Note_on_c, 1, 55, 50
1, 71360, Note_on_c, 0, 83, 0
1, 71360, Note_on_c, 1, 62, 0
1, 71360, Note_on_c, 1, 59, 0
1, 71360, Note_on_c, 1, 55, 0
1, 71424, Note_on_c, 1, 65, 50
1, 71424, Note_on_c, 1, 62, 50
1, 71424, Note_on_c, 1, 55, 50
1, 71440, Note_on_c, 1, 59, 50
1, 71616, Note_on_c, 0, 86, 50
1, 71680, Note_on_c, 1, 65, 0
1, 71680, Note_on_c, 1, 62, 0
1, 71680, Note_on_c, 1, 55, 0
1, 71696, Note_on_c, 1, 59, 0
1, 71744, Note_on_c, 0, 86, 0
1, 71808, Note_on_c, 0, 83, 50
1, 71936, Note_on_c, 0, 83, 0
1, 72000, Note_on_c, 0, 79, 50
1, 72128, Note_on_c, 0, 79, 0
1, 72192, Note_on_c, 0, 77, 50
1, 72192, Note_on_c, 0, 60, 50
1, 72256, Note_on_c, 0, 77, 0
1, 72256, Note_on_c, 0, 60, 0
1, 72256, Note_on_c, 0, 76, 50
1, 72288, Note_on_c, 0, 64, 50
1, 72352, Note_on_c, 0, 76, 0
1, 72352, Note_on_c, 0, 64, 0
1, 72384, Note_on_c, 0, 74, 50
1, 72384, Note_on_c, 0, 67, 50
1, 72448, Note_on_c, 0, 74, 0
1, 72448, Note_on_c, 0, 67, 0
1, 72480, Note_on_c, 0, 72, 50
1, 72480, Note_on_c, 0, 64, 50
1, 72544, Note_on_c, 0, 72, 0
1, 72544, Note_on_c, 0, 64, 0
1, 72576, Note_on_c, 0, 72, 50
1, 72576, Note_on_c, 0, 60, 50
1, 72640, Note_on_c, 0, 60, 0
1, 72672, Note_on_c, 0, 64, 50
1, 72704, Note_on_c, 0, 72, 0
1, 72736, Note_on_c, 0, 64, 0
1, 72768, Note_on_c, 0, 72, 50
1, 72768, Note_on_c, 0, 67, 50
1, 72832, Note_on_c, 0, 67, 0
1, 72864, Note_on_c, 0, 64, 50
1, 72896, Note_on_c, 0, 72, 0
1, 72928, Note_on_c, 0, 64, 0
1, 72960, Note_on_c, 0, 72, 50
1, 72960, Note_on_c, 0, 60, 50
1, 73024, Note_on_c, 0, 60, 0
1, 73056, Note_on_c, 0, 64, 50
1, 73120, Note_on_c, 0, 64, 0
1, 73152, Note_on_c, 0, 67, 50
1, 73216, Note_on_c, 0, 67, 0
1, 73248, Note_on_c, 0, 64, 50
1, 73312, Note_on_c, 0, 64, 0
1, 73344, Note_on_c, 0, 72, 0
1, 73344, Note_on_c, 0, 60, 50
1, 73408, Note_on_c, 0, 60, 0
1, 73440, Note_on_c, 0, 64, 50
1, 73504, Note_on_c, 0, 64, 0
1, 73536, Note_on_c, 0, 84, 50
1, 73536, Note_on_c, 0, 67, 50
1, 73600, Note_on_c, 0, 67, 0
1, 73632, Note_on_c, 0, 64, 50
1, 73664, Note_on_c, 0, 84, 0
1, 73696, Note_on_c, 0, 64, 0
1, 73728, Note_on_c, 0, 83, 50
1, 73728, Note_on_c, 0, 60, 50
1, 73792, Note_on_c, 0, 83, 0
1, 73792, Note_on_c, 0, 60, 0
1, 73792, Note_on_c, 0, 81, 50
1, 73824, Note_on_c, 0, 65, 50
1, 73888, Note_on_c, 0, 81, 0
1, 73888, Note_on_c, 0, 65, 0
1, 73920, Note_on_c, 0, 79, 50
1, 73920, Note_on_c, 0, 69, 50
1, 73984, Note_on_c, 0, 79, 0
1, 73984, Note_on_c, 0, 69, 0
1, 74016, Note_on_c, 0, 77, 50
1, 74016, Note_on_c, 0, 65, 50
1, 74080, Note_on_c, 0, 77, 0
1, 74080, Note_on_c, 0, 65, 0
1, 74112, Note_on_c, 0, 77, 50
1, 74112, Note_on_c, 0, 60, 50
1, 74176, Note_on_c, 0, 60, 0
1, 74208, Note_on_c, 0, 65, 50
1, 74240, Note_on_c, 0, 77, 0
1, 74272, Note_on_c, 0, 65, 0
1, 74304, Note_on_c, 0, 77, 50
1, 74304, Note_on_c, 0, 69, 50
1, 74368, Note_on_c, 0, 69, 0
1, 74400, Note_on_c, 0, 65, 50
1, 74432, Note_on_c, 0, 77, 0
1, 74464, Note_on_c, 0, 65, 0
1, 74496, Note_on_c, 0, 77, 50
1, 74496, Note_on_c, 0, 60, 50
1, 74560, Note_on_c, 0, 60, 0
1, 74592, Note_on_c, 0, 65, 50
1, 74656, Note_on_c, 0, 65, 0
1, 74688, Note_on_c, 0, 69, 50
1, 74752, Note_on_c, 0, 69, 0
1, 74784, Note_on_c, 0, 65, 50
1, 74848, Note_on_c, 0, 65, 0
1, 74880, Note_on_c, 0, 77, 0
1, 74880, Note_on_c, 0, 60, 50
1, 74944, Note_on_c, 0, 60, 0
1, 74976, Note_on_c, 0, 65, 50
1, 75040, Note_on_c, 0, 65, 0
1, 75072, Note_on_c, 0, 81, 50
1, 75072, Note_on_c, 0, 69, 50
1, 75136, Note_on_c, 0, 69, 0
1, 75168, Note_on_c, 0, 65, 50
1, 75200, Note_on_c, 0, 81, 0
1, 75232, Note_on_c, 0, 65, 0
1, 75264, Note_on_c, 0, 81, 50
1, 75264, Note_on_c, 0, 60, 50
1, 75328, Note_on_c, 0, 81, 0
1, 75328, Note_on_c, 0, 60, 0
1, 75328, Note_on_c, 0, 79, 50
1, 75360, Note_on_c, 0, 64, 50
1, 75424, Note_on_c, 0, 79, 0
1, 75424, Note_on_c, 0, 64, 0
1, 75456, Note_on_c, 0, 77, 50
1, 75456, Note_on_c, 0, 67, 50
1, 75520, Note_on_c, 0, 77, 0
1, 75520, Note_on_c, 0, 67, 0
1, 75552, Note_on_c, 0, 76, 50
1, 75552, Note_on_c, 0, 64, 50
1, 75616, Note_on_c, 0, 76, 0
1, 75616, Note_on_c, 0, 64, 0
1, 75648, Note_on_c, 0, 76, 50
1, 75648, Note_on_c, 0, 60, 50
1, 75712, Note_on_c, 0, 60, 0
1, 75744, Note_on_c, 0, 64, 50
1, 75776, Note_on_c, 0, 76, 0
1, 75808, Note_on_c, 0, 64, 0
1, 75840, Note_on_c, 0, 79, 50
1, 75840, Note_on_c, 0, 67, 50
1, 75904, Note_on_c, 0, 67, 0
1, 75936, Note_on_c, 0, 64, 50
1, 75968, Note_on_c, 0, 79, 0
1, 76000, Note_on_c, 0, 64, 0
1, 76032, Note_on_c, 0, 79, 50
1, 76032, Note_on_c, 0, 59, 50
1, 76096, Note_on_c, 0, 79, 0
1, 76096, Note_on_c, 0, 59, 0
1, 76096, Note_on_c, 0, 77, 50
1, 76128, Note_on_c, 0, 62, 50
1, 76192, Note_on_c, 0, 77, 0
1, 76192, Note_on_c, 0, 62, 0
1, 76224, Note_on_c, 0, 76, 50
1, 76224, Note_on_c, 0, 67, 50
1, 76288, Note_on_c, 0, 76, 0
1, 76288, Note_on_c, 0, 67, 0
1, 76320, Note_on_c, 0, 74, 50
1, 76320, Note_on_c, 0, 62, 50
1, 76384, Note_on_c, 0, 74, 0
1, 76384, Note_on_c, 0, 62, 0
1, 76416, Note_on_c, 0, 74, 50
1, 76416, Note_on_c, 0, 59, 50
1, 76480, Note_on_c, 0, 59, 0
1, 76512, Note_on_c, 0, 62, 50
1, 76544, Note_on_c, 0, 74, 0
1, 76576, Note_on_c, 0, 62, 0
1, 76592, Note_on_c, 0, 67, 50
1, 76608, Note_on_c, 0, 77, 50
1, 76656, Note_on_c, 0, 67, 0
1, 76704, Note_on_c, 0, 62, 50
1, 76736, Note_on_c, 0, 77, 0
1, 76768, Note_on_c, 0, 62, 0
1, 76800, Note_on_c, 0, 77, 50
1, 76800, Note_on_c, 0, 60, 50
1, 76864, Note_on_c, 0, 77, 0
1, 76864, Note_on_c, 0, 76, 50
1, 76928, Note_on_c, 0, 60, 0
1, 76960, Note_on_c, 0, 76, 0
1, 76992, Note_on_c, 0, 74, 50
1, 76992, Note_on_c, 0, 64, 50
1, 76992, Note_on_c, 0, 67, 50
1, 77056, Note_on_c, 0, 74, 0
1, 77088, Note_on_c, 0, 72, 50
1, 77120, Note_on_c, 0, 64, 0
1, 77120, Note_on_c, 0, 67, 0
1, 77152, Note_on_c, 0, 72, 0
1, 77184, Note_on_c, 0, 71, 50
1, 77184, Note_on_c, 0, 65, 50
1, 77184, Note_on_c, 0, 62, 50
1, 77312, Note_on_c, 0, 71, 0
1, 77312, Note_on_c, 0, 65, 0
1, 77312, Note_on_c, 0, 62, 0
1, 77376, Note_on_c, 0, 72, 50
1, 77376, Note_on_c, 0, 64, 50
1, 77376, Note_on_c, 0, 60, 50
1, 77504, Note_on_c, 0, 72, 0
1, 77504, Note_on_c, 0, 64, 0
1, 77504, Note_on_c, 0, 60, 0
1, 77568, Note_on_c, 0, 76, 50
1, 77568, Note_on_c, 0, 60, 50
1, 77568, Note_on_c, 0, 55, 50
1, 77824, Note_on_c, 0, 76, 0
1, 77824, Note_on_c, 0, 60, 0
1, 77824, Note_on_c, 0, 55, 0
1, 77952, Note_on_c, 0, 74, 50
1, 77952, Note_on_c, 0, 59, 50
1, 77952, Note_on_c, 0, 55, 50
1, 78016, Note_on_c, 0, 74, 0
1, 78048, Note_on_c, 0, 78, 50
1, 78080, Note_on_c, 0, 59, 0
1, 78080, Note_on_c, 0, 55, 0
1, 78112, Note_on_c, 0, 78, 0
1, 78144, Note_on_c, 0, 79, 50
1, 78208, Note_on_c, 0, 79, 0
1, 78240, Note_on_c, 0, 77, 50
1, 78304, Note_on_c, 0, 77, 0
1, 78336, Note_on_c, 0, 77, 50
1, 78336, Note_on_c, 0, 60, 50
1, 78400, Note_on_c, 0, 77, 0
1, 78400, Note_on_c, 0, 60, 0
1, 78400, Note_on_c, 0, 76, 50
1, 78432, Note_on_c, 0, 64, 50
1, 78496, Note_on_c, 0, 76, 0
1, 78496, Note_on_c, 0, 64, 0
1, 78528, Note_on_c, 0, 74, 50
1, 78528, Note_on_c, 0, 67, 50
1, 78592, Note_on_c, 0, 74, 0
1, 78592, Note_on_c, 0, 67, 0
1, 78624, Note_on_c, 0, 72, 50
1, 78624, Note_on_c, 0, 64, 50
1, 78688, Note_on_c, 0, 72, 0
1, 78688, Note_on_c, 0, 64, 0
1, 78720, Note_on_c, 0, 71, 50
1, 78720, Note_on_c, 0, 60, 50
1, 78784, Note_on_c, 0, 71, 0
1, 78784, Note_on_c, 0, 60, 0
1, 78816, Note_on_c, 0, 72, 50
1, 78816, Note_on_c, 0, 64, 50
1, 78880, Note_on_c, 0, 72, 0
1, 78880, Note_on_c, 0, 64, 0
1, 78912, Note_on_c, 0, 74, 50
1, 78912, Note_on_c, 0, 67, 50
1, 78976, Note_on_c, 0, 74, 0
1, 78976, Note_on_c, 0, 67, 0
1, 79008, Note_on_c, 0, 72, 50
1, 79008, Note_on_c, 0, 64, 50
1, 79072, Note_on_c, 0, 72, 0
1, 79072, Note_on_c, 0, 64, 0
1, 79104, Note_on_c, 0, 72, 50
1, 79104, Note_on_c, 0, 60, 50
1, 79168, Note_on_c, 0, 60, 0
1, 79200, Note_on_c, 0, 64, 50
1, 79264, Note_on_c, 0, 64, 0
1, 79296, Note_on_c, 0, 67, 50
1, 79360, Note_on_c, 0, 72, 0
1, 79360, Note_on_c, 0, 67, 0
1, 79392, Note_on_c, 0, 64, 50
1, 79456, Note_on_c, 0, 64, 0
1, 79488, Note_on_c, 0, 72, 50
1, 79488, Note_on_c, 0, 60, 50
1, 79552, Note_on_c, 0, 72, 0
1, 79552, Note_on_c, 0, 60, 0
1, 79584, Note_on_c, 0, 79, 50
1, 79584, Note_on_c, 0, 64, 50
1, 79648, Note_on_c, 0, 79, 0
1, 79648, Note_on_c, 0, 64, 0
1, 79680, Note_on_c, 0, 76, 50
1, 79680, Note_on_c, 0, 67, 50
1, 79744, Note_on_c, 0, 76, 0
1, 79744, Note_on_c, 0, 67, 0
1, 79776, Note_on_c, 0, 84, 50
1, 79776, Note_on_c, 0, 64, 50
1, 79840, Note_on_c, 0, 84, 0
1, 79840, Note_on_c, 0, 64, 0
1, 79872, Note_on_c, 0, 83, 50
1, 79872, Note_on_c, 0, 60, 50
1, 79936, Note_on_c, 0, 83, 0
1, 79936, Note_on_c, 0, 60, 0
1, 79936, Note_on_c, 0, 81, 50
1, 79968, Note_on_c, 0, 65, 50
1, 80032, Note_on_c, 0, 81, 0
1, 80032, Note_on_c, 0, 65, 0
1, 80064, Note_on_c, 0, 79, 50
1, 80064, Note_on_c, 0, 69, 50
1, 80128, Note_on_c, 0, 79, 0
1, 80128, Note_on_c, 0, 69, 0
1, 80160, Note_on_c, 0, 77, 50
1, 80160, Note_on_c, 0, 65, 50
1, 80224, Note_on_c, 0, 77, 0
1, 80224, Note_on_c, 0, 65, 0
1, 80256, Note_on_c, 0, 76, 50
1, 80256, Note_on_c, 0, 60, 50
1, 80320, Note_on_c, 0, 76, 0
1, 80320, Note_on_c, 0, 60, 0
1, 80352, Note_on_c, 0, 77, 50
1, 80352, Note_on_c, 0, 65, 50
1, 80416, Note_on_c, 0, 77, 0
1, 80416, Note_on_c, 0, 65, 0
1, 80448, Note_on_c, 0, 79, 50
1, 80448, Note_on_c, 0, 69, 50
1, 80512, Note_on_c, 0, 79, 0
1, 80512, Note_on_c, 0, 69, 0
1, 80544, Note_on_c, 0, 77, 50
1, 80544, Note_on_c, 0, 65, 50
1, 80608, Note_on_c, 0, 77, 0
1, 80608, Note_on_c, 0, 65, 0
1, 80640, Note_on_c, 0, 77, 50
1, 80640, Note_on_c, 0, 60, 50
1, 80704, Note_on_c, 0, 60, 0
1, 80736, Note_on_c, 0, 65, 50
1, 80800, Note_on_c, 0, 65, 0
1, 80832, Note_on_c, 0, 69, 50
1, 80896, Note_on_c, 0, 77, 0
1, 80896, Note_on_c, 0, 69, 0
1, 80928, Note_on_c, 0, 65, 50
1, 80992, Note_on_c, 0, 65, 0
1, 81024, Note_on_c, 0, 77, 50
1, 81024, Note_on_c, 0, 60, 50
1, 81088, Note_on_c, 0, 77, 0
1, 81088, Note_on_c, 0, 60, 0
1, 81120, Note_on_c, 0, 81, 50
1, 81120, Note_on_c, 0, 65, 50
1, 81184, Note_on_c, 0, 81, 0
1, 81184, Note_on_c, 0, 65, 0
1, 81216, Note_on_c, 0, 84, 50
1, 81216, Note_on_c, 0, 69, 50
1, 81280, Note_on_c, 0, 84, 0
1, 81280, Note_on_c, 0, 69, 0
1, 81312, Note_on_c, 0, 81, 50
1, 81312, Note_on_c, 0, 65, 50
1, 81376, Note_on_c, 0, 81, 0
1, 81376, Note_on_c, 0, 65, 0
1, 81408, Note_on_c, 0, 81, 50
1, 81408, Note_on_c, 0, 60, 50
1, 81472, Note_on_c, 0, 81, 0
1, 81472, Note_on_c, 0, 60, 0
1, 81472, Note_on_c, 0, 79, 50
1, 81504, Note_on_c, 0, 64, 50
1, 81568, Note_on_c, 0, 79, 0
1, 81568, Note_on_c, 0, 64, 0
1, 81600, Note_on_c, 0, 77, 50
1, 81600, Note_on_c, 0, 67, 50
1, 81664, Note_on_c, 0, 77, 0
1, 81664, Note_on_c, 0, 67, 0
1, 81696, Note_on_c, 0, 76, 50
1, 81696, Note_on_c, 0, 64, 50
1, 81760, Note_on_c, 0, 76, 0
1, 81760, Note_on_c, 0, 64, 0
1, 81792, Note_on_c, 0, 76, 50
1, 81792, Note_on_c, 0, 61, 50
1, 81856, Note_on_c, 0, 76, 0
1, 81856, Note_on_c, 0, 61, 0
1, 81888, Note_on_c, 0, 64, 50
1, 81904, Note_on_c, 0, 82, 50
1, 81952, Note_on_c, 0, 64, 0
1, 81968, Note_on_c, 0, 82, 0
1, 81984, Note_on_c, 0, 81, 50
1, 81984, Note_on_c, 0, 69, 50
1, 82048, Note_on_c, 0, 81, 0
1, 82048, Note_on_c, 0, 69, 0
1, 82080, Note_on_c, 0, 79, 50
1, 82080, Note_on_c, 0, 64, 50
1, 82144, Note_on_c, 0, 79, 0
1, 82144, Note_on_c, 0, 64, 0
1, 82176, Note_on_c, 0, 79, 50
1, 82176, Note_on_c, 0, 62, 50
1, 82240, Note_on_c, 0, 79, 0
1, 82240, Note_on_c, 0, 62, 0
1, 82240, Note_on_c, 0, 77, 50
1, 82272, Note_on_c, 0, 65, 50
1, 82336, Note_on_c, 0, 77, 0
1, 82336, Note_on_c, 0, 65, 0
1, 82368, Note_on_c, 0, 76, 50
1, 82368, Note_on_c, 0, 69, 50
1, 82432, Note_on_c, 0, 76, 0
1, 82432, Note_on_c, 0, 69, 0
1, 82464, Note_on_c, 0, 74, 50
1, 82464, Note_on_c, 0, 65, 50
1, 82528, Note_on_c, 0, 74, 0
1, 82528, Note_on_c, 0, 65, 0
1, 82560, Note_on_c, 0, 74, 50
1, 82560, Note_on_c, 0, 59, 50
1, 82624, Note_on_c, 0, 74, 0
1, 82624, Note_on_c, 0, 59, 0
1, 82656, Note_on_c, 0, 81, 50
1, 82656, Note_on_c, 0, 62, 50
1, 82720, Note_on_c, 0, 81, 0
1, 82720, Note_on_c, 0, 62, 0
1, 82752, Note_on_c, 0, 79, 50
1, 82752, Note_on_c, 0, 67, 50
1, 82816, Note_on_c, 0, 79, 0
1, 82816, Note_on_c, 0, 67, 0
1, 82848, Note_on_c, 0, 77, 50
1, 82848, Note_on_c, 0, 62, 50
1, 82912, Note_on_c, 0, 77, 0
1, 82912, Note_on_c, 0, 62, 0
1, 82944, Note_on_c, 0, 77, 50
1, 82944, Note_on_c, 0, 60, 50
1, 82944, Note_on_c, 0, 71, 50
1, 83008, Note_on_c, 0, 77, 0
1, 83008, Note_on_c, 0, 76, 50
1, 83072, Note_on_c, 0, 60, 0
1, 83072, Note_on_c, 0, 71, 0
1, 83136, Note_on_c, 0, 76, 0
1, 83136, Note_on_c, 0, 77, 50
1, 83136, Note_on_c, 1, 53, 50
1, 83136, Note_on_c, 1, 62, 62
1, 83200, Note_on_c, 0, 77, 0
1, 83232, Note_on_c, 0, 74, 50
1, 83264, Note_on_c, 1, 53, 0
1, 83296, Note_on_c, 0, 74, 0
1, 83324, Note_on_c, 1, 62, 0
1, 83328, Note_on_c, 0, 72, 50
1, 83328, Note_on_c, 1, 55, 50
1, 83328, Note_on_c, 1, 64, 62
1, 83456, Note_on_c, 0, 72, 0
1, 83516, Note_on_c, 1, 64, 0
1, 83520, Note_on_c, 0, 71, 50
1, 83520, Note_on_c, 1, 62, 62
1, 83540, Note_on_c, 0, 71, 0
1, 83544, Note_on_c, 0, 72, 50
1, 83564, Note_on_c, 0, 72, 0
1, 83568, Note_on_c, 0, 71, 50
1, 83584, Note_on_c, 1, 55, 0
1, 83588, Note_on_c, 0, 71, 0
1, 83592, Note_on_c, 0, 72, 50
1, 83612, Note_on_c, 0, 72, 0
1, 83616, Note_on_c, 0, 71, 50
1, 83636, Note_on_c, 0, 71, 0
1, 83640, Note_on_c, 0, 72, 50
1, 83660, Note_on_c, 0, 72, 0
1, 83664, Note_on_c, 0, 69, 50
1, 83684, Note_on_c, 0, 69, 0
1, 83688, Note_on_c, 0, 71, 50
1, 83708, Note_on_c, 0, 71, 0
1, 83708, Note_on_c, 1, 62, 0
1, 83712, Note_on_c, 0, 79, 75
1, 83712, Note_on_c, 1, 48, 75
1, 83776, Note_on_c, 0, 79, 0
1, 83776, Note_on_c, 1, 48, 0
1, 83808, Note_on_c, 0, 76, 75
1, 83808, Note_on_c, 1, 55, 75
1, 83872, Note_on_c, 0, 76, 0
1, 83872, Note_on_c, 1, 55, 0
1, 83904, Note_on_c, 0, 88, 75
1, 83904, Note_on_c, 1, 52, 75
1, 83968, Note_on_c, 0, 88, 0
1, 83968, Note_on_c, 1, 52, 0
1, 84000, Note_on_c, 0, 88, 75
1, 84000, Note_on_c, 1, 55, 75
1, 84064, Note_on_c, 0, 88, 0
1, 84064, Note_on_c, 1, 55, 0
1, 84096, Note_on_c, 0, 88, 75
1, 84096, Note_on_c, 1, 48, 75
1, 84160, Note_on_c, 0, 88, 0
1, 84160, Note_on_c, 1, 48, 0
1, 84192, Note_on_c, 0, 79, 75
1, 84192, Note_on_c, 1, 57, 75
1, 84256, Note_on_c, 0, 79, 0
1, 84256, Note_on_c, 1, 57, 0
1, 84288, Note_on_c, 0, 81, 75
1, 84288, Note_on_c, 1, 52, 75
1, 84352, Note_on_c, 0, 81, 0
1, 84352, Note_on_c, 1, 52, 0
1, 84384, Note_on_c, 0, 76, 75
1, 84384, Note_on_c, 1, 57, 75
1, 84448, Note_on_c, 0, 76, 0
1, 84448, Note_on_c, 1, 57, 0
1, 84480, Note_on_c, 0, 77, 75
1, 84480, Note_on_c, 1, 50, 75
1, 84544, Note_on_c, 0, 77, 0
1, 84544, Note_on_c, 1, 50, 0
1, 84576, Note_on_c, 0, 74, 75
1, 84576, Note_on_c, 1, 57, 75
1, 84640, Note_on_c, 0, 74, 0
1, 84640, Note_on_c, 1, 57, 0
1, 84672, Note_on_c, 0, 86, 75
1, 84672, Note_on_c, 1, 53, 75
1, 84736, Note_on_c, 0, 86, 0
1, 84736, Note_on_c, 1, 53, 0
1, 84768, Note_on_c, 0, 86, 75
1, 84768, Note_on_c, 1, 57, 75
1, 84832, Note_on_c, 0, 86, 0
1, 84832, Note_on_c, 1, 57, 0
1, 84864, Note_on_c, 0, 86, 75
1, 84864, Note_on_c, 1, 47, 75
1, 84928, Note_on_c, 0, 86, 0
1, 84928, Note_on_c, 1, 47, 0
1, 84960, Note_on_c, 0, 77, 75
1, 84960, Note_on_c, 1, 55, 75
1, 85024, Note_on_c, 0, 77, 0
1, 85024, Note_on_c, 1, 55, 0
1, 85056, Note_on_c, 0, 79, 75
1, 85056, Note_on_c, 1, 50, 75
1, 85120, Note_on_c, 0, 79, 0
1, 85120, Note_on_c, 1, 50, 0
1, 85152, Note_on_c, 0, 74, 75
1, 85152, Note_on_c, 1, 55, 75
1, 85216, Note_on_c, 0, 74, 0
1, 85216, Note_on_c, 1, 55, 0
1, 85248, Note_on_c, 0, 76, 75
1, 85248, Note_on_c, 1, 48, 75
1, 85312, Note_on_c, 0, 76, 0
1, 85344, Note_on_c, 0, 84, 75
1, 85376, Note_on_c, 1, 48, 0
1, 85408, Note_on_c, 0, 84, 0
1, 85440, Note_on_c, 0, 80, 75
1, 85440, Note_on_c, 1, 64, 75
1, 85504, Note_on_c, 0, 80, 0
1, 85504, Note_on_c, 1, 64, 0
1, 85536, Note_on_c, 0, 81, 75
1, 85536, Note_on_c, 1, 65, 75
1, 85600, Note_on_c, 0, 81, 0
1, 85600, Note_on_c, 1, 65, 0
1, 85632, Note_on_c, 0, 78, 75
1, 85632, Note_on_c, 1, 63, 75
1, 85696, Note_on_c, 0, 78, 0
1, 85696, Note_on_c, 1, 63, 0
1, 85728, Note_on_c, 0, 79, 75
1, 85728, Note_on_c, 1, 64, 75
1, 85792, Note_on_c, 0, 79, 0
1, 85792, Note_on_c, 1, 64, 0
1, 85824, Note_on_c, 0, 77, 75
1, 85824, Note_on_c, 1, 55, 75
1, 85824, Note_on_c, 1, 62, 75
1, 85888, Note_on_c, 0, 77, 0
1, 85888, Note_on_c, 1, 62, 0
1, 85920, Note_on_c, 1, 59, 75
1, 85936, Note_on_c, 0, 74, 75
1, 85952, Note_on_c, 1, 55, 0
1, 85984, Note_on_c, 1, 59, 0
1, 86000, Note_on_c, 0, 74, 0
1, 86016, Note_on_c, 0, 72, 75
1, 86016, Note_on_c, 1, 60, 75
1, 86048, Note_on_c, 0, 72, 0
1, 86064, Note_on_c, 0, 84, 75
1, 86096, Note_on_c, 0, 84, 0
1, 86112, Note_on_c, 0, 72, 75
1, 86144, Note_on_c, 0, 72, 0
1, 86144, Note_on_c, 1, 60, 0
1, 86160, Note_on_c, 0, 84, 75
1, 86192, Note_on_c, 0, 84, 0
1, 86208, Note_on_c, 0, 72, 75
1, 86240, Note_on_c, 0, 72, 0
1, 86256, Note_on_c, 0, 84, 75
1, 86288, Note_on_c, 0, 84, 0
1, 86304, Note_on_c, 0, 72, 75
1, 86336, Note_on_c, 0, 72, 0
1, 86352, Note_on_c, 0, 84, 75
1, 86384, Note_on_c, 0, 84, 0
1, 86400, Note_on_c, 0, 72, 75
1, 86400, Note_on_c, 0, 64, 75
1, 86400, Note_on_c, 0, 67, 75
1, 86432, Note_on_c, 0, 72, 0
1, 86448, Note_on_c, 0, 84, 75
1, 86480, Note_on_c, 0, 84, 0
1, 86496, Note_on_c, 0, 72, 75
1, 86528, Note_on_c, 0, 64, 0
1, 86528, Note_on_c, 0, 67, 0
1, 86528, Note_on_c, 0, 72, 0
1, 86544, Note_on_c, 0, 84, 75
1, 86576, Note_on_c, 0, 84, 0
1, 86592, Note_on_c, 0, 72, 75
1, 86592, Note_on_c, 0, 69, 75
1, 86592, Note_on_c, 0, 65, 75
1, 86624, Note_on_c, 0, 72, 0
1, 86640, Note_on_c, 0, 84, 75
1, 86672, Note_on_c, 0, 84, 0
1, 86688, Note_on_c, 0, 72, 75
1, 86720, Note_on_c, 0, 69, 0
1, 86720, Note_on_c, 0, 65, 0
1, 86720, Note_on_c, 0, 72, 0
1, 86736, Note_on_c, 0, 84, 75
1, 86768, Note_on_c, 0, 84, 0
1, 86784, Note_on_c, 0, 72, 75
1, 86784, Note_on_c, 0, 70, 75
1, 86784, Note_on_c, 0, 67, 75
1, 86816, Note_on_c, 0, 72, 0
1, 86832, Note_on_c, 0, 84, 75
1, 86864, Note_on_c, 0, 84, 0
1, 86880, Note_on_c, 0, 72, 75
1, 86912, Note_on_c, 0, 70, 0
1, 86912, Note_on_c, 0, 67, 0
1, 86912, Note_on_c, 0, 72, 0
1, 86928, Note_on_c, 0, 84, 75
1, 86960, Note_on_c, 0, 84, 0
1, 86976, Note_on_c, 0, 72, 75
1, 87008, Note_on_c, 0, 72, 0
1, 87024, Note_on_c, 0, 84, 75
1, 87056, Note_on_c, 0, 84, 0
1, 87072, Note_on_c, 0, 72, 75
1, 87104, Note_on_c, 0, 72, 0
1, 87120, Note_on_c, 0, 84, 75
1, 87152, Note_on_c, 0, 84, 0
1, 87168, Note_on_c, 0, 72, 75
1, 87168, Note_on_c, 1, 55, 75
1, 87168, Note_on_c, 1, 52, 75
1, 87200, Note_on_c, 0, 72, 0
1, 87216, Note_on_c, 0, 84, 75
1, 87248, Note_on_c, 0, 84, 0
1, 87264, Note_on_c, 0, 72, 75
1, 87296, Note_on_c, 0, 72, 0
1, 87296, Note_on_c, 1, 55, 0
1, 87296, Note_on_c, 1, 52, 0
1, 87312, Note_on_c, 0, 84, 75
1, 87344, Note_on_c, 0, 84, 0
1, 87360, Note_on_c, 0, 72, 75
1, 87360, Note_on_c, 1, 57, 75
1, 87360, Note_on_c, 1, 53, 75
1, 87392, Note_on_c, 0, 72, 0
1, 87408, Note_on_c, 0, 84, 75
1, 87440, Note_on_c, 0, 84, 0
1, 87456, Note_on_c, 0, 72, 75
1, 87488, Note_on_c, 0, 72, 0
1, 87488, Note_on_c, 1, 57, 0
1, 87488, Note_on_c, 1, 53, 0
1, 87504, Note_on_c, 0, 84, 75
1, 87536, Note_on_c, 0, 84, 0
1, 87552, Note_on_c, 0, 72, 75
1, 87552, Note_on_c, 1, 58, 75
1, 87552, Note_on_c, 1, 55, 75
1, 87584, Note_on_c, 0, 72, 0
1, 87600, Note_on_c, 0, 84, 75
1, 87632, Note_on_c, 0, 84, 0
1, 87648, Note_on_c, 0, 72, 75
1, 87680, Note_on_c, 0, 72, 0
1, 87680, Note_on_c, 1, 58, 0
1, 87680, Note_on_c, 1, 55, 0
1, 87696, Note_on_c, 0, 84, 75
1, 87728, Note_on_c, 0, 84, 0
1, 87744, Note_on_c, 0, 72, 75
1, 87776, Note_on_c, 0, 72, 0
1, 87792, Note_on_c, 0, 84, 75
1, 87824, Note_on_c, 0, 84, 0
1, 87840, Note_on_c, 0, 72, 75
1, 87872, Note_on_c, 0, 72, 0
1, 87888, Note_on_c, 0, 84, 75
1, 87920, Note_on_c, 0, 84, 0
1, 87936, Note_on_c, 0, 72, 75
1, 87936, Note_on_c, 0, 67, 75
1, 87936, Note_on_c, 0, 64, 75
1, 87968, Note_on_c, 0, 72, 0
1, 87984, Note_on_c, 0, 84, 75
1, 88000, Note_on_c, 0, 67, 0
1, 88000, Note_on_c, 0, 64, 0
1, 88016, Note_on_c, 0, 84, 0
1, 88032, Note_on_c, 0, 72, 75
1, 88032, Note_on_c, 0, 67, 75
1, 88032, Note_on_c, 0, 64, 75
1, 88064, Note_on_c, 0, 72, 0
1, 88080, Note_on_c, 0, 84, 75
1, 88096, Note_on_c, 0, 67, 0
1, 88096, Note_on_c, 0, 64, 0
1, 88112, Note_on_c, 0, 84, 0
1, 88128, Note_on_c, 0, 72, 75
1, 88128, Note_on_c, 0, 69, 75
1, 88128, Note_on_c, 0, 65, 75
1, 88160, Note_on_c, 0, 72, 0
1, 88176, Note_on_c, 0, 84, 75
1, 88192, Note_on_c, 0, 69, 0
1, 88192, Note_on_c, 0, 65, 0
1, 88208, Note_on_c, 0, 84, 0
1, 88224, Note_on_c, 0, 72, 75
1, 88224, Note_on_c, 0, 69, 75
1, 88224, Note_on_c, 0, 65, 75
1, 88256, Note_on_c, 0, 72, 0
1, 88272, Note_on_c, 0, 84, 75
1, 88288, Note_on_c, 0, 69, 0
1, 88288, Note_on_c, 0, 65, 0
1, 88304, Note_on_c, 0, 84, 0
1, 88320, Note_on_c, 0, 72, 75
1, 88320, Note_on_c, 0, 70, 75
1, 88320, Note_on_c, 0, 67, 75
1, 88352, Note_on_c, 0, 72, 0
1, 88368, Note_on_c, 0, 84, 75
1, 88400, Note_on_c, 0, 84, 0
1, 88416, Note_on_c, 0, 72, 75
1, 88448, Note_on_c, 0, 70, 0
1, 88448, Note_on_c, 0, 67, 0
1, 88448, Note_on_c, 0, 72, 0
1, 88464, Note_on_c, 0, 84, 75
1, 88496, Note_on_c, 0, 84, 0
1, 88512, Note_on_c, 0, 72, 75
1, 88544, Note_on_c, 0, 72, 0
1, 88560, Note_on_c, 0, 84, 75
1, 88592, Note_on_c, 0, 84, 0
1, 88608, Note_on_c, 0, 72, 75
1, 88640, Note_on_c, 0, 72, 0
1, 88656, Note_on_c, 0, 84, 75
1, 88688, Note_on_c, 0, 84, 0
1, 88704, Note_on_c, 0, 72, 75
1, 88704, Note_on_c, 1, 55, 75
1, 88704, Note_on_c, 1, 52, 75
1, 88736, Note_on_c, 0, 72, 0
1, 88752, Note_on_c, 0, 84, 75
1, 88768, Note_on_c, 1, 55, 0
1, 88768, Note_on_c, 1, 52, 0
1, 88784, Note_on_c, 0, 84, 0
1, 88800, Note_on_c, 0, 72, 75
1, 88800, Note_on_c, 1, 55, 75
1, 88800, Note_on_c, 1, 52, 75
1, 88832, Note_on_c, 0, 72, 0
1, 88848, Note_on_c, 0, 84, 75
1, 88864, Note_on_c, 1, 55, 0
1, 88864, Note_on_c, 1, 52, 0
1, 88880, Note_on_c, 0, 84, 0
1, 88896, Note_on_c, 0, 72, 75
1, 88896, Note_on_c, 1, 57, 75
1, 88896, Note_on_c, 1, 53, 75
1, 88928, Note_on_c, 0, 72, 0
1, 88944, Note_on_c, 0, 84, 75
1, 88960, Note_on_c, 1, 57, 0
1, 88960, Note_on_c, 1, 53, 0
1, 88976, Note_on_c, 0, 84, 0
1, 88992, Note_on_c, 0, 72, 75
1, 88992, Note_on_c, 1, 57, 75
1, 88992, Note_on_c, 1, 53, 75
1, 89024, Note_on_c, 0, 72, 0
1, 89040, Note_on_c, 0, 84, 75
1, 89056, Note_on_c, 1, 57, 0
1, 89056, Note_on_c, 1, 53, 0
1, 89072, Note_on_c, 0, 84, 0
1, 89088, Note_on_c, 0, 72, 75
1, 89088, Note_on_c, 1, 58, 75
1, 89088, Note_on_c, 1, 55, 75
1, 89152, Note_on_c, 0, 72, 0
1, 89184, Note_on_c, 0, 83, 71
1, 89216, Note_on_c, 1, 58, 0
1, 89216, Note_on_c, 1, 55, 0
1, 89248, Note_on_c, 0, 83, 0
1, 89280, Note_on_c, 0, 84, 67
1, 89344, Note_on_c, 0, 84, 0
1, 89376, Note_on_c, 0, 83, 62
1, 89440, Note_on_c, 0, 83, 0
1, 89472, Note_on_c, 0, 82, 60
1, 89536, Note_on_c, 0, 82, 0
1, 89568, Note_on_c, 0, 81, 57
1, 89632, Note_on_c, 0, 81, 0
1, 89664, Note_on_c, 0, 82, 55
1, 89728, Note_on_c, 0, 82, 0
1, 89760, Note_on_c, 0, 79, 52
1, 89824, Note_on_c, 0, 79, 0
1, 89856, Note_on_c, 0, 77, 50
1, 89856, Note_on_c, 0, 65, 50
1, 89920, Note_on_c, 0, 77, 0
1, 89920, Note_on_c, 0, 65, 0
1, 89952, Note_on_c, 0, 77, 50
1, 89952, Note_on_c, 0, 72, 50
1, 89984, Note_on_c, 0, 77, 0
1, 89984, Note_on_c, 0, 76, 50
1, 90016, Note_on_c, 0, 72, 0
1, 90016, Note_on_c, 0, 76, 0
1, 90048, Note_on_c, 0, 77, 50
1, 90048, Note_on_c, 0, 69, 50
1, 90112, Note_on_c, 0, 77, 0
1, 90112, Note_on_c, 0, 69, 0
1, 90144, Note_on_c, 0, 79, 50
1, 90144, Note_on_c, 0, 72, 50
1, 90208, Note_on_c, 0, 79, 0
1, 90208, Note_on_c, 0, 72, 0
1, 90240, Note_on_c, 0, 81, 50
1, 90240, Note_on_c, 0, 64, 50
1, 90304, Note_on_c, 0, 81, 0
1, 90304, Note_on_c, 0, 64, 0
1, 90336, Note_on_c, 0, 81, 50
1, 90336, Note_on_c, 0, 72, 50
1, 90368, Note_on_c, 0, 81, 0
1, 90368, Note_on_c, 0, 79, 50
1, 90400, Note_on_c, 0, 72, 0
1, 90400, Note_on_c, 0, 79, 0
1, 90432, Note_on_c, 0, 81, 50
1, 90432, Note_on_c, 0, 69, 50
1, 90496, Note_on_c, 0, 81, 0
1, 90496, Note_on_c, 0, 69, 0
1, 90528, Note_on_c, 0, 82, 50
1, 90528, Note_on_c, 0, 72, 50
1, 90592, Note_on_c, 0, 82, 0
1, 90592, Note_on_c, 0, 72, 0
1, 90624, Note_on_c, 0, 84, 50
1, 90624, Note_on_c, 0, 64, 50
1, 90688, Note_on_c, 0, 64, 0
1, 90720, Note_on_c, 0, 72, 50
1, 90784, Note_on_c, 0, 72, 0
1, 90816, Note_on_c, 0, 84, 0
1, 90816, Note_on_c, 0, 67, 50
1, 90880, Note_on_c, 0, 67, 0
1, 90912, Note_on_c, 0, 86, 50
1, 90912, Note_on_c, 0, 72, 50
1, 90976, Note_on_c, 0, 86, 0
1, 90976, Note_on_c, 0, 72, 0
1, 91008, Note_on_c, 0, 82, 50
1, 91008, Note_on_c, 0, 64, 50
1, 91072, Note_on_c, 0, 64, 0
1, 91104, Note_on_c, 0, 72, 50
1, 91136, Note_on_c, 0, 82, 0
1, 91168, Note_on_c, 0, 72, 0
1, 91200, Note_on_c, 0, 79, 50
1, 91200, Note_on_c, 0, 67, 50
1, 91264, Note_on_c, 0, 67, 0
1, 91296, Note_on_c, 0, 72, 50
1, 91328, Note_on_c, 0, 79, 0
1, 91360, Note_on_c, 0, 72, 0
1, 91392, Note_on_c, 0, 77, 50
1, 91392, Note_on_c, 0, 65, 50
1, 91456, Note_on_c, 0, 77, 0
1, 91456, Note_on_c, 0, 65, 0
1, 91488, Note_on_c, 0, 77, 50
1, 91488, Note_on_c, 0, 72, 50
1, 91520, Note_on_c, 0, 77, 0
1, 91536, Note_on_c, 0, 76, 50
1, 91552, Note_on_c, 0, 72, 0
1, 91568, Note_on_c, 0, 76, 0
1, 91584, Note_on_c, 0, 77, 50
1, 91584, Note_on_c, 0, 69, 50
1, 91648, Note_on_c, 0, 77, 0
1, 91648, Note_on_c, 0, 69, 0
1, 91680, Note_on_c, 0, 79, 50
1, 91680, Note_on_c, 0, 72, 50
1, 91744, Note_on_c, 0, 79, 0
1, 91744, Note_on_c, 0, 72, 0
1, 91776, Note_on_c, 0, 81, 50
1, 91776, Note_on_c, 0, 65, 50
1, 91840, Note_on_c, 0, 81, 0
1, 91840, Note_on_c, 0, 65, 0
1, 91872, Note_on_c, 0, 81, 50
1, 91872, Note_on_c, 0, 72, 50
1, 91904, Note_on_c, 0, 81, 0
1, 91920, Note_on_c, 0, 79, 50
1, 91936, Note_on_c, 0, 72, 0
1, 91952, Note_on_c, 0, 79, 0
1, 91968, Note_on_c, 0, 81, 50
1, 91968, Note_on_c, 0, 69, 50
1, 92032, Note_on_c, 0, 81, 0
1, 92032, Note_on_c, 0, 69, 0
1, 92064, Note_on_c, 0, 82, 50
1, 92064, Note_on_c, 0, 72, 50
1, 92128, Note_on_c, 0, 82, 0
1, 92128, Note_on_c, 0, 72, 0
1, 92160, Note_on_c, 0, 81, 50
1, 92160, Note_on_c, 0, 60, 50
1, 92224, Note_on_c, 0, 60, 0
1, 92256, Note_on_c, 0, 72, 50
1, 92288, Note_on_c, 0, 81, 0
1, 92320, Note_on_c, 0, 72, 0
1, 92352, Note_on_c, 0, 79, 50
1, 92352, Note_on_c, 0, 71, 50
1, 92416, Note_on_c, 0, 71, 0
1, 92448, Note_on_c, 0, 72, 50
1, 92480, Note_on_c, 0, 79, 0
1, 92512, Note_on_c, 0, 72, 0
1, 92544, Note_on_c, 0, 77, 50
1, 92544, Note_on_c, 0, 60, 50
1, 92608, Note_on_c, 0, 77, 0
1, 92608, Note_on_c, 0, 60, 0
1, 92640, Note_on_c, 0, 76, 50
1, 92640, Note_on_c, 0, 70, 50
1, 92704, Note_on_c, 0, 76, 0
1, 92704, Note_on_c, 0, 70, 0
1, 92736, Note_on_c, 0, 74, 50
1, 92736, Note_on_c, 0, 67, 50
1, 92800, Note_on_c, 0, 74, 0
1, 92800, Note_on_c, 0, 67, 0
1, 92832, Note_on_c, 0, 72, 50
1, 92832, Note_on_c, 0, 70, 50
1, 92896, Note_on_c, 0, 72, 0
1, 92896, Note_on_c, 0, 70, 0
1, 92928, Note_on_c, 0, 77, 50
1, 92928, Note_on_c, 0, 65, 50
1, 92992, Note_on_c, 0, 77, 0
1, 92992, Note_on_c, 0, 65, 0
1, 93024, Note_on_c, 0, 77, 50
1, 93024, Note_on_c, 0, 72, 50
1, 93056, Note_on_c, 0, 77, 0
1, 93072, Note_on_c, 0, 76, 50
1, 93088, Note_on_c, 0, 72, 0
1, 93104, Note_on_c, 0, 76, 0
1, 93120, Note_on_c, 0, 77, 50
1, 93120, Note_on_c, 0, 69, 50
1, 93184, Note_on_c, 0, 77, 0
1, 93184, Note_on_c, 0, 69, 0
1, 93216, Note_on_c, 0, 79, 50
1, 93216, Note_on_c, 0, 72, 50
1, 93280, Note_on_c, 0, 79, 0
1, 93280, Note_on_c, 0, 72, 0
1, 93312, Note_on_c, 0, 81, 50
1, 93312, Note_on_c, 0, 65, 50
1, 93376, Note_on_c, 0, 81, 0
1, 93376, Note_on_c, 0, 65, 0
1, 93408, Note_on_c, 0, 81, 50
1, 93408, Note_on_c, 0, 72, 50
1, 93440, Note_on_c, 0, 81, 0
1, 93456, Note_on_c, 0, 79, 50
1, 93472, Note_on_c, 0, 72, 0
1, 93488, Note_on_c, 0, 79, 0
1, 93504, Note_on_c, 0, 81, 50
1, 93504, Note_on_c, 0, 69, 50
1, 93568, Note_on_c, 0, 81, 0
1, 93568, Note_on_c, 0, 69, 0
1, 93600, Note_on_c, 0, 82, 50
1, 93600, Note_on_c, 0, 72, 50
1, 93664, Note_on_c, 0, 82, 0
1, 93664, Note_on_c, 0, 72, 0
1, 93696, Note_on_c, 0, 84, 50
1, 93696, Note_on_c, 0, 64, 50
1, 93760, Note_on_c, 0, 64, 0
1, 93792, Note_on_c, 0, 72, 50
1, 93856, Note_on_c, 0, 72, 0
1, 93872, Note_on_c, 0, 67, 50
1, 93888, Note_on_c, 0, 84, 0
1, 93936, Note_on_c, 0, 67, 0
1, 93984, Note_on_c, 0, 86, 50
1, 93984, Note_on_c, 0, 72, 50
1, 94048, Note_on_c, 0, 86, 0
1, 94048, Note_on_c, 0, 72, 0
1, 94080, Note_on_c, 0, 82, 50
1, 94080, Note_on_c, 0, 64, 50
1, 94144, Note_on_c, 0, 64, 0
1, 94176, Note_on_c, 0, 72, 50
1, 94208, Note_on_c, 0, 82, 0
1, 94240, Note_on_c, 0, 72, 0
1, 94256, Note_on_c, 0, 70, 50
1, 94272, Note_on_c, 0, 79, 50
1, 94320, Note_on_c, 0, 70, 0
1, 94368, Note_on_c, 0, 72, 50
1, 94400, Note_on_c, 0, 79, 0
1, 94432, Note_on_c, 0, 72, 0
1, 94464, Note_on_c, 0, 81, 50
1, 94464, Note_on_c, 0, 65, 50
1, 94528, Note_on_c, 0, 65, 0
1, 94560, Note_on_c, 0, 72, 50
1, 94624, Note_on_c, 0, 72, 0
1, 94656, Note_on_c, 0, 81, 0
1, 94656, Note_on_c, 0, 69, 50
1, 94720, Note_on_c, 0, 69, 0
1, 94752, Note_on_c, 0, 82, 50
1, 94752, Note_on_c, 0, 72, 50
1, 94816, Note_on_c, 0, 82, 0
1, 94816, Note_on_c, 0, 72, 0
1, 94848, Note_on_c, 0, 79, 50
1, 94848, Note_on_c, 0, 60, 50
1, 94912, Note_on_c, 0, 60, 0
1, 94944, Note_on_c, 0, 71, 50
1, 94976, Note_on_c, 0, 79, 0
1, 95008, Note_on_c, 0, 71, 0
1, 95040, Note_on_c, 0, 76, 50
1, 95040, Note_on_c, 0, 69, 50
1, 95104, Note_on_c, 0, 69, 0
1, 95136, Note_on_c, 0, 71, 50
1, 95168, Note_on_c, 0, 76, 0
1, 95200, Note_on_c, 0, 71, 0
1, 95232, Note_on_c, 0, 77, 50
1, 95232, Note_on_c, 0, 69, 50
1, 95232, Note_on_c, 0, 65, 50
1, 95296, Note_on_c, 0, 77, 0
1, 95328, Note_on_c, 0, 72, 50
1, 95360, Note_on_c, 0, 69, 0
1, 95360, Note_on_c, 0, 65, 0
1, 95392, Note_on_c, 0, 72, 0
1, 95424, Note_on_c, 0, 74, 50
1, 95488, Note_on_c, 0, 74, 0
1, 95520, Note_on_c, 0, 69, 50
1, 95584, Note_on_c, 0, 69, 0
1, 95616, Note_on_c, 0, 70, 50
1, 95680, Note_on_c, 0, 70, 0
1, 95712, Note_on_c, 0, 67, 50
1, 95776, Note_on_c, 0, 67, 0
1, 95808, Note_on_c, 0, 72, 50
1, 95872, Note_on_c, 0, 72, 0
1, 95904, Note_on_c, 0, 64, 50
1, 95968, Note_on_c, 0, 64, 0
1, 96000, Note_on_c, 0, 65, 75
1, 96000, Note_on_c, 1, 40, 75
1, 96064, Note_on_c, 0, 65, 0
1, 96064, Note_on_c, 1, 40, 0
1, 96096, Note_on_c, 0, 65, 75
1, 96096, Note_on_c, 1, 48, 75
1, 96128, Note_on_c, 0, 65, 0
1, 96144, Note_on_c, 0, 64, 75
1, 96160, Note_on_c, 1, 48, 0
1, 96176, Note_on_c, 0, 64, 0
1, 96192, Note_on_c, 0, 65, 75
1, 96192, Note_on_c, 1, 45, 75
1, 96256, Note_on_c, 0, 65, 0
1, 96256, Note_on_c, 1, 45, 0
1, 96288, Note_on_c, 0, 67, 75
1, 96288, Note_on_c, 1, 48, 75
1, 96352, Note_on_c, 0, 67, 0
1, 96352, Note_on_c, 1, 48, 0
1, 96384, Note_on_c, 0, 69, 75
1, 96384, Note_on_c, 1, 41, 75
1, 96448, Note_on_c, 0, 69, 0
1, 96448, Note_on_c, 1, 41, 0
1, 96480, Note_on_c, 0, 69, 75
1, 96480, Note_on_c, 1, 48, 75
1, 96512, Note_on_c, 0, 69, 0
1, 96528, Note_on_c, 0, 67, 75
1, 96544, Note_on_c, 1, 48, 0
1, 96560, Note_on_c, 0, 67, 0
1, 96576, Note_on_c, 0, 69, 75
1, 96576, Note_on_c, 1, 45, 75
1, 96640, Note_on_c, 0, 69, 0
1, 96640, Note_on_c, 1, 45, 0
1, 96672, Note_on_c, 0, 70, 75
1, 96672, Note_on_c, 1, 48, 75
1, 96736, Note_on_c, 0, 70, 0
1, 96736, Note_on_c, 1, 48, 0
1, 96768, Note_on_c, 0, 72, 75
1, 96768, Note_on_c, 1, 40, 75
1, 96832, Note_on_c, 1, 40, 0
1, 96864, Note_on_c, 1, 48, 75
1, 96928, Note_on_c, 1, 48, 0
1, 96960, Note_on_c, 0, 72, 0
1, 96960, Note_on_c, 1, 43, 75
1, 97024, Note_on_c, 1, 43, 0
1, 97056, Note_on_c, 0, 74, 75
1, 97056, Note_on_c, 1, 48, 75
1, 97120, Note_on_c, 0, 74, 0
1, 97120, Note_on_c, 1, 48, 0
1, 97152, Note_on_c, 0, 70, 75
1, 97152, Note_on_c, 1, 36, 75
1, 97216, Note_on_c, 1, 36, 0
1, 97248, Note_on_c, 1, 43, 75
1, 97280, Note_on_c, 0, 70, 0
1, 97312, Note_on_c, 1, 43, 0
1, 97344, Note_on_c, 0, 67, 75
1, 97344, Note_on_c, 1, 40, 75
1, 97408, Note_on_c, 1, 40, 0
1, 97440, Note_on_c, 1, 43, 75
1, 97472, Note_on_c, 0, 67, 0
1, 97504, Note_on_c, 1, 43, 0
1, 97536, Note_on_c, 0, 65, 75
1, 97536, Note_on_c, 1, 40, 75
1, 97600, Note_on_c, 0, 65, 0
1, 97600, Note_on_c, 1, 40, 0
1, 97632, Note_on_c, 0, 65, 75
1, 97632, Note_on_c, 1, 48, 75
1, 97664, Note_on_c, 0, 65, 0
1, 97680, Note_on_c, 0, 64, 75
1, 97696, Note_on_c, 1, 48, 0
1, 97712, Note_on_c, 0, 64, 0
1, 97728, Note_on_c, 0, 65, 75
1, 97728, Note_on_c, 1, 45, 75
1, 97792, Note_on_c, 0, 65, 0
1, 97792, Note_on_c, 1, 45, 0
1, 97824, Note_on_c, 0, 67, 75
1, 97824, Note_on_c, 1, 48, 75
1, 97888, Note_on_c, 0, 67, 0
1, 97888, Note_on_c, 1, 48, 0
1, 97920, Note_on_c, 0, 69, 75
1, 97920, Note_on_c, 1, 40, 75
1, 97984, Note_on_c, 0, 69, 0
1, 97984, Note_on_c, 1, 40, 0
1, 98016, Note_on_c, 0, 69, 75
1, 98016, Note_on_c, 1, 48, 75
1, 98048, Note_on_c, 0, 69, 0
1, 98064, Note_on_c, 0, 67, 75
1, 98080, Note_on_c, 1, 48, 0
1, 98096, Note_on_c, 0, 67, 0
1, 98112, Note_on_c, 0, 69, 75
1, 98112, Note_on_c, 1, 45, 75
1, 98176, Note_on_c, 0, 69, 0
1, 98176, Note_on_c, 1, 45, 0
1, 98208, Note_on_c, 0, 70, 75
1, 98208, Note_on_c, 1, 48, 75
1, 98272, Note_on_c, 0, 70, 0
1, 98272, Note_on_c, 1, 48, 0
1, 98304, Note_on_c, 0, 69, 75
1, 98304, Note_on_c, 1, 36, 75
1, 98368, Note_on_c, 1, 36, 0
1, 98400, Note_on_c, 1, 48, 75
1, 98432, Note_on_c, 0, 69, 0
1, 98464, Note_on_c, 1, 48, 0
1, 98496, Note_on_c, 0, 67, 75
1, 98496, Note_on_c, 1, 43, 75
1, 98560, Note_on_c, 1, 43, 0
1, 98592, Note_on_c, 1, 48, 75
1, 98624, Note_on_c, 0, 67, 0
1, 98656, Note_on_c, 1, 48, 0
1, 98688, Note_on_c, 0, 65, 75
1, 98688, Note_on_c, 1, 36, 75
1, 98752, Note_on_c, 0, 65, 0
1, 98752, Note_on_c, 1, 36, 0
1, 98784, Note_on_c, 0, 64, 75
1, 98784, Note_on_c, 1, 46, 75
1, 98848, Note_on_c, 0, 64, 0
1, 98848, Note_on_c, 1, 46, 0
1, 98880, Note_on_c, 0, 62, 75
1, 98880, Note_on_c, 1, 43, 75
1, 98944, Note_on_c, 0, 62, 0
1, 98944, Note_on_c, 1, 43, 0
1, 98976, Note_on_c, 0, 60, 75
1, 98976, Note_on_c, 1, 46, 75
1, 99040, Note_on_c, 0, 60, 0
1, 99040, Note_on_c, 1, 46, 0
1, 99072, Note_on_c, 0, 65, 75
1, 99072, Note_on_c, 1, 45, 75
1, 99072, Note_on_c, 1, 41, 75
1, 99136, Note_on_c, 0, 65, 0
1, 99168, Note_on_c, 0, 65, 75
1, 99200, Note_on_c, 0, 65, 0
1, 99200, Note_on_c, 1, 45, 0
1, 99200, Note_on_c, 1, 41, 0
1, 99216, Note_on_c, 0, 64, 75
1, 99248, Note_on_c, 0, 64, 0
1, 99264, Note_on_c, 0, 65, 75
1, 99328, Note_on_c, 0, 65, 0
1, 99360, Note_on_c, 0, 67, 75
1, 99424, Note_on_c, 0, 67, 0
1, 99456, Note_on_c, 0, 69, 75
1, 99520, Note_on_c, 0, 69, 0
1, 99552, Note_on_c, 0, 69, 75
1, 99584, Note_on_c, 0, 69, 0
1, 99600, Note_on_c, 0, 67, 75
1, 99632, Note_on_c, 0, 67, 0
1, 99648, Note_on_c, 0, 69, 75
1, 99712, Note_on_c, 0, 69, 0
1, 99744, Note_on_c, 0, 70, 75
1, 99808, Note_on_c, 0, 70, 0
1, 99840, Note_on_c, 0, 72, 75
1, 99840, Note_on_c, 1, 57, 75
1, 99904, Note_on_c, 0, 72, 0
1, 99904, Note_on_c, 1, 57, 0
1, 99936, Note_on_c, 0, 72, 75
1, 99952, Note_on_c, 1, 57, 75
1, 99968, Note_on_c, 0, 72, 0
1, 99984, Note_on_c, 0, 70, 75
1, 99984, Note_on_c, 1, 57, 0
1, 99984, Note_on_c, 1, 55, 75
1, 100016, Note_on_c, 0, 70, 0
1, 100016, Note_on_c, 1, 55, 0
1, 100032, Note_on_c, 0, 72, 75
1, 100032, Note_on_c, 1, 57, 75
1, 100096, Note_on_c, 0, 72, 0
1, 100096, Note_on_c, 1, 57, 0
1, 100128, Note_on_c, 0, 74, 75
1, 100128, Note_on_c, 1, 58, 75
1, 100192, Note_on_c, 0, 74, 0
1, 100192, Note_on_c, 1, 58, 0
1, 100224, Note_on_c, 0, 76, 75
1, 100224, Note_on_c, 1, 60, 75
1, 100288, Note_on_c, 0, 76, 0
1, 100288, Note_on_c, 1, 60, 0
1, 100304, Note_on_c, 1, 60, 75
1, 100320, Note_on_c, 0, 76, 75
1, 100336, Note_on_c, 1, 60, 0
1, 100352, Note_on_c, 0, 76, 0
1, 100352, Note_on_c, 1, 58, 75
1, 100368, Note_on_c, 0, 74, 75
1, 100384, Note_on_c, 1, 58, 0
1, 100400, Note_on_c, 0, 74, 0
1, 100416, Note_on_c, 0, 76, 75
1, 100416, Note_on_c, 1, 60, 75
1, 100480, Note_on_c, 0, 76, 0
1, 100480, Note_on_c, 1, 60, 0
1, 100512, Note_on_c, 0, 77, 75
1, 100512, Note_on_c, 1, 62, 75
1, 100576, Note_on_c, 0, 77, 0
1, 100576, Note_on_c, 1, 62, 0
1, 100608, Note_on_c, 0, 77, 75
1, 100672, Note_on_c, 0, 77, 0
1, 100704, Note_on_c, 0, 74, 75
1, 100768, Note_on_c, 0, 74, 0
1, 100800, Note_on_c, 0, 77, 75
1, 100800, Note_on_c, 0, 74, 75
1, 100800, Note_on_c, 1, 58, 75
1, 100864, Note_on_c, 0, 77, 0
1, 100864, Note_on_c, 0, 74, 0
1, 100896, Note_on_c, 0, 74, 75
1, 100896, Note_on_c, 0, 70, 75
1, 100928, Note_on_c, 1, 58, 0
1, 100960, Note_on_c, 0, 74, 0
1, 100960, Note_on_c, 0, 70, 0
1, 100992, Note_on_c, 0, 72, 75
1, 100992, Note_on_c, 0, 69, 75
1, 100992, Note_on_c, 1, 60, 75
1, 101056, Note_on_c, 0, 72, 0
1, 101056, Note_on_c, 0, 69, 0
1, 101088, Note_on_c, 0, 69, 75
1, 101088, Note_on_c, 0, 65, 75
1, 101120, Note_on_c, 1, 60, 0
1, 101152, Note_on_c, 0, 69, 0
1, 101152, Note_on_c, 0, 65, 0
1, 101184, Note_on_c, 0, 70, 75
1, 101184, Note_on_c, 0, 67, 75
1, 101184, Note_on_c, 1, 48, 75
1, 101248, Note_on_c, 0, 70, 0
1, 101248, Note_on_c, 0, 67, 0
1, 101280, Note_on_c, 0, 67, 75
1, 101280, Note_on_c, 0, 64, 75
1, 101312, Note_on_c, 1, 48, 0
1, 101344, Note_on_c, 0, 67, 0
1, 101344, Note_on_c, 0, 64, 0
1, 101376, Note_on_c, 0, 65, 50
1, 101376, Note_on_c, 1, 53, 50
1, 101504, Note_on_c, 0, 65, 0
1, 101568, Note_on_c, 0, 69, 50
1, 101632, Note_on_c, 1, 53, 0
1, 101696, Note_on_c, 0, 69, 0
1, 101760, Note_on_c, 0, 72, 50
1, 101888, Note_on_c, 0, 72, 0
1, 101952, Note_on_c, 0, 76, 50
1, 102080, Note_on_c, 0, 76, 0
1, 102144, Note_on_c, 0, 77, 75
1, 102272, Note_on_c, 0, 77, 0
1, 102336, Note_on_c, 0, 84, 50
1, 102336, Note_on_c, 0, 65, 50
1, 102336, Note_on_c, 0, 69, 50
1, 102464, Note_on_c, 0, 65, 0
1, 102464, Note_on_c, 0, 69, 0
1, 102528, Note_on_c, 0, 65, 50
1, 102528, Note_on_c, 0, 69, 75
1, 102592, Note_on_c, 0, 84, 0
1, 102656, Note_on_c, 0, 65, 0
1, 102656, Note_on_c, 0, 69, 0
1, 102720, Note_on_c, 0, 79, 50
1, 102720, Note_on_c, 0, 65, 50
1, 102720, Note_on_c, 0, 69, 50
1, 102752, Note_on_c, 0, 79, 0
1, 102768, Note_on_c, 0, 77, 50
1, 102800, Note_on_c, 0, 77, 0
1, 102816, Note_on_c, 0, 76, 50
1, 102848, Note_on_c, 0, 65, 0
1, 102848, Note_on_c, 0, 69, 0
1, 102848, Note_on_c, 0, 76, 0
1, 102864, Note_on_c, 0, 74, 50
1, 102896, Note_on_c, 0, 74, 0
1, 102912, Note_on_c, 0, 73, 50
1, 102912, Note_on_c, 0, 70, 50
1, 102912, Note_on_c, 0, 67, 50
1, 102912, Note_on_c, 0, 64, 50
1, 103040, Note_on_c, 0, 73, 0
1, 103040, Note_on_c, 0, 70, 0
1, 103040, Note_on_c, 0, 67, 0
1, 103040, Note_on_c, 0, 64, 0
1, 103104, Note_on_c, 0, 76, 50
1, 103232, Note_on_c, 0, 76, 0
1, 103296, Note_on_c, 0, 79, 50
1, 103424, Note_on_c, 0, 79, 0
1, 103488, Note_on_c, 0, 82, 50
1, 103616, Note_on_c, 0, 82, 0
1, 103680, Note_on_c, 0, 85, 75
1, 103808, Note_on_c, 0, 85, 0
1, 103872, Note_on_c, 0, 88, 75
1, 103872, Note_on_c, 0, 61, 50
1, 103872, Note_on_c, 0, 67, 50
1, 103872, Note_on_c, 0, 69, 50
1, 104000, Note_on_c, 0, 61, 0
1, 104000, Note_on_c, 0, 67, 0
1, 104000, Note_on_c, 0, 69, 0
1, 104064, Note_on_c, 0, 61, 50
1, 104064, Note_on_c, 0, 67, 50
1, 104064, Note_on_c, 0, 69, 50
1, 104128, Note_on_c, 0, 88, 0
1, 104192, Note_on_c, 0, 61, 0
1, 104192, Note_on_c, 0, 67, 0
1, 104192, Note_on_c, 0, 69, 0
1, 104256, Note_on_c, 0, 86, 50
1, 104256, Note_on_c, 0, 61, 50
1, 104256, Note_on_c, 0, 67, 50
1, 104256, Note_on_c, 0, 69, 50
1, 104288, Note_on_c, 0, 86, 0
1, 104304, Note_on_c, 0, 84, 50
1, 104336, Note_on_c, 0, 84, 0
1, 104352, Note_on_c, 0, 83, 50
1, 104384, Note_on_c, 0, 61, 0
1, 104384, Note_on_c, 0, 67, 0
1, 104384, Note_on_c, 0, 69, 0
1, 104384, Note_on_c, 0, 83, 0
1, 104400, Note_on_c, 0, 81, 50
1, 104432, Note_on_c, 0, 81, 0
1, 104448, Note_on_c, 0, 89, 75
1, 104448, Note_on_c, 0, 62, 75
1, 104448, Note_on_c, 0, 65, 75
1, 104448, Note_on_c, 0, 69, 75
1, 104512, Note_on_c, 0, 89, 0
1, 104576, Note_on_c, 0, 62, 0
1, 104576, Note_on_c, 0, 65, 0
1, 104576, Note_on_c, 0, 69, 0
1, 104576, Note_on_c, 0, 81, 75
1, 104640, Note_on_c, 0, 81, 0
1, 104640, Note_on_c, 0, 83, 75
1, 104640, Note_on_c, 0, 65, 75
1, 104704, Note_on_c, 0, 83, 0
1, 104736, Note_on_c, 0, 86, 75
1, 104768, Note_on_c, 0, 65, 0
1, 104800, Note_on_c, 0, 86, 0
1, 104832, Note_on_c, 0, 88, 75
1, 104832, Note_on_c, 0, 60, 75
1, 104832, Note_on_c, 0, 67, 75
1, 104896, Note_on_c, 0, 88, 0
1, 104928, Note_on_c, 0, 78, 75
1, 104960, Note_on_c, 0, 60, 0
1, 104960, Note_on_c, 0, 67, 0
1, 104992, Note_on_c, 0, 78, 0
1, 105024, Note_on_c, 0, 79, 75
1, 105024, Note_on_c, 0, 64, 75
1, 105024, Note_on_c, 0, 72, 75
1, 105088, Note_on_c, 0, 79, 0
1, 105120, Note_on_c, 0, 84, 75
1, 105152, Note_on_c, 0, 64, 0
1, 105152, Note_on_c, 0, 72, 0
1, 105184, Note_on_c, 0, 84, 0
1, 105216, Note_on_c, 0, 88, 75
1, 105216, Note_on_c, 0, 65, 75
1, 105216, Note_on_c, 0, 69, 75
1, 105280, Note_on_c, 0, 88, 0
1, 105344, Note_on_c, 0, 65, 0
1, 105344, Note_on_c, 0, 69, 0
1, 105344, Note_on_c, 0, 86, 75
1, 105408, Note_on_c, 0, 86, 0
1, 105408, Note_on_c, 0, 86, 75
1, 105408, Note_on_c, 0, 65, 75
1, 105408, Note_on_c, 0, 69, 75
1, 105536, Note_on_c, 0, 65, 0
1, 105536, Note_on_c, 0, 69, 0
1, 105600, Note_on_c, 0, 65, 75
1, 105600, Note_on_c, 0, 69, 75
1, 105664, Note_on_c, 0, 86, 0
1, 105728, Note_on_c, 0, 65, 0
1, 105728, Note_on_c, 0, 69, 0
1, 105792, Note_on_c, 0, 66, 75
1, 105792, Note_on_c, 0, 69, 75
1, 105792, Note_on_c, 0, 74, 75
1, 105792, Note_on_c, 0, 84, 75
1, 105812, Note_on_c, 0, 84, 0
1, 105816, Note_on_c, 0, 86, 75
1, 105836, Note_on_c, 0, 86, 0
1, 105840, Note_on_c, 0, 84, 75
1, 105860, Note_on_c, 0, 84, 0
1, 105864, Note_on_c, 0, 86, 75
1, 105884, Note_on_c, 0, 86, 0
1, 105888, Note_on_c, 0, 84, 75
1, 105908, Note_on_c, 0, 84, 0
1, 105912, Note_on_c, 0, 86, 75
1, 105920, Note_on_c, 0, 66, 0
1, 105920, Note_on_c, 0, 69, 0
1, 105920, Note_on_c, 0, 74, 0
1, 105932, Note_on_c, 0, 86, 0
1, 105936, Note_on_c, 0, 83, 75
1, 105956, Note_on_c, 0, 83, 0
1, 105960, Note_on_c, 0, 84, 75
1, 105984, Note_on_c, 0, 83, 75
1, 105984, Note_on_c, 0, 74, 75
1, 105984, Note_on_c, 0, 71, 75
1, 105984, Note_on_c, 0, 67, 75
1, 105988, Note_on_c, 0, 84, 0
1, 106032, Note_on_c, 0, 83, 0
1, 106048, Note_on_c, 0, 86, 75
1, 106096, Note_on_c, 0, 86, 0
1, 106112, Note_on_c, 0, 84, 75
1, 106160, Note_on_c, 0, 84, 0
1, 106176, Note_on_c, 0, 83, 75
1, 106224, Note_on_c, 0, 83, 0
1, 106240, Note_on_c, 0, 74, 0
1, 106240, Note_on_c, 0, 71, 0
1, 106240, Note_on_c, 0, 67, 0
1, 106240, Note_on_c, 0, 81, 75
1, 106288, Note_on_c, 0, 81, 0
1, 106304, Note_on_c, 0, 79, 75
1, 106352, Note_on_c, 0, 79, 0
1, 106368, Note_on_c, 0, 78, 75
1, 106416, Note_on_c, 0, 78, 0
1, 106432, Note_on_c, 0, 81, 75
1, 106480, Note_on_c, 0, 81, 0
1, 106496, Note_on_c, 0, 79, 75
1, 106544, Note_on_c, 0, 79, 0
1, 106560, Note_on_c, 0, 83, 75
1, 106608, Note_on_c, 0, 83, 0
1, 106624, Note_on_c, 0, 74, 75
1, 106672, Note_on_c, 0, 74, 0
1, 106688, Note_on_c, 0, 77, 75
1, 106736, Note_on_c, 0, 77, 0
1, 106752, Note_on_c, 0, 76, 75
1, 106752, Note_on_c, 0, 67, 75
1, 106752, Note_on_c, 0, 72, 75
1, 106800, Note_on_c, 0, 76, 0
1, 106816, Note_on_c, 0, 79, 75
1, 106864, Note_on_c, 0, 79, 0
1, 106880, Note_on_c, 0, 77, 75
1, 106928, Note_on_c, 0, 77, 0
1, 106944, Note_on_c, 0, 76, 75
1, 106992, Note_on_c, 0, 76, 0
1, 107008, Note_on_c, 0, 67, 0
1, 107008, Note_on_c, 0, 72, 0
1, 107008, Note_on_c, 0, 74, 75
1, 107056, Note_on_c, 0, 74, 0
1, 107072, Note_on_c, 0, 72, 75
1, 107120, Note_on_c, 0, 72, 0
1, 107136, Note_on_c, 0, 71, 75
1, 107184, Note_on_c, 0, 71, 0
1, 107200, Note_on_c, 0, 74, 75
1, 107248, Note_on_c, 0, 74, 0
1, 107264, Note_on_c, 0, 72, 75
1, 107312, Note_on_c, 0, 72, 0
1, 107328, Note_on_c, 0, 76, 75
1, 107376, Note_on_c, 0, 76, 0
1, 107392, Note_on_c, 0, 69, 75
1, 107440, Note_on_c, 0, 69, 0
1, 107456, Note_on_c, 0, 72, 75
1, 107504, Note_on_c, 0, 72, 0
1, 107520, Note_on_c, 0, 71, 75
1, 107520, Note_on_c, 1, 59, 75
1, 107568, Note_on_c, 0, 71, 0
1, 107568, Note_on_c, 1, 59, 0
1, 107584, Note_on_c, 0, 74, 75
1, 107584, Note_on_c, 1, 62, 75
1, 107632, Note_on_c, 0, 74, 0
1, 107632, Note_on_c, 1, 62, 0
1, 107648, Note_on_c, 0, 72, 75
1, 107648, Note_on_c, 1, 60, 75
1, 107696, Note_on_c, 0, 72, 0
1, 107696, Note_on_c, 1, 60, 0
1, 107712, Note_on_c, 0, 71, 75
1, 107712, Note_on_c, 1, 59, 75
1, 107760, Note_on_c, 0, 71, 0
1, 107760, Note_on_c, 1, 59, 0
1, 107776, Note_on_c, 0, 69, 75
1, 107776, Note_on_c, 1, 57, 75
1, 107824, Note_on_c, 0, 69, 0
1, 107824, Note_on_c, 1, 57, 0
1, 107840, Note_on_c, 0, 67, 75
1, 107840, Note_on_c, 1, 55, 75
1, 107888, Note_on_c, 0, 67, 0
1, 107888, Note_on_c, 1, 55, 0
1, 107904, Note_on_c, 0, 66, 75
1, 107904, Note_on_c, 1, 54, 75
1, 107952, Note_on_c, 0, 66, 0
1, 107952, Note_on_c, 1, 54, 0
1, 107968, Note_on_c, 0, 69, 75
1, 107968, Note_on_c, 1, 57, 75
1, 108016, Note_on_c, 0, 69, 0
1, 108016, Note_on_c, 1, 57, 0
1, 108032, Note_on_c, 0, 67, 75
1, 108032, Note_on_c, 1, 55, 75
1, 108080, Note_on_c, 0, 67, 0
1, 108080, Note_on_c, 1, 55, 0
1, 108096, Note_on_c, 0, 71, 75
1, 108096, Note_on_c, 1, 59, 75
1, 108144, Note_on_c, 0, 71, 0
1, 108144, Note_on_c, 1, 59, 0
1, 108160, Note_on_c, 0, 62, 75
1, 108160, Note_on_c, 1, 50, 75
1, 108208, Note_on_c, 0, 62, 0
1, 108208, Note_on_c, 1, 50, 0
1, 108224, Note_on_c, 0, 65, 75
1, 108224, Note_on_c, 1, 53, 75
1, 108272, Note_on_c, 0, 65, 0
1, 108272, Note_on_c, 1, 53, 0
1, 108288, Note_on_c, 0, 64, 75
1, 108288, Note_on_c, 1, 52, 75
1, 108336, Note_on_c, 0, 64, 0
1, 108336, Note_on_c, 1, 52, 0
1, 108352, Note_on_c, 0, 67, 75
1, 108352, Note_on_c, 1, 55, 75
1, 108400, Note_on_c, 0, 67, 0
1, 108400, Note_on_c, 1, 55, 0
1, 108416, Note_on_c, 0, 65, 75
1, 108416, Note_on_c, 1, 53, 75
1, 108464, Note_on_c, 0, 65, 0
1, 108464, Note_on_c, 1, 53, 0
1, 108480, Note_on_c, 0, 64, 75
1, 108480, Note_on_c, 1, 52, 75
1, 108528, Note_on_c, 0, 64, 0
1, 108528, Note_on_c, 1, 52, 0
1, 108544, Note_on_c, 0, 62, 75
1, 108544, Note_on_c, 1, 50, 75
1, 108592, Note_on_c, 0, 62, 0
1, 108592, Note_on_c, 1, 50, 0
1, 108608, Note_on_c, 0, 60, 75
1, 108608, Note_on_c, 1, 48, 75
1, 108656, Note_on_c, 0, 60, 0
1, 108656, Note_on_c, 1, 48, 0
1, 108672, Note_on_c, 0, 59, 75
1, 108672, Note_on_c, 1, 47, 75
1, 108720, Note_on_c, 0, 59, 0
1, 108720, Note_on_c, 1, 47, 0
1, 108736, Note_on_c, 0, 62, 75
1, 108736, Note_on_c, 1, 50, 75
1, 108784, Note_on_c, 0, 62, 0
1, 108784, Note_on_c, 1, 50, 0
1, 108800, Note_on_c, 0, 60, 75
1, 108800, Note_on_c, 1, 48, 75
1, 108848, Note_on_c, 0, 60, 0
1, 108848, Note_on_c, 1, 48, 0
1, 108864, Note_on_c, 0, 64, 75
1, 108864, Note_on_c, 1, 52, 75
1, 108912, Note_on_c, 0, 64, 0
1, 108912, Note_on_c, 1, 52, 0
1, 108928, Note_on_c, 1, 42, 75
1, 108928, Note_on_c, 1, 54, 75
1, 108976, Note_on_c, 1, 42, 0
1, 108976, Note_on_c, 1, 54, 0
1, 108992, Note_on_c, 1, 57, 75
1, 108992, Note_on_c, 1, 45, 75
1, 109040, Note_on_c, 1, 57, 0
1, 109040, Note_on_c, 1, 45, 0
1, 109056, Note_on_c, 1, 55, 75
1, 109056, Note_on_c, 1, 43, 75
1, 109104, Note_on_c, 1, 55, 0
1, 109104, Note_on_c, 1, 43, 0
1, 109120, Note_on_c, 1, 57, 75
1, 109120, Note_on_c, 1, 45, 75
1, 109168, Note_on_c, 1, 57, 0
1, 109168, Note_on_c, 1, 45, 0
1, 109184, Note_on_c, 1, 54, 75
1, 109184, Note_on_c, 1, 42, 75
1, 109232, Note_on_c, 1, 54, 0
1, 109232, Note_on_c, 1, 42, 0
1, 109248, Note_on_c, 1, 55, 75
1, 109248, Note_on_c, 1, 43, 75
1, 109296, Note_on_c, 1, 55, 0
1, 109296, Note_on_c, 1, 43, 0
1, 109312, Note_on_c, 1, 57, 75
1, 109312, Note_on_c, 1, 45, 75
1, 109360, Note_on_c, 1, 57, 0
1, 109360, Note_on_c, 1, 45, 0
1, 109376, Note_on_c, 1, 42, 75
1, 109376, Note_on_c, 1, 54, 75
1, 109424, Note_on_c, 1, 42, 0
1, 109424, Note_on_c, 1, 54, 0
1, 109440, Note_on_c, 1, 55, 75
1, 109440, Note_on_c, 1, 43, 75
1, 109488, Note_on_c, 1, 55, 0
1, 109488, Note_on_c, 1, 43, 0
1, 109504, Note_on_c, 1, 57, 75
1, 109504, Note_on_c, 1, 45, 75
1, 109552, Note_on_c, 1, 57, 0
1, 109552, Note_on_c, 1, 45, 0
1, 109568, Note_on_c, 1, 54, 75
1, 109568, Note_on_c, 1, 42, 75
1, 109616, Note_on_c, 1, 54, 0
1, 109616, Note_on_c, 1, 42, 0
1, 109632, Note_on_c, 1, 55, 75
1, 109632, Note_on_c, 1, 43, 75
1, 109680, Note_on_c, 1, 55, 0
1, 109680, Note_on_c, 1, 43, 0
1, 109696, Note_on_c, 1, 45, 75
1, 109696, Note_on_c, 1, 57, 75
1, 109744, Note_on_c, 1, 45, 0
1, 109744, Note_on_c, 1, 57, 0
1, 109760, Note_on_c, 1, 55, 75
1, 109760, Note_on_c, 1, 43, 75
1, 109808, Note_on_c, 1, 55, 0
1, 109808, Note_on_c, 1, 43, 0
1, 109824, Note_on_c, 1, 55, 75
1, 109824, Note_on_c, 1, 43, 75
1, 109952, Note_on_c, 1, 55, 0
1, 109952, Note_on_c, 1, 43, 0
1, 110016, Note_on_c, 0, 62, 75
1, 110016, Note_on_c, 0, 59, 75
1, 110144, Note_on_c, 0, 62, 0
1, 110144, Note_on_c, 0, 59, 0
1, 110208, Note_on_c, 0, 64, 75
1, 110208, Note_on_c, 0, 60, 75
1, 110336, Note_on_c, 0, 64, 0
1, 110336, Note_on_c, 0, 60, 0
1, 110400, Note_on_c, 0, 67, 75
1, 110400, Note_on_c, 0, 65, 75
1, 110400, Note_on_c, 0, 62, 75
1, 110528, Note_on_c, 0, 67, 0
1, 110528, Note_on_c, 0, 65, 0
1, 110528, Note_on_c, 0, 62, 0
1, 110592, Note_on_c, 0, 79, 75
1, 110592, Note_on_c, 0, 64, 75
1, 110592, Note_on_c, 0, 60, 75
1, 110640, Note_on_c, 0, 79, 0
1, 110656, Note_on_c, 0, 81, 75
1, 110704, Note_on_c, 0, 81, 0
1, 110720, Note_on_c, 0, 79, 75
1, 110768, Note_on_c, 0, 79, 0
1, 110784, Note_on_c, 0, 77, 75
1, 110832, Note_on_c, 0, 77, 0
1, 110848, Note_on_c, 0, 64, 0
1, 110848, Note_on_c, 0, 60, 0
1, 110848, Note_on_c, 0, 76, 75
1, 110896, Note_on_c, 0, 76, 0
1, 110912, Note_on_c, 0, 74, 75
1, 110960, Note_on_c, 0, 74, 0
1, 110976, Note_on_c, 0, 76, 75
1, 111024, Note_on_c, 0, 76, 0
1, 111040, Note_on_c, 0, 77, 75
1, 111088, Note_on_c, 0, 77, 0
1, 111104, Note_on_c, 0, 76, 75
1, 111152, Note_on_c, 0, 76, 0
1, 111168, Note_on_c, 0, 74, 75
1, 111216, Note_on_c, 0, 74, 0
1, 111232, Note_on_c, 0, 72, 75
1, 111280, Note_on_c, 0, 72, 0
1, 111296, Note_on_c, 0, 71, 75
1, 111344, Note_on_c, 0, 71, 0
1, 111360, Note_on_c, 0, 72, 75
1, 111408, Note_on_c, 0, 72, 0
1, 111424, Note_on_c, 0, 74, 75
1, 111472, Note_on_c, 0, 74, 0
1, 111488, Note_on_c, 0, 72, 75
1, 111536, Note_on_c, 0, 72, 0
1, 111552, Note_on_c, 0, 71, 75
1, 111600, Note_on_c, 0, 71, 0
1, 111616, Note_on_c, 0, 69, 75
1, 111664, Note_on_c, 0, 69, 0
1, 111680, Note_on_c, 0, 68, 75
1, 111728, Note_on_c, 0, 68, 0
1, 111744, Note_on_c, 0, 69, 75
1, 111792, Note_on_c, 0, 69, 0
1, 111808, Note_on_c, 0, 71, 75
1, 111856, Note_on_c, 0, 71, 0
1, 111872, Note_on_c, 0, 69, 75
1, 111920, Note_on_c, 0, 69, 0
1, 111936, Note_on_c, 0, 67, 75
1, 111984, Note_on_c, 0, 67, 0
1, 112000, Note_on_c, 0, 65, 75
1, 112048, Note_on_c, 0, 65, 0
1, 112064, Note_on_c, 0, 64, 75
1, 112112, Note_on_c, 0, 64, 0
1, 112128, Note_on_c, 0, 67, 75
1, 112320, Note_on_c, 0, 67, 0
1, 112320, Note_on_c, 1, 57, 75
1, 112320, Note_on_c, 1, 50, 75
1, 112320, Note_on_c, 1, 48, 75
1, 112416, Note_on_c, 0, 69, 75
1, 112448, Note_on_c, 0, 69, 0
1, 112448, Note_on_c, 1, 57, 0
1, 112448, Note_on_c, 1, 50, 0
1, 112448, Note_on_c, 1, 48, 0
1, 112464, Note_on_c, 0, 67, 75
1, 112496, Note_on_c, 0, 67, 0
1, 112512, Note_on_c, 0, 65, 75
1, 112512, Note_on_c, 1, 57, 75
1, 112512, Note_on_c, 1, 50, 75
1, 112512, Note_on_c, 1, 48, 75
1, 112640, Note_on_c, 0, 65, 0
1, 112640, Note_on_c, 1, 57, 0
1, 112640, Note_on_c, 1, 50, 0
1, 112640, Note_on_c, 1, 48, 0
1, 112704, Note_on_c, 1, 57, 75
1, 112704, Note_on_c, 1, 50, 75
1, 112704, Note_on_c, 1, 48, 75
1, 112800, Note_on_c, 0, 65, 50
1, 112832, Note_on_c, 1, 57, 0
1, 112832, Note_on_c, 1, 50, 0
1, 112832, Note_on_c, 1, 48, 0
1, 112864, Note_on_c, 0, 65, 0
1, 112896, Note_on_c, 0, 65, 50
1, 113088, Note_on_c, 0, 65, 0
1, 113088, Note_on_c, 1, 56, 50
1, 113088, Note_on_c, 1, 50, 50
1, 113088, Note_on_c, 1, 48, 50
1, 113184, Note_on_c, 0, 68, 50
1, 113216, Note_on_c, 0, 68, 0
1, 113216, Note_on_c, 1, 56, 0
1, 113216, Note_on_c, 1, 50, 0
1, 113216, Note_on_c, 1, 48, 0
1, 113232, Note_on_c, 0, 67, 50
1, 113264, Note_on_c, 0, 67, 0
1, 113280, Note_on_c, 0, 65, 50
1, 113280, Note_on_c, 1, 56, 50
1, 113280, Note_on_c, 1, 50, 50
1, 113280, Note_on_c, 1, 48, 50
1, 113408, Note_on_c, 0, 65, 0
1, 113408, Note_on_c, 1, 56, 0
1, 113408, Note_on_c, 1, 50, 0
1, 113408, Note_on_c, 1, 48, 0
1, 113472, Note_on_c, 1, 56, 50
1, 113472, Note_on_c, 1, 50, 50
1, 113472, Note_on_c, 1, 48, 50
1, 113568, Note_on_c, 0, 65, 75
1, 113600, Note_on_c, 1, 56, 0
1, 113600, Note_on_c, 1, 50, 0
1, 113600, Note_on_c, 1, 48, 0
1, 113632, Note_on_c, 0, 65, 0
1, 113664, Note_on_c, 0, 77, 75
1, 113664, Note_on_c, 1, 55, 75
1, 113664, Note_on_c, 1, 50, 75
1, 113664, Note_on_c, 1, 47, 75
1, 113712, Note_on_c, 0, 77, 0
1, 113728, Note_on_c, 0, 79, 75
1, 113776, Note_on_c, 0, 79, 0
1, 113792, Note_on_c, 0, 77, 75
1, 113840, Note_on_c, 0, 77, 0
1, 113856, Note_on_c, 0, 76, 75
1, 113904, Note_on_c, 0, 76, 0
1, 113920, Note_on_c, 0, 74, 75
1, 113920, Note_on_c, 1, 55, 0
1, 113920, Note_on_c, 1, 50, 0
1, 113920, Note_on_c, 1, 47, 0
1, 113968, Note_on_c, 0, 74, 0
1, 113984, Note_on_c, 0, 73, 75
1, 114032, Note_on_c, 0, 73, 0
1, 114048, Note_on_c, 0, 74, 75
1, 114096, Note_on_c, 0, 74, 0
1, 114112, Note_on_c, 0, 76, 75
1, 114160, Note_on_c, 0, 76, 0
1, 114176, Note_on_c, 0, 74, 75
1, 114224, Note_on_c, 0, 74, 0
1, 114240, Note_on_c, 0, 72, 75
1, 114288, Note_on_c, 0, 72, 0
1, 114304, Note_on_c, 0, 71, 75
1, 114352, Note_on_c, 0, 71, 0
1, 114368, Note_on_c, 0, 70, 75
1, 114416, Note_on_c, 0, 70, 0
1, 114432, Note_on_c, 0, 71, 75
1, 114480, Note_on_c, 0, 71, 0
1, 114496, Note_on_c, 0, 72, 75
1, 114544, Note_on_c, 0, 72, 0
1, 114560, Note_on_c, 0, 71, 75
1, 114608, Note_on_c, 0, 71, 0
1, 114624, Note_on_c, 0, 69, 75
1, 114672, Note_on_c, 0, 69, 0
1, 114688, Note_on_c, 0, 67, 75
1, 114736, Note_on_c, 0, 67, 0
1, 114752, Note_on_c, 0, 66, 75
1, 114800, Note_on_c, 0, 66, 0
1, 114816, Note_on_c, 0, 67, 75
1, 114864, Note_on_c, 0, 67, 0
1, 114880, Note_on_c, 0, 69, 75
1, 114928, Note_on_c, 0, 69, 0
1, 114944, Note_on_c, 0, 67, 75
1, 114992, Note_on_c, 0, 67, 0
1, 115008, Note_on_c, 0, 65, 75
1, 115056, Note_on_c, 0, 65, 0
1, 115072, Note_on_c, 0, 64, 75
1, 115120, Note_on_c, 0, 64, 0
1, 115136, Note_on_c, 0, 62, 75
1, 115184, Note_on_c, 0, 62, 0
1, 115200, Note_on_c, 0, 64, 75
1, 115392, Note_on_c, 1, 55, 75
1, 115392, Note_on_c, 1, 48, 75
1, 115488, Note_on_c, 0, 67, 75
1, 115520, Note_on_c, 0, 67, 0
1, 115520, Note_on_c, 1, 55, 0
1, 115520, Note_on_c, 1, 48, 0
1, 115536, Note_on_c, 0, 65, 75
1, 115568, Note_on_c, 0, 65, 0
1, 115584, Note_on_c, 0, 64, 0
1, 115584, Note_on_c, 0, 64, 75
1, 115584, Note_on_c, 1, 55, 75
1, 115584, Note_on_c, 1, 48, 75
1, 115712, Note_on_c, 0, 64, 0
1, 115712, Note_on_c, 1, 55, 0
1, 115712, Note_on_c, 1, 48, 0
1, 115776, Note_on_c, 1, 55, 75
1, 115776, Note_on_c, 1, 48, 75
1, 115872, Note_on_c, 0, 64, 50
1, 115904, Note_on_c, 1, 55, 0
1, 115904, Note_on_c, 1, 48, 0
1, 115936, Note_on_c, 0, 64, 0
1, 115968, Note_on_c, 0, 64, 50
1, 116160, Note_on_c, 0, 64, 0
1, 116160, Note_on_c, 1, 55, 50
1, 116160, Note_on_c, 1, 48, 50
1, 116256, Note_on_c, 0, 67, 50
1, 116288, Note_on_c, 0, 67, 0
1, 116288, Note_on_c, 1, 55, 0
1, 116288, Note_on_c, 1, 48, 0
1, 116304, Note_on_c, 0, 65, 50
1, 116336, Note_on_c, 0, 65, 0
1, 116352, Note_on_c, 0, 64, 50
1, 116352, Note_on_c, 1, 55, 50
1, 116352, Note_on_c, 1, 48, 50
1, 116480, Note_on_c, 0, 64, 0
1, 116480, Note_on_c, 1, 55, 0
1, 116480, Note_on_c, 1, 48, 0
1, 116544, Note_on_c, 1, 55, 50
1, 116544, Note_on_c, 1, 48, 50
1, 116640, Note_on_c, 0, 79, 75
1, 116672, Note_on_c, 1, 55, 0
1, 116672, Note_on_c, 1, 48, 0
1, 116704, Note_on_c, 0, 79, 0
1, 116736, Note_on_c, 0, 84, 75
1, 116736, Note_on_c, 1, 60, 75
1, 116736, Note_on_c, 1, 55, 75
1, 116736, Note_on_c, 1, 52, 75
1, 116784, Note_on_c, 0, 84, 0
1, 116800, Note_on_c, 0, 86, 75
1, 116848, Note_on_c, 0, 86, 0
1, 116864, Note_on_c, 0, 84, 75
1, 116912, Note_on_c, 0, 84, 0
1, 116928, Note_on_c, 0, 81, 75
1, 116976, Note_on_c, 0, 81, 0
1, 116992, Note_on_c, 0, 79, 75
1, 116992, Note_on_c, 1, 60, 0
1, 116992, Note_on_c, 1, 55, 0
1, 116992, Note_on_c, 1, 52, 0
1, 117040, Note_on_c, 0, 79, 0
1, 117056, Note_on_c, 0, 78, 75
1, 117104, Note_on_c, 0, 78, 0
1, 117120, Note_on_c, 0, 79, 75
1, 117168, Note_on_c, 0, 79, 0
1, 117184, Note_on_c, 0, 81, 75
1, 117232, Note_on_c, 0, 81, 0
1, 117248, Note_on_c, 0, 79, 75
1, 117296, Note_on_c, 0, 79, 0
1, 117312, Note_on_c, 0, 77, 75
1, 117360, Note_on_c, 0, 77, 0
1, 117376, Note_on_c, 0, 76, 75
1, 117424, Note_on_c, 0, 76, 0
1, 117440, Note_on_c, 0, 74, 75
1, 117488, Note_on_c, 0, 74, 0
1, 117504, Note_on_c, 0, 76, 75
1, 117552, Note_on_c, 0, 76, 0
1, 117568, Note_on_c, 0, 77, 75
1, 117616, Note_on_c, 0, 77, 0
1, 117632, Note_on_c, 0, 76, 75
1, 117680, Note_on_c, 0, 76, 0
1, 117696, Note_on_c, 0, 74, 75
1, 117744, Note_on_c, 0, 74, 0
1, 117760, Note_on_c, 0, 72, 75
1, 117808, Note_on_c, 0, 72, 0
1, 117824, Note_on_c, 0, 71, 75
1, 117872, Note_on_c, 0, 71, 0
1, 117888, Note_on_c, 0, 72, 75
1, 117936, Note_on_c, 0, 72, 0
1, 117952, Note_on_c, 0, 74, 75
1, 118000, Note_on_c, 0, 74, 0
1, 118016, Note_on_c, 0, 72, 75
1, 118064, Note_on_c, 0, 72, 0
1, 118080, Note_on_c, 0, 67, 75
1, 118128, Note_on_c, 0, 67, 0
1, 118144, Note_on_c, 0, 65, 75
1, 118192, Note_on_c, 0, 65, 0
1, 118208, Note_on_c, 0, 64, 75
1, 118256, Note_on_c, 0, 64, 0
1, 118272, Note_on_c, 0, 62, 75
1, 118464, Note_on_c, 0, 62, 0
1, 118464, Note_on_c, 1, 53, 75
1, 118464, Note_on_c, 1, 57, 75
1, 118464, Note_on_c, 1, 60, 75
1, 118560, Note_on_c, 0, 65, 75
1, 118592, Note_on_c, 0, 65, 0
1, 118592, Note_on_c, 1, 53, 0
1, 118592, Note_on_c, 1, 57, 0
1, 118592, Note_on_c, 1, 60, 0
1, 118608, Note_on_c, 0, 64, 75
1, 118640, Note_on_c, 0, 64, 0
1, 118656, Note_on_c, 0, 62, 75
1, 118656, Note_on_c, 1, 53, 75
1, 118656, Note_on_c, 1, 57, 75
1, 118656, Note_on_c, 1, 60, 75
1, 118784, Note_on_c, 0, 62, 0
1, 118784, Note_on_c, 1, 53, 0
1, 118784, Note_on_c, 1, 57, 0
1, 118784, Note_on_c, 1, 60, 0
1, 118848, Note_on_c, 1, 53, 75
1, 118848, Note_on_c, 1, 57, 75
1, 118848, Note_on_c, 1, 60, 75
1, 118944, Note_on_c, 0, 62, 50
1, 118976, Note_on_c, 1, 53, 0
1, 118976, Note_on_c, 1, 57, 0
1, 118976, Note_on_c, 1, 60, 0
1, 119008, Note_on_c, 0, 62, 0
1, 119040, Note_on_c, 0, 62, 50
1, 119232, Note_on_c, 0, 62, 0
1, 119232, Note_on_c, 1, 60, 50
1, 119232, Note_on_c, 1, 57, 50
1, 119232, Note_on_c, 1, 53, 50
1, 119296, Note_on_c, 0, 65, 50
1, 119328, Note_on_c, 0, 65, 0
1, 119360, Note_on_c, 0, 64, 50
1, 119360, Note_on_c, 1, 60, 0
1, 119360, Note_on_c, 1, 57, 0
1, 119360, Note_on_c, 1, 53, 0
1, 119392, Note_on_c, 0, 64, 0
1, 119424, Note_on_c, 0, 62, 50
1, 119424, Note_on_c, 1, 60, 50
1, 119424, Note_on_c, 1, 57, 50
1, 119424, Note_on_c, 1, 53, 50
1, 119552, Note_on_c, 0, 62, 0
1, 119552, Note_on_c, 1, 60, 0
1, 119552, Note_on_c, 1, 57, 0
1, 119552, Note_on_c, 1, 53, 0
1, 119616, Note_on_c, 1, 60, 50
1, 119616, Note_on_c, 1, 57, 50
1, 119616, Note_on_c, 1, 53, 50
1, 119712, Note_on_c, 0, 74, 75
1, 119744, Note_on_c, 1, 60, 0
1, 119744, Note_on_c, 1, 57, 0
1, 119744, Note_on_c, 1, 53, 0
1, 119776, Note_on_c, 0, 74, 0
1, 119808, Note_on_c, 0, 84, 75
1, 119808, Note_on_c, 1, 62, 75
1, 119808, Note_on_c, 1, 57, 75
1, 119808, Note_on_c, 1, 53, 75
1, 119856, Note_on_c, 0, 84, 0
1, 119872, Note_on_c, 0, 86, 75
1, 119920, Note_on_c, 0, 86, 0
1, 119936, Note_on_c, 0, 84, 75
1, 119984, Note_on_c, 0, 84, 0
1, 120000, Note_on_c, 0, 83, 75
1, 120048, Note_on_c, 0, 83, 0
1, 120064, Note_on_c, 0, 81, 75
1, 120064, Note_on_c, 1, 62, 0
1, 120064, Note_on_c, 1, 57, 0
1, 120064, Note_on_c, 1, 53, 0
1, 120112, Note_on_c, 0, 81, 0
1, 120128, Note_on_c, 0, 80, 75
1, 120176, Note_on_c, 0, 80, 0
1, 120192, Note_on_c, 0, 81, 75
1, 120240, Note_on_c, 0, 81, 0
1, 120256, Note_on_c, 0, 83, 75
1, 120304, Note_on_c, 0, 83, 0
1, 120320, Note_on_c, 0, 81, 75
1, 120368, Note_on_c, 0, 81, 0
1, 120384, Note_on_c, 0, 79, 75
1, 120432, Note_on_c, 0, 79, 0
1, 120448, Note_on_c, 0, 77, 75
1, 120496, Note_on_c, 0, 77, 0
1, 120512, Note_on_c, 0, 76, 75
1, 120560, Note_on_c, 0, 76, 0
1, 120576, Note_on_c, 0, 77, 75
1, 120624, Note_on_c, 0, 77, 0
1, 120640, Note_on_c, 0, 79, 75
1, 120688, Note_on_c, 0, 79, 0
1, 120704, Note_on_c, 0, 77, 75
1, 120752, Note_on_c, 0, 77, 0
1, 120768, Note_on_c, 0, 76, 75
1, 120816, Note_on_c, 0, 76, 0
1, 120832, Note_on_c, 0, 74, 75
1, 120880, Note_on_c, 0, 74, 0
1, 120896, Note_on_c, 0, 73, 75
1, 120944, Note_on_c, 0, 73, 0
1, 120960, Note_on_c, 0, 74, 75
1, 121008, Note_on_c, 0, 74, 0
1, 121024, Note_on_c, 0, 76, 75
1, 121072, Note_on_c, 0, 76, 0
1, 121088, Note_on_c, 0, 74, 75
1, 121136, Note_on_c, 0, 74, 0
1, 121152, Note_on_c, 0, 72, 75
1, 121200, Note_on_c, 0, 72, 0
1, 121216, Note_on_c, 0, 71, 75
1, 121264, Note_on_c, 0, 71, 0
1, 121280, Note_on_c, 0, 69, 75
1, 121328, Note_on_c, 0, 69, 0
1, 121344, Note_on_c, 0, 71, 50
1, 121344, Note_on_c, 1, 59, 50
1, 121408, Note_on_c, 1, 59, 0
1, 121440, Note_on_c, 1, 62, 50
1, 121472, Note_on_c, 0, 71, 0
1, 121504, Note_on_c, 1, 62, 0
1, 121536, Note_on_c, 0, 77, 50
1, 121536, Note_on_c, 1, 59, 50
1, 121600, Note_on_c, 1, 59, 0
1, 121632, Note_on_c, 1, 62, 50
1, 121664, Note_on_c, 0, 77, 0
1, 121696, Note_on_c, 1, 62, 0
1, 121728, Note_on_c, 0, 77, 50
1, 121728, Note_on_c, 1, 59, 50
1, 121792, Note_on_c, 1, 59, 0
1, 121824, Note_on_c, 1, 62, 50
1, 121856, Note_on_c, 0, 77, 0
1, 121888, Note_on_c, 1, 62, 0
1, 121920, Note_on_c, 0, 77, 50
1, 121920, Note_on_c, 1, 59, 50
1, 121984, Note_on_c, 1, 59, 0
1, 122016, Note_on_c, 1, 62, 50
1, 122048, Note_on_c, 0, 77, 0
1, 122080, Note_on_c, 1, 62, 0
1, 122112, Note_on_c, 0, 77, 50
1, 122112, Note_on_c, 1, 59, 50
1, 122176, Note_on_c, 1, 59, 0
1, 122208, Note_on_c, 1, 62, 50
1, 122272, Note_on_c, 1, 62, 0
1, 122304, Note_on_c, 0, 77, 0
1, 122304, Note_on_c, 1, 59, 50
1, 122368, Note_on_c, 1, 59, 0
1, 122400, Note_on_c, 0, 74, 50
1, 122400, Note_on_c, 1, 62, 50
1, 122464, Note_on_c, 0, 74, 0
1, 122464, Note_on_c, 1, 62, 0
1, 122496, Note_on_c, 0, 71, 50
1, 122496, Note_on_c, 1, 59, 50
1, 122560, Note_on_c, 1, 59, 0
1, 122576, Note_on_c, 1, 62, 50
1, 122624, Note_on_c, 0, 71, 0
1, 122640, Note_on_c, 1, 62, 0
1, 122688, Note_on_c, 1, 59, 50
1, 122752, Note_on_c, 1, 59, 0
1, 122784, Note_on_c, 1, 62, 50
1, 122848, Note_on_c, 1, 62, 0
1, 122880, Note_on_c, 1, 59, 50
1, 122944, Note_on_c, 1, 59, 0
1, 122976, Note_on_c, 0, 65, 50
1, 122976, Note_on_c, 1, 62, 50
1, 123040, Note_on_c, 0, 65, 0
1, 123040, Note_on_c, 1, 62, 0
1, 123072, Note_on_c, 0, 77, 50
1, 123072, Note_on_c, 1, 59, 50
1, 123136, Note_on_c, 0, 77, 0
1, 123136, Note_on_c, 1, 59, 0
1, 123168, Note_on_c, 0, 77, 52
1, 123168, Note_on_c, 1, 62, 50
1, 123232, Note_on_c, 0, 77, 0
1, 123232, Note_on_c, 1, 62, 0
1, 123264, Note_on_c, 0, 77, 55
1, 123264, Note_on_c, 1, 59, 52
1, 123328, Note_on_c, 0, 77, 0
1, 123328, Note_on_c, 1, 59, 0
1, 123360, Note_on_c, 0, 77, 57
1, 123360, Note_on_c, 1, 62, 55
1, 123424, Note_on_c, 0, 77, 0
1, 123424, Note_on_c, 1, 62, 0
1, 123456, Note_on_c, 0, 77, 60
1, 123456, Note_on_c, 1, 59, 57
1, 123520, Note_on_c, 0, 77, 0
1, 123520, Note_on_c, 1, 59, 0
1, 123536, Note_on_c, 0, 77, 62
1, 123552, Note_on_c, 1, 62, 60
1, 123600, Note_on_c, 0, 77, 0
1, 123616, Note_on_c, 1, 62, 0
1, 123648, Note_on_c, 0, 77, 67
1, 123648, Note_on_c, 1, 59, 62
1, 123712, Note_on_c, 1, 59, 0
1, 123744, Note_on_c, 1, 62, 65
1, 123808, Note_on_c, 1, 62, 0
1, 123824, Note_on_c, 1, 59, 67
1, 123840, Note_on_c, 0, 77, 0
1, 123888, Note_on_c, 1, 59, 0
1, 123936, Note_on_c, 0, 74, 70
1, 123936, Note_on_c, 1, 62, 68
1, 124000, Note_on_c, 0, 74, 0
1, 124000, Note_on_c, 1, 62, 0
1, 124032, Note_on_c, 0, 71, 72
1, 124032, Note_on_c, 1, 59, 70
1, 124096, Note_on_c, 1, 59, 0
1, 124128, Note_on_c, 1, 62, 71
1, 124160, Note_on_c, 0, 71, 0
1, 124192, Note_on_c, 1, 62, 0
1, 124224, Note_on_c, 1, 59, 72
1, 124288, Note_on_c, 1, 59, 0
1, 124320, Note_on_c, 1, 62, 73
1, 124384, Note_on_c, 1, 62, 0
1, 124416, Note_on_c, 0, 77, 75
1, 124416, Note_on_c, 1, 59, 75
1, 124480, Note_on_c, 1, 59, 0
1, 124512, Note_on_c, 1, 62, 75
1, 124544, Note_on_c, 0, 77, 0
1, 124576, Note_on_c, 1, 62, 0
1, 124608, Note_on_c, 0, 77, 75
1, 124608, Note_on_c, 1, 59, 75
1, 124640, Note_on_c, 0, 77, 0
1, 124656, Note_on_c, 0, 74, 75
1, 124672, Note_on_c, 1, 59, 0
1, 124688, Note_on_c, 0, 74, 0
1, 124704, Note_on_c, 0, 77, 75
1, 124704, Note_on_c, 1, 62, 75
1, 124736, Note_on_c, 0, 77, 0
1, 124752, Note_on_c, 0, 74, 75
1, 124768, Note_on_c, 1, 62, 0
1, 124784, Note_on_c, 0, 74, 0
1, 124800, Note_on_c, 0, 71, 75
1, 124800, Note_on_c, 1, 59, 75
1, 124864, Note_on_c, 1, 59, 0
1, 124896, Note_on_c, 1, 62, 75
1, 124928, Note_on_c, 0, 71, 0
1, 124960, Note_on_c, 1, 62, 0
1, 124992, Note_on_c, 1, 59, 75
1, 125056, Note_on_c, 1, 59, 0
1, 125088, Note_on_c, 1, 62, 75
1, 125152, Note_on_c, 1, 62, 0
1, 125184, Note_on_c, 0, 67, 82
1, 125184, Note_on_c, 1, 60, 87
1, 125184, Note_on_c, 1, 52, 87
1, 125216, Note_on_c, 0, 67, 0
1, 125232, Note_on_c, 0, 79, 82
1, 125264, Note_on_c, 0, 79, 0
1, 125280, Note_on_c, 0, 67, 82
1, 125312, Note_on_c, 0, 67, 0
1, 125312, Note_on_c, 1, 60, 0
1, 125312, Note_on_c, 1, 52, 0
1, 125328, Note_on_c, 0, 79, 82
1, 125360, Note_on_c, 0, 79, 0
1, 125376, Note_on_c, 0, 67, 82
1, 125408, Note_on_c, 0, 67, 0
1, 125424, Note_on_c, 0, 79, 82
1, 125456, Note_on_c, 0, 79, 0
1, 125472, Note_on_c, 0, 67, 82
1, 125504, Note_on_c, 0, 67, 0
1, 125520, Note_on_c, 0, 79, 82
1, 125552, Note_on_c, 0, 79, 0
1, 125568, Note_on_c, 0, 67, 82
1, 125568, Note_on_c, 1, 64, 87
1, 125568, Note_on_c, 1, 60, 87
1, 125600, Note_on_c, 0, 67, 0
1, 125616, Note_on_c, 0, 79, 82
1, 125648, Note_on_c, 0, 79, 0
1, 125664, Note_on_c, 0, 67, 82
1, 125696, Note_on_c, 0, 67, 0
1, 125696, Note_on_c, 1, 64, 0
1, 125696, Note_on_c, 1, 60, 0
1, 125712, Note_on_c, 0, 79, 82
1, 125744, Note_on_c, 0, 79, 0
1, 125760, Note_on_c, 0, 67, 82
1, 125760, Note_on_c, 1, 59, 87
1, 125760, Note_on_c, 1, 65, 87
1, 125792, Note_on_c, 0, 67, 0
1, 125808, Note_on_c, 0, 79, 82
1, 125840, Note_on_c, 0, 79, 0
1, 125856, Note_on_c, 0, 67, 82
1, 125888, Note_on_c, 0, 67, 0
1, 125888, Note_on_c, 1, 59, 0
1, 125888, Note_on_c, 1, 65, 0
1, 125904, Note_on_c, 0, 79, 82
1, 125936, Note_on_c, 0, 79, 0
1, 125952, Note_on_c, 0, 67, 82
1, 125952, Note_on_c, 1, 64, 87
1, 125952, Note_on_c, 1, 60, 87
1, 125984, Note_on_c, 0, 67, 0
1, 126000, Note_on_c, 0, 79, 82
1, 126032, Note_on_c, 0, 79, 0
1, 126048, Note_on_c, 0, 67, 82
1, 126080, Note_on_c, 0, 67, 0
1, 126080, Note_on_c, 1, 64, 0
1, 126080, Note_on_c, 1, 60, 0
1, 126096, Note_on_c, 0, 79, 82
1, 126128, Note_on_c, 0, 79, 0
1, 126144, Note_on_c, 0, 67, 82
1, 126176, Note_on_c, 0, 67, 0
1, 126192, Note_on_c, 0, 79, 82
1, 126224, Note_on_c, 0, 79, 0
1, 126240, Note_on_c, 0, 67, 82
1, 126272, Note_on_c, 0, 67, 0
1, 126288, Note_on_c, 0, 79, 82
1, 126320, Note_on_c, 0, 79, 0
1, 126336, Note_on_c, 0, 67, 82
1, 126336, Note_on_c, 1, 52, 87
1, 126336, Note_on_c, 1, 48, 87
1, 126368, Note_on_c, 0, 67, 0
1, 126384, Note_on_c, 0, 79, 82
1, 126416, Note_on_c, 0, 79, 0
1, 126432, Note_on_c, 0, 67, 82
1, 126464, Note_on_c, 0, 67, 0
1, 126464, Note_on_c, 1, 52, 0
1, 126464, Note_on_c, 1, 48, 0
1, 126480, Note_on_c, 0, 79, 82
1, 126512, Note_on_c, 0, 79, 0
1, 126528, Note_on_c, 0, 67, 82
1, 126528, Note_on_c, 1, 53, 87
1, 126528, Note_on_c, 1, 47, 87
1, 126560, Note_on_c, 0, 67, 0
1, 126576, Note_on_c, 0, 79, 82
1, 126608, Note_on_c, 0, 79, 0
1, 126624, Note_on_c, 0, 67, 82
1, 126656, Note_on_c, 0, 67, 0
1, 126656, Note_on_c, 1, 53, 0
1, 126656, Note_on_c, 1, 47, 0
1, 126672, Note_on_c, 0, 79, 82
1, 126704, Note_on_c, 0, 79, 0
1, 126720, Note_on_c, 0, 67, 82
1, 126720, Note_on_c, 1, 52, 87
1, 126720, Note_on_c, 1, 48, 87
1, 126752, Note_on_c, 0, 67, 0
1, 126768, Note_on_c, 0, 79, 82
1, 126800, Note_on_c, 0, 79, 0
1, 126816, Note_on_c, 0, 67, 82
1, 126848, Note_on_c, 0, 67, 0
1, 126848, Note_on_c, 1, 52, 0
1, 126848, Note_on_c, 1, 48, 0
1, 126864, Note_on_c, 0, 79, 82
1, 126896, Note_on_c, 0, 79, 0
1, 126912, Note_on_c, 0, 67, 82
1, 126944, Note_on_c, 0, 67, 0
1, 126960, Note_on_c, 0, 79, 82
1, 126992, Note_on_c, 0, 79, 0
1, 127008, Note_on_c, 0, 67, 82
1, 127040, Note_on_c, 0, 67, 0
1, 127056, Note_on_c, 0, 79, 82
1, 127088, Note_on_c, 0, 79, 0
1, 127104, Note_on_c, 0, 67, 82
1, 127104, Note_on_c, 1, 64, 87
1, 127104, Note_on_c, 1, 60, 87
1, 127136, Note_on_c, 0, 67, 0
1, 127152, Note_on_c, 0, 79, 82
1, 127168, Note_on_c, 1, 64, 0
1, 127168, Note_on_c, 1, 60, 0
1, 127184, Note_on_c, 0, 79, 0
1, 127200, Note_on_c, 0, 67, 82
1, 127200, Note_on_c, 1, 64, 87
1, 127200, Note_on_c, 1, 60, 87
1, 127232, Note_on_c, 0, 67, 0
1, 127248, Note_on_c, 0, 79, 82
1, 127264, Note_on_c, 1, 64, 0
1, 127264, Note_on_c, 1, 60, 0
1, 127280, Note_on_c, 0, 79, 0
1, 127296, Note_on_c, 0, 67, 82
1, 127296, Note_on_c, 1, 59, 87
1, 127296, Note_on_c, 1, 65, 87
1, 127328, Note_on_c, 0, 67, 0
1, 127344, Note_on_c, 0, 79, 82
1, 127360, Note_on_c, 1, 59, 0
1, 127360, Note_on_c, 1, 65, 0
1, 127376, Note_on_c, 0, 79, 0
1, 127392, Note_on_c, 0, 67, 82
1, 127392, Note_on_c, 1, 59, 87
1, 127392, Note_on_c, 1, 65, 87
1, 127424, Note_on_c, 0, 67, 0
1, 127440, Note_on_c, 0, 79, 82
1, 127456, Note_on_c, 1, 59, 0
1, 127456, Note_on_c, 1, 65, 0
1, 127472, Note_on_c, 0, 79, 0
1, 127488, Note_on_c, 0, 67, 82
1, 127488, Note_on_c, 1, 64, 87
1, 127488, Note_on_c, 1, 60, 87
1, 127520, Note_on_c, 0, 67, 0
1, 127536, Note_on_c, 0, 79, 82
1, 127568, Note_on_c, 0, 79, 0
1, 127584, Note_on_c, 0, 67, 82
1, 127616, Note_on_c, 0, 67, 0
1, 127616, Note_on_c, 1, 64, 0
1, 127616, Note_on_c, 1, 60, 0
1, 127632, Note_on_c, 0, 79, 82
1, 127664, Note_on_c, 0, 79, 0
1, 127680, Note_on_c, 0, 67, 82
1, 127712, Note_on_c, 0, 67, 0
1, 127728, Note_on_c, 0, 79, 82
1, 127760, Note_on_c, 0, 79, 0
1, 127776, Note_on_c, 0, 67, 82
1, 127808, Note_on_c, 0, 67, 0
1, 127824, Note_on_c, 0, 79, 82
1, 127856, Note_on_c, 0, 79, 0
1, 127872, Note_on_c, 0, 67, 82
1, 127872, Note_on_c, 1, 52, 87
1, 127872, Note_on_c, 1, 48, 87
1, 127904, Note_on_c, 0, 67, 0
1, 127920, Note_on_c, 0, 79, 82
1, 127936, Note_on_c, 1, 52, 0
1, 127936, Note_on_c, 1, 48, 0
1, 127952, Note_on_c, 0, 79, 0
1, 127968, Note_on_c, 0, 67, 82
1, 127968, Note_on_c, 1, 52, 87
1, 127968, Note_on_c, 1, 48, 87
1, 128000, Note_on_c, 0, 67, 0
1, 128016, Note_on_c, 0, 79, 82
1, 128032, Note_on_c, 1, 52, 0
1, 128032, Note_on_c, 1, 48, 0
1, 128048, Note_on_c, 0, 79, 0
1, 128064, Note_on_c, 0, 67, 82
1, 128064, Note_on_c, 1, 53, 87
1, 128064, Note_on_c, 1, 47, 87
1, 128096, Note_on_c, 0, 67, 0
1, 128112, Note_on_c, 0, 79, 82
1, 128128, Note_on_c, 1, 53, 0
1, 128128, Note_on_c, 1, 47, 0
1, 128144, Note_on_c, 0, 79, 0
1, 128160, Note_on_c, 0, 67, 82
1, 128160, Note_on_c, 1, 53, 87
1, 128160, Note_on_c, 1, 47, 87
1, 128192, Note_on_c, 0, 67, 0
1, 128208, Note_on_c, 0, 79, 82
1, 128224, Note_on_c, 1, 53, 0
1, 128224, Note_on_c, 1, 47, 0
1, 128240, Note_on_c, 0, 79, 0
1, 128256, Note_on_c, 0, 79, 82
1, 128256, Note_on_c, 0, 67, 82
1, 128256, Note_on_c, 1, 52, 87
1, 128256, Note_on_c, 1, 48, 87
1, 128320, Note_on_c, 0, 79, 0
1, 128320, Note_on_c, 0, 67, 0
1, 128352, Note_on_c, 0, 77, 82
1, 128384, Note_on_c, 1, 52, 0
1, 128384, Note_on_c, 1, 48, 0
1, 128416, Note_on_c, 0, 77, 0
1, 128448, Note_on_c, 0, 76, 82
1, 128512, Note_on_c, 0, 76, 0
1, 128544, Note_on_c, 0, 74, 82
1, 128608, Note_on_c, 0, 74, 0
1, 128640, Note_on_c, 0, 72, 82
1, 128704, Note_on_c, 0, 72, 0
1, 128736, Note_on_c, 0, 71, 82
1, 128800, Note_on_c, 0, 71, 0
1, 128832, Note_on_c, 0, 69, 82
1, 128896, Note_on_c, 0, 69, 0
1, 128928, Note_on_c, 0, 67, 82
1, 128992, Note_on_c, 0, 67, 0
1, 129024, Note_on_c, 0, 81, 82
1, 129024, Note_on_c, 1, 50, 87
1, 129024, Note_on_c, 1, 45, 87
1, 129024, Note_on_c, 1, 41, 87
1, 129088, Note_on_c, 0, 81, 0
1, 129120, Note_on_c, 0, 79, 82
1, 129152, Note_on_c, 1, 50, 0
1, 129152, Note_on_c, 1, 45, 0
1, 129152, Note_on_c, 1, 41, 0
1, 129184, Note_on_c, 0, 79, 0
1, 129216, Note_on_c, 0, 77, 82
1, 129280, Note_on_c, 0, 77, 0
1, 129312, Note_on_c, 0, 76, 82
1, 129376, Note_on_c, 0, 76, 0
1, 129408, Note_on_c, 0, 74, 82
1, 129472, Note_on_c, 0, 74, 0
1, 129504, Note_on_c, 0, 72, 82
1, 129568, Note_on_c, 0, 72, 0
1, 129600, Note_on_c, 0, 71, 82
1, 129664, Note_on_c, 0, 71, 0
1, 129696, Note_on_c, 0, 69, 82
1, 129760, Note_on_c, 0, 69, 0
1, 129792, Note_on_c, 0, 67, 82
1, 129792, Note_on_c, 1, 55, 87
1, 129792, Note_on_c, 1, 43, 87
1, 129920, Note_on_c, 0, 67, 0
1, 129920, Note_on_c, 1, 55, 0
1, 129920, Note_on_c, 1, 43, 0
1, 130176, Note_on_c, 0, 71, 82
1, 130176, Note_on_c, 0, 65, 82
1, 130176, Note_on_c, 0, 62, 82
1, 130176, Note_on_c, 1, 56, 87
1, 130176, Note_on_c, 1, 44, 87
1, 130304, Note_on_c, 0, 71, 0
1, 130304, Note_on_c, 0, 65, 0
1, 130304, Note_on_c, 0, 62, 0
1, 130304, Note_on_c, 1, 56, 0
1, 130304, Note_on_c, 1, 44, 0
1, 130560, Note_on_c, 0, 72, 82
1, 130560, Note_on_c, 0, 60, 82
1, 130560, Note_on_c, 0, 64, 82
1, 130560, Note_on_c, 1, 57, 87
1, 130560, Note_on_c, 1, 45, 87
1, 130688, Note_on_c, 0, 72, 0
1, 130688, Note_on_c, 0, 60, 0
1, 130688, Note_on_c, 0, 64, 0
1, 130688, Note_on_c, 1, 57, 0
1, 130688, Note_on_c, 1, 45, 0
1, 131328, Note_on_c, 0, 86, 50
1, 131392, Note_on_c, 0, 86, 0
1, 131392, Note_on_c, 0, 84, 50
1, 131520, Note_on_c, 0, 74, 50
1, 131520, Note_on_c, 0, 69, 50
1, 131520, Note_on_c, 0, 66, 50
1, 131584, Note_on_c, 0, 84, 0
1, 131648, Note_on_c, 0, 74, 0
1, 131648, Note_on_c, 0, 69, 0
1, 131648, Note_on_c, 0, 66, 0
1, 131712, Note_on_c, 0, 84, 50
1, 131712, Note_on_c, 0, 66, 50
1, 131712, Note_on_c, 0, 74, 50
1, 131712, Note_on_c, 0, 69, 50
1, 131776, Note_on_c, 0, 84, 0
1, 131808, Note_on_c, 0, 83, 50
1, 131840, Note_on_c, 0, 66, 0
1, 131840, Note_on_c, 0, 74, 0
1, 131840, Note_on_c, 0, 69, 0
1, 131872, Note_on_c, 0, 83, 0
1, 131904, Note_on_c, 0, 84, 50
1, 131904, Note_on_c, 0, 74, 50
1, 131904, Note_on_c, 0, 69, 50
1, 131904, Note_on_c, 0, 66, 50
1, 131968, Note_on_c, 0, 84, 0
1, 132000, Note_on_c, 0, 81, 50
1, 132032, Note_on_c, 0, 74, 0
1, 132032, Note_on_c, 0, 69, 0
1, 132032, Note_on_c, 0, 66, 0
1, 132064, Note_on_c, 0, 81, 0
1, 132096, Note_on_c, 0, 79, 50
1, 132288, Note_on_c, 0, 76, 50
1, 132288, Note_on_c, 0, 72, 50
1, 132288, Note_on_c, 0, 67, 50
1, 132352, Note_on_c, 0, 79, 0
1, 132416, Note_on_c, 0, 76, 0
1, 132416, Note_on_c, 0, 72, 0
1, 132416, Note_on_c, 0, 67, 0
1, 132480, Note_on_c, 0, 79, 50
1, 132480, Note_on_c, 0, 76, 50
1, 132480, Note_on_c, 0, 72, 50
1, 132480, Note_on_c, 0, 67, 50
1, 132544, Note_on_c, 0, 79, 0
1, 132576, Note_on_c, 0, 78, 50
1, 132608, Note_on_c, 0, 76, 0
1, 132608, Note_on_c, 0, 72, 0
1, 132608, Note_on_c, 0, 67, 0
1, 132640, Note_on_c, 0, 78, 0
1, 132672, Note_on_c, 0, 79, 50
1, 132672, Note_on_c, 0, 72, 50
1, 132672, Note_on_c, 0, 67, 50
1, 132736, Note_on_c, 0, 79, 0
1, 132768, Note_on_c, 0, 76, 50
1, 132800, Note_on_c, 0, 72, 0
1, 132800, Note_on_c, 0, 67, 0
1, 132832, Note_on_c, 0, 76, 0
1, 132864, Note_on_c, 0, 79, 50
1, 132928, Note_on_c, 0, 79, 0
1, 132928, Note_on_c, 0, 77, 50
1, 133056, Note_on_c, 0, 74, 50
1, 133056, Note_on_c, 0, 71, 50
1, 133056, Note_on_c, 0, 67, 50
1, 133120, Note_on_c, 0, 77, 0
1, 133184, Note_on_c, 0, 74, 0
1, 133184, Note_on_c, 0, 71, 0
1, 133184, Note_on_c, 0, 67, 0
1, 133232, Note_on_c, 0, 77, 50
1, 133248, Note_on_c, 0, 74, 50
1, 133248, Note_on_c, 0, 71, 50
1, 133248, Note_on_c, 0, 67, 50
1, 133296, Note_on_c, 0, 77, 0
1, 133344, Note_on_c, 0, 76, 50
1, 133376, Note_on_c, 0, 74, 0
1, 133376, Note_on_c, 0, 71, 0
1, 133376, Note_on_c, 0, 67, 0
1, 133408, Note_on_c, 0, 76, 0
1, 133440, Note_on_c, 0, 77, 50
1, 133440, Note_on_c, 0, 71, 50
1, 133440, Note_on_c, 0, 67, 50
1, 133504, Note_on_c, 0, 77, 0
1, 133536, Note_on_c, 0, 74, 50
1, 133568, Note_on_c, 0, 71, 0
1, 133568, Note_on_c, 0, 67, 0
1, 133600, Note_on_c, 0, 74, 0
1, 133632, Note_on_c, 0, 67, 50
1, 133664, Note_on_c, 0, 67, 0
1, 133680, Note_on_c, 0, 79, 50
1, 133712, Note_on_c, 0, 79, 0
1, 133728, Note_on_c, 0, 67, 50
1, 133760, Note_on_c, 0, 67, 0
1, 133776, Note_on_c, 0, 79, 50
1, 133808, Note_on_c, 0, 79, 0
1, 133824, Note_on_c, 0, 67, 50
1, 133856, Note_on_c, 0, 67, 0
1, 133872, Note_on_c, 0, 79, 50
1, 133904, Note_on_c, 0, 79, 0
1, 133920, Note_on_c, 0, 67, 50
1, 133952, Note_on_c, 0, 67, 0
1, 133968, Note_on_c, 0, 79, 50
1, 134000, Note_on_c, 0, 79, 0
1, 134016, Note_on_c, 0, 67, 50
1, 134016, Note_on_c, 1, 60, 50
1, 134016, Note_on_c, 1, 63, 50
1, 134048, Note_on_c, 0, 67, 0
1, 134064, Note_on_c, 0, 79, 50
1, 134096, Note_on_c, 0, 79, 0
1, 134112, Note_on_c, 0, 67, 50
1, 134144, Note_on_c, 0, 67, 0
1, 134144, Note_on_c, 1, 60, 0
1, 134144, Note_on_c, 1, 63, 0
1, 134160, Note_on_c, 0, 79, 50
1, 134192, Note_on_c, 0, 79, 0
1, 134208, Note_on_c, 0, 67, 50
1, 134208, Note_on_c, 1, 59, 50
1, 134208, Note_on_c, 1, 67, 50
1, 134240, Note_on_c, 0, 67, 0
1, 134256, Note_on_c, 0, 79, 50
1, 134288, Note_on_c, 0, 79, 0
1, 134304, Note_on_c, 0, 67, 50
1, 134336, Note_on_c, 0, 67, 0
1, 134336, Note_on_c, 1, 59, 0
1, 134336, Note_on_c, 1, 67, 0
1, 134352, Note_on_c, 0, 79, 50
1, 134384, Note_on_c, 0, 79, 0
1, 134400, Note_on_c, 0, 67, 50
1, 134400, Note_on_c, 1, 60, 50
1, 134400, Note_on_c, 1, 63, 50
1, 134432, Note_on_c, 0, 67, 0
1, 134448, Note_on_c, 0, 79, 50
1, 134480, Note_on_c, 0, 79, 0
1, 134496, Note_on_c, 0, 67, 50
1, 134528, Note_on_c, 0, 67, 0
1, 134528, Note_on_c, 1, 60, 0
1, 134528, Note_on_c, 1, 63, 0
1, 134544, Note_on_c, 0, 79, 50
1, 134576, Note_on_c, 0, 79, 0
1, 134592, Note_on_c, 0, 67, 50
1, 134624, Note_on_c, 0, 67, 0
1, 134640, Note_on_c, 0, 79, 50
1, 134672, Note_on_c, 0, 79, 0
1, 134688, Note_on_c, 0, 67, 50
1, 134720, Note_on_c, 0, 67, 0
1, 134736, Note_on_c, 0, 79, 50
1, 134768, Note_on_c, 0, 79, 0
1, 134784, Note_on_c, 0, 67, 50
1, 134784, Note_on_c, 1, 48, 50
1, 134784, Note_on_c, 1, 51, 50
1, 134816, Note_on_c, 0, 67, 0
1, 134832, Note_on_c, 0, 79, 50
1, 134864, Note_on_c, 0, 79, 0
1, 134880, Note_on_c, 0, 67, 50
1, 134912, Note_on_c, 0, 67, 0
1, 134912, Note_on_c, 1, 48, 0
1, 134912, Note_on_c, 1, 51, 0
1, 134928, Note_on_c, 0, 79, 50
1, 134960, Note_on_c, 0, 79, 0
1, 134976, Note_on_c, 0, 67, 50
1, 134976, Note_on_c, 1, 53, 50
1, 134976, Note_on_c, 1, 47, 50
1, 135008, Note_on_c, 0, 67, 0
1, 135024, Note_on_c, 0, 79, 50
1, 135056, Note_on_c, 0, 79, 0
1, 135072, Note_on_c, 0, 67, 50
1, 135104, Note_on_c, 0, 67, 0
1, 135104, Note_on_c, 1, 53, 0
1, 135104, Note_on_c, 1, 47, 0
1, 135120, Note_on_c, 0, 79, 50
1, 135152, Note_on_c, 0, 79, 0
1, 135168, Note_on_c, 0, 67, 50
1, 135168, Note_on_c, 1, 48, 50
1, 135168, Note_on_c, 1, 51, 50
1, 135200, Note_on_c, 0, 67, 0
1, 135216, Note_on_c, 0, 79, 50
1, 135248, Note_on_c, 0, 79, 0
1, 135264, Note_on_c, 0, 67, 50
1, 135296, Note_on_c, 0, 67, 0
1, 135296, Note_on_c, 1, 48, 0
1, 135296, Note_on_c, 1, 51, 0
1, 135312, Note_on_c, 0, 79, 50
1, 135344, Note_on_c, 0, 79, 0
1, 135360, Note_on_c, 0, 67, 50
1, 135392, Note_on_c, 0, 67, 0
1, 135408, Note_on_c, 0, 79, 50
1, 135440, Note_on_c, 0, 79, 0
1, 135456, Note_on_c, 0, 67, 50
1, 135488, Note_on_c, 0, 67, 0
1, 135504, Note_on_c, 0, 79, 50
1, 135536, Note_on_c, 0, 79, 0
1, 135552, Note_on_c, 0, 67, 50
1, 135552, Note_on_c, 1, 64, 50
1, 135552, Note_on_c, 1, 60, 50
1, 135584, Note_on_c, 0, 67, 0
1, 135600, Note_on_c, 0, 79, 50
1, 135616, Note_on_c, 1, 64, 0
1, 135616, Note_on_c, 1, 60, 0
1, 135632, Note_on_c, 0, 79, 0
1, 135648, Note_on_c, 0, 67, 50
1, 135648, Note_on_c, 1, 60, 50
1, 135648, Note_on_c, 1, 64, 50
1, 135680, Note_on_c, 0, 67, 0
1, 135696, Note_on_c, 0, 79, 50
1, 135712, Note_on_c, 1, 60, 0
1, 135712, Note_on_c, 1, 64, 0
1, 135728, Note_on_c, 0, 79, 0
1, 135744, Note_on_c, 0, 67, 50
1, 135744, Note_on_c, 1, 59, 50
1, 135744, Note_on_c, 1, 65, 50
1, 135776, Note_on_c, 0, 67, 0
1, 135792, Note_on_c, 0, 79, 50
1, 135808, Note_on_c, 1, 59, 0
1, 135808, Note_on_c, 1, 65, 0
1, 135824, Note_on_c, 0, 79, 0
1, 135840, Note_on_c, 0, 67, 50
1, 135840, Note_on_c, 1, 65, 50
1, 135840, Note_on_c, 1, 59, 50
1, 135872, Note_on_c, 0, 67, 0
1, 135888, Note_on_c, 0, 79, 50
1, 135904, Note_on_c, 1, 65, 0
1, 135904, Note_on_c, 1, 59, 0
1, 135920, Note_on_c, 0, 79, 0
1, 135936, Note_on_c, 0, 67, 50
1, 135936, Note_on_c, 1, 64, 50
1, 135936, Note_on_c, 1, 60, 50
1, 135968, Note_on_c, 0, 67, 0
1, 135984, Note_on_c, 0, 79, 50
1, 136016, Note_on_c, 0, 79, 0
1, 136032, Note_on_c, 0, 67, 50
1, 136064, Note_on_c, 0, 67, 0
1, 136064, Note_on_c, 1, 64, 0
1, 136064, Note_on_c, 1, 60, 0
1, 136080, Note_on_c, 0, 79, 50
1, 136112, Note_on_c, 0, 79, 0
1, 136128, Note_on_c, 0, 67, 50
1, 136160, Note_on_c, 0, 67, 0
1, 136176, Note_on_c, 0, 79, 50
1, 136208, Note_on_c, 0, 79, 0
1, 136224, Note_on_c, 0, 67, 50
1, 136256, Note_on_c, 0, 67, 0
1, 136272, Note_on_c, 0, 79, 50
1, 136304, Note_on_c, 0, 79, 0
1, 136320, Note_on_c, 0, 67, 50
1, 136320, Note_on_c, 1, 52, 50
1, 136320, Note_on_c, 1, 48, 50
1, 136352, Note_on_c, 0, 67, 0
1, 136368, Note_on_c, 0, 79, 50
1, 136384, Note_on_c, 1, 52, 0
1, 136384, Note_on_c, 1, 48, 0
1, 136400, Note_on_c, 0, 79, 0
1, 136416, Note_on_c, 0, 67, 50
1, 136416, Note_on_c, 1, 52, 50
1, 136416, Note_on_c, 1, 48, 50
1, 136448, Note_on_c, 0, 67, 0
1, 136464, Note_on_c, 0, 79, 50
1, 136480, Note_on_c, 1, 52, 0
1, 136480, Note_on_c, 1, 48, 0
1, 136496, Note_on_c, 0, 79, 0
1, 136512, Note_on_c, 0, 67, 50
1, 136512, Note_on_c, 1, 47, 50
1, 136512, Note_on_c, 1, 53, 50
1, 136544, Note_on_c, 0, 67, 0
1, 136560, Note_on_c, 0, 79, 50
1, 136576, Note_on_c, 1, 47, 0
1, 136576, Note_on_c, 1, 53, 0
1, 136592, Note_on_c, 0, 79, 0
1, 136608, Note_on_c, 0, 67, 50
1, 136608, Note_on_c, 1, 53, 50
1, 136608, Note_on_c, 1, 47, 50
1, 136640, Note_on_c, 0, 67, 0
1, 136656, Note_on_c, 0, 79, 50
1, 136672, Note_on_c, 1, 53, 0
1, 136672, Note_on_c, 1, 47, 0
1, 136688, Note_on_c, 0, 79, 0
1, 136704, Note_on_c, 0, 67, 75
1, 136704, Note_on_c, 1, 48, 75
1, 136704, Note_on_c, 1, 52, 75
1, 136736, Note_on_c, 0, 67, 0
1, 136752, Note_on_c, 0, 79, 75
1, 136784, Note_on_c, 0, 79, 0
1, 136800, Note_on_c, 0, 67, 75
1, 136832, Note_on_c, 0, 67, 0
1, 136832, Note_on_c, 1, 48, 0
1, 136832, Note_on_c, 1, 52, 0
1, 136848, Note_on_c, 0, 79, 75
1, 136880, Note_on_c, 0, 79, 0
1, 136896, Note_on_c, 0, 67, 50
1, 136896, Note_on_c, 1, 62, 50
1, 136896, Note_on_c, 1, 59, 50
1, 136896, Note_on_c, 1, 52, 50
1, 136928, Note_on_c, 0, 67, 0
1, 136944, Note_on_c, 0, 79, 50
1, 136976, Note_on_c, 0, 79, 0
1, 136992, Note_on_c, 0, 67, 50
1, 137024, Note_on_c, 0, 67, 0
1, 137040, Note_on_c, 0, 79, 50
1, 137072, Note_on_c, 0, 79, 0
1, 137088, Note_on_c, 0, 67, 50
1, 137120, Note_on_c, 0, 67, 0
1, 137136, Note_on_c, 0, 79, 50
1, 137168, Note_on_c, 0, 79, 0
1, 137184, Note_on_c, 0, 67, 50
1, 137216, Note_on_c, 0, 67, 0
1, 137232, Note_on_c, 0, 79, 50
1, 137264, Note_on_c, 0, 79, 0
1, 137280, Note_on_c, 0, 67, 50
1, 137280, Note_on_c, 1, 62, 0
1, 137280, Note_on_c, 1, 59, 0
1, 137280, Note_on_c, 1, 52, 0
1, 137312, Note_on_c, 0, 67, 0
1, 137328, Note_on_c, 0, 79, 50
1, 137360, Note_on_c, 0, 79, 0
1, 137376, Note_on_c, 0, 67, 50
1, 137408, Note_on_c, 0, 67, 0
1, 137424, Note_on_c, 0, 79, 50
1, 137456, Note_on_c, 0, 79, 0
1, 137472, Note_on_c, 0, 67, 75
1, 137472, Note_on_c, 1, 60, 75
1, 137472, Note_on_c, 1, 53, 75
1, 137504, Note_on_c, 0, 67, 0
1, 137520, Note_on_c, 0, 79, 75
1, 137552, Note_on_c, 0, 79, 0
1, 137568, Note_on_c, 0, 67, 75
1, 137600, Note_on_c, 0, 67, 0
1, 137600, Note_on_c, 1, 60, 0
1, 137600, Note_on_c, 1, 53, 0
1, 137616, Note_on_c, 0, 79, 75
1, 137648, Note_on_c, 0, 79, 0
1, 137664, Note_on_c, 0, 67, 50
1, 137664, Note_on_c, 1, 61, 50
1, 137664, Note_on_c, 1, 64, 50
1, 137664, Note_on_c, 1, 55, 50
1, 137696, Note_on_c, 0, 67, 0
1, 137712, Note_on_c, 0, 79, 50
1, 137744, Note_on_c, 0, 79, 0
1, 137760, Note_on_c, 0, 67, 50
1, 137792, Note_on_c, 0, 67, 0
1, 137808, Note_on_c, 0, 79, 50
1, 137840, Note_on_c, 0, 79, 0
1, 137856, Note_on_c, 0, 67, 50
1, 137888, Note_on_c, 0, 67, 0
1, 137904, Note_on_c, 0, 79, 50
1, 137936, Note_on_c, 0, 79, 0
1, 137952, Note_on_c, 0, 67, 50
1, 137984, Note_on_c, 0, 67, 0
1, 138000, Note_on_c, 0, 79, 50
1, 138032, Note_on_c, 0, 79, 0
1, 138048, Note_on_c, 0, 67, 50
1, 138048, Note_on_c, 1, 61, 0
1, 138048, Note_on_c, 1, 64, 0
1, 138048, Note_on_c, 1, 55, 0
1, 138080, Note_on_c, 0, 67, 0
1, 138096, Note_on_c, 0, 79, 50
1, 138128, Note_on_c, 0, 79, 0
1, 138144, Note_on_c, 0, 67, 50
1, 138176, Note_on_c, 0, 67, 0
1, 138192, Note_on_c, 0, 79, 50
1, 138224, Note_on_c, 0, 79, 0
1, 138240, Note_on_c, 0, 81, 50
1, 138240, Note_on_c, 1, 62, 50
1, 138240, Note_on_c, 1, 57, 50
1, 138240, Note_on_c, 1, 53, 50
1, 138288, Note_on_c, 0, 81, 0
1, 138304, Note_on_c, 0, 82, 50
1, 138352, Note_on_c, 0, 82, 0
1, 138368, Note_on_c, 1, 62, 0
1, 138368, Note_on_c, 1, 57, 0
1, 138368, Note_on_c, 1, 53, 0
1, 138384, Note_on_c, 0, 81, 50
1, 138432, Note_on_c, 0, 81, 0
1, 138432, Note_on_c, 0, 79, 50
1, 138480, Note_on_c, 0, 79, 0
1, 138496, Note_on_c, 0, 81, 50
1, 138544, Note_on_c, 0, 81, 0
1, 138560, Note_on_c, 0, 79, 50
1, 138608, Note_on_c, 0, 79, 0
1, 138624, Note_on_c, 0, 77, 50
1, 138672, Note_on_c, 0, 77, 0
1, 138688, Note_on_c, 0, 79, 50
1, 138736, Note_on_c, 0, 79, 0
1, 138752, Note_on_c, 0, 77, 50
1, 138800, Note_on_c, 0, 77, 0
1, 138816, Note_on_c, 0, 76, 50
1, 138864, Note_on_c, 0, 76, 0
1, 138880, Note_on_c, 0, 77, 50
1, 138928, Note_on_c, 0, 77, 0
1, 138944, Note_on_c, 0, 76, 50
1, 138992, Note_on_c, 0, 76, 0
1, 139008, Note_on_c, 0, 74, 50
1, 139056, Note_on_c, 0, 74, 0
1, 139072, Note_on_c, 0, 76, 50
1, 139120, Note_on_c, 0, 76, 0
1, 139136, Note_on_c, 0, 74, 50
1, 139184, Note_on_c, 0, 74, 0
1, 139200, Note_on_c, 0, 76, 50
1, 139248, Note_on_c, 0, 76, 0
1, 139264, Note_on_c, 0, 77, 50
1, 139312, Note_on_c, 0, 77, 0
1, 139328, Note_on_c, 0, 76, 50
1, 139376, Note_on_c, 0, 76, 0
1, 139392, Note_on_c, 0, 77, 50
1, 139440, Note_on_c, 0, 77, 0
1, 139456, Note_on_c, 0, 79, 50
1, 139504, Note_on_c, 0, 79, 0
1, 139520, Note_on_c, 0, 77, 50
1, 139568, Note_on_c, 0, 77, 0
1, 139584, Note_on_c, 0, 82, 75
1, 139584, Note_on_c, 1, 61, 75
1, 139584, Note_on_c, 1, 55, 75
1, 139584, Note_on_c, 1, 52, 75
1, 139632, Note_on_c, 0, 82, 0
1, 139648, Note_on_c, 0, 84, 75
1, 139696, Note_on_c, 0, 84, 0
1, 139712, Note_on_c, 0, 82, 75
1, 139712, Note_on_c, 1, 61, 0
1, 139712, Note_on_c, 1, 55, 0
1, 139712, Note_on_c, 1, 52, 0
1, 139760, Note_on_c, 0, 82, 0
1, 139776, Note_on_c, 0, 81, 50
1, 139776, Note_on_c, 1, 62, 50
1, 139776, Note_on_c, 1, 57, 50
1, 139776, Note_on_c, 1, 53, 50
1, 139824, Note_on_c, 0, 81, 0
1, 139840, Note_on_c, 0, 82, 50
1, 139888, Note_on_c, 0, 82, 0
1, 139904, Note_on_c, 0, 81, 50
1, 139904, Note_on_c, 1, 62, 0
1, 139904, Note_on_c, 1, 57, 0
1, 139904, Note_on_c, 1, 53, 0
1, 139952, Note_on_c, 0, 81, 0
1, 139968, Note_on_c, 0, 79, 50
1, 140016, Note_on_c, 0, 79, 0
1, 140032, Note_on_c, 0, 81, 50
1, 140080, Note_on_c, 0, 81, 0
1, 140096, Note_on_c, 0, 79, 50
1, 140144, Note_on_c, 0, 79, 0
1, 140160, Note_on_c, 0, 77, 50
1, 140208, Note_on_c, 0, 77, 0
1, 140224, Note_on_c, 0, 79, 50
1, 140272, Note_on_c, 0, 79, 0
1, 140288, Note_on_c, 0, 77, 50
1, 140336, Note_on_c, 0, 77, 0
1, 140352, Note_on_c, 0, 76, 50
1, 140400, Note_on_c, 0, 76, 0
1, 140416, Note_on_c, 0, 77, 50
1, 140464, Note_on_c, 0, 77, 0
1, 140480, Note_on_c, 0, 76, 50
1, 140528, Note_on_c, 0, 76, 0
1, 140544, Note_on_c, 0, 74, 50
1, 140592, Note_on_c, 0, 74, 0
1, 140608, Note_on_c, 0, 76, 50
1, 140656, Note_on_c, 0, 76, 0
1, 140672, Note_on_c, 0, 74, 50
1, 140720, Note_on_c, 0, 74, 0
1, 140736, Note_on_c, 0, 76, 50
1, 140784, Note_on_c, 0, 76, 0
1, 140800, Note_on_c, 0, 77, 50
1, 140848, Note_on_c, 0, 77, 0
1, 140864, Note_on_c, 0, 76, 50
1, 140912, Note_on_c, 0, 76, 0
1, 140928, Note_on_c, 0, 77, 50
1, 140976, Note_on_c, 0, 77, 0
1, 140992, Note_on_c, 0, 79, 50
1, 141040, Note_on_c, 0, 79, 0
1, 141056, Note_on_c, 0, 77, 50
1, 141104, Note_on_c, 0, 77, 0
1, 141120, Note_on_c, 0, 82, 75
1, 141120, Note_on_c, 1, 61, 75
1, 141120, Note_on_c, 1, 52, 75
1, 141120, Note_on_c, 1, 55, 75
1, 141168, Note_on_c, 0, 82, 0
1, 141184, Note_on_c, 0, 84, 75
1, 141232, Note_on_c, 0, 84, 0
1, 141248, Note_on_c, 0, 82, 75
1, 141248, Note_on_c, 1, 61, 0
1, 141248, Note_on_c, 1, 52, 0
1, 141248, Note_on_c, 1, 55, 0
1, 141296, Note_on_c, 0, 82, 0
1, 141312, Note_on_c, 0, 81, 50
1, 141312, Note_on_c, 1, 62, 50
1, 141312, Note_on_c, 1, 57, 50
1, 141312, Note_on_c, 1, 53, 50
1, 141360, Note_on_c, 0, 81, 0
1, 141376, Note_on_c, 0, 84, 50
1, 141424, Note_on_c, 0, 84, 0
1, 141440, Note_on_c, 0, 83, 50
1, 141488, Note_on_c, 0, 83, 0
1, 141504, Note_on_c, 0, 81, 50
1, 141552, Note_on_c, 0, 81, 0
1, 141568, Note_on_c, 0, 83, 50
1, 141616, Note_on_c, 0, 83, 0
1, 141632, Note_on_c, 0, 84, 50
1, 141680, Note_on_c, 0, 84, 0
1, 141696, Note_on_c, 0, 77, 50
1, 141744, Note_on_c, 0, 77, 0
1, 141760, Note_on_c, 0, 81, 50
1, 141808, Note_on_c, 0, 81, 0
1, 141824, Note_on_c, 0, 79, 50
1, 141824, Note_on_c, 1, 62, 0
1, 141824, Note_on_c, 1, 57, 0
1, 141824, Note_on_c, 1, 53, 0
1, 141872, Note_on_c, 0, 79, 0
1, 141888, Note_on_c, 0, 77, 50
1, 141936, Note_on_c, 0, 77, 0
1, 141952, Note_on_c, 0, 79, 50
1, 142000, Note_on_c, 0, 79, 0
1, 142016, Note_on_c, 0, 81, 50
1, 142064, Note_on_c, 0, 81, 0
1, 142080, Note_on_c, 0, 74, 50
1, 142080, Note_on_c, 1, 60, 50
1, 142080, Note_on_c, 1, 57, 50
1, 142128, Note_on_c, 0, 74, 0
1, 142144, Note_on_c, 0, 77, 50
1, 142192, Note_on_c, 0, 77, 0
1, 142208, Note_on_c, 0, 76, 50
1, 142256, Note_on_c, 0, 76, 0
1, 142272, Note_on_c, 0, 74, 50
1, 142320, Note_on_c, 0, 74, 0
1, 142336, Note_on_c, 0, 76, 50
1, 142384, Note_on_c, 0, 76, 0
1, 142400, Note_on_c, 0, 77, 50
1, 142448, Note_on_c, 0, 77, 0
1, 142464, Note_on_c, 0, 69, 50
1, 142464, Note_on_c, 1, 54, 62
1, 142512, Note_on_c, 0, 69, 0
1, 142528, Note_on_c, 0, 72, 50
1, 142576, Note_on_c, 0, 72, 0
1, 142592, Note_on_c, 0, 71, 50
1, 142592, Note_on_c, 1, 60, 0
1, 142592, Note_on_c, 1, 57, 0
1, 142640, Note_on_c, 0, 71, 0
1, 142656, Note_on_c, 0, 69, 50
1, 142704, Note_on_c, 0, 69, 0
1, 142720, Note_on_c, 0, 71, 50
1, 142768, Note_on_c, 0, 71, 0
1, 142784, Note_on_c, 0, 72, 50
1, 142832, Note_on_c, 0, 72, 0
1, 142844, Note_on_c, 1, 54, 0
1, 142848, Note_on_c, 0, 71, 50
1, 142848, Note_on_c, 1, 62, 50
1, 142848, Note_on_c, 1, 59, 50
1, 142848, Note_on_c, 1, 55, 50
1, 142896, Note_on_c, 0, 71, 0
1, 142912, Note_on_c, 0, 67, 50
1, 142960, Note_on_c, 0, 67, 0
1, 142976, Note_on_c, 0, 71, 50
1, 142976, Note_on_c, 1, 62, 0
1, 142976, Note_on_c, 1, 59, 0
1, 142976, Note_on_c, 1, 55, 0
1, 143024, Note_on_c, 0, 71, 0
1, 143040, Note_on_c, 0, 74, 50
1, 143088, Note_on_c, 0, 74, 0
1, 143104, Note_on_c, 0, 71, 50
1, 143152, Note_on_c, 0, 71, 0
1, 143168, Note_on_c, 0, 74, 50
1, 143216, Note_on_c, 0, 74, 0
1, 143232, Note_on_c, 0, 79, 50
1, 143280, Note_on_c, 0, 79, 0
1, 143296, Note_on_c, 0, 74, 50
1, 143344, Note_on_c, 0, 74, 0
1, 143360, Note_on_c, 0, 79, 50
1, 143408, Note_on_c, 0, 79, 0
1, 143424, Note_on_c, 0, 83, 50
1, 143472, Note_on_c, 0, 83, 0
1, 143488, Note_on_c, 0, 79, 50
1, 143536, Note_on_c, 0, 79, 0
1, 143552, Note_on_c, 0, 83, 50
1, 143600, Note_on_c, 0, 83, 0
1, 143616, Note_on_c, 0, 86, 50
1, 143664, Note_on_c, 0, 86, 0
1, 143680, Note_on_c, 0, 83, 50
1, 143728, Note_on_c, 0, 83, 0
1, 143744, Note_on_c, 0, 86, 50
1, 143792, Note_on_c, 0, 86, 0
1, 143808, Note_on_c, 0, 89, 75
1, 143808, Note_on_c, 0, 77, 75
1, 143808, Note_on_c, 1, 50, 75
1, 143808, Note_on_c, 1, 47, 75
1, 143808, Note_on_c, 1, 43, 75
1, 143808, Note_on_c, 1, 55, 75
1, 144192, Note_on_c, 0, 89, 0
1, 144192, Note_on_c, 0, 77, 0
1, 144192, Note_on_c, 1, 50, 0
1, 144192, Note_on_c, 1, 47, 0
1, 144192, Note_on_c, 1, 43, 0
1, 144192, Note_on_c, 1, 55, 0
1, 144384, Note_on_c, 0, 89, 50
1, 144384, Note_on_c, 0, 77, 50
1, 144384, Note_on_c, 1, 55, 50
1, 144384, Note_on_c, 1, 50, 50
1, 144384, Note_on_c, 1, 47, 50
1, 144384, Note_on_c, 1, 43, 50
1, 144448, Note_on_c, 0, 89, 0
1, 144448, Note_on_c, 0, 77, 0
1, 144480, Note_on_c, 0, 89, 50
1, 144512, Note_on_c, 1, 55, 0
1, 144512, Note_on_c, 1, 50, 0
1, 144512, Note_on_c, 1, 47, 0
1, 144512, Note_on_c, 1, 43, 0
1, 144544, Note_on_c, 0, 89, 0
1, 144576, Note_on_c, 0, 87, 50
1, 144640, Note_on_c, 0, 87, 0
1, 144672, Note_on_c, 0, 88, 50
1, 144736, Note_on_c, 0, 88, 0
1, 144768, Note_on_c, 0, 85, 50
1, 144832, Note_on_c, 0, 85, 0
1, 144864, Note_on_c, 0, 86, 50
1, 144928, Note_on_c, 0, 86, 0
1, 144960, Note_on_c, 0, 83, 50
1, 145024, Note_on_c, 0, 83, 0
1, 145056, Note_on_c, 0, 84, 50
1, 145120, Note_on_c, 0, 84, 0
1, 145152, Note_on_c, 0, 82, 50
1, 145216, Note_on_c, 0, 82, 0
1, 145248, Note_on_c, 0, 83, 50
1, 145312, Note_on_c, 0, 83, 0
1, 145344, Note_on_c, 0, 80, 50
1, 145408, Note_on_c, 0, 80, 0
1, 145440, Note_on_c, 0, 81, 50
1, 145504, Note_on_c, 0, 81, 0
1, 145536, Note_on_c, 0, 78, 50
1, 145600, Note_on_c, 0, 78, 0
1, 145632, Note_on_c, 0, 79, 50
1, 145696, Note_on_c, 0, 79, 0
1, 145728, Note_on_c, 0, 77, 50
1, 145792, Note_on_c, 0, 77, 0
1, 145824, Note_on_c, 0, 79, 50
1, 145888, Note_on_c, 0, 79, 0
1, 145920, Note_on_c, 0, 77, 50
1, 145920, Note_on_c, 0, 60, 50
1, 145984, Note_on_c, 0, 77, 0
1, 145984, Note_on_c, 0, 60, 0
1, 145984, Note_on_c, 0, 76, 50
1, 146016, Note_on_c, 0, 64, 50
1, 146080, Note_on_c, 0, 76, 0
1, 146080, Note_on_c, 0, 64, 0
1, 146112, Note_on_c, 0, 74, 50
1, 146112, Note_on_c, 0, 67, 50
1, 146176, Note_on_c, 0, 74, 0
1, 146176, Note_on_c, 0, 67, 0
1, 146208, Note_on_c, 0, 72, 50
1, 146208, Note_on_c, 0, 64, 50
1, 146272, Note_on_c, 0, 72, 0
1, 146272, Note_on_c, 0, 64, 0
1, 146304, Note_on_c, 0, 72, 50
1, 146304, Note_on_c, 0, 60, 50
1, 146368, Note_on_c, 0, 60, 0
1, 146400, Note_on_c, 0, 64, 50
1, 146432, Note_on_c, 0, 72, 0
1, 146464, Note_on_c, 0, 64, 0
1, 146496, Note_on_c, 0, 72, 50
1, 146496, Note_on_c, 0, 67, 50
1, 146560, Note_on_c, 0, 67, 0
1, 146592, Note_on_c, 0, 64, 50
1, 146624, Note_on_c, 0, 72, 0
1, 146656, Note_on_c, 0, 64, 0
1, 146688, Note_on_c, 0, 71, 50
1, 146688, Note_on_c, 0, 60, 50
1, 146720, Note_on_c, 0, 71, 0
1, 146736, Note_on_c, 0, 72, 50
1, 146752, Note_on_c, 0, 60, 0
1, 146768, Note_on_c, 0, 72, 0
1, 146784, Note_on_c, 0, 74, 50
1, 146784, Note_on_c, 0, 64, 50
1, 146816, Note_on_c, 0, 74, 0
1, 146832, Note_on_c, 0, 72, 50
1, 146848, Note_on_c, 0, 64, 0
1, 146880, Note_on_c, 0, 67, 50
1, 146944, Note_on_c, 0, 67, 0
1, 146976, Note_on_c, 0, 64, 50
1, 147024, Note_on_c, 0, 72, 0
1, 147040, Note_on_c, 0, 64, 0
1, 147072, Note_on_c, 0, 60, 50
1, 147136, Note_on_c, 0, 60, 0
1, 147168, Note_on_c, 0, 64, 50
1, 147232, Note_on_c, 0, 64, 0
1, 147264, Note_on_c, 0, 84, 50
1, 147264, Note_on_c, 0, 67, 50
1, 147328, Note_on_c, 0, 67, 0
1, 147360, Note_on_c, 0, 64, 50
1, 147392, Note_on_c, 0, 84, 0
1, 147424, Note_on_c, 0, 64, 0
1, 147456, Note_on_c, 0, 83, 50
1, 147456, Note_on_c, 0, 60, 50
1, 147520, Note_on_c, 0, 83, 0
1, 147520, Note_on_c, 0, 60, 0
1, 147520, Note_on_c, 0, 81, 50
1, 147552, Note_on_c, 0, 65, 50
1, 147616, Note_on_c, 0, 81, 0
1, 147616, Note_on_c, 0, 65, 0
1, 147648, Note_on_c, 0, 79, 50
1, 147648, Note_on_c, 0, 69, 50
1, 147712, Note_on_c, 0, 79, 0
1, 147712, Note_on_c, 0, 69, 0
1, 147744, Note_on_c, 0, 77, 50
1, 147744, Note_on_c, 0, 65, 50
1, 147808, Note_on_c, 0, 77, 0
1, 147808, Note_on_c, 0, 65, 0
1, 147840, Note_on_c, 0, 77, 50
1, 147840, Note_on_c, 0, 60, 50
1, 147904, Note_on_c, 0, 60, 0
1, 147936, Note_on_c, 0, 65, 50
1, 147968, Note_on_c, 0, 77, 0
1, 148000, Note_on_c, 0, 65, 0
1, 148032, Note_on_c, 0, 77, 50
1, 148032, Note_on_c, 0, 69, 50
1, 148096, Note_on_c, 0, 69, 0
1, 148128, Note_on_c, 0, 65, 50
1, 148160, Note_on_c, 0, 77, 0
1, 148192, Note_on_c, 0, 65, 0
1, 148224, Note_on_c, 0, 76, 50
1, 148224, Note_on_c, 0, 60, 50
1, 148256, Note_on_c, 0, 76, 0
1, 148272, Note_on_c, 0, 77, 50
1, 148288, Note_on_c, 0, 60, 0
1, 148304, Note_on_c, 0, 77, 0
1, 148320, Note_on_c, 0, 81, 50
1, 148320, Note_on_c, 0, 65, 50
1, 148352, Note_on_c, 0, 81, 0
1, 148368, Note_on_c, 0, 77, 50
1, 148384, Note_on_c, 0, 65, 0
1, 148416, Note_on_c, 0, 69, 50
1, 148480, Note_on_c, 0, 69, 0
1, 148512, Note_on_c, 0, 65, 50
1, 148560, Note_on_c, 0, 77, 0
1, 148576, Note_on_c, 0, 65, 0
1, 148608, Note_on_c, 0, 60, 50
1, 148672, Note_on_c, 0, 60, 0
1, 148704, Note_on_c, 0, 65, 50
1, 148768, Note_on_c, 0, 65, 0
1, 148800, Note_on_c, 0, 81, 50
1, 148800, Note_on_c, 0, 69, 50
1, 148864, Note_on_c, 0, 69, 0
1, 148896, Note_on_c, 0, 65, 50
1, 148928, Note_on_c, 0, 81, 0
1, 148960, Note_on_c, 0, 65, 0
1, 148992, Note_on_c, 0, 81, 50
1, 148992, Note_on_c, 0, 60, 50
1, 149056, Note_on_c, 0, 81, 0
1, 149056, Note_on_c, 0, 60, 0
1, 149056, Note_on_c, 0, 79, 50
1, 149088, Note_on_c, 0, 64, 50
1, 149152, Note_on_c, 0, 79, 0
1, 149152, Note_on_c, 0, 64, 0
1, 149184, Note_on_c, 0, 77, 50
1, 149184, Note_on_c, 0, 67, 50
1, 149248, Note_on_c, 0, 77, 0
1, 149248, Note_on_c, 0, 67, 0
1, 149280, Note_on_c, 0, 76, 50
1, 149280, Note_on_c, 0, 64, 50
1, 149344, Note_on_c, 0, 76, 0
1, 149344, Note_on_c, 0, 64, 0
1, 149376, Note_on_c, 0, 76, 50
1, 149376, Note_on_c, 0, 61, 50
1, 149440, Note_on_c, 0, 61, 0
1, 149472, Note_on_c, 0, 69, 50
1, 149504, Note_on_c, 0, 76, 0
1, 149536, Note_on_c, 0, 69, 0
1, 149568, Note_on_c, 0, 79, 50
1, 149568, Note_on_c, 0, 70, 50
1, 149632, Note_on_c, 0, 70, 0
1, 149664, Note_on_c, 0, 69, 50
1, 149696, Note_on_c, 0, 79, 0
1, 149728, Note_on_c, 0, 69, 0
1, 149760, Note_on_c, 0, 79, 50
1, 149760, Note_on_c, 0, 62, 50
1, 149824, Note_on_c, 0, 79, 0
1, 149824, Note_on_c, 0, 62, 0
1, 149824, Note_on_c, 0, 77, 50
1, 149856, Note_on_c, 0, 65, 50
1, 149920, Note_on_c, 0, 77, 0
1, 149920, Note_on_c, 0, 65, 0
1, 149952, Note_on_c, 0, 76, 50
1, 149952, Note_on_c, 0, 69, 50
1, 150016, Note_on_c, 0, 76, 0
1, 150016, Note_on_c, 0, 69, 0
1, 150048, Note_on_c, 0, 74, 50
1, 150048, Note_on_c, 0, 65, 50
1, 150112, Note_on_c, 0, 74, 0
1, 150112, Note_on_c, 0, 65, 0
1, 150144, Note_on_c, 0, 74, 50
1, 150144, Note_on_c, 0, 59, 50
1, 150208, Note_on_c, 0, 59, 0
1, 150240, Note_on_c, 0, 67, 50
1, 150272, Note_on_c, 0, 74, 0
1, 150304, Note_on_c, 0, 67, 0
1, 150336, Note_on_c, 0, 77, 50
1, 150336, Note_on_c, 0, 68, 50
1, 150400, Note_on_c, 0, 68, 0
1, 150432, Note_on_c, 0, 67, 50
1, 150464, Note_on_c, 0, 77, 0
1, 150496, Note_on_c, 0, 67, 0
1, 150528, Note_on_c, 0, 77, 50
1, 150528, Note_on_c, 0, 60, 50
1, 150592, Note_on_c, 0, 77, 0
1, 150592, Note_on_c, 0, 60, 0
1, 150592, Note_on_c, 0, 76, 50
1, 150624, Note_on_c, 0, 67, 50
1, 150688, Note_on_c, 0, 76, 0
1, 150688, Note_on_c, 0, 67, 0
1, 150720, Note_on_c, 0, 74, 50
1, 150720, Note_on_c, 0, 64, 50
1, 150784, Note_on_c, 0, 74, 0
1, 150784, Note_on_c, 0, 64, 0
1, 150816, Note_on_c, 0, 72, 50
1, 150816, Note_on_c, 0, 67, 50
1, 150880, Note_on_c, 0, 72, 0
1, 150880, Note_on_c, 0, 67, 0
1, 150912, Note_on_c, 0, 62, 50
1, 150928, Note_on_c, 0, 71, 50
1, 150976, Note_on_c, 0, 62, 0
1, 151008, Note_on_c, 0, 65, 50
1, 151056, Note_on_c, 0, 71, 0
1, 151072, Note_on_c, 0, 65, 0
1, 151104, Note_on_c, 0, 72, 50
1, 151104, Note_on_c, 0, 60, 50
1, 151168, Note_on_c, 0, 60, 0
1, 151200, Note_on_c, 0, 64, 50
1, 151232, Note_on_c, 0, 72, 0
1, 151264, Note_on_c, 0, 64, 0
1, 151296, Note_on_c, 0, 76, 50
1, 151296, Note_on_c, 0, 55, 50
1, 151360, Note_on_c, 0, 55, 0
1, 151392, Note_on_c, 0, 60, 50
1, 151456, Note_on_c, 0, 60, 0
1, 151488, Note_on_c, 0, 64, 50
1, 151552, Note_on_c, 0, 76, 0
1, 151552, Note_on_c, 0, 64, 0
1, 151584, Note_on_c, 0, 60, 50
1, 151648, Note_on_c, 0, 60, 0
1, 151680, Note_on_c, 0, 74, 50
1, 151680, Note_on_c, 0, 59, 50
1, 151680, Note_on_c, 0, 55, 50
1, 151744, Note_on_c, 0, 74, 0
1, 151776, Note_on_c, 0, 79, 50
1, 151808, Note_on_c, 0, 59, 0
1, 151808, Note_on_c, 0, 55, 0
1, 151840, Note_on_c, 0, 79, 0
1, 151872, Note_on_c, 0, 78, 50
1, 151936, Note_on_c, 0, 78, 0
1, 151968, Note_on_c, 0, 77, 50
1, 152032, Note_on_c, 0, 77, 0
1, 152064, Note_on_c, 0, 77, 75
1, 152064, Note_on_c, 1, 48, 75
1, 152128, Note_on_c, 0, 77, 0
1, 152128, Note_on_c, 0, 76, 75
1, 152128, Note_on_c, 1, 48, 0
1, 152160, Note_on_c, 1, 60, 75
1, 152224, Note_on_c, 0, 76, 0
1, 152224, Note_on_c, 1, 60, 0
1, 152256, Note_on_c, 0, 74, 75
1, 152256, Note_on_c, 1, 52, 75
1, 152320, Note_on_c, 0, 74, 0
1, 152320, Note_on_c, 1, 52, 0
1, 152352, Note_on_c, 0, 72, 75
1, 152352, Note_on_c, 1, 60, 75
1, 152416, Note_on_c, 0, 72, 0
1, 152416, Note_on_c, 1, 60, 0
1, 152448, Note_on_c, 0, 72, 75
1, 152448, Note_on_c, 1, 55, 75
1, 152512, Note_on_c, 0, 72, 0
1, 152512, Note_on_c, 1, 55, 0
1, 152544, Note_on_c, 0, 72, 75
1, 152544, Note_on_c, 1, 60, 75
1, 152608, Note_on_c, 0, 72, 0
1, 152608, Note_on_c, 1, 60, 0
1, 152640, Note_on_c, 0, 72, 75
1, 152640, Note_on_c, 1, 52, 75
1, 152704, Note_on_c, 0, 72, 0
1, 152704, Note_on_c, 1, 52, 0
1, 152736, Note_on_c, 0, 72, 75
1, 152736, Note_on_c, 1, 60, 75
1, 152800, Note_on_c, 0, 72, 0
1, 152800, Note_on_c, 1, 60, 0
1, 152832, Note_on_c, 0, 72, 75
1, 152832, Note_on_c, 1, 48, 75
1, 152896, Note_on_c, 1, 48, 0
1, 152928, Note_on_c, 1, 60, 75
1, 152992, Note_on_c, 1, 60, 0
1, 153024, Note_on_c, 1, 52, 75
1, 153088, Note_on_c, 1, 52, 0
1, 153120, Note_on_c, 1, 60, 75
1, 153184, Note_on_c, 1, 60, 0
1, 153216, Note_on_c, 0, 72, 0
1, 153216, Note_on_c, 1, 55, 75
1, 153280, Note_on_c, 1, 55, 0
1, 153312, Note_on_c, 1, 60, 75
1, 153376, Note_on_c, 1, 60, 0
1, 153408, Note_on_c, 0, 84, 75
1, 153408, Note_on_c, 1, 52, 75
1, 153472, Note_on_c, 1, 52, 0
1, 153504, Note_on_c, 1, 60, 75
1, 153536, Note_on_c, 0, 84, 0
1, 153568, Note_on_c, 1, 60, 0
1, 153600, Note_on_c, 0, 83, 75
1, 153600, Note_on_c, 1, 48, 75
1, 153664, Note_on_c, 0, 83, 0
1, 153664, Note_on_c, 0, 81, 75
1, 153664, Note_on_c, 1, 48, 0
1, 153696, Note_on_c, 1, 60, 75
1, 153760, Note_on_c, 0, 81, 0
1, 153760, Note_on_c, 1, 60, 0
1, 153792, Note_on_c, 0, 79, 75
1, 153792, Note_on_c, 1, 53, 75
1, 153856, Note_on_c, 0, 79, 0
1, 153856, Note_on_c, 1, 53, 0
1, 153888, Note_on_c, 0, 77, 75
1, 153888, Note_on_c, 1, 60, 75
1, 153952, Note_on_c, 0, 77, 0
1, 153952, Note_on_c, 1, 60, 0
1, 153984, Note_on_c, 0, 77, 75
1, 153984, Note_on_c, 1, 57, 75
1, 154048, Note_on_c, 0, 77, 0
1, 154048, Note_on_c, 1, 57, 0
1, 154080, Note_on_c, 0, 77, 75
1, 154080, Note_on_c, 1, 60, 75
1, 154144, Note_on_c, 0, 77, 0
1, 154144, Note_on_c, 1, 60, 0
1, 154176, Note_on_c, 0, 77, 75
1, 154176, Note_on_c, 1, 53, 75
1, 154240, Note_on_c, 0, 77, 0
1, 154240, Note_on_c, 1, 53, 0
1, 154240, Note_on_c, 1, 60, 75
1, 154272, Note_on_c, 0, 77, 75
1, 154304, Note_on_c, 1, 60, 0
1, 154336, Note_on_c, 0, 77, 0
1, 154368, Note_on_c, 0, 77, 75
1, 154368, Note_on_c, 1, 48, 75
1, 154432, Note_on_c, 1, 48, 0
1, 154464, Note_on_c, 1, 60, 75
1, 154528, Note_on_c, 1, 60, 0
1, 154560, Note_on_c, 1, 53, 75
1, 154624, Note_on_c, 0, 77, 0
1, 154624, Note_on_c, 1, 53, 0
1, 154656, Note_on_c, 1, 60, 75
1, 154720, Note_on_c, 1, 60, 0
1, 154752, Note_on_c, 0, 77, 75
1, 154752, Note_on_c, 1, 57, 75
1, 154816, Note_on_c, 0, 77, 0
1, 154816, Note_on_c, 1, 57, 0
1, 154848, Note_on_c, 0, 81, 75
1, 154848, Note_on_c, 1, 60, 75
1, 154912, Note_on_c, 0, 81, 0
1, 154912, Note_on_c, 1, 60, 0
1, 154944, Note_on_c, 0, 84, 75
1, 154944, Note_on_c, 1, 53, 75
1, 155008, Note_on_c, 0, 84, 0
1, 155008, Note_on_c, 1, 53, 0
1, 155024, Note_on_c, 1, 60, 75
1, 155040, Note_on_c, 0, 81, 75
1, 155088, Note_on_c, 1, 60, 0
1, 155104, Note_on_c, 0, 81, 0
1, 155136, Note_on_c, 0, 78, 75
1, 155136, Note_on_c, 1, 52, 75
1, 155200, Note_on_c, 0, 78, 0
1, 155200, Note_on_c, 1, 52, 0
1, 155232, Note_on_c, 0, 79, 75
1, 155232, Note_on_c, 1, 60, 75
1, 155296, Note_on_c, 0, 79, 0
1, 155296, Note_on_c, 1, 60, 0
1, 155328, Note_on_c, 0, 88, 75
1, 155328, Note_on_c, 1, 55, 75
1, 155392, Note_on_c, 1, 55, 0
1, 155424, Note_on_c, 1, 60, 75
1, 155456, Note_on_c, 0, 88, 0
1, 155488, Note_on_c, 1, 60, 0
1, 155520, Note_on_c, 0, 88, 75
1, 155520, Note_on_c, 1, 49, 75
1, 155584, Note_on_c, 0, 88, 0
1, 155584, Note_on_c, 1, 49, 0
1, 155616, Note_on_c, 0, 79, 75
1, 155616, Note_on_c, 1, 57, 75
1, 155680, Note_on_c, 0, 79, 0
1, 155680, Note_on_c, 1, 57, 0
1, 155712, Note_on_c, 0, 81, 75
1, 155712, Note_on_c, 1, 52, 75
1, 155776, Note_on_c, 0, 81, 0
1, 155776, Note_on_c, 1, 52, 0
1, 155808, Note_on_c, 0, 76, 75
1, 155808, Note_on_c, 1, 57, 75
1, 155872, Note_on_c, 0, 76, 0
1, 155872, Note_on_c, 1, 57, 0
1, 155904, Note_on_c, 0, 79, 75
1, 155904, Note_on_c, 1, 48, 75
1, 155968, Note_on_c, 0, 79, 0
1, 155968, Note_on_c, 1, 48, 0
1, 156000, Note_on_c, 0, 78, 75
1, 156000, Note_on_c, 1, 57, 75
1, 156064, Note_on_c, 0, 78, 0
1, 156064, Note_on_c, 1, 57, 0
1, 156096, Note_on_c, 0, 86, 75
1, 156096, Note_on_c, 1, 54, 75
1, 156160, Note_on_c, 1, 54, 0
1, 156192, Note_on_c, 1, 57, 75
1, 156224, Note_on_c, 0, 86, 0
1, 156256, Note_on_c, 1, 57, 0
1, 156288, Note_on_c, 0, 86, 75
1, 156288, Note_on_c, 1, 47, 75
1, 156352, Note_on_c, 0, 86, 0
1, 156352, Note_on_c, 1, 47, 0
1, 156384, Note_on_c, 0, 77, 75
1, 156384, Note_on_c, 1, 55, 75
1, 156448, Note_on_c, 0, 77, 0
1, 156448, Note_on_c, 1, 55, 0
1, 156480, Note_on_c, 0, 79, 75
1, 156480, Note_on_c, 1, 50, 75
1, 156544, Note_on_c, 0, 79, 0
1, 156544, Note_on_c, 1, 50, 0
1, 156576, Note_on_c, 0, 74, 75
1, 156576, Note_on_c, 1, 55, 75
1, 156640, Note_on_c, 0, 74, 0
1, 156640, Note_on_c, 1, 55, 0
1, 156672, Note_on_c, 0, 77, 75
1, 156672, Note_on_c, 1, 48, 75
1, 156736, Note_on_c, 0, 77, 0
1, 156736, Note_on_c, 1, 48, 0
1, 156768, Note_on_c, 0, 76, 75
1, 156768, Note_on_c, 1, 55, 75
1, 156832, Note_on_c, 0, 76, 0
1, 156832, Note_on_c, 1, 55, 0
1, 156864, Note_on_c, 0, 77, 75
1, 156864, Note_on_c, 1, 53, 75
1, 156864, Note_on_c, 1, 57, 75
1, 156928, Note_on_c, 0, 77, 0
1, 156928, Note_on_c, 1, 57, 0
1, 156960, Note_on_c, 0, 76, 75
1, 156960, Note_on_c, 1, 62, 75
1, 156992, Note_on_c, 0, 76, 0
1, 156992, Note_on_c, 1, 53, 0
1, 157008, Note_on_c, 0, 74, 75
1, 157024, Note_on_c, 1, 62, 0
1, 157040, Note_on_c, 0, 74, 0
1, 157056, Note_on_c, 0, 72, 75
1, 157056, Note_on_c, 1, 55, 75
1, 157120, Note_on_c, 1, 55, 0
1, 157152, Note_on_c, 1, 64, 75
1, 157184, Note_on_c, 0, 72, 0
1, 157216, Note_on_c, 1, 64, 0
1, 157248, Note_on_c, 0, 71, 75
1, 157248, Note_on_c, 1, 55, 75
1, 157312, Note_on_c, 1, 55, 0
1, 157344, Note_on_c, 1, 65, 75
1, 157376, Note_on_c, 0, 71, 0
1, 157408, Note_on_c, 1, 65, 0
1, 157440, Note_on_c, 0, 79, 75
1, 157440, Note_on_c, 1, 64, 75
1, 157440, Note_on_c, 1, 60, 75
1, 157488, Note_on_c, 0, 79, 0
1, 157504, Note_on_c, 0, 76, 75
1, 157552, Note_on_c, 0, 76, 0
1, 157568, Note_on_c, 0, 79, 75
1, 157568, Note_on_c, 1, 64, 0
1, 157568, Note_on_c, 1, 60, 0
1, 157616, Note_on_c, 0, 79, 0
1, 157632, Note_on_c, 0, 84, 75
1, 157680, Note_on_c, 0, 84, 0
1, 157696, Note_on_c, 0, 79, 75
1, 157744, Note_on_c, 0, 79, 0
1, 157760, Note_on_c, 0, 84, 75
1, 157808, Note_on_c, 0, 84, 0
1, 157824, Note_on_c, 0, 88, 75
1, 157872, Note_on_c, 0, 88, 0
1, 157888, Note_on_c, 0, 86, 75
1, 157936, Note_on_c, 0, 86, 0
1, 157952, Note_on_c, 0, 84, 75
1, 158000, Note_on_c, 0, 84, 0
1, 158016, Note_on_c, 0, 82, 75
1, 158016, Note_on_c, 1, 57, 75
1, 158016, Note_on_c, 1, 52, 75
1, 158016, Note_on_c, 1, 49, 75
1, 158064, Note_on_c, 0, 82, 0
1, 158080, Note_on_c, 0, 81, 75
1, 158128, Note_on_c, 0, 81, 0
1, 158144, Note_on_c, 0, 79, 75
1, 158144, Note_on_c, 1, 57, 0
1, 158144, Note_on_c, 1, 52, 0
1, 158144, Note_on_c, 1, 49, 0
1, 158192, Note_on_c, 0, 79, 0
1, 158208, Note_on_c, 0, 77, 75
1, 158208, Note_on_c, 1, 57, 75
1, 158208, Note_on_c, 1, 53, 75
1, 158208, Note_on_c, 1, 50, 75
1, 158256, Note_on_c, 0, 77, 0
1, 158272, Note_on_c, 0, 79, 75
1, 158320, Note_on_c, 0, 79, 0
1, 158336, Note_on_c, 0, 77, 75
1, 158336, Note_on_c, 1, 57, 0
1, 158336, Note_on_c, 1, 53, 0
1, 158336, Note_on_c, 1, 50, 0
1, 158384, Note_on_c, 0, 77, 0
1, 158400, Note_on_c, 0, 76, 75
1, 158448, Note_on_c, 0, 76, 0
1, 158464, Note_on_c, 0, 74, 75
1, 158512, Note_on_c, 0, 74, 0
1, 158528, Note_on_c, 0, 72, 75
1, 158576, Note_on_c, 0, 72, 0
1, 158592, Note_on_c, 0, 71, 75
1, 158592, Note_on_c, 1, 53, 75
1, 158592, Note_on_c, 1, 50, 75
1, 158592, Note_on_c, 1, 43, 75
1, 158640, Note_on_c, 0, 71, 0
1, 158656, Note_on_c, 0, 69, 75
1, 158704, Note_on_c, 0, 69, 0
1, 158720, Note_on_c, 0, 67, 75
1, 158720, Note_on_c, 1, 53, 0
1, 158720, Note_on_c, 1, 50, 0
1, 158720, Note_on_c, 1, 43, 0
1, 158768, Note_on_c, 0, 67, 0
1, 158784, Note_on_c, 0, 65, 75
1, 158832, Note_on_c, 0, 65, 0
1, 158848, Note_on_c, 0, 64, 75
1, 158896, Note_on_c, 0, 64, 0
1, 158912, Note_on_c, 0, 62, 75
1, 158960, Note_on_c, 0, 62, 0
1, 158976, Note_on_c, 0, 64, 75
1, 158976, Note_on_c, 1, 48, 75
1, 159024, Note_on_c, 0, 64, 0
1, 159040, Note_on_c, 0, 67, 75
1, 159088, Note_on_c, 0, 67, 0
1, 159104, Note_on_c, 0, 72, 75
1, 159104, Note_on_c, 1, 48, 0
1, 159152, Note_on_c, 0, 72, 0
1, 159168, Note_on_c, 0, 69, 75
1, 159168, Note_on_c, 1, 53, 75
1, 159168, Note_on_c, 1, 41, 75
1, 159216, Note_on_c, 0, 69, 0
1, 159232, Note_on_c, 0, 65, 75
1, 159280, Note_on_c, 0, 65, 0
1, 159296, Note_on_c, 0, 62, 75
1, 159296, Note_on_c, 1, 53, 0
1, 159296, Note_on_c, 1, 41, 0
1, 159344, Note_on_c, 0, 62, 0
1, 159360, Note_on_c, 0, 60, 75
1, 159360, Note_on_c, 1, 52, 75
1, 159360, Note_on_c, 1, 43, 75
1, 159488, Note_on_c, 0, 60, 0
1, 159488, Note_on_c, 1, 52, 0
1, 159552, Note_on_c, 0, 62, 75
1, 159552, Note_on_c, 1, 47, 75
1, 159572, Note_on_c, 0, 62, 0
1, 159576, Note_on_c, 0, 64, 75
1, 159596, Note_on_c, 0, 64, 0
1, 159600, Note_on_c, 0, 62, 75
1, 159616, Note_on_c, 1, 43, 0
1, 159620, Note_on_c, 0, 62, 0
1, 159624, Note_on_c, 0, 64, 75
1, 159644, Note_on_c, 0, 64, 0
1, 159648, Note_on_c, 0, 62, 75
1, 159668, Note_on_c, 0, 62, 0
1, 159672, Note_on_c, 0, 64, 75
1, 159680, Note_on_c, 1, 47, 0
1, 159692, Note_on_c, 0, 64, 0
1, 159696, Note_on_c, 0, 60, 75
1, 159716, Note_on_c, 0, 60, 0
1, 159720, Note_on_c, 0, 62, 75
1, 159740, Note_on_c, 0, 62, 0
1, 159744, Note_on_c, 0, 60, 75
1, 159744, Note_on_c, 1, 48, 75
1, 159872, Note_on_c, 0, 60, 0
1, 159872, Note_on_c, 1, 48, 0
1, 159936, Note_on_c, 0, 76, 75
1, 159936, Note_on_c, 1, 64, 75
1, 159960, Note_on_c, 1, 64, 0
1, 159984, Note_on_c, 0, 76, 0
1, 160000, Note_on_c, 0, 74, 75
1, 160000, Note_on_c, 1, 62, 75
1, 160024, Note_on_c, 1, 62, 0
1, 160048, Note_on_c, 0, 74, 0
1, 160064, Note_on_c, 0, 72, 75
1, 160064, Note_on_c, 1, 60, 75
1, 160088, Note_on_c, 1, 60, 0
1, 160112, Note_on_c, 0, 72, 0
1, 160128, Note_on_c, 0, 71, 75
1, 160128, Note_on_c, 1, 59, 75
1, 160152, Note_on_c, 1, 59, 0
1, 160176, Note_on_c, 0, 71, 0
1, 160192, Note_on_c, 0, 74, 75
1, 160192, Note_on_c, 1, 62, 75
1, 160216, Note_on_c, 1, 62, 0
1, 160240, Note_on_c, 0, 74, 0
1, 160256, Note_on_c, 0, 72, 75
1, 160256, Note_on_c, 1, 60, 75
1, 160280, Note_on_c, 1, 60, 0
1, 160304, Note_on_c, 0, 72, 0
1, 160320, Note_on_c, 0, 76, 75
1, 160320, Note_on_c, 1, 64, 75
1, 160344, Note_on_c, 1, 64, 0
1, 160368, Note_on_c, 0, 76, 0
1, 160384, Note_on_c, 0, 68, 75
1, 160384, Note_on_c, 1, 56, 75
1, 160408, Note_on_c, 1, 56, 0
1, 160432, Note_on_c, 0, 68, 0
1, 160448, Note_on_c, 0, 74, 75
1, 160448, Note_on_c, 1, 59, 75
1, 160472, Note_on_c, 1, 59, 0
1, 160496, Note_on_c, 0, 74, 0
1, 160512, Note_on_c, 0, 69, 75
1, 160512, Note_on_c, 1, 57, 75
1, 160560, Note_on_c, 0, 69, 0
1, 160560, Note_on_c, 1, 57, 0
1, 160576, Note_on_c, 0, 72, 75
1, 160576, Note_on_c, 1, 60, 75
1, 160624, Note_on_c, 0, 72, 0
1, 160624, Note_on_c, 1, 60, 0
1, 160640, Note_on_c, 0, 71, 75
1, 160640, Note_on_c, 1, 59, 75
1, 160688, Note_on_c, 0, 71, 0
1, 160688, Note_on_c, 1, 59, 0
1, 160704, Note_on_c, 0, 69, 75
1, 160704, Note_on_c, 1, 57, 75
1, 160752, Note_on_c, 0, 69, 0
1, 160752, Note_on_c, 1, 57, 0
1, 160768, Note_on_c, 0, 67, 75
1, 160768, Note_on_c, 1, 55, 75
1, 160816, Note_on_c, 0, 67, 0
1, 160816, Note_on_c, 1, 55, 0
1, 160832, Note_on_c, 0, 65, 75
1, 160832, Note_on_c, 1, 53, 75
1, 160880, Note_on_c, 0, 65, 0
1, 160880, Note_on_c, 1, 53, 0
1, 160896, Note_on_c, 0, 62, 75
1, 160896, Note_on_c, 1, 52, 75
1, 160944, Note_on_c, 0, 62, 0
1, 160944, Note_on_c, 1, 52, 0
1, 160960, Note_on_c, 0, 67, 75
1, 160960, Note_on_c, 1, 55, 75
1, 161008, Note_on_c, 0, 67, 0
1, 161008, Note_on_c, 1, 55, 0
1, 161024, Note_on_c, 0, 65, 75
1, 161024, Note_on_c, 1, 53, 75
1, 161072, Note_on_c, 0, 65, 0
1, 161072, Note_on_c, 1, 53, 0
1, 161088, Note_on_c, 0, 69, 75
1, 161088, Note_on_c, 1, 57, 75
1, 161136, Note_on_c, 0, 69, 0
1, 161136, Note_on_c, 1, 57, 0
1, 161152, Note_on_c, 0, 61, 75
1, 161152, Note_on_c, 1, 49, 75
1, 161200, Note_on_c, 0, 61, 0
1, 161200, Note_on_c, 1, 49, 0
1, 161216, Note_on_c, 0, 64, 75
1, 161216, Note_on_c, 1, 52, 75
1, 161264, Note_on_c, 0, 64, 0
1, 161264, Note_on_c, 1, 52, 0
1, 161280, Note_on_c, 0, 62, 75
1, 161280, Note_on_c, 1, 50, 75
1, 161304, Note_on_c, 1, 50, 0
1, 161328, Note_on_c, 0, 62, 0
1, 161344, Note_on_c, 0, 65, 75
1, 161344, Note_on_c, 1, 53, 75
1, 161368, Note_on_c, 1, 53, 0
1, 161392, Note_on_c, 0, 65, 0
1, 161408, Note_on_c, 0, 64, 75
1, 161408, Note_on_c, 1, 52, 75
1, 161432, Note_on_c, 1, 52, 0
1, 161456, Note_on_c, 0, 64, 0
1, 161472, Note_on_c, 0, 62, 75
1, 161472, Note_on_c, 1, 50, 75
1, 161496, Note_on_c, 1, 50, 0
1, 161520, Note_on_c, 0, 62, 0
1, 161536, Note_on_c, 0, 60, 75
1, 161536, Note_on_c, 1, 48, 75
1, 161560, Note_on_c, 1, 48, 0
1, 161584, Note_on_c, 0, 60, 0
1, 161600, Note_on_c, 0, 59, 75
1, 161600, Note_on_c, 1, 47, 75
1, 161624, Note_on_c, 1, 47, 0
1, 161648, Note_on_c, 0, 59, 0
1, 161664, Note_on_c, 1, 45, 75
1, 161664, Note_on_c, 1, 57, 75
1, 161688, Note_on_c, 1, 45, 0
1, 161688, Note_on_c, 1, 57, 0
1, 161728, Note_on_c, 1, 60, 75
1, 161728, Note_on_c, 1, 48, 75
1, 161752, Note_on_c, 1, 60, 0
1, 161752, Note_on_c, 1, 48, 0
1, 161792, Note_on_c, 1, 47, 75
1, 161792, Note_on_c, 1, 59, 75
1, 161816, Note_on_c, 1, 47, 0
1, 161816, Note_on_c, 1, 59, 0
1, 161856, Note_on_c, 1, 50, 75
1, 161856, Note_on_c, 1, 62, 75
1, 161880, Note_on_c, 1, 50, 0
1, 161880, Note_on_c, 1, 62, 0
1, 161920, Note_on_c, 1, 42, 75
1, 161920, Note_on_c, 1, 54, 75
1, 161944, Note_on_c, 1, 42, 0
1, 161944, Note_on_c, 1, 54, 0
1, 161984, Note_on_c, 1, 45, 75
1, 161984, Note_on_c, 1, 57, 75
1, 162008, Note_on_c, 1, 45, 0
1, 162008, Note_on_c, 1, 57, 0
1, 162048, Note_on_c, 1, 55, 75
1, 162048, Note_on_c, 1, 43, 75
1, 162176, Note_on_c, 1, 55, 0
1, 162176, Note_on_c, 1, 43, 0
1, 162432, Note_on_c, 0, 55, 50
1, 162496, Note_on_c, 0, 55, 0
1, 162528, Note_on_c, 0, 57, 50
1, 162592, Note_on_c, 0, 57, 0
1, 162608, Note_on_c, 0, 59, 50
1, 162672, Note_on_c, 0, 59, 0
1, 162704, Note_on_c, 0, 60, 50
1, 162768, Note_on_c, 0, 60, 0
1, 162816, Note_on_c, 0, 62, 52
1, 162944, Note_on_c, 0, 62, 0
1, 163008, Note_on_c, 1, 50, 50
1, 163008, Note_on_c, 1, 47, 50
1, 163008, Note_on_c, 1, 43, 50
1, 163136, Note_on_c, 1, 50, 0
1, 163136, Note_on_c, 1, 47, 0
1, 163136, Note_on_c, 1, 43, 0
1, 163200, Note_on_c, 0, 67, 57
1, 163264, Note_on_c, 0, 67, 0
1, 163296, Note_on_c, 0, 69, 62
1, 163360, Note_on_c, 0, 69, 0
1, 163392, Note_on_c, 0, 71, 67
1, 163456, Note_on_c, 0, 71, 0
1, 163488, Note_on_c, 0, 72, 72
1, 163552, Note_on_c, 0, 72, 0
1, 163584, Note_on_c, 0, 74, 75
1, 163712, Note_on_c, 0, 74, 0
1, 163776, Note_on_c, 1, 50, 75
1, 163776, Note_on_c, 1, 47, 75
1, 163776, Note_on_c, 1, 43, 75
1, 163840, Note_on_c, 1, 50, 0
1, 163840, Note_on_c, 1, 47, 0
1, 163840, Note_on_c, 1, 43, 0
1, 163968, Note_on_c, 0, 71, 75
1, 164032, Note_on_c, 0, 71, 0
1, 164064, Note_on_c, 0, 72, 75
1, 164128, Note_on_c, 0, 72, 0
1, 164160, Note_on_c, 0, 74, 75
1, 164224, Note_on_c, 0, 74, 0
1, 164256, Note_on_c, 0, 76, 75
1, 164320, Note_on_c, 0, 76, 0
1, 164352, Note_on_c, 0, 77, 50
1, 164416, Note_on_c, 0, 77, 0
1, 164544, Note_on_c, 1, 62, 50
1, 164544, Note_on_c, 1, 59, 50
1, 164544, Note_on_c, 1, 55, 50
1, 164608, Note_on_c, 1, 62, 0
1, 164608, Note_on_c, 1, 59, 0
1, 164608, Note_on_c, 1, 55, 0
1, 164736, Note_on_c, 0, 72, 50
1, 164800, Note_on_c, 0, 72, 0
1, 164832, Note_on_c, 0, 74, 50
1, 164896, Note_on_c, 0, 74, 0
1, 164928, Note_on_c, 0, 76, 50
1, 164992, Note_on_c, 0, 76, 0
1, 165024, Note_on_c, 0, 77, 50
1, 165088, Note_on_c, 0, 77, 0
1, 165120, Note_on_c, 0, 79, 50
1, 165248, Note_on_c, 0, 79, 0
1, 165312, Note_on_c, 0, 81, 50
1, 165440, Note_on_c, 0, 81, 0
1, 165504, Note_on_c, 0, 79, 50
1, 165632, Note_on_c, 0, 79, 0
1, 165696, Note_on_c, 0, 78, 50
1, 165824, Note_on_c, 0, 78, 0
1, 165888, Note_on_c, 0, 77, 50
1, 166016, Note_on_c, 0, 77, 0
1, 166080, Note_on_c, 1, 56, 50
1, 166080, Note_on_c, 1, 59, 50
1, 166208, Note_on_c, 1, 56, 0
1, 166208, Note_on_c, 1, 59, 0
1, 166272, Note_on_c, 0, 76, 50
1, 166400, Note_on_c, 0, 76, 0
1, 166464, Note_on_c, 1, 57, 50
1, 166464, Note_on_c, 1, 60, 50
1, 166592, Note_on_c, 1, 57, 0
1, 166592, Note_on_c, 1, 60, 0
1, 166656, Note_on_c, 1, 57, 50
1, 166656, Note_on_c, 1, 53, 50
1, 166848, Note_on_c, 0, 74, 50
1, 166912, Note_on_c, 1, 57, 0
1, 166912, Note_on_c, 1, 53, 0
1, 166976, Note_on_c, 0, 74, 0
1, 167040, Note_on_c, 0, 77, 50
1, 167168, Note_on_c, 0, 77, 0
1, 167232, Note_on_c, 0, 71, 50
1, 167232, Note_on_c, 1, 65, 50
1, 167232, Note_on_c, 1, 55, 50
1, 167360, Note_on_c, 0, 71, 0
1, 167360, Note_on_c, 1, 65, 0
1, 167360, Note_on_c, 1, 55, 0
1, 167424, Note_on_c, 0, 72, 50
1, 167424, Note_on_c, 1, 64, 50
1, 167424, Note_on_c, 1, 60, 50
1, 167552, Note_on_c, 0, 72, 0
1, 167552, Note_on_c, 1, 64, 0
1, 167552, Note_on_c, 1, 60, 0
1, 167616, Note_on_c, 1, 48, 50
1, 167744, Note_on_c, 1, 48, 0
1, 167808, Note_on_c, 1, 48, 75
1, 167808, Note_on_c, 1, 36, 75
1, 167872, Note_on_c, 1, 48, 0
1, 167872, Note_on_c, 1, 36, 0
1, 167904, Note_on_c, 1, 50, 75
1, 167904, Note_on_c, 1, 38, 75
1, 167968, Note_on_c, 1, 50, 0
1, 167968, Note_on_c, 1, 38, 0
1, 168000, Note_on_c, 1, 52, 75
1, 168000, Note_on_c, 1, 40, 75
1, 168064, Note_on_c, 1, 52, 0
1, 168064, Note_on_c, 1, 40, 0
1, 168096, Note_on_c, 1, 53, 75
1, 168096, Note_on_c, 1, 41, 75
1, 168160, Note_on_c, 1, 53, 0
1, 168160, Note_on_c, 1, 41, 0
1, 168192, Note_on_c, 1, 55, 75
1, 168192, Note_on_c, 1, 43, 75
1, 168320, Note_on_c, 1, 55, 0
1, 168320, Note_on_c, 1, 43, 0
1, 168384, Note_on_c, 1, 57, 75
1, 168384, Note_on_c, 1, 45, 75
1, 168512, Note_on_c, 1, 57, 0
1, 168512, Note_on_c, 1, 45, 0
1, 168576, Note_on_c, 1, 55, 75
1, 168576, Note_on_c, 1, 43, 75
1, 168704, Note_on_c, 1, 55, 0
1, 168704, Note_on_c, 1, 43, 0
1, 168768, Note_on_c, 1, 54, 75
1, 168768, Note_on_c, 1, 42, 75
1, 168896, Note_on_c, 1, 54, 0
1, 168896, Note_on_c, 1, 42, 0
1, 168960, Note_on_c, 1, 53, 75
1, 168960, Note_on_c, 1, 41, 75
1, 169088, Note_on_c, 1, 53, 0
1, 169088, Note_on_c, 1, 41, 0
1, 169152, Note_on_c, 0, 83, 75
1, 169152, Note_on_c, 0, 80, 75
1, 169152, Note_on_c, 0, 74, 75
1, 169280, Note_on_c, 0, 83, 0
1, 169280, Note_on_c, 0, 80, 0
1, 169280, Note_on_c, 0, 74, 0
1, 169344, Note_on_c, 1, 52, 75
1, 169344, Note_on_c, 1, 40, 75
1, 169472, Note_on_c, 1, 52, 0
1, 169472, Note_on_c, 1, 40, 0
1, 169536, Note_on_c, 0, 82, 75
1, 169536, Note_on_c, 0, 79, 75
1, 169536, Note_on_c, 0, 73, 75
1, 169664, Note_on_c, 0, 82, 0
1, 169664, Note_on_c, 0, 79, 0
1, 169664, Note_on_c, 0, 73, 0
1, 169728, Note_on_c, 1, 53, 75
1, 169792, Note_on_c, 0, 81, 75
1, 169816, Note_on_c, 0, 81, 0
1, 169856, Note_on_c, 0, 79, 75
1, 169880, Note_on_c, 0, 79, 0
1, 169920, Note_on_c, 0, 81, 75
1, 169920, Note_on_c, 1, 62, 75
1, 169944, Note_on_c, 0, 81, 0
1, 169984, Note_on_c, 0, 77, 75
1, 169984, Note_on_c, 1, 53, 0
1, 170008, Note_on_c, 0, 77, 0
1, 170048, Note_on_c, 0, 74, 75
1, 170048, Note_on_c, 1, 62, 0
1, 170072, Note_on_c, 0, 74, 0
1, 170112, Note_on_c, 0, 72, 75
1, 170112, Note_on_c, 1, 64, 75
1, 170112, Note_on_c, 1, 55, 75
1, 170240, Note_on_c, 0, 72, 0
1, 170240, Note_on_c, 1, 64, 0
1, 170240, Note_on_c, 1, 55, 0
1, 170304, Note_on_c, 0, 74, 75
1, 170304, Note_on_c, 1, 59, 75
1, 170304, Note_on_c, 1, 55, 75
1, 170432, Note_on_c, 0, 74, 0
1, 170432, Note_on_c, 1, 59, 0
1, 170432, Note_on_c, 1, 55, 0
1, 170496, Note_on_c, 0, 67, 82
1, 170528, Note_on_c, 0, 67, 0
1, 170544, Note_on_c, 0, 79, 82
1, 170576, Note_on_c, 0, 79, 0
1, 170592, Note_on_c, 0, 67, 82
1, 170624, Note_on_c, 0, 67, 0
1, 170640, Note_on_c, 0, 79, 82
1, 170672, Note_on_c, 0, 79, 0
1, 170688, Note_on_c, 0, 67, 82
1, 170720, Note_on_c, 0, 67, 0
1, 170736, Note_on_c, 0, 79, 82
1, 170768, Note_on_c, 0, 79, 0
1, 170784, Note_on_c, 0, 67, 82
1, 170816, Note_on_c, 0, 67, 0
1, 170832, Note_on_c, 0, 79, 82
1, 170864, Note_on_c, 0, 79, 0
1, 170880, Note_on_c, 0, 67, 82
1, 170880, Note_on_c, 1, 60, 87
1, 170880, Note_on_c, 1, 64, 87
1, 170912, Note_on_c, 0, 67, 0
1, 170928, Note_on_c, 0, 79, 82
1, 170960, Note_on_c, 0, 79, 0
1, 170976, Note_on_c, 0, 67, 82
1, 171008, Note_on_c, 0, 67, 0
1, 171008, Note_on_c, 1, 60, 0
1, 171008, Note_on_c, 1, 64, 0
1, 171024, Note_on_c, 0, 79, 82
1, 171056, Note_on_c, 0, 79, 0
1, 171072, Note_on_c, 0, 67, 82
1, 171072, Note_on_c, 1, 65, 87
1, 171072, Note_on_c, 1, 59, 87
1, 171104, Note_on_c, 0, 67, 0
1, 171120, Note_on_c, 0, 79, 82
1, 171152, Note_on_c, 0, 79, 0
1, 171168, Note_on_c, 0, 67, 82
1, 171200, Note_on_c, 0, 67, 0
1, 171200, Note_on_c, 1, 65, 0
1, 171200, Note_on_c, 1, 59, 0
1, 171216, Note_on_c, 0, 79, 82
1, 171248, Note_on_c, 0, 79, 0
1, 171264, Note_on_c, 0, 67, 82
1, 171264, Note_on_c, 1, 64, 87
1, 171264, Note_on_c, 1, 60, 87
1, 171296, Note_on_c, 0, 67, 0
1, 171312, Note_on_c, 0, 79, 82
1, 171344, Note_on_c, 0, 79, 0
1, 171360, Note_on_c, 0, 67, 82
1, 171392, Note_on_c, 0, 67, 0
1, 171392, Note_on_c, 1, 64, 0
1, 171392, Note_on_c, 1, 60, 0
1, 171408, Note_on_c, 0, 79, 82
1, 171440, Note_on_c, 0, 79, 0
1, 171456, Note_on_c, 0, 67, 82
1, 171488, Note_on_c, 0, 67, 0
1, 171504, Note_on_c, 0, 79, 82
1, 171536, Note_on_c, 0, 79, 0
1, 171552, Note_on_c, 0, 67, 82
1, 171584, Note_on_c, 0, 67, 0
1, 171600, Note_on_c, 0, 79, 82
1, 171632, Note_on_c, 0, 79, 0
1, 171648, Note_on_c, 0, 67, 82
1, 171648, Note_on_c, 1, 52, 87
1, 171648, Note_on_c, 1, 48, 87
1, 171680, Note_on_c, 0, 67, 0
1, 171696, Note_on_c, 0, 79, 82
1, 171728, Note_on_c, 0, 79, 0
1, 171744, Note_on_c, 0, 67, 82
1, 171776, Note_on_c, 0, 67, 0
1, 171776, Note_on_c, 1, 52, 0
1, 171776, Note_on_c, 1, 48, 0
1, 171792, Note_on_c, 0, 79, 82
1, 171824, Note_on_c, 0, 79, 0
1, 171840, Note_on_c, 0, 67, 82
1, 171840, Note_on_c, 1, 53, 87
1, 171840, Note_on_c, 1, 47, 87
1, 171872, Note_on_c, 0, 67, 0
1, 171888, Note_on_c, 0, 79, 82
1, 171920, Note_on_c, 0, 79, 0
1, 171936, Note_on_c, 0, 67, 82
1, 171968, Note_on_c, 0, 67, 0
1, 171968, Note_on_c, 1, 53, 0
1, 171968, Note_on_c, 1, 47, 0
1, 171984, Note_on_c, 0, 79, 82
1, 172016, Note_on_c, 0, 79, 0
1, 172032, Note_on_c, 0, 67, 82
1, 172032, Note_on_c, 1, 52, 87
1, 172032, Note_on_c, 1, 48, 87
1, 172064, Note_on_c, 0, 67, 0
1, 172080, Note_on_c, 0, 79, 82
1, 172112, Note_on_c, 0, 79, 0
1, 172128, Note_on_c, 0, 67, 82
1, 172160, Note_on_c, 0, 67, 0
1, 172160, Note_on_c, 1, 52, 0
1, 172160, Note_on_c, 1, 48, 0
1, 172176, Note_on_c, 0, 79, 82
1, 172208, Note_on_c, 0, 79, 0
1, 172224, Note_on_c, 0, 67, 82
1, 172256, Note_on_c, 0, 67, 0
1, 172272, Note_on_c, 0, 79, 82
1, 172304, Note_on_c, 0, 79, 0
1, 172320, Note_on_c, 0, 67, 82
1, 172352, Note_on_c, 0, 67, 0
1, 172368, Note_on_c, 0, 79, 82
1, 172400, Note_on_c, 0, 79, 0
1, 172416, Note_on_c, 0, 67, 82
1, 172416, Note_on_c, 1, 60, 87
1, 172416, Note_on_c, 1, 64, 87
1, 172448, Note_on_c, 0, 67, 0
1, 172464, Note_on_c, 0, 79, 82
1, 172480, Note_on_c, 1, 60, 0
1, 172480, Note_on_c, 1, 64, 0
1, 172496, Note_on_c, 0, 79, 0
1, 172512, Note_on_c, 0, 67, 82
1, 172512, Note_on_c, 1, 60, 87
1, 172512, Note_on_c, 1, 64, 87
1, 172544, Note_on_c, 0, 67, 0
1, 172560, Note_on_c, 0, 79, 82
1, 172576, Note_on_c, 1, 60, 0
1, 172576, Note_on_c, 1, 64, 0
1, 172592, Note_on_c, 0, 79, 0
1, 172608, Note_on_c, 0, 67, 82
1, 172608, Note_on_c, 1, 59, 87
1, 172608, Note_on_c, 1, 65, 87
1, 172640, Note_on_c, 0, 67, 0
1, 172656, Note_on_c, 0, 79, 82
1, 172672, Note_on_c, 1, 59, 0
1, 172672, Note_on_c, 1, 65, 0
1, 172688, Note_on_c, 0, 79, 0
1, 172704, Note_on_c, 0, 67, 82
1, 172704, Note_on_c, 1, 65, 87
1, 172704, Note_on_c, 1, 59, 87
1, 172736, Note_on_c, 0, 67, 0
1, 172768, Note_on_c, 0, 79, 82
1, 172768, Note_on_c, 1, 65, 0
1, 172768, Note_on_c, 1, 59, 0
1, 172800, Note_on_c, 0, 79, 0
1, 172800, Note_on_c, 0, 67, 82
1, 172800, Note_on_c, 1, 60, 87
1, 172800, Note_on_c, 1, 64, 87
1, 172832, Note_on_c, 0, 67, 0
1, 172848, Note_on_c, 0, 79, 82
1, 172880, Note_on_c, 0, 79, 0
1, 172896, Note_on_c, 0, 67, 82
1, 172928, Note_on_c, 0, 67, 0
1, 172928, Note_on_c, 1, 60, 0
1, 172928, Note_on_c, 1, 64, 0
1, 172944, Note_on_c, 0, 79, 82
1, 172976, Note_on_c, 0, 79, 0
1, 172992, Note_on_c, 0, 67, 82
1, 173024, Note_on_c, 0, 67, 0
1, 173040, Note_on_c, 0, 79, 82
1, 173072, Note_on_c, 0, 79, 0
1, 173088, Note_on_c, 0, 67, 82
1, 173120, Note_on_c, 0, 67, 0
1, 173136, Note_on_c, 0, 79, 82
1, 173168, Note_on_c, 0, 79, 0
1, 173184, Note_on_c, 0, 67, 82
1, 173184, Note_on_c, 1, 52, 87
1, 173184, Note_on_c, 1, 48, 87
1, 173216, Note_on_c, 0, 67, 0
1, 173232, Note_on_c, 0, 79, 82
1, 173248, Note_on_c, 1, 52, 0
1, 173248, Note_on_c, 1, 48, 0
1, 173264, Note_on_c, 0, 79, 0
1, 173280, Note_on_c, 0, 67, 82
1, 173280, Note_on_c, 1, 52, 87
1, 173280, Note_on_c, 1, 48, 87
1, 173312, Note_on_c, 0, 67, 0
1, 173328, Note_on_c, 0, 79, 82
1, 173344, Note_on_c, 1, 52, 0
1, 173344, Note_on_c, 1, 48, 0
1, 173360, Note_on_c, 0, 79, 0
1, 173376, Note_on_c, 0, 67, 82
1, 173376, Note_on_c, 1, 53, 87
1, 173376, Note_on_c, 1, 47, 87
1, 173408, Note_on_c, 0, 67, 0
1, 173424, Note_on_c, 0, 79, 82
1, 173440, Note_on_c, 1, 53, 0
1, 173440, Note_on_c, 1, 47, 0
1, 173456, Note_on_c, 0, 79, 0
1, 173472, Note_on_c, 0, 67, 82
1, 173472, Note_on_c, 1, 53, 87
1, 173472, Note_on_c, 1, 47, 87
1, 173504, Note_on_c, 0, 67, 0
1, 173520, Note_on_c, 0, 79, 82
1, 173536, Note_on_c, 1, 53, 0
1, 173536, Note_on_c, 1, 47, 0
1, 173552, Note_on_c, 0, 79, 0
1, 173568, Note_on_c, 0, 67, 75
1, 173568, Note_on_c, 1, 52, 75
1, 173568, Note_on_c, 1, 48, 75
1, 173600, Note_on_c, 0, 67, 0
1, 173616, Note_on_c, 0, 79, 75
1, 173648, Note_on_c, 0, 79, 0
1, 173664, Note_on_c, 0, 67, 75
1, 173696, Note_on_c, 0, 67, 0
1, 173696, Note_on_c, 1, 52, 0
1, 173696, Note_on_c, 1, 48, 0
1, 173712, Note_on_c, 0, 79, 75
1, 173744, Note_on_c, 0, 79, 0
1, 173760, Note_on_c, 0, 70, 50
1, 173760, Note_on_c, 1, 55, 50
1, 173760, Note_on_c, 1, 52, 50
1, 173760, Note_on_c, 1, 49, 50
1, 173792, Note_on_c, 0, 70, 0
1, 173808, Note_on_c, 0, 82, 50
1, 173840, Note_on_c, 0, 82, 0
1, 173856, Note_on_c, 0, 70, 50
1, 173888, Note_on_c, 0, 70, 0
1, 173904, Note_on_c, 0, 82, 50
1, 173936, Note_on_c, 0, 82, 0
1, 173952, Note_on_c, 0, 70, 50
1, 173984, Note_on_c, 0, 70, 0
1, 174000, Note_on_c, 0, 82, 50
1, 174032, Note_on_c, 0, 82, 0
1, 174048, Note_on_c, 0, 70, 50
1, 174080, Note_on_c, 0, 70, 0
1, 174096, Note_on_c, 0, 82, 50
1, 174128, Note_on_c, 0, 82, 0
1, 174144, Note_on_c, 0, 70, 50
1, 174144, Note_on_c, 1, 55, 0
1, 174144, Note_on_c, 1, 52, 0
1, 174144, Note_on_c, 1, 49, 0
1, 174176, Note_on_c, 0, 70, 0
1, 174192, Note_on_c, 0, 82, 50
1, 174224, Note_on_c, 0, 82, 0
1, 174240, Note_on_c, 0, 70, 50
1, 174272, Note_on_c, 0, 70, 0
1, 174288, Note_on_c, 0, 82, 50
1, 174320, Note_on_c, 0, 82, 0
1, 174336, Note_on_c, 0, 69, 75
1, 174336, Note_on_c, 1, 53, 75
1, 174336, Note_on_c, 1, 50, 75
1, 174368, Note_on_c, 0, 69, 0
1, 174384, Note_on_c, 0, 81, 75
1, 174416, Note_on_c, 0, 81, 0
1, 174448, Note_on_c, 0, 69, 75
1, 174464, Note_on_c, 1, 53, 0
1, 174464, Note_on_c, 1, 50, 0
1, 174480, Note_on_c, 0, 69, 0
1, 174480, Note_on_c, 0, 81, 75
1, 174512, Note_on_c, 0, 81, 0
1, 174528, Note_on_c, 0, 71, 50
1, 174528, Note_on_c, 1, 50, 50
1, 174528, Note_on_c, 1, 53, 50
1, 174528, Note_on_c, 1, 44, 50
1, 174560, Note_on_c, 0, 71, 0
1, 174576, Note_on_c, 0, 83, 50
1, 174608, Note_on_c, 0, 83, 0
1, 174624, Note_on_c, 0, 71, 50
1, 174656, Note_on_c, 0, 71, 0
1, 174672, Note_on_c, 0, 83, 50
1, 174704, Note_on_c, 0, 83, 0
1, 174720, Note_on_c, 0, 71, 50
1, 174752, Note_on_c, 0, 71, 0
1, 174768, Note_on_c, 0, 83, 50
1, 174800, Note_on_c, 0, 83, 0
1, 174816, Note_on_c, 0, 71, 50
1, 174848, Note_on_c, 0, 71, 0
1, 174864, Note_on_c, 0, 83, 50
1, 174896, Note_on_c, 0, 83, 0
1, 174912, Note_on_c, 0, 71, 50
1, 174912, Note_on_c, 1, 50, 0
1, 174912, Note_on_c, 1, 53, 0
1, 174912, Note_on_c, 1, 44, 0
1, 174944, Note_on_c, 0, 71, 0
1, 174960, Note_on_c, 0, 83, 50
1, 174992, Note_on_c, 0, 83, 0
1, 175008, Note_on_c, 0, 71, 50
1, 175040, Note_on_c, 0, 71, 0
1, 175056, Note_on_c, 0, 83, 50
1, 175088, Note_on_c, 0, 83, 0
1, 175104, Note_on_c, 0, 72, 75
1, 175104, Note_on_c, 1, 52, 75
1, 175104, Note_on_c, 1, 48, 75
1, 175104, Note_on_c, 1, 45, 75
1, 175136, Note_on_c, 0, 72, 0
1, 175152, Note_on_c, 0, 84, 75
1, 175184, Note_on_c, 0, 84, 0
1, 175200, Note_on_c, 0, 72, 75
1, 175232, Note_on_c, 0, 72, 0
1, 175232, Note_on_c, 1, 52, 0
1, 175232, Note_on_c, 1, 48, 0
1, 175232, Note_on_c, 1, 45, 0
1, 175264, Note_on_c, 0, 84, 75
1, 175296, Note_on_c, 0, 84, 0
1, 175296, Note_on_c, 1, 57, 50
1, 175296, Note_on_c, 1, 54, 50
1, 175296, Note_on_c, 1, 60, 50
1, 175312, Note_on_c, 0, 63, 50
1, 175344, Note_on_c, 0, 63, 0
1, 175344, Note_on_c, 0, 75, 50
1, 175376, Note_on_c, 0, 75, 0
1, 175392, Note_on_c, 0, 63, 50
1, 175424, Note_on_c, 0, 63, 0
1, 175440, Note_on_c, 0, 75, 50
1, 175472, Note_on_c, 0, 75, 0
1, 175488, Note_on_c, 0, 63, 50
1, 175520, Note_on_c, 0, 63, 0
1, 175536, Note_on_c, 0, 75, 50
1, 175568, Note_on_c, 0, 75, 0
1, 175584, Note_on_c, 0, 63, 50
1, 175616, Note_on_c, 0, 63, 0
1, 175632, Note_on_c, 0, 75, 50
1, 175664, Note_on_c, 0, 75, 0
1, 175680, Note_on_c, 0, 63, 50
1, 175680, Note_on_c, 1, 57, 0
1, 175680, Note_on_c, 1, 54, 0
1, 175680, Note_on_c, 1, 60, 0
1, 175712, Note_on_c, 0, 63, 0
1, 175728, Note_on_c, 0, 75, 50
1, 175760, Note_on_c, 0, 75, 0
1, 175776, Note_on_c, 0, 63, 50
1, 175808, Note_on_c, 0, 63, 0
1, 175824, Note_on_c, 0, 75, 50
1, 175856, Note_on_c, 0, 75, 0
1, 175872, Note_on_c, 1, 60, 50
1, 175872, Note_on_c, 1, 55, 50
1, 175936, Note_on_c, 0, 76, 50
1, 175984, Note_on_c, 0, 76, 0
1, 176000, Note_on_c, 0, 75, 50
1, 176000, Note_on_c, 1, 60, 0
1, 176000, Note_on_c, 1, 55, 0
1, 176048, Note_on_c, 0, 75, 0
1, 176064, Note_on_c, 0, 76, 50
1, 176088, Note_on_c, 0, 76, 0
1, 176128, Note_on_c, 0, 72, 50
1, 176152, Note_on_c, 0, 72, 0
1, 176192, Note_on_c, 0, 67, 50
1, 176216, Note_on_c, 0, 67, 0
1, 176256, Note_on_c, 1, 64, 50
1, 176256, Note_on_c, 1, 60, 50
1, 176256, Note_on_c, 1, 55, 50
1, 176320, Note_on_c, 0, 79, 50
1, 176344, Note_on_c, 0, 79, 0
1, 176384, Note_on_c, 0, 78, 50
1, 176384, Note_on_c, 1, 64, 0
1, 176384, Note_on_c, 1, 60, 0
1, 176384, Note_on_c, 1, 55, 0
1, 176408, Note_on_c, 0, 78, 0
1, 176448, Note_on_c, 0, 79, 50
1, 176472, Note_on_c, 0, 79, 0
1, 176512, Note_on_c, 0, 76, 50
1, 176536, Note_on_c, 0, 76, 0
1, 176576, Note_on_c, 0, 72, 50
1, 176600, Note_on_c, 0, 72, 0
1, 176640, Note_on_c, 1, 64, 50
1, 176640, Note_on_c, 1, 60, 50
1, 176640, Note_on_c, 1, 55, 50
1, 176704, Note_on_c, 0, 84, 50
1, 176752, Note_on_c, 0, 84, 0
1, 176768, Note_on_c, 0, 83, 50
1, 176768, Note_on_c, 1, 64, 0
1, 176768, Note_on_c, 1, 60, 0
1, 176768, Note_on_c, 1, 55, 0
1, 176816, Note_on_c, 0, 83, 0
1, 176832, Note_on_c, 0, 84, 50
1, 176880, Note_on_c, 0, 84, 0
1, 176896, Note_on_c, 0, 79, 50
1, 176944, Note_on_c, 0, 79, 0
1, 176960, Note_on_c, 0, 76, 50
1, 177008, Note_on_c, 0, 76, 0
1, 177024, Note_on_c, 1, 64, 50
1, 177024, Note_on_c, 1, 60, 50
1, 177024, Note_on_c, 1, 55, 50
1, 177088, Note_on_c, 0, 88, 50
1, 177136, Note_on_c, 0, 88, 0
1, 177152, Note_on_c, 0, 87, 50
1, 177152, Note_on_c, 1, 64, 0
1, 177152, Note_on_c, 1, 60, 0
1, 177152, Note_on_c, 1, 55, 0
1, 177200, Note_on_c, 0, 87, 0
1, 177216, Note_on_c, 0, 88, 50
1, 177240, Note_on_c, 0, 88, 0
1, 177280, Note_on_c, 0, 84, 50
1, 177304, Note_on_c, 0, 84, 0
1, 177344, Note_on_c, 0, 79, 50
1, 177368, Note_on_c, 0, 79, 0
1, 177408, Note_on_c, 0, 87, 75
1, 177408, Note_on_c, 0, 84, 75
1, 177408, Note_on_c, 0, 81, 75
1, 177408, Note_on_c, 0, 78, 75
1, 177472, Note_on_c, 0, 72, 75
1, 177520, Note_on_c, 0, 72, 0
1, 177536, Note_on_c, 0, 87, 0
1, 177536, Note_on_c, 0, 84, 0
1, 177536, Note_on_c, 0, 81, 0
1, 177536, Note_on_c, 0, 78, 0
1, 177536, Note_on_c, 0, 71, 75
1, 177584, Note_on_c, 0, 71, 0
1, 177600, Note_on_c, 0, 72, 75
1, 177648, Note_on_c, 0, 72, 0
1, 177664, Note_on_c, 0, 69, 75
1, 177712, Note_on_c, 0, 69, 0
1, 177728, Note_on_c, 0, 66, 75
1, 177776, Note_on_c, 0, 66, 0
1, 177792, Note_on_c, 0, 87, 75
1, 177792, Note_on_c, 0, 84, 75
1, 177792, Note_on_c, 0, 81, 75
1, 177792, Note_on_c, 0, 78, 75
1, 177856, Note_on_c, 0, 69, 75
1, 177904, Note_on_c, 0, 69, 0
1, 177920, Note_on_c, 0, 87, 0
1, 177920, Note_on_c, 0, 84, 0
1, 177920, Note_on_c, 0, 81, 0
1, 177920, Note_on_c, 0, 78, 0
1, 177920, Note_on_c, 0, 68, 75
1, 177968, Note_on_c, 0, 68, 0
1, 177984, Note_on_c, 0, 69, 75
1, 178032, Note_on_c, 0, 69, 0
1, 178048, Note_on_c, 0, 66, 75
1, 178096, Note_on_c, 0, 66, 0
1, 178112, Note_on_c, 0, 60, 75
1, 178160, Note_on_c, 0, 60, 0
1, 178176, Note_on_c, 0, 87, 75
1, 178176, Note_on_c, 0, 84, 75
1, 178176, Note_on_c, 0, 81, 75
1, 178176, Note_on_c, 0, 78, 75
1, 178240, Note_on_c, 0, 66, 75
1, 178288, Note_on_c, 0, 66, 0
1, 178304, Note_on_c, 0, 87, 0
1, 178304, Note_on_c, 0, 84, 0
1, 178304, Note_on_c, 0, 81, 0
1, 178304, Note_on_c, 0, 78, 0
1, 178304, Note_on_c, 0, 63, 75
1, 178352, Note_on_c, 0, 63, 0
1, 178368, Note_on_c, 0, 66, 75
1, 178416, Note_on_c, 0, 66, 0
1, 178432, Note_on_c, 0, 60, 75
1, 178480, Note_on_c, 0, 60, 0
1, 178496, Note_on_c, 0, 57, 75
1, 178544, Note_on_c, 0, 57, 0
1, 178560, Note_on_c, 0, 87, 75
1, 178560, Note_on_c, 0, 84, 75
1, 178560, Note_on_c, 0, 81, 75
1, 178560, Note_on_c, 0, 78, 75
1, 178624, Note_on_c, 1, 60, 75
1, 178672, Note_on_c, 1, 60, 0
1, 178688, Note_on_c, 0, 87, 0
1, 178688, Note_on_c, 0, 84, 0
1, 178688, Note_on_c, 0, 81, 0
1, 178688, Note_on_c, 0, 78, 0
1, 178688, Note_on_c, 1, 59, 75
1, 178736, Note_on_c, 1, 59, 0
1, 178752, Note_on_c, 1, 60, 75
1, 178800, Note_on_c, 1, 60, 0
1, 178816, Note_on_c, 1, 57, 75
1, 178864, Note_on_c, 1, 57, 0
1, 178880, Note_on_c, 1, 54, 75
1, 178928, Note_on_c, 1, 54, 0
1, 178944, Note_on_c, 0, 88, 75
1, 178944, Note_on_c, 1, 60, 75
1, 178944, Note_on_c, 1, 55, 75
1, 178976, Note_on_c, 0, 88, 0
1, 178992, Note_on_c, 0, 86, 75
1, 179024, Note_on_c, 0, 86, 0
1, 179040, Note_on_c, 0, 84, 75
1, 179072, Note_on_c, 0, 84, 0
1, 179072, Note_on_c, 1, 60, 0
1, 179072, Note_on_c, 1, 55, 0
1, 179088, Note_on_c, 0, 83, 75
1, 179120, Note_on_c, 0, 83, 0
1, 179136, Note_on_c, 0, 84, 75
1, 179136, Note_on_c, 1, 60, 75
1, 179136, Note_on_c, 1, 55, 75
1, 179168, Note_on_c, 0, 84, 0
1, 179184, Note_on_c, 0, 83, 75
1, 179216, Note_on_c, 0, 83, 0
1, 179232, Note_on_c, 0, 81, 75
1, 179264, Note_on_c, 0, 81, 0
1, 179264, Note_on_c, 1, 60, 0
1, 179264, Note_on_c, 1, 55, 0
1, 179280, Note_on_c, 0, 79, 75
1, 179312, Note_on_c, 0, 79, 0
1, 179328, Note_on_c, 0, 81, 75
1, 179328, Note_on_c, 1, 60, 75
1, 179328, Note_on_c, 1, 55, 75
1, 179360, Note_on_c, 0, 81, 0
1, 179376, Note_on_c, 0, 79, 75
1, 179408, Note_on_c, 0, 79, 0
1, 179424, Note_on_c, 0, 77, 75
1, 179456, Note_on_c, 0, 77, 0
1, 179456, Note_on_c, 1, 60, 0
1, 179456, Note_on_c, 1, 55, 0
1, 179472, Note_on_c, 0, 76, 75
1, 179504, Note_on_c, 0, 76, 0
1, 179520, Note_on_c, 0, 77, 75
1, 179520, Note_on_c, 1, 60, 75
1, 179520, Note_on_c, 1, 55, 75
1, 179552, Note_on_c, 0, 77, 0
1, 179568, Note_on_c, 0, 76, 75
1, 179600, Note_on_c, 0, 76, 0
1, 179616, Note_on_c, 0, 74, 75
1, 179648, Note_on_c, 0, 74, 0
1, 179648, Note_on_c, 1, 60, 0
1, 179648, Note_on_c, 1, 55, 0
1, 179664, Note_on_c, 0, 72, 75
1, 179696, Note_on_c, 0, 72, 0
1, 179712, Note_on_c, 0, 74, 75
1, 179712, Note_on_c, 1, 55, 75
1, 179728, Note_on_c, 1, 60, 75
1, 179744, Note_on_c, 0, 74, 0
1, 179760, Note_on_c, 0, 76, 75
1, 179792, Note_on_c, 0, 76, 0
1, 179808, Note_on_c, 0, 74, 75
1, 179840, Note_on_c, 0, 74, 0
1, 179840, Note_on_c, 0, 76, 75
1, 179840, Note_on_c, 1, 55, 0
1, 179856, Note_on_c, 1, 60, 0
1, 179872, Note_on_c, 0, 76, 0
1, 179904, Note_on_c, 0, 74, 75
1, 179904, Note_on_c, 1, 55, 75
1, 179904, Note_on_c, 1, 60, 75
1, 179936, Note_on_c, 0, 74, 0
1, 179952, Note_on_c, 0, 76, 75
1, 179984, Note_on_c, 0, 76, 0
1, 180000, Note_on_c, 0, 74, 75
1, 180032, Note_on_c, 0, 74, 0
1, 180032, Note_on_c, 1, 55, 0
1, 180032, Note_on_c, 1, 60, 0
1, 180048, Note_on_c, 0, 76, 75
1, 180080, Note_on_c, 0, 76, 0
1, 180096, Note_on_c, 0, 74, 75
1, 180096, Note_on_c, 1, 55, 75
1, 180096, Note_on_c, 1, 59, 75
1, 180128, Note_on_c, 0, 74, 0
1, 180144, Note_on_c, 0, 76, 75
1, 180176, Note_on_c, 0, 76, 0
1, 180192, Note_on_c, 0, 74, 75
1, 180224, Note_on_c, 0, 74, 0
1, 180224, Note_on_c, 0, 76, 75
1, 180224, Note_on_c, 1, 55, 0
1, 180224, Note_on_c, 1, 59, 0
1, 180256, Note_on_c, 0, 76, 0
1, 180288, Note_on_c, 0, 74, 75
1, 180288, Note_on_c, 1, 55, 75
1, 180288, Note_on_c, 1, 59, 75
1, 180320, Note_on_c, 0, 74, 0
1, 180336, Note_on_c, 0, 76, 75
1, 180368, Note_on_c, 0, 76, 0
1, 180384, Note_on_c, 0, 72, 75
1, 180416, Note_on_c, 0, 72, 0
1, 180416, Note_on_c, 1, 55, 0
1, 180416, Note_on_c, 1, 59, 0
1, 180432, Note_on_c, 0, 74, 75
1, 180464, Note_on_c, 0, 74, 0
1, 180480, Note_on_c, 0, 72, 75
1, 180480, Note_on_c, 1, 60, 75
1, 180608, Note_on_c, 0, 72, 0
1, 180608, Note_on_c, 1, 60, 0
1, 180672, Note_on_c, 1, 55, 75
1, 180672, Note_on_c, 1, 45, 75
1, 180800, Note_on_c, 1, 55, 0
1, 180800, Note_on_c, 1, 45, 0
1, 180864, Note_on_c, 0, 60, 75
1, 180864, Note_on_c, 1, 52, 75
1, 180864, Note_on_c, 1, 40, 75
1, 180928, Note_on_c, 0, 60, 0
1, 180960, Note_on_c, 0, 64, 75
1, 180992, Note_on_c, 1, 52, 0
1, 180992, Note_on_c, 1, 40, 0
1, 181024, Note_on_c, 0, 64, 0
1, 181056, Note_on_c, 0, 67, 75
1, 181056, Note_on_c, 1, 48, 75
1, 181056, Note_on_c, 1, 36, 75
1, 181120, Note_on_c, 0, 67, 0
1, 181152, Note_on_c, 0, 72, 75
1, 181184, Note_on_c, 1, 48, 0
1, 181184, Note_on_c, 1, 36, 0
1, 181216, Note_on_c, 0, 72, 0
1, 181248, Note_on_c, 0, 72, 75
1, 181248, Note_on_c, 0, 64, 75
1, 181248, Note_on_c, 1, 43, 75
1, 181248, Note_on_c, 1, 55, 75
1, 181376, Note_on_c, 1, 55, 0
1, 181440, Note_on_c, 1, 55, 75
1, 181504, Note_on_c, 0, 72, 0
1, 181504, Note_on_c, 0, 64, 0
1, 181504, Note_on_c, 1, 43, 0
1, 181536, Note_on_c, 0, 76, 75
1, 181568, Note_on_c, 1, 55, 0
1, 181600, Note_on_c, 0, 76, 0
1, 181632, Note_on_c, 0, 65, 75
1, 181632, Note_on_c, 0, 74, 75
1, 181632, Note_on_c, 1, 55, 75
1, 181760, Note_on_c, 0, 74, 0
1, 181760, Note_on_c, 1, 55, 0
1, 181824, Note_on_c, 0, 72, 75
1, 181824, Note_on_c, 1, 55, 75
1, 181888, Note_on_c, 0, 65, 0
1, 181888, Note_on_c, 0, 72, 0
1, 181920, Note_on_c, 0, 74, 75
1, 181952, Note_on_c, 1, 55, 0
1, 181984, Note_on_c, 0, 74, 0
1, 182016, Note_on_c, 0, 72, 75
1, 182016, Note_on_c, 0, 64, 75
1, 182016, Note_on_c, 1, 60, 75
1, 182144, Note_on_c, 0, 72, 0
1, 182144, Note_on_c, 0, 64, 0
1, 182144, Note_on_c, 1, 60, 0
1, 182208, Note_on_c, 1, 55, 75
1, 182208, Note_on_c, 1, 43, 75
1, 182336, Note_on_c, 1, 55, 0
1, 182336, Note_on_c, 1, 43, 0
1, 182400, Note_on_c, 0, 60, 75
1, 182400, Note_on_c, 0, 64, 75
1, 182400, Note_on_c, 1, 52, 75
1, 182400, Note_on_c, 1, 40, 75
1, 182464, Note_on_c, 0, 60, 0
1, 182464, Note_on_c, 0, 64, 0
1, 182496, Note_on_c, 0, 67, 75
1, 182496, Note_on_c, 0, 64, 75
1, 182528, Note_on_c, 1, 52, 0
1, 182528, Note_on_c, 1, 40, 0
1, 182560, Note_on_c, 0, 67, 0
1, 182560, Note_on_c, 0, 64, 0
1, 182592, Note_on_c, 0, 72, 75
1, 182592, Note_on_c, 0, 67, 75
1, 182592, Note_on_c, 1, 48, 75
1, 182592, Note_on_c, 1, 36, 75
1, 182656, Note_on_c, 0, 72, 0
1, 182656, Note_on_c, 0, 67, 0
1, 182688, Note_on_c, 0, 76, 75
1, 182688, Note_on_c, 0, 72, 75
1, 182720, Note_on_c, 1, 48, 0
1, 182720, Note_on_c, 1, 36, 0
1, 182752, Note_on_c, 0, 76, 0
1, 182752, Note_on_c, 0, 72, 0
1, 182784, Note_on_c, 0, 76, 75
1, 182784, Note_on_c, 0, 72, 75
1, 182784, Note_on_c, 1, 43, 75
1, 182784, Note_on_c, 1, 55, 75
1, 182912, Note_on_c, 1, 55, 0
1, 182976, Note_on_c, 1, 55, 75
1, 183040, Note_on_c, 0, 76, 0
1, 183040, Note_on_c, 0, 72, 0
1, 183040, Note_on_c, 1, 43, 0
1, 183072, Note_on_c, 0, 79, 75
1, 183072, Note_on_c, 0, 76, 75
1, 183104, Note_on_c, 1, 55, 0
1, 183136, Note_on_c, 0, 79, 0
1, 183136, Note_on_c, 0, 76, 0
1, 183168, Note_on_c, 0, 77, 75
1, 183168, Note_on_c, 0, 74, 75
1, 183168, Note_on_c, 1, 55, 75
1, 183296, Note_on_c, 0, 77, 0
1, 183296, Note_on_c, 0, 74, 0
1, 183296, Note_on_c, 1, 55, 0
1, 183360, Note_on_c, 0, 76, 75
1, 183360, Note_on_c, 0, 72, 75
1, 183360, Note_on_c, 1, 55, 75
1, 183424, Note_on_c, 0, 76, 0
1, 183424, Note_on_c, 0, 72, 0
1, 183456, Note_on_c, 0, 77, 75
1, 183456, Note_on_c, 0, 74, 75
1, 183488, Note_on_c, 1, 55, 0
1, 183520, Note_on_c, 0, 77, 0
1, 183520, Note_on_c, 0, 74, 0
1, 183552, Note_on_c, 0, 76, 75
1, 183552, Note_on_c, 0, 72, 75
1, 183552, Note_on_c, 1, 60, 75
1, 183680, Note_on_c, 0, 76, 0
1, 183680, Note_on_c, 0, 72, 0
1, 183680, Note_on_c, 1, 60, 0
1, 183936, Note_on_c, 0, 64, 75
1, 183936, Note_on_c, 0, 67, 75
1, 184000, Note_on_c, 0, 64, 0
1, 184000, Note_on_c, 0, 67, 0
1, 184032, Note_on_c, 0, 67, 75
1, 184032, Note_on_c, 0, 72, 75
1, 184096, Note_on_c, 0, 67, 0
1, 184096, Note_on_c, 0, 72, 0
1, 184128, Note_on_c, 0, 76, 75
1, 184128, Note_on_c, 0, 72, 75
1, 184192, Note_on_c, 0, 76, 0
1, 184192, Note_on_c, 0, 72, 0
1, 184224, Note_on_c, 0, 79, 75
1, 184224, Note_on_c, 0, 76, 75
1, 184288, Note_on_c, 0, 79, 0
1, 184288, Note_on_c, 0, 76, 0
1, 184320, Note_on_c, 0, 79, 75
1, 184320, Note_on_c, 0, 76, 75
1, 184320, Note_on_c, 1, 43, 75
1, 184320, Note_on_c, 1, 55, 75
1, 184448, Note_on_c, 1, 55, 0
1, 184512, Note_on_c, 1, 55, 75
1, 184576, Note_on_c, 0, 79, 0
1, 184576, Note_on_c, 0, 76, 0
1, 184576, Note_on_c, 1, 43, 0
1, 184640, Note_on_c, 1, 55, 0
1, 184704, Note_on_c, 0, 83, 75
1, 184704, Note_on_c, 0, 74, 75
1, 184704, Note_on_c, 1, 55, 75
1, 184832, Note_on_c, 1, 55, 0
1, 184896, Note_on_c, 0, 83, 0
1, 184896, Note_on_c, 1, 55, 75
1, 184960, Note_on_c, 0, 74, 0
1, 184992, Note_on_c, 0, 81, 75
1, 185024, Note_on_c, 0, 81, 0
1, 185024, Note_on_c, 1, 55, 0
1, 185040, Note_on_c, 0, 83, 75
1, 185072, Note_on_c, 0, 83, 0
1, 185088, Note_on_c, 0, 84, 75
1, 185088, Note_on_c, 0, 76, 75
1, 185088, Note_on_c, 1, 48, 75
1, 185216, Note_on_c, 0, 84, 0
1, 185216, Note_on_c, 0, 76, 0
1, 185280, Note_on_c, 0, 79, 75
1, 185328, Note_on_c, 0, 79, 0
1, 185344, Note_on_c, 0, 76, 75
1, 185344, Note_on_c, 1, 48, 0
1, 185392, Note_on_c, 0, 76, 0
1, 185408, Note_on_c, 0, 72, 75
1, 185456, Note_on_c, 0, 72, 0
1, 185472, Note_on_c, 0, 76, 75
1, 185520, Note_on_c, 0, 76, 0
1, 185536, Note_on_c, 0, 72, 75
1, 185584, Note_on_c, 0, 72, 0
1, 185600, Note_on_c, 0, 67, 75
1, 185648, Note_on_c, 0, 67, 0
1, 185664, Note_on_c, 0, 83, 75
1, 185664, Note_on_c, 1, 65, 75
1, 185664, Note_on_c, 1, 62, 75
1, 185664, Note_on_c, 1, 55, 75
1, 185712, Note_on_c, 0, 83, 0
1, 185728, Note_on_c, 0, 79, 75
1, 185776, Note_on_c, 0, 79, 0
1, 185792, Note_on_c, 0, 74, 75
1, 185792, Note_on_c, 1, 65, 0
1, 185792, Note_on_c, 1, 62, 0
1, 185792, Note_on_c, 1, 55, 0
1, 185840, Note_on_c, 0, 74, 0
1, 185856, Note_on_c, 0, 84, 75
1, 185856, Note_on_c, 1, 64, 75
1, 185856, Note_on_c, 1, 60, 75
1, 185904, Note_on_c, 0, 84, 0
1, 185920, Note_on_c, 0, 79, 75
1, 185968, Note_on_c, 0, 79, 0
1, 185984, Note_on_c, 0, 76, 75
1, 186032, Note_on_c, 0, 76, 0
1, 186048, Note_on_c, 0, 79, 75
1, 186096, Note_on_c, 0, 79, 0
1, 186112, Note_on_c, 0, 76, 75
1, 186112, Note_on_c, 1, 64, 0
1, 186112, Note_on_c, 1, 60, 0
1, 186160, Note_on_c, 0, 76, 0
1, 186176, Note_on_c, 0, 72, 75
1, 186224, Note_on_c, 0, 72, 0
1, 186240, Note_on_c, 0, 76, 75
1, 186288, Note_on_c, 0, 76, 0
1, 186304, Note_on_c, 0, 72, 75
1, 186352, Note_on_c, 0, 72, 0
1, 186368, Note_on_c, 0, 67, 75
1, 186416, Note_on_c, 0, 67, 0
1, 186432, Note_on_c, 0, 83, 75
1, 186432, Note_on_c, 1, 65, 75
1, 186432, Note_on_c, 1, 62, 75
1, 186432, Note_on_c, 1, 55, 75
1, 186480, Note_on_c, 0, 83, 0
1, 186496, Note_on_c, 0, 79, 75
1, 186544, Note_on_c, 0, 79, 0
1, 186560, Note_on_c, 0, 74, 75
1, 186560, Note_on_c, 1, 65, 0
1, 186560, Note_on_c, 1, 62, 0
1, 186560, Note_on_c, 1, 55, 0
1, 186608, Note_on_c, 0, 74, 0
1, 186624, Note_on_c, 0, 76, 75
1, 186624, Note_on_c, 0, 79, 75
1, 186624, Note_on_c, 0, 84, 75
1, 186624, Note_on_c, 1, 60, 75
1, 186624, Note_on_c, 1, 64, 75
1, 186752, Note_on_c, 0, 76, 0
1, 186752, Note_on_c, 0, 79, 0
1, 186752, Note_on_c, 0, 84, 0
1, 186752, Note_on_c, 1, 60, 0
1, 186752, Note_on_c, 1, 64, 0
1, 186816, Note_on_c, 1, 48, 75
1, 186864, Note_on_c, 1, 48, 0
1, 186880, Note_on_c, 1, 52, 75
1, 186928, Note_on_c, 1, 52, 0
1, 186944, Note_on_c, 1, 55, 75
1, 186992, Note_on_c, 1, 55, 0
1, 187008, Note_on_c, 1, 52, 75
1, 187056, Note_on_c, 1, 52, 0
1, 187072, Note_on_c, 1, 55, 75
1, 187120, Note_on_c, 1, 55, 0
1, 187136, Note_on_c, 1, 60, 75
1, 187184, Note_on_c, 1, 60, 0
1, 187200, Note_on_c, 0, 74, 75
1, 187200, Note_on_c, 0, 79, 75
1, 187200, Note_on_c, 0, 83, 75
1, 187200, Note_on_c, 1, 55, 75
1, 187248, Note_on_c, 1, 55, 0
1, 187264, Note_on_c, 1, 59, 75
1, 187312, Note_on_c, 1, 59, 0
1, 187328, Note_on_c, 0, 74, 0
1, 187328, Note_on_c, 0, 79, 0
1, 187328, Note_on_c, 0, 83, 0
1, 187328, Note_on_c, 1, 62, 75
1, 187376, Note_on_c, 1, 62, 0
1, 187392, Note_on_c, 0, 76, 75
1, 187392, Note_on_c, 0, 79, 75
1, 187392, Note_on_c, 0, 84, 75
1, 187392, Note_on_c, 1, 60, 75
1, 187440, Note_on_c, 1, 60, 0
1, 187456, Note_on_c, 1, 64, 75
1, 187504, Note_on_c, 1, 64, 0
1, 187520, Note_on_c, 0, 76, 0
1, 187520, Note_on_c, 0, 79, 0
1, 187520, Note_on_c, 0, 84, 0
1, 187520, Note_on_c, 1, 67, 75
1, 187568, Note_on_c, 1, 67, 0
1, 187584, Note_on_c, 1, 48, 75
1, 187632, Note_on_c, 1, 48, 0
1, 187648, Note_on_c, 1, 52, 75
1, 187696, Note_on_c, 1, 52, 0
1, 187712, Note_on_c, 1, 55, 75
1, 187760, Note_on_c, 1, 55, 0
1, 187776, Note_on_c, 1, 52, 75
1, 187824, Note_on_c, 1, 52, 0
1, 187840, Note_on_c, 1, 55, 75
1, 187888, Note_on_c, 1, 55, 0
1, 187904, Note_on_c, 1, 60, 75
1, 187952, Note_on_c, 1, 60, 0
1, 187968, Note_on_c, 0, 74, 75
1, 187968, Note_on_c, 0, 79, 75
1, 187968, Note_on_c, 0, 83, 75
1, 187968, Note_on_c, 1, 55, 75
1, 188016, Note_on_c, 1, 55, 0
1, 188032, Note_on_c, 1, 59, 75
1, 188080, Note_on_c, 1, 59, 0
1, 188096, Note_on_c, 0, 74, 0
1, 188096, Note_on_c, 0, 79, 0
1, 188096, Note_on_c, 0, 83, 0
1, 188096, Note_on_c, 1, 62, 75
1, 188144, Note_on_c, 1, 62, 0
1, 188160, Note_on_c, 0, 84, 75
1, 188160, Note_on_c, 0, 79, 75
1, 188160, Note_on_c, 0, 76, 75
1, 188160, Note_on_c, 1, 64, 75
1, 188160, Note_on_c, 1, 60, 75
1, 188416, Note_on_c, 0, 84, 0
1, 188416, Note_on_c, 0, 79, 0
1, 188416, Note_on_c, 0, 76, 0
1, 188416, Note_on_c, 1, 64, 0
1, 188416, Note_on_c, 1, 60, 0
1, 188736, Note_on_c, 0, 67, 50
1, 188864, Note_on_c, 0, 67, 0
1, 188928, Note_on_c, 0, 65, 50
1, 188928, Note_on_c, 1, 36, 50
1, 188992, Note_on_c, 0, 65, 0
1, 188992, Note_on_c, 0, 64, 50
1, 188992, Note_on_c, 1, 36, 0
1, 189024, Note_on_c, 1, 43, 50
1, 189088, Note_on_c, 0, 64, 0
1, 189088, Note_on_c, 1, 43, 0
1, 189120, Note_on_c, 0, 62, 50
1, 189120, Note_on_c, 1, 40, 50
1, 189184, Note_on_c, 0, 62, 0
1, 189184, Note_on_c, 1, 40, 0
1, 189216, Note_on_c, 0, 60, 50
1, 189216, Note_on_c, 1, 43, 50
1, 189280, Note_on_c, 0, 60, 0
1, 189280, Note_on_c, 1, 43, 0
1, 189312, Note_on_c, 0, 60, 50
1, 189312, Note_on_c, 1, 48, 50
1, 189376, Note_on_c, 1, 48, 0
1, 189408, Note_on_c, 1, 43, 50
1, 189440, Note_on_c, 0, 60, 0
1, 189472, Note_on_c, 1, 43, 0
1, 189488, Note_on_c, 0, 60, 50
1, 189504, Note_on_c, 1, 40, 50
1, 189568, Note_on_c, 1, 40, 0
1, 189600, Note_on_c, 1, 43, 50
1, 189616, Note_on_c, 0, 60, 0
1, 189664, Note_on_c, 1, 43, 0
1, 189696, Note_on_c, 0, 60, 50
1, 189696, Note_on_c, 1, 36, 50
1, 189760, Note_on_c, 1, 36, 0
1, 189808, Note_on_c, 1, 43, 50
1, 189872, Note_on_c, 1, 43, 0
1, 189872, Note_on_c, 1, 40, 50
1, 189936, Note_on_c, 1, 40, 0
1, 189984, Note_on_c, 1, 43, 50
1, 190048, Note_on_c, 1, 43, 0
1, 190080, Note_on_c, 0, 60, 0
1, 190080, Note_on_c, 1, 46, 50
1, 190144, Note_on_c, 1, 46, 0
1, 190176, Note_on_c, 1, 43, 50
1, 190240, Note_on_c, 1, 43, 0
1, 190272, Note_on_c, 0, 72, 50
1, 190272, Note_on_c, 1, 40, 50
1, 190336, Note_on_c, 1, 40, 0
1, 190368, Note_on_c, 1, 43, 50
1, 190400, Note_on_c, 0, 72, 0
1, 190432, Note_on_c, 1, 43, 0
1, 190464, Note_on_c, 0, 70, 50
1, 190464, Note_on_c, 1, 36, 50
1, 190528, Note_on_c, 0, 70, 0
1, 190528, Note_on_c, 0, 69, 50
1, 190528, Note_on_c, 1, 36, 0
1, 190560, Note_on_c, 1, 45, 50
1, 190624, Note_on_c, 0, 69, 0
1, 190624, Note_on_c, 1, 45, 0
1, 190656, Note_on_c, 0, 67, 50
1, 190656, Note_on_c, 1, 41, 50
1, 190720, Note_on_c, 0, 67, 0
1, 190720, Note_on_c, 1, 41, 0
1, 190752, Note_on_c, 0, 65, 50
1, 190752, Note_on_c, 1, 45, 50
1, 190816, Note_on_c, 0, 65, 0
1, 190816, Note_on_c, 1, 45, 0
1, 190848, Note_on_c, 0, 65, 50
1, 190848, Note_on_c, 1, 48, 50
1, 190912, Note_on_c, 1, 48, 0
1, 190944, Note_on_c, 1, 45, 50
1, 190976, Note_on_c, 0, 65, 0
1, 191008, Note_on_c, 1, 45, 0
1, 191040, Note_on_c, 0, 65, 50
1, 191040, Note_on_c, 1, 41, 50
1, 191104, Note_on_c, 1, 41, 0
1, 191136, Note_on_c, 1, 45, 50
1, 191168, Note_on_c, 0, 65, 0
1, 191200, Note_on_c, 1, 45, 0
1, 191232, Note_on_c, 0, 65, 50
1, 191232, Note_on_c, 1, 36, 50
1, 191296, Note_on_c, 1, 36, 0
1, 191328, Note_on_c, 1, 45, 50
1, 191392, Note_on_c, 1, 45, 0
1, 191424, Note_on_c, 1, 41, 50
1, 191488, Note_on_c, 1, 41, 0
1, 191520, Note_on_c, 1, 45, 50
1, 191584, Note_on_c, 1, 45, 0
1, 191616, Note_on_c, 0, 65, 0
1, 191616, Note_on_c, 1, 48, 50
1, 191680, Note_on_c, 1, 48, 0
1, 191712, Note_on_c, 1, 45, 50
1, 191776, Note_on_c, 1, 45, 0
1, 191808, Note_on_c, 0, 69, 50
1, 191808, Note_on_c, 1, 41, 50
1, 191872, Note_on_c, 1, 41, 0
1, 191904, Note_on_c, 1, 45, 50
1, 191936, Note_on_c, 0, 69, 0
1, 191968, Note_on_c, 1, 45, 0
1, 192000, Note_on_c, 0, 67, 50
1, 192000, Note_on_c, 1, 36, 50
1, 192064, Note_on_c, 0, 67, 0
1, 192064, Note_on_c, 0, 65, 50
1, 192064, Note_on_c, 1, 36, 0
1, 192096, Note_on_c, 1, 43, 50
1, 192160, Note_on_c, 0, 65, 0
1, 192160, Note_on_c, 1, 43, 0
1, 192192, Note_on_c, 0, 64, 50
1, 192192, Note_on_c, 1, 41, 50
1, 192256, Note_on_c, 0, 64, 0
1, 192256, Note_on_c, 1, 41, 0
1, 192288, Note_on_c, 0, 62, 50
1, 192288, Note_on_c, 1, 43, 50
1, 192352, Note_on_c, 0, 62, 0
1, 192352, Note_on_c, 1, 43, 0
1, 192384, Note_on_c, 0, 62, 50
1, 192384, Note_on_c, 1, 47, 50
1, 192448, Note_on_c, 1, 47, 0
1, 192480, Note_on_c, 1, 43, 50
1, 192512, Note_on_c, 0, 62, 0
1, 192544, Note_on_c, 1, 43, 0
1, 192576, Note_on_c, 0, 62, 50
1, 192576, Note_on_c, 1, 41, 50
1, 192640, Note_on_c, 1, 41, 0
1, 192672, Note_on_c, 1, 43, 50
1, 192704, Note_on_c, 0, 62, 0
1, 192736, Note_on_c, 1, 43, 0
1, 192768, Note_on_c, 0, 67, 37
1, 192768, Note_on_c, 1, 36, 37
1, 192832, Note_on_c, 1, 36, 0
1, 192864, Note_on_c, 1, 47, 37
1, 192928, Note_on_c, 1, 47, 0
1, 192960, Note_on_c, 0, 67, 0
1, 192960, Note_on_c, 1, 43, 37
1, 193024, Note_on_c, 1, 43, 0
1, 193056, Note_on_c, 0, 69, 37
1, 193056, Note_on_c, 1, 47, 37
1, 193120, Note_on_c, 0, 69, 0
1, 193120, Note_on_c, 1, 47, 0
1, 193152, Note_on_c, 0, 67, 37
1, 193152, Note_on_c, 1, 50, 37
1, 193216, Note_on_c, 0, 67, 0
1, 193216, Note_on_c, 1, 50, 0
1, 193248, Note_on_c, 0, 65, 37
1, 193248, Note_on_c, 1, 47, 37
1, 193312, Note_on_c, 0, 65, 0
1, 193312, Note_on_c, 1, 47, 0
1, 193344, Note_on_c, 0, 64, 37
1, 193344, Note_on_c, 1, 43, 37
1, 193408, Note_on_c, 0, 64, 0
1, 193408, Note_on_c, 1, 43, 0
1, 193440, Note_on_c, 0, 62, 37
1, 193440, Note_on_c, 1, 47, 37
1, 193504, Note_on_c, 0, 62, 0
1, 193504, Note_on_c, 1, 47, 0
1, 193536, Note_on_c, 0, 62, 37
1, 193536, Note_on_c, 1, 36, 37
1, 193600, Note_on_c, 0, 62, 0
1, 193600, Note_on_c, 0, 60, 37
1, 193600, Note_on_c, 1, 36, 0
1, 193632, Note_on_c, 1, 43, 37
1, 193696, Note_on_c, 0, 60, 0
1, 193696, Note_on_c, 1, 43, 0
1, 193728, Note_on_c, 0, 60, 37
1, 193728, Note_on_c, 1, 55, 37
1, 193728, Note_on_c, 1, 52, 37
1, 193728, Note_on_c, 1, 40, 37
1, 193792, Note_on_c, 0, 60, 0
1, 193792, Note_on_c, 1, 40, 0
1, 193824, Note_on_c, 1, 43, 37
1, 193856, Note_on_c, 1, 55, 0
1, 193856, Note_on_c, 1, 52, 0
1, 193888, Note_on_c, 1, 43, 0
1, 193920, Note_on_c, 0, 60, 37
1, 193920, Note_on_c, 1, 48, 37
1, 193920, Note_on_c, 1, 55, 37
1, 193920, Note_on_c, 1, 52, 37
1, 193984, Note_on_c, 0, 60, 0
1, 193984, Note_on_c, 1, 48, 0
1, 194016, Note_on_c, 1, 43, 37
1, 194048, Note_on_c, 1, 55, 0
1, 194048, Note_on_c, 1, 52, 0
1, 194080, Note_on_c, 1, 43, 0
1, 194112, Note_on_c, 0, 60, 37
1, 194112, Note_on_c, 1, 40, 37
1, 194112, Note_on_c, 1, 55, 37
1, 194112, Note_on_c, 1, 52, 37
1, 194176, Note_on_c, 0, 60, 0
1, 194176, Note_on_c, 1, 40, 0
1, 194208, Note_on_c, 1, 43, 37
1, 194240, Note_on_c, 1, 55, 0
1, 194240, Note_on_c, 1, 52, 0
1, 194272, Note_on_c, 1, 43, 0
1, 194304, Note_on_c, 0, 60, 37
1, 194304, Note_on_c, 1, 55, 37
1, 194304, Note_on_c, 1, 52, 37
1, 194304, Note_on_c, 1, 48, 37
1, 194304, Note_on_c, 1, 36, 37
1, 194560, Note_on_c, 0, 60, 0
1, 194560, Note_on_c, 1, 55, 0
1, 194560, Note_on_c, 1, 52, 0
1, 194560, Note_on_c, 1, 48, 0
1, 194560, Note_on_c, 1, 36, 0
1, 194570, End_track
0, 0, End_of_file