0, 0, Header, 0, 1, 120
1, 0, Start_track
1, 0, Tempo, 600000
1, 116, Note_on_c, 2, 51, 60
1, 116, Note_on_c, 2, 70, 68
1, 116, Note_on_c, 2, 67, 60
1, 302, Note_on_c, 2, 67, 0
1, 324, Note_on_c, 2, 70, 0
1, 361, Note_on_c, 2, 68, 57
1, 361, Note_on_c, 2, 65, 45
1, 419, Note_on_c, 2, 65, 0
1, 427, Note_on_c, 2, 68, 0
1, 486, Note_on_c, 2, 67, 62
1, 486, Note_on_c, 2, 63, 45
1, 552, Note_on_c, 2, 67, 0
1, 565, Note_on_c, 2, 63, 0
1, 610, Note_on_c, 2, 72, 55
1, 610, Note_on_c, 2, 68, 45
1, 693, Note_on_c, 2, 72, 0
1, 698, Note_on_c, 2, 68, 0
1, 732, Note_on_c, 2, 70, 56
1, 732, Note_on_c, 2, 67, 57
1, 823, Note_on_c, 2, 67, 0
1, 824, Note_on_c, 2, 51, 0
1, 827, Note_on_c, 2, 70, 0
1, 857, Note_on_c, 2, 51, 56
1, 857, Note_on_c, 2, 67, 54
1, 857, Note_on_c, 2, 70, 54
1, 1007, Note_on_c, 2, 67, 0
1, 1010, Note_on_c, 2, 51, 0
1, 1019, Note_on_c, 2, 70, 0
1, 1090, Note_on_c, 2, 53, 47
1, 1090, Note_on_c, 2, 65, 46
1, 1090, Note_on_c, 2, 68, 54
1, 1215, Note_on_c, 2, 68, 0
1, 1215, Note_on_c, 2, 65, 0
1, 1215, Note_on_c, 2, 53, 0
1, 1320, Note_on_c, 2, 67, 56
1, 1323, Note_on_c, 2, 63, 40
1, 1323, Note_on_c, 2, 55, 40
1, 1406, Note_on_c, 2, 55, 0
1, 1411, Note_on_c, 2, 63, 0
1, 1415, Note_on_c, 2, 67, 0
1, 1565, Note_on_c, 2, 64, 47
1, 1565, Note_on_c, 2, 61, 35
1, 1565, Note_on_c, 2, 58, 39
1, 1677, Note_on_c, 2, 61, 0
1, 1678, Note_on_c, 2, 58, 0
1, 1682, Note_on_c, 2, 64, 0
1, 1840, Note_on_c, 2, 56, 25
1, 1840, Note_on_c, 2, 60, 27
1, 1840, Note_on_c, 2, 65, 37
1, 1961, Note_on_c, 2, 72, 53
1, 1982, Note_on_c, 2, 65, 0
1, 2040, Note_on_c, 2, 72, 0
1, 2082, Note_on_c, 2, 70, 44
1, 2090, Note_on_c, 2, 60, 0
1, 2099, Note_on_c, 2, 56, 0
1, 2140, Note_on_c, 2, 68, 38
1, 2148, Note_on_c, 2, 70, 0
1, 2190, Note_on_c, 2, 68, 0
1, 2198, Note_on_c, 2, 67, 39
1, 2257, Note_on_c, 2, 65, 45
1, 2265, Note_on_c, 2, 67, 0
1, 2278, Note_on_c, 2, 65, 0
1, 2321, Note_on_c, 2, 45, 60
1, 2321, Note_on_c, 2, 55, 58
1, 2321, Note_on_c, 2, 63, 59
1, 2378, Note_on_c, 2, 46, 40
1, 2383, Note_on_c, 2, 45, 0
1, 2440, Note_on_c, 2, 46, 0
1, 2440, Note_on_c, 2, 48, 40
1, 2503, Note_on_c, 2, 48, 0
1, 2503, Note_on_c, 2, 46, 36
1, 2511, Note_on_c, 2, 63, 0
1, 2521, Note_on_c, 2, 55, 0
1, 2532, Note_on_c, 2, 46, 0
1, 2566, Note_on_c, 2, 62, 53
1, 2566, Note_on_c, 2, 53, 38
1, 2566, Note_on_c, 2, 46, 39
1, 2582, Note_on_c, 2, 53, 0
1, 2594, Note_on_c, 2, 62, 0
1, 2636, Note_on_c, 2, 58, 63
1, 2670, Note_on_c, 2, 62, 55
1, 2674, Note_on_c, 2, 58, 0
1, 2699, Note_on_c, 2, 60, 46
1, 2707, Note_on_c, 2, 62, 0
1, 2724, Note_on_c, 2, 63, 45
1, 2728, Note_on_c, 2, 60, 0
1, 2749, Note_on_c, 2, 62, 53
1, 2757, Note_on_c, 2, 63, 0
1, 2778, Note_on_c, 2, 65, 50
1, 2790, Note_on_c, 2, 62, 0
1, 2807, Note_on_c, 2, 63, 63
1, 2816, Note_on_c, 2, 65, 0
1, 2836, Note_on_c, 2, 67, 50
1, 2853, Note_on_c, 2, 63, 0
1, 2861, Note_on_c, 2, 65, 53
1, 2866, Note_on_c, 2, 67, 0
1, 2874, Note_on_c, 2, 65, 0
1, 2899, Note_on_c, 2, 68, 34
1, 2928, Note_on_c, 2, 67, 52
1, 2932, Note_on_c, 2, 68, 0
1, 2957, Note_on_c, 2, 70, 53
1, 2970, Note_on_c, 2, 67, 0
1, 2986, Note_on_c, 2, 68, 72
1, 2999, Note_on_c, 2, 70, 0
1, 3012, Note_on_c, 2, 68, 0
1, 3049, Note_on_c, 2, 39, 39
1, 3049, Note_on_c, 2, 51, 36
1, 3049, Note_on_c, 2, 72, 65
1, 3066, Note_on_c, 2, 46, 0
1, 3091, Note_on_c, 2, 72, 0
1, 3170, Note_on_c, 2, 70, 45
1, 3170, Note_on_c, 2, 67, 48
1, 3227, Note_on_c, 2, 70, 0
1, 3228, Note_on_c, 2, 72, 54
1, 3249, Note_on_c, 2, 67, 0
1, 3261, Note_on_c, 2, 70, 59
1, 3269, Note_on_c, 2, 39, 0
1, 3274, Note_on_c, 2, 72, 0
1, 3286, Note_on_c, 2, 68, 68
1, 3294, Note_on_c, 2, 51, 0
1, 3312, Note_on_c, 2, 70, 0
1, 3349, Note_on_c, 2, 67, 62
1, 3353, Note_on_c, 2, 68, 0
1, 3378, Note_on_c, 2, 67, 0
1, 3411, Note_on_c, 2, 65, 55
1, 3449, Note_on_c, 2, 65, 0
1, 3474, Note_on_c, 2, 63, 59
1, 3491, Note_on_c, 2, 63, 0
1, 3561, Note_on_c, 2, 51, 48
1, 3561, Note_on_c, 2, 60, 40
1, 3561, Note_on_c, 2, 79, 62
1, 3624, Note_on_c, 2, 74, 68
1, 3640, Note_on_c, 2, 79, 0
1, 3682, Note_on_c, 2, 75, 59
1, 3691, Note_on_c, 2, 74, 0
1, 3731, Note_on_c, 2, 51, 0
1, 3737, Note_on_c, 2, 75, 0
1, 3741, Note_on_c, 2, 72, 66
1, 3744, Note_on_c, 2, 60, 0
1, 3766, Note_on_c, 2, 72, 0
1, 3808, Note_on_c, 2, 53, 49
1, 3808, Note_on_c, 2, 60, 45
1, 3808, Note_on_c, 2, 70, 72
1, 3962, Note_on_c, 2, 53, 0
1, 3970, Note_on_c, 2, 60, 0
1, 3978, Note_on_c, 2, 70, 0
1, 4078, Note_on_c, 2, 58, 59
1, 4078, Note_on_c, 2, 62, 41
1, 4078, Note_on_c, 2, 70, 66
1, 4103, Note_on_c, 2, 70, 0
1, 4103, Note_on_c, 2, 68, 66
1, 4120, Note_on_c, 2, 68, 0
1, 4124, Note_on_c, 2, 70, 44
1, 4141, Note_on_c, 2, 70, 0
1, 4145, Note_on_c, 2, 68, 31
1, 4149, Note_on_c, 2, 68, 0
1, 4154, Note_on_c, 2, 70, 44
1, 4162, Note_on_c, 2, 68, 46
1, 4166, Note_on_c, 2, 70, 0
1, 4174, Note_on_c, 2, 68, 0
1, 4183, Note_on_c, 2, 70, 40
1, 4191, Note_on_c, 2, 70, 0
1, 4191, Note_on_c, 2, 68, 45
1, 4199, Note_on_c, 2, 68, 0
1, 4204, Note_on_c, 2, 70, 54
1, 4220, Note_on_c, 2, 70, 0
1, 4220, Note_on_c, 2, 68, 46
1, 4232, Note_on_c, 2, 68, 0
1, 4233, Note_on_c, 2, 70, 48
1, 4253, Note_on_c, 2, 68, 49
1, 4262, Note_on_c, 2, 68, 0
1, 4262, Note_on_c, 2, 70, 0
1, 4262, Note_on_c, 2, 67, 40
1, 4270, Note_on_c, 2, 58, 0
1, 4278, Note_on_c, 2, 62, 0
1, 4287, Note_on_c, 2, 68, 45
1, 4295, Note_on_c, 2, 67, 0
1, 4320, Note_on_c, 2, 68, 0
1, 4324, Note_on_c, 2, 67, 54
1, 4324, Note_on_c, 2, 63, 37
1, 4324, Note_on_c, 2, 60, 30
1, 4386, Note_on_c, 2, 75, 40
1, 4424, Note_on_c, 2, 75, 0
1, 4453, Note_on_c, 2, 74, 53
1, 4474, Note_on_c, 2, 63, 0
1, 4483, Note_on_c, 2, 60, 0
1, 4487, Note_on_c, 2, 67, 0
1, 4520, Note_on_c, 2, 73, 46
1, 4532, Note_on_c, 2, 74, 0
1, 4608, Note_on_c, 2, 44, 31
1, 4608, Note_on_c, 2, 56, 32
1, 4608, Note_on_c, 2, 71, 40
1, 4616, Note_on_c, 2, 73, 0
1, 4678, Note_on_c, 2, 74, 47
1, 4691, Note_on_c, 2, 71, 0
1, 4716, Note_on_c, 2, 72, 45
1, 4724, Note_on_c, 2, 74, 0
1, 4749, Note_on_c, 2, 70, 59
1, 4762, Note_on_c, 2, 72, 0
1, 4770, Note_on_c, 2, 56, 0
1, 4778, Note_on_c, 2, 68, 55
1, 4791, Note_on_c, 2, 44, 0
1, 4800, Note_on_c, 2, 70, 0
1, 4812, Note_on_c, 2, 67, 47
1, 4820, Note_on_c, 2, 68, 0
1, 4854, Note_on_c, 2, 65, 49
1, 4862, Note_on_c, 2, 67, 0
1, 4899, Note_on_c, 2, 46, 39
1, 4899, Note_on_c, 2, 55, 36
1, 4899, Note_on_c, 2, 63, 48
1, 4907, Note_on_c, 2, 65, 0
1, 5015, Note_on_c, 2, 46, 0
1, 5023, Note_on_c, 2, 55, 0
1, 5174, Note_on_c, 2, 56, 22
1, 5174, Note_on_c, 2, 46, 26
1, 5320, Note_on_c, 2, 62, 42
1, 5320, Note_on_c, 2, 67, 40
1, 5328, Note_on_c, 2, 63, 0
1, 5333, Note_on_c, 2, 46, 0
1, 5378, Note_on_c, 2, 56, 0
1, 5383, Note_on_c, 2, 67, 0
1, 5391, Note_on_c, 2, 62, 0
1, 5391, Note_on_c, 2, 65, 45
1, 5458, Note_on_c, 2, 63, 40
1, 5458, Note_on_c, 2, 51, 35
1, 5470, Note_on_c, 2, 65, 0
1, 5520, Note_on_c, 2, 55, 41
1, 5545, Note_on_c, 2, 51, 0
1, 5587, Note_on_c, 2, 58, 37
1, 5592, Note_on_c, 2, 55, 0
1, 5646, Note_on_c, 2, 55, 42
1, 5670, Note_on_c, 2, 58, 0
1, 5704, Note_on_c, 2, 55, 0
1, 5716, Note_on_c, 2, 51, 32
1, 5721, Note_on_c, 2, 63, 0
1, 5775, Note_on_c, 2, 55, 35
1, 5804, Note_on_c, 2, 51, 0
1, 5841, Note_on_c, 2, 55, 0
1, 5841, Note_on_c, 2, 58, 33
1, 5842, Note_on_c, 2, 67, 42
1, 5842, Note_on_c, 2, 70, 42
1, 5900, Note_on_c, 2, 55, 48
1, 5916, Note_on_c, 2, 67, 0
1, 5920, Note_on_c, 2, 70, 0
1, 5954, Note_on_c, 2, 55, 0
1, 5958, Note_on_c, 2, 51, 36
1, 5958, Note_on_c, 2, 67, 40
1, 5958, Note_on_c, 2, 70, 44
1, 5962, Note_on_c, 2, 58, 0
1, 6017, Note_on_c, 2, 55, 35
1, 6029, Note_on_c, 2, 67, 0
1, 6033, Note_on_c, 2, 70, 0
1, 6049, Note_on_c, 2, 51, 0
1, 6078, Note_on_c, 2, 51, 18
1, 6078, Note_on_c, 2, 70, 38
1, 6078, Note_on_c, 2, 67, 39
1, 6078, Note_on_c, 2, 58, 36
1, 6083, Note_on_c, 2, 55, 0
1, 6119, Note_on_c, 2, 67, 0
1, 6124, Note_on_c, 2, 70, 0
1, 6141, Note_on_c, 2, 55, 45
1, 6145, Note_on_c, 2, 51, 0
1, 6200, Note_on_c, 2, 55, 0
1, 6203, Note_on_c, 2, 58, 0
1, 6205, Note_on_c, 2, 68, 44
1, 6205, Note_on_c, 2, 75, 45
1, 6205, Note_on_c, 2, 51, 38
1, 6271, Note_on_c, 2, 53, 42
1, 6333, Note_on_c, 2, 53, 0
1, 6333, Note_on_c, 2, 56, 35
1, 6334, Note_on_c, 2, 74, 51
1, 6341, Note_on_c, 2, 75, 0
1, 6392, Note_on_c, 2, 53, 47
1, 6396, Note_on_c, 2, 51, 0
1, 6446, Note_on_c, 2, 53, 0
1, 6454, Note_on_c, 2, 56, 0
1, 6454, Note_on_c, 2, 51, 35
1, 6463, Note_on_c, 2, 68, 0
1, 6512, Note_on_c, 2, 53, 45
1, 6567, Note_on_c, 2, 53, 0
1, 6575, Note_on_c, 2, 56, 33
1, 6575, Note_on_c, 2, 82, 45
1, 6579, Note_on_c, 2, 74, 0
1, 6633, Note_on_c, 2, 53, 45
1, 6633, Note_on_c, 2, 80, 36
1, 6638, Note_on_c, 2, 51, 0
1, 6654, Note_on_c, 2, 82, 0
1, 6658, Note_on_c, 2, 80, 0
1, 6683, Note_on_c, 2, 53, 0
1, 6696, Note_on_c, 2, 56, 0
1, 6696, Note_on_c, 2, 51, 34
1, 6696, Note_on_c, 2, 79, 39
1, 6750, Note_on_c, 2, 79, 0
1, 6754, Note_on_c, 2, 53, 33
1, 6754, Note_on_c, 2, 77, 36
1, 6812, Note_on_c, 2, 75, 40
1, 6812, Note_on_c, 2, 56, 31
1, 6816, Note_on_c, 2, 53, 0
1, 6821, Note_on_c, 2, 77, 0
1, 6875, Note_on_c, 2, 53, 42
1, 6875, Note_on_c, 2, 74, 37
1, 6879, Note_on_c, 2, 51, 0
1, 6882, Note_on_c, 2, 75, 0
1, 6900, Note_on_c, 2, 74, 0
1, 6905, Note_on_c, 2, 53, 0
1, 6917, Note_on_c, 2, 56, 0
1, 6933, Note_on_c, 2, 77, 57
1, 6934, Note_on_c, 2, 51, 43
1, 6946, Note_on_c, 2, 77, 0
1, 6950, Note_on_c, 2, 75, 57
1, 6958, Note_on_c, 2, 75, 0
1, 6962, Note_on_c, 2, 77, 55
1, 6975, Note_on_c, 2, 75, 57
1, 6983, Note_on_c, 2, 77, 0
1, 6992, Note_on_c, 2, 55, 45
1, 7012, Note_on_c, 2, 51, 0
1, 7046, Note_on_c, 2, 55, 0
1, 7046, Note_on_c, 2, 75, 0
1, 7050, Note_on_c, 2, 58, 45
1, 7050, Note_on_c, 2, 51, 11
1, 7108, Note_on_c, 2, 51, 0
1, 7112, Note_on_c, 2, 55, 44
1, 7112, Note_on_c, 2, 74, 46
1, 7125, Note_on_c, 2, 58, 0
1, 7142, Note_on_c, 2, 72, 42
1, 7154, Note_on_c, 2, 74, 0
1, 7170, Note_on_c, 2, 55, 0
1, 7171, Note_on_c, 2, 51, 36
1, 7171, Note_on_c, 2, 70, 59
1, 7179, Note_on_c, 2, 72, 0
1, 7229, Note_on_c, 2, 55, 36
1, 7246, Note_on_c, 2, 51, 0
1, 7250, Note_on_c, 2, 70, 0
1, 7283, Note_on_c, 2, 55, 0
1, 7284, Note_on_c, 2, 51, 15
1, 7287, Note_on_c, 2, 70, 42
1, 7287, Note_on_c, 2, 67, 44
1, 7287, Note_on_c, 2, 58, 35
1, 7346, Note_on_c, 2, 51, 0
1, 7346, Note_on_c, 2, 55, 50
1, 7350, Note_on_c, 2, 67, 0
1, 7353, Note_on_c, 2, 70, 0
1, 7358, Note_on_c, 2, 58, 0
1, 7404, Note_on_c, 2, 55, 0
1, 7405, Note_on_c, 2, 70, 53
1, 7405, Note_on_c, 2, 67, 47
1, 7405, Note_on_c, 2, 51, 38
1, 7466, Note_on_c, 2, 70, 0
1, 7467, Note_on_c, 2, 67, 0
1, 7467, Note_on_c, 2, 55, 40
1, 7479, Note_on_c, 2, 51, 0
1, 7525, Note_on_c, 2, 55, 0
1, 7526, Note_on_c, 2, 51, 14
1, 7526, Note_on_c, 2, 58, 29
1, 7526, Note_on_c, 2, 67, 53
1, 7526, Note_on_c, 2, 70, 57
1, 7554, Note_on_c, 2, 67, 0
1, 7558, Note_on_c, 2, 70, 0
1, 7588, Note_on_c, 2, 55, 29
1, 7592, Note_on_c, 2, 51, 0
1, 7609, Note_on_c, 2, 58, 0
1, 7646, Note_on_c, 2, 55, 0
1, 7646, Note_on_c, 2, 51, 34
1, 7646, Note_on_c, 2, 75, 41
1, 7646, Note_on_c, 2, 68, 39
1, 7717, Note_on_c, 2, 53, 37
1, 7767, Note_on_c, 2, 75, 0
1, 7771, Note_on_c, 2, 74, 52
1, 7775, Note_on_c, 2, 53, 0
1, 7775, Note_on_c, 2, 56, 26
1, 7800, Note_on_c, 2, 68, 0
1, 7826, Note_on_c, 2, 51, 0
1, 7830, Note_on_c, 2, 53, 42
1, 7850, Note_on_c, 2, 56, 0
1, 7888, Note_on_c, 2, 53, 0
1, 7892, Note_on_c, 2, 51, 32
1, 7950, Note_on_c, 2, 53, 45
1, 8004, Note_on_c, 2, 53, 0
1, 8009, Note_on_c, 2, 56, 31
1, 8009, Note_on_c, 2, 82, 44
1, 8042, Note_on_c, 2, 74, 0
1, 8063, Note_on_c, 2, 51, 0
1, 8071, Note_on_c, 2, 53, 41
1, 8071, Note_on_c, 2, 80, 37
1, 8088, Note_on_c, 2, 82, 0
1, 8092, Note_on_c, 2, 80, 0
1, 8121, Note_on_c, 2, 51, 53
1, 8121, Note_on_c, 2, 79, 57
1, 8125, Note_on_c, 2, 53, 0
1, 8125, Note_on_c, 2, 56, 0
1, 8188, Note_on_c, 2, 53, 27
1, 8188, Note_on_c, 2, 77, 40
1, 8192, Note_on_c, 2, 79, 0
1, 8246, Note_on_c, 2, 56, 31
1, 8246, Note_on_c, 2, 75, 34
1, 8254, Note_on_c, 2, 77, 0
1, 8254, Note_on_c, 2, 53, 0
1, 8305, Note_on_c, 2, 75, 0
1, 8305, Note_on_c, 2, 74, 40
1, 8305, Note_on_c, 2, 53, 35
1, 8325, Note_on_c, 2, 56, 0
1, 8326, Note_on_c, 2, 51, 0
1, 8330, Note_on_c, 2, 53, 0
1, 8338, Note_on_c, 2, 74, 0
1, 8367, Note_on_c, 2, 51, 36
1, 8367, Note_on_c, 2, 55, 47
1, 8368, Note_on_c, 2, 75, 49
1, 8422, Note_on_c, 2, 75, 0
1, 8430, Note_on_c, 2, 77, 42
1, 8455, Note_on_c, 2, 75, 33
1, 8463, Note_on_c, 2, 77, 0
1, 8471, Note_on_c, 2, 74, 46
1, 8475, Note_on_c, 2, 75, 0
1, 8496, Note_on_c, 2, 75, 45
1, 8533, Note_on_c, 2, 74, 0
1, 8536, Note_on_c, 2, 77, 40
1, 8546, Note_on_c, 2, 75, 0
1, 8563, Note_on_c, 2, 79, 32
1, 8578, Note_on_c, 2, 77, 0
1, 8588, Note_on_c, 2, 75, 44
1, 8600, Note_on_c, 2, 79, 0
1, 8619, Note_on_c, 2, 70, 57
1, 8626, Note_on_c, 2, 75, 0
1, 8629, Note_on_c, 2, 51, 0
1, 8629, Note_on_c, 2, 55, 0
1, 8640, Note_on_c, 2, 70, 0
1, 8751, Note_on_c, 2, 67, 48
1, 8751, Note_on_c, 2, 70, 46
1, 8752, Note_on_c, 2, 55, 39
1, 8755, Note_on_c, 2, 58, 37
1, 8834, Note_on_c, 2, 58, 0
1, 8834, Note_on_c, 2, 55, 0
1, 8838, Note_on_c, 2, 67, 0
1, 8846, Note_on_c, 2, 70, 0
1, 8876, Note_on_c, 2, 56, 36
1, 8876, Note_on_c, 2, 68, 48
1, 8876, Note_on_c, 2, 60, 30
1, 8876, Note_on_c, 2, 65, 43
1, 8946, Note_on_c, 2, 65, 0
1, 8951, Note_on_c, 2, 56, 0
1, 8963, Note_on_c, 2, 60, 0
1, 8963, Note_on_c, 2, 68, 0
1, 8997, Note_on_c, 2, 57, 35
1, 8997, Note_on_c, 2, 67, 45
1, 8997, Note_on_c, 2, 60, 34
1, 8997, Note_on_c, 2, 63, 42
1, 9063, Note_on_c, 2, 67, 0
1, 9063, Note_on_c, 2, 57, 0
1, 9081, Note_on_c, 2, 60, 0
1, 9084, Note_on_c, 2, 63, 0
1, 9121, Note_on_c, 2, 58, 35
1, 9121, Note_on_c, 2, 63, 48
1, 9121, Note_on_c, 2, 70, 54
1, 9230, Note_on_c, 2, 63, 0
1, 9234, Note_on_c, 2, 70, 0
1, 9301, Note_on_c, 2, 67, 47
1, 9359, Note_on_c, 2, 67, 0
1, 9363, Note_on_c, 2, 65, 63
1, 9363, Note_on_c, 2, 62, 55
1, 9434, Note_on_c, 2, 58, 0
1, 9476, Note_on_c, 2, 58, 66
1, 9580, Note_on_c, 2, 53, 59
1, 9588, Note_on_c, 2, 58, 0
1, 9597, Note_on_c, 2, 62, 0
1, 9684, Note_on_c, 2, 50, 62
1, 9688, Note_on_c, 2, 53, 0
1, 9697, Note_on_c, 2, 65, 0
1, 9759, Note_on_c, 2, 65, 56
1, 9792, Note_on_c, 2, 50, 0
1, 9792, Note_on_c, 2, 46, 45
1, 9792, Note_on_c, 2, 77, 56
1, 9901, Note_on_c, 2, 50, 53
1, 10005, Note_on_c, 2, 53, 44
1, 10013, Note_on_c, 2, 50, 0
1, 10013, Note_on_c, 2, 65, 0
1, 10029, Note_on_c, 2, 46, 0
1, 10109, Note_on_c, 2, 53, 0
1, 10114, Note_on_c, 2, 58, 34
1, 10114, Note_on_c, 2, 75, 45
1, 10117, Note_on_c, 2, 77, 0
1, 10127, Note_on_c, 2, 58, 0
1, 10130, Note_on_c, 2, 75, 0
1, 10134, Note_on_c, 2, 74, 38
1, 10142, Note_on_c, 2, 74, 0
1, 10160, Note_on_c, 2, 72, 66
1, 10193, Note_on_c, 2, 70, 62
1, 10201, Note_on_c, 2, 72, 0
1, 10213, Note_on_c, 2, 65, 41
1, 10213, Note_on_c, 2, 69, 54
1, 10213, Note_on_c, 2, 63, 45
1, 10217, Note_on_c, 2, 70, 0
1, 10280, Note_on_c, 2, 63, 0
1, 10292, Note_on_c, 2, 65, 0
1, 10297, Note_on_c, 2, 69, 0
1, 10326, Note_on_c, 2, 70, 60
1, 10327, Note_on_c, 2, 62, 39
1, 10327, Note_on_c, 2, 65, 37
1, 10368, Note_on_c, 2, 65, 0
1, 10372, Note_on_c, 2, 62, 0
1, 10388, Note_on_c, 2, 70, 0
1, 10438, Note_on_c, 2, 60, 42
1, 10438, Note_on_c, 2, 69, 40
1, 10438, Note_on_c, 2, 63, 37
1, 10438, Note_on_c, 2, 72, 53
1, 10468, Note_on_c, 2, 72, 0
1, 10468, Note_on_c, 2, 63, 0
1, 10468, Note_on_c, 2, 60, 0
1, 10472, Note_on_c, 2, 69, 0
1, 10555, Note_on_c, 2, 58, 29
1, 10555, Note_on_c, 2, 62, 31
1, 10555, Note_on_c, 2, 75, 40
1, 10555, Note_on_c, 2, 70, 48
1, 10584, Note_on_c, 2, 70, 0
1, 10584, Note_on_c, 2, 74, 42
1, 10592, Note_on_c, 2, 58, 0
1, 10593, Note_on_c, 2, 62, 0
1, 10593, Note_on_c, 2, 75, 0
1, 10613, Note_on_c, 2, 74, 0
1, 10618, Note_on_c, 2, 72, 45
1, 10639, Note_on_c, 2, 72, 0
1, 10639, Note_on_c, 2, 74, 48
1, 10672, Note_on_c, 2, 74, 0
1, 10680, Note_on_c, 2, 72, 35
1, 10680, Note_on_c, 2, 75, 36
1, 10680, Note_on_c, 2, 60, 19
1, 10680, Note_on_c, 2, 57, 31
1, 10766, Note_on_c, 2, 72, 0
1, 10792, Note_on_c, 2, 65, 40
1, 10801, Note_on_c, 2, 75, 0
1, 10846, Note_on_c, 2, 65, 0
1, 10859, Note_on_c, 2, 60, 0
1, 10905, Note_on_c, 2, 65, 49
1, 10942, Note_on_c, 2, 65, 0
1, 10963, Note_on_c, 2, 57, 0
1, 11014, Note_on_c, 2, 65, 45
1, 11047, Note_on_c, 2, 65, 0
1, 11118, Note_on_c, 2, 75, 72
1, 11222, Note_on_c, 2, 53, 48
1, 11322, Note_on_c, 2, 57, 44
1, 11422, Note_on_c, 2, 60, 40
1, 11422, Note_on_c, 2, 77, 53
1, 11426, Note_on_c, 2, 57, 0
1, 11426, Note_on_c, 2, 75, 0
1, 11430, Note_on_c, 2, 53, 0
1, 11447, Note_on_c, 2, 75, 45
1, 11451, Note_on_c, 2, 77, 0
1, 11455, Note_on_c, 2, 60, 0
1, 11472, Note_on_c, 2, 74, 37
1, 11489, Note_on_c, 2, 72, 47
1, 11492, Note_on_c, 2, 74, 0
1, 11506, Note_on_c, 2, 75, 0
1, 11522, Note_on_c, 2, 70, 54
1, 11522, Note_on_c, 2, 62, 46
1, 11526, Note_on_c, 2, 72, 0
1, 11568, Note_on_c, 2, 62, 0
1, 11601, Note_on_c, 2, 70, 0
1, 11618, Note_on_c, 2, 72, 47
1, 11618, Note_on_c, 2, 65, 42
1, 11618, Note_on_c, 2, 63, 38
1, 11684, Note_on_c, 2, 65, 0
1, 11689, Note_on_c, 2, 63, 0
1, 11693, Note_on_c, 2, 72, 0
1, 11730, Note_on_c, 2, 74, 51
1, 11730, Note_on_c, 2, 70, 48
1, 11730, Note_on_c, 2, 65, 36
1, 11730, Note_on_c, 2, 62, 38
1, 11751, Note_on_c, 2, 65, 0
1, 11760, Note_on_c, 2, 62, 0
1, 11760, Note_on_c, 2, 74, 0
1, 11768, Note_on_c, 2, 70, 0
1, 11851, Note_on_c, 2, 77, 46
1, 11851, Note_on_c, 2, 72, 40
1, 11851, Note_on_c, 2, 63, 39
1, 11851, Note_on_c, 2, 60, 40
1, 11888, Note_on_c, 2, 77, 0
1, 11888, Note_on_c, 2, 75, 40
1, 11918, Note_on_c, 2, 60, 0
1, 11922, Note_on_c, 2, 75, 0
1, 11930, Note_on_c, 2, 63, 0
1, 11930, Note_on_c, 2, 74, 37
1, 11946, Note_on_c, 2, 72, 0
1, 11951, Note_on_c, 2, 75, 38
1, 11960, Note_on_c, 2, 74, 0
1, 11984, Note_on_c, 2, 75, 0
1, 11998, Note_on_c, 2, 77, 42
1, 11998, Note_on_c, 2, 74, 42
1, 11998, Note_on_c, 2, 62, 36
1, 11998, Note_on_c, 2, 58, 38
1, 12044, Note_on_c, 2, 62, 0
1, 12056, Note_on_c, 2, 58, 0
1, 12114, Note_on_c, 2, 46, 64
1, 12172, Note_on_c, 2, 46, 0
1, 12222, Note_on_c, 2, 46, 63
1, 12276, Note_on_c, 2, 46, 0
1, 12335, Note_on_c, 2, 46, 63
1, 12339, Note_on_c, 2, 77, 0
1, 12368, Note_on_c, 2, 74, 0
1, 12464, Note_on_c, 2, 80, 100
1, 12476, Note_on_c, 2, 46, 0
1, 12568, Note_on_c, 2, 50, 48
1, 12677, Note_on_c, 2, 53, 47
1, 12702, Note_on_c, 2, 53, 0
1, 12710, Note_on_c, 2, 50, 0
1, 12727, Note_on_c, 2, 80, 0
1, 12781, Note_on_c, 2, 56, 45
1, 12781, Note_on_c, 2, 79, 56
1, 12806, Note_on_c, 2, 77, 50
1, 12822, Note_on_c, 2, 79, 0
1, 12826, Note_on_c, 2, 75, 46
1, 12839, Note_on_c, 2, 77, 0
1, 12843, Note_on_c, 2, 56, 0
1, 12852, Note_on_c, 2, 74, 57
1, 12860, Note_on_c, 2, 75, 0
1, 12885, Note_on_c, 2, 75, 65
1, 12885, Note_on_c, 2, 55, 52
1, 12893, Note_on_c, 2, 74, 0
1, 12993, Note_on_c, 2, 55, 0
1, 12998, Note_on_c, 2, 50, 51
1, 13002, Note_on_c, 2, 77, 53
1, 13010, Note_on_c, 2, 75, 0
1, 13123, Note_on_c, 2, 78, 65
1, 13126, Note_on_c, 2, 77, 0
1, 13164, Note_on_c, 2, 50, 0
1, 13252, Note_on_c, 2, 58, 45
1, 13252, Note_on_c, 2, 51, 47
1, 13326, Note_on_c, 2, 51, 0
1, 13335, Note_on_c, 2, 58, 0
1, 13373, Note_on_c, 2, 51, 37
1, 13373, Note_on_c, 2, 58, 32
1, 13402, Note_on_c, 2, 78, 0
1, 13418, Note_on_c, 2, 51, 0
1, 13431, Note_on_c, 2, 58, 0
1, 13502, Note_on_c, 2, 80, 51
1, 13502, Note_on_c, 2, 51, 39
1, 13502, Note_on_c, 2, 59, 37
1, 13564, Note_on_c, 2, 79, 53
1, 13574, Note_on_c, 2, 51, 0
1, 13585, Note_on_c, 2, 59, 0
1, 13595, Note_on_c, 2, 80, 0
1, 13631, Note_on_c, 2, 60, 36
1, 13631, Note_on_c, 2, 51, 45
1, 13631, Note_on_c, 2, 77, 45
1, 13639, Note_on_c, 2, 79, 0
1, 13698, Note_on_c, 2, 77, 0
1, 13702, Note_on_c, 2, 75, 36
1, 13710, Note_on_c, 2, 60, 0
1, 13722, Note_on_c, 2, 51, 0
1, 13769, Note_on_c, 2, 51, 44
1, 13769, Note_on_c, 2, 57, 40
1, 13769, Note_on_c, 2, 74, 38
1, 13777, Note_on_c, 2, 75, 0
1, 13840, Note_on_c, 2, 72, 47
1, 13843, Note_on_c, 2, 74, 0
1, 13844, Note_on_c, 2, 51, 0
1, 13856, Note_on_c, 2, 57, 0
1, 13918, Note_on_c, 2, 50, 46
1, 13918, Note_on_c, 2, 58, 40
1, 13918, Note_on_c, 2, 77, 47
1, 13923, Note_on_c, 2, 72, 0
1, 13964, Note_on_c, 2, 77, 0
1, 13968, Note_on_c, 2, 76, 39
1, 14014, Note_on_c, 2, 77, 43
1, 14018, Note_on_c, 2, 76, 0
1, 14021, Note_on_c, 2, 50, 0
1, 14031, Note_on_c, 2, 58, 0
1, 14056, Note_on_c, 2, 77, 0
1, 14060, Note_on_c, 2, 51, 45
1, 14060, Note_on_c, 2, 58, 40
1, 14060, Note_on_c, 2, 79, 40
1, 14106, Note_on_c, 2, 79, 0
1, 14114, Note_on_c, 2, 67, 39
1, 14138, Note_on_c, 2, 51, 0
1, 14152, Note_on_c, 2, 58, 0
1, 14156, Note_on_c, 2, 75, 37
1, 14169, Note_on_c, 2, 67, 0
1, 14206, Note_on_c, 2, 70, 40
1, 14206, Note_on_c, 2, 62, 39
1, 14206, Note_on_c, 2, 53, 39
1, 14214, Note_on_c, 2, 75, 0
1, 14298, Note_on_c, 2, 53, 0
1, 14298, Note_on_c, 2, 62, 0
1, 14344, Note_on_c, 2, 62, 27
1, 14344, Note_on_c, 2, 53, 32
1, 14385, Note_on_c, 2, 53, 0
1, 14390, Note_on_c, 2, 62, 0
1, 14498, Note_on_c, 2, 74, 32
1, 14498, Note_on_c, 2, 69, 45
1, 14498, Note_on_c, 2, 63, 31
1, 14498, Note_on_c, 2, 53, 23
1, 14509, Note_on_c, 2, 70, 0
1, 14568, Note_on_c, 2, 72, 49
1, 14581, Note_on_c, 2, 74, 0
1, 14585, Note_on_c, 2, 69, 0
1, 14606, Note_on_c, 2, 63, 0
1, 14627, Note_on_c, 2, 70, 45
1, 14631, Note_on_c, 2, 63, 27
1, 14635, Note_on_c, 2, 72, 0
1, 14664, Note_on_c, 2, 53, 0
1, 14686, Note_on_c, 2, 72, 46
1, 14689, Note_on_c, 2, 70, 0
1, 14694, Note_on_c, 2, 63, 0
1, 14748, Note_on_c, 2, 70, 63
1, 14765, Note_on_c, 2, 72, 0
1, 14810, Note_on_c, 2, 58, 44
1, 14864, Note_on_c, 2, 62, 40
1, 14919, Note_on_c, 2, 62, 0
1, 14923, Note_on_c, 2, 58, 0
1, 14923, Note_on_c, 2, 65, 39
1, 14977, Note_on_c, 2, 63, 45
1, 14981, Note_on_c, 2, 65, 0
1, 14985, Note_on_c, 2, 70, 0
1, 15032, Note_on_c, 2, 63, 0
1, 15032, Note_on_c, 2, 65, 43
1, 15082, Note_on_c, 2, 70, 47
1, 15082, Note_on_c, 2, 77, 55
1, 15085, Note_on_c, 2, 62, 46
1, 15094, Note_on_c, 2, 65, 0
1, 15135, Note_on_c, 2, 62, 0
1, 15136, Note_on_c, 2, 65, 45
1, 15152, Note_on_c, 2, 77, 0
1, 15161, Note_on_c, 2, 70, 0
1, 15194, Note_on_c, 2, 65, 0
1, 15194, Note_on_c, 2, 60, 45
1, 15194, Note_on_c, 2, 72, 55
1, 15194, Note_on_c, 2, 77, 65
1, 15240, Note_on_c, 2, 65, 49
1, 15248, Note_on_c, 2, 60, 0
1, 15265, Note_on_c, 2, 77, 0
1, 15269, Note_on_c, 2, 72, 0
1, 15298, Note_on_c, 2, 65, 0
1, 15298, Note_on_c, 2, 58, 48
1, 15298, Note_on_c, 2, 74, 59
1, 15298, Note_on_c, 2, 77, 55
1, 15352, Note_on_c, 2, 65, 46
1, 15355, Note_on_c, 2, 74, 0
1, 15355, Note_on_c, 2, 58, 0
1, 15365, Note_on_c, 2, 77, 0
1, 15398, Note_on_c, 2, 65, 0
1, 15406, Note_on_c, 2, 57, 48
1, 15406, Note_on_c, 2, 75, 54
1, 15406, Note_on_c, 2, 77, 48
1, 15461, Note_on_c, 2, 60, 46
1, 15485, Note_on_c, 2, 57, 0
1, 15511, Note_on_c, 2, 63, 44
1, 15523, Note_on_c, 2, 60, 0
1, 15536, Note_on_c, 2, 77, 0
1, 15540, Note_on_c, 2, 79, 45
1, 15544, Note_on_c, 2, 75, 0
1, 15561, Note_on_c, 2, 63, 0
1, 15569, Note_on_c, 2, 62, 45
1, 15569, Note_on_c, 2, 77, 48
1, 15577, Note_on_c, 2, 79, 0
1, 15594, Note_on_c, 2, 76, 57
1, 15602, Note_on_c, 2, 77, 0
1, 15620, Note_on_c, 2, 60, 43
1, 15620, Note_on_c, 2, 77, 54
1, 15632, Note_on_c, 2, 76, 0
1, 15640, Note_on_c, 2, 62, 0
1, 15669, Note_on_c, 2, 58, 42
1, 15683, Note_on_c, 2, 60, 0
1, 15690, Note_on_c, 2, 77, 0
1, 15727, Note_on_c, 2, 57, 46
1, 15727, Note_on_c, 2, 69, 55
1, 15727, Note_on_c, 2, 77, 59
1, 15736, Note_on_c, 2, 58, 0
1, 15782, Note_on_c, 2, 55, 40
1, 15789, Note_on_c, 2, 57, 0
1, 15797, Note_on_c, 2, 69, 0
1, 15802, Note_on_c, 2, 77, 0
1, 15802, Note_on_c, 2, 55, 0
1, 15832, Note_on_c, 2, 53, 45
1, 15832, Note_on_c, 2, 70, 46
1, 15832, Note_on_c, 2, 79, 57
1, 15890, Note_on_c, 2, 55, 45
1, 15898, Note_on_c, 2, 53, 0
1, 15907, Note_on_c, 2, 55, 0
1, 15911, Note_on_c, 2, 79, 0
1, 15911, Note_on_c, 2, 70, 0
1, 15940, Note_on_c, 2, 81, 62
1, 15940, Note_on_c, 2, 72, 54
1, 15940, Note_on_c, 2, 51, 43
1, 15998, Note_on_c, 2, 53, 47
1, 16002, Note_on_c, 2, 51, 0
1, 16007, Note_on_c, 2, 81, 0
1, 16007, Note_on_c, 2, 72, 0
1, 16019, Note_on_c, 2, 53, 0
1, 16056, Note_on_c, 2, 82, 49
1, 16056, Note_on_c, 2, 74, 46
1, 16056, Note_on_c, 2, 50, 42
1, 16115, Note_on_c, 2, 53, 42
1, 16173, Note_on_c, 2, 58, 45
1, 16190, Note_on_c, 2, 53, 0
1, 16206, Note_on_c, 2, 84, 46
1, 16227, Note_on_c, 2, 82, 0
1, 16232, Note_on_c, 2, 58, 0
1, 16236, Note_on_c, 2, 53, 28
1, 16236, Note_on_c, 2, 86, 41
1, 16269, Note_on_c, 2, 82, 40
1, 16277, Note_on_c, 2, 84, 0
1, 16282, Note_on_c, 2, 86, 0
1, 16294, Note_on_c, 2, 53, 0
1, 16298, Note_on_c, 2, 50, 0
1, 16298, Note_on_c, 2, 62, 40
1, 16298, Note_on_c, 2, 77, 40
1, 16303, Note_on_c, 2, 82, 0
1, 16315, Note_on_c, 2, 77, 0
1, 16318, Note_on_c, 2, 62, 0
1, 16331, Note_on_c, 2, 74, 0
1, 16416, Note_on_c, 2, 58, 46
1, 16416, Note_on_c, 2, 77, 50
1, 16416, Note_on_c, 2, 74, 46
1, 16416, Note_on_c, 2, 62, 45
1, 16453, Note_on_c, 2, 62, 0
1, 16454, Note_on_c, 2, 58, 0
1, 16482, Note_on_c, 2, 74, 0
1, 16483, Note_on_c, 2, 77, 0
1, 16530, Note_on_c, 2, 60, 47
1, 16530, Note_on_c, 2, 63, 38
1, 16530, Note_on_c, 2, 72, 49
1, 16530, Note_on_c, 2, 75, 43
1, 16588, Note_on_c, 2, 72, 0
1, 16592, Note_on_c, 2, 75, 0
1, 16592, Note_on_c, 2, 63, 0
1, 16596, Note_on_c, 2, 60, 0
1, 16640, Note_on_c, 2, 74, 59
1, 16640, Note_on_c, 2, 70, 54
1, 16640, Note_on_c, 2, 65, 41
1, 16640, Note_on_c, 2, 62, 45
1, 16690, Note_on_c, 2, 70, 0
1, 16698, Note_on_c, 2, 65, 0
1, 16707, Note_on_c, 2, 74, 0
1, 16719, Note_on_c, 2, 62, 0
1, 16761, Note_on_c, 2, 72, 63
1, 16761, Note_on_c, 2, 67, 42
1, 16761, Note_on_c, 2, 63, 51
1, 16932, Note_on_c, 2, 74, 55
1, 16940, Note_on_c, 2, 72, 0
1, 16961, Note_on_c, 2, 75, 47
1, 16982, Note_on_c, 2, 72, 49
1, 16985, Note_on_c, 2, 74, 0
1, 17006, Note_on_c, 2, 67, 0
1, 17007, Note_on_c, 2, 75, 0
1, 17016, Note_on_c, 2, 79, 55
1, 17023, Note_on_c, 2, 63, 0
1, 17036, Note_on_c, 2, 72, 0
1, 17048, Note_on_c, 2, 79, 0
1, 17132, Note_on_c, 2, 67, 56
1, 17133, Note_on_c, 2, 51, 49
1, 17133, Note_on_c, 2, 60, 46
1, 17133, Note_on_c, 2, 75, 46
1, 17174, Note_on_c, 2, 75, 0
1, 17177, Note_on_c, 2, 51, 0
1, 17186, Note_on_c, 2, 60, 0
1, 17190, Note_on_c, 2, 67, 0
1, 17252, Note_on_c, 2, 53, 53
1, 17253, Note_on_c, 2, 65, 57
1, 17253, Note_on_c, 2, 70, 51
1, 17253, Note_on_c, 2, 62, 40
1, 17298, Note_on_c, 2, 53, 0
1, 17302, Note_on_c, 2, 62, 0
1, 17307, Note_on_c, 2, 70, 0
1, 17311, Note_on_c, 2, 65, 0
1, 17369, Note_on_c, 2, 53, 47
1, 17369, Note_on_c, 2, 69, 53
1, 17370, Note_on_c, 2, 72, 59
1, 17370, Note_on_c, 2, 63, 42
1, 17403, Note_on_c, 2, 53, 0
1, 17411, Note_on_c, 2, 69, 0
1, 17415, Note_on_c, 2, 63, 0
1, 17420, Note_on_c, 2, 72, 0
1, 17494, Note_on_c, 2, 72, 55
1, 17494, Note_on_c, 2, 69, 45
1, 17494, Note_on_c, 2, 63, 48
1, 17494, Note_on_c, 2, 58, 48
1, 17666, Note_on_c, 2, 73, 45
1, 17676, Note_on_c, 2, 69, 0
1, 17682, Note_on_c, 2, 58, 0
1, 17686, Note_on_c, 2, 63, 0
1, 17694, Note_on_c, 2, 72, 0
1, 17703, Note_on_c, 2, 73, 0
1, 17724, Note_on_c, 2, 62, 56
1, 17724, Note_on_c, 2, 70, 51
1, 17724, Note_on_c, 2, 74, 57
1, 17757, Note_on_c, 2, 62, 0
1, 17765, Note_on_c, 2, 74, 0
1, 17774, Note_on_c, 2, 70, 0
1, 17774, Note_on_c, 2, 58, 55
1, 17828, Note_on_c, 2, 62, 46
1, 17828, Note_on_c, 2, 70, 53
1, 17828, Note_on_c, 2, 77, 53
1, 17840, Note_on_c, 2, 58, 0
1, 17878, Note_on_c, 2, 62, 0
1, 17878, Note_on_c, 2, 65, 49
1, 17899, Note_on_c, 2, 77, 0
1, 17903, Note_on_c, 2, 70, 0
1, 17932, Note_on_c, 2, 77, 52
1, 17932, Note_on_c, 2, 72, 46
1, 17932, Note_on_c, 2, 63, 49
1, 17949, Note_on_c, 2, 65, 0
1, 17986, Note_on_c, 2, 62, 52
1, 18007, Note_on_c, 2, 63, 0
1, 18020, Note_on_c, 2, 77, 0
1, 18036, Note_on_c, 2, 77, 59
1, 18036, Note_on_c, 2, 74, 54
1, 18036, Note_on_c, 2, 60, 53
1, 18041, Note_on_c, 2, 72, 0
1, 18048, Note_on_c, 2, 62, 0
1, 18066, Note_on_c, 2, 60, 0
1, 18078, Note_on_c, 2, 74, 0
1, 18090, Note_on_c, 2, 58, 59
1, 18099, Note_on_c, 2, 77, 0
1, 18141, Note_on_c, 2, 58, 0
1, 18145, Note_on_c, 2, 57, 48
1, 18145, Note_on_c, 2, 75, 45
1, 18145, Note_on_c, 2, 77, 46
1, 18194, Note_on_c, 2, 60, 46
1, 18213, Note_on_c, 2, 57, 0
1, 18249, Note_on_c, 2, 60, 0
1, 18249, Note_on_c, 2, 63, 36
1, 18266, Note_on_c, 2, 77, 0
1, 18273, Note_on_c, 2, 75, 0
1, 18274, Note_on_c, 2, 79, 46
1, 18291, Note_on_c, 2, 62, 46
1, 18291, Note_on_c, 2, 77, 54
1, 18294, Note_on_c, 2, 63, 0
1, 18311, Note_on_c, 2, 79, 0
1, 18324, Note_on_c, 2, 76, 56
1, 18328, Note_on_c, 2, 77, 0
1, 18345, Note_on_c, 2, 77, 56
1, 18345, Note_on_c, 2, 60, 45
1, 18350, Note_on_c, 2, 62, 0
1, 18366, Note_on_c, 2, 76, 0
1, 18394, Note_on_c, 2, 58, 47
1, 18403, Note_on_c, 2, 60, 0
1, 18407, Note_on_c, 2, 77, 0
1, 18449, Note_on_c, 2, 57, 47
1, 18449, Note_on_c, 2, 69, 56
1, 18449, Note_on_c, 2, 77, 65
1, 18462, Note_on_c, 2, 58, 0
1, 18499, Note_on_c, 2, 55, 46
1, 18503, Note_on_c, 2, 57, 0
1, 18519, Note_on_c, 2, 69, 0
1, 18520, Note_on_c, 2, 55, 0
1, 18524, Note_on_c, 2, 77, 0
1, 18549, Note_on_c, 2, 70, 45
1, 18549, Note_on_c, 2, 79, 45
1, 18550, Note_on_c, 2, 53, 47
1, 18603, Note_on_c, 2, 55, 46
1, 18616, Note_on_c, 2, 70, 0
1, 18624, Note_on_c, 2, 79, 0
1, 18624, Note_on_c, 2, 53, 0
1, 18654, Note_on_c, 2, 55, 0
1, 18658, Note_on_c, 2, 51, 42
1, 18658, Note_on_c, 2, 72, 46
1, 18658, Note_on_c, 2, 81, 55
1, 18711, Note_on_c, 2, 53, 46
1, 18728, Note_on_c, 2, 51, 0
1, 18738, Note_on_c, 2, 72, 0
1, 18738, Note_on_c, 2, 81, 0
1, 18765, Note_on_c, 2, 53, 0
1, 18774, Note_on_c, 2, 82, 49
1, 18774, Note_on_c, 2, 74, 40
1, 18774, Note_on_c, 2, 50, 41
1, 18837, Note_on_c, 2, 53, 52
1, 18895, Note_on_c, 2, 58, 48
1, 18908, Note_on_c, 2, 53, 0
1, 18924, Note_on_c, 2, 84, 45
1, 18939, Note_on_c, 2, 82, 0
1, 18950, Note_on_c, 2, 53, 42
1, 18950, Note_on_c, 2, 86, 40
1, 18957, Note_on_c, 2, 58, 0
1, 18982, Note_on_c, 2, 82, 40
1, 18995, Note_on_c, 2, 86, 0
1, 18999, Note_on_c, 2, 84, 0
1, 19013, Note_on_c, 2, 53, 0
1, 19020, Note_on_c, 2, 50, 0
1, 19023, Note_on_c, 2, 77, 44
1, 19023, Note_on_c, 2, 62, 49
1, 19028, Note_on_c, 2, 82, 0
1, 19031, Note_on_c, 2, 77, 0
1, 19048, Note_on_c, 2, 62, 0
1, 19066, Note_on_c, 2, 74, 0
1, 19145, Note_on_c, 2, 58, 41
1, 19145, Note_on_c, 2, 77, 48
1, 19145, Note_on_c, 2, 74, 39
1, 19145, Note_on_c, 2, 62, 33
1, 19185, Note_on_c, 2, 62, 0
1, 19208, Note_on_c, 2, 58, 0
1, 19211, Note_on_c, 2, 74, 0
1, 19211, Note_on_c, 2, 77, 0
1, 19262, Note_on_c, 2, 75, 40
1, 19262, Note_on_c, 2, 72, 35
1, 19262, Note_on_c, 2, 63, 28
1, 19262, Note_on_c, 2, 60, 30
1, 19299, Note_on_c, 2, 63, 0
1, 19312, Note_on_c, 2, 72, 0
1, 19320, Note_on_c, 2, 60, 0
1, 19321, Note_on_c, 2, 75, 0
1, 19382, Note_on_c, 2, 70, 40
1, 19382, Note_on_c, 2, 62, 35
1, 19382, Note_on_c, 2, 74, 54
1, 19384, Note_on_c, 2, 65, 27
1, 19466, Note_on_c, 2, 65, 0
1, 19466, Note_on_c, 2, 70, 0
1, 19470, Note_on_c, 2, 62, 0
1, 19513, Note_on_c, 2, 71, 47
1, 19513, Note_on_c, 2, 67, 40
1, 19513, Note_on_c, 2, 63, 44
1, 19520, Note_on_c, 2, 74, 0
1, 19549, Note_on_c, 2, 72, 52
1, 19570, Note_on_c, 2, 71, 0
1, 19586, Note_on_c, 2, 74, 55
1, 19595, Note_on_c, 2, 72, 0
1, 19620, Note_on_c, 2, 72, 47
1, 19624, Note_on_c, 2, 74, 0
1, 19649, Note_on_c, 2, 75, 53
1, 19657, Note_on_c, 2, 72, 0
1, 19682, Note_on_c, 2, 74, 47
1, 19691, Note_on_c, 2, 75, 0
1, 19720, Note_on_c, 2, 77, 47
1, 19724, Note_on_c, 2, 74, 0
1, 19745, Note_on_c, 2, 75, 45
1, 19758, Note_on_c, 2, 77, 0
1, 19782, Note_on_c, 2, 75, 0
1, 19783, Note_on_c, 2, 79, 62
1, 19846, Note_on_c, 2, 67, 0
1, 19867, Note_on_c, 2, 63, 0
1, 20038, Note_on_c, 2, 53, 28
1, 20038, Note_on_c, 2, 57, 40
1, 20038, Note_on_c, 2, 63, 23
1, 20038, Note_on_c, 2, 77, 45
1, 20050, Note_on_c, 2, 79, 0
1, 20179, Note_on_c, 2, 60, 40
1, 20199, Note_on_c, 2, 77, 0
1, 20205, Note_on_c, 2, 57, 0
1, 20209, Note_on_c, 2, 53, 0
1, 20220, Note_on_c, 2, 60, 0
1, 20234, Note_on_c, 2, 63, 0
1, 20283, Note_on_c, 2, 69, 45
1, 20328, Note_on_c, 2, 58, 45
1, 20328, Note_on_c, 2, 70, 49
1, 20337, Note_on_c, 2, 69, 0
1, 20400, Note_on_c, 2, 62, 42
1, 20462, Note_on_c, 2, 65, 33
1, 20466, Note_on_c, 2, 62, 0
1, 20520, Note_on_c, 2, 62, 37
1, 20532, Note_on_c, 2, 58, 0
1, 20558, Note_on_c, 2, 65, 0
1, 20579, Note_on_c, 2, 62, 0
1, 20583, Note_on_c, 2, 58, 40
1, 20591, Note_on_c, 2, 70, 0
1, 20641, Note_on_c, 2, 62, 41
1, 20700, Note_on_c, 2, 65, 37
1, 20700, Note_on_c, 2, 80, 79
1, 20704, Note_on_c, 2, 62, 0
1, 20758, Note_on_c, 2, 62, 41
1, 20762, Note_on_c, 2, 58, 0
1, 20766, Note_on_c, 2, 65, 0
1, 20779, Note_on_c, 2, 62, 0
1, 20817, Note_on_c, 2, 63, 53
1, 20817, Note_on_c, 2, 79, 54
1, 20825, Note_on_c, 2, 80, 0
1, 20879, Note_on_c, 2, 60, 44
1, 20937, Note_on_c, 2, 81, 53
1, 20938, Note_on_c, 2, 65, 42
1, 20943, Note_on_c, 2, 63, 0
1, 20946, Note_on_c, 2, 79, 0
1, 20996, Note_on_c, 2, 63, 52
1, 20999, Note_on_c, 2, 60, 0
1, 21050, Note_on_c, 2, 62, 46
1, 21050, Note_on_c, 2, 84, 54
1, 21054, Note_on_c, 2, 65, 0
1, 21054, Note_on_c, 2, 81, 0
1, 21062, Note_on_c, 2, 63, 0
1, 21104, Note_on_c, 2, 62, 0
1, 21112, Note_on_c, 2, 65, 45
1, 21171, Note_on_c, 2, 62, 46
1, 21171, Note_on_c, 2, 82, 51
1, 21183, Note_on_c, 2, 84, 0
1, 21187, Note_on_c, 2, 65, 0
1, 21233, Note_on_c, 2, 60, 55
1, 21241, Note_on_c, 2, 62, 0
1, 21258, Note_on_c, 2, 60, 0
1, 21292, Note_on_c, 2, 58, 52
1, 21308, Note_on_c, 2, 58, 0
1, 21312, Note_on_c, 2, 82, 0
1, 21354, Note_on_c, 2, 56, 59
1, 21366, Note_on_c, 2, 56, 0
1, 21412, Note_on_c, 2, 53, 68
1, 21412, Note_on_c, 2, 68, 63
1, 21446, Note_on_c, 2, 53, 0
1, 21479, Note_on_c, 2, 50, 65
1, 21524, Note_on_c, 2, 50, 0
1, 21533, Note_on_c, 2, 51, 55
1, 21533, Note_on_c, 2, 67, 54
1, 21542, Note_on_c, 2, 68, 0
1, 21600, Note_on_c, 2, 51, 0
1, 21604, Note_on_c, 2, 48, 45
1, 21608, Note_on_c, 2, 67, 0
1, 21658, Note_on_c, 2, 48, 0
1, 21662, Note_on_c, 2, 69, 55
1, 21662, Note_on_c, 2, 63, 46
1, 21662, Note_on_c, 2, 53, 40
1, 21720, Note_on_c, 2, 41, 58
1, 21733, Note_on_c, 2, 53, 0
1, 21766, Note_on_c, 2, 63, 0
1, 21795, Note_on_c, 2, 69, 0
1, 21796, Note_on_c, 2, 72, 66
1, 21796, Note_on_c, 2, 63, 59
1, 21796, Note_on_c, 2, 46, 60
1, 21800, Note_on_c, 2, 41, 0
1, 21958, Note_on_c, 2, 63, 0
1, 22087, Note_on_c, 2, 62, 47
1, 22088, Note_on_c, 2, 70, 54
1, 22103, Note_on_c, 2, 72, 0
1, 22129, Note_on_c, 2, 70, 0
1, 22137, Note_on_c, 2, 46, 0
1, 22142, Note_on_c, 2, 62, 0
1, 22221, Note_on_c, 2, 62, 55
1, 22221, Note_on_c, 2, 56, 65
1, 22222, Note_on_c, 2, 65, 59
1, 22316, Note_on_c, 2, 62, 0
1, 22337, Note_on_c, 2, 65, 0
1, 22346, Note_on_c, 2, 56, 0
1, 22350, Note_on_c, 2, 55, 54
1, 22350, Note_on_c, 2, 63, 54
1, 22350, Note_on_c, 2, 67, 57
1, 22434, Note_on_c, 2, 63, 0
1, 22446, Note_on_c, 2, 67, 0
1, 22500, Note_on_c, 2, 68, 49
1, 22500, Note_on_c, 2, 65, 47
1, 22500, Note_on_c, 2, 53, 40
1, 22508, Note_on_c, 2, 55, 0
1, 22608, Note_on_c, 2, 53, 0
1, 22633, Note_on_c, 2, 65, 0
1, 22638, Note_on_c, 2, 68, 0
1, 22763, Note_on_c, 2, 67, 43
1, 22763, Note_on_c, 2, 70, 45
1, 22763, Note_on_c, 2, 51, 29
1, 22966, Note_on_c, 2, 67, 0
1, 22983, Note_on_c, 2, 70, 0
1, 23046, Note_on_c, 2, 68, 41
1, 23047, Note_on_c, 2, 65, 40
1, 23121, Note_on_c, 2, 65, 0
1, 23134, Note_on_c, 2, 68, 0
1, 23180, Note_on_c, 2, 67, 54
1, 23180, Note_on_c, 2, 63, 39
1, 23267, Note_on_c, 2, 67, 0
1, 23279, Note_on_c, 2, 63, 0
1, 23317, Note_on_c, 2, 68, 45
1, 23317, Note_on_c, 2, 72, 45
1, 23466, Note_on_c, 2, 70, 39
1, 23466, Note_on_c, 2, 67, 41
1, 23471, Note_on_c, 2, 72, 0
1, 23475, Note_on_c, 2, 68, 0
1, 23488, Note_on_c, 2, 51, 0
1, 23562, Note_on_c, 2, 67, 0
1, 23570, Note_on_c, 2, 70, 0
1, 23629, Note_on_c, 2, 51, 38
1, 23629, Note_on_c, 2, 70, 40
1, 23630, Note_on_c, 2, 67, 40
1, 23783, Note_on_c, 2, 51, 0
1, 23808, Note_on_c, 2, 67, 0
1, 23813, Note_on_c, 2, 70, 0
1, 23896, Note_on_c, 2, 53, 40
1, 23896, Note_on_c, 2, 65, 42
1, 23896, Note_on_c, 2, 68, 44
1, 24009, Note_on_c, 2, 65, 0
1, 24017, Note_on_c, 2, 53, 0
1, 24025, Note_on_c, 2, 68, 0
1, 24150, Note_on_c, 2, 63, 35
1, 24150, Note_on_c, 2, 67, 52
1, 24154, Note_on_c, 2, 55, 37
1, 24234, Note_on_c, 2, 55, 0
1, 24250, Note_on_c, 2, 63, 0
1, 24263, Note_on_c, 2, 67, 0
1, 24422, Note_on_c, 2, 58, 28
1, 24422, Note_on_c, 2, 64, 40
1, 24422, Note_on_c, 2, 61, 23
1, 24522, Note_on_c, 2, 58, 0
1, 24526, Note_on_c, 2, 61, 0
1, 24550, Note_on_c, 2, 64, 0
1, 24717, Note_on_c, 2, 56, 32
1, 24717, Note_on_c, 2, 60, 21
1, 24717, Note_on_c, 2, 65, 37
1, 24846, Note_on_c, 2, 72, 54
1, 24858, Note_on_c, 2, 65, 0
1, 24913, Note_on_c, 2, 72, 0
1, 24976, Note_on_c, 2, 70, 40
1, 25004, Note_on_c, 2, 60, 0
1, 25034, Note_on_c, 2, 68, 41
1, 25037, Note_on_c, 2, 56, 0
1, 25042, Note_on_c, 2, 70, 0
1, 25092, Note_on_c, 2, 68, 0
1, 25097, Note_on_c, 2, 67, 39
1, 25163, Note_on_c, 2, 67, 0
1, 25163, Note_on_c, 2, 65, 40
1, 25180, Note_on_c, 2, 65, 0
1, 25222, Note_on_c, 2, 55, 55
1, 25222, Note_on_c, 2, 63, 48
1, 25222, Note_on_c, 2, 45, 56
1, 25288, Note_on_c, 2, 46, 50
1, 25297, Note_on_c, 2, 45, 0
1, 25350, Note_on_c, 2, 46, 0
1, 25355, Note_on_c, 2, 48, 36
1, 25418, Note_on_c, 2, 46, 42
1, 25426, Note_on_c, 2, 48, 0
1, 25434, Note_on_c, 2, 63, 0
1, 25438, Note_on_c, 2, 55, 0
1, 25443, Note_on_c, 2, 46, 0
1, 25485, Note_on_c, 2, 62, 56
1, 25485, Note_on_c, 2, 53, 45
1, 25485, Note_on_c, 2, 46, 49
1, 25510, Note_on_c, 2, 53, 0
1, 25526, Note_on_c, 2, 62, 0
1, 25555, Note_on_c, 2, 58, 54
1, 25580, Note_on_c, 2, 62, 59
1, 25584, Note_on_c, 2, 58, 0
1, 25614, Note_on_c, 2, 60, 54
1, 25618, Note_on_c, 2, 62, 0
1, 25639, Note_on_c, 2, 60, 0
1, 25642, Note_on_c, 2, 63, 47
1, 25668, Note_on_c, 2, 62, 55
1, 25671, Note_on_c, 2, 63, 0
1, 25692, Note_on_c, 2, 65, 53
1, 25709, Note_on_c, 2, 62, 0
1, 25726, Note_on_c, 2, 63, 68
1, 25734, Note_on_c, 2, 65, 0
1, 25755, Note_on_c, 2, 67, 53
1, 25772, Note_on_c, 2, 63, 0
1, 25780, Note_on_c, 2, 65, 54
1, 25788, Note_on_c, 2, 67, 0
1, 25792, Note_on_c, 2, 65, 0
1, 25817, Note_on_c, 2, 68, 53
1, 25850, Note_on_c, 2, 68, 0
1, 25851, Note_on_c, 2, 67, 53
1, 25876, Note_on_c, 2, 70, 45
1, 25892, Note_on_c, 2, 67, 0
1, 25909, Note_on_c, 2, 68, 70
1, 25918, Note_on_c, 2, 70, 0
1, 25947, Note_on_c, 2, 68, 0
1, 25976, Note_on_c, 2, 39, 40
1, 25976, Note_on_c, 2, 51, 36
1, 25976, Note_on_c, 2, 72, 57
1, 26000, Note_on_c, 2, 46, 0
1, 26022, Note_on_c, 2, 72, 0
1, 26092, Note_on_c, 2, 70, 50
1, 26092, Note_on_c, 2, 67, 46
1, 26149, Note_on_c, 2, 70, 0
1, 26155, Note_on_c, 2, 72, 45
1, 26176, Note_on_c, 2, 67, 0
1, 26184, Note_on_c, 2, 70, 57
1, 26201, Note_on_c, 2, 72, 0
1, 26210, Note_on_c, 2, 39, 0
1, 26218, Note_on_c, 2, 68, 68
1, 26231, Note_on_c, 2, 51, 0
1, 26242, Note_on_c, 2, 70, 0
1, 26276, Note_on_c, 2, 67, 53
1, 26280, Note_on_c, 2, 68, 0
1, 26334, Note_on_c, 2, 67, 0
1, 26334, Note_on_c, 2, 65, 52
1, 26393, Note_on_c, 2, 65, 0
1, 26401, Note_on_c, 2, 63, 59
1, 26418, Note_on_c, 2, 63, 0
1, 26488, Note_on_c, 2, 51, 45
1, 26488, Note_on_c, 2, 60, 44
1, 26488, Note_on_c, 2, 79, 60
1, 26568, Note_on_c, 2, 74, 63
1, 26597, Note_on_c, 2, 79, 0
1, 26626, Note_on_c, 2, 75, 54
1, 26630, Note_on_c, 2, 74, 0
1, 26671, Note_on_c, 2, 51, 0
1, 26676, Note_on_c, 2, 75, 0
1, 26680, Note_on_c, 2, 72, 55
1, 26687, Note_on_c, 2, 60, 0
1, 26722, Note_on_c, 2, 72, 0
1, 26744, Note_on_c, 2, 53, 45
1, 26744, Note_on_c, 2, 70, 63
1, 26744, Note_on_c, 2, 60, 39
1, 26880, Note_on_c, 2, 70, 0
1, 26889, Note_on_c, 2, 60, 0
1, 26915, Note_on_c, 2, 53, 0
1, 27001, Note_on_c, 2, 58, 36
1, 27001, Note_on_c, 2, 62, 37
1, 27031, Note_on_c, 2, 70, 59
1, 27068, Note_on_c, 2, 70, 0
1, 27068, Note_on_c, 2, 68, 60
1, 27080, Note_on_c, 2, 68, 0
1, 27089, Note_on_c, 2, 70, 47
1, 27106, Note_on_c, 2, 70, 0
1, 27106, Note_on_c, 2, 68, 53
1, 27118, Note_on_c, 2, 68, 0
1, 27122, Note_on_c, 2, 70, 47
1, 27134, Note_on_c, 2, 70, 0
1, 27134, Note_on_c, 2, 68, 41
1, 27143, Note_on_c, 2, 68, 0
1, 27151, Note_on_c, 2, 70, 40
1, 27156, Note_on_c, 2, 70, 0
1, 27156, Note_on_c, 2, 68, 49
1, 27172, Note_on_c, 2, 68, 0
1, 27172, Note_on_c, 2, 70, 50
1, 27188, Note_on_c, 2, 70, 0
1, 27189, Note_on_c, 2, 68, 40
1, 27206, Note_on_c, 2, 68, 0
1, 27209, Note_on_c, 2, 58, 0
1, 27210, Note_on_c, 2, 70, 45
1, 27222, Note_on_c, 2, 68, 38
1, 27230, Note_on_c, 2, 62, 0
1, 27235, Note_on_c, 2, 70, 0
1, 27238, Note_on_c, 2, 68, 0
1, 27238, Note_on_c, 2, 70, 42
1, 27259, Note_on_c, 2, 68, 42
1, 27274, Note_on_c, 2, 68, 0
1, 27276, Note_on_c, 2, 70, 0
1, 27284, Note_on_c, 2, 60, 35
1, 27284, Note_on_c, 2, 63, 37
1, 27284, Note_on_c, 2, 67, 45
1, 27352, Note_on_c, 2, 75, 42
1, 27388, Note_on_c, 2, 75, 0
1, 27396, Note_on_c, 2, 63, 0
1, 27422, Note_on_c, 2, 74, 45
1, 27425, Note_on_c, 2, 60, 0
1, 27426, Note_on_c, 2, 67, 0
1, 27485, Note_on_c, 2, 74, 0
1, 27493, Note_on_c, 2, 73, 39
1, 27576, Note_on_c, 2, 71, 47
1, 27576, Note_on_c, 2, 56, 38
1, 27576, Note_on_c, 2, 44, 38
1, 27580, Note_on_c, 2, 73, 0
1, 27656, Note_on_c, 2, 74, 55
1, 27668, Note_on_c, 2, 71, 0
1, 27693, Note_on_c, 2, 72, 48
1, 27706, Note_on_c, 2, 74, 0
1, 27727, Note_on_c, 2, 70, 70
1, 27739, Note_on_c, 2, 72, 0
1, 27756, Note_on_c, 2, 68, 65
1, 27768, Note_on_c, 2, 56, 0
1, 27772, Note_on_c, 2, 44, 0
1, 27776, Note_on_c, 2, 70, 0
1, 27789, Note_on_c, 2, 67, 53
1, 27793, Note_on_c, 2, 68, 0
1, 27822, Note_on_c, 2, 65, 52
1, 27835, Note_on_c, 2, 67, 0
1, 27860, Note_on_c, 2, 63, 68
1, 27864, Note_on_c, 2, 46, 36
1, 27864, Note_on_c, 2, 55, 37
1, 27868, Note_on_c, 2, 65, 0
1, 27989, Note_on_c, 2, 55, 0
1, 28006, Note_on_c, 2, 46, 0
1, 28139, Note_on_c, 2, 46, 32
1, 28139, Note_on_c, 2, 56, 32
1, 28309, Note_on_c, 2, 46, 0
1, 28310, Note_on_c, 2, 63, 0
1, 28310, Note_on_c, 2, 67, 49
1, 28310, Note_on_c, 2, 62, 52
1, 28360, Note_on_c, 2, 56, 0
1, 28368, Note_on_c, 2, 67, 0
1, 28385, Note_on_c, 2, 65, 47
1, 28389, Note_on_c, 2, 62, 0
1, 28465, Note_on_c, 2, 63, 48
1, 28465, Note_on_c, 2, 51, 40
1, 28472, Note_on_c, 2, 65, 0
1, 28543, Note_on_c, 2, 55, 45
1, 28572, Note_on_c, 2, 51, 0
1, 28610, Note_on_c, 2, 55, 0
1, 28610, Note_on_c, 2, 58, 39
1, 28610, Note_on_c, 2, 51, 22
1, 28647, Note_on_c, 2, 51, 0
1, 28668, Note_on_c, 2, 55, 46
1, 28689, Note_on_c, 2, 58, 0
1, 28722, Note_on_c, 2, 55, 0
1, 28731, Note_on_c, 2, 51, 32
1, 28745, Note_on_c, 2, 63, 0
1, 28790, Note_on_c, 2, 55, 33
1, 28818, Note_on_c, 2, 51, 0
1, 28847, Note_on_c, 2, 51, 11
1, 28847, Note_on_c, 2, 58, 35
1, 28847, Note_on_c, 2, 67, 42
1, 28847, Note_on_c, 2, 70, 40
1, 28851, Note_on_c, 2, 55, 0
1, 28909, Note_on_c, 2, 51, 0
1, 28910, Note_on_c, 2, 55, 40
1, 28930, Note_on_c, 2, 67, 0
1, 28930, Note_on_c, 2, 58, 0
1, 28940, Note_on_c, 2, 70, 0
1, 28956, Note_on_c, 2, 55, 0
1, 28968, Note_on_c, 2, 51, 35
1, 28969, Note_on_c, 2, 70, 39
1, 28972, Note_on_c, 2, 67, 33
1, 29026, Note_on_c, 2, 55, 29
1, 29031, Note_on_c, 2, 67, 0
1, 29035, Note_on_c, 2, 70, 0
1, 29056, Note_on_c, 2, 51, 0
1, 29085, Note_on_c, 2, 55, 0
1, 29086, Note_on_c, 2, 51, 11
1, 29086, Note_on_c, 2, 58, 35
1, 29086, Note_on_c, 2, 67, 35
1, 29086, Note_on_c, 2, 70, 40
1, 29120, Note_on_c, 2, 67, 0
1, 29122, Note_on_c, 2, 70, 0
1, 29140, Note_on_c, 2, 51, 0
1, 29147, Note_on_c, 2, 55, 46
1, 29165, Note_on_c, 2, 58, 0
1, 29202, Note_on_c, 2, 55, 0
1, 29206, Note_on_c, 2, 75, 47
1, 29206, Note_on_c, 2, 68, 40
1, 29210, Note_on_c, 2, 51, 45
1, 29264, Note_on_c, 2, 53, 36
1, 29323, Note_on_c, 2, 74, 56
1, 29327, Note_on_c, 2, 53, 0
1, 29328, Note_on_c, 2, 56, 38
1, 29331, Note_on_c, 2, 75, 0
1, 29335, Note_on_c, 2, 68, 0
1, 29381, Note_on_c, 2, 51, 0
1, 29385, Note_on_c, 2, 53, 38
1, 29410, Note_on_c, 2, 56, 0
1, 29435, Note_on_c, 2, 53, 0
1, 29443, Note_on_c, 2, 51, 36
1, 29498, Note_on_c, 2, 53, 39
1, 29552, Note_on_c, 2, 53, 0
1, 29552, Note_on_c, 2, 74, 0
1, 29556, Note_on_c, 2, 82, 43
1, 29556, Note_on_c, 2, 56, 35
1, 29614, Note_on_c, 2, 51, 0
1, 29614, Note_on_c, 2, 53, 46
1, 29614, Note_on_c, 2, 80, 33
1, 29631, Note_on_c, 2, 56, 0
1, 29631, Note_on_c, 2, 82, 0
1, 29635, Note_on_c, 2, 80, 0
1, 29656, Note_on_c, 2, 53, 0
1, 29669, Note_on_c, 2, 51, 32
1, 29669, Note_on_c, 2, 79, 39
1, 29727, Note_on_c, 2, 53, 38
1, 29731, Note_on_c, 2, 77, 42
1, 29740, Note_on_c, 2, 79, 0
1, 29789, Note_on_c, 2, 53, 0
1, 29794, Note_on_c, 2, 56, 30
1, 29794, Note_on_c, 2, 75, 34
1, 29802, Note_on_c, 2, 77, 0
1, 29844, Note_on_c, 2, 51, 0
1, 29852, Note_on_c, 2, 53, 29
1, 29853, Note_on_c, 2, 74, 42
1, 29860, Note_on_c, 2, 75, 0
1, 29873, Note_on_c, 2, 74, 0
1, 29873, Note_on_c, 2, 53, 0
1, 29906, Note_on_c, 2, 51, 45
1, 29906, Note_on_c, 2, 77, 60
1, 29911, Note_on_c, 2, 56, 0
1, 29919, Note_on_c, 2, 77, 0
1, 29919, Note_on_c, 2, 75, 60
1, 29927, Note_on_c, 2, 75, 0
1, 29932, Note_on_c, 2, 77, 50
1, 29944, Note_on_c, 2, 75, 53
1, 29956, Note_on_c, 2, 77, 0
1, 29964, Note_on_c, 2, 55, 40
1, 29990, Note_on_c, 2, 51, 0
1, 30015, Note_on_c, 2, 55, 0
1, 30023, Note_on_c, 2, 58, 36
1, 30027, Note_on_c, 2, 51, 13
1, 30035, Note_on_c, 2, 75, 0
1, 30077, Note_on_c, 2, 51, 0
1, 30081, Note_on_c, 2, 55, 40
1, 30081, Note_on_c, 2, 74, 47
1, 30106, Note_on_c, 2, 58, 0
1, 30106, Note_on_c, 2, 72, 46
1, 30123, Note_on_c, 2, 74, 0
1, 30127, Note_on_c, 2, 55, 0
1, 30135, Note_on_c, 2, 70, 72
1, 30140, Note_on_c, 2, 51, 32
1, 30144, Note_on_c, 2, 72, 0
1, 30194, Note_on_c, 2, 55, 42
1, 30218, Note_on_c, 2, 70, 0
1, 30252, Note_on_c, 2, 55, 0
1, 30253, Note_on_c, 2, 58, 36
1, 30253, Note_on_c, 2, 67, 45
1, 30253, Note_on_c, 2, 70, 52
1, 30306, Note_on_c, 2, 51, 0
1, 30306, Note_on_c, 2, 55, 42
1, 30311, Note_on_c, 2, 67, 0
1, 30323, Note_on_c, 2, 70, 0
1, 30336, Note_on_c, 2, 58, 0
1, 30356, Note_on_c, 2, 55, 0
1, 30365, Note_on_c, 2, 51, 31
1, 30365, Note_on_c, 2, 67, 45
1, 30365, Note_on_c, 2, 70, 44
1, 30419, Note_on_c, 2, 55, 41
1, 30423, Note_on_c, 2, 70, 0
1, 30424, Note_on_c, 2, 67, 0
1, 30427, Note_on_c, 2, 51, 0
1, 30477, Note_on_c, 2, 55, 0
1, 30477, Note_on_c, 2, 58, 35
1, 30478, Note_on_c, 2, 67, 35
1, 30478, Note_on_c, 2, 70, 39
1, 30481, Note_on_c, 2, 51, 18
1, 30506, Note_on_c, 2, 67, 0
1, 30514, Note_on_c, 2, 51, 0
1, 30514, Note_on_c, 2, 70, 0
1, 30536, Note_on_c, 2, 55, 28
1, 30581, Note_on_c, 2, 58, 0
1, 30590, Note_on_c, 2, 55, 0
1, 30598, Note_on_c, 2, 51, 44
1, 30598, Note_on_c, 2, 68, 41
1, 30598, Note_on_c, 2, 75, 43
1, 30660, Note_on_c, 2, 53, 42
1, 30719, Note_on_c, 2, 56, 35
1, 30720, Note_on_c, 2, 74, 53
1, 30723, Note_on_c, 2, 53, 0
1, 30732, Note_on_c, 2, 75, 0
1, 30748, Note_on_c, 2, 68, 0
1, 30778, Note_on_c, 2, 53, 36
1, 30790, Note_on_c, 2, 51, 0
1, 30810, Note_on_c, 2, 56, 0
1, 30836, Note_on_c, 2, 53, 0
1, 30836, Note_on_c, 2, 51, 32
1, 30894, Note_on_c, 2, 53, 41
1, 30948, Note_on_c, 2, 53, 0
1, 30952, Note_on_c, 2, 56, 32
1, 30952, Note_on_c, 2, 82, 44
1, 31006, Note_on_c, 2, 51, 0
1, 31010, Note_on_c, 2, 53, 37
1, 31010, Note_on_c, 2, 80, 36
1, 31023, Note_on_c, 2, 74, 0
1, 31036, Note_on_c, 2, 82, 0
1, 31036, Note_on_c, 2, 80, 0
1, 31068, Note_on_c, 2, 53, 0
1, 31069, Note_on_c, 2, 56, 0
1, 31069, Note_on_c, 2, 51, 42
1, 31069, Note_on_c, 2, 79, 40
1, 31123, Note_on_c, 2, 79, 0
1, 31123, Note_on_c, 2, 53, 36
1, 31123, Note_on_c, 2, 77, 36
1, 31190, Note_on_c, 2, 53, 0
1, 31190, Note_on_c, 2, 56, 37
1, 31190, Note_on_c, 2, 75, 35
1, 31198, Note_on_c, 2, 77, 0
1, 31248, Note_on_c, 2, 74, 40
1, 31248, Note_on_c, 2, 53, 40
1, 31252, Note_on_c, 2, 51, 0
1, 31252, Note_on_c, 2, 75, 0
1, 31260, Note_on_c, 2, 56, 0
1, 31273, Note_on_c, 2, 53, 0
1, 31286, Note_on_c, 2, 74, 0
1, 31307, Note_on_c, 2, 51, 48
1, 31307, Note_on_c, 2, 55, 45
1, 31308, Note_on_c, 2, 75, 45
1, 31332, Note_on_c, 2, 75, 0
1, 31374, Note_on_c, 2, 77, 47
1, 31390, Note_on_c, 2, 75, 55
1, 31398, Note_on_c, 2, 77, 0
1, 31406, Note_on_c, 2, 75, 0
1, 31406, Note_on_c, 2, 74, 54
1, 31432, Note_on_c, 2, 75, 48
1, 31457, Note_on_c, 2, 74, 0
1, 31465, Note_on_c, 2, 77, 55
1, 31473, Note_on_c, 2, 75, 0
1, 31486, Note_on_c, 2, 79, 39
1, 31511, Note_on_c, 2, 75, 56
1, 31519, Note_on_c, 2, 77, 0
1, 31520, Note_on_c, 2, 79, 0
1, 31544, Note_on_c, 2, 70, 65
1, 31548, Note_on_c, 2, 75, 0
1, 31557, Note_on_c, 2, 51, 0
1, 31560, Note_on_c, 2, 55, 0
1, 31565, Note_on_c, 2, 70, 0
1, 31658, Note_on_c, 2, 70, 55
1, 31658, Note_on_c, 2, 67, 57
1, 31658, Note_on_c, 2, 58, 44
1, 31658, Note_on_c, 2, 55, 48
1, 31744, Note_on_c, 2, 67, 0
1, 31748, Note_on_c, 2, 55, 0
1, 31748, Note_on_c, 2, 58, 0
1, 31749, Note_on_c, 2, 70, 0
1, 31774, Note_on_c, 2, 56, 49
1, 31774, Note_on_c, 2, 65, 45
1, 31774, Note_on_c, 2, 60, 44
1, 31774, Note_on_c, 2, 68, 53
1, 31840, Note_on_c, 2, 56, 0
1, 31845, Note_on_c, 2, 65, 0
1, 31857, Note_on_c, 2, 60, 0
1, 31857, Note_on_c, 2, 68, 0
1, 31891, Note_on_c, 2, 57, 45
1, 31891, Note_on_c, 2, 60, 42
1, 31891, Note_on_c, 2, 63, 56
1, 31891, Note_on_c, 2, 67, 55
1, 31941, Note_on_c, 2, 57, 0
1, 31953, Note_on_c, 2, 67, 0
1, 31974, Note_on_c, 2, 63, 0
1, 31974, Note_on_c, 2, 60, 0
1, 32011, Note_on_c, 2, 70, 54
1, 32011, Note_on_c, 2, 63, 47
1, 32011, Note_on_c, 2, 58, 40
1, 32157, Note_on_c, 2, 63, 0
1, 32160, Note_on_c, 2, 70, 0
1, 32177, Note_on_c, 2, 67, 46
1, 32236, Note_on_c, 2, 67, 0
1, 32236, Note_on_c, 2, 62, 46
1, 32236, Note_on_c, 2, 65, 54
1, 32324, Note_on_c, 2, 58, 0
1, 32353, Note_on_c, 2, 58, 66
1, 32457, Note_on_c, 2, 53, 65
1, 32470, Note_on_c, 2, 58, 0
1, 32478, Note_on_c, 2, 62, 0
1, 32557, Note_on_c, 2, 53, 0
1, 32561, Note_on_c, 2, 50, 65
1, 32569, Note_on_c, 2, 65, 0
1, 32645, Note_on_c, 2, 65, 53
1, 32665, Note_on_c, 2, 50, 0
1, 32674, Note_on_c, 2, 46, 49
1, 32674, Note_on_c, 2, 77, 54
1, 32782, Note_on_c, 2, 50, 48
1, 32886, Note_on_c, 2, 53, 43
1, 32895, Note_on_c, 2, 50, 0
1, 32911, Note_on_c, 2, 46, 0
1, 32916, Note_on_c, 2, 65, 0
1, 32995, Note_on_c, 2, 53, 0
1, 32998, Note_on_c, 2, 58, 38
1, 32999, Note_on_c, 2, 75, 42
1, 33007, Note_on_c, 2, 77, 0
1, 33011, Note_on_c, 2, 58, 0
1, 33020, Note_on_c, 2, 75, 0
1, 33028, Note_on_c, 2, 74, 40
1, 33049, Note_on_c, 2, 72, 52
1, 33057, Note_on_c, 2, 74, 0
1, 33074, Note_on_c, 2, 70, 56
1, 33082, Note_on_c, 2, 72, 0
1, 33103, Note_on_c, 2, 69, 53
1, 33103, Note_on_c, 2, 65, 40
1, 33103, Note_on_c, 2, 63, 42
1, 33107, Note_on_c, 2, 70, 0
1, 33165, Note_on_c, 2, 63, 0
1, 33173, Note_on_c, 2, 65, 0
1, 33186, Note_on_c, 2, 69, 0
1, 33212, Note_on_c, 2, 65, 41
1, 33212, Note_on_c, 2, 62, 45
1, 33212, Note_on_c, 2, 70, 49
1, 33232, Note_on_c, 2, 65, 0
1, 33236, Note_on_c, 2, 62, 0
1, 33253, Note_on_c, 2, 70, 0
1, 33324, Note_on_c, 2, 60, 30
1, 33324, Note_on_c, 2, 63, 40
1, 33324, Note_on_c, 2, 69, 40
1, 33324, Note_on_c, 2, 72, 54
1, 33349, Note_on_c, 2, 60, 0
1, 33357, Note_on_c, 2, 63, 0
1, 33357, Note_on_c, 2, 72, 0
1, 33358, Note_on_c, 2, 69, 0
1, 33431, Note_on_c, 2, 58, 39
1, 33431, Note_on_c, 2, 62, 41
1, 33431, Note_on_c, 2, 75, 42
1, 33431, Note_on_c, 2, 70, 48
1, 33456, Note_on_c, 2, 70, 0
1, 33461, Note_on_c, 2, 58, 0
1, 33461, Note_on_c, 2, 62, 0
1, 33462, Note_on_c, 2, 74, 54
1, 33465, Note_on_c, 2, 75, 0
1, 33490, Note_on_c, 2, 74, 0
1, 33491, Note_on_c, 2, 72, 55
1, 33507, Note_on_c, 2, 74, 53
1, 33515, Note_on_c, 2, 72, 0
1, 33545, Note_on_c, 2, 74, 0
1, 33545, Note_on_c, 2, 57, 40
1, 33545, Note_on_c, 2, 60, 40
1, 33545, Note_on_c, 2, 72, 51
1, 33545, Note_on_c, 2, 75, 43
1, 33653, Note_on_c, 2, 72, 0
1, 33662, Note_on_c, 2, 65, 48
1, 33670, Note_on_c, 2, 75, 0
1, 33711, Note_on_c, 2, 65, 0
1, 33770, Note_on_c, 2, 65, 49
1, 33794, Note_on_c, 2, 60, 0
1, 33803, Note_on_c, 2, 65, 0
1, 33819, Note_on_c, 2, 57, 0
1, 33882, Note_on_c, 2, 65, 48
1, 33916, Note_on_c, 2, 65, 0
1, 33995, Note_on_c, 2, 75, 72
1, 34103, Note_on_c, 2, 53, 64
1, 34207, Note_on_c, 2, 57, 61
1, 34320, Note_on_c, 2, 75, 0
1, 34320, Note_on_c, 2, 60, 31
1, 34320, Note_on_c, 2, 77, 53
1, 34337, Note_on_c, 2, 57, 0
1, 34337, Note_on_c, 2, 53, 0
1, 34349, Note_on_c, 2, 75, 42
1, 34354, Note_on_c, 2, 60, 0
1, 34357, Note_on_c, 2, 77, 0
1, 34374, Note_on_c, 2, 74, 45
1, 34399, Note_on_c, 2, 72, 42
1, 34404, Note_on_c, 2, 74, 0
1, 34412, Note_on_c, 2, 75, 0
1, 34428, Note_on_c, 2, 62, 49
1, 34428, Note_on_c, 2, 70, 56
1, 34436, Note_on_c, 2, 72, 0
1, 34478, Note_on_c, 2, 62, 0
1, 34516, Note_on_c, 2, 70, 0
1, 34545, Note_on_c, 2, 72, 45
1, 34545, Note_on_c, 2, 65, 38
1, 34545, Note_on_c, 2, 63, 41
1, 34620, Note_on_c, 2, 65, 0
1, 34624, Note_on_c, 2, 63, 0
1, 34628, Note_on_c, 2, 72, 0
1, 34666, Note_on_c, 2, 65, 14
1, 34666, Note_on_c, 2, 62, 41
1, 34666, Note_on_c, 2, 70, 45
1, 34666, Note_on_c, 2, 74, 57
1, 34679, Note_on_c, 2, 65, 0
1, 34699, Note_on_c, 2, 74, 0
1, 34707, Note_on_c, 2, 70, 0
1, 34707, Note_on_c, 2, 62, 0
1, 34791, Note_on_c, 2, 60, 36
1, 34791, Note_on_c, 2, 63, 38
1, 34791, Note_on_c, 2, 72, 40
1, 34791, Note_on_c, 2, 77, 50
1, 34824, Note_on_c, 2, 75, 48
1, 34833, Note_on_c, 2, 77, 0
1, 34845, Note_on_c, 2, 63, 0
1, 34845, Note_on_c, 2, 60, 0
1, 34862, Note_on_c, 2, 75, 0
1, 34862, Note_on_c, 2, 74, 37
1, 34882, Note_on_c, 2, 72, 0
1, 34891, Note_on_c, 2, 75, 40
1, 34904, Note_on_c, 2, 74, 0
1, 34928, Note_on_c, 2, 75, 0
1, 34933, Note_on_c, 2, 58, 41
1, 34933, Note_on_c, 2, 74, 45
1, 34933, Note_on_c, 2, 62, 31
1, 34933, Note_on_c, 2, 77, 52
1, 34992, Note_on_c, 2, 62, 0
1, 34999, Note_on_c, 2, 58, 0
1, 35054, Note_on_c, 2, 46, 59
1, 35099, Note_on_c, 2, 46, 0
1, 35174, Note_on_c, 2, 46, 59
1, 35212, Note_on_c, 2, 46, 0
1, 35296, Note_on_c, 2, 74, 0
1, 35299, Note_on_c, 2, 77, 0
1, 35299, Note_on_c, 2, 46, 55
1, 35441, Note_on_c, 2, 80, 68
1, 35458, Note_on_c, 2, 46, 0
1, 35566, Note_on_c, 2, 50, 54
1, 35674, Note_on_c, 2, 53, 44
1, 35708, Note_on_c, 2, 50, 0
1, 35716, Note_on_c, 2, 80, 0
1, 35741, Note_on_c, 2, 53, 0
1, 35791, Note_on_c, 2, 56, 43
1, 35792, Note_on_c, 2, 79, 47
1, 35820, Note_on_c, 2, 77, 42
1, 35832, Note_on_c, 2, 79, 0
1, 35837, Note_on_c, 2, 56, 0
1, 35840, Note_on_c, 2, 75, 39
1, 35854, Note_on_c, 2, 77, 0
1, 35870, Note_on_c, 2, 74, 49
1, 35881, Note_on_c, 2, 75, 0
1, 35904, Note_on_c, 2, 55, 46
1, 35904, Note_on_c, 2, 75, 54
1, 35912, Note_on_c, 2, 74, 0
1, 36020, Note_on_c, 2, 55, 0
1, 36020, Note_on_c, 2, 50, 46
1, 36021, Note_on_c, 2, 77, 50
1, 36033, Note_on_c, 2, 75, 0
1, 36145, Note_on_c, 2, 78, 79
1, 36150, Note_on_c, 2, 77, 0
1, 36170, Note_on_c, 2, 50, 0
1, 36279, Note_on_c, 2, 51, 50
1, 36279, Note_on_c, 2, 58, 51
1, 36370, Note_on_c, 2, 58, 0
1, 36370, Note_on_c, 2, 51, 0
1, 36412, Note_on_c, 2, 51, 37
1, 36412, Note_on_c, 2, 58, 39
1, 36450, Note_on_c, 2, 51, 0
1, 36450, Note_on_c, 2, 78, 0
1, 36487, Note_on_c, 2, 58, 0
1, 36542, Note_on_c, 2, 51, 41
1, 36542, Note_on_c, 2, 59, 40
1, 36542, Note_on_c, 2, 80, 48
1, 36587, Note_on_c, 2, 80, 0
1, 36616, Note_on_c, 2, 79, 59
1, 36621, Note_on_c, 2, 51, 0
1, 36633, Note_on_c, 2, 59, 0
1, 36679, Note_on_c, 2, 51, 45
1, 36679, Note_on_c, 2, 60, 37
1, 36679, Note_on_c, 2, 77, 34
1, 36687, Note_on_c, 2, 79, 0
1, 36754, Note_on_c, 2, 60, 0
1, 36754, Note_on_c, 2, 75, 38
1, 36758, Note_on_c, 2, 77, 0
1, 36775, Note_on_c, 2, 51, 0
1, 36825, Note_on_c, 2, 51, 39
1, 36825, Note_on_c, 2, 57, 28
1, 36825, Note_on_c, 2, 74, 45
1, 36846, Note_on_c, 2, 75, 0
1, 36904, Note_on_c, 2, 51, 0
1, 36904, Note_on_c, 2, 72, 43
1, 36905, Note_on_c, 2, 57, 0
1, 36908, Note_on_c, 2, 74, 0
1, 36979, Note_on_c, 2, 50, 49
1, 36979, Note_on_c, 2, 58, 32
1, 36979, Note_on_c, 2, 77, 47
1, 36992, Note_on_c, 2, 72, 0
1, 37033, Note_on_c, 2, 77, 0
1, 37037, Note_on_c, 2, 76, 44
1, 37083, Note_on_c, 2, 50, 0
1, 37083, Note_on_c, 2, 77, 47
1, 37087, Note_on_c, 2, 76, 0
1, 37099, Note_on_c, 2, 58, 0
1, 37133, Note_on_c, 2, 77, 0
1, 37133, Note_on_c, 2, 51, 45
1, 37133, Note_on_c, 2, 58, 42
1, 37133, Note_on_c, 2, 79, 42
1, 37192, Note_on_c, 2, 67, 55
1, 37204, Note_on_c, 2, 79, 0
1, 37233, Note_on_c, 2, 51, 0
1, 37242, Note_on_c, 2, 75, 45
1, 37249, Note_on_c, 2, 58, 0
1, 37275, Note_on_c, 2, 67, 0
1, 37300, Note_on_c, 2, 53, 38
1, 37300, Note_on_c, 2, 62, 36
1, 37300, Note_on_c, 2, 70, 43
1, 37304, Note_on_c, 2, 75, 0
1, 37392, Note_on_c, 2, 53, 0
1, 37396, Note_on_c, 2, 62, 0
1, 37446, Note_on_c, 2, 53, 42
1, 37446, Note_on_c, 2, 62, 48
1, 37487, Note_on_c, 2, 53, 0
1, 37500, Note_on_c, 2, 62, 0
1, 37596, Note_on_c, 2, 53, 26
1, 37596, Note_on_c, 2, 63, 37
1, 37596, Note_on_c, 2, 69, 40
1, 37596, Note_on_c, 2, 74, 37
1, 37612, Note_on_c, 2, 70, 0
1, 37675, Note_on_c, 2, 72, 53
1, 37692, Note_on_c, 2, 69, 0
1, 37692, Note_on_c, 2, 74, 0
1, 37712, Note_on_c, 2, 63, 0
1, 37742, Note_on_c, 2, 63, 40
1, 37742, Note_on_c, 2, 70, 52
1, 37746, Note_on_c, 2, 72, 0
1, 37758, Note_on_c, 2, 53, 0
1, 37808, Note_on_c, 2, 72, 46
1, 37812, Note_on_c, 2, 63, 0
1, 37812, Note_on_c, 2, 70, 0
1, 37875, Note_on_c, 2, 70, 63
1, 37884, Note_on_c, 2, 72, 0
1, 37938, Note_on_c, 2, 58, 55
1, 37996, Note_on_c, 2, 62, 41
1, 38050, Note_on_c, 2, 62, 0
1, 38054, Note_on_c, 2, 65, 30
1, 38063, Note_on_c, 2, 58, 0
1, 38108, Note_on_c, 2, 70, 0
1, 38112, Note_on_c, 2, 63, 39
1, 38117, Note_on_c, 2, 65, 0
1, 38180, Note_on_c, 2, 63, 0
1, 38183, Note_on_c, 2, 65, 28
1, 38233, Note_on_c, 2, 70, 42
1, 38233, Note_on_c, 2, 77, 55
1, 38234, Note_on_c, 2, 62, 41
1, 38246, Note_on_c, 2, 65, 0
1, 38288, Note_on_c, 2, 62, 0
1, 38288, Note_on_c, 2, 65, 42
1, 38296, Note_on_c, 2, 77, 0
1, 38304, Note_on_c, 2, 70, 0
1, 38333, Note_on_c, 2, 65, 0
1, 38338, Note_on_c, 2, 77, 49
1, 38338, Note_on_c, 2, 60, 42
1, 38338, Note_on_c, 2, 72, 48
1, 38392, Note_on_c, 2, 60, 0
1, 38392, Note_on_c, 2, 65, 42
1, 38400, Note_on_c, 2, 77, 0
1, 38408, Note_on_c, 2, 72, 0
1, 38442, Note_on_c, 2, 65, 0
1, 38442, Note_on_c, 2, 58, 40
1, 38442, Note_on_c, 2, 74, 54
1, 38442, Note_on_c, 2, 77, 52
1, 38480, Note_on_c, 2, 74, 0
1, 38488, Note_on_c, 2, 77, 0
1, 38488, Note_on_c, 2, 58, 0
1, 38492, Note_on_c, 2, 65, 44
1, 38538, Note_on_c, 2, 65, 0
1, 38546, Note_on_c, 2, 57, 52
1, 38546, Note_on_c, 2, 75, 40
1, 38546, Note_on_c, 2, 77, 45
1, 38604, Note_on_c, 2, 60, 40
1, 38633, Note_on_c, 2, 57, 0
1, 38654, Note_on_c, 2, 63, 40
1, 38662, Note_on_c, 2, 60, 0
1, 38675, Note_on_c, 2, 77, 0
1, 38679, Note_on_c, 2, 79, 46
1, 38684, Note_on_c, 2, 75, 0
1, 38704, Note_on_c, 2, 77, 45
1, 38708, Note_on_c, 2, 63, 0
1, 38708, Note_on_c, 2, 62, 44
1, 38717, Note_on_c, 2, 79, 0
1, 38734, Note_on_c, 2, 76, 59
1, 38738, Note_on_c, 2, 77, 0
1, 38763, Note_on_c, 2, 60, 40
1, 38763, Note_on_c, 2, 77, 46
1, 38771, Note_on_c, 2, 76, 0
1, 38775, Note_on_c, 2, 62, 0
1, 38821, Note_on_c, 2, 58, 45
1, 38829, Note_on_c, 2, 77, 0
1, 38833, Note_on_c, 2, 60, 0
1, 38880, Note_on_c, 2, 57, 33
1, 38880, Note_on_c, 2, 69, 32
1, 38880, Note_on_c, 2, 77, 52
1, 38904, Note_on_c, 2, 58, 0
1, 38934, Note_on_c, 2, 57, 0
1, 38938, Note_on_c, 2, 55, 36
1, 38950, Note_on_c, 2, 69, 0
1, 38958, Note_on_c, 2, 55, 0
1, 38971, Note_on_c, 2, 77, 0
1, 38992, Note_on_c, 2, 53, 40
1, 38992, Note_on_c, 2, 70, 43
1, 38992, Note_on_c, 2, 79, 55
1, 39042, Note_on_c, 2, 55, 40
1, 39053, Note_on_c, 2, 53, 0
1, 39062, Note_on_c, 2, 70, 0
1, 39062, Note_on_c, 2, 79, 0
1, 39063, Note_on_c, 2, 55, 0
1, 39092, Note_on_c, 2, 51, 39
1, 39092, Note_on_c, 2, 72, 50
1, 39092, Note_on_c, 2, 81, 56
1, 39121, Note_on_c, 2, 51, 0
1, 39126, Note_on_c, 2, 72, 0
1, 39138, Note_on_c, 2, 81, 0
1, 39142, Note_on_c, 2, 53, 49
1, 39167, Note_on_c, 2, 53, 0
1, 39204, Note_on_c, 2, 50, 40
1, 39204, Note_on_c, 2, 74, 45
1, 39204, Note_on_c, 2, 82, 48
1, 39254, Note_on_c, 2, 53, 40
1, 39300, Note_on_c, 2, 50, 0
1, 39305, Note_on_c, 2, 58, 45
1, 39321, Note_on_c, 2, 53, 0
1, 39330, Note_on_c, 2, 84, 49
1, 39342, Note_on_c, 2, 82, 0
1, 39359, Note_on_c, 2, 58, 0
1, 39363, Note_on_c, 2, 50, 43
1, 39363, Note_on_c, 2, 86, 32
1, 39388, Note_on_c, 2, 82, 46
1, 39400, Note_on_c, 2, 84, 0
1, 39405, Note_on_c, 2, 86, 0
1, 39422, Note_on_c, 2, 62, 41
1, 39422, Note_on_c, 2, 77, 38
1, 39425, Note_on_c, 2, 50, 0
1, 39430, Note_on_c, 2, 82, 0
1, 39442, Note_on_c, 2, 77, 0
1, 39446, Note_on_c, 2, 62, 0
1, 39458, Note_on_c, 2, 74, 0
1, 39534, Note_on_c, 2, 58, 36
1, 39534, Note_on_c, 2, 62, 35
1, 39534, Note_on_c, 2, 74, 36
1, 39534, Note_on_c, 2, 77, 41
1, 39593, Note_on_c, 2, 58, 0
1, 39597, Note_on_c, 2, 62, 0
1, 39597, Note_on_c, 2, 77, 0
1, 39599, Note_on_c, 2, 74, 0
1, 39650, Note_on_c, 2, 75, 40
1, 39650, Note_on_c, 2, 60, 38
1, 39650, Note_on_c, 2, 63, 37
1, 39650, Note_on_c, 2, 72, 36
1, 39692, Note_on_c, 2, 72, 0
1, 39696, Note_on_c, 2, 75, 0
1, 39700, Note_on_c, 2, 63, 0
1, 39700, Note_on_c, 2, 60, 0
1, 39759, Note_on_c, 2, 62, 39
1, 39759, Note_on_c, 2, 70, 43
1, 39759, Note_on_c, 2, 65, 28
1, 39759, Note_on_c, 2, 74, 48
1, 39800, Note_on_c, 2, 70, 0
1, 39804, Note_on_c, 2, 74, 0
1, 39813, Note_on_c, 2, 65, 0
1, 39825, Note_on_c, 2, 62, 0
1, 39868, Note_on_c, 2, 72, 52
1, 39868, Note_on_c, 2, 67, 38
1, 39868, Note_on_c, 2, 63, 33
1, 40025, Note_on_c, 2, 74, 45
1, 40035, Note_on_c, 2, 72, 0
1, 40051, Note_on_c, 2, 75, 40
1, 40076, Note_on_c, 2, 74, 0
1, 40080, Note_on_c, 2, 72, 40
1, 40097, Note_on_c, 2, 75, 0
1, 40105, Note_on_c, 2, 79, 46
1, 40106, Note_on_c, 2, 67, 0
1, 40117, Note_on_c, 2, 63, 0
1, 40122, Note_on_c, 2, 72, 0
1, 40134, Note_on_c, 2, 79, 0
1, 40217, Note_on_c, 2, 51, 48
1, 40217, Note_on_c, 2, 60, 40
1, 40217, Note_on_c, 2, 67, 46
1, 40217, Note_on_c, 2, 75, 45
1, 40242, Note_on_c, 2, 51, 0
1, 40247, Note_on_c, 2, 75, 0
1, 40250, Note_on_c, 2, 60, 0
1, 40263, Note_on_c, 2, 67, 0
1, 40330, Note_on_c, 2, 53, 55
1, 40330, Note_on_c, 2, 65, 56
1, 40330, Note_on_c, 2, 70, 54
1, 40334, Note_on_c, 2, 62, 45
1, 40367, Note_on_c, 2, 53, 0
1, 40372, Note_on_c, 2, 62, 0
1, 40384, Note_on_c, 2, 70, 0
1, 40384, Note_on_c, 2, 65, 0
1, 40446, Note_on_c, 2, 53, 49
1, 40447, Note_on_c, 2, 63, 44
1, 40447, Note_on_c, 2, 69, 51
1, 40447, Note_on_c, 2, 72, 55
1, 40514, Note_on_c, 2, 69, 0
1, 40514, Note_on_c, 2, 63, 0
1, 40526, Note_on_c, 2, 72, 0
1, 40527, Note_on_c, 2, 53, 0
1, 40564, Note_on_c, 2, 63, 49
1, 40564, Note_on_c, 2, 69, 45
1, 40564, Note_on_c, 2, 72, 55
1, 40565, Note_on_c, 2, 58, 50
1, 40730, Note_on_c, 2, 73, 45
1, 40742, Note_on_c, 2, 69, 0
1, 40746, Note_on_c, 2, 58, 0
1, 40746, Note_on_c, 2, 63, 0
1, 40755, Note_on_c, 2, 72, 0
1, 40759, Note_on_c, 2, 73, 0
1, 40784, Note_on_c, 2, 58, 54
1, 40784, Note_on_c, 2, 74, 55
1, 40784, Note_on_c, 2, 62, 54
1, 40784, Note_on_c, 2, 70, 50
1, 40830, Note_on_c, 2, 74, 0
1, 40834, Note_on_c, 2, 58, 0
1, 40834, Note_on_c, 2, 62, 0
1, 40834, Note_on_c, 2, 58, 49
1, 40837, Note_on_c, 2, 70, 0
1, 40888, Note_on_c, 2, 77, 56
1, 40888, Note_on_c, 2, 70, 54
1, 40892, Note_on_c, 2, 62, 38
1, 40909, Note_on_c, 2, 58, 0
1, 40938, Note_on_c, 2, 62, 0
1, 40943, Note_on_c, 2, 65, 43
1, 40960, Note_on_c, 2, 77, 0
1, 40967, Note_on_c, 2, 70, 0
1, 40992, Note_on_c, 2, 63, 47
1, 40992, Note_on_c, 2, 72, 55
1, 40992, Note_on_c, 2, 77, 55
1, 41005, Note_on_c, 2, 65, 0
1, 41042, Note_on_c, 2, 62, 57
1, 41058, Note_on_c, 2, 63, 0
1, 41072, Note_on_c, 2, 77, 0
1, 41076, Note_on_c, 2, 72, 0
1, 41093, Note_on_c, 2, 60, 54
1, 41093, Note_on_c, 2, 74, 55
1, 41093, Note_on_c, 2, 77, 56
1, 41101, Note_on_c, 2, 62, 0
1, 41118, Note_on_c, 2, 60, 0
1, 41130, Note_on_c, 2, 74, 0
1, 41138, Note_on_c, 2, 77, 0
1, 41146, Note_on_c, 2, 58, 56
1, 41168, Note_on_c, 2, 58, 0
1, 41201, Note_on_c, 2, 57, 44
1, 41201, Note_on_c, 2, 75, 52
1, 41201, Note_on_c, 2, 77, 56
1, 41256, Note_on_c, 2, 60, 43
1, 41271, Note_on_c, 2, 57, 0
1, 41301, Note_on_c, 2, 63, 46
1, 41314, Note_on_c, 2, 60, 0
1, 41318, Note_on_c, 2, 77, 0
1, 41326, Note_on_c, 2, 79, 53
1, 41330, Note_on_c, 2, 75, 0
1, 41351, Note_on_c, 2, 62, 45
1, 41351, Note_on_c, 2, 77, 51
1, 41359, Note_on_c, 2, 63, 0
1, 41364, Note_on_c, 2, 79, 0
1, 41376, Note_on_c, 2, 76, 60
1, 41385, Note_on_c, 2, 77, 0
1, 41401, Note_on_c, 2, 60, 52
1, 41401, Note_on_c, 2, 77, 55
1, 41409, Note_on_c, 2, 62, 0
1, 41413, Note_on_c, 2, 76, 0
1, 41455, Note_on_c, 2, 58, 45
1, 41459, Note_on_c, 2, 60, 0
1, 41463, Note_on_c, 2, 77, 0
1, 41505, Note_on_c, 2, 57, 47
1, 41505, Note_on_c, 2, 69, 54
1, 41505, Note_on_c, 2, 77, 56
1, 41526, Note_on_c, 2, 58, 0
1, 41555, Note_on_c, 2, 55, 50
1, 41558, Note_on_c, 2, 57, 0
1, 41575, Note_on_c, 2, 69, 0
1, 41580, Note_on_c, 2, 77, 0
1, 41580, Note_on_c, 2, 55, 0
1, 41609, Note_on_c, 2, 79, 57
1, 41610, Note_on_c, 2, 53, 47
1, 41610, Note_on_c, 2, 70, 54
1, 41664, Note_on_c, 2, 55, 52
1, 41676, Note_on_c, 2, 53, 0
1, 41684, Note_on_c, 2, 55, 0
1, 41684, Note_on_c, 2, 70, 0
1, 41689, Note_on_c, 2, 79, 0
1, 41722, Note_on_c, 2, 51, 42
1, 41722, Note_on_c, 2, 72, 54
1, 41722, Note_on_c, 2, 81, 57
1, 41784, Note_on_c, 2, 51, 0
1, 41788, Note_on_c, 2, 53, 46
1, 41793, Note_on_c, 2, 72, 0
1, 41805, Note_on_c, 2, 53, 0
1, 41805, Note_on_c, 2, 81, 0
1, 41851, Note_on_c, 2, 50, 45
1, 41851, Note_on_c, 2, 82, 53
1, 41851, Note_on_c, 2, 74, 40
1, 41914, Note_on_c, 2, 53, 51
1, 41955, Note_on_c, 2, 50, 0
1, 41972, Note_on_c, 2, 58, 39
1, 41980, Note_on_c, 2, 53, 0
1, 42010, Note_on_c, 2, 84, 37
1, 42022, Note_on_c, 2, 82, 0
1, 42030, Note_on_c, 2, 58, 0
1, 42039, Note_on_c, 2, 53, 45
1, 42039, Note_on_c, 2, 86, 50
1, 42046, Note_on_c, 2, 84, 0
1, 42068, Note_on_c, 2, 82, 45
1, 42097, Note_on_c, 2, 86, 0
1, 42109, Note_on_c, 2, 82, 0
1, 42110, Note_on_c, 2, 53, 0
1, 42110, Note_on_c, 2, 62, 41
1, 42110, Note_on_c, 2, 77, 49
1, 42126, Note_on_c, 2, 77, 0
1, 42135, Note_on_c, 2, 62, 0
1, 42147, Note_on_c, 2, 74, 0
1, 42224, Note_on_c, 2, 58, 39
1, 42224, Note_on_c, 2, 62, 36
1, 42224, Note_on_c, 2, 74, 33
1, 42224, Note_on_c, 2, 77, 54
1, 42265, Note_on_c, 2, 58, 0
1, 42266, Note_on_c, 2, 62, 0
1, 42291, Note_on_c, 2, 74, 0
1, 42294, Note_on_c, 2, 77, 0
1, 42331, Note_on_c, 2, 60, 40
1, 42331, Note_on_c, 2, 63, 36
1, 42331, Note_on_c, 2, 72, 45
1, 42331, Note_on_c, 2, 75, 40
1, 42402, Note_on_c, 2, 72, 0
1, 42405, Note_on_c, 2, 75, 0
1, 42410, Note_on_c, 2, 63, 0
1, 42411, Note_on_c, 2, 60, 0
1, 42452, Note_on_c, 2, 62, 45
1, 42452, Note_on_c, 2, 65, 37
1, 42452, Note_on_c, 2, 70, 45
1, 42452, Note_on_c, 2, 74, 45
1, 42526, Note_on_c, 2, 65, 0
1, 42527, Note_on_c, 2, 70, 0
1, 42543, Note_on_c, 2, 62, 0
1, 42568, Note_on_c, 2, 63, 41
1, 42568, Note_on_c, 2, 67, 40
1, 42568, Note_on_c, 2, 71, 49
1, 42572, Note_on_c, 2, 74, 0
1, 42601, Note_on_c, 2, 72, 45
1, 42618, Note_on_c, 2, 71, 0
1, 42626, Note_on_c, 2, 74, 45
1, 42635, Note_on_c, 2, 72, 0
1, 42651, Note_on_c, 2, 72, 49
1, 42659, Note_on_c, 2, 74, 0
1, 42685, Note_on_c, 2, 75, 43
1, 42688, Note_on_c, 2, 72, 0
1, 42714, Note_on_c, 2, 74, 53
1, 42722, Note_on_c, 2, 75, 0
1, 42743, Note_on_c, 2, 77, 54
1, 42751, Note_on_c, 2, 74, 0
1, 42772, Note_on_c, 2, 75, 45
1, 42780, Note_on_c, 2, 77, 0
1, 42806, Note_on_c, 2, 75, 0
1, 42806, Note_on_c, 2, 79, 68
1, 42876, Note_on_c, 2, 67, 0
1, 42888, Note_on_c, 2, 63, 0
1, 43056, Note_on_c, 2, 57, 62
1, 43056, Note_on_c, 2, 63, 26
1, 43056, Note_on_c, 2, 77, 49
1, 43068, Note_on_c, 2, 79, 0
1, 43189, Note_on_c, 2, 60, 48
1, 43214, Note_on_c, 2, 57, 0
1, 43248, Note_on_c, 2, 77, 0
1, 43251, Note_on_c, 2, 63, 0
1, 43290, Note_on_c, 2, 60, 0
1, 43304, Note_on_c, 2, 69, 47
1, 43326, Note_on_c, 2, 58, 42
1, 43326, Note_on_c, 2, 70, 56
1, 43349, Note_on_c, 2, 69, 0
1, 43385, Note_on_c, 2, 62, 45
1, 43444, Note_on_c, 2, 65, 40
1, 43447, Note_on_c, 2, 62, 0
1, 43502, Note_on_c, 2, 58, 0
1, 43502, Note_on_c, 2, 62, 45
1, 43526, Note_on_c, 2, 65, 0
1, 43552, Note_on_c, 2, 62, 0
1, 43564, Note_on_c, 2, 58, 40
1, 43602, Note_on_c, 2, 70, 0
1, 43623, Note_on_c, 2, 62, 33
1, 43685, Note_on_c, 2, 62, 0
1, 43685, Note_on_c, 2, 65, 48
1, 43685, Note_on_c, 2, 80, 56
1, 43742, Note_on_c, 2, 65, 0
1, 43744, Note_on_c, 2, 62, 50
1, 43747, Note_on_c, 2, 58, 0
1, 43760, Note_on_c, 2, 62, 0
1, 43802, Note_on_c, 2, 80, 0
1, 43802, Note_on_c, 2, 63, 52
1, 43802, Note_on_c, 2, 79, 55
1, 43860, Note_on_c, 2, 63, 0
1, 43860, Note_on_c, 2, 60, 51
1, 43914, Note_on_c, 2, 65, 36
1, 43914, Note_on_c, 2, 81, 53
1, 43927, Note_on_c, 2, 79, 0
1, 43972, Note_on_c, 2, 63, 36
1, 43977, Note_on_c, 2, 60, 0
1, 44026, Note_on_c, 2, 65, 0
1, 44026, Note_on_c, 2, 84, 53
1, 44031, Note_on_c, 2, 81, 0
1, 44031, Note_on_c, 2, 62, 42
1, 44039, Note_on_c, 2, 63, 0
1, 44085, Note_on_c, 2, 62, 0
1, 44093, Note_on_c, 2, 65, 37
1, 44148, Note_on_c, 2, 82, 57
1, 44148, Note_on_c, 2, 62, 49
1, 44156, Note_on_c, 2, 84, 0
1, 44168, Note_on_c, 2, 65, 0
1, 44206, Note_on_c, 2, 60, 45
1, 44218, Note_on_c, 2, 62, 0
1, 44222, Note_on_c, 2, 60, 0
1, 44260, Note_on_c, 2, 82, 0
1, 44260, Note_on_c, 2, 58, 48
1, 44277, Note_on_c, 2, 58, 0
1, 44318, Note_on_c, 2, 56, 57
1, 44330, Note_on_c, 2, 56, 0
1, 44377, Note_on_c, 2, 53, 53
1, 44377, Note_on_c, 2, 68, 68
1, 44436, Note_on_c, 2, 50, 52
1, 44439, Note_on_c, 2, 53, 0
1, 44485, Note_on_c, 2, 50, 0
1, 44494, Note_on_c, 2, 68, 0
1, 44494, Note_on_c, 2, 51, 60
1, 44494, Note_on_c, 2, 67, 55
1, 44556, Note_on_c, 2, 48, 51
1, 44569, Note_on_c, 2, 51, 0
1, 44573, Note_on_c, 2, 67, 0
1, 44614, Note_on_c, 2, 48, 0
1, 44618, Note_on_c, 2, 53, 62
1, 44618, Note_on_c, 2, 69, 51
1, 44618, Note_on_c, 2, 63, 47
1, 44698, Note_on_c, 2, 41, 63
1, 44701, Note_on_c, 2, 53, 0
1, 44731, Note_on_c, 2, 63, 0
1, 44768, Note_on_c, 2, 69, 0
1, 44773, Note_on_c, 2, 41, 0
1, 44773, Note_on_c, 2, 46, 60
1, 44773, Note_on_c, 2, 63, 42
1, 44773, Note_on_c, 2, 72, 63
1, 44956, Note_on_c, 2, 63, 0
1, 45060, Note_on_c, 2, 62, 36
1, 45060, Note_on_c, 2, 70, 45
1, 45073, Note_on_c, 2, 72, 0
1, 45082, Note_on_c, 2, 70, 0
1, 45085, Note_on_c, 2, 46, 0
1, 45089, Note_on_c, 2, 62, 0
1, 45190, Note_on_c, 2, 65, 59
1, 45190, Note_on_c, 2, 62, 54
1, 45190, Note_on_c, 2, 56, 52
1, 45278, Note_on_c, 2, 62, 0
1, 45285, Note_on_c, 2, 65, 0
1, 45315, Note_on_c, 2, 56, 0
1, 45319, Note_on_c, 2, 63, 51
1, 45319, Note_on_c, 2, 55, 43
1, 45319, Note_on_c, 2, 67, 49
1, 45381, Note_on_c, 2, 67, 0
1, 45381, Note_on_c, 2, 63, 0
1, 45448, Note_on_c, 2, 68, 42
1, 45448, Note_on_c, 2, 65, 44
1, 45448, Note_on_c, 2, 53, 40
1, 45451, Note_on_c, 2, 55, 0
1, 45523, Note_on_c, 2, 65, 0
1, 45530, Note_on_c, 2, 68, 0
1, 45536, Note_on_c, 2, 53, 0
1, 45606, Note_on_c, 2, 66, 43
1, 45606, Note_on_c, 2, 69, 50
1, 45608, Note_on_c, 2, 52, 37
1, 45727, Note_on_c, 2, 66, 0
1, 45732, Note_on_c, 2, 69, 0
1, 45869, Note_on_c, 2, 70, 46
1, 45869, Note_on_c, 2, 67, 46
1, 45948, Note_on_c, 2, 67, 0
1, 45952, Note_on_c, 2, 70, 0
1, 45956, Note_on_c, 2, 52, 0
1, 45998, Note_on_c, 2, 70, 53
1, 45998, Note_on_c, 2, 73, 53
1, 46027, Note_on_c, 2, 70, 0
1, 46031, Note_on_c, 2, 73, 0
1, 46127, Note_on_c, 2, 64, 47
1, 46127, Note_on_c, 2, 48, 41
1, 46127, Note_on_c, 2, 67, 53
1, 46202, Note_on_c, 2, 67, 0
1, 46202, Note_on_c, 2, 64, 0
1, 46252, Note_on_c, 2, 68, 45
1, 46252, Note_on_c, 2, 72, 55
1, 46269, Note_on_c, 2, 48, 0
1, 46285, Note_on_c, 2, 72, 0
1, 46301, Note_on_c, 2, 68, 0
1, 46382, Note_on_c, 2, 49, 44
1, 46382, Note_on_c, 2, 67, 48
1, 46382, Note_on_c, 2, 70, 40
1, 46556, Note_on_c, 2, 70, 0
1, 46562, Note_on_c, 2, 67, 0
1, 46640, Note_on_c, 2, 65, 45
1, 46640, Note_on_c, 2, 68, 49
1, 46682, Note_on_c, 2, 68, 0
1, 46748, Note_on_c, 2, 49, 0
1, 46769, Note_on_c, 2, 77, 52
1, 46770, Note_on_c, 2, 65, 0
1, 46852, Note_on_c, 2, 77, 0
1, 46890, Note_on_c, 2, 77, 47
1, 46890, Note_on_c, 2, 60, 47
1, 46890, Note_on_c, 2, 56, 41
1, 46990, Note_on_c, 2, 77, 0
1, 47020, Note_on_c, 2, 77, 37
1, 47032, Note_on_c, 2, 60, 0
1, 47036, Note_on_c, 2, 56, 0
1, 47044, Note_on_c, 2, 77, 0
1, 47141, Note_on_c, 2, 58, 36
1, 47141, Note_on_c, 2, 61, 25
1, 47141, Note_on_c, 2, 78, 39
1, 47382, Note_on_c, 2, 79, 54
1, 47390, Note_on_c, 2, 78, 0
1, 47429, Note_on_c, 2, 58, 0
1, 47433, Note_on_c, 2, 61, 0
1, 47515, Note_on_c, 2, 82, 54
1, 47524, Note_on_c, 2, 79, 0
1, 47636, Note_on_c, 2, 60, 46
1, 47636, Note_on_c, 2, 70, 35
1, 47761, Note_on_c, 2, 60, 0
1, 47761, Note_on_c, 2, 82, 0
1, 47761, Note_on_c, 2, 76, 46
1, 47790, Note_on_c, 2, 70, 0
1, 47848, Note_on_c, 2, 76, 0
1, 47891, Note_on_c, 2, 65, 48
1, 47891, Note_on_c, 2, 70, 37
1, 47891, Note_on_c, 2, 79, 45
1, 48170, Note_on_c, 2, 68, 46
1, 48170, Note_on_c, 2, 77, 49
1, 48182, Note_on_c, 2, 79, 0
1, 48182, Note_on_c, 2, 70, 0
1, 48187, Note_on_c, 2, 65, 0
1, 48190, Note_on_c, 2, 68, 0
1, 48290, Note_on_c, 2, 41, 60
1, 48365, Note_on_c, 2, 41, 0
1, 48407, Note_on_c, 2, 41, 60
1, 48499, Note_on_c, 2, 41, 0
1, 48532, Note_on_c, 2, 41, 60
1, 48612, Note_on_c, 2, 41, 0
1, 48653, Note_on_c, 2, 41, 65
1, 48720, Note_on_c, 2, 77, 0
1, 48770, Note_on_c, 2, 80, 63
1, 48807, Note_on_c, 2, 80, 0
1, 48886, Note_on_c, 2, 79, 57
1, 48946, Note_on_c, 2, 77, 55
1, 48957, Note_on_c, 2, 79, 0
1, 48999, Note_on_c, 2, 75, 56
1, 49003, Note_on_c, 2, 77, 0
1, 49049, Note_on_c, 2, 73, 62
1, 49066, Note_on_c, 2, 75, 0
1, 49112, Note_on_c, 2, 73, 0
1, 49112, Note_on_c, 2, 72, 53
1, 49166, Note_on_c, 2, 73, 40
1, 49220, Note_on_c, 2, 72, 0
1, 49232, Note_on_c, 2, 77, 40
1, 49236, Note_on_c, 2, 73, 0
1, 49287, Note_on_c, 2, 73, 52
1, 49290, Note_on_c, 2, 77, 0
1, 49307, Note_on_c, 2, 73, 0
1, 49349, Note_on_c, 2, 62, 66
1, 49349, Note_on_c, 2, 72, 70
1, 49349, Note_on_c, 2, 68, 72
1, 49595, Note_on_c, 2, 71, 54
1, 49599, Note_on_c, 2, 72, 0
1, 49678, Note_on_c, 2, 41, 0
1, 49708, Note_on_c, 2, 41, 60
1, 49761, Note_on_c, 2, 41, 0
1, 49816, Note_on_c, 2, 41, 65
1, 49870, Note_on_c, 2, 41, 0
1, 49928, Note_on_c, 2, 41, 63
1, 49966, Note_on_c, 2, 41, 0
1, 50041, Note_on_c, 2, 42, 100
1, 50070, Note_on_c, 2, 62, 0
1, 50082, Note_on_c, 2, 68, 0
1, 50082, Note_on_c, 2, 71, 0
1, 50150, Note_on_c, 2, 72, 45
1, 50150, Note_on_c, 2, 63, 63
1, 50262, Note_on_c, 2, 71, 58
1, 50311, Note_on_c, 2, 72, 0
1, 50312, Note_on_c, 2, 72, 57
1, 50316, Note_on_c, 2, 71, 0
1, 50328, Note_on_c, 2, 63, 0
1, 50366, Note_on_c, 2, 63, 66
1, 50366, Note_on_c, 2, 74, 63
1, 50378, Note_on_c, 2, 72, 0
1, 50416, Note_on_c, 2, 72, 55
1, 50420, Note_on_c, 2, 74, 0
1, 50475, Note_on_c, 2, 71, 45
1, 50478, Note_on_c, 2, 72, 0
1, 50520, Note_on_c, 2, 72, 48
1, 50541, Note_on_c, 2, 63, 0
1, 50542, Note_on_c, 2, 71, 0
1, 50578, Note_on_c, 2, 63, 54
1, 50578, Note_on_c, 2, 75, 54
1, 50600, Note_on_c, 2, 75, 0
1, 50608, Note_on_c, 2, 72, 0
1, 50628, Note_on_c, 2, 74, 55
1, 50654, Note_on_c, 2, 63, 0
1, 50679, Note_on_c, 2, 74, 0
1, 50683, Note_on_c, 2, 43, 60
1, 50683, Note_on_c, 2, 63, 56
1, 50683, Note_on_c, 2, 71, 66
1, 50687, Note_on_c, 2, 42, 0
1, 50820, Note_on_c, 2, 63, 0
1, 50832, Note_on_c, 2, 71, 0
1, 50883, Note_on_c, 2, 72, 63
1, 50883, Note_on_c, 2, 63, 59
1, 50946, Note_on_c, 2, 43, 0
1, 50987, Note_on_c, 2, 43, 65
1, 51037, Note_on_c, 2, 43, 0
1, 51091, Note_on_c, 2, 43, 72
1, 51133, Note_on_c, 2, 43, 0
1, 51200, Note_on_c, 2, 43, 66
1, 51233, Note_on_c, 2, 43, 0
1, 51312, Note_on_c, 2, 44, 96
1, 51391, Note_on_c, 2, 63, 0
1, 51400, Note_on_c, 2, 72, 0
1, 51428, Note_on_c, 2, 72, 55
1, 51428, Note_on_c, 2, 63, 62
1, 51479, Note_on_c, 2, 63, 0
1, 51491, Note_on_c, 2, 72, 0
1, 51533, Note_on_c, 2, 63, 59
1, 51533, Note_on_c, 2, 72, 53
1, 51571, Note_on_c, 2, 63, 0
1, 51583, Note_on_c, 2, 72, 0
1, 51646, Note_on_c, 2, 72, 51
1, 51646, Note_on_c, 2, 63, 51
1, 51687, Note_on_c, 2, 44, 0
1, 51704, Note_on_c, 2, 63, 0
1, 51704, Note_on_c, 2, 72, 0
1, 51758, Note_on_c, 2, 72, 53
1, 51759, Note_on_c, 2, 45, 54
1, 51759, Note_on_c, 2, 63, 53
1, 51833, Note_on_c, 2, 63, 0
1, 51846, Note_on_c, 2, 72, 0
1, 51883, Note_on_c, 2, 63, 36
1, 51883, Note_on_c, 2, 72, 53
1, 51904, Note_on_c, 2, 45, 0
1, 51920, Note_on_c, 2, 72, 0
1, 51941, Note_on_c, 2, 63, 0
1, 52000, Note_on_c, 2, 46, 37
1, 52000, Note_on_c, 2, 63, 43
1, 52000, Note_on_c, 2, 73, 56
1, 52096, Note_on_c, 2, 73, 0
1, 52174, Note_on_c, 2, 72, 55
1, 52204, Note_on_c, 2, 70, 41
1, 52208, Note_on_c, 2, 72, 0
1, 52216, Note_on_c, 2, 63, 0
1, 52237, Note_on_c, 2, 68, 43
1, 52254, Note_on_c, 2, 70, 0
1, 52271, Note_on_c, 2, 49, 39
1, 52271, Note_on_c, 2, 63, 40
1, 52271, Note_on_c, 2, 67, 56
1, 52279, Note_on_c, 2, 68, 0
1, 52295, Note_on_c, 2, 46, 0
1, 52312, Note_on_c, 2, 63, 0
1, 52312, Note_on_c, 2, 67, 0
1, 52383, Note_on_c, 2, 79, 52
1, 52412, Note_on_c, 2, 49, 0
1, 52421, Note_on_c, 2, 79, 0
1, 52500, Note_on_c, 2, 80, 53
1, 52504, Note_on_c, 2, 48, 36
1, 52621, Note_on_c, 2, 72, 56
1, 52625, Note_on_c, 2, 80, 0
1, 52629, Note_on_c, 2, 48, 0
1, 52654, Note_on_c, 2, 72, 0
1, 52746, Note_on_c, 2, 49, 47
1, 52804, Note_on_c, 2, 70, 45
1, 52862, Note_on_c, 2, 73, 35
1, 52866, Note_on_c, 2, 49, 0
1, 52921, Note_on_c, 2, 77, 42
1, 52929, Note_on_c, 2, 73, 0
1, 52954, Note_on_c, 2, 70, 0
1, 52992, Note_on_c, 2, 68, 45
1, 52992, Note_on_c, 2, 51, 36
1, 52992, Note_on_c, 2, 60, 27
1, 52995, Note_on_c, 2, 77, 0
1, 53125, Note_on_c, 2, 60, 0
1, 53125, Note_on_c, 2, 51, 0
1, 53258, Note_on_c, 2, 51, 34
1, 53258, Note_on_c, 2, 61, 37
1, 53396, Note_on_c, 2, 51, 0
1, 53396, Note_on_c, 2, 72, 40
1, 53396, Note_on_c, 2, 67, 40
1, 53404, Note_on_c, 2, 68, 0
1, 53437, Note_on_c, 2, 61, 0
1, 53475, Note_on_c, 2, 70, 40
1, 53479, Note_on_c, 2, 72, 0
1, 53488, Note_on_c, 2, 67, 0
1, 53542, Note_on_c, 2, 68, 41
1, 53542, Note_on_c, 2, 56, 36
1, 53558, Note_on_c, 2, 70, 0
1, 53621, Note_on_c, 2, 60, 33
1, 53676, Note_on_c, 2, 60, 0
1, 53676, Note_on_c, 2, 63, 31
1, 53725, Note_on_c, 2, 56, 0
1, 53725, Note_on_c, 2, 60, 45
1, 53750, Note_on_c, 2, 63, 0
1, 53775, Note_on_c, 2, 60, 0
1, 53783, Note_on_c, 2, 68, 0
1, 53784, Note_on_c, 2, 56, 39
1, 53838, Note_on_c, 2, 60, 40
1, 53888, Note_on_c, 2, 60, 0
1, 53892, Note_on_c, 2, 72, 49
1, 53892, Note_on_c, 2, 63, 31
1, 53892, Note_on_c, 2, 68, 35
1, 53946, Note_on_c, 2, 56, 0
1, 53950, Note_on_c, 2, 60, 40
1, 53955, Note_on_c, 2, 72, 0
1, 53967, Note_on_c, 2, 68, 0
1, 53975, Note_on_c, 2, 63, 0
1, 53992, Note_on_c, 2, 60, 0
1, 54009, Note_on_c, 2, 72, 46
1, 54009, Note_on_c, 2, 68, 35
1, 54009, Note_on_c, 2, 56, 36
1, 54067, Note_on_c, 2, 72, 0
1, 54067, Note_on_c, 2, 60, 28
1, 54075, Note_on_c, 2, 68, 0
1, 54121, Note_on_c, 2, 60, 0
1, 54130, Note_on_c, 2, 68, 37
1, 54130, Note_on_c, 2, 63, 27
1, 54130, Note_on_c, 2, 72, 51
1, 54180, Note_on_c, 2, 56, 0
1, 54188, Note_on_c, 2, 60, 39
1, 54196, Note_on_c, 2, 72, 0
1, 54197, Note_on_c, 2, 68, 0
1, 54213, Note_on_c, 2, 63, 0
1, 54234, Note_on_c, 2, 60, 0
1, 54267, Note_on_c, 2, 72, 45
1, 54267, Note_on_c, 2, 70, 34
1, 54267, Note_on_c, 2, 77, 45
1, 54267, Note_on_c, 2, 55, 41
1, 54346, Note_on_c, 2, 58, 38
1, 54380, Note_on_c, 2, 70, 0
1, 54396, Note_on_c, 2, 72, 0
1, 54408, Note_on_c, 2, 77, 0
1, 54413, Note_on_c, 2, 58, 0
1, 54413, Note_on_c, 2, 76, 56
1, 54413, Note_on_c, 2, 72, 39
1, 54413, Note_on_c, 2, 70, 36
1, 54413, Note_on_c, 2, 60, 34
1, 54462, Note_on_c, 2, 55, 0
1, 54467, Note_on_c, 2, 58, 45
1, 54500, Note_on_c, 2, 60, 0
1, 54517, Note_on_c, 2, 58, 0
1, 54517, Note_on_c, 2, 55, 40
1, 54561, Note_on_c, 2, 70, 0
1, 54575, Note_on_c, 2, 58, 36
1, 54576, Note_on_c, 2, 72, 0
1, 54634, Note_on_c, 2, 70, 31
1, 54634, Note_on_c, 2, 72, 52
1, 54634, Note_on_c, 2, 60, 37
1, 54638, Note_on_c, 2, 58, 0
1, 54643, Note_on_c, 2, 76, 0
1, 54688, Note_on_c, 2, 55, 0
1, 54688, Note_on_c, 2, 58, 46
1, 54713, Note_on_c, 2, 70, 0
1, 54713, Note_on_c, 2, 72, 0
1, 54734, Note_on_c, 2, 60, 0
1, 54734, Note_on_c, 2, 58, 0
1, 54742, Note_on_c, 2, 55, 38
1, 54742, Note_on_c, 2, 70, 40
1, 54742, Note_on_c, 2, 72, 49
1, 54805, Note_on_c, 2, 58, 34
1, 54809, Note_on_c, 2, 72, 0
1, 54812, Note_on_c, 2, 70, 0
1, 54863, Note_on_c, 2, 60, 25
1, 54863, Note_on_c, 2, 70, 35
1, 54863, Note_on_c, 2, 72, 39
1, 54872, Note_on_c, 2, 58, 0
1, 54913, Note_on_c, 2, 55, 0
1, 54930, Note_on_c, 2, 72, 0
1, 54930, Note_on_c, 2, 58, 34
1, 54942, Note_on_c, 2, 70, 0
1, 54992, Note_on_c, 2, 58, 0
1, 54996, Note_on_c, 2, 60, 0
1, 55008, Note_on_c, 2, 79, 58
1, 55008, Note_on_c, 2, 53, 32
1, 55008, Note_on_c, 2, 68, 35
1, 55008, Note_on_c, 2, 72, 35
1, 55076, Note_on_c, 2, 56, 36
1, 55116, Note_on_c, 2, 72, 0
1, 55116, Note_on_c, 2, 68, 0
1, 55122, Note_on_c, 2, 79, 0
1, 55134, Note_on_c, 2, 77, 57
1, 55134, Note_on_c, 2, 72, 40
1, 55134, Note_on_c, 2, 68, 35
1, 55134, Note_on_c, 2, 60, 28
1, 55138, Note_on_c, 2, 56, 0
1, 55188, Note_on_c, 2, 56, 33
1, 55202, Note_on_c, 2, 53, 0
1, 55238, Note_on_c, 2, 60, 0
1, 55238, Note_on_c, 2, 56, 0
1, 55242, Note_on_c, 2, 53, 40
1, 55255, Note_on_c, 2, 68, 0
1, 55259, Note_on_c, 2, 72, 0
1, 55296, Note_on_c, 2, 56, 28
1, 55346, Note_on_c, 2, 77, 0
1, 55346, Note_on_c, 2, 60, 36
1, 55346, Note_on_c, 2, 68, 28
1, 55346, Note_on_c, 2, 72, 51
1, 55359, Note_on_c, 2, 56, 0
1, 55401, Note_on_c, 2, 56, 39
1, 55405, Note_on_c, 2, 53, 0
1, 55422, Note_on_c, 2, 72, 0
1, 55422, Note_on_c, 2, 68, 0
1, 55451, Note_on_c, 2, 60, 0
1, 55451, Note_on_c, 2, 56, 0
1, 55459, Note_on_c, 2, 53, 30
1, 55460, Note_on_c, 2, 72, 46
1, 55464, Note_on_c, 2, 68, 32
1, 55518, Note_on_c, 2, 56, 32
1, 55525, Note_on_c, 2, 68, 0
1, 55530, Note_on_c, 2, 72, 0
1, 55580, Note_on_c, 2, 72, 47
1, 55580, Note_on_c, 2, 68, 32
1, 55584, Note_on_c, 2, 56, 0
1, 55584, Note_on_c, 2, 60, 22
1, 55638, Note_on_c, 2, 53, 0
1, 55646, Note_on_c, 2, 56, 24
1, 55654, Note_on_c, 2, 72, 0
1, 55659, Note_on_c, 2, 68, 0
1, 55701, Note_on_c, 2, 60, 0
1, 55717, Note_on_c, 2, 72, 45
1, 55717, Note_on_c, 2, 51, 34
1, 55718, Note_on_c, 2, 80, 59
1, 55718, Note_on_c, 2, 68, 34
1, 55721, Note_on_c, 2, 56, 0
1, 55801, Note_on_c, 2, 54, 26
1, 55834, Note_on_c, 2, 68, 0
1, 55838, Note_on_c, 2, 72, 0
1, 55850, Note_on_c, 2, 80, 0
1, 55859, Note_on_c, 2, 54, 0
1, 55863, Note_on_c, 2, 78, 62
1, 55863, Note_on_c, 2, 56, 33
1, 55863, Note_on_c, 2, 68, 36
1, 55863, Note_on_c, 2, 72, 40
1, 55922, Note_on_c, 2, 54, 34
1, 55925, Note_on_c, 2, 51, 0
1, 55972, Note_on_c, 2, 54, 0
1, 55980, Note_on_c, 2, 51, 39
1, 55992, Note_on_c, 2, 56, 0
1, 56034, Note_on_c, 2, 54, 39
1, 56043, Note_on_c, 2, 72, 0
1, 56043, Note_on_c, 2, 68, 0
1, 56084, Note_on_c, 2, 54, 0
1, 56088, Note_on_c, 2, 56, 36
1, 56088, Note_on_c, 2, 68, 40
1, 56088, Note_on_c, 2, 72, 52
1, 56105, Note_on_c, 2, 78, 0
1, 56142, Note_on_c, 2, 54, 38
1, 56147, Note_on_c, 2, 51, 0
1, 56151, Note_on_c, 2, 72, 0
1, 56154, Note_on_c, 2, 68, 0
1, 56192, Note_on_c, 2, 54, 0
1, 56197, Note_on_c, 2, 51, 40
1, 56197, Note_on_c, 2, 72, 54
1, 56201, Note_on_c, 2, 68, 36
1, 56205, Note_on_c, 2, 56, 0
1, 56255, Note_on_c, 2, 54, 36
1, 56264, Note_on_c, 2, 72, 0
1, 56267, Note_on_c, 2, 68, 0
1, 56301, Note_on_c, 2, 54, 0
1, 56305, Note_on_c, 2, 68, 40
1, 56305, Note_on_c, 2, 72, 46
1, 56309, Note_on_c, 2, 56, 34
1, 56355, Note_on_c, 2, 72, 0
1, 56367, Note_on_c, 2, 51, 0
1, 56368, Note_on_c, 2, 54, 37
1, 56384, Note_on_c, 2, 68, 0
1, 56405, Note_on_c, 2, 54, 0
1, 56434, Note_on_c, 2, 49, 36
1, 56434, Note_on_c, 2, 68, 36
1, 56434, Note_on_c, 2, 73, 48
1, 56434, Note_on_c, 2, 78, 47
1, 56455, Note_on_c, 2, 56, 0
1, 56501, Note_on_c, 2, 52, 33
1, 56525, Note_on_c, 2, 68, 0
1, 56526, Note_on_c, 2, 78, 0
1, 56530, Note_on_c, 2, 73, 0
1, 56551, Note_on_c, 2, 52, 0
1, 56551, Note_on_c, 2, 76, 53
1, 56551, Note_on_c, 2, 73, 45
1, 56551, Note_on_c, 2, 68, 34
1, 56551, Note_on_c, 2, 56, 30
1, 56610, Note_on_c, 2, 52, 28
1, 56614, Note_on_c, 2, 49, 0
1, 56659, Note_on_c, 2, 52, 0
1, 56663, Note_on_c, 2, 49, 44
1, 56671, Note_on_c, 2, 76, 0
1, 56684, Note_on_c, 2, 56, 0
1, 56718, Note_on_c, 2, 73, 0
1, 56718, Note_on_c, 2, 52, 40
1, 56738, Note_on_c, 2, 68, 0
1, 56772, Note_on_c, 2, 52, 0
1, 56772, Note_on_c, 2, 56, 46
1, 56772, Note_on_c, 2, 68, 46
1, 56772, Note_on_c, 2, 76, 59
1, 56822, Note_on_c, 2, 52, 49
1, 56830, Note_on_c, 2, 49, 0
1, 56843, Note_on_c, 2, 76, 0
1, 56843, Note_on_c, 2, 68, 0
1, 56876, Note_on_c, 2, 47, 52
1, 56876, Note_on_c, 2, 68, 40
1, 56876, Note_on_c, 2, 76, 55
1, 56888, Note_on_c, 2, 52, 0
1, 56938, Note_on_c, 2, 56, 0
1, 56938, Note_on_c, 2, 52, 47
1, 56955, Note_on_c, 2, 68, 0
1, 56997, Note_on_c, 2, 76, 0
1, 56997, Note_on_c, 2, 56, 40
1, 56997, Note_on_c, 2, 68, 44
1, 56997, Note_on_c, 2, 75, 62
1, 57005, Note_on_c, 2, 52, 0
1, 57043, Note_on_c, 2, 47, 0
1, 57068, Note_on_c, 2, 75, 0
1, 57072, Note_on_c, 2, 56, 0
1, 57085, Note_on_c, 2, 68, 0
1, 57130, Note_on_c, 2, 46, 70
1, 57130, Note_on_c, 2, 53, 70
1, 57130, Note_on_c, 2, 68, 70
1, 57130, Note_on_c, 2, 75, 70
1, 57242, Note_on_c, 2, 68, 0
1, 57247, Note_on_c, 2, 75, 0
1, 57301, Note_on_c, 2, 77, 38
1, 57326, Note_on_c, 2, 75, 42
1, 57338, Note_on_c, 2, 77, 0
1, 57356, Note_on_c, 2, 74, 70
1, 57364, Note_on_c, 2, 75, 0
1, 57372, Note_on_c, 2, 74, 0
1, 57375, Note_on_c, 2, 46, 0
1, 57380, Note_on_c, 2, 53, 0
1, 57472, Note_on_c, 2, 46, 56
1, 57472, Note_on_c, 2, 53, 48
1, 57472, Note_on_c, 2, 62, 54
1, 57472, Note_on_c, 2, 68, 63
1, 57519, Note_on_c, 2, 46, 0
1, 57523, Note_on_c, 2, 68, 0
1, 57523, Note_on_c, 2, 62, 0
1, 57549, Note_on_c, 2, 53, 0
1, 57589, Note_on_c, 2, 46, 55
1, 57589, Note_on_c, 2, 53, 47
1, 57589, Note_on_c, 2, 68, 54
1, 57589, Note_on_c, 2, 62, 47
1, 57635, Note_on_c, 2, 53, 0
1, 57636, Note_on_c, 2, 68, 0
1, 57639, Note_on_c, 2, 62, 0
1, 57640, Note_on_c, 2, 46, 0
1, 57711, Note_on_c, 2, 46, 36
1, 57711, Note_on_c, 2, 53, 40
1, 57711, Note_on_c, 2, 62, 45
1, 57711, Note_on_c, 2, 68, 51
1, 57753, Note_on_c, 2, 46, 0
1, 57757, Note_on_c, 2, 68, 0
1, 57761, Note_on_c, 2, 53, 0
1, 57762, Note_on_c, 2, 62, 0
1, 57843, Note_on_c, 2, 68, 45
1, 57843, Note_on_c, 2, 53, 27
1, 57847, Note_on_c, 2, 62, 37
1, 57848, Note_on_c, 2, 46, 28
1, 57939, Note_on_c, 2, 62, 0
1, 57955, Note_on_c, 2, 68, 0
1, 57976, Note_on_c, 2, 46, 0
1, 57989, Note_on_c, 2, 53, 0
1, 58286, Note_on_c, 2, 58, 44
1, 58286, Note_on_c, 2, 65, 25
1, 58286, Note_on_c, 2, 74, 42
1, 58286, Note_on_c, 2, 80, 46
1, 58366, Note_on_c, 2, 80, 0
1, 58366, Note_on_c, 2, 58, 0
1, 58366, Note_on_c, 2, 65, 0
1, 58366, Note_on_c, 2, 74, 0
1, 58398, Note_on_c, 2, 58, 28
1, 58398, Note_on_c, 2, 65, 28
1, 58398, Note_on_c, 2, 74, 39
1, 58398, Note_on_c, 2, 80, 40
1, 58478, Note_on_c, 2, 80, 0
1, 58478, Note_on_c, 2, 58, 0
1, 58478, Note_on_c, 2, 65, 0
1, 58478, Note_on_c, 2, 74, 0
1, 58526, Note_on_c, 2, 80, 38
1, 58526, Note_on_c, 2, 58, 31
1, 58526, Note_on_c, 2, 65, 21
1, 58526, Note_on_c, 2, 74, 32
1, 58606, Note_on_c, 2, 74, 0
1, 58606, Note_on_c, 2, 80, 0
1, 58606, Note_on_c, 2, 58, 0
1, 58606, Note_on_c, 2, 65, 0
1, 58681, Note_on_c, 2, 58, 34
1, 58681, Note_on_c, 2, 65, 18
1, 58681, Note_on_c, 2, 74, 28
1, 58681, Note_on_c, 2, 80, 40
1, 58710, Note_on_c, 2, 74, 0
1, 58714, Note_on_c, 2, 80, 0
1, 58752, Note_on_c, 2, 82, 57
1, 58764, Note_on_c, 2, 80, 44
1, 58772, Note_on_c, 2, 82, 0
1, 58777, Note_on_c, 2, 80, 0
1, 58777, Note_on_c, 2, 79, 45
1, 58797, Note_on_c, 2, 80, 44
1, 58810, Note_on_c, 2, 82, 53
1, 58814, Note_on_c, 2, 79, 0
1, 58831, Note_on_c, 2, 80, 0
1, 58876, Note_on_c, 2, 84, 45
1, 58881, Note_on_c, 2, 82, 0
1, 58939, Note_on_c, 2, 82, 46
1, 58951, Note_on_c, 2, 84, 0
1, 59010, Note_on_c, 2, 80, 36
1, 59022, Note_on_c, 2, 82, 0
1, 59085, Note_on_c, 2, 79, 45
1, 59089, Note_on_c, 2, 80, 0
1, 59131, Note_on_c, 2, 79, 0
1, 59164, Note_on_c, 2, 77, 40
1, 59252, Note_on_c, 2, 75, 37
1, 59256, Note_on_c, 2, 77, 0
1, 59364, Note_on_c, 2, 74, 38
1, 59377, Note_on_c, 2, 75, 0
1, 59485, Note_on_c, 2, 74, 0
1, 59485, Note_on_c, 2, 72, 36
1, 59611, Note_on_c, 2, 65, 0
1, 59622, Note_on_c, 2, 72, 0
1, 59627, Note_on_c, 2, 70, 38
1, 59660, Note_on_c, 2, 58, 0
1, 59702, Note_on_c, 2, 70, 0
1, 60011, Note_on_c, 2, 67, 48
1, 60011, Note_on_c, 2, 70, 59
1, 60011, Note_on_c, 2, 51, 40
1, 60177, Note_on_c, 2, 72, 52
1, 60185, Note_on_c, 2, 70, 0
1, 60211, Note_on_c, 2, 70, 41
1, 60219, Note_on_c, 2, 72, 0
1, 60247, Note_on_c, 2, 67, 0
1, 60248, Note_on_c, 2, 65, 31
1, 60248, Note_on_c, 2, 68, 56
1, 60260, Note_on_c, 2, 70, 0
1, 60315, Note_on_c, 2, 65, 0
1, 60319, Note_on_c, 2, 68, 0
1, 60357, Note_on_c, 2, 67, 59
1, 60357, Note_on_c, 2, 63, 46
1, 60424, Note_on_c, 2, 63, 0
1, 60424, Note_on_c, 2, 67, 0
1, 60469, Note_on_c, 2, 72, 55
1, 60469, Note_on_c, 2, 68, 49
1, 60502, Note_on_c, 2, 72, 0
1, 60519, Note_on_c, 2, 68, 0
1, 60535, Note_on_c, 2, 51, 0
1, 60589, Note_on_c, 2, 67, 55
1, 60589, Note_on_c, 2, 70, 56
1, 60656, Note_on_c, 2, 67, 0
1, 60661, Note_on_c, 2, 70, 0
1, 60703, Note_on_c, 2, 51, 57
1, 60703, Note_on_c, 2, 67, 52
1, 60703, Note_on_c, 2, 70, 55
1, 60761, Note_on_c, 2, 55, 56
1, 60782, Note_on_c, 2, 51, 0
1, 60823, Note_on_c, 2, 58, 56
1, 60869, Note_on_c, 2, 70, 0
1, 60873, Note_on_c, 2, 55, 0
1, 60873, Note_on_c, 2, 51, 59
1, 60873, Note_on_c, 2, 72, 55
1, 60890, Note_on_c, 2, 51, 0
1, 60898, Note_on_c, 2, 58, 0
1, 60906, Note_on_c, 2, 67, 0
1, 60906, Note_on_c, 2, 70, 55
1, 60914, Note_on_c, 2, 72, 0
1, 60936, Note_on_c, 2, 65, 52
1, 60936, Note_on_c, 2, 68, 70
1, 60936, Note_on_c, 2, 53, 50
1, 60948, Note_on_c, 2, 70, 0
1, 60994, Note_on_c, 2, 56, 56
1, 61052, Note_on_c, 2, 62, 54
1, 61056, Note_on_c, 2, 53, 0
1, 61073, Note_on_c, 2, 56, 0
1, 61111, Note_on_c, 2, 53, 57
1, 61127, Note_on_c, 2, 53, 0
1, 61127, Note_on_c, 2, 62, 0
1, 61147, Note_on_c, 2, 65, 0
1, 61165, Note_on_c, 2, 67, 53
1, 61165, Note_on_c, 2, 55, 52
1, 61177, Note_on_c, 2, 68, 0
1, 61223, Note_on_c, 2, 58, 50
1, 61277, Note_on_c, 2, 55, 0
1, 61277, Note_on_c, 2, 63, 52
1, 61311, Note_on_c, 2, 58, 0
1, 61336, Note_on_c, 2, 63, 0
1, 61336, Note_on_c, 2, 55, 51
1, 61377, Note_on_c, 2, 55, 0
1, 61390, Note_on_c, 2, 60, 49
1, 61390, Note_on_c, 2, 56, 43
1, 61402, Note_on_c, 2, 67, 0
1, 61448, Note_on_c, 2, 64, 45
1, 61507, Note_on_c, 2, 65, 45
1, 61544, Note_on_c, 2, 64, 0
1, 61565, Note_on_c, 2, 67, 45
1, 61577, Note_on_c, 2, 65, 0
1, 61623, Note_on_c, 2, 68, 44
1, 61631, Note_on_c, 2, 67, 0
1, 61673, Note_on_c, 2, 68, 0
1, 61681, Note_on_c, 2, 69, 40
1, 61744, Note_on_c, 2, 70, 34
1, 61748, Note_on_c, 2, 69, 0
1, 61807, Note_on_c, 2, 70, 0
1, 61807, Note_on_c, 2, 71, 40
1, 61832, Note_on_c, 2, 56, 0
1, 61832, Note_on_c, 2, 60, 0
1, 61877, Note_on_c, 2, 56, 35
1, 61877, Note_on_c, 2, 60, 31
1, 61877, Note_on_c, 2, 74, 55
1, 61906, Note_on_c, 2, 71, 0
1, 61923, Note_on_c, 2, 72, 46
1, 61935, Note_on_c, 2, 74, 0
1, 61949, Note_on_c, 2, 72, 0
1, 61949, Note_on_c, 2, 71, 31
1, 61977, Note_on_c, 2, 71, 0
1, 61977, Note_on_c, 2, 72, 51
1, 62007, Note_on_c, 2, 70, 63
1, 62015, Note_on_c, 2, 72, 0
1, 62027, Note_on_c, 2, 60, 0
1, 62035, Note_on_c, 2, 68, 54
1, 62047, Note_on_c, 2, 56, 0
1, 62049, Note_on_c, 2, 70, 0
1, 62065, Note_on_c, 2, 67, 41
1, 62069, Note_on_c, 2, 68, 0
1, 62090, Note_on_c, 2, 67, 0
1, 62099, Note_on_c, 2, 65, 56
1, 62111, Note_on_c, 2, 65, 0
1, 62140, Note_on_c, 2, 45, 49
1, 62140, Note_on_c, 2, 55, 45
1, 62140, Note_on_c, 2, 63, 45
1, 62199, Note_on_c, 2, 46, 48
1, 62215, Note_on_c, 2, 45, 0
1, 62249, Note_on_c, 2, 48, 55
1, 62252, Note_on_c, 2, 46, 0
1, 62290, Note_on_c, 2, 63, 0
1, 62307, Note_on_c, 2, 48, 0
1, 62307, Note_on_c, 2, 46, 46
1, 62311, Note_on_c, 2, 55, 0
1, 62332, Note_on_c, 2, 46, 0
1, 62361, Note_on_c, 2, 46, 51
1, 62361, Note_on_c, 2, 53, 47
1, 62361, Note_on_c, 2, 62, 56
1, 62386, Note_on_c, 2, 53, 0
1, 62390, Note_on_c, 2, 58, 68
1, 62415, Note_on_c, 2, 58, 0
1, 62419, Note_on_c, 2, 57, 54
1, 62440, Note_on_c, 2, 57, 0
1, 62444, Note_on_c, 2, 62, 0
1, 62444, Note_on_c, 2, 58, 70
1, 62465, Note_on_c, 2, 58, 0
1, 62469, Note_on_c, 2, 59, 68
1, 62494, Note_on_c, 2, 60, 63
1, 62502, Note_on_c, 2, 59, 0
1, 62519, Note_on_c, 2, 61, 62
1, 62527, Note_on_c, 2, 60, 0
1, 62545, Note_on_c, 2, 61, 0
1, 62545, Note_on_c, 2, 62, 54
1, 62569, Note_on_c, 2, 62, 0
1, 62569, Note_on_c, 2, 63, 70
1, 62590, Note_on_c, 2, 63, 0
1, 62594, Note_on_c, 2, 64, 56
1, 62619, Note_on_c, 2, 65, 55
1, 62623, Note_on_c, 2, 64, 0
1, 62644, Note_on_c, 2, 66, 62
1, 62648, Note_on_c, 2, 65, 0
1, 62665, Note_on_c, 2, 66, 0
1, 62669, Note_on_c, 2, 67, 54
1, 62690, Note_on_c, 2, 67, 0
1, 62694, Note_on_c, 2, 68, 68
1, 62719, Note_on_c, 2, 68, 0
1, 62728, Note_on_c, 2, 69, 53
1, 62739, Note_on_c, 2, 46, 0
1, 62748, Note_on_c, 2, 69, 0
1, 62748, Note_on_c, 2, 70, 66
1, 62765, Note_on_c, 2, 70, 0
1, 62781, Note_on_c, 2, 67, 41
1, 62782, Note_on_c, 2, 39, 71
1, 62782, Note_on_c, 2, 51, 72
1, 62782, Note_on_c, 2, 70, 75
1, 62886, Note_on_c, 2, 70, 0
1, 62899, Note_on_c, 2, 67, 0
1, 62936, Note_on_c, 2, 72, 66
1, 62961, Note_on_c, 2, 70, 68
1, 62973, Note_on_c, 2, 72, 0
1, 62991, Note_on_c, 2, 68, 48
1, 62998, Note_on_c, 2, 70, 0
1, 63007, Note_on_c, 2, 67, 44
1, 63023, Note_on_c, 2, 68, 0
1, 63039, Note_on_c, 2, 72, 36
1, 63056, Note_on_c, 2, 72, 0
1, 63057, Note_on_c, 2, 70, 59
1, 63065, Note_on_c, 2, 70, 0
1, 63065, Note_on_c, 2, 67, 0
1, 63095, Note_on_c, 2, 75, 52
1, 63119, Note_on_c, 2, 74, 46
1, 63123, Note_on_c, 2, 39, 0
1, 63127, Note_on_c, 2, 75, 0
1, 63136, Note_on_c, 2, 51, 0
1, 63144, Note_on_c, 2, 74, 0
1, 63153, Note_on_c, 2, 77, 35
1, 63174, Note_on_c, 2, 77, 0
1, 63174, Note_on_c, 2, 75, 56
1, 63190, Note_on_c, 2, 75, 0
1, 63207, Note_on_c, 2, 51, 45
1, 63207, Note_on_c, 2, 60, 56
1, 63207, Note_on_c, 2, 80, 65
1, 63240, Note_on_c, 2, 80, 0
1, 63241, Note_on_c, 2, 79, 54
1, 63261, Note_on_c, 2, 79, 0
1, 63262, Note_on_c, 2, 78, 54
1, 63282, Note_on_c, 2, 79, 65
1, 63291, Note_on_c, 2, 78, 0
1, 63307, Note_on_c, 2, 77, 54
1, 63315, Note_on_c, 2, 79, 0
1, 63336, Note_on_c, 2, 75, 55
1, 63348, Note_on_c, 2, 77, 0
1, 63348, Note_on_c, 2, 51, 0
1, 63357, Note_on_c, 2, 74, 63
1, 63374, Note_on_c, 2, 75, 0
1, 63377, Note_on_c, 2, 72, 70
1, 63378, Note_on_c, 2, 60, 0
1, 63382, Note_on_c, 2, 74, 0
1, 63407, Note_on_c, 2, 70, 100
1, 63407, Note_on_c, 2, 60, 47
1, 63407, Note_on_c, 2, 53, 47
1, 63415, Note_on_c, 2, 72, 0
1, 63519, Note_on_c, 2, 70, 0
1, 63520, Note_on_c, 2, 69, 72
1, 63573, Note_on_c, 2, 60, 0
1, 63574, Note_on_c, 2, 53, 0
1, 63628, Note_on_c, 2, 62, 48
1, 63628, Note_on_c, 2, 58, 49
1, 63694, Note_on_c, 2, 62, 0
1, 63695, Note_on_c, 2, 58, 0
1, 63699, Note_on_c, 2, 69, 0
1, 63733, Note_on_c, 2, 59, 53
1, 63733, Note_on_c, 2, 62, 45
1, 63733, Note_on_c, 2, 68, 53
1, 63762, Note_on_c, 2, 62, 0
1, 63766, Note_on_c, 2, 59, 0
1, 63824, Note_on_c, 2, 68, 0
1, 63840, Note_on_c, 2, 60, 47
1, 63840, Note_on_c, 2, 63, 38
1, 63895, Note_on_c, 2, 67, 51
1, 63953, Note_on_c, 2, 55, 40
1, 63953, Note_on_c, 2, 75, 40
1, 63975, Note_on_c, 2, 60, 0
1, 64003, Note_on_c, 2, 55, 0
1, 64004, Note_on_c, 2, 67, 0
1, 64004, Note_on_c, 2, 73, 45
1, 64011, Note_on_c, 2, 75, 0
1, 64024, Note_on_c, 2, 63, 0
1, 64057, Note_on_c, 2, 73, 0
1, 64061, Note_on_c, 2, 56, 42
1, 64061, Note_on_c, 2, 63, 36
1, 64061, Note_on_c, 2, 71, 39
1, 64120, Note_on_c, 2, 72, 45
1, 64141, Note_on_c, 2, 71, 0
1, 64178, Note_on_c, 2, 72, 0
1, 64178, Note_on_c, 2, 74, 43
1, 64182, Note_on_c, 2, 63, 0
1, 64198, Note_on_c, 2, 56, 0
1, 64232, Note_on_c, 2, 74, 0
1, 64240, Note_on_c, 2, 75, 28
1, 64261, Note_on_c, 2, 75, 0
1, 64315, Note_on_c, 2, 46, 28
1, 64315, Note_on_c, 2, 55, 22
1, 64315, Note_on_c, 2, 75, 36
1, 64441, Note_on_c, 2, 70, 32
1, 64449, Note_on_c, 2, 75, 0
1, 64469, Note_on_c, 2, 55, 0
1, 64474, Note_on_c, 2, 46, 0
1, 64574, Note_on_c, 2, 46, 35
1, 64574, Note_on_c, 2, 56, 28
1, 64649, Note_on_c, 2, 70, 0
1, 64653, Note_on_c, 2, 72, 47
1, 64691, Note_on_c, 2, 70, 49
1, 64695, Note_on_c, 2, 72, 0
1, 64708, Note_on_c, 2, 70, 0
1, 64724, Note_on_c, 2, 46, 0
1, 64724, Note_on_c, 2, 70, 46
1, 64757, Note_on_c, 2, 56, 0
1, 64761, Note_on_c, 2, 68, 32
1, 64774, Note_on_c, 2, 70, 0
1, 64790, Note_on_c, 2, 68, 0
1, 64791, Note_on_c, 2, 67, 42
1, 64837, Note_on_c, 2, 65, 40
1, 64845, Note_on_c, 2, 67, 0
1, 64891, Note_on_c, 2, 51, 49
1, 64891, Note_on_c, 2, 63, 40
1, 64895, Note_on_c, 2, 65, 0
1, 64970, Note_on_c, 2, 55, 45
1, 65033, Note_on_c, 2, 55, 0
1, 65033, Note_on_c, 2, 58, 41
1, 65074, Note_on_c, 2, 51, 0
1, 65091, Note_on_c, 2, 55, 40
1, 65116, Note_on_c, 2, 58, 0
1, 65132, Note_on_c, 2, 55, 0
1, 65137, Note_on_c, 2, 63, 0
1, 65141, Note_on_c, 2, 51, 45
1, 65195, Note_on_c, 2, 55, 42
1, 65253, Note_on_c, 2, 55, 0
1, 65254, Note_on_c, 2, 58, 35
1, 65254, Note_on_c, 2, 67, 33
1, 65254, Note_on_c, 2, 70, 42
1, 65303, Note_on_c, 2, 51, 0
1, 65311, Note_on_c, 2, 55, 38
1, 65325, Note_on_c, 2, 67, 0
1, 65332, Note_on_c, 2, 70, 0
1, 65370, Note_on_c, 2, 55, 0
1, 65378, Note_on_c, 2, 51, 37
1, 65378, Note_on_c, 2, 67, 29
1, 65378, Note_on_c, 2, 70, 34
1, 65399, Note_on_c, 2, 58, 0
1, 65435, Note_on_c, 2, 55, 45
1, 65436, Note_on_c, 2, 67, 0
1, 65437, Note_on_c, 2, 70, 0
1, 65461, Note_on_c, 2, 51, 0
1, 65483, Note_on_c, 2, 67, 25
1, 65483, Note_on_c, 2, 51, 5
1, 65483, Note_on_c, 2, 58, 36
1, 65483, Note_on_c, 2, 70, 38
1, 65501, Note_on_c, 2, 55, 0
1, 65512, Note_on_c, 2, 67, 0
1, 65520, Note_on_c, 2, 70, 0
1, 65537, Note_on_c, 2, 51, 0
1, 65541, Note_on_c, 2, 55, 36
1, 65595, Note_on_c, 2, 55, 0
1, 65599, Note_on_c, 2, 58, 0
1, 65600, Note_on_c, 2, 75, 49
1, 65600, Note_on_c, 2, 68, 38
1, 65600, Note_on_c, 2, 51, 46
1, 65658, Note_on_c, 2, 53, 41
1, 65720, Note_on_c, 2, 74, 55
1, 65720, Note_on_c, 2, 56, 46
1, 65724, Note_on_c, 2, 53, 0
1, 65724, Note_on_c, 2, 75, 0
1, 65750, Note_on_c, 2, 68, 0
1, 65775, Note_on_c, 2, 51, 0
1, 65775, Note_on_c, 2, 53, 45
1, 65833, Note_on_c, 2, 53, 0
1, 65833, Note_on_c, 2, 56, 0
1, 65837, Note_on_c, 2, 51, 39
1, 65891, Note_on_c, 2, 53, 42
1, 65953, Note_on_c, 2, 53, 0
1, 65954, Note_on_c, 2, 56, 40
1, 65954, Note_on_c, 2, 82, 45
1, 66008, Note_on_c, 2, 51, 0
1, 66008, Note_on_c, 2, 80, 44
1, 66008, Note_on_c, 2, 53, 47
1, 66028, Note_on_c, 2, 74, 0
1, 66033, Note_on_c, 2, 80, 0
1, 66033, Note_on_c, 2, 82, 0
1, 66046, Note_on_c, 2, 56, 0
1, 66053, Note_on_c, 2, 53, 0
1, 66066, Note_on_c, 2, 51, 36
1, 66066, Note_on_c, 2, 79, 45
1, 66120, Note_on_c, 2, 79, 0
1, 66125, Note_on_c, 2, 53, 37
1, 66125, Note_on_c, 2, 77, 45
1, 66183, Note_on_c, 2, 56, 46
1, 66183, Note_on_c, 2, 75, 35
1, 66188, Note_on_c, 2, 53, 0
1, 66191, Note_on_c, 2, 77, 0
1, 66237, Note_on_c, 2, 51, 0
1, 66237, Note_on_c, 2, 74, 40
1, 66237, Note_on_c, 2, 53, 58
1, 66241, Note_on_c, 2, 75, 0
1, 66262, Note_on_c, 2, 53, 0
1, 66266, Note_on_c, 2, 56, 0
1, 66291, Note_on_c, 2, 51, 40
1, 66291, Note_on_c, 2, 77, 56
1, 66292, Note_on_c, 2, 74, 0
1, 66312, Note_on_c, 2, 77, 0
1, 66312, Note_on_c, 2, 75, 59
1, 66325, Note_on_c, 2, 75, 0
1, 66325, Note_on_c, 2, 77, 55
1, 66341, Note_on_c, 2, 75, 54
1, 66349, Note_on_c, 2, 77, 0
1, 66354, Note_on_c, 2, 55, 47
1, 66379, Note_on_c, 2, 51, 0
1, 66408, Note_on_c, 2, 55, 0
1, 66412, Note_on_c, 2, 75, 0
1, 66413, Note_on_c, 2, 58, 42
1, 66466, Note_on_c, 2, 55, 40
1, 66467, Note_on_c, 2, 74, 42
1, 66483, Note_on_c, 2, 58, 0
1, 66491, Note_on_c, 2, 72, 40
1, 66503, Note_on_c, 2, 74, 0
1, 66516, Note_on_c, 2, 55, 0
1, 66520, Note_on_c, 2, 51, 35
1, 66520, Note_on_c, 2, 70, 63
1, 66528, Note_on_c, 2, 72, 0
1, 66575, Note_on_c, 2, 55, 32
1, 66600, Note_on_c, 2, 51, 0
1, 66604, Note_on_c, 2, 70, 0
1, 66637, Note_on_c, 2, 55, 0
1, 66638, Note_on_c, 2, 58, 38
1, 66638, Note_on_c, 2, 67, 44
1, 66638, Note_on_c, 2, 70, 45
1, 66696, Note_on_c, 2, 55, 40
1, 66708, Note_on_c, 2, 67, 0
1, 66712, Note_on_c, 2, 70, 0
1, 66717, Note_on_c, 2, 58, 0
1, 66754, Note_on_c, 2, 55, 0
1, 66759, Note_on_c, 2, 67, 38
1, 66759, Note_on_c, 2, 70, 35
1, 66759, Note_on_c, 2, 51, 39
1, 66808, Note_on_c, 2, 55, 41
1, 66817, Note_on_c, 2, 67, 0
1, 66821, Note_on_c, 2, 70, 0
1, 66825, Note_on_c, 2, 51, 0
1, 66867, Note_on_c, 2, 70, 40
1, 66867, Note_on_c, 2, 67, 39
1, 66867, Note_on_c, 2, 58, 38
1, 66870, Note_on_c, 2, 55, 0
1, 66883, Note_on_c, 2, 51, 5
1, 66900, Note_on_c, 2, 51, 0
1, 66900, Note_on_c, 2, 67, 0
1, 66901, Note_on_c, 2, 70, 0
1, 66925, Note_on_c, 2, 55, 32
1, 66954, Note_on_c, 2, 58, 0
1, 66979, Note_on_c, 2, 55, 0
1, 66983, Note_on_c, 2, 75, 46
1, 66983, Note_on_c, 2, 68, 39
1, 66983, Note_on_c, 2, 51, 37
1, 67046, Note_on_c, 2, 53, 46
1, 67079, Note_on_c, 2, 74, 59
1, 67083, Note_on_c, 2, 75, 0
1, 67087, Note_on_c, 2, 68, 0
1, 67096, Note_on_c, 2, 74, 0
1, 67112, Note_on_c, 2, 53, 0
1, 67116, Note_on_c, 2, 56, 41
1, 67116, Note_on_c, 2, 84, 65
1, 67175, Note_on_c, 2, 51, 0
1, 67175, Note_on_c, 2, 53, 40
1, 67217, Note_on_c, 2, 56, 0
1, 67225, Note_on_c, 2, 53, 0
1, 67233, Note_on_c, 2, 51, 44
1, 67291, Note_on_c, 2, 53, 36
1, 67312, Note_on_c, 2, 84, 0
1, 67345, Note_on_c, 2, 53, 0
1, 67354, Note_on_c, 2, 56, 36
1, 67354, Note_on_c, 2, 82, 40
1, 67375, Note_on_c, 2, 80, 45
1, 67383, Note_on_c, 2, 82, 0
1, 67396, Note_on_c, 2, 51, 0
1, 67404, Note_on_c, 2, 80, 0
1, 67404, Note_on_c, 2, 53, 35
1, 67404, Note_on_c, 2, 84, 54
1, 67437, Note_on_c, 2, 56, 0
1, 67437, Note_on_c, 2, 80, 50
1, 67445, Note_on_c, 2, 84, 0
1, 67446, Note_on_c, 2, 53, 0
1, 67463, Note_on_c, 2, 51, 36
1, 67463, Note_on_c, 2, 79, 53
1, 67470, Note_on_c, 2, 80, 0
1, 67483, Note_on_c, 2, 77, 51
1, 67491, Note_on_c, 2, 79, 0
1, 67504, Note_on_c, 2, 77, 0
1, 67513, Note_on_c, 2, 53, 46
1, 67513, Note_on_c, 2, 80, 43
1, 67533, Note_on_c, 2, 80, 0
1, 67533, Note_on_c, 2, 77, 47
1, 67554, Note_on_c, 2, 77, 0
1, 67555, Note_on_c, 2, 53, 0
1, 67567, Note_on_c, 2, 56, 35
1, 67567, Note_on_c, 2, 75, 40
1, 67595, Note_on_c, 2, 75, 0
1, 67596, Note_on_c, 2, 74, 40
1, 67613, Note_on_c, 2, 56, 0
1, 67616, Note_on_c, 2, 74, 0
1, 67616, Note_on_c, 2, 53, 35
1, 67616, Note_on_c, 2, 77, 48
1, 67646, Note_on_c, 2, 74, 53
1, 67647, Note_on_c, 2, 51, 0
1, 67654, Note_on_c, 2, 77, 0
1, 67675, Note_on_c, 2, 75, 56
1, 67675, Note_on_c, 2, 51, 46
1, 67675, Note_on_c, 2, 55, 46
1, 67676, Note_on_c, 2, 53, 0
1, 67683, Note_on_c, 2, 74, 0
1, 67699, Note_on_c, 2, 75, 0
1, 67725, Note_on_c, 2, 77, 55
1, 67741, Note_on_c, 2, 75, 50
1, 67749, Note_on_c, 2, 77, 0
1, 67758, Note_on_c, 2, 75, 0
1, 67763, Note_on_c, 2, 74, 57
1, 67783, Note_on_c, 2, 75, 55
1, 67808, Note_on_c, 2, 77, 52
1, 67816, Note_on_c, 2, 74, 0
1, 67817, Note_on_c, 2, 75, 0
1, 67837, Note_on_c, 2, 78, 54
1, 67845, Note_on_c, 2, 77, 0
1, 67862, Note_on_c, 2, 79, 56
1, 67867, Note_on_c, 2, 78, 0
1, 67887, Note_on_c, 2, 79, 0
1, 67896, Note_on_c, 2, 70, 63
1, 67903, Note_on_c, 2, 51, 0
1, 67908, Note_on_c, 2, 55, 0
1, 67917, Note_on_c, 2, 70, 0
1, 68004, Note_on_c, 2, 70, 55
1, 68004, Note_on_c, 2, 67, 54
1, 68004, Note_on_c, 2, 58, 45
1, 68004, Note_on_c, 2, 55, 47
1, 68046, Note_on_c, 2, 58, 0
1, 68109, Note_on_c, 2, 56, 55
1, 68109, Note_on_c, 2, 65, 47
1, 68109, Note_on_c, 2, 68, 54
1, 68112, Note_on_c, 2, 67, 0
1, 68117, Note_on_c, 2, 55, 0
1, 68125, Note_on_c, 2, 70, 0
1, 68175, Note_on_c, 2, 65, 0
1, 68217, Note_on_c, 2, 63, 63
1, 68217, Note_on_c, 2, 57, 56
1, 68217, Note_on_c, 2, 67, 55
1, 68220, Note_on_c, 2, 56, 0
1, 68225, Note_on_c, 2, 68, 0
1, 68296, Note_on_c, 2, 67, 0
1, 68296, Note_on_c, 2, 63, 0
1, 68313, Note_on_c, 2, 57, 0
1, 68325, Note_on_c, 2, 63, 56
1, 68325, Note_on_c, 2, 70, 59
1, 68325, Note_on_c, 2, 58, 51
1, 68369, Note_on_c, 2, 63, 0
1, 68379, Note_on_c, 2, 69, 52
1, 68413, Note_on_c, 2, 69, 0
1, 68417, Note_on_c, 2, 70, 0
1, 68438, Note_on_c, 2, 70, 65
1, 68488, Note_on_c, 2, 70, 0
1, 68488, Note_on_c, 2, 67, 56
1, 68542, Note_on_c, 2, 67, 0
1, 68546, Note_on_c, 2, 62, 66
1, 68546, Note_on_c, 2, 65, 70
1, 68596, Note_on_c, 2, 59, 56
1, 68609, Note_on_c, 2, 58, 0
1, 68650, Note_on_c, 2, 59, 0
1, 68650, Note_on_c, 2, 60, 66
1, 68705, Note_on_c, 2, 58, 66
1, 68713, Note_on_c, 2, 60, 0
1, 68721, Note_on_c, 2, 58, 0
1, 68759, Note_on_c, 2, 58, 72
1, 68813, Note_on_c, 2, 56, 63
1, 68821, Note_on_c, 2, 58, 0
1, 68854, Note_on_c, 2, 56, 0
1, 68867, Note_on_c, 2, 55, 53
1, 68883, Note_on_c, 2, 62, 0
1, 68891, Note_on_c, 2, 65, 0
1, 68913, Note_on_c, 2, 55, 0
1, 68921, Note_on_c, 2, 53, 48
1, 68963, Note_on_c, 2, 53, 0
1, 68967, Note_on_c, 2, 70, 59
1, 68984, Note_on_c, 2, 51, 68
1, 68984, Note_on_c, 2, 82, 68
1, 69092, Note_on_c, 2, 55, 55
1, 69102, Note_on_c, 2, 51, 0
1, 69159, Note_on_c, 2, 70, 0
1, 69204, Note_on_c, 2, 58, 56
1, 69209, Note_on_c, 2, 55, 0
1, 69305, Note_on_c, 2, 63, 40
1, 69305, Note_on_c, 2, 80, 48
1, 69313, Note_on_c, 2, 58, 0
1, 69317, Note_on_c, 2, 82, 0
1, 69321, Note_on_c, 2, 63, 0
1, 69334, Note_on_c, 2, 80, 0
1, 69338, Note_on_c, 2, 79, 36
1, 69359, Note_on_c, 2, 77, 59
1, 69367, Note_on_c, 2, 79, 0
1, 69384, Note_on_c, 2, 75, 70
1, 69388, Note_on_c, 2, 77, 0
1, 69409, Note_on_c, 2, 75, 0
1, 69413, Note_on_c, 2, 74, 56
1, 69413, Note_on_c, 2, 68, 54
1, 69413, Note_on_c, 2, 65, 57
1, 69450, Note_on_c, 2, 65, 0
1, 69463, Note_on_c, 2, 68, 0
1, 69500, Note_on_c, 2, 74, 0
1, 69523, Note_on_c, 2, 63, 45
1, 69523, Note_on_c, 2, 67, 47
1, 69523, Note_on_c, 2, 75, 50
1, 69548, Note_on_c, 2, 67, 0
1, 69553, Note_on_c, 2, 63, 0
1, 69575, Note_on_c, 2, 75, 0
1, 69621, Note_on_c, 2, 62, 48
1, 69621, Note_on_c, 2, 77, 51
1, 69621, Note_on_c, 2, 65, 41
1, 69621, Note_on_c, 2, 74, 51
1, 69655, Note_on_c, 2, 62, 0
1, 69657, Note_on_c, 2, 77, 0
1, 69671, Note_on_c, 2, 65, 0
1, 69684, Note_on_c, 2, 74, 0
1, 69738, Note_on_c, 2, 63, 53
1, 69738, Note_on_c, 2, 67, 44
1, 69738, Note_on_c, 2, 80, 51
1, 69759, Note_on_c, 2, 79, 52
1, 69767, Note_on_c, 2, 67, 0
1, 69776, Note_on_c, 2, 80, 0
1, 69784, Note_on_c, 2, 63, 0
1, 69788, Note_on_c, 2, 79, 0
1, 69792, Note_on_c, 2, 77, 51
1, 69813, Note_on_c, 2, 79, 41
1, 69817, Note_on_c, 2, 77, 0
1, 69846, Note_on_c, 2, 79, 0
1, 69847, Note_on_c, 2, 77, 70
1, 69847, Note_on_c, 2, 80, 57
1, 69847, Note_on_c, 2, 62, 53
1, 69847, Note_on_c, 2, 65, 47
1, 69918, Note_on_c, 2, 77, 0
1, 69942, Note_on_c, 2, 80, 0
1, 69954, Note_on_c, 2, 70, 66
1, 69984, Note_on_c, 2, 70, 0
1, 70059, Note_on_c, 2, 65, 0
1, 70063, Note_on_c, 2, 70, 60
1, 70067, Note_on_c, 2, 62, 0
1, 70084, Note_on_c, 2, 70, 0
1, 70175, Note_on_c, 2, 70, 56
1, 70201, Note_on_c, 2, 70, 0
1, 70284, Note_on_c, 2, 80, 83
1, 70393, Note_on_c, 2, 58, 57
1, 70496, Note_on_c, 2, 62, 57
1, 70597, Note_on_c, 2, 65, 55
1, 70601, Note_on_c, 2, 82, 49
1, 70605, Note_on_c, 2, 80, 0
1, 70613, Note_on_c, 2, 58, 0
1, 70613, Note_on_c, 2, 62, 0
1, 70630, Note_on_c, 2, 65, 0
1, 70630, Note_on_c, 2, 80, 44
1, 70634, Note_on_c, 2, 82, 0
1, 70647, Note_on_c, 2, 79, 39
1, 70676, Note_on_c, 2, 79, 0
1, 70676, Note_on_c, 2, 77, 52
1, 70684, Note_on_c, 2, 80, 0
1, 70705, Note_on_c, 2, 77, 0
1, 70705, Note_on_c, 2, 75, 63
1, 70705, Note_on_c, 2, 67, 53
1, 70747, Note_on_c, 2, 67, 0
1, 70775, Note_on_c, 2, 75, 0
1, 70805, Note_on_c, 2, 70, 55
1, 70805, Note_on_c, 2, 68, 57
1, 70805, Note_on_c, 2, 77, 60
1, 70846, Note_on_c, 2, 68, 0
1, 70851, Note_on_c, 2, 70, 0
1, 70880, Note_on_c, 2, 77, 0
1, 70918, Note_on_c, 2, 79, 54
1, 70918, Note_on_c, 2, 75, 48
1, 70918, Note_on_c, 2, 70, 40
1, 70918, Note_on_c, 2, 67, 49
1, 70942, Note_on_c, 2, 67, 0
1, 70942, Note_on_c, 2, 70, 0
1, 70947, Note_on_c, 2, 79, 0
1, 70980, Note_on_c, 2, 75, 0
1, 71034, Note_on_c, 2, 65, 45
1, 71034, Note_on_c, 2, 68, 40
1, 71034, Note_on_c, 2, 82, 52
1, 71051, Note_on_c, 2, 80, 65
1, 71063, Note_on_c, 2, 82, 0
1, 71084, Note_on_c, 2, 80, 0
1, 71085, Note_on_c, 2, 65, 0
1, 71088, Note_on_c, 2, 68, 0
1, 71088, Note_on_c, 2, 79, 69
1, 71109, Note_on_c, 2, 80, 69
1, 71113, Note_on_c, 2, 79, 0
1, 71143, Note_on_c, 2, 82, 66
1, 71143, Note_on_c, 2, 79, 65
1, 71143, Note_on_c, 2, 67, 48
1, 71143, Note_on_c, 2, 63, 53
1, 71147, Note_on_c, 2, 80, 0
1, 71160, Note_on_c, 2, 67, 0
1, 71167, Note_on_c, 2, 63, 0
1, 71255, Note_on_c, 2, 51, 70
1, 71255, Note_on_c, 2, 39, 70
1, 71301, Note_on_c, 2, 39, 0
1, 71302, Note_on_c, 2, 51, 0
1, 71368, Note_on_c, 2, 39, 70
1, 71368, Note_on_c, 2, 51, 70
1, 71418, Note_on_c, 2, 51, 0
1, 71427, Note_on_c, 2, 39, 0
1, 71452, Note_on_c, 2, 82, 0
1, 71459, Note_on_c, 2, 79, 0
1, 71488, Note_on_c, 2, 39, 70
1, 71488, Note_on_c, 2, 51, 70
1, 71583, Note_on_c, 2, 39, 0
1, 71593, Note_on_c, 2, 51, 0
1, 71617, Note_on_c, 2, 73, 88
1, 71735, Note_on_c, 2, 55, 55
1, 71735, Note_on_c, 2, 63, 53
1, 71826, Note_on_c, 2, 63, 0
1, 71827, Note_on_c, 2, 55, 0
1, 71859, Note_on_c, 2, 63, 53
1, 71859, Note_on_c, 2, 55, 56
1, 71880, Note_on_c, 2, 73, 0
1, 71905, Note_on_c, 2, 75, 50
1, 71917, Note_on_c, 2, 73, 70
1, 71926, Note_on_c, 2, 55, 0
1, 71926, Note_on_c, 2, 63, 0
1, 71934, Note_on_c, 2, 75, 0
1, 71943, Note_on_c, 2, 73, 0
1, 71943, Note_on_c, 2, 72, 53
1, 71967, Note_on_c, 2, 73, 55
1, 71977, Note_on_c, 2, 75, 51
1, 71977, Note_on_c, 2, 55, 47
1, 71977, Note_on_c, 2, 63, 40
1, 71984, Note_on_c, 2, 72, 0
1, 71993, Note_on_c, 2, 73, 0
1, 72035, Note_on_c, 2, 77, 64
1, 72042, Note_on_c, 2, 75, 0
1, 72056, Note_on_c, 2, 55, 0
1, 72057, Note_on_c, 2, 63, 0
1, 72097, Note_on_c, 2, 55, 45
1, 72097, Note_on_c, 2, 63, 37
1, 72097, Note_on_c, 2, 75, 68
1, 72105, Note_on_c, 2, 77, 0
1, 72159, Note_on_c, 2, 73, 60
1, 72171, Note_on_c, 2, 63, 0
1, 72172, Note_on_c, 2, 75, 0
1, 72172, Note_on_c, 2, 55, 0
1, 72219, Note_on_c, 2, 55, 49
1, 72219, Note_on_c, 2, 63, 38
1, 72219, Note_on_c, 2, 72, 53
1, 72222, Note_on_c, 2, 73, 0
1, 72268, Note_on_c, 2, 72, 0
1, 72276, Note_on_c, 2, 71, 55
1, 72297, Note_on_c, 2, 71, 0
1, 72339, Note_on_c, 2, 71, 68
1, 72401, Note_on_c, 2, 63, 0
1, 72402, Note_on_c, 2, 55, 0
1, 72451, Note_on_c, 2, 63, 41
1, 72451, Note_on_c, 2, 55, 46
1, 72506, Note_on_c, 2, 55, 0
1, 72506, Note_on_c, 2, 63, 0
1, 72572, Note_on_c, 2, 63, 45
1, 72572, Note_on_c, 2, 56, 55
1, 72635, Note_on_c, 2, 72, 59
1, 72668, Note_on_c, 2, 63, 0
1, 72702, Note_on_c, 2, 71, 0
1, 72702, Note_on_c, 2, 72, 0
1, 72702, Note_on_c, 2, 63, 52
1, 72702, Note_on_c, 2, 75, 52
1, 72759, Note_on_c, 2, 74, 52
1, 72776, Note_on_c, 2, 63, 0
1, 72780, Note_on_c, 2, 56, 0
1, 72780, Note_on_c, 2, 75, 0
1, 72822, Note_on_c, 2, 63, 32
1, 72823, Note_on_c, 2, 56, 45
1, 72823, Note_on_c, 2, 77, 54
1, 72839, Note_on_c, 2, 74, 0
1, 72880, Note_on_c, 2, 56, 0
1, 72889, Note_on_c, 2, 77, 0
1, 72889, Note_on_c, 2, 75, 45
1, 72914, Note_on_c, 2, 63, 0
1, 72959, Note_on_c, 2, 57, 46
1, 72959, Note_on_c, 2, 63, 42
1, 72959, Note_on_c, 2, 74, 44
1, 72989, Note_on_c, 2, 75, 0
1, 73026, Note_on_c, 2, 74, 0
1, 73027, Note_on_c, 2, 72, 51
1, 73043, Note_on_c, 2, 72, 0
1, 73051, Note_on_c, 2, 57, 0
1, 73055, Note_on_c, 2, 63, 0
1, 73110, Note_on_c, 2, 70, 53
1, 73110, Note_on_c, 2, 63, 52
1, 73110, Note_on_c, 2, 58, 53
1, 73155, Note_on_c, 2, 70, 0
1, 73155, Note_on_c, 2, 71, 46
1, 73201, Note_on_c, 2, 72, 42
1, 73209, Note_on_c, 2, 63, 0
1, 73247, Note_on_c, 2, 73, 44
1, 73247, Note_on_c, 2, 63, 32
1, 73251, Note_on_c, 2, 72, 0
1, 73255, Note_on_c, 2, 71, 0
1, 73268, Note_on_c, 2, 63, 0
1, 73276, Note_on_c, 2, 58, 0
1, 73293, Note_on_c, 2, 74, 50
1, 73297, Note_on_c, 2, 73, 0
1, 73343, Note_on_c, 2, 74, 0
1, 73343, Note_on_c, 2, 75, 45
1, 73364, Note_on_c, 2, 75, 0
1, 73397, Note_on_c, 2, 46, 46
1, 73397, Note_on_c, 2, 55, 40
1, 73397, Note_on_c, 2, 75, 40
1, 73459, Note_on_c, 2, 63, 53
1, 73485, Note_on_c, 2, 75, 0
1, 73518, Note_on_c, 2, 55, 0
1, 73576, Note_on_c, 2, 55, 55
1, 73588, Note_on_c, 2, 46, 0
1, 73618, Note_on_c, 2, 55, 0
1, 73734, Note_on_c, 2, 63, 0
1, 73739, Note_on_c, 2, 46, 39
1, 73739, Note_on_c, 2, 56, 39
1, 73739, Note_on_c, 2, 62, 40
1, 73739, Note_on_c, 2, 67, 48
1, 73831, Note_on_c, 2, 65, 40
1, 73839, Note_on_c, 2, 62, 0
1, 73847, Note_on_c, 2, 67, 0
1, 73868, Note_on_c, 2, 56, 0
1, 73909, Note_on_c, 2, 65, 0
1, 73910, Note_on_c, 2, 63, 37
1, 73914, Note_on_c, 2, 56, 27
1, 73960, Note_on_c, 2, 46, 0
1, 73993, Note_on_c, 2, 63, 0
1, 73993, Note_on_c, 2, 65, 40
1, 74010, Note_on_c, 2, 56, 0
1, 74073, Note_on_c, 2, 63, 39
1, 74077, Note_on_c, 2, 65, 0
1, 74156, Note_on_c, 2, 51, 40
1, 74223, Note_on_c, 2, 55, 41
1, 74252, Note_on_c, 2, 51, 0
1, 74285, Note_on_c, 2, 58, 36
1, 74297, Note_on_c, 2, 55, 0
1, 74348, Note_on_c, 2, 56, 49
1, 74356, Note_on_c, 2, 58, 0
1, 74372, Note_on_c, 2, 63, 0
1, 74434, Note_on_c, 2, 58, 49
1, 74443, Note_on_c, 2, 56, 0
1, 74513, Note_on_c, 2, 58, 0
1, 74515, Note_on_c, 2, 70, 55
1, 74515, Note_on_c, 2, 63, 41
1, 74515, Note_on_c, 2, 55, 46
1, 74577, Note_on_c, 2, 58, 41
1, 74589, Note_on_c, 2, 70, 0
1, 74602, Note_on_c, 2, 63, 0
1, 74627, Note_on_c, 2, 55, 0
1, 74631, Note_on_c, 2, 58, 0
1, 74631, Note_on_c, 2, 53, 53
1, 74631, Note_on_c, 2, 65, 49
1, 74631, Note_on_c, 2, 70, 53
1, 74681, Note_on_c, 2, 53, 0
1, 74685, Note_on_c, 2, 65, 0
1, 74689, Note_on_c, 2, 58, 37
1, 74693, Note_on_c, 2, 70, 0
1, 74739, Note_on_c, 2, 51, 45
1, 74739, Note_on_c, 2, 67, 32
1, 74739, Note_on_c, 2, 70, 36
1, 74748, Note_on_c, 2, 58, 0
1, 74797, Note_on_c, 2, 67, 0
1, 74798, Note_on_c, 2, 58, 40
1, 74801, Note_on_c, 2, 51, 0
1, 74810, Note_on_c, 2, 70, 0
1, 74835, Note_on_c, 2, 58, 0
1, 74856, Note_on_c, 2, 50, 47
1, 74856, Note_on_c, 2, 68, 46
1, 74857, Note_on_c, 2, 70, 45
1, 74919, Note_on_c, 2, 53, 41
1, 74977, Note_on_c, 2, 56, 38
1, 74985, Note_on_c, 2, 50, 0
1, 74989, Note_on_c, 2, 53, 0
1, 75001, Note_on_c, 2, 68, 0
1, 75002, Note_on_c, 2, 70, 0
1, 75006, Note_on_c, 2, 72, 45
1, 75031, Note_on_c, 2, 55, 37
1, 75031, Note_on_c, 2, 70, 51
1, 75040, Note_on_c, 2, 72, 0
1, 75040, Note_on_c, 2, 56, 0
1, 75056, Note_on_c, 2, 69, 46
1, 75064, Note_on_c, 2, 70, 0
1, 75090, Note_on_c, 2, 53, 36
1, 75090, Note_on_c, 2, 70, 45
1, 75094, Note_on_c, 2, 55, 0
1, 75102, Note_on_c, 2, 69, 0
1, 75157, Note_on_c, 2, 51, 37
1, 75168, Note_on_c, 2, 53, 0
1, 75168, Note_on_c, 2, 70, 0
1, 75219, Note_on_c, 2, 50, 51
1, 75219, Note_on_c, 2, 62, 42
1, 75219, Note_on_c, 2, 70, 46
1, 75239, Note_on_c, 2, 51, 0
1, 75264, Note_on_c, 2, 50, 0
1, 75277, Note_on_c, 2, 48, 36
1, 75285, Note_on_c, 2, 62, 0
1, 75297, Note_on_c, 2, 48, 0
1, 75319, Note_on_c, 2, 70, 0
1, 75331, Note_on_c, 2, 63, 50
1, 75331, Note_on_c, 2, 72, 56
1, 75331, Note_on_c, 2, 46, 40
1, 75377, Note_on_c, 2, 46, 0
1, 75390, Note_on_c, 2, 48, 47
1, 75406, Note_on_c, 2, 63, 0
1, 75411, Note_on_c, 2, 48, 0
1, 75419, Note_on_c, 2, 72, 0
1, 75444, Note_on_c, 2, 44, 66
1, 75444, Note_on_c, 2, 74, 59
1, 75444, Note_on_c, 2, 65, 42
1, 75503, Note_on_c, 2, 46, 36
1, 75506, Note_on_c, 2, 65, 0
1, 75510, Note_on_c, 2, 74, 0
1, 75515, Note_on_c, 2, 44, 0
1, 75527, Note_on_c, 2, 46, 0
1, 75569, Note_on_c, 2, 43, 67
1, 75569, Note_on_c, 2, 67, 36
1, 75569, Note_on_c, 2, 75, 45
1, 75631, Note_on_c, 2, 46, 57
1, 75694, Note_on_c, 2, 51, 55
1, 75702, Note_on_c, 2, 43, 0
1, 75723, Note_on_c, 2, 77, 43
1, 75735, Note_on_c, 2, 75, 0
1, 75744, Note_on_c, 2, 46, 0
1, 75748, Note_on_c, 2, 79, 40
1, 75748, Note_on_c, 2, 43, 37
1, 75752, Note_on_c, 2, 51, 0
1, 75781, Note_on_c, 2, 75, 40
1, 75790, Note_on_c, 2, 79, 0
1, 75798, Note_on_c, 2, 77, 0
1, 75815, Note_on_c, 2, 43, 0
1, 75819, Note_on_c, 2, 70, 55
1, 75819, Note_on_c, 2, 55, 55
1, 75823, Note_on_c, 2, 75, 0
1, 75835, Note_on_c, 2, 70, 0
1, 75843, Note_on_c, 2, 55, 0
1, 75852, Note_on_c, 2, 67, 0
1, 75941, Note_on_c, 2, 51, 42
1, 75941, Note_on_c, 2, 55, 46
1, 75941, Note_on_c, 2, 67, 28
1, 75941, Note_on_c, 2, 70, 49
1, 75983, Note_on_c, 2, 55, 0
1, 75987, Note_on_c, 2, 51, 0
1, 76002, Note_on_c, 2, 67, 0
1, 76015, Note_on_c, 2, 70, 0
1, 76056, Note_on_c, 2, 68, 45
1, 76057, Note_on_c, 2, 65, 38
1, 76057, Note_on_c, 2, 56, 36
1, 76057, Note_on_c, 2, 53, 40
1, 76106, Note_on_c, 2, 53, 0
1, 76110, Note_on_c, 2, 56, 0
1, 76111, Note_on_c, 2, 68, 0
1, 76119, Note_on_c, 2, 65, 0
1, 76181, Note_on_c, 2, 63, 43
1, 76181, Note_on_c, 2, 67, 45
1, 76181, Note_on_c, 2, 58, 28
1, 76181, Note_on_c, 2, 55, 32
1, 76227, Note_on_c, 2, 63, 0
1, 76231, Note_on_c, 2, 67, 0
1, 76231, Note_on_c, 2, 58, 0
1, 76231, Note_on_c, 2, 55, 0
1, 76311, Note_on_c, 2, 65, 45
1, 76311, Note_on_c, 2, 60, 43
1, 76315, Note_on_c, 2, 56, 29
1, 76473, Note_on_c, 2, 67, 32
1, 76498, Note_on_c, 2, 68, 41
1, 76515, Note_on_c, 2, 67, 0
1, 76530, Note_on_c, 2, 65, 41
1, 76548, Note_on_c, 2, 68, 0
1, 76554, Note_on_c, 2, 65, 0
1, 76559, Note_on_c, 2, 60, 0
1, 76569, Note_on_c, 2, 72, 57
1, 76581, Note_on_c, 2, 65, 0
1, 76598, Note_on_c, 2, 72, 0
1, 76598, Note_on_c, 2, 56, 0
1, 76698, Note_on_c, 2, 44, 49
1, 76698, Note_on_c, 2, 53, 41
1, 76698, Note_on_c, 2, 60, 46
1, 76698, Note_on_c, 2, 68, 52
1, 76732, Note_on_c, 2, 68, 0
1, 76732, Note_on_c, 2, 44, 0
1, 76744, Note_on_c, 2, 53, 0
1, 76757, Note_on_c, 2, 60, 0
1, 76815, Note_on_c, 2, 46, 45
1, 76815, Note_on_c, 2, 55, 38
1, 76815, Note_on_c, 2, 58, 48
1, 76815, Note_on_c, 2, 63, 44
1, 76852, Note_on_c, 2, 46, 0
1, 76857, Note_on_c, 2, 55, 0
1, 76865, Note_on_c, 2, 63, 0
1, 76869, Note_on_c, 2, 58, 0
1, 76945, Note_on_c, 2, 46, 40
1, 76945, Note_on_c, 2, 56, 40
1, 76945, Note_on_c, 2, 62, 43
1, 76945, Note_on_c, 2, 65, 54
1, 76978, Note_on_c, 2, 46, 0
1, 76994, Note_on_c, 2, 62, 0
1, 77003, Note_on_c, 2, 56, 0
1, 77003, Note_on_c, 2, 65, 0
1, 77086, Note_on_c, 2, 65, 55
1, 77086, Note_on_c, 2, 62, 54
1, 77086, Note_on_c, 2, 56, 50
1, 77086, Note_on_c, 2, 51, 59
1, 77273, Note_on_c, 2, 66, 46
1, 77298, Note_on_c, 2, 51, 0
1, 77307, Note_on_c, 2, 56, 0
1, 77308, Note_on_c, 2, 62, 0
1, 77315, Note_on_c, 2, 65, 0
1, 77315, Note_on_c, 2, 66, 0
1, 77337, Note_on_c, 2, 67, 54
1, 77337, Note_on_c, 2, 63, 52
1, 77337, Note_on_c, 2, 55, 42
1, 77337, Note_on_c, 2, 51, 46
1, 77379, Note_on_c, 2, 67, 0
1, 77380, Note_on_c, 2, 51, 0
1, 77380, Note_on_c, 2, 55, 0
1, 77387, Note_on_c, 2, 63, 0
1, 77403, Note_on_c, 2, 63, 47
1, 77467, Note_on_c, 2, 67, 45
1, 77467, Note_on_c, 2, 75, 45
1, 77467, Note_on_c, 2, 82, 55
1, 77495, Note_on_c, 2, 63, 0
1, 77523, Note_on_c, 2, 70, 40
1, 77525, Note_on_c, 2, 67, 0
1, 77541, Note_on_c, 2, 82, 0
1, 77542, Note_on_c, 2, 75, 0
1, 77573, Note_on_c, 2, 68, 47
1, 77573, Note_on_c, 2, 77, 52
1, 77573, Note_on_c, 2, 82, 54
1, 77628, Note_on_c, 2, 70, 0
1, 77628, Note_on_c, 2, 67, 45
1, 77640, Note_on_c, 2, 77, 0
1, 77644, Note_on_c, 2, 82, 0
1, 77648, Note_on_c, 2, 68, 0
1, 77661, Note_on_c, 2, 67, 0
1, 77690, Note_on_c, 2, 65, 53
1, 77690, Note_on_c, 2, 79, 56
1, 77690, Note_on_c, 2, 82, 55
1, 77710, Note_on_c, 2, 65, 0
1, 77727, Note_on_c, 2, 79, 0
1, 77740, Note_on_c, 2, 82, 0
1, 77744, Note_on_c, 2, 63, 65
1, 77791, Note_on_c, 2, 63, 0
1, 77803, Note_on_c, 2, 80, 63
1, 77803, Note_on_c, 2, 82, 68
1, 77803, Note_on_c, 2, 62, 53
1, 77865, Note_on_c, 2, 65, 41
1, 77894, Note_on_c, 2, 62, 0
1, 77919, Note_on_c, 2, 65, 0
1, 77919, Note_on_c, 2, 68, 48
1, 77936, Note_on_c, 2, 82, 0
1, 77940, Note_on_c, 2, 80, 0
1, 77945, Note_on_c, 2, 84, 52
1, 77969, Note_on_c, 2, 68, 0
1, 77969, Note_on_c, 2, 67, 45
1, 77969, Note_on_c, 2, 82, 53
1, 77977, Note_on_c, 2, 84, 0
1, 77999, Note_on_c, 2, 81, 52
1, 78003, Note_on_c, 2, 82, 0
1, 78023, Note_on_c, 2, 65, 49
1, 78028, Note_on_c, 2, 82, 68
1, 78031, Note_on_c, 2, 67, 0
1, 78035, Note_on_c, 2, 81, 0
1, 78078, Note_on_c, 2, 63, 37
1, 78086, Note_on_c, 2, 65, 0
1, 78090, Note_on_c, 2, 82, 0
1, 78137, Note_on_c, 2, 62, 54
1, 78137, Note_on_c, 2, 82, 62
1, 78137, Note_on_c, 2, 74, 55
1, 78153, Note_on_c, 2, 63, 0
1, 78195, Note_on_c, 2, 60, 50
1, 78196, Note_on_c, 2, 62, 0
1, 78207, Note_on_c, 2, 74, 0
1, 78245, Note_on_c, 2, 82, 0
1, 78253, Note_on_c, 2, 58, 48
1, 78253, Note_on_c, 2, 75, 56
1, 78253, Note_on_c, 2, 84, 56
1, 78255, Note_on_c, 2, 60, 0
1, 78311, Note_on_c, 2, 60, 46
1, 78319, Note_on_c, 2, 58, 0
1, 78336, Note_on_c, 2, 60, 0
1, 78340, Note_on_c, 2, 75, 0
1, 78353, Note_on_c, 2, 84, 0
1, 78373, Note_on_c, 2, 77, 50
1, 78373, Note_on_c, 2, 56, 42
1, 78373, Note_on_c, 2, 86, 63
1, 78445, Note_on_c, 2, 58, 47
1, 78451, Note_on_c, 2, 77, 0
1, 78461, Note_on_c, 2, 56, 0
1, 78461, Note_on_c, 2, 86, 0
1, 78500, Note_on_c, 2, 58, 0
1, 78515, Note_on_c, 2, 79, 37
1, 78515, Note_on_c, 2, 87, 48
1, 78517, Note_on_c, 2, 55, 39
1, 78578, Note_on_c, 2, 58, 36
1, 78641, Note_on_c, 2, 63, 35
1, 78661, Note_on_c, 2, 55, 0
1, 78670, Note_on_c, 2, 87, 0
1, 78674, Note_on_c, 2, 86, 35
1, 78703, Note_on_c, 2, 58, 0
1, 78703, Note_on_c, 2, 55, 31
1, 78703, Note_on_c, 2, 87, 45
1, 78707, Note_on_c, 2, 63, 0
1, 78711, Note_on_c, 2, 86, 0
1, 78745, Note_on_c, 2, 82, 51
1, 78749, Note_on_c, 2, 79, 0
1, 78757, Note_on_c, 2, 87, 0
1, 78773, Note_on_c, 2, 55, 0
1, 78782, Note_on_c, 2, 82, 0
1, 78782, Note_on_c, 2, 79, 66
1, 78782, Note_on_c, 2, 67, 39
1, 78803, Note_on_c, 2, 67, 0
1, 78811, Note_on_c, 2, 79, 0
1, 78903, Note_on_c, 2, 63, 52
1, 78903, Note_on_c, 2, 79, 48
1, 78903, Note_on_c, 2, 82, 53
1, 78979, Note_on_c, 2, 63, 0
1, 78982, Note_on_c, 2, 79, 0
1, 78991, Note_on_c, 2, 82, 0
1, 79028, Note_on_c, 2, 80, 43
1, 79028, Note_on_c, 2, 65, 40
1, 79028, Note_on_c, 2, 68, 40
1, 79028, Note_on_c, 2, 77, 45
1, 79082, Note_on_c, 2, 65, 0
1, 79082, Note_on_c, 2, 80, 0
1, 79095, Note_on_c, 2, 68, 0
1, 79095, Note_on_c, 2, 77, 0
1, 79157, Note_on_c, 2, 75, 54
1, 79157, Note_on_c, 2, 79, 46
1, 79157, Note_on_c, 2, 70, 43
1, 79157, Note_on_c, 2, 67, 40
1, 79207, Note_on_c, 2, 70, 0
1, 79236, Note_on_c, 2, 67, 0
1, 79240, Note_on_c, 2, 75, 0
1, 79249, Note_on_c, 2, 79, 0
1, 79284, Note_on_c, 2, 68, 45
1, 79284, Note_on_c, 2, 72, 47
1, 79284, Note_on_c, 2, 76, 52
1, 79320, Note_on_c, 2, 77, 49
1, 79337, Note_on_c, 2, 76, 0
1, 79349, Note_on_c, 2, 79, 45
1, 79357, Note_on_c, 2, 77, 0
1, 79378, Note_on_c, 2, 77, 48
1, 79386, Note_on_c, 2, 79, 0
1, 79407, Note_on_c, 2, 80, 52
1, 79411, Note_on_c, 2, 77, 0
1, 79436, Note_on_c, 2, 79, 59
1, 79445, Note_on_c, 2, 80, 0
1, 79469, Note_on_c, 2, 82, 56
1, 79474, Note_on_c, 2, 79, 0
1, 79503, Note_on_c, 2, 80, 45
1, 79507, Note_on_c, 2, 82, 0
1, 79537, Note_on_c, 2, 80, 0
1, 79537, Note_on_c, 2, 84, 66
1, 79608, Note_on_c, 2, 72, 0
1, 79621, Note_on_c, 2, 68, 0
1, 79825, Note_on_c, 2, 82, 65
1, 79825, Note_on_c, 2, 58, 45
1, 79825, Note_on_c, 2, 62, 54
1, 79825, Note_on_c, 2, 68, 40
1, 79832, Note_on_c, 2, 84, 0
1, 79949, Note_on_c, 2, 62, 0
1, 79970, Note_on_c, 2, 65, 40
1, 79984, Note_on_c, 2, 58, 0
1, 79991, Note_on_c, 2, 65, 0
1, 79995, Note_on_c, 2, 68, 0
1, 80025, Note_on_c, 2, 82, 0
1, 80075, Note_on_c, 2, 74, 53
1, 80112, Note_on_c, 2, 75, 65
1, 80116, Note_on_c, 2, 63, 49
1, 80124, Note_on_c, 2, 74, 0
1, 80187, Note_on_c, 2, 67, 40
1, 80249, Note_on_c, 2, 67, 0
1, 80249, Note_on_c, 2, 70, 36
1, 80303, Note_on_c, 2, 63, 0
1, 80307, Note_on_c, 2, 67, 45
1, 80361, Note_on_c, 2, 67, 0
1, 80366, Note_on_c, 2, 63, 45
1, 80378, Note_on_c, 2, 75, 0
1, 80383, Note_on_c, 2, 70, 0
1, 80420, Note_on_c, 2, 67, 45
1, 80457, Note_on_c, 2, 63, 0
1, 80487, Note_on_c, 2, 70, 59
1, 80487, Note_on_c, 2, 85, 72
1, 80499, Note_on_c, 2, 67, 0
1, 80549, Note_on_c, 2, 67, 39
1, 80574, Note_on_c, 2, 70, 0
1, 80578, Note_on_c, 2, 67, 0
1, 80629, Note_on_c, 2, 68, 45
1, 80629, Note_on_c, 2, 84, 48
1, 80641, Note_on_c, 2, 85, 0
1, 80694, Note_on_c, 2, 65, 47
1, 80753, Note_on_c, 2, 86, 55
1, 80754, Note_on_c, 2, 84, 0
1, 80757, Note_on_c, 2, 65, 3
1, 80758, Note_on_c, 2, 70, 40
1, 80777, Note_on_c, 2, 68, 0
1, 80796, Note_on_c, 2, 65, 0
1, 80808, Note_on_c, 2, 65, 0
1, 80816, Note_on_c, 2, 68, 35
1, 80845, Note_on_c, 2, 70, 0
1, 80870, Note_on_c, 2, 68, 0
1, 80870, Note_on_c, 2, 67, 47
1, 80870, Note_on_c, 2, 89, 54
1, 80874, Note_on_c, 2, 86, 0
1, 80929, Note_on_c, 2, 67, 0
1, 80933, Note_on_c, 2, 70, 39
1, 80991, Note_on_c, 2, 67, 39
1, 80991, Note_on_c, 2, 87, 45
1, 80999, Note_on_c, 2, 89, 0
1, 81054, Note_on_c, 2, 65, 55
1, 81062, Note_on_c, 2, 67, 0
1, 81066, Note_on_c, 2, 70, 0
1, 81116, Note_on_c, 2, 63, 65
1, 81128, Note_on_c, 2, 87, 0
1, 81129, Note_on_c, 2, 65, 0
1, 81137, Note_on_c, 2, 63, 0
1, 81174, Note_on_c, 2, 61, 68
1, 81195, Note_on_c, 2, 61, 0
1, 81260, Note_on_c, 2, 58, 57
1, 81260, Note_on_c, 2, 73, 65
1, 81335, Note_on_c, 2, 73, 0
1, 81349, Note_on_c, 2, 58, 0
1, 81360, Note_on_c, 2, 55, 59
1, 81441, Note_on_c, 2, 56, 49
1, 81441, Note_on_c, 2, 72, 54
1, 81474, Note_on_c, 2, 55, 0
1, 81515, Note_on_c, 2, 56, 0
1, 81522, Note_on_c, 2, 53, 48
1, 81546, Note_on_c, 2, 72, 0
1, 81585, Note_on_c, 2, 53, 0
1, 81585, Note_on_c, 2, 58, 55
1, 81585, Note_on_c, 2, 68, 54
1, 81585, Note_on_c, 2, 74, 60
1, 81656, Note_on_c, 2, 46, 48
1, 81669, Note_on_c, 2, 58, 0
1, 81689, Note_on_c, 2, 68, 0
1, 81722, Note_on_c, 2, 74, 0
1, 81727, Note_on_c, 2, 46, 0
1, 81739, Note_on_c, 2, 51, 44
1, 81739, Note_on_c, 2, 68, 46
1, 81739, Note_on_c, 2, 77, 54
1, 81884, Note_on_c, 2, 68, 0
1, 81999, Note_on_c, 2, 67, 39
1, 81999, Note_on_c, 2, 75, 47
1, 82009, Note_on_c, 2, 77, 0
1, 82029, Note_on_c, 2, 51, 0
1, 82033, Note_on_c, 2, 75, 0
1, 82040, Note_on_c, 2, 67, 0
1, 82115, Note_on_c, 2, 62, 55
1, 82115, Note_on_c, 2, 56, 47
1, 82115, Note_on_c, 2, 65, 55
1, 82198, Note_on_c, 2, 62, 0
1, 82206, Note_on_c, 2, 65, 0
1, 82235, Note_on_c, 2, 63, 50
1, 82235, Note_on_c, 2, 55, 35
1, 82235, Note_on_c, 2, 67, 49
1, 82236, Note_on_c, 2, 56, 0
1, 82315, Note_on_c, 2, 67, 0
1, 82319, Note_on_c, 2, 63, 0
1, 82360, Note_on_c, 2, 55, 0
1, 82365, Note_on_c, 2, 53, 39
1, 82365, Note_on_c, 2, 65, 40
1, 82365, Note_on_c, 2, 68, 47
1, 82448, Note_on_c, 2, 53, 0
1, 82456, Note_on_c, 2, 65, 0
1, 82464, Note_on_c, 2, 68, 0
1, 82514, Note_on_c, 2, 52, 51
1, 82514, Note_on_c, 2, 66, 39
1, 82514, Note_on_c, 2, 69, 40
1, 82644, Note_on_c, 2, 69, 0
1, 82648, Note_on_c, 2, 66, 0
1, 82781, Note_on_c, 2, 67, 45
1, 82782, Note_on_c, 2, 70, 41
1, 82915, Note_on_c, 2, 73, 46
1, 82926, Note_on_c, 2, 52, 0
1, 82936, Note_on_c, 2, 70, 0
1, 82939, Note_on_c, 2, 67, 0
1, 82948, Note_on_c, 2, 73, 0
1, 83035, Note_on_c, 2, 64, 45
1, 83035, Note_on_c, 2, 67, 45
1, 83035, Note_on_c, 2, 48, 24
1, 83132, Note_on_c, 2, 67, 0
1, 83135, Note_on_c, 2, 64, 0
1, 83160, Note_on_c, 2, 72, 46
1, 83160, Note_on_c, 2, 68, 36
1, 83190, Note_on_c, 2, 48, 0
1, 83198, Note_on_c, 2, 72, 0
1, 83215, Note_on_c, 2, 68, 0
1, 83298, Note_on_c, 2, 49, 42
1, 83298, Note_on_c, 2, 67, 40
1, 83298, Note_on_c, 2, 70, 36
1, 83456, Note_on_c, 2, 67, 0
1, 83460, Note_on_c, 2, 70, 0
1, 83564, Note_on_c, 2, 68, 62
1, 83565, Note_on_c, 2, 65, 54
1, 83607, Note_on_c, 2, 68, 0
1, 83661, Note_on_c, 2, 49, 0
1, 83694, Note_on_c, 2, 77, 54
1, 83706, Note_on_c, 2, 65, 0
1, 83769, Note_on_c, 2, 77, 0
1, 83815, Note_on_c, 2, 56, 41
1, 83815, Note_on_c, 2, 60, 40
1, 83815, Note_on_c, 2, 77, 41
1, 83919, Note_on_c, 2, 77, 0
1, 83944, Note_on_c, 2, 77, 39
1, 83952, Note_on_c, 2, 60, 0
1, 83961, Note_on_c, 2, 56, 0
1, 83974, Note_on_c, 2, 77, 0
1, 84074, Note_on_c, 2, 58, 57
1, 84074, Note_on_c, 2, 61, 32
1, 84074, Note_on_c, 2, 78, 37
1, 84315, Note_on_c, 2, 79, 48
1, 84324, Note_on_c, 2, 78, 0
1, 84415, Note_on_c, 2, 58, 0
1, 84420, Note_on_c, 2, 61, 0
1, 84444, Note_on_c, 2, 82, 46
1, 84456, Note_on_c, 2, 79, 0
1, 84574, Note_on_c, 2, 70, 35
1, 84574, Note_on_c, 2, 60, 35
1, 84694, Note_on_c, 2, 82, 0
1, 84698, Note_on_c, 2, 76, 50
1, 84711, Note_on_c, 2, 60, 0
1, 84745, Note_on_c, 2, 70, 0
1, 84790, Note_on_c, 2, 76, 0
1, 84828, Note_on_c, 2, 65, 57
1, 84828, Note_on_c, 2, 70, 41
1, 84828, Note_on_c, 2, 79, 54
1, 85111, Note_on_c, 2, 70, 0
1, 85112, Note_on_c, 2, 68, 51
1, 85112, Note_on_c, 2, 77, 47
1, 85123, Note_on_c, 2, 79, 0
1, 85158, Note_on_c, 2, 68, 0
1, 85161, Note_on_c, 2, 65, 0
1, 85236, Note_on_c, 2, 41, 55
1, 85324, Note_on_c, 2, 41, 0
1, 85357, Note_on_c, 2, 41, 66
1, 85436, Note_on_c, 2, 41, 0
1, 85474, Note_on_c, 2, 41, 56
1, 85561, Note_on_c, 2, 41, 0
1, 85594, Note_on_c, 2, 41, 63
1, 85657, Note_on_c, 2, 77, 0
1, 85716, Note_on_c, 2, 80, 62
1, 85761, Note_on_c, 2, 80, 0
1, 85828, Note_on_c, 2, 79, 59
1, 85882, Note_on_c, 2, 77, 55
1, 85899, Note_on_c, 2, 79, 0
1, 85936, Note_on_c, 2, 77, 0
1, 85936, Note_on_c, 2, 75, 59
1, 85986, Note_on_c, 2, 73, 72
1, 86003, Note_on_c, 2, 75, 0
1, 86036, Note_on_c, 2, 73, 0
1, 86040, Note_on_c, 2, 72, 66
1, 86091, Note_on_c, 2, 73, 72
1, 86107, Note_on_c, 2, 72, 0
1, 86136, Note_on_c, 2, 77, 54
1, 86144, Note_on_c, 2, 73, 0
1, 86191, Note_on_c, 2, 73, 63
1, 86195, Note_on_c, 2, 77, 0
1, 86207, Note_on_c, 2, 73, 0
1, 86253, Note_on_c, 2, 62, 70
1, 86253, Note_on_c, 2, 68, 66
1, 86253, Note_on_c, 2, 72, 70
1, 86482, Note_on_c, 2, 71, 60
1, 86490, Note_on_c, 2, 72, 0
1, 86557, Note_on_c, 2, 41, 0
1, 86595, Note_on_c, 2, 41, 66
1, 86644, Note_on_c, 2, 41, 0
1, 86707, Note_on_c, 2, 41, 65
1, 86744, Note_on_c, 2, 41, 0
1, 86816, Note_on_c, 2, 41, 56
1, 86840, Note_on_c, 2, 41, 0
1, 86928, Note_on_c, 2, 42, 95
1, 86966, Note_on_c, 2, 68, 0
1, 86974, Note_on_c, 2, 62, 0
1, 86978, Note_on_c, 2, 71, 0
1, 87037, Note_on_c, 2, 72, 62
1, 87037, Note_on_c, 2, 63, 63
1, 87149, Note_on_c, 2, 71, 57
1, 87159, Note_on_c, 2, 72, 0
1, 87204, Note_on_c, 2, 72, 36
1, 87232, Note_on_c, 2, 63, 0
1, 87245, Note_on_c, 2, 71, 0
1, 87258, Note_on_c, 2, 42, 53
1, 87258, Note_on_c, 2, 74, 46
1, 87258, Note_on_c, 2, 63, 32
1, 87278, Note_on_c, 2, 74, 0
1, 87312, Note_on_c, 2, 72, 0
1, 87318, Note_on_c, 2, 42, 0
1, 87319, Note_on_c, 2, 72, 49
1, 87348, Note_on_c, 2, 72, 0
1, 87375, Note_on_c, 2, 71, 50
1, 87420, Note_on_c, 2, 63, 0
1, 87426, Note_on_c, 2, 72, 55
1, 87429, Note_on_c, 2, 71, 0
1, 87470, Note_on_c, 2, 63, 52
1, 87470, Note_on_c, 2, 75, 56
1, 87492, Note_on_c, 2, 72, 0
1, 87498, Note_on_c, 2, 75, 0
1, 87525, Note_on_c, 2, 74, 56
1, 87557, Note_on_c, 2, 63, 0
1, 87570, Note_on_c, 2, 71, 49
1, 87571, Note_on_c, 2, 63, 49
1, 87571, Note_on_c, 2, 43, 53
1, 87578, Note_on_c, 2, 42, 0
1, 87583, Note_on_c, 2, 74, 0
1, 87708, Note_on_c, 2, 63, 0
1, 87712, Note_on_c, 2, 71, 0
1, 87783, Note_on_c, 2, 72, 65
1, 87783, Note_on_c, 2, 63, 60
1, 87850, Note_on_c, 2, 43, 0
1, 87887, Note_on_c, 2, 43, 62
1, 87932, Note_on_c, 2, 43, 0
1, 87995, Note_on_c, 2, 43, 65
1, 88033, Note_on_c, 2, 43, 0
1, 88104, Note_on_c, 2, 43, 68
1, 88129, Note_on_c, 2, 43, 0
1, 88220, Note_on_c, 2, 44, 88
1, 88295, Note_on_c, 2, 63, 0
1, 88299, Note_on_c, 2, 72, 0
1, 88329, Note_on_c, 2, 63, 59
1, 88329, Note_on_c, 2, 72, 57
1, 88362, Note_on_c, 2, 63, 0
1, 88378, Note_on_c, 2, 72, 0
1, 88441, Note_on_c, 2, 63, 54
1, 88441, Note_on_c, 2, 72, 45
1, 88462, Note_on_c, 2, 63, 0
1, 88470, Note_on_c, 2, 72, 0
1, 88550, Note_on_c, 2, 63, 49
1, 88550, Note_on_c, 2, 72, 55
1, 88566, Note_on_c, 2, 63, 0
1, 88574, Note_on_c, 2, 44, 0
1, 88579, Note_on_c, 2, 72, 0
1, 88666, Note_on_c, 2, 45, 48
1, 88666, Note_on_c, 2, 63, 49
1, 88666, Note_on_c, 2, 72, 57
1, 88748, Note_on_c, 2, 63, 0
1, 88758, Note_on_c, 2, 72, 0
1, 88783, Note_on_c, 2, 72, 51
1, 88783, Note_on_c, 2, 63, 37
1, 88804, Note_on_c, 2, 45, 0
1, 88812, Note_on_c, 2, 63, 0
1, 88816, Note_on_c, 2, 72, 0
1, 88908, Note_on_c, 2, 46, 43
1, 88908, Note_on_c, 2, 63, 35
1, 88908, Note_on_c, 2, 73, 55
1, 89004, Note_on_c, 2, 73, 0
1, 89083, Note_on_c, 2, 72, 41
1, 89108, Note_on_c, 2, 70, 40
1, 89112, Note_on_c, 2, 72, 0
1, 89129, Note_on_c, 2, 63, 0
1, 89137, Note_on_c, 2, 68, 40
1, 89154, Note_on_c, 2, 70, 0
1, 89178, Note_on_c, 2, 63, 48
1, 89178, Note_on_c, 2, 67, 54
1, 89178, Note_on_c, 2, 49, 45
1, 89183, Note_on_c, 2, 68, 0
1, 89204, Note_on_c, 2, 46, 0
1, 89232, Note_on_c, 2, 63, 0
1, 89233, Note_on_c, 2, 67, 0
1, 89300, Note_on_c, 2, 79, 49
1, 89333, Note_on_c, 2, 79, 0
1, 89361, Note_on_c, 2, 49, 0
1, 89425, Note_on_c, 2, 48, 51
1, 89425, Note_on_c, 2, 80, 49
1, 89550, Note_on_c, 2, 48, 0
1, 89554, Note_on_c, 2, 72, 40
1, 89562, Note_on_c, 2, 80, 0
1, 89595, Note_on_c, 2, 72, 0
1, 89692, Note_on_c, 2, 49, 40
1, 89754, Note_on_c, 2, 70, 42
1, 89817, Note_on_c, 2, 73, 46
1, 89841, Note_on_c, 2, 49, 0
1, 89875, Note_on_c, 2, 77, 48
1, 89883, Note_on_c, 2, 73, 0
1, 89891, Note_on_c, 2, 70, 0
1, 89945, Note_on_c, 2, 77, 0
1, 89946, Note_on_c, 2, 68, 49
1, 89946, Note_on_c, 2, 60, 47
1, 89946, Note_on_c, 2, 51, 49
1, 90088, Note_on_c, 2, 60, 0
1, 90096, Note_on_c, 2, 51, 0
1, 90221, Note_on_c, 2, 61, 55
1, 90221, Note_on_c, 2, 51, 44
1, 90368, Note_on_c, 2, 67, 35
1, 90368, Note_on_c, 2, 72, 32
1, 90375, Note_on_c, 2, 51, 0
1, 90383, Note_on_c, 2, 68, 0
1, 90413, Note_on_c, 2, 61, 0
1, 90442, Note_on_c, 2, 70, 41
1, 90455, Note_on_c, 2, 67, 0
1, 90458, Note_on_c, 2, 72, 0
1, 90521, Note_on_c, 2, 68, 40
1, 90522, Note_on_c, 2, 56, 35
1, 90538, Note_on_c, 2, 70, 0
1, 90604, Note_on_c, 2, 60, 40
1, 90667, Note_on_c, 2, 63, 35
1, 90675, Note_on_c, 2, 60, 0
1, 90725, Note_on_c, 2, 56, 0
1, 90725, Note_on_c, 2, 60, 46
1, 90754, Note_on_c, 2, 63, 0
1, 90771, Note_on_c, 2, 60, 0
1, 90783, Note_on_c, 2, 56, 39
1, 90800, Note_on_c, 2, 68, 0
1, 90838, Note_on_c, 2, 60, 42
1, 90887, Note_on_c, 2, 60, 0
1, 90888, Note_on_c, 2, 63, 47
1, 90888, Note_on_c, 2, 68, 40
1, 90888, Note_on_c, 2, 72, 57
1, 90942, Note_on_c, 2, 56, 0
1, 90942, Note_on_c, 2, 60, 50
1, 90950, Note_on_c, 2, 68, 0
1, 90954, Note_on_c, 2, 72, 0
1, 90967, Note_on_c, 2, 63, 0
1, 90992, Note_on_c, 2, 60, 0
1, 91000, Note_on_c, 2, 56, 36
1, 91000, Note_on_c, 2, 68, 40
1, 91000, Note_on_c, 2, 72, 54
1, 91055, Note_on_c, 2, 72, 0
1, 91059, Note_on_c, 2, 68, 0
1, 91059, Note_on_c, 2, 60, 38
1, 91112, Note_on_c, 2, 60, 0
1, 91121, Note_on_c, 2, 63, 28
1, 91122, Note_on_c, 2, 68, 37
1, 91122, Note_on_c, 2, 72, 44
1, 91161, Note_on_c, 2, 56, 0
1, 91184, Note_on_c, 2, 72, 0
1, 91184, Note_on_c, 2, 60, 41
1, 91192, Note_on_c, 2, 68, 0
1, 91204, Note_on_c, 2, 63, 0
1, 91225, Note_on_c, 2, 60, 0
1, 91254, Note_on_c, 2, 55, 44
1, 91254, Note_on_c, 2, 70, 44
1, 91254, Note_on_c, 2, 72, 44
1, 91254, Note_on_c, 2, 77, 44
1, 91338, Note_on_c, 2, 58, 44
1, 91385, Note_on_c, 2, 70, 0
1, 91396, Note_on_c, 2, 77, 0
1, 91397, Note_on_c, 2, 60, 42
1, 91397, Note_on_c, 2, 72, 40
1, 91397, Note_on_c, 2, 70, 32
1, 91397, Note_on_c, 2, 76, 55
1, 91400, Note_on_c, 2, 58, 0
1, 91401, Note_on_c, 2, 72, 0
1, 91430, Note_on_c, 2, 55, 0
1, 91454, Note_on_c, 2, 58, 42
1, 91483, Note_on_c, 2, 60, 0
1, 91505, Note_on_c, 2, 72, 0
1, 91510, Note_on_c, 2, 58, 0
1, 91513, Note_on_c, 2, 55, 37
1, 91514, Note_on_c, 2, 70, 0
1, 91567, Note_on_c, 2, 58, 34
1, 91625, Note_on_c, 2, 76, 0
1, 91625, Note_on_c, 2, 60, 31
1, 91625, Note_on_c, 2, 70, 35
1, 91625, Note_on_c, 2, 72, 54
1, 91633, Note_on_c, 2, 58, 0
1, 91679, Note_on_c, 2, 55, 0
1, 91679, Note_on_c, 2, 58, 38
1, 91703, Note_on_c, 2, 70, 0
1, 91704, Note_on_c, 2, 72, 0
1, 91717, Note_on_c, 2, 58, 0
1, 91725, Note_on_c, 2, 60, 0
1, 91738, Note_on_c, 2, 70, 36
1, 91738, Note_on_c, 2, 72, 49
1, 91738, Note_on_c, 2, 55, 31
1, 91796, Note_on_c, 2, 58, 36
1, 91800, Note_on_c, 2, 72, 0
1, 91804, Note_on_c, 2, 70, 0
1, 91856, Note_on_c, 2, 60, 28
1, 91856, Note_on_c, 2, 70, 32
1, 91856, Note_on_c, 2, 72, 40
1, 91859, Note_on_c, 2, 58, 0
1, 91905, Note_on_c, 2, 55, 0
1, 91922, Note_on_c, 2, 58, 32
1, 91925, Note_on_c, 2, 72, 0
1, 91935, Note_on_c, 2, 70, 0
1, 91973, Note_on_c, 2, 60, 0
1, 91984, Note_on_c, 2, 58, 0
1, 91996, Note_on_c, 2, 53, 54
1, 91996, Note_on_c, 2, 68, 36
1, 91996, Note_on_c, 2, 72, 45
1, 91996, Note_on_c, 2, 79, 47
1, 92072, Note_on_c, 2, 56, 38
1, 92104, Note_on_c, 2, 72, 0
1, 92108, Note_on_c, 2, 68, 0
1, 92121, Note_on_c, 2, 79, 0
1, 92130, Note_on_c, 2, 60, 18
1, 92130, Note_on_c, 2, 77, 53
1, 92130, Note_on_c, 2, 72, 48
1, 92130, Note_on_c, 2, 68, 38
1, 92134, Note_on_c, 2, 56, 0
1, 92188, Note_on_c, 2, 56, 40
1, 92197, Note_on_c, 2, 53, 0
1, 92238, Note_on_c, 2, 60, 0
1, 92238, Note_on_c, 2, 56, 0
1, 92242, Note_on_c, 2, 53, 45
1, 92272, Note_on_c, 2, 72, 0
1, 92280, Note_on_c, 2, 68, 0
1, 92292, Note_on_c, 2, 56, 40
1, 92342, Note_on_c, 2, 60, 39
1, 92342, Note_on_c, 2, 68, 40
1, 92342, Note_on_c, 2, 72, 57
1, 92350, Note_on_c, 2, 56, 0
1, 92355, Note_on_c, 2, 77, 0
1, 92396, Note_on_c, 2, 56, 36
1, 92404, Note_on_c, 2, 53, 0
1, 92413, Note_on_c, 2, 68, 0
1, 92413, Note_on_c, 2, 72, 0
1, 92446, Note_on_c, 2, 56, 0
1, 92449, Note_on_c, 2, 60, 0
1, 92451, Note_on_c, 2, 53, 45
1, 92451, Note_on_c, 2, 68, 29
1, 92451, Note_on_c, 2, 72, 45
1, 92505, Note_on_c, 2, 56, 35
1, 92513, Note_on_c, 2, 68, 0
1, 92517, Note_on_c, 2, 72, 0
1, 92567, Note_on_c, 2, 56, 0
1, 92568, Note_on_c, 2, 72, 53
1, 92568, Note_on_c, 2, 68, 37
1, 92568, Note_on_c, 2, 60, 19
1, 92623, Note_on_c, 2, 53, 0
1, 92625, Note_on_c, 2, 56, 31
1, 92630, Note_on_c, 2, 68, 0
1, 92635, Note_on_c, 2, 72, 0
1, 92675, Note_on_c, 2, 60, 0
1, 92688, Note_on_c, 2, 51, 45
1, 92688, Note_on_c, 2, 68, 33
1, 92688, Note_on_c, 2, 72, 45
1, 92688, Note_on_c, 2, 80, 37
1, 92692, Note_on_c, 2, 56, 0
1, 92759, Note_on_c, 2, 54, 45
1, 92784, Note_on_c, 2, 68, 0
1, 92788, Note_on_c, 2, 72, 0
1, 92813, Note_on_c, 2, 80, 0
1, 92817, Note_on_c, 2, 54, 0
1, 92821, Note_on_c, 2, 56, 22
1, 92821, Note_on_c, 2, 72, 39
1, 92821, Note_on_c, 2, 68, 31
1, 92823, Note_on_c, 2, 78, 45
1, 92872, Note_on_c, 2, 51, 0
1, 92872, Note_on_c, 2, 54, 41
1, 92909, Note_on_c, 2, 56, 0
1, 92922, Note_on_c, 2, 54, 0
1, 92926, Note_on_c, 2, 51, 45
1, 92967, Note_on_c, 2, 68, 0
1, 92976, Note_on_c, 2, 54, 45
1, 92980, Note_on_c, 2, 72, 0
1, 93026, Note_on_c, 2, 68, 45
1, 93026, Note_on_c, 2, 72, 53
1, 93030, Note_on_c, 2, 54, 0
1, 93030, Note_on_c, 2, 56, 40
1, 93080, Note_on_c, 2, 51, 0
1, 93080, Note_on_c, 2, 54, 35
1, 93092, Note_on_c, 2, 68, 0
1, 93097, Note_on_c, 2, 72, 0
1, 93130, Note_on_c, 2, 54, 0
1, 93134, Note_on_c, 2, 78, 0
1, 93134, Note_on_c, 2, 56, 0
1, 93134, Note_on_c, 2, 68, 40
1, 93135, Note_on_c, 2, 72, 55
1, 93135, Note_on_c, 2, 51, 41
1, 93188, Note_on_c, 2, 54, 41
1, 93205, Note_on_c, 2, 72, 0
1, 93205, Note_on_c, 2, 68, 0
1, 93242, Note_on_c, 2, 54, 0
1, 93247, Note_on_c, 2, 56, 31
1, 93247, Note_on_c, 2, 72, 52
1, 93247, Note_on_c, 2, 68, 33
1, 93297, Note_on_c, 2, 72, 0
1, 93309, Note_on_c, 2, 51, 0
1, 93309, Note_on_c, 2, 54, 35
1, 93321, Note_on_c, 2, 68, 0
1, 93364, Note_on_c, 2, 54, 0
1, 93376, Note_on_c, 2, 49, 41
1, 93376, Note_on_c, 2, 68, 42
1, 93376, Note_on_c, 2, 73, 48
1, 93376, Note_on_c, 2, 78, 46
1, 93405, Note_on_c, 2, 56, 0
1, 93443, Note_on_c, 2, 52, 39
1, 93459, Note_on_c, 2, 73, 0
1, 93463, Note_on_c, 2, 78, 0
1, 93463, Note_on_c, 2, 68, 0
1, 93494, Note_on_c, 2, 56, 34
1, 93494, Note_on_c, 2, 68, 47
1, 93494, Note_on_c, 2, 73, 50
1, 93494, Note_on_c, 2, 76, 59
1, 93496, Note_on_c, 2, 52, 0
1, 93551, Note_on_c, 2, 52, 47
1, 93555, Note_on_c, 2, 49, 0
1, 93564, Note_on_c, 2, 56, 0
1, 93600, Note_on_c, 2, 52, 0
1, 93605, Note_on_c, 2, 49, 45
1, 93626, Note_on_c, 2, 76, 0
1, 93655, Note_on_c, 2, 73, 0
1, 93659, Note_on_c, 2, 52, 45
1, 93660, Note_on_c, 2, 68, 0
1, 93710, Note_on_c, 2, 68, 49
1, 93710, Note_on_c, 2, 76, 57
1, 93713, Note_on_c, 2, 52, 0
1, 93713, Note_on_c, 2, 56, 52
1, 93763, Note_on_c, 2, 49, 0
1, 93763, Note_on_c, 2, 52, 52
1, 93784, Note_on_c, 2, 68, 0
1, 93785, Note_on_c, 2, 76, 0
1, 93818, Note_on_c, 2, 47, 56
1, 93818, Note_on_c, 2, 68, 49
1, 93818, Note_on_c, 2, 76, 63
1, 93826, Note_on_c, 2, 52, 0
1, 93876, Note_on_c, 2, 52, 56
1, 93880, Note_on_c, 2, 56, 0
1, 93902, Note_on_c, 2, 68, 0
1, 93926, Note_on_c, 2, 76, 0
1, 93926, Note_on_c, 2, 47, 0
1, 93935, Note_on_c, 2, 56, 42
1, 93935, Note_on_c, 2, 68, 50
1, 93935, Note_on_c, 2, 75, 62
1, 93993, Note_on_c, 2, 56, 0
1, 93997, Note_on_c, 2, 47, 47
1, 94000, Note_on_c, 2, 52, 0
1, 94005, Note_on_c, 2, 75, 0
1, 94014, Note_on_c, 2, 47, 0
1, 94023, Note_on_c, 2, 68, 0
1, 94064, Note_on_c, 2, 46, 75
1, 94064, Note_on_c, 2, 53, 55
1, 94064, Note_on_c, 2, 68, 57
1, 94064, Note_on_c, 2, 75, 65
1, 94255, Note_on_c, 2, 75, 0
1, 94256, Note_on_c, 2, 68, 0
1, 94260, Note_on_c, 2, 46, 0
1, 94260, Note_on_c, 2, 77, 56
1, 94293, Note_on_c, 2, 75, 48
1, 94306, Note_on_c, 2, 77, 0
1, 94310, Note_on_c, 2, 53, 0
1, 94322, Note_on_c, 2, 74, 72
1, 94330, Note_on_c, 2, 75, 0
1, 94342, Note_on_c, 2, 74, 0
1, 94448, Note_on_c, 2, 46, 47
1, 94448, Note_on_c, 2, 53, 42
1, 94448, Note_on_c, 2, 62, 55
1, 94448, Note_on_c, 2, 68, 65
1, 94498, Note_on_c, 2, 68, 0
1, 94498, Note_on_c, 2, 46, 0
1, 94498, Note_on_c, 2, 53, 0
1, 94498, Note_on_c, 2, 62, 0
1, 94568, Note_on_c, 2, 46, 47
1, 94568, Note_on_c, 2, 53, 46
1, 94568, Note_on_c, 2, 62, 49
1, 94568, Note_on_c, 2, 68, 55
1, 94618, Note_on_c, 2, 68, 0
1, 94618, Note_on_c, 2, 46, 0
1, 94618, Note_on_c, 2, 53, 0
1, 94618, Note_on_c, 2, 62, 0
1, 94686, Note_on_c, 2, 46, 45
1, 94686, Note_on_c, 2, 53, 42
1, 94686, Note_on_c, 2, 62, 51
1, 94686, Note_on_c, 2, 68, 55
1, 94759, Note_on_c, 2, 46, 0
1, 94762, Note_on_c, 2, 68, 0
1, 94764, Note_on_c, 2, 62, 0
1, 94764, Note_on_c, 2, 53, 0
1, 94818, Note_on_c, 2, 62, 48
1, 94818, Note_on_c, 2, 68, 50
1, 94819, Note_on_c, 2, 53, 23
1, 94819, Note_on_c, 2, 46, 28
1, 94951, Note_on_c, 2, 62, 0
1, 94972, Note_on_c, 2, 68, 0
1, 95005, Note_on_c, 2, 46, 0
1, 95022, Note_on_c, 2, 53, 0
1, 95272, Note_on_c, 2, 74, 46
1, 95272, Note_on_c, 2, 80, 49
1, 95274, Note_on_c, 2, 58, 45
1, 95274, Note_on_c, 2, 65, 41
1, 95323, Note_on_c, 2, 80, 0
1, 95323, Note_on_c, 2, 74, 0
1, 95325, Note_on_c, 2, 58, 0
1, 95325, Note_on_c, 2, 65, 0
1, 95398, Note_on_c, 2, 58, 30
1, 95398, Note_on_c, 2, 65, 31
1, 95398, Note_on_c, 2, 74, 40
1, 95398, Note_on_c, 2, 80, 39
1, 95440, Note_on_c, 2, 58, 0
1, 95444, Note_on_c, 2, 65, 0
1, 95444, Note_on_c, 2, 80, 0
1, 95449, Note_on_c, 2, 74, 0
1, 95530, Note_on_c, 2, 58, 27
1, 95530, Note_on_c, 2, 65, 14
1, 95530, Note_on_c, 2, 74, 25
1, 95530, Note_on_c, 2, 80, 36
1, 95568, Note_on_c, 2, 58, 0
1, 95573, Note_on_c, 2, 65, 0
1, 95577, Note_on_c, 2, 74, 0
1, 95578, Note_on_c, 2, 80, 0
1, 95672, Note_on_c, 2, 58, 29
1, 95672, Note_on_c, 2, 65, 23
1, 95672, Note_on_c, 2, 74, 28
1, 95672, Note_on_c, 2, 80, 35
1, 95705, Note_on_c, 2, 74, 0
1, 95710, Note_on_c, 2, 80, 0
1, 95734, Note_on_c, 2, 82, 54
1, 95751, Note_on_c, 2, 80, 53
1, 95760, Note_on_c, 2, 82, 0
1, 95764, Note_on_c, 2, 79, 47
1, 95772, Note_on_c, 2, 80, 0
1, 95785, Note_on_c, 2, 80, 43
1, 95797, Note_on_c, 2, 82, 47
1, 95806, Note_on_c, 2, 79, 0
1, 95818, Note_on_c, 2, 80, 0
1, 95864, Note_on_c, 2, 84, 53
1, 95872, Note_on_c, 2, 82, 0
1, 95939, Note_on_c, 2, 82, 56
1, 95947, Note_on_c, 2, 84, 0
1, 96010, Note_on_c, 2, 80, 41
1, 96026, Note_on_c, 2, 82, 0
1, 96084, Note_on_c, 2, 79, 45
1, 96089, Note_on_c, 2, 80, 0
1, 96135, Note_on_c, 2, 79, 0
1, 96160, Note_on_c, 2, 77, 38
1, 96201, Note_on_c, 2, 77, 0
1, 96239, Note_on_c, 2, 75, 42
1, 96326, Note_on_c, 2, 74, 39
1, 96339, Note_on_c, 2, 75, 0
1, 96372, Note_on_c, 2, 65, 0
1, 96418, Note_on_c, 2, 74, 0
1, 96427, Note_on_c, 2, 72, 39
1, 96464, Note_on_c, 2, 72, 0
1, 96476, Note_on_c, 2, 58, 0
1, 96551, Note_on_c, 2, 70, 45
1, 96626, Note_on_c, 2, 70, 0
1, 96710, Note_on_c, 2, 51, 31
1, 96710, Note_on_c, 2, 67, 29
1, 96710, Note_on_c, 2, 70, 40
1, 96864, Note_on_c, 2, 70, 0
1, 96877, Note_on_c, 2, 72, 46
1, 96902, Note_on_c, 2, 70, 40
1, 96918, Note_on_c, 2, 72, 0
1, 96935, Note_on_c, 2, 65, 46
1, 96935, Note_on_c, 2, 68, 48
1, 96942, Note_on_c, 2, 67, 0
1, 96952, Note_on_c, 2, 70, 0
1, 96993, Note_on_c, 2, 65, 0
1, 97006, Note_on_c, 2, 68, 0
1, 97048, Note_on_c, 2, 63, 49
1, 97048, Note_on_c, 2, 67, 52
1, 97102, Note_on_c, 2, 67, 0
1, 97114, Note_on_c, 2, 63, 0
1, 97164, Note_on_c, 2, 68, 49
1, 97165, Note_on_c, 2, 72, 52
1, 97268, Note_on_c, 2, 72, 0
1, 97272, Note_on_c, 2, 68, 0
1, 97277, Note_on_c, 2, 70, 46
1, 97277, Note_on_c, 2, 67, 40
1, 97322, Note_on_c, 2, 51, 0
1, 97331, Note_on_c, 2, 67, 0
1, 97343, Note_on_c, 2, 70, 0
1, 97377, Note_on_c, 2, 70, 55
1, 97377, Note_on_c, 2, 67, 54
1, 97378, Note_on_c, 2, 51, 41
1, 97435, Note_on_c, 2, 55, 45
1, 97464, Note_on_c, 2, 51, 0
1, 97494, Note_on_c, 2, 58, 41
1, 97523, Note_on_c, 2, 55, 0
1, 97539, Note_on_c, 2, 70, 0
1, 97548, Note_on_c, 2, 51, 55
1, 97548, Note_on_c, 2, 72, 54
1, 97564, Note_on_c, 2, 51, 0
1, 97573, Note_on_c, 2, 58, 0
1, 97573, Note_on_c, 2, 70, 54
1, 97581, Note_on_c, 2, 67, 0
1, 97581, Note_on_c, 2, 72, 0
1, 97602, Note_on_c, 2, 53, 56
1, 97602, Note_on_c, 2, 68, 59
1, 97602, Note_on_c, 2, 65, 57
1, 97614, Note_on_c, 2, 70, 0
1, 97652, Note_on_c, 2, 56, 40
1, 97696, Note_on_c, 2, 53, 0
1, 97715, Note_on_c, 2, 62, 43
1, 97735, Note_on_c, 2, 56, 0
1, 97765, Note_on_c, 2, 53, 53
1, 97777, Note_on_c, 2, 62, 0
1, 97786, Note_on_c, 2, 53, 0
1, 97823, Note_on_c, 2, 55, 47
1, 97824, Note_on_c, 2, 67, 60
1, 97831, Note_on_c, 2, 68, 0
1, 97831, Note_on_c, 2, 65, 0
1, 97877, Note_on_c, 2, 58, 38
1, 97931, Note_on_c, 2, 63, 40
1, 97935, Note_on_c, 2, 55, 0
1, 97948, Note_on_c, 2, 58, 0
1, 97981, Note_on_c, 2, 63, 0
1, 97981, Note_on_c, 2, 55, 45
1, 98027, Note_on_c, 2, 55, 0
1, 98040, Note_on_c, 2, 60, 45
1, 98040, Note_on_c, 2, 56, 45
1, 98090, Note_on_c, 2, 67, 0
1, 98093, Note_on_c, 2, 64, 48
1, 98152, Note_on_c, 2, 65, 38
1, 98181, Note_on_c, 2, 64, 0
1, 98206, Note_on_c, 2, 67, 39
1, 98218, Note_on_c, 2, 65, 0
1, 98260, Note_on_c, 2, 68, 46
1, 98269, Note_on_c, 2, 67, 0
1, 98310, Note_on_c, 2, 68, 0
1, 98319, Note_on_c, 2, 69, 44
1, 98382, Note_on_c, 2, 69, 0
1, 98382, Note_on_c, 2, 70, 37
1, 98440, Note_on_c, 2, 70, 0
1, 98444, Note_on_c, 2, 71, 40
1, 98473, Note_on_c, 2, 56, 0
1, 98478, Note_on_c, 2, 60, 0
1, 98511, Note_on_c, 2, 56, 33
1, 98511, Note_on_c, 2, 60, 31
1, 98511, Note_on_c, 2, 74, 56
1, 98527, Note_on_c, 2, 71, 0
1, 98548, Note_on_c, 2, 72, 48
1, 98564, Note_on_c, 2, 74, 0
1, 98577, Note_on_c, 2, 72, 0
1, 98578, Note_on_c, 2, 71, 41
1, 98602, Note_on_c, 2, 71, 0
1, 98602, Note_on_c, 2, 72, 54
1, 98635, Note_on_c, 2, 70, 66
1, 98648, Note_on_c, 2, 72, 0
1, 98662, Note_on_c, 2, 60, 0
1, 98664, Note_on_c, 2, 68, 52
1, 98678, Note_on_c, 2, 70, 0
1, 98681, Note_on_c, 2, 56, 0
1, 98690, Note_on_c, 2, 67, 53
1, 98694, Note_on_c, 2, 68, 0
1, 98714, Note_on_c, 2, 67, 0
1, 98723, Note_on_c, 2, 65, 48
1, 98735, Note_on_c, 2, 65, 0
1, 98769, Note_on_c, 2, 45, 68
1, 98769, Note_on_c, 2, 55, 59
1, 98769, Note_on_c, 2, 63, 66
1, 98832, Note_on_c, 2, 46, 57
1, 98839, Note_on_c, 2, 45, 0
1, 98882, Note_on_c, 2, 46, 0
1, 98882, Note_on_c, 2, 48, 47
1, 98919, Note_on_c, 2, 63, 0
1, 98931, Note_on_c, 2, 48, 0
1, 98936, Note_on_c, 2, 55, 0
1, 98936, Note_on_c, 2, 46, 45
1, 98960, Note_on_c, 2, 46, 0
1, 98994, Note_on_c, 2, 53, 54
1, 98994, Note_on_c, 2, 62, 63
1, 98998, Note_on_c, 2, 46, 65
1, 99019, Note_on_c, 2, 53, 0
1, 99023, Note_on_c, 2, 58, 68
1, 99052, Note_on_c, 2, 58, 0
1, 99052, Note_on_c, 2, 57, 57
1, 99073, Note_on_c, 2, 57, 0
1, 99078, Note_on_c, 2, 58, 68
1, 99086, Note_on_c, 2, 62, 0
1, 99098, Note_on_c, 2, 58, 0
1, 99098, Note_on_c, 2, 59, 66
1, 99127, Note_on_c, 2, 60, 65
1, 99132, Note_on_c, 2, 59, 0
1, 99153, Note_on_c, 2, 61, 63
1, 99161, Note_on_c, 2, 60, 0
1, 99177, Note_on_c, 2, 61, 0
1, 99182, Note_on_c, 2, 62, 56
1, 99202, Note_on_c, 2, 63, 68
1, 99206, Note_on_c, 2, 62, 0
1, 99228, Note_on_c, 2, 63, 0
1, 99232, Note_on_c, 2, 64, 63
1, 99257, Note_on_c, 2, 65, 54
1, 99260, Note_on_c, 2, 64, 0
1, 99277, Note_on_c, 2, 66, 65
1, 99286, Note_on_c, 2, 65, 0
1, 99303, Note_on_c, 2, 66, 0
1, 99307, Note_on_c, 2, 67, 47
1, 99327, Note_on_c, 2, 67, 0
1, 99332, Note_on_c, 2, 68, 68
1, 99352, Note_on_c, 2, 68, 0
1, 99365, Note_on_c, 2, 69, 55
1, 99373, Note_on_c, 2, 46, 0
1, 99386, Note_on_c, 2, 69, 0
1, 99386, Note_on_c, 2, 70, 48
1, 99398, Note_on_c, 2, 70, 0
1, 99419, Note_on_c, 2, 39, 54
1, 99419, Note_on_c, 2, 51, 55
1, 99419, Note_on_c, 2, 67, 59
1, 99419, Note_on_c, 2, 70, 72
1, 99532, Note_on_c, 2, 70, 0
1, 99540, Note_on_c, 2, 67, 0
1, 99574, Note_on_c, 2, 72, 62
1, 99599, Note_on_c, 2, 70, 65
1, 99611, Note_on_c, 2, 72, 0
1, 99628, Note_on_c, 2, 68, 45
1, 99640, Note_on_c, 2, 70, 0
1, 99648, Note_on_c, 2, 67, 36
1, 99665, Note_on_c, 2, 68, 0
1, 99678, Note_on_c, 2, 72, 38
1, 99698, Note_on_c, 2, 67, 0
1, 99698, Note_on_c, 2, 70, 53
1, 99702, Note_on_c, 2, 72, 0
1, 99706, Note_on_c, 2, 70, 0
1, 99732, Note_on_c, 2, 75, 55
1, 99756, Note_on_c, 2, 74, 55
1, 99761, Note_on_c, 2, 75, 0
1, 99777, Note_on_c, 2, 39, 0
1, 99784, Note_on_c, 2, 77, 55
1, 99785, Note_on_c, 2, 74, 0
1, 99790, Note_on_c, 2, 51, 0
1, 99796, Note_on_c, 2, 77, 0
1, 99807, Note_on_c, 2, 75, 55
1, 99827, Note_on_c, 2, 75, 0
1, 99846, Note_on_c, 2, 51, 49
1, 99846, Note_on_c, 2, 60, 45
1, 99846, Note_on_c, 2, 80, 60
1, 99846, Note_on_c, 2, 60, 46
1, 99878, Note_on_c, 2, 79, 56
1, 99898, Note_on_c, 2, 79, 0
1, 99898, Note_on_c, 2, 78, 46
1, 99908, Note_on_c, 2, 80, 0
1, 99918, Note_on_c, 2, 60, 0
1, 99923, Note_on_c, 2, 78, 0
1, 99923, Note_on_c, 2, 79, 65
1, 99948, Note_on_c, 2, 77, 56
1, 99956, Note_on_c, 2, 79, 0
1, 99978, Note_on_c, 2, 75, 56
1, 99984, Note_on_c, 2, 51, 0
1, 99990, Note_on_c, 2, 77, 0
1, 100002, Note_on_c, 2, 74, 46
1, 100009, Note_on_c, 2, 60, 0
1, 100023, Note_on_c, 2, 75, 0
1, 100028, Note_on_c, 2, 74, 0
1, 100028, Note_on_c, 2, 72, 66
1, 100057, Note_on_c, 2, 53, 73
1, 100057, Note_on_c, 2, 60, 67
1, 100057, Note_on_c, 2, 70, 88
1, 100065, Note_on_c, 2, 72, 0
1, 100170, Note_on_c, 2, 70, 0
1, 100173, Note_on_c, 2, 69, 68
1, 100215, Note_on_c, 2, 60, 0
1, 100236, Note_on_c, 2, 53, 0
1, 100278, Note_on_c, 2, 62, 45
1, 100278, Note_on_c, 2, 58, 53
1, 100348, Note_on_c, 2, 62, 0
1, 100349, Note_on_c, 2, 58, 0
1, 100353, Note_on_c, 2, 69, 0
1, 100390, Note_on_c, 2, 59, 62
1, 100390, Note_on_c, 2, 62, 47
1, 100390, Note_on_c, 2, 68, 62
1, 100444, Note_on_c, 2, 62, 0
1, 100448, Note_on_c, 2, 59, 0
1, 100504, Note_on_c, 2, 63, 60
1, 100504, Note_on_c, 2, 60, 65
1, 100549, Note_on_c, 2, 68, 0
1, 100557, Note_on_c, 2, 67, 57
1, 100615, Note_on_c, 2, 60, 0
1, 100616, Note_on_c, 2, 55, 49
1, 100616, Note_on_c, 2, 75, 51
1, 100669, Note_on_c, 2, 67, 0
1, 100669, Note_on_c, 2, 73, 57
1, 100671, Note_on_c, 2, 55, 0
1, 100677, Note_on_c, 2, 75, 0
1, 100687, Note_on_c, 2, 63, 0
1, 100724, Note_on_c, 2, 73, 0
1, 100724, Note_on_c, 2, 71, 51
1, 100724, Note_on_c, 2, 63, 42
1, 100724, Note_on_c, 2, 56, 46
1, 100786, Note_on_c, 2, 72, 50
1, 100794, Note_on_c, 2, 71, 0
1, 100836, Note_on_c, 2, 74, 47
1, 100840, Note_on_c, 2, 63, 0
1, 100844, Note_on_c, 2, 72, 0
1, 100856, Note_on_c, 2, 56, 0
1, 100890, Note_on_c, 2, 74, 0
1, 100895, Note_on_c, 2, 75, 33
1, 100924, Note_on_c, 2, 75, 0
1, 100966, Note_on_c, 2, 75, 35
1, 100966, Note_on_c, 2, 46, 34
1, 100966, Note_on_c, 2, 55, 29
1, 101078, Note_on_c, 2, 55, 0
1, 101103, Note_on_c, 2, 55, 28
1, 101103, Note_on_c, 2, 70, 35
1, 101115, Note_on_c, 2, 75, 0
1, 101149, Note_on_c, 2, 46, 0
1, 101158, Note_on_c, 2, 55, 0
1, 101244, Note_on_c, 2, 56, 35
1, 101249, Note_on_c, 2, 46, 34
1, 101312, Note_on_c, 2, 72, 48
1, 101315, Note_on_c, 2, 70, 0
1, 101348, Note_on_c, 2, 70, 56
1, 101353, Note_on_c, 2, 56, 0
1, 101357, Note_on_c, 2, 72, 0
1, 101366, Note_on_c, 2, 70, 0
1, 101378, Note_on_c, 2, 56, 32
1, 101382, Note_on_c, 2, 70, 45
1, 101390, Note_on_c, 2, 46, 0
1, 101407, Note_on_c, 2, 68, 32
1, 101424, Note_on_c, 2, 70, 0
1, 101424, Note_on_c, 2, 56, 0
1, 101437, Note_on_c, 2, 67, 47
1, 101440, Note_on_c, 2, 68, 0
1, 101470, Note_on_c, 2, 67, 0
1, 101478, Note_on_c, 2, 65, 36
1, 101512, Note_on_c, 2, 51, 36
1, 101515, Note_on_c, 2, 63, 59
1, 101520, Note_on_c, 2, 65, 0
1, 101578, Note_on_c, 2, 55, 40
1, 101632, Note_on_c, 2, 55, 0
1, 101636, Note_on_c, 2, 58, 32
1, 101687, Note_on_c, 2, 51, 0
1, 101690, Note_on_c, 2, 55, 39
1, 101719, Note_on_c, 2, 58, 0
1, 101736, Note_on_c, 2, 55, 0
1, 101749, Note_on_c, 2, 51, 30
1, 101757, Note_on_c, 2, 63, 0
1, 101807, Note_on_c, 2, 55, 40
1, 101861, Note_on_c, 2, 55, 0
1, 101862, Note_on_c, 2, 58, 36
1, 101862, Note_on_c, 2, 67, 45
1, 101862, Note_on_c, 2, 70, 39
1, 101916, Note_on_c, 2, 51, 0
1, 101916, Note_on_c, 2, 55, 40
1, 101928, Note_on_c, 2, 70, 0
1, 101929, Note_on_c, 2, 58, 0
1, 101932, Note_on_c, 2, 67, 0
1, 101966, Note_on_c, 2, 55, 0
1, 101974, Note_on_c, 2, 51, 38
1, 101974, Note_on_c, 2, 67, 40
1, 101974, Note_on_c, 2, 70, 44
1, 102028, Note_on_c, 2, 55, 25
1, 102032, Note_on_c, 2, 70, 0
1, 102036, Note_on_c, 2, 67, 0
1, 102061, Note_on_c, 2, 51, 0
1, 102078, Note_on_c, 2, 51, 11
1, 102086, Note_on_c, 2, 55, 0
1, 102087, Note_on_c, 2, 58, 35
1, 102087, Note_on_c, 2, 70, 41
1, 102087, Note_on_c, 2, 67, 41
1, 102124, Note_on_c, 2, 67, 0
1, 102128, Note_on_c, 2, 70, 0
1, 102141, Note_on_c, 2, 51, 0
1, 102144, Note_on_c, 2, 55, 39
1, 102203, Note_on_c, 2, 55, 0
1, 102208, Note_on_c, 2, 68, 42
1, 102208, Note_on_c, 2, 51, 36
1, 102208, Note_on_c, 2, 75, 49
1, 102212, Note_on_c, 2, 58, 0
1, 102266, Note_on_c, 2, 53, 42
1, 102324, Note_on_c, 2, 74, 56
1, 102328, Note_on_c, 2, 56, 39
1, 102332, Note_on_c, 2, 53, 0
1, 102333, Note_on_c, 2, 75, 0
1, 102367, Note_on_c, 2, 68, 0
1, 102378, Note_on_c, 2, 51, 0
1, 102383, Note_on_c, 2, 53, 36
1, 102436, Note_on_c, 2, 53, 0
1, 102436, Note_on_c, 2, 56, 0
1, 102444, Note_on_c, 2, 51, 47
1, 102508, Note_on_c, 2, 53, 31
1, 102562, Note_on_c, 2, 53, 0
1, 102562, Note_on_c, 2, 82, 47
1, 102562, Note_on_c, 2, 56, 35
1, 102574, Note_on_c, 2, 74, 0
1, 102616, Note_on_c, 2, 51, 0
1, 102617, Note_on_c, 2, 53, 37
1, 102617, Note_on_c, 2, 80, 36
1, 102641, Note_on_c, 2, 82, 0
1, 102645, Note_on_c, 2, 80, 0
1, 102662, Note_on_c, 2, 56, 0
1, 102666, Note_on_c, 2, 53, 0
1, 102674, Note_on_c, 2, 51, 28
1, 102678, Note_on_c, 2, 79, 40
1, 102728, Note_on_c, 2, 79, 0
1, 102733, Note_on_c, 2, 53, 34
1, 102733, Note_on_c, 2, 77, 40
1, 102786, Note_on_c, 2, 56, 30
1, 102786, Note_on_c, 2, 75, 38
1, 102795, Note_on_c, 2, 53, 0
1, 102799, Note_on_c, 2, 77, 0
1, 102816, Note_on_c, 2, 56, 0
1, 102845, Note_on_c, 2, 74, 44
1, 102849, Note_on_c, 2, 51, 0
1, 102850, Note_on_c, 2, 75, 0
1, 102850, Note_on_c, 2, 56, 37
1, 102874, Note_on_c, 2, 56, 0
1, 102874, Note_on_c, 2, 74, 0
1, 102904, Note_on_c, 2, 51, 40
1, 102904, Note_on_c, 2, 77, 59
1, 102916, Note_on_c, 2, 75, 59
1, 102920, Note_on_c, 2, 77, 0
1, 102932, Note_on_c, 2, 75, 0
1, 102933, Note_on_c, 2, 77, 51
1, 102949, Note_on_c, 2, 75, 55
1, 102958, Note_on_c, 2, 77, 0
1, 102962, Note_on_c, 2, 55, 29
1, 102988, Note_on_c, 2, 51, 0
1, 103008, Note_on_c, 2, 75, 0
1, 103012, Note_on_c, 2, 55, 0
1, 103016, Note_on_c, 2, 51, 15
1, 103020, Note_on_c, 2, 58, 36
1, 103058, Note_on_c, 2, 51, 0
1, 103074, Note_on_c, 2, 55, 42
1, 103074, Note_on_c, 2, 74, 47
1, 103095, Note_on_c, 2, 58, 0
1, 103099, Note_on_c, 2, 72, 44
1, 103112, Note_on_c, 2, 74, 0
1, 103120, Note_on_c, 2, 55, 0
1, 103124, Note_on_c, 2, 70, 66
1, 103128, Note_on_c, 2, 51, 36
1, 103133, Note_on_c, 2, 72, 0
1, 103183, Note_on_c, 2, 55, 40
1, 103207, Note_on_c, 2, 70, 0
1, 103237, Note_on_c, 2, 58, 37
1, 103237, Note_on_c, 2, 67, 45
1, 103238, Note_on_c, 2, 70, 40
1, 103241, Note_on_c, 2, 55, 0
1, 103287, Note_on_c, 2, 51, 0
1, 103291, Note_on_c, 2, 55, 40
1, 103299, Note_on_c, 2, 67, 0
1, 103299, Note_on_c, 2, 70, 0
1, 103312, Note_on_c, 2, 58, 0
1, 103345, Note_on_c, 2, 55, 0
1, 103349, Note_on_c, 2, 51, 43
1, 103354, Note_on_c, 2, 67, 46
1, 103354, Note_on_c, 2, 70, 55
1, 103408, Note_on_c, 2, 55, 41
1, 103420, Note_on_c, 2, 70, 0
1, 103420, Note_on_c, 2, 51, 0
1, 103420, Note_on_c, 2, 67, 0
1, 103466, Note_on_c, 2, 55, 0
1, 103466, Note_on_c, 2, 58, 35
1, 103466, Note_on_c, 2, 67, 46
1, 103466, Note_on_c, 2, 70, 47
1, 103483, Note_on_c, 2, 51, 14
1, 103500, Note_on_c, 2, 67, 0
1, 103504, Note_on_c, 2, 51, 0
1, 103508, Note_on_c, 2, 70, 0
1, 103528, Note_on_c, 2, 55, 41
1, 103591, Note_on_c, 2, 58, 0
1, 103595, Note_on_c, 2, 55, 0
1, 103599, Note_on_c, 2, 51, 46
1, 103599, Note_on_c, 2, 68, 42
1, 103599, Note_on_c, 2, 75, 46
1, 103658, Note_on_c, 2, 53, 31
1, 103691, Note_on_c, 2, 74, 57
1, 103700, Note_on_c, 2, 75, 0
1, 103703, Note_on_c, 2, 68, 0
1, 103704, Note_on_c, 2, 74, 0
1, 103728, Note_on_c, 2, 53, 0
1, 103733, Note_on_c, 2, 56, 39
1, 103733, Note_on_c, 2, 84, 62
1, 103787, Note_on_c, 2, 51, 0
1, 103791, Note_on_c, 2, 53, 31
1, 103846, Note_on_c, 2, 56, 0
1, 103850, Note_on_c, 2, 53, 0
1, 103858, Note_on_c, 2, 51, 42
1, 103912, Note_on_c, 2, 53, 39
1, 103932, Note_on_c, 2, 84, 0
1, 103970, Note_on_c, 2, 53, 0
1, 103970, Note_on_c, 2, 56, 42
1, 103970, Note_on_c, 2, 82, 52
1, 103992, Note_on_c, 2, 80, 53
1, 104000, Note_on_c, 2, 82, 0
1, 104020, Note_on_c, 2, 51, 0
1, 104024, Note_on_c, 2, 80, 0
1, 104024, Note_on_c, 2, 84, 62
1, 104054, Note_on_c, 2, 80, 50
1, 104062, Note_on_c, 2, 84, 0
1, 104078, Note_on_c, 2, 51, 38
1, 104078, Note_on_c, 2, 79, 60
1, 104095, Note_on_c, 2, 56, 0
1, 104096, Note_on_c, 2, 80, 0
1, 104112, Note_on_c, 2, 79, 0
1, 104112, Note_on_c, 2, 77, 48
1, 104133, Note_on_c, 2, 77, 0
1, 104137, Note_on_c, 2, 53, 45
1, 104137, Note_on_c, 2, 80, 50
1, 104167, Note_on_c, 2, 80, 0
1, 104167, Note_on_c, 2, 77, 55
1, 104183, Note_on_c, 2, 77, 0
1, 104187, Note_on_c, 2, 53, 0
1, 104196, Note_on_c, 2, 56, 36
1, 104196, Note_on_c, 2, 75, 52
1, 104216, Note_on_c, 2, 75, 0
1, 104220, Note_on_c, 2, 74, 41
1, 104245, Note_on_c, 2, 74, 0
1, 104245, Note_on_c, 2, 53, 40
1, 104245, Note_on_c, 2, 77, 55
1, 104249, Note_on_c, 2, 56, 0
1, 104261, Note_on_c, 2, 51, 0
1, 104274, Note_on_c, 2, 53, 0
1, 104283, Note_on_c, 2, 74, 52
1, 104287, Note_on_c, 2, 77, 0
1, 104304, Note_on_c, 2, 75, 68
1, 104304, Note_on_c, 2, 51, 51
1, 104304, Note_on_c, 2, 55, 45
1, 104320, Note_on_c, 2, 74, 0
1, 104329, Note_on_c, 2, 75, 0
1, 104366, Note_on_c, 2, 77, 54
1, 104379, Note_on_c, 2, 75, 68
1, 104391, Note_on_c, 2, 77, 0
1, 104400, Note_on_c, 2, 75, 0
1, 104404, Note_on_c, 2, 74, 57
1, 104425, Note_on_c, 2, 75, 46
1, 104450, Note_on_c, 2, 77, 48
1, 104458, Note_on_c, 2, 75, 0
1, 104458, Note_on_c, 2, 74, 0
1, 104483, Note_on_c, 2, 78, 50
1, 104491, Note_on_c, 2, 77, 0
1, 104508, Note_on_c, 2, 79, 46
1, 104512, Note_on_c, 2, 78, 0
1, 104533, Note_on_c, 2, 79, 0
1, 104537, Note_on_c, 2, 70, 62
1, 104545, Note_on_c, 2, 51, 0
1, 104550, Note_on_c, 2, 55, 0
1, 104558, Note_on_c, 2, 70, 0
1, 104650, Note_on_c, 2, 70, 55
1, 104650, Note_on_c, 2, 67, 55
1, 104650, Note_on_c, 2, 55, 54
1, 104650, Note_on_c, 2, 58, 48
1, 104716, Note_on_c, 2, 67, 0
1, 104720, Note_on_c, 2, 70, 0
1, 104721, Note_on_c, 2, 55, 0
1, 104721, Note_on_c, 2, 58, 0
1, 104754, Note_on_c, 2, 68, 60
1, 104755, Note_on_c, 2, 56, 53
1, 104755, Note_on_c, 2, 60, 44
1, 104755, Note_on_c, 2, 65, 51
1, 104812, Note_on_c, 2, 56, 0
1, 104825, Note_on_c, 2, 65, 0
1, 104829, Note_on_c, 2, 60, 0
1, 104829, Note_on_c, 2, 68, 0
1, 104866, Note_on_c, 2, 67, 59
1, 104866, Note_on_c, 2, 63, 59
1, 104866, Note_on_c, 2, 60, 40
1, 104866, Note_on_c, 2, 57, 48
1, 104908, Note_on_c, 2, 57, 0
1, 104915, Note_on_c, 2, 67, 0
1, 104933, Note_on_c, 2, 60, 0
1, 104936, Note_on_c, 2, 63, 0
1, 104972, Note_on_c, 2, 58, 59
1, 104972, Note_on_c, 2, 63, 54
1, 104972, Note_on_c, 2, 70, 56
1, 105020, Note_on_c, 2, 63, 0
1, 105021, Note_on_c, 2, 70, 0
1, 105029, Note_on_c, 2, 69, 56
1, 105066, Note_on_c, 2, 69, 0
1, 105083, Note_on_c, 2, 70, 51
1, 105133, Note_on_c, 2, 70, 0
1, 105133, Note_on_c, 2, 67, 56
1, 105183, Note_on_c, 2, 67, 0
1, 105187, Note_on_c, 2, 65, 66
1, 105187, Note_on_c, 2, 62, 57
1, 105237, Note_on_c, 2, 59, 65
1, 105247, Note_on_c, 2, 58, 0
1, 105287, Note_on_c, 2, 59, 0
1, 105288, Note_on_c, 2, 60, 66
1, 105338, Note_on_c, 2, 58, 56
1, 105346, Note_on_c, 2, 60, 0
1, 105354, Note_on_c, 2, 58, 0
1, 105392, Note_on_c, 2, 58, 70
1, 105442, Note_on_c, 2, 56, 56
1, 105454, Note_on_c, 2, 58, 0
1, 105484, Note_on_c, 2, 56, 0
1, 105496, Note_on_c, 2, 55, 54
1, 105517, Note_on_c, 2, 62, 0
1, 105521, Note_on_c, 2, 65, 0
1, 105554, Note_on_c, 2, 55, 0
1, 105560, Note_on_c, 2, 53, 56
1, 105596, Note_on_c, 2, 70, 60
1, 105605, Note_on_c, 2, 53, 0
1, 105608, Note_on_c, 2, 51, 62
1, 105608, Note_on_c, 2, 82, 63
1, 105704, Note_on_c, 2, 55, 53
1, 105808, Note_on_c, 2, 58, 52
1, 105825, Note_on_c, 2, 55, 0
1, 105858, Note_on_c, 2, 70, 0
1, 105912, Note_on_c, 2, 51, 0
1, 105912, Note_on_c, 2, 63, 41
1, 105912, Note_on_c, 2, 80, 53
1, 105917, Note_on_c, 2, 58, 0
1, 105925, Note_on_c, 2, 82, 0
1, 105928, Note_on_c, 2, 63, 0
1, 105941, Note_on_c, 2, 80, 0
1, 105946, Note_on_c, 2, 79, 47
1, 105967, Note_on_c, 2, 77, 49
1, 105979, Note_on_c, 2, 79, 0
1, 105988, Note_on_c, 2, 75, 65
1, 105996, Note_on_c, 2, 77, 0
1, 106017, Note_on_c, 2, 65, 58
1, 106017, Note_on_c, 2, 68, 52
1, 106017, Note_on_c, 2, 74, 68
1, 106020, Note_on_c, 2, 75, 0
1, 106059, Note_on_c, 2, 65, 0
1, 106101, Note_on_c, 2, 68, 0
1, 106113, Note_on_c, 2, 74, 0
1, 106122, Note_on_c, 2, 75, 47
1, 106122, Note_on_c, 2, 63, 48
1, 106122, Note_on_c, 2, 67, 52
1, 106176, Note_on_c, 2, 63, 0
1, 106179, Note_on_c, 2, 67, 0
1, 106198, Note_on_c, 2, 75, 0
1, 106226, Note_on_c, 2, 77, 52
1, 106226, Note_on_c, 2, 74, 53
1, 106226, Note_on_c, 2, 65, 47
1, 106226, Note_on_c, 2, 62, 42
1, 106262, Note_on_c, 2, 62, 0
1, 106266, Note_on_c, 2, 77, 0
1, 106275, Note_on_c, 2, 65, 0
1, 106292, Note_on_c, 2, 74, 0
1, 106330, Note_on_c, 2, 80, 42
1, 106330, Note_on_c, 2, 63, 51
1, 106330, Note_on_c, 2, 67, 40
1, 106354, Note_on_c, 2, 79, 54
1, 106363, Note_on_c, 2, 67, 0
1, 106367, Note_on_c, 2, 80, 0
1, 106371, Note_on_c, 2, 63, 0
1, 106384, Note_on_c, 2, 79, 0
1, 106384, Note_on_c, 2, 77, 46
1, 106409, Note_on_c, 2, 77, 0
1, 106409, Note_on_c, 2, 79, 45
1, 106438, Note_on_c, 2, 65, 46
1, 106438, Note_on_c, 2, 77, 63
1, 106438, Note_on_c, 2, 80, 56
1, 106438, Note_on_c, 2, 62, 53
1, 106442, Note_on_c, 2, 79, 0
1, 106504, Note_on_c, 2, 77, 0
1, 106533, Note_on_c, 2, 80, 0
1, 106542, Note_on_c, 2, 70, 65
1, 106580, Note_on_c, 2, 70, 0
1, 106650, Note_on_c, 2, 70, 72
1, 106684, Note_on_c, 2, 70, 0
1, 106758, Note_on_c, 2, 70, 83
1, 106796, Note_on_c, 2, 70, 0
1, 106796, Note_on_c, 2, 65, 0
1, 106813, Note_on_c, 2, 62, 0
1, 106867, Note_on_c, 2, 80, 88
1, 106963, Note_on_c, 2, 58, 62
1, 107059, Note_on_c, 2, 62, 66
1, 107155, Note_on_c, 2, 65, 55
1, 107155, Note_on_c, 2, 82, 52
1, 107158, Note_on_c, 2, 80, 0
1, 107171, Note_on_c, 2, 62, 0
1, 107176, Note_on_c, 2, 58, 0
1, 107177, Note_on_c, 2, 65, 0
1, 107184, Note_on_c, 2, 80, 48
1, 107188, Note_on_c, 2, 82, 0
1, 107204, Note_on_c, 2, 79, 45
1, 107226, Note_on_c, 2, 77, 48
1, 107238, Note_on_c, 2, 80, 0
1, 107255, Note_on_c, 2, 75, 65
1, 107255, Note_on_c, 2, 67, 51
1, 107259, Note_on_c, 2, 79, 0
1, 107280, Note_on_c, 2, 77, 0
1, 107292, Note_on_c, 2, 67, 0
1, 107326, Note_on_c, 2, 75, 0
1, 107359, Note_on_c, 2, 70, 46
1, 107359, Note_on_c, 2, 68, 49
1, 107359, Note_on_c, 2, 77, 54
1, 107392, Note_on_c, 2, 68, 0
1, 107425, Note_on_c, 2, 70, 0
1, 107434, Note_on_c, 2, 77, 0
1, 107463, Note_on_c, 2, 75, 49
1, 107463, Note_on_c, 2, 79, 46
1, 107463, Note_on_c, 2, 70, 40
1, 107463, Note_on_c, 2, 67, 43
1, 107484, Note_on_c, 2, 67, 0
1, 107484, Note_on_c, 2, 70, 0
1, 107488, Note_on_c, 2, 79, 0
1, 107513, Note_on_c, 2, 75, 0
1, 107568, Note_on_c, 2, 65, 45
1, 107568, Note_on_c, 2, 68, 34
1, 107568, Note_on_c, 2, 82, 41
1, 107592, Note_on_c, 2, 80, 59
1, 107601, Note_on_c, 2, 82, 0
1, 107622, Note_on_c, 2, 80, 0
1, 107625, Note_on_c, 2, 79, 41
1, 107646, Note_on_c, 2, 80, 45
1, 107651, Note_on_c, 2, 79, 0
1, 107652, Note_on_c, 2, 68, 0
1, 107653, Note_on_c, 2, 65, 0
1, 107684, Note_on_c, 2, 80, 0
1, 107684, Note_on_c, 2, 63, 52
1, 107684, Note_on_c, 2, 67, 48
1, 107684, Note_on_c, 2, 79, 59
1, 107684, Note_on_c, 2, 82, 65
1, 107765, Note_on_c, 2, 67, 0
1, 107773, Note_on_c, 2, 63, 0
1, 107792, Note_on_c, 2, 51, 73
1, 107793, Note_on_c, 2, 39, 70
1, 107872, Note_on_c, 2, 51, 0
1, 107873, Note_on_c, 2, 39, 0
1, 107905, Note_on_c, 2, 39, 70
1, 107905, Note_on_c, 2, 51, 70
1, 107985, Note_on_c, 2, 39, 0
1, 107992, Note_on_c, 2, 82, 0
1, 107992, Note_on_c, 2, 79, 0
1, 107994, Note_on_c, 2, 51, 0
1, 108022, Note_on_c, 2, 39, 54
1, 108022, Note_on_c, 2, 51, 54
1, 108147, Note_on_c, 2, 73, 100
1, 108155, Note_on_c, 2, 39, 0
1, 108163, Note_on_c, 2, 51, 0
1, 108263, Note_on_c, 2, 55, 56
1, 108263, Note_on_c, 2, 63, 48
1, 108317, Note_on_c, 2, 55, 0
1, 108326, Note_on_c, 2, 63, 0
1, 108384, Note_on_c, 2, 63, 45
1, 108384, Note_on_c, 2, 55, 47
1, 108401, Note_on_c, 2, 73, 0
1, 108443, Note_on_c, 2, 75, 46
1, 108451, Note_on_c, 2, 73, 72
1, 108455, Note_on_c, 2, 63, 0
1, 108459, Note_on_c, 2, 55, 0
1, 108468, Note_on_c, 2, 75, 0
1, 108471, Note_on_c, 2, 73, 0
1, 108471, Note_on_c, 2, 72, 52
1, 108492, Note_on_c, 2, 73, 46
1, 108509, Note_on_c, 2, 75, 56
1, 108509, Note_on_c, 2, 55, 47
1, 108509, Note_on_c, 2, 63, 44
1, 108513, Note_on_c, 2, 72, 0
1, 108522, Note_on_c, 2, 73, 0
1, 108576, Note_on_c, 2, 77, 48
1, 108584, Note_on_c, 2, 63, 0
1, 108588, Note_on_c, 2, 75, 0
1, 108592, Note_on_c, 2, 55, 0
1, 108638, Note_on_c, 2, 63, 34
1, 108639, Note_on_c, 2, 55, 36
1, 108639, Note_on_c, 2, 75, 54
1, 108647, Note_on_c, 2, 77, 0
1, 108710, Note_on_c, 2, 73, 39
1, 108722, Note_on_c, 2, 63, 0
1, 108722, Note_on_c, 2, 75, 0
1, 108730, Note_on_c, 2, 55, 0
1, 108780, Note_on_c, 2, 72, 45
1, 108780, Note_on_c, 2, 63, 29
1, 108780, Note_on_c, 2, 55, 40
1, 108788, Note_on_c, 2, 73, 0
1, 108851, Note_on_c, 2, 72, 0
1, 108851, Note_on_c, 2, 71, 53
1, 108867, Note_on_c, 2, 71, 0
1, 108918, Note_on_c, 2, 71, 60
1, 108955, Note_on_c, 2, 55, 0
1, 108967, Note_on_c, 2, 63, 0
1, 109034, Note_on_c, 2, 55, 40
1, 109034, Note_on_c, 2, 63, 31
1, 109064, Note_on_c, 2, 55, 0
1, 109076, Note_on_c, 2, 63, 0
1, 109164, Note_on_c, 2, 56, 48
1, 109164, Note_on_c, 2, 63, 27
1, 109230, Note_on_c, 2, 72, 45
1, 109255, Note_on_c, 2, 56, 0
1, 109255, Note_on_c, 2, 71, 0
1, 109260, Note_on_c, 2, 63, 0
1, 109292, Note_on_c, 2, 75, 45
1, 109292, Note_on_c, 2, 56, 40
1, 109292, Note_on_c, 2, 63, 31
1, 109301, Note_on_c, 2, 72, 0
1, 109355, Note_on_c, 2, 74, 46
1, 109364, Note_on_c, 2, 56, 0
1, 109366, Note_on_c, 2, 75, 0
1, 109367, Note_on_c, 2, 63, 0
1, 109422, Note_on_c, 2, 56, 39
1, 109422, Note_on_c, 2, 63, 29
1, 109422, Note_on_c, 2, 77, 47
1, 109426, Note_on_c, 2, 74, 0
1, 109480, Note_on_c, 2, 56, 0
1, 109489, Note_on_c, 2, 77, 0
1, 109489, Note_on_c, 2, 75, 40
1, 109517, Note_on_c, 2, 63, 0
1, 109564, Note_on_c, 2, 57, 39
1, 109564, Note_on_c, 2, 63, 31
1, 109564, Note_on_c, 2, 74, 39
1, 109630, Note_on_c, 2, 74, 0
1, 109630, Note_on_c, 2, 75, 0
1, 109630, Note_on_c, 2, 72, 44
1, 109652, Note_on_c, 2, 72, 0
1, 109660, Note_on_c, 2, 57, 0
1, 109673, Note_on_c, 2, 63, 0
1, 109710, Note_on_c, 2, 58, 41
1, 109710, Note_on_c, 2, 63, 27
1, 109710, Note_on_c, 2, 70, 56
1, 109755, Note_on_c, 2, 70, 0
1, 109759, Note_on_c, 2, 71, 48
1, 109802, Note_on_c, 2, 72, 50
1, 109818, Note_on_c, 2, 63, 0
1, 109851, Note_on_c, 2, 71, 0
1, 109855, Note_on_c, 2, 72, 0
1, 109855, Note_on_c, 2, 63, 34
1, 109855, Note_on_c, 2, 73, 48
1, 109884, Note_on_c, 2, 58, 0
1, 109897, Note_on_c, 2, 74, 49
1, 109905, Note_on_c, 2, 73, 0
1, 109938, Note_on_c, 2, 74, 0
1, 109940, Note_on_c, 2, 63, 0
1, 109943, Note_on_c, 2, 75, 35
1, 109964, Note_on_c, 2, 75, 0
1, 110001, Note_on_c, 2, 46, 50
1, 110001, Note_on_c, 2, 55, 50
1, 110001, Note_on_c, 2, 75, 54
1, 110045, Note_on_c, 2, 63, 44
1, 110080, Note_on_c, 2, 75, 0
1, 110112, Note_on_c, 2, 55, 0
1, 110156, Note_on_c, 2, 55, 48
1, 110192, Note_on_c, 2, 46, 0
1, 110210, Note_on_c, 2, 55, 0
1, 110299, Note_on_c, 2, 63, 0
1, 110318, Note_on_c, 2, 46, 26
1, 110318, Note_on_c, 2, 56, 23
1, 110318, Note_on_c, 2, 62, 44
1, 110318, Note_on_c, 2, 67, 32
1, 110397, Note_on_c, 2, 65, 52
1, 110405, Note_on_c, 2, 67, 0
1, 110412, Note_on_c, 2, 62, 0
1, 110442, Note_on_c, 2, 56, 0
1, 110464, Note_on_c, 2, 63, 45
1, 110464, Note_on_c, 2, 56, 35
1, 110468, Note_on_c, 2, 65, 0
1, 110522, Note_on_c, 2, 65, 50
1, 110531, Note_on_c, 2, 63, 0
1, 110539, Note_on_c, 2, 46, 0
1, 110572, Note_on_c, 2, 56, 0
1, 110589, Note_on_c, 2, 63, 70
1, 110597, Note_on_c, 2, 65, 0
1, 110647, Note_on_c, 2, 51, 62
1, 110701, Note_on_c, 2, 55, 50
1, 110760, Note_on_c, 2, 58, 52
1, 110768, Note_on_c, 2, 51, 0
1, 110772, Note_on_c, 2, 55, 0
1, 110818, Note_on_c, 2, 56, 40
1, 110830, Note_on_c, 2, 58, 0
1, 110839, Note_on_c, 2, 63, 0
1, 110880, Note_on_c, 2, 58, 40
1, 110922, Note_on_c, 2, 56, 0
1, 110927, Note_on_c, 2, 55, 53
1, 110927, Note_on_c, 2, 63, 45
1, 110927, Note_on_c, 2, 70, 50
1, 110935, Note_on_c, 2, 58, 0
1, 110981, Note_on_c, 2, 58, 40
1, 111002, Note_on_c, 2, 55, 0
1, 111005, Note_on_c, 2, 70, 0
1, 111011, Note_on_c, 2, 63, 0
1, 111034, Note_on_c, 2, 53, 42
1, 111034, Note_on_c, 2, 70, 54
1, 111034, Note_on_c, 2, 65, 53
1, 111052, Note_on_c, 2, 58, 0
1, 111084, Note_on_c, 2, 53, 0
1, 111094, Note_on_c, 2, 58, 39
1, 111096, Note_on_c, 2, 65, 0
1, 111097, Note_on_c, 2, 70, 0
1, 111139, Note_on_c, 2, 51, 47
1, 111139, Note_on_c, 2, 67, 50
1, 111139, Note_on_c, 2, 70, 52
1, 111143, Note_on_c, 2, 58, 0
1, 111176, Note_on_c, 2, 67, 0
1, 111193, Note_on_c, 2, 51, 0
1, 111193, Note_on_c, 2, 70, 0
1, 111198, Note_on_c, 2, 58, 42
1, 111231, Note_on_c, 2, 58, 0
1, 111251, Note_on_c, 2, 50, 52
1, 111251, Note_on_c, 2, 68, 51
1, 111251, Note_on_c, 2, 70, 50
1, 111306, Note_on_c, 2, 53, 40
1, 111355, Note_on_c, 2, 50, 0
1, 111360, Note_on_c, 2, 56, 38
1, 111372, Note_on_c, 2, 53, 0
1, 111381, Note_on_c, 2, 70, 0
1, 111388, Note_on_c, 2, 68, 0
1, 111389, Note_on_c, 2, 72, 49
1, 111414, Note_on_c, 2, 70, 43
1, 111414, Note_on_c, 2, 55, 43
1, 111418, Note_on_c, 2, 56, 0
1, 111422, Note_on_c, 2, 72, 0
1, 111439, Note_on_c, 2, 69, 47
1, 111448, Note_on_c, 2, 70, 0
1, 111473, Note_on_c, 2, 53, 37
1, 111473, Note_on_c, 2, 70, 53
1, 111485, Note_on_c, 2, 69, 0
1, 111485, Note_on_c, 2, 55, 0
1, 111539, Note_on_c, 2, 51, 48
1, 111547, Note_on_c, 2, 70, 0
1, 111553, Note_on_c, 2, 53, 0
1, 111593, Note_on_c, 2, 50, 59
1, 111593, Note_on_c, 2, 62, 51
1, 111593, Note_on_c, 2, 70, 59
1, 111622, Note_on_c, 2, 51, 0
1, 111643, Note_on_c, 2, 50, 0
1, 111647, Note_on_c, 2, 48, 49
1, 111660, Note_on_c, 2, 62, 0
1, 111668, Note_on_c, 2, 48, 0
1, 111689, Note_on_c, 2, 70, 0
1, 111702, Note_on_c, 2, 46, 50
1, 111702, Note_on_c, 2, 63, 53
1, 111702, Note_on_c, 2, 72, 56
1, 111760, Note_on_c, 2, 46, 0
1, 111760, Note_on_c, 2, 48, 35
1, 111776, Note_on_c, 2, 63, 0
1, 111780, Note_on_c, 2, 48, 0
1, 111793, Note_on_c, 2, 72, 0
1, 111814, Note_on_c, 2, 44, 51
1, 111814, Note_on_c, 2, 65, 45
1, 111814, Note_on_c, 2, 74, 55
1, 111873, Note_on_c, 2, 46, 51
1, 111898, Note_on_c, 2, 46, 0
1, 111928, Note_on_c, 2, 65, 0
1, 111932, Note_on_c, 2, 74, 0
1, 111939, Note_on_c, 2, 43, 41
1, 111939, Note_on_c, 2, 67, 39
1, 111939, Note_on_c, 2, 75, 43
1, 111941, Note_on_c, 2, 44, 0
1, 112002, Note_on_c, 2, 46, 55
1, 112085, Note_on_c, 2, 51, 59
1, 112123, Note_on_c, 2, 77, 47
1, 112131, Note_on_c, 2, 43, 0
1, 112135, Note_on_c, 2, 51, 0
1, 112135, Note_on_c, 2, 75, 0
1, 112147, Note_on_c, 2, 43, 42
1, 112150, Note_on_c, 2, 79, 38
1, 112152, Note_on_c, 2, 46, 0
1, 112164, Note_on_c, 2, 77, 0
1, 112181, Note_on_c, 2, 75, 40
1, 112196, Note_on_c, 2, 79, 0
1, 112210, Note_on_c, 2, 43, 0
1, 112215, Note_on_c, 2, 70, 44
1, 112215, Note_on_c, 2, 55, 40
1, 112222, Note_on_c, 2, 75, 0
1, 112235, Note_on_c, 2, 55, 0
1, 112235, Note_on_c, 2, 70, 0
1, 112252, Note_on_c, 2, 67, 0
1, 112339, Note_on_c, 2, 70, 54
1, 112339, Note_on_c, 2, 67, 45
1, 112339, Note_on_c, 2, 55, 46
1, 112339, Note_on_c, 2, 51, 42
1, 112381, Note_on_c, 2, 51, 0
1, 112385, Note_on_c, 2, 55, 0
1, 112405, Note_on_c, 2, 67, 0
1, 112410, Note_on_c, 2, 70, 0
1, 112452, Note_on_c, 2, 53, 46
1, 112452, Note_on_c, 2, 56, 44
1, 112452, Note_on_c, 2, 65, 44
1, 112452, Note_on_c, 2, 68, 46
1, 112498, Note_on_c, 2, 53, 0
1, 112502, Note_on_c, 2, 56, 0
1, 112510, Note_on_c, 2, 65, 0
1, 112510, Note_on_c, 2, 68, 0
1, 112564, Note_on_c, 2, 55, 39
1, 112564, Note_on_c, 2, 58, 31
1, 112564, Note_on_c, 2, 63, 44
1, 112564, Note_on_c, 2, 67, 54
1, 112657, Note_on_c, 2, 67, 0
1, 112660, Note_on_c, 2, 55, 0
1, 112663, Note_on_c, 2, 58, 0
1, 112664, Note_on_c, 2, 63, 0
1, 112685, Note_on_c, 2, 65, 42
1, 112685, Note_on_c, 2, 60, 37
1, 112685, Note_on_c, 2, 56, 49
1, 112852, Note_on_c, 2, 67, 42
1, 112859, Note_on_c, 2, 65, 0
1, 112881, Note_on_c, 2, 68, 39
1, 112894, Note_on_c, 2, 67, 0
1, 112910, Note_on_c, 2, 65, 31
1, 112922, Note_on_c, 2, 68, 0
1, 112944, Note_on_c, 2, 72, 54
1, 112964, Note_on_c, 2, 60, 0
1, 112964, Note_on_c, 2, 65, 0
1, 112977, Note_on_c, 2, 56, 0
1, 112977, Note_on_c, 2, 72, 0
1, 113069, Note_on_c, 2, 68, 54
1, 113069, Note_on_c, 2, 60, 51
1, 113069, Note_on_c, 2, 53, 47
1, 113069, Note_on_c, 2, 44, 63
1, 113106, Note_on_c, 2, 44, 0
1, 113106, Note_on_c, 2, 68, 0
1, 113119, Note_on_c, 2, 53, 0
1, 113120, Note_on_c, 2, 60, 0
1, 113190, Note_on_c, 2, 63, 46
1, 113190, Note_on_c, 2, 58, 55
1, 113190, Note_on_c, 2, 55, 42
1, 113190, Note_on_c, 2, 46, 53
1, 113223, Note_on_c, 2, 46, 0
1, 113232, Note_on_c, 2, 55, 0
1, 113235, Note_on_c, 2, 63, 0
1, 113245, Note_on_c, 2, 58, 0
1, 113311, Note_on_c, 2, 46, 46
1, 113311, Note_on_c, 2, 56, 45
1, 113311, Note_on_c, 2, 62, 53
1, 113311, Note_on_c, 2, 65, 55
1, 113344, Note_on_c, 2, 46, 0
1, 113356, Note_on_c, 2, 56, 0
1, 113356, Note_on_c, 2, 62, 0
1, 113369, Note_on_c, 2, 65, 0
1, 113436, Note_on_c, 2, 65, 68
1, 113436, Note_on_c, 2, 62, 63
1, 113436, Note_on_c, 2, 56, 65
1, 113436, Note_on_c, 2, 51, 61
1, 113615, Note_on_c, 2, 66, 45
1, 113635, Note_on_c, 2, 62, 0
1, 113640, Note_on_c, 2, 51, 0
1, 113643, Note_on_c, 2, 65, 0
1, 113648, Note_on_c, 2, 66, 0
1, 113649, Note_on_c, 2, 56, 0
1, 113669, Note_on_c, 2, 51, 47
1, 113669, Note_on_c, 2, 55, 52
1, 113669, Note_on_c, 2, 63, 62
1, 113669, Note_on_c, 2, 67, 59
1, 113736, Note_on_c, 2, 67, 0
1, 113736, Note_on_c, 2, 63, 52
1, 113742, Note_on_c, 2, 51, 0
1, 113746, Note_on_c, 2, 55, 0
1, 113754, Note_on_c, 2, 63, 0
1, 113790, Note_on_c, 2, 67, 35
1, 113790, Note_on_c, 2, 75, 35
1, 113790, Note_on_c, 2, 82, 47
1, 113832, Note_on_c, 2, 63, 0
1, 113844, Note_on_c, 2, 70, 45
1, 113888, Note_on_c, 2, 67, 0
1, 113888, Note_on_c, 2, 75, 0
1, 113895, Note_on_c, 2, 82, 0
1, 113898, Note_on_c, 2, 82, 54
1, 113898, Note_on_c, 2, 68, 51
1, 113898, Note_on_c, 2, 77, 55
1, 113952, Note_on_c, 2, 70, 0
1, 113952, Note_on_c, 2, 67, 45
1, 113964, Note_on_c, 2, 77, 0
1, 113973, Note_on_c, 2, 82, 0
1, 113978, Note_on_c, 2, 68, 0
1, 113981, Note_on_c, 2, 67, 0
1, 114010, Note_on_c, 2, 82, 52
1, 114010, Note_on_c, 2, 65, 53
1, 114010, Note_on_c, 2, 67, 45
1, 114010, Note_on_c, 2, 79, 55
1, 114027, Note_on_c, 2, 67, 0
1, 114035, Note_on_c, 2, 65, 0
1, 114044, Note_on_c, 2, 79, 0
1, 114060, Note_on_c, 2, 82, 0
1, 114065, Note_on_c, 2, 63, 60
1, 114082, Note_on_c, 2, 63, 0
1, 114119, Note_on_c, 2, 62, 47
1, 114119, Note_on_c, 2, 80, 65
1, 114119, Note_on_c, 2, 82, 68
1, 114182, Note_on_c, 2, 65, 46
1, 114201, Note_on_c, 2, 62, 0
1, 114231, Note_on_c, 2, 65, 0
1, 114232, Note_on_c, 2, 68, 50
1, 114244, Note_on_c, 2, 82, 0
1, 114248, Note_on_c, 2, 80, 0
1, 114248, Note_on_c, 2, 84, 50
1, 114277, Note_on_c, 2, 67, 46
1, 114277, Note_on_c, 2, 82, 57
1, 114286, Note_on_c, 2, 68, 0
1, 114290, Note_on_c, 2, 84, 0
1, 114302, Note_on_c, 2, 81, 59
1, 114311, Note_on_c, 2, 82, 0
1, 114336, Note_on_c, 2, 82, 62
1, 114336, Note_on_c, 2, 65, 45
1, 114339, Note_on_c, 2, 67, 0
1, 114344, Note_on_c, 2, 81, 0
1, 114390, Note_on_c, 2, 63, 42
1, 114398, Note_on_c, 2, 65, 0
1, 114402, Note_on_c, 2, 82, 0
1, 114440, Note_on_c, 2, 62, 49
1, 114440, Note_on_c, 2, 74, 56
1, 114440, Note_on_c, 2, 82, 65
1, 114465, Note_on_c, 2, 63, 0
1, 114494, Note_on_c, 2, 62, 0
1, 114498, Note_on_c, 2, 60, 44
1, 114506, Note_on_c, 2, 74, 0
1, 114519, Note_on_c, 2, 60, 0
1, 114548, Note_on_c, 2, 82, 0
1, 114553, Note_on_c, 2, 58, 47
1, 114553, Note_on_c, 2, 75, 54
1, 114553, Note_on_c, 2, 84, 56
1, 114610, Note_on_c, 2, 60, 45
1, 114624, Note_on_c, 2, 58, 0
1, 114632, Note_on_c, 2, 60, 0
1, 114636, Note_on_c, 2, 75, 0
1, 114652, Note_on_c, 2, 84, 0
1, 114669, Note_on_c, 2, 56, 51
1, 114670, Note_on_c, 2, 77, 50
1, 114670, Note_on_c, 2, 86, 66
1, 114723, Note_on_c, 2, 58, 57
1, 114744, Note_on_c, 2, 56, 0
1, 114782, Note_on_c, 2, 77, 0
1, 114786, Note_on_c, 2, 86, 0
1, 114799, Note_on_c, 2, 55, 40
1, 114799, Note_on_c, 2, 79, 44
1, 114799, Note_on_c, 2, 87, 54
1, 114856, Note_on_c, 2, 58, 0
1, 114857, Note_on_c, 2, 58, 40
1, 114920, Note_on_c, 2, 63, 53
1, 114932, Note_on_c, 2, 55, 0
1, 114944, Note_on_c, 2, 87, 0
1, 114953, Note_on_c, 2, 86, 45
1, 114969, Note_on_c, 2, 63, 0
1, 114974, Note_on_c, 2, 58, 0
1, 114978, Note_on_c, 2, 55, 45
1, 114978, Note_on_c, 2, 87, 47
1, 114986, Note_on_c, 2, 86, 0
1, 114999, Note_on_c, 2, 79, 0
1, 115015, Note_on_c, 2, 82, 53
1, 115028, Note_on_c, 2, 87, 0
1, 115049, Note_on_c, 2, 63, 40
1, 115049, Note_on_c, 2, 79, 60
1, 115052, Note_on_c, 2, 82, 0
1, 115070, Note_on_c, 2, 55, 0
1, 115086, Note_on_c, 2, 63, 0
1, 115086, Note_on_c, 2, 79, 0
1, 115169, Note_on_c, 2, 63, 45
1, 115169, Note_on_c, 2, 67, 44
1, 115169, Note_on_c, 2, 79, 39
1, 115169, Note_on_c, 2, 82, 52
1, 115215, Note_on_c, 2, 67, 0
1, 115215, Note_on_c, 2, 63, 0
1, 115239, Note_on_c, 2, 79, 0
1, 115252, Note_on_c, 2, 82, 0
1, 115290, Note_on_c, 2, 65, 45
1, 115290, Note_on_c, 2, 68, 40
1, 115290, Note_on_c, 2, 77, 42
1, 115290, Note_on_c, 2, 80, 42
1, 115370, Note_on_c, 2, 65, 0
1, 115383, Note_on_c, 2, 80, 0
1, 115387, Note_on_c, 2, 77, 0
1, 115387, Note_on_c, 2, 68, 0
1, 115416, Note_on_c, 2, 67, 45
1, 115416, Note_on_c, 2, 70, 29
1, 115416, Note_on_c, 2, 75, 45
1, 115416, Note_on_c, 2, 79, 53
1, 115491, Note_on_c, 2, 70, 0
1, 115495, Note_on_c, 2, 75, 0
1, 115512, Note_on_c, 2, 67, 0
1, 115528, Note_on_c, 2, 79, 0
1, 115540, Note_on_c, 2, 68, 45
1, 115540, Note_on_c, 2, 72, 48
1, 115540, Note_on_c, 2, 76, 46
1, 115574, Note_on_c, 2, 77, 46
1, 115590, Note_on_c, 2, 76, 0
1, 115603, Note_on_c, 2, 79, 50
1, 115611, Note_on_c, 2, 77, 0
1, 115632, Note_on_c, 2, 77, 44
1, 115640, Note_on_c, 2, 79, 0
1, 115665, Note_on_c, 2, 80, 55
1, 115669, Note_on_c, 2, 77, 0
1, 115694, Note_on_c, 2, 79, 47
1, 115702, Note_on_c, 2, 80, 0
1, 115736, Note_on_c, 2, 82, 47
1, 115740, Note_on_c, 2, 79, 0
1, 115757, Note_on_c, 2, 80, 52
1, 115761, Note_on_c, 2, 82, 0
1, 115794, Note_on_c, 2, 80, 0
1, 115798, Note_on_c, 2, 84, 66
1, 115878, Note_on_c, 2, 72, 0
1, 115891, Note_on_c, 2, 68, 0
1, 116067, Note_on_c, 2, 68, 40
1, 116067, Note_on_c, 2, 62, 54
1, 116067, Note_on_c, 2, 58, 44
1, 116067, Note_on_c, 2, 82, 56
1, 116073, Note_on_c, 2, 84, 0
1, 116195, Note_on_c, 2, 62, 0
1, 116203, Note_on_c, 2, 65, 43
1, 116212, Note_on_c, 2, 58, 0
1, 116216, Note_on_c, 2, 65, 0
1, 116236, Note_on_c, 2, 68, 0
1, 116299, Note_on_c, 2, 74, 46
1, 116311, Note_on_c, 2, 82, 0
1, 116332, Note_on_c, 2, 63, 48
1, 116332, Note_on_c, 2, 75, 66
1, 116344, Note_on_c, 2, 74, 0
1, 116395, Note_on_c, 2, 67, 40
1, 116424, Note_on_c, 2, 63, 0
1, 116461, Note_on_c, 2, 67, 0
1, 116461, Note_on_c, 2, 70, 38
1, 116469, Note_on_c, 2, 63, 13
1, 116507, Note_on_c, 2, 63, 0
1, 116517, Note_on_c, 2, 67, 42
1, 116562, Note_on_c, 2, 75, 0
1, 116570, Note_on_c, 2, 70, 0
1, 116570, Note_on_c, 2, 63, 42
1, 116571, Note_on_c, 2, 67, 0
1, 116630, Note_on_c, 2, 67, 38
1, 116658, Note_on_c, 2, 63, 0
1, 116682, Note_on_c, 2, 85, 57
1, 116682, Note_on_c, 2, 70, 36
1, 116686, Note_on_c, 2, 63, 12
1, 116696, Note_on_c, 2, 67, 0
1, 116740, Note_on_c, 2, 63, 0
1, 116740, Note_on_c, 2, 67, 36
1, 116757, Note_on_c, 2, 70, 0
1, 116782, Note_on_c, 2, 67, 0
1, 116799, Note_on_c, 2, 85, 0
1, 116799, Note_on_c, 2, 68, 46
1, 116799, Note_on_c, 2, 84, 57
1, 116849, Note_on_c, 2, 65, 42
1, 116852, Note_on_c, 2, 68, 0
1, 116866, Note_on_c, 2, 65, 0
1, 116908, Note_on_c, 2, 70, 39
1, 116908, Note_on_c, 2, 86, 53
1, 116916, Note_on_c, 2, 84, 0
1, 116966, Note_on_c, 2, 68, 45
1, 117024, Note_on_c, 2, 67, 40
1, 117024, Note_on_c, 2, 89, 57
1, 117028, Note_on_c, 2, 86, 0
1, 117029, Note_on_c, 2, 70, 0
1, 117045, Note_on_c, 2, 68, 0
1, 117082, Note_on_c, 2, 70, 37
1, 117091, Note_on_c, 2, 67, 0
1, 117145, Note_on_c, 2, 67, 40
1, 117145, Note_on_c, 2, 87, 45
1, 117149, Note_on_c, 2, 70, 0
1, 117150, Note_on_c, 2, 89, 0
1, 117203, Note_on_c, 2, 65, 45
1, 117262, Note_on_c, 2, 63, 31
1, 117278, Note_on_c, 2, 65, 0
1, 117278, Note_on_c, 2, 67, 0
1, 117282, Note_on_c, 2, 63, 0
1, 117295, Note_on_c, 2, 87, 0
1, 117324, Note_on_c, 2, 61, 35
1, 117349, Note_on_c, 2, 61, 0
1, 117402, Note_on_c, 2, 58, 63
1, 117402, Note_on_c, 2, 73, 62
1, 117452, Note_on_c, 2, 58, 0
1, 117464, Note_on_c, 2, 55, 47
1, 117519, Note_on_c, 2, 56, 63
1, 117519, Note_on_c, 2, 72, 66
1, 117531, Note_on_c, 2, 55, 0
1, 117535, Note_on_c, 2, 73, 0
1, 117585, Note_on_c, 2, 53, 44
1, 117593, Note_on_c, 2, 56, 0
1, 117631, Note_on_c, 2, 72, 0
1, 117656, Note_on_c, 2, 74, 54
1, 117656, Note_on_c, 2, 68, 41
1, 117656, Note_on_c, 2, 58, 45
1, 117664, Note_on_c, 2, 53, 0
1, 117727, Note_on_c, 2, 46, 66
1, 117744, Note_on_c, 2, 58, 0
1, 117764, Note_on_c, 2, 68, 0
1, 117802, Note_on_c, 2, 74, 0
1, 117802, Note_on_c, 2, 46, 0
1, 117806, Note_on_c, 2, 51, 45
1, 117806, Note_on_c, 2, 68, 49
1, 117806, Note_on_c, 2, 77, 56
1, 117943, Note_on_c, 2, 68, 0
1, 118069, Note_on_c, 2, 75, 45
1, 118069, Note_on_c, 2, 67, 40
1, 118077, Note_on_c, 2, 77, 0
1, 118125, Note_on_c, 2, 75, 0
1, 118128, Note_on_c, 2, 67, 0
1, 118185, Note_on_c, 2, 62, 53
1, 118185, Note_on_c, 2, 65, 54
1, 118302, Note_on_c, 2, 65, 0
1, 118310, Note_on_c, 2, 67, 48
1, 118310, Note_on_c, 2, 63, 41
1, 118322, Note_on_c, 2, 62, 0
1, 118348, Note_on_c, 2, 51, 0
1, 118364, Note_on_c, 2, 63, 0
1, 118373, Note_on_c, 2, 67, 0
1, 118460, Note_on_c, 2, 68, 48
1, 118460, Note_on_c, 2, 65, 46
1, 118460, Note_on_c, 2, 62, 46
1, 118460, Note_on_c, 2, 46, 52
1, 118511, Note_on_c, 2, 46, 0
1, 118548, Note_on_c, 2, 65, 0
1, 118551, Note_on_c, 2, 68, 0
1, 118568, Note_on_c, 2, 62, 0
1, 118640, Note_on_c, 2, 39, 61
1, 118640, Note_on_c, 2, 62, 67
1, 118640, Note_on_c, 2, 68, 61
1, 118641, Note_on_c, 2, 65, 67
1, 118644, Note_on_c, 2, 51, 58
1, 119039, Note_on_c, 2, 46, 51
1, 119231, Note_on_c, 2, 65, 0
1, 119231, Note_on_c, 2, 68, 0
1, 119294, Note_on_c, 2, 62, 0
1, 119294, Note_on_c, 2, 46, 0
1, 119519, Note_on_c, 2, 39, 41
1, 119519, Note_on_c, 2, 63, 40
1, 119519, Note_on_c, 2, 67, 35
1, 119773, Note_on_c, 2, 67, 0
1, 119774, Note_on_c, 2, 39, 0
1, 119777, Note_on_c, 2, 63, 0
1, 120307, Note_on_c, 2, 39, 0
1, 120319, Note_on_c, 2, 51, 0
1, 120329, End_track
0, 0, End_of_file