0, 0, Header, 0, 1, 384
1, 0, Start_track
1, 0, Tempo, 500000
1, 576, Note_on_c, 0, 72, 90
1, 636, Note_on_c, 0, 72, 0
1, 768, Note_on_c, 0, 77, 90
1, 768, Note_on_c, 1, 65, 90
1, 768, Note_on_c, 1, 69, 90
1, 832, Note_on_c, 0, 77, 0
1, 864, Note_on_c, 0, 72, 90
1, 928, Note_on_c, 0, 72, 0
1, 960, Note_on_c, 0, 77, 90
1, 1024, Note_on_c, 0, 77, 0
1, 1056, Note_on_c, 0, 72, 90
1, 1120, Note_on_c, 0, 72, 0
1, 1148, Note_on_c, 1, 65, 0
1, 1148, Note_on_c, 1, 69, 0
1, 1152, Note_on_c, 0, 81, 90
1, 1216, Note_on_c, 0, 81, 0
1, 1248, Note_on_c, 0, 77, 90
1, 1312, Note_on_c, 0, 77, 0
1, 1344, Note_on_c, 0, 81, 90
1, 1408, Note_on_c, 0, 81, 0
1, 1440, Note_on_c, 0, 77, 90
1, 1504, Note_on_c, 0, 77, 0
1, 1536, Note_on_c, 0, 84, 90
1, 1536, Note_on_c, 1, 69, 90
1, 1536, Note_on_c, 1, 65, 90
1, 1664, Note_on_c, 1, 69, 0
1, 1664, Note_on_c, 1, 65, 0
1, 1728, Note_on_c, 1, 65, 90
1, 1728, Note_on_c, 1, 69, 90
1, 1788, Note_on_c, 1, 65, 0
1, 1788, Note_on_c, 1, 69, 0
1, 1792, Note_on_c, 0, 84, 0
1, 1920, Note_on_c, 0, 82, 90
1, 1920, Note_on_c, 1, 69, 90
1, 1920, Note_on_c, 1, 65, 90
1, 1980, Note_on_c, 1, 69, 0
1, 1980, Note_on_c, 1, 65, 0
1, 1984, Note_on_c, 0, 82, 0
1, 2016, Note_on_c, 0, 81, 90
1, 2080, Note_on_c, 0, 81, 0
1, 2112, Note_on_c, 0, 79, 90
1, 2112, Note_on_c, 1, 65, 90
1, 2112, Note_on_c, 1, 69, 90
1, 2172, Note_on_c, 1, 65, 0
1, 2172, Note_on_c, 1, 69, 0
1, 2176, Note_on_c, 0, 79, 0
1, 2208, Note_on_c, 0, 77, 90
1, 2272, Note_on_c, 0, 77, 0
1, 2304, Note_on_c, 0, 76, 90
1, 2304, Note_on_c, 1, 60, 90
1, 2304, Note_on_c, 1, 67, 90
1, 2368, Note_on_c, 0, 76, 0
1, 2400, Note_on_c, 0, 77, 90
1, 2432, Note_on_c, 1, 60, 0
1, 2432, Note_on_c, 1, 67, 0
1, 2464, Note_on_c, 0, 77, 0
1, 2496, Note_on_c, 0, 79, 90
1, 2496, Note_on_c, 1, 60, 90
1, 2496, Note_on_c, 1, 67, 90
1, 2556, Note_on_c, 1, 60, 0
1, 2556, Note_on_c, 1, 67, 0
1, 2560, Note_on_c, 0, 79, 0
1, 2592, Note_on_c, 0, 76, 90
1, 2656, Note_on_c, 0, 76, 0
1, 2688, Note_on_c, 0, 72, 90
1, 2688, Note_on_c, 1, 67, 90
1, 2688, Note_on_c, 1, 60, 90
1, 2748, Note_on_c, 0, 72, 0
1, 2748, Note_on_c, 1, 67, 0
1, 2748, Note_on_c, 1, 60, 0
1, 2880, Note_on_c, 0, 79, 90
1, 2880, Note_on_c, 0, 82, 90
1, 2880, Note_on_c, 1, 67, 90
1, 2880, Note_on_c, 1, 60, 90
1, 2940, Note_on_c, 0, 79, 0
1, 2940, Note_on_c, 0, 82, 0
1, 2940, Note_on_c, 1, 67, 0
1, 2940, Note_on_c, 1, 60, 0
1, 3072, Note_on_c, 0, 79, 90
1, 3072, Note_on_c, 0, 82, 90
1, 3072, Note_on_c, 1, 65, 90
1, 3200, Note_on_c, 1, 65, 0
1, 3264, Note_on_c, 1, 60, 90
1, 3328, Note_on_c, 0, 79, 0
1, 3328, Note_on_c, 0, 82, 0
1, 3392, Note_on_c, 1, 60, 0
1, 3456, Note_on_c, 0, 77, 90
1, 3456, Note_on_c, 0, 81, 90
1, 3456, Note_on_c, 1, 53, 90
1, 3516, Note_on_c, 0, 77, 0
1, 3516, Note_on_c, 0, 81, 0
1, 3584, Note_on_c, 1, 53, 0
1, 3648, Note_on_c, 0, 72, 90
1, 3708, Note_on_c, 0, 72, 0
1, 3840, Note_on_c, 0, 77, 90
1, 3840, Note_on_c, 1, 65, 90
1, 3840, Note_on_c, 1, 69, 90
1, 3904, Note_on_c, 0, 77, 0
1, 3936, Note_on_c, 0, 72, 90
1, 4000, Note_on_c, 0, 72, 0
1, 4032, Note_on_c, 0, 77, 90
1, 4096, Note_on_c, 0, 77, 0
1, 4128, Note_on_c, 0, 72, 90
1, 4192, Note_on_c, 0, 72, 0
1, 4220, Note_on_c, 1, 65, 0
1, 4220, Note_on_c, 1, 69, 0
1, 4224, Note_on_c, 0, 81, 90
1, 4288, Note_on_c, 0, 81, 0
1, 4320, Note_on_c, 0, 77, 90
1, 4384, Note_on_c, 0, 77, 0
1, 4416, Note_on_c, 0, 81, 90
1, 4480, Note_on_c, 0, 81, 0
1, 4512, Note_on_c, 0, 77, 90
1, 4576, Note_on_c, 0, 77, 0
1, 4608, Note_on_c, 0, 84, 90
1, 4608, Note_on_c, 1, 65, 90
1, 4608, Note_on_c, 1, 69, 90
1, 4668, Note_on_c, 1, 65, 0
1, 4668, Note_on_c, 1, 69, 0
1, 4800, Note_on_c, 1, 69, 90
1, 4800, Note_on_c, 1, 65, 90
1, 4860, Note_on_c, 1, 69, 0
1, 4860, Note_on_c, 1, 65, 0
1, 4864, Note_on_c, 0, 84, 0
1, 4992, Note_on_c, 0, 82, 90
1, 4992, Note_on_c, 1, 65, 90
1, 4992, Note_on_c, 1, 69, 90
1, 5052, Note_on_c, 1, 65, 0
1, 5052, Note_on_c, 1, 69, 0
1, 5056, Note_on_c, 0, 82, 0
1, 5088, Note_on_c, 0, 81, 90
1, 5152, Note_on_c, 0, 81, 0
1, 5184, Note_on_c, 0, 79, 90
1, 5184, Note_on_c, 1, 69, 90
1, 5184, Note_on_c, 1, 65, 90
1, 5244, Note_on_c, 1, 69, 0
1, 5244, Note_on_c, 1, 65, 0
1, 5248, Note_on_c, 0, 79, 0
1, 5280, Note_on_c, 0, 77, 90
1, 5344, Note_on_c, 0, 77, 0
1, 5376, Note_on_c, 0, 79, 90
1, 5376, Note_on_c, 1, 67, 90
1, 5376, Note_on_c, 1, 60, 90
1, 5440, Note_on_c, 0, 79, 0
1, 5472, Note_on_c, 0, 81, 90
1, 5536, Note_on_c, 0, 81, 0
1, 5568, Note_on_c, 0, 82, 90
1, 5632, Note_on_c, 0, 82, 0
1, 5664, Note_on_c, 0, 79, 90
1, 5728, Note_on_c, 0, 79, 0
1, 5756, Note_on_c, 1, 67, 0
1, 5756, Note_on_c, 1, 60, 0
1, 5760, Note_on_c, 0, 77, 90
1, 5760, Note_on_c, 1, 67, 90
1, 5760, Note_on_c, 1, 60, 90
1, 5824, Note_on_c, 0, 77, 0
1, 5856, Note_on_c, 0, 76, 90
1, 5920, Note_on_c, 0, 76, 0
1, 5952, Note_on_c, 0, 74, 90
1, 6016, Note_on_c, 0, 74, 0
1, 6048, Note_on_c, 0, 72, 90
1, 6112, Note_on_c, 0, 72, 0
1, 6140, Note_on_c, 1, 67, 0
1, 6140, Note_on_c, 1, 60, 0
1, 6144, Note_on_c, 0, 77, 90
1, 6144, Note_on_c, 1, 65, 90
1, 6524, Note_on_c, 0, 77, 0
1, 6524, Note_on_c, 1, 65, 0
1, 6720, Note_on_c, 0, 72, 100
1, 6908, Note_on_c, 0, 72, 0
1, 6912, Note_on_c, 0, 77, 90
1, 6912, Note_on_c, 1, 65, 90
1, 6912, Note_on_c, 1, 69, 90
1, 6976, Note_on_c, 0, 77, 0
1, 7008, Note_on_c, 0, 72, 90
1, 7072, Note_on_c, 0, 72, 0
1, 7104, Note_on_c, 0, 77, 90
1, 7168, Note_on_c, 0, 77, 0
1, 7200, Note_on_c, 0, 72, 90
1, 7264, Note_on_c, 0, 72, 0
1, 7292, Note_on_c, 1, 65, 0
1, 7292, Note_on_c, 1, 69, 0
1, 7296, Note_on_c, 0, 81, 90
1, 7360, Note_on_c, 0, 81, 0
1, 7392, Note_on_c, 0, 77, 90
1, 7456, Note_on_c, 0, 77, 0
1, 7488, Note_on_c, 0, 81, 90
1, 7552, Note_on_c, 0, 81, 0
1, 7584, Note_on_c, 0, 77, 90
1, 7648, Note_on_c, 0, 77, 0
1, 7680, Note_on_c, 0, 84, 90
1, 7680, Note_on_c, 1, 69, 90
1, 7680, Note_on_c, 1, 65, 90
1, 7808, Note_on_c, 1, 69, 0
1, 7808, Note_on_c, 1, 65, 0
1, 7872, Note_on_c, 1, 65, 90
1, 7872, Note_on_c, 1, 69, 90
1, 7932, Note_on_c, 1, 65, 0
1, 7932, Note_on_c, 1, 69, 0
1, 7936, Note_on_c, 0, 84, 0
1, 8064, Note_on_c, 0, 82, 90
1, 8064, Note_on_c, 1, 69, 90
1, 8064, Note_on_c, 1, 65, 90
1, 8124, Note_on_c, 1, 69, 0
1, 8124, Note_on_c, 1, 65, 0
1, 8128, Note_on_c, 0, 82, 0
1, 8160, Note_on_c, 0, 81, 90
1, 8224, Note_on_c, 0, 81, 0
1, 8256, Note_on_c, 0, 79, 90
1, 8256, Note_on_c, 1, 65, 90
1, 8256, Note_on_c, 1, 69, 90
1, 8316, Note_on_c, 1, 65, 0
1, 8316, Note_on_c, 1, 69, 0
1, 8320, Note_on_c, 0, 79, 0
1, 8352, Note_on_c, 0, 77, 90
1, 8416, Note_on_c, 0, 77, 0
1, 8448, Note_on_c, 0, 76, 90
1, 8448, Note_on_c, 1, 60, 90
1, 8448, Note_on_c, 1, 67, 90
1, 8512, Note_on_c, 0, 76, 0
1, 8544, Note_on_c, 0, 77, 90
1, 8576, Note_on_c, 1, 60, 0
1, 8576, Note_on_c, 1, 67, 0
1, 8608, Note_on_c, 0, 77, 0
1, 8640, Note_on_c, 0, 79, 90
1, 8640, Note_on_c, 1, 60, 90
1, 8640, Note_on_c, 1, 67, 90
1, 8700, Note_on_c, 1, 60, 0
1, 8700, Note_on_c, 1, 67, 0
1, 8704, Note_on_c, 0, 79, 0
1, 8736, Note_on_c, 0, 76, 90
1, 8800, Note_on_c, 0, 76, 0
1, 8832, Note_on_c, 0, 72, 90
1, 8832, Note_on_c, 1, 67, 90
1, 8832, Note_on_c, 1, 60, 90
1, 8892, Note_on_c, 0, 72, 0
1, 8892, Note_on_c, 1, 67, 0
1, 8892, Note_on_c, 1, 60, 0
1, 9024, Note_on_c, 0, 79, 90
1, 9024, Note_on_c, 0, 82, 90
1, 9024, Note_on_c, 1, 67, 90
1, 9024, Note_on_c, 1, 60, 90
1, 9084, Note_on_c, 0, 79, 0
1, 9084, Note_on_c, 0, 82, 0
1, 9084, Note_on_c, 1, 67, 0
1, 9084, Note_on_c, 1, 60, 0
1, 9216, Note_on_c, 0, 79, 90
1, 9216, Note_on_c, 0, 82, 90
1, 9216, Note_on_c, 1, 65, 90
1, 9344, Note_on_c, 1, 65, 0
1, 9408, Note_on_c, 1, 60, 90
1, 9472, Note_on_c, 0, 79, 0
1, 9472, Note_on_c, 0, 82, 0
1, 9536, Note_on_c, 1, 60, 0
1, 9600, Note_on_c, 0, 77, 90
1, 9600, Note_on_c, 0, 81, 90
1, 9600, Note_on_c, 1, 53, 90
1, 9660, Note_on_c, 0, 77, 0
1, 9660, Note_on_c, 0, 81, 0
1, 9728, Note_on_c, 1, 53, 0
1, 9792, Note_on_c, 0, 72, 90
1, 9852, Note_on_c, 0, 72, 0
1, 9984, Note_on_c, 0, 77, 90
1, 9984, Note_on_c, 1, 65, 90
1, 9984, Note_on_c, 1, 69, 90
1, 10048, Note_on_c, 0, 77, 0
1, 10080, Note_on_c, 0, 72, 90
1, 10144, Note_on_c, 0, 72, 0
1, 10176, Note_on_c, 0, 77, 90
1, 10240, Note_on_c, 0, 77, 0
1, 10272, Note_on_c, 0, 72, 90
1, 10336, Note_on_c, 0, 72, 0
1, 10364, Note_on_c, 1, 65, 0
1, 10364, Note_on_c, 1, 69, 0
1, 10368, Note_on_c, 0, 81, 90
1, 10432, Note_on_c, 0, 81, 0
1, 10464, Note_on_c, 0, 77, 90
1, 10528, Note_on_c, 0, 77, 0
1, 10560, Note_on_c, 0, 81, 90
1, 10624, Note_on_c, 0, 81, 0
1, 10656, Note_on_c, 0, 77, 90
1, 10720, Note_on_c, 0, 77, 0
1, 10752, Note_on_c, 0, 84, 90
1, 10752, Note_on_c, 1, 65, 90
1, 10752, Note_on_c, 1, 69, 90
1, 10812, Note_on_c, 1, 65, 0
1, 10812, Note_on_c, 1, 69, 0
1, 10944, Note_on_c, 1, 69, 90
1, 10944, Note_on_c, 1, 65, 90
1, 11004, Note_on_c, 1, 69, 0
1, 11004, Note_on_c, 1, 65, 0
1, 11008, Note_on_c, 0, 84, 0
1, 11136, Note_on_c, 0, 82, 90
1, 11136, Note_on_c, 1, 65, 90
1, 11136, Note_on_c, 1, 69, 90
1, 11196, Note_on_c, 1, 65, 0
1, 11196, Note_on_c, 1, 69, 0
1, 11200, Note_on_c, 0, 82, 0
1, 11232, Note_on_c, 0, 81, 90
1, 11296, Note_on_c, 0, 81, 0
1, 11328, Note_on_c, 0, 79, 90
1, 11328, Note_on_c, 1, 69, 90
1, 11328, Note_on_c, 1, 65, 90
1, 11388, Note_on_c, 1, 69, 0
1, 11388, Note_on_c, 1, 65, 0
1, 11392, Note_on_c, 0, 79, 0
1, 11424, Note_on_c, 0, 77, 90
1, 11488, Note_on_c, 0, 77, 0
1, 11520, Note_on_c, 0, 79, 90
1, 11520, Note_on_c, 1, 67, 90
1, 11520, Note_on_c, 1, 60, 90
1, 11584, Note_on_c, 0, 79, 0
1, 11616, Note_on_c, 0, 81, 90
1, 11680, Note_on_c, 0, 81, 0
1, 11712, Note_on_c, 0, 82, 90
1, 11776, Note_on_c, 0, 82, 0
1, 11808, Note_on_c, 0, 79, 90
1, 11872, Note_on_c, 0, 79, 0
1, 11900, Note_on_c, 1, 67, 0
1, 11900, Note_on_c, 1, 60, 0
1, 11904, Note_on_c, 0, 77, 90
1, 11904, Note_on_c, 1, 67, 90
1, 11904, Note_on_c, 1, 60, 90
1, 11968, Note_on_c, 0, 77, 0
1, 12000, Note_on_c, 0, 76, 90
1, 12064, Note_on_c, 0, 76, 0
1, 12096, Note_on_c, 0, 74, 90
1, 12160, Note_on_c, 0, 74, 0
1, 12192, Note_on_c, 0, 72, 90
1, 12256, Note_on_c, 0, 72, 0
1, 12284, Note_on_c, 1, 67, 0
1, 12284, Note_on_c, 1, 60, 0
1, 12288, Note_on_c, 0, 77, 90
1, 12288, Note_on_c, 1, 65, 90
1, 12668, Note_on_c, 0, 77, 0
1, 12668, Note_on_c, 1, 65, 0
1, 12864, Note_on_c, 0, 72, 100
1, 12992, Note_on_c, 0, 72, 0
1, 13056, Note_on_c, 0, 82, 100
1, 13056, Note_on_c, 1, 52, 100
1, 13116, Note_on_c, 0, 82, 0
1, 13120, Note_on_c, 1, 52, 0
1, 13152, Note_on_c, 1, 60, 100
1, 13216, Note_on_c, 1, 60, 0
1, 13248, Note_on_c, 0, 82, 100
1, 13248, Note_on_c, 1, 52, 100
1, 13308, Note_on_c, 0, 82, 0
1, 13312, Note_on_c, 1, 52, 0
1, 13344, Note_on_c, 1, 60, 100
1, 13408, Note_on_c, 1, 60, 0
1, 13440, Note_on_c, 0, 82, 100
1, 13440, Note_on_c, 1, 52, 100
1, 13500, Note_on_c, 0, 82, 0
1, 13504, Note_on_c, 1, 52, 0
1, 13536, Note_on_c, 0, 86, 100
1, 13536, Note_on_c, 1, 60, 100
1, 13600, Note_on_c, 0, 86, 0
1, 13600, Note_on_c, 1, 60, 0
1, 13632, Note_on_c, 0, 82, 100
1, 13632, Note_on_c, 1, 52, 100
1, 13696, Note_on_c, 1, 52, 0
1, 13728, Note_on_c, 1, 60, 100
1, 13760, Note_on_c, 0, 82, 0
1, 13792, Note_on_c, 1, 60, 0
1, 13824, Note_on_c, 0, 81, 100
1, 13824, Note_on_c, 1, 53, 100
1, 13888, Note_on_c, 1, 53, 0
1, 13920, Note_on_c, 1, 60, 100
1, 13984, Note_on_c, 1, 60, 0
1, 14016, Note_on_c, 1, 53, 100
1, 14080, Note_on_c, 0, 81, 0
1, 14080, Note_on_c, 1, 53, 0
1, 14112, Note_on_c, 1, 60, 100
1, 14176, Note_on_c, 1, 60, 0
1, 14208, Note_on_c, 1, 53, 100
1, 14272, Note_on_c, 1, 53, 0
1, 14304, Note_on_c, 1, 60, 100
1, 14368, Note_on_c, 1, 60, 0
1, 14400, Note_on_c, 0, 84, 100
1, 14400, Note_on_c, 1, 53, 100
1, 14464, Note_on_c, 1, 53, 0
1, 14496, Note_on_c, 1, 60, 100
1, 14528, Note_on_c, 0, 84, 0
1, 14560, Note_on_c, 1, 60, 0
1, 14592, Note_on_c, 0, 76, 100
1, 14592, Note_on_c, 1, 55, 100
1, 14652, Note_on_c, 0, 76, 0
1, 14656, Note_on_c, 1, 55, 0
1, 14688, Note_on_c, 1, 60, 100
1, 14752, Note_on_c, 1, 60, 0
1, 14784, Note_on_c, 0, 76, 100
1, 14784, Note_on_c, 1, 55, 100
1, 14844, Note_on_c, 0, 76, 0
1, 14848, Note_on_c, 1, 55, 0
1, 14880, Note_on_c, 1, 60, 100
1, 14944, Note_on_c, 1, 60, 0
1, 14976, Note_on_c, 0, 76, 100
1, 14976, Note_on_c, 1, 55, 100
1, 15036, Note_on_c, 0, 76, 0
1, 15040, Note_on_c, 1, 55, 0
1, 15072, Note_on_c, 0, 79, 100
1, 15072, Note_on_c, 1, 60, 100
1, 15136, Note_on_c, 0, 79, 0
1, 15136, Note_on_c, 1, 60, 0
1, 15168, Note_on_c, 0, 76, 100
1, 15168, Note_on_c, 1, 55, 100
1, 15232, Note_on_c, 1, 55, 0
1, 15264, Note_on_c, 1, 60, 100
1, 15296, Note_on_c, 0, 76, 0
1, 15328, Note_on_c, 1, 60, 0
1, 15360, Note_on_c, 0, 77, 100
1, 15360, Note_on_c, 1, 57, 100
1, 15424, Note_on_c, 1, 57, 0
1, 15456, Note_on_c, 1, 60, 100
1, 15520, Note_on_c, 1, 60, 0
1, 15552, Note_on_c, 1, 57, 100
1, 15616, Note_on_c, 0, 77, 0
1, 15616, Note_on_c, 1, 57, 0
1, 15648, Note_on_c, 1, 60, 100
1, 15712, Note_on_c, 1, 60, 0
1, 15744, Note_on_c, 1, 57, 100
1, 15808, Note_on_c, 1, 57, 0
1, 15840, Note_on_c, 1, 60, 100
1, 15904, Note_on_c, 1, 60, 0
1, 15936, Note_on_c, 0, 72, 100
1, 15936, Note_on_c, 1, 57, 100
1, 16000, Note_on_c, 1, 57, 0
1, 16032, Note_on_c, 1, 60, 100
1, 16064, Note_on_c, 0, 72, 0
1, 16096, Note_on_c, 1, 60, 0
1, 16128, Note_on_c, 0, 79, 100
1, 16128, Note_on_c, 1, 52, 100
1, 16188, Note_on_c, 0, 79, 0
1, 16192, Note_on_c, 1, 52, 0
1, 16224, Note_on_c, 1, 60, 100
1, 16288, Note_on_c, 1, 60, 0
1, 16320, Note_on_c, 0, 79, 100
1, 16320, Note_on_c, 1, 52, 100
1, 16380, Note_on_c, 0, 79, 0
1, 16384, Note_on_c, 1, 52, 0
1, 16416, Note_on_c, 1, 60, 100
1, 16480, Note_on_c, 1, 60, 0
1, 16512, Note_on_c, 0, 79, 100
1, 16512, Note_on_c, 1, 52, 100
1, 16572, Note_on_c, 0, 79, 0
1, 16576, Note_on_c, 1, 52, 0
1, 16608, Note_on_c, 0, 67, 100
1, 16608, Note_on_c, 1, 60, 100
1, 16672, Note_on_c, 0, 67, 0
1, 16672, Note_on_c, 1, 60, 0
1, 16704, Note_on_c, 0, 70, 100
1, 16704, Note_on_c, 1, 52, 100
1, 16768, Note_on_c, 1, 52, 0
1, 16800, Note_on_c, 1, 60, 100
1, 16832, Note_on_c, 0, 70, 0
1, 16864, Note_on_c, 1, 60, 0
1, 16896, Note_on_c, 0, 69, 100
1, 16896, Note_on_c, 1, 53, 100
1, 16960, Note_on_c, 0, 69, 0
1, 16992, Note_on_c, 0, 72, 100
1, 17056, Note_on_c, 0, 72, 0
1, 17088, Note_on_c, 0, 70, 100
1, 17152, Note_on_c, 0, 70, 0
1, 17152, Note_on_c, 1, 53, 0
1, 17184, Note_on_c, 0, 69, 100
1, 17248, Note_on_c, 0, 69, 0
1, 17280, Note_on_c, 0, 67, 100
1, 17344, Note_on_c, 0, 67, 0
1, 17376, Note_on_c, 0, 65, 100
1, 17440, Note_on_c, 0, 65, 0
1, 17472, Note_on_c, 0, 64, 100
1, 17536, Note_on_c, 0, 64, 0
1, 17568, Note_on_c, 0, 65, 100
1, 17632, Note_on_c, 0, 65, 0
1, 17664, Note_on_c, 0, 62, 100
1, 17664, Note_on_c, 1, 58, 100
1, 17664, Note_on_c, 1, 46, 100
1, 17724, Note_on_c, 1, 46, 0
1, 17728, Note_on_c, 0, 62, 0
1, 17760, Note_on_c, 0, 70, 100
1, 17824, Note_on_c, 0, 70, 0
1, 17856, Note_on_c, 0, 74, 100
1, 17920, Note_on_c, 0, 74, 0
1, 17920, Note_on_c, 1, 58, 0
1, 17952, Note_on_c, 0, 72, 100
1, 18016, Note_on_c, 0, 72, 0
1, 18048, Note_on_c, 0, 70, 100
1, 18112, Note_on_c, 0, 70, 0
1, 18144, Note_on_c, 0, 69, 100
1, 18208, Note_on_c, 0, 69, 0
1, 18240, Note_on_c, 0, 67, 100
1, 18240, Note_on_c, 1, 59, 100
1, 18304, Note_on_c, 0, 67, 0
1, 18336, Note_on_c, 0, 65, 100
1, 18368, Note_on_c, 1, 59, 0
1, 18400, Note_on_c, 0, 65, 0
1, 18432, Note_on_c, 0, 64, 100
1, 18432, Note_on_c, 1, 60, 100
1, 18492, Note_on_c, 1, 60, 0
1, 18624, Note_on_c, 1, 55, 100
1, 18684, Note_on_c, 1, 55, 0
1, 18812, Note_on_c, 0, 64, 0
1, 18816, Note_on_c, 1, 48, 100
1, 18876, Note_on_c, 1, 48, 0
1, 19008, Note_on_c, 0, 72, 100
1, 19068, Note_on_c, 0, 72, 0
1, 19200, Note_on_c, 0, 77, 100
1, 19200, Note_on_c, 1, 69, 100
1, 19200, Note_on_c, 1, 65, 100
1, 19264, Note_on_c, 0, 77, 0
1, 19296, Note_on_c, 0, 72, 100
1, 19360, Note_on_c, 0, 72, 0
1, 19392, Note_on_c, 0, 77, 100
1, 19456, Note_on_c, 0, 77, 0
1, 19488, Note_on_c, 0, 72, 100
1, 19552, Note_on_c, 0, 72, 0
1, 19580, Note_on_c, 1, 69, 0
1, 19580, Note_on_c, 1, 65, 0
1, 19584, Note_on_c, 0, 81, 100
1, 19648, Note_on_c, 0, 81, 0
1, 19680, Note_on_c, 0, 77, 100
1, 19744, Note_on_c, 0, 77, 0
1, 19776, Note_on_c, 0, 81, 100
1, 19840, Note_on_c, 0, 81, 0
1, 19872, Note_on_c, 0, 77, 100
1, 19936, Note_on_c, 0, 77, 0
1, 19968, Note_on_c, 0, 84, 100
1, 19968, Note_on_c, 1, 65, 100
1, 19968, Note_on_c, 1, 69, 100
1, 20028, Note_on_c, 1, 65, 0
1, 20028, Note_on_c, 1, 69, 0
1, 20160, Note_on_c, 1, 69, 100
1, 20160, Note_on_c, 1, 65, 100
1, 20220, Note_on_c, 1, 69, 0
1, 20220, Note_on_c, 1, 65, 0
1, 20224, Note_on_c, 0, 84, 0
1, 20352, Note_on_c, 0, 82, 100
1, 20352, Note_on_c, 1, 65, 100
1, 20352, Note_on_c, 1, 69, 100
1, 20412, Note_on_c, 1, 65, 0
1, 20412, Note_on_c, 1, 69, 0
1, 20416, Note_on_c, 0, 82, 0
1, 20448, Note_on_c, 0, 81, 100
1, 20512, Note_on_c, 0, 81, 0
1, 20544, Note_on_c, 0, 79, 100
1, 20544, Note_on_c, 1, 69, 100
1, 20544, Note_on_c, 1, 65, 100
1, 20604, Note_on_c, 1, 69, 0
1, 20604, Note_on_c, 1, 65, 0
1, 20608, Note_on_c, 0, 79, 0
1, 20640, Note_on_c, 0, 77, 100
1, 20704, Note_on_c, 0, 77, 0
1, 20736, Note_on_c, 0, 76, 100
1, 20736, Note_on_c, 1, 67, 100
1, 20736, Note_on_c, 1, 60, 100
1, 20796, Note_on_c, 1, 67, 0
1, 20796, Note_on_c, 1, 60, 0
1, 20800, Note_on_c, 0, 76, 0
1, 20832, Note_on_c, 0, 77, 100
1, 20896, Note_on_c, 0, 77, 0
1, 20928, Note_on_c, 0, 79, 100
1, 20928, Note_on_c, 1, 67, 100
1, 20928, Note_on_c, 1, 60, 100
1, 20988, Note_on_c, 1, 67, 0
1, 20988, Note_on_c, 1, 60, 0
1, 20992, Note_on_c, 0, 79, 0
1, 21024, Note_on_c, 0, 76, 100
1, 21088, Note_on_c, 0, 76, 0
1, 21120, Note_on_c, 0, 72, 100
1, 21120, Note_on_c, 1, 67, 100
1, 21120, Note_on_c, 1, 60, 100
1, 21180, Note_on_c, 0, 72, 0
1, 21180, Note_on_c, 1, 67, 0
1, 21180, Note_on_c, 1, 60, 0
1, 21312, Note_on_c, 0, 79, 100
1, 21312, Note_on_c, 0, 82, 100
1, 21312, Note_on_c, 1, 67, 100
1, 21312, Note_on_c, 1, 60, 100
1, 21372, Note_on_c, 0, 79, 0
1, 21372, Note_on_c, 0, 82, 0
1, 21372, Note_on_c, 1, 67, 0
1, 21372, Note_on_c, 1, 60, 0
1, 21504, Note_on_c, 0, 79, 100
1, 21504, Note_on_c, 0, 82, 100
1, 21504, Note_on_c, 1, 65, 100
1, 21632, Note_on_c, 1, 65, 0
1, 21696, Note_on_c, 1, 60, 100
1, 21756, Note_on_c, 1, 60, 0
1, 21760, Note_on_c, 0, 79, 0
1, 21760, Note_on_c, 0, 82, 0
1, 21888, Note_on_c, 0, 77, 100
1, 21888, Note_on_c, 0, 81, 100
1, 21888, Note_on_c, 1, 53, 100
1, 21948, Note_on_c, 0, 77, 0
1, 21948, Note_on_c, 0, 81, 0
1, 22012, Note_on_c, 1, 53, 0
1, 22080, Note_on_c, 0, 72, 100
1, 22140, Note_on_c, 0, 72, 0
1, 22272, Note_on_c, 0, 77, 100
1, 22272, Note_on_c, 1, 65, 100
1, 22272, Note_on_c, 1, 69, 100
1, 22336, Note_on_c, 0, 77, 0
1, 22368, Note_on_c, 0, 72, 100
1, 22432, Note_on_c, 0, 72, 0
1, 22464, Note_on_c, 0, 77, 100
1, 22528, Note_on_c, 0, 77, 0
1, 22560, Note_on_c, 0, 72, 100
1, 22624, Note_on_c, 0, 72, 0
1, 22652, Note_on_c, 1, 65, 0
1, 22652, Note_on_c, 1, 69, 0
1, 22656, Note_on_c, 0, 81, 100
1, 22720, Note_on_c, 0, 81, 0
1, 22752, Note_on_c, 0, 77, 100
1, 22816, Note_on_c, 0, 77, 0
1, 22848, Note_on_c, 0, 81, 100
1, 22912, Note_on_c, 0, 81, 0
1, 22944, Note_on_c, 0, 77, 100
1, 23008, Note_on_c, 0, 77, 0
1, 23040, Note_on_c, 0, 84, 100
1, 23040, Note_on_c, 1, 65, 100
1, 23040, Note_on_c, 1, 69, 100
1, 23100, Note_on_c, 1, 65, 0
1, 23100, Note_on_c, 1, 69, 0
1, 23232, Note_on_c, 1, 69, 100
1, 23232, Note_on_c, 1, 65, 100
1, 23292, Note_on_c, 1, 69, 0
1, 23292, Note_on_c, 1, 65, 0
1, 23296, Note_on_c, 0, 84, 0
1, 23424, Note_on_c, 0, 82, 100
1, 23424, Note_on_c, 1, 65, 100
1, 23424, Note_on_c, 1, 69, 100
1, 23484, Note_on_c, 1, 65, 0
1, 23484, Note_on_c, 1, 69, 0
1, 23488, Note_on_c, 0, 82, 0
1, 23520, Note_on_c, 0, 81, 100
1, 23584, Note_on_c, 0, 81, 0
1, 23616, Note_on_c, 0, 79, 100
1, 23616, Note_on_c, 1, 69, 100
1, 23616, Note_on_c, 1, 65, 100
1, 23676, Note_on_c, 1, 69, 0
1, 23676, Note_on_c, 1, 65, 0
1, 23680, Note_on_c, 0, 79, 0
1, 23712, Note_on_c, 0, 77, 100
1, 23776, Note_on_c, 0, 77, 0
1, 23808, Note_on_c, 0, 79, 100
1, 23808, Note_on_c, 1, 67, 100
1, 23808, Note_on_c, 1, 58, 100
1, 23872, Note_on_c, 0, 79, 0
1, 23904, Note_on_c, 0, 81, 100
1, 23968, Note_on_c, 0, 81, 0
1, 24000, Note_on_c, 0, 82, 100
1, 24064, Note_on_c, 0, 82, 0
1, 24096, Note_on_c, 0, 79, 100
1, 24160, Note_on_c, 0, 79, 0
1, 24188, Note_on_c, 1, 67, 0
1, 24188, Note_on_c, 1, 58, 0
1, 24192, Note_on_c, 0, 77, 100
1, 24192, Note_on_c, 1, 67, 100
1, 24192, Note_on_c, 1, 60, 100
1, 24256, Note_on_c, 0, 77, 0
1, 24288, Note_on_c, 0, 76, 100
1, 24352, Note_on_c, 0, 76, 0
1, 24384, Note_on_c, 0, 74, 100
1, 24448, Note_on_c, 0, 74, 0
1, 24480, Note_on_c, 0, 72, 100
1, 24544, Note_on_c, 0, 72, 0
1, 24572, Note_on_c, 1, 67, 0
1, 24572, Note_on_c, 1, 60, 0
1, 24576, Note_on_c, 0, 77, 100
1, 24576, Note_on_c, 1, 53, 100
1, 24576, Note_on_c, 1, 65, 100
1, 24956, Note_on_c, 0, 77, 0
1, 24956, Note_on_c, 1, 53, 0
1, 24956, Note_on_c, 1, 65, 0
1, 25152, Note_on_c, 0, 72, 100
1, 25280, Note_on_c, 0, 72, 0
1, 25344, Note_on_c, 0, 82, 100
1, 25344, Note_on_c, 1, 52, 100
1, 25404, Note_on_c, 0, 82, 0
1, 25408, Note_on_c, 1, 52, 0
1, 25440, Note_on_c, 1, 60, 100
1, 25504, Note_on_c, 1, 60, 0
1, 25536, Note_on_c, 0, 82, 100
1, 25536, Note_on_c, 1, 52, 100
1, 25596, Note_on_c, 0, 82, 0
1, 25600, Note_on_c, 1, 52, 0
1, 25632, Note_on_c, 1, 60, 100
1, 25696, Note_on_c, 1, 60, 0
1, 25728, Note_on_c, 0, 82, 100
1, 25728, Note_on_c, 1, 52, 100
1, 25788, Note_on_c, 0, 82, 0
1, 25792, Note_on_c, 1, 52, 0
1, 25824, Note_on_c, 0, 86, 100
1, 25824, Note_on_c, 1, 60, 100
1, 25888, Note_on_c, 0, 86, 0
1, 25888, Note_on_c, 1, 60, 0
1, 25920, Note_on_c, 0, 82, 100
1, 25920, Note_on_c, 1, 52, 100
1, 25984, Note_on_c, 1, 52, 0
1, 26016, Note_on_c, 1, 60, 100
1, 26048, Note_on_c, 0, 82, 0
1, 26080, Note_on_c, 1, 60, 0
1, 26112, Note_on_c, 0, 81, 100
1, 26112, Note_on_c, 1, 53, 100
1, 26176, Note_on_c, 1, 53, 0
1, 26208, Note_on_c, 1, 60, 100
1, 26272, Note_on_c, 1, 60, 0
1, 26304, Note_on_c, 1, 53, 100
1, 26368, Note_on_c, 0, 81, 0
1, 26368, Note_on_c, 1, 53, 0
1, 26400, Note_on_c, 1, 60, 100
1, 26464, Note_on_c, 1, 60, 0
1, 26496, Note_on_c, 1, 53, 100
1, 26560, Note_on_c, 1, 53, 0
1, 26592, Note_on_c, 1, 60, 100
1, 26656, Note_on_c, 1, 60, 0
1, 26688, Note_on_c, 0, 84, 100
1, 26688, Note_on_c, 1, 53, 100
1, 26752, Note_on_c, 1, 53, 0
1, 26784, Note_on_c, 1, 60, 100
1, 26816, Note_on_c, 0, 84, 0
1, 26848, Note_on_c, 1, 60, 0
1, 26880, Note_on_c, 0, 76, 100
1, 26880, Note_on_c, 1, 55, 100
1, 26940, Note_on_c, 0, 76, 0
1, 26944, Note_on_c, 1, 55, 0
1, 26976, Note_on_c, 1, 60, 100
1, 27040, Note_on_c, 1, 60, 0
1, 27072, Note_on_c, 0, 76, 100
1, 27072, Note_on_c, 1, 55, 100
1, 27132, Note_on_c, 0, 76, 0
1, 27136, Note_on_c, 1, 55, 0
1, 27168, Note_on_c, 1, 60, 100
1, 27232, Note_on_c, 1, 60, 0
1, 27264, Note_on_c, 0, 76, 100
1, 27264, Note_on_c, 1, 55, 100
1, 27324, Note_on_c, 0, 76, 0
1, 27328, Note_on_c, 1, 55, 0
1, 27360, Note_on_c, 0, 79, 100
1, 27360, Note_on_c, 1, 60, 100
1, 27424, Note_on_c, 0, 79, 0
1, 27424, Note_on_c, 1, 60, 0
1, 27456, Note_on_c, 0, 76, 100
1, 27456, Note_on_c, 1, 55, 100
1, 27520, Note_on_c, 1, 55, 0
1, 27552, Note_on_c, 1, 60, 100
1, 27584, Note_on_c, 0, 76, 0
1, 27616, Note_on_c, 1, 60, 0
1, 27648, Note_on_c, 0, 77, 100
1, 27648, Note_on_c, 1, 57, 100
1, 27712, Note_on_c, 1, 57, 0
1, 27744, Note_on_c, 1, 60, 100
1, 27808, Note_on_c, 1, 60, 0
1, 27840, Note_on_c, 1, 57, 100
1, 27904, Note_on_c, 0, 77, 0
1, 27904, Note_on_c, 1, 57, 0
1, 27936, Note_on_c, 1, 60, 100
1, 28000, Note_on_c, 1, 60, 0
1, 28032, Note_on_c, 1, 57, 100
1, 28096, Note_on_c, 1, 57, 0
1, 28128, Note_on_c, 1, 60, 100
1, 28192, Note_on_c, 1, 60, 0
1, 28224, Note_on_c, 0, 72, 100
1, 28224, Note_on_c, 1, 57, 100
1, 28288, Note_on_c, 1, 57, 0
1, 28320, Note_on_c, 1, 60, 100
1, 28352, Note_on_c, 0, 72, 0
1, 28384, Note_on_c, 1, 60, 0
1, 28416, Note_on_c, 0, 79, 100
1, 28416, Note_on_c, 1, 52, 100
1, 28476, Note_on_c, 0, 79, 0
1, 28480, Note_on_c, 1, 52, 0
1, 28512, Note_on_c, 1, 60, 100
1, 28576, Note_on_c, 1, 60, 0
1, 28608, Note_on_c, 0, 79, 100
1, 28608, Note_on_c, 1, 52, 100
1, 28668, Note_on_c, 0, 79, 0
1, 28672, Note_on_c, 1, 52, 0
1, 28704, Note_on_c, 1, 60, 100
1, 28768, Note_on_c, 1, 60, 0
1, 28800, Note_on_c, 0, 79, 100
1, 28800, Note_on_c, 1, 52, 100
1, 28860, Note_on_c, 0, 79, 0
1, 28864, Note_on_c, 1, 52, 0
1, 28896, Note_on_c, 0, 67, 100
1, 28896, Note_on_c, 1, 60, 100
1, 28960, Note_on_c, 0, 67, 0
1, 28960, Note_on_c, 1, 60, 0
1, 28992, Note_on_c, 0, 70, 100
1, 28992, Note_on_c, 1, 52, 100
1, 29056, Note_on_c, 1, 52, 0
1, 29088, Note_on_c, 1, 60, 100
1, 29120, Note_on_c, 0, 70, 0
1, 29152, Note_on_c, 1, 60, 0
1, 29184, Note_on_c, 0, 69, 100
1, 29184, Note_on_c, 1, 53, 100
1, 29248, Note_on_c, 0, 69, 0
1, 29280, Note_on_c, 0, 72, 100
1, 29344, Note_on_c, 0, 72, 0
1, 29376, Note_on_c, 0, 70, 100
1, 29440, Note_on_c, 0, 70, 0
1, 29440, Note_on_c, 1, 53, 0
1, 29472, Note_on_c, 0, 69, 100
1, 29536, Note_on_c, 0, 69, 0
1, 29568, Note_on_c, 0, 67, 100
1, 29632, Note_on_c, 0, 67, 0
1, 29664, Note_on_c, 0, 65, 100
1, 29728, Note_on_c, 0, 65, 0
1, 29760, Note_on_c, 0, 64, 100
1, 29824, Note_on_c, 0, 64, 0
1, 29856, Note_on_c, 0, 65, 100
1, 29920, Note_on_c, 0, 65, 0
1, 29952, Note_on_c, 0, 62, 100
1, 29952, Note_on_c, 1, 58, 100
1, 29952, Note_on_c, 1, 46, 100
1, 30016, Note_on_c, 0, 62, 0
1, 30048, Note_on_c, 0, 70, 100
1, 30112, Note_on_c, 0, 70, 0
1, 30144, Note_on_c, 0, 74, 100
1, 30208, Note_on_c, 0, 74, 0
1, 30208, Note_on_c, 1, 58, 0
1, 30208, Note_on_c, 1, 46, 0
1, 30240, Note_on_c, 0, 72, 100
1, 30304, Note_on_c, 0, 72, 0
1, 30336, Note_on_c, 0, 70, 100
1, 30400, Note_on_c, 0, 70, 0
1, 30432, Note_on_c, 0, 69, 100
1, 30496, Note_on_c, 0, 69, 0
1, 30528, Note_on_c, 0, 67, 100
1, 30528, Note_on_c, 1, 59, 100
1, 30592, Note_on_c, 0, 67, 0
1, 30624, Note_on_c, 0, 65, 100
1, 30656, Note_on_c, 1, 59, 0
1, 30688, Note_on_c, 0, 65, 0
1, 30720, Note_on_c, 0, 64, 100
1, 30720, Note_on_c, 1, 60, 100
1, 30780, Note_on_c, 1, 60, 0
1, 30912, Note_on_c, 1, 55, 100
1, 30972, Note_on_c, 1, 55, 0
1, 31100, Note_on_c, 0, 64, 0
1, 31104, Note_on_c, 1, 48, 100
1, 31164, Note_on_c, 1, 48, 0
1, 31296, Note_on_c, 0, 72, 100
1, 31356, Note_on_c, 0, 72, 0
1, 31488, Note_on_c, 0, 77, 100
1, 31488, Note_on_c, 1, 69, 100
1, 31488, Note_on_c, 1, 65, 100
1, 31552, Note_on_c, 0, 77, 0
1, 31584, Note_on_c, 0, 72, 100
1, 31648, Note_on_c, 0, 72, 0
1, 31680, Note_on_c, 0, 77, 100
1, 31744, Note_on_c, 0, 77, 0
1, 31776, Note_on_c, 0, 72, 100
1, 31840, Note_on_c, 0, 72, 0
1, 31868, Note_on_c, 1, 69, 0
1, 31868, Note_on_c, 1, 65, 0
1, 31872, Note_on_c, 0, 81, 100
1, 31936, Note_on_c, 0, 81, 0
1, 31968, Note_on_c, 0, 77, 100
1, 32032, Note_on_c, 0, 77, 0
1, 32064, Note_on_c, 0, 81, 100
1, 32128, Note_on_c, 0, 81, 0
1, 32160, Note_on_c, 0, 77, 100
1, 32224, Note_on_c, 0, 77, 0
1, 32256, Note_on_c, 0, 84, 100
1, 32256, Note_on_c, 1, 65, 100
1, 32256, Note_on_c, 1, 69, 100
1, 32316, Note_on_c, 1, 65, 0
1, 32316, Note_on_c, 1, 69, 0
1, 32448, Note_on_c, 1, 69, 100
1, 32448, Note_on_c, 1, 65, 100
1, 32508, Note_on_c, 1, 69, 0
1, 32508, Note_on_c, 1, 65, 0
1, 32512, Note_on_c, 0, 84, 0
1, 32640, Note_on_c, 0, 82, 100
1, 32640, Note_on_c, 1, 65, 100
1, 32640, Note_on_c, 1, 69, 100
1, 32700, Note_on_c, 1, 65, 0
1, 32700, Note_on_c, 1, 69, 0
1, 32704, Note_on_c, 0, 82, 0
1, 32736, Note_on_c, 0, 81, 100
1, 32800, Note_on_c, 0, 81, 0
1, 32832, Note_on_c, 0, 79, 100
1, 32832, Note_on_c, 1, 69, 100
1, 32832, Note_on_c, 1, 65, 100
1, 32892, Note_on_c, 1, 69, 0
1, 32892, Note_on_c, 1, 65, 0
1, 32896, Note_on_c, 0, 79, 0
1, 32928, Note_on_c, 0, 77, 100
1, 32992, Note_on_c, 0, 77, 0
1, 33024, Note_on_c, 0, 76, 100
1, 33024, Note_on_c, 1, 67, 100
1, 33024, Note_on_c, 1, 60, 100
1, 33084, Note_on_c, 1, 67, 0
1, 33084, Note_on_c, 1, 60, 0
1, 33088, Note_on_c, 0, 76, 0
1, 33120, Note_on_c, 0, 77, 100
1, 33184, Note_on_c, 0, 77, 0
1, 33216, Note_on_c, 0, 79, 100
1, 33216, Note_on_c, 1, 67, 100
1, 33216, Note_on_c, 1, 60, 100
1, 33276, Note_on_c, 1, 67, 0
1, 33276, Note_on_c, 1, 60, 0
1, 33280, Note_on_c, 0, 79, 0
1, 33312, Note_on_c, 0, 76, 100
1, 33376, Note_on_c, 0, 76, 0
1, 33408, Note_on_c, 0, 72, 100
1, 33408, Note_on_c, 1, 67, 100
1, 33408, Note_on_c, 1, 60, 100
1, 33468, Note_on_c, 0, 72, 0
1, 33468, Note_on_c, 1, 67, 0
1, 33468, Note_on_c, 1, 60, 0
1, 33600, Note_on_c, 0, 79, 100
1, 33600, Note_on_c, 0, 82, 100
1, 33600, Note_on_c, 1, 67, 100
1, 33600, Note_on_c, 1, 60, 100
1, 33660, Note_on_c, 0, 79, 0
1, 33660, Note_on_c, 0, 82, 0
1, 33660, Note_on_c, 1, 67, 0
1, 33660, Note_on_c, 1, 60, 0
1, 33792, Note_on_c, 0, 79, 100
1, 33792, Note_on_c, 0, 82, 100
1, 33792, Note_on_c, 1, 65, 100
1, 33920, Note_on_c, 1, 65, 0
1, 33984, Note_on_c, 1, 60, 100
1, 34044, Note_on_c, 1, 60, 0
1, 34048, Note_on_c, 0, 79, 0
1, 34048, Note_on_c, 0, 82, 0
1, 34176, Note_on_c, 0, 77, 100
1, 34176, Note_on_c, 0, 81, 100
1, 34176, Note_on_c, 1, 53, 100
1, 34236, Note_on_c, 0, 77, 0
1, 34236, Note_on_c, 0, 81, 0
1, 34300, Note_on_c, 1, 53, 0
1, 34368, Note_on_c, 0, 72, 100
1, 34428, Note_on_c, 0, 72, 0
1, 34560, Note_on_c, 0, 77, 100
1, 34560, Note_on_c, 1, 65, 100
1, 34560, Note_on_c, 1, 69, 100
1, 34624, Note_on_c, 0, 77, 0
1, 34656, Note_on_c, 0, 72, 100
1, 34720, Note_on_c, 0, 72, 0
1, 34752, Note_on_c, 0, 77, 100
1, 34816, Note_on_c, 0, 77, 0
1, 34848, Note_on_c, 0, 72, 100
1, 34912, Note_on_c, 0, 72, 0
1, 34940, Note_on_c, 1, 65, 0
1, 34940, Note_on_c, 1, 69, 0
1, 34944, Note_on_c, 0, 81, 100
1, 35008, Note_on_c, 0, 81, 0
1, 35040, Note_on_c, 0, 77, 100
1, 35104, Note_on_c, 0, 77, 0
1, 35136, Note_on_c, 0, 81, 100
1, 35200, Note_on_c, 0, 81, 0
1, 35232, Note_on_c, 0, 77, 100
1, 35296, Note_on_c, 0, 77, 0
1, 35328, Note_on_c, 0, 84, 100
1, 35328, Note_on_c, 1, 65, 100
1, 35328, Note_on_c, 1, 69, 100
1, 35388, Note_on_c, 1, 65, 0
1, 35388, Note_on_c, 1, 69, 0
1, 35520, Note_on_c, 1, 69, 100
1, 35520, Note_on_c, 1, 65, 100
1, 35580, Note_on_c, 1, 69, 0
1, 35580, Note_on_c, 1, 65, 0
1, 35584, Note_on_c, 0, 84, 0
1, 35712, Note_on_c, 0, 82, 100
1, 35712, Note_on_c, 1, 65, 100
1, 35712, Note_on_c, 1, 69, 100
1, 35772, Note_on_c, 1, 65, 0
1, 35772, Note_on_c, 1, 69, 0
1, 35776, Note_on_c, 0, 82, 0
1, 35808, Note_on_c, 0, 81, 100
1, 35872, Note_on_c, 0, 81, 0
1, 35904, Note_on_c, 0, 79, 100
1, 35904, Note_on_c, 1, 69, 100
1, 35904, Note_on_c, 1, 65, 100
1, 35964, Note_on_c, 1, 69, 0
1, 35964, Note_on_c, 1, 65, 0
1, 35968, Note_on_c, 0, 79, 0
1, 36000, Note_on_c, 0, 77, 100
1, 36064, Note_on_c, 0, 77, 0
1, 36096, Note_on_c, 0, 79, 100
1, 36096, Note_on_c, 1, 67, 100
1, 36096, Note_on_c, 1, 58, 100
1, 36160, Note_on_c, 0, 79, 0
1, 36192, Note_on_c, 0, 81, 100
1, 36256, Note_on_c, 0, 81, 0
1, 36288, Note_on_c, 0, 82, 100
1, 36352, Note_on_c, 0, 82, 0
1, 36384, Note_on_c, 0, 79, 100
1, 36448, Note_on_c, 0, 79, 0
1, 36476, Note_on_c, 1, 67, 0
1, 36476, Note_on_c, 1, 58, 0
1, 36480, Note_on_c, 0, 77, 100
1, 36480, Note_on_c, 1, 67, 100
1, 36480, Note_on_c, 1, 60, 100
1, 36544, Note_on_c, 0, 77, 0
1, 36576, Note_on_c, 0, 76, 100
1, 36640, Note_on_c, 0, 76, 0
1, 36672, Note_on_c, 0, 74, 100
1, 36736, Note_on_c, 0, 74, 0
1, 36768, Note_on_c, 0, 72, 100
1, 36832, Note_on_c, 0, 72, 0
1, 36860, Note_on_c, 1, 67, 0
1, 36860, Note_on_c, 1, 60, 0
1, 36864, Note_on_c, 0, 77, 100
1, 36864, Note_on_c, 1, 53, 100
1, 36864, Note_on_c, 1, 65, 100
1, 37244, Note_on_c, 0, 77, 0
1, 37244, Note_on_c, 1, 53, 0
1, 37244, Note_on_c, 1, 65, 0
1, 37254, End_track
0, 0, End_of_file