0, 0, Header, 0, 1, 240
1, 0, Start_track
1, 0, Tempo, 461538
1, 720, Note_on_c, 0, 79, 64
1, 780, Note_on_c, 0, 79, 0
1, 780, Note_on_c, 0, 77, 64
1, 840, Note_on_c, 0, 77, 0
1, 840, Note_on_c, 0, 75, 64
1, 900, Note_on_c, 0, 75, 0
1, 900, Note_on_c, 0, 74, 64
1, 960, Note_on_c, 0, 74, 0
1, 960, Note_on_c, 0, 72, 64
1, 1080, Note_on_c, 0, 72, 0
1, 1080, Note_on_c, 0, 70, 64
1, 1080, Note_on_c, 1, 58, 64
1, 1200, Note_on_c, 0, 70, 0
1, 1200, Note_on_c, 0, 70, 64
1, 1200, Note_on_c, 1, 58, 0
1, 1200, Note_on_c, 1, 62, 64
1, 1320, Note_on_c, 1, 62, 0
1, 1320, Note_on_c, 1, 65, 64
1, 1440, Note_on_c, 1, 65, 0
1, 1440, Note_on_c, 1, 62, 64
1, 1560, Note_on_c, 0, 70, 0
1, 1560, Note_on_c, 0, 74, 64
1, 1560, Note_on_c, 1, 62, 0
1, 1560, Note_on_c, 1, 58, 64
1, 1680, Note_on_c, 0, 74, 0
1, 1680, Note_on_c, 0, 79, 64
1, 1680, Note_on_c, 1, 58, 0
1, 1680, Note_on_c, 1, 62, 64
1, 1800, Note_on_c, 0, 79, 0
1, 1800, Note_on_c, 0, 74, 64
1, 1800, Note_on_c, 1, 62, 0
1, 1800, Note_on_c, 1, 67, 64
1, 1920, Note_on_c, 0, 74, 0
1, 1920, Note_on_c, 0, 77, 64
1, 1920, Note_on_c, 1, 67, 0
1, 2040, Note_on_c, 1, 60, 64
1, 2160, Note_on_c, 0, 77, 0
1, 2160, Note_on_c, 0, 75, 64
1, 2160, Note_on_c, 1, 60, 0
1, 2160, Note_on_c, 1, 63, 64
1, 2280, Note_on_c, 1, 63, 0
1, 2280, Note_on_c, 1, 67, 64
1, 2400, Note_on_c, 1, 67, 0
1, 2400, Note_on_c, 1, 63, 64
1, 2520, Note_on_c, 0, 75, 0
1, 2520, Note_on_c, 0, 77, 64
1, 2520, Note_on_c, 1, 63, 0
1, 2520, Note_on_c, 1, 60, 64
1, 2580, Note_on_c, 0, 77, 0
1, 2580, Note_on_c, 0, 79, 64
1, 2640, Note_on_c, 0, 79, 0
1, 2640, Note_on_c, 0, 77, 64
1, 2640, Note_on_c, 1, 60, 0
1, 2640, Note_on_c, 1, 63, 64
1, 2700, Note_on_c, 0, 77, 0
1, 2700, Note_on_c, 0, 75, 64
1, 2760, Note_on_c, 0, 75, 0
1, 2760, Note_on_c, 0, 74, 64
1, 2760, Note_on_c, 1, 63, 0
1, 2760, Note_on_c, 1, 67, 64
1, 2820, Note_on_c, 0, 74, 0
1, 2820, Note_on_c, 0, 72, 64
1, 2880, Note_on_c, 0, 72, 0
1, 2880, Note_on_c, 0, 70, 64
1, 2880, Note_on_c, 1, 67, 0
1, 3000, Note_on_c, 1, 53, 64
1, 3120, Note_on_c, 0, 70, 0
1, 3120, Note_on_c, 0, 69, 64
1, 3120, Note_on_c, 1, 53, 0
1, 3120, Note_on_c, 1, 60, 64
1, 3240, Note_on_c, 1, 60, 0
1, 3240, Note_on_c, 1, 63, 64
1, 3360, Note_on_c, 1, 63, 0
1, 3360, Note_on_c, 1, 60, 64
1, 3480, Note_on_c, 0, 69, 0
1, 3480, Note_on_c, 0, 69, 64
1, 3480, Note_on_c, 1, 60, 0
1, 3480, Note_on_c, 1, 53, 64
1, 3600, Note_on_c, 0, 69, 0
1, 3600, Note_on_c, 0, 70, 64
1, 3600, Note_on_c, 1, 53, 0
1, 3600, Note_on_c, 1, 60, 64
1, 3720, Note_on_c, 0, 70, 0
1, 3720, Note_on_c, 0, 72, 64
1, 3720, Note_on_c, 1, 60, 0
1, 3720, Note_on_c, 1, 63, 64
1, 3840, Note_on_c, 0, 72, 0
1, 3840, Note_on_c, 0, 69, 64
1, 3840, Note_on_c, 0, 72, 64
1, 3840, Note_on_c, 1, 63, 0
1, 3960, Note_on_c, 1, 58, 64
1, 4080, Note_on_c, 0, 72, 0
1, 4080, Note_on_c, 0, 69, 0
1, 4080, Note_on_c, 0, 70, 64
1, 4080, Note_on_c, 0, 74, 64
1, 4080, Note_on_c, 1, 58, 0
1, 4080, Note_on_c, 1, 62, 64
1, 4200, Note_on_c, 1, 62, 0
1, 4200, Note_on_c, 1, 65, 64
1, 4320, Note_on_c, 0, 74, 0
1, 4320, Note_on_c, 0, 70, 0
1, 4320, Note_on_c, 1, 65, 0
1, 4320, Note_on_c, 1, 62, 64
1, 4440, Note_on_c, 0, 77, 64
1, 4440, Note_on_c, 1, 62, 0
1, 4440, Note_on_c, 1, 58, 64
1, 4500, Note_on_c, 0, 77, 0
1, 4500, Note_on_c, 0, 76, 64
1, 4560, Note_on_c, 0, 76, 0
1, 4560, Note_on_c, 0, 79, 64
1, 4560, Note_on_c, 1, 58, 0
1, 4560, Note_on_c, 1, 62, 64
1, 4620, Note_on_c, 0, 79, 0
1, 4620, Note_on_c, 0, 77, 64
1, 4680, Note_on_c, 0, 77, 0
1, 4680, Note_on_c, 0, 75, 64
1, 4680, Note_on_c, 1, 62, 0
1, 4680, Note_on_c, 1, 65, 64
1, 4740, Note_on_c, 0, 75, 0
1, 4740, Note_on_c, 0, 74, 64
1, 4800, Note_on_c, 0, 74, 0
1, 4800, Note_on_c, 0, 74, 64
1, 4800, Note_on_c, 1, 65, 0
1, 4800, Note_on_c, 1, 63, 64
1, 4920, Note_on_c, 0, 74, 0
1, 4920, Note_on_c, 0, 72, 64
1, 4920, Note_on_c, 1, 63, 0
1, 4920, Note_on_c, 1, 67, 64
1, 5040, Note_on_c, 1, 67, 0
1, 5040, Note_on_c, 1, 62, 64
1, 5160, Note_on_c, 0, 72, 0
1, 5160, Note_on_c, 0, 70, 64
1, 5160, Note_on_c, 1, 62, 0
1, 5160, Note_on_c, 1, 65, 64
1, 5280, Note_on_c, 0, 70, 0
1, 5280, Note_on_c, 0, 74, 64
1, 5280, Note_on_c, 1, 65, 0
1, 5280, Note_on_c, 1, 63, 64
1, 5400, Note_on_c, 0, 74, 0
1, 5400, Note_on_c, 0, 72, 64
1, 5400, Note_on_c, 1, 63, 0
1, 5400, Note_on_c, 1, 67, 64
1, 5520, Note_on_c, 1, 67, 0
1, 5520, Note_on_c, 1, 60, 64
1, 5640, Note_on_c, 0, 72, 0
1, 5640, Note_on_c, 0, 69, 64
1, 5640, Note_on_c, 1, 60, 0
1, 5640, Note_on_c, 1, 63, 64
1, 5760, Note_on_c, 0, 69, 0
1, 5760, Note_on_c, 0, 70, 64
1, 5760, Note_on_c, 1, 63, 0
1, 5760, Note_on_c, 1, 62, 64
1, 5760, Note_on_c, 1, 65, 64
1, 5820, Note_on_c, 0, 70, 0
1, 5820, Note_on_c, 0, 72, 64
1, 5880, Note_on_c, 0, 72, 0
1, 5880, Note_on_c, 0, 70, 64
1, 5940, Note_on_c, 0, 70, 0
1, 5940, Note_on_c, 0, 69, 64
1, 6000, Note_on_c, 0, 69, 0
1, 6000, Note_on_c, 0, 70, 64
1, 6000, Note_on_c, 1, 65, 0
1, 6000, Note_on_c, 1, 62, 0
1, 6060, Note_on_c, 0, 70, 0
1, 6060, Note_on_c, 0, 72, 64
1, 6120, Note_on_c, 0, 72, 0
1, 6120, Note_on_c, 0, 74, 64
1, 6180, Note_on_c, 0, 74, 0
1, 6180, Note_on_c, 0, 75, 64
1, 6240, Note_on_c, 0, 75, 0
1, 6240, Note_on_c, 0, 76, 64
1, 6300, Note_on_c, 0, 76, 0
1, 6300, Note_on_c, 0, 77, 64
1, 6360, Note_on_c, 0, 77, 0
1, 6360, Note_on_c, 0, 76, 64
1, 6420, Note_on_c, 0, 76, 0
1, 6420, Note_on_c, 0, 77, 64
1, 6480, Note_on_c, 0, 77, 0
1, 6480, Note_on_c, 0, 79, 64
1, 6540, Note_on_c, 0, 79, 0
1, 6540, Note_on_c, 0, 77, 64
1, 6600, Note_on_c, 0, 77, 0
1, 6600, Note_on_c, 0, 75, 64
1, 6660, Note_on_c, 0, 75, 0
1, 6660, Note_on_c, 0, 74, 64
1, 6720, Note_on_c, 0, 74, 0
1, 6720, Note_on_c, 0, 74, 64
1, 6720, Note_on_c, 1, 63, 64
1, 6840, Note_on_c, 0, 74, 0
1, 6840, Note_on_c, 0, 72, 64
1, 6840, Note_on_c, 1, 63, 0
1, 6840, Note_on_c, 1, 67, 64
1, 6960, Note_on_c, 0, 72, 0
1, 6960, Note_on_c, 0, 72, 64
1, 6960, Note_on_c, 1, 67, 0
1, 6960, Note_on_c, 1, 62, 64
1, 7080, Note_on_c, 0, 72, 0
1, 7080, Note_on_c, 0, 70, 64
1, 7080, Note_on_c, 1, 62, 0
1, 7080, Note_on_c, 1, 65, 64
1, 7200, Note_on_c, 0, 70, 0
1, 7200, Note_on_c, 0, 74, 64
1, 7200, Note_on_c, 1, 65, 0
1, 7200, Note_on_c, 1, 63, 64
1, 7320, Note_on_c, 0, 74, 0
1, 7320, Note_on_c, 0, 72, 64
1, 7320, Note_on_c, 1, 63, 0
1, 7320, Note_on_c, 1, 67, 64
1, 7440, Note_on_c, 0, 72, 0
1, 7440, Note_on_c, 0, 72, 64
1, 7440, Note_on_c, 1, 67, 0
1, 7440, Note_on_c, 1, 60, 64
1, 7560, Note_on_c, 0, 72, 0
1, 7560, Note_on_c, 0, 69, 64
1, 7560, Note_on_c, 1, 60, 0
1, 7560, Note_on_c, 1, 63, 64
1, 7680, Note_on_c, 0, 69, 0
1, 7680, Note_on_c, 0, 70, 64
1, 7680, Note_on_c, 1, 63, 0
1, 7680, Note_on_c, 1, 62, 64
1, 7680, Note_on_c, 1, 65, 64
1, 7800, Note_on_c, 0, 70, 0
1, 7800, Note_on_c, 0, 72, 64
1, 7860, Note_on_c, 0, 72, 0
1, 7860, Note_on_c, 0, 74, 64
1, 7920, Note_on_c, 0, 74, 0
1, 7920, Note_on_c, 0, 75, 64
1, 7920, Note_on_c, 1, 65, 0
1, 7920, Note_on_c, 1, 62, 0
1, 7980, Note_on_c, 0, 75, 0
1, 7980, Note_on_c, 0, 77, 64
1, 8040, Note_on_c, 0, 77, 0
1, 8040, Note_on_c, 0, 79, 64
1, 8100, Note_on_c, 0, 79, 0
1, 8100, Note_on_c, 0, 81, 64
1, 8160, Note_on_c, 0, 81, 0
1, 8160, Note_on_c, 0, 82, 64
1, 8220, Note_on_c, 0, 82, 0
1, 8220, Note_on_c, 0, 84, 64
1, 8280, Note_on_c, 0, 84, 0
1, 8280, Note_on_c, 0, 86, 64
1, 8340, Note_on_c, 0, 86, 0
1, 8340, Note_on_c, 0, 87, 64
1, 8400, Note_on_c, 0, 87, 0
1, 8400, Note_on_c, 0, 89, 64
1, 8520, Note_on_c, 0, 89, 0
1, 8520, Note_on_c, 0, 89, 64
1, 8640, Note_on_c, 0, 89, 0
1, 8640, Note_on_c, 0, 89, 64
1, 8640, Note_on_c, 0, 77, 64
1, 8640, Note_on_c, 1, 57, 64
1, 8760, Note_on_c, 0, 89, 0
1, 8760, Note_on_c, 0, 87, 64
1, 8880, Note_on_c, 1, 57, 0
1, 8880, Note_on_c, 1, 58, 64
1, 9000, Note_on_c, 0, 87, 0
1, 9000, Note_on_c, 0, 86, 64
1, 9120, Note_on_c, 0, 86, 0
1, 9120, Note_on_c, 0, 86, 64
1, 9120, Note_on_c, 1, 58, 0
1, 9120, Note_on_c, 1, 51, 64
1, 9240, Note_on_c, 0, 86, 0
1, 9240, Note_on_c, 0, 77, 0
1, 9240, Note_on_c, 0, 84, 64
1, 9240, Note_on_c, 0, 75, 64
1, 9360, Note_on_c, 0, 75, 0
1, 9360, Note_on_c, 0, 84, 0
1, 9360, Note_on_c, 0, 82, 64
1, 9360, Note_on_c, 0, 74, 64
1, 9360, Note_on_c, 1, 51, 0
1, 9360, Note_on_c, 1, 53, 64
1, 9480, Note_on_c, 0, 74, 0
1, 9480, Note_on_c, 0, 82, 0
1, 9480, Note_on_c, 0, 81, 64
1, 9480, Note_on_c, 0, 72, 64
1, 9600, Note_on_c, 0, 72, 0
1, 9600, Note_on_c, 0, 81, 0
1, 9600, Note_on_c, 0, 74, 64
1, 9600, Note_on_c, 0, 82, 64
1, 9600, Note_on_c, 1, 53, 0
1, 9720, Note_on_c, 1, 46, 64
1, 9840, Note_on_c, 0, 82, 0
1, 9840, Note_on_c, 0, 74, 0
1, 9840, Note_on_c, 0, 70, 64
1, 9840, Note_on_c, 1, 46, 0
1, 9840, Note_on_c, 1, 50, 64
1, 9960, Note_on_c, 1, 50, 0
1, 9960, Note_on_c, 1, 53, 64
1, 10080, Note_on_c, 0, 70, 0
1, 10080, Note_on_c, 1, 53, 0
1, 10080, Note_on_c, 1, 58, 64
1, 10320, Note_on_c, 0, 67, 64
1, 10320, Note_on_c, 1, 58, 0
1, 10380, Note_on_c, 0, 67, 0
1, 10380, Note_on_c, 0, 65, 64
1, 10440, Note_on_c, 0, 65, 0
1, 10440, Note_on_c, 0, 63, 64
1, 10500, Note_on_c, 0, 63, 0
1, 10500, Note_on_c, 0, 62, 64
1, 10560, Note_on_c, 0, 62, 0
1, 10560, Note_on_c, 0, 60, 64
1, 10680, Note_on_c, 0, 60, 0
1, 10680, Note_on_c, 0, 58, 64
1, 10680, Note_on_c, 1, 46, 64
1, 10800, Note_on_c, 0, 58, 0
1, 10800, Note_on_c, 0, 58, 64
1, 10800, Note_on_c, 1, 46, 0
1, 10800, Note_on_c, 1, 50, 64
1, 10920, Note_on_c, 1, 50, 0
1, 10920, Note_on_c, 1, 53, 64
1, 11040, Note_on_c, 1, 53, 0
1, 11040, Note_on_c, 1, 50, 64
1, 11160, Note_on_c, 0, 58, 0
1, 11160, Note_on_c, 0, 70, 64
1, 11160, Note_on_c, 1, 50, 0
1, 11160, Note_on_c, 1, 46, 64
1, 11280, Note_on_c, 0, 70, 0
1, 11280, Note_on_c, 0, 69, 64
1, 11280, Note_on_c, 1, 46, 0
1, 11280, Note_on_c, 1, 50, 64
1, 11400, Note_on_c, 0, 69, 0
1, 11400, Note_on_c, 0, 67, 64
1, 11400, Note_on_c, 1, 50, 0
1, 11400, Note_on_c, 1, 55, 64
1, 11520, Note_on_c, 0, 67, 0
1, 11520, Note_on_c, 0, 65, 64
1, 11520, Note_on_c, 1, 55, 0
1, 11640, Note_on_c, 1, 48, 64
1, 11760, Note_on_c, 0, 65, 0
1, 11760, Note_on_c, 0, 64, 64
1, 11760, Note_on_c, 1, 48, 0
1, 11760, Note_on_c, 1, 55, 64
1, 11880, Note_on_c, 1, 55, 0
1, 11880, Note_on_c, 1, 58, 64
1, 12000, Note_on_c, 1, 58, 0
1, 12000, Note_on_c, 1, 55, 64
1, 12060, Note_on_c, 0, 64, 0
1, 12060, Note_on_c, 0, 67, 64
1, 12120, Note_on_c, 0, 67, 0
1, 12120, Note_on_c, 0, 65, 64
1, 12120, Note_on_c, 1, 55, 0
1, 12120, Note_on_c, 1, 48, 64
1, 12180, Note_on_c, 0, 65, 0
1, 12180, Note_on_c, 0, 69, 64
1, 12240, Note_on_c, 0, 69, 0
1, 12240, Note_on_c, 0, 67, 64
1, 12240, Note_on_c, 1, 48, 0
1, 12240, Note_on_c, 1, 55, 64
1, 12300, Note_on_c, 0, 67, 0
1, 12300, Note_on_c, 0, 70, 64
1, 12360, Note_on_c, 0, 70, 0
1, 12360, Note_on_c, 0, 69, 64
1, 12360, Note_on_c, 1, 55, 0
1, 12360, Note_on_c, 1, 58, 64
1, 12420, Note_on_c, 0, 69, 0
1, 12420, Note_on_c, 0, 72, 64
1, 12480, Note_on_c, 0, 72, 0
1, 12480, Note_on_c, 0, 70, 64
1, 12480, Note_on_c, 1, 58, 0
1, 12540, Note_on_c, 0, 70, 0
1, 12540, Note_on_c, 0, 67, 64
1, 12600, Note_on_c, 0, 67, 0
1, 12600, Note_on_c, 0, 76, 64
1, 12600, Note_on_c, 1, 52, 64
1, 12660, Note_on_c, 0, 76, 0
1, 12660, Note_on_c, 0, 72, 64
1, 12720, Note_on_c, 0, 72, 0
1, 12720, Note_on_c, 0, 79, 64
1, 12720, Note_on_c, 1, 52, 0
1, 12720, Note_on_c, 1, 55, 64
1, 12780, Note_on_c, 0, 79, 0
1, 12780, Note_on_c, 0, 76, 64
1, 12840, Note_on_c, 0, 76, 0
1, 12840, Note_on_c, 0, 82, 64
1, 12840, Note_on_c, 1, 55, 0
1, 12840, Note_on_c, 1, 60, 64
1, 12900, Note_on_c, 0, 82, 0
1, 12900, Note_on_c, 0, 81, 64
1, 12960, Note_on_c, 0, 81, 0
1, 12960, Note_on_c, 0, 82, 64
1, 12960, Note_on_c, 1, 60, 0
1, 12960, Note_on_c, 1, 55, 64
1, 13020, Note_on_c, 0, 82, 0
1, 13020, Note_on_c, 0, 81, 64
1, 13080, Note_on_c, 0, 81, 0
1, 13080, Note_on_c, 0, 79, 64
1, 13080, Note_on_c, 1, 55, 0
1, 13080, Note_on_c, 1, 52, 64
1, 13140, Note_on_c, 0, 79, 0
1, 13140, Note_on_c, 0, 77, 64
1, 13200, Note_on_c, 0, 77, 0
1, 13200, Note_on_c, 0, 76, 64
1, 13200, Note_on_c, 1, 52, 0
1, 13200, Note_on_c, 1, 55, 64
1, 13260, Note_on_c, 0, 76, 0
1, 13260, Note_on_c, 0, 74, 64
1, 13320, Note_on_c, 0, 74, 0
1, 13320, Note_on_c, 0, 72, 64
1, 13320, Note_on_c, 1, 55, 0
1, 13320, Note_on_c, 1, 60, 64
1, 13380, Note_on_c, 0, 72, 0
1, 13380, Note_on_c, 0, 70, 64
1, 13440, Note_on_c, 0, 70, 0
1, 13440, Note_on_c, 0, 70, 64
1, 13440, Note_on_c, 1, 60, 0
1, 13500, Note_on_c, 0, 70, 0
1, 13500, Note_on_c, 0, 69, 64
1, 13560, Note_on_c, 0, 69, 0
1, 13560, Note_on_c, 0, 74, 64
1, 13560, Note_on_c, 1, 53, 64
1, 13620, Note_on_c, 0, 74, 0
1, 13620, Note_on_c, 0, 72, 64
1, 13680, Note_on_c, 0, 72, 0
1, 13680, Note_on_c, 0, 72, 64
1, 13680, Note_on_c, 1, 53, 0
1, 13680, Note_on_c, 1, 57, 64
1, 13800, Note_on_c, 1, 57, 0
1, 13800, Note_on_c, 1, 60, 64
1, 13920, Note_on_c, 0, 72, 0
1, 13920, Note_on_c, 1, 60, 0
1, 13920, Note_on_c, 1, 57, 64
1, 14040, Note_on_c, 1, 57, 0
1, 14040, Note_on_c, 1, 53, 64
1, 14160, Note_on_c, 0, 86, 64
1, 14160, Note_on_c, 1, 53, 0
1, 14160, Note_on_c, 1, 57, 64
1, 14220, Note_on_c, 0, 86, 0
1, 14220, Note_on_c, 0, 84, 64
1, 14280, Note_on_c, 0, 84, 0
1, 14280, Note_on_c, 0, 82, 64
1, 14280, Note_on_c, 1, 57, 0
1, 14280, Note_on_c, 1, 60, 64
1, 14340, Note_on_c, 0, 82, 0
1, 14340, Note_on_c, 0, 81, 64
1, 14400, Note_on_c, 0, 81, 0
1, 14400, Note_on_c, 0, 79, 64
1, 14400, Note_on_c, 1, 60, 0
1, 14400, Note_on_c, 1, 58, 64
1, 14520, Note_on_c, 1, 58, 0
1, 14520, Note_on_c, 1, 60, 64
1, 14640, Note_on_c, 1, 60, 0
1, 14640, Note_on_c, 1, 58, 64
1, 14760, Note_on_c, 0, 79, 0
1, 14760, Note_on_c, 0, 76, 64
1, 14760, Note_on_c, 1, 58, 0
1, 14760, Note_on_c, 1, 60, 64
1, 14880, Note_on_c, 0, 76, 0
1, 14880, Note_on_c, 0, 77, 64
1, 14880, Note_on_c, 1, 60, 0
1, 14880, Note_on_c, 1, 57, 64
1, 14940, Note_on_c, 0, 77, 0
1, 14940, Note_on_c, 0, 84, 64
1, 15000, Note_on_c, 0, 84, 0
1, 15000, Note_on_c, 0, 83, 64
1, 15000, Note_on_c, 1, 57, 0
1, 15000, Note_on_c, 1, 60, 64
1, 15060, Note_on_c, 0, 83, 0
1, 15060, Note_on_c, 0, 84, 64
1, 15120, Note_on_c, 0, 84, 0
1, 15120, Note_on_c, 0, 86, 64
1, 15120, Note_on_c, 1, 60, 0
1, 15120, Note_on_c, 1, 57, 64
1, 15180, Note_on_c, 0, 86, 0
1, 15180, Note_on_c, 0, 84, 64
1, 15240, Note_on_c, 0, 84, 0
1, 15240, Note_on_c, 0, 82, 64
1, 15240, Note_on_c, 1, 57, 0
1, 15240, Note_on_c, 1, 60, 64
1, 15300, Note_on_c, 0, 82, 0
1, 15300, Note_on_c, 0, 81, 64
1, 15360, Note_on_c, 0, 81, 0
1, 15360, Note_on_c, 0, 79, 64
1, 15360, Note_on_c, 1, 60, 0
1, 15360, Note_on_c, 1, 58, 64
1, 15480, Note_on_c, 0, 79, 0
1, 15480, Note_on_c, 0, 79, 64
1, 15480, Note_on_c, 1, 58, 0
1, 15480, Note_on_c, 1, 60, 64
1, 15600, Note_on_c, 1, 60, 0
1, 15600, Note_on_c, 1, 58, 64
1, 15720, Note_on_c, 0, 79, 0
1, 15720, Note_on_c, 0, 76, 64
1, 15720, Note_on_c, 1, 58, 0
1, 15720, Note_on_c, 1, 60, 64
1, 15840, Note_on_c, 0, 76, 0
1, 15840, Note_on_c, 0, 77, 64
1, 15840, Note_on_c, 1, 60, 0
1, 15840, Note_on_c, 1, 57, 64
1, 15900, Note_on_c, 0, 77, 0
1, 15900, Note_on_c, 0, 84, 64
1, 15960, Note_on_c, 0, 84, 0
1, 15960, Note_on_c, 0, 83, 64
1, 15960, Note_on_c, 1, 57, 0
1, 15960, Note_on_c, 1, 60, 64
1, 16020, Note_on_c, 0, 83, 0
1, 16020, Note_on_c, 0, 84, 64
1, 16080, Note_on_c, 0, 84, 0
1, 16080, Note_on_c, 0, 86, 64
1, 16080, Note_on_c, 1, 60, 0
1, 16080, Note_on_c, 1, 57, 64
1, 16140, Note_on_c, 0, 86, 0
1, 16140, Note_on_c, 0, 84, 64
1, 16200, Note_on_c, 0, 84, 0
1, 16200, Note_on_c, 0, 82, 64
1, 16200, Note_on_c, 1, 57, 0
1, 16200, Note_on_c, 1, 60, 64
1, 16260, Note_on_c, 0, 82, 0
1, 16260, Note_on_c, 0, 81, 64
1, 16320, Note_on_c, 0, 81, 0
1, 16320, Note_on_c, 0, 81, 64
1, 16320, Note_on_c, 1, 60, 0
1, 16320, Note_on_c, 1, 58, 64
1, 16440, Note_on_c, 0, 81, 0
1, 16440, Note_on_c, 0, 79, 64
1, 16440, Note_on_c, 1, 58, 0
1, 16440, Note_on_c, 1, 62, 64
1, 16560, Note_on_c, 0, 79, 0
1, 16560, Note_on_c, 1, 62, 0
1, 16560, Note_on_c, 1, 58, 64
1, 16680, Note_on_c, 0, 79, 64
1, 16680, Note_on_c, 1, 58, 0
1, 16680, Note_on_c, 1, 62, 64
1, 16800, Note_on_c, 0, 79, 0
1, 16800, Note_on_c, 0, 79, 64
1, 16800, Note_on_c, 1, 62, 0
1, 16800, Note_on_c, 1, 59, 64
1, 16920, Note_on_c, 0, 79, 0
1, 16920, Note_on_c, 0, 77, 64
1, 16920, Note_on_c, 1, 59, 0
1, 16920, Note_on_c, 1, 62, 64
1, 17040, Note_on_c, 0, 77, 0
1, 17040, Note_on_c, 1, 62, 0
1, 17040, Note_on_c, 1, 59, 64
1, 17160, Note_on_c, 0, 77, 64
1, 17160, Note_on_c, 1, 59, 0
1, 17160, Note_on_c, 1, 62, 64
1, 17280, Note_on_c, 0, 77, 0
1, 17280, Note_on_c, 0, 76, 64
1, 17280, Note_on_c, 1, 62, 0
1, 17280, Note_on_c, 1, 60, 64
1, 17340, Note_on_c, 0, 76, 0
1, 17340, Note_on_c, 0, 77, 64
1, 17400, Note_on_c, 0, 77, 0
1, 17400, Note_on_c, 0, 76, 64
1, 17460, Note_on_c, 0, 76, 0
1, 17460, Note_on_c, 0, 72, 64
1, 17520, Note_on_c, 0, 72, 0
1, 17520, Note_on_c, 0, 77, 64
1, 17520, Note_on_c, 1, 60, 0
1, 17520, Note_on_c, 1, 62, 64
1, 17580, Note_on_c, 0, 77, 0
1, 17580, Note_on_c, 0, 79, 64
1, 17640, Note_on_c, 0, 79, 0
1, 17640, Note_on_c, 0, 77, 64
1, 17700, Note_on_c, 0, 77, 0
1, 17700, Note_on_c, 0, 72, 64
1, 17760, Note_on_c, 0, 72, 0
1, 17760, Note_on_c, 0, 79, 64
1, 17760, Note_on_c, 1, 62, 0
1, 17760, Note_on_c, 1, 64, 64
1, 17820, Note_on_c, 0, 79, 0
1, 17820, Note_on_c, 0, 81, 64
1, 17880, Note_on_c, 0, 81, 0
1, 17880, Note_on_c, 0, 79, 64
1, 17940, Note_on_c, 0, 79, 0
1, 17940, Note_on_c, 0, 72, 64
1, 18000, Note_on_c, 0, 72, 0
1, 18000, Note_on_c, 0, 81, 64
1, 18000, Note_on_c, 1, 64, 0
1, 18000, Note_on_c, 1, 65, 64
1, 18060, Note_on_c, 0, 81, 0
1, 18060, Note_on_c, 0, 82, 64
1, 18120, Note_on_c, 0, 82, 0
1, 18120, Note_on_c, 0, 81, 64
1, 18180, Note_on_c, 0, 81, 0
1, 18180, Note_on_c, 0, 72, 64
1, 18240, Note_on_c, 0, 72, 0
1, 18240, Note_on_c, 0, 82, 64
1, 18240, Note_on_c, 1, 65, 0
1, 18240, Note_on_c, 1, 67, 64
1, 18360, Note_on_c, 0, 82, 0
1, 18360, Note_on_c, 0, 82, 64
1, 18360, Note_on_c, 1, 67, 0
1, 18360, Note_on_c, 1, 72, 64
1, 18480, Note_on_c, 0, 82, 0
1, 18480, Note_on_c, 1, 72, 0
1, 18480, Note_on_c, 1, 64, 64
1, 18600, Note_on_c, 0, 79, 64
1, 18600, Note_on_c, 1, 64, 0
1, 18600, Note_on_c, 1, 72, 64
1, 18720, Note_on_c, 0, 79, 0
1, 18720, Note_on_c, 0, 82, 64
1, 18720, Note_on_c, 1, 72, 0
1, 18720, Note_on_c, 1, 65, 64
1, 18840, Note_on_c, 0, 82, 0
1, 18840, Note_on_c, 0, 81, 64
1, 18840, Note_on_c, 1, 65, 0
1, 18840, Note_on_c, 1, 72, 64
1, 18960, Note_on_c, 0, 81, 0
1, 18960, Note_on_c, 0, 79, 64
1, 18960, Note_on_c, 1, 72, 0
1, 18960, Note_on_c, 1, 62, 64
1, 19080, Note_on_c, 0, 79, 0
1, 19080, Note_on_c, 0, 77, 64
1, 19080, Note_on_c, 1, 62, 0
1, 19080, Note_on_c, 1, 72, 64
1, 19200, Note_on_c, 0, 77, 0
1, 19200, Note_on_c, 0, 76, 64
1, 19200, Note_on_c, 1, 72, 0
1, 19200, Note_on_c, 1, 60, 64
1, 19260, Note_on_c, 0, 76, 0
1, 19260, Note_on_c, 0, 72, 64
1, 19320, Note_on_c, 0, 72, 0
1, 19320, Note_on_c, 0, 83, 64
1, 19380, Note_on_c, 0, 83, 0
1, 19380, Note_on_c, 0, 84, 64
1, 19440, Note_on_c, 0, 84, 0
1, 19440, Note_on_c, 0, 77, 64
1, 19440, Note_on_c, 1, 60, 0
1, 19440, Note_on_c, 1, 62, 64
1, 19500, Note_on_c, 0, 77, 0
1, 19500, Note_on_c, 0, 72, 64
1, 19560, Note_on_c, 0, 72, 0
1, 19560, Note_on_c, 0, 83, 64
1, 19620, Note_on_c, 0, 83, 0
1, 19620, Note_on_c, 0, 84, 64
1, 19680, Note_on_c, 0, 84, 0
1, 19680, Note_on_c, 0, 79, 64
1, 19680, Note_on_c, 1, 62, 0
1, 19680, Note_on_c, 1, 64, 64
1, 19740, Note_on_c, 0, 79, 0
1, 19740, Note_on_c, 0, 72, 64
1, 19800, Note_on_c, 0, 72, 0
1, 19800, Note_on_c, 0, 83, 64
1, 19860, Note_on_c, 0, 83, 0
1, 19860, Note_on_c, 0, 84, 64
1, 19920, Note_on_c, 0, 84, 0
1, 19920, Note_on_c, 0, 81, 64
1, 19920, Note_on_c, 1, 64, 0
1, 19920, Note_on_c, 1, 65, 64
1, 19980, Note_on_c, 0, 81, 0
1, 19980, Note_on_c, 0, 72, 64
1, 20040, Note_on_c, 0, 72, 0
1, 20040, Note_on_c, 0, 83, 64
1, 20100, Note_on_c, 0, 83, 0
1, 20100, Note_on_c, 0, 84, 64
1, 20160, Note_on_c, 0, 84, 0
1, 20160, Note_on_c, 0, 82, 64
1, 20160, Note_on_c, 1, 65, 0
1, 20160, Note_on_c, 1, 67, 64
1, 20220, Note_on_c, 1, 67, 0
1, 20220, Note_on_c, 1, 72, 64
1, 20280, Note_on_c, 0, 82, 0
1, 20280, Note_on_c, 0, 82, 64
1, 20280, Note_on_c, 1, 72, 0
1, 20280, Note_on_c, 1, 71, 64
1, 20340, Note_on_c, 1, 71, 0
1, 20340, Note_on_c, 1, 72, 64
1, 20400, Note_on_c, 0, 82, 0
1, 20400, Note_on_c, 1, 72, 0
1, 20400, Note_on_c, 1, 64, 64
1, 20460, Note_on_c, 1, 64, 0
1, 20460, Note_on_c, 1, 72, 64
1, 20520, Note_on_c, 0, 79, 64
1, 20520, Note_on_c, 1, 72, 0
1, 20520, Note_on_c, 1, 71, 64
1, 20560, Note_on_c, 0, 79, 0
1, 20560, Note_on_c, 0, 81, 64
1, 20580, Note_on_c, 1, 71, 0
1, 20580, Note_on_c, 1, 72, 64
1, 20600, Note_on_c, 0, 81, 0
1, 20600, Note_on_c, 0, 79, 64
1, 20640, Note_on_c, 0, 79, 0
1, 20640, Note_on_c, 0, 82, 64
1, 20640, Note_on_c, 1, 72, 0
1, 20640, Note_on_c, 1, 65, 64
1, 20700, Note_on_c, 1, 65, 0
1, 20700, Note_on_c, 1, 72, 64
1, 20760, Note_on_c, 0, 82, 0
1, 20760, Note_on_c, 0, 81, 64
1, 20760, Note_on_c, 1, 72, 0
1, 20760, Note_on_c, 1, 71, 64
1, 20820, Note_on_c, 1, 71, 0
1, 20820, Note_on_c, 1, 72, 64
1, 20880, Note_on_c, 0, 81, 0
1, 20880, Note_on_c, 0, 79, 64
1, 20880, Note_on_c, 1, 72, 0
1, 20880, Note_on_c, 1, 62, 64
1, 20940, Note_on_c, 1, 62, 0
1, 20940, Note_on_c, 1, 71, 64
1, 21000, Note_on_c, 0, 79, 0
1, 21000, Note_on_c, 0, 77, 64
1, 21000, Note_on_c, 1, 71, 0
1, 21000, Note_on_c, 1, 69, 64
1, 21060, Note_on_c, 1, 69, 0
1, 21060, Note_on_c, 1, 71, 64
1, 21120, Note_on_c, 0, 77, 0
1, 21120, Note_on_c, 0, 76, 64
1, 21120, Note_on_c, 1, 71, 0
1, 21120, Note_on_c, 1, 60, 64
1, 21120, Note_on_c, 1, 72, 64
1, 21180, Note_on_c, 0, 76, 0
1, 21180, Note_on_c, 0, 84, 64
1, 21240, Note_on_c, 0, 84, 0
1, 21240, Note_on_c, 0, 79, 64
1, 21300, Note_on_c, 0, 79, 0
1, 21300, Note_on_c, 0, 76, 64
1, 21360, Note_on_c, 0, 76, 0
1, 21360, Note_on_c, 0, 72, 64
1, 21360, Note_on_c, 1, 72, 0
1, 21360, Note_on_c, 1, 60, 0
1, 21420, Note_on_c, 0, 72, 0
1, 21420, Note_on_c, 0, 67, 64
1, 21480, Note_on_c, 0, 67, 0
1, 21480, Note_on_c, 0, 64, 64
1, 21540, Note_on_c, 0, 64, 0
1, 21540, Note_on_c, 0, 60, 64
1, 21600, Note_on_c, 0, 60, 0
1, 21600, Note_on_c, 1, 48, 64
1, 21600, Note_on_c, 1, 36, 64
1, 21840, Note_on_c, 1, 36, 0
1, 21840, Note_on_c, 1, 48, 0
1, 22080, Note_on_c, 0, 60, 64
1, 22080, Note_on_c, 0, 65, 64
1, 22080, Note_on_c, 0, 69, 64
1, 22080, Note_on_c, 0, 72, 64
1, 22080, Note_on_c, 1, 41, 64
1, 22080, Note_on_c, 1, 53, 64
1, 22440, Note_on_c, 0, 72, 0
1, 22440, Note_on_c, 0, 60, 0
1, 22440, Note_on_c, 0, 65, 0
1, 22440, Note_on_c, 0, 69, 0
1, 22440, Note_on_c, 0, 74, 64
1, 22500, Note_on_c, 0, 74, 0
1, 22500, Note_on_c, 0, 72, 64
1, 22560, Note_on_c, 0, 72, 0
1, 22560, Note_on_c, 0, 70, 64
1, 22560, Note_on_c, 1, 53, 0
1, 22560, Note_on_c, 1, 41, 0
1, 22680, Note_on_c, 0, 70, 0
1, 22680, Note_on_c, 0, 69, 64
1, 22800, Note_on_c, 0, 69, 0
1, 22800, Note_on_c, 0, 67, 64
1, 22920, Note_on_c, 0, 67, 0
1, 22920, Note_on_c, 0, 65, 64
1, 23040, Note_on_c, 0, 65, 0
1, 23040, Note_on_c, 0, 65, 64
1, 23160, Note_on_c, 0, 65, 0
1, 23160, Note_on_c, 0, 74, 64
1, 23280, Note_on_c, 0, 74, 0
1, 23280, Note_on_c, 0, 65, 64
1, 23280, Note_on_c, 0, 74, 64
1, 23280, Note_on_c, 1, 46, 64
1, 23280, Note_on_c, 1, 58, 64
1, 23640, Note_on_c, 0, 74, 0
1, 23640, Note_on_c, 0, 65, 0
1, 23640, Note_on_c, 0, 72, 64
1, 23760, Note_on_c, 0, 72, 0
1, 23760, Note_on_c, 0, 76, 64
1, 23760, Note_on_c, 1, 58, 0
1, 23760, Note_on_c, 1, 46, 0
1, 23760, Note_on_c, 1, 57, 64
1, 23880, Note_on_c, 0, 76, 0
1, 23880, Note_on_c, 0, 77, 64
1, 24000, Note_on_c, 0, 77, 0
1, 24000, Note_on_c, 0, 77, 64
1, 24000, Note_on_c, 1, 57, 0
1, 24000, Note_on_c, 1, 59, 64
1, 24000, Note_on_c, 1, 62, 64
1, 24120, Note_on_c, 0, 77, 0
1, 24120, Note_on_c, 0, 67, 64
1, 24240, Note_on_c, 1, 62, 0
1, 24240, Note_on_c, 1, 59, 0
1, 24240, Note_on_c, 1, 60, 64
1, 24360, Note_on_c, 0, 67, 0
1, 24360, Note_on_c, 0, 69, 64
1, 24480, Note_on_c, 0, 69, 0
1, 24480, Note_on_c, 0, 77, 64
1, 24480, Note_on_c, 1, 60, 0
1, 24480, Note_on_c, 1, 59, 64
1, 24480, Note_on_c, 1, 62, 64
1, 24600, Note_on_c, 0, 77, 0
1, 24600, Note_on_c, 0, 67, 64
1, 24720, Note_on_c, 1, 62, 0
1, 24720, Note_on_c, 1, 59, 0
1, 24720, Note_on_c, 1, 60, 64
1, 24840, Note_on_c, 0, 67, 0
1, 24840, Note_on_c, 0, 69, 64
1, 24960, Note_on_c, 0, 69, 0
1, 24960, Note_on_c, 0, 72, 64
1, 24960, Note_on_c, 1, 60, 0
1, 24960, Note_on_c, 1, 62, 64
1, 25200, Note_on_c, 0, 72, 0
1, 25200, Note_on_c, 0, 70, 64
1, 25200, Note_on_c, 1, 62, 0
1, 25200, Note_on_c, 1, 64, 64
1, 25240, Note_on_c, 0, 70, 0
1, 25240, Note_on_c, 0, 72, 64
1, 25280, Note_on_c, 0, 72, 0
1, 25280, Note_on_c, 0, 70, 64
1, 25320, Note_on_c, 0, 70, 0
1, 25320, Note_on_c, 0, 72, 64
1, 25350, Note_on_c, 0, 72, 0
1, 25350, Note_on_c, 0, 70, 64
1, 25380, Note_on_c, 0, 70, 0
1, 25380, Note_on_c, 0, 69, 64
1, 25410, Note_on_c, 0, 69, 0
1, 25410, Note_on_c, 0, 70, 64
1, 25440, Note_on_c, 0, 70, 0
1, 25440, Note_on_c, 0, 69, 64
1, 25440, Note_on_c, 1, 64, 0
1, 25440, Note_on_c, 1, 65, 64
1, 25560, Note_on_c, 0, 69, 0
1, 25560, Note_on_c, 0, 69, 64
1, 25680, Note_on_c, 0, 69, 0
1, 25680, Note_on_c, 0, 70, 64
1, 25680, Note_on_c, 1, 65, 0
1, 25800, Note_on_c, 0, 70, 0
1, 25800, Note_on_c, 0, 72, 64
1, 25920, Note_on_c, 0, 72, 0
1, 25920, Note_on_c, 0, 73, 64
1, 26040, Note_on_c, 0, 73, 0
1, 26040, Note_on_c, 0, 74, 64
1, 26040, Note_on_c, 1, 46, 64
1, 26160, Note_on_c, 1, 46, 0
1, 26160, Note_on_c, 1, 50, 64
1, 26280, Note_on_c, 0, 74, 0
1, 26280, Note_on_c, 0, 72, 64
1, 26280, Note_on_c, 1, 50, 0
1, 26280, Note_on_c, 1, 55, 64
1, 26340, Note_on_c, 0, 72, 0
1, 26340, Note_on_c, 0, 70, 64
1, 26400, Note_on_c, 0, 70, 0
1, 26400, Note_on_c, 0, 69, 64
1, 26400, Note_on_c, 1, 55, 0
1, 26400, Note_on_c, 1, 58, 64
1, 26520, Note_on_c, 0, 69, 0
1, 26520, Note_on_c, 0, 67, 64
1, 26640, Note_on_c, 0, 67, 0
1, 26640, Note_on_c, 0, 69, 64
1, 26640, Note_on_c, 1, 58, 0
1, 26760, Note_on_c, 0, 69, 0
1, 26760, Note_on_c, 0, 70, 64
1, 26880, Note_on_c, 0, 70, 0
1, 26880, Note_on_c, 0, 74, 64
1, 27000, Note_on_c, 0, 74, 0
1, 27000, Note_on_c, 0, 72, 64
1, 27000, Note_on_c, 1, 45, 64
1, 27120, Note_on_c, 1, 45, 0
1, 27120, Note_on_c, 1, 48, 64
1, 27240, Note_on_c, 0, 72, 0
1, 27240, Note_on_c, 0, 70, 64
1, 27240, Note_on_c, 1, 48, 0
1, 27240, Note_on_c, 1, 53, 64
1, 27300, Note_on_c, 0, 70, 0
1, 27300, Note_on_c, 0, 69, 64
1, 27360, Note_on_c, 0, 69, 0
1, 27360, Note_on_c, 0, 67, 64
1, 27360, Note_on_c, 1, 53, 0
1, 27360, Note_on_c, 1, 57, 64
1, 27480, Note_on_c, 0, 67, 0
1, 27480, Note_on_c, 0, 65, 64
1, 27600, Note_on_c, 0, 65, 0
1, 27600, Note_on_c, 0, 67, 64
1, 27600, Note_on_c, 1, 57, 0
1, 27720, Note_on_c, 0, 67, 0
1, 27720, Note_on_c, 0, 69, 64
1, 27840, Note_on_c, 0, 69, 0
1, 27840, Note_on_c, 0, 72, 64
1, 27840, Note_on_c, 1, 55, 64
1, 27960, Note_on_c, 0, 72, 0
1, 27960, Note_on_c, 0, 70, 64
1, 28080, Note_on_c, 1, 55, 0
1, 28080, Note_on_c, 1, 52, 64
1, 28200, Note_on_c, 0, 70, 0
1, 28200, Note_on_c, 0, 67, 64
1, 28320, Note_on_c, 0, 67, 0
1, 28320, Note_on_c, 0, 70, 64
1, 28320, Note_on_c, 1, 52, 0
1, 28320, Note_on_c, 1, 53, 64
1, 28440, Note_on_c, 0, 70, 0
1, 28440, Note_on_c, 0, 69, 64
1, 28560, Note_on_c, 1, 53, 0
1, 28560, Note_on_c, 1, 50, 64
1, 28680, Note_on_c, 0, 69, 0
1, 28680, Note_on_c, 0, 65, 64
1, 28800, Note_on_c, 0, 65, 0
1, 28800, Note_on_c, 0, 64, 64
1, 28800, Note_on_c, 1, 50, 0
1, 28800, Note_on_c, 1, 48, 64
1, 28860, Note_on_c, 0, 64, 0
1, 28860, Note_on_c, 0, 65, 64
1, 28920, Note_on_c, 0, 65, 0
1, 28920, Note_on_c, 0, 67, 64
1, 28980, Note_on_c, 0, 67, 0
1, 28980, Note_on_c, 0, 69, 64
1, 29040, Note_on_c, 0, 69, 0
1, 29040, Note_on_c, 0, 71, 64
1, 29040, Note_on_c, 1, 48, 0
1, 29100, Note_on_c, 0, 71, 0
1, 29100, Note_on_c, 0, 72, 64
1, 29160, Note_on_c, 0, 72, 0
1, 29160, Note_on_c, 0, 71, 64
1, 29220, Note_on_c, 0, 71, 0
1, 29220, Note_on_c, 0, 72, 64
1, 29280, Note_on_c, 0, 72, 0
1, 29280, Note_on_c, 0, 60, 64
1, 29280, Note_on_c, 1, 48, 64
1, 29340, Note_on_c, 1, 48, 0
1, 29340, Note_on_c, 1, 50, 64
1, 29400, Note_on_c, 1, 50, 0
1, 29400, Note_on_c, 1, 46, 64
1, 29460, Note_on_c, 1, 46, 0
1, 29460, Note_on_c, 1, 48, 64
1, 29520, Note_on_c, 0, 60, 0
1, 29520, Note_on_c, 1, 48, 0
1, 29520, Note_on_c, 1, 45, 64
1, 29580, Note_on_c, 1, 45, 0
1, 29580, Note_on_c, 1, 46, 64
1, 29640, Note_on_c, 1, 46, 0
1, 29640, Note_on_c, 1, 43, 64
1, 29700, Note_on_c, 1, 43, 0
1, 29700, Note_on_c, 1, 45, 64
1, 29760, Note_on_c, 0, 69, 64
1, 29760, Note_on_c, 0, 72, 64
1, 29760, Note_on_c, 1, 45, 0
1, 29760, Note_on_c, 1, 41, 64
1, 30000, Note_on_c, 1, 41, 0
1, 30000, Note_on_c, 1, 53, 64
1, 30120, Note_on_c, 0, 72, 0
1, 30120, Note_on_c, 0, 69, 0
1, 30120, Note_on_c, 0, 74, 64
1, 30180, Note_on_c, 0, 74, 0
1, 30180, Note_on_c, 0, 72, 64
1, 30240, Note_on_c, 0, 72, 0
1, 30240, Note_on_c, 0, 70, 64
1, 30240, Note_on_c, 1, 53, 0
1, 30360, Note_on_c, 0, 70, 0
1, 30360, Note_on_c, 0, 69, 64
1, 30480, Note_on_c, 0, 69, 0
1, 30480, Note_on_c, 0, 67, 64
1, 30600, Note_on_c, 0, 67, 0
1, 30600, Note_on_c, 0, 65, 64
1, 30720, Note_on_c, 0, 65, 0
1, 30720, Note_on_c, 0, 65, 64
1, 30840, Note_on_c, 0, 65, 0
1, 30840, Note_on_c, 0, 74, 64
1, 30960, Note_on_c, 0, 74, 0
1, 30960, Note_on_c, 0, 65, 64
1, 30960, Note_on_c, 0, 74, 64
1, 30960, Note_on_c, 1, 46, 64
1, 30960, Note_on_c, 1, 58, 64
1, 31320, Note_on_c, 0, 74, 0
1, 31320, Note_on_c, 0, 65, 0
1, 31320, Note_on_c, 0, 72, 64
1, 31440, Note_on_c, 0, 72, 0
1, 31440, Note_on_c, 0, 76, 64
1, 31440, Note_on_c, 1, 58, 0
1, 31440, Note_on_c, 1, 46, 0
1, 31440, Note_on_c, 1, 57, 64
1, 31560, Note_on_c, 0, 76, 0
1, 31560, Note_on_c, 0, 77, 64
1, 31680, Note_on_c, 1, 57, 0
1, 31680, Note_on_c, 1, 59, 64
1, 31680, Note_on_c, 1, 62, 64
1, 31800, Note_on_c, 0, 77, 0
1, 31800, Note_on_c, 0, 67, 64
1, 31920, Note_on_c, 0, 67, 0
1, 31920, Note_on_c, 0, 69, 64
1, 31920, Note_on_c, 1, 62, 0
1, 31920, Note_on_c, 1, 59, 0
1, 31920, Note_on_c, 1, 60, 64
1, 32040, Note_on_c, 0, 69, 0
1, 32040, Note_on_c, 0, 77, 64
1, 32160, Note_on_c, 1, 60, 0
1, 32160, Note_on_c, 1, 59, 64
1, 32160, Note_on_c, 1, 62, 64
1, 32280, Note_on_c, 0, 77, 0
1, 32280, Note_on_c, 0, 67, 64
1, 32400, Note_on_c, 0, 67, 0
1, 32400, Note_on_c, 0, 69, 64
1, 32400, Note_on_c, 1, 62, 0
1, 32400, Note_on_c, 1, 59, 0
1, 32400, Note_on_c, 1, 60, 64
1, 32520, Note_on_c, 0, 69, 0
1, 32520, Note_on_c, 0, 77, 64
1, 32640, Note_on_c, 0, 77, 0
1, 32640, Note_on_c, 0, 72, 64
1, 32640, Note_on_c, 1, 60, 0
1, 32640, Note_on_c, 1, 62, 64
1, 32640, Note_on_c, 1, 65, 64
1, 32880, Note_on_c, 0, 72, 0
1, 32880, Note_on_c, 0, 71, 64
1, 32880, Note_on_c, 1, 65, 0
1, 32880, Note_on_c, 1, 62, 0
1, 32880, Note_on_c, 1, 64, 64
1, 32880, Note_on_c, 1, 67, 64
1, 33000, Note_on_c, 0, 71, 0
1, 33000, Note_on_c, 0, 70, 64
1, 33120, Note_on_c, 0, 70, 0
1, 33120, Note_on_c, 0, 69, 64
1, 33120, Note_on_c, 1, 67, 0
1, 33120, Note_on_c, 1, 64, 0
1, 33120, Note_on_c, 1, 65, 64
1, 33240, Note_on_c, 0, 69, 0
1, 33240, Note_on_c, 0, 69, 64
1, 33360, Note_on_c, 0, 69, 0
1, 33360, Note_on_c, 0, 70, 64
1, 33360, Note_on_c, 1, 65, 0
1, 33480, Note_on_c, 0, 70, 0
1, 33480, Note_on_c, 0, 72, 64
1, 33600, Note_on_c, 0, 72, 0
1, 33600, Note_on_c, 0, 73, 64
1, 33660, Note_on_c, 0, 73, 0
1, 33660, Note_on_c, 0, 74, 64
1, 33720, Note_on_c, 1, 50, 64
1, 33840, Note_on_c, 1, 50, 0
1, 33840, Note_on_c, 1, 62, 64
1, 33960, Note_on_c, 0, 74, 0
1, 33960, Note_on_c, 0, 76, 64
1, 33960, Note_on_c, 1, 62, 0
1, 33960, Note_on_c, 1, 60, 64
1, 34020, Note_on_c, 0, 76, 0
1, 34020, Note_on_c, 0, 78, 64
1, 34080, Note_on_c, 0, 78, 0
1, 34080, Note_on_c, 0, 79, 64
1, 34080, Note_on_c, 1, 60, 0
1, 34080, Note_on_c, 1, 58, 64
1, 34140, Note_on_c, 0, 79, 0
1, 34140, Note_on_c, 0, 81, 64
1, 34200, Note_on_c, 0, 81, 0
1, 34200, Note_on_c, 0, 82, 64
1, 34200, Note_on_c, 1, 58, 0
1, 34200, Note_on_c, 1, 46, 64
1, 34260, Note_on_c, 0, 82, 0
1, 34260, Note_on_c, 0, 81, 64
1, 34320, Note_on_c, 0, 81, 0
1, 34320, Note_on_c, 0, 79, 64
1, 34320, Note_on_c, 1, 46, 0
1, 34320, Note_on_c, 1, 58, 64
1, 34380, Note_on_c, 0, 79, 0
1, 34380, Note_on_c, 0, 81, 64
1, 34440, Note_on_c, 0, 81, 0
1, 34440, Note_on_c, 0, 77, 64
1, 34440, Note_on_c, 1, 58, 0
1, 34440, Note_on_c, 1, 57, 64
1, 34500, Note_on_c, 0, 77, 0
1, 34500, Note_on_c, 0, 79, 64
1, 34560, Note_on_c, 0, 79, 0
1, 34560, Note_on_c, 0, 76, 64
1, 34560, Note_on_c, 1, 57, 0
1, 34560, Note_on_c, 1, 55, 64
1, 34620, Note_on_c, 0, 76, 0
1, 34620, Note_on_c, 0, 77, 64
1, 34680, Note_on_c, 0, 77, 0
1, 34680, Note_on_c, 0, 74, 64
1, 34680, Note_on_c, 1, 55, 0
1, 34680, Note_on_c, 1, 53, 64
1, 34740, Note_on_c, 0, 74, 0
1, 34740, Note_on_c, 0, 76, 64
1, 34800, Note_on_c, 0, 76, 0
1, 34800, Note_on_c, 0, 72, 64
1, 34800, Note_on_c, 1, 53, 0
1, 34800, Note_on_c, 1, 52, 64
1, 34860, Note_on_c, 0, 72, 0
1, 34860, Note_on_c, 0, 74, 64
1, 34920, Note_on_c, 0, 74, 0
1, 34920, Note_on_c, 0, 70, 64
1, 34920, Note_on_c, 1, 52, 0
1, 34920, Note_on_c, 1, 48, 64
1, 34980, Note_on_c, 0, 70, 0
1, 34980, Note_on_c, 0, 72, 64
1, 35040, Note_on_c, 0, 72, 0
1, 35040, Note_on_c, 0, 69, 64
1, 35040, Note_on_c, 1, 48, 0
1, 35040, Note_on_c, 1, 53, 64
1, 35100, Note_on_c, 0, 69, 0
1, 35100, Note_on_c, 0, 70, 64
1, 35160, Note_on_c, 0, 70, 0
1, 35160, Note_on_c, 0, 72, 64
1, 35220, Note_on_c, 0, 72, 0
1, 35220, Note_on_c, 0, 74, 64
1, 35280, Note_on_c, 0, 74, 0
1, 35280, Note_on_c, 0, 76, 64
1, 35280, Note_on_c, 1, 53, 0
1, 35280, Note_on_c, 1, 45, 64
1, 35340, Note_on_c, 0, 76, 0
1, 35340, Note_on_c, 0, 77, 64
1, 35400, Note_on_c, 0, 77, 0
1, 35400, Note_on_c, 0, 76, 64
1, 35460, Note_on_c, 0, 76, 0
1, 35460, Note_on_c, 0, 77, 64
1, 35520, Note_on_c, 0, 77, 0
1, 35520, Note_on_c, 0, 79, 64
1, 35520, Note_on_c, 1, 45, 0
1, 35520, Note_on_c, 1, 46, 64
1, 35580, Note_on_c, 0, 79, 0
1, 35580, Note_on_c, 0, 77, 64
1, 35640, Note_on_c, 0, 77, 0
1, 35640, Note_on_c, 0, 76, 64
1, 35700, Note_on_c, 0, 76, 0
1, 35700, Note_on_c, 0, 74, 64
1, 35760, Note_on_c, 0, 74, 0
1, 35760, Note_on_c, 0, 76, 64
1, 35760, Note_on_c, 1, 46, 0
1, 35760, Note_on_c, 1, 58, 64
1, 35820, Note_on_c, 0, 76, 0
1, 35820, Note_on_c, 0, 74, 64
1, 35880, Note_on_c, 0, 74, 0
1, 35880, Note_on_c, 0, 72, 64
1, 35940, Note_on_c, 0, 72, 0
1, 35940, Note_on_c, 0, 70, 64
1, 36000, Note_on_c, 0, 70, 0
1, 36000, Note_on_c, 0, 69, 64
1, 36000, Note_on_c, 1, 58, 0
1, 36000, Note_on_c, 1, 60, 64
1, 36240, Note_on_c, 0, 69, 0
1, 36240, Note_on_c, 0, 67, 64
1, 36240, Note_on_c, 0, 64, 64
1, 36240, Note_on_c, 1, 60, 0
1, 36240, Note_on_c, 1, 48, 64
1, 36280, Note_on_c, 0, 67, 0
1, 36280, Note_on_c, 0, 69, 64
1, 36320, Note_on_c, 0, 69, 0
1, 36320, Note_on_c, 0, 67, 64
1, 36360, Note_on_c, 0, 67, 0
1, 36360, Note_on_c, 0, 69, 64
1, 36390, Note_on_c, 0, 69, 0
1, 36390, Note_on_c, 0, 67, 64
1, 36420, Note_on_c, 0, 67, 0
1, 36420, Note_on_c, 0, 65, 64
1, 36450, Note_on_c, 0, 65, 0
1, 36450, Note_on_c, 0, 67, 64
1, 36480, Note_on_c, 0, 67, 0
1, 36480, Note_on_c, 0, 64, 0
1, 36480, Note_on_c, 0, 65, 64
1, 36480, Note_on_c, 1, 48, 0
1, 36480, Note_on_c, 1, 53, 64
1, 36540, Note_on_c, 1, 53, 0
1, 36540, Note_on_c, 1, 60, 64
1, 36600, Note_on_c, 1, 60, 0
1, 36600, Note_on_c, 1, 59, 64
1, 36660, Note_on_c, 1, 59, 0
1, 36660, Note_on_c, 1, 60, 64
1, 36720, Note_on_c, 0, 65, 0
1, 36720, Note_on_c, 1, 60, 0
1, 36720, Note_on_c, 1, 62, 64
1, 36780, Note_on_c, 1, 62, 0
1, 36780, Note_on_c, 1, 60, 64
1, 36840, Note_on_c, 1, 60, 0
1, 36840, Note_on_c, 1, 59, 64
1, 36900, Note_on_c, 1, 59, 0
1, 36900, Note_on_c, 1, 60, 64
1, 36960, Note_on_c, 1, 60, 0
1, 36960, Note_on_c, 1, 58, 64
1, 37020, Note_on_c, 1, 58, 0
1, 37020, Note_on_c, 1, 60, 64
1, 37080, Note_on_c, 1, 60, 0
1, 37080, Note_on_c, 1, 57, 64
1, 37140, Note_on_c, 1, 57, 0
1, 37140, Note_on_c, 1, 60, 64
1, 37200, Note_on_c, 1, 60, 0
1, 37200, Note_on_c, 1, 55, 64
1, 37260, Note_on_c, 1, 55, 0
1, 37260, Note_on_c, 1, 60, 64
1, 37320, Note_on_c, 1, 60, 0
1, 37320, Note_on_c, 1, 53, 64
1, 37380, Note_on_c, 1, 53, 0
1, 37380, Note_on_c, 1, 60, 64
1, 37440, Note_on_c, 0, 82, 64
1, 37440, Note_on_c, 1, 60, 0
1, 37440, Note_on_c, 1, 52, 64
1, 37500, Note_on_c, 1, 52, 0
1, 37500, Note_on_c, 1, 60, 64
1, 37560, Note_on_c, 0, 82, 0
1, 37560, Note_on_c, 0, 79, 64
1, 37560, Note_on_c, 1, 60, 0
1, 37560, Note_on_c, 1, 55, 64
1, 37620, Note_on_c, 1, 55, 0
1, 37620, Note_on_c, 1, 60, 64
1, 37680, Note_on_c, 0, 79, 0
1, 37680, Note_on_c, 0, 76, 64
1, 37680, Note_on_c, 1, 60, 0
1, 37680, Note_on_c, 1, 58, 64
1, 37740, Note_on_c, 1, 58, 0
1, 37740, Note_on_c, 1, 60, 64
1, 37800, Note_on_c, 0, 76, 0
1, 37800, Note_on_c, 0, 76, 64
1, 37800, Note_on_c, 1, 60, 0
1, 37800, Note_on_c, 1, 58, 64
1, 37860, Note_on_c, 1, 58, 0
1, 37860, Note_on_c, 1, 60, 64
1, 37920, Note_on_c, 0, 76, 0
1, 37920, Note_on_c, 0, 82, 64
1, 37920, Note_on_c, 1, 60, 0
1, 37920, Note_on_c, 1, 52, 64
1, 37980, Note_on_c, 1, 52, 0
1, 37980, Note_on_c, 1, 60, 64
1, 38040, Note_on_c, 0, 82, 0
1, 38040, Note_on_c, 0, 79, 64
1, 38040, Note_on_c, 1, 60, 0
1, 38040, Note_on_c, 1, 55, 64
1, 38100, Note_on_c, 1, 55, 0
1, 38100, Note_on_c, 1, 60, 64
1, 38160, Note_on_c, 0, 79, 0
1, 38160, Note_on_c, 0, 76, 64
1, 38160, Note_on_c, 1, 60, 0
1, 38160, Note_on_c, 1, 58, 64
1, 38220, Note_on_c, 1, 58, 0
1, 38220, Note_on_c, 1, 60, 64
1, 38280, Note_on_c, 0, 76, 0
1, 38280, Note_on_c, 0, 76, 64
1, 38280, Note_on_c, 1, 60, 0
1, 38280, Note_on_c, 1, 58, 64
1, 38340, Note_on_c, 1, 58, 0
1, 38340, Note_on_c, 1, 60, 64
1, 38400, Note_on_c, 0, 76, 0
1, 38400, Note_on_c, 0, 77, 64
1, 38400, Note_on_c, 1, 60, 0
1, 38400, Note_on_c, 1, 57, 64
1, 38460, Note_on_c, 1, 57, 0
1, 38460, Note_on_c, 1, 60, 64
1, 38520, Note_on_c, 0, 77, 0
1, 38520, Note_on_c, 0, 79, 64
1, 38520, Note_on_c, 1, 60, 0
1, 38520, Note_on_c, 1, 52, 64
1, 38580, Note_on_c, 1, 52, 0
1, 38580, Note_on_c, 1, 60, 64
1, 38640, Note_on_c, 0, 79, 0
1, 38640, Note_on_c, 0, 81, 64
1, 38640, Note_on_c, 1, 60, 0
1, 38640, Note_on_c, 1, 53, 64
1, 38700, Note_on_c, 1, 53, 0
1, 38700, Note_on_c, 1, 60, 64
1, 38760, Note_on_c, 0, 81, 0
1, 38760, Note_on_c, 0, 82, 64
1, 38760, Note_on_c, 1, 60, 0
1, 38760, Note_on_c, 1, 55, 64
1, 38820, Note_on_c, 1, 55, 0
1, 38820, Note_on_c, 1, 60, 64
1, 38880, Note_on_c, 0, 82, 0
1, 38880, Note_on_c, 0, 83, 64
1, 38880, Note_on_c, 1, 60, 0
1, 38880, Note_on_c, 1, 56, 64
1, 38940, Note_on_c, 1, 56, 0
1, 38940, Note_on_c, 1, 60, 64
1, 39000, Note_on_c, 0, 83, 0
1, 39000, Note_on_c, 0, 84, 64
1, 39000, Note_on_c, 1, 60, 0
1, 39000, Note_on_c, 1, 57, 64
1, 39060, Note_on_c, 1, 57, 0
1, 39060, Note_on_c, 1, 60, 64
1, 39120, Note_on_c, 0, 84, 0
1, 39120, Note_on_c, 0, 83, 64
1, 39120, Note_on_c, 1, 60, 0
1, 39120, Note_on_c, 1, 56, 64
1, 39180, Note_on_c, 1, 56, 0
1, 39180, Note_on_c, 1, 60, 64
1, 39240, Note_on_c, 0, 83, 0
1, 39240, Note_on_c, 0, 84, 64
1, 39240, Note_on_c, 1, 60, 0
1, 39240, Note_on_c, 1, 57, 64
1, 39300, Note_on_c, 1, 57, 0
1, 39300, Note_on_c, 1, 60, 64
1, 39360, Note_on_c, 0, 84, 0
1, 39360, Note_on_c, 0, 82, 64
1, 39360, Note_on_c, 1, 60, 0
1, 39360, Note_on_c, 1, 52, 64
1, 39420, Note_on_c, 1, 52, 0
1, 39420, Note_on_c, 1, 60, 64
1, 39480, Note_on_c, 0, 82, 0
1, 39480, Note_on_c, 0, 79, 64
1, 39480, Note_on_c, 1, 60, 0
1, 39480, Note_on_c, 1, 55, 64
1, 39540, Note_on_c, 1, 55, 0
1, 39540, Note_on_c, 1, 60, 64
1, 39600, Note_on_c, 0, 79, 0
1, 39600, Note_on_c, 0, 76, 64
1, 39600, Note_on_c, 1, 60, 0
1, 39600, Note_on_c, 1, 58, 64
1, 39660, Note_on_c, 1, 58, 0
1, 39660, Note_on_c, 1, 60, 64
1, 39720, Note_on_c, 0, 76, 0
1, 39720, Note_on_c, 0, 76, 64
1, 39720, Note_on_c, 1, 60, 0
1, 39720, Note_on_c, 1, 58, 64
1, 39780, Note_on_c, 1, 58, 0
1, 39780, Note_on_c, 1, 60, 64
1, 39840, Note_on_c, 0, 76, 0
1, 39840, Note_on_c, 0, 82, 64
1, 39840, Note_on_c, 1, 60, 0
1, 39840, Note_on_c, 1, 52, 64
1, 39900, Note_on_c, 1, 52, 0
1, 39900, Note_on_c, 1, 60, 64
1, 39960, Note_on_c, 0, 82, 0
1, 39960, Note_on_c, 0, 79, 64
1, 39960, Note_on_c, 1, 60, 0
1, 39960, Note_on_c, 1, 55, 64
1, 40020, Note_on_c, 1, 55, 0
1, 40020, Note_on_c, 1, 60, 64
1, 40080, Note_on_c, 0, 79, 0
1, 40080, Note_on_c, 0, 76, 64
1, 40080, Note_on_c, 1, 60, 0
1, 40080, Note_on_c, 1, 58, 64
1, 40140, Note_on_c, 1, 58, 0
1, 40140, Note_on_c, 1, 60, 64
1, 40200, Note_on_c, 0, 76, 0
1, 40200, Note_on_c, 0, 76, 64
1, 40200, Note_on_c, 1, 60, 0
1, 40200, Note_on_c, 1, 58, 64
1, 40260, Note_on_c, 1, 58, 0
1, 40260, Note_on_c, 1, 60, 64
1, 40320, Note_on_c, 0, 76, 0
1, 40320, Note_on_c, 0, 77, 64
1, 40320, Note_on_c, 1, 60, 0
1, 40320, Note_on_c, 1, 57, 64
1, 40380, Note_on_c, 1, 57, 0
1, 40380, Note_on_c, 1, 60, 64
1, 40440, Note_on_c, 0, 77, 0
1, 40440, Note_on_c, 0, 79, 64
1, 40440, Note_on_c, 1, 60, 0
1, 40440, Note_on_c, 1, 52, 64
1, 40500, Note_on_c, 1, 52, 0
1, 40500, Note_on_c, 1, 60, 64
1, 40560, Note_on_c, 0, 79, 0
1, 40560, Note_on_c, 0, 81, 64
1, 40560, Note_on_c, 1, 60, 0
1, 40560, Note_on_c, 1, 53, 64
1, 40620, Note_on_c, 1, 53, 0
1, 40620, Note_on_c, 1, 60, 64
1, 40680, Note_on_c, 0, 81, 0
1, 40680, Note_on_c, 0, 82, 64
1, 40680, Note_on_c, 1, 60, 0
1, 40680, Note_on_c, 1, 55, 64
1, 40740, Note_on_c, 1, 55, 0
1, 40740, Note_on_c, 1, 60, 64
1, 40800, Note_on_c, 0, 82, 0
1, 40800, Note_on_c, 0, 83, 64
1, 40800, Note_on_c, 1, 60, 0
1, 40800, Note_on_c, 1, 56, 64
1, 40860, Note_on_c, 1, 56, 0
1, 40860, Note_on_c, 1, 60, 64
1, 40920, Note_on_c, 0, 83, 0
1, 40920, Note_on_c, 0, 84, 64
1, 40920, Note_on_c, 1, 60, 0
1, 40920, Note_on_c, 1, 57, 64
1, 40980, Note_on_c, 1, 57, 0
1, 40980, Note_on_c, 1, 60, 64
1, 41040, Note_on_c, 0, 84, 0
1, 41040, Note_on_c, 0, 83, 64
1, 41040, Note_on_c, 1, 60, 0
1, 41040, Note_on_c, 1, 56, 64
1, 41100, Note_on_c, 1, 56, 0
1, 41100, Note_on_c, 1, 60, 64
1, 41160, Note_on_c, 0, 83, 0
1, 41160, Note_on_c, 0, 84, 64
1, 41160, Note_on_c, 1, 60, 0
1, 41160, Note_on_c, 1, 57, 64
1, 41220, Note_on_c, 1, 57, 0
1, 41220, Note_on_c, 1, 60, 64
1, 41280, Note_on_c, 0, 84, 0
1, 41280, Note_on_c, 0, 74, 64
1, 41280, Note_on_c, 0, 86, 64
1, 41280, Note_on_c, 1, 60, 0
1, 41400, Note_on_c, 1, 58, 64
1, 41520, Note_on_c, 1, 58, 0
1, 41520, Note_on_c, 1, 57, 64
1, 41640, Note_on_c, 1, 57, 0
1, 41640, Note_on_c, 1, 58, 64
1, 41760, Note_on_c, 0, 86, 0
1, 41760, Note_on_c, 0, 74, 0
1, 41760, Note_on_c, 0, 76, 64
1, 41760, Note_on_c, 0, 64, 64
1, 41760, Note_on_c, 1, 58, 0
1, 41880, Note_on_c, 1, 60, 64
1, 42000, Note_on_c, 1, 60, 0
1, 42000, Note_on_c, 1, 59, 64
1, 42120, Note_on_c, 1, 59, 0
1, 42120, Note_on_c, 1, 60, 64
1, 42240, Note_on_c, 0, 64, 0
1, 42240, Note_on_c, 0, 76, 0
1, 42240, Note_on_c, 0, 82, 64
1, 42240, Note_on_c, 0, 70, 64
1, 42240, Note_on_c, 1, 60, 0
1, 42360, Note_on_c, 1, 61, 64
1, 42480, Note_on_c, 1, 61, 0
1, 42480, Note_on_c, 1, 59, 64
1, 42600, Note_on_c, 1, 59, 0
1, 42600, Note_on_c, 1, 61, 64
1, 42720, Note_on_c, 0, 70, 0
1, 42720, Note_on_c, 0, 82, 0
1, 42720, Note_on_c, 0, 81, 64
1, 42720, Note_on_c, 0, 69, 64
1, 42720, Note_on_c, 1, 61, 0
1, 42840, Note_on_c, 1, 62, 64
1, 42960, Note_on_c, 1, 62, 0
1, 42960, Note_on_c, 1, 61, 64
1, 43080, Note_on_c, 1, 61, 0
1, 43080, Note_on_c, 1, 62, 64
1, 43200, Note_on_c, 0, 69, 0
1, 43200, Note_on_c, 0, 81, 0
1, 43200, Note_on_c, 0, 81, 64
1, 43200, Note_on_c, 1, 62, 0
1, 43260, Note_on_c, 0, 81, 0
1, 43260, Note_on_c, 0, 79, 64
1, 43320, Note_on_c, 0, 79, 0
1, 43320, Note_on_c, 0, 82, 64
1, 43380, Note_on_c, 0, 82, 0
1, 43380, Note_on_c, 0, 81, 64
1, 43440, Note_on_c, 0, 81, 0
1, 43440, Note_on_c, 0, 84, 64
1, 43440, Note_on_c, 1, 58, 64
1, 43440, Note_on_c, 1, 67, 64
1, 43500, Note_on_c, 0, 84, 0
1, 43500, Note_on_c, 0, 82, 64
1, 43560, Note_on_c, 0, 82, 0
1, 43560, Note_on_c, 0, 81, 64
1, 43620, Note_on_c, 0, 81, 0
1, 43620, Note_on_c, 0, 79, 64
1, 43680, Note_on_c, 0, 79, 0
1, 43680, Note_on_c, 0, 77, 64
1, 43680, Note_on_c, 1, 67, 0
1, 43680, Note_on_c, 1, 58, 0
1, 43680, Note_on_c, 1, 69, 64
1, 43680, Note_on_c, 1, 60, 64
1, 43920, Note_on_c, 0, 77, 0
1, 43920, Note_on_c, 0, 76, 64
1, 43920, Note_on_c, 1, 69, 0
1, 43920, Note_on_c, 1, 70, 64
1, 44160, Note_on_c, 0, 76, 0
1, 44160, Note_on_c, 1, 70, 0
1, 44160, Note_on_c, 1, 60, 0
1, 44160, Note_on_c, 1, 65, 64
1, 44160, Note_on_c, 1, 69, 64
1, 44280, Note_on_c, 0, 77, 64
1, 44400, Note_on_c, 0, 77, 0
1, 44400, Note_on_c, 0, 76, 64
1, 44520, Note_on_c, 0, 76, 0
1, 44520, Note_on_c, 0, 77, 64
1, 44640, Note_on_c, 0, 77, 0
1, 44640, Note_on_c, 1, 69, 0
1, 44640, Note_on_c, 1, 65, 0
1, 44640, Note_on_c, 1, 65, 64
1, 44640, Note_on_c, 1, 69, 64
1, 44760, Note_on_c, 0, 75, 64
1, 44880, Note_on_c, 0, 75, 0
1, 44880, Note_on_c, 0, 74, 64
1, 45000, Note_on_c, 0, 74, 0
1, 45000, Note_on_c, 0, 75, 64
1, 45120, Note_on_c, 0, 75, 0
1, 45120, Note_on_c, 1, 69, 0
1, 45120, Note_on_c, 1, 65, 0
1, 45120, Note_on_c, 1, 54, 64
1, 45120, Note_on_c, 1, 57, 64
1, 45120, Note_on_c, 1, 60, 64
1, 45240, Note_on_c, 0, 74, 64
1, 45360, Note_on_c, 0, 74, 0
1, 45360, Note_on_c, 0, 86, 64
1, 45480, Note_on_c, 0, 86, 0
1, 45480, Note_on_c, 0, 86, 64
1, 45600, Note_on_c, 0, 86, 0
1, 45600, Note_on_c, 1, 60, 0
1, 45600, Note_on_c, 1, 57, 0
1, 45600, Note_on_c, 1, 54, 0
1, 45600, Note_on_c, 1, 55, 64
1, 45600, Note_on_c, 1, 58, 64
1, 45720, Note_on_c, 0, 86, 64
1, 45840, Note_on_c, 0, 86, 0
1, 45840, Note_on_c, 0, 74, 64
1, 45960, Note_on_c, 0, 74, 0
1, 45960, Note_on_c, 0, 74, 64
1, 46080, Note_on_c, 0, 74, 0
1, 46080, Note_on_c, 1, 58, 0
1, 46080, Note_on_c, 1, 55, 0
1, 46080, Note_on_c, 1, 52, 64
1, 46080, Note_on_c, 1, 55, 64
1, 46080, Note_on_c, 1, 58, 64
1, 46200, Note_on_c, 0, 72, 64
1, 46320, Note_on_c, 0, 72, 0
1, 46320, Note_on_c, 0, 84, 64
1, 46440, Note_on_c, 0, 84, 0
1, 46440, Note_on_c, 0, 84, 64
1, 46560, Note_on_c, 0, 84, 0
1, 46560, Note_on_c, 1, 58, 0
1, 46560, Note_on_c, 1, 55, 0
1, 46560, Note_on_c, 1, 52, 0
1, 46560, Note_on_c, 1, 53, 64
1, 46560, Note_on_c, 1, 57, 64
1, 46680, Note_on_c, 0, 84, 64
1, 46800, Note_on_c, 0, 84, 0
1, 46800, Note_on_c, 0, 72, 64
1, 46920, Note_on_c, 0, 72, 0
1, 46920, Note_on_c, 0, 72, 64
1, 47040, Note_on_c, 0, 72, 0
1, 47040, Note_on_c, 0, 73, 64
1, 47040, Note_on_c, 1, 57, 0
1, 47040, Note_on_c, 1, 53, 0
1, 47160, Note_on_c, 0, 73, 0
1, 47160, Note_on_c, 0, 74, 64
1, 47280, Note_on_c, 0, 74, 0
1, 47280, Note_on_c, 0, 76, 64
1, 47280, Note_on_c, 1, 47, 64
1, 47280, Note_on_c, 1, 55, 64
1, 47400, Note_on_c, 0, 76, 0
1, 47400, Note_on_c, 0, 77, 64
1, 47520, Note_on_c, 0, 77, 0
1, 47520, Note_on_c, 0, 65, 64
1, 47520, Note_on_c, 1, 55, 0
1, 47520, Note_on_c, 1, 47, 0
1, 47520, Note_on_c, 1, 57, 64
1, 47520, Note_on_c, 1, 48, 64
1, 47760, Note_on_c, 0, 65, 0
1, 47760, Note_on_c, 0, 69, 64
1, 47760, Note_on_c, 0, 64, 64
1, 47760, Note_on_c, 1, 57, 0
1, 47760, Note_on_c, 1, 58, 64
1, 47880, Note_on_c, 0, 69, 0
1, 47880, Note_on_c, 0, 67, 64
1, 48000, Note_on_c, 0, 67, 0
1, 48000, Note_on_c, 0, 64, 0
1, 48000, Note_on_c, 0, 65, 64
1, 48000, Note_on_c, 1, 58, 0
1, 48000, Note_on_c, 1, 48, 0
1, 48000, Note_on_c, 1, 57, 64
1, 48000, Note_on_c, 1, 60, 64
1, 48120, Note_on_c, 0, 65, 0
1, 48120, Note_on_c, 0, 65, 64
1, 48120, Note_on_c, 1, 60, 0
1, 48120, Note_on_c, 1, 57, 0
1, 48180, Note_on_c, 0, 65, 0
1, 48180, Note_on_c, 0, 69, 64
1, 48240, Note_on_c, 0, 69, 0
1, 48240, Note_on_c, 0, 67, 64
1, 48240, Note_on_c, 1, 64, 64
1, 48300, Note_on_c, 0, 67, 0
1, 48300, Note_on_c, 0, 70, 64
1, 48360, Note_on_c, 0, 70, 0
1, 48360, Note_on_c, 0, 69, 64
1, 48360, Note_on_c, 1, 64, 0
1, 48360, Note_on_c, 1, 63, 64
1, 48420, Note_on_c, 0, 69, 0
1, 48420, Note_on_c, 0, 72, 64
1, 48480, Note_on_c, 0, 72, 0
1, 48480, Note_on_c, 0, 70, 64
1, 48480, Note_on_c, 1, 63, 0
1, 48480, Note_on_c, 1, 53, 64
1, 48480, Note_on_c, 1, 62, 64
1, 48600, Note_on_c, 0, 70, 0
1, 48600, Note_on_c, 0, 65, 64
1, 48600, Note_on_c, 1, 62, 0
1, 48600, Note_on_c, 1, 53, 0
1, 48660, Note_on_c, 0, 65, 0
1, 48660, Note_on_c, 0, 69, 64
1, 48720, Note_on_c, 0, 69, 0
1, 48720, Note_on_c, 0, 67, 64
1, 48720, Note_on_c, 1, 64, 64
1, 48780, Note_on_c, 0, 67, 0
1, 48780, Note_on_c, 0, 70, 64
1, 48840, Note_on_c, 0, 70, 0
1, 48840, Note_on_c, 0, 69, 64
1, 48840, Note_on_c, 1, 64, 0
1, 48840, Note_on_c, 1, 63, 64
1, 48900, Note_on_c, 0, 69, 0
1, 48900, Note_on_c, 0, 72, 64
1, 48960, Note_on_c, 0, 72, 0
1, 48960, Note_on_c, 0, 70, 64
1, 48960, Note_on_c, 1, 63, 0
1, 48960, Note_on_c, 1, 53, 64
1, 48960, Note_on_c, 1, 62, 64
1, 49080, Note_on_c, 0, 70, 0
1, 49080, Note_on_c, 0, 65, 64
1, 49080, Note_on_c, 1, 62, 0
1, 49080, Note_on_c, 1, 53, 0
1, 49140, Note_on_c, 0, 65, 0
1, 49140, Note_on_c, 0, 69, 64
1, 49200, Note_on_c, 0, 69, 0
1, 49200, Note_on_c, 0, 67, 64
1, 49200, Note_on_c, 1, 64, 64
1, 49260, Note_on_c, 0, 67, 0
1, 49260, Note_on_c, 0, 70, 64
1, 49320, Note_on_c, 0, 70, 0
1, 49320, Note_on_c, 0, 69, 64
1, 49320, Note_on_c, 1, 64, 0
1, 49320, Note_on_c, 1, 63, 64
1, 49380, Note_on_c, 0, 69, 0
1, 49380, Note_on_c, 0, 72, 64
1, 49440, Note_on_c, 0, 72, 0
1, 49440, Note_on_c, 0, 70, 64
1, 49440, Note_on_c, 1, 63, 0
1, 49440, Note_on_c, 1, 62, 64
1, 49500, Note_on_c, 0, 70, 0
1, 49500, Note_on_c, 0, 74, 64
1, 49560, Note_on_c, 0, 74, 0
1, 49560, Note_on_c, 0, 72, 64
1, 49560, Note_on_c, 1, 62, 0
1, 49560, Note_on_c, 1, 57, 64
1, 49620, Note_on_c, 0, 72, 0
1, 49620, Note_on_c, 0, 75, 64
1, 49680, Note_on_c, 0, 75, 0
1, 49680, Note_on_c, 0, 74, 64
1, 49680, Note_on_c, 1, 57, 0
1, 49680, Note_on_c, 1, 58, 64
1, 49740, Note_on_c, 0, 74, 0
1, 49740, Note_on_c, 0, 77, 64
1, 49800, Note_on_c, 0, 77, 0
1, 49800, Note_on_c, 0, 76, 64
1, 49800, Note_on_c, 1, 58, 0
1, 49800, Note_on_c, 1, 55, 64
1, 49860, Note_on_c, 0, 76, 0
1, 49860, Note_on_c, 0, 79, 64
1, 49920, Note_on_c, 0, 79, 0
1, 49920, Note_on_c, 0, 77, 64
1, 49920, Note_on_c, 1, 55, 0
1, 49920, Note_on_c, 1, 57, 64
1, 49980, Note_on_c, 0, 77, 0
1, 49980, Note_on_c, 0, 79, 64
1, 50040, Note_on_c, 0, 79, 0
1, 50040, Note_on_c, 0, 81, 64
1, 50100, Note_on_c, 0, 81, 0
1, 50100, Note_on_c, 0, 79, 64
1, 50160, Note_on_c, 0, 79, 0
1, 50160, Note_on_c, 0, 77, 64
1, 50160, Note_on_c, 1, 57, 0
1, 50220, Note_on_c, 0, 77, 0
1, 50220, Note_on_c, 0, 75, 64
1, 50280, Note_on_c, 0, 75, 0
1, 50280, Note_on_c, 0, 74, 64
1, 50340, Note_on_c, 0, 74, 0
1, 50340, Note_on_c, 0, 73, 64
1, 50400, Note_on_c, 0, 73, 0
1, 50400, Note_on_c, 0, 74, 64
1, 50400, Note_on_c, 1, 58, 64
1, 50460, Note_on_c, 0, 74, 0
1, 50460, Note_on_c, 0, 72, 64
1, 50520, Note_on_c, 0, 72, 0
1, 50520, Note_on_c, 0, 70, 64
1, 50580, Note_on_c, 0, 70, 0
1, 50580, Note_on_c, 0, 69, 64
1, 50640, Note_on_c, 0, 69, 0
1, 50640, Note_on_c, 0, 67, 64
1, 50640, Note_on_c, 1, 58, 0
1, 50700, Note_on_c, 0, 67, 0
1, 50700, Note_on_c, 0, 65, 64
1, 50760, Note_on_c, 0, 65, 0
1, 50760, Note_on_c, 0, 64, 64
1, 50820, Note_on_c, 0, 64, 0
1, 50820, Note_on_c, 0, 62, 64
1, 50880, Note_on_c, 0, 62, 0
1, 50880, Note_on_c, 0, 60, 64
1, 50880, Note_on_c, 1, 48, 64
1, 50940, Note_on_c, 0, 60, 0
1, 50940, Note_on_c, 0, 65, 64
1, 51000, Note_on_c, 0, 65, 0
1, 51000, Note_on_c, 0, 69, 64
1, 51000, Note_on_c, 1, 48, 0
1, 51000, Note_on_c, 1, 53, 64
1, 51060, Note_on_c, 0, 69, 0
1, 51060, Note_on_c, 0, 72, 64
1, 51120, Note_on_c, 0, 72, 0
1, 51120, Note_on_c, 0, 77, 64
1, 51120, Note_on_c, 1, 53, 0
1, 51120, Note_on_c, 1, 57, 64
1, 51240, Note_on_c, 0, 77, 0
1, 51240, Note_on_c, 0, 65, 64
1, 51240, Note_on_c, 0, 69, 64
1, 51240, Note_on_c, 1, 57, 0
1, 51240, Note_on_c, 1, 53, 64
1, 51360, Note_on_c, 0, 69, 0
1, 51360, Note_on_c, 0, 65, 0
1, 51360, Note_on_c, 0, 69, 64
1, 51360, Note_on_c, 0, 72, 64
1, 51360, Note_on_c, 1, 53, 0
1, 51360, Note_on_c, 1, 48, 64
1, 51480, Note_on_c, 0, 72, 0
1, 51480, Note_on_c, 0, 69, 0
1, 51480, Note_on_c, 0, 67, 64
1, 51480, Note_on_c, 0, 70, 64
1, 51480, Note_on_c, 1, 48, 0
1, 51480, Note_on_c, 1, 55, 64
1, 51600, Note_on_c, 0, 70, 0
1, 51600, Note_on_c, 0, 67, 0
1, 51600, Note_on_c, 0, 65, 64
1, 51600, Note_on_c, 0, 69, 64
1, 51600, Note_on_c, 1, 55, 0
1, 51600, Note_on_c, 1, 58, 64
1, 51720, Note_on_c, 0, 69, 0
1, 51720, Note_on_c, 0, 65, 0
1, 51720, Note_on_c, 0, 64, 64
1, 51720, Note_on_c, 0, 67, 64
1, 51720, Note_on_c, 1, 58, 0
1, 51720, Note_on_c, 1, 55, 64
1, 51840, Note_on_c, 0, 67, 0
1, 51840, Note_on_c, 0, 64, 0
1, 51840, Note_on_c, 0, 65, 64
1, 51840, Note_on_c, 1, 55, 0
1, 51840, Note_on_c, 1, 53, 64
1, 51840, Note_on_c, 1, 57, 64
1, 51960, Note_on_c, 0, 65, 0
1, 51960, Note_on_c, 0, 77, 64
1, 51960, Note_on_c, 1, 57, 0
1, 51960, Note_on_c, 1, 53, 0
1, 51960, Note_on_c, 1, 65, 64
1, 52020, Note_on_c, 0, 77, 0
1, 52020, Note_on_c, 0, 81, 64
1, 52080, Note_on_c, 0, 81, 0
1, 52080, Note_on_c, 0, 79, 64
1, 52080, Note_on_c, 1, 65, 0
1, 52080, Note_on_c, 1, 64, 64
1, 52140, Note_on_c, 0, 79, 0
1, 52140, Note_on_c, 0, 82, 64
1, 52200, Note_on_c, 0, 82, 0
1, 52200, Note_on_c, 0, 81, 64
1, 52200, Note_on_c, 1, 64, 0
1, 52200, Note_on_c, 1, 63, 64
1, 52260, Note_on_c, 0, 81, 0
1, 52260, Note_on_c, 0, 84, 64
1, 52320, Note_on_c, 0, 84, 0
1, 52320, Note_on_c, 0, 82, 64
1, 52320, Note_on_c, 1, 63, 0
1, 52320, Note_on_c, 1, 53, 64
1, 52320, Note_on_c, 1, 62, 64
1, 52440, Note_on_c, 0, 82, 0
1, 52440, Note_on_c, 0, 77, 64
1, 52440, Note_on_c, 1, 62, 0
1, 52440, Note_on_c, 1, 53, 0
1, 52440, Note_on_c, 1, 65, 64
1, 52500, Note_on_c, 0, 77, 0
1, 52500, Note_on_c, 0, 81, 64
1, 52560, Note_on_c, 0, 81, 0
1, 52560, Note_on_c, 0, 79, 64
1, 52560, Note_on_c, 1, 65, 0
1, 52560, Note_on_c, 1, 64, 64
1, 52620, Note_on_c, 0, 79, 0
1, 52620, Note_on_c, 0, 82, 64
1, 52680, Note_on_c, 0, 82, 0
1, 52680, Note_on_c, 0, 81, 64
1, 52680, Note_on_c, 1, 64, 0
1, 52680, Note_on_c, 1, 63, 64
1, 52740, Note_on_c, 0, 81, 0
1, 52740, Note_on_c, 0, 84, 64
1, 52800, Note_on_c, 0, 84, 0
1, 52800, Note_on_c, 0, 82, 64
1, 52800, Note_on_c, 1, 63, 0
1, 52800, Note_on_c, 1, 53, 64
1, 52800, Note_on_c, 1, 62, 64
1, 52920, Note_on_c, 0, 82, 0
1, 52920, Note_on_c, 0, 77, 64
1, 52920, Note_on_c, 1, 62, 0
1, 52920, Note_on_c, 1, 53, 0
1, 52920, Note_on_c, 1, 65, 64
1, 52980, Note_on_c, 0, 77, 0
1, 52980, Note_on_c, 0, 81, 64
1, 53040, Note_on_c, 0, 81, 0
1, 53040, Note_on_c, 0, 79, 64
1, 53040, Note_on_c, 1, 65, 0
1, 53040, Note_on_c, 1, 64, 64
1, 53100, Note_on_c, 0, 79, 0
1, 53100, Note_on_c, 0, 82, 64
1, 53160, Note_on_c, 0, 82, 0
1, 53160, Note_on_c, 0, 81, 64
1, 53160, Note_on_c, 1, 64, 0
1, 53160, Note_on_c, 1, 63, 64
1, 53220, Note_on_c, 0, 81, 0
1, 53220, Note_on_c, 0, 84, 64
1, 53280, Note_on_c, 0, 84, 0
1, 53280, Note_on_c, 0, 82, 64
1, 53280, Note_on_c, 1, 63, 0
1, 53280, Note_on_c, 1, 62, 64
1, 53340, Note_on_c, 0, 82, 0
1, 53340, Note_on_c, 0, 77, 64
1, 53400, Note_on_c, 0, 77, 0
1, 53400, Note_on_c, 0, 84, 64
1, 53400, Note_on_c, 1, 62, 0
1, 53400, Note_on_c, 1, 57, 64
1, 53460, Note_on_c, 0, 84, 0
1, 53460, Note_on_c, 0, 77, 64
1, 53520, Note_on_c, 0, 77, 0
1, 53520, Note_on_c, 0, 86, 64
1, 53520, Note_on_c, 1, 57, 0
1, 53520, Note_on_c, 1, 58, 64
1, 53580, Note_on_c, 0, 86, 0
1, 53580, Note_on_c, 0, 77, 64
1, 53640, Note_on_c, 0, 77, 0
1, 53640, Note_on_c, 0, 88, 64
1, 53640, Note_on_c, 1, 58, 0
1, 53640, Note_on_c, 1, 55, 64
1, 53700, Note_on_c, 0, 88, 0
1, 53700, Note_on_c, 0, 77, 64
1, 53760, Note_on_c, 0, 77, 0
1, 53760, Note_on_c, 0, 89, 64
1, 53760, Note_on_c, 1, 55, 0
1, 53760, Note_on_c, 1, 57, 64
1, 53760, Note_on_c, 1, 45, 64
1, 53820, Note_on_c, 0, 89, 0
1, 53820, Note_on_c, 0, 88, 64
1, 53880, Note_on_c, 0, 88, 0
1, 53880, Note_on_c, 0, 86, 64
1, 53940, Note_on_c, 0, 86, 0
1, 53940, Note_on_c, 0, 84, 64
1, 54000, Note_on_c, 0, 84, 0
1, 54000, Note_on_c, 0, 82, 64
1, 54000, Note_on_c, 1, 45, 0
1, 54000, Note_on_c, 1, 57, 0
1, 54060, Note_on_c, 0, 82, 0
1, 54060, Note_on_c, 0, 81, 64
1, 54120, Note_on_c, 0, 81, 0
1, 54120, Note_on_c, 0, 79, 64
1, 54180, Note_on_c, 0, 79, 0
1, 54180, Note_on_c, 0, 77, 64
1, 54240, Note_on_c, 0, 77, 0
1, 54240, Note_on_c, 0, 86, 64
1, 54240, Note_on_c, 1, 58, 64
1, 54240, Note_on_c, 1, 46, 64
1, 54300, Note_on_c, 0, 86, 0
1, 54300, Note_on_c, 0, 84, 64
1, 54360, Note_on_c, 0, 84, 0
1, 54360, Note_on_c, 0, 82, 64
1, 54420, Note_on_c, 0, 82, 0
1, 54420, Note_on_c, 0, 81, 64
1, 54480, Note_on_c, 0, 81, 0
1, 54480, Note_on_c, 0, 79, 64
1, 54480, Note_on_c, 1, 46, 0
1, 54480, Note_on_c, 1, 58, 0
1, 54540, Note_on_c, 0, 79, 0
1, 54540, Note_on_c, 0, 77, 64
1, 54600, Note_on_c, 0, 77, 0
1, 54600, Note_on_c, 0, 76, 64
1, 54660, Note_on_c, 0, 76, 0
1, 54660, Note_on_c, 0, 74, 64
1, 54720, Note_on_c, 0, 74, 0
1, 54720, Note_on_c, 0, 72, 64
1, 54720, Note_on_c, 1, 48, 64
1, 54780, Note_on_c, 1, 48, 0
1, 54780, Note_on_c, 1, 57, 64
1, 54840, Note_on_c, 0, 72, 0
1, 54840, Note_on_c, 0, 84, 64
1, 54840, Note_on_c, 1, 57, 0
1, 54840, Note_on_c, 1, 53, 64
1, 54900, Note_on_c, 1, 53, 0
1, 54900, Note_on_c, 1, 57, 64
1, 54960, Note_on_c, 0, 84, 0
1, 54960, Note_on_c, 0, 84, 64
1, 54960, Note_on_c, 1, 57, 0
1, 54960, Note_on_c, 1, 48, 64
1, 55020, Note_on_c, 1, 48, 0
1, 55020, Note_on_c, 1, 57, 64
1, 55080, Note_on_c, 0, 84, 0
1, 55080, Note_on_c, 0, 84, 64
1, 55080, Note_on_c, 1, 57, 0
1, 55080, Note_on_c, 1, 53, 64
1, 55140, Note_on_c, 1, 53, 0
1, 55140, Note_on_c, 1, 57, 64
1, 55200, Note_on_c, 0, 84, 0
1, 55200, Note_on_c, 0, 84, 64
1, 55200, Note_on_c, 1, 57, 0
1, 55200, Note_on_c, 1, 48, 64
1, 55260, Note_on_c, 0, 84, 0
1, 55260, Note_on_c, 0, 81, 64
1, 55260, Note_on_c, 1, 48, 0
1, 55260, Note_on_c, 1, 57, 64
1, 55320, Note_on_c, 0, 81, 0
1, 55320, Note_on_c, 0, 77, 64
1, 55320, Note_on_c, 1, 57, 0
1, 55320, Note_on_c, 1, 53, 64
1, 55380, Note_on_c, 0, 77, 0
1, 55380, Note_on_c, 0, 72, 64
1, 55380, Note_on_c, 1, 53, 0
1, 55380, Note_on_c, 1, 57, 64
1, 55440, Note_on_c, 0, 72, 0
1, 55440, Note_on_c, 0, 77, 64
1, 55440, Note_on_c, 1, 57, 0
1, 55440, Note_on_c, 1, 48, 64
1, 55500, Note_on_c, 0, 77, 0
1, 55500, Note_on_c, 0, 72, 64
1, 55500, Note_on_c, 1, 48, 0
1, 55500, Note_on_c, 1, 57, 64
1, 55560, Note_on_c, 0, 72, 0
1, 55560, Note_on_c, 0, 69, 64
1, 55560, Note_on_c, 1, 57, 0
1, 55560, Note_on_c, 1, 53, 64
1, 55620, Note_on_c, 0, 69, 0
1, 55620, Note_on_c, 0, 65, 64
1, 55620, Note_on_c, 1, 53, 0
1, 55620, Note_on_c, 1, 57, 64
1, 55680, Note_on_c, 0, 65, 0
1, 55680, Note_on_c, 0, 69, 64
1, 55680, Note_on_c, 1, 57, 0
1, 55680, Note_on_c, 1, 48, 64
1, 55720, Note_on_c, 0, 69, 0
1, 55720, Note_on_c, 0, 67, 64
1, 55740, Note_on_c, 1, 48, 0
1, 55740, Note_on_c, 1, 58, 64
1, 55760, Note_on_c, 0, 67, 0
1, 55760, Note_on_c, 0, 69, 64
1, 55800, Note_on_c, 0, 69, 0
1, 55800, Note_on_c, 0, 67, 64
1, 55800, Note_on_c, 1, 58, 0
1, 55800, Note_on_c, 1, 52, 64
1, 55840, Note_on_c, 0, 67, 0
1, 55840, Note_on_c, 0, 69, 64
1, 55860, Note_on_c, 1, 52, 0
1, 55860, Note_on_c, 1, 58, 64
1, 55880, Note_on_c, 0, 69, 0
1, 55880, Note_on_c, 0, 67, 64
1, 55920, Note_on_c, 0, 67, 0
1, 55920, Note_on_c, 0, 69, 64
1, 55920, Note_on_c, 1, 58, 0
1, 55920, Note_on_c, 1, 48, 64
1, 55960, Note_on_c, 0, 69, 0
1, 55960, Note_on_c, 0, 67, 64
1, 55980, Note_on_c, 1, 48, 0
1, 55980, Note_on_c, 1, 58, 64
1, 56000, Note_on_c, 0, 67, 0
1, 56000, Note_on_c, 0, 69, 64
1, 56040, Note_on_c, 0, 69, 0
1, 56040, Note_on_c, 0, 67, 64
1, 56040, Note_on_c, 1, 58, 0
1, 56040, Note_on_c, 1, 52, 64
1, 56080, Note_on_c, 0, 67, 0
1, 56080, Note_on_c, 0, 69, 64
1, 56100, Note_on_c, 1, 52, 0
1, 56100, Note_on_c, 1, 58, 64
1, 56120, Note_on_c, 0, 69, 0
1, 56120, Note_on_c, 0, 67, 64
1, 56160, Note_on_c, 0, 67, 0
1, 56160, Note_on_c, 0, 69, 64
1, 56160, Note_on_c, 1, 58, 0
1, 56160, Note_on_c, 1, 48, 64
1, 56200, Note_on_c, 0, 69, 0
1, 56200, Note_on_c, 0, 67, 64
1, 56220, Note_on_c, 1, 48, 0
1, 56220, Note_on_c, 1, 58, 64
1, 56240, Note_on_c, 0, 67, 0
1, 56240, Note_on_c, 0, 69, 64
1, 56280, Note_on_c, 0, 69, 0
1, 56280, Note_on_c, 0, 67, 64
1, 56280, Note_on_c, 1, 58, 0
1, 56280, Note_on_c, 1, 52, 64
1, 56320, Note_on_c, 0, 67, 0
1, 56320, Note_on_c, 0, 69, 64
1, 56340, Note_on_c, 1, 52, 0
1, 56340, Note_on_c, 1, 58, 64
1, 56360, Note_on_c, 0, 69, 0
1, 56360, Note_on_c, 0, 67, 64
1, 56400, Note_on_c, 0, 67, 0
1, 56400, Note_on_c, 0, 69, 64
1, 56400, Note_on_c, 1, 58, 0
1, 56400, Note_on_c, 1, 48, 64
1, 56440, Note_on_c, 0, 69, 0
1, 56440, Note_on_c, 0, 67, 64
1, 56460, Note_on_c, 1, 48, 0
1, 56460, Note_on_c, 1, 58, 64
1, 56480, Note_on_c, 0, 67, 0
1, 56480, Note_on_c, 0, 69, 64
1, 56520, Note_on_c, 0, 69, 0
1, 56520, Note_on_c, 0, 67, 64
1, 56520, Note_on_c, 1, 58, 0
1, 56520, Note_on_c, 1, 52, 64
1, 56560, Note_on_c, 0, 67, 0
1, 56560, Note_on_c, 0, 65, 64
1, 56580, Note_on_c, 1, 52, 0
1, 56580, Note_on_c, 1, 58, 64
1, 56600, Note_on_c, 0, 65, 0
1, 56600, Note_on_c, 0, 67, 64
1, 56640, Note_on_c, 0, 67, 0
1, 56640, Note_on_c, 0, 65, 64
1, 56640, Note_on_c, 1, 58, 0
1, 56640, Note_on_c, 1, 53, 64
1, 56760, Note_on_c, 0, 65, 0
1, 56760, Note_on_c, 0, 77, 64
1, 56760, Note_on_c, 1, 53, 0
1, 56760, Note_on_c, 1, 65, 64
1, 56880, Note_on_c, 0, 77, 0
1, 56880, Note_on_c, 1, 65, 0
1, 56880, Note_on_c, 1, 64, 64
1, 57000, Note_on_c, 0, 77, 64
1, 57000, Note_on_c, 1, 64, 0
1, 57000, Note_on_c, 1, 65, 64
1, 57120, Note_on_c, 0, 77, 0
1, 57120, Note_on_c, 0, 76, 64
1, 57120, Note_on_c, 1, 65, 0
1, 57120, Note_on_c, 1, 67, 64
1, 57240, Note_on_c, 0, 76, 0
1, 57240, Note_on_c, 0, 77, 64
1, 57240, Note_on_c, 1, 67, 0
1, 57240, Note_on_c, 1, 65, 64
1, 57360, Note_on_c, 0, 77, 0
1, 57360, Note_on_c, 0, 79, 64
1, 57360, Note_on_c, 1, 65, 0
1, 57360, Note_on_c, 1, 64, 64
1, 57480, Note_on_c, 0, 79, 0
1, 57480, Note_on_c, 0, 81, 64
1, 57480, Note_on_c, 1, 64, 0
1, 57480, Note_on_c, 1, 63, 64
1, 57600, Note_on_c, 0, 81, 0
1, 57600, Note_on_c, 0, 82, 64
1, 57600, Note_on_c, 1, 63, 0
1, 57600, Note_on_c, 1, 62, 64
1, 57660, Note_on_c, 0, 82, 0
1, 57660, Note_on_c, 0, 84, 64
1, 57720, Note_on_c, 0, 84, 0
1, 57720, Note_on_c, 0, 86, 64
1, 57720, Note_on_c, 1, 62, 0
1, 57720, Note_on_c, 1, 53, 64
1, 57780, Note_on_c, 0, 86, 0
1, 57780, Note_on_c, 0, 84, 64
1, 57840, Note_on_c, 0, 84, 0
1, 57840, Note_on_c, 0, 82, 64
1, 57840, Note_on_c, 1, 53, 0
1, 57840, Note_on_c, 1, 61, 64
1, 57900, Note_on_c, 0, 82, 0
1, 57900, Note_on_c, 0, 80, 64
1, 57960, Note_on_c, 0, 80, 0
1, 57960, Note_on_c, 0, 79, 64
1, 57960, Note_on_c, 1, 61, 0
1, 57960, Note_on_c, 1, 53, 64
1, 58020, Note_on_c, 0, 79, 0
1, 58020, Note_on_c, 0, 77, 64
1, 58080, Note_on_c, 0, 77, 0
1, 58080, Note_on_c, 0, 76, 64
1, 58080, Note_on_c, 1, 53, 0
1, 58080, Note_on_c, 1, 60, 64
1, 58140, Note_on_c, 0, 76, 0
1, 58140, Note_on_c, 0, 77, 64
1, 58200, Note_on_c, 0, 77, 0
1, 58200, Note_on_c, 0, 79, 64
1, 58200, Note_on_c, 1, 60, 0
1, 58200, Note_on_c, 1, 53, 64
1, 58260, Note_on_c, 0, 79, 0
1, 58260, Note_on_c, 0, 77, 64
1, 58320, Note_on_c, 0, 77, 0
1, 58320, Note_on_c, 0, 76, 64
1, 58320, Note_on_c, 1, 53, 0
1, 58320, Note_on_c, 1, 64, 64
1, 58380, Note_on_c, 0, 76, 0
1, 58380, Note_on_c, 0, 74, 64
1, 58440, Note_on_c, 0, 74, 0
1, 58440, Note_on_c, 0, 72, 64
1, 58440, Note_on_c, 1, 64, 0
1, 58440, Note_on_c, 1, 53, 64
1, 58500, Note_on_c, 0, 72, 0
1, 58500, Note_on_c, 0, 70, 64
1, 58560, Note_on_c, 0, 70, 0
1, 58560, Note_on_c, 0, 69, 64
1, 58560, Note_on_c, 1, 53, 0
1, 58560, Note_on_c, 1, 65, 64
1, 58680, Note_on_c, 0, 69, 0
1, 58680, Note_on_c, 0, 69, 64
1, 58680, Note_on_c, 1, 65, 0
1, 58680, Note_on_c, 1, 53, 64
1, 58800, Note_on_c, 0, 69, 0
1, 58800, Note_on_c, 1, 53, 0
1, 58800, Note_on_c, 1, 52, 64
1, 58920, Note_on_c, 0, 65, 64
1, 58920, Note_on_c, 1, 52, 0
1, 58920, Note_on_c, 1, 53, 64
1, 59040, Note_on_c, 0, 65, 0
1, 59040, Note_on_c, 0, 64, 64
1, 59040, Note_on_c, 1, 53, 0
1, 59040, Note_on_c, 1, 55, 64
1, 59160, Note_on_c, 0, 64, 0
1, 59160, Note_on_c, 0, 65, 64
1, 59160, Note_on_c, 1, 55, 0
1, 59160, Note_on_c, 1, 53, 64
1, 59280, Note_on_c, 0, 65, 0
1, 59280, Note_on_c, 0, 67, 64
1, 59280, Note_on_c, 1, 53, 0
1, 59280, Note_on_c, 1, 52, 64
1, 59400, Note_on_c, 0, 67, 0
1, 59400, Note_on_c, 0, 69, 64
1, 59400, Note_on_c, 1, 52, 0
1, 59400, Note_on_c, 1, 51, 64
1, 59520, Note_on_c, 0, 69, 0
1, 59520, Note_on_c, 0, 70, 64
1, 59520, Note_on_c, 1, 51, 0
1, 59520, Note_on_c, 1, 50, 64
1, 59640, Note_on_c, 0, 70, 0
1, 59640, Note_on_c, 0, 72, 64
1, 59670, Note_on_c, 0, 72, 0
1, 59670, Note_on_c, 0, 70, 64
1, 59700, Note_on_c, 0, 70, 0
1, 59700, Note_on_c, 0, 69, 64
1, 59730, Note_on_c, 0, 69, 0
1, 59730, Note_on_c, 0, 70, 64
1, 59760, Note_on_c, 0, 70, 0
1, 59760, Note_on_c, 0, 72, 64
1, 59760, Note_on_c, 1, 50, 0
1, 59760, Note_on_c, 1, 46, 64
1, 59880, Note_on_c, 0, 72, 0
1, 59880, Note_on_c, 0, 74, 64
1, 60000, Note_on_c, 0, 74, 0
1, 60000, Note_on_c, 0, 70, 64
1, 60000, Note_on_c, 0, 74, 64
1, 60000, Note_on_c, 1, 46, 0
1, 60000, Note_on_c, 1, 48, 64
1, 60120, Note_on_c, 0, 74, 0
1, 60120, Note_on_c, 0, 70, 0
1, 60120, Note_on_c, 0, 69, 64
1, 60120, Note_on_c, 0, 72, 64
1, 60240, Note_on_c, 0, 72, 0
1, 60240, Note_on_c, 0, 69, 0
1, 60240, Note_on_c, 1, 48, 0
1, 60240, Note_on_c, 1, 48, 64
1, 60360, Note_on_c, 0, 58, 64
1, 60360, Note_on_c, 0, 64, 64
1, 60480, Note_on_c, 0, 64, 0
1, 60480, Note_on_c, 0, 58, 0
1, 60480, Note_on_c, 0, 58, 64
1, 60480, Note_on_c, 0, 67, 64
1, 60480, Note_on_c, 1, 48, 0
1, 60480, Note_on_c, 1, 53, 64
1, 60720, Note_on_c, 1, 53, 0
1, 60720, Note_on_c, 1, 48, 64
1, 60960, Note_on_c, 0, 67, 0
1, 60960, Note_on_c, 0, 58, 0
1, 60960, Note_on_c, 0, 57, 64
1, 60960, Note_on_c, 0, 65, 64
1, 60960, Note_on_c, 1, 48, 0
1, 60960, Note_on_c, 1, 41, 64
1, 61200, Note_on_c, 0, 65, 0
1, 61200, Note_on_c, 0, 57, 0
1, 61200, Note_on_c, 0, 74, 64
1, 61200, Note_on_c, 1, 41, 0
1, 61260, Note_on_c, 0, 74, 0
1, 61260, Note_on_c, 0, 72, 64
1, 61320, Note_on_c, 0, 72, 0
1, 61320, Note_on_c, 0, 70, 64
1, 61380, Note_on_c, 0, 70, 0
1, 61380, Note_on_c, 0, 69, 64
1, 61440, Note_on_c, 0, 69, 0
1, 61440, Note_on_c, 0, 67, 64
1, 61560, Note_on_c, 0, 67, 0
1, 61560, Note_on_c, 0, 65, 64
1, 61560, Note_on_c, 1, 41, 64
1, 61680, Note_on_c, 0, 65, 0
1, 61680, Note_on_c, 0, 65, 64
1, 61680, Note_on_c, 1, 41, 0
1, 61680, Note_on_c, 1, 45, 64
1, 61800, Note_on_c, 1, 45, 0
1, 61800, Note_on_c, 1, 48, 64
1, 61920, Note_on_c, 1, 48, 0
1, 61920, Note_on_c, 1, 45, 64
1, 62040, Note_on_c, 0, 65, 0
1, 62040, Note_on_c, 0, 77, 64
1, 62040, Note_on_c, 1, 45, 0
1, 62040, Note_on_c, 1, 41, 64
1, 62160, Note_on_c, 0, 77, 0
1, 62160, Note_on_c, 0, 79, 64
1, 62160, Note_on_c, 1, 41, 0
1, 62160, Note_on_c, 1, 45, 64
1, 62280, Note_on_c, 0, 79, 0
1, 62280, Note_on_c, 0, 81, 64
1, 62280, Note_on_c, 1, 45, 0
1, 62280, Note_on_c, 1, 48, 64
1, 62400, Note_on_c, 0, 81, 0
1, 62400, Note_on_c, 0, 76, 64
1, 62400, Note_on_c, 1, 48, 0
1, 62460, Note_on_c, 0, 76, 0
1, 62460, Note_on_c, 0, 82, 64
1, 62520, Note_on_c, 1, 55, 64
1, 62580, Note_on_c, 0, 82, 0
1, 62580, Note_on_c, 0, 79, 64
1, 62640, Note_on_c, 0, 79, 0
1, 62640, Note_on_c, 0, 76, 64
1, 62640, Note_on_c, 1, 55, 0
1, 62640, Note_on_c, 1, 58, 64
1, 62760, Note_on_c, 1, 58, 0
1, 62760, Note_on_c, 1, 64, 64
1, 62880, Note_on_c, 0, 76, 0
1, 62880, Note_on_c, 1, 64, 0
1, 62880, Note_on_c, 1, 58, 64
1, 63000, Note_on_c, 1, 58, 0
1, 63000, Note_on_c, 1, 55, 64
1, 63120, Note_on_c, 0, 72, 64
1, 63120, Note_on_c, 1, 55, 0
1, 63120, Note_on_c, 1, 58, 64
1, 63180, Note_on_c, 0, 72, 0
1, 63180, Note_on_c, 0, 70, 64
1, 63240, Note_on_c, 0, 70, 0
1, 63240, Note_on_c, 0, 69, 64
1, 63240, Note_on_c, 1, 58, 0
1, 63240, Note_on_c, 1, 64, 64
1, 63300, Note_on_c, 0, 69, 0
1, 63300, Note_on_c, 0, 67, 64
1, 63360, Note_on_c, 0, 67, 0
1, 63360, Note_on_c, 0, 65, 64
1, 63360, Note_on_c, 1, 64, 0
1, 63480, Note_on_c, 0, 65, 0
1, 63480, Note_on_c, 0, 64, 64
1, 63480, Note_on_c, 1, 43, 64
1, 63600, Note_on_c, 0, 64, 0
1, 63600, Note_on_c, 0, 64, 64
1, 63600, Note_on_c, 1, 43, 0
1, 63600, Note_on_c, 1, 46, 64
1, 63720, Note_on_c, 1, 46, 0
1, 63720, Note_on_c, 1, 52, 64
1, 63840, Note_on_c, 1, 52, 0
1, 63840, Note_on_c, 1, 46, 64
1, 63960, Note_on_c, 0, 64, 0
1, 63960, Note_on_c, 0, 79, 64
1, 63960, Note_on_c, 1, 46, 0
1, 63960, Note_on_c, 1, 43, 64
1, 64080, Note_on_c, 0, 79, 0
1, 64080, Note_on_c, 0, 81, 64
1, 64080, Note_on_c, 1, 43, 0
1, 64080, Note_on_c, 1, 46, 64
1, 64200, Note_on_c, 0, 81, 0
1, 64200, Note_on_c, 0, 82, 64
1, 64200, Note_on_c, 1, 46, 0
1, 64200, Note_on_c, 1, 52, 64
1, 64320, Note_on_c, 0, 82, 0
1, 64320, Note_on_c, 0, 78, 64
1, 64320, Note_on_c, 1, 52, 0
1, 64380, Note_on_c, 0, 78, 0
1, 64380, Note_on_c, 0, 84, 64
1, 64440, Note_on_c, 1, 57, 64
1, 64500, Note_on_c, 0, 84, 0
1, 64500, Note_on_c, 0, 81, 64
1, 64560, Note_on_c, 0, 81, 0
1, 64560, Note_on_c, 0, 78, 64
1, 64560, Note_on_c, 1, 57, 0
1, 64560, Note_on_c, 1, 60, 64
1, 64680, Note_on_c, 1, 60, 0
1, 64680, Note_on_c, 1, 63, 64
1, 64800, Note_on_c, 0, 78, 0
1, 64800, Note_on_c, 1, 63, 0
1, 64800, Note_on_c, 1, 60, 64
1, 64920, Note_on_c, 0, 81, 64
1, 64920, Note_on_c, 1, 60, 0
1, 64920, Note_on_c, 1, 57, 64
1, 65040, Note_on_c, 0, 81, 0
1, 65040, Note_on_c, 0, 82, 64
1, 65040, Note_on_c, 1, 57, 0
1, 65040, Note_on_c, 1, 60, 64
1, 65160, Note_on_c, 0, 82, 0
1, 65160, Note_on_c, 0, 84, 64
1, 65160, Note_on_c, 1, 60, 0
1, 65160, Note_on_c, 1, 63, 64
1, 65280, Note_on_c, 0, 84, 0
1, 65280, Note_on_c, 0, 79, 64
1, 65280, Note_on_c, 1, 63, 0
1, 65340, Note_on_c, 0, 79, 0
1, 65340, Note_on_c, 0, 86, 64
1, 65400, Note_on_c, 1, 46, 64
1, 65460, Note_on_c, 0, 86, 0
1, 65460, Note_on_c, 0, 82, 64
1, 65520, Note_on_c, 0, 82, 0
1, 65520, Note_on_c, 0, 79, 64
1, 65520, Note_on_c, 1, 46, 0
1, 65520, Note_on_c, 1, 50, 64
1, 65640, Note_on_c, 0, 79, 0
1, 65640, Note_on_c, 1, 50, 0
1, 65640, Note_on_c, 1, 55, 64
1, 65760, Note_on_c, 0, 76, 64
1, 65760, Note_on_c, 1, 55, 0
1, 65820, Note_on_c, 0, 76, 0
1, 65820, Note_on_c, 0, 82, 64
1, 65880, Note_on_c, 1, 48, 64
1, 65940, Note_on_c, 0, 82, 0
1, 65940, Note_on_c, 0, 79, 64
1, 66000, Note_on_c, 0, 79, 0
1, 66000, Note_on_c, 0, 76, 64
1, 66000, Note_on_c, 1, 48, 0
1, 66000, Note_on_c, 1, 55, 64
1, 66120, Note_on_c, 0, 76, 0
1, 66120, Note_on_c, 1, 55, 0
1, 66120, Note_on_c, 1, 58, 64
1, 66240, Note_on_c, 0, 71, 64
1, 66240, Note_on_c, 1, 58, 0
1, 66300, Note_on_c, 0, 71, 0
1, 66300, Note_on_c, 0, 77, 64
1, 66360, Note_on_c, 1, 50, 64
1, 66420, Note_on_c, 0, 77, 0
1, 66420, Note_on_c, 0, 74, 64
1, 66480, Note_on_c, 0, 74, 0
1, 66480, Note_on_c, 0, 71, 64
1, 66480, Note_on_c, 1, 50, 0
1, 66480, Note_on_c, 1, 53, 64
1, 66600, Note_on_c, 1, 53, 0
1, 66600, Note_on_c, 1, 56, 64
1, 66720, Note_on_c, 0, 71, 0
1, 66720, Note_on_c, 1, 56, 0
1, 66720, Note_on_c, 1, 53, 64
1, 66840, Note_on_c, 0, 71, 64
1, 66840, Note_on_c, 1, 53, 0
1, 66840, Note_on_c, 1, 50, 64
1, 66960, Note_on_c, 0, 71, 0
1, 66960, Note_on_c, 0, 71, 64
1, 66960, Note_on_c, 1, 50, 0
1, 66960, Note_on_c, 1, 53, 64
1, 67080, Note_on_c, 0, 71, 0
1, 67080, Note_on_c, 0, 71, 64
1, 67080, Note_on_c, 1, 53, 0
1, 67080, Note_on_c, 1, 56, 64
1, 67200, Note_on_c, 0, 71, 0
1, 67200, Note_on_c, 0, 72, 64
1, 67200, Note_on_c, 1, 56, 0
1, 67200, Note_on_c, 1, 48, 64
1, 67200, Note_on_c, 1, 57, 64
1, 67260, Note_on_c, 0, 72, 0
1, 67260, Note_on_c, 0, 81, 64
1, 67320, Note_on_c, 0, 81, 0
1, 67320, Note_on_c, 0, 77, 64
1, 67380, Note_on_c, 0, 77, 0
1, 67380, Note_on_c, 0, 72, 64
1, 67440, Note_on_c, 0, 72, 0
1, 67440, Note_on_c, 0, 69, 64
1, 67500, Note_on_c, 0, 69, 0
1, 67500, Note_on_c, 0, 77, 64
1, 67560, Note_on_c, 0, 77, 0
1, 67560, Note_on_c, 0, 72, 64
1, 67620, Note_on_c, 0, 72, 0
1, 67620, Note_on_c, 0, 69, 64
1, 67680, Note_on_c, 0, 69, 0
1, 67680, Note_on_c, 0, 69, 64
1, 67680, Note_on_c, 0, 72, 64
1, 67680, Note_on_c, 1, 57, 0
1, 67680, Note_on_c, 1, 48, 0
1, 67680, Note_on_c, 1, 60, 64
1, 67800, Note_on_c, 0, 72, 0
1, 67800, Note_on_c, 0, 69, 0
1, 67800, Note_on_c, 0, 67, 64
1, 67800, Note_on_c, 0, 70, 64
1, 67920, Note_on_c, 0, 70, 0
1, 67920, Note_on_c, 0, 67, 0
1, 67920, Note_on_c, 0, 65, 64
1, 67920, Note_on_c, 0, 69, 64
1, 67920, Note_on_c, 1, 60, 0
1, 67920, Note_on_c, 1, 48, 64
1, 68040, Note_on_c, 0, 69, 0
1, 68040, Note_on_c, 0, 65, 0
1, 68040, Note_on_c, 0, 64, 64
1, 68040, Note_on_c, 0, 67, 64
1, 68160, Note_on_c, 0, 67, 0
1, 68160, Note_on_c, 0, 64, 0
1, 68160, Note_on_c, 0, 65, 64
1, 68160, Note_on_c, 1, 48, 0
1, 68160, Note_on_c, 1, 53, 64
1, 68220, Note_on_c, 1, 53, 0
1, 68220, Note_on_c, 1, 60, 64
1, 68280, Note_on_c, 1, 60, 0
1, 68280, Note_on_c, 1, 56, 64
1, 68340, Note_on_c, 1, 56, 0
1, 68340, Note_on_c, 1, 60, 64
1, 68400, Note_on_c, 0, 65, 0
1, 68400, Note_on_c, 1, 60, 0
1, 68400, Note_on_c, 1, 53, 64
1, 68460, Note_on_c, 1, 53, 0
1, 68460, Note_on_c, 1, 60, 64
1, 68520, Note_on_c, 1, 60, 0
1, 68520, Note_on_c, 1, 56, 64
1, 68580, Note_on_c, 1, 56, 0
1, 68580, Note_on_c, 1, 60, 64
1, 68640, Note_on_c, 1, 60, 0
1, 68640, Note_on_c, 1, 53, 64
1, 68700, Note_on_c, 0, 65, 64
1, 68700, Note_on_c, 1, 53, 0
1, 68700, Note_on_c, 1, 60, 64
1, 68760, Note_on_c, 0, 65, 0
1, 68760, Note_on_c, 0, 67, 64
1, 68760, Note_on_c, 1, 60, 0
1, 68760, Note_on_c, 1, 56, 64
1, 68820, Note_on_c, 0, 67, 0
1, 68820, Note_on_c, 0, 68, 64
1, 68820, Note_on_c, 1, 56, 0
1, 68820, Note_on_c, 1, 60, 64
1, 68880, Note_on_c, 0, 68, 0
1, 68880, Note_on_c, 0, 70, 64
1, 68880, Note_on_c, 1, 60, 0
1, 68880, Note_on_c, 1, 53, 64
1, 68940, Note_on_c, 0, 70, 0
1, 68940, Note_on_c, 0, 72, 64
1, 68940, Note_on_c, 1, 53, 0
1, 68940, Note_on_c, 1, 60, 64
1, 69000, Note_on_c, 0, 72, 0
1, 69000, Note_on_c, 0, 74, 64
1, 69000, Note_on_c, 1, 60, 0
1, 69000, Note_on_c, 1, 56, 64
1, 69060, Note_on_c, 0, 74, 0
1, 69060, Note_on_c, 0, 76, 64
1, 69060, Note_on_c, 1, 56, 0
1, 69060, Note_on_c, 1, 60, 64
1, 69120, Note_on_c, 0, 76, 0
1, 69120, Note_on_c, 0, 77, 64
1, 69120, Note_on_c, 1, 60, 0
1, 69120, Note_on_c, 1, 53, 64
1, 69180, Note_on_c, 0, 77, 0
1, 69180, Note_on_c, 0, 72, 64
1, 69180, Note_on_c, 1, 53, 0
1, 69180, Note_on_c, 1, 60, 64
1, 69240, Note_on_c, 0, 72, 0
1, 69240, Note_on_c, 0, 80, 64
1, 69240, Note_on_c, 1, 60, 0
1, 69240, Note_on_c, 1, 56, 64
1, 69300, Note_on_c, 0, 80, 0
1, 69300, Note_on_c, 0, 79, 64
1, 69300, Note_on_c, 1, 56, 0
1, 69300, Note_on_c, 1, 60, 64
1, 69360, Note_on_c, 0, 79, 0
1, 69360, Note_on_c, 0, 77, 64
1, 69360, Note_on_c, 1, 60, 0
1, 69360, Note_on_c, 1, 53, 64
1, 69420, Note_on_c, 0, 77, 0
1, 69420, Note_on_c, 0, 72, 64
1, 69420, Note_on_c, 1, 53, 0
1, 69420, Note_on_c, 1, 60, 64
1, 69480, Note_on_c, 0, 72, 0
1, 69480, Note_on_c, 0, 80, 64
1, 69480, Note_on_c, 1, 60, 0
1, 69480, Note_on_c, 1, 56, 64
1, 69540, Note_on_c, 0, 80, 0
1, 69540, Note_on_c, 0, 79, 64
1, 69540, Note_on_c, 1, 56, 0
1, 69540, Note_on_c, 1, 60, 64
1, 69600, Note_on_c, 0, 79, 0
1, 69600, Note_on_c, 0, 77, 64
1, 69600, Note_on_c, 1, 60, 0
1, 69600, Note_on_c, 1, 53, 64
1, 69660, Note_on_c, 0, 77, 0
1, 69660, Note_on_c, 0, 79, 64
1, 69660, Note_on_c, 1, 53, 0
1, 69660, Note_on_c, 1, 60, 64
1, 69720, Note_on_c, 0, 79, 0
1, 69720, Note_on_c, 0, 75, 64
1, 69720, Note_on_c, 1, 60, 0
1, 69720, Note_on_c, 1, 56, 64
1, 69780, Note_on_c, 0, 75, 0
1, 69780, Note_on_c, 0, 77, 64
1, 69780, Note_on_c, 1, 56, 0
1, 69780, Note_on_c, 1, 60, 64
1, 69840, Note_on_c, 0, 77, 0
1, 69840, Note_on_c, 0, 74, 64
1, 69840, Note_on_c, 1, 60, 0
1, 69840, Note_on_c, 1, 53, 64
1, 69900, Note_on_c, 0, 74, 0
1, 69900, Note_on_c, 0, 75, 64
1, 69900, Note_on_c, 1, 53, 0
1, 69900, Note_on_c, 1, 60, 64
1, 69960, Note_on_c, 0, 75, 0
1, 69960, Note_on_c, 0, 72, 64
1, 69960, Note_on_c, 1, 60, 0
1, 69960, Note_on_c, 1, 56, 64
1, 70020, Note_on_c, 0, 72, 0
1, 70020, Note_on_c, 0, 74, 64
1, 70020, Note_on_c, 1, 56, 0
1, 70020, Note_on_c, 1, 60, 64
1, 70080, Note_on_c, 0, 74, 0
1, 70080, Note_on_c, 0, 71, 64
1, 70080, Note_on_c, 1, 60, 0
1, 70080, Note_on_c, 1, 55, 64
1, 70140, Note_on_c, 1, 55, 0
1, 70140, Note_on_c, 1, 65, 64
1, 70200, Note_on_c, 0, 71, 0
1, 70200, Note_on_c, 0, 89, 64
1, 70200, Note_on_c, 1, 65, 0
1, 70200, Note_on_c, 1, 62, 64
1, 70260, Note_on_c, 1, 62, 0
1, 70260, Note_on_c, 1, 65, 64
1, 70320, Note_on_c, 1, 65, 0
1, 70320, Note_on_c, 1, 55, 64
1, 70380, Note_on_c, 1, 55, 0
1, 70380, Note_on_c, 1, 65, 64
1, 70440, Note_on_c, 0, 89, 0
1, 70440, Note_on_c, 0, 87, 64
1, 70440, Note_on_c, 1, 65, 0
1, 70440, Note_on_c, 1, 62, 64
1, 70500, Note_on_c, 1, 62, 0
1, 70500, Note_on_c, 1, 65, 64
1, 70560, Note_on_c, 1, 65, 0
1, 70560, Note_on_c, 1, 55, 64
1, 70620, Note_on_c, 1, 55, 0
1, 70620, Note_on_c, 1, 65, 64
1, 70680, Note_on_c, 0, 87, 0
1, 70680, Note_on_c, 0, 86, 64
1, 70680, Note_on_c, 1, 65, 0
1, 70680, Note_on_c, 1, 62, 64
1, 70740, Note_on_c, 1, 62, 0
1, 70740, Note_on_c, 1, 65, 64
1, 70800, Note_on_c, 1, 65, 0
1, 70800, Note_on_c, 1, 55, 64
1, 70860, Note_on_c, 1, 55, 0
1, 70860, Note_on_c, 1, 65, 64
1, 70920, Note_on_c, 0, 86, 0
1, 70920, Note_on_c, 0, 84, 64
1, 70920, Note_on_c, 1, 65, 0
1, 70920, Note_on_c, 1, 62, 64
1, 70980, Note_on_c, 1, 62, 0
1, 70980, Note_on_c, 1, 65, 64
1, 71040, Note_on_c, 1, 65, 0
1, 71040, Note_on_c, 1, 55, 64
1, 71100, Note_on_c, 1, 55, 0
1, 71100, Note_on_c, 1, 65, 64
1, 71160, Note_on_c, 0, 84, 0
1, 71160, Note_on_c, 0, 83, 64
1, 71160, Note_on_c, 1, 65, 0
1, 71160, Note_on_c, 1, 62, 64
1, 71220, Note_on_c, 1, 62, 0
1, 71220, Note_on_c, 1, 65, 64
1, 71280, Note_on_c, 1, 65, 0
1, 71280, Note_on_c, 1, 55, 64
1, 71340, Note_on_c, 1, 55, 0
1, 71340, Note_on_c, 1, 65, 64
1, 71400, Note_on_c, 0, 83, 0
1, 71400, Note_on_c, 0, 80, 64
1, 71400, Note_on_c, 1, 65, 0
1, 71400, Note_on_c, 1, 62, 64
1, 71460, Note_on_c, 1, 62, 0
1, 71460, Note_on_c, 1, 65, 64
1, 71520, Note_on_c, 1, 65, 0
1, 71520, Note_on_c, 1, 55, 64
1, 71580, Note_on_c, 1, 55, 0
1, 71580, Note_on_c, 1, 62, 64
1, 71640, Note_on_c, 0, 80, 0
1, 71640, Note_on_c, 0, 79, 64
1, 71640, Note_on_c, 1, 62, 0
1, 71640, Note_on_c, 1, 59, 64
1, 71700, Note_on_c, 1, 59, 0
1, 71700, Note_on_c, 1, 62, 64
1, 71760, Note_on_c, 1, 62, 0
1, 71760, Note_on_c, 1, 55, 64
1, 71820, Note_on_c, 1, 55, 0
1, 71820, Note_on_c, 1, 62, 64
1, 71880, Note_on_c, 0, 79, 0
1, 71880, Note_on_c, 0, 77, 64
1, 71880, Note_on_c, 1, 62, 0
1, 71880, Note_on_c, 1, 59, 64
1, 71940, Note_on_c, 1, 59, 0
1, 71940, Note_on_c, 1, 62, 64
1, 72000, Note_on_c, 0, 77, 0
1, 72000, Note_on_c, 0, 77, 64
1, 72000, Note_on_c, 1, 62, 0
1, 72000, Note_on_c, 1, 55, 64
1, 72060, Note_on_c, 1, 55, 0
1, 72060, Note_on_c, 1, 64, 64
1, 72120, Note_on_c, 0, 77, 0
1, 72120, Note_on_c, 0, 76, 64
1, 72120, Note_on_c, 1, 64, 0
1, 72120, Note_on_c, 1, 60, 64
1, 72180, Note_on_c, 1, 60, 0
1, 72180, Note_on_c, 1, 64, 64
1, 72240, Note_on_c, 0, 76, 0
1, 72240, Note_on_c, 0, 75, 64
1, 72240, Note_on_c, 1, 64, 0
1, 72240, Note_on_c, 1, 55, 64
1, 72300, Note_on_c, 1, 55, 0
1, 72300, Note_on_c, 1, 63, 64
1, 72360, Note_on_c, 1, 63, 0
1, 72360, Note_on_c, 1, 60, 64
1, 72420, Note_on_c, 1, 60, 0
1, 72420, Note_on_c, 1, 63, 64
1, 72480, Note_on_c, 0, 75, 0
1, 72480, Note_on_c, 1, 63, 0
1, 72480, Note_on_c, 1, 55, 64
1, 72540, Note_on_c, 0, 75, 64
1, 72540, Note_on_c, 1, 55, 0
1, 72540, Note_on_c, 1, 63, 64
1, 72600, Note_on_c, 0, 75, 0
1, 72600, Note_on_c, 0, 74, 64
1, 72600, Note_on_c, 1, 63, 0
1, 72600, Note_on_c, 1, 60, 64
1, 72660, Note_on_c, 0, 74, 0
1, 72660, Note_on_c, 0, 75, 64
1, 72660, Note_on_c, 1, 60, 0
1, 72660, Note_on_c, 1, 63, 64
1, 72720, Note_on_c, 0, 75, 0
1, 72720, Note_on_c, 0, 77, 64
1, 72720, Note_on_c, 1, 63, 0
1, 72720, Note_on_c, 1, 55, 64
1, 72780, Note_on_c, 0, 77, 0
1, 72780, Note_on_c, 0, 75, 64
1, 72780, Note_on_c, 1, 55, 0
1, 72780, Note_on_c, 1, 63, 64
1, 72840, Note_on_c, 0, 75, 0
1, 72840, Note_on_c, 0, 74, 64
1, 72840, Note_on_c, 1, 63, 0
1, 72840, Note_on_c, 1, 60, 64
1, 72900, Note_on_c, 0, 74, 0
1, 72900, Note_on_c, 0, 75, 64
1, 72900, Note_on_c, 1, 60, 0
1, 72900, Note_on_c, 1, 63, 64
1, 72960, Note_on_c, 0, 75, 0
1, 72960, Note_on_c, 0, 78, 64
1, 72960, Note_on_c, 1, 63, 0
1, 72960, Note_on_c, 1, 54, 64
1, 73020, Note_on_c, 1, 54, 0
1, 73020, Note_on_c, 1, 63, 64
1, 73080, Note_on_c, 1, 63, 0
1, 73080, Note_on_c, 1, 58, 64
1, 73140, Note_on_c, 0, 78, 0
1, 73140, Note_on_c, 0, 75, 64
1, 73140, Note_on_c, 1, 58, 0
1, 73140, Note_on_c, 1, 63, 64
1, 73200, Note_on_c, 0, 75, 0
1, 73200, Note_on_c, 0, 77, 64
1, 73200, Note_on_c, 1, 63, 0
1, 73200, Note_on_c, 1, 54, 64
1, 73230, Note_on_c, 0, 77, 0
1, 73230, Note_on_c, 0, 75, 64
1, 73260, Note_on_c, 0, 75, 0
1, 73260, Note_on_c, 0, 77, 64
1, 73260, Note_on_c, 1, 54, 0
1, 73260, Note_on_c, 1, 63, 64
1, 73290, Note_on_c, 0, 77, 0
1, 73290, Note_on_c, 0, 75, 64
1, 73320, Note_on_c, 0, 75, 0
1, 73320, Note_on_c, 0, 77, 64
1, 73320, Note_on_c, 1, 63, 0
1, 73320, Note_on_c, 1, 58, 64
1, 73350, Note_on_c, 0, 77, 0
1, 73350, Note_on_c, 0, 75, 64
1, 73380, Note_on_c, 0, 75, 0
1, 73380, Note_on_c, 0, 74, 64
1, 73380, Note_on_c, 1, 58, 0
1, 73380, Note_on_c, 1, 63, 64
1, 73410, Note_on_c, 0, 74, 0
1, 73410, Note_on_c, 0, 75, 64
1, 73440, Note_on_c, 0, 75, 0
1, 73440, Note_on_c, 0, 82, 64
1, 73440, Note_on_c, 1, 63, 0
1, 73440, Note_on_c, 1, 54, 64
1, 73500, Note_on_c, 1, 54, 0
1, 73500, Note_on_c, 1, 63, 64
1, 73560, Note_on_c, 1, 63, 0
1, 73560, Note_on_c, 1, 58, 64
1, 73620, Note_on_c, 0, 82, 0
1, 73620, Note_on_c, 0, 75, 64
1, 73620, Note_on_c, 1, 58, 0
1, 73620, Note_on_c, 1, 63, 64
1, 73680, Note_on_c, 0, 75, 0
1, 73680, Note_on_c, 0, 77, 64
1, 73680, Note_on_c, 1, 63, 0
1, 73680, Note_on_c, 1, 54, 64
1, 73710, Note_on_c, 0, 77, 0
1, 73710, Note_on_c, 0, 75, 64
1, 73740, Note_on_c, 0, 75, 0
1, 73740, Note_on_c, 0, 77, 64
1, 73740, Note_on_c, 1, 54, 0
1, 73740, Note_on_c, 1, 63, 64
1, 73770, Note_on_c, 0, 77, 0
1, 73770, Note_on_c, 0, 75, 64
1, 73800, Note_on_c, 0, 75, 0
1, 73800, Note_on_c, 0, 77, 64
1, 73800, Note_on_c, 1, 63, 0
1, 73800, Note_on_c, 1, 58, 64
1, 73830, Note_on_c, 0, 77, 0
1, 73830, Note_on_c, 0, 75, 64
1, 73860, Note_on_c, 0, 75, 0
1, 73860, Note_on_c, 0, 74, 64
1, 73860, Note_on_c, 1, 58, 0
1, 73860, Note_on_c, 1, 63, 64
1, 73890, Note_on_c, 0, 74, 0
1, 73890, Note_on_c, 0, 75, 64
1, 73920, Note_on_c, 0, 75, 0
1, 73920, Note_on_c, 0, 81, 64
1, 73920, Note_on_c, 1, 63, 0
1, 73920, Note_on_c, 1, 53, 64
1, 73980, Note_on_c, 1, 53, 0
1, 73980, Note_on_c, 1, 63, 64
1, 74040, Note_on_c, 0, 81, 0
1, 74040, Note_on_c, 0, 84, 64
1, 74040, Note_on_c, 1, 63, 0
1, 74040, Note_on_c, 1, 60, 64
1, 74100, Note_on_c, 1, 60, 0
1, 74100, Note_on_c, 1, 63, 64
1, 74160, Note_on_c, 0, 84, 0
1, 74160, Note_on_c, 0, 87, 64
1, 74160, Note_on_c, 1, 63, 0
1, 74160, Note_on_c, 1, 53, 64
1, 74220, Note_on_c, 1, 53, 0
1, 74220, Note_on_c, 1, 63, 64
1, 74280, Note_on_c, 1, 63, 0
1, 74280, Note_on_c, 1, 60, 64
1, 74340, Note_on_c, 1, 60, 0
1, 74340, Note_on_c, 1, 63, 64
1, 74400, Note_on_c, 1, 63, 0
1, 74400, Note_on_c, 1, 53, 64
1, 74460, Note_on_c, 0, 87, 0
1, 74460, Note_on_c, 0, 89, 64
1, 74460, Note_on_c, 1, 53, 0
1, 74460, Note_on_c, 1, 63, 64
1, 74520, Note_on_c, 0, 89, 0
1, 74520, Note_on_c, 0, 86, 64
1, 74520, Note_on_c, 1, 63, 0
1, 74520, Note_on_c, 1, 60, 64
1, 74580, Note_on_c, 0, 86, 0
1, 74580, Note_on_c, 0, 87, 64
1, 74580, Note_on_c, 1, 60, 0
1, 74580, Note_on_c, 1, 63, 64
1, 74640, Note_on_c, 0, 87, 0
1, 74640, Note_on_c, 0, 84, 64
1, 74640, Note_on_c, 1, 63, 0
1, 74640, Note_on_c, 1, 53, 64
1, 74700, Note_on_c, 0, 84, 0
1, 74700, Note_on_c, 0, 86, 64
1, 74700, Note_on_c, 1, 53, 0
1, 74700, Note_on_c, 1, 63, 64
1, 74760, Note_on_c, 0, 86, 0
1, 74760, Note_on_c, 0, 82, 64
1, 74760, Note_on_c, 1, 63, 0
1, 74760, Note_on_c, 1, 60, 64
1, 74820, Note_on_c, 0, 82, 0
1, 74820, Note_on_c, 0, 84, 64
1, 74820, Note_on_c, 1, 60, 0
1, 74820, Note_on_c, 1, 63, 64
1, 74880, Note_on_c, 0, 84, 0
1, 74880, Note_on_c, 0, 81, 64
1, 74880, Note_on_c, 1, 63, 0
1, 74880, Note_on_c, 1, 53, 64
1, 74940, Note_on_c, 0, 81, 0
1, 74940, Note_on_c, 0, 82, 64
1, 74940, Note_on_c, 1, 53, 0
1, 74940, Note_on_c, 1, 63, 64
1, 75000, Note_on_c, 0, 82, 0
1, 75000, Note_on_c, 0, 84, 64
1, 75000, Note_on_c, 1, 63, 0
1, 75000, Note_on_c, 1, 60, 64
1, 75060, Note_on_c, 0, 84, 0
1, 75060, Note_on_c, 0, 82, 64
1, 75060, Note_on_c, 1, 60, 0
1, 75060, Note_on_c, 1, 63, 64
1, 75120, Note_on_c, 0, 82, 0
1, 75120, Note_on_c, 0, 81, 64
1, 75120, Note_on_c, 1, 63, 0
1, 75120, Note_on_c, 1, 53, 64
1, 75180, Note_on_c, 0, 81, 0
1, 75180, Note_on_c, 0, 82, 64
1, 75180, Note_on_c, 1, 53, 0
1, 75180, Note_on_c, 1, 63, 64
1, 75240, Note_on_c, 0, 82, 0
1, 75240, Note_on_c, 0, 84, 64
1, 75240, Note_on_c, 1, 63, 0
1, 75240, Note_on_c, 1, 60, 64
1, 75300, Note_on_c, 0, 84, 0
1, 75300, Note_on_c, 0, 86, 64
1, 75300, Note_on_c, 1, 60, 0
1, 75300, Note_on_c, 1, 63, 64
1, 75360, Note_on_c, 0, 86, 0
1, 75360, Note_on_c, 0, 87, 64
1, 75360, Note_on_c, 1, 63, 0
1, 75360, Note_on_c, 1, 53, 64
1, 75420, Note_on_c, 0, 87, 0
1, 75420, Note_on_c, 0, 86, 64
1, 75420, Note_on_c, 1, 53, 0
1, 75420, Note_on_c, 1, 60, 64
1, 75480, Note_on_c, 0, 86, 0
1, 75480, Note_on_c, 0, 84, 64
1, 75480, Note_on_c, 1, 60, 0
1, 75480, Note_on_c, 1, 57, 64
1, 75540, Note_on_c, 0, 84, 0
1, 75540, Note_on_c, 0, 82, 64
1, 75540, Note_on_c, 1, 57, 0
1, 75540, Note_on_c, 1, 60, 64
1, 75600, Note_on_c, 0, 82, 0
1, 75600, Note_on_c, 0, 81, 64
1, 75600, Note_on_c, 1, 60, 0
1, 75600, Note_on_c, 1, 53, 64
1, 75660, Note_on_c, 0, 81, 0
1, 75660, Note_on_c, 0, 79, 64
1, 75660, Note_on_c, 1, 53, 0
1, 75660, Note_on_c, 1, 60, 64
1, 75720, Note_on_c, 0, 79, 0
1, 75720, Note_on_c, 0, 77, 64
1, 75720, Note_on_c, 1, 60, 0
1, 75720, Note_on_c, 1, 57, 64
1, 75780, Note_on_c, 0, 77, 0
1, 75780, Note_on_c, 0, 75, 64
1, 75780, Note_on_c, 1, 57, 0
1, 75780, Note_on_c, 1, 60, 64
1, 75840, Note_on_c, 0, 75, 0
1, 75840, Note_on_c, 0, 77, 64
1, 75840, Note_on_c, 1, 60, 0
1, 75840, Note_on_c, 1, 54, 64
1, 75870, Note_on_c, 0, 77, 0
1, 75870, Note_on_c, 0, 75, 64
1, 75900, Note_on_c, 0, 75, 0
1, 75900, Note_on_c, 0, 77, 64
1, 75900, Note_on_c, 1, 54, 0
1, 75900, Note_on_c, 1, 60, 64
1, 75930, Note_on_c, 0, 77, 0
1, 75930, Note_on_c, 0, 75, 64
1, 75960, Note_on_c, 0, 75, 0
1, 75960, Note_on_c, 0, 74, 64
1, 75960, Note_on_c, 1, 60, 0
1, 75960, Note_on_c, 1, 57, 64
1, 76020, Note_on_c, 1, 57, 0
1, 76020, Note_on_c, 1, 60, 64
1, 76080, Note_on_c, 0, 74, 0
1, 76080, Note_on_c, 0, 74, 64
1, 76080, Note_on_c, 1, 60, 0
1, 76080, Note_on_c, 1, 54, 64
1, 76140, Note_on_c, 1, 54, 0
1, 76140, Note_on_c, 1, 60, 64
1, 76200, Note_on_c, 1, 60, 0
1, 76200, Note_on_c, 1, 57, 64
1, 76260, Note_on_c, 1, 57, 0
1, 76260, Note_on_c, 1, 60, 64
1, 76320, Note_on_c, 1, 60, 0
1, 76320, Note_on_c, 1, 54, 64
1, 76380, Note_on_c, 1, 54, 0
1, 76380, Note_on_c, 1, 60, 64
1, 76440, Note_on_c, 0, 74, 0
1, 76440, Note_on_c, 0, 74, 64
1, 76440, Note_on_c, 1, 60, 0
1, 76440, Note_on_c, 1, 57, 64
1, 76500, Note_on_c, 1, 57, 0
1, 76500, Note_on_c, 1, 60, 64
1, 76560, Note_on_c, 0, 74, 0
1, 76560, Note_on_c, 0, 86, 64
1, 76560, Note_on_c, 1, 60, 0
1, 76560, Note_on_c, 1, 54, 64
1, 76620, Note_on_c, 1, 54, 0
1, 76620, Note_on_c, 1, 62, 64
1, 76680, Note_on_c, 0, 86, 0
1, 76680, Note_on_c, 0, 84, 64
1, 76680, Note_on_c, 1, 62, 0
1, 76680, Note_on_c, 1, 57, 64
1, 76740, Note_on_c, 1, 57, 0
1, 76740, Note_on_c, 1, 62, 64
1, 76800, Note_on_c, 1, 62, 0
1, 76800, Note_on_c, 1, 55, 64
1, 76860, Note_on_c, 1, 55, 0
1, 76860, Note_on_c, 1, 62, 64
1, 76920, Note_on_c, 0, 84, 0
1, 76920, Note_on_c, 0, 82, 64
1, 76920, Note_on_c, 1, 62, 0
1, 76920, Note_on_c, 1, 58, 64
1, 76980, Note_on_c, 1, 58, 0
1, 76980, Note_on_c, 1, 62, 64
1, 77040, Note_on_c, 1, 62, 0
1, 77040, Note_on_c, 1, 53, 64
1, 77100, Note_on_c, 1, 53, 0
1, 77100, Note_on_c, 1, 62, 64
1, 77160, Note_on_c, 0, 82, 0
1, 77160, Note_on_c, 0, 81, 64
1, 77160, Note_on_c, 1, 62, 0
1, 77160, Note_on_c, 1, 57, 64
1, 77220, Note_on_c, 1, 57, 0
1, 77220, Note_on_c, 1, 62, 64
1, 77280, Note_on_c, 1, 62, 0
1, 77280, Note_on_c, 1, 52, 64
1, 77340, Note_on_c, 0, 81, 0
1, 77340, Note_on_c, 0, 79, 64
1, 77340, Note_on_c, 1, 52, 0
1, 77340, Note_on_c, 1, 62, 64
1, 77400, Note_on_c, 0, 79, 0
1, 77400, Note_on_c, 0, 82, 64
1, 77400, Note_on_c, 1, 62, 0
1, 77400, Note_on_c, 1, 55, 64
1, 77460, Note_on_c, 0, 82, 0
1, 77460, Note_on_c, 0, 81, 64
1, 77460, Note_on_c, 1, 55, 0
1, 77460, Note_on_c, 1, 62, 64
1, 77520, Note_on_c, 0, 81, 0
1, 77520, Note_on_c, 0, 84, 64
1, 77520, Note_on_c, 1, 62, 0
1, 77520, Note_on_c, 1, 51, 64
1, 77580, Note_on_c, 0, 84, 0
1, 77580, Note_on_c, 0, 82, 64
1, 77580, Note_on_c, 1, 51, 0
1, 77580, Note_on_c, 1, 61, 64
1, 77640, Note_on_c, 0, 82, 0
1, 77640, Note_on_c, 0, 81, 64
1, 77640, Note_on_c, 1, 61, 0
1, 77640, Note_on_c, 1, 55, 64
1, 77700, Note_on_c, 0, 81, 0
1, 77700, Note_on_c, 0, 79, 64
1, 77700, Note_on_c, 1, 55, 0
1, 77700, Note_on_c, 1, 61, 64
1, 77760, Note_on_c, 0, 79, 0
1, 77760, Note_on_c, 0, 78, 64
1, 77760, Note_on_c, 1, 61, 0
1, 77760, Note_on_c, 1, 62, 64
1, 77760, Note_on_c, 1, 50, 64
1, 77820, Note_on_c, 0, 78, 0
1, 77820, Note_on_c, 0, 74, 64
1, 77880, Note_on_c, 0, 74, 0
1, 77880, Note_on_c, 0, 86, 64
1, 77940, Note_on_c, 0, 86, 0
1, 77940, Note_on_c, 0, 85, 64
1, 78000, Note_on_c, 0, 85, 0
1, 78000, Note_on_c, 0, 86, 64
1, 78000, Note_on_c, 1, 50, 0
1, 78000, Note_on_c, 1, 62, 0
1, 78060, Note_on_c, 0, 86, 0
1, 78060, Note_on_c, 0, 85, 64
1, 78120, Note_on_c, 0, 85, 0
1, 78120, Note_on_c, 0, 86, 64
1, 78180, Note_on_c, 0, 86, 0
1, 78180, Note_on_c, 0, 85, 64
1, 78240, Note_on_c, 0, 85, 0
1, 78240, Note_on_c, 0, 86, 64
1, 78300, Note_on_c, 0, 86, 0
1, 78300, Note_on_c, 0, 87, 64
1, 78360, Note_on_c, 0, 87, 0
1, 78360, Note_on_c, 0, 84, 64
1, 78420, Note_on_c, 0, 84, 0
1, 78420, Note_on_c, 0, 86, 64
1, 78480, Note_on_c, 0, 86, 0
1, 78480, Note_on_c, 0, 82, 64
1, 78480, Note_on_c, 1, 63, 64
1, 78480, Note_on_c, 1, 66, 64
1, 78540, Note_on_c, 0, 82, 0
1, 78540, Note_on_c, 0, 84, 64
1, 78600, Note_on_c, 0, 84, 0
1, 78600, Note_on_c, 0, 81, 64
1, 78660, Note_on_c, 0, 81, 0
1, 78660, Note_on_c, 0, 82, 64
1, 78720, Note_on_c, 0, 82, 0
1, 78720, Note_on_c, 0, 79, 64
1, 78720, Note_on_c, 1, 66, 0
1, 78720, Note_on_c, 1, 63, 0
1, 78720, Note_on_c, 1, 63, 64
1, 78720, Note_on_c, 1, 67, 64
1, 78780, Note_on_c, 0, 79, 0
1, 78780, Note_on_c, 0, 81, 64
1, 78840, Note_on_c, 0, 81, 0
1, 78840, Note_on_c, 0, 77, 64
1, 78900, Note_on_c, 0, 77, 0
1, 78900, Note_on_c, 0, 79, 64
1, 78960, Note_on_c, 0, 79, 0
1, 78960, Note_on_c, 0, 75, 64
1, 78960, Note_on_c, 1, 67, 0
1, 78960, Note_on_c, 1, 63, 0
1, 79020, Note_on_c, 0, 75, 0
1, 79020, Note_on_c, 0, 77, 64
1, 79080, Note_on_c, 0, 77, 0
1, 79080, Note_on_c, 0, 74, 64
1, 79140, Note_on_c, 0, 74, 0
1, 79140, Note_on_c, 0, 75, 64
1, 79200, Note_on_c, 0, 75, 0
1, 79200, Note_on_c, 0, 73, 64
1, 79320, Note_on_c, 0, 73, 0
1, 79320, Note_on_c, 0, 82, 64
1, 79440, Note_on_c, 0, 82, 0
1, 79440, Note_on_c, 0, 81, 64
1, 79440, Note_on_c, 1, 51, 64
1, 79440, Note_on_c, 1, 61, 64
1, 79560, Note_on_c, 0, 81, 0
1, 79560, Note_on_c, 0, 79, 64
1, 79680, Note_on_c, 0, 79, 0
1, 79680, Note_on_c, 0, 78, 64
1, 79680, Note_on_c, 1, 61, 0
1, 79680, Note_on_c, 1, 51, 0
1, 79680, Note_on_c, 1, 50, 64
1, 79680, Note_on_c, 1, 62, 64
1, 79740, Note_on_c, 0, 78, 0
1, 79740, Note_on_c, 0, 73, 64
1, 79800, Note_on_c, 0, 73, 0
1, 79800, Note_on_c, 0, 74, 64
1, 79860, Note_on_c, 0, 74, 0
1, 79860, Note_on_c, 0, 73, 64
1, 79920, Note_on_c, 0, 73, 0
1, 79920, Note_on_c, 0, 74, 64
1, 79920, Note_on_c, 1, 62, 0
1, 79920, Note_on_c, 1, 50, 0
1, 79980, Note_on_c, 0, 74, 0
1, 79980, Note_on_c, 0, 73, 64
1, 80040, Note_on_c, 0, 73, 0
1, 80040, Note_on_c, 0, 74, 64
1, 80100, Note_on_c, 0, 74, 0
1, 80100, Note_on_c, 0, 73, 64
1, 80160, Note_on_c, 0, 73, 0
1, 80160, Note_on_c, 0, 74, 64
1, 80220, Note_on_c, 0, 74, 0
1, 80220, Note_on_c, 0, 75, 64
1, 80280, Note_on_c, 0, 75, 0
1, 80280, Note_on_c, 0, 72, 64
1, 80340, Note_on_c, 0, 72, 0
1, 80340, Note_on_c, 0, 74, 64
1, 80400, Note_on_c, 0, 74, 0
1, 80400, Note_on_c, 0, 70, 64
1, 80400, Note_on_c, 1, 50, 64
1, 80400, Note_on_c, 1, 60, 64
1, 80460, Note_on_c, 0, 70, 0
1, 80460, Note_on_c, 0, 72, 64
1, 80520, Note_on_c, 0, 72, 0
1, 80520, Note_on_c, 0, 69, 64
1, 80580, Note_on_c, 0, 69, 0
1, 80580, Note_on_c, 0, 70, 64
1, 80640, Note_on_c, 0, 70, 0
1, 80640, Note_on_c, 0, 67, 64
1, 80640, Note_on_c, 1, 60, 0
1, 80640, Note_on_c, 1, 50, 0
1, 80640, Note_on_c, 1, 51, 64
1, 80640, Note_on_c, 1, 58, 64
1, 80700, Note_on_c, 0, 67, 0
1, 80700, Note_on_c, 0, 69, 64
1, 80760, Note_on_c, 0, 69, 0
1, 80760, Note_on_c, 0, 65, 64
1, 80820, Note_on_c, 0, 65, 0
1, 80820, Note_on_c, 0, 67, 64
1, 80880, Note_on_c, 0, 67, 0
1, 80880, Note_on_c, 0, 63, 64
1, 80880, Note_on_c, 1, 58, 0
1, 80880, Note_on_c, 1, 51, 0
1, 80940, Note_on_c, 0, 63, 0
1, 80940, Note_on_c, 0, 65, 64
1, 81000, Note_on_c, 0, 65, 0
1, 81000, Note_on_c, 0, 62, 64
1, 81060, Note_on_c, 0, 62, 0
1, 81060, Note_on_c, 0, 63, 64
1, 81120, Note_on_c, 0, 63, 0
1, 81120, Note_on_c, 0, 61, 64
1, 81240, Note_on_c, 0, 61, 0
1, 81240, Note_on_c, 0, 67, 64
1, 81360, Note_on_c, 0, 67, 0
1, 81360, Note_on_c, 0, 70, 64
1, 81360, Note_on_c, 1, 51, 64
1, 81360, Note_on_c, 1, 55, 64
1, 81480, Note_on_c, 0, 70, 0
1, 81480, Note_on_c, 0, 61, 64
1, 81600, Note_on_c, 0, 61, 0
1, 81600, Note_on_c, 0, 62, 64
1, 81600, Note_on_c, 1, 55, 0
1, 81600, Note_on_c, 1, 51, 0
1, 81600, Note_on_c, 1, 50, 64
1, 81600, Note_on_c, 1, 54, 64
1, 81720, Note_on_c, 0, 62, 0
1, 81720, Note_on_c, 0, 74, 64
1, 81720, Note_on_c, 1, 54, 0
1, 81720, Note_on_c, 1, 50, 0
1, 81840, Note_on_c, 0, 74, 0
1, 81840, Note_on_c, 1, 50, 64
1, 81840, Note_on_c, 1, 55, 64
1, 81840, Note_on_c, 1, 58, 64
1, 81960, Note_on_c, 0, 74, 64
1, 81960, Note_on_c, 1, 58, 0
1, 81960, Note_on_c, 1, 55, 0
1, 81960, Note_on_c, 1, 50, 0
1, 82080, Note_on_c, 0, 74, 0
1, 82080, Note_on_c, 1, 50, 64
1, 82080, Note_on_c, 1, 54, 64
1, 82080, Note_on_c, 1, 57, 64
1, 82200, Note_on_c, 0, 74, 64
1, 82200, Note_on_c, 1, 57, 0
1, 82200, Note_on_c, 1, 54, 0
1, 82200, Note_on_c, 1, 50, 0
1, 82320, Note_on_c, 0, 74, 0
1, 82320, Note_on_c, 1, 50, 64
1, 82320, Note_on_c, 1, 55, 64
1, 82320, Note_on_c, 1, 58, 64
1, 82440, Note_on_c, 0, 74, 64
1, 82440, Note_on_c, 1, 58, 0
1, 82440, Note_on_c, 1, 55, 0
1, 82440, Note_on_c, 1, 50, 0
1, 82560, Note_on_c, 0, 74, 0
1, 82560, Note_on_c, 1, 50, 64
1, 82560, Note_on_c, 1, 54, 64
1, 82560, Note_on_c, 1, 57, 64
1, 82680, Note_on_c, 0, 74, 64
1, 82800, Note_on_c, 0, 74, 0
1, 82800, Note_on_c, 0, 73, 64
1, 82800, Note_on_c, 1, 57, 0
1, 82800, Note_on_c, 1, 54, 0
1, 82800, Note_on_c, 1, 50, 0
1, 82920, Note_on_c, 0, 73, 0
1, 82920, Note_on_c, 0, 74, 64
1, 83040, Note_on_c, 0, 74, 0
1, 83040, Note_on_c, 0, 73, 64
1, 83160, Note_on_c, 0, 73, 0
1, 83160, Note_on_c, 0, 74, 64
1, 83280, Note_on_c, 0, 74, 0
1, 83280, Note_on_c, 0, 73, 64
1, 83400, Note_on_c, 0, 73, 0
1, 83400, Note_on_c, 0, 74, 64
1, 83520, Note_on_c, 0, 74, 0
1, 83520, Note_on_c, 0, 77, 64
1, 83640, Note_on_c, 1, 60, 64
1, 83640, Note_on_c, 1, 65, 64
1, 83640, Note_on_c, 1, 69, 64
1, 83760, Note_on_c, 0, 77, 0
1, 83760, Note_on_c, 0, 75, 64
1, 83760, Note_on_c, 1, 69, 0
1, 83760, Note_on_c, 1, 65, 0
1, 83760, Note_on_c, 1, 60, 0
1, 83760, Note_on_c, 1, 60, 64
1, 83760, Note_on_c, 1, 65, 64
1, 83760, Note_on_c, 1, 69, 64
1, 83880, Note_on_c, 1, 69, 0
1, 83880, Note_on_c, 1, 65, 0
1, 83880, Note_on_c, 1, 60, 0
1, 83880, Note_on_c, 1, 60, 64
1, 83880, Note_on_c, 1, 65, 64
1, 83880, Note_on_c, 1, 69, 64
1, 84000, Note_on_c, 0, 75, 0
1, 84000, Note_on_c, 1, 69, 0
1, 84000, Note_on_c, 1, 65, 0
1, 84000, Note_on_c, 1, 60, 0
1, 84000, Note_on_c, 1, 60, 64
1, 84000, Note_on_c, 1, 65, 64
1, 84000, Note_on_c, 1, 69, 64
1, 84060, Note_on_c, 0, 75, 64
1, 84120, Note_on_c, 0, 75, 0
1, 84120, Note_on_c, 0, 74, 64
1, 84180, Note_on_c, 0, 74, 0
1, 84180, Note_on_c, 0, 75, 64
1, 84240, Note_on_c, 0, 75, 0
1, 84240, Note_on_c, 0, 77, 64
1, 84240, Note_on_c, 1, 69, 0
1, 84240, Note_on_c, 1, 65, 0
1, 84240, Note_on_c, 1, 60, 0
1, 84300, Note_on_c, 0, 77, 0
1, 84300, Note_on_c, 0, 75, 64
1, 84360, Note_on_c, 0, 75, 0
1, 84360, Note_on_c, 0, 74, 64
1, 84420, Note_on_c, 0, 74, 0
1, 84420, Note_on_c, 0, 75, 64
1, 84480, Note_on_c, 0, 75, 0
1, 84480, Note_on_c, 0, 82, 64
1, 84600, Note_on_c, 1, 65, 64
1, 84600, Note_on_c, 1, 72, 64
1, 84600, Note_on_c, 1, 75, 64
1, 84720, Note_on_c, 0, 82, 0
1, 84720, Note_on_c, 0, 81, 64
1, 84720, Note_on_c, 1, 75, 0
1, 84720, Note_on_c, 1, 72, 0
1, 84720, Note_on_c, 1, 65, 0
1, 84720, Note_on_c, 1, 75, 64
1, 84720, Note_on_c, 1, 72, 64
1, 84720, Note_on_c, 1, 65, 64
1, 84840, Note_on_c, 1, 65, 0
1, 84840, Note_on_c, 1, 72, 0
1, 84840, Note_on_c, 1, 75, 0
1, 84840, Note_on_c, 1, 65, 64
1, 84840, Note_on_c, 1, 72, 64
1, 84840, Note_on_c, 1, 75, 64
1, 84960, Note_on_c, 0, 81, 0
1, 84960, Note_on_c, 1, 75, 0
1, 84960, Note_on_c, 1, 72, 0
1, 84960, Note_on_c, 1, 65, 0
1, 84960, Note_on_c, 1, 65, 64
1, 84960, Note_on_c, 1, 72, 64
1, 84960, Note_on_c, 1, 75, 64
1, 85020, Note_on_c, 0, 81, 64
1, 85080, Note_on_c, 0, 81, 0
1, 85080, Note_on_c, 0, 79, 64
1, 85140, Note_on_c, 0, 79, 0
1, 85140, Note_on_c, 0, 81, 64
1, 85200, Note_on_c, 0, 81, 0
1, 85200, Note_on_c, 0, 82, 64
1, 85200, Note_on_c, 1, 75, 0
1, 85200, Note_on_c, 1, 72, 0
1, 85200, Note_on_c, 1, 65, 0
1, 85260, Note_on_c, 0, 82, 0
1, 85260, Note_on_c, 0, 81, 64
1, 85320, Note_on_c, 0, 81, 0
1, 85320, Note_on_c, 0, 79, 64
1, 85380, Note_on_c, 0, 79, 0
1, 85380, Note_on_c, 0, 81, 64
1, 85440, Note_on_c, 0, 81, 0
1, 85440, Note_on_c, 0, 89, 64
1, 85560, Note_on_c, 1, 65, 64
1, 85680, Note_on_c, 0, 89, 0
1, 85680, Note_on_c, 0, 87, 64
1, 85680, Note_on_c, 1, 65, 0
1, 85680, Note_on_c, 1, 72, 64
1, 85800, Note_on_c, 1, 72, 0
1, 85800, Note_on_c, 1, 75, 64
1, 85920, Note_on_c, 0, 87, 0
1, 85920, Note_on_c, 1, 75, 0
1, 85920, Note_on_c, 1, 66, 64
1, 85980, Note_on_c, 0, 87, 64
1, 86040, Note_on_c, 0, 87, 0
1, 86040, Note_on_c, 0, 86, 64
1, 86100, Note_on_c, 0, 86, 0
1, 86100, Note_on_c, 0, 87, 64
1, 86160, Note_on_c, 0, 87, 0
1, 86160, Note_on_c, 0, 89, 64
1, 86220, Note_on_c, 0, 89, 0
1, 86220, Note_on_c, 0, 87, 64
1, 86280, Note_on_c, 0, 87, 0
1, 86280, Note_on_c, 0, 85, 64
1, 86340, Note_on_c, 0, 85, 0
1, 86340, Note_on_c, 0, 84, 64
1, 86400, Note_on_c, 0, 84, 0
1, 86400, Note_on_c, 0, 82, 64
1, 86400, Note_on_c, 1, 66, 0
1, 86520, Note_on_c, 1, 65, 64
1, 86640, Note_on_c, 0, 82, 0
1, 86640, Note_on_c, 0, 81, 64
1, 86640, Note_on_c, 1, 65, 0
1, 86640, Note_on_c, 1, 72, 64
1, 86760, Note_on_c, 1, 72, 0
1, 86760, Note_on_c, 1, 75, 64
1, 86880, Note_on_c, 0, 81, 0
1, 86880, Note_on_c, 1, 75, 0
1, 86880, Note_on_c, 1, 66, 64
1, 86940, Note_on_c, 0, 87, 64
1, 87000, Note_on_c, 0, 87, 0
1, 87000, Note_on_c, 0, 86, 64
1, 87060, Note_on_c, 0, 86, 0
1, 87060, Note_on_c, 0, 87, 64
1, 87120, Note_on_c, 0, 87, 0
1, 87120, Note_on_c, 0, 89, 64
1, 87180, Note_on_c, 0, 89, 0
1, 87180, Note_on_c, 0, 87, 64
1, 87240, Note_on_c, 0, 87, 0
1, 87240, Note_on_c, 0, 85, 64
1, 87300, Note_on_c, 0, 85, 0
1, 87300, Note_on_c, 0, 84, 64
1, 87360, Note_on_c, 0, 84, 0
1, 87360, Note_on_c, 0, 82, 64
1, 87360, Note_on_c, 1, 66, 0
1, 87360, Note_on_c, 1, 65, 64
1, 87420, Note_on_c, 0, 82, 0
1, 87420, Note_on_c, 0, 81, 64
1, 87480, Note_on_c, 0, 81, 0
1, 87480, Note_on_c, 0, 87, 64
1, 87480, Note_on_c, 1, 65, 0
1, 87540, Note_on_c, 0, 87, 0
1, 87540, Note_on_c, 0, 86, 64
1, 87600, Note_on_c, 0, 86, 0
1, 87600, Note_on_c, 0, 89, 64
1, 87600, Note_on_c, 1, 66, 64
1, 87600, Note_on_c, 1, 72, 64
1, 87600, Note_on_c, 1, 75, 64
1, 87660, Note_on_c, 0, 89, 0
1, 87660, Note_on_c, 0, 87, 64
1, 87720, Note_on_c, 0, 87, 0
1, 87720, Note_on_c, 0, 85, 64
1, 87780, Note_on_c, 0, 85, 0
1, 87780, Note_on_c, 0, 84, 64
1, 87840, Note_on_c, 0, 84, 0
1, 87840, Note_on_c, 0, 82, 64
1, 87840, Note_on_c, 1, 66, 0
1, 87840, Note_on_c, 1, 65, 64
1, 87900, Note_on_c, 0, 82, 0
1, 87900, Note_on_c, 0, 81, 64
1, 87960, Note_on_c, 0, 81, 0
1, 87960, Note_on_c, 0, 87, 64
1, 88020, Note_on_c, 0, 87, 0
1, 88020, Note_on_c, 0, 86, 64
1, 88080, Note_on_c, 0, 86, 0
1, 88080, Note_on_c, 0, 89, 64
1, 88080, Note_on_c, 1, 65, 0
1, 88080, Note_on_c, 1, 75, 0
1, 88080, Note_on_c, 1, 72, 0
1, 88080, Note_on_c, 1, 66, 64
1, 88080, Note_on_c, 1, 72, 64
1, 88080, Note_on_c, 1, 75, 64
1, 88140, Note_on_c, 0, 89, 0
1, 88140, Note_on_c, 0, 87, 64
1, 88200, Note_on_c, 0, 87, 0
1, 88200, Note_on_c, 0, 85, 64
1, 88260, Note_on_c, 0, 85, 0
1, 88260, Note_on_c, 0, 84, 64
1, 88320, Note_on_c, 0, 84, 0
1, 88320, Note_on_c, 0, 82, 64
1, 88320, Note_on_c, 1, 66, 0
1, 88320, Note_on_c, 1, 65, 64
1, 88380, Note_on_c, 0, 82, 0
1, 88380, Note_on_c, 0, 81, 64
1, 88440, Note_on_c, 0, 81, 0
1, 88440, Note_on_c, 0, 84, 64
1, 88500, Note_on_c, 0, 84, 0
1, 88500, Note_on_c, 0, 83, 64
1, 88560, Note_on_c, 0, 83, 0
1, 88560, Note_on_c, 0, 86, 64
1, 88560, Note_on_c, 1, 65, 0
1, 88560, Note_on_c, 1, 75, 0
1, 88560, Note_on_c, 1, 72, 0
1, 88620, Note_on_c, 0, 86, 0
1, 88620, Note_on_c, 0, 84, 64
1, 88680, Note_on_c, 0, 84, 0
1, 88680, Note_on_c, 0, 82, 64
1, 88740, Note_on_c, 0, 82, 0
1, 88740, Note_on_c, 0, 81, 64
1, 88800, Note_on_c, 0, 81, 0
1, 88800, Note_on_c, 0, 79, 64
1, 88860, Note_on_c, 0, 79, 0
1, 88860, Note_on_c, 0, 77, 64
1, 88920, Note_on_c, 0, 77, 0
1, 88920, Note_on_c, 0, 79, 64
1, 88980, Note_on_c, 0, 79, 0
1, 88980, Note_on_c, 0, 78, 64
1, 89040, Note_on_c, 0, 78, 0
1, 89040, Note_on_c, 0, 81, 64
1, 89100, Note_on_c, 0, 81, 0
1, 89100, Note_on_c, 0, 79, 64
1, 89160, Note_on_c, 0, 79, 0
1, 89160, Note_on_c, 0, 77, 64
1, 89220, Note_on_c, 0, 77, 0
1, 89220, Note_on_c, 0, 75, 64
1, 89280, Note_on_c, 0, 75, 0
1, 89280, Note_on_c, 0, 74, 64
1, 89400, Note_on_c, 0, 74, 0
1, 89400, Note_on_c, 0, 72, 64
1, 89520, Note_on_c, 0, 72, 0
1, 89520, Note_on_c, 0, 74, 64
1, 89640, Note_on_c, 0, 74, 0
1, 89640, Note_on_c, 0, 75, 64
1, 89760, Note_on_c, 0, 75, 0
1, 89760, Note_on_c, 0, 76, 64
1, 89880, Note_on_c, 0, 76, 0
1, 89880, Note_on_c, 0, 77, 64
1, 90000, Note_on_c, 0, 77, 0
1, 90000, Note_on_c, 0, 79, 64
1, 90060, Note_on_c, 0, 79, 0
1, 90060, Note_on_c, 0, 77, 64
1, 90120, Note_on_c, 0, 77, 0
1, 90120, Note_on_c, 0, 75, 64
1, 90180, Note_on_c, 0, 75, 0
1, 90180, Note_on_c, 0, 74, 64
1, 90240, Note_on_c, 0, 74, 0
1, 90240, Note_on_c, 0, 74, 0
1, 90240, Note_on_c, 0, 74, 0
1, 90240, Note_on_c, 0, 72, 64
1, 90360, Note_on_c, 0, 72, 0
1, 90360, Note_on_c, 0, 70, 64
1, 90360, Note_on_c, 1, 58, 64
1, 90480, Note_on_c, 0, 70, 0
1, 90480, Note_on_c, 0, 70, 64
1, 90480, Note_on_c, 1, 58, 0
1, 90480, Note_on_c, 1, 62, 64
1, 90600, Note_on_c, 1, 62, 0
1, 90600, Note_on_c, 1, 65, 64
1, 90720, Note_on_c, 1, 65, 0
1, 90720, Note_on_c, 1, 62, 64
1, 90840, Note_on_c, 0, 70, 0
1, 90840, Note_on_c, 0, 74, 64
1, 90840, Note_on_c, 1, 62, 0
1, 90840, Note_on_c, 1, 58, 64
1, 90960, Note_on_c, 0, 74, 0
1, 90960, Note_on_c, 0, 79, 64
1, 90960, Note_on_c, 1, 58, 0
1, 90960, Note_on_c, 1, 62, 64
1, 91080, Note_on_c, 0, 79, 0
1, 91080, Note_on_c, 0, 74, 64
1, 91080, Note_on_c, 1, 62, 0
1, 91080, Note_on_c, 1, 67, 64
1, 91200, Note_on_c, 0, 74, 0
1, 91200, Note_on_c, 0, 77, 64
1, 91200, Note_on_c, 1, 67, 0
1, 91320, Note_on_c, 1, 60, 64
1, 91440, Note_on_c, 0, 77, 0
1, 91440, Note_on_c, 0, 75, 64
1, 91440, Note_on_c, 1, 60, 0
1, 91440, Note_on_c, 1, 63, 64
1, 91560, Note_on_c, 1, 63, 0
1, 91560, Note_on_c, 1, 67, 64
1, 91680, Note_on_c, 1, 67, 0
1, 91680, Note_on_c, 1, 63, 64
1, 91800, Note_on_c, 0, 75, 0
1, 91800, Note_on_c, 0, 77, 64
1, 91800, Note_on_c, 1, 63, 0
1, 91800, Note_on_c, 1, 60, 64
1, 91860, Note_on_c, 0, 77, 0
1, 91860, Note_on_c, 0, 79, 64
1, 91920, Note_on_c, 0, 79, 0
1, 91920, Note_on_c, 0, 77, 64
1, 91920, Note_on_c, 1, 60, 0
1, 91920, Note_on_c, 1, 63, 64
1, 91980, Note_on_c, 0, 77, 0
1, 91980, Note_on_c, 0, 75, 64
1, 92040, Note_on_c, 0, 75, 0
1, 92040, Note_on_c, 0, 74, 64
1, 92040, Note_on_c, 1, 63, 0
1, 92040, Note_on_c, 1, 67, 64
1, 92100, Note_on_c, 0, 74, 0
1, 92100, Note_on_c, 0, 72, 64
1, 92160, Note_on_c, 0, 72, 0
1, 92160, Note_on_c, 0, 70, 64
1, 92160, Note_on_c, 1, 67, 0
1, 92280, Note_on_c, 1, 53, 64
1, 92400, Note_on_c, 0, 70, 0
1, 92400, Note_on_c, 0, 69, 64
1, 92400, Note_on_c, 1, 53, 0
1, 92400, Note_on_c, 1, 60, 64
1, 92520, Note_on_c, 1, 60, 0
1, 92520, Note_on_c, 1, 63, 64
1, 92640, Note_on_c, 1, 63, 0
1, 92640, Note_on_c, 1, 60, 64
1, 92760, Note_on_c, 0, 69, 0
1, 92760, Note_on_c, 0, 69, 64
1, 92760, Note_on_c, 1, 60, 0
1, 92760, Note_on_c, 1, 53, 64
1, 92880, Note_on_c, 0, 69, 0
1, 92880, Note_on_c, 0, 70, 64
1, 92880, Note_on_c, 1, 53, 0
1, 92880, Note_on_c, 1, 60, 64
1, 93000, Note_on_c, 0, 70, 0
1, 93000, Note_on_c, 0, 72, 64
1, 93000, Note_on_c, 1, 60, 0
1, 93000, Note_on_c, 1, 63, 64
1, 93120, Note_on_c, 0, 72, 0
1, 93120, Note_on_c, 0, 69, 64
1, 93120, Note_on_c, 0, 72, 64
1, 93120, Note_on_c, 1, 63, 0
1, 93240, Note_on_c, 1, 58, 64
1, 93360, Note_on_c, 0, 72, 0
1, 93360, Note_on_c, 0, 69, 0
1, 93360, Note_on_c, 0, 70, 64
1, 93360, Note_on_c, 0, 74, 64
1, 93360, Note_on_c, 1, 58, 0
1, 93360, Note_on_c, 1, 62, 64
1, 93480, Note_on_c, 1, 62, 0
1, 93480, Note_on_c, 1, 65, 64
1, 93600, Note_on_c, 0, 74, 0
1, 93600, Note_on_c, 0, 70, 0
1, 93600, Note_on_c, 1, 65, 0
1, 93600, Note_on_c, 1, 62, 64
1, 93720, Note_on_c, 0, 77, 64
1, 93720, Note_on_c, 1, 62, 0
1, 93720, Note_on_c, 1, 58, 64
1, 93780, Note_on_c, 0, 77, 0
1, 93780, Note_on_c, 0, 76, 64
1, 93840, Note_on_c, 0, 76, 0
1, 93840, Note_on_c, 0, 79, 64
1, 93840, Note_on_c, 1, 58, 0
1, 93840, Note_on_c, 1, 62, 64
1, 93900, Note_on_c, 0, 79, 0
1, 93900, Note_on_c, 0, 77, 64
1, 93960, Note_on_c, 0, 77, 0
1, 93960, Note_on_c, 0, 75, 64
1, 93960, Note_on_c, 1, 62, 0
1, 93960, Note_on_c, 1, 65, 64
1, 94020, Note_on_c, 0, 75, 0
1, 94020, Note_on_c, 0, 74, 64
1, 94080, Note_on_c, 0, 74, 0
1, 94080, Note_on_c, 0, 74, 64
1, 94080, Note_on_c, 1, 65, 0
1, 94080, Note_on_c, 1, 63, 64
1, 94200, Note_on_c, 0, 74, 0
1, 94200, Note_on_c, 0, 72, 64
1, 94200, Note_on_c, 1, 63, 0
1, 94200, Note_on_c, 1, 67, 64
1, 94320, Note_on_c, 1, 67, 0
1, 94320, Note_on_c, 1, 62, 64
1, 94440, Note_on_c, 0, 72, 0
1, 94440, Note_on_c, 0, 70, 64
1, 94440, Note_on_c, 1, 62, 0
1, 94440, Note_on_c, 1, 65, 64
1, 94560, Note_on_c, 0, 70, 0
1, 94560, Note_on_c, 0, 74, 64
1, 94560, Note_on_c, 1, 65, 0
1, 94560, Note_on_c, 1, 63, 64
1, 94680, Note_on_c, 0, 74, 0
1, 94680, Note_on_c, 0, 72, 64
1, 94680, Note_on_c, 1, 63, 0
1, 94680, Note_on_c, 1, 67, 64
1, 94800, Note_on_c, 1, 67, 0
1, 94800, Note_on_c, 1, 60, 64
1, 94920, Note_on_c, 0, 72, 0
1, 94920, Note_on_c, 0, 69, 64
1, 94920, Note_on_c, 1, 60, 0
1, 94920, Note_on_c, 1, 63, 64
1, 95040, Note_on_c, 0, 69, 0
1, 95040, Note_on_c, 0, 70, 64
1, 95040, Note_on_c, 1, 63, 0
1, 95040, Note_on_c, 1, 62, 64
1, 95040, Note_on_c, 1, 65, 64
1, 95100, Note_on_c, 0, 70, 0
1, 95100, Note_on_c, 0, 72, 64
1, 95160, Note_on_c, 0, 72, 0
1, 95160, Note_on_c, 0, 70, 64
1, 95220, Note_on_c, 0, 70, 0
1, 95220, Note_on_c, 0, 69, 64
1, 95280, Note_on_c, 0, 69, 0
1, 95280, Note_on_c, 0, 70, 64
1, 95280, Note_on_c, 1, 65, 0
1, 95280, Note_on_c, 1, 62, 0
1, 95340, Note_on_c, 0, 70, 0
1, 95340, Note_on_c, 0, 72, 64
1, 95400, Note_on_c, 0, 72, 0
1, 95400, Note_on_c, 0, 74, 64
1, 95460, Note_on_c, 0, 74, 0
1, 95460, Note_on_c, 0, 75, 64
1, 95520, Note_on_c, 0, 75, 0
1, 95520, Note_on_c, 0, 76, 64
1, 95580, Note_on_c, 0, 76, 0
1, 95580, Note_on_c, 0, 77, 64
1, 95640, Note_on_c, 0, 77, 0
1, 95640, Note_on_c, 0, 76, 64
1, 95700, Note_on_c, 0, 76, 0
1, 95700, Note_on_c, 0, 77, 64
1, 95760, Note_on_c, 0, 77, 0
1, 95760, Note_on_c, 0, 79, 64
1, 95820, Note_on_c, 0, 79, 0
1, 95820, Note_on_c, 0, 77, 64
1, 95880, Note_on_c, 0, 77, 0
1, 95880, Note_on_c, 0, 75, 64
1, 95940, Note_on_c, 0, 75, 0
1, 95940, Note_on_c, 0, 74, 64
1, 96000, Note_on_c, 0, 74, 0
1, 96000, Note_on_c, 0, 74, 64
1, 96000, Note_on_c, 1, 63, 64
1, 96120, Note_on_c, 0, 74, 0
1, 96120, Note_on_c, 0, 72, 64
1, 96120, Note_on_c, 1, 63, 0
1, 96120, Note_on_c, 1, 67, 64
1, 96240, Note_on_c, 0, 72, 0
1, 96240, Note_on_c, 0, 72, 64
1, 96240, Note_on_c, 1, 67, 0
1, 96240, Note_on_c, 1, 62, 64
1, 96360, Note_on_c, 0, 72, 0
1, 96360, Note_on_c, 0, 70, 64
1, 96360, Note_on_c, 1, 62, 0
1, 96360, Note_on_c, 1, 65, 64
1, 96480, Note_on_c, 0, 70, 0
1, 96480, Note_on_c, 0, 74, 64
1, 96480, Note_on_c, 1, 65, 0
1, 96480, Note_on_c, 1, 63, 64
1, 96600, Note_on_c, 0, 74, 0
1, 96600, Note_on_c, 0, 72, 64
1, 96600, Note_on_c, 1, 63, 0
1, 96600, Note_on_c, 1, 67, 64
1, 96720, Note_on_c, 0, 72, 0
1, 96720, Note_on_c, 0, 72, 64
1, 96720, Note_on_c, 1, 67, 0
1, 96720, Note_on_c, 1, 60, 64
1, 96840, Note_on_c, 0, 72, 0
1, 96840, Note_on_c, 0, 69, 64
1, 96840, Note_on_c, 1, 60, 0
1, 96840, Note_on_c, 1, 63, 64
1, 96960, Note_on_c, 0, 69, 0
1, 96960, Note_on_c, 0, 70, 64
1, 96960, Note_on_c, 1, 63, 0
1, 96960, Note_on_c, 1, 62, 64
1, 96960, Note_on_c, 1, 65, 64
1, 97080, Note_on_c, 0, 70, 0
1, 97080, Note_on_c, 0, 72, 64
1, 97140, Note_on_c, 0, 72, 0
1, 97140, Note_on_c, 0, 74, 64
1, 97200, Note_on_c, 0, 74, 0
1, 97200, Note_on_c, 0, 75, 64
1, 97200, Note_on_c, 1, 65, 0
1, 97200, Note_on_c, 1, 62, 0
1, 97260, Note_on_c, 0, 75, 0
1, 97260, Note_on_c, 0, 77, 64
1, 97320, Note_on_c, 0, 77, 0
1, 97320, Note_on_c, 0, 79, 64
1, 97380, Note_on_c, 0, 79, 0
1, 97380, Note_on_c, 0, 81, 64
1, 97440, Note_on_c, 0, 81, 0
1, 97440, Note_on_c, 0, 82, 64
1, 97500, Note_on_c, 0, 82, 0
1, 97500, Note_on_c, 0, 84, 64
1, 97560, Note_on_c, 0, 84, 0
1, 97560, Note_on_c, 0, 86, 64
1, 97620, Note_on_c, 0, 86, 0
1, 97620, Note_on_c, 0, 87, 64
1, 97680, Note_on_c, 0, 87, 0
1, 97680, Note_on_c, 0, 89, 64
1, 97800, Note_on_c, 0, 89, 0
1, 97800, Note_on_c, 0, 89, 64
1, 97920, Note_on_c, 0, 89, 0
1, 97920, Note_on_c, 0, 89, 64
1, 97920, Note_on_c, 0, 77, 64
1, 97920, Note_on_c, 1, 57, 64
1, 98040, Note_on_c, 0, 89, 0
1, 98040, Note_on_c, 0, 87, 64
1, 98160, Note_on_c, 1, 57, 0
1, 98160, Note_on_c, 1, 58, 64
1, 98280, Note_on_c, 0, 87, 0
1, 98280, Note_on_c, 0, 86, 64
1, 98400, Note_on_c, 0, 86, 0
1, 98400, Note_on_c, 0, 86, 64
1, 98400, Note_on_c, 1, 58, 0
1, 98400, Note_on_c, 1, 51, 64
1, 98520, Note_on_c, 0, 86, 0
1, 98520, Note_on_c, 0, 77, 0
1, 98520, Note_on_c, 0, 84, 64
1, 98520, Note_on_c, 0, 75, 64
1, 98640, Note_on_c, 0, 75, 0
1, 98640, Note_on_c, 0, 84, 0
1, 98640, Note_on_c, 0, 82, 64
1, 98640, Note_on_c, 0, 74, 64
1, 98640, Note_on_c, 1, 51, 0
1, 98640, Note_on_c, 1, 53, 64
1, 98760, Note_on_c, 0, 74, 0
1, 98760, Note_on_c, 0, 82, 0
1, 98760, Note_on_c, 0, 81, 64
1, 98760, Note_on_c, 0, 72, 64
1, 98880, Note_on_c, 0, 72, 0
1, 98880, Note_on_c, 0, 81, 0
1, 98880, Note_on_c, 0, 74, 64
1, 98880, Note_on_c, 0, 82, 64
1, 98880, Note_on_c, 1, 53, 0
1, 99000, Note_on_c, 1, 46, 64
1, 99120, Note_on_c, 0, 82, 0
1, 99120, Note_on_c, 0, 74, 0
1, 99120, Note_on_c, 0, 70, 64
1, 99120, Note_on_c, 1, 46, 0
1, 99120, Note_on_c, 1, 50, 64
1, 99240, Note_on_c, 1, 50, 0
1, 99240, Note_on_c, 1, 53, 64
1, 99360, Note_on_c, 0, 70, 0
1, 99360, Note_on_c, 1, 53, 0
1, 99360, Note_on_c, 1, 58, 64
1, 99600, Note_on_c, 0, 67, 64
1, 99600, Note_on_c, 1, 58, 0
1, 99660, Note_on_c, 0, 67, 0
1, 99660, Note_on_c, 0, 65, 64
1, 99720, Note_on_c, 0, 65, 0
1, 99720, Note_on_c, 0, 63, 64
1, 99780, Note_on_c, 0, 63, 0
1, 99780, Note_on_c, 0, 62, 64
1, 99840, Note_on_c, 0, 62, 0
1, 99840, Note_on_c, 0, 60, 64
1, 99960, Note_on_c, 0, 60, 0
1, 99960, Note_on_c, 0, 58, 64
1, 99960, Note_on_c, 1, 46, 64
1, 100080, Note_on_c, 0, 58, 0
1, 100080, Note_on_c, 0, 58, 64
1, 100080, Note_on_c, 1, 46, 0
1, 100080, Note_on_c, 1, 50, 64
1, 100200, Note_on_c, 1, 50, 0
1, 100200, Note_on_c, 1, 53, 64
1, 100320, Note_on_c, 1, 53, 0
1, 100320, Note_on_c, 1, 50, 64
1, 100440, Note_on_c, 0, 58, 0
1, 100440, Note_on_c, 0, 70, 64
1, 100440, Note_on_c, 1, 50, 0
1, 100440, Note_on_c, 1, 46, 64
1, 100560, Note_on_c, 0, 70, 0
1, 100560, Note_on_c, 0, 70, 64
1, 100560, Note_on_c, 1, 46, 0
1, 100560, Note_on_c, 1, 50, 64
1, 100680, Note_on_c, 0, 70, 0
1, 100680, Note_on_c, 0, 72, 64
1, 100680, Note_on_c, 1, 50, 0
1, 100680, Note_on_c, 1, 53, 64
1, 100800, Note_on_c, 0, 72, 0
1, 100800, Note_on_c, 0, 70, 64
1, 100800, Note_on_c, 1, 53, 0
1, 100920, Note_on_c, 0, 70, 0
1, 100920, Note_on_c, 0, 69, 64
1, 100920, Note_on_c, 1, 46, 64
1, 101040, Note_on_c, 0, 69, 0
1, 101040, Note_on_c, 0, 68, 64
1, 101040, Note_on_c, 1, 46, 0
1, 101040, Note_on_c, 1, 50, 64
1, 101160, Note_on_c, 1, 50, 0
1, 101160, Note_on_c, 1, 53, 64
1, 101280, Note_on_c, 1, 53, 0
1, 101280, Note_on_c, 1, 50, 64
1, 101400, Note_on_c, 0, 68, 0
1, 101400, Note_on_c, 0, 68, 64
1, 101400, Note_on_c, 1, 50, 0
1, 101400, Note_on_c, 1, 46, 64
1, 101520, Note_on_c, 0, 68, 0
1, 101520, Note_on_c, 0, 68, 64
1, 101520, Note_on_c, 1, 46, 0
1, 101520, Note_on_c, 1, 50, 64
1, 101640, Note_on_c, 0, 68, 0
1, 101640, Note_on_c, 0, 68, 64
1, 101640, Note_on_c, 1, 50, 0
1, 101640, Note_on_c, 1, 53, 64
1, 101760, Note_on_c, 0, 68, 0
1, 101760, Note_on_c, 0, 80, 64
1, 101760, Note_on_c, 1, 53, 0
1, 101820, Note_on_c, 0, 80, 0
1, 101820, Note_on_c, 0, 82, 64
1, 101880, Note_on_c, 0, 82, 0
1, 101880, Note_on_c, 0, 79, 64
1, 101880, Note_on_c, 1, 46, 64
1, 101940, Note_on_c, 0, 79, 0
1, 101940, Note_on_c, 0, 80, 64
1, 102000, Note_on_c, 0, 80, 0
1, 102000, Note_on_c, 0, 77, 64
1, 102000, Note_on_c, 1, 46, 0
1, 102000, Note_on_c, 1, 50, 64
1, 102060, Note_on_c, 0, 77, 0
1, 102060, Note_on_c, 0, 79, 64
1, 102120, Note_on_c, 0, 79, 0
1, 102120, Note_on_c, 0, 75, 64
1, 102120, Note_on_c, 1, 50, 0
1, 102120, Note_on_c, 1, 53, 64
1, 102180, Note_on_c, 0, 75, 0
1, 102180, Note_on_c, 0, 77, 64
1, 102240, Note_on_c, 0, 77, 0
1, 102240, Note_on_c, 0, 74, 64
1, 102240, Note_on_c, 1, 53, 0
1, 102240, Note_on_c, 1, 56, 64
1, 102300, Note_on_c, 0, 74, 0
1, 102300, Note_on_c, 0, 75, 64
1, 102360, Note_on_c, 0, 75, 0
1, 102360, Note_on_c, 0, 72, 64
1, 102360, Note_on_c, 1, 56, 0
1, 102360, Note_on_c, 1, 53, 64
1, 102420, Note_on_c, 0, 72, 0
1, 102420, Note_on_c, 0, 74, 64
1, 102480, Note_on_c, 0, 74, 0
1, 102480, Note_on_c, 0, 70, 64
1, 102480, Note_on_c, 1, 53, 0
1, 102480, Note_on_c, 1, 50, 64
1, 102540, Note_on_c, 0, 70, 0
1, 102540, Note_on_c, 0, 72, 64
1, 102600, Note_on_c, 0, 72, 0
1, 102600, Note_on_c, 0, 68, 64
1, 102600, Note_on_c, 1, 50, 0
1, 102600, Note_on_c, 1, 46, 64
1, 102660, Note_on_c, 0, 68, 0
1, 102660, Note_on_c, 0, 70, 64
1, 102720, Note_on_c, 0, 70, 0
1, 102720, Note_on_c, 0, 68, 64
1, 102720, Note_on_c, 1, 46, 0
1, 102840, Note_on_c, 0, 68, 0
1, 102840, Note_on_c, 0, 67, 64
1, 102840, Note_on_c, 1, 47, 64
1, 102960, Note_on_c, 0, 67, 0
1, 102960, Note_on_c, 0, 67, 64
1, 102960, Note_on_c, 1, 47, 0
1, 102960, Note_on_c, 1, 50, 64
1, 103080, Note_on_c, 1, 50, 0
1, 103080, Note_on_c, 1, 53, 64
1, 103200, Note_on_c, 1, 53, 0
1, 103200, Note_on_c, 1, 55, 64
1, 103320, Note_on_c, 0, 67, 0
1, 103320, Note_on_c, 0, 79, 64
1, 103320, Note_on_c, 1, 55, 0
1, 103320, Note_on_c, 1, 53, 64
1, 103440, Note_on_c, 0, 79, 0
1, 103440, Note_on_c, 0, 79, 64
1, 103440, Note_on_c, 1, 53, 0
1, 103440, Note_on_c, 1, 50, 64
1, 103560, Note_on_c, 0, 79, 0
1, 103560, Note_on_c, 0, 77, 64
1, 103560, Note_on_c, 1, 50, 0
1, 103560, Note_on_c, 1, 47, 64
1, 103680, Note_on_c, 0, 77, 0
1, 103680, Note_on_c, 0, 77, 64
1, 103680, Note_on_c, 1, 47, 0
1, 103800, Note_on_c, 0, 77, 0
1, 103800, Note_on_c, 0, 76, 64
1, 103800, Note_on_c, 1, 58, 64
1, 103920, Note_on_c, 0, 76, 0
1, 103920, Note_on_c, 0, 76, 64
1, 103920, Note_on_c, 1, 58, 0
1, 103920, Note_on_c, 1, 61, 64
1, 104040, Note_on_c, 1, 61, 0
1, 104040, Note_on_c, 1, 64, 64
1, 104160, Note_on_c, 1, 64, 0
1, 104160, Note_on_c, 1, 67, 64
1, 104280, Note_on_c, 0, 76, 0
1, 104280, Note_on_c, 0, 85, 64
1, 104400, Note_on_c, 0, 85, 0
1, 104400, Note_on_c, 0, 85, 64
1, 104400, Note_on_c, 1, 67, 0
1, 104520, Note_on_c, 0, 85, 0
1, 104520, Note_on_c, 0, 76, 64
1, 104640, Note_on_c, 0, 76, 0
1, 104640, Note_on_c, 0, 79, 64
1, 104760, Note_on_c, 0, 79, 0
1, 104760, Note_on_c, 0, 77, 64
1, 104760, Note_on_c, 1, 57, 64
1, 104880, Note_on_c, 0, 77, 0
1, 104880, Note_on_c, 0, 77, 64
1, 104880, Note_on_c, 1, 57, 0
1, 104880, Note_on_c, 1, 60, 64
1, 105000, Note_on_c, 1, 60, 0
1, 105000, Note_on_c, 1, 65, 64
1, 105120, Note_on_c, 1, 65, 0
1, 105120, Note_on_c, 1, 69, 64
1, 105240, Note_on_c, 0, 77, 0
1, 105240, Note_on_c, 0, 78, 64
1, 105360, Note_on_c, 0, 78, 0
1, 105360, Note_on_c, 0, 79, 64
1, 105360, Note_on_c, 1, 69, 0
1, 105480, Note_on_c, 0, 79, 0
1, 105480, Note_on_c, 0, 75, 64
1, 105600, Note_on_c, 0, 75, 0
1, 105600, Note_on_c, 0, 73, 64
1, 105720, Note_on_c, 0, 73, 0
1, 105720, Note_on_c, 0, 74, 64
1, 105720, Note_on_c, 1, 58, 64
1, 105840, Note_on_c, 0, 74, 0
1, 105840, Note_on_c, 0, 74, 64
1, 105840, Note_on_c, 1, 58, 0
1, 105840, Note_on_c, 1, 62, 64
1, 105960, Note_on_c, 1, 62, 0
1, 105960, Note_on_c, 1, 65, 64
1, 106080, Note_on_c, 0, 74, 0
1, 106080, Note_on_c, 1, 65, 0
1, 106080, Note_on_c, 1, 70, 64
1, 106200, Note_on_c, 0, 77, 64
1, 106320, Note_on_c, 0, 77, 0
1, 106320, Note_on_c, 0, 79, 64
1, 106320, Note_on_c, 1, 70, 0
1, 106380, Note_on_c, 0, 79, 0
1, 106380, Note_on_c, 0, 77, 64
1, 106440, Note_on_c, 0, 77, 0
1, 106440, Note_on_c, 0, 75, 64
1, 106500, Note_on_c, 0, 75, 0
1, 106500, Note_on_c, 0, 74, 64
1, 106560, Note_on_c, 0, 74, 0
1, 106560, Note_on_c, 0, 72, 64
1, 106560, Note_on_c, 1, 63, 64
1, 106680, Note_on_c, 1, 63, 0
1, 106680, Note_on_c, 1, 65, 64
1, 106800, Note_on_c, 1, 65, 0
1, 106800, Note_on_c, 1, 63, 64
1, 106920, Note_on_c, 0, 72, 0
1, 106920, Note_on_c, 0, 69, 64
1, 106920, Note_on_c, 1, 63, 0
1, 106920, Note_on_c, 1, 65, 64
1, 107040, Note_on_c, 0, 69, 0
1, 107040, Note_on_c, 0, 70, 64
1, 107040, Note_on_c, 1, 65, 0
1, 107040, Note_on_c, 1, 62, 64
1, 107100, Note_on_c, 0, 70, 0
1, 107100, Note_on_c, 0, 77, 64
1, 107160, Note_on_c, 0, 77, 0
1, 107160, Note_on_c, 0, 76, 64
1, 107160, Note_on_c, 1, 62, 0
1, 107160, Note_on_c, 1, 65, 64
1, 107220, Note_on_c, 0, 76, 0
1, 107220, Note_on_c, 0, 77, 64
1, 107280, Note_on_c, 0, 77, 0
1, 107280, Note_on_c, 0, 79, 64
1, 107280, Note_on_c, 1, 65, 0
1, 107280, Note_on_c, 1, 62, 64
1, 107340, Note_on_c, 0, 79, 0
1, 107340, Note_on_c, 0, 77, 64
1, 107400, Note_on_c, 0, 77, 0
1, 107400, Note_on_c, 0, 75, 64
1, 107400, Note_on_c, 1, 62, 0
1, 107400, Note_on_c, 1, 65, 64
1, 107460, Note_on_c, 0, 75, 0
1, 107460, Note_on_c, 0, 74, 64
1, 107520, Note_on_c, 0, 74, 0
1, 107520, Note_on_c, 0, 72, 64
1, 107520, Note_on_c, 1, 65, 0
1, 107520, Note_on_c, 1, 63, 64
1, 107640, Note_on_c, 0, 72, 0
1, 107640, Note_on_c, 0, 72, 64
1, 107640, Note_on_c, 1, 63, 0
1, 107640, Note_on_c, 1, 65, 64
1, 107760, Note_on_c, 1, 65, 0
1, 107760, Note_on_c, 1, 63, 64
1, 107880, Note_on_c, 0, 72, 0
1, 107880, Note_on_c, 0, 69, 64
1, 107880, Note_on_c, 1, 63, 0
1, 107880, Note_on_c, 1, 65, 64
1, 108000, Note_on_c, 0, 69, 0
1, 108000, Note_on_c, 0, 70, 64
1, 108000, Note_on_c, 1, 65, 0
1, 108000, Note_on_c, 1, 62, 64
1, 108060, Note_on_c, 0, 70, 0
1, 108060, Note_on_c, 0, 77, 64
1, 108120, Note_on_c, 0, 77, 0
1, 108120, Note_on_c, 0, 76, 64
1, 108120, Note_on_c, 1, 62, 0
1, 108120, Note_on_c, 1, 65, 64
1, 108180, Note_on_c, 0, 76, 0
1, 108180, Note_on_c, 0, 77, 64
1, 108240, Note_on_c, 0, 77, 0
1, 108240, Note_on_c, 0, 79, 64
1, 108240, Note_on_c, 1, 65, 0
1, 108240, Note_on_c, 1, 62, 64
1, 108300, Note_on_c, 0, 79, 0
1, 108300, Note_on_c, 0, 77, 64
1, 108360, Note_on_c, 0, 77, 0
1, 108360, Note_on_c, 0, 75, 64
1, 108360, Note_on_c, 1, 62, 0
1, 108360, Note_on_c, 1, 65, 64
1, 108420, Note_on_c, 0, 75, 0
1, 108420, Note_on_c, 0, 74, 64
1, 108480, Note_on_c, 0, 74, 0
1, 108480, Note_on_c, 0, 74, 64
1, 108480, Note_on_c, 1, 65, 0
1, 108480, Note_on_c, 1, 63, 64
1, 108600, Note_on_c, 0, 74, 0
1, 108600, Note_on_c, 0, 72, 64
1, 108600, Note_on_c, 1, 63, 0
1, 108600, Note_on_c, 1, 67, 64
1, 108720, Note_on_c, 0, 72, 0
1, 108720, Note_on_c, 1, 67, 0
1, 108720, Note_on_c, 1, 63, 64
1, 108840, Note_on_c, 0, 72, 64
1, 108840, Note_on_c, 1, 63, 0
1, 108840, Note_on_c, 1, 67, 64
1, 108960, Note_on_c, 0, 72, 0
1, 108960, Note_on_c, 0, 72, 64
1, 108960, Note_on_c, 1, 67, 0
1, 108960, Note_on_c, 1, 64, 64
1, 109080, Note_on_c, 0, 72, 0
1, 109080, Note_on_c, 0, 70, 64
1, 109080, Note_on_c, 1, 64, 0
1, 109080, Note_on_c, 1, 67, 64
1, 109200, Note_on_c, 0, 70, 0
1, 109200, Note_on_c, 1, 67, 0
1, 109200, Note_on_c, 1, 64, 64
1, 109320, Note_on_c, 0, 70, 64
1, 109320, Note_on_c, 1, 64, 0
1, 109320, Note_on_c, 1, 67, 64
1, 109440, Note_on_c, 0, 70, 0
1, 109440, Note_on_c, 0, 69, 64
1, 109440, Note_on_c, 1, 67, 0
1, 109440, Note_on_c, 1, 53, 64
1, 109500, Note_on_c, 0, 69, 0
1, 109500, Note_on_c, 0, 70, 64
1, 109560, Note_on_c, 0, 70, 0
1, 109560, Note_on_c, 0, 69, 64
1, 109620, Note_on_c, 0, 69, 0
1, 109620, Note_on_c, 0, 65, 64
1, 109680, Note_on_c, 0, 65, 0
1, 109680, Note_on_c, 0, 70, 64
1, 109680, Note_on_c, 1, 53, 0
1, 109680, Note_on_c, 1, 55, 64
1, 109740, Note_on_c, 0, 70, 0
1, 109740, Note_on_c, 0, 72, 64
1, 109800, Note_on_c, 0, 72, 0
1, 109800, Note_on_c, 0, 70, 64
1, 109860, Note_on_c, 0, 70, 0
1, 109860, Note_on_c, 0, 65, 64
1, 109920, Note_on_c, 0, 65, 0
1, 109920, Note_on_c, 0, 72, 64
1, 109920, Note_on_c, 1, 55, 0
1, 109920, Note_on_c, 1, 57, 64
1, 109980, Note_on_c, 0, 72, 0
1, 109980, Note_on_c, 0, 74, 64
1, 110040, Note_on_c, 0, 74, 0
1, 110040, Note_on_c, 0, 72, 64
1, 110100, Note_on_c, 0, 72, 0
1, 110100, Note_on_c, 0, 65, 64
1, 110160, Note_on_c, 0, 65, 0
1, 110160, Note_on_c, 0, 74, 64
1, 110160, Note_on_c, 1, 57, 0
1, 110160, Note_on_c, 1, 58, 64
1, 110220, Note_on_c, 0, 74, 0
1, 110220, Note_on_c, 0, 75, 64
1, 110280, Note_on_c, 0, 75, 0
1, 110280, Note_on_c, 0, 74, 64
1, 110340, Note_on_c, 0, 74, 0
1, 110340, Note_on_c, 0, 65, 64
1, 110400, Note_on_c, 0, 65, 0
1, 110400, Note_on_c, 0, 75, 64
1, 110400, Note_on_c, 1, 58, 0
1, 110400, Note_on_c, 1, 60, 64
1, 110520, Note_on_c, 0, 75, 0
1, 110520, Note_on_c, 0, 75, 64
1, 110520, Note_on_c, 1, 60, 0
1, 110520, Note_on_c, 1, 65, 64
1, 110640, Note_on_c, 0, 75, 0
1, 110640, Note_on_c, 1, 65, 0
1, 110640, Note_on_c, 1, 57, 64
1, 110760, Note_on_c, 0, 72, 64
1, 110760, Note_on_c, 1, 57, 0
1, 110760, Note_on_c, 1, 65, 64
1, 110880, Note_on_c, 0, 72, 0
1, 110880, Note_on_c, 0, 75, 64
1, 110880, Note_on_c, 1, 65, 0
1, 110880, Note_on_c, 1, 58, 64
1, 111000, Note_on_c, 0, 75, 0
1, 111000, Note_on_c, 0, 74, 64
1, 111000, Note_on_c, 1, 58, 0
1, 111000, Note_on_c, 1, 65, 64
1, 111120, Note_on_c, 0, 74, 0
1, 111120, Note_on_c, 0, 72, 64
1, 111120, Note_on_c, 1, 65, 0
1, 111120, Note_on_c, 1, 55, 64
1, 111240, Note_on_c, 0, 72, 0
1, 111240, Note_on_c, 0, 70, 64
1, 111240, Note_on_c, 1, 55, 0
1, 111240, Note_on_c, 1, 65, 64
1, 111360, Note_on_c, 0, 70, 0
1, 111360, Note_on_c, 0, 69, 64
1, 111360, Note_on_c, 1, 65, 0
1, 111360, Note_on_c, 1, 53, 64
1, 111420, Note_on_c, 0, 69, 0
1, 111420, Note_on_c, 0, 65, 64
1, 111480, Note_on_c, 0, 65, 0
1, 111480, Note_on_c, 0, 76, 64
1, 111540, Note_on_c, 0, 76, 0
1, 111540, Note_on_c, 0, 77, 64
1, 111600, Note_on_c, 0, 77, 0
1, 111600, Note_on_c, 0, 70, 64
1, 111600, Note_on_c, 1, 53, 0
1, 111600, Note_on_c, 1, 55, 64
1, 111660, Note_on_c, 0, 70, 0
1, 111660, Note_on_c, 0, 65, 64
1, 111720, Note_on_c, 0, 65, 0
1, 111720, Note_on_c, 0, 76, 64
1, 111780, Note_on_c, 0, 76, 0
1, 111780, Note_on_c, 0, 77, 64
1, 111840, Note_on_c, 0, 77, 0
1, 111840, Note_on_c, 0, 72, 64
1, 111840, Note_on_c, 1, 55, 0
1, 111840, Note_on_c, 1, 57, 64
1, 111900, Note_on_c, 0, 72, 0
1, 111900, Note_on_c, 0, 65, 64
1, 111960, Note_on_c, 0, 65, 0
1, 111960, Note_on_c, 0, 76, 64
1, 112020, Note_on_c, 0, 76, 0
1, 112020, Note_on_c, 0, 77, 64
1, 112080, Note_on_c, 0, 77, 0
1, 112080, Note_on_c, 0, 74, 64
1, 112080, Note_on_c, 1, 57, 0
1, 112080, Note_on_c, 1, 58, 64
1, 112140, Note_on_c, 0, 74, 0
1, 112140, Note_on_c, 0, 65, 64
1, 112200, Note_on_c, 0, 65, 0
1, 112200, Note_on_c, 0, 76, 64
1, 112260, Note_on_c, 0, 76, 0
1, 112260, Note_on_c, 0, 77, 64
1, 112320, Note_on_c, 0, 77, 0
1, 112320, Note_on_c, 0, 75, 64
1, 112320, Note_on_c, 1, 58, 0
1, 112320, Note_on_c, 1, 60, 64
1, 112380, Note_on_c, 1, 60, 0
1, 112380, Note_on_c, 1, 65, 64
1, 112440, Note_on_c, 0, 75, 0
1, 112440, Note_on_c, 0, 75, 64
1, 112440, Note_on_c, 1, 65, 0
1, 112440, Note_on_c, 1, 64, 64
1, 112500, Note_on_c, 1, 64, 0
1, 112500, Note_on_c, 1, 65, 64
1, 112560, Note_on_c, 0, 75, 0
1, 112560, Note_on_c, 1, 65, 0
1, 112560, Note_on_c, 1, 57, 64
1, 112620, Note_on_c, 1, 57, 0
1, 112620, Note_on_c, 1, 65, 64
1, 112680, Note_on_c, 0, 72, 64
1, 112680, Note_on_c, 1, 65, 0
1, 112680, Note_on_c, 1, 64, 64
1, 112720, Note_on_c, 0, 72, 0
1, 112720, Note_on_c, 0, 74, 64
1, 112740, Note_on_c, 1, 64, 0
1, 112740, Note_on_c, 1, 65, 64
1, 112760, Note_on_c, 0, 74, 0
1, 112760, Note_on_c, 0, 72, 64
1, 112800, Note_on_c, 0, 72, 0
1, 112800, Note_on_c, 0, 75, 64
1, 112800, Note_on_c, 1, 65, 0
1, 112800, Note_on_c, 1, 58, 64
1, 112860, Note_on_c, 1, 58, 0
1, 112860, Note_on_c, 1, 65, 64
1, 112920, Note_on_c, 0, 75, 0
1, 112920, Note_on_c, 0, 74, 64
1, 112920, Note_on_c, 1, 65, 0
1, 112920, Note_on_c, 1, 64, 64
1, 112980, Note_on_c, 1, 64, 0
1, 112980, Note_on_c, 1, 65, 64
1, 113040, Note_on_c, 0, 74, 0
1, 113040, Note_on_c, 0, 72, 64
1, 113040, Note_on_c, 1, 65, 0
1, 113040, Note_on_c, 1, 55, 64
1, 113100, Note_on_c, 1, 55, 0
1, 113100, Note_on_c, 1, 64, 64
1, 113160, Note_on_c, 0, 72, 0
1, 113160, Note_on_c, 0, 70, 64
1, 113160, Note_on_c, 1, 64, 0
1, 113160, Note_on_c, 1, 62, 64
1, 113220, Note_on_c, 1, 62, 0
1, 113220, Note_on_c, 1, 64, 64
1, 113280, Note_on_c, 0, 70, 0
1, 113280, Note_on_c, 0, 69, 64
1, 113280, Note_on_c, 1, 64, 0
1, 113280, Note_on_c, 1, 53, 64
1, 113280, Note_on_c, 1, 65, 64
1, 113340, Note_on_c, 0, 69, 0
1, 113340, Note_on_c, 0, 77, 64
1, 113400, Note_on_c, 0, 77, 0
1, 113400, Note_on_c, 0, 72, 64
1, 113460, Note_on_c, 0, 72, 0
1, 113460, Note_on_c, 0, 69, 64
1, 113520, Note_on_c, 0, 69, 0
1, 113520, Note_on_c, 0, 65, 64
1, 113520, Note_on_c, 1, 65, 0
1, 113520, Note_on_c, 1, 53, 0
1, 113580, Note_on_c, 0, 65, 0
1, 113580, Note_on_c, 0, 60, 64
1, 113640, Note_on_c, 0, 60, 0
1, 113640, Note_on_c, 0, 57, 64
1, 113700, Note_on_c, 0, 57, 0
1, 113700, Note_on_c, 0, 53, 64
1, 113760, Note_on_c, 0, 53, 0
1, 113760, Note_on_c, 1, 41, 64
1, 113760, Note_on_c, 1, 29, 64
1, 114000, Note_on_c, 1, 29, 0
1, 114000, Note_on_c, 1, 41, 0
1, 114240, Note_on_c, 0, 53, 64
1, 114240, Note_on_c, 0, 58, 64
1, 114240, Note_on_c, 0, 62, 64
1, 114240, Note_on_c, 0, 65, 64
1, 114240, Note_on_c, 1, 46, 64
1, 114240, Note_on_c, 1, 34, 64
1, 114600, Note_on_c, 0, 65, 0
1, 114600, Note_on_c, 0, 53, 0
1, 114600, Note_on_c, 0, 58, 0
1, 114600, Note_on_c, 0, 62, 0
1, 114600, Note_on_c, 0, 67, 64
1, 114660, Note_on_c, 0, 67, 0
1, 114660, Note_on_c, 0, 65, 64
1, 114720, Note_on_c, 0, 65, 0
1, 114720, Note_on_c, 0, 63, 64
1, 114720, Note_on_c, 1, 34, 0
1, 114720, Note_on_c, 1, 46, 0
1, 114840, Note_on_c, 0, 63, 0
1, 114840, Note_on_c, 0, 62, 64
1, 114960, Note_on_c, 0, 62, 0
1, 114960, Note_on_c, 0, 60, 64
1, 115080, Note_on_c, 0, 60, 0
1, 115080, Note_on_c, 0, 58, 64
1, 115200, Note_on_c, 0, 58, 0
1, 115200, Note_on_c, 0, 58, 64
1, 115320, Note_on_c, 0, 58, 0
1, 115320, Note_on_c, 0, 67, 64
1, 115440, Note_on_c, 0, 67, 0
1, 115440, Note_on_c, 0, 58, 64
1, 115440, Note_on_c, 0, 67, 64
1, 115440, Note_on_c, 1, 39, 64
1, 115440, Note_on_c, 1, 51, 64
1, 115800, Note_on_c, 0, 67, 0
1, 115800, Note_on_c, 0, 58, 0
1, 115800, Note_on_c, 0, 65, 64
1, 115920, Note_on_c, 0, 65, 0
1, 115920, Note_on_c, 0, 69, 64
1, 115920, Note_on_c, 1, 51, 0
1, 115920, Note_on_c, 1, 39, 0
1, 115920, Note_on_c, 1, 50, 64
1, 116040, Note_on_c, 0, 69, 0
1, 116040, Note_on_c, 0, 70, 64
1, 116160, Note_on_c, 0, 70, 0
1, 116160, Note_on_c, 0, 70, 64
1, 116160, Note_on_c, 1, 50, 0
1, 116160, Note_on_c, 1, 52, 64
1, 116160, Note_on_c, 1, 55, 64
1, 116280, Note_on_c, 0, 70, 0
1, 116280, Note_on_c, 0, 60, 64
1, 116400, Note_on_c, 1, 55, 0
1, 116400, Note_on_c, 1, 52, 0
1, 116400, Note_on_c, 1, 53, 64
1, 116520, Note_on_c, 0, 60, 0
1, 116520, Note_on_c, 0, 62, 64
1, 116640, Note_on_c, 0, 62, 0
1, 116640, Note_on_c, 0, 70, 64
1, 116640, Note_on_c, 1, 53, 0
1, 116640, Note_on_c, 1, 55, 64
1, 116640, Note_on_c, 1, 52, 64
1, 116760, Note_on_c, 0, 70, 0
1, 116760, Note_on_c, 0, 60, 64
1, 116880, Note_on_c, 1, 52, 0
1, 116880, Note_on_c, 1, 55, 0
1, 116880, Note_on_c, 1, 53, 64
1, 117000, Note_on_c, 0, 60, 0
1, 117000, Note_on_c, 0, 62, 64
1, 117120, Note_on_c, 0, 62, 0
1, 117120, Note_on_c, 0, 65, 64
1, 117120, Note_on_c, 1, 53, 0
1, 117120, Note_on_c, 1, 55, 64
1, 117360, Note_on_c, 0, 65, 0
1, 117360, Note_on_c, 0, 63, 64
1, 117360, Note_on_c, 1, 55, 0
1, 117360, Note_on_c, 1, 57, 64
1, 117390, Note_on_c, 0, 63, 0
1, 117390, Note_on_c, 0, 65, 64
1, 117420, Note_on_c, 0, 65, 0
1, 117420, Note_on_c, 0, 63, 64
1, 117450, Note_on_c, 0, 63, 0
1, 117450, Note_on_c, 0, 65, 64
1, 117480, Note_on_c, 0, 65, 0
1, 117480, Note_on_c, 0, 63, 64
1, 117510, Note_on_c, 0, 63, 0
1, 117510, Note_on_c, 0, 62, 64
1, 117540, Note_on_c, 0, 62, 0
1, 117540, Note_on_c, 0, 63, 64
1, 117570, Note_on_c, 0, 63, 0
1, 117570, Note_on_c, 0, 62, 64
1, 117600, Note_on_c, 0, 62, 0
1, 117600, Note_on_c, 0, 62, 64
1, 117600, Note_on_c, 1, 57, 0
1, 117600, Note_on_c, 1, 58, 64
1, 117720, Note_on_c, 0, 62, 0
1, 117720, Note_on_c, 0, 62, 64
1, 117840, Note_on_c, 0, 62, 0
1, 117840, Note_on_c, 0, 63, 64
1, 117840, Note_on_c, 1, 58, 0
1, 117960, Note_on_c, 0, 63, 0
1, 117960, Note_on_c, 0, 65, 64
1, 118080, Note_on_c, 0, 65, 0
1, 118080, Note_on_c, 0, 66, 64
1, 118200, Note_on_c, 0, 66, 0
1, 118200, Note_on_c, 0, 67, 64
1, 118200, Note_on_c, 1, 39, 64
1, 118320, Note_on_c, 1, 39, 0
1, 118320, Note_on_c, 1, 43, 64
1, 118440, Note_on_c, 0, 67, 0
1, 118440, Note_on_c, 0, 65, 64
1, 118440, Note_on_c, 1, 43, 0
1, 118440, Note_on_c, 1, 48, 64
1, 118500, Note_on_c, 0, 65, 0
1, 118500, Note_on_c, 0, 63, 64
1, 118560, Note_on_c, 0, 63, 0
1, 118560, Note_on_c, 0, 62, 64
1, 118560, Note_on_c, 1, 48, 0
1, 118560, Note_on_c, 1, 51, 64
1, 118680, Note_on_c, 0, 62, 0
1, 118680, Note_on_c, 0, 60, 64
1, 118800, Note_on_c, 0, 60, 0
1, 118800, Note_on_c, 0, 62, 64
1, 118800, Note_on_c, 1, 51, 0
1, 118920, Note_on_c, 0, 62, 0
1, 118920, Note_on_c, 0, 63, 64
1, 119040, Note_on_c, 0, 63, 0
1, 119040, Note_on_c, 0, 67, 64
1, 119160, Note_on_c, 0, 67, 0
1, 119160, Note_on_c, 0, 65, 64
1, 119160, Note_on_c, 1, 38, 64
1, 119280, Note_on_c, 1, 38, 0
1, 119280, Note_on_c, 1, 41, 64
1, 119400, Note_on_c, 0, 65, 0
1, 119400, Note_on_c, 0, 63, 64
1, 119400, Note_on_c, 1, 41, 0
1, 119400, Note_on_c, 1, 46, 64
1, 119460, Note_on_c, 0, 63, 0
1, 119460, Note_on_c, 0, 62, 64
1, 119520, Note_on_c, 0, 62, 0
1, 119520, Note_on_c, 0, 60, 64
1, 119520, Note_on_c, 1, 46, 0
1, 119520, Note_on_c, 1, 50, 64
1, 119640, Note_on_c, 0, 60, 0
1, 119640, Note_on_c, 0, 58, 64
1, 119760, Note_on_c, 0, 58, 0
1, 119760, Note_on_c, 0, 60, 64
1, 119760, Note_on_c, 1, 50, 0
1, 119880, Note_on_c, 0, 60, 0
1, 119880, Note_on_c, 0, 62, 64
1, 120000, Note_on_c, 0, 62, 0
1, 120000, Note_on_c, 0, 65, 64
1, 120000, Note_on_c, 1, 48, 64
1, 120120, Note_on_c, 0, 65, 0
1, 120120, Note_on_c, 0, 63, 64
1, 120240, Note_on_c, 1, 48, 0
1, 120240, Note_on_c, 1, 45, 64
1, 120360, Note_on_c, 0, 63, 0
1, 120360, Note_on_c, 0, 60, 64
1, 120480, Note_on_c, 0, 60, 0
1, 120480, Note_on_c, 0, 63, 64
1, 120480, Note_on_c, 1, 45, 0
1, 120480, Note_on_c, 1, 46, 64
1, 120600, Note_on_c, 0, 63, 0
1, 120600, Note_on_c, 0, 62, 64
1, 120720, Note_on_c, 1, 46, 0
1, 120720, Note_on_c, 1, 43, 64
1, 120840, Note_on_c, 0, 62, 0
1, 120840, Note_on_c, 0, 58, 64
1, 120960, Note_on_c, 0, 58, 0
1, 120960, Note_on_c, 0, 57, 64
1, 120960, Note_on_c, 1, 43, 0
1, 120960, Note_on_c, 1, 41, 64
1, 121020, Note_on_c, 0, 57, 0
1, 121020, Note_on_c, 0, 58, 64
1, 121080, Note_on_c, 0, 58, 0
1, 121080, Note_on_c, 0, 59, 64
1, 121140, Note_on_c, 0, 59, 0
1, 121140, Note_on_c, 0, 60, 64
1, 121200, Note_on_c, 0, 60, 0
1, 121200, Note_on_c, 0, 61, 64
1, 121200, Note_on_c, 1, 41, 0
1, 121260, Note_on_c, 0, 61, 0
1, 121260, Note_on_c, 0, 62, 64
1, 121320, Note_on_c, 0, 62, 0
1, 121320, Note_on_c, 0, 63, 64
1, 121380, Note_on_c, 0, 63, 0
1, 121380, Note_on_c, 0, 64, 64
1, 121440, Note_on_c, 0, 64, 0
1, 121440, Note_on_c, 0, 65, 64
1, 121440, Note_on_c, 1, 53, 64
1, 121500, Note_on_c, 1, 53, 0
1, 121500, Note_on_c, 1, 55, 64
1, 121560, Note_on_c, 1, 55, 0
1, 121560, Note_on_c, 1, 51, 64
1, 121620, Note_on_c, 1, 51, 0
1, 121620, Note_on_c, 1, 53, 64
1, 121680, Note_on_c, 0, 65, 0
1, 121680, Note_on_c, 1, 53, 0
1, 121680, Note_on_c, 1, 50, 64
1, 121740, Note_on_c, 1, 50, 0
1, 121740, Note_on_c, 1, 51, 64
1, 121800, Note_on_c, 1, 51, 0
1, 121800, Note_on_c, 1, 48, 64
1, 121860, Note_on_c, 1, 48, 0
1, 121860, Note_on_c, 1, 50, 64
1, 121920, Note_on_c, 0, 65, 64
1, 121920, Note_on_c, 0, 70, 64
1, 121920, Note_on_c, 0, 74, 64
1, 121920, Note_on_c, 0, 77, 64
1, 121920, Note_on_c, 1, 50, 0
1, 121920, Note_on_c, 1, 46, 64
1, 122160, Note_on_c, 1, 46, 0
1, 122160, Note_on_c, 1, 58, 64
1, 122280, Note_on_c, 0, 77, 0
1, 122280, Note_on_c, 0, 65, 0
1, 122280, Note_on_c, 0, 70, 0
1, 122280, Note_on_c, 0, 74, 0
1, 122280, Note_on_c, 0, 79, 64
1, 122340, Note_on_c, 0, 79, 0
1, 122340, Note_on_c, 0, 77, 64
1, 122400, Note_on_c, 0, 77, 0
1, 122400, Note_on_c, 0, 75, 64
1, 122400, Note_on_c, 1, 58, 0
1, 122520, Note_on_c, 0, 75, 0
1, 122520, Note_on_c, 0, 74, 64
1, 122640, Note_on_c, 0, 74, 0
1, 122640, Note_on_c, 0, 72, 64
1, 122760, Note_on_c, 0, 72, 0
1, 122760, Note_on_c, 0, 70, 64
1, 122880, Note_on_c, 0, 70, 0
1, 122880, Note_on_c, 0, 70, 64
1, 123000, Note_on_c, 0, 70, 0
1, 123000, Note_on_c, 0, 79, 64
1, 123120, Note_on_c, 0, 79, 0
1, 123120, Note_on_c, 0, 70, 64
1, 123120, Note_on_c, 0, 79, 64
1, 123120, Note_on_c, 1, 51, 64
1, 123120, Note_on_c, 1, 63, 64
1, 123480, Note_on_c, 0, 79, 0
1, 123480, Note_on_c, 0, 70, 0
1, 123480, Note_on_c, 0, 77, 64
1, 123600, Note_on_c, 0, 77, 0
1, 123600, Note_on_c, 0, 81, 64
1, 123600, Note_on_c, 1, 63, 0
1, 123600, Note_on_c, 1, 51, 0
1, 123600, Note_on_c, 1, 62, 64
1, 123720, Note_on_c, 0, 81, 0
1, 123720, Note_on_c, 0, 82, 64
1, 123840, Note_on_c, 1, 62, 0
1, 123840, Note_on_c, 1, 64, 64
1, 123840, Note_on_c, 1, 67, 64
1, 123960, Note_on_c, 0, 82, 0
1, 123960, Note_on_c, 0, 72, 64
1, 124080, Note_on_c, 0, 72, 0
1, 124080, Note_on_c, 0, 74, 64
1, 124080, Note_on_c, 1, 67, 0
1, 124080, Note_on_c, 1, 64, 0
1, 124080, Note_on_c, 1, 65, 64
1, 124200, Note_on_c, 0, 74, 0
1, 124200, Note_on_c, 0, 82, 64
1, 124320, Note_on_c, 1, 65, 0
1, 124320, Note_on_c, 1, 64, 64
1, 124320, Note_on_c, 1, 67, 64
1, 124440, Note_on_c, 0, 82, 0
1, 124440, Note_on_c, 0, 72, 64
1, 124560, Note_on_c, 0, 72, 0
1, 124560, Note_on_c, 0, 74, 64
1, 124560, Note_on_c, 1, 67, 0
1, 124560, Note_on_c, 1, 64, 0
1, 124560, Note_on_c, 1, 65, 64
1, 124680, Note_on_c, 0, 74, 0
1, 124680, Note_on_c, 0, 82, 64
1, 124800, Note_on_c, 0, 82, 0
1, 124800, Note_on_c, 0, 77, 64
1, 124800, Note_on_c, 1, 65, 0
1, 124800, Note_on_c, 1, 67, 64
1, 124800, Note_on_c, 1, 70, 64
1, 125040, Note_on_c, 0, 77, 0
1, 125040, Note_on_c, 0, 76, 64
1, 125040, Note_on_c, 1, 70, 0
1, 125040, Note_on_c, 1, 67, 0
1, 125040, Note_on_c, 1, 69, 64
1, 125040, Note_on_c, 1, 72, 64
1, 125160, Note_on_c, 0, 76, 0
1, 125160, Note_on_c, 0, 75, 64
1, 125280, Note_on_c, 0, 75, 0
1, 125280, Note_on_c, 0, 74, 64
1, 125280, Note_on_c, 1, 72, 0
1, 125280, Note_on_c, 1, 69, 0
1, 125280, Note_on_c, 1, 70, 64
1, 125400, Note_on_c, 0, 74, 0
1, 125400, Note_on_c, 0, 74, 64
1, 125520, Note_on_c, 0, 74, 0
1, 125520, Note_on_c, 0, 75, 64
1, 125520, Note_on_c, 1, 70, 0
1, 125640, Note_on_c, 0, 75, 0
1, 125640, Note_on_c, 0, 77, 64
1, 125760, Note_on_c, 0, 77, 0
1, 125760, Note_on_c, 0, 79, 64
1, 125880, Note_on_c, 1, 55, 64
1, 126000, Note_on_c, 1, 55, 0
1, 126000, Note_on_c, 1, 67, 64
1, 126120, Note_on_c, 0, 79, 0
1, 126120, Note_on_c, 0, 81, 64
1, 126120, Note_on_c, 1, 67, 0
1, 126120, Note_on_c, 1, 65, 64
1, 126180, Note_on_c, 0, 81, 0
1, 126180, Note_on_c, 0, 83, 64
1, 126240, Note_on_c, 0, 83, 0
1, 126240, Note_on_c, 0, 84, 64
1, 126240, Note_on_c, 1, 65, 0
1, 126240, Note_on_c, 1, 63, 64
1, 126300, Note_on_c, 0, 84, 0
1, 126300, Note_on_c, 0, 86, 64
1, 126360, Note_on_c, 0, 86, 0
1, 126360, Note_on_c, 0, 87, 64
1, 126360, Note_on_c, 1, 63, 0
1, 126360, Note_on_c, 1, 51, 64
1, 126420, Note_on_c, 0, 87, 0
1, 126420, Note_on_c, 0, 86, 64
1, 126480, Note_on_c, 0, 86, 0
1, 126480, Note_on_c, 0, 84, 64
1, 126480, Note_on_c, 1, 51, 0
1, 126480, Note_on_c, 1, 63, 64
1, 126540, Note_on_c, 0, 84, 0
1, 126540, Note_on_c, 0, 86, 64
1, 126600, Note_on_c, 0, 86, 0
1, 126600, Note_on_c, 0, 82, 64
1, 126600, Note_on_c, 1, 63, 0
1, 126600, Note_on_c, 1, 62, 64
1, 126660, Note_on_c, 0, 82, 0
1, 126660, Note_on_c, 0, 84, 64
1, 126720, Note_on_c, 0, 84, 0
1, 126720, Note_on_c, 0, 81, 64
1, 126720, Note_on_c, 1, 62, 0
1, 126720, Note_on_c, 1, 60, 64
1, 126780, Note_on_c, 0, 81, 0
1, 126780, Note_on_c, 0, 82, 64
1, 126840, Note_on_c, 0, 82, 0
1, 126840, Note_on_c, 0, 79, 64
1, 126840, Note_on_c, 1, 60, 0
1, 126840, Note_on_c, 1, 58, 64
1, 126900, Note_on_c, 0, 79, 0
1, 126900, Note_on_c, 0, 81, 64
1, 126960, Note_on_c, 0, 81, 0
1, 126960, Note_on_c, 0, 77, 64
1, 126960, Note_on_c, 1, 58, 0
1, 126960, Note_on_c, 1, 57, 64
1, 127020, Note_on_c, 0, 77, 0
1, 127020, Note_on_c, 0, 79, 64
1, 127080, Note_on_c, 0, 79, 0
1, 127080, Note_on_c, 0, 75, 64
1, 127080, Note_on_c, 1, 57, 0
1, 127080, Note_on_c, 1, 53, 64
1, 127140, Note_on_c, 0, 75, 0
1, 127140, Note_on_c, 0, 77, 64
1, 127200, Note_on_c, 0, 77, 0
1, 127200, Note_on_c, 0, 74, 64
1, 127200, Note_on_c, 1, 53, 0
1, 127200, Note_on_c, 1, 58, 64
1, 127260, Note_on_c, 0, 74, 0
1, 127260, Note_on_c, 0, 75, 64
1, 127320, Note_on_c, 0, 75, 0
1, 127320, Note_on_c, 0, 77, 64
1, 127380, Note_on_c, 0, 77, 0
1, 127380, Note_on_c, 0, 79, 64
1, 127440, Note_on_c, 0, 79, 0
1, 127440, Note_on_c, 0, 81, 64
1, 127440, Note_on_c, 1, 58, 0
1, 127440, Note_on_c, 1, 50, 64
1, 127500, Note_on_c, 0, 81, 0
1, 127500, Note_on_c, 0, 82, 64
1, 127560, Note_on_c, 0, 82, 0
1, 127560, Note_on_c, 0, 81, 64
1, 127620, Note_on_c, 0, 81, 0
1, 127620, Note_on_c, 0, 82, 64
1, 127680, Note_on_c, 0, 82, 0
1, 127680, Note_on_c, 0, 84, 64
1, 127680, Note_on_c, 1, 50, 0
1, 127680, Note_on_c, 1, 51, 64
1, 127740, Note_on_c, 0, 84, 0
1, 127740, Note_on_c, 0, 82, 64
1, 127800, Note_on_c, 0, 82, 0
1, 127800, Note_on_c, 0, 81, 64
1, 127860, Note_on_c, 0, 81, 0
1, 127860, Note_on_c, 0, 79, 64
1, 127920, Note_on_c, 0, 79, 0
1, 127920, Note_on_c, 0, 81, 64
1, 127920, Note_on_c, 1, 51, 0
1, 127920, Note_on_c, 1, 63, 64
1, 127980, Note_on_c, 0, 81, 0
1, 127980, Note_on_c, 0, 79, 64
1, 128040, Note_on_c, 0, 79, 0
1, 128040, Note_on_c, 0, 77, 64
1, 128100, Note_on_c, 0, 77, 0
1, 128100, Note_on_c, 0, 75, 64
1, 128160, Note_on_c, 0, 75, 0
1, 128160, Note_on_c, 0, 74, 64
1, 128160, Note_on_c, 1, 63, 0
1, 128160, Note_on_c, 1, 65, 64
1, 128400, Note_on_c, 0, 74, 0
1, 128400, Note_on_c, 0, 72, 64
1, 128400, Note_on_c, 0, 69, 64
1, 128400, Note_on_c, 1, 65, 0
1, 128400, Note_on_c, 1, 53, 64
1, 128440, Note_on_c, 0, 72, 0
1, 128440, Note_on_c, 0, 74, 64
1, 128480, Note_on_c, 0, 74, 0
1, 128480, Note_on_c, 0, 72, 64
1, 128520, Note_on_c, 0, 72, 0
1, 128520, Note_on_c, 0, 74, 64
1, 128550, Note_on_c, 0, 74, 0
1, 128550, Note_on_c, 0, 72, 64
1, 128580, Note_on_c, 0, 72, 0
1, 128580, Note_on_c, 0, 70, 64
1, 128610, Note_on_c, 0, 70, 0
1, 128610, Note_on_c, 0, 72, 64
1, 128640, Note_on_c, 0, 72, 0
1, 128640, Note_on_c, 0, 69, 0
1, 128640, Note_on_c, 0, 70, 64
1, 128640, Note_on_c, 1, 53, 0
1, 128640, Note_on_c, 1, 58, 64
1, 128700, Note_on_c, 1, 58, 0
1, 128700, Note_on_c, 1, 65, 64
1, 128760, Note_on_c, 1, 65, 0
1, 128760, Note_on_c, 1, 64, 64
1, 128820, Note_on_c, 1, 64, 0
1, 128820, Note_on_c, 1, 65, 64
1, 128880, Note_on_c, 0, 70, 0
1, 128880, Note_on_c, 1, 65, 0
1, 128880, Note_on_c, 1, 67, 64
1, 128940, Note_on_c, 1, 67, 0
1, 128940, Note_on_c, 1, 65, 64
1, 129000, Note_on_c, 1, 65, 0
1, 129000, Note_on_c, 1, 64, 64
1, 129060, Note_on_c, 1, 64, 0
1, 129060, Note_on_c, 1, 65, 64
1, 129120, Note_on_c, 1, 65, 0
1, 129120, Note_on_c, 1, 63, 64
1, 129180, Note_on_c, 1, 63, 0
1, 129180, Note_on_c, 1, 65, 64
1, 129240, Note_on_c, 1, 65, 0
1, 129240, Note_on_c, 1, 62, 64
1, 129300, Note_on_c, 1, 62, 0
1, 129300, Note_on_c, 1, 65, 64
1, 129360, Note_on_c, 1, 65, 0
1, 129360, Note_on_c, 1, 60, 64
1, 129420, Note_on_c, 1, 60, 0
1, 129420, Note_on_c, 1, 65, 64
1, 129480, Note_on_c, 1, 65, 0
1, 129480, Note_on_c, 1, 58, 64
1, 129540, Note_on_c, 1, 58, 0
1, 129540, Note_on_c, 1, 65, 64
1, 129600, Note_on_c, 0, 75, 64
1, 129600, Note_on_c, 1, 65, 0
1, 129600, Note_on_c, 1, 57, 64
1, 129660, Note_on_c, 1, 57, 0
1, 129660, Note_on_c, 1, 65, 64
1, 129720, Note_on_c, 0, 75, 0
1, 129720, Note_on_c, 0, 72, 64
1, 129720, Note_on_c, 1, 65, 0
1, 129720, Note_on_c, 1, 60, 64
1, 129780, Note_on_c, 1, 60, 0
1, 129780, Note_on_c, 1, 65, 64
1, 129840, Note_on_c, 0, 72, 0
1, 129840, Note_on_c, 0, 69, 64
1, 129840, Note_on_c, 1, 65, 0
1, 129840, Note_on_c, 1, 63, 64
1, 129900, Note_on_c, 1, 63, 0
1, 129900, Note_on_c, 1, 65, 64
1, 129960, Note_on_c, 0, 69, 0
1, 129960, Note_on_c, 0, 69, 64
1, 129960, Note_on_c, 1, 65, 0
1, 129960, Note_on_c, 1, 63, 64
1, 130020, Note_on_c, 1, 63, 0
1, 130020, Note_on_c, 1, 65, 64
1, 130080, Note_on_c, 0, 69, 0
1, 130080, Note_on_c, 0, 75, 64
1, 130080, Note_on_c, 1, 65, 0
1, 130080, Note_on_c, 1, 57, 64
1, 130140, Note_on_c, 1, 57, 0
1, 130140, Note_on_c, 1, 65, 64
1, 130200, Note_on_c, 0, 75, 0
1, 130200, Note_on_c, 0, 72, 64
1, 130200, Note_on_c, 1, 65, 0
1, 130200, Note_on_c, 1, 60, 64
1, 130260, Note_on_c, 1, 60, 0
1, 130260, Note_on_c, 1, 65, 64
1, 130320, Note_on_c, 0, 72, 0
1, 130320, Note_on_c, 0, 69, 64
1, 130320, Note_on_c, 1, 65, 0
1, 130320, Note_on_c, 1, 63, 64
1, 130380, Note_on_c, 1, 63, 0
1, 130380, Note_on_c, 1, 65, 64
1, 130440, Note_on_c, 0, 69, 0
1, 130440, Note_on_c, 0, 69, 64
1, 130440, Note_on_c, 1, 65, 0
1, 130440, Note_on_c, 1, 63, 64
1, 130500, Note_on_c, 1, 63, 0
1, 130500, Note_on_c, 1, 65, 64
1, 130560, Note_on_c, 0, 69, 0
1, 130560, Note_on_c, 0, 70, 64
1, 130560, Note_on_c, 1, 65, 0
1, 130560, Note_on_c, 1, 62, 64
1, 130620, Note_on_c, 1, 62, 0
1, 130620, Note_on_c, 1, 65, 64
1, 130680, Note_on_c, 0, 70, 0
1, 130680, Note_on_c, 0, 72, 64
1, 130680, Note_on_c, 1, 65, 0
1, 130680, Note_on_c, 1, 57, 64
1, 130740, Note_on_c, 1, 57, 0
1, 130740, Note_on_c, 1, 65, 64
1, 130800, Note_on_c, 0, 72, 0
1, 130800, Note_on_c, 0, 74, 64
1, 130800, Note_on_c, 1, 65, 0
1, 130800, Note_on_c, 1, 58, 64
1, 130860, Note_on_c, 1, 58, 0
1, 130860, Note_on_c, 1, 65, 64
1, 130920, Note_on_c, 0, 74, 0
1, 130920, Note_on_c, 0, 75, 64
1, 130920, Note_on_c, 1, 65, 0
1, 130920, Note_on_c, 1, 60, 64
1, 130980, Note_on_c, 1, 60, 0
1, 130980, Note_on_c, 1, 65, 64
1, 131040, Note_on_c, 0, 75, 0
1, 131040, Note_on_c, 0, 76, 64
1, 131040, Note_on_c, 1, 65, 0
1, 131040, Note_on_c, 1, 61, 64
1, 131100, Note_on_c, 1, 61, 0
1, 131100, Note_on_c, 1, 65, 64
1, 131160, Note_on_c, 0, 76, 0
1, 131160, Note_on_c, 0, 77, 64
1, 131160, Note_on_c, 1, 65, 0
1, 131160, Note_on_c, 1, 62, 64
1, 131220, Note_on_c, 1, 62, 0
1, 131220, Note_on_c, 1, 65, 64
1, 131280, Note_on_c, 0, 77, 0
1, 131280, Note_on_c, 0, 76, 64
1, 131280, Note_on_c, 1, 65, 0
1, 131280, Note_on_c, 1, 61, 64
1, 131340, Note_on_c, 1, 61, 0
1, 131340, Note_on_c, 1, 65, 64
1, 131400, Note_on_c, 0, 76, 0
1, 131400, Note_on_c, 0, 77, 64
1, 131400, Note_on_c, 1, 65, 0
1, 131400, Note_on_c, 1, 62, 64
1, 131460, Note_on_c, 1, 62, 0
1, 131460, Note_on_c, 1, 65, 64
1, 131520, Note_on_c, 0, 77, 0
1, 131520, Note_on_c, 0, 75, 64
1, 131520, Note_on_c, 0, 87, 64
1, 131520, Note_on_c, 1, 65, 0
1, 131520, Note_on_c, 1, 57, 64
1, 131580, Note_on_c, 1, 57, 0
1, 131580, Note_on_c, 1, 65, 64
1, 131640, Note_on_c, 0, 87, 0
1, 131640, Note_on_c, 0, 75, 0
1, 131640, Note_on_c, 0, 84, 64
1, 131640, Note_on_c, 0, 72, 64
1, 131640, Note_on_c, 1, 65, 0
1, 131640, Note_on_c, 1, 60, 64
1, 131700, Note_on_c, 1, 60, 0
1, 131700, Note_on_c, 1, 65, 64
1, 131760, Note_on_c, 0, 72, 0
1, 131760, Note_on_c, 0, 84, 0
1, 131760, Note_on_c, 0, 81, 64
1, 131760, Note_on_c, 0, 69, 64
1, 131760, Note_on_c, 1, 65, 0
1, 131760, Note_on_c, 1, 63, 64
1, 131820, Note_on_c, 1, 63, 0
1, 131820, Note_on_c, 1, 65, 64
1, 131880, Note_on_c, 0, 69, 0
1, 131880, Note_on_c, 0, 81, 0
1, 131880, Note_on_c, 0, 69, 64
1, 131880, Note_on_c, 0, 81, 64
1, 131880, Note_on_c, 1, 65, 0
1, 131880, Note_on_c, 1, 63, 64
1, 131940, Note_on_c, 1, 63, 0
1, 131940, Note_on_c, 1, 65, 64
1, 132000, Note_on_c, 0, 81, 0
1, 132000, Note_on_c, 0, 69, 0
1, 132000, Note_on_c, 0, 87, 64
1, 132000, Note_on_c, 0, 75, 64
1, 132000, Note_on_c, 1, 65, 0
1, 132000, Note_on_c, 1, 57, 64
1, 132060, Note_on_c, 1, 57, 0
1, 132060, Note_on_c, 1, 65, 64
1, 132120, Note_on_c, 0, 75, 0
1, 132120, Note_on_c, 0, 87, 0
1, 132120, Note_on_c, 0, 72, 64
1, 132120, Note_on_c, 0, 84, 64
1, 132120, Note_on_c, 1, 65, 0
1, 132120, Note_on_c, 1, 60, 64
1, 132180, Note_on_c, 1, 60, 0
1, 132180, Note_on_c, 1, 65, 64
1, 132240, Note_on_c, 0, 84, 0
1, 132240, Note_on_c, 0, 72, 0
1, 132240, Note_on_c, 0, 81, 64
1, 132240, Note_on_c, 0, 69, 64
1, 132240, Note_on_c, 1, 65, 0
1, 132240, Note_on_c, 1, 63, 64
1, 132300, Note_on_c, 1, 63, 0
1, 132300, Note_on_c, 1, 65, 64
1, 132360, Note_on_c, 0, 69, 0
1, 132360, Note_on_c, 0, 81, 0
1, 132360, Note_on_c, 0, 69, 64
1, 132360, Note_on_c, 0, 81, 64
1, 132360, Note_on_c, 1, 65, 0
1, 132360, Note_on_c, 1, 63, 64
1, 132420, Note_on_c, 1, 63, 0
1, 132420, Note_on_c, 1, 65, 64
1, 132480, Note_on_c, 0, 81, 0
1, 132480, Note_on_c, 0, 69, 0
1, 132480, Note_on_c, 0, 82, 64
1, 132480, Note_on_c, 0, 70, 64
1, 132480, Note_on_c, 1, 65, 0
1, 132480, Note_on_c, 1, 62, 64
1, 132540, Note_on_c, 1, 62, 0
1, 132540, Note_on_c, 1, 65, 64
1, 132600, Note_on_c, 0, 70, 0
1, 132600, Note_on_c, 0, 82, 0
1, 132600, Note_on_c, 0, 72, 64
1, 132600, Note_on_c, 0, 84, 64
1, 132600, Note_on_c, 1, 65, 0
1, 132600, Note_on_c, 1, 57, 64
1, 132660, Note_on_c, 1, 57, 0
1, 132660, Note_on_c, 1, 65, 64
1, 132720, Note_on_c, 0, 84, 0
1, 132720, Note_on_c, 0, 72, 0
1, 132720, Note_on_c, 0, 86, 64
1, 132720, Note_on_c, 0, 74, 64
1, 132720, Note_on_c, 1, 65, 0
1, 132720, Note_on_c, 1, 58, 64
1, 132780, Note_on_c, 1, 58, 0
1, 132780, Note_on_c, 1, 65, 64
1, 132840, Note_on_c, 0, 74, 0
1, 132840, Note_on_c, 0, 86, 0
1, 132840, Note_on_c, 0, 75, 64
1, 132840, Note_on_c, 0, 87, 64
1, 132840, Note_on_c, 1, 65, 0
1, 132840, Note_on_c, 1, 60, 64
1, 132900, Note_on_c, 1, 60, 0
1, 132900, Note_on_c, 1, 65, 64
1, 132960, Note_on_c, 0, 87, 0
1, 132960, Note_on_c, 0, 75, 0
1, 132960, Note_on_c, 0, 88, 64
1, 132960, Note_on_c, 0, 76, 64
1, 132960, Note_on_c, 1, 65, 0
1, 132960, Note_on_c, 1, 61, 64
1, 133020, Note_on_c, 1, 61, 0
1, 133020, Note_on_c, 1, 65, 64
1, 133080, Note_on_c, 0, 76, 0
1, 133080, Note_on_c, 0, 88, 0
1, 133080, Note_on_c, 0, 77, 64
1, 133080, Note_on_c, 0, 89, 64
1, 133080, Note_on_c, 1, 65, 0
1, 133080, Note_on_c, 1, 62, 64
1, 133140, Note_on_c, 1, 62, 0
1, 133140, Note_on_c, 1, 65, 64
1, 133200, Note_on_c, 0, 89, 0
1, 133200, Note_on_c, 0, 77, 0
1, 133200, Note_on_c, 0, 88, 64
1, 133200, Note_on_c, 0, 76, 64
1, 133200, Note_on_c, 1, 65, 0
1, 133200, Note_on_c, 1, 61, 64
1, 133260, Note_on_c, 1, 61, 0
1, 133260, Note_on_c, 1, 65, 64
1, 133320, Note_on_c, 0, 76, 0
1, 133320, Note_on_c, 0, 88, 0
1, 133320, Note_on_c, 0, 77, 64
1, 133320, Note_on_c, 0, 89, 64
1, 133320, Note_on_c, 1, 65, 0
1, 133320, Note_on_c, 1, 62, 64
1, 133380, Note_on_c, 1, 62, 0
1, 133380, Note_on_c, 1, 65, 64
1, 133440, Note_on_c, 0, 89, 0
1, 133440, Note_on_c, 0, 77, 0
1, 133440, Note_on_c, 0, 79, 64
1, 133440, Note_on_c, 0, 91, 64
1, 133440, Note_on_c, 1, 65, 0
1, 133560, Note_on_c, 1, 51, 64
1, 133680, Note_on_c, 1, 51, 0
1, 133680, Note_on_c, 1, 50, 64
1, 133800, Note_on_c, 1, 50, 0
1, 133800, Note_on_c, 1, 51, 64
1, 133920, Note_on_c, 0, 91, 0
1, 133920, Note_on_c, 0, 79, 0
1, 133920, Note_on_c, 0, 69, 64
1, 133920, Note_on_c, 0, 81, 64
1, 133920, Note_on_c, 1, 51, 0
1, 134040, Note_on_c, 1, 53, 64
1, 134160, Note_on_c, 1, 53, 0
1, 134160, Note_on_c, 1, 52, 64
1, 134280, Note_on_c, 1, 52, 0
1, 134280, Note_on_c, 1, 53, 64
1, 134400, Note_on_c, 0, 81, 0
1, 134400, Note_on_c, 0, 69, 0
1, 134400, Note_on_c, 0, 87, 64
1, 134400, Note_on_c, 0, 75, 64
1, 134400, Note_on_c, 1, 53, 0
1, 134520, Note_on_c, 1, 54, 64
1, 134640, Note_on_c, 1, 54, 0
1, 134640, Note_on_c, 1, 52, 64
1, 134760, Note_on_c, 1, 52, 0
1, 134760, Note_on_c, 1, 54, 64
1, 134880, Note_on_c, 0, 75, 0
1, 134880, Note_on_c, 0, 87, 0
1, 134880, Note_on_c, 0, 86, 64
1, 134880, Note_on_c, 0, 74, 64
1, 134880, Note_on_c, 1, 54, 0
1, 135000, Note_on_c, 1, 55, 64
1, 135120, Note_on_c, 1, 55, 0
1, 135120, Note_on_c, 1, 54, 64
1, 135240, Note_on_c, 1, 54, 0
1, 135240, Note_on_c, 1, 55, 64
1, 135360, Note_on_c, 0, 74, 0
1, 135360, Note_on_c, 0, 86, 0
1, 135360, Note_on_c, 0, 86, 64
1, 135360, Note_on_c, 1, 55, 0
1, 135420, Note_on_c, 0, 86, 0
1, 135420, Note_on_c, 0, 84, 64
1, 135480, Note_on_c, 0, 84, 0
1, 135480, Note_on_c, 0, 87, 64
1, 135540, Note_on_c, 0, 87, 0
1, 135540, Note_on_c, 0, 86, 64
1, 135600, Note_on_c, 0, 86, 0
1, 135600, Note_on_c, 0, 89, 64
1, 135600, Note_on_c, 1, 63, 64
1, 135600, Note_on_c, 1, 72, 64
1, 135660, Note_on_c, 0, 89, 0
1, 135660, Note_on_c, 0, 87, 64
1, 135720, Note_on_c, 0, 87, 0
1, 135720, Note_on_c, 0, 86, 64
1, 135780, Note_on_c, 0, 86, 0
1, 135780, Note_on_c, 0, 84, 64
1, 135840, Note_on_c, 0, 84, 0
1, 135840, Note_on_c, 0, 82, 64
1, 135840, Note_on_c, 1, 72, 0
1, 135840, Note_on_c, 1, 63, 0
1, 135840, Note_on_c, 1, 74, 64
1, 135840, Note_on_c, 1, 65, 64
1, 136080, Note_on_c, 0, 82, 0
1, 136080, Note_on_c, 0, 81, 64
1, 136080, Note_on_c, 1, 74, 0
1, 136080, Note_on_c, 1, 75, 64
1, 136320, Note_on_c, 0, 81, 0
1, 136320, Note_on_c, 1, 75, 0
1, 136320, Note_on_c, 1, 65, 0
1, 136320, Note_on_c, 1, 74, 64
1, 136320, Note_on_c, 1, 77, 64
1, 136440, Note_on_c, 0, 82, 64
1, 136560, Note_on_c, 0, 82, 0
1, 136560, Note_on_c, 0, 81, 64
1, 136680, Note_on_c, 0, 81, 0
1, 136680, Note_on_c, 0, 82, 64
1, 136800, Note_on_c, 0, 82, 0
1, 136800, Note_on_c, 1, 77, 0
1, 136800, Note_on_c, 1, 74, 0
1, 136800, Note_on_c, 1, 77, 64
1, 136800, Note_on_c, 1, 74, 64
1, 136920, Note_on_c, 0, 80, 64
1, 137040, Note_on_c, 0, 80, 0
1, 137040, Note_on_c, 0, 79, 64
1, 137160, Note_on_c, 0, 79, 0
1, 137160, Note_on_c, 0, 80, 64
1, 137280, Note_on_c, 0, 80, 0
1, 137280, Note_on_c, 1, 74, 0
1, 137280, Note_on_c, 1, 77, 0
1, 137280, Note_on_c, 1, 71, 64
1, 137280, Note_on_c, 1, 74, 64
1, 137280, Note_on_c, 1, 77, 64
1, 137400, Note_on_c, 0, 79, 64
1, 137520, Note_on_c, 0, 79, 0
1, 137520, Note_on_c, 0, 78, 64
1, 137640, Note_on_c, 0, 78, 0
1, 137640, Note_on_c, 0, 79, 64
1, 137760, Note_on_c, 0, 79, 0
1, 137760, Note_on_c, 1, 77, 0
1, 137760, Note_on_c, 1, 74, 0
1, 137760, Note_on_c, 1, 71, 0
1, 137760, Note_on_c, 1, 72, 64
1, 137760, Note_on_c, 1, 75, 64
1, 137880, Note_on_c, 0, 79, 64
1, 138000, Note_on_c, 0, 79, 0
1, 138000, Note_on_c, 0, 87, 64
1, 138120, Note_on_c, 0, 87, 0
1, 138120, Note_on_c, 0, 87, 64
1, 138240, Note_on_c, 0, 87, 0
1, 138240, Note_on_c, 1, 75, 0
1, 138240, Note_on_c, 1, 72, 0
1, 138240, Note_on_c, 1, 69, 64
1, 138240, Note_on_c, 1, 72, 64
1, 138240, Note_on_c, 1, 75, 64
1, 138360, Note_on_c, 0, 87, 64
1, 138480, Note_on_c, 0, 87, 0
1, 138480, Note_on_c, 0, 77, 64
1, 138600, Note_on_c, 0, 77, 0
1, 138600, Note_on_c, 0, 77, 64
1, 138720, Note_on_c, 0, 77, 0
1, 138720, Note_on_c, 1, 75, 0
1, 138720, Note_on_c, 1, 72, 0
1, 138720, Note_on_c, 1, 69, 0
1, 138720, Note_on_c, 1, 70, 64
1, 138720, Note_on_c, 1, 74, 64
1, 138840, Note_on_c, 0, 77, 64
1, 138960, Note_on_c, 0, 77, 0
1, 138960, Note_on_c, 0, 86, 64
1, 139080, Note_on_c, 0, 86, 0
1, 139080, Note_on_c, 0, 86, 64
1, 139200, Note_on_c, 0, 86, 0
1, 139200, Note_on_c, 1, 74, 0
1, 139200, Note_on_c, 1, 70, 0
1, 139200, Note_on_c, 1, 67, 64
1, 139200, Note_on_c, 1, 70, 64
1, 139200, Note_on_c, 1, 74, 64
1, 139320, Note_on_c, 0, 86, 64
1, 139440, Note_on_c, 0, 86, 0
1, 139440, Note_on_c, 0, 75, 64
1, 139560, Note_on_c, 0, 75, 0
1, 139560, Note_on_c, 0, 75, 64
1, 139680, Note_on_c, 0, 75, 0
1, 139680, Note_on_c, 1, 74, 0
1, 139680, Note_on_c, 1, 70, 0
1, 139680, Note_on_c, 1, 67, 0
1, 139680, Note_on_c, 1, 69, 64
1, 139680, Note_on_c, 1, 72, 64
1, 139800, Note_on_c, 0, 75, 64
1, 139920, Note_on_c, 0, 75, 0
1, 139920, Note_on_c, 0, 84, 64
1, 140040, Note_on_c, 0, 84, 0
1, 140040, Note_on_c, 0, 84, 64
1, 140160, Note_on_c, 0, 84, 0
1, 140160, Note_on_c, 1, 72, 0
1, 140160, Note_on_c, 1, 69, 0
1, 140160, Note_on_c, 1, 66, 64
1, 140160, Note_on_c, 1, 69, 64
1, 140160, Note_on_c, 1, 72, 64
1, 140280, Note_on_c, 0, 84, 64
1, 140400, Note_on_c, 0, 84, 0
1, 140400, Note_on_c, 0, 74, 64
1, 140520, Note_on_c, 0, 74, 0
1, 140520, Note_on_c, 0, 74, 64
1, 140640, Note_on_c, 0, 74, 0
1, 140640, Note_on_c, 1, 72, 0
1, 140640, Note_on_c, 1, 69, 0
1, 140640, Note_on_c, 1, 66, 0
1, 140640, Note_on_c, 1, 67, 64
1, 140640, Note_on_c, 1, 70, 64
1, 140760, Note_on_c, 0, 74, 64
1, 140880, Note_on_c, 0, 74, 0
1, 140880, Note_on_c, 0, 82, 64
1, 141000, Note_on_c, 0, 82, 0
1, 141000, Note_on_c, 0, 82, 64
1, 141120, Note_on_c, 0, 82, 0
1, 141120, Note_on_c, 0, 82, 64
1, 141120, Note_on_c, 1, 70, 0
1, 141120, Note_on_c, 1, 67, 0
1, 141240, Note_on_c, 0, 82, 0
1, 141240, Note_on_c, 0, 72, 64
1, 141240, Note_on_c, 1, 64, 64
1, 141240, Note_on_c, 1, 70, 64
1, 141360, Note_on_c, 0, 72, 0
1, 141360, Note_on_c, 1, 70, 0
1, 141360, Note_on_c, 1, 64, 0
1, 141360, Note_on_c, 1, 70, 64
1, 141360, Note_on_c, 1, 64, 64
1, 141480, Note_on_c, 1, 64, 0
1, 141480, Note_on_c, 1, 70, 0
1, 141480, Note_on_c, 1, 64, 64
1, 141480, Note_on_c, 1, 70, 64
1, 141600, Note_on_c, 0, 82, 64
1, 141600, Note_on_c, 1, 70, 0
1, 141600, Note_on_c, 1, 64, 0
1, 141720, Note_on_c, 0, 82, 0
1, 141720, Note_on_c, 0, 74, 64
1, 141720, Note_on_c, 1, 65, 64
1, 141720, Note_on_c, 1, 70, 64
1, 141840, Note_on_c, 0, 74, 0
1, 141840, Note_on_c, 1, 70, 0
1, 141840, Note_on_c, 1, 65, 0
1, 141840, Note_on_c, 1, 70, 64
1, 141840, Note_on_c, 1, 65, 64
1, 141960, Note_on_c, 1, 65, 0
1, 141960, Note_on_c, 1, 70, 0
1, 141960, Note_on_c, 1, 65, 64
1, 141960, Note_on_c, 1, 70, 64
1, 142080, Note_on_c, 0, 82, 64
1, 142080, Note_on_c, 1, 70, 0
1, 142080, Note_on_c, 1, 65, 0
1, 142200, Note_on_c, 0, 82, 0
1, 142200, Note_on_c, 0, 75, 64
1, 142200, Note_on_c, 1, 67, 64
1, 142200, Note_on_c, 1, 70, 64
1, 142320, Note_on_c, 0, 75, 0
1, 142320, Note_on_c, 1, 70, 0
1, 142320, Note_on_c, 1, 67, 0
1, 142320, Note_on_c, 1, 70, 64
1, 142320, Note_on_c, 1, 67, 64
1, 142440, Note_on_c, 1, 67, 0
1, 142440, Note_on_c, 1, 70, 0
1, 142440, Note_on_c, 1, 67, 64
1, 142440, Note_on_c, 1, 70, 64
1, 142560, Note_on_c, 0, 82, 64
1, 142560, Note_on_c, 1, 70, 0
1, 142560, Note_on_c, 1, 67, 0
1, 142680, Note_on_c, 0, 82, 0
1, 142680, Note_on_c, 0, 76, 64
1, 142680, Note_on_c, 1, 66, 64
1, 142680, Note_on_c, 1, 70, 64
1, 142800, Note_on_c, 0, 76, 0
1, 142800, Note_on_c, 1, 70, 0
1, 142800, Note_on_c, 1, 66, 0
1, 142800, Note_on_c, 1, 70, 64
1, 142800, Note_on_c, 1, 66, 64
1, 142920, Note_on_c, 1, 66, 0
1, 142920, Note_on_c, 1, 70, 0
1, 142920, Note_on_c, 1, 66, 64
1, 142920, Note_on_c, 1, 70, 64
1, 143040, Note_on_c, 0, 82, 64
1, 143040, Note_on_c, 1, 70, 0
1, 143040, Note_on_c, 1, 66, 0
1, 143040, Note_on_c, 1, 65, 64
1, 143040, Note_on_c, 1, 70, 64
1, 143160, Note_on_c, 0, 82, 0
1, 143160, Note_on_c, 0, 77, 64
1, 143280, Note_on_c, 0, 77, 0
1, 143280, Note_on_c, 0, 82, 64
1, 143280, Note_on_c, 1, 70, 0
1, 143280, Note_on_c, 1, 65, 0
1, 143280, Note_on_c, 1, 62, 64
1, 143280, Note_on_c, 1, 70, 64
1, 143400, Note_on_c, 0, 82, 0
1, 143400, Note_on_c, 0, 78, 64
1, 143520, Note_on_c, 0, 78, 0
1, 143520, Note_on_c, 0, 82, 64
1, 143520, Note_on_c, 1, 70, 0
1, 143520, Note_on_c, 1, 62, 0
1, 143520, Note_on_c, 1, 63, 64
1, 143520, Note_on_c, 1, 70, 64
1, 143640, Note_on_c, 0, 82, 0
1, 143640, Note_on_c, 0, 79, 64
1, 143760, Note_on_c, 0, 79, 0
1, 143760, Note_on_c, 0, 87, 64
1, 143760, Note_on_c, 1, 70, 0
1, 143760, Note_on_c, 1, 63, 0
1, 143760, Note_on_c, 1, 60, 64
1, 143760, Note_on_c, 1, 65, 64
1, 143880, Note_on_c, 0, 87, 0
1, 143880, Note_on_c, 0, 81, 64
1, 144000, Note_on_c, 0, 81, 0
1, 144000, Note_on_c, 0, 87, 64
1, 144000, Note_on_c, 1, 65, 0
1, 144000, Note_on_c, 1, 60, 0
1, 144000, Note_on_c, 1, 58, 64
1, 144000, Note_on_c, 1, 65, 64
1, 144030, Note_on_c, 0, 87, 0
1, 144030, Note_on_c, 0, 86, 64
1, 144060, Note_on_c, 0, 86, 0
1, 144060, Note_on_c, 0, 87, 64
1, 144090, Note_on_c, 0, 87, 0
1, 144090, Note_on_c, 0, 86, 64
1, 144120, Note_on_c, 0, 86, 0
1, 144120, Note_on_c, 0, 89, 64
1, 144240, Note_on_c, 0, 89, 0
1, 144240, Note_on_c, 0, 84, 64
1, 144240, Note_on_c, 1, 65, 0
1, 144240, Note_on_c, 1, 58, 0
1, 144240, Note_on_c, 1, 50, 64
1, 144240, Note_on_c, 1, 53, 64
1, 144270, Note_on_c, 0, 84, 0
1, 144270, Note_on_c, 0, 82, 64
1, 144300, Note_on_c, 0, 82, 0
1, 144300, Note_on_c, 0, 84, 64
1, 144330, Note_on_c, 0, 84, 0
1, 144330, Note_on_c, 0, 82, 64
1, 144360, Note_on_c, 0, 82, 0
1, 144360, Note_on_c, 0, 86, 64
1, 144480, Note_on_c, 0, 86, 0
1, 144480, Note_on_c, 0, 81, 64
1, 144480, Note_on_c, 1, 53, 0
1, 144480, Note_on_c, 1, 50, 0
1, 144480, Note_on_c, 1, 51, 64
1, 144480, Note_on_c, 1, 58, 64
1, 144510, Note_on_c, 0, 81, 0
1, 144510, Note_on_c, 0, 79, 64
1, 144540, Note_on_c, 0, 79, 0
1, 144540, Note_on_c, 0, 81, 64
1, 144570, Note_on_c, 0, 81, 0
1, 144570, Note_on_c, 0, 79, 64
1, 144600, Note_on_c, 0, 79, 0
1, 144600, Note_on_c, 0, 82, 64
1, 144720, Note_on_c, 0, 82, 0
1, 144720, Note_on_c, 0, 74, 64
1, 144720, Note_on_c, 1, 58, 0
1, 144720, Note_on_c, 1, 51, 0
1, 144720, Note_on_c, 1, 55, 64
1, 144720, Note_on_c, 1, 51, 64
1, 144750, Note_on_c, 0, 74, 0
1, 144750, Note_on_c, 0, 72, 64
1, 144780, Note_on_c, 0, 72, 0
1, 144780, Note_on_c, 0, 74, 64
1, 144810, Note_on_c, 0, 74, 0
1, 144810, Note_on_c, 0, 72, 64
1, 144840, Note_on_c, 0, 72, 0
1, 144840, Note_on_c, 0, 75, 64
1, 144960, Note_on_c, 0, 75, 0
1, 144960, Note_on_c, 0, 65, 64
1, 144960, Note_on_c, 1, 51, 0
1, 144960, Note_on_c, 1, 55, 0
1, 145020, Note_on_c, 0, 65, 0
1, 145020, Note_on_c, 0, 77, 64
1, 145080, Note_on_c, 0, 77, 0
1, 145080, Note_on_c, 0, 79, 64
1, 145140, Note_on_c, 0, 79, 0
1, 145140, Note_on_c, 0, 77, 64
1, 145200, Note_on_c, 0, 77, 0
1, 145200, Note_on_c, 0, 75, 64
1, 145200, Note_on_c, 1, 50, 64
1, 145200, Note_on_c, 1, 58, 64
1, 145260, Note_on_c, 0, 75, 0
1, 145260, Note_on_c, 0, 74, 64
1, 145320, Note_on_c, 0, 74, 0
1, 145320, Note_on_c, 0, 72, 64
1, 145380, Note_on_c, 0, 72, 0
1, 145380, Note_on_c, 0, 70, 64
1, 145440, Note_on_c, 0, 70, 0
1, 145440, Note_on_c, 0, 74, 64
1, 145440, Note_on_c, 1, 50, 0
1, 145440, Note_on_c, 1, 51, 64
1, 145480, Note_on_c, 0, 74, 0
1, 145480, Note_on_c, 0, 72, 64
1, 145520, Note_on_c, 0, 72, 0
1, 145520, Note_on_c, 0, 74, 64
1, 145560, Note_on_c, 0, 74, 0
1, 145560, Note_on_c, 0, 72, 64
1, 145600, Note_on_c, 0, 72, 0
1, 145600, Note_on_c, 0, 74, 64
1, 145640, Note_on_c, 0, 74, 0
1, 145640, Note_on_c, 0, 72, 64
1, 145680, Note_on_c, 0, 72, 0
1, 145680, Note_on_c, 0, 74, 64
1, 145680, Note_on_c, 1, 51, 0
1, 145680, Note_on_c, 1, 58, 0
1, 145680, Note_on_c, 1, 53, 64
1, 145680, Note_on_c, 1, 57, 64
1, 145720, Note_on_c, 0, 74, 0
1, 145720, Note_on_c, 0, 72, 64
1, 145760, Note_on_c, 0, 72, 0
1, 145760, Note_on_c, 0, 74, 64
1, 145800, Note_on_c, 0, 74, 0
1, 145800, Note_on_c, 0, 72, 64
1, 145840, Note_on_c, 0, 72, 0
1, 145840, Note_on_c, 0, 70, 64
1, 145880, Note_on_c, 0, 70, 0
1, 145880, Note_on_c, 0, 72, 64
1, 145920, Note_on_c, 0, 72, 0
1, 145920, Note_on_c, 0, 70, 64
1, 145920, Note_on_c, 1, 57, 0
1, 145920, Note_on_c, 1, 53, 0
1, 145920, Note_on_c, 1, 46, 64
1, 145920, Note_on_c, 1, 58, 64
1, 146040, Note_on_c, 0, 70, 0
1, 146040, Note_on_c, 0, 58, 64
1, 146040, Note_on_c, 1, 58, 0
1, 146040, Note_on_c, 1, 46, 0
1, 146100, Note_on_c, 0, 58, 0
1, 146100, Note_on_c, 0, 62, 64
1, 146160, Note_on_c, 0, 62, 0
1, 146160, Note_on_c, 0, 60, 64
1, 146160, Note_on_c, 1, 57, 64
1, 146220, Note_on_c, 0, 60, 0
1, 146220, Note_on_c, 0, 63, 64
1, 146280, Note_on_c, 0, 63, 0
1, 146280, Note_on_c, 0, 62, 64
1, 146280, Note_on_c, 1, 57, 0
1, 146280, Note_on_c, 1, 56, 64
1, 146340, Note_on_c, 0, 62, 0
1, 146340, Note_on_c, 0, 65, 64
1, 146400, Note_on_c, 0, 65, 0
1, 146400, Note_on_c, 0, 63, 64
1, 146400, Note_on_c, 1, 56, 0
1, 146400, Note_on_c, 1, 46, 64
1, 146400, Note_on_c, 1, 55, 64
1, 146520, Note_on_c, 0, 63, 0
1, 146520, Note_on_c, 0, 58, 64
1, 146520, Note_on_c, 1, 55, 0
1, 146520, Note_on_c, 1, 46, 0
1, 146580, Note_on_c, 0, 58, 0
1, 146580, Note_on_c, 0, 62, 64
1, 146640, Note_on_c, 0, 62, 0
1, 146640, Note_on_c, 0, 60, 64
1, 146640, Note_on_c, 1, 57, 64
1, 146700, Note_on_c, 0, 60, 0
1, 146700, Note_on_c, 0, 63, 64
1, 146760, Note_on_c, 0, 63, 0
1, 146760, Note_on_c, 0, 62, 64
1, 146760, Note_on_c, 1, 57, 0
1, 146760, Note_on_c, 1, 56, 64
1, 146820, Note_on_c, 0, 62, 0
1, 146820, Note_on_c, 0, 65, 64
1, 146880, Note_on_c, 0, 65, 0
1, 146880, Note_on_c, 0, 63, 64
1, 146880, Note_on_c, 1, 56, 0
1, 146880, Note_on_c, 1, 46, 64
1, 146880, Note_on_c, 1, 55, 64
1, 147000, Note_on_c, 0, 63, 0
1, 147000, Note_on_c, 0, 58, 64
1, 147000, Note_on_c, 1, 55, 0
1, 147000, Note_on_c, 1, 46, 0
1, 147060, Note_on_c, 0, 58, 0
1, 147060, Note_on_c, 0, 62, 64
1, 147120, Note_on_c, 0, 62, 0
1, 147120, Note_on_c, 0, 60, 64
1, 147120, Note_on_c, 1, 57, 64
1, 147180, Note_on_c, 0, 60, 0
1, 147180, Note_on_c, 0, 63, 64
1, 147240, Note_on_c, 0, 63, 0
1, 147240, Note_on_c, 0, 62, 64
1, 147240, Note_on_c, 1, 57, 0
1, 147240, Note_on_c, 1, 56, 64
1, 147300, Note_on_c, 0, 62, 0
1, 147300, Note_on_c, 0, 65, 64
1, 147360, Note_on_c, 0, 65, 0
1, 147360, Note_on_c, 0, 63, 64
1, 147360, Note_on_c, 1, 56, 0
1, 147360, Note_on_c, 1, 55, 64
1, 147420, Note_on_c, 0, 63, 0
1, 147420, Note_on_c, 0, 67, 64
1, 147480, Note_on_c, 0, 67, 0
1, 147480, Note_on_c, 0, 65, 64
1, 147480, Note_on_c, 1, 55, 0
1, 147480, Note_on_c, 1, 50, 64
1, 147540, Note_on_c, 0, 65, 0
1, 147540, Note_on_c, 0, 68, 64
1, 147600, Note_on_c, 0, 68, 0
1, 147600, Note_on_c, 0, 67, 64
1, 147600, Note_on_c, 1, 50, 0
1, 147600, Note_on_c, 1, 51, 64
1, 147660, Note_on_c, 0, 67, 0
1, 147660, Note_on_c, 0, 70, 64
1, 147720, Note_on_c, 0, 70, 0
1, 147720, Note_on_c, 0, 69, 64
1, 147720, Note_on_c, 1, 51, 0
1, 147720, Note_on_c, 1, 48, 64
1, 147780, Note_on_c, 0, 69, 0
1, 147780, Note_on_c, 0, 72, 64
1, 147840, Note_on_c, 0, 72, 0
1, 147840, Note_on_c, 0, 70, 64
1, 147840, Note_on_c, 1, 48, 0
1, 147840, Note_on_c, 1, 50, 64
1, 147900, Note_on_c, 0, 70, 0
1, 147900, Note_on_c, 0, 72, 64
1, 147960, Note_on_c, 0, 72, 0
1, 147960, Note_on_c, 0, 74, 64
1, 148020, Note_on_c, 0, 74, 0
1, 148020, Note_on_c, 0, 72, 64
1, 148080, Note_on_c, 0, 72, 0
1, 148080, Note_on_c, 0, 70, 64
1, 148080, Note_on_c, 1, 50, 0
1, 148140, Note_on_c, 0, 70, 0
1, 148140, Note_on_c, 0, 68, 64
1, 148200, Note_on_c, 0, 68, 0
1, 148200, Note_on_c, 0, 67, 64
1, 148260, Note_on_c, 0, 67, 0
1, 148260, Note_on_c, 0, 66, 64
1, 148320, Note_on_c, 0, 66, 0
1, 148320, Note_on_c, 0, 67, 64
1, 148320, Note_on_c, 1, 51, 64
1, 148380, Note_on_c, 0, 67, 0
1, 148380, Note_on_c, 0, 72, 64
1, 148440, Note_on_c, 0, 72, 0
1, 148440, Note_on_c, 0, 75, 64
1, 148500, Note_on_c, 0, 75, 0
1, 148500, Note_on_c, 0, 74, 64
1, 148560, Note_on_c, 0, 74, 0
1, 148560, Note_on_c, 0, 72, 64
1, 148560, Note_on_c, 1, 51, 0
1, 148620, Note_on_c, 0, 72, 0
1, 148620, Note_on_c, 0, 70, 64
1, 148680, Note_on_c, 0, 70, 0
1, 148680, Note_on_c, 0, 69, 64
1, 148740, Note_on_c, 0, 69, 0
1, 148740, Note_on_c, 0, 67, 64
1, 148800, Note_on_c, 0, 67, 0
1, 148800, Note_on_c, 0, 65, 64
1, 148800, Note_on_c, 1, 53, 64
1, 148860, Note_on_c, 0, 65, 0
1, 148860, Note_on_c, 0, 70, 64
1, 148920, Note_on_c, 0, 70, 0
1, 148920, Note_on_c, 0, 74, 64
1, 148920, Note_on_c, 1, 53, 0
1, 148920, Note_on_c, 1, 58, 64
1, 148980, Note_on_c, 0, 74, 0
1, 148980, Note_on_c, 0, 77, 64
1, 149040, Note_on_c, 0, 77, 0
1, 149040, Note_on_c, 0, 82, 64
1, 149040, Note_on_c, 1, 58, 0
1, 149040, Note_on_c, 1, 62, 64
1, 149160, Note_on_c, 0, 82, 0
1, 149160, Note_on_c, 0, 70, 64
1, 149160, Note_on_c, 0, 74, 64
1, 149160, Note_on_c, 1, 62, 0
1, 149160, Note_on_c, 1, 58, 64
1, 149280, Note_on_c, 0, 74, 0
1, 149280, Note_on_c, 0, 70, 0
1, 149280, Note_on_c, 0, 74, 64
1, 149280, Note_on_c, 0, 77, 64
1, 149280, Note_on_c, 1, 58, 0
1, 149280, Note_on_c, 1, 53, 64
1, 149400, Note_on_c, 0, 77, 0
1, 149400, Note_on_c, 0, 74, 0
1, 149400, Note_on_c, 0, 72, 64
1, 149400, Note_on_c, 0, 75, 64
1, 149400, Note_on_c, 1, 53, 0
1, 149400, Note_on_c, 1, 60, 64
1, 149520, Note_on_c, 0, 75, 0
1, 149520, Note_on_c, 0, 72, 0
1, 149520, Note_on_c, 0, 70, 64
1, 149520, Note_on_c, 0, 74, 64
1, 149520, Note_on_c, 1, 60, 0
1, 149520, Note_on_c, 1, 63, 64
1, 149640, Note_on_c, 0, 74, 0
1, 149640, Note_on_c, 0, 70, 0
1, 149640, Note_on_c, 0, 69, 64
1, 149640, Note_on_c, 0, 72, 64
1, 149640, Note_on_c, 1, 63, 0
1, 149640, Note_on_c, 1, 60, 64
1, 149760, Note_on_c, 0, 72, 0
1, 149760, Note_on_c, 0, 69, 0
1, 149760, Note_on_c, 0, 70, 64
1, 149760, Note_on_c, 1, 60, 0
1, 149760, Note_on_c, 1, 58, 64
1, 149760, Note_on_c, 1, 62, 64
1, 149880, Note_on_c, 0, 70, 0
1, 149880, Note_on_c, 0, 70, 64
1, 149880, Note_on_c, 1, 62, 0
1, 149880, Note_on_c, 1, 58, 0
1, 149940, Note_on_c, 0, 70, 0
1, 149940, Note_on_c, 0, 74, 64
1, 150000, Note_on_c, 0, 74, 0
1, 150000, Note_on_c, 0, 72, 64
1, 150000, Note_on_c, 1, 69, 64
1, 150060, Note_on_c, 0, 72, 0
1, 150060, Note_on_c, 0, 75, 64
1, 150120, Note_on_c, 0, 75, 0
1, 150120, Note_on_c, 0, 74, 64
1, 150120, Note_on_c, 1, 69, 0
1, 150120, Note_on_c, 1, 68, 64
1, 150180, Note_on_c, 0, 74, 0
1, 150180, Note_on_c, 0, 77, 64
1, 150240, Note_on_c, 0, 77, 0
1, 150240, Note_on_c, 0, 75, 64
1, 150240, Note_on_c, 1, 68, 0
1, 150240, Note_on_c, 1, 58, 64
1, 150240, Note_on_c, 1, 67, 64
1, 150360, Note_on_c, 0, 75, 0
1, 150360, Note_on_c, 0, 82, 64
1, 150360, Note_on_c, 1, 67, 0
1, 150360, Note_on_c, 1, 58, 0
1, 150360, Note_on_c, 1, 70, 64
1, 150420, Note_on_c, 0, 82, 0
1, 150420, Note_on_c, 0, 86, 64
1, 150480, Note_on_c, 0, 86, 0
1, 150480, Note_on_c, 0, 84, 64
1, 150480, Note_on_c, 1, 70, 0
1, 150480, Note_on_c, 1, 69, 64
1, 150540, Note_on_c, 0, 84, 0
1, 150540, Note_on_c, 0, 87, 64
1, 150600, Note_on_c, 0, 87, 0
1, 150600, Note_on_c, 0, 86, 64
1, 150600, Note_on_c, 1, 69, 0
1, 150600, Note_on_c, 1, 68, 64
1, 150660, Note_on_c, 0, 86, 0
1, 150660, Note_on_c, 0, 89, 64
1, 150720, Note_on_c, 0, 89, 0
1, 150720, Note_on_c, 0, 87, 64
1, 150720, Note_on_c, 1, 68, 0
1, 150720, Note_on_c, 1, 58, 64
1, 150720, Note_on_c, 1, 67, 64
1, 150840, Note_on_c, 0, 87, 0
1, 150840, Note_on_c, 0, 70, 64
1, 150840, Note_on_c, 1, 67, 0
1, 150840, Note_on_c, 1, 58, 0
1, 150900, Note_on_c, 0, 70, 0
1, 150900, Note_on_c, 0, 74, 64
1, 150960, Note_on_c, 0, 74, 0
1, 150960, Note_on_c, 0, 72, 64
1, 150960, Note_on_c, 1, 69, 64
1, 151020, Note_on_c, 0, 72, 0
1, 151020, Note_on_c, 0, 75, 64
1, 151080, Note_on_c, 0, 75, 0
1, 151080, Note_on_c, 0, 74, 64
1, 151080, Note_on_c, 1, 69, 0
1, 151080, Note_on_c, 1, 68, 64
1, 151140, Note_on_c, 0, 74, 0
1, 151140, Note_on_c, 0, 77, 64
1, 151200, Note_on_c, 0, 77, 0
1, 151200, Note_on_c, 0, 75, 64
1, 151200, Note_on_c, 1, 68, 0
1, 151200, Note_on_c, 1, 67, 64
1, 151260, Note_on_c, 0, 75, 0
1, 151260, Note_on_c, 0, 70, 64
1, 151320, Note_on_c, 0, 70, 0
1, 151320, Note_on_c, 0, 77, 64
1, 151320, Note_on_c, 1, 67, 0
1, 151320, Note_on_c, 1, 62, 64
1, 151380, Note_on_c, 0, 77, 0
1, 151380, Note_on_c, 0, 70, 64
1, 151440, Note_on_c, 0, 70, 0
1, 151440, Note_on_c, 0, 79, 64
1, 151440, Note_on_c, 1, 62, 0
1, 151440, Note_on_c, 1, 63, 64
1, 151500, Note_on_c, 0, 79, 0
1, 151500, Note_on_c, 0, 70, 64
1, 151560, Note_on_c, 0, 70, 0
1, 151560, Note_on_c, 0, 81, 64
1, 151560, Note_on_c, 1, 63, 0
1, 151560, Note_on_c, 1, 60, 64
1, 151620, Note_on_c, 0, 81, 0
1, 151620, Note_on_c, 0, 70, 64
1, 151680, Note_on_c, 0, 70, 0
1, 151680, Note_on_c, 0, 82, 64
1, 151680, Note_on_c, 1, 60, 0
1, 151680, Note_on_c, 1, 50, 64
1, 151680, Note_on_c, 1, 62, 64
1, 151740, Note_on_c, 0, 82, 0
1, 151740, Note_on_c, 0, 84, 64
1, 151800, Note_on_c, 0, 84, 0
1, 151800, Note_on_c, 0, 86, 64
1, 151860, Note_on_c, 0, 86, 0
1, 151860, Note_on_c, 0, 84, 64
1, 151920, Note_on_c, 0, 84, 0
1, 151920, Note_on_c, 0, 82, 64
1, 151920, Note_on_c, 1, 62, 0
1, 151920, Note_on_c, 1, 50, 0
1, 151980, Note_on_c, 0, 82, 0
1, 151980, Note_on_c, 0, 80, 64
1, 152040, Note_on_c, 0, 80, 0
1, 152040, Note_on_c, 0, 79, 64
1, 152100, Note_on_c, 0, 79, 0
1, 152100, Note_on_c, 0, 78, 64
1, 152160, Note_on_c, 0, 78, 0
1, 152160, Note_on_c, 0, 79, 64
1, 152160, Note_on_c, 1, 63, 64
1, 152160, Note_on_c, 1, 51, 64
1, 152220, Note_on_c, 0, 79, 0
1, 152220, Note_on_c, 0, 77, 64
1, 152280, Note_on_c, 0, 77, 0
1, 152280, Note_on_c, 0, 75, 64
1, 152340, Note_on_c, 0, 75, 0
1, 152340, Note_on_c, 0, 74, 64
1, 152400, Note_on_c, 0, 74, 0
1, 152400, Note_on_c, 0, 72, 64
1, 152400, Note_on_c, 1, 51, 0
1, 152400, Note_on_c, 1, 63, 0
1, 152460, Note_on_c, 0, 72, 0
1, 152460, Note_on_c, 0, 70, 64
1, 152520, Note_on_c, 0, 70, 0
1, 152520, Note_on_c, 0, 69, 64
1, 152580, Note_on_c, 0, 69, 0
1, 152580, Note_on_c, 0, 67, 64
1, 152640, Note_on_c, 0, 67, 0
1, 152640, Note_on_c, 0, 65, 64
1, 152640, Note_on_c, 1, 53, 64
1, 152700, Note_on_c, 1, 53, 0
1, 152700, Note_on_c, 1, 62, 64
1, 152760, Note_on_c, 0, 65, 0
1, 152760, Note_on_c, 0, 86, 64
1, 152760, Note_on_c, 1, 62, 0
1, 152760, Note_on_c, 1, 58, 64
1, 152820, Note_on_c, 1, 58, 0
1, 152820, Note_on_c, 1, 62, 64
1, 152880, Note_on_c, 0, 86, 0
1, 152880, Note_on_c, 0, 86, 64
1, 152880, Note_on_c, 1, 62, 0
1, 152880, Note_on_c, 1, 53, 64
1, 152940, Note_on_c, 1, 53, 0
1, 152940, Note_on_c, 1, 62, 64
1, 153000, Note_on_c, 0, 86, 0
1, 153000, Note_on_c, 0, 86, 64
1, 153000, Note_on_c, 1, 62, 0
1, 153000, Note_on_c, 1, 58, 64
1, 153060, Note_on_c, 1, 58, 0
1, 153060, Note_on_c, 1, 62, 64
1, 153120, Note_on_c, 0, 86, 0
1, 153120, Note_on_c, 0, 86, 64
1, 153120, Note_on_c, 1, 62, 0
1, 153120, Note_on_c, 1, 53, 64
1, 153180, Note_on_c, 0, 86, 0
1, 153180, Note_on_c, 0, 82, 64
1, 153180, Note_on_c, 1, 53, 0
1, 153180, Note_on_c, 1, 62, 64
1, 153240, Note_on_c, 0, 82, 0
1, 153240, Note_on_c, 0, 77, 64
1, 153240, Note_on_c, 1, 62, 0
1, 153240, Note_on_c, 1, 58, 64
1, 153300, Note_on_c, 0, 77, 0
1, 153300, Note_on_c, 0, 74, 64
1, 153300, Note_on_c, 1, 58, 0
1, 153300, Note_on_c, 1, 62, 64
1, 153360, Note_on_c, 0, 74, 0
1, 153360, Note_on_c, 0, 82, 64
1, 153360, Note_on_c, 1, 62, 0
1, 153360, Note_on_c, 1, 53, 64
1, 153420, Note_on_c, 0, 82, 0
1, 153420, Note_on_c, 0, 77, 64
1, 153420, Note_on_c, 1, 53, 0
1, 153420, Note_on_c, 1, 62, 64
1, 153480, Note_on_c, 0, 77, 0
1, 153480, Note_on_c, 0, 74, 64
1, 153480, Note_on_c, 1, 62, 0
1, 153480, Note_on_c, 1, 58, 64
1, 153540, Note_on_c, 0, 74, 0
1, 153540, Note_on_c, 0, 70, 64
1, 153540, Note_on_c, 1, 58, 0
1, 153540, Note_on_c, 1, 62, 64
1, 153600, Note_on_c, 0, 70, 0
1, 153600, Note_on_c, 0, 74, 64
1, 153600, Note_on_c, 1, 62, 0
1, 153600, Note_on_c, 1, 53, 64
1, 153640, Note_on_c, 0, 74, 0
1, 153640, Note_on_c, 0, 72, 64
1, 153660, Note_on_c, 1, 53, 0
1, 153660, Note_on_c, 1, 63, 64
1, 153680, Note_on_c, 0, 72, 0
1, 153680, Note_on_c, 0, 74, 64
1, 153720, Note_on_c, 0, 74, 0
1, 153720, Note_on_c, 0, 72, 64
1, 153720, Note_on_c, 1, 63, 0
1, 153720, Note_on_c, 1, 57, 64
1, 153760, Note_on_c, 0, 72, 0
1, 153760, Note_on_c, 0, 74, 64
1, 153780, Note_on_c, 1, 57, 0
1, 153780, Note_on_c, 1, 63, 64
1, 153800, Note_on_c, 0, 74, 0
1, 153800, Note_on_c, 0, 72, 64
1, 153840, Note_on_c, 0, 72, 0
1, 153840, Note_on_c, 0, 74, 64
1, 153840, Note_on_c, 1, 63, 0
1, 153840, Note_on_c, 1, 53, 64
1, 153880, Note_on_c, 0, 74, 0
1, 153880, Note_on_c, 0, 72, 64
1, 153900, Note_on_c, 1, 53, 0
1, 153900, Note_on_c, 1, 63, 64
1, 153920, Note_on_c, 0, 72, 0
1, 153920, Note_on_c, 0, 74, 64
1, 153960, Note_on_c, 0, 74, 0
1, 153960, Note_on_c, 0, 72, 64
1, 153960, Note_on_c, 1, 63, 0
1, 153960, Note_on_c, 1, 57, 64
1, 154000, Note_on_c, 0, 72, 0
1, 154000, Note_on_c, 0, 74, 64
1, 154020, Note_on_c, 1, 57, 0
1, 154020, Note_on_c, 1, 63, 64
1, 154040, Note_on_c, 0, 74, 0
1, 154040, Note_on_c, 0, 72, 64
1, 154080, Note_on_c, 0, 72, 0
1, 154080, Note_on_c, 0, 74, 64
1, 154080, Note_on_c, 1, 63, 0
1, 154080, Note_on_c, 1, 53, 64
1, 154120, Note_on_c, 0, 74, 0
1, 154120, Note_on_c, 0, 72, 64
1, 154140, Note_on_c, 1, 53, 0
1, 154140, Note_on_c, 1, 63, 64
1, 154160, Note_on_c, 0, 72, 0
1, 154160, Note_on_c, 0, 74, 64
1, 154200, Note_on_c, 0, 74, 0
1, 154200, Note_on_c, 0, 72, 64
1, 154200, Note_on_c, 1, 63, 0
1, 154200, Note_on_c, 1, 57, 64
1, 154240, Note_on_c, 0, 72, 0
1, 154240, Note_on_c, 0, 74, 64
1, 154260, Note_on_c, 1, 57, 0
1, 154260, Note_on_c, 1, 63, 64
1, 154280, Note_on_c, 0, 74, 0
1, 154280, Note_on_c, 0, 72, 64
1, 154320, Note_on_c, 0, 72, 0
1, 154320, Note_on_c, 0, 74, 64
1, 154320, Note_on_c, 1, 63, 0
1, 154320, Note_on_c, 1, 53, 64
1, 154360, Note_on_c, 0, 74, 0
1, 154360, Note_on_c, 0, 72, 64
1, 154380, Note_on_c, 1, 53, 0
1, 154380, Note_on_c, 1, 63, 64
1, 154400, Note_on_c, 0, 72, 0
1, 154400, Note_on_c, 0, 74, 64
1, 154440, Note_on_c, 0, 74, 0
1, 154440, Note_on_c, 0, 72, 64
1, 154440, Note_on_c, 1, 63, 0
1, 154440, Note_on_c, 1, 57, 64
1, 154480, Note_on_c, 0, 72, 0
1, 154480, Note_on_c, 0, 70, 64
1, 154500, Note_on_c, 1, 57, 0
1, 154500, Note_on_c, 1, 63, 64
1, 154520, Note_on_c, 0, 70, 0
1, 154520, Note_on_c, 0, 72, 64
1, 154560, Note_on_c, 0, 72, 0
1, 154560, Note_on_c, 0, 70, 64
1, 154560, Note_on_c, 1, 63, 0
1, 154560, Note_on_c, 1, 58, 64
1, 154680, Note_on_c, 0, 70, 0
1, 154680, Note_on_c, 0, 82, 64
1, 154680, Note_on_c, 1, 58, 0
1, 154680, Note_on_c, 1, 70, 64
1, 154800, Note_on_c, 0, 82, 0
1, 154800, Note_on_c, 1, 70, 0
1, 154800, Note_on_c, 1, 69, 64
1, 154920, Note_on_c, 0, 82, 64
1, 154920, Note_on_c, 1, 69, 0
1, 154920, Note_on_c, 1, 70, 64
1, 155040, Note_on_c, 0, 82, 0
1, 155040, Note_on_c, 0, 81, 64
1, 155040, Note_on_c, 1, 70, 0
1, 155040, Note_on_c, 1, 72, 64
1, 155160, Note_on_c, 0, 81, 0
1, 155160, Note_on_c, 0, 82, 64
1, 155160, Note_on_c, 1, 72, 0
1, 155160, Note_on_c, 1, 70, 64
1, 155280, Note_on_c, 0, 82, 0
1, 155280, Note_on_c, 0, 84, 64
1, 155280, Note_on_c, 1, 70, 0
1, 155280, Note_on_c, 1, 69, 64
1, 155400, Note_on_c, 0, 84, 0
1, 155400, Note_on_c, 0, 86, 64
1, 155400, Note_on_c, 1, 69, 0
1, 155400, Note_on_c, 1, 68, 64
1, 155520, Note_on_c, 0, 86, 0
1, 155520, Note_on_c, 0, 87, 64
1, 155520, Note_on_c, 1, 68, 0
1, 155520, Note_on_c, 1, 67, 64
1, 155580, Note_on_c, 0, 87, 0
1, 155580, Note_on_c, 0, 86, 64
1, 155640, Note_on_c, 0, 86, 0
1, 155640, Note_on_c, 0, 87, 64
1, 155640, Note_on_c, 1, 67, 0
1, 155640, Note_on_c, 1, 58, 64
1, 155700, Note_on_c, 0, 87, 0
1, 155700, Note_on_c, 0, 86, 64
1, 155760, Note_on_c, 0, 86, 0
1, 155760, Note_on_c, 0, 87, 64
1, 155760, Note_on_c, 1, 58, 0
1, 155760, Note_on_c, 1, 66, 64
1, 155820, Note_on_c, 0, 87, 0
1, 155820, Note_on_c, 0, 85, 64
1, 155880, Note_on_c, 0, 85, 0
1, 155880, Note_on_c, 0, 84, 64
1, 155880, Note_on_c, 1, 66, 0
1, 155880, Note_on_c, 1, 58, 64
1, 155940, Note_on_c, 0, 84, 0
1, 155940, Note_on_c, 0, 82, 64
1, 156000, Note_on_c, 0, 82, 0
1, 156000, Note_on_c, 0, 81, 64
1, 156000, Note_on_c, 1, 58, 0
1, 156000, Note_on_c, 1, 65, 64
1, 156060, Note_on_c, 0, 81, 0
1, 156060, Note_on_c, 0, 82, 64
1, 156120, Note_on_c, 0, 82, 0
1, 156120, Note_on_c, 0, 84, 64
1, 156120, Note_on_c, 1, 65, 0
1, 156120, Note_on_c, 1, 58, 64
1, 156180, Note_on_c, 0, 84, 0
1, 156180, Note_on_c, 0, 82, 64
1, 156240, Note_on_c, 0, 82, 0
1, 156240, Note_on_c, 0, 81, 64
1, 156240, Note_on_c, 1, 58, 0
1, 156240, Note_on_c, 1, 69, 64
1, 156300, Note_on_c, 0, 81, 0
1, 156300, Note_on_c, 0, 79, 64
1, 156360, Note_on_c, 0, 79, 0
1, 156360, Note_on_c, 0, 77, 64
1, 156360, Note_on_c, 1, 69, 0
1, 156360, Note_on_c, 1, 58, 64
1, 156420, Note_on_c, 0, 77, 0
1, 156420, Note_on_c, 0, 75, 64
1, 156480, Note_on_c, 0, 75, 0
1, 156480, Note_on_c, 0, 74, 64
1, 156480, Note_on_c, 1, 58, 0
1, 156480, Note_on_c, 1, 70, 64
1, 156600, Note_on_c, 0, 74, 0
1, 156600, Note_on_c, 0, 74, 64
1, 156600, Note_on_c, 1, 70, 0
1, 156600, Note_on_c, 1, 58, 64
1, 156720, Note_on_c, 0, 74, 0
1, 156720, Note_on_c, 1, 58, 0
1, 156720, Note_on_c, 1, 57, 64
1, 156840, Note_on_c, 0, 70, 64
1, 156840, Note_on_c, 1, 57, 0
1, 156840, Note_on_c, 1, 58, 64
1, 156960, Note_on_c, 0, 70, 0
1, 156960, Note_on_c, 0, 69, 64
1, 156960, Note_on_c, 1, 58, 0
1, 156960, Note_on_c, 1, 60, 64
1, 157080, Note_on_c, 0, 69, 0
1, 157080, Note_on_c, 0, 70, 64
1, 157080, Note_on_c, 1, 60, 0
1, 157080, Note_on_c, 1, 58, 64
1, 157200, Note_on_c, 0, 70, 0
1, 157200, Note_on_c, 0, 72, 64
1, 157200, Note_on_c, 1, 58, 0
1, 157200, Note_on_c, 1, 57, 64
1, 157320, Note_on_c, 0, 72, 0
1, 157320, Note_on_c, 0, 74, 64
1, 157320, Note_on_c, 1, 57, 0
1, 157320, Note_on_c, 1, 56, 64
1, 157440, Note_on_c, 0, 74, 0
1, 157440, Note_on_c, 0, 75, 64
1, 157440, Note_on_c, 1, 56, 0
1, 157440, Note_on_c, 1, 55, 64
1, 157560, Note_on_c, 0, 75, 0
1, 157560, Note_on_c, 0, 77, 64
1, 157590, Note_on_c, 0, 77, 0
1, 157590, Note_on_c, 0, 75, 64
1, 157620, Note_on_c, 0, 75, 0
1, 157620, Note_on_c, 0, 74, 64
1, 157650, Note_on_c, 0, 74, 0
1, 157650, Note_on_c, 0, 75, 64
1, 157680, Note_on_c, 0, 75, 0
1, 157680, Note_on_c, 0, 77, 64
1, 157680, Note_on_c, 1, 55, 0
1, 157680, Note_on_c, 1, 51, 64
1, 157800, Note_on_c, 0, 77, 0
1, 157800, Note_on_c, 0, 79, 64
1, 157920, Note_on_c, 0, 79, 0
1, 157920, Note_on_c, 0, 79, 64
1, 157920, Note_on_c, 0, 75, 64
1, 157920, Note_on_c, 1, 51, 0
1, 157920, Note_on_c, 1, 53, 64
1, 158040, Note_on_c, 0, 75, 0
1, 158040, Note_on_c, 0, 79, 0
1, 158040, Note_on_c, 0, 74, 64
1, 158040, Note_on_c, 0, 77, 64
1, 158160, Note_on_c, 0, 77, 0
1, 158160, Note_on_c, 0, 74, 0
1, 158160, Note_on_c, 1, 53, 0
1, 158160, Note_on_c, 1, 53, 64
1, 158280, Note_on_c, 0, 63, 64
1, 158280, Note_on_c, 0, 69, 64
1, 158400, Note_on_c, 0, 69, 0
1, 158400, Note_on_c, 0, 63, 0
1, 158400, Note_on_c, 0, 63, 64
1, 158400, Note_on_c, 0, 72, 64
1, 158400, Note_on_c, 1, 53, 0
1, 158400, Note_on_c, 1, 58, 64
1, 158640, Note_on_c, 1, 58, 0
1, 158640, Note_on_c, 1, 53, 64
1, 158880, Note_on_c, 0, 72, 0
1, 158880, Note_on_c, 0, 63, 0
1, 158880, Note_on_c, 0, 62, 64
1, 158880, Note_on_c, 0, 70, 64
1, 158880, Note_on_c, 1, 53, 0
1, 158880, Note_on_c, 1, 46, 64
1, 159120, Note_on_c, 0, 70, 0
1, 159120, Note_on_c, 0, 62, 0
1, 159120, Note_on_c, 1, 46, 0
1, 159130, End_track
0, 0, End_of_file