0, 0, Header, 0, 1, 480
1, 0, Start_track
1, 0, Tempo, 500000
1, 0, Note_on_c, 0, 39, 60
1, 74, Note_on_c, 0, 43, 55
1, 110, Note_on_c, 0, 46, 55
1, 146, Note_on_c, 0, 43, 0
1, 146, Note_on_c, 0, 51, 88
1, 149, Note_on_c, 0, 39, 0
1, 162, Note_on_c, 0, 55, 68
1, 190, Note_on_c, 0, 58, 79
1, 206, Note_on_c, 0, 51, 0
1, 206, Note_on_c, 0, 46, 0
1, 209, Note_on_c, 0, 63, 101
1, 448, Note_on_c, 0, 55, 0
1, 470, Note_on_c, 0, 58, 0
1, 574, Note_on_c, 0, 63, 0
1, 986, Note_on_c, 0, 67, 94
1, 992, Note_on_c, 0, 49, 72
1, 994, Note_on_c, 0, 63, 75
1, 994, Note_on_c, 0, 61, 73
1, 1002, Note_on_c, 0, 39, 54
1, 1010, Note_on_c, 0, 46, 52
1, 1022, Note_on_c, 0, 43, 52
1, 1084, Note_on_c, 0, 43, 0
1, 1212, Note_on_c, 0, 49, 0
1, 1230, Note_on_c, 0, 39, 0
1, 1236, Note_on_c, 0, 46, 0
1, 1268, Note_on_c, 0, 61, 0
1, 1270, Note_on_c, 0, 67, 0
1, 1272, Note_on_c, 0, 63, 0
1, 1580, Note_on_c, 0, 67, 89
1, 1582, Note_on_c, 0, 61, 69
1, 1584, Note_on_c, 0, 49, 64
1, 1588, Note_on_c, 0, 39, 57
1, 1594, Note_on_c, 0, 46, 47
1, 1600, Note_on_c, 0, 63, 55
1, 1606, Note_on_c, 0, 43, 55
1, 1634, Note_on_c, 0, 39, 0
1, 1646, Note_on_c, 0, 46, 0
1, 1646, Note_on_c, 0, 63, 0
1, 1658, Note_on_c, 0, 43, 0
1, 1684, Note_on_c, 0, 49, 0
1, 1692, Note_on_c, 0, 61, 0
1, 1738, Note_on_c, 0, 39, 40
1, 1758, Note_on_c, 0, 44, 73
1, 1774, Note_on_c, 0, 60, 78
1, 1782, Note_on_c, 0, 48, 64
1, 1800, Note_on_c, 0, 63, 72
1, 1802, Note_on_c, 0, 68, 90
1, 1876, Note_on_c, 0, 67, 0
1, 2568, Note_on_c, 0, 63, 0
1, 2634, Note_on_c, 0, 60, 0
1, 2694, Note_on_c, 0, 68, 0
1, 2788, Note_on_c, 0, 39, 0
1, 2812, Note_on_c, 0, 48, 0
1, 2858, Note_on_c, 0, 44, 0
1, 2976, Note_on_c, 0, 68, 72
1, 3056, Note_on_c, 0, 67, 70
1, 3128, Note_on_c, 0, 68, 0
1, 3152, Note_on_c, 0, 65, 68
1, 3190, Note_on_c, 0, 67, 0
1, 3206, Note_on_c, 0, 65, 0
1, 3220, Note_on_c, 0, 63, 55
1, 3240, Note_on_c, 0, 39, 54
1, 3260, Note_on_c, 0, 41, 56
1, 3266, Note_on_c, 0, 63, 0
1, 3292, Note_on_c, 0, 44, 60
1, 3338, Note_on_c, 0, 50, 84
1, 3341, Note_on_c, 0, 62, 95
1, 3344, Note_on_c, 0, 56, 85
1, 3352, Note_on_c, 0, 58, 64
1, 3594, Note_on_c, 0, 50, 0
1, 3602, Note_on_c, 0, 56, 0
1, 3616, Note_on_c, 0, 39, 0
1, 3628, Note_on_c, 0, 41, 0
1, 3631, Note_on_c, 0, 44, 0
1, 3670, Note_on_c, 0, 62, 0
1, 3672, Note_on_c, 0, 58, 0
1, 3952, Note_on_c, 0, 65, 87
1, 4042, Note_on_c, 0, 65, 0
1, 4098, Note_on_c, 0, 39, 56
1, 4142, Note_on_c, 0, 41, 47
1, 4148, Note_on_c, 0, 44, 54
1, 4152, Note_on_c, 0, 62, 71
1, 4160, Note_on_c, 0, 65, 54
1, 4163, Note_on_c, 0, 70, 87
1, 4170, Note_on_c, 0, 50, 80
1, 4388, Note_on_c, 0, 62, 0
1, 4434, Note_on_c, 0, 50, 0
1, 4440, Note_on_c, 0, 65, 0
1, 4458, Note_on_c, 0, 39, 0
1, 4522, Note_on_c, 0, 44, 0
1, 4594, Note_on_c, 0, 41, 0
1, 4774, Note_on_c, 0, 68, 78
1, 4844, Note_on_c, 0, 70, 0
1, 4874, Note_on_c, 0, 39, 42
1, 4924, Note_on_c, 0, 43, 40
1, 4934, Note_on_c, 0, 68, 0
1, 4948, Note_on_c, 0, 46, 43
1, 4958, Note_on_c, 0, 58, 44
1, 4990, Note_on_c, 0, 51, 59
1, 4993, Note_on_c, 0, 63, 70
1, 5002, Note_on_c, 0, 67, 85
1, 5286, Note_on_c, 0, 43, 0
1, 5324, Note_on_c, 0, 46, 0
1, 5334, Note_on_c, 0, 39, 0
1, 5358, Note_on_c, 0, 51, 0
1, 5514, Note_on_c, 0, 63, 0
1, 5524, Note_on_c, 0, 58, 0
1, 5674, Note_on_c, 0, 67, 0
1, 6586, Note_on_c, 0, 74, 46
1, 6588, Note_on_c, 0, 68, 26
1, 6596, Note_on_c, 0, 58, 19
1, 6608, Note_on_c, 0, 65, 24
1, 6870, Note_on_c, 0, 65, 0
1, 6873, Note_on_c, 0, 68, 0
1, 6890, Note_on_c, 0, 58, 0
1, 7152, Note_on_c, 0, 77, 54
1, 7236, Note_on_c, 0, 74, 0
1, 7376, Note_on_c, 0, 58, 25
1, 7380, Note_on_c, 0, 68, 28
1, 7380, Note_on_c, 0, 82, 50
1, 7386, Note_on_c, 0, 65, 24
1, 7420, Note_on_c, 0, 77, 0
1, 7550, Note_on_c, 0, 68, 0
1, 7560, Note_on_c, 0, 65, 0
1, 7592, Note_on_c, 0, 58, 0
1, 8000, Note_on_c, 0, 80, 34
1, 8036, Note_on_c, 0, 62, 23
1, 8094, Note_on_c, 0, 82, 0
1, 8214, Note_on_c, 0, 63, 31
1, 8248, Note_on_c, 0, 62, 0
1, 8254, Note_on_c, 0, 79, 44
1, 8320, Note_on_c, 0, 80, 0
1, 8592, Note_on_c, 0, 63, 0
1, 8624, Note_on_c, 0, 79, 0
1, 9258, Note_on_c, 0, 80, 60
1, 9258, Note_on_c, 0, 58, 30
1, 9261, Note_on_c, 0, 84, 73
1, 9450, Note_on_c, 0, 79, 66
1, 9450, Note_on_c, 0, 82, 62
1, 9452, Note_on_c, 0, 80, 0
1, 9452, Note_on_c, 0, 60, 38
1, 9458, Note_on_c, 0, 58, 0
1, 9506, Note_on_c, 0, 84, 0
1, 9622, Note_on_c, 0, 79, 0
1, 9634, Note_on_c, 0, 80, 76
1, 9634, Note_on_c, 0, 77, 58
1, 9650, Note_on_c, 0, 60, 0
1, 9650, Note_on_c, 0, 62, 35
1, 9687, Note_on_c, 0, 77, 0
1, 9700, Note_on_c, 0, 82, 0
1, 9840, Note_on_c, 0, 79, 80
1, 9842, Note_on_c, 0, 75, 50
1, 9848, Note_on_c, 0, 63, 35
1, 9862, Note_on_c, 0, 62, 0
1, 9874, Note_on_c, 0, 80, 0
1, 9916, Note_on_c, 0, 75, 0
1, 10006, Note_on_c, 0, 75, 3
1, 10050, Note_on_c, 0, 63, 0
1, 10074, Note_on_c, 0, 75, 0
1, 10084, Note_on_c, 0, 79, 0
1, 10724, Note_on_c, 0, 80, 38
1, 10730, Note_on_c, 0, 58, 26
1, 10732, Note_on_c, 0, 84, 37
1, 10904, Note_on_c, 0, 80, 0
1, 10910, Note_on_c, 0, 79, 49
1, 10913, Note_on_c, 0, 82, 36
1, 10924, Note_on_c, 0, 60, 31
1, 10926, Note_on_c, 0, 58, 0
1, 10946, Note_on_c, 0, 84, 0
1, 11002, Note_on_c, 0, 79, 0
1, 11036, Note_on_c, 0, 60, 0
1, 11076, Note_on_c, 0, 80, 54
1, 11092, Note_on_c, 0, 82, 0
1, 11098, Note_on_c, 0, 77, 30
1, 11120, Note_on_c, 0, 62, 22
1, 11153, Note_on_c, 0, 77, 0
1, 11222, Note_on_c, 0, 62, 0
1, 11274, Note_on_c, 0, 75, 32
1, 11298, Note_on_c, 0, 80, 0
1, 11300, Note_on_c, 0, 79, 49
1, 11324, Note_on_c, 0, 63, 15
1, 11568, Note_on_c, 0, 79, 0
1, 11571, Note_on_c, 0, 75, 0
1, 11580, Note_on_c, 0, 63, 0
1, 12078, Note_on_c, 0, 80, 61
1, 12084, Note_on_c, 0, 84, 77
1, 12282, Note_on_c, 0, 82, 70
1, 12284, Note_on_c, 0, 79, 75
1, 12286, Note_on_c, 0, 80, 0
1, 12372, Note_on_c, 0, 84, 0
1, 12436, Note_on_c, 0, 79, 0
1, 12448, Note_on_c, 0, 80, 81
1, 12448, Note_on_c, 0, 77, 62
1, 12496, Note_on_c, 0, 77, 0
1, 12502, Note_on_c, 0, 82, 0
1, 12590, Note_on_c, 0, 80, 0
1, 12630, Note_on_c, 0, 75, 64
1, 12630, Note_on_c, 0, 79, 85
1, 12678, Note_on_c, 0, 75, 0
1, 12690, Note_on_c, 0, 79, 0
1, 12804, Note_on_c, 0, 80, 73
1, 12814, Note_on_c, 0, 84, 81
1, 12974, Note_on_c, 0, 80, 0
1, 12998, Note_on_c, 0, 82, 62
1, 13000, Note_on_c, 0, 79, 69
1, 13058, Note_on_c, 0, 84, 0
1, 13120, Note_on_c, 0, 79, 0
1, 13174, Note_on_c, 0, 80, 76
1, 13180, Note_on_c, 0, 77, 43
1, 13212, Note_on_c, 0, 82, 0
1, 13228, Note_on_c, 0, 77, 0
1, 13290, Note_on_c, 0, 80, 0
1, 13352, Note_on_c, 0, 79, 81
1, 13358, Note_on_c, 0, 75, 49
1, 13424, Note_on_c, 0, 79, 0
1, 13427, Note_on_c, 0, 75, 0
1, 13536, Note_on_c, 0, 82, 72
1, 13550, Note_on_c, 0, 79, 74
1, 13696, Note_on_c, 0, 79, 0
1, 13720, Note_on_c, 0, 80, 73
1, 13722, Note_on_c, 0, 77, 68
1, 13780, Note_on_c, 0, 80, 0
1, 13780, Note_on_c, 0, 82, 0
1, 13898, Note_on_c, 0, 75, 73
1, 13914, Note_on_c, 0, 79, 79
1, 13958, Note_on_c, 0, 77, 0
1, 14040, Note_on_c, 0, 75, 0
1, 14102, Note_on_c, 0, 74, 66
1, 14104, Note_on_c, 0, 77, 80
1, 14144, Note_on_c, 0, 79, 0
1, 14266, Note_on_c, 0, 72, 63
1, 14272, Note_on_c, 0, 74, 0
1, 14274, Note_on_c, 0, 75, 68
1, 14294, Note_on_c, 0, 77, 0
1, 14316, Note_on_c, 0, 75, 0
1, 14458, Note_on_c, 0, 70, 50
1, 14466, Note_on_c, 0, 74, 57
1, 14504, Note_on_c, 0, 72, 0
1, 14578, Note_on_c, 0, 70, 0
1, 14624, Note_on_c, 0, 72, 59
1, 14630, Note_on_c, 0, 68, 49
1, 14642, Note_on_c, 0, 74, 0
1, 14814, Note_on_c, 0, 70, 64
1, 14817, Note_on_c, 0, 67, 51
1, 14840, Note_on_c, 0, 68, 0
1, 14844, Note_on_c, 0, 72, 0
1, 14866, Note_on_c, 0, 70, 0
1, 14980, Note_on_c, 0, 67, 0
1, 14980, Note_on_c, 0, 68, 66
1, 15010, Note_on_c, 0, 65, 41
1, 15078, Note_on_c, 0, 65, 0
1, 15136, Note_on_c, 0, 68, 0
1, 15168, Note_on_c, 0, 63, 60
1, 15176, Note_on_c, 0, 67, 63
1, 15238, Note_on_c, 0, 63, 0
1, 15258, Note_on_c, 0, 67, 0
1, 15362, Note_on_c, 0, 65, 63
1, 15378, Note_on_c, 0, 62, 57
1, 15434, Note_on_c, 0, 65, 0
1, 15572, Note_on_c, 0, 63, 76
1, 15592, Note_on_c, 0, 48, 19
1, 15640, Note_on_c, 0, 62, 0
1, 15786, Note_on_c, 0, 56, 33
1, 15816, Note_on_c, 0, 48, 0
1, 15970, Note_on_c, 0, 56, 0
1, 16000, Note_on_c, 0, 48, 38
1, 16168, Note_on_c, 0, 56, 35
1, 16198, Note_on_c, 0, 48, 0
1, 16354, Note_on_c, 0, 56, 0
1, 16388, Note_on_c, 0, 48, 34
1, 16468, Note_on_c, 0, 48, 0
1, 16540, Note_on_c, 0, 56, 29
1, 16712, Note_on_c, 0, 56, 0
1, 16740, Note_on_c, 0, 48, 38
1, 16908, Note_on_c, 0, 63, 0
1, 16918, Note_on_c, 0, 56, 35
1, 16932, Note_on_c, 0, 65, 46
1, 16996, Note_on_c, 0, 63, 52
1, 17056, Note_on_c, 0, 65, 0
1, 17072, Note_on_c, 0, 48, 0
1, 17096, Note_on_c, 0, 56, 0
1, 17134, Note_on_c, 0, 62, 65
1, 17136, Note_on_c, 0, 46, 23
1, 17206, Note_on_c, 0, 63, 0
1, 17340, Note_on_c, 0, 56, 37
1, 17380, Note_on_c, 0, 46, 0
1, 17498, Note_on_c, 0, 56, 0
1, 17530, Note_on_c, 0, 46, 36
1, 17726, Note_on_c, 0, 56, 41
1, 17728, Note_on_c, 0, 46, 0
1, 17818, Note_on_c, 0, 56, 0
1, 17878, Note_on_c, 0, 61, 70
1, 17908, Note_on_c, 0, 46, 42
1, 17990, Note_on_c, 0, 62, 0
1, 18114, Note_on_c, 0, 55, 44
1, 18126, Note_on_c, 0, 46, 0
1, 18228, Note_on_c, 0, 55, 0
1, 18292, Note_on_c, 0, 46, 47
1, 18474, Note_on_c, 0, 46, 0
1, 18492, Note_on_c, 0, 55, 37
1, 18578, Note_on_c, 0, 55, 0
1, 18688, Note_on_c, 0, 60, 58
1, 18696, Note_on_c, 0, 44, 41
1, 18800, Note_on_c, 0, 61, 0
1, 18894, Note_on_c, 0, 55, 43
1, 18918, Note_on_c, 0, 44, 0
1, 19022, Note_on_c, 0, 55, 0
1, 19096, Note_on_c, 0, 44, 52
1, 19178, Note_on_c, 0, 44, 0
1, 19292, Note_on_c, 0, 55, 40
1, 19386, Note_on_c, 0, 55, 0
1, 19464, Note_on_c, 0, 44, 37
1, 19654, Note_on_c, 0, 53, 69
1, 19692, Note_on_c, 0, 44, 0
1, 19824, Note_on_c, 0, 53, 0
1, 19860, Note_on_c, 0, 44, 46
1, 20024, Note_on_c, 0, 53, 59
1, 20040, Note_on_c, 0, 62, 70
1, 20048, Note_on_c, 0, 44, 0
1, 20060, Note_on_c, 0, 60, 0
1, 20122, Note_on_c, 0, 60, 83
1, 20164, Note_on_c, 0, 62, 0
1, 20194, Note_on_c, 0, 53, 0
1, 20238, Note_on_c, 0, 58, 69
1, 20260, Note_on_c, 0, 43, 37
1, 20308, Note_on_c, 0, 60, 0
1, 20440, Note_on_c, 0, 43, 0
1, 20464, Note_on_c, 0, 53, 64
1, 20594, Note_on_c, 0, 53, 0
1, 20664, Note_on_c, 0, 43, 46
1, 20740, Note_on_c, 0, 43, 0
1, 20806, Note_on_c, 0, 58, 0
1, 20809, Note_on_c, 0, 60, 75
1, 20860, Note_on_c, 0, 53, 55
1, 20894, Note_on_c, 0, 62, 91
1, 20942, Note_on_c, 0, 60, 0
1, 20950, Note_on_c, 0, 53, 0
1, 20992, Note_on_c, 0, 63, 92
1, 21022, Note_on_c, 0, 43, 48
1, 21048, Note_on_c, 0, 62, 0
1, 21182, Note_on_c, 0, 51, 49
1, 21212, Note_on_c, 0, 43, 0
1, 21302, Note_on_c, 0, 51, 0
1, 21350, Note_on_c, 0, 43, 50
1, 21492, Note_on_c, 0, 63, 0
1, 21508, Note_on_c, 0, 65, 59
1, 21516, Note_on_c, 0, 51, 52
1, 21598, Note_on_c, 0, 67, 81
1, 21658, Note_on_c, 0, 65, 0
1, 21682, Note_on_c, 0, 43, 0
1, 21682, Note_on_c, 0, 51, 0
1, 21709, Note_on_c, 0, 68, 79
1, 21730, Note_on_c, 0, 41, 48
1, 21776, Note_on_c, 0, 67, 0
1, 21929, Note_on_c, 0, 50, 50
1, 21968, Note_on_c, 0, 41, 0
1, 22050, Note_on_c, 0, 50, 0
1, 22094, Note_on_c, 0, 41, 34
1, 22284, Note_on_c, 0, 41, 0
1, 22284, Note_on_c, 0, 50, 44
1, 22372, Note_on_c, 0, 50, 0
1, 22464, Note_on_c, 0, 39, 46
1, 22478, Note_on_c, 0, 67, 67
1, 22540, Note_on_c, 0, 68, 0
1, 22656, Note_on_c, 0, 43, 66
1, 22814, Note_on_c, 0, 46, 67
1, 22882, Note_on_c, 0, 43, 0
1, 22982, Note_on_c, 0, 51, 86
1, 23004, Note_on_c, 0, 39, 0
1, 23042, Note_on_c, 0, 46, 0
1, 23082, Note_on_c, 0, 51, 0
1, 23172, Note_on_c, 0, 65, 78
1, 23174, Note_on_c, 0, 60, 70
1, 23177, Note_on_c, 0, 44, 82
1, 23184, Note_on_c, 0, 56, 83
1, 23187, Note_on_c, 0, 67, 0
1, 23286, Note_on_c, 0, 56, 0
1, 23296, Note_on_c, 0, 44, 0
1, 23342, Note_on_c, 0, 60, 0
1, 23356, Note_on_c, 0, 65, 0
1, 23938, Note_on_c, 0, 62, 60
1, 23940, Note_on_c, 0, 56, 39
1, 23948, Note_on_c, 0, 53, 72
1, 23950, Note_on_c, 0, 46, 36
1, 24018, Note_on_c, 0, 53, 0
1, 24072, Note_on_c, 0, 62, 0
1, 24075, Note_on_c, 0, 56, 0
1, 24078, Note_on_c, 0, 46, 0
1, 24586, Note_on_c, 0, 51, 44
1, 24648, Note_on_c, 0, 51, 0
1, 24648, Note_on_c, 0, 55, 55
1, 24682, Note_on_c, 0, 58, 52
1, 24688, Note_on_c, 0, 67, 69
1, 24696, Note_on_c, 0, 55, 0
1, 24716, Note_on_c, 0, 63, 94
1, 24718, Note_on_c, 0, 70, 64
1, 24730, Note_on_c, 0, 75, 100
1, 24733, Note_on_c, 0, 58, 0
1, 24758, Note_on_c, 0, 63, 0
1, 24882, Note_on_c, 0, 70, 0
1, 24934, Note_on_c, 0, 67, 0
1, 25060, Note_on_c, 0, 75, 0
1, 25468, Note_on_c, 0, 79, 105
1, 25475, Note_on_c, 0, 55, 53
1, 25476, Note_on_c, 0, 61, 68
1, 25476, Note_on_c, 0, 51, 52
1, 25480, Note_on_c, 0, 75, 44
1, 25480, Note_on_c, 0, 73, 55
1, 25482, Note_on_c, 0, 58, 40
1, 25662, Note_on_c, 0, 75, 0
1, 25750, Note_on_c, 0, 73, 0
1, 25768, Note_on_c, 0, 55, 0
1, 25804, Note_on_c, 0, 79, 0
1, 25842, Note_on_c, 0, 58, 0
1, 25878, Note_on_c, 0, 51, 0
1, 25922, Note_on_c, 0, 61, 0
1, 26056, Note_on_c, 0, 75, 86
1, 26172, Note_on_c, 0, 75, 0
1, 26250, Note_on_c, 0, 80, 97
1, 26264, Note_on_c, 0, 75, 53
1, 26270, Note_on_c, 0, 72, 76
1, 26270, Note_on_c, 0, 60, 57
1, 26273, Note_on_c, 0, 56, 50
1, 26282, Note_on_c, 0, 51, 49
1, 26720, Note_on_c, 0, 72, 0
1, 26726, Note_on_c, 0, 75, 0
1, 26772, Note_on_c, 0, 80, 0
1, 27026, Note_on_c, 0, 84, 91
1, 27114, Note_on_c, 0, 82, 69
1, 27186, Note_on_c, 0, 84, 0
1, 27214, Note_on_c, 0, 80, 66
1, 27276, Note_on_c, 0, 82, 0
1, 27300, Note_on_c, 0, 79, 85
1, 27340, Note_on_c, 0, 51, 0
1, 27366, Note_on_c, 0, 56, 0
1, 27374, Note_on_c, 0, 80, 0
1, 27390, Note_on_c, 0, 79, 0
1, 27398, Note_on_c, 0, 77, 76
1, 27468, Note_on_c, 0, 60, 0
1, 27470, Note_on_c, 0, 75, 74
1, 27516, Note_on_c, 0, 77, 0
1, 27560, Note_on_c, 0, 74, 83
1, 27602, Note_on_c, 0, 51, 55
1, 27610, Note_on_c, 0, 74, 0
1, 27622, Note_on_c, 0, 75, 0
1, 27632, Note_on_c, 0, 53, 88
1, 27634, Note_on_c, 0, 72, 68
1, 27672, Note_on_c, 0, 56, 68
1, 27700, Note_on_c, 0, 58, 68
1, 27726, Note_on_c, 0, 62, 96
1, 27726, Note_on_c, 0, 70, 87
1, 27766, Note_on_c, 0, 53, 0
1, 27778, Note_on_c, 0, 72, 0
1, 27818, Note_on_c, 0, 68, 73
1, 27821, Note_on_c, 0, 56, 0
1, 27826, Note_on_c, 0, 62, 0
1, 27846, Note_on_c, 0, 58, 0
1, 27860, Note_on_c, 0, 51, 0
1, 27898, Note_on_c, 0, 67, 87
1, 27900, Note_on_c, 0, 70, 0
1, 27970, Note_on_c, 0, 68, 0
1, 27980, Note_on_c, 0, 65, 70
1, 27985, Note_on_c, 0, 67, 0
1, 28060, Note_on_c, 0, 63, 78
1, 28082, Note_on_c, 0, 65, 0
1, 28148, Note_on_c, 0, 62, 80
1, 28208, Note_on_c, 0, 63, 0
1, 28226, Note_on_c, 0, 60, 75
1, 28231, Note_on_c, 0, 62, 0
1, 28314, Note_on_c, 0, 58, 70
1, 28350, Note_on_c, 0, 60, 0
1, 28398, Note_on_c, 0, 56, 76
1, 28462, Note_on_c, 0, 55, 84
1, 28468, Note_on_c, 0, 58, 0
1, 28520, Note_on_c, 0, 55, 0
1, 28520, Note_on_c, 0, 56, 0
1, 28526, Note_on_c, 0, 53, 100
1, 28606, Note_on_c, 0, 51, 69
1, 28636, Note_on_c, 0, 53, 0
1, 28676, Note_on_c, 0, 50, 87
1, 28720, Note_on_c, 0, 50, 0
1, 28724, Note_on_c, 0, 51, 0
1, 28744, Note_on_c, 0, 48, 75
1, 28806, Note_on_c, 0, 46, 76
1, 28844, Note_on_c, 0, 48, 0
1, 28882, Note_on_c, 0, 44, 81
1, 28952, Note_on_c, 0, 43, 81
1, 28962, Note_on_c, 0, 46, 0
1, 29026, Note_on_c, 0, 44, 0
1, 29036, Note_on_c, 0, 41, 80
1, 29072, Note_on_c, 0, 43, 0
1, 29126, Note_on_c, 0, 39, 83
1, 29146, Note_on_c, 0, 41, 0
1, 29496, Note_on_c, 0, 39, 0
1, 29978, Note_on_c, 0, 84, 51
1, 29984, Note_on_c, 0, 75, 48
1, 30194, Note_on_c, 0, 79, 50
1, 30214, Note_on_c, 0, 84, 0
1, 30352, Note_on_c, 0, 79, 0
1, 30376, Note_on_c, 0, 84, 46
1, 30426, Note_on_c, 0, 75, 0
1, 30488, Note_on_c, 0, 84, 0
1, 30504, Note_on_c, 0, 77, 39
1, 30516, Note_on_c, 0, 79, 49
1, 30574, Note_on_c, 0, 75, 62
1, 30576, Note_on_c, 0, 77, 0
1, 30644, Note_on_c, 0, 79, 0
1, 30664, Note_on_c, 0, 84, 52
1, 30672, Note_on_c, 0, 74, 80
1, 30674, Note_on_c, 0, 75, 0
1, 30836, Note_on_c, 0, 77, 48
1, 30850, Note_on_c, 0, 84, 0
1, 31014, Note_on_c, 0, 77, 0
1, 31026, Note_on_c, 0, 84, 66
1, 31204, Note_on_c, 0, 77, 69
1, 31210, Note_on_c, 0, 84, 0
1, 31374, Note_on_c, 0, 77, 0
1, 31374, Note_on_c, 0, 73, 61
1, 31378, Note_on_c, 0, 82, 65
1, 31444, Note_on_c, 0, 74, 0
1, 31572, Note_on_c, 0, 77, 66
1, 31590, Note_on_c, 0, 82, 0
1, 31742, Note_on_c, 0, 82, 57
1, 31744, Note_on_c, 0, 77, 0
1, 31930, Note_on_c, 0, 77, 63
1, 31952, Note_on_c, 0, 82, 0
1, 32092, Note_on_c, 0, 72, 64
1, 32104, Note_on_c, 0, 82, 55
1, 32134, Note_on_c, 0, 77, 0
1, 32142, Note_on_c, 0, 73, 0
1, 32294, Note_on_c, 0, 76, 47
1, 32298, Note_on_c, 0, 82, 0
1, 32454, Note_on_c, 0, 76, 0
1, 32470, Note_on_c, 0, 82, 48
1, 32662, Note_on_c, 0, 76, 48
1, 32674, Note_on_c, 0, 82, 0
1, 32834, Note_on_c, 0, 76, 0
1, 32838, Note_on_c, 0, 80, 55
1, 33010, Note_on_c, 0, 75, 48
1, 33022, Note_on_c, 0, 80, 0
1, 33182, Note_on_c, 0, 80, 50
1, 33200, Note_on_c, 0, 75, 0
1, 33302, Note_on_c, 0, 72, 0
1, 33370, Note_on_c, 0, 75, 42
1, 33376, Note_on_c, 0, 80, 0
1, 33379, Note_on_c, 0, 74, 41
1, 33442, Note_on_c, 0, 74, 0
1, 33482, Note_on_c, 0, 72, 57
1, 33562, Note_on_c, 0, 80, 41
1, 33580, Note_on_c, 0, 70, 58
1, 33583, Note_on_c, 0, 75, 0
1, 33587, Note_on_c, 0, 72, 0
1, 33774, Note_on_c, 0, 74, 54
1, 33792, Note_on_c, 0, 80, 0
1, 33948, Note_on_c, 0, 74, 0
1, 33956, Note_on_c, 0, 80, 58
1, 34122, Note_on_c, 0, 80, 0
1, 34142, Note_on_c, 0, 74, 57
1, 34300, Note_on_c, 0, 74, 0
1, 34332, Note_on_c, 0, 79, 62
1, 34496, Note_on_c, 0, 73, 47
1, 34498, Note_on_c, 0, 79, 0
1, 34658, Note_on_c, 0, 73, 0
1, 34690, Note_on_c, 0, 79, 68
1, 34772, Note_on_c, 0, 79, 0
1, 34802, Note_on_c, 0, 70, 0
1, 34854, Note_on_c, 0, 73, 43
1, 34858, Note_on_c, 0, 72, 47
1, 34930, Note_on_c, 0, 72, 0
1, 34934, Note_on_c, 0, 70, 56
1, 35016, Note_on_c, 0, 79, 63
1, 35030, Note_on_c, 0, 69, 69
1, 35038, Note_on_c, 0, 73, 0
1, 35050, Note_on_c, 0, 70, 0
1, 35198, Note_on_c, 0, 79, 0
1, 35214, Note_on_c, 0, 72, 53
1, 35382, Note_on_c, 0, 72, 0
1, 35402, Note_on_c, 0, 79, 68
1, 35468, Note_on_c, 0, 69, 0
1, 35568, Note_on_c, 0, 79, 0
1, 35574, Note_on_c, 0, 72, 56
1, 35736, Note_on_c, 0, 68, 74
1, 35740, Note_on_c, 0, 72, 0
1, 35748, Note_on_c, 0, 77, 54
1, 35944, Note_on_c, 0, 72, 55
1, 35958, Note_on_c, 0, 77, 0
1, 36114, Note_on_c, 0, 72, 0
1, 36114, Note_on_c, 0, 77, 67
1, 36172, Note_on_c, 0, 68, 0
1, 36272, Note_on_c, 0, 72, 45
1, 36284, Note_on_c, 0, 70, 52
1, 36302, Note_on_c, 0, 77, 0
1, 36376, Note_on_c, 0, 70, 0
1, 36376, Note_on_c, 0, 68, 66
1, 36440, Note_on_c, 0, 72, 0
1, 36460, Note_on_c, 0, 77, 65
1, 36468, Note_on_c, 0, 67, 78
1, 36510, Note_on_c, 0, 68, 0
1, 36642, Note_on_c, 0, 70, 46
1, 36676, Note_on_c, 0, 77, 0
1, 36842, Note_on_c, 0, 77, 63
1, 36850, Note_on_c, 0, 70, 0
1, 37006, Note_on_c, 0, 70, 47
1, 37040, Note_on_c, 0, 77, 0
1, 37152, Note_on_c, 0, 66, 66
1, 37170, Note_on_c, 0, 75, 58
1, 37182, Note_on_c, 0, 70, 0
1, 37248, Note_on_c, 0, 67, 0
1, 37348, Note_on_c, 0, 70, 49
1, 37384, Note_on_c, 0, 75, 0
1, 37532, Note_on_c, 0, 75, 61
1, 37566, Note_on_c, 0, 70, 0
1, 37712, Note_on_c, 0, 70, 55
1, 37742, Note_on_c, 0, 75, 0
1, 37892, Note_on_c, 0, 75, 62
1, 37904, Note_on_c, 0, 65, 73
1, 37916, Note_on_c, 0, 70, 0
1, 38008, Note_on_c, 0, 66, 0
1, 38070, Note_on_c, 0, 69, 51
1, 38104, Note_on_c, 0, 75, 0
1, 38248, Note_on_c, 0, 69, 0
1, 38256, Note_on_c, 0, 75, 66
1, 38418, Note_on_c, 0, 69, 58
1, 38466, Note_on_c, 0, 75, 0
1, 38602, Note_on_c, 0, 73, 61
1, 38607, Note_on_c, 0, 64, 78
1, 38618, Note_on_c, 0, 69, 0
1, 38668, Note_on_c, 0, 65, 0
1, 38772, Note_on_c, 0, 70, 50
1, 38788, Note_on_c, 0, 73, 0
1, 38956, Note_on_c, 0, 73, 58
1, 38974, Note_on_c, 0, 70, 0
1, 39118, Note_on_c, 0, 70, 58
1, 39180, Note_on_c, 0, 73, 0
1, 39188, Note_on_c, 0, 64, 0
1, 39298, Note_on_c, 0, 53, 108
1, 39308, Note_on_c, 0, 69, 55
1, 39310, Note_on_c, 0, 65, 60
1, 39322, Note_on_c, 0, 70, 0
1, 39476, Note_on_c, 0, 72, 61
1, 39652, Note_on_c, 0, 72, 0
1, 39666, Note_on_c, 0, 77, 73
1, 39832, Note_on_c, 0, 72, 72
1, 39876, Note_on_c, 0, 77, 0
1, 39902, Note_on_c, 0, 69, 0
1, 39998, Note_on_c, 0, 63, 92
1, 40000, Note_on_c, 0, 78, 83
1, 40024, Note_on_c, 0, 65, 0
1, 40030, Note_on_c, 0, 72, 0
1, 40178, Note_on_c, 0, 69, 51
1, 40296, Note_on_c, 0, 69, 0
1, 40354, Note_on_c, 0, 81, 89
1, 40430, Note_on_c, 0, 63, 0
1, 40442, Note_on_c, 0, 78, 0
1, 40512, Note_on_c, 0, 72, 61
1, 40528, Note_on_c, 0, 65, 57
1, 40570, Note_on_c, 0, 81, 0
1, 40588, Note_on_c, 0, 63, 75
1, 40604, Note_on_c, 0, 65, 0
1, 40626, Note_on_c, 0, 72, 0
1, 40670, Note_on_c, 0, 82, 78
1, 40676, Note_on_c, 0, 61, 83
1, 40716, Note_on_c, 0, 63, 0
1, 40842, Note_on_c, 0, 70, 62
1, 40996, Note_on_c, 0, 58, 65
1, 41016, Note_on_c, 0, 78, 79
1, 41056, Note_on_c, 0, 70, 0
1, 41074, Note_on_c, 0, 61, 0
1, 41106, Note_on_c, 0, 82, 0
1, 41180, Note_on_c, 0, 70, 50
1, 41342, Note_on_c, 0, 60, 74
1, 41358, Note_on_c, 0, 77, 78
1, 41376, Note_on_c, 0, 70, 0
1, 41438, Note_on_c, 0, 78, 0
1, 41474, Note_on_c, 0, 58, 0
1, 41504, Note_on_c, 0, 70, 47
1, 41652, Note_on_c, 0, 70, 0
1, 41655, Note_on_c, 0, 61, 74
1, 41666, Note_on_c, 0, 76, 73
1, 41706, Note_on_c, 0, 60, 0
1, 41714, Note_on_c, 0, 77, 0
1, 41802, Note_on_c, 0, 53, 0
1, 41814, Note_on_c, 0, 70, 52
1, 41950, Note_on_c, 0, 76, 0
1, 41972, Note_on_c, 0, 53, 101
1, 41986, Note_on_c, 0, 60, 71
1, 41986, Note_on_c, 0, 77, 81
1, 42012, Note_on_c, 0, 70, 0
1, 42054, Note_on_c, 0, 61, 0
1, 42156, Note_on_c, 0, 69, 52
1, 42308, Note_on_c, 0, 69, 0
1, 42311, Note_on_c, 0, 72, 74
1, 42410, Note_on_c, 0, 77, 0
1, 42470, Note_on_c, 0, 69, 68
1, 42550, Note_on_c, 0, 72, 0
1, 42626, Note_on_c, 0, 78, 91
1, 42638, Note_on_c, 0, 63, 88
1, 42662, Note_on_c, 0, 69, 0
1, 42712, Note_on_c, 0, 60, 0
1, 42812, Note_on_c, 0, 69, 67
1, 42932, Note_on_c, 0, 69, 0
1, 42992, Note_on_c, 0, 81, 88
1, 43062, Note_on_c, 0, 63, 0
1, 43084, Note_on_c, 0, 78, 0
1, 43132, Note_on_c, 0, 65, 57
1, 43156, Note_on_c, 0, 72, 50
1, 43208, Note_on_c, 0, 65, 0
1, 43208, Note_on_c, 0, 81, 0
1, 43222, Note_on_c, 0, 63, 80
1, 43252, Note_on_c, 0, 72, 0
1, 43312, Note_on_c, 0, 82, 73
1, 43324, Note_on_c, 0, 61, 81
1, 43358, Note_on_c, 0, 63, 0
1, 43498, Note_on_c, 0, 70, 48
1, 43658, Note_on_c, 0, 58, 52
1, 43666, Note_on_c, 0, 78, 70
1, 43680, Note_on_c, 0, 70, 0
1, 43696, Note_on_c, 0, 61, 0
1, 43764, Note_on_c, 0, 82, 0
1, 43824, Note_on_c, 0, 70, 50
1, 43986, Note_on_c, 0, 70, 0
1, 44000, Note_on_c, 0, 60, 55
1, 44014, Note_on_c, 0, 77, 73
1, 44078, Note_on_c, 0, 58, 0
1, 44088, Note_on_c, 0, 78, 0
1, 44146, Note_on_c, 0, 70, 51
1, 44306, Note_on_c, 0, 70, 0
1, 44320, Note_on_c, 0, 61, 60
1, 44326, Note_on_c, 0, 76, 64
1, 44336, Note_on_c, 0, 60, 0
1, 44364, Note_on_c, 0, 77, 0
1, 44478, Note_on_c, 0, 53, 0
1, 44490, Note_on_c, 0, 70, 48
1, 44520, Note_on_c, 0, 76, 0
1, 44640, Note_on_c, 0, 70, 0
1, 44678, Note_on_c, 0, 77, 60
1, 44688, Note_on_c, 0, 60, 46
1, 44690, Note_on_c, 0, 53, 52
1, 44754, Note_on_c, 0, 61, 0
1, 44856, Note_on_c, 0, 69, 34
1, 45002, Note_on_c, 0, 69, 0
1, 45050, Note_on_c, 0, 72, 47
1, 45128, Note_on_c, 0, 77, 0
1, 45180, Note_on_c, 0, 60, 0
1, 45230, Note_on_c, 0, 69, 45
1, 45264, Note_on_c, 0, 72, 0
1, 45358, Note_on_c, 0, 60, 70
1, 45362, Note_on_c, 0, 57, 55
1, 45372, Note_on_c, 0, 77, 74
1, 45384, Note_on_c, 0, 69, 0
1, 45494, Note_on_c, 0, 72, 47
1, 45544, Note_on_c, 0, 77, 0
1, 45584, Note_on_c, 0, 69, 55
1, 45638, Note_on_c, 0, 72, 0
1, 45716, Note_on_c, 0, 77, 73
1, 45726, Note_on_c, 0, 69, 0
1, 45838, Note_on_c, 0, 72, 59
1, 45924, Note_on_c, 0, 77, 0
1, 45926, Note_on_c, 0, 69, 63
1, 45960, Note_on_c, 0, 72, 0
1, 46034, Note_on_c, 0, 61, 83
1, 46036, Note_on_c, 0, 76, 78
1, 46038, Note_on_c, 0, 58, 67
1, 46074, Note_on_c, 0, 69, 0
1, 46080, Note_on_c, 0, 57, 0
1, 46094, Note_on_c, 0, 60, 0
1, 46146, Note_on_c, 0, 70, 52
1, 46242, Note_on_c, 0, 67, 73
1, 46246, Note_on_c, 0, 76, 0
1, 46296, Note_on_c, 0, 70, 0
1, 46382, Note_on_c, 0, 76, 90
1, 46402, Note_on_c, 0, 67, 0
1, 46492, Note_on_c, 0, 70, 69
1, 46584, Note_on_c, 0, 67, 74
1, 46587, Note_on_c, 0, 76, 0
1, 46690, Note_on_c, 0, 60, 92
1, 46694, Note_on_c, 0, 75, 87
1, 46700, Note_on_c, 0, 61, 0
1, 46706, Note_on_c, 0, 57, 75
1, 46726, Note_on_c, 0, 67, 0
1, 46740, Note_on_c, 0, 58, 0
1, 46778, Note_on_c, 0, 70, 0
1, 46816, Note_on_c, 0, 72, 73
1, 46892, Note_on_c, 0, 75, 0
1, 46914, Note_on_c, 0, 65, 72
1, 46974, Note_on_c, 0, 53, 0
1, 46978, Note_on_c, 0, 57, 0
1, 46988, Note_on_c, 0, 72, 0
1, 47028, Note_on_c, 0, 75, 91
1, 47032, Note_on_c, 0, 60, 0
1, 47036, Note_on_c, 0, 65, 0
1, 47132, Note_on_c, 0, 72, 74
1, 47192, Note_on_c, 0, 75, 0
1, 47192, Note_on_c, 0, 65, 62
1, 47216, Note_on_c, 0, 46, 65
1, 47220, Note_on_c, 0, 72, 0
1, 47234, Note_on_c, 0, 65, 0
1, 47260, Note_on_c, 0, 50, 74
1, 47302, Note_on_c, 0, 53, 98
1, 47342, Note_on_c, 0, 62, 74
1, 47376, Note_on_c, 0, 58, 72
1, 47394, Note_on_c, 0, 65, 73
1, 47420, Note_on_c, 0, 70, 94
1, 47880, Note_on_c, 0, 65, 0
1, 47924, Note_on_c, 0, 50, 0
1, 47946, Note_on_c, 0, 62, 0
1, 47956, Note_on_c, 0, 53, 0
1, 47956, Note_on_c, 0, 70, 0
1, 47976, Note_on_c, 0, 46, 0
1, 48050, Note_on_c, 0, 58, 0
1, 48162, Note_on_c, 0, 74, 98
1, 48162, Note_on_c, 0, 56, 78
1, 48165, Note_on_c, 0, 68, 74
1, 48176, Note_on_c, 0, 46, 59
1, 48180, Note_on_c, 0, 70, 54
1, 48186, Note_on_c, 0, 53, 83
1, 48206, Note_on_c, 0, 50, 52
1, 48252, Note_on_c, 0, 70, 0
1, 48732, Note_on_c, 0, 53, 0
1, 48748, Note_on_c, 0, 68, 0
1, 48750, Note_on_c, 0, 46, 0
1, 48760, Note_on_c, 0, 50, 0
1, 48762, Note_on_c, 0, 70, 80
1, 48818, Note_on_c, 0, 74, 0
1, 48842, Note_on_c, 0, 56, 0
1, 48852, Note_on_c, 0, 67, 83
1, 48868, Note_on_c, 0, 70, 0
1, 48950, Note_on_c, 0, 70, 50
1, 48984, Note_on_c, 0, 55, 68
1, 48984, Note_on_c, 0, 46, 52
1, 48994, Note_on_c, 0, 51, 58
1, 49014, Note_on_c, 0, 75, 95
1, 49746, Note_on_c, 0, 67, 0
1, 49770, Note_on_c, 0, 70, 0
1, 50030, Note_on_c, 0, 79, 79
1, 50040, Note_on_c, 0, 75, 0
1, 50120, Note_on_c, 0, 77, 79
1, 50140, Note_on_c, 0, 46, 0
1, 50172, Note_on_c, 0, 79, 0
1, 50202, Note_on_c, 0, 55, 0
1, 50222, Note_on_c, 0, 75, 66
1, 50232, Note_on_c, 0, 51, 0
1, 50236, Note_on_c, 0, 77, 0
1, 50296, Note_on_c, 0, 74, 80
1, 50342, Note_on_c, 0, 75, 0
1, 50350, Note_on_c, 0, 74, 0
1, 50386, Note_on_c, 0, 72, 65
1, 50460, Note_on_c, 0, 70, 68
1, 50492, Note_on_c, 0, 72, 0
1, 50544, Note_on_c, 0, 57, 77
1, 50552, Note_on_c, 0, 46, 58
1, 50554, Note_on_c, 0, 69, 89
1, 50556, Note_on_c, 0, 51, 66
1, 50566, Note_on_c, 0, 48, 57
1, 50584, Note_on_c, 0, 70, 0
1, 50644, Note_on_c, 0, 70, 73
1, 50690, Note_on_c, 0, 69, 0
1, 50749, Note_on_c, 0, 72, 79
1, 50754, Note_on_c, 0, 70, 0
1, 50846, Note_on_c, 0, 74, 84
1, 50872, Note_on_c, 0, 72, 0
1, 50918, Note_on_c, 0, 75, 84
1, 50946, Note_on_c, 0, 74, 0
1, 51014, Note_on_c, 0, 77, 82
1, 51028, Note_on_c, 0, 75, 0
1, 51088, Note_on_c, 0, 79, 97
1, 51118, Note_on_c, 0, 77, 0
1, 51166, Note_on_c, 0, 81, 87
1, 51242, Note_on_c, 0, 79, 0
1, 51256, Note_on_c, 0, 82, 79
1, 51304, Note_on_c, 0, 81, 0
1, 51314, Note_on_c, 0, 82, 0
1, 51330, Note_on_c, 0, 84, 95
1, 51418, Note_on_c, 0, 86, 87
1, 51472, Note_on_c, 0, 84, 0
1, 51502, Note_on_c, 0, 87, 83
1, 51566, Note_on_c, 0, 86, 0
1, 51592, Note_on_c, 0, 89, 92
1, 51654, Note_on_c, 0, 87, 0
1, 51682, Note_on_c, 0, 89, 0
1, 51800, Note_on_c, 0, 87, 81
1, 51808, Note_on_c, 0, 57, 0
1, 51828, Note_on_c, 0, 46, 0
1, 51844, Note_on_c, 0, 51, 0
1, 51856, Note_on_c, 0, 48, 0
1, 51902, Note_on_c, 0, 87, 0
1, 51986, Note_on_c, 0, 58, 41
1, 51998, Note_on_c, 0, 86, 82
1, 51998, Note_on_c, 0, 53, 72
1, 52000, Note_on_c, 0, 46, 31
1, 52006, Note_on_c, 0, 50, 41
1, 52080, Note_on_c, 0, 53, 0
1, 52094, Note_on_c, 0, 50, 0
1, 52110, Note_on_c, 0, 46, 0
1, 52112, Note_on_c, 0, 58, 0
1, 52114, Note_on_c, 0, 86, 0
1, 52184, Note_on_c, 0, 84, 75
1, 52286, Note_on_c, 0, 84, 0
1, 52384, Note_on_c, 0, 82, 65
1, 52504, Note_on_c, 0, 82, 0
1, 52582, Note_on_c, 0, 81, 68
1, 52646, Note_on_c, 0, 81, 0
1, 52782, Note_on_c, 0, 79, 72
1, 52838, Note_on_c, 0, 79, 0
1, 52956, Note_on_c, 0, 77, 54
1, 53070, Note_on_c, 0, 77, 0
1, 53152, Note_on_c, 0, 75, 53
1, 53218, Note_on_c, 0, 75, 0
1, 53362, Note_on_c, 0, 74, 55
1, 53414, Note_on_c, 0, 74, 0
1, 53566, Note_on_c, 0, 57, 70
1, 53569, Note_on_c, 0, 51, 84
1, 53576, Note_on_c, 0, 46, 52
1, 53576, Note_on_c, 0, 72, 64
1, 53584, Note_on_c, 0, 48, 57
1, 53688, Note_on_c, 0, 70, 65
1, 53718, Note_on_c, 0, 72, 0
1, 53798, Note_on_c, 0, 69, 57
1, 53808, Note_on_c, 0, 70, 0
1, 53880, Note_on_c, 0, 70, 57
1, 53936, Note_on_c, 0, 69, 0
1, 53984, Note_on_c, 0, 70, 0
1, 53994, Note_on_c, 0, 72, 69
1, 54082, Note_on_c, 0, 74, 84
1, 54124, Note_on_c, 0, 72, 0
1, 54168, Note_on_c, 0, 75, 77
1, 54184, Note_on_c, 0, 74, 0
1, 54246, Note_on_c, 0, 75, 0
1, 54260, Note_on_c, 0, 77, 83
1, 54334, Note_on_c, 0, 79, 96
1, 54382, Note_on_c, 0, 77, 0
1, 54402, Note_on_c, 0, 81, 85
1, 54464, Note_on_c, 0, 79, 0
1, 54472, Note_on_c, 0, 82, 75
1, 54502, Note_on_c, 0, 81, 0
1, 54504, Note_on_c, 0, 82, 0
1, 54538, Note_on_c, 0, 84, 94
1, 54616, Note_on_c, 0, 86, 81
1, 54658, Note_on_c, 0, 84, 0
1, 54676, Note_on_c, 0, 87, 72
1, 54742, Note_on_c, 0, 89, 95
1, 54746, Note_on_c, 0, 86, 0
1, 54806, Note_on_c, 0, 87, 0
1, 54858, Note_on_c, 0, 57, 0
1, 54870, Note_on_c, 0, 89, 0
1, 54912, Note_on_c, 0, 51, 0
1, 54936, Note_on_c, 0, 87, 90
1, 54956, Note_on_c, 0, 46, 0
1, 54958, Note_on_c, 0, 48, 0
1, 55028, Note_on_c, 0, 87, 0
1, 55128, Note_on_c, 0, 58, 40
1, 55131, Note_on_c, 0, 86, 80
1, 55138, Note_on_c, 0, 46, 34
1, 55142, Note_on_c, 0, 50, 38
1, 55142, Note_on_c, 0, 53, 65
1, 55175, Note_on_c, 0, 87, 69
1, 55178, Note_on_c, 0, 86, 0
1, 55242, Note_on_c, 0, 86, 77
1, 55320, Note_on_c, 0, 87, 0
1, 55340, Note_on_c, 0, 84, 81
1, 55378, Note_on_c, 0, 86, 0
1, 55394, Note_on_c, 0, 84, 0
1, 55532, Note_on_c, 0, 82, 61
1, 55570, Note_on_c, 0, 84, 84
1, 55588, Note_on_c, 0, 82, 0
1, 55660, Note_on_c, 0, 82, 68
1, 55680, Note_on_c, 0, 84, 0
1, 55734, Note_on_c, 0, 81, 76
1, 55772, Note_on_c, 0, 53, 0
1, 55786, Note_on_c, 0, 82, 0
1, 55788, Note_on_c, 0, 58, 0
1, 55791, Note_on_c, 0, 46, 0
1, 55794, Note_on_c, 0, 81, 0
1, 55796, Note_on_c, 0, 50, 0
1, 55922, Note_on_c, 0, 79, 80
1, 55966, Note_on_c, 0, 79, 0
1, 55978, Note_on_c, 0, 81, 70
1, 56040, Note_on_c, 0, 79, 63
1, 56088, Note_on_c, 0, 81, 0
1, 56120, Note_on_c, 0, 77, 71
1, 56158, Note_on_c, 0, 79, 0
1, 56173, Note_on_c, 0, 77, 0
1, 56314, Note_on_c, 0, 75, 63
1, 56362, Note_on_c, 0, 75, 0
1, 56376, Note_on_c, 0, 77, 63
1, 56442, Note_on_c, 0, 75, 54
1, 56498, Note_on_c, 0, 77, 0
1, 56542, Note_on_c, 0, 74, 63
1, 56602, Note_on_c, 0, 75, 0
1, 56660, Note_on_c, 0, 74, 0
1, 56772, Note_on_c, 0, 79, 83
1, 56778, Note_on_c, 0, 51, 34
1, 56798, Note_on_c, 0, 74, 35
1, 57028, Note_on_c, 0, 77, 43
1, 57031, Note_on_c, 0, 55, 45
1, 57072, Note_on_c, 0, 74, 0
1, 57112, Note_on_c, 0, 51, 0
1, 57216, Note_on_c, 0, 75, 43
1, 57219, Note_on_c, 0, 57, 43
1, 57226, Note_on_c, 0, 55, 0
1, 57234, Note_on_c, 0, 77, 0
1, 57384, Note_on_c, 0, 57, 0
1, 57410, Note_on_c, 0, 59, 53
1, 57413, Note_on_c, 0, 74, 59
1, 57416, Note_on_c, 0, 75, 0
1, 57626, Note_on_c, 0, 59, 0
1, 57631, Note_on_c, 0, 75, 46
1, 57635, Note_on_c, 0, 60, 51
1, 57644, Note_on_c, 0, 74, 0
1, 57826, Note_on_c, 0, 82, 53
1, 57838, Note_on_c, 0, 79, 0
1, 58026, Note_on_c, 0, 82, 0
1, 58048, Note_on_c, 0, 81, 56
1, 58222, Note_on_c, 0, 58, 15
1, 58256, Note_on_c, 0, 79, 75
1, 58312, Note_on_c, 0, 81, 0
1, 58332, Note_on_c, 0, 60, 0
1, 58470, Note_on_c, 0, 77, 59
1, 58472, Note_on_c, 0, 57, 38
1, 58476, Note_on_c, 0, 58, 0
1, 58502, Note_on_c, 0, 79, 0
1, 58598, Note_on_c, 0, 75, 0
1, 58648, Note_on_c, 0, 65, 37
1, 58656, Note_on_c, 0, 57, 0
1, 58656, Note_on_c, 0, 74, 49
1, 58818, Note_on_c, 0, 65, 0
1, 58838, Note_on_c, 0, 75, 56
1, 58841, Note_on_c, 0, 67, 42
1, 58846, Note_on_c, 0, 74, 0
1, 59012, Note_on_c, 0, 67, 0
1, 59016, Note_on_c, 0, 72, 54
1, 59022, Note_on_c, 0, 69, 39
1, 59042, Note_on_c, 0, 75, 0
1, 59184, Note_on_c, 0, 72, 0
1, 59220, Note_on_c, 0, 74, 50
1, 59236, Note_on_c, 0, 70, 33
1, 59246, Note_on_c, 0, 69, 0
1, 59428, Note_on_c, 0, 77, 0
1, 59434, Note_on_c, 0, 82, 52
1, 59638, Note_on_c, 0, 81, 64
1, 59700, Note_on_c, 0, 82, 0
1, 59736, Note_on_c, 0, 70, 0
1, 59824, Note_on_c, 0, 79, 66
1, 59864, Note_on_c, 0, 81, 0
1, 59904, Note_on_c, 0, 74, 0
1, 60020, Note_on_c, 0, 77, 58
1, 60024, Note_on_c, 0, 72, 46
1, 60040, Note_on_c, 0, 70, 25
1, 60052, Note_on_c, 0, 79, 0
1, 60052, Note_on_c, 0, 67, 27
1, 60224, Note_on_c, 0, 76, 47
1, 60266, Note_on_c, 0, 77, 0
1, 60428, Note_on_c, 0, 79, 52
1, 60466, Note_on_c, 0, 76, 0
1, 60612, Note_on_c, 0, 77, 44
1, 60632, Note_on_c, 0, 79, 0
1, 60808, Note_on_c, 0, 77, 0
1, 60820, Note_on_c, 0, 76, 33
1, 61016, Note_on_c, 0, 82, 47
1, 61028, Note_on_c, 0, 76, 0
1, 61224, Note_on_c, 0, 81, 61
1, 61330, Note_on_c, 0, 82, 0
1, 61376, Note_on_c, 0, 72, 0
1, 61414, Note_on_c, 0, 79, 69
1, 61448, Note_on_c, 0, 67, 0
1, 61472, Note_on_c, 0, 81, 0
1, 61611, Note_on_c, 0, 73, 59
1, 61612, Note_on_c, 0, 77, 63
1, 61617, Note_on_c, 0, 67, 25
1, 61650, Note_on_c, 0, 79, 0
1, 61808, Note_on_c, 0, 76, 52
1, 61858, Note_on_c, 0, 77, 0
1, 62004, Note_on_c, 0, 79, 64
1, 62056, Note_on_c, 0, 76, 0
1, 62204, Note_on_c, 0, 77, 49
1, 62226, Note_on_c, 0, 79, 0
1, 62382, Note_on_c, 0, 77, 0
1, 62390, Note_on_c, 0, 76, 38
1, 62568, Note_on_c, 0, 76, 0
1, 62573, Note_on_c, 0, 82, 47
1, 62772, Note_on_c, 0, 81, 58
1, 62804, Note_on_c, 0, 82, 0
1, 62941, Note_on_c, 0, 73, 0
1, 62954, Note_on_c, 0, 79, 70
1, 63014, Note_on_c, 0, 81, 0
1, 63154, Note_on_c, 0, 72, 50
1, 63156, Note_on_c, 0, 77, 57
1, 63162, Note_on_c, 0, 79, 0
1, 63344, Note_on_c, 0, 76, 55
1, 63374, Note_on_c, 0, 77, 0
1, 63539, Note_on_c, 0, 79, 73
1, 63608, Note_on_c, 0, 76, 0
1, 63671, Note_on_c, 0, 70, 0
1, 63728, Note_on_c, 0, 77, 69
1, 63752, Note_on_c, 0, 79, 0
1, 63902, Note_on_c, 0, 77, 0
1, 63912, Note_on_c, 0, 76, 56
1, 63928, Note_on_c, 0, 70, 52
1, 64032, Note_on_c, 0, 72, 0
1, 64118, Note_on_c, 0, 82, 63
1, 64176, Note_on_c, 0, 76, 0
1, 64316, Note_on_c, 0, 79, 78
1, 64382, Note_on_c, 0, 82, 0
1, 64502, Note_on_c, 0, 79, 0
1, 64502, Note_on_c, 0, 76, 63
1, 64535, Note_on_c, 0, 67, 0
1, 64700, Note_on_c, 0, 70, 0
1, 64700, Note_on_c, 0, 79, 74
1, 64712, Note_on_c, 0, 65, 25
1, 64712, Note_on_c, 0, 69, 21
1, 64738, Note_on_c, 0, 76, 0
1, 64892, Note_on_c, 0, 77, 57
1, 64946, Note_on_c, 0, 79, 0
1, 65086, Note_on_c, 0, 77, 0
1, 65086, Note_on_c, 0, 76, 42
1, 65276, Note_on_c, 0, 77, 44
1, 65292, Note_on_c, 0, 76, 0
1, 65354, Note_on_c, 0, 69, 0
1, 65382, Note_on_c, 0, 65, 0
1, 65448, Note_on_c, 0, 77, 0
1, 65464, Note_on_c, 0, 76, 44
1, 65658, Note_on_c, 0, 76, 0
1, 65661, Note_on_c, 0, 77, 47
1, 65784, Note_on_c, 0, 55, 39
1, 65790, Note_on_c, 0, 58, 37
1, 65792, Note_on_c, 0, 70, 47
1, 65814, Note_on_c, 0, 77, 0
1, 65826, Note_on_c, 0, 63, 61
1, 65846, Note_on_c, 0, 75, 48
1, 65854, Note_on_c, 0, 67, 77
1, 65868, Note_on_c, 0, 82, 86
1, 65874, Note_on_c, 0, 79, 77
1, 65932, Note_on_c, 0, 70, 0
1, 65934, Note_on_c, 0, 75, 0
1, 65988, Note_on_c, 0, 55, 0
1, 66056, Note_on_c, 0, 58, 0
1, 66062, Note_on_c, 0, 63, 0
1, 66074, Note_on_c, 0, 75, 78
1, 66092, Note_on_c, 0, 82, 0
1, 66092, Note_on_c, 0, 79, 0
1, 66095, Note_on_c, 0, 67, 0
1, 66124, Note_on_c, 0, 75, 0
1, 66262, Note_on_c, 0, 75, 74
1, 66280, Note_on_c, 0, 69, 36
1, 66290, Note_on_c, 0, 65, 32
1, 66470, Note_on_c, 0, 74, 58
1, 66496, Note_on_c, 0, 75, 0
1, 66644, Note_on_c, 0, 74, 0
1, 66650, Note_on_c, 0, 73, 53
1, 66752, Note_on_c, 0, 69, 0
1, 66858, Note_on_c, 0, 65, 0
1, 66858, Note_on_c, 0, 74, 54
1, 66892, Note_on_c, 0, 73, 0
1, 67038, Note_on_c, 0, 74, 0
1, 67050, Note_on_c, 0, 73, 53
1, 67202, Note_on_c, 0, 73, 0
1, 67224, Note_on_c, 0, 74, 59
1, 67310, Note_on_c, 0, 74, 0
1, 67350, Note_on_c, 0, 51, 44
1, 67352, Note_on_c, 0, 55, 37
1, 67358, Note_on_c, 0, 67, 54
1, 67374, Note_on_c, 0, 60, 44
1, 67402, Note_on_c, 0, 72, 59
1, 67405, Note_on_c, 0, 63, 77
1, 67420, Note_on_c, 0, 67, 0
1, 67426, Note_on_c, 0, 75, 79
1, 67446, Note_on_c, 0, 79, 98
1, 67516, Note_on_c, 0, 72, 0
1, 67558, Note_on_c, 0, 51, 0
1, 67558, Note_on_c, 0, 55, 0
1, 67570, Note_on_c, 0, 60, 0
1, 67630, Note_on_c, 0, 79, 0
1, 67660, Note_on_c, 0, 72, 73
1, 67663, Note_on_c, 0, 63, 0
1, 67698, Note_on_c, 0, 75, 0
1, 67716, Note_on_c, 0, 72, 0
1, 67852, Note_on_c, 0, 72, 72
1, 67858, Note_on_c, 0, 65, 39
1, 67884, Note_on_c, 0, 62, 30
1, 68034, Note_on_c, 0, 70, 48
1, 68060, Note_on_c, 0, 72, 0
1, 68238, Note_on_c, 0, 69, 42
1, 68246, Note_on_c, 0, 70, 0
1, 68428, Note_on_c, 0, 70, 47
1, 68446, Note_on_c, 0, 69, 0
1, 68608, Note_on_c, 0, 62, 0
1, 68610, Note_on_c, 0, 65, 0
1, 68612, Note_on_c, 0, 70, 0
1, 68628, Note_on_c, 0, 69, 40
1, 68764, Note_on_c, 0, 69, 0
1, 68796, Note_on_c, 0, 70, 44
1, 68878, Note_on_c, 0, 70, 0
1, 68932, Note_on_c, 0, 65, 50
1, 68935, Note_on_c, 0, 50, 52
1, 68962, Note_on_c, 0, 53, 63
1, 68984, Note_on_c, 0, 70, 45
1, 68992, Note_on_c, 0, 58, 41
1, 69006, Note_on_c, 0, 62, 78
1, 69018, Note_on_c, 0, 74, 76
1, 69021, Note_on_c, 0, 65, 0
1, 69030, Note_on_c, 0, 77, 89
1, 69110, Note_on_c, 0, 70, 0
1, 69128, Note_on_c, 0, 50, 0
1, 69158, Note_on_c, 0, 74, 0
1, 69180, Note_on_c, 0, 62, 0
1, 69180, Note_on_c, 0, 53, 0
1, 69204, Note_on_c, 0, 77, 0
1, 69206, Note_on_c, 0, 70, 58
1, 69209, Note_on_c, 0, 58, 0
1, 69258, Note_on_c, 0, 70, 0
1, 69400, Note_on_c, 0, 69, 72
1, 69406, Note_on_c, 0, 60, 66
1, 69406, Note_on_c, 0, 51, 34
1, 69408, Note_on_c, 0, 53, 44
1, 69412, Note_on_c, 0, 57, 38
1, 69480, Note_on_c, 0, 53, 0
1, 69516, Note_on_c, 0, 79, 76
1, 69530, Note_on_c, 0, 60, 0
1, 69530, Note_on_c, 0, 69, 0
1, 69590, Note_on_c, 0, 57, 0
1, 69610, Note_on_c, 0, 77, 68
1, 69622, Note_on_c, 0, 51, 0
1, 69644, Note_on_c, 0, 79, 0
1, 69704, Note_on_c, 0, 75, 60
1, 69707, Note_on_c, 0, 77, 0
1, 69782, Note_on_c, 0, 74, 74
1, 69824, Note_on_c, 0, 74, 0
1, 69842, Note_on_c, 0, 75, 0
1, 69874, Note_on_c, 0, 72, 58
1, 69960, Note_on_c, 0, 72, 0
1, 69968, Note_on_c, 0, 70, 58
1, 70072, Note_on_c, 0, 69, 60
1, 70075, Note_on_c, 0, 70, 0
1, 70156, Note_on_c, 0, 58, 40
1, 70160, Note_on_c, 0, 62, 56
1, 70168, Note_on_c, 0, 70, 64
1, 70170, Note_on_c, 0, 69, 0
1, 70176, Note_on_c, 0, 53, 68
1, 70176, Note_on_c, 0, 50, 42
1, 70274, Note_on_c, 0, 70, 0
1, 70290, Note_on_c, 0, 77, 73
1, 70308, Note_on_c, 0, 62, 0
1, 70360, Note_on_c, 0, 53, 0
1, 70370, Note_on_c, 0, 50, 0
1, 70372, Note_on_c, 0, 79, 89
1, 70378, Note_on_c, 0, 58, 0
1, 70400, Note_on_c, 0, 77, 0
1, 70466, Note_on_c, 0, 77, 74
1, 70522, Note_on_c, 0, 79, 0
1, 70566, Note_on_c, 0, 75, 67
1, 70608, Note_on_c, 0, 77, 0
1, 70648, Note_on_c, 0, 74, 72
1, 70690, Note_on_c, 0, 74, 0
1, 70716, Note_on_c, 0, 75, 0
1, 70734, Note_on_c, 0, 72, 65
1, 70812, Note_on_c, 0, 72, 0
1, 70818, Note_on_c, 0, 70, 65
1, 70912, Note_on_c, 0, 60, 57
1, 70922, Note_on_c, 0, 70, 0
1, 70922, Note_on_c, 0, 57, 49
1, 70926, Note_on_c, 0, 69, 59
1, 70926, Note_on_c, 0, 51, 48
1, 70926, Note_on_c, 0, 53, 75
1, 70996, Note_on_c, 0, 69, 0
1, 71014, Note_on_c, 0, 79, 85
1, 71080, Note_on_c, 0, 60, 0
1, 71098, Note_on_c, 0, 53, 0
1, 71108, Note_on_c, 0, 77, 72
1, 71120, Note_on_c, 0, 57, 0
1, 71134, Note_on_c, 0, 51, 0
1, 71137, Note_on_c, 0, 79, 0
1, 71202, Note_on_c, 0, 75, 73
1, 71230, Note_on_c, 0, 77, 0
1, 71296, Note_on_c, 0, 74, 77
1, 71358, Note_on_c, 0, 75, 0
1, 71388, Note_on_c, 0, 72, 60
1, 71396, Note_on_c, 0, 74, 0
1, 71476, Note_on_c, 0, 70, 67
1, 71518, Note_on_c, 0, 72, 0
1, 71568, Note_on_c, 0, 69, 69
1, 71596, Note_on_c, 0, 70, 0
1, 71668, Note_on_c, 0, 70, 63
1, 71682, Note_on_c, 0, 62, 60
1, 71688, Note_on_c, 0, 58, 41
1, 71702, Note_on_c, 0, 50, 52
1, 71706, Note_on_c, 0, 69, 0
1, 71716, Note_on_c, 0, 53, 75
1, 71764, Note_on_c, 0, 70, 0
1, 71772, Note_on_c, 0, 72, 76
1, 71796, Note_on_c, 0, 62, 0
1, 71844, Note_on_c, 0, 50, 0
1, 71847, Note_on_c, 0, 53, 0
1, 71854, Note_on_c, 0, 58, 0
1, 71872, Note_on_c, 0, 74, 85
1, 71898, Note_on_c, 0, 72, 0
1, 71958, Note_on_c, 0, 75, 81
1, 71982, Note_on_c, 0, 74, 0
1, 72018, Note_on_c, 0, 75, 0
1, 72062, Note_on_c, 0, 77, 81
1, 72142, Note_on_c, 0, 79, 92
1, 72192, Note_on_c, 0, 77, 0
1, 72240, Note_on_c, 0, 81, 84
1, 72274, Note_on_c, 0, 79, 0
1, 72338, Note_on_c, 0, 82, 76
1, 72348, Note_on_c, 0, 81, 0
1, 72456, Note_on_c, 0, 80, 90
1, 72462, Note_on_c, 0, 82, 0
1, 72472, Note_on_c, 0, 58, 42
1, 72478, Note_on_c, 0, 62, 59
1, 72480, Note_on_c, 0, 53, 71
1, 72481, Note_on_c, 0, 56, 44
1, 72484, Note_on_c, 0, 50, 46
1, 72580, Note_on_c, 0, 82, 81
1, 72654, Note_on_c, 0, 80, 0
1, 72692, Note_on_c, 0, 84, 89
1, 72722, Note_on_c, 0, 82, 0
1, 72788, Note_on_c, 0, 82, 64
1, 72878, Note_on_c, 0, 84, 0
1, 72884, Note_on_c, 0, 80, 79
1, 72946, Note_on_c, 0, 82, 0
1, 72980, Note_on_c, 0, 79, 85
1, 73040, Note_on_c, 0, 80, 0
1, 73066, Note_on_c, 0, 79, 0
1, 73072, Note_on_c, 0, 77, 67
1, 73162, Note_on_c, 0, 75, 58
1, 73198, Note_on_c, 0, 77, 0
1, 73222, Note_on_c, 0, 75, 0
1, 73236, Note_on_c, 0, 74, 76
1, 73336, Note_on_c, 0, 75, 62
1, 73350, Note_on_c, 0, 74, 0
1, 73424, Note_on_c, 0, 77, 69
1, 73448, Note_on_c, 0, 75, 0
1, 73514, Note_on_c, 0, 75, 64
1, 73550, Note_on_c, 0, 77, 0
1, 73616, Note_on_c, 0, 74, 69
1, 73658, Note_on_c, 0, 75, 0
1, 73660, Note_on_c, 0, 50, 0
1, 73668, Note_on_c, 0, 62, 0
1, 73672, Note_on_c, 0, 74, 0
1, 73710, Note_on_c, 0, 72, 50
1, 73722, Note_on_c, 0, 56, 0
1, 73725, Note_on_c, 0, 58, 0
1, 73740, Note_on_c, 0, 53, 0
1, 73792, Note_on_c, 0, 70, 58
1, 73806, Note_on_c, 0, 72, 0
1, 73898, Note_on_c, 0, 68, 60
1, 73940, Note_on_c, 0, 70, 0
1, 74038, Note_on_c, 0, 68, 0
1, 74048, Note_on_c, 0, 63, 33
1, 74056, Note_on_c, 0, 67, 62
1, 74064, Note_on_c, 0, 58, 24
1, 74076, Note_on_c, 0, 51, 21
1, 74082, Note_on_c, 0, 55, 22
1, 74216, Note_on_c, 0, 67, 0
1, 74256, Note_on_c, 0, 79, 71
1, 74312, Note_on_c, 0, 79, 0
1, 74444, Note_on_c, 0, 78, 68
1, 74504, Note_on_c, 0, 78, 0
1, 74630, Note_on_c, 0, 81, 67
1, 74680, Note_on_c, 0, 81, 0
1, 74822, Note_on_c, 0, 79, 67
1, 74858, Note_on_c, 0, 55, 0
1, 74872, Note_on_c, 0, 79, 0
1, 74886, Note_on_c, 0, 58, 0
1, 74900, Note_on_c, 0, 63, 0
1, 74932, Note_on_c, 0, 51, 0
1, 74994, Note_on_c, 0, 82, 50
1, 75052, Note_on_c, 0, 82, 0
1, 75200, Note_on_c, 0, 78, 51
1, 75254, Note_on_c, 0, 78, 0
1, 75402, Note_on_c, 0, 81, 51
1, 75456, Note_on_c, 0, 81, 0
1, 75584, Note_on_c, 0, 79, 74
1, 75636, Note_on_c, 0, 79, 0
1, 75764, Note_on_c, 0, 82, 54
1, 75830, Note_on_c, 0, 82, 0
1, 75950, Note_on_c, 0, 78, 70
1, 75954, Note_on_c, 0, 66, 50
1, 76008, Note_on_c, 0, 66, 0
1, 76040, Note_on_c, 0, 78, 0
1, 76144, Note_on_c, 0, 81, 76
1, 76154, Note_on_c, 0, 69, 49
1, 76220, Note_on_c, 0, 69, 0
1, 76236, Note_on_c, 0, 81, 0
1, 76328, Note_on_c, 0, 79, 86
1, 76340, Note_on_c, 0, 67, 69
1, 76392, Note_on_c, 0, 67, 0
1, 76412, Note_on_c, 0, 79, 0
1, 76516, Note_on_c, 0, 82, 65
1, 76524, Note_on_c, 0, 70, 50
1, 76618, Note_on_c, 0, 70, 0
1, 76644, Note_on_c, 0, 82, 0
1, 76728, Note_on_c, 0, 79, 73
1, 76740, Note_on_c, 0, 67, 51
1, 76848, Note_on_c, 0, 67, 0
1, 76870, Note_on_c, 0, 75, 50
1, 76878, Note_on_c, 0, 79, 0
1, 76882, Note_on_c, 0, 63, 57
1, 76992, Note_on_c, 0, 63, 0
1, 77006, Note_on_c, 0, 75, 0
1, 77006, Note_on_c, 0, 72, 67
1, 77026, Note_on_c, 0, 60, 41
1, 77090, Note_on_c, 0, 60, 0
1, 77182, Note_on_c, 0, 70, 72
1, 77224, Note_on_c, 0, 53, 68
1, 77229, Note_on_c, 0, 62, 48
1, 77284, Note_on_c, 0, 72, 0
1, 77744, Note_on_c, 0, 70, 0
1, 77746, Note_on_c, 0, 72, 55
1, 77802, Note_on_c, 0, 70, 62
1, 77805, Note_on_c, 0, 72, 0
1, 77864, Note_on_c, 0, 70, 0
1, 77866, Note_on_c, 0, 69, 61
1, 77932, Note_on_c, 0, 69, 0
1, 77942, Note_on_c, 0, 70, 62
1, 78046, Note_on_c, 0, 74, 86
1, 78048, Note_on_c, 0, 62, 0
1, 78060, Note_on_c, 0, 63, 51
1, 78068, Note_on_c, 0, 69, 48
1, 78084, Note_on_c, 0, 70, 0
1, 78686, Note_on_c, 0, 72, 61
1, 78712, Note_on_c, 0, 74, 0
1, 78850, Note_on_c, 0, 63, 0
1, 78942, Note_on_c, 0, 58, 25
1, 78944, Note_on_c, 0, 70, 56
1, 78944, Note_on_c, 0, 62, 35
1, 78958, Note_on_c, 0, 69, 0
1, 78990, Note_on_c, 0, 53, 0
1, 78996, Note_on_c, 0, 72, 0
1, 79258, Note_on_c, 0, 62, 0
1, 79274, Note_on_c, 0, 70, 0
1, 79280, Note_on_c, 0, 58, 0
1, 79698, Note_on_c, 0, 89, 44
1, 79750, Note_on_c, 0, 74, 47
1, 79756, Note_on_c, 0, 86, 59
1, 79762, Note_on_c, 0, 89, 0
1, 79768, Note_on_c, 0, 70, 28
1, 79806, Note_on_c, 0, 74, 0
1, 79812, Note_on_c, 0, 86, 0
1, 79832, Note_on_c, 0, 70, 0
1, 80066, Note_on_c, 0, 89, 52
1, 80118, Note_on_c, 0, 72, 35
1, 80124, Note_on_c, 0, 65, 39
1, 80128, Note_on_c, 0, 89, 0
1, 80132, Note_on_c, 0, 84, 66
1, 80182, Note_on_c, 0, 65, 0
1, 80194, Note_on_c, 0, 84, 0
1, 80194, Note_on_c, 0, 72, 0
1, 80434, Note_on_c, 0, 89, 51
1, 80486, Note_on_c, 0, 70, 36
1, 80494, Note_on_c, 0, 82, 61
1, 80514, Note_on_c, 0, 62, 28
1, 80530, Note_on_c, 0, 89, 0
1, 80624, Note_on_c, 0, 82, 0
1, 80646, Note_on_c, 0, 70, 0
1, 80662, Note_on_c, 0, 62, 0
1, 80816, Note_on_c, 0, 89, 48
1, 80874, Note_on_c, 0, 89, 0
1, 80898, Note_on_c, 0, 77, 58
1, 80962, Note_on_c, 0, 77, 0
1, 81202, Note_on_c, 0, 89, 48
1, 81264, Note_on_c, 0, 74, 47
1, 81268, Note_on_c, 0, 86, 68
1, 81274, Note_on_c, 0, 70, 32
1, 81282, Note_on_c, 0, 89, 0
1, 81332, Note_on_c, 0, 86, 0
1, 81335, Note_on_c, 0, 74, 0
1, 81350, Note_on_c, 0, 70, 0
1, 81590, Note_on_c, 0, 89, 54
1, 81654, Note_on_c, 0, 72, 43
1, 81660, Note_on_c, 0, 84, 71
1, 81666, Note_on_c, 0, 65, 31
1, 81669, Note_on_c, 0, 89, 0
1, 81726, Note_on_c, 0, 72, 0
1, 81734, Note_on_c, 0, 84, 0
1, 81748, Note_on_c, 0, 65, 0
1, 81968, Note_on_c, 0, 89, 46
1, 82020, Note_on_c, 0, 70, 36
1, 82034, Note_on_c, 0, 62, 31
1, 82040, Note_on_c, 0, 82, 50
1, 82098, Note_on_c, 0, 89, 0
1, 82140, Note_on_c, 0, 82, 0
1, 82168, Note_on_c, 0, 62, 0
1, 82180, Note_on_c, 0, 70, 0
1, 82342, Note_on_c, 0, 89, 49
1, 82396, Note_on_c, 0, 89, 0
1, 82428, Note_on_c, 0, 77, 56
1, 82492, Note_on_c, 0, 77, 0
1, 82722, Note_on_c, 0, 89, 52
1, 82796, Note_on_c, 0, 70, 32
1, 82800, Note_on_c, 0, 89, 0
1, 82800, Note_on_c, 0, 80, 55
1, 82812, Note_on_c, 0, 62, 33
1, 82886, Note_on_c, 0, 62, 0
1, 82892, Note_on_c, 0, 80, 0
1, 82892, Note_on_c, 0, 70, 0
1, 83100, Note_on_c, 0, 89, 44
1, 83154, Note_on_c, 0, 78, 67
1, 83168, Note_on_c, 0, 89, 0
1, 83174, Note_on_c, 0, 70, 29
1, 83176, Note_on_c, 0, 62, 46
1, 83242, Note_on_c, 0, 62, 0
1, 83248, Note_on_c, 0, 70, 0
1, 83262, Note_on_c, 0, 78, 0
1, 83436, Note_on_c, 0, 89, 56
1, 83492, Note_on_c, 0, 89, 0
1, 83524, Note_on_c, 0, 79, 72
1, 83548, Note_on_c, 0, 70, 29
1, 83550, Note_on_c, 0, 63, 41
1, 83598, Note_on_c, 0, 79, 0
1, 83814, Note_on_c, 0, 83, 79
1, 83860, Note_on_c, 0, 83, 0
1, 83860, Note_on_c, 0, 70, 0
1, 83892, Note_on_c, 0, 84, 83
1, 83910, Note_on_c, 0, 67, 60
1, 83996, Note_on_c, 0, 84, 0
1, 84170, Note_on_c, 0, 86, 56
1, 84254, Note_on_c, 0, 87, 70
1, 84282, Note_on_c, 0, 67, 0
1, 84282, Note_on_c, 0, 72, 64
1, 84285, Note_on_c, 0, 86, 0
1, 84360, Note_on_c, 0, 87, 0
1, 84556, Note_on_c, 0, 63, 0
1, 84568, Note_on_c, 0, 86, 54
1, 84620, Note_on_c, 0, 86, 0
1, 84632, Note_on_c, 0, 64, 49
1, 84648, Note_on_c, 0, 84, 65
1, 84738, Note_on_c, 0, 84, 0
1, 84920, Note_on_c, 0, 82, 48
1, 84994, Note_on_c, 0, 64, 0
1, 85002, Note_on_c, 0, 81, 79
1, 85006, Note_on_c, 0, 65, 37
1, 85050, Note_on_c, 0, 82, 0
1, 85058, Note_on_c, 0, 81, 0
1, 85280, Note_on_c, 0, 79, 51
1, 85334, Note_on_c, 0, 79, 0
1, 85354, Note_on_c, 0, 65, 0
1, 85356, Note_on_c, 0, 77, 59
1, 85362, Note_on_c, 0, 67, 34
1, 85450, Note_on_c, 0, 72, 0
1, 85482, Note_on_c, 0, 77, 0
1, 85620, Note_on_c, 0, 76, 40
1, 85688, Note_on_c, 0, 76, 0
1, 85702, Note_on_c, 0, 67, 0
1, 85712, Note_on_c, 0, 77, 62
1, 85718, Note_on_c, 0, 69, 25
1, 85794, Note_on_c, 0, 77, 0
1, 85830, Note_on_c, 0, 69, 0
1, 85990, Note_on_c, 0, 79, 38
1, 86064, Note_on_c, 0, 79, 0
1, 86078, Note_on_c, 0, 77, 42
1, 86078, Note_on_c, 0, 65, 20
1, 86092, Note_on_c, 0, 57, 23
1, 86142, Note_on_c, 0, 77, 0
1, 86334, Note_on_c, 0, 75, 38
1, 86368, Note_on_c, 0, 57, 0
1, 86390, Note_on_c, 0, 75, 0
1, 86426, Note_on_c, 0, 65, 0
1, 86476, Note_on_c, 0, 73, 71
1, 86484, Note_on_c, 0, 58, 39
1, 86492, Note_on_c, 0, 61, 41
1, 86568, Note_on_c, 0, 75, 69
1, 86594, Note_on_c, 0, 73, 0
1, 86602, Note_on_c, 0, 61, 0
1, 86616, Note_on_c, 0, 58, 0
1, 86650, Note_on_c, 0, 65, 39
1, 86658, Note_on_c, 0, 73, 61
1, 86694, Note_on_c, 0, 75, 0
1, 86762, Note_on_c, 0, 72, 61
1, 86786, Note_on_c, 0, 73, 0
1, 86786, Note_on_c, 0, 65, 0
1, 86810, Note_on_c, 0, 61, 48
1, 86816, Note_on_c, 0, 58, 36
1, 86820, Note_on_c, 0, 70, 70
1, 86830, Note_on_c, 0, 72, 0
1, 86876, Note_on_c, 0, 70, 0
1, 87010, Note_on_c, 0, 70, 74
1, 87020, Note_on_c, 0, 65, 43
1, 87088, Note_on_c, 0, 70, 0
1, 87122, Note_on_c, 0, 61, 0
1, 87204, Note_on_c, 0, 65, 0
1, 87204, Note_on_c, 0, 75, 84
1, 87212, Note_on_c, 0, 58, 0
1, 87216, Note_on_c, 0, 57, 52
1, 87224, Note_on_c, 0, 60, 56
1, 87288, Note_on_c, 0, 77, 83
1, 87314, Note_on_c, 0, 75, 0
1, 87372, Note_on_c, 0, 75, 76
1, 87409, Note_on_c, 0, 65, 46
1, 87426, Note_on_c, 0, 77, 0
1, 87442, Note_on_c, 0, 57, 0
1, 87456, Note_on_c, 0, 60, 0
1, 87476, Note_on_c, 0, 73, 71
1, 87532, Note_on_c, 0, 75, 0
1, 87564, Note_on_c, 0, 72, 87
1, 87594, Note_on_c, 0, 65, 0
1, 87598, Note_on_c, 0, 60, 49
1, 87604, Note_on_c, 0, 73, 0
1, 87604, Note_on_c, 0, 57, 51
1, 87640, Note_on_c, 0, 72, 0
1, 87772, Note_on_c, 0, 72, 82
1, 87790, Note_on_c, 0, 65, 52
1, 87798, Note_on_c, 0, 60, 0
1, 87820, Note_on_c, 0, 72, 0
1, 87948, Note_on_c, 0, 57, 0
1, 87968, Note_on_c, 0, 65, 0
1, 87968, Note_on_c, 0, 58, 39
1, 87971, Note_on_c, 0, 73, 57
1, 87986, Note_on_c, 0, 61, 39
1, 88026, Note_on_c, 0, 73, 0
1, 88052, Note_on_c, 0, 75, 45
1, 88132, Note_on_c, 0, 73, 41
1, 88136, Note_on_c, 0, 75, 0
1, 88156, Note_on_c, 0, 65, 35
1, 88159, Note_on_c, 0, 61, 0
1, 88216, Note_on_c, 0, 58, 0
1, 88248, Note_on_c, 0, 73, 0
1, 88254, Note_on_c, 0, 72, 42
1, 88316, Note_on_c, 0, 72, 0
1, 88316, Note_on_c, 0, 70, 48
1, 88326, Note_on_c, 0, 65, 0
1, 88338, Note_on_c, 0, 58, 21
1, 88344, Note_on_c, 0, 61, 34
1, 88376, Note_on_c, 0, 70, 0
1, 88534, Note_on_c, 0, 70, 47
1, 88546, Note_on_c, 0, 65, 37
1, 88588, Note_on_c, 0, 70, 0
1, 88600, Note_on_c, 0, 61, 0
1, 88680, Note_on_c, 0, 58, 0
1, 88720, Note_on_c, 0, 65, 0
1, 88723, Note_on_c, 0, 75, 52
1, 88738, Note_on_c, 0, 57, 29
1, 88766, Note_on_c, 0, 60, 38
1, 88778, Note_on_c, 0, 75, 0
1, 88812, Note_on_c, 0, 77, 48
1, 88876, Note_on_c, 0, 75, 32
1, 88882, Note_on_c, 0, 77, 0
1, 88928, Note_on_c, 0, 57, 0
1, 88930, Note_on_c, 0, 65, 27
1, 88956, Note_on_c, 0, 60, 0
1, 88972, Note_on_c, 0, 73, 42
1, 88990, Note_on_c, 0, 75, 0
1, 89046, Note_on_c, 0, 73, 0
1, 89066, Note_on_c, 0, 65, 0
1, 89080, Note_on_c, 0, 72, 57
1, 89092, Note_on_c, 0, 57, 23
1, 89134, Note_on_c, 0, 72, 0
1, 89146, Note_on_c, 0, 60, 19
1, 89194, Note_on_c, 0, 57, 0
1, 89250, Note_on_c, 0, 60, 0
1, 89294, Note_on_c, 0, 72, 49
1, 89350, Note_on_c, 0, 72, 0
1, 89480, Note_on_c, 0, 73, 57
1, 89498, Note_on_c, 0, 61, 47
1, 89500, Note_on_c, 0, 49, 47
1, 89542, Note_on_c, 0, 73, 0
1, 89566, Note_on_c, 0, 75, 55
1, 89638, Note_on_c, 0, 61, 0
1, 89686, Note_on_c, 0, 75, 0
1, 89690, Note_on_c, 0, 49, 0
1, 89690, Note_on_c, 0, 73, 47
1, 89756, Note_on_c, 0, 73, 0
1, 89770, Note_on_c, 0, 72, 51
1, 89844, Note_on_c, 0, 72, 0
1, 89864, Note_on_c, 0, 70, 66
1, 89868, Note_on_c, 0, 58, 65
1, 89870, Note_on_c, 0, 46, 73
1, 89952, Note_on_c, 0, 72, 54
1, 89972, Note_on_c, 0, 70, 0
1, 90030, Note_on_c, 0, 70, 64
1, 90036, Note_on_c, 0, 58, 0
1, 90092, Note_on_c, 0, 72, 0
1, 90102, Note_on_c, 0, 46, 0
1, 90148, Note_on_c, 0, 68, 67
1, 90178, Note_on_c, 0, 70, 0
1, 90222, Note_on_c, 0, 54, 93
1, 90228, Note_on_c, 0, 42, 84
1, 90242, Note_on_c, 0, 66, 71
1, 90256, Note_on_c, 0, 68, 0
1, 90316, Note_on_c, 0, 68, 73
1, 90342, Note_on_c, 0, 66, 0
1, 90404, Note_on_c, 0, 66, 70
1, 90418, Note_on_c, 0, 54, 0
1, 90448, Note_on_c, 0, 68, 0
1, 90472, Note_on_c, 0, 42, 0
1, 90500, Note_on_c, 0, 65, 60
1, 90512, Note_on_c, 0, 66, 0
1, 90578, Note_on_c, 0, 51, 90
1, 90586, Note_on_c, 0, 39, 86
1, 90590, Note_on_c, 0, 63, 84
1, 90608, Note_on_c, 0, 65, 0
1, 90676, Note_on_c, 0, 65, 79
1, 90694, Note_on_c, 0, 63, 0
1, 90728, Note_on_c, 0, 51, 0
1, 90764, Note_on_c, 0, 63, 80
1, 90772, Note_on_c, 0, 39, 0
1, 90802, Note_on_c, 0, 65, 0
1, 90850, Note_on_c, 0, 61, 74
1, 90894, Note_on_c, 0, 63, 0
1, 90958, Note_on_c, 0, 61, 0
1, 90972, Note_on_c, 0, 60, 75
1, 90978, Note_on_c, 0, 48, 88
1, 90980, Note_on_c, 0, 36, 90
1, 91087, Note_on_c, 0, 61, 62
1, 91132, Note_on_c, 0, 60, 0
1, 91180, Note_on_c, 0, 63, 69
1, 91183, Note_on_c, 0, 61, 0
1, 91258, Note_on_c, 0, 61, 61
1, 91312, Note_on_c, 0, 63, 0
1, 91376, Note_on_c, 0, 60, 59
1, 91378, Note_on_c, 0, 61, 0
1, 91456, Note_on_c, 0, 48, 0
1, 91462, Note_on_c, 0, 61, 43
1, 91488, Note_on_c, 0, 60, 0
1, 91562, Note_on_c, 0, 63, 62
1, 91576, Note_on_c, 0, 61, 0
1, 91652, Note_on_c, 0, 61, 54
1, 91698, Note_on_c, 0, 63, 0
1, 91698, Note_on_c, 0, 36, 0
1, 91740, Note_on_c, 0, 46, 76
1, 91748, Note_on_c, 0, 34, 79
1, 91766, Note_on_c, 0, 61, 0
1, 91766, Note_on_c, 0, 60, 71
1, 91852, Note_on_c, 0, 61, 58
1, 91901, Note_on_c, 0, 60, 0
1, 91936, Note_on_c, 0, 63, 65
1, 91958, Note_on_c, 0, 61, 0
1, 92024, Note_on_c, 0, 61, 70
1, 92070, Note_on_c, 0, 63, 0
1, 92126, Note_on_c, 0, 60, 58
1, 92142, Note_on_c, 0, 61, 0
1, 92210, Note_on_c, 0, 61, 62
1, 92254, Note_on_c, 0, 60, 0
1, 92318, Note_on_c, 0, 63, 58
1, 92328, Note_on_c, 0, 61, 0
1, 92396, Note_on_c, 0, 61, 64
1, 92416, Note_on_c, 0, 46, 0
1, 92419, Note_on_c, 0, 63, 0
1, 92498, Note_on_c, 0, 61, 0
1, 92498, Note_on_c, 0, 45, 67
1, 92504, Note_on_c, 0, 60, 62
1, 92506, Note_on_c, 0, 33, 74
1, 92532, Note_on_c, 0, 34, 0
1, 92582, Note_on_c, 0, 61, 55
1, 92628, Note_on_c, 0, 60, 0
1, 92682, Note_on_c, 0, 63, 60
1, 92696, Note_on_c, 0, 61, 0
1, 92772, Note_on_c, 0, 61, 55
1, 92810, Note_on_c, 0, 63, 0
1, 92860, Note_on_c, 0, 61, 0
1, 92876, Note_on_c, 0, 60, 52
1, 92958, Note_on_c, 0, 61, 44
1, 92961, Note_on_c, 0, 45, 0
1, 93000, Note_on_c, 0, 60, 0
1, 93070, Note_on_c, 0, 63, 51
1, 93076, Note_on_c, 0, 61, 0
1, 93154, Note_on_c, 0, 61, 50
1, 93156, Note_on_c, 0, 63, 0
1, 93256, Note_on_c, 0, 61, 0
1, 93270, Note_on_c, 0, 60, 50
1, 93272, Note_on_c, 0, 42, 61
1, 93272, Note_on_c, 0, 30, 59
1, 93282, Note_on_c, 0, 33, 0
1, 93346, Note_on_c, 0, 61, 44
1, 93376, Note_on_c, 0, 60, 0
1, 93452, Note_on_c, 0, 63, 55
1, 93468, Note_on_c, 0, 61, 0
1, 93544, Note_on_c, 0, 61, 54
1, 93580, Note_on_c, 0, 63, 0
1, 93652, Note_on_c, 0, 61, 0
1, 93662, Note_on_c, 0, 60, 43
1, 93734, Note_on_c, 0, 61, 46
1, 93766, Note_on_c, 0, 60, 0
1, 93854, Note_on_c, 0, 61, 0
1, 93857, Note_on_c, 0, 63, 47
1, 93932, Note_on_c, 0, 61, 50
1, 93934, Note_on_c, 0, 63, 0
1, 93950, Note_on_c, 0, 42, 0
1, 94052, Note_on_c, 0, 61, 0
1, 94062, Note_on_c, 0, 60, 47
1, 94068, Note_on_c, 0, 30, 0
1, 94068, Note_on_c, 0, 29, 42
1, 94068, Note_on_c, 0, 41, 49
1, 94166, Note_on_c, 0, 60, 0
1, 94168, Note_on_c, 0, 62, 36
1, 94226, Note_on_c, 0, 62, 0
1, 94240, Note_on_c, 0, 63, 49
1, 94328, Note_on_c, 0, 62, 32
1, 94362, Note_on_c, 0, 63, 0
1, 94410, Note_on_c, 0, 62, 0
1, 94442, Note_on_c, 0, 60, 44
1, 94524, Note_on_c, 0, 62, 34
1, 94527, Note_on_c, 0, 60, 0
1, 94604, Note_on_c, 0, 62, 0
1, 94618, Note_on_c, 0, 63, 51
1, 94712, Note_on_c, 0, 63, 0
1, 94716, Note_on_c, 0, 62, 38
1, 94794, Note_on_c, 0, 62, 0
1, 94824, Note_on_c, 0, 60, 48
1, 94902, Note_on_c, 0, 60, 0
1, 94902, Note_on_c, 0, 62, 39
1, 94972, Note_on_c, 0, 62, 0
1, 95000, Note_on_c, 0, 63, 36
1, 95074, Note_on_c, 0, 62, 41
1, 95076, Note_on_c, 0, 63, 0
1, 95150, Note_on_c, 0, 62, 0
1, 95186, Note_on_c, 0, 60, 34
1, 95252, Note_on_c, 0, 62, 39
1, 95264, Note_on_c, 0, 60, 0
1, 95324, Note_on_c, 0, 62, 0
1, 95352, Note_on_c, 0, 63, 43
1, 95430, Note_on_c, 0, 62, 34
1, 95433, Note_on_c, 0, 63, 0
1, 95506, Note_on_c, 0, 62, 0
1, 95530, Note_on_c, 0, 60, 47
1, 95604, Note_on_c, 0, 62, 46
1, 95616, Note_on_c, 0, 60, 0
1, 95680, Note_on_c, 0, 62, 0
1, 95694, Note_on_c, 0, 63, 60
1, 95786, Note_on_c, 0, 62, 50
1, 95802, Note_on_c, 0, 63, 0
1, 95884, Note_on_c, 0, 62, 0
1, 95886, Note_on_c, 0, 60, 59
1, 95960, Note_on_c, 0, 62, 67
1, 95974, Note_on_c, 0, 60, 0
1, 96056, Note_on_c, 0, 63, 77
1, 96068, Note_on_c, 0, 62, 0
1, 96140, Note_on_c, 0, 62, 77
1, 96172, Note_on_c, 0, 63, 0
1, 96238, Note_on_c, 0, 62, 0
1, 96241, Note_on_c, 0, 60, 73
1, 96308, Note_on_c, 0, 62, 65
1, 96358, Note_on_c, 0, 29, 0
1, 96362, Note_on_c, 0, 60, 0
1, 96374, Note_on_c, 0, 41, 0
1, 96398, Note_on_c, 0, 63, 85
1, 96438, Note_on_c, 0, 62, 0
1, 96500, Note_on_c, 0, 65, 67
1, 96534, Note_on_c, 0, 63, 0
1, 96542, Note_on_c, 0, 65, 0
1, 96580, Note_on_c, 0, 67, 91
1, 96670, Note_on_c, 0, 69, 85
1, 96706, Note_on_c, 0, 67, 0
1, 96756, Note_on_c, 0, 70, 70
1, 96820, Note_on_c, 0, 69, 0
1, 96834, Note_on_c, 0, 72, 87
1, 96900, Note_on_c, 0, 70, 0
1, 96936, Note_on_c, 0, 74, 107
1, 96936, Note_on_c, 0, 65, 92
1, 96944, Note_on_c, 0, 70, 91
1, 96944, Note_on_c, 0, 58, 72
1, 96948, Note_on_c, 0, 62, 82
1, 96978, Note_on_c, 0, 72, 0
1, 97364, Note_on_c, 0, 65, 0
1, 97390, Note_on_c, 0, 70, 0
1, 97420, Note_on_c, 0, 74, 0
1, 97426, Note_on_c, 0, 62, 0
1, 97540, Note_on_c, 0, 58, 0
1, 97700, Note_on_c, 0, 57, 65
1, 97712, Note_on_c, 0, 65, 76
1, 97714, Note_on_c, 0, 60, 69
1, 97718, Note_on_c, 0, 77, 104
1, 97722, Note_on_c, 0, 72, 81
1, 98160, Note_on_c, 0, 72, 0
1, 98176, Note_on_c, 0, 57, 0
1, 98184, Note_on_c, 0, 60, 0
1, 98332, Note_on_c, 0, 65, 0
1, 98394, Note_on_c, 0, 55, 61
1, 98420, Note_on_c, 0, 58, 40
1, 98456, Note_on_c, 0, 70, 58
1, 98486, Note_on_c, 0, 63, 66
1, 98524, Note_on_c, 0, 75, 57
1, 98534, Note_on_c, 0, 82, 95
1, 98560, Note_on_c, 0, 77, 0
1, 99252, Note_on_c, 0, 63, 0
1, 99257, Note_on_c, 0, 70, 0
1, 99262, Note_on_c, 0, 55, 0
1, 99288, Note_on_c, 0, 75, 0
1, 99308, Note_on_c, 0, 58, 0
1, 99820, Note_on_c, 0, 81, 49
1, 99878, Note_on_c, 0, 82, 0
1, 99896, Note_on_c, 0, 81, 0
1, 99900, Note_on_c, 0, 79, 52
1, 99952, Note_on_c, 0, 79, 0
1, 99952, Note_on_c, 0, 77, 59
1, 100002, Note_on_c, 0, 77, 0
1, 100008, Note_on_c, 0, 70, 25
1, 100008, Note_on_c, 0, 75, 63
1, 100020, Note_on_c, 0, 67, 28
1, 100258, Note_on_c, 0, 70, 0
1, 100274, Note_on_c, 0, 75, 0
1, 100320, Note_on_c, 0, 67, 0
1, 100574, Note_on_c, 0, 70, 38
1, 100578, Note_on_c, 0, 74, 68
1, 100582, Note_on_c, 0, 65, 28
1, 100798, Note_on_c, 0, 79, 72
1, 100806, Note_on_c, 0, 63, 44
1, 100808, Note_on_c, 0, 65, 0
1, 100822, Note_on_c, 0, 74, 0
1, 101024, Note_on_c, 0, 63, 0
1, 101046, Note_on_c, 0, 79, 0
1, 101049, Note_on_c, 0, 70, 0
1, 101454, Note_on_c, 0, 77, 39
1, 101456, Note_on_c, 0, 61, 27
1, 101456, Note_on_c, 0, 70, 15
1, 101474, Note_on_c, 0, 65, 8
1, 101678, Note_on_c, 0, 65, 0
1, 101738, Note_on_c, 0, 76, 31
1, 101742, Note_on_c, 0, 61, 0
1, 101750, Note_on_c, 0, 67, 22
1, 101760, Note_on_c, 0, 60, 26
1, 101764, Note_on_c, 0, 77, 0
1, 102318, Note_on_c, 0, 67, 0
1, 102342, Note_on_c, 0, 70, 0
1, 102380, Note_on_c, 0, 76, 0
1, 102408, Note_on_c, 0, 60, 0
1, 102970, Note_on_c, 0, 75, 53
1, 102970, Note_on_c, 0, 79, 66
1, 103080, Note_on_c, 0, 75, 0
1, 103174, Note_on_c, 0, 79, 0
1, 103177, Note_on_c, 0, 77, 52
1, 103182, Note_on_c, 0, 74, 52
1, 103252, Note_on_c, 0, 74, 0
1, 103332, Note_on_c, 0, 77, 0
1, 103334, Note_on_c, 0, 75, 60
1, 103342, Note_on_c, 0, 72, 37
1, 103380, Note_on_c, 0, 75, 0
1, 103538, Note_on_c, 0, 74, 65
1, 103550, Note_on_c, 0, 70, 35
1, 103570, Note_on_c, 0, 72, 0
1, 103646, Note_on_c, 0, 70, 0
1, 103692, Note_on_c, 0, 74, 0
1, 103732, Note_on_c, 0, 65, 65
1, 103738, Note_on_c, 0, 62, 63
1, 103818, Note_on_c, 0, 65, 0
1, 103918, Note_on_c, 0, 62, 0
1, 103928, Note_on_c, 0, 63, 70
1, 103938, Note_on_c, 0, 60, 66
1, 104092, Note_on_c, 0, 60, 0
1, 104120, Note_on_c, 0, 58, 48
1, 104126, Note_on_c, 0, 62, 66
1, 104158, Note_on_c, 0, 63, 0
1, 104270, Note_on_c, 0, 62, 0
1, 104286, Note_on_c, 0, 58, 0
1, 104320, Note_on_c, 0, 60, 62
1, 104324, Note_on_c, 0, 57, 43
1, 104446, Note_on_c, 0, 60, 0
1, 104462, Note_on_c, 0, 57, 0
1, 104496, Note_on_c, 0, 79, 73
1, 104502, Note_on_c, 0, 75, 56
1, 104588, Note_on_c, 0, 75, 0
1, 104688, Note_on_c, 0, 79, 0
1, 104692, Note_on_c, 0, 77, 53
1, 104698, Note_on_c, 0, 74, 50
1, 104772, Note_on_c, 0, 74, 0
1, 104844, Note_on_c, 0, 77, 0
1, 104876, Note_on_c, 0, 75, 53
1, 104894, Note_on_c, 0, 72, 36
1, 104926, Note_on_c, 0, 75, 0
1, 105068, Note_on_c, 0, 74, 50
1, 105078, Note_on_c, 0, 70, 32
1, 105098, Note_on_c, 0, 72, 0
1, 105162, Note_on_c, 0, 74, 0
1, 105174, Note_on_c, 0, 70, 0
1, 105250, Note_on_c, 0, 65, 56
1, 105260, Note_on_c, 0, 62, 55
1, 105306, Note_on_c, 0, 65, 0
1, 105412, Note_on_c, 0, 62, 0
1, 105438, Note_on_c, 0, 63, 68
1, 105452, Note_on_c, 0, 60, 49
1, 105576, Note_on_c, 0, 60, 0
1, 105618, Note_on_c, 0, 58, 46
1, 105620, Note_on_c, 0, 63, 0
1, 105630, Note_on_c, 0, 62, 60
1, 105720, Note_on_c, 0, 62, 0
1, 105766, Note_on_c, 0, 58, 0
1, 105798, Note_on_c, 0, 60, 72
1, 105806, Note_on_c, 0, 57, 54
1, 105842, Note_on_c, 0, 60, 0
1, 105854, Note_on_c, 0, 57, 0
1, 105976, Note_on_c, 0, 75, 63
1, 105982, Note_on_c, 0, 79, 70
1, 105988, Note_on_c, 0, 65, 66
1, 106114, Note_on_c, 0, 75, 0
1, 106164, Note_on_c, 0, 77, 71
1, 106166, Note_on_c, 0, 67, 71
1, 106174, Note_on_c, 0, 74, 68
1, 106182, Note_on_c, 0, 65, 0
1, 106182, Note_on_c, 0, 79, 0
1, 106268, Note_on_c, 0, 74, 0
1, 106340, Note_on_c, 0, 67, 0
1, 106352, Note_on_c, 0, 69, 63
1, 106352, Note_on_c, 0, 75, 80
1, 106358, Note_on_c, 0, 72, 64
1, 106382, Note_on_c, 0, 77, 0
1, 106472, Note_on_c, 0, 72, 0
1, 106480, Note_on_c, 0, 75, 0
1, 106528, Note_on_c, 0, 69, 0
1, 106530, Note_on_c, 0, 74, 83
1, 106532, Note_on_c, 0, 70, 76
1, 106568, Note_on_c, 0, 74, 0
1, 106594, Note_on_c, 0, 70, 0
1, 106718, Note_on_c, 0, 82, 67
1, 106728, Note_on_c, 0, 74, 74
1, 106732, Note_on_c, 0, 77, 57
1, 106874, Note_on_c, 0, 82, 0
1, 106880, Note_on_c, 0, 74, 0
1, 106916, Note_on_c, 0, 75, 60
1, 106920, Note_on_c, 0, 81, 59
1, 106930, Note_on_c, 0, 77, 0
1, 106938, Note_on_c, 0, 72, 52
1, 107016, Note_on_c, 0, 72, 0
1, 107088, Note_on_c, 0, 75, 0
1, 107092, Note_on_c, 0, 81, 0
1, 107096, Note_on_c, 0, 74, 54
1, 107102, Note_on_c, 0, 79, 68
1, 107112, Note_on_c, 0, 70, 38
1, 107152, Note_on_c, 0, 74, 0
1, 107196, Note_on_c, 0, 70, 0
1, 107262, Note_on_c, 0, 79, 0
1, 107270, Note_on_c, 0, 77, 68
1, 107276, Note_on_c, 0, 72, 57
1, 107284, Note_on_c, 0, 69, 45
1, 107308, Note_on_c, 0, 77, 0
1, 107426, Note_on_c, 0, 69, 0
1, 107432, Note_on_c, 0, 70, 64
1, 107450, Note_on_c, 0, 75, 61
1, 107454, Note_on_c, 0, 72, 0
1, 107456, Note_on_c, 0, 67, 68
1, 107514, Note_on_c, 0, 67, 0
1, 107517, Note_on_c, 0, 70, 0
1, 107624, Note_on_c, 0, 65, 63
1, 107650, Note_on_c, 0, 69, 18
1, 107652, Note_on_c, 0, 74, 73
1, 107662, Note_on_c, 0, 75, 0
1, 107706, Note_on_c, 0, 74, 0
1, 107720, Note_on_c, 0, 69, 0
1, 107768, Note_on_c, 0, 65, 0
1, 107790, Note_on_c, 0, 72, 73
1, 107792, Note_on_c, 0, 63, 81
1, 107795, Note_on_c, 0, 67, 56
1, 107844, Note_on_c, 0, 72, 0
1, 107858, Note_on_c, 0, 67, 0
1, 107912, Note_on_c, 0, 63, 0
1, 108020, Note_on_c, 0, 71, 82
1, 108034, Note_on_c, 0, 65, 60
1, 108044, Note_on_c, 0, 62, 59
1, 108886, Note_on_c, 0, 72, 47
1, 108892, Note_on_c, 0, 67, 32
1, 108896, Note_on_c, 0, 65, 0
1, 108904, Note_on_c, 0, 63, 38
1, 108912, Note_on_c, 0, 71, 0
1, 108922, Note_on_c, 0, 62, 0
1, 109164, Note_on_c, 0, 63, 0
1, 109170, Note_on_c, 0, 67, 0
1, 109184, Note_on_c, 0, 72, 0
1, 109864, Note_on_c, 0, 69, 31
1, 109870, Note_on_c, 0, 63, 26
1, 109870, Note_on_c, 0, 65, 19
1, 109870, Note_on_c, 0, 60, 22
1, 110764, Note_on_c, 0, 60, 0
1, 110798, Note_on_c, 0, 70, 21
1, 110804, Note_on_c, 0, 63, 0
1, 110822, Note_on_c, 0, 62, 9
1, 110844, Note_on_c, 0, 69, 0
1, 111196, Note_on_c, 0, 65, 0
1, 111240, Note_on_c, 0, 62, 0
1, 111278, Note_on_c, 0, 70, 0
1, 113342, Note_on_c, 0, 67, 45
1, 113350, Note_on_c, 0, 55, 38
1, 114574, Note_on_c, 0, 55, 0
1, 115126, Note_on_c, 0, 66, 36
1, 115138, Note_on_c, 0, 42, 23
1, 115140, Note_on_c, 0, 54, 29
1, 115142, Note_on_c, 0, 30, 20
1, 115262, Note_on_c, 0, 67, 0
1, 116424, Note_on_c, 0, 54, 0
1, 116448, Note_on_c, 0, 42, 0
1, 116474, Note_on_c, 0, 30, 0
1, 116534, Note_on_c, 0, 66, 0
1, 116626, Note_on_c, 0, 65, 80
1, 116626, Note_on_c, 0, 53, 95
1, 116636, Note_on_c, 0, 29, 75
1, 116662, Note_on_c, 0, 53, 0
1, 116702, Note_on_c, 0, 41, 72
1, 116708, Note_on_c, 0, 65, 0
1, 116738, Note_on_c, 0, 29, 0
1, 116814, Note_on_c, 0, 29, 73
1, 116816, Note_on_c, 0, 41, 0
1, 116918, Note_on_c, 0, 41, 56
1, 116930, Note_on_c, 0, 29, 0
1, 116986, Note_on_c, 0, 41, 0
1, 116996, Note_on_c, 0, 29, 73
1, 117000, Note_on_c, 0, 77, 89
1, 117000, Note_on_c, 0, 65, 73
1, 117010, Note_on_c, 0, 70, 55
1, 117013, Note_on_c, 0, 74, 67
1, 117038, Note_on_c, 0, 65, 0
1, 117050, Note_on_c, 0, 74, 0
1, 117058, Note_on_c, 0, 70, 0
1, 117086, Note_on_c, 0, 41, 64
1, 117089, Note_on_c, 0, 77, 0
1, 117100, Note_on_c, 0, 29, 0
1, 117158, Note_on_c, 0, 41, 0
1, 117166, Note_on_c, 0, 29, 80
1, 117264, Note_on_c, 0, 29, 0
1, 117267, Note_on_c, 0, 41, 66
1, 117366, Note_on_c, 0, 82, 92
1, 117368, Note_on_c, 0, 74, 94
1, 117368, Note_on_c, 0, 29, 78
1, 117370, Note_on_c, 0, 41, 0
1, 117372, Note_on_c, 0, 77, 87
1, 117420, Note_on_c, 0, 77, 0
1, 117446, Note_on_c, 0, 74, 0
1, 117464, Note_on_c, 0, 41, 64
1, 117466, Note_on_c, 0, 29, 0
1, 117512, Note_on_c, 0, 82, 0
1, 117554, Note_on_c, 0, 29, 78
1, 117564, Note_on_c, 0, 41, 0
1, 117666, Note_on_c, 0, 41, 71
1, 117678, Note_on_c, 0, 29, 0
1, 117730, Note_on_c, 0, 86, 100
1, 117730, Note_on_c, 0, 77, 89
1, 117730, Note_on_c, 0, 82, 81
1, 117760, Note_on_c, 0, 29, 84
1, 117765, Note_on_c, 0, 41, 0
1, 117824, Note_on_c, 0, 82, 0
1, 117832, Note_on_c, 0, 86, 0
1, 117834, Note_on_c, 0, 77, 0
1, 117858, Note_on_c, 0, 41, 72
1, 117876, Note_on_c, 0, 29, 0
1, 117940, Note_on_c, 0, 29, 91
1, 117966, Note_on_c, 0, 41, 0
1, 118024, Note_on_c, 0, 41, 89
1, 118050, Note_on_c, 0, 29, 0
1, 118112, Note_on_c, 0, 89, 103
1, 118114, Note_on_c, 0, 77, 98
1, 118116, Note_on_c, 0, 29, 101
1, 118118, Note_on_c, 0, 86, 95
1, 118118, Note_on_c, 0, 82, 83
1, 118120, Note_on_c, 0, 41, 0
1, 118186, Note_on_c, 0, 29, 0
1, 118198, Note_on_c, 0, 77, 0
1, 118230, Note_on_c, 0, 89, 0
1, 118244, Note_on_c, 0, 86, 0
1, 118248, Note_on_c, 0, 82, 0
1, 118854, Note_on_c, 0, 81, 100
1, 118856, Note_on_c, 0, 72, 95
1, 118856, Note_on_c, 0, 63, 90
1, 118856, Note_on_c, 0, 75, 83
1, 118862, Note_on_c, 0, 77, 85
1, 118864, Note_on_c, 0, 53, 103
1, 118876, Note_on_c, 0, 60, 70
1, 118882, Note_on_c, 0, 57, 63
1, 118950, Note_on_c, 0, 57, 0
1, 118950, Note_on_c, 0, 60, 0
1, 118950, Note_on_c, 0, 63, 0
1, 118974, Note_on_c, 0, 53, 0
1, 118982, Note_on_c, 0, 72, 0
1, 119008, Note_on_c, 0, 81, 0
1, 119012, Note_on_c, 0, 77, 0
1, 119012, Note_on_c, 0, 75, 0
1, 119628, Note_on_c, 0, 58, 66
1, 119630, Note_on_c, 0, 82, 88
1, 119630, Note_on_c, 0, 46, 67
1, 119644, Note_on_c, 0, 50, 71
1, 119647, Note_on_c, 0, 53, 91
1, 119704, Note_on_c, 0, 53, 0
1, 119712, Note_on_c, 0, 50, 0
1, 119730, Note_on_c, 0, 58, 0
1, 119730, Note_on_c, 0, 86, 86
1, 119744, Note_on_c, 0, 46, 0
1, 119766, Note_on_c, 0, 82, 0
1, 119818, Note_on_c, 0, 84, 92
1, 119898, Note_on_c, 0, 86, 0
1, 119904, Note_on_c, 0, 82, 71
1, 119986, Note_on_c, 0, 84, 0
1, 120002, Note_on_c, 0, 81, 78
1, 120072, Note_on_c, 0, 82, 0
1, 120086, Note_on_c, 0, 79, 81
1, 120102, Note_on_c, 0, 81, 0
1, 120138, Note_on_c, 0, 79, 0
1, 120188, Note_on_c, 0, 77, 46
1, 120202, Note_on_c, 0, 79, 66
1, 120250, Note_on_c, 0, 79, 0
1, 120266, Note_on_c, 0, 76, 65
1, 120274, Note_on_c, 0, 77, 0
1, 120358, Note_on_c, 0, 75, 85
1, 120358, Note_on_c, 0, 57, 67
1, 120361, Note_on_c, 0, 46, 53
1, 120364, Note_on_c, 0, 51, 62
1, 120384, Note_on_c, 0, 48, 44
1, 120390, Note_on_c, 0, 76, 0
1, 120458, Note_on_c, 0, 79, 87
1, 120466, Note_on_c, 0, 75, 0
1, 120466, Note_on_c, 0, 57, 0
1, 120500, Note_on_c, 0, 48, 0
1, 120506, Note_on_c, 0, 46, 0
1, 120512, Note_on_c, 0, 51, 0
1, 120542, Note_on_c, 0, 77, 84
1, 120584, Note_on_c, 0, 79, 0
1, 120636, Note_on_c, 0, 75, 74
1, 120658, Note_on_c, 0, 77, 0
1, 120730, Note_on_c, 0, 74, 79
1, 120782, Note_on_c, 0, 74, 0
1, 120782, Note_on_c, 0, 75, 0
1, 120804, Note_on_c, 0, 72, 63
1, 120890, Note_on_c, 0, 70, 70
1, 120926, Note_on_c, 0, 72, 0
1, 120970, Note_on_c, 0, 69, 69
1, 121000, Note_on_c, 0, 70, 0
1, 121054, Note_on_c, 0, 69, 0
1, 121054, Note_on_c, 0, 58, 59
1, 121068, Note_on_c, 0, 46, 58
1, 121068, Note_on_c, 0, 70, 70
1, 121078, Note_on_c, 0, 53, 86
1, 121084, Note_on_c, 0, 50, 59
1, 121134, Note_on_c, 0, 53, 0
1, 121152, Note_on_c, 0, 50, 0
1, 121160, Note_on_c, 0, 74, 81
1, 121166, Note_on_c, 0, 58, 0
1, 121178, Note_on_c, 0, 70, 0
1, 121190, Note_on_c, 0, 46, 0
1, 121250, Note_on_c, 0, 72, 76
1, 121274, Note_on_c, 0, 74, 0
1, 121332, Note_on_c, 0, 70, 70
1, 121358, Note_on_c, 0, 72, 0
1, 121422, Note_on_c, 0, 69, 64
1, 121486, Note_on_c, 0, 70, 0
1, 121502, Note_on_c, 0, 69, 0
1, 121508, Note_on_c, 0, 67, 72
1, 121572, Note_on_c, 0, 67, 0
1, 121590, Note_on_c, 0, 65, 80
1, 121680, Note_on_c, 0, 64, 79
1, 121694, Note_on_c, 0, 65, 0
1, 121774, Note_on_c, 0, 63, 90
1, 121784, Note_on_c, 0, 57, 70
1, 121790, Note_on_c, 0, 46, 52
1, 121792, Note_on_c, 0, 64, 0
1, 121796, Note_on_c, 0, 51, 61
1, 121812, Note_on_c, 0, 48, 44
1, 121866, Note_on_c, 0, 67, 78
1, 121878, Note_on_c, 0, 63, 0
1, 121894, Note_on_c, 0, 48, 0
1, 121940, Note_on_c, 0, 57, 0
1, 121943, Note_on_c, 0, 46, 0
1, 121952, Note_on_c, 0, 65, 76
1, 121972, Note_on_c, 0, 51, 0
1, 121990, Note_on_c, 0, 67, 0
1, 122046, Note_on_c, 0, 63, 75
1, 122064, Note_on_c, 0, 65, 0
1, 122130, Note_on_c, 0, 62, 74
1, 122170, Note_on_c, 0, 63, 0
1, 122178, Note_on_c, 0, 62, 0
1, 122196, Note_on_c, 0, 60, 64
1, 122280, Note_on_c, 0, 58, 62
1, 122312, Note_on_c, 0, 60, 0
1, 122378, Note_on_c, 0, 57, 57
1, 122398, Note_on_c, 0, 58, 0
1, 122436, Note_on_c, 0, 57, 0
1, 122454, Note_on_c, 0, 58, 68
1, 122482, Note_on_c, 0, 46, 83
1, 122488, Note_on_c, 0, 34, 84
1, 122556, Note_on_c, 0, 57, 52
1, 122562, Note_on_c, 0, 34, 0
1, 122568, Note_on_c, 0, 58, 0
1, 122570, Note_on_c, 0, 46, 0
1, 122630, Note_on_c, 0, 58, 62
1, 122635, Note_on_c, 0, 57, 0
1, 122732, Note_on_c, 0, 53, 95
1, 122744, Note_on_c, 0, 58, 0
1, 122778, Note_on_c, 0, 53, 0
1, 122832, Note_on_c, 0, 62, 84
1, 122846, Note_on_c, 0, 50, 87
1, 122852, Note_on_c, 0, 38, 74
1, 122913, Note_on_c, 0, 38, 0
1, 122913, Note_on_c, 0, 62, 0
1, 122922, Note_on_c, 0, 61, 81
1, 122968, Note_on_c, 0, 50, 0
1, 123008, Note_on_c, 0, 62, 78
1, 123032, Note_on_c, 0, 61, 0
1, 123068, Note_on_c, 0, 62, 0
1, 123092, Note_on_c, 0, 58, 68
1, 123142, Note_on_c, 0, 58, 0
1, 123198, Note_on_c, 0, 65, 79
1, 123200, Note_on_c, 0, 53, 106
1, 123202, Note_on_c, 0, 41, 88
1, 123280, Note_on_c, 0, 41, 0
1, 123280, Note_on_c, 0, 64, 78
1, 123302, Note_on_c, 0, 65, 0
1, 123324, Note_on_c, 0, 53, 0
1, 123358, Note_on_c, 0, 65, 83
1, 123362, Note_on_c, 0, 64, 0
1, 123424, Note_on_c, 0, 65, 0
1, 123458, Note_on_c, 0, 62, 73
1, 123526, Note_on_c, 0, 62, 0
1, 123554, Note_on_c, 0, 58, 83
1, 123556, Note_on_c, 0, 70, 81
1, 123560, Note_on_c, 0, 46, 78
1, 123656, Note_on_c, 0, 69, 71
1, 123666, Note_on_c, 0, 70, 0
1, 123678, Note_on_c, 0, 58, 0
1, 123682, Note_on_c, 0, 46, 0
1, 123746, Note_on_c, 0, 70, 63
1, 123790, Note_on_c, 0, 69, 0
1, 123838, Note_on_c, 0, 65, 63
1, 123854, Note_on_c, 0, 70, 0
1, 123884, Note_on_c, 0, 65, 0
1, 123918, Note_on_c, 0, 62, 93
1, 123926, Note_on_c, 0, 50, 85
1, 123928, Note_on_c, 0, 74, 89
1, 124004, Note_on_c, 0, 74, 0
1, 124006, Note_on_c, 0, 50, 0
1, 124009, Note_on_c, 0, 73, 70
1, 124038, Note_on_c, 0, 62, 0
1, 124100, Note_on_c, 0, 74, 76
1, 124118, Note_on_c, 0, 73, 0
1, 124146, Note_on_c, 0, 74, 0
1, 124176, Note_on_c, 0, 70, 70
1, 124232, Note_on_c, 0, 70, 0
1, 124282, Note_on_c, 0, 65, 83
1, 124284, Note_on_c, 0, 77, 87
1, 124296, Note_on_c, 0, 53, 85
1, 124338, Note_on_c, 0, 53, 0
1, 124366, Note_on_c, 0, 76, 70
1, 124376, Note_on_c, 0, 77, 0
1, 124392, Note_on_c, 0, 65, 0
1, 124436, Note_on_c, 0, 77, 83
1, 124440, Note_on_c, 0, 76, 0
1, 124484, Note_on_c, 0, 77, 0
1, 124560, Note_on_c, 0, 74, 45
1, 124608, Note_on_c, 0, 74, 0
1, 124634, Note_on_c, 0, 82, 72
1, 124634, Note_on_c, 0, 70, 69
1, 124637, Note_on_c, 0, 58, 63
1, 124696, Note_on_c, 0, 58, 0
1, 124722, Note_on_c, 0, 81, 81
1, 124724, Note_on_c, 0, 70, 0
1, 124730, Note_on_c, 0, 82, 0
1, 124812, Note_on_c, 0, 82, 70
1, 124850, Note_on_c, 0, 81, 0
1, 124900, Note_on_c, 0, 77, 63
1, 124910, Note_on_c, 0, 82, 0
1, 124954, Note_on_c, 0, 77, 0
1, 124994, Note_on_c, 0, 75, 60
1, 125004, Note_on_c, 0, 84, 81
1, 125024, Note_on_c, 0, 65, 37
1, 125068, Note_on_c, 0, 84, 0
1, 125094, Note_on_c, 0, 83, 97
1, 125176, Note_on_c, 0, 83, 0
1, 125190, Note_on_c, 0, 84, 77
1, 125222, Note_on_c, 0, 65, 0
1, 125234, Note_on_c, 0, 84, 0
1, 125276, Note_on_c, 0, 77, 57
1, 125300, Note_on_c, 0, 75, 0
1, 125350, Note_on_c, 0, 77, 0
1, 125370, Note_on_c, 0, 82, 73
1, 125374, Note_on_c, 0, 74, 60
1, 125382, Note_on_c, 0, 70, 32
1, 125462, Note_on_c, 0, 81, 71
1, 125474, Note_on_c, 0, 82, 0
1, 125546, Note_on_c, 0, 74, 0
1, 125548, Note_on_c, 0, 82, 64
1, 125554, Note_on_c, 0, 81, 0
1, 125590, Note_on_c, 0, 70, 0
1, 125640, Note_on_c, 0, 77, 70
1, 125656, Note_on_c, 0, 82, 0
1, 125694, Note_on_c, 0, 77, 0
1, 125730, Note_on_c, 0, 75, 70
1, 125736, Note_on_c, 0, 84, 86
1, 125746, Note_on_c, 0, 65, 56
1, 125822, Note_on_c, 0, 84, 0
1, 125828, Note_on_c, 0, 83, 98
1, 125888, Note_on_c, 0, 65, 0
1, 125910, Note_on_c, 0, 83, 0
1, 125920, Note_on_c, 0, 75, 0
1, 125922, Note_on_c, 0, 84, 82
1, 125992, Note_on_c, 0, 84, 0
1, 126000, Note_on_c, 0, 77, 64
1, 126084, Note_on_c, 0, 74, 69
1, 126086, Note_on_c, 0, 77, 0
1, 126088, Note_on_c, 0, 82, 81
1, 126092, Note_on_c, 0, 70, 47
1, 126184, Note_on_c, 0, 81, 77
1, 126200, Note_on_c, 0, 82, 0
1, 126232, Note_on_c, 0, 74, 0
1, 126266, Note_on_c, 0, 82, 69
1, 126290, Note_on_c, 0, 81, 0
1, 126304, Note_on_c, 0, 70, 0
1, 126350, Note_on_c, 0, 77, 80
1, 126382, Note_on_c, 0, 82, 0
1, 126428, Note_on_c, 0, 77, 0
1, 126452, Note_on_c, 0, 84, 86
1, 126452, Note_on_c, 0, 75, 67
1, 126482, Note_on_c, 0, 65, 37
1, 126512, Note_on_c, 0, 84, 0
1, 126542, Note_on_c, 0, 83, 97
1, 126604, Note_on_c, 0, 83, 0
1, 126626, Note_on_c, 0, 65, 0
1, 126626, Note_on_c, 0, 84, 75
1, 126666, Note_on_c, 0, 75, 0
1, 126704, Note_on_c, 0, 84, 0
1, 126716, Note_on_c, 0, 77, 45
1, 126804, Note_on_c, 0, 82, 84
1, 126816, Note_on_c, 0, 77, 0
1, 126819, Note_on_c, 0, 70, 44
1, 126878, Note_on_c, 0, 70, 0
1, 126894, Note_on_c, 0, 74, 71
1, 126926, Note_on_c, 0, 82, 0
1, 126952, Note_on_c, 0, 74, 0
1, 126992, Note_on_c, 0, 70, 49
1, 127054, Note_on_c, 0, 70, 0
1, 127076, Note_on_c, 0, 74, 62
1, 127130, Note_on_c, 0, 74, 0
1, 127156, Note_on_c, 0, 82, 69
1, 127160, Note_on_c, 0, 86, 84
1, 127170, Note_on_c, 0, 70, 53
1, 127226, Note_on_c, 0, 70, 0
1, 127254, Note_on_c, 0, 74, 53
1, 127258, Note_on_c, 0, 82, 0
1, 127272, Note_on_c, 0, 86, 0
1, 127318, Note_on_c, 0, 74, 0
1, 127342, Note_on_c, 0, 70, 46
1, 127406, Note_on_c, 0, 70, 0
1, 127428, Note_on_c, 0, 74, 50
1, 127490, Note_on_c, 0, 74, 0
1, 127518, Note_on_c, 0, 86, 65
1, 127518, Note_on_c, 0, 89, 63
1, 127530, Note_on_c, 0, 70, 44
1, 127590, Note_on_c, 0, 86, 0
1, 127594, Note_on_c, 0, 70, 0
1, 127618, Note_on_c, 0, 74, 51
1, 127628, Note_on_c, 0, 89, 0
1, 127678, Note_on_c, 0, 74, 0
1, 127714, Note_on_c, 0, 70, 38
1, 127782, Note_on_c, 0, 70, 0
1, 127802, Note_on_c, 0, 74, 43
1, 127870, Note_on_c, 0, 74, 0
1, 127873, Note_on_c, 0, 82, 48
1, 127886, Note_on_c, 0, 86, 42
1, 127886, Note_on_c, 0, 70, 29
1, 127948, Note_on_c, 0, 82, 0
1, 127964, Note_on_c, 0, 70, 0
1, 127982, Note_on_c, 0, 74, 42
1, 127985, Note_on_c, 0, 86, 0
1, 128046, Note_on_c, 0, 74, 0
1, 128068, Note_on_c, 0, 70, 31
1, 128150, Note_on_c, 0, 70, 0
1, 128160, Note_on_c, 0, 74, 40
1, 128244, Note_on_c, 0, 74, 0
1, 128302, Note_on_c, 0, 89, 46
1, 128310, Note_on_c, 0, 86, 32
1, 128322, Note_on_c, 0, 70, 30
1, 128408, Note_on_c, 0, 86, 0
1, 128454, Note_on_c, 0, 70, 0
1, 128480, Note_on_c, 0, 89, 0
1, 129116, Note_on_c, 0, 70, 17
1, 129116, Note_on_c, 0, 82, 18
1, 129130, Note_on_c, 0, 74, 22
1, 129132, Note_on_c, 0, 86, 29
1, 129230, Note_on_c, 0, 74, 0
1, 129240, Note_on_c, 0, 86, 0
1, 129280, Note_on_c, 0, 82, 0
1, 129294, Note_on_c, 0, 70, 0
1, 129916, Note_on_c, 0, 82, 28
1, 129930, Note_on_c, 0, 70, 15
1, 129932, Note_on_c, 0, 77, 17
1, 129936, Note_on_c, 0, 74, 19
1, 130062, Note_on_c, 0, 77, 0
1, 130065, Note_on_c, 0, 74, 0
1, 130104, Note_on_c, 0, 70, 0
1, 130126, Note_on_c, 0, 82, 0
1, 132134, Note_on_c, 0, 46, 36
1, 132142, Note_on_c, 0, 65, 42
1, 132146, Note_on_c, 0, 62, 45
1, 132148, Note_on_c, 0, 34, 26
1, 133336, Note_on_c, 0, 46, 0
1, 133610, Note_on_c, 0, 66, 42
1, 133612, Note_on_c, 0, 60, 37
1, 133616, Note_on_c, 0, 32, 31
1, 133619, Note_on_c, 0, 44, 41
1, 133712, Note_on_c, 0, 34, 0
1, 133740, Note_on_c, 0, 62, 0
1, 133784, Note_on_c, 0, 65, 0
1, 135058, Note_on_c, 0, 44, 0
1, 135288, Note_on_c, 0, 60, 0
1, 135358, Note_on_c, 0, 32, 0
1, 135886, Note_on_c, 0, 67, 22
1, 135910, Note_on_c, 0, 43, 13
1, 135912, Note_on_c, 0, 31, 24
1, 135914, Note_on_c, 0, 59, 12
1, 135980, Note_on_c, 0, 66, 0
1, 137852, Note_on_c, 0, 59, 0
1, 137894, Note_on_c, 0, 43, 0
1, 138004, Note_on_c, 0, 31, 0
1, 138044, Note_on_c, 0, 67, 0
1, 139286, Note_on_c, 0, 79, 68
1, 139344, Note_on_c, 0, 76, 76
1, 139346, Note_on_c, 0, 64, 65
1, 139356, Note_on_c, 0, 60, 64
1, 139376, Note_on_c, 0, 79, 0
1, 139390, Note_on_c, 0, 64, 0
1, 139404, Note_on_c, 0, 76, 0
1, 139404, Note_on_c, 0, 60, 0
1, 139630, Note_on_c, 0, 79, 59
1, 139688, Note_on_c, 0, 62, 57
1, 139688, Note_on_c, 0, 74, 63
1, 139691, Note_on_c, 0, 79, 0
1, 139696, Note_on_c, 0, 55, 59
1, 139738, Note_on_c, 0, 62, 0
1, 139744, Note_on_c, 0, 55, 0
1, 139748, Note_on_c, 0, 74, 0
1, 139972, Note_on_c, 0, 79, 59
1, 140048, Note_on_c, 0, 79, 0
1, 140051, Note_on_c, 0, 60, 48
1, 140054, Note_on_c, 0, 72, 58
1, 140056, Note_on_c, 0, 52, 50
1, 140120, Note_on_c, 0, 72, 0
1, 140174, Note_on_c, 0, 60, 0
1, 140226, Note_on_c, 0, 52, 0
1, 140326, Note_on_c, 0, 79, 62
1, 140394, Note_on_c, 0, 79, 0
1, 140408, Note_on_c, 0, 67, 78
1, 140458, Note_on_c, 0, 67, 0
1, 140668, Note_on_c, 0, 79, 78
1, 140734, Note_on_c, 0, 76, 91
1, 140746, Note_on_c, 0, 64, 80
1, 140760, Note_on_c, 0, 60, 68
1, 140792, Note_on_c, 0, 79, 0
1, 140806, Note_on_c, 0, 60, 0
1, 140812, Note_on_c, 0, 64, 0
1, 140822, Note_on_c, 0, 76, 0
1, 141024, Note_on_c, 0, 79, 78
1, 141088, Note_on_c, 0, 62, 57
1, 141092, Note_on_c, 0, 74, 88
1, 141102, Note_on_c, 0, 55, 56
1, 141136, Note_on_c, 0, 74, 0
1, 141138, Note_on_c, 0, 79, 0
1, 141144, Note_on_c, 0, 62, 0
1, 141156, Note_on_c, 0, 55, 0
1, 141366, Note_on_c, 0, 79, 79
1, 141426, Note_on_c, 0, 60, 44
1, 141438, Note_on_c, 0, 72, 66
1, 141441, Note_on_c, 0, 52, 44
1, 141482, Note_on_c, 0, 79, 0
1, 141538, Note_on_c, 0, 72, 0
1, 141554, Note_on_c, 0, 52, 0
1, 141582, Note_on_c, 0, 60, 0
1, 141696, Note_on_c, 0, 79, 76
1, 141746, Note_on_c, 0, 79, 0
1, 141772, Note_on_c, 0, 67, 74
1, 141816, Note_on_c, 0, 67, 0
1, 142024, Note_on_c, 0, 60, 45
1, 142036, Note_on_c, 0, 84, 71
1, 142112, Note_on_c, 0, 79, 70
1, 142115, Note_on_c, 0, 60, 0
1, 142120, Note_on_c, 0, 64, 58
1, 142130, Note_on_c, 0, 84, 0
1, 142162, Note_on_c, 0, 79, 0
1, 142164, Note_on_c, 0, 64, 0
1, 142346, Note_on_c, 0, 60, 44
1, 142360, Note_on_c, 0, 84, 54
1, 142426, Note_on_c, 0, 60, 0
1, 142436, Note_on_c, 0, 84, 0
1, 142444, Note_on_c, 0, 65, 53
1, 142444, Note_on_c, 0, 81, 60
1, 142494, Note_on_c, 0, 65, 0
1, 142502, Note_on_c, 0, 81, 0
1, 142712, Note_on_c, 0, 84, 56
1, 142714, Note_on_c, 0, 60, 45
1, 142776, Note_on_c, 0, 60, 0
1, 142788, Note_on_c, 0, 82, 69
1, 142802, Note_on_c, 0, 67, 54
1, 142836, Note_on_c, 0, 84, 0
1, 142874, Note_on_c, 0, 67, 0
1, 142912, Note_on_c, 0, 82, 0
1, 143048, Note_on_c, 0, 84, 79
1, 143062, Note_on_c, 0, 60, 41
1, 143122, Note_on_c, 0, 81, 89
1, 143130, Note_on_c, 0, 60, 0
1, 143134, Note_on_c, 0, 69, 61
1, 143156, Note_on_c, 0, 84, 0
1, 143216, Note_on_c, 0, 69, 0
1, 143228, Note_on_c, 0, 81, 0
1, 143380, Note_on_c, 0, 60, 59
1, 143392, Note_on_c, 0, 84, 85
1, 143464, Note_on_c, 0, 60, 0
1, 143464, Note_on_c, 0, 79, 95
1, 143467, Note_on_c, 0, 70, 73
1, 143528, Note_on_c, 0, 84, 0
1, 143556, Note_on_c, 0, 70, 0
1, 143574, Note_on_c, 0, 79, 0
1, 143706, Note_on_c, 0, 60, 62
1, 143709, Note_on_c, 0, 84, 73
1, 143784, Note_on_c, 0, 60, 0
1, 143794, Note_on_c, 0, 76, 83
1, 143802, Note_on_c, 0, 70, 72
1, 143810, Note_on_c, 0, 84, 0
1, 143874, Note_on_c, 0, 76, 0
1, 143880, Note_on_c, 0, 70, 0
1, 144030, Note_on_c, 0, 84, 82
1, 144036, Note_on_c, 0, 60, 44
1, 144110, Note_on_c, 0, 60, 0
1, 144122, Note_on_c, 0, 84, 0
1, 144138, Note_on_c, 0, 77, 68
1, 144168, Note_on_c, 0, 69, 37
1, 144212, Note_on_c, 0, 65, 16
1, 144222, Note_on_c, 0, 77, 0
1, 144242, Note_on_c, 0, 84, 61
1, 144347, Note_on_c, 0, 84, 0
1, 144347, Note_on_c, 0, 86, 71
1, 144372, Note_on_c, 0, 69, 0
1, 144392, Note_on_c, 0, 65, 0
1, 144422, Note_on_c, 0, 84, 73
1, 144478, Note_on_c, 0, 86, 0
1, 144524, Note_on_c, 0, 82, 70
1, 144562, Note_on_c, 0, 84, 0
1, 144622, Note_on_c, 0, 81, 76
1, 144688, Note_on_c, 0, 81, 0
1, 144694, Note_on_c, 0, 82, 0
1, 144702, Note_on_c, 0, 79, 74
1, 144758, Note_on_c, 0, 79, 0
1, 144790, Note_on_c, 0, 77, 80
1, 144862, Note_on_c, 0, 77, 0
1, 144886, Note_on_c, 0, 70, 38
1, 144889, Note_on_c, 0, 76, 65
1, 144900, Note_on_c, 0, 60, 22
1, 144976, Note_on_c, 0, 79, 87
1, 145012, Note_on_c, 0, 76, 0
1, 145074, Note_on_c, 0, 82, 73
1, 145094, Note_on_c, 0, 79, 0
1, 145102, Note_on_c, 0, 60, 0
1, 145120, Note_on_c, 0, 70, 0
1, 145172, Note_on_c, 0, 86, 74
1, 145178, Note_on_c, 0, 82, 0
1, 145276, Note_on_c, 0, 84, 84
1, 145330, Note_on_c, 0, 86, 0
1, 145360, Note_on_c, 0, 82, 71
1, 145386, Note_on_c, 0, 84, 0
1, 145456, Note_on_c, 0, 81, 78
1, 145492, Note_on_c, 0, 82, 0
1, 145526, Note_on_c, 0, 81, 0
1, 145540, Note_on_c, 0, 79, 67
1, 145644, Note_on_c, 0, 69, 34
1, 145646, Note_on_c, 0, 62, 28
1, 145647, Note_on_c, 0, 77, 77
1, 145648, Note_on_c, 0, 65, 23
1, 145656, Note_on_c, 0, 79, 0
1, 145736, Note_on_c, 0, 76, 60
1, 145740, Note_on_c, 0, 77, 0
1, 145824, Note_on_c, 0, 77, 70
1, 145866, Note_on_c, 0, 76, 0
1, 145928, Note_on_c, 0, 69, 0
1, 145931, Note_on_c, 0, 79, 84
1, 145932, Note_on_c, 0, 65, 0
1, 145952, Note_on_c, 0, 77, 0
1, 145954, Note_on_c, 0, 62, 0
1, 146038, Note_on_c, 0, 81, 78
1, 146070, Note_on_c, 0, 79, 0
1, 146132, Note_on_c, 0, 77, 80
1, 146172, Note_on_c, 0, 81, 0
1, 146220, Note_on_c, 0, 76, 78
1, 146254, Note_on_c, 0, 77, 0
1, 146320, Note_on_c, 0, 74, 73
1, 146334, Note_on_c, 0, 76, 0
1, 146414, Note_on_c, 0, 73, 73
1, 146428, Note_on_c, 0, 67, 38
1, 146434, Note_on_c, 0, 74, 0
1, 146442, Note_on_c, 0, 57, 29
1, 146518, Note_on_c, 0, 76, 72
1, 146526, Note_on_c, 0, 73, 0
1, 146628, Note_on_c, 0, 79, 76
1, 146678, Note_on_c, 0, 76, 0
1, 146712, Note_on_c, 0, 82, 71
1, 146718, Note_on_c, 0, 67, 0
1, 146744, Note_on_c, 0, 79, 0
1, 146750, Note_on_c, 0, 57, 0
1, 146808, Note_on_c, 0, 81, 78
1, 146858, Note_on_c, 0, 82, 0
1, 146900, Note_on_c, 0, 79, 88
1, 146926, Note_on_c, 0, 81, 0
1, 146998, Note_on_c, 0, 77, 70
1, 147016, Note_on_c, 0, 79, 0
1, 147058, Note_on_c, 0, 77, 0
1, 147090, Note_on_c, 0, 76, 63
1, 147184, Note_on_c, 0, 74, 76
1, 147198, Note_on_c, 0, 58, 31
1, 147200, Note_on_c, 0, 65, 39
1, 147214, Note_on_c, 0, 76, 0
1, 147300, Note_on_c, 0, 75, 75
1, 147340, Note_on_c, 0, 74, 0
1, 147402, Note_on_c, 0, 77, 72
1, 147428, Note_on_c, 0, 75, 0
1, 147464, Note_on_c, 0, 65, 0
1, 147488, Note_on_c, 0, 79, 83
1, 147510, Note_on_c, 0, 77, 0
1, 147542, Note_on_c, 0, 58, 0
1, 147584, Note_on_c, 0, 77, 72
1, 147624, Note_on_c, 0, 79, 0
1, 147692, Note_on_c, 0, 74, 79
1, 147700, Note_on_c, 0, 77, 0
1, 147764, Note_on_c, 0, 74, 0
1, 147794, Note_on_c, 0, 72, 59
1, 147850, Note_on_c, 0, 72, 0
1, 147880, Note_on_c, 0, 70, 57
1, 147968, Note_on_c, 0, 63, 40
1, 147988, Note_on_c, 0, 69, 57
1, 148000, Note_on_c, 0, 53, 52
1, 148004, Note_on_c, 0, 70, 0
1, 148081, Note_on_c, 0, 72, 64
1, 148138, Note_on_c, 0, 69, 0
1, 148178, Note_on_c, 0, 75, 65
1, 148206, Note_on_c, 0, 72, 0
1, 148246, Note_on_c, 0, 63, 0
1, 148254, Note_on_c, 0, 75, 0
1, 148262, Note_on_c, 0, 53, 0
1, 148264, Note_on_c, 0, 79, 76
1, 148336, Note_on_c, 0, 79, 0
1, 148374, Note_on_c, 0, 77, 71
1, 148460, Note_on_c, 0, 75, 72
1, 148488, Note_on_c, 0, 77, 0
1, 148556, Note_on_c, 0, 74, 72
1, 148598, Note_on_c, 0, 75, 0
1, 148610, Note_on_c, 0, 74, 0
1, 148642, Note_on_c, 0, 72, 56
1, 148730, Note_on_c, 0, 70, 69
1, 148746, Note_on_c, 0, 62, 39
1, 148756, Note_on_c, 0, 55, 40
1, 148766, Note_on_c, 0, 72, 0
1, 148826, Note_on_c, 0, 70, 0
1, 148830, Note_on_c, 0, 69, 53
1, 148908, Note_on_c, 0, 69, 0
1, 148908, Note_on_c, 0, 70, 61
1, 149010, Note_on_c, 0, 62, 0
1, 149032, Note_on_c, 0, 72, 72
1, 149058, Note_on_c, 0, 70, 0
1, 149072, Note_on_c, 0, 55, 0
1, 149136, Note_on_c, 0, 74, 69
1, 149139, Note_on_c, 0, 72, 0
1, 149222, Note_on_c, 0, 70, 68
1, 149268, Note_on_c, 0, 74, 0
1, 149320, Note_on_c, 0, 69, 68
1, 149352, Note_on_c, 0, 70, 0
1, 149402, Note_on_c, 0, 69, 0
1, 149426, Note_on_c, 0, 67, 52
1, 149498, Note_on_c, 0, 67, 0
1, 149501, Note_on_c, 0, 60, 45
1, 149504, Note_on_c, 0, 66, 67
1, 149510, Note_on_c, 0, 50, 42
1, 149566, Note_on_c, 0, 66, 0
1, 149600, Note_on_c, 0, 69, 57
1, 149710, Note_on_c, 0, 72, 70
1, 149746, Note_on_c, 0, 69, 0
1, 149802, Note_on_c, 0, 75, 66
1, 149812, Note_on_c, 0, 60, 0
1, 149820, Note_on_c, 0, 72, 0
1, 149828, Note_on_c, 0, 50, 0
1, 149900, Note_on_c, 0, 74, 82
1, 149948, Note_on_c, 0, 75, 0
1, 149968, Note_on_c, 0, 74, 0
1, 150002, Note_on_c, 0, 72, 69
1, 150090, Note_on_c, 0, 70, 73
1, 150132, Note_on_c, 0, 72, 0
1, 150200, Note_on_c, 0, 69, 65
1, 150226, Note_on_c, 0, 70, 0
1, 150322, Note_on_c, 0, 69, 0
1, 150322, Note_on_c, 0, 67, 94
1, 150325, Note_on_c, 0, 51, 47
1, 150392, Note_on_c, 0, 51, 0
1, 150430, Note_on_c, 0, 55, 54
1, 150502, Note_on_c, 0, 55, 0
1, 150530, Note_on_c, 0, 51, 51
1, 150533, Note_on_c, 0, 67, 0
1, 150594, Note_on_c, 0, 51, 0
1, 150616, Note_on_c, 0, 55, 54
1, 150698, Note_on_c, 0, 55, 0
1, 150736, Note_on_c, 0, 51, 56
1, 150736, Note_on_c, 0, 82, 99
1, 150742, Note_on_c, 0, 70, 85
1, 150810, Note_on_c, 0, 51, 0
1, 150858, Note_on_c, 0, 55, 50
1, 150926, Note_on_c, 0, 55, 0
1, 150962, Note_on_c, 0, 51, 55
1, 151024, Note_on_c, 0, 51, 0
1, 151064, Note_on_c, 0, 55, 50
1, 151130, Note_on_c, 0, 55, 0
1, 151148, Note_on_c, 0, 51, 56
1, 151208, Note_on_c, 0, 51, 0
1, 151232, Note_on_c, 0, 55, 49
1, 151320, Note_on_c, 0, 55, 0
1, 151346, Note_on_c, 0, 51, 50
1, 151400, Note_on_c, 0, 51, 0
1, 151432, Note_on_c, 0, 55, 52
1, 151496, Note_on_c, 0, 70, 0
1, 151496, Note_on_c, 0, 82, 0
1, 151514, Note_on_c, 0, 55, 0
1, 151534, Note_on_c, 0, 81, 98
1, 151540, Note_on_c, 0, 69, 76
1, 151554, Note_on_c, 0, 51, 58
1, 151606, Note_on_c, 0, 51, 0
1, 151656, Note_on_c, 0, 55, 57
1, 151714, Note_on_c, 0, 55, 0
1, 151748, Note_on_c, 0, 51, 52
1, 151800, Note_on_c, 0, 51, 0
1, 151808, Note_on_c, 0, 81, 0
1, 151828, Note_on_c, 0, 69, 0
1, 151828, Note_on_c, 0, 55, 47
1, 151900, Note_on_c, 0, 55, 0
1, 151932, Note_on_c, 0, 51, 53
1, 151940, Note_on_c, 0, 79, 106
1, 151950, Note_on_c, 0, 67, 92
1, 151994, Note_on_c, 0, 51, 0
1, 152050, Note_on_c, 0, 55, 56
1, 152106, Note_on_c, 0, 55, 0
1, 152128, Note_on_c, 0, 79, 0
1, 152144, Note_on_c, 0, 51, 49
1, 152164, Note_on_c, 0, 67, 0
1, 152198, Note_on_c, 0, 51, 0
1, 152236, Note_on_c, 0, 55, 51
1, 152300, Note_on_c, 0, 55, 0
1, 152334, Note_on_c, 0, 75, 94
1, 152340, Note_on_c, 0, 63, 90
1, 152346, Note_on_c, 0, 51, 54
1, 152398, Note_on_c, 0, 51, 0
1, 152452, Note_on_c, 0, 55, 59
1, 152506, Note_on_c, 0, 55, 0
1, 152536, Note_on_c, 0, 51, 55
1, 152594, Note_on_c, 0, 51, 0
1, 152622, Note_on_c, 0, 63, 0
1, 152634, Note_on_c, 0, 75, 0
1, 152646, Note_on_c, 0, 55, 50
1, 152700, Note_on_c, 0, 55, 0
1, 152714, Note_on_c, 0, 74, 100
1, 152724, Note_on_c, 0, 62, 84
1, 152727, Note_on_c, 0, 51, 60
1, 152792, Note_on_c, 0, 51, 0
1, 152832, Note_on_c, 0, 55, 49
1, 152888, Note_on_c, 0, 55, 0
1, 152916, Note_on_c, 0, 51, 53
1, 152974, Note_on_c, 0, 62, 0
1, 153014, Note_on_c, 0, 51, 0
1, 153016, Note_on_c, 0, 55, 55
1, 153068, Note_on_c, 0, 74, 0
1, 153090, Note_on_c, 0, 55, 0
1, 153104, Note_on_c, 0, 73, 81
1, 153104, Note_on_c, 0, 61, 79
1, 153116, Note_on_c, 0, 51, 54
1, 153208, Note_on_c, 0, 51, 0
1, 153222, Note_on_c, 0, 55, 51
1, 153284, Note_on_c, 0, 61, 0
1, 153298, Note_on_c, 0, 55, 0
1, 153298, Note_on_c, 0, 51, 56
1, 153370, Note_on_c, 0, 51, 0
1, 153388, Note_on_c, 0, 55, 55
1, 153462, Note_on_c, 0, 55, 0
1, 153476, Note_on_c, 0, 73, 0
1, 153498, Note_on_c, 0, 62, 68
1, 153501, Note_on_c, 0, 74, 85
1, 153522, Note_on_c, 0, 54, 55
1, 153532, Note_on_c, 0, 50, 52
1, 153542, Note_on_c, 0, 62, 0
1, 153545, Note_on_c, 0, 74, 0
1, 153752, Note_on_c, 0, 86, 85
1, 153934, Note_on_c, 0, 85, 86
1, 153998, Note_on_c, 0, 86, 0
1, 154130, Note_on_c, 0, 88, 80
1, 154198, Note_on_c, 0, 85, 0
1, 154334, Note_on_c, 0, 86, 75
1, 154378, Note_on_c, 0, 54, 0
1, 154388, Note_on_c, 0, 88, 0
1, 154500, Note_on_c, 0, 86, 0
1, 154504, Note_on_c, 0, 82, 62
1, 154518, Note_on_c, 0, 55, 64
1, 154674, Note_on_c, 0, 55, 0
1, 154678, Note_on_c, 0, 54, 76
1, 154692, Note_on_c, 0, 81, 69
1, 154724, Note_on_c, 0, 82, 0
1, 154860, Note_on_c, 0, 57, 73
1, 154862, Note_on_c, 0, 54, 0
1, 154870, Note_on_c, 0, 84, 76
1, 154886, Note_on_c, 0, 81, 0
1, 155060, Note_on_c, 0, 82, 62
1, 155064, Note_on_c, 0, 55, 79
1, 155092, Note_on_c, 0, 57, 0
1, 155102, Note_on_c, 0, 84, 0
1, 155234, Note_on_c, 0, 79, 76
1, 155248, Note_on_c, 0, 82, 0
1, 155250, Note_on_c, 0, 58, 64
1, 155348, Note_on_c, 0, 55, 0
1, 155410, Note_on_c, 0, 78, 65
1, 155430, Note_on_c, 0, 58, 0
1, 155432, Note_on_c, 0, 57, 72
1, 155456, Note_on_c, 0, 79, 0
1, 155600, Note_on_c, 0, 57, 0
1, 155602, Note_on_c, 0, 81, 73
1, 155610, Note_on_c, 0, 60, 54
1, 155620, Note_on_c, 0, 78, 0
1, 155798, Note_on_c, 0, 79, 70
1, 155804, Note_on_c, 0, 81, 0
1, 155810, Note_on_c, 0, 60, 0
1, 155828, Note_on_c, 0, 58, 32
1, 155978, Note_on_c, 0, 75, 56
1, 155981, Note_on_c, 0, 79, 0
1, 156174, Note_on_c, 0, 55, 43
1, 156184, Note_on_c, 0, 74, 58
1, 156187, Note_on_c, 0, 75, 0
1, 156216, Note_on_c, 0, 58, 0
1, 156348, Note_on_c, 0, 50, 0
1, 156358, Note_on_c, 0, 74, 0
1, 156364, Note_on_c, 0, 73, 47
1, 156548, Note_on_c, 0, 73, 0
1, 156566, Note_on_c, 0, 74, 53
1, 156568, Note_on_c, 0, 54, 39
1, 156582, Note_on_c, 0, 55, 0
1, 156582, Note_on_c, 0, 50, 38
1, 156722, Note_on_c, 0, 74, 0
1, 156794, Note_on_c, 0, 86, 30
1, 156940, Note_on_c, 0, 85, 65
1, 156978, Note_on_c, 0, 86, 0
1, 157088, Note_on_c, 0, 50, 0
1, 157110, Note_on_c, 0, 88, 66
1, 157128, Note_on_c, 0, 54, 0
1, 157172, Note_on_c, 0, 85, 0
1, 157310, Note_on_c, 0, 86, 80
1, 157380, Note_on_c, 0, 88, 0
1, 157478, Note_on_c, 0, 82, 68
1, 157500, Note_on_c, 0, 67, 49
1, 157506, Note_on_c, 0, 86, 0
1, 157662, Note_on_c, 0, 81, 67
1, 157666, Note_on_c, 0, 67, 0
1, 157670, Note_on_c, 0, 66, 49
1, 157712, Note_on_c, 0, 82, 0
1, 157836, Note_on_c, 0, 66, 0
1, 157840, Note_on_c, 0, 84, 83
1, 157852, Note_on_c, 0, 69, 49
1, 157860, Note_on_c, 0, 81, 0
1, 158026, Note_on_c, 0, 67, 61
1, 158029, Note_on_c, 0, 82, 65
1, 158032, Note_on_c, 0, 69, 0
1, 158086, Note_on_c, 0, 84, 0
1, 158192, Note_on_c, 0, 79, 71
1, 158210, Note_on_c, 0, 82, 0
1, 158210, Note_on_c, 0, 70, 52
1, 158224, Note_on_c, 0, 67, 0
1, 158380, Note_on_c, 0, 78, 63
1, 158382, Note_on_c, 0, 70, 0
1, 158386, Note_on_c, 0, 79, 0
1, 158402, Note_on_c, 0, 69, 34
1, 158534, Note_on_c, 0, 69, 0
1, 158564, Note_on_c, 0, 81, 61
1, 158576, Note_on_c, 0, 78, 0
1, 158592, Note_on_c, 0, 72, 30
1, 158732, Note_on_c, 0, 81, 0
1, 158754, Note_on_c, 0, 72, 0
1, 158757, Note_on_c, 0, 79, 57
1, 158786, Note_on_c, 0, 70, 34
1, 158946, Note_on_c, 0, 87, 70
1, 158949, Note_on_c, 0, 70, 0
1, 158966, Note_on_c, 0, 67, 32
1, 158970, Note_on_c, 0, 79, 0
1, 159092, Note_on_c, 0, 67, 0
1, 159136, Note_on_c, 0, 86, 75
1, 159140, Note_on_c, 0, 66, 37
1, 159196, Note_on_c, 0, 87, 0
1, 159300, Note_on_c, 0, 66, 0
1, 159314, Note_on_c, 0, 69, 40
1, 159316, Note_on_c, 0, 84, 74
1, 159356, Note_on_c, 0, 86, 0
1, 159408, Note_on_c, 0, 69, 0
1, 159492, Note_on_c, 0, 82, 52
1, 159506, Note_on_c, 0, 67, 56
1, 159508, Note_on_c, 0, 84, 0
1, 159656, Note_on_c, 0, 82, 0
1, 159664, Note_on_c, 0, 79, 61
1, 159672, Note_on_c, 0, 75, 79
1, 159682, Note_on_c, 0, 67, 0
1, 159846, Note_on_c, 0, 78, 67
1, 159852, Note_on_c, 0, 79, 0
1, 159856, Note_on_c, 0, 75, 0
1, 159858, Note_on_c, 0, 74, 76
1, 160034, Note_on_c, 0, 81, 65
1, 160048, Note_on_c, 0, 72, 57
1, 160054, Note_on_c, 0, 74, 0
1, 160072, Note_on_c, 0, 78, 0
1, 160206, Note_on_c, 0, 81, 0
1, 160214, Note_on_c, 0, 79, 74
1, 160220, Note_on_c, 0, 72, 0
1, 160232, Note_on_c, 0, 70, 39
1, 160384, Note_on_c, 0, 87, 75
1, 160386, Note_on_c, 0, 70, 0
1, 160416, Note_on_c, 0, 67, 43
1, 160420, Note_on_c, 0, 79, 0
1, 160556, Note_on_c, 0, 67, 0
1, 160578, Note_on_c, 0, 86, 75
1, 160578, Note_on_c, 0, 66, 37
1, 160626, Note_on_c, 0, 87, 0
1, 160760, Note_on_c, 0, 84, 71
1, 160766, Note_on_c, 0, 66, 0
1, 160774, Note_on_c, 0, 69, 29
1, 160786, Note_on_c, 0, 86, 0
1, 160882, Note_on_c, 0, 69, 0
1, 160938, Note_on_c, 0, 84, 0
1, 160944, Note_on_c, 0, 82, 47
1, 160962, Note_on_c, 0, 67, 36
1, 161068, Note_on_c, 0, 67, 0
1, 161100, Note_on_c, 0, 82, 0
1, 161120, Note_on_c, 0, 79, 49
1, 161122, Note_on_c, 0, 75, 72
1, 161278, Note_on_c, 0, 75, 0
1, 161288, Note_on_c, 0, 78, 49
1, 161292, Note_on_c, 0, 79, 0
1, 161304, Note_on_c, 0, 74, 59
1, 161472, Note_on_c, 0, 74, 0
1, 161475, Note_on_c, 0, 81, 55
1, 161480, Note_on_c, 0, 78, 0
1, 161492, Note_on_c, 0, 72, 37
1, 161646, Note_on_c, 0, 72, 0
1, 161652, Note_on_c, 0, 79, 70
1, 161662, Note_on_c, 0, 70, 38
1, 161680, Note_on_c, 0, 81, 0
1, 161836, Note_on_c, 0, 82, 50
1, 161838, Note_on_c, 0, 70, 0
1, 161846, Note_on_c, 0, 79, 0
1, 161852, Note_on_c, 0, 67, 41
1, 161984, Note_on_c, 0, 67, 0
1, 162020, Note_on_c, 0, 72, 42
1, 162023, Note_on_c, 0, 76, 46
1, 162074, Note_on_c, 0, 82, 0
1, 162190, Note_on_c, 0, 79, 67
1, 162204, Note_on_c, 0, 76, 0
1, 162204, Note_on_c, 0, 72, 0
1, 162204, Note_on_c, 0, 70, 42
1, 162362, Note_on_c, 0, 77, 67
1, 162372, Note_on_c, 0, 70, 0
1, 162376, Note_on_c, 0, 68, 39
1, 162380, Note_on_c, 0, 79, 0
1, 162524, Note_on_c, 0, 80, 64
1, 162528, Note_on_c, 0, 68, 0
1, 162548, Note_on_c, 0, 65, 44
1, 162554, Note_on_c, 0, 77, 0
1, 162700, Note_on_c, 0, 65, 0
1, 162706, Note_on_c, 0, 70, 54
1, 162708, Note_on_c, 0, 74, 71
1, 162738, Note_on_c, 0, 80, 0
1, 162874, Note_on_c, 0, 77, 74
1, 162882, Note_on_c, 0, 70, 0
1, 162885, Note_on_c, 0, 74, 0
1, 162890, Note_on_c, 0, 68, 54
1, 163042, Note_on_c, 0, 68, 0
1, 163052, Note_on_c, 0, 75, 73
1, 163062, Note_on_c, 0, 67, 56
1, 163086, Note_on_c, 0, 77, 0
1, 163226, Note_on_c, 0, 67, 0
1, 163230, Note_on_c, 0, 79, 79
1, 163242, Note_on_c, 0, 63, 62
1, 163264, Note_on_c, 0, 75, 0
1, 163402, Note_on_c, 0, 72, 56
1, 163414, Note_on_c, 0, 68, 56
1, 163426, Note_on_c, 0, 63, 0
1, 163432, Note_on_c, 0, 79, 0
1, 163556, Note_on_c, 0, 75, 60
1, 163584, Note_on_c, 0, 72, 0
1, 163584, Note_on_c, 0, 68, 0
1, 163592, Note_on_c, 0, 67, 49
1, 163752, Note_on_c, 0, 74, 59
1, 163766, Note_on_c, 0, 75, 0
1, 163776, Note_on_c, 0, 65, 47
1, 163778, Note_on_c, 0, 67, 0
1, 163906, Note_on_c, 0, 65, 0
1, 163930, Note_on_c, 0, 77, 46
1, 163944, Note_on_c, 0, 74, 0
1, 163958, Note_on_c, 0, 62, 38
1, 164062, Note_on_c, 0, 62, 0
1, 164088, Note_on_c, 0, 77, 0
1, 164091, Note_on_c, 0, 71, 50
1, 164120, Note_on_c, 0, 67, 36
1, 164192, Note_on_c, 0, 71, 0
1, 164236, Note_on_c, 0, 67, 0
1, 164276, Note_on_c, 0, 74, 50
1, 164330, Note_on_c, 0, 65, 20
1, 164424, Note_on_c, 0, 65, 0
1, 164460, Note_on_c, 0, 74, 0
1, 164466, Note_on_c, 0, 72, 53
1, 164478, Note_on_c, 0, 63, 40
1, 164624, Note_on_c, 0, 63, 0
1, 164628, Note_on_c, 0, 80, 78
1, 164678, Note_on_c, 0, 60, 36
1, 164681, Note_on_c, 0, 72, 0
1, 164796, Note_on_c, 0, 60, 0
1, 164818, Note_on_c, 0, 79, 85
1, 164838, Note_on_c, 0, 59, 38
1, 164900, Note_on_c, 0, 80, 0
1, 164962, Note_on_c, 0, 59, 0
1, 165002, Note_on_c, 0, 77, 66
1, 165008, Note_on_c, 0, 62, 40
1, 165044, Note_on_c, 0, 79, 0
1, 165150, Note_on_c, 0, 62, 0
1, 165180, Note_on_c, 0, 75, 53
1, 165186, Note_on_c, 0, 60, 50
1, 165196, Note_on_c, 0, 77, 0
1, 165310, Note_on_c, 0, 60, 0
1, 165342, Note_on_c, 0, 75, 0
1, 165344, Note_on_c, 0, 68, 79
1, 165356, Note_on_c, 0, 72, 47
1, 165516, Note_on_c, 0, 68, 0
1, 165532, Note_on_c, 0, 67, 58
1, 165542, Note_on_c, 0, 72, 0
1, 165550, Note_on_c, 0, 71, 52
1, 165714, Note_on_c, 0, 74, 54
1, 165716, Note_on_c, 0, 67, 0
1, 165720, Note_on_c, 0, 71, 0
1, 165740, Note_on_c, 0, 65, 44
1, 165854, Note_on_c, 0, 65, 0
1, 165856, Note_on_c, 0, 74, 0
1, 165890, Note_on_c, 0, 72, 58
1, 165918, Note_on_c, 0, 63, 46
1, 166060, Note_on_c, 0, 63, 0
1, 166072, Note_on_c, 0, 80, 86
1, 166118, Note_on_c, 0, 72, 0
1, 166121, Note_on_c, 0, 60, 30
1, 166208, Note_on_c, 0, 60, 0
1, 166266, Note_on_c, 0, 59, 36
1, 166266, Note_on_c, 0, 79, 74
1, 166324, Note_on_c, 0, 80, 0
1, 166406, Note_on_c, 0, 59, 0
1, 166440, Note_on_c, 0, 62, 34
1, 166450, Note_on_c, 0, 77, 46
1, 166456, Note_on_c, 0, 79, 0
1, 166584, Note_on_c, 0, 62, 0
1, 166616, Note_on_c, 0, 75, 42
1, 166622, Note_on_c, 0, 77, 0
1, 166622, Note_on_c, 0, 60, 44
1, 166776, Note_on_c, 0, 68, 63
1, 166788, Note_on_c, 0, 72, 44
1, 166792, Note_on_c, 0, 75, 0
1, 166802, Note_on_c, 0, 60, 0
1, 166968, Note_on_c, 0, 68, 0
1, 166974, Note_on_c, 0, 67, 55
1, 166977, Note_on_c, 0, 71, 52
1, 166984, Note_on_c, 0, 72, 0
1, 167158, Note_on_c, 0, 74, 51
1, 167161, Note_on_c, 0, 67, 0
1, 167172, Note_on_c, 0, 65, 36
1, 167182, Note_on_c, 0, 71, 0
1, 167318, Note_on_c, 0, 65, 0
1, 167320, Note_on_c, 0, 74, 0
1, 167350, Note_on_c, 0, 72, 39
1, 167366, Note_on_c, 0, 63, 31
1, 167518, Note_on_c, 0, 79, 56
1, 167532, Note_on_c, 0, 72, 0
1, 167574, Note_on_c, 0, 63, 0
1, 167682, Note_on_c, 0, 79, 0
1, 167694, Note_on_c, 0, 71, 56
1, 167864, Note_on_c, 0, 74, 65
1, 167870, Note_on_c, 0, 68, 50
1, 167872, Note_on_c, 0, 71, 0
1, 167894, Note_on_c, 0, 65, 32
1, 168054, Note_on_c, 0, 72, 52
1, 168082, Note_on_c, 0, 68, 0
1, 168085, Note_on_c, 0, 74, 0
1, 168092, Note_on_c, 0, 67, 43
1, 168094, Note_on_c, 0, 65, 0
1, 168108, Note_on_c, 0, 63, 43
1, 168240, Note_on_c, 0, 67, 0
1, 168262, Note_on_c, 0, 79, 55
1, 168268, Note_on_c, 0, 72, 0
1, 168286, Note_on_c, 0, 63, 0
1, 168444, Note_on_c, 0, 79, 0
1, 168456, Note_on_c, 0, 71, 44
1, 168622, Note_on_c, 0, 68, 31
1, 168628, Note_on_c, 0, 71, 0
1, 168638, Note_on_c, 0, 74, 37
1, 168644, Note_on_c, 0, 65, 26
1, 168822, Note_on_c, 0, 74, 0
1, 168822, Note_on_c, 0, 72, 28
1, 168824, Note_on_c, 0, 68, 0
1, 168838, Note_on_c, 0, 65, 0
1, 168852, Note_on_c, 0, 67, 28
1, 168856, Note_on_c, 0, 63, 39
1, 169012, Note_on_c, 0, 67, 0
1, 169018, Note_on_c, 0, 72, 0
1, 169020, Note_on_c, 0, 79, 41
1, 169030, Note_on_c, 0, 63, 0
1, 169162, Note_on_c, 0, 79, 0
1, 169202, Note_on_c, 0, 71, 40
1, 169358, Note_on_c, 0, 71, 0
1, 169374, Note_on_c, 0, 68, 32
1, 169380, Note_on_c, 0, 65, 17
1, 169382, Note_on_c, 0, 74, 41
1, 169558, Note_on_c, 0, 72, 35
1, 169562, Note_on_c, 0, 63, 47
1, 169565, Note_on_c, 0, 67, 44
1, 169566, Note_on_c, 0, 74, 0
1, 169570, Note_on_c, 0, 65, 0
1, 169576, Note_on_c, 0, 68, 0
1, 169770, Note_on_c, 0, 72, 0
1, 169780, Note_on_c, 0, 79, 48
1, 169960, Note_on_c, 0, 79, 0
1, 169964, Note_on_c, 0, 72, 46
1, 170144, Note_on_c, 0, 72, 0
1, 170148, Note_on_c, 0, 79, 62
1, 170318, Note_on_c, 0, 79, 0
1, 170332, Note_on_c, 0, 72, 54
1, 170378, Note_on_c, 0, 67, 0
1, 170500, Note_on_c, 0, 72, 0
1, 170506, Note_on_c, 0, 79, 68
1, 170622, Note_on_c, 0, 63, 0
1, 170686, Note_on_c, 0, 72, 56
1, 170689, Note_on_c, 0, 79, 0
1, 170834, Note_on_c, 0, 72, 0
1, 170852, Note_on_c, 0, 79, 75
1, 171018, Note_on_c, 0, 63, 41
1, 171026, Note_on_c, 0, 79, 0
1, 171034, Note_on_c, 0, 72, 66
1, 171042, Note_on_c, 0, 67, 27
1, 171114, Note_on_c, 0, 63, 0
1, 171164, Note_on_c, 0, 67, 0
1, 171204, Note_on_c, 0, 72, 0
1, 171214, Note_on_c, 0, 79, 57
1, 171220, Note_on_c, 0, 84, 64
1, 171244, Note_on_c, 0, 60, 33
1, 171340, Note_on_c, 0, 60, 0
1, 171364, Note_on_c, 0, 84, 0
1, 171396, Note_on_c, 0, 72, 70
1, 171396, Note_on_c, 0, 67, 41
1, 171398, Note_on_c, 0, 63, 54
1, 171400, Note_on_c, 0, 79, 0
1, 171524, Note_on_c, 0, 67, 0
1, 171540, Note_on_c, 0, 63, 0
1, 171556, Note_on_c, 0, 60, 58
1, 171560, Note_on_c, 0, 72, 0
1, 171560, Note_on_c, 0, 79, 90
1, 171562, Note_on_c, 0, 84, 89
1, 171706, Note_on_c, 0, 60, 0
1, 171732, Note_on_c, 0, 84, 0
1, 171732, Note_on_c, 0, 67, 62
1, 171732, Note_on_c, 0, 72, 91
1, 171738, Note_on_c, 0, 63, 65
1, 171756, Note_on_c, 0, 79, 0
1, 171862, Note_on_c, 0, 67, 0
1, 171874, Note_on_c, 0, 63, 0
1, 171898, Note_on_c, 0, 79, 95
1, 171902, Note_on_c, 0, 84, 95
1, 171904, Note_on_c, 0, 72, 0
1, 171904, Note_on_c, 0, 60, 72
1, 172058, Note_on_c, 0, 60, 0
1, 172080, Note_on_c, 0, 84, 0
1, 172080, Note_on_c, 0, 67, 80
1, 172080, Note_on_c, 0, 72, 98
1, 172083, Note_on_c, 0, 63, 75
1, 172104, Note_on_c, 0, 79, 0
1, 172214, Note_on_c, 0, 63, 0
1, 172236, Note_on_c, 0, 79, 103
1, 172236, Note_on_c, 0, 84, 97
1, 172242, Note_on_c, 0, 72, 0
1, 172252, Note_on_c, 0, 60, 76
1, 172254, Note_on_c, 0, 67, 0
1, 172312, Note_on_c, 0, 60, 0
1, 172332, Note_on_c, 0, 79, 0
1, 172354, Note_on_c, 0, 84, 0
1, 172428, Note_on_c, 0, 84, 92
1, 172430, Note_on_c, 0, 79, 94
1, 172436, Note_on_c, 0, 68, 79
1, 172650, Note_on_c, 0, 72, 57
1, 172684, Note_on_c, 0, 68, 0
1, 172832, Note_on_c, 0, 68, 59
1, 172840, Note_on_c, 0, 72, 0
1, 172964, Note_on_c, 0, 79, 0
1, 172998, Note_on_c, 0, 68, 0
1, 173018, Note_on_c, 0, 80, 72
1, 173024, Note_on_c, 0, 72, 59
1, 173088, Note_on_c, 0, 79, 91
1, 173150, Note_on_c, 0, 72, 0
1, 173158, Note_on_c, 0, 80, 0
1, 173164, Note_on_c, 0, 77, 98
1, 173168, Note_on_c, 0, 68, 65
1, 173220, Note_on_c, 0, 79, 0
1, 173298, Note_on_c, 0, 77, 0
1, 173354, Note_on_c, 0, 72, 67
1, 173357, Note_on_c, 0, 68, 0
1, 173520, Note_on_c, 0, 72, 0
1, 173520, Note_on_c, 0, 77, 98
1, 173520, Note_on_c, 0, 68, 59
1, 173604, Note_on_c, 0, 77, 0
1, 173710, Note_on_c, 0, 72, 62
1, 173718, Note_on_c, 0, 84, 0
1, 173738, Note_on_c, 0, 68, 0
1, 173846, Note_on_c, 0, 72, 0
1, 173866, Note_on_c, 0, 85, 95
1, 173874, Note_on_c, 0, 77, 95
1, 173886, Note_on_c, 0, 67, 52
1, 174088, Note_on_c, 0, 70, 44
1, 174138, Note_on_c, 0, 67, 0
1, 174276, Note_on_c, 0, 67, 63
1, 174279, Note_on_c, 0, 70, 0
1, 174334, Note_on_c, 0, 77, 0
1, 174420, Note_on_c, 0, 79, 79
1, 174422, Note_on_c, 0, 70, 61
1, 174492, Note_on_c, 0, 77, 75
1, 174542, Note_on_c, 0, 79, 0
1, 174556, Note_on_c, 0, 70, 0
1, 174586, Note_on_c, 0, 76, 80
1, 174589, Note_on_c, 0, 60, 62
1, 174638, Note_on_c, 0, 77, 0
1, 174666, Note_on_c, 0, 67, 0
1, 174744, Note_on_c, 0, 70, 58
1, 174770, Note_on_c, 0, 60, 0
1, 174774, Note_on_c, 0, 76, 0
1, 174872, Note_on_c, 0, 70, 0
1, 174923, Note_on_c, 0, 60, 63
1, 174932, Note_on_c, 0, 76, 66
1, 174934, Note_on_c, 0, 82, 71
1, 175014, Note_on_c, 0, 60, 0
1, 175046, Note_on_c, 0, 85, 0
1, 175082, Note_on_c, 0, 70, 66
1, 175112, Note_on_c, 0, 79, 88
1, 175174, Note_on_c, 0, 82, 0
1, 175210, Note_on_c, 0, 70, 0
1, 175216, Note_on_c, 0, 76, 0
1, 175300, Note_on_c, 0, 80, 64
1, 175302, Note_on_c, 0, 65, 63
1, 175312, Note_on_c, 0, 79, 0
1, 175484, Note_on_c, 0, 72, 63
1, 175488, Note_on_c, 0, 80, 0
1, 175596, Note_on_c, 0, 65, 0
1, 175642, Note_on_c, 0, 72, 0
1, 175666, Note_on_c, 0, 80, 71
1, 175828, Note_on_c, 0, 80, 0
1, 175840, Note_on_c, 0, 72, 56
1, 176004, Note_on_c, 0, 80, 52
1, 176010, Note_on_c, 0, 72, 0
1, 176026, Note_on_c, 0, 41, 85
1, 176204, Note_on_c, 0, 73, 48
1, 176218, Note_on_c, 0, 80, 0
1, 176372, Note_on_c, 0, 73, 0
1, 176380, Note_on_c, 0, 80, 50
1, 176502, Note_on_c, 0, 41, 0
1, 176570, Note_on_c, 0, 43, 63
1, 176574, Note_on_c, 0, 73, 46
1, 176610, Note_on_c, 0, 80, 0
1, 176644, Note_on_c, 0, 43, 0
1, 176660, Note_on_c, 0, 41, 74
1, 176760, Note_on_c, 0, 79, 69
1, 176766, Note_on_c, 0, 73, 0
1, 176766, Note_on_c, 0, 40, 92
1, 176788, Note_on_c, 0, 41, 0
1, 176944, Note_on_c, 0, 79, 0
1, 176947, Note_on_c, 0, 73, 50
1, 177058, Note_on_c, 0, 40, 0
1, 177134, Note_on_c, 0, 79, 76
1, 177142, Note_on_c, 0, 73, 0
1, 177302, Note_on_c, 0, 73, 54
1, 177336, Note_on_c, 0, 79, 0
1, 177484, Note_on_c, 0, 63, 65
1, 177492, Note_on_c, 0, 73, 0
1, 177496, Note_on_c, 0, 79, 69
1, 177640, Note_on_c, 0, 79, 0
1, 177690, Note_on_c, 0, 72, 42
1, 177848, Note_on_c, 0, 72, 0
1, 177884, Note_on_c, 0, 79, 59
1, 177948, Note_on_c, 0, 63, 0
1, 178000, Note_on_c, 0, 79, 0
1, 178042, Note_on_c, 0, 72, 35
1, 178045, Note_on_c, 0, 65, 27
1, 178110, Note_on_c, 0, 63, 59
1, 178118, Note_on_c, 0, 65, 0
1, 178142, Note_on_c, 0, 72, 0
1, 178210, Note_on_c, 0, 77, 44
1, 178213, Note_on_c, 0, 63, 0
1, 178228, Note_on_c, 0, 62, 51
1, 178388, Note_on_c, 0, 77, 0
1, 178406, Note_on_c, 0, 72, 44
1, 178528, Note_on_c, 0, 62, 0
1, 178554, Note_on_c, 0, 72, 0
1, 178588, Note_on_c, 0, 77, 48
1, 178750, Note_on_c, 0, 77, 0
1, 178750, Note_on_c, 0, 72, 44
1, 178910, Note_on_c, 0, 37, 78
1, 178913, Note_on_c, 0, 77, 59
1, 178954, Note_on_c, 0, 72, 0
1, 179084, Note_on_c, 0, 70, 38
1, 179092, Note_on_c, 0, 77, 0
1, 179276, Note_on_c, 0, 77, 48
1, 179286, Note_on_c, 0, 70, 0
1, 179396, Note_on_c, 0, 37, 0
1, 179438, Note_on_c, 0, 70, 44
1, 179446, Note_on_c, 0, 39, 51
1, 179500, Note_on_c, 0, 77, 0
1, 179530, Note_on_c, 0, 37, 70
1, 179570, Note_on_c, 0, 39, 0
1, 179640, Note_on_c, 0, 36, 75
1, 179652, Note_on_c, 0, 75, 44
1, 179678, Note_on_c, 0, 70, 0
1, 179681, Note_on_c, 0, 37, 0
1, 179834, Note_on_c, 0, 70, 41
1, 179866, Note_on_c, 0, 75, 0
1, 179958, Note_on_c, 0, 36, 0
1, 180026, Note_on_c, 0, 75, 45
1, 180052, Note_on_c, 0, 70, 0
1, 180210, Note_on_c, 0, 75, 0
1, 180213, Note_on_c, 0, 70, 46
1, 180394, Note_on_c, 0, 60, 72
1, 180406, Note_on_c, 0, 75, 43
1, 180408, Note_on_c, 0, 70, 0
1, 180576, Note_on_c, 0, 75, 0
1, 180579, Note_on_c, 0, 68, 44
1, 180748, Note_on_c, 0, 68, 0
1, 180751, Note_on_c, 0, 75, 47
1, 180834, Note_on_c, 0, 60, 0
1, 180906, Note_on_c, 0, 61, 49
1, 180920, Note_on_c, 0, 68, 42
1, 180972, Note_on_c, 0, 75, 0
1, 180975, Note_on_c, 0, 61, 0
1, 181000, Note_on_c, 0, 60, 51
1, 181108, Note_on_c, 0, 73, 44
1, 181108, Note_on_c, 0, 58, 54
1, 181126, Note_on_c, 0, 68, 0
1, 181129, Note_on_c, 0, 60, 0
1, 181296, Note_on_c, 0, 73, 0
1, 181296, Note_on_c, 0, 68, 45
1, 181386, Note_on_c, 0, 58, 0
1, 181498, Note_on_c, 0, 73, 48
1, 181501, Note_on_c, 0, 68, 0
1, 181662, Note_on_c, 0, 73, 0
1, 181662, Note_on_c, 0, 68, 48
1, 181838, Note_on_c, 0, 34, 65
1, 181868, Note_on_c, 0, 73, 42
1, 181876, Note_on_c, 0, 68, 0
1, 182040, Note_on_c, 0, 67, 45
1, 182054, Note_on_c, 0, 73, 0
1, 182186, Note_on_c, 0, 67, 0
1, 182212, Note_on_c, 0, 73, 51
1, 182336, Note_on_c, 0, 34, 0
1, 182400, Note_on_c, 0, 73, 0
1, 182403, Note_on_c, 0, 36, 61
1, 182410, Note_on_c, 0, 67, 49
1, 182478, Note_on_c, 0, 34, 69
1, 182492, Note_on_c, 0, 36, 0
1, 182556, Note_on_c, 0, 32, 73
1, 182558, Note_on_c, 0, 67, 0
1, 182572, Note_on_c, 0, 34, 0
1, 182578, Note_on_c, 0, 72, 60
1, 182680, Note_on_c, 0, 75, 60
1, 182692, Note_on_c, 0, 72, 0
1, 182778, Note_on_c, 0, 77, 60
1, 182796, Note_on_c, 0, 75, 0
1, 182856, Note_on_c, 0, 32, 0
1, 182856, Note_on_c, 0, 75, 69
1, 182918, Note_on_c, 0, 77, 0
1, 182971, Note_on_c, 0, 73, 58
1, 183014, Note_on_c, 0, 75, 0
1, 183038, Note_on_c, 0, 73, 0
1, 183056, Note_on_c, 0, 72, 52
1, 183128, Note_on_c, 0, 72, 0
1, 183140, Note_on_c, 0, 70, 63
1, 183238, Note_on_c, 0, 68, 67
1, 183278, Note_on_c, 0, 61, 63
1, 183284, Note_on_c, 0, 70, 0
1, 183284, Note_on_c, 0, 58, 45
1, 183306, Note_on_c, 0, 51, 32
1, 183332, Note_on_c, 0, 67, 77
1, 183354, Note_on_c, 0, 68, 0
1, 183414, Note_on_c, 0, 67, 0
1, 183426, Note_on_c, 0, 77, 75
1, 183512, Note_on_c, 0, 75, 51
1, 183548, Note_on_c, 0, 77, 0
1, 183596, Note_on_c, 0, 73, 65
1, 183652, Note_on_c, 0, 75, 0
1, 183684, Note_on_c, 0, 72, 67
1, 183706, Note_on_c, 0, 73, 0
1, 183768, Note_on_c, 0, 70, 62
1, 183820, Note_on_c, 0, 72, 0
1, 183858, Note_on_c, 0, 68, 64
1, 183930, Note_on_c, 0, 70, 0
1, 183944, Note_on_c, 0, 67, 76
1, 183950, Note_on_c, 0, 61, 0
1, 183952, Note_on_c, 0, 68, 0
1, 184016, Note_on_c, 0, 58, 0
1, 184028, Note_on_c, 0, 60, 50
1, 184042, Note_on_c, 0, 68, 60
1, 184046, Note_on_c, 0, 56, 30
1, 184050, Note_on_c, 0, 67, 0
1, 184096, Note_on_c, 0, 51, 0
1, 184126, Note_on_c, 0, 70, 73
1, 184152, Note_on_c, 0, 68, 0
1, 184204, Note_on_c, 0, 70, 0
1, 184216, Note_on_c, 0, 72, 80
1, 184302, Note_on_c, 0, 73, 78
1, 184307, Note_on_c, 0, 72, 0
1, 184382, Note_on_c, 0, 75, 83
1, 184422, Note_on_c, 0, 73, 0
1, 184480, Note_on_c, 0, 77, 86
1, 184485, Note_on_c, 0, 75, 0
1, 184500, Note_on_c, 0, 56, 0
1, 184562, Note_on_c, 0, 79, 95
1, 184580, Note_on_c, 0, 77, 0
1, 184616, Note_on_c, 0, 60, 0
1, 184652, Note_on_c, 0, 80, 86
1, 184692, Note_on_c, 0, 79, 0
1, 184695, Note_on_c, 0, 63, 67
1, 184716, Note_on_c, 0, 58, 38
1, 184724, Note_on_c, 0, 55, 52
1, 184752, Note_on_c, 0, 82, 76
1, 184832, Note_on_c, 0, 80, 0
1, 184842, Note_on_c, 0, 84, 96
1, 184868, Note_on_c, 0, 82, 0
1, 184928, Note_on_c, 0, 82, 69
1, 185006, Note_on_c, 0, 84, 0
1, 185022, Note_on_c, 0, 80, 75
1, 185080, Note_on_c, 0, 82, 0
1, 185100, Note_on_c, 0, 79, 80
1, 185152, Note_on_c, 0, 79, 0
1, 185154, Note_on_c, 0, 80, 0
1, 185186, Note_on_c, 0, 77, 63
1, 185216, Note_on_c, 0, 63, 0
1, 185238, Note_on_c, 0, 77, 0
1, 185274, Note_on_c, 0, 75, 58
1, 185342, Note_on_c, 0, 73, 60
1, 185366, Note_on_c, 0, 75, 0
1, 185424, Note_on_c, 0, 63, 57
1, 185428, Note_on_c, 0, 56, 44
1, 185430, Note_on_c, 0, 60, 42
1, 185446, Note_on_c, 0, 72, 70
1, 185450, Note_on_c, 0, 55, 0
1, 185456, Note_on_c, 0, 73, 0
1, 185460, Note_on_c, 0, 58, 0
1, 185522, Note_on_c, 0, 72, 0
1, 185526, Note_on_c, 0, 75, 67
1, 185620, Note_on_c, 0, 77, 73
1, 185630, Note_on_c, 0, 75, 0
1, 185710, Note_on_c, 0, 75, 62
1, 185734, Note_on_c, 0, 77, 0
1, 185806, Note_on_c, 0, 73, 62
1, 185840, Note_on_c, 0, 75, 0
1, 185898, Note_on_c, 0, 72, 55
1, 185908, Note_on_c, 0, 63, 0
1, 185908, Note_on_c, 0, 73, 0
1, 185922, Note_on_c, 0, 60, 0
1, 185966, Note_on_c, 0, 72, 0
1, 185976, Note_on_c, 0, 70, 54
1, 186060, Note_on_c, 0, 68, 61
1, 186124, Note_on_c, 0, 70, 0
1, 186142, Note_on_c, 0, 63, 55
1, 186148, Note_on_c, 0, 58, 29
1, 186150, Note_on_c, 0, 61, 42
1, 186158, Note_on_c, 0, 67, 65
1, 186164, Note_on_c, 0, 68, 0
1, 186202, Note_on_c, 0, 56, 0
1, 186216, Note_on_c, 0, 67, 0
1, 186260, Note_on_c, 0, 77, 51
1, 186318, Note_on_c, 0, 77, 0
1, 186326, Note_on_c, 0, 75, 42
1, 186412, Note_on_c, 0, 73, 56
1, 186464, Note_on_c, 0, 75, 0
1, 186488, Note_on_c, 0, 73, 0
1, 186508, Note_on_c, 0, 72, 54
1, 186590, Note_on_c, 0, 70, 49
1, 186608, Note_on_c, 0, 72, 0
1, 186618, Note_on_c, 0, 63, 0
1, 186672, Note_on_c, 0, 68, 53
1, 186700, Note_on_c, 0, 61, 0
1, 186748, Note_on_c, 0, 70, 0
1, 186756, Note_on_c, 0, 68, 0
1, 186766, Note_on_c, 0, 67, 63
1, 186832, Note_on_c, 0, 67, 0
1, 186838, Note_on_c, 0, 63, 57
1, 186846, Note_on_c, 0, 60, 50
1, 186858, Note_on_c, 0, 68, 50
1, 186922, Note_on_c, 0, 58, 0
1, 186942, Note_on_c, 0, 70, 65
1, 186970, Note_on_c, 0, 68, 0
1, 187004, Note_on_c, 0, 70, 0
1, 187030, Note_on_c, 0, 72, 75
1, 187088, Note_on_c, 0, 72, 0
1, 187114, Note_on_c, 0, 73, 73
1, 187192, Note_on_c, 0, 75, 84
1, 187224, Note_on_c, 0, 73, 0
1, 187286, Note_on_c, 0, 77, 78
1, 187294, Note_on_c, 0, 75, 0
1, 187348, Note_on_c, 0, 77, 0
1, 187360, Note_on_c, 0, 63, 0
1, 187382, Note_on_c, 0, 79, 81
1, 187477, Note_on_c, 0, 80, 72
1, 187488, Note_on_c, 0, 79, 0
1, 187524, Note_on_c, 0, 63, 57
1, 187532, Note_on_c, 0, 58, 37
1, 187534, Note_on_c, 0, 55, 55
1, 187576, Note_on_c, 0, 82, 66
1, 187602, Note_on_c, 0, 80, 0
1, 187638, Note_on_c, 0, 60, 0
1, 187666, Note_on_c, 0, 84, 73
1, 187684, Note_on_c, 0, 82, 0
1, 187746, Note_on_c, 0, 82, 61
1, 187800, Note_on_c, 0, 84, 0
1, 187842, Note_on_c, 0, 80, 64
1, 187884, Note_on_c, 0, 82, 0
1, 187934, Note_on_c, 0, 79, 63
1, 187978, Note_on_c, 0, 80, 0
1, 187984, Note_on_c, 0, 79, 0
1, 188016, Note_on_c, 0, 77, 47
1, 188077, Note_on_c, 0, 55, 0
1, 188078, Note_on_c, 0, 77, 0
1, 188094, Note_on_c, 0, 75, 50
1, 188184, Note_on_c, 0, 73, 47
1, 188202, Note_on_c, 0, 75, 0
1, 188205, Note_on_c, 0, 58, 0
1, 188262, Note_on_c, 0, 68, 58
1, 188274, Note_on_c, 0, 73, 0
1, 188286, Note_on_c, 0, 63, 0
1, 188292, Note_on_c, 0, 72, 51
1, 188356, Note_on_c, 0, 72, 0
1, 188374, Note_on_c, 0, 73, 34
1, 188466, Note_on_c, 0, 73, 0
1, 188466, Note_on_c, 0, 75, 54
1, 188564, Note_on_c, 0, 73, 42
1, 188598, Note_on_c, 0, 75, 0
1, 188646, Note_on_c, 0, 73, 0
1, 188649, Note_on_c, 0, 63, 55
1, 188664, Note_on_c, 0, 72, 44
1, 188670, Note_on_c, 0, 68, 0
1, 188734, Note_on_c, 0, 73, 37
1, 188738, Note_on_c, 0, 72, 0
1, 188820, Note_on_c, 0, 73, 0
1, 188824, Note_on_c, 0, 75, 52
1, 188914, Note_on_c, 0, 73, 36
1, 188932, Note_on_c, 0, 75, 0
1, 188986, Note_on_c, 0, 73, 0
1, 189006, Note_on_c, 0, 63, 0
1, 189010, Note_on_c, 0, 72, 38
1, 189012, Note_on_c, 0, 60, 47
1, 189074, Note_on_c, 0, 73, 40
1, 189084, Note_on_c, 0, 72, 0
1, 189176, Note_on_c, 0, 75, 46
1, 189179, Note_on_c, 0, 73, 0
1, 189272, Note_on_c, 0, 73, 38
1, 189280, Note_on_c, 0, 75, 0
1, 189338, Note_on_c, 0, 60, 0
1, 189346, Note_on_c, 0, 56, 43
1, 189350, Note_on_c, 0, 73, 0
1, 189376, Note_on_c, 0, 72, 40
1, 189448, Note_on_c, 0, 73, 35
1, 189451, Note_on_c, 0, 72, 0
1, 189538, Note_on_c, 0, 73, 0
1, 189552, Note_on_c, 0, 75, 35
1, 189626, Note_on_c, 0, 73, 32
1, 189638, Note_on_c, 0, 75, 0
1, 189706, Note_on_c, 0, 73, 0
1, 189724, Note_on_c, 0, 56, 0
1, 189726, Note_on_c, 0, 66, 30
1, 189746, Note_on_c, 0, 72, 27
1, 189822, Note_on_c, 0, 73, 26
1, 189824, Note_on_c, 0, 72, 0
1, 189908, Note_on_c, 0, 73, 0
1, 189922, Note_on_c, 0, 75, 36
1, 190010, Note_on_c, 0, 73, 28
1, 190014, Note_on_c, 0, 75, 0
1, 190092, Note_on_c, 0, 73, 0
1, 190092, Note_on_c, 0, 63, 38
1, 190122, Note_on_c, 0, 72, 30
1, 190162, Note_on_c, 0, 66, 0
1, 190190, Note_on_c, 0, 73, 30
1, 190198, Note_on_c, 0, 72, 0
1, 190278, Note_on_c, 0, 73, 0
1, 190282, Note_on_c, 0, 75, 39
1, 190360, Note_on_c, 0, 73, 42
1, 190376, Note_on_c, 0, 75, 0
1, 190448, Note_on_c, 0, 73, 0
1, 190448, Note_on_c, 0, 60, 45
1, 190470, Note_on_c, 0, 72, 40
1, 190492, Note_on_c, 0, 63, 0
1, 190542, Note_on_c, 0, 73, 42
1, 190545, Note_on_c, 0, 72, 0
1, 190642, Note_on_c, 0, 75, 52
1, 190654, Note_on_c, 0, 73, 0
1, 190720, Note_on_c, 0, 73, 57
1, 190758, Note_on_c, 0, 75, 0
1, 190804, Note_on_c, 0, 73, 0
1, 190810, Note_on_c, 0, 60, 0
1, 190814, Note_on_c, 0, 72, 51
1, 190822, Note_on_c, 0, 54, 65
1, 190898, Note_on_c, 0, 72, 0
1, 190902, Note_on_c, 0, 73, 46
1, 190958, Note_on_c, 0, 54, 0
1, 190984, Note_on_c, 0, 75, 57
1, 191002, Note_on_c, 0, 73, 0
1, 191084, Note_on_c, 0, 73, 47
1, 191130, Note_on_c, 0, 75, 0
1, 191264, Note_on_c, 0, 72, 70
1, 191274, Note_on_c, 0, 73, 0
1, 191277, Note_on_c, 0, 42, 97
1, 191280, Note_on_c, 0, 30, 102
1, 191382, Note_on_c, 0, 74, 63
1, 191464, Note_on_c, 0, 72, 0
1, 191466, Note_on_c, 0, 74, 0
1, 191472, Note_on_c, 0, 75, 67
1, 191564, Note_on_c, 0, 74, 71
1, 191606, Note_on_c, 0, 75, 0
1, 191670, Note_on_c, 0, 74, 0
1, 191676, Note_on_c, 0, 72, 68
1, 191764, Note_on_c, 0, 74, 55
1, 191804, Note_on_c, 0, 72, 0
1, 191850, Note_on_c, 0, 75, 67
1, 191860, Note_on_c, 0, 74, 0
1, 191936, Note_on_c, 0, 74, 76
1, 191973, Note_on_c, 0, 75, 0
1, 192034, Note_on_c, 0, 74, 0
1, 192036, Note_on_c, 0, 72, 78
1, 192120, Note_on_c, 0, 74, 72
1, 192156, Note_on_c, 0, 72, 0
1, 192214, Note_on_c, 0, 75, 75
1, 192218, Note_on_c, 0, 74, 0
1, 192300, Note_on_c, 0, 74, 69
1, 192360, Note_on_c, 0, 75, 0
1, 192404, Note_on_c, 0, 72, 80
1, 192426, Note_on_c, 0, 74, 0
1, 192494, Note_on_c, 0, 75, 71
1, 192530, Note_on_c, 0, 72, 0
1, 192578, Note_on_c, 0, 74, 84
1, 192622, Note_on_c, 0, 75, 0
1, 192680, Note_on_c, 0, 72, 63
1, 192686, Note_on_c, 0, 74, 0
1, 192714, Note_on_c, 0, 30, 0
1, 192717, Note_on_c, 0, 42, 0
1, 192726, Note_on_c, 0, 72, 0
1, 192750, Note_on_c, 0, 43, 92
1, 192756, Note_on_c, 0, 31, 94
1, 192771, Note_on_c, 0, 71, 95
1, 192858, Note_on_c, 0, 67, 76
1, 192861, Note_on_c, 0, 71, 0
1, 192932, Note_on_c, 0, 67, 0
1, 192932, Note_on_c, 0, 71, 85
1, 192956, Note_on_c, 0, 31, 0
1, 193032, Note_on_c, 0, 74, 90
1, 193036, Note_on_c, 0, 43, 0
1, 193052, Note_on_c, 0, 71, 0
1, 193120, Note_on_c, 0, 79, 89
1, 193144, Note_on_c, 0, 74, 0
1, 193206, Note_on_c, 0, 74, 88
1, 193234, Note_on_c, 0, 79, 0
1, 193292, Note_on_c, 0, 71, 78
1, 193326, Note_on_c, 0, 74, 0
1, 193338, Note_on_c, 0, 71, 0
1, 193364, Note_on_c, 0, 67, 65
1, 193464, Note_on_c, 0, 67, 0
1, 193476, Note_on_c, 0, 66, 84
1, 193482, Note_on_c, 0, 55, 94
1, 193486, Note_on_c, 0, 48, 71
1, 193488, Note_on_c, 0, 51, 81
1, 193488, Note_on_c, 0, 43, 83
1, 193566, Note_on_c, 0, 55, 0
1, 193574, Note_on_c, 0, 66, 0
1, 193574, Note_on_c, 0, 67, 80
1, 193588, Note_on_c, 0, 43, 0
1, 193602, Note_on_c, 0, 48, 0
1, 193608, Note_on_c, 0, 51, 0
1, 193664, Note_on_c, 0, 72, 78
1, 193698, Note_on_c, 0, 67, 0
1, 193750, Note_on_c, 0, 75, 72
1, 193778, Note_on_c, 0, 72, 0
1, 193834, Note_on_c, 0, 79, 89
1, 193860, Note_on_c, 0, 75, 0
1, 193918, Note_on_c, 0, 75, 81
1, 193936, Note_on_c, 0, 79, 0
1, 193996, Note_on_c, 0, 72, 74
1, 194030, Note_on_c, 0, 75, 0
1, 194058, Note_on_c, 0, 72, 0
1, 194074, Note_on_c, 0, 67, 78
1, 194168, Note_on_c, 0, 55, 87
1, 194168, Note_on_c, 0, 66, 81
1, 194174, Note_on_c, 0, 67, 0
1, 194174, Note_on_c, 0, 47, 71
1, 194176, Note_on_c, 0, 50, 81
1, 194178, Note_on_c, 0, 43, 69
1, 194256, Note_on_c, 0, 67, 80
1, 194264, Note_on_c, 0, 43, 0
1, 194270, Note_on_c, 0, 55, 0
1, 194276, Note_on_c, 0, 66, 0
1, 194282, Note_on_c, 0, 50, 0
1, 194292, Note_on_c, 0, 47, 0
1, 194340, Note_on_c, 0, 71, 84
1, 194352, Note_on_c, 0, 67, 0
1, 194430, Note_on_c, 0, 74, 86
1, 194460, Note_on_c, 0, 71, 0
1, 194510, Note_on_c, 0, 74, 0
1, 194516, Note_on_c, 0, 79, 96
1, 194592, Note_on_c, 0, 74, 79
1, 194618, Note_on_c, 0, 79, 0
1, 194674, Note_on_c, 0, 71, 83
1, 194690, Note_on_c, 0, 74, 0
1, 194716, Note_on_c, 0, 71, 0
1, 194752, Note_on_c, 0, 67, 80
1, 194842, Note_on_c, 0, 67, 0
1, 194846, Note_on_c, 0, 55, 94
1, 194850, Note_on_c, 0, 66, 81
1, 194852, Note_on_c, 0, 48, 73
1, 194856, Note_on_c, 0, 51, 79
1, 194856, Note_on_c, 0, 43, 79
1, 194934, Note_on_c, 0, 67, 67
1, 194936, Note_on_c, 0, 43, 0
1, 194948, Note_on_c, 0, 66, 0
1, 194951, Note_on_c, 0, 55, 0
1, 194976, Note_on_c, 0, 48, 0
1, 194984, Note_on_c, 0, 51, 0
1, 195022, Note_on_c, 0, 72, 77
1, 195070, Note_on_c, 0, 67, 0
1, 195104, Note_on_c, 0, 75, 81
1, 195130, Note_on_c, 0, 72, 0
1, 195196, Note_on_c, 0, 79, 80
1, 195206, Note_on_c, 0, 75, 0
1, 195264, Note_on_c, 0, 75, 74
1, 195324, Note_on_c, 0, 79, 0
1, 195352, Note_on_c, 0, 72, 68
1, 195422, Note_on_c, 0, 75, 0
1, 195422, Note_on_c, 0, 67, 74
1, 195474, Note_on_c, 0, 72, 0
1, 195518, Note_on_c, 0, 43, 94
1, 195530, Note_on_c, 0, 79, 103
1, 195538, Note_on_c, 0, 67, 0
1, 195566, Note_on_c, 0, 47, 91
1, 195620, Note_on_c, 0, 43, 0
1, 195672, Note_on_c, 0, 79, 0
1, 195675, Note_on_c, 0, 50, 94
1, 195706, Note_on_c, 0, 47, 0
1, 195730, Note_on_c, 0, 50, 0
1, 195766, Note_on_c, 0, 55, 83
1, 195872, Note_on_c, 0, 56, 75
1, 195880, Note_on_c, 0, 55, 0
1, 195938, Note_on_c, 0, 55, 83
1, 195954, Note_on_c, 0, 56, 0
1, 196046, Note_on_c, 0, 50, 100
1, 196054, Note_on_c, 0, 55, 0
1, 196066, Note_on_c, 0, 67, 65
1, 196132, Note_on_c, 0, 72, 53
1, 196144, Note_on_c, 0, 50, 0
1, 196148, Note_on_c, 0, 47, 74
1, 196188, Note_on_c, 0, 75, 67
1, 196198, Note_on_c, 0, 47, 0
1, 196202, Note_on_c, 0, 67, 0
1, 196214, Note_on_c, 0, 79, 97
1, 196230, Note_on_c, 0, 43, 66
1, 196248, Note_on_c, 0, 72, 0
1, 196296, Note_on_c, 0, 48, 74
1, 196306, Note_on_c, 0, 75, 0
1, 196316, Note_on_c, 0, 43, 0
1, 196364, Note_on_c, 0, 79, 0
1, 196370, Note_on_c, 0, 51, 87
1, 196398, Note_on_c, 0, 48, 0
1, 196456, Note_on_c, 0, 55, 82
1, 196484, Note_on_c, 0, 51, 0
1, 196558, Note_on_c, 0, 55, 0
1, 196558, Note_on_c, 0, 56, 90
1, 196646, Note_on_c, 0, 55, 78
1, 196662, Note_on_c, 0, 56, 0
1, 196742, Note_on_c, 0, 51, 92
1, 196748, Note_on_c, 0, 67, 59
1, 196750, Note_on_c, 0, 55, 0
1, 196804, Note_on_c, 0, 71, 71
1, 196822, Note_on_c, 0, 48, 77
1, 196854, Note_on_c, 0, 51, 0
1, 196878, Note_on_c, 0, 74, 83
1, 196884, Note_on_c, 0, 67, 0
1, 196918, Note_on_c, 0, 43, 100
1, 196924, Note_on_c, 0, 79, 99
1, 196930, Note_on_c, 0, 48, 0
1, 196936, Note_on_c, 0, 71, 0
1, 196980, Note_on_c, 0, 74, 0
1, 196998, Note_on_c, 0, 47, 91
1, 197016, Note_on_c, 0, 79, 0
1, 197042, Note_on_c, 0, 43, 0
1, 197088, Note_on_c, 0, 50, 79
1, 197128, Note_on_c, 0, 47, 0
1, 197140, Note_on_c, 0, 50, 0
1, 197164, Note_on_c, 0, 55, 85
1, 197266, Note_on_c, 0, 55, 0
1, 197276, Note_on_c, 0, 56, 73
1, 197340, Note_on_c, 0, 55, 71
1, 197366, Note_on_c, 0, 56, 0
1, 197444, Note_on_c, 0, 55, 0
1, 197458, Note_on_c, 0, 50, 92
1, 197466, Note_on_c, 0, 67, 60
1, 197528, Note_on_c, 0, 72, 64
1, 197536, Note_on_c, 0, 47, 79
1, 197562, Note_on_c, 0, 50, 0
1, 197586, Note_on_c, 0, 75, 72
1, 197598, Note_on_c, 0, 67, 0
1, 197620, Note_on_c, 0, 43, 95
1, 197632, Note_on_c, 0, 79, 100
1, 197644, Note_on_c, 0, 47, 0
1, 197662, Note_on_c, 0, 72, 0
1, 197704, Note_on_c, 0, 48, 72
1, 197714, Note_on_c, 0, 75, 0
1, 197726, Note_on_c, 0, 79, 0
1, 197754, Note_on_c, 0, 43, 0
1, 197786, Note_on_c, 0, 51, 87
1, 197806, Note_on_c, 0, 48, 0
1, 197872, Note_on_c, 0, 55, 87
1, 197884, Note_on_c, 0, 51, 0
1, 197972, Note_on_c, 0, 56, 85
1, 197974, Note_on_c, 0, 55, 0
1, 198038, Note_on_c, 0, 56, 0
1, 198060, Note_on_c, 0, 55, 69
1, 198150, Note_on_c, 0, 51, 91
1, 198174, Note_on_c, 0, 55, 0
1, 198240, Note_on_c, 0, 48, 79
1, 198274, Note_on_c, 0, 51, 0
1, 198320, Note_on_c, 0, 43, 98
1, 198326, Note_on_c, 0, 48, 0
1, 198326, Note_on_c, 0, 79, 103
1, 198326, Note_on_c, 0, 67, 95
1, 198329, Note_on_c, 0, 71, 95
1, 198334, Note_on_c, 0, 74, 91
1, 198376, Note_on_c, 0, 43, 0
1, 198424, Note_on_c, 0, 67, 0
1, 198456, Note_on_c, 0, 79, 0
1, 198482, Note_on_c, 0, 71, 0
1, 198501, Note_on_c, 0, 74, 0
1, 199052, Note_on_c, 0, 83, 116
1, 199052, Note_on_c, 0, 74, 100
1, 199058, Note_on_c, 0, 79, 98
1, 199058, Note_on_c, 0, 55, 92
1, 199064, Note_on_c, 0, 43, 84
1, 199072, Note_on_c, 0, 50, 78
1, 199082, Note_on_c, 0, 47, 72
1, 199130, Note_on_c, 0, 50, 0
1, 199132, Note_on_c, 0, 83, 0
1, 199132, Note_on_c, 0, 47, 0
1, 199158, Note_on_c, 0, 74, 0
1, 199162, Note_on_c, 0, 55, 0
1, 199168, Note_on_c, 0, 43, 0
1, 199186, Note_on_c, 0, 79, 0
1, 199946, Note_on_c, 0, 47, 92
1, 199948, Note_on_c, 0, 55, 99
1, 199948, Note_on_c, 0, 50, 94
1, 199958, Note_on_c, 0, 43, 85
1, 199962, Note_on_c, 0, 31, 83
1, 200130, Note_on_c, 0, 31, 0
1, 200164, Note_on_c, 0, 43, 0
1, 200208, Note_on_c, 0, 47, 0
1, 200332, Note_on_c, 0, 50, 0
1, 200422, Note_on_c, 0, 55, 0
1, 204162, Note_on_c, 0, 83, 51
1, 204214, Note_on_c, 0, 80, 62
1, 204220, Note_on_c, 0, 68, 40
1, 204224, Note_on_c, 0, 83, 0
1, 204266, Note_on_c, 0, 80, 0
1, 204282, Note_on_c, 0, 68, 0
1, 204508, Note_on_c, 0, 83, 66
1, 204568, Note_on_c, 0, 66, 45
1, 204568, Note_on_c, 0, 78, 69
1, 204570, Note_on_c, 0, 83, 0
1, 204598, Note_on_c, 0, 59, 42
1, 204642, Note_on_c, 0, 78, 0
1, 204650, Note_on_c, 0, 59, 0
1, 204654, Note_on_c, 0, 66, 0
1, 204852, Note_on_c, 0, 83, 67
1, 204918, Note_on_c, 0, 83, 0
1, 204936, Note_on_c, 0, 76, 57
1, 204944, Note_on_c, 0, 56, 26
1, 204956, Note_on_c, 0, 64, 34
1, 204990, Note_on_c, 0, 76, 0
1, 205054, Note_on_c, 0, 64, 0
1, 205054, Note_on_c, 0, 56, 0
1, 205254, Note_on_c, 0, 83, 71
1, 205306, Note_on_c, 0, 83, 0
1, 205336, Note_on_c, 0, 71, 58
1, 205400, Note_on_c, 0, 71, 0
1, 205620, Note_on_c, 0, 83, 75
1, 205680, Note_on_c, 0, 68, 46
1, 205680, Note_on_c, 0, 80, 75
1, 205683, Note_on_c, 0, 83, 0
1, 205694, Note_on_c, 0, 64, 48
1, 205744, Note_on_c, 0, 64, 0
1, 205758, Note_on_c, 0, 68, 0
1, 205786, Note_on_c, 0, 80, 0
1, 205978, Note_on_c, 0, 83, 77
1, 206026, Note_on_c, 0, 83, 0
1, 206042, Note_on_c, 0, 78, 61
1, 206052, Note_on_c, 0, 66, 38
1, 206072, Note_on_c, 0, 59, 31
1, 206100, Note_on_c, 0, 78, 0
1, 206122, Note_on_c, 0, 66, 0
1, 206134, Note_on_c, 0, 59, 0
1, 206326, Note_on_c, 0, 83, 79
1, 206378, Note_on_c, 0, 83, 0
1, 206412, Note_on_c, 0, 56, 30
1, 206412, Note_on_c, 0, 76, 57
1, 206422, Note_on_c, 0, 64, 36
1, 206482, Note_on_c, 0, 76, 0
1, 206626, Note_on_c, 0, 56, 0
1, 206634, Note_on_c, 0, 64, 0
1, 206702, Note_on_c, 0, 83, 48
1, 206764, Note_on_c, 0, 83, 0
1, 206767, Note_on_c, 0, 71, 69
1, 206812, Note_on_c, 0, 71, 0
1, 207034, Note_on_c, 0, 64, 47
1, 207036, Note_on_c, 0, 88, 60
1, 207100, Note_on_c, 0, 83, 103
1, 207108, Note_on_c, 0, 68, 73
1, 207110, Note_on_c, 0, 64, 0
1, 207160, Note_on_c, 0, 88, 0
1, 207162, Note_on_c, 0, 68, 0
1, 207214, Note_on_c, 0, 83, 0
1, 207358, Note_on_c, 0, 64, 62
1, 207368, Note_on_c, 0, 88, 66
1, 207430, Note_on_c, 0, 85, 87
1, 207436, Note_on_c, 0, 64, 0
1, 207436, Note_on_c, 0, 69, 77
1, 207480, Note_on_c, 0, 88, 0
1, 207500, Note_on_c, 0, 69, 0
1, 207532, Note_on_c, 0, 85, 0
1, 207698, Note_on_c, 0, 88, 71
1, 207714, Note_on_c, 0, 64, 54
1, 207766, Note_on_c, 0, 64, 0
1, 207774, Note_on_c, 0, 86, 94
1, 207774, Note_on_c, 0, 71, 89
1, 207834, Note_on_c, 0, 88, 0
1, 207872, Note_on_c, 0, 86, 0
1, 207878, Note_on_c, 0, 71, 0
1, 208050, Note_on_c, 0, 88, 70
1, 208068, Note_on_c, 0, 64, 44
1, 208118, Note_on_c, 0, 64, 0
1, 208134, Note_on_c, 0, 85, 75
1, 208136, Note_on_c, 0, 73, 70
1, 208176, Note_on_c, 0, 73, 0
1, 208176, Note_on_c, 0, 88, 0
1, 208202, Note_on_c, 0, 85, 0
1, 208404, Note_on_c, 0, 88, 50
1, 208410, Note_on_c, 0, 64, 37
1, 208466, Note_on_c, 0, 64, 0
1, 208469, Note_on_c, 0, 88, 0
1, 208484, Note_on_c, 0, 83, 85
1, 208486, Note_on_c, 0, 74, 62
1, 208536, Note_on_c, 0, 83, 0
1, 208544, Note_on_c, 0, 74, 0
1, 208726, Note_on_c, 0, 88, 57
1, 208754, Note_on_c, 0, 64, 44
1, 208804, Note_on_c, 0, 88, 0
1, 208816, Note_on_c, 0, 64, 0
1, 208822, Note_on_c, 0, 80, 66
1, 208856, Note_on_c, 0, 74, 56
1, 208878, Note_on_c, 0, 80, 0
1, 208908, Note_on_c, 0, 74, 0
1, 209062, Note_on_c, 0, 88, 44
1, 209072, Note_on_c, 0, 64, 33
1, 209130, Note_on_c, 0, 64, 0
1, 209132, Note_on_c, 0, 88, 0
1, 209188, Note_on_c, 0, 81, 30
1, 209196, Note_on_c, 0, 73, 26
1, 209268, Note_on_c, 0, 81, 0
1, 209388, Note_on_c, 0, 73, 0
1, 209450, Note_on_c, 0, 85, 37
1, 209508, Note_on_c, 0, 85, 0
1, 209552, Note_on_c, 0, 76, 43
1, 209604, Note_on_c, 0, 76, 0
1, 209816, Note_on_c, 0, 76, 40
1, 209892, Note_on_c, 0, 73, 63
1, 209897, Note_on_c, 0, 61, 41
1, 209916, Note_on_c, 0, 57, 36
1, 209936, Note_on_c, 0, 76, 0
1, 209984, Note_on_c, 0, 57, 0
1, 209994, Note_on_c, 0, 73, 0
1, 209996, Note_on_c, 0, 61, 0
1, 210176, Note_on_c, 0, 76, 45
1, 210242, Note_on_c, 0, 76, 0
1, 210242, Note_on_c, 0, 59, 54
1, 210250, Note_on_c, 0, 71, 51
1, 210264, Note_on_c, 0, 52, 46
1, 210316, Note_on_c, 0, 52, 0
1, 210326, Note_on_c, 0, 71, 0
1, 210336, Note_on_c, 0, 59, 0
1, 210526, Note_on_c, 0, 76, 30
1, 210596, Note_on_c, 0, 76, 0
1, 210606, Note_on_c, 0, 49, 30
1, 210616, Note_on_c, 0, 69, 42
1, 210618, Note_on_c, 0, 57, 31
1, 210694, Note_on_c, 0, 69, 0
1, 210758, Note_on_c, 0, 49, 0
1, 210782, Note_on_c, 0, 57, 0
1, 210898, Note_on_c, 0, 76, 36
1, 210964, Note_on_c, 0, 76, 0
1, 211010, Note_on_c, 0, 64, 44
1, 211074, Note_on_c, 0, 64, 0
1, 211266, Note_on_c, 0, 76, 36
1, 211330, Note_on_c, 0, 76, 0
1, 211336, Note_on_c, 0, 73, 47
1, 211356, Note_on_c, 0, 61, 39
1, 211366, Note_on_c, 0, 57, 33
1, 211464, Note_on_c, 0, 57, 0
1, 211464, Note_on_c, 0, 73, 0
1, 211500, Note_on_c, 0, 61, 0
1, 211624, Note_on_c, 0, 76, 33
1, 211694, Note_on_c, 0, 76, 0
1, 211710, Note_on_c, 0, 71, 59
1, 211732, Note_on_c, 0, 59, 41
1, 211752, Note_on_c, 0, 52, 35
1, 211784, Note_on_c, 0, 71, 0
1, 211792, Note_on_c, 0, 59, 0
1, 211818, Note_on_c, 0, 52, 0
1, 212000, Note_on_c, 0, 76, 40
1, 212066, Note_on_c, 0, 76, 0
1, 212090, Note_on_c, 0, 57, 29
1, 212090, Note_on_c, 0, 49, 27
1, 212093, Note_on_c, 0, 69, 47
1, 212174, Note_on_c, 0, 69, 0
1, 212268, Note_on_c, 0, 57, 0
1, 212286, Note_on_c, 0, 49, 0
1, 212362, Note_on_c, 0, 76, 45
1, 212426, Note_on_c, 0, 76, 0
1, 212452, Note_on_c, 0, 64, 65
1, 212496, Note_on_c, 0, 64, 0
1, 212748, Note_on_c, 0, 81, 50
1, 212814, Note_on_c, 0, 81, 0
1, 212822, Note_on_c, 0, 69, 53
1, 212874, Note_on_c, 0, 69, 0
1, 213096, Note_on_c, 0, 85, 56
1, 213166, Note_on_c, 0, 73, 46
1, 213228, Note_on_c, 0, 85, 0
1, 213231, Note_on_c, 0, 73, 0
1, 213428, Note_on_c, 0, 88, 34
1, 213502, Note_on_c, 0, 88, 0
1, 213506, Note_on_c, 0, 79, 50
1, 213514, Note_on_c, 0, 73, 34
1, 213522, Note_on_c, 0, 76, 44
1, 213570, Note_on_c, 0, 79, 0
1, 213802, Note_on_c, 0, 88, 38
1, 213874, Note_on_c, 0, 88, 0
1, 213892, Note_on_c, 0, 79, 49
1, 213962, Note_on_c, 0, 79, 0
1, 214106, Note_on_c, 0, 76, 0
1, 214152, Note_on_c, 0, 88, 47
1, 214226, Note_on_c, 0, 88, 0
1, 214226, Note_on_c, 0, 74, 72
1, 214238, Note_on_c, 0, 79, 66
1, 214240, Note_on_c, 0, 71, 59
1, 214260, Note_on_c, 0, 73, 0
1, 214310, Note_on_c, 0, 79, 0
1, 214506, Note_on_c, 0, 88, 59
1, 214580, Note_on_c, 0, 79, 84
1, 214612, Note_on_c, 0, 88, 0
1, 214686, Note_on_c, 0, 79, 0
1, 214850, Note_on_c, 0, 88, 76
1, 214912, Note_on_c, 0, 88, 0
1, 214932, Note_on_c, 0, 73, 64
1, 214936, Note_on_c, 0, 78, 84
1, 214944, Note_on_c, 0, 70, 53
1, 214966, Note_on_c, 0, 71, 0
1, 214978, Note_on_c, 0, 74, 0
1, 215044, Note_on_c, 0, 78, 0
1, 215216, Note_on_c, 0, 88, 70
1, 215290, Note_on_c, 0, 71, 78
1, 215290, Note_on_c, 0, 74, 87
1, 215294, Note_on_c, 0, 79, 86
1, 215308, Note_on_c, 0, 88, 0
1, 215322, Note_on_c, 0, 73, 0
1, 215338, Note_on_c, 0, 70, 0
1, 215424, Note_on_c, 0, 79, 0
1, 215546, Note_on_c, 0, 88, 74
1, 215632, Note_on_c, 0, 78, 92
1, 215642, Note_on_c, 0, 73, 73
1, 215654, Note_on_c, 0, 70, 55
1, 215682, Note_on_c, 0, 88, 0
1, 215694, Note_on_c, 0, 71, 0
1, 215700, Note_on_c, 0, 74, 0
1, 215776, Note_on_c, 0, 78, 0
1, 215892, Note_on_c, 0, 70, 0
1, 215900, Note_on_c, 0, 88, 84
1, 215978, Note_on_c, 0, 85, 87
1, 215998, Note_on_c, 0, 66, 44
1, 215998, Note_on_c, 0, 70, 50
1, 216016, Note_on_c, 0, 88, 0
1, 216064, Note_on_c, 0, 73, 0
1, 216134, Note_on_c, 0, 85, 0
1, 216228, Note_on_c, 0, 88, 90
1, 216332, Note_on_c, 0, 86, 98
1, 216337, Note_on_c, 0, 71, 57
1, 216352, Note_on_c, 0, 66, 0
1, 216372, Note_on_c, 0, 70, 0
1, 216400, Note_on_c, 0, 88, 0
1, 216548, Note_on_c, 0, 74, 67
1, 216570, Note_on_c, 0, 71, 0
1, 216662, Note_on_c, 0, 86, 0
1, 216684, Note_on_c, 0, 74, 0
1, 216722, Note_on_c, 0, 71, 79
1, 216876, Note_on_c, 0, 71, 0
1, 216882, Note_on_c, 0, 74, 71
1, 217030, Note_on_c, 0, 74, 0
1, 217030, Note_on_c, 0, 79, 107
1, 217058, Note_on_c, 0, 71, 67
1, 217216, Note_on_c, 0, 71, 0
1, 217232, Note_on_c, 0, 74, 63
1, 217376, Note_on_c, 0, 74, 0
1, 217402, Note_on_c, 0, 71, 73
1, 217578, Note_on_c, 0, 74, 70
1, 217586, Note_on_c, 0, 79, 0
1, 217589, Note_on_c, 0, 81, 87
1, 217592, Note_on_c, 0, 71, 0
1, 217666, Note_on_c, 0, 79, 85
1, 217726, Note_on_c, 0, 81, 0
1, 217754, Note_on_c, 0, 70, 43
1, 217768, Note_on_c, 0, 78, 93
1, 217812, Note_on_c, 0, 74, 0
1, 217826, Note_on_c, 0, 79, 0
1, 217964, Note_on_c, 0, 73, 55
1, 218008, Note_on_c, 0, 70, 0
1, 218134, Note_on_c, 0, 70, 52
1, 218146, Note_on_c, 0, 73, 0
1, 218294, Note_on_c, 0, 73, 71
1, 218324, Note_on_c, 0, 70, 0
1, 218432, Note_on_c, 0, 73, 0
1, 218450, Note_on_c, 0, 77, 85
1, 218464, Note_on_c, 0, 71, 60
1, 218530, Note_on_c, 0, 78, 0
1, 218644, Note_on_c, 0, 74, 63
1, 218684, Note_on_c, 0, 71, 0
1, 218826, Note_on_c, 0, 74, 0
1, 218838, Note_on_c, 0, 71, 72
1, 218992, Note_on_c, 0, 71, 0
1, 219000, Note_on_c, 0, 74, 63
1, 219140, Note_on_c, 0, 78, 83
1, 219156, Note_on_c, 0, 70, 45
1, 219200, Note_on_c, 0, 74, 0
1, 219240, Note_on_c, 0, 77, 0
1, 219332, Note_on_c, 0, 73, 57
1, 219360, Note_on_c, 0, 70, 0
1, 219488, Note_on_c, 0, 73, 0
1, 219506, Note_on_c, 0, 70, 59
1, 219636, Note_on_c, 0, 70, 0
1, 219672, Note_on_c, 0, 73, 50
1, 219744, Note_on_c, 0, 73, 0
1, 219838, Note_on_c, 0, 86, 74
1, 219838, Note_on_c, 0, 71, 97
1, 219850, Note_on_c, 0, 78, 0
1, 220022, Note_on_c, 0, 79, 78
1, 220066, Note_on_c, 0, 86, 0
1, 220198, Note_on_c, 0, 86, 84
1, 220201, Note_on_c, 0, 79, 0
1, 220230, Note_on_c, 0, 71, 0
1, 220352, Note_on_c, 0, 79, 77
1, 220374, Note_on_c, 0, 73, 64
1, 220460, Note_on_c, 0, 71, 88
1, 220502, Note_on_c, 0, 73, 0
1, 220524, Note_on_c, 0, 79, 0
1, 220550, Note_on_c, 0, 85, 78
1, 220572, Note_on_c, 0, 70, 79
1, 220612, Note_on_c, 0, 86, 0
1, 220630, Note_on_c, 0, 71, 0
1, 220736, Note_on_c, 0, 79, 79
1, 220768, Note_on_c, 0, 85, 0
1, 220912, Note_on_c, 0, 79, 0
1, 220916, Note_on_c, 0, 85, 72
1, 221068, Note_on_c, 0, 79, 76
1, 221102, Note_on_c, 0, 85, 0
1, 221230, Note_on_c, 0, 69, 75
1, 221234, Note_on_c, 0, 84, 82
1, 221244, Note_on_c, 0, 79, 0
1, 221288, Note_on_c, 0, 70, 0
1, 221394, Note_on_c, 0, 78, 65
1, 221444, Note_on_c, 0, 84, 0
1, 221598, Note_on_c, 0, 84, 88
1, 221601, Note_on_c, 0, 78, 0
1, 221752, Note_on_c, 0, 78, 71
1, 221790, Note_on_c, 0, 84, 0
1, 221924, Note_on_c, 0, 68, 62
1, 221927, Note_on_c, 0, 83, 91
1, 221934, Note_on_c, 0, 78, 0
1, 221996, Note_on_c, 0, 69, 0
1, 222112, Note_on_c, 0, 77, 68
1, 222162, Note_on_c, 0, 83, 0
1, 222292, Note_on_c, 0, 83, 69
1, 222304, Note_on_c, 0, 77, 0
1, 222396, Note_on_c, 0, 68, 0
1, 222444, Note_on_c, 0, 83, 0
1, 222460, Note_on_c, 0, 77, 71
1, 222598, Note_on_c, 0, 77, 0
1, 222608, Note_on_c, 0, 67, 87
1, 222610, Note_on_c, 0, 83, 83
1, 222782, Note_on_c, 0, 76, 55
1, 222804, Note_on_c, 0, 83, 0
1, 222962, Note_on_c, 0, 83, 98
1, 222980, Note_on_c, 0, 76, 0
1, 223090, Note_on_c, 0, 67, 0
1, 223102, Note_on_c, 0, 69, 61
1, 223132, Note_on_c, 0, 76, 62
1, 223186, Note_on_c, 0, 67, 63
1, 223244, Note_on_c, 0, 69, 0
1, 223286, Note_on_c, 0, 76, 0
1, 223286, Note_on_c, 0, 66, 74
1, 223296, Note_on_c, 0, 82, 62
1, 223324, Note_on_c, 0, 67, 0
1, 223344, Note_on_c, 0, 83, 0
1, 223482, Note_on_c, 0, 76, 49
1, 223546, Note_on_c, 0, 82, 0
1, 223648, Note_on_c, 0, 82, 37
1, 223678, Note_on_c, 0, 76, 0
1, 223832, Note_on_c, 0, 76, 55
1, 223852, Note_on_c, 0, 82, 0
1, 223966, Note_on_c, 0, 76, 0
1, 223988, Note_on_c, 0, 82, 69
1, 224140, Note_on_c, 0, 76, 54
1, 224224, Note_on_c, 0, 82, 0
1, 224296, Note_on_c, 0, 67, 85
1, 224308, Note_on_c, 0, 83, 102
1, 224318, Note_on_c, 0, 76, 0
1, 224356, Note_on_c, 0, 66, 0
1, 224472, Note_on_c, 0, 76, 56
1, 224604, Note_on_c, 0, 76, 0
1, 224626, Note_on_c, 0, 82, 66
1, 224632, Note_on_c, 0, 66, 66
1, 224670, Note_on_c, 0, 67, 0
1, 224698, Note_on_c, 0, 83, 0
1, 224794, Note_on_c, 0, 76, 55
1, 224876, Note_on_c, 0, 82, 0
1, 224948, Note_on_c, 0, 82, 52
1, 224982, Note_on_c, 0, 76, 0
1, 225124, Note_on_c, 0, 76, 57
1, 225148, Note_on_c, 0, 82, 0
1, 225280, Note_on_c, 0, 76, 0
1, 225286, Note_on_c, 0, 82, 69
1, 225438, Note_on_c, 0, 76, 54
1, 225540, Note_on_c, 0, 82, 0
1, 225584, Note_on_c, 0, 67, 75
1, 225588, Note_on_c, 0, 76, 0
1, 225598, Note_on_c, 0, 66, 0
1, 225598, Note_on_c, 0, 83, 105
1, 225758, Note_on_c, 0, 76, 59
1, 225894, Note_on_c, 0, 76, 0
1, 225906, Note_on_c, 0, 66, 76
1, 225908, Note_on_c, 0, 82, 70
1, 225968, Note_on_c, 0, 83, 0
1, 225973, Note_on_c, 0, 67, 0
1, 226070, Note_on_c, 0, 76, 54
1, 226130, Note_on_c, 0, 82, 0
1, 226222, Note_on_c, 0, 82, 51
1, 226248, Note_on_c, 0, 76, 0
1, 226402, Note_on_c, 0, 76, 56
1, 226430, Note_on_c, 0, 82, 0
1, 226534, Note_on_c, 0, 76, 0
1, 226566, Note_on_c, 0, 82, 62
1, 226708, Note_on_c, 0, 76, 52
1, 226734, Note_on_c, 0, 82, 0
1, 226842, Note_on_c, 0, 76, 0
1, 226880, Note_on_c, 0, 82, 55
1, 227028, Note_on_c, 0, 82, 0
1, 227042, Note_on_c, 0, 76, 43
1, 227204, Note_on_c, 0, 76, 0
1, 227226, Note_on_c, 0, 81, 45
1, 227228, Note_on_c, 0, 65, 34
1, 227234, Note_on_c, 0, 66, 0
1, 227382, Note_on_c, 0, 75, 44
1, 227406, Note_on_c, 0, 81, 0
1, 227548, Note_on_c, 0, 75, 0
1, 227574, Note_on_c, 0, 81, 51
1, 227676, Note_on_c, 0, 81, 0
1, 227722, Note_on_c, 0, 75, 27
1, 227830, Note_on_c, 0, 75, 0
1, 227920, Note_on_c, 0, 81, 29
1, 227998, Note_on_c, 0, 81, 0
1, 228058, Note_on_c, 0, 75, 32
1, 228160, Note_on_c, 0, 75, 0
1, 228236, Note_on_c, 0, 81, 42
1, 228239, Note_on_c, 0, 65, 0
1, 228304, Note_on_c, 0, 81, 0
1, 228388, Note_on_c, 0, 75, 38
1, 228552, Note_on_c, 0, 75, 0
1, 228552, Note_on_c, 0, 80, 41
1, 228560, Note_on_c, 0, 58, 38
1, 228584, Note_on_c, 0, 65, 26
1, 228712, Note_on_c, 0, 74, 48
1, 228730, Note_on_c, 0, 80, 0
1, 228862, Note_on_c, 0, 74, 0
1, 228892, Note_on_c, 0, 80, 41
1, 229052, Note_on_c, 0, 74, 37
1, 229060, Note_on_c, 0, 80, 0
1, 229142, Note_on_c, 0, 74, 0
1, 229224, Note_on_c, 0, 80, 48
1, 229372, Note_on_c, 0, 80, 0
1, 229382, Note_on_c, 0, 74, 40
1, 229464, Note_on_c, 0, 74, 0
1, 229467, Note_on_c, 0, 58, 0
1, 229534, Note_on_c, 0, 80, 50
1, 229542, Note_on_c, 0, 59, 47
1, 229688, Note_on_c, 0, 65, 0
1, 229694, Note_on_c, 0, 75, 47
1, 229697, Note_on_c, 0, 80, 0
1, 229760, Note_on_c, 0, 59, 0
1, 229860, Note_on_c, 0, 80, 52
1, 229862, Note_on_c, 0, 58, 51
1, 229868, Note_on_c, 0, 75, 0
1, 229874, Note_on_c, 0, 65, 46
1, 230026, Note_on_c, 0, 74, 49
1, 230028, Note_on_c, 0, 80, 0
1, 230178, Note_on_c, 0, 74, 0
1, 230192, Note_on_c, 0, 80, 55
1, 230346, Note_on_c, 0, 74, 51
1, 230376, Note_on_c, 0, 80, 0
1, 230486, Note_on_c, 0, 74, 0
1, 230536, Note_on_c, 0, 80, 52
1, 230678, Note_on_c, 0, 74, 34
1, 230686, Note_on_c, 0, 80, 0
1, 230826, Note_on_c, 0, 74, 0
1, 230850, Note_on_c, 0, 58, 0
1, 230852, Note_on_c, 0, 80, 46
1, 230860, Note_on_c, 0, 59, 39
1, 230996, Note_on_c, 0, 65, 0
1, 230998, Note_on_c, 0, 75, 38
1, 231008, Note_on_c, 0, 80, 0
1, 231164, Note_on_c, 0, 75, 0
1, 231174, Note_on_c, 0, 59, 0
1, 231176, Note_on_c, 0, 65, 35
1, 231180, Note_on_c, 0, 80, 58
1, 231184, Note_on_c, 0, 58, 37
1, 231276, Note_on_c, 0, 80, 0
1, 231330, Note_on_c, 0, 74, 47
1, 231456, Note_on_c, 0, 74, 0
1, 231514, Note_on_c, 0, 77, 54
1, 231584, Note_on_c, 0, 65, 0
1, 231648, Note_on_c, 0, 68, 60
1, 231651, Note_on_c, 0, 58, 0
1, 231670, Note_on_c, 0, 77, 0
1, 231776, Note_on_c, 0, 68, 0
1, 231820, Note_on_c, 0, 72, 62
1, 231876, Note_on_c, 0, 72, 0
1, 231960, Note_on_c, 0, 65, 58
1, 232064, Note_on_c, 0, 65, 0
1, 232128, Note_on_c, 0, 68, 65
1, 232186, Note_on_c, 0, 68, 0
1, 232262, Note_on_c, 0, 62, 54
1, 232382, Note_on_c, 0, 62, 0
1, 232438, Note_on_c, 0, 65, 71
1, 232566, Note_on_c, 0, 56, 61
1, 232644, Note_on_c, 0, 65, 0
1, 232736, Note_on_c, 0, 60, 80
1, 232753, Note_on_c, 0, 56, 0
1, 232880, Note_on_c, 0, 53, 97
1, 232938, Note_on_c, 0, 60, 0
1, 233030, Note_on_c, 0, 56, 90
1, 233046, Note_on_c, 0, 53, 0
1, 233198, Note_on_c, 0, 46, 94
1, 233218, Note_on_c, 0, 56, 0
1, 233354, Note_on_c, 0, 48, 96
1, 233412, Note_on_c, 0, 46, 0
1, 233484, Note_on_c, 0, 50, 103
1, 233492, Note_on_c, 0, 48, 0
1, 233588, Note_on_c, 0, 39, 87
1, 233628, Note_on_c, 0, 50, 0
1, 233628, Note_on_c, 0, 43, 73
1, 233704, Note_on_c, 0, 46, 78
1, 233742, Note_on_c, 0, 55, 91
1, 233754, Note_on_c, 0, 58, 83
1, 233758, Note_on_c, 0, 51, 105
1, 233760, Note_on_c, 0, 63, 107
1, 234188, Note_on_c, 0, 43, 0
1, 234218, Note_on_c, 0, 58, 0
1, 234232, Note_on_c, 0, 63, 0
1, 234238, Note_on_c, 0, 46, 0
1, 234312, Note_on_c, 0, 39, 0
1, 234400, Note_on_c, 0, 51, 0
1, 234440, Note_on_c, 0, 55, 0
1, 234472, Note_on_c, 0, 67, 105
1, 234472, Note_on_c, 0, 61, 98
1, 234472, Note_on_c, 0, 49, 97
1, 234478, Note_on_c, 0, 39, 78
1, 234480, Note_on_c, 0, 63, 94
1, 234492, Note_on_c, 0, 46, 72
1, 234500, Note_on_c, 0, 43, 74
1, 234844, Note_on_c, 0, 63, 0
1, 234850, Note_on_c, 0, 61, 0
1, 234856, Note_on_c, 0, 67, 0
1, 234866, Note_on_c, 0, 43, 0
1, 234868, Note_on_c, 0, 49, 0
1, 234874, Note_on_c, 0, 39, 0
1, 234912, Note_on_c, 0, 46, 0
1, 235040, Note_on_c, 0, 61, 93
1, 235042, Note_on_c, 0, 67, 98
1, 235044, Note_on_c, 0, 49, 86
1, 235048, Note_on_c, 0, 63, 83
1, 235054, Note_on_c, 0, 46, 54
1, 235056, Note_on_c, 0, 39, 68
1, 235062, Note_on_c, 0, 43, 64
1, 235112, Note_on_c, 0, 39, 0
1, 235130, Note_on_c, 0, 63, 0
1, 235134, Note_on_c, 0, 46, 0
1, 235174, Note_on_c, 0, 49, 0
1, 235184, Note_on_c, 0, 39, 68
1, 235188, Note_on_c, 0, 61, 0
1, 235220, Note_on_c, 0, 60, 97
1, 235220, Note_on_c, 0, 44, 82
1, 235226, Note_on_c, 0, 48, 88
1, 235228, Note_on_c, 0, 63, 83
1, 235244, Note_on_c, 0, 68, 100
1, 235248, Note_on_c, 0, 43, 0
1, 235352, Note_on_c, 0, 67, 0
1, 236016, Note_on_c, 0, 60, 0
1, 236040, Note_on_c, 0, 68, 0
1, 236040, Note_on_c, 0, 63, 0
1, 236170, Note_on_c, 0, 39, 0
1, 236204, Note_on_c, 0, 48, 0
1, 236240, Note_on_c, 0, 44, 0
1, 236302, Note_on_c, 0, 68, 83
1, 236372, Note_on_c, 0, 67, 82
1, 236440, Note_on_c, 0, 68, 0
1, 236468, Note_on_c, 0, 65, 75
1, 236506, Note_on_c, 0, 67, 0
1, 236538, Note_on_c, 0, 63, 84
1, 236564, Note_on_c, 0, 65, 0
1, 236566, Note_on_c, 0, 39, 66
1, 236570, Note_on_c, 0, 63, 0
1, 236592, Note_on_c, 0, 41, 69
1, 236618, Note_on_c, 0, 44, 62
1, 236662, Note_on_c, 0, 63, 69
1, 236674, Note_on_c, 0, 50, 84
1, 236686, Note_on_c, 0, 56, 88
1, 236688, Note_on_c, 0, 62, 106
1, 236700, Note_on_c, 0, 63, 0
1, 236702, Note_on_c, 0, 58, 76
1, 237062, Note_on_c, 0, 56, 0
1, 237064, Note_on_c, 0, 62, 0
1, 237072, Note_on_c, 0, 58, 0
1, 237134, Note_on_c, 0, 50, 0
1, 237152, Note_on_c, 0, 39, 0
1, 237162, Note_on_c, 0, 41, 0
1, 237224, Note_on_c, 0, 44, 0
1, 237248, Note_on_c, 0, 65, 91
1, 237368, Note_on_c, 0, 65, 0
1, 237380, Note_on_c, 0, 62, 57
1, 237392, Note_on_c, 0, 39, 61
1, 237408, Note_on_c, 0, 41, 63
1, 237432, Note_on_c, 0, 44, 68
1, 237434, Note_on_c, 0, 65, 74
1, 237452, Note_on_c, 0, 70, 99
1, 237458, Note_on_c, 0, 50, 90
1, 237742, Note_on_c, 0, 65, 0
1, 237858, Note_on_c, 0, 39, 0
1, 237906, Note_on_c, 0, 62, 0
1, 237920, Note_on_c, 0, 41, 0
1, 237946, Note_on_c, 0, 44, 0
1, 237996, Note_on_c, 0, 50, 0
1, 238008, Note_on_c, 0, 68, 83
1, 238080, Note_on_c, 0, 70, 0
1, 238083, Note_on_c, 0, 39, 50
1, 238116, Note_on_c, 0, 43, 64
1, 238176, Note_on_c, 0, 46, 55
1, 238206, Note_on_c, 0, 67, 99
1, 238209, Note_on_c, 0, 51, 87
1, 238209, Note_on_c, 0, 63, 86
1, 238280, Note_on_c, 0, 68, 0
1, 238372, Note_on_c, 0, 39, 0
1, 238492, Note_on_c, 0, 43, 0
1, 238552, Note_on_c, 0, 51, 0
1, 238558, Note_on_c, 0, 63, 0
1, 238562, Note_on_c, 0, 46, 0
1, 238566, Note_on_c, 0, 67, 0
1, 239730, Note_on_c, 0, 74, 52
1, 239736, Note_on_c, 0, 68, 25
1, 239738, Note_on_c, 0, 58, 17
1, 239754, Note_on_c, 0, 65, 19
1, 239922, Note_on_c, 0, 68, 0
1, 239942, Note_on_c, 0, 58, 0
1, 239948, Note_on_c, 0, 65, 0
1, 240272, Note_on_c, 0, 77, 64
1, 240370, Note_on_c, 0, 74, 0
1, 240486, Note_on_c, 0, 58, 25
1, 240488, Note_on_c, 0, 68, 24
1, 240494, Note_on_c, 0, 82, 50
1, 240512, Note_on_c, 0, 65, 26
1, 240536, Note_on_c, 0, 77, 0
1, 240672, Note_on_c, 0, 68, 0
1, 240682, Note_on_c, 0, 65, 0
1, 240740, Note_on_c, 0, 58, 0
1, 241050, Note_on_c, 0, 80, 41
1, 241084, Note_on_c, 0, 62, 23
1, 241152, Note_on_c, 0, 82, 0
1, 241224, Note_on_c, 0, 62, 0
1, 241276, Note_on_c, 0, 79, 44
1, 241280, Note_on_c, 0, 80, 0
1, 241284, Note_on_c, 0, 63, 17
1, 241628, Note_on_c, 0, 63, 0
1, 241654, Note_on_c, 0, 79, 0
1, 242272, Note_on_c, 0, 80, 54
1, 242275, Note_on_c, 0, 84, 66
1, 242284, Note_on_c, 0, 58, 28
1, 242418, Note_on_c, 0, 80, 0
1, 242462, Note_on_c, 0, 82, 57
1, 242466, Note_on_c, 0, 79, 63
1, 242472, Note_on_c, 0, 58, 0
1, 242474, Note_on_c, 0, 60, 42
1, 242524, Note_on_c, 0, 84, 0
1, 242594, Note_on_c, 0, 79, 0
1, 242636, Note_on_c, 0, 77, 58
1, 242640, Note_on_c, 0, 80, 72
1, 242656, Note_on_c, 0, 60, 0
1, 242670, Note_on_c, 0, 62, 35
1, 242692, Note_on_c, 0, 77, 0
1, 242702, Note_on_c, 0, 82, 0
1, 242846, Note_on_c, 0, 63, 32
1, 242848, Note_on_c, 0, 62, 0
1, 242848, Note_on_c, 0, 75, 52
1, 242848, Note_on_c, 0, 79, 78
1, 242886, Note_on_c, 0, 80, 0
1, 243078, Note_on_c, 0, 63, 0
1, 243086, Note_on_c, 0, 75, 0
1, 243108, Note_on_c, 0, 79, 0
1, 243870, Note_on_c, 0, 80, 40
1, 243880, Note_on_c, 0, 84, 40
1, 243892, Note_on_c, 0, 58, 21
1, 244000, Note_on_c, 0, 80, 0
1, 244064, Note_on_c, 0, 82, 40
1, 244068, Note_on_c, 0, 60, 33
1, 244070, Note_on_c, 0, 58, 0
1, 244080, Note_on_c, 0, 84, 0
1, 244082, Note_on_c, 0, 79, 32
1, 244168, Note_on_c, 0, 79, 0
1, 244222, Note_on_c, 0, 60, 0
1, 244234, Note_on_c, 0, 80, 48
1, 244244, Note_on_c, 0, 82, 0
1, 244248, Note_on_c, 0, 77, 25
1, 244268, Note_on_c, 0, 62, 26
1, 244308, Note_on_c, 0, 77, 0
1, 244358, Note_on_c, 0, 62, 0
1, 244436, Note_on_c, 0, 75, 33
1, 244454, Note_on_c, 0, 80, 0
1, 244460, Note_on_c, 0, 79, 45
1, 244468, Note_on_c, 0, 63, 19
1, 244732, Note_on_c, 0, 63, 0
1, 244732, Note_on_c, 0, 79, 0
1, 244768, Note_on_c, 0, 75, 0
1, 245372, Note_on_c, 0, 80, 55
1, 245377, Note_on_c, 0, 84, 65
1, 245566, Note_on_c, 0, 79, 77
1, 245568, Note_on_c, 0, 82, 65
1, 245570, Note_on_c, 0, 80, 0
1, 245622, Note_on_c, 0, 84, 0
1, 245718, Note_on_c, 0, 79, 0
1, 245742, Note_on_c, 0, 80, 75
1, 245745, Note_on_c, 0, 77, 59
1, 245792, Note_on_c, 0, 77, 0
1, 245794, Note_on_c, 0, 82, 0
1, 245870, Note_on_c, 0, 80, 0
1, 245930, Note_on_c, 0, 79, 80
1, 245933, Note_on_c, 0, 75, 59
1, 245984, Note_on_c, 0, 75, 0
1, 245990, Note_on_c, 0, 79, 0
1, 246104, Note_on_c, 0, 80, 65
1, 246108, Note_on_c, 0, 84, 73
1, 246258, Note_on_c, 0, 80, 0
1, 246292, Note_on_c, 0, 82, 53
1, 246298, Note_on_c, 0, 79, 52
1, 246328, Note_on_c, 0, 84, 0
1, 246384, Note_on_c, 0, 79, 0
1, 246478, Note_on_c, 0, 80, 59
1, 246478, Note_on_c, 0, 77, 40
1, 246508, Note_on_c, 0, 82, 0
1, 246528, Note_on_c, 0, 77, 0
1, 246628, Note_on_c, 0, 80, 0
1, 246658, Note_on_c, 0, 75, 49
1, 246670, Note_on_c, 0, 79, 52
1, 246728, Note_on_c, 0, 79, 0
1, 246742, Note_on_c, 0, 75, 0
1, 246832, Note_on_c, 0, 79, 55
1, 246842, Note_on_c, 0, 82, 56
1, 246958, Note_on_c, 0, 79, 0
1, 247016, Note_on_c, 0, 77, 66
1, 247018, Note_on_c, 0, 80, 69
1, 247060, Note_on_c, 0, 80, 0
1, 247060, Note_on_c, 0, 82, 0
1, 247188, Note_on_c, 0, 75, 69
1, 247206, Note_on_c, 0, 79, 72
1, 247222, Note_on_c, 0, 77, 0
1, 247290, Note_on_c, 0, 75, 0
1, 247378, Note_on_c, 0, 77, 72
1, 247380, Note_on_c, 0, 74, 71
1, 247404, Note_on_c, 0, 79, 0
1, 247530, Note_on_c, 0, 74, 0
1, 247544, Note_on_c, 0, 72, 64
1, 247548, Note_on_c, 0, 75, 71
1, 247570, Note_on_c, 0, 77, 0
1, 247592, Note_on_c, 0, 75, 0
1, 247722, Note_on_c, 0, 70, 67
1, 247732, Note_on_c, 0, 74, 68
1, 247746, Note_on_c, 0, 72, 0
1, 247832, Note_on_c, 0, 70, 0
1, 247892, Note_on_c, 0, 68, 58
1, 247898, Note_on_c, 0, 72, 74
1, 247906, Note_on_c, 0, 74, 0
1, 248062, Note_on_c, 0, 70, 69
1, 248070, Note_on_c, 0, 67, 60
1, 248082, Note_on_c, 0, 68, 0
1, 248100, Note_on_c, 0, 72, 0
1, 248120, Note_on_c, 0, 70, 0
1, 248162, Note_on_c, 0, 67, 0
1, 248228, Note_on_c, 0, 68, 62
1, 248246, Note_on_c, 0, 65, 49
1, 248310, Note_on_c, 0, 65, 0
1, 248378, Note_on_c, 0, 68, 0
1, 248404, Note_on_c, 0, 67, 72
1, 248406, Note_on_c, 0, 63, 72
1, 248466, Note_on_c, 0, 63, 0
1, 248566, Note_on_c, 0, 67, 0
1, 248582, Note_on_c, 0, 65, 71
1, 248588, Note_on_c, 0, 62, 72
1, 248656, Note_on_c, 0, 65, 0
1, 248788, Note_on_c, 0, 63, 89
1, 248808, Note_on_c, 0, 48, 28
1, 248862, Note_on_c, 0, 62, 0
1, 249020, Note_on_c, 0, 56, 30
1, 249032, Note_on_c, 0, 48, 0
1, 249190, Note_on_c, 0, 56, 0
1, 249218, Note_on_c, 0, 48, 37
1, 249308, Note_on_c, 0, 48, 0
1, 249384, Note_on_c, 0, 56, 39
1, 249542, Note_on_c, 0, 56, 0
1, 249560, Note_on_c, 0, 48, 44
1, 249702, Note_on_c, 0, 48, 0
1, 249734, Note_on_c, 0, 56, 49
1, 249850, Note_on_c, 0, 56, 0
1, 249876, Note_on_c, 0, 48, 38
1, 250048, Note_on_c, 0, 56, 47
1, 250048, Note_on_c, 0, 65, 67
1, 250058, Note_on_c, 0, 63, 0
1, 250126, Note_on_c, 0, 63, 77
1, 250160, Note_on_c, 0, 48, 0
1, 250178, Note_on_c, 0, 65, 0
1, 250232, Note_on_c, 0, 56, 0
1, 250254, Note_on_c, 0, 62, 79
1, 250260, Note_on_c, 0, 46, 31
1, 250302, Note_on_c, 0, 63, 0
1, 250440, Note_on_c, 0, 56, 41
1, 250466, Note_on_c, 0, 46, 0
1, 250598, Note_on_c, 0, 56, 0
1, 250630, Note_on_c, 0, 46, 33
1, 250770, Note_on_c, 0, 46, 0
1, 250804, Note_on_c, 0, 56, 36
1, 250956, Note_on_c, 0, 56, 0
1, 250964, Note_on_c, 0, 61, 75
1, 250982, Note_on_c, 0, 46, 35
1, 251072, Note_on_c, 0, 62, 0
1, 251182, Note_on_c, 0, 55, 48
1, 251194, Note_on_c, 0, 46, 0
1, 251320, Note_on_c, 0, 55, 0
1, 251356, Note_on_c, 0, 46, 49
1, 251528, Note_on_c, 0, 55, 49
1, 251550, Note_on_c, 0, 46, 0
1, 251622, Note_on_c, 0, 55, 0
1, 251690, Note_on_c, 0, 60, 75
1, 251730, Note_on_c, 0, 44, 35
1, 251778, Note_on_c, 0, 61, 0
1, 251902, Note_on_c, 0, 55, 45
1, 251920, Note_on_c, 0, 44, 0
1, 252022, Note_on_c, 0, 55, 0
1, 252088, Note_on_c, 0, 44, 45
1, 252220, Note_on_c, 0, 44, 0
1, 252276, Note_on_c, 0, 55, 44
1, 252392, Note_on_c, 0, 55, 0
1, 252438, Note_on_c, 0, 44, 41
1, 252622, Note_on_c, 0, 53, 69
1, 252670, Note_on_c, 0, 44, 0
1, 252778, Note_on_c, 0, 53, 0
1, 252790, Note_on_c, 0, 44, 41
1, 252954, Note_on_c, 0, 62, 75
1, 252968, Note_on_c, 0, 44, 0
1, 252968, Note_on_c, 0, 60, 0
1, 252976, Note_on_c, 0, 53, 62
1, 253034, Note_on_c, 0, 60, 75
1, 253040, Note_on_c, 0, 53, 0
1, 253092, Note_on_c, 0, 62, 0
1, 253122, Note_on_c, 0, 43, 57
1, 253146, Note_on_c, 0, 58, 69
1, 253198, Note_on_c, 0, 60, 0
1, 253346, Note_on_c, 0, 53, 66
1, 253364, Note_on_c, 0, 43, 0
1, 253436, Note_on_c, 0, 53, 0
1, 253528, Note_on_c, 0, 43, 64
1, 253704, Note_on_c, 0, 58, 0
1, 253706, Note_on_c, 0, 53, 67
1, 253709, Note_on_c, 0, 43, 0
1, 253709, Note_on_c, 0, 60, 67
1, 253786, Note_on_c, 0, 53, 0
1, 253808, Note_on_c, 0, 62, 77
1, 253848, Note_on_c, 0, 60, 0
1, 253868, Note_on_c, 0, 43, 67
1, 253914, Note_on_c, 0, 63, 83
1, 253952, Note_on_c, 0, 62, 0
1, 254076, Note_on_c, 0, 51, 50
1, 254124, Note_on_c, 0, 43, 0
1, 254206, Note_on_c, 0, 51, 0
1, 254210, Note_on_c, 0, 43, 50
1, 254400, Note_on_c, 0, 63, 0
1, 254400, Note_on_c, 0, 51, 55
1, 254410, Note_on_c, 0, 65, 74
1, 254500, Note_on_c, 0, 67, 83
1, 254542, Note_on_c, 0, 65, 0
1, 254554, Note_on_c, 0, 51, 0
1, 254591, Note_on_c, 0, 41, 63
1, 254594, Note_on_c, 0, 43, 0
1, 254604, Note_on_c, 0, 68, 86
1, 254654, Note_on_c, 0, 67, 0
1, 254782, Note_on_c, 0, 50, 58
1, 254844, Note_on_c, 0, 41, 0
1, 254936, Note_on_c, 0, 50, 0
1, 254970, Note_on_c, 0, 41, 56
1, 255138, Note_on_c, 0, 50, 74
1, 255218, Note_on_c, 0, 50, 0
1, 255238, Note_on_c, 0, 41, 0
1, 255310, Note_on_c, 0, 67, 75
1, 255322, Note_on_c, 0, 39, 68
1, 255424, Note_on_c, 0, 68, 0
1, 255508, Note_on_c, 0, 43, 72
1, 255662, Note_on_c, 0, 46, 57
1, 255670, Note_on_c, 0, 43, 0
1, 255670, Note_on_c, 0, 39, 0
1, 255798, Note_on_c, 0, 46, 0
1, 255834, Note_on_c, 0, 51, 51
1, 255998, Note_on_c, 0, 51, 0
1, 256020, Note_on_c, 0, 46, 38
1, 256050, Note_on_c, 0, 67, 0
1, 256050, Note_on_c, 0, 65, 40
1, 256228, Note_on_c, 0, 65, 0
1, 256244, Note_on_c, 0, 70, 40
1, 256420, Note_on_c, 0, 69, 44
1, 256428, Note_on_c, 0, 46, 0
1, 256431, Note_on_c, 0, 70, 0
1, 256582, Note_on_c, 0, 72, 59
1, 256622, Note_on_c, 0, 69, 0
1, 256752, Note_on_c, 0, 70, 59
1, 256774, Note_on_c, 0, 72, 0
1, 256930, Note_on_c, 0, 74, 70
1, 256930, Note_on_c, 0, 58, 40
1, 256962, Note_on_c, 0, 70, 0
1, 257094, Note_on_c, 0, 57, 43
1, 257100, Note_on_c, 0, 58, 0
1, 257102, Note_on_c, 0, 72, 60
1, 257110, Note_on_c, 0, 74, 0
1, 257260, Note_on_c, 0, 75, 75
1, 257262, Note_on_c, 0, 60, 57
1, 257272, Note_on_c, 0, 57, 0
1, 257324, Note_on_c, 0, 72, 0
1, 257424, Note_on_c, 0, 58, 43
1, 257430, Note_on_c, 0, 60, 0
1, 257436, Note_on_c, 0, 74, 81
1, 257468, Note_on_c, 0, 75, 0
1, 257576, Note_on_c, 0, 77, 79
1, 257584, Note_on_c, 0, 58, 0
1, 257596, Note_on_c, 0, 62, 56
1, 257610, Note_on_c, 0, 74, 0
1, 257746, Note_on_c, 0, 75, 76
1, 257750, Note_on_c, 0, 60, 57
1, 257758, Note_on_c, 0, 62, 0
1, 257796, Note_on_c, 0, 77, 0
1, 257898, Note_on_c, 0, 63, 72
1, 257912, Note_on_c, 0, 79, 88
1, 257934, Note_on_c, 0, 75, 0
1, 257936, Note_on_c, 0, 60, 0
1, 258078, Note_on_c, 0, 77, 80
1, 258082, Note_on_c, 0, 79, 0
1, 258088, Note_on_c, 0, 62, 60
1, 258096, Note_on_c, 0, 63, 0
1, 258234, Note_on_c, 0, 62, 0
1, 258234, Note_on_c, 0, 80, 80
1, 258244, Note_on_c, 0, 65, 53
1, 258282, Note_on_c, 0, 77, 0
1, 258400, Note_on_c, 0, 79, 82
1, 258416, Note_on_c, 0, 64, 62
1, 258424, Note_on_c, 0, 80, 0
1, 258427, Note_on_c, 0, 65, 0
1, 258564, Note_on_c, 0, 82, 65
1, 258566, Note_on_c, 0, 79, 0
1, 258572, Note_on_c, 0, 64, 0
1, 258578, Note_on_c, 0, 67, 54
1, 258750, Note_on_c, 0, 80, 64
1, 258762, Note_on_c, 0, 65, 59
1, 258770, Note_on_c, 0, 67, 0
1, 258794, Note_on_c, 0, 82, 0
1, 258930, Note_on_c, 0, 79, 64
1, 258962, Note_on_c, 0, 80, 0
1, 259106, Note_on_c, 0, 77, 57
1, 259108, Note_on_c, 0, 79, 0
1, 259262, Note_on_c, 0, 75, 62
1, 259278, Note_on_c, 0, 77, 0
1, 259456, Note_on_c, 0, 74, 62
1, 259458, Note_on_c, 0, 75, 0
1, 259464, Note_on_c, 0, 58, 27
1, 259606, Note_on_c, 0, 74, 0
1, 259614, Note_on_c, 0, 84, 60
1, 259788, Note_on_c, 0, 82, 47
1, 259804, Note_on_c, 0, 84, 0
1, 259944, Note_on_c, 0, 80, 49
1, 259954, Note_on_c, 0, 82, 0
1, 260144, Note_on_c, 0, 79, 48
1, 260146, Note_on_c, 0, 80, 0
1, 260146, Note_on_c, 0, 63, 19
1, 260148, Note_on_c, 0, 58, 0
1, 260156, Note_on_c, 0, 67, 30
1, 260168, Note_on_c, 0, 65, 0
1, 260346, Note_on_c, 0, 80, 47
1, 260352, Note_on_c, 0, 79, 0
1, 260514, Note_on_c, 0, 82, 43
1, 260538, Note_on_c, 0, 63, 0
1, 260540, Note_on_c, 0, 67, 0
1, 260552, Note_on_c, 0, 80, 0
1, 260680, Note_on_c, 0, 83, 67
1, 260686, Note_on_c, 0, 82, 0
1, 260832, Note_on_c, 0, 75, 54
1, 260837, Note_on_c, 0, 83, 0
1, 260870, Note_on_c, 0, 84, 48
1, 261030, Note_on_c, 0, 79, 51
1, 261038, Note_on_c, 0, 84, 0
1, 261130, Note_on_c, 0, 79, 0
1, 261220, Note_on_c, 0, 84, 45
1, 261234, Note_on_c, 0, 75, 0
1, 261302, Note_on_c, 0, 84, 0
1, 261348, Note_on_c, 0, 77, 43
1, 261388, Note_on_c, 0, 79, 46
1, 261402, Note_on_c, 0, 77, 0
1, 261416, Note_on_c, 0, 75, 50
1, 261484, Note_on_c, 0, 75, 0
1, 261498, Note_on_c, 0, 79, 0
1, 261526, Note_on_c, 0, 74, 63
1, 261564, Note_on_c, 0, 84, 47
1, 261716, Note_on_c, 0, 84, 0
1, 261748, Note_on_c, 0, 77, 38
1, 261750, Note_on_c, 0, 74, 0
1, 261856, Note_on_c, 0, 77, 0
1, 261904, Note_on_c, 0, 84, 47
1, 262054, Note_on_c, 0, 84, 0
1, 262070, Note_on_c, 0, 77, 44
1, 262178, Note_on_c, 0, 77, 0
1, 262210, Note_on_c, 0, 37, 75
1, 262228, Note_on_c, 0, 82, 38
1, 262398, Note_on_c, 0, 82, 0
1, 262428, Note_on_c, 0, 77, 37
1, 262506, Note_on_c, 0, 77, 0
1, 262572, Note_on_c, 0, 82, 41
1, 262598, Note_on_c, 0, 37, 0
1, 262724, Note_on_c, 0, 39, 43
1, 262748, Note_on_c, 0, 82, 0
1, 262754, Note_on_c, 0, 77, 46
1, 262804, Note_on_c, 0, 37, 62
1, 262842, Note_on_c, 0, 39, 0
1, 262910, Note_on_c, 0, 36, 66
1, 262920, Note_on_c, 0, 82, 46
1, 262938, Note_on_c, 0, 77, 0
1, 262950, Note_on_c, 0, 37, 0
1, 263114, Note_on_c, 0, 76, 42
1, 263144, Note_on_c, 0, 82, 0
1, 263244, Note_on_c, 0, 36, 0
1, 263284, Note_on_c, 0, 76, 0
1, 263288, Note_on_c, 0, 82, 45
1, 263450, Note_on_c, 0, 76, 47
1, 263460, Note_on_c, 0, 82, 0
1, 263608, Note_on_c, 0, 76, 0
1, 263611, Note_on_c, 0, 80, 50
1, 263618, Note_on_c, 0, 72, 76
1, 263782, Note_on_c, 0, 75, 42
1, 263796, Note_on_c, 0, 80, 0
1, 263966, Note_on_c, 0, 75, 0
1, 263968, Note_on_c, 0, 80, 54
1, 263972, Note_on_c, 0, 72, 0
1, 264118, Note_on_c, 0, 73, 43
1, 264136, Note_on_c, 0, 75, 49
1, 264146, Note_on_c, 0, 80, 0
1, 264180, Note_on_c, 0, 73, 0
1, 264214, Note_on_c, 0, 72, 46
1, 264280, Note_on_c, 0, 72, 0
1, 264306, Note_on_c, 0, 70, 54
1, 264306, Note_on_c, 0, 80, 50
1, 264312, Note_on_c, 0, 75, 0
1, 264484, Note_on_c, 0, 80, 0
1, 264508, Note_on_c, 0, 74, 43
1, 264536, Note_on_c, 0, 70, 0
1, 264626, Note_on_c, 0, 74, 0
1, 264670, Note_on_c, 0, 80, 47
1, 264844, Note_on_c, 0, 74, 46
1, 264866, Note_on_c, 0, 80, 0
1, 264928, Note_on_c, 0, 74, 0
1, 264986, Note_on_c, 0, 34, 58
1, 264994, Note_on_c, 0, 79, 54
1, 265084, Note_on_c, 0, 79, 0
1, 265194, Note_on_c, 0, 74, 39
1, 265318, Note_on_c, 0, 74, 0
1, 265370, Note_on_c, 0, 79, 43
1, 265404, Note_on_c, 0, 34, 0
1, 265458, Note_on_c, 0, 36, 38
1, 265532, Note_on_c, 0, 79, 0
1, 265556, Note_on_c, 0, 74, 24
1, 265566, Note_on_c, 0, 34, 41
1, 265586, Note_on_c, 0, 36, 0
1, 265672, Note_on_c, 0, 32, 52
1, 265675, Note_on_c, 0, 74, 0
1, 265678, Note_on_c, 0, 34, 0
1, 265708, Note_on_c, 0, 79, 50
1, 265794, Note_on_c, 0, 79, 0
1, 265898, Note_on_c, 0, 72, 28
1, 265948, Note_on_c, 0, 32, 0
1, 266016, Note_on_c, 0, 72, 0
1, 266052, Note_on_c, 0, 79, 49
1, 266210, Note_on_c, 0, 72, 44
1, 266214, Note_on_c, 0, 79, 0
1, 266292, Note_on_c, 0, 72, 0
1, 266370, Note_on_c, 0, 68, 46
1, 266372, Note_on_c, 0, 77, 50
1, 266540, Note_on_c, 0, 77, 0
1, 266550, Note_on_c, 0, 72, 39
1, 266670, Note_on_c, 0, 72, 0
1, 266698, Note_on_c, 0, 68, 0
1, 266720, Note_on_c, 0, 77, 41
1, 266860, Note_on_c, 0, 70, 36
1, 266882, Note_on_c, 0, 72, 41
1, 266902, Note_on_c, 0, 77, 0
1, 266928, Note_on_c, 0, 70, 0
1, 266942, Note_on_c, 0, 68, 38
1, 267008, Note_on_c, 0, 68, 0
1, 267036, Note_on_c, 0, 67, 54
1, 267066, Note_on_c, 0, 77, 45
1, 267068, Note_on_c, 0, 72, 0
1, 267204, Note_on_c, 0, 77, 0
1, 267207, Note_on_c, 0, 70, 45
1, 267234, Note_on_c, 0, 67, 0
1, 267376, Note_on_c, 0, 70, 0
1, 267378, Note_on_c, 0, 77, 51
1, 267540, Note_on_c, 0, 70, 48
1, 267576, Note_on_c, 0, 77, 0
1, 267716, Note_on_c, 0, 70, 0
1, 267716, Note_on_c, 0, 31, 75
1, 267724, Note_on_c, 0, 75, 49
1, 267894, Note_on_c, 0, 70, 52
1, 267952, Note_on_c, 0, 75, 0
1, 268032, Note_on_c, 0, 70, 0
1, 268042, Note_on_c, 0, 31, 0
1, 268064, Note_on_c, 0, 75, 53
1, 268172, Note_on_c, 0, 32, 48
1, 268224, Note_on_c, 0, 70, 44
1, 268254, Note_on_c, 0, 75, 0
1, 268268, Note_on_c, 0, 31, 76
1, 268326, Note_on_c, 0, 70, 0
1, 268326, Note_on_c, 0, 32, 0
1, 268374, Note_on_c, 0, 29, 77
1, 268382, Note_on_c, 0, 31, 0
1, 268385, Note_on_c, 0, 74, 71
1, 268540, Note_on_c, 0, 70, 50
1, 268552, Note_on_c, 0, 74, 0
1, 268692, Note_on_c, 0, 29, 0
1, 268696, Note_on_c, 0, 70, 0
1, 268700, Note_on_c, 0, 38, 69
1, 268708, Note_on_c, 0, 80, 70
1, 268872, Note_on_c, 0, 70, 36
1, 268948, Note_on_c, 0, 80, 0
1, 269014, Note_on_c, 0, 39, 75
1, 269022, Note_on_c, 0, 38, 0
1, 269038, Note_on_c, 0, 79, 86
1, 269042, Note_on_c, 0, 70, 0
1, 269178, Note_on_c, 0, 70, 62
1, 269294, Note_on_c, 0, 79, 0
1, 269310, Note_on_c, 0, 70, 0
1, 269352, Note_on_c, 0, 43, 84
1, 269352, Note_on_c, 0, 75, 73
1, 269360, Note_on_c, 0, 39, 0
1, 269512, Note_on_c, 0, 70, 65
1, 269598, Note_on_c, 0, 75, 0
1, 269636, Note_on_c, 0, 43, 0
1, 269663, Note_on_c, 0, 70, 0
1, 269668, Note_on_c, 0, 46, 71
1, 269676, Note_on_c, 0, 74, 88
1, 269812, Note_on_c, 0, 46, 0
1, 269830, Note_on_c, 0, 74, 0
1, 269994, Note_on_c, 0, 82, 75
1, 269994, Note_on_c, 0, 74, 63
1, 270006, Note_on_c, 0, 53, 90
1, 270148, Note_on_c, 0, 46, 52
1, 270214, Note_on_c, 0, 53, 0
1, 270318, Note_on_c, 0, 82, 0
1, 270336, Note_on_c, 0, 54, 81
1, 270338, Note_on_c, 0, 81, 84
1, 270338, Note_on_c, 0, 75, 66
1, 270366, Note_on_c, 0, 74, 0
1, 270378, Note_on_c, 0, 46, 0
1, 270512, Note_on_c, 0, 46, 50
1, 270555, Note_on_c, 0, 75, 0
1, 270592, Note_on_c, 0, 54, 0
1, 270650, Note_on_c, 0, 78, 88
1, 270654, Note_on_c, 0, 75, 53
1, 270658, Note_on_c, 0, 57, 74
1, 270682, Note_on_c, 0, 46, 0
1, 270732, Note_on_c, 0, 81, 0
1, 270826, Note_on_c, 0, 46, 68
1, 270850, Note_on_c, 0, 57, 0
1, 270974, Note_on_c, 0, 77, 92
1, 270980, Note_on_c, 0, 75, 0
1, 270980, Note_on_c, 0, 58, 70
1, 270983, Note_on_c, 0, 74, 69
1, 271004, Note_on_c, 0, 46, 0
1, 271090, Note_on_c, 0, 78, 0
1, 271108, Note_on_c, 0, 74, 0
1, 271134, Note_on_c, 0, 58, 0
1, 271142, Note_on_c, 0, 46, 75
1, 271196, Note_on_c, 0, 77, 0
1, 271268, Note_on_c, 0, 82, 95
1, 271276, Note_on_c, 0, 53, 100
1, 271284, Note_on_c, 0, 74, 88
1, 271298, Note_on_c, 0, 46, 0
1, 271438, Note_on_c, 0, 46, 73
1, 271498, Note_on_c, 0, 53, 0
1, 271598, Note_on_c, 0, 54, 86
1, 271600, Note_on_c, 0, 75, 71
1, 271604, Note_on_c, 0, 81, 89
1, 271610, Note_on_c, 0, 82, 0
1, 271640, Note_on_c, 0, 46, 0
1, 271668, Note_on_c, 0, 74, 0
1, 271774, Note_on_c, 0, 46, 66
1, 271822, Note_on_c, 0, 75, 0
1, 271864, Note_on_c, 0, 54, 0
1, 271906, Note_on_c, 0, 78, 84
1, 271909, Note_on_c, 0, 57, 68
1, 271909, Note_on_c, 0, 75, 55
1, 271950, Note_on_c, 0, 46, 0
1, 271974, Note_on_c, 0, 81, 0
1, 272058, Note_on_c, 0, 57, 0
1, 272064, Note_on_c, 0, 46, 58
1, 272244, Note_on_c, 0, 75, 0
1, 272248, Note_on_c, 0, 58, 57
1, 272254, Note_on_c, 0, 77, 83
1, 272254, Note_on_c, 0, 74, 75
1, 272257, Note_on_c, 0, 46, 0
1, 272400, Note_on_c, 0, 78, 0
1, 272410, Note_on_c, 0, 46, 60
1, 272436, Note_on_c, 0, 58, 0
1, 272548, Note_on_c, 0, 79, 101
1, 272550, Note_on_c, 0, 76, 80
1, 272556, Note_on_c, 0, 74, 0
1, 272558, Note_on_c, 0, 46, 0
1, 272566, Note_on_c, 0, 58, 56
1, 272604, Note_on_c, 0, 77, 0
1, 272720, Note_on_c, 0, 46, 61
1, 272734, Note_on_c, 0, 58, 0
1, 272862, Note_on_c, 0, 79, 0
1, 272868, Note_on_c, 0, 80, 95
1, 272871, Note_on_c, 0, 77, 90
1, 272874, Note_on_c, 0, 58, 73
1, 272888, Note_on_c, 0, 46, 0
1, 272902, Note_on_c, 0, 76, 0
1, 273028, Note_on_c, 0, 46, 73
1, 273044, Note_on_c, 0, 58, 0
1, 273122, Note_on_c, 0, 80, 0
1, 273166, Note_on_c, 0, 77, 0
1, 273184, Note_on_c, 0, 58, 71
1, 273187, Note_on_c, 0, 46, 0
1, 273187, Note_on_c, 0, 79, 103
1, 273194, Note_on_c, 0, 76, 87
1, 273324, Note_on_c, 0, 79, 0
1, 273327, Note_on_c, 0, 46, 70
1, 273331, Note_on_c, 0, 58, 0
1, 273526, Note_on_c, 0, 82, 95
1, 273526, Note_on_c, 0, 79, 101
1, 273530, Note_on_c, 0, 46, 0
1, 273530, Note_on_c, 0, 58, 72
1, 273592, Note_on_c, 0, 76, 0
1, 273678, Note_on_c, 0, 46, 62
1, 273718, Note_on_c, 0, 58, 0
1, 273856, Note_on_c, 0, 58, 72
1, 273882, Note_on_c, 0, 46, 0
1, 274012, Note_on_c, 0, 58, 0
1, 274014, Note_on_c, 0, 46, 82
1, 274152, Note_on_c, 0, 79, 0
1, 274194, Note_on_c, 0, 80, 92
1, 274194, Note_on_c, 0, 58, 78
1, 274200, Note_on_c, 0, 77, 91
1, 274214, Note_on_c, 0, 46, 0
1, 274278, Note_on_c, 0, 82, 0
1, 274338, Note_on_c, 0, 58, 0
1, 274344, Note_on_c, 0, 77, 0
1, 274346, Note_on_c, 0, 46, 82
1, 274512, Note_on_c, 0, 80, 0
1, 274520, Note_on_c, 0, 46, 0
1, 274520, Note_on_c, 0, 58, 72
1, 274523, Note_on_c, 0, 77, 97
1, 274528, Note_on_c, 0, 74, 91
1, 274578, Note_on_c, 0, 74, 0
1, 274606, Note_on_c, 0, 77, 0
1, 274634, Note_on_c, 0, 58, 0
1, 274652, Note_on_c, 0, 46, 75
1, 274694, Note_on_c, 0, 46, 0
1, 274812, Note_on_c, 0, 51, 59
1, 274896, Note_on_c, 0, 55, 64
1, 274912, Note_on_c, 0, 67, 48
1, 274940, Note_on_c, 0, 70, 76
1, 274943, Note_on_c, 0, 75, 102
1, 274943, Note_on_c, 0, 58, 56
1, 274964, Note_on_c, 0, 63, 96
1, 275326, Note_on_c, 0, 55, 0
1, 275370, Note_on_c, 0, 58, 0
1, 275378, Note_on_c, 0, 70, 0
1, 275410, Note_on_c, 0, 75, 0
1, 275456, Note_on_c, 0, 63, 0
1, 275464, Note_on_c, 0, 67, 0
1, 275474, Note_on_c, 0, 51, 0
1, 275686, Note_on_c, 0, 79, 108
1, 275689, Note_on_c, 0, 73, 86
1, 275689, Note_on_c, 0, 61, 94
1, 275694, Note_on_c, 0, 51, 78
1, 275694, Note_on_c, 0, 75, 88
1, 275710, Note_on_c, 0, 58, 59
1, 275718, Note_on_c, 0, 55, 66
1, 275832, Note_on_c, 0, 61, 0
1, 275992, Note_on_c, 0, 73, 0
1, 275998, Note_on_c, 0, 79, 0
1, 276002, Note_on_c, 0, 58, 0
1, 276002, Note_on_c, 0, 55, 0
1, 276006, Note_on_c, 0, 75, 0
1, 276032, Note_on_c, 0, 51, 0
1, 276260, Note_on_c, 0, 73, 75
1, 276262, Note_on_c, 0, 79, 103
1, 276265, Note_on_c, 0, 61, 86
1, 276284, Note_on_c, 0, 75, 62
1, 276290, Note_on_c, 0, 58, 50
1, 276296, Note_on_c, 0, 55, 58
1, 276300, Note_on_c, 0, 51, 31
1, 276332, Note_on_c, 0, 75, 0
1, 276344, Note_on_c, 0, 58, 0
1, 276370, Note_on_c, 0, 55, 0
1, 276373, Note_on_c, 0, 51, 0
1, 276384, Note_on_c, 0, 61, 0
1, 276420, Note_on_c, 0, 51, 71
1, 276428, Note_on_c, 0, 73, 0
1, 276472, Note_on_c, 0, 56, 60
1, 276474, Note_on_c, 0, 72, 78
1, 276496, Note_on_c, 0, 75, 80
1, 276502, Note_on_c, 0, 60, 88
1, 276504, Note_on_c, 0, 80, 101
1, 276570, Note_on_c, 0, 79, 0
1, 277168, Note_on_c, 0, 75, 0
1, 277170, Note_on_c, 0, 72, 0
1, 277342, Note_on_c, 0, 82, 67
1, 277408, Note_on_c, 0, 51, 0
1, 277440, Note_on_c, 0, 80, 0
1, 277442, Note_on_c, 0, 84, 87
1, 277476, Note_on_c, 0, 82, 0
1, 277504, Note_on_c, 0, 56, 0
1, 277532, Note_on_c, 0, 82, 75
1, 277568, Note_on_c, 0, 60, 0
1, 277612, Note_on_c, 0, 84, 0
1, 277618, Note_on_c, 0, 80, 74
1, 277688, Note_on_c, 0, 82, 0
1, 277700, Note_on_c, 0, 79, 89
1, 277762, Note_on_c, 0, 80, 0
1, 277788, Note_on_c, 0, 79, 0
1, 277792, Note_on_c, 0, 77, 71
1, 277868, Note_on_c, 0, 75, 79
1, 277910, Note_on_c, 0, 77, 0
1, 277942, Note_on_c, 0, 62, 85
1, 277948, Note_on_c, 0, 56, 65
1, 277954, Note_on_c, 0, 51, 53
1, 277956, Note_on_c, 0, 74, 92
1, 277964, Note_on_c, 0, 53, 92
1, 277974, Note_on_c, 0, 75, 0
1, 278036, Note_on_c, 0, 75, 71
1, 278072, Note_on_c, 0, 74, 0
1, 278130, Note_on_c, 0, 75, 0
1, 278140, Note_on_c, 0, 77, 79
1, 278224, Note_on_c, 0, 79, 94
1, 278250, Note_on_c, 0, 77, 0
1, 278314, Note_on_c, 0, 80, 81
1, 278328, Note_on_c, 0, 79, 0
1, 278392, Note_on_c, 0, 79, 87
1, 278442, Note_on_c, 0, 80, 0
1, 278486, Note_on_c, 0, 79, 0
1, 278492, Note_on_c, 0, 77, 64
1, 278574, Note_on_c, 0, 75, 70
1, 278596, Note_on_c, 0, 77, 0
1, 278642, Note_on_c, 0, 75, 0
1, 278656, Note_on_c, 0, 74, 82
1, 278742, Note_on_c, 0, 74, 0
1, 278748, Note_on_c, 0, 75, 72
1, 278840, Note_on_c, 0, 77, 76
1, 278862, Note_on_c, 0, 75, 0
1, 278922, Note_on_c, 0, 75, 66
1, 278964, Note_on_c, 0, 77, 0
1, 279016, Note_on_c, 0, 74, 79
1, 279072, Note_on_c, 0, 75, 0
1, 279076, Note_on_c, 0, 74, 0
1, 279102, Note_on_c, 0, 56, 0
1, 279116, Note_on_c, 0, 72, 57
1, 279124, Note_on_c, 0, 62, 0
1, 279124, Note_on_c, 0, 51, 0
1, 279146, Note_on_c, 0, 53, 0
1, 279182, Note_on_c, 0, 72, 0
1, 279182, Note_on_c, 0, 70, 69
1, 279272, Note_on_c, 0, 68, 70
1, 279318, Note_on_c, 0, 70, 0
1, 279362, Note_on_c, 0, 67, 64
1, 279368, Note_on_c, 0, 63, 79
1, 279372, Note_on_c, 0, 68, 0
1, 279375, Note_on_c, 0, 51, 58
1, 279390, Note_on_c, 0, 55, 57
1, 279398, Note_on_c, 0, 58, 40
1, 279412, Note_on_c, 0, 67, 0
1, 279506, Note_on_c, 0, 82, 73
1, 279622, Note_on_c, 0, 84, 87
1, 279642, Note_on_c, 0, 82, 0
1, 279702, Note_on_c, 0, 82, 67
1, 279770, Note_on_c, 0, 55, 0
1, 279784, Note_on_c, 0, 84, 0
1, 279788, Note_on_c, 0, 80, 72
1, 279800, Note_on_c, 0, 58, 0
1, 279844, Note_on_c, 0, 51, 0
1, 279856, Note_on_c, 0, 82, 0
1, 279869, Note_on_c, 0, 79, 79
1, 279916, Note_on_c, 0, 79, 0
1, 279926, Note_on_c, 0, 63, 0
1, 279932, Note_on_c, 0, 80, 0
1, 279952, Note_on_c, 0, 77, 70
1, 280004, Note_on_c, 0, 77, 0
1, 280042, Note_on_c, 0, 75, 67
1, 280100, Note_on_c, 0, 65, 79
1, 280110, Note_on_c, 0, 58, 48
1, 280120, Note_on_c, 0, 56, 48
1, 280134, Note_on_c, 0, 74, 78
1, 280140, Note_on_c, 0, 75, 0
1, 280182, Note_on_c, 0, 74, 0
1, 280222, Note_on_c, 0, 84, 86
1, 280312, Note_on_c, 0, 82, 67
1, 280382, Note_on_c, 0, 84, 0
1, 280394, Note_on_c, 0, 80, 75
1, 280468, Note_on_c, 0, 82, 0
1, 280484, Note_on_c, 0, 79, 82
1, 280548, Note_on_c, 0, 79, 0
1, 280556, Note_on_c, 0, 80, 0
1, 280578, Note_on_c, 0, 77, 60
1, 280610, Note_on_c, 0, 58, 0
1, 280628, Note_on_c, 0, 65, 0
1, 280634, Note_on_c, 0, 77, 0
1, 280660, Note_on_c, 0, 75, 65
1, 280699, Note_on_c, 0, 56, 0
1, 280742, Note_on_c, 0, 75, 0
1, 280744, Note_on_c, 0, 74, 70
1, 280816, Note_on_c, 0, 63, 73
1, 280826, Note_on_c, 0, 55, 63
1, 280826, Note_on_c, 0, 75, 75
1, 280832, Note_on_c, 0, 74, 0
1, 280832, Note_on_c, 0, 58, 44
1, 280924, Note_on_c, 0, 75, 0
1, 280930, Note_on_c, 0, 82, 66
1, 281022, Note_on_c, 0, 84, 77
1, 281048, Note_on_c, 0, 82, 0
1, 281104, Note_on_c, 0, 82, 68
1, 281176, Note_on_c, 0, 84, 0
1, 281202, Note_on_c, 0, 80, 62
1, 281252, Note_on_c, 0, 82, 0
1, 281276, Note_on_c, 0, 79, 59
1, 281300, Note_on_c, 0, 58, 0
1, 281324, Note_on_c, 0, 79, 0
1, 281326, Note_on_c, 0, 80, 0
1, 281346, Note_on_c, 0, 77, 53
1, 281362, Note_on_c, 0, 63, 0
1, 281400, Note_on_c, 0, 77, 0
1, 281426, Note_on_c, 0, 75, 65
1, 281500, Note_on_c, 0, 55, 0
1, 281510, Note_on_c, 0, 75, 0
1, 281514, Note_on_c, 0, 65, 61
1, 281529, Note_on_c, 0, 58, 43
1, 281532, Note_on_c, 0, 56, 47
1, 281536, Note_on_c, 0, 74, 56
1, 281584, Note_on_c, 0, 74, 0
1, 281604, Note_on_c, 0, 84, 80
1, 281698, Note_on_c, 0, 82, 59
1, 281728, Note_on_c, 0, 84, 0
1, 281776, Note_on_c, 0, 80, 74
1, 281824, Note_on_c, 0, 82, 0
1, 281866, Note_on_c, 0, 79, 80
1, 281902, Note_on_c, 0, 80, 0
1, 281928, Note_on_c, 0, 79, 0
1, 281956, Note_on_c, 0, 77, 62
1, 281990, Note_on_c, 0, 58, 0
1, 282024, Note_on_c, 0, 65, 0
1, 282038, Note_on_c, 0, 75, 73
1, 282066, Note_on_c, 0, 77, 0
1, 282114, Note_on_c, 0, 56, 0
1, 282122, Note_on_c, 0, 74, 85
1, 282138, Note_on_c, 0, 75, 0
1, 282208, Note_on_c, 0, 75, 78
1, 282210, Note_on_c, 0, 63, 68
1, 282224, Note_on_c, 0, 58, 41
1, 282228, Note_on_c, 0, 55, 52
1, 282238, Note_on_c, 0, 74, 0
1, 282300, Note_on_c, 0, 77, 76
1, 282318, Note_on_c, 0, 75, 0
1, 282388, Note_on_c, 0, 79, 92
1, 282422, Note_on_c, 0, 77, 0
1, 282474, Note_on_c, 0, 80, 81
1, 282496, Note_on_c, 0, 79, 0
1, 282560, Note_on_c, 0, 82, 81
1, 282612, Note_on_c, 0, 80, 0
1, 282652, Note_on_c, 0, 84, 95
1, 282670, Note_on_c, 0, 82, 0
1, 282726, Note_on_c, 0, 85, 86
1, 282764, Note_on_c, 0, 84, 0
1, 282810, Note_on_c, 0, 87, 83
1, 282838, Note_on_c, 0, 85, 0
1, 282902, Note_on_c, 0, 85, 80
1, 282952, Note_on_c, 0, 87, 0
1, 283006, Note_on_c, 0, 84, 75
1, 283014, Note_on_c, 0, 85, 0
1, 283088, Note_on_c, 0, 82, 73
1, 283118, Note_on_c, 0, 84, 0
1, 283184, Note_on_c, 0, 80, 58
1, 283242, Note_on_c, 0, 82, 0
1, 283262, Note_on_c, 0, 79, 72
1, 283320, Note_on_c, 0, 79, 0
1, 283330, Note_on_c, 0, 80, 0
1, 283374, Note_on_c, 0, 77, 47
1, 283410, Note_on_c, 0, 63, 0
1, 283438, Note_on_c, 0, 77, 0
1, 283446, Note_on_c, 0, 75, 56
1, 283548, Note_on_c, 0, 73, 52
1, 283558, Note_on_c, 0, 55, 0
1, 283574, Note_on_c, 0, 75, 0
1, 283658, Note_on_c, 0, 58, 0
1, 283688, Note_on_c, 0, 56, 31
1, 283690, Note_on_c, 0, 63, 33
1, 283692, Note_on_c, 0, 73, 0
1, 283694, Note_on_c, 0, 72, 61
1, 283716, Note_on_c, 0, 60, 33
1, 283796, Note_on_c, 0, 72, 0
1, 283906, Note_on_c, 0, 84, 70
1, 283928, Note_on_c, 0, 60, 0
1, 283942, Note_on_c, 0, 63, 0
1, 283950, Note_on_c, 0, 56, 0
1, 283982, Note_on_c, 0, 84, 0
1, 284074, Note_on_c, 0, 83, 87
1, 284128, Note_on_c, 0, 83, 0
1, 284250, Note_on_c, 0, 86, 69
1, 284302, Note_on_c, 0, 86, 0
1, 284440, Note_on_c, 0, 84, 72
1, 284492, Note_on_c, 0, 84, 0
1, 284612, Note_on_c, 0, 87, 55
1, 284676, Note_on_c, 0, 87, 0
1, 284820, Note_on_c, 0, 83, 68
1, 284874, Note_on_c, 0, 83, 0
1, 285000, Note_on_c, 0, 86, 59
1, 285058, Note_on_c, 0, 86, 0
1, 285174, Note_on_c, 0, 84, 76
1, 285236, Note_on_c, 0, 84, 0
1, 285354, Note_on_c, 0, 87, 58
1, 285418, Note_on_c, 0, 87, 0
1, 285536, Note_on_c, 0, 71, 53
1, 285540, Note_on_c, 0, 83, 86
1, 285588, Note_on_c, 0, 71, 0
1, 285591, Note_on_c, 0, 83, 0
1, 285724, Note_on_c, 0, 74, 60
1, 285724, Note_on_c, 0, 86, 69
1, 285778, Note_on_c, 0, 74, 0
1, 285820, Note_on_c, 0, 86, 0
1, 285904, Note_on_c, 0, 72, 66
1, 285907, Note_on_c, 0, 84, 88
1, 285970, Note_on_c, 0, 72, 0
1, 286016, Note_on_c, 0, 84, 0
1, 286086, Note_on_c, 0, 87, 64
1, 286094, Note_on_c, 0, 75, 69
1, 286142, Note_on_c, 0, 75, 0
1, 286202, Note_on_c, 0, 87, 0
1, 286284, Note_on_c, 0, 72, 55
1, 286298, Note_on_c, 0, 84, 72
1, 286374, Note_on_c, 0, 72, 0
1, 286414, Note_on_c, 0, 80, 56
1, 286426, Note_on_c, 0, 68, 50
1, 286434, Note_on_c, 0, 84, 0
1, 286542, Note_on_c, 0, 80, 0
1, 286542, Note_on_c, 0, 77, 71
1, 286545, Note_on_c, 0, 65, 51
1, 286562, Note_on_c, 0, 68, 0
1, 286592, Note_on_c, 0, 65, 0
1, 286680, Note_on_c, 0, 75, 68
1, 286692, Note_on_c, 0, 58, 47
1, 286698, Note_on_c, 0, 67, 45
1, 286738, Note_on_c, 0, 77, 0
1, 287162, Note_on_c, 0, 75, 0
1, 287176, Note_on_c, 0, 77, 55
1, 287222, Note_on_c, 0, 75, 68
1, 287226, Note_on_c, 0, 77, 0
1, 287296, Note_on_c, 0, 74, 65
1, 287306, Note_on_c, 0, 75, 0
1, 287350, Note_on_c, 0, 74, 0
1, 287368, Note_on_c, 0, 75, 76
1, 287484, Note_on_c, 0, 79, 91
1, 287486, Note_on_c, 0, 67, 0
1, 287498, Note_on_c, 0, 75, 0
1, 287502, Note_on_c, 0, 74, 56
1, 287504, Note_on_c, 0, 68, 29
1, 288106, Note_on_c, 0, 77, 57
1, 288110, Note_on_c, 0, 79, 0
1, 288256, Note_on_c, 0, 68, 0
1, 288334, Note_on_c, 0, 75, 48
1, 288354, Note_on_c, 0, 74, 0
1, 288360, Note_on_c, 0, 63, 22
1, 288364, Note_on_c, 0, 67, 25
1, 288376, Note_on_c, 0, 77, 0
1, 288388, Note_on_c, 0, 58, 0
1, 288740, Note_on_c, 0, 67, 0
1, 288750, Note_on_c, 0, 63, 0
1, 288806, Note_on_c, 0, 75, 0
1, 289110, Note_on_c, 0, 82, 36
1, 289190, Note_on_c, 0, 79, 56
1, 289198, Note_on_c, 0, 67, 42
1, 289208, Note_on_c, 0, 63, 40
1, 289210, Note_on_c, 0, 82, 0
1, 289262, Note_on_c, 0, 79, 0
1, 289262, Note_on_c, 0, 63, 0
1, 289265, Note_on_c, 0, 67, 0
1, 289494, Note_on_c, 0, 82, 37
1, 289562, Note_on_c, 0, 82, 0
1, 289564, Note_on_c, 0, 58, 18
1, 289570, Note_on_c, 0, 77, 49
1, 289578, Note_on_c, 0, 65, 20
1, 289628, Note_on_c, 0, 77, 0
1, 289654, Note_on_c, 0, 65, 0
1, 289669, Note_on_c, 0, 58, 0
1, 289874, Note_on_c, 0, 82, 29
1, 289942, Note_on_c, 0, 63, 32
1, 289946, Note_on_c, 0, 75, 44
1, 289952, Note_on_c, 0, 55, 25
1, 289960, Note_on_c, 0, 82, 0
1, 290014, Note_on_c, 0, 75, 0
1, 290090, Note_on_c, 0, 55, 0
1, 290100, Note_on_c, 0, 63, 0
1, 290240, Note_on_c, 0, 82, 39
1, 290304, Note_on_c, 0, 82, 0
1, 290318, Note_on_c, 0, 70, 48
1, 290392, Note_on_c, 0, 70, 0
1, 290600, Note_on_c, 0, 82, 46
1, 290676, Note_on_c, 0, 67, 50
1, 290684, Note_on_c, 0, 79, 76
1, 290700, Note_on_c, 0, 63, 38
1, 290748, Note_on_c, 0, 82, 0
1, 290764, Note_on_c, 0, 67, 0
1, 290767, Note_on_c, 0, 63, 0
1, 290800, Note_on_c, 0, 79, 0
1, 290988, Note_on_c, 0, 82, 49
1, 291046, Note_on_c, 0, 58, 40
1, 291062, Note_on_c, 0, 77, 58
1, 291072, Note_on_c, 0, 65, 32
1, 291098, Note_on_c, 0, 82, 0
1, 291116, Note_on_c, 0, 77, 0
1, 291128, Note_on_c, 0, 58, 0
1, 291140, Note_on_c, 0, 65, 0
1, 291356, Note_on_c, 0, 82, 41
1, 291424, Note_on_c, 0, 63, 38
1, 291438, Note_on_c, 0, 82, 0
1, 291438, Note_on_c, 0, 75, 40
1, 291450, Note_on_c, 0, 55, 31
1, 291500, Note_on_c, 0, 75, 0
1, 291572, Note_on_c, 0, 55, 0
1, 291616, Note_on_c, 0, 63, 0
1, 291706, Note_on_c, 0, 82, 48
1, 291782, Note_on_c, 0, 82, 0
1, 291796, Note_on_c, 0, 70, 46
1, 291886, Note_on_c, 0, 70, 0
1, 292082, Note_on_c, 0, 82, 43
1, 292148, Note_on_c, 0, 63, 35
1, 292154, Note_on_c, 0, 82, 0
1, 292160, Note_on_c, 0, 73, 46
1, 292163, Note_on_c, 0, 55, 25
1, 292252, Note_on_c, 0, 63, 0
1, 292258, Note_on_c, 0, 55, 0
1, 292260, Note_on_c, 0, 73, 0
1, 292426, Note_on_c, 0, 82, 36
1, 292518, Note_on_c, 0, 63, 40
1, 292518, Note_on_c, 0, 71, 57
1, 292526, Note_on_c, 0, 55, 42
1, 292564, Note_on_c, 0, 82, 0
1, 292588, Note_on_c, 0, 71, 0
1, 292591, Note_on_c, 0, 63, 0
1, 292608, Note_on_c, 0, 55, 0
1, 292764, Note_on_c, 0, 82, 46
1, 292844, Note_on_c, 0, 82, 0
1, 292864, Note_on_c, 0, 72, 57
1, 292872, Note_on_c, 0, 56, 41
1, 292890, Note_on_c, 0, 63, 41
1, 292932, Note_on_c, 0, 72, 0
1, 293128, Note_on_c, 0, 76, 55
1, 293212, Note_on_c, 0, 77, 79
1, 293238, Note_on_c, 0, 63, 0
1, 293241, Note_on_c, 0, 60, 49
1, 293262, Note_on_c, 0, 76, 0
1, 293328, Note_on_c, 0, 77, 0
1, 293504, Note_on_c, 0, 79, 55
1, 293568, Note_on_c, 0, 80, 75
1, 293582, Note_on_c, 0, 79, 0
1, 293598, Note_on_c, 0, 65, 46
1, 293614, Note_on_c, 0, 60, 0
1, 293710, Note_on_c, 0, 80, 0
1, 293866, Note_on_c, 0, 79, 60
1, 293880, Note_on_c, 0, 56, 0
1, 293948, Note_on_c, 0, 77, 58
1, 293951, Note_on_c, 0, 57, 36
1, 293956, Note_on_c, 0, 79, 0
1, 294010, Note_on_c, 0, 77, 0
1, 294204, Note_on_c, 0, 75, 46
1, 294278, Note_on_c, 0, 75, 0
1, 294294, Note_on_c, 0, 58, 29
1, 294300, Note_on_c, 0, 57, 0
1, 294310, Note_on_c, 0, 74, 47
1, 294374, Note_on_c, 0, 74, 0
1, 294564, Note_on_c, 0, 84, 55
1, 294648, Note_on_c, 0, 60, 48
1, 294648, Note_on_c, 0, 82, 56
1, 294698, Note_on_c, 0, 84, 0
1, 294698, Note_on_c, 0, 58, 0
1, 294744, Note_on_c, 0, 82, 0
1, 294932, Note_on_c, 0, 81, 48
1, 294968, Note_on_c, 0, 62, 34
1, 294992, Note_on_c, 0, 60, 0
1, 295002, Note_on_c, 0, 81, 0
1, 295008, Note_on_c, 0, 82, 55
1, 295100, Note_on_c, 0, 82, 0
1, 295268, Note_on_c, 0, 84, 48
1, 295338, Note_on_c, 0, 84, 0
1, 295352, Note_on_c, 0, 70, 21
1, 295355, Note_on_c, 0, 82, 32
1, 295434, Note_on_c, 0, 82, 0
1, 295536, Note_on_c, 0, 62, 0
1, 295552, Note_on_c, 0, 65, 0
1, 295608, Note_on_c, 0, 80, 40
1, 295674, Note_on_c, 0, 80, 0
1, 295752, Note_on_c, 0, 70, 0
1, 295762, Note_on_c, 0, 78, 57
1, 295788, Note_on_c, 0, 63, 33
1, 295788, Note_on_c, 0, 66, 20
1, 295862, Note_on_c, 0, 78, 0
1, 295867, Note_on_c, 0, 80, 59
1, 295896, Note_on_c, 0, 63, 0
1, 295946, Note_on_c, 0, 78, 57
1, 295952, Note_on_c, 0, 70, 40
1, 295984, Note_on_c, 0, 66, 0
1, 295986, Note_on_c, 0, 80, 0
1, 296068, Note_on_c, 0, 77, 63
1, 296071, Note_on_c, 0, 78, 0
1, 296108, Note_on_c, 0, 70, 0
1, 296132, Note_on_c, 0, 75, 64
1, 296135, Note_on_c, 0, 66, 42
1, 296140, Note_on_c, 0, 63, 45
1, 296154, Note_on_c, 0, 77, 0
1, 296180, Note_on_c, 0, 75, 0
1, 296304, Note_on_c, 0, 70, 45
1, 296308, Note_on_c, 0, 75, 70
1, 296360, Note_on_c, 0, 75, 0
1, 296386, Note_on_c, 0, 66, 0
1, 296434, Note_on_c, 0, 63, 0
1, 296486, Note_on_c, 0, 80, 84
1, 296504, Note_on_c, 0, 65, 44
1, 296506, Note_on_c, 0, 70, 0
1, 296526, Note_on_c, 0, 62, 33
1, 296554, Note_on_c, 0, 82, 75
1, 296592, Note_on_c, 0, 80, 0
1, 296638, Note_on_c, 0, 80, 67
1, 296662, Note_on_c, 0, 70, 48
1, 296686, Note_on_c, 0, 62, 0
1, 296696, Note_on_c, 0, 65, 0
1, 296704, Note_on_c, 0, 82, 0
1, 296720, Note_on_c, 0, 78, 83
1, 296794, Note_on_c, 0, 80, 0
1, 296836, Note_on_c, 0, 77, 93
1, 296850, Note_on_c, 0, 70, 0
1, 296858, Note_on_c, 0, 62, 51
1, 296864, Note_on_c, 0, 65, 47
1, 296874, Note_on_c, 0, 78, 0
1, 296924, Note_on_c, 0, 77, 0
1, 297040, Note_on_c, 0, 70, 50
1, 297046, Note_on_c, 0, 77, 64
1, 297074, Note_on_c, 0, 65, 0
1, 297092, Note_on_c, 0, 77, 0
1, 297164, Note_on_c, 0, 62, 0
1, 297222, Note_on_c, 0, 78, 73
1, 297234, Note_on_c, 0, 70, 0
1, 297244, Note_on_c, 0, 66, 32
1, 297252, Note_on_c, 0, 63, 41
1, 297274, Note_on_c, 0, 78, 0
1, 297324, Note_on_c, 0, 80, 33
1, 297352, Note_on_c, 0, 63, 0
1, 297388, Note_on_c, 0, 78, 50
1, 297414, Note_on_c, 0, 70, 35
1, 297417, Note_on_c, 0, 80, 0
1, 297438, Note_on_c, 0, 66, 0
1, 297518, Note_on_c, 0, 77, 49
1, 297532, Note_on_c, 0, 78, 0
1, 297586, Note_on_c, 0, 70, 0
1, 297589, Note_on_c, 0, 77, 0
1, 297589, Note_on_c, 0, 75, 48
1, 297600, Note_on_c, 0, 63, 42
1, 297602, Note_on_c, 0, 66, 37
1, 297646, Note_on_c, 0, 75, 0
1, 297684, Note_on_c, 0, 66, 0
1, 297776, Note_on_c, 0, 70, 38
1, 297798, Note_on_c, 0, 75, 53
1, 297846, Note_on_c, 0, 75, 0
1, 297854, Note_on_c, 0, 63, 0
1, 297966, Note_on_c, 0, 80, 56
1, 297976, Note_on_c, 0, 70, 0
1, 297994, Note_on_c, 0, 65, 35
1, 298006, Note_on_c, 0, 62, 27
1, 298018, Note_on_c, 0, 80, 0
1, 298036, Note_on_c, 0, 82, 48
1, 298114, Note_on_c, 0, 80, 40
1, 298152, Note_on_c, 0, 70, 28
1, 298168, Note_on_c, 0, 62, 0
1, 298180, Note_on_c, 0, 82, 0
1, 298188, Note_on_c, 0, 65, 0
1, 298204, Note_on_c, 0, 78, 51
1, 298256, Note_on_c, 0, 80, 0
1, 298288, Note_on_c, 0, 78, 0
1, 298318, Note_on_c, 0, 77, 55
1, 298336, Note_on_c, 0, 70, 0
1, 298372, Note_on_c, 0, 77, 0
1, 298380, Note_on_c, 0, 65, 25
1, 298398, Note_on_c, 0, 62, 6
1, 298470, Note_on_c, 0, 65, 0
1, 298506, Note_on_c, 0, 62, 0
1, 298520, Note_on_c, 0, 70, 39
1, 298528, Note_on_c, 0, 77, 56
1, 298578, Note_on_c, 0, 77, 0
1, 298578, Note_on_c, 0, 70, 0
1, 298700, Note_on_c, 0, 78, 64
1, 298708, Note_on_c, 0, 66, 40
1, 298726, Note_on_c, 0, 54, 44
1, 298782, Note_on_c, 0, 78, 0
1, 298788, Note_on_c, 0, 80, 59
1, 298886, Note_on_c, 0, 78, 55
1, 298908, Note_on_c, 0, 66, 0
1, 298922, Note_on_c, 0, 80, 0
1, 298960, Note_on_c, 0, 54, 0
1, 298960, Note_on_c, 0, 78, 0
1, 298978, Note_on_c, 0, 77, 55
1, 299080, Note_on_c, 0, 63, 75
1, 299080, Note_on_c, 0, 75, 67
1, 299086, Note_on_c, 0, 51, 73
1, 299089, Note_on_c, 0, 77, 0
1, 299146, Note_on_c, 0, 75, 0
1, 299162, Note_on_c, 0, 77, 75
1, 299190, Note_on_c, 0, 63, 0
1, 299218, Note_on_c, 0, 51, 0
1, 299264, Note_on_c, 0, 75, 65
1, 299294, Note_on_c, 0, 77, 0
1, 299356, Note_on_c, 0, 73, 60
1, 299368, Note_on_c, 0, 75, 0
1, 299430, Note_on_c, 0, 59, 89
1, 299436, Note_on_c, 0, 47, 78
1, 299440, Note_on_c, 0, 73, 0
1, 299460, Note_on_c, 0, 71, 67
1, 299520, Note_on_c, 0, 71, 0
1, 299526, Note_on_c, 0, 73, 35
1, 299602, Note_on_c, 0, 59, 0
1, 299630, Note_on_c, 0, 71, 36
1, 299664, Note_on_c, 0, 73, 0
1, 299664, Note_on_c, 0, 47, 0
1, 299716, Note_on_c, 0, 70, 67
1, 299746, Note_on_c, 0, 71, 0
1, 299794, Note_on_c, 0, 56, 79
1, 299802, Note_on_c, 0, 44, 83
1, 299806, Note_on_c, 0, 68, 77
1, 299812, Note_on_c, 0, 70, 0
1, 299884, Note_on_c, 0, 68, 0
1, 299906, Note_on_c, 0, 70, 53
1, 299980, Note_on_c, 0, 56, 0
1, 299980, Note_on_c, 0, 68, 62
1, 300032, Note_on_c, 0, 70, 0
1, 300064, Note_on_c, 0, 66, 70
1, 300100, Note_on_c, 0, 68, 0
1, 300142, Note_on_c, 0, 44, 0
1, 300150, Note_on_c, 0, 53, 104
1, 300154, Note_on_c, 0, 41, 87
1, 300170, Note_on_c, 0, 65, 76
1, 300186, Note_on_c, 0, 66, 0
1, 300248, Note_on_c, 0, 66, 62
1, 300268, Note_on_c, 0, 65, 0
1, 300334, Note_on_c, 0, 68, 57
1, 300364, Note_on_c, 0, 66, 0
1, 300424, Note_on_c, 0, 66, 64
1, 300460, Note_on_c, 0, 68, 0
1, 300520, Note_on_c, 0, 65, 60
1, 300534, Note_on_c, 0, 66, 0
1, 300606, Note_on_c, 0, 66, 58
1, 300632, Note_on_c, 0, 65, 0
1, 300666, Note_on_c, 0, 53, 0
1, 300692, Note_on_c, 0, 68, 71
1, 300724, Note_on_c, 0, 66, 0
1, 300788, Note_on_c, 0, 66, 65
1, 300840, Note_on_c, 0, 68, 0
1, 300870, Note_on_c, 0, 51, 89
1, 300875, Note_on_c, 0, 39, 82
1, 300878, Note_on_c, 0, 41, 0
1, 300882, Note_on_c, 0, 65, 77
1, 300902, Note_on_c, 0, 66, 0
1, 300972, Note_on_c, 0, 65, 0
1, 300972, Note_on_c, 0, 66, 61
1, 301054, Note_on_c, 0, 68, 67
1, 301086, Note_on_c, 0, 66, 0
1, 301144, Note_on_c, 0, 66, 69
1, 301200, Note_on_c, 0, 68, 0
1, 301242, Note_on_c, 0, 65, 69
1, 301254, Note_on_c, 0, 66, 0
1, 301328, Note_on_c, 0, 66, 59
1, 301334, Note_on_c, 0, 65, 0
1, 301424, Note_on_c, 0, 68, 70
1, 301444, Note_on_c, 0, 66, 0
1, 301506, Note_on_c, 0, 66, 64
1, 301552, Note_on_c, 0, 68, 0
1, 301574, Note_on_c, 0, 51, 0
1, 301600, Note_on_c, 0, 50, 84
1, 301600, Note_on_c, 0, 65, 67
1, 301600, Note_on_c, 0, 38, 81
1, 301624, Note_on_c, 0, 66, 0
1, 301664, Note_on_c, 0, 39, 0
1, 301682, Note_on_c, 0, 66, 65
1, 301718, Note_on_c, 0, 65, 0
1, 301766, Note_on_c, 0, 68, 64
1, 301800, Note_on_c, 0, 66, 0
1, 301858, Note_on_c, 0, 66, 65
1, 301888, Note_on_c, 0, 68, 0
1, 301952, Note_on_c, 0, 65, 52
1, 301968, Note_on_c, 0, 66, 0
1, 302028, Note_on_c, 0, 65, 0
1, 302028, Note_on_c, 0, 66, 62
1, 302114, Note_on_c, 0, 68, 58
1, 302124, Note_on_c, 0, 66, 0
1, 302124, Note_on_c, 0, 50, 0
1, 302200, Note_on_c, 0, 66, 53
1, 302248, Note_on_c, 0, 68, 0
1, 302304, Note_on_c, 0, 65, 54
1, 302306, Note_on_c, 0, 47, 70
1, 302308, Note_on_c, 0, 35, 88
1, 302314, Note_on_c, 0, 66, 0
1, 302334, Note_on_c, 0, 38, 0
1, 302388, Note_on_c, 0, 66, 48
1, 302396, Note_on_c, 0, 65, 0
1, 302474, Note_on_c, 0, 68, 51
1, 302498, Note_on_c, 0, 66, 0
1, 302566, Note_on_c, 0, 66, 54
1, 302610, Note_on_c, 0, 68, 0
1, 302676, Note_on_c, 0, 65, 40
1, 302680, Note_on_c, 0, 66, 0
1, 302746, Note_on_c, 0, 65, 0
1, 302748, Note_on_c, 0, 66, 49
1, 302764, Note_on_c, 0, 47, 0
1, 302836, Note_on_c, 0, 66, 0
1, 302844, Note_on_c, 0, 68, 45
1, 302948, Note_on_c, 0, 66, 37
1, 302982, Note_on_c, 0, 68, 0
1, 303052, Note_on_c, 0, 66, 0
1, 303072, Note_on_c, 0, 65, 43
1, 303078, Note_on_c, 0, 34, 56
1, 303086, Note_on_c, 0, 46, 40
1, 303096, Note_on_c, 0, 35, 0
1, 303160, Note_on_c, 0, 65, 0
1, 303180, Note_on_c, 0, 67, 42
1, 303240, Note_on_c, 0, 67, 0
1, 303244, Note_on_c, 0, 68, 44
1, 303340, Note_on_c, 0, 67, 34
1, 303350, Note_on_c, 0, 68, 0
1, 303422, Note_on_c, 0, 67, 0
1, 303450, Note_on_c, 0, 65, 35
1, 303520, Note_on_c, 0, 67, 41
1, 303522, Note_on_c, 0, 65, 0
1, 303594, Note_on_c, 0, 67, 0
1, 303614, Note_on_c, 0, 68, 29
1, 303688, Note_on_c, 0, 67, 36
1, 303696, Note_on_c, 0, 68, 0
1, 303764, Note_on_c, 0, 67, 0
1, 303786, Note_on_c, 0, 65, 34
1, 303850, Note_on_c, 0, 67, 39
1, 303855, Note_on_c, 0, 65, 0
1, 303936, Note_on_c, 0, 67, 0
1, 303954, Note_on_c, 0, 68, 32
1, 304024, Note_on_c, 0, 67, 40
1, 304029, Note_on_c, 0, 68, 0
1, 304102, Note_on_c, 0, 67, 0
1, 304130, Note_on_c, 0, 65, 36
1, 304192, Note_on_c, 0, 67, 47
1, 304198, Note_on_c, 0, 65, 0
1, 304264, Note_on_c, 0, 67, 0
1, 304276, Note_on_c, 0, 68, 51
1, 304366, Note_on_c, 0, 67, 46
1, 304390, Note_on_c, 0, 68, 0
1, 304462, Note_on_c, 0, 67, 0
1, 304462, Note_on_c, 0, 65, 62
1, 304532, Note_on_c, 0, 65, 0
1, 304532, Note_on_c, 0, 67, 68
1, 304628, Note_on_c, 0, 68, 64
1, 304648, Note_on_c, 0, 67, 0
1, 304706, Note_on_c, 0, 67, 85
1, 304748, Note_on_c, 0, 68, 0
1, 304810, Note_on_c, 0, 65, 66
1, 304828, Note_on_c, 0, 67, 0
1, 304886, Note_on_c, 0, 65, 0
1, 304888, Note_on_c, 0, 67, 82
1, 304960, Note_on_c, 0, 67, 0
1, 304963, Note_on_c, 0, 68, 78
1, 305052, Note_on_c, 0, 67, 68
1, 305092, Note_on_c, 0, 68, 0
1, 305136, Note_on_c, 0, 65, 69
1, 305156, Note_on_c, 0, 67, 0
1, 305214, Note_on_c, 0, 67, 82
1, 305252, Note_on_c, 0, 65, 0
1, 305278, Note_on_c, 0, 34, 0
1, 305300, Note_on_c, 0, 68, 81
1, 305336, Note_on_c, 0, 46, 0
1, 305339, Note_on_c, 0, 67, 0
1, 305384, Note_on_c, 0, 70, 68
1, 305426, Note_on_c, 0, 68, 0
1, 305444, Note_on_c, 0, 70, 0
1, 305472, Note_on_c, 0, 72, 87
1, 305556, Note_on_c, 0, 74, 92
1, 305608, Note_on_c, 0, 72, 0
1, 305642, Note_on_c, 0, 75, 76
1, 305708, Note_on_c, 0, 74, 0
1, 305726, Note_on_c, 0, 77, 75
1, 305780, Note_on_c, 0, 75, 0
1, 305818, Note_on_c, 0, 77, 0
1, 305818, Note_on_c, 0, 79, 110
1, 305824, Note_on_c, 0, 75, 100
1, 305824, Note_on_c, 0, 70, 79
1, 305827, Note_on_c, 0, 67, 78
1, 305834, Note_on_c, 0, 63, 75
1, 306228, Note_on_c, 0, 67, 0
1, 306244, Note_on_c, 0, 75, 0
1, 306256, Note_on_c, 0, 70, 0
1, 306274, Note_on_c, 0, 79, 0
1, 306384, Note_on_c, 0, 63, 0
1, 306476, Note_on_c, 0, 62, 64
1, 306498, Note_on_c, 0, 65, 64
1, 306540, Note_on_c, 0, 70, 83
1, 306548, Note_on_c, 0, 77, 87
1, 306564, Note_on_c, 0, 82, 103
1, 306924, Note_on_c, 0, 62, 0
1, 306962, Note_on_c, 0, 77, 0
1, 306965, Note_on_c, 0, 70, 0
1, 307096, Note_on_c, 0, 65, 0
1, 307122, Note_on_c, 0, 60, 55
1, 307130, Note_on_c, 0, 63, 62
1, 307166, Note_on_c, 0, 68, 50
1, 307196, Note_on_c, 0, 75, 66
1, 307199, Note_on_c, 0, 72, 69
1, 307278, Note_on_c, 0, 80, 70
1, 307306, Note_on_c, 0, 82, 0
1, 307312, Note_on_c, 0, 87, 99
1, 308102, Note_on_c, 0, 72, 0
1, 308146, Note_on_c, 0, 60, 0
1, 308162, Note_on_c, 0, 80, 0
1, 308248, Note_on_c, 0, 63, 0
1, 308250, Note_on_c, 0, 68, 0
1, 308254, Note_on_c, 0, 75, 0
1, 308424, Note_on_c, 0, 87, 0
1, 308456, Note_on_c, 0, 86, 59
1, 308538, Note_on_c, 0, 84, 78
1, 308578, Note_on_c, 0, 86, 0
1, 308600, Note_on_c, 0, 82, 68
1, 308634, Note_on_c, 0, 84, 0
1, 308654, Note_on_c, 0, 75, 45
1, 308656, Note_on_c, 0, 80, 80
1, 308666, Note_on_c, 0, 72, 35
1, 308706, Note_on_c, 0, 82, 0
1, 308952, Note_on_c, 0, 80, 0
1, 308954, Note_on_c, 0, 75, 0
1, 309028, Note_on_c, 0, 72, 0
1, 309200, Note_on_c, 0, 79, 93
1, 309212, Note_on_c, 0, 75, 43
1, 309230, Note_on_c, 0, 70, 34
1, 309322, Note_on_c, 0, 75, 0
1, 309424, Note_on_c, 0, 84, 83
1, 309458, Note_on_c, 0, 79, 0
1, 309460, Note_on_c, 0, 75, 34
1, 309472, Note_on_c, 0, 68, 29
1, 309484, Note_on_c, 0, 70, 0
1, 309694, Note_on_c, 0, 75, 0
1, 309710, Note_on_c, 0, 68, 0
1, 309760, Note_on_c, 0, 84, 0
1, 310028, Note_on_c, 0, 66, 32
1, 310034, Note_on_c, 0, 82, 47
1, 310036, Note_on_c, 0, 75, 36
1, 310046, Note_on_c, 0, 70, 28
1, 310286, Note_on_c, 0, 66, 0
1, 310290, Note_on_c, 0, 70, 0
1, 310292, Note_on_c, 0, 81, 45
1, 310298, Note_on_c, 0, 72, 32
1, 310314, Note_on_c, 0, 65, 20
1, 310324, Note_on_c, 0, 82, 0
1, 310842, Note_on_c, 0, 72, 0
1, 310926, Note_on_c, 0, 81, 0
1, 310940, Note_on_c, 0, 65, 0
1, 310942, Note_on_c, 0, 75, 0
1, 311414, Note_on_c, 0, 80, 57
1, 311420, Note_on_c, 0, 84, 73
1, 311564, Note_on_c, 0, 80, 0
1, 311604, Note_on_c, 0, 82, 57
1, 311612, Note_on_c, 0, 79, 63
1, 311686, Note_on_c, 0, 84, 0
1, 311756, Note_on_c, 0, 79, 0
1, 311790, Note_on_c, 0, 80, 61
1, 311810, Note_on_c, 0, 77, 45
1, 311838, Note_on_c, 0, 82, 0
1, 311852, Note_on_c, 0, 80, 0
1, 311978, Note_on_c, 0, 75, 49
1, 311981, Note_on_c, 0, 79, 63
1, 312000, Note_on_c, 0, 77, 0
1, 312130, Note_on_c, 0, 79, 0
1, 312130, Note_on_c, 0, 75, 0
1, 312166, Note_on_c, 0, 70, 62
1, 312179, Note_on_c, 0, 67, 64
1, 312244, Note_on_c, 0, 70, 0
1, 312320, Note_on_c, 0, 67, 0
1, 312348, Note_on_c, 0, 68, 65
1, 312372, Note_on_c, 0, 65, 51
1, 312464, Note_on_c, 0, 65, 0
1, 312534, Note_on_c, 0, 63, 69
1, 312542, Note_on_c, 0, 67, 74
1, 312566, Note_on_c, 0, 68, 0
1, 312678, Note_on_c, 0, 63, 0
1, 312690, Note_on_c, 0, 67, 0
1, 312722, Note_on_c, 0, 65, 69
1, 312734, Note_on_c, 0, 62, 57
1, 312874, Note_on_c, 0, 65, 0
1, 312877, Note_on_c, 0, 62, 0
1, 312892, Note_on_c, 0, 84, 84
1, 312892, Note_on_c, 0, 80, 75
1, 313038, Note_on_c, 0, 80, 0
1, 313078, Note_on_c, 0, 82, 65
1, 313086, Note_on_c, 0, 79, 71
1, 313170, Note_on_c, 0, 84, 0
1, 313256, Note_on_c, 0, 80, 71
1, 313270, Note_on_c, 0, 79, 0
1, 313273, Note_on_c, 0, 77, 55
1, 313302, Note_on_c, 0, 82, 0
1, 313314, Note_on_c, 0, 80, 0
1, 313448, Note_on_c, 0, 79, 66
1, 313450, Note_on_c, 0, 75, 53
1, 313488, Note_on_c, 0, 77, 0
1, 313538, Note_on_c, 0, 75, 0
1, 313552, Note_on_c, 0, 79, 0
1, 313630, Note_on_c, 0, 70, 51
1, 313652, Note_on_c, 0, 67, 54
1, 313706, Note_on_c, 0, 70, 0
1, 313722, Note_on_c, 0, 67, 0
1, 313830, Note_on_c, 0, 68, 48
1, 313833, Note_on_c, 0, 65, 38
1, 313898, Note_on_c, 0, 65, 0
1, 313952, Note_on_c, 0, 68, 0
1, 313992, Note_on_c, 0, 63, 64
1, 314002, Note_on_c, 0, 67, 56
1, 314090, Note_on_c, 0, 67, 0
1, 314144, Note_on_c, 0, 63, 0
1, 314184, Note_on_c, 0, 65, 51
1, 314187, Note_on_c, 0, 62, 57
1, 314230, Note_on_c, 0, 62, 0
1, 314230, Note_on_c, 0, 65, 0
1, 314366, Note_on_c, 0, 70, 52
1, 314369, Note_on_c, 0, 80, 62
1, 314374, Note_on_c, 0, 84, 65
1, 314532, Note_on_c, 0, 80, 0
1, 314548, Note_on_c, 0, 82, 67
1, 314558, Note_on_c, 0, 79, 78
1, 314564, Note_on_c, 0, 72, 72
1, 314582, Note_on_c, 0, 84, 0
1, 314590, Note_on_c, 0, 70, 0
1, 314700, Note_on_c, 0, 79, 0
1, 314738, Note_on_c, 0, 72, 0
1, 314744, Note_on_c, 0, 74, 78
1, 314744, Note_on_c, 0, 80, 76
1, 314746, Note_on_c, 0, 77, 67
1, 314806, Note_on_c, 0, 82, 0
1, 314854, Note_on_c, 0, 77, 0
1, 314906, Note_on_c, 0, 79, 88
1, 314912, Note_on_c, 0, 74, 0
1, 314920, Note_on_c, 0, 75, 78
1, 314946, Note_on_c, 0, 79, 0
1, 314958, Note_on_c, 0, 80, 0
1, 315048, Note_on_c, 0, 75, 0
1, 315096, Note_on_c, 0, 82, 71
1, 315096, Note_on_c, 0, 79, 85
1, 315096, Note_on_c, 0, 87, 75
1, 315234, Note_on_c, 0, 87, 0
1, 315236, Note_on_c, 0, 79, 0
1, 315268, Note_on_c, 0, 82, 0
1, 315271, Note_on_c, 0, 86, 69
1, 315275, Note_on_c, 0, 77, 78
1, 315275, Note_on_c, 0, 80, 69
1, 315313, Note_on_c, 0, 86, 0
1, 315358, Note_on_c, 0, 80, 0
1, 315400, Note_on_c, 0, 77, 0
1, 315436, Note_on_c, 0, 84, 85
1, 315439, Note_on_c, 0, 79, 83
1, 315444, Note_on_c, 0, 75, 64
1, 315556, Note_on_c, 0, 79, 0
1, 315572, Note_on_c, 0, 75, 0
1, 315572, Note_on_c, 0, 84, 0
1, 315596, Note_on_c, 0, 82, 74
1, 315602, Note_on_c, 0, 77, 74
1, 315604, Note_on_c, 0, 74, 78
1, 315656, Note_on_c, 0, 82, 0
1, 315706, Note_on_c, 0, 77, 0
1, 315722, Note_on_c, 0, 74, 0
1, 315762, Note_on_c, 0, 80, 83
1, 315776, Note_on_c, 0, 72, 78
1, 315778, Note_on_c, 0, 75, 71
1, 315878, Note_on_c, 0, 80, 0
1, 315904, Note_on_c, 0, 72, 0
1, 315922, Note_on_c, 0, 75, 0
1, 315936, Note_on_c, 0, 79, 80
1, 315938, Note_on_c, 0, 74, 83
1, 315938, Note_on_c, 0, 70, 70
1, 315988, Note_on_c, 0, 79, 0
1, 315991, Note_on_c, 0, 74, 0
1, 316072, Note_on_c, 0, 70, 0
1, 316100, Note_on_c, 0, 72, 63
1, 316106, Note_on_c, 0, 77, 79
1, 316110, Note_on_c, 0, 68, 63
1, 316196, Note_on_c, 0, 77, 0
1, 316212, Note_on_c, 0, 72, 0
1, 316228, Note_on_c, 0, 68, 0
1, 316330, Note_on_c, 0, 76, 84
1, 316344, Note_on_c, 0, 70, 60
1, 316346, Note_on_c, 0, 67, 63
1, 317170, Note_on_c, 0, 77, 56
1, 317173, Note_on_c, 0, 72, 28
1, 317176, Note_on_c, 0, 68, 26
1, 317192, Note_on_c, 0, 67, 0
1, 317230, Note_on_c, 0, 76, 0
1, 317238, Note_on_c, 0, 70, 0
1, 317578, Note_on_c, 0, 77, 0
1, 317580, Note_on_c, 0, 72, 0
1, 317620, Note_on_c, 0, 68, 0
1, 318010, Note_on_c, 0, 70, 37
1, 318014, Note_on_c, 0, 74, 63
1, 318018, Note_on_c, 0, 68, 30
1, 318028, Note_on_c, 0, 65, 35
1, 318840, Note_on_c, 0, 74, 0
1, 318876, Note_on_c, 0, 75, 32
1, 318882, Note_on_c, 0, 68, 0
1, 318885, Note_on_c, 0, 67, 21
1, 318926, Note_on_c, 0, 65, 0
1, 319288, Note_on_c, 0, 70, 0
1, 319302, Note_on_c, 0, 75, 0
1, 319370, Note_on_c, 0, 67, 0
1, 321026, Note_on_c, 0, 72, 36
1, 321054, Note_on_c, 0, 60, 21
1, 322112, Note_on_c, 0, 72, 0
1, 322126, Note_on_c, 0, 60, 0
1, 322662, Note_on_c, 0, 71, 26
1, 322684, Note_on_c, 0, 35, 22
1, 322690, Note_on_c, 0, 47, 13
1, 322692, Note_on_c, 0, 59, 10
1, 323520, Note_on_c, 0, 47, 0
1, 323662, Note_on_c, 0, 59, 0
1, 323706, Note_on_c, 0, 71, 0
1, 323802, Note_on_c, 0, 35, 0
1, 324304, Note_on_c, 0, 69, 17
1, 324320, Note_on_c, 0, 57, 20
1, 324324, Note_on_c, 0, 45, 12
1, 324334, Note_on_c, 0, 33, 22
1, 325504, Note_on_c, 0, 57, 0
1, 325562, Note_on_c, 0, 45, 0
1, 325850, Note_on_c, 0, 33, 0
1, 326022, Note_on_c, 0, 32, 21
1, 326024, Note_on_c, 0, 68, 33
1, 326026, Note_on_c, 0, 56, 23
1, 326032, Note_on_c, 0, 44, 21
1, 326168, Note_on_c, 0, 69, 0
1, 326646, Note_on_c, 0, 56, 0
1, 326720, Note_on_c, 0, 44, 0
1, 326730, Note_on_c, 0, 32, 0
1, 326806, Note_on_c, 0, 69, 44
1, 326814, Note_on_c, 0, 57, 34
1, 326832, Note_on_c, 0, 33, 33
1, 326832, Note_on_c, 0, 45, 24
1, 326850, Note_on_c, 0, 68, 0
1, 327082, Note_on_c, 0, 45, 0
1, 327084, Note_on_c, 0, 33, 0
1, 327168, Note_on_c, 0, 57, 0
1, 327266, Note_on_c, 0, 69, 0
1, 327566, Note_on_c, 0, 58, 88
1, 327568, Note_on_c, 0, 70, 88
1, 327570, Note_on_c, 0, 34, 100
1, 327570, Note_on_c, 0, 67, 87
1, 327574, Note_on_c, 0, 63, 86
1, 327660, Note_on_c, 0, 46, 79
1, 327696, Note_on_c, 0, 34, 0
1, 327756, Note_on_c, 0, 34, 73
1, 327780, Note_on_c, 0, 46, 0
1, 327844, Note_on_c, 0, 46, 60
1, 327847, Note_on_c, 0, 58, 0
1, 327870, Note_on_c, 0, 34, 0
1, 327928, Note_on_c, 0, 63, 0
1, 327928, Note_on_c, 0, 34, 76
1, 327942, Note_on_c, 0, 67, 0
1, 327952, Note_on_c, 0, 46, 0
1, 328004, Note_on_c, 0, 70, 0
1, 328023, Note_on_c, 0, 46, 57
1, 328028, Note_on_c, 0, 34, 0
1, 328120, Note_on_c, 0, 34, 60
1, 328134, Note_on_c, 0, 46, 0
1, 328214, Note_on_c, 0, 46, 55
1, 328246, Note_on_c, 0, 34, 0
1, 328322, Note_on_c, 0, 34, 69
1, 328322, Note_on_c, 0, 75, 90
1, 328324, Note_on_c, 0, 67, 83
1, 328330, Note_on_c, 0, 46, 0
1, 328332, Note_on_c, 0, 70, 61
1, 328368, Note_on_c, 0, 67, 0
1, 328374, Note_on_c, 0, 70, 0
1, 328398, Note_on_c, 0, 46, 67
1, 328424, Note_on_c, 0, 34, 0
1, 328432, Note_on_c, 0, 75, 0
1, 328492, Note_on_c, 0, 34, 73
1, 328504, Note_on_c, 0, 46, 0
1, 328584, Note_on_c, 0, 46, 61
1, 328614, Note_on_c, 0, 34, 0
1, 328678, Note_on_c, 0, 34, 81
1, 328678, Note_on_c, 0, 70, 90
1, 328681, Note_on_c, 0, 46, 0
1, 328681, Note_on_c, 0, 79, 104
1, 328688, Note_on_c, 0, 75, 83
1, 328730, Note_on_c, 0, 75, 0
1, 328756, Note_on_c, 0, 46, 76
1, 328766, Note_on_c, 0, 70, 0
1, 328784, Note_on_c, 0, 79, 0
1, 328792, Note_on_c, 0, 34, 0
1, 328858, Note_on_c, 0, 46, 0
1, 328864, Note_on_c, 0, 34, 78
1, 328918, Note_on_c, 0, 46, 70
1, 328974, Note_on_c, 0, 34, 0
1, 329040, Note_on_c, 0, 46, 0
1, 329052, Note_on_c, 0, 82, 92
1, 329056, Note_on_c, 0, 75, 88
1, 329056, Note_on_c, 0, 79, 97
1, 329058, Note_on_c, 0, 34, 94
1, 329130, Note_on_c, 0, 34, 0
1, 329172, Note_on_c, 0, 79, 0
1, 329175, Note_on_c, 0, 75, 0
1, 329232, Note_on_c, 0, 82, 0
1, 329612, Note_on_c, 0, 79, 94
1, 329612, Note_on_c, 0, 75, 79
1, 329618, Note_on_c, 0, 63, 99
1, 329620, Note_on_c, 0, 67, 89
1, 329656, Note_on_c, 0, 67, 0
1, 329658, Note_on_c, 0, 63, 0
1, 329722, Note_on_c, 0, 75, 0
1, 329724, Note_on_c, 0, 79, 0
1, 329794, Note_on_c, 0, 79, 89
1, 329794, Note_on_c, 0, 82, 88
1, 329796, Note_on_c, 0, 70, 91
1, 329806, Note_on_c, 0, 67, 91
1, 329854, Note_on_c, 0, 67, 0
1, 329878, Note_on_c, 0, 70, 0
1, 329912, Note_on_c, 0, 79, 0
1, 329920, Note_on_c, 0, 82, 0
1, 329968, Note_on_c, 0, 79, 94
1, 329980, Note_on_c, 0, 75, 72
1, 329983, Note_on_c, 0, 67, 81
1, 329986, Note_on_c, 0, 63, 81
1, 330026, Note_on_c, 0, 67, 0
1, 330032, Note_on_c, 0, 63, 0
1, 330034, Note_on_c, 0, 75, 0
1, 330086, Note_on_c, 0, 79, 0
1, 330148, Note_on_c, 0, 70, 75
1, 330148, Note_on_c, 0, 82, 83
1, 330151, Note_on_c, 0, 79, 84
1, 330166, Note_on_c, 0, 67, 67
1, 330192, Note_on_c, 0, 70, 0
1, 330208, Note_on_c, 0, 67, 0
1, 330212, Note_on_c, 0, 79, 0
1, 330256, Note_on_c, 0, 82, 0
1, 330320, Note_on_c, 0, 75, 76
1, 330322, Note_on_c, 0, 79, 91
1, 330332, Note_on_c, 0, 67, 63
1, 330336, Note_on_c, 0, 63, 73
1, 330366, Note_on_c, 0, 75, 0
1, 330380, Note_on_c, 0, 67, 0
1, 330386, Note_on_c, 0, 63, 0
1, 330414, Note_on_c, 0, 79, 0
1, 330506, Note_on_c, 0, 82, 97
1, 330512, Note_on_c, 0, 70, 88
1, 330516, Note_on_c, 0, 79, 93
1, 330522, Note_on_c, 0, 67, 91
1, 330558, Note_on_c, 0, 67, 0
1, 330564, Note_on_c, 0, 79, 0
1, 330570, Note_on_c, 0, 70, 0
1, 330617, Note_on_c, 0, 82, 0
1, 331259, Note_on_c, 0, 53, 105
1, 331260, Note_on_c, 0, 74, 104
1, 331262, Note_on_c, 0, 68, 81
1, 331262, Note_on_c, 0, 65, 95
1, 331262, Note_on_c, 0, 58, 82
1, 331264, Note_on_c, 0, 70, 78
1, 331266, Note_on_c, 0, 50, 74
1, 331268, Note_on_c, 0, 46, 79
1, 331342, Note_on_c, 0, 53, 0
1, 331344, Note_on_c, 0, 58, 0
1, 331344, Note_on_c, 0, 65, 0
1, 331350, Note_on_c, 0, 50, 0
1, 331352, Note_on_c, 0, 74, 0
1, 331380, Note_on_c, 0, 46, 0
1, 331386, Note_on_c, 0, 68, 0
1, 331388, Note_on_c, 0, 70, 0
1, 332014, Note_on_c, 0, 75, 88
1, 332017, Note_on_c, 0, 55, 84
1, 332020, Note_on_c, 0, 51, 83
1, 332060, Note_on_c, 0, 55, 0
1, 332068, Note_on_c, 0, 51, 0
1, 332104, Note_on_c, 0, 79, 95
1, 332140, Note_on_c, 0, 75, 0
1, 332204, Note_on_c, 0, 77, 84
1, 332264, Note_on_c, 0, 79, 0
1, 332284, Note_on_c, 0, 75, 65
1, 332340, Note_on_c, 0, 77, 0
1, 332374, Note_on_c, 0, 74, 84
1, 332434, Note_on_c, 0, 75, 0
1, 332436, Note_on_c, 0, 74, 0
1, 332472, Note_on_c, 0, 72, 63
1, 332526, Note_on_c, 0, 72, 0
1, 332554, Note_on_c, 0, 70, 72
1, 332636, Note_on_c, 0, 69, 63
1, 332650, Note_on_c, 0, 70, 0
1, 332726, Note_on_c, 0, 46, 70
1, 332728, Note_on_c, 0, 68, 85
1, 332730, Note_on_c, 0, 53, 100
1, 332768, Note_on_c, 0, 69, 0
1, 332770, Note_on_c, 0, 53, 0
1, 332810, Note_on_c, 0, 72, 78
1, 332826, Note_on_c, 0, 68, 0
1, 332858, Note_on_c, 0, 46, 0
1, 332900, Note_on_c, 0, 70, 73
1, 332968, Note_on_c, 0, 72, 0
1, 333000, Note_on_c, 0, 68, 69
1, 333052, Note_on_c, 0, 70, 0
1, 333084, Note_on_c, 0, 67, 82
1, 333128, Note_on_c, 0, 68, 0
1, 333174, Note_on_c, 0, 65, 63
1, 333182, Note_on_c, 0, 67, 0
1, 333266, Note_on_c, 0, 63, 79
1, 333288, Note_on_c, 0, 65, 0
1, 333370, Note_on_c, 0, 62, 73
1, 333378, Note_on_c, 0, 63, 0
1, 333432, Note_on_c, 0, 62, 0
1, 333442, Note_on_c, 0, 55, 83
1, 333444, Note_on_c, 0, 63, 79
1, 333445, Note_on_c, 0, 51, 70
1, 333556, Note_on_c, 0, 63, 0
1, 333566, Note_on_c, 0, 51, 0
1, 333566, Note_on_c, 0, 55, 0
1, 333624, Note_on_c, 0, 79, 95
1, 333712, Note_on_c, 0, 77, 80
1, 333790, Note_on_c, 0, 79, 0
1, 333792, Note_on_c, 0, 75, 71
1, 333846, Note_on_c, 0, 77, 0
1, 333878, Note_on_c, 0, 74, 82
1, 333936, Note_on_c, 0, 75, 0
1, 333944, Note_on_c, 0, 74, 0
1, 333964, Note_on_c, 0, 72, 63
1, 334022, Note_on_c, 0, 72, 0
1, 334048, Note_on_c, 0, 70, 64
1, 334130, Note_on_c, 0, 69, 59
1, 334152, Note_on_c, 0, 70, 0
1, 334186, Note_on_c, 0, 46, 62
1, 334194, Note_on_c, 0, 53, 97
1, 334212, Note_on_c, 0, 68, 84
1, 334260, Note_on_c, 0, 69, 0
1, 334294, Note_on_c, 0, 53, 0
1, 334305, Note_on_c, 0, 72, 75
1, 334324, Note_on_c, 0, 68, 0
1, 334346, Note_on_c, 0, 46, 0
1, 334388, Note_on_c, 0, 70, 71
1, 334456, Note_on_c, 0, 72, 0
1, 334486, Note_on_c, 0, 68, 62
1, 334538, Note_on_c, 0, 70, 0
1, 334568, Note_on_c, 0, 67, 75
1, 334624, Note_on_c, 0, 67, 0
1, 334632, Note_on_c, 0, 68, 0
1, 334646, Note_on_c, 0, 65, 66
1, 334700, Note_on_c, 0, 65, 0
1, 334740, Note_on_c, 0, 63, 75
1, 334830, Note_on_c, 0, 62, 69
1, 334836, Note_on_c, 0, 63, 0
1, 334896, Note_on_c, 0, 62, 0
1, 334918, Note_on_c, 0, 63, 73
1, 334921, Note_on_c, 0, 51, 76
1, 334924, Note_on_c, 0, 39, 81
1, 334966, Note_on_c, 0, 39, 0
1, 334974, Note_on_c, 0, 63, 0
1, 334992, Note_on_c, 0, 51, 0
1, 334995, Note_on_c, 0, 62, 59
1, 335090, Note_on_c, 0, 63, 73
1, 335118, Note_on_c, 0, 62, 0
1, 335172, Note_on_c, 0, 67, 78
1, 335182, Note_on_c, 0, 63, 0
1, 335214, Note_on_c, 0, 67, 0
1, 335270, Note_on_c, 0, 55, 78
1, 335276, Note_on_c, 0, 43, 68
1, 335294, Note_on_c, 0, 67, 33
1, 335302, Note_on_c, 0, 65, 46
1, 335330, Note_on_c, 0, 43, 0
1, 335354, Note_on_c, 0, 65, 0
1, 335356, Note_on_c, 0, 67, 0
1, 335360, Note_on_c, 0, 55, 0
1, 335370, Note_on_c, 0, 66, 80
1, 335440, Note_on_c, 0, 66, 0
1, 335472, Note_on_c, 0, 67, 66
1, 335519, Note_on_c, 0, 67, 0
1, 335534, Note_on_c, 0, 70, 76
1, 335578, Note_on_c, 0, 70, 0
1, 335644, Note_on_c, 0, 58, 74
1, 335650, Note_on_c, 0, 46, 69
1, 335666, Note_on_c, 0, 70, 18
1, 335694, Note_on_c, 0, 69, 41
1, 335718, Note_on_c, 0, 46, 0
1, 335728, Note_on_c, 0, 70, 0
1, 335750, Note_on_c, 0, 58, 0
1, 335820, Note_on_c, 0, 70, 65
1, 335846, Note_on_c, 0, 69, 0
1, 335898, Note_on_c, 0, 75, 69
1, 335926, Note_on_c, 0, 70, 0
1, 335940, Note_on_c, 0, 75, 0
1, 336008, Note_on_c, 0, 75, 62
1, 336008, Note_on_c, 0, 63, 81
1, 336016, Note_on_c, 0, 51, 68
1, 336076, Note_on_c, 0, 75, 0
1, 336090, Note_on_c, 0, 51, 0
1, 336096, Note_on_c, 0, 74, 81
1, 336126, Note_on_c, 0, 63, 0
1, 336162, Note_on_c, 0, 74, 0
1, 336190, Note_on_c, 0, 75, 73
1, 336266, Note_on_c, 0, 75, 0
1, 336268, Note_on_c, 0, 79, 68
1, 336316, Note_on_c, 0, 79, 0
1, 336358, Note_on_c, 0, 67, 90
1, 336364, Note_on_c, 0, 79, 98
1, 336366, Note_on_c, 0, 55, 78
1, 336416, Note_on_c, 0, 55, 0
1, 336444, Note_on_c, 0, 78, 90
1, 336472, Note_on_c, 0, 79, 0
1, 336480, Note_on_c, 0, 67, 0
1, 336534, Note_on_c, 0, 79, 88
1, 336537, Note_on_c, 0, 78, 0
1, 336616, Note_on_c, 0, 82, 70
1, 336621, Note_on_c, 0, 79, 0
1, 336658, Note_on_c, 0, 82, 0
1, 336712, Note_on_c, 0, 70, 79
1, 336722, Note_on_c, 0, 82, 66
1, 336726, Note_on_c, 0, 58, 62
1, 336800, Note_on_c, 0, 58, 0
1, 336808, Note_on_c, 0, 81, 85
1, 336820, Note_on_c, 0, 82, 0
1, 336834, Note_on_c, 0, 70, 0
1, 336906, Note_on_c, 0, 82, 66
1, 336909, Note_on_c, 0, 81, 0
1, 336986, Note_on_c, 0, 87, 69
1, 337006, Note_on_c, 0, 82, 0
1, 337026, Note_on_c, 0, 87, 0
1, 337096, Note_on_c, 0, 75, 82
1, 337099, Note_on_c, 0, 87, 66
1, 337114, Note_on_c, 0, 63, 68
1, 337140, Note_on_c, 0, 75, 0
1, 337160, Note_on_c, 0, 63, 0
1, 337190, Note_on_c, 0, 82, 71
1, 337274, Note_on_c, 0, 81, 72
1, 337282, Note_on_c, 0, 82, 0
1, 337282, Note_on_c, 0, 87, 0
1, 337356, Note_on_c, 0, 82, 70
1, 337382, Note_on_c, 0, 81, 0
1, 337456, Note_on_c, 0, 68, 51
1, 337466, Note_on_c, 0, 86, 72
1, 337470, Note_on_c, 0, 82, 0
1, 337482, Note_on_c, 0, 58, 26
1, 337546, Note_on_c, 0, 82, 48
1, 337584, Note_on_c, 0, 58, 0
1, 337587, Note_on_c, 0, 86, 0
1, 337622, Note_on_c, 0, 68, 0
1, 337646, Note_on_c, 0, 81, 66
1, 337658, Note_on_c, 0, 82, 0
1, 337722, Note_on_c, 0, 82, 58
1, 337752, Note_on_c, 0, 81, 0
1, 337832, Note_on_c, 0, 67, 46
1, 337836, Note_on_c, 0, 63, 38
1, 337836, Note_on_c, 0, 87, 74
1, 337844, Note_on_c, 0, 82, 0
1, 337916, Note_on_c, 0, 82, 57
1, 337984, Note_on_c, 0, 67, 0
1, 337998, Note_on_c, 0, 87, 0
1, 338004, Note_on_c, 0, 63, 0
1, 338018, Note_on_c, 0, 81, 72
1, 338024, Note_on_c, 0, 82, 0
1, 338102, Note_on_c, 0, 82, 55
1, 338112, Note_on_c, 0, 81, 0
1, 338186, Note_on_c, 0, 68, 64
1, 338188, Note_on_c, 0, 86, 92
1, 338200, Note_on_c, 0, 58, 47
1, 338214, Note_on_c, 0, 82, 0
1, 338278, Note_on_c, 0, 82, 68
1, 338332, Note_on_c, 0, 58, 0
1, 338352, Note_on_c, 0, 86, 0
1, 338370, Note_on_c, 0, 81, 78
1, 338378, Note_on_c, 0, 68, 0
1, 338388, Note_on_c, 0, 82, 0
1, 338460, Note_on_c, 0, 82, 68
1, 338500, Note_on_c, 0, 81, 0
1, 338548, Note_on_c, 0, 67, 75
1, 338550, Note_on_c, 0, 87, 86
1, 338556, Note_on_c, 0, 63, 67
1, 338566, Note_on_c, 0, 82, 0
1, 338642, Note_on_c, 0, 82, 68
1, 338706, Note_on_c, 0, 67, 0
1, 338726, Note_on_c, 0, 81, 83
1, 338728, Note_on_c, 0, 87, 0
1, 338754, Note_on_c, 0, 82, 0
1, 338756, Note_on_c, 0, 63, 0
1, 338818, Note_on_c, 0, 82, 74
1, 338836, Note_on_c, 0, 81, 0
1, 338900, Note_on_c, 0, 68, 75
1, 338904, Note_on_c, 0, 86, 92
1, 338916, Note_on_c, 0, 82, 0
1, 338922, Note_on_c, 0, 58, 51
1, 338976, Note_on_c, 0, 82, 70
1, 339060, Note_on_c, 0, 86, 0
1, 339060, Note_on_c, 0, 81, 84
1, 339092, Note_on_c, 0, 82, 0
1, 339104, Note_on_c, 0, 68, 0
1, 339116, Note_on_c, 0, 58, 0
1, 339144, Note_on_c, 0, 82, 78
1, 339174, Note_on_c, 0, 81, 0
1, 339256, Note_on_c, 0, 63, 81
1, 339258, Note_on_c, 0, 87, 97
1, 339304, Note_on_c, 0, 82, 0
1, 339334, Note_on_c, 0, 67, 81
1, 339340, Note_on_c, 0, 63, 0
1, 339372, Note_on_c, 0, 87, 0
1, 339412, Note_on_c, 0, 67, 0
1, 339428, Note_on_c, 0, 63, 76
1, 339494, Note_on_c, 0, 63, 0
1, 339522, Note_on_c, 0, 67, 53
1, 339582, Note_on_c, 0, 67, 0
1, 339585, Note_on_c, 0, 75, 81
1, 339589, Note_on_c, 0, 79, 97
1, 339610, Note_on_c, 0, 63, 71
1, 339656, Note_on_c, 0, 63, 0
1, 339658, Note_on_c, 0, 75, 0
1, 339686, Note_on_c, 0, 67, 56
1, 339702, Note_on_c, 0, 79, 0
1, 339746, Note_on_c, 0, 67, 0
1, 339766, Note_on_c, 0, 63, 57
1, 339832, Note_on_c, 0, 67, 46
1, 339835, Note_on_c, 0, 63, 0
1, 339924, Note_on_c, 0, 67, 0
1, 339938, Note_on_c, 0, 63, 65
1, 339944, Note_on_c, 0, 82, 84
1, 339956, Note_on_c, 0, 79, 81
1, 340000, Note_on_c, 0, 79, 0
1, 340012, Note_on_c, 0, 63, 0
1, 340036, Note_on_c, 0, 67, 53
1, 340048, Note_on_c, 0, 82, 0
1, 340096, Note_on_c, 0, 67, 0
1, 340134, Note_on_c, 0, 63, 57
1, 340194, Note_on_c, 0, 63, 0
1, 340244, Note_on_c, 0, 67, 43
1, 340306, Note_on_c, 0, 67, 0
1, 340306, Note_on_c, 0, 63, 55
1, 340306, Note_on_c, 0, 75, 60
1, 340306, Note_on_c, 0, 79, 80
1, 340368, Note_on_c, 0, 79, 0
1, 340370, Note_on_c, 0, 63, 0
1, 340376, Note_on_c, 0, 75, 0
1, 340398, Note_on_c, 0, 67, 32
1, 340478, Note_on_c, 0, 63, 47
1, 340482, Note_on_c, 0, 67, 0
1, 340552, Note_on_c, 0, 63, 0
1, 340574, Note_on_c, 0, 67, 39
1, 340646, Note_on_c, 0, 67, 0
1, 340646, Note_on_c, 0, 63, 46
1, 340664, Note_on_c, 0, 82, 57
1, 340664, Note_on_c, 0, 79, 59
1, 340710, Note_on_c, 0, 82, 0
1, 340718, Note_on_c, 0, 79, 0
1, 340746, Note_on_c, 0, 67, 35
1, 340752, Note_on_c, 0, 63, 0
1, 340826, Note_on_c, 0, 67, 0
1, 340836, Note_on_c, 0, 63, 52
1, 340914, Note_on_c, 0, 63, 0
1, 340938, Note_on_c, 0, 67, 36
1, 341004, Note_on_c, 0, 50, 83
1, 341004, Note_on_c, 0, 63, 58
1, 341007, Note_on_c, 0, 67, 0
1, 341010, Note_on_c, 0, 51, 81
1, 341056, Note_on_c, 0, 50, 0
1, 341076, Note_on_c, 0, 51, 0
1, 341096, Note_on_c, 0, 63, 0
1, 341118, Note_on_c, 0, 67, 41
1, 341186, Note_on_c, 0, 67, 0
1, 341198, Note_on_c, 0, 63, 45
1, 341284, Note_on_c, 0, 63, 0
1, 341322, Note_on_c, 0, 67, 39
1, 341370, Note_on_c, 0, 45, 69
1, 341386, Note_on_c, 0, 67, 0
1, 341396, Note_on_c, 0, 46, 81
1, 341404, Note_on_c, 0, 63, 47
1, 341416, Note_on_c, 0, 45, 0
1, 341468, Note_on_c, 0, 63, 0
1, 341470, Note_on_c, 0, 46, 0
1, 341538, Note_on_c, 0, 67, 30
1, 341614, Note_on_c, 0, 67, 0
1, 341636, Note_on_c, 0, 63, 58
1, 341692, Note_on_c, 0, 63, 0
1, 341714, Note_on_c, 0, 42, 42
1, 341736, Note_on_c, 0, 43, 82
1, 341748, Note_on_c, 0, 67, 36
1, 341766, Note_on_c, 0, 42, 0
1, 341786, Note_on_c, 0, 43, 0
1, 341816, Note_on_c, 0, 67, 0
1, 341860, Note_on_c, 0, 63, 50
1, 341916, Note_on_c, 0, 63, 0
1, 341980, Note_on_c, 0, 67, 28
1, 342094, Note_on_c, 0, 67, 0
1, 342120, Note_on_c, 0, 38, 22
1, 342134, Note_on_c, 0, 39, 66
1, 342156, Note_on_c, 0, 63, 48
1, 342190, Note_on_c, 0, 38, 0
1, 342240, Note_on_c, 0, 63, 0
1, 342314, Note_on_c, 0, 39, 0
1, 342912, Note_on_c, 0, 87, 96
1, 342914, Note_on_c, 0, 82, 81
1, 342914, Note_on_c, 0, 79, 103
1, 342917, Note_on_c, 0, 63, 96
1, 342920, Note_on_c, 0, 51, 86
1, 342934, Note_on_c, 0, 58, 61
1, 342934, Note_on_c, 0, 55, 76
1, 342986, Note_on_c, 0, 55, 0
1, 342992, Note_on_c, 0, 58, 0
1, 342995, Note_on_c, 0, 79, 0
1, 342995, Note_on_c, 0, 63, 0
1, 343017, Note_on_c, 0, 51, 0
1, 343021, Note_on_c, 0, 82, 0
1, 343030, Note_on_c, 0, 87, 0
1, 343788, Note_on_c, 0, 58, 82
1, 343790, Note_on_c, 0, 63, 104
1, 343790, Note_on_c, 0, 51, 90
1, 343792, Note_on_c, 0, 55, 100
1, 343796, Note_on_c, 0, 43, 26
1, 343803, Note_on_c, 0, 39, 79
1, 343804, Note_on_c, 0, 46, 73
1, 344454, Note_on_c, 0, 43, 0
1, 344514, Note_on_c, 0, 51, 0
1, 344524, Note_on_c, 0, 55, 0
1, 344572, Note_on_c, 0, 39, 0
1, 344578, Note_on_c, 0, 46, 0
1, 344584, Note_on_c, 0, 58, 0
1, 344596, Note_on_c, 0, 63, 0
1, 344606, End_track
0, 0, End_of_file