0, 0, Header, 0, 1, 480
1, 0, Start_track
1, 0, Tempo, 500000
1, 0, Note_on_c, 0, 64, 44
1, 0, Note_on_c, 0, 56, 21
1, 32, Note_on_c, 0, 52, 37
1, 1326, Note_on_c, 0, 63, 47
1, 1340, Note_on_c, 0, 54, 32
1, 1422, Note_on_c, 0, 56, 0
1, 1458, Note_on_c, 0, 64, 0
1, 1572, Note_on_c, 0, 66, 37
1, 1594, Note_on_c, 0, 57, 25
1, 1722, Note_on_c, 0, 63, 0
1, 1760, Note_on_c, 0, 54, 0
1, 3152, Note_on_c, 0, 59, 18
1, 3358, Note_on_c, 0, 66, 0
1, 3908, Note_on_c, 0, 57, 0
1, 4068, Note_on_c, 0, 52, 0
1, 4538, Note_on_c, 0, 59, 0
1, 4704, Note_on_c, 0, 59, 38
1, 4764, Note_on_c, 0, 56, 13
1, 4778, Note_on_c, 0, 52, 28
1, 4936, Note_on_c, 0, 71, 64
1, 5476, Note_on_c, 0, 59, 0
1, 6158, Note_on_c, 0, 69, 48
1, 6172, Note_on_c, 0, 54, 35
1, 6196, Note_on_c, 0, 56, 0
1, 6230, Note_on_c, 0, 71, 0
1, 6396, Note_on_c, 0, 73, 59
1, 6444, Note_on_c, 0, 57, 27
1, 6464, Note_on_c, 0, 54, 0
1, 6592, Note_on_c, 0, 69, 0
1, 8066, Note_on_c, 0, 66, 20
1, 8084, Note_on_c, 0, 63, 18
1, 8336, Note_on_c, 0, 73, 0
1, 9178, Note_on_c, 0, 52, 0
1, 9210, Note_on_c, 0, 57, 0
1, 9466, Note_on_c, 0, 63, 0
1, 9566, Note_on_c, 0, 52, 52
1, 9580, Note_on_c, 0, 66, 0
1, 9628, Note_on_c, 0, 56, 41
1, 9728, Note_on_c, 0, 59, 42
1, 9764, Note_on_c, 0, 64, 57
1, 9824, Note_on_c, 0, 68, 61
1, 9918, Note_on_c, 0, 71, 74
1, 10000, Note_on_c, 0, 76, 82
1, 10614, Note_on_c, 0, 64, 0
1, 10660, Note_on_c, 0, 71, 0
1, 10752, Note_on_c, 0, 56, 0
1, 10756, Note_on_c, 0, 59, 0
1, 10774, Note_on_c, 0, 68, 0
1, 10780, Note_on_c, 0, 52, 0
1, 11344, Note_on_c, 0, 75, 78
1, 11354, Note_on_c, 0, 54, 75
1, 11360, Note_on_c, 0, 57, 57
1, 11394, Note_on_c, 0, 76, 0
1, 11430, Note_on_c, 0, 54, 0
1, 11442, Note_on_c, 0, 57, 0
1, 11470, Note_on_c, 0, 51, 69
1, 11502, Note_on_c, 0, 75, 0
1, 11522, Note_on_c, 0, 71, 82
1, 11532, Note_on_c, 0, 54, 69
1, 11572, Note_on_c, 0, 75, 58
1, 11590, Note_on_c, 0, 59, 55
1, 11612, Note_on_c, 0, 78, 80
1, 11634, Note_on_c, 0, 81, 101
1, 12114, Note_on_c, 0, 59, 0
1, 12140, Note_on_c, 0, 54, 0
1, 12142, Note_on_c, 0, 51, 0
1, 12746, Note_on_c, 0, 75, 0
1, 12828, Note_on_c, 0, 71, 0
1, 12868, Note_on_c, 0, 78, 0
1, 12882, Note_on_c, 0, 59, 70
1, 12890, Note_on_c, 0, 52, 84
1, 12890, Note_on_c, 0, 80, 90
1, 12896, Note_on_c, 0, 76, 74
1, 12918, Note_on_c, 0, 81, 0
1, 12940, Note_on_c, 0, 59, 0
1, 12996, Note_on_c, 0, 45, 72
1, 12999, Note_on_c, 0, 52, 0
1, 13042, Note_on_c, 0, 49, 67
1, 13066, Note_on_c, 0, 76, 0
1, 13088, Note_on_c, 0, 52, 75
1, 13120, Note_on_c, 0, 57, 68
1, 13142, Note_on_c, 0, 73, 74
1, 13234, Note_on_c, 0, 85, 92
1, 13252, Note_on_c, 0, 81, 84
1, 13258, Note_on_c, 0, 80, 0
1, 13438, Note_on_c, 0, 73, 0
1, 13648, Note_on_c, 0, 81, 0
1, 13664, Note_on_c, 0, 85, 0
1, 13752, Note_on_c, 0, 49, 0
1, 13754, Note_on_c, 0, 52, 0
1, 13768, Note_on_c, 0, 57, 0
1, 13771, Note_on_c, 0, 45, 0
1, 13918, Note_on_c, 0, 80, 84
1, 13918, Note_on_c, 0, 83, 108
1, 13958, Note_on_c, 0, 80, 0
1, 13966, Note_on_c, 0, 83, 0
1, 14046, Note_on_c, 0, 83, 101
1, 14056, Note_on_c, 0, 80, 56
1, 14154, Note_on_c, 0, 78, 73
1, 14156, Note_on_c, 0, 81, 87
1, 14216, Note_on_c, 0, 83, 0
1, 14219, Note_on_c, 0, 80, 0
1, 14564, Note_on_c, 0, 81, 0
1, 14574, Note_on_c, 0, 78, 0
1, 14814, Note_on_c, 0, 80, 81
1, 14824, Note_on_c, 0, 76, 62
1, 14880, Note_on_c, 0, 76, 0
1, 14920, Note_on_c, 0, 80, 0
1, 15006, Note_on_c, 0, 80, 63
1, 15024, Note_on_c, 0, 76, 64
1, 15046, Note_on_c, 0, 47, 34
1, 16480, Note_on_c, 0, 81, 46
1, 16512, Note_on_c, 0, 80, 0
1, 16748, Note_on_c, 0, 78, 41
1, 16758, Note_on_c, 0, 75, 31
1, 16788, Note_on_c, 0, 81, 0
1, 16790, Note_on_c, 0, 59, 16
1, 16838, Note_on_c, 0, 76, 0
1, 16932, Note_on_c, 0, 47, 0
1, 17626, Note_on_c, 0, 75, 0
1, 17634, Note_on_c, 0, 78, 0
1, 18218, Note_on_c, 0, 76, 37
1, 18226, Note_on_c, 0, 73, 20
1, 18430, Note_on_c, 0, 73, 0
1, 18464, Note_on_c, 0, 76, 0
1, 18578, Note_on_c, 0, 75, 42
1, 18594, Note_on_c, 0, 71, 43
1, 18660, Note_on_c, 0, 71, 0
1, 18666, Note_on_c, 0, 75, 0
1, 18846, Note_on_c, 0, 73, 51
1, 18846, Note_on_c, 0, 69, 37
1, 18914, Note_on_c, 0, 73, 0
1, 18940, Note_on_c, 0, 69, 0
1, 19068, Note_on_c, 0, 68, 50
1, 19076, Note_on_c, 0, 71, 61
1, 19122, Note_on_c, 0, 59, 0
1, 19149, Note_on_c, 0, 71, 0
1, 19160, Note_on_c, 0, 68, 0
1, 19278, Note_on_c, 0, 66, 51
1, 19290, Note_on_c, 0, 69, 39
1, 19352, Note_on_c, 0, 66, 0
1, 19366, Note_on_c, 0, 69, 0
1, 19498, Note_on_c, 0, 68, 44
1, 19512, Note_on_c, 0, 64, 44
1, 19558, Note_on_c, 0, 68, 0
1, 19570, Note_on_c, 0, 64, 0
1, 19734, Note_on_c, 0, 63, 49
1, 19734, Note_on_c, 0, 66, 35
1, 19794, Note_on_c, 0, 63, 0
1, 19820, Note_on_c, 0, 66, 0
1, 20096, Note_on_c, 0, 64, 68
1, 20116, Note_on_c, 0, 56, 23
1, 20124, Note_on_c, 0, 52, 31
1, 21434, Note_on_c, 0, 63, 48
1, 21472, Note_on_c, 0, 54, 29
1, 21522, Note_on_c, 0, 64, 0
1, 21612, Note_on_c, 0, 56, 0
1, 21640, Note_on_c, 0, 66, 42
1, 21676, Note_on_c, 0, 57, 30
1, 21772, Note_on_c, 0, 63, 0
1, 21808, Note_on_c, 0, 54, 0
1, 23104, Note_on_c, 0, 59, 24
1, 23282, Note_on_c, 0, 66, 0
1, 24042, Note_on_c, 0, 52, 0
1, 24126, Note_on_c, 0, 59, 0
1, 24140, Note_on_c, 0, 57, 0
1, 24366, Note_on_c, 0, 59, 31
1, 24474, Note_on_c, 0, 56, 19
1, 24488, Note_on_c, 0, 71, 50
1, 24494, Note_on_c, 0, 52, 26
1, 24650, Note_on_c, 0, 59, 0
1, 25622, Note_on_c, 0, 69, 39
1, 25628, Note_on_c, 0, 56, 0
1, 25636, Note_on_c, 0, 54, 32
1, 25650, Note_on_c, 0, 71, 0
1, 25704, Note_on_c, 0, 52, 0
1, 25778, Note_on_c, 0, 72, 60
1, 25826, Note_on_c, 0, 57, 28
1, 25826, Note_on_c, 0, 51, 26
1, 25841, Note_on_c, 0, 54, 0
1, 25900, Note_on_c, 0, 69, 0
1, 26760, Note_on_c, 0, 57, 0
1, 26908, Note_on_c, 0, 66, 38
1, 26932, Note_on_c, 0, 49, 46
1, 26974, Note_on_c, 0, 66, 0
1, 26988, Note_on_c, 0, 54, 53
1, 27006, Note_on_c, 0, 61, 49
1, 27016, Note_on_c, 0, 72, 0
1, 27034, Note_on_c, 0, 51, 0
1, 27058, Note_on_c, 0, 57, 42
1, 27086, Note_on_c, 0, 66, 28
1, 27136, Note_on_c, 0, 69, 46
1, 27198, Note_on_c, 0, 73, 69
1, 27698, Note_on_c, 0, 61, 0
1, 27928, Note_on_c, 0, 66, 0
1, 27928, Note_on_c, 0, 69, 0
1, 28010, Note_on_c, 0, 49, 0
1, 28062, Note_on_c, 0, 54, 0
1, 28294, Note_on_c, 0, 57, 0
1, 28330, Note_on_c, 0, 66, 62
1, 28366, Note_on_c, 0, 48, 49
1, 28430, Note_on_c, 0, 51, 62
1, 28450, Note_on_c, 0, 73, 0
1, 28458, Note_on_c, 0, 56, 65
1, 28470, Note_on_c, 0, 66, 0
1, 28556, Note_on_c, 0, 75, 88
1, 28558, Note_on_c, 0, 60, 73
1, 28574, Note_on_c, 0, 66, 42
1, 28590, Note_on_c, 0, 68, 36
1, 29236, Note_on_c, 0, 68, 0
1, 29412, Note_on_c, 0, 48, 0
1, 29420, Note_on_c, 0, 56, 0
1, 29472, Note_on_c, 0, 51, 0
1, 29590, Note_on_c, 0, 68, 79
1, 29608, Note_on_c, 0, 60, 0
1, 29618, Note_on_c, 0, 66, 0
1, 29634, Note_on_c, 0, 49, 47
1, 29674, Note_on_c, 0, 75, 0
1, 29692, Note_on_c, 0, 52, 62
1, 29747, Note_on_c, 0, 68, 0
1, 29758, Note_on_c, 0, 64, 68
1, 29758, Note_on_c, 0, 56, 48
1, 29824, Note_on_c, 0, 61, 54
1, 29848, Note_on_c, 0, 68, 48
1, 29912, Note_on_c, 0, 73, 62
1, 30008, Note_on_c, 0, 68, 0
1, 30020, Note_on_c, 0, 76, 80
1, 30026, Note_on_c, 0, 64, 0
1, 30084, Note_on_c, 0, 73, 0
1, 30218, Note_on_c, 0, 78, 77
1, 30252, Note_on_c, 0, 76, 0
1, 30342, Note_on_c, 0, 76, 51
1, 30370, Note_on_c, 0, 78, 0
1, 30458, Note_on_c, 0, 75, 72
1, 30460, Note_on_c, 0, 76, 0
1, 30542, Note_on_c, 0, 76, 51
1, 30592, Note_on_c, 0, 75, 0
1, 30662, Note_on_c, 0, 78, 78
1, 30700, Note_on_c, 0, 76, 0
1, 30830, Note_on_c, 0, 80, 65
1, 30856, Note_on_c, 0, 78, 0
1, 30882, Note_on_c, 0, 61, 0
1, 30890, Note_on_c, 0, 52, 0
1, 30896, Note_on_c, 0, 56, 0
1, 30940, Note_on_c, 0, 49, 0
1, 31098, Note_on_c, 0, 76, 54
1, 31190, Note_on_c, 0, 80, 0
1, 31322, Note_on_c, 0, 73, 43
1, 31378, Note_on_c, 0, 76, 0
1, 31606, Note_on_c, 0, 63, 28
1, 31609, Note_on_c, 0, 71, 44
1, 31616, Note_on_c, 0, 54, 32
1, 31619, Note_on_c, 0, 73, 0
1, 31844, Note_on_c, 0, 63, 0
1, 31858, Note_on_c, 0, 54, 0
1, 31876, Note_on_c, 0, 71, 0
1, 32378, Note_on_c, 0, 70, 29
1, 32408, Note_on_c, 0, 61, 23
1, 32432, Note_on_c, 0, 64, 19
1, 32435, Note_on_c, 0, 54, 24
1, 32568, Note_on_c, 0, 54, 0
1, 32590, Note_on_c, 0, 61, 0
1, 32600, Note_on_c, 0, 64, 0
1, 32672, Note_on_c, 0, 70, 0
1, 33394, Note_on_c, 0, 73, 35
1, 33408, Note_on_c, 0, 70, 22
1, 33418, Note_on_c, 0, 64, 36
1, 33462, Note_on_c, 0, 47, 28
1, 34860, Note_on_c, 0, 64, 0
1, 34924, Note_on_c, 0, 70, 0
1, 35026, Note_on_c, 0, 66, 3
1, 35194, Note_on_c, 0, 66, 0
1, 35290, Note_on_c, 0, 66, 31
1, 35622, Note_on_c, 0, 66, 0
1, 35648, Note_on_c, 0, 71, 31
1, 35654, Note_on_c, 0, 63, 29
1, 35882, Note_on_c, 0, 73, 0
1, 35952, Note_on_c, 0, 35, 43
1, 36216, Note_on_c, 0, 39, 44
1, 36242, Note_on_c, 0, 47, 0
1, 36436, Note_on_c, 0, 42, 54
1, 36462, Note_on_c, 0, 35, 0
1, 36536, Note_on_c, 0, 39, 0
1, 36660, Note_on_c, 0, 47, 53
1, 36680, Note_on_c, 0, 42, 0
1, 36892, Note_on_c, 0, 51, 56
1, 36896, Note_on_c, 0, 47, 0
1, 37120, Note_on_c, 0, 54, 60
1, 37196, Note_on_c, 0, 51, 0
1, 37362, Note_on_c, 0, 57, 53
1, 37386, Note_on_c, 0, 54, 0
1, 37404, Note_on_c, 0, 71, 0
1, 37452, Note_on_c, 0, 63, 0
1, 37612, Note_on_c, 0, 56, 46
1, 37644, Note_on_c, 0, 57, 0
1, 37908, Note_on_c, 0, 59, 37
1, 37922, Note_on_c, 0, 56, 0
1, 38220, Note_on_c, 0, 59, 0
1, 38220, Note_on_c, 0, 57, 24
1, 38522, Note_on_c, 0, 54, 30
1, 38568, Note_on_c, 0, 57, 0
1, 39020, Note_on_c, 0, 54, 0
1, 39034, Note_on_c, 0, 56, 18
1, 39042, Note_on_c, 0, 64, 52
1, 39090, Note_on_c, 0, 52, 20
1, 40274, Note_on_c, 0, 63, 45
1, 40274, Note_on_c, 0, 54, 28
1, 40336, Note_on_c, 0, 56, 0
1, 40356, Note_on_c, 0, 64, 0
1, 40508, Note_on_c, 0, 66, 40
1, 40576, Note_on_c, 0, 57, 25
1, 40612, Note_on_c, 0, 54, 0
1, 40644, Note_on_c, 0, 63, 0
1, 42062, Note_on_c, 0, 59, 22
1, 42198, Note_on_c, 0, 66, 0
1, 42742, Note_on_c, 0, 57, 0
1, 42788, Note_on_c, 0, 59, 0
1, 42926, Note_on_c, 0, 52, 0
1, 43368, Note_on_c, 0, 59, 17
1, 43460, Note_on_c, 0, 56, 16
1, 43492, Note_on_c, 0, 52, 25
1, 43514, Note_on_c, 0, 71, 58
1, 43968, Note_on_c, 0, 59, 0
1, 44802, Note_on_c, 0, 54, 38
1, 44812, Note_on_c, 0, 69, 36
1, 44842, Note_on_c, 0, 71, 0
1, 44880, Note_on_c, 0, 56, 0
1, 45000, Note_on_c, 0, 73, 46
1, 45040, Note_on_c, 0, 57, 27
1, 45070, Note_on_c, 0, 54, 0
1, 45086, Note_on_c, 0, 69, 0
1, 46498, Note_on_c, 0, 66, 29
1, 46514, Note_on_c, 0, 63, 20
1, 46714, Note_on_c, 0, 73, 0
1, 47342, Note_on_c, 0, 57, 0
1, 47398, Note_on_c, 0, 63, 0
1, 47398, Note_on_c, 0, 52, 0
1, 47512, Note_on_c, 0, 66, 0
1, 47726, Note_on_c, 0, 52, 37
1, 47796, Note_on_c, 0, 56, 35
1, 47854, Note_on_c, 0, 59, 47
1, 47857, Note_on_c, 0, 64, 51
1, 47904, Note_on_c, 0, 68, 61
1, 47970, Note_on_c, 0, 71, 86
1, 48022, Note_on_c, 0, 76, 83
1, 48564, Note_on_c, 0, 64, 0
1, 48700, Note_on_c, 0, 71, 0
1, 48716, Note_on_c, 0, 59, 0
1, 48724, Note_on_c, 0, 68, 0
1, 48734, Note_on_c, 0, 56, 0
1, 48740, Note_on_c, 0, 52, 0
1, 49158, Note_on_c, 0, 75, 88
1, 49158, Note_on_c, 0, 54, 83
1, 49172, Note_on_c, 0, 57, 54
1, 49180, Note_on_c, 0, 76, 0
1, 49228, Note_on_c, 0, 54, 0
1, 49236, Note_on_c, 0, 57, 0
1, 49268, Note_on_c, 0, 51, 73
1, 49284, Note_on_c, 0, 75, 0
1, 49298, Note_on_c, 0, 71, 87
1, 49334, Note_on_c, 0, 54, 62
1, 49358, Note_on_c, 0, 75, 61
1, 49400, Note_on_c, 0, 59, 61
1, 49400, Note_on_c, 0, 78, 82
1, 49432, Note_on_c, 0, 81, 100
1, 49748, Note_on_c, 0, 59, 0
1, 49756, Note_on_c, 0, 51, 0
1, 49766, Note_on_c, 0, 54, 0
1, 50416, Note_on_c, 0, 75, 0
1, 50530, Note_on_c, 0, 71, 0
1, 50572, Note_on_c, 0, 81, 0
1, 50574, Note_on_c, 0, 78, 0
1, 50580, Note_on_c, 0, 80, 88
1, 50586, Note_on_c, 0, 59, 75
1, 50596, Note_on_c, 0, 76, 73
1, 50602, Note_on_c, 0, 52, 78
1, 50638, Note_on_c, 0, 59, 0
1, 50648, Note_on_c, 0, 52, 0
1, 50710, Note_on_c, 0, 45, 62
1, 50740, Note_on_c, 0, 49, 71
1, 50754, Note_on_c, 0, 76, 0
1, 50786, Note_on_c, 0, 73, 64
1, 50802, Note_on_c, 0, 52, 64
1, 50810, Note_on_c, 0, 80, 0
1, 50820, Note_on_c, 0, 57, 72
1, 50876, Note_on_c, 0, 81, 87
1, 50880, Note_on_c, 0, 85, 95
1, 51084, Note_on_c, 0, 73, 0
1, 51164, Note_on_c, 0, 81, 0
1, 51182, Note_on_c, 0, 85, 0
1, 51466, Note_on_c, 0, 83, 108
1, 51471, Note_on_c, 0, 80, 79
1, 51514, Note_on_c, 0, 80, 0
1, 51554, Note_on_c, 0, 83, 0
1, 51660, Note_on_c, 0, 83, 97
1, 51696, Note_on_c, 0, 78, 69
1, 51714, Note_on_c, 0, 81, 84
1, 51782, Note_on_c, 0, 83, 0
1, 51782, Note_on_c, 0, 49, 0
1, 51790, Note_on_c, 0, 52, 0
1, 51818, Note_on_c, 0, 57, 0
1, 51868, Note_on_c, 0, 45, 0
1, 52312, Note_on_c, 0, 80, 83
1, 52324, Note_on_c, 0, 78, 0
1, 52326, Note_on_c, 0, 76, 47
1, 52330, Note_on_c, 0, 81, 0
1, 52410, Note_on_c, 0, 76, 0
1, 52446, Note_on_c, 0, 80, 0
1, 52528, Note_on_c, 0, 80, 66
1, 52546, Note_on_c, 0, 76, 71
1, 52558, Note_on_c, 0, 47, 39
1, 53978, Note_on_c, 0, 81, 46
1, 54004, Note_on_c, 0, 80, 0
1, 54246, Note_on_c, 0, 78, 44
1, 54254, Note_on_c, 0, 75, 41
1, 54286, Note_on_c, 0, 59, 20
1, 54300, Note_on_c, 0, 81, 0
1, 54338, Note_on_c, 0, 76, 0
1, 54456, Note_on_c, 0, 47, 0
1, 55140, Note_on_c, 0, 78, 0
1, 55148, Note_on_c, 0, 75, 0
1, 55522, Note_on_c, 0, 73, 45
1, 55534, Note_on_c, 0, 76, 37
1, 55718, Note_on_c, 0, 73, 0
1, 55774, Note_on_c, 0, 76, 0
1, 55882, Note_on_c, 0, 75, 49
1, 55890, Note_on_c, 0, 71, 53
1, 55960, Note_on_c, 0, 71, 0
1, 55976, Note_on_c, 0, 75, 0
1, 56122, Note_on_c, 0, 69, 45
1, 56122, Note_on_c, 0, 73, 58
1, 56154, Note_on_c, 0, 59, 0
1, 56200, Note_on_c, 0, 73, 0
1, 56252, Note_on_c, 0, 69, 0
1, 56332, Note_on_c, 0, 71, 69
1, 56332, Note_on_c, 0, 68, 53
1, 56408, Note_on_c, 0, 68, 0
1, 56438, Note_on_c, 0, 71, 0
1, 56538, Note_on_c, 0, 69, 52
1, 56548, Note_on_c, 0, 66, 44
1, 56618, Note_on_c, 0, 66, 0
1, 56658, Note_on_c, 0, 69, 0
1, 56768, Note_on_c, 0, 68, 46
1, 56790, Note_on_c, 0, 64, 43
1, 56826, Note_on_c, 0, 68, 0
1, 56856, Note_on_c, 0, 64, 0
1, 57024, Note_on_c, 0, 63, 38
1, 57027, Note_on_c, 0, 66, 29
1, 57088, Note_on_c, 0, 63, 0
1, 57148, Note_on_c, 0, 66, 0
1, 57366, Note_on_c, 0, 64, 34
1, 57376, Note_on_c, 0, 56, 20
1, 57394, Note_on_c, 0, 52, 23
1, 58640, Note_on_c, 0, 63, 33
1, 58640, Note_on_c, 0, 54, 25
1, 58698, Note_on_c, 0, 64, 0
1, 58716, Note_on_c, 0, 56, 0
1, 58876, Note_on_c, 0, 66, 28
1, 58906, Note_on_c, 0, 57, 25
1, 58926, Note_on_c, 0, 54, 0
1, 58966, Note_on_c, 0, 63, 0
1, 60296, Note_on_c, 0, 59, 26
1, 60434, Note_on_c, 0, 66, 0
1, 60786, Note_on_c, 0, 57, 0
1, 60962, Note_on_c, 0, 59, 0
1, 61176, Note_on_c, 0, 52, 0
1, 61652, Note_on_c, 0, 59, 22
1, 61672, Note_on_c, 0, 56, 12
1, 61692, Note_on_c, 0, 52, 16
1, 61792, Note_on_c, 0, 71, 49
1, 62174, Note_on_c, 0, 59, 0
1, 62588, Note_on_c, 0, 56, 0
1, 62710, Note_on_c, 0, 52, 0
1, 62890, Note_on_c, 0, 69, 44
1, 62898, Note_on_c, 0, 54, 34
1, 62948, Note_on_c, 0, 71, 0
1, 63082, Note_on_c, 0, 72, 65
1, 63085, Note_on_c, 0, 54, 0
1, 63096, Note_on_c, 0, 57, 35
1, 63108, Note_on_c, 0, 51, 35
1, 63222, Note_on_c, 0, 69, 0
1, 64042, Note_on_c, 0, 57, 0
1, 64214, Note_on_c, 0, 66, 52
1, 64282, Note_on_c, 0, 72, 0
1, 64282, Note_on_c, 0, 49, 37
1, 64292, Note_on_c, 0, 66, 0
1, 64310, Note_on_c, 0, 54, 57
1, 64314, Note_on_c, 0, 61, 55
1, 64370, Note_on_c, 0, 57, 48
1, 64372, Note_on_c, 0, 51, 0
1, 64378, Note_on_c, 0, 66, 43
1, 64412, Note_on_c, 0, 69, 57
1, 64436, Note_on_c, 0, 73, 81
1, 64986, Note_on_c, 0, 61, 0
1, 65170, Note_on_c, 0, 66, 0
1, 65210, Note_on_c, 0, 69, 0
1, 65302, Note_on_c, 0, 54, 0
1, 65380, Note_on_c, 0, 49, 0
1, 65468, Note_on_c, 0, 73, 0
1, 65510, Note_on_c, 0, 57, 0
1, 65572, Note_on_c, 0, 66, 82
1, 65714, Note_on_c, 0, 66, 0
1, 65856, Note_on_c, 0, 75, 91
1, 65872, Note_on_c, 0, 68, 62
1, 65876, Note_on_c, 0, 60, 59
1, 65880, Note_on_c, 0, 66, 57
1, 65884, Note_on_c, 0, 48, 43
1, 65888, Note_on_c, 0, 56, 47
1, 65904, Note_on_c, 0, 51, 52
1, 66386, Note_on_c, 0, 66, 0
1, 66514, Note_on_c, 0, 68, 0
1, 66618, Note_on_c, 0, 56, 0
1, 66621, Note_on_c, 0, 48, 0
1, 66706, Note_on_c, 0, 51, 0
1, 66720, Note_on_c, 0, 60, 0
1, 66898, Note_on_c, 0, 68, 81
1, 66958, Note_on_c, 0, 49, 58
1, 66990, Note_on_c, 0, 75, 0
1, 67012, Note_on_c, 0, 52, 77
1, 67072, Note_on_c, 0, 56, 59
1, 67112, Note_on_c, 0, 68, 0
1, 67134, Note_on_c, 0, 61, 78
1, 67150, Note_on_c, 0, 64, 83
1, 67248, Note_on_c, 0, 68, 84
1, 67296, Note_on_c, 0, 64, 0
1, 67356, Note_on_c, 0, 73, 73
1, 67398, Note_on_c, 0, 68, 0
1, 67480, Note_on_c, 0, 73, 0
1, 67534, Note_on_c, 0, 76, 78
1, 67574, Note_on_c, 0, 77, 31
1, 67642, Note_on_c, 0, 77, 0
1, 67736, Note_on_c, 0, 76, 0
1, 67748, Note_on_c, 0, 78, 82
1, 67858, Note_on_c, 0, 76, 74
1, 67896, Note_on_c, 0, 78, 0
1, 67944, Note_on_c, 0, 75, 73
1, 67964, Note_on_c, 0, 76, 0
1, 68018, Note_on_c, 0, 56, 0
1, 68018, Note_on_c, 0, 76, 89
1, 68044, Note_on_c, 0, 52, 0
1, 68052, Note_on_c, 0, 61, 0
1, 68074, Note_on_c, 0, 49, 0
1, 68096, Note_on_c, 0, 75, 0
1, 68208, Note_on_c, 0, 78, 74
1, 68236, Note_on_c, 0, 76, 0
1, 68450, Note_on_c, 0, 80, 59
1, 68458, Note_on_c, 0, 78, 0
1, 68752, Note_on_c, 0, 76, 37
1, 68806, Note_on_c, 0, 80, 0
1, 68974, Note_on_c, 0, 73, 33
1, 69016, Note_on_c, 0, 76, 0
1, 69266, Note_on_c, 0, 71, 40
1, 69269, Note_on_c, 0, 63, 26
1, 69274, Note_on_c, 0, 54, 30
1, 69276, Note_on_c, 0, 73, 0
1, 69526, Note_on_c, 0, 63, 0
1, 69536, Note_on_c, 0, 54, 0
1, 69548, Note_on_c, 0, 71, 0
1, 70052, Note_on_c, 0, 70, 33
1, 70068, Note_on_c, 0, 61, 20
1, 70082, Note_on_c, 0, 64, 27
1, 70088, Note_on_c, 0, 54, 23
1, 70262, Note_on_c, 0, 64, 0
1, 70284, Note_on_c, 0, 61, 0
1, 70318, Note_on_c, 0, 54, 0
1, 70350, Note_on_c, 0, 70, 0
1, 71006, Note_on_c, 0, 73, 38
1, 71026, Note_on_c, 0, 70, 20
1, 71028, Note_on_c, 0, 47, 26
1, 71056, Note_on_c, 0, 64, 19
1, 72206, Note_on_c, 0, 64, 0
1, 72324, Note_on_c, 0, 70, 0
1, 72502, Note_on_c, 0, 66, 6
1, 72856, Note_on_c, 0, 63, 15
1, 72878, Note_on_c, 0, 71, 24
1, 72888, Note_on_c, 0, 66, 0
1, 72988, Note_on_c, 0, 73, 0
1, 73168, Note_on_c, 0, 63, 0
1, 73186, Note_on_c, 0, 71, 0
1, 73412, Note_on_c, 0, 35, 29
1, 73456, Note_on_c, 0, 47, 0
1, 73710, Note_on_c, 0, 35, 0
1, 73724, Note_on_c, 0, 39, 32
1, 73956, Note_on_c, 0, 39, 0
1, 73956, Note_on_c, 0, 42, 34
1, 74130, Note_on_c, 0, 42, 0
1, 74186, Note_on_c, 0, 47, 52
1, 74342, Note_on_c, 0, 47, 0
1, 74402, Note_on_c, 0, 51, 36
1, 74592, Note_on_c, 0, 54, 59
1, 74644, Note_on_c, 0, 51, 0
1, 74812, Note_on_c, 0, 54, 0
1, 74818, Note_on_c, 0, 57, 58
1, 75028, Note_on_c, 0, 57, 0
1, 75042, Note_on_c, 0, 59, 64
1, 75246, Note_on_c, 0, 63, 69
1, 75306, Note_on_c, 0, 59, 0
1, 75466, Note_on_c, 0, 66, 62
1, 75568, Note_on_c, 0, 63, 0
1, 75700, Note_on_c, 0, 69, 69
1, 75784, Note_on_c, 0, 66, 0
1, 76064, Note_on_c, 0, 72, 68
1, 76072, Note_on_c, 0, 66, 24
1, 76090, Note_on_c, 0, 63, 30
1, 76118, Note_on_c, 0, 57, 15
1, 76174, Note_on_c, 0, 69, 0
1, 77222, Note_on_c, 0, 72, 0
1, 77234, Note_on_c, 0, 71, 65
1, 77278, Note_on_c, 0, 71, 0
1, 77414, Note_on_c, 0, 71, 57
1, 77544, Note_on_c, 0, 78, 64
1, 77566, Note_on_c, 0, 71, 0
1, 78592, Note_on_c, 0, 78, 0
1, 78628, Note_on_c, 0, 63, 0
1, 78650, Note_on_c, 0, 57, 0
1, 78660, Note_on_c, 0, 66, 0
1, 78662, Note_on_c, 0, 71, 70
1, 78716, Note_on_c, 0, 71, 0
1, 78798, Note_on_c, 0, 71, 73
1, 78826, Note_on_c, 0, 64, 52
1, 78829, Note_on_c, 0, 59, 42
1, 78852, Note_on_c, 0, 55, 27
1, 78944, Note_on_c, 0, 79, 95
1, 79234, Note_on_c, 0, 71, 0
1, 79782, Note_on_c, 0, 55, 0
1, 79788, Note_on_c, 0, 64, 0
1, 79792, Note_on_c, 0, 59, 0
1, 79996, Note_on_c, 0, 79, 0
1, 80086, Note_on_c, 0, 71, 98
1, 80242, Note_on_c, 0, 71, 0
1, 80338, Note_on_c, 0, 81, 105
1, 80341, Note_on_c, 0, 74, 92
1, 80344, Note_on_c, 0, 77, 92
1, 80344, Note_on_c, 0, 71, 100
1, 80348, Note_on_c, 0, 65, 87
1, 80356, Note_on_c, 0, 62, 65
1, 80356, Note_on_c, 0, 55, 74
1, 80356, Note_on_c, 0, 59, 66
1, 81080, Note_on_c, 0, 62, 0
1, 81098, Note_on_c, 0, 74, 0
1, 81170, Note_on_c, 0, 59, 0
1, 81170, Note_on_c, 0, 65, 0
1, 81198, Note_on_c, 0, 55, 0
1, 81218, Note_on_c, 0, 77, 0
1, 81280, Note_on_c, 0, 81, 0
1, 81416, Note_on_c, 0, 71, 0
1, 81504, Note_on_c, 0, 59, 97
1, 81504, Note_on_c, 0, 55, 95
1, 81588, Note_on_c, 0, 59, 0
1, 81628, Note_on_c, 0, 55, 0
1, 81678, Note_on_c, 0, 77, 99
1, 81678, Note_on_c, 0, 67, 89
1, 81681, Note_on_c, 0, 71, 94
1, 81684, Note_on_c, 0, 74, 92
1, 81690, Note_on_c, 0, 62, 92
1, 81694, Note_on_c, 0, 59, 71
1, 82284, Note_on_c, 0, 62, 0
1, 82312, Note_on_c, 0, 59, 0
1, 82728, Note_on_c, 0, 71, 0
1, 82744, Note_on_c, 0, 74, 0
1, 82748, Note_on_c, 0, 67, 0
1, 82812, Note_on_c, 0, 55, 92
1, 82814, Note_on_c, 0, 59, 88
1, 82928, Note_on_c, 0, 59, 0
1, 82958, Note_on_c, 0, 55, 0
1, 82994, Note_on_c, 0, 76, 87
1, 83000, Note_on_c, 0, 72, 69
1, 83002, Note_on_c, 0, 67, 71
1, 83004, Note_on_c, 0, 64, 72
1, 83010, Note_on_c, 0, 60, 68
1, 83128, Note_on_c, 0, 77, 0
1, 83796, Note_on_c, 0, 67, 0
1, 83834, Note_on_c, 0, 72, 0
1, 84036, Note_on_c, 0, 64, 0
1, 84048, Note_on_c, 0, 74, 93
1, 84060, Note_on_c, 0, 65, 52
1, 84066, Note_on_c, 0, 60, 0
1, 84076, Note_on_c, 0, 62, 44
1, 84112, Note_on_c, 0, 76, 0
1, 84166, Note_on_c, 0, 74, 0
1, 84228, Note_on_c, 0, 62, 0
1, 84234, Note_on_c, 0, 74, 84
1, 84246, Note_on_c, 0, 65, 0
1, 84252, Note_on_c, 0, 67, 54
1, 84260, Note_on_c, 0, 64, 48
1, 85292, Note_on_c, 0, 72, 76
1, 85352, Note_on_c, 0, 74, 0
1, 85404, Note_on_c, 0, 72, 0
1, 85458, Note_on_c, 0, 72, 84
1, 85488, Note_on_c, 0, 65, 36
1, 85494, Note_on_c, 0, 67, 0
1, 85494, Note_on_c, 0, 62, 33
1, 85572, Note_on_c, 0, 64, 0
1, 86528, Note_on_c, 0, 71, 66
1, 86542, Note_on_c, 0, 72, 0
1, 86622, Note_on_c, 0, 71, 0
1, 86702, Note_on_c, 0, 71, 72
1, 86744, Note_on_c, 0, 65, 0
1, 86762, Note_on_c, 0, 60, 16
1, 86764, Note_on_c, 0, 64, 23
1, 86852, Note_on_c, 0, 62, 0
1, 87620, Note_on_c, 0, 71, 0
1, 87710, Note_on_c, 0, 64, 0
1, 87846, Note_on_c, 0, 70, 38
1, 87972, Note_on_c, 0, 70, 0
1, 88068, Note_on_c, 0, 70, 29
1, 88102, Note_on_c, 0, 59, 18
1, 88106, Note_on_c, 0, 64, 30
1, 88108, Note_on_c, 0, 60, 0
1, 89574, Note_on_c, 0, 63, 20
1, 89696, Note_on_c, 0, 64, 0
1, 90468, Note_on_c, 0, 71, 26
1, 90562, Note_on_c, 0, 70, 0
1, 91128, Note_on_c, 0, 69, 17
1, 91218, Note_on_c, 0, 71, 0
1, 91796, Note_on_c, 0, 69, 0
1, 91799, Note_on_c, 0, 66, 13
1, 92062, Note_on_c, 0, 63, 0
1, 92112, Note_on_c, 0, 59, 0
1, 92132, Note_on_c, 0, 66, 0
1, 92676, Note_on_c, 0, 64, 30
1, 92690, Note_on_c, 0, 56, 11
1, 92706, Note_on_c, 0, 52, 22
1, 93940, Note_on_c, 0, 64, 0
1, 93943, Note_on_c, 0, 63, 27
1, 93947, Note_on_c, 0, 54, 25
1, 94030, Note_on_c, 0, 56, 0
1, 94164, Note_on_c, 0, 66, 30
1, 94204, Note_on_c, 0, 57, 18
1, 94212, Note_on_c, 0, 54, 0
1, 94215, Note_on_c, 0, 63, 0
1, 94888, Note_on_c, 0, 66, 0
1, 95492, Note_on_c, 0, 59, 35
1, 95550, Note_on_c, 0, 59, 0
1, 95656, Note_on_c, 0, 61, 58
1, 95716, Note_on_c, 0, 61, 0
1, 95820, Note_on_c, 0, 63, 65
1, 95868, Note_on_c, 0, 63, 0
1, 95990, Note_on_c, 0, 64, 55
1, 96044, Note_on_c, 0, 64, 0
1, 96146, Note_on_c, 0, 66, 47
1, 96216, Note_on_c, 0, 66, 0
1, 96304, Note_on_c, 0, 68, 52
1, 96358, Note_on_c, 0, 68, 0
1, 96380, Note_on_c, 0, 57, 0
1, 96426, Note_on_c, 0, 52, 0
1, 96460, Note_on_c, 0, 69, 48
1, 96526, Note_on_c, 0, 69, 0
1, 96626, Note_on_c, 0, 70, 45
1, 96686, Note_on_c, 0, 70, 0
1, 96802, Note_on_c, 0, 71, 60
1, 96810, Note_on_c, 0, 64, 45
1, 96820, Note_on_c, 0, 56, 31
1, 96872, Note_on_c, 0, 71, 0
1, 97170, Note_on_c, 0, 71, 52
1, 97234, Note_on_c, 0, 71, 0
1, 97526, Note_on_c, 0, 71, 40
1, 97598, Note_on_c, 0, 71, 0
1, 97852, Note_on_c, 0, 71, 43
1, 97924, Note_on_c, 0, 71, 0
1, 97954, Note_on_c, 0, 56, 0
1, 97962, Note_on_c, 0, 64, 0
1, 97966, Note_on_c, 0, 63, 52
1, 97990, Note_on_c, 0, 54, 42
1, 98178, Note_on_c, 0, 71, 51
1, 98196, Note_on_c, 0, 66, 42
1, 98236, Note_on_c, 0, 57, 36
1, 98260, Note_on_c, 0, 71, 0
1, 98286, Note_on_c, 0, 63, 0
1, 98314, Note_on_c, 0, 54, 0
1, 98460, Note_on_c, 0, 71, 68
1, 98546, Note_on_c, 0, 71, 0
1, 98648, Note_on_c, 0, 71, 69
1, 98758, Note_on_c, 0, 71, 0
1, 98822, Note_on_c, 0, 71, 79
1, 98920, Note_on_c, 0, 71, 0
1, 98980, Note_on_c, 0, 71, 92
1, 99092, Note_on_c, 0, 71, 0
1, 99124, Note_on_c, 0, 71, 74
1, 99220, Note_on_c, 0, 71, 0
1, 99266, Note_on_c, 0, 71, 106
1, 99320, Note_on_c, 0, 57, 0
1, 99332, Note_on_c, 0, 66, 0
1, 99358, Note_on_c, 0, 71, 0
1, 99432, Note_on_c, 0, 71, 89
1, 99436, Note_on_c, 0, 66, 46
1, 99450, Note_on_c, 0, 57, 33
1, 99450, Note_on_c, 0, 59, 56
1, 99464, Note_on_c, 0, 63, 48
1, 99652, Note_on_c, 0, 71, 0
1, 99658, Note_on_c, 0, 73, 76
1, 99788, Note_on_c, 0, 71, 92
1, 99832, Note_on_c, 0, 73, 0
1, 99884, Note_on_c, 0, 70, 83
1, 99894, Note_on_c, 0, 71, 0
1, 99994, Note_on_c, 0, 70, 0
1, 100002, Note_on_c, 0, 71, 83
1, 100100, Note_on_c, 0, 73, 81
1, 100134, Note_on_c, 0, 71, 0
1, 100204, Note_on_c, 0, 75, 74
1, 100252, Note_on_c, 0, 73, 0
1, 100256, Note_on_c, 0, 75, 0
1, 100290, Note_on_c, 0, 76, 72
1, 100368, Note_on_c, 0, 78, 78
1, 100394, Note_on_c, 0, 76, 0
1, 100436, Note_on_c, 0, 80, 85
1, 100468, Note_on_c, 0, 80, 0
1, 100486, Note_on_c, 0, 78, 0
1, 100510, Note_on_c, 0, 81, 89
1, 100516, Note_on_c, 0, 63, 0
1, 100522, Note_on_c, 0, 59, 0
1, 100550, Note_on_c, 0, 57, 0
1, 100570, Note_on_c, 0, 83, 108
1, 100578, Note_on_c, 0, 66, 0
1, 100608, Note_on_c, 0, 81, 0
1, 100630, Note_on_c, 0, 85, 84
1, 100706, Note_on_c, 0, 87, 85
1, 100712, Note_on_c, 0, 83, 0
1, 100790, Note_on_c, 0, 76, 101
1, 100790, Note_on_c, 0, 64, 75
1, 100792, Note_on_c, 0, 88, 103
1, 100794, Note_on_c, 0, 56, 52
1, 100814, Note_on_c, 0, 59, 52
1, 100864, Note_on_c, 0, 87, 0
1, 100882, Note_on_c, 0, 85, 0
1, 101732, Note_on_c, 0, 76, 0
1, 101860, Note_on_c, 0, 59, 0
1, 101886, Note_on_c, 0, 87, 87
1, 101886, Note_on_c, 0, 75, 87
1, 101926, Note_on_c, 0, 56, 0
1, 101942, Note_on_c, 0, 64, 0
1, 101972, Note_on_c, 0, 88, 0
1, 102036, Note_on_c, 0, 75, 0
1, 102041, Note_on_c, 0, 87, 0
1, 102074, Note_on_c, 0, 86, 105
1, 102076, Note_on_c, 0, 74, 101
1, 102082, Note_on_c, 0, 65, 71
1, 102086, Note_on_c, 0, 56, 51
1, 102106, Note_on_c, 0, 59, 54
1, 102112, Note_on_c, 0, 85, 31
1, 102184, Note_on_c, 0, 85, 0
1, 103206, Note_on_c, 0, 65, 0
1, 103262, Note_on_c, 0, 74, 0
1, 103396, Note_on_c, 0, 59, 0
1, 103398, Note_on_c, 0, 85, 85
1, 103406, Note_on_c, 0, 73, 68
1, 103408, Note_on_c, 0, 66, 50
1, 103422, Note_on_c, 0, 61, 43
1, 103422, Note_on_c, 0, 57, 43
1, 103498, Note_on_c, 0, 56, 0
1, 103632, Note_on_c, 0, 86, 0
1, 104568, Note_on_c, 0, 85, 0
1, 104624, Note_on_c, 0, 73, 0
1, 104648, Note_on_c, 0, 66, 0
1, 104668, Note_on_c, 0, 61, 0
1, 104680, Note_on_c, 0, 59, 55
1, 104708, Note_on_c, 0, 57, 0
1, 104720, Note_on_c, 0, 64, 57
1, 104760, Note_on_c, 0, 68, 71
1, 104832, Note_on_c, 0, 71, 84
1, 104890, Note_on_c, 0, 76, 77
1, 104970, Note_on_c, 0, 80, 88
1, 105050, Note_on_c, 0, 83, 118
1, 105540, Note_on_c, 0, 71, 0
1, 105632, Note_on_c, 0, 76, 0
1, 105752, Note_on_c, 0, 80, 0
1, 105752, Note_on_c, 0, 83, 0
1, 105766, Note_on_c, 0, 64, 0
1, 105996, Note_on_c, 0, 68, 0
1, 106116, Note_on_c, 0, 59, 0
1, 106162, Note_on_c, 0, 82, 85
1, 106286, Note_on_c, 0, 82, 0
1, 106360, Note_on_c, 0, 88, 97
1, 106378, Note_on_c, 0, 61, 36
1, 106380, Note_on_c, 0, 67, 37
1, 106420, Note_on_c, 0, 64, 36
1, 108276, Note_on_c, 0, 88, 0
1, 108282, Note_on_c, 0, 67, 0
1, 108288, Note_on_c, 0, 64, 0
1, 108318, Note_on_c, 0, 61, 0
1, 109278, Note_on_c, 0, 81, 38
1, 109281, Note_on_c, 0, 78, 27
1, 109298, Note_on_c, 0, 63, 26
1, 109308, Note_on_c, 0, 71, 30
1, 110122, Note_on_c, 0, 63, 0
1, 110132, Note_on_c, 0, 81, 0
1, 110144, Note_on_c, 0, 78, 0
1, 110244, Note_on_c, 0, 71, 0
1, 110382, Note_on_c, 0, 80, 43
1, 110402, Note_on_c, 0, 76, 18
1, 110408, Note_on_c, 0, 64, 25
1, 110478, Note_on_c, 0, 76, 0
1, 110486, Note_on_c, 0, 64, 0
1, 110578, Note_on_c, 0, 76, 20
1, 110610, Note_on_c, 0, 85, 36
1, 110624, Note_on_c, 0, 57, 22
1, 110630, Note_on_c, 0, 69, 13
1, 110640, Note_on_c, 0, 80, 0
1, 110910, Note_on_c, 0, 69, 0
1, 110930, Note_on_c, 0, 57, 0
1, 110982, Note_on_c, 0, 76, 0
1, 110994, Note_on_c, 0, 85, 0
1, 111762, Note_on_c, 0, 75, 29
1, 111790, Note_on_c, 0, 66, 12
1, 111790, Note_on_c, 0, 69, 13
1, 111832, Note_on_c, 0, 59, 19
1, 111990, Note_on_c, 0, 59, 0
1, 112104, Note_on_c, 0, 66, 0
1, 112118, Note_on_c, 0, 69, 0
1, 112156, Note_on_c, 0, 75, 0
1, 112960, Note_on_c, 0, 75, 43
1, 112984, Note_on_c, 0, 66, 17
1, 112986, Note_on_c, 0, 69, 10
1, 113008, Note_on_c, 0, 64, 23
1, 113512, Note_on_c, 0, 69, 0
1, 113558, Note_on_c, 0, 66, 0
1, 114122, Note_on_c, 0, 75, 0
1, 114154, Note_on_c, 0, 71, 25
1, 114458, Note_on_c, 0, 71, 0
1, 114486, Note_on_c, 0, 68, 8
1, 114492, Note_on_c, 0, 76, 22
1, 114516, Note_on_c, 0, 52, 20
1, 115300, Note_on_c, 0, 64, 0
1, 115726, Note_on_c, 0, 52, 0
1, 115832, Note_on_c, 0, 76, 0
1, 115906, Note_on_c, 0, 68, 0
1, 117040, Note_on_c, 0, 72, 39
1, 117046, Note_on_c, 0, 63, 26
1, 117054, Note_on_c, 0, 66, 17
1, 117088, Note_on_c, 0, 57, 17
1, 117954, Note_on_c, 0, 72, 0
1, 118138, Note_on_c, 0, 71, 48
1, 118190, Note_on_c, 0, 71, 0
1, 118264, Note_on_c, 0, 71, 51
1, 118416, Note_on_c, 0, 78, 60
1, 118422, Note_on_c, 0, 71, 0
1, 119162, Note_on_c, 0, 78, 0
1, 119246, Note_on_c, 0, 63, 0
1, 119284, Note_on_c, 0, 57, 0
1, 119340, Note_on_c, 0, 66, 0
1, 119376, Note_on_c, 0, 71, 62
1, 119430, Note_on_c, 0, 71, 0
1, 119524, Note_on_c, 0, 71, 63
1, 119538, Note_on_c, 0, 64, 48
1, 119552, Note_on_c, 0, 59, 34
1, 119574, Note_on_c, 0, 55, 25
1, 119686, Note_on_c, 0, 79, 89
1, 119810, Note_on_c, 0, 71, 0
1, 120212, Note_on_c, 0, 55, 0
1, 120262, Note_on_c, 0, 64, 0
1, 120282, Note_on_c, 0, 79, 0
1, 120340, Note_on_c, 0, 59, 0
1, 120614, Note_on_c, 0, 71, 91
1, 120746, Note_on_c, 0, 71, 0
1, 120844, Note_on_c, 0, 65, 75
1, 120846, Note_on_c, 0, 81, 100
1, 120848, Note_on_c, 0, 74, 88
1, 120852, Note_on_c, 0, 77, 84
1, 120852, Note_on_c, 0, 71, 92
1, 120858, Note_on_c, 0, 55, 54
1, 120858, Note_on_c, 0, 59, 51
1, 120858, Note_on_c, 0, 62, 55
1, 121430, Note_on_c, 0, 62, 0
1, 121500, Note_on_c, 0, 55, 0
1, 121534, Note_on_c, 0, 65, 0
1, 121542, Note_on_c, 0, 59, 0
1, 121672, Note_on_c, 0, 74, 0
1, 121686, Note_on_c, 0, 77, 0
1, 121816, Note_on_c, 0, 81, 0
1, 121902, Note_on_c, 0, 71, 0
1, 121956, Note_on_c, 0, 59, 84
1, 121958, Note_on_c, 0, 55, 85
1, 122024, Note_on_c, 0, 59, 0
1, 122102, Note_on_c, 0, 55, 0
1, 122130, Note_on_c, 0, 77, 93
1, 122134, Note_on_c, 0, 67, 80
1, 122142, Note_on_c, 0, 71, 80
1, 122144, Note_on_c, 0, 74, 80
1, 122147, Note_on_c, 0, 62, 79
1, 122152, Note_on_c, 0, 59, 72
1, 122606, Note_on_c, 0, 59, 0
1, 122740, Note_on_c, 0, 62, 0
1, 123072, Note_on_c, 0, 71, 0
1, 123102, Note_on_c, 0, 67, 0
1, 123134, Note_on_c, 0, 55, 75
1, 123144, Note_on_c, 0, 74, 0
1, 123146, Note_on_c, 0, 59, 67
1, 123232, Note_on_c, 0, 59, 0
1, 123332, Note_on_c, 0, 76, 74
1, 123336, Note_on_c, 0, 72, 59
1, 123340, Note_on_c, 0, 60, 65
1, 123340, Note_on_c, 0, 64, 57
1, 123344, Note_on_c, 0, 67, 54
1, 123378, Note_on_c, 0, 55, 0
1, 123426, Note_on_c, 0, 77, 0
1, 123938, Note_on_c, 0, 67, 0
1, 124066, Note_on_c, 0, 72, 0
1, 124312, Note_on_c, 0, 64, 0
1, 124322, Note_on_c, 0, 74, 73
1, 124338, Note_on_c, 0, 65, 38
1, 124350, Note_on_c, 0, 62, 40
1, 124356, Note_on_c, 0, 60, 0
1, 124410, Note_on_c, 0, 76, 0
1, 124446, Note_on_c, 0, 74, 0
1, 124506, Note_on_c, 0, 74, 92
1, 124526, Note_on_c, 0, 67, 58
1, 124534, Note_on_c, 0, 64, 50
1, 124536, Note_on_c, 0, 62, 0
1, 124564, Note_on_c, 0, 65, 0
1, 125430, Note_on_c, 0, 72, 64
1, 125470, Note_on_c, 0, 74, 0
1, 125544, Note_on_c, 0, 72, 0
1, 125602, Note_on_c, 0, 72, 85
1, 125618, Note_on_c, 0, 65, 36
1, 125622, Note_on_c, 0, 62, 32
1, 125628, Note_on_c, 0, 67, 0
1, 125716, Note_on_c, 0, 64, 0
1, 126506, Note_on_c, 0, 71, 69
1, 126524, Note_on_c, 0, 72, 0
1, 126614, Note_on_c, 0, 71, 0
1, 126698, Note_on_c, 0, 71, 71
1, 126732, Note_on_c, 0, 60, 19
1, 126750, Note_on_c, 0, 65, 0
1, 126750, Note_on_c, 0, 64, 28
1, 126770, Note_on_c, 0, 62, 0
1, 127574, Note_on_c, 0, 64, 0
1, 127680, Note_on_c, 0, 71, 0
1, 127688, Note_on_c, 0, 70, 37
1, 127846, Note_on_c, 0, 70, 0
1, 127922, Note_on_c, 0, 70, 40
1, 127968, Note_on_c, 0, 59, 20
1, 127978, Note_on_c, 0, 64, 26
1, 128006, Note_on_c, 0, 60, 0
1, 129320, Note_on_c, 0, 63, 22
1, 129418, Note_on_c, 0, 64, 0
1, 130082, Note_on_c, 0, 71, 25
1, 130214, Note_on_c, 0, 70, 0
1, 130710, Note_on_c, 0, 69, 18
1, 130838, Note_on_c, 0, 71, 0
1, 131380, Note_on_c, 0, 66, 10
1, 131398, Note_on_c, 0, 69, 0
1, 131706, Note_on_c, 0, 63, 0
1, 131744, Note_on_c, 0, 59, 0
1, 131844, Note_on_c, 0, 66, 0
1, 132364, Note_on_c, 0, 64, 24
1, 132400, Note_on_c, 0, 56, 10
1, 132418, Note_on_c, 0, 52, 15
1, 133664, Note_on_c, 0, 64, 0
1, 133669, Note_on_c, 0, 54, 21
1, 133676, Note_on_c, 0, 63, 23
1, 133700, Note_on_c, 0, 56, 0
1, 133910, Note_on_c, 0, 66, 28
1, 133920, Note_on_c, 0, 57, 19
1, 133934, Note_on_c, 0, 54, 0
1, 133952, Note_on_c, 0, 63, 0
1, 135250, Note_on_c, 0, 66, 0
1, 135310, Note_on_c, 0, 59, 22
1, 135396, Note_on_c, 0, 59, 0
1, 135492, Note_on_c, 0, 61, 42
1, 135554, Note_on_c, 0, 61, 0
1, 135652, Note_on_c, 0, 63, 55
1, 135702, Note_on_c, 0, 63, 0
1, 135838, Note_on_c, 0, 64, 24
1, 135900, Note_on_c, 0, 64, 0
1, 135992, Note_on_c, 0, 66, 19
1, 136086, Note_on_c, 0, 66, 0
1, 136160, Note_on_c, 0, 68, 21
1, 136236, Note_on_c, 0, 68, 0
1, 136320, Note_on_c, 0, 69, 28
1, 136398, Note_on_c, 0, 69, 0
1, 136482, Note_on_c, 0, 70, 37
1, 136550, Note_on_c, 0, 70, 0
1, 136668, Note_on_c, 0, 57, 0
1, 136676, Note_on_c, 0, 64, 43
1, 136682, Note_on_c, 0, 71, 48
1, 136688, Note_on_c, 0, 56, 13
1, 136758, Note_on_c, 0, 71, 0
1, 136802, Note_on_c, 0, 52, 0
1, 137028, Note_on_c, 0, 71, 53
1, 137122, Note_on_c, 0, 71, 0
1, 137366, Note_on_c, 0, 71, 47
1, 137452, Note_on_c, 0, 71, 0
1, 137712, Note_on_c, 0, 71, 41
1, 137790, Note_on_c, 0, 71, 0
1, 137810, Note_on_c, 0, 56, 0
1, 137812, Note_on_c, 0, 64, 0
1, 137832, Note_on_c, 0, 63, 41
1, 137860, Note_on_c, 0, 54, 41
1, 138004, Note_on_c, 0, 66, 49
1, 138006, Note_on_c, 0, 71, 57
1, 138062, Note_on_c, 0, 57, 37
1, 138074, Note_on_c, 0, 54, 0
1, 138098, Note_on_c, 0, 71, 0
1, 138132, Note_on_c, 0, 63, 0
1, 138270, Note_on_c, 0, 71, 68
1, 138352, Note_on_c, 0, 71, 0
1, 138454, Note_on_c, 0, 71, 63
1, 138546, Note_on_c, 0, 71, 0
1, 138620, Note_on_c, 0, 71, 78
1, 138728, Note_on_c, 0, 71, 0
1, 138788, Note_on_c, 0, 71, 92
1, 138882, Note_on_c, 0, 71, 0
1, 138936, Note_on_c, 0, 71, 94
1, 139024, Note_on_c, 0, 71, 0
1, 139078, Note_on_c, 0, 57, 0
1, 139078, Note_on_c, 0, 71, 102
1, 139088, Note_on_c, 0, 66, 0
1, 139178, Note_on_c, 0, 71, 0
1, 139232, Note_on_c, 0, 66, 51
1, 139246, Note_on_c, 0, 57, 42
1, 139260, Note_on_c, 0, 63, 50
1, 139266, Note_on_c, 0, 71, 80
1, 139268, Note_on_c, 0, 59, 38
1, 139432, Note_on_c, 0, 71, 0
1, 139458, Note_on_c, 0, 73, 73
1, 139570, Note_on_c, 0, 71, 80
1, 139618, Note_on_c, 0, 73, 0
1, 139648, Note_on_c, 0, 70, 79
1, 139674, Note_on_c, 0, 71, 0
1, 139746, Note_on_c, 0, 71, 88
1, 139754, Note_on_c, 0, 70, 0
1, 139844, Note_on_c, 0, 73, 84
1, 139868, Note_on_c, 0, 71, 0
1, 139936, Note_on_c, 0, 75, 88
1, 139986, Note_on_c, 0, 73, 0
1, 140002, Note_on_c, 0, 75, 0
1, 140018, Note_on_c, 0, 76, 83
1, 140096, Note_on_c, 0, 78, 84
1, 140124, Note_on_c, 0, 76, 0
1, 140158, Note_on_c, 0, 80, 88
1, 140186, Note_on_c, 0, 59, 0
1, 140192, Note_on_c, 0, 80, 0
1, 140204, Note_on_c, 0, 57, 0
1, 140207, Note_on_c, 0, 63, 0
1, 140212, Note_on_c, 0, 78, 0
1, 140236, Note_on_c, 0, 81, 91
1, 140250, Note_on_c, 0, 66, 0
1, 140298, Note_on_c, 0, 83, 108
1, 140346, Note_on_c, 0, 81, 0
1, 140356, Note_on_c, 0, 85, 82
1, 140430, Note_on_c, 0, 87, 85
1, 140442, Note_on_c, 0, 83, 0
1, 140504, Note_on_c, 0, 85, 0
1, 140530, Note_on_c, 0, 76, 106
1, 140532, Note_on_c, 0, 88, 107
1, 140534, Note_on_c, 0, 64, 89
1, 140534, Note_on_c, 0, 56, 67
1, 140548, Note_on_c, 0, 59, 72
1, 140580, Note_on_c, 0, 85, 26
1, 140600, Note_on_c, 0, 87, 0
1, 140650, Note_on_c, 0, 85, 0
1, 141432, Note_on_c, 0, 88, 0
1, 141450, Note_on_c, 0, 76, 0
1, 141556, Note_on_c, 0, 56, 0
1, 141580, Note_on_c, 0, 59, 0
1, 141604, Note_on_c, 0, 87, 94
1, 141610, Note_on_c, 0, 64, 0
1, 141610, Note_on_c, 0, 75, 88
1, 141718, Note_on_c, 0, 75, 0
1, 141754, Note_on_c, 0, 87, 0
1, 141788, Note_on_c, 0, 86, 108
1, 141791, Note_on_c, 0, 74, 108
1, 141796, Note_on_c, 0, 65, 75
1, 141800, Note_on_c, 0, 56, 61
1, 141816, Note_on_c, 0, 59, 62
1, 142858, Note_on_c, 0, 65, 0
1, 142910, Note_on_c, 0, 74, 0
1, 143014, Note_on_c, 0, 59, 0
1, 143050, Note_on_c, 0, 73, 85
1, 143050, Note_on_c, 0, 66, 64
1, 143053, Note_on_c, 0, 85, 92
1, 143068, Note_on_c, 0, 61, 53
1, 143068, Note_on_c, 0, 57, 50
1, 143110, Note_on_c, 0, 56, 0
1, 143212, Note_on_c, 0, 86, 0
1, 144022, Note_on_c, 0, 85, 0
1, 144054, Note_on_c, 0, 73, 0
1, 144074, Note_on_c, 0, 61, 0
1, 144106, Note_on_c, 0, 59, 51
1, 144120, Note_on_c, 0, 66, 0
1, 144146, Note_on_c, 0, 64, 63
1, 144173, Note_on_c, 0, 57, 0
1, 144202, Note_on_c, 0, 68, 76
1, 144238, Note_on_c, 0, 71, 77
1, 144292, Note_on_c, 0, 76, 79
1, 144352, Note_on_c, 0, 80, 80
1, 144408, Note_on_c, 0, 83, 119
1, 144836, Note_on_c, 0, 71, 0
1, 144950, Note_on_c, 0, 76, 0
1, 145060, Note_on_c, 0, 80, 0
1, 145084, Note_on_c, 0, 83, 0
1, 145220, Note_on_c, 0, 64, 0
1, 145414, Note_on_c, 0, 68, 0
1, 145448, Note_on_c, 0, 82, 84
1, 145640, Note_on_c, 0, 88, 92
1, 145646, Note_on_c, 0, 67, 41
1, 145652, Note_on_c, 0, 61, 41
1, 145684, Note_on_c, 0, 64, 36
1, 145690, Note_on_c, 0, 59, 0
1, 145716, Note_on_c, 0, 82, 0
1, 147238, Note_on_c, 0, 67, 0
1, 147244, Note_on_c, 0, 64, 0
1, 147278, Note_on_c, 0, 61, 0
1, 147286, Note_on_c, 0, 88, 0
1, 148206, Note_on_c, 0, 78, 38
1, 148212, Note_on_c, 0, 81, 49
1, 148226, Note_on_c, 0, 71, 33
1, 148229, Note_on_c, 0, 63, 26
1, 148934, Note_on_c, 0, 78, 0
1, 149000, Note_on_c, 0, 81, 0
1, 149003, Note_on_c, 0, 71, 0
1, 149052, Note_on_c, 0, 63, 0
1, 149246, Note_on_c, 0, 80, 45
1, 149266, Note_on_c, 0, 76, 27
1, 149266, Note_on_c, 0, 64, 32
1, 149332, Note_on_c, 0, 76, 0
1, 149340, Note_on_c, 0, 64, 0
1, 149458, Note_on_c, 0, 85, 44
1, 149466, Note_on_c, 0, 76, 17
1, 149468, Note_on_c, 0, 80, 0
1, 149480, Note_on_c, 0, 57, 21
1, 149484, Note_on_c, 0, 69, 18
1, 149760, Note_on_c, 0, 69, 0
1, 149794, Note_on_c, 0, 57, 0
1, 149816, Note_on_c, 0, 76, 0
1, 149838, Note_on_c, 0, 85, 0
1, 150590, Note_on_c, 0, 75, 41
1, 150610, Note_on_c, 0, 69, 18
1, 150620, Note_on_c, 0, 66, 13
1, 150654, Note_on_c, 0, 59, 14
1, 150780, Note_on_c, 0, 59, 0
1, 150850, Note_on_c, 0, 69, 0
1, 150862, Note_on_c, 0, 66, 0
1, 150906, Note_on_c, 0, 75, 0
1, 151844, Note_on_c, 0, 75, 42
1, 151860, Note_on_c, 0, 69, 21
1, 151863, Note_on_c, 0, 66, 35
1, 151882, Note_on_c, 0, 64, 25
1, 152374, Note_on_c, 0, 69, 0
1, 152730, Note_on_c, 0, 66, 0
1, 152906, Note_on_c, 0, 64, 0
1, 153142, Note_on_c, 0, 75, 0
1, 153178, Note_on_c, 0, 71, 24
1, 153514, Note_on_c, 0, 68, 22
1, 153516, Note_on_c, 0, 76, 17
1, 153526, Note_on_c, 0, 64, 16
1, 153554, Note_on_c, 0, 52, 26
1, 153618, Note_on_c, 0, 71, 0
1, 155252, Note_on_c, 0, 52, 0
1, 155266, Note_on_c, 0, 64, 0
1, 155320, Note_on_c, 0, 76, 0
1, 155326, Note_on_c, 0, 68, 0
1, 156032, Note_on_c, 0, 52, 109
1, 156037, Note_on_c, 0, 40, 112
1, 157245, Note_on_c, 0, 51, 85
1, 157249, Note_on_c, 0, 39, 81
1, 157302, Note_on_c, 0, 40, 0
1, 157308, Note_on_c, 0, 52, 0
1, 157426, Note_on_c, 0, 54, 98
1, 157429, Note_on_c, 0, 42, 86
1, 157478, Note_on_c, 0, 39, 0
1, 157512, Note_on_c, 0, 51, 0
1, 157892, Note_on_c, 0, 52, 94
1, 157895, Note_on_c, 0, 40, 90
1, 157902, Note_on_c, 0, 54, 0
1, 157940, Note_on_c, 0, 42, 0
1, 157980, Note_on_c, 0, 55, 99
1, 157985, Note_on_c, 0, 43, 91
1, 158010, Note_on_c, 0, 40, 0
1, 158016, Note_on_c, 0, 52, 0
1, 158422, Note_on_c, 0, 54, 92
1, 158430, Note_on_c, 0, 42, 86
1, 158452, Note_on_c, 0, 43, 0
1, 158474, Note_on_c, 0, 55, 0
1, 158516, Note_on_c, 0, 45, 91
1, 158518, Note_on_c, 0, 57, 89
1, 158586, Note_on_c, 0, 42, 0
1, 158598, Note_on_c, 0, 54, 0
1, 159010, Note_on_c, 0, 55, 91
1, 159013, Note_on_c, 0, 43, 86
1, 159034, Note_on_c, 0, 45, 0
1, 159112, Note_on_c, 0, 47, 94
1, 159120, Note_on_c, 0, 59, 97
1, 159160, Note_on_c, 0, 43, 0
1, 159178, Note_on_c, 0, 55, 0
1, 159190, Note_on_c, 0, 57, 0
1, 159634, Note_on_c, 0, 57, 95
1, 159638, Note_on_c, 0, 45, 89
1, 159698, Note_on_c, 0, 47, 0
1, 159702, Note_on_c, 0, 59, 0
1, 159788, Note_on_c, 0, 48, 78
1, 159788, Note_on_c, 0, 60, 100
1, 159898, Note_on_c, 0, 45, 0
1, 159950, Note_on_c, 0, 57, 0
1, 160788, Note_on_c, 0, 48, 0
1, 161030, Note_on_c, 0, 50, 105
1, 161034, Note_on_c, 0, 48, 66
1, 161034, Note_on_c, 0, 42, 68
1, 161040, Note_on_c, 0, 45, 64
1, 161220, Note_on_c, 0, 60, 0
1, 161420, Note_on_c, 0, 52, 85
1, 161530, Note_on_c, 0, 50, 0
1, 161574, Note_on_c, 0, 54, 80
1, 161606, Note_on_c, 0, 52, 0
1, 161696, Note_on_c, 0, 55, 80
1, 161702, Note_on_c, 0, 54, 0
1, 161790, Note_on_c, 0, 55, 0
1, 161798, Note_on_c, 0, 57, 71
1, 161876, Note_on_c, 0, 59, 74
1, 161882, Note_on_c, 0, 57, 0
1, 161914, Note_on_c, 0, 59, 0
1, 161948, Note_on_c, 0, 60, 74
1, 162020, Note_on_c, 0, 62, 85
1, 162046, Note_on_c, 0, 60, 0
1, 162088, Note_on_c, 0, 64, 76
1, 162134, Note_on_c, 0, 62, 0
1, 162146, Note_on_c, 0, 66, 72
1, 162190, Note_on_c, 0, 66, 0
1, 162193, Note_on_c, 0, 64, 0
1, 162210, Note_on_c, 0, 67, 79
1, 162280, Note_on_c, 0, 69, 77
1, 162300, Note_on_c, 0, 67, 0
1, 162358, Note_on_c, 0, 71, 57
1, 162402, Note_on_c, 0, 69, 0
1, 162414, Note_on_c, 0, 71, 0
1, 162417, Note_on_c, 0, 72, 78
1, 162488, Note_on_c, 0, 74, 84
1, 162491, Note_on_c, 0, 72, 0
1, 162542, Note_on_c, 0, 76, 57
1, 162602, Note_on_c, 0, 78, 76
1, 162606, Note_on_c, 0, 74, 0
1, 162656, Note_on_c, 0, 76, 0
1, 162666, Note_on_c, 0, 78, 0
1, 162680, Note_on_c, 0, 79, 90
1, 162730, Note_on_c, 0, 79, 0
1, 162758, Note_on_c, 0, 81, 86
1, 162830, Note_on_c, 0, 83, 90
1, 162868, Note_on_c, 0, 83, 0
1, 162878, Note_on_c, 0, 81, 0
1, 162910, Note_on_c, 0, 84, 82
1, 162988, Note_on_c, 0, 86, 73
1, 163018, Note_on_c, 0, 84, 0
1, 163102, Note_on_c, 0, 88, 75
1, 163170, Note_on_c, 0, 86, 0
1, 163442, Note_on_c, 0, 45, 0
1, 163448, Note_on_c, 0, 42, 0
1, 163458, Note_on_c, 0, 48, 0
1, 163628, Note_on_c, 0, 88, 0
1, 164232, Note_on_c, 0, 88, 51
1, 164244, Note_on_c, 0, 84, 43
1, 164244, Note_on_c, 0, 66, 30
1, 164406, Note_on_c, 0, 83, 72
1, 164410, Note_on_c, 0, 86, 61
1, 164430, Note_on_c, 0, 67, 41
1, 164446, Note_on_c, 0, 66, 0
1, 164446, Note_on_c, 0, 84, 0
1, 164468, Note_on_c, 0, 88, 0
1, 164748, Note_on_c, 0, 67, 0
1, 164774, Note_on_c, 0, 83, 0
1, 164777, Note_on_c, 0, 86, 0
1, 165480, Note_on_c, 0, 81, 32
1, 165486, Note_on_c, 0, 66, 22
1, 165574, Note_on_c, 0, 81, 0
1, 165592, Note_on_c, 0, 84, 36
1, 165680, Note_on_c, 0, 88, 34
1, 165704, Note_on_c, 0, 84, 0
1, 165764, Note_on_c, 0, 88, 0
1, 165780, Note_on_c, 0, 66, 0
1, 165790, Note_on_c, 0, 67, 17
1, 165796, Note_on_c, 0, 83, 48
1, 165806, Note_on_c, 0, 86, 39
1, 166028, Note_on_c, 0, 86, 0
1, 166042, Note_on_c, 0, 83, 0
1, 166050, Note_on_c, 0, 67, 0
1, 166794, Note_on_c, 0, 86, 54
1, 166796, Note_on_c, 0, 74, 62
1, 166828, Note_on_c, 0, 71, 45
1, 166846, Note_on_c, 0, 74, 0
1, 166894, Note_on_c, 0, 71, 0
1, 166902, Note_on_c, 0, 83, 81
1, 166938, Note_on_c, 0, 86, 0
1, 166976, Note_on_c, 0, 83, 0
1, 167014, Note_on_c, 0, 79, 47
1, 167090, Note_on_c, 0, 72, 58
1, 167100, Note_on_c, 0, 69, 52
1, 167108, Note_on_c, 0, 78, 70
1, 167124, Note_on_c, 0, 79, 0
1, 167132, Note_on_c, 0, 72, 0
1, 167152, Note_on_c, 0, 69, 0
1, 167236, Note_on_c, 0, 78, 0
1, 167402, Note_on_c, 0, 71, 66
1, 167408, Note_on_c, 0, 83, 94
1, 167416, Note_on_c, 0, 67, 48
1, 167478, Note_on_c, 0, 71, 0
1, 167482, Note_on_c, 0, 67, 0
1, 167506, Note_on_c, 0, 79, 80
1, 167530, Note_on_c, 0, 83, 0
1, 167604, Note_on_c, 0, 76, 54
1, 167628, Note_on_c, 0, 79, 0
1, 167682, Note_on_c, 0, 76, 0
1, 167704, Note_on_c, 0, 74, 76
1, 167716, Note_on_c, 0, 69, 48
1, 167722, Note_on_c, 0, 66, 46
1, 167768, Note_on_c, 0, 69, 0
1, 167778, Note_on_c, 0, 66, 0
1, 167816, Note_on_c, 0, 74, 0
1, 168014, Note_on_c, 0, 79, 66
1, 168024, Note_on_c, 0, 67, 44
1, 168036, Note_on_c, 0, 64, 42
1, 168080, Note_on_c, 0, 79, 0
1, 168088, Note_on_c, 0, 64, 0
1, 168092, Note_on_c, 0, 67, 0
1, 168132, Note_on_c, 0, 76, 43
1, 168204, Note_on_c, 0, 76, 0
1, 168232, Note_on_c, 0, 72, 39
1, 168310, Note_on_c, 0, 72, 0
1, 168348, Note_on_c, 0, 71, 53
1, 168366, Note_on_c, 0, 66, 25
1, 168378, Note_on_c, 0, 62, 30
1, 168578, Note_on_c, 0, 66, 0
1, 168630, Note_on_c, 0, 62, 0
1, 168630, Note_on_c, 0, 71, 0
1, 169314, Note_on_c, 0, 76, 32
1, 169332, Note_on_c, 0, 64, 43
1, 169332, Note_on_c, 0, 60, 37
1, 169410, Note_on_c, 0, 60, 0
1, 169416, Note_on_c, 0, 64, 0
1, 169440, Note_on_c, 0, 72, 28
1, 169488, Note_on_c, 0, 76, 0
1, 169538, Note_on_c, 0, 69, 26
1, 169620, Note_on_c, 0, 72, 0
1, 169678, Note_on_c, 0, 67, 37
1, 169694, Note_on_c, 0, 69, 0
1, 169694, Note_on_c, 0, 62, 22
1, 169697, Note_on_c, 0, 59, 28
1, 169806, Note_on_c, 0, 62, 0
1, 169838, Note_on_c, 0, 59, 0
1, 169914, Note_on_c, 0, 67, 0
1, 170672, Note_on_c, 0, 74, 51
1, 170686, Note_on_c, 0, 59, 37
1, 170690, Note_on_c, 0, 62, 36
1, 170744, Note_on_c, 0, 62, 0
1, 170744, Note_on_c, 0, 59, 0
1, 170754, Note_on_c, 0, 74, 0
1, 170788, Note_on_c, 0, 71, 52
1, 170848, Note_on_c, 0, 71, 0
1, 170864, Note_on_c, 0, 68, 55
1, 170974, Note_on_c, 0, 68, 0
1, 171016, Note_on_c, 0, 69, 67
1, 171040, Note_on_c, 0, 64, 47
1, 171043, Note_on_c, 0, 60, 43
1, 171574, Note_on_c, 0, 71, 83
1, 171586, Note_on_c, 0, 66, 57
1, 171594, Note_on_c, 0, 64, 0
1, 171596, Note_on_c, 0, 62, 38
1, 171620, Note_on_c, 0, 69, 0
1, 171666, Note_on_c, 0, 60, 0
1, 171718, Note_on_c, 0, 72, 90
1, 171722, Note_on_c, 0, 67, 66
1, 171730, Note_on_c, 0, 64, 63
1, 171734, Note_on_c, 0, 66, 0
1, 171756, Note_on_c, 0, 62, 0
1, 171782, Note_on_c, 0, 71, 0
1, 172030, Note_on_c, 0, 64, 0
1, 172070, Note_on_c, 0, 67, 0
1, 172292, Note_on_c, 0, 73, 81
1, 172294, Note_on_c, 0, 70, 64
1, 172320, Note_on_c, 0, 72, 0
1, 172328, Note_on_c, 0, 64, 50
1, 172336, Note_on_c, 0, 67, 37
1, 172392, Note_on_c, 0, 64, 0
1, 172400, Note_on_c, 0, 67, 0
1, 172414, Note_on_c, 0, 70, 0
1, 172438, Note_on_c, 0, 73, 0
1, 172464, Note_on_c, 0, 74, 99
1, 172468, Note_on_c, 0, 71, 83
1, 172472, Note_on_c, 0, 67, 44
1, 172502, Note_on_c, 0, 62, 44
1, 173038, Note_on_c, 0, 74, 0
1, 173038, Note_on_c, 0, 75, 64
1, 173148, Note_on_c, 0, 75, 0
1, 173150, Note_on_c, 0, 76, 63
1, 173240, Note_on_c, 0, 77, 80
1, 173280, Note_on_c, 0, 76, 0
1, 173324, Note_on_c, 0, 78, 78
1, 173344, Note_on_c, 0, 77, 0
1, 173370, Note_on_c, 0, 78, 0
1, 173402, Note_on_c, 0, 79, 89
1, 173464, Note_on_c, 0, 80, 81
1, 173502, Note_on_c, 0, 79, 0
1, 173536, Note_on_c, 0, 81, 81
1, 173590, Note_on_c, 0, 80, 0
1, 173590, Note_on_c, 0, 82, 75
1, 173626, Note_on_c, 0, 82, 0
1, 173646, Note_on_c, 0, 81, 0
1, 173656, Note_on_c, 0, 83, 101
1, 173734, Note_on_c, 0, 84, 83
1, 173766, Note_on_c, 0, 83, 0
1, 173788, Note_on_c, 0, 85, 82
1, 173846, Note_on_c, 0, 84, 0
1, 173880, Note_on_c, 0, 86, 97
1, 173922, Note_on_c, 0, 85, 0
1, 174058, Note_on_c, 0, 86, 0
1, 174122, Note_on_c, 0, 71, 0
1, 174138, Note_on_c, 0, 67, 0
1, 174184, Note_on_c, 0, 62, 0
1, 174542, Note_on_c, 0, 62, 69
1, 174546, Note_on_c, 0, 50, 69
1, 174634, Note_on_c, 0, 62, 0
1, 174640, Note_on_c, 0, 63, 70
1, 174652, Note_on_c, 0, 51, 64
1, 174666, Note_on_c, 0, 50, 0
1, 174688, Note_on_c, 0, 63, 0
1, 174738, Note_on_c, 0, 64, 52
1, 174738, Note_on_c, 0, 52, 65
1, 174760, Note_on_c, 0, 51, 0
1, 174784, Note_on_c, 0, 52, 0
1, 174790, Note_on_c, 0, 53, 93
1, 174796, Note_on_c, 0, 64, 0
1, 174798, Note_on_c, 0, 65, 70
1, 174842, Note_on_c, 0, 53, 0
1, 174862, Note_on_c, 0, 66, 67
1, 174872, Note_on_c, 0, 54, 76
1, 174900, Note_on_c, 0, 65, 0
1, 174908, Note_on_c, 0, 66, 0
1, 174924, Note_on_c, 0, 54, 0
1, 174942, Note_on_c, 0, 67, 72
1, 174966, Note_on_c, 0, 55, 81
1, 174990, Note_on_c, 0, 67, 0
1, 175009, Note_on_c, 0, 55, 0
1, 175016, Note_on_c, 0, 68, 71
1, 175036, Note_on_c, 0, 56, 45
1, 175060, Note_on_c, 0, 68, 0
1, 175094, Note_on_c, 0, 56, 0
1, 175096, Note_on_c, 0, 69, 60
1, 175108, Note_on_c, 0, 57, 70
1, 175168, Note_on_c, 0, 70, 60
1, 175176, Note_on_c, 0, 57, 0
1, 175180, Note_on_c, 0, 58, 55
1, 175194, Note_on_c, 0, 69, 0
1, 175256, Note_on_c, 0, 71, 88
1, 175259, Note_on_c, 0, 59, 69
1, 175286, Note_on_c, 0, 58, 0
1, 175290, Note_on_c, 0, 70, 0
1, 175317, Note_on_c, 0, 59, 0
1, 175338, Note_on_c, 0, 72, 90
1, 175354, Note_on_c, 0, 60, 68
1, 175366, Note_on_c, 0, 71, 0
1, 175532, Note_on_c, 0, 60, 0
1, 175532, Note_on_c, 0, 72, 0
1, 176074, Note_on_c, 0, 66, 53
1, 176080, Note_on_c, 0, 60, 47
1, 176098, Note_on_c, 0, 50, 47
1, 176232, Note_on_c, 0, 60, 0
1, 176240, Note_on_c, 0, 50, 0
1, 176296, Note_on_c, 0, 66, 0
1, 176876, Note_on_c, 0, 69, 50
1, 176900, Note_on_c, 0, 31, 28
1, 176902, Note_on_c, 0, 60, 30
1, 177006, Note_on_c, 0, 31, 0
1, 178164, Note_on_c, 0, 43, 46
1, 178348, Note_on_c, 0, 43, 0
1, 178352, Note_on_c, 0, 45, 50
1, 178426, Note_on_c, 0, 45, 0
1, 178450, Note_on_c, 0, 47, 51
1, 178502, Note_on_c, 0, 47, 0
1, 178510, Note_on_c, 0, 48, 47
1, 178594, Note_on_c, 0, 49, 65
1, 178602, Note_on_c, 0, 48, 0
1, 178742, Note_on_c, 0, 50, 28
1, 178766, Note_on_c, 0, 51, 66
1, 178774, Note_on_c, 0, 49, 0
1, 178816, Note_on_c, 0, 50, 0
1, 178864, Note_on_c, 0, 51, 0
1, 178872, Note_on_c, 0, 52, 49
1, 178932, Note_on_c, 0, 52, 0
1, 178956, Note_on_c, 0, 53, 65
1, 179042, Note_on_c, 0, 53, 0
1, 179060, Note_on_c, 0, 54, 48
1, 179162, Note_on_c, 0, 54, 0
1, 179206, Note_on_c, 0, 55, 36
1, 179504, Note_on_c, 0, 55, 0
1, 179614, Note_on_c, 0, 60, 0
1, 180050, Note_on_c, 0, 67, 20
1, 180064, Note_on_c, 0, 59, 18
1, 180074, Note_on_c, 0, 43, 22
1, 180256, Note_on_c, 0, 69, 0
1, 180956, Note_on_c, 0, 59, 0
1, 180984, Note_on_c, 0, 43, 0
1, 181082, Note_on_c, 0, 67, 0
1, 181950, Note_on_c, 0, 74, 23
1, 181968, Note_on_c, 0, 71, 27
1, 181974, Note_on_c, 0, 67, 15
1, 182106, Note_on_c, 0, 74, 0
1, 182335, Note_on_c, 0, 74, 41
1, 182404, Note_on_c, 0, 74, 0
1, 182676, Note_on_c, 0, 74, 46
1, 182764, Note_on_c, 0, 74, 0
1, 183032, Note_on_c, 0, 71, 0
1, 183032, Note_on_c, 0, 74, 47
1, 183066, Note_on_c, 0, 67, 0
1, 183098, Note_on_c, 0, 74, 0
1, 183164, Note_on_c, 0, 69, 49
1, 183178, Note_on_c, 0, 66, 42
1, 183214, Note_on_c, 0, 69, 0
1, 183346, Note_on_c, 0, 72, 65
1, 183349, Note_on_c, 0, 74, 40
1, 183356, Note_on_c, 0, 69, 41
1, 183434, Note_on_c, 0, 74, 0
1, 183548, Note_on_c, 0, 66, 0
1, 183704, Note_on_c, 0, 74, 52
1, 183822, Note_on_c, 0, 74, 0
1, 184054, Note_on_c, 0, 74, 35
1, 184146, Note_on_c, 0, 74, 0
1, 184406, Note_on_c, 0, 74, 33
1, 184472, Note_on_c, 0, 69, 0
1, 184482, Note_on_c, 0, 74, 0
1, 184726, Note_on_c, 0, 74, 37
1, 184746, Note_on_c, 0, 69, 23
1, 184764, Note_on_c, 0, 62, 22
1, 184788, Note_on_c, 0, 72, 0
1, 184818, Note_on_c, 0, 74, 0
1, 185090, Note_on_c, 0, 74, 35
1, 185188, Note_on_c, 0, 74, 0
1, 185416, Note_on_c, 0, 74, 30
1, 185524, Note_on_c, 0, 74, 0
1, 185762, Note_on_c, 0, 74, 34
1, 185854, Note_on_c, 0, 74, 0
1, 185862, Note_on_c, 0, 69, 0
1, 185888, Note_on_c, 0, 62, 0
1, 186092, Note_on_c, 0, 75, 46
1, 186106, Note_on_c, 0, 69, 21
1, 186116, Note_on_c, 0, 71, 31
1, 186198, Note_on_c, 0, 71, 0
1, 186216, Note_on_c, 0, 69, 0
1, 186446, Note_on_c, 0, 71, 37
1, 186468, Note_on_c, 0, 69, 19
1, 186544, Note_on_c, 0, 71, 0
1, 186554, Note_on_c, 0, 69, 0
1, 186788, Note_on_c, 0, 71, 30
1, 186792, Note_on_c, 0, 69, 20
1, 186884, Note_on_c, 0, 71, 0
1, 186886, Note_on_c, 0, 69, 0
1, 187122, Note_on_c, 0, 71, 31
1, 187134, Note_on_c, 0, 69, 14
1, 187212, Note_on_c, 0, 71, 0
1, 187238, Note_on_c, 0, 69, 0
1, 187238, Note_on_c, 0, 75, 0
1, 187248, Note_on_c, 0, 83, 68
1, 187322, Note_on_c, 0, 75, 48
1, 187366, Note_on_c, 0, 83, 0
1, 187448, Note_on_c, 0, 76, 61
1, 187453, Note_on_c, 0, 67, 27
1, 187462, Note_on_c, 0, 75, 0
1, 187465, Note_on_c, 0, 71, 28
1, 187562, Note_on_c, 0, 71, 0
1, 187616, Note_on_c, 0, 67, 0
1, 187806, Note_on_c, 0, 67, 29
1, 187806, Note_on_c, 0, 71, 41
1, 187878, Note_on_c, 0, 71, 0
1, 187894, Note_on_c, 0, 67, 0
1, 187928, Note_on_c, 0, 76, 0
1, 187948, Note_on_c, 0, 83, 75
1, 188000, Note_on_c, 0, 76, 55
1, 188016, Note_on_c, 0, 83, 0
1, 188092, Note_on_c, 0, 78, 78
1, 188106, Note_on_c, 0, 71, 44
1, 188110, Note_on_c, 0, 63, 42
1, 188136, Note_on_c, 0, 76, 0
1, 188196, Note_on_c, 0, 71, 0
1, 188202, Note_on_c, 0, 63, 0
1, 188432, Note_on_c, 0, 71, 52
1, 188436, Note_on_c, 0, 63, 55
1, 188500, Note_on_c, 0, 71, 0
1, 188508, Note_on_c, 0, 63, 0
1, 188570, Note_on_c, 0, 78, 0
1, 188574, Note_on_c, 0, 83, 98
1, 188666, Note_on_c, 0, 78, 62
1, 188722, Note_on_c, 0, 83, 0
1, 188756, Note_on_c, 0, 79, 92
1, 188758, Note_on_c, 0, 71, 49
1, 188766, Note_on_c, 0, 78, 0
1, 188774, Note_on_c, 0, 64, 42
1, 188872, Note_on_c, 0, 64, 0
1, 188882, Note_on_c, 0, 71, 0
1, 189090, Note_on_c, 0, 71, 57
1, 189102, Note_on_c, 0, 64, 47
1, 189188, Note_on_c, 0, 64, 0
1, 189190, Note_on_c, 0, 71, 0
1, 189220, Note_on_c, 0, 79, 0
1, 189226, Note_on_c, 0, 83, 91
1, 189294, Note_on_c, 0, 79, 81
1, 189352, Note_on_c, 0, 83, 0
1, 189414, Note_on_c, 0, 78, 85
1, 189414, Note_on_c, 0, 69, 37
1, 189432, Note_on_c, 0, 59, 31
1, 189444, Note_on_c, 0, 79, 0
1, 189564, Note_on_c, 0, 59, 0
1, 189564, Note_on_c, 0, 69, 0
1, 189760, Note_on_c, 0, 69, 43
1, 189786, Note_on_c, 0, 59, 39
1, 189886, Note_on_c, 0, 69, 0
1, 189889, Note_on_c, 0, 78, 0
1, 189892, Note_on_c, 0, 59, 0
1, 189904, Note_on_c, 0, 83, 91
1, 189986, Note_on_c, 0, 78, 60
1, 190020, Note_on_c, 0, 83, 0
1, 190040, Note_on_c, 0, 78, 0
1, 190110, Note_on_c, 0, 78, 62
1, 190132, Note_on_c, 0, 67, 42
1, 190138, Note_on_c, 0, 60, 24
1, 190196, Note_on_c, 0, 76, 69
1, 190258, Note_on_c, 0, 78, 0
1, 190326, Note_on_c, 0, 67, 0
1, 190358, Note_on_c, 0, 60, 0
1, 190528, Note_on_c, 0, 67, 43
1, 190546, Note_on_c, 0, 60, 28
1, 190588, Note_on_c, 0, 76, 0
1, 190658, Note_on_c, 0, 67, 0
1, 190664, Note_on_c, 0, 60, 0
1, 190680, Note_on_c, 0, 88, 72
1, 190720, Note_on_c, 0, 88, 0
1, 190784, Note_on_c, 0, 88, 59
1, 190830, Note_on_c, 0, 68, 43
1, 190864, Note_on_c, 0, 76, 69
1, 190868, Note_on_c, 0, 60, 23
1, 190892, Note_on_c, 0, 88, 0
1, 191022, Note_on_c, 0, 60, 0
1, 191036, Note_on_c, 0, 68, 0
1, 191192, Note_on_c, 0, 68, 50
1, 191206, Note_on_c, 0, 60, 35
1, 191238, Note_on_c, 0, 76, 0
1, 191308, Note_on_c, 0, 60, 0
1, 191322, Note_on_c, 0, 68, 0
1, 191336, Note_on_c, 0, 86, 94
1, 191372, Note_on_c, 0, 86, 0
1, 191462, Note_on_c, 0, 86, 56
1, 191496, Note_on_c, 0, 69, 49
1, 191524, Note_on_c, 0, 76, 85
1, 191532, Note_on_c, 0, 60, 29
1, 191596, Note_on_c, 0, 86, 0
1, 191690, Note_on_c, 0, 69, 0
1, 191702, Note_on_c, 0, 60, 0
1, 191850, Note_on_c, 0, 69, 59
1, 191870, Note_on_c, 0, 60, 49
1, 191900, Note_on_c, 0, 76, 0
1, 191982, Note_on_c, 0, 60, 0
1, 191990, Note_on_c, 0, 69, 0
1, 192006, Note_on_c, 0, 84, 99
1, 192048, Note_on_c, 0, 84, 0
1, 192136, Note_on_c, 0, 84, 89
1, 192166, Note_on_c, 0, 71, 81
1, 192186, Note_on_c, 0, 60, 55
1, 192188, Note_on_c, 0, 76, 92
1, 192316, Note_on_c, 0, 84, 0
1, 192348, Note_on_c, 0, 60, 0
1, 192364, Note_on_c, 0, 71, 0
1, 192500, Note_on_c, 0, 71, 91
1, 192504, Note_on_c, 0, 60, 69
1, 192546, Note_on_c, 0, 76, 0
1, 192610, Note_on_c, 0, 83, 110
1, 192624, Note_on_c, 0, 60, 0
1, 192632, Note_on_c, 0, 71, 0
1, 192664, Note_on_c, 0, 83, 0
1, 192750, Note_on_c, 0, 83, 111
1, 192842, Note_on_c, 0, 82, 91
1, 192844, Note_on_c, 0, 72, 72
1, 192858, Note_on_c, 0, 60, 57
1, 192860, Note_on_c, 0, 76, 84
1, 192916, Note_on_c, 0, 83, 0
1, 193042, Note_on_c, 0, 60, 0
1, 193054, Note_on_c, 0, 72, 0
1, 193208, Note_on_c, 0, 76, 0
1, 193216, Note_on_c, 0, 72, 78
1, 193234, Note_on_c, 0, 60, 71
1, 193236, Note_on_c, 0, 82, 0
1, 193332, Note_on_c, 0, 82, 85
1, 193338, Note_on_c, 0, 79, 99
1, 193348, Note_on_c, 0, 72, 0
1, 193360, Note_on_c, 0, 60, 0
1, 193374, Note_on_c, 0, 79, 0
1, 193428, Note_on_c, 0, 82, 0
1, 193464, Note_on_c, 0, 79, 75
1, 193474, Note_on_c, 0, 82, 81
1, 193544, Note_on_c, 0, 78, 95
1, 193568, Note_on_c, 0, 72, 68
1, 193590, Note_on_c, 0, 79, 0
1, 193590, Note_on_c, 0, 60, 49
1, 193744, Note_on_c, 0, 72, 0
1, 193749, Note_on_c, 0, 60, 0
1, 193866, Note_on_c, 0, 78, 0
1, 193910, Note_on_c, 0, 72, 75
1, 193918, Note_on_c, 0, 60, 64
1, 193974, Note_on_c, 0, 72, 0
1, 193990, Note_on_c, 0, 60, 0
1, 194126, Note_on_c, 0, 76, 87
1, 194192, Note_on_c, 0, 76, 0
1, 194204, Note_on_c, 0, 82, 0
1, 194314, Note_on_c, 0, 83, 110
1, 194322, Note_on_c, 0, 76, 86
1, 194330, Note_on_c, 0, 71, 62
1, 194340, Note_on_c, 0, 59, 50
1, 195040, Note_on_c, 0, 75, 67
1, 195084, Note_on_c, 0, 76, 0
1, 195168, Note_on_c, 0, 75, 0
1, 195171, Note_on_c, 0, 78, 54
1, 195688, Note_on_c, 0, 71, 0
1, 195910, Note_on_c, 0, 75, 34
1, 196012, Note_on_c, 0, 75, 0
1, 196046, Note_on_c, 0, 78, 0
1, 196058, Note_on_c, 0, 71, 48
1, 196628, Note_on_c, 0, 59, 0
1, 196668, Note_on_c, 0, 83, 0
1, 196732, Note_on_c, 0, 71, 0
1, 197698, Note_on_c, 0, 60, 57
1, 197698, Note_on_c, 0, 48, 47
1, 197748, Note_on_c, 0, 60, 0
1, 197751, Note_on_c, 0, 48, 0
1, 197806, Note_on_c, 0, 60, 73
1, 197812, Note_on_c, 0, 48, 60
1, 197864, Note_on_c, 0, 59, 79
1, 197880, Note_on_c, 0, 47, 74
1, 197906, Note_on_c, 0, 48, 0
1, 197922, Note_on_c, 0, 60, 0
1, 198134, Note_on_c, 0, 47, 0
1, 198180, Note_on_c, 0, 59, 0
1, 198412, Note_on_c, 0, 45, 80
1, 198417, Note_on_c, 0, 57, 79
1, 198460, Note_on_c, 0, 57, 0
1, 198460, Note_on_c, 0, 45, 0
1, 198508, Note_on_c, 0, 57, 82
1, 198511, Note_on_c, 0, 45, 80
1, 198556, Note_on_c, 0, 55, 95
1, 198574, Note_on_c, 0, 43, 92
1, 198622, Note_on_c, 0, 45, 0
1, 198647, Note_on_c, 0, 57, 0
1, 198934, Note_on_c, 0, 43, 0
1, 198972, Note_on_c, 0, 55, 0
1, 199226, Note_on_c, 0, 54, 97
1, 199238, Note_on_c, 0, 42, 81
1, 199288, Note_on_c, 0, 42, 0
1, 199312, Note_on_c, 0, 54, 0
1, 199376, Note_on_c, 0, 52, 113
1, 199394, Note_on_c, 0, 40, 112
1, 200642, Note_on_c, 0, 39, 81
1, 200648, Note_on_c, 0, 51, 89
1, 200672, Note_on_c, 0, 40, 0
1, 200708, Note_on_c, 0, 52, 0
1, 200760, Note_on_c, 0, 54, 99
1, 200770, Note_on_c, 0, 42, 93
1, 200824, Note_on_c, 0, 39, 0
1, 200850, Note_on_c, 0, 51, 0
1, 201324, Note_on_c, 0, 52, 92
1, 201334, Note_on_c, 0, 40, 98
1, 201354, Note_on_c, 0, 54, 0
1, 201354, Note_on_c, 0, 42, 0
1, 201424, Note_on_c, 0, 55, 101
1, 201427, Note_on_c, 0, 43, 98
1, 201470, Note_on_c, 0, 52, 0
1, 201486, Note_on_c, 0, 40, 0
1, 201940, Note_on_c, 0, 42, 79
1, 201943, Note_on_c, 0, 54, 88
1, 202022, Note_on_c, 0, 43, 0
1, 202042, Note_on_c, 0, 55, 0
1, 202045, Note_on_c, 0, 45, 89
1, 202049, Note_on_c, 0, 57, 94
1, 202114, Note_on_c, 0, 54, 0
1, 202126, Note_on_c, 0, 42, 0
1, 202588, Note_on_c, 0, 55, 99
1, 202592, Note_on_c, 0, 43, 92
1, 202628, Note_on_c, 0, 57, 0
1, 202640, Note_on_c, 0, 45, 0
1, 202702, Note_on_c, 0, 59, 97
1, 202704, Note_on_c, 0, 47, 98
1, 202766, Note_on_c, 0, 43, 0
1, 202778, Note_on_c, 0, 55, 0
1, 203226, Note_on_c, 0, 57, 95
1, 203238, Note_on_c, 0, 45, 91
1, 203310, Note_on_c, 0, 47, 0
1, 203320, Note_on_c, 0, 59, 0
1, 203386, Note_on_c, 0, 60, 104
1, 203394, Note_on_c, 0, 48, 97
1, 203460, Note_on_c, 0, 45, 0
1, 203474, Note_on_c, 0, 57, 0
1, 204620, Note_on_c, 0, 51, 79
1, 204628, Note_on_c, 0, 39, 78
1, 204904, Note_on_c, 0, 48, 0
1, 204912, Note_on_c, 0, 60, 0
1, 205536, Note_on_c, 0, 39, 0
1, 205600, Note_on_c, 0, 51, 0
1, 205882, Note_on_c, 0, 59, 98
1, 205882, Note_on_c, 0, 47, 95
1, 206376, Note_on_c, 0, 50, 96
1, 206382, Note_on_c, 0, 38, 93
1, 206392, Note_on_c, 0, 59, 0
1, 206412, Note_on_c, 0, 47, 0
1, 206518, Note_on_c, 0, 58, 86
1, 206530, Note_on_c, 0, 46, 90
1, 206580, Note_on_c, 0, 38, 0
1, 206612, Note_on_c, 0, 50, 0
1, 207084, Note_on_c, 0, 37, 82
1, 207084, Note_on_c, 0, 49, 88
1, 207174, Note_on_c, 0, 46, 0
1, 207186, Note_on_c, 0, 58, 0
1, 207252, Note_on_c, 0, 57, 81
1, 207257, Note_on_c, 0, 45, 84
1, 207324, Note_on_c, 0, 49, 0
1, 207340, Note_on_c, 0, 37, 0
1, 208504, Note_on_c, 0, 36, 70
1, 208510, Note_on_c, 0, 48, 65
1, 208684, Note_on_c, 0, 45, 0
1, 208812, Note_on_c, 0, 57, 0
1, 209430, Note_on_c, 0, 36, 0
1, 209530, Note_on_c, 0, 48, 0
1, 209750, Note_on_c, 0, 57, 82
1, 209766, Note_on_c, 0, 45, 83
1, 210296, Note_on_c, 0, 35, 98
1, 210300, Note_on_c, 0, 45, 0
1, 210302, Note_on_c, 0, 47, 84
1, 210342, Note_on_c, 0, 57, 0
1, 210444, Note_on_c, 0, 57, 63
1, 210447, Note_on_c, 0, 45, 87
1, 210460, Note_on_c, 0, 35, 0
1, 210494, Note_on_c, 0, 47, 0
1, 211054, Note_on_c, 0, 45, 0
1, 211066, Note_on_c, 0, 47, 91
1, 211072, Note_on_c, 0, 35, 94
1, 211136, Note_on_c, 0, 57, 0
1, 211278, Note_on_c, 0, 35, 0
1, 211288, Note_on_c, 0, 57, 81
1, 211292, Note_on_c, 0, 45, 75
1, 211328, Note_on_c, 0, 47, 0
1, 211496, Note_on_c, 0, 47, 87
1, 211499, Note_on_c, 0, 35, 86
1, 211654, Note_on_c, 0, 45, 0
1, 211657, Note_on_c, 0, 39, 74
1, 211662, Note_on_c, 0, 51, 84
1, 211688, Note_on_c, 0, 47, 0
1, 211704, Note_on_c, 0, 57, 0
1, 211714, Note_on_c, 0, 35, 0
1, 211816, Note_on_c, 0, 42, 68
1, 211824, Note_on_c, 0, 54, 85
1, 211858, Note_on_c, 0, 51, 0
1, 211910, Note_on_c, 0, 39, 0
1, 211980, Note_on_c, 0, 54, 0
1, 211988, Note_on_c, 0, 57, 84
1, 211988, Note_on_c, 0, 45, 73
1, 212040, Note_on_c, 0, 42, 0
1, 212146, Note_on_c, 0, 60, 87
1, 212152, Note_on_c, 0, 48, 67
1, 212155, Note_on_c, 0, 45, 0
1, 212246, Note_on_c, 0, 57, 0
1, 212312, Note_on_c, 0, 63, 84
1, 212320, Note_on_c, 0, 51, 76
1, 212358, Note_on_c, 0, 60, 0
1, 212362, Note_on_c, 0, 48, 0
1, 212470, Note_on_c, 0, 54, 77
1, 212473, Note_on_c, 0, 66, 69
1, 212517, Note_on_c, 0, 63, 0
1, 212544, Note_on_c, 0, 51, 0
1, 212650, Note_on_c, 0, 57, 63
1, 212652, Note_on_c, 0, 69, 69
1, 212654, Note_on_c, 0, 66, 0
1, 212682, Note_on_c, 0, 54, 0
1, 212826, Note_on_c, 0, 72, 66
1, 212830, Note_on_c, 0, 57, 0
1, 212842, Note_on_c, 0, 60, 66
1, 212892, Note_on_c, 0, 69, 0
1, 213014, Note_on_c, 0, 75, 68
1, 213032, Note_on_c, 0, 63, 58
1, 213056, Note_on_c, 0, 60, 0
1, 213076, Note_on_c, 0, 72, 0
1, 213216, Note_on_c, 0, 66, 39
1, 213219, Note_on_c, 0, 78, 65
1, 213234, Note_on_c, 0, 63, 0
1, 213262, Note_on_c, 0, 75, 0
1, 213424, Note_on_c, 0, 78, 0
1, 213432, Note_on_c, 0, 66, 0
1, 213448, Note_on_c, 0, 69, 22
1, 213458, Note_on_c, 0, 81, 51
1, 213598, Note_on_c, 0, 69, 0
1, 213632, Note_on_c, 0, 81, 0
1, 213792, Note_on_c, 0, 84, 42
1, 213818, Note_on_c, 0, 72, 24
1, 214022, Note_on_c, 0, 72, 0
1, 214044, Note_on_c, 0, 84, 0
1, 214242, Note_on_c, 0, 87, 27
1, 214254, Note_on_c, 0, 75, 17
1, 214946, Note_on_c, 0, 75, 0
1, 214948, Note_on_c, 0, 87, 0
1, 217596, Note_on_c, 0, 56, 19
1, 217599, Note_on_c, 0, 64, 40
1, 217604, Note_on_c, 0, 52, 27
1, 218954, Note_on_c, 0, 63, 32
1, 218974, Note_on_c, 0, 54, 26
1, 219000, Note_on_c, 0, 64, 0
1, 219026, Note_on_c, 0, 56, 0
1, 219164, Note_on_c, 0, 66, 28
1, 219192, Note_on_c, 0, 57, 25
1, 219220, Note_on_c, 0, 63, 0
1, 219226, Note_on_c, 0, 54, 0
1, 220698, Note_on_c, 0, 59, 23
1, 220914, Note_on_c, 0, 66, 0
1, 221330, Note_on_c, 0, 57, 0
1, 221364, Note_on_c, 0, 52, 0
1, 221636, Note_on_c, 0, 59, 0
1, 221654, Note_on_c, 0, 52, 27
1, 221734, Note_on_c, 0, 56, 28
1, 221870, Note_on_c, 0, 59, 55
1, 221982, Note_on_c, 0, 64, 45
1, 222088, Note_on_c, 0, 68, 50
1, 222112, Note_on_c, 0, 59, 0
1, 222216, Note_on_c, 0, 71, 83
1, 222260, Note_on_c, 0, 64, 0
1, 222364, Note_on_c, 0, 68, 0
1, 222756, Note_on_c, 0, 52, 0
1, 223106, Note_on_c, 0, 56, 0
1, 223380, Note_on_c, 0, 69, 55
1, 223550, Note_on_c, 0, 71, 0
1, 223600, Note_on_c, 0, 73, 52
1, 223618, Note_on_c, 0, 57, 25
1, 223638, Note_on_c, 0, 52, 27
1, 223846, Note_on_c, 0, 69, 0
1, 225036, Note_on_c, 0, 66, 33
1, 225058, Note_on_c, 0, 63, 24
1, 225196, Note_on_c, 0, 73, 0
1, 225706, Note_on_c, 0, 52, 0
1, 225774, Note_on_c, 0, 57, 0
1, 226076, Note_on_c, 0, 63, 0
1, 226114, Note_on_c, 0, 66, 0
1, 226122, Note_on_c, 0, 52, 52
1, 226190, Note_on_c, 0, 56, 40
1, 226276, Note_on_c, 0, 59, 45
1, 226342, Note_on_c, 0, 64, 55
1, 226398, Note_on_c, 0, 68, 68
1, 226484, Note_on_c, 0, 71, 76
1, 226548, Note_on_c, 0, 76, 90
1, 227190, Note_on_c, 0, 52, 0
1, 227193, Note_on_c, 0, 59, 0
1, 227202, Note_on_c, 0, 56, 0
1, 227444, Note_on_c, 0, 71, 0
1, 227458, Note_on_c, 0, 64, 0
1, 227498, Note_on_c, 0, 68, 0
1, 227640, Note_on_c, 0, 75, 91
1, 227648, Note_on_c, 0, 57, 67
1, 227651, Note_on_c, 0, 54, 74
1, 227672, Note_on_c, 0, 76, 0
1, 227700, Note_on_c, 0, 54, 0
1, 227710, Note_on_c, 0, 57, 0
1, 227736, Note_on_c, 0, 51, 78
1, 227774, Note_on_c, 0, 75, 0
1, 227808, Note_on_c, 0, 54, 74
1, 227822, Note_on_c, 0, 71, 89
1, 227854, Note_on_c, 0, 59, 65
1, 227868, Note_on_c, 0, 75, 50
1, 227898, Note_on_c, 0, 78, 75
1, 227914, Note_on_c, 0, 81, 103
1, 228306, Note_on_c, 0, 59, 0
1, 228344, Note_on_c, 0, 54, 0
1, 228356, Note_on_c, 0, 51, 0
1, 228833, Note_on_c, 0, 75, 0
1, 228892, Note_on_c, 0, 71, 0
1, 228928, Note_on_c, 0, 59, 54
1, 228930, Note_on_c, 0, 78, 0
1, 228934, Note_on_c, 0, 81, 0
1, 228942, Note_on_c, 0, 52, 69
1, 228960, Note_on_c, 0, 80, 90
1, 228970, Note_on_c, 0, 76, 72
1, 228978, Note_on_c, 0, 59, 0
1, 228988, Note_on_c, 0, 52, 0
1, 229036, Note_on_c, 0, 45, 58
1, 229086, Note_on_c, 0, 49, 45
1, 229140, Note_on_c, 0, 73, 66
1, 229148, Note_on_c, 0, 76, 0
1, 229148, Note_on_c, 0, 52, 65
1, 229178, Note_on_c, 0, 57, 61
1, 229242, Note_on_c, 0, 85, 98
1, 229270, Note_on_c, 0, 81, 91
1, 229310, Note_on_c, 0, 80, 0
1, 229498, Note_on_c, 0, 73, 0
1, 229634, Note_on_c, 0, 81, 0
1, 229636, Note_on_c, 0, 85, 0
1, 229794, Note_on_c, 0, 80, 80
1, 229802, Note_on_c, 0, 83, 88
1, 229832, Note_on_c, 0, 80, 0
1, 229850, Note_on_c, 0, 83, 0
1, 229904, Note_on_c, 0, 83, 108
1, 229910, Note_on_c, 0, 80, 52
1, 229964, Note_on_c, 0, 57, 0
1, 229964, Note_on_c, 0, 52, 0
1, 229964, Note_on_c, 0, 49, 0
1, 229990, Note_on_c, 0, 45, 0
1, 230006, Note_on_c, 0, 78, 78
1, 230014, Note_on_c, 0, 81, 92
1, 230076, Note_on_c, 0, 80, 0
1, 230086, Note_on_c, 0, 83, 0
1, 230336, Note_on_c, 0, 81, 0
1, 230352, Note_on_c, 0, 78, 0
1, 230490, Note_on_c, 0, 80, 77
1, 230504, Note_on_c, 0, 76, 55
1, 230552, Note_on_c, 0, 76, 0
1, 230555, Note_on_c, 0, 80, 0
1, 230734, Note_on_c, 0, 81, 81
1, 230752, Note_on_c, 0, 76, 59
1, 230764, Note_on_c, 0, 47, 30
1, 230820, Note_on_c, 0, 80, 69
1, 230860, Note_on_c, 0, 81, 0
1, 230902, Note_on_c, 0, 78, 81
1, 230928, Note_on_c, 0, 80, 0
1, 231022, Note_on_c, 0, 80, 68
1, 231066, Note_on_c, 0, 78, 0
1, 231389, Note_on_c, 0, 81, 61
1, 231429, Note_on_c, 0, 80, 0
1, 231750, Note_on_c, 0, 82, 60
1, 231752, Note_on_c, 0, 81, 0
1, 232494, Note_on_c, 0, 83, 54
1, 232532, Note_on_c, 0, 82, 0
1, 232716, Note_on_c, 0, 78, 35
1, 232718, Note_on_c, 0, 75, 30
1, 232758, Note_on_c, 0, 59, 23
1, 232761, Note_on_c, 0, 83, 0
1, 232788, Note_on_c, 0, 76, 0
1, 232984, Note_on_c, 0, 47, 0
1, 233528, Note_on_c, 0, 75, 0
1, 233531, Note_on_c, 0, 78, 0
1, 233916, Note_on_c, 0, 76, 44
1, 233919, Note_on_c, 0, 73, 36
1, 233998, Note_on_c, 0, 76, 0
1, 234000, Note_on_c, 0, 73, 0
1, 234192, Note_on_c, 0, 73, 40
1, 234204, Note_on_c, 0, 76, 40
1, 234264, Note_on_c, 0, 75, 52
1, 234267, Note_on_c, 0, 76, 0
1, 234267, Note_on_c, 0, 71, 35
1, 234310, Note_on_c, 0, 73, 0
1, 234334, Note_on_c, 0, 75, 0
1, 234356, Note_on_c, 0, 71, 0
1, 234490, Note_on_c, 0, 69, 46
1, 234490, Note_on_c, 0, 73, 51
1, 234538, Note_on_c, 0, 73, 0
1, 234559, Note_on_c, 0, 69, 0
1, 234676, Note_on_c, 0, 71, 74
1, 234679, Note_on_c, 0, 68, 55
1, 234726, Note_on_c, 0, 71, 0
1, 234736, Note_on_c, 0, 68, 0
1, 234818, Note_on_c, 0, 59, 0
1, 234860, Note_on_c, 0, 71, 49
1, 234878, Note_on_c, 0, 66, 53
1, 234896, Note_on_c, 0, 69, 54
1, 234920, Note_on_c, 0, 71, 0
1, 234976, Note_on_c, 0, 66, 0
1, 235030, Note_on_c, 0, 69, 0
1, 235106, Note_on_c, 0, 68, 47
1, 235112, Note_on_c, 0, 64, 52
1, 235158, Note_on_c, 0, 68, 0
1, 235168, Note_on_c, 0, 64, 0
1, 235342, Note_on_c, 0, 66, 32
1, 235354, Note_on_c, 0, 63, 26
1, 235424, Note_on_c, 0, 63, 0
1, 235428, Note_on_c, 0, 66, 0
1, 235684, Note_on_c, 0, 64, 35
1, 235702, Note_on_c, 0, 56, 18
1, 235724, Note_on_c, 0, 52, 22
1, 236468, Note_on_c, 0, 63, 34
1, 236490, Note_on_c, 0, 54, 29
1, 236508, Note_on_c, 0, 64, 0
1, 236510, Note_on_c, 0, 56, 0
1, 236656, Note_on_c, 0, 54, 0
1, 236704, Note_on_c, 0, 64, 40
1, 236716, Note_on_c, 0, 55, 34
1, 236748, Note_on_c, 0, 63, 0
1, 236844, Note_on_c, 0, 52, 0
1, 236848, Note_on_c, 0, 55, 0
1, 236892, Note_on_c, 0, 65, 55
1, 236904, Note_on_c, 0, 56, 31
1, 236924, Note_on_c, 0, 64, 0
1, 237128, Note_on_c, 0, 66, 42
1, 237150, Note_on_c, 0, 57, 31
1, 237162, Note_on_c, 0, 52, 36
1, 237172, Note_on_c, 0, 56, 0
1, 237248, Note_on_c, 0, 65, 0
1, 238466, Note_on_c, 0, 59, 28
1, 238506, Note_on_c, 0, 66, 0
1, 238718, Note_on_c, 0, 63, 37
1, 238766, Note_on_c, 0, 59, 0
1, 238914, Note_on_c, 0, 66, 38
1, 238958, Note_on_c, 0, 63, 0
1, 239082, Note_on_c, 0, 68, 50
1, 239142, Note_on_c, 0, 66, 0
1, 239262, Note_on_c, 0, 69, 44
1, 239276, Note_on_c, 0, 68, 0
1, 239430, Note_on_c, 0, 52, 0
1, 239446, Note_on_c, 0, 63, 64
1, 239452, Note_on_c, 0, 69, 0
1, 239710, Note_on_c, 0, 56, 31
1, 239713, Note_on_c, 0, 71, 63
1, 239736, Note_on_c, 0, 57, 0
1, 239740, Note_on_c, 0, 52, 36
1, 239746, Note_on_c, 0, 63, 0
1, 240428, Note_on_c, 0, 69, 37
1, 240432, Note_on_c, 0, 56, 0
1, 240446, Note_on_c, 0, 54, 38
1, 240490, Note_on_c, 0, 71, 0
1, 240584, Note_on_c, 0, 54, 0
1, 240636, Note_on_c, 0, 70, 55
1, 240648, Note_on_c, 0, 55, 42
1, 240684, Note_on_c, 0, 69, 0
1, 240728, Note_on_c, 0, 52, 0
1, 240816, Note_on_c, 0, 71, 78
1, 240820, Note_on_c, 0, 55, 0
1, 240822, Note_on_c, 0, 56, 53
1, 240938, Note_on_c, 0, 70, 0
1, 241050, Note_on_c, 0, 51, 56
1, 241053, Note_on_c, 0, 57, 44
1, 241058, Note_on_c, 0, 72, 72
1, 241110, Note_on_c, 0, 56, 0
1, 241200, Note_on_c, 0, 71, 0
1, 242124, Note_on_c, 0, 57, 0
1, 242138, Note_on_c, 0, 66, 64
1, 242200, Note_on_c, 0, 66, 0
1, 242262, Note_on_c, 0, 66, 75
1, 242314, Note_on_c, 0, 57, 57
1, 242318, Note_on_c, 0, 54, 59
1, 242324, Note_on_c, 0, 49, 41
1, 242368, Note_on_c, 0, 73, 78
1, 242420, Note_on_c, 0, 72, 0
1, 242506, Note_on_c, 0, 51, 0
1, 242610, Note_on_c, 0, 66, 0
1, 243184, Note_on_c, 0, 73, 0
1, 243340, Note_on_c, 0, 54, 0
1, 243412, Note_on_c, 0, 49, 0
1, 243432, Note_on_c, 0, 57, 0
1, 243466, Note_on_c, 0, 66, 75
1, 243608, Note_on_c, 0, 66, 0
1, 243686, Note_on_c, 0, 75, 95
1, 243686, Note_on_c, 0, 66, 67
1, 243698, Note_on_c, 0, 60, 76
1, 243698, Note_on_c, 0, 68, 65
1, 243708, Note_on_c, 0, 56, 59
1, 243711, Note_on_c, 0, 48, 53
1, 243711, Note_on_c, 0, 51, 59
1, 244528, Note_on_c, 0, 68, 0
1, 244654, Note_on_c, 0, 48, 0
1, 244744, Note_on_c, 0, 56, 0
1, 244760, Note_on_c, 0, 51, 0
1, 244796, Note_on_c, 0, 66, 0
1, 244808, Note_on_c, 0, 68, 84
1, 244870, Note_on_c, 0, 60, 0
1, 244904, Note_on_c, 0, 75, 0
1, 244914, Note_on_c, 0, 49, 73
1, 245002, Note_on_c, 0, 52, 88
1, 245024, Note_on_c, 0, 68, 0
1, 245094, Note_on_c, 0, 56, 76
1, 245172, Note_on_c, 0, 61, 88
1, 245270, Note_on_c, 0, 64, 88
1, 245350, Note_on_c, 0, 68, 84
1, 245380, Note_on_c, 0, 64, 0
1, 245438, Note_on_c, 0, 73, 72
1, 245462, Note_on_c, 0, 68, 0
1, 245494, Note_on_c, 0, 73, 0
1, 245534, Note_on_c, 0, 76, 87
1, 245612, Note_on_c, 0, 80, 92
1, 245680, Note_on_c, 0, 56, 0
1, 245698, Note_on_c, 0, 52, 0
1, 245704, Note_on_c, 0, 76, 0
1, 245712, Note_on_c, 0, 85, 87
1, 245744, Note_on_c, 0, 61, 0
1, 245756, Note_on_c, 0, 80, 0
1, 245760, Note_on_c, 0, 49, 0
1, 245818, Note_on_c, 0, 88, 93
1, 245848, Note_on_c, 0, 85, 0
1, 245920, Note_on_c, 0, 85, 67
1, 245962, Note_on_c, 0, 88, 0
1, 246048, Note_on_c, 0, 80, 79
1, 246082, Note_on_c, 0, 85, 0
1, 246144, Note_on_c, 0, 80, 0
1, 246158, Note_on_c, 0, 76, 52
1, 246274, Note_on_c, 0, 73, 59
1, 246306, Note_on_c, 0, 76, 0
1, 246406, Note_on_c, 0, 54, 38
1, 246414, Note_on_c, 0, 63, 38
1, 246424, Note_on_c, 0, 71, 62
1, 246454, Note_on_c, 0, 73, 0
1, 246762, Note_on_c, 0, 71, 0
1, 246764, Note_on_c, 0, 63, 0
1, 246784, Note_on_c, 0, 54, 0
1, 247112, Note_on_c, 0, 70, 46
1, 247124, Note_on_c, 0, 64, 27
1, 247124, Note_on_c, 0, 61, 38
1, 247132, Note_on_c, 0, 54, 34
1, 247338, Note_on_c, 0, 61, 0
1, 247386, Note_on_c, 0, 54, 0
1, 247392, Note_on_c, 0, 64, 0
1, 247438, Note_on_c, 0, 70, 0
1, 247956, Note_on_c, 0, 73, 60
1, 247966, Note_on_c, 0, 64, 55
1, 247968, Note_on_c, 0, 70, 42
1, 247974, Note_on_c, 0, 47, 53
1, 249262, Note_on_c, 0, 64, 0
1, 249334, Note_on_c, 0, 66, 30
1, 249688, Note_on_c, 0, 63, 32
1, 249704, Note_on_c, 0, 66, 0
1, 249707, Note_on_c, 0, 71, 41
1, 249814, Note_on_c, 0, 70, 0
1, 249852, Note_on_c, 0, 73, 0
1, 250084, Note_on_c, 0, 51, 36
1, 250166, Note_on_c, 0, 47, 0
1, 250210, Note_on_c, 0, 71, 0
1, 250282, Note_on_c, 0, 63, 0
1, 250296, Note_on_c, 0, 54, 43
1, 250376, Note_on_c, 0, 51, 0
1, 250428, Note_on_c, 0, 54, 0
1, 250512, Note_on_c, 0, 59, 36
1, 250666, Note_on_c, 0, 54, 47
1, 250682, Note_on_c, 0, 59, 0
1, 250778, Note_on_c, 0, 54, 0
1, 250802, Note_on_c, 0, 51, 35
1, 250928, Note_on_c, 0, 47, 47
1, 250940, Note_on_c, 0, 51, 0
1, 251012, Note_on_c, 0, 47, 0
1, 251040, Note_on_c, 0, 42, 38
1, 251164, Note_on_c, 0, 39, 41
1, 251208, Note_on_c, 0, 42, 0
1, 251340, Note_on_c, 0, 39, 0
1, 251346, Note_on_c, 0, 35, 33
1, 251976, Note_on_c, 0, 35, 0
1, 253416, Note_on_c, 0, 72, 37
1, 253434, Note_on_c, 0, 66, 11
1, 253448, Note_on_c, 0, 57, 14
1, 253451, Note_on_c, 0, 63, 23
1, 254538, Note_on_c, 0, 72, 0
1, 254634, Note_on_c, 0, 71, 41
1, 254690, Note_on_c, 0, 71, 0
1, 254768, Note_on_c, 0, 71, 55
1, 254916, Note_on_c, 0, 78, 57
1, 254922, Note_on_c, 0, 71, 0
1, 255930, Note_on_c, 0, 71, 43
1, 255935, Note_on_c, 0, 57, 0
1, 255948, Note_on_c, 0, 66, 0
1, 255954, Note_on_c, 0, 63, 0
1, 255992, Note_on_c, 0, 71, 0
1, 255996, Note_on_c, 0, 78, 0
1, 256068, Note_on_c, 0, 71, 56
1, 256106, Note_on_c, 0, 64, 33
1, 256138, Note_on_c, 0, 59, 16
1, 256154, Note_on_c, 0, 55, 26
1, 256292, Note_on_c, 0, 79, 66
1, 256340, Note_on_c, 0, 71, 0
1, 257342, Note_on_c, 0, 55, 0
1, 257354, Note_on_c, 0, 64, 0
1, 257378, Note_on_c, 0, 59, 0
1, 257440, Note_on_c, 0, 79, 0
1, 257444, Note_on_c, 0, 71, 73
1, 257624, Note_on_c, 0, 71, 0
1, 257730, Note_on_c, 0, 81, 101
1, 257736, Note_on_c, 0, 65, 63
1, 257738, Note_on_c, 0, 71, 84
1, 257740, Note_on_c, 0, 74, 81
1, 257740, Note_on_c, 0, 77, 78
1, 257758, Note_on_c, 0, 62, 49
1, 257762, Note_on_c, 0, 55, 42
1, 257764, Note_on_c, 0, 59, 48
1, 258496, Note_on_c, 0, 62, 0
1, 258562, Note_on_c, 0, 59, 0
1, 258567, Note_on_c, 0, 65, 0
1, 258586, Note_on_c, 0, 55, 0
1, 258624, Note_on_c, 0, 77, 0
1, 258646, Note_on_c, 0, 74, 0
1, 258766, Note_on_c, 0, 81, 0
1, 258878, Note_on_c, 0, 71, 0
1, 258918, Note_on_c, 0, 59, 61
1, 258924, Note_on_c, 0, 55, 44
1, 258984, Note_on_c, 0, 59, 0
1, 259046, Note_on_c, 0, 55, 0
1, 259094, Note_on_c, 0, 77, 94
1, 259100, Note_on_c, 0, 67, 79
1, 259106, Note_on_c, 0, 71, 81
1, 259108, Note_on_c, 0, 62, 84
1, 259110, Note_on_c, 0, 74, 78
1, 259116, Note_on_c, 0, 59, 66
1, 259914, Note_on_c, 0, 59, 0
1, 259940, Note_on_c, 0, 62, 0
1, 260138, Note_on_c, 0, 71, 0
1, 260158, Note_on_c, 0, 74, 0
1, 260164, Note_on_c, 0, 67, 0
1, 260192, Note_on_c, 0, 59, 70
1, 260194, Note_on_c, 0, 55, 69
1, 260264, Note_on_c, 0, 59, 0
1, 260269, Note_on_c, 0, 55, 0
1, 260378, Note_on_c, 0, 76, 73
1, 260386, Note_on_c, 0, 72, 53
1, 260388, Note_on_c, 0, 67, 49
1, 260414, Note_on_c, 0, 64, 40
1, 260414, Note_on_c, 0, 60, 44
1, 260586, Note_on_c, 0, 77, 0
1, 261214, Note_on_c, 0, 67, 0
1, 261252, Note_on_c, 0, 72, 0
1, 261464, Note_on_c, 0, 64, 0
1, 261472, Note_on_c, 0, 60, 0
1, 261492, Note_on_c, 0, 74, 83
1, 261506, Note_on_c, 0, 65, 45
1, 261512, Note_on_c, 0, 62, 33
1, 261586, Note_on_c, 0, 76, 0
1, 261608, Note_on_c, 0, 65, 0
1, 261612, Note_on_c, 0, 74, 0
1, 261666, Note_on_c, 0, 62, 0
1, 261672, Note_on_c, 0, 74, 93
1, 261686, Note_on_c, 0, 67, 53
1, 261694, Note_on_c, 0, 64, 47
1, 262708, Note_on_c, 0, 74, 0
1, 262712, Note_on_c, 0, 72, 70
1, 262828, Note_on_c, 0, 84, 87
1, 262836, Note_on_c, 0, 72, 0
1, 262934, Note_on_c, 0, 65, 32
1, 262939, Note_on_c, 0, 62, 30
1, 262970, Note_on_c, 0, 72, 71
1, 262980, Note_on_c, 0, 67, 0
1, 263052, Note_on_c, 0, 64, 0
1, 263206, Note_on_c, 0, 84, 0
1, 263838, Note_on_c, 0, 71, 63
1, 263841, Note_on_c, 0, 72, 0
1, 263952, Note_on_c, 0, 83, 98
1, 263970, Note_on_c, 0, 71, 0
1, 264100, Note_on_c, 0, 64, 38
1, 264108, Note_on_c, 0, 71, 80
1, 264110, Note_on_c, 0, 60, 21
1, 264126, Note_on_c, 0, 65, 0
1, 264148, Note_on_c, 0, 62, 0
1, 264362, Note_on_c, 0, 83, 0
1, 265164, Note_on_c, 0, 71, 0
1, 265166, Note_on_c, 0, 70, 36
1, 265190, Note_on_c, 0, 64, 0
1, 265336, Note_on_c, 0, 70, 0
1, 265338, Note_on_c, 0, 82, 44
1, 265520, Note_on_c, 0, 70, 52
1, 265542, Note_on_c, 0, 64, 36
1, 265552, Note_on_c, 0, 59, 25
1, 265604, Note_on_c, 0, 60, 0
1, 265618, Note_on_c, 0, 82, 0
1, 267014, Note_on_c, 0, 63, 17
1, 267106, Note_on_c, 0, 64, 0
1, 267698, Note_on_c, 0, 71, 25
1, 267766, Note_on_c, 0, 70, 0
1, 268378, Note_on_c, 0, 69, 15
1, 268476, Note_on_c, 0, 71, 0
1, 269054, Note_on_c, 0, 66, 16
1, 269086, Note_on_c, 0, 69, 0
1, 269238, Note_on_c, 0, 63, 0
1, 269276, Note_on_c, 0, 59, 0
1, 269372, Note_on_c, 0, 66, 0
1, 269854, Note_on_c, 0, 64, 29
1, 269874, Note_on_c, 0, 56, 13
1, 269900, Note_on_c, 0, 52, 28
1, 271190, Note_on_c, 0, 54, 19
1, 271195, Note_on_c, 0, 63, 26
1, 271208, Note_on_c, 0, 64, 0
1, 271244, Note_on_c, 0, 56, 0
1, 271414, Note_on_c, 0, 66, 28
1, 271428, Note_on_c, 0, 57, 22
1, 271440, Note_on_c, 0, 54, 0
1, 271440, Note_on_c, 0, 63, 0
1, 272242, Note_on_c, 0, 66, 0
1, 272744, Note_on_c, 0, 59, 35
1, 272812, Note_on_c, 0, 59, 0
1, 272914, Note_on_c, 0, 61, 52
1, 272972, Note_on_c, 0, 61, 0
1, 273072, Note_on_c, 0, 63, 64
1, 273128, Note_on_c, 0, 63, 0
1, 273240, Note_on_c, 0, 64, 56
1, 273304, Note_on_c, 0, 64, 0
1, 273402, Note_on_c, 0, 66, 41
1, 273484, Note_on_c, 0, 66, 0
1, 273570, Note_on_c, 0, 68, 48
1, 273624, Note_on_c, 0, 68, 0
1, 273736, Note_on_c, 0, 69, 35
1, 273810, Note_on_c, 0, 69, 0
1, 273900, Note_on_c, 0, 70, 37
1, 273964, Note_on_c, 0, 70, 0
1, 274016, Note_on_c, 0, 57, 0
1, 274114, Note_on_c, 0, 56, 32
1, 274116, Note_on_c, 0, 64, 60
1, 274120, Note_on_c, 0, 71, 34
1, 274134, Note_on_c, 0, 52, 0
1, 274200, Note_on_c, 0, 71, 0
1, 274464, Note_on_c, 0, 71, 57
1, 274552, Note_on_c, 0, 71, 0
1, 274782, Note_on_c, 0, 71, 59
1, 274860, Note_on_c, 0, 71, 0
1, 275126, Note_on_c, 0, 71, 34
1, 275226, Note_on_c, 0, 71, 0
1, 275244, Note_on_c, 0, 63, 56
1, 275252, Note_on_c, 0, 64, 0
1, 275267, Note_on_c, 0, 56, 0
1, 275270, Note_on_c, 0, 54, 54
1, 275472, Note_on_c, 0, 71, 52
1, 275490, Note_on_c, 0, 66, 43
1, 275522, Note_on_c, 0, 57, 46
1, 275562, Note_on_c, 0, 71, 0
1, 275584, Note_on_c, 0, 63, 0
1, 275618, Note_on_c, 0, 54, 0
1, 275752, Note_on_c, 0, 71, 62
1, 275830, Note_on_c, 0, 71, 0
1, 275938, Note_on_c, 0, 71, 62
1, 276018, Note_on_c, 0, 71, 0
1, 276108, Note_on_c, 0, 71, 65
1, 276194, Note_on_c, 0, 71, 0
1, 276266, Note_on_c, 0, 71, 79
1, 276364, Note_on_c, 0, 71, 0
1, 276422, Note_on_c, 0, 71, 89
1, 276498, Note_on_c, 0, 71, 0
1, 276556, Note_on_c, 0, 71, 95
1, 276580, Note_on_c, 0, 57, 0
1, 276594, Note_on_c, 0, 66, 0
1, 276652, Note_on_c, 0, 71, 0
1, 276730, Note_on_c, 0, 66, 48
1, 276734, Note_on_c, 0, 71, 80
1, 276748, Note_on_c, 0, 57, 37
1, 276750, Note_on_c, 0, 63, 42
1, 276756, Note_on_c, 0, 59, 35
1, 276940, Note_on_c, 0, 71, 0
1, 276952, Note_on_c, 0, 73, 72
1, 277078, Note_on_c, 0, 71, 90
1, 277130, Note_on_c, 0, 73, 0
1, 277170, Note_on_c, 0, 70, 80
1, 277202, Note_on_c, 0, 71, 0
1, 277272, Note_on_c, 0, 70, 0
1, 277278, Note_on_c, 0, 71, 83
1, 277378, Note_on_c, 0, 73, 81
1, 277408, Note_on_c, 0, 71, 0
1, 277472, Note_on_c, 0, 75, 83
1, 277522, Note_on_c, 0, 73, 0
1, 277566, Note_on_c, 0, 76, 83
1, 277586, Note_on_c, 0, 75, 0
1, 277642, Note_on_c, 0, 78, 85
1, 277688, Note_on_c, 0, 76, 0
1, 277712, Note_on_c, 0, 80, 83
1, 277746, Note_on_c, 0, 80, 0
1, 277756, Note_on_c, 0, 78, 0
1, 277774, Note_on_c, 0, 59, 0
1, 277786, Note_on_c, 0, 81, 94
1, 277789, Note_on_c, 0, 63, 0
1, 277808, Note_on_c, 0, 57, 0
1, 277836, Note_on_c, 0, 66, 0
1, 277854, Note_on_c, 0, 83, 107
1, 277886, Note_on_c, 0, 81, 0
1, 277912, Note_on_c, 0, 85, 83
1, 277988, Note_on_c, 0, 87, 88
1, 278004, Note_on_c, 0, 83, 0
1, 278068, Note_on_c, 0, 85, 0
1, 278094, Note_on_c, 0, 87, 0
1, 278104, Note_on_c, 0, 76, 107
1, 278106, Note_on_c, 0, 88, 107
1, 278112, Note_on_c, 0, 64, 92
1, 278114, Note_on_c, 0, 56, 67
1, 278124, Note_on_c, 0, 59, 73
1, 278130, Note_on_c, 0, 85, 59
1, 278172, Note_on_c, 0, 85, 0
1, 279096, Note_on_c, 0, 76, 0
1, 279108, Note_on_c, 0, 88, 0
1, 279166, Note_on_c, 0, 59, 0
1, 279180, Note_on_c, 0, 56, 0
1, 279226, Note_on_c, 0, 64, 0
1, 279232, Note_on_c, 0, 87, 95
1, 279236, Note_on_c, 0, 75, 93
1, 279370, Note_on_c, 0, 75, 0
1, 279378, Note_on_c, 0, 87, 0
1, 279412, Note_on_c, 0, 86, 106
1, 279415, Note_on_c, 0, 74, 104
1, 279426, Note_on_c, 0, 65, 80
1, 279436, Note_on_c, 0, 56, 59
1, 279444, Note_on_c, 0, 59, 52
1, 280578, Note_on_c, 0, 65, 0
1, 280596, Note_on_c, 0, 74, 0
1, 280670, Note_on_c, 0, 59, 0
1, 280698, Note_on_c, 0, 73, 90
1, 280704, Note_on_c, 0, 85, 92
1, 280716, Note_on_c, 0, 66, 79
1, 280722, Note_on_c, 0, 61, 57
1, 280734, Note_on_c, 0, 57, 50
1, 280766, Note_on_c, 0, 56, 0
1, 280860, Note_on_c, 0, 86, 0
1, 281662, Note_on_c, 0, 85, 0
1, 281714, Note_on_c, 0, 73, 0
1, 281728, Note_on_c, 0, 61, 0
1, 281744, Note_on_c, 0, 59, 75
1, 281750, Note_on_c, 0, 66, 0
1, 281754, Note_on_c, 0, 57, 0
1, 281824, Note_on_c, 0, 64, 74
1, 281884, Note_on_c, 0, 68, 84
1, 281981, Note_on_c, 0, 71, 95
1, 282052, Note_on_c, 0, 76, 82
1, 282132, Note_on_c, 0, 80, 90
1, 282244, Note_on_c, 0, 76, 0
1, 282274, Note_on_c, 0, 83, 121
1, 282286, Note_on_c, 0, 59, 0
1, 282350, Note_on_c, 0, 64, 0
1, 282366, Note_on_c, 0, 71, 0
1, 282489, Note_on_c, 0, 80, 0
1, 282492, Note_on_c, 0, 68, 0
1, 283148, Note_on_c, 0, 83, 0
1, 283238, Note_on_c, 0, 82, 92
1, 283448, Note_on_c, 0, 88, 103
1, 283456, Note_on_c, 0, 61, 70
1, 283456, Note_on_c, 0, 79, 88
1, 283459, Note_on_c, 0, 67, 70
1, 283470, Note_on_c, 0, 64, 69
1, 283530, Note_on_c, 0, 82, 0
1, 283826, Note_on_c, 0, 85, 93
1, 283954, Note_on_c, 0, 79, 0
1, 283964, Note_on_c, 0, 88, 0
1, 284016, Note_on_c, 0, 82, 85
1, 284064, Note_on_c, 0, 64, 0
1, 284116, Note_on_c, 0, 85, 0
1, 284122, Note_on_c, 0, 67, 0
1, 284168, Note_on_c, 0, 79, 90
1, 284171, Note_on_c, 0, 61, 0
1, 284218, Note_on_c, 0, 82, 0
1, 284308, Note_on_c, 0, 76, 78
1, 284314, Note_on_c, 0, 79, 0
1, 284444, Note_on_c, 0, 73, 76
1, 284488, Note_on_c, 0, 76, 0
1, 284562, Note_on_c, 0, 70, 67
1, 284620, Note_on_c, 0, 73, 0
1, 284682, Note_on_c, 0, 67, 71
1, 284710, Note_on_c, 0, 70, 0
1, 284754, Note_on_c, 0, 67, 0
1, 284774, Note_on_c, 0, 64, 69
1, 284868, Note_on_c, 0, 61, 85
1, 284888, Note_on_c, 0, 64, 0
1, 284982, Note_on_c, 0, 58, 70
1, 285042, Note_on_c, 0, 61, 0
1, 285094, Note_on_c, 0, 55, 85
1, 285136, Note_on_c, 0, 58, 0
1, 285198, Note_on_c, 0, 52, 94
1, 285256, Note_on_c, 0, 55, 0
1, 285310, Note_on_c, 0, 49, 78
1, 285386, Note_on_c, 0, 52, 0
1, 285450, Note_on_c, 0, 46, 70
1, 285474, Note_on_c, 0, 49, 0
1, 285836, Note_on_c, 0, 46, 0
1, 287036, Note_on_c, 0, 81, 57
1, 287038, Note_on_c, 0, 78, 37
1, 287058, Note_on_c, 0, 71, 34
1, 287060, Note_on_c, 0, 63, 28
1, 287868, Note_on_c, 0, 63, 0
1, 287978, Note_on_c, 0, 78, 0
1, 288042, Note_on_c, 0, 81, 0
1, 288100, Note_on_c, 0, 71, 0
1, 288180, Note_on_c, 0, 80, 67
1, 288212, Note_on_c, 0, 76, 31
1, 288244, Note_on_c, 0, 64, 19
1, 288270, Note_on_c, 0, 76, 0
1, 288328, Note_on_c, 0, 64, 0
1, 288412, Note_on_c, 0, 85, 52
1, 288446, Note_on_c, 0, 69, 17
1, 288448, Note_on_c, 0, 76, 22
1, 288464, Note_on_c, 0, 57, 18
1, 288496, Note_on_c, 0, 80, 0
1, 288806, Note_on_c, 0, 69, 0
1, 288842, Note_on_c, 0, 76, 0
1, 288876, Note_on_c, 0, 85, 0
1, 288904, Note_on_c, 0, 57, 0
1, 289756, Note_on_c, 0, 75, 24
1, 289760, Note_on_c, 0, 69, 15
1, 289774, Note_on_c, 0, 66, 13
1, 289816, Note_on_c, 0, 59, 15
1, 290178, Note_on_c, 0, 59, 0
1, 290196, Note_on_c, 0, 66, 0
1, 290198, Note_on_c, 0, 69, 0
1, 290250, Note_on_c, 0, 75, 0
1, 291248, Note_on_c, 0, 75, 45
1, 291251, Note_on_c, 0, 69, 27
1, 291274, Note_on_c, 0, 64, 16
1, 291277, Note_on_c, 0, 52, 25
1, 292554, Note_on_c, 0, 69, 0
1, 292704, Note_on_c, 0, 71, 25
1, 293024, Note_on_c, 0, 71, 0
1, 293038, Note_on_c, 0, 68, 12
1, 293060, Note_on_c, 0, 76, 27
1, 293144, Note_on_c, 0, 75, 0
1, 293360, Note_on_c, 0, 76, 0
1, 293430, Note_on_c, 0, 68, 0
1, 293972, Note_on_c, 0, 40, 33
1, 294206, Note_on_c, 0, 40, 0
1, 294688, Note_on_c, 0, 40, 41
1, 294906, Note_on_c, 0, 40, 0
1, 295380, Note_on_c, 0, 40, 36
1, 295422, Note_on_c, 0, 52, 0
1, 295484, Note_on_c, 0, 64, 0
1, 295572, Note_on_c, 0, 40, 0
1, 296052, Note_on_c, 0, 56, 29
1, 296058, Note_on_c, 0, 62, 52
1, 296064, Note_on_c, 0, 40, 41
1, 296086, Note_on_c, 0, 59, 40
1, 296510, Note_on_c, 0, 40, 0
1, 296920, Note_on_c, 0, 40, 44
1, 297118, Note_on_c, 0, 40, 0
1, 297270, Note_on_c, 0, 64, 61
1, 297290, Note_on_c, 0, 62, 0
1, 297410, Note_on_c, 0, 59, 0
1, 297614, Note_on_c, 0, 61, 57
1, 297634, Note_on_c, 0, 40, 44
1, 297652, Note_on_c, 0, 57, 39
1, 297714, Note_on_c, 0, 56, 0
1, 297766, Note_on_c, 0, 64, 0
1, 298048, Note_on_c, 0, 40, 0
1, 298326, Note_on_c, 0, 40, 51
1, 298728, Note_on_c, 0, 40, 0
1, 299022, Note_on_c, 0, 40, 63
1, 299444, Note_on_c, 0, 40, 0
1, 299814, Note_on_c, 0, 40, 65
1, 300070, Note_on_c, 0, 40, 0
1, 300124, Note_on_c, 0, 57, 0
1, 300162, Note_on_c, 0, 61, 0
1, 300830, Note_on_c, 0, 63, 79
1, 300840, Note_on_c, 0, 54, 64
1, 300840, Note_on_c, 0, 40, 73
1, 300846, Note_on_c, 0, 59, 69
1, 300852, Note_on_c, 0, 57, 57
1, 302324, Note_on_c, 0, 40, 0
1, 303654, Note_on_c, 0, 81, 63
1, 304608, Note_on_c, 0, 83, 77
1, 304634, Note_on_c, 0, 81, 0
1, 304794, Note_on_c, 0, 81, 71
1, 304830, Note_on_c, 0, 83, 0
1, 304940, Note_on_c, 0, 80, 76
1, 304972, Note_on_c, 0, 81, 0
1, 305126, Note_on_c, 0, 81, 75
1, 305154, Note_on_c, 0, 80, 0
1, 305572, Note_on_c, 0, 85, 51
1, 305646, Note_on_c, 0, 81, 0
1, 306126, Note_on_c, 0, 83, 68
1, 306164, Note_on_c, 0, 85, 0
1, 306180, Note_on_c, 0, 59, 0
1, 306204, Note_on_c, 0, 57, 0
1, 306356, Note_on_c, 0, 63, 0
1, 306362, Note_on_c, 0, 54, 0
1, 306908, Note_on_c, 0, 81, 42
1, 306930, Note_on_c, 0, 64, 20
1, 306942, Note_on_c, 0, 59, 22
1, 306954, Note_on_c, 0, 52, 16
1, 307244, Note_on_c, 0, 83, 0
1, 309234, Note_on_c, 0, 81, 0
1, 309266, Note_on_c, 0, 80, 19
1, 310106, Note_on_c, 0, 64, 0
1, 310118, Note_on_c, 0, 80, 0
1, 310166, Note_on_c, 0, 59, 0
1, 310198, Note_on_c, 0, 52, 0
1, 311178, Note_on_c, 0, 52, 17
1, 311180, Note_on_c, 0, 40, 20
1, 311180, Note_on_c, 0, 56, 7
1, 311180, Note_on_c, 0, 59, 17
1, 311182, Note_on_c, 0, 64, 15
1, 311722, Note_on_c, 0, 40, 0
1, 312082, Note_on_c, 0, 52, 0
1, 312104, Note_on_c, 0, 59, 0
1, 312142, Note_on_c, 0, 64, 0
1, 312154, Note_on_c, 0, 56, 0
1, 313130, Note_on_c, 0, 40, 19
1, 313142, Note_on_c, 0, 64, 13
1, 313146, Note_on_c, 0, 59, 15
1, 313150, Note_on_c, 0, 52, 25
1, 313152, Note_on_c, 0, 56, 4
1, 313308, Note_on_c, 0, 52, 0
1, 313338, Note_on_c, 0, 64, 0
1, 313338, Note_on_c, 0, 56, 0
1, 313348, Note_on_c, 0, 40, 0
1, 313354, Note_on_c, 0, 59, 0
1, 313918, Note_on_c, 0, 40, 10
1, 313918, Note_on_c, 0, 59, 11
1, 313921, Note_on_c, 0, 64, 12
1, 313924, Note_on_c, 0, 56, 7
1, 313924, Note_on_c, 0, 52, 13
1, 318814, Note_on_c, 0, 40, 0
1, 318898, Note_on_c, 0, 64, 0
1, 319022, Note_on_c, 0, 59, 0
1, 319032, Note_on_c, 0, 56, 0
1, 319046, Note_on_c, 0, 52, 0
1, 319056, End_track
0, 0, End_of_file