0, 0, Header, 0, 1, 96
1, 0, Start_track
1, 0, Tempo, 120000
1, 144, Note_on_c, 0, 70, 80
1, 144, Note_on_c, 0, 62, 80
1, 189, Note_on_c, 0, 70, 0
1, 189, Note_on_c, 0, 62, 0
1, 192, Note_on_c, 0, 70, 80
1, 192, Note_on_c, 0, 62, 80
1, 192, Note_on_c, 1, 58, 80
1, 192, Note_on_c, 1, 46, 80
1, 240, Note_on_c, 0, 62, 0
1, 240, Note_on_c, 0, 74, 80
1, 285, Note_on_c, 0, 74, 0
1, 285, Note_on_c, 0, 70, 0
1, 288, Note_on_c, 0, 74, 80
1, 288, Note_on_c, 0, 70, 80
1, 336, Note_on_c, 0, 70, 0
1, 336, Note_on_c, 0, 77, 80
1, 369, Note_on_c, 1, 58, 0
1, 369, Note_on_c, 1, 46, 0
1, 381, Note_on_c, 0, 77, 0
1, 381, Note_on_c, 0, 74, 0
1, 384, Note_on_c, 0, 77, 80
1, 384, Note_on_c, 0, 74, 64
1, 432, Note_on_c, 1, 58, 80
1, 477, Note_on_c, 1, 58, 0
1, 480, Note_on_c, 1, 46, 80
1, 517, Note_on_c, 0, 77, 0
1, 517, Note_on_c, 0, 74, 0
1, 528, Note_on_c, 0, 75, 80
1, 528, Note_on_c, 0, 72, 64
1, 543, Note_on_c, 0, 75, 0
1, 544, Note_on_c, 0, 77, 80
1, 559, Note_on_c, 0, 77, 0
1, 560, Note_on_c, 0, 79, 80
1, 569, Note_on_c, 1, 46, 0
1, 573, Note_on_c, 0, 72, 0
1, 575, Note_on_c, 0, 79, 0
1, 576, Note_on_c, 0, 77, 80
1, 576, Note_on_c, 0, 74, 64
1, 624, Note_on_c, 1, 58, 80
1, 669, Note_on_c, 1, 58, 0
1, 672, Note_on_c, 1, 46, 80
1, 709, Note_on_c, 0, 77, 0
1, 709, Note_on_c, 0, 74, 0
1, 720, Note_on_c, 0, 75, 80
1, 720, Note_on_c, 0, 72, 64
1, 735, Note_on_c, 0, 75, 0
1, 736, Note_on_c, 0, 77, 80
1, 751, Note_on_c, 0, 77, 0
1, 752, Note_on_c, 0, 79, 80
1, 761, Note_on_c, 1, 46, 0
1, 765, Note_on_c, 0, 72, 0
1, 767, Note_on_c, 0, 79, 0
1, 768, Note_on_c, 0, 77, 80
1, 768, Note_on_c, 0, 74, 64
1, 813, Note_on_c, 0, 77, 0
1, 816, Note_on_c, 0, 82, 80
1, 816, Note_on_c, 1, 58, 80
1, 857, Note_on_c, 0, 74, 0
1, 861, Note_on_c, 0, 82, 0
1, 861, Note_on_c, 1, 58, 0
1, 864, Note_on_c, 1, 46, 80
1, 909, Note_on_c, 1, 46, 0
1, 912, Note_on_c, 0, 70, 75
1, 912, Note_on_c, 1, 62, 70
1, 912, Note_on_c, 1, 58, 70
1, 927, Note_on_c, 0, 70, 0
1, 928, Note_on_c, 0, 72, 75
1, 943, Note_on_c, 0, 72, 0
1, 944, Note_on_c, 0, 70, 75
1, 957, Note_on_c, 1, 62, 0
1, 957, Note_on_c, 1, 58, 0
1, 959, Note_on_c, 0, 70, 0
1, 960, Note_on_c, 0, 67, 75
1, 960, Note_on_c, 1, 63, 70
1, 960, Note_on_c, 1, 58, 70
1, 1005, Note_on_c, 0, 67, 0
1, 1008, Note_on_c, 0, 70, 75
1, 1023, Note_on_c, 0, 70, 0
1, 1024, Note_on_c, 0, 72, 75
1, 1039, Note_on_c, 0, 72, 0
1, 1040, Note_on_c, 0, 70, 75
1, 1049, Note_on_c, 1, 63, 0
1, 1049, Note_on_c, 1, 58, 0
1, 1055, Note_on_c, 0, 70, 0
1, 1056, Note_on_c, 0, 65, 75
1, 1056, Note_on_c, 1, 62, 70
1, 1056, Note_on_c, 1, 58, 70
1, 1101, Note_on_c, 0, 65, 0
1, 1104, Note_on_c, 0, 77, 75
1, 1119, Note_on_c, 0, 77, 0
1, 1120, Note_on_c, 0, 74, 75
1, 1135, Note_on_c, 0, 74, 0
1, 1136, Note_on_c, 0, 70, 75
1, 1145, Note_on_c, 1, 62, 0
1, 1145, Note_on_c, 1, 58, 0
1, 1151, Note_on_c, 0, 70, 0
1, 1152, Note_on_c, 0, 65, 75
1, 1200, Note_on_c, 1, 58, 70
1, 1215, Note_on_c, 1, 58, 0
1, 1216, Note_on_c, 1, 60, 70
1, 1231, Note_on_c, 1, 60, 0
1, 1232, Note_on_c, 1, 62, 70
1, 1241, Note_on_c, 0, 65, 0
1, 1247, Note_on_c, 1, 62, 0
1, 1248, Note_on_c, 0, 63, 75
1, 1248, Note_on_c, 1, 60, 70
1, 1261, Note_on_c, 0, 63, 0
1, 1262, Note_on_c, 0, 65, 75
1, 1275, Note_on_c, 0, 65, 0
1, 1276, Note_on_c, 0, 63, 75
1, 1289, Note_on_c, 0, 63, 0
1, 1290, Note_on_c, 0, 65, 75
1, 1293, Note_on_c, 1, 60, 0
1, 1296, Note_on_c, 1, 53, 70
1, 1303, Note_on_c, 0, 65, 0
1, 1304, Note_on_c, 0, 63, 75
1, 1317, Note_on_c, 0, 63, 0
1, 1318, Note_on_c, 0, 62, 75
1, 1330, Note_on_c, 0, 62, 0
1, 1331, Note_on_c, 0, 63, 75
1, 1341, Note_on_c, 1, 53, 0
1, 1343, Note_on_c, 0, 63, 0
1, 1344, Note_on_c, 0, 62, 75
1, 1344, Note_on_c, 1, 58, 70
1, 1389, Note_on_c, 0, 62, 0
1, 1389, Note_on_c, 1, 58, 0
1, 1392, Note_on_c, 0, 63, 75
1, 1392, Note_on_c, 1, 60, 70
1, 1407, Note_on_c, 0, 63, 0
1, 1408, Note_on_c, 0, 65, 75
1, 1423, Note_on_c, 0, 65, 0
1, 1424, Note_on_c, 0, 67, 75
1, 1437, Note_on_c, 1, 60, 0
1, 1439, Note_on_c, 0, 67, 0
1, 1440, Note_on_c, 0, 65, 75
1, 1440, Note_on_c, 1, 62, 70
1, 1460, Note_on_c, 0, 65, 0
1, 1485, Note_on_c, 1, 62, 0
1, 1488, Note_on_c, 0, 70, 75
1, 1488, Note_on_c, 1, 62, 70
1, 1488, Note_on_c, 1, 58, 70
1, 1503, Note_on_c, 0, 70, 0
1, 1504, Note_on_c, 0, 72, 75
1, 1519, Note_on_c, 0, 72, 0
1, 1520, Note_on_c, 0, 70, 75
1, 1533, Note_on_c, 1, 62, 0
1, 1533, Note_on_c, 1, 58, 0
1, 1535, Note_on_c, 0, 70, 0
1, 1536, Note_on_c, 0, 67, 75
1, 1536, Note_on_c, 1, 63, 70
1, 1536, Note_on_c, 1, 58, 70
1, 1581, Note_on_c, 0, 67, 0
1, 1584, Note_on_c, 0, 70, 75
1, 1599, Note_on_c, 0, 70, 0
1, 1600, Note_on_c, 0, 72, 75
1, 1615, Note_on_c, 0, 72, 0
1, 1616, Note_on_c, 0, 70, 75
1, 1625, Note_on_c, 1, 63, 0
1, 1625, Note_on_c, 1, 58, 0
1, 1631, Note_on_c, 0, 70, 0
1, 1632, Note_on_c, 0, 65, 75
1, 1632, Note_on_c, 1, 62, 70
1, 1632, Note_on_c, 1, 58, 70
1, 1677, Note_on_c, 0, 65, 0
1, 1680, Note_on_c, 0, 77, 75
1, 1695, Note_on_c, 0, 77, 0
1, 1696, Note_on_c, 0, 74, 75
1, 1711, Note_on_c, 0, 74, 0
1, 1712, Note_on_c, 0, 70, 75
1, 1721, Note_on_c, 1, 62, 0
1, 1721, Note_on_c, 1, 58, 0
1, 1727, Note_on_c, 0, 70, 0
1, 1728, Note_on_c, 0, 65, 75
1, 1776, Note_on_c, 1, 58, 70
1, 1791, Note_on_c, 1, 58, 0
1, 1792, Note_on_c, 1, 60, 70
1, 1807, Note_on_c, 1, 60, 0
1, 1808, Note_on_c, 1, 62, 70
1, 1817, Note_on_c, 0, 65, 0
1, 1823, Note_on_c, 1, 62, 0
1, 1824, Note_on_c, 0, 63, 75
1, 1824, Note_on_c, 1, 60, 70
1, 1837, Note_on_c, 0, 63, 0
1, 1838, Note_on_c, 0, 65, 75
1, 1851, Note_on_c, 0, 65, 0
1, 1852, Note_on_c, 0, 63, 75
1, 1865, Note_on_c, 0, 63, 0
1, 1866, Note_on_c, 0, 65, 75
1, 1869, Note_on_c, 1, 60, 0
1, 1872, Note_on_c, 1, 53, 70
1, 1879, Note_on_c, 0, 65, 0
1, 1880, Note_on_c, 0, 63, 75
1, 1893, Note_on_c, 0, 63, 0
1, 1894, Note_on_c, 0, 62, 75
1, 1906, Note_on_c, 0, 62, 0
1, 1907, Note_on_c, 0, 63, 75
1, 1917, Note_on_c, 1, 53, 0
1, 1919, Note_on_c, 0, 63, 0
1, 1920, Note_on_c, 0, 62, 75
1, 1920, Note_on_c, 1, 58, 70
1, 1965, Note_on_c, 1, 58, 0
1, 1968, Note_on_c, 1, 50, 70
1, 1983, Note_on_c, 1, 50, 0
1, 1984, Note_on_c, 1, 51, 70
1, 1999, Note_on_c, 1, 51, 0
1, 2000, Note_on_c, 1, 53, 70
1, 2009, Note_on_c, 0, 62, 0
1, 2015, Note_on_c, 1, 53, 0
1, 2016, Note_on_c, 1, 46, 70
1, 2105, Note_on_c, 1, 46, 0
1, 2112, Note_on_c, 0, 65, 75
1, 2124, Note_on_c, 0, 65, 0
1, 2124, Note_on_c, 0, 67, 75
1, 2136, Note_on_c, 0, 67, 0
1, 2136, Note_on_c, 0, 68, 75
1, 2160, Note_on_c, 1, 62, 64
1, 2160, Note_on_c, 1, 58, 64
1, 2207, Note_on_c, 1, 62, 0
1, 2207, Note_on_c, 1, 58, 0
1, 2208, Note_on_c, 1, 62, 64
1, 2208, Note_on_c, 1, 58, 64
1, 2255, Note_on_c, 1, 62, 0
1, 2255, Note_on_c, 1, 58, 0
1, 2256, Note_on_c, 1, 62, 64
1, 2256, Note_on_c, 1, 58, 64
1, 2289, Note_on_c, 0, 68, 0
1, 2303, Note_on_c, 1, 62, 0
1, 2303, Note_on_c, 1, 58, 0
1, 2304, Note_on_c, 0, 67, 75
1, 2316, Note_on_c, 0, 67, 0
1, 2316, Note_on_c, 0, 69, 75
1, 2328, Note_on_c, 0, 69, 0
1, 2328, Note_on_c, 0, 70, 75
1, 2352, Note_on_c, 1, 63, 75
1, 2352, Note_on_c, 1, 51, 75
1, 2395, Note_on_c, 0, 70, 0
1, 2397, Note_on_c, 1, 63, 0
1, 2397, Note_on_c, 1, 51, 0
1, 2400, Note_on_c, 0, 69, 75
1, 2412, Note_on_c, 0, 69, 0
1, 2412, Note_on_c, 0, 70, 75
1, 2424, Note_on_c, 0, 70, 0
1, 2424, Note_on_c, 0, 72, 75
1, 2448, Note_on_c, 1, 53, 75
1, 2448, Note_on_c, 1, 41, 75
1, 2491, Note_on_c, 0, 72, 0
1, 2493, Note_on_c, 1, 53, 0
1, 2493, Note_on_c, 1, 41, 0
1, 2496, Note_on_c, 0, 70, 75
1, 2508, Note_on_c, 0, 70, 0
1, 2508, Note_on_c, 0, 72, 75
1, 2520, Note_on_c, 0, 72, 0
1, 2520, Note_on_c, 0, 74, 75
1, 2544, Note_on_c, 1, 55, 75
1, 2544, Note_on_c, 1, 43, 75
1, 2587, Note_on_c, 0, 74, 0
1, 2589, Note_on_c, 1, 55, 0
1, 2589, Note_on_c, 1, 43, 0
1, 2592, Note_on_c, 0, 72, 75
1, 2604, Note_on_c, 0, 72, 0
1, 2604, Note_on_c, 0, 74, 75
1, 2616, Note_on_c, 0, 74, 0
1, 2616, Note_on_c, 0, 75, 75
1, 2640, Note_on_c, 1, 57, 75
1, 2640, Note_on_c, 1, 45, 75
1, 2683, Note_on_c, 0, 75, 0
1, 2685, Note_on_c, 1, 57, 0
1, 2685, Note_on_c, 1, 45, 0
1, 2688, Note_on_c, 0, 74, 75
1, 2688, Note_on_c, 1, 58, 75
1, 2688, Note_on_c, 1, 46, 75
1, 2711, Note_on_c, 0, 74, 0
1, 2712, Note_on_c, 0, 77, 75
1, 2735, Note_on_c, 0, 77, 0
1, 2736, Note_on_c, 0, 75, 75
1, 2742, Note_on_c, 0, 75, 0
1, 2742, Note_on_c, 0, 77, 75
1, 2748, Note_on_c, 0, 77, 0
1, 2748, Note_on_c, 0, 75, 75
1, 2759, Note_on_c, 0, 75, 0
1, 2760, Note_on_c, 0, 74, 75
1, 2777, Note_on_c, 1, 58, 0
1, 2777, Note_on_c, 1, 46, 0
1, 2783, Note_on_c, 0, 74, 0
1, 2784, Note_on_c, 0, 82, 75
1, 2829, Note_on_c, 0, 82, 0
1, 2832, Note_on_c, 0, 74, 75
1, 2832, Note_on_c, 0, 70, 75
1, 2832, Note_on_c, 1, 64, 75
1, 2877, Note_on_c, 0, 74, 0
1, 2877, Note_on_c, 0, 70, 0
1, 2877, Note_on_c, 1, 64, 0
1, 2880, Note_on_c, 0, 75, 75
1, 2880, Note_on_c, 1, 65, 75
1, 2886, Note_on_c, 0, 75, 0
1, 2886, Note_on_c, 0, 74, 75
1, 2886, Note_on_c, 0, 70, 75
1, 2925, Note_on_c, 0, 74, 0
1, 2925, Note_on_c, 0, 70, 0
1, 2925, Note_on_c, 1, 65, 0
1, 2928, Note_on_c, 0, 72, 75
1, 2928, Note_on_c, 0, 69, 75
1, 2928, Note_on_c, 1, 53, 75
1, 2973, Note_on_c, 0, 72, 0
1, 2973, Note_on_c, 0, 69, 0
1, 2973, Note_on_c, 1, 53, 0
1, 3072, Note_on_c, 0, 65, 75
1, 3084, Note_on_c, 0, 65, 0
1, 3084, Note_on_c, 0, 67, 75
1, 3096, Note_on_c, 0, 67, 0
1, 3096, Note_on_c, 0, 68, 75
1, 3120, Note_on_c, 1, 62, 64
1, 3120, Note_on_c, 1, 58, 64
1, 3167, Note_on_c, 1, 62, 0
1, 3167, Note_on_c, 1, 58, 0
1, 3168, Note_on_c, 1, 62, 64
1, 3168, Note_on_c, 1, 58, 64
1, 3215, Note_on_c, 1, 62, 0
1, 3215, Note_on_c, 1, 58, 0
1, 3216, Note_on_c, 1, 62, 64
1, 3216, Note_on_c, 1, 58, 64
1, 3249, Note_on_c, 0, 68, 0
1, 3263, Note_on_c, 1, 62, 0
1, 3263, Note_on_c, 1, 58, 0
1, 3264, Note_on_c, 0, 68, 75
1, 3264, Note_on_c, 1, 63, 64
1, 3288, Note_on_c, 0, 68, 0
1, 3288, Note_on_c, 0, 67, 75
1, 3309, Note_on_c, 1, 63, 0
1, 3311, Note_on_c, 0, 67, 0
1, 3312, Note_on_c, 0, 67, 75
1, 3312, Note_on_c, 1, 51, 64
1, 3336, Note_on_c, 0, 67, 0
1, 3336, Note_on_c, 0, 70, 75
1, 3357, Note_on_c, 1, 51, 0
1, 3359, Note_on_c, 0, 70, 0
1, 3360, Note_on_c, 0, 70, 75
1, 3360, Note_on_c, 1, 53, 65
1, 3384, Note_on_c, 0, 70, 0
1, 3384, Note_on_c, 0, 69, 75
1, 3405, Note_on_c, 1, 53, 0
1, 3407, Note_on_c, 0, 69, 0
1, 3408, Note_on_c, 0, 69, 75
1, 3408, Note_on_c, 1, 41, 66
1, 3432, Note_on_c, 0, 69, 0
1, 3432, Note_on_c, 0, 72, 75
1, 3453, Note_on_c, 1, 41, 0
1, 3455, Note_on_c, 0, 72, 0
1, 3456, Note_on_c, 0, 72, 76
1, 3456, Note_on_c, 1, 43, 67
1, 3480, Note_on_c, 0, 72, 0
1, 3480, Note_on_c, 0, 70, 76
1, 3501, Note_on_c, 1, 43, 0
1, 3503, Note_on_c, 0, 70, 0
1, 3504, Note_on_c, 0, 70, 76
1, 3504, Note_on_c, 1, 55, 68
1, 3528, Note_on_c, 0, 70, 0
1, 3528, Note_on_c, 0, 74, 76
1, 3549, Note_on_c, 1, 55, 0
1, 3551, Note_on_c, 0, 74, 0
1, 3552, Note_on_c, 0, 74, 76
1, 3552, Note_on_c, 1, 57, 69
1, 3576, Note_on_c, 0, 74, 0
1, 3576, Note_on_c, 0, 72, 76
1, 3597, Note_on_c, 1, 57, 0
1, 3599, Note_on_c, 0, 72, 0
1, 3600, Note_on_c, 0, 72, 76
1, 3600, Note_on_c, 1, 45, 69
1, 3624, Note_on_c, 0, 72, 0
1, 3624, Note_on_c, 0, 75, 77
1, 3645, Note_on_c, 1, 45, 0
1, 3647, Note_on_c, 0, 75, 0
1, 3648, Note_on_c, 0, 75, 77
1, 3648, Note_on_c, 1, 46, 70
1, 3672, Note_on_c, 0, 75, 0
1, 3672, Note_on_c, 0, 74, 77
1, 3693, Note_on_c, 1, 46, 0
1, 3695, Note_on_c, 0, 74, 0
1, 3696, Note_on_c, 0, 74, 77
1, 3696, Note_on_c, 1, 58, 71
1, 3720, Note_on_c, 0, 74, 0
1, 3720, Note_on_c, 0, 77, 77
1, 3741, Note_on_c, 1, 58, 0
1, 3743, Note_on_c, 0, 77, 0
1, 3744, Note_on_c, 0, 77, 77
1, 3744, Note_on_c, 1, 60, 72
1, 3768, Note_on_c, 0, 77, 0
1, 3768, Note_on_c, 0, 75, 77
1, 3789, Note_on_c, 1, 60, 0
1, 3791, Note_on_c, 0, 75, 0
1, 3792, Note_on_c, 0, 75, 78
1, 3792, Note_on_c, 1, 48, 73
1, 3816, Note_on_c, 0, 75, 0
1, 3816, Note_on_c, 0, 79, 78
1, 3837, Note_on_c, 1, 48, 0
1, 3839, Note_on_c, 0, 79, 0
1, 3840, Note_on_c, 0, 79, 78
1, 3840, Note_on_c, 1, 50, 74
1, 3864, Note_on_c, 0, 79, 0
1, 3864, Note_on_c, 0, 77, 78
1, 3885, Note_on_c, 1, 50, 0
1, 3887, Note_on_c, 0, 77, 0
1, 3888, Note_on_c, 0, 77, 78
1, 3888, Note_on_c, 1, 62, 74
1, 3912, Note_on_c, 0, 77, 0
1, 3912, Note_on_c, 0, 82, 78
1, 3933, Note_on_c, 1, 62, 0
1, 3935, Note_on_c, 0, 82, 0
1, 3936, Note_on_c, 0, 82, 78
1, 3984, Note_on_c, 1, 58, 76
1, 4003, Note_on_c, 0, 82, 0
1, 4008, Note_on_c, 0, 74, 79
1, 4029, Note_on_c, 1, 58, 0
1, 4031, Note_on_c, 0, 74, 0
1, 4032, Note_on_c, 0, 74, 79
1, 4032, Note_on_c, 1, 63, 77
1, 4056, Note_on_c, 0, 74, 0
1, 4056, Note_on_c, 0, 72, 79
1, 4079, Note_on_c, 0, 72, 0
1, 4080, Note_on_c, 0, 72, 79
1, 4104, Note_on_c, 0, 72, 0
1, 4104, Note_on_c, 0, 79, 79
1, 4127, Note_on_c, 0, 79, 0
1, 4128, Note_on_c, 0, 79, 80
1, 4176, Note_on_c, 1, 63, 0
1, 4176, Note_on_c, 1, 64, 80
1, 4195, Note_on_c, 0, 79, 0
1, 4200, Note_on_c, 0, 70, 80
1, 4221, Note_on_c, 1, 64, 0
1, 4223, Note_on_c, 0, 70, 0
1, 4224, Note_on_c, 0, 70, 80
1, 4224, Note_on_c, 1, 65, 80
1, 4269, Note_on_c, 1, 65, 0
1, 4272, Note_on_c, 1, 60, 80
1, 4295, Note_on_c, 1, 60, 0
1, 4296, Note_on_c, 1, 57, 80
1, 4313, Note_on_c, 0, 70, 0
1, 4319, Note_on_c, 1, 57, 0
1, 4320, Note_on_c, 0, 69, 80
1, 4320, Note_on_c, 1, 53, 80
1, 4365, Note_on_c, 0, 69, 0
1, 4368, Note_on_c, 0, 77, 70
1, 4383, Note_on_c, 0, 77, 0
1, 4384, Note_on_c, 0, 79, 70
1, 4399, Note_on_c, 0, 79, 0
1, 4400, Note_on_c, 0, 77, 70
1, 4409, Note_on_c, 1, 53, 0
1, 4415, Note_on_c, 0, 77, 0
1, 4416, Note_on_c, 0, 65, 70
1, 4436, Note_on_c, 0, 65, 0
1, 4464, Note_on_c, 0, 65, 70
1, 4464, Note_on_c, 1, 60, 64
1, 4464, Note_on_c, 1, 57, 64
1, 4484, Note_on_c, 0, 65, 0
1, 4511, Note_on_c, 1, 60, 0
1, 4511, Note_on_c, 1, 57, 0
1, 4512, Note_on_c, 1, 60, 64
1, 4512, Note_on_c, 1, 57, 64
1, 4559, Note_on_c, 1, 60, 0
1, 4559, Note_on_c, 1, 57, 0
1, 4560, Note_on_c, 0, 77, 70
1, 4560, Note_on_c, 1, 60, 64
1, 4560, Note_on_c, 1, 57, 64
1, 4575, Note_on_c, 0, 77, 0
1, 4576, Note_on_c, 0, 79, 70
1, 4591, Note_on_c, 0, 79, 0
1, 4592, Note_on_c, 0, 77, 70
1, 4607, Note_on_c, 0, 77, 0
1, 4607, Note_on_c, 1, 60, 0
1, 4607, Note_on_c, 1, 57, 0
1, 4608, Note_on_c, 0, 67, 70
1, 4628, Note_on_c, 0, 67, 0
1, 4656, Note_on_c, 0, 67, 70
1, 4656, Note_on_c, 1, 62, 64
1, 4656, Note_on_c, 1, 58, 64
1, 4676, Note_on_c, 0, 67, 0
1, 4703, Note_on_c, 1, 62, 0
1, 4703, Note_on_c, 1, 58, 0
1, 4704, Note_on_c, 1, 62, 64
1, 4704, Note_on_c, 1, 58, 64
1, 4751, Note_on_c, 1, 62, 0
1, 4751, Note_on_c, 1, 58, 0
1, 4752, Note_on_c, 0, 77, 70
1, 4752, Note_on_c, 1, 62, 64
1, 4752, Note_on_c, 1, 58, 64
1, 4767, Note_on_c, 0, 77, 0
1, 4768, Note_on_c, 0, 79, 70
1, 4783, Note_on_c, 0, 79, 0
1, 4784, Note_on_c, 0, 77, 70
1, 4799, Note_on_c, 0, 77, 0
1, 4799, Note_on_c, 1, 62, 0
1, 4799, Note_on_c, 1, 58, 0
1, 4800, Note_on_c, 0, 69, 75
1, 4820, Note_on_c, 0, 69, 0
1, 4848, Note_on_c, 0, 69, 75
1, 4848, Note_on_c, 1, 63, 65
1, 4848, Note_on_c, 1, 60, 65
1, 4868, Note_on_c, 0, 69, 0
1, 4895, Note_on_c, 1, 63, 0
1, 4895, Note_on_c, 1, 60, 0
1, 4896, Note_on_c, 1, 63, 67
1, 4896, Note_on_c, 1, 60, 67
1, 4943, Note_on_c, 1, 63, 0
1, 4943, Note_on_c, 1, 60, 0
1, 4944, Note_on_c, 0, 77, 76
1, 4944, Note_on_c, 1, 63, 69
1, 4944, Note_on_c, 1, 60, 69
1, 4959, Note_on_c, 0, 77, 0
1, 4960, Note_on_c, 0, 79, 76
1, 4975, Note_on_c, 0, 79, 0
1, 4976, Note_on_c, 0, 77, 76
1, 4991, Note_on_c, 0, 77, 0
1, 4991, Note_on_c, 1, 63, 0
1, 4991, Note_on_c, 1, 60, 0
1, 4992, Note_on_c, 0, 70, 77
1, 5012, Note_on_c, 0, 70, 0
1, 5040, Note_on_c, 0, 70, 77
1, 5040, Note_on_c, 1, 65, 72
1, 5040, Note_on_c, 1, 62, 72
1, 5060, Note_on_c, 0, 70, 0
1, 5087, Note_on_c, 1, 65, 0
1, 5087, Note_on_c, 1, 62, 0
1, 5088, Note_on_c, 1, 65, 74
1, 5088, Note_on_c, 1, 62, 74
1, 5135, Note_on_c, 1, 65, 0
1, 5135, Note_on_c, 1, 62, 0
1, 5136, Note_on_c, 0, 77, 78
1, 5136, Note_on_c, 1, 65, 76
1, 5136, Note_on_c, 1, 62, 76
1, 5151, Note_on_c, 0, 77, 0
1, 5152, Note_on_c, 0, 79, 78
1, 5167, Note_on_c, 0, 79, 0
1, 5168, Note_on_c, 0, 77, 79
1, 5183, Note_on_c, 0, 77, 0
1, 5183, Note_on_c, 1, 65, 0
1, 5183, Note_on_c, 1, 62, 0
1, 5184, Note_on_c, 0, 71, 79
1, 5204, Note_on_c, 0, 71, 0
1, 5232, Note_on_c, 0, 80, 96
1, 5232, Note_on_c, 1, 65, 80
1, 5232, Note_on_c, 1, 61, 80
1, 5277, Note_on_c, 1, 61, 0
1, 5279, Note_on_c, 1, 65, 0
1, 5280, Note_on_c, 1, 65, 80
1, 5280, Note_on_c, 1, 61, 80
1, 5327, Note_on_c, 1, 65, 0
1, 5328, Note_on_c, 0, 80, 0
1, 5328, Note_on_c, 0, 79, 70
1, 5328, Note_on_c, 1, 71, 70
1, 5351, Note_on_c, 0, 79, 0
1, 5352, Note_on_c, 0, 77, 70
1, 5369, Note_on_c, 1, 61, 0
1, 5375, Note_on_c, 0, 77, 0
1, 5375, Note_on_c, 1, 71, 0
1, 5376, Note_on_c, 0, 77, 71
1, 5376, Note_on_c, 1, 72, 71
1, 5376, Note_on_c, 1, 60, 80
1, 5421, Note_on_c, 1, 60, 0
1, 5424, Note_on_c, 1, 64, 80
1, 5439, Note_on_c, 1, 64, 0
1, 5440, Note_on_c, 1, 65, 80
1, 5455, Note_on_c, 1, 65, 0
1, 5456, Note_on_c, 1, 67, 80
1, 5465, Note_on_c, 1, 72, 0
1, 5471, Note_on_c, 1, 67, 0
1, 5472, Note_on_c, 0, 77, 0
1, 5472, Note_on_c, 0, 76, 73
1, 5472, Note_on_c, 1, 60, 80
1, 5517, Note_on_c, 0, 76, 0
1, 5520, Note_on_c, 0, 77, 75
1, 5535, Note_on_c, 0, 77, 0
1, 5536, Note_on_c, 0, 79, 75
1, 5551, Note_on_c, 0, 79, 0
1, 5552, Note_on_c, 0, 77, 75
1, 5561, Note_on_c, 1, 60, 0
1, 5567, Note_on_c, 0, 77, 0
1, 5568, Note_on_c, 0, 71, 75
1, 5588, Note_on_c, 0, 71, 0
1, 5616, Note_on_c, 0, 80, 93
1, 5616, Note_on_c, 1, 65, 78
1, 5616, Note_on_c, 1, 61, 80
1, 5661, Note_on_c, 1, 61, 0
1, 5663, Note_on_c, 1, 65, 0
1, 5664, Note_on_c, 1, 65, 80
1, 5664, Note_on_c, 1, 61, 80
1, 5711, Note_on_c, 1, 65, 0
1, 5712, Note_on_c, 0, 80, 0
1, 5712, Note_on_c, 0, 79, 80
1, 5712, Note_on_c, 1, 71, 80
1, 5735, Note_on_c, 0, 79, 0
1, 5736, Note_on_c, 0, 77, 80
1, 5753, Note_on_c, 1, 61, 0
1, 5759, Note_on_c, 0, 77, 0
1, 5759, Note_on_c, 1, 71, 0
1, 5760, Note_on_c, 0, 77, 80
1, 5760, Note_on_c, 1, 72, 80
1, 5760, Note_on_c, 1, 60, 80
1, 5773, Note_on_c, 0, 77, 0
1, 5774, Note_on_c, 0, 79, 80
1, 5787, Note_on_c, 0, 79, 0
1, 5788, Note_on_c, 0, 77, 80
1, 5801, Note_on_c, 0, 77, 0
1, 5802, Note_on_c, 0, 79, 80
1, 5805, Note_on_c, 1, 60, 0
1, 5808, Note_on_c, 1, 64, 80
1, 5815, Note_on_c, 0, 79, 0
1, 5816, Note_on_c, 0, 77, 80
1, 5823, Note_on_c, 1, 64, 0
1, 5824, Note_on_c, 1, 65, 80
1, 5829, Note_on_c, 0, 77, 0
1, 5830, Note_on_c, 0, 76, 80
1, 5839, Note_on_c, 1, 65, 0
1, 5840, Note_on_c, 1, 67, 80
1, 5842, Note_on_c, 0, 76, 0
1, 5843, Note_on_c, 0, 77, 80
1, 5849, Note_on_c, 1, 72, 0
1, 5855, Note_on_c, 0, 77, 0
1, 5855, Note_on_c, 1, 67, 0
1, 5856, Note_on_c, 0, 76, 80
1, 5856, Note_on_c, 1, 60, 80
1, 5945, Note_on_c, 0, 76, 0
1, 5945, Note_on_c, 1, 60, 0
1, 5952, Note_on_c, 0, 77, 75
1, 5952, Note_on_c, 1, 65, 70
1, 5952, Note_on_c, 1, 57, 70
1, 5976, Note_on_c, 0, 77, 0
1, 5976, Note_on_c, 0, 76, 74
1, 5999, Note_on_c, 0, 76, 0
1, 5999, Note_on_c, 1, 65, 0
1, 5999, Note_on_c, 1, 57, 0
1, 6000, Note_on_c, 0, 76, 73
1, 6000, Note_on_c, 1, 65, 68
1, 6000, Note_on_c, 1, 57, 68
1, 6024, Note_on_c, 0, 76, 0
1, 6024, Note_on_c, 0, 74, 73
1, 6047, Note_on_c, 0, 74, 0
1, 6047, Note_on_c, 1, 65, 0
1, 6047, Note_on_c, 1, 57, 0
1, 6048, Note_on_c, 0, 74, 72
1, 6048, Note_on_c, 1, 65, 67
1, 6048, Note_on_c, 1, 57, 67
1, 6072, Note_on_c, 0, 74, 0
1, 6072, Note_on_c, 0, 72, 71
1, 6095, Note_on_c, 0, 72, 0
1, 6095, Note_on_c, 1, 65, 0
1, 6095, Note_on_c, 1, 57, 0
1, 6096, Note_on_c, 0, 72, 71
1, 6096, Note_on_c, 1, 65, 65
1, 6096, Note_on_c, 1, 57, 65
1, 6120, Note_on_c, 0, 72, 0
1, 6120, Note_on_c, 0, 73, 70
1, 6143, Note_on_c, 0, 73, 0
1, 6143, Note_on_c, 1, 65, 0
1, 6143, Note_on_c, 1, 57, 0
1, 6144, Note_on_c, 0, 73, 86
1, 6144, Note_on_c, 1, 65, 64
1, 6144, Note_on_c, 1, 58, 64
1, 6191, Note_on_c, 1, 65, 0
1, 6191, Note_on_c, 1, 58, 0
1, 6192, Note_on_c, 1, 65, 65
1, 6192, Note_on_c, 1, 58, 65
1, 6239, Note_on_c, 1, 65, 0
1, 6239, Note_on_c, 1, 58, 0
1, 6240, Note_on_c, 1, 65, 67
1, 6240, Note_on_c, 1, 58, 67
1, 6287, Note_on_c, 1, 65, 0
1, 6287, Note_on_c, 1, 58, 0
1, 6288, Note_on_c, 0, 73, 0
1, 6288, Note_on_c, 0, 74, 73
1, 6288, Note_on_c, 1, 65, 68
1, 6288, Note_on_c, 1, 58, 68
1, 6333, Note_on_c, 0, 74, 0
1, 6335, Note_on_c, 1, 65, 0
1, 6335, Note_on_c, 1, 58, 0
1, 6336, Note_on_c, 0, 77, 75
1, 6336, Note_on_c, 1, 65, 70
1, 6336, Note_on_c, 1, 57, 70
1, 6360, Note_on_c, 0, 77, 0
1, 6360, Note_on_c, 0, 76, 74
1, 6383, Note_on_c, 0, 76, 0
1, 6383, Note_on_c, 1, 65, 0
1, 6383, Note_on_c, 1, 57, 0
1, 6384, Note_on_c, 0, 76, 73
1, 6384, Note_on_c, 1, 65, 68
1, 6384, Note_on_c, 1, 57, 68
1, 6408, Note_on_c, 0, 76, 0
1, 6408, Note_on_c, 0, 74, 73
1, 6431, Note_on_c, 0, 74, 0
1, 6431, Note_on_c, 1, 65, 0
1, 6431, Note_on_c, 1, 57, 0
1, 6432, Note_on_c, 0, 74, 72
1, 6432, Note_on_c, 1, 65, 67
1, 6432, Note_on_c, 1, 57, 67
1, 6456, Note_on_c, 0, 74, 0
1, 6456, Note_on_c, 0, 72, 71
1, 6479, Note_on_c, 0, 72, 0
1, 6479, Note_on_c, 1, 65, 0
1, 6479, Note_on_c, 1, 57, 0
1, 6480, Note_on_c, 0, 72, 71
1, 6480, Note_on_c, 1, 65, 65
1, 6480, Note_on_c, 1, 57, 65
1, 6504, Note_on_c, 0, 72, 0
1, 6504, Note_on_c, 0, 73, 70
1, 6527, Note_on_c, 0, 73, 0
1, 6527, Note_on_c, 1, 65, 0
1, 6527, Note_on_c, 1, 57, 0
1, 6528, Note_on_c, 0, 73, 86
1, 6528, Note_on_c, 1, 65, 64
1, 6528, Note_on_c, 1, 58, 64
1, 6575, Note_on_c, 1, 65, 0
1, 6575, Note_on_c, 1, 58, 0
1, 6576, Note_on_c, 1, 65, 65
1, 6576, Note_on_c, 1, 58, 65
1, 6623, Note_on_c, 1, 65, 0
1, 6623, Note_on_c, 1, 58, 0
1, 6624, Note_on_c, 1, 65, 67
1, 6624, Note_on_c, 1, 58, 67
1, 6671, Note_on_c, 1, 65, 0
1, 6671, Note_on_c, 1, 58, 0
1, 6672, Note_on_c, 0, 73, 0
1, 6672, Note_on_c, 0, 74, 73
1, 6672, Note_on_c, 1, 65, 68
1, 6672, Note_on_c, 1, 58, 68
1, 6717, Note_on_c, 0, 74, 0
1, 6719, Note_on_c, 1, 65, 0
1, 6719, Note_on_c, 1, 58, 0
1, 6720, Note_on_c, 0, 77, 75
1, 6720, Note_on_c, 1, 65, 70
1, 6720, Note_on_c, 1, 57, 70
1, 6744, Note_on_c, 0, 77, 0
1, 6744, Note_on_c, 0, 76, 74
1, 6767, Note_on_c, 0, 76, 0
1, 6767, Note_on_c, 1, 65, 0
1, 6767, Note_on_c, 1, 57, 0
1, 6768, Note_on_c, 0, 76, 73
1, 6768, Note_on_c, 1, 65, 68
1, 6768, Note_on_c, 1, 57, 68
1, 6792, Note_on_c, 0, 76, 0
1, 6792, Note_on_c, 0, 74, 73
1, 6815, Note_on_c, 0, 74, 0
1, 6815, Note_on_c, 1, 65, 0
1, 6815, Note_on_c, 1, 57, 0
1, 6816, Note_on_c, 0, 74, 72
1, 6816, Note_on_c, 1, 65, 67
1, 6816, Note_on_c, 1, 57, 67
1, 6840, Note_on_c, 0, 74, 0
1, 6840, Note_on_c, 0, 72, 71
1, 6863, Note_on_c, 0, 72, 0
1, 6863, Note_on_c, 1, 65, 0
1, 6863, Note_on_c, 1, 57, 0
1, 6864, Note_on_c, 0, 72, 71
1, 6864, Note_on_c, 1, 65, 65
1, 6864, Note_on_c, 1, 57, 65
1, 6888, Note_on_c, 0, 72, 0
1, 6888, Note_on_c, 0, 71, 70
1, 6911, Note_on_c, 0, 71, 0
1, 6911, Note_on_c, 1, 65, 0
1, 6911, Note_on_c, 1, 57, 0
1, 6912, Note_on_c, 0, 71, 86
1, 6912, Note_on_c, 1, 65, 64
1, 6912, Note_on_c, 1, 55, 64
1, 6959, Note_on_c, 1, 65, 0
1, 6959, Note_on_c, 1, 55, 0
1, 6960, Note_on_c, 1, 65, 67
1, 6960, Note_on_c, 1, 55, 67
1, 7007, Note_on_c, 1, 65, 0
1, 7007, Note_on_c, 1, 55, 0
1, 7008, Note_on_c, 1, 65, 71
1, 7008, Note_on_c, 1, 55, 71
1, 7042, Note_on_c, 0, 71, 0
1, 7044, Note_on_c, 0, 81, 80
1, 7055, Note_on_c, 1, 65, 0
1, 7055, Note_on_c, 1, 55, 0
1, 7056, Note_on_c, 0, 81, 0
1, 7056, Note_on_c, 0, 71, 80
1, 7056, Note_on_c, 1, 65, 75
1, 7056, Note_on_c, 1, 55, 75
1, 7090, Note_on_c, 0, 71, 0
1, 7092, Note_on_c, 0, 81, 80
1, 7103, Note_on_c, 1, 65, 0
1, 7103, Note_on_c, 1, 55, 0
1, 7104, Note_on_c, 0, 81, 0
1, 7104, Note_on_c, 0, 71, 86
1, 7104, Note_on_c, 1, 65, 64
1, 7104, Note_on_c, 1, 55, 64
1, 7151, Note_on_c, 1, 65, 0
1, 7151, Note_on_c, 1, 55, 0
1, 7152, Note_on_c, 1, 65, 67
1, 7152, Note_on_c, 1, 55, 67
1, 7199, Note_on_c, 1, 65, 0
1, 7199, Note_on_c, 1, 55, 0
1, 7200, Note_on_c, 1, 65, 71
1, 7200, Note_on_c, 1, 55, 71
1, 7234, Note_on_c, 0, 71, 0
1, 7236, Note_on_c, 0, 81, 80
1, 7247, Note_on_c, 1, 65, 0
1, 7247, Note_on_c, 1, 55, 0
1, 7248, Note_on_c, 0, 81, 0
1, 7248, Note_on_c, 0, 71, 80
1, 7248, Note_on_c, 1, 65, 75
1, 7248, Note_on_c, 1, 55, 75
1, 7282, Note_on_c, 0, 71, 0
1, 7284, Note_on_c, 0, 81, 80
1, 7295, Note_on_c, 1, 65, 0
1, 7295, Note_on_c, 1, 55, 0
1, 7296, Note_on_c, 0, 81, 0
1, 7296, Note_on_c, 0, 70, 96
1, 7296, Note_on_c, 1, 64, 75
1, 7296, Note_on_c, 1, 60, 75
1, 7343, Note_on_c, 1, 64, 0
1, 7343, Note_on_c, 1, 60, 0
1, 7344, Note_on_c, 1, 64, 75
1, 7344, Note_on_c, 1, 60, 75
1, 7391, Note_on_c, 1, 64, 0
1, 7391, Note_on_c, 1, 60, 0
1, 7392, Note_on_c, 1, 64, 75
1, 7392, Note_on_c, 1, 60, 75
1, 7439, Note_on_c, 1, 64, 0
1, 7439, Note_on_c, 1, 60, 0
1, 7440, Note_on_c, 0, 70, 0
1, 7440, Note_on_c, 0, 74, 76
1, 7440, Note_on_c, 1, 64, 75
1, 7440, Note_on_c, 1, 60, 75
1, 7455, Note_on_c, 0, 74, 0
1, 7456, Note_on_c, 0, 72, 75
1, 7471, Note_on_c, 0, 72, 0
1, 7472, Note_on_c, 0, 70, 75
1, 7487, Note_on_c, 0, 70, 0
1, 7487, Note_on_c, 1, 64, 0
1, 7487, Note_on_c, 1, 60, 0
1, 7488, Note_on_c, 0, 69, 75
1, 7488, Note_on_c, 1, 65, 75
1, 7488, Note_on_c, 1, 53, 75
1, 7533, Note_on_c, 0, 69, 0
1, 7536, Note_on_c, 0, 77, 75
1, 7551, Note_on_c, 0, 77, 0
1, 7552, Note_on_c, 0, 79, 75
1, 7567, Note_on_c, 0, 79, 0
1, 7568, Note_on_c, 0, 77, 75
1, 7577, Note_on_c, 1, 65, 0
1, 7577, Note_on_c, 1, 53, 0
1, 7583, Note_on_c, 0, 77, 0
1, 7584, Note_on_c, 0, 74, 75
1, 7584, Note_on_c, 1, 58, 75
1, 7584, Note_on_c, 1, 46, 75
1, 7629, Note_on_c, 0, 74, 0
1, 7632, Note_on_c, 0, 82, 75
1, 7647, Note_on_c, 0, 82, 0
1, 7648, Note_on_c, 0, 84, 75
1, 7663, Note_on_c, 0, 84, 0
1, 7664, Note_on_c, 0, 82, 75
1, 7673, Note_on_c, 1, 58, 0
1, 7673, Note_on_c, 1, 46, 0
1, 7679, Note_on_c, 0, 82, 0
1, 7680, Note_on_c, 0, 72, 75
1, 7728, Note_on_c, 1, 53, 75
1, 7728, Note_on_c, 1, 45, 80
1, 7769, Note_on_c, 0, 72, 0
1, 7773, Note_on_c, 1, 45, 0
1, 7776, Note_on_c, 0, 81, 75
1, 7776, Note_on_c, 1, 46, 80
1, 7788, Note_on_c, 0, 81, 0
1, 7788, Note_on_c, 0, 79, 75
1, 7800, Note_on_c, 0, 79, 0
1, 7800, Note_on_c, 0, 81, 75
1, 7812, Note_on_c, 0, 81, 0
1, 7812, Note_on_c, 0, 79, 75
1, 7817, Note_on_c, 1, 53, 0
1, 7821, Note_on_c, 1, 46, 0
1, 7824, Note_on_c, 0, 79, 0
1, 7824, Note_on_c, 0, 81, 75
1, 7824, Note_on_c, 1, 52, 75
1, 7824, Note_on_c, 1, 48, 80
1, 7836, Note_on_c, 0, 81, 0
1, 7836, Note_on_c, 0, 79, 75
1, 7848, Note_on_c, 0, 79, 0
1, 7848, Note_on_c, 0, 77, 75
1, 7860, Note_on_c, 0, 77, 0
1, 7860, Note_on_c, 0, 79, 75
1, 7869, Note_on_c, 1, 52, 0
1, 7869, Note_on_c, 1, 48, 0
1, 7872, Note_on_c, 0, 79, 0
1, 7872, Note_on_c, 0, 77, 75
1, 7872, Note_on_c, 1, 53, 75
1, 7872, Note_on_c, 1, 41, 75
1, 7892, Note_on_c, 0, 77, 0
1, 7920, Note_on_c, 0, 77, 75
1, 7935, Note_on_c, 0, 77, 0
1, 7936, Note_on_c, 0, 79, 75
1, 7951, Note_on_c, 0, 79, 0
1, 7952, Note_on_c, 0, 77, 75
1, 7961, Note_on_c, 1, 53, 0
1, 7961, Note_on_c, 1, 41, 0
1, 7967, Note_on_c, 0, 77, 0
1, 7968, Note_on_c, 0, 74, 75
1, 7968, Note_on_c, 1, 58, 75
1, 7968, Note_on_c, 1, 46, 75
1, 7988, Note_on_c, 0, 74, 0
1, 8016, Note_on_c, 0, 82, 75
1, 8031, Note_on_c, 0, 82, 0
1, 8032, Note_on_c, 0, 84, 75
1, 8047, Note_on_c, 0, 84, 0
1, 8048, Note_on_c, 0, 82, 75
1, 8057, Note_on_c, 1, 58, 0
1, 8057, Note_on_c, 1, 46, 0
1, 8063, Note_on_c, 0, 82, 0
1, 8064, Note_on_c, 0, 72, 75
1, 8112, Note_on_c, 1, 53, 75
1, 8112, Note_on_c, 1, 45, 80
1, 8153, Note_on_c, 0, 72, 0
1, 8157, Note_on_c, 1, 45, 0
1, 8160, Note_on_c, 0, 81, 75
1, 8160, Note_on_c, 1, 46, 80
1, 8172, Note_on_c, 0, 81, 0
1, 8172, Note_on_c, 0, 79, 75
1, 8184, Note_on_c, 0, 79, 0
1, 8184, Note_on_c, 0, 81, 75
1, 8196, Note_on_c, 0, 81, 0
1, 8196, Note_on_c, 0, 79, 75
1, 8201, Note_on_c, 1, 53, 0
1, 8205, Note_on_c, 1, 46, 0
1, 8208, Note_on_c, 0, 79, 0
1, 8208, Note_on_c, 0, 81, 75
1, 8208, Note_on_c, 1, 52, 75
1, 8208, Note_on_c, 1, 48, 80
1, 8220, Note_on_c, 0, 81, 0
1, 8220, Note_on_c, 0, 79, 75
1, 8232, Note_on_c, 0, 79, 0
1, 8232, Note_on_c, 0, 77, 75
1, 8244, Note_on_c, 0, 77, 0
1, 8244, Note_on_c, 0, 79, 75
1, 8253, Note_on_c, 1, 52, 0
1, 8253, Note_on_c, 1, 48, 0
1, 8256, Note_on_c, 0, 79, 0
1, 8256, Note_on_c, 0, 77, 75
1, 8256, Note_on_c, 1, 53, 75
1, 8301, Note_on_c, 1, 53, 0
1, 8304, Note_on_c, 1, 48, 75
1, 8327, Note_on_c, 1, 48, 0
1, 8328, Note_on_c, 1, 45, 75
1, 8345, Note_on_c, 0, 77, 0
1, 8351, Note_on_c, 1, 45, 0
1, 8352, Note_on_c, 1, 41, 75
1, 8424, Note_on_c, 0, 77, 75
1, 8434, Note_on_c, 0, 77, 0
1, 8441, Note_on_c, 1, 41, 0
1, 8448, Note_on_c, 0, 65, 64
1, 8496, Note_on_c, 1, 57, 64
1, 8541, Note_on_c, 1, 57, 0
1, 8544, Note_on_c, 1, 60, 64
1, 8544, Note_on_c, 1, 57, 64
1, 8588, Note_on_c, 0, 65, 0
1, 8592, Note_on_c, 0, 66, 68
1, 8592, Note_on_c, 1, 60, 0
1, 8592, Note_on_c, 1, 61, 70
1, 8633, Note_on_c, 1, 57, 0
1, 8637, Note_on_c, 0, 66, 0
1, 8637, Note_on_c, 1, 61, 0
1, 8640, Note_on_c, 0, 67, 70
1, 8640, Note_on_c, 1, 62, 75
1, 8640, Note_on_c, 1, 58, 75
1, 8685, Note_on_c, 0, 67, 0
1, 8688, Note_on_c, 0, 69, 72
1, 8694, Note_on_c, 0, 69, 0
1, 8694, Note_on_c, 0, 70, 72
1, 8729, Note_on_c, 1, 62, 0
1, 8729, Note_on_c, 1, 58, 0
1, 8733, Note_on_c, 0, 70, 0
1, 8736, Note_on_c, 0, 73, 73
1, 8742, Note_on_c, 0, 73, 0
1, 8742, Note_on_c, 0, 74, 73
1, 8781, Note_on_c, 0, 74, 0
1, 8784, Note_on_c, 0, 78, 75
1, 8790, Note_on_c, 0, 78, 0
1, 8790, Note_on_c, 0, 79, 75
1, 8829, Note_on_c, 0, 79, 0
1, 8832, Note_on_c, 0, 81, 76
1, 8838, Note_on_c, 0, 81, 0
1, 8838, Note_on_c, 0, 82, 76
1, 8877, Note_on_c, 0, 82, 0
1, 8880, Note_on_c, 0, 85, 78
1, 8886, Note_on_c, 0, 85, 0
1, 8886, Note_on_c, 0, 86, 78
1, 8925, Note_on_c, 0, 86, 0
1, 8928, Note_on_c, 0, 84, 80
1, 8943, Note_on_c, 0, 84, 0
1, 8944, Note_on_c, 0, 82, 80
1, 8959, Note_on_c, 0, 82, 0
1, 8960, Note_on_c, 0, 81, 80
1, 8975, Note_on_c, 0, 81, 0
1, 8976, Note_on_c, 0, 82, 80
1, 8991, Note_on_c, 0, 82, 0
1, 8992, Note_on_c, 0, 81, 80
1, 9007, Note_on_c, 0, 81, 0
1, 9008, Note_on_c, 0, 79, 80
1, 9023, Note_on_c, 0, 79, 0
1, 9024, Note_on_c, 0, 72, 80
1, 9072, Note_on_c, 1, 57, 75
1, 9113, Note_on_c, 0, 72, 0
1, 9117, Note_on_c, 1, 57, 0
1, 9120, Note_on_c, 0, 81, 80
1, 9120, Note_on_c, 1, 58, 75
1, 9132, Note_on_c, 0, 81, 0
1, 9132, Note_on_c, 0, 79, 80
1, 9144, Note_on_c, 0, 79, 0
1, 9144, Note_on_c, 0, 81, 80
1, 9156, Note_on_c, 0, 81, 0
1, 9156, Note_on_c, 0, 79, 80
1, 9165, Note_on_c, 1, 58, 0
1, 9168, Note_on_c, 0, 79, 0
1, 9168, Note_on_c, 0, 81, 80
1, 9168, Note_on_c, 1, 60, 75
1, 9180, Note_on_c, 0, 81, 0
1, 9180, Note_on_c, 0, 79, 80
1, 9192, Note_on_c, 0, 79, 0
1, 9192, Note_on_c, 0, 77, 80
1, 9204, Note_on_c, 0, 77, 0
1, 9204, Note_on_c, 0, 79, 80
1, 9213, Note_on_c, 1, 60, 0
1, 9216, Note_on_c, 0, 79, 0
1, 9216, Note_on_c, 0, 77, 80
1, 9216, Note_on_c, 1, 53, 75
1, 9261, Note_on_c, 1, 53, 0
1, 9264, Note_on_c, 1, 65, 75
1, 9305, Note_on_c, 0, 77, 0
1, 9309, Note_on_c, 1, 65, 0
1, 9312, Note_on_c, 0, 84, 75
1, 9335, Note_on_c, 0, 84, 0
1, 9336, Note_on_c, 0, 72, 75
1, 9359, Note_on_c, 0, 72, 0
1, 9360, Note_on_c, 0, 84, 75
1, 9360, Note_on_c, 1, 69, 75
1, 9383, Note_on_c, 0, 84, 0
1, 9384, Note_on_c, 0, 72, 75
1, 9405, Note_on_c, 1, 69, 0
1, 9407, Note_on_c, 0, 72, 0
1, 9408, Note_on_c, 0, 82, 75
1, 9408, Note_on_c, 0, 84, 75
1, 9408, Note_on_c, 1, 67, 75
1, 9431, Note_on_c, 0, 82, 0
1, 9432, Note_on_c, 0, 72, 75
1, 9453, Note_on_c, 0, 84, 0
1, 9453, Note_on_c, 1, 67, 0
1, 9455, Note_on_c, 0, 72, 0
1, 9456, Note_on_c, 0, 82, 75
1, 9456, Note_on_c, 0, 84, 75
1, 9456, Note_on_c, 1, 65, 75
1, 9479, Note_on_c, 0, 82, 0
1, 9480, Note_on_c, 0, 72, 75
1, 9501, Note_on_c, 0, 84, 0
1, 9501, Note_on_c, 1, 65, 0
1, 9503, Note_on_c, 0, 72, 0
1, 9504, Note_on_c, 0, 82, 75
1, 9504, Note_on_c, 0, 84, 75
1, 9504, Note_on_c, 1, 64, 75
1, 9527, Note_on_c, 0, 82, 0
1, 9528, Note_on_c, 0, 72, 75
1, 9549, Note_on_c, 0, 84, 0
1, 9549, Note_on_c, 1, 64, 0
1, 9551, Note_on_c, 0, 72, 0
1, 9552, Note_on_c, 0, 82, 75
1, 9552, Note_on_c, 0, 84, 75
1, 9552, Note_on_c, 1, 67, 75
1, 9575, Note_on_c, 0, 82, 0
1, 9576, Note_on_c, 0, 72, 75
1, 9597, Note_on_c, 0, 84, 0
1, 9597, Note_on_c, 1, 67, 0
1, 9599, Note_on_c, 0, 72, 0
1, 9600, Note_on_c, 0, 84, 75
1, 9600, Note_on_c, 0, 81, 75
1, 9600, Note_on_c, 1, 65, 75
1, 9623, Note_on_c, 1, 65, 0
1, 9624, Note_on_c, 1, 60, 75
1, 9647, Note_on_c, 1, 60, 0
1, 9648, Note_on_c, 1, 57, 75
1, 9671, Note_on_c, 1, 57, 0
1, 9672, Note_on_c, 1, 53, 75
1, 9689, Note_on_c, 0, 84, 0
1, 9689, Note_on_c, 0, 81, 0
1, 9695, Note_on_c, 1, 53, 0
1, 9696, Note_on_c, 0, 84, 64
1, 9719, Note_on_c, 0, 84, 0
1, 9720, Note_on_c, 0, 72, 64
1, 9743, Note_on_c, 0, 72, 0
1, 9744, Note_on_c, 0, 84, 64
1, 9744, Note_on_c, 1, 69, 64
1, 9767, Note_on_c, 0, 84, 0
1, 9768, Note_on_c, 0, 72, 64
1, 9789, Note_on_c, 1, 69, 0
1, 9791, Note_on_c, 0, 72, 0
1, 9792, Note_on_c, 0, 82, 64
1, 9792, Note_on_c, 0, 84, 64
1, 9792, Note_on_c, 1, 67, 64
1, 9815, Note_on_c, 0, 82, 0
1, 9816, Note_on_c, 0, 72, 64
1, 9837, Note_on_c, 0, 84, 0
1, 9837, Note_on_c, 1, 67, 0
1, 9839, Note_on_c, 0, 72, 0
1, 9840, Note_on_c, 0, 82, 64
1, 9840, Note_on_c, 0, 84, 64
1, 9840, Note_on_c, 1, 65, 64
1, 9863, Note_on_c, 0, 82, 0
1, 9864, Note_on_c, 0, 72, 64
1, 9885, Note_on_c, 0, 84, 0
1, 9885, Note_on_c, 1, 65, 0
1, 9887, Note_on_c, 0, 72, 0
1, 9888, Note_on_c, 0, 82, 64
1, 9888, Note_on_c, 0, 84, 64
1, 9888, Note_on_c, 1, 64, 64
1, 9911, Note_on_c, 0, 82, 0
1, 9912, Note_on_c, 0, 72, 64
1, 9933, Note_on_c, 0, 84, 0
1, 9933, Note_on_c, 1, 64, 0
1, 9935, Note_on_c, 0, 72, 0
1, 9936, Note_on_c, 0, 82, 64
1, 9936, Note_on_c, 0, 84, 64
1, 9936, Note_on_c, 1, 67, 64
1, 9959, Note_on_c, 0, 82, 0
1, 9960, Note_on_c, 0, 72, 64
1, 9981, Note_on_c, 0, 84, 0
1, 9981, Note_on_c, 1, 67, 0
1, 9983, Note_on_c, 0, 72, 0
1, 9984, Note_on_c, 0, 84, 64
1, 9984, Note_on_c, 0, 81, 64
1, 9984, Note_on_c, 1, 65, 64
1, 10007, Note_on_c, 1, 65, 0
1, 10008, Note_on_c, 1, 60, 64
1, 10031, Note_on_c, 1, 60, 0
1, 10032, Note_on_c, 1, 57, 64
1, 10055, Note_on_c, 1, 57, 0
1, 10056, Note_on_c, 1, 53, 64
1, 10073, Note_on_c, 0, 84, 0
1, 10073, Note_on_c, 0, 81, 0
1, 10079, Note_on_c, 1, 53, 0
1, 10080, Note_on_c, 0, 84, 75
1, 10103, Note_on_c, 0, 84, 0
1, 10104, Note_on_c, 0, 72, 75
1, 10127, Note_on_c, 0, 72, 0
1, 10128, Note_on_c, 0, 84, 75
1, 10128, Note_on_c, 1, 69, 75
1, 10151, Note_on_c, 0, 84, 0
1, 10152, Note_on_c, 0, 72, 75
1, 10173, Note_on_c, 1, 69, 0
1, 10175, Note_on_c, 0, 72, 0
1, 10176, Note_on_c, 0, 82, 75
1, 10176, Note_on_c, 0, 84, 75
1, 10176, Note_on_c, 1, 67, 75
1, 10199, Note_on_c, 0, 82, 0
1, 10200, Note_on_c, 0, 72, 75
1, 10221, Note_on_c, 0, 84, 0
1, 10221, Note_on_c, 1, 67, 0
1, 10223, Note_on_c, 0, 72, 0
1, 10224, Note_on_c, 0, 82, 75
1, 10224, Note_on_c, 0, 84, 75
1, 10224, Note_on_c, 1, 65, 75
1, 10247, Note_on_c, 0, 82, 0
1, 10248, Note_on_c, 0, 72, 75
1, 10269, Note_on_c, 0, 84, 0
1, 10269, Note_on_c, 1, 65, 0
1, 10271, Note_on_c, 0, 72, 0
1, 10272, Note_on_c, 0, 82, 75
1, 10272, Note_on_c, 0, 84, 75
1, 10272, Note_on_c, 1, 64, 75
1, 10295, Note_on_c, 0, 82, 0
1, 10296, Note_on_c, 0, 72, 75
1, 10317, Note_on_c, 0, 84, 0
1, 10317, Note_on_c, 1, 64, 0
1, 10319, Note_on_c, 0, 72, 0
1, 10320, Note_on_c, 0, 82, 75
1, 10320, Note_on_c, 0, 84, 75
1, 10320, Note_on_c, 1, 67, 75
1, 10343, Note_on_c, 0, 82, 0
1, 10344, Note_on_c, 0, 72, 75
1, 10365, Note_on_c, 0, 84, 0
1, 10365, Note_on_c, 1, 67, 0
1, 10367, Note_on_c, 0, 72, 0
1, 10368, Note_on_c, 0, 77, 75
1, 10368, Note_on_c, 1, 65, 75
1, 10413, Note_on_c, 0, 77, 0
1, 10416, Note_on_c, 0, 77, 75
1, 10431, Note_on_c, 0, 77, 0
1, 10432, Note_on_c, 0, 79, 75
1, 10447, Note_on_c, 0, 79, 0
1, 10448, Note_on_c, 0, 77, 75
1, 10457, Note_on_c, 1, 65, 0
1, 10463, Note_on_c, 0, 77, 0
1, 10464, Note_on_c, 0, 74, 75
1, 10464, Note_on_c, 1, 58, 75
1, 10464, Note_on_c, 1, 46, 75
1, 10509, Note_on_c, 0, 74, 0
1, 10512, Note_on_c, 0, 82, 75
1, 10527, Note_on_c, 0, 82, 0
1, 10528, Note_on_c, 0, 84, 75
1, 10543, Note_on_c, 0, 84, 0
1, 10544, Note_on_c, 0, 82, 75
1, 10553, Note_on_c, 1, 58, 0
1, 10553, Note_on_c, 1, 46, 0
1, 10559, Note_on_c, 0, 82, 0
1, 10560, Note_on_c, 0, 72, 75
1, 10608, Note_on_c, 1, 53, 75
1, 10608, Note_on_c, 1, 45, 64
1, 10649, Note_on_c, 0, 72, 0
1, 10653, Note_on_c, 1, 45, 0
1, 10656, Note_on_c, 0, 81, 75
1, 10656, Note_on_c, 1, 46, 64
1, 10668, Note_on_c, 0, 81, 0
1, 10668, Note_on_c, 0, 79, 75
1, 10680, Note_on_c, 0, 79, 0
1, 10680, Note_on_c, 0, 81, 75
1, 10692, Note_on_c, 0, 81, 0
1, 10692, Note_on_c, 0, 79, 75
1, 10697, Note_on_c, 1, 53, 0
1, 10701, Note_on_c, 1, 46, 0
1, 10704, Note_on_c, 0, 79, 0
1, 10704, Note_on_c, 0, 81, 75
1, 10704, Note_on_c, 1, 52, 75
1, 10704, Note_on_c, 1, 48, 64
1, 10716, Note_on_c, 0, 81, 0
1, 10716, Note_on_c, 0, 79, 75
1, 10728, Note_on_c, 0, 79, 0
1, 10728, Note_on_c, 0, 77, 75
1, 10740, Note_on_c, 0, 77, 0
1, 10740, Note_on_c, 0, 79, 75
1, 10749, Note_on_c, 1, 52, 0
1, 10749, Note_on_c, 1, 48, 0
1, 10752, Note_on_c, 0, 79, 0
1, 10752, Note_on_c, 0, 77, 75
1, 10752, Note_on_c, 1, 53, 75
1, 10752, Note_on_c, 1, 41, 75
1, 10841, Note_on_c, 0, 77, 0
1, 10841, Note_on_c, 1, 53, 0
1, 10841, Note_on_c, 1, 41, 0
1, 10848, Note_on_c, 0, 72, 70
1, 10848, Note_on_c, 1, 69, 64
1, 10848, Note_on_c, 1, 65, 64
1, 10871, Note_on_c, 0, 72, 0
1, 10872, Note_on_c, 0, 74, 69
1, 10895, Note_on_c, 0, 74, 0
1, 10895, Note_on_c, 1, 69, 0
1, 10895, Note_on_c, 1, 65, 0
1, 10896, Note_on_c, 0, 76, 69
1, 10896, Note_on_c, 1, 69, 63
1, 10896, Note_on_c, 1, 65, 63
1, 10919, Note_on_c, 0, 76, 0
1, 10920, Note_on_c, 0, 77, 68
1, 10943, Note_on_c, 0, 77, 0
1, 10943, Note_on_c, 1, 69, 0
1, 10943, Note_on_c, 1, 65, 0
1, 10944, Note_on_c, 0, 74, 68
1, 10944, Note_on_c, 1, 70, 62
1, 10944, Note_on_c, 1, 65, 62
1, 10967, Note_on_c, 0, 74, 0
1, 10968, Note_on_c, 0, 76, 68
1, 10991, Note_on_c, 0, 76, 0
1, 10991, Note_on_c, 1, 70, 0
1, 10991, Note_on_c, 1, 65, 0
1, 10992, Note_on_c, 0, 77, 67
1, 10992, Note_on_c, 1, 70, 61
1, 10992, Note_on_c, 1, 65, 61
1, 11015, Note_on_c, 0, 77, 0
1, 11016, Note_on_c, 0, 79, 67
1, 11039, Note_on_c, 0, 79, 0
1, 11039, Note_on_c, 1, 70, 0
1, 11039, Note_on_c, 1, 65, 0
1, 11040, Note_on_c, 0, 77, 67
1, 11040, Note_on_c, 1, 67, 61
1, 11040, Note_on_c, 1, 65, 61
1, 11063, Note_on_c, 0, 77, 0
1, 11064, Note_on_c, 0, 76, 66
1, 11087, Note_on_c, 0, 76, 0
1, 11087, Note_on_c, 1, 67, 0
1, 11087, Note_on_c, 1, 65, 0
1, 11088, Note_on_c, 0, 74, 66
1, 11088, Note_on_c, 1, 67, 60
1, 11088, Note_on_c, 1, 65, 60
1, 11111, Note_on_c, 0, 74, 0
1, 11112, Note_on_c, 0, 76, 65
1, 11135, Note_on_c, 0, 76, 0
1, 11135, Note_on_c, 1, 67, 0
1, 11135, Note_on_c, 1, 65, 0
1, 11136, Note_on_c, 0, 77, 65
1, 11136, Note_on_c, 1, 69, 75
1, 11136, Note_on_c, 1, 65, 75
1, 11225, Note_on_c, 0, 77, 0
1, 11230, Note_on_c, 1, 69, 0
1, 11230, Note_on_c, 1, 65, 0
1, 11232, Note_on_c, 0, 60, 64
1, 11232, Note_on_c, 1, 57, 70
1, 11232, Note_on_c, 1, 53, 70
1, 11247, Note_on_c, 0, 60, 0
1, 11248, Note_on_c, 0, 62, 75
1, 11263, Note_on_c, 0, 62, 0
1, 11264, Note_on_c, 0, 60, 74
1, 11279, Note_on_c, 0, 60, 0
1, 11279, Note_on_c, 1, 57, 0
1, 11279, Note_on_c, 1, 53, 0
1, 11280, Note_on_c, 0, 65, 74
1, 11280, Note_on_c, 1, 57, 69
1, 11280, Note_on_c, 1, 53, 69
1, 11325, Note_on_c, 0, 65, 0
1, 11327, Note_on_c, 1, 57, 0
1, 11327, Note_on_c, 1, 53, 0
1, 11328, Note_on_c, 0, 62, 73
1, 11328, Note_on_c, 1, 58, 68
1, 11328, Note_on_c, 1, 53, 68
1, 11343, Note_on_c, 0, 62, 0
1, 11344, Note_on_c, 0, 64, 73
1, 11359, Note_on_c, 0, 64, 0
1, 11360, Note_on_c, 0, 62, 73
1, 11375, Note_on_c, 0, 62, 0
1, 11375, Note_on_c, 1, 58, 0
1, 11375, Note_on_c, 1, 53, 0
1, 11376, Note_on_c, 0, 67, 73
1, 11376, Note_on_c, 1, 58, 67
1, 11376, Note_on_c, 1, 53, 67
1, 11421, Note_on_c, 0, 67, 0
1, 11423, Note_on_c, 1, 58, 0
1, 11423, Note_on_c, 1, 53, 0
1, 11424, Note_on_c, 0, 65, 72
1, 11424, Note_on_c, 1, 55, 66
1, 11424, Note_on_c, 1, 53, 66
1, 11447, Note_on_c, 0, 65, 0
1, 11448, Note_on_c, 0, 64, 72
1, 11471, Note_on_c, 0, 64, 0
1, 11471, Note_on_c, 1, 55, 0
1, 11471, Note_on_c, 1, 53, 0
1, 11472, Note_on_c, 0, 62, 71
1, 11472, Note_on_c, 1, 55, 65
1, 11472, Note_on_c, 1, 53, 65
1, 11495, Note_on_c, 0, 62, 0
1, 11496, Note_on_c, 0, 64, 71
1, 11519, Note_on_c, 0, 64, 0
1, 11519, Note_on_c, 1, 55, 0
1, 11519, Note_on_c, 1, 53, 0
1, 11520, Note_on_c, 0, 65, 87
1, 11520, Note_on_c, 1, 57, 80
1, 11520, Note_on_c, 1, 53, 80
1, 11568, Note_on_c, 0, 65, 0
1, 11568, Note_on_c, 0, 65, 70
1, 11583, Note_on_c, 0, 65, 0
1, 11584, Note_on_c, 0, 67, 71
1, 11599, Note_on_c, 0, 67, 0
1, 11600, Note_on_c, 0, 69, 72
1, 11615, Note_on_c, 0, 69, 0
1, 11616, Note_on_c, 0, 65, 91
1, 11616, Note_on_c, 1, 57, 0
1, 11616, Note_on_c, 1, 53, 0
1, 11616, Note_on_c, 1, 53, 96
1, 11616, Note_on_c, 1, 48, 96
1, 11616, Note_on_c, 1, 45, 96
1, 11616, Note_on_c, 1, 41, 96
1, 11664, Note_on_c, 0, 65, 0
1, 11664, Note_on_c, 0, 65, 75
1, 11679, Note_on_c, 0, 65, 0
1, 11680, Note_on_c, 0, 67, 75
1, 11695, Note_on_c, 0, 67, 0
1, 11696, Note_on_c, 0, 69, 75
1, 11711, Note_on_c, 0, 69, 0
1, 11712, Note_on_c, 0, 65, 91
1, 11712, Note_on_c, 1, 53, 0
1, 11712, Note_on_c, 1, 48, 0
1, 11712, Note_on_c, 1, 45, 0
1, 11712, Note_on_c, 1, 41, 0
1, 11712, Note_on_c, 1, 53, 96
1, 11712, Note_on_c, 1, 48, 96
1, 11712, Note_on_c, 1, 45, 96
1, 11712, Note_on_c, 1, 41, 96
1, 11808, Note_on_c, 0, 65, 0
1, 11808, Note_on_c, 1, 53, 0
1, 11808, Note_on_c, 1, 48, 0
1, 11808, Note_on_c, 1, 45, 0
1, 11808, Note_on_c, 1, 41, 0
1, 11856, Note_on_c, 0, 70, 80
1, 11856, Note_on_c, 0, 62, 80
1, 11901, Note_on_c, 0, 70, 0
1, 11901, Note_on_c, 0, 62, 0
1, 11904, Note_on_c, 0, 70, 80
1, 11904, Note_on_c, 0, 62, 80
1, 11904, Note_on_c, 1, 58, 80
1, 11904, Note_on_c, 1, 46, 80
1, 11952, Note_on_c, 0, 62, 0
1, 11952, Note_on_c, 0, 74, 80
1, 11997, Note_on_c, 0, 74, 0
1, 11997, Note_on_c, 0, 70, 0
1, 12000, Note_on_c, 0, 74, 80
1, 12000, Note_on_c, 0, 70, 80
1, 12048, Note_on_c, 0, 70, 0
1, 12048, Note_on_c, 0, 77, 80
1, 12081, Note_on_c, 1, 58, 0
1, 12081, Note_on_c, 1, 46, 0
1, 12093, Note_on_c, 0, 77, 0
1, 12093, Note_on_c, 0, 74, 0
1, 12096, Note_on_c, 0, 77, 80
1, 12096, Note_on_c, 0, 74, 64
1, 12144, Note_on_c, 1, 58, 80
1, 12189, Note_on_c, 1, 58, 0
1, 12192, Note_on_c, 1, 46, 80
1, 12229, Note_on_c, 0, 77, 0
1, 12229, Note_on_c, 0, 74, 0
1, 12240, Note_on_c, 0, 75, 80
1, 12240, Note_on_c, 0, 72, 64
1, 12255, Note_on_c, 0, 75, 0
1, 12256, Note_on_c, 0, 77, 80
1, 12271, Note_on_c, 0, 77, 0
1, 12272, Note_on_c, 0, 79, 80
1, 12281, Note_on_c, 1, 46, 0
1, 12285, Note_on_c, 0, 72, 0
1, 12287, Note_on_c, 0, 79, 0
1, 12288, Note_on_c, 0, 77, 80
1, 12288, Note_on_c, 0, 74, 64
1, 12336, Note_on_c, 1, 58, 80
1, 12381, Note_on_c, 1, 58, 0
1, 12384, Note_on_c, 1, 46, 80
1, 12421, Note_on_c, 0, 77, 0
1, 12421, Note_on_c, 0, 74, 0
1, 12432, Note_on_c, 0, 75, 80
1, 12432, Note_on_c, 0, 72, 64
1, 12447, Note_on_c, 0, 75, 0
1, 12448, Note_on_c, 0, 77, 80
1, 12463, Note_on_c, 0, 77, 0
1, 12464, Note_on_c, 0, 79, 80
1, 12473, Note_on_c, 1, 46, 0
1, 12477, Note_on_c, 0, 72, 0
1, 12479, Note_on_c, 0, 79, 0
1, 12480, Note_on_c, 0, 77, 80
1, 12480, Note_on_c, 0, 74, 64
1, 12525, Note_on_c, 0, 77, 0
1, 12528, Note_on_c, 0, 82, 80
1, 12528, Note_on_c, 1, 58, 80
1, 12569, Note_on_c, 0, 74, 0
1, 12573, Note_on_c, 0, 82, 0
1, 12573, Note_on_c, 1, 58, 0
1, 12576, Note_on_c, 1, 46, 80
1, 12621, Note_on_c, 1, 46, 0
1, 12624, Note_on_c, 0, 70, 75
1, 12624, Note_on_c, 1, 62, 70
1, 12624, Note_on_c, 1, 58, 70
1, 12639, Note_on_c, 0, 70, 0
1, 12640, Note_on_c, 0, 72, 75
1, 12655, Note_on_c, 0, 72, 0
1, 12656, Note_on_c, 0, 70, 75
1, 12669, Note_on_c, 1, 62, 0
1, 12669, Note_on_c, 1, 58, 0
1, 12671, Note_on_c, 0, 70, 0
1, 12672, Note_on_c, 0, 67, 75
1, 12672, Note_on_c, 1, 63, 70
1, 12672, Note_on_c, 1, 58, 70
1, 12717, Note_on_c, 0, 67, 0
1, 12720, Note_on_c, 0, 70, 75
1, 12735, Note_on_c, 0, 70, 0
1, 12736, Note_on_c, 0, 72, 75
1, 12751, Note_on_c, 0, 72, 0
1, 12752, Note_on_c, 0, 70, 75
1, 12761, Note_on_c, 1, 63, 0
1, 12761, Note_on_c, 1, 58, 0
1, 12767, Note_on_c, 0, 70, 0
1, 12768, Note_on_c, 0, 65, 75
1, 12768, Note_on_c, 1, 62, 70
1, 12768, Note_on_c, 1, 58, 70
1, 12813, Note_on_c, 0, 65, 0
1, 12816, Note_on_c, 0, 77, 75
1, 12831, Note_on_c, 0, 77, 0
1, 12832, Note_on_c, 0, 74, 75
1, 12847, Note_on_c, 0, 74, 0
1, 12848, Note_on_c, 0, 70, 75
1, 12857, Note_on_c, 1, 62, 0
1, 12857, Note_on_c, 1, 58, 0
1, 12863, Note_on_c, 0, 70, 0
1, 12864, Note_on_c, 0, 65, 75
1, 12912, Note_on_c, 1, 58, 70
1, 12927, Note_on_c, 1, 58, 0
1, 12928, Note_on_c, 1, 60, 70
1, 12943, Note_on_c, 1, 60, 0
1, 12944, Note_on_c, 1, 62, 70
1, 12953, Note_on_c, 0, 65, 0
1, 12959, Note_on_c, 1, 62, 0
1, 12960, Note_on_c, 0, 63, 75
1, 12960, Note_on_c, 1, 60, 70
1, 12973, Note_on_c, 0, 63, 0
1, 12974, Note_on_c, 0, 65, 75
1, 12987, Note_on_c, 0, 65, 0
1, 12988, Note_on_c, 0, 63, 75
1, 13001, Note_on_c, 0, 63, 0
1, 13002, Note_on_c, 0, 65, 75
1, 13005, Note_on_c, 1, 60, 0
1, 13008, Note_on_c, 1, 53, 70
1, 13015, Note_on_c, 0, 65, 0
1, 13016, Note_on_c, 0, 63, 75
1, 13029, Note_on_c, 0, 63, 0
1, 13030, Note_on_c, 0, 62, 75
1, 13042, Note_on_c, 0, 62, 0
1, 13043, Note_on_c, 0, 63, 75
1, 13053, Note_on_c, 1, 53, 0
1, 13055, Note_on_c, 0, 63, 0
1, 13056, Note_on_c, 0, 62, 75
1, 13056, Note_on_c, 1, 58, 70
1, 13101, Note_on_c, 0, 62, 0
1, 13101, Note_on_c, 1, 58, 0
1, 13104, Note_on_c, 0, 63, 75
1, 13104, Note_on_c, 1, 60, 70
1, 13119, Note_on_c, 0, 63, 0
1, 13120, Note_on_c, 0, 65, 75
1, 13135, Note_on_c, 0, 65, 0
1, 13136, Note_on_c, 0, 67, 75
1, 13149, Note_on_c, 1, 60, 0
1, 13151, Note_on_c, 0, 67, 0
1, 13152, Note_on_c, 0, 65, 75
1, 13152, Note_on_c, 1, 62, 70
1, 13172, Note_on_c, 0, 65, 0
1, 13197, Note_on_c, 1, 62, 0
1, 13200, Note_on_c, 0, 70, 75
1, 13200, Note_on_c, 1, 62, 70
1, 13200, Note_on_c, 1, 58, 70
1, 13215, Note_on_c, 0, 70, 0
1, 13216, Note_on_c, 0, 72, 75
1, 13231, Note_on_c, 0, 72, 0
1, 13232, Note_on_c, 0, 70, 75
1, 13245, Note_on_c, 1, 62, 0
1, 13245, Note_on_c, 1, 58, 0
1, 13247, Note_on_c, 0, 70, 0
1, 13248, Note_on_c, 0, 67, 75
1, 13248, Note_on_c, 1, 63, 70
1, 13248, Note_on_c, 1, 58, 70
1, 13293, Note_on_c, 0, 67, 0
1, 13296, Note_on_c, 0, 70, 75
1, 13311, Note_on_c, 0, 70, 0
1, 13312, Note_on_c, 0, 72, 75
1, 13327, Note_on_c, 0, 72, 0
1, 13328, Note_on_c, 0, 70, 75
1, 13337, Note_on_c, 1, 63, 0
1, 13337, Note_on_c, 1, 58, 0
1, 13343, Note_on_c, 0, 70, 0
1, 13344, Note_on_c, 0, 65, 75
1, 13344, Note_on_c, 1, 62, 70
1, 13344, Note_on_c, 1, 58, 70
1, 13389, Note_on_c, 0, 65, 0
1, 13392, Note_on_c, 0, 77, 75
1, 13407, Note_on_c, 0, 77, 0
1, 13408, Note_on_c, 0, 74, 75
1, 13423, Note_on_c, 0, 74, 0
1, 13424, Note_on_c, 0, 70, 75
1, 13433, Note_on_c, 1, 62, 0
1, 13433, Note_on_c, 1, 58, 0
1, 13439, Note_on_c, 0, 70, 0
1, 13440, Note_on_c, 0, 65, 75
1, 13488, Note_on_c, 1, 58, 70
1, 13503, Note_on_c, 1, 58, 0
1, 13504, Note_on_c, 1, 60, 70
1, 13519, Note_on_c, 1, 60, 0
1, 13520, Note_on_c, 1, 62, 70
1, 13529, Note_on_c, 0, 65, 0
1, 13535, Note_on_c, 1, 62, 0
1, 13536, Note_on_c, 0, 63, 75
1, 13536, Note_on_c, 1, 60, 70
1, 13549, Note_on_c, 0, 63, 0
1, 13550, Note_on_c, 0, 65, 75
1, 13563, Note_on_c, 0, 65, 0
1, 13564, Note_on_c, 0, 63, 75
1, 13577, Note_on_c, 0, 63, 0
1, 13578, Note_on_c, 0, 65, 75
1, 13581, Note_on_c, 1, 60, 0
1, 13584, Note_on_c, 1, 53, 70
1, 13591, Note_on_c, 0, 65, 0
1, 13592, Note_on_c, 0, 63, 75
1, 13605, Note_on_c, 0, 63, 0
1, 13606, Note_on_c, 0, 62, 75
1, 13618, Note_on_c, 0, 62, 0
1, 13619, Note_on_c, 0, 63, 75
1, 13629, Note_on_c, 1, 53, 0
1, 13631, Note_on_c, 0, 63, 0
1, 13632, Note_on_c, 0, 62, 75
1, 13632, Note_on_c, 1, 58, 70
1, 13677, Note_on_c, 1, 58, 0
1, 13680, Note_on_c, 1, 50, 70
1, 13695, Note_on_c, 1, 50, 0
1, 13696, Note_on_c, 1, 51, 70
1, 13711, Note_on_c, 1, 51, 0
1, 13712, Note_on_c, 1, 53, 70
1, 13721, Note_on_c, 0, 62, 0
1, 13727, Note_on_c, 1, 53, 0
1, 13728, Note_on_c, 1, 46, 70
1, 13817, Note_on_c, 1, 46, 0
1, 13824, Note_on_c, 0, 65, 75
1, 13836, Note_on_c, 0, 65, 0
1, 13836, Note_on_c, 0, 67, 75
1, 13848, Note_on_c, 0, 67, 0
1, 13848, Note_on_c, 0, 68, 75
1, 13872, Note_on_c, 1, 62, 64
1, 13872, Note_on_c, 1, 58, 64
1, 13919, Note_on_c, 1, 62, 0
1, 13919, Note_on_c, 1, 58, 0
1, 13920, Note_on_c, 1, 62, 64
1, 13920, Note_on_c, 1, 58, 64
1, 13967, Note_on_c, 1, 62, 0
1, 13967, Note_on_c, 1, 58, 0
1, 13968, Note_on_c, 1, 62, 64
1, 13968, Note_on_c, 1, 58, 64
1, 14001, Note_on_c, 0, 68, 0
1, 14015, Note_on_c, 1, 62, 0
1, 14015, Note_on_c, 1, 58, 0
1, 14016, Note_on_c, 0, 67, 75
1, 14028, Note_on_c, 0, 67, 0
1, 14028, Note_on_c, 0, 69, 75
1, 14040, Note_on_c, 0, 69, 0
1, 14040, Note_on_c, 0, 70, 75
1, 14064, Note_on_c, 1, 63, 75
1, 14064, Note_on_c, 1, 51, 75
1, 14107, Note_on_c, 0, 70, 0
1, 14109, Note_on_c, 1, 63, 0
1, 14109, Note_on_c, 1, 51, 0
1, 14112, Note_on_c, 0, 69, 75
1, 14124, Note_on_c, 0, 69, 0
1, 14124, Note_on_c, 0, 70, 75
1, 14136, Note_on_c, 0, 70, 0
1, 14136, Note_on_c, 0, 72, 75
1, 14160, Note_on_c, 1, 53, 75
1, 14160, Note_on_c, 1, 41, 75
1, 14203, Note_on_c, 0, 72, 0
1, 14205, Note_on_c, 1, 53, 0
1, 14205, Note_on_c, 1, 41, 0
1, 14208, Note_on_c, 0, 70, 75
1, 14220, Note_on_c, 0, 70, 0
1, 14220, Note_on_c, 0, 72, 75
1, 14232, Note_on_c, 0, 72, 0
1, 14232, Note_on_c, 0, 74, 75
1, 14256, Note_on_c, 1, 55, 75
1, 14256, Note_on_c, 1, 43, 75
1, 14299, Note_on_c, 0, 74, 0
1, 14301, Note_on_c, 1, 55, 0
1, 14301, Note_on_c, 1, 43, 0
1, 14304, Note_on_c, 0, 72, 75
1, 14316, Note_on_c, 0, 72, 0
1, 14316, Note_on_c, 0, 74, 75
1, 14328, Note_on_c, 0, 74, 0
1, 14328, Note_on_c, 0, 75, 75
1, 14352, Note_on_c, 1, 57, 75
1, 14352, Note_on_c, 1, 45, 75
1, 14395, Note_on_c, 0, 75, 0
1, 14397, Note_on_c, 1, 57, 0
1, 14397, Note_on_c, 1, 45, 0
1, 14400, Note_on_c, 0, 74, 75
1, 14400, Note_on_c, 1, 58, 75
1, 14400, Note_on_c, 1, 46, 75
1, 14423, Note_on_c, 0, 74, 0
1, 14424, Note_on_c, 0, 77, 75
1, 14447, Note_on_c, 0, 77, 0
1, 14448, Note_on_c, 0, 75, 75
1, 14454, Note_on_c, 0, 75, 0
1, 14454, Note_on_c, 0, 77, 75
1, 14460, Note_on_c, 0, 77, 0
1, 14460, Note_on_c, 0, 75, 75
1, 14471, Note_on_c, 0, 75, 0
1, 14472, Note_on_c, 0, 74, 75
1, 14489, Note_on_c, 1, 58, 0
1, 14489, Note_on_c, 1, 46, 0
1, 14495, Note_on_c, 0, 74, 0
1, 14496, Note_on_c, 0, 82, 75
1, 14541, Note_on_c, 0, 82, 0
1, 14544, Note_on_c, 0, 74, 75
1, 14544, Note_on_c, 0, 70, 75
1, 14544, Note_on_c, 1, 64, 75
1, 14589, Note_on_c, 0, 74, 0
1, 14589, Note_on_c, 0, 70, 0
1, 14589, Note_on_c, 1, 64, 0
1, 14592, Note_on_c, 0, 75, 75
1, 14592, Note_on_c, 1, 65, 75
1, 14598, Note_on_c, 0, 75, 0
1, 14598, Note_on_c, 0, 74, 75
1, 14598, Note_on_c, 0, 70, 75
1, 14637, Note_on_c, 0, 74, 0
1, 14637, Note_on_c, 0, 70, 0
1, 14637, Note_on_c, 1, 65, 0
1, 14640, Note_on_c, 0, 72, 75
1, 14640, Note_on_c, 0, 69, 75
1, 14640, Note_on_c, 1, 53, 75
1, 14685, Note_on_c, 0, 72, 0
1, 14685, Note_on_c, 0, 69, 0
1, 14685, Note_on_c, 1, 53, 0
1, 14784, Note_on_c, 0, 65, 75
1, 14796, Note_on_c, 0, 65, 0
1, 14796, Note_on_c, 0, 67, 75
1, 14808, Note_on_c, 0, 67, 0
1, 14808, Note_on_c, 0, 68, 75
1, 14832, Note_on_c, 1, 62, 64
1, 14832, Note_on_c, 1, 58, 64
1, 14879, Note_on_c, 1, 62, 0
1, 14879, Note_on_c, 1, 58, 0
1, 14880, Note_on_c, 1, 62, 64
1, 14880, Note_on_c, 1, 58, 64
1, 14927, Note_on_c, 1, 62, 0
1, 14927, Note_on_c, 1, 58, 0
1, 14928, Note_on_c, 1, 62, 64
1, 14928, Note_on_c, 1, 58, 64
1, 14961, Note_on_c, 0, 68, 0
1, 14975, Note_on_c, 1, 62, 0
1, 14975, Note_on_c, 1, 58, 0
1, 14976, Note_on_c, 0, 68, 75
1, 14976, Note_on_c, 1, 63, 64
1, 15000, Note_on_c, 0, 68, 0
1, 15000, Note_on_c, 0, 67, 75
1, 15021, Note_on_c, 1, 63, 0
1, 15023, Note_on_c, 0, 67, 0
1, 15024, Note_on_c, 0, 67, 75
1, 15024, Note_on_c, 1, 51, 64
1, 15048, Note_on_c, 0, 67, 0
1, 15048, Note_on_c, 0, 70, 75
1, 15069, Note_on_c, 1, 51, 0
1, 15071, Note_on_c, 0, 70, 0
1, 15072, Note_on_c, 0, 70, 75
1, 15072, Note_on_c, 1, 53, 65
1, 15096, Note_on_c, 0, 70, 0
1, 15096, Note_on_c, 0, 69, 75
1, 15117, Note_on_c, 1, 53, 0
1, 15119, Note_on_c, 0, 69, 0
1, 15120, Note_on_c, 0, 69, 75
1, 15120, Note_on_c, 1, 41, 66
1, 15144, Note_on_c, 0, 69, 0
1, 15144, Note_on_c, 0, 72, 75
1, 15165, Note_on_c, 1, 41, 0
1, 15167, Note_on_c, 0, 72, 0
1, 15168, Note_on_c, 0, 72, 76
1, 15168, Note_on_c, 1, 43, 67
1, 15192, Note_on_c, 0, 72, 0
1, 15192, Note_on_c, 0, 70, 76
1, 15213, Note_on_c, 1, 43, 0
1, 15215, Note_on_c, 0, 70, 0
1, 15216, Note_on_c, 0, 70, 76
1, 15216, Note_on_c, 1, 55, 68
1, 15240, Note_on_c, 0, 70, 0
1, 15240, Note_on_c, 0, 74, 76
1, 15261, Note_on_c, 1, 55, 0
1, 15263, Note_on_c, 0, 74, 0
1, 15264, Note_on_c, 0, 74, 76
1, 15264, Note_on_c, 1, 57, 69
1, 15288, Note_on_c, 0, 74, 0
1, 15288, Note_on_c, 0, 72, 76
1, 15309, Note_on_c, 1, 57, 0
1, 15311, Note_on_c, 0, 72, 0
1, 15312, Note_on_c, 0, 72, 76
1, 15312, Note_on_c, 1, 45, 69
1, 15336, Note_on_c, 0, 72, 0
1, 15336, Note_on_c, 0, 75, 77
1, 15357, Note_on_c, 1, 45, 0
1, 15359, Note_on_c, 0, 75, 0
1, 15360, Note_on_c, 0, 75, 77
1, 15360, Note_on_c, 1, 46, 70
1, 15384, Note_on_c, 0, 75, 0
1, 15384, Note_on_c, 0, 74, 77
1, 15405, Note_on_c, 1, 46, 0
1, 15407, Note_on_c, 0, 74, 0
1, 15408, Note_on_c, 0, 74, 77
1, 15408, Note_on_c, 1, 58, 71
1, 15432, Note_on_c, 0, 74, 0
1, 15432, Note_on_c, 0, 77, 77
1, 15453, Note_on_c, 1, 58, 0
1, 15455, Note_on_c, 0, 77, 0
1, 15456, Note_on_c, 0, 77, 77
1, 15456, Note_on_c, 1, 60, 72
1, 15480, Note_on_c, 0, 77, 0
1, 15480, Note_on_c, 0, 75, 77
1, 15501, Note_on_c, 1, 60, 0
1, 15503, Note_on_c, 0, 75, 0
1, 15504, Note_on_c, 0, 75, 78
1, 15504, Note_on_c, 1, 48, 73
1, 15528, Note_on_c, 0, 75, 0
1, 15528, Note_on_c, 0, 79, 78
1, 15549, Note_on_c, 1, 48, 0
1, 15551, Note_on_c, 0, 79, 0
1, 15552, Note_on_c, 0, 79, 78
1, 15552, Note_on_c, 1, 50, 74
1, 15576, Note_on_c, 0, 79, 0
1, 15576, Note_on_c, 0, 77, 78
1, 15597, Note_on_c, 1, 50, 0
1, 15599, Note_on_c, 0, 77, 0
1, 15600, Note_on_c, 0, 77, 78
1, 15600, Note_on_c, 1, 62, 74
1, 15624, Note_on_c, 0, 77, 0
1, 15624, Note_on_c, 0, 82, 78
1, 15645, Note_on_c, 1, 62, 0
1, 15647, Note_on_c, 0, 82, 0
1, 15648, Note_on_c, 0, 82, 78
1, 15696, Note_on_c, 1, 58, 76
1, 15715, Note_on_c, 0, 82, 0
1, 15720, Note_on_c, 0, 74, 79
1, 15741, Note_on_c, 1, 58, 0
1, 15743, Note_on_c, 0, 74, 0
1, 15744, Note_on_c, 0, 74, 79
1, 15744, Note_on_c, 1, 63, 77
1, 15768, Note_on_c, 0, 74, 0
1, 15768, Note_on_c, 0, 72, 79
1, 15791, Note_on_c, 0, 72, 0
1, 15792, Note_on_c, 0, 72, 79
1, 15816, Note_on_c, 0, 72, 0
1, 15816, Note_on_c, 0, 79, 79
1, 15839, Note_on_c, 0, 79, 0
1, 15840, Note_on_c, 0, 79, 80
1, 15888, Note_on_c, 1, 63, 0
1, 15888, Note_on_c, 1, 64, 80
1, 15907, Note_on_c, 0, 79, 0
1, 15912, Note_on_c, 0, 70, 80
1, 15933, Note_on_c, 1, 64, 0
1, 15935, Note_on_c, 0, 70, 0
1, 15936, Note_on_c, 0, 70, 80
1, 15936, Note_on_c, 1, 65, 80
1, 15981, Note_on_c, 1, 65, 0
1, 15984, Note_on_c, 1, 60, 80
1, 16007, Note_on_c, 1, 60, 0
1, 16008, Note_on_c, 1, 57, 80
1, 16025, Note_on_c, 0, 70, 0
1, 16031, Note_on_c, 1, 57, 0
1, 16032, Note_on_c, 0, 69, 80
1, 16032, Note_on_c, 1, 53, 80
1, 16077, Note_on_c, 0, 69, 0
1, 16080, Note_on_c, 0, 77, 70
1, 16095, Note_on_c, 0, 77, 0
1, 16096, Note_on_c, 0, 79, 70
1, 16111, Note_on_c, 0, 79, 0
1, 16112, Note_on_c, 0, 77, 70
1, 16121, Note_on_c, 1, 53, 0
1, 16127, Note_on_c, 0, 77, 0
1, 16128, Note_on_c, 0, 65, 70
1, 16148, Note_on_c, 0, 65, 0
1, 16176, Note_on_c, 0, 65, 70
1, 16176, Note_on_c, 1, 60, 64
1, 16176, Note_on_c, 1, 57, 64
1, 16196, Note_on_c, 0, 65, 0
1, 16223, Note_on_c, 1, 60, 0
1, 16223, Note_on_c, 1, 57, 0
1, 16224, Note_on_c, 1, 60, 64
1, 16224, Note_on_c, 1, 57, 64
1, 16271, Note_on_c, 1, 60, 0
1, 16271, Note_on_c, 1, 57, 0
1, 16272, Note_on_c, 0, 77, 70
1, 16272, Note_on_c, 1, 60, 64
1, 16272, Note_on_c, 1, 57, 64
1, 16287, Note_on_c, 0, 77, 0
1, 16288, Note_on_c, 0, 79, 70
1, 16303, Note_on_c, 0, 79, 0
1, 16304, Note_on_c, 0, 77, 70
1, 16319, Note_on_c, 0, 77, 0
1, 16319, Note_on_c, 1, 60, 0
1, 16319, Note_on_c, 1, 57, 0
1, 16320, Note_on_c, 0, 67, 70
1, 16340, Note_on_c, 0, 67, 0
1, 16368, Note_on_c, 0, 67, 70
1, 16368, Note_on_c, 1, 62, 64
1, 16368, Note_on_c, 1, 58, 64
1, 16388, Note_on_c, 0, 67, 0
1, 16415, Note_on_c, 1, 62, 0
1, 16415, Note_on_c, 1, 58, 0
1, 16416, Note_on_c, 1, 62, 64
1, 16416, Note_on_c, 1, 58, 64
1, 16463, Note_on_c, 1, 62, 0
1, 16463, Note_on_c, 1, 58, 0
1, 16464, Note_on_c, 0, 77, 70
1, 16464, Note_on_c, 1, 62, 64
1, 16464, Note_on_c, 1, 58, 64
1, 16479, Note_on_c, 0, 77, 0
1, 16480, Note_on_c, 0, 79, 70
1, 16495, Note_on_c, 0, 79, 0
1, 16496, Note_on_c, 0, 77, 70
1, 16511, Note_on_c, 0, 77, 0
1, 16511, Note_on_c, 1, 62, 0
1, 16511, Note_on_c, 1, 58, 0
1, 16512, Note_on_c, 0, 69, 75
1, 16532, Note_on_c, 0, 69, 0
1, 16560, Note_on_c, 0, 69, 75
1, 16560, Note_on_c, 1, 63, 65
1, 16560, Note_on_c, 1, 60, 65
1, 16580, Note_on_c, 0, 69, 0
1, 16607, Note_on_c, 1, 63, 0
1, 16607, Note_on_c, 1, 60, 0
1, 16608, Note_on_c, 1, 63, 67
1, 16608, Note_on_c, 1, 60, 67
1, 16655, Note_on_c, 1, 63, 0
1, 16655, Note_on_c, 1, 60, 0
1, 16656, Note_on_c, 0, 77, 76
1, 16656, Note_on_c, 1, 63, 69
1, 16656, Note_on_c, 1, 60, 69
1, 16671, Note_on_c, 0, 77, 0
1, 16672, Note_on_c, 0, 79, 76
1, 16687, Note_on_c, 0, 79, 0
1, 16688, Note_on_c, 0, 77, 76
1, 16703, Note_on_c, 0, 77, 0
1, 16703, Note_on_c, 1, 63, 0
1, 16703, Note_on_c, 1, 60, 0
1, 16704, Note_on_c, 0, 70, 77
1, 16724, Note_on_c, 0, 70, 0
1, 16752, Note_on_c, 0, 70, 77
1, 16752, Note_on_c, 1, 65, 72
1, 16752, Note_on_c, 1, 62, 72
1, 16772, Note_on_c, 0, 70, 0
1, 16799, Note_on_c, 1, 65, 0
1, 16799, Note_on_c, 1, 62, 0
1, 16800, Note_on_c, 1, 65, 74
1, 16800, Note_on_c, 1, 62, 74
1, 16847, Note_on_c, 1, 65, 0
1, 16847, Note_on_c, 1, 62, 0
1, 16848, Note_on_c, 0, 77, 78
1, 16848, Note_on_c, 1, 65, 76
1, 16848, Note_on_c, 1, 62, 76
1, 16863, Note_on_c, 0, 77, 0
1, 16864, Note_on_c, 0, 79, 78
1, 16879, Note_on_c, 0, 79, 0
1, 16880, Note_on_c, 0, 77, 79
1, 16895, Note_on_c, 0, 77, 0
1, 16895, Note_on_c, 1, 65, 0
1, 16895, Note_on_c, 1, 62, 0
1, 16896, Note_on_c, 0, 71, 79
1, 16916, Note_on_c, 0, 71, 0
1, 16944, Note_on_c, 0, 80, 96
1, 16944, Note_on_c, 1, 65, 80
1, 16944, Note_on_c, 1, 61, 80
1, 16989, Note_on_c, 1, 61, 0
1, 16991, Note_on_c, 1, 65, 0
1, 16992, Note_on_c, 1, 65, 80
1, 16992, Note_on_c, 1, 61, 80
1, 17039, Note_on_c, 1, 65, 0
1, 17040, Note_on_c, 0, 80, 0
1, 17040, Note_on_c, 0, 79, 70
1, 17040, Note_on_c, 1, 71, 70
1, 17063, Note_on_c, 0, 79, 0
1, 17064, Note_on_c, 0, 77, 70
1, 17081, Note_on_c, 1, 61, 0
1, 17087, Note_on_c, 0, 77, 0
1, 17087, Note_on_c, 1, 71, 0
1, 17088, Note_on_c, 0, 77, 71
1, 17088, Note_on_c, 1, 72, 71
1, 17088, Note_on_c, 1, 60, 80
1, 17133, Note_on_c, 1, 60, 0
1, 17136, Note_on_c, 1, 64, 80
1, 17151, Note_on_c, 1, 64, 0
1, 17152, Note_on_c, 1, 65, 80
1, 17167, Note_on_c, 1, 65, 0
1, 17168, Note_on_c, 1, 67, 80
1, 17177, Note_on_c, 1, 72, 0
1, 17183, Note_on_c, 1, 67, 0
1, 17184, Note_on_c, 0, 77, 0
1, 17184, Note_on_c, 0, 76, 73
1, 17184, Note_on_c, 1, 60, 80
1, 17229, Note_on_c, 0, 76, 0
1, 17232, Note_on_c, 0, 77, 75
1, 17247, Note_on_c, 0, 77, 0
1, 17248, Note_on_c, 0, 79, 75
1, 17263, Note_on_c, 0, 79, 0
1, 17264, Note_on_c, 0, 77, 75
1, 17273, Note_on_c, 1, 60, 0
1, 17279, Note_on_c, 0, 77, 0
1, 17280, Note_on_c, 0, 71, 75
1, 17300, Note_on_c, 0, 71, 0
1, 17328, Note_on_c, 0, 80, 93
1, 17328, Note_on_c, 1, 65, 78
1, 17328, Note_on_c, 1, 61, 80
1, 17373, Note_on_c, 1, 61, 0
1, 17375, Note_on_c, 1, 65, 0
1, 17376, Note_on_c, 1, 65, 80
1, 17376, Note_on_c, 1, 61, 80
1, 17423, Note_on_c, 1, 65, 0
1, 17424, Note_on_c, 0, 80, 0
1, 17424, Note_on_c, 0, 79, 80
1, 17424, Note_on_c, 1, 71, 80
1, 17447, Note_on_c, 0, 79, 0
1, 17448, Note_on_c, 0, 77, 80
1, 17465, Note_on_c, 1, 61, 0
1, 17471, Note_on_c, 0, 77, 0
1, 17471, Note_on_c, 1, 71, 0
1, 17472, Note_on_c, 0, 77, 80
1, 17472, Note_on_c, 1, 72, 80
1, 17472, Note_on_c, 1, 60, 80
1, 17485, Note_on_c, 0, 77, 0
1, 17486, Note_on_c, 0, 79, 80
1, 17499, Note_on_c, 0, 79, 0
1, 17500, Note_on_c, 0, 77, 80
1, 17513, Note_on_c, 0, 77, 0
1, 17514, Note_on_c, 0, 79, 80
1, 17517, Note_on_c, 1, 60, 0
1, 17520, Note_on_c, 1, 64, 80
1, 17527, Note_on_c, 0, 79, 0
1, 17528, Note_on_c, 0, 77, 80
1, 17535, Note_on_c, 1, 64, 0
1, 17536, Note_on_c, 1, 65, 80
1, 17541, Note_on_c, 0, 77, 0
1, 17542, Note_on_c, 0, 76, 80
1, 17551, Note_on_c, 1, 65, 0
1, 17552, Note_on_c, 1, 67, 80
1, 17554, Note_on_c, 0, 76, 0
1, 17555, Note_on_c, 0, 77, 80
1, 17561, Note_on_c, 1, 72, 0
1, 17567, Note_on_c, 0, 77, 0
1, 17567, Note_on_c, 1, 67, 0
1, 17568, Note_on_c, 0, 76, 80
1, 17568, Note_on_c, 1, 60, 80
1, 17657, Note_on_c, 0, 76, 0
1, 17657, Note_on_c, 1, 60, 0
1, 17664, Note_on_c, 0, 77, 75
1, 17664, Note_on_c, 1, 65, 70
1, 17664, Note_on_c, 1, 57, 70
1, 17688, Note_on_c, 0, 77, 0
1, 17688, Note_on_c, 0, 76, 74
1, 17711, Note_on_c, 0, 76, 0
1, 17711, Note_on_c, 1, 65, 0
1, 17711, Note_on_c, 1, 57, 0
1, 17712, Note_on_c, 0, 76, 73
1, 17712, Note_on_c, 1, 65, 68
1, 17712, Note_on_c, 1, 57, 68
1, 17736, Note_on_c, 0, 76, 0
1, 17736, Note_on_c, 0, 74, 73
1, 17759, Note_on_c, 0, 74, 0
1, 17759, Note_on_c, 1, 65, 0
1, 17759, Note_on_c, 1, 57, 0
1, 17760, Note_on_c, 0, 74, 72
1, 17760, Note_on_c, 1, 65, 67
1, 17760, Note_on_c, 1, 57, 67
1, 17784, Note_on_c, 0, 74, 0
1, 17784, Note_on_c, 0, 72, 71
1, 17807, Note_on_c, 0, 72, 0
1, 17807, Note_on_c, 1, 65, 0
1, 17807, Note_on_c, 1, 57, 0
1, 17808, Note_on_c, 0, 72, 71
1, 17808, Note_on_c, 1, 65, 65
1, 17808, Note_on_c, 1, 57, 65
1, 17832, Note_on_c, 0, 72, 0
1, 17832, Note_on_c, 0, 73, 70
1, 17855, Note_on_c, 0, 73, 0
1, 17855, Note_on_c, 1, 65, 0
1, 17855, Note_on_c, 1, 57, 0
1, 17856, Note_on_c, 0, 73, 86
1, 17856, Note_on_c, 1, 65, 64
1, 17856, Note_on_c, 1, 58, 64
1, 17903, Note_on_c, 1, 65, 0
1, 17903, Note_on_c, 1, 58, 0
1, 17904, Note_on_c, 1, 65, 65
1, 17904, Note_on_c, 1, 58, 65
1, 17951, Note_on_c, 1, 65, 0
1, 17951, Note_on_c, 1, 58, 0
1, 17952, Note_on_c, 1, 65, 67
1, 17952, Note_on_c, 1, 58, 67
1, 17999, Note_on_c, 1, 65, 0
1, 17999, Note_on_c, 1, 58, 0
1, 18000, Note_on_c, 0, 73, 0
1, 18000, Note_on_c, 0, 74, 73
1, 18000, Note_on_c, 1, 65, 68
1, 18000, Note_on_c, 1, 58, 68
1, 18045, Note_on_c, 0, 74, 0
1, 18047, Note_on_c, 1, 65, 0
1, 18047, Note_on_c, 1, 58, 0
1, 18048, Note_on_c, 0, 77, 75
1, 18048, Note_on_c, 1, 65, 70
1, 18048, Note_on_c, 1, 57, 70
1, 18072, Note_on_c, 0, 77, 0
1, 18072, Note_on_c, 0, 76, 74
1, 18095, Note_on_c, 0, 76, 0
1, 18095, Note_on_c, 1, 65, 0
1, 18095, Note_on_c, 1, 57, 0
1, 18096, Note_on_c, 0, 76, 73
1, 18096, Note_on_c, 1, 65, 68
1, 18096, Note_on_c, 1, 57, 68
1, 18120, Note_on_c, 0, 76, 0
1, 18120, Note_on_c, 0, 74, 73
1, 18143, Note_on_c, 0, 74, 0
1, 18143, Note_on_c, 1, 65, 0
1, 18143, Note_on_c, 1, 57, 0
1, 18144, Note_on_c, 0, 74, 72
1, 18144, Note_on_c, 1, 65, 67
1, 18144, Note_on_c, 1, 57, 67
1, 18168, Note_on_c, 0, 74, 0
1, 18168, Note_on_c, 0, 72, 71
1, 18191, Note_on_c, 0, 72, 0
1, 18191, Note_on_c, 1, 65, 0
1, 18191, Note_on_c, 1, 57, 0
1, 18192, Note_on_c, 0, 72, 71
1, 18192, Note_on_c, 1, 65, 65
1, 18192, Note_on_c, 1, 57, 65
1, 18216, Note_on_c, 0, 72, 0
1, 18216, Note_on_c, 0, 73, 70
1, 18239, Note_on_c, 0, 73, 0
1, 18239, Note_on_c, 1, 65, 0
1, 18239, Note_on_c, 1, 57, 0
1, 18240, Note_on_c, 0, 73, 86
1, 18240, Note_on_c, 1, 65, 64
1, 18240, Note_on_c, 1, 58, 64
1, 18287, Note_on_c, 1, 65, 0
1, 18287, Note_on_c, 1, 58, 0
1, 18288, Note_on_c, 1, 65, 65
1, 18288, Note_on_c, 1, 58, 65
1, 18335, Note_on_c, 1, 65, 0
1, 18335, Note_on_c, 1, 58, 0
1, 18336, Note_on_c, 1, 65, 67
1, 18336, Note_on_c, 1, 58, 67
1, 18383, Note_on_c, 1, 65, 0
1, 18383, Note_on_c, 1, 58, 0
1, 18384, Note_on_c, 0, 73, 0
1, 18384, Note_on_c, 0, 74, 73
1, 18384, Note_on_c, 1, 65, 68
1, 18384, Note_on_c, 1, 58, 68
1, 18429, Note_on_c, 0, 74, 0
1, 18431, Note_on_c, 1, 65, 0
1, 18431, Note_on_c, 1, 58, 0
1, 18432, Note_on_c, 0, 77, 75
1, 18432, Note_on_c, 1, 65, 70
1, 18432, Note_on_c, 1, 57, 70
1, 18456, Note_on_c, 0, 77, 0
1, 18456, Note_on_c, 0, 76, 74
1, 18479, Note_on_c, 0, 76, 0
1, 18479, Note_on_c, 1, 65, 0
1, 18479, Note_on_c, 1, 57, 0
1, 18480, Note_on_c, 0, 76, 73
1, 18480, Note_on_c, 1, 65, 68
1, 18480, Note_on_c, 1, 57, 68
1, 18504, Note_on_c, 0, 76, 0
1, 18504, Note_on_c, 0, 74, 73
1, 18527, Note_on_c, 0, 74, 0
1, 18527, Note_on_c, 1, 65, 0
1, 18527, Note_on_c, 1, 57, 0
1, 18528, Note_on_c, 0, 74, 72
1, 18528, Note_on_c, 1, 65, 67
1, 18528, Note_on_c, 1, 57, 67
1, 18552, Note_on_c, 0, 74, 0
1, 18552, Note_on_c, 0, 72, 71
1, 18575, Note_on_c, 0, 72, 0
1, 18575, Note_on_c, 1, 65, 0
1, 18575, Note_on_c, 1, 57, 0
1, 18576, Note_on_c, 0, 72, 71
1, 18576, Note_on_c, 1, 65, 65
1, 18576, Note_on_c, 1, 57, 65
1, 18600, Note_on_c, 0, 72, 0
1, 18600, Note_on_c, 0, 71, 70
1, 18623, Note_on_c, 0, 71, 0
1, 18623, Note_on_c, 1, 65, 0
1, 18623, Note_on_c, 1, 57, 0
1, 18624, Note_on_c, 0, 71, 86
1, 18624, Note_on_c, 1, 65, 64
1, 18624, Note_on_c, 1, 55, 64
1, 18671, Note_on_c, 1, 65, 0
1, 18671, Note_on_c, 1, 55, 0
1, 18672, Note_on_c, 1, 65, 67
1, 18672, Note_on_c, 1, 55, 67
1, 18719, Note_on_c, 1, 65, 0
1, 18719, Note_on_c, 1, 55, 0
1, 18720, Note_on_c, 1, 65, 71
1, 18720, Note_on_c, 1, 55, 71
1, 18754, Note_on_c, 0, 71, 0
1, 18756, Note_on_c, 0, 81, 80
1, 18767, Note_on_c, 1, 65, 0
1, 18767, Note_on_c, 1, 55, 0
1, 18768, Note_on_c, 0, 81, 0
1, 18768, Note_on_c, 0, 71, 80
1, 18768, Note_on_c, 1, 65, 75
1, 18768, Note_on_c, 1, 55, 75
1, 18802, Note_on_c, 0, 71, 0
1, 18804, Note_on_c, 0, 81, 80
1, 18815, Note_on_c, 1, 65, 0
1, 18815, Note_on_c, 1, 55, 0
1, 18816, Note_on_c, 0, 81, 0
1, 18816, Note_on_c, 0, 71, 86
1, 18816, Note_on_c, 1, 65, 64
1, 18816, Note_on_c, 1, 55, 64
1, 18863, Note_on_c, 1, 65, 0
1, 18863, Note_on_c, 1, 55, 0
1, 18864, Note_on_c, 1, 65, 67
1, 18864, Note_on_c, 1, 55, 67
1, 18911, Note_on_c, 1, 65, 0
1, 18911, Note_on_c, 1, 55, 0
1, 18912, Note_on_c, 1, 65, 71
1, 18912, Note_on_c, 1, 55, 71
1, 18946, Note_on_c, 0, 71, 0
1, 18948, Note_on_c, 0, 81, 80
1, 18959, Note_on_c, 1, 65, 0
1, 18959, Note_on_c, 1, 55, 0
1, 18960, Note_on_c, 0, 81, 0
1, 18960, Note_on_c, 0, 71, 80
1, 18960, Note_on_c, 1, 65, 75
1, 18960, Note_on_c, 1, 55, 75
1, 18994, Note_on_c, 0, 71, 0
1, 18996, Note_on_c, 0, 81, 80
1, 19007, Note_on_c, 1, 65, 0
1, 19007, Note_on_c, 1, 55, 0
1, 19008, Note_on_c, 0, 81, 0
1, 19008, Note_on_c, 0, 70, 96
1, 19008, Note_on_c, 1, 64, 75
1, 19008, Note_on_c, 1, 60, 75
1, 19055, Note_on_c, 1, 64, 0
1, 19055, Note_on_c, 1, 60, 0
1, 19056, Note_on_c, 1, 64, 75
1, 19056, Note_on_c, 1, 60, 75
1, 19103, Note_on_c, 1, 64, 0
1, 19103, Note_on_c, 1, 60, 0
1, 19104, Note_on_c, 1, 64, 75
1, 19104, Note_on_c, 1, 60, 75
1, 19151, Note_on_c, 1, 64, 0
1, 19151, Note_on_c, 1, 60, 0
1, 19152, Note_on_c, 0, 70, 0
1, 19152, Note_on_c, 0, 74, 76
1, 19152, Note_on_c, 1, 64, 75
1, 19152, Note_on_c, 1, 60, 75
1, 19167, Note_on_c, 0, 74, 0
1, 19168, Note_on_c, 0, 72, 75
1, 19183, Note_on_c, 0, 72, 0
1, 19184, Note_on_c, 0, 70, 75
1, 19199, Note_on_c, 0, 70, 0
1, 19199, Note_on_c, 1, 64, 0
1, 19199, Note_on_c, 1, 60, 0
1, 19200, Note_on_c, 0, 69, 75
1, 19200, Note_on_c, 1, 65, 75
1, 19200, Note_on_c, 1, 53, 75
1, 19245, Note_on_c, 0, 69, 0
1, 19248, Note_on_c, 0, 77, 75
1, 19263, Note_on_c, 0, 77, 0
1, 19264, Note_on_c, 0, 79, 75
1, 19279, Note_on_c, 0, 79, 0
1, 19280, Note_on_c, 0, 77, 75
1, 19289, Note_on_c, 1, 65, 0
1, 19289, Note_on_c, 1, 53, 0
1, 19295, Note_on_c, 0, 77, 0
1, 19296, Note_on_c, 0, 74, 75
1, 19296, Note_on_c, 1, 58, 75
1, 19296, Note_on_c, 1, 46, 75
1, 19341, Note_on_c, 0, 74, 0
1, 19344, Note_on_c, 0, 82, 75
1, 19359, Note_on_c, 0, 82, 0
1, 19360, Note_on_c, 0, 84, 75
1, 19375, Note_on_c, 0, 84, 0
1, 19376, Note_on_c, 0, 82, 75
1, 19385, Note_on_c, 1, 58, 0
1, 19385, Note_on_c, 1, 46, 0
1, 19391, Note_on_c, 0, 82, 0
1, 19392, Note_on_c, 0, 72, 75
1, 19440, Note_on_c, 1, 53, 75
1, 19440, Note_on_c, 1, 45, 80
1, 19481, Note_on_c, 0, 72, 0
1, 19485, Note_on_c, 1, 45, 0
1, 19488, Note_on_c, 0, 81, 75
1, 19488, Note_on_c, 1, 46, 80
1, 19500, Note_on_c, 0, 81, 0
1, 19500, Note_on_c, 0, 79, 75
1, 19512, Note_on_c, 0, 79, 0
1, 19512, Note_on_c, 0, 81, 75
1, 19524, Note_on_c, 0, 81, 0
1, 19524, Note_on_c, 0, 79, 75
1, 19529, Note_on_c, 1, 53, 0
1, 19533, Note_on_c, 1, 46, 0
1, 19536, Note_on_c, 0, 79, 0
1, 19536, Note_on_c, 0, 81, 75
1, 19536, Note_on_c, 1, 52, 75
1, 19536, Note_on_c, 1, 48, 80
1, 19548, Note_on_c, 0, 81, 0
1, 19548, Note_on_c, 0, 79, 75
1, 19560, Note_on_c, 0, 79, 0
1, 19560, Note_on_c, 0, 77, 75
1, 19572, Note_on_c, 0, 77, 0
1, 19572, Note_on_c, 0, 79, 75
1, 19581, Note_on_c, 1, 52, 0
1, 19581, Note_on_c, 1, 48, 0
1, 19584, Note_on_c, 0, 79, 0
1, 19584, Note_on_c, 0, 77, 75
1, 19584, Note_on_c, 1, 53, 75
1, 19584, Note_on_c, 1, 41, 75
1, 19604, Note_on_c, 0, 77, 0
1, 19632, Note_on_c, 0, 77, 75
1, 19647, Note_on_c, 0, 77, 0
1, 19648, Note_on_c, 0, 79, 75
1, 19663, Note_on_c, 0, 79, 0
1, 19664, Note_on_c, 0, 77, 75
1, 19673, Note_on_c, 1, 53, 0
1, 19673, Note_on_c, 1, 41, 0
1, 19679, Note_on_c, 0, 77, 0
1, 19680, Note_on_c, 0, 74, 75
1, 19680, Note_on_c, 1, 58, 75
1, 19680, Note_on_c, 1, 46, 75
1, 19700, Note_on_c, 0, 74, 0
1, 19728, Note_on_c, 0, 82, 75
1, 19743, Note_on_c, 0, 82, 0
1, 19744, Note_on_c, 0, 84, 75
1, 19759, Note_on_c, 0, 84, 0
1, 19760, Note_on_c, 0, 82, 75
1, 19769, Note_on_c, 1, 58, 0
1, 19769, Note_on_c, 1, 46, 0
1, 19775, Note_on_c, 0, 82, 0
1, 19776, Note_on_c, 0, 72, 75
1, 19824, Note_on_c, 1, 53, 75
1, 19824, Note_on_c, 1, 45, 80
1, 19865, Note_on_c, 0, 72, 0
1, 19869, Note_on_c, 1, 45, 0
1, 19872, Note_on_c, 0, 81, 75
1, 19872, Note_on_c, 1, 46, 80
1, 19884, Note_on_c, 0, 81, 0
1, 19884, Note_on_c, 0, 79, 75
1, 19896, Note_on_c, 0, 79, 0
1, 19896, Note_on_c, 0, 81, 75
1, 19908, Note_on_c, 0, 81, 0
1, 19908, Note_on_c, 0, 79, 75
1, 19913, Note_on_c, 1, 53, 0
1, 19917, Note_on_c, 1, 46, 0
1, 19920, Note_on_c, 0, 79, 0
1, 19920, Note_on_c, 0, 81, 75
1, 19920, Note_on_c, 1, 52, 75
1, 19920, Note_on_c, 1, 48, 80
1, 19932, Note_on_c, 0, 81, 0
1, 19932, Note_on_c, 0, 79, 75
1, 19944, Note_on_c, 0, 79, 0
1, 19944, Note_on_c, 0, 77, 75
1, 19956, Note_on_c, 0, 77, 0
1, 19956, Note_on_c, 0, 79, 75
1, 19965, Note_on_c, 1, 52, 0
1, 19965, Note_on_c, 1, 48, 0
1, 19968, Note_on_c, 0, 79, 0
1, 19968, Note_on_c, 0, 77, 75
1, 19968, Note_on_c, 1, 53, 75
1, 20013, Note_on_c, 1, 53, 0
1, 20016, Note_on_c, 1, 48, 75
1, 20039, Note_on_c, 1, 48, 0
1, 20040, Note_on_c, 1, 45, 75
1, 20057, Note_on_c, 0, 77, 0
1, 20063, Note_on_c, 1, 45, 0
1, 20064, Note_on_c, 1, 41, 75
1, 20136, Note_on_c, 0, 77, 75
1, 20146, Note_on_c, 0, 77, 0
1, 20153, Note_on_c, 1, 41, 0
1, 20160, Note_on_c, 0, 65, 64
1, 20208, Note_on_c, 1, 57, 64
1, 20253, Note_on_c, 1, 57, 0
1, 20256, Note_on_c, 1, 60, 64
1, 20256, Note_on_c, 1, 57, 64
1, 20300, Note_on_c, 0, 65, 0
1, 20304, Note_on_c, 0, 66, 68
1, 20304, Note_on_c, 1, 60, 0
1, 20304, Note_on_c, 1, 61, 70
1, 20345, Note_on_c, 1, 57, 0
1, 20349, Note_on_c, 0, 66, 0
1, 20349, Note_on_c, 1, 61, 0
1, 20352, Note_on_c, 0, 67, 70
1, 20352, Note_on_c, 1, 62, 75
1, 20352, Note_on_c, 1, 58, 75
1, 20397, Note_on_c, 0, 67, 0
1, 20400, Note_on_c, 0, 69, 72
1, 20406, Note_on_c, 0, 69, 0
1, 20406, Note_on_c, 0, 70, 72
1, 20441, Note_on_c, 1, 62, 0
1, 20441, Note_on_c, 1, 58, 0
1, 20445, Note_on_c, 0, 70, 0
1, 20448, Note_on_c, 0, 73, 73
1, 20454, Note_on_c, 0, 73, 0
1, 20454, Note_on_c, 0, 74, 73
1, 20493, Note_on_c, 0, 74, 0
1, 20496, Note_on_c, 0, 78, 75
1, 20502, Note_on_c, 0, 78, 0
1, 20502, Note_on_c, 0, 79, 75
1, 20541, Note_on_c, 0, 79, 0
1, 20544, Note_on_c, 0, 81, 76
1, 20550, Note_on_c, 0, 81, 0
1, 20550, Note_on_c, 0, 82, 76
1, 20589, Note_on_c, 0, 82, 0
1, 20592, Note_on_c, 0, 85, 78
1, 20598, Note_on_c, 0, 85, 0
1, 20598, Note_on_c, 0, 86, 78
1, 20637, Note_on_c, 0, 86, 0
1, 20640, Note_on_c, 0, 84, 80
1, 20655, Note_on_c, 0, 84, 0
1, 20656, Note_on_c, 0, 82, 80
1, 20671, Note_on_c, 0, 82, 0
1, 20672, Note_on_c, 0, 81, 80
1, 20687, Note_on_c, 0, 81, 0
1, 20688, Note_on_c, 0, 82, 80
1, 20703, Note_on_c, 0, 82, 0
1, 20704, Note_on_c, 0, 81, 80
1, 20719, Note_on_c, 0, 81, 0
1, 20720, Note_on_c, 0, 79, 80
1, 20735, Note_on_c, 0, 79, 0
1, 20736, Note_on_c, 0, 72, 80
1, 20784, Note_on_c, 1, 57, 75
1, 20825, Note_on_c, 0, 72, 0
1, 20829, Note_on_c, 1, 57, 0
1, 20832, Note_on_c, 0, 81, 80
1, 20832, Note_on_c, 1, 58, 75
1, 20844, Note_on_c, 0, 81, 0
1, 20844, Note_on_c, 0, 79, 80
1, 20856, Note_on_c, 0, 79, 0
1, 20856, Note_on_c, 0, 81, 80
1, 20868, Note_on_c, 0, 81, 0
1, 20868, Note_on_c, 0, 79, 80
1, 20877, Note_on_c, 1, 58, 0
1, 20880, Note_on_c, 0, 79, 0
1, 20880, Note_on_c, 0, 81, 80
1, 20880, Note_on_c, 1, 60, 75
1, 20892, Note_on_c, 0, 81, 0
1, 20892, Note_on_c, 0, 79, 80
1, 20904, Note_on_c, 0, 79, 0
1, 20904, Note_on_c, 0, 77, 80
1, 20916, Note_on_c, 0, 77, 0
1, 20916, Note_on_c, 0, 79, 80
1, 20925, Note_on_c, 1, 60, 0
1, 20928, Note_on_c, 0, 79, 0
1, 20928, Note_on_c, 0, 77, 80
1, 20928, Note_on_c, 1, 53, 75
1, 20973, Note_on_c, 1, 53, 0
1, 20976, Note_on_c, 1, 65, 75
1, 21017, Note_on_c, 0, 77, 0
1, 21021, Note_on_c, 1, 65, 0
1, 21024, Note_on_c, 0, 84, 75
1, 21047, Note_on_c, 0, 84, 0
1, 21048, Note_on_c, 0, 72, 75
1, 21071, Note_on_c, 0, 72, 0
1, 21072, Note_on_c, 0, 84, 75
1, 21072, Note_on_c, 1, 69, 75
1, 21095, Note_on_c, 0, 84, 0
1, 21096, Note_on_c, 0, 72, 75
1, 21117, Note_on_c, 1, 69, 0
1, 21119, Note_on_c, 0, 72, 0
1, 21120, Note_on_c, 0, 82, 75
1, 21120, Note_on_c, 0, 84, 75
1, 21120, Note_on_c, 1, 67, 75
1, 21143, Note_on_c, 0, 82, 0
1, 21144, Note_on_c, 0, 72, 75
1, 21165, Note_on_c, 0, 84, 0
1, 21165, Note_on_c, 1, 67, 0
1, 21167, Note_on_c, 0, 72, 0
1, 21168, Note_on_c, 0, 82, 75
1, 21168, Note_on_c, 0, 84, 75
1, 21168, Note_on_c, 1, 65, 75
1, 21191, Note_on_c, 0, 82, 0
1, 21192, Note_on_c, 0, 72, 75
1, 21213, Note_on_c, 0, 84, 0
1, 21213, Note_on_c, 1, 65, 0
1, 21215, Note_on_c, 0, 72, 0
1, 21216, Note_on_c, 0, 82, 75
1, 21216, Note_on_c, 0, 84, 75
1, 21216, Note_on_c, 1, 64, 75
1, 21239, Note_on_c, 0, 82, 0
1, 21240, Note_on_c, 0, 72, 75
1, 21261, Note_on_c, 0, 84, 0
1, 21261, Note_on_c, 1, 64, 0
1, 21263, Note_on_c, 0, 72, 0
1, 21264, Note_on_c, 0, 82, 75
1, 21264, Note_on_c, 0, 84, 75
1, 21264, Note_on_c, 1, 67, 75
1, 21287, Note_on_c, 0, 82, 0
1, 21288, Note_on_c, 0, 72, 75
1, 21309, Note_on_c, 0, 84, 0
1, 21309, Note_on_c, 1, 67, 0
1, 21311, Note_on_c, 0, 72, 0
1, 21312, Note_on_c, 0, 84, 75
1, 21312, Note_on_c, 0, 81, 75
1, 21312, Note_on_c, 1, 65, 75
1, 21335, Note_on_c, 1, 65, 0
1, 21336, Note_on_c, 1, 60, 75
1, 21359, Note_on_c, 1, 60, 0
1, 21360, Note_on_c, 1, 57, 75
1, 21383, Note_on_c, 1, 57, 0
1, 21384, Note_on_c, 1, 53, 75
1, 21401, Note_on_c, 0, 84, 0
1, 21401, Note_on_c, 0, 81, 0
1, 21407, Note_on_c, 1, 53, 0
1, 21408, Note_on_c, 0, 84, 64
1, 21431, Note_on_c, 0, 84, 0
1, 21432, Note_on_c, 0, 72, 64
1, 21455, Note_on_c, 0, 72, 0
1, 21456, Note_on_c, 0, 84, 64
1, 21456, Note_on_c, 1, 69, 64
1, 21479, Note_on_c, 0, 84, 0
1, 21480, Note_on_c, 0, 72, 64
1, 21501, Note_on_c, 1, 69, 0
1, 21503, Note_on_c, 0, 72, 0
1, 21504, Note_on_c, 0, 82, 64
1, 21504, Note_on_c, 0, 84, 64
1, 21504, Note_on_c, 1, 67, 64
1, 21527, Note_on_c, 0, 82, 0
1, 21528, Note_on_c, 0, 72, 64
1, 21549, Note_on_c, 0, 84, 0
1, 21549, Note_on_c, 1, 67, 0
1, 21551, Note_on_c, 0, 72, 0
1, 21552, Note_on_c, 0, 82, 64
1, 21552, Note_on_c, 0, 84, 64
1, 21552, Note_on_c, 1, 65, 64
1, 21575, Note_on_c, 0, 82, 0
1, 21576, Note_on_c, 0, 72, 64
1, 21597, Note_on_c, 0, 84, 0
1, 21597, Note_on_c, 1, 65, 0
1, 21599, Note_on_c, 0, 72, 0
1, 21600, Note_on_c, 0, 82, 64
1, 21600, Note_on_c, 0, 84, 64
1, 21600, Note_on_c, 1, 64, 64
1, 21623, Note_on_c, 0, 82, 0
1, 21624, Note_on_c, 0, 72, 64
1, 21645, Note_on_c, 0, 84, 0
1, 21645, Note_on_c, 1, 64, 0
1, 21647, Note_on_c, 0, 72, 0
1, 21648, Note_on_c, 0, 82, 64
1, 21648, Note_on_c, 0, 84, 64
1, 21648, Note_on_c, 1, 67, 64
1, 21671, Note_on_c, 0, 82, 0
1, 21672, Note_on_c, 0, 72, 64
1, 21693, Note_on_c, 0, 84, 0
1, 21693, Note_on_c, 1, 67, 0
1, 21695, Note_on_c, 0, 72, 0
1, 21696, Note_on_c, 0, 84, 64
1, 21696, Note_on_c, 0, 81, 64
1, 21696, Note_on_c, 1, 65, 64
1, 21719, Note_on_c, 1, 65, 0
1, 21720, Note_on_c, 1, 60, 64
1, 21743, Note_on_c, 1, 60, 0
1, 21744, Note_on_c, 1, 57, 64
1, 21767, Note_on_c, 1, 57, 0
1, 21768, Note_on_c, 1, 53, 64
1, 21785, Note_on_c, 0, 84, 0
1, 21785, Note_on_c, 0, 81, 0
1, 21791, Note_on_c, 1, 53, 0
1, 21792, Note_on_c, 0, 84, 75
1, 21815, Note_on_c, 0, 84, 0
1, 21816, Note_on_c, 0, 72, 75
1, 21839, Note_on_c, 0, 72, 0
1, 21840, Note_on_c, 0, 84, 75
1, 21840, Note_on_c, 1, 69, 75
1, 21863, Note_on_c, 0, 84, 0
1, 21864, Note_on_c, 0, 72, 75
1, 21885, Note_on_c, 1, 69, 0
1, 21887, Note_on_c, 0, 72, 0
1, 21888, Note_on_c, 0, 82, 75
1, 21888, Note_on_c, 0, 84, 75
1, 21888, Note_on_c, 1, 67, 75
1, 21911, Note_on_c, 0, 82, 0
1, 21912, Note_on_c, 0, 72, 75
1, 21933, Note_on_c, 0, 84, 0
1, 21933, Note_on_c, 1, 67, 0
1, 21935, Note_on_c, 0, 72, 0
1, 21936, Note_on_c, 0, 82, 75
1, 21936, Note_on_c, 0, 84, 75
1, 21936, Note_on_c, 1, 65, 75
1, 21959, Note_on_c, 0, 82, 0
1, 21960, Note_on_c, 0, 72, 75
1, 21981, Note_on_c, 0, 84, 0
1, 21981, Note_on_c, 1, 65, 0
1, 21983, Note_on_c, 0, 72, 0
1, 21984, Note_on_c, 0, 82, 75
1, 21984, Note_on_c, 0, 84, 75
1, 21984, Note_on_c, 1, 64, 75
1, 22007, Note_on_c, 0, 82, 0
1, 22008, Note_on_c, 0, 72, 75
1, 22029, Note_on_c, 0, 84, 0
1, 22029, Note_on_c, 1, 64, 0
1, 22031, Note_on_c, 0, 72, 0
1, 22032, Note_on_c, 0, 82, 75
1, 22032, Note_on_c, 0, 84, 75
1, 22032, Note_on_c, 1, 67, 75
1, 22055, Note_on_c, 0, 82, 0
1, 22056, Note_on_c, 0, 72, 75
1, 22077, Note_on_c, 0, 84, 0
1, 22077, Note_on_c, 1, 67, 0
1, 22079, Note_on_c, 0, 72, 0
1, 22080, Note_on_c, 0, 77, 75
1, 22080, Note_on_c, 1, 65, 75
1, 22125, Note_on_c, 0, 77, 0
1, 22128, Note_on_c, 0, 77, 75
1, 22143, Note_on_c, 0, 77, 0
1, 22144, Note_on_c, 0, 79, 75
1, 22159, Note_on_c, 0, 79, 0
1, 22160, Note_on_c, 0, 77, 75
1, 22169, Note_on_c, 1, 65, 0
1, 22175, Note_on_c, 0, 77, 0
1, 22176, Note_on_c, 0, 74, 75
1, 22176, Note_on_c, 1, 58, 75
1, 22176, Note_on_c, 1, 46, 75
1, 22221, Note_on_c, 0, 74, 0
1, 22224, Note_on_c, 0, 82, 75
1, 22239, Note_on_c, 0, 82, 0
1, 22240, Note_on_c, 0, 84, 75
1, 22255, Note_on_c, 0, 84, 0
1, 22256, Note_on_c, 0, 82, 75
1, 22265, Note_on_c, 1, 58, 0
1, 22265, Note_on_c, 1, 46, 0
1, 22271, Note_on_c, 0, 82, 0
1, 22272, Note_on_c, 0, 72, 75
1, 22320, Note_on_c, 1, 53, 75
1, 22320, Note_on_c, 1, 45, 64
1, 22361, Note_on_c, 0, 72, 0
1, 22365, Note_on_c, 1, 45, 0
1, 22368, Note_on_c, 0, 81, 75
1, 22368, Note_on_c, 1, 46, 64
1, 22380, Note_on_c, 0, 81, 0
1, 22380, Note_on_c, 0, 79, 75
1, 22392, Note_on_c, 0, 79, 0
1, 22392, Note_on_c, 0, 81, 75
1, 22404, Note_on_c, 0, 81, 0
1, 22404, Note_on_c, 0, 79, 75
1, 22409, Note_on_c, 1, 53, 0
1, 22413, Note_on_c, 1, 46, 0
1, 22416, Note_on_c, 0, 79, 0
1, 22416, Note_on_c, 0, 81, 75
1, 22416, Note_on_c, 1, 52, 75
1, 22416, Note_on_c, 1, 48, 64
1, 22428, Note_on_c, 0, 81, 0
1, 22428, Note_on_c, 0, 79, 75
1, 22440, Note_on_c, 0, 79, 0
1, 22440, Note_on_c, 0, 77, 75
1, 22452, Note_on_c, 0, 77, 0
1, 22452, Note_on_c, 0, 79, 75
1, 22461, Note_on_c, 1, 52, 0
1, 22461, Note_on_c, 1, 48, 0
1, 22464, Note_on_c, 0, 79, 0
1, 22464, Note_on_c, 0, 77, 75
1, 22464, Note_on_c, 1, 53, 75
1, 22464, Note_on_c, 1, 41, 75
1, 22553, Note_on_c, 0, 77, 0
1, 22553, Note_on_c, 1, 53, 0
1, 22553, Note_on_c, 1, 41, 0
1, 22560, Note_on_c, 0, 72, 70
1, 22560, Note_on_c, 1, 69, 64
1, 22560, Note_on_c, 1, 65, 64
1, 22583, Note_on_c, 0, 72, 0
1, 22584, Note_on_c, 0, 74, 69
1, 22607, Note_on_c, 0, 74, 0
1, 22607, Note_on_c, 1, 69, 0
1, 22607, Note_on_c, 1, 65, 0
1, 22608, Note_on_c, 0, 76, 69
1, 22608, Note_on_c, 1, 69, 63
1, 22608, Note_on_c, 1, 65, 63
1, 22631, Note_on_c, 0, 76, 0
1, 22632, Note_on_c, 0, 77, 68
1, 22655, Note_on_c, 0, 77, 0
1, 22655, Note_on_c, 1, 69, 0
1, 22655, Note_on_c, 1, 65, 0
1, 22656, Note_on_c, 0, 74, 68
1, 22656, Note_on_c, 1, 70, 62
1, 22656, Note_on_c, 1, 65, 62
1, 22679, Note_on_c, 0, 74, 0
1, 22680, Note_on_c, 0, 76, 68
1, 22703, Note_on_c, 0, 76, 0
1, 22703, Note_on_c, 1, 70, 0
1, 22703, Note_on_c, 1, 65, 0
1, 22704, Note_on_c, 0, 77, 67
1, 22704, Note_on_c, 1, 70, 61
1, 22704, Note_on_c, 1, 65, 61
1, 22727, Note_on_c, 0, 77, 0
1, 22728, Note_on_c, 0, 79, 67
1, 22751, Note_on_c, 0, 79, 0
1, 22751, Note_on_c, 1, 70, 0
1, 22751, Note_on_c, 1, 65, 0
1, 22752, Note_on_c, 0, 77, 67
1, 22752, Note_on_c, 1, 67, 61
1, 22752, Note_on_c, 1, 65, 61
1, 22775, Note_on_c, 0, 77, 0
1, 22776, Note_on_c, 0, 76, 66
1, 22799, Note_on_c, 0, 76, 0
1, 22799, Note_on_c, 1, 67, 0
1, 22799, Note_on_c, 1, 65, 0
1, 22800, Note_on_c, 0, 74, 66
1, 22800, Note_on_c, 1, 67, 60
1, 22800, Note_on_c, 1, 65, 60
1, 22823, Note_on_c, 0, 74, 0
1, 22824, Note_on_c, 0, 76, 65
1, 22847, Note_on_c, 0, 76, 0
1, 22847, Note_on_c, 1, 67, 0
1, 22847, Note_on_c, 1, 65, 0
1, 22848, Note_on_c, 0, 77, 65
1, 22848, Note_on_c, 1, 69, 75
1, 22848, Note_on_c, 1, 65, 75
1, 22937, Note_on_c, 0, 77, 0
1, 22942, Note_on_c, 1, 69, 0
1, 22942, Note_on_c, 1, 65, 0
1, 22944, Note_on_c, 0, 60, 64
1, 22944, Note_on_c, 1, 57, 70
1, 22944, Note_on_c, 1, 53, 70
1, 22959, Note_on_c, 0, 60, 0
1, 22960, Note_on_c, 0, 62, 75
1, 22975, Note_on_c, 0, 62, 0
1, 22976, Note_on_c, 0, 60, 74
1, 22991, Note_on_c, 0, 60, 0
1, 22991, Note_on_c, 1, 57, 0
1, 22991, Note_on_c, 1, 53, 0
1, 22992, Note_on_c, 0, 65, 74
1, 22992, Note_on_c, 1, 57, 69
1, 22992, Note_on_c, 1, 53, 69
1, 23037, Note_on_c, 0, 65, 0
1, 23039, Note_on_c, 1, 57, 0
1, 23039, Note_on_c, 1, 53, 0
1, 23040, Note_on_c, 0, 62, 73
1, 23040, Note_on_c, 1, 58, 68
1, 23040, Note_on_c, 1, 53, 68
1, 23055, Note_on_c, 0, 62, 0
1, 23056, Note_on_c, 0, 64, 73
1, 23071, Note_on_c, 0, 64, 0
1, 23072, Note_on_c, 0, 62, 73
1, 23087, Note_on_c, 0, 62, 0
1, 23087, Note_on_c, 1, 58, 0
1, 23087, Note_on_c, 1, 53, 0
1, 23088, Note_on_c, 0, 67, 73
1, 23088, Note_on_c, 1, 58, 67
1, 23088, Note_on_c, 1, 53, 67
1, 23133, Note_on_c, 0, 67, 0
1, 23135, Note_on_c, 1, 58, 0
1, 23135, Note_on_c, 1, 53, 0
1, 23136, Note_on_c, 0, 65, 72
1, 23136, Note_on_c, 1, 55, 66
1, 23136, Note_on_c, 1, 53, 66
1, 23159, Note_on_c, 0, 65, 0
1, 23160, Note_on_c, 0, 64, 72
1, 23183, Note_on_c, 0, 64, 0
1, 23183, Note_on_c, 1, 55, 0
1, 23183, Note_on_c, 1, 53, 0
1, 23184, Note_on_c, 0, 62, 71
1, 23184, Note_on_c, 1, 55, 65
1, 23184, Note_on_c, 1, 53, 65
1, 23207, Note_on_c, 0, 62, 0
1, 23208, Note_on_c, 0, 64, 71
1, 23231, Note_on_c, 0, 64, 0
1, 23231, Note_on_c, 1, 55, 0
1, 23231, Note_on_c, 1, 53, 0
1, 23232, Note_on_c, 0, 65, 87
1, 23232, Note_on_c, 1, 57, 80
1, 23232, Note_on_c, 1, 53, 80
1, 23280, Note_on_c, 0, 65, 0
1, 23280, Note_on_c, 0, 65, 70
1, 23295, Note_on_c, 0, 65, 0
1, 23296, Note_on_c, 0, 67, 71
1, 23311, Note_on_c, 0, 67, 0
1, 23312, Note_on_c, 0, 69, 72
1, 23327, Note_on_c, 0, 69, 0
1, 23328, Note_on_c, 0, 65, 91
1, 23328, Note_on_c, 1, 57, 0
1, 23328, Note_on_c, 1, 53, 0
1, 23328, Note_on_c, 1, 53, 96
1, 23328, Note_on_c, 1, 48, 96
1, 23328, Note_on_c, 1, 45, 96
1, 23328, Note_on_c, 1, 41, 96
1, 23376, Note_on_c, 0, 65, 0
1, 23376, Note_on_c, 0, 65, 75
1, 23391, Note_on_c, 0, 65, 0
1, 23392, Note_on_c, 0, 67, 75
1, 23407, Note_on_c, 0, 67, 0
1, 23408, Note_on_c, 0, 69, 75
1, 23423, Note_on_c, 0, 69, 0
1, 23424, Note_on_c, 0, 65, 91
1, 23424, Note_on_c, 1, 53, 0
1, 23424, Note_on_c, 1, 48, 0
1, 23424, Note_on_c, 1, 45, 0
1, 23424, Note_on_c, 1, 41, 0
1, 23424, Note_on_c, 1, 53, 96
1, 23424, Note_on_c, 1, 48, 96
1, 23424, Note_on_c, 1, 45, 96
1, 23424, Note_on_c, 1, 41, 96
1, 23520, Note_on_c, 0, 65, 0
1, 23520, Note_on_c, 1, 53, 0
1, 23520, Note_on_c, 1, 48, 0
1, 23520, Note_on_c, 1, 45, 0
1, 23520, Note_on_c, 1, 41, 0
1, 23568, Note_on_c, 0, 65, 75
1, 23568, Note_on_c, 0, 57, 75
1, 23613, Note_on_c, 0, 65, 0
1, 23613, Note_on_c, 0, 57, 0
1, 23616, Note_on_c, 0, 65, 75
1, 23616, Note_on_c, 0, 57, 75
1, 23616, Note_on_c, 1, 53, 80
1, 23616, Note_on_c, 1, 41, 80
1, 23664, Note_on_c, 0, 57, 0
1, 23664, Note_on_c, 0, 69, 75
1, 23709, Note_on_c, 0, 69, 0
1, 23709, Note_on_c, 0, 65, 0
1, 23712, Note_on_c, 0, 69, 75
1, 23712, Note_on_c, 0, 65, 75
1, 23760, Note_on_c, 0, 65, 0
1, 23760, Note_on_c, 0, 72, 75
1, 23793, Note_on_c, 1, 53, 0
1, 23793, Note_on_c, 1, 41, 0
1, 23805, Note_on_c, 0, 72, 0
1, 23805, Note_on_c, 0, 69, 0
1, 23808, Note_on_c, 0, 72, 75
1, 23808, Note_on_c, 0, 69, 75
1, 23856, Note_on_c, 1, 53, 80
1, 23901, Note_on_c, 1, 53, 0
1, 23904, Note_on_c, 1, 41, 80
1, 23941, Note_on_c, 0, 72, 0
1, 23941, Note_on_c, 0, 69, 0
1, 23952, Note_on_c, 0, 70, 75
1, 23952, Note_on_c, 0, 67, 75
1, 23967, Note_on_c, 0, 70, 0
1, 23968, Note_on_c, 0, 72, 75
1, 23983, Note_on_c, 0, 72, 0
1, 23984, Note_on_c, 0, 74, 75
1, 23993, Note_on_c, 1, 41, 0
1, 23997, Note_on_c, 0, 67, 0
1, 23999, Note_on_c, 0, 74, 0
1, 24000, Note_on_c, 0, 72, 75
1, 24000, Note_on_c, 0, 69, 75
1, 24048, Note_on_c, 1, 53, 80
1, 24093, Note_on_c, 1, 53, 0
1, 24096, Note_on_c, 1, 41, 80
1, 24133, Note_on_c, 0, 72, 0
1, 24133, Note_on_c, 0, 69, 0
1, 24144, Note_on_c, 0, 70, 75
1, 24144, Note_on_c, 0, 67, 75
1, 24159, Note_on_c, 0, 70, 0
1, 24160, Note_on_c, 0, 72, 75
1, 24175, Note_on_c, 0, 72, 0
1, 24176, Note_on_c, 0, 74, 75
1, 24185, Note_on_c, 1, 41, 0
1, 24189, Note_on_c, 0, 67, 0
1, 24191, Note_on_c, 0, 74, 0
1, 24192, Note_on_c, 0, 72, 75
1, 24192, Note_on_c, 0, 69, 75
1, 24237, Note_on_c, 0, 72, 0
1, 24240, Note_on_c, 0, 77, 75
1, 24240, Note_on_c, 1, 53, 80
1, 24281, Note_on_c, 0, 69, 0
1, 24285, Note_on_c, 0, 77, 0
1, 24285, Note_on_c, 1, 53, 0
1, 24288, Note_on_c, 1, 41, 80
1, 24333, Note_on_c, 1, 41, 0
1, 24336, Note_on_c, 0, 65, 75
1, 24336, Note_on_c, 1, 57, 70
1, 24336, Note_on_c, 1, 53, 70
1, 24351, Note_on_c, 0, 65, 0
1, 24352, Note_on_c, 0, 67, 75
1, 24367, Note_on_c, 0, 67, 0
1, 24368, Note_on_c, 0, 65, 75
1, 24381, Note_on_c, 1, 57, 0
1, 24381, Note_on_c, 1, 53, 0
1, 24383, Note_on_c, 0, 65, 0
1, 24384, Note_on_c, 0, 62, 75
1, 24384, Note_on_c, 1, 58, 70
1, 24384, Note_on_c, 1, 53, 70
1, 24429, Note_on_c, 0, 62, 0
1, 24432, Note_on_c, 0, 65, 75
1, 24447, Note_on_c, 0, 65, 0
1, 24448, Note_on_c, 0, 67, 75
1, 24463, Note_on_c, 0, 67, 0
1, 24464, Note_on_c, 0, 65, 75
1, 24473, Note_on_c, 1, 58, 0
1, 24473, Note_on_c, 1, 53, 0
1, 24479, Note_on_c, 0, 65, 0
1, 24480, Note_on_c, 0, 60, 75
1, 24480, Note_on_c, 1, 57, 70
1, 24480, Note_on_c, 1, 53, 70
1, 24525, Note_on_c, 0, 60, 0
1, 24528, Note_on_c, 0, 72, 75
1, 24543, Note_on_c, 0, 72, 0
1, 24544, Note_on_c, 0, 69, 75
1, 24559, Note_on_c, 0, 69, 0
1, 24560, Note_on_c, 0, 65, 75
1, 24569, Note_on_c, 1, 57, 0
1, 24569, Note_on_c, 1, 53, 0
1, 24575, Note_on_c, 0, 65, 0
1, 24576, Note_on_c, 0, 60, 75
1, 24624, Note_on_c, 1, 53, 70
1, 24639, Note_on_c, 1, 53, 0
1, 24640, Note_on_c, 1, 55, 70
1, 24655, Note_on_c, 1, 55, 0
1, 24656, Note_on_c, 1, 57, 70
1, 24665, Note_on_c, 0, 60, 0
1, 24671, Note_on_c, 1, 57, 0
1, 24672, Note_on_c, 0, 58, 75
1, 24672, Note_on_c, 1, 55, 70
1, 24685, Note_on_c, 0, 58, 0
1, 24686, Note_on_c, 0, 60, 75
1, 24699, Note_on_c, 0, 60, 0
1, 24700, Note_on_c, 0, 58, 75
1, 24713, Note_on_c, 0, 58, 0
1, 24714, Note_on_c, 0, 60, 75
1, 24717, Note_on_c, 1, 55, 0
1, 24720, Note_on_c, 1, 48, 70
1, 24727, Note_on_c, 0, 60, 0
1, 24728, Note_on_c, 0, 58, 75
1, 24741, Note_on_c, 0, 58, 0
1, 24742, Note_on_c, 0, 57, 75
1, 24754, Note_on_c, 0, 57, 0
1, 24755, Note_on_c, 0, 58, 75
1, 24765, Note_on_c, 1, 48, 0
1, 24767, Note_on_c, 0, 58, 0
1, 24768, Note_on_c, 0, 57, 75
1, 24768, Note_on_c, 1, 53, 80
1, 24813, Note_on_c, 1, 53, 0
1, 24816, Note_on_c, 1, 55, 80
1, 24831, Note_on_c, 1, 55, 0
1, 24832, Note_on_c, 1, 53, 80
1, 24847, Note_on_c, 1, 53, 0
1, 24848, Note_on_c, 1, 51, 80
1, 24857, Note_on_c, 0, 57, 0
1, 24863, Note_on_c, 1, 51, 0
1, 24864, Note_on_c, 1, 50, 96
1, 24912, Note_on_c, 0, 70, 75
1, 24912, Note_on_c, 1, 50, 0
1, 24912, Note_on_c, 1, 62, 70
1, 24912, Note_on_c, 1, 58, 70
1, 24927, Note_on_c, 0, 70, 0
1, 24928, Note_on_c, 0, 72, 75
1, 24943, Note_on_c, 0, 72, 0
1, 24944, Note_on_c, 0, 70, 75
1, 24957, Note_on_c, 1, 62, 0
1, 24957, Note_on_c, 1, 58, 0
1, 24959, Note_on_c, 0, 70, 0
1, 24960, Note_on_c, 0, 67, 75
1, 24960, Note_on_c, 1, 63, 70
1, 24960, Note_on_c, 1, 58, 70
1, 25005, Note_on_c, 0, 67, 0
1, 25008, Note_on_c, 0, 70, 75
1, 25023, Note_on_c, 0, 70, 0
1, 25024, Note_on_c, 0, 72, 75
1, 25039, Note_on_c, 0, 72, 0
1, 25040, Note_on_c, 0, 70, 75
1, 25049, Note_on_c, 1, 63, 0
1, 25049, Note_on_c, 1, 58, 0
1, 25055, Note_on_c, 0, 70, 0
1, 25056, Note_on_c, 0, 65, 75
1, 25056, Note_on_c, 1, 62, 70
1, 25056, Note_on_c, 1, 58, 70
1, 25101, Note_on_c, 0, 65, 0
1, 25104, Note_on_c, 0, 77, 75
1, 25119, Note_on_c, 0, 77, 0
1, 25120, Note_on_c, 0, 74, 75
1, 25135, Note_on_c, 0, 74, 0
1, 25136, Note_on_c, 0, 70, 75
1, 25145, Note_on_c, 1, 62, 0
1, 25145, Note_on_c, 1, 58, 0
1, 25151, Note_on_c, 0, 70, 0
1, 25152, Note_on_c, 0, 65, 75
1, 25200, Note_on_c, 1, 58, 70
1, 25215, Note_on_c, 1, 58, 0
1, 25216, Note_on_c, 1, 60, 70
1, 25231, Note_on_c, 1, 60, 0
1, 25232, Note_on_c, 1, 62, 70
1, 25241, Note_on_c, 0, 65, 0
1, 25247, Note_on_c, 1, 62, 0
1, 25248, Note_on_c, 0, 63, 75
1, 25248, Note_on_c, 1, 60, 70
1, 25261, Note_on_c, 0, 63, 0
1, 25262, Note_on_c, 0, 65, 75
1, 25275, Note_on_c, 0, 65, 0
1, 25276, Note_on_c, 0, 63, 75
1, 25289, Note_on_c, 0, 63, 0
1, 25290, Note_on_c, 0, 65, 75
1, 25293, Note_on_c, 1, 60, 0
1, 25296, Note_on_c, 1, 53, 70
1, 25303, Note_on_c, 0, 65, 0
1, 25304, Note_on_c, 0, 63, 75
1, 25317, Note_on_c, 0, 63, 0
1, 25318, Note_on_c, 0, 62, 75
1, 25330, Note_on_c, 0, 62, 0
1, 25331, Note_on_c, 0, 63, 75
1, 25341, Note_on_c, 1, 53, 0
1, 25343, Note_on_c, 0, 63, 0
1, 25344, Note_on_c, 0, 62, 75
1, 25344, Note_on_c, 1, 58, 70
1, 25389, Note_on_c, 0, 62, 0
1, 25389, Note_on_c, 1, 58, 0
1, 25392, Note_on_c, 0, 63, 75
1, 25392, Note_on_c, 1, 60, 70
1, 25407, Note_on_c, 0, 63, 0
1, 25408, Note_on_c, 0, 65, 75
1, 25423, Note_on_c, 0, 65, 0
1, 25424, Note_on_c, 0, 67, 75
1, 25437, Note_on_c, 1, 60, 0
1, 25439, Note_on_c, 0, 67, 0
1, 25440, Note_on_c, 0, 65, 75
1, 25440, Note_on_c, 1, 62, 70
1, 25485, Note_on_c, 0, 65, 0
1, 25485, Note_on_c, 1, 62, 0
1, 25488, Note_on_c, 0, 67, 75
1, 25488, Note_on_c, 1, 63, 70
1, 25533, Note_on_c, 0, 67, 0
1, 25533, Note_on_c, 1, 63, 0
1, 25536, Note_on_c, 0, 68, 75
1, 25536, Note_on_c, 1, 65, 70
1, 25581, Note_on_c, 0, 68, 0
1, 25581, Note_on_c, 1, 65, 0
1, 25584, Note_on_c, 0, 72, 75
1, 25584, Note_on_c, 1, 62, 70
1, 25599, Note_on_c, 0, 72, 0
1, 25600, Note_on_c, 0, 70, 75
1, 25615, Note_on_c, 0, 70, 0
1, 25616, Note_on_c, 0, 68, 75
1, 25629, Note_on_c, 1, 62, 0
1, 25631, Note_on_c, 0, 68, 0
1, 25632, Note_on_c, 0, 67, 75
1, 25632, Note_on_c, 1, 63, 70
1, 25677, Note_on_c, 1, 63, 0
1, 25680, Note_on_c, 1, 51, 70
1, 25721, Note_on_c, 0, 67, 0
1, 25725, Note_on_c, 1, 51, 0
1, 25728, Note_on_c, 0, 64, 75
1, 25728, Note_on_c, 1, 60, 70
1, 25773, Note_on_c, 0, 64, 0
1, 25773, Note_on_c, 1, 60, 0
1, 25776, Note_on_c, 0, 65, 75
1, 25776, Note_on_c, 1, 62, 70
1, 25791, Note_on_c, 0, 65, 0
1, 25792, Note_on_c, 0, 67, 75
1, 25807, Note_on_c, 0, 67, 0
1, 25808, Note_on_c, 0, 69, 75
1, 25821, Note_on_c, 1, 62, 0
1, 25823, Note_on_c, 0, 69, 0
1, 25824, Note_on_c, 0, 67, 75
1, 25824, Note_on_c, 1, 64, 70
1, 25869, Note_on_c, 0, 67, 0
1, 25869, Note_on_c, 1, 64, 0
1, 25872, Note_on_c, 0, 69, 75
1, 25872, Note_on_c, 1, 65, 70
1, 25917, Note_on_c, 0, 69, 0
1, 25917, Note_on_c, 1, 65, 0
1, 25920, Note_on_c, 0, 70, 75
1, 25920, Note_on_c, 1, 67, 70
1, 25965, Note_on_c, 0, 70, 0
1, 25965, Note_on_c, 1, 67, 0
1, 25968, Note_on_c, 0, 74, 75
1, 25968, Note_on_c, 1, 64, 70
1, 25983, Note_on_c, 0, 74, 0
1, 25984, Note_on_c, 0, 72, 75
1, 25999, Note_on_c, 0, 72, 0
1, 26000, Note_on_c, 0, 70, 75
1, 26013, Note_on_c, 1, 64, 0
1, 26015, Note_on_c, 0, 70, 0
1, 26016, Note_on_c, 0, 69, 75
1, 26016, Note_on_c, 1, 65, 70
1, 26061, Note_on_c, 1, 65, 0
1, 26064, Note_on_c, 1, 53, 70
1, 26105, Note_on_c, 0, 69, 0
1, 26109, Note_on_c, 1, 53, 0
1, 26112, Note_on_c, 0, 66, 75
1, 26112, Note_on_c, 1, 62, 70
1, 26157, Note_on_c, 0, 66, 0
1, 26157, Note_on_c, 1, 62, 0
1, 26160, Note_on_c, 0, 67, 75
1, 26160, Note_on_c, 1, 64, 70
1, 26175, Note_on_c, 0, 67, 0
1, 26176, Note_on_c, 0, 69, 75
1, 26191, Note_on_c, 0, 69, 0
1, 26192, Note_on_c, 0, 70, 75
1, 26205, Note_on_c, 1, 64, 0
1, 26207, Note_on_c, 0, 70, 0
1, 26208, Note_on_c, 0, 69, 75
1, 26208, Note_on_c, 1, 66, 70
1, 26253, Note_on_c, 0, 69, 0
1, 26253, Note_on_c, 1, 66, 0
1, 26256, Note_on_c, 0, 70, 75
1, 26256, Note_on_c, 1, 67, 70
1, 26301, Note_on_c, 0, 70, 0
1, 26301, Note_on_c, 1, 67, 0
1, 26304, Note_on_c, 0, 72, 75
1, 26304, Note_on_c, 1, 69, 70
1, 26349, Note_on_c, 0, 72, 0
1, 26349, Note_on_c, 1, 69, 0
1, 26352, Note_on_c, 0, 75, 75
1, 26352, Note_on_c, 1, 66, 70
1, 26367, Note_on_c, 0, 75, 0
1, 26368, Note_on_c, 0, 74, 75
1, 26383, Note_on_c, 0, 74, 0
1, 26384, Note_on_c, 0, 72, 75
1, 26397, Note_on_c, 1, 66, 0
1, 26399, Note_on_c, 0, 72, 0
1, 26400, Note_on_c, 0, 70, 75
1, 26400, Note_on_c, 1, 67, 70
1, 26445, Note_on_c, 1, 67, 0
1, 26448, Note_on_c, 1, 55, 70
1, 26489, Note_on_c, 0, 70, 0
1, 26493, Note_on_c, 1, 55, 0
1, 26496, Note_on_c, 0, 82, 75
1, 26496, Note_on_c, 1, 70, 70
1, 26496, Note_on_c, 1, 67, 70
1, 26520, Note_on_c, 0, 82, 0
1, 26520, Note_on_c, 0, 81, 74
1, 26541, Note_on_c, 1, 70, 0
1, 26541, Note_on_c, 1, 67, 0
1, 26543, Note_on_c, 0, 81, 0
1, 26544, Note_on_c, 0, 81, 74
1, 26544, Note_on_c, 1, 70, 69
1, 26544, Note_on_c, 1, 67, 69
1, 26568, Note_on_c, 0, 81, 0
1, 26568, Note_on_c, 0, 79, 73
1, 26589, Note_on_c, 1, 70, 0
1, 26589, Note_on_c, 1, 67, 0
1, 26591, Note_on_c, 0, 79, 0
1, 26592, Note_on_c, 0, 79, 73
1, 26592, Note_on_c, 1, 70, 68
1, 26592, Note_on_c, 1, 67, 68
1, 26616, Note_on_c, 0, 79, 0
1, 26616, Note_on_c, 0, 77, 72
1, 26637, Note_on_c, 1, 70, 0
1, 26637, Note_on_c, 1, 67, 0
1, 26639, Note_on_c, 0, 77, 0
1, 26640, Note_on_c, 0, 77, 72
1, 26640, Note_on_c, 1, 70, 67
1, 26640, Note_on_c, 1, 67, 67
1, 26664, Note_on_c, 0, 77, 0
1, 26664, Note_on_c, 0, 76, 72
1, 26685, Note_on_c, 1, 70, 0
1, 26685, Note_on_c, 1, 67, 0
1, 26687, Note_on_c, 0, 76, 0
1, 26688, Note_on_c, 0, 76, 71
1, 26688, Note_on_c, 1, 69, 66
1, 26688, Note_on_c, 1, 67, 66
1, 26712, Note_on_c, 0, 76, 0
1, 26712, Note_on_c, 0, 74, 71
1, 26733, Note_on_c, 1, 69, 0
1, 26733, Note_on_c, 1, 67, 0
1, 26735, Note_on_c, 0, 74, 0
1, 26736, Note_on_c, 0, 74, 70
1, 26736, Note_on_c, 1, 69, 65
1, 26736, Note_on_c, 1, 67, 65
1, 26760, Note_on_c, 0, 74, 0
1, 26760, Note_on_c, 0, 73, 70
1, 26781, Note_on_c, 1, 69, 0
1, 26781, Note_on_c, 1, 67, 0
1, 26783, Note_on_c, 0, 73, 0
1, 26784, Note_on_c, 0, 73, 70
1, 26784, Note_on_c, 1, 69, 64
1, 26784, Note_on_c, 1, 67, 64
1, 26829, Note_on_c, 1, 69, 0
1, 26829, Note_on_c, 1, 67, 0
1, 26832, Note_on_c, 1, 69, 64
1, 26832, Note_on_c, 1, 67, 64
1, 26873, Note_on_c, 0, 73, 0
1, 26877, Note_on_c, 1, 69, 0
1, 26877, Note_on_c, 1, 67, 0
1, 26880, Note_on_c, 0, 81, 75
1, 26880, Note_on_c, 1, 69, 70
1, 26880, Note_on_c, 1, 65, 70
1, 26904, Note_on_c, 0, 81, 0
1, 26904, Note_on_c, 0, 79, 74
1, 26925, Note_on_c, 1, 69, 0
1, 26925, Note_on_c, 1, 65, 0
1, 26927, Note_on_c, 0, 79, 0
1, 26928, Note_on_c, 0, 79, 74
1, 26928, Note_on_c, 1, 69, 69
1, 26928, Note_on_c, 1, 65, 69
1, 26952, Note_on_c, 0, 79, 0
1, 26952, Note_on_c, 0, 77, 73
1, 26973, Note_on_c, 1, 69, 0
1, 26973, Note_on_c, 1, 65, 0
1, 26975, Note_on_c, 0, 77, 0
1, 26976, Note_on_c, 0, 77, 73
1, 26976, Note_on_c, 1, 69, 68
1, 26976, Note_on_c, 1, 65, 68
1, 27000, Note_on_c, 0, 77, 0
1, 27000, Note_on_c, 0, 76, 72
1, 27021, Note_on_c, 1, 69, 0
1, 27021, Note_on_c, 1, 65, 0
1, 27023, Note_on_c, 0, 76, 0
1, 27024, Note_on_c, 0, 76, 72
1, 27024, Note_on_c, 1, 69, 67
1, 27024, Note_on_c, 1, 65, 67
1, 27048, Note_on_c, 0, 76, 0
1, 27048, Note_on_c, 0, 74, 72
1, 27069, Note_on_c, 1, 69, 0
1, 27069, Note_on_c, 1, 65, 0
1, 27071, Note_on_c, 0, 74, 0
1, 27072, Note_on_c, 0, 74, 71
1, 27072, Note_on_c, 1, 67, 66
1, 27072, Note_on_c, 1, 65, 66
1, 27096, Note_on_c, 0, 74, 0
1, 27096, Note_on_c, 0, 72, 71
1, 27117, Note_on_c, 1, 67, 0
1, 27117, Note_on_c, 1, 65, 0
1, 27119, Note_on_c, 0, 72, 0
1, 27120, Note_on_c, 0, 72, 70
1, 27120, Note_on_c, 1, 67, 65
1, 27120, Note_on_c, 1, 65, 65
1, 27144, Note_on_c, 0, 72, 0
1, 27144, Note_on_c, 0, 71, 70
1, 27165, Note_on_c, 1, 67, 0
1, 27165, Note_on_c, 1, 65, 0
1, 27167, Note_on_c, 0, 71, 0
1, 27168, Note_on_c, 0, 71, 70
1, 27168, Note_on_c, 1, 67, 64
1, 27168, Note_on_c, 1, 65, 64
1, 27213, Note_on_c, 1, 67, 0
1, 27213, Note_on_c, 1, 65, 0
1, 27216, Note_on_c, 1, 67, 64
1, 27216, Note_on_c, 1, 65, 64
1, 27257, Note_on_c, 0, 71, 0
1, 27261, Note_on_c, 1, 67, 0
1, 27261, Note_on_c, 1, 65, 0
1, 27264, Note_on_c, 0, 79, 75
1, 27264, Note_on_c, 1, 67, 70
1, 27264, Note_on_c, 1, 63, 70
1, 27288, Note_on_c, 0, 79, 0
1, 27288, Note_on_c, 0, 77, 74
1, 27309, Note_on_c, 1, 67, 0
1, 27309, Note_on_c, 1, 63, 0
1, 27311, Note_on_c, 0, 77, 0
1, 27312, Note_on_c, 0, 77, 74
1, 27312, Note_on_c, 1, 67, 69
1, 27312, Note_on_c, 1, 63, 69
1, 27336, Note_on_c, 0, 77, 0
1, 27336, Note_on_c, 0, 75, 73
1, 27357, Note_on_c, 1, 67, 0
1, 27357, Note_on_c, 1, 63, 0
1, 27359, Note_on_c, 0, 75, 0
1, 27360, Note_on_c, 0, 75, 73
1, 27360, Note_on_c, 1, 67, 68
1, 27360, Note_on_c, 1, 63, 68
1, 27384, Note_on_c, 0, 75, 0
1, 27384, Note_on_c, 0, 74, 72
1, 27405, Note_on_c, 1, 67, 0
1, 27405, Note_on_c, 1, 63, 0
1, 27407, Note_on_c, 0, 74, 0
1, 27408, Note_on_c, 0, 74, 72
1, 27408, Note_on_c, 1, 67, 67
1, 27408, Note_on_c, 1, 63, 67
1, 27432, Note_on_c, 0, 74, 0
1, 27432, Note_on_c, 0, 72, 72
1, 27453, Note_on_c, 1, 67, 0
1, 27453, Note_on_c, 1, 63, 0
1, 27455, Note_on_c, 0, 72, 0
1, 27456, Note_on_c, 0, 72, 71
1, 27456, Note_on_c, 1, 65, 66
1, 27456, Note_on_c, 1, 63, 66
1, 27480, Note_on_c, 0, 72, 0
1, 27480, Note_on_c, 0, 70, 71
1, 27501, Note_on_c, 1, 65, 0
1, 27501, Note_on_c, 1, 63, 0
1, 27503, Note_on_c, 0, 70, 0
1, 27504, Note_on_c, 0, 70, 70
1, 27504, Note_on_c, 1, 65, 65
1, 27504, Note_on_c, 1, 63, 65
1, 27528, Note_on_c, 0, 70, 0
1, 27528, Note_on_c, 0, 69, 70
1, 27549, Note_on_c, 1, 65, 0
1, 27549, Note_on_c, 1, 63, 0
1, 27551, Note_on_c, 0, 69, 0
1, 27552, Note_on_c, 0, 69, 70
1, 27552, Note_on_c, 1, 65, 64
1, 27552, Note_on_c, 1, 63, 64
1, 27597, Note_on_c, 1, 65, 0
1, 27597, Note_on_c, 1, 63, 0
1, 27600, Note_on_c, 1, 65, 64
1, 27600, Note_on_c, 1, 63, 64
1, 27641, Note_on_c, 0, 69, 0
1, 27645, Note_on_c, 1, 65, 0
1, 27645, Note_on_c, 1, 63, 0
1, 27648, Note_on_c, 0, 77, 70
1, 27648, Note_on_c, 1, 65, 64
1, 27648, Note_on_c, 1, 62, 64
1, 27672, Note_on_c, 0, 77, 0
1, 27672, Note_on_c, 0, 75, 69
1, 27693, Note_on_c, 1, 65, 0
1, 27693, Note_on_c, 1, 62, 0
1, 27695, Note_on_c, 0, 75, 0
1, 27696, Note_on_c, 0, 75, 68
1, 27696, Note_on_c, 1, 65, 62
1, 27696, Note_on_c, 1, 62, 62
1, 27720, Note_on_c, 0, 75, 0
1, 27720, Note_on_c, 0, 74, 68
1, 27741, Note_on_c, 1, 65, 0
1, 27741, Note_on_c, 1, 62, 0
1, 27743, Note_on_c, 0, 74, 0
1, 27744, Note_on_c, 0, 74, 67
1, 27744, Note_on_c, 1, 65, 61
1, 27744, Note_on_c, 1, 62, 61
1, 27768, Note_on_c, 0, 74, 0
1, 27768, Note_on_c, 0, 72, 67
1, 27789, Note_on_c, 1, 65, 0
1, 27789, Note_on_c, 1, 62, 0
1, 27791, Note_on_c, 0, 72, 0
1, 27792, Note_on_c, 0, 72, 66
1, 27792, Note_on_c, 1, 65, 60
1, 27792, Note_on_c, 1, 62, 60
1, 27816, Note_on_c, 0, 72, 0
1, 27816, Note_on_c, 0, 70, 65
1, 27837, Note_on_c, 1, 65, 0
1, 27837, Note_on_c, 1, 62, 0
1, 27839, Note_on_c, 0, 70, 0
1, 27840, Note_on_c, 0, 70, 65
1, 27840, Note_on_c, 1, 65, 59
1, 27840, Note_on_c, 1, 62, 59
1, 27885, Note_on_c, 0, 70, 0
1, 27885, Note_on_c, 1, 65, 0
1, 27885, Note_on_c, 1, 62, 0
1, 27888, Note_on_c, 0, 77, 64
1, 27888, Note_on_c, 1, 58, 58
1, 27903, Note_on_c, 0, 77, 0
1, 27904, Note_on_c, 0, 74, 64
1, 27919, Note_on_c, 0, 74, 0
1, 27920, Note_on_c, 0, 70, 64
1, 27933, Note_on_c, 1, 58, 0
1, 27935, Note_on_c, 0, 70, 0
1, 27936, Note_on_c, 0, 70, 65
1, 27936, Note_on_c, 1, 60, 59
1, 27981, Note_on_c, 0, 70, 0
1, 27981, Note_on_c, 1, 60, 0
1, 27984, Note_on_c, 0, 68, 66
1, 27984, Note_on_c, 1, 62, 61
1, 27996, Note_on_c, 0, 68, 0
1, 27996, Note_on_c, 0, 70, 66
1, 28008, Note_on_c, 0, 70, 0
1, 28008, Note_on_c, 0, 68, 66
1, 28029, Note_on_c, 0, 68, 0
1, 28029, Note_on_c, 1, 62, 0
1, 28032, Note_on_c, 0, 67, 68
1, 28032, Note_on_c, 1, 63, 62
1, 28077, Note_on_c, 0, 67, 0
1, 28077, Note_on_c, 1, 63, 0
1, 28080, Note_on_c, 0, 79, 69
1, 28080, Note_on_c, 1, 60, 64
1, 28095, Note_on_c, 0, 79, 0
1, 28096, Note_on_c, 0, 76, 69
1, 28111, Note_on_c, 0, 76, 0
1, 28112, Note_on_c, 0, 72, 70
1, 28125, Note_on_c, 1, 60, 0
1, 28127, Note_on_c, 0, 72, 0
1, 28128, Note_on_c, 0, 72, 70
1, 28128, Note_on_c, 1, 62, 65
1, 28173, Note_on_c, 0, 72, 0
1, 28173, Note_on_c, 1, 62, 0
1, 28176, Note_on_c, 0, 70, 72
1, 28176, Note_on_c, 1, 64, 67
1, 28188, Note_on_c, 0, 70, 0
1, 28188, Note_on_c, 0, 72, 72
1, 28200, Note_on_c, 0, 72, 0
1, 28200, Note_on_c, 0, 70, 72
1, 28221, Note_on_c, 0, 70, 0
1, 28221, Note_on_c, 1, 64, 0
1, 28224, Note_on_c, 0, 69, 73
1, 28224, Note_on_c, 1, 65, 68
1, 28269, Note_on_c, 0, 69, 0
1, 28269, Note_on_c, 1, 65, 0
1, 28272, Note_on_c, 0, 81, 74
1, 28272, Note_on_c, 1, 62, 70
1, 28287, Note_on_c, 0, 81, 0
1, 28288, Note_on_c, 0, 78, 75
1, 28303, Note_on_c, 0, 78, 0
1, 28304, Note_on_c, 0, 74, 75
1, 28317, Note_on_c, 1, 62, 0
1, 28319, Note_on_c, 0, 74, 0
1, 28320, Note_on_c, 0, 74, 76
1, 28320, Note_on_c, 1, 64, 71
1, 28365, Note_on_c, 0, 74, 0
1, 28365, Note_on_c, 1, 64, 0
1, 28368, Note_on_c, 0, 72, 77
1, 28368, Note_on_c, 1, 66, 73
1, 28380, Note_on_c, 0, 72, 0
1, 28380, Note_on_c, 0, 74, 77
1, 28392, Note_on_c, 0, 74, 0
1, 28392, Note_on_c, 0, 72, 77
1, 28413, Note_on_c, 0, 72, 0
1, 28413, Note_on_c, 1, 66, 0
1, 28416, Note_on_c, 0, 70, 80
1, 28416, Note_on_c, 1, 67, 75
1, 28461, Note_on_c, 0, 70, 0
1, 28461, Note_on_c, 1, 67, 0
1, 28464, Note_on_c, 0, 75, 80
1, 28464, Note_on_c, 1, 60, 75
1, 28479, Note_on_c, 0, 75, 0
1, 28480, Note_on_c, 0, 77, 80
1, 28495, Note_on_c, 0, 77, 0
1, 28496, Note_on_c, 0, 75, 80
1, 28509, Note_on_c, 1, 60, 0
1, 28511, Note_on_c, 0, 75, 0
1, 28512, Note_on_c, 0, 74, 80
1, 28512, Note_on_c, 1, 58, 75
1, 28557, Note_on_c, 0, 74, 0
1, 28557, Note_on_c, 1, 58, 0
1, 28560, Note_on_c, 0, 79, 80
1, 28575, Note_on_c, 0, 79, 0
1, 28576, Note_on_c, 0, 81, 80
1, 28591, Note_on_c, 0, 81, 0
1, 28592, Note_on_c, 0, 79, 80
1, 28607, Note_on_c, 0, 79, 0
1, 28608, Note_on_c, 0, 69, 80
1, 28656, Note_on_c, 1, 60, 75
1, 28675, Note_on_c, 0, 69, 0
1, 28680, Note_on_c, 0, 75, 80
1, 28701, Note_on_c, 1, 60, 0
1, 28703, Note_on_c, 0, 75, 0
1, 28704, Note_on_c, 0, 74, 80
1, 28704, Note_on_c, 1, 62, 75
1, 28727, Note_on_c, 0, 74, 0
1, 28728, Note_on_c, 0, 72, 80
1, 28749, Note_on_c, 1, 62, 0
1, 28751, Note_on_c, 0, 72, 0
1, 28752, Note_on_c, 0, 70, 80
1, 28752, Note_on_c, 1, 50, 75
1, 28775, Note_on_c, 0, 70, 0
1, 28776, Note_on_c, 0, 69, 80
1, 28797, Note_on_c, 1, 50, 0
1, 28799, Note_on_c, 0, 69, 0
1, 28800, Note_on_c, 0, 70, 80
1, 28800, Note_on_c, 1, 55, 75
1, 28845, Note_on_c, 0, 70, 0
1, 28845, Note_on_c, 1, 55, 0
1, 28848, Note_on_c, 0, 75, 80
1, 28848, Note_on_c, 1, 60, 75
1, 28863, Note_on_c, 0, 75, 0
1, 28864, Note_on_c, 0, 77, 80
1, 28879, Note_on_c, 0, 77, 0
1, 28880, Note_on_c, 0, 75, 80
1, 28893, Note_on_c, 1, 60, 0
1, 28895, Note_on_c, 0, 75, 0
1, 28896, Note_on_c, 0, 74, 80
1, 28896, Note_on_c, 1, 58, 75
1, 28941, Note_on_c, 0, 74, 0
1, 28941, Note_on_c, 1, 58, 0
1, 28944, Note_on_c, 0, 79, 80
1, 28959, Note_on_c, 0, 79, 0
1, 28960, Note_on_c, 0, 81, 80
1, 28975, Note_on_c, 0, 81, 0
1, 28976, Note_on_c, 0, 79, 80
1, 28991, Note_on_c, 0, 79, 0
1, 28992, Note_on_c, 0, 69, 80
1, 29040, Note_on_c, 1, 60, 75
1, 29059, Note_on_c, 0, 69, 0
1, 29064, Note_on_c, 0, 75, 80
1, 29085, Note_on_c, 1, 60, 0
1, 29087, Note_on_c, 0, 75, 0
1, 29088, Note_on_c, 0, 74, 80
1, 29088, Note_on_c, 1, 62, 75
1, 29111, Note_on_c, 0, 74, 0
1, 29112, Note_on_c, 0, 72, 80
1, 29133, Note_on_c, 1, 62, 0
1, 29135, Note_on_c, 0, 72, 0
1, 29136, Note_on_c, 0, 70, 80
1, 29136, Note_on_c, 1, 50, 75
1, 29159, Note_on_c, 0, 70, 0
1, 29160, Note_on_c, 0, 69, 80
1, 29181, Note_on_c, 1, 50, 0
1, 29183, Note_on_c, 0, 69, 0
1, 29184, Note_on_c, 0, 67, 80
1, 29184, Note_on_c, 1, 55, 75
1, 29229, Note_on_c, 1, 55, 0
1, 29232, Note_on_c, 1, 43, 75
1, 29273, Note_on_c, 0, 67, 0
1, 29277, Note_on_c, 1, 43, 0
1, 29280, Note_on_c, 0, 79, 80
1, 29280, Note_on_c, 0, 77, 75
1, 29303, Note_on_c, 0, 77, 0
1, 29304, Note_on_c, 0, 67, 75
1, 29325, Note_on_c, 0, 79, 0
1, 29327, Note_on_c, 0, 67, 0
1, 29328, Note_on_c, 0, 79, 80
1, 29328, Note_on_c, 0, 77, 75
1, 29328, Note_on_c, 1, 59, 75
1, 29351, Note_on_c, 0, 77, 0
1, 29352, Note_on_c, 0, 67, 75
1, 29373, Note_on_c, 0, 79, 0
1, 29373, Note_on_c, 1, 59, 0
1, 29375, Note_on_c, 0, 67, 0
1, 29376, Note_on_c, 0, 79, 80
1, 29376, Note_on_c, 0, 75, 75
1, 29376, Note_on_c, 1, 60, 75
1, 29399, Note_on_c, 0, 75, 0
1, 29400, Note_on_c, 0, 67, 75
1, 29421, Note_on_c, 0, 79, 0
1, 29421, Note_on_c, 1, 60, 0
1, 29423, Note_on_c, 0, 67, 0
1, 29424, Note_on_c, 0, 79, 80
1, 29424, Note_on_c, 0, 75, 75
1, 29424, Note_on_c, 1, 63, 75
1, 29447, Note_on_c, 0, 75, 0
1, 29448, Note_on_c, 0, 67, 75
1, 29469, Note_on_c, 0, 79, 0
1, 29469, Note_on_c, 1, 63, 0
1, 29471, Note_on_c, 0, 67, 0
1, 29472, Note_on_c, 0, 79, 80
1, 29472, Note_on_c, 0, 71, 75
1, 29472, Note_on_c, 1, 62, 75
1, 29495, Note_on_c, 0, 71, 0
1, 29496, Note_on_c, 0, 67, 75
1, 29517, Note_on_c, 0, 79, 0
1, 29517, Note_on_c, 1, 62, 0
1, 29519, Note_on_c, 0, 67, 0
1, 29520, Note_on_c, 0, 79, 80
1, 29520, Note_on_c, 0, 71, 75
1, 29520, Note_on_c, 1, 65, 75
1, 29543, Note_on_c, 0, 71, 0
1, 29544, Note_on_c, 0, 67, 75
1, 29565, Note_on_c, 0, 79, 0
1, 29565, Note_on_c, 1, 65, 0
1, 29567, Note_on_c, 0, 67, 0
1, 29568, Note_on_c, 0, 79, 80
1, 29568, Note_on_c, 0, 72, 75
1, 29568, Note_on_c, 1, 63, 75
1, 29591, Note_on_c, 0, 72, 0
1, 29592, Note_on_c, 0, 67, 75
1, 29613, Note_on_c, 0, 79, 0
1, 29613, Note_on_c, 1, 63, 0
1, 29615, Note_on_c, 0, 67, 0
1, 29616, Note_on_c, 0, 79, 80
1, 29616, Note_on_c, 0, 72, 75
1, 29616, Note_on_c, 1, 51, 75
1, 29639, Note_on_c, 0, 72, 0
1, 29640, Note_on_c, 0, 67, 75
1, 29661, Note_on_c, 0, 79, 0
1, 29661, Note_on_c, 1, 51, 0
1, 29663, Note_on_c, 0, 67, 0
1, 29664, Note_on_c, 0, 77, 80
1, 29664, Note_on_c, 0, 75, 75
1, 29687, Note_on_c, 0, 75, 0
1, 29688, Note_on_c, 0, 65, 75
1, 29709, Note_on_c, 0, 77, 0
1, 29711, Note_on_c, 0, 65, 0
1, 29712, Note_on_c, 0, 77, 80
1, 29712, Note_on_c, 0, 75, 75
1, 29712, Note_on_c, 1, 57, 75
1, 29735, Note_on_c, 0, 75, 0
1, 29736, Note_on_c, 0, 65, 75
1, 29757, Note_on_c, 0, 77, 0
1, 29757, Note_on_c, 1, 57, 0
1, 29759, Note_on_c, 0, 65, 0
1, 29760, Note_on_c, 0, 77, 80
1, 29760, Note_on_c, 0, 74, 75
1, 29760, Note_on_c, 1, 58, 75
1, 29783, Note_on_c, 0, 74, 0
1, 29784, Note_on_c, 0, 65, 75
1, 29805, Note_on_c, 0, 77, 0
1, 29805, Note_on_c, 1, 58, 0
1, 29807, Note_on_c, 0, 65, 0
1, 29808, Note_on_c, 0, 77, 80
1, 29808, Note_on_c, 0, 74, 75
1, 29808, Note_on_c, 1, 62, 75
1, 29831, Note_on_c, 0, 74, 0
1, 29832, Note_on_c, 0, 65, 75
1, 29853, Note_on_c, 0, 77, 0
1, 29853, Note_on_c, 1, 62, 0
1, 29855, Note_on_c, 0, 65, 0
1, 29856, Note_on_c, 0, 77, 80
1, 29856, Note_on_c, 0, 69, 75
1, 29856, Note_on_c, 1, 60, 75
1, 29879, Note_on_c, 0, 69, 0
1, 29880, Note_on_c, 0, 65, 75
1, 29901, Note_on_c, 0, 77, 0
1, 29901, Note_on_c, 1, 60, 0
1, 29903, Note_on_c, 0, 65, 0
1, 29904, Note_on_c, 0, 77, 80
1, 29904, Note_on_c, 0, 69, 75
1, 29904, Note_on_c, 1, 63, 75
1, 29927, Note_on_c, 0, 69, 0
1, 29928, Note_on_c, 0, 65, 75
1, 29949, Note_on_c, 0, 77, 0
1, 29949, Note_on_c, 1, 63, 0
1, 29951, Note_on_c, 0, 65, 0
1, 29952, Note_on_c, 0, 77, 80
1, 29952, Note_on_c, 0, 70, 75
1, 29952, Note_on_c, 1, 62, 75
1, 29975, Note_on_c, 0, 70, 0
1, 29976, Note_on_c, 0, 65, 75
1, 29997, Note_on_c, 0, 77, 0
1, 29997, Note_on_c, 1, 62, 0
1, 29999, Note_on_c, 0, 65, 0
1, 30000, Note_on_c, 0, 77, 80
1, 30000, Note_on_c, 0, 70, 75
1, 30000, Note_on_c, 1, 50, 75
1, 30023, Note_on_c, 0, 70, 0
1, 30024, Note_on_c, 0, 65, 75
1, 30045, Note_on_c, 0, 77, 0
1, 30045, Note_on_c, 1, 50, 0
1, 30047, Note_on_c, 0, 65, 0
1, 30048, Note_on_c, 0, 65, 70
1, 30060, Note_on_c, 0, 65, 0
1, 30060, Note_on_c, 0, 67, 70
1, 30072, Note_on_c, 0, 67, 0
1, 30072, Note_on_c, 0, 68, 70
1, 30096, Note_on_c, 1, 62, 70
1, 30139, Note_on_c, 0, 68, 0
1, 30141, Note_on_c, 1, 62, 0
1, 30144, Note_on_c, 0, 68, 70
1, 30144, Note_on_c, 1, 63, 70
1, 30168, Note_on_c, 0, 68, 0
1, 30168, Note_on_c, 0, 67, 71
1, 30189, Note_on_c, 1, 63, 0
1, 30191, Note_on_c, 0, 67, 0
1, 30192, Note_on_c, 0, 67, 71
1, 30192, Note_on_c, 1, 51, 71
1, 30216, Note_on_c, 0, 67, 0
1, 30216, Note_on_c, 0, 70, 71
1, 30237, Note_on_c, 1, 51, 0
1, 30239, Note_on_c, 0, 70, 0
1, 30240, Note_on_c, 0, 70, 71
1, 30240, Note_on_c, 1, 53, 71
1, 30264, Note_on_c, 0, 70, 0
1, 30264, Note_on_c, 0, 69, 72
1, 30285, Note_on_c, 1, 53, 0
1, 30287, Note_on_c, 0, 69, 0
1, 30288, Note_on_c, 0, 69, 72
1, 30288, Note_on_c, 1, 41, 72
1, 30312, Note_on_c, 0, 69, 0
1, 30312, Note_on_c, 0, 72, 72
1, 30333, Note_on_c, 1, 41, 0
1, 30335, Note_on_c, 0, 72, 0
1, 30336, Note_on_c, 0, 72, 72
1, 30336, Note_on_c, 1, 43, 72
1, 30360, Note_on_c, 0, 72, 0
1, 30360, Note_on_c, 0, 70, 73
1, 30381, Note_on_c, 1, 43, 0
1, 30383, Note_on_c, 0, 70, 0
1, 30384, Note_on_c, 0, 70, 73
1, 30384, Note_on_c, 1, 55, 73
1, 30408, Note_on_c, 0, 70, 0
1, 30408, Note_on_c, 0, 74, 73
1, 30429, Note_on_c, 1, 55, 0
1, 30431, Note_on_c, 0, 74, 0
1, 30432, Note_on_c, 0, 74, 73
1, 30432, Note_on_c, 1, 57, 73
1, 30456, Note_on_c, 0, 74, 0
1, 30456, Note_on_c, 0, 72, 73
1, 30477, Note_on_c, 1, 57, 0
1, 30479, Note_on_c, 0, 72, 0
1, 30480, Note_on_c, 0, 72, 74
1, 30480, Note_on_c, 1, 45, 74
1, 30504, Note_on_c, 0, 72, 0
1, 30504, Note_on_c, 0, 75, 74
1, 30525, Note_on_c, 1, 45, 0
1, 30527, Note_on_c, 0, 75, 0
1, 30528, Note_on_c, 0, 75, 74
1, 30528, Note_on_c, 1, 46, 74
1, 30552, Note_on_c, 0, 75, 0
1, 30552, Note_on_c, 0, 74, 74
1, 30573, Note_on_c, 1, 46, 0
1, 30575, Note_on_c, 0, 74, 0
1, 30576, Note_on_c, 0, 74, 75
1, 30576, Note_on_c, 1, 58, 75
1, 30600, Note_on_c, 0, 74, 0
1, 30600, Note_on_c, 0, 77, 75
1, 30621, Note_on_c, 1, 58, 0
1, 30623, Note_on_c, 0, 77, 0
1, 30624, Note_on_c, 0, 77, 75
1, 30624, Note_on_c, 1, 60, 75
1, 30648, Note_on_c, 0, 77, 0
1, 30648, Note_on_c, 0, 75, 75
1, 30669, Note_on_c, 1, 60, 0
1, 30671, Note_on_c, 0, 75, 0
1, 30672, Note_on_c, 0, 75, 76
1, 30672, Note_on_c, 1, 48, 76
1, 30696, Note_on_c, 0, 75, 0
1, 30696, Note_on_c, 0, 79, 76
1, 30717, Note_on_c, 1, 48, 0
1, 30719, Note_on_c, 0, 79, 0
1, 30720, Note_on_c, 0, 79, 76
1, 30720, Note_on_c, 1, 50, 76
1, 30744, Note_on_c, 0, 79, 0
1, 30744, Note_on_c, 0, 77, 76
1, 30765, Note_on_c, 1, 50, 0
1, 30767, Note_on_c, 0, 77, 0
1, 30768, Note_on_c, 0, 77, 76
1, 30768, Note_on_c, 1, 62, 77
1, 30792, Note_on_c, 0, 77, 0
1, 30792, Note_on_c, 0, 82, 77
1, 30813, Note_on_c, 1, 62, 0
1, 30815, Note_on_c, 0, 82, 0
1, 30816, Note_on_c, 0, 82, 93
1, 30864, Note_on_c, 1, 58, 78
1, 30888, Note_on_c, 0, 82, 0
1, 30888, Note_on_c, 0, 74, 78
1, 30909, Note_on_c, 1, 58, 0
1, 30911, Note_on_c, 0, 74, 0
1, 30912, Note_on_c, 0, 74, 78
1, 30912, Note_on_c, 1, 63, 78
1, 30936, Note_on_c, 0, 74, 0
1, 30936, Note_on_c, 0, 72, 78
1, 30959, Note_on_c, 0, 72, 0
1, 30960, Note_on_c, 0, 72, 78
1, 30984, Note_on_c, 0, 72, 0
1, 30984, Note_on_c, 0, 79, 79
1, 31001, Note_on_c, 1, 63, 0
1, 31007, Note_on_c, 0, 79, 0
1, 31008, Note_on_c, 0, 79, 95
1, 31056, Note_on_c, 1, 64, 80
1, 31080, Note_on_c, 0, 79, 0
1, 31080, Note_on_c, 0, 70, 80
1, 31101, Note_on_c, 1, 64, 0
1, 31103, Note_on_c, 0, 70, 0
1, 31104, Note_on_c, 0, 70, 80
1, 31104, Note_on_c, 1, 65, 80
1, 31116, Note_on_c, 0, 70, 0
1, 31116, Note_on_c, 0, 72, 80
1, 31128, Note_on_c, 0, 72, 0
1, 31128, Note_on_c, 0, 70, 80
1, 31149, Note_on_c, 0, 70, 0
1, 31149, Note_on_c, 1, 65, 0
1, 31152, Note_on_c, 0, 69, 80
1, 31152, Note_on_c, 1, 53, 80
1, 31197, Note_on_c, 0, 69, 0
1, 31197, Note_on_c, 1, 53, 0
1, 31248, Note_on_c, 0, 70, 80
1, 31248, Note_on_c, 0, 62, 80
1, 31293, Note_on_c, 0, 70, 0
1, 31293, Note_on_c, 0, 62, 0
1, 31296, Note_on_c, 0, 70, 80
1, 31296, Note_on_c, 0, 62, 80
1, 31296, Note_on_c, 1, 58, 80
1, 31296, Note_on_c, 1, 46, 80
1, 31344, Note_on_c, 0, 62, 0
1, 31344, Note_on_c, 0, 74, 80
1, 31389, Note_on_c, 0, 74, 0
1, 31389, Note_on_c, 0, 70, 0
1, 31392, Note_on_c, 0, 74, 80
1, 31392, Note_on_c, 0, 70, 80
1, 31440, Note_on_c, 0, 70, 0
1, 31440, Note_on_c, 0, 77, 80
1, 31473, Note_on_c, 1, 58, 0
1, 31473, Note_on_c, 1, 46, 0
1, 31485, Note_on_c, 0, 77, 0
1, 31485, Note_on_c, 0, 74, 0
1, 31488, Note_on_c, 0, 77, 80
1, 31488, Note_on_c, 0, 74, 75
1, 31536, Note_on_c, 1, 58, 80
1, 31581, Note_on_c, 1, 58, 0
1, 31584, Note_on_c, 1, 46, 80
1, 31621, Note_on_c, 0, 77, 0
1, 31621, Note_on_c, 0, 74, 0
1, 31632, Note_on_c, 0, 75, 80
1, 31632, Note_on_c, 0, 72, 75
1, 31647, Note_on_c, 0, 75, 0
1, 31648, Note_on_c, 0, 77, 80
1, 31663, Note_on_c, 0, 77, 0
1, 31664, Note_on_c, 0, 79, 80
1, 31673, Note_on_c, 1, 46, 0
1, 31677, Note_on_c, 0, 72, 0
1, 31679, Note_on_c, 0, 79, 0
1, 31680, Note_on_c, 0, 77, 80
1, 31680, Note_on_c, 0, 74, 75
1, 31728, Note_on_c, 1, 58, 80
1, 31773, Note_on_c, 1, 58, 0
1, 31776, Note_on_c, 1, 46, 80
1, 31813, Note_on_c, 0, 77, 0
1, 31813, Note_on_c, 0, 74, 0
1, 31824, Note_on_c, 0, 75, 80
1, 31824, Note_on_c, 0, 72, 75
1, 31839, Note_on_c, 0, 75, 0
1, 31840, Note_on_c, 0, 77, 80
1, 31855, Note_on_c, 0, 77, 0
1, 31856, Note_on_c, 0, 79, 80
1, 31865, Note_on_c, 1, 46, 0
1, 31869, Note_on_c, 0, 72, 0
1, 31871, Note_on_c, 0, 79, 0
1, 31872, Note_on_c, 0, 77, 80
1, 31872, Note_on_c, 0, 74, 75
1, 31917, Note_on_c, 0, 77, 0
1, 31920, Note_on_c, 0, 82, 80
1, 31920, Note_on_c, 1, 58, 80
1, 31961, Note_on_c, 0, 74, 0
1, 31965, Note_on_c, 0, 82, 0
1, 31965, Note_on_c, 1, 58, 0
1, 31968, Note_on_c, 1, 46, 80
1, 32013, Note_on_c, 1, 46, 0
1, 32016, Note_on_c, 0, 70, 75
1, 32016, Note_on_c, 1, 62, 70
1, 32016, Note_on_c, 1, 58, 70
1, 32031, Note_on_c, 0, 70, 0
1, 32032, Note_on_c, 0, 72, 75
1, 32047, Note_on_c, 0, 72, 0
1, 32048, Note_on_c, 0, 70, 75
1, 32061, Note_on_c, 1, 62, 0
1, 32061, Note_on_c, 1, 58, 0
1, 32063, Note_on_c, 0, 70, 0
1, 32064, Note_on_c, 0, 67, 75
1, 32064, Note_on_c, 1, 63, 70
1, 32064, Note_on_c, 1, 58, 70
1, 32109, Note_on_c, 0, 67, 0
1, 32112, Note_on_c, 0, 70, 75
1, 32127, Note_on_c, 0, 70, 0
1, 32128, Note_on_c, 0, 72, 75
1, 32143, Note_on_c, 0, 72, 0
1, 32144, Note_on_c, 0, 70, 75
1, 32153, Note_on_c, 1, 63, 0
1, 32153, Note_on_c, 1, 58, 0
1, 32159, Note_on_c, 0, 70, 0
1, 32160, Note_on_c, 0, 65, 75
1, 32160, Note_on_c, 1, 62, 70
1, 32160, Note_on_c, 1, 58, 70
1, 32205, Note_on_c, 0, 65, 0
1, 32208, Note_on_c, 0, 77, 75
1, 32223, Note_on_c, 0, 77, 0
1, 32224, Note_on_c, 0, 74, 75
1, 32239, Note_on_c, 0, 74, 0
1, 32240, Note_on_c, 0, 70, 75
1, 32249, Note_on_c, 1, 62, 0
1, 32249, Note_on_c, 1, 58, 0
1, 32255, Note_on_c, 0, 70, 0
1, 32256, Note_on_c, 0, 70, 75
1, 32304, Note_on_c, 1, 46, 80
1, 32345, Note_on_c, 0, 70, 0
1, 32349, Note_on_c, 1, 46, 0
1, 32352, Note_on_c, 0, 68, 75
1, 32352, Note_on_c, 1, 48, 80
1, 32365, Note_on_c, 0, 68, 0
1, 32366, Note_on_c, 0, 70, 75
1, 32379, Note_on_c, 0, 70, 0
1, 32380, Note_on_c, 0, 68, 75
1, 32393, Note_on_c, 0, 68, 0
1, 32394, Note_on_c, 0, 70, 75
1, 32397, Note_on_c, 1, 48, 0
1, 32400, Note_on_c, 1, 50, 80
1, 32407, Note_on_c, 0, 70, 0
1, 32408, Note_on_c, 0, 68, 75
1, 32421, Note_on_c, 0, 68, 0
1, 32422, Note_on_c, 0, 67, 75
1, 32434, Note_on_c, 0, 67, 0
1, 32435, Note_on_c, 0, 68, 75
1, 32445, Note_on_c, 1, 50, 0
1, 32447, Note_on_c, 0, 68, 0
1, 32448, Note_on_c, 0, 67, 75
1, 32448, Note_on_c, 1, 51, 80
1, 32493, Note_on_c, 0, 67, 0
1, 32496, Note_on_c, 0, 78, 75
1, 32519, Note_on_c, 0, 78, 0
1, 32520, Note_on_c, 0, 79, 75
1, 32537, Note_on_c, 1, 51, 0
1, 32543, Note_on_c, 0, 79, 0
1, 32544, Note_on_c, 0, 77, 75
1, 32567, Note_on_c, 0, 77, 0
1, 32568, Note_on_c, 0, 75, 75
1, 32591, Note_on_c, 0, 75, 0
1, 32592, Note_on_c, 0, 74, 75
1, 32592, Note_on_c, 1, 52, 80
1, 32615, Note_on_c, 0, 74, 0
1, 32616, Note_on_c, 0, 72, 75
1, 32637, Note_on_c, 1, 52, 0
1, 32639, Note_on_c, 0, 72, 0
1, 32640, Note_on_c, 0, 70, 75
1, 32640, Note_on_c, 1, 53, 80
1, 32685, Note_on_c, 0, 70, 0
1, 32685, Note_on_c, 1, 53, 0
1, 32688, Note_on_c, 0, 69, 75
1, 32688, Note_on_c, 1, 48, 80
1, 32711, Note_on_c, 1, 48, 0
1, 32712, Note_on_c, 1, 45, 80
1, 32733, Note_on_c, 0, 69, 0
1, 32735, Note_on_c, 1, 45, 0
1, 32736, Note_on_c, 1, 41, 80
1, 32784, Note_on_c, 0, 70, 75
1, 32799, Note_on_c, 0, 70, 0
1, 32800, Note_on_c, 0, 72, 75
1, 32815, Note_on_c, 0, 72, 0
1, 32816, Note_on_c, 0, 70, 75
1, 32825, Note_on_c, 1, 41, 0
1, 32831, Note_on_c, 0, 70, 0
1, 32832, Note_on_c, 0, 58, 75
1, 32852, Note_on_c, 0, 58, 0
1, 32880, Note_on_c, 0, 58, 75
1, 32880, Note_on_c, 1, 53, 64
1, 32880, Note_on_c, 1, 50, 64
1, 32900, Note_on_c, 0, 58, 0
1, 32927, Note_on_c, 1, 53, 0
1, 32927, Note_on_c, 1, 50, 0
1, 32928, Note_on_c, 1, 53, 64
1, 32928, Note_on_c, 1, 50, 64
1, 32975, Note_on_c, 1, 53, 0
1, 32975, Note_on_c, 1, 50, 0
1, 32976, Note_on_c, 0, 70, 75
1, 32976, Note_on_c, 1, 53, 64
1, 32976, Note_on_c, 1, 50, 64
1, 32991, Note_on_c, 0, 70, 0
1, 32992, Note_on_c, 0, 72, 75
1, 33007, Note_on_c, 0, 72, 0
1, 33008, Note_on_c, 0, 70, 75
1, 33023, Note_on_c, 0, 70, 0
1, 33023, Note_on_c, 1, 53, 0
1, 33023, Note_on_c, 1, 50, 0
1, 33024, Note_on_c, 0, 60, 75
1, 33044, Note_on_c, 0, 60, 0
1, 33072, Note_on_c, 0, 60, 75
1, 33072, Note_on_c, 1, 55, 64
1, 33072, Note_on_c, 1, 51, 64
1, 33092, Note_on_c, 0, 60, 0
1, 33119, Note_on_c, 1, 55, 0
1, 33119, Note_on_c, 1, 51, 0
1, 33120, Note_on_c, 1, 55, 64
1, 33120, Note_on_c, 1, 51, 64
1, 33167, Note_on_c, 1, 55, 0
1, 33167, Note_on_c, 1, 51, 0
1, 33168, Note_on_c, 0, 70, 75
1, 33168, Note_on_c, 1, 55, 64
1, 33168, Note_on_c, 1, 51, 64
1, 33183, Note_on_c, 0, 70, 0
1, 33184, Note_on_c, 0, 72, 75
1, 33199, Note_on_c, 0, 72, 0
1, 33200, Note_on_c, 0, 70, 75
1, 33215, Note_on_c, 0, 70, 0
1, 33215, Note_on_c, 1, 55, 0
1, 33215, Note_on_c, 1, 51, 0
1, 33216, Note_on_c, 0, 62, 75
1, 33236, Note_on_c, 0, 62, 0
1, 33264, Note_on_c, 0, 62, 75
1, 33264, Note_on_c, 1, 56, 65
1, 33264, Note_on_c, 1, 53, 65
1, 33284, Note_on_c, 0, 62, 0
1, 33311, Note_on_c, 1, 56, 0
1, 33311, Note_on_c, 1, 53, 0
1, 33312, Note_on_c, 1, 56, 67
1, 33312, Note_on_c, 1, 53, 67
1, 33359, Note_on_c, 1, 56, 0
1, 33359, Note_on_c, 1, 53, 0
1, 33360, Note_on_c, 0, 70, 76
1, 33360, Note_on_c, 1, 56, 69
1, 33360, Note_on_c, 1, 53, 69
1, 33375, Note_on_c, 0, 70, 0
1, 33376, Note_on_c, 0, 72, 76
1, 33391, Note_on_c, 0, 72, 0
1, 33392, Note_on_c, 0, 70, 76
1, 33407, Note_on_c, 0, 70, 0
1, 33407, Note_on_c, 1, 56, 0
1, 33407, Note_on_c, 1, 53, 0
1, 33408, Note_on_c, 0, 63, 77
1, 33428, Note_on_c, 0, 63, 0
1, 33456, Note_on_c, 0, 63, 77
1, 33456, Note_on_c, 1, 58, 72
1, 33456, Note_on_c, 1, 55, 72
1, 33476, Note_on_c, 0, 63, 0
1, 33503, Note_on_c, 1, 58, 0
1, 33503, Note_on_c, 1, 55, 0
1, 33504, Note_on_c, 1, 58, 74
1, 33504, Note_on_c, 1, 55, 74
1, 33551, Note_on_c, 1, 58, 0
1, 33551, Note_on_c, 1, 55, 0
1, 33552, Note_on_c, 0, 70, 78
1, 33552, Note_on_c, 1, 58, 76
1, 33552, Note_on_c, 1, 55, 76
1, 33567, Note_on_c, 0, 70, 0
1, 33568, Note_on_c, 0, 72, 78
1, 33583, Note_on_c, 0, 72, 0
1, 33584, Note_on_c, 0, 70, 79
1, 33599, Note_on_c, 0, 70, 0
1, 33599, Note_on_c, 1, 58, 0
1, 33599, Note_on_c, 1, 55, 0
1, 33600, Note_on_c, 0, 64, 79
1, 33620, Note_on_c, 0, 64, 0
1, 33648, Note_on_c, 0, 73, 96
1, 33648, Note_on_c, 1, 58, 80
1, 33648, Note_on_c, 1, 54, 80
1, 33693, Note_on_c, 1, 54, 0
1, 33695, Note_on_c, 1, 58, 0
1, 33696, Note_on_c, 1, 58, 80
1, 33696, Note_on_c, 1, 54, 80
1, 33743, Note_on_c, 1, 58, 0
1, 33744, Note_on_c, 0, 73, 0
1, 33744, Note_on_c, 0, 72, 70
1, 33744, Note_on_c, 1, 64, 70
1, 33767, Note_on_c, 0, 72, 0
1, 33768, Note_on_c, 0, 70, 70
1, 33785, Note_on_c, 1, 54, 0
1, 33791, Note_on_c, 0, 70, 0
1, 33791, Note_on_c, 1, 64, 0
1, 33792, Note_on_c, 0, 70, 71
1, 33792, Note_on_c, 1, 65, 71
1, 33792, Note_on_c, 1, 53, 80
1, 33837, Note_on_c, 1, 65, 0
1, 33837, Note_on_c, 1, 53, 0
1, 33840, Note_on_c, 1, 57, 80
1, 33855, Note_on_c, 1, 57, 0
1, 33856, Note_on_c, 1, 58, 80
1, 33871, Note_on_c, 1, 58, 0
1, 33872, Note_on_c, 1, 60, 80
1, 33887, Note_on_c, 1, 60, 0
1, 33888, Note_on_c, 0, 70, 0
1, 33888, Note_on_c, 0, 69, 73
1, 33888, Note_on_c, 1, 53, 80
1, 33908, Note_on_c, 0, 69, 0
1, 33936, Note_on_c, 0, 70, 75
1, 33951, Note_on_c, 0, 70, 0
1, 33952, Note_on_c, 0, 72, 75
1, 33967, Note_on_c, 0, 72, 0
1, 33968, Note_on_c, 0, 70, 75
1, 33977, Note_on_c, 1, 53, 0
1, 33983, Note_on_c, 0, 70, 0
1, 33984, Note_on_c, 0, 64, 75
1, 34004, Note_on_c, 0, 64, 0
1, 34032, Note_on_c, 0, 73, 93
1, 34032, Note_on_c, 1, 58, 78
1, 34032, Note_on_c, 1, 54, 80
1, 34077, Note_on_c, 1, 54, 0
1, 34079, Note_on_c, 1, 58, 0
1, 34080, Note_on_c, 1, 58, 80
1, 34080, Note_on_c, 1, 54, 80
1, 34127, Note_on_c, 1, 58, 0
1, 34128, Note_on_c, 0, 73, 0
1, 34128, Note_on_c, 0, 72, 80
1, 34128, Note_on_c, 1, 64, 80
1, 34151, Note_on_c, 0, 72, 0
1, 34152, Note_on_c, 0, 70, 80
1, 34169, Note_on_c, 1, 54, 0
1, 34175, Note_on_c, 0, 70, 0
1, 34175, Note_on_c, 1, 64, 0
1, 34176, Note_on_c, 0, 72, 80
1, 34176, Note_on_c, 1, 65, 80
1, 34176, Note_on_c, 1, 53, 80
1, 34188, Note_on_c, 0, 72, 0
1, 34188, Note_on_c, 0, 70, 80
1, 34200, Note_on_c, 0, 70, 0
1, 34200, Note_on_c, 0, 72, 80
1, 34212, Note_on_c, 0, 72, 0
1, 34212, Note_on_c, 0, 70, 80
1, 34221, Note_on_c, 1, 65, 0
1, 34221, Note_on_c, 1, 53, 0
1, 34224, Note_on_c, 0, 70, 0
1, 34224, Note_on_c, 0, 72, 80
1, 34224, Note_on_c, 1, 57, 80
1, 34236, Note_on_c, 0, 72, 0
1, 34236, Note_on_c, 0, 70, 80
1, 34239, Note_on_c, 1, 57, 0
1, 34240, Note_on_c, 1, 58, 80
1, 34248, Note_on_c, 0, 70, 0
1, 34248, Note_on_c, 0, 69, 80
1, 34255, Note_on_c, 1, 58, 0
1, 34256, Note_on_c, 1, 60, 80
1, 34260, Note_on_c, 0, 69, 0
1, 34260, Note_on_c, 0, 70, 80
1, 34271, Note_on_c, 1, 60, 0
1, 34272, Note_on_c, 0, 70, 0
1, 34272, Note_on_c, 0, 69, 80
1, 34272, Note_on_c, 1, 53, 80
1, 34361, Note_on_c, 0, 69, 0
1, 34361, Note_on_c, 1, 53, 0
1, 34368, Note_on_c, 0, 82, 75
1, 34368, Note_on_c, 1, 58, 70
1, 34368, Note_on_c, 1, 50, 70
1, 34392, Note_on_c, 0, 82, 0
1, 34392, Note_on_c, 0, 81, 74
1, 34415, Note_on_c, 0, 81, 0
1, 34415, Note_on_c, 1, 58, 0
1, 34415, Note_on_c, 1, 50, 0
1, 34416, Note_on_c, 0, 81, 73
1, 34416, Note_on_c, 1, 58, 68
1, 34416, Note_on_c, 1, 50, 68
1, 34440, Note_on_c, 0, 81, 0
1, 34440, Note_on_c, 0, 79, 73
1, 34463, Note_on_c, 0, 79, 0
1, 34463, Note_on_c, 1, 58, 0
1, 34463, Note_on_c, 1, 50, 0
1, 34464, Note_on_c, 0, 79, 72
1, 34464, Note_on_c, 1, 58, 67
1, 34464, Note_on_c, 1, 50, 67
1, 34488, Note_on_c, 0, 79, 0
1, 34488, Note_on_c, 0, 77, 71
1, 34511, Note_on_c, 0, 77, 0
1, 34511, Note_on_c, 1, 58, 0
1, 34511, Note_on_c, 1, 50, 0
1, 34512, Note_on_c, 0, 77, 71
1, 34512, Note_on_c, 1, 58, 65
1, 34512, Note_on_c, 1, 50, 65
1, 34536, Note_on_c, 0, 77, 0
1, 34536, Note_on_c, 0, 78, 70
1, 34559, Note_on_c, 0, 78, 0
1, 34559, Note_on_c, 1, 58, 0
1, 34559, Note_on_c, 1, 50, 0
1, 34560, Note_on_c, 0, 78, 86
1, 34560, Note_on_c, 1, 58, 64
1, 34560, Note_on_c, 1, 51, 64
1, 34607, Note_on_c, 1, 58, 0
1, 34607, Note_on_c, 1, 51, 0
1, 34608, Note_on_c, 1, 58, 65
1, 34608, Note_on_c, 1, 51, 65
1, 34655, Note_on_c, 1, 58, 0
1, 34655, Note_on_c, 1, 51, 0
1, 34656, Note_on_c, 1, 58, 67
1, 34656, Note_on_c, 1, 51, 67
1, 34703, Note_on_c, 1, 58, 0
1, 34703, Note_on_c, 1, 51, 0
1, 34704, Note_on_c, 0, 78, 0
1, 34704, Note_on_c, 0, 79, 73
1, 34704, Note_on_c, 1, 58, 68
1, 34704, Note_on_c, 1, 51, 68
1, 34749, Note_on_c, 0, 79, 0
1, 34751, Note_on_c, 1, 58, 0
1, 34751, Note_on_c, 1, 51, 0
1, 34752, Note_on_c, 0, 82, 75
1, 34752, Note_on_c, 1, 58, 70
1, 34752, Note_on_c, 1, 50, 70
1, 34776, Note_on_c, 0, 82, 0
1, 34776, Note_on_c, 0, 81, 74
1, 34799, Note_on_c, 0, 81, 0
1, 34799, Note_on_c, 1, 58, 0
1, 34799, Note_on_c, 1, 50, 0
1, 34800, Note_on_c, 0, 81, 73
1, 34800, Note_on_c, 1, 58, 68
1, 34800, Note_on_c, 1, 50, 68
1, 34824, Note_on_c, 0, 81, 0
1, 34824, Note_on_c, 0, 79, 73
1, 34847, Note_on_c, 0, 79, 0
1, 34847, Note_on_c, 1, 58, 0
1, 34847, Note_on_c, 1, 50, 0
1, 34848, Note_on_c, 0, 79, 72
1, 34848, Note_on_c, 1, 58, 67
1, 34848, Note_on_c, 1, 50, 67
1, 34872, Note_on_c, 0, 79, 0
1, 34872, Note_on_c, 0, 77, 71
1, 34895, Note_on_c, 0, 77, 0
1, 34895, Note_on_c, 1, 58, 0
1, 34895, Note_on_c, 1, 50, 0
1, 34896, Note_on_c, 0, 77, 71
1, 34896, Note_on_c, 1, 58, 65
1, 34896, Note_on_c, 1, 50, 65
1, 34920, Note_on_c, 0, 77, 0
1, 34920, Note_on_c, 0, 78, 70
1, 34943, Note_on_c, 0, 78, 0
1, 34943, Note_on_c, 1, 58, 0
1, 34943, Note_on_c, 1, 50, 0
1, 34944, Note_on_c, 0, 78, 86
1, 34944, Note_on_c, 1, 58, 64
1, 34944, Note_on_c, 1, 51, 64
1, 34991, Note_on_c, 1, 58, 0
1, 34991, Note_on_c, 1, 51, 0
1, 34992, Note_on_c, 1, 58, 65
1, 34992, Note_on_c, 1, 51, 65
1, 35039, Note_on_c, 1, 58, 0
1, 35039, Note_on_c, 1, 51, 0
1, 35040, Note_on_c, 1, 58, 67
1, 35040, Note_on_c, 1, 51, 67
1, 35087, Note_on_c, 1, 58, 0
1, 35087, Note_on_c, 1, 51, 0
1, 35088, Note_on_c, 0, 78, 0
1, 35088, Note_on_c, 0, 79, 73
1, 35088, Note_on_c, 1, 58, 68
1, 35088, Note_on_c, 1, 51, 68
1, 35133, Note_on_c, 0, 79, 0
1, 35135, Note_on_c, 1, 58, 0
1, 35135, Note_on_c, 1, 51, 0
1, 35136, Note_on_c, 0, 82, 75
1, 35136, Note_on_c, 1, 58, 70
1, 35136, Note_on_c, 1, 50, 70
1, 35160, Note_on_c, 0, 82, 0
1, 35160, Note_on_c, 0, 81, 74
1, 35183, Note_on_c, 0, 81, 0
1, 35183, Note_on_c, 1, 58, 0
1, 35183, Note_on_c, 1, 50, 0
1, 35184, Note_on_c, 0, 81, 73
1, 35184, Note_on_c, 1, 58, 68
1, 35184, Note_on_c, 1, 50, 68
1, 35208, Note_on_c, 0, 81, 0
1, 35208, Note_on_c, 0, 79, 73
1, 35231, Note_on_c, 0, 79, 0
1, 35231, Note_on_c, 1, 58, 0
1, 35231, Note_on_c, 1, 50, 0
1, 35232, Note_on_c, 0, 79, 72
1, 35232, Note_on_c, 1, 58, 67
1, 35232, Note_on_c, 1, 50, 67
1, 35256, Note_on_c, 0, 79, 0
1, 35256, Note_on_c, 0, 77, 71
1, 35279, Note_on_c, 0, 77, 0
1, 35279, Note_on_c, 1, 58, 0
1, 35279, Note_on_c, 1, 50, 0
1, 35280, Note_on_c, 0, 77, 71
1, 35280, Note_on_c, 1, 58, 65
1, 35280, Note_on_c, 1, 50, 65
1, 35304, Note_on_c, 0, 77, 0
1, 35304, Note_on_c, 0, 76, 70
1, 35327, Note_on_c, 0, 76, 0
1, 35327, Note_on_c, 1, 58, 0
1, 35327, Note_on_c, 1, 50, 0
1, 35328, Note_on_c, 0, 76, 86
1, 35328, Note_on_c, 1, 58, 64
1, 35328, Note_on_c, 1, 48, 64
1, 35375, Note_on_c, 1, 58, 0
1, 35375, Note_on_c, 1, 48, 0
1, 35376, Note_on_c, 1, 58, 67
1, 35376, Note_on_c, 1, 48, 67
1, 35423, Note_on_c, 1, 58, 0
1, 35423, Note_on_c, 1, 48, 0
1, 35424, Note_on_c, 1, 58, 71
1, 35424, Note_on_c, 1, 48, 71
1, 35458, Note_on_c, 0, 76, 0
1, 35460, Note_on_c, 0, 86, 80
1, 35471, Note_on_c, 1, 58, 0
1, 35471, Note_on_c, 1, 48, 0
1, 35472, Note_on_c, 0, 86, 0
1, 35472, Note_on_c, 0, 76, 80
1, 35472, Note_on_c, 1, 58, 75
1, 35472, Note_on_c, 1, 48, 75
1, 35506, Note_on_c, 0, 76, 0
1, 35508, Note_on_c, 0, 86, 80
1, 35519, Note_on_c, 1, 58, 0
1, 35519, Note_on_c, 1, 48, 0
1, 35520, Note_on_c, 0, 86, 0
1, 35520, Note_on_c, 0, 76, 86
1, 35520, Note_on_c, 1, 58, 64
1, 35520, Note_on_c, 1, 48, 64
1, 35567, Note_on_c, 1, 58, 0
1, 35567, Note_on_c, 1, 48, 0
1, 35568, Note_on_c, 1, 58, 67
1, 35568, Note_on_c, 1, 48, 67
1, 35615, Note_on_c, 1, 58, 0
1, 35615, Note_on_c, 1, 48, 0
1, 35616, Note_on_c, 1, 58, 71
1, 35616, Note_on_c, 1, 48, 71
1, 35650, Note_on_c, 0, 76, 0
1, 35652, Note_on_c, 0, 86, 80
1, 35663, Note_on_c, 1, 58, 0
1, 35663, Note_on_c, 1, 48, 0
1, 35664, Note_on_c, 0, 86, 0
1, 35664, Note_on_c, 0, 76, 80
1, 35664, Note_on_c, 1, 58, 75
1, 35664, Note_on_c, 1, 48, 75
1, 35698, Note_on_c, 0, 76, 0
1, 35700, Note_on_c, 0, 86, 80
1, 35711, Note_on_c, 1, 58, 0
1, 35711, Note_on_c, 1, 48, 0
1, 35712, Note_on_c, 0, 86, 0
1, 35712, Note_on_c, 0, 75, 96
1, 35712, Note_on_c, 1, 57, 75
1, 35712, Note_on_c, 1, 53, 75
1, 35759, Note_on_c, 1, 57, 0
1, 35759, Note_on_c, 1, 53, 0
1, 35760, Note_on_c, 1, 57, 75
1, 35760, Note_on_c, 1, 53, 75
1, 35807, Note_on_c, 1, 57, 0
1, 35807, Note_on_c, 1, 53, 0
1, 35808, Note_on_c, 1, 57, 75
1, 35808, Note_on_c, 1, 53, 75
1, 35855, Note_on_c, 1, 57, 0
1, 35855, Note_on_c, 1, 53, 0
1, 35856, Note_on_c, 0, 75, 0
1, 35856, Note_on_c, 0, 79, 76
1, 35856, Note_on_c, 1, 57, 75
1, 35856, Note_on_c, 1, 53, 75
1, 35871, Note_on_c, 0, 79, 0
1, 35872, Note_on_c, 0, 77, 75
1, 35887, Note_on_c, 0, 77, 0
1, 35888, Note_on_c, 0, 75, 75
1, 35903, Note_on_c, 0, 75, 0
1, 35903, Note_on_c, 1, 57, 0
1, 35903, Note_on_c, 1, 53, 0
1, 35904, Note_on_c, 0, 74, 75
1, 35904, Note_on_c, 1, 58, 75
1, 35904, Note_on_c, 1, 46, 75
1, 35949, Note_on_c, 0, 74, 0
1, 35952, Note_on_c, 0, 82, 75
1, 35967, Note_on_c, 0, 82, 0
1, 35968, Note_on_c, 0, 84, 75
1, 35983, Note_on_c, 0, 84, 0
1, 35984, Note_on_c, 0, 82, 75
1, 35993, Note_on_c, 1, 58, 0
1, 35993, Note_on_c, 1, 46, 0
1, 35999, Note_on_c, 0, 82, 0
1, 36000, Note_on_c, 0, 79, 75
1, 36000, Note_on_c, 1, 63, 75
1, 36000, Note_on_c, 1, 51, 75
1, 36045, Note_on_c, 0, 79, 0
1, 36048, Note_on_c, 0, 75, 75
1, 36063, Note_on_c, 0, 75, 0
1, 36064, Note_on_c, 0, 77, 75
1, 36079, Note_on_c, 0, 77, 0
1, 36080, Note_on_c, 0, 75, 75
1, 36089, Note_on_c, 1, 63, 0
1, 36089, Note_on_c, 1, 51, 0
1, 36095, Note_on_c, 0, 75, 0
1, 36096, Note_on_c, 0, 65, 75
1, 36144, Note_on_c, 1, 58, 75
1, 36144, Note_on_c, 1, 50, 80
1, 36185, Note_on_c, 0, 65, 0
1, 36189, Note_on_c, 1, 50, 0
1, 36192, Note_on_c, 0, 74, 75
1, 36192, Note_on_c, 1, 51, 80
1, 36204, Note_on_c, 0, 74, 0
1, 36204, Note_on_c, 0, 72, 75
1, 36216, Note_on_c, 0, 72, 0
1, 36216, Note_on_c, 0, 74, 75
1, 36228, Note_on_c, 0, 74, 0
1, 36228, Note_on_c, 0, 72, 75
1, 36233, Note_on_c, 1, 58, 0
1, 36237, Note_on_c, 1, 51, 0
1, 36240, Note_on_c, 0, 72, 0
1, 36240, Note_on_c, 0, 74, 75
1, 36240, Note_on_c, 1, 57, 75
1, 36240, Note_on_c, 1, 53, 80
1, 36252, Note_on_c, 0, 74, 0
1, 36252, Note_on_c, 0, 72, 75
1, 36264, Note_on_c, 0, 72, 0
1, 36264, Note_on_c, 0, 70, 75
1, 36276, Note_on_c, 0, 70, 0
1, 36276, Note_on_c, 0, 72, 75
1, 36285, Note_on_c, 1, 57, 0
1, 36285, Note_on_c, 1, 53, 0
1, 36288, Note_on_c, 0, 72, 0
1, 36288, Note_on_c, 0, 70, 75
1, 36288, Note_on_c, 1, 58, 75
1, 36288, Note_on_c, 1, 46, 75
1, 36308, Note_on_c, 0, 70, 0
1, 36336, Note_on_c, 0, 82, 75
1, 36351, Note_on_c, 0, 82, 0
1, 36352, Note_on_c, 0, 84, 75
1, 36367, Note_on_c, 0, 84, 0
1, 36368, Note_on_c, 0, 82, 75
1, 36377, Note_on_c, 1, 58, 0
1, 36377, Note_on_c, 1, 46, 0
1, 36383, Note_on_c, 0, 82, 0
1, 36384, Note_on_c, 0, 79, 75
1, 36384, Note_on_c, 1, 63, 75
1, 36384, Note_on_c, 1, 51, 75
1, 36429, Note_on_c, 0, 79, 0
1, 36432, Note_on_c, 0, 75, 75
1, 36447, Note_on_c, 0, 75, 0
1, 36448, Note_on_c, 0, 77, 75
1, 36463, Note_on_c, 0, 77, 0
1, 36464, Note_on_c, 0, 75, 75
1, 36473, Note_on_c, 1, 63, 0
1, 36473, Note_on_c, 1, 51, 0
1, 36479, Note_on_c, 0, 75, 0
1, 36480, Note_on_c, 0, 65, 75
1, 36528, Note_on_c, 1, 58, 75
1, 36528, Note_on_c, 1, 50, 80
1, 36569, Note_on_c, 0, 65, 0
1, 36573, Note_on_c, 1, 50, 0
1, 36576, Note_on_c, 0, 74, 75
1, 36576, Note_on_c, 1, 51, 80
1, 36588, Note_on_c, 0, 74, 0
1, 36588, Note_on_c, 0, 72, 75
1, 36600, Note_on_c, 0, 72, 0
1, 36600, Note_on_c, 0, 74, 75
1, 36612, Note_on_c, 0, 74, 0
1, 36612, Note_on_c, 0, 72, 75
1, 36617, Note_on_c, 1, 58, 0
1, 36621, Note_on_c, 1, 51, 0
1, 36624, Note_on_c, 0, 72, 0
1, 36624, Note_on_c, 0, 74, 75
1, 36624, Note_on_c, 1, 57, 75
1, 36624, Note_on_c, 1, 53, 80
1, 36636, Note_on_c, 0, 74, 0
1, 36636, Note_on_c, 0, 72, 75
1, 36648, Note_on_c, 0, 72, 0
1, 36648, Note_on_c, 0, 70, 75
1, 36660, Note_on_c, 0, 70, 0
1, 36660, Note_on_c, 0, 72, 75
1, 36669, Note_on_c, 1, 57, 0
1, 36669, Note_on_c, 1, 53, 0
1, 36672, Note_on_c, 0, 72, 0
1, 36672, Note_on_c, 0, 70, 75
1, 36672, Note_on_c, 1, 58, 75
1, 36717, Note_on_c, 1, 58, 0
1, 36720, Note_on_c, 1, 53, 75
1, 36743, Note_on_c, 1, 53, 0
1, 36744, Note_on_c, 1, 50, 75
1, 36761, Note_on_c, 0, 70, 0
1, 36767, Note_on_c, 1, 50, 0
1, 36768, Note_on_c, 1, 46, 75
1, 36840, Note_on_c, 0, 70, 75
1, 36850, Note_on_c, 0, 70, 0
1, 36857, Note_on_c, 1, 46, 0
1, 36864, Note_on_c, 0, 58, 64
1, 36912, Note_on_c, 1, 53, 75
1, 36912, Note_on_c, 1, 50, 64
1, 36957, Note_on_c, 1, 53, 0
1, 36957, Note_on_c, 1, 50, 0
1, 36960, Note_on_c, 1, 53, 64
1, 36960, Note_on_c, 1, 50, 64
1, 37008, Note_on_c, 0, 58, 0
1, 37008, Note_on_c, 0, 59, 68
1, 37008, Note_on_c, 1, 53, 0
1, 37008, Note_on_c, 1, 54, 70
1, 37049, Note_on_c, 1, 50, 0
1, 37053, Note_on_c, 0, 59, 0
1, 37053, Note_on_c, 1, 54, 0
1, 37056, Note_on_c, 0, 60, 70
1, 37056, Note_on_c, 1, 55, 75
1, 37056, Note_on_c, 1, 51, 75
1, 37101, Note_on_c, 0, 60, 0
1, 37104, Note_on_c, 0, 62, 72
1, 37110, Note_on_c, 0, 62, 0
1, 37110, Note_on_c, 0, 63, 72
1, 37145, Note_on_c, 1, 55, 0
1, 37145, Note_on_c, 1, 51, 0
1, 37149, Note_on_c, 0, 63, 0
1, 37152, Note_on_c, 0, 66, 73
1, 37158, Note_on_c, 0, 66, 0
1, 37158, Note_on_c, 0, 67, 73
1, 37197, Note_on_c, 0, 67, 0
1, 37200, Note_on_c, 0, 71, 75
1, 37206, Note_on_c, 0, 71, 0
1, 37206, Note_on_c, 0, 72, 75
1, 37245, Note_on_c, 0, 72, 0
1, 37248, Note_on_c, 0, 74, 76
1, 37254, Note_on_c, 0, 74, 0
1, 37254, Note_on_c, 0, 75, 76
1, 37293, Note_on_c, 0, 75, 0
1, 37296, Note_on_c, 0, 78, 78
1, 37302, Note_on_c, 0, 78, 0
1, 37302, Note_on_c, 0, 79, 78
1, 37341, Note_on_c, 0, 79, 0
1, 37344, Note_on_c, 0, 77, 80
1, 37359, Note_on_c, 0, 77, 0
1, 37360, Note_on_c, 0, 75, 80
1, 37375, Note_on_c, 0, 75, 0
1, 37376, Note_on_c, 0, 74, 80
1, 37391, Note_on_c, 0, 74, 0
1, 37392, Note_on_c, 0, 75, 80
1, 37407, Note_on_c, 0, 75, 0
1, 37408, Note_on_c, 0, 74, 80
1, 37423, Note_on_c, 0, 74, 0
1, 37424, Note_on_c, 0, 72, 80
1, 37439, Note_on_c, 0, 72, 0
1, 37440, Note_on_c, 0, 70, 80
1, 37488, Note_on_c, 1, 50, 75
1, 37507, Note_on_c, 0, 70, 0
1, 37512, Note_on_c, 0, 72, 80
1, 37533, Note_on_c, 1, 50, 0
1, 37535, Note_on_c, 0, 72, 0
1, 37536, Note_on_c, 0, 74, 80
1, 37536, Note_on_c, 1, 51, 75
1, 37548, Note_on_c, 0, 74, 0
1, 37548, Note_on_c, 0, 72, 80
1, 37560, Note_on_c, 0, 72, 0
1, 37560, Note_on_c, 0, 74, 80
1, 37572, Note_on_c, 0, 74, 0
1, 37572, Note_on_c, 0, 72, 80
1, 37581, Note_on_c, 1, 51, 0
1, 37584, Note_on_c, 0, 72, 0
1, 37584, Note_on_c, 0, 74, 80
1, 37584, Note_on_c, 1, 53, 75
1, 37596, Note_on_c, 0, 74, 0
1, 37596, Note_on_c, 0, 72, 80
1, 37608, Note_on_c, 0, 72, 0
1, 37608, Note_on_c, 0, 70, 80
1, 37620, Note_on_c, 0, 70, 0
1, 37620, Note_on_c, 0, 72, 80
1, 37629, Note_on_c, 1, 53, 0
1, 37632, Note_on_c, 0, 72, 0
1, 37632, Note_on_c, 0, 70, 80
1, 37632, Note_on_c, 1, 46, 75
1, 37677, Note_on_c, 1, 46, 0
1, 37680, Note_on_c, 1, 53, 75
1, 37721, Note_on_c, 0, 70, 0
1, 37725, Note_on_c, 1, 53, 0
1, 37728, Note_on_c, 0, 77, 75
1, 37751, Note_on_c, 0, 77, 0
1, 37752, Note_on_c, 0, 65, 75
1, 37775, Note_on_c, 0, 65, 0
1, 37776, Note_on_c, 0, 77, 75
1, 37776, Note_on_c, 1, 62, 75
1, 37799, Note_on_c, 0, 77, 0
1, 37800, Note_on_c, 0, 65, 75
1, 37821, Note_on_c, 1, 62, 0
1, 37823, Note_on_c, 0, 65, 0
1, 37824, Note_on_c, 0, 75, 75
1, 37824, Note_on_c, 0, 77, 75
1, 37824, Note_on_c, 1, 60, 75
1, 37847, Note_on_c, 0, 75, 0
1, 37848, Note_on_c, 0, 65, 75
1, 37869, Note_on_c, 0, 77, 0
1, 37869, Note_on_c, 1, 60, 0
1, 37871, Note_on_c, 0, 65, 0
1, 37872, Note_on_c, 0, 75, 75
1, 37872, Note_on_c, 0, 77, 75
1, 37872, Note_on_c, 1, 58, 75
1, 37895, Note_on_c, 0, 75, 0
1, 37896, Note_on_c, 0, 65, 75
1, 37917, Note_on_c, 0, 77, 0
1, 37917, Note_on_c, 1, 58, 0
1, 37919, Note_on_c, 0, 65, 0
1, 37920, Note_on_c, 0, 75, 75
1, 37920, Note_on_c, 0, 77, 75
1, 37920, Note_on_c, 1, 57, 75
1, 37943, Note_on_c, 0, 75, 0
1, 37944, Note_on_c, 0, 65, 75
1, 37965, Note_on_c, 0, 77, 0
1, 37965, Note_on_c, 1, 57, 0
1, 37967, Note_on_c, 0, 65, 0
1, 37968, Note_on_c, 0, 75, 75
1, 37968, Note_on_c, 0, 77, 75
1, 37968, Note_on_c, 1, 60, 75
1, 37991, Note_on_c, 0, 75, 0
1, 37992, Note_on_c, 0, 65, 75
1, 38013, Note_on_c, 0, 77, 0
1, 38013, Note_on_c, 1, 60, 0
1, 38015, Note_on_c, 0, 65, 0
1, 38016, Note_on_c, 0, 77, 75
1, 38016, Note_on_c, 0, 74, 75
1, 38016, Note_on_c, 1, 58, 75
1, 38039, Note_on_c, 1, 58, 0
1, 38040, Note_on_c, 1, 53, 75
1, 38063, Note_on_c, 1, 53, 0
1, 38064, Note_on_c, 1, 50, 75
1, 38087, Note_on_c, 1, 50, 0
1, 38088, Note_on_c, 1, 46, 75
1, 38105, Note_on_c, 0, 77, 0
1, 38105, Note_on_c, 0, 74, 0
1, 38111, Note_on_c, 1, 46, 0
1, 38112, Note_on_c, 0, 77, 64
1, 38135, Note_on_c, 0, 77, 0
1, 38136, Note_on_c, 0, 65, 64
1, 38159, Note_on_c, 0, 65, 0
1, 38160, Note_on_c, 0, 77, 64
1, 38160, Note_on_c, 1, 62, 64
1, 38183, Note_on_c, 0, 77, 0
1, 38184, Note_on_c, 0, 65, 64
1, 38205, Note_on_c, 1, 62, 0
1, 38207, Note_on_c, 0, 65, 0
1, 38208, Note_on_c, 0, 75, 64
1, 38208, Note_on_c, 0, 77, 64
1, 38208, Note_on_c, 1, 60, 64
1, 38231, Note_on_c, 0, 75, 0
1, 38232, Note_on_c, 0, 65, 64
1, 38253, Note_on_c, 0, 77, 0
1, 38253, Note_on_c, 1, 60, 0
1, 38255, Note_on_c, 0, 65, 0
1, 38256, Note_on_c, 0, 75, 64
1, 38256, Note_on_c, 0, 77, 64
1, 38256, Note_on_c, 1, 58, 64
1, 38279, Note_on_c, 0, 75, 0
1, 38280, Note_on_c, 0, 65, 64
1, 38301, Note_on_c, 0, 77, 0
1, 38301, Note_on_c, 1, 58, 0
1, 38303, Note_on_c, 0, 65, 0
1, 38304, Note_on_c, 0, 75, 64
1, 38304, Note_on_c, 0, 77, 64
1, 38304, Note_on_c, 1, 57, 64
1, 38327, Note_on_c, 0, 75, 0
1, 38328, Note_on_c, 0, 65, 64
1, 38349, Note_on_c, 0, 77, 0
1, 38349, Note_on_c, 1, 57, 0
1, 38351, Note_on_c, 0, 65, 0
1, 38352, Note_on_c, 0, 75, 64
1, 38352, Note_on_c, 0, 77, 64
1, 38352, Note_on_c, 1, 60, 64
1, 38375, Note_on_c, 0, 75, 0
1, 38376, Note_on_c, 0, 65, 64
1, 38397, Note_on_c, 0, 77, 0
1, 38397, Note_on_c, 1, 60, 0
1, 38399, Note_on_c, 0, 65, 0
1, 38400, Note_on_c, 0, 77, 64
1, 38400, Note_on_c, 0, 74, 64
1, 38400, Note_on_c, 1, 58, 64
1, 38423, Note_on_c, 1, 58, 0
1, 38424, Note_on_c, 1, 53, 64
1, 38447, Note_on_c, 1, 53, 0
1, 38448, Note_on_c, 1, 50, 64
1, 38471, Note_on_c, 1, 50, 0
1, 38472, Note_on_c, 1, 46, 64
1, 38489, Note_on_c, 0, 77, 0
1, 38489, Note_on_c, 0, 74, 0
1, 38495, Note_on_c, 1, 46, 0
1, 38496, Note_on_c, 0, 77, 75
1, 38519, Note_on_c, 0, 77, 0
1, 38520, Note_on_c, 0, 65, 75
1, 38543, Note_on_c, 0, 65, 0
1, 38544, Note_on_c, 0, 77, 75
1, 38544, Note_on_c, 1, 62, 75
1, 38567, Note_on_c, 0, 77, 0
1, 38568, Note_on_c, 0, 65, 75
1, 38589, Note_on_c, 1, 62, 0
1, 38591, Note_on_c, 0, 65, 0
1, 38592, Note_on_c, 0, 75, 75
1, 38592, Note_on_c, 0, 77, 75
1, 38592, Note_on_c, 1, 60, 75
1, 38615, Note_on_c, 0, 75, 0
1, 38616, Note_on_c, 0, 65, 75
1, 38637, Note_on_c, 0, 77, 0
1, 38637, Note_on_c, 1, 60, 0
1, 38639, Note_on_c, 0, 65, 0
1, 38640, Note_on_c, 0, 75, 75
1, 38640, Note_on_c, 0, 77, 75
1, 38640, Note_on_c, 1, 58, 75
1, 38663, Note_on_c, 0, 75, 0
1, 38664, Note_on_c, 0, 65, 75
1, 38685, Note_on_c, 0, 77, 0
1, 38685, Note_on_c, 1, 58, 0
1, 38687, Note_on_c, 0, 65, 0
1, 38688, Note_on_c, 0, 75, 75
1, 38688, Note_on_c, 0, 77, 75
1, 38688, Note_on_c, 1, 57, 75
1, 38711, Note_on_c, 0, 75, 0
1, 38712, Note_on_c, 0, 65, 75
1, 38733, Note_on_c, 0, 77, 0
1, 38733, Note_on_c, 1, 57, 0
1, 38735, Note_on_c, 0, 65, 0
1, 38736, Note_on_c, 0, 75, 75
1, 38736, Note_on_c, 0, 77, 75
1, 38736, Note_on_c, 1, 60, 75
1, 38759, Note_on_c, 0, 75, 0
1, 38760, Note_on_c, 0, 65, 75
1, 38781, Note_on_c, 0, 77, 0
1, 38781, Note_on_c, 1, 60, 0
1, 38783, Note_on_c, 0, 65, 0
1, 38784, Note_on_c, 0, 77, 75
1, 38784, Note_on_c, 0, 74, 75
1, 38784, Note_on_c, 1, 58, 75
1, 38829, Note_on_c, 0, 77, 0
1, 38829, Note_on_c, 0, 74, 0
1, 38832, Note_on_c, 0, 70, 75
1, 38847, Note_on_c, 0, 70, 0
1, 38848, Note_on_c, 0, 72, 75
1, 38863, Note_on_c, 0, 72, 0
1, 38864, Note_on_c, 0, 70, 75
1, 38873, Note_on_c, 1, 58, 0
1, 38879, Note_on_c, 0, 70, 0
1, 38880, Note_on_c, 0, 67, 75
1, 38880, Note_on_c, 1, 58, 75
1, 38880, Note_on_c, 1, 51, 75
1, 38900, Note_on_c, 0, 67, 0
1, 38928, Note_on_c, 0, 75, 75
1, 38943, Note_on_c, 0, 75, 0
1, 38944, Note_on_c, 0, 77, 75
1, 38959, Note_on_c, 0, 77, 0
1, 38960, Note_on_c, 0, 75, 75
1, 38969, Note_on_c, 1, 58, 0
1, 38969, Note_on_c, 1, 51, 0
1, 38975, Note_on_c, 0, 75, 0
1, 38976, Note_on_c, 0, 65, 75
1, 39024, Note_on_c, 1, 58, 75
1, 39024, Note_on_c, 1, 50, 64
1, 39065, Note_on_c, 0, 65, 0
1, 39069, Note_on_c, 1, 50, 0
1, 39072, Note_on_c, 0, 74, 75
1, 39072, Note_on_c, 1, 51, 64
1, 39084, Note_on_c, 0, 74, 0
1, 39084, Note_on_c, 0, 72, 75
1, 39096, Note_on_c, 0, 72, 0
1, 39096, Note_on_c, 0, 74, 75
1, 39108, Note_on_c, 0, 74, 0
1, 39108, Note_on_c, 0, 72, 75
1, 39113, Note_on_c, 1, 58, 0
1, 39117, Note_on_c, 1, 51, 0
1, 39120, Note_on_c, 0, 72, 0
1, 39120, Note_on_c, 0, 74, 75
1, 39120, Note_on_c, 1, 57, 75
1, 39120, Note_on_c, 1, 53, 64
1, 39132, Note_on_c, 0, 74, 0
1, 39132, Note_on_c, 0, 72, 75
1, 39144, Note_on_c, 0, 72, 0
1, 39144, Note_on_c, 0, 70, 75
1, 39156, Note_on_c, 0, 70, 0
1, 39156, Note_on_c, 0, 72, 75
1, 39165, Note_on_c, 1, 57, 0
1, 39165, Note_on_c, 1, 53, 0
1, 39168, Note_on_c, 0, 72, 0
1, 39168, Note_on_c, 0, 70, 75
1, 39168, Note_on_c, 1, 58, 75
1, 39168, Note_on_c, 1, 46, 75
1, 39257, Note_on_c, 0, 70, 0
1, 39257, Note_on_c, 1, 58, 0
1, 39257, Note_on_c, 1, 46, 0
1, 39264, Note_on_c, 0, 77, 70
1, 39264, Note_on_c, 1, 62, 64
1, 39264, Note_on_c, 1, 58, 64
1, 39288, Note_on_c, 0, 77, 0
1, 39288, Note_on_c, 0, 79, 69
1, 39311, Note_on_c, 0, 79, 0
1, 39311, Note_on_c, 1, 62, 0
1, 39311, Note_on_c, 1, 58, 0
1, 39312, Note_on_c, 0, 81, 69
1, 39312, Note_on_c, 1, 62, 63
1, 39312, Note_on_c, 1, 58, 63
1, 39336, Note_on_c, 0, 81, 0
1, 39336, Note_on_c, 0, 82, 68
1, 39359, Note_on_c, 0, 82, 0
1, 39359, Note_on_c, 1, 62, 0
1, 39359, Note_on_c, 1, 58, 0
1, 39360, Note_on_c, 0, 79, 68
1, 39360, Note_on_c, 1, 63, 62
1, 39360, Note_on_c, 1, 58, 62
1, 39384, Note_on_c, 0, 79, 0
1, 39384, Note_on_c, 0, 81, 68
1, 39407, Note_on_c, 0, 81, 0
1, 39407, Note_on_c, 1, 63, 0
1, 39407, Note_on_c, 1, 58, 0
1, 39408, Note_on_c, 0, 82, 67
1, 39408, Note_on_c, 1, 63, 61
1, 39408, Note_on_c, 1, 58, 61
1, 39432, Note_on_c, 0, 82, 0
1, 39432, Note_on_c, 0, 84, 67
1, 39455, Note_on_c, 0, 84, 0
1, 39455, Note_on_c, 1, 63, 0
1, 39455, Note_on_c, 1, 58, 0
1, 39456, Note_on_c, 0, 82, 67
1, 39456, Note_on_c, 1, 60, 61
1, 39456, Note_on_c, 1, 58, 61
1, 39480, Note_on_c, 0, 82, 0
1, 39480, Note_on_c, 0, 81, 66
1, 39503, Note_on_c, 0, 81, 0
1, 39503, Note_on_c, 1, 60, 0
1, 39503, Note_on_c, 1, 58, 0
1, 39504, Note_on_c, 0, 79, 66
1, 39504, Note_on_c, 1, 60, 60
1, 39504, Note_on_c, 1, 58, 60
1, 39528, Note_on_c, 0, 79, 0
1, 39528, Note_on_c, 0, 81, 65
1, 39551, Note_on_c, 0, 81, 0
1, 39551, Note_on_c, 1, 60, 0
1, 39551, Note_on_c, 1, 58, 0
1, 39552, Note_on_c, 0, 82, 81
1, 39552, Note_on_c, 1, 62, 75
1, 39552, Note_on_c, 1, 58, 75
1, 39646, Note_on_c, 1, 62, 0
1, 39646, Note_on_c, 1, 58, 0
1, 39648, Note_on_c, 0, 82, 0
1, 39648, Note_on_c, 0, 65, 64
1, 39648, Note_on_c, 1, 50, 70
1, 39648, Note_on_c, 1, 46, 70
1, 39663, Note_on_c, 0, 65, 0
1, 39664, Note_on_c, 0, 67, 75
1, 39679, Note_on_c, 0, 67, 0
1, 39680, Note_on_c, 0, 65, 74
1, 39695, Note_on_c, 0, 65, 0
1, 39695, Note_on_c, 1, 50, 0
1, 39695, Note_on_c, 1, 46, 0
1, 39696, Note_on_c, 0, 70, 74
1, 39696, Note_on_c, 1, 50, 69
1, 39696, Note_on_c, 1, 46, 69
1, 39741, Note_on_c, 0, 70, 0
1, 39743, Note_on_c, 1, 50, 0
1, 39743, Note_on_c, 1, 46, 0
1, 39744, Note_on_c, 0, 67, 73
1, 39744, Note_on_c, 1, 51, 68
1, 39744, Note_on_c, 1, 46, 68
1, 39759, Note_on_c, 0, 67, 0
1, 39760, Note_on_c, 0, 69, 73
1, 39775, Note_on_c, 0, 69, 0
1, 39776, Note_on_c, 0, 67, 73
1, 39791, Note_on_c, 0, 67, 0
1, 39791, Note_on_c, 1, 51, 0
1, 39791, Note_on_c, 1, 46, 0
1, 39792, Note_on_c, 0, 72, 73
1, 39792, Note_on_c, 1, 51, 67
1, 39792, Note_on_c, 1, 46, 67
1, 39837, Note_on_c, 0, 72, 0
1, 39839, Note_on_c, 1, 51, 0
1, 39839, Note_on_c, 1, 46, 0
1, 39840, Note_on_c, 0, 70, 72
1, 39840, Note_on_c, 1, 48, 66
1, 39840, Note_on_c, 1, 46, 66
1, 39863, Note_on_c, 0, 70, 0
1, 39864, Note_on_c, 0, 69, 72
1, 39887, Note_on_c, 0, 69, 0
1, 39887, Note_on_c, 1, 48, 0
1, 39887, Note_on_c, 1, 46, 0
1, 39888, Note_on_c, 0, 67, 71
1, 39888, Note_on_c, 1, 48, 65
1, 39888, Note_on_c, 1, 46, 65
1, 39911, Note_on_c, 0, 67, 0
1, 39912, Note_on_c, 0, 69, 71
1, 39935, Note_on_c, 0, 69, 0
1, 39935, Note_on_c, 1, 48, 0
1, 39935, Note_on_c, 1, 46, 0
1, 39936, Note_on_c, 0, 70, 87
1, 39936, Note_on_c, 1, 50, 80
1, 39936, Note_on_c, 1, 46, 80
1, 39984, Note_on_c, 0, 70, 0
1, 39984, Note_on_c, 0, 70, 70
1, 39999, Note_on_c, 0, 70, 0
1, 40000, Note_on_c, 0, 72, 71
1, 40015, Note_on_c, 0, 72, 0
1, 40016, Note_on_c, 0, 74, 72
1, 40031, Note_on_c, 0, 74, 0
1, 40032, Note_on_c, 0, 70, 91
1, 40032, Note_on_c, 1, 50, 0
1, 40032, Note_on_c, 1, 46, 0
1, 40032, Note_on_c, 1, 58, 96
1, 40032, Note_on_c, 1, 53, 96
1, 40032, Note_on_c, 1, 50, 96
1, 40032, Note_on_c, 1, 46, 96
1, 40080, Note_on_c, 0, 70, 0
1, 40080, Note_on_c, 0, 70, 75
1, 40095, Note_on_c, 0, 70, 0
1, 40096, Note_on_c, 0, 72, 75
1, 40111, Note_on_c, 0, 72, 0
1, 40112, Note_on_c, 0, 74, 75
1, 40127, Note_on_c, 0, 74, 0
1, 40128, Note_on_c, 0, 65, 91
1, 40128, Note_on_c, 1, 58, 0
1, 40128, Note_on_c, 1, 53, 0
1, 40128, Note_on_c, 1, 50, 0
1, 40128, Note_on_c, 1, 46, 0
1, 40128, Note_on_c, 1, 58, 96
1, 40128, Note_on_c, 1, 53, 96
1, 40128, Note_on_c, 1, 50, 96
1, 40128, Note_on_c, 1, 46, 96
1, 40224, Note_on_c, 0, 65, 0
1, 40224, Note_on_c, 1, 58, 0
1, 40224, Note_on_c, 1, 53, 0
1, 40224, Note_on_c, 1, 50, 0
1, 40224, Note_on_c, 1, 46, 0
1, 40272, Note_on_c, 0, 65, 75
1, 40272, Note_on_c, 0, 57, 75
1, 40317, Note_on_c, 0, 65, 0
1, 40317, Note_on_c, 0, 57, 0
1, 40320, Note_on_c, 0, 65, 75
1, 40320, Note_on_c, 0, 57, 75
1, 40320, Note_on_c, 1, 53, 80
1, 40320, Note_on_c, 1, 41, 80
1, 40368, Note_on_c, 0, 57, 0
1, 40368, Note_on_c, 0, 69, 75
1, 40413, Note_on_c, 0, 69, 0
1, 40413, Note_on_c, 0, 65, 0
1, 40416, Note_on_c, 0, 69, 75
1, 40416, Note_on_c, 0, 65, 75
1, 40464, Note_on_c, 0, 65, 0
1, 40464, Note_on_c, 0, 72, 75
1, 40497, Note_on_c, 1, 53, 0
1, 40497, Note_on_c, 1, 41, 0
1, 40509, Note_on_c, 0, 72, 0
1, 40509, Note_on_c, 0, 69, 0
1, 40512, Note_on_c, 0, 72, 75
1, 40512, Note_on_c, 0, 69, 75
1, 40560, Note_on_c, 1, 53, 80
1, 40605, Note_on_c, 1, 53, 0
1, 40608, Note_on_c, 1, 41, 80
1, 40645, Note_on_c, 0, 72, 0
1, 40645, Note_on_c, 0, 69, 0
1, 40656, Note_on_c, 0, 70, 75
1, 40656, Note_on_c, 0, 67, 75
1, 40671, Note_on_c, 0, 70, 0
1, 40672, Note_on_c, 0, 72, 75
1, 40687, Note_on_c, 0, 72, 0
1, 40688, Note_on_c, 0, 74, 75
1, 40697, Note_on_c, 1, 41, 0
1, 40701, Note_on_c, 0, 67, 0
1, 40703, Note_on_c, 0, 74, 0
1, 40704, Note_on_c, 0, 72, 75
1, 40704, Note_on_c, 0, 69, 75
1, 40752, Note_on_c, 1, 53, 80
1, 40797, Note_on_c, 1, 53, 0
1, 40800, Note_on_c, 1, 41, 80
1, 40837, Note_on_c, 0, 72, 0
1, 40837, Note_on_c, 0, 69, 0
1, 40848, Note_on_c, 0, 70, 75
1, 40848, Note_on_c, 0, 67, 75
1, 40863, Note_on_c, 0, 70, 0
1, 40864, Note_on_c, 0, 72, 75
1, 40879, Note_on_c, 0, 72, 0
1, 40880, Note_on_c, 0, 74, 75
1, 40889, Note_on_c, 1, 41, 0
1, 40893, Note_on_c, 0, 67, 0
1, 40895, Note_on_c, 0, 74, 0
1, 40896, Note_on_c, 0, 72, 75
1, 40896, Note_on_c, 0, 69, 75
1, 40941, Note_on_c, 0, 72, 0
1, 40944, Note_on_c, 0, 77, 75
1, 40944, Note_on_c, 1, 53, 80
1, 40985, Note_on_c, 0, 69, 0
1, 40989, Note_on_c, 0, 77, 0
1, 40989, Note_on_c, 1, 53, 0
1, 40992, Note_on_c, 1, 41, 80
1, 41037, Note_on_c, 1, 41, 0
1, 41040, Note_on_c, 0, 65, 75
1, 41040, Note_on_c, 1, 57, 70
1, 41040, Note_on_c, 1, 53, 70
1, 41055, Note_on_c, 0, 65, 0
1, 41056, Note_on_c, 0, 67, 75
1, 41071, Note_on_c, 0, 67, 0
1, 41072, Note_on_c, 0, 65, 75
1, 41085, Note_on_c, 1, 57, 0
1, 41085, Note_on_c, 1, 53, 0
1, 41087, Note_on_c, 0, 65, 0
1, 41088, Note_on_c, 0, 62, 75
1, 41088, Note_on_c, 1, 58, 70
1, 41088, Note_on_c, 1, 53, 70
1, 41133, Note_on_c, 0, 62, 0
1, 41136, Note_on_c, 0, 65, 75
1, 41151, Note_on_c, 0, 65, 0
1, 41152, Note_on_c, 0, 67, 75
1, 41167, Note_on_c, 0, 67, 0
1, 41168, Note_on_c, 0, 65, 75
1, 41177, Note_on_c, 1, 58, 0
1, 41177, Note_on_c, 1, 53, 0
1, 41183, Note_on_c, 0, 65, 0
1, 41184, Note_on_c, 0, 60, 75
1, 41184, Note_on_c, 1, 57, 70
1, 41184, Note_on_c, 1, 53, 70
1, 41229, Note_on_c, 0, 60, 0
1, 41232, Note_on_c, 0, 72, 75
1, 41247, Note_on_c, 0, 72, 0
1, 41248, Note_on_c, 0, 69, 75
1, 41263, Note_on_c, 0, 69, 0
1, 41264, Note_on_c, 0, 65, 75
1, 41273, Note_on_c, 1, 57, 0
1, 41273, Note_on_c, 1, 53, 0
1, 41279, Note_on_c, 0, 65, 0
1, 41280, Note_on_c, 0, 60, 75
1, 41328, Note_on_c, 1, 53, 70
1, 41343, Note_on_c, 1, 53, 0
1, 41344, Note_on_c, 1, 55, 70
1, 41359, Note_on_c, 1, 55, 0
1, 41360, Note_on_c, 1, 57, 70
1, 41369, Note_on_c, 0, 60, 0
1, 41375, Note_on_c, 1, 57, 0
1, 41376, Note_on_c, 0, 58, 75
1, 41376, Note_on_c, 1, 55, 70
1, 41389, Note_on_c, 0, 58, 0
1, 41390, Note_on_c, 0, 60, 75
1, 41403, Note_on_c, 0, 60, 0
1, 41404, Note_on_c, 0, 58, 75
1, 41417, Note_on_c, 0, 58, 0
1, 41418, Note_on_c, 0, 60, 75
1, 41421, Note_on_c, 1, 55, 0
1, 41424, Note_on_c, 1, 48, 70
1, 41431, Note_on_c, 0, 60, 0
1, 41432, Note_on_c, 0, 58, 75
1, 41445, Note_on_c, 0, 58, 0
1, 41446, Note_on_c, 0, 57, 75
1, 41458, Note_on_c, 0, 57, 0
1, 41459, Note_on_c, 0, 58, 75
1, 41469, Note_on_c, 1, 48, 0
1, 41471, Note_on_c, 0, 58, 0
1, 41472, Note_on_c, 0, 57, 75
1, 41472, Note_on_c, 1, 53, 80
1, 41517, Note_on_c, 1, 53, 0
1, 41520, Note_on_c, 1, 55, 80
1, 41535, Note_on_c, 1, 55, 0
1, 41536, Note_on_c, 1, 53, 80
1, 41551, Note_on_c, 1, 53, 0
1, 41552, Note_on_c, 1, 51, 80
1, 41561, Note_on_c, 0, 57, 0
1, 41567, Note_on_c, 1, 51, 0
1, 41568, Note_on_c, 1, 50, 96
1, 41616, Note_on_c, 0, 70, 75
1, 41616, Note_on_c, 1, 50, 0
1, 41616, Note_on_c, 1, 62, 70
1, 41616, Note_on_c, 1, 58, 70
1, 41631, Note_on_c, 0, 70, 0
1, 41632, Note_on_c, 0, 72, 75
1, 41647, Note_on_c, 0, 72, 0
1, 41648, Note_on_c, 0, 70, 75
1, 41661, Note_on_c, 1, 62, 0
1, 41661, Note_on_c, 1, 58, 0
1, 41663, Note_on_c, 0, 70, 0
1, 41664, Note_on_c, 0, 67, 75
1, 41664, Note_on_c, 1, 63, 70
1, 41664, Note_on_c, 1, 58, 70
1, 41709, Note_on_c, 0, 67, 0
1, 41712, Note_on_c, 0, 70, 75
1, 41727, Note_on_c, 0, 70, 0
1, 41728, Note_on_c, 0, 72, 75
1, 41743, Note_on_c, 0, 72, 0
1, 41744, Note_on_c, 0, 70, 75
1, 41753, Note_on_c, 1, 63, 0
1, 41753, Note_on_c, 1, 58, 0
1, 41759, Note_on_c, 0, 70, 0
1, 41760, Note_on_c, 0, 65, 75
1, 41760, Note_on_c, 1, 62, 70
1, 41760, Note_on_c, 1, 58, 70
1, 41805, Note_on_c, 0, 65, 0
1, 41808, Note_on_c, 0, 77, 75
1, 41823, Note_on_c, 0, 77, 0
1, 41824, Note_on_c, 0, 74, 75
1, 41839, Note_on_c, 0, 74, 0
1, 41840, Note_on_c, 0, 70, 75
1, 41849, Note_on_c, 1, 62, 0
1, 41849, Note_on_c, 1, 58, 0
1, 41855, Note_on_c, 0, 70, 0
1, 41856, Note_on_c, 0, 65, 75
1, 41904, Note_on_c, 1, 58, 70
1, 41919, Note_on_c, 1, 58, 0
1, 41920, Note_on_c, 1, 60, 70
1, 41935, Note_on_c, 1, 60, 0
1, 41936, Note_on_c, 1, 62, 70
1, 41945, Note_on_c, 0, 65, 0
1, 41951, Note_on_c, 1, 62, 0
1, 41952, Note_on_c, 0, 63, 75
1, 41952, Note_on_c, 1, 60, 70
1, 41965, Note_on_c, 0, 63, 0
1, 41966, Note_on_c, 0, 65, 75
1, 41979, Note_on_c, 0, 65, 0
1, 41980, Note_on_c, 0, 63, 75
1, 41993, Note_on_c, 0, 63, 0
1, 41994, Note_on_c, 0, 65, 75
1, 41997, Note_on_c, 1, 60, 0
1, 42000, Note_on_c, 1, 53, 70
1, 42007, Note_on_c, 0, 65, 0
1, 42008, Note_on_c, 0, 63, 75
1, 42021, Note_on_c, 0, 63, 0
1, 42022, Note_on_c, 0, 62, 75
1, 42034, Note_on_c, 0, 62, 0
1, 42035, Note_on_c, 0, 63, 75
1, 42045, Note_on_c, 1, 53, 0
1, 42047, Note_on_c, 0, 63, 0
1, 42048, Note_on_c, 0, 62, 75
1, 42048, Note_on_c, 1, 58, 70
1, 42093, Note_on_c, 0, 62, 0
1, 42093, Note_on_c, 1, 58, 0
1, 42096, Note_on_c, 0, 63, 75
1, 42096, Note_on_c, 1, 60, 70
1, 42111, Note_on_c, 0, 63, 0
1, 42112, Note_on_c, 0, 65, 75
1, 42127, Note_on_c, 0, 65, 0
1, 42128, Note_on_c, 0, 67, 75
1, 42141, Note_on_c, 1, 60, 0
1, 42143, Note_on_c, 0, 67, 0
1, 42144, Note_on_c, 0, 65, 75
1, 42144, Note_on_c, 1, 62, 70
1, 42189, Note_on_c, 0, 65, 0
1, 42189, Note_on_c, 1, 62, 0
1, 42192, Note_on_c, 0, 67, 75
1, 42192, Note_on_c, 1, 63, 70
1, 42237, Note_on_c, 0, 67, 0
1, 42237, Note_on_c, 1, 63, 0
1, 42240, Note_on_c, 0, 68, 75
1, 42240, Note_on_c, 1, 65, 70
1, 42285, Note_on_c, 0, 68, 0
1, 42285, Note_on_c, 1, 65, 0
1, 42288, Note_on_c, 0, 72, 75
1, 42288, Note_on_c, 1, 62, 70
1, 42303, Note_on_c, 0, 72, 0
1, 42304, Note_on_c, 0, 70, 75
1, 42319, Note_on_c, 0, 70, 0
1, 42320, Note_on_c, 0, 68, 75
1, 42333, Note_on_c, 1, 62, 0
1, 42335, Note_on_c, 0, 68, 0
1, 42336, Note_on_c, 0, 67, 75
1, 42336, Note_on_c, 1, 63, 70
1, 42381, Note_on_c, 1, 63, 0
1, 42384, Note_on_c, 1, 51, 70
1, 42425, Note_on_c, 0, 67, 0
1, 42429, Note_on_c, 1, 51, 0
1, 42432, Note_on_c, 0, 64, 75
1, 42432, Note_on_c, 1, 60, 70
1, 42477, Note_on_c, 0, 64, 0
1, 42477, Note_on_c, 1, 60, 0
1, 42480, Note_on_c, 0, 65, 75
1, 42480, Note_on_c, 1, 62, 70
1, 42495, Note_on_c, 0, 65, 0
1, 42496, Note_on_c, 0, 67, 75
1, 42511, Note_on_c, 0, 67, 0
1, 42512, Note_on_c, 0, 69, 75
1, 42525, Note_on_c, 1, 62, 0
1, 42527, Note_on_c, 0, 69, 0
1, 42528, Note_on_c, 0, 67, 75
1, 42528, Note_on_c, 1, 64, 70
1, 42573, Note_on_c, 0, 67, 0
1, 42573, Note_on_c, 1, 64, 0
1, 42576, Note_on_c, 0, 69, 75
1, 42576, Note_on_c, 1, 65, 70
1, 42621, Note_on_c, 0, 69, 0
1, 42621, Note_on_c, 1, 65, 0
1, 42624, Note_on_c, 0, 70, 75
1, 42624, Note_on_c, 1, 67, 70
1, 42669, Note_on_c, 0, 70, 0
1, 42669, Note_on_c, 1, 67, 0
1, 42672, Note_on_c, 0, 74, 75
1, 42672, Note_on_c, 1, 64, 70
1, 42687, Note_on_c, 0, 74, 0
1, 42688, Note_on_c, 0, 72, 75
1, 42703, Note_on_c, 0, 72, 0
1, 42704, Note_on_c, 0, 70, 75
1, 42717, Note_on_c, 1, 64, 0
1, 42719, Note_on_c, 0, 70, 0
1, 42720, Note_on_c, 0, 69, 75
1, 42720, Note_on_c, 1, 65, 70
1, 42765, Note_on_c, 1, 65, 0
1, 42768, Note_on_c, 1, 53, 70
1, 42809, Note_on_c, 0, 69, 0
1, 42813, Note_on_c, 1, 53, 0
1, 42816, Note_on_c, 0, 66, 75
1, 42816, Note_on_c, 1, 62, 70
1, 42861, Note_on_c, 0, 66, 0
1, 42861, Note_on_c, 1, 62, 0
1, 42864, Note_on_c, 0, 67, 75
1, 42864, Note_on_c, 1, 64, 70
1, 42879, Note_on_c, 0, 67, 0
1, 42880, Note_on_c, 0, 69, 75
1, 42895, Note_on_c, 0, 69, 0
1, 42896, Note_on_c, 0, 70, 75
1, 42909, Note_on_c, 1, 64, 0
1, 42911, Note_on_c, 0, 70, 0
1, 42912, Note_on_c, 0, 69, 75
1, 42912, Note_on_c, 1, 66, 70
1, 42957, Note_on_c, 0, 69, 0
1, 42957, Note_on_c, 1, 66, 0
1, 42960, Note_on_c, 0, 70, 75
1, 42960, Note_on_c, 1, 67, 70
1, 43005, Note_on_c, 0, 70, 0
1, 43005, Note_on_c, 1, 67, 0
1, 43008, Note_on_c, 0, 72, 75
1, 43008, Note_on_c, 1, 69, 70
1, 43053, Note_on_c, 0, 72, 0
1, 43053, Note_on_c, 1, 69, 0
1, 43056, Note_on_c, 0, 75, 75
1, 43056, Note_on_c, 1, 66, 70
1, 43071, Note_on_c, 0, 75, 0
1, 43072, Note_on_c, 0, 74, 75
1, 43087, Note_on_c, 0, 74, 0
1, 43088, Note_on_c, 0, 72, 75
1, 43101, Note_on_c, 1, 66, 0
1, 43103, Note_on_c, 0, 72, 0
1, 43104, Note_on_c, 0, 70, 75
1, 43104, Note_on_c, 1, 67, 70
1, 43149, Note_on_c, 1, 67, 0
1, 43152, Note_on_c, 1, 55, 70
1, 43193, Note_on_c, 0, 70, 0
1, 43197, Note_on_c, 1, 55, 0
1, 43200, Note_on_c, 0, 82, 75
1, 43200, Note_on_c, 1, 70, 70
1, 43200, Note_on_c, 1, 67, 70
1, 43224, Note_on_c, 0, 82, 0
1, 43224, Note_on_c, 0, 81, 74
1, 43245, Note_on_c, 1, 70, 0
1, 43245, Note_on_c, 1, 67, 0
1, 43247, Note_on_c, 0, 81, 0
1, 43248, Note_on_c, 0, 81, 74
1, 43248, Note_on_c, 1, 70, 69
1, 43248, Note_on_c, 1, 67, 69
1, 43272, Note_on_c, 0, 81, 0
1, 43272, Note_on_c, 0, 79, 73
1, 43293, Note_on_c, 1, 70, 0
1, 43293, Note_on_c, 1, 67, 0
1, 43295, Note_on_c, 0, 79, 0
1, 43296, Note_on_c, 0, 79, 73
1, 43296, Note_on_c, 1, 70, 68
1, 43296, Note_on_c, 1, 67, 68
1, 43320, Note_on_c, 0, 79, 0
1, 43320, Note_on_c, 0, 77, 72
1, 43341, Note_on_c, 1, 70, 0
1, 43341, Note_on_c, 1, 67, 0
1, 43343, Note_on_c, 0, 77, 0
1, 43344, Note_on_c, 0, 77, 72
1, 43344, Note_on_c, 1, 70, 67
1, 43344, Note_on_c, 1, 67, 67
1, 43368, Note_on_c, 0, 77, 0
1, 43368, Note_on_c, 0, 76, 72
1, 43389, Note_on_c, 1, 70, 0
1, 43389, Note_on_c, 1, 67, 0
1, 43391, Note_on_c, 0, 76, 0
1, 43392, Note_on_c, 0, 76, 71
1, 43392, Note_on_c, 1, 69, 66
1, 43392, Note_on_c, 1, 67, 66
1, 43416, Note_on_c, 0, 76, 0
1, 43416, Note_on_c, 0, 74, 71
1, 43437, Note_on_c, 1, 69, 0
1, 43437, Note_on_c, 1, 67, 0
1, 43439, Note_on_c, 0, 74, 0
1, 43440, Note_on_c, 0, 74, 70
1, 43440, Note_on_c, 1, 69, 65
1, 43440, Note_on_c, 1, 67, 65
1, 43464, Note_on_c, 0, 74, 0
1, 43464, Note_on_c, 0, 73, 70
1, 43485, Note_on_c, 1, 69, 0
1, 43485, Note_on_c, 1, 67, 0
1, 43487, Note_on_c, 0, 73, 0
1, 43488, Note_on_c, 0, 73, 70
1, 43488, Note_on_c, 1, 69, 64
1, 43488, Note_on_c, 1, 67, 64
1, 43533, Note_on_c, 1, 69, 0
1, 43533, Note_on_c, 1, 67, 0
1, 43536, Note_on_c, 1, 69, 64
1, 43536, Note_on_c, 1, 67, 64
1, 43577, Note_on_c, 0, 73, 0
1, 43581, Note_on_c, 1, 69, 0
1, 43581, Note_on_c, 1, 67, 0
1, 43584, Note_on_c, 0, 81, 75
1, 43584, Note_on_c, 1, 69, 70
1, 43584, Note_on_c, 1, 65, 70
1, 43608, Note_on_c, 0, 81, 0
1, 43608, Note_on_c, 0, 79, 74
1, 43629, Note_on_c, 1, 69, 0
1, 43629, Note_on_c, 1, 65, 0
1, 43631, Note_on_c, 0, 79, 0
1, 43632, Note_on_c, 0, 79, 74
1, 43632, Note_on_c, 1, 69, 69
1, 43632, Note_on_c, 1, 65, 69
1, 43656, Note_on_c, 0, 79, 0
1, 43656, Note_on_c, 0, 77, 73
1, 43677, Note_on_c, 1, 69, 0
1, 43677, Note_on_c, 1, 65, 0
1, 43679, Note_on_c, 0, 77, 0
1, 43680, Note_on_c, 0, 77, 73
1, 43680, Note_on_c, 1, 69, 68
1, 43680, Note_on_c, 1, 65, 68
1, 43704, Note_on_c, 0, 77, 0
1, 43704, Note_on_c, 0, 76, 72
1, 43725, Note_on_c, 1, 69, 0
1, 43725, Note_on_c, 1, 65, 0
1, 43727, Note_on_c, 0, 76, 0
1, 43728, Note_on_c, 0, 76, 72
1, 43728, Note_on_c, 1, 69, 67
1, 43728, Note_on_c, 1, 65, 67
1, 43752, Note_on_c, 0, 76, 0
1, 43752, Note_on_c, 0, 74, 72
1, 43773, Note_on_c, 1, 69, 0
1, 43773, Note_on_c, 1, 65, 0
1, 43775, Note_on_c, 0, 74, 0
1, 43776, Note_on_c, 0, 74, 71
1, 43776, Note_on_c, 1, 67, 66
1, 43776, Note_on_c, 1, 65, 66
1, 43800, Note_on_c, 0, 74, 0
1, 43800, Note_on_c, 0, 72, 71
1, 43821, Note_on_c, 1, 67, 0
1, 43821, Note_on_c, 1, 65, 0
1, 43823, Note_on_c, 0, 72, 0
1, 43824, Note_on_c, 0, 72, 70
1, 43824, Note_on_c, 1, 67, 65
1, 43824, Note_on_c, 1, 65, 65
1, 43848, Note_on_c, 0, 72, 0
1, 43848, Note_on_c, 0, 71, 70
1, 43869, Note_on_c, 1, 67, 0
1, 43869, Note_on_c, 1, 65, 0
1, 43871, Note_on_c, 0, 71, 0
1, 43872, Note_on_c, 0, 71, 70
1, 43872, Note_on_c, 1, 67, 64
1, 43872, Note_on_c, 1, 65, 64
1, 43917, Note_on_c, 1, 67, 0
1, 43917, Note_on_c, 1, 65, 0
1, 43920, Note_on_c, 1, 67, 64
1, 43920, Note_on_c, 1, 65, 64
1, 43961, Note_on_c, 0, 71, 0
1, 43965, Note_on_c, 1, 67, 0
1, 43965, Note_on_c, 1, 65, 0
1, 43968, Note_on_c, 0, 79, 75
1, 43968, Note_on_c, 1, 67, 70
1, 43968, Note_on_c, 1, 63, 70
1, 43992, Note_on_c, 0, 79, 0
1, 43992, Note_on_c, 0, 77, 74
1, 44013, Note_on_c, 1, 67, 0
1, 44013, Note_on_c, 1, 63, 0
1, 44015, Note_on_c, 0, 77, 0
1, 44016, Note_on_c, 0, 77, 74
1, 44016, Note_on_c, 1, 67, 69
1, 44016, Note_on_c, 1, 63, 69
1, 44040, Note_on_c, 0, 77, 0
1, 44040, Note_on_c, 0, 75, 73
1, 44061, Note_on_c, 1, 67, 0
1, 44061, Note_on_c, 1, 63, 0
1, 44063, Note_on_c, 0, 75, 0
1, 44064, Note_on_c, 0, 75, 73
1, 44064, Note_on_c, 1, 67, 68
1, 44064, Note_on_c, 1, 63, 68
1, 44088, Note_on_c, 0, 75, 0
1, 44088, Note_on_c, 0, 74, 72
1, 44109, Note_on_c, 1, 67, 0
1, 44109, Note_on_c, 1, 63, 0
1, 44111, Note_on_c, 0, 74, 0
1, 44112, Note_on_c, 0, 74, 72
1, 44112, Note_on_c, 1, 67, 67
1, 44112, Note_on_c, 1, 63, 67
1, 44136, Note_on_c, 0, 74, 0
1, 44136, Note_on_c, 0, 72, 72
1, 44157, Note_on_c, 1, 67, 0
1, 44157, Note_on_c, 1, 63, 0
1, 44159, Note_on_c, 0, 72, 0
1, 44160, Note_on_c, 0, 72, 71
1, 44160, Note_on_c, 1, 65, 66
1, 44160, Note_on_c, 1, 63, 66
1, 44184, Note_on_c, 0, 72, 0
1, 44184, Note_on_c, 0, 70, 71
1, 44205, Note_on_c, 1, 65, 0
1, 44205, Note_on_c, 1, 63, 0
1, 44207, Note_on_c, 0, 70, 0
1, 44208, Note_on_c, 0, 70, 70
1, 44208, Note_on_c, 1, 65, 65
1, 44208, Note_on_c, 1, 63, 65
1, 44232, Note_on_c, 0, 70, 0
1, 44232, Note_on_c, 0, 69, 70
1, 44253, Note_on_c, 1, 65, 0
1, 44253, Note_on_c, 1, 63, 0
1, 44255, Note_on_c, 0, 69, 0
1, 44256, Note_on_c, 0, 69, 70
1, 44256, Note_on_c, 1, 65, 64
1, 44256, Note_on_c, 1, 63, 64
1, 44301, Note_on_c, 1, 65, 0
1, 44301, Note_on_c, 1, 63, 0
1, 44304, Note_on_c, 1, 65, 64
1, 44304, Note_on_c, 1, 63, 64
1, 44345, Note_on_c, 0, 69, 0
1, 44349, Note_on_c, 1, 65, 0
1, 44349, Note_on_c, 1, 63, 0
1, 44352, Note_on_c, 0, 77, 70
1, 44352, Note_on_c, 1, 65, 64
1, 44352, Note_on_c, 1, 62, 64
1, 44376, Note_on_c, 0, 77, 0
1, 44376, Note_on_c, 0, 75, 69
1, 44397, Note_on_c, 1, 65, 0
1, 44397, Note_on_c, 1, 62, 0
1, 44399, Note_on_c, 0, 75, 0
1, 44400, Note_on_c, 0, 75, 68
1, 44400, Note_on_c, 1, 65, 62
1, 44400, Note_on_c, 1, 62, 62
1, 44424, Note_on_c, 0, 75, 0
1, 44424, Note_on_c, 0, 74, 68
1, 44445, Note_on_c, 1, 65, 0
1, 44445, Note_on_c, 1, 62, 0
1, 44447, Note_on_c, 0, 74, 0
1, 44448, Note_on_c, 0, 74, 67
1, 44448, Note_on_c, 1, 65, 61
1, 44448, Note_on_c, 1, 62, 61
1, 44472, Note_on_c, 0, 74, 0
1, 44472, Note_on_c, 0, 72, 67
1, 44493, Note_on_c, 1, 65, 0
1, 44493, Note_on_c, 1, 62, 0
1, 44495, Note_on_c, 0, 72, 0
1, 44496, Note_on_c, 0, 72, 66
1, 44496, Note_on_c, 1, 65, 60
1, 44496, Note_on_c, 1, 62, 60
1, 44520, Note_on_c, 0, 72, 0
1, 44520, Note_on_c, 0, 70, 65
1, 44541, Note_on_c, 1, 65, 0
1, 44541, Note_on_c, 1, 62, 0
1, 44543, Note_on_c, 0, 70, 0
1, 44544, Note_on_c, 0, 70, 65
1, 44544, Note_on_c, 1, 65, 59
1, 44544, Note_on_c, 1, 62, 59
1, 44589, Note_on_c, 0, 70, 0
1, 44589, Note_on_c, 1, 65, 0
1, 44589, Note_on_c, 1, 62, 0
1, 44592, Note_on_c, 0, 77, 64
1, 44592, Note_on_c, 1, 58, 58
1, 44607, Note_on_c, 0, 77, 0
1, 44608, Note_on_c, 0, 74, 64
1, 44623, Note_on_c, 0, 74, 0
1, 44624, Note_on_c, 0, 70, 64
1, 44637, Note_on_c, 1, 58, 0
1, 44639, Note_on_c, 0, 70, 0
1, 44640, Note_on_c, 0, 70, 65
1, 44640, Note_on_c, 1, 60, 59
1, 44685, Note_on_c, 0, 70, 0
1, 44685, Note_on_c, 1, 60, 0
1, 44688, Note_on_c, 0, 68, 66
1, 44688, Note_on_c, 1, 62, 61
1, 44700, Note_on_c, 0, 68, 0
1, 44700, Note_on_c, 0, 70, 66
1, 44712, Note_on_c, 0, 70, 0
1, 44712, Note_on_c, 0, 68, 66
1, 44733, Note_on_c, 0, 68, 0
1, 44733, Note_on_c, 1, 62, 0
1, 44736, Note_on_c, 0, 67, 68
1, 44736, Note_on_c, 1, 63, 62
1, 44781, Note_on_c, 0, 67, 0
1, 44781, Note_on_c, 1, 63, 0
1, 44784, Note_on_c, 0, 79, 69
1, 44784, Note_on_c, 1, 60, 64
1, 44799, Note_on_c, 0, 79, 0
1, 44800, Note_on_c, 0, 76, 69
1, 44815, Note_on_c, 0, 76, 0
1, 44816, Note_on_c, 0, 72, 70
1, 44829, Note_on_c, 1, 60, 0
1, 44831, Note_on_c, 0, 72, 0
1, 44832, Note_on_c, 0, 72, 70
1, 44832, Note_on_c, 1, 62, 65
1, 44877, Note_on_c, 0, 72, 0
1, 44877, Note_on_c, 1, 62, 0
1, 44880, Note_on_c, 0, 70, 72
1, 44880, Note_on_c, 1, 64, 67
1, 44892, Note_on_c, 0, 70, 0
1, 44892, Note_on_c, 0, 72, 72
1, 44904, Note_on_c, 0, 72, 0
1, 44904, Note_on_c, 0, 70, 72
1, 44925, Note_on_c, 0, 70, 0
1, 44925, Note_on_c, 1, 64, 0
1, 44928, Note_on_c, 0, 69, 73
1, 44928, Note_on_c, 1, 65, 68
1, 44973, Note_on_c, 0, 69, 0
1, 44973, Note_on_c, 1, 65, 0
1, 44976, Note_on_c, 0, 81, 74
1, 44976, Note_on_c, 1, 62, 70
1, 44991, Note_on_c, 0, 81, 0
1, 44992, Note_on_c, 0, 78, 75
1, 45007, Note_on_c, 0, 78, 0
1, 45008, Note_on_c, 0, 74, 75
1, 45021, Note_on_c, 1, 62, 0
1, 45023, Note_on_c, 0, 74, 0
1, 45024, Note_on_c, 0, 74, 76
1, 45024, Note_on_c, 1, 64, 71
1, 45069, Note_on_c, 0, 74, 0
1, 45069, Note_on_c, 1, 64, 0
1, 45072, Note_on_c, 0, 72, 77
1, 45072, Note_on_c, 1, 66, 73
1, 45084, Note_on_c, 0, 72, 0
1, 45084, Note_on_c, 0, 74, 77
1, 45096, Note_on_c, 0, 74, 0
1, 45096, Note_on_c, 0, 72, 77
1, 45117, Note_on_c, 0, 72, 0
1, 45117, Note_on_c, 1, 66, 0
1, 45120, Note_on_c, 0, 70, 80
1, 45120, Note_on_c, 1, 67, 75
1, 45165, Note_on_c, 0, 70, 0
1, 45165, Note_on_c, 1, 67, 0
1, 45168, Note_on_c, 0, 75, 80
1, 45168, Note_on_c, 1, 60, 75
1, 45183, Note_on_c, 0, 75, 0
1, 45184, Note_on_c, 0, 77, 80
1, 45199, Note_on_c, 0, 77, 0
1, 45200, Note_on_c, 0, 75, 80
1, 45213, Note_on_c, 1, 60, 0
1, 45215, Note_on_c, 0, 75, 0
1, 45216, Note_on_c, 0, 74, 80
1, 45216, Note_on_c, 1, 58, 75
1, 45261, Note_on_c, 0, 74, 0
1, 45261, Note_on_c, 1, 58, 0
1, 45264, Note_on_c, 0, 79, 80
1, 45279, Note_on_c, 0, 79, 0
1, 45280, Note_on_c, 0, 81, 80
1, 45295, Note_on_c, 0, 81, 0
1, 45296, Note_on_c, 0, 79, 80
1, 45311, Note_on_c, 0, 79, 0
1, 45312, Note_on_c, 0, 69, 80
1, 45360, Note_on_c, 1, 60, 75
1, 45379, Note_on_c, 0, 69, 0
1, 45384, Note_on_c, 0, 75, 80
1, 45405, Note_on_c, 1, 60, 0
1, 45407, Note_on_c, 0, 75, 0
1, 45408, Note_on_c, 0, 74, 80
1, 45408, Note_on_c, 1, 62, 75
1, 45431, Note_on_c, 0, 74, 0
1, 45432, Note_on_c, 0, 72, 80
1, 45453, Note_on_c, 1, 62, 0
1, 45455, Note_on_c, 0, 72, 0
1, 45456, Note_on_c, 0, 70, 80
1, 45456, Note_on_c, 1, 50, 75
1, 45479, Note_on_c, 0, 70, 0
1, 45480, Note_on_c, 0, 69, 80
1, 45501, Note_on_c, 1, 50, 0
1, 45503, Note_on_c, 0, 69, 0
1, 45504, Note_on_c, 0, 70, 80
1, 45504, Note_on_c, 1, 55, 75
1, 45549, Note_on_c, 0, 70, 0
1, 45549, Note_on_c, 1, 55, 0
1, 45552, Note_on_c, 0, 75, 80
1, 45552, Note_on_c, 1, 60, 75
1, 45567, Note_on_c, 0, 75, 0
1, 45568, Note_on_c, 0, 77, 80
1, 45583, Note_on_c, 0, 77, 0
1, 45584, Note_on_c, 0, 75, 80
1, 45597, Note_on_c, 1, 60, 0
1, 45599, Note_on_c, 0, 75, 0
1, 45600, Note_on_c, 0, 74, 80
1, 45600, Note_on_c, 1, 58, 75
1, 45645, Note_on_c, 0, 74, 0
1, 45645, Note_on_c, 1, 58, 0
1, 45648, Note_on_c, 0, 79, 80
1, 45663, Note_on_c, 0, 79, 0
1, 45664, Note_on_c, 0, 81, 80
1, 45679, Note_on_c, 0, 81, 0
1, 45680, Note_on_c, 0, 79, 80
1, 45695, Note_on_c, 0, 79, 0
1, 45696, Note_on_c, 0, 69, 80
1, 45744, Note_on_c, 1, 60, 75
1, 45763, Note_on_c, 0, 69, 0
1, 45768, Note_on_c, 0, 75, 80
1, 45789, Note_on_c, 1, 60, 0
1, 45791, Note_on_c, 0, 75, 0
1, 45792, Note_on_c, 0, 74, 80
1, 45792, Note_on_c, 1, 62, 75
1, 45815, Note_on_c, 0, 74, 0
1, 45816, Note_on_c, 0, 72, 80
1, 45837, Note_on_c, 1, 62, 0
1, 45839, Note_on_c, 0, 72, 0
1, 45840, Note_on_c, 0, 70, 80
1, 45840, Note_on_c, 1, 50, 75
1, 45863, Note_on_c, 0, 70, 0
1, 45864, Note_on_c, 0, 69, 80
1, 45885, Note_on_c, 1, 50, 0
1, 45887, Note_on_c, 0, 69, 0
1, 45888, Note_on_c, 0, 67, 80
1, 45888, Note_on_c, 1, 55, 75
1, 45933, Note_on_c, 1, 55, 0
1, 45936, Note_on_c, 1, 43, 75
1, 45977, Note_on_c, 0, 67, 0
1, 45981, Note_on_c, 1, 43, 0
1, 45984, Note_on_c, 0, 79, 80
1, 45984, Note_on_c, 0, 77, 75
1, 46007, Note_on_c, 0, 77, 0
1, 46008, Note_on_c, 0, 67, 75
1, 46029, Note_on_c, 0, 79, 0
1, 46031, Note_on_c, 0, 67, 0
1, 46032, Note_on_c, 0, 79, 80
1, 46032, Note_on_c, 0, 77, 75
1, 46032, Note_on_c, 1, 59, 75
1, 46055, Note_on_c, 0, 77, 0
1, 46056, Note_on_c, 0, 67, 75
1, 46077, Note_on_c, 0, 79, 0
1, 46077, Note_on_c, 1, 59, 0
1, 46079, Note_on_c, 0, 67, 0
1, 46080, Note_on_c, 0, 79, 80
1, 46080, Note_on_c, 0, 75, 75
1, 46080, Note_on_c, 1, 60, 75
1, 46103, Note_on_c, 0, 75, 0
1, 46104, Note_on_c, 0, 67, 75
1, 46125, Note_on_c, 0, 79, 0
1, 46125, Note_on_c, 1, 60, 0
1, 46127, Note_on_c, 0, 67, 0
1, 46128, Note_on_c, 0, 79, 80
1, 46128, Note_on_c, 0, 75, 75
1, 46128, Note_on_c, 1, 63, 75
1, 46151, Note_on_c, 0, 75, 0
1, 46152, Note_on_c, 0, 67, 75
1, 46173, Note_on_c, 0, 79, 0
1, 46173, Note_on_c, 1, 63, 0
1, 46175, Note_on_c, 0, 67, 0
1, 46176, Note_on_c, 0, 79, 80
1, 46176, Note_on_c, 0, 71, 75
1, 46176, Note_on_c, 1, 62, 75
1, 46199, Note_on_c, 0, 71, 0
1, 46200, Note_on_c, 0, 67, 75
1, 46221, Note_on_c, 0, 79, 0
1, 46221, Note_on_c, 1, 62, 0
1, 46223, Note_on_c, 0, 67, 0
1, 46224, Note_on_c, 0, 79, 80
1, 46224, Note_on_c, 0, 71, 75
1, 46224, Note_on_c, 1, 65, 75
1, 46247, Note_on_c, 0, 71, 0
1, 46248, Note_on_c, 0, 67, 75
1, 46269, Note_on_c, 0, 79, 0
1, 46269, Note_on_c, 1, 65, 0
1, 46271, Note_on_c, 0, 67, 0
1, 46272, Note_on_c, 0, 79, 80
1, 46272, Note_on_c, 0, 72, 75
1, 46272, Note_on_c, 1, 63, 75
1, 46295, Note_on_c, 0, 72, 0
1, 46296, Note_on_c, 0, 67, 75
1, 46317, Note_on_c, 0, 79, 0
1, 46317, Note_on_c, 1, 63, 0
1, 46319, Note_on_c, 0, 67, 0
1, 46320, Note_on_c, 0, 79, 80
1, 46320, Note_on_c, 0, 72, 75
1, 46320, Note_on_c, 1, 51, 75
1, 46343, Note_on_c, 0, 72, 0
1, 46344, Note_on_c, 0, 67, 75
1, 46365, Note_on_c, 0, 79, 0
1, 46365, Note_on_c, 1, 51, 0
1, 46367, Note_on_c, 0, 67, 0
1, 46368, Note_on_c, 0, 77, 80
1, 46368, Note_on_c, 0, 75, 75
1, 46391, Note_on_c, 0, 75, 0
1, 46392, Note_on_c, 0, 65, 75
1, 46413, Note_on_c, 0, 77, 0
1, 46415, Note_on_c, 0, 65, 0
1, 46416, Note_on_c, 0, 77, 80
1, 46416, Note_on_c, 0, 75, 75
1, 46416, Note_on_c, 1, 57, 75
1, 46439, Note_on_c, 0, 75, 0
1, 46440, Note_on_c, 0, 65, 75
1, 46461, Note_on_c, 0, 77, 0
1, 46461, Note_on_c, 1, 57, 0
1, 46463, Note_on_c, 0, 65, 0
1, 46464, Note_on_c, 0, 77, 80
1, 46464, Note_on_c, 0, 74, 75
1, 46464, Note_on_c, 1, 58, 75
1, 46487, Note_on_c, 0, 74, 0
1, 46488, Note_on_c, 0, 65, 75
1, 46509, Note_on_c, 0, 77, 0
1, 46509, Note_on_c, 1, 58, 0
1, 46511, Note_on_c, 0, 65, 0
1, 46512, Note_on_c, 0, 77, 80
1, 46512, Note_on_c, 0, 74, 75
1, 46512, Note_on_c, 1, 62, 75
1, 46535, Note_on_c, 0, 74, 0
1, 46536, Note_on_c, 0, 65, 75
1, 46557, Note_on_c, 0, 77, 0
1, 46557, Note_on_c, 1, 62, 0
1, 46559, Note_on_c, 0, 65, 0
1, 46560, Note_on_c, 0, 77, 80
1, 46560, Note_on_c, 0, 69, 75
1, 46560, Note_on_c, 1, 60, 75
1, 46583, Note_on_c, 0, 69, 0
1, 46584, Note_on_c, 0, 65, 75
1, 46605, Note_on_c, 0, 77, 0
1, 46605, Note_on_c, 1, 60, 0
1, 46607, Note_on_c, 0, 65, 0
1, 46608, Note_on_c, 0, 77, 80
1, 46608, Note_on_c, 0, 69, 75
1, 46608, Note_on_c, 1, 63, 75
1, 46631, Note_on_c, 0, 69, 0
1, 46632, Note_on_c, 0, 65, 75
1, 46653, Note_on_c, 0, 77, 0
1, 46653, Note_on_c, 1, 63, 0
1, 46655, Note_on_c, 0, 65, 0
1, 46656, Note_on_c, 0, 77, 80
1, 46656, Note_on_c, 0, 70, 75
1, 46656, Note_on_c, 1, 62, 75
1, 46679, Note_on_c, 0, 70, 0
1, 46680, Note_on_c, 0, 65, 75
1, 46701, Note_on_c, 0, 77, 0
1, 46701, Note_on_c, 1, 62, 0
1, 46703, Note_on_c, 0, 65, 0
1, 46704, Note_on_c, 0, 77, 80
1, 46704, Note_on_c, 0, 70, 75
1, 46704, Note_on_c, 1, 50, 75
1, 46727, Note_on_c, 0, 70, 0
1, 46728, Note_on_c, 0, 65, 75
1, 46749, Note_on_c, 0, 77, 0
1, 46749, Note_on_c, 1, 50, 0
1, 46751, Note_on_c, 0, 65, 0
1, 46752, Note_on_c, 0, 65, 70
1, 46764, Note_on_c, 0, 65, 0
1, 46764, Note_on_c, 0, 67, 70
1, 46776, Note_on_c, 0, 67, 0
1, 46776, Note_on_c, 0, 68, 70
1, 46800, Note_on_c, 1, 62, 70
1, 46843, Note_on_c, 0, 68, 0
1, 46845, Note_on_c, 1, 62, 0
1, 46848, Note_on_c, 0, 68, 70
1, 46848, Note_on_c, 1, 63, 70
1, 46872, Note_on_c, 0, 68, 0
1, 46872, Note_on_c, 0, 67, 71
1, 46893, Note_on_c, 1, 63, 0
1, 46895, Note_on_c, 0, 67, 0
1, 46896, Note_on_c, 0, 67, 71
1, 46896, Note_on_c, 1, 51, 71
1, 46920, Note_on_c, 0, 67, 0
1, 46920, Note_on_c, 0, 70, 71
1, 46941, Note_on_c, 1, 51, 0
1, 46943, Note_on_c, 0, 70, 0
1, 46944, Note_on_c, 0, 70, 71
1, 46944, Note_on_c, 1, 53, 71
1, 46968, Note_on_c, 0, 70, 0
1, 46968, Note_on_c, 0, 69, 72
1, 46989, Note_on_c, 1, 53, 0
1, 46991, Note_on_c, 0, 69, 0
1, 46992, Note_on_c, 0, 69, 72
1, 46992, Note_on_c, 1, 41, 72
1, 47016, Note_on_c, 0, 69, 0
1, 47016, Note_on_c, 0, 72, 72
1, 47037, Note_on_c, 1, 41, 0
1, 47039, Note_on_c, 0, 72, 0
1, 47040, Note_on_c, 0, 72, 72
1, 47040, Note_on_c, 1, 43, 72
1, 47064, Note_on_c, 0, 72, 0
1, 47064, Note_on_c, 0, 70, 73
1, 47085, Note_on_c, 1, 43, 0
1, 47087, Note_on_c, 0, 70, 0
1, 47088, Note_on_c, 0, 70, 73
1, 47088, Note_on_c, 1, 55, 73
1, 47112, Note_on_c, 0, 70, 0
1, 47112, Note_on_c, 0, 74, 73
1, 47133, Note_on_c, 1, 55, 0
1, 47135, Note_on_c, 0, 74, 0
1, 47136, Note_on_c, 0, 74, 73
1, 47136, Note_on_c, 1, 57, 73
1, 47160, Note_on_c, 0, 74, 0
1, 47160, Note_on_c, 0, 72, 73
1, 47181, Note_on_c, 1, 57, 0
1, 47183, Note_on_c, 0, 72, 0
1, 47184, Note_on_c, 0, 72, 74
1, 47184, Note_on_c, 1, 45, 74
1, 47208, Note_on_c, 0, 72, 0
1, 47208, Note_on_c, 0, 75, 74
1, 47229, Note_on_c, 1, 45, 0
1, 47231, Note_on_c, 0, 75, 0
1, 47232, Note_on_c, 0, 75, 74
1, 47232, Note_on_c, 1, 46, 74
1, 47256, Note_on_c, 0, 75, 0
1, 47256, Note_on_c, 0, 74, 74
1, 47277, Note_on_c, 1, 46, 0
1, 47279, Note_on_c, 0, 74, 0
1, 47280, Note_on_c, 0, 74, 75
1, 47280, Note_on_c, 1, 58, 75
1, 47304, Note_on_c, 0, 74, 0
1, 47304, Note_on_c, 0, 77, 75
1, 47325, Note_on_c, 1, 58, 0
1, 47327, Note_on_c, 0, 77, 0
1, 47328, Note_on_c, 0, 77, 75
1, 47328, Note_on_c, 1, 60, 75
1, 47352, Note_on_c, 0, 77, 0
1, 47352, Note_on_c, 0, 75, 75
1, 47373, Note_on_c, 1, 60, 0
1, 47375, Note_on_c, 0, 75, 0
1, 47376, Note_on_c, 0, 75, 76
1, 47376, Note_on_c, 1, 48, 76
1, 47400, Note_on_c, 0, 75, 0
1, 47400, Note_on_c, 0, 79, 76
1, 47421, Note_on_c, 1, 48, 0
1, 47423, Note_on_c, 0, 79, 0
1, 47424, Note_on_c, 0, 79, 76
1, 47424, Note_on_c, 1, 50, 76
1, 47448, Note_on_c, 0, 79, 0
1, 47448, Note_on_c, 0, 77, 76
1, 47469, Note_on_c, 1, 50, 0
1, 47471, Note_on_c, 0, 77, 0
1, 47472, Note_on_c, 0, 77, 76
1, 47472, Note_on_c, 1, 62, 77
1, 47496, Note_on_c, 0, 77, 0
1, 47496, Note_on_c, 0, 82, 77
1, 47517, Note_on_c, 1, 62, 0
1, 47519, Note_on_c, 0, 82, 0
1, 47520, Note_on_c, 0, 82, 93
1, 47568, Note_on_c, 1, 58, 78
1, 47592, Note_on_c, 0, 82, 0
1, 47592, Note_on_c, 0, 74, 78
1, 47613, Note_on_c, 1, 58, 0
1, 47615, Note_on_c, 0, 74, 0
1, 47616, Note_on_c, 0, 74, 78
1, 47616, Note_on_c, 1, 63, 78
1, 47640, Note_on_c, 0, 74, 0
1, 47640, Note_on_c, 0, 72, 78
1, 47663, Note_on_c, 0, 72, 0
1, 47664, Note_on_c, 0, 72, 78
1, 47688, Note_on_c, 0, 72, 0
1, 47688, Note_on_c, 0, 79, 79
1, 47705, Note_on_c, 1, 63, 0
1, 47711, Note_on_c, 0, 79, 0
1, 47712, Note_on_c, 0, 79, 95
1, 47760, Note_on_c, 1, 64, 80
1, 47784, Note_on_c, 0, 79, 0
1, 47784, Note_on_c, 0, 70, 80
1, 47805, Note_on_c, 1, 64, 0
1, 47807, Note_on_c, 0, 70, 0
1, 47808, Note_on_c, 0, 70, 80
1, 47808, Note_on_c, 1, 65, 80
1, 47820, Note_on_c, 0, 70, 0
1, 47820, Note_on_c, 0, 72, 80
1, 47832, Note_on_c, 0, 72, 0
1, 47832, Note_on_c, 0, 70, 80
1, 47853, Note_on_c, 0, 70, 0
1, 47853, Note_on_c, 1, 65, 0
1, 47856, Note_on_c, 0, 69, 80
1, 47856, Note_on_c, 1, 53, 80
1, 47901, Note_on_c, 0, 69, 0
1, 47901, Note_on_c, 1, 53, 0
1, 47952, Note_on_c, 0, 70, 80
1, 47952, Note_on_c, 0, 62, 80
1, 47997, Note_on_c, 0, 70, 0
1, 47997, Note_on_c, 0, 62, 0
1, 48000, Note_on_c, 0, 70, 80
1, 48000, Note_on_c, 0, 62, 80
1, 48000, Note_on_c, 1, 58, 80
1, 48000, Note_on_c, 1, 46, 80
1, 48048, Note_on_c, 0, 62, 0
1, 48048, Note_on_c, 0, 74, 80
1, 48093, Note_on_c, 0, 74, 0
1, 48093, Note_on_c, 0, 70, 0
1, 48096, Note_on_c, 0, 74, 80
1, 48096, Note_on_c, 0, 70, 80
1, 48144, Note_on_c, 0, 70, 0
1, 48144, Note_on_c, 0, 77, 80
1, 48177, Note_on_c, 1, 58, 0
1, 48177, Note_on_c, 1, 46, 0
1, 48189, Note_on_c, 0, 77, 0
1, 48189, Note_on_c, 0, 74, 0
1, 48192, Note_on_c, 0, 77, 80
1, 48192, Note_on_c, 0, 74, 75
1, 48240, Note_on_c, 1, 58, 80
1, 48285, Note_on_c, 1, 58, 0
1, 48288, Note_on_c, 1, 46, 80
1, 48325, Note_on_c, 0, 77, 0
1, 48325, Note_on_c, 0, 74, 0
1, 48336, Note_on_c, 0, 75, 80
1, 48336, Note_on_c, 0, 72, 75
1, 48351, Note_on_c, 0, 75, 0
1, 48352, Note_on_c, 0, 77, 80
1, 48367, Note_on_c, 0, 77, 0
1, 48368, Note_on_c, 0, 79, 80
1, 48377, Note_on_c, 1, 46, 0
1, 48381, Note_on_c, 0, 72, 0
1, 48383, Note_on_c, 0, 79, 0
1, 48384, Note_on_c, 0, 77, 80
1, 48384, Note_on_c, 0, 74, 75
1, 48432, Note_on_c, 1, 58, 80
1, 48477, Note_on_c, 1, 58, 0
1, 48480, Note_on_c, 1, 46, 80
1, 48517, Note_on_c, 0, 77, 0
1, 48517, Note_on_c, 0, 74, 0
1, 48528, Note_on_c, 0, 75, 80
1, 48528, Note_on_c, 0, 72, 75
1, 48543, Note_on_c, 0, 75, 0
1, 48544, Note_on_c, 0, 77, 80
1, 48559, Note_on_c, 0, 77, 0
1, 48560, Note_on_c, 0, 79, 80
1, 48569, Note_on_c, 1, 46, 0
1, 48573, Note_on_c, 0, 72, 0
1, 48575, Note_on_c, 0, 79, 0
1, 48576, Note_on_c, 0, 77, 80
1, 48576, Note_on_c, 0, 74, 75
1, 48621, Note_on_c, 0, 77, 0
1, 48624, Note_on_c, 0, 82, 80
1, 48624, Note_on_c, 1, 58, 80
1, 48665, Note_on_c, 0, 74, 0
1, 48669, Note_on_c, 0, 82, 0
1, 48669, Note_on_c, 1, 58, 0
1, 48672, Note_on_c, 1, 46, 80
1, 48717, Note_on_c, 1, 46, 0
1, 48720, Note_on_c, 0, 70, 75
1, 48720, Note_on_c, 1, 62, 70
1, 48720, Note_on_c, 1, 58, 70
1, 48735, Note_on_c, 0, 70, 0
1, 48736, Note_on_c, 0, 72, 75
1, 48751, Note_on_c, 0, 72, 0
1, 48752, Note_on_c, 0, 70, 75
1, 48765, Note_on_c, 1, 62, 0
1, 48765, Note_on_c, 1, 58, 0
1, 48767, Note_on_c, 0, 70, 0
1, 48768, Note_on_c, 0, 67, 75
1, 48768, Note_on_c, 1, 63, 70
1, 48768, Note_on_c, 1, 58, 70
1, 48813, Note_on_c, 0, 67, 0
1, 48816, Note_on_c, 0, 70, 75
1, 48831, Note_on_c, 0, 70, 0
1, 48832, Note_on_c, 0, 72, 75
1, 48847, Note_on_c, 0, 72, 0
1, 48848, Note_on_c, 0, 70, 75
1, 48857, Note_on_c, 1, 63, 0
1, 48857, Note_on_c, 1, 58, 0
1, 48863, Note_on_c, 0, 70, 0
1, 48864, Note_on_c, 0, 65, 75
1, 48864, Note_on_c, 1, 62, 70
1, 48864, Note_on_c, 1, 58, 70
1, 48909, Note_on_c, 0, 65, 0
1, 48912, Note_on_c, 0, 77, 75
1, 48927, Note_on_c, 0, 77, 0
1, 48928, Note_on_c, 0, 74, 75
1, 48943, Note_on_c, 0, 74, 0
1, 48944, Note_on_c, 0, 70, 75
1, 48953, Note_on_c, 1, 62, 0
1, 48953, Note_on_c, 1, 58, 0
1, 48959, Note_on_c, 0, 70, 0
1, 48960, Note_on_c, 0, 70, 75
1, 49008, Note_on_c, 1, 46, 80
1, 49049, Note_on_c, 0, 70, 0
1, 49053, Note_on_c, 1, 46, 0
1, 49056, Note_on_c, 0, 68, 75
1, 49056, Note_on_c, 1, 48, 80
1, 49069, Note_on_c, 0, 68, 0
1, 49070, Note_on_c, 0, 70, 75
1, 49083, Note_on_c, 0, 70, 0
1, 49084, Note_on_c, 0, 68, 75
1, 49097, Note_on_c, 0, 68, 0
1, 49098, Note_on_c, 0, 70, 75
1, 49101, Note_on_c, 1, 48, 0
1, 49104, Note_on_c, 1, 50, 80
1, 49111, Note_on_c, 0, 70, 0
1, 49112, Note_on_c, 0, 68, 75
1, 49125, Note_on_c, 0, 68, 0
1, 49126, Note_on_c, 0, 67, 75
1, 49138, Note_on_c, 0, 67, 0
1, 49139, Note_on_c, 0, 68, 75
1, 49149, Note_on_c, 1, 50, 0
1, 49151, Note_on_c, 0, 68, 0
1, 49152, Note_on_c, 0, 67, 75
1, 49152, Note_on_c, 1, 51, 80
1, 49197, Note_on_c, 0, 67, 0
1, 49200, Note_on_c, 0, 78, 75
1, 49223, Note_on_c, 0, 78, 0
1, 49224, Note_on_c, 0, 79, 75
1, 49241, Note_on_c, 1, 51, 0
1, 49247, Note_on_c, 0, 79, 0
1, 49248, Note_on_c, 0, 77, 75
1, 49271, Note_on_c, 0, 77, 0
1, 49272, Note_on_c, 0, 75, 75
1, 49295, Note_on_c, 0, 75, 0
1, 49296, Note_on_c, 0, 74, 75
1, 49296, Note_on_c, 1, 52, 80
1, 49319, Note_on_c, 0, 74, 0
1, 49320, Note_on_c, 0, 72, 75
1, 49341, Note_on_c, 1, 52, 0
1, 49343, Note_on_c, 0, 72, 0
1, 49344, Note_on_c, 0, 70, 75
1, 49344, Note_on_c, 1, 53, 80
1, 49389, Note_on_c, 0, 70, 0
1, 49389, Note_on_c, 1, 53, 0
1, 49392, Note_on_c, 0, 69, 75
1, 49392, Note_on_c, 1, 48, 80
1, 49415, Note_on_c, 1, 48, 0
1, 49416, Note_on_c, 1, 45, 80
1, 49437, Note_on_c, 0, 69, 0
1, 49439, Note_on_c, 1, 45, 0
1, 49440, Note_on_c, 1, 41, 80
1, 49488, Note_on_c, 0, 70, 75
1, 49503, Note_on_c, 0, 70, 0
1, 49504, Note_on_c, 0, 72, 75
1, 49519, Note_on_c, 0, 72, 0
1, 49520, Note_on_c, 0, 70, 75
1, 49529, Note_on_c, 1, 41, 0
1, 49535, Note_on_c, 0, 70, 0
1, 49536, Note_on_c, 0, 58, 75
1, 49556, Note_on_c, 0, 58, 0
1, 49584, Note_on_c, 0, 58, 75
1, 49584, Note_on_c, 1, 53, 64
1, 49584, Note_on_c, 1, 50, 64
1, 49604, Note_on_c, 0, 58, 0
1, 49631, Note_on_c, 1, 53, 0
1, 49631, Note_on_c, 1, 50, 0
1, 49632, Note_on_c, 1, 53, 64
1, 49632, Note_on_c, 1, 50, 64
1, 49679, Note_on_c, 1, 53, 0
1, 49679, Note_on_c, 1, 50, 0
1, 49680, Note_on_c, 0, 70, 75
1, 49680, Note_on_c, 1, 53, 64
1, 49680, Note_on_c, 1, 50, 64
1, 49695, Note_on_c, 0, 70, 0
1, 49696, Note_on_c, 0, 72, 75
1, 49711, Note_on_c, 0, 72, 0
1, 49712, Note_on_c, 0, 70, 75
1, 49727, Note_on_c, 0, 70, 0
1, 49727, Note_on_c, 1, 53, 0
1, 49727, Note_on_c, 1, 50, 0
1, 49728, Note_on_c, 0, 60, 75
1, 49748, Note_on_c, 0, 60, 0
1, 49776, Note_on_c, 0, 60, 75
1, 49776, Note_on_c, 1, 55, 64
1, 49776, Note_on_c, 1, 51, 64
1, 49796, Note_on_c, 0, 60, 0
1, 49823, Note_on_c, 1, 55, 0
1, 49823, Note_on_c, 1, 51, 0
1, 49824, Note_on_c, 1, 55, 64
1, 49824, Note_on_c, 1, 51, 64
1, 49871, Note_on_c, 1, 55, 0
1, 49871, Note_on_c, 1, 51, 0
1, 49872, Note_on_c, 0, 70, 75
1, 49872, Note_on_c, 1, 55, 64
1, 49872, Note_on_c, 1, 51, 64
1, 49887, Note_on_c, 0, 70, 0
1, 49888, Note_on_c, 0, 72, 75
1, 49903, Note_on_c, 0, 72, 0
1, 49904, Note_on_c, 0, 70, 75
1, 49919, Note_on_c, 0, 70, 0
1, 49919, Note_on_c, 1, 55, 0
1, 49919, Note_on_c, 1, 51, 0
1, 49920, Note_on_c, 0, 62, 75
1, 49940, Note_on_c, 0, 62, 0
1, 49968, Note_on_c, 0, 62, 75
1, 49968, Note_on_c, 1, 56, 65
1, 49968, Note_on_c, 1, 53, 65
1, 49988, Note_on_c, 0, 62, 0
1, 50015, Note_on_c, 1, 56, 0
1, 50015, Note_on_c, 1, 53, 0
1, 50016, Note_on_c, 1, 56, 67
1, 50016, Note_on_c, 1, 53, 67
1, 50063, Note_on_c, 1, 56, 0
1, 50063, Note_on_c, 1, 53, 0
1, 50064, Note_on_c, 0, 70, 76
1, 50064, Note_on_c, 1, 56, 69
1, 50064, Note_on_c, 1, 53, 69
1, 50079, Note_on_c, 0, 70, 0
1, 50080, Note_on_c, 0, 72, 76
1, 50095, Note_on_c, 0, 72, 0
1, 50096, Note_on_c, 0, 70, 76
1, 50111, Note_on_c, 0, 70, 0
1, 50111, Note_on_c, 1, 56, 0
1, 50111, Note_on_c, 1, 53, 0
1, 50112, Note_on_c, 0, 63, 77
1, 50132, Note_on_c, 0, 63, 0
1, 50160, Note_on_c, 0, 63, 77
1, 50160, Note_on_c, 1, 58, 72
1, 50160, Note_on_c, 1, 55, 72
1, 50180, Note_on_c, 0, 63, 0
1, 50207, Note_on_c, 1, 58, 0
1, 50207, Note_on_c, 1, 55, 0
1, 50208, Note_on_c, 1, 58, 74
1, 50208, Note_on_c, 1, 55, 74
1, 50255, Note_on_c, 1, 58, 0
1, 50255, Note_on_c, 1, 55, 0
1, 50256, Note_on_c, 0, 70, 78
1, 50256, Note_on_c, 1, 58, 76
1, 50256, Note_on_c, 1, 55, 76
1, 50271, Note_on_c, 0, 70, 0
1, 50272, Note_on_c, 0, 72, 78
1, 50287, Note_on_c, 0, 72, 0
1, 50288, Note_on_c, 0, 70, 79
1, 50303, Note_on_c, 0, 70, 0
1, 50303, Note_on_c, 1, 58, 0
1, 50303, Note_on_c, 1, 55, 0
1, 50304, Note_on_c, 0, 64, 79
1, 50324, Note_on_c, 0, 64, 0
1, 50352, Note_on_c, 0, 73, 96
1, 50352, Note_on_c, 1, 58, 80
1, 50352, Note_on_c, 1, 54, 80
1, 50397, Note_on_c, 1, 54, 0
1, 50399, Note_on_c, 1, 58, 0
1, 50400, Note_on_c, 1, 58, 80
1, 50400, Note_on_c, 1, 54, 80
1, 50447, Note_on_c, 1, 58, 0
1, 50448, Note_on_c, 0, 73, 0
1, 50448, Note_on_c, 0, 72, 70
1, 50448, Note_on_c, 1, 64, 70
1, 50471, Note_on_c, 0, 72, 0
1, 50472, Note_on_c, 0, 70, 70
1, 50489, Note_on_c, 1, 54, 0
1, 50495, Note_on_c, 0, 70, 0
1, 50495, Note_on_c, 1, 64, 0
1, 50496, Note_on_c, 0, 70, 71
1, 50496, Note_on_c, 1, 65, 71
1, 50496, Note_on_c, 1, 53, 80
1, 50541, Note_on_c, 1, 65, 0
1, 50541, Note_on_c, 1, 53, 0
1, 50544, Note_on_c, 1, 57, 80
1, 50559, Note_on_c, 1, 57, 0
1, 50560, Note_on_c, 1, 58, 80
1, 50575, Note_on_c, 1, 58, 0
1, 50576, Note_on_c, 1, 60, 80
1, 50591, Note_on_c, 1, 60, 0
1, 50592, Note_on_c, 0, 70, 0
1, 50592, Note_on_c, 0, 69, 73
1, 50592, Note_on_c, 1, 53, 80
1, 50612, Note_on_c, 0, 69, 0
1, 50640, Note_on_c, 0, 70, 75
1, 50655, Note_on_c, 0, 70, 0
1, 50656, Note_on_c, 0, 72, 75
1, 50671, Note_on_c, 0, 72, 0
1, 50672, Note_on_c, 0, 70, 75
1, 50681, Note_on_c, 1, 53, 0
1, 50687, Note_on_c, 0, 70, 0
1, 50688, Note_on_c, 0, 64, 75
1, 50708, Note_on_c, 0, 64, 0
1, 50736, Note_on_c, 0, 73, 93
1, 50736, Note_on_c, 1, 58, 78
1, 50736, Note_on_c, 1, 54, 80
1, 50781, Note_on_c, 1, 54, 0
1, 50783, Note_on_c, 1, 58, 0
1, 50784, Note_on_c, 1, 58, 80
1, 50784, Note_on_c, 1, 54, 80
1, 50831, Note_on_c, 1, 58, 0
1, 50832, Note_on_c, 0, 73, 0
1, 50832, Note_on_c, 0, 72, 80
1, 50832, Note_on_c, 1, 64, 80
1, 50855, Note_on_c, 0, 72, 0
1, 50856, Note_on_c, 0, 70, 80
1, 50873, Note_on_c, 1, 54, 0
1, 50879, Note_on_c, 0, 70, 0
1, 50879, Note_on_c, 1, 64, 0
1, 50880, Note_on_c, 0, 72, 80
1, 50880, Note_on_c, 1, 65, 80
1, 50880, Note_on_c, 1, 53, 80
1, 50892, Note_on_c, 0, 72, 0
1, 50892, Note_on_c, 0, 70, 80
1, 50904, Note_on_c, 0, 70, 0
1, 50904, Note_on_c, 0, 72, 80
1, 50916, Note_on_c, 0, 72, 0
1, 50916, Note_on_c, 0, 70, 80
1, 50925, Note_on_c, 1, 65, 0
1, 50925, Note_on_c, 1, 53, 0
1, 50928, Note_on_c, 0, 70, 0
1, 50928, Note_on_c, 0, 72, 80
1, 50928, Note_on_c, 1, 57, 80
1, 50940, Note_on_c, 0, 72, 0
1, 50940, Note_on_c, 0, 70, 80
1, 50943, Note_on_c, 1, 57, 0
1, 50944, Note_on_c, 1, 58, 80
1, 50952, Note_on_c, 0, 70, 0
1, 50952, Note_on_c, 0, 69, 80
1, 50959, Note_on_c, 1, 58, 0
1, 50960, Note_on_c, 1, 60, 80
1, 50964, Note_on_c, 0, 69, 0
1, 50964, Note_on_c, 0, 70, 80
1, 50975, Note_on_c, 1, 60, 0
1, 50976, Note_on_c, 0, 70, 0
1, 50976, Note_on_c, 0, 69, 80
1, 50976, Note_on_c, 1, 53, 80
1, 51065, Note_on_c, 0, 69, 0
1, 51065, Note_on_c, 1, 53, 0
1, 51072, Note_on_c, 0, 82, 75
1, 51072, Note_on_c, 1, 58, 70
1, 51072, Note_on_c, 1, 50, 70
1, 51096, Note_on_c, 0, 82, 0
1, 51096, Note_on_c, 0, 81, 74
1, 51119, Note_on_c, 0, 81, 0
1, 51119, Note_on_c, 1, 58, 0
1, 51119, Note_on_c, 1, 50, 0
1, 51120, Note_on_c, 0, 81, 73
1, 51120, Note_on_c, 1, 58, 68
1, 51120, Note_on_c, 1, 50, 68
1, 51144, Note_on_c, 0, 81, 0
1, 51144, Note_on_c, 0, 79, 73
1, 51167, Note_on_c, 0, 79, 0
1, 51167, Note_on_c, 1, 58, 0
1, 51167, Note_on_c, 1, 50, 0
1, 51168, Note_on_c, 0, 79, 72
1, 51168, Note_on_c, 1, 58, 67
1, 51168, Note_on_c, 1, 50, 67
1, 51192, Note_on_c, 0, 79, 0
1, 51192, Note_on_c, 0, 77, 71
1, 51215, Note_on_c, 0, 77, 0
1, 51215, Note_on_c, 1, 58, 0
1, 51215, Note_on_c, 1, 50, 0
1, 51216, Note_on_c, 0, 77, 71
1, 51216, Note_on_c, 1, 58, 65
1, 51216, Note_on_c, 1, 50, 65
1, 51240, Note_on_c, 0, 77, 0
1, 51240, Note_on_c, 0, 78, 70
1, 51263, Note_on_c, 0, 78, 0
1, 51263, Note_on_c, 1, 58, 0
1, 51263, Note_on_c, 1, 50, 0
1, 51264, Note_on_c, 0, 78, 86
1, 51264, Note_on_c, 1, 58, 64
1, 51264, Note_on_c, 1, 51, 64
1, 51311, Note_on_c, 1, 58, 0
1, 51311, Note_on_c, 1, 51, 0
1, 51312, Note_on_c, 1, 58, 65
1, 51312, Note_on_c, 1, 51, 65
1, 51359, Note_on_c, 1, 58, 0
1, 51359, Note_on_c, 1, 51, 0
1, 51360, Note_on_c, 1, 58, 67
1, 51360, Note_on_c, 1, 51, 67
1, 51407, Note_on_c, 1, 58, 0
1, 51407, Note_on_c, 1, 51, 0
1, 51408, Note_on_c, 0, 78, 0
1, 51408, Note_on_c, 0, 79, 73
1, 51408, Note_on_c, 1, 58, 68
1, 51408, Note_on_c, 1, 51, 68
1, 51453, Note_on_c, 0, 79, 0
1, 51455, Note_on_c, 1, 58, 0
1, 51455, Note_on_c, 1, 51, 0
1, 51456, Note_on_c, 0, 82, 75
1, 51456, Note_on_c, 1, 58, 70
1, 51456, Note_on_c, 1, 50, 70
1, 51480, Note_on_c, 0, 82, 0
1, 51480, Note_on_c, 0, 81, 74
1, 51503, Note_on_c, 0, 81, 0
1, 51503, Note_on_c, 1, 58, 0
1, 51503, Note_on_c, 1, 50, 0
1, 51504, Note_on_c, 0, 81, 73
1, 51504, Note_on_c, 1, 58, 68
1, 51504, Note_on_c, 1, 50, 68
1, 51528, Note_on_c, 0, 81, 0
1, 51528, Note_on_c, 0, 79, 73
1, 51551, Note_on_c, 0, 79, 0
1, 51551, Note_on_c, 1, 58, 0
1, 51551, Note_on_c, 1, 50, 0
1, 51552, Note_on_c, 0, 79, 72
1, 51552, Note_on_c, 1, 58, 67
1, 51552, Note_on_c, 1, 50, 67
1, 51576, Note_on_c, 0, 79, 0
1, 51576, Note_on_c, 0, 77, 71
1, 51599, Note_on_c, 0, 77, 0
1, 51599, Note_on_c, 1, 58, 0
1, 51599, Note_on_c, 1, 50, 0
1, 51600, Note_on_c, 0, 77, 71
1, 51600, Note_on_c, 1, 58, 65
1, 51600, Note_on_c, 1, 50, 65
1, 51624, Note_on_c, 0, 77, 0
1, 51624, Note_on_c, 0, 78, 70
1, 51647, Note_on_c, 0, 78, 0
1, 51647, Note_on_c, 1, 58, 0
1, 51647, Note_on_c, 1, 50, 0
1, 51648, Note_on_c, 0, 78, 86
1, 51648, Note_on_c, 1, 58, 64
1, 51648, Note_on_c, 1, 51, 64
1, 51695, Note_on_c, 1, 58, 0
1, 51695, Note_on_c, 1, 51, 0
1, 51696, Note_on_c, 1, 58, 65
1, 51696, Note_on_c, 1, 51, 65
1, 51743, Note_on_c, 1, 58, 0
1, 51743, Note_on_c, 1, 51, 0
1, 51744, Note_on_c, 1, 58, 67
1, 51744, Note_on_c, 1, 51, 67
1, 51791, Note_on_c, 1, 58, 0
1, 51791, Note_on_c, 1, 51, 0
1, 51792, Note_on_c, 0, 78, 0
1, 51792, Note_on_c, 0, 79, 73
1, 51792, Note_on_c, 1, 58, 68
1, 51792, Note_on_c, 1, 51, 68
1, 51837, Note_on_c, 0, 79, 0
1, 51839, Note_on_c, 1, 58, 0
1, 51839, Note_on_c, 1, 51, 0
1, 51840, Note_on_c, 0, 82, 75
1, 51840, Note_on_c, 1, 58, 70
1, 51840, Note_on_c, 1, 50, 70
1, 51864, Note_on_c, 0, 82, 0
1, 51864, Note_on_c, 0, 81, 74
1, 51887, Note_on_c, 0, 81, 0
1, 51887, Note_on_c, 1, 58, 0
1, 51887, Note_on_c, 1, 50, 0
1, 51888, Note_on_c, 0, 81, 73
1, 51888, Note_on_c, 1, 58, 68
1, 51888, Note_on_c, 1, 50, 68
1, 51912, Note_on_c, 0, 81, 0
1, 51912, Note_on_c, 0, 79, 73
1, 51935, Note_on_c, 0, 79, 0
1, 51935, Note_on_c, 1, 58, 0
1, 51935, Note_on_c, 1, 50, 0
1, 51936, Note_on_c, 0, 79, 72
1, 51936, Note_on_c, 1, 58, 67
1, 51936, Note_on_c, 1, 50, 67
1, 51960, Note_on_c, 0, 79, 0
1, 51960, Note_on_c, 0, 77, 71
1, 51983, Note_on_c, 0, 77, 0
1, 51983, Note_on_c, 1, 58, 0
1, 51983, Note_on_c, 1, 50, 0
1, 51984, Note_on_c, 0, 77, 71
1, 51984, Note_on_c, 1, 58, 65
1, 51984, Note_on_c, 1, 50, 65
1, 52008, Note_on_c, 0, 77, 0
1, 52008, Note_on_c, 0, 76, 70
1, 52031, Note_on_c, 0, 76, 0
1, 52031, Note_on_c, 1, 58, 0
1, 52031, Note_on_c, 1, 50, 0
1, 52032, Note_on_c, 0, 76, 86
1, 52032, Note_on_c, 1, 58, 64
1, 52032, Note_on_c, 1, 48, 64
1, 52079, Note_on_c, 1, 58, 0
1, 52079, Note_on_c, 1, 48, 0
1, 52080, Note_on_c, 1, 58, 67
1, 52080, Note_on_c, 1, 48, 67
1, 52127, Note_on_c, 1, 58, 0
1, 52127, Note_on_c, 1, 48, 0
1, 52128, Note_on_c, 1, 58, 71
1, 52128, Note_on_c, 1, 48, 71
1, 52162, Note_on_c, 0, 76, 0
1, 52164, Note_on_c, 0, 86, 80
1, 52175, Note_on_c, 1, 58, 0
1, 52175, Note_on_c, 1, 48, 0
1, 52176, Note_on_c, 0, 86, 0
1, 52176, Note_on_c, 0, 76, 80
1, 52176, Note_on_c, 1, 58, 75
1, 52176, Note_on_c, 1, 48, 75
1, 52210, Note_on_c, 0, 76, 0
1, 52212, Note_on_c, 0, 86, 80
1, 52223, Note_on_c, 1, 58, 0
1, 52223, Note_on_c, 1, 48, 0
1, 52224, Note_on_c, 0, 86, 0
1, 52224, Note_on_c, 0, 76, 86
1, 52224, Note_on_c, 1, 58, 64
1, 52224, Note_on_c, 1, 48, 64
1, 52271, Note_on_c, 1, 58, 0
1, 52271, Note_on_c, 1, 48, 0
1, 52272, Note_on_c, 1, 58, 67
1, 52272, Note_on_c, 1, 48, 67
1, 52319, Note_on_c, 1, 58, 0
1, 52319, Note_on_c, 1, 48, 0
1, 52320, Note_on_c, 1, 58, 71
1, 52320, Note_on_c, 1, 48, 71
1, 52354, Note_on_c, 0, 76, 0
1, 52356, Note_on_c, 0, 86, 80
1, 52367, Note_on_c, 1, 58, 0
1, 52367, Note_on_c, 1, 48, 0
1, 52368, Note_on_c, 0, 86, 0
1, 52368, Note_on_c, 0, 76, 80
1, 52368, Note_on_c, 1, 58, 75
1, 52368, Note_on_c, 1, 48, 75
1, 52402, Note_on_c, 0, 76, 0
1, 52404, Note_on_c, 0, 86, 80
1, 52415, Note_on_c, 1, 58, 0
1, 52415, Note_on_c, 1, 48, 0
1, 52416, Note_on_c, 0, 86, 0
1, 52416, Note_on_c, 0, 75, 96
1, 52416, Note_on_c, 1, 57, 75
1, 52416, Note_on_c, 1, 53, 75
1, 52463, Note_on_c, 1, 57, 0
1, 52463, Note_on_c, 1, 53, 0
1, 52464, Note_on_c, 1, 57, 75
1, 52464, Note_on_c, 1, 53, 75
1, 52511, Note_on_c, 1, 57, 0
1, 52511, Note_on_c, 1, 53, 0
1, 52512, Note_on_c, 1, 57, 75
1, 52512, Note_on_c, 1, 53, 75
1, 52559, Note_on_c, 1, 57, 0
1, 52559, Note_on_c, 1, 53, 0
1, 52560, Note_on_c, 0, 75, 0
1, 52560, Note_on_c, 0, 79, 76
1, 52560, Note_on_c, 1, 57, 75
1, 52560, Note_on_c, 1, 53, 75
1, 52575, Note_on_c, 0, 79, 0
1, 52576, Note_on_c, 0, 77, 75
1, 52591, Note_on_c, 0, 77, 0
1, 52592, Note_on_c, 0, 75, 75
1, 52607, Note_on_c, 0, 75, 0
1, 52607, Note_on_c, 1, 57, 0
1, 52607, Note_on_c, 1, 53, 0
1, 52608, Note_on_c, 0, 74, 75
1, 52608, Note_on_c, 1, 58, 75
1, 52608, Note_on_c, 1, 46, 75
1, 52653, Note_on_c, 0, 74, 0
1, 52656, Note_on_c, 0, 82, 75
1, 52671, Note_on_c, 0, 82, 0
1, 52672, Note_on_c, 0, 84, 75
1, 52687, Note_on_c, 0, 84, 0
1, 52688, Note_on_c, 0, 82, 75
1, 52697, Note_on_c, 1, 58, 0
1, 52697, Note_on_c, 1, 46, 0
1, 52703, Note_on_c, 0, 82, 0
1, 52704, Note_on_c, 0, 79, 75
1, 52704, Note_on_c, 1, 63, 75
1, 52704, Note_on_c, 1, 51, 75
1, 52749, Note_on_c, 0, 79, 0
1, 52752, Note_on_c, 0, 75, 75
1, 52767, Note_on_c, 0, 75, 0
1, 52768, Note_on_c, 0, 77, 75
1, 52783, Note_on_c, 0, 77, 0
1, 52784, Note_on_c, 0, 75, 75
1, 52793, Note_on_c, 1, 63, 0
1, 52793, Note_on_c, 1, 51, 0
1, 52799, Note_on_c, 0, 75, 0
1, 52800, Note_on_c, 0, 65, 75
1, 52848, Note_on_c, 1, 58, 75
1, 52848, Note_on_c, 1, 50, 80
1, 52889, Note_on_c, 0, 65, 0
1, 52893, Note_on_c, 1, 50, 0
1, 52896, Note_on_c, 0, 74, 75
1, 52896, Note_on_c, 1, 51, 80
1, 52908, Note_on_c, 0, 74, 0
1, 52908, Note_on_c, 0, 72, 75
1, 52920, Note_on_c, 0, 72, 0
1, 52920, Note_on_c, 0, 74, 75
1, 52932, Note_on_c, 0, 74, 0
1, 52932, Note_on_c, 0, 72, 75
1, 52937, Note_on_c, 1, 58, 0
1, 52941, Note_on_c, 1, 51, 0
1, 52944, Note_on_c, 0, 72, 0
1, 52944, Note_on_c, 0, 74, 75
1, 52944, Note_on_c, 1, 57, 75
1, 52944, Note_on_c, 1, 53, 80
1, 52956, Note_on_c, 0, 74, 0
1, 52956, Note_on_c, 0, 72, 75
1, 52968, Note_on_c, 0, 72, 0
1, 52968, Note_on_c, 0, 70, 75
1, 52980, Note_on_c, 0, 70, 0
1, 52980, Note_on_c, 0, 72, 75
1, 52989, Note_on_c, 1, 57, 0
1, 52989, Note_on_c, 1, 53, 0
1, 52992, Note_on_c, 0, 72, 0
1, 52992, Note_on_c, 0, 70, 75
1, 52992, Note_on_c, 1, 58, 75
1, 52992, Note_on_c, 1, 46, 75
1, 53012, Note_on_c, 0, 70, 0
1, 53040, Note_on_c, 0, 82, 75
1, 53055, Note_on_c, 0, 82, 0
1, 53056, Note_on_c, 0, 84, 75
1, 53071, Note_on_c, 0, 84, 0
1, 53072, Note_on_c, 0, 82, 75
1, 53081, Note_on_c, 1, 58, 0
1, 53081, Note_on_c, 1, 46, 0
1, 53087, Note_on_c, 0, 82, 0
1, 53088, Note_on_c, 0, 79, 75
1, 53088, Note_on_c, 1, 63, 75
1, 53088, Note_on_c, 1, 51, 75
1, 53133, Note_on_c, 0, 79, 0
1, 53136, Note_on_c, 0, 75, 75
1, 53151, Note_on_c, 0, 75, 0
1, 53152, Note_on_c, 0, 77, 75
1, 53167, Note_on_c, 0, 77, 0
1, 53168, Note_on_c, 0, 75, 75
1, 53177, Note_on_c, 1, 63, 0
1, 53177, Note_on_c, 1, 51, 0
1, 53183, Note_on_c, 0, 75, 0
1, 53184, Note_on_c, 0, 65, 75
1, 53232, Note_on_c, 1, 58, 75
1, 53232, Note_on_c, 1, 50, 80
1, 53273, Note_on_c, 0, 65, 0
1, 53277, Note_on_c, 1, 50, 0
1, 53280, Note_on_c, 0, 74, 75
1, 53280, Note_on_c, 1, 51, 80
1, 53292, Note_on_c, 0, 74, 0
1, 53292, Note_on_c, 0, 72, 75
1, 53304, Note_on_c, 0, 72, 0
1, 53304, Note_on_c, 0, 74, 75
1, 53316, Note_on_c, 0, 74, 0
1, 53316, Note_on_c, 0, 72, 75
1, 53321, Note_on_c, 1, 58, 0
1, 53325, Note_on_c, 1, 51, 0
1, 53328, Note_on_c, 0, 72, 0
1, 53328, Note_on_c, 0, 74, 75
1, 53328, Note_on_c, 1, 57, 75
1, 53328, Note_on_c, 1, 53, 80
1, 53340, Note_on_c, 0, 74, 0
1, 53340, Note_on_c, 0, 72, 75
1, 53352, Note_on_c, 0, 72, 0
1, 53352, Note_on_c, 0, 70, 75
1, 53364, Note_on_c, 0, 70, 0
1, 53364, Note_on_c, 0, 72, 75
1, 53373, Note_on_c, 1, 57, 0
1, 53373, Note_on_c, 1, 53, 0
1, 53376, Note_on_c, 0, 72, 0
1, 53376, Note_on_c, 0, 70, 75
1, 53376, Note_on_c, 1, 58, 75
1, 53421, Note_on_c, 1, 58, 0
1, 53424, Note_on_c, 1, 53, 75
1, 53447, Note_on_c, 1, 53, 0
1, 53448, Note_on_c, 1, 50, 75
1, 53465, Note_on_c, 0, 70, 0
1, 53471, Note_on_c, 1, 50, 0
1, 53472, Note_on_c, 1, 46, 75
1, 53544, Note_on_c, 0, 70, 75
1, 53554, Note_on_c, 0, 70, 0
1, 53561, Note_on_c, 1, 46, 0
1, 53568, Note_on_c, 0, 58, 64
1, 53616, Note_on_c, 1, 53, 75
1, 53616, Note_on_c, 1, 50, 64
1, 53661, Note_on_c, 1, 53, 0
1, 53661, Note_on_c, 1, 50, 0
1, 53664, Note_on_c, 1, 53, 64
1, 53664, Note_on_c, 1, 50, 64
1, 53712, Note_on_c, 0, 58, 0
1, 53712, Note_on_c, 0, 59, 68
1, 53712, Note_on_c, 1, 53, 0
1, 53712, Note_on_c, 1, 54, 70
1, 53753, Note_on_c, 1, 50, 0
1, 53757, Note_on_c, 0, 59, 0
1, 53757, Note_on_c, 1, 54, 0
1, 53760, Note_on_c, 0, 60, 70
1, 53760, Note_on_c, 1, 55, 75
1, 53760, Note_on_c, 1, 51, 75
1, 53805, Note_on_c, 0, 60, 0
1, 53808, Note_on_c, 0, 62, 72
1, 53814, Note_on_c, 0, 62, 0
1, 53814, Note_on_c, 0, 63, 72
1, 53849, Note_on_c, 1, 55, 0
1, 53849, Note_on_c, 1, 51, 0
1, 53853, Note_on_c, 0, 63, 0
1, 53856, Note_on_c, 0, 66, 73
1, 53862, Note_on_c, 0, 66, 0
1, 53862, Note_on_c, 0, 67, 73
1, 53901, Note_on_c, 0, 67, 0
1, 53904, Note_on_c, 0, 71, 75
1, 53910, Note_on_c, 0, 71, 0
1, 53910, Note_on_c, 0, 72, 75
1, 53949, Note_on_c, 0, 72, 0
1, 53952, Note_on_c, 0, 74, 76
1, 53958, Note_on_c, 0, 74, 0
1, 53958, Note_on_c, 0, 75, 76
1, 53997, Note_on_c, 0, 75, 0
1, 54000, Note_on_c, 0, 78, 78
1, 54006, Note_on_c, 0, 78, 0
1, 54006, Note_on_c, 0, 79, 78
1, 54045, Note_on_c, 0, 79, 0
1, 54048, Note_on_c, 0, 77, 80
1, 54063, Note_on_c, 0, 77, 0
1, 54064, Note_on_c, 0, 75, 80
1, 54079, Note_on_c, 0, 75, 0
1, 54080, Note_on_c, 0, 74, 80
1, 54095, Note_on_c, 0, 74, 0
1, 54096, Note_on_c, 0, 75, 80
1, 54111, Note_on_c, 0, 75, 0
1, 54112, Note_on_c, 0, 74, 80
1, 54127, Note_on_c, 0, 74, 0
1, 54128, Note_on_c, 0, 72, 80
1, 54143, Note_on_c, 0, 72, 0
1, 54144, Note_on_c, 0, 70, 80
1, 54192, Note_on_c, 1, 50, 75
1, 54211, Note_on_c, 0, 70, 0
1, 54216, Note_on_c, 0, 72, 80
1, 54237, Note_on_c, 1, 50, 0
1, 54239, Note_on_c, 0, 72, 0
1, 54240, Note_on_c, 0, 74, 80
1, 54240, Note_on_c, 1, 51, 75
1, 54252, Note_on_c, 0, 74, 0
1, 54252, Note_on_c, 0, 72, 80
1, 54264, Note_on_c, 0, 72, 0
1, 54264, Note_on_c, 0, 74, 80
1, 54276, Note_on_c, 0, 74, 0
1, 54276, Note_on_c, 0, 72, 80
1, 54285, Note_on_c, 1, 51, 0
1, 54288, Note_on_c, 0, 72, 0
1, 54288, Note_on_c, 0, 74, 80
1, 54288, Note_on_c, 1, 53, 75
1, 54300, Note_on_c, 0, 74, 0
1, 54300, Note_on_c, 0, 72, 80
1, 54312, Note_on_c, 0, 72, 0
1, 54312, Note_on_c, 0, 70, 80
1, 54324, Note_on_c, 0, 70, 0
1, 54324, Note_on_c, 0, 72, 80
1, 54333, Note_on_c, 1, 53, 0
1, 54336, Note_on_c, 0, 72, 0
1, 54336, Note_on_c, 0, 70, 80
1, 54336, Note_on_c, 1, 46, 75
1, 54381, Note_on_c, 1, 46, 0
1, 54384, Note_on_c, 1, 53, 75
1, 54425, Note_on_c, 0, 70, 0
1, 54429, Note_on_c, 1, 53, 0
1, 54432, Note_on_c, 0, 77, 75
1, 54455, Note_on_c, 0, 77, 0
1, 54456, Note_on_c, 0, 65, 75
1, 54479, Note_on_c, 0, 65, 0
1, 54480, Note_on_c, 0, 77, 75
1, 54480, Note_on_c, 1, 62, 75
1, 54503, Note_on_c, 0, 77, 0
1, 54504, Note_on_c, 0, 65, 75
1, 54525, Note_on_c, 1, 62, 0
1, 54527, Note_on_c, 0, 65, 0
1, 54528, Note_on_c, 0, 75, 75
1, 54528, Note_on_c, 0, 77, 75
1, 54528, Note_on_c, 1, 60, 75
1, 54551, Note_on_c, 0, 75, 0
1, 54552, Note_on_c, 0, 65, 75
1, 54573, Note_on_c, 0, 77, 0
1, 54573, Note_on_c, 1, 60, 0
1, 54575, Note_on_c, 0, 65, 0
1, 54576, Note_on_c, 0, 75, 75
1, 54576, Note_on_c, 0, 77, 75
1, 54576, Note_on_c, 1, 58, 75
1, 54599, Note_on_c, 0, 75, 0
1, 54600, Note_on_c, 0, 65, 75
1, 54621, Note_on_c, 0, 77, 0
1, 54621, Note_on_c, 1, 58, 0
1, 54623, Note_on_c, 0, 65, 0
1, 54624, Note_on_c, 0, 75, 75
1, 54624, Note_on_c, 0, 77, 75
1, 54624, Note_on_c, 1, 57, 75
1, 54647, Note_on_c, 0, 75, 0
1, 54648, Note_on_c, 0, 65, 75
1, 54669, Note_on_c, 0, 77, 0
1, 54669, Note_on_c, 1, 57, 0
1, 54671, Note_on_c, 0, 65, 0
1, 54672, Note_on_c, 0, 75, 75
1, 54672, Note_on_c, 0, 77, 75
1, 54672, Note_on_c, 1, 60, 75
1, 54695, Note_on_c, 0, 75, 0
1, 54696, Note_on_c, 0, 65, 75
1, 54717, Note_on_c, 0, 77, 0
1, 54717, Note_on_c, 1, 60, 0
1, 54719, Note_on_c, 0, 65, 0
1, 54720, Note_on_c, 0, 77, 75
1, 54720, Note_on_c, 0, 74, 75
1, 54720, Note_on_c, 1, 58, 75
1, 54743, Note_on_c, 1, 58, 0
1, 54744, Note_on_c, 1, 53, 75
1, 54767, Note_on_c, 1, 53, 0
1, 54768, Note_on_c, 1, 50, 75
1, 54791, Note_on_c, 1, 50, 0
1, 54792, Note_on_c, 1, 46, 75
1, 54809, Note_on_c, 0, 77, 0
1, 54809, Note_on_c, 0, 74, 0
1, 54815, Note_on_c, 1, 46, 0
1, 54816, Note_on_c, 0, 77, 64
1, 54839, Note_on_c, 0, 77, 0
1, 54840, Note_on_c, 0, 65, 64
1, 54863, Note_on_c, 0, 65, 0
1, 54864, Note_on_c, 0, 77, 64
1, 54864, Note_on_c, 1, 62, 64
1, 54887, Note_on_c, 0, 77, 0
1, 54888, Note_on_c, 0, 65, 64
1, 54909, Note_on_c, 1, 62, 0
1, 54911, Note_on_c, 0, 65, 0
1, 54912, Note_on_c, 0, 75, 64
1, 54912, Note_on_c, 0, 77, 64
1, 54912, Note_on_c, 1, 60, 64
1, 54935, Note_on_c, 0, 75, 0
1, 54936, Note_on_c, 0, 65, 64
1, 54957, Note_on_c, 0, 77, 0
1, 54957, Note_on_c, 1, 60, 0
1, 54959, Note_on_c, 0, 65, 0
1, 54960, Note_on_c, 0, 75, 64
1, 54960, Note_on_c, 0, 77, 64
1, 54960, Note_on_c, 1, 58, 64
1, 54983, Note_on_c, 0, 75, 0
1, 54984, Note_on_c, 0, 65, 64
1, 55005, Note_on_c, 0, 77, 0
1, 55005, Note_on_c, 1, 58, 0
1, 55007, Note_on_c, 0, 65, 0
1, 55008, Note_on_c, 0, 75, 64
1, 55008, Note_on_c, 0, 77, 64
1, 55008, Note_on_c, 1, 57, 64
1, 55031, Note_on_c, 0, 75, 0
1, 55032, Note_on_c, 0, 65, 64
1, 55053, Note_on_c, 0, 77, 0
1, 55053, Note_on_c, 1, 57, 0
1, 55055, Note_on_c, 0, 65, 0
1, 55056, Note_on_c, 0, 75, 64
1, 55056, Note_on_c, 0, 77, 64
1, 55056, Note_on_c, 1, 60, 64
1, 55079, Note_on_c, 0, 75, 0
1, 55080, Note_on_c, 0, 65, 64
1, 55101, Note_on_c, 0, 77, 0
1, 55101, Note_on_c, 1, 60, 0
1, 55103, Note_on_c, 0, 65, 0
1, 55104, Note_on_c, 0, 77, 64
1, 55104, Note_on_c, 0, 74, 64
1, 55104, Note_on_c, 1, 58, 64
1, 55127, Note_on_c, 1, 58, 0
1, 55128, Note_on_c, 1, 53, 64
1, 55151, Note_on_c, 1, 53, 0
1, 55152, Note_on_c, 1, 50, 64
1, 55175, Note_on_c, 1, 50, 0
1, 55176, Note_on_c, 1, 46, 64
1, 55193, Note_on_c, 0, 77, 0
1, 55193, Note_on_c, 0, 74, 0
1, 55199, Note_on_c, 1, 46, 0
1, 55200, Note_on_c, 0, 77, 75
1, 55223, Note_on_c, 0, 77, 0
1, 55224, Note_on_c, 0, 65, 75
1, 55247, Note_on_c, 0, 65, 0
1, 55248, Note_on_c, 0, 77, 75
1, 55248, Note_on_c, 1, 62, 75
1, 55271, Note_on_c, 0, 77, 0
1, 55272, Note_on_c, 0, 65, 75
1, 55293, Note_on_c, 1, 62, 0
1, 55295, Note_on_c, 0, 65, 0
1, 55296, Note_on_c, 0, 75, 75
1, 55296, Note_on_c, 0, 77, 75
1, 55296, Note_on_c, 1, 60, 75
1, 55319, Note_on_c, 0, 75, 0
1, 55320, Note_on_c, 0, 65, 75
1, 55341, Note_on_c, 0, 77, 0
1, 55341, Note_on_c, 1, 60, 0
1, 55343, Note_on_c, 0, 65, 0
1, 55344, Note_on_c, 0, 75, 75
1, 55344, Note_on_c, 0, 77, 75
1, 55344, Note_on_c, 1, 58, 75
1, 55367, Note_on_c, 0, 75, 0
1, 55368, Note_on_c, 0, 65, 75
1, 55389, Note_on_c, 0, 77, 0
1, 55389, Note_on_c, 1, 58, 0
1, 55391, Note_on_c, 0, 65, 0
1, 55392, Note_on_c, 0, 75, 75
1, 55392, Note_on_c, 0, 77, 75
1, 55392, Note_on_c, 1, 57, 75
1, 55415, Note_on_c, 0, 75, 0
1, 55416, Note_on_c, 0, 65, 75
1, 55437, Note_on_c, 0, 77, 0
1, 55437, Note_on_c, 1, 57, 0
1, 55439, Note_on_c, 0, 65, 0
1, 55440, Note_on_c, 0, 75, 75
1, 55440, Note_on_c, 0, 77, 75
1, 55440, Note_on_c, 1, 60, 75
1, 55463, Note_on_c, 0, 75, 0
1, 55464, Note_on_c, 0, 65, 75
1, 55485, Note_on_c, 0, 77, 0
1, 55485, Note_on_c, 1, 60, 0
1, 55487, Note_on_c, 0, 65, 0
1, 55488, Note_on_c, 0, 77, 75
1, 55488, Note_on_c, 0, 74, 75
1, 55488, Note_on_c, 1, 58, 75
1, 55533, Note_on_c, 0, 77, 0
1, 55533, Note_on_c, 0, 74, 0
1, 55536, Note_on_c, 0, 70, 75
1, 55551, Note_on_c, 0, 70, 0
1, 55552, Note_on_c, 0, 72, 75
1, 55567, Note_on_c, 0, 72, 0
1, 55568, Note_on_c, 0, 70, 75
1, 55577, Note_on_c, 1, 58, 0
1, 55583, Note_on_c, 0, 70, 0
1, 55584, Note_on_c, 0, 67, 75
1, 55584, Note_on_c, 1, 58, 75
1, 55584, Note_on_c, 1, 51, 75
1, 55604, Note_on_c, 0, 67, 0
1, 55632, Note_on_c, 0, 75, 75
1, 55647, Note_on_c, 0, 75, 0
1, 55648, Note_on_c, 0, 77, 75
1, 55663, Note_on_c, 0, 77, 0
1, 55664, Note_on_c, 0, 75, 75
1, 55673, Note_on_c, 1, 58, 0
1, 55673, Note_on_c, 1, 51, 0
1, 55679, Note_on_c, 0, 75, 0
1, 55680, Note_on_c, 0, 65, 75
1, 55728, Note_on_c, 1, 58, 75
1, 55728, Note_on_c, 1, 50, 64
1, 55769, Note_on_c, 0, 65, 0
1, 55773, Note_on_c, 1, 50, 0
1, 55776, Note_on_c, 0, 74, 75
1, 55776, Note_on_c, 1, 51, 64
1, 55788, Note_on_c, 0, 74, 0
1, 55788, Note_on_c, 0, 72, 75
1, 55800, Note_on_c, 0, 72, 0
1, 55800, Note_on_c, 0, 74, 75
1, 55812, Note_on_c, 0, 74, 0
1, 55812, Note_on_c, 0, 72, 75
1, 55817, Note_on_c, 1, 58, 0
1, 55821, Note_on_c, 1, 51, 0
1, 55824, Note_on_c, 0, 72, 0
1, 55824, Note_on_c, 0, 74, 75
1, 55824, Note_on_c, 1, 57, 75
1, 55824, Note_on_c, 1, 53, 64
1, 55836, Note_on_c, 0, 74, 0
1, 55836, Note_on_c, 0, 72, 75
1, 55848, Note_on_c, 0, 72, 0
1, 55848, Note_on_c, 0, 70, 75
1, 55860, Note_on_c, 0, 70, 0
1, 55860, Note_on_c, 0, 72, 75
1, 55869, Note_on_c, 1, 57, 0
1, 55869, Note_on_c, 1, 53, 0
1, 55872, Note_on_c, 0, 72, 0
1, 55872, Note_on_c, 0, 70, 75
1, 55872, Note_on_c, 1, 58, 75
1, 55872, Note_on_c, 1, 46, 75
1, 55961, Note_on_c, 0, 70, 0
1, 55961, Note_on_c, 1, 58, 0
1, 55961, Note_on_c, 1, 46, 0
1, 55968, Note_on_c, 0, 77, 70
1, 55968, Note_on_c, 1, 62, 64
1, 55968, Note_on_c, 1, 58, 64
1, 55992, Note_on_c, 0, 77, 0
1, 55992, Note_on_c, 0, 79, 69
1, 56015, Note_on_c, 0, 79, 0
1, 56015, Note_on_c, 1, 62, 0
1, 56015, Note_on_c, 1, 58, 0
1, 56016, Note_on_c, 0, 81, 69
1, 56016, Note_on_c, 1, 62, 63
1, 56016, Note_on_c, 1, 58, 63
1, 56040, Note_on_c, 0, 81, 0
1, 56040, Note_on_c, 0, 82, 68
1, 56063, Note_on_c, 0, 82, 0
1, 56063, Note_on_c, 1, 62, 0
1, 56063, Note_on_c, 1, 58, 0
1, 56064, Note_on_c, 0, 79, 68
1, 56064, Note_on_c, 1, 63, 62
1, 56064, Note_on_c, 1, 58, 62
1, 56088, Note_on_c, 0, 79, 0
1, 56088, Note_on_c, 0, 81, 68
1, 56111, Note_on_c, 0, 81, 0
1, 56111, Note_on_c, 1, 63, 0
1, 56111, Note_on_c, 1, 58, 0
1, 56112, Note_on_c, 0, 82, 67
1, 56112, Note_on_c, 1, 63, 61
1, 56112, Note_on_c, 1, 58, 61
1, 56136, Note_on_c, 0, 82, 0
1, 56136, Note_on_c, 0, 84, 67
1, 56159, Note_on_c, 0, 84, 0
1, 56159, Note_on_c, 1, 63, 0
1, 56159, Note_on_c, 1, 58, 0
1, 56160, Note_on_c, 0, 82, 67
1, 56160, Note_on_c, 1, 60, 61
1, 56160, Note_on_c, 1, 58, 61
1, 56184, Note_on_c, 0, 82, 0
1, 56184, Note_on_c, 0, 81, 66
1, 56207, Note_on_c, 0, 81, 0
1, 56207, Note_on_c, 1, 60, 0
1, 56207, Note_on_c, 1, 58, 0
1, 56208, Note_on_c, 0, 79, 66
1, 56208, Note_on_c, 1, 60, 60
1, 56208, Note_on_c, 1, 58, 60
1, 56232, Note_on_c, 0, 79, 0
1, 56232, Note_on_c, 0, 81, 65
1, 56255, Note_on_c, 0, 81, 0
1, 56255, Note_on_c, 1, 60, 0
1, 56255, Note_on_c, 1, 58, 0
1, 56256, Note_on_c, 0, 82, 81
1, 56256, Note_on_c, 1, 62, 75
1, 56256, Note_on_c, 1, 58, 75
1, 56350, Note_on_c, 1, 62, 0
1, 56350, Note_on_c, 1, 58, 0
1, 56352, Note_on_c, 0, 82, 0
1, 56352, Note_on_c, 0, 65, 64
1, 56352, Note_on_c, 1, 50, 70
1, 56352, Note_on_c, 1, 46, 70
1, 56367, Note_on_c, 0, 65, 0
1, 56368, Note_on_c, 0, 67, 75
1, 56383, Note_on_c, 0, 67, 0
1, 56384, Note_on_c, 0, 65, 74
1, 56399, Note_on_c, 0, 65, 0
1, 56399, Note_on_c, 1, 50, 0
1, 56399, Note_on_c, 1, 46, 0
1, 56400, Note_on_c, 0, 70, 74
1, 56400, Note_on_c, 1, 50, 69
1, 56400, Note_on_c, 1, 46, 69
1, 56445, Note_on_c, 0, 70, 0
1, 56447, Note_on_c, 1, 50, 0
1, 56447, Note_on_c, 1, 46, 0
1, 56448, Note_on_c, 0, 67, 73
1, 56448, Note_on_c, 1, 51, 68
1, 56448, Note_on_c, 1, 46, 68
1, 56463, Note_on_c, 0, 67, 0
1, 56464, Note_on_c, 0, 69, 73
1, 56479, Note_on_c, 0, 69, 0
1, 56480, Note_on_c, 0, 67, 73
1, 56495, Note_on_c, 0, 67, 0
1, 56495, Note_on_c, 1, 51, 0
1, 56495, Note_on_c, 1, 46, 0
1, 56496, Note_on_c, 0, 72, 73
1, 56496, Note_on_c, 1, 51, 67
1, 56496, Note_on_c, 1, 46, 67
1, 56541, Note_on_c, 0, 72, 0
1, 56543, Note_on_c, 1, 51, 0
1, 56543, Note_on_c, 1, 46, 0
1, 56544, Note_on_c, 0, 70, 72
1, 56544, Note_on_c, 1, 48, 66
1, 56544, Note_on_c, 1, 46, 66
1, 56567, Note_on_c, 0, 70, 0
1, 56568, Note_on_c, 0, 69, 72
1, 56591, Note_on_c, 0, 69, 0
1, 56591, Note_on_c, 1, 48, 0
1, 56591, Note_on_c, 1, 46, 0
1, 56592, Note_on_c, 0, 67, 71
1, 56592, Note_on_c, 1, 48, 65
1, 56592, Note_on_c, 1, 46, 65
1, 56615, Note_on_c, 0, 67, 0
1, 56616, Note_on_c, 0, 69, 71
1, 56639, Note_on_c, 0, 69, 0
1, 56639, Note_on_c, 1, 48, 0
1, 56639, Note_on_c, 1, 46, 0
1, 56640, Note_on_c, 0, 70, 87
1, 56640, Note_on_c, 1, 50, 80
1, 56640, Note_on_c, 1, 46, 80
1, 56688, Note_on_c, 0, 70, 0
1, 56688, Note_on_c, 0, 70, 70
1, 56703, Note_on_c, 0, 70, 0
1, 56704, Note_on_c, 0, 72, 71
1, 56719, Note_on_c, 0, 72, 0
1, 56720, Note_on_c, 0, 74, 72
1, 56735, Note_on_c, 0, 74, 0
1, 56736, Note_on_c, 0, 70, 91
1, 56736, Note_on_c, 1, 50, 0
1, 56736, Note_on_c, 1, 46, 0
1, 56736, Note_on_c, 1, 58, 96
1, 56736, Note_on_c, 1, 53, 96
1, 56736, Note_on_c, 1, 50, 96
1, 56736, Note_on_c, 1, 46, 96
1, 56784, Note_on_c, 0, 70, 0
1, 56784, Note_on_c, 0, 70, 75
1, 56799, Note_on_c, 0, 70, 0
1, 56800, Note_on_c, 0, 72, 75
1, 56815, Note_on_c, 0, 72, 0
1, 56816, Note_on_c, 0, 74, 75
1, 56831, Note_on_c, 0, 74, 0
1, 56832, Note_on_c, 0, 65, 91
1, 56832, Note_on_c, 1, 58, 0
1, 56832, Note_on_c, 1, 53, 0
1, 56832, Note_on_c, 1, 50, 0
1, 56832, Note_on_c, 1, 46, 0
1, 56832, Note_on_c, 1, 58, 96
1, 56832, Note_on_c, 1, 53, 96
1, 56832, Note_on_c, 1, 50, 96
1, 56832, Note_on_c, 1, 46, 96
1, 56928, Note_on_c, 0, 65, 0
1, 56928, Note_on_c, 1, 58, 0
1, 56928, Note_on_c, 1, 53, 0
1, 56928, Note_on_c, 1, 50, 0
1, 56928, Note_on_c, 1, 46, 0
1, 56976, Note_on_c, 1, 46, 0
1, 57021, Note_on_c, 1, 46, 0
1, 57031, End_track
0, 0, End_of_file