0, 0, Header, 0, 1, 96
1, 0, Start_track
1, 0, Tempo, 413793
1, 0, Note_on_c, 1, 64, 64
1, 0, Note_on_c, 1, 60, 64
1, 47, Note_on_c, 1, 64, 0
1, 47, Note_on_c, 1, 60, 0
1, 48, Note_on_c, 0, 72, 75
1, 48, Note_on_c, 1, 64, 64
1, 48, Note_on_c, 1, 60, 64
1, 93, Note_on_c, 0, 72, 0
1, 95, Note_on_c, 1, 64, 0
1, 95, Note_on_c, 1, 60, 0
1, 96, Note_on_c, 0, 76, 75
1, 96, Note_on_c, 1, 64, 64
1, 96, Note_on_c, 1, 60, 64
1, 119, Note_on_c, 0, 76, 0
1, 120, Note_on_c, 0, 72, 75
1, 143, Note_on_c, 0, 72, 0
1, 143, Note_on_c, 1, 64, 0
1, 143, Note_on_c, 1, 60, 0
1, 144, Note_on_c, 0, 79, 76
1, 144, Note_on_c, 1, 64, 64
1, 144, Note_on_c, 1, 60, 64
1, 167, Note_on_c, 0, 79, 0
1, 168, Note_on_c, 0, 76, 77
1, 191, Note_on_c, 0, 76, 0
1, 191, Note_on_c, 1, 64, 0
1, 191, Note_on_c, 1, 60, 0
1, 192, Note_on_c, 0, 84, 77
1, 192, Note_on_c, 1, 64, 64
1, 192, Note_on_c, 1, 60, 64
1, 239, Note_on_c, 1, 64, 0
1, 239, Note_on_c, 1, 60, 0
1, 240, Note_on_c, 1, 64, 64
1, 240, Note_on_c, 1, 60, 64
1, 259, Note_on_c, 0, 84, 0
1, 264, Note_on_c, 0, 79, 80
1, 287, Note_on_c, 0, 79, 0
1, 287, Note_on_c, 1, 64, 0
1, 287, Note_on_c, 1, 60, 0
1, 288, Note_on_c, 0, 81, 79
1, 288, Note_on_c, 1, 64, 64
1, 288, Note_on_c, 1, 60, 64
1, 303, Note_on_c, 0, 81, 0
1, 304, Note_on_c, 0, 79, 78
1, 319, Note_on_c, 0, 79, 0
1, 320, Note_on_c, 0, 81, 78
1, 335, Note_on_c, 0, 81, 0
1, 335, Note_on_c, 1, 64, 0
1, 335, Note_on_c, 1, 60, 0
1, 336, Note_on_c, 0, 79, 77
1, 336, Note_on_c, 1, 64, 64
1, 336, Note_on_c, 1, 60, 64
1, 351, Note_on_c, 0, 79, 0
1, 352, Note_on_c, 0, 81, 77
1, 367, Note_on_c, 0, 81, 0
1, 368, Note_on_c, 0, 79, 76
1, 383, Note_on_c, 0, 79, 0
1, 383, Note_on_c, 1, 64, 0
1, 383, Note_on_c, 1, 60, 0
1, 384, Note_on_c, 1, 65, 64
1, 384, Note_on_c, 1, 60, 64
1, 431, Note_on_c, 1, 65, 0
1, 431, Note_on_c, 1, 60, 0
1, 432, Note_on_c, 0, 72, 75
1, 432, Note_on_c, 1, 65, 64
1, 432, Note_on_c, 1, 60, 64
1, 477, Note_on_c, 0, 72, 0
1, 479, Note_on_c, 1, 65, 0
1, 479, Note_on_c, 1, 60, 0
1, 480, Note_on_c, 0, 77, 77
1, 480, Note_on_c, 1, 65, 64
1, 480, Note_on_c, 1, 60, 64
1, 503, Note_on_c, 0, 77, 0
1, 504, Note_on_c, 0, 72, 78
1, 527, Note_on_c, 0, 72, 0
1, 527, Note_on_c, 1, 65, 0
1, 527, Note_on_c, 1, 60, 0
1, 528, Note_on_c, 0, 81, 79
1, 528, Note_on_c, 1, 65, 64
1, 528, Note_on_c, 1, 60, 64
1, 551, Note_on_c, 0, 81, 0
1, 552, Note_on_c, 0, 77, 80
1, 575, Note_on_c, 0, 77, 0
1, 575, Note_on_c, 1, 65, 0
1, 575, Note_on_c, 1, 60, 0
1, 576, Note_on_c, 0, 84, 79
1, 576, Note_on_c, 1, 65, 64
1, 576, Note_on_c, 1, 60, 64
1, 623, Note_on_c, 1, 65, 0
1, 623, Note_on_c, 1, 60, 0
1, 624, Note_on_c, 1, 65, 64
1, 624, Note_on_c, 1, 60, 64
1, 643, Note_on_c, 0, 84, 0
1, 648, Note_on_c, 0, 81, 76
1, 671, Note_on_c, 0, 81, 0
1, 671, Note_on_c, 1, 65, 0
1, 671, Note_on_c, 1, 60, 0
1, 672, Note_on_c, 0, 83, 75
1, 672, Note_on_c, 1, 65, 64
1, 672, Note_on_c, 1, 60, 64
1, 687, Note_on_c, 0, 83, 0
1, 688, Note_on_c, 0, 81, 75
1, 703, Note_on_c, 0, 81, 0
1, 704, Note_on_c, 0, 83, 75
1, 719, Note_on_c, 0, 83, 0
1, 719, Note_on_c, 1, 65, 0
1, 719, Note_on_c, 1, 60, 0
1, 720, Note_on_c, 0, 81, 75
1, 720, Note_on_c, 1, 65, 64
1, 720, Note_on_c, 1, 60, 64
1, 735, Note_on_c, 0, 81, 0
1, 736, Note_on_c, 0, 83, 75
1, 751, Note_on_c, 0, 83, 0
1, 752, Note_on_c, 0, 81, 75
1, 767, Note_on_c, 0, 81, 0
1, 767, Note_on_c, 1, 65, 0
1, 767, Note_on_c, 1, 60, 0
1, 768, Note_on_c, 1, 64, 64
1, 768, Note_on_c, 1, 60, 64
1, 815, Note_on_c, 1, 64, 0
1, 815, Note_on_c, 1, 60, 0
1, 816, Note_on_c, 0, 72, 75
1, 816, Note_on_c, 1, 64, 64
1, 816, Note_on_c, 1, 60, 64
1, 861, Note_on_c, 0, 72, 0
1, 863, Note_on_c, 1, 64, 0
1, 863, Note_on_c, 1, 60, 0
1, 864, Note_on_c, 0, 76, 76
1, 864, Note_on_c, 1, 64, 64
1, 864, Note_on_c, 1, 60, 64
1, 887, Note_on_c, 0, 76, 0
1, 888, Note_on_c, 0, 72, 76
1, 911, Note_on_c, 0, 72, 0
1, 911, Note_on_c, 1, 64, 0
1, 911, Note_on_c, 1, 60, 0
1, 912, Note_on_c, 0, 79, 77
1, 912, Note_on_c, 1, 64, 64
1, 912, Note_on_c, 1, 60, 64
1, 935, Note_on_c, 0, 79, 0
1, 936, Note_on_c, 0, 76, 77
1, 959, Note_on_c, 0, 76, 0
1, 959, Note_on_c, 1, 64, 0
1, 959, Note_on_c, 1, 60, 0
1, 960, Note_on_c, 0, 84, 78
1, 960, Note_on_c, 1, 64, 64
1, 960, Note_on_c, 1, 60, 64
1, 1007, Note_on_c, 1, 64, 0
1, 1007, Note_on_c, 1, 60, 0
1, 1008, Note_on_c, 1, 64, 64
1, 1008, Note_on_c, 1, 60, 64
1, 1027, Note_on_c, 0, 84, 0
1, 1032, Note_on_c, 0, 79, 80
1, 1055, Note_on_c, 0, 79, 0
1, 1055, Note_on_c, 1, 64, 0
1, 1055, Note_on_c, 1, 60, 0
1, 1056, Note_on_c, 0, 81, 79
1, 1056, Note_on_c, 1, 64, 64
1, 1056, Note_on_c, 1, 60, 64
1, 1071, Note_on_c, 0, 81, 0
1, 1072, Note_on_c, 0, 79, 78
1, 1087, Note_on_c, 0, 79, 0
1, 1088, Note_on_c, 0, 81, 78
1, 1103, Note_on_c, 0, 81, 0
1, 1103, Note_on_c, 1, 64, 0
1, 1103, Note_on_c, 1, 60, 0
1, 1104, Note_on_c, 0, 79, 77
1, 1104, Note_on_c, 1, 64, 64
1, 1104, Note_on_c, 1, 60, 64
1, 1119, Note_on_c, 0, 79, 0
1, 1120, Note_on_c, 0, 81, 77
1, 1135, Note_on_c, 0, 81, 0
1, 1136, Note_on_c, 0, 79, 76
1, 1151, Note_on_c, 0, 79, 0
1, 1151, Note_on_c, 1, 64, 0
1, 1151, Note_on_c, 1, 60, 0
1, 1152, Note_on_c, 0, 79, 75
1, 1152, Note_on_c, 1, 62, 70
1, 1152, Note_on_c, 1, 55, 75
1, 1175, Note_on_c, 0, 79, 0
1, 1176, Note_on_c, 0, 77, 75
1, 1197, Note_on_c, 1, 62, 0
1, 1199, Note_on_c, 0, 77, 0
1, 1200, Note_on_c, 0, 86, 75
1, 1200, Note_on_c, 1, 59, 70
1, 1223, Note_on_c, 0, 86, 0
1, 1224, Note_on_c, 0, 77, 75
1, 1245, Note_on_c, 1, 59, 0
1, 1247, Note_on_c, 0, 77, 0
1, 1248, Note_on_c, 0, 76, 75
1, 1248, Note_on_c, 1, 60, 70
1, 1293, Note_on_c, 0, 76, 0
1, 1293, Note_on_c, 1, 60, 0
1, 1296, Note_on_c, 0, 84, 75
1, 1296, Note_on_c, 1, 64, 70
1, 1329, Note_on_c, 1, 55, 0
1, 1341, Note_on_c, 0, 84, 0
1, 1341, Note_on_c, 1, 64, 0
1, 1344, Note_on_c, 0, 79, 70
1, 1344, Note_on_c, 1, 62, 70
1, 1344, Note_on_c, 1, 55, 75
1, 1367, Note_on_c, 0, 79, 0
1, 1368, Note_on_c, 0, 77, 70
1, 1389, Note_on_c, 1, 62, 0
1, 1391, Note_on_c, 0, 77, 0
1, 1392, Note_on_c, 0, 86, 70
1, 1392, Note_on_c, 1, 59, 70
1, 1415, Note_on_c, 0, 86, 0
1, 1416, Note_on_c, 0, 77, 70
1, 1437, Note_on_c, 1, 59, 0
1, 1439, Note_on_c, 0, 77, 0
1, 1440, Note_on_c, 0, 76, 70
1, 1440, Note_on_c, 1, 60, 70
1, 1485, Note_on_c, 0, 76, 0
1, 1485, Note_on_c, 1, 60, 0
1, 1488, Note_on_c, 0, 84, 70
1, 1488, Note_on_c, 1, 64, 70
1, 1521, Note_on_c, 1, 55, 0
1, 1533, Note_on_c, 0, 84, 0
1, 1533, Note_on_c, 1, 64, 0
1, 1536, Note_on_c, 1, 62, 75
1, 1536, Note_on_c, 1, 55, 75
1, 1560, Note_on_c, 0, 77, 75
1, 1583, Note_on_c, 0, 77, 0
1, 1584, Note_on_c, 0, 86, 75
1, 1607, Note_on_c, 0, 86, 0
1, 1608, Note_on_c, 0, 77, 75
1, 1625, Note_on_c, 1, 62, 0
1, 1625, Note_on_c, 1, 55, 0
1, 1631, Note_on_c, 0, 77, 0
1, 1632, Note_on_c, 1, 60, 75
1, 1632, Note_on_c, 1, 55, 75
1, 1656, Note_on_c, 0, 76, 75
1, 1679, Note_on_c, 0, 76, 0
1, 1680, Note_on_c, 0, 84, 75
1, 1703, Note_on_c, 0, 84, 0
1, 1704, Note_on_c, 0, 76, 75
1, 1721, Note_on_c, 1, 60, 0
1, 1721, Note_on_c, 1, 55, 0
1, 1727, Note_on_c, 0, 76, 0
1, 1728, Note_on_c, 0, 76, 75
1, 1728, Note_on_c, 1, 60, 75
1, 1728, Note_on_c, 1, 55, 75
1, 1740, Note_on_c, 0, 76, 0
1, 1740, Note_on_c, 0, 77, 75
1, 1752, Note_on_c, 0, 77, 0
1, 1752, Note_on_c, 0, 76, 75
1, 1773, Note_on_c, 0, 76, 0
1, 1773, Note_on_c, 1, 60, 0
1, 1776, Note_on_c, 0, 74, 75
1, 1776, Note_on_c, 1, 59, 75
1, 1817, Note_on_c, 1, 55, 0
1, 1821, Note_on_c, 0, 74, 0
1, 1821, Note_on_c, 1, 59, 0
1, 1872, Note_on_c, 0, 79, 70
1, 1917, Note_on_c, 0, 79, 0
1, 1920, Note_on_c, 0, 79, 70
1, 1943, Note_on_c, 0, 79, 0
1, 1944, Note_on_c, 0, 78, 70
1, 1967, Note_on_c, 0, 78, 0
1, 1968, Note_on_c, 0, 81, 70
1, 1991, Note_on_c, 0, 81, 0
1, 1992, Note_on_c, 0, 79, 70
1, 2015, Note_on_c, 0, 79, 0
1, 2016, Note_on_c, 0, 83, 70
1, 2039, Note_on_c, 0, 83, 0
1, 2040, Note_on_c, 0, 79, 70
1, 2063, Note_on_c, 0, 79, 0
1, 2064, Note_on_c, 0, 78, 70
1, 2087, Note_on_c, 0, 78, 0
1, 2088, Note_on_c, 0, 79, 70
1, 2111, Note_on_c, 0, 79, 0
1, 2112, Note_on_c, 0, 74, 75
1, 2112, Note_on_c, 1, 59, 80
1, 2112, Note_on_c, 1, 47, 80
1, 2135, Note_on_c, 0, 74, 0
1, 2136, Note_on_c, 0, 79, 75
1, 2157, Note_on_c, 1, 59, 0
1, 2157, Note_on_c, 1, 47, 0
1, 2159, Note_on_c, 0, 79, 0
1, 2160, Note_on_c, 0, 76, 75
1, 2160, Note_on_c, 1, 60, 80
1, 2160, Note_on_c, 1, 48, 80
1, 2183, Note_on_c, 0, 76, 0
1, 2184, Note_on_c, 0, 79, 75
1, 2205, Note_on_c, 1, 60, 0
1, 2205, Note_on_c, 1, 48, 0
1, 2207, Note_on_c, 0, 79, 0
1, 2208, Note_on_c, 0, 74, 75
1, 2208, Note_on_c, 1, 59, 80
1, 2208, Note_on_c, 1, 47, 80
1, 2253, Note_on_c, 0, 74, 0
1, 2253, Note_on_c, 1, 59, 0
1, 2253, Note_on_c, 1, 47, 0
1, 2256, Note_on_c, 0, 79, 70
1, 2301, Note_on_c, 0, 79, 0
1, 2304, Note_on_c, 0, 79, 70
1, 2327, Note_on_c, 0, 79, 0
1, 2328, Note_on_c, 0, 78, 70
1, 2351, Note_on_c, 0, 78, 0
1, 2352, Note_on_c, 0, 81, 70
1, 2375, Note_on_c, 0, 81, 0
1, 2376, Note_on_c, 0, 79, 70
1, 2399, Note_on_c, 0, 79, 0
1, 2400, Note_on_c, 0, 83, 70
1, 2423, Note_on_c, 0, 83, 0
1, 2424, Note_on_c, 0, 79, 70
1, 2447, Note_on_c, 0, 79, 0
1, 2448, Note_on_c, 0, 78, 70
1, 2471, Note_on_c, 0, 78, 0
1, 2472, Note_on_c, 0, 79, 70
1, 2495, Note_on_c, 0, 79, 0
1, 2496, Note_on_c, 0, 74, 75
1, 2496, Note_on_c, 1, 59, 80
1, 2519, Note_on_c, 0, 74, 0
1, 2520, Note_on_c, 0, 79, 75
1, 2541, Note_on_c, 1, 59, 0
1, 2543, Note_on_c, 0, 79, 0
1, 2544, Note_on_c, 0, 72, 75
1, 2544, Note_on_c, 1, 57, 80
1, 2567, Note_on_c, 0, 72, 0
1, 2568, Note_on_c, 0, 79, 75
1, 2589, Note_on_c, 1, 57, 0
1, 2591, Note_on_c, 0, 79, 0
1, 2592, Note_on_c, 0, 71, 75
1, 2592, Note_on_c, 1, 55, 80
1, 2637, Note_on_c, 0, 71, 0
1, 2637, Note_on_c, 1, 55, 0
1, 2640, Note_on_c, 0, 74, 75
1, 2640, Note_on_c, 1, 47, 80
1, 2663, Note_on_c, 0, 74, 0
1, 2664, Note_on_c, 0, 79, 75
1, 2685, Note_on_c, 1, 47, 0
1, 2687, Note_on_c, 0, 79, 0
1, 2688, Note_on_c, 0, 76, 75
1, 2688, Note_on_c, 1, 48, 80
1, 2711, Note_on_c, 0, 76, 0
1, 2712, Note_on_c, 0, 79, 76
1, 2733, Note_on_c, 1, 48, 0
1, 2735, Note_on_c, 0, 79, 0
1, 2736, Note_on_c, 0, 74, 76
1, 2736, Note_on_c, 1, 50, 80
1, 2759, Note_on_c, 0, 74, 0
1, 2760, Note_on_c, 0, 79, 76
1, 2781, Note_on_c, 1, 50, 0
1, 2783, Note_on_c, 0, 79, 0
1, 2784, Note_on_c, 0, 72, 76
1, 2784, Note_on_c, 1, 52, 81
1, 2807, Note_on_c, 0, 72, 0
1, 2808, Note_on_c, 0, 76, 77
1, 2829, Note_on_c, 1, 52, 0
1, 2831, Note_on_c, 0, 76, 0
1, 2832, Note_on_c, 0, 81, 77
1, 2832, Note_on_c, 1, 49, 81
1, 2855, Note_on_c, 0, 81, 0
1, 2856, Note_on_c, 0, 79, 77
1, 2877, Note_on_c, 1, 49, 0
1, 2879, Note_on_c, 0, 79, 0
1, 2880, Note_on_c, 0, 78, 77
1, 2880, Note_on_c, 1, 50, 81
1, 2903, Note_on_c, 0, 78, 0
1, 2904, Note_on_c, 0, 81, 77
1, 2925, Note_on_c, 1, 50, 0
1, 2927, Note_on_c, 0, 81, 0
1, 2928, Note_on_c, 0, 76, 78
1, 2928, Note_on_c, 1, 52, 81
1, 2951, Note_on_c, 0, 76, 0
1, 2952, Note_on_c, 0, 81, 78
1, 2973, Note_on_c, 1, 52, 0
1, 2975, Note_on_c, 0, 81, 0
1, 2976, Note_on_c, 0, 74, 78
1, 2976, Note_on_c, 1, 54, 82
1, 2999, Note_on_c, 0, 74, 0
1, 3000, Note_on_c, 0, 78, 78
1, 3021, Note_on_c, 1, 54, 0
1, 3023, Note_on_c, 0, 78, 0
1, 3024, Note_on_c, 0, 83, 79
1, 3024, Note_on_c, 1, 51, 82
1, 3047, Note_on_c, 0, 83, 0
1, 3048, Note_on_c, 0, 81, 79
1, 3069, Note_on_c, 1, 51, 0
1, 3071, Note_on_c, 0, 81, 0
1, 3072, Note_on_c, 0, 79, 79
1, 3072, Note_on_c, 1, 52, 82
1, 3095, Note_on_c, 0, 79, 0
1, 3096, Note_on_c, 0, 83, 79
1, 3117, Note_on_c, 1, 52, 0
1, 3119, Note_on_c, 0, 83, 0
1, 3120, Note_on_c, 0, 78, 80
1, 3120, Note_on_c, 1, 54, 82
1, 3143, Note_on_c, 0, 78, 0
1, 3144, Note_on_c, 0, 83, 80
1, 3165, Note_on_c, 1, 54, 0
1, 3167, Note_on_c, 0, 83, 0
1, 3168, Note_on_c, 0, 76, 80
1, 3168, Note_on_c, 1, 55, 83
1, 3191, Note_on_c, 0, 76, 0
1, 3192, Note_on_c, 0, 79, 80
1, 3213, Note_on_c, 1, 55, 0
1, 3215, Note_on_c, 0, 79, 0
1, 3216, Note_on_c, 0, 84, 80
1, 3216, Note_on_c, 1, 52, 83
1, 3239, Note_on_c, 0, 84, 0
1, 3240, Note_on_c, 0, 83, 81
1, 3261, Note_on_c, 1, 52, 0
1, 3263, Note_on_c, 0, 83, 0
1, 3264, Note_on_c, 0, 81, 81
1, 3264, Note_on_c, 1, 54, 83
1, 3287, Note_on_c, 0, 81, 0
1, 3288, Note_on_c, 0, 84, 81
1, 3309, Note_on_c, 1, 54, 0
1, 3311, Note_on_c, 0, 84, 0
1, 3312, Note_on_c, 0, 79, 81
1, 3312, Note_on_c, 1, 55, 83
1, 3335, Note_on_c, 0, 79, 0
1, 3336, Note_on_c, 0, 84, 82
1, 3357, Note_on_c, 1, 55, 0
1, 3359, Note_on_c, 0, 84, 0
1, 3360, Note_on_c, 0, 78, 82
1, 3360, Note_on_c, 1, 57, 84
1, 3383, Note_on_c, 0, 78, 0
1, 3384, Note_on_c, 0, 81, 82
1, 3405, Note_on_c, 1, 57, 0
1, 3407, Note_on_c, 0, 81, 0
1, 3408, Note_on_c, 0, 86, 82
1, 3408, Note_on_c, 1, 54, 84
1, 3431, Note_on_c, 0, 86, 0
1, 3432, Note_on_c, 0, 84, 83
1, 3453, Note_on_c, 1, 54, 0
1, 3455, Note_on_c, 0, 84, 0
1, 3456, Note_on_c, 0, 83, 83
1, 3456, Note_on_c, 1, 55, 84
1, 3479, Note_on_c, 0, 83, 0
1, 3480, Note_on_c, 0, 86, 83
1, 3501, Note_on_c, 1, 55, 0
1, 3503, Note_on_c, 0, 86, 0
1, 3504, Note_on_c, 0, 79, 83
1, 3504, Note_on_c, 1, 59, 84
1, 3527, Note_on_c, 0, 79, 0
1, 3528, Note_on_c, 0, 81, 83
1, 3549, Note_on_c, 1, 59, 0
1, 3551, Note_on_c, 0, 81, 0
1, 3552, Note_on_c, 0, 83, 84
1, 3552, Note_on_c, 1, 60, 85
1, 3567, Note_on_c, 0, 83, 0
1, 3568, Note_on_c, 0, 81, 84
1, 3583, Note_on_c, 0, 81, 0
1, 3584, Note_on_c, 0, 83, 84
1, 3597, Note_on_c, 1, 60, 0
1, 3599, Note_on_c, 0, 83, 0
1, 3600, Note_on_c, 0, 81, 84
1, 3600, Note_on_c, 1, 62, 85
1, 3615, Note_on_c, 0, 81, 0
1, 3616, Note_on_c, 0, 79, 84
1, 3631, Note_on_c, 0, 79, 0
1, 3632, Note_on_c, 0, 81, 84
1, 3645, Note_on_c, 1, 62, 0
1, 3647, Note_on_c, 0, 81, 0
1, 3648, Note_on_c, 0, 79, 84
1, 3648, Note_on_c, 1, 55, 85
1, 3693, Note_on_c, 1, 55, 0
1, 3696, Note_on_c, 1, 50, 86
1, 3737, Note_on_c, 0, 79, 0
1, 3741, Note_on_c, 1, 50, 0
1, 3744, Note_on_c, 1, 43, 86
1, 3792, Note_on_c, 0, 74, 70
1, 3792, Note_on_c, 0, 70, 70
1, 3833, Note_on_c, 1, 43, 0
1, 3840, Note_on_c, 0, 74, 0
1, 3840, Note_on_c, 0, 70, 0
1, 3840, Note_on_c, 0, 75, 70
1, 3840, Note_on_c, 0, 72, 70
1, 3885, Note_on_c, 0, 75, 0
1, 3885, Note_on_c, 0, 72, 0
1, 3888, Note_on_c, 1, 55, 70
1, 3888, Note_on_c, 1, 43, 70
1, 3936, Note_on_c, 1, 55, 0
1, 3936, Note_on_c, 1, 43, 0
1, 3936, Note_on_c, 1, 57, 70
1, 3936, Note_on_c, 1, 45, 70
1, 3981, Note_on_c, 1, 57, 0
1, 3981, Note_on_c, 1, 45, 0
1, 3984, Note_on_c, 0, 74, 70
1, 3984, Note_on_c, 0, 70, 70
1, 4032, Note_on_c, 0, 74, 0
1, 4032, Note_on_c, 0, 70, 0
1, 4032, Note_on_c, 0, 72, 70
1, 4032, Note_on_c, 0, 69, 70
1, 4077, Note_on_c, 0, 72, 0
1, 4077, Note_on_c, 0, 69, 0
1, 4080, Note_on_c, 1, 55, 70
1, 4080, Note_on_c, 1, 43, 70
1, 4128, Note_on_c, 1, 55, 0
1, 4128, Note_on_c, 1, 43, 0
1, 4128, Note_on_c, 1, 54, 70
1, 4128, Note_on_c, 1, 42, 70
1, 4173, Note_on_c, 1, 54, 0
1, 4173, Note_on_c, 1, 42, 0
1, 4176, Note_on_c, 0, 72, 70
1, 4176, Note_on_c, 0, 69, 70
1, 4224, Note_on_c, 0, 72, 0
1, 4224, Note_on_c, 0, 69, 0
1, 4224, Note_on_c, 0, 74, 70
1, 4224, Note_on_c, 0, 70, 70
1, 4269, Note_on_c, 0, 74, 0
1, 4269, Note_on_c, 0, 70, 0
1, 4272, Note_on_c, 1, 54, 70
1, 4272, Note_on_c, 1, 42, 70
1, 4320, Note_on_c, 1, 54, 0
1, 4320, Note_on_c, 1, 42, 0
1, 4320, Note_on_c, 1, 55, 70
1, 4320, Note_on_c, 1, 43, 70
1, 4365, Note_on_c, 1, 55, 0
1, 4365, Note_on_c, 1, 43, 0
1, 4368, Note_on_c, 0, 72, 70
1, 4368, Note_on_c, 0, 69, 70
1, 4416, Note_on_c, 0, 72, 0
1, 4416, Note_on_c, 0, 69, 0
1, 4416, Note_on_c, 0, 70, 70
1, 4416, Note_on_c, 0, 67, 70
1, 4461, Note_on_c, 0, 70, 0
1, 4461, Note_on_c, 0, 67, 0
1, 4464, Note_on_c, 1, 53, 70
1, 4464, Note_on_c, 1, 41, 70
1, 4512, Note_on_c, 1, 53, 0
1, 4512, Note_on_c, 1, 41, 0
1, 4512, Note_on_c, 1, 51, 70
1, 4512, Note_on_c, 1, 39, 70
1, 4557, Note_on_c, 1, 51, 0
1, 4557, Note_on_c, 1, 39, 0
1, 4560, Note_on_c, 0, 69, 70
1, 4560, Note_on_c, 0, 66, 70
1, 4608, Note_on_c, 0, 69, 0
1, 4608, Note_on_c, 0, 66, 0
1, 4608, Note_on_c, 0, 70, 69
1, 4608, Note_on_c, 0, 67, 69
1, 4653, Note_on_c, 0, 70, 0
1, 4653, Note_on_c, 0, 67, 0
1, 4656, Note_on_c, 1, 50, 68
1, 4656, Note_on_c, 1, 38, 68
1, 4704, Note_on_c, 1, 50, 0
1, 4704, Note_on_c, 1, 38, 0
1, 4704, Note_on_c, 1, 49, 67
1, 4704, Note_on_c, 1, 37, 67
1, 4749, Note_on_c, 1, 49, 0
1, 4749, Note_on_c, 1, 37, 0
1, 4752, Note_on_c, 0, 70, 66
1, 4752, Note_on_c, 0, 67, 66
1, 4752, Note_on_c, 1, 49, 66
1, 4752, Note_on_c, 1, 37, 66
1, 4772, Note_on_c, 1, 49, 0
1, 4772, Note_on_c, 1, 37, 0
1, 4797, Note_on_c, 0, 70, 0
1, 4797, Note_on_c, 0, 67, 0
1, 4800, Note_on_c, 0, 70, 65
1, 4800, Note_on_c, 0, 67, 64
1, 4800, Note_on_c, 1, 50, 65
1, 4800, Note_on_c, 1, 38, 65
1, 4812, Note_on_c, 0, 70, 0
1, 4812, Note_on_c, 0, 72, 65
1, 4824, Note_on_c, 0, 72, 0
1, 4824, Note_on_c, 0, 70, 65
1, 4845, Note_on_c, 0, 70, 0
1, 4848, Note_on_c, 0, 69, 64
1, 4848, Note_on_c, 0, 67, 0
1, 4848, Note_on_c, 0, 66, 64
1, 4889, Note_on_c, 1, 50, 0
1, 4889, Note_on_c, 1, 38, 0
1, 4893, Note_on_c, 0, 69, 0
1, 4893, Note_on_c, 0, 66, 0
1, 4944, Note_on_c, 0, 79, 75
1, 4959, Note_on_c, 0, 79, 0
1, 4960, Note_on_c, 0, 81, 75
1, 4975, Note_on_c, 0, 81, 0
1, 4976, Note_on_c, 0, 83, 75
1, 4991, Note_on_c, 0, 83, 0
1, 4992, Note_on_c, 0, 79, 75
1, 4992, Note_on_c, 1, 59, 75
1, 4992, Note_on_c, 1, 55, 75
1, 5037, Note_on_c, 0, 79, 0
1, 5040, Note_on_c, 0, 74, 75
1, 5055, Note_on_c, 0, 74, 0
1, 5056, Note_on_c, 0, 76, 75
1, 5071, Note_on_c, 0, 76, 0
1, 5072, Note_on_c, 0, 78, 75
1, 5081, Note_on_c, 1, 59, 0
1, 5081, Note_on_c, 1, 55, 0
1, 5087, Note_on_c, 0, 78, 0
1, 5088, Note_on_c, 0, 79, 75
1, 5133, Note_on_c, 0, 79, 0
1, 5136, Note_on_c, 0, 71, 75
1, 5151, Note_on_c, 0, 71, 0
1, 5152, Note_on_c, 0, 72, 75
1, 5167, Note_on_c, 0, 72, 0
1, 5168, Note_on_c, 0, 74, 75
1, 5183, Note_on_c, 0, 74, 0
1, 5184, Note_on_c, 0, 71, 75
1, 5229, Note_on_c, 0, 71, 0
1, 5232, Note_on_c, 0, 67, 75
1, 5247, Note_on_c, 0, 67, 0
1, 5248, Note_on_c, 0, 69, 75
1, 5263, Note_on_c, 0, 69, 0
1, 5264, Note_on_c, 0, 71, 75
1, 5279, Note_on_c, 0, 71, 0
1, 5280, Note_on_c, 0, 67, 75
1, 5325, Note_on_c, 0, 67, 0
1, 5328, Note_on_c, 0, 74, 75
1, 5328, Note_on_c, 1, 59, 75
1, 5328, Note_on_c, 1, 55, 75
1, 5373, Note_on_c, 0, 74, 0
1, 5373, Note_on_c, 1, 59, 0
1, 5373, Note_on_c, 1, 55, 0
1, 5376, Note_on_c, 0, 64, 75
1, 5376, Note_on_c, 1, 60, 75
1, 5376, Note_on_c, 1, 48, 75
1, 5376, Note_on_c, 1, 48, 75
1, 5421, Note_on_c, 0, 64, 0
1, 5424, Note_on_c, 0, 72, 75
1, 5439, Note_on_c, 0, 72, 0
1, 5440, Note_on_c, 0, 71, 75
1, 5455, Note_on_c, 0, 71, 0
1, 5456, Note_on_c, 0, 69, 75
1, 5465, Note_on_c, 1, 60, 0
1, 5465, Note_on_c, 1, 48, 0
1, 5465, Note_on_c, 1, 48, 0
1, 5471, Note_on_c, 0, 69, 0
1, 5472, Note_on_c, 0, 67, 75
1, 5472, Note_on_c, 1, 59, 75
1, 5472, Note_on_c, 1, 50, 75
1, 5517, Note_on_c, 0, 67, 0
1, 5517, Note_on_c, 1, 59, 0
1, 5520, Note_on_c, 0, 66, 75
1, 5520, Note_on_c, 1, 57, 75
1, 5532, Note_on_c, 0, 66, 0
1, 5532, Note_on_c, 0, 67, 75
1, 5544, Note_on_c, 0, 67, 0
1, 5544, Note_on_c, 0, 66, 75
1, 5561, Note_on_c, 1, 50, 0
1, 5565, Note_on_c, 0, 66, 0
1, 5565, Note_on_c, 1, 57, 0
1, 5568, Note_on_c, 0, 67, 75
1, 5568, Note_on_c, 1, 55, 75
1, 5613, Note_on_c, 1, 55, 0
1, 5616, Note_on_c, 1, 50, 75
1, 5657, Note_on_c, 0, 67, 0
1, 5661, Note_on_c, 1, 50, 0
1, 5664, Note_on_c, 1, 43, 75
1, 5712, Note_on_c, 0, 79, 75
1, 5727, Note_on_c, 0, 79, 0
1, 5728, Note_on_c, 0, 81, 75
1, 5743, Note_on_c, 0, 81, 0
1, 5744, Note_on_c, 0, 83, 75
1, 5753, Note_on_c, 1, 43, 0
1, 5759, Note_on_c, 0, 83, 0
1, 5760, Note_on_c, 0, 79, 75
1, 5760, Note_on_c, 1, 59, 75
1, 5760, Note_on_c, 1, 55, 75
1, 5805, Note_on_c, 0, 79, 0
1, 5808, Note_on_c, 0, 74, 75
1, 5823, Note_on_c, 0, 74, 0
1, 5824, Note_on_c, 0, 76, 75
1, 5839, Note_on_c, 0, 76, 0
1, 5840, Note_on_c, 0, 78, 75
1, 5849, Note_on_c, 1, 59, 0
1, 5849, Note_on_c, 1, 55, 0
1, 5855, Note_on_c, 0, 78, 0
1, 5856, Note_on_c, 0, 79, 75
1, 5901, Note_on_c, 0, 79, 0
1, 5904, Note_on_c, 0, 71, 75
1, 5919, Note_on_c, 0, 71, 0
1, 5920, Note_on_c, 0, 72, 75
1, 5935, Note_on_c, 0, 72, 0
1, 5936, Note_on_c, 0, 74, 75
1, 5951, Note_on_c, 0, 74, 0
1, 5952, Note_on_c, 0, 71, 75
1, 5997, Note_on_c, 0, 71, 0
1, 6000, Note_on_c, 0, 74, 80
1, 6000, Note_on_c, 1, 59, 80
1, 6000, Note_on_c, 1, 47, 80
1, 6023, Note_on_c, 0, 74, 0
1, 6024, Note_on_c, 0, 86, 80
1, 6045, Note_on_c, 1, 59, 0
1, 6045, Note_on_c, 1, 47, 0
1, 6047, Note_on_c, 0, 86, 0
1, 6048, Note_on_c, 0, 74, 80
1, 6048, Note_on_c, 1, 59, 80
1, 6048, Note_on_c, 1, 47, 80
1, 6071, Note_on_c, 0, 74, 0
1, 6072, Note_on_c, 0, 86, 80
1, 6093, Note_on_c, 1, 59, 0
1, 6093, Note_on_c, 1, 47, 0
1, 6095, Note_on_c, 0, 86, 0
1, 6096, Note_on_c, 0, 74, 80
1, 6096, Note_on_c, 1, 59, 80
1, 6096, Note_on_c, 1, 47, 80
1, 6119, Note_on_c, 0, 74, 0
1, 6120, Note_on_c, 0, 86, 80
1, 6141, Note_on_c, 1, 59, 0
1, 6141, Note_on_c, 1, 47, 0
1, 6143, Note_on_c, 0, 86, 0
1, 6144, Note_on_c, 0, 76, 80
1, 6144, Note_on_c, 1, 60, 80
1, 6144, Note_on_c, 1, 48, 80
1, 6167, Note_on_c, 0, 76, 0
1, 6168, Note_on_c, 0, 86, 80
1, 6189, Note_on_c, 1, 60, 0
1, 6189, Note_on_c, 1, 48, 0
1, 6191, Note_on_c, 0, 86, 0
1, 6192, Note_on_c, 0, 76, 80
1, 6192, Note_on_c, 1, 60, 80
1, 6192, Note_on_c, 1, 48, 80
1, 6215, Note_on_c, 0, 76, 0
1, 6216, Note_on_c, 0, 86, 80
1, 6237, Note_on_c, 1, 60, 0
1, 6237, Note_on_c, 1, 48, 0
1, 6239, Note_on_c, 0, 86, 0
1, 6240, Note_on_c, 0, 76, 80
1, 6240, Note_on_c, 1, 57, 80
1, 6240, Note_on_c, 1, 45, 80
1, 6263, Note_on_c, 0, 76, 0
1, 6264, Note_on_c, 0, 84, 80
1, 6285, Note_on_c, 1, 57, 0
1, 6285, Note_on_c, 1, 45, 0
1, 6287, Note_on_c, 0, 84, 0
1, 6288, Note_on_c, 0, 76, 80
1, 6288, Note_on_c, 1, 57, 80
1, 6288, Note_on_c, 1, 45, 80
1, 6311, Note_on_c, 0, 76, 0
1, 6312, Note_on_c, 0, 84, 80
1, 6333, Note_on_c, 1, 57, 0
1, 6333, Note_on_c, 1, 45, 0
1, 6335, Note_on_c, 0, 84, 0
1, 6336, Note_on_c, 0, 74, 80
1, 6336, Note_on_c, 1, 54, 80
1, 6336, Note_on_c, 1, 42, 80
1, 6359, Note_on_c, 0, 74, 0
1, 6360, Note_on_c, 0, 84, 80
1, 6381, Note_on_c, 1, 54, 0
1, 6381, Note_on_c, 1, 42, 0
1, 6383, Note_on_c, 0, 84, 0
1, 6384, Note_on_c, 0, 74, 80
1, 6384, Note_on_c, 1, 54, 80
1, 6384, Note_on_c, 1, 42, 80
1, 6407, Note_on_c, 0, 74, 0
1, 6408, Note_on_c, 0, 84, 80
1, 6429, Note_on_c, 1, 54, 0
1, 6429, Note_on_c, 1, 42, 0
1, 6431, Note_on_c, 0, 84, 0
1, 6432, Note_on_c, 0, 74, 80
1, 6432, Note_on_c, 1, 55, 80
1, 6432, Note_on_c, 1, 43, 80
1, 6455, Note_on_c, 0, 74, 0
1, 6456, Note_on_c, 0, 83, 80
1, 6477, Note_on_c, 1, 55, 0
1, 6477, Note_on_c, 1, 43, 0
1, 6479, Note_on_c, 0, 83, 0
1, 6480, Note_on_c, 0, 74, 80
1, 6480, Note_on_c, 1, 55, 80
1, 6480, Note_on_c, 1, 43, 80
1, 6503, Note_on_c, 0, 74, 0
1, 6504, Note_on_c, 0, 83, 80
1, 6525, Note_on_c, 1, 55, 0
1, 6525, Note_on_c, 1, 43, 0
1, 6527, Note_on_c, 0, 83, 0
1, 6528, Note_on_c, 0, 72, 80
1, 6528, Note_on_c, 1, 48, 80
1, 6528, Note_on_c, 1, 36, 80
1, 6551, Note_on_c, 0, 72, 0
1, 6552, Note_on_c, 0, 81, 80
1, 6573, Note_on_c, 1, 48, 0
1, 6573, Note_on_c, 1, 36, 0
1, 6575, Note_on_c, 0, 81, 0
1, 6576, Note_on_c, 0, 72, 80
1, 6576, Note_on_c, 1, 48, 80
1, 6576, Note_on_c, 1, 36, 80
1, 6599, Note_on_c, 0, 72, 0
1, 6600, Note_on_c, 0, 81, 80
1, 6621, Note_on_c, 1, 48, 0
1, 6621, Note_on_c, 1, 36, 0
1, 6623, Note_on_c, 0, 81, 0
1, 6624, Note_on_c, 0, 69, 80
1, 6624, Note_on_c, 1, 50, 80
1, 6624, Note_on_c, 1, 38, 80
1, 6647, Note_on_c, 0, 69, 0
1, 6648, Note_on_c, 0, 78, 80
1, 6669, Note_on_c, 1, 50, 0
1, 6669, Note_on_c, 1, 38, 0
1, 6671, Note_on_c, 0, 78, 0
1, 6672, Note_on_c, 0, 69, 80
1, 6672, Note_on_c, 1, 50, 80
1, 6672, Note_on_c, 1, 38, 80
1, 6695, Note_on_c, 0, 69, 0
1, 6696, Note_on_c, 0, 78, 80
1, 6717, Note_on_c, 1, 50, 0
1, 6717, Note_on_c, 1, 38, 0
1, 6719, Note_on_c, 0, 78, 0
1, 6720, Note_on_c, 0, 79, 80
1, 6720, Note_on_c, 0, 71, 80
1, 6720, Note_on_c, 1, 55, 80
1, 6765, Note_on_c, 1, 55, 0
1, 6768, Note_on_c, 1, 50, 80
1, 6809, Note_on_c, 0, 79, 0
1, 6809, Note_on_c, 0, 71, 0
1, 6813, Note_on_c, 1, 50, 0
1, 6816, Note_on_c, 1, 43, 80
1, 6905, Note_on_c, 1, 43, 0
1, 6912, Note_on_c, 1, 64, 64
1, 6912, Note_on_c, 1, 60, 64
1, 6959, Note_on_c, 1, 64, 0
1, 6959, Note_on_c, 1, 60, 0
1, 6960, Note_on_c, 0, 72, 75
1, 6960, Note_on_c, 1, 64, 64
1, 6960, Note_on_c, 1, 60, 64
1, 7005, Note_on_c, 0, 72, 0
1, 7007, Note_on_c, 1, 64, 0
1, 7007, Note_on_c, 1, 60, 0
1, 7008, Note_on_c, 0, 76, 75
1, 7008, Note_on_c, 1, 64, 64
1, 7008, Note_on_c, 1, 60, 64
1, 7031, Note_on_c, 0, 76, 0
1, 7032, Note_on_c, 0, 72, 75
1, 7055, Note_on_c, 0, 72, 0
1, 7055, Note_on_c, 1, 64, 0
1, 7055, Note_on_c, 1, 60, 0
1, 7056, Note_on_c, 0, 79, 76
1, 7056, Note_on_c, 1, 64, 64
1, 7056, Note_on_c, 1, 60, 64
1, 7079, Note_on_c, 0, 79, 0
1, 7080, Note_on_c, 0, 76, 77
1, 7103, Note_on_c, 0, 76, 0
1, 7103, Note_on_c, 1, 64, 0
1, 7103, Note_on_c, 1, 60, 0
1, 7104, Note_on_c, 0, 84, 77
1, 7104, Note_on_c, 1, 64, 64
1, 7104, Note_on_c, 1, 60, 64
1, 7151, Note_on_c, 1, 64, 0
1, 7151, Note_on_c, 1, 60, 0
1, 7152, Note_on_c, 1, 64, 64
1, 7152, Note_on_c, 1, 60, 64
1, 7171, Note_on_c, 0, 84, 0
1, 7176, Note_on_c, 0, 79, 80
1, 7199, Note_on_c, 0, 79, 0
1, 7199, Note_on_c, 1, 64, 0
1, 7199, Note_on_c, 1, 60, 0
1, 7200, Note_on_c, 0, 81, 79
1, 7200, Note_on_c, 1, 64, 64
1, 7200, Note_on_c, 1, 60, 64
1, 7215, Note_on_c, 0, 81, 0
1, 7216, Note_on_c, 0, 79, 78
1, 7231, Note_on_c, 0, 79, 0
1, 7232, Note_on_c, 0, 81, 78
1, 7247, Note_on_c, 0, 81, 0
1, 7247, Note_on_c, 1, 64, 0
1, 7247, Note_on_c, 1, 60, 0
1, 7248, Note_on_c, 0, 79, 77
1, 7248, Note_on_c, 1, 64, 64
1, 7248, Note_on_c, 1, 60, 64
1, 7263, Note_on_c, 0, 79, 0
1, 7264, Note_on_c, 0, 81, 77
1, 7279, Note_on_c, 0, 81, 0
1, 7280, Note_on_c, 0, 79, 76
1, 7295, Note_on_c, 0, 79, 0
1, 7295, Note_on_c, 1, 64, 0
1, 7295, Note_on_c, 1, 60, 0
1, 7296, Note_on_c, 1, 65, 64
1, 7296, Note_on_c, 1, 60, 64
1, 7343, Note_on_c, 1, 65, 0
1, 7343, Note_on_c, 1, 60, 0
1, 7344, Note_on_c, 0, 72, 75
1, 7344, Note_on_c, 1, 65, 64
1, 7344, Note_on_c, 1, 60, 64
1, 7389, Note_on_c, 0, 72, 0
1, 7391, Note_on_c, 1, 65, 0
1, 7391, Note_on_c, 1, 60, 0
1, 7392, Note_on_c, 0, 77, 77
1, 7392, Note_on_c, 1, 65, 64
1, 7392, Note_on_c, 1, 60, 64
1, 7415, Note_on_c, 0, 77, 0
1, 7416, Note_on_c, 0, 72, 78
1, 7439, Note_on_c, 0, 72, 0
1, 7439, Note_on_c, 1, 65, 0
1, 7439, Note_on_c, 1, 60, 0
1, 7440, Note_on_c, 0, 81, 79
1, 7440, Note_on_c, 1, 65, 64
1, 7440, Note_on_c, 1, 60, 64
1, 7463, Note_on_c, 0, 81, 0
1, 7464, Note_on_c, 0, 77, 80
1, 7487, Note_on_c, 0, 77, 0
1, 7487, Note_on_c, 1, 65, 0
1, 7487, Note_on_c, 1, 60, 0
1, 7488, Note_on_c, 0, 84, 79
1, 7488, Note_on_c, 1, 65, 64
1, 7488, Note_on_c, 1, 60, 64
1, 7535, Note_on_c, 1, 65, 0
1, 7535, Note_on_c, 1, 60, 0
1, 7536, Note_on_c, 1, 65, 64
1, 7536, Note_on_c, 1, 60, 64
1, 7555, Note_on_c, 0, 84, 0
1, 7560, Note_on_c, 0, 81, 76
1, 7583, Note_on_c, 0, 81, 0
1, 7583, Note_on_c, 1, 65, 0
1, 7583, Note_on_c, 1, 60, 0
1, 7584, Note_on_c, 0, 83, 75
1, 7584, Note_on_c, 1, 65, 64
1, 7584, Note_on_c, 1, 60, 64
1, 7599, Note_on_c, 0, 83, 0
1, 7600, Note_on_c, 0, 81, 75
1, 7615, Note_on_c, 0, 81, 0
1, 7616, Note_on_c, 0, 83, 75
1, 7631, Note_on_c, 0, 83, 0
1, 7631, Note_on_c, 1, 65, 0
1, 7631, Note_on_c, 1, 60, 0
1, 7632, Note_on_c, 0, 81, 75
1, 7632, Note_on_c, 1, 65, 64
1, 7632, Note_on_c, 1, 60, 64
1, 7647, Note_on_c, 0, 81, 0
1, 7648, Note_on_c, 0, 83, 75
1, 7663, Note_on_c, 0, 83, 0
1, 7664, Note_on_c, 0, 81, 75
1, 7679, Note_on_c, 0, 81, 0
1, 7679, Note_on_c, 1, 65, 0
1, 7679, Note_on_c, 1, 60, 0
1, 7680, Note_on_c, 1, 64, 64
1, 7680, Note_on_c, 1, 60, 64
1, 7727, Note_on_c, 1, 64, 0
1, 7727, Note_on_c, 1, 60, 0
1, 7728, Note_on_c, 0, 72, 75
1, 7728, Note_on_c, 1, 64, 64
1, 7728, Note_on_c, 1, 60, 64
1, 7773, Note_on_c, 0, 72, 0
1, 7775, Note_on_c, 1, 64, 0
1, 7775, Note_on_c, 1, 60, 0
1, 7776, Note_on_c, 0, 76, 76
1, 7776, Note_on_c, 1, 64, 64
1, 7776, Note_on_c, 1, 60, 64
1, 7799, Note_on_c, 0, 76, 0
1, 7800, Note_on_c, 0, 72, 76
1, 7823, Note_on_c, 0, 72, 0
1, 7823, Note_on_c, 1, 64, 0
1, 7823, Note_on_c, 1, 60, 0
1, 7824, Note_on_c, 0, 79, 77
1, 7824, Note_on_c, 1, 64, 64
1, 7824, Note_on_c, 1, 60, 64
1, 7847, Note_on_c, 0, 79, 0
1, 7848, Note_on_c, 0, 76, 77
1, 7871, Note_on_c, 0, 76, 0
1, 7871, Note_on_c, 1, 64, 0
1, 7871, Note_on_c, 1, 60, 0
1, 7872, Note_on_c, 0, 84, 78
1, 7872, Note_on_c, 1, 64, 64
1, 7872, Note_on_c, 1, 60, 64
1, 7919, Note_on_c, 1, 64, 0
1, 7919, Note_on_c, 1, 60, 0
1, 7920, Note_on_c, 1, 64, 64
1, 7920, Note_on_c, 1, 60, 64
1, 7939, Note_on_c, 0, 84, 0
1, 7944, Note_on_c, 0, 79, 80
1, 7967, Note_on_c, 0, 79, 0
1, 7967, Note_on_c, 1, 64, 0
1, 7967, Note_on_c, 1, 60, 0
1, 7968, Note_on_c, 0, 81, 79
1, 7968, Note_on_c, 1, 64, 64
1, 7968, Note_on_c, 1, 60, 64
1, 7983, Note_on_c, 0, 81, 0
1, 7984, Note_on_c, 0, 79, 78
1, 7999, Note_on_c, 0, 79, 0
1, 8000, Note_on_c, 0, 81, 78
1, 8015, Note_on_c, 0, 81, 0
1, 8015, Note_on_c, 1, 64, 0
1, 8015, Note_on_c, 1, 60, 0
1, 8016, Note_on_c, 0, 79, 77
1, 8016, Note_on_c, 1, 64, 64
1, 8016, Note_on_c, 1, 60, 64
1, 8031, Note_on_c, 0, 79, 0
1, 8032, Note_on_c, 0, 81, 77
1, 8047, Note_on_c, 0, 81, 0
1, 8048, Note_on_c, 0, 79, 76
1, 8063, Note_on_c, 0, 79, 0
1, 8063, Note_on_c, 1, 64, 0
1, 8063, Note_on_c, 1, 60, 0
1, 8064, Note_on_c, 0, 79, 75
1, 8064, Note_on_c, 1, 62, 70
1, 8064, Note_on_c, 1, 55, 75
1, 8087, Note_on_c, 0, 79, 0
1, 8088, Note_on_c, 0, 77, 75
1, 8109, Note_on_c, 1, 62, 0
1, 8111, Note_on_c, 0, 77, 0
1, 8112, Note_on_c, 0, 86, 75
1, 8112, Note_on_c, 1, 59, 70
1, 8135, Note_on_c, 0, 86, 0
1, 8136, Note_on_c, 0, 77, 75
1, 8157, Note_on_c, 1, 59, 0
1, 8159, Note_on_c, 0, 77, 0
1, 8160, Note_on_c, 0, 76, 75
1, 8160, Note_on_c, 1, 60, 70
1, 8205, Note_on_c, 0, 76, 0
1, 8205, Note_on_c, 1, 60, 0
1, 8208, Note_on_c, 0, 84, 75
1, 8208, Note_on_c, 1, 64, 70
1, 8241, Note_on_c, 1, 55, 0
1, 8253, Note_on_c, 0, 84, 0
1, 8253, Note_on_c, 1, 64, 0
1, 8256, Note_on_c, 0, 79, 70
1, 8256, Note_on_c, 1, 62, 70
1, 8256, Note_on_c, 1, 55, 75
1, 8279, Note_on_c, 0, 79, 0
1, 8280, Note_on_c, 0, 77, 70
1, 8301, Note_on_c, 1, 62, 0
1, 8303, Note_on_c, 0, 77, 0
1, 8304, Note_on_c, 0, 86, 70
1, 8304, Note_on_c, 1, 59, 70
1, 8327, Note_on_c, 0, 86, 0
1, 8328, Note_on_c, 0, 77, 70
1, 8349, Note_on_c, 1, 59, 0
1, 8351, Note_on_c, 0, 77, 0
1, 8352, Note_on_c, 0, 76, 70
1, 8352, Note_on_c, 1, 60, 70
1, 8397, Note_on_c, 0, 76, 0
1, 8397, Note_on_c, 1, 60, 0
1, 8400, Note_on_c, 0, 84, 70
1, 8400, Note_on_c, 1, 64, 70
1, 8433, Note_on_c, 1, 55, 0
1, 8445, Note_on_c, 0, 84, 0
1, 8445, Note_on_c, 1, 64, 0
1, 8448, Note_on_c, 1, 62, 75
1, 8448, Note_on_c, 1, 55, 75
1, 8472, Note_on_c, 0, 77, 75
1, 8495, Note_on_c, 0, 77, 0
1, 8496, Note_on_c, 0, 86, 75
1, 8519, Note_on_c, 0, 86, 0
1, 8520, Note_on_c, 0, 77, 75
1, 8537, Note_on_c, 1, 62, 0
1, 8537, Note_on_c, 1, 55, 0
1, 8543, Note_on_c, 0, 77, 0
1, 8544, Note_on_c, 1, 60, 75
1, 8544, Note_on_c, 1, 55, 75
1, 8568, Note_on_c, 0, 76, 75
1, 8591, Note_on_c, 0, 76, 0
1, 8592, Note_on_c, 0, 84, 75
1, 8615, Note_on_c, 0, 84, 0
1, 8616, Note_on_c, 0, 76, 75
1, 8633, Note_on_c, 1, 60, 0
1, 8633, Note_on_c, 1, 55, 0
1, 8639, Note_on_c, 0, 76, 0
1, 8640, Note_on_c, 0, 76, 75
1, 8640, Note_on_c, 1, 60, 75
1, 8640, Note_on_c, 1, 55, 75
1, 8652, Note_on_c, 0, 76, 0
1, 8652, Note_on_c, 0, 77, 75
1, 8664, Note_on_c, 0, 77, 0
1, 8664, Note_on_c, 0, 76, 75
1, 8685, Note_on_c, 0, 76, 0
1, 8685, Note_on_c, 1, 60, 0
1, 8688, Note_on_c, 0, 74, 75
1, 8688, Note_on_c, 1, 59, 75
1, 8729, Note_on_c, 1, 55, 0
1, 8733, Note_on_c, 0, 74, 0
1, 8733, Note_on_c, 1, 59, 0
1, 8784, Note_on_c, 0, 79, 70
1, 8829, Note_on_c, 0, 79, 0
1, 8832, Note_on_c, 0, 79, 70
1, 8855, Note_on_c, 0, 79, 0
1, 8856, Note_on_c, 0, 78, 70
1, 8879, Note_on_c, 0, 78, 0
1, 8880, Note_on_c, 0, 81, 70
1, 8903, Note_on_c, 0, 81, 0
1, 8904, Note_on_c, 0, 79, 70
1, 8927, Note_on_c, 0, 79, 0
1, 8928, Note_on_c, 0, 83, 70
1, 8951, Note_on_c, 0, 83, 0
1, 8952, Note_on_c, 0, 79, 70
1, 8975, Note_on_c, 0, 79, 0
1, 8976, Note_on_c, 0, 78, 70
1, 8999, Note_on_c, 0, 78, 0
1, 9000, Note_on_c, 0, 79, 70
1, 9023, Note_on_c, 0, 79, 0
1, 9024, Note_on_c, 0, 74, 75
1, 9024, Note_on_c, 1, 59, 80
1, 9024, Note_on_c, 1, 47, 80
1, 9047, Note_on_c, 0, 74, 0
1, 9048, Note_on_c, 0, 79, 75
1, 9069, Note_on_c, 1, 59, 0
1, 9069, Note_on_c, 1, 47, 0
1, 9071, Note_on_c, 0, 79, 0
1, 9072, Note_on_c, 0, 76, 75
1, 9072, Note_on_c, 1, 60, 80
1, 9072, Note_on_c, 1, 48, 80
1, 9095, Note_on_c, 0, 76, 0
1, 9096, Note_on_c, 0, 79, 75
1, 9117, Note_on_c, 1, 60, 0
1, 9117, Note_on_c, 1, 48, 0
1, 9119, Note_on_c, 0, 79, 0
1, 9120, Note_on_c, 0, 74, 75
1, 9120, Note_on_c, 1, 59, 80
1, 9120, Note_on_c, 1, 47, 80
1, 9165, Note_on_c, 0, 74, 0
1, 9165, Note_on_c, 1, 59, 0
1, 9165, Note_on_c, 1, 47, 0
1, 9168, Note_on_c, 0, 79, 70
1, 9213, Note_on_c, 0, 79, 0
1, 9216, Note_on_c, 0, 79, 70
1, 9239, Note_on_c, 0, 79, 0
1, 9240, Note_on_c, 0, 78, 70
1, 9263, Note_on_c, 0, 78, 0
1, 9264, Note_on_c, 0, 81, 70
1, 9287, Note_on_c, 0, 81, 0
1, 9288, Note_on_c, 0, 79, 70
1, 9311, Note_on_c, 0, 79, 0
1, 9312, Note_on_c, 0, 83, 70
1, 9335, Note_on_c, 0, 83, 0
1, 9336, Note_on_c, 0, 79, 70
1, 9359, Note_on_c, 0, 79, 0
1, 9360, Note_on_c, 0, 78, 70
1, 9383, Note_on_c, 0, 78, 0
1, 9384, Note_on_c, 0, 79, 70
1, 9407, Note_on_c, 0, 79, 0
1, 9408, Note_on_c, 0, 74, 75
1, 9408, Note_on_c, 1, 59, 80
1, 9431, Note_on_c, 0, 74, 0
1, 9432, Note_on_c, 0, 79, 75
1, 9453, Note_on_c, 1, 59, 0
1, 9455, Note_on_c, 0, 79, 0
1, 9456, Note_on_c, 0, 72, 75
1, 9456, Note_on_c, 1, 57, 80
1, 9479, Note_on_c, 0, 72, 0
1, 9480, Note_on_c, 0, 79, 75
1, 9501, Note_on_c, 1, 57, 0
1, 9503, Note_on_c, 0, 79, 0
1, 9504, Note_on_c, 0, 71, 75
1, 9504, Note_on_c, 1, 55, 80
1, 9549, Note_on_c, 0, 71, 0
1, 9549, Note_on_c, 1, 55, 0
1, 9552, Note_on_c, 0, 74, 75
1, 9552, Note_on_c, 1, 47, 80
1, 9575, Note_on_c, 0, 74, 0
1, 9576, Note_on_c, 0, 79, 75
1, 9597, Note_on_c, 1, 47, 0
1, 9599, Note_on_c, 0, 79, 0
1, 9600, Note_on_c, 0, 76, 75
1, 9600, Note_on_c, 1, 48, 80
1, 9623, Note_on_c, 0, 76, 0
1, 9624, Note_on_c, 0, 79, 76
1, 9645, Note_on_c, 1, 48, 0
1, 9647, Note_on_c, 0, 79, 0
1, 9648, Note_on_c, 0, 74, 76
1, 9648, Note_on_c, 1, 50, 80
1, 9671, Note_on_c, 0, 74, 0
1, 9672, Note_on_c, 0, 79, 76
1, 9693, Note_on_c, 1, 50, 0
1, 9695, Note_on_c, 0, 79, 0
1, 9696, Note_on_c, 0, 72, 76
1, 9696, Note_on_c, 1, 52, 81
1, 9719, Note_on_c, 0, 72, 0
1, 9720, Note_on_c, 0, 76, 77
1, 9741, Note_on_c, 1, 52, 0
1, 9743, Note_on_c, 0, 76, 0
1, 9744, Note_on_c, 0, 81, 77
1, 9744, Note_on_c, 1, 49, 81
1, 9767, Note_on_c, 0, 81, 0
1, 9768, Note_on_c, 0, 79, 77
1, 9789, Note_on_c, 1, 49, 0
1, 9791, Note_on_c, 0, 79, 0
1, 9792, Note_on_c, 0, 78, 77
1, 9792, Note_on_c, 1, 50, 81
1, 9815, Note_on_c, 0, 78, 0
1, 9816, Note_on_c, 0, 81, 77
1, 9837, Note_on_c, 1, 50, 0
1, 9839, Note_on_c, 0, 81, 0
1, 9840, Note_on_c, 0, 76, 78
1, 9840, Note_on_c, 1, 52, 81
1, 9863, Note_on_c, 0, 76, 0
1, 9864, Note_on_c, 0, 81, 78
1, 9885, Note_on_c, 1, 52, 0
1, 9887, Note_on_c, 0, 81, 0
1, 9888, Note_on_c, 0, 74, 78
1, 9888, Note_on_c, 1, 54, 82
1, 9911, Note_on_c, 0, 74, 0
1, 9912, Note_on_c, 0, 78, 78
1, 9933, Note_on_c, 1, 54, 0
1, 9935, Note_on_c, 0, 78, 0
1, 9936, Note_on_c, 0, 83, 79
1, 9936, Note_on_c, 1, 51, 82
1, 9959, Note_on_c, 0, 83, 0
1, 9960, Note_on_c, 0, 81, 79
1, 9981, Note_on_c, 1, 51, 0
1, 9983, Note_on_c, 0, 81, 0
1, 9984, Note_on_c, 0, 79, 79
1, 9984, Note_on_c, 1, 52, 82
1, 10007, Note_on_c, 0, 79, 0
1, 10008, Note_on_c, 0, 83, 79
1, 10029, Note_on_c, 1, 52, 0
1, 10031, Note_on_c, 0, 83, 0
1, 10032, Note_on_c, 0, 78, 80
1, 10032, Note_on_c, 1, 54, 82
1, 10055, Note_on_c, 0, 78, 0
1, 10056, Note_on_c, 0, 83, 80
1, 10077, Note_on_c, 1, 54, 0
1, 10079, Note_on_c, 0, 83, 0
1, 10080, Note_on_c, 0, 76, 80
1, 10080, Note_on_c, 1, 55, 83
1, 10103, Note_on_c, 0, 76, 0
1, 10104, Note_on_c, 0, 79, 80
1, 10125, Note_on_c, 1, 55, 0
1, 10127, Note_on_c, 0, 79, 0
1, 10128, Note_on_c, 0, 84, 80
1, 10128, Note_on_c, 1, 52, 83
1, 10151, Note_on_c, 0, 84, 0
1, 10152, Note_on_c, 0, 83, 81
1, 10173, Note_on_c, 1, 52, 0
1, 10175, Note_on_c, 0, 83, 0
1, 10176, Note_on_c, 0, 81, 81
1, 10176, Note_on_c, 1, 54, 83
1, 10199, Note_on_c, 0, 81, 0
1, 10200, Note_on_c, 0, 84, 81
1, 10221, Note_on_c, 1, 54, 0
1, 10223, Note_on_c, 0, 84, 0
1, 10224, Note_on_c, 0, 79, 81
1, 10224, Note_on_c, 1, 55, 83
1, 10247, Note_on_c, 0, 79, 0
1, 10248, Note_on_c, 0, 84, 82
1, 10269, Note_on_c, 1, 55, 0
1, 10271, Note_on_c, 0, 84, 0
1, 10272, Note_on_c, 0, 78, 82
1, 10272, Note_on_c, 1, 57, 84
1, 10295, Note_on_c, 0, 78, 0
1, 10296, Note_on_c, 0, 81, 82
1, 10317, Note_on_c, 1, 57, 0
1, 10319, Note_on_c, 0, 81, 0
1, 10320, Note_on_c, 0, 86, 82
1, 10320, Note_on_c, 1, 54, 84
1, 10343, Note_on_c, 0, 86, 0
1, 10344, Note_on_c, 0, 84, 83
1, 10365, Note_on_c, 1, 54, 0
1, 10367, Note_on_c, 0, 84, 0
1, 10368, Note_on_c, 0, 83, 83
1, 10368, Note_on_c, 1, 55, 84
1, 10391, Note_on_c, 0, 83, 0
1, 10392, Note_on_c, 0, 86, 83
1, 10413, Note_on_c, 1, 55, 0
1, 10415, Note_on_c, 0, 86, 0
1, 10416, Note_on_c, 0, 79, 83
1, 10416, Note_on_c, 1, 59, 84
1, 10439, Note_on_c, 0, 79, 0
1, 10440, Note_on_c, 0, 81, 83
1, 10461, Note_on_c, 1, 59, 0
1, 10463, Note_on_c, 0, 81, 0
1, 10464, Note_on_c, 0, 83, 84
1, 10464, Note_on_c, 1, 60, 85
1, 10479, Note_on_c, 0, 83, 0
1, 10480, Note_on_c, 0, 81, 84
1, 10495, Note_on_c, 0, 81, 0
1, 10496, Note_on_c, 0, 83, 84
1, 10509, Note_on_c, 1, 60, 0
1, 10511, Note_on_c, 0, 83, 0
1, 10512, Note_on_c, 0, 81, 84
1, 10512, Note_on_c, 1, 62, 85
1, 10527, Note_on_c, 0, 81, 0
1, 10528, Note_on_c, 0, 79, 84
1, 10543, Note_on_c, 0, 79, 0
1, 10544, Note_on_c, 0, 81, 84
1, 10557, Note_on_c, 1, 62, 0
1, 10559, Note_on_c, 0, 81, 0
1, 10560, Note_on_c, 0, 79, 84
1, 10560, Note_on_c, 1, 55, 85
1, 10605, Note_on_c, 1, 55, 0
1, 10608, Note_on_c, 1, 50, 86
1, 10649, Note_on_c, 0, 79, 0
1, 10653, Note_on_c, 1, 50, 0
1, 10656, Note_on_c, 1, 43, 86
1, 10704, Note_on_c, 0, 74, 70
1, 10704, Note_on_c, 0, 70, 70
1, 10745, Note_on_c, 1, 43, 0
1, 10752, Note_on_c, 0, 74, 0
1, 10752, Note_on_c, 0, 70, 0
1, 10752, Note_on_c, 0, 75, 70
1, 10752, Note_on_c, 0, 72, 70
1, 10797, Note_on_c, 0, 75, 0
1, 10797, Note_on_c, 0, 72, 0
1, 10800, Note_on_c, 1, 55, 70
1, 10800, Note_on_c, 1, 43, 70
1, 10848, Note_on_c, 1, 55, 0
1, 10848, Note_on_c, 1, 43, 0
1, 10848, Note_on_c, 1, 57, 70
1, 10848, Note_on_c, 1, 45, 70
1, 10893, Note_on_c, 1, 57, 0
1, 10893, Note_on_c, 1, 45, 0
1, 10896, Note_on_c, 0, 74, 70
1, 10896, Note_on_c, 0, 70, 70
1, 10944, Note_on_c, 0, 74, 0
1, 10944, Note_on_c, 0, 70, 0
1, 10944, Note_on_c, 0, 72, 70
1, 10944, Note_on_c, 0, 69, 70
1, 10989, Note_on_c, 0, 72, 0
1, 10989, Note_on_c, 0, 69, 0
1, 10992, Note_on_c, 1, 55, 70
1, 10992, Note_on_c, 1, 43, 70
1, 11040, Note_on_c, 1, 55, 0
1, 11040, Note_on_c, 1, 43, 0
1, 11040, Note_on_c, 1, 54, 70
1, 11040, Note_on_c, 1, 42, 70
1, 11085, Note_on_c, 1, 54, 0
1, 11085, Note_on_c, 1, 42, 0
1, 11088, Note_on_c, 0, 72, 70
1, 11088, Note_on_c, 0, 69, 70
1, 11136, Note_on_c, 0, 72, 0
1, 11136, Note_on_c, 0, 69, 0
1, 11136, Note_on_c, 0, 74, 70
1, 11136, Note_on_c, 0, 70, 70
1, 11181, Note_on_c, 0, 74, 0
1, 11181, Note_on_c, 0, 70, 0
1, 11184, Note_on_c, 1, 54, 70
1, 11184, Note_on_c, 1, 42, 70
1, 11232, Note_on_c, 1, 54, 0
1, 11232, Note_on_c, 1, 42, 0
1, 11232, Note_on_c, 1, 55, 70
1, 11232, Note_on_c, 1, 43, 70
1, 11277, Note_on_c, 1, 55, 0
1, 11277, Note_on_c, 1, 43, 0
1, 11280, Note_on_c, 0, 72, 70
1, 11280, Note_on_c, 0, 69, 70
1, 11328, Note_on_c, 0, 72, 0
1, 11328, Note_on_c, 0, 69, 0
1, 11328, Note_on_c, 0, 70, 70
1, 11328, Note_on_c, 0, 67, 70
1, 11373, Note_on_c, 0, 70, 0
1, 11373, Note_on_c, 0, 67, 0
1, 11376, Note_on_c, 1, 53, 70
1, 11376, Note_on_c, 1, 41, 70
1, 11424, Note_on_c, 1, 53, 0
1, 11424, Note_on_c, 1, 41, 0
1, 11424, Note_on_c, 1, 51, 70
1, 11424, Note_on_c, 1, 39, 70
1, 11469, Note_on_c, 1, 51, 0
1, 11469, Note_on_c, 1, 39, 0
1, 11472, Note_on_c, 0, 69, 70
1, 11472, Note_on_c, 0, 66, 70
1, 11520, Note_on_c, 0, 69, 0
1, 11520, Note_on_c, 0, 66, 0
1, 11520, Note_on_c, 0, 70, 69
1, 11520, Note_on_c, 0, 67, 69
1, 11565, Note_on_c, 0, 70, 0
1, 11565, Note_on_c, 0, 67, 0
1, 11568, Note_on_c, 1, 50, 68
1, 11568, Note_on_c, 1, 38, 68
1, 11616, Note_on_c, 1, 50, 0
1, 11616, Note_on_c, 1, 38, 0
1, 11616, Note_on_c, 1, 49, 67
1, 11616, Note_on_c, 1, 37, 67
1, 11661, Note_on_c, 1, 49, 0
1, 11661, Note_on_c, 1, 37, 0
1, 11664, Note_on_c, 0, 70, 66
1, 11664, Note_on_c, 0, 67, 66
1, 11664, Note_on_c, 1, 49, 66
1, 11664, Note_on_c, 1, 37, 66
1, 11684, Note_on_c, 1, 49, 0
1, 11684, Note_on_c, 1, 37, 0
1, 11709, Note_on_c, 0, 70, 0
1, 11709, Note_on_c, 0, 67, 0
1, 11712, Note_on_c, 0, 70, 65
1, 11712, Note_on_c, 0, 67, 64
1, 11712, Note_on_c, 1, 50, 65
1, 11712, Note_on_c, 1, 38, 65
1, 11724, Note_on_c, 0, 70, 0
1, 11724, Note_on_c, 0, 72, 65
1, 11736, Note_on_c, 0, 72, 0
1, 11736, Note_on_c, 0, 70, 65
1, 11757, Note_on_c, 0, 70, 0
1, 11760, Note_on_c, 0, 69, 64
1, 11760, Note_on_c, 0, 67, 0
1, 11760, Note_on_c, 0, 66, 64
1, 11801, Note_on_c, 1, 50, 0
1, 11801, Note_on_c, 1, 38, 0
1, 11805, Note_on_c, 0, 69, 0
1, 11805, Note_on_c, 0, 66, 0
1, 11856, Note_on_c, 0, 79, 75
1, 11871, Note_on_c, 0, 79, 0
1, 11872, Note_on_c, 0, 81, 75
1, 11887, Note_on_c, 0, 81, 0
1, 11888, Note_on_c, 0, 83, 75
1, 11903, Note_on_c, 0, 83, 0
1, 11904, Note_on_c, 0, 79, 75
1, 11904, Note_on_c, 1, 59, 75
1, 11904, Note_on_c, 1, 55, 75
1, 11949, Note_on_c, 0, 79, 0
1, 11952, Note_on_c, 0, 74, 75
1, 11967, Note_on_c, 0, 74, 0
1, 11968, Note_on_c, 0, 76, 75
1, 11983, Note_on_c, 0, 76, 0
1, 11984, Note_on_c, 0, 78, 75
1, 11993, Note_on_c, 1, 59, 0
1, 11993, Note_on_c, 1, 55, 0
1, 11999, Note_on_c, 0, 78, 0
1, 12000, Note_on_c, 0, 79, 75
1, 12045, Note_on_c, 0, 79, 0
1, 12048, Note_on_c, 0, 71, 75
1, 12063, Note_on_c, 0, 71, 0
1, 12064, Note_on_c, 0, 72, 75
1, 12079, Note_on_c, 0, 72, 0
1, 12080, Note_on_c, 0, 74, 75
1, 12095, Note_on_c, 0, 74, 0
1, 12096, Note_on_c, 0, 71, 75
1, 12141, Note_on_c, 0, 71, 0
1, 12144, Note_on_c, 0, 67, 75
1, 12159, Note_on_c, 0, 67, 0
1, 12160, Note_on_c, 0, 69, 75
1, 12175, Note_on_c, 0, 69, 0
1, 12176, Note_on_c, 0, 71, 75
1, 12191, Note_on_c, 0, 71, 0
1, 12192, Note_on_c, 0, 67, 75
1, 12237, Note_on_c, 0, 67, 0
1, 12240, Note_on_c, 0, 74, 75
1, 12240, Note_on_c, 1, 59, 75
1, 12240, Note_on_c, 1, 55, 75
1, 12285, Note_on_c, 0, 74, 0
1, 12285, Note_on_c, 1, 59, 0
1, 12285, Note_on_c, 1, 55, 0
1, 12288, Note_on_c, 0, 64, 75
1, 12288, Note_on_c, 1, 60, 75
1, 12288, Note_on_c, 1, 48, 75
1, 12288, Note_on_c, 1, 48, 75
1, 12333, Note_on_c, 0, 64, 0
1, 12336, Note_on_c, 0, 72, 75
1, 12351, Note_on_c, 0, 72, 0
1, 12352, Note_on_c, 0, 71, 75
1, 12367, Note_on_c, 0, 71, 0
1, 12368, Note_on_c, 0, 69, 75
1, 12377, Note_on_c, 1, 60, 0
1, 12377, Note_on_c, 1, 48, 0
1, 12377, Note_on_c, 1, 48, 0
1, 12383, Note_on_c, 0, 69, 0
1, 12384, Note_on_c, 0, 67, 75
1, 12384, Note_on_c, 1, 59, 75
1, 12384, Note_on_c, 1, 50, 75
1, 12429, Note_on_c, 0, 67, 0
1, 12429, Note_on_c, 1, 59, 0
1, 12432, Note_on_c, 0, 66, 75
1, 12432, Note_on_c, 1, 57, 75
1, 12444, Note_on_c, 0, 66, 0
1, 12444, Note_on_c, 0, 67, 75
1, 12456, Note_on_c, 0, 67, 0
1, 12456, Note_on_c, 0, 66, 75
1, 12473, Note_on_c, 1, 50, 0
1, 12477, Note_on_c, 0, 66, 0
1, 12477, Note_on_c, 1, 57, 0
1, 12480, Note_on_c, 0, 67, 75
1, 12480, Note_on_c, 1, 55, 75
1, 12525, Note_on_c, 1, 55, 0
1, 12528, Note_on_c, 1, 50, 75
1, 12569, Note_on_c, 0, 67, 0
1, 12573, Note_on_c, 1, 50, 0
1, 12576, Note_on_c, 1, 43, 75
1, 12624, Note_on_c, 0, 79, 75
1, 12639, Note_on_c, 0, 79, 0
1, 12640, Note_on_c, 0, 81, 75
1, 12655, Note_on_c, 0, 81, 0
1, 12656, Note_on_c, 0, 83, 75
1, 12665, Note_on_c, 1, 43, 0
1, 12671, Note_on_c, 0, 83, 0
1, 12672, Note_on_c, 0, 79, 75
1, 12672, Note_on_c, 1, 59, 75
1, 12672, Note_on_c, 1, 55, 75
1, 12717, Note_on_c, 0, 79, 0
1, 12720, Note_on_c, 0, 74, 75
1, 12735, Note_on_c, 0, 74, 0
1, 12736, Note_on_c, 0, 76, 75
1, 12751, Note_on_c, 0, 76, 0
1, 12752, Note_on_c, 0, 78, 75
1, 12761, Note_on_c, 1, 59, 0
1, 12761, Note_on_c, 1, 55, 0
1, 12767, Note_on_c, 0, 78, 0
1, 12768, Note_on_c, 0, 79, 75
1, 12813, Note_on_c, 0, 79, 0
1, 12816, Note_on_c, 0, 71, 75
1, 12831, Note_on_c, 0, 71, 0
1, 12832, Note_on_c, 0, 72, 75
1, 12847, Note_on_c, 0, 72, 0
1, 12848, Note_on_c, 0, 74, 75
1, 12863, Note_on_c, 0, 74, 0
1, 12864, Note_on_c, 0, 71, 75
1, 12909, Note_on_c, 0, 71, 0
1, 12912, Note_on_c, 0, 74, 80
1, 12912, Note_on_c, 1, 59, 80
1, 12912, Note_on_c, 1, 47, 80
1, 12935, Note_on_c, 0, 74, 0
1, 12936, Note_on_c, 0, 86, 80
1, 12957, Note_on_c, 1, 59, 0
1, 12957, Note_on_c, 1, 47, 0
1, 12959, Note_on_c, 0, 86, 0
1, 12960, Note_on_c, 0, 74, 80
1, 12960, Note_on_c, 1, 59, 80
1, 12960, Note_on_c, 1, 47, 80
1, 12983, Note_on_c, 0, 74, 0
1, 12984, Note_on_c, 0, 86, 80
1, 13005, Note_on_c, 1, 59, 0
1, 13005, Note_on_c, 1, 47, 0
1, 13007, Note_on_c, 0, 86, 0
1, 13008, Note_on_c, 0, 74, 80
1, 13008, Note_on_c, 1, 59, 80
1, 13008, Note_on_c, 1, 47, 80
1, 13031, Note_on_c, 0, 74, 0
1, 13032, Note_on_c, 0, 86, 80
1, 13053, Note_on_c, 1, 59, 0
1, 13053, Note_on_c, 1, 47, 0
1, 13055, Note_on_c, 0, 86, 0
1, 13056, Note_on_c, 0, 76, 80
1, 13056, Note_on_c, 1, 60, 80
1, 13056, Note_on_c, 1, 48, 80
1, 13079, Note_on_c, 0, 76, 0
1, 13080, Note_on_c, 0, 86, 80
1, 13101, Note_on_c, 1, 60, 0
1, 13101, Note_on_c, 1, 48, 0
1, 13103, Note_on_c, 0, 86, 0
1, 13104, Note_on_c, 0, 76, 80
1, 13104, Note_on_c, 1, 60, 80
1, 13104, Note_on_c, 1, 48, 80
1, 13127, Note_on_c, 0, 76, 0
1, 13128, Note_on_c, 0, 86, 80
1, 13149, Note_on_c, 1, 60, 0
1, 13149, Note_on_c, 1, 48, 0
1, 13151, Note_on_c, 0, 86, 0
1, 13152, Note_on_c, 0, 76, 80
1, 13152, Note_on_c, 1, 57, 80
1, 13152, Note_on_c, 1, 45, 80
1, 13175, Note_on_c, 0, 76, 0
1, 13176, Note_on_c, 0, 84, 80
1, 13197, Note_on_c, 1, 57, 0
1, 13197, Note_on_c, 1, 45, 0
1, 13199, Note_on_c, 0, 84, 0
1, 13200, Note_on_c, 0, 76, 80
1, 13200, Note_on_c, 1, 57, 80
1, 13200, Note_on_c, 1, 45, 80
1, 13223, Note_on_c, 0, 76, 0
1, 13224, Note_on_c, 0, 84, 80
1, 13245, Note_on_c, 1, 57, 0
1, 13245, Note_on_c, 1, 45, 0
1, 13247, Note_on_c, 0, 84, 0
1, 13248, Note_on_c, 0, 74, 80
1, 13248, Note_on_c, 1, 54, 80
1, 13248, Note_on_c, 1, 42, 80
1, 13271, Note_on_c, 0, 74, 0
1, 13272, Note_on_c, 0, 84, 80
1, 13293, Note_on_c, 1, 54, 0
1, 13293, Note_on_c, 1, 42, 0
1, 13295, Note_on_c, 0, 84, 0
1, 13296, Note_on_c, 0, 74, 80
1, 13296, Note_on_c, 1, 54, 80
1, 13296, Note_on_c, 1, 42, 80
1, 13319, Note_on_c, 0, 74, 0
1, 13320, Note_on_c, 0, 84, 80
1, 13341, Note_on_c, 1, 54, 0
1, 13341, Note_on_c, 1, 42, 0
1, 13343, Note_on_c, 0, 84, 0
1, 13344, Note_on_c, 0, 74, 80
1, 13344, Note_on_c, 1, 55, 80
1, 13344, Note_on_c, 1, 43, 80
1, 13367, Note_on_c, 0, 74, 0
1, 13368, Note_on_c, 0, 83, 80
1, 13389, Note_on_c, 1, 55, 0
1, 13389, Note_on_c, 1, 43, 0
1, 13391, Note_on_c, 0, 83, 0
1, 13392, Note_on_c, 0, 74, 80
1, 13392, Note_on_c, 1, 55, 80
1, 13392, Note_on_c, 1, 43, 80
1, 13415, Note_on_c, 0, 74, 0
1, 13416, Note_on_c, 0, 83, 80
1, 13437, Note_on_c, 1, 55, 0
1, 13437, Note_on_c, 1, 43, 0
1, 13439, Note_on_c, 0, 83, 0
1, 13440, Note_on_c, 0, 72, 80
1, 13440, Note_on_c, 1, 48, 80
1, 13440, Note_on_c, 1, 36, 80
1, 13463, Note_on_c, 0, 72, 0
1, 13464, Note_on_c, 0, 81, 80
1, 13485, Note_on_c, 1, 48, 0
1, 13485, Note_on_c, 1, 36, 0
1, 13487, Note_on_c, 0, 81, 0
1, 13488, Note_on_c, 0, 72, 80
1, 13488, Note_on_c, 1, 48, 80
1, 13488, Note_on_c, 1, 36, 80
1, 13511, Note_on_c, 0, 72, 0
1, 13512, Note_on_c, 0, 81, 80
1, 13533, Note_on_c, 1, 48, 0
1, 13533, Note_on_c, 1, 36, 0
1, 13535, Note_on_c, 0, 81, 0
1, 13536, Note_on_c, 0, 69, 80
1, 13536, Note_on_c, 1, 50, 80
1, 13536, Note_on_c, 1, 38, 80
1, 13559, Note_on_c, 0, 69, 0
1, 13560, Note_on_c, 0, 78, 80
1, 13581, Note_on_c, 1, 50, 0
1, 13581, Note_on_c, 1, 38, 0
1, 13583, Note_on_c, 0, 78, 0
1, 13584, Note_on_c, 0, 69, 80
1, 13584, Note_on_c, 1, 50, 80
1, 13584, Note_on_c, 1, 38, 80
1, 13607, Note_on_c, 0, 69, 0
1, 13608, Note_on_c, 0, 78, 80
1, 13629, Note_on_c, 1, 50, 0
1, 13629, Note_on_c, 1, 38, 0
1, 13631, Note_on_c, 0, 78, 0
1, 13632, Note_on_c, 0, 79, 80
1, 13632, Note_on_c, 0, 71, 80
1, 13632, Note_on_c, 1, 55, 80
1, 13677, Note_on_c, 1, 55, 0
1, 13680, Note_on_c, 1, 50, 80
1, 13721, Note_on_c, 0, 79, 0
1, 13721, Note_on_c, 0, 71, 0
1, 13725, Note_on_c, 1, 50, 0
1, 13728, Note_on_c, 1, 43, 80
1, 13817, Note_on_c, 1, 43, 0
1, 13824, Note_on_c, 1, 59, 64
1, 13824, Note_on_c, 1, 55, 64
1, 13871, Note_on_c, 1, 59, 0
1, 13871, Note_on_c, 1, 55, 0
1, 13872, Note_on_c, 0, 67, 75
1, 13872, Note_on_c, 1, 59, 64
1, 13872, Note_on_c, 1, 55, 64
1, 13917, Note_on_c, 0, 67, 0
1, 13919, Note_on_c, 1, 59, 0
1, 13919, Note_on_c, 1, 55, 0
1, 13920, Note_on_c, 0, 71, 75
1, 13920, Note_on_c, 1, 59, 64
1, 13920, Note_on_c, 1, 55, 64
1, 13943, Note_on_c, 0, 71, 0
1, 13944, Note_on_c, 0, 67, 76
1, 13967, Note_on_c, 0, 67, 0
1, 13967, Note_on_c, 1, 59, 0
1, 13967, Note_on_c, 1, 55, 0
1, 13968, Note_on_c, 0, 74, 76
1, 13968, Note_on_c, 1, 59, 64
1, 13968, Note_on_c, 1, 55, 64
1, 13991, Note_on_c, 0, 74, 0
1, 13992, Note_on_c, 0, 71, 76
1, 14015, Note_on_c, 0, 71, 0
1, 14015, Note_on_c, 1, 59, 0
1, 14015, Note_on_c, 1, 55, 0
1, 14016, Note_on_c, 0, 77, 77
1, 14016, Note_on_c, 1, 59, 64
1, 14016, Note_on_c, 1, 55, 64
1, 14063, Note_on_c, 1, 59, 0
1, 14063, Note_on_c, 1, 55, 0
1, 14064, Note_on_c, 1, 59, 64
1, 14064, Note_on_c, 1, 55, 64
1, 14083, Note_on_c, 0, 77, 0
1, 14088, Note_on_c, 0, 74, 78
1, 14111, Note_on_c, 0, 74, 0
1, 14111, Note_on_c, 1, 59, 0
1, 14111, Note_on_c, 1, 55, 0
1, 14112, Note_on_c, 0, 76, 78
1, 14112, Note_on_c, 1, 59, 64
1, 14112, Note_on_c, 1, 55, 64
1, 14127, Note_on_c, 0, 76, 0
1, 14128, Note_on_c, 0, 74, 75
1, 14143, Note_on_c, 0, 74, 0
1, 14144, Note_on_c, 0, 76, 75
1, 14159, Note_on_c, 0, 76, 0
1, 14159, Note_on_c, 1, 59, 0
1, 14159, Note_on_c, 1, 55, 0
1, 14160, Note_on_c, 0, 74, 75
1, 14160, Note_on_c, 1, 59, 64
1, 14160, Note_on_c, 1, 55, 64
1, 14175, Note_on_c, 0, 74, 0
1, 14176, Note_on_c, 0, 72, 75
1, 14191, Note_on_c, 0, 72, 0
1, 14192, Note_on_c, 0, 74, 75
1, 14207, Note_on_c, 0, 74, 0
1, 14207, Note_on_c, 1, 59, 0
1, 14207, Note_on_c, 1, 55, 0
1, 14208, Note_on_c, 0, 86, 75
1, 14208, Note_on_c, 1, 59, 64
1, 14208, Note_on_c, 1, 55, 64
1, 14231, Note_on_c, 0, 86, 0
1, 14232, Note_on_c, 0, 84, 75
1, 14255, Note_on_c, 0, 84, 0
1, 14255, Note_on_c, 1, 59, 0
1, 14255, Note_on_c, 1, 55, 0
1, 14256, Note_on_c, 0, 83, 75
1, 14256, Note_on_c, 1, 59, 64
1, 14256, Note_on_c, 1, 55, 64
1, 14279, Note_on_c, 0, 83, 0
1, 14280, Note_on_c, 0, 81, 75
1, 14303, Note_on_c, 0, 81, 0
1, 14303, Note_on_c, 1, 59, 0
1, 14303, Note_on_c, 1, 55, 0
1, 14304, Note_on_c, 0, 79, 75
1, 14304, Note_on_c, 1, 59, 64
1, 14304, Note_on_c, 1, 55, 64
1, 14327, Note_on_c, 0, 79, 0
1, 14328, Note_on_c, 0, 77, 75
1, 14351, Note_on_c, 0, 77, 0
1, 14351, Note_on_c, 1, 59, 0
1, 14351, Note_on_c, 1, 55, 0
1, 14352, Note_on_c, 0, 76, 75
1, 14352, Note_on_c, 1, 59, 64
1, 14352, Note_on_c, 1, 55, 64
1, 14375, Note_on_c, 0, 76, 0
1, 14376, Note_on_c, 0, 74, 75
1, 14399, Note_on_c, 0, 74, 0
1, 14399, Note_on_c, 1, 59, 0
1, 14399, Note_on_c, 1, 55, 0
1, 14400, Note_on_c, 0, 76, 75
1, 14400, Note_on_c, 1, 60, 64
1, 14400, Note_on_c, 1, 55, 64
1, 14445, Note_on_c, 0, 76, 0
1, 14447, Note_on_c, 1, 60, 0
1, 14447, Note_on_c, 1, 55, 0
1, 14448, Note_on_c, 0, 67, 75
1, 14448, Note_on_c, 1, 60, 64
1, 14448, Note_on_c, 1, 55, 64
1, 14493, Note_on_c, 0, 67, 0
1, 14495, Note_on_c, 1, 60, 0
1, 14495, Note_on_c, 1, 55, 0
1, 14496, Note_on_c, 0, 72, 75
1, 14496, Note_on_c, 1, 60, 64
1, 14496, Note_on_c, 1, 55, 64
1, 14519, Note_on_c, 0, 72, 0
1, 14520, Note_on_c, 0, 67, 75
1, 14543, Note_on_c, 0, 67, 0
1, 14543, Note_on_c, 1, 60, 0
1, 14543, Note_on_c, 1, 55, 0
1, 14544, Note_on_c, 0, 76, 75
1, 14544, Note_on_c, 1, 60, 64
1, 14544, Note_on_c, 1, 55, 64
1, 14567, Note_on_c, 0, 76, 0
1, 14568, Note_on_c, 0, 72, 75
1, 14591, Note_on_c, 0, 72, 0
1, 14591, Note_on_c, 1, 60, 0
1, 14591, Note_on_c, 1, 55, 0
1, 14592, Note_on_c, 0, 79, 75
1, 14592, Note_on_c, 1, 60, 64
1, 14592, Note_on_c, 1, 55, 64
1, 14639, Note_on_c, 1, 60, 0
1, 14639, Note_on_c, 1, 55, 0
1, 14640, Note_on_c, 1, 60, 64
1, 14640, Note_on_c, 1, 55, 64
1, 14659, Note_on_c, 0, 79, 0
1, 14664, Note_on_c, 0, 76, 75
1, 14687, Note_on_c, 0, 76, 0
1, 14687, Note_on_c, 1, 60, 0
1, 14687, Note_on_c, 1, 55, 0
1, 14688, Note_on_c, 0, 77, 75
1, 14688, Note_on_c, 1, 60, 64
1, 14688, Note_on_c, 1, 55, 64
1, 14703, Note_on_c, 0, 77, 0
1, 14704, Note_on_c, 0, 76, 75
1, 14719, Note_on_c, 0, 76, 0
1, 14720, Note_on_c, 0, 77, 75
1, 14735, Note_on_c, 0, 77, 0
1, 14735, Note_on_c, 1, 60, 0
1, 14735, Note_on_c, 1, 55, 0
1, 14736, Note_on_c, 0, 76, 75
1, 14736, Note_on_c, 1, 60, 64
1, 14736, Note_on_c, 1, 55, 64
1, 14751, Note_on_c, 0, 76, 0
1, 14752, Note_on_c, 0, 74, 75
1, 14767, Note_on_c, 0, 74, 0
1, 14768, Note_on_c, 0, 76, 75
1, 14783, Note_on_c, 0, 76, 0
1, 14783, Note_on_c, 1, 60, 0
1, 14783, Note_on_c, 1, 55, 0
1, 14784, Note_on_c, 0, 84, 75
1, 14784, Note_on_c, 1, 60, 64
1, 14784, Note_on_c, 1, 55, 64
1, 14807, Note_on_c, 0, 84, 0
1, 14808, Note_on_c, 0, 83, 75
1, 14831, Note_on_c, 0, 83, 0
1, 14831, Note_on_c, 1, 60, 0
1, 14831, Note_on_c, 1, 55, 0
1, 14832, Note_on_c, 0, 81, 75
1, 14832, Note_on_c, 1, 60, 64
1, 14832, Note_on_c, 1, 55, 64
1, 14855, Note_on_c, 0, 81, 0
1, 14856, Note_on_c, 0, 79, 75
1, 14879, Note_on_c, 0, 79, 0
1, 14879, Note_on_c, 1, 60, 0
1, 14879, Note_on_c, 1, 55, 0
1, 14880, Note_on_c, 0, 77, 75
1, 14880, Note_on_c, 1, 60, 64
1, 14880, Note_on_c, 1, 55, 64
1, 14903, Note_on_c, 0, 77, 0
1, 14904, Note_on_c, 0, 76, 75
1, 14927, Note_on_c, 0, 76, 0
1, 14927, Note_on_c, 1, 60, 0
1, 14927, Note_on_c, 1, 55, 0
1, 14928, Note_on_c, 0, 74, 75
1, 14928, Note_on_c, 1, 60, 64
1, 14928, Note_on_c, 1, 55, 64
1, 14951, Note_on_c, 0, 74, 0
1, 14952, Note_on_c, 0, 72, 75
1, 14975, Note_on_c, 0, 72, 0
1, 14975, Note_on_c, 1, 60, 0
1, 14975, Note_on_c, 1, 55, 0
1, 14976, Note_on_c, 0, 74, 75
1, 14976, Note_on_c, 1, 59, 64
1, 14976, Note_on_c, 1, 55, 64
1, 15021, Note_on_c, 0, 74, 0
1, 15023, Note_on_c, 1, 59, 0
1, 15023, Note_on_c, 1, 55, 0
1, 15024, Note_on_c, 0, 67, 75
1, 15024, Note_on_c, 1, 59, 64
1, 15024, Note_on_c, 1, 55, 64
1, 15069, Note_on_c, 0, 67, 0
1, 15071, Note_on_c, 1, 59, 0
1, 15071, Note_on_c, 1, 55, 0
1, 15072, Note_on_c, 0, 71, 75
1, 15072, Note_on_c, 1, 59, 64
1, 15072, Note_on_c, 1, 55, 64
1, 15095, Note_on_c, 0, 71, 0
1, 15096, Note_on_c, 0, 67, 76
1, 15119, Note_on_c, 0, 67, 0
1, 15119, Note_on_c, 1, 59, 0
1, 15119, Note_on_c, 1, 55, 0
1, 15120, Note_on_c, 0, 74, 76
1, 15120, Note_on_c, 1, 59, 64
1, 15120, Note_on_c, 1, 55, 64
1, 15143, Note_on_c, 0, 74, 0
1, 15144, Note_on_c, 0, 71, 76
1, 15167, Note_on_c, 0, 71, 0
1, 15167, Note_on_c, 1, 59, 0
1, 15167, Note_on_c, 1, 55, 0
1, 15168, Note_on_c, 0, 77, 77
1, 15168, Note_on_c, 1, 59, 64
1, 15168, Note_on_c, 1, 55, 64
1, 15215, Note_on_c, 1, 59, 0
1, 15215, Note_on_c, 1, 55, 0
1, 15216, Note_on_c, 1, 59, 64
1, 15216, Note_on_c, 1, 55, 64
1, 15235, Note_on_c, 0, 77, 0
1, 15240, Note_on_c, 0, 74, 78
1, 15263, Note_on_c, 0, 74, 0
1, 15263, Note_on_c, 1, 59, 0
1, 15263, Note_on_c, 1, 55, 0
1, 15264, Note_on_c, 0, 76, 78
1, 15264, Note_on_c, 1, 59, 64
1, 15264, Note_on_c, 1, 55, 64
1, 15279, Note_on_c, 0, 76, 0
1, 15280, Note_on_c, 0, 74, 75
1, 15295, Note_on_c, 0, 74, 0
1, 15296, Note_on_c, 0, 76, 75
1, 15311, Note_on_c, 0, 76, 0
1, 15311, Note_on_c, 1, 59, 0
1, 15311, Note_on_c, 1, 55, 0
1, 15312, Note_on_c, 0, 74, 75
1, 15312, Note_on_c, 1, 59, 64
1, 15312, Note_on_c, 1, 55, 64
1, 15327, Note_on_c, 0, 74, 0
1, 15328, Note_on_c, 0, 72, 75
1, 15343, Note_on_c, 0, 72, 0
1, 15344, Note_on_c, 0, 74, 75
1, 15359, Note_on_c, 0, 74, 0
1, 15359, Note_on_c, 1, 59, 0
1, 15359, Note_on_c, 1, 55, 0
1, 15360, Note_on_c, 0, 86, 75
1, 15360, Note_on_c, 1, 59, 64
1, 15360, Note_on_c, 1, 55, 64
1, 15383, Note_on_c, 0, 86, 0
1, 15384, Note_on_c, 0, 84, 75
1, 15407, Note_on_c, 0, 84, 0
1, 15407, Note_on_c, 1, 59, 0
1, 15407, Note_on_c, 1, 55, 0
1, 15408, Note_on_c, 0, 83, 75
1, 15408, Note_on_c, 1, 59, 64
1, 15408, Note_on_c, 1, 55, 64
1, 15431, Note_on_c, 0, 83, 0
1, 15432, Note_on_c, 0, 81, 75
1, 15455, Note_on_c, 0, 81, 0
1, 15455, Note_on_c, 1, 59, 0
1, 15455, Note_on_c, 1, 55, 0
1, 15456, Note_on_c, 0, 79, 75
1, 15456, Note_on_c, 1, 59, 64
1, 15456, Note_on_c, 1, 55, 64
1, 15479, Note_on_c, 0, 79, 0
1, 15480, Note_on_c, 0, 77, 75
1, 15503, Note_on_c, 0, 77, 0
1, 15503, Note_on_c, 1, 59, 0
1, 15503, Note_on_c, 1, 55, 0
1, 15504, Note_on_c, 0, 76, 75
1, 15504, Note_on_c, 1, 59, 64
1, 15504, Note_on_c, 1, 55, 64
1, 15527, Note_on_c, 0, 76, 0
1, 15528, Note_on_c, 0, 74, 75
1, 15551, Note_on_c, 0, 74, 0
1, 15551, Note_on_c, 1, 59, 0
1, 15551, Note_on_c, 1, 55, 0
1, 15552, Note_on_c, 1, 60, 64
1, 15552, Note_on_c, 1, 48, 64
1, 15576, Note_on_c, 0, 76, 70
1, 15599, Note_on_c, 0, 76, 0
1, 15600, Note_on_c, 0, 79, 70
1, 15623, Note_on_c, 0, 79, 0
1, 15624, Note_on_c, 0, 76, 70
1, 15641, Note_on_c, 1, 60, 0
1, 15641, Note_on_c, 1, 48, 0
1, 15647, Note_on_c, 0, 76, 0
1, 15648, Note_on_c, 1, 70, 70
1, 15672, Note_on_c, 0, 74, 70
1, 15693, Note_on_c, 1, 70, 0
1, 15695, Note_on_c, 0, 74, 0
1, 15696, Note_on_c, 0, 79, 70
1, 15719, Note_on_c, 0, 79, 0
1, 15720, Note_on_c, 0, 74, 70
1, 15743, Note_on_c, 0, 74, 0
1, 15744, Note_on_c, 1, 69, 70
1, 15768, Note_on_c, 0, 73, 70
1, 15789, Note_on_c, 1, 69, 0
1, 15791, Note_on_c, 0, 73, 0
1, 15792, Note_on_c, 0, 79, 70
1, 15815, Note_on_c, 0, 79, 0
1, 15816, Note_on_c, 0, 73, 70
1, 15839, Note_on_c, 0, 73, 0
1, 15840, Note_on_c, 1, 61, 80
1, 15840, Note_on_c, 1, 49, 80
1, 15864, Note_on_c, 0, 69, 80
1, 15887, Note_on_c, 0, 69, 0
1, 15888, Note_on_c, 0, 79, 80
1, 15911, Note_on_c, 0, 79, 0
1, 15912, Note_on_c, 0, 69, 80
1, 15929, Note_on_c, 1, 61, 0
1, 15929, Note_on_c, 1, 49, 0
1, 15935, Note_on_c, 0, 69, 0
1, 15936, Note_on_c, 1, 62, 80
1, 15936, Note_on_c, 1, 50, 80
1, 15960, Note_on_c, 0, 69, 80
1, 15983, Note_on_c, 0, 69, 0
1, 15984, Note_on_c, 0, 77, 80
1, 16007, Note_on_c, 0, 77, 0
1, 16008, Note_on_c, 0, 69, 80
1, 16025, Note_on_c, 1, 62, 0
1, 16025, Note_on_c, 1, 50, 0
1, 16031, Note_on_c, 0, 69, 0
1, 16032, Note_on_c, 1, 60, 80
1, 16032, Note_on_c, 1, 48, 80
1, 16056, Note_on_c, 0, 69, 80
1, 16079, Note_on_c, 0, 69, 0
1, 16080, Note_on_c, 0, 76, 80
1, 16103, Note_on_c, 0, 76, 0
1, 16104, Note_on_c, 0, 69, 80
1, 16121, Note_on_c, 1, 60, 0
1, 16121, Note_on_c, 1, 48, 0
1, 16127, Note_on_c, 0, 69, 0
1, 16128, Note_on_c, 1, 59, 80
1, 16128, Note_on_c, 1, 47, 80
1, 16152, Note_on_c, 0, 69, 80
1, 16175, Note_on_c, 0, 69, 0
1, 16176, Note_on_c, 0, 75, 80
1, 16199, Note_on_c, 0, 75, 0
1, 16200, Note_on_c, 0, 69, 80
1, 16217, Note_on_c, 1, 59, 0
1, 16217, Note_on_c, 1, 47, 0
1, 16223, Note_on_c, 0, 69, 0
1, 16224, Note_on_c, 1, 63, 70
1, 16248, Note_on_c, 0, 69, 70
1, 16269, Note_on_c, 1, 63, 0
1, 16271, Note_on_c, 0, 69, 0
1, 16272, Note_on_c, 0, 78, 70
1, 16295, Note_on_c, 0, 78, 0
1, 16296, Note_on_c, 0, 69, 70
1, 16319, Note_on_c, 0, 69, 0
1, 16320, Note_on_c, 1, 64, 70
1, 16344, Note_on_c, 0, 67, 70
1, 16365, Note_on_c, 1, 64, 0
1, 16367, Note_on_c, 0, 67, 0
1, 16368, Note_on_c, 0, 78, 70
1, 16391, Note_on_c, 0, 78, 0
1, 16392, Note_on_c, 0, 67, 70
1, 16415, Note_on_c, 0, 67, 0
1, 16416, Note_on_c, 1, 60, 80
1, 16416, Note_on_c, 1, 48, 80
1, 16440, Note_on_c, 0, 67, 80
1, 16463, Note_on_c, 0, 67, 0
1, 16464, Note_on_c, 0, 76, 80
1, 16487, Note_on_c, 0, 76, 0
1, 16488, Note_on_c, 0, 67, 80
1, 16505, Note_on_c, 1, 60, 0
1, 16505, Note_on_c, 1, 48, 0
1, 16511, Note_on_c, 0, 67, 0
1, 16512, Note_on_c, 1, 57, 80
1, 16512, Note_on_c, 1, 45, 80
1, 16536, Note_on_c, 0, 65, 80
1, 16559, Note_on_c, 0, 65, 0
1, 16560, Note_on_c, 0, 76, 80
1, 16583, Note_on_c, 0, 76, 0
1, 16584, Note_on_c, 0, 65, 80
1, 16601, Note_on_c, 1, 57, 0
1, 16601, Note_on_c, 1, 45, 0
1, 16607, Note_on_c, 0, 65, 0
1, 16608, Note_on_c, 1, 59, 80
1, 16608, Note_on_c, 1, 47, 80
1, 16632, Note_on_c, 0, 65, 80
1, 16655, Note_on_c, 0, 65, 0
1, 16656, Note_on_c, 0, 74, 80
1, 16679, Note_on_c, 0, 74, 0
1, 16680, Note_on_c, 0, 65, 80
1, 16697, Note_on_c, 1, 59, 0
1, 16697, Note_on_c, 1, 47, 0
1, 16703, Note_on_c, 0, 65, 0
1, 16704, Note_on_c, 1, 56, 80
1, 16704, Note_on_c, 1, 44, 80
1, 16728, Note_on_c, 0, 64, 80
1, 16751, Note_on_c, 0, 64, 0
1, 16752, Note_on_c, 0, 74, 80
1, 16775, Note_on_c, 0, 74, 0
1, 16776, Note_on_c, 0, 64, 80
1, 16793, Note_on_c, 1, 56, 0
1, 16793, Note_on_c, 1, 44, 0
1, 16799, Note_on_c, 0, 64, 0
1, 16800, Note_on_c, 1, 57, 80
1, 16800, Note_on_c, 1, 45, 80
1, 16824, Note_on_c, 0, 64, 80
1, 16847, Note_on_c, 0, 64, 0
1, 16848, Note_on_c, 0, 72, 80
1, 16871, Note_on_c, 0, 72, 0
1, 16872, Note_on_c, 0, 64, 80
1, 16889, Note_on_c, 1, 57, 0
1, 16889, Note_on_c, 1, 45, 0
1, 16895, Note_on_c, 0, 64, 0
1, 16896, Note_on_c, 1, 53, 80
1, 16896, Note_on_c, 1, 41, 80
1, 16920, Note_on_c, 0, 62, 80
1, 16943, Note_on_c, 0, 62, 0
1, 16944, Note_on_c, 0, 72, 80
1, 16967, Note_on_c, 0, 72, 0
1, 16968, Note_on_c, 0, 62, 81
1, 16985, Note_on_c, 1, 53, 0
1, 16985, Note_on_c, 1, 41, 0
1, 16991, Note_on_c, 0, 62, 0
1, 16992, Note_on_c, 1, 54, 80
1, 16992, Note_on_c, 1, 42, 80
1, 17016, Note_on_c, 0, 62, 82
1, 17039, Note_on_c, 0, 62, 0
1, 17040, Note_on_c, 0, 72, 82
1, 17063, Note_on_c, 0, 72, 0
1, 17064, Note_on_c, 0, 62, 83
1, 17081, Note_on_c, 1, 54, 0
1, 17081, Note_on_c, 1, 42, 0
1, 17087, Note_on_c, 0, 62, 0
1, 17088, Note_on_c, 0, 71, 83
1, 17088, Note_on_c, 1, 43, 84
1, 17111, Note_on_c, 1, 43, 0
1, 17112, Note_on_c, 1, 55, 86
1, 17135, Note_on_c, 1, 55, 0
1, 17136, Note_on_c, 1, 43, 86
1, 17159, Note_on_c, 1, 43, 0
1, 17160, Note_on_c, 1, 55, 86
1, 17177, Note_on_c, 0, 71, 0
1, 17183, Note_on_c, 1, 55, 0
1, 17184, Note_on_c, 1, 43, 86
1, 17207, Note_on_c, 1, 43, 0
1, 17208, Note_on_c, 1, 55, 86
1, 17231, Note_on_c, 1, 55, 0
1, 17232, Note_on_c, 0, 62, 86
1, 17232, Note_on_c, 0, 59, 86
1, 17232, Note_on_c, 1, 43, 86
1, 17255, Note_on_c, 1, 43, 0
1, 17256, Note_on_c, 1, 55, 85
1, 17279, Note_on_c, 1, 55, 0
1, 17280, Note_on_c, 0, 62, 0
1, 17280, Note_on_c, 0, 59, 0
1, 17280, Note_on_c, 0, 64, 84
1, 17280, Note_on_c, 0, 60, 84
1, 17280, Note_on_c, 1, 43, 84
1, 17303, Note_on_c, 1, 43, 0
1, 17304, Note_on_c, 1, 55, 83
1, 17325, Note_on_c, 0, 64, 0
1, 17325, Note_on_c, 0, 60, 0
1, 17327, Note_on_c, 1, 55, 0
1, 17328, Note_on_c, 1, 43, 82
1, 17351, Note_on_c, 1, 43, 0
1, 17352, Note_on_c, 1, 55, 81
1, 17375, Note_on_c, 1, 55, 0
1, 17376, Note_on_c, 1, 43, 80
1, 17399, Note_on_c, 1, 43, 0
1, 17400, Note_on_c, 1, 55, 80
1, 17423, Note_on_c, 1, 55, 0
1, 17424, Note_on_c, 0, 72, 79
1, 17424, Note_on_c, 0, 66, 79
1, 17424, Note_on_c, 1, 43, 79
1, 17447, Note_on_c, 1, 43, 0
1, 17448, Note_on_c, 1, 55, 78
1, 17471, Note_on_c, 1, 55, 0
1, 17472, Note_on_c, 0, 72, 0
1, 17472, Note_on_c, 0, 66, 0
1, 17472, Note_on_c, 0, 71, 77
1, 17472, Note_on_c, 0, 67, 77
1, 17472, Note_on_c, 1, 43, 77
1, 17495, Note_on_c, 1, 43, 0
1, 17496, Note_on_c, 1, 55, 76
1, 17517, Note_on_c, 0, 71, 0
1, 17517, Note_on_c, 0, 67, 0
1, 17519, Note_on_c, 1, 55, 0
1, 17520, Note_on_c, 1, 43, 75
1, 17543, Note_on_c, 1, 43, 0
1, 17544, Note_on_c, 1, 55, 75
1, 17567, Note_on_c, 1, 55, 0
1, 17568, Note_on_c, 1, 43, 74
1, 17591, Note_on_c, 1, 43, 0
1, 17592, Note_on_c, 1, 55, 73
1, 17615, Note_on_c, 1, 55, 0
1, 17616, Note_on_c, 0, 62, 72
1, 17616, Note_on_c, 0, 59, 72
1, 17616, Note_on_c, 1, 43, 72
1, 17639, Note_on_c, 1, 43, 0
1, 17640, Note_on_c, 1, 55, 71
1, 17663, Note_on_c, 1, 55, 0
1, 17664, Note_on_c, 0, 62, 0
1, 17664, Note_on_c, 0, 59, 0
1, 17664, Note_on_c, 0, 64, 70
1, 17664, Note_on_c, 0, 60, 70
1, 17664, Note_on_c, 1, 43, 70
1, 17687, Note_on_c, 1, 43, 0
1, 17688, Note_on_c, 1, 55, 69
1, 17709, Note_on_c, 0, 64, 0
1, 17709, Note_on_c, 0, 60, 0
1, 17711, Note_on_c, 1, 55, 0
1, 17712, Note_on_c, 1, 43, 69
1, 17735, Note_on_c, 1, 43, 0
1, 17736, Note_on_c, 1, 55, 68
1, 17759, Note_on_c, 1, 55, 0
1, 17760, Note_on_c, 1, 43, 67
1, 17783, Note_on_c, 1, 43, 0
1, 17784, Note_on_c, 1, 55, 66
1, 17807, Note_on_c, 1, 55, 0
1, 17808, Note_on_c, 0, 66, 65
1, 17808, Note_on_c, 0, 60, 65
1, 17808, Note_on_c, 1, 43, 65
1, 17831, Note_on_c, 1, 43, 0
1, 17832, Note_on_c, 1, 55, 64
1, 17855, Note_on_c, 1, 55, 0
1, 17856, Note_on_c, 0, 66, 0
1, 17856, Note_on_c, 0, 60, 0
1, 17856, Note_on_c, 0, 67, 64
1, 17856, Note_on_c, 0, 59, 64
1, 17856, Note_on_c, 1, 43, 64
1, 17945, Note_on_c, 0, 67, 0
1, 17945, Note_on_c, 0, 59, 0
1, 17945, Note_on_c, 1, 43, 0
1, 18048, Note_on_c, 1, 64, 64
1, 18048, Note_on_c, 1, 60, 64
1, 18095, Note_on_c, 1, 64, 0
1, 18095, Note_on_c, 1, 60, 0
1, 18096, Note_on_c, 0, 72, 75
1, 18096, Note_on_c, 1, 64, 64
1, 18096, Note_on_c, 1, 60, 64
1, 18141, Note_on_c, 0, 72, 0
1, 18143, Note_on_c, 1, 64, 0
1, 18143, Note_on_c, 1, 60, 0
1, 18144, Note_on_c, 0, 76, 76
1, 18144, Note_on_c, 1, 64, 64
1, 18144, Note_on_c, 1, 60, 64
1, 18167, Note_on_c, 0, 76, 0
1, 18168, Note_on_c, 0, 72, 77
1, 18191, Note_on_c, 0, 72, 0
1, 18191, Note_on_c, 1, 64, 0
1, 18191, Note_on_c, 1, 60, 0
1, 18192, Note_on_c, 0, 79, 78
1, 18192, Note_on_c, 1, 64, 64
1, 18192, Note_on_c, 1, 60, 64
1, 18215, Note_on_c, 0, 79, 0
1, 18216, Note_on_c, 0, 76, 79
1, 18239, Note_on_c, 0, 76, 0
1, 18239, Note_on_c, 1, 64, 0
1, 18239, Note_on_c, 1, 60, 0
1, 18240, Note_on_c, 0, 84, 80
1, 18240, Note_on_c, 1, 64, 64
1, 18240, Note_on_c, 1, 60, 64
1, 18287, Note_on_c, 1, 64, 0
1, 18287, Note_on_c, 1, 60, 0
1, 18288, Note_on_c, 1, 64, 64
1, 18288, Note_on_c, 1, 60, 64
1, 18307, Note_on_c, 0, 84, 0
1, 18312, Note_on_c, 0, 79, 76
1, 18335, Note_on_c, 0, 79, 0
1, 18335, Note_on_c, 1, 64, 0
1, 18335, Note_on_c, 1, 60, 0
1, 18336, Note_on_c, 0, 81, 75
1, 18336, Note_on_c, 1, 64, 64
1, 18336, Note_on_c, 1, 60, 64
1, 18351, Note_on_c, 0, 81, 0
1, 18352, Note_on_c, 0, 79, 75
1, 18367, Note_on_c, 0, 79, 0
1, 18368, Note_on_c, 0, 81, 75
1, 18383, Note_on_c, 0, 81, 0
1, 18383, Note_on_c, 1, 64, 0
1, 18383, Note_on_c, 1, 60, 0
1, 18384, Note_on_c, 0, 79, 75
1, 18384, Note_on_c, 1, 64, 64
1, 18384, Note_on_c, 1, 60, 64
1, 18399, Note_on_c, 0, 79, 0
1, 18400, Note_on_c, 0, 81, 75
1, 18415, Note_on_c, 0, 81, 0
1, 18416, Note_on_c, 0, 79, 75
1, 18431, Note_on_c, 0, 79, 0
1, 18431, Note_on_c, 1, 64, 0
1, 18431, Note_on_c, 1, 60, 0
1, 18432, Note_on_c, 1, 65, 64
1, 18432, Note_on_c, 1, 60, 64
1, 18479, Note_on_c, 1, 65, 0
1, 18479, Note_on_c, 1, 60, 0
1, 18480, Note_on_c, 0, 72, 75
1, 18480, Note_on_c, 1, 65, 64
1, 18480, Note_on_c, 1, 60, 64
1, 18525, Note_on_c, 0, 72, 0
1, 18527, Note_on_c, 1, 65, 0
1, 18527, Note_on_c, 1, 60, 0
1, 18528, Note_on_c, 0, 77, 77
1, 18528, Note_on_c, 1, 65, 64
1, 18528, Note_on_c, 1, 60, 64
1, 18551, Note_on_c, 0, 77, 0
1, 18552, Note_on_c, 0, 72, 78
1, 18575, Note_on_c, 0, 72, 0
1, 18575, Note_on_c, 1, 65, 0
1, 18575, Note_on_c, 1, 60, 0
1, 18576, Note_on_c, 0, 81, 79
1, 18576, Note_on_c, 1, 65, 64
1, 18576, Note_on_c, 1, 60, 64
1, 18599, Note_on_c, 0, 81, 0
1, 18600, Note_on_c, 0, 77, 80
1, 18623, Note_on_c, 0, 77, 0
1, 18623, Note_on_c, 1, 65, 0
1, 18623, Note_on_c, 1, 60, 0
1, 18624, Note_on_c, 0, 84, 79
1, 18624, Note_on_c, 1, 65, 64
1, 18624, Note_on_c, 1, 60, 64
1, 18671, Note_on_c, 1, 65, 0
1, 18671, Note_on_c, 1, 60, 0
1, 18672, Note_on_c, 1, 65, 64
1, 18672, Note_on_c, 1, 60, 64
1, 18691, Note_on_c, 0, 84, 0
1, 18696, Note_on_c, 0, 81, 76
1, 18719, Note_on_c, 0, 81, 0
1, 18719, Note_on_c, 1, 65, 0
1, 18719, Note_on_c, 1, 60, 0
1, 18720, Note_on_c, 0, 83, 75
1, 18720, Note_on_c, 1, 65, 64
1, 18720, Note_on_c, 1, 60, 64
1, 18735, Note_on_c, 0, 83, 0
1, 18736, Note_on_c, 0, 81, 75
1, 18751, Note_on_c, 0, 81, 0
1, 18752, Note_on_c, 0, 83, 75
1, 18767, Note_on_c, 0, 83, 0
1, 18767, Note_on_c, 1, 65, 0
1, 18767, Note_on_c, 1, 60, 0
1, 18768, Note_on_c, 0, 81, 75
1, 18768, Note_on_c, 1, 65, 64
1, 18768, Note_on_c, 1, 60, 64
1, 18783, Note_on_c, 0, 81, 0
1, 18784, Note_on_c, 0, 83, 75
1, 18799, Note_on_c, 0, 83, 0
1, 18800, Note_on_c, 0, 81, 75
1, 18815, Note_on_c, 0, 81, 0
1, 18815, Note_on_c, 1, 65, 0
1, 18815, Note_on_c, 1, 60, 0
1, 18816, Note_on_c, 1, 64, 64
1, 18816, Note_on_c, 1, 60, 64
1, 18863, Note_on_c, 1, 64, 0
1, 18863, Note_on_c, 1, 60, 0
1, 18864, Note_on_c, 0, 72, 75
1, 18864, Note_on_c, 1, 64, 64
1, 18864, Note_on_c, 1, 60, 64
1, 18909, Note_on_c, 0, 72, 0
1, 18911, Note_on_c, 1, 64, 0
1, 18911, Note_on_c, 1, 60, 0
1, 18912, Note_on_c, 0, 76, 76
1, 18912, Note_on_c, 1, 64, 64
1, 18912, Note_on_c, 1, 60, 64
1, 18935, Note_on_c, 0, 76, 0
1, 18936, Note_on_c, 0, 72, 77
1, 18959, Note_on_c, 0, 72, 0
1, 18959, Note_on_c, 1, 64, 0
1, 18959, Note_on_c, 1, 60, 0
1, 18960, Note_on_c, 0, 79, 78
1, 18960, Note_on_c, 1, 64, 64
1, 18960, Note_on_c, 1, 60, 64
1, 18983, Note_on_c, 0, 79, 0
1, 18984, Note_on_c, 0, 76, 79
1, 19007, Note_on_c, 0, 76, 0
1, 19007, Note_on_c, 1, 64, 0
1, 19007, Note_on_c, 1, 60, 0
1, 19008, Note_on_c, 0, 84, 80
1, 19008, Note_on_c, 1, 64, 64
1, 19008, Note_on_c, 1, 60, 64
1, 19055, Note_on_c, 1, 64, 0
1, 19055, Note_on_c, 1, 60, 0
1, 19056, Note_on_c, 1, 64, 64
1, 19056, Note_on_c, 1, 60, 64
1, 19075, Note_on_c, 0, 84, 0
1, 19080, Note_on_c, 0, 79, 76
1, 19103, Note_on_c, 0, 79, 0
1, 19103, Note_on_c, 1, 64, 0
1, 19103, Note_on_c, 1, 60, 0
1, 19104, Note_on_c, 0, 81, 75
1, 19104, Note_on_c, 1, 64, 64
1, 19104, Note_on_c, 1, 60, 64
1, 19119, Note_on_c, 0, 81, 0
1, 19120, Note_on_c, 0, 79, 75
1, 19135, Note_on_c, 0, 79, 0
1, 19136, Note_on_c, 0, 81, 75
1, 19151, Note_on_c, 0, 81, 0
1, 19151, Note_on_c, 1, 64, 0
1, 19151, Note_on_c, 1, 60, 0
1, 19152, Note_on_c, 0, 79, 75
1, 19152, Note_on_c, 1, 64, 64
1, 19152, Note_on_c, 1, 60, 64
1, 19167, Note_on_c, 0, 79, 0
1, 19168, Note_on_c, 0, 81, 75
1, 19183, Note_on_c, 0, 81, 0
1, 19184, Note_on_c, 0, 79, 75
1, 19199, Note_on_c, 0, 79, 0
1, 19199, Note_on_c, 1, 64, 0
1, 19199, Note_on_c, 1, 60, 0
1, 19200, Note_on_c, 0, 79, 75
1, 19200, Note_on_c, 1, 62, 70
1, 19200, Note_on_c, 1, 55, 75
1, 19223, Note_on_c, 0, 79, 0
1, 19224, Note_on_c, 0, 77, 75
1, 19245, Note_on_c, 1, 62, 0
1, 19247, Note_on_c, 0, 77, 0
1, 19248, Note_on_c, 0, 86, 75
1, 19248, Note_on_c, 1, 59, 70
1, 19271, Note_on_c, 0, 86, 0
1, 19272, Note_on_c, 0, 77, 75
1, 19293, Note_on_c, 1, 59, 0
1, 19295, Note_on_c, 0, 77, 0
1, 19296, Note_on_c, 0, 76, 75
1, 19296, Note_on_c, 1, 60, 70
1, 19341, Note_on_c, 0, 76, 0
1, 19341, Note_on_c, 1, 60, 0
1, 19344, Note_on_c, 0, 84, 75
1, 19344, Note_on_c, 1, 64, 70
1, 19377, Note_on_c, 1, 55, 0
1, 19389, Note_on_c, 0, 84, 0
1, 19389, Note_on_c, 1, 64, 0
1, 19392, Note_on_c, 0, 79, 70
1, 19392, Note_on_c, 1, 62, 70
1, 19392, Note_on_c, 1, 55, 75
1, 19415, Note_on_c, 0, 79, 0
1, 19416, Note_on_c, 0, 77, 70
1, 19437, Note_on_c, 1, 62, 0
1, 19439, Note_on_c, 0, 77, 0
1, 19440, Note_on_c, 0, 86, 70
1, 19440, Note_on_c, 1, 59, 70
1, 19463, Note_on_c, 0, 86, 0
1, 19464, Note_on_c, 0, 77, 70
1, 19485, Note_on_c, 1, 59, 0
1, 19487, Note_on_c, 0, 77, 0
1, 19488, Note_on_c, 0, 76, 70
1, 19488, Note_on_c, 1, 60, 70
1, 19533, Note_on_c, 0, 76, 0
1, 19533, Note_on_c, 1, 60, 0
1, 19536, Note_on_c, 0, 84, 70
1, 19536, Note_on_c, 1, 64, 70
1, 19569, Note_on_c, 1, 55, 0
1, 19581, Note_on_c, 0, 84, 0
1, 19581, Note_on_c, 1, 64, 0
1, 19584, Note_on_c, 1, 62, 75
1, 19584, Note_on_c, 1, 55, 75
1, 19608, Note_on_c, 0, 77, 75
1, 19631, Note_on_c, 0, 77, 0
1, 19632, Note_on_c, 0, 86, 75
1, 19655, Note_on_c, 0, 86, 0
1, 19656, Note_on_c, 0, 77, 75
1, 19673, Note_on_c, 1, 62, 0
1, 19673, Note_on_c, 1, 55, 0
1, 19679, Note_on_c, 0, 77, 0
1, 19680, Note_on_c, 1, 60, 75
1, 19680, Note_on_c, 1, 55, 75
1, 19704, Note_on_c, 0, 76, 75
1, 19727, Note_on_c, 0, 76, 0
1, 19728, Note_on_c, 0, 84, 75
1, 19751, Note_on_c, 0, 84, 0
1, 19752, Note_on_c, 0, 76, 75
1, 19769, Note_on_c, 1, 60, 0
1, 19769, Note_on_c, 1, 55, 0
1, 19775, Note_on_c, 0, 76, 0
1, 19776, Note_on_c, 0, 76, 75
1, 19776, Note_on_c, 1, 60, 75
1, 19776, Note_on_c, 1, 55, 75
1, 19788, Note_on_c, 0, 76, 0
1, 19788, Note_on_c, 0, 77, 75
1, 19800, Note_on_c, 0, 77, 0
1, 19800, Note_on_c, 0, 76, 75
1, 19821, Note_on_c, 0, 76, 0
1, 19821, Note_on_c, 1, 60, 0
1, 19824, Note_on_c, 0, 74, 75
1, 19824, Note_on_c, 1, 59, 75
1, 19865, Note_on_c, 1, 55, 0
1, 19869, Note_on_c, 0, 74, 0
1, 19869, Note_on_c, 1, 59, 0
1, 19920, Note_on_c, 0, 72, 70
1, 19965, Note_on_c, 0, 72, 0
1, 19968, Note_on_c, 0, 72, 70
1, 19991, Note_on_c, 0, 72, 0
1, 19992, Note_on_c, 0, 71, 70
1, 20015, Note_on_c, 0, 71, 0
1, 20016, Note_on_c, 0, 74, 70
1, 20039, Note_on_c, 0, 74, 0
1, 20040, Note_on_c, 0, 72, 70
1, 20063, Note_on_c, 0, 72, 0
1, 20064, Note_on_c, 0, 76, 70
1, 20087, Note_on_c, 0, 76, 0
1, 20088, Note_on_c, 0, 72, 70
1, 20111, Note_on_c, 0, 72, 0
1, 20112, Note_on_c, 0, 71, 70
1, 20135, Note_on_c, 0, 71, 0
1, 20136, Note_on_c, 0, 72, 70
1, 20159, Note_on_c, 0, 72, 0
1, 20160, Note_on_c, 0, 67, 75
1, 20160, Note_on_c, 1, 64, 80
1, 20183, Note_on_c, 0, 67, 0
1, 20184, Note_on_c, 0, 72, 75
1, 20205, Note_on_c, 1, 64, 0
1, 20207, Note_on_c, 0, 72, 0
1, 20208, Note_on_c, 0, 69, 75
1, 20208, Note_on_c, 1, 65, 80
1, 20231, Note_on_c, 0, 69, 0
1, 20232, Note_on_c, 0, 72, 75
1, 20253, Note_on_c, 1, 65, 0
1, 20255, Note_on_c, 0, 72, 0
1, 20256, Note_on_c, 0, 67, 75
1, 20256, Note_on_c, 1, 64, 80
1, 20301, Note_on_c, 0, 67, 0
1, 20301, Note_on_c, 1, 64, 0
1, 20304, Note_on_c, 0, 72, 70
1, 20349, Note_on_c, 0, 72, 0
1, 20352, Note_on_c, 0, 72, 70
1, 20375, Note_on_c, 0, 72, 0
1, 20376, Note_on_c, 0, 71, 70
1, 20399, Note_on_c, 0, 71, 0
1, 20400, Note_on_c, 0, 74, 70
1, 20423, Note_on_c, 0, 74, 0
1, 20424, Note_on_c, 0, 72, 70
1, 20447, Note_on_c, 0, 72, 0
1, 20448, Note_on_c, 0, 76, 70
1, 20471, Note_on_c, 0, 76, 0
1, 20472, Note_on_c, 0, 72, 70
1, 20495, Note_on_c, 0, 72, 0
1, 20496, Note_on_c, 0, 71, 70
1, 20519, Note_on_c, 0, 71, 0
1, 20520, Note_on_c, 0, 72, 70
1, 20543, Note_on_c, 0, 72, 0
1, 20544, Note_on_c, 0, 67, 75
1, 20544, Note_on_c, 1, 52, 80
1, 20567, Note_on_c, 0, 67, 0
1, 20568, Note_on_c, 0, 72, 75
1, 20589, Note_on_c, 1, 52, 0
1, 20591, Note_on_c, 0, 72, 0
1, 20592, Note_on_c, 0, 65, 75
1, 20592, Note_on_c, 1, 50, 80
1, 20615, Note_on_c, 0, 65, 0
1, 20616, Note_on_c, 0, 72, 75
1, 20637, Note_on_c, 1, 50, 0
1, 20639, Note_on_c, 0, 72, 0
1, 20640, Note_on_c, 0, 64, 75
1, 20640, Note_on_c, 1, 48, 80
1, 20685, Note_on_c, 0, 64, 0
1, 20685, Note_on_c, 1, 48, 0
1, 20688, Note_on_c, 0, 67, 75
1, 20688, Note_on_c, 1, 52, 80
1, 20711, Note_on_c, 0, 67, 0
1, 20712, Note_on_c, 0, 72, 75
1, 20733, Note_on_c, 1, 52, 0
1, 20735, Note_on_c, 0, 72, 0
1, 20736, Note_on_c, 0, 69, 75
1, 20736, Note_on_c, 1, 53, 80
1, 20759, Note_on_c, 0, 69, 0
1, 20760, Note_on_c, 0, 72, 76
1, 20781, Note_on_c, 1, 53, 0
1, 20783, Note_on_c, 0, 72, 0
1, 20784, Note_on_c, 0, 67, 76
1, 20784, Note_on_c, 1, 55, 80
1, 20807, Note_on_c, 0, 67, 0
1, 20808, Note_on_c, 0, 72, 76
1, 20829, Note_on_c, 1, 55, 0
1, 20831, Note_on_c, 0, 72, 0
1, 20832, Note_on_c, 0, 65, 76
1, 20832, Note_on_c, 1, 57, 81
1, 20855, Note_on_c, 0, 65, 0
1, 20856, Note_on_c, 0, 69, 77
1, 20877, Note_on_c, 1, 57, 0
1, 20879, Note_on_c, 0, 69, 0
1, 20880, Note_on_c, 0, 74, 77
1, 20880, Note_on_c, 1, 54, 81
1, 20903, Note_on_c, 0, 74, 0
1, 20904, Note_on_c, 0, 72, 77
1, 20925, Note_on_c, 1, 54, 0
1, 20927, Note_on_c, 0, 72, 0
1, 20928, Note_on_c, 0, 71, 77
1, 20928, Note_on_c, 1, 55, 81
1, 20951, Note_on_c, 0, 71, 0
1, 20952, Note_on_c, 0, 74, 77
1, 20973, Note_on_c, 1, 55, 0
1, 20975, Note_on_c, 0, 74, 0
1, 20976, Note_on_c, 0, 69, 78
1, 20976, Note_on_c, 1, 57, 81
1, 20999, Note_on_c, 0, 69, 0
1, 21000, Note_on_c, 0, 74, 78
1, 21021, Note_on_c, 1, 57, 0
1, 21023, Note_on_c, 0, 74, 0
1, 21024, Note_on_c, 0, 67, 78
1, 21024, Note_on_c, 1, 59, 82
1, 21047, Note_on_c, 0, 67, 0
1, 21048, Note_on_c, 0, 71, 78
1, 21069, Note_on_c, 1, 59, 0
1, 21071, Note_on_c, 0, 71, 0
1, 21072, Note_on_c, 0, 76, 79
1, 21072, Note_on_c, 1, 56, 82
1, 21095, Note_on_c, 0, 76, 0
1, 21096, Note_on_c, 0, 74, 79
1, 21117, Note_on_c, 1, 56, 0
1, 21119, Note_on_c, 0, 74, 0
1, 21120, Note_on_c, 0, 72, 79
1, 21120, Note_on_c, 1, 57, 82
1, 21143, Note_on_c, 0, 72, 0
1, 21144, Note_on_c, 0, 76, 79
1, 21165, Note_on_c, 1, 57, 0
1, 21167, Note_on_c, 0, 76, 0
1, 21168, Note_on_c, 0, 71, 80
1, 21168, Note_on_c, 1, 59, 82
1, 21191, Note_on_c, 0, 71, 0
1, 21192, Note_on_c, 0, 76, 80
1, 21213, Note_on_c, 1, 59, 0
1, 21215, Note_on_c, 0, 76, 0
1, 21216, Note_on_c, 0, 69, 80
1, 21216, Note_on_c, 1, 60, 83
1, 21239, Note_on_c, 0, 69, 0
1, 21240, Note_on_c, 0, 72, 80
1, 21261, Note_on_c, 1, 60, 0
1, 21263, Note_on_c, 0, 72, 0
1, 21264, Note_on_c, 0, 77, 80
1, 21264, Note_on_c, 1, 57, 83
1, 21287, Note_on_c, 0, 77, 0
1, 21288, Note_on_c, 0, 76, 81
1, 21309, Note_on_c, 1, 57, 0
1, 21311, Note_on_c, 0, 76, 0
1, 21312, Note_on_c, 0, 74, 81
1, 21312, Note_on_c, 1, 59, 83
1, 21335, Note_on_c, 0, 74, 0
1, 21336, Note_on_c, 0, 77, 81
1, 21357, Note_on_c, 1, 59, 0
1, 21359, Note_on_c, 0, 77, 0
1, 21360, Note_on_c, 0, 72, 81
1, 21360, Note_on_c, 1, 60, 83
1, 21383, Note_on_c, 0, 72, 0
1, 21384, Note_on_c, 0, 77, 82
1, 21405, Note_on_c, 1, 60, 0
1, 21407, Note_on_c, 0, 77, 0
1, 21408, Note_on_c, 0, 71, 82
1, 21408, Note_on_c, 1, 62, 84
1, 21431, Note_on_c, 0, 71, 0
1, 21432, Note_on_c, 0, 74, 82
1, 21453, Note_on_c, 1, 62, 0
1, 21455, Note_on_c, 0, 74, 0
1, 21456, Note_on_c, 0, 79, 82
1, 21456, Note_on_c, 1, 59, 84
1, 21479, Note_on_c, 0, 79, 0
1, 21480, Note_on_c, 0, 77, 83
1, 21501, Note_on_c, 1, 59, 0
1, 21503, Note_on_c, 0, 77, 0
1, 21504, Note_on_c, 0, 76, 83
1, 21504, Note_on_c, 1, 60, 84
1, 21527, Note_on_c, 0, 76, 0
1, 21528, Note_on_c, 0, 79, 83
1, 21549, Note_on_c, 1, 60, 0
1, 21551, Note_on_c, 0, 79, 0
1, 21552, Note_on_c, 0, 72, 83
1, 21552, Note_on_c, 1, 52, 84
1, 21575, Note_on_c, 0, 72, 0
1, 21576, Note_on_c, 0, 74, 83
1, 21597, Note_on_c, 1, 52, 0
1, 21599, Note_on_c, 0, 74, 0
1, 21600, Note_on_c, 0, 76, 84
1, 21600, Note_on_c, 1, 53, 85
1, 21615, Note_on_c, 0, 76, 0
1, 21616, Note_on_c, 0, 74, 84
1, 21631, Note_on_c, 0, 74, 0
1, 21632, Note_on_c, 0, 76, 84
1, 21645, Note_on_c, 1, 53, 0
1, 21647, Note_on_c, 0, 76, 0
1, 21648, Note_on_c, 0, 74, 84
1, 21648, Note_on_c, 1, 55, 85
1, 21663, Note_on_c, 0, 74, 0
1, 21664, Note_on_c, 0, 72, 84
1, 21679, Note_on_c, 0, 72, 0
1, 21680, Note_on_c, 0, 74, 84
1, 21693, Note_on_c, 1, 55, 0
1, 21695, Note_on_c, 0, 74, 0
1, 21696, Note_on_c, 0, 72, 84
1, 21696, Note_on_c, 1, 48, 85
1, 21741, Note_on_c, 1, 48, 0
1, 21744, Note_on_c, 1, 60, 86
1, 21785, Note_on_c, 0, 72, 0
1, 21789, Note_on_c, 1, 60, 0
1, 21792, Note_on_c, 1, 48, 86
1, 21840, Note_on_c, 0, 79, 70
1, 21840, Note_on_c, 0, 75, 70
1, 21881, Note_on_c, 1, 48, 0
1, 21888, Note_on_c, 0, 79, 0
1, 21888, Note_on_c, 0, 75, 0
1, 21888, Note_on_c, 0, 80, 70
1, 21888, Note_on_c, 0, 77, 70
1, 21933, Note_on_c, 0, 80, 0
1, 21933, Note_on_c, 0, 77, 0
1, 21936, Note_on_c, 1, 60, 70
1, 21936, Note_on_c, 1, 48, 70
1, 21984, Note_on_c, 1, 60, 0
1, 21984, Note_on_c, 1, 48, 0
1, 21984, Note_on_c, 1, 62, 70
1, 21984, Note_on_c, 1, 50, 70
1, 22029, Note_on_c, 1, 62, 0
1, 22029, Note_on_c, 1, 50, 0
1, 22032, Note_on_c, 0, 79, 70
1, 22032, Note_on_c, 0, 75, 70
1, 22080, Note_on_c, 0, 79, 0
1, 22080, Note_on_c, 0, 75, 0
1, 22080, Note_on_c, 0, 77, 70
1, 22080, Note_on_c, 0, 74, 70
1, 22125, Note_on_c, 0, 77, 0
1, 22125, Note_on_c, 0, 74, 0
1, 22128, Note_on_c, 1, 60, 70
1, 22128, Note_on_c, 1, 48, 70
1, 22176, Note_on_c, 1, 60, 0
1, 22176, Note_on_c, 1, 48, 0
1, 22176, Note_on_c, 1, 59, 70
1, 22176, Note_on_c, 1, 47, 70
1, 22221, Note_on_c, 1, 59, 0
1, 22221, Note_on_c, 1, 47, 0
1, 22224, Note_on_c, 0, 77, 70
1, 22224, Note_on_c, 0, 74, 70
1, 22272, Note_on_c, 0, 77, 0
1, 22272, Note_on_c, 0, 74, 0
1, 22272, Note_on_c, 0, 79, 70
1, 22272, Note_on_c, 0, 75, 70
1, 22317, Note_on_c, 0, 79, 0
1, 22317, Note_on_c, 0, 75, 0
1, 22320, Note_on_c, 1, 59, 70
1, 22320, Note_on_c, 1, 47, 70
1, 22368, Note_on_c, 1, 59, 0
1, 22368, Note_on_c, 1, 47, 0
1, 22368, Note_on_c, 1, 60, 70
1, 22368, Note_on_c, 1, 48, 70
1, 22413, Note_on_c, 1, 60, 0
1, 22413, Note_on_c, 1, 48, 0
1, 22416, Note_on_c, 0, 77, 70
1, 22416, Note_on_c, 0, 74, 70
1, 22464, Note_on_c, 0, 77, 0
1, 22464, Note_on_c, 0, 74, 0
1, 22464, Note_on_c, 0, 75, 70
1, 22464, Note_on_c, 0, 72, 70
1, 22509, Note_on_c, 0, 75, 0
1, 22509, Note_on_c, 0, 72, 0
1, 22512, Note_on_c, 1, 58, 70
1, 22512, Note_on_c, 1, 46, 70
1, 22560, Note_on_c, 1, 58, 0
1, 22560, Note_on_c, 1, 46, 0
1, 22560, Note_on_c, 1, 56, 70
1, 22560, Note_on_c, 1, 44, 70
1, 22605, Note_on_c, 1, 56, 0
1, 22605, Note_on_c, 1, 44, 0
1, 22608, Note_on_c, 0, 74, 70
1, 22608, Note_on_c, 0, 71, 70
1, 22656, Note_on_c, 0, 74, 0
1, 22656, Note_on_c, 0, 71, 0
1, 22656, Note_on_c, 0, 75, 70
1, 22656, Note_on_c, 0, 72, 70
1, 22701, Note_on_c, 0, 75, 0
1, 22701, Note_on_c, 0, 72, 0
1, 22704, Note_on_c, 1, 55, 68
1, 22704, Note_on_c, 1, 43, 68
1, 22752, Note_on_c, 1, 55, 0
1, 22752, Note_on_c, 1, 43, 0
1, 22752, Note_on_c, 1, 54, 67
1, 22752, Note_on_c, 1, 42, 67
1, 22797, Note_on_c, 1, 54, 0
1, 22797, Note_on_c, 1, 42, 0
1, 22800, Note_on_c, 0, 75, 70
1, 22800, Note_on_c, 0, 72, 70
1, 22800, Note_on_c, 1, 54, 66
1, 22800, Note_on_c, 1, 42, 66
1, 22820, Note_on_c, 1, 54, 0
1, 22820, Note_on_c, 1, 42, 0
1, 22845, Note_on_c, 0, 75, 0
1, 22845, Note_on_c, 0, 72, 0
1, 22848, Note_on_c, 0, 75, 70
1, 22848, Note_on_c, 0, 72, 64
1, 22848, Note_on_c, 1, 55, 65
1, 22860, Note_on_c, 0, 75, 0
1, 22860, Note_on_c, 0, 77, 70
1, 22872, Note_on_c, 0, 77, 0
1, 22872, Note_on_c, 0, 75, 70
1, 22893, Note_on_c, 1, 55, 0
1, 22896, Note_on_c, 0, 75, 0
1, 22896, Note_on_c, 0, 74, 70
1, 22896, Note_on_c, 0, 72, 0
1, 22896, Note_on_c, 0, 71, 64
1, 22896, Note_on_c, 1, 43, 64
1, 22941, Note_on_c, 0, 74, 0
1, 22941, Note_on_c, 0, 71, 0
1, 22941, Note_on_c, 1, 43, 0
1, 22992, Note_on_c, 0, 67, 75
1, 23007, Note_on_c, 0, 67, 0
1, 23008, Note_on_c, 0, 69, 75
1, 23023, Note_on_c, 0, 69, 0
1, 23024, Note_on_c, 0, 71, 75
1, 23039, Note_on_c, 0, 71, 0
1, 23040, Note_on_c, 0, 72, 75
1, 23040, Note_on_c, 1, 52, 75
1, 23040, Note_on_c, 1, 48, 75
1, 23085, Note_on_c, 0, 72, 0
1, 23088, Note_on_c, 0, 72, 75
1, 23103, Note_on_c, 0, 72, 0
1, 23104, Note_on_c, 0, 74, 75
1, 23119, Note_on_c, 0, 74, 0
1, 23120, Note_on_c, 0, 76, 75
1, 23129, Note_on_c, 1, 52, 0
1, 23129, Note_on_c, 1, 48, 0
1, 23135, Note_on_c, 0, 76, 0
1, 23136, Note_on_c, 0, 72, 75
1, 23181, Note_on_c, 0, 72, 0
1, 23184, Note_on_c, 0, 76, 75
1, 23199, Note_on_c, 0, 76, 0
1, 23200, Note_on_c, 0, 77, 75
1, 23215, Note_on_c, 0, 77, 0
1, 23216, Note_on_c, 0, 79, 75
1, 23231, Note_on_c, 0, 79, 0
1, 23232, Note_on_c, 0, 76, 75
1, 23277, Note_on_c, 0, 76, 0
1, 23280, Note_on_c, 0, 79, 75
1, 23295, Note_on_c, 0, 79, 0
1, 23296, Note_on_c, 0, 81, 75
1, 23311, Note_on_c, 0, 81, 0
1, 23312, Note_on_c, 0, 83, 75
1, 23327, Note_on_c, 0, 83, 0
1, 23328, Note_on_c, 0, 84, 75
1, 23373, Note_on_c, 0, 84, 0
1, 23376, Note_on_c, 0, 79, 75
1, 23376, Note_on_c, 1, 60, 75
1, 23376, Note_on_c, 1, 52, 75
1, 23421, Note_on_c, 0, 79, 0
1, 23421, Note_on_c, 1, 60, 0
1, 23421, Note_on_c, 1, 52, 0
1, 23424, Note_on_c, 0, 81, 75
1, 23424, Note_on_c, 1, 60, 75
1, 23424, Note_on_c, 1, 53, 75
1, 23469, Note_on_c, 0, 81, 0
1, 23472, Note_on_c, 0, 84, 75
1, 23487, Note_on_c, 0, 84, 0
1, 23488, Note_on_c, 0, 81, 75
1, 23503, Note_on_c, 0, 81, 0
1, 23504, Note_on_c, 0, 77, 75
1, 23513, Note_on_c, 1, 60, 0
1, 23513, Note_on_c, 1, 53, 0
1, 23519, Note_on_c, 0, 77, 0
1, 23520, Note_on_c, 0, 76, 75
1, 23520, Note_on_c, 1, 60, 75
1, 23520, Note_on_c, 1, 55, 75
1, 23565, Note_on_c, 0, 76, 0
1, 23565, Note_on_c, 1, 60, 0
1, 23568, Note_on_c, 0, 74, 75
1, 23568, Note_on_c, 1, 59, 75
1, 23580, Note_on_c, 0, 74, 0
1, 23580, Note_on_c, 0, 76, 75
1, 23592, Note_on_c, 0, 76, 0
1, 23592, Note_on_c, 0, 74, 75
1, 23609, Note_on_c, 1, 55, 0
1, 23613, Note_on_c, 0, 74, 0
1, 23613, Note_on_c, 1, 59, 0
1, 23616, Note_on_c, 0, 72, 75
1, 23616, Note_on_c, 1, 60, 75
1, 23661, Note_on_c, 1, 60, 0
1, 23664, Note_on_c, 1, 55, 75
1, 23705, Note_on_c, 0, 72, 0
1, 23709, Note_on_c, 1, 55, 0
1, 23712, Note_on_c, 1, 48, 75
1, 23760, Note_on_c, 0, 67, 75
1, 23775, Note_on_c, 0, 67, 0
1, 23776, Note_on_c, 0, 69, 75
1, 23791, Note_on_c, 0, 69, 0
1, 23792, Note_on_c, 0, 71, 75
1, 23801, Note_on_c, 1, 48, 0
1, 23807, Note_on_c, 0, 71, 0
1, 23808, Note_on_c, 0, 72, 75
1, 23808, Note_on_c, 1, 52, 75
1, 23808, Note_on_c, 1, 48, 75
1, 23853, Note_on_c, 0, 72, 0
1, 23856, Note_on_c, 0, 72, 75
1, 23871, Note_on_c, 0, 72, 0
1, 23872, Note_on_c, 0, 74, 75
1, 23887, Note_on_c, 0, 74, 0
1, 23888, Note_on_c, 0, 76, 75
1, 23897, Note_on_c, 1, 52, 0
1, 23897, Note_on_c, 1, 48, 0
1, 23903, Note_on_c, 0, 76, 0
1, 23904, Note_on_c, 0, 72, 75
1, 23949, Note_on_c, 0, 72, 0
1, 23952, Note_on_c, 0, 76, 75
1, 23967, Note_on_c, 0, 76, 0
1, 23968, Note_on_c, 0, 77, 75
1, 23983, Note_on_c, 0, 77, 0
1, 23984, Note_on_c, 0, 79, 75
1, 23999, Note_on_c, 0, 79, 0
1, 24000, Note_on_c, 0, 76, 75
1, 24045, Note_on_c, 0, 76, 0
1, 24048, Note_on_c, 0, 67, 80
1, 24048, Note_on_c, 1, 52, 80
1, 24048, Note_on_c, 1, 40, 80
1, 24071, Note_on_c, 0, 67, 0
1, 24072, Note_on_c, 0, 79, 80
1, 24093, Note_on_c, 1, 52, 0
1, 24093, Note_on_c, 1, 40, 0
1, 24095, Note_on_c, 0, 79, 0
1, 24096, Note_on_c, 0, 67, 80
1, 24096, Note_on_c, 1, 52, 80
1, 24096, Note_on_c, 1, 40, 80
1, 24119, Note_on_c, 0, 67, 0
1, 24120, Note_on_c, 0, 79, 80
1, 24141, Note_on_c, 1, 52, 0
1, 24141, Note_on_c, 1, 40, 0
1, 24143, Note_on_c, 0, 79, 0
1, 24144, Note_on_c, 0, 67, 80
1, 24144, Note_on_c, 1, 52, 80
1, 24144, Note_on_c, 1, 40, 80
1, 24167, Note_on_c, 0, 67, 0
1, 24168, Note_on_c, 0, 79, 80
1, 24189, Note_on_c, 1, 52, 0
1, 24189, Note_on_c, 1, 40, 0
1, 24191, Note_on_c, 0, 79, 0
1, 24192, Note_on_c, 0, 69, 80
1, 24192, Note_on_c, 1, 53, 80
1, 24192, Note_on_c, 1, 41, 80
1, 24215, Note_on_c, 0, 69, 0
1, 24216, Note_on_c, 0, 79, 80
1, 24237, Note_on_c, 1, 53, 0
1, 24237, Note_on_c, 1, 41, 0
1, 24239, Note_on_c, 0, 79, 0
1, 24240, Note_on_c, 0, 69, 80
1, 24240, Note_on_c, 1, 53, 80
1, 24240, Note_on_c, 1, 41, 80
1, 24263, Note_on_c, 0, 69, 0
1, 24264, Note_on_c, 0, 79, 80
1, 24285, Note_on_c, 1, 53, 0
1, 24285, Note_on_c, 1, 41, 0
1, 24287, Note_on_c, 0, 79, 0
1, 24288, Note_on_c, 0, 69, 80
1, 24288, Note_on_c, 1, 50, 80
1, 24288, Note_on_c, 1, 38, 80
1, 24311, Note_on_c, 0, 69, 0
1, 24312, Note_on_c, 0, 77, 80
1, 24333, Note_on_c, 1, 50, 0
1, 24333, Note_on_c, 1, 38, 0
1, 24335, Note_on_c, 0, 77, 0
1, 24336, Note_on_c, 0, 69, 80
1, 24336, Note_on_c, 1, 50, 80
1, 24336, Note_on_c, 1, 38, 80
1, 24359, Note_on_c, 0, 69, 0
1, 24360, Note_on_c, 0, 77, 80
1, 24381, Note_on_c, 1, 50, 0
1, 24381, Note_on_c, 1, 38, 0
1, 24383, Note_on_c, 0, 77, 0
1, 24384, Note_on_c, 0, 67, 80
1, 24384, Note_on_c, 1, 47, 80
1, 24384, Note_on_c, 1, 35, 80
1, 24407, Note_on_c, 0, 67, 0
1, 24408, Note_on_c, 0, 77, 80
1, 24429, Note_on_c, 1, 47, 0
1, 24429, Note_on_c, 1, 35, 0
1, 24431, Note_on_c, 0, 77, 0
1, 24432, Note_on_c, 0, 67, 80
1, 24432, Note_on_c, 1, 47, 80
1, 24432, Note_on_c, 1, 35, 80
1, 24455, Note_on_c, 0, 67, 0
1, 24456, Note_on_c, 0, 77, 80
1, 24477, Note_on_c, 1, 47, 0
1, 24477, Note_on_c, 1, 35, 0
1, 24479, Note_on_c, 0, 77, 0
1, 24480, Note_on_c, 0, 67, 80
1, 24480, Note_on_c, 1, 48, 80
1, 24480, Note_on_c, 1, 36, 80
1, 24503, Note_on_c, 0, 67, 0
1, 24504, Note_on_c, 0, 76, 80
1, 24525, Note_on_c, 1, 48, 0
1, 24525, Note_on_c, 1, 36, 0
1, 24527, Note_on_c, 0, 76, 0
1, 24528, Note_on_c, 0, 67, 80
1, 24528, Note_on_c, 1, 48, 80
1, 24528, Note_on_c, 1, 36, 80
1, 24551, Note_on_c, 0, 67, 0
1, 24552, Note_on_c, 0, 76, 80
1, 24573, Note_on_c, 1, 48, 0
1, 24573, Note_on_c, 1, 36, 0
1, 24575, Note_on_c, 0, 76, 0
1, 24576, Note_on_c, 0, 65, 80
1, 24576, Note_on_c, 1, 53, 80
1, 24576, Note_on_c, 1, 41, 80
1, 24599, Note_on_c, 0, 65, 0
1, 24600, Note_on_c, 0, 74, 80
1, 24621, Note_on_c, 1, 53, 0
1, 24621, Note_on_c, 1, 41, 0
1, 24623, Note_on_c, 0, 74, 0
1, 24624, Note_on_c, 0, 65, 80
1, 24624, Note_on_c, 1, 53, 80
1, 24624, Note_on_c, 1, 41, 80
1, 24647, Note_on_c, 0, 65, 0
1, 24648, Note_on_c, 0, 74, 80
1, 24669, Note_on_c, 1, 53, 0
1, 24669, Note_on_c, 1, 41, 0
1, 24671, Note_on_c, 0, 74, 0
1, 24672, Note_on_c, 0, 62, 80
1, 24672, Note_on_c, 1, 55, 80
1, 24672, Note_on_c, 1, 43, 80
1, 24695, Note_on_c, 0, 62, 0
1, 24696, Note_on_c, 0, 71, 80
1, 24717, Note_on_c, 1, 55, 0
1, 24717, Note_on_c, 1, 43, 0
1, 24719, Note_on_c, 0, 71, 0
1, 24720, Note_on_c, 0, 62, 80
1, 24720, Note_on_c, 1, 55, 80
1, 24720, Note_on_c, 1, 43, 80
1, 24743, Note_on_c, 0, 62, 0
1, 24744, Note_on_c, 0, 71, 80
1, 24765, Note_on_c, 1, 55, 0
1, 24765, Note_on_c, 1, 43, 0
1, 24767, Note_on_c, 0, 71, 0
1, 24768, Note_on_c, 0, 72, 80
1, 24768, Note_on_c, 0, 64, 80
1, 24768, Note_on_c, 1, 48, 80
1, 24768, Note_on_c, 1, 36, 80
1, 24857, Note_on_c, 0, 72, 0
1, 24857, Note_on_c, 0, 64, 0
1, 24857, Note_on_c, 1, 48, 0
1, 24857, Note_on_c, 1, 36, 0
1, 24960, Note_on_c, 1, 59, 64
1, 24960, Note_on_c, 1, 55, 64
1, 25007, Note_on_c, 1, 59, 0
1, 25007, Note_on_c, 1, 55, 0
1, 25008, Note_on_c, 0, 67, 75
1, 25008, Note_on_c, 1, 59, 64
1, 25008, Note_on_c, 1, 55, 64
1, 25053, Note_on_c, 0, 67, 0
1, 25055, Note_on_c, 1, 59, 0
1, 25055, Note_on_c, 1, 55, 0
1, 25056, Note_on_c, 0, 71, 75
1, 25056, Note_on_c, 1, 59, 64
1, 25056, Note_on_c, 1, 55, 64
1, 25079, Note_on_c, 0, 71, 0
1, 25080, Note_on_c, 0, 67, 76
1, 25103, Note_on_c, 0, 67, 0
1, 25103, Note_on_c, 1, 59, 0
1, 25103, Note_on_c, 1, 55, 0
1, 25104, Note_on_c, 0, 74, 76
1, 25104, Note_on_c, 1, 59, 64
1, 25104, Note_on_c, 1, 55, 64
1, 25127, Note_on_c, 0, 74, 0
1, 25128, Note_on_c, 0, 71, 76
1, 25151, Note_on_c, 0, 71, 0
1, 25151, Note_on_c, 1, 59, 0
1, 25151, Note_on_c, 1, 55, 0
1, 25152, Note_on_c, 0, 77, 77
1, 25152, Note_on_c, 1, 59, 64
1, 25152, Note_on_c, 1, 55, 64
1, 25199, Note_on_c, 1, 59, 0
1, 25199, Note_on_c, 1, 55, 0
1, 25200, Note_on_c, 1, 59, 64
1, 25200, Note_on_c, 1, 55, 64
1, 25219, Note_on_c, 0, 77, 0
1, 25224, Note_on_c, 0, 74, 78
1, 25247, Note_on_c, 0, 74, 0
1, 25247, Note_on_c, 1, 59, 0
1, 25247, Note_on_c, 1, 55, 0
1, 25248, Note_on_c, 0, 76, 78
1, 25248, Note_on_c, 1, 59, 64
1, 25248, Note_on_c, 1, 55, 64
1, 25263, Note_on_c, 0, 76, 0
1, 25264, Note_on_c, 0, 74, 75
1, 25279, Note_on_c, 0, 74, 0
1, 25280, Note_on_c, 0, 76, 75
1, 25295, Note_on_c, 0, 76, 0
1, 25295, Note_on_c, 1, 59, 0
1, 25295, Note_on_c, 1, 55, 0
1, 25296, Note_on_c, 0, 74, 75
1, 25296, Note_on_c, 1, 59, 64
1, 25296, Note_on_c, 1, 55, 64
1, 25311, Note_on_c, 0, 74, 0
1, 25312, Note_on_c, 0, 72, 75
1, 25327, Note_on_c, 0, 72, 0
1, 25328, Note_on_c, 0, 74, 75
1, 25343, Note_on_c, 0, 74, 0
1, 25343, Note_on_c, 1, 59, 0
1, 25343, Note_on_c, 1, 55, 0
1, 25344, Note_on_c, 0, 86, 75
1, 25344, Note_on_c, 1, 59, 64
1, 25344, Note_on_c, 1, 55, 64
1, 25367, Note_on_c, 0, 86, 0
1, 25368, Note_on_c, 0, 84, 75
1, 25391, Note_on_c, 0, 84, 0
1, 25391, Note_on_c, 1, 59, 0
1, 25391, Note_on_c, 1, 55, 0
1, 25392, Note_on_c, 0, 83, 75
1, 25392, Note_on_c, 1, 59, 64
1, 25392, Note_on_c, 1, 55, 64
1, 25415, Note_on_c, 0, 83, 0
1, 25416, Note_on_c, 0, 81, 75
1, 25439, Note_on_c, 0, 81, 0
1, 25439, Note_on_c, 1, 59, 0
1, 25439, Note_on_c, 1, 55, 0
1, 25440, Note_on_c, 0, 79, 75
1, 25440, Note_on_c, 1, 59, 64
1, 25440, Note_on_c, 1, 55, 64
1, 25463, Note_on_c, 0, 79, 0
1, 25464, Note_on_c, 0, 77, 75
1, 25487, Note_on_c, 0, 77, 0
1, 25487, Note_on_c, 1, 59, 0
1, 25487, Note_on_c, 1, 55, 0
1, 25488, Note_on_c, 0, 76, 75
1, 25488, Note_on_c, 1, 59, 64
1, 25488, Note_on_c, 1, 55, 64
1, 25511, Note_on_c, 0, 76, 0
1, 25512, Note_on_c, 0, 74, 75
1, 25535, Note_on_c, 0, 74, 0
1, 25535, Note_on_c, 1, 59, 0
1, 25535, Note_on_c, 1, 55, 0
1, 25536, Note_on_c, 0, 76, 75
1, 25536, Note_on_c, 1, 60, 64
1, 25536, Note_on_c, 1, 55, 64
1, 25581, Note_on_c, 0, 76, 0
1, 25583, Note_on_c, 1, 60, 0
1, 25583, Note_on_c, 1, 55, 0
1, 25584, Note_on_c, 0, 67, 75
1, 25584, Note_on_c, 1, 60, 64
1, 25584, Note_on_c, 1, 55, 64
1, 25629, Note_on_c, 0, 67, 0
1, 25631, Note_on_c, 1, 60, 0
1, 25631, Note_on_c, 1, 55, 0
1, 25632, Note_on_c, 0, 72, 75
1, 25632, Note_on_c, 1, 60, 64
1, 25632, Note_on_c, 1, 55, 64
1, 25655, Note_on_c, 0, 72, 0
1, 25656, Note_on_c, 0, 67, 75
1, 25679, Note_on_c, 0, 67, 0
1, 25679, Note_on_c, 1, 60, 0
1, 25679, Note_on_c, 1, 55, 0
1, 25680, Note_on_c, 0, 76, 75
1, 25680, Note_on_c, 1, 60, 64
1, 25680, Note_on_c, 1, 55, 64
1, 25703, Note_on_c, 0, 76, 0
1, 25704, Note_on_c, 0, 72, 75
1, 25727, Note_on_c, 0, 72, 0
1, 25727, Note_on_c, 1, 60, 0
1, 25727, Note_on_c, 1, 55, 0
1, 25728, Note_on_c, 0, 79, 75
1, 25728, Note_on_c, 1, 60, 64
1, 25728, Note_on_c, 1, 55, 64
1, 25775, Note_on_c, 1, 60, 0
1, 25775, Note_on_c, 1, 55, 0
1, 25776, Note_on_c, 1, 60, 64
1, 25776, Note_on_c, 1, 55, 64
1, 25795, Note_on_c, 0, 79, 0
1, 25800, Note_on_c, 0, 76, 75
1, 25823, Note_on_c, 0, 76, 0
1, 25823, Note_on_c, 1, 60, 0
1, 25823, Note_on_c, 1, 55, 0
1, 25824, Note_on_c, 0, 77, 75
1, 25824, Note_on_c, 1, 60, 64
1, 25824, Note_on_c, 1, 55, 64
1, 25839, Note_on_c, 0, 77, 0
1, 25840, Note_on_c, 0, 76, 75
1, 25855, Note_on_c, 0, 76, 0
1, 25856, Note_on_c, 0, 77, 75
1, 25871, Note_on_c, 0, 77, 0
1, 25871, Note_on_c, 1, 60, 0
1, 25871, Note_on_c, 1, 55, 0
1, 25872, Note_on_c, 0, 76, 75
1, 25872, Note_on_c, 1, 60, 64
1, 25872, Note_on_c, 1, 55, 64
1, 25887, Note_on_c, 0, 76, 0
1, 25888, Note_on_c, 0, 74, 75
1, 25903, Note_on_c, 0, 74, 0
1, 25904, Note_on_c, 0, 76, 75
1, 25919, Note_on_c, 0, 76, 0
1, 25919, Note_on_c, 1, 60, 0
1, 25919, Note_on_c, 1, 55, 0
1, 25920, Note_on_c, 0, 84, 75
1, 25920, Note_on_c, 1, 60, 64
1, 25920, Note_on_c, 1, 55, 64
1, 25943, Note_on_c, 0, 84, 0
1, 25944, Note_on_c, 0, 83, 75
1, 25967, Note_on_c, 0, 83, 0
1, 25967, Note_on_c, 1, 60, 0
1, 25967, Note_on_c, 1, 55, 0
1, 25968, Note_on_c, 0, 81, 75
1, 25968, Note_on_c, 1, 60, 64
1, 25968, Note_on_c, 1, 55, 64
1, 25991, Note_on_c, 0, 81, 0
1, 25992, Note_on_c, 0, 79, 75
1, 26015, Note_on_c, 0, 79, 0
1, 26015, Note_on_c, 1, 60, 0
1, 26015, Note_on_c, 1, 55, 0
1, 26016, Note_on_c, 0, 77, 75
1, 26016, Note_on_c, 1, 60, 64
1, 26016, Note_on_c, 1, 55, 64
1, 26039, Note_on_c, 0, 77, 0
1, 26040, Note_on_c, 0, 76, 75
1, 26063, Note_on_c, 0, 76, 0
1, 26063, Note_on_c, 1, 60, 0
1, 26063, Note_on_c, 1, 55, 0
1, 26064, Note_on_c, 0, 74, 75
1, 26064, Note_on_c, 1, 60, 64
1, 26064, Note_on_c, 1, 55, 64
1, 26087, Note_on_c, 0, 74, 0
1, 26088, Note_on_c, 0, 72, 75
1, 26111, Note_on_c, 0, 72, 0
1, 26111, Note_on_c, 1, 60, 0
1, 26111, Note_on_c, 1, 55, 0
1, 26112, Note_on_c, 0, 74, 75
1, 26112, Note_on_c, 1, 59, 64
1, 26112, Note_on_c, 1, 55, 64
1, 26157, Note_on_c, 0, 74, 0
1, 26159, Note_on_c, 1, 59, 0
1, 26159, Note_on_c, 1, 55, 0
1, 26160, Note_on_c, 0, 67, 75
1, 26160, Note_on_c, 1, 59, 64
1, 26160, Note_on_c, 1, 55, 64
1, 26205, Note_on_c, 0, 67, 0
1, 26207, Note_on_c, 1, 59, 0
1, 26207, Note_on_c, 1, 55, 0
1, 26208, Note_on_c, 0, 71, 75
1, 26208, Note_on_c, 1, 59, 64
1, 26208, Note_on_c, 1, 55, 64
1, 26231, Note_on_c, 0, 71, 0
1, 26232, Note_on_c, 0, 67, 76
1, 26255, Note_on_c, 0, 67, 0
1, 26255, Note_on_c, 1, 59, 0
1, 26255, Note_on_c, 1, 55, 0
1, 26256, Note_on_c, 0, 74, 76
1, 26256, Note_on_c, 1, 59, 64
1, 26256, Note_on_c, 1, 55, 64
1, 26279, Note_on_c, 0, 74, 0
1, 26280, Note_on_c, 0, 71, 76
1, 26303, Note_on_c, 0, 71, 0
1, 26303, Note_on_c, 1, 59, 0
1, 26303, Note_on_c, 1, 55, 0
1, 26304, Note_on_c, 0, 77, 77
1, 26304, Note_on_c, 1, 59, 64
1, 26304, Note_on_c, 1, 55, 64
1, 26351, Note_on_c, 1, 59, 0
1, 26351, Note_on_c, 1, 55, 0
1, 26352, Note_on_c, 1, 59, 64
1, 26352, Note_on_c, 1, 55, 64
1, 26371, Note_on_c, 0, 77, 0
1, 26376, Note_on_c, 0, 74, 78
1, 26399, Note_on_c, 0, 74, 0
1, 26399, Note_on_c, 1, 59, 0
1, 26399, Note_on_c, 1, 55, 0
1, 26400, Note_on_c, 0, 76, 78
1, 26400, Note_on_c, 1, 59, 64
1, 26400, Note_on_c, 1, 55, 64
1, 26415, Note_on_c, 0, 76, 0
1, 26416, Note_on_c, 0, 74, 75
1, 26431, Note_on_c, 0, 74, 0
1, 26432, Note_on_c, 0, 76, 75
1, 26447, Note_on_c, 0, 76, 0
1, 26447, Note_on_c, 1, 59, 0
1, 26447, Note_on_c, 1, 55, 0
1, 26448, Note_on_c, 0, 74, 75
1, 26448, Note_on_c, 1, 59, 64
1, 26448, Note_on_c, 1, 55, 64
1, 26463, Note_on_c, 0, 74, 0
1, 26464, Note_on_c, 0, 72, 75
1, 26479, Note_on_c, 0, 72, 0
1, 26480, Note_on_c, 0, 74, 75
1, 26495, Note_on_c, 0, 74, 0
1, 26495, Note_on_c, 1, 59, 0
1, 26495, Note_on_c, 1, 55, 0
1, 26496, Note_on_c, 0, 86, 75
1, 26496, Note_on_c, 1, 59, 64
1, 26496, Note_on_c, 1, 55, 64
1, 26519, Note_on_c, 0, 86, 0
1, 26520, Note_on_c, 0, 84, 75
1, 26543, Note_on_c, 0, 84, 0
1, 26543, Note_on_c, 1, 59, 0
1, 26543, Note_on_c, 1, 55, 0
1, 26544, Note_on_c, 0, 83, 75
1, 26544, Note_on_c, 1, 59, 64
1, 26544, Note_on_c, 1, 55, 64
1, 26567, Note_on_c, 0, 83, 0
1, 26568, Note_on_c, 0, 81, 75
1, 26591, Note_on_c, 0, 81, 0
1, 26591, Note_on_c, 1, 59, 0
1, 26591, Note_on_c, 1, 55, 0
1, 26592, Note_on_c, 0, 79, 75
1, 26592, Note_on_c, 1, 59, 64
1, 26592, Note_on_c, 1, 55, 64
1, 26615, Note_on_c, 0, 79, 0
1, 26616, Note_on_c, 0, 77, 75
1, 26639, Note_on_c, 0, 77, 0
1, 26639, Note_on_c, 1, 59, 0
1, 26639, Note_on_c, 1, 55, 0
1, 26640, Note_on_c, 0, 76, 75
1, 26640, Note_on_c, 1, 59, 64
1, 26640, Note_on_c, 1, 55, 64
1, 26663, Note_on_c, 0, 76, 0
1, 26664, Note_on_c, 0, 74, 75
1, 26687, Note_on_c, 0, 74, 0
1, 26687, Note_on_c, 1, 59, 0
1, 26687, Note_on_c, 1, 55, 0
1, 26688, Note_on_c, 1, 60, 64
1, 26688, Note_on_c, 1, 48, 64
1, 26712, Note_on_c, 0, 76, 70
1, 26735, Note_on_c, 0, 76, 0
1, 26736, Note_on_c, 0, 79, 70
1, 26759, Note_on_c, 0, 79, 0
1, 26760, Note_on_c, 0, 76, 70
1, 26777, Note_on_c, 1, 60, 0
1, 26777, Note_on_c, 1, 48, 0
1, 26783, Note_on_c, 0, 76, 0
1, 26784, Note_on_c, 1, 70, 70
1, 26808, Note_on_c, 0, 74, 70
1, 26829, Note_on_c, 1, 70, 0
1, 26831, Note_on_c, 0, 74, 0
1, 26832, Note_on_c, 0, 79, 70
1, 26855, Note_on_c, 0, 79, 0
1, 26856, Note_on_c, 0, 74, 70
1, 26879, Note_on_c, 0, 74, 0
1, 26880, Note_on_c, 1, 69, 70
1, 26904, Note_on_c, 0, 73, 70
1, 26925, Note_on_c, 1, 69, 0
1, 26927, Note_on_c, 0, 73, 0
1, 26928, Note_on_c, 0, 79, 70
1, 26951, Note_on_c, 0, 79, 0
1, 26952, Note_on_c, 0, 73, 70
1, 26975, Note_on_c, 0, 73, 0
1, 26976, Note_on_c, 1, 61, 80
1, 26976, Note_on_c, 1, 49, 80
1, 27000, Note_on_c, 0, 69, 80
1, 27023, Note_on_c, 0, 69, 0
1, 27024, Note_on_c, 0, 79, 80
1, 27047, Note_on_c, 0, 79, 0
1, 27048, Note_on_c, 0, 69, 80
1, 27065, Note_on_c, 1, 61, 0
1, 27065, Note_on_c, 1, 49, 0
1, 27071, Note_on_c, 0, 69, 0
1, 27072, Note_on_c, 1, 62, 80
1, 27072, Note_on_c, 1, 50, 80
1, 27096, Note_on_c, 0, 69, 80
1, 27119, Note_on_c, 0, 69, 0
1, 27120, Note_on_c, 0, 77, 80
1, 27143, Note_on_c, 0, 77, 0
1, 27144, Note_on_c, 0, 69, 80
1, 27161, Note_on_c, 1, 62, 0
1, 27161, Note_on_c, 1, 50, 0
1, 27167, Note_on_c, 0, 69, 0
1, 27168, Note_on_c, 1, 60, 80
1, 27168, Note_on_c, 1, 48, 80
1, 27192, Note_on_c, 0, 69, 80
1, 27215, Note_on_c, 0, 69, 0
1, 27216, Note_on_c, 0, 76, 80
1, 27239, Note_on_c, 0, 76, 0
1, 27240, Note_on_c, 0, 69, 80
1, 27257, Note_on_c, 1, 60, 0
1, 27257, Note_on_c, 1, 48, 0
1, 27263, Note_on_c, 0, 69, 0
1, 27264, Note_on_c, 1, 59, 80
1, 27264, Note_on_c, 1, 47, 80
1, 27288, Note_on_c, 0, 69, 80
1, 27311, Note_on_c, 0, 69, 0
1, 27312, Note_on_c, 0, 75, 80
1, 27335, Note_on_c, 0, 75, 0
1, 27336, Note_on_c, 0, 69, 80
1, 27353, Note_on_c, 1, 59, 0
1, 27353, Note_on_c, 1, 47, 0
1, 27359, Note_on_c, 0, 69, 0
1, 27360, Note_on_c, 1, 63, 70
1, 27384, Note_on_c, 0, 69, 70
1, 27405, Note_on_c, 1, 63, 0
1, 27407, Note_on_c, 0, 69, 0
1, 27408, Note_on_c, 0, 78, 70
1, 27431, Note_on_c, 0, 78, 0
1, 27432, Note_on_c, 0, 69, 70
1, 27455, Note_on_c, 0, 69, 0
1, 27456, Note_on_c, 1, 64, 70
1, 27480, Note_on_c, 0, 67, 70
1, 27501, Note_on_c, 1, 64, 0
1, 27503, Note_on_c, 0, 67, 0
1, 27504, Note_on_c, 0, 78, 70
1, 27527, Note_on_c, 0, 78, 0
1, 27528, Note_on_c, 0, 67, 70
1, 27551, Note_on_c, 0, 67, 0
1, 27552, Note_on_c, 1, 60, 80
1, 27552, Note_on_c, 1, 48, 80
1, 27576, Note_on_c, 0, 67, 80
1, 27599, Note_on_c, 0, 67, 0
1, 27600, Note_on_c, 0, 76, 80
1, 27623, Note_on_c, 0, 76, 0
1, 27624, Note_on_c, 0, 67, 80
1, 27641, Note_on_c, 1, 60, 0
1, 27641, Note_on_c, 1, 48, 0
1, 27647, Note_on_c, 0, 67, 0
1, 27648, Note_on_c, 1, 57, 80
1, 27648, Note_on_c, 1, 45, 80
1, 27672, Note_on_c, 0, 65, 80
1, 27695, Note_on_c, 0, 65, 0
1, 27696, Note_on_c, 0, 76, 80
1, 27719, Note_on_c, 0, 76, 0
1, 27720, Note_on_c, 0, 65, 80
1, 27737, Note_on_c, 1, 57, 0
1, 27737, Note_on_c, 1, 45, 0
1, 27743, Note_on_c, 0, 65, 0
1, 27744, Note_on_c, 1, 59, 80
1, 27744, Note_on_c, 1, 47, 80
1, 27768, Note_on_c, 0, 65, 80
1, 27791, Note_on_c, 0, 65, 0
1, 27792, Note_on_c, 0, 74, 80
1, 27815, Note_on_c, 0, 74, 0
1, 27816, Note_on_c, 0, 65, 80
1, 27833, Note_on_c, 1, 59, 0
1, 27833, Note_on_c, 1, 47, 0
1, 27839, Note_on_c, 0, 65, 0
1, 27840, Note_on_c, 1, 56, 80
1, 27840, Note_on_c, 1, 44, 80
1, 27864, Note_on_c, 0, 64, 80
1, 27887, Note_on_c, 0, 64, 0
1, 27888, Note_on_c, 0, 74, 80
1, 27911, Note_on_c, 0, 74, 0
1, 27912, Note_on_c, 0, 64, 80
1, 27929, Note_on_c, 1, 56, 0
1, 27929, Note_on_c, 1, 44, 0
1, 27935, Note_on_c, 0, 64, 0
1, 27936, Note_on_c, 1, 57, 80
1, 27936, Note_on_c, 1, 45, 80
1, 27960, Note_on_c, 0, 64, 80
1, 27983, Note_on_c, 0, 64, 0
1, 27984, Note_on_c, 0, 72, 80
1, 28007, Note_on_c, 0, 72, 0
1, 28008, Note_on_c, 0, 64, 80
1, 28025, Note_on_c, 1, 57, 0
1, 28025, Note_on_c, 1, 45, 0
1, 28031, Note_on_c, 0, 64, 0
1, 28032, Note_on_c, 1, 53, 80
1, 28032, Note_on_c, 1, 41, 80
1, 28056, Note_on_c, 0, 62, 80
1, 28079, Note_on_c, 0, 62, 0
1, 28080, Note_on_c, 0, 72, 80
1, 28103, Note_on_c, 0, 72, 0
1, 28104, Note_on_c, 0, 62, 81
1, 28121, Note_on_c, 1, 53, 0
1, 28121, Note_on_c, 1, 41, 0
1, 28127, Note_on_c, 0, 62, 0
1, 28128, Note_on_c, 1, 54, 80
1, 28128, Note_on_c, 1, 42, 80
1, 28152, Note_on_c, 0, 62, 82
1, 28175, Note_on_c, 0, 62, 0
1, 28176, Note_on_c, 0, 72, 82
1, 28199, Note_on_c, 0, 72, 0
1, 28200, Note_on_c, 0, 62, 83
1, 28217, Note_on_c, 1, 54, 0
1, 28217, Note_on_c, 1, 42, 0
1, 28223, Note_on_c, 0, 62, 0
1, 28224, Note_on_c, 0, 71, 83
1, 28224, Note_on_c, 1, 43, 84
1, 28247, Note_on_c, 1, 43, 0
1, 28248, Note_on_c, 1, 55, 86
1, 28271, Note_on_c, 1, 55, 0
1, 28272, Note_on_c, 1, 43, 86
1, 28295, Note_on_c, 1, 43, 0
1, 28296, Note_on_c, 1, 55, 86
1, 28313, Note_on_c, 0, 71, 0
1, 28319, Note_on_c, 1, 55, 0
1, 28320, Note_on_c, 1, 43, 86
1, 28343, Note_on_c, 1, 43, 0
1, 28344, Note_on_c, 1, 55, 86
1, 28367, Note_on_c, 1, 55, 0
1, 28368, Note_on_c, 0, 62, 86
1, 28368, Note_on_c, 0, 59, 86
1, 28368, Note_on_c, 1, 43, 86
1, 28391, Note_on_c, 1, 43, 0
1, 28392, Note_on_c, 1, 55, 85
1, 28415, Note_on_c, 1, 55, 0
1, 28416, Note_on_c, 0, 62, 0
1, 28416, Note_on_c, 0, 59, 0
1, 28416, Note_on_c, 0, 64, 84
1, 28416, Note_on_c, 0, 60, 84
1, 28416, Note_on_c, 1, 43, 84
1, 28439, Note_on_c, 1, 43, 0
1, 28440, Note_on_c, 1, 55, 83
1, 28461, Note_on_c, 0, 64, 0
1, 28461, Note_on_c, 0, 60, 0
1, 28463, Note_on_c, 1, 55, 0
1, 28464, Note_on_c, 1, 43, 82
1, 28487, Note_on_c, 1, 43, 0
1, 28488, Note_on_c, 1, 55, 81
1, 28511, Note_on_c, 1, 55, 0
1, 28512, Note_on_c, 1, 43, 80
1, 28535, Note_on_c, 1, 43, 0
1, 28536, Note_on_c, 1, 55, 80
1, 28559, Note_on_c, 1, 55, 0
1, 28560, Note_on_c, 0, 72, 79
1, 28560, Note_on_c, 0, 66, 79
1, 28560, Note_on_c, 1, 43, 79
1, 28583, Note_on_c, 1, 43, 0
1, 28584, Note_on_c, 1, 55, 78
1, 28607, Note_on_c, 1, 55, 0
1, 28608, Note_on_c, 0, 72, 0
1, 28608, Note_on_c, 0, 66, 0
1, 28608, Note_on_c, 0, 71, 77
1, 28608, Note_on_c, 0, 67, 77
1, 28608, Note_on_c, 1, 43, 77
1, 28631, Note_on_c, 1, 43, 0
1, 28632, Note_on_c, 1, 55, 76
1, 28653, Note_on_c, 0, 71, 0
1, 28653, Note_on_c, 0, 67, 0
1, 28655, Note_on_c, 1, 55, 0
1, 28656, Note_on_c, 1, 43, 75
1, 28679, Note_on_c, 1, 43, 0
1, 28680, Note_on_c, 1, 55, 75
1, 28703, Note_on_c, 1, 55, 0
1, 28704, Note_on_c, 1, 43, 74
1, 28727, Note_on_c, 1, 43, 0
1, 28728, Note_on_c, 1, 55, 73
1, 28751, Note_on_c, 1, 55, 0
1, 28752, Note_on_c, 0, 62, 72
1, 28752, Note_on_c, 0, 59, 72
1, 28752, Note_on_c, 1, 43, 72
1, 28775, Note_on_c, 1, 43, 0
1, 28776, Note_on_c, 1, 55, 71
1, 28799, Note_on_c, 1, 55, 0
1, 28800, Note_on_c, 0, 62, 0
1, 28800, Note_on_c, 0, 59, 0
1, 28800, Note_on_c, 0, 64, 70
1, 28800, Note_on_c, 0, 60, 70
1, 28800, Note_on_c, 1, 43, 70
1, 28823, Note_on_c, 1, 43, 0
1, 28824, Note_on_c, 1, 55, 69
1, 28845, Note_on_c, 0, 64, 0
1, 28845, Note_on_c, 0, 60, 0
1, 28847, Note_on_c, 1, 55, 0
1, 28848, Note_on_c, 1, 43, 69
1, 28871, Note_on_c, 1, 43, 0
1, 28872, Note_on_c, 1, 55, 68
1, 28895, Note_on_c, 1, 55, 0
1, 28896, Note_on_c, 1, 43, 67
1, 28919, Note_on_c, 1, 43, 0
1, 28920, Note_on_c, 1, 55, 66
1, 28943, Note_on_c, 1, 55, 0
1, 28944, Note_on_c, 0, 66, 65
1, 28944, Note_on_c, 0, 60, 65
1, 28944, Note_on_c, 1, 43, 65
1, 28967, Note_on_c, 1, 43, 0
1, 28968, Note_on_c, 1, 55, 64
1, 28991, Note_on_c, 1, 55, 0
1, 28992, Note_on_c, 0, 66, 0
1, 28992, Note_on_c, 0, 60, 0
1, 28992, Note_on_c, 0, 67, 64
1, 28992, Note_on_c, 0, 59, 64
1, 28992, Note_on_c, 1, 43, 64
1, 29081, Note_on_c, 0, 67, 0
1, 29081, Note_on_c, 0, 59, 0
1, 29081, Note_on_c, 1, 43, 0
1, 29184, Note_on_c, 1, 64, 64
1, 29184, Note_on_c, 1, 60, 64
1, 29231, Note_on_c, 1, 64, 0
1, 29231, Note_on_c, 1, 60, 0
1, 29232, Note_on_c, 0, 72, 75
1, 29232, Note_on_c, 1, 64, 64
1, 29232, Note_on_c, 1, 60, 64
1, 29277, Note_on_c, 0, 72, 0
1, 29279, Note_on_c, 1, 64, 0
1, 29279, Note_on_c, 1, 60, 0
1, 29280, Note_on_c, 0, 76, 76
1, 29280, Note_on_c, 1, 64, 64
1, 29280, Note_on_c, 1, 60, 64
1, 29303, Note_on_c, 0, 76, 0
1, 29304, Note_on_c, 0, 72, 77
1, 29327, Note_on_c, 0, 72, 0
1, 29327, Note_on_c, 1, 64, 0
1, 29327, Note_on_c, 1, 60, 0
1, 29328, Note_on_c, 0, 79, 78
1, 29328, Note_on_c, 1, 64, 64
1, 29328, Note_on_c, 1, 60, 64
1, 29351, Note_on_c, 0, 79, 0
1, 29352, Note_on_c, 0, 76, 79
1, 29375, Note_on_c, 0, 76, 0
1, 29375, Note_on_c, 1, 64, 0
1, 29375, Note_on_c, 1, 60, 0
1, 29376, Note_on_c, 0, 84, 80
1, 29376, Note_on_c, 1, 64, 64
1, 29376, Note_on_c, 1, 60, 64
1, 29423, Note_on_c, 1, 64, 0
1, 29423, Note_on_c, 1, 60, 0
1, 29424, Note_on_c, 1, 64, 64
1, 29424, Note_on_c, 1, 60, 64
1, 29443, Note_on_c, 0, 84, 0
1, 29448, Note_on_c, 0, 79, 76
1, 29471, Note_on_c, 0, 79, 0
1, 29471, Note_on_c, 1, 64, 0
1, 29471, Note_on_c, 1, 60, 0
1, 29472, Note_on_c, 0, 81, 75
1, 29472, Note_on_c, 1, 64, 64
1, 29472, Note_on_c, 1, 60, 64
1, 29487, Note_on_c, 0, 81, 0
1, 29488, Note_on_c, 0, 79, 75
1, 29503, Note_on_c, 0, 79, 0
1, 29504, Note_on_c, 0, 81, 75
1, 29519, Note_on_c, 0, 81, 0
1, 29519, Note_on_c, 1, 64, 0
1, 29519, Note_on_c, 1, 60, 0
1, 29520, Note_on_c, 0, 79, 75
1, 29520, Note_on_c, 1, 64, 64
1, 29520, Note_on_c, 1, 60, 64
1, 29535, Note_on_c, 0, 79, 0
1, 29536, Note_on_c, 0, 81, 75
1, 29551, Note_on_c, 0, 81, 0
1, 29552, Note_on_c, 0, 79, 75
1, 29567, Note_on_c, 0, 79, 0
1, 29567, Note_on_c, 1, 64, 0
1, 29567, Note_on_c, 1, 60, 0
1, 29568, Note_on_c, 1, 65, 64
1, 29568, Note_on_c, 1, 60, 64
1, 29615, Note_on_c, 1, 65, 0
1, 29615, Note_on_c, 1, 60, 0
1, 29616, Note_on_c, 0, 72, 75
1, 29616, Note_on_c, 1, 65, 64
1, 29616, Note_on_c, 1, 60, 64
1, 29661, Note_on_c, 0, 72, 0
1, 29663, Note_on_c, 1, 65, 0
1, 29663, Note_on_c, 1, 60, 0
1, 29664, Note_on_c, 0, 77, 77
1, 29664, Note_on_c, 1, 65, 64
1, 29664, Note_on_c, 1, 60, 64
1, 29687, Note_on_c, 0, 77, 0
1, 29688, Note_on_c, 0, 72, 78
1, 29711, Note_on_c, 0, 72, 0
1, 29711, Note_on_c, 1, 65, 0
1, 29711, Note_on_c, 1, 60, 0
1, 29712, Note_on_c, 0, 81, 79
1, 29712, Note_on_c, 1, 65, 64
1, 29712, Note_on_c, 1, 60, 64
1, 29735, Note_on_c, 0, 81, 0
1, 29736, Note_on_c, 0, 77, 80
1, 29759, Note_on_c, 0, 77, 0
1, 29759, Note_on_c, 1, 65, 0
1, 29759, Note_on_c, 1, 60, 0
1, 29760, Note_on_c, 0, 84, 79
1, 29760, Note_on_c, 1, 65, 64
1, 29760, Note_on_c, 1, 60, 64
1, 29807, Note_on_c, 1, 65, 0
1, 29807, Note_on_c, 1, 60, 0
1, 29808, Note_on_c, 1, 65, 64
1, 29808, Note_on_c, 1, 60, 64
1, 29827, Note_on_c, 0, 84, 0
1, 29832, Note_on_c, 0, 81, 76
1, 29855, Note_on_c, 0, 81, 0
1, 29855, Note_on_c, 1, 65, 0
1, 29855, Note_on_c, 1, 60, 0
1, 29856, Note_on_c, 0, 83, 75
1, 29856, Note_on_c, 1, 65, 64
1, 29856, Note_on_c, 1, 60, 64
1, 29871, Note_on_c, 0, 83, 0
1, 29872, Note_on_c, 0, 81, 75
1, 29887, Note_on_c, 0, 81, 0
1, 29888, Note_on_c, 0, 83, 75
1, 29903, Note_on_c, 0, 83, 0
1, 29903, Note_on_c, 1, 65, 0
1, 29903, Note_on_c, 1, 60, 0
1, 29904, Note_on_c, 0, 81, 75
1, 29904, Note_on_c, 1, 65, 64
1, 29904, Note_on_c, 1, 60, 64
1, 29919, Note_on_c, 0, 81, 0
1, 29920, Note_on_c, 0, 83, 75
1, 29935, Note_on_c, 0, 83, 0
1, 29936, Note_on_c, 0, 81, 75
1, 29951, Note_on_c, 0, 81, 0
1, 29951, Note_on_c, 1, 65, 0
1, 29951, Note_on_c, 1, 60, 0
1, 29952, Note_on_c, 1, 64, 64
1, 29952, Note_on_c, 1, 60, 64
1, 29999, Note_on_c, 1, 64, 0
1, 29999, Note_on_c, 1, 60, 0
1, 30000, Note_on_c, 0, 72, 75
1, 30000, Note_on_c, 1, 64, 64
1, 30000, Note_on_c, 1, 60, 64
1, 30045, Note_on_c, 0, 72, 0
1, 30047, Note_on_c, 1, 64, 0
1, 30047, Note_on_c, 1, 60, 0
1, 30048, Note_on_c, 0, 76, 76
1, 30048, Note_on_c, 1, 64, 64
1, 30048, Note_on_c, 1, 60, 64
1, 30071, Note_on_c, 0, 76, 0
1, 30072, Note_on_c, 0, 72, 77
1, 30095, Note_on_c, 0, 72, 0
1, 30095, Note_on_c, 1, 64, 0
1, 30095, Note_on_c, 1, 60, 0
1, 30096, Note_on_c, 0, 79, 78
1, 30096, Note_on_c, 1, 64, 64
1, 30096, Note_on_c, 1, 60, 64
1, 30119, Note_on_c, 0, 79, 0
1, 30120, Note_on_c, 0, 76, 79
1, 30143, Note_on_c, 0, 76, 0
1, 30143, Note_on_c, 1, 64, 0
1, 30143, Note_on_c, 1, 60, 0
1, 30144, Note_on_c, 0, 84, 80
1, 30144, Note_on_c, 1, 64, 64
1, 30144, Note_on_c, 1, 60, 64
1, 30191, Note_on_c, 1, 64, 0
1, 30191, Note_on_c, 1, 60, 0
1, 30192, Note_on_c, 1, 64, 64
1, 30192, Note_on_c, 1, 60, 64
1, 30211, Note_on_c, 0, 84, 0
1, 30216, Note_on_c, 0, 79, 76
1, 30239, Note_on_c, 0, 79, 0
1, 30239, Note_on_c, 1, 64, 0
1, 30239, Note_on_c, 1, 60, 0
1, 30240, Note_on_c, 0, 81, 75
1, 30240, Note_on_c, 1, 64, 64
1, 30240, Note_on_c, 1, 60, 64
1, 30255, Note_on_c, 0, 81, 0
1, 30256, Note_on_c, 0, 79, 75
1, 30271, Note_on_c, 0, 79, 0
1, 30272, Note_on_c, 0, 81, 75
1, 30287, Note_on_c, 0, 81, 0
1, 30287, Note_on_c, 1, 64, 0
1, 30287, Note_on_c, 1, 60, 0
1, 30288, Note_on_c, 0, 79, 75
1, 30288, Note_on_c, 1, 64, 64
1, 30288, Note_on_c, 1, 60, 64
1, 30303, Note_on_c, 0, 79, 0
1, 30304, Note_on_c, 0, 81, 75
1, 30319, Note_on_c, 0, 81, 0
1, 30320, Note_on_c, 0, 79, 75
1, 30335, Note_on_c, 0, 79, 0
1, 30335, Note_on_c, 1, 64, 0
1, 30335, Note_on_c, 1, 60, 0
1, 30336, Note_on_c, 0, 79, 75
1, 30336, Note_on_c, 1, 62, 70
1, 30336, Note_on_c, 1, 55, 75
1, 30359, Note_on_c, 0, 79, 0
1, 30360, Note_on_c, 0, 77, 75
1, 30381, Note_on_c, 1, 62, 0
1, 30383, Note_on_c, 0, 77, 0
1, 30384, Note_on_c, 0, 86, 75
1, 30384, Note_on_c, 1, 59, 70
1, 30407, Note_on_c, 0, 86, 0
1, 30408, Note_on_c, 0, 77, 75
1, 30429, Note_on_c, 1, 59, 0
1, 30431, Note_on_c, 0, 77, 0
1, 30432, Note_on_c, 0, 76, 75
1, 30432, Note_on_c, 1, 60, 70
1, 30477, Note_on_c, 0, 76, 0
1, 30477, Note_on_c, 1, 60, 0
1, 30480, Note_on_c, 0, 84, 75
1, 30480, Note_on_c, 1, 64, 70
1, 30513, Note_on_c, 1, 55, 0
1, 30525, Note_on_c, 0, 84, 0
1, 30525, Note_on_c, 1, 64, 0
1, 30528, Note_on_c, 0, 79, 70
1, 30528, Note_on_c, 1, 62, 70
1, 30528, Note_on_c, 1, 55, 75
1, 30551, Note_on_c, 0, 79, 0
1, 30552, Note_on_c, 0, 77, 70
1, 30573, Note_on_c, 1, 62, 0
1, 30575, Note_on_c, 0, 77, 0
1, 30576, Note_on_c, 0, 86, 70
1, 30576, Note_on_c, 1, 59, 70
1, 30599, Note_on_c, 0, 86, 0
1, 30600, Note_on_c, 0, 77, 70
1, 30621, Note_on_c, 1, 59, 0
1, 30623, Note_on_c, 0, 77, 0
1, 30624, Note_on_c, 0, 76, 70
1, 30624, Note_on_c, 1, 60, 70
1, 30669, Note_on_c, 0, 76, 0
1, 30669, Note_on_c, 1, 60, 0
1, 30672, Note_on_c, 0, 84, 70
1, 30672, Note_on_c, 1, 64, 70
1, 30705, Note_on_c, 1, 55, 0
1, 30717, Note_on_c, 0, 84, 0
1, 30717, Note_on_c, 1, 64, 0
1, 30720, Note_on_c, 1, 62, 75
1, 30720, Note_on_c, 1, 55, 75
1, 30744, Note_on_c, 0, 77, 75
1, 30767, Note_on_c, 0, 77, 0
1, 30768, Note_on_c, 0, 86, 75
1, 30791, Note_on_c, 0, 86, 0
1, 30792, Note_on_c, 0, 77, 75
1, 30809, Note_on_c, 1, 62, 0
1, 30809, Note_on_c, 1, 55, 0
1, 30815, Note_on_c, 0, 77, 0
1, 30816, Note_on_c, 1, 60, 75
1, 30816, Note_on_c, 1, 55, 75
1, 30840, Note_on_c, 0, 76, 75
1, 30863, Note_on_c, 0, 76, 0
1, 30864, Note_on_c, 0, 84, 75
1, 30887, Note_on_c, 0, 84, 0
1, 30888, Note_on_c, 0, 76, 75
1, 30905, Note_on_c, 1, 60, 0
1, 30905, Note_on_c, 1, 55, 0
1, 30911, Note_on_c, 0, 76, 0
1, 30912, Note_on_c, 0, 76, 75
1, 30912, Note_on_c, 1, 60, 75
1, 30912, Note_on_c, 1, 55, 75
1, 30924, Note_on_c, 0, 76, 0
1, 30924, Note_on_c, 0, 77, 75
1, 30936, Note_on_c, 0, 77, 0
1, 30936, Note_on_c, 0, 76, 75
1, 30957, Note_on_c, 0, 76, 0
1, 30957, Note_on_c, 1, 60, 0
1, 30960, Note_on_c, 0, 74, 75
1, 30960, Note_on_c, 1, 59, 75
1, 31001, Note_on_c, 1, 55, 0
1, 31005, Note_on_c, 0, 74, 0
1, 31005, Note_on_c, 1, 59, 0
1, 31056, Note_on_c, 0, 72, 70
1, 31101, Note_on_c, 0, 72, 0
1, 31104, Note_on_c, 0, 72, 70
1, 31127, Note_on_c, 0, 72, 0
1, 31128, Note_on_c, 0, 71, 70
1, 31151, Note_on_c, 0, 71, 0
1, 31152, Note_on_c, 0, 74, 70
1, 31175, Note_on_c, 0, 74, 0
1, 31176, Note_on_c, 0, 72, 70
1, 31199, Note_on_c, 0, 72, 0
1, 31200, Note_on_c, 0, 76, 70
1, 31223, Note_on_c, 0, 76, 0
1, 31224, Note_on_c, 0, 72, 70
1, 31247, Note_on_c, 0, 72, 0
1, 31248, Note_on_c, 0, 71, 70
1, 31271, Note_on_c, 0, 71, 0
1, 31272, Note_on_c, 0, 72, 70
1, 31295, Note_on_c, 0, 72, 0
1, 31296, Note_on_c, 0, 67, 75
1, 31296, Note_on_c, 1, 64, 80
1, 31319, Note_on_c, 0, 67, 0
1, 31320, Note_on_c, 0, 72, 75
1, 31341, Note_on_c, 1, 64, 0
1, 31343, Note_on_c, 0, 72, 0
1, 31344, Note_on_c, 0, 69, 75
1, 31344, Note_on_c, 1, 65, 80
1, 31367, Note_on_c, 0, 69, 0
1, 31368, Note_on_c, 0, 72, 75
1, 31389, Note_on_c, 1, 65, 0
1, 31391, Note_on_c, 0, 72, 0
1, 31392, Note_on_c, 0, 67, 75
1, 31392, Note_on_c, 1, 64, 80
1, 31437, Note_on_c, 0, 67, 0
1, 31437, Note_on_c, 1, 64, 0
1, 31440, Note_on_c, 0, 72, 70
1, 31485, Note_on_c, 0, 72, 0
1, 31488, Note_on_c, 0, 72, 70
1, 31511, Note_on_c, 0, 72, 0
1, 31512, Note_on_c, 0, 71, 70
1, 31535, Note_on_c, 0, 71, 0
1, 31536, Note_on_c, 0, 74, 70
1, 31559, Note_on_c, 0, 74, 0
1, 31560, Note_on_c, 0, 72, 70
1, 31583, Note_on_c, 0, 72, 0
1, 31584, Note_on_c, 0, 76, 70
1, 31607, Note_on_c, 0, 76, 0
1, 31608, Note_on_c, 0, 72, 70
1, 31631, Note_on_c, 0, 72, 0
1, 31632, Note_on_c, 0, 71, 70
1, 31655, Note_on_c, 0, 71, 0
1, 31656, Note_on_c, 0, 72, 70
1, 31679, Note_on_c, 0, 72, 0
1, 31680, Note_on_c, 0, 67, 75
1, 31680, Note_on_c, 1, 52, 80
1, 31703, Note_on_c, 0, 67, 0
1, 31704, Note_on_c, 0, 72, 75
1, 31725, Note_on_c, 1, 52, 0
1, 31727, Note_on_c, 0, 72, 0
1, 31728, Note_on_c, 0, 65, 75
1, 31728, Note_on_c, 1, 50, 80
1, 31751, Note_on_c, 0, 65, 0
1, 31752, Note_on_c, 0, 72, 75
1, 31773, Note_on_c, 1, 50, 0
1, 31775, Note_on_c, 0, 72, 0
1, 31776, Note_on_c, 0, 64, 75
1, 31776, Note_on_c, 1, 48, 80
1, 31821, Note_on_c, 0, 64, 0
1, 31821, Note_on_c, 1, 48, 0
1, 31824, Note_on_c, 0, 67, 75
1, 31824, Note_on_c, 1, 52, 80
1, 31847, Note_on_c, 0, 67, 0
1, 31848, Note_on_c, 0, 72, 75
1, 31869, Note_on_c, 1, 52, 0
1, 31871, Note_on_c, 0, 72, 0
1, 31872, Note_on_c, 0, 69, 75
1, 31872, Note_on_c, 1, 53, 80
1, 31895, Note_on_c, 0, 69, 0
1, 31896, Note_on_c, 0, 72, 76
1, 31917, Note_on_c, 1, 53, 0
1, 31919, Note_on_c, 0, 72, 0
1, 31920, Note_on_c, 0, 67, 76
1, 31920, Note_on_c, 1, 55, 80
1, 31943, Note_on_c, 0, 67, 0
1, 31944, Note_on_c, 0, 72, 76
1, 31965, Note_on_c, 1, 55, 0
1, 31967, Note_on_c, 0, 72, 0
1, 31968, Note_on_c, 0, 65, 76
1, 31968, Note_on_c, 1, 57, 81
1, 31991, Note_on_c, 0, 65, 0
1, 31992, Note_on_c, 0, 69, 77
1, 32013, Note_on_c, 1, 57, 0
1, 32015, Note_on_c, 0, 69, 0
1, 32016, Note_on_c, 0, 74, 77
1, 32016, Note_on_c, 1, 54, 81
1, 32039, Note_on_c, 0, 74, 0
1, 32040, Note_on_c, 0, 72, 77
1, 32061, Note_on_c, 1, 54, 0
1, 32063, Note_on_c, 0, 72, 0
1, 32064, Note_on_c, 0, 71, 77
1, 32064, Note_on_c, 1, 55, 81
1, 32087, Note_on_c, 0, 71, 0
1, 32088, Note_on_c, 0, 74, 77
1, 32109, Note_on_c, 1, 55, 0
1, 32111, Note_on_c, 0, 74, 0
1, 32112, Note_on_c, 0, 69, 78
1, 32112, Note_on_c, 1, 57, 81
1, 32135, Note_on_c, 0, 69, 0
1, 32136, Note_on_c, 0, 74, 78
1, 32157, Note_on_c, 1, 57, 0
1, 32159, Note_on_c, 0, 74, 0
1, 32160, Note_on_c, 0, 67, 78
1, 32160, Note_on_c, 1, 59, 82
1, 32183, Note_on_c, 0, 67, 0
1, 32184, Note_on_c, 0, 71, 78
1, 32205, Note_on_c, 1, 59, 0
1, 32207, Note_on_c, 0, 71, 0
1, 32208, Note_on_c, 0, 76, 79
1, 32208, Note_on_c, 1, 56, 82
1, 32231, Note_on_c, 0, 76, 0
1, 32232, Note_on_c, 0, 74, 79
1, 32253, Note_on_c, 1, 56, 0
1, 32255, Note_on_c, 0, 74, 0
1, 32256, Note_on_c, 0, 72, 79
1, 32256, Note_on_c, 1, 57, 82
1, 32279, Note_on_c, 0, 72, 0
1, 32280, Note_on_c, 0, 76, 79
1, 32301, Note_on_c, 1, 57, 0
1, 32303, Note_on_c, 0, 76, 0
1, 32304, Note_on_c, 0, 71, 80
1, 32304, Note_on_c, 1, 59, 82
1, 32327, Note_on_c, 0, 71, 0
1, 32328, Note_on_c, 0, 76, 80
1, 32349, Note_on_c, 1, 59, 0
1, 32351, Note_on_c, 0, 76, 0
1, 32352, Note_on_c, 0, 69, 80
1, 32352, Note_on_c, 1, 60, 83
1, 32375, Note_on_c, 0, 69, 0
1, 32376, Note_on_c, 0, 72, 80
1, 32397, Note_on_c, 1, 60, 0
1, 32399, Note_on_c, 0, 72, 0
1, 32400, Note_on_c, 0, 77, 80
1, 32400, Note_on_c, 1, 57, 83
1, 32423, Note_on_c, 0, 77, 0
1, 32424, Note_on_c, 0, 76, 81
1, 32445, Note_on_c, 1, 57, 0
1, 32447, Note_on_c, 0, 76, 0
1, 32448, Note_on_c, 0, 74, 81
1, 32448, Note_on_c, 1, 59, 83
1, 32471, Note_on_c, 0, 74, 0
1, 32472, Note_on_c, 0, 77, 81
1, 32493, Note_on_c, 1, 59, 0
1, 32495, Note_on_c, 0, 77, 0
1, 32496, Note_on_c, 0, 72, 81
1, 32496, Note_on_c, 1, 60, 83
1, 32519, Note_on_c, 0, 72, 0
1, 32520, Note_on_c, 0, 77, 82
1, 32541, Note_on_c, 1, 60, 0
1, 32543, Note_on_c, 0, 77, 0
1, 32544, Note_on_c, 0, 71, 82
1, 32544, Note_on_c, 1, 62, 84
1, 32567, Note_on_c, 0, 71, 0
1, 32568, Note_on_c, 0, 74, 82
1, 32589, Note_on_c, 1, 62, 0
1, 32591, Note_on_c, 0, 74, 0
1, 32592, Note_on_c, 0, 79, 82
1, 32592, Note_on_c, 1, 59, 84
1, 32615, Note_on_c, 0, 79, 0
1, 32616, Note_on_c, 0, 77, 83
1, 32637, Note_on_c, 1, 59, 0
1, 32639, Note_on_c, 0, 77, 0
1, 32640, Note_on_c, 0, 76, 83
1, 32640, Note_on_c, 1, 60, 84
1, 32663, Note_on_c, 0, 76, 0
1, 32664, Note_on_c, 0, 79, 83
1, 32685, Note_on_c, 1, 60, 0
1, 32687, Note_on_c, 0, 79, 0
1, 32688, Note_on_c, 0, 72, 83
1, 32688, Note_on_c, 1, 52, 84
1, 32711, Note_on_c, 0, 72, 0
1, 32712, Note_on_c, 0, 74, 83
1, 32733, Note_on_c, 1, 52, 0
1, 32735, Note_on_c, 0, 74, 0
1, 32736, Note_on_c, 0, 76, 84
1, 32736, Note_on_c, 1, 53, 85
1, 32751, Note_on_c, 0, 76, 0
1, 32752, Note_on_c, 0, 74, 84
1, 32767, Note_on_c, 0, 74, 0
1, 32768, Note_on_c, 0, 76, 84
1, 32781, Note_on_c, 1, 53, 0
1, 32783, Note_on_c, 0, 76, 0
1, 32784, Note_on_c, 0, 74, 84
1, 32784, Note_on_c, 1, 55, 85
1, 32799, Note_on_c, 0, 74, 0
1, 32800, Note_on_c, 0, 72, 84
1, 32815, Note_on_c, 0, 72, 0
1, 32816, Note_on_c, 0, 74, 84
1, 32829, Note_on_c, 1, 55, 0
1, 32831, Note_on_c, 0, 74, 0
1, 32832, Note_on_c, 0, 72, 84
1, 32832, Note_on_c, 1, 48, 85
1, 32877, Note_on_c, 1, 48, 0
1, 32880, Note_on_c, 1, 60, 86
1, 32921, Note_on_c, 0, 72, 0
1, 32925, Note_on_c, 1, 60, 0
1, 32928, Note_on_c, 1, 48, 86
1, 32976, Note_on_c, 0, 79, 70
1, 32976, Note_on_c, 0, 75, 70
1, 33017, Note_on_c, 1, 48, 0
1, 33024, Note_on_c, 0, 79, 0
1, 33024, Note_on_c, 0, 75, 0
1, 33024, Note_on_c, 0, 80, 70
1, 33024, Note_on_c, 0, 77, 70
1, 33069, Note_on_c, 0, 80, 0
1, 33069, Note_on_c, 0, 77, 0
1, 33072, Note_on_c, 1, 60, 70
1, 33072, Note_on_c, 1, 48, 70
1, 33120, Note_on_c, 1, 60, 0
1, 33120, Note_on_c, 1, 48, 0
1, 33120, Note_on_c, 1, 62, 70
1, 33120, Note_on_c, 1, 50, 70
1, 33165, Note_on_c, 1, 62, 0
1, 33165, Note_on_c, 1, 50, 0
1, 33168, Note_on_c, 0, 79, 70
1, 33168, Note_on_c, 0, 75, 70
1, 33216, Note_on_c, 0, 79, 0
1, 33216, Note_on_c, 0, 75, 0
1, 33216, Note_on_c, 0, 77, 70
1, 33216, Note_on_c, 0, 74, 70
1, 33261, Note_on_c, 0, 77, 0
1, 33261, Note_on_c, 0, 74, 0
1, 33264, Note_on_c, 1, 60, 70
1, 33264, Note_on_c, 1, 48, 70
1, 33312, Note_on_c, 1, 60, 0
1, 33312, Note_on_c, 1, 48, 0
1, 33312, Note_on_c, 1, 59, 70
1, 33312, Note_on_c, 1, 47, 70
1, 33357, Note_on_c, 1, 59, 0
1, 33357, Note_on_c, 1, 47, 0
1, 33360, Note_on_c, 0, 77, 70
1, 33360, Note_on_c, 0, 74, 70
1, 33408, Note_on_c, 0, 77, 0
1, 33408, Note_on_c, 0, 74, 0
1, 33408, Note_on_c, 0, 79, 70
1, 33408, Note_on_c, 0, 75, 70
1, 33453, Note_on_c, 0, 79, 0
1, 33453, Note_on_c, 0, 75, 0
1, 33456, Note_on_c, 1, 59, 70
1, 33456, Note_on_c, 1, 47, 70
1, 33504, Note_on_c, 1, 59, 0
1, 33504, Note_on_c, 1, 47, 0
1, 33504, Note_on_c, 1, 60, 70
1, 33504, Note_on_c, 1, 48, 70
1, 33549, Note_on_c, 1, 60, 0
1, 33549, Note_on_c, 1, 48, 0
1, 33552, Note_on_c, 0, 77, 70
1, 33552, Note_on_c, 0, 74, 70
1, 33600, Note_on_c, 0, 77, 0
1, 33600, Note_on_c, 0, 74, 0
1, 33600, Note_on_c, 0, 75, 70
1, 33600, Note_on_c, 0, 72, 70
1, 33645, Note_on_c, 0, 75, 0
1, 33645, Note_on_c, 0, 72, 0
1, 33648, Note_on_c, 1, 58, 70
1, 33648, Note_on_c, 1, 46, 70
1, 33696, Note_on_c, 1, 58, 0
1, 33696, Note_on_c, 1, 46, 0
1, 33696, Note_on_c, 1, 56, 70
1, 33696, Note_on_c, 1, 44, 70
1, 33741, Note_on_c, 1, 56, 0
1, 33741, Note_on_c, 1, 44, 0
1, 33744, Note_on_c, 0, 74, 70
1, 33744, Note_on_c, 0, 71, 70
1, 33792, Note_on_c, 0, 74, 0
1, 33792, Note_on_c, 0, 71, 0
1, 33792, Note_on_c, 0, 75, 70
1, 33792, Note_on_c, 0, 72, 70
1, 33837, Note_on_c, 0, 75, 0
1, 33837, Note_on_c, 0, 72, 0
1, 33840, Note_on_c, 1, 55, 68
1, 33840, Note_on_c, 1, 43, 68
1, 33888, Note_on_c, 1, 55, 0
1, 33888, Note_on_c, 1, 43, 0
1, 33888, Note_on_c, 1, 54, 67
1, 33888, Note_on_c, 1, 42, 67
1, 33933, Note_on_c, 1, 54, 0
1, 33933, Note_on_c, 1, 42, 0
1, 33936, Note_on_c, 0, 75, 70
1, 33936, Note_on_c, 0, 72, 70
1, 33936, Note_on_c, 1, 54, 66
1, 33936, Note_on_c, 1, 42, 66
1, 33956, Note_on_c, 1, 54, 0
1, 33956, Note_on_c, 1, 42, 0
1, 33981, Note_on_c, 0, 75, 0
1, 33981, Note_on_c, 0, 72, 0
1, 33984, Note_on_c, 0, 75, 70
1, 33984, Note_on_c, 0, 72, 64
1, 33984, Note_on_c, 1, 55, 65
1, 33996, Note_on_c, 0, 75, 0
1, 33996, Note_on_c, 0, 77, 70
1, 34008, Note_on_c, 0, 77, 0
1, 34008, Note_on_c, 0, 75, 70
1, 34029, Note_on_c, 1, 55, 0
1, 34032, Note_on_c, 0, 75, 0
1, 34032, Note_on_c, 0, 74, 70
1, 34032, Note_on_c, 0, 72, 0
1, 34032, Note_on_c, 0, 71, 64
1, 34032, Note_on_c, 1, 43, 64
1, 34077, Note_on_c, 0, 74, 0
1, 34077, Note_on_c, 0, 71, 0
1, 34077, Note_on_c, 1, 43, 0
1, 34128, Note_on_c, 0, 67, 75
1, 34143, Note_on_c, 0, 67, 0
1, 34144, Note_on_c, 0, 69, 75
1, 34159, Note_on_c, 0, 69, 0
1, 34160, Note_on_c, 0, 71, 75
1, 34175, Note_on_c, 0, 71, 0
1, 34176, Note_on_c, 0, 72, 75
1, 34176, Note_on_c, 1, 52, 75
1, 34176, Note_on_c, 1, 48, 75
1, 34221, Note_on_c, 0, 72, 0
1, 34224, Note_on_c, 0, 72, 75
1, 34239, Note_on_c, 0, 72, 0
1, 34240, Note_on_c, 0, 74, 75
1, 34255, Note_on_c, 0, 74, 0
1, 34256, Note_on_c, 0, 76, 75
1, 34265, Note_on_c, 1, 52, 0
1, 34265, Note_on_c, 1, 48, 0
1, 34271, Note_on_c, 0, 76, 0
1, 34272, Note_on_c, 0, 72, 75
1, 34317, Note_on_c, 0, 72, 0
1, 34320, Note_on_c, 0, 76, 75
1, 34335, Note_on_c, 0, 76, 0
1, 34336, Note_on_c, 0, 77, 75
1, 34351, Note_on_c, 0, 77, 0
1, 34352, Note_on_c, 0, 79, 75
1, 34367, Note_on_c, 0, 79, 0
1, 34368, Note_on_c, 0, 76, 75
1, 34413, Note_on_c, 0, 76, 0
1, 34416, Note_on_c, 0, 79, 75
1, 34431, Note_on_c, 0, 79, 0
1, 34432, Note_on_c, 0, 81, 75
1, 34447, Note_on_c, 0, 81, 0
1, 34448, Note_on_c, 0, 83, 75
1, 34463, Note_on_c, 0, 83, 0
1, 34464, Note_on_c, 0, 84, 75
1, 34509, Note_on_c, 0, 84, 0
1, 34512, Note_on_c, 0, 79, 75
1, 34512, Note_on_c, 1, 60, 75
1, 34512, Note_on_c, 1, 52, 75
1, 34557, Note_on_c, 0, 79, 0
1, 34557, Note_on_c, 1, 60, 0
1, 34557, Note_on_c, 1, 52, 0
1, 34560, Note_on_c, 0, 81, 75
1, 34560, Note_on_c, 1, 60, 75
1, 34560, Note_on_c, 1, 53, 75
1, 34605, Note_on_c, 0, 81, 0
1, 34608, Note_on_c, 0, 84, 75
1, 34623, Note_on_c, 0, 84, 0
1, 34624, Note_on_c, 0, 81, 75
1, 34639, Note_on_c, 0, 81, 0
1, 34640, Note_on_c, 0, 77, 75
1, 34649, Note_on_c, 1, 60, 0
1, 34649, Note_on_c, 1, 53, 0
1, 34655, Note_on_c, 0, 77, 0
1, 34656, Note_on_c, 0, 76, 75
1, 34656, Note_on_c, 1, 60, 75
1, 34656, Note_on_c, 1, 55, 75
1, 34701, Note_on_c, 0, 76, 0
1, 34701, Note_on_c, 1, 60, 0
1, 34704, Note_on_c, 0, 74, 75
1, 34704, Note_on_c, 1, 59, 75
1, 34716, Note_on_c, 0, 74, 0
1, 34716, Note_on_c, 0, 76, 75
1, 34728, Note_on_c, 0, 76, 0
1, 34728, Note_on_c, 0, 74, 75
1, 34745, Note_on_c, 1, 55, 0
1, 34749, Note_on_c, 0, 74, 0
1, 34749, Note_on_c, 1, 59, 0
1, 34752, Note_on_c, 0, 72, 75
1, 34752, Note_on_c, 1, 60, 75
1, 34797, Note_on_c, 1, 60, 0
1, 34800, Note_on_c, 1, 55, 75
1, 34841, Note_on_c, 0, 72, 0
1, 34845, Note_on_c, 1, 55, 0
1, 34848, Note_on_c, 1, 48, 75
1, 34896, Note_on_c, 0, 67, 75
1, 34911, Note_on_c, 0, 67, 0
1, 34912, Note_on_c, 0, 69, 75
1, 34927, Note_on_c, 0, 69, 0
1, 34928, Note_on_c, 0, 71, 75
1, 34937, Note_on_c, 1, 48, 0
1, 34943, Note_on_c, 0, 71, 0
1, 34944, Note_on_c, 0, 72, 75
1, 34944, Note_on_c, 1, 52, 75
1, 34944, Note_on_c, 1, 48, 75
1, 34989, Note_on_c, 0, 72, 0
1, 34992, Note_on_c, 0, 72, 75
1, 35007, Note_on_c, 0, 72, 0
1, 35008, Note_on_c, 0, 74, 75
1, 35023, Note_on_c, 0, 74, 0
1, 35024, Note_on_c, 0, 76, 75
1, 35033, Note_on_c, 1, 52, 0
1, 35033, Note_on_c, 1, 48, 0
1, 35039, Note_on_c, 0, 76, 0
1, 35040, Note_on_c, 0, 72, 75
1, 35085, Note_on_c, 0, 72, 0
1, 35088, Note_on_c, 0, 76, 75
1, 35103, Note_on_c, 0, 76, 0
1, 35104, Note_on_c, 0, 77, 75
1, 35119, Note_on_c, 0, 77, 0
1, 35120, Note_on_c, 0, 79, 75
1, 35135, Note_on_c, 0, 79, 0
1, 35136, Note_on_c, 0, 76, 75
1, 35181, Note_on_c, 0, 76, 0
1, 35184, Note_on_c, 0, 67, 80
1, 35184, Note_on_c, 1, 52, 80
1, 35184, Note_on_c, 1, 40, 80
1, 35207, Note_on_c, 0, 67, 0
1, 35208, Note_on_c, 0, 79, 80
1, 35229, Note_on_c, 1, 52, 0
1, 35229, Note_on_c, 1, 40, 0
1, 35231, Note_on_c, 0, 79, 0
1, 35232, Note_on_c, 0, 67, 80
1, 35232, Note_on_c, 1, 52, 80
1, 35232, Note_on_c, 1, 40, 80
1, 35255, Note_on_c, 0, 67, 0
1, 35256, Note_on_c, 0, 79, 80
1, 35277, Note_on_c, 1, 52, 0
1, 35277, Note_on_c, 1, 40, 0
1, 35279, Note_on_c, 0, 79, 0
1, 35280, Note_on_c, 0, 67, 80
1, 35280, Note_on_c, 1, 52, 80
1, 35280, Note_on_c, 1, 40, 80
1, 35303, Note_on_c, 0, 67, 0
1, 35304, Note_on_c, 0, 79, 80
1, 35325, Note_on_c, 1, 52, 0
1, 35325, Note_on_c, 1, 40, 0
1, 35327, Note_on_c, 0, 79, 0
1, 35328, Note_on_c, 0, 69, 80
1, 35328, Note_on_c, 1, 53, 80
1, 35328, Note_on_c, 1, 41, 80
1, 35351, Note_on_c, 0, 69, 0
1, 35352, Note_on_c, 0, 79, 80
1, 35373, Note_on_c, 1, 53, 0
1, 35373, Note_on_c, 1, 41, 0
1, 35375, Note_on_c, 0, 79, 0
1, 35376, Note_on_c, 0, 69, 80
1, 35376, Note_on_c, 1, 53, 80
1, 35376, Note_on_c, 1, 41, 80
1, 35399, Note_on_c, 0, 69, 0
1, 35400, Note_on_c, 0, 79, 80
1, 35421, Note_on_c, 1, 53, 0
1, 35421, Note_on_c, 1, 41, 0
1, 35423, Note_on_c, 0, 79, 0
1, 35424, Note_on_c, 0, 69, 80
1, 35424, Note_on_c, 1, 50, 80
1, 35424, Note_on_c, 1, 38, 80
1, 35447, Note_on_c, 0, 69, 0
1, 35448, Note_on_c, 0, 77, 80
1, 35469, Note_on_c, 1, 50, 0
1, 35469, Note_on_c, 1, 38, 0
1, 35471, Note_on_c, 0, 77, 0
1, 35472, Note_on_c, 0, 69, 80
1, 35472, Note_on_c, 1, 50, 80
1, 35472, Note_on_c, 1, 38, 80
1, 35495, Note_on_c, 0, 69, 0
1, 35496, Note_on_c, 0, 77, 80
1, 35517, Note_on_c, 1, 50, 0
1, 35517, Note_on_c, 1, 38, 0
1, 35519, Note_on_c, 0, 77, 0
1, 35520, Note_on_c, 0, 67, 80
1, 35520, Note_on_c, 1, 47, 80
1, 35520, Note_on_c, 1, 35, 80
1, 35543, Note_on_c, 0, 67, 0
1, 35544, Note_on_c, 0, 77, 80
1, 35565, Note_on_c, 1, 47, 0
1, 35565, Note_on_c, 1, 35, 0
1, 35567, Note_on_c, 0, 77, 0
1, 35568, Note_on_c, 0, 67, 80
1, 35568, Note_on_c, 1, 47, 80
1, 35568, Note_on_c, 1, 35, 80
1, 35591, Note_on_c, 0, 67, 0
1, 35592, Note_on_c, 0, 77, 80
1, 35613, Note_on_c, 1, 47, 0
1, 35613, Note_on_c, 1, 35, 0
1, 35615, Note_on_c, 0, 77, 0
1, 35616, Note_on_c, 0, 67, 80
1, 35616, Note_on_c, 1, 48, 80
1, 35616, Note_on_c, 1, 36, 80
1, 35639, Note_on_c, 0, 67, 0
1, 35640, Note_on_c, 0, 76, 80
1, 35661, Note_on_c, 1, 48, 0
1, 35661, Note_on_c, 1, 36, 0
1, 35663, Note_on_c, 0, 76, 0
1, 35664, Note_on_c, 0, 67, 80
1, 35664, Note_on_c, 1, 48, 80
1, 35664, Note_on_c, 1, 36, 80
1, 35687, Note_on_c, 0, 67, 0
1, 35688, Note_on_c, 0, 76, 80
1, 35709, Note_on_c, 1, 48, 0
1, 35709, Note_on_c, 1, 36, 0
1, 35711, Note_on_c, 0, 76, 0
1, 35712, Note_on_c, 0, 65, 80
1, 35712, Note_on_c, 1, 53, 80
1, 35712, Note_on_c, 1, 41, 80
1, 35735, Note_on_c, 0, 65, 0
1, 35736, Note_on_c, 0, 74, 80
1, 35757, Note_on_c, 1, 53, 0
1, 35757, Note_on_c, 1, 41, 0
1, 35759, Note_on_c, 0, 74, 0
1, 35760, Note_on_c, 0, 65, 80
1, 35760, Note_on_c, 1, 53, 80
1, 35760, Note_on_c, 1, 41, 80
1, 35783, Note_on_c, 0, 65, 0
1, 35784, Note_on_c, 0, 74, 80
1, 35805, Note_on_c, 1, 53, 0
1, 35805, Note_on_c, 1, 41, 0
1, 35807, Note_on_c, 0, 74, 0
1, 35808, Note_on_c, 0, 62, 80
1, 35808, Note_on_c, 1, 55, 80
1, 35808, Note_on_c, 1, 43, 80
1, 35831, Note_on_c, 0, 62, 0
1, 35832, Note_on_c, 0, 71, 80
1, 35853, Note_on_c, 1, 55, 0
1, 35853, Note_on_c, 1, 43, 0
1, 35855, Note_on_c, 0, 71, 0
1, 35856, Note_on_c, 0, 62, 80
1, 35856, Note_on_c, 1, 55, 80
1, 35856, Note_on_c, 1, 43, 80
1, 35879, Note_on_c, 0, 62, 0
1, 35880, Note_on_c, 0, 71, 80
1, 35901, Note_on_c, 1, 55, 0
1, 35901, Note_on_c, 1, 43, 0
1, 35903, Note_on_c, 0, 71, 0
1, 35904, Note_on_c, 0, 72, 80
1, 35904, Note_on_c, 0, 64, 80
1, 35904, Note_on_c, 1, 48, 80
1, 35904, Note_on_c, 1, 36, 80
1, 35993, Note_on_c, 0, 72, 0
1, 35993, Note_on_c, 0, 64, 0
1, 35993, Note_on_c, 1, 48, 0
1, 35993, Note_on_c, 1, 36, 0
1, 36096, Note_on_c, 1, 36, 0
1, 36185, Note_on_c, 1, 36, 0
1, 36195, End_track
0, 0, End_of_file