0, 0, Header, 0, 1, 96
1, 0, Start_track
1, 0, Tempo, 666666
1, 0, Note_on_c, 0, 57, 85
1, 0, Note_on_c, 1, 41, 85
1, 6, Note_on_c, 1, 45, 85
1, 8, Note_on_c, 0, 60, 85
1, 12, Note_on_c, 1, 48, 85
1, 16, Note_on_c, 0, 65, 85
1, 18, Note_on_c, 1, 53, 85
1, 45, Note_on_c, 0, 65, 0
1, 45, Note_on_c, 0, 60, 0
1, 45, Note_on_c, 0, 57, 0
1, 45, Note_on_c, 1, 53, 0
1, 45, Note_on_c, 1, 48, 0
1, 45, Note_on_c, 1, 45, 0
1, 45, Note_on_c, 1, 41, 0
1, 48, Note_on_c, 1, 53, 85
1, 68, Note_on_c, 1, 53, 0
1, 96, Note_on_c, 0, 60, 85
1, 96, Note_on_c, 0, 57, 85
1, 96, Note_on_c, 1, 53, 85
1, 116, Note_on_c, 0, 60, 0
1, 116, Note_on_c, 0, 57, 0
1, 116, Note_on_c, 1, 53, 0
1, 144, Note_on_c, 1, 53, 85
1, 164, Note_on_c, 1, 53, 0
1, 168, Note_on_c, 0, 60, 85
1, 168, Note_on_c, 0, 57, 85
1, 178, Note_on_c, 0, 60, 0
1, 178, Note_on_c, 0, 57, 0
1, 192, Note_on_c, 0, 60, 85
1, 192, Note_on_c, 0, 57, 85
1, 192, Note_on_c, 1, 53, 85
1, 212, Note_on_c, 1, 53, 0
1, 237, Note_on_c, 0, 60, 0
1, 237, Note_on_c, 0, 57, 0
1, 240, Note_on_c, 1, 53, 83
1, 260, Note_on_c, 1, 53, 0
1, 288, Note_on_c, 1, 53, 81
1, 308, Note_on_c, 1, 53, 0
1, 336, Note_on_c, 1, 53, 79
1, 356, Note_on_c, 1, 53, 0
1, 384, Note_on_c, 0, 72, 77
1, 384, Note_on_c, 0, 69, 77
1, 384, Note_on_c, 1, 53, 77
1, 404, Note_on_c, 1, 53, 0
1, 432, Note_on_c, 1, 53, 77
1, 452, Note_on_c, 1, 53, 0
1, 480, Note_on_c, 1, 53, 77
1, 500, Note_on_c, 1, 53, 0
1, 525, Note_on_c, 0, 72, 0
1, 528, Note_on_c, 0, 76, 77
1, 528, Note_on_c, 0, 69, 0
1, 528, Note_on_c, 0, 70, 77
1, 528, Note_on_c, 1, 53, 77
1, 540, Note_on_c, 0, 76, 0
1, 540, Note_on_c, 0, 74, 77
1, 548, Note_on_c, 1, 53, 0
1, 573, Note_on_c, 0, 74, 0
1, 573, Note_on_c, 0, 70, 0
1, 576, Note_on_c, 0, 72, 77
1, 576, Note_on_c, 0, 69, 77
1, 576, Note_on_c, 1, 53, 77
1, 596, Note_on_c, 1, 53, 0
1, 624, Note_on_c, 0, 72, 0
1, 624, Note_on_c, 0, 77, 77
1, 624, Note_on_c, 1, 53, 77
1, 644, Note_on_c, 0, 77, 0
1, 644, Note_on_c, 1, 53, 0
1, 665, Note_on_c, 0, 69, 0
1, 672, Note_on_c, 0, 69, 77
1, 672, Note_on_c, 0, 65, 77
1, 672, Note_on_c, 1, 53, 77
1, 692, Note_on_c, 1, 53, 0
1, 717, Note_on_c, 0, 69, 0
1, 720, Note_on_c, 0, 72, 77
1, 720, Note_on_c, 0, 65, 0
1, 720, Note_on_c, 0, 67, 77
1, 720, Note_on_c, 1, 53, 77
1, 732, Note_on_c, 0, 72, 0
1, 732, Note_on_c, 0, 70, 77
1, 740, Note_on_c, 1, 53, 0
1, 765, Note_on_c, 0, 70, 0
1, 765, Note_on_c, 0, 67, 0
1, 768, Note_on_c, 0, 69, 77
1, 768, Note_on_c, 0, 65, 77
1, 768, Note_on_c, 1, 53, 77
1, 788, Note_on_c, 1, 53, 0
1, 816, Note_on_c, 0, 69, 0
1, 816, Note_on_c, 0, 72, 77
1, 816, Note_on_c, 0, 65, 0
1, 816, Note_on_c, 0, 69, 77
1, 836, Note_on_c, 0, 72, 0
1, 836, Note_on_c, 0, 69, 0
1, 864, Note_on_c, 0, 65, 77
1, 864, Note_on_c, 1, 60, 77
1, 864, Note_on_c, 1, 57, 77
1, 884, Note_on_c, 0, 65, 0
1, 884, Note_on_c, 1, 60, 0
1, 884, Note_on_c, 1, 57, 0
1, 912, Note_on_c, 0, 65, 77
1, 912, Note_on_c, 1, 60, 77
1, 912, Note_on_c, 1, 57, 77
1, 932, Note_on_c, 0, 65, 0
1, 932, Note_on_c, 1, 60, 0
1, 932, Note_on_c, 1, 57, 0
1, 960, Note_on_c, 0, 65, 77
1, 960, Note_on_c, 1, 60, 77
1, 960, Note_on_c, 1, 57, 77
1, 1100, Note_on_c, 0, 65, 0
1, 1100, Note_on_c, 1, 60, 0
1, 1100, Note_on_c, 1, 57, 0
1, 1104, Note_on_c, 0, 69, 77
1, 1104, Note_on_c, 1, 58, 77
1, 1104, Note_on_c, 1, 48, 77
1, 1116, Note_on_c, 0, 69, 0
1, 1116, Note_on_c, 0, 67, 77
1, 1149, Note_on_c, 0, 67, 0
1, 1149, Note_on_c, 1, 58, 0
1, 1149, Note_on_c, 1, 48, 0
1, 1152, Note_on_c, 0, 65, 77
1, 1152, Note_on_c, 1, 57, 77
1, 1152, Note_on_c, 1, 53, 77
1, 1172, Note_on_c, 0, 65, 0
1, 1197, Note_on_c, 1, 57, 0
1, 1197, Note_on_c, 1, 53, 0
1, 1248, Note_on_c, 1, 45, 77
1, 1248, Note_on_c, 1, 41, 77
1, 1268, Note_on_c, 1, 45, 0
1, 1268, Note_on_c, 1, 41, 0
1, 1320, Note_on_c, 1, 45, 77
1, 1320, Note_on_c, 1, 41, 77
1, 1330, Note_on_c, 1, 45, 0
1, 1330, Note_on_c, 1, 41, 0
1, 1344, Note_on_c, 1, 45, 77
1, 1344, Note_on_c, 1, 41, 77
1, 1389, Note_on_c, 1, 45, 0
1, 1389, Note_on_c, 1, 41, 0
1, 1440, Note_on_c, 0, 72, 77
1, 1440, Note_on_c, 0, 69, 77
1, 1485, Note_on_c, 0, 72, 0
1, 1485, Note_on_c, 0, 69, 0
1, 1488, Note_on_c, 0, 76, 77
1, 1500, Note_on_c, 0, 76, 0
1, 1500, Note_on_c, 0, 74, 77
1, 1500, Note_on_c, 0, 70, 77
1, 1533, Note_on_c, 0, 74, 0
1, 1533, Note_on_c, 0, 70, 0
1, 1536, Note_on_c, 0, 72, 77
1, 1536, Note_on_c, 0, 69, 77
1, 1584, Note_on_c, 0, 72, 0
1, 1584, Note_on_c, 0, 77, 77
1, 1604, Note_on_c, 0, 77, 0
1, 1625, Note_on_c, 0, 69, 0
1, 1632, Note_on_c, 0, 69, 77
1, 1632, Note_on_c, 0, 65, 77
1, 1677, Note_on_c, 0, 69, 0
1, 1680, Note_on_c, 0, 72, 77
1, 1680, Note_on_c, 0, 65, 0
1, 1680, Note_on_c, 0, 67, 77
1, 1692, Note_on_c, 0, 72, 0
1, 1692, Note_on_c, 0, 70, 77
1, 1725, Note_on_c, 0, 70, 0
1, 1725, Note_on_c, 0, 67, 0
1, 1728, Note_on_c, 0, 69, 77
1, 1728, Note_on_c, 0, 65, 77
1, 1776, Note_on_c, 0, 69, 0
1, 1776, Note_on_c, 0, 72, 77
1, 1776, Note_on_c, 0, 65, 0
1, 1776, Note_on_c, 0, 69, 77
1, 1796, Note_on_c, 0, 72, 0
1, 1796, Note_on_c, 0, 69, 0
1, 1824, Note_on_c, 0, 65, 77
1, 1824, Note_on_c, 1, 60, 77
1, 1824, Note_on_c, 1, 57, 77
1, 1844, Note_on_c, 0, 65, 0
1, 1844, Note_on_c, 1, 60, 0
1, 1844, Note_on_c, 1, 57, 0
1, 1872, Note_on_c, 0, 65, 77
1, 1872, Note_on_c, 1, 60, 77
1, 1872, Note_on_c, 1, 57, 77
1, 1892, Note_on_c, 0, 65, 0
1, 1892, Note_on_c, 1, 60, 0
1, 1892, Note_on_c, 1, 57, 0
1, 1920, Note_on_c, 0, 65, 77
1, 1920, Note_on_c, 1, 60, 77
1, 1920, Note_on_c, 1, 57, 77
1, 2060, Note_on_c, 0, 65, 0
1, 2060, Note_on_c, 1, 60, 0
1, 2060, Note_on_c, 1, 57, 0
1, 2064, Note_on_c, 0, 69, 77
1, 2064, Note_on_c, 1, 58, 77
1, 2064, Note_on_c, 1, 48, 77
1, 2076, Note_on_c, 0, 69, 0
1, 2076, Note_on_c, 0, 67, 77
1, 2109, Note_on_c, 0, 67, 0
1, 2109, Note_on_c, 1, 58, 0
1, 2109, Note_on_c, 1, 48, 0
1, 2112, Note_on_c, 0, 65, 77
1, 2112, Note_on_c, 1, 57, 77
1, 2112, Note_on_c, 1, 53, 77
1, 2157, Note_on_c, 0, 65, 0
1, 2157, Note_on_c, 1, 57, 0
1, 2157, Note_on_c, 1, 53, 0
1, 2208, Note_on_c, 0, 81, 77
1, 2253, Note_on_c, 0, 81, 0
1, 2256, Note_on_c, 0, 82, 77
1, 2266, Note_on_c, 0, 82, 0
1, 2266, Note_on_c, 0, 81, 77
1, 2276, Note_on_c, 0, 81, 0
1, 2276, Note_on_c, 0, 79, 77
1, 2286, Note_on_c, 0, 79, 0
1, 2286, Note_on_c, 0, 81, 77
1, 2295, Note_on_c, 0, 81, 0
1, 2295, Note_on_c, 0, 82, 77
1, 2304, Note_on_c, 0, 82, 0
1, 2304, Note_on_c, 0, 84, 77
1, 2327, Note_on_c, 0, 84, 0
1, 2328, Note_on_c, 0, 82, 74
1, 2351, Note_on_c, 0, 82, 0
1, 2352, Note_on_c, 0, 81, 71
1, 2375, Note_on_c, 0, 81, 0
1, 2376, Note_on_c, 0, 79, 68
1, 2399, Note_on_c, 0, 79, 0
1, 2400, Note_on_c, 0, 77, 69
1, 2423, Note_on_c, 0, 77, 0
1, 2424, Note_on_c, 0, 76, 71
1, 2447, Note_on_c, 0, 76, 0
1, 2448, Note_on_c, 0, 79, 73
1, 2471, Note_on_c, 0, 79, 0
1, 2472, Note_on_c, 0, 77, 75
1, 2495, Note_on_c, 0, 77, 0
1, 2496, Note_on_c, 0, 81, 77
1, 2519, Note_on_c, 0, 81, 0
1, 2520, Note_on_c, 0, 79, 74
1, 2543, Note_on_c, 0, 79, 0
1, 2544, Note_on_c, 0, 77, 72
1, 2567, Note_on_c, 0, 77, 0
1, 2568, Note_on_c, 0, 76, 70
1, 2591, Note_on_c, 0, 76, 0
1, 2592, Note_on_c, 0, 74, 68
1, 2640, Note_on_c, 0, 74, 0
1, 2640, Note_on_c, 0, 73, 85
1, 2640, Note_on_c, 1, 70, 77
1, 2640, Note_on_c, 1, 67, 77
1, 2660, Note_on_c, 1, 70, 0
1, 2660, Note_on_c, 1, 67, 0
1, 2685, Note_on_c, 0, 73, 0
1, 2688, Note_on_c, 0, 76, 60
1, 2736, Note_on_c, 0, 76, 0
1, 2736, Note_on_c, 0, 74, 85
1, 2736, Note_on_c, 1, 69, 77
1, 2736, Note_on_c, 1, 65, 77
1, 2756, Note_on_c, 1, 69, 0
1, 2756, Note_on_c, 1, 65, 0
1, 2781, Note_on_c, 0, 74, 0
1, 2784, Note_on_c, 0, 77, 60
1, 2832, Note_on_c, 0, 77, 0
1, 2832, Note_on_c, 0, 76, 85
1, 2832, Note_on_c, 1, 69, 77
1, 2832, Note_on_c, 1, 61, 77
1, 2852, Note_on_c, 1, 69, 0
1, 2852, Note_on_c, 1, 61, 0
1, 2877, Note_on_c, 0, 76, 0
1, 2880, Note_on_c, 0, 79, 60
1, 2928, Note_on_c, 0, 79, 0
1, 2928, Note_on_c, 0, 77, 85
1, 2928, Note_on_c, 1, 69, 77
1, 2928, Note_on_c, 1, 62, 77
1, 2948, Note_on_c, 1, 69, 0
1, 2948, Note_on_c, 1, 62, 0
1, 2973, Note_on_c, 0, 77, 0
1, 2976, Note_on_c, 0, 81, 77
1, 3021, Note_on_c, 0, 81, 0
1, 3024, Note_on_c, 0, 82, 77
1, 3034, Note_on_c, 0, 82, 0
1, 3034, Note_on_c, 0, 81, 77
1, 3044, Note_on_c, 0, 81, 0
1, 3044, Note_on_c, 0, 79, 77
1, 3054, Note_on_c, 0, 79, 0
1, 3054, Note_on_c, 0, 81, 77
1, 3063, Note_on_c, 0, 81, 0
1, 3063, Note_on_c, 0, 82, 77
1, 3072, Note_on_c, 0, 82, 0
1, 3072, Note_on_c, 0, 84, 77
1, 3095, Note_on_c, 0, 84, 0
1, 3096, Note_on_c, 0, 82, 74
1, 3119, Note_on_c, 0, 82, 0
1, 3120, Note_on_c, 0, 81, 71
1, 3143, Note_on_c, 0, 81, 0
1, 3144, Note_on_c, 0, 79, 68
1, 3167, Note_on_c, 0, 79, 0
1, 3168, Note_on_c, 0, 77, 69
1, 3191, Note_on_c, 0, 77, 0
1, 3192, Note_on_c, 0, 76, 71
1, 3215, Note_on_c, 0, 76, 0
1, 3216, Note_on_c, 0, 79, 73
1, 3239, Note_on_c, 0, 79, 0
1, 3240, Note_on_c, 0, 77, 75
1, 3263, Note_on_c, 0, 77, 0
1, 3264, Note_on_c, 0, 81, 77
1, 3287, Note_on_c, 0, 81, 0
1, 3288, Note_on_c, 0, 77, 74
1, 3311, Note_on_c, 0, 77, 0
1, 3312, Note_on_c, 0, 76, 71
1, 3335, Note_on_c, 0, 76, 0
1, 3336, Note_on_c, 0, 74, 68
1, 3359, Note_on_c, 0, 74, 0
1, 3360, Note_on_c, 0, 72, 60
1, 3408, Note_on_c, 0, 72, 0
1, 3408, Note_on_c, 0, 71, 85
1, 3408, Note_on_c, 1, 67, 77
1, 3408, Note_on_c, 1, 65, 77
1, 3428, Note_on_c, 1, 67, 0
1, 3428, Note_on_c, 1, 65, 0
1, 3453, Note_on_c, 0, 71, 0
1, 3456, Note_on_c, 0, 74, 60
1, 3504, Note_on_c, 0, 74, 0
1, 3504, Note_on_c, 0, 72, 85
1, 3504, Note_on_c, 1, 67, 77
1, 3504, Note_on_c, 1, 64, 77
1, 3524, Note_on_c, 1, 67, 0
1, 3524, Note_on_c, 1, 64, 0
1, 3549, Note_on_c, 0, 72, 0
1, 3552, Note_on_c, 0, 76, 60
1, 3600, Note_on_c, 0, 76, 0
1, 3600, Note_on_c, 0, 74, 85
1, 3600, Note_on_c, 1, 67, 77
1, 3600, Note_on_c, 1, 59, 77
1, 3620, Note_on_c, 1, 67, 0
1, 3620, Note_on_c, 1, 59, 0
1, 3645, Note_on_c, 0, 74, 0
1, 3648, Note_on_c, 0, 77, 60
1, 3696, Note_on_c, 0, 77, 0
1, 3696, Note_on_c, 0, 76, 85
1, 3696, Note_on_c, 1, 67, 77
1, 3696, Note_on_c, 1, 60, 77
1, 3716, Note_on_c, 1, 67, 0
1, 3716, Note_on_c, 1, 60, 0
1, 3741, Note_on_c, 0, 76, 0
1, 3744, Note_on_c, 0, 76, 77
1, 3789, Note_on_c, 0, 76, 0
1, 3792, Note_on_c, 0, 77, 77
1, 3802, Note_on_c, 0, 77, 0
1, 3802, Note_on_c, 0, 76, 77
1, 3812, Note_on_c, 0, 76, 0
1, 3812, Note_on_c, 0, 74, 77
1, 3822, Note_on_c, 0, 74, 0
1, 3822, Note_on_c, 0, 76, 77
1, 3831, Note_on_c, 0, 76, 0
1, 3831, Note_on_c, 0, 77, 77
1, 3840, Note_on_c, 0, 77, 0
1, 3840, Note_on_c, 0, 79, 77
1, 3863, Note_on_c, 0, 79, 0
1, 3864, Note_on_c, 0, 76, 74
1, 3887, Note_on_c, 0, 76, 0
1, 3888, Note_on_c, 0, 74, 72
1, 3911, Note_on_c, 0, 74, 0
1, 3912, Note_on_c, 0, 72, 70
1, 3935, Note_on_c, 0, 72, 0
1, 3936, Note_on_c, 0, 71, 68
1, 3960, Note_on_c, 0, 71, 0
1, 3960, Note_on_c, 0, 72, 70
1, 3983, Note_on_c, 0, 72, 0
1, 3984, Note_on_c, 0, 74, 72
1, 4007, Note_on_c, 0, 74, 0
1, 4008, Note_on_c, 0, 72, 74
1, 4031, Note_on_c, 0, 72, 0
1, 4032, Note_on_c, 0, 76, 77
1, 4032, Note_on_c, 1, 69, 68
1, 4032, Note_on_c, 1, 65, 68
1, 4044, Note_on_c, 0, 76, 0
1, 4044, Note_on_c, 0, 74, 77
1, 4080, Note_on_c, 0, 74, 0
1, 4080, Note_on_c, 0, 72, 77
1, 4080, Note_on_c, 1, 69, 0
1, 4080, Note_on_c, 1, 65, 0
1, 4080, Note_on_c, 1, 67, 68
1, 4080, Note_on_c, 1, 64, 68
1, 4125, Note_on_c, 0, 72, 0
1, 4125, Note_on_c, 1, 67, 0
1, 4125, Note_on_c, 1, 64, 0
1, 4128, Note_on_c, 0, 76, 77
1, 4128, Note_on_c, 1, 69, 68
1, 4128, Note_on_c, 1, 65, 68
1, 4140, Note_on_c, 0, 76, 0
1, 4140, Note_on_c, 0, 74, 77
1, 4176, Note_on_c, 0, 74, 0
1, 4176, Note_on_c, 0, 72, 77
1, 4176, Note_on_c, 1, 69, 0
1, 4176, Note_on_c, 1, 65, 0
1, 4176, Note_on_c, 1, 67, 68
1, 4176, Note_on_c, 1, 64, 68
1, 4221, Note_on_c, 0, 72, 0
1, 4221, Note_on_c, 1, 67, 0
1, 4221, Note_on_c, 1, 64, 0
1, 4224, Note_on_c, 0, 76, 77
1, 4224, Note_on_c, 1, 69, 68
1, 4224, Note_on_c, 1, 65, 68
1, 4236, Note_on_c, 0, 76, 0
1, 4236, Note_on_c, 0, 74, 77
1, 4272, Note_on_c, 0, 74, 0
1, 4272, Note_on_c, 0, 72, 77
1, 4272, Note_on_c, 1, 69, 0
1, 4272, Note_on_c, 1, 65, 0
1, 4272, Note_on_c, 1, 67, 68
1, 4272, Note_on_c, 1, 64, 68
1, 4317, Note_on_c, 0, 72, 0
1, 4317, Note_on_c, 1, 67, 0
1, 4317, Note_on_c, 1, 64, 0
1, 4320, Note_on_c, 0, 79, 77
1, 4368, Note_on_c, 1, 51, 77
1, 4416, Note_on_c, 0, 79, 0
1, 4416, Note_on_c, 0, 78, 77
1, 4416, Note_on_c, 1, 51, 0
1, 4416, Note_on_c, 1, 50, 77
1, 4461, Note_on_c, 0, 78, 0
1, 4461, Note_on_c, 1, 50, 0
1, 4464, Note_on_c, 0, 72, 77
1, 4464, Note_on_c, 1, 66, 77
1, 4512, Note_on_c, 0, 72, 0
1, 4512, Note_on_c, 0, 71, 77
1, 4512, Note_on_c, 1, 66, 0
1, 4512, Note_on_c, 1, 67, 77
1, 4557, Note_on_c, 0, 71, 0
1, 4557, Note_on_c, 1, 67, 0
1, 4560, Note_on_c, 0, 77, 77
1, 4560, Note_on_c, 1, 59, 77
1, 4608, Note_on_c, 0, 77, 0
1, 4608, Note_on_c, 0, 76, 77
1, 4608, Note_on_c, 1, 59, 0
1, 4608, Note_on_c, 1, 60, 77
1, 4653, Note_on_c, 0, 76, 0
1, 4653, Note_on_c, 1, 60, 0
1, 4656, Note_on_c, 0, 70, 77
1, 4656, Note_on_c, 1, 64, 77
1, 4704, Note_on_c, 0, 70, 0
1, 4704, Note_on_c, 0, 69, 77
1, 4704, Note_on_c, 1, 64, 0
1, 4704, Note_on_c, 1, 65, 77
1, 4749, Note_on_c, 0, 69, 0
1, 4752, Note_on_c, 0, 80, 77
1, 4793, Note_on_c, 1, 65, 0
1, 4800, Note_on_c, 0, 80, 0
1, 4800, Note_on_c, 0, 81, 77
1, 4800, Note_on_c, 1, 53, 77
1, 4845, Note_on_c, 0, 81, 0
1, 4848, Note_on_c, 0, 83, 77
1, 4858, Note_on_c, 0, 83, 0
1, 4858, Note_on_c, 0, 81, 77
1, 4868, Note_on_c, 0, 81, 0
1, 4868, Note_on_c, 0, 80, 77
1, 4878, Note_on_c, 0, 80, 0
1, 4878, Note_on_c, 0, 81, 77
1, 4887, Note_on_c, 0, 81, 0
1, 4887, Note_on_c, 0, 83, 77
1, 4889, Note_on_c, 1, 53, 0
1, 4896, Note_on_c, 0, 83, 0
1, 4896, Note_on_c, 0, 84, 77
1, 4941, Note_on_c, 0, 84, 0
1, 4944, Note_on_c, 0, 84, 77
1, 4989, Note_on_c, 0, 84, 0
1, 4992, Note_on_c, 0, 84, 77
1, 5012, Note_on_c, 0, 84, 0
1, 5040, Note_on_c, 1, 54, 77
1, 5060, Note_on_c, 1, 54, 0
1, 5088, Note_on_c, 0, 69, 77
1, 5108, Note_on_c, 0, 69, 0
1, 5136, Note_on_c, 1, 60, 77
1, 5156, Note_on_c, 1, 60, 0
1, 5184, Note_on_c, 0, 59, 77
1, 5204, Note_on_c, 0, 59, 0
1, 5232, Note_on_c, 1, 55, 77
1, 5252, Note_on_c, 1, 55, 0
1, 5280, Note_on_c, 0, 43, 77
1, 5369, Note_on_c, 0, 43, 0
1, 5424, Note_on_c, 0, 60, 85
1, 5436, Note_on_c, 0, 60, 0
1, 5436, Note_on_c, 0, 64, 85
1, 5442, Note_on_c, 0, 64, 0
1, 5442, Note_on_c, 0, 67, 85
1, 5448, Note_on_c, 0, 67, 0
1, 5448, Note_on_c, 0, 72, 85
1, 5454, Note_on_c, 0, 72, 0
1, 5454, Note_on_c, 0, 76, 85
1, 5460, Note_on_c, 0, 76, 0
1, 5460, Note_on_c, 0, 79, 85
1, 5466, Note_on_c, 0, 79, 0
1, 5466, Note_on_c, 0, 83, 85
1, 5472, Note_on_c, 0, 83, 0
1, 5472, Note_on_c, 0, 84, 101
1, 5488, Note_on_c, 0, 84, 0
1, 5488, Note_on_c, 0, 79, 85
1, 5503, Note_on_c, 0, 79, 0
1, 5504, Note_on_c, 0, 76, 85
1, 5519, Note_on_c, 0, 76, 0
1, 5520, Note_on_c, 0, 81, 85
1, 5520, Note_on_c, 0, 65, 85
1, 5535, Note_on_c, 0, 81, 0
1, 5536, Note_on_c, 0, 77, 85
1, 5551, Note_on_c, 0, 77, 0
1, 5552, Note_on_c, 0, 72, 85
1, 5567, Note_on_c, 0, 72, 0
1, 5568, Note_on_c, 0, 79, 85
1, 5568, Note_on_c, 0, 65, 0
1, 5568, Note_on_c, 0, 64, 85
1, 5588, Note_on_c, 0, 79, 0
1, 5588, Note_on_c, 0, 64, 0
1, 5616, Note_on_c, 0, 60, 85
1, 5628, Note_on_c, 0, 60, 0
1, 5628, Note_on_c, 0, 64, 85
1, 5634, Note_on_c, 0, 64, 0
1, 5634, Note_on_c, 0, 67, 85
1, 5640, Note_on_c, 0, 67, 0
1, 5640, Note_on_c, 0, 72, 85
1, 5646, Note_on_c, 0, 72, 0
1, 5646, Note_on_c, 0, 76, 85
1, 5652, Note_on_c, 0, 76, 0
1, 5652, Note_on_c, 0, 79, 85
1, 5658, Note_on_c, 0, 79, 0
1, 5658, Note_on_c, 0, 83, 85
1, 5664, Note_on_c, 0, 83, 0
1, 5664, Note_on_c, 0, 84, 101
1, 5680, Note_on_c, 0, 84, 0
1, 5680, Note_on_c, 0, 79, 85
1, 5695, Note_on_c, 0, 79, 0
1, 5696, Note_on_c, 0, 76, 85
1, 5711, Note_on_c, 0, 76, 0
1, 5712, Note_on_c, 0, 81, 85
1, 5712, Note_on_c, 0, 65, 85
1, 5727, Note_on_c, 0, 81, 0
1, 5728, Note_on_c, 0, 77, 85
1, 5743, Note_on_c, 0, 77, 0
1, 5744, Note_on_c, 0, 72, 85
1, 5759, Note_on_c, 0, 72, 0
1, 5760, Note_on_c, 0, 79, 85
1, 5760, Note_on_c, 0, 65, 0
1, 5760, Note_on_c, 0, 64, 85
1, 5780, Note_on_c, 0, 79, 0
1, 5780, Note_on_c, 0, 64, 0
1, 5808, Note_on_c, 0, 60, 85
1, 5820, Note_on_c, 0, 60, 0
1, 5820, Note_on_c, 0, 64, 85
1, 5826, Note_on_c, 0, 64, 0
1, 5826, Note_on_c, 0, 67, 85
1, 5832, Note_on_c, 0, 67, 0
1, 5832, Note_on_c, 0, 72, 85
1, 5838, Note_on_c, 0, 72, 0
1, 5838, Note_on_c, 0, 76, 85
1, 5844, Note_on_c, 0, 76, 0
1, 5844, Note_on_c, 0, 79, 85
1, 5850, Note_on_c, 0, 79, 0
1, 5850, Note_on_c, 0, 83, 85
1, 5856, Note_on_c, 0, 83, 0
1, 5856, Note_on_c, 0, 84, 101
1, 5872, Note_on_c, 0, 84, 0
1, 5872, Note_on_c, 0, 79, 85
1, 5887, Note_on_c, 0, 79, 0
1, 5888, Note_on_c, 0, 76, 85
1, 5903, Note_on_c, 0, 76, 0
1, 5904, Note_on_c, 0, 81, 85
1, 5904, Note_on_c, 0, 65, 85
1, 5919, Note_on_c, 0, 81, 0
1, 5920, Note_on_c, 0, 77, 85
1, 5935, Note_on_c, 0, 77, 0
1, 5936, Note_on_c, 0, 72, 85
1, 5951, Note_on_c, 0, 72, 0
1, 5952, Note_on_c, 0, 79, 85
1, 5952, Note_on_c, 0, 65, 0
1, 5952, Note_on_c, 0, 64, 85
1, 5972, Note_on_c, 0, 79, 0
1, 5972, Note_on_c, 0, 64, 0
1, 6000, Note_on_c, 0, 79, 85
1, 6006, Note_on_c, 0, 79, 0
1, 6006, Note_on_c, 0, 84, 85
1, 6012, Note_on_c, 0, 84, 0
1, 6012, Note_on_c, 0, 88, 85
1, 6046, Note_on_c, 0, 88, 0
1, 6048, Note_on_c, 0, 86, 85
1, 6060, Note_on_c, 0, 86, 0
1, 6060, Note_on_c, 0, 84, 84
1, 6094, Note_on_c, 0, 84, 0
1, 6096, Note_on_c, 0, 83, 83
1, 6108, Note_on_c, 0, 83, 0
1, 6108, Note_on_c, 0, 81, 83
1, 6142, Note_on_c, 0, 81, 0
1, 6144, Note_on_c, 0, 79, 82
1, 6192, Note_on_c, 0, 79, 0
1, 6192, Note_on_c, 0, 78, 81
1, 6237, Note_on_c, 0, 78, 0
1, 6240, Note_on_c, 0, 77, 79
1, 6288, Note_on_c, 1, 71, 64
1, 6329, Note_on_c, 0, 77, 0
1, 6336, Note_on_c, 0, 76, 77
1, 6336, Note_on_c, 1, 71, 0
1, 6336, Note_on_c, 1, 72, 64
1, 6381, Note_on_c, 0, 76, 0
1, 6381, Note_on_c, 1, 72, 0
1, 6384, Note_on_c, 0, 80, 80
1, 6384, Note_on_c, 1, 65, 64
1, 6396, Note_on_c, 0, 80, 0
1, 6396, Note_on_c, 0, 81, 81
1, 6429, Note_on_c, 1, 65, 0
1, 6430, Note_on_c, 0, 81, 0
1, 6432, Note_on_c, 0, 79, 84
1, 6444, Note_on_c, 0, 79, 0
1, 6444, Note_on_c, 0, 77, 85
1, 6478, Note_on_c, 0, 77, 0
1, 6480, Note_on_c, 0, 76, 85
1, 6492, Note_on_c, 0, 76, 0
1, 6492, Note_on_c, 0, 74, 85
1, 6526, Note_on_c, 0, 74, 0
1, 6528, Note_on_c, 0, 72, 85
1, 6576, Note_on_c, 1, 69, 77
1, 6576, Note_on_c, 1, 66, 77
1, 6621, Note_on_c, 1, 69, 0
1, 6621, Note_on_c, 1, 66, 0
1, 6624, Note_on_c, 1, 67, 77
1, 6661, Note_on_c, 0, 72, 0
1, 6669, Note_on_c, 1, 67, 0
1, 6672, Note_on_c, 0, 76, 79
1, 6672, Note_on_c, 1, 55, 77
1, 6678, Note_on_c, 0, 76, 0
1, 6678, Note_on_c, 0, 74, 79
1, 6717, Note_on_c, 0, 74, 0
1, 6717, Note_on_c, 1, 55, 0
1, 6720, Note_on_c, 0, 72, 77
1, 6720, Note_on_c, 1, 60, 77
1, 6740, Note_on_c, 0, 72, 0
1, 6740, Note_on_c, 1, 60, 0
1, 6768, Note_on_c, 0, 60, 85
1, 6780, Note_on_c, 0, 60, 0
1, 6780, Note_on_c, 0, 64, 85
1, 6786, Note_on_c, 0, 64, 0
1, 6786, Note_on_c, 0, 67, 85
1, 6792, Note_on_c, 0, 67, 0
1, 6792, Note_on_c, 0, 72, 85
1, 6798, Note_on_c, 0, 72, 0
1, 6798, Note_on_c, 0, 76, 85
1, 6804, Note_on_c, 0, 76, 0
1, 6804, Note_on_c, 0, 79, 85
1, 6810, Note_on_c, 0, 79, 0
1, 6810, Note_on_c, 0, 83, 85
1, 6816, Note_on_c, 0, 83, 0
1, 6816, Note_on_c, 0, 84, 101
1, 6832, Note_on_c, 0, 84, 0
1, 6832, Note_on_c, 0, 79, 85
1, 6847, Note_on_c, 0, 79, 0
1, 6848, Note_on_c, 0, 76, 85
1, 6863, Note_on_c, 0, 76, 0
1, 6864, Note_on_c, 0, 81, 85
1, 6864, Note_on_c, 1, 65, 77
1, 6879, Note_on_c, 0, 81, 0
1, 6880, Note_on_c, 0, 77, 85
1, 6895, Note_on_c, 0, 77, 0
1, 6896, Note_on_c, 0, 72, 85
1, 6911, Note_on_c, 0, 72, 0
1, 6912, Note_on_c, 0, 79, 85
1, 6912, Note_on_c, 1, 65, 0
1, 6912, Note_on_c, 1, 64, 77
1, 6932, Note_on_c, 0, 79, 0
1, 6932, Note_on_c, 1, 64, 0
1, 6960, Note_on_c, 0, 60, 85
1, 6972, Note_on_c, 0, 60, 0
1, 6972, Note_on_c, 0, 64, 85
1, 6978, Note_on_c, 0, 64, 0
1, 6978, Note_on_c, 0, 67, 85
1, 6984, Note_on_c, 0, 67, 0
1, 6984, Note_on_c, 0, 72, 85
1, 6990, Note_on_c, 0, 72, 0
1, 6990, Note_on_c, 0, 76, 85
1, 6996, Note_on_c, 0, 76, 0
1, 6996, Note_on_c, 0, 79, 85
1, 7002, Note_on_c, 0, 79, 0
1, 7002, Note_on_c, 0, 83, 85
1, 7008, Note_on_c, 0, 83, 0
1, 7008, Note_on_c, 0, 84, 101
1, 7024, Note_on_c, 0, 84, 0
1, 7024, Note_on_c, 0, 79, 85
1, 7039, Note_on_c, 0, 79, 0
1, 7040, Note_on_c, 0, 76, 85
1, 7055, Note_on_c, 0, 76, 0
1, 7056, Note_on_c, 0, 81, 85
1, 7056, Note_on_c, 0, 65, 85
1, 7071, Note_on_c, 0, 81, 0
1, 7072, Note_on_c, 0, 77, 85
1, 7087, Note_on_c, 0, 77, 0
1, 7088, Note_on_c, 0, 72, 85
1, 7103, Note_on_c, 0, 72, 0
1, 7104, Note_on_c, 0, 79, 85
1, 7104, Note_on_c, 0, 65, 0
1, 7104, Note_on_c, 0, 64, 85
1, 7124, Note_on_c, 0, 79, 0
1, 7124, Note_on_c, 0, 64, 0
1, 7152, Note_on_c, 0, 62, 85
1, 7164, Note_on_c, 0, 62, 0
1, 7164, Note_on_c, 0, 66, 85
1, 7170, Note_on_c, 0, 66, 0
1, 7170, Note_on_c, 0, 69, 85
1, 7176, Note_on_c, 0, 69, 0
1, 7176, Note_on_c, 0, 72, 85
1, 7182, Note_on_c, 0, 72, 0
1, 7182, Note_on_c, 0, 74, 85
1, 7188, Note_on_c, 0, 74, 0
1, 7188, Note_on_c, 0, 78, 85
1, 7194, Note_on_c, 0, 78, 0
1, 7194, Note_on_c, 0, 81, 85
1, 7200, Note_on_c, 0, 81, 0
1, 7200, Note_on_c, 0, 84, 101
1, 7220, Note_on_c, 0, 84, 0
1, 7248, Note_on_c, 0, 79, 85
1, 7248, Note_on_c, 0, 74, 85
1, 7248, Note_on_c, 0, 72, 85
1, 7256, Note_on_c, 0, 79, 0
1, 7256, Note_on_c, 0, 78, 85
1, 7264, Note_on_c, 0, 78, 0
1, 7264, Note_on_c, 0, 79, 85
1, 7272, Note_on_c, 0, 79, 0
1, 7272, Note_on_c, 0, 78, 85
1, 7280, Note_on_c, 0, 78, 0
1, 7280, Note_on_c, 0, 76, 85
1, 7288, Note_on_c, 0, 76, 0
1, 7288, Note_on_c, 0, 78, 85
1, 7293, Note_on_c, 0, 74, 0
1, 7293, Note_on_c, 0, 72, 0
1, 7296, Note_on_c, 0, 78, 0
1, 7296, Note_on_c, 0, 79, 85
1, 7296, Note_on_c, 0, 74, 85
1, 7296, Note_on_c, 0, 71, 85
1, 7341, Note_on_c, 0, 79, 0
1, 7341, Note_on_c, 0, 74, 0
1, 7341, Note_on_c, 0, 71, 0
1, 7344, Note_on_c, 0, 67, 85
1, 7352, Note_on_c, 0, 67, 0
1, 7352, Note_on_c, 0, 71, 85
1, 7360, Note_on_c, 0, 71, 0
1, 7360, Note_on_c, 0, 74, 85
1, 7368, Note_on_c, 0, 74, 0
1, 7368, Note_on_c, 0, 77, 85
1, 7376, Note_on_c, 0, 77, 0
1, 7376, Note_on_c, 0, 79, 85
1, 7384, Note_on_c, 0, 79, 0
1, 7384, Note_on_c, 0, 83, 85
1, 7392, Note_on_c, 0, 83, 0
1, 7392, Note_on_c, 0, 86, 101
1, 7412, Note_on_c, 0, 86, 0
1, 7440, Note_on_c, 0, 74, 85
1, 7440, Note_on_c, 0, 71, 85
1, 7440, Note_on_c, 0, 79, 85
1, 7448, Note_on_c, 0, 79, 0
1, 7448, Note_on_c, 0, 77, 85
1, 7456, Note_on_c, 0, 77, 0
1, 7456, Note_on_c, 0, 79, 85
1, 7464, Note_on_c, 0, 79, 0
1, 7464, Note_on_c, 0, 77, 85
1, 7472, Note_on_c, 0, 77, 0
1, 7472, Note_on_c, 0, 76, 85
1, 7480, Note_on_c, 0, 76, 0
1, 7480, Note_on_c, 0, 77, 85
1, 7485, Note_on_c, 0, 74, 0
1, 7485, Note_on_c, 0, 71, 0
1, 7488, Note_on_c, 0, 76, 85
1, 7488, Note_on_c, 0, 72, 85
1, 7488, Note_on_c, 0, 77, 0
1, 7533, Note_on_c, 0, 76, 0
1, 7533, Note_on_c, 0, 72, 0
1, 7536, Note_on_c, 0, 65, 85
1, 7544, Note_on_c, 0, 65, 0
1, 7544, Note_on_c, 0, 69, 85
1, 7552, Note_on_c, 0, 69, 0
1, 7552, Note_on_c, 0, 73, 85
1, 7560, Note_on_c, 0, 73, 0
1, 7560, Note_on_c, 0, 74, 85
1, 7568, Note_on_c, 0, 74, 0
1, 7568, Note_on_c, 0, 76, 85
1, 7576, Note_on_c, 0, 76, 0
1, 7576, Note_on_c, 0, 77, 85
1, 7584, Note_on_c, 0, 77, 0
1, 7584, Note_on_c, 0, 81, 101
1, 7604, Note_on_c, 0, 81, 0
1, 7632, Note_on_c, 0, 69, 85
1, 7632, Note_on_c, 0, 66, 85
1, 7632, Note_on_c, 0, 74, 85
1, 7640, Note_on_c, 0, 74, 0
1, 7640, Note_on_c, 0, 72, 85
1, 7648, Note_on_c, 0, 72, 0
1, 7648, Note_on_c, 0, 74, 85
1, 7656, Note_on_c, 0, 74, 0
1, 7656, Note_on_c, 0, 72, 85
1, 7664, Note_on_c, 0, 72, 0
1, 7664, Note_on_c, 0, 71, 85
1, 7672, Note_on_c, 0, 71, 0
1, 7672, Note_on_c, 0, 72, 85
1, 7677, Note_on_c, 0, 69, 0
1, 7677, Note_on_c, 0, 66, 0
1, 7680, Note_on_c, 0, 71, 85
1, 7680, Note_on_c, 0, 72, 0
1, 7680, Note_on_c, 0, 67, 85
1, 7700, Note_on_c, 0, 71, 0
1, 7700, Note_on_c, 0, 67, 0
1, 7728, Note_on_c, 0, 67, 60
1, 7748, Note_on_c, 0, 67, 0
1, 7776, Note_on_c, 0, 67, 61
1, 7796, Note_on_c, 0, 67, 0
1, 7824, Note_on_c, 0, 67, 62
1, 7844, Note_on_c, 0, 67, 0
1, 7872, Note_on_c, 0, 67, 63
1, 7892, Note_on_c, 0, 67, 0
1, 7920, Note_on_c, 0, 67, 65
1, 7940, Note_on_c, 0, 67, 0
1, 7968, Note_on_c, 0, 67, 66
1, 7988, Note_on_c, 0, 67, 0
1, 8016, Note_on_c, 0, 67, 67
1, 8036, Note_on_c, 0, 67, 0
1, 8064, Note_on_c, 1, 68, 60
1, 8064, Note_on_c, 1, 65, 60
1, 8084, Note_on_c, 1, 68, 0
1, 8084, Note_on_c, 1, 65, 0
1, 8112, Note_on_c, 0, 67, 70
1, 8132, Note_on_c, 0, 67, 0
1, 8160, Note_on_c, 1, 68, 64
1, 8160, Note_on_c, 1, 65, 64
1, 8180, Note_on_c, 1, 68, 0
1, 8180, Note_on_c, 1, 65, 0
1, 8208, Note_on_c, 0, 67, 72
1, 8228, Note_on_c, 0, 67, 0
1, 8256, Note_on_c, 1, 68, 68
1, 8256, Note_on_c, 1, 65, 68
1, 8276, Note_on_c, 1, 68, 0
1, 8276, Note_on_c, 1, 65, 0
1, 8304, Note_on_c, 0, 67, 75
1, 8324, Note_on_c, 0, 67, 0
1, 8352, Note_on_c, 1, 68, 72
1, 8352, Note_on_c, 1, 65, 72
1, 8372, Note_on_c, 1, 68, 0
1, 8372, Note_on_c, 1, 65, 0
1, 8400, Note_on_c, 0, 67, 77
1, 8420, Note_on_c, 0, 67, 0
1, 8448, Note_on_c, 1, 68, 76
1, 8448, Note_on_c, 1, 65, 76
1, 8458, Note_on_c, 1, 68, 0
1, 8458, Note_on_c, 1, 65, 0
1, 8472, Note_on_c, 0, 67, 79
1, 8482, Note_on_c, 0, 67, 0
1, 8496, Note_on_c, 1, 68, 78
1, 8496, Note_on_c, 1, 65, 78
1, 8506, Note_on_c, 1, 68, 0
1, 8506, Note_on_c, 1, 65, 0
1, 8520, Note_on_c, 0, 67, 81
1, 8530, Note_on_c, 0, 67, 0
1, 8544, Note_on_c, 1, 68, 80
1, 8544, Note_on_c, 1, 65, 80
1, 8554, Note_on_c, 1, 68, 0
1, 8554, Note_on_c, 1, 65, 0
1, 8568, Note_on_c, 0, 67, 82
1, 8578, Note_on_c, 0, 67, 0
1, 8592, Note_on_c, 1, 68, 82
1, 8592, Note_on_c, 1, 65, 82
1, 8602, Note_on_c, 1, 68, 0
1, 8602, Note_on_c, 1, 65, 0
1, 8616, Note_on_c, 0, 67, 83
1, 8626, Note_on_c, 0, 67, 0
1, 8640, Note_on_c, 1, 68, 84
1, 8640, Note_on_c, 1, 65, 84
1, 8650, Note_on_c, 1, 68, 0
1, 8650, Note_on_c, 1, 65, 0
1, 8664, Note_on_c, 0, 67, 85
1, 8674, Note_on_c, 0, 67, 0
1, 8688, Note_on_c, 1, 68, 85
1, 8688, Note_on_c, 1, 65, 85
1, 8698, Note_on_c, 1, 68, 0
1, 8698, Note_on_c, 1, 65, 0
1, 8712, Note_on_c, 0, 67, 85
1, 8722, Note_on_c, 0, 67, 0
1, 8736, Note_on_c, 1, 68, 85
1, 8736, Note_on_c, 1, 65, 85
1, 8746, Note_on_c, 1, 68, 0
1, 8746, Note_on_c, 1, 65, 0
1, 8760, Note_on_c, 0, 67, 85
1, 8770, Note_on_c, 0, 67, 0
1, 8784, Note_on_c, 1, 68, 85
1, 8784, Note_on_c, 1, 65, 85
1, 8794, Note_on_c, 1, 68, 0
1, 8794, Note_on_c, 1, 65, 0
1, 8808, Note_on_c, 0, 67, 85
1, 8818, Note_on_c, 0, 67, 0
1, 8832, Note_on_c, 1, 68, 85
1, 8832, Note_on_c, 1, 65, 85
1, 8832, Note_on_c, 1, 62, 85
1, 8848, Note_on_c, 0, 71, 85
1, 8864, Note_on_c, 0, 71, 0
1, 8864, Note_on_c, 0, 72, 85
1, 8879, Note_on_c, 0, 72, 0
1, 8880, Note_on_c, 0, 74, 85
1, 8895, Note_on_c, 0, 74, 0
1, 8896, Note_on_c, 0, 72, 85
1, 8911, Note_on_c, 0, 72, 0
1, 8912, Note_on_c, 0, 71, 85
1, 8927, Note_on_c, 0, 71, 0
1, 8928, Note_on_c, 0, 77, 85
1, 8943, Note_on_c, 0, 77, 0
1, 8944, Note_on_c, 0, 75, 85
1, 8959, Note_on_c, 0, 75, 0
1, 8960, Note_on_c, 0, 74, 85
1, 8975, Note_on_c, 0, 74, 0
1, 8976, Note_on_c, 0, 80, 85
1, 8991, Note_on_c, 0, 80, 0
1, 8992, Note_on_c, 0, 79, 85
1, 9007, Note_on_c, 0, 79, 0
1, 9008, Note_on_c, 0, 77, 85
1, 9023, Note_on_c, 0, 77, 0
1, 9024, Note_on_c, 0, 86, 85
1, 9044, Note_on_c, 0, 86, 0
1, 9072, Note_on_c, 0, 77, 83
1, 9092, Note_on_c, 0, 77, 0
1, 9120, Note_on_c, 0, 80, 81
1, 9140, Note_on_c, 0, 80, 0
1, 9168, Note_on_c, 0, 71, 79
1, 9186, Note_on_c, 1, 68, 0
1, 9186, Note_on_c, 1, 65, 0
1, 9186, Note_on_c, 1, 62, 0
1, 9188, Note_on_c, 0, 71, 0
1, 9216, Note_on_c, 0, 74, 77
1, 9216, Note_on_c, 1, 67, 77
1, 9216, Note_on_c, 1, 64, 77
1, 9239, Note_on_c, 0, 74, 0
1, 9240, Note_on_c, 0, 72, 79
1, 9263, Note_on_c, 0, 72, 0
1, 9264, Note_on_c, 0, 78, 81
1, 9287, Note_on_c, 0, 78, 0
1, 9288, Note_on_c, 0, 79, 83
1, 9305, Note_on_c, 1, 67, 0
1, 9305, Note_on_c, 1, 64, 0
1, 9311, Note_on_c, 0, 79, 0
1, 9312, Note_on_c, 0, 77, 85
1, 9335, Note_on_c, 0, 77, 0
1, 9336, Note_on_c, 0, 76, 83
1, 9359, Note_on_c, 0, 76, 0
1, 9360, Note_on_c, 0, 74, 81
1, 9360, Note_on_c, 1, 64, 77
1, 9383, Note_on_c, 0, 74, 0
1, 9384, Note_on_c, 0, 72, 79
1, 9405, Note_on_c, 1, 64, 0
1, 9407, Note_on_c, 0, 72, 0
1, 9408, Note_on_c, 0, 73, 77
1, 9408, Note_on_c, 1, 65, 77
1, 9431, Note_on_c, 0, 73, 0
1, 9432, Note_on_c, 0, 74, 79
1, 9455, Note_on_c, 0, 74, 0
1, 9456, Note_on_c, 0, 77, 82
1, 9479, Note_on_c, 0, 77, 0
1, 9480, Note_on_c, 0, 74, 85
1, 9497, Note_on_c, 1, 65, 0
1, 9503, Note_on_c, 0, 74, 0
1, 9504, Note_on_c, 0, 69, 83
1, 9549, Note_on_c, 0, 69, 0
1, 9552, Note_on_c, 0, 71, 80
1, 9552, Note_on_c, 1, 65, 77
1, 9552, Note_on_c, 1, 55, 77
1, 9597, Note_on_c, 0, 71, 0
1, 9597, Note_on_c, 1, 65, 0
1, 9597, Note_on_c, 1, 55, 0
1, 9600, Note_on_c, 0, 74, 77
1, 9600, Note_on_c, 1, 64, 77
1, 9600, Note_on_c, 1, 60, 77
1, 9623, Note_on_c, 0, 74, 0
1, 9624, Note_on_c, 0, 72, 79
1, 9647, Note_on_c, 0, 72, 0
1, 9648, Note_on_c, 0, 78, 82
1, 9671, Note_on_c, 0, 78, 0
1, 9672, Note_on_c, 0, 79, 85
1, 9689, Note_on_c, 1, 64, 0
1, 9689, Note_on_c, 1, 60, 0
1, 9695, Note_on_c, 0, 79, 0
1, 9696, Note_on_c, 0, 77, 83
1, 9719, Note_on_c, 0, 77, 0
1, 9720, Note_on_c, 0, 76, 81
1, 9743, Note_on_c, 0, 76, 0
1, 9744, Note_on_c, 0, 74, 80
1, 9744, Note_on_c, 1, 64, 77
1, 9767, Note_on_c, 0, 74, 0
1, 9768, Note_on_c, 0, 72, 78
1, 9789, Note_on_c, 1, 64, 0
1, 9791, Note_on_c, 0, 72, 0
1, 9792, Note_on_c, 0, 73, 77
1, 9792, Note_on_c, 1, 65, 77
1, 9815, Note_on_c, 0, 73, 0
1, 9816, Note_on_c, 0, 74, 79
1, 9839, Note_on_c, 0, 74, 0
1, 9840, Note_on_c, 0, 77, 82
1, 9863, Note_on_c, 0, 77, 0
1, 9864, Note_on_c, 0, 74, 85
1, 9881, Note_on_c, 1, 65, 0
1, 9887, Note_on_c, 0, 74, 0
1, 9888, Note_on_c, 0, 69, 83
1, 9936, Note_on_c, 0, 69, 0
1, 9936, Note_on_c, 0, 71, 80
1, 9936, Note_on_c, 1, 65, 77
1, 9936, Note_on_c, 1, 55, 77
1, 9981, Note_on_c, 0, 71, 0
1, 9981, Note_on_c, 1, 65, 0
1, 9981, Note_on_c, 1, 55, 0
1, 9984, Note_on_c, 0, 74, 77
1, 9996, Note_on_c, 0, 74, 0
1, 9996, Note_on_c, 0, 72, 77
1, 10008, Note_on_c, 0, 72, 0
1, 10008, Note_on_c, 0, 71, 77
1, 10020, Note_on_c, 0, 71, 0
1, 10020, Note_on_c, 0, 72, 77
1, 10032, Note_on_c, 1, 64, 77
1, 10032, Note_on_c, 1, 60, 64
1, 10077, Note_on_c, 1, 64, 0
1, 10077, Note_on_c, 1, 60, 0
1, 10080, Note_on_c, 1, 64, 77
1, 10080, Note_on_c, 1, 60, 64
1, 10103, Note_on_c, 0, 72, 0
1, 10104, Note_on_c, 0, 76, 77
1, 10125, Note_on_c, 1, 64, 0
1, 10127, Note_on_c, 0, 76, 0
1, 10128, Note_on_c, 0, 74, 77
1, 10128, Note_on_c, 1, 65, 77
1, 10151, Note_on_c, 0, 74, 0
1, 10152, Note_on_c, 0, 71, 77
1, 10173, Note_on_c, 1, 65, 0
1, 10175, Note_on_c, 0, 71, 0
1, 10176, Note_on_c, 0, 72, 77
1, 10176, Note_on_c, 1, 64, 77
1, 10199, Note_on_c, 0, 72, 0
1, 10200, Note_on_c, 0, 76, 77
1, 10221, Note_on_c, 1, 64, 0
1, 10223, Note_on_c, 0, 76, 0
1, 10224, Note_on_c, 0, 74, 77
1, 10224, Note_on_c, 1, 65, 77
1, 10247, Note_on_c, 0, 74, 0
1, 10248, Note_on_c, 0, 71, 77
1, 10269, Note_on_c, 1, 65, 0
1, 10271, Note_on_c, 0, 71, 0
1, 10272, Note_on_c, 0, 72, 77
1, 10272, Note_on_c, 1, 64, 77
1, 10295, Note_on_c, 0, 72, 0
1, 10296, Note_on_c, 0, 76, 77
1, 10317, Note_on_c, 1, 64, 0
1, 10319, Note_on_c, 0, 76, 0
1, 10320, Note_on_c, 0, 74, 77
1, 10320, Note_on_c, 1, 65, 77
1, 10343, Note_on_c, 0, 74, 0
1, 10344, Note_on_c, 0, 71, 77
1, 10345, Note_on_c, 1, 60, 0
1, 10365, Note_on_c, 1, 65, 0
1, 10367, Note_on_c, 0, 71, 0
1, 10368, Note_on_c, 0, 74, 77
1, 10380, Note_on_c, 0, 74, 0
1, 10380, Note_on_c, 0, 72, 77
1, 10392, Note_on_c, 0, 72, 0
1, 10392, Note_on_c, 0, 71, 77
1, 10404, Note_on_c, 0, 71, 0
1, 10404, Note_on_c, 0, 72, 77
1, 10416, Note_on_c, 1, 64, 77
1, 10416, Note_on_c, 1, 60, 64
1, 10461, Note_on_c, 1, 64, 0
1, 10461, Note_on_c, 1, 60, 0
1, 10464, Note_on_c, 1, 64, 77
1, 10464, Note_on_c, 1, 60, 64
1, 10479, Note_on_c, 0, 72, 0
1, 10480, Note_on_c, 0, 74, 77
1, 10495, Note_on_c, 0, 74, 0
1, 10496, Note_on_c, 0, 76, 77
1, 10509, Note_on_c, 1, 64, 0
1, 10511, Note_on_c, 0, 76, 0
1, 10512, Note_on_c, 0, 74, 77
1, 10512, Note_on_c, 1, 65, 77
1, 10527, Note_on_c, 0, 74, 0
1, 10528, Note_on_c, 0, 72, 77
1, 10543, Note_on_c, 0, 72, 0
1, 10544, Note_on_c, 0, 71, 77
1, 10557, Note_on_c, 1, 65, 0
1, 10559, Note_on_c, 0, 71, 0
1, 10560, Note_on_c, 0, 72, 77
1, 10560, Note_on_c, 1, 64, 77
1, 10575, Note_on_c, 0, 72, 0
1, 10576, Note_on_c, 0, 74, 77
1, 10591, Note_on_c, 0, 74, 0
1, 10592, Note_on_c, 0, 76, 77
1, 10605, Note_on_c, 1, 64, 0
1, 10607, Note_on_c, 0, 76, 0
1, 10608, Note_on_c, 0, 74, 77
1, 10608, Note_on_c, 1, 65, 77
1, 10623, Note_on_c, 0, 74, 0
1, 10624, Note_on_c, 0, 72, 77
1, 10639, Note_on_c, 0, 72, 0
1, 10640, Note_on_c, 0, 71, 77
1, 10653, Note_on_c, 1, 65, 0
1, 10655, Note_on_c, 0, 71, 0
1, 10656, Note_on_c, 0, 72, 77
1, 10656, Note_on_c, 1, 64, 77
1, 10671, Note_on_c, 0, 72, 0
1, 10672, Note_on_c, 0, 74, 77
1, 10687, Note_on_c, 0, 74, 0
1, 10688, Note_on_c, 0, 76, 77
1, 10701, Note_on_c, 1, 64, 0
1, 10703, Note_on_c, 0, 76, 0
1, 10704, Note_on_c, 0, 74, 77
1, 10704, Note_on_c, 1, 65, 77
1, 10719, Note_on_c, 0, 74, 0
1, 10720, Note_on_c, 0, 72, 77
1, 10729, Note_on_c, 1, 60, 0
1, 10735, Note_on_c, 0, 72, 0
1, 10736, Note_on_c, 0, 71, 77
1, 10749, Note_on_c, 1, 65, 0
1, 10751, Note_on_c, 0, 71, 0
1, 10752, Note_on_c, 0, 72, 77
1, 10752, Note_on_c, 1, 64, 77
1, 10752, Note_on_c, 1, 60, 64
1, 10797, Note_on_c, 0, 72, 0
1, 10800, Note_on_c, 0, 84, 77
1, 10841, Note_on_c, 1, 64, 0
1, 10841, Note_on_c, 1, 60, 0
1, 10848, Note_on_c, 1, 60, 77
1, 10848, Note_on_c, 1, 52, 64
1, 10871, Note_on_c, 0, 84, 0
1, 10872, Note_on_c, 0, 83, 77
1, 10895, Note_on_c, 0, 83, 0
1, 10896, Note_on_c, 0, 82, 77
1, 10919, Note_on_c, 0, 82, 0
1, 10920, Note_on_c, 0, 81, 77
1, 10943, Note_on_c, 0, 81, 0
1, 10944, Note_on_c, 0, 80, 77
1, 10944, Note_on_c, 1, 52, 0
1, 10944, Note_on_c, 1, 53, 64
1, 10967, Note_on_c, 0, 80, 0
1, 10968, Note_on_c, 0, 81, 77
1, 10989, Note_on_c, 1, 60, 0
1, 10989, Note_on_c, 1, 53, 0
1, 10991, Note_on_c, 0, 81, 0
1, 10992, Note_on_c, 0, 79, 77
1, 11015, Note_on_c, 0, 79, 0
1, 11016, Note_on_c, 0, 77, 77
1, 11039, Note_on_c, 0, 77, 0
1, 11040, Note_on_c, 0, 76, 77
1, 11063, Note_on_c, 0, 76, 0
1, 11064, Note_on_c, 0, 74, 77
1, 11087, Note_on_c, 0, 74, 0
1, 11088, Note_on_c, 0, 77, 77
1, 11111, Note_on_c, 0, 77, 0
1, 11112, Note_on_c, 0, 74, 77
1, 11135, Note_on_c, 0, 74, 0
1, 11136, Note_on_c, 0, 72, 77
1, 11184, Note_on_c, 1, 63, 77
1, 11184, Note_on_c, 1, 54, 64
1, 11229, Note_on_c, 1, 63, 0
1, 11229, Note_on_c, 1, 54, 0
1, 11232, Note_on_c, 1, 64, 78
1, 11232, Note_on_c, 1, 55, 64
1, 11269, Note_on_c, 0, 72, 0
1, 11277, Note_on_c, 1, 64, 0
1, 11280, Note_on_c, 0, 76, 77
1, 11280, Note_on_c, 1, 65, 80
1, 11292, Note_on_c, 0, 76, 0
1, 11292, Note_on_c, 0, 74, 77
1, 11321, Note_on_c, 1, 55, 0
1, 11325, Note_on_c, 0, 74, 0
1, 11325, Note_on_c, 1, 65, 0
1, 11328, Note_on_c, 0, 72, 77
1, 11328, Note_on_c, 1, 64, 81
1, 11328, Note_on_c, 1, 60, 64
1, 11348, Note_on_c, 0, 72, 0
1, 11376, Note_on_c, 0, 67, 77
1, 11391, Note_on_c, 0, 67, 0
1, 11392, Note_on_c, 0, 72, 77
1, 11407, Note_on_c, 0, 72, 0
1, 11408, Note_on_c, 0, 76, 77
1, 11417, Note_on_c, 1, 64, 0
1, 11417, Note_on_c, 1, 60, 0
1, 11423, Note_on_c, 0, 76, 0
1, 11424, Note_on_c, 0, 79, 77
1, 11439, Note_on_c, 0, 79, 0
1, 11440, Note_on_c, 0, 76, 77
1, 11455, Note_on_c, 0, 76, 0
1, 11456, Note_on_c, 0, 72, 77
1, 11471, Note_on_c, 0, 72, 0
1, 11472, Note_on_c, 0, 77, 77
1, 11472, Note_on_c, 1, 65, 77
1, 11472, Note_on_c, 1, 55, 64
1, 11487, Note_on_c, 0, 77, 0
1, 11488, Note_on_c, 0, 74, 77
1, 11503, Note_on_c, 0, 74, 0
1, 11504, Note_on_c, 0, 71, 77
1, 11517, Note_on_c, 1, 65, 0
1, 11517, Note_on_c, 1, 55, 0
1, 11519, Note_on_c, 0, 71, 0
1, 11520, Note_on_c, 0, 72, 77
1, 11520, Note_on_c, 1, 64, 77
1, 11520, Note_on_c, 1, 60, 64
1, 11540, Note_on_c, 0, 72, 0
1, 11565, Note_on_c, 1, 64, 0
1, 11565, Note_on_c, 1, 60, 0
1, 11568, Note_on_c, 0, 55, 77
1, 11583, Note_on_c, 0, 55, 0
1, 11584, Note_on_c, 0, 60, 77
1, 11599, Note_on_c, 0, 60, 0
1, 11600, Note_on_c, 0, 64, 77
1, 11615, Note_on_c, 0, 64, 0
1, 11616, Note_on_c, 0, 67, 77
1, 11631, Note_on_c, 0, 67, 0
1, 11632, Note_on_c, 0, 64, 77
1, 11647, Note_on_c, 0, 64, 0
1, 11648, Note_on_c, 0, 60, 77
1, 11663, Note_on_c, 0, 60, 0
1, 11664, Note_on_c, 0, 65, 77
1, 11664, Note_on_c, 1, 53, 77
1, 11664, Note_on_c, 1, 43, 64
1, 11679, Note_on_c, 0, 65, 0
1, 11680, Note_on_c, 0, 62, 77
1, 11695, Note_on_c, 0, 62, 0
1, 11696, Note_on_c, 0, 59, 77
1, 11709, Note_on_c, 1, 53, 0
1, 11709, Note_on_c, 1, 43, 0
1, 11711, Note_on_c, 0, 59, 0
1, 11712, Note_on_c, 0, 60, 77
1, 11712, Note_on_c, 1, 52, 77
1, 11712, Note_on_c, 1, 48, 64
1, 11757, Note_on_c, 0, 60, 0
1, 11757, Note_on_c, 1, 52, 0
1, 11757, Note_on_c, 1, 48, 0
1, 11904, Note_on_c, 0, 57, 85
1, 11904, Note_on_c, 1, 41, 85
1, 11910, Note_on_c, 1, 45, 85
1, 11912, Note_on_c, 0, 60, 85
1, 11916, Note_on_c, 1, 48, 85
1, 11920, Note_on_c, 0, 65, 85
1, 11922, Note_on_c, 1, 53, 85
1, 11949, Note_on_c, 0, 65, 0
1, 11949, Note_on_c, 0, 60, 0
1, 11949, Note_on_c, 0, 57, 0
1, 11949, Note_on_c, 1, 53, 0
1, 11949, Note_on_c, 1, 48, 0
1, 11949, Note_on_c, 1, 45, 0
1, 11949, Note_on_c, 1, 41, 0
1, 11952, Note_on_c, 1, 53, 85
1, 11972, Note_on_c, 1, 53, 0
1, 12000, Note_on_c, 0, 60, 85
1, 12000, Note_on_c, 0, 57, 85
1, 12000, Note_on_c, 1, 53, 85
1, 12020, Note_on_c, 0, 60, 0
1, 12020, Note_on_c, 0, 57, 0
1, 12020, Note_on_c, 1, 53, 0
1, 12048, Note_on_c, 1, 53, 85
1, 12068, Note_on_c, 1, 53, 0
1, 12072, Note_on_c, 0, 60, 85
1, 12072, Note_on_c, 0, 57, 85
1, 12082, Note_on_c, 0, 60, 0
1, 12082, Note_on_c, 0, 57, 0
1, 12096, Note_on_c, 0, 60, 85
1, 12096, Note_on_c, 0, 57, 85
1, 12096, Note_on_c, 1, 53, 85
1, 12116, Note_on_c, 1, 53, 0
1, 12141, Note_on_c, 0, 60, 0
1, 12141, Note_on_c, 0, 57, 0
1, 12144, Note_on_c, 1, 53, 83
1, 12164, Note_on_c, 1, 53, 0
1, 12192, Note_on_c, 1, 53, 81
1, 12212, Note_on_c, 1, 53, 0
1, 12240, Note_on_c, 1, 53, 79
1, 12260, Note_on_c, 1, 53, 0
1, 12288, Note_on_c, 0, 72, 77
1, 12288, Note_on_c, 0, 69, 77
1, 12288, Note_on_c, 1, 53, 77
1, 12308, Note_on_c, 1, 53, 0
1, 12336, Note_on_c, 1, 53, 77
1, 12356, Note_on_c, 1, 53, 0
1, 12384, Note_on_c, 1, 53, 77
1, 12404, Note_on_c, 1, 53, 0
1, 12429, Note_on_c, 0, 72, 0
1, 12432, Note_on_c, 0, 76, 77
1, 12432, Note_on_c, 0, 69, 0
1, 12432, Note_on_c, 0, 70, 77
1, 12432, Note_on_c, 1, 53, 77
1, 12444, Note_on_c, 0, 76, 0
1, 12444, Note_on_c, 0, 74, 77
1, 12452, Note_on_c, 1, 53, 0
1, 12477, Note_on_c, 0, 74, 0
1, 12477, Note_on_c, 0, 70, 0
1, 12480, Note_on_c, 0, 72, 77
1, 12480, Note_on_c, 0, 69, 77
1, 12480, Note_on_c, 1, 53, 77
1, 12500, Note_on_c, 1, 53, 0
1, 12528, Note_on_c, 0, 72, 0
1, 12528, Note_on_c, 0, 77, 77
1, 12528, Note_on_c, 1, 53, 77
1, 12548, Note_on_c, 0, 77, 0
1, 12548, Note_on_c, 1, 53, 0
1, 12569, Note_on_c, 0, 69, 0
1, 12576, Note_on_c, 0, 69, 77
1, 12576, Note_on_c, 0, 65, 77
1, 12576, Note_on_c, 1, 53, 77
1, 12596, Note_on_c, 1, 53, 0
1, 12621, Note_on_c, 0, 69, 0
1, 12624, Note_on_c, 0, 72, 77
1, 12624, Note_on_c, 0, 65, 0
1, 12624, Note_on_c, 0, 67, 77
1, 12624, Note_on_c, 1, 53, 77
1, 12636, Note_on_c, 0, 72, 0
1, 12636, Note_on_c, 0, 70, 77
1, 12644, Note_on_c, 1, 53, 0
1, 12669, Note_on_c, 0, 70, 0
1, 12669, Note_on_c, 0, 67, 0
1, 12672, Note_on_c, 0, 69, 77
1, 12672, Note_on_c, 0, 65, 77
1, 12672, Note_on_c, 1, 53, 77
1, 12692, Note_on_c, 1, 53, 0
1, 12720, Note_on_c, 0, 69, 0
1, 12720, Note_on_c, 0, 72, 77
1, 12720, Note_on_c, 0, 65, 0
1, 12720, Note_on_c, 0, 69, 77
1, 12740, Note_on_c, 0, 72, 0
1, 12740, Note_on_c, 0, 69, 0
1, 12768, Note_on_c, 0, 65, 77
1, 12768, Note_on_c, 1, 60, 77
1, 12768, Note_on_c, 1, 57, 77
1, 12788, Note_on_c, 0, 65, 0
1, 12788, Note_on_c, 1, 60, 0
1, 12788, Note_on_c, 1, 57, 0
1, 12816, Note_on_c, 0, 65, 77
1, 12816, Note_on_c, 1, 60, 77
1, 12816, Note_on_c, 1, 57, 77
1, 12836, Note_on_c, 0, 65, 0
1, 12836, Note_on_c, 1, 60, 0
1, 12836, Note_on_c, 1, 57, 0
1, 12864, Note_on_c, 0, 65, 77
1, 12864, Note_on_c, 1, 60, 77
1, 12864, Note_on_c, 1, 57, 77
1, 13004, Note_on_c, 0, 65, 0
1, 13004, Note_on_c, 1, 60, 0
1, 13004, Note_on_c, 1, 57, 0
1, 13008, Note_on_c, 0, 69, 77
1, 13008, Note_on_c, 1, 58, 77
1, 13008, Note_on_c, 1, 48, 77
1, 13020, Note_on_c, 0, 69, 0
1, 13020, Note_on_c, 0, 67, 77
1, 13053, Note_on_c, 0, 67, 0
1, 13053, Note_on_c, 1, 58, 0
1, 13053, Note_on_c, 1, 48, 0
1, 13056, Note_on_c, 0, 65, 77
1, 13056, Note_on_c, 1, 57, 77
1, 13056, Note_on_c, 1, 53, 77
1, 13076, Note_on_c, 0, 65, 0
1, 13101, Note_on_c, 1, 57, 0
1, 13101, Note_on_c, 1, 53, 0
1, 13152, Note_on_c, 1, 45, 77
1, 13152, Note_on_c, 1, 41, 77
1, 13172, Note_on_c, 1, 45, 0
1, 13172, Note_on_c, 1, 41, 0
1, 13224, Note_on_c, 1, 45, 77
1, 13224, Note_on_c, 1, 41, 77
1, 13234, Note_on_c, 1, 45, 0
1, 13234, Note_on_c, 1, 41, 0
1, 13248, Note_on_c, 1, 45, 77
1, 13248, Note_on_c, 1, 41, 77
1, 13293, Note_on_c, 1, 45, 0
1, 13293, Note_on_c, 1, 41, 0
1, 13344, Note_on_c, 0, 72, 77
1, 13344, Note_on_c, 0, 69, 77
1, 13389, Note_on_c, 0, 72, 0
1, 13389, Note_on_c, 0, 69, 0
1, 13392, Note_on_c, 0, 76, 77
1, 13404, Note_on_c, 0, 76, 0
1, 13404, Note_on_c, 0, 74, 77
1, 13404, Note_on_c, 0, 70, 77
1, 13437, Note_on_c, 0, 74, 0
1, 13437, Note_on_c, 0, 70, 0
1, 13440, Note_on_c, 0, 72, 77
1, 13440, Note_on_c, 0, 69, 77
1, 13488, Note_on_c, 0, 72, 0
1, 13488, Note_on_c, 0, 77, 77
1, 13508, Note_on_c, 0, 77, 0
1, 13529, Note_on_c, 0, 69, 0
1, 13536, Note_on_c, 0, 69, 77
1, 13536, Note_on_c, 0, 65, 77
1, 13581, Note_on_c, 0, 69, 0
1, 13584, Note_on_c, 0, 72, 77
1, 13584, Note_on_c, 0, 65, 0
1, 13584, Note_on_c, 0, 67, 77
1, 13596, Note_on_c, 0, 72, 0
1, 13596, Note_on_c, 0, 70, 77
1, 13629, Note_on_c, 0, 70, 0
1, 13629, Note_on_c, 0, 67, 0
1, 13632, Note_on_c, 0, 69, 77
1, 13632, Note_on_c, 0, 65, 77
1, 13680, Note_on_c, 0, 69, 0
1, 13680, Note_on_c, 0, 72, 77
1, 13680, Note_on_c, 0, 65, 0
1, 13680, Note_on_c, 0, 69, 77
1, 13700, Note_on_c, 0, 72, 0
1, 13700, Note_on_c, 0, 69, 0
1, 13728, Note_on_c, 0, 65, 77
1, 13728, Note_on_c, 1, 60, 77
1, 13728, Note_on_c, 1, 57, 77
1, 13748, Note_on_c, 0, 65, 0
1, 13748, Note_on_c, 1, 60, 0
1, 13748, Note_on_c, 1, 57, 0
1, 13776, Note_on_c, 0, 65, 77
1, 13776, Note_on_c, 1, 60, 77
1, 13776, Note_on_c, 1, 57, 77
1, 13796, Note_on_c, 0, 65, 0
1, 13796, Note_on_c, 1, 60, 0
1, 13796, Note_on_c, 1, 57, 0
1, 13824, Note_on_c, 0, 65, 77
1, 13824, Note_on_c, 1, 60, 77
1, 13824, Note_on_c, 1, 57, 77
1, 13964, Note_on_c, 0, 65, 0
1, 13964, Note_on_c, 1, 60, 0
1, 13964, Note_on_c, 1, 57, 0
1, 13968, Note_on_c, 0, 69, 77
1, 13968, Note_on_c, 1, 58, 77
1, 13968, Note_on_c, 1, 48, 77
1, 13980, Note_on_c, 0, 69, 0
1, 13980, Note_on_c, 0, 67, 77
1, 14013, Note_on_c, 0, 67, 0
1, 14013, Note_on_c, 1, 58, 0
1, 14013, Note_on_c, 1, 48, 0
1, 14016, Note_on_c, 0, 65, 77
1, 14016, Note_on_c, 1, 57, 77
1, 14016, Note_on_c, 1, 53, 77
1, 14061, Note_on_c, 0, 65, 0
1, 14061, Note_on_c, 1, 57, 0
1, 14061, Note_on_c, 1, 53, 0
1, 14112, Note_on_c, 0, 81, 77
1, 14157, Note_on_c, 0, 81, 0
1, 14160, Note_on_c, 0, 82, 77
1, 14170, Note_on_c, 0, 82, 0
1, 14170, Note_on_c, 0, 81, 77
1, 14180, Note_on_c, 0, 81, 0
1, 14180, Note_on_c, 0, 79, 77
1, 14190, Note_on_c, 0, 79, 0
1, 14190, Note_on_c, 0, 81, 77
1, 14199, Note_on_c, 0, 81, 0
1, 14199, Note_on_c, 0, 82, 77
1, 14208, Note_on_c, 0, 82, 0
1, 14208, Note_on_c, 0, 84, 77
1, 14231, Note_on_c, 0, 84, 0
1, 14232, Note_on_c, 0, 82, 74
1, 14255, Note_on_c, 0, 82, 0
1, 14256, Note_on_c, 0, 81, 71
1, 14279, Note_on_c, 0, 81, 0
1, 14280, Note_on_c, 0, 79, 68
1, 14303, Note_on_c, 0, 79, 0
1, 14304, Note_on_c, 0, 77, 69
1, 14327, Note_on_c, 0, 77, 0
1, 14328, Note_on_c, 0, 76, 71
1, 14351, Note_on_c, 0, 76, 0
1, 14352, Note_on_c, 0, 79, 73
1, 14375, Note_on_c, 0, 79, 0
1, 14376, Note_on_c, 0, 77, 75
1, 14399, Note_on_c, 0, 77, 0
1, 14400, Note_on_c, 0, 81, 77
1, 14423, Note_on_c, 0, 81, 0
1, 14424, Note_on_c, 0, 79, 74
1, 14447, Note_on_c, 0, 79, 0
1, 14448, Note_on_c, 0, 77, 72
1, 14471, Note_on_c, 0, 77, 0
1, 14472, Note_on_c, 0, 76, 70
1, 14495, Note_on_c, 0, 76, 0
1, 14496, Note_on_c, 0, 74, 68
1, 14544, Note_on_c, 0, 74, 0
1, 14544, Note_on_c, 0, 73, 85
1, 14544, Note_on_c, 1, 70, 77
1, 14544, Note_on_c, 1, 67, 77
1, 14564, Note_on_c, 1, 70, 0
1, 14564, Note_on_c, 1, 67, 0
1, 14589, Note_on_c, 0, 73, 0
1, 14592, Note_on_c, 0, 76, 60
1, 14640, Note_on_c, 0, 76, 0
1, 14640, Note_on_c, 0, 74, 85
1, 14640, Note_on_c, 1, 69, 77
1, 14640, Note_on_c, 1, 65, 77
1, 14660, Note_on_c, 1, 69, 0
1, 14660, Note_on_c, 1, 65, 0
1, 14685, Note_on_c, 0, 74, 0
1, 14688, Note_on_c, 0, 77, 60
1, 14736, Note_on_c, 0, 77, 0
1, 14736, Note_on_c, 0, 76, 85
1, 14736, Note_on_c, 1, 69, 77
1, 14736, Note_on_c, 1, 61, 77
1, 14756, Note_on_c, 1, 69, 0
1, 14756, Note_on_c, 1, 61, 0
1, 14781, Note_on_c, 0, 76, 0
1, 14784, Note_on_c, 0, 79, 60
1, 14832, Note_on_c, 0, 79, 0
1, 14832, Note_on_c, 0, 77, 85
1, 14832, Note_on_c, 1, 69, 77
1, 14832, Note_on_c, 1, 62, 77
1, 14852, Note_on_c, 1, 69, 0
1, 14852, Note_on_c, 1, 62, 0
1, 14877, Note_on_c, 0, 77, 0
1, 14880, Note_on_c, 0, 81, 77
1, 14925, Note_on_c, 0, 81, 0
1, 14928, Note_on_c, 0, 82, 77
1, 14938, Note_on_c, 0, 82, 0
1, 14938, Note_on_c, 0, 81, 77
1, 14948, Note_on_c, 0, 81, 0
1, 14948, Note_on_c, 0, 79, 77
1, 14958, Note_on_c, 0, 79, 0
1, 14958, Note_on_c, 0, 81, 77
1, 14967, Note_on_c, 0, 81, 0
1, 14967, Note_on_c, 0, 82, 77
1, 14976, Note_on_c, 0, 82, 0
1, 14976, Note_on_c, 0, 84, 77
1, 14999, Note_on_c, 0, 84, 0
1, 15000, Note_on_c, 0, 82, 74
1, 15023, Note_on_c, 0, 82, 0
1, 15024, Note_on_c, 0, 81, 71
1, 15047, Note_on_c, 0, 81, 0
1, 15048, Note_on_c, 0, 79, 68
1, 15071, Note_on_c, 0, 79, 0
1, 15072, Note_on_c, 0, 77, 69
1, 15095, Note_on_c, 0, 77, 0
1, 15096, Note_on_c, 0, 76, 71
1, 15119, Note_on_c, 0, 76, 0
1, 15120, Note_on_c, 0, 79, 73
1, 15143, Note_on_c, 0, 79, 0
1, 15144, Note_on_c, 0, 77, 75
1, 15167, Note_on_c, 0, 77, 0
1, 15168, Note_on_c, 0, 81, 77
1, 15191, Note_on_c, 0, 81, 0
1, 15192, Note_on_c, 0, 77, 74
1, 15215, Note_on_c, 0, 77, 0
1, 15216, Note_on_c, 0, 76, 71
1, 15239, Note_on_c, 0, 76, 0
1, 15240, Note_on_c, 0, 74, 68
1, 15263, Note_on_c, 0, 74, 0
1, 15264, Note_on_c, 0, 72, 60
1, 15312, Note_on_c, 0, 72, 0
1, 15312, Note_on_c, 0, 71, 85
1, 15312, Note_on_c, 1, 67, 77
1, 15312, Note_on_c, 1, 65, 77
1, 15332, Note_on_c, 1, 67, 0
1, 15332, Note_on_c, 1, 65, 0
1, 15357, Note_on_c, 0, 71, 0
1, 15360, Note_on_c, 0, 74, 60
1, 15408, Note_on_c, 0, 74, 0
1, 15408, Note_on_c, 0, 72, 85
1, 15408, Note_on_c, 1, 67, 77
1, 15408, Note_on_c, 1, 64, 77
1, 15428, Note_on_c, 1, 67, 0
1, 15428, Note_on_c, 1, 64, 0
1, 15453, Note_on_c, 0, 72, 0
1, 15456, Note_on_c, 0, 76, 60
1, 15504, Note_on_c, 0, 76, 0
1, 15504, Note_on_c, 0, 74, 85
1, 15504, Note_on_c, 1, 67, 77
1, 15504, Note_on_c, 1, 59, 77
1, 15524, Note_on_c, 1, 67, 0
1, 15524, Note_on_c, 1, 59, 0
1, 15549, Note_on_c, 0, 74, 0
1, 15552, Note_on_c, 0, 77, 60
1, 15600, Note_on_c, 0, 77, 0
1, 15600, Note_on_c, 0, 76, 85
1, 15600, Note_on_c, 1, 67, 77
1, 15600, Note_on_c, 1, 60, 77
1, 15620, Note_on_c, 1, 67, 0
1, 15620, Note_on_c, 1, 60, 0
1, 15645, Note_on_c, 0, 76, 0
1, 15648, Note_on_c, 0, 76, 77
1, 15693, Note_on_c, 0, 76, 0
1, 15696, Note_on_c, 0, 77, 77
1, 15706, Note_on_c, 0, 77, 0
1, 15706, Note_on_c, 0, 76, 77
1, 15716, Note_on_c, 0, 76, 0
1, 15716, Note_on_c, 0, 74, 77
1, 15726, Note_on_c, 0, 74, 0
1, 15726, Note_on_c, 0, 76, 77
1, 15735, Note_on_c, 0, 76, 0
1, 15735, Note_on_c, 0, 77, 77
1, 15744, Note_on_c, 0, 77, 0
1, 15744, Note_on_c, 0, 79, 77
1, 15767, Note_on_c, 0, 79, 0
1, 15768, Note_on_c, 0, 76, 74
1, 15791, Note_on_c, 0, 76, 0
1, 15792, Note_on_c, 0, 74, 72
1, 15815, Note_on_c, 0, 74, 0
1, 15816, Note_on_c, 0, 72, 70
1, 15839, Note_on_c, 0, 72, 0
1, 15840, Note_on_c, 0, 71, 68
1, 15864, Note_on_c, 0, 71, 0
1, 15864, Note_on_c, 0, 72, 70
1, 15887, Note_on_c, 0, 72, 0
1, 15888, Note_on_c, 0, 74, 72
1, 15911, Note_on_c, 0, 74, 0
1, 15912, Note_on_c, 0, 72, 74
1, 15935, Note_on_c, 0, 72, 0
1, 15936, Note_on_c, 0, 76, 77
1, 15936, Note_on_c, 1, 69, 68
1, 15936, Note_on_c, 1, 65, 68
1, 15948, Note_on_c, 0, 76, 0
1, 15948, Note_on_c, 0, 74, 77
1, 15984, Note_on_c, 0, 74, 0
1, 15984, Note_on_c, 0, 72, 77
1, 15984, Note_on_c, 1, 69, 0
1, 15984, Note_on_c, 1, 65, 0
1, 15984, Note_on_c, 1, 67, 68
1, 15984, Note_on_c, 1, 64, 68
1, 16029, Note_on_c, 0, 72, 0
1, 16029, Note_on_c, 1, 67, 0
1, 16029, Note_on_c, 1, 64, 0
1, 16032, Note_on_c, 0, 76, 77
1, 16032, Note_on_c, 1, 69, 68
1, 16032, Note_on_c, 1, 65, 68
1, 16044, Note_on_c, 0, 76, 0
1, 16044, Note_on_c, 0, 74, 77
1, 16080, Note_on_c, 0, 74, 0
1, 16080, Note_on_c, 0, 72, 77
1, 16080, Note_on_c, 1, 69, 0
1, 16080, Note_on_c, 1, 65, 0
1, 16080, Note_on_c, 1, 67, 68
1, 16080, Note_on_c, 1, 64, 68
1, 16125, Note_on_c, 0, 72, 0
1, 16125, Note_on_c, 1, 67, 0
1, 16125, Note_on_c, 1, 64, 0
1, 16128, Note_on_c, 0, 76, 77
1, 16128, Note_on_c, 1, 69, 68
1, 16128, Note_on_c, 1, 65, 68
1, 16140, Note_on_c, 0, 76, 0
1, 16140, Note_on_c, 0, 74, 77
1, 16176, Note_on_c, 0, 74, 0
1, 16176, Note_on_c, 0, 72, 77
1, 16176, Note_on_c, 1, 69, 0
1, 16176, Note_on_c, 1, 65, 0
1, 16176, Note_on_c, 1, 67, 68
1, 16176, Note_on_c, 1, 64, 68
1, 16221, Note_on_c, 0, 72, 0
1, 16221, Note_on_c, 1, 67, 0
1, 16221, Note_on_c, 1, 64, 0
1, 16224, Note_on_c, 0, 79, 77
1, 16272, Note_on_c, 1, 51, 77
1, 16320, Note_on_c, 0, 79, 0
1, 16320, Note_on_c, 0, 78, 77
1, 16320, Note_on_c, 1, 51, 0
1, 16320, Note_on_c, 1, 50, 77
1, 16365, Note_on_c, 0, 78, 0
1, 16365, Note_on_c, 1, 50, 0
1, 16368, Note_on_c, 0, 72, 77
1, 16368, Note_on_c, 1, 66, 77
1, 16416, Note_on_c, 0, 72, 0
1, 16416, Note_on_c, 0, 71, 77
1, 16416, Note_on_c, 1, 66, 0
1, 16416, Note_on_c, 1, 67, 77
1, 16461, Note_on_c, 0, 71, 0
1, 16461, Note_on_c, 1, 67, 0
1, 16464, Note_on_c, 0, 77, 77
1, 16464, Note_on_c, 1, 59, 77
1, 16512, Note_on_c, 0, 77, 0
1, 16512, Note_on_c, 0, 76, 77
1, 16512, Note_on_c, 1, 59, 0
1, 16512, Note_on_c, 1, 60, 77
1, 16557, Note_on_c, 0, 76, 0
1, 16557, Note_on_c, 1, 60, 0
1, 16560, Note_on_c, 0, 70, 77
1, 16560, Note_on_c, 1, 64, 77
1, 16608, Note_on_c, 0, 70, 0
1, 16608, Note_on_c, 0, 69, 77
1, 16608, Note_on_c, 1, 64, 0
1, 16608, Note_on_c, 1, 65, 77
1, 16653, Note_on_c, 0, 69, 0
1, 16656, Note_on_c, 0, 80, 77
1, 16697, Note_on_c, 1, 65, 0
1, 16704, Note_on_c, 0, 80, 0
1, 16704, Note_on_c, 0, 81, 77
1, 16704, Note_on_c, 1, 53, 77
1, 16749, Note_on_c, 0, 81, 0
1, 16752, Note_on_c, 0, 83, 77
1, 16762, Note_on_c, 0, 83, 0
1, 16762, Note_on_c, 0, 81, 77
1, 16772, Note_on_c, 0, 81, 0
1, 16772, Note_on_c, 0, 80, 77
1, 16782, Note_on_c, 0, 80, 0
1, 16782, Note_on_c, 0, 81, 77
1, 16791, Note_on_c, 0, 81, 0
1, 16791, Note_on_c, 0, 83, 77
1, 16793, Note_on_c, 1, 53, 0
1, 16800, Note_on_c, 0, 83, 0
1, 16800, Note_on_c, 0, 84, 77
1, 16845, Note_on_c, 0, 84, 0
1, 16848, Note_on_c, 0, 84, 77
1, 16893, Note_on_c, 0, 84, 0
1, 16896, Note_on_c, 0, 84, 77
1, 16916, Note_on_c, 0, 84, 0
1, 16944, Note_on_c, 1, 54, 77
1, 16964, Note_on_c, 1, 54, 0
1, 16992, Note_on_c, 0, 69, 77
1, 17012, Note_on_c, 0, 69, 0
1, 17040, Note_on_c, 1, 60, 77
1, 17060, Note_on_c, 1, 60, 0
1, 17088, Note_on_c, 0, 59, 77
1, 17108, Note_on_c, 0, 59, 0
1, 17136, Note_on_c, 1, 55, 77
1, 17156, Note_on_c, 1, 55, 0
1, 17184, Note_on_c, 0, 43, 77
1, 17273, Note_on_c, 0, 43, 0
1, 17328, Note_on_c, 0, 60, 85
1, 17340, Note_on_c, 0, 60, 0
1, 17340, Note_on_c, 0, 64, 85
1, 17346, Note_on_c, 0, 64, 0
1, 17346, Note_on_c, 0, 67, 85
1, 17352, Note_on_c, 0, 67, 0
1, 17352, Note_on_c, 0, 72, 85
1, 17358, Note_on_c, 0, 72, 0
1, 17358, Note_on_c, 0, 76, 85
1, 17364, Note_on_c, 0, 76, 0
1, 17364, Note_on_c, 0, 79, 85
1, 17370, Note_on_c, 0, 79, 0
1, 17370, Note_on_c, 0, 83, 85
1, 17376, Note_on_c, 0, 83, 0
1, 17376, Note_on_c, 0, 84, 101
1, 17392, Note_on_c, 0, 84, 0
1, 17392, Note_on_c, 0, 79, 85
1, 17407, Note_on_c, 0, 79, 0
1, 17408, Note_on_c, 0, 76, 85
1, 17423, Note_on_c, 0, 76, 0
1, 17424, Note_on_c, 0, 81, 85
1, 17424, Note_on_c, 0, 65, 85
1, 17439, Note_on_c, 0, 81, 0
1, 17440, Note_on_c, 0, 77, 85
1, 17455, Note_on_c, 0, 77, 0
1, 17456, Note_on_c, 0, 72, 85
1, 17471, Note_on_c, 0, 72, 0
1, 17472, Note_on_c, 0, 79, 85
1, 17472, Note_on_c, 0, 65, 0
1, 17472, Note_on_c, 0, 64, 85
1, 17492, Note_on_c, 0, 79, 0
1, 17492, Note_on_c, 0, 64, 0
1, 17520, Note_on_c, 0, 60, 85
1, 17532, Note_on_c, 0, 60, 0
1, 17532, Note_on_c, 0, 64, 85
1, 17538, Note_on_c, 0, 64, 0
1, 17538, Note_on_c, 0, 67, 85
1, 17544, Note_on_c, 0, 67, 0
1, 17544, Note_on_c, 0, 72, 85
1, 17550, Note_on_c, 0, 72, 0
1, 17550, Note_on_c, 0, 76, 85
1, 17556, Note_on_c, 0, 76, 0
1, 17556, Note_on_c, 0, 79, 85
1, 17562, Note_on_c, 0, 79, 0
1, 17562, Note_on_c, 0, 83, 85
1, 17568, Note_on_c, 0, 83, 0
1, 17568, Note_on_c, 0, 84, 101
1, 17584, Note_on_c, 0, 84, 0
1, 17584, Note_on_c, 0, 79, 85
1, 17599, Note_on_c, 0, 79, 0
1, 17600, Note_on_c, 0, 76, 85
1, 17615, Note_on_c, 0, 76, 0
1, 17616, Note_on_c, 0, 81, 85
1, 17616, Note_on_c, 0, 65, 85
1, 17631, Note_on_c, 0, 81, 0
1, 17632, Note_on_c, 0, 77, 85
1, 17647, Note_on_c, 0, 77, 0
1, 17648, Note_on_c, 0, 72, 85
1, 17663, Note_on_c, 0, 72, 0
1, 17664, Note_on_c, 0, 79, 85
1, 17664, Note_on_c, 0, 65, 0
1, 17664, Note_on_c, 0, 64, 85
1, 17684, Note_on_c, 0, 79, 0
1, 17684, Note_on_c, 0, 64, 0
1, 17712, Note_on_c, 0, 60, 85
1, 17724, Note_on_c, 0, 60, 0
1, 17724, Note_on_c, 0, 64, 85
1, 17730, Note_on_c, 0, 64, 0
1, 17730, Note_on_c, 0, 67, 85
1, 17736, Note_on_c, 0, 67, 0
1, 17736, Note_on_c, 0, 72, 85
1, 17742, Note_on_c, 0, 72, 0
1, 17742, Note_on_c, 0, 76, 85
1, 17748, Note_on_c, 0, 76, 0
1, 17748, Note_on_c, 0, 79, 85
1, 17754, Note_on_c, 0, 79, 0
1, 17754, Note_on_c, 0, 83, 85
1, 17760, Note_on_c, 0, 83, 0
1, 17760, Note_on_c, 0, 84, 101
1, 17776, Note_on_c, 0, 84, 0
1, 17776, Note_on_c, 0, 79, 85
1, 17791, Note_on_c, 0, 79, 0
1, 17792, Note_on_c, 0, 76, 85
1, 17807, Note_on_c, 0, 76, 0
1, 17808, Note_on_c, 0, 81, 85
1, 17808, Note_on_c, 0, 65, 85
1, 17823, Note_on_c, 0, 81, 0
1, 17824, Note_on_c, 0, 77, 85
1, 17839, Note_on_c, 0, 77, 0
1, 17840, Note_on_c, 0, 72, 85
1, 17855, Note_on_c, 0, 72, 0
1, 17856, Note_on_c, 0, 79, 85
1, 17856, Note_on_c, 0, 65, 0
1, 17856, Note_on_c, 0, 64, 85
1, 17876, Note_on_c, 0, 79, 0
1, 17876, Note_on_c, 0, 64, 0
1, 17904, Note_on_c, 0, 79, 85
1, 17910, Note_on_c, 0, 79, 0
1, 17910, Note_on_c, 0, 84, 85
1, 17916, Note_on_c, 0, 84, 0
1, 17916, Note_on_c, 0, 88, 85
1, 17950, Note_on_c, 0, 88, 0
1, 17952, Note_on_c, 0, 86, 85
1, 17964, Note_on_c, 0, 86, 0
1, 17964, Note_on_c, 0, 84, 84
1, 17998, Note_on_c, 0, 84, 0
1, 18000, Note_on_c, 0, 83, 83
1, 18012, Note_on_c, 0, 83, 0
1, 18012, Note_on_c, 0, 81, 83
1, 18046, Note_on_c, 0, 81, 0
1, 18048, Note_on_c, 0, 79, 82
1, 18096, Note_on_c, 0, 79, 0
1, 18096, Note_on_c, 0, 78, 81
1, 18141, Note_on_c, 0, 78, 0
1, 18144, Note_on_c, 0, 77, 79
1, 18192, Note_on_c, 1, 71, 64
1, 18233, Note_on_c, 0, 77, 0
1, 18240, Note_on_c, 0, 76, 77
1, 18240, Note_on_c, 1, 71, 0
1, 18240, Note_on_c, 1, 72, 64
1, 18285, Note_on_c, 0, 76, 0
1, 18285, Note_on_c, 1, 72, 0
1, 18288, Note_on_c, 0, 80, 80
1, 18288, Note_on_c, 1, 65, 64
1, 18300, Note_on_c, 0, 80, 0
1, 18300, Note_on_c, 0, 81, 81
1, 18333, Note_on_c, 1, 65, 0
1, 18334, Note_on_c, 0, 81, 0
1, 18336, Note_on_c, 0, 79, 84
1, 18348, Note_on_c, 0, 79, 0
1, 18348, Note_on_c, 0, 77, 85
1, 18382, Note_on_c, 0, 77, 0
1, 18384, Note_on_c, 0, 76, 85
1, 18396, Note_on_c, 0, 76, 0
1, 18396, Note_on_c, 0, 74, 85
1, 18430, Note_on_c, 0, 74, 0
1, 18432, Note_on_c, 0, 72, 85
1, 18480, Note_on_c, 1, 69, 77
1, 18480, Note_on_c, 1, 66, 77
1, 18525, Note_on_c, 1, 69, 0
1, 18525, Note_on_c, 1, 66, 0
1, 18528, Note_on_c, 1, 67, 77
1, 18565, Note_on_c, 0, 72, 0
1, 18573, Note_on_c, 1, 67, 0
1, 18576, Note_on_c, 0, 76, 79
1, 18576, Note_on_c, 1, 55, 77
1, 18582, Note_on_c, 0, 76, 0
1, 18582, Note_on_c, 0, 74, 79
1, 18621, Note_on_c, 0, 74, 0
1, 18621, Note_on_c, 1, 55, 0
1, 18624, Note_on_c, 0, 72, 77
1, 18624, Note_on_c, 1, 60, 77
1, 18644, Note_on_c, 0, 72, 0
1, 18644, Note_on_c, 1, 60, 0
1, 18672, Note_on_c, 0, 60, 85
1, 18684, Note_on_c, 0, 60, 0
1, 18684, Note_on_c, 0, 64, 85
1, 18690, Note_on_c, 0, 64, 0
1, 18690, Note_on_c, 0, 67, 85
1, 18696, Note_on_c, 0, 67, 0
1, 18696, Note_on_c, 0, 72, 85
1, 18702, Note_on_c, 0, 72, 0
1, 18702, Note_on_c, 0, 76, 85
1, 18708, Note_on_c, 0, 76, 0
1, 18708, Note_on_c, 0, 79, 85
1, 18714, Note_on_c, 0, 79, 0
1, 18714, Note_on_c, 0, 83, 85
1, 18720, Note_on_c, 0, 83, 0
1, 18720, Note_on_c, 0, 84, 101
1, 18736, Note_on_c, 0, 84, 0
1, 18736, Note_on_c, 0, 79, 85
1, 18751, Note_on_c, 0, 79, 0
1, 18752, Note_on_c, 0, 76, 85
1, 18767, Note_on_c, 0, 76, 0
1, 18768, Note_on_c, 0, 81, 85
1, 18768, Note_on_c, 1, 65, 77
1, 18783, Note_on_c, 0, 81, 0
1, 18784, Note_on_c, 0, 77, 85
1, 18799, Note_on_c, 0, 77, 0
1, 18800, Note_on_c, 0, 72, 85
1, 18815, Note_on_c, 0, 72, 0
1, 18816, Note_on_c, 0, 79, 85
1, 18816, Note_on_c, 1, 65, 0
1, 18816, Note_on_c, 1, 64, 77
1, 18836, Note_on_c, 0, 79, 0
1, 18836, Note_on_c, 1, 64, 0
1, 18864, Note_on_c, 0, 60, 85
1, 18876, Note_on_c, 0, 60, 0
1, 18876, Note_on_c, 0, 64, 85
1, 18882, Note_on_c, 0, 64, 0
1, 18882, Note_on_c, 0, 67, 85
1, 18888, Note_on_c, 0, 67, 0
1, 18888, Note_on_c, 0, 72, 85
1, 18894, Note_on_c, 0, 72, 0
1, 18894, Note_on_c, 0, 76, 85
1, 18900, Note_on_c, 0, 76, 0
1, 18900, Note_on_c, 0, 79, 85
1, 18906, Note_on_c, 0, 79, 0
1, 18906, Note_on_c, 0, 83, 85
1, 18912, Note_on_c, 0, 83, 0
1, 18912, Note_on_c, 0, 84, 101
1, 18928, Note_on_c, 0, 84, 0
1, 18928, Note_on_c, 0, 79, 85
1, 18943, Note_on_c, 0, 79, 0
1, 18944, Note_on_c, 0, 76, 85
1, 18959, Note_on_c, 0, 76, 0
1, 18960, Note_on_c, 0, 81, 85
1, 18960, Note_on_c, 0, 65, 85
1, 18975, Note_on_c, 0, 81, 0
1, 18976, Note_on_c, 0, 77, 85
1, 18991, Note_on_c, 0, 77, 0
1, 18992, Note_on_c, 0, 72, 85
1, 19007, Note_on_c, 0, 72, 0
1, 19008, Note_on_c, 0, 79, 85
1, 19008, Note_on_c, 0, 65, 0
1, 19008, Note_on_c, 0, 64, 85
1, 19028, Note_on_c, 0, 79, 0
1, 19028, Note_on_c, 0, 64, 0
1, 19056, Note_on_c, 0, 62, 85
1, 19068, Note_on_c, 0, 62, 0
1, 19068, Note_on_c, 0, 66, 85
1, 19074, Note_on_c, 0, 66, 0
1, 19074, Note_on_c, 0, 69, 85
1, 19080, Note_on_c, 0, 69, 0
1, 19080, Note_on_c, 0, 72, 85
1, 19086, Note_on_c, 0, 72, 0
1, 19086, Note_on_c, 0, 74, 85
1, 19092, Note_on_c, 0, 74, 0
1, 19092, Note_on_c, 0, 78, 85
1, 19098, Note_on_c, 0, 78, 0
1, 19098, Note_on_c, 0, 81, 85
1, 19104, Note_on_c, 0, 81, 0
1, 19104, Note_on_c, 0, 84, 101
1, 19124, Note_on_c, 0, 84, 0
1, 19152, Note_on_c, 0, 79, 85
1, 19152, Note_on_c, 0, 74, 85
1, 19152, Note_on_c, 0, 72, 85
1, 19160, Note_on_c, 0, 79, 0
1, 19160, Note_on_c, 0, 78, 85
1, 19168, Note_on_c, 0, 78, 0
1, 19168, Note_on_c, 0, 79, 85
1, 19176, Note_on_c, 0, 79, 0
1, 19176, Note_on_c, 0, 78, 85
1, 19184, Note_on_c, 0, 78, 0
1, 19184, Note_on_c, 0, 76, 85
1, 19192, Note_on_c, 0, 76, 0
1, 19192, Note_on_c, 0, 78, 85
1, 19197, Note_on_c, 0, 74, 0
1, 19197, Note_on_c, 0, 72, 0
1, 19200, Note_on_c, 0, 78, 0
1, 19200, Note_on_c, 0, 79, 85
1, 19200, Note_on_c, 0, 74, 85
1, 19200, Note_on_c, 0, 71, 85
1, 19245, Note_on_c, 0, 79, 0
1, 19245, Note_on_c, 0, 74, 0
1, 19245, Note_on_c, 0, 71, 0
1, 19248, Note_on_c, 0, 67, 85
1, 19256, Note_on_c, 0, 67, 0
1, 19256, Note_on_c, 0, 71, 85
1, 19264, Note_on_c, 0, 71, 0
1, 19264, Note_on_c, 0, 74, 85
1, 19272, Note_on_c, 0, 74, 0
1, 19272, Note_on_c, 0, 77, 85
1, 19280, Note_on_c, 0, 77, 0
1, 19280, Note_on_c, 0, 79, 85
1, 19288, Note_on_c, 0, 79, 0
1, 19288, Note_on_c, 0, 83, 85
1, 19296, Note_on_c, 0, 83, 0
1, 19296, Note_on_c, 0, 86, 101
1, 19316, Note_on_c, 0, 86, 0
1, 19344, Note_on_c, 0, 74, 85
1, 19344, Note_on_c, 0, 71, 85
1, 19344, Note_on_c, 0, 79, 85
1, 19352, Note_on_c, 0, 79, 0
1, 19352, Note_on_c, 0, 77, 85
1, 19360, Note_on_c, 0, 77, 0
1, 19360, Note_on_c, 0, 79, 85
1, 19368, Note_on_c, 0, 79, 0
1, 19368, Note_on_c, 0, 77, 85
1, 19376, Note_on_c, 0, 77, 0
1, 19376, Note_on_c, 0, 76, 85
1, 19384, Note_on_c, 0, 76, 0
1, 19384, Note_on_c, 0, 77, 85
1, 19389, Note_on_c, 0, 74, 0
1, 19389, Note_on_c, 0, 71, 0
1, 19392, Note_on_c, 0, 76, 85
1, 19392, Note_on_c, 0, 72, 85
1, 19392, Note_on_c, 0, 77, 0
1, 19437, Note_on_c, 0, 76, 0
1, 19437, Note_on_c, 0, 72, 0
1, 19440, Note_on_c, 0, 65, 85
1, 19448, Note_on_c, 0, 65, 0
1, 19448, Note_on_c, 0, 69, 85
1, 19456, Note_on_c, 0, 69, 0
1, 19456, Note_on_c, 0, 73, 85
1, 19464, Note_on_c, 0, 73, 0
1, 19464, Note_on_c, 0, 74, 85
1, 19472, Note_on_c, 0, 74, 0
1, 19472, Note_on_c, 0, 76, 85
1, 19480, Note_on_c, 0, 76, 0
1, 19480, Note_on_c, 0, 77, 85
1, 19488, Note_on_c, 0, 77, 0
1, 19488, Note_on_c, 0, 81, 101
1, 19508, Note_on_c, 0, 81, 0
1, 19536, Note_on_c, 0, 69, 85
1, 19536, Note_on_c, 0, 66, 85
1, 19536, Note_on_c, 0, 74, 85
1, 19544, Note_on_c, 0, 74, 0
1, 19544, Note_on_c, 0, 72, 85
1, 19552, Note_on_c, 0, 72, 0
1, 19552, Note_on_c, 0, 74, 85
1, 19560, Note_on_c, 0, 74, 0
1, 19560, Note_on_c, 0, 72, 85
1, 19568, Note_on_c, 0, 72, 0
1, 19568, Note_on_c, 0, 71, 85
1, 19576, Note_on_c, 0, 71, 0
1, 19576, Note_on_c, 0, 72, 85
1, 19581, Note_on_c, 0, 69, 0
1, 19581, Note_on_c, 0, 66, 0
1, 19584, Note_on_c, 0, 71, 85
1, 19584, Note_on_c, 0, 72, 0
1, 19584, Note_on_c, 0, 67, 85
1, 19604, Note_on_c, 0, 71, 0
1, 19604, Note_on_c, 0, 67, 0
1, 19632, Note_on_c, 0, 67, 60
1, 19652, Note_on_c, 0, 67, 0
1, 19680, Note_on_c, 0, 67, 61
1, 19700, Note_on_c, 0, 67, 0
1, 19728, Note_on_c, 0, 67, 62
1, 19748, Note_on_c, 0, 67, 0
1, 19776, Note_on_c, 0, 67, 63
1, 19796, Note_on_c, 0, 67, 0
1, 19824, Note_on_c, 0, 67, 65
1, 19844, Note_on_c, 0, 67, 0
1, 19872, Note_on_c, 0, 67, 66
1, 19892, Note_on_c, 0, 67, 0
1, 19920, Note_on_c, 0, 67, 67
1, 19940, Note_on_c, 0, 67, 0
1, 19968, Note_on_c, 1, 68, 60
1, 19968, Note_on_c, 1, 65, 60
1, 19988, Note_on_c, 1, 68, 0
1, 19988, Note_on_c, 1, 65, 0
1, 20016, Note_on_c, 0, 67, 70
1, 20036, Note_on_c, 0, 67, 0
1, 20064, Note_on_c, 1, 68, 64
1, 20064, Note_on_c, 1, 65, 64
1, 20084, Note_on_c, 1, 68, 0
1, 20084, Note_on_c, 1, 65, 0
1, 20112, Note_on_c, 0, 67, 72
1, 20132, Note_on_c, 0, 67, 0
1, 20160, Note_on_c, 1, 68, 68
1, 20160, Note_on_c, 1, 65, 68
1, 20180, Note_on_c, 1, 68, 0
1, 20180, Note_on_c, 1, 65, 0
1, 20208, Note_on_c, 0, 67, 75
1, 20228, Note_on_c, 0, 67, 0
1, 20256, Note_on_c, 1, 68, 72
1, 20256, Note_on_c, 1, 65, 72
1, 20276, Note_on_c, 1, 68, 0
1, 20276, Note_on_c, 1, 65, 0
1, 20304, Note_on_c, 0, 67, 77
1, 20324, Note_on_c, 0, 67, 0
1, 20352, Note_on_c, 1, 68, 76
1, 20352, Note_on_c, 1, 65, 76
1, 20362, Note_on_c, 1, 68, 0
1, 20362, Note_on_c, 1, 65, 0
1, 20376, Note_on_c, 0, 67, 79
1, 20386, Note_on_c, 0, 67, 0
1, 20400, Note_on_c, 1, 68, 78
1, 20400, Note_on_c, 1, 65, 78
1, 20410, Note_on_c, 1, 68, 0
1, 20410, Note_on_c, 1, 65, 0
1, 20424, Note_on_c, 0, 67, 81
1, 20434, Note_on_c, 0, 67, 0
1, 20448, Note_on_c, 1, 68, 80
1, 20448, Note_on_c, 1, 65, 80
1, 20458, Note_on_c, 1, 68, 0
1, 20458, Note_on_c, 1, 65, 0
1, 20472, Note_on_c, 0, 67, 82
1, 20482, Note_on_c, 0, 67, 0
1, 20496, Note_on_c, 1, 68, 82
1, 20496, Note_on_c, 1, 65, 82
1, 20506, Note_on_c, 1, 68, 0
1, 20506, Note_on_c, 1, 65, 0
1, 20520, Note_on_c, 0, 67, 83
1, 20530, Note_on_c, 0, 67, 0
1, 20544, Note_on_c, 1, 68, 84
1, 20544, Note_on_c, 1, 65, 84
1, 20554, Note_on_c, 1, 68, 0
1, 20554, Note_on_c, 1, 65, 0
1, 20568, Note_on_c, 0, 67, 85
1, 20578, Note_on_c, 0, 67, 0
1, 20592, Note_on_c, 1, 68, 85
1, 20592, Note_on_c, 1, 65, 85
1, 20602, Note_on_c, 1, 68, 0
1, 20602, Note_on_c, 1, 65, 0
1, 20616, Note_on_c, 0, 67, 85
1, 20626, Note_on_c, 0, 67, 0
1, 20640, Note_on_c, 1, 68, 85
1, 20640, Note_on_c, 1, 65, 85
1, 20650, Note_on_c, 1, 68, 0
1, 20650, Note_on_c, 1, 65, 0
1, 20664, Note_on_c, 0, 67, 85
1, 20674, Note_on_c, 0, 67, 0
1, 20688, Note_on_c, 1, 68, 85
1, 20688, Note_on_c, 1, 65, 85
1, 20698, Note_on_c, 1, 68, 0
1, 20698, Note_on_c, 1, 65, 0
1, 20712, Note_on_c, 0, 67, 85
1, 20722, Note_on_c, 0, 67, 0
1, 20736, Note_on_c, 1, 68, 85
1, 20736, Note_on_c, 1, 65, 85
1, 20736, Note_on_c, 1, 62, 85
1, 20752, Note_on_c, 0, 71, 85
1, 20768, Note_on_c, 0, 71, 0
1, 20768, Note_on_c, 0, 72, 85
1, 20783, Note_on_c, 0, 72, 0
1, 20784, Note_on_c, 0, 74, 85
1, 20799, Note_on_c, 0, 74, 0
1, 20800, Note_on_c, 0, 72, 85
1, 20815, Note_on_c, 0, 72, 0
1, 20816, Note_on_c, 0, 71, 85
1, 20831, Note_on_c, 0, 71, 0
1, 20832, Note_on_c, 0, 77, 85
1, 20847, Note_on_c, 0, 77, 0
1, 20848, Note_on_c, 0, 75, 85
1, 20863, Note_on_c, 0, 75, 0
1, 20864, Note_on_c, 0, 74, 85
1, 20879, Note_on_c, 0, 74, 0
1, 20880, Note_on_c, 0, 80, 85
1, 20895, Note_on_c, 0, 80, 0
1, 20896, Note_on_c, 0, 79, 85
1, 20911, Note_on_c, 0, 79, 0
1, 20912, Note_on_c, 0, 77, 85
1, 20927, Note_on_c, 0, 77, 0
1, 20928, Note_on_c, 0, 86, 85
1, 20948, Note_on_c, 0, 86, 0
1, 20976, Note_on_c, 0, 77, 83
1, 20996, Note_on_c, 0, 77, 0
1, 21024, Note_on_c, 0, 80, 81
1, 21044, Note_on_c, 0, 80, 0
1, 21072, Note_on_c, 0, 71, 79
1, 21090, Note_on_c, 1, 68, 0
1, 21090, Note_on_c, 1, 65, 0
1, 21090, Note_on_c, 1, 62, 0
1, 21092, Note_on_c, 0, 71, 0
1, 21120, Note_on_c, 0, 74, 77
1, 21120, Note_on_c, 1, 67, 77
1, 21120, Note_on_c, 1, 64, 77
1, 21143, Note_on_c, 0, 74, 0
1, 21144, Note_on_c, 0, 72, 79
1, 21167, Note_on_c, 0, 72, 0
1, 21168, Note_on_c, 0, 78, 81
1, 21191, Note_on_c, 0, 78, 0
1, 21192, Note_on_c, 0, 79, 83
1, 21209, Note_on_c, 1, 67, 0
1, 21209, Note_on_c, 1, 64, 0
1, 21215, Note_on_c, 0, 79, 0
1, 21216, Note_on_c, 0, 77, 85
1, 21239, Note_on_c, 0, 77, 0
1, 21240, Note_on_c, 0, 76, 83
1, 21263, Note_on_c, 0, 76, 0
1, 21264, Note_on_c, 0, 74, 81
1, 21264, Note_on_c, 1, 64, 77
1, 21287, Note_on_c, 0, 74, 0
1, 21288, Note_on_c, 0, 72, 79
1, 21309, Note_on_c, 1, 64, 0
1, 21311, Note_on_c, 0, 72, 0
1, 21312, Note_on_c, 0, 73, 77
1, 21312, Note_on_c, 1, 65, 77
1, 21335, Note_on_c, 0, 73, 0
1, 21336, Note_on_c, 0, 74, 79
1, 21359, Note_on_c, 0, 74, 0
1, 21360, Note_on_c, 0, 77, 82
1, 21383, Note_on_c, 0, 77, 0
1, 21384, Note_on_c, 0, 74, 85
1, 21401, Note_on_c, 1, 65, 0
1, 21407, Note_on_c, 0, 74, 0
1, 21408, Note_on_c, 0, 69, 83
1, 21453, Note_on_c, 0, 69, 0
1, 21456, Note_on_c, 0, 71, 80
1, 21456, Note_on_c, 1, 65, 77
1, 21456, Note_on_c, 1, 55, 77
1, 21501, Note_on_c, 0, 71, 0
1, 21501, Note_on_c, 1, 65, 0
1, 21501, Note_on_c, 1, 55, 0
1, 21504, Note_on_c, 0, 74, 77
1, 21504, Note_on_c, 1, 64, 77
1, 21504, Note_on_c, 1, 60, 77
1, 21527, Note_on_c, 0, 74, 0
1, 21528, Note_on_c, 0, 72, 79
1, 21551, Note_on_c, 0, 72, 0
1, 21552, Note_on_c, 0, 78, 82
1, 21575, Note_on_c, 0, 78, 0
1, 21576, Note_on_c, 0, 79, 85
1, 21593, Note_on_c, 1, 64, 0
1, 21593, Note_on_c, 1, 60, 0
1, 21599, Note_on_c, 0, 79, 0
1, 21600, Note_on_c, 0, 77, 83
1, 21623, Note_on_c, 0, 77, 0
1, 21624, Note_on_c, 0, 76, 81
1, 21647, Note_on_c, 0, 76, 0
1, 21648, Note_on_c, 0, 74, 80
1, 21648, Note_on_c, 1, 64, 77
1, 21671, Note_on_c, 0, 74, 0
1, 21672, Note_on_c, 0, 72, 78
1, 21693, Note_on_c, 1, 64, 0
1, 21695, Note_on_c, 0, 72, 0
1, 21696, Note_on_c, 0, 73, 77
1, 21696, Note_on_c, 1, 65, 77
1, 21719, Note_on_c, 0, 73, 0
1, 21720, Note_on_c, 0, 74, 79
1, 21743, Note_on_c, 0, 74, 0
1, 21744, Note_on_c, 0, 77, 82
1, 21767, Note_on_c, 0, 77, 0
1, 21768, Note_on_c, 0, 74, 85
1, 21785, Note_on_c, 1, 65, 0
1, 21791, Note_on_c, 0, 74, 0
1, 21792, Note_on_c, 0, 69, 83
1, 21840, Note_on_c, 0, 69, 0
1, 21840, Note_on_c, 0, 71, 80
1, 21840, Note_on_c, 1, 65, 77
1, 21840, Note_on_c, 1, 55, 77
1, 21885, Note_on_c, 0, 71, 0
1, 21885, Note_on_c, 1, 65, 0
1, 21885, Note_on_c, 1, 55, 0
1, 21888, Note_on_c, 0, 74, 77
1, 21900, Note_on_c, 0, 74, 0
1, 21900, Note_on_c, 0, 72, 77
1, 21912, Note_on_c, 0, 72, 0
1, 21912, Note_on_c, 0, 71, 77
1, 21924, Note_on_c, 0, 71, 0
1, 21924, Note_on_c, 0, 72, 77
1, 21936, Note_on_c, 1, 64, 77
1, 21936, Note_on_c, 1, 60, 64
1, 21981, Note_on_c, 1, 64, 0
1, 21981, Note_on_c, 1, 60, 0
1, 21984, Note_on_c, 1, 64, 77
1, 21984, Note_on_c, 1, 60, 64
1, 22007, Note_on_c, 0, 72, 0
1, 22008, Note_on_c, 0, 76, 77
1, 22029, Note_on_c, 1, 64, 0
1, 22031, Note_on_c, 0, 76, 0
1, 22032, Note_on_c, 0, 74, 77
1, 22032, Note_on_c, 1, 65, 77
1, 22055, Note_on_c, 0, 74, 0
1, 22056, Note_on_c, 0, 71, 77
1, 22077, Note_on_c, 1, 65, 0
1, 22079, Note_on_c, 0, 71, 0
1, 22080, Note_on_c, 0, 72, 77
1, 22080, Note_on_c, 1, 64, 77
1, 22103, Note_on_c, 0, 72, 0
1, 22104, Note_on_c, 0, 76, 77
1, 22125, Note_on_c, 1, 64, 0
1, 22127, Note_on_c, 0, 76, 0
1, 22128, Note_on_c, 0, 74, 77
1, 22128, Note_on_c, 1, 65, 77
1, 22151, Note_on_c, 0, 74, 0
1, 22152, Note_on_c, 0, 71, 77
1, 22173, Note_on_c, 1, 65, 0
1, 22175, Note_on_c, 0, 71, 0
1, 22176, Note_on_c, 0, 72, 77
1, 22176, Note_on_c, 1, 64, 77
1, 22199, Note_on_c, 0, 72, 0
1, 22200, Note_on_c, 0, 76, 77
1, 22221, Note_on_c, 1, 64, 0
1, 22223, Note_on_c, 0, 76, 0
1, 22224, Note_on_c, 0, 74, 77
1, 22224, Note_on_c, 1, 65, 77
1, 22247, Note_on_c, 0, 74, 0
1, 22248, Note_on_c, 0, 71, 77
1, 22249, Note_on_c, 1, 60, 0
1, 22269, Note_on_c, 1, 65, 0
1, 22271, Note_on_c, 0, 71, 0
1, 22272, Note_on_c, 0, 74, 77
1, 22284, Note_on_c, 0, 74, 0
1, 22284, Note_on_c, 0, 72, 77
1, 22296, Note_on_c, 0, 72, 0
1, 22296, Note_on_c, 0, 71, 77
1, 22308, Note_on_c, 0, 71, 0
1, 22308, Note_on_c, 0, 72, 77
1, 22320, Note_on_c, 1, 64, 77
1, 22320, Note_on_c, 1, 60, 64
1, 22365, Note_on_c, 1, 64, 0
1, 22365, Note_on_c, 1, 60, 0
1, 22368, Note_on_c, 1, 64, 77
1, 22368, Note_on_c, 1, 60, 64
1, 22383, Note_on_c, 0, 72, 0
1, 22384, Note_on_c, 0, 74, 77
1, 22399, Note_on_c, 0, 74, 0
1, 22400, Note_on_c, 0, 76, 77
1, 22413, Note_on_c, 1, 64, 0
1, 22415, Note_on_c, 0, 76, 0
1, 22416, Note_on_c, 0, 74, 77
1, 22416, Note_on_c, 1, 65, 77
1, 22431, Note_on_c, 0, 74, 0
1, 22432, Note_on_c, 0, 72, 77
1, 22447, Note_on_c, 0, 72, 0
1, 22448, Note_on_c, 0, 71, 77
1, 22461, Note_on_c, 1, 65, 0
1, 22463, Note_on_c, 0, 71, 0
1, 22464, Note_on_c, 0, 72, 77
1, 22464, Note_on_c, 1, 64, 77
1, 22479, Note_on_c, 0, 72, 0
1, 22480, Note_on_c, 0, 74, 77
1, 22495, Note_on_c, 0, 74, 0
1, 22496, Note_on_c, 0, 76, 77
1, 22509, Note_on_c, 1, 64, 0
1, 22511, Note_on_c, 0, 76, 0
1, 22512, Note_on_c, 0, 74, 77
1, 22512, Note_on_c, 1, 65, 77
1, 22527, Note_on_c, 0, 74, 0
1, 22528, Note_on_c, 0, 72, 77
1, 22543, Note_on_c, 0, 72, 0
1, 22544, Note_on_c, 0, 71, 77
1, 22557, Note_on_c, 1, 65, 0
1, 22559, Note_on_c, 0, 71, 0
1, 22560, Note_on_c, 0, 72, 77
1, 22560, Note_on_c, 1, 64, 77
1, 22575, Note_on_c, 0, 72, 0
1, 22576, Note_on_c, 0, 74, 77
1, 22591, Note_on_c, 0, 74, 0
1, 22592, Note_on_c, 0, 76, 77
1, 22605, Note_on_c, 1, 64, 0
1, 22607, Note_on_c, 0, 76, 0
1, 22608, Note_on_c, 0, 74, 77
1, 22608, Note_on_c, 1, 65, 77
1, 22623, Note_on_c, 0, 74, 0
1, 22624, Note_on_c, 0, 72, 77
1, 22633, Note_on_c, 1, 60, 0
1, 22639, Note_on_c, 0, 72, 0
1, 22640, Note_on_c, 0, 71, 77
1, 22653, Note_on_c, 1, 65, 0
1, 22655, Note_on_c, 0, 71, 0
1, 22656, Note_on_c, 0, 72, 77
1, 22656, Note_on_c, 1, 64, 77
1, 22656, Note_on_c, 1, 60, 64
1, 22701, Note_on_c, 0, 72, 0
1, 22704, Note_on_c, 0, 84, 77
1, 22745, Note_on_c, 1, 64, 0
1, 22745, Note_on_c, 1, 60, 0
1, 22752, Note_on_c, 1, 60, 77
1, 22752, Note_on_c, 1, 52, 64
1, 22775, Note_on_c, 0, 84, 0
1, 22776, Note_on_c, 0, 83, 77
1, 22799, Note_on_c, 0, 83, 0
1, 22800, Note_on_c, 0, 82, 77
1, 22823, Note_on_c, 0, 82, 0
1, 22824, Note_on_c, 0, 81, 77
1, 22847, Note_on_c, 0, 81, 0
1, 22848, Note_on_c, 0, 80, 77
1, 22848, Note_on_c, 1, 52, 0
1, 22848, Note_on_c, 1, 53, 64
1, 22871, Note_on_c, 0, 80, 0
1, 22872, Note_on_c, 0, 81, 77
1, 22893, Note_on_c, 1, 60, 0
1, 22893, Note_on_c, 1, 53, 0
1, 22895, Note_on_c, 0, 81, 0
1, 22896, Note_on_c, 0, 79, 77
1, 22919, Note_on_c, 0, 79, 0
1, 22920, Note_on_c, 0, 77, 77
1, 22943, Note_on_c, 0, 77, 0
1, 22944, Note_on_c, 0, 76, 77
1, 22967, Note_on_c, 0, 76, 0
1, 22968, Note_on_c, 0, 74, 77
1, 22991, Note_on_c, 0, 74, 0
1, 22992, Note_on_c, 0, 77, 77
1, 23015, Note_on_c, 0, 77, 0
1, 23016, Note_on_c, 0, 74, 77
1, 23039, Note_on_c, 0, 74, 0
1, 23040, Note_on_c, 0, 72, 77
1, 23088, Note_on_c, 1, 63, 77
1, 23088, Note_on_c, 1, 54, 64
1, 23133, Note_on_c, 1, 63, 0
1, 23133, Note_on_c, 1, 54, 0
1, 23136, Note_on_c, 1, 64, 78
1, 23136, Note_on_c, 1, 55, 64
1, 23173, Note_on_c, 0, 72, 0
1, 23181, Note_on_c, 1, 64, 0
1, 23184, Note_on_c, 0, 76, 77
1, 23184, Note_on_c, 1, 65, 80
1, 23196, Note_on_c, 0, 76, 0
1, 23196, Note_on_c, 0, 74, 77
1, 23225, Note_on_c, 1, 55, 0
1, 23229, Note_on_c, 0, 74, 0
1, 23229, Note_on_c, 1, 65, 0
1, 23232, Note_on_c, 0, 72, 77
1, 23232, Note_on_c, 1, 64, 81
1, 23232, Note_on_c, 1, 60, 64
1, 23252, Note_on_c, 0, 72, 0
1, 23280, Note_on_c, 0, 67, 77
1, 23295, Note_on_c, 0, 67, 0
1, 23296, Note_on_c, 0, 72, 77
1, 23311, Note_on_c, 0, 72, 0
1, 23312, Note_on_c, 0, 76, 77
1, 23321, Note_on_c, 1, 64, 0
1, 23321, Note_on_c, 1, 60, 0
1, 23327, Note_on_c, 0, 76, 0
1, 23328, Note_on_c, 0, 79, 77
1, 23343, Note_on_c, 0, 79, 0
1, 23344, Note_on_c, 0, 76, 77
1, 23359, Note_on_c, 0, 76, 0
1, 23360, Note_on_c, 0, 72, 77
1, 23375, Note_on_c, 0, 72, 0
1, 23376, Note_on_c, 0, 77, 77
1, 23376, Note_on_c, 1, 65, 77
1, 23376, Note_on_c, 1, 55, 64
1, 23391, Note_on_c, 0, 77, 0
1, 23392, Note_on_c, 0, 74, 77
1, 23407, Note_on_c, 0, 74, 0
1, 23408, Note_on_c, 0, 71, 77
1, 23421, Note_on_c, 1, 65, 0
1, 23421, Note_on_c, 1, 55, 0
1, 23423, Note_on_c, 0, 71, 0
1, 23424, Note_on_c, 0, 72, 77
1, 23424, Note_on_c, 1, 64, 77
1, 23424, Note_on_c, 1, 60, 64
1, 23444, Note_on_c, 0, 72, 0
1, 23469, Note_on_c, 1, 64, 0
1, 23469, Note_on_c, 1, 60, 0
1, 23472, Note_on_c, 0, 55, 77
1, 23487, Note_on_c, 0, 55, 0
1, 23488, Note_on_c, 0, 60, 77
1, 23503, Note_on_c, 0, 60, 0
1, 23504, Note_on_c, 0, 64, 77
1, 23519, Note_on_c, 0, 64, 0
1, 23520, Note_on_c, 0, 67, 77
1, 23535, Note_on_c, 0, 67, 0
1, 23536, Note_on_c, 0, 64, 77
1, 23551, Note_on_c, 0, 64, 0
1, 23552, Note_on_c, 0, 60, 77
1, 23567, Note_on_c, 0, 60, 0
1, 23568, Note_on_c, 0, 65, 77
1, 23568, Note_on_c, 1, 53, 77
1, 23568, Note_on_c, 1, 43, 64
1, 23583, Note_on_c, 0, 65, 0
1, 23584, Note_on_c, 0, 62, 77
1, 23599, Note_on_c, 0, 62, 0
1, 23600, Note_on_c, 0, 59, 77
1, 23613, Note_on_c, 1, 53, 0
1, 23613, Note_on_c, 1, 43, 0
1, 23615, Note_on_c, 0, 59, 0
1, 23616, Note_on_c, 0, 60, 77
1, 23616, Note_on_c, 1, 52, 77
1, 23616, Note_on_c, 1, 48, 64
1, 23661, Note_on_c, 0, 60, 0
1, 23661, Note_on_c, 1, 52, 0
1, 23661, Note_on_c, 1, 48, 0
1, 23808, Note_on_c, 0, 72, 85
1, 23808, Note_on_c, 1, 48, 85
1, 23814, Note_on_c, 0, 75, 85
1, 23814, Note_on_c, 1, 51, 85
1, 23820, Note_on_c, 0, 79, 85
1, 23820, Note_on_c, 1, 55, 85
1, 23826, Note_on_c, 0, 84, 85
1, 23826, Note_on_c, 1, 60, 85
1, 23853, Note_on_c, 0, 84, 0
1, 23853, Note_on_c, 0, 79, 0
1, 23853, Note_on_c, 0, 75, 0
1, 23853, Note_on_c, 0, 72, 0
1, 23853, Note_on_c, 1, 60, 0
1, 23853, Note_on_c, 1, 55, 0
1, 23853, Note_on_c, 1, 51, 0
1, 23853, Note_on_c, 1, 48, 0
1, 23856, Note_on_c, 1, 60, 85
1, 23876, Note_on_c, 1, 60, 0
1, 23904, Note_on_c, 0, 67, 85
1, 23904, Note_on_c, 0, 63, 85
1, 23904, Note_on_c, 1, 60, 85
1, 23924, Note_on_c, 0, 67, 0
1, 23924, Note_on_c, 0, 63, 0
1, 23924, Note_on_c, 1, 60, 0
1, 23952, Note_on_c, 1, 60, 85
1, 23972, Note_on_c, 1, 60, 0
1, 23976, Note_on_c, 0, 67, 85
1, 23976, Note_on_c, 0, 63, 85
1, 23986, Note_on_c, 0, 67, 0
1, 23986, Note_on_c, 0, 63, 0
1, 24000, Note_on_c, 0, 67, 85
1, 24000, Note_on_c, 0, 63, 85
1, 24000, Note_on_c, 1, 60, 85
1, 24020, Note_on_c, 1, 60, 0
1, 24045, Note_on_c, 0, 67, 0
1, 24045, Note_on_c, 0, 63, 0
1, 24048, Note_on_c, 1, 60, 85
1, 24068, Note_on_c, 1, 60, 0
1, 24096, Note_on_c, 1, 60, 85
1, 24116, Note_on_c, 1, 60, 0
1, 24144, Note_on_c, 1, 60, 85
1, 24164, Note_on_c, 1, 60, 0
1, 24192, Note_on_c, 0, 72, 85
1, 24192, Note_on_c, 1, 48, 85
1, 24198, Note_on_c, 0, 75, 85
1, 24198, Note_on_c, 1, 51, 85
1, 24204, Note_on_c, 0, 80, 85
1, 24204, Note_on_c, 1, 56, 85
1, 24210, Note_on_c, 0, 84, 85
1, 24210, Note_on_c, 1, 60, 85
1, 24237, Note_on_c, 0, 84, 0
1, 24237, Note_on_c, 0, 80, 0
1, 24237, Note_on_c, 0, 75, 0
1, 24237, Note_on_c, 0, 72, 0
1, 24237, Note_on_c, 1, 60, 0
1, 24237, Note_on_c, 1, 56, 0
1, 24237, Note_on_c, 1, 51, 0
1, 24237, Note_on_c, 1, 48, 0
1, 24240, Note_on_c, 1, 60, 85
1, 24260, Note_on_c, 1, 60, 0
1, 24288, Note_on_c, 0, 68, 85
1, 24288, Note_on_c, 0, 63, 85
1, 24288, Note_on_c, 1, 60, 85
1, 24308, Note_on_c, 0, 68, 0
1, 24308, Note_on_c, 0, 63, 0
1, 24308, Note_on_c, 1, 60, 0
1, 24336, Note_on_c, 1, 60, 85
1, 24356, Note_on_c, 1, 60, 0
1, 24360, Note_on_c, 0, 68, 85
1, 24360, Note_on_c, 0, 63, 85
1, 24370, Note_on_c, 0, 68, 0
1, 24370, Note_on_c, 0, 63, 0
1, 24384, Note_on_c, 0, 68, 85
1, 24384, Note_on_c, 0, 63, 85
1, 24384, Note_on_c, 1, 60, 85
1, 24404, Note_on_c, 1, 60, 0
1, 24429, Note_on_c, 0, 68, 0
1, 24429, Note_on_c, 0, 63, 0
1, 24432, Note_on_c, 1, 60, 85
1, 24452, Note_on_c, 1, 60, 0
1, 24480, Note_on_c, 1, 60, 85
1, 24500, Note_on_c, 1, 60, 0
1, 24528, Note_on_c, 1, 60, 85
1, 24548, Note_on_c, 1, 60, 0
1, 24576, Note_on_c, 0, 78, 85
1, 24576, Note_on_c, 1, 60, 85
1, 24582, Note_on_c, 0, 81, 85
1, 24582, Note_on_c, 1, 63, 85
1, 24588, Note_on_c, 0, 84, 85
1, 24588, Note_on_c, 1, 66, 85
1, 24594, Note_on_c, 0, 87, 85
1, 24594, Note_on_c, 1, 69, 85
1, 24621, Note_on_c, 0, 87, 0
1, 24621, Note_on_c, 0, 84, 0
1, 24621, Note_on_c, 0, 81, 0
1, 24621, Note_on_c, 0, 78, 0
1, 24621, Note_on_c, 1, 69, 0
1, 24621, Note_on_c, 1, 66, 0
1, 24621, Note_on_c, 1, 63, 0
1, 24621, Note_on_c, 1, 60, 0
1, 24624, Note_on_c, 1, 72, 85
1, 24624, Note_on_c, 1, 69, 85
1, 24644, Note_on_c, 1, 72, 0
1, 24644, Note_on_c, 1, 69, 0
1, 24672, Note_on_c, 0, 78, 85
1, 24672, Note_on_c, 0, 75, 85
1, 24672, Note_on_c, 1, 72, 85
1, 24672, Note_on_c, 1, 69, 85
1, 24692, Note_on_c, 0, 78, 0
1, 24692, Note_on_c, 0, 75, 0
1, 24692, Note_on_c, 1, 72, 0
1, 24692, Note_on_c, 1, 69, 0
1, 24720, Note_on_c, 1, 72, 85
1, 24720, Note_on_c, 1, 69, 85
1, 24740, Note_on_c, 1, 72, 0
1, 24740, Note_on_c, 1, 69, 0
1, 24744, Note_on_c, 0, 78, 85
1, 24744, Note_on_c, 0, 75, 85
1, 24754, Note_on_c, 0, 78, 0
1, 24754, Note_on_c, 0, 75, 0
1, 24768, Note_on_c, 0, 78, 85
1, 24768, Note_on_c, 0, 75, 85
1, 24768, Note_on_c, 1, 72, 85
1, 24768, Note_on_c, 1, 69, 85
1, 24813, Note_on_c, 0, 78, 0
1, 24813, Note_on_c, 0, 75, 0
1, 24813, Note_on_c, 1, 72, 0
1, 24813, Note_on_c, 1, 69, 0
1, 24960, Note_on_c, 0, 62, 77
1, 24960, Note_on_c, 0, 58, 85
1, 24960, Note_on_c, 1, 43, 77
1, 25005, Note_on_c, 1, 43, 0
1, 25008, Note_on_c, 1, 55, 77
1, 25053, Note_on_c, 1, 55, 0
1, 25056, Note_on_c, 1, 55, 77
1, 25093, Note_on_c, 0, 62, 0
1, 25093, Note_on_c, 0, 58, 0
1, 25101, Note_on_c, 1, 55, 0
1, 25104, Note_on_c, 0, 65, 77
1, 25104, Note_on_c, 0, 60, 85
1, 25104, Note_on_c, 1, 55, 77
1, 25116, Note_on_c, 0, 65, 0
1, 25116, Note_on_c, 0, 63, 77
1, 25149, Note_on_c, 0, 63, 0
1, 25149, Note_on_c, 0, 60, 0
1, 25149, Note_on_c, 1, 55, 0
1, 25152, Note_on_c, 0, 62, 77
1, 25152, Note_on_c, 0, 58, 85
1, 25152, Note_on_c, 1, 55, 77
1, 25197, Note_on_c, 0, 62, 0
1, 25200, Note_on_c, 0, 67, 77
1, 25220, Note_on_c, 0, 67, 0
1, 25241, Note_on_c, 0, 58, 0
1, 25241, Note_on_c, 1, 55, 0
1, 25248, Note_on_c, 0, 58, 77
1, 25248, Note_on_c, 0, 55, 85
1, 25293, Note_on_c, 0, 58, 0
1, 25293, Note_on_c, 0, 55, 0
1, 25296, Note_on_c, 0, 62, 77
1, 25296, Note_on_c, 0, 57, 85
1, 25308, Note_on_c, 0, 62, 0
1, 25308, Note_on_c, 0, 60, 77
1, 25341, Note_on_c, 0, 60, 0
1, 25341, Note_on_c, 0, 57, 0
1, 25344, Note_on_c, 0, 58, 77
1, 25344, Note_on_c, 0, 55, 85
1, 25368, Note_on_c, 1, 43, 77
1, 25389, Note_on_c, 0, 58, 0
1, 25389, Note_on_c, 0, 55, 0
1, 25391, Note_on_c, 1, 43, 0
1, 25392, Note_on_c, 0, 62, 77
1, 25392, Note_on_c, 0, 58, 85
1, 25392, Note_on_c, 1, 46, 77
1, 25415, Note_on_c, 1, 46, 0
1, 25416, Note_on_c, 1, 50, 77
1, 25437, Note_on_c, 0, 62, 0
1, 25437, Note_on_c, 0, 58, 0
1, 25439, Note_on_c, 1, 50, 0
1, 25440, Note_on_c, 1, 55, 77
1, 25464, Note_on_c, 0, 58, 77
1, 25485, Note_on_c, 1, 55, 0
1, 25487, Note_on_c, 0, 58, 0
1, 25488, Note_on_c, 0, 62, 77
1, 25511, Note_on_c, 0, 62, 0
1, 25512, Note_on_c, 0, 67, 77
1, 25535, Note_on_c, 0, 67, 0
1, 25536, Note_on_c, 0, 70, 77
1, 25559, Note_on_c, 0, 70, 0
1, 25560, Note_on_c, 0, 67, 77
1, 25583, Note_on_c, 0, 67, 0
1, 25584, Note_on_c, 0, 70, 78
1, 25607, Note_on_c, 0, 70, 0
1, 25608, Note_on_c, 0, 74, 79
1, 25631, Note_on_c, 0, 74, 0
1, 25632, Note_on_c, 0, 79, 80
1, 25655, Note_on_c, 0, 79, 0
1, 25656, Note_on_c, 0, 74, 81
1, 25679, Note_on_c, 0, 74, 0
1, 25680, Note_on_c, 0, 70, 82
1, 25703, Note_on_c, 0, 70, 0
1, 25704, Note_on_c, 0, 67, 83
1, 25727, Note_on_c, 0, 67, 0
1, 25728, Note_on_c, 0, 69, 85
1, 25728, Note_on_c, 1, 43, 85
1, 25734, Note_on_c, 1, 49, 85
1, 25737, Note_on_c, 0, 73, 85
1, 25740, Note_on_c, 1, 52, 85
1, 25746, Note_on_c, 0, 76, 85
1, 25746, Note_on_c, 1, 55, 85
1, 25755, Note_on_c, 0, 81, 85
1, 25773, Note_on_c, 1, 55, 0
1, 25773, Note_on_c, 1, 52, 0
1, 25773, Note_on_c, 1, 49, 0
1, 25773, Note_on_c, 1, 43, 0
1, 25776, Note_on_c, 1, 57, 85
1, 25776, Note_on_c, 1, 55, 85
1, 25795, Note_on_c, 0, 81, 0
1, 25795, Note_on_c, 0, 76, 0
1, 25795, Note_on_c, 0, 73, 0
1, 25795, Note_on_c, 0, 69, 0
1, 25796, Note_on_c, 1, 57, 0
1, 25796, Note_on_c, 1, 55, 0
1, 25824, Note_on_c, 0, 64, 85
1, 25824, Note_on_c, 0, 61, 85
1, 25824, Note_on_c, 1, 57, 85
1, 25824, Note_on_c, 1, 55, 85
1, 25844, Note_on_c, 0, 64, 0
1, 25844, Note_on_c, 0, 61, 0
1, 25844, Note_on_c, 1, 57, 0
1, 25844, Note_on_c, 1, 55, 0
1, 25872, Note_on_c, 1, 57, 85
1, 25872, Note_on_c, 1, 55, 85
1, 25892, Note_on_c, 1, 57, 0
1, 25892, Note_on_c, 1, 55, 0
1, 25896, Note_on_c, 0, 64, 85
1, 25896, Note_on_c, 0, 61, 85
1, 25906, Note_on_c, 0, 64, 0
1, 25906, Note_on_c, 0, 61, 0
1, 25920, Note_on_c, 0, 64, 85
1, 25920, Note_on_c, 0, 61, 85
1, 25920, Note_on_c, 1, 57, 85
1, 25920, Note_on_c, 1, 55, 85
1, 25965, Note_on_c, 0, 64, 0
1, 25965, Note_on_c, 0, 61, 0
1, 25965, Note_on_c, 1, 57, 0
1, 25965, Note_on_c, 1, 55, 0
1, 26112, Note_on_c, 0, 74, 68
1, 26160, Note_on_c, 1, 69, 60
1, 26160, Note_on_c, 1, 65, 60
1, 26180, Note_on_c, 1, 69, 0
1, 26180, Note_on_c, 1, 65, 0
1, 26208, Note_on_c, 1, 69, 60
1, 26208, Note_on_c, 1, 65, 60
1, 26245, Note_on_c, 0, 74, 0
1, 26256, Note_on_c, 0, 77, 68
1, 26256, Note_on_c, 1, 69, 0
1, 26256, Note_on_c, 1, 65, 0
1, 26256, Note_on_c, 1, 70, 60
1, 26256, Note_on_c, 1, 67, 60
1, 26268, Note_on_c, 0, 77, 0
1, 26268, Note_on_c, 0, 76, 68
1, 26301, Note_on_c, 0, 76, 0
1, 26301, Note_on_c, 1, 70, 0
1, 26301, Note_on_c, 1, 67, 0
1, 26304, Note_on_c, 0, 74, 68
1, 26304, Note_on_c, 1, 69, 60
1, 26304, Note_on_c, 1, 65, 60
1, 26349, Note_on_c, 0, 74, 0
1, 26352, Note_on_c, 0, 81, 68
1, 26397, Note_on_c, 0, 81, 0
1, 26400, Note_on_c, 0, 74, 68
1, 26445, Note_on_c, 0, 74, 0
1, 26448, Note_on_c, 0, 77, 68
1, 26448, Note_on_c, 1, 69, 0
1, 26448, Note_on_c, 1, 65, 0
1, 26448, Note_on_c, 1, 70, 60
1, 26448, Note_on_c, 1, 67, 60
1, 26460, Note_on_c, 0, 77, 0
1, 26460, Note_on_c, 0, 75, 68
1, 26493, Note_on_c, 0, 75, 0
1, 26493, Note_on_c, 1, 70, 0
1, 26493, Note_on_c, 1, 67, 0
1, 26496, Note_on_c, 0, 74, 68
1, 26496, Note_on_c, 1, 69, 60
1, 26496, Note_on_c, 1, 65, 60
1, 26541, Note_on_c, 0, 74, 0
1, 26544, Note_on_c, 0, 81, 68
1, 26589, Note_on_c, 0, 81, 0
1, 26592, Note_on_c, 0, 74, 68
1, 26637, Note_on_c, 0, 74, 0
1, 26640, Note_on_c, 0, 77, 68
1, 26640, Note_on_c, 1, 69, 0
1, 26640, Note_on_c, 1, 65, 0
1, 26640, Note_on_c, 1, 70, 60
1, 26640, Note_on_c, 1, 67, 60
1, 26652, Note_on_c, 0, 77, 0
1, 26652, Note_on_c, 0, 76, 68
1, 26685, Note_on_c, 0, 76, 0
1, 26685, Note_on_c, 1, 70, 0
1, 26685, Note_on_c, 1, 67, 0
1, 26688, Note_on_c, 0, 74, 68
1, 26688, Note_on_c, 1, 69, 60
1, 26688, Note_on_c, 1, 65, 60
1, 26733, Note_on_c, 0, 74, 0
1, 26736, Note_on_c, 0, 77, 69
1, 26736, Note_on_c, 1, 69, 0
1, 26736, Note_on_c, 1, 65, 0
1, 26736, Note_on_c, 1, 70, 62
1, 26736, Note_on_c, 1, 67, 62
1, 26742, Note_on_c, 0, 77, 0
1, 26742, Note_on_c, 0, 75, 69
1, 26781, Note_on_c, 0, 75, 0
1, 26781, Note_on_c, 1, 70, 0
1, 26781, Note_on_c, 1, 67, 0
1, 26784, Note_on_c, 0, 74, 71
1, 26784, Note_on_c, 1, 69, 64
1, 26784, Note_on_c, 1, 65, 64
1, 26829, Note_on_c, 0, 74, 0
1, 26832, Note_on_c, 0, 77, 73
1, 26832, Note_on_c, 1, 69, 0
1, 26832, Note_on_c, 1, 65, 0
1, 26832, Note_on_c, 1, 70, 66
1, 26832, Note_on_c, 1, 67, 66
1, 26844, Note_on_c, 0, 77, 0
1, 26844, Note_on_c, 0, 76, 73
1, 26877, Note_on_c, 0, 76, 0
1, 26877, Note_on_c, 1, 70, 0
1, 26877, Note_on_c, 1, 67, 0
1, 26880, Note_on_c, 0, 74, 75
1, 26880, Note_on_c, 1, 66, 68
1, 26880, Note_on_c, 1, 69, 68
1, 26880, Note_on_c, 1, 72, 68
1, 26925, Note_on_c, 0, 74, 0
1, 26928, Note_on_c, 0, 77, 77
1, 26934, Note_on_c, 0, 77, 0
1, 26934, Note_on_c, 0, 75, 77
1, 26973, Note_on_c, 0, 75, 0
1, 26976, Note_on_c, 0, 74, 77
1, 27021, Note_on_c, 0, 74, 0
1, 27024, Note_on_c, 0, 81, 77
1, 27047, Note_on_c, 0, 81, 0
1, 27048, Note_on_c, 0, 79, 77
1, 27057, Note_on_c, 1, 72, 0
1, 27057, Note_on_c, 1, 69, 0
1, 27057, Note_on_c, 1, 66, 0
1, 27071, Note_on_c, 0, 79, 0
1, 27072, Note_on_c, 0, 78, 77
1, 27095, Note_on_c, 0, 78, 0
1, 27096, Note_on_c, 0, 75, 77
1, 27119, Note_on_c, 0, 75, 0
1, 27120, Note_on_c, 0, 74, 77
1, 27143, Note_on_c, 0, 74, 0
1, 27144, Note_on_c, 0, 75, 77
1, 27167, Note_on_c, 0, 75, 0
1, 27168, Note_on_c, 0, 74, 77
1, 27191, Note_on_c, 0, 74, 0
1, 27192, Note_on_c, 0, 72, 77
1, 27215, Note_on_c, 0, 72, 0
1, 27216, Note_on_c, 0, 70, 77
1, 27239, Note_on_c, 0, 70, 0
1, 27240, Note_on_c, 0, 69, 77
1, 27263, Note_on_c, 0, 69, 0
1, 27264, Note_on_c, 0, 67, 77
1, 27312, Note_on_c, 1, 62, 68
1, 27312, Note_on_c, 1, 58, 68
1, 27332, Note_on_c, 1, 62, 0
1, 27332, Note_on_c, 1, 58, 0
1, 27360, Note_on_c, 1, 62, 68
1, 27360, Note_on_c, 1, 58, 68
1, 27397, Note_on_c, 0, 67, 0
1, 27408, Note_on_c, 0, 70, 77
1, 27408, Note_on_c, 1, 62, 0
1, 27408, Note_on_c, 1, 58, 0
1, 27408, Note_on_c, 1, 63, 68
1, 27408, Note_on_c, 1, 60, 68
1, 27420, Note_on_c, 0, 70, 0
1, 27420, Note_on_c, 0, 69, 77
1, 27453, Note_on_c, 0, 69, 0
1, 27453, Note_on_c, 1, 63, 0
1, 27453, Note_on_c, 1, 60, 0
1, 27456, Note_on_c, 0, 67, 77
1, 27456, Note_on_c, 1, 62, 68
1, 27456, Note_on_c, 1, 58, 68
1, 27501, Note_on_c, 0, 67, 0
1, 27504, Note_on_c, 0, 74, 77
1, 27549, Note_on_c, 0, 74, 0
1, 27552, Note_on_c, 0, 67, 77
1, 27597, Note_on_c, 0, 67, 0
1, 27600, Note_on_c, 0, 70, 77
1, 27600, Note_on_c, 1, 62, 0
1, 27600, Note_on_c, 1, 58, 0
1, 27600, Note_on_c, 1, 63, 68
1, 27600, Note_on_c, 1, 60, 68
1, 27612, Note_on_c, 0, 70, 0
1, 27612, Note_on_c, 0, 68, 77
1, 27645, Note_on_c, 0, 68, 0
1, 27645, Note_on_c, 1, 63, 0
1, 27645, Note_on_c, 1, 60, 0
1, 27648, Note_on_c, 0, 67, 77
1, 27648, Note_on_c, 1, 62, 68
1, 27648, Note_on_c, 1, 58, 68
1, 27693, Note_on_c, 0, 67, 0
1, 27696, Note_on_c, 0, 74, 77
1, 27741, Note_on_c, 0, 74, 0
1, 27744, Note_on_c, 0, 67, 78
1, 27789, Note_on_c, 0, 67, 0
1, 27792, Note_on_c, 0, 70, 79
1, 27792, Note_on_c, 1, 62, 0
1, 27792, Note_on_c, 1, 58, 0
1, 27792, Note_on_c, 1, 63, 68
1, 27792, Note_on_c, 1, 60, 68
1, 27804, Note_on_c, 0, 70, 0
1, 27804, Note_on_c, 0, 69, 79
1, 27837, Note_on_c, 0, 69, 0
1, 27837, Note_on_c, 1, 63, 0
1, 27837, Note_on_c, 1, 60, 0
1, 27840, Note_on_c, 0, 67, 80
1, 27840, Note_on_c, 1, 62, 69
1, 27840, Note_on_c, 1, 58, 69
1, 27885, Note_on_c, 0, 67, 0
1, 27888, Note_on_c, 0, 70, 81
1, 27888, Note_on_c, 1, 62, 0
1, 27888, Note_on_c, 1, 58, 0
1, 27888, Note_on_c, 1, 63, 71
1, 27888, Note_on_c, 1, 60, 71
1, 27900, Note_on_c, 0, 70, 0
1, 27900, Note_on_c, 0, 68, 81
1, 27933, Note_on_c, 0, 68, 0
1, 27933, Note_on_c, 1, 63, 0
1, 27933, Note_on_c, 1, 60, 0
1, 27936, Note_on_c, 0, 67, 82
1, 27936, Note_on_c, 1, 62, 73
1, 27936, Note_on_c, 1, 58, 73
1, 27981, Note_on_c, 0, 67, 0
1, 27984, Note_on_c, 0, 70, 83
1, 27984, Note_on_c, 1, 62, 0
1, 27984, Note_on_c, 1, 58, 0
1, 27984, Note_on_c, 1, 63, 75
1, 27984, Note_on_c, 1, 60, 75
1, 27996, Note_on_c, 0, 70, 0
1, 27996, Note_on_c, 0, 69, 83
1, 28029, Note_on_c, 0, 69, 0
1, 28029, Note_on_c, 1, 63, 0
1, 28029, Note_on_c, 1, 60, 0
1, 28032, Note_on_c, 0, 67, 84
1, 28032, Note_on_c, 1, 65, 77
1, 28032, Note_on_c, 1, 62, 77
1, 28032, Note_on_c, 1, 59, 77
1, 28077, Note_on_c, 0, 67, 0
1, 28080, Note_on_c, 0, 70, 85
1, 28092, Note_on_c, 0, 70, 0
1, 28092, Note_on_c, 0, 68, 85
1, 28125, Note_on_c, 0, 68, 0
1, 28128, Note_on_c, 0, 67, 85
1, 28173, Note_on_c, 0, 67, 0
1, 28176, Note_on_c, 0, 77, 85
1, 28199, Note_on_c, 0, 77, 0
1, 28200, Note_on_c, 0, 75, 84
1, 28209, Note_on_c, 1, 65, 0
1, 28209, Note_on_c, 1, 62, 0
1, 28209, Note_on_c, 1, 59, 0
1, 28223, Note_on_c, 0, 75, 0
1, 28224, Note_on_c, 0, 74, 83
1, 28247, Note_on_c, 0, 74, 0
1, 28248, Note_on_c, 0, 72, 82
1, 28271, Note_on_c, 0, 72, 0
1, 28272, Note_on_c, 0, 71, 81
1, 28295, Note_on_c, 0, 71, 0
1, 28296, Note_on_c, 0, 68, 81
1, 28319, Note_on_c, 0, 68, 0
1, 28320, Note_on_c, 0, 67, 80
1, 28343, Note_on_c, 0, 67, 0
1, 28344, Note_on_c, 0, 65, 79
1, 28367, Note_on_c, 0, 65, 0
1, 28368, Note_on_c, 0, 63, 78
1, 28391, Note_on_c, 0, 63, 0
1, 28392, Note_on_c, 0, 62, 77
1, 28415, Note_on_c, 0, 62, 0
1, 28416, Note_on_c, 1, 63, 77
1, 28416, Note_on_c, 1, 60, 77
1, 28440, Note_on_c, 0, 67, 77
1, 28463, Note_on_c, 0, 67, 0
1, 28464, Note_on_c, 0, 72, 78
1, 28487, Note_on_c, 0, 72, 0
1, 28488, Note_on_c, 0, 75, 79
1, 28511, Note_on_c, 0, 75, 0
1, 28512, Note_on_c, 0, 79, 80
1, 28535, Note_on_c, 0, 79, 0
1, 28536, Note_on_c, 0, 72, 81
1, 28559, Note_on_c, 0, 72, 0
1, 28560, Note_on_c, 0, 75, 82
1, 28583, Note_on_c, 0, 75, 0
1, 28584, Note_on_c, 0, 79, 83
1, 28607, Note_on_c, 0, 79, 0
1, 28608, Note_on_c, 0, 84, 85
1, 28631, Note_on_c, 0, 84, 0
1, 28632, Note_on_c, 0, 79, 84
1, 28655, Note_on_c, 0, 79, 0
1, 28656, Note_on_c, 0, 75, 83
1, 28679, Note_on_c, 0, 75, 0
1, 28680, Note_on_c, 0, 72, 82
1, 28703, Note_on_c, 0, 72, 0
1, 28704, Note_on_c, 0, 79, 81
1, 28727, Note_on_c, 0, 79, 0
1, 28728, Note_on_c, 0, 75, 80
1, 28751, Note_on_c, 0, 75, 0
1, 28752, Note_on_c, 0, 72, 79
1, 28770, Note_on_c, 1, 63, 0
1, 28770, Note_on_c, 1, 60, 0
1, 28775, Note_on_c, 0, 72, 0
1, 28776, Note_on_c, 0, 67, 78
1, 28799, Note_on_c, 0, 67, 0
1, 28800, Note_on_c, 1, 64, 77
1, 28800, Note_on_c, 1, 60, 77
1, 28800, Note_on_c, 1, 58, 77
1, 28824, Note_on_c, 0, 67, 77
1, 28847, Note_on_c, 0, 67, 0
1, 28848, Note_on_c, 0, 72, 78
1, 28871, Note_on_c, 0, 72, 0
1, 28872, Note_on_c, 0, 76, 79
1, 28895, Note_on_c, 0, 76, 0
1, 28896, Note_on_c, 0, 79, 80
1, 28919, Note_on_c, 0, 79, 0
1, 28920, Note_on_c, 0, 72, 81
1, 28943, Note_on_c, 0, 72, 0
1, 28944, Note_on_c, 0, 76, 82
1, 28967, Note_on_c, 0, 76, 0
1, 28968, Note_on_c, 0, 79, 83
1, 28991, Note_on_c, 0, 79, 0
1, 28992, Note_on_c, 0, 84, 85
1, 29015, Note_on_c, 0, 84, 0
1, 29016, Note_on_c, 0, 79, 84
1, 29039, Note_on_c, 0, 79, 0
1, 29040, Note_on_c, 0, 76, 83
1, 29063, Note_on_c, 0, 76, 0
1, 29064, Note_on_c, 0, 72, 82
1, 29087, Note_on_c, 0, 72, 0
1, 29088, Note_on_c, 0, 79, 81
1, 29111, Note_on_c, 0, 79, 0
1, 29112, Note_on_c, 0, 76, 80
1, 29135, Note_on_c, 0, 76, 0
1, 29136, Note_on_c, 0, 72, 79
1, 29154, Note_on_c, 1, 64, 0
1, 29154, Note_on_c, 1, 60, 0
1, 29154, Note_on_c, 1, 58, 0
1, 29159, Note_on_c, 0, 72, 0
1, 29160, Note_on_c, 0, 67, 78
1, 29183, Note_on_c, 0, 67, 0
1, 29184, Note_on_c, 1, 64, 77
1, 29184, Note_on_c, 1, 61, 77
1, 29184, Note_on_c, 1, 57, 77
1, 29208, Note_on_c, 0, 67, 77
1, 29231, Note_on_c, 0, 67, 0
1, 29232, Note_on_c, 0, 73, 78
1, 29255, Note_on_c, 0, 73, 0
1, 29256, Note_on_c, 0, 76, 79
1, 29279, Note_on_c, 0, 76, 0
1, 29280, Note_on_c, 0, 79, 80
1, 29303, Note_on_c, 0, 79, 0
1, 29304, Note_on_c, 0, 76, 81
1, 29327, Note_on_c, 0, 76, 0
1, 29328, Note_on_c, 0, 79, 82
1, 29351, Note_on_c, 0, 79, 0
1, 29352, Note_on_c, 0, 85, 83
1, 29375, Note_on_c, 0, 85, 0
1, 29376, Note_on_c, 0, 88, 85
1, 29399, Note_on_c, 0, 88, 0
1, 29400, Note_on_c, 0, 85, 84
1, 29423, Note_on_c, 0, 85, 0
1, 29424, Note_on_c, 0, 79, 83
1, 29447, Note_on_c, 0, 79, 0
1, 29448, Note_on_c, 0, 76, 82
1, 29471, Note_on_c, 0, 76, 0
1, 29472, Note_on_c, 0, 79, 81
1, 29495, Note_on_c, 0, 79, 0
1, 29496, Note_on_c, 0, 76, 80
1, 29519, Note_on_c, 0, 76, 0
1, 29520, Note_on_c, 0, 73, 79
1, 29538, Note_on_c, 1, 64, 0
1, 29538, Note_on_c, 1, 61, 0
1, 29538, Note_on_c, 1, 57, 0
1, 29543, Note_on_c, 0, 73, 0
1, 29544, Note_on_c, 0, 67, 78
1, 29567, Note_on_c, 0, 67, 0
1, 29568, Note_on_c, 1, 65, 77
1, 29568, Note_on_c, 1, 62, 77
1, 29568, Note_on_c, 1, 57, 77
1, 29592, Note_on_c, 0, 69, 77
1, 29615, Note_on_c, 0, 69, 0
1, 29616, Note_on_c, 0, 74, 78
1, 29639, Note_on_c, 0, 74, 0
1, 29640, Note_on_c, 0, 77, 79
1, 29663, Note_on_c, 0, 77, 0
1, 29664, Note_on_c, 0, 81, 80
1, 29687, Note_on_c, 0, 81, 0
1, 29688, Note_on_c, 0, 74, 81
1, 29711, Note_on_c, 0, 74, 0
1, 29712, Note_on_c, 0, 77, 82
1, 29735, Note_on_c, 0, 77, 0
1, 29736, Note_on_c, 0, 81, 83
1, 29759, Note_on_c, 0, 81, 0
1, 29760, Note_on_c, 0, 86, 85
1, 29783, Note_on_c, 0, 86, 0
1, 29784, Note_on_c, 0, 81, 84
1, 29807, Note_on_c, 0, 81, 0
1, 29808, Note_on_c, 0, 77, 83
1, 29831, Note_on_c, 0, 77, 0
1, 29832, Note_on_c, 0, 74, 82
1, 29855, Note_on_c, 0, 74, 0
1, 29856, Note_on_c, 0, 81, 81
1, 29879, Note_on_c, 0, 81, 0
1, 29880, Note_on_c, 0, 77, 80
1, 29903, Note_on_c, 0, 77, 0
1, 29904, Note_on_c, 0, 74, 79
1, 29922, Note_on_c, 1, 65, 0
1, 29922, Note_on_c, 1, 62, 0
1, 29922, Note_on_c, 1, 57, 0
1, 29927, Note_on_c, 0, 74, 0
1, 29928, Note_on_c, 0, 69, 78
1, 29951, Note_on_c, 0, 69, 0
1, 29952, Note_on_c, 1, 64, 77
1, 29952, Note_on_c, 1, 61, 77
1, 29952, Note_on_c, 1, 57, 77
1, 29976, Note_on_c, 0, 69, 77
1, 29999, Note_on_c, 0, 69, 0
1, 30000, Note_on_c, 0, 73, 78
1, 30023, Note_on_c, 0, 73, 0
1, 30024, Note_on_c, 0, 76, 79
1, 30047, Note_on_c, 0, 76, 0
1, 30048, Note_on_c, 0, 81, 80
1, 30071, Note_on_c, 0, 81, 0
1, 30072, Note_on_c, 0, 76, 81
1, 30095, Note_on_c, 0, 76, 0
1, 30096, Note_on_c, 0, 73, 82
1, 30119, Note_on_c, 0, 73, 0
1, 30120, Note_on_c, 0, 69, 83
1, 30143, Note_on_c, 0, 69, 0
1, 30144, Note_on_c, 0, 76, 85
1, 30167, Note_on_c, 0, 76, 0
1, 30168, Note_on_c, 0, 73, 84
1, 30191, Note_on_c, 0, 73, 0
1, 30192, Note_on_c, 0, 69, 83
1, 30215, Note_on_c, 0, 69, 0
1, 30216, Note_on_c, 0, 64, 82
1, 30239, Note_on_c, 0, 64, 0
1, 30240, Note_on_c, 0, 69, 81
1, 30263, Note_on_c, 0, 69, 0
1, 30264, Note_on_c, 0, 64, 80
1, 30287, Note_on_c, 0, 64, 0
1, 30288, Note_on_c, 0, 61, 79
1, 30306, Note_on_c, 1, 64, 0
1, 30306, Note_on_c, 1, 61, 0
1, 30306, Note_on_c, 1, 57, 0
1, 30311, Note_on_c, 0, 61, 0
1, 30312, Note_on_c, 0, 57, 78
1, 30335, Note_on_c, 0, 57, 0
1, 30336, Note_on_c, 1, 33, 77
1, 30513, Note_on_c, 1, 33, 0
1, 30768, Note_on_c, 0, 62, 85
1, 30780, Note_on_c, 0, 62, 0
1, 30780, Note_on_c, 0, 65, 85
1, 30786, Note_on_c, 0, 65, 0
1, 30786, Note_on_c, 0, 69, 85
1, 30792, Note_on_c, 0, 69, 0
1, 30792, Note_on_c, 0, 74, 85
1, 30798, Note_on_c, 0, 74, 0
1, 30798, Note_on_c, 0, 77, 85
1, 30804, Note_on_c, 0, 77, 0
1, 30804, Note_on_c, 0, 81, 85
1, 30810, Note_on_c, 0, 81, 0
1, 30810, Note_on_c, 0, 85, 85
1, 30816, Note_on_c, 0, 85, 0
1, 30816, Note_on_c, 0, 86, 101
1, 30832, Note_on_c, 0, 86, 0
1, 30832, Note_on_c, 0, 81, 85
1, 30847, Note_on_c, 0, 81, 0
1, 30848, Note_on_c, 0, 77, 85
1, 30863, Note_on_c, 0, 77, 0
1, 30864, Note_on_c, 0, 82, 85
1, 30864, Note_on_c, 0, 67, 85
1, 30879, Note_on_c, 0, 82, 0
1, 30880, Note_on_c, 0, 79, 85
1, 30895, Note_on_c, 0, 79, 0
1, 30896, Note_on_c, 0, 74, 85
1, 30911, Note_on_c, 0, 74, 0
1, 30912, Note_on_c, 0, 81, 85
1, 30912, Note_on_c, 0, 67, 0
1, 30912, Note_on_c, 0, 65, 85
1, 30932, Note_on_c, 0, 81, 0
1, 30932, Note_on_c, 0, 65, 0
1, 30960, Note_on_c, 0, 62, 85
1, 30972, Note_on_c, 0, 62, 0
1, 30972, Note_on_c, 0, 65, 85
1, 30978, Note_on_c, 0, 65, 0
1, 30978, Note_on_c, 0, 69, 85
1, 30984, Note_on_c, 0, 69, 0
1, 30984, Note_on_c, 0, 74, 85
1, 30990, Note_on_c, 0, 74, 0
1, 30990, Note_on_c, 0, 77, 85
1, 30996, Note_on_c, 0, 77, 0
1, 30996, Note_on_c, 0, 81, 85
1, 31002, Note_on_c, 0, 81, 0
1, 31002, Note_on_c, 0, 85, 85
1, 31008, Note_on_c, 0, 85, 0
1, 31008, Note_on_c, 0, 86, 101
1, 31024, Note_on_c, 0, 86, 0
1, 31024, Note_on_c, 0, 81, 85
1, 31039, Note_on_c, 0, 81, 0
1, 31040, Note_on_c, 0, 77, 85
1, 31055, Note_on_c, 0, 77, 0
1, 31056, Note_on_c, 0, 82, 85
1, 31056, Note_on_c, 0, 67, 85
1, 31071, Note_on_c, 0, 82, 0
1, 31072, Note_on_c, 0, 79, 85
1, 31087, Note_on_c, 0, 79, 0
1, 31088, Note_on_c, 0, 74, 85
1, 31103, Note_on_c, 0, 74, 0
1, 31104, Note_on_c, 0, 81, 85
1, 31104, Note_on_c, 0, 67, 0
1, 31104, Note_on_c, 0, 65, 85
1, 31124, Note_on_c, 0, 81, 0
1, 31124, Note_on_c, 0, 65, 0
1, 31152, Note_on_c, 0, 62, 85
1, 31164, Note_on_c, 0, 62, 0
1, 31164, Note_on_c, 0, 65, 85
1, 31170, Note_on_c, 0, 65, 0
1, 31170, Note_on_c, 0, 69, 85
1, 31176, Note_on_c, 0, 69, 0
1, 31176, Note_on_c, 0, 74, 85
1, 31182, Note_on_c, 0, 74, 0
1, 31182, Note_on_c, 0, 77, 85
1, 31188, Note_on_c, 0, 77, 0
1, 31188, Note_on_c, 0, 81, 85
1, 31194, Note_on_c, 0, 81, 0
1, 31194, Note_on_c, 0, 85, 85
1, 31200, Note_on_c, 0, 85, 0
1, 31200, Note_on_c, 0, 86, 101
1, 31216, Note_on_c, 0, 86, 0
1, 31216, Note_on_c, 0, 81, 85
1, 31231, Note_on_c, 0, 81, 0
1, 31232, Note_on_c, 0, 77, 85
1, 31247, Note_on_c, 0, 77, 0
1, 31248, Note_on_c, 0, 84, 85
1, 31248, Note_on_c, 0, 66, 85
1, 31263, Note_on_c, 0, 84, 0
1, 31264, Note_on_c, 0, 81, 85
1, 31279, Note_on_c, 0, 81, 0
1, 31280, Note_on_c, 0, 74, 85
1, 31295, Note_on_c, 0, 74, 0
1, 31296, Note_on_c, 0, 82, 85
1, 31296, Note_on_c, 0, 66, 0
1, 31296, Note_on_c, 0, 67, 85
1, 31316, Note_on_c, 0, 82, 0
1, 31316, Note_on_c, 0, 67, 0
1, 31488, Note_on_c, 1, 55, 77
1, 31511, Note_on_c, 1, 55, 0
1, 31512, Note_on_c, 1, 58, 77
1, 31535, Note_on_c, 1, 58, 0
1, 31536, Note_on_c, 1, 63, 77
1, 31559, Note_on_c, 1, 63, 0
1, 31560, Note_on_c, 1, 67, 77
1, 31583, Note_on_c, 1, 67, 0
1, 31584, Note_on_c, 0, 70, 85
1, 31607, Note_on_c, 0, 70, 0
1, 31608, Note_on_c, 0, 74, 85
1, 31631, Note_on_c, 0, 74, 0
1, 31632, Note_on_c, 0, 75, 85
1, 31655, Note_on_c, 0, 75, 0
1, 31656, Note_on_c, 0, 79, 85
1, 31679, Note_on_c, 0, 79, 0
1, 31680, Note_on_c, 0, 82, 85
1, 31703, Note_on_c, 0, 82, 0
1, 31704, Note_on_c, 0, 81, 85
1, 31727, Note_on_c, 0, 81, 0
1, 31728, Note_on_c, 0, 79, 85
1, 31751, Note_on_c, 0, 79, 0
1, 31752, Note_on_c, 0, 77, 85
1, 31775, Note_on_c, 0, 77, 0
1, 31776, Note_on_c, 0, 75, 85
1, 31799, Note_on_c, 0, 75, 0
1, 31800, Note_on_c, 0, 82, 85
1, 31823, Note_on_c, 0, 82, 0
1, 31824, Note_on_c, 0, 75, 85
1, 31824, Note_on_c, 1, 67, 77
1, 31847, Note_on_c, 0, 75, 0
1, 31848, Note_on_c, 0, 82, 85
1, 31869, Note_on_c, 1, 67, 0
1, 31871, Note_on_c, 0, 82, 0
1, 31872, Note_on_c, 0, 75, 85
1, 31872, Note_on_c, 1, 67, 77
1, 31895, Note_on_c, 0, 75, 0
1, 31896, Note_on_c, 0, 82, 85
1, 31917, Note_on_c, 1, 67, 0
1, 31919, Note_on_c, 0, 82, 0
1, 31920, Note_on_c, 0, 74, 85
1, 31920, Note_on_c, 1, 67, 77
1, 31943, Note_on_c, 0, 74, 0
1, 31944, Note_on_c, 0, 82, 85
1, 31965, Note_on_c, 1, 67, 0
1, 31967, Note_on_c, 0, 82, 0
1, 31968, Note_on_c, 0, 75, 85
1, 31968, Note_on_c, 1, 67, 77
1, 31991, Note_on_c, 0, 75, 0
1, 31992, Note_on_c, 0, 82, 85
1, 32013, Note_on_c, 1, 67, 0
1, 32015, Note_on_c, 0, 82, 0
1, 32016, Note_on_c, 0, 74, 85
1, 32016, Note_on_c, 1, 67, 77
1, 32039, Note_on_c, 0, 74, 0
1, 32040, Note_on_c, 0, 82, 85
1, 32061, Note_on_c, 1, 67, 0
1, 32063, Note_on_c, 0, 82, 0
1, 32064, Tempo, 1333333
1, 32064, Note_on_c, 0, 73, 85
1, 32064, Note_on_c, 1, 67, 77
1, 32084, Note_on_c, 0, 73, 0
1, 32112, Note_on_c, 0, 82, 85
1, 32132, Note_on_c, 0, 82, 0
1, 32153, Note_on_c, 1, 67, 0
1, 32256, Tempo, 666666
1, 32256, Note_on_c, 1, 41, 77
1, 32304, Note_on_c, 0, 86, 85
1, 32324, Note_on_c, 0, 86, 0
1, 32345, Note_on_c, 1, 41, 0
1, 32352, Note_on_c, 0, 89, 85
1, 32372, Note_on_c, 0, 89, 0
1, 32400, Note_on_c, 1, 41, 77
1, 32420, Note_on_c, 1, 41, 0
1, 32448, Note_on_c, 1, 43, 77
1, 32468, Note_on_c, 1, 43, 0
1, 32496, Note_on_c, 0, 70, 85
1, 32516, Note_on_c, 0, 70, 0
1, 32544, Note_on_c, 1, 45, 77
1, 32564, Note_on_c, 1, 45, 0
1, 32592, Note_on_c, 0, 61, 85
1, 32612, Note_on_c, 0, 61, 0
1, 32640, Note_on_c, 1, 46, 77
1, 32688, Note_on_c, 0, 86, 85
1, 32708, Note_on_c, 0, 86, 0
1, 32729, Note_on_c, 1, 46, 0
1, 32736, Note_on_c, 0, 89, 85
1, 32756, Note_on_c, 0, 89, 0
1, 32784, Note_on_c, 1, 41, 77
1, 32804, Note_on_c, 1, 41, 0
1, 32832, Note_on_c, 1, 43, 77
1, 32852, Note_on_c, 1, 43, 0
1, 32880, Note_on_c, 0, 70, 85
1, 32900, Note_on_c, 0, 70, 0
1, 32928, Note_on_c, 1, 45, 77
1, 32948, Note_on_c, 1, 45, 0
1, 32976, Note_on_c, 0, 61, 85
1, 32996, Note_on_c, 0, 61, 0
1, 33024, Note_on_c, 1, 38, 77
1, 33072, Note_on_c, 0, 62, 51
1, 33092, Note_on_c, 0, 62, 0
1, 33113, Note_on_c, 1, 38, 0
1, 33120, Note_on_c, 0, 62, 51
1, 33140, Note_on_c, 0, 62, 0
1, 33168, Note_on_c, 0, 62, 52
1, 33188, Note_on_c, 0, 62, 0
1, 33216, Note_on_c, 0, 62, 52
1, 33236, Note_on_c, 0, 62, 0
1, 33264, Note_on_c, 0, 62, 53
1, 33284, Note_on_c, 0, 62, 0
1, 33312, Note_on_c, 0, 62, 53
1, 33332, Note_on_c, 0, 62, 0
1, 33360, Note_on_c, 0, 62, 54
1, 33380, Note_on_c, 0, 62, 0
1, 33408, Note_on_c, 1, 63, 57
1, 33408, Note_on_c, 1, 60, 57
1, 33428, Note_on_c, 1, 63, 0
1, 33428, Note_on_c, 1, 60, 0
1, 33456, Note_on_c, 0, 62, 55
1, 33476, Note_on_c, 0, 62, 0
1, 33504, Note_on_c, 1, 63, 60
1, 33504, Note_on_c, 1, 60, 60
1, 33524, Note_on_c, 1, 63, 0
1, 33524, Note_on_c, 1, 60, 0
1, 33552, Note_on_c, 0, 62, 56
1, 33572, Note_on_c, 0, 62, 0
1, 33600, Note_on_c, 1, 63, 62
1, 33600, Note_on_c, 1, 60, 62
1, 33620, Note_on_c, 1, 63, 0
1, 33620, Note_on_c, 1, 60, 0
1, 33648, Note_on_c, 0, 62, 57
1, 33668, Note_on_c, 0, 62, 0
1, 33696, Note_on_c, 1, 63, 64
1, 33696, Note_on_c, 1, 60, 64
1, 33716, Note_on_c, 1, 63, 0
1, 33716, Note_on_c, 1, 60, 0
1, 33744, Note_on_c, 0, 62, 58
1, 33764, Note_on_c, 0, 62, 0
1, 33792, Note_on_c, 1, 63, 66
1, 33792, Note_on_c, 1, 60, 66
1, 33802, Note_on_c, 1, 63, 0
1, 33802, Note_on_c, 1, 60, 0
1, 33816, Note_on_c, 0, 62, 59
1, 33826, Note_on_c, 0, 62, 0
1, 33840, Note_on_c, 1, 63, 68
1, 33840, Note_on_c, 1, 60, 68
1, 33850, Note_on_c, 1, 63, 0
1, 33850, Note_on_c, 1, 60, 0
1, 33864, Note_on_c, 0, 62, 60
1, 33874, Note_on_c, 0, 62, 0
1, 33888, Note_on_c, 1, 63, 69
1, 33888, Note_on_c, 1, 60, 69
1, 33898, Note_on_c, 1, 63, 0
1, 33898, Note_on_c, 1, 60, 0
1, 33912, Note_on_c, 0, 62, 60
1, 33922, Note_on_c, 0, 62, 0
1, 33936, Note_on_c, 1, 63, 70
1, 33936, Note_on_c, 1, 60, 70
1, 33946, Note_on_c, 1, 63, 0
1, 33946, Note_on_c, 1, 60, 0
1, 33960, Note_on_c, 0, 62, 61
1, 33970, Note_on_c, 0, 62, 0
1, 33984, Note_on_c, 1, 66, 71
1, 33984, Note_on_c, 1, 57, 71
1, 33994, Note_on_c, 1, 66, 0
1, 33994, Note_on_c, 1, 57, 0
1, 34008, Note_on_c, 0, 62, 61
1, 34018, Note_on_c, 0, 62, 0
1, 34032, Note_on_c, 1, 66, 72
1, 34032, Note_on_c, 1, 57, 72
1, 34042, Note_on_c, 1, 66, 0
1, 34042, Note_on_c, 1, 57, 0
1, 34056, Note_on_c, 0, 62, 62
1, 34066, Note_on_c, 0, 62, 0
1, 34080, Note_on_c, 1, 66, 73
1, 34080, Note_on_c, 1, 57, 73
1, 34090, Note_on_c, 1, 66, 0
1, 34090, Note_on_c, 1, 57, 0
1, 34104, Note_on_c, 0, 62, 62
1, 34114, Note_on_c, 0, 62, 0
1, 34128, Note_on_c, 1, 66, 74
1, 34128, Note_on_c, 1, 57, 74
1, 34138, Note_on_c, 1, 66, 0
1, 34138, Note_on_c, 1, 57, 0
1, 34152, Note_on_c, 0, 62, 63
1, 34162, Note_on_c, 0, 62, 0
1, 34176, Note_on_c, 1, 67, 75
1, 34176, Note_on_c, 1, 58, 75
1, 34186, Note_on_c, 1, 67, 0
1, 34186, Note_on_c, 1, 58, 0
1, 34200, Note_on_c, 0, 62, 63
1, 34210, Note_on_c, 0, 62, 0
1, 34224, Note_on_c, 1, 67, 77
1, 34224, Note_on_c, 1, 58, 77
1, 34234, Note_on_c, 1, 67, 0
1, 34234, Note_on_c, 1, 58, 0
1, 34248, Note_on_c, 0, 62, 64
1, 34258, Note_on_c, 0, 62, 0
1, 34272, Note_on_c, 1, 67, 78
1, 34272, Note_on_c, 1, 58, 78
1, 34282, Note_on_c, 1, 67, 0
1, 34282, Note_on_c, 1, 58, 0
1, 34296, Note_on_c, 0, 62, 64
1, 34306, Note_on_c, 0, 62, 0
1, 34320, Note_on_c, 1, 67, 79
1, 34320, Note_on_c, 1, 58, 79
1, 34330, Note_on_c, 1, 67, 0
1, 34330, Note_on_c, 1, 58, 0
1, 34344, Note_on_c, 0, 62, 65
1, 34354, Note_on_c, 0, 62, 0
1, 34368, Note_on_c, 1, 64, 80
1, 34368, Note_on_c, 1, 58, 80
1, 34378, Note_on_c, 1, 64, 0
1, 34378, Note_on_c, 1, 58, 0
1, 34392, Note_on_c, 0, 60, 66
1, 34402, Note_on_c, 0, 60, 0
1, 34416, Note_on_c, 1, 64, 81
1, 34416, Note_on_c, 1, 58, 81
1, 34426, Note_on_c, 1, 64, 0
1, 34426, Note_on_c, 1, 58, 0
1, 34440, Note_on_c, 0, 60, 66
1, 34450, Note_on_c, 0, 60, 0
1, 34464, Note_on_c, 1, 64, 82
1, 34464, Note_on_c, 1, 58, 82
1, 34474, Note_on_c, 1, 64, 0
1, 34474, Note_on_c, 1, 58, 0
1, 34488, Note_on_c, 0, 60, 67
1, 34498, Note_on_c, 0, 60, 0
1, 34512, Note_on_c, 1, 64, 83
1, 34512, Note_on_c, 1, 58, 83
1, 34522, Note_on_c, 1, 64, 0
1, 34522, Note_on_c, 1, 58, 0
1, 34536, Note_on_c, 0, 60, 67
1, 34546, Note_on_c, 0, 60, 0
1, 34560, Note_on_c, 0, 57, 85
1, 34560, Note_on_c, 1, 41, 85
1, 34566, Note_on_c, 1, 45, 85
1, 34568, Note_on_c, 0, 60, 85
1, 34572, Note_on_c, 1, 48, 85
1, 34576, Note_on_c, 0, 65, 85
1, 34578, Note_on_c, 1, 53, 85
1, 34605, Note_on_c, 0, 65, 0
1, 34605, Note_on_c, 0, 60, 0
1, 34605, Note_on_c, 0, 57, 0
1, 34605, Note_on_c, 1, 53, 0
1, 34605, Note_on_c, 1, 48, 0
1, 34605, Note_on_c, 1, 45, 0
1, 34605, Note_on_c, 1, 41, 0
1, 34608, Note_on_c, 1, 53, 85
1, 34628, Note_on_c, 1, 53, 0
1, 34656, Note_on_c, 0, 60, 85
1, 34656, Note_on_c, 0, 57, 85
1, 34656, Note_on_c, 1, 53, 85
1, 34676, Note_on_c, 0, 60, 0
1, 34676, Note_on_c, 0, 57, 0
1, 34676, Note_on_c, 1, 53, 0
1, 34704, Note_on_c, 1, 53, 85
1, 34724, Note_on_c, 1, 53, 0
1, 34728, Note_on_c, 0, 60, 85
1, 34728, Note_on_c, 0, 57, 85
1, 34738, Note_on_c, 0, 60, 0
1, 34738, Note_on_c, 0, 57, 0
1, 34752, Note_on_c, 0, 60, 85
1, 34752, Note_on_c, 0, 57, 85
1, 34752, Note_on_c, 1, 53, 85
1, 34772, Note_on_c, 1, 53, 0
1, 34797, Note_on_c, 0, 60, 0
1, 34797, Note_on_c, 0, 57, 0
1, 34800, Note_on_c, 1, 53, 83
1, 34820, Note_on_c, 1, 53, 0
1, 34848, Note_on_c, 1, 53, 81
1, 34868, Note_on_c, 1, 53, 0
1, 34896, Note_on_c, 1, 53, 79
1, 34916, Note_on_c, 1, 53, 0
1, 34944, Note_on_c, 0, 72, 77
1, 34944, Note_on_c, 0, 69, 85
1, 34944, Note_on_c, 1, 53, 77
1, 34964, Note_on_c, 1, 53, 0
1, 34992, Note_on_c, 1, 53, 77
1, 35012, Note_on_c, 1, 53, 0
1, 35040, Note_on_c, 1, 53, 77
1, 35060, Note_on_c, 1, 53, 0
1, 35085, Note_on_c, 0, 72, 0
1, 35088, Note_on_c, 0, 76, 77
1, 35088, Note_on_c, 0, 69, 0
1, 35088, Note_on_c, 0, 70, 85
1, 35088, Note_on_c, 1, 53, 77
1, 35100, Note_on_c, 0, 76, 0
1, 35100, Note_on_c, 0, 74, 77
1, 35108, Note_on_c, 1, 53, 0
1, 35133, Note_on_c, 0, 74, 0
1, 35133, Note_on_c, 0, 70, 0
1, 35136, Note_on_c, 0, 72, 77
1, 35136, Note_on_c, 0, 69, 85
1, 35136, Note_on_c, 1, 53, 77
1, 35156, Note_on_c, 1, 53, 0
1, 35184, Note_on_c, 0, 72, 0
1, 35184, Note_on_c, 0, 77, 77
1, 35184, Note_on_c, 1, 53, 77
1, 35204, Note_on_c, 0, 77, 0
1, 35204, Note_on_c, 1, 53, 0
1, 35225, Note_on_c, 0, 69, 0
1, 35232, Note_on_c, 0, 69, 77
1, 35232, Note_on_c, 0, 65, 85
1, 35232, Note_on_c, 1, 53, 77
1, 35252, Note_on_c, 1, 53, 0
1, 35277, Note_on_c, 0, 69, 0
1, 35280, Note_on_c, 0, 72, 77
1, 35280, Note_on_c, 0, 65, 0
1, 35280, Note_on_c, 0, 67, 85
1, 35280, Note_on_c, 1, 53, 77
1, 35292, Note_on_c, 0, 72, 0
1, 35292, Note_on_c, 0, 70, 77
1, 35300, Note_on_c, 1, 53, 0
1, 35325, Note_on_c, 0, 70, 0
1, 35325, Note_on_c, 0, 67, 0
1, 35328, Note_on_c, 0, 69, 77
1, 35328, Note_on_c, 0, 65, 85
1, 35328, Note_on_c, 1, 53, 77
1, 35373, Note_on_c, 1, 53, 0
1, 35376, Note_on_c, 0, 69, 0
1, 35376, Note_on_c, 0, 72, 77
1, 35376, Note_on_c, 0, 65, 0
1, 35376, Note_on_c, 0, 69, 85
1, 35396, Note_on_c, 0, 72, 0
1, 35396, Note_on_c, 0, 69, 0
1, 35424, Note_on_c, 0, 65, 77
1, 35424, Note_on_c, 1, 60, 77
1, 35424, Note_on_c, 1, 57, 77
1, 35444, Note_on_c, 0, 65, 0
1, 35444, Note_on_c, 1, 60, 0
1, 35444, Note_on_c, 1, 57, 0
1, 35472, Note_on_c, 0, 65, 77
1, 35472, Note_on_c, 1, 60, 77
1, 35472, Note_on_c, 1, 57, 77
1, 35492, Note_on_c, 0, 65, 0
1, 35492, Note_on_c, 1, 60, 0
1, 35492, Note_on_c, 1, 57, 0
1, 35520, Note_on_c, 0, 65, 77
1, 35520, Note_on_c, 1, 60, 77
1, 35520, Note_on_c, 1, 57, 77
1, 35660, Note_on_c, 0, 65, 0
1, 35660, Note_on_c, 1, 60, 0
1, 35660, Note_on_c, 1, 57, 0
1, 35664, Note_on_c, 0, 69, 77
1, 35664, Note_on_c, 1, 58, 77
1, 35664, Note_on_c, 1, 48, 77
1, 35676, Note_on_c, 0, 69, 0
1, 35676, Note_on_c, 0, 67, 77
1, 35709, Note_on_c, 0, 67, 0
1, 35709, Note_on_c, 1, 58, 0
1, 35709, Note_on_c, 1, 48, 0
1, 35712, Note_on_c, 0, 65, 77
1, 35712, Note_on_c, 1, 57, 77
1, 35712, Note_on_c, 1, 53, 77
1, 35732, Note_on_c, 0, 65, 0
1, 35757, Note_on_c, 1, 57, 0
1, 35757, Note_on_c, 1, 53, 0
1, 35808, Note_on_c, 1, 45, 77
1, 35808, Note_on_c, 1, 41, 77
1, 35828, Note_on_c, 1, 45, 0
1, 35828, Note_on_c, 1, 41, 0
1, 35880, Note_on_c, 1, 45, 77
1, 35880, Note_on_c, 1, 41, 77
1, 35890, Note_on_c, 1, 45, 0
1, 35890, Note_on_c, 1, 41, 0
1, 35904, Note_on_c, 1, 45, 77
1, 35904, Note_on_c, 1, 41, 77
1, 35949, Note_on_c, 1, 45, 0
1, 35949, Note_on_c, 1, 41, 0
1, 36000, Note_on_c, 0, 72, 68
1, 36000, Note_on_c, 0, 69, 68
1, 36045, Note_on_c, 0, 72, 0
1, 36045, Note_on_c, 0, 69, 0
1, 36048, Note_on_c, 0, 76, 68
1, 36060, Note_on_c, 0, 76, 0
1, 36060, Note_on_c, 0, 74, 68
1, 36060, Note_on_c, 0, 70, 68
1, 36093, Note_on_c, 0, 74, 0
1, 36093, Note_on_c, 0, 70, 0
1, 36096, Note_on_c, 0, 72, 68
1, 36096, Note_on_c, 0, 69, 68
1, 36141, Note_on_c, 0, 72, 0
1, 36144, Note_on_c, 0, 77, 68
1, 36164, Note_on_c, 0, 77, 0
1, 36185, Note_on_c, 0, 69, 0
1, 36192, Note_on_c, 0, 72, 68
1, 36192, Note_on_c, 0, 69, 68
1, 36192, Note_on_c, 1, 65, 68
1, 36237, Note_on_c, 0, 72, 0
1, 36237, Note_on_c, 0, 69, 0
1, 36237, Note_on_c, 1, 65, 0
1, 36240, Note_on_c, 0, 77, 70
1, 36240, Note_on_c, 0, 72, 71
1, 36240, Note_on_c, 1, 66, 70
1, 36252, Note_on_c, 0, 77, 0
1, 36252, Note_on_c, 0, 75, 70
1, 36285, Note_on_c, 0, 75, 0
1, 36285, Note_on_c, 1, 66, 0
1, 36288, Note_on_c, 0, 74, 72
1, 36288, Note_on_c, 1, 67, 72
1, 36333, Note_on_c, 0, 72, 0
1, 36333, Note_on_c, 1, 67, 0
1, 36336, Note_on_c, 0, 71, 77
1, 36336, Note_on_c, 1, 55, 74
1, 36377, Note_on_c, 0, 74, 0
1, 36381, Note_on_c, 0, 71, 0
1, 36381, Note_on_c, 1, 55, 0
1, 36384, Note_on_c, 0, 74, 77
1, 36384, Note_on_c, 0, 71, 77
1, 36429, Note_on_c, 0, 74, 0
1, 36429, Note_on_c, 0, 71, 0
1, 36432, Note_on_c, 0, 77, 77
1, 36432, Note_on_c, 0, 72, 77
1, 36444, Note_on_c, 0, 77, 0
1, 36444, Note_on_c, 0, 76, 77
1, 36477, Note_on_c, 0, 76, 0
1, 36477, Note_on_c, 0, 72, 0
1, 36480, Note_on_c, 0, 74, 77
1, 36480, Note_on_c, 0, 71, 77
1, 36525, Note_on_c, 0, 74, 0
1, 36528, Note_on_c, 0, 79, 77
1, 36548, Note_on_c, 0, 79, 0
1, 36569, Note_on_c, 0, 71, 0
1, 36576, Note_on_c, 0, 74, 77
1, 36576, Note_on_c, 0, 71, 77
1, 36576, Note_on_c, 1, 67, 77
1, 36621, Note_on_c, 0, 74, 0
1, 36621, Note_on_c, 0, 71, 0
1, 36621, Note_on_c, 1, 67, 0
1, 36624, Note_on_c, 0, 79, 79
1, 36624, Note_on_c, 0, 74, 79
1, 36624, Note_on_c, 1, 68, 79
1, 36636, Note_on_c, 0, 79, 0
1, 36636, Note_on_c, 0, 77, 79
1, 36669, Note_on_c, 0, 77, 0
1, 36669, Note_on_c, 1, 68, 0
1, 36672, Note_on_c, 0, 76, 81
1, 36672, Note_on_c, 1, 69, 81
1, 36717, Note_on_c, 1, 69, 0
1, 36720, Note_on_c, 0, 74, 0
1, 36720, Note_on_c, 0, 73, 85
1, 36720, Note_on_c, 1, 57, 83
1, 36761, Note_on_c, 0, 76, 0
1, 36765, Note_on_c, 0, 73, 0
1, 36765, Note_on_c, 1, 57, 0
1, 36768, Note_on_c, 0, 81, 85
1, 36768, Note_on_c, 0, 73, 85
1, 36768, Note_on_c, 1, 57, 85
1, 36813, Note_on_c, 0, 73, 0
1, 36813, Note_on_c, 1, 57, 0
1, 36816, Note_on_c, 0, 81, 0
1, 36816, Note_on_c, 0, 80, 85
1, 36816, Note_on_c, 0, 74, 85
1, 36816, Note_on_c, 1, 60, 85
1, 36828, Note_on_c, 1, 60, 0
1, 36828, Note_on_c, 1, 58, 85
1, 36861, Note_on_c, 0, 80, 0
1, 36861, Note_on_c, 0, 74, 0
1, 36861, Note_on_c, 1, 58, 0
1, 36864, Note_on_c, 0, 81, 85
1, 36864, Note_on_c, 0, 73, 85
1, 36864, Note_on_c, 1, 57, 85
1, 36909, Note_on_c, 1, 57, 0
1, 36912, Note_on_c, 1, 69, 85
1, 36953, Note_on_c, 0, 73, 0
1, 36957, Note_on_c, 1, 69, 0
1, 36960, Note_on_c, 1, 74, 77
1, 36960, Note_on_c, 1, 70, 77
1, 36997, Note_on_c, 0, 81, 0
1, 37008, Note_on_c, 0, 79, 77
1, 37049, Note_on_c, 1, 74, 0
1, 37049, Note_on_c, 1, 70, 0
1, 37056, Note_on_c, 1, 74, 77
1, 37056, Note_on_c, 1, 69, 77
1, 37097, Note_on_c, 0, 79, 0
1, 37104, Note_on_c, 0, 78, 77
1, 37145, Note_on_c, 1, 69, 0
1, 37149, Note_on_c, 0, 78, 0
1, 37152, Note_on_c, 0, 84, 77
1, 37152, Note_on_c, 1, 66, 77
1, 37189, Note_on_c, 1, 74, 0
1, 37200, Note_on_c, 1, 75, 77
1, 37241, Note_on_c, 1, 66, 0
1, 37248, Note_on_c, 1, 67, 77
1, 37293, Note_on_c, 0, 84, 0
1, 37293, Note_on_c, 1, 75, 0
1, 37296, Note_on_c, 0, 82, 77
1, 37296, Note_on_c, 1, 74, 77
1, 37337, Note_on_c, 1, 67, 0
1, 37341, Note_on_c, 1, 74, 0
1, 37344, Note_on_c, 1, 75, 77
1, 37344, Note_on_c, 1, 72, 77
1, 37385, Note_on_c, 0, 82, 0
1, 37392, Note_on_c, 0, 81, 77
1, 37433, Note_on_c, 1, 75, 0
1, 37433, Note_on_c, 1, 72, 0
1, 37440, Note_on_c, 1, 74, 77
1, 37440, Note_on_c, 1, 70, 77
1, 37481, Note_on_c, 0, 81, 0
1, 37488, Note_on_c, 0, 79, 77
1, 37529, Note_on_c, 1, 74, 0
1, 37529, Note_on_c, 1, 70, 0
1, 37533, Note_on_c, 0, 79, 0
1, 37536, Note_on_c, 0, 82, 77
1, 37536, Note_on_c, 1, 64, 77
1, 37584, Note_on_c, 1, 73, 77
1, 37625, Note_on_c, 1, 64, 0
1, 37632, Note_on_c, 1, 65, 77
1, 37677, Note_on_c, 0, 82, 0
1, 37677, Note_on_c, 1, 73, 0
1, 37680, Note_on_c, 0, 81, 77
1, 37680, Note_on_c, 1, 72, 77
1, 37721, Note_on_c, 1, 65, 0
1, 37725, Note_on_c, 1, 72, 0
1, 37728, Note_on_c, 1, 73, 77
1, 37728, Note_on_c, 1, 70, 77
1, 37769, Note_on_c, 0, 81, 0
1, 37776, Note_on_c, 0, 79, 77
1, 37817, Note_on_c, 1, 73, 0
1, 37817, Note_on_c, 1, 70, 0
1, 37824, Note_on_c, 1, 72, 77
1, 37824, Note_on_c, 1, 69, 77
1, 37865, Note_on_c, 0, 79, 0
1, 37872, Note_on_c, 0, 77, 77
1, 37913, Note_on_c, 1, 72, 0
1, 37913, Note_on_c, 1, 69, 0
1, 37917, Note_on_c, 0, 77, 0
1, 37920, Note_on_c, 0, 84, 77
1, 37943, Note_on_c, 0, 84, 0
1, 37944, Note_on_c, 0, 81, 77
1, 37967, Note_on_c, 0, 81, 0
1, 37968, Note_on_c, 0, 79, 77
1, 37968, Note_on_c, 1, 72, 68
1, 37968, Note_on_c, 1, 69, 68
1, 37991, Note_on_c, 0, 79, 0
1, 37992, Note_on_c, 0, 77, 77
1, 38013, Note_on_c, 1, 72, 0
1, 38013, Note_on_c, 1, 69, 0
1, 38015, Note_on_c, 0, 77, 0
1, 38016, Note_on_c, 0, 81, 77
1, 38016, Note_on_c, 1, 74, 68
1, 38016, Note_on_c, 1, 70, 68
1, 38028, Note_on_c, 0, 81, 0
1, 38028, Note_on_c, 0, 79, 77
1, 38064, Note_on_c, 0, 79, 0
1, 38064, Note_on_c, 0, 77, 77
1, 38064, Note_on_c, 1, 74, 0
1, 38064, Note_on_c, 1, 72, 68
1, 38064, Note_on_c, 1, 70, 0
1, 38064, Note_on_c, 1, 69, 68
1, 38109, Note_on_c, 0, 77, 0
1, 38109, Note_on_c, 1, 72, 0
1, 38109, Note_on_c, 1, 69, 0
1, 38112, Note_on_c, 0, 84, 77
1, 38135, Note_on_c, 0, 84, 0
1, 38136, Note_on_c, 0, 81, 77
1, 38159, Note_on_c, 0, 81, 0
1, 38160, Note_on_c, 0, 79, 77
1, 38160, Note_on_c, 1, 72, 68
1, 38160, Note_on_c, 1, 69, 68
1, 38183, Note_on_c, 0, 79, 0
1, 38184, Note_on_c, 0, 77, 77
1, 38205, Note_on_c, 1, 72, 0
1, 38205, Note_on_c, 1, 69, 0
1, 38207, Note_on_c, 0, 77, 0
1, 38208, Note_on_c, 0, 81, 77
1, 38208, Note_on_c, 1, 74, 68
1, 38208, Note_on_c, 1, 70, 68
1, 38220, Note_on_c, 0, 81, 0
1, 38220, Note_on_c, 0, 79, 77
1, 38256, Note_on_c, 0, 79, 0
1, 38256, Note_on_c, 0, 77, 77
1, 38256, Note_on_c, 1, 74, 0
1, 38256, Note_on_c, 1, 72, 68
1, 38256, Note_on_c, 1, 70, 0
1, 38256, Note_on_c, 1, 69, 68
1, 38301, Note_on_c, 0, 77, 0
1, 38301, Note_on_c, 1, 72, 0
1, 38301, Note_on_c, 1, 69, 0
1, 38304, Note_on_c, 0, 84, 77
1, 38352, Note_on_c, 1, 56, 77
1, 38400, Note_on_c, 0, 84, 0
1, 38400, Note_on_c, 0, 83, 77
1, 38400, Note_on_c, 1, 56, 0
1, 38400, Note_on_c, 1, 55, 77
1, 38445, Note_on_c, 0, 83, 0
1, 38445, Note_on_c, 1, 55, 0
1, 38448, Note_on_c, 0, 77, 77
1, 38448, Note_on_c, 1, 71, 77
1, 38496, Note_on_c, 0, 77, 0
1, 38496, Note_on_c, 0, 76, 77
1, 38496, Note_on_c, 1, 71, 0
1, 38496, Note_on_c, 1, 72, 77
1, 38541, Note_on_c, 0, 76, 0
1, 38541, Note_on_c, 1, 72, 0
1, 38544, Note_on_c, 0, 82, 77
1, 38544, Note_on_c, 1, 64, 77
1, 38592, Note_on_c, 0, 82, 0
1, 38592, Note_on_c, 0, 81, 77
1, 38592, Note_on_c, 1, 64, 0
1, 38592, Note_on_c, 1, 65, 77
1, 38637, Note_on_c, 0, 81, 0
1, 38637, Note_on_c, 1, 65, 0
1, 38640, Note_on_c, 0, 75, 77
1, 38640, Note_on_c, 1, 69, 77
1, 38688, Note_on_c, 0, 75, 0
1, 38688, Note_on_c, 0, 74, 77
1, 38688, Note_on_c, 1, 69, 0
1, 38688, Note_on_c, 1, 70, 77
1, 38733, Note_on_c, 0, 74, 0
1, 38736, Note_on_c, 0, 85, 77
1, 38777, Note_on_c, 1, 70, 0
1, 38784, Note_on_c, 0, 85, 0
1, 38784, Note_on_c, 0, 86, 77
1, 38784, Note_on_c, 1, 58, 77
1, 38829, Note_on_c, 0, 86, 0
1, 38832, Note_on_c, 0, 88, 77
1, 38842, Note_on_c, 0, 88, 0
1, 38842, Note_on_c, 0, 86, 77
1, 38852, Note_on_c, 0, 86, 0
1, 38852, Note_on_c, 0, 84, 77
1, 38862, Note_on_c, 0, 84, 0
1, 38862, Note_on_c, 0, 86, 77
1, 38871, Note_on_c, 0, 86, 0
1, 38871, Note_on_c, 0, 88, 77
1, 38873, Note_on_c, 1, 58, 0
1, 38880, Note_on_c, 0, 88, 0
1, 38880, Note_on_c, 0, 89, 77
1, 38925, Note_on_c, 0, 89, 0
1, 38928, Note_on_c, 0, 89, 77
1, 38973, Note_on_c, 0, 89, 0
1, 38976, Note_on_c, 0, 89, 77
1, 38996, Note_on_c, 0, 89, 0
1, 39024, Note_on_c, 1, 59, 77
1, 39044, Note_on_c, 1, 59, 0
1, 39072, Note_on_c, 0, 74, 77
1, 39092, Note_on_c, 0, 74, 0
1, 39120, Note_on_c, 1, 65, 77
1, 39140, Note_on_c, 1, 65, 0
1, 39168, Note_on_c, 0, 64, 77
1, 39188, Note_on_c, 0, 64, 0
1, 39216, Note_on_c, 1, 60, 77
1, 39236, Note_on_c, 1, 60, 0
1, 39264, Note_on_c, 0, 48, 77
1, 39353, Note_on_c, 0, 48, 0
1, 39600, Note_on_c, 1, 53, 85
1, 39612, Note_on_c, 1, 53, 0
1, 39612, Note_on_c, 1, 57, 85
1, 39618, Note_on_c, 1, 57, 0
1, 39618, Note_on_c, 1, 60, 85
1, 39624, Note_on_c, 0, 65, 85
1, 39624, Note_on_c, 1, 60, 0
1, 39630, Note_on_c, 0, 65, 0
1, 39630, Note_on_c, 0, 69, 85
1, 39636, Note_on_c, 0, 69, 0
1, 39636, Note_on_c, 0, 72, 85
1, 39642, Note_on_c, 0, 72, 0
1, 39642, Note_on_c, 0, 76, 85
1, 39648, Note_on_c, 0, 76, 0
1, 39648, Note_on_c, 0, 77, 101
1, 39664, Note_on_c, 0, 77, 0
1, 39664, Note_on_c, 0, 72, 85
1, 39679, Note_on_c, 0, 72, 0
1, 39680, Note_on_c, 0, 69, 85
1, 39695, Note_on_c, 0, 69, 0
1, 39696, Note_on_c, 0, 74, 85
1, 39696, Note_on_c, 1, 58, 85
1, 39711, Note_on_c, 0, 74, 0
1, 39712, Note_on_c, 0, 70, 85
1, 39727, Note_on_c, 0, 70, 0
1, 39728, Note_on_c, 0, 65, 85
1, 39743, Note_on_c, 0, 65, 0
1, 39744, Note_on_c, 0, 72, 85
1, 39744, Note_on_c, 1, 58, 0
1, 39744, Note_on_c, 1, 57, 85
1, 39764, Note_on_c, 0, 72, 0
1, 39764, Note_on_c, 1, 57, 0
1, 39792, Note_on_c, 1, 53, 85
1, 39804, Note_on_c, 1, 53, 0
1, 39804, Note_on_c, 1, 57, 85
1, 39810, Note_on_c, 1, 57, 0
1, 39810, Note_on_c, 1, 60, 85
1, 39816, Note_on_c, 0, 65, 85
1, 39816, Note_on_c, 1, 60, 0
1, 39822, Note_on_c, 0, 65, 0
1, 39822, Note_on_c, 0, 69, 85
1, 39828, Note_on_c, 0, 69, 0
1, 39828, Note_on_c, 0, 72, 85
1, 39834, Note_on_c, 0, 72, 0
1, 39834, Note_on_c, 0, 76, 85
1, 39840, Note_on_c, 0, 76, 0
1, 39840, Note_on_c, 0, 77, 101
1, 39856, Note_on_c, 0, 77, 0
1, 39856, Note_on_c, 0, 72, 85
1, 39871, Note_on_c, 0, 72, 0
1, 39872, Note_on_c, 0, 69, 85
1, 39887, Note_on_c, 0, 69, 0
1, 39888, Note_on_c, 0, 74, 85
1, 39888, Note_on_c, 1, 58, 85
1, 39903, Note_on_c, 0, 74, 0
1, 39904, Note_on_c, 0, 70, 85
1, 39919, Note_on_c, 0, 70, 0
1, 39920, Note_on_c, 0, 65, 85
1, 39935, Note_on_c, 0, 65, 0
1, 39936, Note_on_c, 0, 72, 85
1, 39936, Note_on_c, 1, 58, 0
1, 39936, Note_on_c, 1, 57, 85
1, 39956, Note_on_c, 0, 72, 0
1, 39956, Note_on_c, 1, 57, 0
1, 39984, Note_on_c, 1, 53, 85
1, 39996, Note_on_c, 1, 53, 0
1, 39996, Note_on_c, 1, 57, 85
1, 40002, Note_on_c, 1, 57, 0
1, 40002, Note_on_c, 1, 60, 85
1, 40008, Note_on_c, 0, 65, 85
1, 40008, Note_on_c, 1, 60, 0
1, 40014, Note_on_c, 0, 65, 0
1, 40014, Note_on_c, 0, 69, 85
1, 40020, Note_on_c, 0, 69, 0
1, 40020, Note_on_c, 0, 72, 85
1, 40026, Note_on_c, 0, 72, 0
1, 40026, Note_on_c, 0, 76, 85
1, 40032, Note_on_c, 0, 76, 0
1, 40032, Note_on_c, 0, 77, 101
1, 40048, Note_on_c, 0, 77, 0
1, 40048, Note_on_c, 0, 72, 85
1, 40063, Note_on_c, 0, 72, 0
1, 40064, Note_on_c, 0, 69, 85
1, 40079, Note_on_c, 0, 69, 0
1, 40080, Note_on_c, 0, 74, 85
1, 40080, Note_on_c, 1, 58, 85
1, 40095, Note_on_c, 0, 74, 0
1, 40096, Note_on_c, 0, 70, 85
1, 40111, Note_on_c, 0, 70, 0
1, 40112, Note_on_c, 0, 65, 85
1, 40127, Note_on_c, 0, 65, 0
1, 40128, Note_on_c, 0, 72, 85
1, 40128, Note_on_c, 1, 58, 0
1, 40128, Note_on_c, 1, 57, 85
1, 40148, Note_on_c, 0, 72, 0
1, 40148, Note_on_c, 1, 57, 0
1, 40176, Note_on_c, 0, 72, 85
1, 40182, Note_on_c, 0, 72, 0
1, 40182, Note_on_c, 0, 77, 85
1, 40188, Note_on_c, 0, 77, 0
1, 40188, Note_on_c, 0, 81, 85
1, 40222, Note_on_c, 0, 81, 0
1, 40224, Note_on_c, 0, 79, 85
1, 40236, Note_on_c, 0, 79, 0
1, 40236, Note_on_c, 0, 77, 85
1, 40270, Note_on_c, 0, 77, 0
1, 40272, Note_on_c, 0, 76, 85
1, 40284, Note_on_c, 0, 76, 0
1, 40284, Note_on_c, 0, 74, 85
1, 40318, Note_on_c, 0, 74, 0
1, 40320, Note_on_c, 0, 72, 85
1, 40368, Note_on_c, 0, 72, 0
1, 40368, Note_on_c, 0, 71, 83
1, 40413, Note_on_c, 0, 71, 0
1, 40416, Note_on_c, 0, 70, 81
1, 40464, Note_on_c, 1, 64, 85
1, 40505, Note_on_c, 0, 70, 0
1, 40512, Note_on_c, 0, 69, 77
1, 40512, Note_on_c, 1, 64, 0
1, 40512, Note_on_c, 1, 65, 85
1, 40557, Note_on_c, 0, 69, 0
1, 40557, Note_on_c, 1, 65, 0
1, 40560, Note_on_c, 0, 73, 77
1, 40560, Note_on_c, 1, 58, 85
1, 40572, Note_on_c, 0, 73, 0
1, 40572, Note_on_c, 0, 74, 77
1, 40605, Note_on_c, 1, 58, 0
1, 40606, Note_on_c, 0, 74, 0
1, 40608, Note_on_c, 0, 72, 77
1, 40620, Note_on_c, 0, 72, 0
1, 40620, Note_on_c, 0, 70, 77
1, 40654, Note_on_c, 0, 70, 0
1, 40656, Note_on_c, 0, 69, 77
1, 40668, Note_on_c, 0, 69, 0
1, 40668, Note_on_c, 0, 67, 77
1, 40702, Note_on_c, 0, 67, 0
1, 40704, Note_on_c, 0, 65, 77
1, 40752, Note_on_c, 1, 62, 77
1, 40752, Note_on_c, 1, 59, 77
1, 40800, Note_on_c, 1, 62, 0
1, 40800, Note_on_c, 1, 59, 0
1, 40800, Note_on_c, 1, 60, 77
1, 40837, Note_on_c, 0, 65, 0
1, 40845, Note_on_c, 1, 60, 0
1, 40848, Note_on_c, 0, 69, 70
1, 40848, Note_on_c, 1, 48, 77
1, 40860, Note_on_c, 0, 69, 0
1, 40860, Note_on_c, 0, 67, 70
1, 40893, Note_on_c, 0, 67, 0
1, 40893, Note_on_c, 1, 48, 0
1, 40896, Note_on_c, 0, 65, 68
1, 40896, Note_on_c, 1, 53, 77
1, 40916, Note_on_c, 0, 65, 0
1, 40916, Note_on_c, 1, 53, 0
1, 40944, Note_on_c, 1, 53, 85
1, 40956, Note_on_c, 1, 53, 0
1, 40956, Note_on_c, 1, 57, 85
1, 40962, Note_on_c, 1, 57, 0
1, 40962, Note_on_c, 1, 60, 85
1, 40968, Note_on_c, 0, 65, 85
1, 40968, Note_on_c, 1, 60, 0
1, 40974, Note_on_c, 0, 65, 0
1, 40974, Note_on_c, 0, 69, 85
1, 40980, Note_on_c, 0, 69, 0
1, 40980, Note_on_c, 0, 72, 85
1, 40986, Note_on_c, 0, 72, 0
1, 40986, Note_on_c, 0, 76, 85
1, 40992, Note_on_c, 0, 76, 0
1, 40992, Note_on_c, 0, 77, 101
1, 41008, Note_on_c, 0, 77, 0
1, 41008, Note_on_c, 0, 72, 85
1, 41023, Note_on_c, 0, 72, 0
1, 41024, Note_on_c, 0, 69, 85
1, 41039, Note_on_c, 0, 69, 0
1, 41040, Note_on_c, 0, 74, 85
1, 41040, Note_on_c, 1, 58, 85
1, 41055, Note_on_c, 0, 74, 0
1, 41056, Note_on_c, 0, 70, 85
1, 41071, Note_on_c, 0, 70, 0
1, 41072, Note_on_c, 0, 65, 85
1, 41087, Note_on_c, 0, 65, 0
1, 41088, Note_on_c, 0, 72, 85
1, 41088, Note_on_c, 1, 58, 0
1, 41088, Note_on_c, 1, 57, 85
1, 41108, Note_on_c, 0, 72, 0
1, 41108, Note_on_c, 1, 57, 0
1, 41136, Note_on_c, 1, 53, 85
1, 41148, Note_on_c, 1, 53, 0
1, 41148, Note_on_c, 1, 57, 85
1, 41154, Note_on_c, 1, 57, 0
1, 41154, Note_on_c, 1, 60, 85
1, 41160, Note_on_c, 0, 65, 85
1, 41160, Note_on_c, 1, 60, 0
1, 41166, Note_on_c, 0, 65, 0
1, 41166, Note_on_c, 0, 69, 85
1, 41172, Note_on_c, 0, 69, 0
1, 41172, Note_on_c, 0, 72, 85
1, 41178, Note_on_c, 0, 72, 0
1, 41178, Note_on_c, 0, 76, 85
1, 41184, Note_on_c, 0, 76, 0
1, 41184, Note_on_c, 0, 77, 101
1, 41200, Note_on_c, 0, 77, 0
1, 41200, Note_on_c, 0, 72, 85
1, 41215, Note_on_c, 0, 72, 0
1, 41216, Note_on_c, 0, 69, 85
1, 41231, Note_on_c, 0, 69, 0
1, 41232, Note_on_c, 0, 74, 85
1, 41232, Note_on_c, 1, 58, 85
1, 41247, Note_on_c, 0, 74, 0
1, 41248, Note_on_c, 0, 70, 85
1, 41263, Note_on_c, 0, 70, 0
1, 41264, Note_on_c, 0, 65, 85
1, 41279, Note_on_c, 0, 65, 0
1, 41280, Note_on_c, 0, 72, 85
1, 41280, Note_on_c, 1, 58, 0
1, 41280, Note_on_c, 1, 57, 85
1, 41300, Note_on_c, 0, 72, 0
1, 41300, Note_on_c, 1, 57, 0
1, 41328, Note_on_c, 1, 55, 85
1, 41340, Note_on_c, 1, 55, 0
1, 41340, Note_on_c, 1, 59, 85
1, 41346, Note_on_c, 1, 59, 0
1, 41346, Note_on_c, 1, 62, 85
1, 41352, Note_on_c, 0, 65, 85
1, 41352, Note_on_c, 1, 62, 0
1, 41358, Note_on_c, 0, 65, 0
1, 41358, Note_on_c, 0, 67, 85
1, 41364, Note_on_c, 0, 67, 0
1, 41364, Note_on_c, 0, 71, 85
1, 41370, Note_on_c, 0, 71, 0
1, 41370, Note_on_c, 0, 74, 85
1, 41376, Note_on_c, 0, 74, 0
1, 41376, Note_on_c, 0, 77, 101
1, 41396, Note_on_c, 0, 77, 0
1, 41424, Note_on_c, 0, 72, 85
1, 41424, Note_on_c, 1, 67, 85
1, 41424, Note_on_c, 1, 65, 85
1, 41432, Note_on_c, 0, 72, 0
1, 41432, Note_on_c, 0, 71, 85
1, 41440, Note_on_c, 0, 71, 0
1, 41440, Note_on_c, 0, 72, 85
1, 41448, Note_on_c, 0, 72, 0
1, 41448, Note_on_c, 0, 71, 85
1, 41456, Note_on_c, 0, 71, 0
1, 41456, Note_on_c, 0, 69, 85
1, 41464, Note_on_c, 0, 69, 0
1, 41464, Note_on_c, 0, 71, 85
1, 41469, Note_on_c, 1, 67, 0
1, 41469, Note_on_c, 1, 65, 0
1, 41472, Note_on_c, 0, 71, 0
1, 41472, Note_on_c, 0, 72, 85
1, 41472, Note_on_c, 1, 67, 85
1, 41472, Note_on_c, 1, 64, 85
1, 41492, Note_on_c, 0, 72, 0
1, 41492, Note_on_c, 1, 67, 0
1, 41492, Note_on_c, 1, 64, 0
1, 41520, Note_on_c, 1, 60, 85
1, 41528, Note_on_c, 1, 60, 0
1, 41528, Note_on_c, 1, 64, 85
1, 41536, Note_on_c, 1, 64, 0
1, 41536, Note_on_c, 1, 67, 85
1, 41544, Note_on_c, 0, 70, 85
1, 41544, Note_on_c, 1, 67, 0
1, 41552, Note_on_c, 0, 70, 0
1, 41552, Note_on_c, 0, 72, 85
1, 41560, Note_on_c, 0, 72, 0
1, 41560, Note_on_c, 0, 76, 85
1, 41568, Note_on_c, 0, 76, 0
1, 41568, Note_on_c, 0, 79, 101
1, 41588, Note_on_c, 0, 79, 0
1, 41616, Note_on_c, 0, 72, 85
1, 41616, Note_on_c, 1, 67, 85
1, 41616, Note_on_c, 1, 64, 85
1, 41624, Note_on_c, 0, 72, 0
1, 41624, Note_on_c, 0, 70, 85
1, 41632, Note_on_c, 0, 70, 0
1, 41632, Note_on_c, 0, 72, 85
1, 41640, Note_on_c, 0, 72, 0
1, 41640, Note_on_c, 0, 70, 85
1, 41648, Note_on_c, 0, 70, 0
1, 41648, Note_on_c, 0, 69, 85
1, 41656, Note_on_c, 0, 69, 0
1, 41656, Note_on_c, 0, 70, 85
1, 41661, Note_on_c, 1, 67, 0
1, 41661, Note_on_c, 1, 64, 0
1, 41664, Note_on_c, 0, 70, 0
1, 41664, Note_on_c, 0, 69, 85
1, 41664, Note_on_c, 1, 65, 85
1, 41709, Note_on_c, 0, 69, 0
1, 41709, Note_on_c, 1, 65, 0
1, 41712, Note_on_c, 1, 58, 85
1, 41720, Note_on_c, 1, 58, 0
1, 41720, Note_on_c, 1, 62, 85
1, 41728, Note_on_c, 1, 62, 0
1, 41728, Note_on_c, 1, 66, 85
1, 41736, Note_on_c, 0, 67, 85
1, 41736, Note_on_c, 1, 66, 0
1, 41744, Note_on_c, 0, 67, 0
1, 41744, Note_on_c, 0, 69, 85
1, 41752, Note_on_c, 0, 69, 0
1, 41752, Note_on_c, 0, 70, 85
1, 41760, Note_on_c, 0, 70, 0
1, 41760, Note_on_c, 0, 74, 101
1, 41780, Note_on_c, 0, 74, 0
1, 41808, Note_on_c, 0, 67, 85
1, 41808, Note_on_c, 1, 62, 85
1, 41808, Note_on_c, 1, 59, 85
1, 41816, Note_on_c, 0, 67, 0
1, 41816, Note_on_c, 0, 65, 85
1, 41824, Note_on_c, 0, 65, 0
1, 41824, Note_on_c, 0, 67, 85
1, 41832, Note_on_c, 0, 67, 0
1, 41832, Note_on_c, 0, 65, 85
1, 41840, Note_on_c, 0, 65, 0
1, 41840, Note_on_c, 0, 64, 85
1, 41848, Note_on_c, 0, 64, 0
1, 41848, Note_on_c, 0, 65, 85
1, 41853, Note_on_c, 1, 62, 0
1, 41853, Note_on_c, 1, 59, 0
1, 41856, Note_on_c, 0, 65, 0
1, 41856, Note_on_c, 0, 64, 85
1, 41856, Note_on_c, 1, 60, 85
1, 41876, Note_on_c, 0, 64, 0
1, 41901, Note_on_c, 1, 60, 0
1, 41904, Note_on_c, 0, 60, 60
1, 41924, Note_on_c, 0, 60, 0
1, 41952, Note_on_c, 0, 60, 61
1, 41972, Note_on_c, 0, 60, 0
1, 42000, Note_on_c, 0, 60, 62
1, 42020, Note_on_c, 0, 60, 0
1, 42048, Note_on_c, 0, 60, 63
1, 42068, Note_on_c, 0, 60, 0
1, 42096, Note_on_c, 0, 60, 65
1, 42116, Note_on_c, 0, 60, 0
1, 42144, Note_on_c, 0, 60, 66
1, 42164, Note_on_c, 0, 60, 0
1, 42192, Note_on_c, 0, 60, 67
1, 42212, Note_on_c, 0, 60, 0
1, 42240, Note_on_c, 1, 61, 69
1, 42240, Note_on_c, 1, 58, 69
1, 42260, Note_on_c, 1, 61, 0
1, 42260, Note_on_c, 1, 58, 0
1, 42288, Note_on_c, 0, 60, 70
1, 42308, Note_on_c, 0, 60, 0
1, 42336, Note_on_c, 1, 61, 71
1, 42336, Note_on_c, 1, 58, 71
1, 42356, Note_on_c, 1, 61, 0
1, 42356, Note_on_c, 1, 58, 0
1, 42384, Note_on_c, 0, 60, 73
1, 42404, Note_on_c, 0, 60, 0
1, 42432, Note_on_c, 1, 61, 74
1, 42432, Note_on_c, 1, 58, 74
1, 42452, Note_on_c, 1, 61, 0
1, 42452, Note_on_c, 1, 58, 0
1, 42480, Note_on_c, 0, 60, 75
1, 42500, Note_on_c, 0, 60, 0
1, 42528, Note_on_c, 1, 61, 77
1, 42528, Note_on_c, 1, 58, 77
1, 42548, Note_on_c, 1, 61, 0
1, 42548, Note_on_c, 1, 58, 0
1, 42576, Note_on_c, 0, 60, 78
1, 42596, Note_on_c, 0, 60, 0
1, 42624, Note_on_c, 1, 61, 79
1, 42624, Note_on_c, 1, 58, 79
1, 42634, Note_on_c, 1, 61, 0
1, 42634, Note_on_c, 1, 58, 0
1, 42648, Note_on_c, 0, 60, 80
1, 42658, Note_on_c, 0, 60, 0
1, 42672, Note_on_c, 1, 61, 81
1, 42672, Note_on_c, 1, 58, 81
1, 42682, Note_on_c, 1, 61, 0
1, 42682, Note_on_c, 1, 58, 0
1, 42696, Note_on_c, 0, 60, 81
1, 42706, Note_on_c, 0, 60, 0
1, 42720, Note_on_c, 1, 61, 82
1, 42720, Note_on_c, 1, 58, 82
1, 42730, Note_on_c, 1, 61, 0
1, 42730, Note_on_c, 1, 58, 0
1, 42744, Note_on_c, 0, 60, 83
1, 42754, Note_on_c, 0, 60, 0
1, 42768, Note_on_c, 1, 61, 83
1, 42768, Note_on_c, 1, 58, 83
1, 42778, Note_on_c, 1, 61, 0
1, 42778, Note_on_c, 1, 58, 0
1, 42792, Note_on_c, 0, 60, 84
1, 42802, Note_on_c, 0, 60, 0
1, 42816, Note_on_c, 1, 61, 85
1, 42816, Note_on_c, 1, 58, 85
1, 42826, Note_on_c, 1, 61, 0
1, 42826, Note_on_c, 1, 58, 0
1, 42840, Note_on_c, 0, 60, 85
1, 42850, Note_on_c, 0, 60, 0
1, 42864, Note_on_c, 1, 61, 85
1, 42864, Note_on_c, 1, 58, 85
1, 42874, Note_on_c, 1, 61, 0
1, 42874, Note_on_c, 1, 58, 0
1, 42888, Note_on_c, 0, 60, 85
1, 42898, Note_on_c, 0, 60, 0
1, 42912, Note_on_c, 1, 61, 85
1, 42912, Note_on_c, 1, 58, 85
1, 42922, Note_on_c, 1, 61, 0
1, 42922, Note_on_c, 1, 58, 0
1, 42936, Note_on_c, 0, 60, 85
1, 42946, Note_on_c, 0, 60, 0
1, 42960, Note_on_c, 1, 61, 85
1, 42960, Note_on_c, 1, 58, 85
1, 42970, Note_on_c, 1, 61, 0
1, 42970, Note_on_c, 1, 58, 0
1, 42984, Note_on_c, 0, 60, 85
1, 42994, Note_on_c, 0, 60, 0
1, 43008, Note_on_c, 1, 61, 85
1, 43008, Note_on_c, 1, 58, 85
1, 43008, Note_on_c, 1, 55, 85
1, 43024, Note_on_c, 0, 64, 85
1, 43039, Note_on_c, 0, 64, 0
1, 43040, Note_on_c, 0, 65, 85
1, 43055, Note_on_c, 0, 65, 0
1, 43056, Note_on_c, 0, 67, 85
1, 43071, Note_on_c, 0, 67, 0
1, 43072, Note_on_c, 0, 65, 85
1, 43087, Note_on_c, 0, 65, 0
1, 43088, Note_on_c, 0, 64, 85
1, 43103, Note_on_c, 0, 64, 0
1, 43104, Note_on_c, 0, 70, 85
1, 43119, Note_on_c, 0, 70, 0
1, 43120, Note_on_c, 0, 68, 85
1, 43135, Note_on_c, 0, 68, 0
1, 43136, Note_on_c, 0, 67, 85
1, 43151, Note_on_c, 0, 67, 0
1, 43152, Note_on_c, 0, 73, 85
1, 43167, Note_on_c, 0, 73, 0
1, 43168, Note_on_c, 0, 72, 85
1, 43183, Note_on_c, 0, 72, 0
1, 43184, Note_on_c, 0, 70, 85
1, 43199, Note_on_c, 0, 70, 0
1, 43200, Note_on_c, 0, 79, 85
1, 43220, Note_on_c, 0, 79, 0
1, 43248, Note_on_c, 0, 70, 83
1, 43268, Note_on_c, 0, 70, 0
1, 43296, Note_on_c, 0, 73, 81
1, 43316, Note_on_c, 0, 73, 0
1, 43344, Note_on_c, 0, 64, 79
1, 43362, Note_on_c, 1, 61, 0
1, 43362, Note_on_c, 1, 58, 0
1, 43362, Note_on_c, 1, 55, 0
1, 43364, Note_on_c, 0, 64, 0
1, 43392, Note_on_c, 0, 67, 77
1, 43392, Note_on_c, 1, 60, 77
1, 43392, Note_on_c, 1, 57, 77
1, 43415, Note_on_c, 0, 67, 0
1, 43416, Note_on_c, 0, 65, 81
1, 43439, Note_on_c, 0, 65, 0
1, 43440, Note_on_c, 0, 71, 85
1, 43463, Note_on_c, 0, 71, 0
1, 43464, Note_on_c, 0, 72, 89
1, 43481, Note_on_c, 1, 60, 0
1, 43481, Note_on_c, 1, 57, 0
1, 43487, Note_on_c, 0, 72, 0
1, 43488, Note_on_c, 0, 70, 93
1, 43511, Note_on_c, 0, 70, 0
1, 43512, Note_on_c, 0, 69, 91
1, 43535, Note_on_c, 0, 69, 0
1, 43536, Note_on_c, 0, 67, 89
1, 43536, Note_on_c, 1, 57, 77
1, 43559, Note_on_c, 0, 67, 0
1, 43560, Note_on_c, 0, 65, 87
1, 43583, Note_on_c, 0, 65, 0
1, 43584, Note_on_c, 0, 66, 85
1, 43584, Note_on_c, 1, 57, 0
1, 43584, Note_on_c, 1, 58, 77
1, 43607, Note_on_c, 0, 66, 0
1, 43608, Note_on_c, 0, 67, 98
1, 43631, Note_on_c, 0, 67, 0
1, 43632, Note_on_c, 0, 70, 112
1, 43655, Note_on_c, 0, 70, 0
1, 43656, Note_on_c, 0, 67, 126
1, 43673, Note_on_c, 1, 58, 0
1, 43679, Note_on_c, 0, 67, 0
1, 43680, Note_on_c, 0, 62, 119
1, 43725, Note_on_c, 0, 62, 0
1, 43728, Note_on_c, 0, 64, 106
1, 43728, Note_on_c, 1, 58, 77
1, 43728, Note_on_c, 1, 48, 77
1, 43773, Note_on_c, 0, 64, 0
1, 43773, Note_on_c, 1, 58, 0
1, 43773, Note_on_c, 1, 48, 0
1, 43776, Note_on_c, 0, 65, 93
1, 43776, Note_on_c, 1, 57, 77
1, 43776, Note_on_c, 1, 53, 77
1, 43821, Note_on_c, 0, 65, 0
1, 43824, Note_on_c, 0, 83, 109
1, 43847, Note_on_c, 0, 83, 0
1, 43848, Note_on_c, 0, 84, 117
1, 43865, Note_on_c, 1, 57, 0
1, 43865, Note_on_c, 1, 53, 0
1, 43871, Note_on_c, 0, 84, 0
1, 43872, Note_on_c, 0, 82, 126
1, 43895, Note_on_c, 0, 82, 0
1, 43896, Note_on_c, 0, 81, 117
1, 43919, Note_on_c, 0, 81, 0
1, 43920, Note_on_c, 0, 79, 109
1, 43920, Note_on_c, 1, 69, 77
1, 43943, Note_on_c, 0, 79, 0
1, 43944, Note_on_c, 0, 77, 101
1, 43967, Note_on_c, 0, 77, 0
1, 43968, Note_on_c, 0, 78, 93
1, 43968, Note_on_c, 1, 69, 0
1, 43968, Note_on_c, 1, 70, 77
1, 43991, Note_on_c, 0, 78, 0
1, 43992, Note_on_c, 0, 79, 109
1, 44015, Note_on_c, 0, 79, 0
1, 44016, Note_on_c, 0, 82, 126
1, 44039, Note_on_c, 0, 82, 0
1, 44040, Note_on_c, 0, 79, 120
1, 44057, Note_on_c, 1, 70, 0
1, 44063, Note_on_c, 0, 79, 0
1, 44064, Note_on_c, 0, 74, 115
1, 44109, Note_on_c, 0, 74, 0
1, 44112, Note_on_c, 0, 76, 104
1, 44112, Note_on_c, 1, 70, 77
1, 44112, Note_on_c, 1, 60, 77
1, 44157, Note_on_c, 0, 76, 0
1, 44157, Note_on_c, 1, 70, 0
1, 44157, Note_on_c, 1, 60, 0
1, 44160, Note_on_c, 0, 79, 93
1, 44172, Note_on_c, 0, 79, 0
1, 44172, Note_on_c, 0, 77, 93
1, 44184, Note_on_c, 0, 77, 0
1, 44184, Note_on_c, 0, 76, 93
1, 44196, Note_on_c, 0, 76, 0
1, 44196, Note_on_c, 0, 77, 93
1, 44208, Note_on_c, 1, 69, 77
1, 44208, Note_on_c, 1, 65, 68
1, 44253, Note_on_c, 1, 69, 0
1, 44253, Note_on_c, 1, 65, 0
1, 44256, Note_on_c, 1, 69, 77
1, 44256, Note_on_c, 1, 65, 68
1, 44279, Note_on_c, 0, 77, 0
1, 44280, Note_on_c, 0, 81, 93
1, 44303, Note_on_c, 0, 81, 0
1, 44304, Note_on_c, 0, 79, 93
1, 44304, Note_on_c, 1, 69, 0
1, 44304, Note_on_c, 1, 70, 77
1, 44327, Note_on_c, 0, 79, 0
1, 44328, Note_on_c, 0, 76, 93
1, 44349, Note_on_c, 1, 70, 0
1, 44351, Note_on_c, 0, 76, 0
1, 44352, Note_on_c, 0, 77, 93
1, 44352, Note_on_c, 1, 69, 77
1, 44375, Note_on_c, 0, 77, 0
1, 44376, Note_on_c, 0, 81, 93
1, 44399, Note_on_c, 0, 81, 0
1, 44400, Note_on_c, 0, 79, 93
1, 44400, Note_on_c, 1, 69, 0
1, 44400, Note_on_c, 1, 70, 77
1, 44423, Note_on_c, 0, 79, 0
1, 44424, Note_on_c, 0, 76, 93
1, 44445, Note_on_c, 1, 70, 0
1, 44447, Note_on_c, 0, 76, 0
1, 44448, Note_on_c, 0, 77, 93
1, 44448, Note_on_c, 1, 69, 77
1, 44471, Note_on_c, 0, 77, 0
1, 44472, Note_on_c, 0, 81, 93
1, 44495, Note_on_c, 0, 81, 0
1, 44496, Note_on_c, 0, 79, 93
1, 44496, Note_on_c, 1, 69, 0
1, 44496, Note_on_c, 1, 70, 77
1, 44519, Note_on_c, 0, 79, 0
1, 44520, Note_on_c, 0, 76, 93
1, 44521, Note_on_c, 1, 65, 0
1, 44541, Note_on_c, 1, 70, 0
1, 44543, Note_on_c, 0, 76, 0
1, 44544, Note_on_c, 0, 79, 93
1, 44556, Note_on_c, 0, 79, 0
1, 44556, Note_on_c, 0, 77, 93
1, 44568, Note_on_c, 0, 77, 0
1, 44568, Note_on_c, 0, 76, 93
1, 44580, Note_on_c, 0, 76, 0
1, 44580, Note_on_c, 0, 77, 93
1, 44592, Note_on_c, 1, 69, 77
1, 44592, Note_on_c, 1, 65, 68
1, 44637, Note_on_c, 1, 69, 0
1, 44637, Note_on_c, 1, 65, 0
1, 44640, Note_on_c, 1, 69, 77
1, 44640, Note_on_c, 1, 65, 68
1, 44655, Note_on_c, 0, 77, 0
1, 44656, Note_on_c, 0, 79, 93
1, 44671, Note_on_c, 0, 79, 0
1, 44672, Note_on_c, 0, 81, 93
1, 44687, Note_on_c, 0, 81, 0
1, 44688, Note_on_c, 0, 79, 93
1, 44688, Note_on_c, 1, 69, 0
1, 44688, Note_on_c, 1, 70, 77
1, 44703, Note_on_c, 0, 79, 0
1, 44704, Note_on_c, 0, 77, 93
1, 44719, Note_on_c, 0, 77, 0
1, 44720, Note_on_c, 0, 76, 93
1, 44733, Note_on_c, 1, 70, 0
1, 44735, Note_on_c, 0, 76, 0
1, 44736, Note_on_c, 0, 77, 93
1, 44736, Note_on_c, 1, 69, 77
1, 44751, Note_on_c, 0, 77, 0
1, 44752, Note_on_c, 0, 79, 93
1, 44767, Note_on_c, 0, 79, 0
1, 44768, Note_on_c, 0, 81, 93
1, 44783, Note_on_c, 0, 81, 0
1, 44784, Note_on_c, 0, 79, 93
1, 44784, Note_on_c, 1, 69, 0
1, 44784, Note_on_c, 1, 70, 77
1, 44799, Note_on_c, 0, 79, 0
1, 44800, Note_on_c, 0, 77, 93
1, 44815, Note_on_c, 0, 77, 0
1, 44816, Note_on_c, 0, 76, 93
1, 44829, Note_on_c, 1, 70, 0
1, 44831, Note_on_c, 0, 76, 0
1, 44832, Note_on_c, 0, 77, 93
1, 44832, Note_on_c, 1, 69, 77
1, 44847, Note_on_c, 0, 77, 0
1, 44848, Note_on_c, 0, 79, 93
1, 44863, Note_on_c, 0, 79, 0
1, 44864, Note_on_c, 0, 81, 93
1, 44879, Note_on_c, 0, 81, 0
1, 44880, Note_on_c, 0, 79, 93
1, 44880, Note_on_c, 1, 69, 0
1, 44880, Note_on_c, 1, 70, 77
1, 44895, Note_on_c, 0, 79, 0
1, 44896, Note_on_c, 0, 77, 93
1, 44905, Note_on_c, 1, 65, 0
1, 44911, Note_on_c, 0, 77, 0
1, 44912, Note_on_c, 0, 76, 93
1, 44925, Note_on_c, 1, 70, 0
1, 44927, Note_on_c, 0, 76, 0
1, 44928, Note_on_c, 0, 77, 93
1, 44928, Note_on_c, 1, 69, 77
1, 44928, Note_on_c, 1, 65, 68
1, 44973, Note_on_c, 0, 77, 0
1, 44976, Note_on_c, 0, 89, 109
1, 45017, Note_on_c, 1, 69, 0
1, 45017, Note_on_c, 1, 65, 0
1, 45024, Note_on_c, 1, 65, 77
1, 45024, Note_on_c, 1, 57, 68
1, 45047, Note_on_c, 0, 89, 0
1, 45048, Note_on_c, 0, 88, 93
1, 45071, Note_on_c, 0, 88, 0
1, 45072, Note_on_c, 0, 87, 93
1, 45095, Note_on_c, 0, 87, 0
1, 45096, Note_on_c, 0, 86, 93
1, 45113, Note_on_c, 1, 65, 0
1, 45119, Note_on_c, 0, 86, 0
1, 45120, Note_on_c, 0, 85, 93
1, 45120, Note_on_c, 1, 65, 77
1, 45120, Note_on_c, 1, 57, 0
1, 45120, Note_on_c, 1, 58, 68
1, 45143, Note_on_c, 0, 85, 0
1, 45144, Note_on_c, 0, 86, 93
1, 45165, Note_on_c, 1, 65, 0
1, 45165, Note_on_c, 1, 58, 0
1, 45167, Note_on_c, 0, 86, 0
1, 45168, Note_on_c, 0, 84, 93
1, 45191, Note_on_c, 0, 84, 0
1, 45192, Note_on_c, 0, 82, 93
1, 45215, Note_on_c, 0, 82, 0
1, 45216, Note_on_c, 0, 81, 93
1, 45239, Note_on_c, 0, 81, 0
1, 45240, Note_on_c, 0, 79, 93
1, 45263, Note_on_c, 0, 79, 0
1, 45264, Note_on_c, 0, 82, 93
1, 45287, Note_on_c, 0, 82, 0
1, 45288, Note_on_c, 0, 79, 93
1, 45311, Note_on_c, 0, 79, 0
1, 45312, Note_on_c, 0, 77, 93
1, 45360, Note_on_c, 1, 68, 77
1, 45360, Note_on_c, 1, 59, 68
1, 45405, Note_on_c, 1, 68, 0
1, 45405, Note_on_c, 1, 59, 0
1, 45408, Note_on_c, 1, 69, 79
1, 45408, Note_on_c, 1, 60, 68
1, 45445, Note_on_c, 0, 77, 0
1, 45453, Note_on_c, 1, 69, 0
1, 45456, Note_on_c, 0, 81, 93
1, 45456, Note_on_c, 1, 70, 82
1, 45468, Note_on_c, 0, 81, 0
1, 45468, Note_on_c, 0, 79, 93
1, 45497, Note_on_c, 1, 60, 0
1, 45501, Note_on_c, 0, 79, 0
1, 45501, Note_on_c, 1, 70, 0
1, 45504, Note_on_c, 0, 77, 93
1, 45504, Note_on_c, 1, 69, 85
1, 45504, Note_on_c, 1, 65, 68
1, 45524, Note_on_c, 0, 77, 0
1, 45552, Note_on_c, 0, 72, 93
1, 45567, Note_on_c, 0, 72, 0
1, 45568, Note_on_c, 0, 77, 93
1, 45583, Note_on_c, 0, 77, 0
1, 45584, Note_on_c, 0, 81, 93
1, 45593, Note_on_c, 1, 69, 0
1, 45593, Note_on_c, 1, 65, 0
1, 45599, Note_on_c, 0, 81, 0
1, 45600, Note_on_c, 0, 84, 93
1, 45615, Note_on_c, 0, 84, 0
1, 45616, Note_on_c, 0, 81, 93
1, 45631, Note_on_c, 0, 81, 0
1, 45632, Note_on_c, 0, 77, 93
1, 45647, Note_on_c, 0, 77, 0
1, 45648, Note_on_c, 0, 82, 93
1, 45648, Note_on_c, 1, 67, 77
1, 45648, Note_on_c, 1, 60, 68
1, 45663, Note_on_c, 0, 82, 0
1, 45664, Note_on_c, 0, 79, 93
1, 45679, Note_on_c, 0, 79, 0
1, 45680, Note_on_c, 0, 76, 93
1, 45693, Note_on_c, 1, 67, 0
1, 45693, Note_on_c, 1, 60, 0
1, 45695, Note_on_c, 0, 76, 0
1, 45696, Note_on_c, 0, 77, 93
1, 45696, Note_on_c, 1, 69, 77
1, 45696, Note_on_c, 1, 65, 68
1, 45716, Note_on_c, 0, 77, 0
1, 45741, Note_on_c, 1, 69, 0
1, 45741, Note_on_c, 1, 65, 0
1, 45744, Note_on_c, 0, 60, 93
1, 45759, Note_on_c, 0, 60, 0
1, 45760, Note_on_c, 0, 65, 93
1, 45775, Note_on_c, 0, 65, 0
1, 45776, Note_on_c, 0, 69, 93
1, 45791, Note_on_c, 0, 69, 0
1, 45792, Note_on_c, 0, 72, 93
1, 45807, Note_on_c, 0, 72, 0
1, 45808, Note_on_c, 0, 69, 93
1, 45823, Note_on_c, 0, 69, 0
1, 45824, Note_on_c, 0, 65, 93
1, 45839, Note_on_c, 0, 65, 0
1, 45840, Note_on_c, 0, 70, 93
1, 45840, Note_on_c, 1, 55, 77
1, 45840, Note_on_c, 1, 48, 68
1, 45855, Note_on_c, 0, 70, 0
1, 45856, Note_on_c, 0, 67, 93
1, 45871, Note_on_c, 0, 67, 0
1, 45872, Note_on_c, 0, 64, 93
1, 45885, Note_on_c, 1, 55, 0
1, 45885, Note_on_c, 1, 48, 0
1, 45887, Note_on_c, 0, 64, 0
1, 45888, Note_on_c, 0, 65, 93
1, 45888, Note_on_c, 1, 57, 77
1, 45888, Note_on_c, 1, 53, 68
1, 45908, Note_on_c, 0, 65, 0
1, 45933, Note_on_c, 1, 57, 0
1, 45933, Note_on_c, 1, 53, 0
1, 45936, Note_on_c, 0, 48, 93
1, 45951, Note_on_c, 0, 48, 0
1, 45952, Note_on_c, 0, 53, 93
1, 45967, Note_on_c, 0, 53, 0
1, 45968, Note_on_c, 0, 57, 93
1, 45983, Note_on_c, 0, 57, 0
1, 45984, Note_on_c, 0, 60, 93
1, 45999, Note_on_c, 0, 60, 0
1, 46000, Note_on_c, 0, 57, 93
1, 46015, Note_on_c, 0, 57, 0
1, 46016, Note_on_c, 0, 53, 93
1, 46031, Note_on_c, 0, 53, 0
1, 46032, Note_on_c, 0, 58, 93
1, 46032, Note_on_c, 1, 43, 77
1, 46032, Note_on_c, 1, 36, 68
1, 46047, Note_on_c, 0, 58, 0
1, 46048, Note_on_c, 0, 55, 93
1, 46063, Note_on_c, 0, 55, 0
1, 46064, Note_on_c, 0, 52, 93
1, 46077, Note_on_c, 1, 43, 0
1, 46077, Note_on_c, 1, 36, 0
1, 46079, Note_on_c, 0, 52, 0
1, 46080, Note_on_c, 0, 53, 93
1, 46080, Note_on_c, 1, 45, 77
1, 46080, Note_on_c, 1, 41, 68
1, 46169, Note_on_c, 0, 53, 0
1, 46169, Note_on_c, 1, 45, 0
1, 46169, Note_on_c, 1, 41, 0
1, 46176, Note_on_c, 0, 53, 93
1, 46176, Note_on_c, 0, 48, 93
1, 46176, Note_on_c, 0, 45, 93
1, 46176, Note_on_c, 1, 41, 77
1, 46176, Note_on_c, 1, 29, 68
1, 46265, Note_on_c, 0, 53, 0
1, 46265, Note_on_c, 0, 48, 0
1, 46265, Note_on_c, 0, 45, 0
1, 46265, Note_on_c, 1, 41, 0
1, 46265, Note_on_c, 1, 29, 0
1, 46272, Note_on_c, 0, 53, 93
1, 46272, Note_on_c, 0, 48, 93
1, 46272, Note_on_c, 0, 45, 93
1, 46272, Note_on_c, 1, 41, 77
1, 46272, Note_on_c, 1, 29, 68
1, 46361, Note_on_c, 0, 53, 0
1, 46361, Note_on_c, 0, 48, 0
1, 46361, Note_on_c, 0, 45, 0
1, 46361, Note_on_c, 1, 41, 0
1, 46361, Note_on_c, 1, 29, 0
1, 46464, Note_on_c, 0, 72, 85
1, 46464, Note_on_c, 1, 48, 85
1, 46470, Note_on_c, 0, 75, 85
1, 46470, Note_on_c, 1, 51, 85
1, 46476, Note_on_c, 0, 79, 85
1, 46476, Note_on_c, 1, 55, 85
1, 46482, Note_on_c, 0, 84, 85
1, 46482, Note_on_c, 1, 60, 85
1, 46509, Note_on_c, 0, 84, 0
1, 46509, Note_on_c, 0, 79, 0
1, 46509, Note_on_c, 0, 75, 0
1, 46509, Note_on_c, 0, 72, 0
1, 46509, Note_on_c, 1, 60, 0
1, 46509, Note_on_c, 1, 55, 0
1, 46509, Note_on_c, 1, 51, 0
1, 46509, Note_on_c, 1, 48, 0
1, 46512, Note_on_c, 1, 60, 85
1, 46532, Note_on_c, 1, 60, 0
1, 46560, Note_on_c, 0, 67, 85
1, 46560, Note_on_c, 0, 63, 85
1, 46560, Note_on_c, 1, 60, 85
1, 46580, Note_on_c, 0, 67, 0
1, 46580, Note_on_c, 0, 63, 0
1, 46580, Note_on_c, 1, 60, 0
1, 46608, Note_on_c, 1, 60, 85
1, 46628, Note_on_c, 1, 60, 0
1, 46632, Note_on_c, 0, 67, 85
1, 46632, Note_on_c, 0, 63, 85
1, 46642, Note_on_c, 0, 67, 0
1, 46642, Note_on_c, 0, 63, 0
1, 46656, Note_on_c, 0, 67, 85
1, 46656, Note_on_c, 0, 63, 85
1, 46656, Note_on_c, 1, 60, 85
1, 46676, Note_on_c, 1, 60, 0
1, 46701, Note_on_c, 0, 67, 0
1, 46701, Note_on_c, 0, 63, 0
1, 46704, Note_on_c, 1, 60, 85
1, 46724, Note_on_c, 1, 60, 0
1, 46752, Note_on_c, 1, 60, 85
1, 46772, Note_on_c, 1, 60, 0
1, 46800, Note_on_c, 1, 60, 85
1, 46820, Note_on_c, 1, 60, 0
1, 46848, Note_on_c, 0, 72, 85
1, 46848, Note_on_c, 1, 48, 85
1, 46854, Note_on_c, 0, 75, 85
1, 46854, Note_on_c, 1, 51, 85
1, 46860, Note_on_c, 0, 80, 85
1, 46860, Note_on_c, 1, 56, 85
1, 46866, Note_on_c, 0, 84, 85
1, 46866, Note_on_c, 1, 60, 85
1, 46893, Note_on_c, 0, 84, 0
1, 46893, Note_on_c, 0, 80, 0
1, 46893, Note_on_c, 0, 75, 0
1, 46893, Note_on_c, 0, 72, 0
1, 46893, Note_on_c, 1, 60, 0
1, 46893, Note_on_c, 1, 56, 0
1, 46893, Note_on_c, 1, 51, 0
1, 46893, Note_on_c, 1, 48, 0
1, 46896, Note_on_c, 1, 60, 85
1, 46916, Note_on_c, 1, 60, 0
1, 46944, Note_on_c, 0, 68, 85
1, 46944, Note_on_c, 0, 63, 85
1, 46944, Note_on_c, 1, 60, 85
1, 46964, Note_on_c, 0, 68, 0
1, 46964, Note_on_c, 0, 63, 0
1, 46964, Note_on_c, 1, 60, 0
1, 46992, Note_on_c, 1, 60, 85
1, 47012, Note_on_c, 1, 60, 0
1, 47016, Note_on_c, 0, 68, 85
1, 47016, Note_on_c, 0, 63, 85
1, 47026, Note_on_c, 0, 68, 0
1, 47026, Note_on_c, 0, 63, 0
1, 47040, Note_on_c, 0, 68, 85
1, 47040, Note_on_c, 0, 63, 85
1, 47040, Note_on_c, 1, 60, 85
1, 47060, Note_on_c, 1, 60, 0
1, 47085, Note_on_c, 0, 68, 0
1, 47085, Note_on_c, 0, 63, 0
1, 47088, Note_on_c, 1, 60, 85
1, 47108, Note_on_c, 1, 60, 0
1, 47136, Note_on_c, 1, 60, 85
1, 47156, Note_on_c, 1, 60, 0
1, 47184, Note_on_c, 1, 60, 85
1, 47204, Note_on_c, 1, 60, 0
1, 47232, Note_on_c, 0, 78, 85
1, 47232, Note_on_c, 1, 60, 85
1, 47238, Note_on_c, 0, 81, 85
1, 47238, Note_on_c, 1, 63, 85
1, 47244, Note_on_c, 0, 84, 85
1, 47244, Note_on_c, 1, 66, 85
1, 47250, Note_on_c, 0, 87, 85
1, 47250, Note_on_c, 1, 69, 85
1, 47277, Note_on_c, 0, 87, 0
1, 47277, Note_on_c, 0, 84, 0
1, 47277, Note_on_c, 0, 81, 0
1, 47277, Note_on_c, 0, 78, 0
1, 47277, Note_on_c, 1, 69, 0
1, 47277, Note_on_c, 1, 66, 0
1, 47277, Note_on_c, 1, 63, 0
1, 47277, Note_on_c, 1, 60, 0
1, 47280, Note_on_c, 1, 72, 85
1, 47280, Note_on_c, 1, 69, 85
1, 47300, Note_on_c, 1, 72, 0
1, 47300, Note_on_c, 1, 69, 0
1, 47328, Note_on_c, 0, 78, 85
1, 47328, Note_on_c, 0, 75, 85
1, 47328, Note_on_c, 1, 72, 85
1, 47328, Note_on_c, 1, 69, 85
1, 47348, Note_on_c, 0, 78, 0
1, 47348, Note_on_c, 0, 75, 0
1, 47348, Note_on_c, 1, 72, 0
1, 47348, Note_on_c, 1, 69, 0
1, 47376, Note_on_c, 1, 72, 85
1, 47376, Note_on_c, 1, 69, 85
1, 47396, Note_on_c, 1, 72, 0
1, 47396, Note_on_c, 1, 69, 0
1, 47400, Note_on_c, 0, 78, 85
1, 47400, Note_on_c, 0, 75, 85
1, 47410, Note_on_c, 0, 78, 0
1, 47410, Note_on_c, 0, 75, 0
1, 47424, Note_on_c, 0, 78, 85
1, 47424, Note_on_c, 0, 75, 85
1, 47424, Note_on_c, 1, 72, 85
1, 47424, Note_on_c, 1, 69, 85
1, 47469, Note_on_c, 0, 78, 0
1, 47469, Note_on_c, 0, 75, 0
1, 47469, Note_on_c, 1, 72, 0
1, 47469, Note_on_c, 1, 69, 0
1, 47616, Note_on_c, 0, 62, 77
1, 47616, Note_on_c, 0, 58, 85
1, 47616, Note_on_c, 1, 43, 77
1, 47661, Note_on_c, 1, 43, 0
1, 47664, Note_on_c, 1, 55, 77
1, 47709, Note_on_c, 1, 55, 0
1, 47712, Note_on_c, 1, 55, 77
1, 47749, Note_on_c, 0, 62, 0
1, 47749, Note_on_c, 0, 58, 0
1, 47757, Note_on_c, 1, 55, 0
1, 47760, Note_on_c, 0, 65, 77
1, 47760, Note_on_c, 0, 60, 85
1, 47760, Note_on_c, 1, 55, 77
1, 47772, Note_on_c, 0, 65, 0
1, 47772, Note_on_c, 0, 63, 77
1, 47805, Note_on_c, 0, 63, 0
1, 47805, Note_on_c, 0, 60, 0
1, 47805, Note_on_c, 1, 55, 0
1, 47808, Note_on_c, 0, 62, 77
1, 47808, Note_on_c, 0, 58, 85
1, 47808, Note_on_c, 1, 55, 77
1, 47853, Note_on_c, 0, 62, 0
1, 47856, Note_on_c, 0, 67, 77
1, 47876, Note_on_c, 0, 67, 0
1, 47897, Note_on_c, 0, 58, 0
1, 47897, Note_on_c, 1, 55, 0
1, 47904, Note_on_c, 0, 58, 77
1, 47904, Note_on_c, 0, 55, 85
1, 47949, Note_on_c, 0, 58, 0
1, 47949, Note_on_c, 0, 55, 0
1, 47952, Note_on_c, 0, 62, 77
1, 47952, Note_on_c, 0, 57, 85
1, 47964, Note_on_c, 0, 62, 0
1, 47964, Note_on_c, 0, 60, 77
1, 47997, Note_on_c, 0, 60, 0
1, 47997, Note_on_c, 0, 57, 0
1, 48000, Note_on_c, 0, 58, 77
1, 48000, Note_on_c, 0, 55, 85
1, 48024, Note_on_c, 1, 43, 77
1, 48045, Note_on_c, 0, 58, 0
1, 48045, Note_on_c, 0, 55, 0
1, 48047, Note_on_c, 1, 43, 0
1, 48048, Note_on_c, 0, 62, 77
1, 48048, Note_on_c, 0, 58, 85
1, 48048, Note_on_c, 1, 46, 77
1, 48071, Note_on_c, 1, 46, 0
1, 48072, Note_on_c, 1, 50, 77
1, 48093, Note_on_c, 0, 62, 0
1, 48093, Note_on_c, 0, 58, 0
1, 48095, Note_on_c, 1, 50, 0
1, 48096, Note_on_c, 1, 55, 77
1, 48120, Note_on_c, 0, 58, 77
1, 48141, Note_on_c, 1, 55, 0
1, 48143, Note_on_c, 0, 58, 0
1, 48144, Note_on_c, 0, 62, 77
1, 48167, Note_on_c, 0, 62, 0
1, 48168, Note_on_c, 0, 67, 77
1, 48191, Note_on_c, 0, 67, 0
1, 48192, Note_on_c, 0, 70, 77
1, 48215, Note_on_c, 0, 70, 0
1, 48216, Note_on_c, 0, 67, 77
1, 48239, Note_on_c, 0, 67, 0
1, 48240, Note_on_c, 0, 70, 78
1, 48263, Note_on_c, 0, 70, 0
1, 48264, Note_on_c, 0, 74, 79
1, 48287, Note_on_c, 0, 74, 0
1, 48288, Note_on_c, 0, 79, 80
1, 48311, Note_on_c, 0, 79, 0
1, 48312, Note_on_c, 0, 74, 81
1, 48335, Note_on_c, 0, 74, 0
1, 48336, Note_on_c, 0, 70, 82
1, 48359, Note_on_c, 0, 70, 0
1, 48360, Note_on_c, 0, 67, 83
1, 48383, Note_on_c, 0, 67, 0
1, 48384, Note_on_c, 0, 69, 85
1, 48384, Note_on_c, 1, 43, 85
1, 48390, Note_on_c, 1, 49, 85
1, 48393, Note_on_c, 0, 73, 85
1, 48396, Note_on_c, 1, 52, 85
1, 48402, Note_on_c, 0, 76, 85
1, 48402, Note_on_c, 1, 55, 85
1, 48411, Note_on_c, 0, 81, 85
1, 48429, Note_on_c, 1, 55, 0
1, 48429, Note_on_c, 1, 52, 0
1, 48429, Note_on_c, 1, 49, 0
1, 48429, Note_on_c, 1, 43, 0
1, 48432, Note_on_c, 1, 57, 85
1, 48432, Note_on_c, 1, 55, 85
1, 48451, Note_on_c, 0, 81, 0
1, 48451, Note_on_c, 0, 76, 0
1, 48451, Note_on_c, 0, 73, 0
1, 48451, Note_on_c, 0, 69, 0
1, 48452, Note_on_c, 1, 57, 0
1, 48452, Note_on_c, 1, 55, 0
1, 48480, Note_on_c, 0, 64, 85
1, 48480, Note_on_c, 0, 61, 85
1, 48480, Note_on_c, 1, 57, 85
1, 48480, Note_on_c, 1, 55, 85
1, 48500, Note_on_c, 0, 64, 0
1, 48500, Note_on_c, 0, 61, 0
1, 48500, Note_on_c, 1, 57, 0
1, 48500, Note_on_c, 1, 55, 0
1, 48528, Note_on_c, 1, 57, 85
1, 48528, Note_on_c, 1, 55, 85
1, 48548, Note_on_c, 1, 57, 0
1, 48548, Note_on_c, 1, 55, 0
1, 48552, Note_on_c, 0, 64, 85
1, 48552, Note_on_c, 0, 61, 85
1, 48562, Note_on_c, 0, 64, 0
1, 48562, Note_on_c, 0, 61, 0
1, 48576, Note_on_c, 0, 64, 85
1, 48576, Note_on_c, 0, 61, 85
1, 48576, Note_on_c, 1, 57, 85
1, 48576, Note_on_c, 1, 55, 85
1, 48621, Note_on_c, 0, 64, 0
1, 48621, Note_on_c, 0, 61, 0
1, 48621, Note_on_c, 1, 57, 0
1, 48621, Note_on_c, 1, 55, 0
1, 48768, Note_on_c, 0, 74, 68
1, 48816, Note_on_c, 1, 69, 60
1, 48816, Note_on_c, 1, 65, 60
1, 48836, Note_on_c, 1, 69, 0
1, 48836, Note_on_c, 1, 65, 0
1, 48864, Note_on_c, 1, 69, 60
1, 48864, Note_on_c, 1, 65, 60
1, 48901, Note_on_c, 0, 74, 0
1, 48912, Note_on_c, 0, 77, 68
1, 48912, Note_on_c, 1, 69, 0
1, 48912, Note_on_c, 1, 65, 0
1, 48912, Note_on_c, 1, 70, 60
1, 48912, Note_on_c, 1, 67, 60
1, 48924, Note_on_c, 0, 77, 0
1, 48924, Note_on_c, 0, 76, 68
1, 48957, Note_on_c, 0, 76, 0
1, 48957, Note_on_c, 1, 70, 0
1, 48957, Note_on_c, 1, 67, 0
1, 48960, Note_on_c, 0, 74, 68
1, 48960, Note_on_c, 1, 69, 60
1, 48960, Note_on_c, 1, 65, 60
1, 49005, Note_on_c, 0, 74, 0
1, 49008, Note_on_c, 0, 81, 68
1, 49053, Note_on_c, 0, 81, 0
1, 49056, Note_on_c, 0, 74, 68
1, 49101, Note_on_c, 0, 74, 0
1, 49104, Note_on_c, 0, 77, 68
1, 49104, Note_on_c, 1, 69, 0
1, 49104, Note_on_c, 1, 65, 0
1, 49104, Note_on_c, 1, 70, 60
1, 49104, Note_on_c, 1, 67, 60
1, 49116, Note_on_c, 0, 77, 0
1, 49116, Note_on_c, 0, 75, 68
1, 49149, Note_on_c, 0, 75, 0
1, 49149, Note_on_c, 1, 70, 0
1, 49149, Note_on_c, 1, 67, 0
1, 49152, Note_on_c, 0, 74, 68
1, 49152, Note_on_c, 1, 69, 60
1, 49152, Note_on_c, 1, 65, 60
1, 49197, Note_on_c, 0, 74, 0
1, 49200, Note_on_c, 0, 81, 68
1, 49245, Note_on_c, 0, 81, 0
1, 49248, Note_on_c, 0, 74, 68
1, 49293, Note_on_c, 0, 74, 0
1, 49296, Note_on_c, 0, 77, 68
1, 49296, Note_on_c, 1, 69, 0
1, 49296, Note_on_c, 1, 65, 0
1, 49296, Note_on_c, 1, 70, 60
1, 49296, Note_on_c, 1, 67, 60
1, 49308, Note_on_c, 0, 77, 0
1, 49308, Note_on_c, 0, 76, 68
1, 49341, Note_on_c, 0, 76, 0
1, 49341, Note_on_c, 1, 70, 0
1, 49341, Note_on_c, 1, 67, 0
1, 49344, Note_on_c, 0, 74, 68
1, 49344, Note_on_c, 1, 69, 60
1, 49344, Note_on_c, 1, 65, 60
1, 49389, Note_on_c, 0, 74, 0
1, 49392, Note_on_c, 0, 77, 69
1, 49392, Note_on_c, 1, 69, 0
1, 49392, Note_on_c, 1, 65, 0
1, 49392, Note_on_c, 1, 70, 62
1, 49392, Note_on_c, 1, 67, 62
1, 49398, Note_on_c, 0, 77, 0
1, 49398, Note_on_c, 0, 75, 69
1, 49437, Note_on_c, 0, 75, 0
1, 49437, Note_on_c, 1, 70, 0
1, 49437, Note_on_c, 1, 67, 0
1, 49440, Note_on_c, 0, 74, 71
1, 49440, Note_on_c, 1, 69, 64
1, 49440, Note_on_c, 1, 65, 64
1, 49485, Note_on_c, 0, 74, 0
1, 49488, Note_on_c, 0, 77, 73
1, 49488, Note_on_c, 1, 69, 0
1, 49488, Note_on_c, 1, 65, 0
1, 49488, Note_on_c, 1, 70, 66
1, 49488, Note_on_c, 1, 67, 66
1, 49500, Note_on_c, 0, 77, 0
1, 49500, Note_on_c, 0, 76, 73
1, 49533, Note_on_c, 0, 76, 0
1, 49533, Note_on_c, 1, 70, 0
1, 49533, Note_on_c, 1, 67, 0
1, 49536, Note_on_c, 0, 74, 75
1, 49536, Note_on_c, 1, 66, 68
1, 49536, Note_on_c, 1, 69, 68
1, 49536, Note_on_c, 1, 72, 68
1, 49581, Note_on_c, 0, 74, 0
1, 49584, Note_on_c, 0, 77, 77
1, 49590, Note_on_c, 0, 77, 0
1, 49590, Note_on_c, 0, 75, 77
1, 49629, Note_on_c, 0, 75, 0
1, 49632, Note_on_c, 0, 74, 77
1, 49677, Note_on_c, 0, 74, 0
1, 49680, Note_on_c, 0, 81, 77
1, 49703, Note_on_c, 0, 81, 0
1, 49704, Note_on_c, 0, 79, 77
1, 49713, Note_on_c, 1, 72, 0
1, 49713, Note_on_c, 1, 69, 0
1, 49713, Note_on_c, 1, 66, 0
1, 49727, Note_on_c, 0, 79, 0
1, 49728, Note_on_c, 0, 78, 77
1, 49751, Note_on_c, 0, 78, 0
1, 49752, Note_on_c, 0, 75, 77
1, 49775, Note_on_c, 0, 75, 0
1, 49776, Note_on_c, 0, 74, 77
1, 49799, Note_on_c, 0, 74, 0
1, 49800, Note_on_c, 0, 75, 77
1, 49823, Note_on_c, 0, 75, 0
1, 49824, Note_on_c, 0, 74, 77
1, 49847, Note_on_c, 0, 74, 0
1, 49848, Note_on_c, 0, 72, 77
1, 49871, Note_on_c, 0, 72, 0
1, 49872, Note_on_c, 0, 70, 77
1, 49895, Note_on_c, 0, 70, 0
1, 49896, Note_on_c, 0, 69, 77
1, 49919, Note_on_c, 0, 69, 0
1, 49920, Note_on_c, 0, 67, 77
1, 49968, Note_on_c, 1, 62, 68
1, 49968, Note_on_c, 1, 58, 68
1, 49988, Note_on_c, 1, 62, 0
1, 49988, Note_on_c, 1, 58, 0
1, 50016, Note_on_c, 1, 62, 68
1, 50016, Note_on_c, 1, 58, 68
1, 50053, Note_on_c, 0, 67, 0
1, 50064, Note_on_c, 0, 70, 77
1, 50064, Note_on_c, 1, 62, 0
1, 50064, Note_on_c, 1, 58, 0
1, 50064, Note_on_c, 1, 63, 68
1, 50064, Note_on_c, 1, 60, 68
1, 50076, Note_on_c, 0, 70, 0
1, 50076, Note_on_c, 0, 69, 77
1, 50109, Note_on_c, 0, 69, 0
1, 50109, Note_on_c, 1, 63, 0
1, 50109, Note_on_c, 1, 60, 0
1, 50112, Note_on_c, 0, 67, 77
1, 50112, Note_on_c, 1, 62, 68
1, 50112, Note_on_c, 1, 58, 68
1, 50157, Note_on_c, 0, 67, 0
1, 50160, Note_on_c, 0, 74, 77
1, 50205, Note_on_c, 0, 74, 0
1, 50208, Note_on_c, 0, 67, 77
1, 50253, Note_on_c, 0, 67, 0
1, 50256, Note_on_c, 0, 70, 77
1, 50256, Note_on_c, 1, 62, 0
1, 50256, Note_on_c, 1, 58, 0
1, 50256, Note_on_c, 1, 63, 68
1, 50256, Note_on_c, 1, 60, 68
1, 50268, Note_on_c, 0, 70, 0
1, 50268, Note_on_c, 0, 68, 77
1, 50301, Note_on_c, 0, 68, 0
1, 50301, Note_on_c, 1, 63, 0
1, 50301, Note_on_c, 1, 60, 0
1, 50304, Note_on_c, 0, 67, 77
1, 50304, Note_on_c, 1, 62, 68
1, 50304, Note_on_c, 1, 58, 68
1, 50349, Note_on_c, 0, 67, 0
1, 50352, Note_on_c, 0, 74, 77
1, 50397, Note_on_c, 0, 74, 0
1, 50400, Note_on_c, 0, 67, 78
1, 50445, Note_on_c, 0, 67, 0
1, 50448, Note_on_c, 0, 70, 79
1, 50448, Note_on_c, 1, 62, 0
1, 50448, Note_on_c, 1, 58, 0
1, 50448, Note_on_c, 1, 63, 68
1, 50448, Note_on_c, 1, 60, 68
1, 50460, Note_on_c, 0, 70, 0
1, 50460, Note_on_c, 0, 69, 79
1, 50493, Note_on_c, 0, 69, 0
1, 50493, Note_on_c, 1, 63, 0
1, 50493, Note_on_c, 1, 60, 0
1, 50496, Note_on_c, 0, 67, 80
1, 50496, Note_on_c, 1, 62, 69
1, 50496, Note_on_c, 1, 58, 69
1, 50541, Note_on_c, 0, 67, 0
1, 50544, Note_on_c, 0, 70, 81
1, 50544, Note_on_c, 1, 62, 0
1, 50544, Note_on_c, 1, 58, 0
1, 50544, Note_on_c, 1, 63, 71
1, 50544, Note_on_c, 1, 60, 71
1, 50556, Note_on_c, 0, 70, 0
1, 50556, Note_on_c, 0, 68, 81
1, 50589, Note_on_c, 0, 68, 0
1, 50589, Note_on_c, 1, 63, 0
1, 50589, Note_on_c, 1, 60, 0
1, 50592, Note_on_c, 0, 67, 82
1, 50592, Note_on_c, 1, 62, 73
1, 50592, Note_on_c, 1, 58, 73
1, 50637, Note_on_c, 0, 67, 0
1, 50640, Note_on_c, 0, 70, 83
1, 50640, Note_on_c, 1, 62, 0
1, 50640, Note_on_c, 1, 58, 0
1, 50640, Note_on_c, 1, 63, 75
1, 50640, Note_on_c, 1, 60, 75
1, 50652, Note_on_c, 0, 70, 0
1, 50652, Note_on_c, 0, 69, 83
1, 50685, Note_on_c, 0, 69, 0
1, 50685, Note_on_c, 1, 63, 0
1, 50685, Note_on_c, 1, 60, 0
1, 50688, Note_on_c, 0, 67, 84
1, 50688, Note_on_c, 1, 65, 77
1, 50688, Note_on_c, 1, 62, 77
1, 50688, Note_on_c, 1, 59, 77
1, 50733, Note_on_c, 0, 67, 0
1, 50736, Note_on_c, 0, 70, 85
1, 50748, Note_on_c, 0, 70, 0
1, 50748, Note_on_c, 0, 68, 85
1, 50781, Note_on_c, 0, 68, 0
1, 50784, Note_on_c, 0, 67, 85
1, 50829, Note_on_c, 0, 67, 0
1, 50832, Note_on_c, 0, 77, 85
1, 50855, Note_on_c, 0, 77, 0
1, 50856, Note_on_c, 0, 75, 84
1, 50865, Note_on_c, 1, 65, 0
1, 50865, Note_on_c, 1, 62, 0
1, 50865, Note_on_c, 1, 59, 0
1, 50879, Note_on_c, 0, 75, 0
1, 50880, Note_on_c, 0, 74, 83
1, 50903, Note_on_c, 0, 74, 0
1, 50904, Note_on_c, 0, 72, 82
1, 50927, Note_on_c, 0, 72, 0
1, 50928, Note_on_c, 0, 71, 81
1, 50951, Note_on_c, 0, 71, 0
1, 50952, Note_on_c, 0, 68, 81
1, 50975, Note_on_c, 0, 68, 0
1, 50976, Note_on_c, 0, 67, 80
1, 50999, Note_on_c, 0, 67, 0
1, 51000, Note_on_c, 0, 65, 79
1, 51023, Note_on_c, 0, 65, 0
1, 51024, Note_on_c, 0, 63, 78
1, 51047, Note_on_c, 0, 63, 0
1, 51048, Note_on_c, 0, 62, 77
1, 51071, Note_on_c, 0, 62, 0
1, 51072, Note_on_c, 1, 63, 77
1, 51072, Note_on_c, 1, 60, 77
1, 51096, Note_on_c, 0, 67, 77
1, 51119, Note_on_c, 0, 67, 0
1, 51120, Note_on_c, 0, 72, 78
1, 51143, Note_on_c, 0, 72, 0
1, 51144, Note_on_c, 0, 75, 79
1, 51167, Note_on_c, 0, 75, 0
1, 51168, Note_on_c, 0, 79, 80
1, 51191, Note_on_c, 0, 79, 0
1, 51192, Note_on_c, 0, 72, 81
1, 51215, Note_on_c, 0, 72, 0
1, 51216, Note_on_c, 0, 75, 82
1, 51239, Note_on_c, 0, 75, 0
1, 51240, Note_on_c, 0, 79, 83
1, 51263, Note_on_c, 0, 79, 0
1, 51264, Note_on_c, 0, 84, 85
1, 51287, Note_on_c, 0, 84, 0
1, 51288, Note_on_c, 0, 79, 84
1, 51311, Note_on_c, 0, 79, 0
1, 51312, Note_on_c, 0, 75, 83
1, 51335, Note_on_c, 0, 75, 0
1, 51336, Note_on_c, 0, 72, 82
1, 51359, Note_on_c, 0, 72, 0
1, 51360, Note_on_c, 0, 79, 81
1, 51383, Note_on_c, 0, 79, 0
1, 51384, Note_on_c, 0, 75, 80
1, 51407, Note_on_c, 0, 75, 0
1, 51408, Note_on_c, 0, 72, 79
1, 51426, Note_on_c, 1, 63, 0
1, 51426, Note_on_c, 1, 60, 0
1, 51431, Note_on_c, 0, 72, 0
1, 51432, Note_on_c, 0, 67, 78
1, 51455, Note_on_c, 0, 67, 0
1, 51456, Note_on_c, 1, 64, 77
1, 51456, Note_on_c, 1, 60, 77
1, 51456, Note_on_c, 1, 58, 77
1, 51480, Note_on_c, 0, 67, 77
1, 51503, Note_on_c, 0, 67, 0
1, 51504, Note_on_c, 0, 72, 78
1, 51527, Note_on_c, 0, 72, 0
1, 51528, Note_on_c, 0, 76, 79
1, 51551, Note_on_c, 0, 76, 0
1, 51552, Note_on_c, 0, 79, 80
1, 51575, Note_on_c, 0, 79, 0
1, 51576, Note_on_c, 0, 72, 81
1, 51599, Note_on_c, 0, 72, 0
1, 51600, Note_on_c, 0, 76, 82
1, 51623, Note_on_c, 0, 76, 0
1, 51624, Note_on_c, 0, 79, 83
1, 51647, Note_on_c, 0, 79, 0
1, 51648, Note_on_c, 0, 84, 85
1, 51671, Note_on_c, 0, 84, 0
1, 51672, Note_on_c, 0, 79, 84
1, 51695, Note_on_c, 0, 79, 0
1, 51696, Note_on_c, 0, 76, 83
1, 51719, Note_on_c, 0, 76, 0
1, 51720, Note_on_c, 0, 72, 82
1, 51743, Note_on_c, 0, 72, 0
1, 51744, Note_on_c, 0, 79, 81
1, 51767, Note_on_c, 0, 79, 0
1, 51768, Note_on_c, 0, 76, 80
1, 51791, Note_on_c, 0, 76, 0
1, 51792, Note_on_c, 0, 72, 79
1, 51810, Note_on_c, 1, 64, 0
1, 51810, Note_on_c, 1, 60, 0
1, 51810, Note_on_c, 1, 58, 0
1, 51815, Note_on_c, 0, 72, 0
1, 51816, Note_on_c, 0, 67, 78
1, 51839, Note_on_c, 0, 67, 0
1, 51840, Note_on_c, 1, 64, 77
1, 51840, Note_on_c, 1, 61, 77
1, 51840, Note_on_c, 1, 57, 77
1, 51864, Note_on_c, 0, 67, 77
1, 51887, Note_on_c, 0, 67, 0
1, 51888, Note_on_c, 0, 73, 78
1, 51911, Note_on_c, 0, 73, 0
1, 51912, Note_on_c, 0, 76, 79
1, 51935, Note_on_c, 0, 76, 0
1, 51936, Note_on_c, 0, 79, 80
1, 51959, Note_on_c, 0, 79, 0
1, 51960, Note_on_c, 0, 76, 81
1, 51983, Note_on_c, 0, 76, 0
1, 51984, Note_on_c, 0, 79, 82
1, 52007, Note_on_c, 0, 79, 0
1, 52008, Note_on_c, 0, 85, 83
1, 52031, Note_on_c, 0, 85, 0
1, 52032, Note_on_c, 0, 88, 85
1, 52055, Note_on_c, 0, 88, 0
1, 52056, Note_on_c, 0, 85, 84
1, 52079, Note_on_c, 0, 85, 0
1, 52080, Note_on_c, 0, 79, 83
1, 52103, Note_on_c, 0, 79, 0
1, 52104, Note_on_c, 0, 76, 82
1, 52127, Note_on_c, 0, 76, 0
1, 52128, Note_on_c, 0, 79, 81
1, 52151, Note_on_c, 0, 79, 0
1, 52152, Note_on_c, 0, 76, 80
1, 52175, Note_on_c, 0, 76, 0
1, 52176, Note_on_c, 0, 73, 79
1, 52194, Note_on_c, 1, 64, 0
1, 52194, Note_on_c, 1, 61, 0
1, 52194, Note_on_c, 1, 57, 0
1, 52199, Note_on_c, 0, 73, 0
1, 52200, Note_on_c, 0, 67, 78
1, 52223, Note_on_c, 0, 67, 0
1, 52224, Note_on_c, 1, 65, 77
1, 52224, Note_on_c, 1, 62, 77
1, 52224, Note_on_c, 1, 57, 77
1, 52248, Note_on_c, 0, 69, 77
1, 52271, Note_on_c, 0, 69, 0
1, 52272, Note_on_c, 0, 74, 78
1, 52295, Note_on_c, 0, 74, 0
1, 52296, Note_on_c, 0, 77, 79
1, 52319, Note_on_c, 0, 77, 0
1, 52320, Note_on_c, 0, 81, 80
1, 52343, Note_on_c, 0, 81, 0
1, 52344, Note_on_c, 0, 74, 81
1, 52367, Note_on_c, 0, 74, 0
1, 52368, Note_on_c, 0, 77, 82
1, 52391, Note_on_c, 0, 77, 0
1, 52392, Note_on_c, 0, 81, 83
1, 52415, Note_on_c, 0, 81, 0
1, 52416, Note_on_c, 0, 86, 85
1, 52439, Note_on_c, 0, 86, 0
1, 52440, Note_on_c, 0, 81, 84
1, 52463, Note_on_c, 0, 81, 0
1, 52464, Note_on_c, 0, 77, 83
1, 52487, Note_on_c, 0, 77, 0
1, 52488, Note_on_c, 0, 74, 82
1, 52511, Note_on_c, 0, 74, 0
1, 52512, Note_on_c, 0, 81, 81
1, 52535, Note_on_c, 0, 81, 0
1, 52536, Note_on_c, 0, 77, 80
1, 52559, Note_on_c, 0, 77, 0
1, 52560, Note_on_c, 0, 74, 79
1, 52578, Note_on_c, 1, 65, 0
1, 52578, Note_on_c, 1, 62, 0
1, 52578, Note_on_c, 1, 57, 0
1, 52583, Note_on_c, 0, 74, 0
1, 52584, Note_on_c, 0, 69, 78
1, 52607, Note_on_c, 0, 69, 0
1, 52608, Note_on_c, 1, 64, 77
1, 52608, Note_on_c, 1, 61, 77
1, 52608, Note_on_c, 1, 57, 77
1, 52632, Note_on_c, 0, 69, 77
1, 52655, Note_on_c, 0, 69, 0
1, 52656, Note_on_c, 0, 73, 78
1, 52679, Note_on_c, 0, 73, 0
1, 52680, Note_on_c, 0, 76, 79
1, 52703, Note_on_c, 0, 76, 0
1, 52704, Note_on_c, 0, 81, 80
1, 52727, Note_on_c, 0, 81, 0
1, 52728, Note_on_c, 0, 76, 81
1, 52751, Note_on_c, 0, 76, 0
1, 52752, Note_on_c, 0, 73, 82
1, 52775, Note_on_c, 0, 73, 0
1, 52776, Note_on_c, 0, 69, 83
1, 52799, Note_on_c, 0, 69, 0
1, 52800, Note_on_c, 0, 76, 85
1, 52823, Note_on_c, 0, 76, 0
1, 52824, Note_on_c, 0, 73, 84
1, 52847, Note_on_c, 0, 73, 0
1, 52848, Note_on_c, 0, 69, 83
1, 52871, Note_on_c, 0, 69, 0
1, 52872, Note_on_c, 0, 64, 82
1, 52895, Note_on_c, 0, 64, 0
1, 52896, Note_on_c, 0, 69, 81
1, 52919, Note_on_c, 0, 69, 0
1, 52920, Note_on_c, 0, 64, 80
1, 52943, Note_on_c, 0, 64, 0
1, 52944, Note_on_c, 0, 61, 79
1, 52962, Note_on_c, 1, 64, 0
1, 52962, Note_on_c, 1, 61, 0
1, 52962, Note_on_c, 1, 57, 0
1, 52967, Note_on_c, 0, 61, 0
1, 52968, Note_on_c, 0, 57, 78
1, 52991, Note_on_c, 0, 57, 0
1, 52992, Note_on_c, 1, 33, 77
1, 53169, Note_on_c, 1, 33, 0
1, 53424, Note_on_c, 0, 62, 85
1, 53436, Note_on_c, 0, 62, 0
1, 53436, Note_on_c, 0, 65, 85
1, 53442, Note_on_c, 0, 65, 0
1, 53442, Note_on_c, 0, 69, 85
1, 53448, Note_on_c, 0, 69, 0
1, 53448, Note_on_c, 0, 74, 85
1, 53454, Note_on_c, 0, 74, 0
1, 53454, Note_on_c, 0, 77, 85
1, 53460, Note_on_c, 0, 77, 0
1, 53460, Note_on_c, 0, 81, 85
1, 53466, Note_on_c, 0, 81, 0
1, 53466, Note_on_c, 0, 85, 85
1, 53472, Note_on_c, 0, 85, 0
1, 53472, Note_on_c, 0, 86, 101
1, 53488, Note_on_c, 0, 86, 0
1, 53488, Note_on_c, 0, 81, 85
1, 53503, Note_on_c, 0, 81, 0
1, 53504, Note_on_c, 0, 77, 85
1, 53519, Note_on_c, 0, 77, 0
1, 53520, Note_on_c, 0, 82, 85
1, 53520, Note_on_c, 0, 67, 85
1, 53535, Note_on_c, 0, 82, 0
1, 53536, Note_on_c, 0, 79, 85
1, 53551, Note_on_c, 0, 79, 0
1, 53552, Note_on_c, 0, 74, 85
1, 53567, Note_on_c, 0, 74, 0
1, 53568, Note_on_c, 0, 81, 85
1, 53568, Note_on_c, 0, 67, 0
1, 53568, Note_on_c, 0, 65, 85
1, 53588, Note_on_c, 0, 81, 0
1, 53588, Note_on_c, 0, 65, 0
1, 53616, Note_on_c, 0, 62, 85
1, 53628, Note_on_c, 0, 62, 0
1, 53628, Note_on_c, 0, 65, 85
1, 53634, Note_on_c, 0, 65, 0
1, 53634, Note_on_c, 0, 69, 85
1, 53640, Note_on_c, 0, 69, 0
1, 53640, Note_on_c, 0, 74, 85
1, 53646, Note_on_c, 0, 74, 0
1, 53646, Note_on_c, 0, 77, 85
1, 53652, Note_on_c, 0, 77, 0
1, 53652, Note_on_c, 0, 81, 85
1, 53658, Note_on_c, 0, 81, 0
1, 53658, Note_on_c, 0, 85, 85
1, 53664, Note_on_c, 0, 85, 0
1, 53664, Note_on_c, 0, 86, 101
1, 53680, Note_on_c, 0, 86, 0
1, 53680, Note_on_c, 0, 81, 85
1, 53695, Note_on_c, 0, 81, 0
1, 53696, Note_on_c, 0, 77, 85
1, 53711, Note_on_c, 0, 77, 0
1, 53712, Note_on_c, 0, 82, 85
1, 53712, Note_on_c, 0, 67, 85
1, 53727, Note_on_c, 0, 82, 0
1, 53728, Note_on_c, 0, 79, 85
1, 53743, Note_on_c, 0, 79, 0
1, 53744, Note_on_c, 0, 74, 85
1, 53759, Note_on_c, 0, 74, 0
1, 53760, Note_on_c, 0, 81, 85
1, 53760, Note_on_c, 0, 67, 0
1, 53760, Note_on_c, 0, 65, 85
1, 53780, Note_on_c, 0, 81, 0
1, 53780, Note_on_c, 0, 65, 0
1, 53808, Note_on_c, 0, 62, 85
1, 53820, Note_on_c, 0, 62, 0
1, 53820, Note_on_c, 0, 65, 85
1, 53826, Note_on_c, 0, 65, 0
1, 53826, Note_on_c, 0, 69, 85
1, 53832, Note_on_c, 0, 69, 0
1, 53832, Note_on_c, 0, 74, 85
1, 53838, Note_on_c, 0, 74, 0
1, 53838, Note_on_c, 0, 77, 85
1, 53844, Note_on_c, 0, 77, 0
1, 53844, Note_on_c, 0, 81, 85
1, 53850, Note_on_c, 0, 81, 0
1, 53850, Note_on_c, 0, 85, 85
1, 53856, Note_on_c, 0, 85, 0
1, 53856, Note_on_c, 0, 86, 101
1, 53872, Note_on_c, 0, 86, 0
1, 53872, Note_on_c, 0, 81, 85
1, 53887, Note_on_c, 0, 81, 0
1, 53888, Note_on_c, 0, 77, 85
1, 53903, Note_on_c, 0, 77, 0
1, 53904, Note_on_c, 0, 84, 85
1, 53904, Note_on_c, 0, 66, 85
1, 53919, Note_on_c, 0, 84, 0
1, 53920, Note_on_c, 0, 81, 85
1, 53935, Note_on_c, 0, 81, 0
1, 53936, Note_on_c, 0, 74, 85
1, 53951, Note_on_c, 0, 74, 0
1, 53952, Note_on_c, 0, 82, 85
1, 53952, Note_on_c, 0, 66, 0
1, 53952, Note_on_c, 0, 67, 85
1, 53972, Note_on_c, 0, 82, 0
1, 53972, Note_on_c, 0, 67, 0
1, 54144, Note_on_c, 1, 55, 77
1, 54167, Note_on_c, 1, 55, 0
1, 54168, Note_on_c, 1, 58, 77
1, 54191, Note_on_c, 1, 58, 0
1, 54192, Note_on_c, 1, 63, 77
1, 54215, Note_on_c, 1, 63, 0
1, 54216, Note_on_c, 1, 67, 77
1, 54239, Note_on_c, 1, 67, 0
1, 54240, Note_on_c, 0, 70, 85
1, 54263, Note_on_c, 0, 70, 0
1, 54264, Note_on_c, 0, 74, 85
1, 54287, Note_on_c, 0, 74, 0
1, 54288, Note_on_c, 0, 75, 85
1, 54311, Note_on_c, 0, 75, 0
1, 54312, Note_on_c, 0, 79, 85
1, 54335, Note_on_c, 0, 79, 0
1, 54336, Note_on_c, 0, 82, 85
1, 54359, Note_on_c, 0, 82, 0
1, 54360, Note_on_c, 0, 81, 85
1, 54383, Note_on_c, 0, 81, 0
1, 54384, Note_on_c, 0, 79, 85
1, 54407, Note_on_c, 0, 79, 0
1, 54408, Note_on_c, 0, 77, 85
1, 54431, Note_on_c, 0, 77, 0
1, 54432, Note_on_c, 0, 75, 85
1, 54455, Note_on_c, 0, 75, 0
1, 54456, Note_on_c, 0, 82, 85
1, 54479, Note_on_c, 0, 82, 0
1, 54480, Note_on_c, 0, 75, 85
1, 54480, Note_on_c, 1, 67, 77
1, 54503, Note_on_c, 0, 75, 0
1, 54504, Note_on_c, 0, 82, 85
1, 54525, Note_on_c, 1, 67, 0
1, 54527, Note_on_c, 0, 82, 0
1, 54528, Note_on_c, 0, 75, 85
1, 54528, Note_on_c, 1, 67, 77
1, 54551, Note_on_c, 0, 75, 0
1, 54552, Note_on_c, 0, 82, 85
1, 54573, Note_on_c, 1, 67, 0
1, 54575, Note_on_c, 0, 82, 0
1, 54576, Note_on_c, 0, 74, 85
1, 54576, Note_on_c, 1, 67, 77
1, 54599, Note_on_c, 0, 74, 0
1, 54600, Note_on_c, 0, 82, 85
1, 54621, Note_on_c, 1, 67, 0
1, 54623, Note_on_c, 0, 82, 0
1, 54624, Note_on_c, 0, 75, 85
1, 54624, Note_on_c, 1, 67, 77
1, 54647, Note_on_c, 0, 75, 0
1, 54648, Note_on_c, 0, 82, 85
1, 54669, Note_on_c, 1, 67, 0
1, 54671, Note_on_c, 0, 82, 0
1, 54672, Note_on_c, 0, 74, 85
1, 54672, Note_on_c, 1, 67, 77
1, 54695, Note_on_c, 0, 74, 0
1, 54696, Note_on_c, 0, 82, 85
1, 54717, Note_on_c, 1, 67, 0
1, 54719, Note_on_c, 0, 82, 0
1, 54720, Tempo, 1333333
1, 54720, Note_on_c, 0, 73, 85
1, 54720, Note_on_c, 1, 67, 77
1, 54740, Note_on_c, 0, 73, 0
1, 54768, Note_on_c, 0, 82, 85
1, 54788, Note_on_c, 0, 82, 0
1, 54809, Note_on_c, 1, 67, 0
1, 54912, Tempo, 666666
1, 54912, Note_on_c, 1, 41, 77
1, 54960, Note_on_c, 0, 86, 85
1, 54980, Note_on_c, 0, 86, 0
1, 55001, Note_on_c, 1, 41, 0
1, 55008, Note_on_c, 0, 89, 85
1, 55028, Note_on_c, 0, 89, 0
1, 55056, Note_on_c, 1, 41, 77
1, 55076, Note_on_c, 1, 41, 0
1, 55104, Note_on_c, 1, 43, 77
1, 55124, Note_on_c, 1, 43, 0
1, 55152, Note_on_c, 0, 70, 85
1, 55172, Note_on_c, 0, 70, 0
1, 55200, Note_on_c, 1, 45, 77
1, 55220, Note_on_c, 1, 45, 0
1, 55248, Note_on_c, 0, 61, 85
1, 55268, Note_on_c, 0, 61, 0
1, 55296, Note_on_c, 1, 46, 77
1, 55344, Note_on_c, 0, 86, 85
1, 55364, Note_on_c, 0, 86, 0
1, 55385, Note_on_c, 1, 46, 0
1, 55392, Note_on_c, 0, 89, 85
1, 55412, Note_on_c, 0, 89, 0
1, 55440, Note_on_c, 1, 41, 77
1, 55460, Note_on_c, 1, 41, 0
1, 55488, Note_on_c, 1, 43, 77
1, 55508, Note_on_c, 1, 43, 0
1, 55536, Note_on_c, 0, 70, 85
1, 55556, Note_on_c, 0, 70, 0
1, 55584, Note_on_c, 1, 45, 77
1, 55604, Note_on_c, 1, 45, 0
1, 55632, Note_on_c, 0, 61, 85
1, 55652, Note_on_c, 0, 61, 0
1, 55680, Note_on_c, 1, 38, 77
1, 55728, Note_on_c, 0, 62, 51
1, 55748, Note_on_c, 0, 62, 0
1, 55769, Note_on_c, 1, 38, 0
1, 55776, Note_on_c, 0, 62, 51
1, 55796, Note_on_c, 0, 62, 0
1, 55824, Note_on_c, 0, 62, 52
1, 55844, Note_on_c, 0, 62, 0
1, 55872, Note_on_c, 0, 62, 52
1, 55892, Note_on_c, 0, 62, 0
1, 55920, Note_on_c, 0, 62, 53
1, 55940, Note_on_c, 0, 62, 0
1, 55968, Note_on_c, 0, 62, 53
1, 55988, Note_on_c, 0, 62, 0
1, 56016, Note_on_c, 0, 62, 54
1, 56036, Note_on_c, 0, 62, 0
1, 56064, Note_on_c, 1, 63, 57
1, 56064, Note_on_c, 1, 60, 57
1, 56084, Note_on_c, 1, 63, 0
1, 56084, Note_on_c, 1, 60, 0
1, 56112, Note_on_c, 0, 62, 55
1, 56132, Note_on_c, 0, 62, 0
1, 56160, Note_on_c, 1, 63, 60
1, 56160, Note_on_c, 1, 60, 60
1, 56180, Note_on_c, 1, 63, 0
1, 56180, Note_on_c, 1, 60, 0
1, 56208, Note_on_c, 0, 62, 56
1, 56228, Note_on_c, 0, 62, 0
1, 56256, Note_on_c, 1, 63, 62
1, 56256, Note_on_c, 1, 60, 62
1, 56276, Note_on_c, 1, 63, 0
1, 56276, Note_on_c, 1, 60, 0
1, 56304, Note_on_c, 0, 62, 57
1, 56324, Note_on_c, 0, 62, 0
1, 56352, Note_on_c, 1, 63, 64
1, 56352, Note_on_c, 1, 60, 64
1, 56372, Note_on_c, 1, 63, 0
1, 56372, Note_on_c, 1, 60, 0
1, 56400, Note_on_c, 0, 62, 58
1, 56420, Note_on_c, 0, 62, 0
1, 56448, Note_on_c, 1, 63, 66
1, 56448, Note_on_c, 1, 60, 66
1, 56458, Note_on_c, 1, 63, 0
1, 56458, Note_on_c, 1, 60, 0
1, 56472, Note_on_c, 0, 62, 59
1, 56482, Note_on_c, 0, 62, 0
1, 56496, Note_on_c, 1, 63, 68
1, 56496, Note_on_c, 1, 60, 68
1, 56506, Note_on_c, 1, 63, 0
1, 56506, Note_on_c, 1, 60, 0
1, 56520, Note_on_c, 0, 62, 60
1, 56530, Note_on_c, 0, 62, 0
1, 56544, Note_on_c, 1, 63, 69
1, 56544, Note_on_c, 1, 60, 69
1, 56554, Note_on_c, 1, 63, 0
1, 56554, Note_on_c, 1, 60, 0
1, 56568, Note_on_c, 0, 62, 60
1, 56578, Note_on_c, 0, 62, 0
1, 56592, Note_on_c, 1, 63, 70
1, 56592, Note_on_c, 1, 60, 70
1, 56602, Note_on_c, 1, 63, 0
1, 56602, Note_on_c, 1, 60, 0
1, 56616, Note_on_c, 0, 62, 61
1, 56626, Note_on_c, 0, 62, 0
1, 56640, Note_on_c, 1, 66, 71
1, 56640, Note_on_c, 1, 57, 71
1, 56650, Note_on_c, 1, 66, 0
1, 56650, Note_on_c, 1, 57, 0
1, 56664, Note_on_c, 0, 62, 61
1, 56674, Note_on_c, 0, 62, 0
1, 56688, Note_on_c, 1, 66, 72
1, 56688, Note_on_c, 1, 57, 72
1, 56698, Note_on_c, 1, 66, 0
1, 56698, Note_on_c, 1, 57, 0
1, 56712, Note_on_c, 0, 62, 62
1, 56722, Note_on_c, 0, 62, 0
1, 56736, Note_on_c, 1, 66, 73
1, 56736, Note_on_c, 1, 57, 73
1, 56746, Note_on_c, 1, 66, 0
1, 56746, Note_on_c, 1, 57, 0
1, 56760, Note_on_c, 0, 62, 62
1, 56770, Note_on_c, 0, 62, 0
1, 56784, Note_on_c, 1, 66, 74
1, 56784, Note_on_c, 1, 57, 74
1, 56794, Note_on_c, 1, 66, 0
1, 56794, Note_on_c, 1, 57, 0
1, 56808, Note_on_c, 0, 62, 63
1, 56818, Note_on_c, 0, 62, 0
1, 56832, Note_on_c, 1, 67, 75
1, 56832, Note_on_c, 1, 58, 75
1, 56842, Note_on_c, 1, 67, 0
1, 56842, Note_on_c, 1, 58, 0
1, 56856, Note_on_c, 0, 62, 63
1, 56866, Note_on_c, 0, 62, 0
1, 56880, Note_on_c, 1, 67, 77
1, 56880, Note_on_c, 1, 58, 77
1, 56890, Note_on_c, 1, 67, 0
1, 56890, Note_on_c, 1, 58, 0
1, 56904, Note_on_c, 0, 62, 64
1, 56914, Note_on_c, 0, 62, 0
1, 56928, Note_on_c, 1, 67, 78
1, 56928, Note_on_c, 1, 58, 78
1, 56938, Note_on_c, 1, 67, 0
1, 56938, Note_on_c, 1, 58, 0
1, 56952, Note_on_c, 0, 62, 64
1, 56962, Note_on_c, 0, 62, 0
1, 56976, Note_on_c, 1, 67, 79
1, 56976, Note_on_c, 1, 58, 79
1, 56986, Note_on_c, 1, 67, 0
1, 56986, Note_on_c, 1, 58, 0
1, 57000, Note_on_c, 0, 62, 65
1, 57010, Note_on_c, 0, 62, 0
1, 57024, Note_on_c, 1, 64, 80
1, 57024, Note_on_c, 1, 58, 80
1, 57034, Note_on_c, 1, 64, 0
1, 57034, Note_on_c, 1, 58, 0
1, 57048, Note_on_c, 0, 60, 66
1, 57058, Note_on_c, 0, 60, 0
1, 57072, Note_on_c, 1, 64, 81
1, 57072, Note_on_c, 1, 58, 81
1, 57082, Note_on_c, 1, 64, 0
1, 57082, Note_on_c, 1, 58, 0
1, 57096, Note_on_c, 0, 60, 66
1, 57106, Note_on_c, 0, 60, 0
1, 57120, Note_on_c, 1, 64, 82
1, 57120, Note_on_c, 1, 58, 82
1, 57130, Note_on_c, 1, 64, 0
1, 57130, Note_on_c, 1, 58, 0
1, 57144, Note_on_c, 0, 60, 67
1, 57154, Note_on_c, 0, 60, 0
1, 57168, Note_on_c, 1, 64, 83
1, 57168, Note_on_c, 1, 58, 83
1, 57178, Note_on_c, 1, 64, 0
1, 57178, Note_on_c, 1, 58, 0
1, 57192, Note_on_c, 0, 60, 67
1, 57202, Note_on_c, 0, 60, 0
1, 57216, Note_on_c, 0, 57, 85
1, 57216, Note_on_c, 1, 41, 85
1, 57222, Note_on_c, 1, 45, 85
1, 57224, Note_on_c, 0, 60, 85
1, 57228, Note_on_c, 1, 48, 85
1, 57232, Note_on_c, 0, 65, 85
1, 57234, Note_on_c, 1, 53, 85
1, 57261, Note_on_c, 0, 65, 0
1, 57261, Note_on_c, 0, 60, 0
1, 57261, Note_on_c, 0, 57, 0
1, 57261, Note_on_c, 1, 53, 0
1, 57261, Note_on_c, 1, 48, 0
1, 57261, Note_on_c, 1, 45, 0
1, 57261, Note_on_c, 1, 41, 0
1, 57264, Note_on_c, 1, 53, 85
1, 57284, Note_on_c, 1, 53, 0
1, 57312, Note_on_c, 0, 60, 85
1, 57312, Note_on_c, 0, 57, 85
1, 57312, Note_on_c, 1, 53, 85
1, 57332, Note_on_c, 0, 60, 0
1, 57332, Note_on_c, 0, 57, 0
1, 57332, Note_on_c, 1, 53, 0
1, 57360, Note_on_c, 1, 53, 85
1, 57380, Note_on_c, 1, 53, 0
1, 57384, Note_on_c, 0, 60, 85
1, 57384, Note_on_c, 0, 57, 85
1, 57394, Note_on_c, 0, 60, 0
1, 57394, Note_on_c, 0, 57, 0
1, 57408, Note_on_c, 0, 60, 85
1, 57408, Note_on_c, 0, 57, 85
1, 57408, Note_on_c, 1, 53, 85
1, 57428, Note_on_c, 1, 53, 0
1, 57453, Note_on_c, 0, 60, 0
1, 57453, Note_on_c, 0, 57, 0
1, 57456, Note_on_c, 1, 53, 83
1, 57476, Note_on_c, 1, 53, 0
1, 57504, Note_on_c, 1, 53, 81
1, 57524, Note_on_c, 1, 53, 0
1, 57552, Note_on_c, 1, 53, 79
1, 57572, Note_on_c, 1, 53, 0
1, 57600, Note_on_c, 0, 72, 77
1, 57600, Note_on_c, 0, 69, 85
1, 57600, Note_on_c, 1, 53, 77
1, 57620, Note_on_c, 1, 53, 0
1, 57648, Note_on_c, 1, 53, 77
1, 57668, Note_on_c, 1, 53, 0
1, 57696, Note_on_c, 1, 53, 77
1, 57716, Note_on_c, 1, 53, 0
1, 57741, Note_on_c, 0, 72, 0
1, 57744, Note_on_c, 0, 76, 77
1, 57744, Note_on_c, 0, 69, 0
1, 57744, Note_on_c, 0, 70, 85
1, 57744, Note_on_c, 1, 53, 77
1, 57756, Note_on_c, 0, 76, 0
1, 57756, Note_on_c, 0, 74, 77
1, 57764, Note_on_c, 1, 53, 0
1, 57789, Note_on_c, 0, 74, 0
1, 57789, Note_on_c, 0, 70, 0
1, 57792, Note_on_c, 0, 72, 77
1, 57792, Note_on_c, 0, 69, 85
1, 57792, Note_on_c, 1, 53, 77
1, 57812, Note_on_c, 1, 53, 0
1, 57840, Note_on_c, 0, 72, 0
1, 57840, Note_on_c, 0, 77, 77
1, 57840, Note_on_c, 1, 53, 77
1, 57860, Note_on_c, 0, 77, 0
1, 57860, Note_on_c, 1, 53, 0
1, 57881, Note_on_c, 0, 69, 0
1, 57888, Note_on_c, 0, 69, 77
1, 57888, Note_on_c, 0, 65, 85
1, 57888, Note_on_c, 1, 53, 77
1, 57908, Note_on_c, 1, 53, 0
1, 57933, Note_on_c, 0, 69, 0
1, 57936, Note_on_c, 0, 72, 77
1, 57936, Note_on_c, 0, 65, 0
1, 57936, Note_on_c, 0, 67, 85
1, 57936, Note_on_c, 1, 53, 77
1, 57948, Note_on_c, 0, 72, 0
1, 57948, Note_on_c, 0, 70, 77
1, 57956, Note_on_c, 1, 53, 0
1, 57981, Note_on_c, 0, 70, 0
1, 57981, Note_on_c, 0, 67, 0
1, 57984, Note_on_c, 0, 69, 77
1, 57984, Note_on_c, 0, 65, 85
1, 57984, Note_on_c, 1, 53, 77
1, 58029, Note_on_c, 1, 53, 0
1, 58032, Note_on_c, 0, 69, 0
1, 58032, Note_on_c, 0, 72, 77
1, 58032, Note_on_c, 0, 65, 0
1, 58032, Note_on_c, 0, 69, 85
1, 58052, Note_on_c, 0, 72, 0
1, 58052, Note_on_c, 0, 69, 0
1, 58080, Note_on_c, 0, 65, 77
1, 58080, Note_on_c, 1, 60, 77
1, 58080, Note_on_c, 1, 57, 77
1, 58100, Note_on_c, 0, 65, 0
1, 58100, Note_on_c, 1, 60, 0
1, 58100, Note_on_c, 1, 57, 0
1, 58128, Note_on_c, 0, 65, 77
1, 58128, Note_on_c, 1, 60, 77
1, 58128, Note_on_c, 1, 57, 77
1, 58148, Note_on_c, 0, 65, 0
1, 58148, Note_on_c, 1, 60, 0
1, 58148, Note_on_c, 1, 57, 0
1, 58176, Note_on_c, 0, 65, 77
1, 58176, Note_on_c, 1, 60, 77
1, 58176, Note_on_c, 1, 57, 77
1, 58316, Note_on_c, 0, 65, 0
1, 58316, Note_on_c, 1, 60, 0
1, 58316, Note_on_c, 1, 57, 0
1, 58320, Note_on_c, 0, 69, 77
1, 58320, Note_on_c, 1, 58, 77
1, 58320, Note_on_c, 1, 48, 77
1, 58332, Note_on_c, 0, 69, 0
1, 58332, Note_on_c, 0, 67, 77
1, 58365, Note_on_c, 0, 67, 0
1, 58365, Note_on_c, 1, 58, 0
1, 58365, Note_on_c, 1, 48, 0
1, 58368, Note_on_c, 0, 65, 77
1, 58368, Note_on_c, 1, 57, 77
1, 58368, Note_on_c, 1, 53, 77
1, 58388, Note_on_c, 0, 65, 0
1, 58413, Note_on_c, 1, 57, 0
1, 58413, Note_on_c, 1, 53, 0
1, 58464, Note_on_c, 1, 45, 77
1, 58464, Note_on_c, 1, 41, 77
1, 58484, Note_on_c, 1, 45, 0
1, 58484, Note_on_c, 1, 41, 0
1, 58536, Note_on_c, 1, 45, 77
1, 58536, Note_on_c, 1, 41, 77
1, 58546, Note_on_c, 1, 45, 0
1, 58546, Note_on_c, 1, 41, 0
1, 58560, Note_on_c, 1, 45, 77
1, 58560, Note_on_c, 1, 41, 77
1, 58605, Note_on_c, 1, 45, 0
1, 58605, Note_on_c, 1, 41, 0
1, 58656, Note_on_c, 0, 72, 68
1, 58656, Note_on_c, 0, 69, 68
1, 58701, Note_on_c, 0, 72, 0
1, 58701, Note_on_c, 0, 69, 0
1, 58704, Note_on_c, 0, 76, 68
1, 58716, Note_on_c, 0, 76, 0
1, 58716, Note_on_c, 0, 74, 68
1, 58716, Note_on_c, 0, 70, 68
1, 58749, Note_on_c, 0, 74, 0
1, 58749, Note_on_c, 0, 70, 0
1, 58752, Note_on_c, 0, 72, 68
1, 58752, Note_on_c, 0, 69, 68
1, 58797, Note_on_c, 0, 72, 0
1, 58800, Note_on_c, 0, 77, 68
1, 58820, Note_on_c, 0, 77, 0
1, 58841, Note_on_c, 0, 69, 0
1, 58848, Note_on_c, 0, 72, 68
1, 58848, Note_on_c, 0, 69, 68
1, 58848, Note_on_c, 1, 65, 68
1, 58893, Note_on_c, 0, 72, 0
1, 58893, Note_on_c, 0, 69, 0
1, 58893, Note_on_c, 1, 65, 0
1, 58896, Note_on_c, 0, 77, 70
1, 58896, Note_on_c, 0, 72, 71
1, 58896, Note_on_c, 1, 66, 70
1, 58908, Note_on_c, 0, 77, 0
1, 58908, Note_on_c, 0, 75, 70
1, 58941, Note_on_c, 0, 75, 0
1, 58941, Note_on_c, 1, 66, 0
1, 58944, Note_on_c, 0, 74, 72
1, 58944, Note_on_c, 1, 67, 72
1, 58989, Note_on_c, 0, 72, 0
1, 58989, Note_on_c, 1, 67, 0
1, 58992, Note_on_c, 0, 71, 77
1, 58992, Note_on_c, 1, 55, 74
1, 59033, Note_on_c, 0, 74, 0
1, 59037, Note_on_c, 0, 71, 0
1, 59037, Note_on_c, 1, 55, 0
1, 59040, Note_on_c, 0, 74, 77
1, 59040, Note_on_c, 0, 71, 77
1, 59085, Note_on_c, 0, 74, 0
1, 59085, Note_on_c, 0, 71, 0
1, 59088, Note_on_c, 0, 77, 77
1, 59088, Note_on_c, 0, 72, 77
1, 59100, Note_on_c, 0, 77, 0
1, 59100, Note_on_c, 0, 76, 77
1, 59133, Note_on_c, 0, 76, 0
1, 59133, Note_on_c, 0, 72, 0
1, 59136, Note_on_c, 0, 74, 77
1, 59136, Note_on_c, 0, 71, 77
1, 59181, Note_on_c, 0, 74, 0
1, 59184, Note_on_c, 0, 79, 77
1, 59204, Note_on_c, 0, 79, 0
1, 59225, Note_on_c, 0, 71, 0
1, 59232, Note_on_c, 0, 74, 77
1, 59232, Note_on_c, 0, 71, 77
1, 59232, Note_on_c, 1, 67, 77
1, 59277, Note_on_c, 0, 74, 0
1, 59277, Note_on_c, 0, 71, 0
1, 59277, Note_on_c, 1, 67, 0
1, 59280, Note_on_c, 0, 79, 79
1, 59280, Note_on_c, 0, 74, 79
1, 59280, Note_on_c, 1, 68, 79
1, 59292, Note_on_c, 0, 79, 0
1, 59292, Note_on_c, 0, 77, 79
1, 59325, Note_on_c, 0, 77, 0
1, 59325, Note_on_c, 1, 68, 0
1, 59328, Note_on_c, 0, 76, 81
1, 59328, Note_on_c, 1, 69, 81
1, 59373, Note_on_c, 1, 69, 0
1, 59376, Note_on_c, 0, 74, 0
1, 59376, Note_on_c, 0, 73, 85
1, 59376, Note_on_c, 1, 57, 83
1, 59417, Note_on_c, 0, 76, 0
1, 59421, Note_on_c, 0, 73, 0
1, 59421, Note_on_c, 1, 57, 0
1, 59424, Note_on_c, 0, 81, 85
1, 59424, Note_on_c, 0, 73, 85
1, 59424, Note_on_c, 1, 57, 85
1, 59469, Note_on_c, 0, 73, 0
1, 59469, Note_on_c, 1, 57, 0
1, 59472, Note_on_c, 0, 81, 0
1, 59472, Note_on_c, 0, 80, 85
1, 59472, Note_on_c, 0, 74, 85
1, 59472, Note_on_c, 1, 60, 85
1, 59484, Note_on_c, 1, 60, 0
1, 59484, Note_on_c, 1, 58, 85
1, 59517, Note_on_c, 0, 80, 0
1, 59517, Note_on_c, 0, 74, 0
1, 59517, Note_on_c, 1, 58, 0
1, 59520, Note_on_c, 0, 81, 85
1, 59520, Note_on_c, 0, 73, 85
1, 59520, Note_on_c, 1, 57, 85
1, 59565, Note_on_c, 1, 57, 0
1, 59568, Note_on_c, 1, 69, 85
1, 59609, Note_on_c, 0, 73, 0
1, 59613, Note_on_c, 1, 69, 0
1, 59616, Note_on_c, 1, 74, 77
1, 59616, Note_on_c, 1, 70, 77
1, 59653, Note_on_c, 0, 81, 0
1, 59664, Note_on_c, 0, 79, 77
1, 59705, Note_on_c, 1, 74, 0
1, 59705, Note_on_c, 1, 70, 0
1, 59712, Note_on_c, 1, 74, 77
1, 59712, Note_on_c, 1, 69, 77
1, 59753, Note_on_c, 0, 79, 0
1, 59760, Note_on_c, 0, 78, 77
1, 59801, Note_on_c, 1, 69, 0
1, 59805, Note_on_c, 0, 78, 0
1, 59808, Note_on_c, 0, 84, 77
1, 59808, Note_on_c, 1, 66, 77
1, 59845, Note_on_c, 1, 74, 0
1, 59856, Note_on_c, 1, 75, 77
1, 59897, Note_on_c, 1, 66, 0
1, 59904, Note_on_c, 1, 67, 77
1, 59949, Note_on_c, 0, 84, 0
1, 59949, Note_on_c, 1, 75, 0
1, 59952, Note_on_c, 0, 82, 77
1, 59952, Note_on_c, 1, 74, 77
1, 59993, Note_on_c, 1, 67, 0
1, 59997, Note_on_c, 1, 74, 0
1, 60000, Note_on_c, 1, 75, 77
1, 60000, Note_on_c, 1, 72, 77
1, 60041, Note_on_c, 0, 82, 0
1, 60048, Note_on_c, 0, 81, 77
1, 60089, Note_on_c, 1, 75, 0
1, 60089, Note_on_c, 1, 72, 0
1, 60096, Note_on_c, 1, 74, 77
1, 60096, Note_on_c, 1, 70, 77
1, 60137, Note_on_c, 0, 81, 0
1, 60144, Note_on_c, 0, 79, 77
1, 60185, Note_on_c, 1, 74, 0
1, 60185, Note_on_c, 1, 70, 0
1, 60189, Note_on_c, 0, 79, 0
1, 60192, Note_on_c, 0, 82, 77
1, 60192, Note_on_c, 1, 64, 77
1, 60240, Note_on_c, 1, 73, 77
1, 60281, Note_on_c, 1, 64, 0
1, 60288, Note_on_c, 1, 65, 77
1, 60333, Note_on_c, 0, 82, 0
1, 60333, Note_on_c, 1, 73, 0
1, 60336, Note_on_c, 0, 81, 77
1, 60336, Note_on_c, 1, 72, 77
1, 60377, Note_on_c, 1, 65, 0
1, 60381, Note_on_c, 1, 72, 0
1, 60384, Note_on_c, 1, 73, 77
1, 60384, Note_on_c, 1, 70, 77
1, 60425, Note_on_c, 0, 81, 0
1, 60432, Note_on_c, 0, 79, 77
1, 60473, Note_on_c, 1, 73, 0
1, 60473, Note_on_c, 1, 70, 0
1, 60480, Note_on_c, 1, 72, 77
1, 60480, Note_on_c, 1, 69, 77
1, 60521, Note_on_c, 0, 79, 0
1, 60528, Note_on_c, 0, 77, 77
1, 60569, Note_on_c, 1, 72, 0
1, 60569, Note_on_c, 1, 69, 0
1, 60573, Note_on_c, 0, 77, 0
1, 60576, Note_on_c, 0, 84, 77
1, 60599, Note_on_c, 0, 84, 0
1, 60600, Note_on_c, 0, 81, 77
1, 60623, Note_on_c, 0, 81, 0
1, 60624, Note_on_c, 0, 79, 77
1, 60624, Note_on_c, 1, 72, 68
1, 60624, Note_on_c, 1, 69, 68
1, 60647, Note_on_c, 0, 79, 0
1, 60648, Note_on_c, 0, 77, 77
1, 60669, Note_on_c, 1, 72, 0
1, 60669, Note_on_c, 1, 69, 0
1, 60671, Note_on_c, 0, 77, 0
1, 60672, Note_on_c, 0, 81, 77
1, 60672, Note_on_c, 1, 74, 68
1, 60672, Note_on_c, 1, 70, 68
1, 60684, Note_on_c, 0, 81, 0
1, 60684, Note_on_c, 0, 79, 77
1, 60720, Note_on_c, 0, 79, 0
1, 60720, Note_on_c, 0, 77, 77
1, 60720, Note_on_c, 1, 74, 0
1, 60720, Note_on_c, 1, 72, 68
1, 60720, Note_on_c, 1, 70, 0
1, 60720, Note_on_c, 1, 69, 68
1, 60765, Note_on_c, 0, 77, 0
1, 60765, Note_on_c, 1, 72, 0
1, 60765, Note_on_c, 1, 69, 0
1, 60768, Note_on_c, 0, 84, 77
1, 60791, Note_on_c, 0, 84, 0
1, 60792, Note_on_c, 0, 81, 77
1, 60815, Note_on_c, 0, 81, 0
1, 60816, Note_on_c, 0, 79, 77
1, 60816, Note_on_c, 1, 72, 68
1, 60816, Note_on_c, 1, 69, 68
1, 60839, Note_on_c, 0, 79, 0
1, 60840, Note_on_c, 0, 77, 77
1, 60861, Note_on_c, 1, 72, 0
1, 60861, Note_on_c, 1, 69, 0
1, 60863, Note_on_c, 0, 77, 0
1, 60864, Note_on_c, 0, 81, 77
1, 60864, Note_on_c, 1, 74, 68
1, 60864, Note_on_c, 1, 70, 68
1, 60876, Note_on_c, 0, 81, 0
1, 60876, Note_on_c, 0, 79, 77
1, 60912, Note_on_c, 0, 79, 0
1, 60912, Note_on_c, 0, 77, 77
1, 60912, Note_on_c, 1, 74, 0
1, 60912, Note_on_c, 1, 72, 68
1, 60912, Note_on_c, 1, 70, 0
1, 60912, Note_on_c, 1, 69, 68
1, 60957, Note_on_c, 0, 77, 0
1, 60957, Note_on_c, 1, 72, 0
1, 60957, Note_on_c, 1, 69, 0
1, 60960, Note_on_c, 0, 84, 77
1, 61008, Note_on_c, 1, 56, 77
1, 61056, Note_on_c, 0, 84, 0
1, 61056, Note_on_c, 0, 83, 77
1, 61056, Note_on_c, 1, 56, 0
1, 61056, Note_on_c, 1, 55, 77
1, 61101, Note_on_c, 0, 83, 0
1, 61101, Note_on_c, 1, 55, 0
1, 61104, Note_on_c, 0, 77, 77
1, 61104, Note_on_c, 1, 71, 77
1, 61152, Note_on_c, 0, 77, 0
1, 61152, Note_on_c, 0, 76, 77
1, 61152, Note_on_c, 1, 71, 0
1, 61152, Note_on_c, 1, 72, 77
1, 61197, Note_on_c, 0, 76, 0
1, 61197, Note_on_c, 1, 72, 0
1, 61200, Note_on_c, 0, 82, 77
1, 61200, Note_on_c, 1, 64, 77
1, 61248, Note_on_c, 0, 82, 0
1, 61248, Note_on_c, 0, 81, 77
1, 61248, Note_on_c, 1, 64, 0
1, 61248, Note_on_c, 1, 65, 77
1, 61293, Note_on_c, 0, 81, 0
1, 61293, Note_on_c, 1, 65, 0
1, 61296, Note_on_c, 0, 75, 77
1, 61296, Note_on_c, 1, 69, 77
1, 61344, Note_on_c, 0, 75, 0
1, 61344, Note_on_c, 0, 74, 77
1, 61344, Note_on_c, 1, 69, 0
1, 61344, Note_on_c, 1, 70, 77
1, 61389, Note_on_c, 0, 74, 0
1, 61392, Note_on_c, 0, 85, 77
1, 61433, Note_on_c, 1, 70, 0
1, 61440, Note_on_c, 0, 85, 0
1, 61440, Note_on_c, 0, 86, 77
1, 61440, Note_on_c, 1, 58, 77
1, 61485, Note_on_c, 0, 86, 0
1, 61488, Note_on_c, 0, 88, 77
1, 61498, Note_on_c, 0, 88, 0
1, 61498, Note_on_c, 0, 86, 77
1, 61508, Note_on_c, 0, 86, 0
1, 61508, Note_on_c, 0, 84, 77
1, 61518, Note_on_c, 0, 84, 0
1, 61518, Note_on_c, 0, 86, 77
1, 61527, Note_on_c, 0, 86, 0
1, 61527, Note_on_c, 0, 88, 77
1, 61529, Note_on_c, 1, 58, 0
1, 61536, Note_on_c, 0, 88, 0
1, 61536, Note_on_c, 0, 89, 77
1, 61581, Note_on_c, 0, 89, 0
1, 61584, Note_on_c, 0, 89, 77
1, 61629, Note_on_c, 0, 89, 0
1, 61632, Note_on_c, 0, 89, 77
1, 61652, Note_on_c, 0, 89, 0
1, 61680, Note_on_c, 1, 59, 77
1, 61700, Note_on_c, 1, 59, 0
1, 61728, Note_on_c, 0, 74, 77
1, 61748, Note_on_c, 0, 74, 0
1, 61776, Note_on_c, 1, 65, 77
1, 61796, Note_on_c, 1, 65, 0
1, 61824, Note_on_c, 0, 64, 77
1, 61844, Note_on_c, 0, 64, 0
1, 61872, Note_on_c, 1, 60, 77
1, 61892, Note_on_c, 1, 60, 0
1, 61920, Note_on_c, 0, 48, 77
1, 62009, Note_on_c, 0, 48, 0
1, 62256, Note_on_c, 1, 53, 85
1, 62268, Note_on_c, 1, 53, 0
1, 62268, Note_on_c, 1, 57, 85
1, 62274, Note_on_c, 1, 57, 0
1, 62274, Note_on_c, 1, 60, 85
1, 62280, Note_on_c, 0, 65, 85
1, 62280, Note_on_c, 1, 60, 0
1, 62286, Note_on_c, 0, 65, 0
1, 62286, Note_on_c, 0, 69, 85
1, 62292, Note_on_c, 0, 69, 0
1, 62292, Note_on_c, 0, 72, 85
1, 62298, Note_on_c, 0, 72, 0
1, 62298, Note_on_c, 0, 76, 85
1, 62304, Note_on_c, 0, 76, 0
1, 62304, Note_on_c, 0, 77, 101
1, 62320, Note_on_c, 0, 77, 0
1, 62320, Note_on_c, 0, 72, 85
1, 62335, Note_on_c, 0, 72, 0
1, 62336, Note_on_c, 0, 69, 85
1, 62351, Note_on_c, 0, 69, 0
1, 62352, Note_on_c, 0, 74, 85
1, 62352, Note_on_c, 1, 58, 85
1, 62367, Note_on_c, 0, 74, 0
1, 62368, Note_on_c, 0, 70, 85
1, 62383, Note_on_c, 0, 70, 0
1, 62384, Note_on_c, 0, 65, 85
1, 62399, Note_on_c, 0, 65, 0
1, 62400, Note_on_c, 0, 72, 85
1, 62400, Note_on_c, 1, 58, 0
1, 62400, Note_on_c, 1, 57, 85
1, 62420, Note_on_c, 0, 72, 0
1, 62420, Note_on_c, 1, 57, 0
1, 62448, Note_on_c, 1, 53, 85
1, 62460, Note_on_c, 1, 53, 0
1, 62460, Note_on_c, 1, 57, 85
1, 62466, Note_on_c, 1, 57, 0
1, 62466, Note_on_c, 1, 60, 85
1, 62472, Note_on_c, 0, 65, 85
1, 62472, Note_on_c, 1, 60, 0
1, 62478, Note_on_c, 0, 65, 0
1, 62478, Note_on_c, 0, 69, 85
1, 62484, Note_on_c, 0, 69, 0
1, 62484, Note_on_c, 0, 72, 85
1, 62490, Note_on_c, 0, 72, 0
1, 62490, Note_on_c, 0, 76, 85
1, 62496, Note_on_c, 0, 76, 0
1, 62496, Note_on_c, 0, 77, 101
1, 62512, Note_on_c, 0, 77, 0
1, 62512, Note_on_c, 0, 72, 85
1, 62527, Note_on_c, 0, 72, 0
1, 62528, Note_on_c, 0, 69, 85
1, 62543, Note_on_c, 0, 69, 0
1, 62544, Note_on_c, 0, 74, 85
1, 62544, Note_on_c, 1, 58, 85
1, 62559, Note_on_c, 0, 74, 0
1, 62560, Note_on_c, 0, 70, 85
1, 62575, Note_on_c, 0, 70, 0
1, 62576, Note_on_c, 0, 65, 85
1, 62591, Note_on_c, 0, 65, 0
1, 62592, Note_on_c, 0, 72, 85
1, 62592, Note_on_c, 1, 58, 0
1, 62592, Note_on_c, 1, 57, 85
1, 62612, Note_on_c, 0, 72, 0
1, 62612, Note_on_c, 1, 57, 0
1, 62640, Note_on_c, 1, 53, 85
1, 62652, Note_on_c, 1, 53, 0
1, 62652, Note_on_c, 1, 57, 85
1, 62658, Note_on_c, 1, 57, 0
1, 62658, Note_on_c, 1, 60, 85
1, 62664, Note_on_c, 0, 65, 85
1, 62664, Note_on_c, 1, 60, 0
1, 62670, Note_on_c, 0, 65, 0
1, 62670, Note_on_c, 0, 69, 85
1, 62676, Note_on_c, 0, 69, 0
1, 62676, Note_on_c, 0, 72, 85
1, 62682, Note_on_c, 0, 72, 0
1, 62682, Note_on_c, 0, 76, 85
1, 62688, Note_on_c, 0, 76, 0
1, 62688, Note_on_c, 0, 77, 101
1, 62704, Note_on_c, 0, 77, 0
1, 62704, Note_on_c, 0, 72, 85
1, 62719, Note_on_c, 0, 72, 0
1, 62720, Note_on_c, 0, 69, 85
1, 62735, Note_on_c, 0, 69, 0
1, 62736, Note_on_c, 0, 74, 85
1, 62736, Note_on_c, 1, 58, 85
1, 62751, Note_on_c, 0, 74, 0
1, 62752, Note_on_c, 0, 70, 85
1, 62767, Note_on_c, 0, 70, 0
1, 62768, Note_on_c, 0, 65, 85
1, 62783, Note_on_c, 0, 65, 0
1, 62784, Note_on_c, 0, 72, 85
1, 62784, Note_on_c, 1, 58, 0
1, 62784, Note_on_c, 1, 57, 85
1, 62804, Note_on_c, 0, 72, 0
1, 62804, Note_on_c, 1, 57, 0
1, 62832, Note_on_c, 0, 72, 85
1, 62838, Note_on_c, 0, 72, 0
1, 62838, Note_on_c, 0, 77, 85
1, 62844, Note_on_c, 0, 77, 0
1, 62844, Note_on_c, 0, 81, 85
1, 62878, Note_on_c, 0, 81, 0
1, 62880, Note_on_c, 0, 79, 85
1, 62892, Note_on_c, 0, 79, 0
1, 62892, Note_on_c, 0, 77, 85
1, 62926, Note_on_c, 0, 77, 0
1, 62928, Note_on_c, 0, 76, 85
1, 62940, Note_on_c, 0, 76, 0
1, 62940, Note_on_c, 0, 74, 85
1, 62974, Note_on_c, 0, 74, 0
1, 62976, Note_on_c, 0, 72, 85
1, 63024, Note_on_c, 0, 72, 0
1, 63024, Note_on_c, 0, 71, 83
1, 63069, Note_on_c, 0, 71, 0
1, 63072, Note_on_c, 0, 70, 81
1, 63120, Note_on_c, 1, 64, 85
1, 63161, Note_on_c, 0, 70, 0
1, 63168, Note_on_c, 0, 69, 77
1, 63168, Note_on_c, 1, 64, 0
1, 63168, Note_on_c, 1, 65, 85
1, 63213, Note_on_c, 0, 69, 0
1, 63213, Note_on_c, 1, 65, 0
1, 63216, Note_on_c, 0, 73, 77
1, 63216, Note_on_c, 1, 58, 85
1, 63228, Note_on_c, 0, 73, 0
1, 63228, Note_on_c, 0, 74, 77
1, 63261, Note_on_c, 1, 58, 0
1, 63262, Note_on_c, 0, 74, 0
1, 63264, Note_on_c, 0, 72, 77
1, 63276, Note_on_c, 0, 72, 0
1, 63276, Note_on_c, 0, 70, 77
1, 63310, Note_on_c, 0, 70, 0
1, 63312, Note_on_c, 0, 69, 77
1, 63324, Note_on_c, 0, 69, 0
1, 63324, Note_on_c, 0, 67, 77
1, 63358, Note_on_c, 0, 67, 0
1, 63360, Note_on_c, 0, 65, 77
1, 63408, Note_on_c, 1, 62, 77
1, 63408, Note_on_c, 1, 59, 77
1, 63456, Note_on_c, 1, 62, 0
1, 63456, Note_on_c, 1, 59, 0
1, 63456, Note_on_c, 1, 60, 77
1, 63493, Note_on_c, 0, 65, 0
1, 63501, Note_on_c, 1, 60, 0
1, 63504, Note_on_c, 0, 69, 70
1, 63504, Note_on_c, 1, 48, 77
1, 63516, Note_on_c, 0, 69, 0
1, 63516, Note_on_c, 0, 67, 70
1, 63549, Note_on_c, 0, 67, 0
1, 63549, Note_on_c, 1, 48, 0
1, 63552, Note_on_c, 0, 65, 68
1, 63552, Note_on_c, 1, 53, 77
1, 63572, Note_on_c, 0, 65, 0
1, 63572, Note_on_c, 1, 53, 0
1, 63600, Note_on_c, 1, 53, 85
1, 63612, Note_on_c, 1, 53, 0
1, 63612, Note_on_c, 1, 57, 85
1, 63618, Note_on_c, 1, 57, 0
1, 63618, Note_on_c, 1, 60, 85
1, 63624, Note_on_c, 0, 65, 85
1, 63624, Note_on_c, 1, 60, 0
1, 63630, Note_on_c, 0, 65, 0
1, 63630, Note_on_c, 0, 69, 85
1, 63636, Note_on_c, 0, 69, 0
1, 63636, Note_on_c, 0, 72, 85
1, 63642, Note_on_c, 0, 72, 0
1, 63642, Note_on_c, 0, 76, 85
1, 63648, Note_on_c, 0, 76, 0
1, 63648, Note_on_c, 0, 77, 101
1, 63664, Note_on_c, 0, 77, 0
1, 63664, Note_on_c, 0, 72, 85
1, 63679, Note_on_c, 0, 72, 0
1, 63680, Note_on_c, 0, 69, 85
1, 63695, Note_on_c, 0, 69, 0
1, 63696, Note_on_c, 0, 74, 85
1, 63696, Note_on_c, 1, 58, 85
1, 63711, Note_on_c, 0, 74, 0
1, 63712, Note_on_c, 0, 70, 85
1, 63727, Note_on_c, 0, 70, 0
1, 63728, Note_on_c, 0, 65, 85
1, 63743, Note_on_c, 0, 65, 0
1, 63744, Note_on_c, 0, 72, 85
1, 63744, Note_on_c, 1, 58, 0
1, 63744, Note_on_c, 1, 57, 85
1, 63764, Note_on_c, 0, 72, 0
1, 63764, Note_on_c, 1, 57, 0
1, 63792, Note_on_c, 1, 53, 85
1, 63804, Note_on_c, 1, 53, 0
1, 63804, Note_on_c, 1, 57, 85
1, 63810, Note_on_c, 1, 57, 0
1, 63810, Note_on_c, 1, 60, 85
1, 63816, Note_on_c, 0, 65, 85
1, 63816, Note_on_c, 1, 60, 0
1, 63822, Note_on_c, 0, 65, 0
1, 63822, Note_on_c, 0, 69, 85
1, 63828, Note_on_c, 0, 69, 0
1, 63828, Note_on_c, 0, 72, 85
1, 63834, Note_on_c, 0, 72, 0
1, 63834, Note_on_c, 0, 76, 85
1, 63840, Note_on_c, 0, 76, 0
1, 63840, Note_on_c, 0, 77, 101
1, 63856, Note_on_c, 0, 77, 0
1, 63856, Note_on_c, 0, 72, 85
1, 63871, Note_on_c, 0, 72, 0
1, 63872, Note_on_c, 0, 69, 85
1, 63887, Note_on_c, 0, 69, 0
1, 63888, Note_on_c, 0, 74, 85
1, 63888, Note_on_c, 1, 58, 85
1, 63903, Note_on_c, 0, 74, 0
1, 63904, Note_on_c, 0, 70, 85
1, 63919, Note_on_c, 0, 70, 0
1, 63920, Note_on_c, 0, 65, 85
1, 63935, Note_on_c, 0, 65, 0
1, 63936, Note_on_c, 0, 72, 85
1, 63936, Note_on_c, 1, 58, 0
1, 63936, Note_on_c, 1, 57, 85
1, 63956, Note_on_c, 0, 72, 0
1, 63956, Note_on_c, 1, 57, 0
1, 63984, Note_on_c, 1, 55, 85
1, 63996, Note_on_c, 1, 55, 0
1, 63996, Note_on_c, 1, 59, 85
1, 64002, Note_on_c, 1, 59, 0
1, 64002, Note_on_c, 1, 62, 85
1, 64008, Note_on_c, 0, 65, 85
1, 64008, Note_on_c, 1, 62, 0
1, 64014, Note_on_c, 0, 65, 0
1, 64014, Note_on_c, 0, 67, 85
1, 64020, Note_on_c, 0, 67, 0
1, 64020, Note_on_c, 0, 71, 85
1, 64026, Note_on_c, 0, 71, 0
1, 64026, Note_on_c, 0, 74, 85
1, 64032, Note_on_c, 0, 74, 0
1, 64032, Note_on_c, 0, 77, 101
1, 64052, Note_on_c, 0, 77, 0
1, 64080, Note_on_c, 0, 72, 85
1, 64080, Note_on_c, 1, 67, 85
1, 64080, Note_on_c, 1, 65, 85
1, 64088, Note_on_c, 0, 72, 0
1, 64088, Note_on_c, 0, 71, 85
1, 64096, Note_on_c, 0, 71, 0
1, 64096, Note_on_c, 0, 72, 85
1, 64104, Note_on_c, 0, 72, 0
1, 64104, Note_on_c, 0, 71, 85
1, 64112, Note_on_c, 0, 71, 0
1, 64112, Note_on_c, 0, 69, 85
1, 64120, Note_on_c, 0, 69, 0
1, 64120, Note_on_c, 0, 71, 85
1, 64125, Note_on_c, 1, 67, 0
1, 64125, Note_on_c, 1, 65, 0
1, 64128, Note_on_c, 0, 71, 0
1, 64128, Note_on_c, 0, 72, 85
1, 64128, Note_on_c, 1, 67, 85
1, 64128, Note_on_c, 1, 64, 85
1, 64148, Note_on_c, 0, 72, 0
1, 64148, Note_on_c, 1, 67, 0
1, 64148, Note_on_c, 1, 64, 0
1, 64176, Note_on_c, 1, 60, 85
1, 64184, Note_on_c, 1, 60, 0
1, 64184, Note_on_c, 1, 64, 85
1, 64192, Note_on_c, 1, 64, 0
1, 64192, Note_on_c, 1, 67, 85
1, 64200, Note_on_c, 0, 70, 85
1, 64200, Note_on_c, 1, 67, 0
1, 64208, Note_on_c, 0, 70, 0
1, 64208, Note_on_c, 0, 72, 85
1, 64216, Note_on_c, 0, 72, 0
1, 64216, Note_on_c, 0, 76, 85
1, 64224, Note_on_c, 0, 76, 0
1, 64224, Note_on_c, 0, 79, 101
1, 64244, Note_on_c, 0, 79, 0
1, 64272, Note_on_c, 0, 72, 85
1, 64272, Note_on_c, 1, 67, 85
1, 64272, Note_on_c, 1, 64, 85
1, 64280, Note_on_c, 0, 72, 0
1, 64280, Note_on_c, 0, 70, 85
1, 64288, Note_on_c, 0, 70, 0
1, 64288, Note_on_c, 0, 72, 85
1, 64296, Note_on_c, 0, 72, 0
1, 64296, Note_on_c, 0, 70, 85
1, 64304, Note_on_c, 0, 70, 0
1, 64304, Note_on_c, 0, 69, 85
1, 64312, Note_on_c, 0, 69, 0
1, 64312, Note_on_c, 0, 70, 85
1, 64317, Note_on_c, 1, 67, 0
1, 64317, Note_on_c, 1, 64, 0
1, 64320, Note_on_c, 0, 70, 0
1, 64320, Note_on_c, 0, 69, 85
1, 64320, Note_on_c, 1, 65, 85
1, 64365, Note_on_c, 0, 69, 0
1, 64365, Note_on_c, 1, 65, 0
1, 64368, Note_on_c, 1, 58, 85
1, 64376, Note_on_c, 1, 58, 0
1, 64376, Note_on_c, 1, 62, 85
1, 64384, Note_on_c, 1, 62, 0
1, 64384, Note_on_c, 1, 66, 85
1, 64392, Note_on_c, 0, 67, 85
1, 64392, Note_on_c, 1, 66, 0
1, 64400, Note_on_c, 0, 67, 0
1, 64400, Note_on_c, 0, 69, 85
1, 64408, Note_on_c, 0, 69, 0
1, 64408, Note_on_c, 0, 70, 85
1, 64416, Note_on_c, 0, 70, 0
1, 64416, Note_on_c, 0, 74, 101
1, 64436, Note_on_c, 0, 74, 0
1, 64464, Note_on_c, 0, 67, 85
1, 64464, Note_on_c, 1, 62, 85
1, 64464, Note_on_c, 1, 59, 85
1, 64472, Note_on_c, 0, 67, 0
1, 64472, Note_on_c, 0, 65, 85
1, 64480, Note_on_c, 0, 65, 0
1, 64480, Note_on_c, 0, 67, 85
1, 64488, Note_on_c, 0, 67, 0
1, 64488, Note_on_c, 0, 65, 85
1, 64496, Note_on_c, 0, 65, 0
1, 64496, Note_on_c, 0, 64, 85
1, 64504, Note_on_c, 0, 64, 0
1, 64504, Note_on_c, 0, 65, 85
1, 64509, Note_on_c, 1, 62, 0
1, 64509, Note_on_c, 1, 59, 0
1, 64512, Note_on_c, 0, 65, 0
1, 64512, Note_on_c, 0, 64, 85
1, 64512, Note_on_c, 1, 60, 85
1, 64532, Note_on_c, 0, 64, 0
1, 64557, Note_on_c, 1, 60, 0
1, 64560, Note_on_c, 0, 60, 60
1, 64580, Note_on_c, 0, 60, 0
1, 64608, Note_on_c, 0, 60, 61
1, 64628, Note_on_c, 0, 60, 0
1, 64656, Note_on_c, 0, 60, 62
1, 64676, Note_on_c, 0, 60, 0
1, 64704, Note_on_c, 0, 60, 63
1, 64724, Note_on_c, 0, 60, 0
1, 64752, Note_on_c, 0, 60, 65
1, 64772, Note_on_c, 0, 60, 0
1, 64800, Note_on_c, 0, 60, 66
1, 64820, Note_on_c, 0, 60, 0
1, 64848, Note_on_c, 0, 60, 67
1, 64868, Note_on_c, 0, 60, 0
1, 64896, Note_on_c, 1, 61, 69
1, 64896, Note_on_c, 1, 58, 69
1, 64916, Note_on_c, 1, 61, 0
1, 64916, Note_on_c, 1, 58, 0
1, 64944, Note_on_c, 0, 60, 70
1, 64964, Note_on_c, 0, 60, 0
1, 64992, Note_on_c, 1, 61, 71
1, 64992, Note_on_c, 1, 58, 71
1, 65012, Note_on_c, 1, 61, 0
1, 65012, Note_on_c, 1, 58, 0
1, 65040, Note_on_c, 0, 60, 73
1, 65060, Note_on_c, 0, 60, 0
1, 65088, Note_on_c, 1, 61, 74
1, 65088, Note_on_c, 1, 58, 74
1, 65108, Note_on_c, 1, 61, 0
1, 65108, Note_on_c, 1, 58, 0
1, 65136, Note_on_c, 0, 60, 75
1, 65156, Note_on_c, 0, 60, 0
1, 65184, Note_on_c, 1, 61, 77
1, 65184, Note_on_c, 1, 58, 77
1, 65204, Note_on_c, 1, 61, 0
1, 65204, Note_on_c, 1, 58, 0
1, 65232, Note_on_c, 0, 60, 78
1, 65252, Note_on_c, 0, 60, 0
1, 65280, Note_on_c, 1, 61, 79
1, 65280, Note_on_c, 1, 58, 79
1, 65290, Note_on_c, 1, 61, 0
1, 65290, Note_on_c, 1, 58, 0
1, 65304, Note_on_c, 0, 60, 80
1, 65314, Note_on_c, 0, 60, 0
1, 65328, Note_on_c, 1, 61, 81
1, 65328, Note_on_c, 1, 58, 81
1, 65338, Note_on_c, 1, 61, 0
1, 65338, Note_on_c, 1, 58, 0
1, 65352, Note_on_c, 0, 60, 81
1, 65362, Note_on_c, 0, 60, 0
1, 65376, Note_on_c, 1, 61, 82
1, 65376, Note_on_c, 1, 58, 82
1, 65386, Note_on_c, 1, 61, 0
1, 65386, Note_on_c, 1, 58, 0
1, 65400, Note_on_c, 0, 60, 83
1, 65410, Note_on_c, 0, 60, 0
1, 65424, Note_on_c, 1, 61, 83
1, 65424, Note_on_c, 1, 58, 83
1, 65434, Note_on_c, 1, 61, 0
1, 65434, Note_on_c, 1, 58, 0
1, 65448, Note_on_c, 0, 60, 84
1, 65458, Note_on_c, 0, 60, 0
1, 65472, Note_on_c, 1, 61, 85
1, 65472, Note_on_c, 1, 58, 85
1, 65482, Note_on_c, 1, 61, 0
1, 65482, Note_on_c, 1, 58, 0
1, 65496, Note_on_c, 0, 60, 85
1, 65506, Note_on_c, 0, 60, 0
1, 65520, Note_on_c, 1, 61, 85
1, 65520, Note_on_c, 1, 58, 85
1, 65530, Note_on_c, 1, 61, 0
1, 65530, Note_on_c, 1, 58, 0
1, 65544, Note_on_c, 0, 60, 85
1, 65554, Note_on_c, 0, 60, 0
1, 65568, Note_on_c, 1, 61, 85
1, 65568, Note_on_c, 1, 58, 85
1, 65578, Note_on_c, 1, 61, 0
1, 65578, Note_on_c, 1, 58, 0
1, 65592, Note_on_c, 0, 60, 85
1, 65602, Note_on_c, 0, 60, 0
1, 65616, Note_on_c, 1, 61, 85
1, 65616, Note_on_c, 1, 58, 85
1, 65626, Note_on_c, 1, 61, 0
1, 65626, Note_on_c, 1, 58, 0
1, 65640, Note_on_c, 0, 60, 85
1, 65650, Note_on_c, 0, 60, 0
1, 65664, Note_on_c, 1, 61, 85
1, 65664, Note_on_c, 1, 58, 85
1, 65664, Note_on_c, 1, 55, 85
1, 65680, Note_on_c, 0, 64, 85
1, 65695, Note_on_c, 0, 64, 0
1, 65696, Note_on_c, 0, 65, 85
1, 65711, Note_on_c, 0, 65, 0
1, 65712, Note_on_c, 0, 67, 85
1, 65727, Note_on_c, 0, 67, 0
1, 65728, Note_on_c, 0, 65, 85
1, 65743, Note_on_c, 0, 65, 0
1, 65744, Note_on_c, 0, 64, 85
1, 65759, Note_on_c, 0, 64, 0
1, 65760, Note_on_c, 0, 70, 85
1, 65775, Note_on_c, 0, 70, 0
1, 65776, Note_on_c, 0, 68, 85
1, 65791, Note_on_c, 0, 68, 0
1, 65792, Note_on_c, 0, 67, 85
1, 65807, Note_on_c, 0, 67, 0
1, 65808, Note_on_c, 0, 73, 85
1, 65823, Note_on_c, 0, 73, 0
1, 65824, Note_on_c, 0, 72, 85
1, 65839, Note_on_c, 0, 72, 0
1, 65840, Note_on_c, 0, 70, 85
1, 65855, Note_on_c, 0, 70, 0
1, 65856, Note_on_c, 0, 79, 85
1, 65876, Note_on_c, 0, 79, 0
1, 65904, Note_on_c, 0, 70, 83
1, 65924, Note_on_c, 0, 70, 0
1, 65952, Note_on_c, 0, 73, 81
1, 65972, Note_on_c, 0, 73, 0
1, 66000, Note_on_c, 0, 64, 79
1, 66018, Note_on_c, 1, 61, 0
1, 66018, Note_on_c, 1, 58, 0
1, 66018, Note_on_c, 1, 55, 0
1, 66020, Note_on_c, 0, 64, 0
1, 66048, Note_on_c, 0, 67, 77
1, 66048, Note_on_c, 1, 60, 77
1, 66048, Note_on_c, 1, 57, 77
1, 66071, Note_on_c, 0, 67, 0
1, 66072, Note_on_c, 0, 65, 81
1, 66095, Note_on_c, 0, 65, 0
1, 66096, Note_on_c, 0, 71, 85
1, 66119, Note_on_c, 0, 71, 0
1, 66120, Note_on_c, 0, 72, 89
1, 66137, Note_on_c, 1, 60, 0
1, 66137, Note_on_c, 1, 57, 0
1, 66143, Note_on_c, 0, 72, 0
1, 66144, Note_on_c, 0, 70, 93
1, 66167, Note_on_c, 0, 70, 0
1, 66168, Note_on_c, 0, 69, 91
1, 66191, Note_on_c, 0, 69, 0
1, 66192, Note_on_c, 0, 67, 89
1, 66192, Note_on_c, 1, 57, 77
1, 66215, Note_on_c, 0, 67, 0
1, 66216, Note_on_c, 0, 65, 87
1, 66239, Note_on_c, 0, 65, 0
1, 66240, Note_on_c, 0, 66, 85
1, 66240, Note_on_c, 1, 57, 0
1, 66240, Note_on_c, 1, 58, 77
1, 66263, Note_on_c, 0, 66, 0
1, 66264, Note_on_c, 0, 67, 98
1, 66287, Note_on_c, 0, 67, 0
1, 66288, Note_on_c, 0, 70, 112
1, 66311, Note_on_c, 0, 70, 0
1, 66312, Note_on_c, 0, 67, 126
1, 66329, Note_on_c, 1, 58, 0
1, 66335, Note_on_c, 0, 67, 0
1, 66336, Note_on_c, 0, 62, 119
1, 66381, Note_on_c, 0, 62, 0
1, 66384, Note_on_c, 0, 64, 106
1, 66384, Note_on_c, 1, 58, 77
1, 66384, Note_on_c, 1, 48, 77
1, 66429, Note_on_c, 0, 64, 0
1, 66429, Note_on_c, 1, 58, 0
1, 66429, Note_on_c, 1, 48, 0
1, 66432, Note_on_c, 0, 65, 93
1, 66432, Note_on_c, 1, 57, 77
1, 66432, Note_on_c, 1, 53, 77
1, 66477, Note_on_c, 0, 65, 0
1, 66480, Note_on_c, 0, 83, 109
1, 66503, Note_on_c, 0, 83, 0
1, 66504, Note_on_c, 0, 84, 117
1, 66521, Note_on_c, 1, 57, 0
1, 66521, Note_on_c, 1, 53, 0
1, 66527, Note_on_c, 0, 84, 0
1, 66528, Note_on_c, 0, 82, 126
1, 66551, Note_on_c, 0, 82, 0
1, 66552, Note_on_c, 0, 81, 117
1, 66575, Note_on_c, 0, 81, 0
1, 66576, Note_on_c, 0, 79, 109
1, 66576, Note_on_c, 1, 69, 77
1, 66599, Note_on_c, 0, 79, 0
1, 66600, Note_on_c, 0, 77, 101
1, 66623, Note_on_c, 0, 77, 0
1, 66624, Note_on_c, 0, 78, 93
1, 66624, Note_on_c, 1, 69, 0
1, 66624, Note_on_c, 1, 70, 77
1, 66647, Note_on_c, 0, 78, 0
1, 66648, Note_on_c, 0, 79, 109
1, 66671, Note_on_c, 0, 79, 0
1, 66672, Note_on_c, 0, 82, 126
1, 66695, Note_on_c, 0, 82, 0
1, 66696, Note_on_c, 0, 79, 120
1, 66713, Note_on_c, 1, 70, 0
1, 66719, Note_on_c, 0, 79, 0
1, 66720, Note_on_c, 0, 74, 115
1, 66765, Note_on_c, 0, 74, 0
1, 66768, Note_on_c, 0, 76, 104
1, 66768, Note_on_c, 1, 70, 77
1, 66768, Note_on_c, 1, 60, 77
1, 66813, Note_on_c, 0, 76, 0
1, 66813, Note_on_c, 1, 70, 0
1, 66813, Note_on_c, 1, 60, 0
1, 66816, Note_on_c, 0, 79, 93
1, 66828, Note_on_c, 0, 79, 0
1, 66828, Note_on_c, 0, 77, 93
1, 66840, Note_on_c, 0, 77, 0
1, 66840, Note_on_c, 0, 76, 93
1, 66852, Note_on_c, 0, 76, 0
1, 66852, Note_on_c, 0, 77, 93
1, 66864, Note_on_c, 1, 69, 77
1, 66864, Note_on_c, 1, 65, 68
1, 66909, Note_on_c, 1, 69, 0
1, 66909, Note_on_c, 1, 65, 0
1, 66912, Note_on_c, 1, 69, 77
1, 66912, Note_on_c, 1, 65, 68
1, 66935, Note_on_c, 0, 77, 0
1, 66936, Note_on_c, 0, 81, 93
1, 66959, Note_on_c, 0, 81, 0
1, 66960, Note_on_c, 0, 79, 93
1, 66960, Note_on_c, 1, 69, 0
1, 66960, Note_on_c, 1, 70, 77
1, 66983, Note_on_c, 0, 79, 0
1, 66984, Note_on_c, 0, 76, 93
1, 67005, Note_on_c, 1, 70, 0
1, 67007, Note_on_c, 0, 76, 0
1, 67008, Note_on_c, 0, 77, 93
1, 67008, Note_on_c, 1, 69, 77
1, 67031, Note_on_c, 0, 77, 0
1, 67032, Note_on_c, 0, 81, 93
1, 67055, Note_on_c, 0, 81, 0
1, 67056, Note_on_c, 0, 79, 93
1, 67056, Note_on_c, 1, 69, 0
1, 67056, Note_on_c, 1, 70, 77
1, 67079, Note_on_c, 0, 79, 0
1, 67080, Note_on_c, 0, 76, 93
1, 67101, Note_on_c, 1, 70, 0
1, 67103, Note_on_c, 0, 76, 0
1, 67104, Note_on_c, 0, 77, 93
1, 67104, Note_on_c, 1, 69, 77
1, 67127, Note_on_c, 0, 77, 0
1, 67128, Note_on_c, 0, 81, 93
1, 67151, Note_on_c, 0, 81, 0
1, 67152, Note_on_c, 0, 79, 93
1, 67152, Note_on_c, 1, 69, 0
1, 67152, Note_on_c, 1, 70, 77
1, 67175, Note_on_c, 0, 79, 0
1, 67176, Note_on_c, 0, 76, 93
1, 67177, Note_on_c, 1, 65, 0
1, 67197, Note_on_c, 1, 70, 0
1, 67199, Note_on_c, 0, 76, 0
1, 67200, Note_on_c, 0, 79, 93
1, 67212, Note_on_c, 0, 79, 0
1, 67212, Note_on_c, 0, 77, 93
1, 67224, Note_on_c, 0, 77, 0
1, 67224, Note_on_c, 0, 76, 93
1, 67236, Note_on_c, 0, 76, 0
1, 67236, Note_on_c, 0, 77, 93
1, 67248, Note_on_c, 1, 69, 77
1, 67248, Note_on_c, 1, 65, 68
1, 67293, Note_on_c, 1, 69, 0
1, 67293, Note_on_c, 1, 65, 0
1, 67296, Note_on_c, 1, 69, 77
1, 67296, Note_on_c, 1, 65, 68
1, 67311, Note_on_c, 0, 77, 0
1, 67312, Note_on_c, 0, 79, 93
1, 67327, Note_on_c, 0, 79, 0
1, 67328, Note_on_c, 0, 81, 93
1, 67343, Note_on_c, 0, 81, 0
1, 67344, Note_on_c, 0, 79, 93
1, 67344, Note_on_c, 1, 69, 0
1, 67344, Note_on_c, 1, 70, 77
1, 67359, Note_on_c, 0, 79, 0
1, 67360, Note_on_c, 0, 77, 93
1, 67375, Note_on_c, 0, 77, 0
1, 67376, Note_on_c, 0, 76, 93
1, 67389, Note_on_c, 1, 70, 0
1, 67391, Note_on_c, 0, 76, 0
1, 67392, Note_on_c, 0, 77, 93
1, 67392, Note_on_c, 1, 69, 77
1, 67407, Note_on_c, 0, 77, 0
1, 67408, Note_on_c, 0, 79, 93
1, 67423, Note_on_c, 0, 79, 0
1, 67424, Note_on_c, 0, 81, 93
1, 67439, Note_on_c, 0, 81, 0
1, 67440, Note_on_c, 0, 79, 93
1, 67440, Note_on_c, 1, 69, 0
1, 67440, Note_on_c, 1, 70, 77
1, 67455, Note_on_c, 0, 79, 0
1, 67456, Note_on_c, 0, 77, 93
1, 67471, Note_on_c, 0, 77, 0
1, 67472, Note_on_c, 0, 76, 93
1, 67485, Note_on_c, 1, 70, 0
1, 67487, Note_on_c, 0, 76, 0
1, 67488, Note_on_c, 0, 77, 93
1, 67488, Note_on_c, 1, 69, 77
1, 67503, Note_on_c, 0, 77, 0
1, 67504, Note_on_c, 0, 79, 93
1, 67519, Note_on_c, 0, 79, 0
1, 67520, Note_on_c, 0, 81, 93
1, 67535, Note_on_c, 0, 81, 0
1, 67536, Note_on_c, 0, 79, 93
1, 67536, Note_on_c, 1, 69, 0
1, 67536, Note_on_c, 1, 70, 77
1, 67551, Note_on_c, 0, 79, 0
1, 67552, Note_on_c, 0, 77, 93
1, 67561, Note_on_c, 1, 65, 0
1, 67567, Note_on_c, 0, 77, 0
1, 67568, Note_on_c, 0, 76, 93
1, 67581, Note_on_c, 1, 70, 0
1, 67583, Note_on_c, 0, 76, 0
1, 67584, Note_on_c, 0, 77, 93
1, 67584, Note_on_c, 1, 69, 77
1, 67584, Note_on_c, 1, 65, 68
1, 67629, Note_on_c, 0, 77, 0
1, 67632, Note_on_c, 0, 89, 109
1, 67673, Note_on_c, 1, 69, 0
1, 67673, Note_on_c, 1, 65, 0
1, 67680, Note_on_c, 1, 65, 77
1, 67680, Note_on_c, 1, 57, 68
1, 67703, Note_on_c, 0, 89, 0
1, 67704, Note_on_c, 0, 88, 93
1, 67727, Note_on_c, 0, 88, 0
1, 67728, Note_on_c, 0, 87, 93
1, 67751, Note_on_c, 0, 87, 0
1, 67752, Note_on_c, 0, 86, 93
1, 67769, Note_on_c, 1, 65, 0
1, 67775, Note_on_c, 0, 86, 0
1, 67776, Note_on_c, 0, 85, 93
1, 67776, Note_on_c, 1, 65, 77
1, 67776, Note_on_c, 1, 57, 0
1, 67776, Note_on_c, 1, 58, 68
1, 67799, Note_on_c, 0, 85, 0
1, 67800, Note_on_c, 0, 86, 93
1, 67821, Note_on_c, 1, 65, 0
1, 67821, Note_on_c, 1, 58, 0
1, 67823, Note_on_c, 0, 86, 0
1, 67824, Note_on_c, 0, 84, 93
1, 67847, Note_on_c, 0, 84, 0
1, 67848, Note_on_c, 0, 82, 93
1, 67871, Note_on_c, 0, 82, 0
1, 67872, Note_on_c, 0, 81, 93
1, 67895, Note_on_c, 0, 81, 0
1, 67896, Note_on_c, 0, 79, 93
1, 67919, Note_on_c, 0, 79, 0
1, 67920, Note_on_c, 0, 82, 93
1, 67943, Note_on_c, 0, 82, 0
1, 67944, Note_on_c, 0, 79, 93
1, 67967, Note_on_c, 0, 79, 0
1, 67968, Note_on_c, 0, 77, 93
1, 68016, Note_on_c, 1, 68, 77
1, 68016, Note_on_c, 1, 59, 68
1, 68061, Note_on_c, 1, 68, 0
1, 68061, Note_on_c, 1, 59, 0
1, 68064, Note_on_c, 1, 69, 79
1, 68064, Note_on_c, 1, 60, 68
1, 68101, Note_on_c, 0, 77, 0
1, 68109, Note_on_c, 1, 69, 0
1, 68112, Note_on_c, 0, 81, 93
1, 68112, Note_on_c, 1, 70, 82
1, 68124, Note_on_c, 0, 81, 0
1, 68124, Note_on_c, 0, 79, 93
1, 68153, Note_on_c, 1, 60, 0
1, 68157, Note_on_c, 0, 79, 0
1, 68157, Note_on_c, 1, 70, 0
1, 68160, Note_on_c, 0, 77, 93
1, 68160, Note_on_c, 1, 69, 85
1, 68160, Note_on_c, 1, 65, 68
1, 68180, Note_on_c, 0, 77, 0
1, 68208, Note_on_c, 0, 72, 93
1, 68223, Note_on_c, 0, 72, 0
1, 68224, Note_on_c, 0, 77, 93
1, 68239, Note_on_c, 0, 77, 0
1, 68240, Note_on_c, 0, 81, 93
1, 68249, Note_on_c, 1, 69, 0
1, 68249, Note_on_c, 1, 65, 0
1, 68255, Note_on_c, 0, 81, 0
1, 68256, Note_on_c, 0, 84, 93
1, 68271, Note_on_c, 0, 84, 0
1, 68272, Note_on_c, 0, 81, 93
1, 68287, Note_on_c, 0, 81, 0
1, 68288, Note_on_c, 0, 77, 93
1, 68303, Note_on_c, 0, 77, 0
1, 68304, Note_on_c, 0, 82, 93
1, 68304, Note_on_c, 1, 67, 77
1, 68304, Note_on_c, 1, 60, 68
1, 68319, Note_on_c, 0, 82, 0
1, 68320, Note_on_c, 0, 79, 93
1, 68335, Note_on_c, 0, 79, 0
1, 68336, Note_on_c, 0, 76, 93
1, 68349, Note_on_c, 1, 67, 0
1, 68349, Note_on_c, 1, 60, 0
1, 68351, Note_on_c, 0, 76, 0
1, 68352, Note_on_c, 0, 77, 93
1, 68352, Note_on_c, 1, 69, 77
1, 68352, Note_on_c, 1, 65, 68
1, 68372, Note_on_c, 0, 77, 0
1, 68397, Note_on_c, 1, 69, 0
1, 68397, Note_on_c, 1, 65, 0
1, 68400, Note_on_c, 0, 60, 93
1, 68415, Note_on_c, 0, 60, 0
1, 68416, Note_on_c, 0, 65, 93
1, 68431, Note_on_c, 0, 65, 0
1, 68432, Note_on_c, 0, 69, 93
1, 68447, Note_on_c, 0, 69, 0
1, 68448, Note_on_c, 0, 72, 93
1, 68463, Note_on_c, 0, 72, 0
1, 68464, Note_on_c, 0, 69, 93
1, 68479, Note_on_c, 0, 69, 0
1, 68480, Note_on_c, 0, 65, 93
1, 68495, Note_on_c, 0, 65, 0
1, 68496, Note_on_c, 0, 70, 93
1, 68496, Note_on_c, 1, 55, 77
1, 68496, Note_on_c, 1, 48, 68
1, 68511, Note_on_c, 0, 70, 0
1, 68512, Note_on_c, 0, 67, 93
1, 68527, Note_on_c, 0, 67, 0
1, 68528, Note_on_c, 0, 64, 93
1, 68541, Note_on_c, 1, 55, 0
1, 68541, Note_on_c, 1, 48, 0
1, 68543, Note_on_c, 0, 64, 0
1, 68544, Note_on_c, 0, 65, 93
1, 68544, Note_on_c, 1, 57, 77
1, 68544, Note_on_c, 1, 53, 68
1, 68564, Note_on_c, 0, 65, 0
1, 68589, Note_on_c, 1, 57, 0
1, 68589, Note_on_c, 1, 53, 0
1, 68592, Note_on_c, 0, 48, 93
1, 68607, Note_on_c, 0, 48, 0
1, 68608, Note_on_c, 0, 53, 93
1, 68623, Note_on_c, 0, 53, 0
1, 68624, Note_on_c, 0, 57, 93
1, 68639, Note_on_c, 0, 57, 0
1, 68640, Note_on_c, 0, 60, 93
1, 68655, Note_on_c, 0, 60, 0
1, 68656, Note_on_c, 0, 57, 93
1, 68671, Note_on_c, 0, 57, 0
1, 68672, Note_on_c, 0, 53, 93
1, 68687, Note_on_c, 0, 53, 0
1, 68688, Note_on_c, 0, 58, 93
1, 68688, Note_on_c, 1, 43, 77
1, 68688, Note_on_c, 1, 36, 68
1, 68703, Note_on_c, 0, 58, 0
1, 68704, Note_on_c, 0, 55, 93
1, 68719, Note_on_c, 0, 55, 0
1, 68720, Note_on_c, 0, 52, 93
1, 68733, Note_on_c, 1, 43, 0
1, 68733, Note_on_c, 1, 36, 0
1, 68735, Note_on_c, 0, 52, 0
1, 68736, Note_on_c, 0, 53, 93
1, 68736, Note_on_c, 1, 45, 77
1, 68736, Note_on_c, 1, 41, 68
1, 68825, Note_on_c, 0, 53, 0
1, 68825, Note_on_c, 1, 45, 0
1, 68825, Note_on_c, 1, 41, 0
1, 68832, Note_on_c, 0, 53, 93
1, 68832, Note_on_c, 0, 48, 93
1, 68832, Note_on_c, 0, 45, 93
1, 68832, Note_on_c, 1, 41, 77
1, 68832, Note_on_c, 1, 29, 68
1, 68921, Note_on_c, 0, 53, 0
1, 68921, Note_on_c, 0, 48, 0
1, 68921, Note_on_c, 0, 45, 0
1, 68921, Note_on_c, 1, 41, 0
1, 68921, Note_on_c, 1, 29, 0
1, 68928, Note_on_c, 0, 53, 93
1, 68928, Note_on_c, 0, 48, 93
1, 68928, Note_on_c, 0, 45, 93
1, 68928, Note_on_c, 1, 41, 77
1, 68928, Note_on_c, 1, 29, 68
1, 69017, Note_on_c, 0, 53, 0
1, 69017, Note_on_c, 0, 48, 0
1, 69017, Note_on_c, 0, 45, 0
1, 69017, Note_on_c, 1, 41, 0
1, 69017, Note_on_c, 1, 29, 0
1, 69120, Note_on_c, 1, 29, 0
1, 69209, Note_on_c, 1, 29, 0
1, 69219, End_track
0, 0, End_of_file