0, 0, Header, 0, 1, 96
1, 0, Start_track
1, 0, Tempo, 100000
1, 372, Note_on_c, 0, 57, 75
1, 384, Note_on_c, 0, 57, 0
1, 384, Note_on_c, 0, 66, 75
1, 432, Note_on_c, 1, 38, 77
1, 477, Note_on_c, 1, 38, 0
1, 480, Note_on_c, 1, 50, 79
1, 514, Note_on_c, 0, 66, 0
1, 516, Note_on_c, 0, 57, 80
1, 525, Note_on_c, 1, 50, 0
1, 528, Note_on_c, 0, 57, 0
1, 528, Note_on_c, 0, 67, 80
1, 528, Note_on_c, 1, 49, 81
1, 562, Note_on_c, 0, 67, 0
1, 564, Note_on_c, 0, 57, 82
1, 573, Note_on_c, 1, 49, 0
1, 576, Note_on_c, 0, 57, 0
1, 576, Note_on_c, 0, 66, 82
1, 576, Note_on_c, 1, 50, 84
1, 610, Note_on_c, 0, 66, 0
1, 612, Note_on_c, 0, 57, 84
1, 621, Note_on_c, 1, 50, 0
1, 624, Note_on_c, 0, 57, 0
1, 624, Note_on_c, 0, 64, 83
1, 624, Note_on_c, 1, 55, 81
1, 658, Note_on_c, 0, 64, 0
1, 660, Note_on_c, 0, 57, 81
1, 669, Note_on_c, 1, 55, 0
1, 672, Note_on_c, 0, 57, 0
1, 672, Note_on_c, 0, 62, 80
1, 672, Note_on_c, 1, 54, 79
1, 706, Note_on_c, 0, 62, 0
1, 708, Note_on_c, 0, 57, 78
1, 717, Note_on_c, 1, 54, 0
1, 720, Note_on_c, 0, 57, 0
1, 720, Note_on_c, 0, 64, 77
1, 720, Note_on_c, 1, 49, 77
1, 754, Note_on_c, 0, 64, 0
1, 756, Note_on_c, 0, 57, 75
1, 765, Note_on_c, 1, 49, 0
1, 768, Note_on_c, 0, 57, 0
1, 768, Note_on_c, 0, 66, 75
1, 816, Note_on_c, 1, 38, 77
1, 861, Note_on_c, 1, 38, 0
1, 864, Note_on_c, 1, 50, 79
1, 898, Note_on_c, 0, 66, 0
1, 900, Note_on_c, 0, 57, 80
1, 909, Note_on_c, 1, 50, 0
1, 912, Note_on_c, 0, 57, 0
1, 912, Note_on_c, 0, 67, 80
1, 912, Note_on_c, 1, 49, 81
1, 946, Note_on_c, 0, 67, 0
1, 948, Note_on_c, 0, 57, 82
1, 957, Note_on_c, 1, 49, 0
1, 960, Note_on_c, 0, 57, 0
1, 960, Note_on_c, 0, 66, 82
1, 960, Note_on_c, 1, 50, 84
1, 994, Note_on_c, 0, 66, 0
1, 996, Note_on_c, 0, 57, 84
1, 1005, Note_on_c, 1, 50, 0
1, 1008, Note_on_c, 0, 57, 0
1, 1008, Note_on_c, 0, 64, 83
1, 1008, Note_on_c, 1, 55, 81
1, 1042, Note_on_c, 0, 64, 0
1, 1044, Note_on_c, 0, 57, 81
1, 1053, Note_on_c, 1, 55, 0
1, 1056, Note_on_c, 0, 57, 0
1, 1056, Note_on_c, 0, 62, 80
1, 1056, Note_on_c, 1, 54, 79
1, 1090, Note_on_c, 0, 62, 0
1, 1092, Note_on_c, 0, 57, 78
1, 1101, Note_on_c, 1, 54, 0
1, 1104, Note_on_c, 0, 57, 0
1, 1104, Note_on_c, 0, 64, 77
1, 1104, Note_on_c, 1, 49, 77
1, 1138, Note_on_c, 0, 64, 0
1, 1140, Note_on_c, 0, 57, 75
1, 1149, Note_on_c, 1, 49, 0
1, 1152, Note_on_c, 0, 57, 0
1, 1152, Note_on_c, 0, 66, 75
1, 1152, Note_on_c, 1, 50, 75
1, 1186, Note_on_c, 0, 66, 0
1, 1188, Note_on_c, 0, 57, 77
1, 1197, Note_on_c, 1, 50, 0
1, 1200, Note_on_c, 0, 57, 0
1, 1200, Note_on_c, 0, 67, 78
1, 1200, Note_on_c, 1, 52, 78
1, 1234, Note_on_c, 0, 67, 0
1, 1236, Note_on_c, 0, 57, 80
1, 1245, Note_on_c, 1, 52, 0
1, 1248, Note_on_c, 0, 57, 0
1, 1248, Note_on_c, 0, 69, 81
1, 1248, Note_on_c, 1, 54, 81
1, 1268, Note_on_c, 0, 69, 0
1, 1293, Note_on_c, 1, 54, 0
1, 1344, Note_on_c, 0, 66, 75
1, 1344, Note_on_c, 1, 50, 75
1, 1359, Note_on_c, 0, 66, 0
1, 1360, Note_on_c, 0, 62, 75
1, 1375, Note_on_c, 0, 62, 0
1, 1376, Note_on_c, 0, 57, 76
1, 1389, Note_on_c, 1, 50, 0
1, 1391, Note_on_c, 0, 57, 0
1, 1392, Note_on_c, 0, 67, 77
1, 1392, Note_on_c, 1, 52, 78
1, 1407, Note_on_c, 0, 67, 0
1, 1408, Note_on_c, 0, 64, 78
1, 1423, Note_on_c, 0, 64, 0
1, 1424, Note_on_c, 0, 57, 78
1, 1437, Note_on_c, 1, 52, 0
1, 1439, Note_on_c, 0, 57, 0
1, 1440, Note_on_c, 0, 69, 79
1, 1440, Note_on_c, 1, 54, 81
1, 1460, Note_on_c, 0, 69, 0
1, 1485, Note_on_c, 1, 54, 0
1, 1536, Note_on_c, 0, 78, 75
1, 1584, Note_on_c, 1, 38, 69
1, 1629, Note_on_c, 1, 38, 0
1, 1632, Note_on_c, 1, 38, 69
1, 1669, Note_on_c, 0, 78, 0
1, 1677, Note_on_c, 1, 38, 0
1, 1680, Note_on_c, 0, 69, 75
1, 1680, Note_on_c, 1, 38, 69
1, 1725, Note_on_c, 0, 69, 0
1, 1725, Note_on_c, 1, 38, 0
1, 1728, Note_on_c, 0, 66, 91
1, 1776, Note_on_c, 0, 66, 0
1, 1776, Note_on_c, 0, 67, 75
1, 1776, Note_on_c, 1, 40, 69
1, 1821, Note_on_c, 1, 40, 0
1, 1824, Note_on_c, 1, 40, 69
1, 1869, Note_on_c, 1, 40, 0
1, 1872, Note_on_c, 1, 40, 69
1, 1909, Note_on_c, 0, 67, 0
1, 1917, Note_on_c, 1, 40, 0
1, 1920, Note_on_c, 0, 81, 75
1, 1932, Note_on_c, 0, 81, 0
1, 1932, Note_on_c, 0, 79, 75
1, 1944, Note_on_c, 0, 79, 0
1, 1944, Note_on_c, 0, 78, 75
1, 1956, Note_on_c, 0, 78, 0
1, 1956, Note_on_c, 0, 79, 75
1, 1968, Note_on_c, 1, 33, 69
1, 2013, Note_on_c, 1, 33, 0
1, 2016, Note_on_c, 1, 33, 69
1, 2053, Note_on_c, 0, 79, 0
1, 2061, Note_on_c, 1, 33, 0
1, 2064, Note_on_c, 0, 67, 75
1, 2064, Note_on_c, 1, 33, 69
1, 2109, Note_on_c, 0, 67, 0
1, 2109, Note_on_c, 1, 33, 0
1, 2112, Note_on_c, 0, 65, 91
1, 2160, Note_on_c, 0, 65, 0
1, 2160, Note_on_c, 0, 66, 75
1, 2160, Note_on_c, 1, 38, 69
1, 2205, Note_on_c, 1, 38, 0
1, 2208, Note_on_c, 1, 38, 69
1, 2253, Note_on_c, 1, 38, 0
1, 2256, Note_on_c, 1, 38, 69
1, 2293, Note_on_c, 0, 66, 0
1, 2301, Note_on_c, 1, 38, 0
1, 2304, Note_on_c, 0, 62, 75
1, 2352, Note_on_c, 1, 42, 69
1, 2397, Note_on_c, 1, 42, 0
1, 2400, Note_on_c, 1, 42, 69
1, 2437, Note_on_c, 0, 62, 0
1, 2445, Note_on_c, 1, 42, 0
1, 2448, Note_on_c, 0, 66, 75
1, 2448, Note_on_c, 1, 42, 69
1, 2460, Note_on_c, 0, 66, 0
1, 2460, Note_on_c, 0, 62, 75
1, 2493, Note_on_c, 0, 62, 0
1, 2493, Note_on_c, 1, 42, 0
1, 2496, Note_on_c, 0, 61, 75
1, 2508, Note_on_c, 0, 61, 0
1, 2508, Note_on_c, 0, 59, 75
1, 2544, Note_on_c, 1, 43, 69
1, 2589, Note_on_c, 1, 43, 0
1, 2592, Note_on_c, 1, 43, 69
1, 2629, Note_on_c, 0, 59, 0
1, 2637, Note_on_c, 1, 43, 0
1, 2640, Note_on_c, 0, 62, 75
1, 2640, Note_on_c, 1, 43, 69
1, 2652, Note_on_c, 0, 62, 0
1, 2652, Note_on_c, 0, 59, 75
1, 2685, Note_on_c, 0, 59, 0
1, 2685, Note_on_c, 1, 43, 0
1, 2688, Note_on_c, 0, 59, 75
1, 2700, Note_on_c, 0, 59, 0
1, 2700, Note_on_c, 0, 57, 75
1, 2736, Note_on_c, 1, 42, 69
1, 2781, Note_on_c, 1, 42, 0
1, 2784, Note_on_c, 1, 42, 69
1, 2821, Note_on_c, 0, 57, 0
1, 2829, Note_on_c, 1, 42, 0
1, 2832, Note_on_c, 0, 66, 75
1, 2832, Note_on_c, 1, 42, 69
1, 2844, Note_on_c, 0, 66, 0
1, 2844, Note_on_c, 0, 62, 75
1, 2877, Note_on_c, 0, 62, 0
1, 2877, Note_on_c, 1, 42, 0
1, 2880, Note_on_c, 0, 61, 75
1, 2880, Note_on_c, 1, 43, 69
1, 2892, Note_on_c, 0, 61, 0
1, 2892, Note_on_c, 0, 59, 75
1, 2925, Note_on_c, 0, 59, 0
1, 2925, Note_on_c, 1, 43, 0
1, 2928, Note_on_c, 0, 62, 75
1, 2940, Note_on_c, 0, 62, 0
1, 2940, Note_on_c, 0, 59, 75
1, 2973, Note_on_c, 0, 59, 0
1, 2976, Note_on_c, 0, 59, 75
1, 2976, Note_on_c, 1, 42, 69
1, 2988, Note_on_c, 0, 59, 0
1, 2988, Note_on_c, 0, 57, 75
1, 3021, Note_on_c, 0, 57, 0
1, 3021, Note_on_c, 1, 42, 0
1, 3024, Note_on_c, 0, 57, 75
1, 3036, Note_on_c, 0, 57, 0
1, 3036, Note_on_c, 0, 62, 75
1, 3048, Note_on_c, 0, 62, 0
1, 3048, Note_on_c, 0, 66, 75
1, 3060, Note_on_c, 0, 66, 0
1, 3060, Note_on_c, 0, 69, 75
1, 3072, Note_on_c, 0, 69, 0
1, 3072, Note_on_c, 0, 57, 75
1, 3120, Note_on_c, 1, 54, 69
1, 3161, Note_on_c, 0, 57, 0
1, 3165, Note_on_c, 1, 54, 0
1, 3168, Note_on_c, 0, 55, 75
1, 3168, Note_on_c, 1, 52, 69
1, 3177, Note_on_c, 0, 55, 0
1, 3177, Note_on_c, 0, 57, 75
1, 3186, Note_on_c, 0, 57, 0
1, 3186, Note_on_c, 0, 55, 75
1, 3195, Note_on_c, 0, 55, 0
1, 3195, Note_on_c, 0, 57, 75
1, 3204, Note_on_c, 0, 57, 0
1, 3204, Note_on_c, 0, 55, 75
1, 3213, Note_on_c, 0, 55, 0
1, 3213, Note_on_c, 0, 57, 75
1, 3213, Note_on_c, 1, 52, 0
1, 3216, Note_on_c, 1, 45, 69
1, 3222, Note_on_c, 0, 57, 0
1, 3222, Note_on_c, 0, 55, 75
1, 3231, Note_on_c, 0, 55, 0
1, 3231, Note_on_c, 0, 57, 75
1, 3240, Note_on_c, 0, 57, 0
1, 3240, Note_on_c, 0, 55, 75
1, 3248, Note_on_c, 0, 55, 0
1, 3248, Note_on_c, 0, 54, 75
1, 3256, Note_on_c, 0, 54, 0
1, 3256, Note_on_c, 0, 55, 75
1, 3261, Note_on_c, 1, 45, 0
1, 3264, Note_on_c, 0, 55, 0
1, 3264, Note_on_c, 0, 55, 75
1, 3264, Note_on_c, 1, 50, 69
1, 3309, Note_on_c, 1, 50, 0
1, 3312, Note_on_c, 0, 55, 0
1, 3312, Note_on_c, 0, 54, 75
1, 3312, Note_on_c, 1, 45, 69
1, 3353, Note_on_c, 0, 54, 0
1, 3357, Note_on_c, 1, 45, 0
1, 3360, Note_on_c, 1, 38, 69
1, 3407, Note_on_c, 1, 38, 0
1, 3444, Note_on_c, 0, 57, 75
1, 3456, Note_on_c, 0, 57, 0
1, 3456, Note_on_c, 0, 66, 75
1, 3504, Note_on_c, 1, 38, 76
1, 3549, Note_on_c, 1, 38, 0
1, 3552, Note_on_c, 1, 50, 78
1, 3586, Note_on_c, 0, 66, 0
1, 3588, Note_on_c, 0, 57, 80
1, 3597, Note_on_c, 1, 50, 0
1, 3600, Note_on_c, 0, 57, 0
1, 3600, Note_on_c, 0, 67, 80
1, 3600, Note_on_c, 1, 49, 80
1, 3634, Note_on_c, 0, 67, 0
1, 3636, Note_on_c, 0, 57, 82
1, 3645, Note_on_c, 1, 49, 0
1, 3648, Note_on_c, 0, 57, 0
1, 3648, Note_on_c, 0, 66, 82
1, 3648, Note_on_c, 1, 50, 82
1, 3682, Note_on_c, 0, 66, 0
1, 3684, Note_on_c, 0, 57, 84
1, 3693, Note_on_c, 1, 50, 0
1, 3696, Note_on_c, 0, 57, 0
1, 3696, Note_on_c, 0, 64, 83
1, 3696, Note_on_c, 1, 55, 84
1, 3730, Note_on_c, 0, 64, 0
1, 3732, Note_on_c, 0, 57, 81
1, 3741, Note_on_c, 1, 55, 0
1, 3744, Note_on_c, 0, 57, 0
1, 3744, Note_on_c, 0, 62, 80
1, 3744, Note_on_c, 1, 54, 81
1, 3778, Note_on_c, 0, 62, 0
1, 3780, Note_on_c, 0, 57, 78
1, 3789, Note_on_c, 1, 54, 0
1, 3792, Note_on_c, 0, 57, 0
1, 3792, Note_on_c, 0, 64, 77
1, 3792, Note_on_c, 1, 49, 78
1, 3826, Note_on_c, 0, 64, 0
1, 3828, Note_on_c, 0, 57, 75
1, 3837, Note_on_c, 1, 49, 0
1, 3840, Note_on_c, 0, 57, 0
1, 3840, Note_on_c, 0, 66, 75
1, 3888, Note_on_c, 1, 38, 75
1, 3933, Note_on_c, 1, 38, 0
1, 3936, Note_on_c, 1, 50, 75
1, 3951, Note_on_c, 0, 66, 0
1, 3952, Note_on_c, 0, 62, 75
1, 3967, Note_on_c, 0, 62, 0
1, 3968, Note_on_c, 0, 57, 75
1, 3981, Note_on_c, 1, 50, 0
1, 3983, Note_on_c, 0, 57, 0
1, 3984, Note_on_c, 0, 67, 75
1, 3984, Note_on_c, 1, 49, 76
1, 3999, Note_on_c, 0, 67, 0
1, 4000, Note_on_c, 0, 64, 76
1, 4015, Note_on_c, 0, 64, 0
1, 4016, Note_on_c, 0, 57, 76
1, 4029, Note_on_c, 1, 49, 0
1, 4031, Note_on_c, 0, 57, 0
1, 4032, Note_on_c, 0, 66, 76
1, 4032, Note_on_c, 1, 50, 77
1, 4047, Note_on_c, 0, 66, 0
1, 4048, Note_on_c, 0, 62, 76
1, 4063, Note_on_c, 0, 62, 0
1, 4064, Note_on_c, 0, 57, 77
1, 4077, Note_on_c, 1, 50, 0
1, 4079, Note_on_c, 0, 57, 0
1, 4080, Note_on_c, 0, 64, 77
1, 4080, Note_on_c, 1, 55, 78
1, 4095, Note_on_c, 0, 64, 0
1, 4096, Note_on_c, 0, 61, 77
1, 4111, Note_on_c, 0, 61, 0
1, 4112, Note_on_c, 0, 57, 77
1, 4125, Note_on_c, 1, 55, 0
1, 4127, Note_on_c, 0, 57, 0
1, 4128, Note_on_c, 0, 61, 78
1, 4128, Note_on_c, 1, 54, 79
1, 4143, Note_on_c, 0, 61, 0
1, 4144, Note_on_c, 0, 62, 78
1, 4159, Note_on_c, 0, 62, 0
1, 4160, Note_on_c, 0, 57, 78
1, 4173, Note_on_c, 1, 54, 0
1, 4175, Note_on_c, 0, 57, 0
1, 4176, Note_on_c, 0, 63, 78
1, 4176, Note_on_c, 1, 49, 80
1, 4191, Note_on_c, 0, 63, 0
1, 4192, Note_on_c, 0, 64, 79
1, 4207, Note_on_c, 0, 64, 0
1, 4208, Note_on_c, 0, 57, 79
1, 4221, Note_on_c, 1, 49, 0
1, 4223, Note_on_c, 0, 57, 0
1, 4224, Note_on_c, 0, 65, 79
1, 4224, Note_on_c, 1, 50, 81
1, 4239, Note_on_c, 0, 65, 0
1, 4240, Note_on_c, 0, 66, 79
1, 4255, Note_on_c, 0, 66, 0
1, 4256, Note_on_c, 0, 57, 80
1, 4269, Note_on_c, 1, 50, 0
1, 4271, Note_on_c, 0, 57, 0
1, 4272, Note_on_c, 0, 66, 80
1, 4272, Note_on_c, 1, 52, 82
1, 4287, Note_on_c, 0, 66, 0
1, 4288, Note_on_c, 0, 67, 80
1, 4303, Note_on_c, 0, 67, 0
1, 4304, Note_on_c, 0, 57, 80
1, 4317, Note_on_c, 1, 52, 0
1, 4319, Note_on_c, 0, 57, 0
1, 4320, Note_on_c, 0, 69, 81
1, 4320, Note_on_c, 1, 54, 83
1, 4340, Note_on_c, 0, 69, 0
1, 4365, Note_on_c, 1, 54, 0
1, 4416, Note_on_c, 0, 66, 75
1, 4416, Note_on_c, 1, 50, 75
1, 4431, Note_on_c, 0, 66, 0
1, 4432, Note_on_c, 0, 62, 75
1, 4447, Note_on_c, 0, 62, 0
1, 4448, Note_on_c, 0, 57, 76
1, 4461, Note_on_c, 1, 50, 0
1, 4463, Note_on_c, 0, 57, 0
1, 4464, Note_on_c, 0, 67, 77
1, 4464, Note_on_c, 1, 52, 78
1, 4479, Note_on_c, 0, 67, 0
1, 4480, Note_on_c, 0, 64, 78
1, 4495, Note_on_c, 0, 64, 0
1, 4496, Note_on_c, 0, 57, 78
1, 4509, Note_on_c, 1, 52, 0
1, 4511, Note_on_c, 0, 57, 0
1, 4512, Note_on_c, 0, 69, 79
1, 4512, Note_on_c, 1, 54, 81
1, 4532, Note_on_c, 0, 69, 0
1, 4557, Note_on_c, 1, 54, 0
1, 4608, Note_on_c, 0, 78, 75
1, 4656, Note_on_c, 1, 38, 69
1, 4697, Note_on_c, 0, 78, 0
1, 4701, Note_on_c, 1, 38, 0
1, 4704, Note_on_c, 0, 79, 75
1, 4704, Note_on_c, 1, 38, 69
1, 4716, Note_on_c, 0, 79, 0
1, 4716, Note_on_c, 0, 78, 75
1, 4728, Note_on_c, 0, 78, 0
1, 4728, Note_on_c, 0, 76, 75
1, 4740, Note_on_c, 0, 76, 0
1, 4740, Note_on_c, 0, 74, 75
1, 4749, Note_on_c, 1, 38, 0
1, 4752, Note_on_c, 0, 74, 0
1, 4752, Note_on_c, 0, 74, 75
1, 4752, Note_on_c, 1, 38, 69
1, 4764, Note_on_c, 0, 74, 0
1, 4764, Note_on_c, 0, 73, 75
1, 4776, Note_on_c, 0, 73, 0
1, 4776, Note_on_c, 0, 71, 75
1, 4788, Note_on_c, 0, 71, 0
1, 4788, Note_on_c, 0, 69, 75
1, 4797, Note_on_c, 1, 38, 0
1, 4800, Note_on_c, 0, 69, 0
1, 4800, Note_on_c, 0, 69, 75
1, 4848, Note_on_c, 1, 40, 69
1, 4893, Note_on_c, 1, 40, 0
1, 4896, Note_on_c, 0, 69, 0
1, 4896, Note_on_c, 0, 67, 75
1, 4896, Note_on_c, 1, 40, 69
1, 4919, Note_on_c, 0, 67, 0
1, 4920, Note_on_c, 0, 69, 75
1, 4932, Note_on_c, 0, 69, 0
1, 4932, Note_on_c, 0, 71, 75
1, 4941, Note_on_c, 1, 40, 0
1, 4944, Note_on_c, 0, 71, 0
1, 4944, Note_on_c, 0, 73, 75
1, 4944, Note_on_c, 1, 40, 69
1, 4956, Note_on_c, 0, 73, 0
1, 4956, Note_on_c, 0, 74, 75
1, 4968, Note_on_c, 0, 74, 0
1, 4968, Note_on_c, 0, 76, 75
1, 4980, Note_on_c, 0, 76, 0
1, 4980, Note_on_c, 0, 78, 75
1, 4989, Note_on_c, 1, 40, 0
1, 4992, Note_on_c, 0, 78, 0
1, 4992, Note_on_c, 0, 79, 75
1, 5040, Note_on_c, 1, 33, 69
1, 5059, Note_on_c, 0, 79, 0
1, 5064, Note_on_c, 0, 81, 75
1, 5085, Note_on_c, 1, 33, 0
1, 5087, Note_on_c, 0, 81, 0
1, 5088, Note_on_c, 0, 79, 75
1, 5088, Note_on_c, 1, 33, 69
1, 5100, Note_on_c, 0, 79, 0
1, 5100, Note_on_c, 0, 78, 75
1, 5112, Note_on_c, 0, 78, 0
1, 5112, Note_on_c, 0, 76, 75
1, 5124, Note_on_c, 0, 76, 0
1, 5124, Note_on_c, 0, 74, 75
1, 5133, Note_on_c, 1, 33, 0
1, 5136, Note_on_c, 0, 74, 0
1, 5136, Note_on_c, 0, 73, 75
1, 5136, Note_on_c, 1, 33, 69
1, 5148, Note_on_c, 0, 73, 0
1, 5148, Note_on_c, 0, 71, 75
1, 5160, Note_on_c, 0, 71, 0
1, 5160, Note_on_c, 0, 69, 75
1, 5172, Note_on_c, 0, 69, 0
1, 5172, Note_on_c, 0, 67, 75
1, 5181, Note_on_c, 1, 33, 0
1, 5184, Note_on_c, 0, 67, 0
1, 5184, Note_on_c, 0, 67, 75
1, 5232, Note_on_c, 1, 38, 69
1, 5277, Note_on_c, 1, 38, 0
1, 5280, Note_on_c, 0, 67, 0
1, 5280, Note_on_c, 0, 66, 75
1, 5280, Note_on_c, 1, 38, 69
1, 5325, Note_on_c, 0, 66, 0
1, 5325, Note_on_c, 1, 38, 0
1, 5328, Note_on_c, 1, 38, 69
1, 5373, Note_on_c, 1, 38, 0
1, 5376, Note_on_c, 0, 62, 75
1, 5424, Note_on_c, 1, 50, 69
1, 5424, Note_on_c, 1, 42, 69
1, 5471, Note_on_c, 1, 50, 0
1, 5471, Note_on_c, 1, 42, 0
1, 5472, Note_on_c, 1, 50, 69
1, 5472, Note_on_c, 1, 42, 69
1, 5509, Note_on_c, 0, 62, 0
1, 5519, Note_on_c, 1, 50, 0
1, 5519, Note_on_c, 1, 42, 0
1, 5520, Note_on_c, 0, 66, 75
1, 5520, Note_on_c, 1, 50, 69
1, 5520, Note_on_c, 1, 42, 69
1, 5532, Note_on_c, 0, 66, 0
1, 5532, Note_on_c, 0, 62, 75
1, 5565, Note_on_c, 0, 62, 0
1, 5567, Note_on_c, 1, 50, 0
1, 5567, Note_on_c, 1, 42, 0
1, 5568, Note_on_c, 0, 61, 75
1, 5580, Note_on_c, 0, 61, 0
1, 5580, Note_on_c, 0, 59, 75
1, 5616, Note_on_c, 1, 50, 69
1, 5616, Note_on_c, 1, 43, 69
1, 5663, Note_on_c, 1, 50, 0
1, 5663, Note_on_c, 1, 43, 0
1, 5664, Note_on_c, 1, 50, 69
1, 5664, Note_on_c, 1, 43, 69
1, 5701, Note_on_c, 0, 59, 0
1, 5711, Note_on_c, 1, 50, 0
1, 5711, Note_on_c, 1, 43, 0
1, 5712, Note_on_c, 0, 62, 75
1, 5712, Note_on_c, 1, 50, 69
1, 5712, Note_on_c, 1, 43, 69
1, 5724, Note_on_c, 0, 62, 0
1, 5724, Note_on_c, 0, 59, 75
1, 5757, Note_on_c, 0, 59, 0
1, 5759, Note_on_c, 1, 50, 0
1, 5759, Note_on_c, 1, 43, 0
1, 5760, Note_on_c, 0, 59, 75
1, 5772, Note_on_c, 0, 59, 0
1, 5772, Note_on_c, 0, 57, 75
1, 5808, Note_on_c, 1, 50, 69
1, 5808, Note_on_c, 1, 42, 69
1, 5855, Note_on_c, 1, 50, 0
1, 5855, Note_on_c, 1, 42, 0
1, 5856, Note_on_c, 1, 50, 69
1, 5856, Note_on_c, 1, 42, 69
1, 5893, Note_on_c, 0, 57, 0
1, 5903, Note_on_c, 1, 50, 0
1, 5903, Note_on_c, 1, 42, 0
1, 5904, Note_on_c, 0, 66, 75
1, 5904, Note_on_c, 1, 50, 69
1, 5904, Note_on_c, 1, 42, 69
1, 5916, Note_on_c, 0, 66, 0
1, 5916, Note_on_c, 0, 62, 75
1, 5949, Note_on_c, 0, 62, 0
1, 5951, Note_on_c, 1, 50, 0
1, 5951, Note_on_c, 1, 42, 0
1, 5952, Note_on_c, 0, 61, 75
1, 5952, Note_on_c, 1, 50, 69
1, 5952, Note_on_c, 1, 43, 69
1, 5964, Note_on_c, 0, 61, 0
1, 5964, Note_on_c, 0, 59, 75
1, 5997, Note_on_c, 0, 59, 0
1, 5997, Note_on_c, 1, 50, 0
1, 5997, Note_on_c, 1, 43, 0
1, 6000, Note_on_c, 0, 62, 75
1, 6012, Note_on_c, 0, 62, 0
1, 6012, Note_on_c, 0, 59, 75
1, 6045, Note_on_c, 0, 59, 0
1, 6048, Note_on_c, 0, 59, 75
1, 6048, Note_on_c, 1, 50, 69
1, 6048, Note_on_c, 1, 42, 69
1, 6060, Note_on_c, 0, 59, 0
1, 6060, Note_on_c, 0, 57, 75
1, 6093, Note_on_c, 0, 57, 0
1, 6093, Note_on_c, 1, 50, 0
1, 6093, Note_on_c, 1, 42, 0
1, 6096, Note_on_c, 0, 66, 75
1, 6108, Note_on_c, 0, 66, 0
1, 6108, Note_on_c, 0, 62, 75
1, 6141, Note_on_c, 0, 62, 0
1, 6144, Note_on_c, 0, 61, 75
1, 6144, Note_on_c, 1, 50, 69
1, 6144, Note_on_c, 1, 43, 69
1, 6156, Note_on_c, 0, 61, 0
1, 6156, Note_on_c, 0, 59, 75
1, 6189, Note_on_c, 0, 59, 0
1, 6189, Note_on_c, 1, 50, 0
1, 6189, Note_on_c, 1, 43, 0
1, 6192, Note_on_c, 0, 62, 75
1, 6204, Note_on_c, 0, 62, 0
1, 6204, Note_on_c, 0, 59, 75
1, 6237, Note_on_c, 0, 59, 0
1, 6240, Note_on_c, 0, 59, 75
1, 6240, Note_on_c, 1, 50, 69
1, 6240, Note_on_c, 1, 42, 69
1, 6252, Note_on_c, 0, 59, 0
1, 6252, Note_on_c, 0, 57, 75
1, 6285, Note_on_c, 0, 57, 0
1, 6285, Note_on_c, 1, 50, 0
1, 6285, Note_on_c, 1, 42, 0
1, 6288, Note_on_c, 0, 57, 75
1, 6292, Note_on_c, 0, 57, 0
1, 6292, Note_on_c, 0, 62, 75
1, 6296, Note_on_c, 0, 62, 0
1, 6296, Note_on_c, 0, 66, 75
1, 6300, Note_on_c, 0, 66, 0
1, 6300, Note_on_c, 0, 69, 75
1, 6335, Note_on_c, 0, 69, 0
1, 6336, Note_on_c, 0, 64, 75
1, 6336, Note_on_c, 1, 49, 75
1, 6336, Note_on_c, 1, 45, 75
1, 6348, Note_on_c, 0, 64, 0
1, 6348, Note_on_c, 0, 67, 75
1, 6360, Note_on_c, 0, 67, 0
1, 6360, Note_on_c, 0, 69, 75
1, 6381, Note_on_c, 1, 49, 0
1, 6381, Note_on_c, 1, 45, 0
1, 6384, Note_on_c, 0, 69, 0
1, 6384, Note_on_c, 0, 62, 76
1, 6384, Note_on_c, 1, 50, 76
1, 6384, Note_on_c, 1, 45, 76
1, 6396, Note_on_c, 0, 62, 0
1, 6396, Note_on_c, 0, 66, 76
1, 6408, Note_on_c, 0, 66, 0
1, 6408, Note_on_c, 0, 69, 76
1, 6429, Note_on_c, 1, 50, 0
1, 6429, Note_on_c, 1, 45, 0
1, 6432, Note_on_c, 0, 69, 0
1, 6432, Note_on_c, 0, 61, 77
1, 6432, Note_on_c, 1, 55, 77
1, 6432, Note_on_c, 1, 45, 77
1, 6444, Note_on_c, 0, 61, 0
1, 6444, Note_on_c, 0, 64, 77
1, 6456, Note_on_c, 0, 64, 0
1, 6456, Note_on_c, 0, 69, 77
1, 6477, Note_on_c, 1, 55, 0
1, 6477, Note_on_c, 1, 45, 0
1, 6480, Note_on_c, 0, 69, 0
1, 6480, Note_on_c, 0, 62, 78
1, 6480, Note_on_c, 1, 54, 78
1, 6480, Note_on_c, 1, 45, 78
1, 6492, Note_on_c, 0, 62, 0
1, 6492, Note_on_c, 0, 66, 78
1, 6504, Note_on_c, 0, 66, 0
1, 6504, Note_on_c, 0, 69, 78
1, 6525, Note_on_c, 1, 54, 0
1, 6525, Note_on_c, 1, 45, 0
1, 6528, Note_on_c, 0, 69, 0
1, 6528, Note_on_c, 0, 64, 79
1, 6528, Note_on_c, 1, 49, 79
1, 6528, Note_on_c, 1, 45, 79
1, 6540, Note_on_c, 0, 64, 0
1, 6540, Note_on_c, 0, 67, 79
1, 6552, Note_on_c, 0, 67, 0
1, 6552, Note_on_c, 0, 69, 79
1, 6573, Note_on_c, 1, 49, 0
1, 6573, Note_on_c, 1, 45, 0
1, 6576, Note_on_c, 0, 69, 0
1, 6576, Note_on_c, 0, 62, 80
1, 6576, Note_on_c, 1, 50, 80
1, 6576, Note_on_c, 1, 45, 80
1, 6588, Note_on_c, 0, 62, 0
1, 6588, Note_on_c, 0, 66, 80
1, 6600, Note_on_c, 0, 66, 0
1, 6600, Note_on_c, 0, 69, 80
1, 6621, Note_on_c, 1, 50, 0
1, 6621, Note_on_c, 1, 45, 0
1, 6624, Note_on_c, 0, 69, 0
1, 6624, Note_on_c, 0, 61, 81
1, 6624, Note_on_c, 1, 55, 81
1, 6624, Note_on_c, 1, 45, 81
1, 6636, Note_on_c, 0, 61, 0
1, 6636, Note_on_c, 0, 64, 81
1, 6648, Note_on_c, 0, 64, 0
1, 6648, Note_on_c, 0, 69, 81
1, 6669, Note_on_c, 1, 55, 0
1, 6669, Note_on_c, 1, 45, 0
1, 6672, Note_on_c, 0, 69, 0
1, 6672, Note_on_c, 0, 62, 82
1, 6672, Note_on_c, 1, 54, 82
1, 6672, Note_on_c, 1, 45, 82
1, 6684, Note_on_c, 0, 62, 0
1, 6684, Note_on_c, 0, 66, 82
1, 6696, Note_on_c, 0, 66, 0
1, 6696, Note_on_c, 0, 69, 83
1, 6717, Note_on_c, 1, 54, 0
1, 6717, Note_on_c, 1, 45, 0
1, 6720, Note_on_c, 0, 69, 0
1, 6720, Note_on_c, 0, 64, 83
1, 6720, Note_on_c, 1, 49, 83
1, 6720, Note_on_c, 1, 45, 83
1, 6732, Note_on_c, 0, 64, 0
1, 6732, Note_on_c, 0, 67, 83
1, 6744, Note_on_c, 0, 67, 0
1, 6744, Note_on_c, 0, 69, 84
1, 6765, Note_on_c, 1, 49, 0
1, 6765, Note_on_c, 1, 45, 0
1, 6768, Note_on_c, 0, 69, 0
1, 6768, Note_on_c, 0, 62, 84
1, 6768, Note_on_c, 1, 50, 84
1, 6768, Note_on_c, 1, 45, 84
1, 6780, Note_on_c, 0, 62, 0
1, 6780, Note_on_c, 0, 66, 84
1, 6792, Note_on_c, 0, 66, 0
1, 6792, Note_on_c, 0, 69, 85
1, 6813, Note_on_c, 1, 50, 0
1, 6813, Note_on_c, 1, 45, 0
1, 6816, Note_on_c, 0, 69, 0
1, 6816, Note_on_c, 0, 64, 85
1, 6816, Note_on_c, 1, 49, 85
1, 6816, Note_on_c, 1, 45, 85
1, 6828, Note_on_c, 0, 64, 0
1, 6828, Note_on_c, 0, 67, 85
1, 6840, Note_on_c, 0, 67, 0
1, 6840, Note_on_c, 0, 69, 86
1, 6861, Note_on_c, 1, 49, 0
1, 6861, Note_on_c, 1, 45, 0
1, 6864, Note_on_c, 0, 69, 0
1, 6864, Note_on_c, 0, 62, 86
1, 6864, Note_on_c, 1, 50, 86
1, 6864, Note_on_c, 1, 45, 86
1, 6876, Note_on_c, 0, 62, 0
1, 6876, Note_on_c, 0, 66, 87
1, 6888, Note_on_c, 0, 66, 0
1, 6888, Note_on_c, 0, 69, 87
1, 6909, Note_on_c, 1, 50, 0
1, 6909, Note_on_c, 1, 45, 0
1, 6912, Note_on_c, 0, 69, 0
1, 6912, Note_on_c, 0, 69, 87
1, 6912, Note_on_c, 0, 64, 87
1, 6912, Note_on_c, 0, 61, 87
1, 6912, Note_on_c, 1, 57, 87
1, 6912, Note_on_c, 1, 52, 87
1, 6912, Note_on_c, 1, 49, 87
1, 6912, Note_on_c, 1, 45, 87
1, 7001, Note_on_c, 0, 69, 0
1, 7001, Note_on_c, 0, 64, 0
1, 7001, Note_on_c, 0, 61, 0
1, 7001, Note_on_c, 1, 57, 0
1, 7001, Note_on_c, 1, 52, 0
1, 7001, Note_on_c, 1, 49, 0
1, 7001, Note_on_c, 1, 45, 0
1, 7008, Note_on_c, 0, 57, 90
1, 7008, Note_on_c, 1, 45, 90
1, 7008, Note_on_c, 1, 33, 90
1, 7014, Note_on_c, 0, 61, 90
1, 7020, Note_on_c, 0, 64, 90
1, 7026, Note_on_c, 0, 69, 90
1, 7097, Note_on_c, 1, 45, 0
1, 7097, Note_on_c, 1, 33, 0
1, 7101, Note_on_c, 0, 69, 0
1, 7101, Note_on_c, 0, 64, 0
1, 7101, Note_on_c, 0, 61, 0
1, 7101, Note_on_c, 0, 57, 0
1, 7104, Note_on_c, 0, 57, 86
1, 7104, Note_on_c, 1, 45, 87
1, 7104, Note_on_c, 1, 33, 87
1, 7110, Note_on_c, 0, 61, 86
1, 7116, Note_on_c, 0, 64, 86
1, 7122, Note_on_c, 0, 69, 86
1, 7197, Note_on_c, 0, 69, 0
1, 7197, Note_on_c, 0, 64, 0
1, 7197, Note_on_c, 0, 61, 0
1, 7197, Note_on_c, 0, 57, 0
1, 7197, Note_on_c, 1, 45, 0
1, 7197, Note_on_c, 1, 33, 0
1, 7296, Note_on_c, 0, 76, 75
1, 7320, Note_on_c, 0, 76, 0
1, 7320, Note_on_c, 0, 64, 75
1, 7343, Note_on_c, 0, 64, 0
1, 7344, Note_on_c, 0, 76, 75
1, 7354, Note_on_c, 0, 76, 0
1, 7368, Note_on_c, 0, 76, 75
1, 7378, Note_on_c, 0, 76, 0
1, 7392, Note_on_c, 0, 76, 75
1, 7402, Note_on_c, 0, 76, 0
1, 7416, Note_on_c, 0, 76, 75
1, 7426, Note_on_c, 0, 76, 0
1, 7440, Note_on_c, 0, 76, 75
1, 7440, Note_on_c, 1, 73, 75
1, 7450, Note_on_c, 0, 76, 0
1, 7460, Note_on_c, 1, 73, 0
1, 7464, Note_on_c, 0, 76, 75
1, 7474, Note_on_c, 0, 76, 0
1, 7488, Note_on_c, 0, 76, 75
1, 7488, Note_on_c, 1, 71, 75
1, 7498, Note_on_c, 0, 76, 0
1, 7508, Note_on_c, 1, 71, 0
1, 7512, Note_on_c, 0, 76, 75
1, 7522, Note_on_c, 0, 76, 0
1, 7536, Note_on_c, 0, 76, 75
1, 7536, Note_on_c, 1, 69, 75
1, 7546, Note_on_c, 0, 76, 0
1, 7556, Note_on_c, 1, 69, 0
1, 7560, Note_on_c, 0, 76, 75
1, 7570, Note_on_c, 0, 76, 0
1, 7584, Note_on_c, 0, 76, 75
1, 7584, Note_on_c, 1, 68, 75
1, 7594, Note_on_c, 0, 76, 0
1, 7604, Note_on_c, 1, 68, 0
1, 7608, Note_on_c, 0, 76, 75
1, 7618, Note_on_c, 0, 76, 0
1, 7632, Note_on_c, 0, 76, 75
1, 7632, Note_on_c, 1, 66, 75
1, 7642, Note_on_c, 0, 76, 0
1, 7652, Note_on_c, 1, 66, 0
1, 7656, Note_on_c, 0, 76, 75
1, 7666, Note_on_c, 0, 76, 0
1, 7680, Note_on_c, 0, 76, 75
1, 7680, Note_on_c, 1, 64, 75
1, 7704, Note_on_c, 0, 76, 0
1, 7704, Note_on_c, 0, 64, 75
1, 7727, Note_on_c, 0, 64, 0
1, 7728, Note_on_c, 0, 76, 75
1, 7738, Note_on_c, 0, 76, 0
1, 7752, Note_on_c, 0, 76, 75
1, 7762, Note_on_c, 0, 76, 0
1, 7769, Note_on_c, 1, 64, 0
1, 7776, Note_on_c, 0, 76, 75
1, 7786, Note_on_c, 0, 76, 0
1, 7800, Note_on_c, 0, 76, 75
1, 7810, Note_on_c, 0, 76, 0
1, 7824, Note_on_c, 0, 76, 75
1, 7824, Note_on_c, 1, 73, 75
1, 7824, Note_on_c, 1, 69, 75
1, 7834, Note_on_c, 0, 76, 0
1, 7844, Note_on_c, 1, 73, 0
1, 7844, Note_on_c, 1, 69, 0
1, 7848, Note_on_c, 0, 76, 75
1, 7858, Note_on_c, 0, 76, 0
1, 7872, Note_on_c, 0, 76, 75
1, 7872, Note_on_c, 1, 71, 75
1, 7872, Note_on_c, 1, 68, 75
1, 7882, Note_on_c, 0, 76, 0
1, 7892, Note_on_c, 1, 71, 0
1, 7892, Note_on_c, 1, 68, 0
1, 7896, Note_on_c, 0, 76, 75
1, 7906, Note_on_c, 0, 76, 0
1, 7920, Note_on_c, 0, 76, 75
1, 7920, Note_on_c, 1, 69, 75
1, 7920, Note_on_c, 1, 66, 75
1, 7930, Note_on_c, 0, 76, 0
1, 7940, Note_on_c, 1, 69, 0
1, 7940, Note_on_c, 1, 66, 0
1, 7944, Note_on_c, 0, 76, 75
1, 7954, Note_on_c, 0, 76, 0
1, 7968, Note_on_c, 0, 76, 75
1, 7968, Note_on_c, 1, 68, 75
1, 7968, Note_on_c, 1, 64, 75
1, 7978, Note_on_c, 0, 76, 0
1, 7988, Note_on_c, 1, 68, 0
1, 7988, Note_on_c, 1, 64, 0
1, 7992, Note_on_c, 0, 76, 75
1, 8002, Note_on_c, 0, 76, 0
1, 8016, Note_on_c, 0, 76, 75
1, 8016, Note_on_c, 1, 66, 75
1, 8016, Note_on_c, 1, 62, 75
1, 8026, Note_on_c, 0, 76, 0
1, 8036, Note_on_c, 1, 66, 0
1, 8036, Note_on_c, 1, 62, 0
1, 8040, Note_on_c, 0, 76, 75
1, 8050, Note_on_c, 0, 76, 0
1, 8064, Note_on_c, 0, 76, 75
1, 8064, Note_on_c, 1, 64, 75
1, 8064, Note_on_c, 1, 61, 75
1, 8088, Note_on_c, 0, 76, 0
1, 8088, Note_on_c, 0, 64, 75
1, 8111, Note_on_c, 0, 64, 0
1, 8112, Note_on_c, 0, 76, 75
1, 8122, Note_on_c, 0, 76, 0
1, 8136, Note_on_c, 0, 76, 75
1, 8146, Note_on_c, 0, 76, 0
1, 8153, Note_on_c, 1, 64, 0
1, 8153, Note_on_c, 1, 61, 0
1, 8160, Note_on_c, 0, 76, 75
1, 8184, Note_on_c, 0, 76, 0
1, 8184, Note_on_c, 0, 64, 75
1, 8207, Note_on_c, 0, 64, 0
1, 8208, Note_on_c, 0, 76, 75
1, 8208, Note_on_c, 1, 61, 75
1, 8208, Note_on_c, 1, 49, 75
1, 8218, Note_on_c, 0, 76, 0
1, 8232, Note_on_c, 0, 76, 75
1, 8242, Note_on_c, 0, 76, 0
1, 8253, Note_on_c, 1, 61, 0
1, 8253, Note_on_c, 1, 49, 0
1, 8256, Note_on_c, 0, 78, 75
1, 8256, Note_on_c, 1, 62, 75
1, 8256, Note_on_c, 1, 50, 75
1, 8280, Note_on_c, 0, 78, 0
1, 8280, Note_on_c, 0, 66, 76
1, 8303, Note_on_c, 0, 66, 0
1, 8304, Note_on_c, 0, 78, 76
1, 8314, Note_on_c, 0, 78, 0
1, 8328, Note_on_c, 0, 78, 76
1, 8338, Note_on_c, 0, 78, 0
1, 8345, Note_on_c, 1, 62, 0
1, 8345, Note_on_c, 1, 50, 0
1, 8352, Note_on_c, 0, 80, 77
1, 8352, Note_on_c, 1, 59, 77
1, 8352, Note_on_c, 1, 47, 77
1, 8376, Note_on_c, 0, 80, 0
1, 8376, Note_on_c, 0, 68, 77
1, 8399, Note_on_c, 0, 68, 0
1, 8400, Note_on_c, 0, 80, 77
1, 8410, Note_on_c, 0, 80, 0
1, 8424, Note_on_c, 0, 80, 78
1, 8434, Note_on_c, 0, 80, 0
1, 8441, Note_on_c, 1, 59, 0
1, 8441, Note_on_c, 1, 47, 0
1, 8448, Note_on_c, 0, 81, 78
1, 8448, Note_on_c, 1, 61, 79
1, 8448, Note_on_c, 1, 49, 79
1, 8472, Note_on_c, 0, 81, 0
1, 8472, Note_on_c, 0, 69, 78
1, 8495, Note_on_c, 0, 69, 0
1, 8496, Note_on_c, 0, 81, 79
1, 8506, Note_on_c, 0, 81, 0
1, 8520, Note_on_c, 0, 81, 79
1, 8530, Note_on_c, 0, 81, 0
1, 8537, Note_on_c, 1, 61, 0
1, 8537, Note_on_c, 1, 49, 0
1, 8544, Note_on_c, 0, 83, 79
1, 8544, Note_on_c, 1, 56, 80
1, 8544, Note_on_c, 1, 44, 80
1, 8568, Note_on_c, 0, 83, 0
1, 8568, Note_on_c, 0, 71, 80
1, 8591, Note_on_c, 0, 71, 0
1, 8592, Note_on_c, 0, 83, 80
1, 8602, Note_on_c, 0, 83, 0
1, 8616, Note_on_c, 0, 83, 80
1, 8626, Note_on_c, 0, 83, 0
1, 8633, Note_on_c, 1, 56, 0
1, 8633, Note_on_c, 1, 44, 0
1, 8640, Note_on_c, 0, 84, 81
1, 8640, Note_on_c, 1, 57, 82
1, 8640, Note_on_c, 1, 45, 82
1, 8664, Note_on_c, 0, 84, 0
1, 8664, Note_on_c, 0, 72, 81
1, 8687, Note_on_c, 0, 72, 0
1, 8688, Note_on_c, 0, 84, 81
1, 8698, Note_on_c, 0, 84, 0
1, 8712, Note_on_c, 0, 84, 82
1, 8722, Note_on_c, 0, 84, 0
1, 8729, Note_on_c, 1, 57, 0
1, 8729, Note_on_c, 1, 45, 0
1, 8736, Note_on_c, 0, 84, 82
1, 8760, Note_on_c, 0, 84, 0
1, 8760, Note_on_c, 0, 72, 82
1, 8783, Note_on_c, 0, 72, 0
1, 8784, Note_on_c, 0, 84, 83
1, 8794, Note_on_c, 0, 84, 0
1, 8808, Note_on_c, 0, 84, 83
1, 8818, Note_on_c, 0, 84, 0
1, 8832, Note_on_c, 0, 84, 69
1, 8832, Note_on_c, 1, 45, 61
1, 8832, Note_on_c, 1, 33, 61
1, 8856, Note_on_c, 0, 84, 0
1, 8856, Note_on_c, 0, 83, 69
1, 8877, Note_on_c, 1, 45, 0
1, 8877, Note_on_c, 1, 33, 0
1, 8879, Note_on_c, 0, 83, 0
1, 8880, Note_on_c, 0, 83, 69
1, 8880, Note_on_c, 1, 72, 61
1, 8880, Note_on_c, 1, 69, 61
1, 8904, Note_on_c, 0, 83, 0
1, 8904, Note_on_c, 0, 81, 69
1, 8927, Note_on_c, 0, 81, 0
1, 8927, Note_on_c, 1, 72, 0
1, 8927, Note_on_c, 1, 69, 0
1, 8928, Note_on_c, 0, 81, 69
1, 8928, Note_on_c, 1, 72, 61
1, 8928, Note_on_c, 1, 69, 61
1, 8952, Note_on_c, 0, 81, 0
1, 8952, Note_on_c, 0, 79, 69
1, 8975, Note_on_c, 0, 79, 0
1, 8975, Note_on_c, 1, 72, 0
1, 8975, Note_on_c, 1, 69, 0
1, 8976, Note_on_c, 0, 79, 69
1, 8976, Note_on_c, 1, 72, 61
1, 8976, Note_on_c, 1, 69, 61
1, 9000, Note_on_c, 0, 79, 0
1, 9000, Note_on_c, 0, 77, 69
1, 9023, Note_on_c, 0, 77, 0
1, 9023, Note_on_c, 1, 72, 0
1, 9023, Note_on_c, 1, 69, 0
1, 9024, Note_on_c, 0, 77, 69
1, 9024, Note_on_c, 1, 72, 61
1, 9024, Note_on_c, 1, 69, 61
1, 9039, Note_on_c, 0, 77, 0
1, 9040, Note_on_c, 0, 81, 69
1, 9055, Note_on_c, 0, 81, 0
1, 9056, Note_on_c, 0, 84, 69
1, 9071, Note_on_c, 0, 84, 0
1, 9071, Note_on_c, 1, 72, 0
1, 9071, Note_on_c, 1, 69, 0
1, 9072, Note_on_c, 0, 77, 69
1, 9072, Note_on_c, 1, 72, 61
1, 9072, Note_on_c, 1, 69, 61
1, 9087, Note_on_c, 0, 77, 0
1, 9088, Note_on_c, 0, 81, 69
1, 9103, Note_on_c, 0, 81, 0
1, 9104, Note_on_c, 0, 84, 69
1, 9119, Note_on_c, 0, 84, 0
1, 9119, Note_on_c, 1, 72, 0
1, 9119, Note_on_c, 1, 69, 0
1, 9120, Note_on_c, 0, 77, 69
1, 9120, Note_on_c, 1, 72, 61
1, 9120, Note_on_c, 1, 69, 61
1, 9140, Note_on_c, 0, 77, 0
1, 9167, Note_on_c, 1, 72, 0
1, 9167, Note_on_c, 1, 69, 0
1, 9168, Note_on_c, 1, 72, 61
1, 9168, Note_on_c, 1, 69, 61
1, 9215, Note_on_c, 1, 72, 0
1, 9215, Note_on_c, 1, 69, 0
1, 9216, Note_on_c, 0, 77, 69
1, 9216, Note_on_c, 1, 72, 61
1, 9216, Note_on_c, 1, 69, 61
1, 9228, Note_on_c, 0, 77, 0
1, 9228, Note_on_c, 0, 81, 69
1, 9240, Note_on_c, 0, 81, 0
1, 9240, Note_on_c, 0, 84, 69
1, 9264, Note_on_c, 0, 84, 0
1, 9264, Note_on_c, 0, 72, 69
1, 9276, Note_on_c, 0, 72, 0
1, 9276, Note_on_c, 0, 77, 69
1, 9288, Note_on_c, 0, 77, 0
1, 9288, Note_on_c, 0, 81, 69
1, 9305, Note_on_c, 1, 72, 0
1, 9305, Note_on_c, 1, 69, 0
1, 9312, Note_on_c, 0, 81, 0
1, 9312, Note_on_c, 0, 69, 69
1, 9324, Note_on_c, 0, 69, 0
1, 9324, Note_on_c, 0, 72, 69
1, 9336, Note_on_c, 0, 72, 0
1, 9336, Note_on_c, 0, 77, 69
1, 9360, Note_on_c, 0, 77, 0
1, 9360, Note_on_c, 0, 65, 69
1, 9372, Note_on_c, 0, 65, 0
1, 9372, Note_on_c, 0, 69, 69
1, 9384, Note_on_c, 0, 69, 0
1, 9384, Note_on_c, 0, 72, 69
1, 9408, Note_on_c, 0, 72, 0
1, 9408, Note_on_c, 0, 60, 69
1, 9420, Note_on_c, 0, 60, 0
1, 9420, Note_on_c, 0, 65, 69
1, 9432, Note_on_c, 0, 65, 0
1, 9432, Note_on_c, 0, 69, 69
1, 9456, Note_on_c, 0, 69, 0
1, 9456, Note_on_c, 0, 57, 69
1, 9468, Note_on_c, 0, 57, 0
1, 9468, Note_on_c, 0, 60, 69
1, 9480, Note_on_c, 0, 60, 0
1, 9480, Note_on_c, 0, 65, 69
1, 9504, Note_on_c, 0, 65, 0
1, 9504, Note_on_c, 0, 53, 69
1, 9516, Note_on_c, 0, 53, 0
1, 9516, Note_on_c, 0, 57, 69
1, 9528, Note_on_c, 0, 57, 0
1, 9528, Note_on_c, 0, 60, 69
1, 9552, Note_on_c, 0, 60, 0
1, 9552, Note_on_c, 0, 48, 69
1, 9564, Note_on_c, 0, 48, 0
1, 9564, Note_on_c, 0, 53, 69
1, 9576, Note_on_c, 0, 53, 0
1, 9576, Note_on_c, 0, 57, 69
1, 9600, Note_on_c, 0, 57, 0
1, 9600, Note_on_c, 1, 41, 61
1, 9600, Note_on_c, 1, 29, 61
1, 9624, Note_on_c, 0, 75, 69
1, 9647, Note_on_c, 0, 75, 0
1, 9648, Note_on_c, 0, 63, 69
1, 9671, Note_on_c, 0, 63, 0
1, 9672, Note_on_c, 0, 75, 69
1, 9695, Note_on_c, 0, 75, 0
1, 9696, Note_on_c, 0, 63, 70
1, 9719, Note_on_c, 0, 63, 0
1, 9720, Note_on_c, 0, 75, 70
1, 9743, Note_on_c, 0, 75, 0
1, 9744, Note_on_c, 0, 69, 71
1, 9767, Note_on_c, 0, 69, 0
1, 9768, Note_on_c, 0, 81, 71
1, 9777, Note_on_c, 1, 41, 0
1, 9777, Note_on_c, 1, 29, 0
1, 9791, Note_on_c, 0, 81, 0
1, 9792, Note_on_c, 0, 72, 71
1, 9792, Note_on_c, 1, 41, 61
1, 9792, Note_on_c, 1, 29, 61
1, 9815, Note_on_c, 0, 72, 0
1, 9816, Note_on_c, 0, 84, 72
1, 9839, Note_on_c, 0, 84, 0
1, 9840, Note_on_c, 0, 71, 72
1, 9863, Note_on_c, 0, 71, 0
1, 9864, Note_on_c, 0, 83, 73
1, 9887, Note_on_c, 0, 83, 0
1, 9888, Note_on_c, 0, 69, 73
1, 9911, Note_on_c, 0, 69, 0
1, 9912, Note_on_c, 0, 81, 73
1, 9925, Note_on_c, 1, 41, 0
1, 9925, Note_on_c, 1, 29, 0
1, 9935, Note_on_c, 0, 81, 0
1, 9936, Note_on_c, 0, 63, 74
1, 9936, Note_on_c, 1, 53, 61
1, 9936, Note_on_c, 1, 41, 61
1, 9959, Note_on_c, 0, 63, 0
1, 9960, Note_on_c, 0, 75, 74
1, 9981, Note_on_c, 1, 53, 0
1, 9981, Note_on_c, 1, 41, 0
1, 9983, Note_on_c, 0, 75, 0
1, 9984, Note_on_c, 0, 64, 75
1, 9984, Note_on_c, 1, 52, 75
1, 9996, Note_on_c, 0, 64, 0
1, 9996, Note_on_c, 0, 76, 75
1, 10008, Note_on_c, 1, 52, 0
1, 10008, Note_on_c, 1, 40, 75
1, 10031, Note_on_c, 1, 40, 0
1, 10032, Note_on_c, 1, 52, 75
1, 10042, Note_on_c, 1, 52, 0
1, 10056, Note_on_c, 1, 52, 75
1, 10066, Note_on_c, 1, 52, 0
1, 10073, Note_on_c, 0, 76, 0
1, 10080, Note_on_c, 1, 52, 75
1, 10090, Note_on_c, 1, 52, 0
1, 10104, Note_on_c, 1, 52, 75
1, 10114, Note_on_c, 1, 52, 0
1, 10128, Note_on_c, 0, 59, 75
1, 10128, Note_on_c, 0, 56, 75
1, 10128, Note_on_c, 1, 52, 75
1, 10138, Note_on_c, 1, 52, 0
1, 10148, Note_on_c, 0, 59, 0
1, 10148, Note_on_c, 0, 56, 0
1, 10152, Note_on_c, 1, 52, 75
1, 10162, Note_on_c, 1, 52, 0
1, 10176, Note_on_c, 0, 61, 75
1, 10176, Note_on_c, 0, 57, 75
1, 10176, Note_on_c, 1, 52, 75
1, 10186, Note_on_c, 1, 52, 0
1, 10196, Note_on_c, 0, 61, 0
1, 10196, Note_on_c, 0, 57, 0
1, 10200, Note_on_c, 1, 52, 75
1, 10210, Note_on_c, 1, 52, 0
1, 10224, Note_on_c, 0, 59, 75
1, 10224, Note_on_c, 0, 56, 75
1, 10224, Note_on_c, 1, 52, 75
1, 10234, Note_on_c, 1, 52, 0
1, 10244, Note_on_c, 0, 59, 0
1, 10244, Note_on_c, 0, 56, 0
1, 10248, Note_on_c, 1, 52, 75
1, 10258, Note_on_c, 1, 52, 0
1, 10272, Note_on_c, 0, 61, 75
1, 10272, Note_on_c, 0, 57, 75
1, 10272, Note_on_c, 1, 52, 75
1, 10282, Note_on_c, 1, 52, 0
1, 10292, Note_on_c, 0, 61, 0
1, 10292, Note_on_c, 0, 57, 0
1, 10296, Note_on_c, 1, 52, 75
1, 10306, Note_on_c, 1, 52, 0
1, 10320, Note_on_c, 0, 64, 75
1, 10320, Note_on_c, 0, 59, 64
1, 10320, Note_on_c, 1, 52, 75
1, 10330, Note_on_c, 1, 52, 0
1, 10332, Note_on_c, 0, 64, 0
1, 10332, Note_on_c, 0, 62, 75
1, 10340, Note_on_c, 0, 59, 0
1, 10344, Note_on_c, 0, 62, 0
1, 10344, Note_on_c, 0, 61, 75
1, 10344, Note_on_c, 1, 52, 75
1, 10354, Note_on_c, 1, 52, 0
1, 10356, Note_on_c, 0, 61, 0
1, 10356, Note_on_c, 0, 62, 75
1, 10368, Note_on_c, 0, 62, 0
1, 10368, Note_on_c, 0, 64, 75
1, 10368, Note_on_c, 0, 61, 75
1, 10368, Note_on_c, 1, 52, 75
1, 10392, Note_on_c, 1, 52, 0
1, 10392, Note_on_c, 1, 40, 75
1, 10415, Note_on_c, 1, 40, 0
1, 10416, Note_on_c, 1, 52, 75
1, 10426, Note_on_c, 1, 52, 0
1, 10440, Note_on_c, 1, 52, 75
1, 10450, Note_on_c, 1, 52, 0
1, 10457, Note_on_c, 0, 64, 0
1, 10457, Note_on_c, 0, 61, 0
1, 10464, Note_on_c, 1, 52, 75
1, 10474, Note_on_c, 1, 52, 0
1, 10488, Note_on_c, 1, 52, 75
1, 10498, Note_on_c, 1, 52, 0
1, 10512, Note_on_c, 0, 66, 75
1, 10512, Note_on_c, 0, 62, 75
1, 10512, Note_on_c, 1, 52, 75
1, 10522, Note_on_c, 1, 52, 0
1, 10532, Note_on_c, 0, 66, 0
1, 10532, Note_on_c, 0, 62, 0
1, 10536, Note_on_c, 1, 52, 75
1, 10546, Note_on_c, 1, 52, 0
1, 10560, Note_on_c, 0, 68, 75
1, 10560, Note_on_c, 0, 59, 75
1, 10560, Note_on_c, 1, 52, 75
1, 10570, Note_on_c, 1, 52, 0
1, 10580, Note_on_c, 0, 68, 0
1, 10580, Note_on_c, 0, 59, 0
1, 10584, Note_on_c, 1, 52, 75
1, 10594, Note_on_c, 1, 52, 0
1, 10608, Note_on_c, 0, 69, 75
1, 10608, Note_on_c, 0, 61, 75
1, 10608, Note_on_c, 1, 52, 75
1, 10618, Note_on_c, 1, 52, 0
1, 10628, Note_on_c, 0, 69, 0
1, 10628, Note_on_c, 0, 61, 0
1, 10632, Note_on_c, 1, 52, 75
1, 10642, Note_on_c, 1, 52, 0
1, 10656, Note_on_c, 0, 71, 75
1, 10656, Note_on_c, 0, 68, 75
1, 10656, Note_on_c, 1, 52, 75
1, 10666, Note_on_c, 1, 52, 0
1, 10676, Note_on_c, 0, 71, 0
1, 10676, Note_on_c, 0, 68, 0
1, 10680, Note_on_c, 1, 52, 75
1, 10690, Note_on_c, 1, 52, 0
1, 10704, Note_on_c, 0, 74, 75
1, 10704, Note_on_c, 0, 69, 64
1, 10704, Note_on_c, 1, 52, 75
1, 10714, Note_on_c, 1, 52, 0
1, 10716, Note_on_c, 0, 74, 0
1, 10716, Note_on_c, 0, 73, 75
1, 10724, Note_on_c, 0, 69, 0
1, 10728, Note_on_c, 0, 73, 0
1, 10728, Note_on_c, 0, 71, 75
1, 10728, Note_on_c, 1, 52, 75
1, 10738, Note_on_c, 1, 52, 0
1, 10740, Note_on_c, 0, 71, 0
1, 10740, Note_on_c, 0, 73, 75
1, 10752, Note_on_c, 0, 73, 0
1, 10752, Note_on_c, 0, 74, 75
1, 10752, Note_on_c, 0, 71, 75
1, 10752, Note_on_c, 1, 52, 75
1, 10776, Note_on_c, 1, 52, 0
1, 10776, Note_on_c, 1, 40, 75
1, 10799, Note_on_c, 1, 40, 0
1, 10800, Note_on_c, 1, 52, 75
1, 10810, Note_on_c, 1, 52, 0
1, 10824, Note_on_c, 1, 52, 75
1, 10834, Note_on_c, 1, 52, 0
1, 10841, Note_on_c, 0, 74, 0
1, 10841, Note_on_c, 0, 71, 0
1, 10848, Note_on_c, 1, 52, 75
1, 10858, Note_on_c, 1, 52, 0
1, 10872, Note_on_c, 1, 52, 75
1, 10882, Note_on_c, 1, 52, 0
1, 10896, Note_on_c, 0, 71, 75
1, 10896, Note_on_c, 0, 68, 75
1, 10896, Note_on_c, 1, 52, 75
1, 10906, Note_on_c, 1, 52, 0
1, 10916, Note_on_c, 0, 71, 0
1, 10916, Note_on_c, 0, 68, 0
1, 10920, Note_on_c, 1, 52, 75
1, 10930, Note_on_c, 1, 52, 0
1, 10944, Note_on_c, 0, 73, 75
1, 10944, Note_on_c, 0, 69, 75
1, 10944, Note_on_c, 1, 52, 75
1, 10954, Note_on_c, 1, 52, 0
1, 10964, Note_on_c, 0, 73, 0
1, 10964, Note_on_c, 0, 69, 0
1, 10968, Note_on_c, 1, 52, 75
1, 10978, Note_on_c, 1, 52, 0
1, 10992, Note_on_c, 0, 71, 75
1, 10992, Note_on_c, 0, 68, 75
1, 10992, Note_on_c, 1, 52, 75
1, 11002, Note_on_c, 1, 52, 0
1, 11012, Note_on_c, 0, 71, 0
1, 11012, Note_on_c, 0, 68, 0
1, 11016, Note_on_c, 1, 52, 75
1, 11026, Note_on_c, 1, 52, 0
1, 11040, Note_on_c, 0, 73, 75
1, 11040, Note_on_c, 0, 69, 75
1, 11040, Note_on_c, 1, 52, 75
1, 11050, Note_on_c, 1, 52, 0
1, 11060, Note_on_c, 0, 73, 0
1, 11060, Note_on_c, 0, 69, 0
1, 11064, Note_on_c, 1, 52, 75
1, 11074, Note_on_c, 1, 52, 0
1, 11088, Note_on_c, 0, 76, 75
1, 11088, Note_on_c, 0, 71, 64
1, 11088, Note_on_c, 1, 52, 75
1, 11098, Note_on_c, 1, 52, 0
1, 11100, Note_on_c, 0, 76, 0
1, 11100, Note_on_c, 0, 74, 75
1, 11108, Note_on_c, 0, 71, 0
1, 11112, Note_on_c, 0, 74, 0
1, 11112, Note_on_c, 0, 73, 75
1, 11112, Note_on_c, 1, 52, 75
1, 11122, Note_on_c, 1, 52, 0
1, 11124, Note_on_c, 0, 73, 0
1, 11124, Note_on_c, 0, 74, 75
1, 11136, Note_on_c, 0, 74, 0
1, 11136, Note_on_c, 0, 76, 75
1, 11136, Note_on_c, 0, 73, 75
1, 11136, Note_on_c, 1, 52, 75
1, 11160, Note_on_c, 1, 52, 0
1, 11160, Note_on_c, 1, 40, 75
1, 11183, Note_on_c, 1, 40, 0
1, 11184, Note_on_c, 1, 52, 75
1, 11194, Note_on_c, 1, 52, 0
1, 11208, Note_on_c, 1, 52, 75
1, 11218, Note_on_c, 1, 52, 0
1, 11225, Note_on_c, 0, 76, 0
1, 11225, Note_on_c, 0, 73, 0
1, 11232, Note_on_c, 1, 52, 75
1, 11242, Note_on_c, 1, 52, 0
1, 11256, Note_on_c, 1, 52, 75
1, 11266, Note_on_c, 1, 52, 0
1, 11280, Note_on_c, 0, 78, 75
1, 11280, Note_on_c, 0, 74, 75
1, 11280, Note_on_c, 1, 52, 75
1, 11290, Note_on_c, 1, 52, 0
1, 11300, Note_on_c, 0, 78, 0
1, 11300, Note_on_c, 0, 74, 0
1, 11304, Note_on_c, 1, 52, 75
1, 11314, Note_on_c, 1, 52, 0
1, 11328, Note_on_c, 0, 80, 75
1, 11328, Note_on_c, 0, 71, 75
1, 11328, Note_on_c, 1, 52, 75
1, 11338, Note_on_c, 1, 52, 0
1, 11348, Note_on_c, 0, 80, 0
1, 11348, Note_on_c, 0, 71, 0
1, 11352, Note_on_c, 1, 52, 75
1, 11362, Note_on_c, 1, 52, 0
1, 11376, Note_on_c, 0, 81, 75
1, 11376, Note_on_c, 0, 73, 75
1, 11376, Note_on_c, 1, 52, 75
1, 11386, Note_on_c, 1, 52, 0
1, 11396, Note_on_c, 0, 81, 0
1, 11396, Note_on_c, 0, 73, 0
1, 11400, Note_on_c, 1, 52, 75
1, 11410, Note_on_c, 1, 52, 0
1, 11424, Note_on_c, 0, 83, 75
1, 11424, Note_on_c, 0, 80, 75
1, 11424, Note_on_c, 1, 52, 75
1, 11434, Note_on_c, 1, 52, 0
1, 11444, Note_on_c, 0, 83, 0
1, 11444, Note_on_c, 0, 80, 0
1, 11448, Note_on_c, 1, 52, 75
1, 11458, Note_on_c, 1, 52, 0
1, 11472, Note_on_c, 0, 86, 75
1, 11472, Note_on_c, 0, 81, 64
1, 11472, Note_on_c, 1, 52, 75
1, 11482, Note_on_c, 1, 52, 0
1, 11484, Note_on_c, 0, 86, 0
1, 11484, Note_on_c, 0, 85, 75
1, 11496, Note_on_c, 0, 85, 0
1, 11496, Note_on_c, 0, 83, 75
1, 11496, Note_on_c, 1, 52, 75
1, 11506, Note_on_c, 1, 52, 0
1, 11508, Note_on_c, 0, 83, 0
1, 11508, Note_on_c, 0, 85, 75
1, 11519, Note_on_c, 0, 81, 0
1, 11520, Note_on_c, 0, 85, 0
1, 11520, Note_on_c, 0, 86, 75
1, 11520, Note_on_c, 0, 83, 75
1, 11520, Note_on_c, 1, 52, 75
1, 11544, Note_on_c, 1, 52, 0
1, 11544, Note_on_c, 1, 40, 75
1, 11567, Note_on_c, 1, 40, 0
1, 11568, Note_on_c, 1, 52, 75
1, 11578, Note_on_c, 1, 52, 0
1, 11592, Note_on_c, 1, 52, 75
1, 11602, Note_on_c, 1, 52, 0
1, 11609, Note_on_c, 0, 86, 0
1, 11609, Note_on_c, 0, 83, 0
1, 11616, Note_on_c, 1, 52, 75
1, 11661, Note_on_c, 1, 52, 0
1, 11664, Note_on_c, 0, 86, 75
1, 11676, Note_on_c, 0, 86, 0
1, 11676, Note_on_c, 0, 85, 75
1, 11688, Note_on_c, 0, 85, 0
1, 11688, Note_on_c, 0, 83, 75
1, 11700, Note_on_c, 0, 83, 0
1, 11700, Note_on_c, 0, 81, 75
1, 11712, Note_on_c, 0, 81, 0
1, 11712, Note_on_c, 0, 80, 75
1, 11757, Note_on_c, 0, 80, 0
1, 11760, Note_on_c, 1, 74, 61
1, 11760, Note_on_c, 1, 71, 61
1, 11760, Note_on_c, 1, 64, 61
1, 11780, Note_on_c, 1, 74, 0
1, 11780, Note_on_c, 1, 71, 0
1, 11780, Note_on_c, 1, 64, 0
1, 11808, Note_on_c, 1, 74, 61
1, 11808, Note_on_c, 1, 71, 61
1, 11808, Note_on_c, 1, 64, 61
1, 11855, Note_on_c, 1, 74, 0
1, 11855, Note_on_c, 1, 71, 0
1, 11855, Note_on_c, 1, 64, 0
1, 11856, Note_on_c, 0, 83, 75
1, 11868, Note_on_c, 0, 83, 0
1, 11868, Note_on_c, 0, 80, 75
1, 11880, Note_on_c, 0, 80, 0
1, 11880, Note_on_c, 0, 78, 75
1, 11892, Note_on_c, 0, 78, 0
1, 11892, Note_on_c, 0, 76, 75
1, 11904, Note_on_c, 0, 76, 0
1, 11904, Note_on_c, 0, 81, 75
1, 11949, Note_on_c, 0, 81, 0
1, 11952, Note_on_c, 1, 69, 61
1, 11952, Note_on_c, 1, 64, 61
1, 11952, Note_on_c, 1, 61, 61
1, 11972, Note_on_c, 1, 69, 0
1, 11972, Note_on_c, 1, 64, 0
1, 11972, Note_on_c, 1, 61, 0
1, 12000, Note_on_c, 1, 69, 61
1, 12000, Note_on_c, 1, 64, 61
1, 12000, Note_on_c, 1, 61, 61
1, 12047, Note_on_c, 1, 69, 0
1, 12047, Note_on_c, 1, 64, 0
1, 12047, Note_on_c, 1, 61, 0
1, 12048, Note_on_c, 0, 86, 75
1, 12060, Note_on_c, 0, 86, 0
1, 12060, Note_on_c, 0, 85, 75
1, 12072, Note_on_c, 0, 85, 0
1, 12072, Note_on_c, 0, 83, 75
1, 12084, Note_on_c, 0, 83, 0
1, 12084, Note_on_c, 0, 81, 75
1, 12096, Note_on_c, 0, 81, 0
1, 12096, Note_on_c, 0, 80, 75
1, 12141, Note_on_c, 0, 80, 0
1, 12144, Note_on_c, 1, 74, 61
1, 12144, Note_on_c, 1, 71, 61
1, 12144, Note_on_c, 1, 64, 61
1, 12164, Note_on_c, 1, 74, 0
1, 12164, Note_on_c, 1, 71, 0
1, 12164, Note_on_c, 1, 64, 0
1, 12192, Note_on_c, 1, 74, 61
1, 12192, Note_on_c, 1, 71, 61
1, 12192, Note_on_c, 1, 64, 61
1, 12239, Note_on_c, 1, 74, 0
1, 12239, Note_on_c, 1, 71, 0
1, 12239, Note_on_c, 1, 64, 0
1, 12240, Note_on_c, 0, 83, 75
1, 12252, Note_on_c, 0, 83, 0
1, 12252, Note_on_c, 0, 80, 75
1, 12264, Note_on_c, 0, 80, 0
1, 12264, Note_on_c, 0, 78, 75
1, 12276, Note_on_c, 0, 78, 0
1, 12276, Note_on_c, 0, 76, 75
1, 12288, Note_on_c, 0, 76, 0
1, 12288, Note_on_c, 0, 81, 75
1, 12288, Note_on_c, 1, 69, 61
1, 12288, Note_on_c, 1, 64, 61
1, 12288, Note_on_c, 1, 61, 61
1, 12308, Note_on_c, 0, 81, 0
1, 12333, Note_on_c, 1, 69, 0
1, 12333, Note_on_c, 1, 64, 0
1, 12333, Note_on_c, 1, 61, 0
1, 12336, Note_on_c, 0, 85, 75
1, 12348, Note_on_c, 0, 85, 0
1, 12348, Note_on_c, 0, 83, 75
1, 12360, Note_on_c, 0, 83, 0
1, 12360, Note_on_c, 0, 81, 75
1, 12372, Note_on_c, 0, 81, 0
1, 12372, Note_on_c, 0, 80, 75
1, 12384, Note_on_c, 0, 80, 0
1, 12384, Note_on_c, 0, 78, 75
1, 12384, Note_on_c, 1, 69, 61
1, 12384, Note_on_c, 1, 66, 61
1, 12384, Note_on_c, 1, 62, 61
1, 12404, Note_on_c, 0, 78, 0
1, 12429, Note_on_c, 1, 69, 0
1, 12429, Note_on_c, 1, 66, 0
1, 12429, Note_on_c, 1, 62, 0
1, 12432, Note_on_c, 0, 81, 75
1, 12444, Note_on_c, 0, 81, 0
1, 12444, Note_on_c, 0, 80, 75
1, 12456, Note_on_c, 0, 80, 0
1, 12456, Note_on_c, 0, 78, 75
1, 12468, Note_on_c, 0, 78, 0
1, 12468, Note_on_c, 0, 76, 75
1, 12480, Note_on_c, 0, 76, 0
1, 12480, Note_on_c, 0, 74, 75
1, 12480, Note_on_c, 1, 62, 75
1, 12480, Note_on_c, 1, 50, 75
1, 12500, Note_on_c, 0, 74, 0
1, 12525, Note_on_c, 1, 62, 0
1, 12525, Note_on_c, 1, 50, 0
1, 12528, Note_on_c, 0, 78, 75
1, 12540, Note_on_c, 0, 78, 0
1, 12540, Note_on_c, 0, 76, 75
1, 12552, Note_on_c, 0, 76, 0
1, 12552, Note_on_c, 0, 74, 75
1, 12564, Note_on_c, 0, 74, 0
1, 12564, Note_on_c, 0, 73, 75
1, 12576, Note_on_c, 0, 73, 0
1, 12576, Note_on_c, 0, 71, 75
1, 12576, Note_on_c, 1, 50, 75
1, 12576, Note_on_c, 1, 38, 75
1, 12596, Note_on_c, 0, 71, 0
1, 12621, Note_on_c, 1, 50, 0
1, 12621, Note_on_c, 1, 38, 0
1, 12624, Note_on_c, 0, 78, 75
1, 12636, Note_on_c, 0, 78, 0
1, 12636, Note_on_c, 0, 74, 75
1, 12648, Note_on_c, 0, 74, 0
1, 12648, Note_on_c, 0, 73, 75
1, 12660, Note_on_c, 0, 73, 0
1, 12660, Note_on_c, 0, 71, 75
1, 12672, Note_on_c, 0, 71, 0
1, 12672, Note_on_c, 0, 76, 75
1, 12692, Note_on_c, 0, 76, 0
1, 12720, Note_on_c, 0, 74, 75
1, 12720, Note_on_c, 1, 57, 75
1, 12720, Note_on_c, 1, 49, 64
1, 12732, Note_on_c, 0, 74, 0
1, 12732, Note_on_c, 0, 73, 75
1, 12744, Note_on_c, 0, 73, 0
1, 12744, Note_on_c, 0, 71, 75
1, 12756, Note_on_c, 0, 71, 0
1, 12756, Note_on_c, 0, 69, 75
1, 12765, Note_on_c, 1, 49, 0
1, 12768, Note_on_c, 0, 69, 0
1, 12768, Note_on_c, 0, 71, 75
1, 12768, Note_on_c, 1, 50, 64
1, 12777, Note_on_c, 0, 71, 0
1, 12777, Note_on_c, 0, 73, 75
1, 12786, Note_on_c, 0, 73, 0
1, 12786, Note_on_c, 0, 71, 75
1, 12795, Note_on_c, 0, 71, 0
1, 12795, Note_on_c, 0, 73, 75
1, 12804, Note_on_c, 0, 73, 0
1, 12804, Note_on_c, 0, 71, 75
1, 12809, Note_on_c, 1, 57, 0
1, 12813, Note_on_c, 0, 71, 0
1, 12813, Note_on_c, 0, 73, 75
1, 12813, Note_on_c, 1, 50, 0
1, 12816, Note_on_c, 1, 56, 75
1, 12816, Note_on_c, 1, 52, 64
1, 12822, Note_on_c, 0, 73, 0
1, 12822, Note_on_c, 0, 71, 75
1, 12831, Note_on_c, 0, 71, 0
1, 12831, Note_on_c, 0, 73, 75
1, 12840, Note_on_c, 0, 73, 0
1, 12840, Note_on_c, 0, 71, 75
1, 12848, Note_on_c, 0, 71, 0
1, 12848, Note_on_c, 0, 69, 75
1, 12856, Note_on_c, 0, 69, 0
1, 12856, Note_on_c, 0, 71, 75
1, 12861, Note_on_c, 1, 56, 0
1, 12861, Note_on_c, 1, 52, 0
1, 12864, Note_on_c, 0, 71, 0
1, 12864, Note_on_c, 0, 69, 75
1, 12864, Note_on_c, 1, 57, 61
1, 12879, Note_on_c, 1, 57, 0
1, 12880, Note_on_c, 1, 61, 61
1, 12895, Note_on_c, 1, 61, 0
1, 12896, Note_on_c, 1, 64, 61
1, 12909, Note_on_c, 0, 69, 0
1, 12911, Note_on_c, 1, 64, 0
1, 12912, Note_on_c, 1, 57, 61
1, 12927, Note_on_c, 1, 57, 0
1, 12928, Note_on_c, 1, 61, 61
1, 12943, Note_on_c, 1, 61, 0
1, 12944, Note_on_c, 1, 64, 61
1, 12959, Note_on_c, 1, 64, 0
1, 12960, Note_on_c, 0, 76, 75
1, 12960, Note_on_c, 1, 56, 61
1, 12972, Note_on_c, 0, 76, 0
1, 12972, Note_on_c, 0, 74, 75
1, 12975, Note_on_c, 1, 56, 0
1, 12976, Note_on_c, 1, 59, 61
1, 12991, Note_on_c, 1, 59, 0
1, 12992, Note_on_c, 1, 64, 61
1, 13005, Note_on_c, 0, 74, 0
1, 13007, Note_on_c, 1, 64, 0
1, 13008, Note_on_c, 0, 74, 75
1, 13008, Note_on_c, 1, 56, 61
1, 13023, Note_on_c, 1, 56, 0
1, 13024, Note_on_c, 1, 59, 61
1, 13039, Note_on_c, 1, 59, 0
1, 13040, Note_on_c, 1, 64, 61
1, 13053, Note_on_c, 0, 74, 0
1, 13055, Note_on_c, 1, 64, 0
1, 13056, Note_on_c, 0, 73, 75
1, 13056, Note_on_c, 1, 57, 61
1, 13071, Note_on_c, 1, 57, 0
1, 13072, Note_on_c, 1, 61, 61
1, 13087, Note_on_c, 1, 61, 0
1, 13088, Note_on_c, 1, 64, 61
1, 13101, Note_on_c, 0, 73, 0
1, 13103, Note_on_c, 1, 64, 0
1, 13104, Note_on_c, 1, 57, 61
1, 13119, Note_on_c, 1, 57, 0
1, 13120, Note_on_c, 1, 61, 61
1, 13135, Note_on_c, 1, 61, 0
1, 13136, Note_on_c, 1, 64, 61
1, 13151, Note_on_c, 1, 64, 0
1, 13152, Note_on_c, 0, 73, 75
1, 13152, Note_on_c, 1, 59, 61
1, 13167, Note_on_c, 1, 59, 0
1, 13168, Note_on_c, 1, 62, 61
1, 13176, Note_on_c, 0, 73, 0
1, 13176, Note_on_c, 0, 71, 75
1, 13183, Note_on_c, 1, 62, 0
1, 13184, Note_on_c, 1, 64, 61
1, 13199, Note_on_c, 0, 71, 0
1, 13199, Note_on_c, 1, 64, 0
1, 13200, Note_on_c, 0, 71, 75
1, 13200, Note_on_c, 1, 59, 61
1, 13215, Note_on_c, 1, 59, 0
1, 13216, Note_on_c, 1, 62, 61
1, 13231, Note_on_c, 1, 62, 0
1, 13232, Note_on_c, 1, 64, 61
1, 13236, Note_on_c, 0, 71, 0
1, 13236, Note_on_c, 0, 68, 75
1, 13247, Note_on_c, 1, 64, 0
1, 13248, Note_on_c, 0, 68, 0
1, 13248, Note_on_c, 0, 69, 75
1, 13248, Note_on_c, 1, 57, 61
1, 13263, Note_on_c, 1, 57, 0
1, 13264, Note_on_c, 1, 61, 61
1, 13279, Note_on_c, 1, 61, 0
1, 13280, Note_on_c, 1, 64, 61
1, 13293, Note_on_c, 0, 69, 0
1, 13295, Note_on_c, 1, 64, 0
1, 13296, Note_on_c, 1, 57, 61
1, 13311, Note_on_c, 1, 57, 0
1, 13312, Note_on_c, 1, 61, 61
1, 13327, Note_on_c, 1, 61, 0
1, 13328, Note_on_c, 1, 64, 61
1, 13343, Note_on_c, 1, 64, 0
1, 13344, Note_on_c, 0, 74, 75
1, 13344, Note_on_c, 1, 56, 61
1, 13359, Note_on_c, 0, 74, 0
1, 13359, Note_on_c, 1, 56, 0
1, 13360, Note_on_c, 0, 76, 75
1, 13360, Note_on_c, 1, 59, 61
1, 13375, Note_on_c, 0, 76, 0
1, 13375, Note_on_c, 1, 59, 0
1, 13376, Note_on_c, 0, 74, 75
1, 13376, Note_on_c, 1, 64, 61
1, 13391, Note_on_c, 0, 74, 0
1, 13391, Note_on_c, 1, 64, 0
1, 13392, Note_on_c, 0, 78, 75
1, 13392, Note_on_c, 1, 56, 61
1, 13407, Note_on_c, 0, 78, 0
1, 13407, Note_on_c, 1, 56, 0
1, 13408, Note_on_c, 0, 76, 75
1, 13408, Note_on_c, 1, 59, 61
1, 13423, Note_on_c, 0, 76, 0
1, 13423, Note_on_c, 1, 59, 0
1, 13424, Note_on_c, 0, 74, 75
1, 13424, Note_on_c, 1, 64, 61
1, 13439, Note_on_c, 0, 74, 0
1, 13439, Note_on_c, 1, 64, 0
1, 13440, Note_on_c, 0, 73, 75
1, 13440, Note_on_c, 1, 57, 61
1, 13455, Note_on_c, 1, 57, 0
1, 13456, Note_on_c, 1, 61, 61
1, 13471, Note_on_c, 1, 61, 0
1, 13472, Note_on_c, 1, 64, 61
1, 13485, Note_on_c, 0, 73, 0
1, 13487, Note_on_c, 1, 64, 0
1, 13488, Note_on_c, 1, 57, 61
1, 13503, Note_on_c, 1, 57, 0
1, 13504, Note_on_c, 1, 61, 61
1, 13519, Note_on_c, 1, 61, 0
1, 13520, Note_on_c, 1, 64, 61
1, 13535, Note_on_c, 1, 64, 0
1, 13536, Note_on_c, 0, 74, 75
1, 13536, Note_on_c, 1, 59, 61
1, 13551, Note_on_c, 0, 74, 0
1, 13551, Note_on_c, 1, 59, 0
1, 13552, Note_on_c, 0, 73, 75
1, 13552, Note_on_c, 1, 62, 61
1, 13567, Note_on_c, 0, 73, 0
1, 13567, Note_on_c, 1, 62, 0
1, 13568, Note_on_c, 0, 71, 75
1, 13568, Note_on_c, 1, 64, 61
1, 13583, Note_on_c, 0, 71, 0
1, 13583, Note_on_c, 1, 64, 0
1, 13584, Note_on_c, 0, 69, 75
1, 13584, Note_on_c, 1, 59, 61
1, 13599, Note_on_c, 0, 69, 0
1, 13599, Note_on_c, 1, 59, 0
1, 13600, Note_on_c, 0, 71, 75
1, 13600, Note_on_c, 1, 62, 61
1, 13615, Note_on_c, 0, 71, 0
1, 13615, Note_on_c, 1, 62, 0
1, 13616, Note_on_c, 0, 68, 75
1, 13616, Note_on_c, 1, 64, 61
1, 13631, Note_on_c, 0, 68, 0
1, 13631, Note_on_c, 1, 64, 0
1, 13632, Note_on_c, 0, 69, 75
1, 13632, Note_on_c, 1, 57, 61
1, 13647, Note_on_c, 1, 57, 0
1, 13648, Note_on_c, 1, 61, 61
1, 13652, Note_on_c, 0, 69, 0
1, 13663, Note_on_c, 1, 61, 0
1, 13664, Note_on_c, 1, 64, 61
1, 13679, Note_on_c, 1, 64, 0
1, 13680, Note_on_c, 0, 69, 75
1, 13680, Note_on_c, 1, 57, 61
1, 13695, Note_on_c, 1, 57, 0
1, 13696, Note_on_c, 1, 61, 61
1, 13700, Note_on_c, 0, 69, 0
1, 13711, Note_on_c, 1, 61, 0
1, 13712, Note_on_c, 1, 64, 61
1, 13727, Note_on_c, 1, 64, 0
1, 13728, Note_on_c, 0, 71, 75
1, 13728, Note_on_c, 1, 56, 61
1, 13743, Note_on_c, 1, 56, 0
1, 13744, Note_on_c, 1, 59, 61
1, 13748, Note_on_c, 0, 71, 0
1, 13759, Note_on_c, 1, 59, 0
1, 13760, Note_on_c, 1, 64, 61
1, 13775, Note_on_c, 1, 64, 0
1, 13776, Note_on_c, 0, 71, 75
1, 13776, Note_on_c, 1, 56, 61
1, 13791, Note_on_c, 1, 56, 0
1, 13792, Note_on_c, 1, 59, 61
1, 13796, Note_on_c, 0, 71, 0
1, 13807, Note_on_c, 1, 59, 0
1, 13808, Note_on_c, 1, 64, 61
1, 13823, Note_on_c, 1, 64, 0
1, 13824, Note_on_c, 0, 73, 75
1, 13824, Note_on_c, 1, 57, 61
1, 13839, Note_on_c, 1, 57, 0
1, 13840, Note_on_c, 1, 61, 61
1, 13844, Note_on_c, 0, 73, 0
1, 13855, Note_on_c, 1, 61, 0
1, 13856, Note_on_c, 1, 64, 61
1, 13871, Note_on_c, 1, 64, 0
1, 13872, Note_on_c, 0, 73, 75
1, 13872, Note_on_c, 1, 57, 61
1, 13887, Note_on_c, 1, 57, 0
1, 13888, Note_on_c, 1, 61, 61
1, 13892, Note_on_c, 0, 73, 0
1, 13903, Note_on_c, 1, 61, 0
1, 13904, Note_on_c, 1, 64, 61
1, 13919, Note_on_c, 1, 64, 0
1, 13920, Note_on_c, 0, 76, 75
1, 13920, Note_on_c, 1, 52, 61
1, 13935, Note_on_c, 1, 52, 0
1, 13936, Note_on_c, 1, 59, 61
1, 13944, Note_on_c, 0, 76, 0
1, 13944, Note_on_c, 0, 74, 75
1, 13951, Note_on_c, 1, 59, 0
1, 13952, Note_on_c, 1, 64, 61
1, 13967, Note_on_c, 0, 74, 0
1, 13967, Note_on_c, 1, 64, 0
1, 13968, Note_on_c, 0, 71, 75
1, 13968, Note_on_c, 1, 52, 61
1, 13983, Note_on_c, 1, 52, 0
1, 13984, Note_on_c, 1, 59, 61
1, 13992, Note_on_c, 0, 71, 0
1, 13992, Note_on_c, 0, 68, 75
1, 13999, Note_on_c, 1, 59, 0
1, 14000, Note_on_c, 1, 64, 61
1, 14015, Note_on_c, 0, 68, 0
1, 14015, Note_on_c, 1, 64, 0
1, 14016, Note_on_c, 0, 68, 75
1, 14016, Note_on_c, 1, 57, 61
1, 14028, Note_on_c, 0, 68, 0
1, 14028, Note_on_c, 0, 69, 75
1, 14031, Note_on_c, 1, 57, 0
1, 14032, Note_on_c, 1, 61, 61
1, 14047, Note_on_c, 1, 61, 0
1, 14048, Note_on_c, 1, 64, 61
1, 14061, Note_on_c, 0, 69, 0
1, 14063, Note_on_c, 1, 64, 0
1, 14064, Note_on_c, 0, 68, 75
1, 14064, Note_on_c, 1, 57, 61
1, 14076, Note_on_c, 0, 68, 0
1, 14076, Note_on_c, 0, 69, 75
1, 14079, Note_on_c, 1, 57, 0
1, 14080, Note_on_c, 1, 61, 61
1, 14095, Note_on_c, 1, 61, 0
1, 14096, Note_on_c, 1, 64, 61
1, 14109, Note_on_c, 0, 69, 0
1, 14111, Note_on_c, 1, 64, 0
1, 14112, Note_on_c, 0, 70, 75
1, 14112, Note_on_c, 1, 56, 61
1, 14124, Note_on_c, 0, 70, 0
1, 14124, Note_on_c, 0, 71, 75
1, 14127, Note_on_c, 1, 56, 0
1, 14128, Note_on_c, 1, 59, 61
1, 14143, Note_on_c, 1, 59, 0
1, 14144, Note_on_c, 1, 64, 61
1, 14157, Note_on_c, 0, 71, 0
1, 14159, Note_on_c, 1, 64, 0
1, 14160, Note_on_c, 0, 70, 75
1, 14160, Note_on_c, 1, 56, 61
1, 14172, Note_on_c, 0, 70, 0
1, 14172, Note_on_c, 0, 71, 75
1, 14175, Note_on_c, 1, 56, 0
1, 14176, Note_on_c, 1, 59, 61
1, 14191, Note_on_c, 1, 59, 0
1, 14192, Note_on_c, 1, 64, 61
1, 14205, Note_on_c, 0, 71, 0
1, 14207, Note_on_c, 1, 64, 0
1, 14208, Note_on_c, 0, 72, 75
1, 14208, Note_on_c, 1, 57, 61
1, 14220, Note_on_c, 0, 72, 0
1, 14220, Note_on_c, 0, 73, 75
1, 14223, Note_on_c, 1, 57, 0
1, 14224, Note_on_c, 1, 61, 61
1, 14239, Note_on_c, 1, 61, 0
1, 14240, Note_on_c, 1, 64, 61
1, 14253, Note_on_c, 0, 73, 0
1, 14255, Note_on_c, 1, 64, 0
1, 14256, Note_on_c, 0, 72, 75
1, 14256, Note_on_c, 1, 57, 61
1, 14268, Note_on_c, 0, 72, 0
1, 14268, Note_on_c, 0, 73, 75
1, 14271, Note_on_c, 1, 57, 0
1, 14272, Note_on_c, 1, 61, 61
1, 14287, Note_on_c, 1, 61, 0
1, 14288, Note_on_c, 1, 64, 61
1, 14301, Note_on_c, 0, 73, 0
1, 14303, Note_on_c, 1, 64, 0
1, 14304, Note_on_c, 0, 74, 75
1, 14304, Note_on_c, 1, 52, 61
1, 14313, Note_on_c, 0, 74, 0
1, 14313, Note_on_c, 0, 76, 75
1, 14319, Note_on_c, 1, 52, 0
1, 14320, Note_on_c, 1, 59, 61
1, 14322, Note_on_c, 0, 76, 0
1, 14322, Note_on_c, 0, 74, 75
1, 14331, Note_on_c, 0, 74, 0
1, 14331, Note_on_c, 0, 76, 75
1, 14335, Note_on_c, 1, 59, 0
1, 14336, Note_on_c, 1, 64, 61
1, 14340, Note_on_c, 0, 76, 0
1, 14340, Note_on_c, 0, 74, 75
1, 14349, Note_on_c, 0, 74, 0
1, 14349, Note_on_c, 0, 76, 75
1, 14351, Note_on_c, 1, 64, 0
1, 14352, Note_on_c, 1, 52, 61
1, 14358, Note_on_c, 0, 76, 0
1, 14358, Note_on_c, 0, 74, 75
1, 14367, Note_on_c, 0, 74, 0
1, 14367, Note_on_c, 0, 76, 75
1, 14367, Note_on_c, 1, 52, 0
1, 14368, Note_on_c, 1, 59, 61
1, 14376, Note_on_c, 0, 76, 0
1, 14376, Note_on_c, 0, 74, 75
1, 14383, Note_on_c, 1, 59, 0
1, 14384, Note_on_c, 0, 74, 0
1, 14384, Note_on_c, 0, 73, 75
1, 14384, Note_on_c, 1, 64, 61
1, 14392, Note_on_c, 0, 73, 0
1, 14392, Note_on_c, 0, 74, 75
1, 14399, Note_on_c, 1, 64, 0
1, 14400, Note_on_c, 0, 74, 0
1, 14400, Note_on_c, 0, 72, 75
1, 14400, Note_on_c, 1, 57, 61
1, 14412, Note_on_c, 0, 72, 0
1, 14412, Note_on_c, 0, 73, 75
1, 14415, Note_on_c, 1, 57, 0
1, 14416, Note_on_c, 1, 61, 61
1, 14431, Note_on_c, 1, 61, 0
1, 14432, Note_on_c, 1, 64, 61
1, 14445, Note_on_c, 0, 73, 0
1, 14447, Note_on_c, 1, 64, 0
1, 14448, Note_on_c, 0, 72, 75
1, 14448, Note_on_c, 1, 57, 61
1, 14460, Note_on_c, 0, 72, 0
1, 14460, Note_on_c, 0, 73, 75
1, 14463, Note_on_c, 1, 57, 0
1, 14464, Note_on_c, 1, 61, 61
1, 14479, Note_on_c, 1, 61, 0
1, 14480, Note_on_c, 1, 64, 61
1, 14493, Note_on_c, 0, 73, 0
1, 14495, Note_on_c, 1, 64, 0
1, 14496, Note_on_c, 0, 74, 75
1, 14496, Note_on_c, 1, 56, 61
1, 14505, Note_on_c, 0, 74, 0
1, 14505, Note_on_c, 0, 76, 75
1, 14511, Note_on_c, 1, 56, 0
1, 14512, Note_on_c, 1, 59, 61
1, 14514, Note_on_c, 0, 76, 0
1, 14514, Note_on_c, 0, 74, 75
1, 14523, Note_on_c, 0, 74, 0
1, 14523, Note_on_c, 0, 76, 75
1, 14527, Note_on_c, 1, 59, 0
1, 14528, Note_on_c, 1, 64, 61
1, 14532, Note_on_c, 0, 76, 0
1, 14532, Note_on_c, 0, 74, 75
1, 14541, Note_on_c, 0, 74, 0
1, 14541, Note_on_c, 0, 76, 75
1, 14543, Note_on_c, 1, 64, 0
1, 14544, Note_on_c, 1, 56, 61
1, 14550, Note_on_c, 0, 76, 0
1, 14550, Note_on_c, 0, 74, 75
1, 14559, Note_on_c, 0, 74, 0
1, 14559, Note_on_c, 0, 76, 75
1, 14559, Note_on_c, 1, 56, 0
1, 14560, Note_on_c, 1, 59, 61
1, 14568, Note_on_c, 0, 76, 0
1, 14568, Note_on_c, 0, 74, 75
1, 14575, Note_on_c, 1, 59, 0
1, 14576, Note_on_c, 0, 74, 0
1, 14576, Note_on_c, 0, 76, 75
1, 14576, Note_on_c, 1, 64, 61
1, 14584, Note_on_c, 0, 76, 0
1, 14584, Note_on_c, 0, 74, 75
1, 14591, Note_on_c, 1, 64, 0
1, 14592, Note_on_c, 0, 74, 0
1, 14592, Note_on_c, 0, 80, 75
1, 14592, Note_on_c, 1, 61, 75
1, 14592, Note_on_c, 1, 57, 75
1, 14607, Note_on_c, 0, 80, 0
1, 14608, Note_on_c, 0, 81, 75
1, 14623, Note_on_c, 0, 81, 0
1, 14624, Note_on_c, 0, 85, 75
1, 14637, Note_on_c, 1, 61, 0
1, 14637, Note_on_c, 1, 57, 0
1, 14639, Note_on_c, 0, 85, 0
1, 14640, Note_on_c, 0, 80, 75
1, 14655, Note_on_c, 0, 80, 0
1, 14656, Note_on_c, 0, 81, 75
1, 14671, Note_on_c, 0, 81, 0
1, 14672, Note_on_c, 0, 85, 75
1, 14687, Note_on_c, 0, 85, 0
1, 14688, Note_on_c, 0, 77, 75
1, 14688, Note_on_c, 1, 62, 75
1, 14688, Note_on_c, 1, 50, 75
1, 14703, Note_on_c, 0, 77, 0
1, 14704, Note_on_c, 0, 78, 75
1, 14719, Note_on_c, 0, 78, 0
1, 14720, Note_on_c, 0, 81, 75
1, 14733, Note_on_c, 1, 62, 0
1, 14733, Note_on_c, 1, 50, 0
1, 14735, Note_on_c, 0, 81, 0
1, 14736, Note_on_c, 0, 77, 75
1, 14751, Note_on_c, 0, 77, 0
1, 14752, Note_on_c, 0, 78, 75
1, 14767, Note_on_c, 0, 78, 0
1, 14768, Note_on_c, 0, 81, 75
1, 14783, Note_on_c, 0, 81, 0
1, 14784, Note_on_c, 0, 73, 75
1, 14784, Note_on_c, 1, 50, 75
1, 14784, Note_on_c, 1, 38, 75
1, 14799, Note_on_c, 0, 73, 0
1, 14800, Note_on_c, 0, 74, 75
1, 14815, Note_on_c, 0, 74, 0
1, 14816, Note_on_c, 0, 78, 75
1, 14829, Note_on_c, 1, 50, 0
1, 14829, Note_on_c, 1, 38, 0
1, 14831, Note_on_c, 0, 78, 0
1, 14832, Note_on_c, 0, 73, 75
1, 14847, Note_on_c, 0, 73, 0
1, 14848, Note_on_c, 0, 74, 75
1, 14863, Note_on_c, 0, 74, 0
1, 14864, Note_on_c, 0, 78, 75
1, 14879, Note_on_c, 0, 78, 0
1, 14880, Note_on_c, 0, 70, 75
1, 14880, Note_on_c, 1, 50, 75
1, 14880, Note_on_c, 1, 38, 75
1, 14895, Note_on_c, 0, 70, 0
1, 14896, Note_on_c, 0, 71, 75
1, 14911, Note_on_c, 0, 71, 0
1, 14912, Note_on_c, 0, 74, 75
1, 14925, Note_on_c, 1, 50, 0
1, 14925, Note_on_c, 1, 38, 0
1, 14927, Note_on_c, 0, 74, 0
1, 14928, Note_on_c, 0, 70, 75
1, 14943, Note_on_c, 0, 70, 0
1, 14944, Note_on_c, 0, 71, 75
1, 14959, Note_on_c, 0, 71, 0
1, 14960, Note_on_c, 0, 74, 75
1, 14975, Note_on_c, 0, 74, 0
1, 14976, Note_on_c, 0, 64, 75
1, 14976, Note_on_c, 1, 49, 61
1, 14991, Note_on_c, 1, 49, 0
1, 14992, Note_on_c, 1, 52, 61
1, 15007, Note_on_c, 1, 52, 0
1, 15008, Note_on_c, 1, 57, 61
1, 15023, Note_on_c, 1, 57, 0
1, 15024, Note_on_c, 1, 49, 61
1, 15039, Note_on_c, 1, 49, 0
1, 15040, Note_on_c, 1, 52, 61
1, 15055, Note_on_c, 1, 52, 0
1, 15056, Note_on_c, 1, 57, 61
1, 15065, Note_on_c, 0, 64, 0
1, 15071, Note_on_c, 1, 57, 0
1, 15072, Note_on_c, 0, 71, 75
1, 15072, Note_on_c, 1, 50, 61
1, 15081, Note_on_c, 0, 71, 0
1, 15081, Note_on_c, 0, 73, 75
1, 15087, Note_on_c, 1, 50, 0
1, 15088, Note_on_c, 1, 54, 61
1, 15090, Note_on_c, 0, 73, 0
1, 15090, Note_on_c, 0, 71, 75
1, 15099, Note_on_c, 0, 71, 0
1, 15099, Note_on_c, 0, 73, 75
1, 15103, Note_on_c, 1, 54, 0
1, 15104, Note_on_c, 1, 59, 61
1, 15108, Note_on_c, 0, 73, 0
1, 15108, Note_on_c, 0, 71, 75
1, 15117, Note_on_c, 0, 71, 0
1, 15117, Note_on_c, 0, 73, 75
1, 15119, Note_on_c, 1, 59, 0
1, 15120, Note_on_c, 1, 52, 61
1, 15126, Note_on_c, 0, 73, 0
1, 15126, Note_on_c, 0, 71, 75
1, 15135, Note_on_c, 0, 71, 0
1, 15135, Note_on_c, 0, 73, 75
1, 15135, Note_on_c, 1, 52, 0
1, 15136, Note_on_c, 1, 59, 61
1, 15144, Note_on_c, 0, 73, 0
1, 15144, Note_on_c, 0, 71, 75
1, 15151, Note_on_c, 1, 59, 0
1, 15152, Note_on_c, 0, 71, 0
1, 15152, Note_on_c, 0, 73, 75
1, 15152, Note_on_c, 1, 62, 61
1, 15160, Note_on_c, 0, 73, 0
1, 15160, Note_on_c, 0, 71, 75
1, 15167, Note_on_c, 1, 62, 0
1, 15168, Note_on_c, 0, 71, 0
1, 15168, Note_on_c, 0, 80, 75
1, 15168, Note_on_c, 1, 61, 75
1, 15168, Note_on_c, 1, 57, 75
1, 15183, Note_on_c, 0, 80, 0
1, 15184, Note_on_c, 0, 81, 75
1, 15199, Note_on_c, 0, 81, 0
1, 15200, Note_on_c, 0, 85, 75
1, 15213, Note_on_c, 1, 61, 0
1, 15213, Note_on_c, 1, 57, 0
1, 15215, Note_on_c, 0, 85, 0
1, 15216, Note_on_c, 0, 80, 75
1, 15231, Note_on_c, 0, 80, 0
1, 15232, Note_on_c, 0, 81, 75
1, 15247, Note_on_c, 0, 81, 0
1, 15248, Note_on_c, 0, 85, 75
1, 15263, Note_on_c, 0, 85, 0
1, 15264, Note_on_c, 0, 77, 75
1, 15264, Note_on_c, 1, 62, 75
1, 15264, Note_on_c, 1, 50, 75
1, 15279, Note_on_c, 0, 77, 0
1, 15280, Note_on_c, 0, 78, 75
1, 15295, Note_on_c, 0, 78, 0
1, 15296, Note_on_c, 0, 81, 75
1, 15309, Note_on_c, 1, 62, 0
1, 15309, Note_on_c, 1, 50, 0
1, 15311, Note_on_c, 0, 81, 0
1, 15312, Note_on_c, 0, 77, 75
1, 15327, Note_on_c, 0, 77, 0
1, 15328, Note_on_c, 0, 78, 75
1, 15343, Note_on_c, 0, 78, 0
1, 15344, Note_on_c, 0, 81, 75
1, 15359, Note_on_c, 0, 81, 0
1, 15360, Note_on_c, 0, 73, 75
1, 15360, Note_on_c, 1, 50, 75
1, 15360, Note_on_c, 1, 38, 75
1, 15375, Note_on_c, 0, 73, 0
1, 15376, Note_on_c, 0, 74, 75
1, 15391, Note_on_c, 0, 74, 0
1, 15392, Note_on_c, 0, 78, 75
1, 15405, Note_on_c, 1, 50, 0
1, 15405, Note_on_c, 1, 38, 0
1, 15407, Note_on_c, 0, 78, 0
1, 15408, Note_on_c, 0, 73, 75
1, 15423, Note_on_c, 0, 73, 0
1, 15424, Note_on_c, 0, 74, 75
1, 15439, Note_on_c, 0, 74, 0
1, 15440, Note_on_c, 0, 78, 75
1, 15455, Note_on_c, 0, 78, 0
1, 15456, Note_on_c, 0, 70, 75
1, 15456, Note_on_c, 1, 50, 75
1, 15456, Note_on_c, 1, 38, 75
1, 15471, Note_on_c, 0, 70, 0
1, 15472, Note_on_c, 0, 71, 75
1, 15487, Note_on_c, 0, 71, 0
1, 15488, Note_on_c, 0, 74, 75
1, 15501, Note_on_c, 1, 50, 0
1, 15501, Note_on_c, 1, 38, 0
1, 15503, Note_on_c, 0, 74, 0
1, 15504, Note_on_c, 0, 70, 75
1, 15519, Note_on_c, 0, 70, 0
1, 15520, Note_on_c, 0, 71, 75
1, 15535, Note_on_c, 0, 71, 0
1, 15536, Note_on_c, 0, 74, 75
1, 15551, Note_on_c, 0, 74, 0
1, 15552, Note_on_c, 0, 64, 75
1, 15552, Note_on_c, 1, 49, 61
1, 15567, Note_on_c, 1, 49, 0
1, 15568, Note_on_c, 1, 52, 61
1, 15583, Note_on_c, 1, 52, 0
1, 15584, Note_on_c, 1, 57, 61
1, 15599, Note_on_c, 1, 57, 0
1, 15600, Note_on_c, 1, 49, 61
1, 15615, Note_on_c, 1, 49, 0
1, 15616, Note_on_c, 1, 52, 61
1, 15631, Note_on_c, 1, 52, 0
1, 15632, Note_on_c, 1, 57, 61
1, 15641, Note_on_c, 0, 64, 0
1, 15647, Note_on_c, 1, 57, 0
1, 15648, Note_on_c, 0, 71, 75
1, 15648, Note_on_c, 1, 50, 61
1, 15657, Note_on_c, 0, 71, 0
1, 15657, Note_on_c, 0, 73, 75
1, 15663, Note_on_c, 1, 50, 0
1, 15664, Note_on_c, 1, 54, 61
1, 15666, Note_on_c, 0, 73, 0
1, 15666, Note_on_c, 0, 71, 75
1, 15675, Note_on_c, 0, 71, 0
1, 15675, Note_on_c, 0, 73, 75
1, 15679, Note_on_c, 1, 54, 0
1, 15680, Note_on_c, 1, 59, 61
1, 15684, Note_on_c, 0, 73, 0
1, 15684, Note_on_c, 0, 71, 75
1, 15693, Note_on_c, 0, 71, 0
1, 15693, Note_on_c, 0, 73, 75
1, 15695, Note_on_c, 1, 59, 0
1, 15696, Note_on_c, 1, 52, 61
1, 15702, Note_on_c, 0, 73, 0
1, 15702, Note_on_c, 0, 71, 75
1, 15711, Note_on_c, 0, 71, 0
1, 15711, Note_on_c, 0, 73, 75
1, 15711, Note_on_c, 1, 52, 0
1, 15712, Note_on_c, 1, 59, 61
1, 15720, Note_on_c, 0, 73, 0
1, 15720, Note_on_c, 0, 71, 75
1, 15727, Note_on_c, 1, 59, 0
1, 15728, Note_on_c, 0, 71, 0
1, 15728, Note_on_c, 0, 69, 75
1, 15728, Note_on_c, 1, 62, 61
1, 15736, Note_on_c, 0, 69, 0
1, 15736, Note_on_c, 0, 71, 75
1, 15743, Note_on_c, 1, 62, 0
1, 15744, Note_on_c, 0, 71, 0
1, 15744, Note_on_c, 0, 69, 75
1, 15744, Note_on_c, 1, 57, 53
1, 15759, Note_on_c, 1, 57, 0
1, 15760, Note_on_c, 1, 61, 53
1, 15775, Note_on_c, 1, 61, 0
1, 15776, Note_on_c, 1, 64, 53
1, 15789, Note_on_c, 0, 69, 0
1, 15791, Note_on_c, 1, 64, 0
1, 15792, Note_on_c, 1, 57, 53
1, 15807, Note_on_c, 1, 57, 0
1, 15808, Note_on_c, 1, 61, 53
1, 15823, Note_on_c, 1, 61, 0
1, 15824, Note_on_c, 1, 64, 53
1, 15839, Note_on_c, 1, 64, 0
1, 15840, Note_on_c, 0, 76, 69
1, 15840, Note_on_c, 1, 52, 53
1, 15855, Note_on_c, 1, 52, 0
1, 15856, Note_on_c, 1, 59, 53
1, 15864, Note_on_c, 0, 76, 0
1, 15864, Note_on_c, 0, 74, 69
1, 15871, Note_on_c, 1, 59, 0
1, 15872, Note_on_c, 1, 64, 53
1, 15887, Note_on_c, 0, 74, 0
1, 15887, Note_on_c, 1, 64, 0
1, 15888, Note_on_c, 0, 71, 69
1, 15888, Note_on_c, 1, 52, 53
1, 15903, Note_on_c, 1, 52, 0
1, 15904, Note_on_c, 1, 59, 53
1, 15919, Note_on_c, 1, 59, 0
1, 15920, Note_on_c, 1, 64, 53
1, 15922, Note_on_c, 0, 71, 0
1, 15924, Note_on_c, 0, 68, 69
1, 15935, Note_on_c, 1, 64, 0
1, 15936, Note_on_c, 0, 68, 0
1, 15936, Note_on_c, 0, 69, 69
1, 15936, Note_on_c, 1, 57, 53
1, 15951, Note_on_c, 1, 57, 0
1, 15952, Note_on_c, 1, 61, 53
1, 15967, Note_on_c, 1, 61, 0
1, 15968, Note_on_c, 1, 64, 53
1, 15981, Note_on_c, 0, 69, 0
1, 15983, Note_on_c, 1, 64, 0
1, 15984, Note_on_c, 1, 57, 53
1, 15999, Note_on_c, 1, 57, 0
1, 16000, Note_on_c, 1, 61, 53
1, 16015, Note_on_c, 1, 61, 0
1, 16016, Note_on_c, 1, 64, 53
1, 16031, Note_on_c, 1, 64, 0
1, 16032, Note_on_c, 0, 76, 61
1, 16032, Note_on_c, 1, 52, 53
1, 16047, Note_on_c, 1, 52, 0
1, 16048, Note_on_c, 1, 59, 53
1, 16056, Note_on_c, 0, 76, 0
1, 16056, Note_on_c, 0, 74, 61
1, 16063, Note_on_c, 1, 59, 0
1, 16064, Note_on_c, 1, 64, 53
1, 16079, Note_on_c, 0, 74, 0
1, 16079, Note_on_c, 1, 64, 0
1, 16080, Note_on_c, 0, 71, 61
1, 16080, Note_on_c, 1, 52, 53
1, 16095, Note_on_c, 1, 52, 0
1, 16096, Note_on_c, 1, 59, 53
1, 16111, Note_on_c, 1, 59, 0
1, 16112, Note_on_c, 1, 64, 53
1, 16114, Note_on_c, 0, 71, 0
1, 16116, Note_on_c, 0, 68, 61
1, 16127, Note_on_c, 1, 64, 0
1, 16128, Note_on_c, 0, 68, 0
1, 16128, Note_on_c, 0, 69, 61
1, 16128, Note_on_c, 1, 57, 53
1, 16143, Note_on_c, 1, 57, 0
1, 16144, Note_on_c, 1, 61, 53
1, 16159, Note_on_c, 1, 61, 0
1, 16160, Note_on_c, 1, 64, 53
1, 16175, Note_on_c, 1, 64, 0
1, 16176, Note_on_c, 1, 57, 53
1, 16191, Note_on_c, 1, 57, 0
1, 16192, Note_on_c, 1, 61, 53
1, 16207, Note_on_c, 1, 61, 0
1, 16208, Note_on_c, 1, 64, 53
1, 16217, Note_on_c, 0, 69, 0
1, 16223, Note_on_c, 1, 64, 0
1, 16224, Note_on_c, 0, 33, 75
1, 16224, Note_on_c, 1, 57, 53
1, 16239, Note_on_c, 1, 57, 0
1, 16240, Note_on_c, 1, 61, 53
1, 16255, Note_on_c, 1, 61, 0
1, 16256, Note_on_c, 1, 64, 53
1, 16271, Note_on_c, 1, 64, 0
1, 16272, Note_on_c, 1, 57, 53
1, 16287, Note_on_c, 1, 57, 0
1, 16288, Note_on_c, 1, 61, 53
1, 16291, Note_on_c, 0, 33, 0
1, 16296, Note_on_c, 0, 33, 75
1, 16303, Note_on_c, 1, 61, 0
1, 16304, Note_on_c, 1, 64, 53
1, 16319, Note_on_c, 0, 33, 0
1, 16319, Note_on_c, 1, 64, 0
1, 16320, Note_on_c, 0, 33, 75
1, 16320, Note_on_c, 1, 57, 53
1, 16409, Note_on_c, 0, 33, 0
1, 16409, Note_on_c, 1, 57, 0
1, 16500, Note_on_c, 0, 57, 75
1, 16512, Note_on_c, 0, 57, 0
1, 16512, Note_on_c, 0, 66, 75
1, 16560, Note_on_c, 1, 38, 77
1, 16605, Note_on_c, 1, 38, 0
1, 16608, Note_on_c, 1, 50, 79
1, 16642, Note_on_c, 0, 66, 0
1, 16644, Note_on_c, 0, 57, 80
1, 16653, Note_on_c, 1, 50, 0
1, 16656, Note_on_c, 0, 57, 0
1, 16656, Note_on_c, 0, 67, 80
1, 16656, Note_on_c, 1, 49, 81
1, 16690, Note_on_c, 0, 67, 0
1, 16692, Note_on_c, 0, 57, 82
1, 16701, Note_on_c, 1, 49, 0
1, 16704, Note_on_c, 0, 57, 0
1, 16704, Note_on_c, 0, 66, 82
1, 16704, Note_on_c, 1, 50, 84
1, 16738, Note_on_c, 0, 66, 0
1, 16740, Note_on_c, 0, 57, 84
1, 16749, Note_on_c, 1, 50, 0
1, 16752, Note_on_c, 0, 57, 0
1, 16752, Note_on_c, 0, 64, 83
1, 16752, Note_on_c, 1, 55, 81
1, 16786, Note_on_c, 0, 64, 0
1, 16788, Note_on_c, 0, 57, 81
1, 16797, Note_on_c, 1, 55, 0
1, 16800, Note_on_c, 0, 57, 0
1, 16800, Note_on_c, 0, 62, 80
1, 16800, Note_on_c, 1, 54, 79
1, 16834, Note_on_c, 0, 62, 0
1, 16836, Note_on_c, 0, 57, 78
1, 16845, Note_on_c, 1, 54, 0
1, 16848, Note_on_c, 0, 57, 0
1, 16848, Note_on_c, 0, 64, 77
1, 16848, Note_on_c, 1, 49, 77
1, 16882, Note_on_c, 0, 64, 0
1, 16884, Note_on_c, 0, 57, 75
1, 16893, Note_on_c, 1, 49, 0
1, 16896, Note_on_c, 0, 57, 0
1, 16896, Note_on_c, 0, 66, 75
1, 16944, Note_on_c, 1, 38, 77
1, 16989, Note_on_c, 1, 38, 0
1, 16992, Note_on_c, 1, 50, 79
1, 17026, Note_on_c, 0, 66, 0
1, 17028, Note_on_c, 0, 57, 80
1, 17037, Note_on_c, 1, 50, 0
1, 17040, Note_on_c, 0, 57, 0
1, 17040, Note_on_c, 0, 67, 80
1, 17040, Note_on_c, 1, 49, 81
1, 17074, Note_on_c, 0, 67, 0
1, 17076, Note_on_c, 0, 57, 82
1, 17085, Note_on_c, 1, 49, 0
1, 17088, Note_on_c, 0, 57, 0
1, 17088, Note_on_c, 0, 66, 82
1, 17088, Note_on_c, 1, 50, 84
1, 17122, Note_on_c, 0, 66, 0
1, 17124, Note_on_c, 0, 57, 84
1, 17133, Note_on_c, 1, 50, 0
1, 17136, Note_on_c, 0, 57, 0
1, 17136, Note_on_c, 0, 64, 83
1, 17136, Note_on_c, 1, 55, 81
1, 17170, Note_on_c, 0, 64, 0
1, 17172, Note_on_c, 0, 57, 81
1, 17181, Note_on_c, 1, 55, 0
1, 17184, Note_on_c, 0, 57, 0
1, 17184, Note_on_c, 0, 62, 80
1, 17184, Note_on_c, 1, 54, 79
1, 17218, Note_on_c, 0, 62, 0
1, 17220, Note_on_c, 0, 57, 78
1, 17229, Note_on_c, 1, 54, 0
1, 17232, Note_on_c, 0, 57, 0
1, 17232, Note_on_c, 0, 64, 77
1, 17232, Note_on_c, 1, 49, 77
1, 17266, Note_on_c, 0, 64, 0
1, 17268, Note_on_c, 0, 57, 75
1, 17277, Note_on_c, 1, 49, 0
1, 17280, Note_on_c, 0, 57, 0
1, 17280, Note_on_c, 0, 66, 75
1, 17280, Note_on_c, 1, 50, 75
1, 17314, Note_on_c, 0, 66, 0
1, 17316, Note_on_c, 0, 57, 77
1, 17325, Note_on_c, 1, 50, 0
1, 17328, Note_on_c, 0, 57, 0
1, 17328, Note_on_c, 0, 67, 78
1, 17328, Note_on_c, 1, 52, 78
1, 17362, Note_on_c, 0, 67, 0
1, 17364, Note_on_c, 0, 57, 80
1, 17373, Note_on_c, 1, 52, 0
1, 17376, Note_on_c, 0, 57, 0
1, 17376, Note_on_c, 0, 69, 81
1, 17376, Note_on_c, 1, 54, 81
1, 17396, Note_on_c, 0, 69, 0
1, 17421, Note_on_c, 1, 54, 0
1, 17472, Note_on_c, 0, 66, 75
1, 17472, Note_on_c, 1, 50, 75
1, 17487, Note_on_c, 0, 66, 0
1, 17488, Note_on_c, 0, 62, 75
1, 17503, Note_on_c, 0, 62, 0
1, 17504, Note_on_c, 0, 57, 76
1, 17517, Note_on_c, 1, 50, 0
1, 17519, Note_on_c, 0, 57, 0
1, 17520, Note_on_c, 0, 67, 77
1, 17520, Note_on_c, 1, 52, 78
1, 17535, Note_on_c, 0, 67, 0
1, 17536, Note_on_c, 0, 64, 78
1, 17551, Note_on_c, 0, 64, 0
1, 17552, Note_on_c, 0, 57, 78
1, 17565, Note_on_c, 1, 52, 0
1, 17567, Note_on_c, 0, 57, 0
1, 17568, Note_on_c, 0, 69, 79
1, 17568, Note_on_c, 1, 54, 81
1, 17588, Note_on_c, 0, 69, 0
1, 17613, Note_on_c, 1, 54, 0
1, 17664, Note_on_c, 0, 78, 75
1, 17712, Note_on_c, 1, 38, 69
1, 17757, Note_on_c, 1, 38, 0
1, 17760, Note_on_c, 1, 38, 69
1, 17797, Note_on_c, 0, 78, 0
1, 17805, Note_on_c, 1, 38, 0
1, 17808, Note_on_c, 0, 69, 75
1, 17808, Note_on_c, 1, 38, 69
1, 17853, Note_on_c, 0, 69, 0
1, 17853, Note_on_c, 1, 38, 0
1, 17856, Note_on_c, 0, 66, 91
1, 17904, Note_on_c, 0, 66, 0
1, 17904, Note_on_c, 0, 67, 75
1, 17904, Note_on_c, 1, 40, 69
1, 17949, Note_on_c, 1, 40, 0
1, 17952, Note_on_c, 1, 40, 69
1, 17997, Note_on_c, 1, 40, 0
1, 18000, Note_on_c, 1, 40, 69
1, 18037, Note_on_c, 0, 67, 0
1, 18045, Note_on_c, 1, 40, 0
1, 18048, Note_on_c, 0, 81, 75
1, 18060, Note_on_c, 0, 81, 0
1, 18060, Note_on_c, 0, 79, 75
1, 18072, Note_on_c, 0, 79, 0
1, 18072, Note_on_c, 0, 78, 75
1, 18084, Note_on_c, 0, 78, 0
1, 18084, Note_on_c, 0, 79, 75
1, 18096, Note_on_c, 1, 33, 69
1, 18141, Note_on_c, 1, 33, 0
1, 18144, Note_on_c, 1, 33, 69
1, 18181, Note_on_c, 0, 79, 0
1, 18189, Note_on_c, 1, 33, 0
1, 18192, Note_on_c, 0, 67, 75
1, 18192, Note_on_c, 1, 33, 69
1, 18237, Note_on_c, 0, 67, 0
1, 18237, Note_on_c, 1, 33, 0
1, 18240, Note_on_c, 0, 65, 91
1, 18288, Note_on_c, 0, 65, 0
1, 18288, Note_on_c, 0, 66, 75
1, 18288, Note_on_c, 1, 38, 69
1, 18333, Note_on_c, 1, 38, 0
1, 18336, Note_on_c, 1, 38, 69
1, 18381, Note_on_c, 1, 38, 0
1, 18384, Note_on_c, 1, 38, 69
1, 18421, Note_on_c, 0, 66, 0
1, 18429, Note_on_c, 1, 38, 0
1, 18432, Note_on_c, 0, 62, 75
1, 18480, Note_on_c, 1, 42, 69
1, 18525, Note_on_c, 1, 42, 0
1, 18528, Note_on_c, 1, 42, 69
1, 18565, Note_on_c, 0, 62, 0
1, 18573, Note_on_c, 1, 42, 0
1, 18576, Note_on_c, 0, 66, 75
1, 18576, Note_on_c, 1, 42, 69
1, 18588, Note_on_c, 0, 66, 0
1, 18588, Note_on_c, 0, 62, 75
1, 18621, Note_on_c, 0, 62, 0
1, 18621, Note_on_c, 1, 42, 0
1, 18624, Note_on_c, 0, 61, 75
1, 18636, Note_on_c, 0, 61, 0
1, 18636, Note_on_c, 0, 59, 75
1, 18672, Note_on_c, 1, 43, 69
1, 18717, Note_on_c, 1, 43, 0
1, 18720, Note_on_c, 1, 43, 69
1, 18757, Note_on_c, 0, 59, 0
1, 18765, Note_on_c, 1, 43, 0
1, 18768, Note_on_c, 0, 62, 75
1, 18768, Note_on_c, 1, 43, 69
1, 18780, Note_on_c, 0, 62, 0
1, 18780, Note_on_c, 0, 59, 75
1, 18813, Note_on_c, 0, 59, 0
1, 18813, Note_on_c, 1, 43, 0
1, 18816, Note_on_c, 0, 59, 75
1, 18828, Note_on_c, 0, 59, 0
1, 18828, Note_on_c, 0, 57, 75
1, 18864, Note_on_c, 1, 42, 69
1, 18909, Note_on_c, 1, 42, 0
1, 18912, Note_on_c, 1, 42, 69
1, 18949, Note_on_c, 0, 57, 0
1, 18957, Note_on_c, 1, 42, 0
1, 18960, Note_on_c, 0, 66, 75
1, 18960, Note_on_c, 1, 42, 69
1, 18972, Note_on_c, 0, 66, 0
1, 18972, Note_on_c, 0, 62, 75
1, 19005, Note_on_c, 0, 62, 0
1, 19005, Note_on_c, 1, 42, 0
1, 19008, Note_on_c, 0, 61, 75
1, 19008, Note_on_c, 1, 43, 69
1, 19020, Note_on_c, 0, 61, 0
1, 19020, Note_on_c, 0, 59, 75
1, 19053, Note_on_c, 0, 59, 0
1, 19053, Note_on_c, 1, 43, 0
1, 19056, Note_on_c, 0, 62, 75
1, 19068, Note_on_c, 0, 62, 0
1, 19068, Note_on_c, 0, 59, 75
1, 19101, Note_on_c, 0, 59, 0
1, 19104, Note_on_c, 0, 59, 75
1, 19104, Note_on_c, 1, 42, 69
1, 19116, Note_on_c, 0, 59, 0
1, 19116, Note_on_c, 0, 57, 75
1, 19149, Note_on_c, 0, 57, 0
1, 19149, Note_on_c, 1, 42, 0
1, 19152, Note_on_c, 0, 57, 75
1, 19164, Note_on_c, 0, 57, 0
1, 19164, Note_on_c, 0, 62, 75
1, 19176, Note_on_c, 0, 62, 0
1, 19176, Note_on_c, 0, 66, 75
1, 19188, Note_on_c, 0, 66, 0
1, 19188, Note_on_c, 0, 69, 75
1, 19200, Note_on_c, 0, 69, 0
1, 19200, Note_on_c, 0, 57, 75
1, 19248, Note_on_c, 1, 54, 69
1, 19289, Note_on_c, 0, 57, 0
1, 19293, Note_on_c, 1, 54, 0
1, 19296, Note_on_c, 0, 55, 75
1, 19296, Note_on_c, 1, 52, 69
1, 19305, Note_on_c, 0, 55, 0
1, 19305, Note_on_c, 0, 57, 75
1, 19314, Note_on_c, 0, 57, 0
1, 19314, Note_on_c, 0, 55, 75
1, 19323, Note_on_c, 0, 55, 0
1, 19323, Note_on_c, 0, 57, 75
1, 19332, Note_on_c, 0, 57, 0
1, 19332, Note_on_c, 0, 55, 75
1, 19341, Note_on_c, 0, 55, 0
1, 19341, Note_on_c, 0, 57, 75
1, 19341, Note_on_c, 1, 52, 0
1, 19344, Note_on_c, 1, 45, 69
1, 19350, Note_on_c, 0, 57, 0
1, 19350, Note_on_c, 0, 55, 75
1, 19359, Note_on_c, 0, 55, 0
1, 19359, Note_on_c, 0, 57, 75
1, 19368, Note_on_c, 0, 57, 0
1, 19368, Note_on_c, 0, 55, 75
1, 19376, Note_on_c, 0, 55, 0
1, 19376, Note_on_c, 0, 54, 75
1, 19384, Note_on_c, 0, 54, 0
1, 19384, Note_on_c, 0, 55, 75
1, 19389, Note_on_c, 1, 45, 0
1, 19392, Note_on_c, 0, 55, 0
1, 19392, Note_on_c, 0, 55, 75
1, 19392, Note_on_c, 1, 50, 69
1, 19437, Note_on_c, 1, 50, 0
1, 19440, Note_on_c, 0, 55, 0
1, 19440, Note_on_c, 0, 54, 75
1, 19440, Note_on_c, 1, 45, 69
1, 19481, Note_on_c, 0, 54, 0
1, 19485, Note_on_c, 1, 45, 0
1, 19488, Note_on_c, 1, 38, 69
1, 19535, Note_on_c, 1, 38, 0
1, 19572, Note_on_c, 0, 57, 75
1, 19584, Note_on_c, 0, 57, 0
1, 19584, Note_on_c, 0, 66, 75
1, 19632, Note_on_c, 1, 38, 76
1, 19677, Note_on_c, 1, 38, 0
1, 19680, Note_on_c, 1, 50, 78
1, 19714, Note_on_c, 0, 66, 0
1, 19716, Note_on_c, 0, 57, 80
1, 19725, Note_on_c, 1, 50, 0
1, 19728, Note_on_c, 0, 57, 0
1, 19728, Note_on_c, 0, 67, 80
1, 19728, Note_on_c, 1, 49, 80
1, 19762, Note_on_c, 0, 67, 0
1, 19764, Note_on_c, 0, 57, 82
1, 19773, Note_on_c, 1, 49, 0
1, 19776, Note_on_c, 0, 57, 0
1, 19776, Note_on_c, 0, 66, 82
1, 19776, Note_on_c, 1, 50, 82
1, 19810, Note_on_c, 0, 66, 0
1, 19812, Note_on_c, 0, 57, 84
1, 19821, Note_on_c, 1, 50, 0
1, 19824, Note_on_c, 0, 57, 0
1, 19824, Note_on_c, 0, 64, 83
1, 19824, Note_on_c, 1, 55, 84
1, 19858, Note_on_c, 0, 64, 0
1, 19860, Note_on_c, 0, 57, 81
1, 19869, Note_on_c, 1, 55, 0
1, 19872, Note_on_c, 0, 57, 0
1, 19872, Note_on_c, 0, 62, 80
1, 19872, Note_on_c, 1, 54, 81
1, 19906, Note_on_c, 0, 62, 0
1, 19908, Note_on_c, 0, 57, 78
1, 19917, Note_on_c, 1, 54, 0
1, 19920, Note_on_c, 0, 57, 0
1, 19920, Note_on_c, 0, 64, 77
1, 19920, Note_on_c, 1, 49, 78
1, 19954, Note_on_c, 0, 64, 0
1, 19956, Note_on_c, 0, 57, 75
1, 19965, Note_on_c, 1, 49, 0
1, 19968, Note_on_c, 0, 57, 0
1, 19968, Note_on_c, 0, 66, 75
1, 20016, Note_on_c, 1, 38, 75
1, 20061, Note_on_c, 1, 38, 0
1, 20064, Note_on_c, 1, 50, 75
1, 20079, Note_on_c, 0, 66, 0
1, 20080, Note_on_c, 0, 62, 75
1, 20095, Note_on_c, 0, 62, 0
1, 20096, Note_on_c, 0, 57, 75
1, 20109, Note_on_c, 1, 50, 0
1, 20111, Note_on_c, 0, 57, 0
1, 20112, Note_on_c, 0, 67, 75
1, 20112, Note_on_c, 1, 49, 76
1, 20127, Note_on_c, 0, 67, 0
1, 20128, Note_on_c, 0, 64, 76
1, 20143, Note_on_c, 0, 64, 0
1, 20144, Note_on_c, 0, 57, 76
1, 20157, Note_on_c, 1, 49, 0
1, 20159, Note_on_c, 0, 57, 0
1, 20160, Note_on_c, 0, 66, 76
1, 20160, Note_on_c, 1, 50, 77
1, 20175, Note_on_c, 0, 66, 0
1, 20176, Note_on_c, 0, 62, 76
1, 20191, Note_on_c, 0, 62, 0
1, 20192, Note_on_c, 0, 57, 77
1, 20205, Note_on_c, 1, 50, 0
1, 20207, Note_on_c, 0, 57, 0
1, 20208, Note_on_c, 0, 64, 77
1, 20208, Note_on_c, 1, 55, 78
1, 20223, Note_on_c, 0, 64, 0
1, 20224, Note_on_c, 0, 61, 77
1, 20239, Note_on_c, 0, 61, 0
1, 20240, Note_on_c, 0, 57, 77
1, 20253, Note_on_c, 1, 55, 0
1, 20255, Note_on_c, 0, 57, 0
1, 20256, Note_on_c, 0, 61, 78
1, 20256, Note_on_c, 1, 54, 79
1, 20271, Note_on_c, 0, 61, 0
1, 20272, Note_on_c, 0, 62, 78
1, 20287, Note_on_c, 0, 62, 0
1, 20288, Note_on_c, 0, 57, 78
1, 20301, Note_on_c, 1, 54, 0
1, 20303, Note_on_c, 0, 57, 0
1, 20304, Note_on_c, 0, 63, 78
1, 20304, Note_on_c, 1, 49, 80
1, 20319, Note_on_c, 0, 63, 0
1, 20320, Note_on_c, 0, 64, 79
1, 20335, Note_on_c, 0, 64, 0
1, 20336, Note_on_c, 0, 57, 79
1, 20349, Note_on_c, 1, 49, 0
1, 20351, Note_on_c, 0, 57, 0
1, 20352, Note_on_c, 0, 65, 79
1, 20352, Note_on_c, 1, 50, 81
1, 20367, Note_on_c, 0, 65, 0
1, 20368, Note_on_c, 0, 66, 79
1, 20383, Note_on_c, 0, 66, 0
1, 20384, Note_on_c, 0, 57, 80
1, 20397, Note_on_c, 1, 50, 0
1, 20399, Note_on_c, 0, 57, 0
1, 20400, Note_on_c, 0, 66, 80
1, 20400, Note_on_c, 1, 52, 82
1, 20415, Note_on_c, 0, 66, 0
1, 20416, Note_on_c, 0, 67, 80
1, 20431, Note_on_c, 0, 67, 0
1, 20432, Note_on_c, 0, 57, 80
1, 20445, Note_on_c, 1, 52, 0
1, 20447, Note_on_c, 0, 57, 0
1, 20448, Note_on_c, 0, 69, 81
1, 20448, Note_on_c, 1, 54, 83
1, 20468, Note_on_c, 0, 69, 0
1, 20493, Note_on_c, 1, 54, 0
1, 20544, Note_on_c, 0, 66, 75
1, 20544, Note_on_c, 1, 50, 75
1, 20559, Note_on_c, 0, 66, 0
1, 20560, Note_on_c, 0, 62, 75
1, 20575, Note_on_c, 0, 62, 0
1, 20576, Note_on_c, 0, 57, 76
1, 20589, Note_on_c, 1, 50, 0
1, 20591, Note_on_c, 0, 57, 0
1, 20592, Note_on_c, 0, 67, 77
1, 20592, Note_on_c, 1, 52, 78
1, 20607, Note_on_c, 0, 67, 0
1, 20608, Note_on_c, 0, 64, 78
1, 20623, Note_on_c, 0, 64, 0
1, 20624, Note_on_c, 0, 57, 78
1, 20637, Note_on_c, 1, 52, 0
1, 20639, Note_on_c, 0, 57, 0
1, 20640, Note_on_c, 0, 69, 79
1, 20640, Note_on_c, 1, 54, 81
1, 20660, Note_on_c, 0, 69, 0
1, 20685, Note_on_c, 1, 54, 0
1, 20736, Note_on_c, 0, 78, 75
1, 20784, Note_on_c, 1, 38, 69
1, 20825, Note_on_c, 0, 78, 0
1, 20829, Note_on_c, 1, 38, 0
1, 20832, Note_on_c, 0, 79, 75
1, 20832, Note_on_c, 1, 38, 69
1, 20844, Note_on_c, 0, 79, 0
1, 20844, Note_on_c, 0, 78, 75
1, 20856, Note_on_c, 0, 78, 0
1, 20856, Note_on_c, 0, 76, 75
1, 20868, Note_on_c, 0, 76, 0
1, 20868, Note_on_c, 0, 74, 75
1, 20877, Note_on_c, 1, 38, 0
1, 20880, Note_on_c, 0, 74, 0
1, 20880, Note_on_c, 0, 74, 75
1, 20880, Note_on_c, 1, 38, 69
1, 20892, Note_on_c, 0, 74, 0
1, 20892, Note_on_c, 0, 73, 75
1, 20904, Note_on_c, 0, 73, 0
1, 20904, Note_on_c, 0, 71, 75
1, 20916, Note_on_c, 0, 71, 0
1, 20916, Note_on_c, 0, 69, 75
1, 20925, Note_on_c, 1, 38, 0
1, 20928, Note_on_c, 0, 69, 0
1, 20928, Note_on_c, 0, 69, 75
1, 20976, Note_on_c, 1, 40, 69
1, 21021, Note_on_c, 1, 40, 0
1, 21024, Note_on_c, 0, 69, 0
1, 21024, Note_on_c, 0, 67, 75
1, 21024, Note_on_c, 1, 40, 69
1, 21047, Note_on_c, 0, 67, 0
1, 21048, Note_on_c, 0, 69, 75
1, 21060, Note_on_c, 0, 69, 0
1, 21060, Note_on_c, 0, 71, 75
1, 21069, Note_on_c, 1, 40, 0
1, 21072, Note_on_c, 0, 71, 0
1, 21072, Note_on_c, 0, 73, 75
1, 21072, Note_on_c, 1, 40, 69
1, 21084, Note_on_c, 0, 73, 0
1, 21084, Note_on_c, 0, 74, 75
1, 21096, Note_on_c, 0, 74, 0
1, 21096, Note_on_c, 0, 76, 75
1, 21108, Note_on_c, 0, 76, 0
1, 21108, Note_on_c, 0, 78, 75
1, 21117, Note_on_c, 1, 40, 0
1, 21120, Note_on_c, 0, 78, 0
1, 21120, Note_on_c, 0, 79, 75
1, 21168, Note_on_c, 1, 33, 69
1, 21187, Note_on_c, 0, 79, 0
1, 21192, Note_on_c, 0, 81, 75
1, 21213, Note_on_c, 1, 33, 0
1, 21215, Note_on_c, 0, 81, 0
1, 21216, Note_on_c, 0, 79, 75
1, 21216, Note_on_c, 1, 33, 69
1, 21228, Note_on_c, 0, 79, 0
1, 21228, Note_on_c, 0, 78, 75
1, 21240, Note_on_c, 0, 78, 0
1, 21240, Note_on_c, 0, 76, 75
1, 21252, Note_on_c, 0, 76, 0
1, 21252, Note_on_c, 0, 74, 75
1, 21261, Note_on_c, 1, 33, 0
1, 21264, Note_on_c, 0, 74, 0
1, 21264, Note_on_c, 0, 73, 75
1, 21264, Note_on_c, 1, 33, 69
1, 21276, Note_on_c, 0, 73, 0
1, 21276, Note_on_c, 0, 71, 75
1, 21288, Note_on_c, 0, 71, 0
1, 21288, Note_on_c, 0, 69, 75
1, 21300, Note_on_c, 0, 69, 0
1, 21300, Note_on_c, 0, 67, 75
1, 21309, Note_on_c, 1, 33, 0
1, 21312, Note_on_c, 0, 67, 0
1, 21312, Note_on_c, 0, 67, 75
1, 21360, Note_on_c, 1, 38, 69
1, 21405, Note_on_c, 1, 38, 0
1, 21408, Note_on_c, 0, 67, 0
1, 21408, Note_on_c, 0, 66, 75
1, 21408, Note_on_c, 1, 38, 69
1, 21453, Note_on_c, 0, 66, 0
1, 21453, Note_on_c, 1, 38, 0
1, 21456, Note_on_c, 1, 38, 69
1, 21501, Note_on_c, 1, 38, 0
1, 21504, Note_on_c, 0, 62, 75
1, 21552, Note_on_c, 1, 50, 69
1, 21552, Note_on_c, 1, 42, 69
1, 21599, Note_on_c, 1, 50, 0
1, 21599, Note_on_c, 1, 42, 0
1, 21600, Note_on_c, 1, 50, 69
1, 21600, Note_on_c, 1, 42, 69
1, 21637, Note_on_c, 0, 62, 0
1, 21647, Note_on_c, 1, 50, 0
1, 21647, Note_on_c, 1, 42, 0
1, 21648, Note_on_c, 0, 66, 75
1, 21648, Note_on_c, 1, 50, 69
1, 21648, Note_on_c, 1, 42, 69
1, 21660, Note_on_c, 0, 66, 0
1, 21660, Note_on_c, 0, 62, 75
1, 21693, Note_on_c, 0, 62, 0
1, 21695, Note_on_c, 1, 50, 0
1, 21695, Note_on_c, 1, 42, 0
1, 21696, Note_on_c, 0, 61, 75
1, 21708, Note_on_c, 0, 61, 0
1, 21708, Note_on_c, 0, 59, 75
1, 21744, Note_on_c, 1, 50, 69
1, 21744, Note_on_c, 1, 43, 69
1, 21791, Note_on_c, 1, 50, 0
1, 21791, Note_on_c, 1, 43, 0
1, 21792, Note_on_c, 1, 50, 69
1, 21792, Note_on_c, 1, 43, 69
1, 21829, Note_on_c, 0, 59, 0
1, 21839, Note_on_c, 1, 50, 0
1, 21839, Note_on_c, 1, 43, 0
1, 21840, Note_on_c, 0, 62, 75
1, 21840, Note_on_c, 1, 50, 69
1, 21840, Note_on_c, 1, 43, 69
1, 21852, Note_on_c, 0, 62, 0
1, 21852, Note_on_c, 0, 59, 75
1, 21885, Note_on_c, 0, 59, 0
1, 21887, Note_on_c, 1, 50, 0
1, 21887, Note_on_c, 1, 43, 0
1, 21888, Note_on_c, 0, 59, 75
1, 21900, Note_on_c, 0, 59, 0
1, 21900, Note_on_c, 0, 57, 75
1, 21936, Note_on_c, 1, 50, 69
1, 21936, Note_on_c, 1, 42, 69
1, 21983, Note_on_c, 1, 50, 0
1, 21983, Note_on_c, 1, 42, 0
1, 21984, Note_on_c, 1, 50, 69
1, 21984, Note_on_c, 1, 42, 69
1, 22021, Note_on_c, 0, 57, 0
1, 22031, Note_on_c, 1, 50, 0
1, 22031, Note_on_c, 1, 42, 0
1, 22032, Note_on_c, 0, 66, 75
1, 22032, Note_on_c, 1, 50, 69
1, 22032, Note_on_c, 1, 42, 69
1, 22044, Note_on_c, 0, 66, 0
1, 22044, Note_on_c, 0, 62, 75
1, 22077, Note_on_c, 0, 62, 0
1, 22079, Note_on_c, 1, 50, 0
1, 22079, Note_on_c, 1, 42, 0
1, 22080, Note_on_c, 0, 61, 75
1, 22080, Note_on_c, 1, 50, 69
1, 22080, Note_on_c, 1, 43, 69
1, 22092, Note_on_c, 0, 61, 0
1, 22092, Note_on_c, 0, 59, 75
1, 22125, Note_on_c, 0, 59, 0
1, 22125, Note_on_c, 1, 50, 0
1, 22125, Note_on_c, 1, 43, 0
1, 22128, Note_on_c, 0, 62, 75
1, 22140, Note_on_c, 0, 62, 0
1, 22140, Note_on_c, 0, 59, 75
1, 22173, Note_on_c, 0, 59, 0
1, 22176, Note_on_c, 0, 59, 75
1, 22176, Note_on_c, 1, 50, 69
1, 22176, Note_on_c, 1, 42, 69
1, 22188, Note_on_c, 0, 59, 0
1, 22188, Note_on_c, 0, 57, 75
1, 22221, Note_on_c, 0, 57, 0
1, 22221, Note_on_c, 1, 50, 0
1, 22221, Note_on_c, 1, 42, 0
1, 22224, Note_on_c, 0, 66, 75
1, 22236, Note_on_c, 0, 66, 0
1, 22236, Note_on_c, 0, 62, 75
1, 22269, Note_on_c, 0, 62, 0
1, 22272, Note_on_c, 0, 61, 75
1, 22272, Note_on_c, 1, 50, 69
1, 22272, Note_on_c, 1, 43, 69
1, 22284, Note_on_c, 0, 61, 0
1, 22284, Note_on_c, 0, 59, 75
1, 22317, Note_on_c, 0, 59, 0
1, 22317, Note_on_c, 1, 50, 0
1, 22317, Note_on_c, 1, 43, 0
1, 22320, Note_on_c, 0, 62, 75
1, 22332, Note_on_c, 0, 62, 0
1, 22332, Note_on_c, 0, 59, 75
1, 22365, Note_on_c, 0, 59, 0
1, 22368, Note_on_c, 0, 59, 75
1, 22368, Note_on_c, 1, 50, 69
1, 22368, Note_on_c, 1, 42, 69
1, 22380, Note_on_c, 0, 59, 0
1, 22380, Note_on_c, 0, 57, 75
1, 22413, Note_on_c, 0, 57, 0
1, 22413, Note_on_c, 1, 50, 0
1, 22413, Note_on_c, 1, 42, 0
1, 22416, Note_on_c, 0, 57, 75
1, 22420, Note_on_c, 0, 57, 0
1, 22420, Note_on_c, 0, 62, 75
1, 22424, Note_on_c, 0, 62, 0
1, 22424, Note_on_c, 0, 66, 75
1, 22428, Note_on_c, 0, 66, 0
1, 22428, Note_on_c, 0, 69, 75
1, 22463, Note_on_c, 0, 69, 0
1, 22464, Note_on_c, 0, 64, 75
1, 22464, Note_on_c, 1, 49, 75
1, 22464, Note_on_c, 1, 45, 75
1, 22476, Note_on_c, 0, 64, 0
1, 22476, Note_on_c, 0, 67, 75
1, 22488, Note_on_c, 0, 67, 0
1, 22488, Note_on_c, 0, 69, 75
1, 22509, Note_on_c, 1, 49, 0
1, 22509, Note_on_c, 1, 45, 0
1, 22512, Note_on_c, 0, 69, 0
1, 22512, Note_on_c, 0, 62, 76
1, 22512, Note_on_c, 1, 50, 76
1, 22512, Note_on_c, 1, 45, 76
1, 22524, Note_on_c, 0, 62, 0
1, 22524, Note_on_c, 0, 66, 76
1, 22536, Note_on_c, 0, 66, 0
1, 22536, Note_on_c, 0, 69, 76
1, 22557, Note_on_c, 1, 50, 0
1, 22557, Note_on_c, 1, 45, 0
1, 22560, Note_on_c, 0, 69, 0
1, 22560, Note_on_c, 0, 61, 77
1, 22560, Note_on_c, 1, 55, 77
1, 22560, Note_on_c, 1, 45, 77
1, 22572, Note_on_c, 0, 61, 0
1, 22572, Note_on_c, 0, 64, 77
1, 22584, Note_on_c, 0, 64, 0
1, 22584, Note_on_c, 0, 69, 77
1, 22605, Note_on_c, 1, 55, 0
1, 22605, Note_on_c, 1, 45, 0
1, 22608, Note_on_c, 0, 69, 0
1, 22608, Note_on_c, 0, 62, 78
1, 22608, Note_on_c, 1, 54, 78
1, 22608, Note_on_c, 1, 45, 78
1, 22620, Note_on_c, 0, 62, 0
1, 22620, Note_on_c, 0, 66, 78
1, 22632, Note_on_c, 0, 66, 0
1, 22632, Note_on_c, 0, 69, 78
1, 22653, Note_on_c, 1, 54, 0
1, 22653, Note_on_c, 1, 45, 0
1, 22656, Note_on_c, 0, 69, 0
1, 22656, Note_on_c, 0, 64, 79
1, 22656, Note_on_c, 1, 49, 79
1, 22656, Note_on_c, 1, 45, 79
1, 22668, Note_on_c, 0, 64, 0
1, 22668, Note_on_c, 0, 67, 79
1, 22680, Note_on_c, 0, 67, 0
1, 22680, Note_on_c, 0, 69, 79
1, 22701, Note_on_c, 1, 49, 0
1, 22701, Note_on_c, 1, 45, 0
1, 22704, Note_on_c, 0, 69, 0
1, 22704, Note_on_c, 0, 62, 80
1, 22704, Note_on_c, 1, 50, 80
1, 22704, Note_on_c, 1, 45, 80
1, 22716, Note_on_c, 0, 62, 0
1, 22716, Note_on_c, 0, 66, 80
1, 22728, Note_on_c, 0, 66, 0
1, 22728, Note_on_c, 0, 69, 80
1, 22749, Note_on_c, 1, 50, 0
1, 22749, Note_on_c, 1, 45, 0
1, 22752, Note_on_c, 0, 69, 0
1, 22752, Note_on_c, 0, 61, 81
1, 22752, Note_on_c, 1, 55, 81
1, 22752, Note_on_c, 1, 45, 81
1, 22764, Note_on_c, 0, 61, 0
1, 22764, Note_on_c, 0, 64, 81
1, 22776, Note_on_c, 0, 64, 0
1, 22776, Note_on_c, 0, 69, 81
1, 22797, Note_on_c, 1, 55, 0
1, 22797, Note_on_c, 1, 45, 0
1, 22800, Note_on_c, 0, 69, 0
1, 22800, Note_on_c, 0, 62, 82
1, 22800, Note_on_c, 1, 54, 82
1, 22800, Note_on_c, 1, 45, 82
1, 22812, Note_on_c, 0, 62, 0
1, 22812, Note_on_c, 0, 66, 82
1, 22824, Note_on_c, 0, 66, 0
1, 22824, Note_on_c, 0, 69, 83
1, 22845, Note_on_c, 1, 54, 0
1, 22845, Note_on_c, 1, 45, 0
1, 22848, Note_on_c, 0, 69, 0
1, 22848, Note_on_c, 0, 64, 83
1, 22848, Note_on_c, 1, 49, 83
1, 22848, Note_on_c, 1, 45, 83
1, 22860, Note_on_c, 0, 64, 0
1, 22860, Note_on_c, 0, 67, 83
1, 22872, Note_on_c, 0, 67, 0
1, 22872, Note_on_c, 0, 69, 84
1, 22893, Note_on_c, 1, 49, 0
1, 22893, Note_on_c, 1, 45, 0
1, 22896, Note_on_c, 0, 69, 0
1, 22896, Note_on_c, 0, 62, 84
1, 22896, Note_on_c, 1, 50, 84
1, 22896, Note_on_c, 1, 45, 84
1, 22908, Note_on_c, 0, 62, 0
1, 22908, Note_on_c, 0, 66, 84
1, 22920, Note_on_c, 0, 66, 0
1, 22920, Note_on_c, 0, 69, 85
1, 22941, Note_on_c, 1, 50, 0
1, 22941, Note_on_c, 1, 45, 0
1, 22944, Note_on_c, 0, 69, 0
1, 22944, Note_on_c, 0, 64, 85
1, 22944, Note_on_c, 1, 49, 85
1, 22944, Note_on_c, 1, 45, 85
1, 22956, Note_on_c, 0, 64, 0
1, 22956, Note_on_c, 0, 67, 85
1, 22968, Note_on_c, 0, 67, 0
1, 22968, Note_on_c, 0, 69, 86
1, 22989, Note_on_c, 1, 49, 0
1, 22989, Note_on_c, 1, 45, 0
1, 22992, Note_on_c, 0, 69, 0
1, 22992, Note_on_c, 0, 62, 86
1, 22992, Note_on_c, 1, 50, 86
1, 22992, Note_on_c, 1, 45, 86
1, 23004, Note_on_c, 0, 62, 0
1, 23004, Note_on_c, 0, 66, 87
1, 23016, Note_on_c, 0, 66, 0
1, 23016, Note_on_c, 0, 69, 87
1, 23037, Note_on_c, 1, 50, 0
1, 23037, Note_on_c, 1, 45, 0
1, 23040, Note_on_c, 0, 69, 0
1, 23040, Note_on_c, 0, 69, 87
1, 23040, Note_on_c, 0, 64, 87
1, 23040, Note_on_c, 0, 61, 87
1, 23040, Note_on_c, 1, 57, 87
1, 23040, Note_on_c, 1, 52, 87
1, 23040, Note_on_c, 1, 49, 87
1, 23040, Note_on_c, 1, 45, 87
1, 23129, Note_on_c, 0, 69, 0
1, 23129, Note_on_c, 0, 64, 0
1, 23129, Note_on_c, 0, 61, 0
1, 23129, Note_on_c, 1, 57, 0
1, 23129, Note_on_c, 1, 52, 0
1, 23129, Note_on_c, 1, 49, 0
1, 23129, Note_on_c, 1, 45, 0
1, 23136, Note_on_c, 0, 57, 90
1, 23136, Note_on_c, 1, 45, 90
1, 23136, Note_on_c, 1, 33, 90
1, 23142, Note_on_c, 0, 61, 90
1, 23148, Note_on_c, 0, 64, 90
1, 23154, Note_on_c, 0, 69, 90
1, 23225, Note_on_c, 1, 45, 0
1, 23225, Note_on_c, 1, 33, 0
1, 23229, Note_on_c, 0, 69, 0
1, 23229, Note_on_c, 0, 64, 0
1, 23229, Note_on_c, 0, 61, 0
1, 23229, Note_on_c, 0, 57, 0
1, 23232, Note_on_c, 0, 57, 86
1, 23232, Note_on_c, 1, 45, 87
1, 23232, Note_on_c, 1, 33, 87
1, 23238, Note_on_c, 0, 61, 86
1, 23244, Note_on_c, 0, 64, 86
1, 23250, Note_on_c, 0, 69, 86
1, 23325, Note_on_c, 0, 69, 0
1, 23325, Note_on_c, 0, 64, 0
1, 23325, Note_on_c, 0, 61, 0
1, 23325, Note_on_c, 0, 57, 0
1, 23325, Note_on_c, 1, 45, 0
1, 23325, Note_on_c, 1, 33, 0
1, 23424, Note_on_c, 0, 76, 75
1, 23448, Note_on_c, 0, 76, 0
1, 23448, Note_on_c, 0, 64, 75
1, 23471, Note_on_c, 0, 64, 0
1, 23472, Note_on_c, 0, 76, 75
1, 23482, Note_on_c, 0, 76, 0
1, 23496, Note_on_c, 0, 76, 75
1, 23506, Note_on_c, 0, 76, 0
1, 23520, Note_on_c, 0, 76, 75
1, 23530, Note_on_c, 0, 76, 0
1, 23544, Note_on_c, 0, 76, 75
1, 23554, Note_on_c, 0, 76, 0
1, 23568, Note_on_c, 0, 76, 75
1, 23568, Note_on_c, 1, 73, 75
1, 23578, Note_on_c, 0, 76, 0
1, 23588, Note_on_c, 1, 73, 0
1, 23592, Note_on_c, 0, 76, 75
1, 23602, Note_on_c, 0, 76, 0
1, 23616, Note_on_c, 0, 76, 75
1, 23616, Note_on_c, 1, 71, 75
1, 23626, Note_on_c, 0, 76, 0
1, 23636, Note_on_c, 1, 71, 0
1, 23640, Note_on_c, 0, 76, 75
1, 23650, Note_on_c, 0, 76, 0
1, 23664, Note_on_c, 0, 76, 75
1, 23664, Note_on_c, 1, 69, 75
1, 23674, Note_on_c, 0, 76, 0
1, 23684, Note_on_c, 1, 69, 0
1, 23688, Note_on_c, 0, 76, 75
1, 23698, Note_on_c, 0, 76, 0
1, 23712, Note_on_c, 0, 76, 75
1, 23712, Note_on_c, 1, 68, 75
1, 23722, Note_on_c, 0, 76, 0
1, 23732, Note_on_c, 1, 68, 0
1, 23736, Note_on_c, 0, 76, 75
1, 23746, Note_on_c, 0, 76, 0
1, 23760, Note_on_c, 0, 76, 75
1, 23760, Note_on_c, 1, 66, 75
1, 23770, Note_on_c, 0, 76, 0
1, 23780, Note_on_c, 1, 66, 0
1, 23784, Note_on_c, 0, 76, 75
1, 23794, Note_on_c, 0, 76, 0
1, 23808, Note_on_c, 0, 76, 75
1, 23808, Note_on_c, 1, 64, 75
1, 23832, Note_on_c, 0, 76, 0
1, 23832, Note_on_c, 0, 64, 75
1, 23855, Note_on_c, 0, 64, 0
1, 23856, Note_on_c, 0, 76, 75
1, 23866, Note_on_c, 0, 76, 0
1, 23880, Note_on_c, 0, 76, 75
1, 23890, Note_on_c, 0, 76, 0
1, 23897, Note_on_c, 1, 64, 0
1, 23904, Note_on_c, 0, 76, 75
1, 23914, Note_on_c, 0, 76, 0
1, 23928, Note_on_c, 0, 76, 75
1, 23938, Note_on_c, 0, 76, 0
1, 23952, Note_on_c, 0, 76, 75
1, 23952, Note_on_c, 1, 73, 75
1, 23952, Note_on_c, 1, 69, 75
1, 23962, Note_on_c, 0, 76, 0
1, 23972, Note_on_c, 1, 73, 0
1, 23972, Note_on_c, 1, 69, 0
1, 23976, Note_on_c, 0, 76, 75
1, 23986, Note_on_c, 0, 76, 0
1, 24000, Note_on_c, 0, 76, 75
1, 24000, Note_on_c, 1, 71, 75
1, 24000, Note_on_c, 1, 68, 75
1, 24010, Note_on_c, 0, 76, 0
1, 24020, Note_on_c, 1, 71, 0
1, 24020, Note_on_c, 1, 68, 0
1, 24024, Note_on_c, 0, 76, 75
1, 24034, Note_on_c, 0, 76, 0
1, 24048, Note_on_c, 0, 76, 75
1, 24048, Note_on_c, 1, 69, 75
1, 24048, Note_on_c, 1, 66, 75
1, 24058, Note_on_c, 0, 76, 0
1, 24068, Note_on_c, 1, 69, 0
1, 24068, Note_on_c, 1, 66, 0
1, 24072, Note_on_c, 0, 76, 75
1, 24082, Note_on_c, 0, 76, 0
1, 24096, Note_on_c, 0, 76, 75
1, 24096, Note_on_c, 1, 68, 75
1, 24096, Note_on_c, 1, 64, 75
1, 24106, Note_on_c, 0, 76, 0
1, 24116, Note_on_c, 1, 68, 0
1, 24116, Note_on_c, 1, 64, 0
1, 24120, Note_on_c, 0, 76, 75
1, 24130, Note_on_c, 0, 76, 0
1, 24144, Note_on_c, 0, 76, 75
1, 24144, Note_on_c, 1, 66, 75
1, 24144, Note_on_c, 1, 62, 75
1, 24154, Note_on_c, 0, 76, 0
1, 24164, Note_on_c, 1, 66, 0
1, 24164, Note_on_c, 1, 62, 0
1, 24168, Note_on_c, 0, 76, 75
1, 24178, Note_on_c, 0, 76, 0
1, 24192, Note_on_c, 0, 76, 75
1, 24192, Note_on_c, 1, 64, 75
1, 24192, Note_on_c, 1, 61, 75
1, 24216, Note_on_c, 0, 76, 0
1, 24216, Note_on_c, 0, 64, 75
1, 24239, Note_on_c, 0, 64, 0
1, 24240, Note_on_c, 0, 76, 75
1, 24250, Note_on_c, 0, 76, 0
1, 24264, Note_on_c, 0, 76, 75
1, 24274, Note_on_c, 0, 76, 0
1, 24281, Note_on_c, 1, 64, 0
1, 24281, Note_on_c, 1, 61, 0
1, 24288, Note_on_c, 0, 76, 75
1, 24312, Note_on_c, 0, 76, 0
1, 24312, Note_on_c, 0, 64, 75
1, 24335, Note_on_c, 0, 64, 0
1, 24336, Note_on_c, 0, 76, 75
1, 24336, Note_on_c, 1, 61, 75
1, 24336, Note_on_c, 1, 49, 75
1, 24346, Note_on_c, 0, 76, 0
1, 24360, Note_on_c, 0, 76, 75
1, 24370, Note_on_c, 0, 76, 0
1, 24381, Note_on_c, 1, 61, 0
1, 24381, Note_on_c, 1, 49, 0
1, 24384, Note_on_c, 0, 78, 75
1, 24384, Note_on_c, 1, 62, 75
1, 24384, Note_on_c, 1, 50, 75
1, 24408, Note_on_c, 0, 78, 0
1, 24408, Note_on_c, 0, 66, 76
1, 24431, Note_on_c, 0, 66, 0
1, 24432, Note_on_c, 0, 78, 76
1, 24442, Note_on_c, 0, 78, 0
1, 24456, Note_on_c, 0, 78, 76
1, 24466, Note_on_c, 0, 78, 0
1, 24473, Note_on_c, 1, 62, 0
1, 24473, Note_on_c, 1, 50, 0
1, 24480, Note_on_c, 0, 80, 77
1, 24480, Note_on_c, 1, 59, 77
1, 24480, Note_on_c, 1, 47, 77
1, 24504, Note_on_c, 0, 80, 0
1, 24504, Note_on_c, 0, 68, 77
1, 24527, Note_on_c, 0, 68, 0
1, 24528, Note_on_c, 0, 80, 77
1, 24538, Note_on_c, 0, 80, 0
1, 24552, Note_on_c, 0, 80, 78
1, 24562, Note_on_c, 0, 80, 0
1, 24569, Note_on_c, 1, 59, 0
1, 24569, Note_on_c, 1, 47, 0
1, 24576, Note_on_c, 0, 81, 78
1, 24576, Note_on_c, 1, 61, 79
1, 24576, Note_on_c, 1, 49, 79
1, 24600, Note_on_c, 0, 81, 0
1, 24600, Note_on_c, 0, 69, 78
1, 24623, Note_on_c, 0, 69, 0
1, 24624, Note_on_c, 0, 81, 79
1, 24634, Note_on_c, 0, 81, 0
1, 24648, Note_on_c, 0, 81, 79
1, 24658, Note_on_c, 0, 81, 0
1, 24665, Note_on_c, 1, 61, 0
1, 24665, Note_on_c, 1, 49, 0
1, 24672, Note_on_c, 0, 83, 79
1, 24672, Note_on_c, 1, 56, 80
1, 24672, Note_on_c, 1, 44, 80
1, 24696, Note_on_c, 0, 83, 0
1, 24696, Note_on_c, 0, 71, 80
1, 24719, Note_on_c, 0, 71, 0
1, 24720, Note_on_c, 0, 83, 80
1, 24730, Note_on_c, 0, 83, 0
1, 24744, Note_on_c, 0, 83, 80
1, 24754, Note_on_c, 0, 83, 0
1, 24761, Note_on_c, 1, 56, 0
1, 24761, Note_on_c, 1, 44, 0
1, 24768, Note_on_c, 0, 84, 81
1, 24768, Note_on_c, 1, 57, 82
1, 24768, Note_on_c, 1, 45, 82
1, 24792, Note_on_c, 0, 84, 0
1, 24792, Note_on_c, 0, 72, 81
1, 24815, Note_on_c, 0, 72, 0
1, 24816, Note_on_c, 0, 84, 81
1, 24826, Note_on_c, 0, 84, 0
1, 24840, Note_on_c, 0, 84, 82
1, 24850, Note_on_c, 0, 84, 0
1, 24857, Note_on_c, 1, 57, 0
1, 24857, Note_on_c, 1, 45, 0
1, 24864, Note_on_c, 0, 84, 82
1, 24888, Note_on_c, 0, 84, 0
1, 24888, Note_on_c, 0, 72, 82
1, 24911, Note_on_c, 0, 72, 0
1, 24912, Note_on_c, 0, 84, 83
1, 24922, Note_on_c, 0, 84, 0
1, 24936, Note_on_c, 0, 84, 83
1, 24946, Note_on_c, 0, 84, 0
1, 24960, Note_on_c, 0, 84, 69
1, 24960, Note_on_c, 1, 45, 61
1, 24960, Note_on_c, 1, 33, 61
1, 24984, Note_on_c, 0, 84, 0
1, 24984, Note_on_c, 0, 83, 69
1, 25005, Note_on_c, 1, 45, 0
1, 25005, Note_on_c, 1, 33, 0
1, 25007, Note_on_c, 0, 83, 0
1, 25008, Note_on_c, 0, 83, 69
1, 25008, Note_on_c, 1, 72, 61
1, 25008, Note_on_c, 1, 69, 61
1, 25032, Note_on_c, 0, 83, 0
1, 25032, Note_on_c, 0, 81, 69
1, 25055, Note_on_c, 0, 81, 0
1, 25055, Note_on_c, 1, 72, 0
1, 25055, Note_on_c, 1, 69, 0
1, 25056, Note_on_c, 0, 81, 69
1, 25056, Note_on_c, 1, 72, 61
1, 25056, Note_on_c, 1, 69, 61
1, 25080, Note_on_c, 0, 81, 0
1, 25080, Note_on_c, 0, 79, 69
1, 25103, Note_on_c, 0, 79, 0
1, 25103, Note_on_c, 1, 72, 0
1, 25103, Note_on_c, 1, 69, 0
1, 25104, Note_on_c, 0, 79, 69
1, 25104, Note_on_c, 1, 72, 61
1, 25104, Note_on_c, 1, 69, 61
1, 25128, Note_on_c, 0, 79, 0
1, 25128, Note_on_c, 0, 77, 69
1, 25151, Note_on_c, 0, 77, 0
1, 25151, Note_on_c, 1, 72, 0
1, 25151, Note_on_c, 1, 69, 0
1, 25152, Note_on_c, 0, 77, 69
1, 25152, Note_on_c, 1, 72, 61
1, 25152, Note_on_c, 1, 69, 61
1, 25167, Note_on_c, 0, 77, 0
1, 25168, Note_on_c, 0, 81, 69
1, 25183, Note_on_c, 0, 81, 0
1, 25184, Note_on_c, 0, 84, 69
1, 25199, Note_on_c, 0, 84, 0
1, 25199, Note_on_c, 1, 72, 0
1, 25199, Note_on_c, 1, 69, 0
1, 25200, Note_on_c, 0, 77, 69
1, 25200, Note_on_c, 1, 72, 61
1, 25200, Note_on_c, 1, 69, 61
1, 25215, Note_on_c, 0, 77, 0
1, 25216, Note_on_c, 0, 81, 69
1, 25231, Note_on_c, 0, 81, 0
1, 25232, Note_on_c, 0, 84, 69
1, 25247, Note_on_c, 0, 84, 0
1, 25247, Note_on_c, 1, 72, 0
1, 25247, Note_on_c, 1, 69, 0
1, 25248, Note_on_c, 0, 77, 69
1, 25248, Note_on_c, 1, 72, 61
1, 25248, Note_on_c, 1, 69, 61
1, 25268, Note_on_c, 0, 77, 0
1, 25295, Note_on_c, 1, 72, 0
1, 25295, Note_on_c, 1, 69, 0
1, 25296, Note_on_c, 1, 72, 61
1, 25296, Note_on_c, 1, 69, 61
1, 25343, Note_on_c, 1, 72, 0
1, 25343, Note_on_c, 1, 69, 0
1, 25344, Note_on_c, 0, 77, 69
1, 25344, Note_on_c, 1, 72, 61
1, 25344, Note_on_c, 1, 69, 61
1, 25356, Note_on_c, 0, 77, 0
1, 25356, Note_on_c, 0, 81, 69
1, 25368, Note_on_c, 0, 81, 0
1, 25368, Note_on_c, 0, 84, 69
1, 25392, Note_on_c, 0, 84, 0
1, 25392, Note_on_c, 0, 72, 69
1, 25404, Note_on_c, 0, 72, 0
1, 25404, Note_on_c, 0, 77, 69
1, 25416, Note_on_c, 0, 77, 0
1, 25416, Note_on_c, 0, 81, 69
1, 25433, Note_on_c, 1, 72, 0
1, 25433, Note_on_c, 1, 69, 0
1, 25440, Note_on_c, 0, 81, 0
1, 25440, Note_on_c, 0, 69, 69
1, 25452, Note_on_c, 0, 69, 0
1, 25452, Note_on_c, 0, 72, 69
1, 25464, Note_on_c, 0, 72, 0
1, 25464, Note_on_c, 0, 77, 69
1, 25488, Note_on_c, 0, 77, 0
1, 25488, Note_on_c, 0, 65, 69
1, 25500, Note_on_c, 0, 65, 0
1, 25500, Note_on_c, 0, 69, 69
1, 25512, Note_on_c, 0, 69, 0
1, 25512, Note_on_c, 0, 72, 69
1, 25536, Note_on_c, 0, 72, 0
1, 25536, Note_on_c, 0, 60, 69
1, 25548, Note_on_c, 0, 60, 0
1, 25548, Note_on_c, 0, 65, 69
1, 25560, Note_on_c, 0, 65, 0
1, 25560, Note_on_c, 0, 69, 69
1, 25584, Note_on_c, 0, 69, 0
1, 25584, Note_on_c, 0, 57, 69
1, 25596, Note_on_c, 0, 57, 0
1, 25596, Note_on_c, 0, 60, 69
1, 25608, Note_on_c, 0, 60, 0
1, 25608, Note_on_c, 0, 65, 69
1, 25632, Note_on_c, 0, 65, 0
1, 25632, Note_on_c, 0, 53, 69
1, 25644, Note_on_c, 0, 53, 0
1, 25644, Note_on_c, 0, 57, 69
1, 25656, Note_on_c, 0, 57, 0
1, 25656, Note_on_c, 0, 60, 69
1, 25680, Note_on_c, 0, 60, 0
1, 25680, Note_on_c, 0, 48, 69
1, 25692, Note_on_c, 0, 48, 0
1, 25692, Note_on_c, 0, 53, 69
1, 25704, Note_on_c, 0, 53, 0
1, 25704, Note_on_c, 0, 57, 69
1, 25728, Note_on_c, 0, 57, 0
1, 25728, Note_on_c, 1, 41, 61
1, 25728, Note_on_c, 1, 29, 61
1, 25752, Note_on_c, 0, 75, 69
1, 25775, Note_on_c, 0, 75, 0
1, 25776, Note_on_c, 0, 63, 69
1, 25799, Note_on_c, 0, 63, 0
1, 25800, Note_on_c, 0, 75, 69
1, 25823, Note_on_c, 0, 75, 0
1, 25824, Note_on_c, 0, 63, 70
1, 25847, Note_on_c, 0, 63, 0
1, 25848, Note_on_c, 0, 75, 70
1, 25871, Note_on_c, 0, 75, 0
1, 25872, Note_on_c, 0, 69, 71
1, 25895, Note_on_c, 0, 69, 0
1, 25896, Note_on_c, 0, 81, 71
1, 25905, Note_on_c, 1, 41, 0
1, 25905, Note_on_c, 1, 29, 0
1, 25919, Note_on_c, 0, 81, 0
1, 25920, Note_on_c, 0, 72, 71
1, 25920, Note_on_c, 1, 41, 61
1, 25920, Note_on_c, 1, 29, 61
1, 25943, Note_on_c, 0, 72, 0
1, 25944, Note_on_c, 0, 84, 72
1, 25967, Note_on_c, 0, 84, 0
1, 25968, Note_on_c, 0, 71, 72
1, 25991, Note_on_c, 0, 71, 0
1, 25992, Note_on_c, 0, 83, 73
1, 26015, Note_on_c, 0, 83, 0
1, 26016, Note_on_c, 0, 69, 73
1, 26039, Note_on_c, 0, 69, 0
1, 26040, Note_on_c, 0, 81, 73
1, 26053, Note_on_c, 1, 41, 0
1, 26053, Note_on_c, 1, 29, 0
1, 26063, Note_on_c, 0, 81, 0
1, 26064, Note_on_c, 0, 63, 74
1, 26064, Note_on_c, 1, 53, 61
1, 26064, Note_on_c, 1, 41, 61
1, 26087, Note_on_c, 0, 63, 0
1, 26088, Note_on_c, 0, 75, 74
1, 26109, Note_on_c, 1, 53, 0
1, 26109, Note_on_c, 1, 41, 0
1, 26111, Note_on_c, 0, 75, 0
1, 26112, Note_on_c, 0, 64, 75
1, 26112, Note_on_c, 1, 52, 75
1, 26124, Note_on_c, 0, 64, 0
1, 26124, Note_on_c, 0, 76, 75
1, 26136, Note_on_c, 1, 52, 0
1, 26136, Note_on_c, 1, 40, 75
1, 26159, Note_on_c, 1, 40, 0
1, 26160, Note_on_c, 1, 52, 75
1, 26170, Note_on_c, 1, 52, 0
1, 26184, Note_on_c, 1, 52, 75
1, 26194, Note_on_c, 1, 52, 0
1, 26201, Note_on_c, 0, 76, 0
1, 26208, Note_on_c, 1, 52, 75
1, 26218, Note_on_c, 1, 52, 0
1, 26232, Note_on_c, 1, 52, 75
1, 26242, Note_on_c, 1, 52, 0
1, 26256, Note_on_c, 0, 59, 75
1, 26256, Note_on_c, 0, 56, 75
1, 26256, Note_on_c, 1, 52, 75
1, 26266, Note_on_c, 1, 52, 0
1, 26276, Note_on_c, 0, 59, 0
1, 26276, Note_on_c, 0, 56, 0
1, 26280, Note_on_c, 1, 52, 75
1, 26290, Note_on_c, 1, 52, 0
1, 26304, Note_on_c, 0, 61, 75
1, 26304, Note_on_c, 0, 57, 75
1, 26304, Note_on_c, 1, 52, 75
1, 26314, Note_on_c, 1, 52, 0
1, 26324, Note_on_c, 0, 61, 0
1, 26324, Note_on_c, 0, 57, 0
1, 26328, Note_on_c, 1, 52, 75
1, 26338, Note_on_c, 1, 52, 0
1, 26352, Note_on_c, 0, 59, 75
1, 26352, Note_on_c, 0, 56, 75
1, 26352, Note_on_c, 1, 52, 75
1, 26362, Note_on_c, 1, 52, 0
1, 26372, Note_on_c, 0, 59, 0
1, 26372, Note_on_c, 0, 56, 0
1, 26376, Note_on_c, 1, 52, 75
1, 26386, Note_on_c, 1, 52, 0
1, 26400, Note_on_c, 0, 61, 75
1, 26400, Note_on_c, 0, 57, 75
1, 26400, Note_on_c, 1, 52, 75
1, 26410, Note_on_c, 1, 52, 0
1, 26420, Note_on_c, 0, 61, 0
1, 26420, Note_on_c, 0, 57, 0
1, 26424, Note_on_c, 1, 52, 75
1, 26434, Note_on_c, 1, 52, 0
1, 26448, Note_on_c, 0, 64, 75
1, 26448, Note_on_c, 0, 59, 64
1, 26448, Note_on_c, 1, 52, 75
1, 26458, Note_on_c, 1, 52, 0
1, 26460, Note_on_c, 0, 64, 0
1, 26460, Note_on_c, 0, 62, 75
1, 26468, Note_on_c, 0, 59, 0
1, 26472, Note_on_c, 0, 62, 0
1, 26472, Note_on_c, 0, 61, 75
1, 26472, Note_on_c, 1, 52, 75
1, 26482, Note_on_c, 1, 52, 0
1, 26484, Note_on_c, 0, 61, 0
1, 26484, Note_on_c, 0, 62, 75
1, 26496, Note_on_c, 0, 62, 0
1, 26496, Note_on_c, 0, 64, 75
1, 26496, Note_on_c, 0, 61, 75
1, 26496, Note_on_c, 1, 52, 75
1, 26520, Note_on_c, 1, 52, 0
1, 26520, Note_on_c, 1, 40, 75
1, 26543, Note_on_c, 1, 40, 0
1, 26544, Note_on_c, 1, 52, 75
1, 26554, Note_on_c, 1, 52, 0
1, 26568, Note_on_c, 1, 52, 75
1, 26578, Note_on_c, 1, 52, 0
1, 26585, Note_on_c, 0, 64, 0
1, 26585, Note_on_c, 0, 61, 0
1, 26592, Note_on_c, 1, 52, 75
1, 26602, Note_on_c, 1, 52, 0
1, 26616, Note_on_c, 1, 52, 75
1, 26626, Note_on_c, 1, 52, 0
1, 26640, Note_on_c, 0, 66, 75
1, 26640, Note_on_c, 0, 62, 75
1, 26640, Note_on_c, 1, 52, 75
1, 26650, Note_on_c, 1, 52, 0
1, 26660, Note_on_c, 0, 66, 0
1, 26660, Note_on_c, 0, 62, 0
1, 26664, Note_on_c, 1, 52, 75
1, 26674, Note_on_c, 1, 52, 0
1, 26688, Note_on_c, 0, 68, 75
1, 26688, Note_on_c, 0, 59, 75
1, 26688, Note_on_c, 1, 52, 75
1, 26698, Note_on_c, 1, 52, 0
1, 26708, Note_on_c, 0, 68, 0
1, 26708, Note_on_c, 0, 59, 0
1, 26712, Note_on_c, 1, 52, 75
1, 26722, Note_on_c, 1, 52, 0
1, 26736, Note_on_c, 0, 69, 75
1, 26736, Note_on_c, 0, 61, 75
1, 26736, Note_on_c, 1, 52, 75
1, 26746, Note_on_c, 1, 52, 0
1, 26756, Note_on_c, 0, 69, 0
1, 26756, Note_on_c, 0, 61, 0
1, 26760, Note_on_c, 1, 52, 75
1, 26770, Note_on_c, 1, 52, 0
1, 26784, Note_on_c, 0, 71, 75
1, 26784, Note_on_c, 0, 68, 75
1, 26784, Note_on_c, 1, 52, 75
1, 26794, Note_on_c, 1, 52, 0
1, 26804, Note_on_c, 0, 71, 0
1, 26804, Note_on_c, 0, 68, 0
1, 26808, Note_on_c, 1, 52, 75
1, 26818, Note_on_c, 1, 52, 0
1, 26832, Note_on_c, 0, 74, 75
1, 26832, Note_on_c, 0, 69, 64
1, 26832, Note_on_c, 1, 52, 75
1, 26842, Note_on_c, 1, 52, 0
1, 26844, Note_on_c, 0, 74, 0
1, 26844, Note_on_c, 0, 73, 75
1, 26852, Note_on_c, 0, 69, 0
1, 26856, Note_on_c, 0, 73, 0
1, 26856, Note_on_c, 0, 71, 75
1, 26856, Note_on_c, 1, 52, 75
1, 26866, Note_on_c, 1, 52, 0
1, 26868, Note_on_c, 0, 71, 0
1, 26868, Note_on_c, 0, 73, 75
1, 26880, Note_on_c, 0, 73, 0
1, 26880, Note_on_c, 0, 74, 75
1, 26880, Note_on_c, 0, 71, 75
1, 26880, Note_on_c, 1, 52, 75
1, 26904, Note_on_c, 1, 52, 0
1, 26904, Note_on_c, 1, 40, 75
1, 26927, Note_on_c, 1, 40, 0
1, 26928, Note_on_c, 1, 52, 75
1, 26938, Note_on_c, 1, 52, 0
1, 26952, Note_on_c, 1, 52, 75
1, 26962, Note_on_c, 1, 52, 0
1, 26969, Note_on_c, 0, 74, 0
1, 26969, Note_on_c, 0, 71, 0
1, 26976, Note_on_c, 1, 52, 75
1, 26986, Note_on_c, 1, 52, 0
1, 27000, Note_on_c, 1, 52, 75
1, 27010, Note_on_c, 1, 52, 0
1, 27024, Note_on_c, 0, 71, 75
1, 27024, Note_on_c, 0, 68, 75
1, 27024, Note_on_c, 1, 52, 75
1, 27034, Note_on_c, 1, 52, 0
1, 27044, Note_on_c, 0, 71, 0
1, 27044, Note_on_c, 0, 68, 0
1, 27048, Note_on_c, 1, 52, 75
1, 27058, Note_on_c, 1, 52, 0
1, 27072, Note_on_c, 0, 73, 75
1, 27072, Note_on_c, 0, 69, 75
1, 27072, Note_on_c, 1, 52, 75
1, 27082, Note_on_c, 1, 52, 0
1, 27092, Note_on_c, 0, 73, 0
1, 27092, Note_on_c, 0, 69, 0
1, 27096, Note_on_c, 1, 52, 75
1, 27106, Note_on_c, 1, 52, 0
1, 27120, Note_on_c, 0, 71, 75
1, 27120, Note_on_c, 0, 68, 75
1, 27120, Note_on_c, 1, 52, 75
1, 27130, Note_on_c, 1, 52, 0
1, 27140, Note_on_c, 0, 71, 0
1, 27140, Note_on_c, 0, 68, 0
1, 27144, Note_on_c, 1, 52, 75
1, 27154, Note_on_c, 1, 52, 0
1, 27168, Note_on_c, 0, 73, 75
1, 27168, Note_on_c, 0, 69, 75
1, 27168, Note_on_c, 1, 52, 75
1, 27178, Note_on_c, 1, 52, 0
1, 27188, Note_on_c, 0, 73, 0
1, 27188, Note_on_c, 0, 69, 0
1, 27192, Note_on_c, 1, 52, 75
1, 27202, Note_on_c, 1, 52, 0
1, 27216, Note_on_c, 0, 76, 75
1, 27216, Note_on_c, 0, 71, 64
1, 27216, Note_on_c, 1, 52, 75
1, 27226, Note_on_c, 1, 52, 0
1, 27228, Note_on_c, 0, 76, 0
1, 27228, Note_on_c, 0, 74, 75
1, 27236, Note_on_c, 0, 71, 0
1, 27240, Note_on_c, 0, 74, 0
1, 27240, Note_on_c, 0, 73, 75
1, 27240, Note_on_c, 1, 52, 75
1, 27250, Note_on_c, 1, 52, 0
1, 27252, Note_on_c, 0, 73, 0
1, 27252, Note_on_c, 0, 74, 75
1, 27264, Note_on_c, 0, 74, 0
1, 27264, Note_on_c, 0, 76, 75
1, 27264, Note_on_c, 0, 73, 75
1, 27264, Note_on_c, 1, 52, 75
1, 27288, Note_on_c, 1, 52, 0
1, 27288, Note_on_c, 1, 40, 75
1, 27311, Note_on_c, 1, 40, 0
1, 27312, Note_on_c, 1, 52, 75
1, 27322, Note_on_c, 1, 52, 0
1, 27336, Note_on_c, 1, 52, 75
1, 27346, Note_on_c, 1, 52, 0
1, 27353, Note_on_c, 0, 76, 0
1, 27353, Note_on_c, 0, 73, 0
1, 27360, Note_on_c, 1, 52, 75
1, 27370, Note_on_c, 1, 52, 0
1, 27384, Note_on_c, 1, 52, 75
1, 27394, Note_on_c, 1, 52, 0
1, 27408, Note_on_c, 0, 78, 75
1, 27408, Note_on_c, 0, 74, 75
1, 27408, Note_on_c, 1, 52, 75
1, 27418, Note_on_c, 1, 52, 0
1, 27428, Note_on_c, 0, 78, 0
1, 27428, Note_on_c, 0, 74, 0
1, 27432, Note_on_c, 1, 52, 75
1, 27442, Note_on_c, 1, 52, 0
1, 27456, Note_on_c, 0, 80, 75
1, 27456, Note_on_c, 0, 71, 75
1, 27456, Note_on_c, 1, 52, 75
1, 27466, Note_on_c, 1, 52, 0
1, 27476, Note_on_c, 0, 80, 0
1, 27476, Note_on_c, 0, 71, 0
1, 27480, Note_on_c, 1, 52, 75
1, 27490, Note_on_c, 1, 52, 0
1, 27504, Note_on_c, 0, 81, 75
1, 27504, Note_on_c, 0, 73, 75
1, 27504, Note_on_c, 1, 52, 75
1, 27514, Note_on_c, 1, 52, 0
1, 27524, Note_on_c, 0, 81, 0
1, 27524, Note_on_c, 0, 73, 0
1, 27528, Note_on_c, 1, 52, 75
1, 27538, Note_on_c, 1, 52, 0
1, 27552, Note_on_c, 0, 83, 75
1, 27552, Note_on_c, 0, 80, 75
1, 27552, Note_on_c, 1, 52, 75
1, 27562, Note_on_c, 1, 52, 0
1, 27572, Note_on_c, 0, 83, 0
1, 27572, Note_on_c, 0, 80, 0
1, 27576, Note_on_c, 1, 52, 75
1, 27586, Note_on_c, 1, 52, 0
1, 27600, Note_on_c, 0, 86, 75
1, 27600, Note_on_c, 0, 81, 64
1, 27600, Note_on_c, 1, 52, 75
1, 27610, Note_on_c, 1, 52, 0
1, 27612, Note_on_c, 0, 86, 0
1, 27612, Note_on_c, 0, 85, 75
1, 27624, Note_on_c, 0, 85, 0
1, 27624, Note_on_c, 0, 83, 75
1, 27624, Note_on_c, 1, 52, 75
1, 27634, Note_on_c, 1, 52, 0
1, 27636, Note_on_c, 0, 83, 0
1, 27636, Note_on_c, 0, 85, 75
1, 27647, Note_on_c, 0, 81, 0
1, 27648, Note_on_c, 0, 85, 0
1, 27648, Note_on_c, 0, 86, 75
1, 27648, Note_on_c, 0, 83, 75
1, 27648, Note_on_c, 1, 52, 75
1, 27672, Note_on_c, 1, 52, 0
1, 27672, Note_on_c, 1, 40, 75
1, 27695, Note_on_c, 1, 40, 0
1, 27696, Note_on_c, 1, 52, 75
1, 27706, Note_on_c, 1, 52, 0
1, 27720, Note_on_c, 1, 52, 75
1, 27730, Note_on_c, 1, 52, 0
1, 27737, Note_on_c, 0, 86, 0
1, 27737, Note_on_c, 0, 83, 0
1, 27744, Note_on_c, 1, 52, 75
1, 27789, Note_on_c, 1, 52, 0
1, 27792, Note_on_c, 0, 86, 75
1, 27804, Note_on_c, 0, 86, 0
1, 27804, Note_on_c, 0, 85, 75
1, 27816, Note_on_c, 0, 85, 0
1, 27816, Note_on_c, 0, 83, 75
1, 27828, Note_on_c, 0, 83, 0
1, 27828, Note_on_c, 0, 81, 75
1, 27840, Note_on_c, 0, 81, 0
1, 27840, Note_on_c, 0, 80, 75
1, 27885, Note_on_c, 0, 80, 0
1, 27888, Note_on_c, 1, 74, 61
1, 27888, Note_on_c, 1, 71, 61
1, 27888, Note_on_c, 1, 64, 61
1, 27908, Note_on_c, 1, 74, 0
1, 27908, Note_on_c, 1, 71, 0
1, 27908, Note_on_c, 1, 64, 0
1, 27936, Note_on_c, 1, 74, 61
1, 27936, Note_on_c, 1, 71, 61
1, 27936, Note_on_c, 1, 64, 61
1, 27983, Note_on_c, 1, 74, 0
1, 27983, Note_on_c, 1, 71, 0
1, 27983, Note_on_c, 1, 64, 0
1, 27984, Note_on_c, 0, 83, 75
1, 27996, Note_on_c, 0, 83, 0
1, 27996, Note_on_c, 0, 80, 75
1, 28008, Note_on_c, 0, 80, 0
1, 28008, Note_on_c, 0, 78, 75
1, 28020, Note_on_c, 0, 78, 0
1, 28020, Note_on_c, 0, 76, 75
1, 28032, Note_on_c, 0, 76, 0
1, 28032, Note_on_c, 0, 81, 75
1, 28077, Note_on_c, 0, 81, 0
1, 28080, Note_on_c, 1, 69, 61
1, 28080, Note_on_c, 1, 64, 61
1, 28080, Note_on_c, 1, 61, 61
1, 28100, Note_on_c, 1, 69, 0
1, 28100, Note_on_c, 1, 64, 0
1, 28100, Note_on_c, 1, 61, 0
1, 28128, Note_on_c, 1, 69, 61
1, 28128, Note_on_c, 1, 64, 61
1, 28128, Note_on_c, 1, 61, 61
1, 28175, Note_on_c, 1, 69, 0
1, 28175, Note_on_c, 1, 64, 0
1, 28175, Note_on_c, 1, 61, 0
1, 28176, Note_on_c, 0, 86, 75
1, 28188, Note_on_c, 0, 86, 0
1, 28188, Note_on_c, 0, 85, 75
1, 28200, Note_on_c, 0, 85, 0
1, 28200, Note_on_c, 0, 83, 75
1, 28212, Note_on_c, 0, 83, 0
1, 28212, Note_on_c, 0, 81, 75
1, 28224, Note_on_c, 0, 81, 0
1, 28224, Note_on_c, 0, 80, 75
1, 28269, Note_on_c, 0, 80, 0
1, 28272, Note_on_c, 1, 74, 61
1, 28272, Note_on_c, 1, 71, 61
1, 28272, Note_on_c, 1, 64, 61
1, 28292, Note_on_c, 1, 74, 0
1, 28292, Note_on_c, 1, 71, 0
1, 28292, Note_on_c, 1, 64, 0
1, 28320, Note_on_c, 1, 74, 61
1, 28320, Note_on_c, 1, 71, 61
1, 28320, Note_on_c, 1, 64, 61
1, 28367, Note_on_c, 1, 74, 0
1, 28367, Note_on_c, 1, 71, 0
1, 28367, Note_on_c, 1, 64, 0
1, 28368, Note_on_c, 0, 83, 75
1, 28380, Note_on_c, 0, 83, 0
1, 28380, Note_on_c, 0, 80, 75
1, 28392, Note_on_c, 0, 80, 0
1, 28392, Note_on_c, 0, 78, 75
1, 28404, Note_on_c, 0, 78, 0
1, 28404, Note_on_c, 0, 76, 75
1, 28416, Note_on_c, 0, 76, 0
1, 28416, Note_on_c, 0, 81, 75
1, 28416, Note_on_c, 1, 69, 61
1, 28416, Note_on_c, 1, 64, 61
1, 28416, Note_on_c, 1, 61, 61
1, 28436, Note_on_c, 0, 81, 0
1, 28461, Note_on_c, 1, 69, 0
1, 28461, Note_on_c, 1, 64, 0
1, 28461, Note_on_c, 1, 61, 0
1, 28464, Note_on_c, 0, 85, 75
1, 28476, Note_on_c, 0, 85, 0
1, 28476, Note_on_c, 0, 83, 75
1, 28488, Note_on_c, 0, 83, 0
1, 28488, Note_on_c, 0, 81, 75
1, 28500, Note_on_c, 0, 81, 0
1, 28500, Note_on_c, 0, 80, 75
1, 28512, Note_on_c, 0, 80, 0
1, 28512, Note_on_c, 0, 78, 75
1, 28512, Note_on_c, 1, 69, 61
1, 28512, Note_on_c, 1, 66, 61
1, 28512, Note_on_c, 1, 62, 61
1, 28532, Note_on_c, 0, 78, 0
1, 28557, Note_on_c, 1, 69, 0
1, 28557, Note_on_c, 1, 66, 0
1, 28557, Note_on_c, 1, 62, 0
1, 28560, Note_on_c, 0, 81, 75
1, 28572, Note_on_c, 0, 81, 0
1, 28572, Note_on_c, 0, 80, 75
1, 28584, Note_on_c, 0, 80, 0
1, 28584, Note_on_c, 0, 78, 75
1, 28596, Note_on_c, 0, 78, 0
1, 28596, Note_on_c, 0, 76, 75
1, 28608, Note_on_c, 0, 76, 0
1, 28608, Note_on_c, 0, 74, 75
1, 28608, Note_on_c, 1, 62, 75
1, 28608, Note_on_c, 1, 50, 75
1, 28628, Note_on_c, 0, 74, 0
1, 28653, Note_on_c, 1, 62, 0
1, 28653, Note_on_c, 1, 50, 0
1, 28656, Note_on_c, 0, 78, 75
1, 28668, Note_on_c, 0, 78, 0
1, 28668, Note_on_c, 0, 76, 75
1, 28680, Note_on_c, 0, 76, 0
1, 28680, Note_on_c, 0, 74, 75
1, 28692, Note_on_c, 0, 74, 0
1, 28692, Note_on_c, 0, 73, 75
1, 28704, Note_on_c, 0, 73, 0
1, 28704, Note_on_c, 0, 71, 75
1, 28704, Note_on_c, 1, 50, 75
1, 28704, Note_on_c, 1, 38, 75
1, 28724, Note_on_c, 0, 71, 0
1, 28749, Note_on_c, 1, 50, 0
1, 28749, Note_on_c, 1, 38, 0
1, 28752, Note_on_c, 0, 78, 75
1, 28764, Note_on_c, 0, 78, 0
1, 28764, Note_on_c, 0, 74, 75
1, 28776, Note_on_c, 0, 74, 0
1, 28776, Note_on_c, 0, 73, 75
1, 28788, Note_on_c, 0, 73, 0
1, 28788, Note_on_c, 0, 71, 75
1, 28800, Note_on_c, 0, 71, 0
1, 28800, Note_on_c, 0, 76, 75
1, 28820, Note_on_c, 0, 76, 0
1, 28848, Note_on_c, 0, 74, 75
1, 28848, Note_on_c, 1, 57, 75
1, 28848, Note_on_c, 1, 49, 64
1, 28860, Note_on_c, 0, 74, 0
1, 28860, Note_on_c, 0, 73, 75
1, 28872, Note_on_c, 0, 73, 0
1, 28872, Note_on_c, 0, 71, 75
1, 28884, Note_on_c, 0, 71, 0
1, 28884, Note_on_c, 0, 69, 75
1, 28893, Note_on_c, 1, 49, 0
1, 28896, Note_on_c, 0, 69, 0
1, 28896, Note_on_c, 0, 71, 75
1, 28896, Note_on_c, 1, 50, 64
1, 28905, Note_on_c, 0, 71, 0
1, 28905, Note_on_c, 0, 73, 75
1, 28914, Note_on_c, 0, 73, 0
1, 28914, Note_on_c, 0, 71, 75
1, 28923, Note_on_c, 0, 71, 0
1, 28923, Note_on_c, 0, 73, 75
1, 28932, Note_on_c, 0, 73, 0
1, 28932, Note_on_c, 0, 71, 75
1, 28937, Note_on_c, 1, 57, 0
1, 28941, Note_on_c, 0, 71, 0
1, 28941, Note_on_c, 0, 73, 75
1, 28941, Note_on_c, 1, 50, 0
1, 28944, Note_on_c, 1, 56, 75
1, 28944, Note_on_c, 1, 52, 64
1, 28950, Note_on_c, 0, 73, 0
1, 28950, Note_on_c, 0, 71, 75
1, 28959, Note_on_c, 0, 71, 0
1, 28959, Note_on_c, 0, 73, 75
1, 28968, Note_on_c, 0, 73, 0
1, 28968, Note_on_c, 0, 71, 75
1, 28976, Note_on_c, 0, 71, 0
1, 28976, Note_on_c, 0, 69, 75
1, 28984, Note_on_c, 0, 69, 0
1, 28984, Note_on_c, 0, 71, 75
1, 28989, Note_on_c, 1, 56, 0
1, 28989, Note_on_c, 1, 52, 0
1, 28992, Note_on_c, 0, 71, 0
1, 28992, Note_on_c, 0, 69, 75
1, 28992, Note_on_c, 1, 57, 61
1, 29007, Note_on_c, 1, 57, 0
1, 29008, Note_on_c, 1, 61, 61
1, 29023, Note_on_c, 1, 61, 0
1, 29024, Note_on_c, 1, 64, 61
1, 29037, Note_on_c, 0, 69, 0
1, 29039, Note_on_c, 1, 64, 0
1, 29040, Note_on_c, 1, 57, 61
1, 29055, Note_on_c, 1, 57, 0
1, 29056, Note_on_c, 1, 61, 61
1, 29071, Note_on_c, 1, 61, 0
1, 29072, Note_on_c, 1, 64, 61
1, 29087, Note_on_c, 1, 64, 0
1, 29088, Note_on_c, 0, 76, 75
1, 29088, Note_on_c, 1, 56, 61
1, 29100, Note_on_c, 0, 76, 0
1, 29100, Note_on_c, 0, 74, 75
1, 29103, Note_on_c, 1, 56, 0
1, 29104, Note_on_c, 1, 59, 61
1, 29119, Note_on_c, 1, 59, 0
1, 29120, Note_on_c, 1, 64, 61
1, 29133, Note_on_c, 0, 74, 0
1, 29135, Note_on_c, 1, 64, 0
1, 29136, Note_on_c, 0, 74, 75
1, 29136, Note_on_c, 1, 56, 61
1, 29151, Note_on_c, 1, 56, 0
1, 29152, Note_on_c, 1, 59, 61
1, 29167, Note_on_c, 1, 59, 0
1, 29168, Note_on_c, 1, 64, 61
1, 29181, Note_on_c, 0, 74, 0
1, 29183, Note_on_c, 1, 64, 0
1, 29184, Note_on_c, 0, 73, 75
1, 29184, Note_on_c, 1, 57, 61
1, 29199, Note_on_c, 1, 57, 0
1, 29200, Note_on_c, 1, 61, 61
1, 29215, Note_on_c, 1, 61, 0
1, 29216, Note_on_c, 1, 64, 61
1, 29229, Note_on_c, 0, 73, 0
1, 29231, Note_on_c, 1, 64, 0
1, 29232, Note_on_c, 1, 57, 61
1, 29247, Note_on_c, 1, 57, 0
1, 29248, Note_on_c, 1, 61, 61
1, 29263, Note_on_c, 1, 61, 0
1, 29264, Note_on_c, 1, 64, 61
1, 29279, Note_on_c, 1, 64, 0
1, 29280, Note_on_c, 0, 73, 75
1, 29280, Note_on_c, 1, 59, 61
1, 29295, Note_on_c, 1, 59, 0
1, 29296, Note_on_c, 1, 62, 61
1, 29304, Note_on_c, 0, 73, 0
1, 29304, Note_on_c, 0, 71, 75
1, 29311, Note_on_c, 1, 62, 0
1, 29312, Note_on_c, 1, 64, 61
1, 29327, Note_on_c, 0, 71, 0
1, 29327, Note_on_c, 1, 64, 0
1, 29328, Note_on_c, 0, 71, 75
1, 29328, Note_on_c, 1, 59, 61
1, 29343, Note_on_c, 1, 59, 0
1, 29344, Note_on_c, 1, 62, 61
1, 29359, Note_on_c, 1, 62, 0
1, 29360, Note_on_c, 1, 64, 61
1, 29364, Note_on_c, 0, 71, 0
1, 29364, Note_on_c, 0, 68, 75
1, 29375, Note_on_c, 1, 64, 0
1, 29376, Note_on_c, 0, 68, 0
1, 29376, Note_on_c, 0, 69, 75
1, 29376, Note_on_c, 1, 57, 61
1, 29391, Note_on_c, 1, 57, 0
1, 29392, Note_on_c, 1, 61, 61
1, 29407, Note_on_c, 1, 61, 0
1, 29408, Note_on_c, 1, 64, 61
1, 29421, Note_on_c, 0, 69, 0
1, 29423, Note_on_c, 1, 64, 0
1, 29424, Note_on_c, 1, 57, 61
1, 29439, Note_on_c, 1, 57, 0
1, 29440, Note_on_c, 1, 61, 61
1, 29455, Note_on_c, 1, 61, 0
1, 29456, Note_on_c, 1, 64, 61
1, 29471, Note_on_c, 1, 64, 0
1, 29472, Note_on_c, 0, 74, 75
1, 29472, Note_on_c, 1, 56, 61
1, 29487, Note_on_c, 0, 74, 0
1, 29487, Note_on_c, 1, 56, 0
1, 29488, Note_on_c, 0, 76, 75
1, 29488, Note_on_c, 1, 59, 61
1, 29503, Note_on_c, 0, 76, 0
1, 29503, Note_on_c, 1, 59, 0
1, 29504, Note_on_c, 0, 74, 75
1, 29504, Note_on_c, 1, 64, 61
1, 29519, Note_on_c, 0, 74, 0
1, 29519, Note_on_c, 1, 64, 0
1, 29520, Note_on_c, 0, 78, 75
1, 29520, Note_on_c, 1, 56, 61
1, 29535, Note_on_c, 0, 78, 0
1, 29535, Note_on_c, 1, 56, 0
1, 29536, Note_on_c, 0, 76, 75
1, 29536, Note_on_c, 1, 59, 61
1, 29551, Note_on_c, 0, 76, 0
1, 29551, Note_on_c, 1, 59, 0
1, 29552, Note_on_c, 0, 74, 75
1, 29552, Note_on_c, 1, 64, 61
1, 29567, Note_on_c, 0, 74, 0
1, 29567, Note_on_c, 1, 64, 0
1, 29568, Note_on_c, 0, 73, 75
1, 29568, Note_on_c, 1, 57, 61
1, 29583, Note_on_c, 1, 57, 0
1, 29584, Note_on_c, 1, 61, 61
1, 29599, Note_on_c, 1, 61, 0
1, 29600, Note_on_c, 1, 64, 61
1, 29613, Note_on_c, 0, 73, 0
1, 29615, Note_on_c, 1, 64, 0
1, 29616, Note_on_c, 1, 57, 61
1, 29631, Note_on_c, 1, 57, 0
1, 29632, Note_on_c, 1, 61, 61
1, 29647, Note_on_c, 1, 61, 0
1, 29648, Note_on_c, 1, 64, 61
1, 29663, Note_on_c, 1, 64, 0
1, 29664, Note_on_c, 0, 74, 75
1, 29664, Note_on_c, 1, 59, 61
1, 29679, Note_on_c, 0, 74, 0
1, 29679, Note_on_c, 1, 59, 0
1, 29680, Note_on_c, 0, 73, 75
1, 29680, Note_on_c, 1, 62, 61
1, 29695, Note_on_c, 0, 73, 0
1, 29695, Note_on_c, 1, 62, 0
1, 29696, Note_on_c, 0, 71, 75
1, 29696, Note_on_c, 1, 64, 61
1, 29711, Note_on_c, 0, 71, 0
1, 29711, Note_on_c, 1, 64, 0
1, 29712, Note_on_c, 0, 69, 75
1, 29712, Note_on_c, 1, 59, 61
1, 29727, Note_on_c, 0, 69, 0
1, 29727, Note_on_c, 1, 59, 0
1, 29728, Note_on_c, 0, 71, 75
1, 29728, Note_on_c, 1, 62, 61
1, 29743, Note_on_c, 0, 71, 0
1, 29743, Note_on_c, 1, 62, 0
1, 29744, Note_on_c, 0, 68, 75
1, 29744, Note_on_c, 1, 64, 61
1, 29759, Note_on_c, 0, 68, 0
1, 29759, Note_on_c, 1, 64, 0
1, 29760, Note_on_c, 0, 69, 75
1, 29760, Note_on_c, 1, 57, 61
1, 29775, Note_on_c, 1, 57, 0
1, 29776, Note_on_c, 1, 61, 61
1, 29780, Note_on_c, 0, 69, 0
1, 29791, Note_on_c, 1, 61, 0
1, 29792, Note_on_c, 1, 64, 61
1, 29807, Note_on_c, 1, 64, 0
1, 29808, Note_on_c, 0, 69, 75
1, 29808, Note_on_c, 1, 57, 61
1, 29823, Note_on_c, 1, 57, 0
1, 29824, Note_on_c, 1, 61, 61
1, 29828, Note_on_c, 0, 69, 0
1, 29839, Note_on_c, 1, 61, 0
1, 29840, Note_on_c, 1, 64, 61
1, 29855, Note_on_c, 1, 64, 0
1, 29856, Note_on_c, 0, 71, 75
1, 29856, Note_on_c, 1, 56, 61
1, 29871, Note_on_c, 1, 56, 0
1, 29872, Note_on_c, 1, 59, 61
1, 29876, Note_on_c, 0, 71, 0
1, 29887, Note_on_c, 1, 59, 0
1, 29888, Note_on_c, 1, 64, 61
1, 29903, Note_on_c, 1, 64, 0
1, 29904, Note_on_c, 0, 71, 75
1, 29904, Note_on_c, 1, 56, 61
1, 29919, Note_on_c, 1, 56, 0
1, 29920, Note_on_c, 1, 59, 61
1, 29924, Note_on_c, 0, 71, 0
1, 29935, Note_on_c, 1, 59, 0
1, 29936, Note_on_c, 1, 64, 61
1, 29951, Note_on_c, 1, 64, 0
1, 29952, Note_on_c, 0, 73, 75
1, 29952, Note_on_c, 1, 57, 61
1, 29967, Note_on_c, 1, 57, 0
1, 29968, Note_on_c, 1, 61, 61
1, 29972, Note_on_c, 0, 73, 0
1, 29983, Note_on_c, 1, 61, 0
1, 29984, Note_on_c, 1, 64, 61
1, 29999, Note_on_c, 1, 64, 0
1, 30000, Note_on_c, 0, 73, 75
1, 30000, Note_on_c, 1, 57, 61
1, 30015, Note_on_c, 1, 57, 0
1, 30016, Note_on_c, 1, 61, 61
1, 30020, Note_on_c, 0, 73, 0
1, 30031, Note_on_c, 1, 61, 0
1, 30032, Note_on_c, 1, 64, 61
1, 30047, Note_on_c, 1, 64, 0
1, 30048, Note_on_c, 0, 76, 75
1, 30048, Note_on_c, 1, 52, 61
1, 30063, Note_on_c, 1, 52, 0
1, 30064, Note_on_c, 1, 59, 61
1, 30072, Note_on_c, 0, 76, 0
1, 30072, Note_on_c, 0, 74, 75
1, 30079, Note_on_c, 1, 59, 0
1, 30080, Note_on_c, 1, 64, 61
1, 30095, Note_on_c, 0, 74, 0
1, 30095, Note_on_c, 1, 64, 0
1, 30096, Note_on_c, 0, 71, 75
1, 30096, Note_on_c, 1, 52, 61
1, 30111, Note_on_c, 1, 52, 0
1, 30112, Note_on_c, 1, 59, 61
1, 30120, Note_on_c, 0, 71, 0
1, 30120, Note_on_c, 0, 68, 75
1, 30127, Note_on_c, 1, 59, 0
1, 30128, Note_on_c, 1, 64, 61
1, 30143, Note_on_c, 0, 68, 0
1, 30143, Note_on_c, 1, 64, 0
1, 30144, Note_on_c, 0, 68, 75
1, 30144, Note_on_c, 1, 57, 61
1, 30156, Note_on_c, 0, 68, 0
1, 30156, Note_on_c, 0, 69, 75
1, 30159, Note_on_c, 1, 57, 0
1, 30160, Note_on_c, 1, 61, 61
1, 30175, Note_on_c, 1, 61, 0
1, 30176, Note_on_c, 1, 64, 61
1, 30189, Note_on_c, 0, 69, 0
1, 30191, Note_on_c, 1, 64, 0
1, 30192, Note_on_c, 0, 68, 75
1, 30192, Note_on_c, 1, 57, 61
1, 30204, Note_on_c, 0, 68, 0
1, 30204, Note_on_c, 0, 69, 75
1, 30207, Note_on_c, 1, 57, 0
1, 30208, Note_on_c, 1, 61, 61
1, 30223, Note_on_c, 1, 61, 0
1, 30224, Note_on_c, 1, 64, 61
1, 30237, Note_on_c, 0, 69, 0
1, 30239, Note_on_c, 1, 64, 0
1, 30240, Note_on_c, 0, 70, 75
1, 30240, Note_on_c, 1, 56, 61
1, 30252, Note_on_c, 0, 70, 0
1, 30252, Note_on_c, 0, 71, 75
1, 30255, Note_on_c, 1, 56, 0
1, 30256, Note_on_c, 1, 59, 61
1, 30271, Note_on_c, 1, 59, 0
1, 30272, Note_on_c, 1, 64, 61
1, 30285, Note_on_c, 0, 71, 0
1, 30287, Note_on_c, 1, 64, 0
1, 30288, Note_on_c, 0, 70, 75
1, 30288, Note_on_c, 1, 56, 61
1, 30300, Note_on_c, 0, 70, 0
1, 30300, Note_on_c, 0, 71, 75
1, 30303, Note_on_c, 1, 56, 0
1, 30304, Note_on_c, 1, 59, 61
1, 30319, Note_on_c, 1, 59, 0
1, 30320, Note_on_c, 1, 64, 61
1, 30333, Note_on_c, 0, 71, 0
1, 30335, Note_on_c, 1, 64, 0
1, 30336, Note_on_c, 0, 72, 75
1, 30336, Note_on_c, 1, 57, 61
1, 30348, Note_on_c, 0, 72, 0
1, 30348, Note_on_c, 0, 73, 75
1, 30351, Note_on_c, 1, 57, 0
1, 30352, Note_on_c, 1, 61, 61
1, 30367, Note_on_c, 1, 61, 0
1, 30368, Note_on_c, 1, 64, 61
1, 30381, Note_on_c, 0, 73, 0
1, 30383, Note_on_c, 1, 64, 0
1, 30384, Note_on_c, 0, 72, 75
1, 30384, Note_on_c, 1, 57, 61
1, 30396, Note_on_c, 0, 72, 0
1, 30396, Note_on_c, 0, 73, 75
1, 30399, Note_on_c, 1, 57, 0
1, 30400, Note_on_c, 1, 61, 61
1, 30415, Note_on_c, 1, 61, 0
1, 30416, Note_on_c, 1, 64, 61
1, 30429, Note_on_c, 0, 73, 0
1, 30431, Note_on_c, 1, 64, 0
1, 30432, Note_on_c, 0, 74, 75
1, 30432, Note_on_c, 1, 52, 61
1, 30441, Note_on_c, 0, 74, 0
1, 30441, Note_on_c, 0, 76, 75
1, 30447, Note_on_c, 1, 52, 0
1, 30448, Note_on_c, 1, 59, 61
1, 30450, Note_on_c, 0, 76, 0
1, 30450, Note_on_c, 0, 74, 75
1, 30459, Note_on_c, 0, 74, 0
1, 30459, Note_on_c, 0, 76, 75
1, 30463, Note_on_c, 1, 59, 0
1, 30464, Note_on_c, 1, 64, 61
1, 30468, Note_on_c, 0, 76, 0
1, 30468, Note_on_c, 0, 74, 75
1, 30477, Note_on_c, 0, 74, 0
1, 30477, Note_on_c, 0, 76, 75
1, 30479, Note_on_c, 1, 64, 0
1, 30480, Note_on_c, 1, 52, 61
1, 30486, Note_on_c, 0, 76, 0
1, 30486, Note_on_c, 0, 74, 75
1, 30495, Note_on_c, 0, 74, 0
1, 30495, Note_on_c, 0, 76, 75
1, 30495, Note_on_c, 1, 52, 0
1, 30496, Note_on_c, 1, 59, 61
1, 30504, Note_on_c, 0, 76, 0
1, 30504, Note_on_c, 0, 74, 75
1, 30511, Note_on_c, 1, 59, 0
1, 30512, Note_on_c, 0, 74, 0
1, 30512, Note_on_c, 0, 73, 75
1, 30512, Note_on_c, 1, 64, 61
1, 30520, Note_on_c, 0, 73, 0
1, 30520, Note_on_c, 0, 74, 75
1, 30527, Note_on_c, 1, 64, 0
1, 30528, Note_on_c, 0, 74, 0
1, 30528, Note_on_c, 0, 72, 75
1, 30528, Note_on_c, 1, 57, 61
1, 30540, Note_on_c, 0, 72, 0
1, 30540, Note_on_c, 0, 73, 75
1, 30543, Note_on_c, 1, 57, 0
1, 30544, Note_on_c, 1, 61, 61
1, 30559, Note_on_c, 1, 61, 0
1, 30560, Note_on_c, 1, 64, 61
1, 30573, Note_on_c, 0, 73, 0
1, 30575, Note_on_c, 1, 64, 0
1, 30576, Note_on_c, 0, 72, 75
1, 30576, Note_on_c, 1, 57, 61
1, 30588, Note_on_c, 0, 72, 0
1, 30588, Note_on_c, 0, 73, 75
1, 30591, Note_on_c, 1, 57, 0
1, 30592, Note_on_c, 1, 61, 61
1, 30607, Note_on_c, 1, 61, 0
1, 30608, Note_on_c, 1, 64, 61
1, 30621, Note_on_c, 0, 73, 0
1, 30623, Note_on_c, 1, 64, 0
1, 30624, Note_on_c, 0, 74, 75
1, 30624, Note_on_c, 1, 56, 61
1, 30633, Note_on_c, 0, 74, 0
1, 30633, Note_on_c, 0, 76, 75
1, 30639, Note_on_c, 1, 56, 0
1, 30640, Note_on_c, 1, 59, 61
1, 30642, Note_on_c, 0, 76, 0
1, 30642, Note_on_c, 0, 74, 75
1, 30651, Note_on_c, 0, 74, 0
1, 30651, Note_on_c, 0, 76, 75
1, 30655, Note_on_c, 1, 59, 0
1, 30656, Note_on_c, 1, 64, 61
1, 30660, Note_on_c, 0, 76, 0
1, 30660, Note_on_c, 0, 74, 75
1, 30669, Note_on_c, 0, 74, 0
1, 30669, Note_on_c, 0, 76, 75
1, 30671, Note_on_c, 1, 64, 0
1, 30672, Note_on_c, 1, 56, 61
1, 30678, Note_on_c, 0, 76, 0
1, 30678, Note_on_c, 0, 74, 75
1, 30687, Note_on_c, 0, 74, 0
1, 30687, Note_on_c, 0, 76, 75
1, 30687, Note_on_c, 1, 56, 0
1, 30688, Note_on_c, 1, 59, 61
1, 30696, Note_on_c, 0, 76, 0
1, 30696, Note_on_c, 0, 74, 75
1, 30703, Note_on_c, 1, 59, 0
1, 30704, Note_on_c, 0, 74, 0
1, 30704, Note_on_c, 0, 76, 75
1, 30704, Note_on_c, 1, 64, 61
1, 30712, Note_on_c, 0, 76, 0
1, 30712, Note_on_c, 0, 74, 75
1, 30719, Note_on_c, 1, 64, 0
1, 30720, Note_on_c, 0, 74, 0
1, 30720, Note_on_c, 0, 80, 75
1, 30720, Note_on_c, 1, 61, 75
1, 30720, Note_on_c, 1, 57, 75
1, 30735, Note_on_c, 0, 80, 0
1, 30736, Note_on_c, 0, 81, 75
1, 30751, Note_on_c, 0, 81, 0
1, 30752, Note_on_c, 0, 85, 75
1, 30765, Note_on_c, 1, 61, 0
1, 30765, Note_on_c, 1, 57, 0
1, 30767, Note_on_c, 0, 85, 0
1, 30768, Note_on_c, 0, 80, 75
1, 30783, Note_on_c, 0, 80, 0
1, 30784, Note_on_c, 0, 81, 75
1, 30799, Note_on_c, 0, 81, 0
1, 30800, Note_on_c, 0, 85, 75
1, 30815, Note_on_c, 0, 85, 0
1, 30816, Note_on_c, 0, 77, 75
1, 30816, Note_on_c, 1, 62, 75
1, 30816, Note_on_c, 1, 50, 75
1, 30831, Note_on_c, 0, 77, 0
1, 30832, Note_on_c, 0, 78, 75
1, 30847, Note_on_c, 0, 78, 0
1, 30848, Note_on_c, 0, 81, 75
1, 30861, Note_on_c, 1, 62, 0
1, 30861, Note_on_c, 1, 50, 0
1, 30863, Note_on_c, 0, 81, 0
1, 30864, Note_on_c, 0, 77, 75
1, 30879, Note_on_c, 0, 77, 0
1, 30880, Note_on_c, 0, 78, 75
1, 30895, Note_on_c, 0, 78, 0
1, 30896, Note_on_c, 0, 81, 75
1, 30911, Note_on_c, 0, 81, 0
1, 30912, Note_on_c, 0, 73, 75
1, 30912, Note_on_c, 1, 50, 75
1, 30912, Note_on_c, 1, 38, 75
1, 30927, Note_on_c, 0, 73, 0
1, 30928, Note_on_c, 0, 74, 75
1, 30943, Note_on_c, 0, 74, 0
1, 30944, Note_on_c, 0, 78, 75
1, 30957, Note_on_c, 1, 50, 0
1, 30957, Note_on_c, 1, 38, 0
1, 30959, Note_on_c, 0, 78, 0
1, 30960, Note_on_c, 0, 73, 75
1, 30975, Note_on_c, 0, 73, 0
1, 30976, Note_on_c, 0, 74, 75
1, 30991, Note_on_c, 0, 74, 0
1, 30992, Note_on_c, 0, 78, 75
1, 31007, Note_on_c, 0, 78, 0
1, 31008, Note_on_c, 0, 70, 75
1, 31008, Note_on_c, 1, 50, 75
1, 31008, Note_on_c, 1, 38, 75
1, 31023, Note_on_c, 0, 70, 0
1, 31024, Note_on_c, 0, 71, 75
1, 31039, Note_on_c, 0, 71, 0
1, 31040, Note_on_c, 0, 74, 75
1, 31053, Note_on_c, 1, 50, 0
1, 31053, Note_on_c, 1, 38, 0
1, 31055, Note_on_c, 0, 74, 0
1, 31056, Note_on_c, 0, 70, 75
1, 31071, Note_on_c, 0, 70, 0
1, 31072, Note_on_c, 0, 71, 75
1, 31087, Note_on_c, 0, 71, 0
1, 31088, Note_on_c, 0, 74, 75
1, 31103, Note_on_c, 0, 74, 0
1, 31104, Note_on_c, 0, 64, 75
1, 31104, Note_on_c, 1, 49, 61
1, 31119, Note_on_c, 1, 49, 0
1, 31120, Note_on_c, 1, 52, 61
1, 31135, Note_on_c, 1, 52, 0
1, 31136, Note_on_c, 1, 57, 61
1, 31151, Note_on_c, 1, 57, 0
1, 31152, Note_on_c, 1, 49, 61
1, 31167, Note_on_c, 1, 49, 0
1, 31168, Note_on_c, 1, 52, 61
1, 31183, Note_on_c, 1, 52, 0
1, 31184, Note_on_c, 1, 57, 61
1, 31193, Note_on_c, 0, 64, 0
1, 31199, Note_on_c, 1, 57, 0
1, 31200, Note_on_c, 0, 71, 75
1, 31200, Note_on_c, 1, 50, 61
1, 31209, Note_on_c, 0, 71, 0
1, 31209, Note_on_c, 0, 73, 75
1, 31215, Note_on_c, 1, 50, 0
1, 31216, Note_on_c, 1, 54, 61
1, 31218, Note_on_c, 0, 73, 0
1, 31218, Note_on_c, 0, 71, 75
1, 31227, Note_on_c, 0, 71, 0
1, 31227, Note_on_c, 0, 73, 75
1, 31231, Note_on_c, 1, 54, 0
1, 31232, Note_on_c, 1, 59, 61
1, 31236, Note_on_c, 0, 73, 0
1, 31236, Note_on_c, 0, 71, 75
1, 31245, Note_on_c, 0, 71, 0
1, 31245, Note_on_c, 0, 73, 75
1, 31247, Note_on_c, 1, 59, 0
1, 31248, Note_on_c, 1, 52, 61
1, 31254, Note_on_c, 0, 73, 0
1, 31254, Note_on_c, 0, 71, 75
1, 31263, Note_on_c, 0, 71, 0
1, 31263, Note_on_c, 0, 73, 75
1, 31263, Note_on_c, 1, 52, 0
1, 31264, Note_on_c, 1, 59, 61
1, 31272, Note_on_c, 0, 73, 0
1, 31272, Note_on_c, 0, 71, 75
1, 31279, Note_on_c, 1, 59, 0
1, 31280, Note_on_c, 0, 71, 0
1, 31280, Note_on_c, 0, 73, 75
1, 31280, Note_on_c, 1, 62, 61
1, 31288, Note_on_c, 0, 73, 0
1, 31288, Note_on_c, 0, 71, 75
1, 31295, Note_on_c, 1, 62, 0
1, 31296, Note_on_c, 0, 71, 0
1, 31296, Note_on_c, 0, 80, 75
1, 31296, Note_on_c, 1, 61, 75
1, 31296, Note_on_c, 1, 57, 75
1, 31311, Note_on_c, 0, 80, 0
1, 31312, Note_on_c, 0, 81, 75
1, 31327, Note_on_c, 0, 81, 0
1, 31328, Note_on_c, 0, 85, 75
1, 31341, Note_on_c, 1, 61, 0
1, 31341, Note_on_c, 1, 57, 0
1, 31343, Note_on_c, 0, 85, 0
1, 31344, Note_on_c, 0, 80, 75
1, 31359, Note_on_c, 0, 80, 0
1, 31360, Note_on_c, 0, 81, 75
1, 31375, Note_on_c, 0, 81, 0
1, 31376, Note_on_c, 0, 85, 75
1, 31391, Note_on_c, 0, 85, 0
1, 31392, Note_on_c, 0, 77, 75
1, 31392, Note_on_c, 1, 62, 75
1, 31392, Note_on_c, 1, 50, 75
1, 31407, Note_on_c, 0, 77, 0
1, 31408, Note_on_c, 0, 78, 75
1, 31423, Note_on_c, 0, 78, 0
1, 31424, Note_on_c, 0, 81, 75
1, 31437, Note_on_c, 1, 62, 0
1, 31437, Note_on_c, 1, 50, 0
1, 31439, Note_on_c, 0, 81, 0
1, 31440, Note_on_c, 0, 77, 75
1, 31455, Note_on_c, 0, 77, 0
1, 31456, Note_on_c, 0, 78, 75
1, 31471, Note_on_c, 0, 78, 0
1, 31472, Note_on_c, 0, 81, 75
1, 31487, Note_on_c, 0, 81, 0
1, 31488, Note_on_c, 0, 73, 75
1, 31488, Note_on_c, 1, 50, 75
1, 31488, Note_on_c, 1, 38, 75
1, 31503, Note_on_c, 0, 73, 0
1, 31504, Note_on_c, 0, 74, 75
1, 31519, Note_on_c, 0, 74, 0
1, 31520, Note_on_c, 0, 78, 75
1, 31533, Note_on_c, 1, 50, 0
1, 31533, Note_on_c, 1, 38, 0
1, 31535, Note_on_c, 0, 78, 0
1, 31536, Note_on_c, 0, 73, 75
1, 31551, Note_on_c, 0, 73, 0
1, 31552, Note_on_c, 0, 74, 75
1, 31567, Note_on_c, 0, 74, 0
1, 31568, Note_on_c, 0, 78, 75
1, 31583, Note_on_c, 0, 78, 0
1, 31584, Note_on_c, 0, 70, 75
1, 31584, Note_on_c, 1, 50, 75
1, 31584, Note_on_c, 1, 38, 75
1, 31599, Note_on_c, 0, 70, 0
1, 31600, Note_on_c, 0, 71, 75
1, 31615, Note_on_c, 0, 71, 0
1, 31616, Note_on_c, 0, 74, 75
1, 31629, Note_on_c, 1, 50, 0
1, 31629, Note_on_c, 1, 38, 0
1, 31631, Note_on_c, 0, 74, 0
1, 31632, Note_on_c, 0, 70, 75
1, 31647, Note_on_c, 0, 70, 0
1, 31648, Note_on_c, 0, 71, 75
1, 31663, Note_on_c, 0, 71, 0
1, 31664, Note_on_c, 0, 74, 75
1, 31679, Note_on_c, 0, 74, 0
1, 31680, Note_on_c, 0, 64, 75
1, 31680, Note_on_c, 1, 49, 61
1, 31695, Note_on_c, 1, 49, 0
1, 31696, Note_on_c, 1, 52, 61
1, 31711, Note_on_c, 1, 52, 0
1, 31712, Note_on_c, 1, 57, 61
1, 31727, Note_on_c, 1, 57, 0
1, 31728, Note_on_c, 1, 49, 61
1, 31743, Note_on_c, 1, 49, 0
1, 31744, Note_on_c, 1, 52, 61
1, 31759, Note_on_c, 1, 52, 0
1, 31760, Note_on_c, 1, 57, 61
1, 31769, Note_on_c, 0, 64, 0
1, 31775, Note_on_c, 1, 57, 0
1, 31776, Note_on_c, 0, 71, 75
1, 31776, Note_on_c, 1, 50, 61
1, 31785, Note_on_c, 0, 71, 0
1, 31785, Note_on_c, 0, 73, 75
1, 31791, Note_on_c, 1, 50, 0
1, 31792, Note_on_c, 1, 54, 61
1, 31794, Note_on_c, 0, 73, 0
1, 31794, Note_on_c, 0, 71, 75
1, 31803, Note_on_c, 0, 71, 0
1, 31803, Note_on_c, 0, 73, 75
1, 31807, Note_on_c, 1, 54, 0
1, 31808, Note_on_c, 1, 59, 61
1, 31812, Note_on_c, 0, 73, 0
1, 31812, Note_on_c, 0, 71, 75
1, 31821, Note_on_c, 0, 71, 0
1, 31821, Note_on_c, 0, 73, 75
1, 31823, Note_on_c, 1, 59, 0
1, 31824, Note_on_c, 1, 52, 61
1, 31830, Note_on_c, 0, 73, 0
1, 31830, Note_on_c, 0, 71, 75
1, 31839, Note_on_c, 0, 71, 0
1, 31839, Note_on_c, 0, 73, 75
1, 31839, Note_on_c, 1, 52, 0
1, 31840, Note_on_c, 1, 59, 61
1, 31848, Note_on_c, 0, 73, 0
1, 31848, Note_on_c, 0, 71, 75
1, 31855, Note_on_c, 1, 59, 0
1, 31856, Note_on_c, 0, 71, 0
1, 31856, Note_on_c, 0, 69, 75
1, 31856, Note_on_c, 1, 62, 61
1, 31864, Note_on_c, 0, 69, 0
1, 31864, Note_on_c, 0, 71, 75
1, 31871, Note_on_c, 1, 62, 0
1, 31872, Note_on_c, 0, 71, 0
1, 31872, Note_on_c, 0, 69, 75
1, 31872, Note_on_c, 1, 57, 53
1, 31887, Note_on_c, 1, 57, 0
1, 31888, Note_on_c, 1, 61, 53
1, 31903, Note_on_c, 1, 61, 0
1, 31904, Note_on_c, 1, 64, 53
1, 31917, Note_on_c, 0, 69, 0
1, 31919, Note_on_c, 1, 64, 0
1, 31920, Note_on_c, 1, 57, 53
1, 31935, Note_on_c, 1, 57, 0
1, 31936, Note_on_c, 1, 61, 53
1, 31951, Note_on_c, 1, 61, 0
1, 31952, Note_on_c, 1, 64, 53
1, 31967, Note_on_c, 1, 64, 0
1, 31968, Note_on_c, 0, 76, 69
1, 31968, Note_on_c, 1, 52, 53
1, 31983, Note_on_c, 1, 52, 0
1, 31984, Note_on_c, 1, 59, 53
1, 31992, Note_on_c, 0, 76, 0
1, 31992, Note_on_c, 0, 74, 69
1, 31999, Note_on_c, 1, 59, 0
1, 32000, Note_on_c, 1, 64, 53
1, 32015, Note_on_c, 0, 74, 0
1, 32015, Note_on_c, 1, 64, 0
1, 32016, Note_on_c, 0, 71, 69
1, 32016, Note_on_c, 1, 52, 53
1, 32031, Note_on_c, 1, 52, 0
1, 32032, Note_on_c, 1, 59, 53
1, 32047, Note_on_c, 1, 59, 0
1, 32048, Note_on_c, 1, 64, 53
1, 32050, Note_on_c, 0, 71, 0
1, 32052, Note_on_c, 0, 68, 69
1, 32063, Note_on_c, 1, 64, 0
1, 32064, Note_on_c, 0, 68, 0
1, 32064, Note_on_c, 0, 69, 69
1, 32064, Note_on_c, 1, 57, 53
1, 32079, Note_on_c, 1, 57, 0
1, 32080, Note_on_c, 1, 61, 53
1, 32095, Note_on_c, 1, 61, 0
1, 32096, Note_on_c, 1, 64, 53
1, 32109, Note_on_c, 0, 69, 0
1, 32111, Note_on_c, 1, 64, 0
1, 32112, Note_on_c, 1, 57, 53
1, 32127, Note_on_c, 1, 57, 0
1, 32128, Note_on_c, 1, 61, 53
1, 32143, Note_on_c, 1, 61, 0
1, 32144, Note_on_c, 1, 64, 53
1, 32159, Note_on_c, 1, 64, 0
1, 32160, Note_on_c, 0, 76, 61
1, 32160, Note_on_c, 1, 52, 53
1, 32175, Note_on_c, 1, 52, 0
1, 32176, Note_on_c, 1, 59, 53
1, 32184, Note_on_c, 0, 76, 0
1, 32184, Note_on_c, 0, 74, 61
1, 32191, Note_on_c, 1, 59, 0
1, 32192, Note_on_c, 1, 64, 53
1, 32207, Note_on_c, 0, 74, 0
1, 32207, Note_on_c, 1, 64, 0
1, 32208, Note_on_c, 0, 71, 61
1, 32208, Note_on_c, 1, 52, 53
1, 32223, Note_on_c, 1, 52, 0
1, 32224, Note_on_c, 1, 59, 53
1, 32239, Note_on_c, 1, 59, 0
1, 32240, Note_on_c, 1, 64, 53
1, 32242, Note_on_c, 0, 71, 0
1, 32244, Note_on_c, 0, 68, 61
1, 32255, Note_on_c, 1, 64, 0
1, 32256, Note_on_c, 0, 68, 0
1, 32256, Note_on_c, 0, 69, 61
1, 32256, Note_on_c, 1, 57, 53
1, 32271, Note_on_c, 1, 57, 0
1, 32272, Note_on_c, 1, 61, 53
1, 32287, Note_on_c, 1, 61, 0
1, 32288, Note_on_c, 1, 64, 53
1, 32303, Note_on_c, 1, 64, 0
1, 32304, Note_on_c, 1, 57, 53
1, 32319, Note_on_c, 1, 57, 0
1, 32320, Note_on_c, 1, 61, 53
1, 32335, Note_on_c, 1, 61, 0
1, 32336, Note_on_c, 1, 64, 53
1, 32345, Note_on_c, 0, 69, 0
1, 32351, Note_on_c, 1, 64, 0
1, 32352, Note_on_c, 0, 33, 75
1, 32352, Note_on_c, 1, 57, 53
1, 32367, Note_on_c, 1, 57, 0
1, 32368, Note_on_c, 1, 61, 53
1, 32383, Note_on_c, 1, 61, 0
1, 32384, Note_on_c, 1, 64, 53
1, 32399, Note_on_c, 1, 64, 0
1, 32400, Note_on_c, 1, 57, 53
1, 32415, Note_on_c, 1, 57, 0
1, 32416, Note_on_c, 1, 61, 53
1, 32419, Note_on_c, 0, 33, 0
1, 32424, Note_on_c, 0, 33, 75
1, 32431, Note_on_c, 1, 61, 0
1, 32432, Note_on_c, 1, 64, 53
1, 32447, Note_on_c, 0, 33, 0
1, 32447, Note_on_c, 1, 64, 0
1, 32448, Note_on_c, 0, 33, 75
1, 32448, Note_on_c, 1, 57, 53
1, 32537, Note_on_c, 0, 33, 0
1, 32537, Note_on_c, 1, 57, 0
1, 32628, Note_on_c, 0, 64, 75
1, 32640, Note_on_c, 0, 64, 0
1, 32640, Note_on_c, 0, 73, 75
1, 32688, Note_on_c, 1, 45, 76
1, 32733, Note_on_c, 1, 45, 0
1, 32736, Note_on_c, 1, 57, 78
1, 32770, Note_on_c, 0, 73, 0
1, 32772, Note_on_c, 0, 64, 80
1, 32781, Note_on_c, 1, 57, 0
1, 32784, Note_on_c, 0, 64, 0
1, 32784, Note_on_c, 0, 74, 80
1, 32784, Note_on_c, 1, 56, 80
1, 32818, Note_on_c, 0, 74, 0
1, 32820, Note_on_c, 0, 64, 82
1, 32829, Note_on_c, 1, 56, 0
1, 32832, Note_on_c, 0, 64, 0
1, 32832, Note_on_c, 0, 73, 82
1, 32832, Note_on_c, 1, 57, 82
1, 32866, Note_on_c, 0, 73, 0
1, 32868, Note_on_c, 0, 64, 84
1, 32877, Note_on_c, 1, 57, 0
1, 32880, Note_on_c, 0, 64, 0
1, 32880, Note_on_c, 0, 71, 83
1, 32880, Note_on_c, 1, 62, 84
1, 32914, Note_on_c, 0, 71, 0
1, 32916, Note_on_c, 0, 64, 81
1, 32925, Note_on_c, 1, 62, 0
1, 32928, Note_on_c, 0, 64, 0
1, 32928, Note_on_c, 0, 69, 80
1, 32928, Note_on_c, 1, 61, 81
1, 32962, Note_on_c, 0, 69, 0
1, 32964, Note_on_c, 0, 64, 78
1, 32973, Note_on_c, 1, 61, 0
1, 32976, Note_on_c, 0, 64, 0
1, 32976, Note_on_c, 0, 71, 77
1, 32976, Note_on_c, 1, 56, 78
1, 33010, Note_on_c, 0, 71, 0
1, 33012, Note_on_c, 0, 64, 75
1, 33021, Note_on_c, 1, 56, 0
1, 33024, Note_on_c, 0, 64, 0
1, 33024, Note_on_c, 0, 73, 75
1, 33072, Note_on_c, 1, 45, 76
1, 33117, Note_on_c, 1, 45, 0
1, 33120, Note_on_c, 1, 57, 78
1, 33154, Note_on_c, 0, 73, 0
1, 33156, Note_on_c, 0, 64, 80
1, 33165, Note_on_c, 1, 57, 0
1, 33168, Note_on_c, 0, 64, 0
1, 33168, Note_on_c, 0, 74, 80
1, 33168, Note_on_c, 1, 56, 80
1, 33202, Note_on_c, 0, 74, 0
1, 33204, Note_on_c, 0, 64, 82
1, 33213, Note_on_c, 1, 56, 0
1, 33216, Note_on_c, 0, 64, 0
1, 33216, Note_on_c, 0, 73, 82
1, 33216, Note_on_c, 1, 57, 82
1, 33250, Note_on_c, 0, 73, 0
1, 33252, Note_on_c, 0, 64, 84
1, 33261, Note_on_c, 1, 57, 0
1, 33264, Note_on_c, 0, 64, 0
1, 33264, Note_on_c, 0, 71, 83
1, 33264, Note_on_c, 1, 62, 84
1, 33298, Note_on_c, 0, 71, 0
1, 33300, Note_on_c, 0, 64, 81
1, 33309, Note_on_c, 1, 62, 0
1, 33312, Note_on_c, 0, 64, 0
1, 33312, Note_on_c, 0, 69, 80
1, 33312, Note_on_c, 1, 61, 81
1, 33346, Note_on_c, 0, 69, 0
1, 33348, Note_on_c, 0, 64, 78
1, 33357, Note_on_c, 1, 61, 0
1, 33360, Note_on_c, 0, 64, 0
1, 33360, Note_on_c, 0, 71, 77
1, 33360, Note_on_c, 1, 56, 78
1, 33394, Note_on_c, 0, 71, 0
1, 33396, Note_on_c, 0, 64, 75
1, 33405, Note_on_c, 1, 56, 0
1, 33408, Note_on_c, 0, 64, 0
1, 33408, Note_on_c, 0, 73, 75
1, 33408, Note_on_c, 1, 57, 75
1, 33442, Note_on_c, 0, 73, 0
1, 33444, Note_on_c, 0, 64, 77
1, 33453, Note_on_c, 1, 57, 0
1, 33456, Note_on_c, 0, 64, 0
1, 33456, Note_on_c, 0, 74, 78
1, 33456, Note_on_c, 1, 59, 78
1, 33490, Note_on_c, 0, 74, 0
1, 33492, Note_on_c, 0, 64, 80
1, 33501, Note_on_c, 1, 59, 0
1, 33504, Note_on_c, 0, 64, 0
1, 33504, Note_on_c, 0, 76, 81
1, 33504, Note_on_c, 1, 61, 81
1, 33524, Note_on_c, 0, 76, 0
1, 33549, Note_on_c, 1, 61, 0
1, 33600, Note_on_c, 0, 73, 75
1, 33600, Note_on_c, 1, 57, 75
1, 33615, Note_on_c, 0, 73, 0
1, 33616, Note_on_c, 0, 69, 75
1, 33631, Note_on_c, 0, 69, 0
1, 33632, Note_on_c, 0, 64, 76
1, 33645, Note_on_c, 1, 57, 0
1, 33647, Note_on_c, 0, 64, 0
1, 33648, Note_on_c, 0, 74, 77
1, 33648, Note_on_c, 1, 59, 78
1, 33663, Note_on_c, 0, 74, 0
1, 33664, Note_on_c, 0, 71, 78
1, 33679, Note_on_c, 0, 71, 0
1, 33680, Note_on_c, 0, 64, 78
1, 33693, Note_on_c, 1, 59, 0
1, 33695, Note_on_c, 0, 64, 0
1, 33696, Note_on_c, 0, 76, 79
1, 33696, Note_on_c, 1, 61, 81
1, 33716, Note_on_c, 0, 76, 0
1, 33741, Note_on_c, 1, 61, 0
1, 33792, Note_on_c, 0, 83, 75
1, 33804, Note_on_c, 0, 83, 0
1, 33804, Note_on_c, 0, 81, 75
1, 33816, Note_on_c, 0, 81, 0
1, 33816, Note_on_c, 0, 80, 75
1, 33828, Note_on_c, 0, 80, 0
1, 33828, Note_on_c, 0, 81, 75
1, 33840, Note_on_c, 1, 52, 69
1, 33840, Note_on_c, 1, 49, 69
1, 33885, Note_on_c, 1, 52, 0
1, 33885, Note_on_c, 1, 49, 0
1, 33888, Note_on_c, 1, 52, 69
1, 33888, Note_on_c, 1, 49, 69
1, 33925, Note_on_c, 0, 81, 0
1, 33933, Note_on_c, 1, 52, 0
1, 33933, Note_on_c, 1, 49, 0
1, 33936, Note_on_c, 0, 69, 75
1, 33936, Note_on_c, 1, 52, 69
1, 33936, Note_on_c, 1, 49, 69
1, 33981, Note_on_c, 0, 69, 0
1, 33981, Note_on_c, 1, 52, 0
1, 33981, Note_on_c, 1, 49, 0
1, 33984, Note_on_c, 0, 70, 75
1, 34032, Note_on_c, 0, 70, 0
1, 34032, Note_on_c, 0, 71, 75
1, 34032, Note_on_c, 1, 54, 69
1, 34032, Note_on_c, 1, 50, 69
1, 34077, Note_on_c, 1, 54, 0
1, 34077, Note_on_c, 1, 50, 0
1, 34080, Note_on_c, 1, 54, 69
1, 34080, Note_on_c, 1, 50, 69
1, 34125, Note_on_c, 1, 54, 0
1, 34125, Note_on_c, 1, 50, 0
1, 34128, Note_on_c, 1, 54, 69
1, 34128, Note_on_c, 1, 50, 69
1, 34165, Note_on_c, 0, 71, 0
1, 34173, Note_on_c, 1, 54, 0
1, 34173, Note_on_c, 1, 50, 0
1, 34176, Note_on_c, 0, 86, 75
1, 34224, Note_on_c, 1, 56, 69
1, 34224, Note_on_c, 1, 52, 69
1, 34269, Note_on_c, 1, 56, 0
1, 34269, Note_on_c, 1, 52, 0
1, 34272, Note_on_c, 1, 56, 69
1, 34272, Note_on_c, 1, 52, 69
1, 34317, Note_on_c, 1, 56, 0
1, 34317, Note_on_c, 1, 52, 0
1, 34320, Note_on_c, 0, 86, 0
1, 34320, Note_on_c, 0, 74, 75
1, 34320, Note_on_c, 1, 56, 69
1, 34320, Note_on_c, 1, 52, 69
1, 34365, Note_on_c, 0, 74, 0
1, 34365, Note_on_c, 1, 56, 0
1, 34365, Note_on_c, 1, 52, 0
1, 34368, Note_on_c, 0, 73, 75
1, 34368, Note_on_c, 1, 57, 75
1, 34380, Note_on_c, 0, 73, 0
1, 34380, Note_on_c, 0, 71, 75
1, 34392, Note_on_c, 0, 71, 0
1, 34392, Note_on_c, 0, 69, 75
1, 34392, Note_on_c, 1, 57, 0
1, 34392, Note_on_c, 1, 45, 75
1, 34404, Note_on_c, 0, 69, 0
1, 34404, Note_on_c, 0, 71, 75
1, 34415, Note_on_c, 1, 45, 0
1, 34416, Note_on_c, 0, 71, 0
1, 34416, Note_on_c, 0, 69, 75
1, 34416, Note_on_c, 1, 57, 75
1, 34426, Note_on_c, 1, 57, 0
1, 34436, Note_on_c, 0, 69, 0
1, 34440, Note_on_c, 1, 57, 75
1, 34450, Note_on_c, 1, 57, 0
1, 34464, Note_on_c, 1, 57, 75
1, 34474, Note_on_c, 1, 57, 0
1, 34488, Note_on_c, 1, 57, 75
1, 34498, Note_on_c, 1, 57, 0
1, 34512, Note_on_c, 1, 57, 75
1, 34522, Note_on_c, 1, 57, 0
1, 34536, Note_on_c, 1, 57, 75
1, 34546, Note_on_c, 1, 57, 0
1, 34560, Note_on_c, 0, 81, 75
1, 34560, Note_on_c, 1, 57, 75
1, 34584, Note_on_c, 0, 81, 0
1, 34584, Note_on_c, 0, 69, 75
1, 34607, Note_on_c, 0, 69, 0
1, 34608, Note_on_c, 0, 81, 75
1, 34618, Note_on_c, 0, 81, 0
1, 34632, Note_on_c, 0, 81, 75
1, 34642, Note_on_c, 0, 81, 0
1, 34649, Note_on_c, 1, 57, 0
1, 34656, Note_on_c, 0, 81, 75
1, 34666, Note_on_c, 0, 81, 0
1, 34680, Note_on_c, 0, 81, 75
1, 34690, Note_on_c, 0, 81, 0
1, 34704, Note_on_c, 0, 81, 75
1, 34714, Note_on_c, 0, 81, 0
1, 34728, Note_on_c, 0, 81, 75
1, 34738, Note_on_c, 0, 81, 0
1, 34752, Note_on_c, 0, 81, 75
1, 34752, Note_on_c, 1, 60, 75
1, 34775, Note_on_c, 0, 81, 0
1, 34775, Note_on_c, 1, 60, 0
1, 34776, Note_on_c, 0, 69, 75
1, 34776, Note_on_c, 1, 48, 75
1, 34799, Note_on_c, 0, 69, 0
1, 34799, Note_on_c, 1, 48, 0
1, 34800, Note_on_c, 0, 79, 75
1, 34800, Note_on_c, 1, 59, 75
1, 34823, Note_on_c, 0, 79, 0
1, 34823, Note_on_c, 1, 59, 0
1, 34824, Note_on_c, 0, 67, 75
1, 34824, Note_on_c, 1, 47, 75
1, 34847, Note_on_c, 0, 67, 0
1, 34847, Note_on_c, 1, 47, 0
1, 34848, Note_on_c, 0, 78, 75
1, 34848, Note_on_c, 1, 57, 75
1, 34871, Note_on_c, 0, 78, 0
1, 34871, Note_on_c, 1, 57, 0
1, 34872, Note_on_c, 0, 66, 75
1, 34872, Note_on_c, 1, 45, 75
1, 34895, Note_on_c, 0, 66, 0
1, 34895, Note_on_c, 1, 45, 0
1, 34896, Note_on_c, 0, 76, 75
1, 34896, Note_on_c, 1, 58, 75
1, 34919, Note_on_c, 0, 76, 0
1, 34919, Note_on_c, 1, 58, 0
1, 34920, Note_on_c, 0, 64, 75
1, 34920, Note_on_c, 1, 46, 75
1, 34943, Note_on_c, 0, 64, 0
1, 34943, Note_on_c, 1, 46, 0
1, 34944, Note_on_c, 0, 75, 75
1, 34944, Note_on_c, 1, 59, 75
1, 34968, Note_on_c, 1, 59, 0
1, 34968, Note_on_c, 1, 47, 75
1, 34991, Note_on_c, 1, 47, 0
1, 34992, Note_on_c, 1, 59, 75
1, 35002, Note_on_c, 1, 59, 0
1, 35016, Note_on_c, 1, 59, 75
1, 35026, Note_on_c, 1, 59, 0
1, 35033, Note_on_c, 0, 75, 0
1, 35040, Note_on_c, 1, 59, 75
1, 35050, Note_on_c, 1, 59, 0
1, 35064, Note_on_c, 1, 59, 75
1, 35074, Note_on_c, 1, 59, 0
1, 35088, Note_on_c, 0, 66, 75
1, 35088, Note_on_c, 0, 63, 75
1, 35088, Note_on_c, 1, 59, 75
1, 35098, Note_on_c, 1, 59, 0
1, 35108, Note_on_c, 0, 66, 0
1, 35108, Note_on_c, 0, 63, 0
1, 35112, Note_on_c, 1, 59, 75
1, 35122, Note_on_c, 1, 59, 0
1, 35136, Note_on_c, 0, 67, 75
1, 35136, Note_on_c, 0, 64, 75
1, 35136, Note_on_c, 1, 59, 75
1, 35146, Note_on_c, 1, 59, 0
1, 35156, Note_on_c, 0, 67, 0
1, 35156, Note_on_c, 0, 64, 0
1, 35160, Note_on_c, 1, 59, 75
1, 35170, Note_on_c, 1, 59, 0
1, 35184, Note_on_c, 0, 66, 75
1, 35184, Note_on_c, 0, 63, 75
1, 35184, Note_on_c, 1, 59, 75
1, 35194, Note_on_c, 1, 59, 0
1, 35204, Note_on_c, 0, 66, 0
1, 35204, Note_on_c, 0, 63, 0
1, 35208, Note_on_c, 1, 59, 75
1, 35218, Note_on_c, 1, 59, 0
1, 35232, Note_on_c, 0, 67, 75
1, 35232, Note_on_c, 0, 64, 75
1, 35232, Note_on_c, 1, 59, 75
1, 35242, Note_on_c, 1, 59, 0
1, 35252, Note_on_c, 0, 67, 0
1, 35252, Note_on_c, 0, 64, 0
1, 35256, Note_on_c, 1, 59, 75
1, 35266, Note_on_c, 1, 59, 0
1, 35280, Note_on_c, 0, 71, 75
1, 35280, Note_on_c, 0, 66, 64
1, 35280, Note_on_c, 1, 59, 75
1, 35290, Note_on_c, 1, 59, 0
1, 35292, Note_on_c, 0, 71, 0
1, 35292, Note_on_c, 0, 69, 75
1, 35300, Note_on_c, 0, 66, 0
1, 35304, Note_on_c, 0, 69, 0
1, 35304, Note_on_c, 0, 67, 75
1, 35304, Note_on_c, 1, 59, 75
1, 35314, Note_on_c, 1, 59, 0
1, 35316, Note_on_c, 0, 67, 0
1, 35316, Note_on_c, 0, 69, 75
1, 35328, Note_on_c, 0, 69, 0
1, 35328, Note_on_c, 0, 71, 75
1, 35328, Note_on_c, 0, 67, 75
1, 35328, Note_on_c, 1, 59, 75
1, 35352, Note_on_c, 1, 59, 0
1, 35352, Note_on_c, 1, 47, 75
1, 35375, Note_on_c, 1, 47, 0
1, 35376, Note_on_c, 1, 59, 75
1, 35386, Note_on_c, 1, 59, 0
1, 35400, Note_on_c, 1, 59, 75
1, 35410, Note_on_c, 1, 59, 0
1, 35417, Note_on_c, 0, 71, 0
1, 35417, Note_on_c, 0, 67, 0
1, 35424, Note_on_c, 1, 59, 75
1, 35434, Note_on_c, 1, 59, 0
1, 35448, Note_on_c, 1, 59, 75
1, 35458, Note_on_c, 1, 59, 0
1, 35472, Note_on_c, 0, 83, 75
1, 35472, Note_on_c, 0, 79, 64
1, 35472, Note_on_c, 1, 59, 75
1, 35482, Note_on_c, 1, 59, 0
1, 35492, Note_on_c, 0, 83, 0
1, 35495, Note_on_c, 0, 79, 0
1, 35496, Note_on_c, 0, 71, 64
1, 35496, Note_on_c, 1, 59, 75
1, 35506, Note_on_c, 1, 59, 0
1, 35519, Note_on_c, 0, 71, 0
1, 35520, Note_on_c, 0, 81, 75
1, 35520, Note_on_c, 0, 78, 64
1, 35520, Note_on_c, 1, 59, 75
1, 35530, Note_on_c, 1, 59, 0
1, 35540, Note_on_c, 0, 81, 0
1, 35543, Note_on_c, 0, 78, 0
1, 35544, Note_on_c, 0, 71, 64
1, 35544, Note_on_c, 1, 59, 75
1, 35554, Note_on_c, 1, 59, 0
1, 35567, Note_on_c, 0, 71, 0
1, 35568, Note_on_c, 0, 79, 75
1, 35568, Note_on_c, 0, 76, 64
1, 35568, Note_on_c, 1, 59, 75
1, 35578, Note_on_c, 1, 59, 0
1, 35588, Note_on_c, 0, 79, 0
1, 35591, Note_on_c, 0, 76, 0
1, 35592, Note_on_c, 0, 71, 64
1, 35592, Note_on_c, 1, 59, 75
1, 35602, Note_on_c, 1, 59, 0
1, 35615, Note_on_c, 0, 71, 0
1, 35616, Note_on_c, 0, 78, 75
1, 35616, Note_on_c, 0, 75, 64
1, 35616, Note_on_c, 1, 59, 75
1, 35626, Note_on_c, 1, 59, 0
1, 35636, Note_on_c, 0, 78, 0
1, 35639, Note_on_c, 0, 75, 0
1, 35640, Note_on_c, 0, 71, 64
1, 35640, Note_on_c, 1, 59, 75
1, 35650, Note_on_c, 1, 59, 0
1, 35663, Note_on_c, 0, 71, 0
1, 35664, Note_on_c, 0, 76, 75
1, 35664, Note_on_c, 0, 73, 64
1, 35664, Note_on_c, 1, 59, 75
1, 35674, Note_on_c, 1, 59, 0
1, 35684, Note_on_c, 0, 76, 0
1, 35687, Note_on_c, 0, 73, 0
1, 35688, Note_on_c, 0, 70, 64
1, 35688, Note_on_c, 1, 59, 75
1, 35698, Note_on_c, 1, 59, 0
1, 35711, Note_on_c, 0, 70, 0
1, 35712, Note_on_c, 0, 75, 75
1, 35712, Note_on_c, 0, 71, 75
1, 35712, Note_on_c, 1, 59, 75
1, 35736, Note_on_c, 1, 59, 0
1, 35736, Note_on_c, 1, 47, 75
1, 35759, Note_on_c, 1, 47, 0
1, 35760, Note_on_c, 1, 59, 75
1, 35770, Note_on_c, 1, 59, 0
1, 35784, Note_on_c, 1, 59, 75
1, 35794, Note_on_c, 1, 59, 0
1, 35801, Note_on_c, 0, 75, 0
1, 35801, Note_on_c, 0, 71, 0
1, 35808, Note_on_c, 1, 59, 75
1, 35818, Note_on_c, 1, 59, 0
1, 35832, Note_on_c, 1, 59, 75
1, 35842, Note_on_c, 1, 59, 0
1, 35856, Note_on_c, 0, 66, 75
1, 35856, Note_on_c, 0, 63, 75
1, 35856, Note_on_c, 1, 59, 75
1, 35866, Note_on_c, 1, 59, 0
1, 35876, Note_on_c, 0, 66, 0
1, 35876, Note_on_c, 0, 63, 0
1, 35880, Note_on_c, 1, 59, 75
1, 35890, Note_on_c, 1, 59, 0
1, 35904, Note_on_c, 0, 67, 75
1, 35904, Note_on_c, 0, 64, 75
1, 35904, Note_on_c, 1, 59, 75
1, 35914, Note_on_c, 1, 59, 0
1, 35924, Note_on_c, 0, 67, 0
1, 35924, Note_on_c, 0, 64, 0
1, 35928, Note_on_c, 1, 59, 75
1, 35938, Note_on_c, 1, 59, 0
1, 35952, Note_on_c, 0, 66, 75
1, 35952, Note_on_c, 0, 63, 75
1, 35952, Note_on_c, 1, 59, 75
1, 35962, Note_on_c, 1, 59, 0
1, 35972, Note_on_c, 0, 66, 0
1, 35972, Note_on_c, 0, 63, 0
1, 35976, Note_on_c, 1, 59, 75
1, 35986, Note_on_c, 1, 59, 0
1, 36000, Note_on_c, 0, 67, 75
1, 36000, Note_on_c, 0, 64, 75
1, 36000, Note_on_c, 1, 59, 75
1, 36010, Note_on_c, 1, 59, 0
1, 36020, Note_on_c, 0, 67, 0
1, 36020, Note_on_c, 0, 64, 0
1, 36024, Note_on_c, 1, 59, 75
1, 36034, Note_on_c, 1, 59, 0
1, 36048, Note_on_c, 0, 71, 75
1, 36048, Note_on_c, 0, 66, 64
1, 36048, Note_on_c, 1, 59, 75
1, 36058, Note_on_c, 1, 59, 0
1, 36060, Note_on_c, 0, 71, 0
1, 36060, Note_on_c, 0, 69, 75
1, 36068, Note_on_c, 0, 66, 0
1, 36072, Note_on_c, 0, 69, 0
1, 36072, Note_on_c, 0, 67, 75
1, 36072, Note_on_c, 1, 59, 75
1, 36082, Note_on_c, 1, 59, 0
1, 36084, Note_on_c, 0, 67, 0
1, 36084, Note_on_c, 0, 69, 75
1, 36096, Note_on_c, 0, 69, 0
1, 36096, Note_on_c, 0, 71, 75
1, 36096, Note_on_c, 0, 67, 75
1, 36096, Note_on_c, 1, 59, 75
1, 36120, Note_on_c, 1, 59, 0
1, 36120, Note_on_c, 1, 47, 75
1, 36143, Note_on_c, 1, 47, 0
1, 36144, Note_on_c, 1, 59, 75
1, 36154, Note_on_c, 1, 59, 0
1, 36168, Note_on_c, 1, 59, 75
1, 36178, Note_on_c, 1, 59, 0
1, 36185, Note_on_c, 0, 71, 0
1, 36185, Note_on_c, 0, 67, 0
1, 36192, Note_on_c, 1, 59, 75
1, 36202, Note_on_c, 1, 59, 0
1, 36216, Note_on_c, 1, 59, 75
1, 36226, Note_on_c, 1, 59, 0
1, 36240, Note_on_c, 0, 83, 75
1, 36240, Note_on_c, 0, 79, 64
1, 36240, Note_on_c, 1, 59, 75
1, 36250, Note_on_c, 1, 59, 0
1, 36260, Note_on_c, 0, 83, 0
1, 36263, Note_on_c, 0, 79, 0
1, 36264, Note_on_c, 0, 71, 64
1, 36264, Note_on_c, 1, 59, 75
1, 36274, Note_on_c, 1, 59, 0
1, 36287, Note_on_c, 0, 71, 0
1, 36288, Note_on_c, 0, 81, 75
1, 36288, Note_on_c, 0, 78, 64
1, 36288, Note_on_c, 1, 59, 75
1, 36298, Note_on_c, 1, 59, 0
1, 36308, Note_on_c, 0, 81, 0
1, 36311, Note_on_c, 0, 78, 0
1, 36312, Note_on_c, 0, 71, 64
1, 36312, Note_on_c, 1, 59, 75
1, 36322, Note_on_c, 1, 59, 0
1, 36335, Note_on_c, 0, 71, 0
1, 36336, Note_on_c, 0, 79, 75
1, 36336, Note_on_c, 0, 76, 64
1, 36336, Note_on_c, 1, 59, 75
1, 36346, Note_on_c, 1, 59, 0
1, 36356, Note_on_c, 0, 79, 0
1, 36359, Note_on_c, 0, 76, 0
1, 36360, Note_on_c, 0, 71, 64
1, 36360, Note_on_c, 1, 59, 75
1, 36370, Note_on_c, 1, 59, 0
1, 36383, Note_on_c, 0, 71, 0
1, 36384, Note_on_c, 0, 78, 75
1, 36384, Note_on_c, 0, 75, 64
1, 36384, Note_on_c, 1, 59, 75
1, 36394, Note_on_c, 1, 59, 0
1, 36404, Note_on_c, 0, 78, 0
1, 36407, Note_on_c, 0, 75, 0
1, 36408, Note_on_c, 0, 71, 64
1, 36408, Note_on_c, 1, 59, 75
1, 36418, Note_on_c, 1, 59, 0
1, 36431, Note_on_c, 0, 71, 0
1, 36432, Note_on_c, 0, 76, 75
1, 36432, Note_on_c, 0, 73, 64
1, 36432, Note_on_c, 1, 59, 75
1, 36442, Note_on_c, 1, 59, 0
1, 36452, Note_on_c, 0, 76, 0
1, 36455, Note_on_c, 0, 73, 0
1, 36456, Note_on_c, 0, 70, 64
1, 36456, Note_on_c, 1, 59, 75
1, 36466, Note_on_c, 1, 59, 0
1, 36479, Note_on_c, 0, 70, 0
1, 36480, Note_on_c, 0, 75, 75
1, 36480, Note_on_c, 0, 71, 75
1, 36480, Note_on_c, 1, 59, 75
1, 36504, Note_on_c, 1, 59, 0
1, 36504, Note_on_c, 1, 47, 75
1, 36527, Note_on_c, 1, 47, 0
1, 36528, Note_on_c, 1, 59, 75
1, 36538, Note_on_c, 1, 59, 0
1, 36552, Note_on_c, 1, 59, 75
1, 36562, Note_on_c, 1, 59, 0
1, 36569, Note_on_c, 0, 75, 0
1, 36569, Note_on_c, 0, 71, 0
1, 36576, Note_on_c, 1, 59, 75
1, 36586, Note_on_c, 1, 59, 0
1, 36600, Note_on_c, 1, 59, 75
1, 36610, Note_on_c, 1, 59, 0
1, 36624, Note_on_c, 1, 59, 75
1, 36634, Note_on_c, 1, 59, 0
1, 36648, Note_on_c, 1, 59, 75
1, 36658, Note_on_c, 1, 59, 0
1, 36672, Note_on_c, 0, 72, 75
1, 36672, Note_on_c, 1, 59, 75
1, 36695, Note_on_c, 0, 72, 0
1, 36696, Note_on_c, 0, 60, 75
1, 36719, Note_on_c, 0, 60, 0
1, 36720, Note_on_c, 0, 72, 75
1, 36730, Note_on_c, 0, 72, 0
1, 36744, Note_on_c, 0, 72, 75
1, 36761, Note_on_c, 1, 59, 0
1, 36768, Note_on_c, 0, 72, 0
1, 36768, Note_on_c, 0, 75, 75
1, 36768, Note_on_c, 1, 60, 69
1, 36768, Note_on_c, 1, 57, 69
1, 36791, Note_on_c, 0, 75, 0
1, 36792, Note_on_c, 0, 63, 75
1, 36815, Note_on_c, 0, 63, 0
1, 36816, Note_on_c, 0, 75, 75
1, 36826, Note_on_c, 0, 75, 0
1, 36840, Note_on_c, 0, 75, 75
1, 36857, Note_on_c, 1, 60, 0
1, 36857, Note_on_c, 1, 57, 0
1, 36864, Note_on_c, 0, 75, 0
1, 36864, Note_on_c, 0, 76, 75
1, 36864, Note_on_c, 1, 59, 69
1, 36864, Note_on_c, 1, 55, 69
1, 36887, Note_on_c, 0, 76, 0
1, 36888, Note_on_c, 0, 64, 75
1, 36911, Note_on_c, 0, 64, 0
1, 36912, Note_on_c, 0, 76, 75
1, 36922, Note_on_c, 0, 76, 0
1, 36936, Note_on_c, 0, 76, 75
1, 36953, Note_on_c, 1, 59, 0
1, 36953, Note_on_c, 1, 55, 0
1, 36960, Note_on_c, 0, 76, 0
1, 36960, Note_on_c, 0, 78, 75
1, 36960, Note_on_c, 1, 59, 69
1, 36960, Note_on_c, 1, 54, 69
1, 36960, Note_on_c, 1, 51, 69
1, 36983, Note_on_c, 0, 78, 0
1, 36984, Note_on_c, 0, 66, 75
1, 37007, Note_on_c, 0, 66, 0
1, 37008, Note_on_c, 0, 78, 76
1, 37018, Note_on_c, 0, 78, 0
1, 37032, Note_on_c, 0, 78, 76
1, 37049, Note_on_c, 1, 59, 0
1, 37049, Note_on_c, 1, 54, 0
1, 37049, Note_on_c, 1, 51, 0
1, 37056, Note_on_c, 0, 78, 0
1, 37056, Note_on_c, 0, 79, 77
1, 37056, Note_on_c, 1, 59, 72
1, 37056, Note_on_c, 1, 55, 72
1, 37056, Note_on_c, 1, 52, 72
1, 37079, Note_on_c, 0, 79, 0
1, 37080, Note_on_c, 0, 67, 78
1, 37103, Note_on_c, 0, 67, 0
1, 37104, Note_on_c, 0, 79, 78
1, 37114, Note_on_c, 0, 79, 0
1, 37128, Note_on_c, 0, 79, 79
1, 37145, Note_on_c, 1, 59, 0
1, 37145, Note_on_c, 1, 55, 0
1, 37145, Note_on_c, 1, 52, 0
1, 37152, Note_on_c, 0, 79, 0
1, 37152, Note_on_c, 0, 82, 80
1, 37152, Note_on_c, 1, 52, 76
1, 37152, Note_on_c, 1, 49, 76
1, 37175, Note_on_c, 0, 82, 0
1, 37176, Note_on_c, 0, 70, 80
1, 37199, Note_on_c, 0, 70, 0
1, 37200, Note_on_c, 0, 82, 81
1, 37210, Note_on_c, 0, 82, 0
1, 37224, Note_on_c, 0, 82, 82
1, 37241, Note_on_c, 1, 52, 0
1, 37241, Note_on_c, 1, 49, 0
1, 37248, Note_on_c, 0, 82, 0
1, 37248, Note_on_c, 0, 83, 82
1, 37248, Note_on_c, 1, 54, 79
1, 37248, Note_on_c, 1, 50, 79
1, 37248, Note_on_c, 1, 47, 79
1, 37271, Note_on_c, 0, 83, 0
1, 37272, Note_on_c, 0, 71, 83
1, 37295, Note_on_c, 0, 71, 0
1, 37296, Note_on_c, 0, 83, 84
1, 37306, Note_on_c, 0, 83, 0
1, 37320, Note_on_c, 0, 83, 84
1, 37337, Note_on_c, 1, 54, 0
1, 37337, Note_on_c, 1, 50, 0
1, 37337, Note_on_c, 1, 47, 0
1, 37344, Note_on_c, 0, 83, 0
1, 37344, Note_on_c, 0, 85, 85
1, 37344, Note_on_c, 1, 54, 83
1, 37344, Note_on_c, 1, 49, 83
1, 37344, Note_on_c, 1, 46, 83
1, 37367, Note_on_c, 0, 85, 0
1, 37368, Note_on_c, 0, 73, 86
1, 37391, Note_on_c, 0, 73, 0
1, 37392, Note_on_c, 0, 85, 86
1, 37402, Note_on_c, 0, 85, 0
1, 37416, Note_on_c, 0, 85, 87
1, 37433, Note_on_c, 1, 54, 0
1, 37433, Note_on_c, 1, 49, 0
1, 37433, Note_on_c, 1, 46, 0
1, 37440, Note_on_c, 0, 85, 0
1, 37440, Note_on_c, 0, 86, 88
1, 37440, Note_on_c, 1, 54, 86
1, 37440, Note_on_c, 1, 50, 86
1, 37440, Note_on_c, 1, 47, 86
1, 37463, Note_on_c, 0, 86, 0
1, 37464, Note_on_c, 0, 74, 88
1, 37487, Note_on_c, 0, 74, 0
1, 37488, Note_on_c, 0, 83, 89
1, 37488, Note_on_c, 0, 86, 90
1, 37511, Note_on_c, 0, 83, 0
1, 37511, Note_on_c, 0, 86, 0
1, 37512, Note_on_c, 0, 83, 90
1, 37512, Note_on_c, 0, 86, 90
1, 37529, Note_on_c, 1, 54, 0
1, 37529, Note_on_c, 1, 50, 0
1, 37529, Note_on_c, 1, 47, 0
1, 37535, Note_on_c, 0, 83, 0
1, 37535, Note_on_c, 0, 86, 0
1, 37536, Note_on_c, 0, 83, 90
1, 37536, Note_on_c, 0, 86, 90
1, 37536, Note_on_c, 1, 55, 90
1, 37536, Note_on_c, 1, 43, 90
1, 37559, Note_on_c, 0, 83, 0
1, 37560, Note_on_c, 0, 74, 90
1, 37581, Note_on_c, 0, 86, 0
1, 37583, Note_on_c, 0, 74, 0
1, 37584, Note_on_c, 0, 83, 90
1, 37584, Note_on_c, 0, 86, 90
1, 37607, Note_on_c, 0, 83, 0
1, 37607, Note_on_c, 0, 86, 0
1, 37608, Note_on_c, 0, 83, 90
1, 37608, Note_on_c, 0, 86, 90
1, 37625, Note_on_c, 1, 55, 0
1, 37625, Note_on_c, 1, 43, 0
1, 37631, Note_on_c, 0, 83, 0
1, 37631, Note_on_c, 0, 86, 0
1, 37632, Note_on_c, 0, 83, 90
1, 37632, Note_on_c, 0, 86, 90
1, 37632, Note_on_c, 1, 54, 90
1, 37632, Note_on_c, 1, 42, 90
1, 37655, Note_on_c, 0, 83, 0
1, 37656, Note_on_c, 0, 71, 90
1, 37677, Note_on_c, 0, 86, 0
1, 37679, Note_on_c, 0, 71, 0
1, 37680, Note_on_c, 0, 83, 90
1, 37680, Note_on_c, 0, 86, 90
1, 37703, Note_on_c, 0, 83, 0
1, 37703, Note_on_c, 0, 86, 0
1, 37704, Note_on_c, 0, 83, 90
1, 37704, Note_on_c, 0, 86, 90
1, 37721, Note_on_c, 1, 54, 0
1, 37721, Note_on_c, 1, 42, 0
1, 37727, Note_on_c, 0, 83, 0
1, 37727, Note_on_c, 0, 86, 0
1, 37728, Note_on_c, 0, 83, 90
1, 37728, Note_on_c, 0, 86, 90
1, 37728, Note_on_c, 1, 53, 90
1, 37728, Note_on_c, 1, 41, 90
1, 37751, Note_on_c, 0, 83, 0
1, 37752, Note_on_c, 0, 71, 90
1, 37773, Note_on_c, 0, 86, 0
1, 37775, Note_on_c, 0, 71, 0
1, 37776, Note_on_c, 0, 83, 90
1, 37776, Note_on_c, 0, 86, 90
1, 37799, Note_on_c, 0, 83, 0
1, 37799, Note_on_c, 0, 86, 0
1, 37800, Note_on_c, 0, 83, 90
1, 37800, Note_on_c, 0, 86, 90
1, 37817, Note_on_c, 1, 53, 0
1, 37817, Note_on_c, 1, 41, 0
1, 37823, Note_on_c, 0, 83, 0
1, 37823, Note_on_c, 0, 86, 0
1, 37824, Note_on_c, 0, 82, 90
1, 37824, Note_on_c, 1, 54, 90
1, 37824, Note_on_c, 1, 42, 90
1, 37839, Note_on_c, 0, 82, 0
1, 37840, Note_on_c, 0, 83, 90
1, 37855, Note_on_c, 0, 83, 0
1, 37856, Note_on_c, 0, 86, 90
1, 37871, Note_on_c, 0, 86, 0
1, 37872, Note_on_c, 0, 82, 90
1, 37887, Note_on_c, 0, 82, 0
1, 37888, Note_on_c, 0, 83, 90
1, 37903, Note_on_c, 0, 83, 0
1, 37904, Note_on_c, 0, 86, 90
1, 37919, Note_on_c, 0, 86, 0
1, 37920, Note_on_c, 0, 77, 90
1, 37935, Note_on_c, 0, 77, 0
1, 37936, Note_on_c, 0, 78, 90
1, 37951, Note_on_c, 0, 78, 0
1, 37952, Note_on_c, 0, 83, 90
1, 37967, Note_on_c, 0, 83, 0
1, 37968, Note_on_c, 0, 77, 90
1, 37983, Note_on_c, 0, 77, 0
1, 37984, Note_on_c, 0, 78, 90
1, 37999, Note_on_c, 0, 78, 0
1, 38000, Note_on_c, 0, 83, 90
1, 38015, Note_on_c, 0, 83, 0
1, 38016, Note_on_c, 0, 73, 90
1, 38031, Note_on_c, 0, 73, 0
1, 38032, Note_on_c, 0, 74, 89
1, 38047, Note_on_c, 0, 74, 0
1, 38048, Note_on_c, 0, 78, 88
1, 38063, Note_on_c, 0, 78, 0
1, 38064, Note_on_c, 0, 73, 88
1, 38079, Note_on_c, 0, 73, 0
1, 38080, Note_on_c, 0, 74, 87
1, 38095, Note_on_c, 0, 74, 0
1, 38096, Note_on_c, 0, 78, 86
1, 38111, Note_on_c, 0, 78, 0
1, 38112, Note_on_c, 0, 70, 86
1, 38127, Note_on_c, 0, 70, 0
1, 38128, Note_on_c, 0, 71, 85
1, 38143, Note_on_c, 0, 71, 0
1, 38144, Note_on_c, 0, 74, 85
1, 38159, Note_on_c, 0, 74, 0
1, 38160, Note_on_c, 0, 70, 84
1, 38175, Note_on_c, 0, 70, 0
1, 38176, Note_on_c, 0, 71, 83
1, 38191, Note_on_c, 0, 71, 0
1, 38192, Note_on_c, 0, 74, 83
1, 38193, Note_on_c, 1, 54, 0
1, 38193, Note_on_c, 1, 42, 0
1, 38207, Note_on_c, 0, 74, 0
1, 38208, Note_on_c, 0, 65, 82
1, 38208, Note_on_c, 1, 55, 75
1, 38232, Note_on_c, 1, 55, 0
1, 38232, Note_on_c, 1, 43, 75
1, 38255, Note_on_c, 1, 43, 0
1, 38256, Note_on_c, 1, 55, 75
1, 38266, Note_on_c, 1, 55, 0
1, 38280, Note_on_c, 1, 55, 75
1, 38290, Note_on_c, 1, 55, 0
1, 38304, Note_on_c, 1, 55, 75
1, 38327, Note_on_c, 0, 65, 0
1, 38328, Note_on_c, 0, 70, 75
1, 38349, Note_on_c, 1, 55, 0
1, 38351, Note_on_c, 0, 70, 0
1, 38352, Note_on_c, 0, 71, 75
1, 38375, Note_on_c, 0, 71, 0
1, 38376, Note_on_c, 0, 74, 75
1, 38399, Note_on_c, 0, 74, 0
1, 38400, Note_on_c, 0, 65, 75
1, 38400, Note_on_c, 1, 55, 75
1, 38424, Note_on_c, 1, 55, 0
1, 38424, Note_on_c, 1, 43, 75
1, 38447, Note_on_c, 1, 43, 0
1, 38448, Note_on_c, 1, 55, 75
1, 38458, Note_on_c, 1, 55, 0
1, 38472, Note_on_c, 1, 55, 75
1, 38482, Note_on_c, 1, 55, 0
1, 38496, Note_on_c, 1, 55, 75
1, 38519, Note_on_c, 0, 65, 0
1, 38520, Note_on_c, 0, 70, 75
1, 38541, Note_on_c, 1, 55, 0
1, 38543, Note_on_c, 0, 70, 0
1, 38544, Note_on_c, 0, 71, 75
1, 38567, Note_on_c, 0, 71, 0
1, 38568, Note_on_c, 0, 74, 75
1, 38591, Note_on_c, 0, 74, 0
1, 38592, Note_on_c, 0, 64, 75
1, 38592, Note_on_c, 1, 54, 75
1, 38616, Note_on_c, 1, 54, 0
1, 38616, Note_on_c, 1, 42, 75
1, 38639, Note_on_c, 1, 42, 0
1, 38640, Note_on_c, 1, 54, 75
1, 38650, Note_on_c, 1, 54, 0
1, 38664, Note_on_c, 1, 54, 75
1, 38674, Note_on_c, 1, 54, 0
1, 38688, Note_on_c, 1, 54, 75
1, 38711, Note_on_c, 0, 64, 0
1, 38712, Note_on_c, 0, 73, 75
1, 38733, Note_on_c, 1, 54, 0
1, 38735, Note_on_c, 0, 73, 0
1, 38736, Note_on_c, 0, 70, 75
1, 38759, Note_on_c, 0, 70, 0
1, 38760, Note_on_c, 0, 64, 75
1, 38783, Note_on_c, 0, 64, 0
1, 38784, Note_on_c, 0, 62, 75
1, 38784, Note_on_c, 1, 59, 75
1, 38808, Note_on_c, 1, 59, 0
1, 38808, Note_on_c, 1, 47, 75
1, 38831, Note_on_c, 1, 47, 0
1, 38832, Note_on_c, 1, 59, 75
1, 38842, Note_on_c, 1, 59, 0
1, 38856, Note_on_c, 1, 59, 75
1, 38866, Note_on_c, 1, 59, 0
1, 38880, Note_on_c, 1, 59, 75
1, 38903, Note_on_c, 0, 62, 0
1, 38904, Note_on_c, 0, 78, 75
1, 38925, Note_on_c, 1, 59, 0
1, 38927, Note_on_c, 0, 78, 0
1, 38928, Note_on_c, 0, 74, 75
1, 38951, Note_on_c, 0, 74, 0
1, 38952, Note_on_c, 0, 71, 75
1, 38975, Note_on_c, 0, 71, 0
1, 38976, Note_on_c, 0, 71, 75
1, 38976, Note_on_c, 1, 61, 75
1, 39000, Note_on_c, 1, 61, 0
1, 39000, Note_on_c, 1, 49, 75
1, 39023, Note_on_c, 1, 49, 0
1, 39024, Note_on_c, 1, 61, 75
1, 39034, Note_on_c, 1, 61, 0
1, 39048, Note_on_c, 1, 61, 75
1, 39058, Note_on_c, 1, 61, 0
1, 39072, Note_on_c, 0, 71, 0
1, 39072, Note_on_c, 0, 70, 75
1, 39072, Note_on_c, 1, 61, 75
1, 39095, Note_on_c, 0, 70, 0
1, 39096, Note_on_c, 0, 78, 75
1, 39117, Note_on_c, 1, 61, 0
1, 39119, Note_on_c, 0, 78, 0
1, 39120, Note_on_c, 0, 73, 75
1, 39143, Note_on_c, 0, 73, 0
1, 39144, Note_on_c, 0, 70, 75
1, 39167, Note_on_c, 0, 70, 0
1, 39168, Note_on_c, 0, 73, 75
1, 39168, Note_on_c, 1, 62, 75
1, 39192, Note_on_c, 1, 62, 0
1, 39192, Note_on_c, 1, 50, 75
1, 39215, Note_on_c, 1, 50, 0
1, 39216, Note_on_c, 1, 62, 75
1, 39226, Note_on_c, 1, 62, 0
1, 39240, Note_on_c, 1, 62, 75
1, 39250, Note_on_c, 1, 62, 0
1, 39264, Note_on_c, 0, 73, 0
1, 39264, Note_on_c, 0, 71, 75
1, 39264, Note_on_c, 1, 62, 75
1, 39287, Note_on_c, 0, 71, 0
1, 39288, Note_on_c, 0, 78, 75
1, 39309, Note_on_c, 1, 62, 0
1, 39311, Note_on_c, 0, 78, 0
1, 39312, Note_on_c, 0, 71, 75
1, 39335, Note_on_c, 0, 71, 0
1, 39336, Note_on_c, 0, 69, 75
1, 39359, Note_on_c, 0, 69, 0
1, 39360, Note_on_c, 0, 69, 75
1, 39360, Note_on_c, 1, 64, 75
1, 39384, Note_on_c, 1, 64, 0
1, 39384, Note_on_c, 1, 52, 75
1, 39407, Note_on_c, 1, 52, 0
1, 39408, Note_on_c, 1, 64, 75
1, 39418, Note_on_c, 1, 64, 0
1, 39432, Note_on_c, 1, 64, 75
1, 39442, Note_on_c, 1, 64, 0
1, 39456, Note_on_c, 0, 69, 0
1, 39456, Note_on_c, 0, 67, 75
1, 39456, Note_on_c, 1, 64, 75
1, 39479, Note_on_c, 0, 67, 0
1, 39480, Note_on_c, 0, 83, 75
1, 39501, Note_on_c, 1, 64, 0
1, 39503, Note_on_c, 0, 83, 0
1, 39504, Note_on_c, 0, 79, 75
1, 39527, Note_on_c, 0, 79, 0
1, 39528, Note_on_c, 0, 76, 75
1, 39551, Note_on_c, 0, 76, 0
1, 39552, Note_on_c, 0, 74, 75
1, 39552, Note_on_c, 1, 57, 75
1, 39576, Note_on_c, 1, 57, 0
1, 39576, Note_on_c, 1, 45, 75
1, 39599, Note_on_c, 1, 45, 0
1, 39600, Note_on_c, 1, 57, 75
1, 39610, Note_on_c, 1, 57, 0
1, 39624, Note_on_c, 1, 57, 75
1, 39634, Note_on_c, 1, 57, 0
1, 39648, Note_on_c, 0, 74, 0
1, 39648, Note_on_c, 0, 73, 75
1, 39648, Note_on_c, 1, 57, 75
1, 39671, Note_on_c, 0, 73, 0
1, 39672, Note_on_c, 0, 76, 75
1, 39693, Note_on_c, 1, 57, 0
1, 39695, Note_on_c, 0, 76, 0
1, 39696, Note_on_c, 0, 73, 75
1, 39719, Note_on_c, 0, 73, 0
1, 39720, Note_on_c, 0, 69, 75
1, 39743, Note_on_c, 0, 69, 0
1, 39744, Note_on_c, 0, 67, 75
1, 39744, Note_on_c, 1, 62, 75
1, 39768, Note_on_c, 1, 62, 0
1, 39768, Note_on_c, 1, 50, 75
1, 39791, Note_on_c, 1, 50, 0
1, 39792, Note_on_c, 1, 62, 75
1, 39802, Note_on_c, 1, 62, 0
1, 39816, Note_on_c, 1, 62, 75
1, 39826, Note_on_c, 1, 62, 0
1, 39840, Note_on_c, 0, 67, 0
1, 39840, Note_on_c, 0, 66, 75
1, 39840, Note_on_c, 1, 62, 75
1, 39850, Note_on_c, 0, 66, 0
1, 39850, Note_on_c, 1, 62, 0
1, 39864, Note_on_c, 0, 74, 75
1, 39864, Note_on_c, 0, 66, 75
1, 39864, Note_on_c, 1, 62, 75
1, 39874, Note_on_c, 0, 74, 0
1, 39874, Note_on_c, 0, 66, 0
1, 39874, Note_on_c, 1, 62, 0
1, 39888, Note_on_c, 0, 74, 75
1, 39888, Note_on_c, 0, 66, 75
1, 39888, Note_on_c, 1, 62, 75
1, 39898, Note_on_c, 0, 74, 0
1, 39898, Note_on_c, 0, 66, 0
1, 39898, Note_on_c, 1, 62, 0
1, 39912, Note_on_c, 0, 74, 75
1, 39912, Note_on_c, 0, 66, 75
1, 39912, Note_on_c, 1, 62, 75
1, 39922, Note_on_c, 0, 74, 0
1, 39922, Note_on_c, 0, 66, 0
1, 39922, Note_on_c, 1, 62, 0
1, 39936, Note_on_c, 0, 76, 75
1, 39936, Note_on_c, 0, 67, 75
1, 39936, Note_on_c, 1, 62, 75
1, 39960, Note_on_c, 1, 62, 0
1, 39960, Note_on_c, 1, 50, 76
1, 39983, Note_on_c, 1, 50, 0
1, 39984, Note_on_c, 1, 62, 77
1, 39994, Note_on_c, 1, 62, 0
1, 40003, Note_on_c, 0, 76, 0
1, 40003, Note_on_c, 0, 67, 0
1, 40008, Note_on_c, 0, 76, 77
1, 40008, Note_on_c, 0, 67, 77
1, 40008, Note_on_c, 1, 62, 78
1, 40018, Note_on_c, 1, 62, 0
1, 40031, Note_on_c, 0, 76, 0
1, 40031, Note_on_c, 0, 67, 0
1, 40032, Note_on_c, 0, 78, 78
1, 40032, Note_on_c, 0, 69, 78
1, 40032, Note_on_c, 1, 60, 79
1, 40056, Note_on_c, 1, 60, 0
1, 40056, Note_on_c, 1, 48, 80
1, 40079, Note_on_c, 1, 48, 0
1, 40080, Note_on_c, 1, 60, 81
1, 40090, Note_on_c, 1, 60, 0
1, 40099, Note_on_c, 0, 78, 0
1, 40099, Note_on_c, 0, 69, 0
1, 40104, Note_on_c, 0, 78, 80
1, 40104, Note_on_c, 0, 74, 80
1, 40104, Note_on_c, 0, 69, 80
1, 40104, Note_on_c, 1, 60, 82
1, 40114, Note_on_c, 1, 60, 0
1, 40127, Note_on_c, 0, 78, 0
1, 40127, Note_on_c, 0, 74, 0
1, 40127, Note_on_c, 0, 69, 0
1, 40128, Note_on_c, 0, 79, 81
1, 40128, Note_on_c, 0, 74, 81
1, 40128, Note_on_c, 0, 67, 81
1, 40128, Note_on_c, 1, 59, 83
1, 40152, Note_on_c, 1, 59, 0
1, 40152, Note_on_c, 1, 47, 84
1, 40175, Note_on_c, 1, 47, 0
1, 40176, Note_on_c, 1, 59, 84
1, 40186, Note_on_c, 1, 59, 0
1, 40195, Note_on_c, 0, 79, 0
1, 40195, Note_on_c, 0, 74, 0
1, 40195, Note_on_c, 0, 67, 0
1, 40200, Note_on_c, 0, 79, 84
1, 40200, Note_on_c, 0, 74, 84
1, 40200, Note_on_c, 1, 59, 84
1, 40210, Note_on_c, 1, 59, 0
1, 40223, Note_on_c, 0, 79, 0
1, 40223, Note_on_c, 0, 74, 0
1, 40224, Note_on_c, 0, 81, 84
1, 40224, Note_on_c, 0, 74, 84
1, 40224, Note_on_c, 1, 54, 84
1, 40248, Note_on_c, 1, 54, 0
1, 40248, Note_on_c, 1, 42, 84
1, 40271, Note_on_c, 1, 42, 0
1, 40272, Note_on_c, 1, 54, 84
1, 40282, Note_on_c, 1, 54, 0
1, 40291, Note_on_c, 0, 81, 0
1, 40291, Note_on_c, 0, 74, 0
1, 40296, Note_on_c, 0, 81, 84
1, 40296, Note_on_c, 0, 74, 84
1, 40296, Note_on_c, 1, 54, 84
1, 40306, Note_on_c, 1, 54, 0
1, 40319, Note_on_c, 0, 81, 0
1, 40319, Note_on_c, 0, 74, 0
1, 40320, Note_on_c, 0, 83, 84
1, 40320, Note_on_c, 0, 71, 84
1, 40320, Note_on_c, 1, 55, 84
1, 40344, Note_on_c, 1, 55, 0
1, 40344, Note_on_c, 1, 43, 84
1, 40367, Note_on_c, 1, 43, 0
1, 40368, Note_on_c, 1, 55, 84
1, 40378, Note_on_c, 1, 55, 0
1, 40387, Note_on_c, 0, 83, 0
1, 40387, Note_on_c, 0, 71, 0
1, 40392, Note_on_c, 0, 83, 84
1, 40392, Note_on_c, 0, 79, 84
1, 40392, Note_on_c, 1, 55, 84
1, 40402, Note_on_c, 1, 55, 0
1, 40415, Note_on_c, 0, 83, 0
1, 40415, Note_on_c, 0, 79, 0
1, 40416, Note_on_c, 0, 83, 84
1, 40416, Note_on_c, 0, 79, 84
1, 40416, Note_on_c, 1, 54, 84
1, 40440, Note_on_c, 1, 54, 0
1, 40440, Note_on_c, 1, 42, 84
1, 40463, Note_on_c, 1, 42, 0
1, 40464, Note_on_c, 1, 54, 84
1, 40474, Note_on_c, 1, 54, 0
1, 40483, Note_on_c, 0, 83, 0
1, 40483, Note_on_c, 0, 79, 0
1, 40488, Note_on_c, 0, 83, 84
1, 40488, Note_on_c, 0, 79, 84
1, 40488, Note_on_c, 1, 54, 84
1, 40498, Note_on_c, 1, 54, 0
1, 40511, Note_on_c, 0, 83, 0
1, 40511, Note_on_c, 0, 79, 0
1, 40512, Note_on_c, 0, 83, 84
1, 40512, Note_on_c, 0, 79, 84
1, 40512, Note_on_c, 1, 52, 84
1, 40536, Note_on_c, 1, 52, 0
1, 40536, Note_on_c, 1, 40, 84
1, 40559, Note_on_c, 1, 40, 0
1, 40560, Note_on_c, 1, 52, 84
1, 40570, Note_on_c, 1, 52, 0
1, 40579, Note_on_c, 0, 83, 0
1, 40579, Note_on_c, 0, 79, 0
1, 40584, Note_on_c, 0, 83, 84
1, 40584, Note_on_c, 0, 79, 84
1, 40584, Note_on_c, 1, 52, 84
1, 40594, Note_on_c, 1, 52, 0
1, 40607, Note_on_c, 0, 83, 0
1, 40607, Note_on_c, 0, 79, 0
1, 40608, Note_on_c, 0, 83, 84
1, 40608, Note_on_c, 0, 79, 84
1, 40608, Note_on_c, 1, 50, 84
1, 40632, Note_on_c, 1, 50, 0
1, 40632, Note_on_c, 1, 38, 84
1, 40655, Note_on_c, 1, 38, 0
1, 40656, Note_on_c, 1, 50, 84
1, 40666, Note_on_c, 1, 50, 0
1, 40675, Note_on_c, 0, 83, 0
1, 40675, Note_on_c, 0, 79, 0
1, 40680, Note_on_c, 0, 83, 84
1, 40680, Note_on_c, 0, 79, 84
1, 40680, Note_on_c, 1, 50, 84
1, 40690, Note_on_c, 1, 50, 0
1, 40703, Note_on_c, 0, 83, 0
1, 40703, Note_on_c, 0, 79, 0
1, 40704, Note_on_c, 0, 83, 84
1, 40704, Note_on_c, 0, 79, 84
1, 40704, Note_on_c, 1, 49, 84
1, 40728, Note_on_c, 0, 83, 0
1, 40728, Note_on_c, 0, 79, 0
1, 40728, Note_on_c, 0, 81, 84
1, 40728, Note_on_c, 0, 78, 84
1, 40751, Note_on_c, 0, 81, 0
1, 40751, Note_on_c, 0, 78, 0
1, 40752, Note_on_c, 0, 81, 84
1, 40752, Note_on_c, 0, 78, 84
1, 40776, Note_on_c, 0, 81, 0
1, 40776, Note_on_c, 0, 78, 0
1, 40776, Note_on_c, 0, 79, 84
1, 40776, Note_on_c, 0, 76, 84
1, 40793, Note_on_c, 1, 49, 0
1, 40799, Note_on_c, 0, 79, 0
1, 40799, Note_on_c, 0, 76, 0
1, 40800, Note_on_c, 0, 79, 84
1, 40800, Note_on_c, 0, 76, 84
1, 40824, Note_on_c, 0, 76, 0
1, 40824, Note_on_c, 0, 83, 84
1, 40847, Note_on_c, 0, 83, 0
1, 40847, Note_on_c, 0, 79, 0
1, 40848, Note_on_c, 0, 81, 84
1, 40848, Note_on_c, 0, 78, 84
1, 40848, Note_on_c, 1, 49, 84
1, 40872, Note_on_c, 0, 81, 0
1, 40872, Note_on_c, 0, 78, 0
1, 40872, Note_on_c, 0, 79, 84
1, 40872, Note_on_c, 0, 76, 84
1, 40893, Note_on_c, 1, 49, 0
1, 40895, Note_on_c, 0, 79, 0
1, 40895, Note_on_c, 0, 76, 0
1, 40896, Note_on_c, 0, 78, 84
1, 40896, Note_on_c, 0, 74, 84
1, 40896, Note_on_c, 1, 50, 84
1, 40896, Note_on_c, 1, 38, 84
1, 40920, Note_on_c, 0, 74, 0
1, 40920, Note_on_c, 0, 62, 84
1, 40941, Note_on_c, 0, 78, 0
1, 40943, Note_on_c, 0, 62, 0
1, 40944, Note_on_c, 0, 78, 84
1, 40944, Note_on_c, 0, 74, 84
1, 40954, Note_on_c, 0, 78, 0
1, 40954, Note_on_c, 0, 74, 0
1, 40968, Note_on_c, 0, 78, 84
1, 40968, Note_on_c, 0, 74, 84
1, 40978, Note_on_c, 0, 78, 0
1, 40978, Note_on_c, 0, 74, 0
1, 40985, Note_on_c, 1, 50, 0
1, 40985, Note_on_c, 1, 38, 0
1, 40992, Note_on_c, 0, 78, 84
1, 40992, Note_on_c, 0, 74, 84
1, 40992, Note_on_c, 1, 47, 84
1, 40992, Note_on_c, 1, 35, 84
1, 41016, Note_on_c, 0, 74, 0
1, 41016, Note_on_c, 0, 62, 84
1, 41037, Note_on_c, 0, 78, 0
1, 41039, Note_on_c, 0, 62, 0
1, 41040, Note_on_c, 0, 78, 84
1, 41040, Note_on_c, 0, 74, 84
1, 41050, Note_on_c, 0, 78, 0
1, 41050, Note_on_c, 0, 74, 0
1, 41064, Note_on_c, 0, 78, 84
1, 41064, Note_on_c, 0, 74, 84
1, 41074, Note_on_c, 0, 78, 0
1, 41074, Note_on_c, 0, 74, 0
1, 41081, Note_on_c, 1, 47, 0
1, 41081, Note_on_c, 1, 35, 0
1, 41088, Note_on_c, 0, 78, 84
1, 41088, Note_on_c, 0, 74, 84
1, 41088, Note_on_c, 1, 45, 84
1, 41088, Note_on_c, 1, 33, 84
1, 41112, Note_on_c, 0, 74, 0
1, 41112, Note_on_c, 0, 62, 84
1, 41133, Note_on_c, 0, 78, 0
1, 41135, Note_on_c, 0, 62, 0
1, 41136, Note_on_c, 0, 78, 84
1, 41136, Note_on_c, 0, 74, 84
1, 41146, Note_on_c, 0, 78, 0
1, 41146, Note_on_c, 0, 74, 0
1, 41160, Note_on_c, 0, 78, 84
1, 41160, Note_on_c, 0, 74, 84
1, 41170, Note_on_c, 0, 78, 0
1, 41170, Note_on_c, 0, 74, 0
1, 41177, Note_on_c, 1, 45, 0
1, 41177, Note_on_c, 1, 33, 0
1, 41184, Note_on_c, 0, 78, 84
1, 41184, Note_on_c, 0, 74, 84
1, 41184, Note_on_c, 1, 44, 84
1, 41184, Note_on_c, 1, 32, 84
1, 41208, Note_on_c, 0, 74, 0
1, 41208, Note_on_c, 0, 62, 84
1, 41229, Note_on_c, 0, 78, 0
1, 41231, Note_on_c, 0, 62, 0
1, 41232, Note_on_c, 0, 78, 84
1, 41232, Note_on_c, 0, 74, 84
1, 41242, Note_on_c, 0, 78, 0
1, 41242, Note_on_c, 0, 74, 0
1, 41256, Note_on_c, 0, 78, 84
1, 41256, Note_on_c, 0, 74, 84
1, 41266, Note_on_c, 0, 78, 0
1, 41266, Note_on_c, 0, 74, 0
1, 41273, Note_on_c, 1, 44, 0
1, 41273, Note_on_c, 1, 32, 0
1, 41280, Note_on_c, 0, 76, 84
1, 41280, Note_on_c, 0, 73, 84
1, 41280, Note_on_c, 1, 45, 84
1, 41280, Note_on_c, 1, 33, 84
1, 41303, Note_on_c, 0, 73, 0
1, 41304, Note_on_c, 0, 69, 84
1, 41325, Note_on_c, 0, 76, 0
1, 41327, Note_on_c, 0, 69, 0
1, 41328, Note_on_c, 0, 81, 84
1, 41328, Note_on_c, 0, 78, 84
1, 41351, Note_on_c, 0, 78, 0
1, 41352, Note_on_c, 0, 69, 84
1, 41369, Note_on_c, 1, 45, 0
1, 41369, Note_on_c, 1, 33, 0
1, 41373, Note_on_c, 0, 81, 0
1, 41375, Note_on_c, 0, 69, 0
1, 41376, Note_on_c, 0, 79, 84
1, 41376, Note_on_c, 0, 76, 84
1, 41399, Note_on_c, 0, 76, 0
1, 41400, Note_on_c, 0, 69, 84
1, 41421, Note_on_c, 0, 79, 0
1, 41423, Note_on_c, 0, 69, 0
1, 41424, Note_on_c, 0, 78, 84
1, 41424, Note_on_c, 0, 74, 84
1, 41447, Note_on_c, 0, 74, 0
1, 41448, Note_on_c, 0, 69, 84
1, 41469, Note_on_c, 0, 78, 0
1, 41471, Note_on_c, 0, 69, 0
1, 41472, Note_on_c, 0, 76, 84
1, 41472, Note_on_c, 0, 73, 84
1, 41472, Note_on_c, 1, 45, 84
1, 41472, Note_on_c, 1, 33, 84
1, 41495, Note_on_c, 0, 73, 0
1, 41496, Note_on_c, 0, 69, 84
1, 41517, Note_on_c, 0, 76, 0
1, 41519, Note_on_c, 0, 69, 0
1, 41520, Note_on_c, 0, 78, 84
1, 41520, Note_on_c, 0, 74, 84
1, 41543, Note_on_c, 0, 74, 0
1, 41544, Note_on_c, 0, 69, 84
1, 41561, Note_on_c, 1, 45, 0
1, 41561, Note_on_c, 1, 33, 0
1, 41565, Note_on_c, 0, 78, 0
1, 41567, Note_on_c, 0, 69, 0
1, 41568, Note_on_c, 0, 76, 84
1, 41568, Note_on_c, 0, 73, 84
1, 41591, Note_on_c, 0, 73, 0
1, 41592, Note_on_c, 0, 69, 84
1, 41613, Note_on_c, 0, 76, 0
1, 41615, Note_on_c, 0, 69, 0
1, 41616, Note_on_c, 0, 74, 84
1, 41616, Note_on_c, 0, 71, 84
1, 41639, Note_on_c, 0, 71, 0
1, 41640, Note_on_c, 0, 68, 84
1, 41661, Note_on_c, 0, 74, 0
1, 41663, Note_on_c, 0, 68, 0
1, 41664, Note_on_c, 0, 73, 84
1, 41664, Note_on_c, 0, 69, 84
1, 41664, Note_on_c, 1, 45, 84
1, 41664, Note_on_c, 1, 33, 84
1, 41709, Note_on_c, 0, 73, 0
1, 41709, Note_on_c, 0, 69, 0
1, 41709, Note_on_c, 1, 45, 0
1, 41709, Note_on_c, 1, 33, 0
1, 41712, Note_on_c, 0, 57, 84
1, 41712, Note_on_c, 1, 54, 84
1, 41712, Note_on_c, 1, 45, 84
1, 41724, Note_on_c, 0, 57, 0
1, 41724, Note_on_c, 0, 62, 84
1, 41736, Note_on_c, 0, 62, 0
1, 41736, Note_on_c, 0, 66, 84
1, 41748, Note_on_c, 0, 66, 0
1, 41748, Note_on_c, 0, 69, 84
1, 41757, Note_on_c, 1, 54, 0
1, 41757, Note_on_c, 1, 45, 0
1, 41760, Note_on_c, 0, 69, 0
1, 41760, Note_on_c, 0, 64, 84
1, 41760, Note_on_c, 1, 49, 84
1, 41760, Note_on_c, 1, 45, 84
1, 41772, Note_on_c, 0, 64, 0
1, 41772, Note_on_c, 0, 67, 84
1, 41784, Note_on_c, 0, 67, 0
1, 41784, Note_on_c, 0, 69, 84
1, 41805, Note_on_c, 1, 49, 0
1, 41805, Note_on_c, 1, 45, 0
1, 41808, Note_on_c, 0, 69, 0
1, 41808, Note_on_c, 0, 62, 84
1, 41808, Note_on_c, 1, 50, 85
1, 41808, Note_on_c, 1, 45, 85
1, 41820, Note_on_c, 0, 62, 0
1, 41820, Note_on_c, 0, 66, 85
1, 41832, Note_on_c, 0, 66, 0
1, 41832, Note_on_c, 0, 69, 85
1, 41853, Note_on_c, 1, 50, 0
1, 41853, Note_on_c, 1, 45, 0
1, 41856, Note_on_c, 0, 69, 0
1, 41856, Note_on_c, 0, 61, 85
1, 41856, Note_on_c, 1, 55, 85
1, 41856, Note_on_c, 1, 45, 85
1, 41868, Note_on_c, 0, 61, 0
1, 41868, Note_on_c, 0, 64, 85
1, 41880, Note_on_c, 0, 64, 0
1, 41880, Note_on_c, 0, 69, 85
1, 41901, Note_on_c, 1, 55, 0
1, 41901, Note_on_c, 1, 45, 0
1, 41904, Note_on_c, 0, 69, 0
1, 41904, Note_on_c, 0, 62, 85
1, 41904, Note_on_c, 1, 54, 86
1, 41904, Note_on_c, 1, 45, 86
1, 41916, Note_on_c, 0, 62, 0
1, 41916, Note_on_c, 0, 66, 85
1, 41928, Note_on_c, 0, 66, 0
1, 41928, Note_on_c, 0, 69, 86
1, 41949, Note_on_c, 1, 54, 0
1, 41949, Note_on_c, 1, 45, 0
1, 41952, Note_on_c, 0, 69, 0
1, 41952, Note_on_c, 0, 64, 86
1, 41952, Note_on_c, 1, 49, 86
1, 41952, Note_on_c, 1, 45, 86
1, 41964, Note_on_c, 0, 64, 0
1, 41964, Note_on_c, 0, 67, 86
1, 41976, Note_on_c, 0, 67, 0
1, 41976, Note_on_c, 0, 69, 86
1, 41997, Note_on_c, 1, 49, 0
1, 41997, Note_on_c, 1, 45, 0
1, 42000, Note_on_c, 0, 69, 0
1, 42000, Note_on_c, 0, 62, 86
1, 42000, Note_on_c, 1, 50, 87
1, 42000, Note_on_c, 1, 45, 87
1, 42012, Note_on_c, 0, 62, 0
1, 42012, Note_on_c, 0, 66, 86
1, 42024, Note_on_c, 0, 66, 0
1, 42024, Note_on_c, 0, 69, 87
1, 42045, Note_on_c, 1, 50, 0
1, 42045, Note_on_c, 1, 45, 0
1, 42048, Note_on_c, 0, 69, 0
1, 42048, Note_on_c, 0, 64, 87
1, 42048, Note_on_c, 1, 49, 87
1, 42048, Note_on_c, 1, 45, 87
1, 42060, Note_on_c, 0, 64, 0
1, 42060, Note_on_c, 0, 67, 87
1, 42072, Note_on_c, 0, 67, 0
1, 42072, Note_on_c, 0, 69, 87
1, 42093, Note_on_c, 1, 49, 0
1, 42093, Note_on_c, 1, 45, 0
1, 42096, Note_on_c, 0, 69, 0
1, 42096, Note_on_c, 0, 62, 87
1, 42096, Note_on_c, 1, 50, 87
1, 42096, Note_on_c, 1, 45, 87
1, 42108, Note_on_c, 0, 62, 0
1, 42108, Note_on_c, 0, 66, 87
1, 42120, Note_on_c, 0, 66, 0
1, 42120, Note_on_c, 0, 69, 87
1, 42141, Note_on_c, 1, 50, 0
1, 42141, Note_on_c, 1, 45, 0
1, 42144, Note_on_c, 0, 69, 0
1, 42144, Note_on_c, 0, 64, 88
1, 42144, Note_on_c, 1, 49, 88
1, 42144, Note_on_c, 1, 45, 88
1, 42156, Note_on_c, 0, 64, 0
1, 42156, Note_on_c, 0, 67, 88
1, 42168, Note_on_c, 0, 67, 0
1, 42168, Note_on_c, 0, 69, 88
1, 42189, Note_on_c, 1, 49, 0
1, 42189, Note_on_c, 1, 45, 0
1, 42192, Note_on_c, 0, 69, 0
1, 42192, Note_on_c, 0, 62, 88
1, 42192, Note_on_c, 1, 50, 88
1, 42192, Note_on_c, 1, 45, 88
1, 42204, Note_on_c, 0, 62, 0
1, 42204, Note_on_c, 0, 66, 88
1, 42216, Note_on_c, 0, 66, 0
1, 42216, Note_on_c, 0, 69, 88
1, 42237, Note_on_c, 1, 50, 0
1, 42237, Note_on_c, 1, 45, 0
1, 42240, Note_on_c, 0, 69, 0
1, 42240, Note_on_c, 0, 61, 89
1, 42240, Note_on_c, 1, 57, 89
1, 42240, Note_on_c, 1, 52, 89
1, 42240, Note_on_c, 1, 49, 89
1, 42240, Note_on_c, 1, 45, 89
1, 42248, Note_on_c, 0, 64, 89
1, 42256, Note_on_c, 0, 69, 89
1, 42329, Note_on_c, 1, 57, 0
1, 42329, Note_on_c, 1, 52, 0
1, 42329, Note_on_c, 1, 49, 0
1, 42329, Note_on_c, 1, 45, 0
1, 42333, Note_on_c, 0, 69, 0
1, 42333, Note_on_c, 0, 64, 0
1, 42333, Note_on_c, 0, 61, 0
1, 42336, Note_on_c, 0, 57, 90
1, 42336, Note_on_c, 1, 45, 90
1, 42336, Note_on_c, 1, 33, 90
1, 42342, Note_on_c, 0, 61, 90
1, 42348, Note_on_c, 0, 64, 90
1, 42354, Note_on_c, 0, 69, 90
1, 42425, Note_on_c, 1, 45, 0
1, 42425, Note_on_c, 1, 33, 0
1, 42429, Note_on_c, 0, 69, 0
1, 42429, Note_on_c, 0, 64, 0
1, 42429, Note_on_c, 0, 61, 0
1, 42429, Note_on_c, 0, 57, 0
1, 42432, Note_on_c, 0, 57, 86
1, 42432, Note_on_c, 1, 45, 87
1, 42432, Note_on_c, 1, 33, 87
1, 42438, Note_on_c, 0, 61, 86
1, 42444, Note_on_c, 0, 64, 86
1, 42450, Note_on_c, 0, 69, 86
1, 42525, Note_on_c, 0, 69, 0
1, 42525, Note_on_c, 0, 64, 0
1, 42525, Note_on_c, 0, 61, 0
1, 42525, Note_on_c, 0, 57, 0
1, 42525, Note_on_c, 1, 45, 0
1, 42525, Note_on_c, 1, 33, 0
1, 42612, Note_on_c, 0, 57, 75
1, 42624, Note_on_c, 0, 57, 0
1, 42624, Note_on_c, 0, 66, 75
1, 42672, Note_on_c, 1, 38, 76
1, 42717, Note_on_c, 1, 38, 0
1, 42720, Note_on_c, 1, 50, 78
1, 42754, Note_on_c, 0, 66, 0
1, 42756, Note_on_c, 0, 57, 80
1, 42765, Note_on_c, 1, 50, 0
1, 42768, Note_on_c, 0, 57, 0
1, 42768, Note_on_c, 0, 67, 80
1, 42768, Note_on_c, 1, 49, 80
1, 42802, Note_on_c, 0, 67, 0
1, 42804, Note_on_c, 0, 57, 82
1, 42813, Note_on_c, 1, 49, 0
1, 42816, Note_on_c, 0, 57, 0
1, 42816, Note_on_c, 0, 66, 82
1, 42816, Note_on_c, 1, 50, 82
1, 42850, Note_on_c, 0, 66, 0
1, 42852, Note_on_c, 0, 57, 84
1, 42861, Note_on_c, 1, 50, 0
1, 42864, Note_on_c, 0, 57, 0
1, 42864, Note_on_c, 0, 64, 83
1, 42864, Note_on_c, 1, 55, 84
1, 42898, Note_on_c, 0, 64, 0
1, 42900, Note_on_c, 0, 57, 81
1, 42909, Note_on_c, 1, 55, 0
1, 42912, Note_on_c, 0, 57, 0
1, 42912, Note_on_c, 0, 62, 80
1, 42912, Note_on_c, 1, 54, 81
1, 42946, Note_on_c, 0, 62, 0
1, 42948, Note_on_c, 0, 57, 78
1, 42957, Note_on_c, 1, 54, 0
1, 42960, Note_on_c, 0, 57, 0
1, 42960, Note_on_c, 0, 64, 77
1, 42960, Note_on_c, 1, 49, 78
1, 42994, Note_on_c, 0, 64, 0
1, 42996, Note_on_c, 0, 57, 75
1, 43005, Note_on_c, 1, 49, 0
1, 43008, Note_on_c, 0, 57, 0
1, 43008, Note_on_c, 0, 66, 75
1, 43056, Note_on_c, 1, 38, 75
1, 43101, Note_on_c, 1, 38, 0
1, 43104, Note_on_c, 1, 50, 76
1, 43119, Note_on_c, 0, 66, 0
1, 43120, Note_on_c, 0, 62, 76
1, 43135, Note_on_c, 0, 62, 0
1, 43136, Note_on_c, 0, 57, 77
1, 43149, Note_on_c, 1, 50, 0
1, 43151, Note_on_c, 0, 57, 0
1, 43152, Note_on_c, 0, 67, 77
1, 43152, Note_on_c, 1, 49, 77
1, 43167, Note_on_c, 0, 67, 0
1, 43168, Note_on_c, 0, 64, 77
1, 43183, Note_on_c, 0, 64, 0
1, 43184, Note_on_c, 0, 57, 77
1, 43197, Note_on_c, 1, 49, 0
1, 43199, Note_on_c, 0, 57, 0
1, 43200, Note_on_c, 0, 66, 77
1, 43200, Note_on_c, 1, 50, 78
1, 43215, Note_on_c, 0, 66, 0
1, 43216, Note_on_c, 0, 62, 78
1, 43231, Note_on_c, 0, 62, 0
1, 43232, Note_on_c, 0, 57, 78
1, 43245, Note_on_c, 1, 50, 0
1, 43247, Note_on_c, 0, 57, 0
1, 43248, Note_on_c, 0, 64, 78
1, 43248, Note_on_c, 1, 55, 79
1, 43263, Note_on_c, 0, 64, 0
1, 43264, Note_on_c, 0, 61, 78
1, 43279, Note_on_c, 0, 61, 0
1, 43280, Note_on_c, 0, 57, 78
1, 43293, Note_on_c, 1, 55, 0
1, 43295, Note_on_c, 0, 57, 0
1, 43296, Note_on_c, 0, 61, 79
1, 43296, Note_on_c, 1, 54, 79
1, 43311, Note_on_c, 0, 61, 0
1, 43312, Note_on_c, 0, 62, 79
1, 43327, Note_on_c, 0, 62, 0
1, 43328, Note_on_c, 0, 57, 79
1, 43341, Note_on_c, 1, 54, 0
1, 43343, Note_on_c, 0, 57, 0
1, 43344, Note_on_c, 0, 63, 79
1, 43344, Note_on_c, 1, 49, 80
1, 43359, Note_on_c, 0, 63, 0
1, 43360, Note_on_c, 0, 64, 79
1, 43375, Note_on_c, 0, 64, 0
1, 43376, Note_on_c, 0, 57, 80
1, 43389, Note_on_c, 1, 49, 0
1, 43391, Note_on_c, 0, 57, 0
1, 43392, Note_on_c, 0, 65, 80
1, 43392, Note_on_c, 1, 50, 81
1, 43407, Note_on_c, 0, 65, 0
1, 43408, Note_on_c, 0, 66, 80
1, 43423, Note_on_c, 0, 66, 0
1, 43424, Note_on_c, 0, 57, 80
1, 43437, Note_on_c, 1, 50, 0
1, 43439, Note_on_c, 0, 57, 0
1, 43440, Note_on_c, 0, 66, 80
1, 43440, Note_on_c, 1, 52, 82
1, 43455, Note_on_c, 0, 66, 0
1, 43456, Note_on_c, 0, 67, 81
1, 43471, Note_on_c, 0, 67, 0
1, 43472, Note_on_c, 0, 57, 81
1, 43485, Note_on_c, 1, 52, 0
1, 43487, Note_on_c, 0, 57, 0
1, 43488, Note_on_c, 0, 69, 81
1, 43488, Note_on_c, 1, 54, 83
1, 43508, Note_on_c, 0, 69, 0
1, 43533, Note_on_c, 1, 54, 0
1, 43584, Note_on_c, 0, 66, 75
1, 43584, Note_on_c, 1, 50, 75
1, 43599, Note_on_c, 0, 66, 0
1, 43600, Note_on_c, 0, 62, 75
1, 43615, Note_on_c, 0, 62, 0
1, 43616, Note_on_c, 0, 57, 76
1, 43629, Note_on_c, 1, 50, 0
1, 43631, Note_on_c, 0, 57, 0
1, 43632, Note_on_c, 0, 67, 77
1, 43632, Note_on_c, 1, 52, 78
1, 43647, Note_on_c, 0, 67, 0
1, 43648, Note_on_c, 0, 64, 78
1, 43663, Note_on_c, 0, 64, 0
1, 43664, Note_on_c, 0, 57, 78
1, 43677, Note_on_c, 1, 52, 0
1, 43679, Note_on_c, 0, 57, 0
1, 43680, Note_on_c, 0, 69, 79
1, 43680, Note_on_c, 1, 54, 81
1, 43700, Note_on_c, 0, 69, 0
1, 43725, Note_on_c, 1, 54, 0
1, 43776, Note_on_c, 0, 78, 75
1, 43824, Note_on_c, 1, 38, 69
1, 43865, Note_on_c, 0, 78, 0
1, 43869, Note_on_c, 1, 38, 0
1, 43872, Note_on_c, 0, 79, 75
1, 43872, Note_on_c, 1, 38, 69
1, 43884, Note_on_c, 0, 79, 0
1, 43884, Note_on_c, 0, 78, 75
1, 43896, Note_on_c, 0, 78, 0
1, 43896, Note_on_c, 0, 76, 75
1, 43908, Note_on_c, 0, 76, 0
1, 43908, Note_on_c, 0, 74, 75
1, 43917, Note_on_c, 1, 38, 0
1, 43920, Note_on_c, 0, 74, 0
1, 43920, Note_on_c, 0, 74, 75
1, 43920, Note_on_c, 1, 38, 69
1, 43932, Note_on_c, 0, 74, 0
1, 43932, Note_on_c, 0, 73, 75
1, 43944, Note_on_c, 0, 73, 0
1, 43944, Note_on_c, 0, 71, 75
1, 43956, Note_on_c, 0, 71, 0
1, 43956, Note_on_c, 0, 69, 75
1, 43965, Note_on_c, 1, 38, 0
1, 43968, Note_on_c, 0, 69, 0
1, 43968, Note_on_c, 0, 69, 75
1, 44016, Note_on_c, 1, 40, 69
1, 44061, Note_on_c, 1, 40, 0
1, 44064, Note_on_c, 0, 69, 0
1, 44064, Note_on_c, 0, 67, 75
1, 44064, Note_on_c, 1, 40, 69
1, 44087, Note_on_c, 0, 67, 0
1, 44088, Note_on_c, 0, 69, 75
1, 44100, Note_on_c, 0, 69, 0
1, 44100, Note_on_c, 0, 71, 75
1, 44109, Note_on_c, 1, 40, 0
1, 44112, Note_on_c, 0, 71, 0
1, 44112, Note_on_c, 0, 73, 75
1, 44112, Note_on_c, 1, 40, 69
1, 44124, Note_on_c, 0, 73, 0
1, 44124, Note_on_c, 0, 74, 75
1, 44136, Note_on_c, 0, 74, 0
1, 44136, Note_on_c, 0, 76, 75
1, 44148, Note_on_c, 0, 76, 0
1, 44148, Note_on_c, 0, 78, 75
1, 44157, Note_on_c, 1, 40, 0
1, 44160, Note_on_c, 0, 78, 0
1, 44160, Note_on_c, 0, 79, 75
1, 44208, Note_on_c, 1, 33, 69
1, 44227, Note_on_c, 0, 79, 0
1, 44232, Note_on_c, 0, 81, 75
1, 44253, Note_on_c, 1, 33, 0
1, 44255, Note_on_c, 0, 81, 0
1, 44256, Note_on_c, 0, 79, 75
1, 44256, Note_on_c, 1, 33, 69
1, 44268, Note_on_c, 0, 79, 0
1, 44268, Note_on_c, 0, 78, 75
1, 44280, Note_on_c, 0, 78, 0
1, 44280, Note_on_c, 0, 76, 75
1, 44292, Note_on_c, 0, 76, 0
1, 44292, Note_on_c, 0, 74, 75
1, 44301, Note_on_c, 1, 33, 0
1, 44304, Note_on_c, 0, 74, 0
1, 44304, Note_on_c, 0, 73, 75
1, 44304, Note_on_c, 1, 33, 69
1, 44316, Note_on_c, 0, 73, 0
1, 44316, Note_on_c, 0, 71, 75
1, 44328, Note_on_c, 0, 71, 0
1, 44328, Note_on_c, 0, 69, 75
1, 44340, Note_on_c, 0, 69, 0
1, 44340, Note_on_c, 0, 67, 75
1, 44349, Note_on_c, 1, 33, 0
1, 44352, Note_on_c, 0, 67, 0
1, 44352, Note_on_c, 0, 67, 75
1, 44400, Note_on_c, 1, 38, 69
1, 44445, Note_on_c, 1, 38, 0
1, 44448, Note_on_c, 0, 67, 0
1, 44448, Note_on_c, 0, 66, 75
1, 44448, Note_on_c, 1, 38, 69
1, 44493, Note_on_c, 0, 66, 0
1, 44493, Note_on_c, 1, 38, 0
1, 44496, Note_on_c, 1, 38, 69
1, 44541, Note_on_c, 1, 38, 0
1, 44544, Note_on_c, 0, 62, 75
1, 44592, Note_on_c, 1, 50, 69
1, 44592, Note_on_c, 1, 42, 69
1, 44639, Note_on_c, 1, 50, 0
1, 44639, Note_on_c, 1, 42, 0
1, 44640, Note_on_c, 1, 50, 69
1, 44640, Note_on_c, 1, 42, 69
1, 44677, Note_on_c, 0, 62, 0
1, 44687, Note_on_c, 1, 50, 0
1, 44687, Note_on_c, 1, 42, 0
1, 44688, Note_on_c, 0, 66, 75
1, 44688, Note_on_c, 1, 50, 69
1, 44688, Note_on_c, 1, 42, 69
1, 44700, Note_on_c, 0, 66, 0
1, 44700, Note_on_c, 0, 62, 75
1, 44733, Note_on_c, 0, 62, 0
1, 44735, Note_on_c, 1, 50, 0
1, 44735, Note_on_c, 1, 42, 0
1, 44736, Note_on_c, 0, 61, 75
1, 44748, Note_on_c, 0, 61, 0
1, 44748, Note_on_c, 0, 59, 75
1, 44784, Note_on_c, 1, 50, 69
1, 44784, Note_on_c, 1, 43, 69
1, 44831, Note_on_c, 1, 50, 0
1, 44831, Note_on_c, 1, 43, 0
1, 44832, Note_on_c, 1, 50, 69
1, 44832, Note_on_c, 1, 43, 69
1, 44869, Note_on_c, 0, 59, 0
1, 44879, Note_on_c, 1, 50, 0
1, 44879, Note_on_c, 1, 43, 0
1, 44880, Note_on_c, 0, 62, 75
1, 44880, Note_on_c, 1, 50, 69
1, 44880, Note_on_c, 1, 43, 69
1, 44892, Note_on_c, 0, 62, 0
1, 44892, Note_on_c, 0, 59, 75
1, 44925, Note_on_c, 0, 59, 0
1, 44927, Note_on_c, 1, 50, 0
1, 44927, Note_on_c, 1, 43, 0
1, 44928, Note_on_c, 0, 59, 75
1, 44940, Note_on_c, 0, 59, 0
1, 44940, Note_on_c, 0, 57, 75
1, 44976, Note_on_c, 1, 50, 69
1, 44976, Note_on_c, 1, 42, 69
1, 45023, Note_on_c, 1, 50, 0
1, 45023, Note_on_c, 1, 42, 0
1, 45024, Note_on_c, 1, 50, 69
1, 45024, Note_on_c, 1, 42, 69
1, 45061, Note_on_c, 0, 57, 0
1, 45071, Note_on_c, 1, 50, 0
1, 45071, Note_on_c, 1, 42, 0
1, 45072, Note_on_c, 0, 66, 75
1, 45072, Note_on_c, 1, 50, 69
1, 45072, Note_on_c, 1, 42, 69
1, 45084, Note_on_c, 0, 66, 0
1, 45084, Note_on_c, 0, 62, 75
1, 45117, Note_on_c, 0, 62, 0
1, 45119, Note_on_c, 1, 50, 0
1, 45119, Note_on_c, 1, 42, 0
1, 45120, Note_on_c, 0, 61, 75
1, 45120, Note_on_c, 1, 50, 69
1, 45120, Note_on_c, 1, 43, 69
1, 45132, Note_on_c, 0, 61, 0
1, 45132, Note_on_c, 0, 59, 75
1, 45165, Note_on_c, 0, 59, 0
1, 45165, Note_on_c, 1, 50, 0
1, 45165, Note_on_c, 1, 43, 0
1, 45168, Note_on_c, 0, 62, 75
1, 45180, Note_on_c, 0, 62, 0
1, 45180, Note_on_c, 0, 59, 75
1, 45213, Note_on_c, 0, 59, 0
1, 45216, Note_on_c, 0, 59, 75
1, 45216, Note_on_c, 1, 50, 69
1, 45216, Note_on_c, 1, 42, 69
1, 45228, Note_on_c, 0, 59, 0
1, 45228, Note_on_c, 0, 57, 75
1, 45261, Note_on_c, 0, 57, 0
1, 45261, Note_on_c, 1, 50, 0
1, 45261, Note_on_c, 1, 42, 0
1, 45264, Note_on_c, 0, 66, 75
1, 45276, Note_on_c, 0, 66, 0
1, 45276, Note_on_c, 0, 62, 75
1, 45309, Note_on_c, 0, 62, 0
1, 45312, Note_on_c, 0, 61, 75
1, 45312, Note_on_c, 1, 50, 69
1, 45312, Note_on_c, 1, 43, 69
1, 45324, Note_on_c, 0, 61, 0
1, 45324, Note_on_c, 0, 59, 75
1, 45357, Note_on_c, 0, 59, 0
1, 45357, Note_on_c, 1, 50, 0
1, 45357, Note_on_c, 1, 43, 0
1, 45360, Note_on_c, 0, 62, 75
1, 45372, Note_on_c, 0, 62, 0
1, 45372, Note_on_c, 0, 59, 75
1, 45405, Note_on_c, 0, 59, 0
1, 45408, Note_on_c, 0, 59, 75
1, 45408, Note_on_c, 1, 50, 69
1, 45408, Note_on_c, 1, 42, 69
1, 45420, Note_on_c, 0, 59, 0
1, 45420, Note_on_c, 0, 57, 75
1, 45453, Note_on_c, 0, 57, 0
1, 45453, Note_on_c, 1, 50, 0
1, 45453, Note_on_c, 1, 42, 0
1, 45456, Note_on_c, 0, 66, 75
1, 45468, Note_on_c, 0, 66, 0
1, 45468, Note_on_c, 0, 62, 75
1, 45501, Note_on_c, 0, 62, 0
1, 45504, Note_on_c, 0, 67, 75
1, 45516, Note_on_c, 0, 67, 0
1, 45516, Note_on_c, 0, 64, 75
1, 45549, Note_on_c, 0, 64, 0
1, 45552, Note_on_c, 0, 69, 75
1, 45564, Note_on_c, 0, 69, 0
1, 45564, Note_on_c, 0, 66, 75
1, 45597, Note_on_c, 0, 66, 0
1, 45600, Note_on_c, 0, 67, 75
1, 45612, Note_on_c, 0, 67, 0
1, 45612, Note_on_c, 0, 64, 75
1, 45645, Note_on_c, 0, 64, 0
1, 45648, Note_on_c, 0, 66, 75
1, 45660, Note_on_c, 0, 66, 0
1, 45660, Note_on_c, 0, 62, 75
1, 45693, Note_on_c, 0, 62, 0
1, 45696, Note_on_c, 0, 62, 75
1, 45708, Note_on_c, 0, 62, 0
1, 45708, Note_on_c, 0, 60, 75
1, 45744, Note_on_c, 1, 57, 69
1, 45744, Note_on_c, 1, 54, 69
1, 45789, Note_on_c, 1, 57, 0
1, 45789, Note_on_c, 1, 54, 0
1, 45792, Note_on_c, 1, 57, 69
1, 45792, Note_on_c, 1, 54, 69
1, 45829, Note_on_c, 0, 60, 0
1, 45837, Note_on_c, 1, 57, 0
1, 45837, Note_on_c, 1, 54, 0
1, 45840, Note_on_c, 0, 64, 75
1, 45840, Note_on_c, 1, 57, 69
1, 45840, Note_on_c, 1, 54, 69
1, 45852, Note_on_c, 0, 64, 0
1, 45852, Note_on_c, 0, 60, 75
1, 45885, Note_on_c, 0, 60, 0
1, 45885, Note_on_c, 1, 57, 0
1, 45885, Note_on_c, 1, 54, 0
1, 45888, Note_on_c, 0, 60, 75
1, 45900, Note_on_c, 0, 60, 0
1, 45900, Note_on_c, 0, 59, 75
1, 45936, Note_on_c, 1, 54, 69
1, 45936, Note_on_c, 1, 51, 69
1, 45981, Note_on_c, 1, 54, 0
1, 45981, Note_on_c, 1, 51, 0
1, 45984, Note_on_c, 1, 54, 69
1, 45984, Note_on_c, 1, 51, 69
1, 46021, Note_on_c, 0, 59, 0
1, 46029, Note_on_c, 1, 54, 0
1, 46029, Note_on_c, 1, 51, 0
1, 46032, Note_on_c, 0, 69, 75
1, 46032, Note_on_c, 1, 54, 69
1, 46032, Note_on_c, 1, 51, 69
1, 46044, Note_on_c, 0, 69, 0
1, 46044, Note_on_c, 0, 66, 75
1, 46077, Note_on_c, 0, 66, 0
1, 46077, Note_on_c, 1, 54, 0
1, 46077, Note_on_c, 1, 51, 0
1, 46080, Note_on_c, 0, 69, 75
1, 46080, Note_on_c, 1, 52, 85
1, 46080, Note_on_c, 1, 40, 85
1, 46092, Note_on_c, 0, 69, 0
1, 46092, Note_on_c, 0, 67, 75
1, 46125, Note_on_c, 0, 67, 0
1, 46128, Note_on_c, 0, 67, 75
1, 46128, Note_on_c, 1, 52, 0
1, 46128, Note_on_c, 1, 40, 0
1, 46128, Note_on_c, 1, 54, 69
1, 46140, Note_on_c, 0, 67, 0
1, 46140, Note_on_c, 0, 66, 75
1, 46173, Note_on_c, 0, 66, 0
1, 46173, Note_on_c, 1, 54, 0
1, 46176, Note_on_c, 0, 66, 75
1, 46176, Note_on_c, 1, 55, 69
1, 46188, Note_on_c, 0, 66, 0
1, 46188, Note_on_c, 0, 64, 75
1, 46221, Note_on_c, 0, 64, 0
1, 46221, Note_on_c, 1, 55, 0
1, 46224, Note_on_c, 0, 67, 75
1, 46224, Note_on_c, 1, 51, 69
1, 46236, Note_on_c, 0, 67, 0
1, 46236, Note_on_c, 0, 66, 75
1, 46269, Note_on_c, 0, 66, 0
1, 46269, Note_on_c, 1, 51, 0
1, 46272, Note_on_c, 0, 69, 75
1, 46272, Note_on_c, 1, 52, 85
1, 46272, Note_on_c, 1, 40, 85
1, 46284, Note_on_c, 0, 69, 0
1, 46284, Note_on_c, 0, 67, 75
1, 46317, Note_on_c, 0, 67, 0
1, 46320, Note_on_c, 0, 67, 75
1, 46320, Note_on_c, 1, 52, 0
1, 46320, Note_on_c, 1, 40, 0
1, 46320, Note_on_c, 1, 54, 69
1, 46332, Note_on_c, 0, 67, 0
1, 46332, Note_on_c, 0, 66, 75
1, 46365, Note_on_c, 0, 66, 0
1, 46365, Note_on_c, 1, 54, 0
1, 46368, Note_on_c, 0, 66, 75
1, 46368, Note_on_c, 1, 55, 69
1, 46380, Note_on_c, 0, 66, 0
1, 46380, Note_on_c, 0, 64, 75
1, 46413, Note_on_c, 0, 64, 0
1, 46413, Note_on_c, 1, 55, 0
1, 46416, Note_on_c, 0, 64, 75
1, 46416, Note_on_c, 1, 56, 69
1, 46428, Note_on_c, 0, 64, 0
1, 46428, Note_on_c, 0, 62, 75
1, 46461, Note_on_c, 0, 62, 0
1, 46461, Note_on_c, 1, 56, 0
1, 46464, Note_on_c, 0, 61, 75
1, 46464, Note_on_c, 1, 57, 85
1, 46470, Note_on_c, 0, 61, 0
1, 46470, Note_on_c, 0, 64, 75
1, 46476, Note_on_c, 0, 64, 0
1, 46476, Note_on_c, 0, 69, 75
1, 46487, Note_on_c, 0, 69, 0
1, 46488, Note_on_c, 0, 69, 75
1, 46498, Note_on_c, 0, 69, 0
1, 46512, Note_on_c, 0, 69, 75
1, 46522, Note_on_c, 0, 69, 0
1, 46536, Note_on_c, 0, 69, 75
1, 46546, Note_on_c, 0, 69, 0
1, 46560, Note_on_c, 0, 69, 75
1, 46560, Note_on_c, 1, 57, 0
1, 46570, Note_on_c, 0, 69, 0
1, 46584, Note_on_c, 0, 69, 75
1, 46594, Note_on_c, 0, 69, 0
1, 46608, Note_on_c, 0, 69, 75
1, 46608, Note_on_c, 1, 66, 69
1, 46608, Note_on_c, 1, 62, 69
1, 46618, Note_on_c, 0, 69, 0
1, 46628, Note_on_c, 1, 66, 0
1, 46628, Note_on_c, 1, 62, 0
1, 46632, Note_on_c, 0, 69, 75
1, 46642, Note_on_c, 0, 69, 0
1, 46656, Note_on_c, 0, 69, 75
1, 46656, Note_on_c, 1, 64, 69
1, 46656, Note_on_c, 1, 61, 69
1, 46666, Note_on_c, 0, 69, 0
1, 46676, Note_on_c, 1, 64, 0
1, 46676, Note_on_c, 1, 61, 0
1, 46680, Note_on_c, 0, 69, 75
1, 46690, Note_on_c, 0, 69, 0
1, 46704, Note_on_c, 0, 69, 75
1, 46704, Note_on_c, 1, 62, 69
1, 46704, Note_on_c, 1, 59, 69
1, 46714, Note_on_c, 0, 69, 0
1, 46724, Note_on_c, 1, 62, 0
1, 46724, Note_on_c, 1, 59, 0
1, 46728, Note_on_c, 0, 69, 75
1, 46738, Note_on_c, 0, 69, 0
1, 46752, Note_on_c, 0, 69, 75
1, 46752, Note_on_c, 1, 61, 69
1, 46752, Note_on_c, 1, 57, 69
1, 46762, Note_on_c, 0, 69, 0
1, 46772, Note_on_c, 1, 61, 0
1, 46772, Note_on_c, 1, 57, 0
1, 46776, Note_on_c, 0, 69, 75
1, 46786, Note_on_c, 0, 69, 0
1, 46800, Note_on_c, 0, 69, 75
1, 46800, Note_on_c, 1, 59, 69
1, 46800, Note_on_c, 1, 55, 69
1, 46810, Note_on_c, 0, 69, 0
1, 46820, Note_on_c, 1, 59, 0
1, 46820, Note_on_c, 1, 55, 0
1, 46824, Note_on_c, 0, 69, 75
1, 46834, Note_on_c, 0, 69, 0
1, 46848, Note_on_c, 0, 74, 75
1, 46848, Note_on_c, 1, 57, 69
1, 46848, Note_on_c, 1, 54, 69
1, 46872, Note_on_c, 0, 74, 0
1, 46872, Note_on_c, 0, 62, 75
1, 46895, Note_on_c, 0, 62, 0
1, 46896, Note_on_c, 0, 74, 75
1, 46906, Note_on_c, 0, 74, 0
1, 46920, Note_on_c, 0, 74, 75
1, 46930, Note_on_c, 0, 74, 0
1, 46937, Note_on_c, 1, 57, 0
1, 46937, Note_on_c, 1, 54, 0
1, 46944, Note_on_c, 0, 74, 75
1, 46954, Note_on_c, 0, 74, 0
1, 46968, Note_on_c, 0, 74, 75
1, 46978, Note_on_c, 0, 74, 0
1, 46992, Note_on_c, 0, 74, 75
1, 46992, Note_on_c, 1, 71, 69
1, 46992, Note_on_c, 1, 67, 69
1, 47002, Note_on_c, 0, 74, 0
1, 47012, Note_on_c, 1, 71, 0
1, 47012, Note_on_c, 1, 67, 0
1, 47016, Note_on_c, 0, 74, 75
1, 47026, Note_on_c, 0, 74, 0
1, 47040, Note_on_c, 0, 74, 75
1, 47040, Note_on_c, 1, 69, 69
1, 47040, Note_on_c, 1, 66, 69
1, 47050, Note_on_c, 0, 74, 0
1, 47060, Note_on_c, 1, 69, 0
1, 47060, Note_on_c, 1, 66, 0
1, 47064, Note_on_c, 0, 74, 75
1, 47074, Note_on_c, 0, 74, 0
1, 47088, Note_on_c, 0, 74, 75
1, 47088, Note_on_c, 1, 67, 69
1, 47088, Note_on_c, 1, 64, 69
1, 47098, Note_on_c, 0, 74, 0
1, 47108, Note_on_c, 1, 67, 0
1, 47108, Note_on_c, 1, 64, 0
1, 47112, Note_on_c, 0, 74, 75
1, 47122, Note_on_c, 0, 74, 0
1, 47136, Note_on_c, 0, 74, 75
1, 47136, Note_on_c, 1, 66, 69
1, 47136, Note_on_c, 1, 62, 69
1, 47146, Note_on_c, 0, 74, 0
1, 47156, Note_on_c, 1, 66, 0
1, 47156, Note_on_c, 1, 62, 0
1, 47160, Note_on_c, 0, 74, 75
1, 47170, Note_on_c, 0, 74, 0
1, 47184, Note_on_c, 0, 74, 75
1, 47184, Note_on_c, 1, 64, 69
1, 47184, Note_on_c, 1, 60, 69
1, 47194, Note_on_c, 0, 74, 0
1, 47204, Note_on_c, 1, 64, 0
1, 47204, Note_on_c, 1, 60, 0
1, 47208, Note_on_c, 0, 74, 75
1, 47218, Note_on_c, 0, 74, 0
1, 47232, Note_on_c, 0, 79, 75
1, 47232, Note_on_c, 1, 62, 69
1, 47232, Note_on_c, 1, 59, 69
1, 47252, Note_on_c, 1, 62, 0
1, 47252, Note_on_c, 1, 59, 0
1, 47256, Note_on_c, 0, 79, 0
1, 47256, Note_on_c, 0, 67, 75
1, 47279, Note_on_c, 0, 67, 0
1, 47280, Note_on_c, 0, 79, 75
1, 47280, Note_on_c, 1, 60, 69
1, 47280, Note_on_c, 1, 57, 69
1, 47290, Note_on_c, 0, 79, 0
1, 47300, Note_on_c, 1, 60, 0
1, 47300, Note_on_c, 1, 57, 0
1, 47304, Note_on_c, 0, 79, 75
1, 47314, Note_on_c, 0, 79, 0
1, 47328, Note_on_c, 0, 79, 75
1, 47328, Note_on_c, 1, 59, 69
1, 47328, Note_on_c, 1, 55, 69
1, 47348, Note_on_c, 1, 59, 0
1, 47348, Note_on_c, 1, 55, 0
1, 47352, Note_on_c, 0, 79, 0
1, 47352, Note_on_c, 0, 67, 75
1, 47375, Note_on_c, 0, 67, 0
1, 47376, Note_on_c, 0, 79, 75
1, 47376, Note_on_c, 1, 57, 69
1, 47376, Note_on_c, 1, 54, 69
1, 47386, Note_on_c, 0, 79, 0
1, 47396, Note_on_c, 1, 57, 0
1, 47396, Note_on_c, 1, 54, 0
1, 47400, Note_on_c, 0, 79, 75
1, 47410, Note_on_c, 0, 79, 0
1, 47424, Note_on_c, 0, 79, 75
1, 47424, Note_on_c, 1, 55, 69
1, 47424, Note_on_c, 1, 52, 69
1, 47444, Note_on_c, 1, 55, 0
1, 47444, Note_on_c, 1, 52, 0
1, 47448, Note_on_c, 0, 79, 0
1, 47448, Note_on_c, 0, 71, 75
1, 47471, Note_on_c, 0, 71, 0
1, 47472, Note_on_c, 0, 79, 75
1, 47472, Note_on_c, 1, 54, 69
1, 47472, Note_on_c, 1, 50, 69
1, 47482, Note_on_c, 0, 79, 0
1, 47492, Note_on_c, 1, 54, 0
1, 47492, Note_on_c, 1, 50, 0
1, 47496, Note_on_c, 0, 79, 75
1, 47506, Note_on_c, 0, 79, 0
1, 47520, Note_on_c, 0, 79, 75
1, 47520, Note_on_c, 1, 57, 75
1, 47520, Note_on_c, 1, 52, 75
1, 47520, Note_on_c, 1, 49, 75
1, 47544, Note_on_c, 0, 79, 0
1, 47544, Note_on_c, 0, 69, 75
1, 47567, Note_on_c, 0, 69, 0
1, 47568, Note_on_c, 0, 79, 76
1, 47578, Note_on_c, 0, 79, 0
1, 47592, Note_on_c, 0, 79, 77
1, 47602, Note_on_c, 0, 79, 0
1, 47609, Note_on_c, 1, 57, 0
1, 47609, Note_on_c, 1, 52, 0
1, 47609, Note_on_c, 1, 49, 0
1, 47616, Note_on_c, 0, 78, 77
1, 47616, Note_on_c, 1, 57, 77
1, 47616, Note_on_c, 1, 54, 77
1, 47616, Note_on_c, 1, 50, 77
1, 47640, Note_on_c, 0, 78, 0
1, 47640, Note_on_c, 0, 69, 78
1, 47663, Note_on_c, 0, 69, 0
1, 47664, Note_on_c, 0, 78, 79
1, 47674, Note_on_c, 0, 78, 0
1, 47688, Note_on_c, 0, 78, 79
1, 47705, Note_on_c, 1, 57, 0
1, 47705, Note_on_c, 1, 54, 0
1, 47705, Note_on_c, 1, 50, 0
1, 47712, Note_on_c, 0, 78, 0
1, 47712, Note_on_c, 0, 79, 80
1, 47712, Note_on_c, 1, 57, 79
1, 47712, Note_on_c, 1, 52, 79
1, 47712, Note_on_c, 1, 49, 79
1, 47735, Note_on_c, 0, 79, 0
1, 47736, Note_on_c, 0, 69, 81
1, 47759, Note_on_c, 0, 69, 0
1, 47760, Note_on_c, 0, 79, 81
1, 47770, Note_on_c, 0, 79, 0
1, 47784, Note_on_c, 0, 79, 82
1, 47801, Note_on_c, 1, 57, 0
1, 47801, Note_on_c, 1, 52, 0
1, 47801, Note_on_c, 1, 49, 0
1, 47808, Note_on_c, 0, 79, 0
1, 47808, Note_on_c, 0, 77, 83
1, 47808, Note_on_c, 1, 57, 81
1, 47808, Note_on_c, 1, 53, 81
1, 47808, Note_on_c, 1, 50, 81
1, 47831, Note_on_c, 0, 77, 0
1, 47832, Note_on_c, 0, 65, 84
1, 47855, Note_on_c, 0, 65, 0
1, 47856, Note_on_c, 0, 77, 84
1, 47866, Note_on_c, 0, 77, 0
1, 47880, Note_on_c, 0, 77, 84
1, 47897, Note_on_c, 1, 57, 0
1, 47897, Note_on_c, 1, 53, 0
1, 47897, Note_on_c, 1, 50, 0
1, 47903, Note_on_c, 0, 77, 0
1, 47904, Note_on_c, 0, 77, 84
1, 47928, Note_on_c, 0, 77, 0
1, 47928, Note_on_c, 0, 65, 84
1, 47951, Note_on_c, 0, 65, 0
1, 47952, Note_on_c, 0, 77, 84
1, 47962, Note_on_c, 0, 77, 0
1, 47976, Note_on_c, 0, 77, 84
1, 47986, Note_on_c, 0, 77, 0
1, 48000, Note_on_c, 0, 77, 69
1, 48000, Note_on_c, 1, 50, 84
1, 48000, Note_on_c, 1, 38, 84
1, 48024, Note_on_c, 0, 77, 0
1, 48024, Note_on_c, 0, 76, 69
1, 48045, Note_on_c, 1, 50, 0
1, 48045, Note_on_c, 1, 38, 0
1, 48047, Note_on_c, 0, 76, 0
1, 48048, Note_on_c, 0, 76, 69
1, 48048, Note_on_c, 1, 65, 61
1, 48048, Note_on_c, 1, 62, 61
1, 48072, Note_on_c, 0, 76, 0
1, 48072, Note_on_c, 0, 74, 69
1, 48095, Note_on_c, 0, 74, 0
1, 48095, Note_on_c, 1, 65, 0
1, 48095, Note_on_c, 1, 62, 0
1, 48096, Note_on_c, 0, 74, 69
1, 48096, Note_on_c, 1, 65, 61
1, 48096, Note_on_c, 1, 62, 61
1, 48120, Note_on_c, 0, 74, 0
1, 48120, Note_on_c, 0, 72, 69
1, 48143, Note_on_c, 0, 72, 0
1, 48143, Note_on_c, 1, 65, 0
1, 48143, Note_on_c, 1, 62, 0
1, 48144, Note_on_c, 0, 72, 69
1, 48144, Note_on_c, 1, 65, 61
1, 48144, Note_on_c, 1, 62, 61
1, 48168, Note_on_c, 0, 72, 0
1, 48168, Note_on_c, 0, 70, 69
1, 48191, Note_on_c, 0, 70, 0
1, 48191, Note_on_c, 1, 65, 0
1, 48191, Note_on_c, 1, 62, 0
1, 48192, Note_on_c, 0, 70, 69
1, 48192, Note_on_c, 1, 65, 61
1, 48192, Note_on_c, 1, 62, 61
1, 48207, Note_on_c, 0, 70, 0
1, 48208, Note_on_c, 0, 74, 69
1, 48223, Note_on_c, 0, 74, 0
1, 48224, Note_on_c, 0, 77, 69
1, 48239, Note_on_c, 0, 77, 0
1, 48239, Note_on_c, 1, 65, 0
1, 48239, Note_on_c, 1, 62, 0
1, 48240, Note_on_c, 0, 70, 69
1, 48240, Note_on_c, 1, 65, 61
1, 48240, Note_on_c, 1, 62, 61
1, 48255, Note_on_c, 0, 70, 0
1, 48256, Note_on_c, 0, 74, 69
1, 48271, Note_on_c, 0, 74, 0
1, 48272, Note_on_c, 0, 77, 69
1, 48287, Note_on_c, 0, 77, 0
1, 48287, Note_on_c, 1, 65, 0
1, 48287, Note_on_c, 1, 62, 0
1, 48288, Note_on_c, 0, 70, 69
1, 48288, Note_on_c, 1, 65, 61
1, 48288, Note_on_c, 1, 62, 61
1, 48333, Note_on_c, 0, 70, 0
1, 48335, Note_on_c, 1, 65, 0
1, 48335, Note_on_c, 1, 62, 0
1, 48336, Note_on_c, 1, 65, 61
1, 48336, Note_on_c, 1, 62, 61
1, 48383, Note_on_c, 1, 65, 0
1, 48383, Note_on_c, 1, 62, 0
1, 48384, Note_on_c, 0, 77, 69
1, 48384, Note_on_c, 1, 65, 61
1, 48384, Note_on_c, 1, 62, 61
1, 48396, Note_on_c, 0, 77, 0
1, 48396, Note_on_c, 0, 82, 69
1, 48408, Note_on_c, 0, 82, 0
1, 48408, Note_on_c, 0, 86, 69
1, 48432, Note_on_c, 0, 86, 0
1, 48432, Note_on_c, 0, 74, 69
1, 48444, Note_on_c, 0, 74, 0
1, 48444, Note_on_c, 0, 77, 69
1, 48456, Note_on_c, 0, 77, 0
1, 48456, Note_on_c, 0, 82, 69
1, 48473, Note_on_c, 1, 65, 0
1, 48473, Note_on_c, 1, 62, 0
1, 48480, Note_on_c, 0, 82, 0
1, 48480, Note_on_c, 0, 70, 69
1, 48492, Note_on_c, 0, 70, 0
1, 48492, Note_on_c, 0, 74, 69
1, 48504, Note_on_c, 0, 74, 0
1, 48504, Note_on_c, 0, 77, 69
1, 48528, Note_on_c, 0, 77, 0
1, 48528, Note_on_c, 0, 65, 69
1, 48540, Note_on_c, 0, 65, 0
1, 48540, Note_on_c, 0, 70, 69
1, 48552, Note_on_c, 0, 70, 0
1, 48552, Note_on_c, 0, 74, 69
1, 48576, Note_on_c, 0, 74, 0
1, 48576, Note_on_c, 0, 62, 69
1, 48588, Note_on_c, 0, 62, 0
1, 48588, Note_on_c, 0, 65, 69
1, 48600, Note_on_c, 0, 65, 0
1, 48600, Note_on_c, 0, 70, 69
1, 48624, Note_on_c, 0, 70, 0
1, 48624, Note_on_c, 0, 58, 69
1, 48636, Note_on_c, 0, 58, 0
1, 48636, Note_on_c, 0, 62, 69
1, 48648, Note_on_c, 0, 62, 0
1, 48648, Note_on_c, 0, 65, 69
1, 48672, Note_on_c, 0, 65, 0
1, 48672, Note_on_c, 0, 53, 69
1, 48684, Note_on_c, 0, 53, 0
1, 48684, Note_on_c, 0, 58, 69
1, 48696, Note_on_c, 0, 58, 0
1, 48696, Note_on_c, 0, 62, 69
1, 48720, Note_on_c, 0, 62, 0
1, 48720, Note_on_c, 0, 50, 69
1, 48732, Note_on_c, 0, 50, 0
1, 48732, Note_on_c, 0, 53, 69
1, 48744, Note_on_c, 0, 53, 0
1, 48744, Note_on_c, 0, 58, 69
1, 48768, Note_on_c, 0, 58, 0
1, 48768, Note_on_c, 1, 46, 61
1, 48768, Note_on_c, 1, 34, 61
1, 48792, Note_on_c, 0, 74, 61
1, 48815, Note_on_c, 0, 74, 0
1, 48816, Note_on_c, 0, 62, 61
1, 48839, Note_on_c, 0, 62, 0
1, 48840, Note_on_c, 0, 74, 62
1, 48863, Note_on_c, 0, 74, 0
1, 48864, Note_on_c, 0, 62, 63
1, 48887, Note_on_c, 0, 62, 0
1, 48888, Note_on_c, 0, 74, 63
1, 48911, Note_on_c, 0, 74, 0
1, 48912, Note_on_c, 0, 64, 64
1, 48935, Note_on_c, 0, 64, 0
1, 48936, Note_on_c, 0, 76, 65
1, 48959, Note_on_c, 0, 76, 0
1, 48960, Note_on_c, 0, 65, 66
1, 48983, Note_on_c, 0, 65, 0
1, 48984, Note_on_c, 0, 77, 66
1, 49007, Note_on_c, 0, 77, 0
1, 49008, Note_on_c, 0, 64, 67
1, 49031, Note_on_c, 0, 64, 0
1, 49032, Note_on_c, 0, 76, 68
1, 49055, Note_on_c, 0, 76, 0
1, 49056, Note_on_c, 0, 65, 69
1, 49079, Note_on_c, 0, 65, 0
1, 49080, Note_on_c, 0, 77, 69
1, 49093, Note_on_c, 1, 46, 0
1, 49093, Note_on_c, 1, 34, 0
1, 49103, Note_on_c, 0, 77, 0
1, 49104, Note_on_c, 0, 68, 70
1, 49104, Note_on_c, 1, 58, 70
1, 49104, Note_on_c, 1, 46, 70
1, 49127, Note_on_c, 0, 68, 0
1, 49128, Note_on_c, 0, 80, 71
1, 49149, Note_on_c, 1, 58, 0
1, 49149, Note_on_c, 1, 46, 0
1, 49151, Note_on_c, 0, 80, 0
1, 49152, Note_on_c, 0, 69, 72
1, 49152, Note_on_c, 1, 57, 73
1, 49158, Note_on_c, 0, 69, 0
1, 49158, Note_on_c, 0, 81, 72
1, 49176, Note_on_c, 1, 57, 0
1, 49176, Note_on_c, 1, 45, 75
1, 49199, Note_on_c, 1, 45, 0
1, 49200, Note_on_c, 1, 57, 75
1, 49210, Note_on_c, 1, 57, 0
1, 49224, Note_on_c, 1, 57, 75
1, 49234, Note_on_c, 1, 57, 0
1, 49241, Note_on_c, 0, 81, 0
1, 49248, Note_on_c, 1, 57, 75
1, 49258, Note_on_c, 1, 57, 0
1, 49272, Note_on_c, 1, 57, 75
1, 49282, Note_on_c, 1, 57, 0
1, 49296, Note_on_c, 0, 64, 75
1, 49296, Note_on_c, 0, 61, 75
1, 49296, Note_on_c, 1, 57, 75
1, 49306, Note_on_c, 1, 57, 0
1, 49316, Note_on_c, 0, 64, 0
1, 49316, Note_on_c, 0, 61, 0
1, 49320, Note_on_c, 1, 57, 75
1, 49330, Note_on_c, 1, 57, 0
1, 49344, Note_on_c, 0, 66, 75
1, 49344, Note_on_c, 0, 62, 75
1, 49344, Note_on_c, 1, 57, 75
1, 49354, Note_on_c, 1, 57, 0
1, 49364, Note_on_c, 0, 66, 0
1, 49364, Note_on_c, 0, 62, 0
1, 49368, Note_on_c, 1, 57, 75
1, 49378, Note_on_c, 1, 57, 0
1, 49392, Note_on_c, 0, 64, 75
1, 49392, Note_on_c, 0, 61, 75
1, 49392, Note_on_c, 1, 57, 75
1, 49402, Note_on_c, 1, 57, 0
1, 49412, Note_on_c, 0, 64, 0
1, 49412, Note_on_c, 0, 61, 0
1, 49416, Note_on_c, 1, 57, 75
1, 49426, Note_on_c, 1, 57, 0
1, 49440, Note_on_c, 0, 66, 75
1, 49440, Note_on_c, 0, 62, 75
1, 49440, Note_on_c, 1, 57, 75
1, 49450, Note_on_c, 1, 57, 0
1, 49460, Note_on_c, 0, 66, 0
1, 49460, Note_on_c, 0, 62, 0
1, 49464, Note_on_c, 1, 57, 75
1, 49474, Note_on_c, 1, 57, 0
1, 49488, Note_on_c, 0, 69, 75
1, 49488, Note_on_c, 0, 64, 84
1, 49488, Note_on_c, 1, 57, 75
1, 49498, Note_on_c, 1, 57, 0
1, 49500, Note_on_c, 0, 69, 0
1, 49500, Note_on_c, 0, 67, 75
1, 49508, Note_on_c, 0, 64, 0
1, 49512, Note_on_c, 0, 67, 0
1, 49512, Note_on_c, 0, 66, 75
1, 49512, Note_on_c, 1, 57, 75
1, 49522, Note_on_c, 1, 57, 0
1, 49524, Note_on_c, 0, 66, 0
1, 49524, Note_on_c, 0, 67, 75
1, 49536, Note_on_c, 0, 67, 0
1, 49536, Note_on_c, 0, 69, 75
1, 49536, Note_on_c, 0, 66, 75
1, 49536, Note_on_c, 1, 57, 75
1, 49560, Note_on_c, 1, 57, 0
1, 49560, Note_on_c, 1, 45, 75
1, 49583, Note_on_c, 1, 45, 0
1, 49584, Note_on_c, 1, 57, 75
1, 49594, Note_on_c, 1, 57, 0
1, 49608, Note_on_c, 1, 57, 75
1, 49618, Note_on_c, 1, 57, 0
1, 49625, Note_on_c, 0, 69, 0
1, 49625, Note_on_c, 0, 66, 0
1, 49632, Note_on_c, 1, 57, 75
1, 49642, Note_on_c, 1, 57, 0
1, 49656, Note_on_c, 1, 57, 75
1, 49666, Note_on_c, 1, 57, 0
1, 49680, Note_on_c, 0, 71, 75
1, 49680, Note_on_c, 0, 67, 75
1, 49680, Note_on_c, 1, 57, 75
1, 49690, Note_on_c, 1, 57, 0
1, 49700, Note_on_c, 0, 71, 0
1, 49700, Note_on_c, 0, 67, 0
1, 49704, Note_on_c, 1, 57, 75
1, 49714, Note_on_c, 1, 57, 0
1, 49728, Note_on_c, 0, 73, 75
1, 49728, Note_on_c, 0, 64, 75
1, 49728, Note_on_c, 1, 57, 75
1, 49738, Note_on_c, 1, 57, 0
1, 49748, Note_on_c, 0, 73, 0
1, 49748, Note_on_c, 0, 64, 0
1, 49752, Note_on_c, 1, 57, 75
1, 49762, Note_on_c, 1, 57, 0
1, 49776, Note_on_c, 0, 74, 75
1, 49776, Note_on_c, 0, 66, 75
1, 49776, Note_on_c, 1, 57, 75
1, 49786, Note_on_c, 1, 57, 0
1, 49796, Note_on_c, 0, 74, 0
1, 49796, Note_on_c, 0, 66, 0
1, 49800, Note_on_c, 1, 57, 75
1, 49810, Note_on_c, 1, 57, 0
1, 49824, Note_on_c, 0, 67, 75
1, 49824, Note_on_c, 0, 61, 75
1, 49824, Note_on_c, 1, 57, 75
1, 49834, Note_on_c, 1, 57, 0
1, 49844, Note_on_c, 0, 67, 0
1, 49844, Note_on_c, 0, 61, 0
1, 49848, Note_on_c, 1, 57, 75
1, 49858, Note_on_c, 1, 57, 0
1, 49872, Note_on_c, 0, 67, 75
1, 49872, Note_on_c, 0, 62, 84
1, 49872, Note_on_c, 1, 57, 75
1, 49882, Note_on_c, 1, 57, 0
1, 49884, Note_on_c, 0, 67, 0
1, 49884, Note_on_c, 0, 66, 75
1, 49892, Note_on_c, 0, 62, 0
1, 49896, Note_on_c, 0, 66, 0
1, 49896, Note_on_c, 0, 64, 75
1, 49896, Note_on_c, 1, 57, 75
1, 49906, Note_on_c, 1, 57, 0
1, 49908, Note_on_c, 0, 64, 0
1, 49908, Note_on_c, 0, 66, 75
1, 49920, Note_on_c, 0, 66, 0
1, 49920, Note_on_c, 0, 64, 75
1, 49920, Note_on_c, 0, 61, 75
1, 49920, Note_on_c, 1, 57, 75
1, 49944, Note_on_c, 1, 57, 0
1, 49944, Note_on_c, 1, 45, 75
1, 49967, Note_on_c, 1, 45, 0
1, 49968, Note_on_c, 1, 57, 75
1, 49978, Note_on_c, 1, 57, 0
1, 49992, Note_on_c, 1, 57, 75
1, 50002, Note_on_c, 1, 57, 0
1, 50009, Note_on_c, 0, 64, 0
1, 50009, Note_on_c, 0, 61, 0
1, 50016, Note_on_c, 1, 57, 75
1, 50026, Note_on_c, 1, 57, 0
1, 50040, Note_on_c, 1, 57, 75
1, 50050, Note_on_c, 1, 57, 0
1, 50064, Note_on_c, 0, 64, 75
1, 50064, Note_on_c, 0, 61, 75
1, 50064, Note_on_c, 1, 57, 75
1, 50074, Note_on_c, 1, 57, 0
1, 50084, Note_on_c, 0, 64, 0
1, 50084, Note_on_c, 0, 61, 0
1, 50088, Note_on_c, 1, 57, 75
1, 50098, Note_on_c, 1, 57, 0
1, 50112, Note_on_c, 0, 66, 75
1, 50112, Note_on_c, 0, 62, 75
1, 50112, Note_on_c, 1, 57, 75
1, 50122, Note_on_c, 1, 57, 0
1, 50132, Note_on_c, 0, 66, 0
1, 50132, Note_on_c, 0, 62, 0
1, 50136, Note_on_c, 1, 57, 75
1, 50146, Note_on_c, 1, 57, 0
1, 50160, Note_on_c, 0, 64, 75
1, 50160, Note_on_c, 0, 61, 75
1, 50160, Note_on_c, 1, 57, 75
1, 50170, Note_on_c, 1, 57, 0
1, 50180, Note_on_c, 0, 64, 0
1, 50180, Note_on_c, 0, 61, 0
1, 50184, Note_on_c, 1, 57, 75
1, 50194, Note_on_c, 1, 57, 0
1, 50208, Note_on_c, 0, 66, 75
1, 50208, Note_on_c, 0, 62, 75
1, 50208, Note_on_c, 1, 57, 75
1, 50218, Note_on_c, 1, 57, 0
1, 50228, Note_on_c, 0, 66, 0
1, 50228, Note_on_c, 0, 62, 0
1, 50232, Note_on_c, 1, 57, 75
1, 50242, Note_on_c, 1, 57, 0
1, 50256, Note_on_c, 0, 69, 75
1, 50256, Note_on_c, 0, 64, 84
1, 50256, Note_on_c, 1, 57, 75
1, 50266, Note_on_c, 1, 57, 0
1, 50268, Note_on_c, 0, 69, 0
1, 50268, Note_on_c, 0, 67, 75
1, 50280, Note_on_c, 0, 67, 0
1, 50280, Note_on_c, 0, 66, 75
1, 50280, Note_on_c, 1, 57, 75
1, 50290, Note_on_c, 1, 57, 0
1, 50292, Note_on_c, 0, 66, 0
1, 50292, Note_on_c, 0, 67, 75
1, 50301, Note_on_c, 0, 64, 0
1, 50304, Note_on_c, 0, 67, 0
1, 50304, Note_on_c, 0, 69, 75
1, 50304, Note_on_c, 0, 66, 75
1, 50304, Note_on_c, 1, 57, 75
1, 50328, Note_on_c, 1, 57, 0
1, 50328, Note_on_c, 1, 45, 75
1, 50351, Note_on_c, 1, 45, 0
1, 50352, Note_on_c, 1, 57, 75
1, 50362, Note_on_c, 1, 57, 0
1, 50376, Note_on_c, 1, 57, 75
1, 50386, Note_on_c, 1, 57, 0
1, 50393, Note_on_c, 0, 69, 0
1, 50393, Note_on_c, 0, 66, 0
1, 50400, Note_on_c, 1, 57, 75
1, 50410, Note_on_c, 1, 57, 0
1, 50424, Note_on_c, 1, 57, 75
1, 50434, Note_on_c, 1, 57, 0
1, 50448, Note_on_c, 0, 71, 75
1, 50448, Note_on_c, 0, 67, 75
1, 50448, Note_on_c, 1, 57, 75
1, 50458, Note_on_c, 1, 57, 0
1, 50468, Note_on_c, 0, 71, 0
1, 50468, Note_on_c, 0, 67, 0
1, 50472, Note_on_c, 1, 57, 75
1, 50482, Note_on_c, 1, 57, 0
1, 50496, Note_on_c, 0, 73, 75
1, 50496, Note_on_c, 0, 64, 75
1, 50496, Note_on_c, 1, 57, 75
1, 50506, Note_on_c, 1, 57, 0
1, 50516, Note_on_c, 0, 73, 0
1, 50516, Note_on_c, 0, 64, 0
1, 50520, Note_on_c, 1, 57, 75
1, 50530, Note_on_c, 1, 57, 0
1, 50544, Note_on_c, 0, 74, 75
1, 50544, Note_on_c, 0, 66, 75
1, 50544, Note_on_c, 1, 57, 75
1, 50554, Note_on_c, 1, 57, 0
1, 50564, Note_on_c, 0, 74, 0
1, 50564, Note_on_c, 0, 66, 0
1, 50568, Note_on_c, 1, 57, 75
1, 50578, Note_on_c, 1, 57, 0
1, 50592, Note_on_c, 0, 76, 75
1, 50592, Note_on_c, 0, 73, 75
1, 50592, Note_on_c, 1, 57, 75
1, 50602, Note_on_c, 1, 57, 0
1, 50612, Note_on_c, 0, 76, 0
1, 50612, Note_on_c, 0, 73, 0
1, 50616, Note_on_c, 1, 57, 75
1, 50626, Note_on_c, 1, 57, 0
1, 50640, Note_on_c, 0, 79, 75
1, 50640, Note_on_c, 0, 74, 84
1, 50640, Note_on_c, 1, 57, 75
1, 50650, Note_on_c, 1, 57, 0
1, 50652, Note_on_c, 0, 79, 0
1, 50652, Note_on_c, 0, 78, 75
1, 50664, Note_on_c, 0, 78, 0
1, 50664, Note_on_c, 0, 76, 75
1, 50664, Note_on_c, 1, 57, 75
1, 50674, Note_on_c, 1, 57, 0
1, 50676, Note_on_c, 0, 76, 0
1, 50676, Note_on_c, 0, 78, 75
1, 50685, Note_on_c, 0, 74, 0
1, 50688, Note_on_c, 0, 78, 0
1, 50688, Note_on_c, 0, 79, 75
1, 50688, Note_on_c, 0, 76, 75
1, 50688, Note_on_c, 1, 57, 75
1, 50712, Note_on_c, 1, 57, 0
1, 50712, Note_on_c, 1, 45, 75
1, 50735, Note_on_c, 1, 45, 0
1, 50736, Note_on_c, 1, 57, 75
1, 50746, Note_on_c, 1, 57, 0
1, 50760, Note_on_c, 1, 57, 75
1, 50770, Note_on_c, 1, 57, 0
1, 50777, Note_on_c, 0, 79, 0
1, 50777, Note_on_c, 0, 76, 0
1, 50784, Note_on_c, 1, 57, 75
1, 50829, Note_on_c, 1, 57, 0
1, 50832, Note_on_c, 0, 79, 75
1, 50844, Note_on_c, 0, 79, 0
1, 50844, Note_on_c, 0, 78, 75
1, 50856, Note_on_c, 0, 78, 0
1, 50856, Note_on_c, 0, 76, 75
1, 50868, Note_on_c, 0, 76, 0
1, 50868, Note_on_c, 0, 74, 75
1, 50880, Note_on_c, 0, 74, 0
1, 50880, Note_on_c, 0, 73, 75
1, 50928, Note_on_c, 1, 67, 61
1, 50928, Note_on_c, 1, 64, 61
1, 50928, Note_on_c, 1, 57, 61
1, 50948, Note_on_c, 1, 67, 0
1, 50948, Note_on_c, 1, 64, 0
1, 50948, Note_on_c, 1, 57, 0
1, 50969, Note_on_c, 0, 73, 0
1, 50976, Note_on_c, 1, 67, 61
1, 50976, Note_on_c, 1, 64, 61
1, 50976, Note_on_c, 1, 57, 61
1, 51023, Note_on_c, 1, 67, 0
1, 51023, Note_on_c, 1, 64, 0
1, 51023, Note_on_c, 1, 57, 0
1, 51024, Note_on_c, 0, 76, 75
1, 51036, Note_on_c, 0, 76, 0
1, 51036, Note_on_c, 0, 73, 75
1, 51048, Note_on_c, 0, 73, 0
1, 51048, Note_on_c, 0, 71, 75
1, 51060, Note_on_c, 0, 71, 0
1, 51060, Note_on_c, 0, 69, 75
1, 51072, Note_on_c, 0, 69, 0
1, 51072, Note_on_c, 0, 74, 75
1, 51120, Note_on_c, 1, 62, 61
1, 51120, Note_on_c, 1, 57, 61
1, 51120, Note_on_c, 1, 54, 61
1, 51140, Note_on_c, 1, 62, 0
1, 51140, Note_on_c, 1, 57, 0
1, 51140, Note_on_c, 1, 54, 0
1, 51161, Note_on_c, 0, 74, 0
1, 51168, Note_on_c, 1, 62, 61
1, 51168, Note_on_c, 1, 57, 61
1, 51168, Note_on_c, 1, 54, 61
1, 51215, Note_on_c, 1, 62, 0
1, 51215, Note_on_c, 1, 57, 0
1, 51215, Note_on_c, 1, 54, 0
1, 51216, Note_on_c, 0, 79, 75
1, 51228, Note_on_c, 0, 79, 0
1, 51228, Note_on_c, 0, 78, 75
1, 51240, Note_on_c, 0, 78, 0
1, 51240, Note_on_c, 0, 76, 75
1, 51252, Note_on_c, 0, 76, 0
1, 51252, Note_on_c, 0, 74, 75
1, 51264, Note_on_c, 0, 74, 0
1, 51264, Note_on_c, 0, 73, 75
1, 51312, Note_on_c, 1, 67, 61
1, 51312, Note_on_c, 1, 64, 61
1, 51312, Note_on_c, 1, 57, 61
1, 51332, Note_on_c, 1, 67, 0
1, 51332, Note_on_c, 1, 64, 0
1, 51332, Note_on_c, 1, 57, 0
1, 51353, Note_on_c, 0, 73, 0
1, 51360, Note_on_c, 1, 67, 61
1, 51360, Note_on_c, 1, 64, 61
1, 51360, Note_on_c, 1, 57, 61
1, 51407, Note_on_c, 1, 67, 0
1, 51407, Note_on_c, 1, 64, 0
1, 51407, Note_on_c, 1, 57, 0
1, 51408, Note_on_c, 0, 76, 75
1, 51420, Note_on_c, 0, 76, 0
1, 51420, Note_on_c, 0, 73, 75
1, 51432, Note_on_c, 0, 73, 0
1, 51432, Note_on_c, 0, 71, 75
1, 51444, Note_on_c, 0, 71, 0
1, 51444, Note_on_c, 0, 69, 75
1, 51456, Note_on_c, 0, 69, 0
1, 51456, Note_on_c, 0, 74, 75
1, 51456, Note_on_c, 1, 62, 75
1, 51456, Note_on_c, 1, 54, 75
1, 51476, Note_on_c, 0, 74, 0
1, 51501, Note_on_c, 1, 62, 0
1, 51501, Note_on_c, 1, 54, 0
1, 51504, Note_on_c, 0, 78, 75
1, 51516, Note_on_c, 0, 78, 0
1, 51516, Note_on_c, 0, 76, 75
1, 51528, Note_on_c, 0, 76, 0
1, 51528, Note_on_c, 0, 74, 75
1, 51540, Note_on_c, 0, 74, 0
1, 51540, Note_on_c, 0, 73, 75
1, 51552, Note_on_c, 0, 73, 0
1, 51552, Note_on_c, 0, 71, 75
1, 51552, Note_on_c, 1, 62, 75
1, 51552, Note_on_c, 1, 59, 75
1, 51552, Note_on_c, 1, 55, 75
1, 51572, Note_on_c, 0, 71, 0
1, 51597, Note_on_c, 1, 62, 0
1, 51597, Note_on_c, 1, 59, 0
1, 51597, Note_on_c, 1, 55, 0
1, 51600, Note_on_c, 0, 74, 75
1, 51612, Note_on_c, 0, 74, 0
1, 51612, Note_on_c, 0, 73, 75
1, 51624, Note_on_c, 0, 73, 0
1, 51624, Note_on_c, 0, 71, 75
1, 51636, Note_on_c, 0, 71, 0
1, 51636, Note_on_c, 0, 69, 75
1, 51648, Note_on_c, 0, 69, 0
1, 51648, Note_on_c, 0, 67, 75
1, 51648, Note_on_c, 1, 55, 75
1, 51648, Note_on_c, 1, 43, 75
1, 51668, Note_on_c, 0, 67, 0
1, 51693, Note_on_c, 1, 55, 0
1, 51693, Note_on_c, 1, 43, 0
1, 51696, Note_on_c, 0, 71, 75
1, 51708, Note_on_c, 0, 71, 0
1, 51708, Note_on_c, 0, 69, 75
1, 51720, Note_on_c, 0, 69, 0
1, 51720, Note_on_c, 0, 67, 75
1, 51732, Note_on_c, 0, 67, 0
1, 51732, Note_on_c, 0, 66, 75
1, 51744, Note_on_c, 0, 66, 0
1, 51744, Note_on_c, 0, 64, 75
1, 51744, Note_on_c, 1, 43, 75
1, 51744, Note_on_c, 1, 31, 75
1, 51764, Note_on_c, 0, 64, 0
1, 51789, Note_on_c, 1, 43, 0
1, 51789, Note_on_c, 1, 31, 0
1, 51792, Note_on_c, 0, 83, 75
1, 51804, Note_on_c, 0, 83, 0
1, 51804, Note_on_c, 0, 79, 75
1, 51816, Note_on_c, 0, 79, 0
1, 51816, Note_on_c, 0, 78, 75
1, 51828, Note_on_c, 0, 78, 0
1, 51828, Note_on_c, 0, 76, 75
1, 51840, Note_on_c, 0, 76, 0
1, 51840, Note_on_c, 0, 81, 75
1, 51860, Note_on_c, 0, 81, 0
1, 51888, Note_on_c, 0, 79, 75
1, 51888, Note_on_c, 1, 62, 75
1, 51888, Note_on_c, 1, 54, 64
1, 51900, Note_on_c, 0, 79, 0
1, 51900, Note_on_c, 0, 78, 75
1, 51912, Note_on_c, 0, 78, 0
1, 51912, Note_on_c, 0, 76, 75
1, 51924, Note_on_c, 0, 76, 0
1, 51924, Note_on_c, 0, 74, 75
1, 51933, Note_on_c, 1, 54, 0
1, 51936, Note_on_c, 0, 74, 0
1, 51936, Note_on_c, 0, 76, 75
1, 51936, Note_on_c, 1, 55, 64
1, 51945, Note_on_c, 0, 76, 0
1, 51945, Note_on_c, 0, 78, 75
1, 51954, Note_on_c, 0, 78, 0
1, 51954, Note_on_c, 0, 76, 75
1, 51963, Note_on_c, 0, 76, 0
1, 51963, Note_on_c, 0, 78, 75
1, 51972, Note_on_c, 0, 78, 0
1, 51972, Note_on_c, 0, 76, 75
1, 51977, Note_on_c, 1, 62, 0
1, 51981, Note_on_c, 0, 76, 0
1, 51981, Note_on_c, 0, 78, 75
1, 51981, Note_on_c, 1, 55, 0
1, 51984, Note_on_c, 1, 61, 75
1, 51984, Note_on_c, 1, 57, 64
1, 51990, Note_on_c, 0, 78, 0
1, 51990, Note_on_c, 0, 76, 75
1, 51999, Note_on_c, 0, 76, 0
1, 51999, Note_on_c, 0, 78, 75
1, 52008, Note_on_c, 0, 78, 0
1, 52008, Note_on_c, 0, 76, 75
1, 52016, Note_on_c, 0, 76, 0
1, 52016, Note_on_c, 0, 74, 75
1, 52024, Note_on_c, 0, 74, 0
1, 52024, Note_on_c, 0, 76, 75
1, 52029, Note_on_c, 1, 61, 0
1, 52029, Note_on_c, 1, 57, 0
1, 52032, Note_on_c, 0, 76, 0
1, 52032, Note_on_c, 0, 74, 75
1, 52032, Note_on_c, 1, 62, 61
1, 52047, Note_on_c, 1, 62, 0
1, 52048, Note_on_c, 1, 66, 61
1, 52063, Note_on_c, 1, 66, 0
1, 52064, Note_on_c, 1, 69, 61
1, 52077, Note_on_c, 0, 74, 0
1, 52079, Note_on_c, 1, 69, 0
1, 52080, Note_on_c, 1, 62, 61
1, 52095, Note_on_c, 1, 62, 0
1, 52096, Note_on_c, 1, 66, 61
1, 52111, Note_on_c, 1, 66, 0
1, 52112, Note_on_c, 1, 69, 61
1, 52127, Note_on_c, 1, 69, 0
1, 52128, Note_on_c, 0, 81, 75
1, 52128, Note_on_c, 1, 61, 61
1, 52140, Note_on_c, 0, 81, 0
1, 52140, Note_on_c, 0, 79, 75
1, 52143, Note_on_c, 1, 61, 0
1, 52144, Note_on_c, 1, 64, 61
1, 52159, Note_on_c, 1, 64, 0
1, 52160, Note_on_c, 1, 69, 61
1, 52173, Note_on_c, 0, 79, 0
1, 52175, Note_on_c, 1, 69, 0
1, 52176, Note_on_c, 0, 79, 75
1, 52176, Note_on_c, 1, 61, 61
1, 52191, Note_on_c, 1, 61, 0
1, 52192, Note_on_c, 1, 64, 61
1, 52207, Note_on_c, 1, 64, 0
1, 52208, Note_on_c, 1, 69, 61
1, 52221, Note_on_c, 0, 79, 0
1, 52223, Note_on_c, 1, 69, 0
1, 52224, Note_on_c, 0, 78, 75
1, 52224, Note_on_c, 1, 62, 61
1, 52239, Note_on_c, 1, 62, 0
1, 52240, Note_on_c, 1, 66, 61
1, 52255, Note_on_c, 1, 66, 0
1, 52256, Note_on_c, 1, 69, 61
1, 52269, Note_on_c, 0, 78, 0
1, 52271, Note_on_c, 1, 69, 0
1, 52272, Note_on_c, 1, 62, 61
1, 52287, Note_on_c, 1, 62, 0
1, 52288, Note_on_c, 1, 66, 61
1, 52303, Note_on_c, 1, 66, 0
1, 52304, Note_on_c, 1, 69, 61
1, 52319, Note_on_c, 1, 69, 0
1, 52320, Note_on_c, 0, 78, 75
1, 52320, Note_on_c, 1, 64, 61
1, 52335, Note_on_c, 1, 64, 0
1, 52336, Note_on_c, 1, 67, 61
1, 52344, Note_on_c, 0, 78, 0
1, 52344, Note_on_c, 0, 76, 75
1, 52351, Note_on_c, 1, 67, 0
1, 52352, Note_on_c, 1, 69, 61
1, 52365, Note_on_c, 0, 76, 0
1, 52367, Note_on_c, 1, 69, 0
1, 52368, Note_on_c, 0, 76, 75
1, 52368, Note_on_c, 1, 64, 61
1, 52383, Note_on_c, 1, 64, 0
1, 52384, Note_on_c, 1, 67, 61
1, 52391, Note_on_c, 0, 76, 0
1, 52392, Note_on_c, 0, 73, 75
1, 52399, Note_on_c, 1, 67, 0
1, 52400, Note_on_c, 1, 69, 61
1, 52415, Note_on_c, 0, 73, 0
1, 52415, Note_on_c, 1, 69, 0
1, 52416, Note_on_c, 0, 74, 75
1, 52416, Note_on_c, 1, 62, 61
1, 52431, Note_on_c, 1, 62, 0
1, 52432, Note_on_c, 1, 66, 61
1, 52447, Note_on_c, 1, 66, 0
1, 52448, Note_on_c, 1, 69, 61
1, 52461, Note_on_c, 0, 74, 0
1, 52463, Note_on_c, 1, 69, 0
1, 52464, Note_on_c, 1, 62, 61
1, 52479, Note_on_c, 1, 62, 0
1, 52480, Note_on_c, 1, 66, 61
1, 52495, Note_on_c, 1, 66, 0
1, 52496, Note_on_c, 1, 69, 61
1, 52511, Note_on_c, 1, 69, 0
1, 52512, Note_on_c, 0, 79, 75
1, 52512, Note_on_c, 1, 61, 61
1, 52527, Note_on_c, 0, 79, 0
1, 52527, Note_on_c, 1, 61, 0
1, 52528, Note_on_c, 0, 81, 75
1, 52528, Note_on_c, 1, 64, 61
1, 52543, Note_on_c, 0, 81, 0
1, 52543, Note_on_c, 1, 64, 0
1, 52544, Note_on_c, 0, 79, 75
1, 52544, Note_on_c, 1, 69, 61
1, 52559, Note_on_c, 0, 79, 0
1, 52559, Note_on_c, 1, 69, 0
1, 52560, Note_on_c, 0, 83, 75
1, 52560, Note_on_c, 1, 61, 61
1, 52575, Note_on_c, 0, 83, 0
1, 52575, Note_on_c, 1, 61, 0
1, 52576, Note_on_c, 0, 81, 75
1, 52576, Note_on_c, 1, 64, 61
1, 52591, Note_on_c, 0, 81, 0
1, 52591, Note_on_c, 1, 64, 0
1, 52592, Note_on_c, 0, 79, 75
1, 52592, Note_on_c, 1, 69, 61
1, 52607, Note_on_c, 0, 79, 0
1, 52607, Note_on_c, 1, 69, 0
1, 52608, Note_on_c, 0, 78, 75
1, 52608, Note_on_c, 1, 62, 61
1, 52623, Note_on_c, 1, 62, 0
1, 52624, Note_on_c, 1, 66, 61
1, 52639, Note_on_c, 1, 66, 0
1, 52640, Note_on_c, 1, 69, 61
1, 52653, Note_on_c, 0, 78, 0
1, 52655, Note_on_c, 1, 69, 0
1, 52656, Note_on_c, 1, 62, 61
1, 52671, Note_on_c, 1, 62, 0
1, 52672, Note_on_c, 1, 66, 61
1, 52687, Note_on_c, 1, 66, 0
1, 52688, Note_on_c, 1, 69, 61
1, 52703, Note_on_c, 1, 69, 0
1, 52704, Note_on_c, 0, 79, 75
1, 52704, Note_on_c, 1, 64, 61
1, 52719, Note_on_c, 0, 79, 0
1, 52719, Note_on_c, 1, 64, 0
1, 52720, Note_on_c, 0, 78, 75
1, 52720, Note_on_c, 1, 67, 61
1, 52735, Note_on_c, 0, 78, 0
1, 52735, Note_on_c, 1, 67, 0
1, 52736, Note_on_c, 0, 76, 75
1, 52736, Note_on_c, 1, 69, 61
1, 52751, Note_on_c, 0, 76, 0
1, 52751, Note_on_c, 1, 69, 0
1, 52752, Note_on_c, 0, 74, 75
1, 52752, Note_on_c, 1, 64, 61
1, 52767, Note_on_c, 0, 74, 0
1, 52767, Note_on_c, 1, 64, 0
1, 52768, Note_on_c, 0, 76, 75
1, 52768, Note_on_c, 1, 67, 61
1, 52783, Note_on_c, 0, 76, 0
1, 52783, Note_on_c, 1, 67, 0
1, 52784, Note_on_c, 0, 73, 75
1, 52784, Note_on_c, 1, 69, 61
1, 52799, Note_on_c, 0, 73, 0
1, 52799, Note_on_c, 1, 69, 0
1, 52800, Note_on_c, 0, 74, 75
1, 52800, Note_on_c, 1, 62, 61
1, 52815, Note_on_c, 1, 62, 0
1, 52816, Note_on_c, 1, 66, 61
1, 52820, Note_on_c, 0, 74, 0
1, 52831, Note_on_c, 1, 66, 0
1, 52832, Note_on_c, 1, 69, 61
1, 52847, Note_on_c, 1, 69, 0
1, 52848, Note_on_c, 0, 74, 75
1, 52848, Note_on_c, 1, 62, 61
1, 52863, Note_on_c, 1, 62, 0
1, 52864, Note_on_c, 1, 66, 61
1, 52868, Note_on_c, 0, 74, 0
1, 52879, Note_on_c, 1, 66, 0
1, 52880, Note_on_c, 1, 69, 61
1, 52895, Note_on_c, 1, 69, 0
1, 52896, Note_on_c, 0, 76, 75
1, 52896, Note_on_c, 1, 61, 61
1, 52911, Note_on_c, 1, 61, 0
1, 52912, Note_on_c, 1, 64, 61
1, 52916, Note_on_c, 0, 76, 0
1, 52927, Note_on_c, 1, 64, 0
1, 52928, Note_on_c, 1, 69, 61
1, 52943, Note_on_c, 1, 69, 0
1, 52944, Note_on_c, 0, 76, 75
1, 52944, Note_on_c, 1, 61, 61
1, 52959, Note_on_c, 1, 61, 0
1, 52960, Note_on_c, 1, 64, 61
1, 52964, Note_on_c, 0, 76, 0
1, 52975, Note_on_c, 1, 64, 0
1, 52976, Note_on_c, 1, 69, 61
1, 52991, Note_on_c, 1, 69, 0
1, 52992, Note_on_c, 0, 78, 75
1, 52992, Note_on_c, 1, 62, 61
1, 53007, Note_on_c, 1, 62, 0
1, 53008, Note_on_c, 1, 66, 61
1, 53012, Note_on_c, 0, 78, 0
1, 53023, Note_on_c, 1, 66, 0
1, 53024, Note_on_c, 1, 69, 61
1, 53039, Note_on_c, 1, 69, 0
1, 53040, Note_on_c, 0, 78, 75
1, 53040, Note_on_c, 1, 62, 61
1, 53055, Note_on_c, 1, 62, 0
1, 53056, Note_on_c, 1, 66, 61
1, 53060, Note_on_c, 0, 78, 0
1, 53071, Note_on_c, 1, 66, 0
1, 53072, Note_on_c, 1, 69, 61
1, 53087, Note_on_c, 1, 69, 0
1, 53088, Note_on_c, 0, 81, 75
1, 53088, Note_on_c, 1, 57, 61
1, 53103, Note_on_c, 1, 57, 0
1, 53104, Note_on_c, 1, 64, 61
1, 53112, Note_on_c, 0, 81, 0
1, 53112, Note_on_c, 0, 79, 75
1, 53119, Note_on_c, 1, 64, 0
1, 53120, Note_on_c, 1, 69, 61
1, 53135, Note_on_c, 0, 79, 0
1, 53135, Note_on_c, 1, 69, 0
1, 53136, Note_on_c, 0, 76, 75
1, 53136, Note_on_c, 1, 57, 61
1, 53151, Note_on_c, 1, 57, 0
1, 53152, Note_on_c, 1, 64, 61
1, 53160, Note_on_c, 0, 76, 0
1, 53160, Note_on_c, 0, 73, 75
1, 53167, Note_on_c, 1, 64, 0
1, 53168, Note_on_c, 1, 69, 61
1, 53183, Note_on_c, 0, 73, 0
1, 53183, Note_on_c, 1, 69, 0
1, 53184, Note_on_c, 0, 73, 75
1, 53184, Note_on_c, 1, 62, 61
1, 53196, Note_on_c, 0, 73, 0
1, 53196, Note_on_c, 0, 74, 75
1, 53199, Note_on_c, 1, 62, 0
1, 53200, Note_on_c, 1, 66, 61
1, 53215, Note_on_c, 1, 66, 0
1, 53216, Note_on_c, 1, 69, 61
1, 53229, Note_on_c, 0, 74, 0
1, 53231, Note_on_c, 1, 69, 0
1, 53232, Note_on_c, 0, 73, 75
1, 53232, Note_on_c, 1, 62, 61
1, 53244, Note_on_c, 0, 73, 0
1, 53244, Note_on_c, 0, 74, 75
1, 53247, Note_on_c, 1, 62, 0
1, 53248, Note_on_c, 1, 66, 61
1, 53263, Note_on_c, 1, 66, 0
1, 53264, Note_on_c, 1, 69, 61
1, 53277, Note_on_c, 0, 74, 0
1, 53279, Note_on_c, 1, 69, 0
1, 53280, Note_on_c, 0, 75, 75
1, 53280, Note_on_c, 1, 61, 61
1, 53292, Note_on_c, 0, 75, 0
1, 53292, Note_on_c, 0, 76, 75
1, 53295, Note_on_c, 1, 61, 0
1, 53296, Note_on_c, 1, 64, 61
1, 53311, Note_on_c, 1, 64, 0
1, 53312, Note_on_c, 1, 69, 61
1, 53325, Note_on_c, 0, 76, 0
1, 53327, Note_on_c, 1, 69, 0
1, 53328, Note_on_c, 0, 75, 75
1, 53328, Note_on_c, 1, 61, 61
1, 53340, Note_on_c, 0, 75, 0
1, 53340, Note_on_c, 0, 76, 75
1, 53343, Note_on_c, 1, 61, 0
1, 53344, Note_on_c, 1, 64, 61
1, 53359, Note_on_c, 1, 64, 0
1, 53360, Note_on_c, 1, 69, 61
1, 53373, Note_on_c, 0, 76, 0
1, 53375, Note_on_c, 1, 69, 0
1, 53376, Note_on_c, 0, 77, 75
1, 53376, Note_on_c, 1, 62, 61
1, 53388, Note_on_c, 0, 77, 0
1, 53388, Note_on_c, 0, 78, 75
1, 53391, Note_on_c, 1, 62, 0
1, 53392, Note_on_c, 1, 66, 61
1, 53407, Note_on_c, 1, 66, 0
1, 53408, Note_on_c, 1, 69, 61
1, 53421, Note_on_c, 0, 78, 0
1, 53423, Note_on_c, 1, 69, 0
1, 53424, Note_on_c, 0, 77, 75
1, 53424, Note_on_c, 1, 62, 61
1, 53436, Note_on_c, 0, 77, 0
1, 53436, Note_on_c, 0, 78, 75
1, 53439, Note_on_c, 1, 62, 0
1, 53440, Note_on_c, 1, 66, 61
1, 53455, Note_on_c, 1, 66, 0
1, 53456, Note_on_c, 1, 69, 61
1, 53469, Note_on_c, 0, 78, 0
1, 53471, Note_on_c, 1, 69, 0
1, 53472, Note_on_c, 0, 79, 75
1, 53472, Note_on_c, 1, 57, 61
1, 53481, Note_on_c, 0, 79, 0
1, 53481, Note_on_c, 0, 81, 75
1, 53487, Note_on_c, 1, 57, 0
1, 53488, Note_on_c, 1, 64, 61
1, 53490, Note_on_c, 0, 81, 0
1, 53490, Note_on_c, 0, 79, 75
1, 53499, Note_on_c, 0, 79, 0
1, 53499, Note_on_c, 0, 81, 75
1, 53503, Note_on_c, 1, 64, 0
1, 53504, Note_on_c, 1, 69, 61
1, 53508, Note_on_c, 0, 81, 0
1, 53508, Note_on_c, 0, 79, 75
1, 53517, Note_on_c, 0, 79, 0
1, 53517, Note_on_c, 0, 81, 75
1, 53519, Note_on_c, 1, 69, 0
1, 53520, Note_on_c, 1, 57, 61
1, 53526, Note_on_c, 0, 81, 0
1, 53526, Note_on_c, 0, 79, 75
1, 53535, Note_on_c, 0, 79, 0
1, 53535, Note_on_c, 0, 81, 75
1, 53535, Note_on_c, 1, 57, 0
1, 53536, Note_on_c, 1, 64, 61
1, 53544, Note_on_c, 0, 81, 0
1, 53544, Note_on_c, 0, 79, 75
1, 53551, Note_on_c, 1, 64, 0
1, 53552, Note_on_c, 0, 79, 0
1, 53552, Note_on_c, 0, 78, 75
1, 53552, Note_on_c, 1, 69, 61
1, 53560, Note_on_c, 0, 78, 0
1, 53560, Note_on_c, 0, 79, 75
1, 53567, Note_on_c, 1, 69, 0
1, 53568, Note_on_c, 0, 79, 0
1, 53568, Note_on_c, 0, 77, 75
1, 53568, Note_on_c, 1, 62, 61
1, 53580, Note_on_c, 0, 77, 0
1, 53580, Note_on_c, 0, 78, 75
1, 53583, Note_on_c, 1, 62, 0
1, 53584, Note_on_c, 1, 66, 61
1, 53599, Note_on_c, 1, 66, 0
1, 53600, Note_on_c, 1, 69, 61
1, 53613, Note_on_c, 0, 78, 0
1, 53615, Note_on_c, 1, 69, 0
1, 53616, Note_on_c, 0, 77, 75
1, 53616, Note_on_c, 1, 62, 61
1, 53628, Note_on_c, 0, 77, 0
1, 53628, Note_on_c, 0, 78, 75
1, 53631, Note_on_c, 1, 62, 0
1, 53632, Note_on_c, 1, 66, 61
1, 53647, Note_on_c, 1, 66, 0
1, 53648, Note_on_c, 1, 69, 61
1, 53661, Note_on_c, 0, 78, 0
1, 53663, Note_on_c, 1, 69, 0
1, 53664, Note_on_c, 0, 79, 75
1, 53664, Note_on_c, 1, 61, 61
1, 53673, Note_on_c, 0, 79, 0
1, 53673, Note_on_c, 0, 81, 75
1, 53679, Note_on_c, 1, 61, 0
1, 53680, Note_on_c, 1, 64, 61
1, 53682, Note_on_c, 0, 81, 0
1, 53682, Note_on_c, 0, 79, 75
1, 53691, Note_on_c, 0, 79, 0
1, 53691, Note_on_c, 0, 81, 75
1, 53695, Note_on_c, 1, 64, 0
1, 53696, Note_on_c, 1, 69, 61
1, 53700, Note_on_c, 0, 81, 0
1, 53700, Note_on_c, 0, 79, 75
1, 53709, Note_on_c, 0, 79, 0
1, 53709, Note_on_c, 0, 81, 75
1, 53711, Note_on_c, 1, 69, 0
1, 53712, Note_on_c, 1, 61, 61
1, 53718, Note_on_c, 0, 81, 0
1, 53718, Note_on_c, 0, 79, 75
1, 53727, Note_on_c, 0, 79, 0
1, 53727, Note_on_c, 0, 81, 75
1, 53727, Note_on_c, 1, 61, 0
1, 53728, Note_on_c, 1, 64, 61
1, 53736, Note_on_c, 0, 81, 0
1, 53736, Note_on_c, 0, 79, 75
1, 53743, Note_on_c, 1, 64, 0
1, 53744, Note_on_c, 0, 79, 0
1, 53744, Note_on_c, 0, 81, 75
1, 53744, Note_on_c, 1, 69, 61
1, 53752, Note_on_c, 0, 81, 0
1, 53752, Note_on_c, 0, 79, 75
1, 53759, Note_on_c, 1, 69, 0
1, 53760, Note_on_c, 0, 79, 0
1, 53760, Note_on_c, 0, 77, 75
1, 53760, Note_on_c, 1, 62, 75
1, 53775, Note_on_c, 0, 77, 0
1, 53776, Note_on_c, 0, 78, 75
1, 53791, Note_on_c, 0, 78, 0
1, 53792, Note_on_c, 0, 81, 75
1, 53805, Note_on_c, 1, 62, 0
1, 53807, Note_on_c, 0, 81, 0
1, 53808, Note_on_c, 0, 77, 75
1, 53823, Note_on_c, 0, 77, 0
1, 53824, Note_on_c, 0, 78, 75
1, 53839, Note_on_c, 0, 78, 0
1, 53840, Note_on_c, 0, 81, 75
1, 53855, Note_on_c, 0, 81, 0
1, 53856, Note_on_c, 0, 73, 75
1, 53856, Note_on_c, 1, 66, 75
1, 53871, Note_on_c, 0, 73, 0
1, 53872, Note_on_c, 0, 74, 75
1, 53887, Note_on_c, 0, 74, 0
1, 53888, Note_on_c, 0, 78, 75
1, 53901, Note_on_c, 1, 66, 0
1, 53903, Note_on_c, 0, 78, 0
1, 53904, Note_on_c, 0, 73, 75
1, 53919, Note_on_c, 0, 73, 0
1, 53920, Note_on_c, 0, 74, 75
1, 53935, Note_on_c, 0, 74, 0
1, 53936, Note_on_c, 0, 78, 75
1, 53951, Note_on_c, 0, 78, 0
1, 53952, Note_on_c, 0, 70, 75
1, 53952, Note_on_c, 1, 67, 75
1, 53967, Note_on_c, 0, 70, 0
1, 53968, Note_on_c, 0, 71, 75
1, 53983, Note_on_c, 0, 71, 0
1, 53984, Note_on_c, 0, 74, 75
1, 53997, Note_on_c, 1, 67, 0
1, 53999, Note_on_c, 0, 74, 0
1, 54000, Note_on_c, 0, 70, 75
1, 54015, Note_on_c, 0, 70, 0
1, 54016, Note_on_c, 0, 71, 75
1, 54031, Note_on_c, 0, 71, 0
1, 54032, Note_on_c, 0, 74, 75
1, 54047, Note_on_c, 0, 74, 0
1, 54048, Note_on_c, 0, 75, 75
1, 54048, Note_on_c, 1, 55, 75
1, 54063, Note_on_c, 0, 75, 0
1, 54064, Note_on_c, 0, 76, 75
1, 54079, Note_on_c, 0, 76, 0
1, 54080, Note_on_c, 0, 79, 75
1, 54093, Note_on_c, 1, 55, 0
1, 54095, Note_on_c, 0, 79, 0
1, 54096, Note_on_c, 0, 75, 75
1, 54111, Note_on_c, 0, 75, 0
1, 54112, Note_on_c, 0, 76, 75
1, 54127, Note_on_c, 0, 76, 0
1, 54128, Note_on_c, 0, 79, 75
1, 54143, Note_on_c, 0, 79, 0
1, 54144, Note_on_c, 0, 69, 75
1, 54144, Note_on_c, 1, 54, 61
1, 54159, Note_on_c, 1, 54, 0
1, 54160, Note_on_c, 1, 57, 61
1, 54175, Note_on_c, 1, 57, 0
1, 54176, Note_on_c, 1, 62, 61
1, 54191, Note_on_c, 1, 62, 0
1, 54192, Note_on_c, 1, 54, 61
1, 54207, Note_on_c, 1, 54, 0
1, 54208, Note_on_c, 1, 57, 61
1, 54223, Note_on_c, 1, 57, 0
1, 54224, Note_on_c, 1, 62, 61
1, 54233, Note_on_c, 0, 69, 0
1, 54239, Note_on_c, 1, 62, 0
1, 54240, Note_on_c, 0, 76, 75
1, 54240, Note_on_c, 1, 55, 61
1, 54249, Note_on_c, 0, 76, 0
1, 54249, Note_on_c, 0, 78, 75
1, 54255, Note_on_c, 1, 55, 0
1, 54256, Note_on_c, 1, 59, 61
1, 54258, Note_on_c, 0, 78, 0
1, 54258, Note_on_c, 0, 76, 75
1, 54267, Note_on_c, 0, 76, 0
1, 54267, Note_on_c, 0, 78, 75
1, 54271, Note_on_c, 1, 59, 0
1, 54272, Note_on_c, 1, 64, 61
1, 54276, Note_on_c, 0, 78, 0
1, 54276, Note_on_c, 0, 76, 75
1, 54285, Note_on_c, 0, 76, 0
1, 54285, Note_on_c, 0, 78, 75
1, 54287, Note_on_c, 1, 64, 0
1, 54288, Note_on_c, 1, 57, 61
1, 54294, Note_on_c, 0, 78, 0
1, 54294, Note_on_c, 0, 76, 75
1, 54303, Note_on_c, 0, 76, 0
1, 54303, Note_on_c, 0, 78, 75
1, 54303, Note_on_c, 1, 57, 0
1, 54304, Note_on_c, 1, 64, 61
1, 54312, Note_on_c, 0, 78, 0
1, 54312, Note_on_c, 0, 76, 75
1, 54319, Note_on_c, 1, 64, 0
1, 54320, Note_on_c, 0, 76, 0
1, 54320, Note_on_c, 0, 78, 75
1, 54320, Note_on_c, 1, 67, 61
1, 54328, Note_on_c, 0, 78, 0
1, 54328, Note_on_c, 0, 76, 75
1, 54335, Note_on_c, 1, 67, 0
1, 54336, Note_on_c, 0, 76, 0
1, 54336, Note_on_c, 0, 73, 75
1, 54336, Note_on_c, 1, 66, 75
1, 54336, Note_on_c, 1, 62, 75
1, 54351, Note_on_c, 0, 73, 0
1, 54352, Note_on_c, 0, 74, 75
1, 54367, Note_on_c, 0, 74, 0
1, 54368, Note_on_c, 0, 78, 75
1, 54381, Note_on_c, 1, 66, 0
1, 54381, Note_on_c, 1, 62, 0
1, 54383, Note_on_c, 0, 78, 0
1, 54384, Note_on_c, 0, 73, 75
1, 54399, Note_on_c, 0, 73, 0
1, 54400, Note_on_c, 0, 74, 75
1, 54415, Note_on_c, 0, 74, 0
1, 54416, Note_on_c, 0, 78, 75
1, 54431, Note_on_c, 0, 78, 0
1, 54432, Note_on_c, 0, 70, 75
1, 54432, Note_on_c, 1, 55, 75
1, 54447, Note_on_c, 0, 70, 0
1, 54448, Note_on_c, 0, 71, 75
1, 54463, Note_on_c, 0, 71, 0
1, 54464, Note_on_c, 0, 74, 75
1, 54477, Note_on_c, 1, 55, 0
1, 54479, Note_on_c, 0, 74, 0
1, 54480, Note_on_c, 0, 70, 75
1, 54495, Note_on_c, 0, 70, 0
1, 54496, Note_on_c, 0, 71, 75
1, 54511, Note_on_c, 0, 71, 0
1, 54512, Note_on_c, 0, 74, 75
1, 54527, Note_on_c, 0, 74, 0
1, 54528, Note_on_c, 0, 66, 75
1, 54528, Note_on_c, 1, 55, 75
1, 54528, Note_on_c, 1, 43, 75
1, 54543, Note_on_c, 0, 66, 0
1, 54544, Note_on_c, 0, 67, 75
1, 54559, Note_on_c, 0, 67, 0
1, 54560, Note_on_c, 0, 71, 75
1, 54573, Note_on_c, 1, 55, 0
1, 54573, Note_on_c, 1, 43, 0
1, 54575, Note_on_c, 0, 71, 0
1, 54576, Note_on_c, 0, 66, 75
1, 54591, Note_on_c, 0, 66, 0
1, 54592, Note_on_c, 0, 67, 75
1, 54607, Note_on_c, 0, 67, 0
1, 54608, Note_on_c, 0, 71, 75
1, 54623, Note_on_c, 0, 71, 0
1, 54624, Note_on_c, 0, 63, 75
1, 54624, Note_on_c, 1, 43, 75
1, 54624, Note_on_c, 1, 31, 75
1, 54639, Note_on_c, 0, 63, 0
1, 54640, Note_on_c, 0, 64, 75
1, 54655, Note_on_c, 0, 64, 0
1, 54656, Note_on_c, 0, 67, 75
1, 54669, Note_on_c, 1, 43, 0
1, 54669, Note_on_c, 1, 31, 0
1, 54671, Note_on_c, 0, 67, 0
1, 54672, Note_on_c, 0, 63, 75
1, 54687, Note_on_c, 0, 63, 0
1, 54688, Note_on_c, 0, 64, 75
1, 54703, Note_on_c, 0, 64, 0
1, 54704, Note_on_c, 0, 67, 75
1, 54719, Note_on_c, 0, 67, 0
1, 54720, Note_on_c, 0, 57, 75
1, 54720, Note_on_c, 1, 42, 61
1, 54735, Note_on_c, 1, 42, 0
1, 54736, Note_on_c, 1, 45, 61
1, 54751, Note_on_c, 1, 45, 0
1, 54752, Note_on_c, 1, 50, 61
1, 54767, Note_on_c, 1, 50, 0
1, 54768, Note_on_c, 1, 42, 61
1, 54783, Note_on_c, 1, 42, 0
1, 54784, Note_on_c, 1, 45, 61
1, 54799, Note_on_c, 1, 45, 0
1, 54800, Note_on_c, 1, 50, 61
1, 54809, Note_on_c, 0, 57, 0
1, 54815, Note_on_c, 1, 50, 0
1, 54816, Note_on_c, 0, 64, 75
1, 54816, Note_on_c, 1, 43, 61
1, 54825, Note_on_c, 0, 64, 0
1, 54825, Note_on_c, 0, 66, 75
1, 54831, Note_on_c, 1, 43, 0
1, 54832, Note_on_c, 1, 47, 61
1, 54834, Note_on_c, 0, 66, 0
1, 54834, Note_on_c, 0, 64, 75
1, 54843, Note_on_c, 0, 64, 0
1, 54843, Note_on_c, 0, 66, 75
1, 54847, Note_on_c, 1, 47, 0
1, 54848, Note_on_c, 1, 52, 61
1, 54852, Note_on_c, 0, 66, 0
1, 54852, Note_on_c, 0, 64, 75
1, 54861, Note_on_c, 0, 64, 0
1, 54861, Note_on_c, 0, 66, 75
1, 54863, Note_on_c, 1, 52, 0
1, 54864, Note_on_c, 1, 45, 61
1, 54870, Note_on_c, 0, 66, 0
1, 54870, Note_on_c, 0, 64, 75
1, 54879, Note_on_c, 0, 64, 0
1, 54879, Note_on_c, 0, 66, 75
1, 54879, Note_on_c, 1, 45, 0
1, 54880, Note_on_c, 1, 47, 61
1, 54888, Note_on_c, 0, 66, 0
1, 54888, Note_on_c, 0, 64, 75
1, 54895, Note_on_c, 1, 47, 0
1, 54896, Note_on_c, 0, 64, 0
1, 54896, Note_on_c, 0, 62, 75
1, 54896, Note_on_c, 1, 52, 61
1, 54904, Note_on_c, 0, 62, 0
1, 54904, Note_on_c, 0, 64, 75
1, 54911, Note_on_c, 1, 52, 0
1, 54912, Note_on_c, 0, 64, 0
1, 54912, Note_on_c, 0, 62, 75
1, 54912, Note_on_c, 1, 50, 53
1, 54927, Note_on_c, 1, 50, 0
1, 54928, Note_on_c, 1, 54, 53
1, 54943, Note_on_c, 1, 54, 0
1, 54944, Note_on_c, 1, 57, 53
1, 54957, Note_on_c, 0, 62, 0
1, 54959, Note_on_c, 1, 57, 0
1, 54960, Note_on_c, 1, 50, 53
1, 54975, Note_on_c, 1, 50, 0
1, 54976, Note_on_c, 1, 54, 53
1, 54991, Note_on_c, 1, 54, 0
1, 54992, Note_on_c, 1, 57, 53
1, 55007, Note_on_c, 1, 57, 0
1, 55008, Note_on_c, 0, 69, 69
1, 55008, Note_on_c, 1, 45, 53
1, 55023, Note_on_c, 1, 45, 0
1, 55024, Note_on_c, 1, 52, 53
1, 55031, Note_on_c, 0, 69, 0
1, 55032, Note_on_c, 0, 67, 69
1, 55039, Note_on_c, 1, 52, 0
1, 55040, Note_on_c, 1, 57, 53
1, 55055, Note_on_c, 0, 67, 0
1, 55055, Note_on_c, 1, 57, 0
1, 55056, Note_on_c, 0, 64, 69
1, 55056, Note_on_c, 1, 45, 53
1, 55071, Note_on_c, 1, 45, 0
1, 55072, Note_on_c, 1, 52, 53
1, 55087, Note_on_c, 1, 52, 0
1, 55088, Note_on_c, 1, 57, 53
1, 55090, Note_on_c, 0, 64, 0
1, 55092, Note_on_c, 0, 61, 69
1, 55103, Note_on_c, 1, 57, 0
1, 55104, Note_on_c, 0, 61, 0
1, 55104, Note_on_c, 0, 62, 69
1, 55104, Note_on_c, 1, 50, 53
1, 55119, Note_on_c, 1, 50, 0
1, 55120, Note_on_c, 1, 54, 53
1, 55135, Note_on_c, 1, 54, 0
1, 55136, Note_on_c, 1, 57, 53
1, 55149, Note_on_c, 0, 62, 0
1, 55151, Note_on_c, 1, 57, 0
1, 55152, Note_on_c, 1, 50, 53
1, 55167, Note_on_c, 1, 50, 0
1, 55168, Note_on_c, 1, 54, 53
1, 55183, Note_on_c, 1, 54, 0
1, 55184, Note_on_c, 1, 57, 53
1, 55199, Note_on_c, 1, 57, 0
1, 55200, Note_on_c, 0, 81, 61
1, 55200, Note_on_c, 1, 45, 53
1, 55215, Note_on_c, 1, 45, 0
1, 55216, Note_on_c, 1, 52, 53
1, 55223, Note_on_c, 0, 81, 0
1, 55224, Note_on_c, 0, 79, 61
1, 55231, Note_on_c, 1, 52, 0
1, 55232, Note_on_c, 1, 57, 53
1, 55247, Note_on_c, 0, 79, 0
1, 55247, Note_on_c, 1, 57, 0
1, 55248, Note_on_c, 0, 76, 61
1, 55248, Note_on_c, 1, 45, 53
1, 55263, Note_on_c, 1, 45, 0
1, 55264, Note_on_c, 1, 52, 53
1, 55279, Note_on_c, 1, 52, 0
1, 55280, Note_on_c, 1, 57, 53
1, 55282, Note_on_c, 0, 76, 0
1, 55284, Note_on_c, 0, 73, 61
1, 55295, Note_on_c, 1, 57, 0
1, 55296, Note_on_c, 0, 73, 0
1, 55296, Note_on_c, 0, 74, 61
1, 55296, Note_on_c, 1, 50, 53
1, 55311, Note_on_c, 1, 50, 0
1, 55312, Note_on_c, 1, 54, 53
1, 55327, Note_on_c, 1, 54, 0
1, 55328, Note_on_c, 1, 57, 53
1, 55343, Note_on_c, 1, 57, 0
1, 55344, Note_on_c, 1, 50, 53
1, 55359, Note_on_c, 1, 50, 0
1, 55360, Note_on_c, 1, 54, 53
1, 55375, Note_on_c, 1, 54, 0
1, 55376, Note_on_c, 1, 57, 53
1, 55385, Note_on_c, 0, 74, 0
1, 55391, Note_on_c, 1, 57, 0
1, 55392, Note_on_c, 0, 38, 75
1, 55392, Note_on_c, 1, 50, 53
1, 55407, Note_on_c, 1, 50, 0
1, 55408, Note_on_c, 1, 54, 53
1, 55423, Note_on_c, 1, 54, 0
1, 55424, Note_on_c, 1, 57, 53
1, 55439, Note_on_c, 1, 57, 0
1, 55440, Note_on_c, 1, 50, 53
1, 55455, Note_on_c, 1, 50, 0
1, 55456, Note_on_c, 1, 54, 53
1, 55459, Note_on_c, 0, 38, 0
1, 55464, Note_on_c, 0, 38, 75
1, 55471, Note_on_c, 1, 54, 0
1, 55472, Note_on_c, 1, 57, 53
1, 55487, Note_on_c, 0, 38, 0
1, 55487, Note_on_c, 1, 57, 0
1, 55488, Note_on_c, 0, 38, 75
1, 55488, Note_on_c, 1, 50, 53
1, 55621, Note_on_c, 0, 38, 0
1, 55621, Note_on_c, 1, 50, 0
1, 55668, Note_on_c, 0, 64, 75
1, 55680, Note_on_c, 0, 64, 0
1, 55680, Note_on_c, 0, 73, 75
1, 55728, Note_on_c, 1, 45, 76
1, 55773, Note_on_c, 1, 45, 0
1, 55776, Note_on_c, 1, 57, 78
1, 55810, Note_on_c, 0, 73, 0
1, 55812, Note_on_c, 0, 64, 80
1, 55821, Note_on_c, 1, 57, 0
1, 55824, Note_on_c, 0, 64, 0
1, 55824, Note_on_c, 0, 74, 80
1, 55824, Note_on_c, 1, 56, 80
1, 55858, Note_on_c, 0, 74, 0
1, 55860, Note_on_c, 0, 64, 82
1, 55869, Note_on_c, 1, 56, 0
1, 55872, Note_on_c, 0, 64, 0
1, 55872, Note_on_c, 0, 73, 82
1, 55872, Note_on_c, 1, 57, 82
1, 55906, Note_on_c, 0, 73, 0
1, 55908, Note_on_c, 0, 64, 84
1, 55917, Note_on_c, 1, 57, 0
1, 55920, Note_on_c, 0, 64, 0
1, 55920, Note_on_c, 0, 71, 83
1, 55920, Note_on_c, 1, 62, 84
1, 55954, Note_on_c, 0, 71, 0
1, 55956, Note_on_c, 0, 64, 81
1, 55965, Note_on_c, 1, 62, 0
1, 55968, Note_on_c, 0, 64, 0
1, 55968, Note_on_c, 0, 69, 80
1, 55968, Note_on_c, 1, 61, 81
1, 56002, Note_on_c, 0, 69, 0
1, 56004, Note_on_c, 0, 64, 78
1, 56013, Note_on_c, 1, 61, 0
1, 56016, Note_on_c, 0, 64, 0
1, 56016, Note_on_c, 0, 71, 77
1, 56016, Note_on_c, 1, 56, 78
1, 56050, Note_on_c, 0, 71, 0
1, 56052, Note_on_c, 0, 64, 75
1, 56061, Note_on_c, 1, 56, 0
1, 56064, Note_on_c, 0, 64, 0
1, 56064, Note_on_c, 0, 73, 75
1, 56112, Note_on_c, 1, 45, 76
1, 56157, Note_on_c, 1, 45, 0
1, 56160, Note_on_c, 1, 57, 78
1, 56194, Note_on_c, 0, 73, 0
1, 56196, Note_on_c, 0, 64, 80
1, 56205, Note_on_c, 1, 57, 0
1, 56208, Note_on_c, 0, 64, 0
1, 56208, Note_on_c, 0, 74, 80
1, 56208, Note_on_c, 1, 56, 80
1, 56242, Note_on_c, 0, 74, 0
1, 56244, Note_on_c, 0, 64, 82
1, 56253, Note_on_c, 1, 56, 0
1, 56256, Note_on_c, 0, 64, 0
1, 56256, Note_on_c, 0, 73, 82
1, 56256, Note_on_c, 1, 57, 82
1, 56290, Note_on_c, 0, 73, 0
1, 56292, Note_on_c, 0, 64, 84
1, 56301, Note_on_c, 1, 57, 0
1, 56304, Note_on_c, 0, 64, 0
1, 56304, Note_on_c, 0, 71, 83
1, 56304, Note_on_c, 1, 62, 84
1, 56338, Note_on_c, 0, 71, 0
1, 56340, Note_on_c, 0, 64, 81
1, 56349, Note_on_c, 1, 62, 0
1, 56352, Note_on_c, 0, 64, 0
1, 56352, Note_on_c, 0, 69, 80
1, 56352, Note_on_c, 1, 61, 81
1, 56386, Note_on_c, 0, 69, 0
1, 56388, Note_on_c, 0, 64, 78
1, 56397, Note_on_c, 1, 61, 0
1, 56400, Note_on_c, 0, 64, 0
1, 56400, Note_on_c, 0, 71, 77
1, 56400, Note_on_c, 1, 56, 78
1, 56434, Note_on_c, 0, 71, 0
1, 56436, Note_on_c, 0, 64, 75
1, 56445, Note_on_c, 1, 56, 0
1, 56448, Note_on_c, 0, 64, 0
1, 56448, Note_on_c, 0, 73, 75
1, 56448, Note_on_c, 1, 57, 75
1, 56482, Note_on_c, 0, 73, 0
1, 56484, Note_on_c, 0, 64, 77
1, 56493, Note_on_c, 1, 57, 0
1, 56496, Note_on_c, 0, 64, 0
1, 56496, Note_on_c, 0, 74, 78
1, 56496, Note_on_c, 1, 59, 78
1, 56530, Note_on_c, 0, 74, 0
1, 56532, Note_on_c, 0, 64, 80
1, 56541, Note_on_c, 1, 59, 0
1, 56544, Note_on_c, 0, 64, 0
1, 56544, Note_on_c, 0, 76, 81
1, 56544, Note_on_c, 1, 61, 81
1, 56564, Note_on_c, 0, 76, 0
1, 56589, Note_on_c, 1, 61, 0
1, 56640, Note_on_c, 0, 73, 75
1, 56640, Note_on_c, 1, 57, 75
1, 56655, Note_on_c, 0, 73, 0
1, 56656, Note_on_c, 0, 69, 75
1, 56671, Note_on_c, 0, 69, 0
1, 56672, Note_on_c, 0, 64, 76
1, 56685, Note_on_c, 1, 57, 0
1, 56687, Note_on_c, 0, 64, 0
1, 56688, Note_on_c, 0, 74, 77
1, 56688, Note_on_c, 1, 59, 78
1, 56703, Note_on_c, 0, 74, 0
1, 56704, Note_on_c, 0, 71, 78
1, 56719, Note_on_c, 0, 71, 0
1, 56720, Note_on_c, 0, 64, 78
1, 56733, Note_on_c, 1, 59, 0
1, 56735, Note_on_c, 0, 64, 0
1, 56736, Note_on_c, 0, 76, 79
1, 56736, Note_on_c, 1, 61, 81
1, 56756, Note_on_c, 0, 76, 0
1, 56781, Note_on_c, 1, 61, 0
1, 56832, Note_on_c, 0, 83, 75
1, 56844, Note_on_c, 0, 83, 0
1, 56844, Note_on_c, 0, 81, 75
1, 56856, Note_on_c, 0, 81, 0
1, 56856, Note_on_c, 0, 80, 75
1, 56868, Note_on_c, 0, 80, 0
1, 56868, Note_on_c, 0, 81, 75
1, 56880, Note_on_c, 1, 52, 69
1, 56880, Note_on_c, 1, 49, 69
1, 56925, Note_on_c, 1, 52, 0
1, 56925, Note_on_c, 1, 49, 0
1, 56928, Note_on_c, 1, 52, 69
1, 56928, Note_on_c, 1, 49, 69
1, 56965, Note_on_c, 0, 81, 0
1, 56973, Note_on_c, 1, 52, 0
1, 56973, Note_on_c, 1, 49, 0
1, 56976, Note_on_c, 0, 69, 75
1, 56976, Note_on_c, 1, 52, 69
1, 56976, Note_on_c, 1, 49, 69
1, 57021, Note_on_c, 0, 69, 0
1, 57021, Note_on_c, 1, 52, 0
1, 57021, Note_on_c, 1, 49, 0
1, 57024, Note_on_c, 0, 70, 75
1, 57072, Note_on_c, 0, 70, 0
1, 57072, Note_on_c, 0, 71, 75
1, 57072, Note_on_c, 1, 54, 69
1, 57072, Note_on_c, 1, 50, 69
1, 57117, Note_on_c, 1, 54, 0
1, 57117, Note_on_c, 1, 50, 0
1, 57120, Note_on_c, 1, 54, 69
1, 57120, Note_on_c, 1, 50, 69
1, 57165, Note_on_c, 1, 54, 0
1, 57165, Note_on_c, 1, 50, 0
1, 57168, Note_on_c, 1, 54, 69
1, 57168, Note_on_c, 1, 50, 69
1, 57205, Note_on_c, 0, 71, 0
1, 57213, Note_on_c, 1, 54, 0
1, 57213, Note_on_c, 1, 50, 0
1, 57216, Note_on_c, 0, 86, 75
1, 57264, Note_on_c, 1, 56, 69
1, 57264, Note_on_c, 1, 52, 69
1, 57309, Note_on_c, 1, 56, 0
1, 57309, Note_on_c, 1, 52, 0
1, 57312, Note_on_c, 1, 56, 69
1, 57312, Note_on_c, 1, 52, 69
1, 57357, Note_on_c, 1, 56, 0
1, 57357, Note_on_c, 1, 52, 0
1, 57360, Note_on_c, 0, 86, 0
1, 57360, Note_on_c, 0, 74, 75
1, 57360, Note_on_c, 1, 56, 69
1, 57360, Note_on_c, 1, 52, 69
1, 57405, Note_on_c, 0, 74, 0
1, 57405, Note_on_c, 1, 56, 0
1, 57405, Note_on_c, 1, 52, 0
1, 57408, Note_on_c, 0, 73, 75
1, 57408, Note_on_c, 1, 57, 75
1, 57420, Note_on_c, 0, 73, 0
1, 57420, Note_on_c, 0, 71, 75
1, 57432, Note_on_c, 0, 71, 0
1, 57432, Note_on_c, 0, 69, 75
1, 57432, Note_on_c, 1, 57, 0
1, 57432, Note_on_c, 1, 45, 75
1, 57444, Note_on_c, 0, 69, 0
1, 57444, Note_on_c, 0, 71, 75
1, 57455, Note_on_c, 1, 45, 0
1, 57456, Note_on_c, 0, 71, 0
1, 57456, Note_on_c, 0, 69, 75
1, 57456, Note_on_c, 1, 57, 75
1, 57466, Note_on_c, 1, 57, 0
1, 57476, Note_on_c, 0, 69, 0
1, 57480, Note_on_c, 1, 57, 75
1, 57490, Note_on_c, 1, 57, 0
1, 57504, Note_on_c, 1, 57, 75
1, 57514, Note_on_c, 1, 57, 0
1, 57528, Note_on_c, 1, 57, 75
1, 57538, Note_on_c, 1, 57, 0
1, 57552, Note_on_c, 1, 57, 75
1, 57562, Note_on_c, 1, 57, 0
1, 57576, Note_on_c, 1, 57, 75
1, 57586, Note_on_c, 1, 57, 0
1, 57600, Note_on_c, 0, 81, 75
1, 57600, Note_on_c, 1, 57, 75
1, 57624, Note_on_c, 0, 81, 0
1, 57624, Note_on_c, 0, 69, 75
1, 57647, Note_on_c, 0, 69, 0
1, 57648, Note_on_c, 0, 81, 75
1, 57658, Note_on_c, 0, 81, 0
1, 57672, Note_on_c, 0, 81, 75
1, 57682, Note_on_c, 0, 81, 0
1, 57689, Note_on_c, 1, 57, 0
1, 57696, Note_on_c, 0, 81, 75
1, 57706, Note_on_c, 0, 81, 0
1, 57720, Note_on_c, 0, 81, 75
1, 57730, Note_on_c, 0, 81, 0
1, 57744, Note_on_c, 0, 81, 75
1, 57754, Note_on_c, 0, 81, 0
1, 57768, Note_on_c, 0, 81, 75
1, 57778, Note_on_c, 0, 81, 0
1, 57792, Note_on_c, 0, 81, 75
1, 57792, Note_on_c, 1, 60, 75
1, 57815, Note_on_c, 0, 81, 0
1, 57815, Note_on_c, 1, 60, 0
1, 57816, Note_on_c, 0, 69, 75
1, 57816, Note_on_c, 1, 48, 75
1, 57839, Note_on_c, 0, 69, 0
1, 57839, Note_on_c, 1, 48, 0
1, 57840, Note_on_c, 0, 79, 75
1, 57840, Note_on_c, 1, 59, 75
1, 57863, Note_on_c, 0, 79, 0
1, 57863, Note_on_c, 1, 59, 0
1, 57864, Note_on_c, 0, 67, 75
1, 57864, Note_on_c, 1, 47, 75
1, 57887, Note_on_c, 0, 67, 0
1, 57887, Note_on_c, 1, 47, 0
1, 57888, Note_on_c, 0, 78, 75
1, 57888, Note_on_c, 1, 57, 75
1, 57911, Note_on_c, 0, 78, 0
1, 57911, Note_on_c, 1, 57, 0
1, 57912, Note_on_c, 0, 66, 75
1, 57912, Note_on_c, 1, 45, 75
1, 57935, Note_on_c, 0, 66, 0
1, 57935, Note_on_c, 1, 45, 0
1, 57936, Note_on_c, 0, 76, 75
1, 57936, Note_on_c, 1, 58, 75
1, 57959, Note_on_c, 0, 76, 0
1, 57959, Note_on_c, 1, 58, 0
1, 57960, Note_on_c, 0, 64, 75
1, 57960, Note_on_c, 1, 46, 75
1, 57983, Note_on_c, 0, 64, 0
1, 57983, Note_on_c, 1, 46, 0
1, 57984, Note_on_c, 0, 75, 75
1, 57984, Note_on_c, 1, 59, 75
1, 58008, Note_on_c, 1, 59, 0
1, 58008, Note_on_c, 1, 47, 75
1, 58031, Note_on_c, 1, 47, 0
1, 58032, Note_on_c, 1, 59, 75
1, 58042, Note_on_c, 1, 59, 0
1, 58056, Note_on_c, 1, 59, 75
1, 58066, Note_on_c, 1, 59, 0
1, 58073, Note_on_c, 0, 75, 0
1, 58080, Note_on_c, 1, 59, 75
1, 58090, Note_on_c, 1, 59, 0
1, 58104, Note_on_c, 1, 59, 75
1, 58114, Note_on_c, 1, 59, 0
1, 58128, Note_on_c, 0, 66, 75
1, 58128, Note_on_c, 0, 63, 75
1, 58128, Note_on_c, 1, 59, 75
1, 58138, Note_on_c, 1, 59, 0
1, 58148, Note_on_c, 0, 66, 0
1, 58148, Note_on_c, 0, 63, 0
1, 58152, Note_on_c, 1, 59, 75
1, 58162, Note_on_c, 1, 59, 0
1, 58176, Note_on_c, 0, 67, 75
1, 58176, Note_on_c, 0, 64, 75
1, 58176, Note_on_c, 1, 59, 75
1, 58186, Note_on_c, 1, 59, 0
1, 58196, Note_on_c, 0, 67, 0
1, 58196, Note_on_c, 0, 64, 0
1, 58200, Note_on_c, 1, 59, 75
1, 58210, Note_on_c, 1, 59, 0
1, 58224, Note_on_c, 0, 66, 75
1, 58224, Note_on_c, 0, 63, 75
1, 58224, Note_on_c, 1, 59, 75
1, 58234, Note_on_c, 1, 59, 0
1, 58244, Note_on_c, 0, 66, 0
1, 58244, Note_on_c, 0, 63, 0
1, 58248, Note_on_c, 1, 59, 75
1, 58258, Note_on_c, 1, 59, 0
1, 58272, Note_on_c, 0, 67, 75
1, 58272, Note_on_c, 0, 64, 75
1, 58272, Note_on_c, 1, 59, 75
1, 58282, Note_on_c, 1, 59, 0
1, 58292, Note_on_c, 0, 67, 0
1, 58292, Note_on_c, 0, 64, 0
1, 58296, Note_on_c, 1, 59, 75
1, 58306, Note_on_c, 1, 59, 0
1, 58320, Note_on_c, 0, 71, 75
1, 58320, Note_on_c, 0, 66, 64
1, 58320, Note_on_c, 1, 59, 75
1, 58330, Note_on_c, 1, 59, 0
1, 58332, Note_on_c, 0, 71, 0
1, 58332, Note_on_c, 0, 69, 75
1, 58340, Note_on_c, 0, 66, 0
1, 58344, Note_on_c, 0, 69, 0
1, 58344, Note_on_c, 0, 67, 75
1, 58344, Note_on_c, 1, 59, 75
1, 58354, Note_on_c, 1, 59, 0
1, 58356, Note_on_c, 0, 67, 0
1, 58356, Note_on_c, 0, 69, 75
1, 58368, Note_on_c, 0, 69, 0
1, 58368, Note_on_c, 0, 71, 75
1, 58368, Note_on_c, 0, 67, 75
1, 58368, Note_on_c, 1, 59, 75
1, 58392, Note_on_c, 1, 59, 0
1, 58392, Note_on_c, 1, 47, 75
1, 58415, Note_on_c, 1, 47, 0
1, 58416, Note_on_c, 1, 59, 75
1, 58426, Note_on_c, 1, 59, 0
1, 58440, Note_on_c, 1, 59, 75
1, 58450, Note_on_c, 1, 59, 0
1, 58457, Note_on_c, 0, 71, 0
1, 58457, Note_on_c, 0, 67, 0
1, 58464, Note_on_c, 1, 59, 75
1, 58474, Note_on_c, 1, 59, 0
1, 58488, Note_on_c, 1, 59, 75
1, 58498, Note_on_c, 1, 59, 0
1, 58512, Note_on_c, 0, 83, 75
1, 58512, Note_on_c, 0, 79, 64
1, 58512, Note_on_c, 1, 59, 75
1, 58522, Note_on_c, 1, 59, 0
1, 58532, Note_on_c, 0, 83, 0
1, 58535, Note_on_c, 0, 79, 0
1, 58536, Note_on_c, 0, 71, 64
1, 58536, Note_on_c, 1, 59, 75
1, 58546, Note_on_c, 1, 59, 0
1, 58559, Note_on_c, 0, 71, 0
1, 58560, Note_on_c, 0, 81, 75
1, 58560, Note_on_c, 0, 78, 64
1, 58560, Note_on_c, 1, 59, 75
1, 58570, Note_on_c, 1, 59, 0
1, 58580, Note_on_c, 0, 81, 0
1, 58583, Note_on_c, 0, 78, 0
1, 58584, Note_on_c, 0, 71, 64
1, 58584, Note_on_c, 1, 59, 75
1, 58594, Note_on_c, 1, 59, 0
1, 58607, Note_on_c, 0, 71, 0
1, 58608, Note_on_c, 0, 79, 75
1, 58608, Note_on_c, 0, 76, 64
1, 58608, Note_on_c, 1, 59, 75
1, 58618, Note_on_c, 1, 59, 0
1, 58628, Note_on_c, 0, 79, 0
1, 58631, Note_on_c, 0, 76, 0
1, 58632, Note_on_c, 0, 71, 64
1, 58632, Note_on_c, 1, 59, 75
1, 58642, Note_on_c, 1, 59, 0
1, 58655, Note_on_c, 0, 71, 0
1, 58656, Note_on_c, 0, 78, 75
1, 58656, Note_on_c, 0, 75, 64
1, 58656, Note_on_c, 1, 59, 75
1, 58666, Note_on_c, 1, 59, 0
1, 58676, Note_on_c, 0, 78, 0
1, 58679, Note_on_c, 0, 75, 0
1, 58680, Note_on_c, 0, 71, 64
1, 58680, Note_on_c, 1, 59, 75
1, 58690, Note_on_c, 1, 59, 0
1, 58703, Note_on_c, 0, 71, 0
1, 58704, Note_on_c, 0, 76, 75
1, 58704, Note_on_c, 0, 73, 64
1, 58704, Note_on_c, 1, 59, 75
1, 58714, Note_on_c, 1, 59, 0
1, 58724, Note_on_c, 0, 76, 0
1, 58727, Note_on_c, 0, 73, 0
1, 58728, Note_on_c, 0, 70, 64
1, 58728, Note_on_c, 1, 59, 75
1, 58738, Note_on_c, 1, 59, 0
1, 58751, Note_on_c, 0, 70, 0
1, 58752, Note_on_c, 0, 75, 75
1, 58752, Note_on_c, 0, 71, 75
1, 58752, Note_on_c, 1, 59, 75
1, 58776, Note_on_c, 1, 59, 0
1, 58776, Note_on_c, 1, 47, 75
1, 58799, Note_on_c, 1, 47, 0
1, 58800, Note_on_c, 1, 59, 75
1, 58810, Note_on_c, 1, 59, 0
1, 58824, Note_on_c, 1, 59, 75
1, 58834, Note_on_c, 1, 59, 0
1, 58841, Note_on_c, 0, 75, 0
1, 58841, Note_on_c, 0, 71, 0
1, 58848, Note_on_c, 1, 59, 75
1, 58858, Note_on_c, 1, 59, 0
1, 58872, Note_on_c, 1, 59, 75
1, 58882, Note_on_c, 1, 59, 0
1, 58896, Note_on_c, 0, 66, 75
1, 58896, Note_on_c, 0, 63, 75
1, 58896, Note_on_c, 1, 59, 75
1, 58906, Note_on_c, 1, 59, 0
1, 58916, Note_on_c, 0, 66, 0
1, 58916, Note_on_c, 0, 63, 0
1, 58920, Note_on_c, 1, 59, 75
1, 58930, Note_on_c, 1, 59, 0
1, 58944, Note_on_c, 0, 67, 75
1, 58944, Note_on_c, 0, 64, 75
1, 58944, Note_on_c, 1, 59, 75
1, 58954, Note_on_c, 1, 59, 0
1, 58964, Note_on_c, 0, 67, 0
1, 58964, Note_on_c, 0, 64, 0
1, 58968, Note_on_c, 1, 59, 75
1, 58978, Note_on_c, 1, 59, 0
1, 58992, Note_on_c, 0, 66, 75
1, 58992, Note_on_c, 0, 63, 75
1, 58992, Note_on_c, 1, 59, 75
1, 59002, Note_on_c, 1, 59, 0
1, 59012, Note_on_c, 0, 66, 0
1, 59012, Note_on_c, 0, 63, 0
1, 59016, Note_on_c, 1, 59, 75
1, 59026, Note_on_c, 1, 59, 0
1, 59040, Note_on_c, 0, 67, 75
1, 59040, Note_on_c, 0, 64, 75
1, 59040, Note_on_c, 1, 59, 75
1, 59050, Note_on_c, 1, 59, 0
1, 59060, Note_on_c, 0, 67, 0
1, 59060, Note_on_c, 0, 64, 0
1, 59064, Note_on_c, 1, 59, 75
1, 59074, Note_on_c, 1, 59, 0
1, 59088, Note_on_c, 0, 71, 75
1, 59088, Note_on_c, 0, 66, 64
1, 59088, Note_on_c, 1, 59, 75
1, 59098, Note_on_c, 1, 59, 0
1, 59100, Note_on_c, 0, 71, 0
1, 59100, Note_on_c, 0, 69, 75
1, 59108, Note_on_c, 0, 66, 0
1, 59112, Note_on_c, 0, 69, 0
1, 59112, Note_on_c, 0, 67, 75
1, 59112, Note_on_c, 1, 59, 75
1, 59122, Note_on_c, 1, 59, 0
1, 59124, Note_on_c, 0, 67, 0
1, 59124, Note_on_c, 0, 69, 75
1, 59136, Note_on_c, 0, 69, 0
1, 59136, Note_on_c, 0, 71, 75
1, 59136, Note_on_c, 0, 67, 75
1, 59136, Note_on_c, 1, 59, 75
1, 59160, Note_on_c, 1, 59, 0
1, 59160, Note_on_c, 1, 47, 75
1, 59183, Note_on_c, 1, 47, 0
1, 59184, Note_on_c, 1, 59, 75
1, 59194, Note_on_c, 1, 59, 0
1, 59208, Note_on_c, 1, 59, 75
1, 59218, Note_on_c, 1, 59, 0
1, 59225, Note_on_c, 0, 71, 0
1, 59225, Note_on_c, 0, 67, 0
1, 59232, Note_on_c, 1, 59, 75
1, 59242, Note_on_c, 1, 59, 0
1, 59256, Note_on_c, 1, 59, 75
1, 59266, Note_on_c, 1, 59, 0
1, 59280, Note_on_c, 0, 83, 75
1, 59280, Note_on_c, 0, 79, 64
1, 59280, Note_on_c, 1, 59, 75
1, 59290, Note_on_c, 1, 59, 0
1, 59300, Note_on_c, 0, 83, 0
1, 59303, Note_on_c, 0, 79, 0
1, 59304, Note_on_c, 0, 71, 64
1, 59304, Note_on_c, 1, 59, 75
1, 59314, Note_on_c, 1, 59, 0
1, 59327, Note_on_c, 0, 71, 0
1, 59328, Note_on_c, 0, 81, 75
1, 59328, Note_on_c, 0, 78, 64
1, 59328, Note_on_c, 1, 59, 75
1, 59338, Note_on_c, 1, 59, 0
1, 59348, Note_on_c, 0, 81, 0
1, 59351, Note_on_c, 0, 78, 0
1, 59352, Note_on_c, 0, 71, 64
1, 59352, Note_on_c, 1, 59, 75
1, 59362, Note_on_c, 1, 59, 0
1, 59375, Note_on_c, 0, 71, 0
1, 59376, Note_on_c, 0, 79, 75
1, 59376, Note_on_c, 0, 76, 64
1, 59376, Note_on_c, 1, 59, 75
1, 59386, Note_on_c, 1, 59, 0
1, 59396, Note_on_c, 0, 79, 0
1, 59399, Note_on_c, 0, 76, 0
1, 59400, Note_on_c, 0, 71, 64
1, 59400, Note_on_c, 1, 59, 75
1, 59410, Note_on_c, 1, 59, 0
1, 59423, Note_on_c, 0, 71, 0
1, 59424, Note_on_c, 0, 78, 75
1, 59424, Note_on_c, 0, 75, 64
1, 59424, Note_on_c, 1, 59, 75
1, 59434, Note_on_c, 1, 59, 0
1, 59444, Note_on_c, 0, 78, 0
1, 59447, Note_on_c, 0, 75, 0
1, 59448, Note_on_c, 0, 71, 64
1, 59448, Note_on_c, 1, 59, 75
1, 59458, Note_on_c, 1, 59, 0
1, 59471, Note_on_c, 0, 71, 0
1, 59472, Note_on_c, 0, 76, 75
1, 59472, Note_on_c, 0, 73, 64
1, 59472, Note_on_c, 1, 59, 75
1, 59482, Note_on_c, 1, 59, 0
1, 59492, Note_on_c, 0, 76, 0
1, 59495, Note_on_c, 0, 73, 0
1, 59496, Note_on_c, 0, 70, 64
1, 59496, Note_on_c, 1, 59, 75
1, 59506, Note_on_c, 1, 59, 0
1, 59519, Note_on_c, 0, 70, 0
1, 59520, Note_on_c, 0, 75, 75
1, 59520, Note_on_c, 0, 71, 75
1, 59520, Note_on_c, 1, 59, 75
1, 59544, Note_on_c, 1, 59, 0
1, 59544, Note_on_c, 1, 47, 75
1, 59567, Note_on_c, 1, 47, 0
1, 59568, Note_on_c, 1, 59, 75
1, 59578, Note_on_c, 1, 59, 0
1, 59592, Note_on_c, 1, 59, 75
1, 59602, Note_on_c, 1, 59, 0
1, 59609, Note_on_c, 0, 75, 0
1, 59609, Note_on_c, 0, 71, 0
1, 59616, Note_on_c, 1, 59, 75
1, 59626, Note_on_c, 1, 59, 0
1, 59640, Note_on_c, 1, 59, 75
1, 59650, Note_on_c, 1, 59, 0
1, 59664, Note_on_c, 1, 59, 75
1, 59674, Note_on_c, 1, 59, 0
1, 59688, Note_on_c, 1, 59, 75
1, 59698, Note_on_c, 1, 59, 0
1, 59712, Note_on_c, 0, 72, 75
1, 59712, Note_on_c, 1, 59, 75
1, 59735, Note_on_c, 0, 72, 0
1, 59736, Note_on_c, 0, 60, 75
1, 59759, Note_on_c, 0, 60, 0
1, 59760, Note_on_c, 0, 72, 75
1, 59770, Note_on_c, 0, 72, 0
1, 59784, Note_on_c, 0, 72, 75
1, 59801, Note_on_c, 1, 59, 0
1, 59808, Note_on_c, 0, 72, 0
1, 59808, Note_on_c, 0, 75, 75
1, 59808, Note_on_c, 1, 60, 69
1, 59808, Note_on_c, 1, 57, 69
1, 59831, Note_on_c, 0, 75, 0
1, 59832, Note_on_c, 0, 63, 75
1, 59855, Note_on_c, 0, 63, 0
1, 59856, Note_on_c, 0, 75, 75
1, 59866, Note_on_c, 0, 75, 0
1, 59880, Note_on_c, 0, 75, 75
1, 59897, Note_on_c, 1, 60, 0
1, 59897, Note_on_c, 1, 57, 0
1, 59904, Note_on_c, 0, 75, 0
1, 59904, Note_on_c, 0, 76, 75
1, 59904, Note_on_c, 1, 59, 69
1, 59904, Note_on_c, 1, 55, 69
1, 59927, Note_on_c, 0, 76, 0
1, 59928, Note_on_c, 0, 64, 75
1, 59951, Note_on_c, 0, 64, 0
1, 59952, Note_on_c, 0, 76, 75
1, 59962, Note_on_c, 0, 76, 0
1, 59976, Note_on_c, 0, 76, 75
1, 59993, Note_on_c, 1, 59, 0
1, 59993, Note_on_c, 1, 55, 0
1, 60000, Note_on_c, 0, 76, 0
1, 60000, Note_on_c, 0, 78, 75
1, 60000, Note_on_c, 1, 59, 69
1, 60000, Note_on_c, 1, 54, 69
1, 60000, Note_on_c, 1, 51, 69
1, 60023, Note_on_c, 0, 78, 0
1, 60024, Note_on_c, 0, 66, 75
1, 60047, Note_on_c, 0, 66, 0
1, 60048, Note_on_c, 0, 78, 76
1, 60058, Note_on_c, 0, 78, 0
1, 60072, Note_on_c, 0, 78, 76
1, 60089, Note_on_c, 1, 59, 0
1, 60089, Note_on_c, 1, 54, 0
1, 60089, Note_on_c, 1, 51, 0
1, 60096, Note_on_c, 0, 78, 0
1, 60096, Note_on_c, 0, 79, 77
1, 60096, Note_on_c, 1, 59, 72
1, 60096, Note_on_c, 1, 55, 72
1, 60096, Note_on_c, 1, 52, 72
1, 60119, Note_on_c, 0, 79, 0
1, 60120, Note_on_c, 0, 67, 78
1, 60143, Note_on_c, 0, 67, 0
1, 60144, Note_on_c, 0, 79, 78
1, 60154, Note_on_c, 0, 79, 0
1, 60168, Note_on_c, 0, 79, 79
1, 60185, Note_on_c, 1, 59, 0
1, 60185, Note_on_c, 1, 55, 0
1, 60185, Note_on_c, 1, 52, 0
1, 60192, Note_on_c, 0, 79, 0
1, 60192, Note_on_c, 0, 82, 80
1, 60192, Note_on_c, 1, 52, 76
1, 60192, Note_on_c, 1, 49, 76
1, 60215, Note_on_c, 0, 82, 0
1, 60216, Note_on_c, 0, 70, 80
1, 60239, Note_on_c, 0, 70, 0
1, 60240, Note_on_c, 0, 82, 81
1, 60250, Note_on_c, 0, 82, 0
1, 60264, Note_on_c, 0, 82, 82
1, 60281, Note_on_c, 1, 52, 0
1, 60281, Note_on_c, 1, 49, 0
1, 60288, Note_on_c, 0, 82, 0
1, 60288, Note_on_c, 0, 83, 82
1, 60288, Note_on_c, 1, 54, 79
1, 60288, Note_on_c, 1, 50, 79
1, 60288, Note_on_c, 1, 47, 79
1, 60311, Note_on_c, 0, 83, 0
1, 60312, Note_on_c, 0, 71, 83
1, 60335, Note_on_c, 0, 71, 0
1, 60336, Note_on_c, 0, 83, 84
1, 60346, Note_on_c, 0, 83, 0
1, 60360, Note_on_c, 0, 83, 84
1, 60377, Note_on_c, 1, 54, 0
1, 60377, Note_on_c, 1, 50, 0
1, 60377, Note_on_c, 1, 47, 0
1, 60384, Note_on_c, 0, 83, 0
1, 60384, Note_on_c, 0, 85, 85
1, 60384, Note_on_c, 1, 54, 83
1, 60384, Note_on_c, 1, 49, 83
1, 60384, Note_on_c, 1, 46, 83
1, 60407, Note_on_c, 0, 85, 0
1, 60408, Note_on_c, 0, 73, 86
1, 60431, Note_on_c, 0, 73, 0
1, 60432, Note_on_c, 0, 85, 86
1, 60442, Note_on_c, 0, 85, 0
1, 60456, Note_on_c, 0, 85, 87
1, 60473, Note_on_c, 1, 54, 0
1, 60473, Note_on_c, 1, 49, 0
1, 60473, Note_on_c, 1, 46, 0
1, 60480, Note_on_c, 0, 85, 0
1, 60480, Note_on_c, 0, 86, 88
1, 60480, Note_on_c, 1, 54, 86
1, 60480, Note_on_c, 1, 50, 86
1, 60480, Note_on_c, 1, 47, 86
1, 60503, Note_on_c, 0, 86, 0
1, 60504, Note_on_c, 0, 74, 88
1, 60527, Note_on_c, 0, 74, 0
1, 60528, Note_on_c, 0, 83, 89
1, 60528, Note_on_c, 0, 86, 90
1, 60551, Note_on_c, 0, 83, 0
1, 60551, Note_on_c, 0, 86, 0
1, 60552, Note_on_c, 0, 83, 90
1, 60552, Note_on_c, 0, 86, 90
1, 60569, Note_on_c, 1, 54, 0
1, 60569, Note_on_c, 1, 50, 0
1, 60569, Note_on_c, 1, 47, 0
1, 60575, Note_on_c, 0, 83, 0
1, 60575, Note_on_c, 0, 86, 0
1, 60576, Note_on_c, 0, 83, 90
1, 60576, Note_on_c, 0, 86, 90
1, 60576, Note_on_c, 1, 55, 90
1, 60576, Note_on_c, 1, 43, 90
1, 60599, Note_on_c, 0, 83, 0
1, 60600, Note_on_c, 0, 74, 90
1, 60621, Note_on_c, 0, 86, 0
1, 60623, Note_on_c, 0, 74, 0
1, 60624, Note_on_c, 0, 83, 90
1, 60624, Note_on_c, 0, 86, 90
1, 60647, Note_on_c, 0, 83, 0
1, 60647, Note_on_c, 0, 86, 0
1, 60648, Note_on_c, 0, 83, 90
1, 60648, Note_on_c, 0, 86, 90
1, 60665, Note_on_c, 1, 55, 0
1, 60665, Note_on_c, 1, 43, 0
1, 60671, Note_on_c, 0, 83, 0
1, 60671, Note_on_c, 0, 86, 0
1, 60672, Note_on_c, 0, 83, 90
1, 60672, Note_on_c, 0, 86, 90
1, 60672, Note_on_c, 1, 54, 90
1, 60672, Note_on_c, 1, 42, 90
1, 60695, Note_on_c, 0, 83, 0
1, 60696, Note_on_c, 0, 71, 90
1, 60717, Note_on_c, 0, 86, 0
1, 60719, Note_on_c, 0, 71, 0
1, 60720, Note_on_c, 0, 83, 90
1, 60720, Note_on_c, 0, 86, 90
1, 60743, Note_on_c, 0, 83, 0
1, 60743, Note_on_c, 0, 86, 0
1, 60744, Note_on_c, 0, 83, 90
1, 60744, Note_on_c, 0, 86, 90
1, 60761, Note_on_c, 1, 54, 0
1, 60761, Note_on_c, 1, 42, 0
1, 60767, Note_on_c, 0, 83, 0
1, 60767, Note_on_c, 0, 86, 0
1, 60768, Note_on_c, 0, 83, 90
1, 60768, Note_on_c, 0, 86, 90
1, 60768, Note_on_c, 1, 53, 90
1, 60768, Note_on_c, 1, 41, 90
1, 60791, Note_on_c, 0, 83, 0
1, 60792, Note_on_c, 0, 71, 90
1, 60813, Note_on_c, 0, 86, 0
1, 60815, Note_on_c, 0, 71, 0
1, 60816, Note_on_c, 0, 83, 90
1, 60816, Note_on_c, 0, 86, 90
1, 60839, Note_on_c, 0, 83, 0
1, 60839, Note_on_c, 0, 86, 0
1, 60840, Note_on_c, 0, 83, 90
1, 60840, Note_on_c, 0, 86, 90
1, 60857, Note_on_c, 1, 53, 0
1, 60857, Note_on_c, 1, 41, 0
1, 60863, Note_on_c, 0, 83, 0
1, 60863, Note_on_c, 0, 86, 0
1, 60864, Note_on_c, 0, 82, 90
1, 60864, Note_on_c, 1, 54, 90
1, 60864, Note_on_c, 1, 42, 90
1, 60879, Note_on_c, 0, 82, 0
1, 60880, Note_on_c, 0, 83, 90
1, 60895, Note_on_c, 0, 83, 0
1, 60896, Note_on_c, 0, 86, 90
1, 60911, Note_on_c, 0, 86, 0
1, 60912, Note_on_c, 0, 82, 90
1, 60927, Note_on_c, 0, 82, 0
1, 60928, Note_on_c, 0, 83, 90
1, 60943, Note_on_c, 0, 83, 0
1, 60944, Note_on_c, 0, 86, 90
1, 60959, Note_on_c, 0, 86, 0
1, 60960, Note_on_c, 0, 77, 90
1, 60975, Note_on_c, 0, 77, 0
1, 60976, Note_on_c, 0, 78, 90
1, 60991, Note_on_c, 0, 78, 0
1, 60992, Note_on_c, 0, 83, 90
1, 61007, Note_on_c, 0, 83, 0
1, 61008, Note_on_c, 0, 77, 90
1, 61023, Note_on_c, 0, 77, 0
1, 61024, Note_on_c, 0, 78, 90
1, 61039, Note_on_c, 0, 78, 0
1, 61040, Note_on_c, 0, 83, 90
1, 61055, Note_on_c, 0, 83, 0
1, 61056, Note_on_c, 0, 73, 90
1, 61071, Note_on_c, 0, 73, 0
1, 61072, Note_on_c, 0, 74, 89
1, 61087, Note_on_c, 0, 74, 0
1, 61088, Note_on_c, 0, 78, 88
1, 61103, Note_on_c, 0, 78, 0
1, 61104, Note_on_c, 0, 73, 88
1, 61119, Note_on_c, 0, 73, 0
1, 61120, Note_on_c, 0, 74, 87
1, 61135, Note_on_c, 0, 74, 0
1, 61136, Note_on_c, 0, 78, 86
1, 61151, Note_on_c, 0, 78, 0
1, 61152, Note_on_c, 0, 70, 86
1, 61167, Note_on_c, 0, 70, 0
1, 61168, Note_on_c, 0, 71, 85
1, 61183, Note_on_c, 0, 71, 0
1, 61184, Note_on_c, 0, 74, 85
1, 61199, Note_on_c, 0, 74, 0
1, 61200, Note_on_c, 0, 70, 84
1, 61215, Note_on_c, 0, 70, 0
1, 61216, Note_on_c, 0, 71, 83
1, 61231, Note_on_c, 0, 71, 0
1, 61232, Note_on_c, 0, 74, 83
1, 61233, Note_on_c, 1, 54, 0
1, 61233, Note_on_c, 1, 42, 0
1, 61247, Note_on_c, 0, 74, 0
1, 61248, Note_on_c, 0, 65, 82
1, 61248, Note_on_c, 1, 55, 75
1, 61272, Note_on_c, 1, 55, 0
1, 61272, Note_on_c, 1, 43, 75
1, 61295, Note_on_c, 1, 43, 0
1, 61296, Note_on_c, 1, 55, 75
1, 61306, Note_on_c, 1, 55, 0
1, 61320, Note_on_c, 1, 55, 75
1, 61330, Note_on_c, 1, 55, 0
1, 61344, Note_on_c, 1, 55, 75
1, 61367, Note_on_c, 0, 65, 0
1, 61368, Note_on_c, 0, 70, 75
1, 61389, Note_on_c, 1, 55, 0
1, 61391, Note_on_c, 0, 70, 0
1, 61392, Note_on_c, 0, 71, 75
1, 61415, Note_on_c, 0, 71, 0
1, 61416, Note_on_c, 0, 74, 75
1, 61439, Note_on_c, 0, 74, 0
1, 61440, Note_on_c, 0, 65, 75
1, 61440, Note_on_c, 1, 55, 75
1, 61464, Note_on_c, 1, 55, 0
1, 61464, Note_on_c, 1, 43, 75
1, 61487, Note_on_c, 1, 43, 0
1, 61488, Note_on_c, 1, 55, 75
1, 61498, Note_on_c, 1, 55, 0
1, 61512, Note_on_c, 1, 55, 75
1, 61522, Note_on_c, 1, 55, 0
1, 61536, Note_on_c, 1, 55, 75
1, 61559, Note_on_c, 0, 65, 0
1, 61560, Note_on_c, 0, 70, 75
1, 61581, Note_on_c, 1, 55, 0
1, 61583, Note_on_c, 0, 70, 0
1, 61584, Note_on_c, 0, 71, 75
1, 61607, Note_on_c, 0, 71, 0
1, 61608, Note_on_c, 0, 74, 75
1, 61631, Note_on_c, 0, 74, 0
1, 61632, Note_on_c, 0, 64, 75
1, 61632, Note_on_c, 1, 54, 75
1, 61656, Note_on_c, 1, 54, 0
1, 61656, Note_on_c, 1, 42, 75
1, 61679, Note_on_c, 1, 42, 0
1, 61680, Note_on_c, 1, 54, 75
1, 61690, Note_on_c, 1, 54, 0
1, 61704, Note_on_c, 1, 54, 75
1, 61714, Note_on_c, 1, 54, 0
1, 61728, Note_on_c, 1, 54, 75
1, 61751, Note_on_c, 0, 64, 0
1, 61752, Note_on_c, 0, 73, 75
1, 61773, Note_on_c, 1, 54, 0
1, 61775, Note_on_c, 0, 73, 0
1, 61776, Note_on_c, 0, 70, 75
1, 61799, Note_on_c, 0, 70, 0
1, 61800, Note_on_c, 0, 64, 75
1, 61823, Note_on_c, 0, 64, 0
1, 61824, Note_on_c, 0, 62, 75
1, 61824, Note_on_c, 1, 59, 75
1, 61848, Note_on_c, 1, 59, 0
1, 61848, Note_on_c, 1, 47, 75
1, 61871, Note_on_c, 1, 47, 0
1, 61872, Note_on_c, 1, 59, 75
1, 61882, Note_on_c, 1, 59, 0
1, 61896, Note_on_c, 1, 59, 75
1, 61906, Note_on_c, 1, 59, 0
1, 61920, Note_on_c, 1, 59, 75
1, 61943, Note_on_c, 0, 62, 0
1, 61944, Note_on_c, 0, 78, 75
1, 61965, Note_on_c, 1, 59, 0
1, 61967, Note_on_c, 0, 78, 0
1, 61968, Note_on_c, 0, 74, 75
1, 61991, Note_on_c, 0, 74, 0
1, 61992, Note_on_c, 0, 71, 75
1, 62015, Note_on_c, 0, 71, 0
1, 62016, Note_on_c, 0, 71, 75
1, 62016, Note_on_c, 1, 61, 75
1, 62040, Note_on_c, 1, 61, 0
1, 62040, Note_on_c, 1, 49, 75
1, 62063, Note_on_c, 1, 49, 0
1, 62064, Note_on_c, 1, 61, 75
1, 62074, Note_on_c, 1, 61, 0
1, 62088, Note_on_c, 1, 61, 75
1, 62098, Note_on_c, 1, 61, 0
1, 62112, Note_on_c, 0, 71, 0
1, 62112, Note_on_c, 0, 70, 75
1, 62112, Note_on_c, 1, 61, 75
1, 62135, Note_on_c, 0, 70, 0
1, 62136, Note_on_c, 0, 78, 75
1, 62157, Note_on_c, 1, 61, 0
1, 62159, Note_on_c, 0, 78, 0
1, 62160, Note_on_c, 0, 73, 75
1, 62183, Note_on_c, 0, 73, 0
1, 62184, Note_on_c, 0, 70, 75
1, 62207, Note_on_c, 0, 70, 0
1, 62208, Note_on_c, 0, 73, 75
1, 62208, Note_on_c, 1, 62, 75
1, 62232, Note_on_c, 1, 62, 0
1, 62232, Note_on_c, 1, 50, 75
1, 62255, Note_on_c, 1, 50, 0
1, 62256, Note_on_c, 1, 62, 75
1, 62266, Note_on_c, 1, 62, 0
1, 62280, Note_on_c, 1, 62, 75
1, 62290, Note_on_c, 1, 62, 0
1, 62304, Note_on_c, 0, 73, 0
1, 62304, Note_on_c, 0, 71, 75
1, 62304, Note_on_c, 1, 62, 75
1, 62327, Note_on_c, 0, 71, 0
1, 62328, Note_on_c, 0, 78, 75
1, 62349, Note_on_c, 1, 62, 0
1, 62351, Note_on_c, 0, 78, 0
1, 62352, Note_on_c, 0, 71, 75
1, 62375, Note_on_c, 0, 71, 0
1, 62376, Note_on_c, 0, 69, 75
1, 62399, Note_on_c, 0, 69, 0
1, 62400, Note_on_c, 0, 69, 75
1, 62400, Note_on_c, 1, 64, 75
1, 62424, Note_on_c, 1, 64, 0
1, 62424, Note_on_c, 1, 52, 75
1, 62447, Note_on_c, 1, 52, 0
1, 62448, Note_on_c, 1, 64, 75
1, 62458, Note_on_c, 1, 64, 0
1, 62472, Note_on_c, 1, 64, 75
1, 62482, Note_on_c, 1, 64, 0
1, 62496, Note_on_c, 0, 69, 0
1, 62496, Note_on_c, 0, 67, 75
1, 62496, Note_on_c, 1, 64, 75
1, 62519, Note_on_c, 0, 67, 0
1, 62520, Note_on_c, 0, 83, 75
1, 62541, Note_on_c, 1, 64, 0
1, 62543, Note_on_c, 0, 83, 0
1, 62544, Note_on_c, 0, 79, 75
1, 62567, Note_on_c, 0, 79, 0
1, 62568, Note_on_c, 0, 76, 75
1, 62591, Note_on_c, 0, 76, 0
1, 62592, Note_on_c, 0, 74, 75
1, 62592, Note_on_c, 1, 57, 75
1, 62616, Note_on_c, 1, 57, 0
1, 62616, Note_on_c, 1, 45, 75
1, 62639, Note_on_c, 1, 45, 0
1, 62640, Note_on_c, 1, 57, 75
1, 62650, Note_on_c, 1, 57, 0
1, 62664, Note_on_c, 1, 57, 75
1, 62674, Note_on_c, 1, 57, 0
1, 62688, Note_on_c, 0, 74, 0
1, 62688, Note_on_c, 0, 73, 75
1, 62688, Note_on_c, 1, 57, 75
1, 62711, Note_on_c, 0, 73, 0
1, 62712, Note_on_c, 0, 76, 75
1, 62733, Note_on_c, 1, 57, 0
1, 62735, Note_on_c, 0, 76, 0
1, 62736, Note_on_c, 0, 73, 75
1, 62759, Note_on_c, 0, 73, 0
1, 62760, Note_on_c, 0, 69, 75
1, 62783, Note_on_c, 0, 69, 0
1, 62784, Note_on_c, 0, 67, 75
1, 62784, Note_on_c, 1, 62, 75
1, 62808, Note_on_c, 1, 62, 0
1, 62808, Note_on_c, 1, 50, 75
1, 62831, Note_on_c, 1, 50, 0
1, 62832, Note_on_c, 1, 62, 75
1, 62842, Note_on_c, 1, 62, 0
1, 62856, Note_on_c, 1, 62, 75
1, 62866, Note_on_c, 1, 62, 0
1, 62880, Note_on_c, 0, 67, 0
1, 62880, Note_on_c, 0, 66, 75
1, 62880, Note_on_c, 1, 62, 75
1, 62890, Note_on_c, 0, 66, 0
1, 62890, Note_on_c, 1, 62, 0
1, 62904, Note_on_c, 0, 74, 75
1, 62904, Note_on_c, 0, 66, 75
1, 62904, Note_on_c, 1, 62, 75
1, 62914, Note_on_c, 0, 74, 0
1, 62914, Note_on_c, 0, 66, 0
1, 62914, Note_on_c, 1, 62, 0
1, 62928, Note_on_c, 0, 74, 75
1, 62928, Note_on_c, 0, 66, 75
1, 62928, Note_on_c, 1, 62, 75
1, 62938, Note_on_c, 0, 74, 0
1, 62938, Note_on_c, 0, 66, 0
1, 62938, Note_on_c, 1, 62, 0
1, 62952, Note_on_c, 0, 74, 75
1, 62952, Note_on_c, 0, 66, 75
1, 62952, Note_on_c, 1, 62, 75
1, 62962, Note_on_c, 0, 74, 0
1, 62962, Note_on_c, 0, 66, 0
1, 62962, Note_on_c, 1, 62, 0
1, 62976, Note_on_c, 0, 76, 75
1, 62976, Note_on_c, 0, 67, 75
1, 62976, Note_on_c, 1, 62, 75
1, 63000, Note_on_c, 1, 62, 0
1, 63000, Note_on_c, 1, 50, 76
1, 63023, Note_on_c, 1, 50, 0
1, 63024, Note_on_c, 1, 62, 77
1, 63034, Note_on_c, 1, 62, 0
1, 63043, Note_on_c, 0, 76, 0
1, 63043, Note_on_c, 0, 67, 0
1, 63048, Note_on_c, 0, 76, 77
1, 63048, Note_on_c, 0, 67, 77
1, 63048, Note_on_c, 1, 62, 78
1, 63058, Note_on_c, 1, 62, 0
1, 63071, Note_on_c, 0, 76, 0
1, 63071, Note_on_c, 0, 67, 0
1, 63072, Note_on_c, 0, 78, 78
1, 63072, Note_on_c, 0, 69, 78
1, 63072, Note_on_c, 1, 60, 79
1, 63096, Note_on_c, 1, 60, 0
1, 63096, Note_on_c, 1, 48, 80
1, 63119, Note_on_c, 1, 48, 0
1, 63120, Note_on_c, 1, 60, 81
1, 63130, Note_on_c, 1, 60, 0
1, 63139, Note_on_c, 0, 78, 0
1, 63139, Note_on_c, 0, 69, 0
1, 63144, Note_on_c, 0, 78, 80
1, 63144, Note_on_c, 0, 74, 80
1, 63144, Note_on_c, 0, 69, 80
1, 63144, Note_on_c, 1, 60, 82
1, 63154, Note_on_c, 1, 60, 0
1, 63167, Note_on_c, 0, 78, 0
1, 63167, Note_on_c, 0, 74, 0
1, 63167, Note_on_c, 0, 69, 0
1, 63168, Note_on_c, 0, 79, 81
1, 63168, Note_on_c, 0, 74, 81
1, 63168, Note_on_c, 0, 67, 81
1, 63168, Note_on_c, 1, 59, 83
1, 63192, Note_on_c, 1, 59, 0
1, 63192, Note_on_c, 1, 47, 84
1, 63215, Note_on_c, 1, 47, 0
1, 63216, Note_on_c, 1, 59, 84
1, 63226, Note_on_c, 1, 59, 0
1, 63235, Note_on_c, 0, 79, 0
1, 63235, Note_on_c, 0, 74, 0
1, 63235, Note_on_c, 0, 67, 0
1, 63240, Note_on_c, 0, 79, 84
1, 63240, Note_on_c, 0, 74, 84
1, 63240, Note_on_c, 1, 59, 84
1, 63250, Note_on_c, 1, 59, 0
1, 63263, Note_on_c, 0, 79, 0
1, 63263, Note_on_c, 0, 74, 0
1, 63264, Note_on_c, 0, 81, 84
1, 63264, Note_on_c, 0, 74, 84
1, 63264, Note_on_c, 1, 54, 84
1, 63288, Note_on_c, 1, 54, 0
1, 63288, Note_on_c, 1, 42, 84
1, 63311, Note_on_c, 1, 42, 0
1, 63312, Note_on_c, 1, 54, 84
1, 63322, Note_on_c, 1, 54, 0
1, 63331, Note_on_c, 0, 81, 0
1, 63331, Note_on_c, 0, 74, 0
1, 63336, Note_on_c, 0, 81, 84
1, 63336, Note_on_c, 0, 74, 84
1, 63336, Note_on_c, 1, 54, 84
1, 63346, Note_on_c, 1, 54, 0
1, 63359, Note_on_c, 0, 81, 0
1, 63359, Note_on_c, 0, 74, 0
1, 63360, Note_on_c, 0, 83, 84
1, 63360, Note_on_c, 0, 71, 84
1, 63360, Note_on_c, 1, 55, 84
1, 63384, Note_on_c, 1, 55, 0
1, 63384, Note_on_c, 1, 43, 84
1, 63407, Note_on_c, 1, 43, 0
1, 63408, Note_on_c, 1, 55, 84
1, 63418, Note_on_c, 1, 55, 0
1, 63427, Note_on_c, 0, 83, 0
1, 63427, Note_on_c, 0, 71, 0
1, 63432, Note_on_c, 0, 83, 84
1, 63432, Note_on_c, 0, 79, 84
1, 63432, Note_on_c, 1, 55, 84
1, 63442, Note_on_c, 1, 55, 0
1, 63455, Note_on_c, 0, 83, 0
1, 63455, Note_on_c, 0, 79, 0
1, 63456, Note_on_c, 0, 83, 84
1, 63456, Note_on_c, 0, 79, 84
1, 63456, Note_on_c, 1, 54, 84
1, 63480, Note_on_c, 1, 54, 0
1, 63480, Note_on_c, 1, 42, 84
1, 63503, Note_on_c, 1, 42, 0
1, 63504, Note_on_c, 1, 54, 84
1, 63514, Note_on_c, 1, 54, 0
1, 63523, Note_on_c, 0, 83, 0
1, 63523, Note_on_c, 0, 79, 0
1, 63528, Note_on_c, 0, 83, 84
1, 63528, Note_on_c, 0, 79, 84
1, 63528, Note_on_c, 1, 54, 84
1, 63538, Note_on_c, 1, 54, 0
1, 63551, Note_on_c, 0, 83, 0
1, 63551, Note_on_c, 0, 79, 0
1, 63552, Note_on_c, 0, 83, 84
1, 63552, Note_on_c, 0, 79, 84
1, 63552, Note_on_c, 1, 52, 84
1, 63576, Note_on_c, 1, 52, 0
1, 63576, Note_on_c, 1, 40, 84
1, 63599, Note_on_c, 1, 40, 0
1, 63600, Note_on_c, 1, 52, 84
1, 63610, Note_on_c, 1, 52, 0
1, 63619, Note_on_c, 0, 83, 0
1, 63619, Note_on_c, 0, 79, 0
1, 63624, Note_on_c, 0, 83, 84
1, 63624, Note_on_c, 0, 79, 84
1, 63624, Note_on_c, 1, 52, 84
1, 63634, Note_on_c, 1, 52, 0
1, 63647, Note_on_c, 0, 83, 0
1, 63647, Note_on_c, 0, 79, 0
1, 63648, Note_on_c, 0, 83, 84
1, 63648, Note_on_c, 0, 79, 84
1, 63648, Note_on_c, 1, 50, 84
1, 63672, Note_on_c, 1, 50, 0
1, 63672, Note_on_c, 1, 38, 84
1, 63695, Note_on_c, 1, 38, 0
1, 63696, Note_on_c, 1, 50, 84
1, 63706, Note_on_c, 1, 50, 0
1, 63715, Note_on_c, 0, 83, 0
1, 63715, Note_on_c, 0, 79, 0
1, 63720, Note_on_c, 0, 83, 84
1, 63720, Note_on_c, 0, 79, 84
1, 63720, Note_on_c, 1, 50, 84
1, 63730, Note_on_c, 1, 50, 0
1, 63743, Note_on_c, 0, 83, 0
1, 63743, Note_on_c, 0, 79, 0
1, 63744, Note_on_c, 0, 83, 84
1, 63744, Note_on_c, 0, 79, 84
1, 63744, Note_on_c, 1, 49, 84
1, 63768, Note_on_c, 0, 83, 0
1, 63768, Note_on_c, 0, 79, 0
1, 63768, Note_on_c, 0, 81, 84
1, 63768, Note_on_c, 0, 78, 84
1, 63791, Note_on_c, 0, 81, 0
1, 63791, Note_on_c, 0, 78, 0
1, 63792, Note_on_c, 0, 81, 84
1, 63792, Note_on_c, 0, 78, 84
1, 63816, Note_on_c, 0, 81, 0
1, 63816, Note_on_c, 0, 78, 0
1, 63816, Note_on_c, 0, 79, 84
1, 63816, Note_on_c, 0, 76, 84
1, 63833, Note_on_c, 1, 49, 0
1, 63839, Note_on_c, 0, 79, 0
1, 63839, Note_on_c, 0, 76, 0
1, 63840, Note_on_c, 0, 79, 84
1, 63840, Note_on_c, 0, 76, 84
1, 63864, Note_on_c, 0, 76, 0
1, 63864, Note_on_c, 0, 83, 84
1, 63887, Note_on_c, 0, 83, 0
1, 63887, Note_on_c, 0, 79, 0
1, 63888, Note_on_c, 0, 81, 84
1, 63888, Note_on_c, 0, 78, 84
1, 63888, Note_on_c, 1, 49, 84
1, 63912, Note_on_c, 0, 81, 0
1, 63912, Note_on_c, 0, 78, 0
1, 63912, Note_on_c, 0, 79, 84
1, 63912, Note_on_c, 0, 76, 84
1, 63933, Note_on_c, 1, 49, 0
1, 63935, Note_on_c, 0, 79, 0
1, 63935, Note_on_c, 0, 76, 0
1, 63936, Note_on_c, 0, 78, 84
1, 63936, Note_on_c, 0, 74, 84
1, 63936, Note_on_c, 1, 50, 84
1, 63936, Note_on_c, 1, 38, 84
1, 63960, Note_on_c, 0, 74, 0
1, 63960, Note_on_c, 0, 62, 84
1, 63981, Note_on_c, 0, 78, 0
1, 63983, Note_on_c, 0, 62, 0
1, 63984, Note_on_c, 0, 78, 84
1, 63984, Note_on_c, 0, 74, 84
1, 63994, Note_on_c, 0, 78, 0
1, 63994, Note_on_c, 0, 74, 0
1, 64008, Note_on_c, 0, 78, 84
1, 64008, Note_on_c, 0, 74, 84
1, 64018, Note_on_c, 0, 78, 0
1, 64018, Note_on_c, 0, 74, 0
1, 64025, Note_on_c, 1, 50, 0
1, 64025, Note_on_c, 1, 38, 0
1, 64032, Note_on_c, 0, 78, 84
1, 64032, Note_on_c, 0, 74, 84
1, 64032, Note_on_c, 1, 47, 84
1, 64032, Note_on_c, 1, 35, 84
1, 64056, Note_on_c, 0, 74, 0
1, 64056, Note_on_c, 0, 62, 84
1, 64077, Note_on_c, 0, 78, 0
1, 64079, Note_on_c, 0, 62, 0
1, 64080, Note_on_c, 0, 78, 84
1, 64080, Note_on_c, 0, 74, 84
1, 64090, Note_on_c, 0, 78, 0
1, 64090, Note_on_c, 0, 74, 0
1, 64104, Note_on_c, 0, 78, 84
1, 64104, Note_on_c, 0, 74, 84
1, 64114, Note_on_c, 0, 78, 0
1, 64114, Note_on_c, 0, 74, 0
1, 64121, Note_on_c, 1, 47, 0
1, 64121, Note_on_c, 1, 35, 0
1, 64128, Note_on_c, 0, 78, 84
1, 64128, Note_on_c, 0, 74, 84
1, 64128, Note_on_c, 1, 45, 84
1, 64128, Note_on_c, 1, 33, 84
1, 64152, Note_on_c, 0, 74, 0
1, 64152, Note_on_c, 0, 62, 84
1, 64173, Note_on_c, 0, 78, 0
1, 64175, Note_on_c, 0, 62, 0
1, 64176, Note_on_c, 0, 78, 84
1, 64176, Note_on_c, 0, 74, 84
1, 64186, Note_on_c, 0, 78, 0
1, 64186, Note_on_c, 0, 74, 0
1, 64200, Note_on_c, 0, 78, 84
1, 64200, Note_on_c, 0, 74, 84
1, 64210, Note_on_c, 0, 78, 0
1, 64210, Note_on_c, 0, 74, 0
1, 64217, Note_on_c, 1, 45, 0
1, 64217, Note_on_c, 1, 33, 0
1, 64224, Note_on_c, 0, 78, 84
1, 64224, Note_on_c, 0, 74, 84
1, 64224, Note_on_c, 1, 44, 84
1, 64224, Note_on_c, 1, 32, 84
1, 64248, Note_on_c, 0, 74, 0
1, 64248, Note_on_c, 0, 62, 84
1, 64269, Note_on_c, 0, 78, 0
1, 64271, Note_on_c, 0, 62, 0
1, 64272, Note_on_c, 0, 78, 84
1, 64272, Note_on_c, 0, 74, 84
1, 64282, Note_on_c, 0, 78, 0
1, 64282, Note_on_c, 0, 74, 0
1, 64296, Note_on_c, 0, 78, 84
1, 64296, Note_on_c, 0, 74, 84
1, 64306, Note_on_c, 0, 78, 0
1, 64306, Note_on_c, 0, 74, 0
1, 64313, Note_on_c, 1, 44, 0
1, 64313, Note_on_c, 1, 32, 0
1, 64320, Note_on_c, 0, 76, 84
1, 64320, Note_on_c, 0, 73, 84
1, 64320, Note_on_c, 1, 45, 84
1, 64320, Note_on_c, 1, 33, 84
1, 64343, Note_on_c, 0, 73, 0
1, 64344, Note_on_c, 0, 69, 84
1, 64365, Note_on_c, 0, 76, 0
1, 64367, Note_on_c, 0, 69, 0
1, 64368, Note_on_c, 0, 81, 84
1, 64368, Note_on_c, 0, 78, 84
1, 64391, Note_on_c, 0, 78, 0
1, 64392, Note_on_c, 0, 69, 84
1, 64409, Note_on_c, 1, 45, 0
1, 64409, Note_on_c, 1, 33, 0
1, 64413, Note_on_c, 0, 81, 0
1, 64415, Note_on_c, 0, 69, 0
1, 64416, Note_on_c, 0, 79, 84
1, 64416, Note_on_c, 0, 76, 84
1, 64439, Note_on_c, 0, 76, 0
1, 64440, Note_on_c, 0, 69, 84
1, 64461, Note_on_c, 0, 79, 0
1, 64463, Note_on_c, 0, 69, 0
1, 64464, Note_on_c, 0, 78, 84
1, 64464, Note_on_c, 0, 74, 84
1, 64487, Note_on_c, 0, 74, 0
1, 64488, Note_on_c, 0, 69, 84
1, 64509, Note_on_c, 0, 78, 0
1, 64511, Note_on_c, 0, 69, 0
1, 64512, Note_on_c, 0, 76, 84
1, 64512, Note_on_c, 0, 73, 84
1, 64512, Note_on_c, 1, 45, 84
1, 64512, Note_on_c, 1, 33, 84
1, 64535, Note_on_c, 0, 73, 0
1, 64536, Note_on_c, 0, 69, 84
1, 64557, Note_on_c, 0, 76, 0
1, 64559, Note_on_c, 0, 69, 0
1, 64560, Note_on_c, 0, 78, 84
1, 64560, Note_on_c, 0, 74, 84
1, 64583, Note_on_c, 0, 74, 0
1, 64584, Note_on_c, 0, 69, 84
1, 64601, Note_on_c, 1, 45, 0
1, 64601, Note_on_c, 1, 33, 0
1, 64605, Note_on_c, 0, 78, 0
1, 64607, Note_on_c, 0, 69, 0
1, 64608, Note_on_c, 0, 76, 84
1, 64608, Note_on_c, 0, 73, 84
1, 64631, Note_on_c, 0, 73, 0
1, 64632, Note_on_c, 0, 69, 84
1, 64653, Note_on_c, 0, 76, 0
1, 64655, Note_on_c, 0, 69, 0
1, 64656, Note_on_c, 0, 74, 84
1, 64656, Note_on_c, 0, 71, 84
1, 64679, Note_on_c, 0, 71, 0
1, 64680, Note_on_c, 0, 68, 84
1, 64701, Note_on_c, 0, 74, 0
1, 64703, Note_on_c, 0, 68, 0
1, 64704, Note_on_c, 0, 73, 84
1, 64704, Note_on_c, 0, 69, 84
1, 64704, Note_on_c, 1, 45, 84
1, 64704, Note_on_c, 1, 33, 84
1, 64749, Note_on_c, 0, 73, 0
1, 64749, Note_on_c, 0, 69, 0
1, 64749, Note_on_c, 1, 45, 0
1, 64749, Note_on_c, 1, 33, 0
1, 64752, Note_on_c, 0, 57, 84
1, 64752, Note_on_c, 1, 54, 84
1, 64752, Note_on_c, 1, 45, 84
1, 64764, Note_on_c, 0, 57, 0
1, 64764, Note_on_c, 0, 62, 84
1, 64776, Note_on_c, 0, 62, 0
1, 64776, Note_on_c, 0, 66, 84
1, 64788, Note_on_c, 0, 66, 0
1, 64788, Note_on_c, 0, 69, 84
1, 64797, Note_on_c, 1, 54, 0
1, 64797, Note_on_c, 1, 45, 0
1, 64800, Note_on_c, 0, 69, 0
1, 64800, Note_on_c, 0, 64, 84
1, 64800, Note_on_c, 1, 49, 84
1, 64800, Note_on_c, 1, 45, 84
1, 64812, Note_on_c, 0, 64, 0
1, 64812, Note_on_c, 0, 67, 84
1, 64824, Note_on_c, 0, 67, 0
1, 64824, Note_on_c, 0, 69, 84
1, 64845, Note_on_c, 1, 49, 0
1, 64845, Note_on_c, 1, 45, 0
1, 64848, Note_on_c, 0, 69, 0
1, 64848, Note_on_c, 0, 62, 84
1, 64848, Note_on_c, 1, 50, 85
1, 64848, Note_on_c, 1, 45, 85
1, 64860, Note_on_c, 0, 62, 0
1, 64860, Note_on_c, 0, 66, 85
1, 64872, Note_on_c, 0, 66, 0
1, 64872, Note_on_c, 0, 69, 85
1, 64893, Note_on_c, 1, 50, 0
1, 64893, Note_on_c, 1, 45, 0
1, 64896, Note_on_c, 0, 69, 0
1, 64896, Note_on_c, 0, 61, 85
1, 64896, Note_on_c, 1, 55, 85
1, 64896, Note_on_c, 1, 45, 85
1, 64908, Note_on_c, 0, 61, 0
1, 64908, Note_on_c, 0, 64, 85
1, 64920, Note_on_c, 0, 64, 0
1, 64920, Note_on_c, 0, 69, 85
1, 64941, Note_on_c, 1, 55, 0
1, 64941, Note_on_c, 1, 45, 0
1, 64944, Note_on_c, 0, 69, 0
1, 64944, Note_on_c, 0, 62, 85
1, 64944, Note_on_c, 1, 54, 86
1, 64944, Note_on_c, 1, 45, 86
1, 64956, Note_on_c, 0, 62, 0
1, 64956, Note_on_c, 0, 66, 85
1, 64968, Note_on_c, 0, 66, 0
1, 64968, Note_on_c, 0, 69, 86
1, 64989, Note_on_c, 1, 54, 0
1, 64989, Note_on_c, 1, 45, 0
1, 64992, Note_on_c, 0, 69, 0
1, 64992, Note_on_c, 0, 64, 86
1, 64992, Note_on_c, 1, 49, 86
1, 64992, Note_on_c, 1, 45, 86
1, 65004, Note_on_c, 0, 64, 0
1, 65004, Note_on_c, 0, 67, 86
1, 65016, Note_on_c, 0, 67, 0
1, 65016, Note_on_c, 0, 69, 86
1, 65037, Note_on_c, 1, 49, 0
1, 65037, Note_on_c, 1, 45, 0
1, 65040, Note_on_c, 0, 69, 0
1, 65040, Note_on_c, 0, 62, 86
1, 65040, Note_on_c, 1, 50, 87
1, 65040, Note_on_c, 1, 45, 87
1, 65052, Note_on_c, 0, 62, 0
1, 65052, Note_on_c, 0, 66, 86
1, 65064, Note_on_c, 0, 66, 0
1, 65064, Note_on_c, 0, 69, 87
1, 65085, Note_on_c, 1, 50, 0
1, 65085, Note_on_c, 1, 45, 0
1, 65088, Note_on_c, 0, 69, 0
1, 65088, Note_on_c, 0, 64, 87
1, 65088, Note_on_c, 1, 49, 87
1, 65088, Note_on_c, 1, 45, 87
1, 65100, Note_on_c, 0, 64, 0
1, 65100, Note_on_c, 0, 67, 87
1, 65112, Note_on_c, 0, 67, 0
1, 65112, Note_on_c, 0, 69, 87
1, 65133, Note_on_c, 1, 49, 0
1, 65133, Note_on_c, 1, 45, 0
1, 65136, Note_on_c, 0, 69, 0
1, 65136, Note_on_c, 0, 62, 87
1, 65136, Note_on_c, 1, 50, 87
1, 65136, Note_on_c, 1, 45, 87
1, 65148, Note_on_c, 0, 62, 0
1, 65148, Note_on_c, 0, 66, 87
1, 65160, Note_on_c, 0, 66, 0
1, 65160, Note_on_c, 0, 69, 87
1, 65181, Note_on_c, 1, 50, 0
1, 65181, Note_on_c, 1, 45, 0
1, 65184, Note_on_c, 0, 69, 0
1, 65184, Note_on_c, 0, 64, 88
1, 65184, Note_on_c, 1, 49, 88
1, 65184, Note_on_c, 1, 45, 88
1, 65196, Note_on_c, 0, 64, 0
1, 65196, Note_on_c, 0, 67, 88
1, 65208, Note_on_c, 0, 67, 0
1, 65208, Note_on_c, 0, 69, 88
1, 65229, Note_on_c, 1, 49, 0
1, 65229, Note_on_c, 1, 45, 0
1, 65232, Note_on_c, 0, 69, 0
1, 65232, Note_on_c, 0, 62, 88
1, 65232, Note_on_c, 1, 50, 88
1, 65232, Note_on_c, 1, 45, 88
1, 65244, Note_on_c, 0, 62, 0
1, 65244, Note_on_c, 0, 66, 88
1, 65256, Note_on_c, 0, 66, 0
1, 65256, Note_on_c, 0, 69, 88
1, 65277, Note_on_c, 1, 50, 0
1, 65277, Note_on_c, 1, 45, 0
1, 65280, Note_on_c, 0, 69, 0
1, 65280, Note_on_c, 0, 61, 89
1, 65280, Note_on_c, 1, 57, 89
1, 65280, Note_on_c, 1, 52, 89
1, 65280, Note_on_c, 1, 49, 89
1, 65280, Note_on_c, 1, 45, 89
1, 65288, Note_on_c, 0, 64, 89
1, 65296, Note_on_c, 0, 69, 89
1, 65369, Note_on_c, 1, 57, 0
1, 65369, Note_on_c, 1, 52, 0
1, 65369, Note_on_c, 1, 49, 0
1, 65369, Note_on_c, 1, 45, 0
1, 65373, Note_on_c, 0, 69, 0
1, 65373, Note_on_c, 0, 64, 0
1, 65373, Note_on_c, 0, 61, 0
1, 65376, Note_on_c, 0, 57, 90
1, 65376, Note_on_c, 1, 45, 90
1, 65376, Note_on_c, 1, 33, 90
1, 65382, Note_on_c, 0, 61, 90
1, 65388, Note_on_c, 0, 64, 90
1, 65394, Note_on_c, 0, 69, 90
1, 65465, Note_on_c, 1, 45, 0
1, 65465, Note_on_c, 1, 33, 0
1, 65469, Note_on_c, 0, 69, 0
1, 65469, Note_on_c, 0, 64, 0
1, 65469, Note_on_c, 0, 61, 0
1, 65469, Note_on_c, 0, 57, 0
1, 65472, Note_on_c, 0, 57, 86
1, 65472, Note_on_c, 1, 45, 87
1, 65472, Note_on_c, 1, 33, 87
1, 65478, Note_on_c, 0, 61, 86
1, 65484, Note_on_c, 0, 64, 86
1, 65490, Note_on_c, 0, 69, 86
1, 65565, Note_on_c, 0, 69, 0
1, 65565, Note_on_c, 0, 64, 0
1, 65565, Note_on_c, 0, 61, 0
1, 65565, Note_on_c, 0, 57, 0
1, 65565, Note_on_c, 1, 45, 0
1, 65565, Note_on_c, 1, 33, 0
1, 65652, Note_on_c, 0, 57, 75
1, 65664, Note_on_c, 0, 57, 0
1, 65664, Note_on_c, 0, 66, 75
1, 65712, Note_on_c, 1, 38, 76
1, 65757, Note_on_c, 1, 38, 0
1, 65760, Note_on_c, 1, 50, 78
1, 65794, Note_on_c, 0, 66, 0
1, 65796, Note_on_c, 0, 57, 80
1, 65805, Note_on_c, 1, 50, 0
1, 65808, Note_on_c, 0, 57, 0
1, 65808, Note_on_c, 0, 67, 80
1, 65808, Note_on_c, 1, 49, 80
1, 65842, Note_on_c, 0, 67, 0
1, 65844, Note_on_c, 0, 57, 82
1, 65853, Note_on_c, 1, 49, 0
1, 65856, Note_on_c, 0, 57, 0
1, 65856, Note_on_c, 0, 66, 82
1, 65856, Note_on_c, 1, 50, 82
1, 65890, Note_on_c, 0, 66, 0
1, 65892, Note_on_c, 0, 57, 84
1, 65901, Note_on_c, 1, 50, 0
1, 65904, Note_on_c, 0, 57, 0
1, 65904, Note_on_c, 0, 64, 83
1, 65904, Note_on_c, 1, 55, 84
1, 65938, Note_on_c, 0, 64, 0
1, 65940, Note_on_c, 0, 57, 81
1, 65949, Note_on_c, 1, 55, 0
1, 65952, Note_on_c, 0, 57, 0
1, 65952, Note_on_c, 0, 62, 80
1, 65952, Note_on_c, 1, 54, 81
1, 65986, Note_on_c, 0, 62, 0
1, 65988, Note_on_c, 0, 57, 78
1, 65997, Note_on_c, 1, 54, 0
1, 66000, Note_on_c, 0, 57, 0
1, 66000, Note_on_c, 0, 64, 77
1, 66000, Note_on_c, 1, 49, 78
1, 66034, Note_on_c, 0, 64, 0
1, 66036, Note_on_c, 0, 57, 75
1, 66045, Note_on_c, 1, 49, 0
1, 66048, Note_on_c, 0, 57, 0
1, 66048, Note_on_c, 0, 66, 75
1, 66096, Note_on_c, 1, 38, 75
1, 66141, Note_on_c, 1, 38, 0
1, 66144, Note_on_c, 1, 50, 76
1, 66159, Note_on_c, 0, 66, 0
1, 66160, Note_on_c, 0, 62, 76
1, 66175, Note_on_c, 0, 62, 0
1, 66176, Note_on_c, 0, 57, 77
1, 66189, Note_on_c, 1, 50, 0
1, 66191, Note_on_c, 0, 57, 0
1, 66192, Note_on_c, 0, 67, 77
1, 66192, Note_on_c, 1, 49, 77
1, 66207, Note_on_c, 0, 67, 0
1, 66208, Note_on_c, 0, 64, 77
1, 66223, Note_on_c, 0, 64, 0
1, 66224, Note_on_c, 0, 57, 77
1, 66237, Note_on_c, 1, 49, 0
1, 66239, Note_on_c, 0, 57, 0
1, 66240, Note_on_c, 0, 66, 77
1, 66240, Note_on_c, 1, 50, 78
1, 66255, Note_on_c, 0, 66, 0
1, 66256, Note_on_c, 0, 62, 78
1, 66271, Note_on_c, 0, 62, 0
1, 66272, Note_on_c, 0, 57, 78
1, 66285, Note_on_c, 1, 50, 0
1, 66287, Note_on_c, 0, 57, 0
1, 66288, Note_on_c, 0, 64, 78
1, 66288, Note_on_c, 1, 55, 79
1, 66303, Note_on_c, 0, 64, 0
1, 66304, Note_on_c, 0, 61, 78
1, 66319, Note_on_c, 0, 61, 0
1, 66320, Note_on_c, 0, 57, 78
1, 66333, Note_on_c, 1, 55, 0
1, 66335, Note_on_c, 0, 57, 0
1, 66336, Note_on_c, 0, 61, 79
1, 66336, Note_on_c, 1, 54, 79
1, 66351, Note_on_c, 0, 61, 0
1, 66352, Note_on_c, 0, 62, 79
1, 66367, Note_on_c, 0, 62, 0
1, 66368, Note_on_c, 0, 57, 79
1, 66381, Note_on_c, 1, 54, 0
1, 66383, Note_on_c, 0, 57, 0
1, 66384, Note_on_c, 0, 63, 79
1, 66384, Note_on_c, 1, 49, 80
1, 66399, Note_on_c, 0, 63, 0
1, 66400, Note_on_c, 0, 64, 79
1, 66415, Note_on_c, 0, 64, 0
1, 66416, Note_on_c, 0, 57, 80
1, 66429, Note_on_c, 1, 49, 0
1, 66431, Note_on_c, 0, 57, 0
1, 66432, Note_on_c, 0, 65, 80
1, 66432, Note_on_c, 1, 50, 81
1, 66447, Note_on_c, 0, 65, 0
1, 66448, Note_on_c, 0, 66, 80
1, 66463, Note_on_c, 0, 66, 0
1, 66464, Note_on_c, 0, 57, 80
1, 66477, Note_on_c, 1, 50, 0
1, 66479, Note_on_c, 0, 57, 0
1, 66480, Note_on_c, 0, 66, 80
1, 66480, Note_on_c, 1, 52, 82
1, 66495, Note_on_c, 0, 66, 0
1, 66496, Note_on_c, 0, 67, 81
1, 66511, Note_on_c, 0, 67, 0
1, 66512, Note_on_c, 0, 57, 81
1, 66525, Note_on_c, 1, 52, 0
1, 66527, Note_on_c, 0, 57, 0
1, 66528, Note_on_c, 0, 69, 81
1, 66528, Note_on_c, 1, 54, 83
1, 66548, Note_on_c, 0, 69, 0
1, 66573, Note_on_c, 1, 54, 0
1, 66624, Note_on_c, 0, 66, 75
1, 66624, Note_on_c, 1, 50, 75
1, 66639, Note_on_c, 0, 66, 0
1, 66640, Note_on_c, 0, 62, 75
1, 66655, Note_on_c, 0, 62, 0
1, 66656, Note_on_c, 0, 57, 76
1, 66669, Note_on_c, 1, 50, 0
1, 66671, Note_on_c, 0, 57, 0
1, 66672, Note_on_c, 0, 67, 77
1, 66672, Note_on_c, 1, 52, 78
1, 66687, Note_on_c, 0, 67, 0
1, 66688, Note_on_c, 0, 64, 78
1, 66703, Note_on_c, 0, 64, 0
1, 66704, Note_on_c, 0, 57, 78
1, 66717, Note_on_c, 1, 52, 0
1, 66719, Note_on_c, 0, 57, 0
1, 66720, Note_on_c, 0, 69, 79
1, 66720, Note_on_c, 1, 54, 81
1, 66740, Note_on_c, 0, 69, 0
1, 66765, Note_on_c, 1, 54, 0
1, 66816, Note_on_c, 0, 78, 75
1, 66864, Note_on_c, 1, 38, 69
1, 66905, Note_on_c, 0, 78, 0
1, 66909, Note_on_c, 1, 38, 0
1, 66912, Note_on_c, 0, 79, 75
1, 66912, Note_on_c, 1, 38, 69
1, 66924, Note_on_c, 0, 79, 0
1, 66924, Note_on_c, 0, 78, 75
1, 66936, Note_on_c, 0, 78, 0
1, 66936, Note_on_c, 0, 76, 75
1, 66948, Note_on_c, 0, 76, 0
1, 66948, Note_on_c, 0, 74, 75
1, 66957, Note_on_c, 1, 38, 0
1, 66960, Note_on_c, 0, 74, 0
1, 66960, Note_on_c, 0, 74, 75
1, 66960, Note_on_c, 1, 38, 69
1, 66972, Note_on_c, 0, 74, 0
1, 66972, Note_on_c, 0, 73, 75
1, 66984, Note_on_c, 0, 73, 0
1, 66984, Note_on_c, 0, 71, 75
1, 66996, Note_on_c, 0, 71, 0
1, 66996, Note_on_c, 0, 69, 75
1, 67005, Note_on_c, 1, 38, 0
1, 67008, Note_on_c, 0, 69, 0
1, 67008, Note_on_c, 0, 69, 75
1, 67056, Note_on_c, 1, 40, 69
1, 67101, Note_on_c, 1, 40, 0
1, 67104, Note_on_c, 0, 69, 0
1, 67104, Note_on_c, 0, 67, 75
1, 67104, Note_on_c, 1, 40, 69
1, 67127, Note_on_c, 0, 67, 0
1, 67128, Note_on_c, 0, 69, 75
1, 67140, Note_on_c, 0, 69, 0
1, 67140, Note_on_c, 0, 71, 75
1, 67149, Note_on_c, 1, 40, 0
1, 67152, Note_on_c, 0, 71, 0
1, 67152, Note_on_c, 0, 73, 75
1, 67152, Note_on_c, 1, 40, 69
1, 67164, Note_on_c, 0, 73, 0
1, 67164, Note_on_c, 0, 74, 75
1, 67176, Note_on_c, 0, 74, 0
1, 67176, Note_on_c, 0, 76, 75
1, 67188, Note_on_c, 0, 76, 0
1, 67188, Note_on_c, 0, 78, 75
1, 67197, Note_on_c, 1, 40, 0
1, 67200, Note_on_c, 0, 78, 0
1, 67200, Note_on_c, 0, 79, 75
1, 67248, Note_on_c, 1, 33, 69
1, 67267, Note_on_c, 0, 79, 0
1, 67272, Note_on_c, 0, 81, 75
1, 67293, Note_on_c, 1, 33, 0
1, 67295, Note_on_c, 0, 81, 0
1, 67296, Note_on_c, 0, 79, 75
1, 67296, Note_on_c, 1, 33, 69
1, 67308, Note_on_c, 0, 79, 0
1, 67308, Note_on_c, 0, 78, 75
1, 67320, Note_on_c, 0, 78, 0
1, 67320, Note_on_c, 0, 76, 75
1, 67332, Note_on_c, 0, 76, 0
1, 67332, Note_on_c, 0, 74, 75
1, 67341, Note_on_c, 1, 33, 0
1, 67344, Note_on_c, 0, 74, 0
1, 67344, Note_on_c, 0, 73, 75
1, 67344, Note_on_c, 1, 33, 69
1, 67356, Note_on_c, 0, 73, 0
1, 67356, Note_on_c, 0, 71, 75
1, 67368, Note_on_c, 0, 71, 0
1, 67368, Note_on_c, 0, 69, 75
1, 67380, Note_on_c, 0, 69, 0
1, 67380, Note_on_c, 0, 67, 75
1, 67389, Note_on_c, 1, 33, 0
1, 67392, Note_on_c, 0, 67, 0
1, 67392, Note_on_c, 0, 67, 75
1, 67440, Note_on_c, 1, 38, 69
1, 67485, Note_on_c, 1, 38, 0
1, 67488, Note_on_c, 0, 67, 0
1, 67488, Note_on_c, 0, 66, 75
1, 67488, Note_on_c, 1, 38, 69
1, 67533, Note_on_c, 0, 66, 0
1, 67533, Note_on_c, 1, 38, 0
1, 67536, Note_on_c, 1, 38, 69
1, 67581, Note_on_c, 1, 38, 0
1, 67584, Note_on_c, 0, 62, 75
1, 67632, Note_on_c, 1, 50, 69
1, 67632, Note_on_c, 1, 42, 69
1, 67679, Note_on_c, 1, 50, 0
1, 67679, Note_on_c, 1, 42, 0
1, 67680, Note_on_c, 1, 50, 69
1, 67680, Note_on_c, 1, 42, 69
1, 67717, Note_on_c, 0, 62, 0
1, 67727, Note_on_c, 1, 50, 0
1, 67727, Note_on_c, 1, 42, 0
1, 67728, Note_on_c, 0, 66, 75
1, 67728, Note_on_c, 1, 50, 69
1, 67728, Note_on_c, 1, 42, 69
1, 67740, Note_on_c, 0, 66, 0
1, 67740, Note_on_c, 0, 62, 75
1, 67773, Note_on_c, 0, 62, 0
1, 67775, Note_on_c, 1, 50, 0
1, 67775, Note_on_c, 1, 42, 0
1, 67776, Note_on_c, 0, 61, 75
1, 67788, Note_on_c, 0, 61, 0
1, 67788, Note_on_c, 0, 59, 75
1, 67824, Note_on_c, 1, 50, 69
1, 67824, Note_on_c, 1, 43, 69
1, 67871, Note_on_c, 1, 50, 0
1, 67871, Note_on_c, 1, 43, 0
1, 67872, Note_on_c, 1, 50, 69
1, 67872, Note_on_c, 1, 43, 69
1, 67909, Note_on_c, 0, 59, 0
1, 67919, Note_on_c, 1, 50, 0
1, 67919, Note_on_c, 1, 43, 0
1, 67920, Note_on_c, 0, 62, 75
1, 67920, Note_on_c, 1, 50, 69
1, 67920, Note_on_c, 1, 43, 69
1, 67932, Note_on_c, 0, 62, 0
1, 67932, Note_on_c, 0, 59, 75
1, 67965, Note_on_c, 0, 59, 0
1, 67967, Note_on_c, 1, 50, 0
1, 67967, Note_on_c, 1, 43, 0
1, 67968, Note_on_c, 0, 59, 75
1, 67980, Note_on_c, 0, 59, 0
1, 67980, Note_on_c, 0, 57, 75
1, 68016, Note_on_c, 1, 50, 69
1, 68016, Note_on_c, 1, 42, 69
1, 68063, Note_on_c, 1, 50, 0
1, 68063, Note_on_c, 1, 42, 0
1, 68064, Note_on_c, 1, 50, 69
1, 68064, Note_on_c, 1, 42, 69
1, 68101, Note_on_c, 0, 57, 0
1, 68111, Note_on_c, 1, 50, 0
1, 68111, Note_on_c, 1, 42, 0
1, 68112, Note_on_c, 0, 66, 75
1, 68112, Note_on_c, 1, 50, 69
1, 68112, Note_on_c, 1, 42, 69
1, 68124, Note_on_c, 0, 66, 0
1, 68124, Note_on_c, 0, 62, 75
1, 68157, Note_on_c, 0, 62, 0
1, 68159, Note_on_c, 1, 50, 0
1, 68159, Note_on_c, 1, 42, 0
1, 68160, Note_on_c, 0, 61, 75
1, 68160, Note_on_c, 1, 50, 69
1, 68160, Note_on_c, 1, 43, 69
1, 68172, Note_on_c, 0, 61, 0
1, 68172, Note_on_c, 0, 59, 75
1, 68205, Note_on_c, 0, 59, 0
1, 68205, Note_on_c, 1, 50, 0
1, 68205, Note_on_c, 1, 43, 0
1, 68208, Note_on_c, 0, 62, 75
1, 68220, Note_on_c, 0, 62, 0
1, 68220, Note_on_c, 0, 59, 75
1, 68253, Note_on_c, 0, 59, 0
1, 68256, Note_on_c, 0, 59, 75
1, 68256, Note_on_c, 1, 50, 69
1, 68256, Note_on_c, 1, 42, 69
1, 68268, Note_on_c, 0, 59, 0
1, 68268, Note_on_c, 0, 57, 75
1, 68301, Note_on_c, 0, 57, 0
1, 68301, Note_on_c, 1, 50, 0
1, 68301, Note_on_c, 1, 42, 0
1, 68304, Note_on_c, 0, 66, 75
1, 68316, Note_on_c, 0, 66, 0
1, 68316, Note_on_c, 0, 62, 75
1, 68349, Note_on_c, 0, 62, 0
1, 68352, Note_on_c, 0, 61, 75
1, 68352, Note_on_c, 1, 50, 69
1, 68352, Note_on_c, 1, 43, 69
1, 68364, Note_on_c, 0, 61, 0
1, 68364, Note_on_c, 0, 59, 75
1, 68397, Note_on_c, 0, 59, 0
1, 68397, Note_on_c, 1, 50, 0
1, 68397, Note_on_c, 1, 43, 0
1, 68400, Note_on_c, 0, 62, 75
1, 68412, Note_on_c, 0, 62, 0
1, 68412, Note_on_c, 0, 59, 75
1, 68445, Note_on_c, 0, 59, 0
1, 68448, Note_on_c, 0, 59, 75
1, 68448, Note_on_c, 1, 50, 69
1, 68448, Note_on_c, 1, 42, 69
1, 68460, Note_on_c, 0, 59, 0
1, 68460, Note_on_c, 0, 57, 75
1, 68493, Note_on_c, 0, 57, 0
1, 68493, Note_on_c, 1, 50, 0
1, 68493, Note_on_c, 1, 42, 0
1, 68496, Note_on_c, 0, 66, 75
1, 68508, Note_on_c, 0, 66, 0
1, 68508, Note_on_c, 0, 62, 75
1, 68541, Note_on_c, 0, 62, 0
1, 68544, Note_on_c, 0, 67, 75
1, 68556, Note_on_c, 0, 67, 0
1, 68556, Note_on_c, 0, 64, 75
1, 68589, Note_on_c, 0, 64, 0
1, 68592, Note_on_c, 0, 69, 75
1, 68604, Note_on_c, 0, 69, 0
1, 68604, Note_on_c, 0, 66, 75
1, 68637, Note_on_c, 0, 66, 0
1, 68640, Note_on_c, 0, 67, 75
1, 68652, Note_on_c, 0, 67, 0
1, 68652, Note_on_c, 0, 64, 75
1, 68685, Note_on_c, 0, 64, 0
1, 68688, Note_on_c, 0, 66, 75
1, 68700, Note_on_c, 0, 66, 0
1, 68700, Note_on_c, 0, 62, 75
1, 68733, Note_on_c, 0, 62, 0
1, 68736, Note_on_c, 0, 62, 75
1, 68748, Note_on_c, 0, 62, 0
1, 68748, Note_on_c, 0, 60, 75
1, 68784, Note_on_c, 1, 57, 69
1, 68784, Note_on_c, 1, 54, 69
1, 68829, Note_on_c, 1, 57, 0
1, 68829, Note_on_c, 1, 54, 0
1, 68832, Note_on_c, 1, 57, 69
1, 68832, Note_on_c, 1, 54, 69
1, 68869, Note_on_c, 0, 60, 0
1, 68877, Note_on_c, 1, 57, 0
1, 68877, Note_on_c, 1, 54, 0
1, 68880, Note_on_c, 0, 64, 75
1, 68880, Note_on_c, 1, 57, 69
1, 68880, Note_on_c, 1, 54, 69
1, 68892, Note_on_c, 0, 64, 0
1, 68892, Note_on_c, 0, 60, 75
1, 68925, Note_on_c, 0, 60, 0
1, 68925, Note_on_c, 1, 57, 0
1, 68925, Note_on_c, 1, 54, 0
1, 68928, Note_on_c, 0, 60, 75
1, 68940, Note_on_c, 0, 60, 0
1, 68940, Note_on_c, 0, 59, 75
1, 68976, Note_on_c, 1, 54, 69
1, 68976, Note_on_c, 1, 51, 69
1, 69021, Note_on_c, 1, 54, 0
1, 69021, Note_on_c, 1, 51, 0
1, 69024, Note_on_c, 1, 54, 69
1, 69024, Note_on_c, 1, 51, 69
1, 69061, Note_on_c, 0, 59, 0
1, 69069, Note_on_c, 1, 54, 0
1, 69069, Note_on_c, 1, 51, 0
1, 69072, Note_on_c, 0, 69, 75
1, 69072, Note_on_c, 1, 54, 69
1, 69072, Note_on_c, 1, 51, 69
1, 69084, Note_on_c, 0, 69, 0
1, 69084, Note_on_c, 0, 66, 75
1, 69117, Note_on_c, 0, 66, 0
1, 69117, Note_on_c, 1, 54, 0
1, 69117, Note_on_c, 1, 51, 0
1, 69120, Note_on_c, 0, 69, 75
1, 69120, Note_on_c, 1, 52, 85
1, 69120, Note_on_c, 1, 40, 85
1, 69132, Note_on_c, 0, 69, 0
1, 69132, Note_on_c, 0, 67, 75
1, 69165, Note_on_c, 0, 67, 0
1, 69168, Note_on_c, 0, 67, 75
1, 69168, Note_on_c, 1, 52, 0
1, 69168, Note_on_c, 1, 40, 0
1, 69168, Note_on_c, 1, 54, 69
1, 69180, Note_on_c, 0, 67, 0
1, 69180, Note_on_c, 0, 66, 75
1, 69213, Note_on_c, 0, 66, 0
1, 69213, Note_on_c, 1, 54, 0
1, 69216, Note_on_c, 0, 66, 75
1, 69216, Note_on_c, 1, 55, 69
1, 69228, Note_on_c, 0, 66, 0
1, 69228, Note_on_c, 0, 64, 75
1, 69261, Note_on_c, 0, 64, 0
1, 69261, Note_on_c, 1, 55, 0
1, 69264, Note_on_c, 0, 67, 75
1, 69264, Note_on_c, 1, 51, 69
1, 69276, Note_on_c, 0, 67, 0
1, 69276, Note_on_c, 0, 66, 75
1, 69309, Note_on_c, 0, 66, 0
1, 69309, Note_on_c, 1, 51, 0
1, 69312, Note_on_c, 0, 69, 75
1, 69312, Note_on_c, 1, 52, 85
1, 69312, Note_on_c, 1, 40, 85
1, 69324, Note_on_c, 0, 69, 0
1, 69324, Note_on_c, 0, 67, 75
1, 69357, Note_on_c, 0, 67, 0
1, 69360, Note_on_c, 0, 67, 75
1, 69360, Note_on_c, 1, 52, 0
1, 69360, Note_on_c, 1, 40, 0
1, 69360, Note_on_c, 1, 54, 69
1, 69372, Note_on_c, 0, 67, 0
1, 69372, Note_on_c, 0, 66, 75
1, 69405, Note_on_c, 0, 66, 0
1, 69405, Note_on_c, 1, 54, 0
1, 69408, Note_on_c, 0, 66, 75
1, 69408, Note_on_c, 1, 55, 69
1, 69420, Note_on_c, 0, 66, 0
1, 69420, Note_on_c, 0, 64, 75
1, 69453, Note_on_c, 0, 64, 0
1, 69453, Note_on_c, 1, 55, 0
1, 69456, Note_on_c, 0, 64, 75
1, 69456, Note_on_c, 1, 56, 69
1, 69468, Note_on_c, 0, 64, 0
1, 69468, Note_on_c, 0, 62, 75
1, 69501, Note_on_c, 0, 62, 0
1, 69501, Note_on_c, 1, 56, 0
1, 69504, Note_on_c, 0, 61, 75
1, 69504, Note_on_c, 1, 57, 85
1, 69510, Note_on_c, 0, 61, 0
1, 69510, Note_on_c, 0, 64, 75
1, 69516, Note_on_c, 0, 64, 0
1, 69516, Note_on_c, 0, 69, 75
1, 69527, Note_on_c, 0, 69, 0
1, 69528, Note_on_c, 0, 69, 75
1, 69538, Note_on_c, 0, 69, 0
1, 69552, Note_on_c, 0, 69, 75
1, 69562, Note_on_c, 0, 69, 0
1, 69576, Note_on_c, 0, 69, 75
1, 69586, Note_on_c, 0, 69, 0
1, 69600, Note_on_c, 0, 69, 75
1, 69600, Note_on_c, 1, 57, 0
1, 69610, Note_on_c, 0, 69, 0
1, 69624, Note_on_c, 0, 69, 75
1, 69634, Note_on_c, 0, 69, 0
1, 69648, Note_on_c, 0, 69, 75
1, 69648, Note_on_c, 1, 66, 69
1, 69648, Note_on_c, 1, 62, 69
1, 69658, Note_on_c, 0, 69, 0
1, 69668, Note_on_c, 1, 66, 0
1, 69668, Note_on_c, 1, 62, 0
1, 69672, Note_on_c, 0, 69, 75
1, 69682, Note_on_c, 0, 69, 0
1, 69696, Note_on_c, 0, 69, 75
1, 69696, Note_on_c, 1, 64, 69
1, 69696, Note_on_c, 1, 61, 69
1, 69706, Note_on_c, 0, 69, 0
1, 69716, Note_on_c, 1, 64, 0
1, 69716, Note_on_c, 1, 61, 0
1, 69720, Note_on_c, 0, 69, 75
1, 69730, Note_on_c, 0, 69, 0
1, 69744, Note_on_c, 0, 69, 75
1, 69744, Note_on_c, 1, 62, 69
1, 69744, Note_on_c, 1, 59, 69
1, 69754, Note_on_c, 0, 69, 0
1, 69764, Note_on_c, 1, 62, 0
1, 69764, Note_on_c, 1, 59, 0
1, 69768, Note_on_c, 0, 69, 75
1, 69778, Note_on_c, 0, 69, 0
1, 69792, Note_on_c, 0, 69, 75
1, 69792, Note_on_c, 1, 61, 69
1, 69792, Note_on_c, 1, 57, 69
1, 69802, Note_on_c, 0, 69, 0
1, 69812, Note_on_c, 1, 61, 0
1, 69812, Note_on_c, 1, 57, 0
1, 69816, Note_on_c, 0, 69, 75
1, 69826, Note_on_c, 0, 69, 0
1, 69840, Note_on_c, 0, 69, 75
1, 69840, Note_on_c, 1, 59, 69
1, 69840, Note_on_c, 1, 55, 69
1, 69850, Note_on_c, 0, 69, 0
1, 69860, Note_on_c, 1, 59, 0
1, 69860, Note_on_c, 1, 55, 0
1, 69864, Note_on_c, 0, 69, 75
1, 69874, Note_on_c, 0, 69, 0
1, 69888, Note_on_c, 0, 74, 75
1, 69888, Note_on_c, 1, 57, 69
1, 69888, Note_on_c, 1, 54, 69
1, 69912, Note_on_c, 0, 74, 0
1, 69912, Note_on_c, 0, 62, 75
1, 69935, Note_on_c, 0, 62, 0
1, 69936, Note_on_c, 0, 74, 75
1, 69946, Note_on_c, 0, 74, 0
1, 69960, Note_on_c, 0, 74, 75
1, 69970, Note_on_c, 0, 74, 0
1, 69977, Note_on_c, 1, 57, 0
1, 69977, Note_on_c, 1, 54, 0
1, 69984, Note_on_c, 0, 74, 75
1, 69994, Note_on_c, 0, 74, 0
1, 70008, Note_on_c, 0, 74, 75
1, 70018, Note_on_c, 0, 74, 0
1, 70032, Note_on_c, 0, 74, 75
1, 70032, Note_on_c, 1, 71, 69
1, 70032, Note_on_c, 1, 67, 69
1, 70042, Note_on_c, 0, 74, 0
1, 70052, Note_on_c, 1, 71, 0
1, 70052, Note_on_c, 1, 67, 0
1, 70056, Note_on_c, 0, 74, 75
1, 70066, Note_on_c, 0, 74, 0
1, 70080, Note_on_c, 0, 74, 75
1, 70080, Note_on_c, 1, 69, 69
1, 70080, Note_on_c, 1, 66, 69
1, 70090, Note_on_c, 0, 74, 0
1, 70100, Note_on_c, 1, 69, 0
1, 70100, Note_on_c, 1, 66, 0
1, 70104, Note_on_c, 0, 74, 75
1, 70114, Note_on_c, 0, 74, 0
1, 70128, Note_on_c, 0, 74, 75
1, 70128, Note_on_c, 1, 67, 69
1, 70128, Note_on_c, 1, 64, 69
1, 70138, Note_on_c, 0, 74, 0
1, 70148, Note_on_c, 1, 67, 0
1, 70148, Note_on_c, 1, 64, 0
1, 70152, Note_on_c, 0, 74, 75
1, 70162, Note_on_c, 0, 74, 0
1, 70176, Note_on_c, 0, 74, 75
1, 70176, Note_on_c, 1, 66, 69
1, 70176, Note_on_c, 1, 62, 69
1, 70186, Note_on_c, 0, 74, 0
1, 70196, Note_on_c, 1, 66, 0
1, 70196, Note_on_c, 1, 62, 0
1, 70200, Note_on_c, 0, 74, 75
1, 70210, Note_on_c, 0, 74, 0
1, 70224, Note_on_c, 0, 74, 75
1, 70224, Note_on_c, 1, 64, 69
1, 70224, Note_on_c, 1, 60, 69
1, 70234, Note_on_c, 0, 74, 0
1, 70244, Note_on_c, 1, 64, 0
1, 70244, Note_on_c, 1, 60, 0
1, 70248, Note_on_c, 0, 74, 75
1, 70258, Note_on_c, 0, 74, 0
1, 70272, Note_on_c, 0, 79, 75
1, 70272, Note_on_c, 1, 62, 69
1, 70272, Note_on_c, 1, 59, 69
1, 70292, Note_on_c, 1, 62, 0
1, 70292, Note_on_c, 1, 59, 0
1, 70296, Note_on_c, 0, 79, 0
1, 70296, Note_on_c, 0, 67, 75
1, 70319, Note_on_c, 0, 67, 0
1, 70320, Note_on_c, 0, 79, 75
1, 70320, Note_on_c, 1, 60, 69
1, 70320, Note_on_c, 1, 57, 69
1, 70330, Note_on_c, 0, 79, 0
1, 70340, Note_on_c, 1, 60, 0
1, 70340, Note_on_c, 1, 57, 0
1, 70344, Note_on_c, 0, 79, 75
1, 70354, Note_on_c, 0, 79, 0
1, 70368, Note_on_c, 0, 79, 75
1, 70368, Note_on_c, 1, 59, 69
1, 70368, Note_on_c, 1, 55, 69
1, 70388, Note_on_c, 1, 59, 0
1, 70388, Note_on_c, 1, 55, 0
1, 70392, Note_on_c, 0, 79, 0
1, 70392, Note_on_c, 0, 67, 75
1, 70415, Note_on_c, 0, 67, 0
1, 70416, Note_on_c, 0, 79, 75
1, 70416, Note_on_c, 1, 57, 69
1, 70416, Note_on_c, 1, 54, 69
1, 70426, Note_on_c, 0, 79, 0
1, 70436, Note_on_c, 1, 57, 0
1, 70436, Note_on_c, 1, 54, 0
1, 70440, Note_on_c, 0, 79, 75
1, 70450, Note_on_c, 0, 79, 0
1, 70464, Note_on_c, 0, 79, 75
1, 70464, Note_on_c, 1, 55, 69
1, 70464, Note_on_c, 1, 52, 69
1, 70484, Note_on_c, 1, 55, 0
1, 70484, Note_on_c, 1, 52, 0
1, 70488, Note_on_c, 0, 79, 0
1, 70488, Note_on_c, 0, 71, 75
1, 70511, Note_on_c, 0, 71, 0
1, 70512, Note_on_c, 0, 79, 75
1, 70512, Note_on_c, 1, 54, 69
1, 70512, Note_on_c, 1, 50, 69
1, 70522, Note_on_c, 0, 79, 0
1, 70532, Note_on_c, 1, 54, 0
1, 70532, Note_on_c, 1, 50, 0
1, 70536, Note_on_c, 0, 79, 75
1, 70546, Note_on_c, 0, 79, 0
1, 70560, Note_on_c, 0, 79, 75
1, 70560, Note_on_c, 1, 57, 75
1, 70560, Note_on_c, 1, 52, 75
1, 70560, Note_on_c, 1, 49, 75
1, 70584, Note_on_c, 0, 79, 0
1, 70584, Note_on_c, 0, 69, 75
1, 70607, Note_on_c, 0, 69, 0
1, 70608, Note_on_c, 0, 79, 76
1, 70618, Note_on_c, 0, 79, 0
1, 70632, Note_on_c, 0, 79, 77
1, 70642, Note_on_c, 0, 79, 0
1, 70649, Note_on_c, 1, 57, 0
1, 70649, Note_on_c, 1, 52, 0
1, 70649, Note_on_c, 1, 49, 0
1, 70656, Note_on_c, 0, 78, 77
1, 70656, Note_on_c, 1, 57, 77
1, 70656, Note_on_c, 1, 54, 77
1, 70656, Note_on_c, 1, 50, 77
1, 70680, Note_on_c, 0, 78, 0
1, 70680, Note_on_c, 0, 69, 78
1, 70703, Note_on_c, 0, 69, 0
1, 70704, Note_on_c, 0, 78, 79
1, 70714, Note_on_c, 0, 78, 0
1, 70728, Note_on_c, 0, 78, 79
1, 70745, Note_on_c, 1, 57, 0
1, 70745, Note_on_c, 1, 54, 0
1, 70745, Note_on_c, 1, 50, 0
1, 70752, Note_on_c, 0, 78, 0
1, 70752, Note_on_c, 0, 79, 80
1, 70752, Note_on_c, 1, 57, 79
1, 70752, Note_on_c, 1, 52, 79
1, 70752, Note_on_c, 1, 49, 79
1, 70775, Note_on_c, 0, 79, 0
1, 70776, Note_on_c, 0, 69, 81
1, 70799, Note_on_c, 0, 69, 0
1, 70800, Note_on_c, 0, 79, 81
1, 70810, Note_on_c, 0, 79, 0
1, 70824, Note_on_c, 0, 79, 82
1, 70841, Note_on_c, 1, 57, 0
1, 70841, Note_on_c, 1, 52, 0
1, 70841, Note_on_c, 1, 49, 0
1, 70848, Note_on_c, 0, 79, 0
1, 70848, Note_on_c, 0, 77, 83
1, 70848, Note_on_c, 1, 57, 81
1, 70848, Note_on_c, 1, 53, 81
1, 70848, Note_on_c, 1, 50, 81
1, 70871, Note_on_c, 0, 77, 0
1, 70872, Note_on_c, 0, 65, 84
1, 70895, Note_on_c, 0, 65, 0
1, 70896, Note_on_c, 0, 77, 84
1, 70906, Note_on_c, 0, 77, 0
1, 70920, Note_on_c, 0, 77, 84
1, 70937, Note_on_c, 1, 57, 0
1, 70937, Note_on_c, 1, 53, 0
1, 70937, Note_on_c, 1, 50, 0
1, 70943, Note_on_c, 0, 77, 0
1, 70944, Note_on_c, 0, 77, 84
1, 70968, Note_on_c, 0, 77, 0
1, 70968, Note_on_c, 0, 65, 84
1, 70991, Note_on_c, 0, 65, 0
1, 70992, Note_on_c, 0, 77, 84
1, 71002, Note_on_c, 0, 77, 0
1, 71016, Note_on_c, 0, 77, 84
1, 71026, Note_on_c, 0, 77, 0
1, 71040, Note_on_c, 0, 77, 69
1, 71040, Note_on_c, 1, 50, 84
1, 71040, Note_on_c, 1, 38, 84
1, 71064, Note_on_c, 0, 77, 0
1, 71064, Note_on_c, 0, 76, 69
1, 71085, Note_on_c, 1, 50, 0
1, 71085, Note_on_c, 1, 38, 0
1, 71087, Note_on_c, 0, 76, 0
1, 71088, Note_on_c, 0, 76, 69
1, 71088, Note_on_c, 1, 65, 61
1, 71088, Note_on_c, 1, 62, 61
1, 71112, Note_on_c, 0, 76, 0
1, 71112, Note_on_c, 0, 74, 69
1, 71135, Note_on_c, 0, 74, 0
1, 71135, Note_on_c, 1, 65, 0
1, 71135, Note_on_c, 1, 62, 0
1, 71136, Note_on_c, 0, 74, 69
1, 71136, Note_on_c, 1, 65, 61
1, 71136, Note_on_c, 1, 62, 61
1, 71160, Note_on_c, 0, 74, 0
1, 71160, Note_on_c, 0, 72, 69
1, 71183, Note_on_c, 0, 72, 0
1, 71183, Note_on_c, 1, 65, 0
1, 71183, Note_on_c, 1, 62, 0
1, 71184, Note_on_c, 0, 72, 69
1, 71184, Note_on_c, 1, 65, 61
1, 71184, Note_on_c, 1, 62, 61
1, 71208, Note_on_c, 0, 72, 0
1, 71208, Note_on_c, 0, 70, 69
1, 71231, Note_on_c, 0, 70, 0
1, 71231, Note_on_c, 1, 65, 0
1, 71231, Note_on_c, 1, 62, 0
1, 71232, Note_on_c, 0, 70, 69
1, 71232, Note_on_c, 1, 65, 61
1, 71232, Note_on_c, 1, 62, 61
1, 71247, Note_on_c, 0, 70, 0
1, 71248, Note_on_c, 0, 74, 69
1, 71263, Note_on_c, 0, 74, 0
1, 71264, Note_on_c, 0, 77, 69
1, 71279, Note_on_c, 0, 77, 0
1, 71279, Note_on_c, 1, 65, 0
1, 71279, Note_on_c, 1, 62, 0
1, 71280, Note_on_c, 0, 70, 69
1, 71280, Note_on_c, 1, 65, 61
1, 71280, Note_on_c, 1, 62, 61
1, 71295, Note_on_c, 0, 70, 0
1, 71296, Note_on_c, 0, 74, 69
1, 71311, Note_on_c, 0, 74, 0
1, 71312, Note_on_c, 0, 77, 69
1, 71327, Note_on_c, 0, 77, 0
1, 71327, Note_on_c, 1, 65, 0
1, 71327, Note_on_c, 1, 62, 0
1, 71328, Note_on_c, 0, 70, 69
1, 71328, Note_on_c, 1, 65, 61
1, 71328, Note_on_c, 1, 62, 61
1, 71373, Note_on_c, 0, 70, 0
1, 71375, Note_on_c, 1, 65, 0
1, 71375, Note_on_c, 1, 62, 0
1, 71376, Note_on_c, 1, 65, 61
1, 71376, Note_on_c, 1, 62, 61
1, 71423, Note_on_c, 1, 65, 0
1, 71423, Note_on_c, 1, 62, 0
1, 71424, Note_on_c, 0, 77, 69
1, 71424, Note_on_c, 1, 65, 61
1, 71424, Note_on_c, 1, 62, 61
1, 71436, Note_on_c, 0, 77, 0
1, 71436, Note_on_c, 0, 82, 69
1, 71448, Note_on_c, 0, 82, 0
1, 71448, Note_on_c, 0, 86, 69
1, 71472, Note_on_c, 0, 86, 0
1, 71472, Note_on_c, 0, 74, 69
1, 71484, Note_on_c, 0, 74, 0
1, 71484, Note_on_c, 0, 77, 69
1, 71496, Note_on_c, 0, 77, 0
1, 71496, Note_on_c, 0, 82, 69
1, 71513, Note_on_c, 1, 65, 0
1, 71513, Note_on_c, 1, 62, 0
1, 71520, Note_on_c, 0, 82, 0
1, 71520, Note_on_c, 0, 70, 69
1, 71532, Note_on_c, 0, 70, 0
1, 71532, Note_on_c, 0, 74, 69
1, 71544, Note_on_c, 0, 74, 0
1, 71544, Note_on_c, 0, 77, 69
1, 71568, Note_on_c, 0, 77, 0
1, 71568, Note_on_c, 0, 65, 69
1, 71580, Note_on_c, 0, 65, 0
1, 71580, Note_on_c, 0, 70, 69
1, 71592, Note_on_c, 0, 70, 0
1, 71592, Note_on_c, 0, 74, 69
1, 71616, Note_on_c, 0, 74, 0
1, 71616, Note_on_c, 0, 62, 69
1, 71628, Note_on_c, 0, 62, 0
1, 71628, Note_on_c, 0, 65, 69
1, 71640, Note_on_c, 0, 65, 0
1, 71640, Note_on_c, 0, 70, 69
1, 71664, Note_on_c, 0, 70, 0
1, 71664, Note_on_c, 0, 58, 69
1, 71676, Note_on_c, 0, 58, 0
1, 71676, Note_on_c, 0, 62, 69
1, 71688, Note_on_c, 0, 62, 0
1, 71688, Note_on_c, 0, 65, 69
1, 71712, Note_on_c, 0, 65, 0
1, 71712, Note_on_c, 0, 53, 69
1, 71724, Note_on_c, 0, 53, 0
1, 71724, Note_on_c, 0, 58, 69
1, 71736, Note_on_c, 0, 58, 0
1, 71736, Note_on_c, 0, 62, 69
1, 71760, Note_on_c, 0, 62, 0
1, 71760, Note_on_c, 0, 50, 69
1, 71772, Note_on_c, 0, 50, 0
1, 71772, Note_on_c, 0, 53, 69
1, 71784, Note_on_c, 0, 53, 0
1, 71784, Note_on_c, 0, 58, 69
1, 71808, Note_on_c, 0, 58, 0
1, 71808, Note_on_c, 1, 46, 61
1, 71808, Note_on_c, 1, 34, 61
1, 71832, Note_on_c, 0, 74, 61
1, 71855, Note_on_c, 0, 74, 0
1, 71856, Note_on_c, 0, 62, 61
1, 71879, Note_on_c, 0, 62, 0
1, 71880, Note_on_c, 0, 74, 62
1, 71903, Note_on_c, 0, 74, 0
1, 71904, Note_on_c, 0, 62, 63
1, 71927, Note_on_c, 0, 62, 0
1, 71928, Note_on_c, 0, 74, 63
1, 71951, Note_on_c, 0, 74, 0
1, 71952, Note_on_c, 0, 64, 64
1, 71975, Note_on_c, 0, 64, 0
1, 71976, Note_on_c, 0, 76, 65
1, 71999, Note_on_c, 0, 76, 0
1, 72000, Note_on_c, 0, 65, 66
1, 72023, Note_on_c, 0, 65, 0
1, 72024, Note_on_c, 0, 77, 66
1, 72047, Note_on_c, 0, 77, 0
1, 72048, Note_on_c, 0, 64, 67
1, 72071, Note_on_c, 0, 64, 0
1, 72072, Note_on_c, 0, 76, 68
1, 72095, Note_on_c, 0, 76, 0
1, 72096, Note_on_c, 0, 65, 69
1, 72119, Note_on_c, 0, 65, 0
1, 72120, Note_on_c, 0, 77, 69
1, 72133, Note_on_c, 1, 46, 0
1, 72133, Note_on_c, 1, 34, 0
1, 72143, Note_on_c, 0, 77, 0
1, 72144, Note_on_c, 0, 68, 70
1, 72144, Note_on_c, 1, 58, 70
1, 72144, Note_on_c, 1, 46, 70
1, 72167, Note_on_c, 0, 68, 0
1, 72168, Note_on_c, 0, 80, 71
1, 72189, Note_on_c, 1, 58, 0
1, 72189, Note_on_c, 1, 46, 0
1, 72191, Note_on_c, 0, 80, 0
1, 72192, Note_on_c, 0, 69, 72
1, 72192, Note_on_c, 1, 57, 73
1, 72198, Note_on_c, 0, 69, 0
1, 72198, Note_on_c, 0, 81, 72
1, 72216, Note_on_c, 1, 57, 0
1, 72216, Note_on_c, 1, 45, 75
1, 72239, Note_on_c, 1, 45, 0
1, 72240, Note_on_c, 1, 57, 75
1, 72250, Note_on_c, 1, 57, 0
1, 72264, Note_on_c, 1, 57, 75
1, 72274, Note_on_c, 1, 57, 0
1, 72281, Note_on_c, 0, 81, 0
1, 72288, Note_on_c, 1, 57, 75
1, 72298, Note_on_c, 1, 57, 0
1, 72312, Note_on_c, 1, 57, 75
1, 72322, Note_on_c, 1, 57, 0
1, 72336, Note_on_c, 0, 64, 75
1, 72336, Note_on_c, 0, 61, 75
1, 72336, Note_on_c, 1, 57, 75
1, 72346, Note_on_c, 1, 57, 0
1, 72356, Note_on_c, 0, 64, 0
1, 72356, Note_on_c, 0, 61, 0
1, 72360, Note_on_c, 1, 57, 75
1, 72370, Note_on_c, 1, 57, 0
1, 72384, Note_on_c, 0, 66, 75
1, 72384, Note_on_c, 0, 62, 75
1, 72384, Note_on_c, 1, 57, 75
1, 72394, Note_on_c, 1, 57, 0
1, 72404, Note_on_c, 0, 66, 0
1, 72404, Note_on_c, 0, 62, 0
1, 72408, Note_on_c, 1, 57, 75
1, 72418, Note_on_c, 1, 57, 0
1, 72432, Note_on_c, 0, 64, 75
1, 72432, Note_on_c, 0, 61, 75
1, 72432, Note_on_c, 1, 57, 75
1, 72442, Note_on_c, 1, 57, 0
1, 72452, Note_on_c, 0, 64, 0
1, 72452, Note_on_c, 0, 61, 0
1, 72456, Note_on_c, 1, 57, 75
1, 72466, Note_on_c, 1, 57, 0
1, 72480, Note_on_c, 0, 66, 75
1, 72480, Note_on_c, 0, 62, 75
1, 72480, Note_on_c, 1, 57, 75
1, 72490, Note_on_c, 1, 57, 0
1, 72500, Note_on_c, 0, 66, 0
1, 72500, Note_on_c, 0, 62, 0
1, 72504, Note_on_c, 1, 57, 75
1, 72514, Note_on_c, 1, 57, 0
1, 72528, Note_on_c, 0, 69, 75
1, 72528, Note_on_c, 0, 64, 84
1, 72528, Note_on_c, 1, 57, 75
1, 72538, Note_on_c, 1, 57, 0
1, 72540, Note_on_c, 0, 69, 0
1, 72540, Note_on_c, 0, 67, 75
1, 72548, Note_on_c, 0, 64, 0
1, 72552, Note_on_c, 0, 67, 0
1, 72552, Note_on_c, 0, 66, 75
1, 72552, Note_on_c, 1, 57, 75
1, 72562, Note_on_c, 1, 57, 0
1, 72564, Note_on_c, 0, 66, 0
1, 72564, Note_on_c, 0, 67, 75
1, 72576, Note_on_c, 0, 67, 0
1, 72576, Note_on_c, 0, 69, 75
1, 72576, Note_on_c, 0, 66, 75
1, 72576, Note_on_c, 1, 57, 75
1, 72600, Note_on_c, 1, 57, 0
1, 72600, Note_on_c, 1, 45, 75
1, 72623, Note_on_c, 1, 45, 0
1, 72624, Note_on_c, 1, 57, 75
1, 72634, Note_on_c, 1, 57, 0
1, 72648, Note_on_c, 1, 57, 75
1, 72658, Note_on_c, 1, 57, 0
1, 72665, Note_on_c, 0, 69, 0
1, 72665, Note_on_c, 0, 66, 0
1, 72672, Note_on_c, 1, 57, 75
1, 72682, Note_on_c, 1, 57, 0
1, 72696, Note_on_c, 1, 57, 75
1, 72706, Note_on_c, 1, 57, 0
1, 72720, Note_on_c, 0, 71, 75
1, 72720, Note_on_c, 0, 67, 75
1, 72720, Note_on_c, 1, 57, 75
1, 72730, Note_on_c, 1, 57, 0
1, 72740, Note_on_c, 0, 71, 0
1, 72740, Note_on_c, 0, 67, 0
1, 72744, Note_on_c, 1, 57, 75
1, 72754, Note_on_c, 1, 57, 0
1, 72768, Note_on_c, 0, 73, 75
1, 72768, Note_on_c, 0, 64, 75
1, 72768, Note_on_c, 1, 57, 75
1, 72778, Note_on_c, 1, 57, 0
1, 72788, Note_on_c, 0, 73, 0
1, 72788, Note_on_c, 0, 64, 0
1, 72792, Note_on_c, 1, 57, 75
1, 72802, Note_on_c, 1, 57, 0
1, 72816, Note_on_c, 0, 74, 75
1, 72816, Note_on_c, 0, 66, 75
1, 72816, Note_on_c, 1, 57, 75
1, 72826, Note_on_c, 1, 57, 0
1, 72836, Note_on_c, 0, 74, 0
1, 72836, Note_on_c, 0, 66, 0
1, 72840, Note_on_c, 1, 57, 75
1, 72850, Note_on_c, 1, 57, 0
1, 72864, Note_on_c, 0, 67, 75
1, 72864, Note_on_c, 0, 61, 75
1, 72864, Note_on_c, 1, 57, 75
1, 72874, Note_on_c, 1, 57, 0
1, 72884, Note_on_c, 0, 67, 0
1, 72884, Note_on_c, 0, 61, 0
1, 72888, Note_on_c, 1, 57, 75
1, 72898, Note_on_c, 1, 57, 0
1, 72912, Note_on_c, 0, 67, 75
1, 72912, Note_on_c, 0, 62, 84
1, 72912, Note_on_c, 1, 57, 75
1, 72922, Note_on_c, 1, 57, 0
1, 72924, Note_on_c, 0, 67, 0
1, 72924, Note_on_c, 0, 66, 75
1, 72932, Note_on_c, 0, 62, 0
1, 72936, Note_on_c, 0, 66, 0
1, 72936, Note_on_c, 0, 64, 75
1, 72936, Note_on_c, 1, 57, 75
1, 72946, Note_on_c, 1, 57, 0
1, 72948, Note_on_c, 0, 64, 0
1, 72948, Note_on_c, 0, 66, 75
1, 72960, Note_on_c, 0, 66, 0
1, 72960, Note_on_c, 0, 64, 75
1, 72960, Note_on_c, 0, 61, 75
1, 72960, Note_on_c, 1, 57, 75
1, 72984, Note_on_c, 1, 57, 0
1, 72984, Note_on_c, 1, 45, 75
1, 73007, Note_on_c, 1, 45, 0
1, 73008, Note_on_c, 1, 57, 75
1, 73018, Note_on_c, 1, 57, 0
1, 73032, Note_on_c, 1, 57, 75
1, 73042, Note_on_c, 1, 57, 0
1, 73049, Note_on_c, 0, 64, 0
1, 73049, Note_on_c, 0, 61, 0
1, 73056, Note_on_c, 1, 57, 75
1, 73066, Note_on_c, 1, 57, 0
1, 73080, Note_on_c, 1, 57, 75
1, 73090, Note_on_c, 1, 57, 0
1, 73104, Note_on_c, 0, 64, 75
1, 73104, Note_on_c, 0, 61, 75
1, 73104, Note_on_c, 1, 57, 75
1, 73114, Note_on_c, 1, 57, 0
1, 73124, Note_on_c, 0, 64, 0
1, 73124, Note_on_c, 0, 61, 0
1, 73128, Note_on_c, 1, 57, 75
1, 73138, Note_on_c, 1, 57, 0
1, 73152, Note_on_c, 0, 66, 75
1, 73152, Note_on_c, 0, 62, 75
1, 73152, Note_on_c, 1, 57, 75
1, 73162, Note_on_c, 1, 57, 0
1, 73172, Note_on_c, 0, 66, 0
1, 73172, Note_on_c, 0, 62, 0
1, 73176, Note_on_c, 1, 57, 75
1, 73186, Note_on_c, 1, 57, 0
1, 73200, Note_on_c, 0, 64, 75
1, 73200, Note_on_c, 0, 61, 75
1, 73200, Note_on_c, 1, 57, 75
1, 73210, Note_on_c, 1, 57, 0
1, 73220, Note_on_c, 0, 64, 0
1, 73220, Note_on_c, 0, 61, 0
1, 73224, Note_on_c, 1, 57, 75
1, 73234, Note_on_c, 1, 57, 0
1, 73248, Note_on_c, 0, 66, 75
1, 73248, Note_on_c, 0, 62, 75
1, 73248, Note_on_c, 1, 57, 75
1, 73258, Note_on_c, 1, 57, 0
1, 73268, Note_on_c, 0, 66, 0
1, 73268, Note_on_c, 0, 62, 0
1, 73272, Note_on_c, 1, 57, 75
1, 73282, Note_on_c, 1, 57, 0
1, 73296, Note_on_c, 0, 69, 75
1, 73296, Note_on_c, 0, 64, 84
1, 73296, Note_on_c, 1, 57, 75
1, 73306, Note_on_c, 1, 57, 0
1, 73308, Note_on_c, 0, 69, 0
1, 73308, Note_on_c, 0, 67, 75
1, 73320, Note_on_c, 0, 67, 0
1, 73320, Note_on_c, 0, 66, 75
1, 73320, Note_on_c, 1, 57, 75
1, 73330, Note_on_c, 1, 57, 0
1, 73332, Note_on_c, 0, 66, 0
1, 73332, Note_on_c, 0, 67, 75
1, 73341, Note_on_c, 0, 64, 0
1, 73344, Note_on_c, 0, 67, 0
1, 73344, Note_on_c, 0, 69, 75
1, 73344, Note_on_c, 0, 66, 75
1, 73344, Note_on_c, 1, 57, 75
1, 73368, Note_on_c, 1, 57, 0
1, 73368, Note_on_c, 1, 45, 75
1, 73391, Note_on_c, 1, 45, 0
1, 73392, Note_on_c, 1, 57, 75
1, 73402, Note_on_c, 1, 57, 0
1, 73416, Note_on_c, 1, 57, 75
1, 73426, Note_on_c, 1, 57, 0
1, 73433, Note_on_c, 0, 69, 0
1, 73433, Note_on_c, 0, 66, 0
1, 73440, Note_on_c, 1, 57, 75
1, 73450, Note_on_c, 1, 57, 0
1, 73464, Note_on_c, 1, 57, 75
1, 73474, Note_on_c, 1, 57, 0
1, 73488, Note_on_c, 0, 71, 75
1, 73488, Note_on_c, 0, 67, 75
1, 73488, Note_on_c, 1, 57, 75
1, 73498, Note_on_c, 1, 57, 0
1, 73508, Note_on_c, 0, 71, 0
1, 73508, Note_on_c, 0, 67, 0
1, 73512, Note_on_c, 1, 57, 75
1, 73522, Note_on_c, 1, 57, 0
1, 73536, Note_on_c, 0, 73, 75
1, 73536, Note_on_c, 0, 64, 75
1, 73536, Note_on_c, 1, 57, 75
1, 73546, Note_on_c, 1, 57, 0
1, 73556, Note_on_c, 0, 73, 0
1, 73556, Note_on_c, 0, 64, 0
1, 73560, Note_on_c, 1, 57, 75
1, 73570, Note_on_c, 1, 57, 0
1, 73584, Note_on_c, 0, 74, 75
1, 73584, Note_on_c, 0, 66, 75
1, 73584, Note_on_c, 1, 57, 75
1, 73594, Note_on_c, 1, 57, 0
1, 73604, Note_on_c, 0, 74, 0
1, 73604, Note_on_c, 0, 66, 0
1, 73608, Note_on_c, 1, 57, 75
1, 73618, Note_on_c, 1, 57, 0
1, 73632, Note_on_c, 0, 76, 75
1, 73632, Note_on_c, 0, 73, 75
1, 73632, Note_on_c, 1, 57, 75
1, 73642, Note_on_c, 1, 57, 0
1, 73652, Note_on_c, 0, 76, 0
1, 73652, Note_on_c, 0, 73, 0
1, 73656, Note_on_c, 1, 57, 75
1, 73666, Note_on_c, 1, 57, 0
1, 73680, Note_on_c, 0, 79, 75
1, 73680, Note_on_c, 0, 74, 84
1, 73680, Note_on_c, 1, 57, 75
1, 73690, Note_on_c, 1, 57, 0
1, 73692, Note_on_c, 0, 79, 0
1, 73692, Note_on_c, 0, 78, 75
1, 73704, Note_on_c, 0, 78, 0
1, 73704, Note_on_c, 0, 76, 75
1, 73704, Note_on_c, 1, 57, 75
1, 73714, Note_on_c, 1, 57, 0
1, 73716, Note_on_c, 0, 76, 0
1, 73716, Note_on_c, 0, 78, 75
1, 73725, Note_on_c, 0, 74, 0
1, 73728, Note_on_c, 0, 78, 0
1, 73728, Note_on_c, 0, 79, 75
1, 73728, Note_on_c, 0, 76, 75
1, 73728, Note_on_c, 1, 57, 75
1, 73752, Note_on_c, 1, 57, 0
1, 73752, Note_on_c, 1, 45, 75
1, 73775, Note_on_c, 1, 45, 0
1, 73776, Note_on_c, 1, 57, 75
1, 73786, Note_on_c, 1, 57, 0
1, 73800, Note_on_c, 1, 57, 75
1, 73810, Note_on_c, 1, 57, 0
1, 73817, Note_on_c, 0, 79, 0
1, 73817, Note_on_c, 0, 76, 0
1, 73824, Note_on_c, 1, 57, 75
1, 73869, Note_on_c, 1, 57, 0
1, 73872, Note_on_c, 0, 79, 75
1, 73884, Note_on_c, 0, 79, 0
1, 73884, Note_on_c, 0, 78, 75
1, 73896, Note_on_c, 0, 78, 0
1, 73896, Note_on_c, 0, 76, 75
1, 73908, Note_on_c, 0, 76, 0
1, 73908, Note_on_c, 0, 74, 75
1, 73920, Note_on_c, 0, 74, 0
1, 73920, Note_on_c, 0, 73, 75
1, 73968, Note_on_c, 1, 67, 61
1, 73968, Note_on_c, 1, 64, 61
1, 73968, Note_on_c, 1, 57, 61
1, 73988, Note_on_c, 1, 67, 0
1, 73988, Note_on_c, 1, 64, 0
1, 73988, Note_on_c, 1, 57, 0
1, 74009, Note_on_c, 0, 73, 0
1, 74016, Note_on_c, 1, 67, 61
1, 74016, Note_on_c, 1, 64, 61
1, 74016, Note_on_c, 1, 57, 61
1, 74063, Note_on_c, 1, 67, 0
1, 74063, Note_on_c, 1, 64, 0
1, 74063, Note_on_c, 1, 57, 0
1, 74064, Note_on_c, 0, 76, 75
1, 74076, Note_on_c, 0, 76, 0
1, 74076, Note_on_c, 0, 73, 75
1, 74088, Note_on_c, 0, 73, 0
1, 74088, Note_on_c, 0, 71, 75
1, 74100, Note_on_c, 0, 71, 0
1, 74100, Note_on_c, 0, 69, 75
1, 74112, Note_on_c, 0, 69, 0
1, 74112, Note_on_c, 0, 74, 75
1, 74160, Note_on_c, 1, 62, 61
1, 74160, Note_on_c, 1, 57, 61
1, 74160, Note_on_c, 1, 54, 61
1, 74180, Note_on_c, 1, 62, 0
1, 74180, Note_on_c, 1, 57, 0
1, 74180, Note_on_c, 1, 54, 0
1, 74201, Note_on_c, 0, 74, 0
1, 74208, Note_on_c, 1, 62, 61
1, 74208, Note_on_c, 1, 57, 61
1, 74208, Note_on_c, 1, 54, 61
1, 74255, Note_on_c, 1, 62, 0
1, 74255, Note_on_c, 1, 57, 0
1, 74255, Note_on_c, 1, 54, 0
1, 74256, Note_on_c, 0, 79, 75
1, 74268, Note_on_c, 0, 79, 0
1, 74268, Note_on_c, 0, 78, 75
1, 74280, Note_on_c, 0, 78, 0
1, 74280, Note_on_c, 0, 76, 75
1, 74292, Note_on_c, 0, 76, 0
1, 74292, Note_on_c, 0, 74, 75
1, 74304, Note_on_c, 0, 74, 0
1, 74304, Note_on_c, 0, 73, 75
1, 74352, Note_on_c, 1, 67, 61
1, 74352, Note_on_c, 1, 64, 61
1, 74352, Note_on_c, 1, 57, 61
1, 74372, Note_on_c, 1, 67, 0
1, 74372, Note_on_c, 1, 64, 0
1, 74372, Note_on_c, 1, 57, 0
1, 74393, Note_on_c, 0, 73, 0
1, 74400, Note_on_c, 1, 67, 61
1, 74400, Note_on_c, 1, 64, 61
1, 74400, Note_on_c, 1, 57, 61
1, 74447, Note_on_c, 1, 67, 0
1, 74447, Note_on_c, 1, 64, 0
1, 74447, Note_on_c, 1, 57, 0
1, 74448, Note_on_c, 0, 76, 75
1, 74460, Note_on_c, 0, 76, 0
1, 74460, Note_on_c, 0, 73, 75
1, 74472, Note_on_c, 0, 73, 0
1, 74472, Note_on_c, 0, 71, 75
1, 74484, Note_on_c, 0, 71, 0
1, 74484, Note_on_c, 0, 69, 75
1, 74496, Note_on_c, 0, 69, 0
1, 74496, Note_on_c, 0, 74, 75
1, 74496, Note_on_c, 1, 62, 75
1, 74496, Note_on_c, 1, 54, 75
1, 74516, Note_on_c, 0, 74, 0
1, 74541, Note_on_c, 1, 62, 0
1, 74541, Note_on_c, 1, 54, 0
1, 74544, Note_on_c, 0, 78, 75
1, 74556, Note_on_c, 0, 78, 0
1, 74556, Note_on_c, 0, 76, 75
1, 74568, Note_on_c, 0, 76, 0
1, 74568, Note_on_c, 0, 74, 75
1, 74580, Note_on_c, 0, 74, 0
1, 74580, Note_on_c, 0, 73, 75
1, 74592, Note_on_c, 0, 73, 0
1, 74592, Note_on_c, 0, 71, 75
1, 74592, Note_on_c, 1, 62, 75
1, 74592, Note_on_c, 1, 59, 75
1, 74592, Note_on_c, 1, 55, 75
1, 74612, Note_on_c, 0, 71, 0
1, 74637, Note_on_c, 1, 62, 0
1, 74637, Note_on_c, 1, 59, 0
1, 74637, Note_on_c, 1, 55, 0
1, 74640, Note_on_c, 0, 74, 75
1, 74652, Note_on_c, 0, 74, 0
1, 74652, Note_on_c, 0, 73, 75
1, 74664, Note_on_c, 0, 73, 0
1, 74664, Note_on_c, 0, 71, 75
1, 74676, Note_on_c, 0, 71, 0
1, 74676, Note_on_c, 0, 69, 75
1, 74688, Note_on_c, 0, 69, 0
1, 74688, Note_on_c, 0, 67, 75
1, 74688, Note_on_c, 1, 55, 75
1, 74688, Note_on_c, 1, 43, 75
1, 74708, Note_on_c, 0, 67, 0
1, 74733, Note_on_c, 1, 55, 0
1, 74733, Note_on_c, 1, 43, 0
1, 74736, Note_on_c, 0, 71, 75
1, 74748, Note_on_c, 0, 71, 0
1, 74748, Note_on_c, 0, 69, 75
1, 74760, Note_on_c, 0, 69, 0
1, 74760, Note_on_c, 0, 67, 75
1, 74772, Note_on_c, 0, 67, 0
1, 74772, Note_on_c, 0, 66, 75
1, 74784, Note_on_c, 0, 66, 0
1, 74784, Note_on_c, 0, 64, 75
1, 74784, Note_on_c, 1, 43, 75
1, 74784, Note_on_c, 1, 31, 75
1, 74804, Note_on_c, 0, 64, 0
1, 74829, Note_on_c, 1, 43, 0
1, 74829, Note_on_c, 1, 31, 0
1, 74832, Note_on_c, 0, 83, 75
1, 74844, Note_on_c, 0, 83, 0
1, 74844, Note_on_c, 0, 79, 75
1, 74856, Note_on_c, 0, 79, 0
1, 74856, Note_on_c, 0, 78, 75
1, 74868, Note_on_c, 0, 78, 0
1, 74868, Note_on_c, 0, 76, 75
1, 74880, Note_on_c, 0, 76, 0
1, 74880, Note_on_c, 0, 81, 75
1, 74900, Note_on_c, 0, 81, 0
1, 74928, Note_on_c, 0, 79, 75
1, 74928, Note_on_c, 1, 62, 75
1, 74928, Note_on_c, 1, 54, 64
1, 74940, Note_on_c, 0, 79, 0
1, 74940, Note_on_c, 0, 78, 75
1, 74952, Note_on_c, 0, 78, 0
1, 74952, Note_on_c, 0, 76, 75
1, 74964, Note_on_c, 0, 76, 0
1, 74964, Note_on_c, 0, 74, 75
1, 74973, Note_on_c, 1, 54, 0
1, 74976, Note_on_c, 0, 74, 0
1, 74976, Note_on_c, 0, 76, 75
1, 74976, Note_on_c, 1, 55, 64
1, 74985, Note_on_c, 0, 76, 0
1, 74985, Note_on_c, 0, 78, 75
1, 74994, Note_on_c, 0, 78, 0
1, 74994, Note_on_c, 0, 76, 75
1, 75003, Note_on_c, 0, 76, 0
1, 75003, Note_on_c, 0, 78, 75
1, 75012, Note_on_c, 0, 78, 0
1, 75012, Note_on_c, 0, 76, 75
1, 75017, Note_on_c, 1, 62, 0
1, 75021, Note_on_c, 0, 76, 0
1, 75021, Note_on_c, 0, 78, 75
1, 75021, Note_on_c, 1, 55, 0
1, 75024, Note_on_c, 1, 61, 75
1, 75024, Note_on_c, 1, 57, 64
1, 75030, Note_on_c, 0, 78, 0
1, 75030, Note_on_c, 0, 76, 75
1, 75039, Note_on_c, 0, 76, 0
1, 75039, Note_on_c, 0, 78, 75
1, 75048, Note_on_c, 0, 78, 0
1, 75048, Note_on_c, 0, 76, 75
1, 75056, Note_on_c, 0, 76, 0
1, 75056, Note_on_c, 0, 74, 75
1, 75064, Note_on_c, 0, 74, 0
1, 75064, Note_on_c, 0, 76, 75
1, 75069, Note_on_c, 1, 61, 0
1, 75069, Note_on_c, 1, 57, 0
1, 75072, Note_on_c, 0, 76, 0
1, 75072, Note_on_c, 0, 74, 75
1, 75072, Note_on_c, 1, 62, 61
1, 75087, Note_on_c, 1, 62, 0
1, 75088, Note_on_c, 1, 66, 61
1, 75103, Note_on_c, 1, 66, 0
1, 75104, Note_on_c, 1, 69, 61
1, 75117, Note_on_c, 0, 74, 0
1, 75119, Note_on_c, 1, 69, 0
1, 75120, Note_on_c, 1, 62, 61
1, 75135, Note_on_c, 1, 62, 0
1, 75136, Note_on_c, 1, 66, 61
1, 75151, Note_on_c, 1, 66, 0
1, 75152, Note_on_c, 1, 69, 61
1, 75167, Note_on_c, 1, 69, 0
1, 75168, Note_on_c, 0, 81, 75
1, 75168, Note_on_c, 1, 61, 61
1, 75180, Note_on_c, 0, 81, 0
1, 75180, Note_on_c, 0, 79, 75
1, 75183, Note_on_c, 1, 61, 0
1, 75184, Note_on_c, 1, 64, 61
1, 75199, Note_on_c, 1, 64, 0
1, 75200, Note_on_c, 1, 69, 61
1, 75213, Note_on_c, 0, 79, 0
1, 75215, Note_on_c, 1, 69, 0
1, 75216, Note_on_c, 0, 79, 75
1, 75216, Note_on_c, 1, 61, 61
1, 75231, Note_on_c, 1, 61, 0
1, 75232, Note_on_c, 1, 64, 61
1, 75247, Note_on_c, 1, 64, 0
1, 75248, Note_on_c, 1, 69, 61
1, 75261, Note_on_c, 0, 79, 0
1, 75263, Note_on_c, 1, 69, 0
1, 75264, Note_on_c, 0, 78, 75
1, 75264, Note_on_c, 1, 62, 61
1, 75279, Note_on_c, 1, 62, 0
1, 75280, Note_on_c, 1, 66, 61
1, 75295, Note_on_c, 1, 66, 0
1, 75296, Note_on_c, 1, 69, 61
1, 75309, Note_on_c, 0, 78, 0
1, 75311, Note_on_c, 1, 69, 0
1, 75312, Note_on_c, 1, 62, 61
1, 75327, Note_on_c, 1, 62, 0
1, 75328, Note_on_c, 1, 66, 61
1, 75343, Note_on_c, 1, 66, 0
1, 75344, Note_on_c, 1, 69, 61
1, 75359, Note_on_c, 1, 69, 0
1, 75360, Note_on_c, 0, 78, 75
1, 75360, Note_on_c, 1, 64, 61
1, 75375, Note_on_c, 1, 64, 0
1, 75376, Note_on_c, 1, 67, 61
1, 75384, Note_on_c, 0, 78, 0
1, 75384, Note_on_c, 0, 76, 75
1, 75391, Note_on_c, 1, 67, 0
1, 75392, Note_on_c, 1, 69, 61
1, 75405, Note_on_c, 0, 76, 0
1, 75407, Note_on_c, 1, 69, 0
1, 75408, Note_on_c, 0, 76, 75
1, 75408, Note_on_c, 1, 64, 61
1, 75423, Note_on_c, 1, 64, 0
1, 75424, Note_on_c, 1, 67, 61
1, 75431, Note_on_c, 0, 76, 0
1, 75432, Note_on_c, 0, 73, 75
1, 75439, Note_on_c, 1, 67, 0
1, 75440, Note_on_c, 1, 69, 61
1, 75455, Note_on_c, 0, 73, 0
1, 75455, Note_on_c, 1, 69, 0
1, 75456, Note_on_c, 0, 74, 75
1, 75456, Note_on_c, 1, 62, 61
1, 75471, Note_on_c, 1, 62, 0
1, 75472, Note_on_c, 1, 66, 61
1, 75487, Note_on_c, 1, 66, 0
1, 75488, Note_on_c, 1, 69, 61
1, 75501, Note_on_c, 0, 74, 0
1, 75503, Note_on_c, 1, 69, 0
1, 75504, Note_on_c, 1, 62, 61
1, 75519, Note_on_c, 1, 62, 0
1, 75520, Note_on_c, 1, 66, 61
1, 75535, Note_on_c, 1, 66, 0
1, 75536, Note_on_c, 1, 69, 61
1, 75551, Note_on_c, 1, 69, 0
1, 75552, Note_on_c, 0, 79, 75
1, 75552, Note_on_c, 1, 61, 61
1, 75567, Note_on_c, 0, 79, 0
1, 75567, Note_on_c, 1, 61, 0
1, 75568, Note_on_c, 0, 81, 75
1, 75568, Note_on_c, 1, 64, 61
1, 75583, Note_on_c, 0, 81, 0
1, 75583, Note_on_c, 1, 64, 0
1, 75584, Note_on_c, 0, 79, 75
1, 75584, Note_on_c, 1, 69, 61
1, 75599, Note_on_c, 0, 79, 0
1, 75599, Note_on_c, 1, 69, 0
1, 75600, Note_on_c, 0, 83, 75
1, 75600, Note_on_c, 1, 61, 61
1, 75615, Note_on_c, 0, 83, 0
1, 75615, Note_on_c, 1, 61, 0
1, 75616, Note_on_c, 0, 81, 75
1, 75616, Note_on_c, 1, 64, 61
1, 75631, Note_on_c, 0, 81, 0
1, 75631, Note_on_c, 1, 64, 0
1, 75632, Note_on_c, 0, 79, 75
1, 75632, Note_on_c, 1, 69, 61
1, 75647, Note_on_c, 0, 79, 0
1, 75647, Note_on_c, 1, 69, 0
1, 75648, Note_on_c, 0, 78, 75
1, 75648, Note_on_c, 1, 62, 61
1, 75663, Note_on_c, 1, 62, 0
1, 75664, Note_on_c, 1, 66, 61
1, 75679, Note_on_c, 1, 66, 0
1, 75680, Note_on_c, 1, 69, 61
1, 75693, Note_on_c, 0, 78, 0
1, 75695, Note_on_c, 1, 69, 0
1, 75696, Note_on_c, 1, 62, 61
1, 75711, Note_on_c, 1, 62, 0
1, 75712, Note_on_c, 1, 66, 61
1, 75727, Note_on_c, 1, 66, 0
1, 75728, Note_on_c, 1, 69, 61
1, 75743, Note_on_c, 1, 69, 0
1, 75744, Note_on_c, 0, 79, 75
1, 75744, Note_on_c, 1, 64, 61
1, 75759, Note_on_c, 0, 79, 0
1, 75759, Note_on_c, 1, 64, 0
1, 75760, Note_on_c, 0, 78, 75
1, 75760, Note_on_c, 1, 67, 61
1, 75775, Note_on_c, 0, 78, 0
1, 75775, Note_on_c, 1, 67, 0
1, 75776, Note_on_c, 0, 76, 75
1, 75776, Note_on_c, 1, 69, 61
1, 75791, Note_on_c, 0, 76, 0
1, 75791, Note_on_c, 1, 69, 0
1, 75792, Note_on_c, 0, 74, 75
1, 75792, Note_on_c, 1, 64, 61
1, 75807, Note_on_c, 0, 74, 0
1, 75807, Note_on_c, 1, 64, 0
1, 75808, Note_on_c, 0, 76, 75
1, 75808, Note_on_c, 1, 67, 61
1, 75823, Note_on_c, 0, 76, 0
1, 75823, Note_on_c, 1, 67, 0
1, 75824, Note_on_c, 0, 73, 75
1, 75824, Note_on_c, 1, 69, 61
1, 75839, Note_on_c, 0, 73, 0
1, 75839, Note_on_c, 1, 69, 0
1, 75840, Note_on_c, 0, 74, 75
1, 75840, Note_on_c, 1, 62, 61
1, 75855, Note_on_c, 1, 62, 0
1, 75856, Note_on_c, 1, 66, 61
1, 75860, Note_on_c, 0, 74, 0
1, 75871, Note_on_c, 1, 66, 0
1, 75872, Note_on_c, 1, 69, 61
1, 75887, Note_on_c, 1, 69, 0
1, 75888, Note_on_c, 0, 74, 75
1, 75888, Note_on_c, 1, 62, 61
1, 75903, Note_on_c, 1, 62, 0
1, 75904, Note_on_c, 1, 66, 61
1, 75908, Note_on_c, 0, 74, 0
1, 75919, Note_on_c, 1, 66, 0
1, 75920, Note_on_c, 1, 69, 61
1, 75935, Note_on_c, 1, 69, 0
1, 75936, Note_on_c, 0, 76, 75
1, 75936, Note_on_c, 1, 61, 61
1, 75951, Note_on_c, 1, 61, 0
1, 75952, Note_on_c, 1, 64, 61
1, 75956, Note_on_c, 0, 76, 0
1, 75967, Note_on_c, 1, 64, 0
1, 75968, Note_on_c, 1, 69, 61
1, 75983, Note_on_c, 1, 69, 0
1, 75984, Note_on_c, 0, 76, 75
1, 75984, Note_on_c, 1, 61, 61
1, 75999, Note_on_c, 1, 61, 0
1, 76000, Note_on_c, 1, 64, 61
1, 76004, Note_on_c, 0, 76, 0
1, 76015, Note_on_c, 1, 64, 0
1, 76016, Note_on_c, 1, 69, 61
1, 76031, Note_on_c, 1, 69, 0
1, 76032, Note_on_c, 0, 78, 75
1, 76032, Note_on_c, 1, 62, 61
1, 76047, Note_on_c, 1, 62, 0
1, 76048, Note_on_c, 1, 66, 61
1, 76052, Note_on_c, 0, 78, 0
1, 76063, Note_on_c, 1, 66, 0
1, 76064, Note_on_c, 1, 69, 61
1, 76079, Note_on_c, 1, 69, 0
1, 76080, Note_on_c, 0, 78, 75
1, 76080, Note_on_c, 1, 62, 61
1, 76095, Note_on_c, 1, 62, 0
1, 76096, Note_on_c, 1, 66, 61
1, 76100, Note_on_c, 0, 78, 0
1, 76111, Note_on_c, 1, 66, 0
1, 76112, Note_on_c, 1, 69, 61
1, 76127, Note_on_c, 1, 69, 0
1, 76128, Note_on_c, 0, 81, 75
1, 76128, Note_on_c, 1, 57, 61
1, 76143, Note_on_c, 1, 57, 0
1, 76144, Note_on_c, 1, 64, 61
1, 76152, Note_on_c, 0, 81, 0
1, 76152, Note_on_c, 0, 79, 75
1, 76159, Note_on_c, 1, 64, 0
1, 76160, Note_on_c, 1, 69, 61
1, 76175, Note_on_c, 0, 79, 0
1, 76175, Note_on_c, 1, 69, 0
1, 76176, Note_on_c, 0, 76, 75
1, 76176, Note_on_c, 1, 57, 61
1, 76191, Note_on_c, 1, 57, 0
1, 76192, Note_on_c, 1, 64, 61
1, 76200, Note_on_c, 0, 76, 0
1, 76200, Note_on_c, 0, 73, 75
1, 76207, Note_on_c, 1, 64, 0
1, 76208, Note_on_c, 1, 69, 61
1, 76223, Note_on_c, 0, 73, 0
1, 76223, Note_on_c, 1, 69, 0
1, 76224, Note_on_c, 0, 73, 75
1, 76224, Note_on_c, 1, 62, 61
1, 76236, Note_on_c, 0, 73, 0
1, 76236, Note_on_c, 0, 74, 75
1, 76239, Note_on_c, 1, 62, 0
1, 76240, Note_on_c, 1, 66, 61
1, 76255, Note_on_c, 1, 66, 0
1, 76256, Note_on_c, 1, 69, 61
1, 76269, Note_on_c, 0, 74, 0
1, 76271, Note_on_c, 1, 69, 0
1, 76272, Note_on_c, 0, 73, 75
1, 76272, Note_on_c, 1, 62, 61
1, 76284, Note_on_c, 0, 73, 0
1, 76284, Note_on_c, 0, 74, 75
1, 76287, Note_on_c, 1, 62, 0
1, 76288, Note_on_c, 1, 66, 61
1, 76303, Note_on_c, 1, 66, 0
1, 76304, Note_on_c, 1, 69, 61
1, 76317, Note_on_c, 0, 74, 0
1, 76319, Note_on_c, 1, 69, 0
1, 76320, Note_on_c, 0, 75, 75
1, 76320, Note_on_c, 1, 61, 61
1, 76332, Note_on_c, 0, 75, 0
1, 76332, Note_on_c, 0, 76, 75
1, 76335, Note_on_c, 1, 61, 0
1, 76336, Note_on_c, 1, 64, 61
1, 76351, Note_on_c, 1, 64, 0
1, 76352, Note_on_c, 1, 69, 61
1, 76365, Note_on_c, 0, 76, 0
1, 76367, Note_on_c, 1, 69, 0
1, 76368, Note_on_c, 0, 75, 75
1, 76368, Note_on_c, 1, 61, 61
1, 76380, Note_on_c, 0, 75, 0
1, 76380, Note_on_c, 0, 76, 75
1, 76383, Note_on_c, 1, 61, 0
1, 76384, Note_on_c, 1, 64, 61
1, 76399, Note_on_c, 1, 64, 0
1, 76400, Note_on_c, 1, 69, 61
1, 76413, Note_on_c, 0, 76, 0
1, 76415, Note_on_c, 1, 69, 0
1, 76416, Note_on_c, 0, 77, 75
1, 76416, Note_on_c, 1, 62, 61
1, 76428, Note_on_c, 0, 77, 0
1, 76428, Note_on_c, 0, 78, 75
1, 76431, Note_on_c, 1, 62, 0
1, 76432, Note_on_c, 1, 66, 61
1, 76447, Note_on_c, 1, 66, 0
1, 76448, Note_on_c, 1, 69, 61
1, 76461, Note_on_c, 0, 78, 0
1, 76463, Note_on_c, 1, 69, 0
1, 76464, Note_on_c, 0, 77, 75
1, 76464, Note_on_c, 1, 62, 61
1, 76476, Note_on_c, 0, 77, 0
1, 76476, Note_on_c, 0, 78, 75
1, 76479, Note_on_c, 1, 62, 0
1, 76480, Note_on_c, 1, 66, 61
1, 76495, Note_on_c, 1, 66, 0
1, 76496, Note_on_c, 1, 69, 61
1, 76509, Note_on_c, 0, 78, 0
1, 76511, Note_on_c, 1, 69, 0
1, 76512, Note_on_c, 0, 79, 75
1, 76512, Note_on_c, 1, 57, 61
1, 76521, Note_on_c, 0, 79, 0
1, 76521, Note_on_c, 0, 81, 75
1, 76527, Note_on_c, 1, 57, 0
1, 76528, Note_on_c, 1, 64, 61
1, 76530, Note_on_c, 0, 81, 0
1, 76530, Note_on_c, 0, 79, 75
1, 76539, Note_on_c, 0, 79, 0
1, 76539, Note_on_c, 0, 81, 75
1, 76543, Note_on_c, 1, 64, 0
1, 76544, Note_on_c, 1, 69, 61
1, 76548, Note_on_c, 0, 81, 0
1, 76548, Note_on_c, 0, 79, 75
1, 76557, Note_on_c, 0, 79, 0
1, 76557, Note_on_c, 0, 81, 75
1, 76559, Note_on_c, 1, 69, 0
1, 76560, Note_on_c, 1, 57, 61
1, 76566, Note_on_c, 0, 81, 0
1, 76566, Note_on_c, 0, 79, 75
1, 76575, Note_on_c, 0, 79, 0
1, 76575, Note_on_c, 0, 81, 75
1, 76575, Note_on_c, 1, 57, 0
1, 76576, Note_on_c, 1, 64, 61
1, 76584, Note_on_c, 0, 81, 0
1, 76584, Note_on_c, 0, 79, 75
1, 76591, Note_on_c, 1, 64, 0
1, 76592, Note_on_c, 0, 79, 0
1, 76592, Note_on_c, 0, 78, 75
1, 76592, Note_on_c, 1, 69, 61
1, 76600, Note_on_c, 0, 78, 0
1, 76600, Note_on_c, 0, 79, 75
1, 76607, Note_on_c, 1, 69, 0
1, 76608, Note_on_c, 0, 79, 0
1, 76608, Note_on_c, 0, 77, 75
1, 76608, Note_on_c, 1, 62, 61
1, 76620, Note_on_c, 0, 77, 0
1, 76620, Note_on_c, 0, 78, 75
1, 76623, Note_on_c, 1, 62, 0
1, 76624, Note_on_c, 1, 66, 61
1, 76639, Note_on_c, 1, 66, 0
1, 76640, Note_on_c, 1, 69, 61
1, 76653, Note_on_c, 0, 78, 0
1, 76655, Note_on_c, 1, 69, 0
1, 76656, Note_on_c, 0, 77, 75
1, 76656, Note_on_c, 1, 62, 61
1, 76668, Note_on_c, 0, 77, 0
1, 76668, Note_on_c, 0, 78, 75
1, 76671, Note_on_c, 1, 62, 0
1, 76672, Note_on_c, 1, 66, 61
1, 76687, Note_on_c, 1, 66, 0
1, 76688, Note_on_c, 1, 69, 61
1, 76701, Note_on_c, 0, 78, 0
1, 76703, Note_on_c, 1, 69, 0
1, 76704, Note_on_c, 0, 79, 75
1, 76704, Note_on_c, 1, 61, 61
1, 76713, Note_on_c, 0, 79, 0
1, 76713, Note_on_c, 0, 81, 75
1, 76719, Note_on_c, 1, 61, 0
1, 76720, Note_on_c, 1, 64, 61
1, 76722, Note_on_c, 0, 81, 0
1, 76722, Note_on_c, 0, 79, 75
1, 76731, Note_on_c, 0, 79, 0
1, 76731, Note_on_c, 0, 81, 75
1, 76735, Note_on_c, 1, 64, 0
1, 76736, Note_on_c, 1, 69, 61
1, 76740, Note_on_c, 0, 81, 0
1, 76740, Note_on_c, 0, 79, 75
1, 76749, Note_on_c, 0, 79, 0
1, 76749, Note_on_c, 0, 81, 75
1, 76751, Note_on_c, 1, 69, 0
1, 76752, Note_on_c, 1, 61, 61
1, 76758, Note_on_c, 0, 81, 0
1, 76758, Note_on_c, 0, 79, 75
1, 76767, Note_on_c, 0, 79, 0
1, 76767, Note_on_c, 0, 81, 75
1, 76767, Note_on_c, 1, 61, 0
1, 76768, Note_on_c, 1, 64, 61
1, 76776, Note_on_c, 0, 81, 0
1, 76776, Note_on_c, 0, 79, 75
1, 76783, Note_on_c, 1, 64, 0
1, 76784, Note_on_c, 0, 79, 0
1, 76784, Note_on_c, 0, 81, 75
1, 76784, Note_on_c, 1, 69, 61
1, 76792, Note_on_c, 0, 81, 0
1, 76792, Note_on_c, 0, 79, 75
1, 76799, Note_on_c, 1, 69, 0
1, 76800, Note_on_c, 0, 79, 0
1, 76800, Note_on_c, 0, 77, 75
1, 76800, Note_on_c, 1, 62, 75
1, 76815, Note_on_c, 0, 77, 0
1, 76816, Note_on_c, 0, 78, 75
1, 76831, Note_on_c, 0, 78, 0
1, 76832, Note_on_c, 0, 81, 75
1, 76845, Note_on_c, 1, 62, 0
1, 76847, Note_on_c, 0, 81, 0
1, 76848, Note_on_c, 0, 77, 75
1, 76863, Note_on_c, 0, 77, 0
1, 76864, Note_on_c, 0, 78, 75
1, 76879, Note_on_c, 0, 78, 0
1, 76880, Note_on_c, 0, 81, 75
1, 76895, Note_on_c, 0, 81, 0
1, 76896, Note_on_c, 0, 73, 75
1, 76896, Note_on_c, 1, 66, 75
1, 76911, Note_on_c, 0, 73, 0
1, 76912, Note_on_c, 0, 74, 75
1, 76927, Note_on_c, 0, 74, 0
1, 76928, Note_on_c, 0, 78, 75
1, 76941, Note_on_c, 1, 66, 0
1, 76943, Note_on_c, 0, 78, 0
1, 76944, Note_on_c, 0, 73, 75
1, 76959, Note_on_c, 0, 73, 0
1, 76960, Note_on_c, 0, 74, 75
1, 76975, Note_on_c, 0, 74, 0
1, 76976, Note_on_c, 0, 78, 75
1, 76991, Note_on_c, 0, 78, 0
1, 76992, Note_on_c, 0, 70, 75
1, 76992, Note_on_c, 1, 67, 75
1, 77007, Note_on_c, 0, 70, 0
1, 77008, Note_on_c, 0, 71, 75
1, 77023, Note_on_c, 0, 71, 0
1, 77024, Note_on_c, 0, 74, 75
1, 77037, Note_on_c, 1, 67, 0
1, 77039, Note_on_c, 0, 74, 0
1, 77040, Note_on_c, 0, 70, 75
1, 77055, Note_on_c, 0, 70, 0
1, 77056, Note_on_c, 0, 71, 75
1, 77071, Note_on_c, 0, 71, 0
1, 77072, Note_on_c, 0, 74, 75
1, 77087, Note_on_c, 0, 74, 0
1, 77088, Note_on_c, 0, 75, 75
1, 77088, Note_on_c, 1, 55, 75
1, 77103, Note_on_c, 0, 75, 0
1, 77104, Note_on_c, 0, 76, 75
1, 77119, Note_on_c, 0, 76, 0
1, 77120, Note_on_c, 0, 79, 75
1, 77133, Note_on_c, 1, 55, 0
1, 77135, Note_on_c, 0, 79, 0
1, 77136, Note_on_c, 0, 75, 75
1, 77151, Note_on_c, 0, 75, 0
1, 77152, Note_on_c, 0, 76, 75
1, 77167, Note_on_c, 0, 76, 0
1, 77168, Note_on_c, 0, 79, 75
1, 77183, Note_on_c, 0, 79, 0
1, 77184, Note_on_c, 0, 69, 75
1, 77184, Note_on_c, 1, 54, 61
1, 77199, Note_on_c, 1, 54, 0
1, 77200, Note_on_c, 1, 57, 61
1, 77215, Note_on_c, 1, 57, 0
1, 77216, Note_on_c, 1, 62, 61
1, 77231, Note_on_c, 1, 62, 0
1, 77232, Note_on_c, 1, 54, 61
1, 77247, Note_on_c, 1, 54, 0
1, 77248, Note_on_c, 1, 57, 61
1, 77263, Note_on_c, 1, 57, 0
1, 77264, Note_on_c, 1, 62, 61
1, 77273, Note_on_c, 0, 69, 0
1, 77279, Note_on_c, 1, 62, 0
1, 77280, Note_on_c, 0, 76, 75
1, 77280, Note_on_c, 1, 55, 61
1, 77289, Note_on_c, 0, 76, 0
1, 77289, Note_on_c, 0, 78, 75
1, 77295, Note_on_c, 1, 55, 0
1, 77296, Note_on_c, 1, 59, 61
1, 77298, Note_on_c, 0, 78, 0
1, 77298, Note_on_c, 0, 76, 75
1, 77307, Note_on_c, 0, 76, 0
1, 77307, Note_on_c, 0, 78, 75
1, 77311, Note_on_c, 1, 59, 0
1, 77312, Note_on_c, 1, 64, 61
1, 77316, Note_on_c, 0, 78, 0
1, 77316, Note_on_c, 0, 76, 75
1, 77325, Note_on_c, 0, 76, 0
1, 77325, Note_on_c, 0, 78, 75
1, 77327, Note_on_c, 1, 64, 0
1, 77328, Note_on_c, 1, 57, 61
1, 77334, Note_on_c, 0, 78, 0
1, 77334, Note_on_c, 0, 76, 75
1, 77343, Note_on_c, 0, 76, 0
1, 77343, Note_on_c, 0, 78, 75
1, 77343, Note_on_c, 1, 57, 0
1, 77344, Note_on_c, 1, 64, 61
1, 77352, Note_on_c, 0, 78, 0
1, 77352, Note_on_c, 0, 76, 75
1, 77359, Note_on_c, 1, 64, 0
1, 77360, Note_on_c, 0, 76, 0
1, 77360, Note_on_c, 0, 78, 75
1, 77360, Note_on_c, 1, 67, 61
1, 77368, Note_on_c, 0, 78, 0
1, 77368, Note_on_c, 0, 76, 75
1, 77375, Note_on_c, 1, 67, 0
1, 77376, Note_on_c, 0, 76, 0
1, 77376, Note_on_c, 0, 73, 75
1, 77376, Note_on_c, 1, 66, 75
1, 77376, Note_on_c, 1, 62, 75
1, 77391, Note_on_c, 0, 73, 0
1, 77392, Note_on_c, 0, 74, 75
1, 77407, Note_on_c, 0, 74, 0
1, 77408, Note_on_c, 0, 78, 75
1, 77421, Note_on_c, 1, 66, 0
1, 77421, Note_on_c, 1, 62, 0
1, 77423, Note_on_c, 0, 78, 0
1, 77424, Note_on_c, 0, 73, 75
1, 77439, Note_on_c, 0, 73, 0
1, 77440, Note_on_c, 0, 74, 75
1, 77455, Note_on_c, 0, 74, 0
1, 77456, Note_on_c, 0, 78, 75
1, 77471, Note_on_c, 0, 78, 0
1, 77472, Note_on_c, 0, 70, 75
1, 77472, Note_on_c, 1, 55, 75
1, 77487, Note_on_c, 0, 70, 0
1, 77488, Note_on_c, 0, 71, 75
1, 77503, Note_on_c, 0, 71, 0
1, 77504, Note_on_c, 0, 74, 75
1, 77517, Note_on_c, 1, 55, 0
1, 77519, Note_on_c, 0, 74, 0
1, 77520, Note_on_c, 0, 70, 75
1, 77535, Note_on_c, 0, 70, 0
1, 77536, Note_on_c, 0, 71, 75
1, 77551, Note_on_c, 0, 71, 0
1, 77552, Note_on_c, 0, 74, 75
1, 77567, Note_on_c, 0, 74, 0
1, 77568, Note_on_c, 0, 66, 75
1, 77568, Note_on_c, 1, 55, 75
1, 77568, Note_on_c, 1, 43, 75
1, 77583, Note_on_c, 0, 66, 0
1, 77584, Note_on_c, 0, 67, 75
1, 77599, Note_on_c, 0, 67, 0
1, 77600, Note_on_c, 0, 71, 75
1, 77613, Note_on_c, 1, 55, 0
1, 77613, Note_on_c, 1, 43, 0
1, 77615, Note_on_c, 0, 71, 0
1, 77616, Note_on_c, 0, 66, 75
1, 77631, Note_on_c, 0, 66, 0
1, 77632, Note_on_c, 0, 67, 75
1, 77647, Note_on_c, 0, 67, 0
1, 77648, Note_on_c, 0, 71, 75
1, 77663, Note_on_c, 0, 71, 0
1, 77664, Note_on_c, 0, 63, 75
1, 77664, Note_on_c, 1, 43, 75
1, 77664, Note_on_c, 1, 31, 75
1, 77679, Note_on_c, 0, 63, 0
1, 77680, Note_on_c, 0, 64, 75
1, 77695, Note_on_c, 0, 64, 0
1, 77696, Note_on_c, 0, 67, 75
1, 77709, Note_on_c, 1, 43, 0
1, 77709, Note_on_c, 1, 31, 0
1, 77711, Note_on_c, 0, 67, 0
1, 77712, Note_on_c, 0, 63, 75
1, 77727, Note_on_c, 0, 63, 0
1, 77728, Note_on_c, 0, 64, 75
1, 77743, Note_on_c, 0, 64, 0
1, 77744, Note_on_c, 0, 67, 75
1, 77759, Note_on_c, 0, 67, 0
1, 77760, Note_on_c, 0, 57, 75
1, 77760, Note_on_c, 1, 42, 61
1, 77775, Note_on_c, 1, 42, 0
1, 77776, Note_on_c, 1, 45, 61
1, 77791, Note_on_c, 1, 45, 0
1, 77792, Note_on_c, 1, 50, 61
1, 77807, Note_on_c, 1, 50, 0
1, 77808, Note_on_c, 1, 42, 61
1, 77823, Note_on_c, 1, 42, 0
1, 77824, Note_on_c, 1, 45, 61
1, 77839, Note_on_c, 1, 45, 0
1, 77840, Note_on_c, 1, 50, 61
1, 77849, Note_on_c, 0, 57, 0
1, 77855, Note_on_c, 1, 50, 0
1, 77856, Note_on_c, 0, 64, 75
1, 77856, Note_on_c, 1, 43, 61
1, 77865, Note_on_c, 0, 64, 0
1, 77865, Note_on_c, 0, 66, 75
1, 77871, Note_on_c, 1, 43, 0
1, 77872, Note_on_c, 1, 47, 61
1, 77874, Note_on_c, 0, 66, 0
1, 77874, Note_on_c, 0, 64, 75
1, 77883, Note_on_c, 0, 64, 0
1, 77883, Note_on_c, 0, 66, 75
1, 77887, Note_on_c, 1, 47, 0
1, 77888, Note_on_c, 1, 52, 61
1, 77892, Note_on_c, 0, 66, 0
1, 77892, Note_on_c, 0, 64, 75
1, 77901, Note_on_c, 0, 64, 0
1, 77901, Note_on_c, 0, 66, 75
1, 77903, Note_on_c, 1, 52, 0
1, 77904, Note_on_c, 1, 45, 61
1, 77910, Note_on_c, 0, 66, 0
1, 77910, Note_on_c, 0, 64, 75
1, 77919, Note_on_c, 0, 64, 0
1, 77919, Note_on_c, 0, 66, 75
1, 77919, Note_on_c, 1, 45, 0
1, 77920, Note_on_c, 1, 47, 61
1, 77928, Note_on_c, 0, 66, 0
1, 77928, Note_on_c, 0, 64, 75
1, 77935, Note_on_c, 1, 47, 0
1, 77936, Note_on_c, 0, 64, 0
1, 77936, Note_on_c, 0, 62, 75
1, 77936, Note_on_c, 1, 52, 61
1, 77944, Note_on_c, 0, 62, 0
1, 77944, Note_on_c, 0, 64, 75
1, 77951, Note_on_c, 1, 52, 0
1, 77952, Note_on_c, 0, 64, 0
1, 77952, Note_on_c, 0, 62, 75
1, 77952, Note_on_c, 1, 50, 53
1, 77967, Note_on_c, 1, 50, 0
1, 77968, Note_on_c, 1, 54, 53
1, 77983, Note_on_c, 1, 54, 0
1, 77984, Note_on_c, 1, 57, 53
1, 77997, Note_on_c, 0, 62, 0
1, 77999, Note_on_c, 1, 57, 0
1, 78000, Note_on_c, 1, 50, 53
1, 78015, Note_on_c, 1, 50, 0
1, 78016, Note_on_c, 1, 54, 53
1, 78031, Note_on_c, 1, 54, 0
1, 78032, Note_on_c, 1, 57, 53
1, 78047, Note_on_c, 1, 57, 0
1, 78048, Note_on_c, 0, 69, 69
1, 78048, Note_on_c, 1, 45, 53
1, 78063, Note_on_c, 1, 45, 0
1, 78064, Note_on_c, 1, 52, 53
1, 78071, Note_on_c, 0, 69, 0
1, 78072, Note_on_c, 0, 67, 69
1, 78079, Note_on_c, 1, 52, 0
1, 78080, Note_on_c, 1, 57, 53
1, 78095, Note_on_c, 0, 67, 0
1, 78095, Note_on_c, 1, 57, 0
1, 78096, Note_on_c, 0, 64, 69
1, 78096, Note_on_c, 1, 45, 53
1, 78111, Note_on_c, 1, 45, 0
1, 78112, Note_on_c, 1, 52, 53
1, 78127, Note_on_c, 1, 52, 0
1, 78128, Note_on_c, 1, 57, 53
1, 78130, Note_on_c, 0, 64, 0
1, 78132, Note_on_c, 0, 61, 69
1, 78143, Note_on_c, 1, 57, 0
1, 78144, Note_on_c, 0, 61, 0
1, 78144, Note_on_c, 0, 62, 69
1, 78144, Note_on_c, 1, 50, 53
1, 78159, Note_on_c, 1, 50, 0
1, 78160, Note_on_c, 1, 54, 53
1, 78175, Note_on_c, 1, 54, 0
1, 78176, Note_on_c, 1, 57, 53
1, 78189, Note_on_c, 0, 62, 0
1, 78191, Note_on_c, 1, 57, 0
1, 78192, Note_on_c, 1, 50, 53
1, 78207, Note_on_c, 1, 50, 0
1, 78208, Note_on_c, 1, 54, 53
1, 78223, Note_on_c, 1, 54, 0
1, 78224, Note_on_c, 1, 57, 53
1, 78239, Note_on_c, 1, 57, 0
1, 78240, Note_on_c, 0, 81, 61
1, 78240, Note_on_c, 1, 45, 53
1, 78255, Note_on_c, 1, 45, 0
1, 78256, Note_on_c, 1, 52, 53
1, 78263, Note_on_c, 0, 81, 0
1, 78264, Note_on_c, 0, 79, 61
1, 78271, Note_on_c, 1, 52, 0
1, 78272, Note_on_c, 1, 57, 53
1, 78287, Note_on_c, 0, 79, 0
1, 78287, Note_on_c, 1, 57, 0
1, 78288, Note_on_c, 0, 76, 61
1, 78288, Note_on_c, 1, 45, 53
1, 78303, Note_on_c, 1, 45, 0
1, 78304, Note_on_c, 1, 52, 53
1, 78319, Note_on_c, 1, 52, 0
1, 78320, Note_on_c, 1, 57, 53
1, 78322, Note_on_c, 0, 76, 0
1, 78324, Note_on_c, 0, 73, 61
1, 78335, Note_on_c, 1, 57, 0
1, 78336, Note_on_c, 0, 73, 0
1, 78336, Note_on_c, 0, 74, 61
1, 78336, Note_on_c, 1, 50, 53
1, 78351, Note_on_c, 1, 50, 0
1, 78352, Note_on_c, 1, 54, 53
1, 78367, Note_on_c, 1, 54, 0
1, 78368, Note_on_c, 1, 57, 53
1, 78383, Note_on_c, 1, 57, 0
1, 78384, Note_on_c, 1, 50, 53
1, 78399, Note_on_c, 1, 50, 0
1, 78400, Note_on_c, 1, 54, 53
1, 78415, Note_on_c, 1, 54, 0
1, 78416, Note_on_c, 1, 57, 53
1, 78425, Note_on_c, 0, 74, 0
1, 78431, Note_on_c, 1, 57, 0
1, 78432, Note_on_c, 0, 38, 75
1, 78432, Note_on_c, 1, 50, 53
1, 78447, Note_on_c, 1, 50, 0
1, 78448, Note_on_c, 1, 54, 53
1, 78463, Note_on_c, 1, 54, 0
1, 78464, Note_on_c, 1, 57, 53
1, 78479, Note_on_c, 1, 57, 0
1, 78480, Note_on_c, 1, 50, 53
1, 78495, Note_on_c, 1, 50, 0
1, 78496, Note_on_c, 1, 54, 53
1, 78499, Note_on_c, 0, 38, 0
1, 78504, Note_on_c, 0, 38, 75
1, 78511, Note_on_c, 1, 54, 0
1, 78512, Note_on_c, 1, 57, 53
1, 78527, Note_on_c, 0, 38, 0
1, 78527, Note_on_c, 1, 57, 0
1, 78528, Note_on_c, 0, 38, 75
1, 78528, Note_on_c, 1, 50, 53
1, 78661, Note_on_c, 0, 38, 0
1, 78661, Note_on_c, 1, 50, 0
1, 78708, Note_on_c, 1, 50, 0
1, 78809, Note_on_c, 1, 50, 0
1, 78819, End_track
0, 0, End_of_file