0, 0, Header, 0, 1, 96
1, 0, Start_track
1, 0, Tempo, 705882
1, 0, Note_on_c, 1, 57, 70
1, 0, Note_on_c, 1, 53, 70
1, 24, Note_on_c, 0, 60, 70
1, 47, Note_on_c, 0, 60, 0
1, 48, Note_on_c, 0, 62, 70
1, 71, Note_on_c, 0, 62, 0
1, 72, Note_on_c, 0, 64, 70
1, 95, Note_on_c, 0, 64, 0
1, 96, Note_on_c, 0, 65, 70
1, 119, Note_on_c, 0, 65, 0
1, 120, Note_on_c, 0, 67, 71
1, 143, Note_on_c, 0, 67, 0
1, 144, Note_on_c, 0, 69, 72
1, 167, Note_on_c, 0, 69, 0
1, 168, Note_on_c, 0, 70, 73
1, 177, Note_on_c, 1, 57, 0
1, 177, Note_on_c, 1, 53, 0
1, 191, Note_on_c, 0, 70, 0
1, 192, Note_on_c, 0, 72, 75
1, 215, Note_on_c, 0, 72, 0
1, 216, Note_on_c, 0, 69, 73
1, 239, Note_on_c, 0, 69, 0
1, 240, Note_on_c, 0, 67, 72
1, 263, Note_on_c, 0, 67, 0
1, 264, Note_on_c, 0, 65, 71
1, 287, Note_on_c, 0, 65, 0
1, 288, Note_on_c, 0, 65, 70
1, 312, Note_on_c, 1, 48, 70
1, 335, Note_on_c, 1, 48, 0
1, 336, Note_on_c, 1, 50, 71
1, 359, Note_on_c, 1, 50, 0
1, 360, Note_on_c, 1, 52, 72
1, 383, Note_on_c, 1, 52, 0
1, 384, Note_on_c, 1, 53, 73
1, 407, Note_on_c, 1, 53, 0
1, 408, Note_on_c, 1, 55, 74
1, 431, Note_on_c, 1, 55, 0
1, 432, Note_on_c, 1, 57, 75
1, 455, Note_on_c, 1, 57, 0
1, 456, Note_on_c, 1, 58, 74
1, 479, Note_on_c, 1, 58, 0
1, 480, Note_on_c, 0, 65, 0
1, 480, Note_on_c, 0, 64, 70
1, 480, Note_on_c, 1, 60, 73
1, 503, Note_on_c, 1, 60, 0
1, 504, Note_on_c, 1, 62, 72
1, 527, Note_on_c, 1, 62, 0
1, 528, Note_on_c, 1, 60, 71
1, 551, Note_on_c, 1, 60, 0
1, 552, Note_on_c, 1, 58, 70
1, 569, Note_on_c, 0, 64, 0
1, 575, Note_on_c, 1, 58, 0
1, 576, Note_on_c, 1, 57, 70
1, 600, Note_on_c, 0, 72, 70
1, 623, Note_on_c, 0, 72, 0
1, 624, Note_on_c, 0, 70, 70
1, 647, Note_on_c, 0, 70, 0
1, 648, Note_on_c, 0, 69, 70
1, 671, Note_on_c, 0, 69, 0
1, 672, Note_on_c, 0, 67, 70
1, 695, Note_on_c, 0, 67, 0
1, 696, Note_on_c, 0, 65, 70
1, 719, Note_on_c, 0, 65, 0
1, 720, Note_on_c, 0, 64, 70
1, 743, Note_on_c, 0, 64, 0
1, 744, Note_on_c, 0, 65, 70
1, 767, Note_on_c, 0, 65, 0
1, 768, Note_on_c, 0, 77, 70
1, 791, Note_on_c, 0, 77, 0
1, 792, Note_on_c, 0, 76, 70
1, 815, Note_on_c, 0, 76, 0
1, 816, Note_on_c, 0, 74, 70
1, 839, Note_on_c, 0, 74, 0
1, 840, Note_on_c, 0, 72, 70
1, 863, Note_on_c, 0, 72, 0
1, 864, Note_on_c, 0, 72, 70
1, 887, Note_on_c, 1, 57, 0
1, 888, Note_on_c, 1, 50, 70
1, 911, Note_on_c, 1, 50, 0
1, 912, Note_on_c, 1, 52, 70
1, 935, Note_on_c, 1, 52, 0
1, 936, Note_on_c, 1, 54, 70
1, 953, Note_on_c, 0, 72, 0
1, 959, Note_on_c, 1, 54, 0
1, 960, Note_on_c, 0, 70, 70
1, 960, Note_on_c, 1, 55, 70
1, 983, Note_on_c, 1, 55, 0
1, 984, Note_on_c, 1, 57, 71
1, 1007, Note_on_c, 1, 57, 0
1, 1008, Note_on_c, 1, 58, 72
1, 1031, Note_on_c, 1, 58, 0
1, 1032, Note_on_c, 1, 60, 73
1, 1055, Note_on_c, 1, 60, 0
1, 1056, Note_on_c, 1, 58, 75
1, 1079, Note_on_c, 1, 58, 0
1, 1080, Note_on_c, 1, 57, 73
1, 1103, Note_on_c, 1, 57, 0
1, 1104, Note_on_c, 1, 55, 72
1, 1127, Note_on_c, 1, 55, 0
1, 1128, Note_on_c, 1, 53, 71
1, 1151, Note_on_c, 1, 53, 0
1, 1152, Note_on_c, 1, 52, 70
1, 1175, Note_on_c, 0, 70, 0
1, 1176, Note_on_c, 0, 67, 70
1, 1199, Note_on_c, 0, 67, 0
1, 1200, Note_on_c, 0, 69, 70
1, 1223, Note_on_c, 0, 69, 0
1, 1224, Note_on_c, 0, 70, 70
1, 1247, Note_on_c, 0, 70, 0
1, 1248, Note_on_c, 0, 72, 70
1, 1271, Note_on_c, 0, 72, 0
1, 1272, Note_on_c, 0, 74, 71
1, 1295, Note_on_c, 0, 74, 0
1, 1296, Note_on_c, 0, 76, 73
1, 1319, Note_on_c, 0, 76, 0
1, 1320, Note_on_c, 0, 77, 75
1, 1343, Note_on_c, 0, 77, 0
1, 1344, Note_on_c, 0, 79, 74
1, 1344, Note_on_c, 1, 52, 0
1, 1344, Note_on_c, 1, 48, 70
1, 1367, Note_on_c, 0, 79, 0
1, 1368, Note_on_c, 0, 76, 73
1, 1391, Note_on_c, 0, 76, 0
1, 1392, Note_on_c, 0, 72, 72
1, 1415, Note_on_c, 0, 72, 0
1, 1416, Note_on_c, 0, 70, 71
1, 1433, Note_on_c, 1, 48, 0
1, 1439, Note_on_c, 0, 70, 0
1, 1440, Note_on_c, 0, 70, 86
1, 1464, Note_on_c, 1, 50, 70
1, 1487, Note_on_c, 1, 50, 0
1, 1488, Note_on_c, 1, 52, 70
1, 1511, Note_on_c, 1, 52, 0
1, 1512, Note_on_c, 1, 53, 70
1, 1535, Note_on_c, 1, 53, 0
1, 1536, Note_on_c, 0, 70, 0
1, 1536, Note_on_c, 0, 69, 70
1, 1536, Note_on_c, 1, 55, 70
1, 1559, Note_on_c, 1, 55, 0
1, 1560, Note_on_c, 1, 57, 71
1, 1583, Note_on_c, 1, 57, 0
1, 1584, Note_on_c, 1, 58, 72
1, 1607, Note_on_c, 1, 58, 0
1, 1608, Note_on_c, 1, 60, 73
1, 1625, Note_on_c, 0, 69, 0
1, 1631, Note_on_c, 1, 60, 0
1, 1632, Note_on_c, 0, 77, 70
1, 1632, Note_on_c, 1, 62, 75
1, 1655, Note_on_c, 0, 77, 0
1, 1655, Note_on_c, 1, 62, 0
1, 1656, Note_on_c, 0, 76, 70
1, 1656, Note_on_c, 1, 60, 73
1, 1679, Note_on_c, 0, 76, 0
1, 1679, Note_on_c, 1, 60, 0
1, 1680, Note_on_c, 0, 74, 70
1, 1680, Note_on_c, 1, 58, 72
1, 1703, Note_on_c, 0, 74, 0
1, 1703, Note_on_c, 1, 58, 0
1, 1704, Note_on_c, 0, 72, 70
1, 1704, Note_on_c, 1, 57, 71
1, 1727, Note_on_c, 0, 72, 0
1, 1727, Note_on_c, 1, 57, 0
1, 1728, Note_on_c, 0, 74, 70
1, 1728, Note_on_c, 1, 58, 70
1, 1751, Note_on_c, 0, 74, 0
1, 1751, Note_on_c, 1, 58, 0
1, 1752, Note_on_c, 0, 70, 70
1, 1752, Note_on_c, 1, 62, 70
1, 1775, Note_on_c, 0, 70, 0
1, 1775, Note_on_c, 1, 62, 0
1, 1776, Note_on_c, 0, 69, 70
1, 1776, Note_on_c, 1, 60, 70
1, 1799, Note_on_c, 0, 69, 0
1, 1799, Note_on_c, 1, 60, 0
1, 1800, Note_on_c, 0, 67, 70
1, 1800, Note_on_c, 1, 58, 70
1, 1823, Note_on_c, 0, 67, 0
1, 1823, Note_on_c, 1, 58, 0
1, 1824, Note_on_c, 0, 70, 70
1, 1824, Note_on_c, 1, 60, 70
1, 1847, Note_on_c, 0, 70, 0
1, 1848, Note_on_c, 0, 69, 70
1, 1871, Note_on_c, 0, 69, 0
1, 1872, Note_on_c, 0, 72, 70
1, 1895, Note_on_c, 0, 72, 0
1, 1896, Note_on_c, 0, 65, 70
1, 1906, Note_on_c, 0, 65, 0
1, 1913, Note_on_c, 1, 60, 0
1, 1920, Note_on_c, 0, 69, 70
1, 1920, Note_on_c, 1, 48, 70
1, 1943, Note_on_c, 0, 69, 0
1, 1944, Note_on_c, 0, 67, 70
1, 1967, Note_on_c, 0, 67, 0
1, 1968, Note_on_c, 0, 65, 70
1, 1991, Note_on_c, 0, 65, 0
1, 1992, Note_on_c, 0, 64, 70
1, 2009, Note_on_c, 1, 48, 0
1, 2015, Note_on_c, 0, 64, 0
1, 2016, Note_on_c, 0, 65, 70
1, 2039, Note_on_c, 0, 65, 0
1, 2040, Note_on_c, 0, 57, 70
1, 2040, Note_on_c, 1, 41, 70
1, 2063, Note_on_c, 0, 57, 0
1, 2063, Note_on_c, 1, 41, 0
1, 2064, Note_on_c, 0, 58, 70
1, 2064, Note_on_c, 1, 43, 70
1, 2087, Note_on_c, 0, 58, 0
1, 2087, Note_on_c, 1, 43, 0
1, 2088, Note_on_c, 0, 60, 70
1, 2088, Note_on_c, 1, 45, 70
1, 2111, Note_on_c, 0, 60, 0
1, 2111, Note_on_c, 1, 45, 0
1, 2112, Note_on_c, 0, 62, 71
1, 2112, Note_on_c, 1, 46, 71
1, 2135, Note_on_c, 0, 62, 0
1, 2135, Note_on_c, 1, 46, 0
1, 2136, Note_on_c, 0, 64, 71
1, 2136, Note_on_c, 1, 48, 71
1, 2159, Note_on_c, 0, 64, 0
1, 2159, Note_on_c, 1, 48, 0
1, 2160, Note_on_c, 0, 65, 72
1, 2160, Note_on_c, 1, 50, 72
1, 2183, Note_on_c, 0, 65, 0
1, 2183, Note_on_c, 1, 50, 0
1, 2184, Note_on_c, 0, 67, 72
1, 2184, Note_on_c, 1, 52, 72
1, 2207, Note_on_c, 0, 67, 0
1, 2207, Note_on_c, 1, 52, 0
1, 2208, Note_on_c, 0, 69, 72
1, 2208, Note_on_c, 1, 53, 73
1, 2231, Note_on_c, 0, 69, 0
1, 2231, Note_on_c, 1, 53, 0
1, 2232, Note_on_c, 0, 67, 73
1, 2232, Note_on_c, 1, 52, 73
1, 2255, Note_on_c, 0, 67, 0
1, 2255, Note_on_c, 1, 52, 0
1, 2256, Note_on_c, 0, 70, 73
1, 2256, Note_on_c, 1, 55, 74
1, 2279, Note_on_c, 0, 70, 0
1, 2279, Note_on_c, 1, 55, 0
1, 2280, Note_on_c, 0, 69, 74
1, 2280, Note_on_c, 1, 53, 74
1, 2303, Note_on_c, 0, 69, 0
1, 2303, Note_on_c, 1, 53, 0
1, 2304, Note_on_c, 0, 72, 74
1, 2304, Note_on_c, 1, 57, 75
1, 2327, Note_on_c, 0, 72, 0
1, 2328, Note_on_c, 0, 65, 70
1, 2351, Note_on_c, 0, 65, 0
1, 2352, Note_on_c, 0, 67, 70
1, 2375, Note_on_c, 0, 67, 0
1, 2376, Note_on_c, 0, 69, 70
1, 2399, Note_on_c, 0, 69, 0
1, 2400, Note_on_c, 0, 70, 71
1, 2423, Note_on_c, 0, 70, 0
1, 2424, Note_on_c, 0, 72, 71
1, 2447, Note_on_c, 0, 72, 0
1, 2448, Note_on_c, 0, 74, 72
1, 2471, Note_on_c, 0, 74, 0
1, 2472, Note_on_c, 0, 76, 72
1, 2495, Note_on_c, 0, 76, 0
1, 2496, Note_on_c, 0, 77, 73
1, 2519, Note_on_c, 0, 77, 0
1, 2520, Note_on_c, 0, 79, 73
1, 2543, Note_on_c, 0, 79, 0
1, 2544, Note_on_c, 0, 81, 74
1, 2567, Note_on_c, 0, 81, 0
1, 2568, Note_on_c, 0, 77, 74
1, 2569, Note_on_c, 1, 57, 0
1, 2591, Note_on_c, 0, 77, 0
1, 2592, Note_on_c, 0, 82, 75
1, 2616, Note_on_c, 1, 55, 70
1, 2639, Note_on_c, 1, 55, 0
1, 2640, Note_on_c, 1, 57, 70
1, 2663, Note_on_c, 1, 57, 0
1, 2664, Note_on_c, 1, 58, 70
1, 2687, Note_on_c, 1, 58, 0
1, 2688, Note_on_c, 1, 60, 71
1, 2711, Note_on_c, 1, 60, 0
1, 2712, Note_on_c, 1, 62, 71
1, 2735, Note_on_c, 1, 62, 0
1, 2736, Note_on_c, 1, 64, 72
1, 2759, Note_on_c, 1, 64, 0
1, 2760, Note_on_c, 1, 66, 72
1, 2783, Note_on_c, 1, 66, 0
1, 2784, Note_on_c, 1, 67, 73
1, 2807, Note_on_c, 1, 67, 0
1, 2808, Note_on_c, 1, 69, 73
1, 2831, Note_on_c, 1, 69, 0
1, 2832, Note_on_c, 1, 70, 74
1, 2855, Note_on_c, 1, 70, 0
1, 2856, Note_on_c, 1, 67, 74
1, 2879, Note_on_c, 1, 67, 0
1, 2880, Note_on_c, 1, 64, 75
1, 2903, Note_on_c, 0, 82, 0
1, 2904, Note_on_c, 0, 84, 75
1, 2927, Note_on_c, 0, 84, 0
1, 2928, Note_on_c, 0, 82, 75
1, 2951, Note_on_c, 0, 82, 0
1, 2952, Note_on_c, 0, 81, 75
1, 2975, Note_on_c, 0, 81, 0
1, 2976, Note_on_c, 0, 79, 75
1, 2999, Note_on_c, 0, 79, 0
1, 3000, Note_on_c, 0, 77, 75
1, 3023, Note_on_c, 0, 77, 0
1, 3024, Note_on_c, 0, 76, 75
1, 3047, Note_on_c, 0, 76, 0
1, 3048, Note_on_c, 0, 74, 75
1, 3071, Note_on_c, 0, 74, 0
1, 3072, Note_on_c, 0, 72, 75
1, 3095, Note_on_c, 0, 72, 0
1, 3096, Note_on_c, 0, 79, 75
1, 3119, Note_on_c, 0, 79, 0
1, 3120, Note_on_c, 0, 72, 75
1, 3143, Note_on_c, 0, 72, 0
1, 3144, Note_on_c, 0, 70, 75
1, 3145, Note_on_c, 1, 64, 0
1, 3167, Note_on_c, 0, 70, 0
1, 3168, Note_on_c, 0, 69, 75
1, 3191, Note_on_c, 0, 69, 0
1, 3192, Note_on_c, 0, 81, 75
1, 3192, Note_on_c, 1, 65, 75
1, 3215, Note_on_c, 0, 81, 0
1, 3215, Note_on_c, 1, 65, 0
1, 3216, Note_on_c, 0, 79, 75
1, 3216, Note_on_c, 1, 64, 75
1, 3239, Note_on_c, 0, 79, 0
1, 3239, Note_on_c, 1, 64, 0
1, 3240, Note_on_c, 0, 77, 75
1, 3240, Note_on_c, 1, 62, 75
1, 3263, Note_on_c, 0, 77, 0
1, 3263, Note_on_c, 1, 62, 0
1, 3264, Note_on_c, 0, 76, 75
1, 3264, Note_on_c, 1, 60, 75
1, 3287, Note_on_c, 0, 76, 0
1, 3287, Note_on_c, 1, 60, 0
1, 3288, Note_on_c, 0, 77, 75
1, 3288, Note_on_c, 1, 62, 75
1, 3311, Note_on_c, 0, 77, 0
1, 3311, Note_on_c, 1, 62, 0
1, 3312, Note_on_c, 0, 76, 75
1, 3312, Note_on_c, 1, 60, 75
1, 3335, Note_on_c, 0, 76, 0
1, 3335, Note_on_c, 1, 60, 0
1, 3336, Note_on_c, 0, 74, 75
1, 3336, Note_on_c, 1, 58, 75
1, 3359, Note_on_c, 0, 74, 0
1, 3359, Note_on_c, 1, 58, 0
1, 3360, Note_on_c, 0, 72, 75
1, 3360, Note_on_c, 1, 57, 75
1, 3383, Note_on_c, 0, 72, 0
1, 3383, Note_on_c, 1, 57, 0
1, 3384, Note_on_c, 0, 77, 75
1, 3384, Note_on_c, 1, 53, 75
1, 3407, Note_on_c, 0, 77, 0
1, 3407, Note_on_c, 1, 53, 0
1, 3408, Note_on_c, 0, 76, 75
1, 3408, Note_on_c, 1, 55, 75
1, 3431, Note_on_c, 0, 76, 0
1, 3431, Note_on_c, 1, 55, 0
1, 3432, Note_on_c, 0, 75, 75
1, 3432, Note_on_c, 1, 57, 75
1, 3455, Note_on_c, 0, 75, 0
1, 3455, Note_on_c, 1, 57, 0
1, 3456, Note_on_c, 0, 74, 75
1, 3456, Note_on_c, 1, 58, 75
1, 3479, Note_on_c, 0, 74, 0
1, 3479, Note_on_c, 1, 58, 0
1, 3480, Note_on_c, 0, 70, 74
1, 3480, Note_on_c, 1, 62, 74
1, 3503, Note_on_c, 0, 70, 0
1, 3503, Note_on_c, 1, 62, 0
1, 3504, Note_on_c, 0, 69, 74
1, 3504, Note_on_c, 1, 60, 74
1, 3527, Note_on_c, 0, 69, 0
1, 3527, Note_on_c, 1, 60, 0
1, 3528, Note_on_c, 0, 67, 73
1, 3528, Note_on_c, 1, 58, 73
1, 3551, Note_on_c, 0, 67, 0
1, 3551, Note_on_c, 1, 58, 0
1, 3552, Note_on_c, 0, 70, 73
1, 3552, Note_on_c, 1, 60, 73
1, 3575, Note_on_c, 0, 70, 0
1, 3576, Note_on_c, 0, 69, 72
1, 3599, Note_on_c, 0, 69, 0
1, 3600, Note_on_c, 0, 72, 72
1, 3623, Note_on_c, 0, 72, 0
1, 3624, Note_on_c, 0, 65, 72
1, 3641, Note_on_c, 1, 60, 0
1, 3647, Note_on_c, 0, 65, 0
1, 3648, Note_on_c, 0, 69, 71
1, 3648, Note_on_c, 1, 48, 71
1, 3671, Note_on_c, 0, 69, 0
1, 3672, Note_on_c, 0, 67, 71
1, 3695, Note_on_c, 0, 67, 0
1, 3696, Note_on_c, 0, 65, 70
1, 3719, Note_on_c, 0, 65, 0
1, 3720, Note_on_c, 0, 64, 70
1, 3737, Note_on_c, 1, 48, 0
1, 3743, Note_on_c, 0, 64, 0
1, 3744, Note_on_c, 0, 65, 70
1, 3744, Note_on_c, 1, 53, 70
1, 3767, Note_on_c, 1, 53, 0
1, 3768, Note_on_c, 1, 57, 69
1, 3791, Note_on_c, 1, 57, 0
1, 3792, Note_on_c, 1, 55, 68
1, 3815, Note_on_c, 1, 55, 0
1, 3816, Note_on_c, 1, 58, 67
1, 3833, Note_on_c, 0, 65, 0
1, 3839, Note_on_c, 1, 58, 0
1, 3840, Note_on_c, 1, 57, 66
1, 3863, Note_on_c, 1, 57, 0
1, 3864, Note_on_c, 1, 60, 65
1, 3887, Note_on_c, 1, 60, 0
1, 3888, Note_on_c, 1, 58, 64
1, 3911, Note_on_c, 1, 58, 0
1, 3912, Note_on_c, 1, 62, 63
1, 3935, Note_on_c, 1, 62, 0
1, 3936, Note_on_c, 1, 57, 62
1, 3959, Note_on_c, 1, 57, 0
1, 3960, Note_on_c, 1, 60, 61
1, 3983, Note_on_c, 1, 60, 0
1, 3984, Note_on_c, 1, 55, 60
1, 4007, Note_on_c, 1, 55, 0
1, 4008, Note_on_c, 1, 58, 59
1, 4031, Note_on_c, 1, 58, 0
1, 4032, Note_on_c, 0, 81, 58
1, 4032, Note_on_c, 1, 53, 58
1, 4052, Note_on_c, 0, 81, 0
1, 4055, Note_on_c, 1, 53, 0
1, 4056, Note_on_c, 1, 57, 58
1, 4079, Note_on_c, 1, 57, 0
1, 4080, Note_on_c, 0, 74, 58
1, 4080, Note_on_c, 1, 55, 58
1, 4092, Note_on_c, 0, 74, 0
1, 4092, Note_on_c, 0, 73, 58
1, 4103, Note_on_c, 1, 55, 0
1, 4104, Note_on_c, 0, 73, 0
1, 4104, Note_on_c, 0, 71, 58
1, 4104, Note_on_c, 1, 58, 58
1, 4116, Note_on_c, 0, 71, 0
1, 4116, Note_on_c, 0, 73, 58
1, 4127, Note_on_c, 1, 58, 0
1, 4128, Note_on_c, 0, 73, 0
1, 4128, Note_on_c, 0, 74, 59
1, 4128, Note_on_c, 1, 53, 59
1, 4148, Note_on_c, 0, 74, 0
1, 4151, Note_on_c, 1, 53, 0
1, 4152, Note_on_c, 1, 57, 59
1, 4175, Note_on_c, 1, 57, 0
1, 4176, Note_on_c, 0, 77, 60
1, 4176, Note_on_c, 1, 49, 60
1, 4188, Note_on_c, 0, 77, 0
1, 4188, Note_on_c, 0, 76, 60
1, 4199, Note_on_c, 1, 49, 0
1, 4200, Note_on_c, 0, 76, 0
1, 4200, Note_on_c, 0, 74, 60
1, 4200, Note_on_c, 1, 57, 60
1, 4212, Note_on_c, 0, 74, 0
1, 4212, Note_on_c, 0, 76, 60
1, 4223, Note_on_c, 1, 57, 0
1, 4224, Note_on_c, 0, 76, 0
1, 4224, Note_on_c, 0, 77, 61
1, 4224, Note_on_c, 1, 50, 61
1, 4247, Note_on_c, 1, 50, 0
1, 4248, Note_on_c, 1, 57, 61
1, 4269, Note_on_c, 0, 77, 0
1, 4271, Note_on_c, 1, 57, 0
1, 4272, Note_on_c, 0, 81, 62
1, 4272, Note_on_c, 1, 53, 62
1, 4295, Note_on_c, 1, 53, 0
1, 4296, Note_on_c, 1, 57, 62
1, 4317, Note_on_c, 0, 81, 0
1, 4319, Note_on_c, 1, 57, 0
1, 4320, Note_on_c, 0, 79, 63
1, 4320, Note_on_c, 1, 52, 63
1, 4340, Note_on_c, 0, 79, 0
1, 4343, Note_on_c, 1, 52, 0
1, 4344, Note_on_c, 1, 55, 63
1, 4367, Note_on_c, 1, 55, 0
1, 4368, Note_on_c, 0, 72, 63
1, 4368, Note_on_c, 1, 53, 63
1, 4380, Note_on_c, 0, 72, 0
1, 4380, Note_on_c, 0, 71, 63
1, 4391, Note_on_c, 1, 53, 0
1, 4392, Note_on_c, 0, 71, 0
1, 4392, Note_on_c, 0, 69, 63
1, 4392, Note_on_c, 1, 55, 63
1, 4404, Note_on_c, 0, 69, 0
1, 4404, Note_on_c, 0, 71, 64
1, 4415, Note_on_c, 1, 55, 0
1, 4416, Note_on_c, 0, 71, 0
1, 4416, Note_on_c, 0, 72, 64
1, 4416, Note_on_c, 1, 52, 64
1, 4436, Note_on_c, 0, 72, 0
1, 4439, Note_on_c, 1, 52, 0
1, 4440, Note_on_c, 1, 55, 65
1, 4463, Note_on_c, 1, 55, 0
1, 4464, Note_on_c, 0, 76, 65
1, 4464, Note_on_c, 1, 47, 66
1, 4476, Note_on_c, 0, 76, 0
1, 4476, Note_on_c, 0, 74, 66
1, 4487, Note_on_c, 1, 47, 0
1, 4488, Note_on_c, 0, 74, 0
1, 4488, Note_on_c, 0, 72, 66
1, 4488, Note_on_c, 1, 55, 66
1, 4500, Note_on_c, 0, 72, 0
1, 4500, Note_on_c, 0, 74, 66
1, 4511, Note_on_c, 1, 55, 0
1, 4512, Note_on_c, 0, 74, 0
1, 4512, Note_on_c, 0, 76, 67
1, 4512, Note_on_c, 1, 48, 67
1, 4535, Note_on_c, 1, 48, 0
1, 4536, Note_on_c, 1, 55, 68
1, 4557, Note_on_c, 0, 76, 0
1, 4559, Note_on_c, 1, 55, 0
1, 4560, Note_on_c, 0, 79, 68
1, 4560, Note_on_c, 1, 52, 69
1, 4583, Note_on_c, 1, 52, 0
1, 4584, Note_on_c, 1, 55, 70
1, 4605, Note_on_c, 0, 79, 0
1, 4607, Note_on_c, 1, 55, 0
1, 4608, Note_on_c, 0, 77, 70
1, 4608, Note_on_c, 1, 50, 70
1, 4628, Note_on_c, 0, 77, 0
1, 4631, Note_on_c, 1, 50, 0
1, 4632, Note_on_c, 1, 53, 70
1, 4655, Note_on_c, 1, 53, 0
1, 4656, Note_on_c, 0, 73, 70
1, 4656, Note_on_c, 1, 52, 70
1, 4679, Note_on_c, 1, 52, 0
1, 4680, Note_on_c, 1, 55, 70
1, 4701, Note_on_c, 0, 73, 0
1, 4703, Note_on_c, 1, 55, 0
1, 4704, Note_on_c, 0, 74, 70
1, 4704, Note_on_c, 1, 53, 70
1, 4727, Note_on_c, 1, 53, 0
1, 4728, Note_on_c, 1, 57, 70
1, 4749, Note_on_c, 0, 74, 0
1, 4751, Note_on_c, 1, 57, 0
1, 4752, Note_on_c, 0, 72, 70
1, 4752, Note_on_c, 1, 54, 70
1, 4775, Note_on_c, 1, 54, 0
1, 4776, Note_on_c, 1, 57, 70
1, 4797, Note_on_c, 0, 72, 0
1, 4799, Note_on_c, 1, 57, 0
1, 4800, Note_on_c, 0, 71, 70
1, 4800, Note_on_c, 1, 55, 70
1, 4823, Note_on_c, 1, 55, 0
1, 4824, Note_on_c, 1, 59, 70
1, 4845, Note_on_c, 0, 71, 0
1, 4847, Note_on_c, 1, 59, 0
1, 4848, Note_on_c, 0, 66, 70
1, 4848, Note_on_c, 1, 57, 70
1, 4871, Note_on_c, 1, 57, 0
1, 4872, Note_on_c, 1, 60, 70
1, 4893, Note_on_c, 0, 66, 0
1, 4895, Note_on_c, 1, 60, 0
1, 4896, Note_on_c, 0, 67, 70
1, 4896, Note_on_c, 1, 59, 70
1, 4919, Note_on_c, 1, 59, 0
1, 4920, Note_on_c, 1, 62, 70
1, 4943, Note_on_c, 1, 62, 0
1, 4944, Note_on_c, 1, 57, 70
1, 4967, Note_on_c, 1, 57, 0
1, 4968, Note_on_c, 1, 60, 70
1, 4985, Note_on_c, 0, 67, 0
1, 4991, Note_on_c, 1, 60, 0
1, 4992, Note_on_c, 1, 55, 70
1, 5015, Note_on_c, 1, 55, 0
1, 5016, Note_on_c, 1, 59, 70
1, 5039, Note_on_c, 1, 59, 0
1, 5040, Note_on_c, 0, 77, 70
1, 5040, Note_on_c, 1, 57, 70
1, 5063, Note_on_c, 1, 57, 0
1, 5064, Note_on_c, 1, 60, 70
1, 5085, Note_on_c, 0, 77, 0
1, 5087, Note_on_c, 1, 60, 0
1, 5088, Note_on_c, 0, 79, 70
1, 5088, Note_on_c, 1, 59, 70
1, 5098, Note_on_c, 0, 79, 0
1, 5098, Note_on_c, 0, 77, 70
1, 5108, Note_on_c, 0, 77, 0
1, 5108, Note_on_c, 0, 79, 70
1, 5111, Note_on_c, 1, 59, 0
1, 5112, Note_on_c, 1, 62, 70
1, 5118, Note_on_c, 0, 79, 0
1, 5118, Note_on_c, 0, 77, 70
1, 5128, Note_on_c, 0, 77, 0
1, 5128, Note_on_c, 0, 79, 70
1, 5135, Note_on_c, 1, 62, 0
1, 5136, Note_on_c, 1, 55, 70
1, 5138, Note_on_c, 0, 79, 0
1, 5138, Note_on_c, 0, 77, 70
1, 5148, Note_on_c, 0, 77, 0
1, 5148, Note_on_c, 0, 79, 70
1, 5157, Note_on_c, 0, 79, 0
1, 5157, Note_on_c, 0, 77, 70
1, 5159, Note_on_c, 1, 55, 0
1, 5160, Note_on_c, 1, 59, 70
1, 5166, Note_on_c, 0, 77, 0
1, 5166, Note_on_c, 0, 76, 70
1, 5175, Note_on_c, 0, 76, 0
1, 5175, Note_on_c, 0, 77, 70
1, 5183, Note_on_c, 1, 59, 0
1, 5184, Note_on_c, 0, 77, 0
1, 5184, Note_on_c, 0, 76, 70
1, 5184, Note_on_c, 1, 60, 70
1, 5207, Note_on_c, 1, 60, 0
1, 5208, Note_on_c, 1, 64, 70
1, 5229, Note_on_c, 0, 76, 0
1, 5231, Note_on_c, 1, 64, 0
1, 5232, Note_on_c, 0, 71, 70
1, 5232, Note_on_c, 1, 62, 70
1, 5255, Note_on_c, 1, 62, 0
1, 5256, Note_on_c, 1, 65, 70
1, 5277, Note_on_c, 0, 71, 0
1, 5279, Note_on_c, 1, 65, 0
1, 5280, Note_on_c, 0, 72, 70
1, 5280, Note_on_c, 1, 64, 70
1, 5303, Note_on_c, 1, 64, 0
1, 5304, Note_on_c, 1, 67, 70
1, 5325, Note_on_c, 0, 72, 0
1, 5327, Note_on_c, 1, 67, 0
1, 5328, Note_on_c, 0, 84, 86
1, 5328, Note_on_c, 1, 60, 70
1, 5351, Note_on_c, 1, 60, 0
1, 5352, Note_on_c, 1, 64, 70
1, 5375, Note_on_c, 1, 64, 0
1, 5376, Note_on_c, 1, 62, 70
1, 5399, Note_on_c, 1, 62, 0
1, 5400, Note_on_c, 1, 65, 70
1, 5423, Note_on_c, 1, 65, 0
1, 5424, Note_on_c, 0, 84, 0
1, 5424, Note_on_c, 0, 82, 70
1, 5424, Note_on_c, 1, 64, 70
1, 5447, Note_on_c, 1, 64, 0
1, 5448, Note_on_c, 1, 67, 70
1, 5469, Note_on_c, 0, 82, 0
1, 5471, Note_on_c, 1, 67, 0
1, 5472, Note_on_c, 0, 81, 70
1, 5472, Note_on_c, 1, 65, 70
1, 5492, Note_on_c, 0, 81, 0
1, 5495, Note_on_c, 1, 65, 0
1, 5496, Note_on_c, 1, 69, 70
1, 5519, Note_on_c, 1, 69, 0
1, 5520, Note_on_c, 0, 73, 70
1, 5520, Note_on_c, 1, 67, 70
1, 5543, Note_on_c, 1, 67, 0
1, 5544, Note_on_c, 1, 70, 70
1, 5565, Note_on_c, 0, 73, 0
1, 5567, Note_on_c, 1, 70, 0
1, 5568, Note_on_c, 0, 74, 70
1, 5568, Note_on_c, 1, 65, 70
1, 5591, Note_on_c, 1, 65, 0
1, 5592, Note_on_c, 1, 69, 70
1, 5613, Note_on_c, 0, 74, 0
1, 5615, Note_on_c, 1, 69, 0
1, 5616, Note_on_c, 0, 76, 70
1, 5616, Note_on_c, 1, 64, 70
1, 5639, Note_on_c, 1, 64, 0
1, 5640, Note_on_c, 1, 67, 70
1, 5661, Note_on_c, 0, 76, 0
1, 5663, Note_on_c, 1, 67, 0
1, 5664, Note_on_c, 0, 77, 70
1, 5664, Note_on_c, 1, 62, 70
1, 5684, Note_on_c, 0, 77, 0
1, 5687, Note_on_c, 1, 62, 0
1, 5688, Note_on_c, 1, 65, 70
1, 5711, Note_on_c, 1, 65, 0
1, 5712, Note_on_c, 0, 77, 70
1, 5712, Note_on_c, 1, 60, 70
1, 5735, Note_on_c, 1, 60, 0
1, 5736, Note_on_c, 1, 64, 70
1, 5757, Note_on_c, 0, 77, 0
1, 5759, Note_on_c, 1, 64, 0
1, 5760, Note_on_c, 0, 76, 70
1, 5760, Note_on_c, 1, 59, 70
1, 5770, Note_on_c, 0, 76, 0
1, 5770, Note_on_c, 0, 77, 70
1, 5780, Note_on_c, 0, 77, 0
1, 5780, Note_on_c, 0, 79, 70
1, 5783, Note_on_c, 1, 59, 0
1, 5784, Note_on_c, 1, 62, 70
1, 5790, Note_on_c, 0, 79, 0
1, 5790, Note_on_c, 0, 77, 70
1, 5800, Note_on_c, 0, 77, 0
1, 5800, Note_on_c, 0, 79, 70
1, 5807, Note_on_c, 1, 62, 0
1, 5808, Note_on_c, 1, 57, 70
1, 5810, Note_on_c, 0, 79, 0
1, 5810, Note_on_c, 0, 77, 70
1, 5820, Note_on_c, 0, 77, 0
1, 5820, Note_on_c, 0, 79, 70
1, 5830, Note_on_c, 0, 79, 0
1, 5830, Note_on_c, 0, 77, 70
1, 5831, Note_on_c, 1, 57, 0
1, 5832, Note_on_c, 1, 60, 71
1, 5840, Note_on_c, 0, 77, 0
1, 5840, Note_on_c, 0, 79, 70
1, 5850, Note_on_c, 0, 79, 0
1, 5850, Note_on_c, 0, 77, 70
1, 5855, Note_on_c, 1, 60, 0
1, 5856, Note_on_c, 1, 55, 71
1, 5860, Note_on_c, 0, 77, 0
1, 5860, Note_on_c, 0, 79, 70
1, 5870, Note_on_c, 0, 79, 0
1, 5870, Note_on_c, 0, 77, 71
1, 5879, Note_on_c, 1, 55, 0
1, 5880, Note_on_c, 0, 77, 0
1, 5880, Note_on_c, 0, 79, 71
1, 5880, Note_on_c, 1, 59, 72
1, 5890, Note_on_c, 0, 79, 0
1, 5890, Note_on_c, 0, 77, 71
1, 5900, Note_on_c, 0, 77, 0
1, 5900, Note_on_c, 0, 79, 71
1, 5903, Note_on_c, 1, 59, 0
1, 5904, Note_on_c, 1, 57, 72
1, 5910, Note_on_c, 0, 79, 0
1, 5910, Note_on_c, 0, 77, 71
1, 5920, Note_on_c, 0, 77, 0
1, 5920, Note_on_c, 0, 79, 71
1, 5927, Note_on_c, 1, 57, 0
1, 5928, Note_on_c, 1, 60, 72
1, 5930, Note_on_c, 0, 79, 0
1, 5930, Note_on_c, 0, 77, 71
1, 5940, Note_on_c, 0, 77, 0
1, 5940, Note_on_c, 0, 79, 71
1, 5949, Note_on_c, 0, 79, 0
1, 5949, Note_on_c, 0, 77, 71
1, 5951, Note_on_c, 1, 60, 0
1, 5952, Note_on_c, 1, 59, 73
1, 5958, Note_on_c, 0, 77, 0
1, 5958, Note_on_c, 0, 79, 72
1, 5967, Note_on_c, 0, 79, 0
1, 5967, Note_on_c, 0, 77, 72
1, 5975, Note_on_c, 1, 59, 0
1, 5976, Note_on_c, 0, 77, 0
1, 5976, Note_on_c, 0, 79, 72
1, 5976, Note_on_c, 1, 62, 73
1, 5985, Note_on_c, 0, 79, 0
1, 5985, Note_on_c, 0, 77, 72
1, 5994, Note_on_c, 0, 77, 0
1, 5994, Note_on_c, 0, 79, 72
1, 5999, Note_on_c, 1, 62, 0
1, 6000, Note_on_c, 1, 55, 74
1, 6003, Note_on_c, 0, 79, 0
1, 6003, Note_on_c, 0, 77, 72
1, 6012, Note_on_c, 0, 77, 0
1, 6012, Note_on_c, 0, 76, 72
1, 6023, Note_on_c, 1, 55, 0
1, 6024, Note_on_c, 1, 59, 74
1, 6030, Note_on_c, 0, 76, 0
1, 6030, Note_on_c, 0, 77, 72
1, 6047, Note_on_c, 1, 59, 0
1, 6048, Note_on_c, 0, 77, 0
1, 6048, Note_on_c, 0, 76, 75
1, 6048, Note_on_c, 1, 60, 75
1, 6071, Note_on_c, 0, 76, 0
1, 6072, Note_on_c, 0, 79, 75
1, 6093, Note_on_c, 1, 60, 0
1, 6095, Note_on_c, 0, 79, 0
1, 6096, Note_on_c, 0, 74, 75
1, 6096, Note_on_c, 1, 62, 75
1, 6119, Note_on_c, 0, 74, 0
1, 6120, Note_on_c, 0, 77, 75
1, 6141, Note_on_c, 1, 62, 0
1, 6143, Note_on_c, 0, 77, 0
1, 6144, Note_on_c, 0, 72, 75
1, 6144, Note_on_c, 1, 64, 75
1, 6167, Note_on_c, 0, 72, 0
1, 6168, Note_on_c, 0, 76, 75
1, 6189, Note_on_c, 1, 64, 0
1, 6191, Note_on_c, 0, 76, 0
1, 6192, Note_on_c, 0, 71, 75
1, 6192, Note_on_c, 1, 65, 75
1, 6215, Note_on_c, 0, 71, 0
1, 6216, Note_on_c, 0, 74, 75
1, 6237, Note_on_c, 1, 65, 0
1, 6239, Note_on_c, 0, 74, 0
1, 6240, Note_on_c, 0, 72, 75
1, 6240, Note_on_c, 1, 64, 75
1, 6263, Note_on_c, 0, 72, 0
1, 6264, Note_on_c, 0, 76, 75
1, 6285, Note_on_c, 1, 64, 0
1, 6287, Note_on_c, 0, 76, 0
1, 6288, Note_on_c, 0, 67, 75
1, 6288, Note_on_c, 1, 52, 75
1, 6311, Note_on_c, 0, 67, 0
1, 6312, Note_on_c, 0, 70, 75
1, 6333, Note_on_c, 1, 52, 0
1, 6335, Note_on_c, 0, 70, 0
1, 6336, Note_on_c, 0, 69, 70
1, 6336, Note_on_c, 1, 53, 70
1, 6360, Note_on_c, 0, 69, 0
1, 6360, Note_on_c, 0, 81, 70
1, 6383, Note_on_c, 0, 81, 0
1, 6384, Note_on_c, 0, 77, 70
1, 6394, Note_on_c, 0, 77, 0
1, 6408, Note_on_c, 0, 74, 70
1, 6418, Note_on_c, 0, 74, 0
1, 6425, Note_on_c, 1, 53, 0
1, 6432, Note_on_c, 0, 67, 70
1, 6432, Note_on_c, 1, 55, 70
1, 6456, Note_on_c, 0, 67, 0
1, 6456, Note_on_c, 0, 79, 70
1, 6479, Note_on_c, 0, 79, 0
1, 6480, Note_on_c, 0, 76, 70
1, 6490, Note_on_c, 0, 76, 0
1, 6504, Note_on_c, 0, 72, 70
1, 6514, Note_on_c, 0, 72, 0
1, 6521, Note_on_c, 1, 55, 0
1, 6528, Note_on_c, 0, 65, 70
1, 6528, Note_on_c, 1, 43, 70
1, 6552, Note_on_c, 0, 65, 0
1, 6552, Note_on_c, 0, 77, 70
1, 6575, Note_on_c, 0, 77, 0
1, 6576, Note_on_c, 0, 74, 70
1, 6586, Note_on_c, 0, 74, 0
1, 6600, Note_on_c, 0, 71, 70
1, 6610, Note_on_c, 0, 71, 0
1, 6617, Note_on_c, 1, 43, 0
1, 6624, Note_on_c, 0, 72, 70
1, 6624, Note_on_c, 1, 36, 70
1, 6634, Note_on_c, 0, 72, 0
1, 6634, Note_on_c, 1, 36, 0
1, 6648, Note_on_c, 0, 64, 70
1, 6648, Note_on_c, 1, 48, 70
1, 6671, Note_on_c, 0, 64, 0
1, 6671, Note_on_c, 1, 48, 0
1, 6672, Note_on_c, 0, 62, 70
1, 6672, Note_on_c, 1, 47, 70
1, 6695, Note_on_c, 0, 62, 0
1, 6695, Note_on_c, 1, 47, 0
1, 6696, Note_on_c, 0, 64, 70
1, 6696, Note_on_c, 1, 48, 70
1, 6719, Note_on_c, 0, 64, 0
1, 6719, Note_on_c, 1, 48, 0
1, 6720, Note_on_c, 0, 72, 70
1, 6720, Note_on_c, 1, 38, 70
1, 6730, Note_on_c, 0, 72, 0
1, 6730, Note_on_c, 1, 38, 0
1, 6744, Note_on_c, 0, 65, 70
1, 6744, Note_on_c, 1, 50, 70
1, 6767, Note_on_c, 0, 65, 0
1, 6767, Note_on_c, 1, 50, 0
1, 6768, Note_on_c, 0, 64, 70
1, 6768, Note_on_c, 1, 48, 70
1, 6791, Note_on_c, 0, 64, 0
1, 6791, Note_on_c, 1, 48, 0
1, 6792, Note_on_c, 0, 65, 70
1, 6792, Note_on_c, 1, 50, 70
1, 6815, Note_on_c, 0, 65, 0
1, 6815, Note_on_c, 1, 50, 0
1, 6816, Note_on_c, 0, 72, 70
1, 6816, Note_on_c, 1, 40, 70
1, 6826, Note_on_c, 0, 72, 0
1, 6826, Note_on_c, 1, 40, 0
1, 6840, Note_on_c, 0, 67, 70
1, 6840, Note_on_c, 1, 52, 70
1, 6863, Note_on_c, 0, 67, 0
1, 6863, Note_on_c, 1, 52, 0
1, 6864, Note_on_c, 0, 65, 70
1, 6864, Note_on_c, 1, 50, 70
1, 6887, Note_on_c, 0, 65, 0
1, 6887, Note_on_c, 1, 50, 0
1, 6888, Note_on_c, 0, 67, 70
1, 6888, Note_on_c, 1, 52, 70
1, 6911, Note_on_c, 0, 67, 0
1, 6911, Note_on_c, 1, 52, 0
1, 6912, Note_on_c, 0, 70, 70
1, 6912, Note_on_c, 0, 65, 75
1, 6912, Note_on_c, 1, 41, 70
1, 6922, Note_on_c, 1, 41, 0
1, 6936, Note_on_c, 0, 70, 0
1, 6936, Note_on_c, 0, 69, 70
1, 6936, Note_on_c, 1, 53, 70
1, 6957, Note_on_c, 0, 65, 0
1, 6959, Note_on_c, 0, 69, 0
1, 6959, Note_on_c, 1, 53, 0
1, 6960, Note_on_c, 0, 67, 70
1, 6960, Note_on_c, 0, 64, 75
1, 6960, Note_on_c, 1, 52, 70
1, 6970, Note_on_c, 0, 67, 0
1, 6970, Note_on_c, 0, 64, 0
1, 6983, Note_on_c, 1, 52, 0
1, 6984, Note_on_c, 0, 65, 70
1, 6984, Note_on_c, 0, 62, 75
1, 6984, Note_on_c, 1, 53, 70
1, 6994, Note_on_c, 0, 65, 0
1, 6994, Note_on_c, 0, 62, 0
1, 7007, Note_on_c, 1, 53, 0
1, 7008, Note_on_c, 0, 64, 70
1, 7008, Note_on_c, 0, 60, 70
1, 7008, Note_on_c, 1, 43, 70
1, 7018, Note_on_c, 1, 43, 0
1, 7032, Note_on_c, 1, 55, 70
1, 7055, Note_on_c, 1, 55, 0
1, 7056, Note_on_c, 1, 54, 70
1, 7079, Note_on_c, 1, 54, 0
1, 7080, Note_on_c, 1, 55, 70
1, 7097, Note_on_c, 0, 64, 0
1, 7097, Note_on_c, 0, 60, 0
1, 7103, Note_on_c, 1, 55, 0
1, 7104, Note_on_c, 0, 62, 70
1, 7104, Note_on_c, 0, 59, 70
1, 7104, Note_on_c, 1, 43, 70
1, 7114, Note_on_c, 1, 43, 0
1, 7128, Note_on_c, 1, 55, 70
1, 7151, Note_on_c, 1, 55, 0
1, 7152, Note_on_c, 1, 54, 70
1, 7175, Note_on_c, 1, 54, 0
1, 7176, Note_on_c, 1, 55, 70
1, 7193, Note_on_c, 0, 62, 0
1, 7193, Note_on_c, 0, 59, 0
1, 7199, Note_on_c, 1, 55, 0
1, 7200, Note_on_c, 1, 48, 70
1, 7224, Note_on_c, 0, 64, 70
1, 7224, Note_on_c, 0, 60, 70
1, 7247, Note_on_c, 0, 64, 0
1, 7247, Note_on_c, 0, 60, 0
1, 7248, Note_on_c, 0, 65, 70
1, 7248, Note_on_c, 0, 62, 70
1, 7271, Note_on_c, 0, 65, 0
1, 7271, Note_on_c, 0, 62, 0
1, 7272, Note_on_c, 0, 67, 70
1, 7272, Note_on_c, 0, 64, 70
1, 7289, Note_on_c, 1, 48, 0
1, 7295, Note_on_c, 0, 67, 0
1, 7295, Note_on_c, 0, 64, 0
1, 7296, Note_on_c, 0, 69, 71
1, 7296, Note_on_c, 0, 65, 71
1, 7319, Note_on_c, 0, 69, 0
1, 7319, Note_on_c, 0, 65, 0
1, 7320, Note_on_c, 0, 71, 71
1, 7320, Note_on_c, 0, 67, 71
1, 7343, Note_on_c, 0, 71, 0
1, 7343, Note_on_c, 0, 67, 0
1, 7344, Note_on_c, 0, 72, 72
1, 7344, Note_on_c, 0, 69, 72
1, 7367, Note_on_c, 0, 72, 0
1, 7367, Note_on_c, 0, 69, 0
1, 7368, Note_on_c, 0, 74, 73
1, 7368, Note_on_c, 0, 71, 73
1, 7391, Note_on_c, 0, 74, 0
1, 7391, Note_on_c, 0, 71, 0
1, 7392, Note_on_c, 0, 76, 73
1, 7392, Note_on_c, 0, 72, 73
1, 7412, Note_on_c, 0, 76, 0
1, 7412, Note_on_c, 0, 72, 0
1, 7440, Note_on_c, 0, 76, 75
1, 7440, Note_on_c, 0, 72, 75
1, 7460, Note_on_c, 0, 76, 0
1, 7460, Note_on_c, 0, 72, 0
1, 7488, Note_on_c, 0, 76, 75
1, 7488, Note_on_c, 0, 72, 75
1, 7512, Note_on_c, 1, 40, 70
1, 7512, Note_on_c, 1, 36, 70
1, 7535, Note_on_c, 1, 40, 0
1, 7535, Note_on_c, 1, 36, 0
1, 7536, Note_on_c, 1, 41, 70
1, 7536, Note_on_c, 1, 38, 70
1, 7559, Note_on_c, 1, 41, 0
1, 7559, Note_on_c, 1, 38, 0
1, 7560, Note_on_c, 1, 43, 71
1, 7560, Note_on_c, 1, 40, 71
1, 7577, Note_on_c, 0, 76, 0
1, 7577, Note_on_c, 0, 72, 0
1, 7583, Note_on_c, 1, 43, 0
1, 7583, Note_on_c, 1, 40, 0
1, 7584, Note_on_c, 1, 45, 72
1, 7584, Note_on_c, 1, 41, 72
1, 7607, Note_on_c, 1, 45, 0
1, 7607, Note_on_c, 1, 41, 0
1, 7608, Note_on_c, 1, 47, 72
1, 7608, Note_on_c, 1, 43, 72
1, 7631, Note_on_c, 1, 47, 0
1, 7631, Note_on_c, 1, 43, 0
1, 7632, Note_on_c, 1, 48, 73
1, 7632, Note_on_c, 1, 45, 73
1, 7655, Note_on_c, 1, 48, 0
1, 7655, Note_on_c, 1, 45, 0
1, 7656, Note_on_c, 1, 50, 74
1, 7656, Note_on_c, 1, 47, 74
1, 7679, Note_on_c, 1, 50, 0
1, 7679, Note_on_c, 1, 47, 0
1, 7680, Note_on_c, 1, 52, 75
1, 7680, Note_on_c, 1, 48, 75
1, 7700, Note_on_c, 1, 52, 0
1, 7700, Note_on_c, 1, 48, 0
1, 7728, Note_on_c, 1, 52, 75
1, 7728, Note_on_c, 1, 48, 75
1, 7748, Note_on_c, 1, 52, 0
1, 7748, Note_on_c, 1, 48, 0
1, 7776, Note_on_c, 1, 52, 75
1, 7776, Note_on_c, 1, 48, 75
1, 7800, Note_on_c, 0, 76, 75
1, 7800, Note_on_c, 0, 72, 75
1, 7823, Note_on_c, 0, 76, 0
1, 7823, Note_on_c, 0, 72, 0
1, 7824, Note_on_c, 0, 77, 76
1, 7824, Note_on_c, 0, 74, 76
1, 7847, Note_on_c, 0, 77, 0
1, 7847, Note_on_c, 0, 74, 0
1, 7848, Note_on_c, 0, 79, 77
1, 7848, Note_on_c, 0, 76, 77
1, 7865, Note_on_c, 1, 52, 0
1, 7865, Note_on_c, 1, 48, 0
1, 7871, Note_on_c, 0, 79, 0
1, 7871, Note_on_c, 0, 76, 0
1, 7872, Note_on_c, 0, 81, 78
1, 7872, Note_on_c, 0, 77, 78
1, 7895, Note_on_c, 0, 81, 0
1, 7895, Note_on_c, 0, 77, 0
1, 7896, Note_on_c, 0, 83, 78
1, 7896, Note_on_c, 0, 79, 78
1, 7919, Note_on_c, 0, 83, 0
1, 7919, Note_on_c, 0, 79, 0
1, 7920, Note_on_c, 0, 84, 79
1, 7920, Note_on_c, 0, 81, 79
1, 7943, Note_on_c, 0, 84, 0
1, 7943, Note_on_c, 0, 81, 0
1, 7944, Note_on_c, 0, 86, 80
1, 7944, Note_on_c, 0, 83, 80
1, 7967, Note_on_c, 0, 86, 0
1, 7967, Note_on_c, 0, 83, 0
1, 7968, Note_on_c, 0, 88, 81
1, 7968, Note_on_c, 0, 84, 81
1, 8016, Note_on_c, 1, 55, 75
1, 8016, Note_on_c, 1, 52, 75
1, 8057, Note_on_c, 0, 88, 0
1, 8057, Note_on_c, 0, 84, 0
1, 8061, Note_on_c, 1, 55, 0
1, 8061, Note_on_c, 1, 52, 0
1, 8064, Note_on_c, 1, 57, 75
1, 8064, Note_on_c, 1, 53, 75
1, 8088, Note_on_c, 0, 81, 75
1, 8088, Note_on_c, 0, 77, 75
1, 8111, Note_on_c, 0, 81, 0
1, 8111, Note_on_c, 0, 77, 0
1, 8112, Note_on_c, 0, 79, 74
1, 8112, Note_on_c, 0, 76, 74
1, 8135, Note_on_c, 0, 79, 0
1, 8135, Note_on_c, 0, 76, 0
1, 8136, Note_on_c, 0, 77, 74
1, 8136, Note_on_c, 0, 74, 74
1, 8159, Note_on_c, 0, 77, 0
1, 8159, Note_on_c, 0, 74, 0
1, 8160, Note_on_c, 0, 77, 73
1, 8160, Note_on_c, 0, 74, 73
1, 8160, Note_on_c, 1, 57, 0
1, 8160, Note_on_c, 1, 53, 0
1, 8160, Note_on_c, 1, 55, 73
1, 8184, Note_on_c, 0, 77, 0
1, 8184, Note_on_c, 0, 74, 0
1, 8184, Note_on_c, 0, 76, 73
1, 8184, Note_on_c, 0, 72, 73
1, 8207, Note_on_c, 0, 76, 0
1, 8207, Note_on_c, 0, 72, 0
1, 8208, Note_on_c, 0, 79, 72
1, 8208, Note_on_c, 0, 76, 72
1, 8218, Note_on_c, 0, 79, 0
1, 8218, Note_on_c, 0, 76, 0
1, 8232, Note_on_c, 0, 76, 72
1, 8232, Note_on_c, 0, 72, 72
1, 8242, Note_on_c, 0, 76, 0
1, 8242, Note_on_c, 0, 72, 0
1, 8249, Note_on_c, 1, 55, 0
1, 8256, Note_on_c, 0, 76, 71
1, 8256, Note_on_c, 0, 72, 71
1, 8256, Note_on_c, 1, 43, 71
1, 8280, Note_on_c, 0, 76, 0
1, 8280, Note_on_c, 0, 72, 0
1, 8280, Note_on_c, 0, 74, 71
1, 8280, Note_on_c, 0, 71, 71
1, 8303, Note_on_c, 0, 74, 0
1, 8303, Note_on_c, 0, 71, 0
1, 8304, Note_on_c, 0, 77, 70
1, 8304, Note_on_c, 0, 74, 70
1, 8314, Note_on_c, 0, 77, 0
1, 8314, Note_on_c, 0, 74, 0
1, 8328, Note_on_c, 0, 74, 70
1, 8328, Note_on_c, 0, 71, 70
1, 8338, Note_on_c, 0, 74, 0
1, 8338, Note_on_c, 0, 71, 0
1, 8345, Note_on_c, 1, 43, 0
1, 8352, Note_on_c, 1, 52, 75
1, 8352, Note_on_c, 1, 40, 75
1, 8376, Note_on_c, 0, 84, 75
1, 8376, Note_on_c, 0, 72, 75
1, 8399, Note_on_c, 0, 84, 0
1, 8399, Note_on_c, 0, 72, 0
1, 8400, Note_on_c, 0, 83, 75
1, 8400, Note_on_c, 0, 71, 75
1, 8423, Note_on_c, 0, 83, 0
1, 8423, Note_on_c, 0, 71, 0
1, 8424, Note_on_c, 0, 81, 75
1, 8424, Note_on_c, 0, 69, 75
1, 8447, Note_on_c, 0, 81, 0
1, 8447, Note_on_c, 0, 69, 0
1, 8448, Note_on_c, 0, 79, 75
1, 8448, Note_on_c, 0, 67, 75
1, 8471, Note_on_c, 0, 79, 0
1, 8471, Note_on_c, 0, 67, 0
1, 8472, Note_on_c, 0, 77, 75
1, 8472, Note_on_c, 0, 65, 75
1, 8495, Note_on_c, 0, 77, 0
1, 8495, Note_on_c, 0, 65, 0
1, 8496, Note_on_c, 0, 76, 75
1, 8496, Note_on_c, 0, 64, 75
1, 8519, Note_on_c, 0, 76, 0
1, 8519, Note_on_c, 0, 64, 0
1, 8520, Note_on_c, 0, 74, 75
1, 8520, Note_on_c, 0, 62, 75
1, 8543, Note_on_c, 0, 74, 0
1, 8543, Note_on_c, 0, 62, 0
1, 8544, Note_on_c, 0, 72, 75
1, 8544, Note_on_c, 0, 60, 75
1, 8567, Note_on_c, 0, 72, 0
1, 8567, Note_on_c, 0, 60, 0
1, 8568, Note_on_c, 0, 71, 75
1, 8568, Note_on_c, 0, 59, 75
1, 8591, Note_on_c, 0, 71, 0
1, 8591, Note_on_c, 0, 59, 0
1, 8592, Note_on_c, 0, 69, 75
1, 8592, Note_on_c, 0, 57, 75
1, 8615, Note_on_c, 0, 69, 0
1, 8615, Note_on_c, 0, 57, 0
1, 8616, Note_on_c, 0, 67, 75
1, 8616, Note_on_c, 0, 55, 75
1, 8617, Note_on_c, 1, 52, 0
1, 8617, Note_on_c, 1, 40, 0
1, 8639, Note_on_c, 0, 67, 0
1, 8639, Note_on_c, 0, 55, 0
1, 8640, Note_on_c, 1, 53, 75
1, 8664, Note_on_c, 0, 69, 75
1, 8664, Note_on_c, 0, 65, 75
1, 8687, Note_on_c, 0, 69, 0
1, 8687, Note_on_c, 0, 65, 0
1, 8688, Note_on_c, 0, 67, 73
1, 8688, Note_on_c, 0, 64, 73
1, 8711, Note_on_c, 0, 67, 0
1, 8711, Note_on_c, 0, 64, 0
1, 8712, Note_on_c, 0, 65, 72
1, 8712, Note_on_c, 0, 62, 72
1, 8735, Note_on_c, 0, 65, 0
1, 8735, Note_on_c, 0, 62, 0
1, 8736, Note_on_c, 0, 65, 71
1, 8736, Note_on_c, 0, 62, 71
1, 8736, Note_on_c, 1, 53, 0
1, 8736, Note_on_c, 1, 55, 75
1, 8760, Note_on_c, 0, 65, 0
1, 8760, Note_on_c, 0, 62, 0
1, 8760, Note_on_c, 0, 64, 70
1, 8760, Note_on_c, 0, 60, 70
1, 8783, Note_on_c, 0, 64, 0
1, 8783, Note_on_c, 0, 60, 0
1, 8784, Note_on_c, 0, 67, 69
1, 8784, Note_on_c, 0, 64, 69
1, 8794, Note_on_c, 0, 67, 0
1, 8794, Note_on_c, 0, 64, 0
1, 8808, Note_on_c, 0, 64, 68
1, 8808, Note_on_c, 0, 60, 68
1, 8818, Note_on_c, 0, 64, 0
1, 8818, Note_on_c, 0, 60, 0
1, 8825, Note_on_c, 1, 55, 0
1, 8832, Note_on_c, 0, 64, 67
1, 8832, Note_on_c, 0, 60, 67
1, 8832, Note_on_c, 1, 43, 75
1, 8856, Note_on_c, 0, 64, 0
1, 8856, Note_on_c, 0, 60, 0
1, 8856, Note_on_c, 0, 62, 65
1, 8856, Note_on_c, 0, 59, 65
1, 8879, Note_on_c, 0, 62, 0
1, 8879, Note_on_c, 0, 59, 0
1, 8880, Note_on_c, 0, 65, 64
1, 8880, Note_on_c, 0, 62, 64
1, 8890, Note_on_c, 0, 65, 0
1, 8890, Note_on_c, 0, 62, 0
1, 8904, Note_on_c, 0, 62, 63
1, 8904, Note_on_c, 0, 59, 63
1, 8914, Note_on_c, 0, 62, 0
1, 8914, Note_on_c, 0, 59, 0
1, 8921, Note_on_c, 1, 43, 0
1, 8928, Note_on_c, 0, 60, 62
1, 8952, Note_on_c, 1, 48, 75
1, 8975, Note_on_c, 1, 48, 0
1, 8976, Note_on_c, 1, 47, 72
1, 8999, Note_on_c, 1, 47, 0
1, 9000, Note_on_c, 1, 48, 70
1, 9017, Note_on_c, 0, 60, 0
1, 9023, Note_on_c, 1, 48, 0
1, 9024, Note_on_c, 1, 43, 67
1, 9047, Note_on_c, 1, 43, 0
1, 9048, Note_on_c, 1, 48, 65
1, 9071, Note_on_c, 1, 48, 0
1, 9072, Note_on_c, 1, 40, 62
1, 9082, Note_on_c, 1, 40, 0
1, 9096, Note_on_c, 1, 43, 60
1, 9106, Note_on_c, 1, 43, 0
1, 9120, Note_on_c, 1, 36, 58
1, 9214, Note_on_c, 1, 36, 0
1, 9216, Note_on_c, 1, 57, 70
1, 9216, Note_on_c, 1, 53, 70
1, 9240, Note_on_c, 0, 60, 70
1, 9263, Note_on_c, 0, 60, 0
1, 9264, Note_on_c, 0, 62, 70
1, 9287, Note_on_c, 0, 62, 0
1, 9288, Note_on_c, 0, 64, 70
1, 9311, Note_on_c, 0, 64, 0
1, 9312, Note_on_c, 0, 65, 70
1, 9335, Note_on_c, 0, 65, 0
1, 9336, Note_on_c, 0, 67, 71
1, 9359, Note_on_c, 0, 67, 0
1, 9360, Note_on_c, 0, 69, 72
1, 9383, Note_on_c, 0, 69, 0
1, 9384, Note_on_c, 0, 70, 73
1, 9393, Note_on_c, 1, 57, 0
1, 9393, Note_on_c, 1, 53, 0
1, 9407, Note_on_c, 0, 70, 0
1, 9408, Note_on_c, 0, 72, 75
1, 9431, Note_on_c, 0, 72, 0
1, 9432, Note_on_c, 0, 69, 73
1, 9455, Note_on_c, 0, 69, 0
1, 9456, Note_on_c, 0, 67, 72
1, 9479, Note_on_c, 0, 67, 0
1, 9480, Note_on_c, 0, 65, 71
1, 9503, Note_on_c, 0, 65, 0
1, 9504, Note_on_c, 0, 65, 70
1, 9528, Note_on_c, 1, 48, 70
1, 9551, Note_on_c, 1, 48, 0
1, 9552, Note_on_c, 1, 50, 71
1, 9575, Note_on_c, 1, 50, 0
1, 9576, Note_on_c, 1, 52, 72
1, 9599, Note_on_c, 1, 52, 0
1, 9600, Note_on_c, 1, 53, 73
1, 9623, Note_on_c, 1, 53, 0
1, 9624, Note_on_c, 1, 55, 74
1, 9647, Note_on_c, 1, 55, 0
1, 9648, Note_on_c, 1, 57, 75
1, 9671, Note_on_c, 1, 57, 0
1, 9672, Note_on_c, 1, 58, 74
1, 9695, Note_on_c, 1, 58, 0
1, 9696, Note_on_c, 0, 65, 0
1, 9696, Note_on_c, 0, 64, 70
1, 9696, Note_on_c, 1, 60, 73
1, 9719, Note_on_c, 1, 60, 0
1, 9720, Note_on_c, 1, 62, 72
1, 9743, Note_on_c, 1, 62, 0
1, 9744, Note_on_c, 1, 60, 71
1, 9767, Note_on_c, 1, 60, 0
1, 9768, Note_on_c, 1, 58, 70
1, 9785, Note_on_c, 0, 64, 0
1, 9791, Note_on_c, 1, 58, 0
1, 9792, Note_on_c, 1, 57, 70
1, 9816, Note_on_c, 0, 72, 70
1, 9839, Note_on_c, 0, 72, 0
1, 9840, Note_on_c, 0, 70, 70
1, 9863, Note_on_c, 0, 70, 0
1, 9864, Note_on_c, 0, 69, 70
1, 9887, Note_on_c, 0, 69, 0
1, 9888, Note_on_c, 0, 67, 70
1, 9911, Note_on_c, 0, 67, 0
1, 9912, Note_on_c, 0, 65, 70
1, 9935, Note_on_c, 0, 65, 0
1, 9936, Note_on_c, 0, 64, 70
1, 9959, Note_on_c, 0, 64, 0
1, 9960, Note_on_c, 0, 65, 70
1, 9983, Note_on_c, 0, 65, 0
1, 9984, Note_on_c, 0, 77, 70
1, 10007, Note_on_c, 0, 77, 0
1, 10008, Note_on_c, 0, 76, 70
1, 10031, Note_on_c, 0, 76, 0
1, 10032, Note_on_c, 0, 74, 70
1, 10055, Note_on_c, 0, 74, 0
1, 10056, Note_on_c, 0, 72, 70
1, 10079, Note_on_c, 0, 72, 0
1, 10080, Note_on_c, 0, 72, 70
1, 10103, Note_on_c, 1, 57, 0
1, 10104, Note_on_c, 1, 50, 70
1, 10127, Note_on_c, 1, 50, 0
1, 10128, Note_on_c, 1, 52, 70
1, 10151, Note_on_c, 1, 52, 0
1, 10152, Note_on_c, 1, 54, 70
1, 10169, Note_on_c, 0, 72, 0
1, 10175, Note_on_c, 1, 54, 0
1, 10176, Note_on_c, 0, 70, 70
1, 10176, Note_on_c, 1, 55, 70
1, 10199, Note_on_c, 1, 55, 0
1, 10200, Note_on_c, 1, 57, 71
1, 10223, Note_on_c, 1, 57, 0
1, 10224, Note_on_c, 1, 58, 72
1, 10247, Note_on_c, 1, 58, 0
1, 10248, Note_on_c, 1, 60, 73
1, 10271, Note_on_c, 1, 60, 0
1, 10272, Note_on_c, 1, 58, 75
1, 10295, Note_on_c, 1, 58, 0
1, 10296, Note_on_c, 1, 57, 73
1, 10319, Note_on_c, 1, 57, 0
1, 10320, Note_on_c, 1, 55, 72
1, 10343, Note_on_c, 1, 55, 0
1, 10344, Note_on_c, 1, 53, 71
1, 10367, Note_on_c, 1, 53, 0
1, 10368, Note_on_c, 1, 52, 70
1, 10391, Note_on_c, 0, 70, 0
1, 10392, Note_on_c, 0, 67, 70
1, 10415, Note_on_c, 0, 67, 0
1, 10416, Note_on_c, 0, 69, 70
1, 10439, Note_on_c, 0, 69, 0
1, 10440, Note_on_c, 0, 70, 70
1, 10463, Note_on_c, 0, 70, 0
1, 10464, Note_on_c, 0, 72, 70
1, 10487, Note_on_c, 0, 72, 0
1, 10488, Note_on_c, 0, 74, 71
1, 10511, Note_on_c, 0, 74, 0
1, 10512, Note_on_c, 0, 76, 73
1, 10535, Note_on_c, 0, 76, 0
1, 10536, Note_on_c, 0, 77, 75
1, 10559, Note_on_c, 0, 77, 0
1, 10560, Note_on_c, 0, 79, 74
1, 10560, Note_on_c, 1, 52, 0
1, 10560, Note_on_c, 1, 48, 70
1, 10583, Note_on_c, 0, 79, 0
1, 10584, Note_on_c, 0, 76, 73
1, 10607, Note_on_c, 0, 76, 0
1, 10608, Note_on_c, 0, 72, 72
1, 10631, Note_on_c, 0, 72, 0
1, 10632, Note_on_c, 0, 70, 71
1, 10649, Note_on_c, 1, 48, 0
1, 10655, Note_on_c, 0, 70, 0
1, 10656, Note_on_c, 0, 70, 86
1, 10680, Note_on_c, 1, 50, 70
1, 10703, Note_on_c, 1, 50, 0
1, 10704, Note_on_c, 1, 52, 70
1, 10727, Note_on_c, 1, 52, 0
1, 10728, Note_on_c, 1, 53, 70
1, 10751, Note_on_c, 1, 53, 0
1, 10752, Note_on_c, 0, 70, 0
1, 10752, Note_on_c, 0, 69, 70
1, 10752, Note_on_c, 1, 55, 70
1, 10775, Note_on_c, 1, 55, 0
1, 10776, Note_on_c, 1, 57, 71
1, 10799, Note_on_c, 1, 57, 0
1, 10800, Note_on_c, 1, 58, 72
1, 10823, Note_on_c, 1, 58, 0
1, 10824, Note_on_c, 1, 60, 73
1, 10841, Note_on_c, 0, 69, 0
1, 10847, Note_on_c, 1, 60, 0
1, 10848, Note_on_c, 0, 77, 70
1, 10848, Note_on_c, 1, 62, 75
1, 10871, Note_on_c, 0, 77, 0
1, 10871, Note_on_c, 1, 62, 0
1, 10872, Note_on_c, 0, 76, 70
1, 10872, Note_on_c, 1, 60, 73
1, 10895, Note_on_c, 0, 76, 0
1, 10895, Note_on_c, 1, 60, 0
1, 10896, Note_on_c, 0, 74, 70
1, 10896, Note_on_c, 1, 58, 72
1, 10919, Note_on_c, 0, 74, 0
1, 10919, Note_on_c, 1, 58, 0
1, 10920, Note_on_c, 0, 72, 70
1, 10920, Note_on_c, 1, 57, 71
1, 10943, Note_on_c, 0, 72, 0
1, 10943, Note_on_c, 1, 57, 0
1, 10944, Note_on_c, 0, 74, 70
1, 10944, Note_on_c, 1, 58, 70
1, 10967, Note_on_c, 0, 74, 0
1, 10967, Note_on_c, 1, 58, 0
1, 10968, Note_on_c, 0, 70, 70
1, 10968, Note_on_c, 1, 62, 70
1, 10991, Note_on_c, 0, 70, 0
1, 10991, Note_on_c, 1, 62, 0
1, 10992, Note_on_c, 0, 69, 70
1, 10992, Note_on_c, 1, 60, 70
1, 11015, Note_on_c, 0, 69, 0
1, 11015, Note_on_c, 1, 60, 0
1, 11016, Note_on_c, 0, 67, 70
1, 11016, Note_on_c, 1, 58, 70
1, 11039, Note_on_c, 0, 67, 0
1, 11039, Note_on_c, 1, 58, 0
1, 11040, Note_on_c, 0, 70, 70
1, 11040, Note_on_c, 1, 60, 70
1, 11063, Note_on_c, 0, 70, 0
1, 11064, Note_on_c, 0, 69, 70
1, 11087, Note_on_c, 0, 69, 0
1, 11088, Note_on_c, 0, 72, 70
1, 11111, Note_on_c, 0, 72, 0
1, 11112, Note_on_c, 0, 65, 70
1, 11122, Note_on_c, 0, 65, 0
1, 11129, Note_on_c, 1, 60, 0
1, 11136, Note_on_c, 0, 69, 70
1, 11136, Note_on_c, 1, 48, 70
1, 11159, Note_on_c, 0, 69, 0
1, 11160, Note_on_c, 0, 67, 70
1, 11183, Note_on_c, 0, 67, 0
1, 11184, Note_on_c, 0, 65, 70
1, 11207, Note_on_c, 0, 65, 0
1, 11208, Note_on_c, 0, 64, 70
1, 11225, Note_on_c, 1, 48, 0
1, 11231, Note_on_c, 0, 64, 0
1, 11232, Note_on_c, 0, 65, 70
1, 11255, Note_on_c, 0, 65, 0
1, 11256, Note_on_c, 0, 57, 70
1, 11256, Note_on_c, 1, 41, 70
1, 11279, Note_on_c, 0, 57, 0
1, 11279, Note_on_c, 1, 41, 0
1, 11280, Note_on_c, 0, 58, 70
1, 11280, Note_on_c, 1, 43, 70
1, 11303, Note_on_c, 0, 58, 0
1, 11303, Note_on_c, 1, 43, 0
1, 11304, Note_on_c, 0, 60, 70
1, 11304, Note_on_c, 1, 45, 70
1, 11327, Note_on_c, 0, 60, 0
1, 11327, Note_on_c, 1, 45, 0
1, 11328, Note_on_c, 0, 62, 71
1, 11328, Note_on_c, 1, 46, 71
1, 11351, Note_on_c, 0, 62, 0
1, 11351, Note_on_c, 1, 46, 0
1, 11352, Note_on_c, 0, 64, 71
1, 11352, Note_on_c, 1, 48, 71
1, 11375, Note_on_c, 0, 64, 0
1, 11375, Note_on_c, 1, 48, 0
1, 11376, Note_on_c, 0, 65, 72
1, 11376, Note_on_c, 1, 50, 72
1, 11399, Note_on_c, 0, 65, 0
1, 11399, Note_on_c, 1, 50, 0
1, 11400, Note_on_c, 0, 67, 72
1, 11400, Note_on_c, 1, 52, 72
1, 11423, Note_on_c, 0, 67, 0
1, 11423, Note_on_c, 1, 52, 0
1, 11424, Note_on_c, 0, 69, 72
1, 11424, Note_on_c, 1, 53, 73
1, 11447, Note_on_c, 0, 69, 0
1, 11447, Note_on_c, 1, 53, 0
1, 11448, Note_on_c, 0, 67, 73
1, 11448, Note_on_c, 1, 52, 73
1, 11471, Note_on_c, 0, 67, 0
1, 11471, Note_on_c, 1, 52, 0
1, 11472, Note_on_c, 0, 70, 73
1, 11472, Note_on_c, 1, 55, 74
1, 11495, Note_on_c, 0, 70, 0
1, 11495, Note_on_c, 1, 55, 0
1, 11496, Note_on_c, 0, 69, 74
1, 11496, Note_on_c, 1, 53, 74
1, 11519, Note_on_c, 0, 69, 0
1, 11519, Note_on_c, 1, 53, 0
1, 11520, Note_on_c, 0, 72, 74
1, 11520, Note_on_c, 1, 57, 75
1, 11543, Note_on_c, 0, 72, 0
1, 11544, Note_on_c, 0, 65, 70
1, 11567, Note_on_c, 0, 65, 0
1, 11568, Note_on_c, 0, 67, 70
1, 11591, Note_on_c, 0, 67, 0
1, 11592, Note_on_c, 0, 69, 70
1, 11615, Note_on_c, 0, 69, 0
1, 11616, Note_on_c, 0, 70, 71
1, 11639, Note_on_c, 0, 70, 0
1, 11640, Note_on_c, 0, 72, 71
1, 11663, Note_on_c, 0, 72, 0
1, 11664, Note_on_c, 0, 74, 72
1, 11687, Note_on_c, 0, 74, 0
1, 11688, Note_on_c, 0, 76, 72
1, 11711, Note_on_c, 0, 76, 0
1, 11712, Note_on_c, 0, 77, 73
1, 11735, Note_on_c, 0, 77, 0
1, 11736, Note_on_c, 0, 79, 73
1, 11759, Note_on_c, 0, 79, 0
1, 11760, Note_on_c, 0, 81, 74
1, 11783, Note_on_c, 0, 81, 0
1, 11784, Note_on_c, 0, 77, 74
1, 11785, Note_on_c, 1, 57, 0
1, 11807, Note_on_c, 0, 77, 0
1, 11808, Note_on_c, 0, 82, 75
1, 11832, Note_on_c, 1, 55, 70
1, 11855, Note_on_c, 1, 55, 0
1, 11856, Note_on_c, 1, 57, 70
1, 11879, Note_on_c, 1, 57, 0
1, 11880, Note_on_c, 1, 58, 70
1, 11903, Note_on_c, 1, 58, 0
1, 11904, Note_on_c, 1, 60, 71
1, 11927, Note_on_c, 1, 60, 0
1, 11928, Note_on_c, 1, 62, 71
1, 11951, Note_on_c, 1, 62, 0
1, 11952, Note_on_c, 1, 64, 72
1, 11975, Note_on_c, 1, 64, 0
1, 11976, Note_on_c, 1, 66, 72
1, 11999, Note_on_c, 1, 66, 0
1, 12000, Note_on_c, 1, 67, 73
1, 12023, Note_on_c, 1, 67, 0
1, 12024, Note_on_c, 1, 69, 73
1, 12047, Note_on_c, 1, 69, 0
1, 12048, Note_on_c, 1, 70, 74
1, 12071, Note_on_c, 1, 70, 0
1, 12072, Note_on_c, 1, 67, 74
1, 12095, Note_on_c, 1, 67, 0
1, 12096, Note_on_c, 1, 64, 75
1, 12119, Note_on_c, 0, 82, 0
1, 12120, Note_on_c, 0, 84, 75
1, 12143, Note_on_c, 0, 84, 0
1, 12144, Note_on_c, 0, 82, 75
1, 12167, Note_on_c, 0, 82, 0
1, 12168, Note_on_c, 0, 81, 75
1, 12191, Note_on_c, 0, 81, 0
1, 12192, Note_on_c, 0, 79, 75
1, 12215, Note_on_c, 0, 79, 0
1, 12216, Note_on_c, 0, 77, 75
1, 12239, Note_on_c, 0, 77, 0
1, 12240, Note_on_c, 0, 76, 75
1, 12263, Note_on_c, 0, 76, 0
1, 12264, Note_on_c, 0, 74, 75
1, 12287, Note_on_c, 0, 74, 0
1, 12288, Note_on_c, 0, 72, 75
1, 12311, Note_on_c, 0, 72, 0
1, 12312, Note_on_c, 0, 79, 75
1, 12335, Note_on_c, 0, 79, 0
1, 12336, Note_on_c, 0, 72, 75
1, 12359, Note_on_c, 0, 72, 0
1, 12360, Note_on_c, 0, 70, 75
1, 12361, Note_on_c, 1, 64, 0
1, 12383, Note_on_c, 0, 70, 0
1, 12384, Note_on_c, 0, 69, 75
1, 12407, Note_on_c, 0, 69, 0
1, 12408, Note_on_c, 0, 81, 75
1, 12408, Note_on_c, 1, 65, 75
1, 12431, Note_on_c, 0, 81, 0
1, 12431, Note_on_c, 1, 65, 0
1, 12432, Note_on_c, 0, 79, 75
1, 12432, Note_on_c, 1, 64, 75
1, 12455, Note_on_c, 0, 79, 0
1, 12455, Note_on_c, 1, 64, 0
1, 12456, Note_on_c, 0, 77, 75
1, 12456, Note_on_c, 1, 62, 75
1, 12479, Note_on_c, 0, 77, 0
1, 12479, Note_on_c, 1, 62, 0
1, 12480, Note_on_c, 0, 76, 75
1, 12480, Note_on_c, 1, 60, 75
1, 12503, Note_on_c, 0, 76, 0
1, 12503, Note_on_c, 1, 60, 0
1, 12504, Note_on_c, 0, 77, 75
1, 12504, Note_on_c, 1, 62, 75
1, 12527, Note_on_c, 0, 77, 0
1, 12527, Note_on_c, 1, 62, 0
1, 12528, Note_on_c, 0, 76, 75
1, 12528, Note_on_c, 1, 60, 75
1, 12551, Note_on_c, 0, 76, 0
1, 12551, Note_on_c, 1, 60, 0
1, 12552, Note_on_c, 0, 74, 75
1, 12552, Note_on_c, 1, 58, 75
1, 12575, Note_on_c, 0, 74, 0
1, 12575, Note_on_c, 1, 58, 0
1, 12576, Note_on_c, 0, 72, 75
1, 12576, Note_on_c, 1, 57, 75
1, 12599, Note_on_c, 0, 72, 0
1, 12599, Note_on_c, 1, 57, 0
1, 12600, Note_on_c, 0, 77, 75
1, 12600, Note_on_c, 1, 53, 75
1, 12623, Note_on_c, 0, 77, 0
1, 12623, Note_on_c, 1, 53, 0
1, 12624, Note_on_c, 0, 76, 75
1, 12624, Note_on_c, 1, 55, 75
1, 12647, Note_on_c, 0, 76, 0
1, 12647, Note_on_c, 1, 55, 0
1, 12648, Note_on_c, 0, 75, 75
1, 12648, Note_on_c, 1, 57, 75
1, 12671, Note_on_c, 0, 75, 0
1, 12671, Note_on_c, 1, 57, 0
1, 12672, Note_on_c, 0, 74, 75
1, 12672, Note_on_c, 1, 58, 75
1, 12695, Note_on_c, 0, 74, 0
1, 12695, Note_on_c, 1, 58, 0
1, 12696, Note_on_c, 0, 70, 74
1, 12696, Note_on_c, 1, 62, 74
1, 12719, Note_on_c, 0, 70, 0
1, 12719, Note_on_c, 1, 62, 0
1, 12720, Note_on_c, 0, 69, 74
1, 12720, Note_on_c, 1, 60, 74
1, 12743, Note_on_c, 0, 69, 0
1, 12743, Note_on_c, 1, 60, 0
1, 12744, Note_on_c, 0, 67, 73
1, 12744, Note_on_c, 1, 58, 73
1, 12767, Note_on_c, 0, 67, 0
1, 12767, Note_on_c, 1, 58, 0
1, 12768, Note_on_c, 0, 70, 73
1, 12768, Note_on_c, 1, 60, 73
1, 12791, Note_on_c, 0, 70, 0
1, 12792, Note_on_c, 0, 69, 72
1, 12815, Note_on_c, 0, 69, 0
1, 12816, Note_on_c, 0, 72, 72
1, 12839, Note_on_c, 0, 72, 0
1, 12840, Note_on_c, 0, 65, 72
1, 12857, Note_on_c, 1, 60, 0
1, 12863, Note_on_c, 0, 65, 0
1, 12864, Note_on_c, 0, 69, 71
1, 12864, Note_on_c, 1, 48, 71
1, 12887, Note_on_c, 0, 69, 0
1, 12888, Note_on_c, 0, 67, 71
1, 12911, Note_on_c, 0, 67, 0
1, 12912, Note_on_c, 0, 65, 70
1, 12935, Note_on_c, 0, 65, 0
1, 12936, Note_on_c, 0, 64, 70
1, 12953, Note_on_c, 1, 48, 0
1, 12959, Note_on_c, 0, 64, 0
1, 12960, Note_on_c, 0, 65, 70
1, 12960, Note_on_c, 1, 53, 70
1, 12983, Note_on_c, 1, 53, 0
1, 12984, Note_on_c, 1, 57, 69
1, 13007, Note_on_c, 1, 57, 0
1, 13008, Note_on_c, 1, 55, 68
1, 13031, Note_on_c, 1, 55, 0
1, 13032, Note_on_c, 1, 58, 67
1, 13049, Note_on_c, 0, 65, 0
1, 13055, Note_on_c, 1, 58, 0
1, 13056, Note_on_c, 1, 57, 66
1, 13079, Note_on_c, 1, 57, 0
1, 13080, Note_on_c, 1, 60, 65
1, 13103, Note_on_c, 1, 60, 0
1, 13104, Note_on_c, 1, 58, 64
1, 13127, Note_on_c, 1, 58, 0
1, 13128, Note_on_c, 1, 62, 63
1, 13151, Note_on_c, 1, 62, 0
1, 13152, Note_on_c, 1, 57, 62
1, 13175, Note_on_c, 1, 57, 0
1, 13176, Note_on_c, 1, 60, 61
1, 13199, Note_on_c, 1, 60, 0
1, 13200, Note_on_c, 1, 55, 60
1, 13223, Note_on_c, 1, 55, 0
1, 13224, Note_on_c, 1, 58, 59
1, 13247, Note_on_c, 1, 58, 0
1, 13248, Note_on_c, 0, 81, 58
1, 13248, Note_on_c, 1, 53, 58
1, 13268, Note_on_c, 0, 81, 0
1, 13271, Note_on_c, 1, 53, 0
1, 13272, Note_on_c, 1, 57, 58
1, 13295, Note_on_c, 1, 57, 0
1, 13296, Note_on_c, 0, 74, 58
1, 13296, Note_on_c, 1, 55, 58
1, 13308, Note_on_c, 0, 74, 0
1, 13308, Note_on_c, 0, 73, 58
1, 13319, Note_on_c, 1, 55, 0
1, 13320, Note_on_c, 0, 73, 0
1, 13320, Note_on_c, 0, 71, 58
1, 13320, Note_on_c, 1, 58, 58
1, 13332, Note_on_c, 0, 71, 0
1, 13332, Note_on_c, 0, 73, 58
1, 13343, Note_on_c, 1, 58, 0
1, 13344, Note_on_c, 0, 73, 0
1, 13344, Note_on_c, 0, 74, 59
1, 13344, Note_on_c, 1, 53, 59
1, 13364, Note_on_c, 0, 74, 0
1, 13367, Note_on_c, 1, 53, 0
1, 13368, Note_on_c, 1, 57, 59
1, 13391, Note_on_c, 1, 57, 0
1, 13392, Note_on_c, 0, 77, 60
1, 13392, Note_on_c, 1, 49, 60
1, 13404, Note_on_c, 0, 77, 0
1, 13404, Note_on_c, 0, 76, 60
1, 13415, Note_on_c, 1, 49, 0
1, 13416, Note_on_c, 0, 76, 0
1, 13416, Note_on_c, 0, 74, 60
1, 13416, Note_on_c, 1, 57, 60
1, 13428, Note_on_c, 0, 74, 0
1, 13428, Note_on_c, 0, 76, 60
1, 13439, Note_on_c, 1, 57, 0
1, 13440, Note_on_c, 0, 76, 0
1, 13440, Note_on_c, 0, 77, 61
1, 13440, Note_on_c, 1, 50, 61
1, 13463, Note_on_c, 1, 50, 0
1, 13464, Note_on_c, 1, 57, 61
1, 13485, Note_on_c, 0, 77, 0
1, 13487, Note_on_c, 1, 57, 0
1, 13488, Note_on_c, 0, 81, 62
1, 13488, Note_on_c, 1, 53, 62
1, 13511, Note_on_c, 1, 53, 0
1, 13512, Note_on_c, 1, 57, 62
1, 13533, Note_on_c, 0, 81, 0
1, 13535, Note_on_c, 1, 57, 0
1, 13536, Note_on_c, 0, 79, 63
1, 13536, Note_on_c, 1, 52, 63
1, 13556, Note_on_c, 0, 79, 0
1, 13559, Note_on_c, 1, 52, 0
1, 13560, Note_on_c, 1, 55, 63
1, 13583, Note_on_c, 1, 55, 0
1, 13584, Note_on_c, 0, 72, 63
1, 13584, Note_on_c, 1, 53, 63
1, 13596, Note_on_c, 0, 72, 0
1, 13596, Note_on_c, 0, 71, 63
1, 13607, Note_on_c, 1, 53, 0
1, 13608, Note_on_c, 0, 71, 0
1, 13608, Note_on_c, 0, 69, 63
1, 13608, Note_on_c, 1, 55, 63
1, 13620, Note_on_c, 0, 69, 0
1, 13620, Note_on_c, 0, 71, 64
1, 13631, Note_on_c, 1, 55, 0
1, 13632, Note_on_c, 0, 71, 0
1, 13632, Note_on_c, 0, 72, 64
1, 13632, Note_on_c, 1, 52, 64
1, 13652, Note_on_c, 0, 72, 0
1, 13655, Note_on_c, 1, 52, 0
1, 13656, Note_on_c, 1, 55, 65
1, 13679, Note_on_c, 1, 55, 0
1, 13680, Note_on_c, 0, 76, 65
1, 13680, Note_on_c, 1, 47, 66
1, 13692, Note_on_c, 0, 76, 0
1, 13692, Note_on_c, 0, 74, 66
1, 13703, Note_on_c, 1, 47, 0
1, 13704, Note_on_c, 0, 74, 0
1, 13704, Note_on_c, 0, 72, 66
1, 13704, Note_on_c, 1, 55, 66
1, 13716, Note_on_c, 0, 72, 0
1, 13716, Note_on_c, 0, 74, 66
1, 13727, Note_on_c, 1, 55, 0
1, 13728, Note_on_c, 0, 74, 0
1, 13728, Note_on_c, 0, 76, 67
1, 13728, Note_on_c, 1, 48, 67
1, 13751, Note_on_c, 1, 48, 0
1, 13752, Note_on_c, 1, 55, 68
1, 13773, Note_on_c, 0, 76, 0
1, 13775, Note_on_c, 1, 55, 0
1, 13776, Note_on_c, 0, 79, 68
1, 13776, Note_on_c, 1, 52, 69
1, 13799, Note_on_c, 1, 52, 0
1, 13800, Note_on_c, 1, 55, 70
1, 13821, Note_on_c, 0, 79, 0
1, 13823, Note_on_c, 1, 55, 0
1, 13824, Note_on_c, 0, 77, 70
1, 13824, Note_on_c, 1, 50, 70
1, 13844, Note_on_c, 0, 77, 0
1, 13847, Note_on_c, 1, 50, 0
1, 13848, Note_on_c, 1, 53, 70
1, 13871, Note_on_c, 1, 53, 0
1, 13872, Note_on_c, 0, 73, 70
1, 13872, Note_on_c, 1, 52, 70
1, 13895, Note_on_c, 1, 52, 0
1, 13896, Note_on_c, 1, 55, 70
1, 13917, Note_on_c, 0, 73, 0
1, 13919, Note_on_c, 1, 55, 0
1, 13920, Note_on_c, 0, 74, 70
1, 13920, Note_on_c, 1, 53, 70
1, 13943, Note_on_c, 1, 53, 0
1, 13944, Note_on_c, 1, 57, 70
1, 13965, Note_on_c, 0, 74, 0
1, 13967, Note_on_c, 1, 57, 0
1, 13968, Note_on_c, 0, 72, 70
1, 13968, Note_on_c, 1, 54, 70
1, 13991, Note_on_c, 1, 54, 0
1, 13992, Note_on_c, 1, 57, 70
1, 14013, Note_on_c, 0, 72, 0
1, 14015, Note_on_c, 1, 57, 0
1, 14016, Note_on_c, 0, 71, 70
1, 14016, Note_on_c, 1, 55, 70
1, 14039, Note_on_c, 1, 55, 0
1, 14040, Note_on_c, 1, 59, 70
1, 14061, Note_on_c, 0, 71, 0
1, 14063, Note_on_c, 1, 59, 0
1, 14064, Note_on_c, 0, 66, 70
1, 14064, Note_on_c, 1, 57, 70
1, 14087, Note_on_c, 1, 57, 0
1, 14088, Note_on_c, 1, 60, 70
1, 14109, Note_on_c, 0, 66, 0
1, 14111, Note_on_c, 1, 60, 0
1, 14112, Note_on_c, 0, 67, 70
1, 14112, Note_on_c, 1, 59, 70
1, 14135, Note_on_c, 1, 59, 0
1, 14136, Note_on_c, 1, 62, 70
1, 14159, Note_on_c, 1, 62, 0
1, 14160, Note_on_c, 1, 57, 70
1, 14183, Note_on_c, 1, 57, 0
1, 14184, Note_on_c, 1, 60, 70
1, 14201, Note_on_c, 0, 67, 0
1, 14207, Note_on_c, 1, 60, 0
1, 14208, Note_on_c, 1, 55, 70
1, 14231, Note_on_c, 1, 55, 0
1, 14232, Note_on_c, 1, 59, 70
1, 14255, Note_on_c, 1, 59, 0
1, 14256, Note_on_c, 0, 77, 70
1, 14256, Note_on_c, 1, 57, 70
1, 14279, Note_on_c, 1, 57, 0
1, 14280, Note_on_c, 1, 60, 70
1, 14301, Note_on_c, 0, 77, 0
1, 14303, Note_on_c, 1, 60, 0
1, 14304, Note_on_c, 0, 79, 70
1, 14304, Note_on_c, 1, 59, 70
1, 14314, Note_on_c, 0, 79, 0
1, 14314, Note_on_c, 0, 77, 70
1, 14324, Note_on_c, 0, 77, 0
1, 14324, Note_on_c, 0, 79, 70
1, 14327, Note_on_c, 1, 59, 0
1, 14328, Note_on_c, 1, 62, 70
1, 14334, Note_on_c, 0, 79, 0
1, 14334, Note_on_c, 0, 77, 70
1, 14344, Note_on_c, 0, 77, 0
1, 14344, Note_on_c, 0, 79, 70
1, 14351, Note_on_c, 1, 62, 0
1, 14352, Note_on_c, 1, 55, 70
1, 14354, Note_on_c, 0, 79, 0
1, 14354, Note_on_c, 0, 77, 70
1, 14364, Note_on_c, 0, 77, 0
1, 14364, Note_on_c, 0, 79, 70
1, 14373, Note_on_c, 0, 79, 0
1, 14373, Note_on_c, 0, 77, 70
1, 14375, Note_on_c, 1, 55, 0
1, 14376, Note_on_c, 1, 59, 70
1, 14382, Note_on_c, 0, 77, 0
1, 14382, Note_on_c, 0, 76, 70
1, 14391, Note_on_c, 0, 76, 0
1, 14391, Note_on_c, 0, 77, 70
1, 14399, Note_on_c, 1, 59, 0
1, 14400, Note_on_c, 0, 77, 0
1, 14400, Note_on_c, 0, 76, 70
1, 14400, Note_on_c, 1, 60, 70
1, 14423, Note_on_c, 1, 60, 0
1, 14424, Note_on_c, 1, 64, 70
1, 14445, Note_on_c, 0, 76, 0
1, 14447, Note_on_c, 1, 64, 0
1, 14448, Note_on_c, 0, 71, 70
1, 14448, Note_on_c, 1, 62, 70
1, 14471, Note_on_c, 1, 62, 0
1, 14472, Note_on_c, 1, 65, 70
1, 14493, Note_on_c, 0, 71, 0
1, 14495, Note_on_c, 1, 65, 0
1, 14496, Note_on_c, 0, 72, 70
1, 14496, Note_on_c, 1, 64, 70
1, 14519, Note_on_c, 1, 64, 0
1, 14520, Note_on_c, 1, 67, 70
1, 14541, Note_on_c, 0, 72, 0
1, 14543, Note_on_c, 1, 67, 0
1, 14544, Note_on_c, 0, 84, 86
1, 14544, Note_on_c, 1, 60, 70
1, 14567, Note_on_c, 1, 60, 0
1, 14568, Note_on_c, 1, 64, 70
1, 14591, Note_on_c, 1, 64, 0
1, 14592, Note_on_c, 1, 62, 70
1, 14615, Note_on_c, 1, 62, 0
1, 14616, Note_on_c, 1, 65, 70
1, 14639, Note_on_c, 1, 65, 0
1, 14640, Note_on_c, 0, 84, 0
1, 14640, Note_on_c, 0, 82, 70
1, 14640, Note_on_c, 1, 64, 70
1, 14663, Note_on_c, 1, 64, 0
1, 14664, Note_on_c, 1, 67, 70
1, 14685, Note_on_c, 0, 82, 0
1, 14687, Note_on_c, 1, 67, 0
1, 14688, Note_on_c, 0, 81, 70
1, 14688, Note_on_c, 1, 65, 70
1, 14708, Note_on_c, 0, 81, 0
1, 14711, Note_on_c, 1, 65, 0
1, 14712, Note_on_c, 1, 69, 70
1, 14735, Note_on_c, 1, 69, 0
1, 14736, Note_on_c, 0, 73, 70
1, 14736, Note_on_c, 1, 67, 70
1, 14759, Note_on_c, 1, 67, 0
1, 14760, Note_on_c, 1, 70, 70
1, 14781, Note_on_c, 0, 73, 0
1, 14783, Note_on_c, 1, 70, 0
1, 14784, Note_on_c, 0, 74, 70
1, 14784, Note_on_c, 1, 65, 70
1, 14807, Note_on_c, 1, 65, 0
1, 14808, Note_on_c, 1, 69, 70
1, 14829, Note_on_c, 0, 74, 0
1, 14831, Note_on_c, 1, 69, 0
1, 14832, Note_on_c, 0, 76, 70
1, 14832, Note_on_c, 1, 64, 70
1, 14855, Note_on_c, 1, 64, 0
1, 14856, Note_on_c, 1, 67, 70
1, 14877, Note_on_c, 0, 76, 0
1, 14879, Note_on_c, 1, 67, 0
1, 14880, Note_on_c, 0, 77, 70
1, 14880, Note_on_c, 1, 62, 70
1, 14900, Note_on_c, 0, 77, 0
1, 14903, Note_on_c, 1, 62, 0
1, 14904, Note_on_c, 1, 65, 70
1, 14927, Note_on_c, 1, 65, 0
1, 14928, Note_on_c, 0, 77, 70
1, 14928, Note_on_c, 1, 60, 70
1, 14951, Note_on_c, 1, 60, 0
1, 14952, Note_on_c, 1, 64, 70
1, 14973, Note_on_c, 0, 77, 0
1, 14975, Note_on_c, 1, 64, 0
1, 14976, Note_on_c, 0, 76, 70
1, 14976, Note_on_c, 1, 59, 70
1, 14986, Note_on_c, 0, 76, 0
1, 14986, Note_on_c, 0, 77, 70
1, 14996, Note_on_c, 0, 77, 0
1, 14996, Note_on_c, 0, 79, 70
1, 14999, Note_on_c, 1, 59, 0
1, 15000, Note_on_c, 1, 62, 70
1, 15006, Note_on_c, 0, 79, 0
1, 15006, Note_on_c, 0, 77, 70
1, 15016, Note_on_c, 0, 77, 0
1, 15016, Note_on_c, 0, 79, 70
1, 15023, Note_on_c, 1, 62, 0
1, 15024, Note_on_c, 1, 57, 70
1, 15026, Note_on_c, 0, 79, 0
1, 15026, Note_on_c, 0, 77, 70
1, 15036, Note_on_c, 0, 77, 0
1, 15036, Note_on_c, 0, 79, 70
1, 15046, Note_on_c, 0, 79, 0
1, 15046, Note_on_c, 0, 77, 70
1, 15047, Note_on_c, 1, 57, 0
1, 15048, Note_on_c, 1, 60, 71
1, 15056, Note_on_c, 0, 77, 0
1, 15056, Note_on_c, 0, 79, 70
1, 15066, Note_on_c, 0, 79, 0
1, 15066, Note_on_c, 0, 77, 70
1, 15071, Note_on_c, 1, 60, 0
1, 15072, Note_on_c, 1, 55, 71
1, 15076, Note_on_c, 0, 77, 0
1, 15076, Note_on_c, 0, 79, 70
1, 15086, Note_on_c, 0, 79, 0
1, 15086, Note_on_c, 0, 77, 71
1, 15095, Note_on_c, 1, 55, 0
1, 15096, Note_on_c, 0, 77, 0
1, 15096, Note_on_c, 0, 79, 71
1, 15096, Note_on_c, 1, 59, 72
1, 15106, Note_on_c, 0, 79, 0
1, 15106, Note_on_c, 0, 77, 71
1, 15116, Note_on_c, 0, 77, 0
1, 15116, Note_on_c, 0, 79, 71
1, 15119, Note_on_c, 1, 59, 0
1, 15120, Note_on_c, 1, 57, 72
1, 15126, Note_on_c, 0, 79, 0
1, 15126, Note_on_c, 0, 77, 71
1, 15136, Note_on_c, 0, 77, 0
1, 15136, Note_on_c, 0, 79, 71
1, 15143, Note_on_c, 1, 57, 0
1, 15144, Note_on_c, 1, 60, 72
1, 15146, Note_on_c, 0, 79, 0
1, 15146, Note_on_c, 0, 77, 71
1, 15156, Note_on_c, 0, 77, 0
1, 15156, Note_on_c, 0, 79, 71
1, 15165, Note_on_c, 0, 79, 0
1, 15165, Note_on_c, 0, 77, 71
1, 15167, Note_on_c, 1, 60, 0
1, 15168, Note_on_c, 1, 59, 73
1, 15174, Note_on_c, 0, 77, 0
1, 15174, Note_on_c, 0, 79, 72
1, 15183, Note_on_c, 0, 79, 0
1, 15183, Note_on_c, 0, 77, 72
1, 15191, Note_on_c, 1, 59, 0
1, 15192, Note_on_c, 0, 77, 0
1, 15192, Note_on_c, 0, 79, 72
1, 15192, Note_on_c, 1, 62, 73
1, 15201, Note_on_c, 0, 79, 0
1, 15201, Note_on_c, 0, 77, 72
1, 15210, Note_on_c, 0, 77, 0
1, 15210, Note_on_c, 0, 79, 72
1, 15215, Note_on_c, 1, 62, 0
1, 15216, Note_on_c, 1, 55, 74
1, 15219, Note_on_c, 0, 79, 0
1, 15219, Note_on_c, 0, 77, 72
1, 15228, Note_on_c, 0, 77, 0
1, 15228, Note_on_c, 0, 76, 72
1, 15239, Note_on_c, 1, 55, 0
1, 15240, Note_on_c, 1, 59, 74
1, 15246, Note_on_c, 0, 76, 0
1, 15246, Note_on_c, 0, 77, 72
1, 15263, Note_on_c, 1, 59, 0
1, 15264, Note_on_c, 0, 77, 0
1, 15264, Note_on_c, 0, 76, 75
1, 15264, Note_on_c, 1, 60, 75
1, 15287, Note_on_c, 0, 76, 0
1, 15288, Note_on_c, 0, 79, 75
1, 15309, Note_on_c, 1, 60, 0
1, 15311, Note_on_c, 0, 79, 0
1, 15312, Note_on_c, 0, 74, 75
1, 15312, Note_on_c, 1, 62, 75
1, 15335, Note_on_c, 0, 74, 0
1, 15336, Note_on_c, 0, 77, 75
1, 15357, Note_on_c, 1, 62, 0
1, 15359, Note_on_c, 0, 77, 0
1, 15360, Note_on_c, 0, 72, 75
1, 15360, Note_on_c, 1, 64, 75
1, 15383, Note_on_c, 0, 72, 0
1, 15384, Note_on_c, 0, 76, 75
1, 15405, Note_on_c, 1, 64, 0
1, 15407, Note_on_c, 0, 76, 0
1, 15408, Note_on_c, 0, 71, 75
1, 15408, Note_on_c, 1, 65, 75
1, 15431, Note_on_c, 0, 71, 0
1, 15432, Note_on_c, 0, 74, 75
1, 15453, Note_on_c, 1, 65, 0
1, 15455, Note_on_c, 0, 74, 0
1, 15456, Note_on_c, 0, 72, 75
1, 15456, Note_on_c, 1, 64, 75
1, 15479, Note_on_c, 0, 72, 0
1, 15480, Note_on_c, 0, 76, 75
1, 15501, Note_on_c, 1, 64, 0
1, 15503, Note_on_c, 0, 76, 0
1, 15504, Note_on_c, 0, 67, 75
1, 15504, Note_on_c, 1, 52, 75
1, 15527, Note_on_c, 0, 67, 0
1, 15528, Note_on_c, 0, 70, 75
1, 15549, Note_on_c, 1, 52, 0
1, 15551, Note_on_c, 0, 70, 0
1, 15552, Note_on_c, 0, 69, 70
1, 15552, Note_on_c, 1, 53, 70
1, 15576, Note_on_c, 0, 69, 0
1, 15576, Note_on_c, 0, 81, 70
1, 15599, Note_on_c, 0, 81, 0
1, 15600, Note_on_c, 0, 77, 70
1, 15610, Note_on_c, 0, 77, 0
1, 15624, Note_on_c, 0, 74, 70
1, 15634, Note_on_c, 0, 74, 0
1, 15641, Note_on_c, 1, 53, 0
1, 15648, Note_on_c, 0, 67, 70
1, 15648, Note_on_c, 1, 55, 70
1, 15672, Note_on_c, 0, 67, 0
1, 15672, Note_on_c, 0, 79, 70
1, 15695, Note_on_c, 0, 79, 0
1, 15696, Note_on_c, 0, 76, 70
1, 15706, Note_on_c, 0, 76, 0
1, 15720, Note_on_c, 0, 72, 70
1, 15730, Note_on_c, 0, 72, 0
1, 15737, Note_on_c, 1, 55, 0
1, 15744, Note_on_c, 0, 65, 70
1, 15744, Note_on_c, 1, 43, 70
1, 15768, Note_on_c, 0, 65, 0
1, 15768, Note_on_c, 0, 77, 70
1, 15791, Note_on_c, 0, 77, 0
1, 15792, Note_on_c, 0, 74, 70
1, 15802, Note_on_c, 0, 74, 0
1, 15816, Note_on_c, 0, 71, 70
1, 15826, Note_on_c, 0, 71, 0
1, 15833, Note_on_c, 1, 43, 0
1, 15840, Note_on_c, 0, 72, 70
1, 15840, Note_on_c, 1, 36, 70
1, 15850, Note_on_c, 0, 72, 0
1, 15850, Note_on_c, 1, 36, 0
1, 15864, Note_on_c, 0, 64, 70
1, 15864, Note_on_c, 1, 48, 70
1, 15887, Note_on_c, 0, 64, 0
1, 15887, Note_on_c, 1, 48, 0
1, 15888, Note_on_c, 0, 62, 70
1, 15888, Note_on_c, 1, 47, 70
1, 15911, Note_on_c, 0, 62, 0
1, 15911, Note_on_c, 1, 47, 0
1, 15912, Note_on_c, 0, 64, 70
1, 15912, Note_on_c, 1, 48, 70
1, 15935, Note_on_c, 0, 64, 0
1, 15935, Note_on_c, 1, 48, 0
1, 15936, Note_on_c, 0, 72, 70
1, 15936, Note_on_c, 1, 38, 70
1, 15946, Note_on_c, 0, 72, 0
1, 15946, Note_on_c, 1, 38, 0
1, 15960, Note_on_c, 0, 65, 70
1, 15960, Note_on_c, 1, 50, 70
1, 15983, Note_on_c, 0, 65, 0
1, 15983, Note_on_c, 1, 50, 0
1, 15984, Note_on_c, 0, 64, 70
1, 15984, Note_on_c, 1, 48, 70
1, 16007, Note_on_c, 0, 64, 0
1, 16007, Note_on_c, 1, 48, 0
1, 16008, Note_on_c, 0, 65, 70
1, 16008, Note_on_c, 1, 50, 70
1, 16031, Note_on_c, 0, 65, 0
1, 16031, Note_on_c, 1, 50, 0
1, 16032, Note_on_c, 0, 72, 70
1, 16032, Note_on_c, 1, 40, 70
1, 16042, Note_on_c, 0, 72, 0
1, 16042, Note_on_c, 1, 40, 0
1, 16056, Note_on_c, 0, 67, 70
1, 16056, Note_on_c, 1, 52, 70
1, 16079, Note_on_c, 0, 67, 0
1, 16079, Note_on_c, 1, 52, 0
1, 16080, Note_on_c, 0, 65, 70
1, 16080, Note_on_c, 1, 50, 70
1, 16103, Note_on_c, 0, 65, 0
1, 16103, Note_on_c, 1, 50, 0
1, 16104, Note_on_c, 0, 67, 70
1, 16104, Note_on_c, 1, 52, 70
1, 16127, Note_on_c, 0, 67, 0
1, 16127, Note_on_c, 1, 52, 0
1, 16128, Note_on_c, 0, 70, 70
1, 16128, Note_on_c, 0, 65, 75
1, 16128, Note_on_c, 1, 41, 70
1, 16138, Note_on_c, 1, 41, 0
1, 16152, Note_on_c, 0, 70, 0
1, 16152, Note_on_c, 0, 69, 70
1, 16152, Note_on_c, 1, 53, 70
1, 16173, Note_on_c, 0, 65, 0
1, 16175, Note_on_c, 0, 69, 0
1, 16175, Note_on_c, 1, 53, 0
1, 16176, Note_on_c, 0, 67, 70
1, 16176, Note_on_c, 0, 64, 75
1, 16176, Note_on_c, 1, 52, 70
1, 16186, Note_on_c, 0, 67, 0
1, 16186, Note_on_c, 0, 64, 0
1, 16199, Note_on_c, 1, 52, 0
1, 16200, Note_on_c, 0, 65, 70
1, 16200, Note_on_c, 0, 62, 75
1, 16200, Note_on_c, 1, 53, 70
1, 16210, Note_on_c, 0, 65, 0
1, 16210, Note_on_c, 0, 62, 0
1, 16223, Note_on_c, 1, 53, 0
1, 16224, Note_on_c, 0, 64, 70
1, 16224, Note_on_c, 0, 60, 70
1, 16224, Note_on_c, 1, 43, 70
1, 16234, Note_on_c, 1, 43, 0
1, 16248, Note_on_c, 1, 55, 70
1, 16271, Note_on_c, 1, 55, 0
1, 16272, Note_on_c, 1, 54, 70
1, 16295, Note_on_c, 1, 54, 0
1, 16296, Note_on_c, 1, 55, 70
1, 16313, Note_on_c, 0, 64, 0
1, 16313, Note_on_c, 0, 60, 0
1, 16319, Note_on_c, 1, 55, 0
1, 16320, Note_on_c, 0, 62, 70
1, 16320, Note_on_c, 0, 59, 70
1, 16320, Note_on_c, 1, 43, 70
1, 16330, Note_on_c, 1, 43, 0
1, 16344, Note_on_c, 1, 55, 70
1, 16367, Note_on_c, 1, 55, 0
1, 16368, Note_on_c, 1, 54, 70
1, 16391, Note_on_c, 1, 54, 0
1, 16392, Note_on_c, 1, 55, 70
1, 16409, Note_on_c, 0, 62, 0
1, 16409, Note_on_c, 0, 59, 0
1, 16415, Note_on_c, 1, 55, 0
1, 16416, Note_on_c, 1, 48, 70
1, 16440, Note_on_c, 0, 64, 70
1, 16440, Note_on_c, 0, 60, 70
1, 16463, Note_on_c, 0, 64, 0
1, 16463, Note_on_c, 0, 60, 0
1, 16464, Note_on_c, 0, 65, 70
1, 16464, Note_on_c, 0, 62, 70
1, 16487, Note_on_c, 0, 65, 0
1, 16487, Note_on_c, 0, 62, 0
1, 16488, Note_on_c, 0, 67, 70
1, 16488, Note_on_c, 0, 64, 70
1, 16505, Note_on_c, 1, 48, 0
1, 16511, Note_on_c, 0, 67, 0
1, 16511, Note_on_c, 0, 64, 0
1, 16512, Note_on_c, 0, 69, 71
1, 16512, Note_on_c, 0, 65, 71
1, 16535, Note_on_c, 0, 69, 0
1, 16535, Note_on_c, 0, 65, 0
1, 16536, Note_on_c, 0, 71, 71
1, 16536, Note_on_c, 0, 67, 71
1, 16559, Note_on_c, 0, 71, 0
1, 16559, Note_on_c, 0, 67, 0
1, 16560, Note_on_c, 0, 72, 72
1, 16560, Note_on_c, 0, 69, 72
1, 16583, Note_on_c, 0, 72, 0
1, 16583, Note_on_c, 0, 69, 0
1, 16584, Note_on_c, 0, 74, 73
1, 16584, Note_on_c, 0, 71, 73
1, 16607, Note_on_c, 0, 74, 0
1, 16607, Note_on_c, 0, 71, 0
1, 16608, Note_on_c, 0, 76, 73
1, 16608, Note_on_c, 0, 72, 73
1, 16628, Note_on_c, 0, 76, 0
1, 16628, Note_on_c, 0, 72, 0
1, 16656, Note_on_c, 0, 76, 75
1, 16656, Note_on_c, 0, 72, 75
1, 16676, Note_on_c, 0, 76, 0
1, 16676, Note_on_c, 0, 72, 0
1, 16704, Note_on_c, 0, 76, 75
1, 16704, Note_on_c, 0, 72, 75
1, 16728, Note_on_c, 1, 40, 70
1, 16728, Note_on_c, 1, 36, 70
1, 16751, Note_on_c, 1, 40, 0
1, 16751, Note_on_c, 1, 36, 0
1, 16752, Note_on_c, 1, 41, 70
1, 16752, Note_on_c, 1, 38, 70
1, 16775, Note_on_c, 1, 41, 0
1, 16775, Note_on_c, 1, 38, 0
1, 16776, Note_on_c, 1, 43, 71
1, 16776, Note_on_c, 1, 40, 71
1, 16793, Note_on_c, 0, 76, 0
1, 16793, Note_on_c, 0, 72, 0
1, 16799, Note_on_c, 1, 43, 0
1, 16799, Note_on_c, 1, 40, 0
1, 16800, Note_on_c, 1, 45, 72
1, 16800, Note_on_c, 1, 41, 72
1, 16823, Note_on_c, 1, 45, 0
1, 16823, Note_on_c, 1, 41, 0
1, 16824, Note_on_c, 1, 47, 72
1, 16824, Note_on_c, 1, 43, 72
1, 16847, Note_on_c, 1, 47, 0
1, 16847, Note_on_c, 1, 43, 0
1, 16848, Note_on_c, 1, 48, 73
1, 16848, Note_on_c, 1, 45, 73
1, 16871, Note_on_c, 1, 48, 0
1, 16871, Note_on_c, 1, 45, 0
1, 16872, Note_on_c, 1, 50, 74
1, 16872, Note_on_c, 1, 47, 74
1, 16895, Note_on_c, 1, 50, 0
1, 16895, Note_on_c, 1, 47, 0
1, 16896, Note_on_c, 1, 52, 75
1, 16896, Note_on_c, 1, 48, 75
1, 16916, Note_on_c, 1, 52, 0
1, 16916, Note_on_c, 1, 48, 0
1, 16944, Note_on_c, 1, 52, 75
1, 16944, Note_on_c, 1, 48, 75
1, 16964, Note_on_c, 1, 52, 0
1, 16964, Note_on_c, 1, 48, 0
1, 16992, Note_on_c, 1, 52, 75
1, 16992, Note_on_c, 1, 48, 75
1, 17016, Note_on_c, 0, 76, 75
1, 17016, Note_on_c, 0, 72, 75
1, 17039, Note_on_c, 0, 76, 0
1, 17039, Note_on_c, 0, 72, 0
1, 17040, Note_on_c, 0, 77, 76
1, 17040, Note_on_c, 0, 74, 76
1, 17063, Note_on_c, 0, 77, 0
1, 17063, Note_on_c, 0, 74, 0
1, 17064, Note_on_c, 0, 79, 77
1, 17064, Note_on_c, 0, 76, 77
1, 17081, Note_on_c, 1, 52, 0
1, 17081, Note_on_c, 1, 48, 0
1, 17087, Note_on_c, 0, 79, 0
1, 17087, Note_on_c, 0, 76, 0
1, 17088, Note_on_c, 0, 81, 78
1, 17088, Note_on_c, 0, 77, 78
1, 17111, Note_on_c, 0, 81, 0
1, 17111, Note_on_c, 0, 77, 0
1, 17112, Note_on_c, 0, 83, 78
1, 17112, Note_on_c, 0, 79, 78
1, 17135, Note_on_c, 0, 83, 0
1, 17135, Note_on_c, 0, 79, 0
1, 17136, Note_on_c, 0, 84, 79
1, 17136, Note_on_c, 0, 81, 79
1, 17159, Note_on_c, 0, 84, 0
1, 17159, Note_on_c, 0, 81, 0
1, 17160, Note_on_c, 0, 86, 80
1, 17160, Note_on_c, 0, 83, 80
1, 17183, Note_on_c, 0, 86, 0
1, 17183, Note_on_c, 0, 83, 0
1, 17184, Note_on_c, 0, 88, 81
1, 17184, Note_on_c, 0, 84, 81
1, 17232, Note_on_c, 1, 55, 75
1, 17232, Note_on_c, 1, 52, 75
1, 17273, Note_on_c, 0, 88, 0
1, 17273, Note_on_c, 0, 84, 0
1, 17277, Note_on_c, 1, 55, 0
1, 17277, Note_on_c, 1, 52, 0
1, 17280, Note_on_c, 1, 57, 75
1, 17280, Note_on_c, 1, 53, 75
1, 17304, Note_on_c, 0, 81, 75
1, 17304, Note_on_c, 0, 77, 75
1, 17327, Note_on_c, 0, 81, 0
1, 17327, Note_on_c, 0, 77, 0
1, 17328, Note_on_c, 0, 79, 74
1, 17328, Note_on_c, 0, 76, 74
1, 17351, Note_on_c, 0, 79, 0
1, 17351, Note_on_c, 0, 76, 0
1, 17352, Note_on_c, 0, 77, 74
1, 17352, Note_on_c, 0, 74, 74
1, 17375, Note_on_c, 0, 77, 0
1, 17375, Note_on_c, 0, 74, 0
1, 17376, Note_on_c, 0, 77, 73
1, 17376, Note_on_c, 0, 74, 73
1, 17376, Note_on_c, 1, 57, 0
1, 17376, Note_on_c, 1, 53, 0
1, 17376, Note_on_c, 1, 55, 73
1, 17400, Note_on_c, 0, 77, 0
1, 17400, Note_on_c, 0, 74, 0
1, 17400, Note_on_c, 0, 76, 73
1, 17400, Note_on_c, 0, 72, 73
1, 17423, Note_on_c, 0, 76, 0
1, 17423, Note_on_c, 0, 72, 0
1, 17424, Note_on_c, 0, 79, 72
1, 17424, Note_on_c, 0, 76, 72
1, 17434, Note_on_c, 0, 79, 0
1, 17434, Note_on_c, 0, 76, 0
1, 17448, Note_on_c, 0, 76, 72
1, 17448, Note_on_c, 0, 72, 72
1, 17458, Note_on_c, 0, 76, 0
1, 17458, Note_on_c, 0, 72, 0
1, 17465, Note_on_c, 1, 55, 0
1, 17472, Note_on_c, 0, 76, 71
1, 17472, Note_on_c, 0, 72, 71
1, 17472, Note_on_c, 1, 43, 71
1, 17496, Note_on_c, 0, 76, 0
1, 17496, Note_on_c, 0, 72, 0
1, 17496, Note_on_c, 0, 74, 71
1, 17496, Note_on_c, 0, 71, 71
1, 17519, Note_on_c, 0, 74, 0
1, 17519, Note_on_c, 0, 71, 0
1, 17520, Note_on_c, 0, 77, 70
1, 17520, Note_on_c, 0, 74, 70
1, 17530, Note_on_c, 0, 77, 0
1, 17530, Note_on_c, 0, 74, 0
1, 17544, Note_on_c, 0, 74, 70
1, 17544, Note_on_c, 0, 71, 70
1, 17554, Note_on_c, 0, 74, 0
1, 17554, Note_on_c, 0, 71, 0
1, 17561, Note_on_c, 1, 43, 0
1, 17568, Note_on_c, 1, 52, 75
1, 17568, Note_on_c, 1, 40, 75
1, 17592, Note_on_c, 0, 84, 75
1, 17592, Note_on_c, 0, 72, 75
1, 17615, Note_on_c, 0, 84, 0
1, 17615, Note_on_c, 0, 72, 0
1, 17616, Note_on_c, 0, 83, 75
1, 17616, Note_on_c, 0, 71, 75
1, 17639, Note_on_c, 0, 83, 0
1, 17639, Note_on_c, 0, 71, 0
1, 17640, Note_on_c, 0, 81, 75
1, 17640, Note_on_c, 0, 69, 75
1, 17663, Note_on_c, 0, 81, 0
1, 17663, Note_on_c, 0, 69, 0
1, 17664, Note_on_c, 0, 79, 75
1, 17664, Note_on_c, 0, 67, 75
1, 17687, Note_on_c, 0, 79, 0
1, 17687, Note_on_c, 0, 67, 0
1, 17688, Note_on_c, 0, 77, 75
1, 17688, Note_on_c, 0, 65, 75
1, 17711, Note_on_c, 0, 77, 0
1, 17711, Note_on_c, 0, 65, 0
1, 17712, Note_on_c, 0, 76, 75
1, 17712, Note_on_c, 0, 64, 75
1, 17735, Note_on_c, 0, 76, 0
1, 17735, Note_on_c, 0, 64, 0
1, 17736, Note_on_c, 0, 74, 75
1, 17736, Note_on_c, 0, 62, 75
1, 17759, Note_on_c, 0, 74, 0
1, 17759, Note_on_c, 0, 62, 0
1, 17760, Note_on_c, 0, 72, 75
1, 17760, Note_on_c, 0, 60, 75
1, 17783, Note_on_c, 0, 72, 0
1, 17783, Note_on_c, 0, 60, 0
1, 17784, Note_on_c, 0, 71, 75
1, 17784, Note_on_c, 0, 59, 75
1, 17807, Note_on_c, 0, 71, 0
1, 17807, Note_on_c, 0, 59, 0
1, 17808, Note_on_c, 0, 69, 75
1, 17808, Note_on_c, 0, 57, 75
1, 17831, Note_on_c, 0, 69, 0
1, 17831, Note_on_c, 0, 57, 0
1, 17832, Note_on_c, 0, 67, 75
1, 17832, Note_on_c, 0, 55, 75
1, 17833, Note_on_c, 1, 52, 0
1, 17833, Note_on_c, 1, 40, 0
1, 17855, Note_on_c, 0, 67, 0
1, 17855, Note_on_c, 0, 55, 0
1, 17856, Note_on_c, 1, 53, 75
1, 17880, Note_on_c, 0, 69, 75
1, 17880, Note_on_c, 0, 65, 75
1, 17903, Note_on_c, 0, 69, 0
1, 17903, Note_on_c, 0, 65, 0
1, 17904, Note_on_c, 0, 67, 73
1, 17904, Note_on_c, 0, 64, 73
1, 17927, Note_on_c, 0, 67, 0
1, 17927, Note_on_c, 0, 64, 0
1, 17928, Note_on_c, 0, 65, 72
1, 17928, Note_on_c, 0, 62, 72
1, 17951, Note_on_c, 0, 65, 0
1, 17951, Note_on_c, 0, 62, 0
1, 17952, Note_on_c, 0, 65, 71
1, 17952, Note_on_c, 0, 62, 71
1, 17952, Note_on_c, 1, 53, 0
1, 17952, Note_on_c, 1, 55, 75
1, 17976, Note_on_c, 0, 65, 0
1, 17976, Note_on_c, 0, 62, 0
1, 17976, Note_on_c, 0, 64, 70
1, 17976, Note_on_c, 0, 60, 70
1, 17999, Note_on_c, 0, 64, 0
1, 17999, Note_on_c, 0, 60, 0
1, 18000, Note_on_c, 0, 67, 69
1, 18000, Note_on_c, 0, 64, 69
1, 18010, Note_on_c, 0, 67, 0
1, 18010, Note_on_c, 0, 64, 0
1, 18024, Note_on_c, 0, 64, 68
1, 18024, Note_on_c, 0, 60, 68
1, 18034, Note_on_c, 0, 64, 0
1, 18034, Note_on_c, 0, 60, 0
1, 18041, Note_on_c, 1, 55, 0
1, 18048, Note_on_c, 0, 64, 67
1, 18048, Note_on_c, 0, 60, 67
1, 18048, Note_on_c, 1, 43, 75
1, 18072, Note_on_c, 0, 64, 0
1, 18072, Note_on_c, 0, 60, 0
1, 18072, Note_on_c, 0, 62, 65
1, 18072, Note_on_c, 0, 59, 65
1, 18095, Note_on_c, 0, 62, 0
1, 18095, Note_on_c, 0, 59, 0
1, 18096, Note_on_c, 0, 65, 64
1, 18096, Note_on_c, 0, 62, 64
1, 18106, Note_on_c, 0, 65, 0
1, 18106, Note_on_c, 0, 62, 0
1, 18120, Note_on_c, 0, 62, 63
1, 18120, Note_on_c, 0, 59, 63
1, 18130, Note_on_c, 0, 62, 0
1, 18130, Note_on_c, 0, 59, 0
1, 18137, Note_on_c, 1, 43, 0
1, 18144, Note_on_c, 0, 60, 62
1, 18168, Note_on_c, 1, 48, 75
1, 18191, Note_on_c, 1, 48, 0
1, 18192, Note_on_c, 1, 47, 72
1, 18215, Note_on_c, 1, 47, 0
1, 18216, Note_on_c, 1, 48, 70
1, 18233, Note_on_c, 0, 60, 0
1, 18239, Note_on_c, 1, 48, 0
1, 18240, Note_on_c, 1, 43, 67
1, 18263, Note_on_c, 1, 43, 0
1, 18264, Note_on_c, 1, 48, 65
1, 18287, Note_on_c, 1, 48, 0
1, 18288, Note_on_c, 1, 40, 62
1, 18298, Note_on_c, 1, 40, 0
1, 18312, Note_on_c, 1, 43, 60
1, 18322, Note_on_c, 1, 43, 0
1, 18336, Note_on_c, 1, 36, 58
1, 18430, Note_on_c, 1, 36, 0
1, 18432, Note_on_c, 1, 64, 70
1, 18432, Note_on_c, 1, 60, 70
1, 18456, Note_on_c, 0, 67, 70
1, 18479, Note_on_c, 0, 67, 0
1, 18480, Note_on_c, 0, 69, 70
1, 18503, Note_on_c, 0, 69, 0
1, 18504, Note_on_c, 0, 71, 70
1, 18527, Note_on_c, 0, 71, 0
1, 18528, Note_on_c, 0, 72, 70
1, 18551, Note_on_c, 0, 72, 0
1, 18552, Note_on_c, 0, 74, 71
1, 18575, Note_on_c, 0, 74, 0
1, 18576, Note_on_c, 0, 76, 73
1, 18599, Note_on_c, 0, 76, 0
1, 18600, Note_on_c, 0, 77, 75
1, 18623, Note_on_c, 0, 77, 0
1, 18624, Note_on_c, 0, 79, 74
1, 18647, Note_on_c, 0, 79, 0
1, 18648, Note_on_c, 0, 76, 73
1, 18671, Note_on_c, 0, 76, 0
1, 18672, Note_on_c, 0, 74, 72
1, 18695, Note_on_c, 0, 74, 0
1, 18696, Note_on_c, 0, 72, 71
1, 18697, Note_on_c, 1, 64, 0
1, 18697, Note_on_c, 1, 60, 0
1, 18719, Note_on_c, 0, 72, 0
1, 18720, Note_on_c, 0, 72, 70
1, 18744, Note_on_c, 1, 55, 70
1, 18767, Note_on_c, 1, 55, 0
1, 18768, Note_on_c, 1, 57, 70
1, 18791, Note_on_c, 1, 57, 0
1, 18792, Note_on_c, 1, 59, 70
1, 18815, Note_on_c, 1, 59, 0
1, 18816, Note_on_c, 1, 60, 70
1, 18839, Note_on_c, 1, 60, 0
1, 18840, Note_on_c, 1, 62, 71
1, 18863, Note_on_c, 1, 62, 0
1, 18864, Note_on_c, 1, 64, 72
1, 18887, Note_on_c, 1, 64, 0
1, 18888, Note_on_c, 1, 65, 73
1, 18911, Note_on_c, 1, 65, 0
1, 18912, Note_on_c, 0, 72, 0
1, 18912, Note_on_c, 0, 71, 70
1, 18912, Note_on_c, 1, 67, 75
1, 18935, Note_on_c, 1, 67, 0
1, 18936, Note_on_c, 1, 69, 73
1, 18959, Note_on_c, 1, 69, 0
1, 18960, Note_on_c, 1, 67, 72
1, 18983, Note_on_c, 1, 67, 0
1, 18984, Note_on_c, 1, 65, 71
1, 19001, Note_on_c, 0, 71, 0
1, 19007, Note_on_c, 1, 65, 0
1, 19008, Note_on_c, 1, 64, 70
1, 19032, Note_on_c, 0, 79, 70
1, 19055, Note_on_c, 0, 79, 0
1, 19056, Note_on_c, 0, 77, 70
1, 19079, Note_on_c, 0, 77, 0
1, 19080, Note_on_c, 0, 76, 70
1, 19103, Note_on_c, 0, 76, 0
1, 19104, Note_on_c, 0, 74, 70
1, 19127, Note_on_c, 0, 74, 0
1, 19128, Note_on_c, 0, 72, 71
1, 19151, Note_on_c, 0, 72, 0
1, 19152, Note_on_c, 0, 71, 72
1, 19175, Note_on_c, 0, 71, 0
1, 19176, Note_on_c, 0, 72, 73
1, 19199, Note_on_c, 0, 72, 0
1, 19200, Note_on_c, 0, 84, 75
1, 19223, Note_on_c, 0, 84, 0
1, 19224, Note_on_c, 0, 83, 73
1, 19247, Note_on_c, 0, 83, 0
1, 19248, Note_on_c, 0, 81, 72
1, 19271, Note_on_c, 0, 81, 0
1, 19272, Note_on_c, 0, 79, 71
1, 19273, Note_on_c, 1, 64, 0
1, 19295, Note_on_c, 0, 79, 0
1, 19296, Note_on_c, 0, 79, 70
1, 19320, Note_on_c, 1, 57, 70
1, 19343, Note_on_c, 1, 57, 0
1, 19344, Note_on_c, 1, 59, 70
1, 19367, Note_on_c, 1, 59, 0
1, 19368, Note_on_c, 1, 61, 70
1, 19391, Note_on_c, 1, 61, 0
1, 19392, Note_on_c, 0, 79, 0
1, 19392, Note_on_c, 0, 77, 70
1, 19392, Note_on_c, 1, 62, 70
1, 19415, Note_on_c, 1, 62, 0
1, 19416, Note_on_c, 1, 64, 71
1, 19439, Note_on_c, 1, 64, 0
1, 19440, Note_on_c, 1, 65, 72
1, 19463, Note_on_c, 1, 65, 0
1, 19464, Note_on_c, 1, 67, 73
1, 19487, Note_on_c, 1, 67, 0
1, 19488, Note_on_c, 1, 65, 75
1, 19511, Note_on_c, 1, 65, 0
1, 19512, Note_on_c, 1, 64, 73
1, 19535, Note_on_c, 1, 64, 0
1, 19536, Note_on_c, 1, 62, 72
1, 19559, Note_on_c, 1, 62, 0
1, 19560, Note_on_c, 1, 60, 71
1, 19583, Note_on_c, 1, 60, 0
1, 19584, Note_on_c, 1, 59, 70
1, 19607, Note_on_c, 0, 77, 0
1, 19608, Note_on_c, 0, 74, 70
1, 19631, Note_on_c, 0, 74, 0
1, 19632, Note_on_c, 0, 76, 70
1, 19655, Note_on_c, 0, 76, 0
1, 19656, Note_on_c, 0, 77, 70
1, 19679, Note_on_c, 0, 77, 0
1, 19680, Note_on_c, 0, 79, 70
1, 19703, Note_on_c, 0, 79, 0
1, 19704, Note_on_c, 0, 81, 70
1, 19727, Note_on_c, 0, 81, 0
1, 19728, Note_on_c, 0, 83, 70
1, 19751, Note_on_c, 0, 83, 0
1, 19752, Note_on_c, 0, 84, 70
1, 19775, Note_on_c, 0, 84, 0
1, 19776, Note_on_c, 0, 86, 70
1, 19776, Note_on_c, 1, 59, 0
1, 19776, Note_on_c, 1, 55, 70
1, 19799, Note_on_c, 0, 86, 0
1, 19800, Note_on_c, 0, 83, 70
1, 19823, Note_on_c, 0, 83, 0
1, 19824, Note_on_c, 0, 79, 70
1, 19847, Note_on_c, 0, 79, 0
1, 19848, Note_on_c, 0, 77, 70
1, 19865, Note_on_c, 1, 55, 0
1, 19871, Note_on_c, 0, 77, 0
1, 19872, Note_on_c, 0, 77, 70
1, 19896, Note_on_c, 1, 57, 70
1, 19919, Note_on_c, 1, 57, 0
1, 19920, Note_on_c, 1, 59, 70
1, 19943, Note_on_c, 1, 59, 0
1, 19944, Note_on_c, 1, 60, 70
1, 19967, Note_on_c, 1, 60, 0
1, 19968, Note_on_c, 0, 77, 0
1, 19968, Note_on_c, 0, 76, 70
1, 19968, Note_on_c, 1, 62, 70
1, 19991, Note_on_c, 1, 62, 0
1, 19992, Note_on_c, 1, 64, 71
1, 20015, Note_on_c, 1, 64, 0
1, 20016, Note_on_c, 1, 65, 73
1, 20039, Note_on_c, 1, 65, 0
1, 20040, Note_on_c, 1, 67, 75
1, 20057, Note_on_c, 0, 76, 0
1, 20063, Note_on_c, 1, 67, 0
1, 20064, Note_on_c, 0, 84, 70
1, 20064, Note_on_c, 1, 69, 74
1, 20087, Note_on_c, 0, 84, 0
1, 20087, Note_on_c, 1, 69, 0
1, 20088, Note_on_c, 0, 83, 70
1, 20088, Note_on_c, 1, 67, 73
1, 20111, Note_on_c, 0, 83, 0
1, 20111, Note_on_c, 1, 67, 0
1, 20112, Note_on_c, 0, 81, 70
1, 20112, Note_on_c, 1, 65, 72
1, 20135, Note_on_c, 0, 81, 0
1, 20135, Note_on_c, 1, 65, 0
1, 20136, Note_on_c, 0, 79, 70
1, 20136, Note_on_c, 1, 64, 71
1, 20159, Note_on_c, 0, 79, 0
1, 20159, Note_on_c, 1, 64, 0
1, 20160, Note_on_c, 0, 81, 70
1, 20160, Note_on_c, 1, 65, 70
1, 20183, Note_on_c, 0, 81, 0
1, 20183, Note_on_c, 1, 65, 0
1, 20184, Note_on_c, 0, 77, 70
1, 20184, Note_on_c, 1, 69, 70
1, 20207, Note_on_c, 0, 77, 0
1, 20207, Note_on_c, 1, 69, 0
1, 20208, Note_on_c, 0, 76, 70
1, 20208, Note_on_c, 1, 67, 70
1, 20231, Note_on_c, 0, 76, 0
1, 20231, Note_on_c, 1, 67, 0
1, 20232, Note_on_c, 0, 74, 70
1, 20232, Note_on_c, 1, 65, 70
1, 20255, Note_on_c, 0, 74, 0
1, 20255, Note_on_c, 1, 65, 0
1, 20256, Note_on_c, 0, 77, 70
1, 20256, Note_on_c, 1, 67, 70
1, 20279, Note_on_c, 0, 77, 0
1, 20280, Note_on_c, 0, 76, 70
1, 20303, Note_on_c, 0, 76, 0
1, 20304, Note_on_c, 0, 79, 70
1, 20327, Note_on_c, 0, 79, 0
1, 20328, Note_on_c, 0, 72, 70
1, 20345, Note_on_c, 1, 67, 0
1, 20351, Note_on_c, 0, 72, 0
1, 20352, Note_on_c, 0, 76, 70
1, 20352, Note_on_c, 1, 55, 70
1, 20375, Note_on_c, 0, 76, 0
1, 20376, Note_on_c, 0, 74, 67
1, 20399, Note_on_c, 0, 74, 0
1, 20400, Note_on_c, 0, 72, 64
1, 20423, Note_on_c, 0, 72, 0
1, 20424, Note_on_c, 0, 71, 61
1, 20441, Note_on_c, 1, 55, 0
1, 20447, Note_on_c, 0, 71, 0
1, 20448, Note_on_c, 0, 72, 58
1, 20472, Note_on_c, 1, 48, 58
1, 20495, Note_on_c, 1, 48, 0
1, 20496, Note_on_c, 1, 50, 59
1, 20519, Note_on_c, 1, 50, 0
1, 20520, Note_on_c, 1, 51, 61
1, 20537, Note_on_c, 0, 72, 0
1, 20543, Note_on_c, 1, 51, 0
1, 20544, Note_on_c, 1, 53, 63
1, 20567, Note_on_c, 1, 53, 0
1, 20568, Note_on_c, 1, 55, 64
1, 20591, Note_on_c, 1, 55, 0
1, 20592, Note_on_c, 1, 57, 66
1, 20615, Note_on_c, 1, 57, 0
1, 20616, Note_on_c, 1, 59, 68
1, 20639, Note_on_c, 1, 59, 0
1, 20640, Note_on_c, 1, 60, 69
1, 20663, Note_on_c, 1, 60, 0
1, 20664, Note_on_c, 1, 59, 71
1, 20687, Note_on_c, 1, 59, 0
1, 20688, Note_on_c, 1, 62, 73
1, 20711, Note_on_c, 1, 62, 0
1, 20712, Note_on_c, 1, 60, 75
1, 20735, Note_on_c, 1, 60, 0
1, 20736, Note_on_c, 1, 63, 73
1, 20760, Note_on_c, 0, 67, 58
1, 20783, Note_on_c, 0, 67, 0
1, 20784, Note_on_c, 0, 69, 58
1, 20807, Note_on_c, 0, 69, 0
1, 20808, Note_on_c, 0, 71, 58
1, 20831, Note_on_c, 0, 71, 0
1, 20832, Note_on_c, 0, 72, 58
1, 20855, Note_on_c, 0, 72, 0
1, 20856, Note_on_c, 0, 74, 58
1, 20879, Note_on_c, 0, 74, 0
1, 20880, Note_on_c, 0, 75, 58
1, 20903, Note_on_c, 0, 75, 0
1, 20904, Note_on_c, 0, 77, 58
1, 20927, Note_on_c, 0, 77, 0
1, 20928, Note_on_c, 0, 79, 58
1, 20928, Note_on_c, 1, 63, 0
1, 20928, Note_on_c, 1, 51, 63
1, 20951, Note_on_c, 0, 79, 0
1, 20952, Note_on_c, 0, 75, 58
1, 20975, Note_on_c, 0, 75, 0
1, 20976, Note_on_c, 0, 74, 58
1, 20999, Note_on_c, 0, 74, 0
1, 21000, Note_on_c, 0, 72, 58
1, 21017, Note_on_c, 1, 51, 0
1, 21023, Note_on_c, 0, 72, 0
1, 21024, Note_on_c, 0, 78, 58
1, 21024, Note_on_c, 1, 50, 58
1, 21047, Note_on_c, 1, 50, 0
1, 21048, Note_on_c, 1, 54, 58
1, 21069, Note_on_c, 0, 78, 0
1, 21071, Note_on_c, 1, 54, 0
1, 21072, Note_on_c, 0, 79, 59
1, 21072, Note_on_c, 1, 52, 59
1, 21095, Note_on_c, 1, 52, 0
1, 21096, Note_on_c, 1, 55, 60
1, 21117, Note_on_c, 0, 79, 0
1, 21119, Note_on_c, 1, 55, 0
1, 21120, Note_on_c, 0, 81, 60
1, 21120, Note_on_c, 1, 54, 60
1, 21140, Note_on_c, 0, 81, 0
1, 21143, Note_on_c, 1, 54, 0
1, 21144, Note_on_c, 1, 57, 61
1, 21167, Note_on_c, 1, 57, 0
1, 21168, Note_on_c, 0, 72, 77
1, 21168, Note_on_c, 1, 50, 62
1, 21191, Note_on_c, 1, 50, 0
1, 21192, Note_on_c, 1, 54, 63
1, 21215, Note_on_c, 1, 54, 0
1, 21216, Note_on_c, 1, 52, 63
1, 21239, Note_on_c, 1, 52, 0
1, 21240, Note_on_c, 1, 55, 63
1, 21263, Note_on_c, 1, 55, 0
1, 21264, Note_on_c, 0, 72, 0
1, 21264, Note_on_c, 0, 69, 63
1, 21264, Note_on_c, 1, 54, 63
1, 21287, Note_on_c, 1, 54, 0
1, 21288, Note_on_c, 1, 57, 63
1, 21309, Note_on_c, 0, 69, 0
1, 21311, Note_on_c, 1, 57, 0
1, 21312, Note_on_c, 0, 70, 64
1, 21312, Note_on_c, 1, 55, 64
1, 21335, Note_on_c, 1, 55, 0
1, 21336, Note_on_c, 1, 58, 65
1, 21357, Note_on_c, 0, 70, 0
1, 21359, Note_on_c, 1, 58, 0
1, 21360, Note_on_c, 0, 66, 65
1, 21360, Note_on_c, 1, 57, 66
1, 21383, Note_on_c, 1, 57, 0
1, 21384, Note_on_c, 1, 60, 67
1, 21405, Note_on_c, 0, 66, 0
1, 21407, Note_on_c, 1, 60, 0
1, 21408, Note_on_c, 0, 67, 66
1, 21408, Note_on_c, 1, 58, 68
1, 21428, Note_on_c, 0, 67, 0
1, 21431, Note_on_c, 1, 58, 0
1, 21432, Note_on_c, 1, 62, 69
1, 21455, Note_on_c, 1, 62, 0
1, 21456, Note_on_c, 0, 79, 83
1, 21456, Note_on_c, 1, 55, 70
1, 21479, Note_on_c, 1, 55, 0
1, 21480, Note_on_c, 1, 59, 70
1, 21503, Note_on_c, 1, 59, 0
1, 21504, Note_on_c, 1, 57, 70
1, 21527, Note_on_c, 1, 57, 0
1, 21528, Note_on_c, 1, 60, 70
1, 21551, Note_on_c, 1, 60, 0
1, 21552, Note_on_c, 0, 79, 0
1, 21552, Note_on_c, 0, 77, 70
1, 21552, Note_on_c, 1, 59, 71
1, 21575, Note_on_c, 1, 59, 0
1, 21576, Note_on_c, 1, 62, 71
1, 21597, Note_on_c, 0, 77, 0
1, 21599, Note_on_c, 1, 62, 0
1, 21600, Note_on_c, 0, 76, 70
1, 21600, Note_on_c, 1, 60, 72
1, 21623, Note_on_c, 1, 60, 0
1, 21624, Note_on_c, 1, 64, 72
1, 21645, Note_on_c, 0, 76, 0
1, 21647, Note_on_c, 1, 64, 0
1, 21648, Note_on_c, 0, 71, 71
1, 21648, Note_on_c, 1, 62, 73
1, 21671, Note_on_c, 1, 62, 0
1, 21672, Note_on_c, 1, 65, 73
1, 21693, Note_on_c, 0, 71, 0
1, 21695, Note_on_c, 1, 65, 0
1, 21696, Note_on_c, 0, 72, 72
1, 21696, Note_on_c, 1, 64, 74
1, 21716, Note_on_c, 0, 72, 0
1, 21719, Note_on_c, 1, 64, 0
1, 21720, Note_on_c, 1, 67, 74
1, 21743, Note_on_c, 1, 67, 0
1, 21744, Note_on_c, 0, 72, 89
1, 21744, Note_on_c, 1, 48, 75
1, 21767, Note_on_c, 1, 48, 0
1, 21768, Note_on_c, 1, 52, 75
1, 21791, Note_on_c, 1, 52, 0
1, 21792, Note_on_c, 1, 50, 75
1, 21815, Note_on_c, 1, 50, 0
1, 21816, Note_on_c, 1, 53, 75
1, 21839, Note_on_c, 1, 53, 0
1, 21840, Note_on_c, 0, 72, 0
1, 21840, Note_on_c, 0, 70, 75
1, 21840, Note_on_c, 1, 52, 75
1, 21863, Note_on_c, 1, 52, 0
1, 21864, Note_on_c, 1, 55, 75
1, 21885, Note_on_c, 0, 70, 0
1, 21887, Note_on_c, 1, 55, 0
1, 21888, Note_on_c, 0, 69, 75
1, 21888, Note_on_c, 1, 53, 75
1, 21911, Note_on_c, 1, 53, 0
1, 21912, Note_on_c, 1, 57, 75
1, 21933, Note_on_c, 0, 69, 0
1, 21935, Note_on_c, 1, 57, 0
1, 21936, Note_on_c, 0, 64, 75
1, 21936, Note_on_c, 1, 55, 75
1, 21959, Note_on_c, 1, 55, 0
1, 21960, Note_on_c, 1, 58, 75
1, 21981, Note_on_c, 0, 64, 0
1, 21983, Note_on_c, 1, 58, 0
1, 21984, Note_on_c, 0, 65, 75
1, 21984, Note_on_c, 1, 57, 75
1, 22004, Note_on_c, 0, 65, 0
1, 22007, Note_on_c, 1, 57, 0
1, 22008, Note_on_c, 1, 60, 75
1, 22031, Note_on_c, 1, 60, 0
1, 22032, Note_on_c, 0, 77, 91
1, 22032, Note_on_c, 1, 53, 75
1, 22055, Note_on_c, 1, 53, 0
1, 22056, Note_on_c, 1, 57, 75
1, 22079, Note_on_c, 1, 57, 0
1, 22080, Note_on_c, 1, 55, 75
1, 22103, Note_on_c, 1, 55, 0
1, 22104, Note_on_c, 1, 58, 75
1, 22127, Note_on_c, 1, 58, 0
1, 22128, Note_on_c, 0, 77, 0
1, 22128, Note_on_c, 0, 75, 75
1, 22128, Note_on_c, 1, 57, 75
1, 22151, Note_on_c, 1, 57, 0
1, 22152, Note_on_c, 1, 60, 75
1, 22173, Note_on_c, 0, 75, 0
1, 22175, Note_on_c, 1, 60, 0
1, 22176, Note_on_c, 0, 74, 75
1, 22176, Note_on_c, 1, 58, 75
1, 22199, Note_on_c, 1, 58, 0
1, 22200, Note_on_c, 1, 62, 75
1, 22221, Note_on_c, 0, 74, 0
1, 22223, Note_on_c, 1, 62, 0
1, 22224, Note_on_c, 0, 69, 75
1, 22224, Note_on_c, 1, 60, 75
1, 22247, Note_on_c, 1, 60, 0
1, 22248, Note_on_c, 1, 63, 75
1, 22269, Note_on_c, 0, 69, 0
1, 22271, Note_on_c, 1, 63, 0
1, 22272, Note_on_c, 0, 70, 75
1, 22272, Note_on_c, 1, 62, 75
1, 22292, Note_on_c, 0, 70, 0
1, 22295, Note_on_c, 1, 62, 0
1, 22296, Note_on_c, 1, 65, 75
1, 22319, Note_on_c, 1, 65, 0
1, 22320, Note_on_c, 0, 79, 91
1, 22320, Note_on_c, 1, 55, 75
1, 22343, Note_on_c, 1, 55, 0
1, 22344, Note_on_c, 1, 59, 75
1, 22367, Note_on_c, 1, 59, 0
1, 22368, Note_on_c, 1, 57, 75
1, 22391, Note_on_c, 1, 57, 0
1, 22392, Note_on_c, 1, 60, 75
1, 22415, Note_on_c, 1, 60, 0
1, 22416, Note_on_c, 0, 79, 0
1, 22416, Note_on_c, 0, 77, 75
1, 22416, Note_on_c, 1, 59, 75
1, 22439, Note_on_c, 1, 59, 0
1, 22440, Note_on_c, 1, 62, 75
1, 22461, Note_on_c, 0, 77, 0
1, 22463, Note_on_c, 1, 62, 0
1, 22464, Note_on_c, 0, 76, 75
1, 22464, Note_on_c, 1, 60, 75
1, 22487, Note_on_c, 1, 60, 0
1, 22488, Note_on_c, 1, 64, 75
1, 22509, Note_on_c, 0, 76, 0
1, 22511, Note_on_c, 1, 64, 0
1, 22512, Note_on_c, 0, 71, 75
1, 22512, Note_on_c, 1, 62, 75
1, 22535, Note_on_c, 1, 62, 0
1, 22536, Note_on_c, 1, 65, 75
1, 22557, Note_on_c, 0, 71, 0
1, 22559, Note_on_c, 1, 65, 0
1, 22560, Note_on_c, 0, 72, 75
1, 22560, Note_on_c, 1, 64, 75
1, 22580, Note_on_c, 0, 72, 0
1, 22583, Note_on_c, 1, 64, 0
1, 22584, Note_on_c, 1, 67, 75
1, 22607, Note_on_c, 1, 67, 0
1, 22608, Note_on_c, 0, 81, 91
1, 22608, Note_on_c, 1, 57, 75
1, 22631, Note_on_c, 1, 57, 0
1, 22632, Note_on_c, 1, 61, 75
1, 22655, Note_on_c, 1, 61, 0
1, 22656, Note_on_c, 1, 59, 75
1, 22679, Note_on_c, 1, 59, 0
1, 22680, Note_on_c, 1, 62, 75
1, 22703, Note_on_c, 1, 62, 0
1, 22704, Note_on_c, 0, 81, 0
1, 22704, Note_on_c, 0, 79, 75
1, 22704, Note_on_c, 1, 61, 75
1, 22727, Note_on_c, 1, 61, 0
1, 22728, Note_on_c, 1, 64, 75
1, 22749, Note_on_c, 0, 79, 0
1, 22751, Note_on_c, 1, 64, 0
1, 22752, Note_on_c, 0, 77, 75
1, 22752, Note_on_c, 1, 62, 75
1, 22775, Note_on_c, 1, 62, 0
1, 22776, Note_on_c, 1, 65, 75
1, 22797, Note_on_c, 0, 77, 0
1, 22799, Note_on_c, 1, 65, 0
1, 22800, Note_on_c, 0, 73, 75
1, 22800, Note_on_c, 1, 64, 75
1, 22823, Note_on_c, 1, 64, 0
1, 22824, Note_on_c, 1, 67, 75
1, 22845, Note_on_c, 0, 73, 0
1, 22847, Note_on_c, 1, 67, 0
1, 22848, Note_on_c, 0, 74, 75
1, 22848, Note_on_c, 1, 65, 75
1, 22871, Note_on_c, 1, 65, 0
1, 22872, Note_on_c, 1, 69, 75
1, 22893, Note_on_c, 0, 74, 0
1, 22895, Note_on_c, 1, 69, 0
1, 22896, Note_on_c, 0, 77, 75
1, 22896, Note_on_c, 1, 62, 75
1, 22919, Note_on_c, 0, 77, 0
1, 22919, Note_on_c, 1, 62, 0
1, 22920, Note_on_c, 0, 81, 75
1, 22920, Note_on_c, 1, 65, 75
1, 22943, Note_on_c, 0, 81, 0
1, 22943, Note_on_c, 1, 65, 0
1, 22944, Note_on_c, 0, 79, 75
1, 22944, Note_on_c, 1, 64, 75
1, 22967, Note_on_c, 0, 79, 0
1, 22967, Note_on_c, 1, 64, 0
1, 22968, Note_on_c, 0, 82, 75
1, 22968, Note_on_c, 1, 67, 75
1, 22991, Note_on_c, 0, 82, 0
1, 22991, Note_on_c, 1, 67, 0
1, 22992, Note_on_c, 0, 81, 75
1, 22992, Note_on_c, 1, 65, 75
1, 23015, Note_on_c, 0, 81, 0
1, 23015, Note_on_c, 1, 65, 0
1, 23016, Note_on_c, 0, 84, 75
1, 23016, Note_on_c, 1, 69, 75
1, 23039, Note_on_c, 0, 84, 0
1, 23039, Note_on_c, 1, 69, 0
1, 23040, Note_on_c, 0, 82, 75
1, 23040, Note_on_c, 1, 67, 75
1, 23063, Note_on_c, 0, 82, 0
1, 23064, Note_on_c, 0, 86, 75
1, 23085, Note_on_c, 1, 67, 0
1, 23087, Note_on_c, 0, 86, 0
1, 23088, Note_on_c, 0, 81, 75
1, 23088, Note_on_c, 1, 69, 75
1, 23111, Note_on_c, 0, 81, 0
1, 23112, Note_on_c, 0, 84, 75
1, 23133, Note_on_c, 1, 69, 0
1, 23135, Note_on_c, 0, 84, 0
1, 23136, Note_on_c, 0, 79, 75
1, 23136, Note_on_c, 1, 70, 75
1, 23159, Note_on_c, 0, 79, 0
1, 23160, Note_on_c, 0, 82, 75
1, 23181, Note_on_c, 1, 70, 0
1, 23183, Note_on_c, 0, 82, 0
1, 23184, Note_on_c, 0, 78, 75
1, 23184, Note_on_c, 1, 72, 75
1, 23207, Note_on_c, 0, 78, 0
1, 23208, Note_on_c, 0, 81, 75
1, 23229, Note_on_c, 1, 72, 0
1, 23231, Note_on_c, 0, 81, 0
1, 23232, Note_on_c, 0, 79, 75
1, 23232, Note_on_c, 1, 70, 75
1, 23252, Note_on_c, 1, 70, 0
1, 23255, Note_on_c, 0, 79, 0
1, 23256, Note_on_c, 0, 82, 75
1, 23279, Note_on_c, 0, 82, 0
1, 23280, Note_on_c, 0, 74, 75
1, 23280, Note_on_c, 1, 59, 75
1, 23303, Note_on_c, 0, 74, 0
1, 23304, Note_on_c, 0, 77, 75
1, 23325, Note_on_c, 1, 59, 0
1, 23327, Note_on_c, 0, 77, 0
1, 23328, Note_on_c, 0, 76, 75
1, 23328, Note_on_c, 1, 60, 75
1, 23351, Note_on_c, 0, 76, 0
1, 23352, Note_on_c, 0, 79, 75
1, 23373, Note_on_c, 1, 60, 0
1, 23375, Note_on_c, 0, 79, 0
1, 23376, Note_on_c, 0, 74, 75
1, 23376, Note_on_c, 1, 62, 75
1, 23399, Note_on_c, 0, 74, 0
1, 23400, Note_on_c, 0, 77, 75
1, 23421, Note_on_c, 1, 62, 0
1, 23423, Note_on_c, 0, 77, 0
1, 23424, Note_on_c, 0, 72, 75
1, 23424, Note_on_c, 1, 64, 75
1, 23447, Note_on_c, 0, 72, 0
1, 23448, Note_on_c, 0, 76, 75
1, 23469, Note_on_c, 1, 64, 0
1, 23471, Note_on_c, 0, 76, 0
1, 23472, Note_on_c, 0, 71, 75
1, 23472, Note_on_c, 1, 65, 75
1, 23495, Note_on_c, 0, 71, 0
1, 23496, Note_on_c, 0, 74, 75
1, 23517, Note_on_c, 1, 65, 0
1, 23519, Note_on_c, 0, 74, 0
1, 23520, Note_on_c, 0, 72, 75
1, 23520, Note_on_c, 1, 64, 75
1, 23543, Note_on_c, 0, 72, 0
1, 23544, Note_on_c, 0, 76, 75
1, 23565, Note_on_c, 1, 64, 0
1, 23567, Note_on_c, 0, 76, 0
1, 23568, Note_on_c, 0, 79, 75
1, 23568, Note_on_c, 1, 60, 75
1, 23591, Note_on_c, 0, 79, 0
1, 23592, Note_on_c, 0, 82, 75
1, 23613, Note_on_c, 1, 60, 0
1, 23615, Note_on_c, 0, 82, 0
1, 23616, Note_on_c, 0, 81, 75
1, 23616, Note_on_c, 1, 65, 75
1, 23639, Note_on_c, 0, 81, 0
1, 23640, Note_on_c, 0, 84, 75
1, 23661, Note_on_c, 1, 65, 0
1, 23663, Note_on_c, 0, 84, 0
1, 23664, Note_on_c, 0, 79, 75
1, 23664, Note_on_c, 1, 67, 75
1, 23687, Note_on_c, 0, 79, 0
1, 23688, Note_on_c, 0, 82, 75
1, 23709, Note_on_c, 1, 67, 0
1, 23711, Note_on_c, 0, 82, 0
1, 23712, Note_on_c, 0, 77, 75
1, 23712, Note_on_c, 1, 69, 75
1, 23735, Note_on_c, 0, 77, 0
1, 23736, Note_on_c, 0, 81, 75
1, 23757, Note_on_c, 1, 69, 0
1, 23759, Note_on_c, 0, 81, 0
1, 23760, Note_on_c, 0, 76, 75
1, 23760, Note_on_c, 1, 70, 75
1, 23783, Note_on_c, 0, 76, 0
1, 23784, Note_on_c, 0, 79, 75
1, 23805, Note_on_c, 1, 70, 0
1, 23807, Note_on_c, 0, 79, 0
1, 23808, Note_on_c, 0, 77, 75
1, 23808, Note_on_c, 1, 69, 75
1, 23831, Note_on_c, 0, 77, 0
1, 23832, Note_on_c, 0, 81, 75
1, 23853, Note_on_c, 1, 69, 0
1, 23855, Note_on_c, 0, 81, 0
1, 23856, Note_on_c, 0, 72, 75
1, 23856, Note_on_c, 1, 57, 75
1, 23879, Note_on_c, 0, 72, 0
1, 23880, Note_on_c, 0, 75, 75
1, 23901, Note_on_c, 1, 57, 0
1, 23903, Note_on_c, 0, 75, 0
1, 23904, Note_on_c, 0, 74, 75
1, 23904, Note_on_c, 1, 58, 75
1, 23927, Note_on_c, 0, 74, 0
1, 23928, Note_on_c, 0, 77, 75
1, 23949, Note_on_c, 1, 58, 0
1, 23951, Note_on_c, 0, 77, 0
1, 23952, Note_on_c, 0, 72, 75
1, 23952, Note_on_c, 1, 60, 75
1, 23975, Note_on_c, 0, 72, 0
1, 23976, Note_on_c, 0, 75, 75
1, 23997, Note_on_c, 1, 60, 0
1, 23999, Note_on_c, 0, 75, 0
1, 24000, Note_on_c, 0, 70, 75
1, 24000, Note_on_c, 1, 62, 75
1, 24023, Note_on_c, 0, 70, 0
1, 24024, Note_on_c, 0, 74, 75
1, 24045, Note_on_c, 1, 62, 0
1, 24047, Note_on_c, 0, 74, 0
1, 24048, Note_on_c, 0, 69, 75
1, 24048, Note_on_c, 1, 63, 75
1, 24071, Note_on_c, 0, 69, 0
1, 24072, Note_on_c, 0, 72, 75
1, 24093, Note_on_c, 1, 63, 0
1, 24095, Note_on_c, 0, 72, 0
1, 24096, Note_on_c, 0, 70, 75
1, 24096, Note_on_c, 1, 62, 75
1, 24119, Note_on_c, 0, 70, 0
1, 24120, Note_on_c, 0, 74, 75
1, 24141, Note_on_c, 1, 62, 0
1, 24143, Note_on_c, 0, 74, 0
1, 24144, Note_on_c, 0, 72, 75
1, 24144, Note_on_c, 1, 57, 75
1, 24167, Note_on_c, 0, 72, 0
1, 24168, Note_on_c, 0, 75, 75
1, 24189, Note_on_c, 1, 57, 0
1, 24191, Note_on_c, 0, 75, 0
1, 24192, Note_on_c, 0, 74, 75
1, 24192, Note_on_c, 1, 58, 75
1, 24215, Note_on_c, 0, 74, 0
1, 24216, Note_on_c, 0, 77, 73
1, 24237, Note_on_c, 1, 58, 0
1, 24239, Note_on_c, 0, 77, 0
1, 24240, Note_on_c, 0, 72, 72
1, 24240, Note_on_c, 1, 60, 72
1, 24263, Note_on_c, 0, 72, 0
1, 24264, Note_on_c, 0, 75, 71
1, 24285, Note_on_c, 1, 60, 0
1, 24287, Note_on_c, 0, 75, 0
1, 24288, Note_on_c, 0, 70, 70
1, 24288, Note_on_c, 1, 62, 70
1, 24311, Note_on_c, 0, 70, 0
1, 24312, Note_on_c, 0, 74, 69
1, 24333, Note_on_c, 1, 62, 0
1, 24335, Note_on_c, 0, 74, 0
1, 24336, Note_on_c, 0, 69, 68
1, 24336, Note_on_c, 1, 60, 68
1, 24359, Note_on_c, 0, 69, 0
1, 24360, Note_on_c, 0, 72, 67
1, 24381, Note_on_c, 1, 60, 0
1, 24383, Note_on_c, 0, 72, 0
1, 24384, Note_on_c, 0, 67, 66
1, 24384, Note_on_c, 1, 58, 66
1, 24407, Note_on_c, 0, 67, 0
1, 24408, Note_on_c, 0, 70, 65
1, 24429, Note_on_c, 1, 58, 0
1, 24431, Note_on_c, 0, 70, 0
1, 24432, Note_on_c, 0, 65, 64
1, 24432, Note_on_c, 1, 59, 64
1, 24455, Note_on_c, 0, 65, 0
1, 24456, Note_on_c, 0, 69, 63
1, 24477, Note_on_c, 1, 59, 0
1, 24479, Note_on_c, 0, 69, 0
1, 24480, Note_on_c, 0, 64, 62
1, 24480, Note_on_c, 1, 60, 62
1, 24503, Note_on_c, 0, 64, 0
1, 24504, Note_on_c, 0, 67, 61
1, 24527, Note_on_c, 0, 67, 0
1, 24528, Note_on_c, 0, 62, 60
1, 24551, Note_on_c, 0, 62, 0
1, 24552, Note_on_c, 0, 65, 59
1, 24569, Note_on_c, 1, 60, 0
1, 24575, Note_on_c, 0, 65, 0
1, 24576, Note_on_c, 1, 60, 58
1, 24599, Note_on_c, 1, 60, 0
1, 24600, Note_on_c, 1, 64, 59
1, 24623, Note_on_c, 1, 64, 0
1, 24624, Note_on_c, 1, 58, 61
1, 24647, Note_on_c, 1, 58, 0
1, 24648, Note_on_c, 1, 62, 62
1, 24671, Note_on_c, 1, 62, 0
1, 24672, Note_on_c, 1, 57, 64
1, 24695, Note_on_c, 1, 57, 0
1, 24696, Note_on_c, 1, 60, 65
1, 24719, Note_on_c, 1, 60, 0
1, 24720, Note_on_c, 1, 55, 67
1, 24743, Note_on_c, 1, 55, 0
1, 24744, Note_on_c, 1, 58, 68
1, 24767, Note_on_c, 1, 58, 0
1, 24768, Note_on_c, 1, 57, 70
1, 24768, Note_on_c, 1, 53, 70
1, 24792, Note_on_c, 0, 60, 70
1, 24815, Note_on_c, 0, 60, 0
1, 24816, Note_on_c, 0, 62, 70
1, 24839, Note_on_c, 0, 62, 0
1, 24840, Note_on_c, 0, 64, 70
1, 24863, Note_on_c, 0, 64, 0
1, 24864, Note_on_c, 0, 65, 70
1, 24887, Note_on_c, 0, 65, 0
1, 24888, Note_on_c, 0, 67, 71
1, 24911, Note_on_c, 0, 67, 0
1, 24912, Note_on_c, 0, 69, 72
1, 24935, Note_on_c, 0, 69, 0
1, 24936, Note_on_c, 0, 70, 73
1, 24945, Note_on_c, 1, 57, 0
1, 24945, Note_on_c, 1, 53, 0
1, 24959, Note_on_c, 0, 70, 0
1, 24960, Note_on_c, 0, 72, 75
1, 24983, Note_on_c, 0, 72, 0
1, 24984, Note_on_c, 0, 69, 73
1, 25007, Note_on_c, 0, 69, 0
1, 25008, Note_on_c, 0, 67, 72
1, 25031, Note_on_c, 0, 67, 0
1, 25032, Note_on_c, 0, 65, 71
1, 25055, Note_on_c, 0, 65, 0
1, 25056, Note_on_c, 0, 65, 70
1, 25080, Note_on_c, 1, 48, 70
1, 25103, Note_on_c, 1, 48, 0
1, 25104, Note_on_c, 1, 50, 71
1, 25127, Note_on_c, 1, 50, 0
1, 25128, Note_on_c, 1, 52, 72
1, 25151, Note_on_c, 1, 52, 0
1, 25152, Note_on_c, 1, 53, 73
1, 25175, Note_on_c, 1, 53, 0
1, 25176, Note_on_c, 1, 55, 74
1, 25199, Note_on_c, 1, 55, 0
1, 25200, Note_on_c, 1, 57, 75
1, 25223, Note_on_c, 1, 57, 0
1, 25224, Note_on_c, 1, 58, 74
1, 25247, Note_on_c, 1, 58, 0
1, 25248, Note_on_c, 0, 65, 0
1, 25248, Note_on_c, 0, 64, 70
1, 25248, Note_on_c, 1, 60, 73
1, 25271, Note_on_c, 1, 60, 0
1, 25272, Note_on_c, 1, 62, 72
1, 25295, Note_on_c, 1, 62, 0
1, 25296, Note_on_c, 1, 60, 71
1, 25319, Note_on_c, 1, 60, 0
1, 25320, Note_on_c, 1, 58, 70
1, 25337, Note_on_c, 0, 64, 0
1, 25343, Note_on_c, 1, 58, 0
1, 25344, Note_on_c, 1, 57, 70
1, 25368, Note_on_c, 0, 72, 70
1, 25391, Note_on_c, 0, 72, 0
1, 25392, Note_on_c, 0, 70, 70
1, 25415, Note_on_c, 0, 70, 0
1, 25416, Note_on_c, 0, 69, 70
1, 25439, Note_on_c, 0, 69, 0
1, 25440, Note_on_c, 0, 67, 70
1, 25463, Note_on_c, 0, 67, 0
1, 25464, Note_on_c, 0, 65, 70
1, 25487, Note_on_c, 0, 65, 0
1, 25488, Note_on_c, 0, 64, 70
1, 25511, Note_on_c, 0, 64, 0
1, 25512, Note_on_c, 0, 65, 70
1, 25535, Note_on_c, 0, 65, 0
1, 25536, Note_on_c, 0, 77, 70
1, 25559, Note_on_c, 0, 77, 0
1, 25560, Note_on_c, 0, 76, 70
1, 25583, Note_on_c, 0, 76, 0
1, 25584, Note_on_c, 0, 74, 70
1, 25607, Note_on_c, 0, 74, 0
1, 25608, Note_on_c, 0, 72, 70
1, 25631, Note_on_c, 0, 72, 0
1, 25632, Note_on_c, 0, 72, 70
1, 25655, Note_on_c, 1, 57, 0
1, 25656, Note_on_c, 1, 50, 70
1, 25679, Note_on_c, 1, 50, 0
1, 25680, Note_on_c, 1, 52, 70
1, 25703, Note_on_c, 1, 52, 0
1, 25704, Note_on_c, 1, 54, 70
1, 25721, Note_on_c, 0, 72, 0
1, 25727, Note_on_c, 1, 54, 0
1, 25728, Note_on_c, 0, 70, 70
1, 25728, Note_on_c, 1, 55, 70
1, 25751, Note_on_c, 1, 55, 0
1, 25752, Note_on_c, 1, 57, 71
1, 25775, Note_on_c, 1, 57, 0
1, 25776, Note_on_c, 1, 58, 73
1, 25799, Note_on_c, 1, 58, 0
1, 25800, Note_on_c, 1, 60, 75
1, 25823, Note_on_c, 1, 60, 0
1, 25824, Note_on_c, 1, 58, 74
1, 25847, Note_on_c, 1, 58, 0
1, 25848, Note_on_c, 1, 57, 73
1, 25871, Note_on_c, 1, 57, 0
1, 25872, Note_on_c, 1, 55, 72
1, 25895, Note_on_c, 1, 55, 0
1, 25896, Note_on_c, 1, 53, 71
1, 25919, Note_on_c, 1, 53, 0
1, 25920, Note_on_c, 1, 52, 70
1, 25943, Note_on_c, 0, 70, 0
1, 25944, Note_on_c, 0, 67, 70
1, 25967, Note_on_c, 0, 67, 0
1, 25968, Note_on_c, 0, 69, 70
1, 25991, Note_on_c, 0, 69, 0
1, 25992, Note_on_c, 0, 70, 70
1, 26015, Note_on_c, 0, 70, 0
1, 26016, Note_on_c, 0, 72, 70
1, 26039, Note_on_c, 0, 72, 0
1, 26040, Note_on_c, 0, 74, 71
1, 26063, Note_on_c, 0, 74, 0
1, 26064, Note_on_c, 0, 76, 73
1, 26087, Note_on_c, 0, 76, 0
1, 26088, Note_on_c, 0, 77, 75
1, 26111, Note_on_c, 0, 77, 0
1, 26112, Note_on_c, 0, 79, 74
1, 26112, Note_on_c, 1, 52, 0
1, 26112, Note_on_c, 1, 48, 70
1, 26135, Note_on_c, 0, 79, 0
1, 26136, Note_on_c, 0, 76, 73
1, 26159, Note_on_c, 0, 76, 0
1, 26160, Note_on_c, 0, 72, 72
1, 26183, Note_on_c, 0, 72, 0
1, 26184, Note_on_c, 0, 70, 71
1, 26201, Note_on_c, 1, 48, 0
1, 26207, Note_on_c, 0, 70, 0
1, 26208, Note_on_c, 0, 70, 86
1, 26232, Note_on_c, 1, 50, 70
1, 26255, Note_on_c, 1, 50, 0
1, 26256, Note_on_c, 1, 52, 70
1, 26279, Note_on_c, 1, 52, 0
1, 26280, Note_on_c, 1, 53, 70
1, 26303, Note_on_c, 1, 53, 0
1, 26304, Note_on_c, 0, 70, 0
1, 26304, Note_on_c, 0, 69, 70
1, 26304, Note_on_c, 1, 55, 70
1, 26327, Note_on_c, 1, 55, 0
1, 26328, Note_on_c, 1, 57, 71
1, 26351, Note_on_c, 1, 57, 0
1, 26352, Note_on_c, 1, 58, 72
1, 26375, Note_on_c, 1, 58, 0
1, 26376, Note_on_c, 1, 60, 73
1, 26393, Note_on_c, 0, 69, 0
1, 26399, Note_on_c, 1, 60, 0
1, 26400, Note_on_c, 0, 77, 70
1, 26400, Note_on_c, 1, 62, 75
1, 26423, Note_on_c, 0, 77, 0
1, 26423, Note_on_c, 1, 62, 0
1, 26424, Note_on_c, 0, 76, 70
1, 26424, Note_on_c, 1, 60, 73
1, 26447, Note_on_c, 0, 76, 0
1, 26447, Note_on_c, 1, 60, 0
1, 26448, Note_on_c, 0, 74, 70
1, 26448, Note_on_c, 1, 58, 72
1, 26471, Note_on_c, 0, 74, 0
1, 26471, Note_on_c, 1, 58, 0
1, 26472, Note_on_c, 0, 72, 70
1, 26472, Note_on_c, 1, 57, 71
1, 26495, Note_on_c, 0, 72, 0
1, 26495, Note_on_c, 1, 57, 0
1, 26496, Note_on_c, 0, 74, 70
1, 26496, Note_on_c, 1, 58, 70
1, 26519, Note_on_c, 0, 74, 0
1, 26519, Note_on_c, 1, 58, 0
1, 26520, Note_on_c, 0, 70, 70
1, 26520, Note_on_c, 1, 62, 70
1, 26543, Note_on_c, 0, 70, 0
1, 26543, Note_on_c, 1, 62, 0
1, 26544, Note_on_c, 0, 69, 70
1, 26544, Note_on_c, 1, 60, 70
1, 26567, Note_on_c, 0, 69, 0
1, 26567, Note_on_c, 1, 60, 0
1, 26568, Note_on_c, 0, 67, 70
1, 26568, Note_on_c, 1, 58, 70
1, 26591, Note_on_c, 0, 67, 0
1, 26591, Note_on_c, 1, 58, 0
1, 26592, Note_on_c, 0, 70, 70
1, 26592, Note_on_c, 1, 60, 70
1, 26615, Note_on_c, 0, 70, 0
1, 26616, Note_on_c, 0, 69, 70
1, 26639, Note_on_c, 0, 69, 0
1, 26640, Note_on_c, 0, 72, 70
1, 26663, Note_on_c, 0, 72, 0
1, 26664, Note_on_c, 0, 65, 70
1, 26674, Note_on_c, 0, 65, 0
1, 26681, Note_on_c, 1, 60, 0
1, 26688, Note_on_c, 0, 69, 70
1, 26688, Note_on_c, 1, 48, 70
1, 26711, Note_on_c, 0, 69, 0
1, 26712, Note_on_c, 0, 67, 70
1, 26735, Note_on_c, 0, 67, 0
1, 26736, Note_on_c, 0, 65, 70
1, 26759, Note_on_c, 0, 65, 0
1, 26760, Note_on_c, 0, 64, 70
1, 26777, Note_on_c, 1, 48, 0
1, 26783, Note_on_c, 0, 64, 0
1, 26784, Note_on_c, 0, 65, 70
1, 26807, Note_on_c, 0, 65, 0
1, 26808, Note_on_c, 0, 57, 70
1, 26808, Note_on_c, 1, 41, 70
1, 26831, Note_on_c, 0, 57, 0
1, 26831, Note_on_c, 1, 41, 0
1, 26832, Note_on_c, 0, 58, 70
1, 26832, Note_on_c, 1, 43, 70
1, 26855, Note_on_c, 0, 58, 0
1, 26855, Note_on_c, 1, 43, 0
1, 26856, Note_on_c, 0, 60, 70
1, 26856, Note_on_c, 1, 45, 70
1, 26879, Note_on_c, 0, 60, 0
1, 26879, Note_on_c, 1, 45, 0
1, 26880, Note_on_c, 0, 62, 71
1, 26880, Note_on_c, 1, 46, 71
1, 26903, Note_on_c, 0, 62, 0
1, 26903, Note_on_c, 1, 46, 0
1, 26904, Note_on_c, 0, 64, 71
1, 26904, Note_on_c, 1, 48, 71
1, 26927, Note_on_c, 0, 64, 0
1, 26927, Note_on_c, 1, 48, 0
1, 26928, Note_on_c, 0, 65, 72
1, 26928, Note_on_c, 1, 50, 72
1, 26951, Note_on_c, 0, 65, 0
1, 26951, Note_on_c, 1, 50, 0
1, 26952, Note_on_c, 0, 67, 72
1, 26952, Note_on_c, 1, 52, 72
1, 26975, Note_on_c, 0, 67, 0
1, 26975, Note_on_c, 1, 52, 0
1, 26976, Note_on_c, 0, 69, 72
1, 26976, Note_on_c, 1, 53, 73
1, 26999, Note_on_c, 0, 69, 0
1, 26999, Note_on_c, 1, 53, 0
1, 27000, Note_on_c, 0, 67, 73
1, 27000, Note_on_c, 1, 52, 73
1, 27023, Note_on_c, 0, 67, 0
1, 27023, Note_on_c, 1, 52, 0
1, 27024, Note_on_c, 0, 70, 73
1, 27024, Note_on_c, 1, 55, 74
1, 27047, Note_on_c, 0, 70, 0
1, 27047, Note_on_c, 1, 55, 0
1, 27048, Note_on_c, 0, 69, 74
1, 27048, Note_on_c, 1, 53, 74
1, 27071, Note_on_c, 0, 69, 0
1, 27071, Note_on_c, 1, 53, 0
1, 27072, Note_on_c, 0, 72, 74
1, 27072, Note_on_c, 1, 57, 75
1, 27082, Note_on_c, 0, 72, 0
1, 27096, Note_on_c, 0, 72, 70
1, 27119, Note_on_c, 0, 72, 0
1, 27120, Note_on_c, 0, 77, 70
1, 27143, Note_on_c, 0, 77, 0
1, 27144, Note_on_c, 0, 76, 70
1, 27161, Note_on_c, 1, 57, 0
1, 27167, Note_on_c, 0, 76, 0
1, 27168, Note_on_c, 0, 79, 71
1, 27191, Note_on_c, 0, 79, 0
1, 27192, Note_on_c, 0, 77, 71
1, 27215, Note_on_c, 0, 77, 0
1, 27216, Note_on_c, 0, 81, 72
1, 27239, Note_on_c, 0, 81, 0
1, 27240, Note_on_c, 0, 79, 72
1, 27263, Note_on_c, 0, 79, 0
1, 27264, Note_on_c, 0, 77, 73
1, 27287, Note_on_c, 0, 77, 0
1, 27288, Note_on_c, 0, 76, 73
1, 27311, Note_on_c, 0, 76, 0
1, 27312, Note_on_c, 0, 74, 74
1, 27335, Note_on_c, 0, 74, 0
1, 27336, Note_on_c, 0, 72, 74
1, 27359, Note_on_c, 0, 72, 0
1, 27360, Note_on_c, 0, 70, 75
1, 27384, Note_on_c, 1, 50, 70
1, 27407, Note_on_c, 1, 50, 0
1, 27408, Note_on_c, 1, 55, 72
1, 27431, Note_on_c, 1, 55, 0
1, 27432, Note_on_c, 1, 54, 74
1, 27449, Note_on_c, 0, 70, 0
1, 27455, Note_on_c, 1, 54, 0
1, 27456, Note_on_c, 1, 57, 76
1, 27479, Note_on_c, 1, 57, 0
1, 27480, Note_on_c, 1, 55, 78
1, 27503, Note_on_c, 1, 55, 0
1, 27504, Note_on_c, 1, 58, 81
1, 27527, Note_on_c, 1, 58, 0
1, 27528, Note_on_c, 1, 57, 80
1, 27551, Note_on_c, 1, 57, 0
1, 27552, Note_on_c, 1, 55, 79
1, 27575, Note_on_c, 1, 55, 0
1, 27576, Note_on_c, 1, 53, 78
1, 27599, Note_on_c, 1, 53, 0
1, 27600, Note_on_c, 1, 52, 77
1, 27623, Note_on_c, 1, 52, 0
1, 27624, Note_on_c, 1, 50, 76
1, 27647, Note_on_c, 1, 50, 0
1, 27648, Note_on_c, 1, 48, 75
1, 27672, Note_on_c, 0, 70, 70
1, 27695, Note_on_c, 0, 70, 0
1, 27696, Note_on_c, 0, 76, 71
1, 27719, Note_on_c, 0, 76, 0
1, 27720, Note_on_c, 0, 74, 72
1, 27737, Note_on_c, 1, 48, 0
1, 27743, Note_on_c, 0, 74, 0
1, 27744, Note_on_c, 0, 77, 73
1, 27767, Note_on_c, 0, 77, 0
1, 27768, Note_on_c, 0, 76, 74
1, 27791, Note_on_c, 0, 76, 0
1, 27792, Note_on_c, 0, 79, 75
1, 27815, Note_on_c, 0, 79, 0
1, 27816, Note_on_c, 0, 77, 74
1, 27839, Note_on_c, 0, 77, 0
1, 27840, Note_on_c, 0, 76, 73
1, 27863, Note_on_c, 0, 76, 0
1, 27864, Note_on_c, 0, 74, 72
1, 27887, Note_on_c, 0, 74, 0
1, 27888, Note_on_c, 0, 72, 71
1, 27911, Note_on_c, 0, 72, 0
1, 27912, Note_on_c, 0, 70, 70
1, 27935, Note_on_c, 0, 70, 0
1, 27936, Note_on_c, 0, 69, 70
1, 27960, Note_on_c, 1, 48, 70
1, 27983, Note_on_c, 1, 48, 0
1, 27984, Note_on_c, 1, 53, 71
1, 28007, Note_on_c, 1, 53, 0
1, 28008, Note_on_c, 1, 52, 72
1, 28025, Note_on_c, 0, 69, 0
1, 28031, Note_on_c, 1, 52, 0
1, 28032, Note_on_c, 1, 55, 73
1, 28055, Note_on_c, 1, 55, 0
1, 28056, Note_on_c, 1, 53, 74
1, 28079, Note_on_c, 1, 53, 0
1, 28080, Note_on_c, 1, 57, 75
1, 28103, Note_on_c, 1, 57, 0
1, 28104, Note_on_c, 1, 55, 74
1, 28127, Note_on_c, 1, 55, 0
1, 28128, Note_on_c, 1, 53, 73
1, 28151, Note_on_c, 1, 53, 0
1, 28152, Note_on_c, 1, 52, 72
1, 28175, Note_on_c, 1, 52, 0
1, 28176, Note_on_c, 1, 50, 71
1, 28199, Note_on_c, 1, 50, 0
1, 28200, Note_on_c, 1, 48, 70
1, 28223, Note_on_c, 1, 48, 0
1, 28224, Note_on_c, 1, 46, 70
1, 28248, Note_on_c, 0, 62, 70
1, 28271, Note_on_c, 0, 62, 0
1, 28272, Note_on_c, 0, 67, 70
1, 28295, Note_on_c, 0, 67, 0
1, 28296, Note_on_c, 0, 66, 70
1, 28319, Note_on_c, 0, 66, 0
1, 28320, Note_on_c, 0, 69, 70
1, 28343, Note_on_c, 0, 69, 0
1, 28344, Note_on_c, 0, 67, 70
1, 28367, Note_on_c, 0, 67, 0
1, 28368, Note_on_c, 0, 70, 70
1, 28391, Note_on_c, 0, 70, 0
1, 28392, Note_on_c, 0, 69, 70
1, 28415, Note_on_c, 0, 69, 0
1, 28416, Note_on_c, 0, 72, 70
1, 28439, Note_on_c, 0, 72, 0
1, 28440, Note_on_c, 0, 70, 70
1, 28461, Note_on_c, 1, 46, 0
1, 28463, Note_on_c, 0, 70, 0
1, 28464, Note_on_c, 0, 74, 70
1, 28464, Note_on_c, 1, 47, 70
1, 28487, Note_on_c, 0, 74, 0
1, 28488, Note_on_c, 0, 65, 70
1, 28509, Note_on_c, 1, 47, 0
1, 28511, Note_on_c, 0, 65, 0
1, 28512, Note_on_c, 0, 64, 70
1, 28512, Note_on_c, 1, 48, 70
1, 28535, Note_on_c, 0, 64, 0
1, 28535, Note_on_c, 1, 48, 0
1, 28536, Note_on_c, 0, 67, 70
1, 28536, Note_on_c, 1, 52, 70
1, 28559, Note_on_c, 0, 67, 0
1, 28559, Note_on_c, 1, 52, 0
1, 28560, Note_on_c, 0, 65, 70
1, 28560, Note_on_c, 1, 50, 70
1, 28583, Note_on_c, 0, 65, 0
1, 28583, Note_on_c, 1, 50, 0
1, 28584, Note_on_c, 0, 69, 70
1, 28584, Note_on_c, 1, 53, 70
1, 28607, Note_on_c, 0, 69, 0
1, 28607, Note_on_c, 1, 53, 0
1, 28608, Note_on_c, 0, 67, 70
1, 28608, Note_on_c, 1, 52, 70
1, 28631, Note_on_c, 0, 67, 0
1, 28631, Note_on_c, 1, 52, 0
1, 28632, Note_on_c, 0, 70, 70
1, 28632, Note_on_c, 1, 55, 70
1, 28655, Note_on_c, 0, 70, 0
1, 28655, Note_on_c, 1, 55, 0
1, 28656, Note_on_c, 0, 69, 70
1, 28656, Note_on_c, 1, 53, 70
1, 28679, Note_on_c, 0, 69, 0
1, 28679, Note_on_c, 1, 53, 0
1, 28680, Note_on_c, 0, 72, 70
1, 28680, Note_on_c, 1, 57, 70
1, 28703, Note_on_c, 0, 72, 0
1, 28703, Note_on_c, 1, 57, 0
1, 28704, Note_on_c, 0, 70, 70
1, 28704, Note_on_c, 1, 55, 70
1, 28727, Note_on_c, 0, 70, 0
1, 28727, Note_on_c, 1, 55, 0
1, 28728, Note_on_c, 0, 74, 70
1, 28728, Note_on_c, 1, 58, 70
1, 28751, Note_on_c, 0, 74, 0
1, 28751, Note_on_c, 1, 58, 0
1, 28752, Note_on_c, 0, 67, 70
1, 28752, Note_on_c, 1, 52, 70
1, 28775, Note_on_c, 0, 67, 0
1, 28775, Note_on_c, 1, 52, 0
1, 28776, Note_on_c, 0, 70, 70
1, 28776, Note_on_c, 1, 55, 70
1, 28799, Note_on_c, 0, 70, 0
1, 28799, Note_on_c, 1, 55, 0
1, 28800, Note_on_c, 0, 69, 70
1, 28800, Note_on_c, 1, 53, 70
1, 28823, Note_on_c, 0, 69, 0
1, 28823, Note_on_c, 1, 53, 0
1, 28824, Note_on_c, 0, 72, 70
1, 28824, Note_on_c, 1, 57, 70
1, 28847, Note_on_c, 0, 72, 0
1, 28847, Note_on_c, 1, 57, 0
1, 28848, Note_on_c, 0, 70, 70
1, 28848, Note_on_c, 1, 55, 70
1, 28871, Note_on_c, 0, 70, 0
1, 28871, Note_on_c, 1, 55, 0
1, 28872, Note_on_c, 0, 74, 70
1, 28872, Note_on_c, 1, 58, 70
1, 28895, Note_on_c, 0, 74, 0
1, 28895, Note_on_c, 1, 58, 0
1, 28896, Note_on_c, 0, 72, 70
1, 28896, Note_on_c, 1, 57, 70
1, 28919, Note_on_c, 0, 72, 0
1, 28919, Note_on_c, 1, 57, 0
1, 28920, Note_on_c, 0, 75, 70
1, 28920, Note_on_c, 1, 60, 70
1, 28943, Note_on_c, 0, 75, 0
1, 28943, Note_on_c, 1, 60, 0
1, 28944, Note_on_c, 0, 74, 70
1, 28944, Note_on_c, 1, 58, 70
1, 28967, Note_on_c, 0, 74, 0
1, 28967, Note_on_c, 1, 58, 0
1, 28968, Note_on_c, 0, 77, 70
1, 28968, Note_on_c, 1, 62, 70
1, 28991, Note_on_c, 0, 77, 0
1, 28991, Note_on_c, 1, 62, 0
1, 28992, Note_on_c, 0, 75, 70
1, 28992, Note_on_c, 1, 60, 70
1, 29015, Note_on_c, 0, 75, 0
1, 29015, Note_on_c, 1, 60, 0
1, 29016, Note_on_c, 0, 79, 67
1, 29016, Note_on_c, 1, 63, 67
1, 29039, Note_on_c, 0, 79, 0
1, 29039, Note_on_c, 1, 63, 0
1, 29040, Note_on_c, 0, 72, 64
1, 29040, Note_on_c, 1, 57, 64
1, 29063, Note_on_c, 0, 72, 0
1, 29063, Note_on_c, 1, 57, 0
1, 29064, Note_on_c, 0, 75, 61
1, 29064, Note_on_c, 1, 60, 61
1, 29087, Note_on_c, 0, 75, 0
1, 29087, Note_on_c, 1, 60, 0
1, 29088, Note_on_c, 0, 74, 58
1, 29088, Note_on_c, 1, 58, 58
1, 29108, Note_on_c, 0, 74, 0
1, 29111, Note_on_c, 1, 58, 0
1, 29112, Note_on_c, 1, 62, 58
1, 29135, Note_on_c, 1, 62, 0
1, 29136, Note_on_c, 0, 67, 58
1, 29136, Note_on_c, 1, 60, 58
1, 29148, Note_on_c, 0, 67, 0
1, 29148, Note_on_c, 0, 66, 58
1, 29159, Note_on_c, 1, 60, 0
1, 29160, Note_on_c, 0, 66, 0
1, 29160, Note_on_c, 0, 64, 58
1, 29160, Note_on_c, 1, 62, 59
1, 29172, Note_on_c, 0, 64, 0
1, 29172, Note_on_c, 0, 66, 58
1, 29183, Note_on_c, 1, 62, 0
1, 29184, Note_on_c, 0, 66, 0
1, 29184, Note_on_c, 0, 67, 59
1, 29184, Note_on_c, 1, 58, 59
1, 29204, Note_on_c, 0, 67, 0
1, 29207, Note_on_c, 1, 58, 0
1, 29208, Note_on_c, 1, 62, 60
1, 29231, Note_on_c, 1, 62, 0
1, 29232, Note_on_c, 0, 70, 60
1, 29232, Note_on_c, 1, 54, 60
1, 29244, Note_on_c, 0, 70, 0
1, 29244, Note_on_c, 0, 69, 60
1, 29255, Note_on_c, 1, 54, 0
1, 29256, Note_on_c, 0, 69, 0
1, 29256, Note_on_c, 0, 67, 60
1, 29256, Note_on_c, 1, 62, 61
1, 29268, Note_on_c, 0, 67, 0
1, 29268, Note_on_c, 0, 69, 60
1, 29279, Note_on_c, 1, 62, 0
1, 29280, Note_on_c, 0, 69, 0
1, 29280, Note_on_c, 0, 70, 61
1, 29280, Note_on_c, 1, 55, 61
1, 29303, Note_on_c, 1, 55, 0
1, 29304, Note_on_c, 1, 62, 62
1, 29325, Note_on_c, 0, 70, 0
1, 29327, Note_on_c, 1, 62, 0
1, 29328, Note_on_c, 0, 74, 62
1, 29328, Note_on_c, 1, 58, 62
1, 29351, Note_on_c, 1, 58, 0
1, 29352, Note_on_c, 1, 62, 63
1, 29373, Note_on_c, 0, 74, 0
1, 29375, Note_on_c, 1, 62, 0
1, 29376, Note_on_c, 0, 72, 63
1, 29376, Note_on_c, 1, 57, 63
1, 29396, Note_on_c, 0, 72, 0
1, 29399, Note_on_c, 1, 57, 0
1, 29400, Note_on_c, 1, 60, 63
1, 29423, Note_on_c, 1, 60, 0
1, 29424, Note_on_c, 0, 65, 63
1, 29424, Note_on_c, 1, 58, 63
1, 29436, Note_on_c, 0, 65, 0
1, 29436, Note_on_c, 0, 64, 63
1, 29447, Note_on_c, 1, 58, 0
1, 29448, Note_on_c, 0, 64, 0
1, 29448, Note_on_c, 0, 62, 63
1, 29448, Note_on_c, 1, 60, 63
1, 29460, Note_on_c, 0, 62, 0
1, 29460, Note_on_c, 0, 64, 64
1, 29471, Note_on_c, 1, 60, 0
1, 29472, Note_on_c, 0, 64, 0
1, 29472, Note_on_c, 0, 65, 64
1, 29472, Note_on_c, 1, 57, 64
1, 29492, Note_on_c, 0, 65, 0
1, 29495, Note_on_c, 1, 57, 0
1, 29496, Note_on_c, 1, 60, 65
1, 29519, Note_on_c, 1, 60, 0
1, 29520, Note_on_c, 0, 69, 65
1, 29520, Note_on_c, 1, 52, 65
1, 29532, Note_on_c, 0, 69, 0
1, 29532, Note_on_c, 0, 67, 66
1, 29543, Note_on_c, 1, 52, 0
1, 29544, Note_on_c, 0, 67, 0
1, 29544, Note_on_c, 0, 65, 66
1, 29544, Note_on_c, 1, 60, 66
1, 29556, Note_on_c, 0, 65, 0
1, 29556, Note_on_c, 0, 67, 66
1, 29567, Note_on_c, 1, 60, 0
1, 29568, Note_on_c, 0, 67, 0
1, 29568, Note_on_c, 0, 69, 67
1, 29568, Note_on_c, 1, 53, 67
1, 29591, Note_on_c, 1, 53, 0
1, 29592, Note_on_c, 1, 60, 67
1, 29613, Note_on_c, 0, 69, 0
1, 29615, Note_on_c, 1, 60, 0
1, 29616, Note_on_c, 0, 72, 68
1, 29616, Note_on_c, 1, 57, 68
1, 29639, Note_on_c, 1, 57, 0
1, 29640, Note_on_c, 1, 60, 69
1, 29661, Note_on_c, 0, 72, 0
1, 29663, Note_on_c, 1, 60, 0
1, 29664, Note_on_c, 0, 70, 70
1, 29664, Note_on_c, 1, 55, 70
1, 29684, Note_on_c, 0, 70, 0
1, 29687, Note_on_c, 1, 55, 0
1, 29688, Note_on_c, 1, 58, 70
1, 29711, Note_on_c, 1, 58, 0
1, 29712, Note_on_c, 0, 78, 70
1, 29712, Note_on_c, 1, 57, 70
1, 29735, Note_on_c, 1, 57, 0
1, 29736, Note_on_c, 1, 60, 70
1, 29757, Note_on_c, 0, 78, 0
1, 29759, Note_on_c, 1, 60, 0
1, 29760, Note_on_c, 0, 79, 70
1, 29760, Note_on_c, 1, 58, 70
1, 29783, Note_on_c, 1, 58, 0
1, 29784, Note_on_c, 1, 62, 70
1, 29805, Note_on_c, 0, 79, 0
1, 29807, Note_on_c, 1, 62, 0
1, 29808, Note_on_c, 0, 77, 70
1, 29808, Note_on_c, 1, 59, 70
1, 29831, Note_on_c, 1, 59, 0
1, 29832, Note_on_c, 1, 62, 70
1, 29853, Note_on_c, 0, 77, 0
1, 29855, Note_on_c, 1, 62, 0
1, 29856, Note_on_c, 0, 76, 70
1, 29856, Note_on_c, 1, 60, 70
1, 29879, Note_on_c, 1, 60, 0
1, 29880, Note_on_c, 1, 64, 70
1, 29901, Note_on_c, 0, 76, 0
1, 29903, Note_on_c, 1, 64, 0
1, 29904, Note_on_c, 0, 71, 70
1, 29904, Note_on_c, 1, 62, 70
1, 29927, Note_on_c, 1, 62, 0
1, 29928, Note_on_c, 1, 65, 70
1, 29949, Note_on_c, 0, 71, 0
1, 29951, Note_on_c, 1, 65, 0
1, 29952, Note_on_c, 0, 72, 70
1, 29952, Note_on_c, 1, 64, 70
1, 29975, Note_on_c, 1, 64, 0
1, 29976, Note_on_c, 1, 67, 70
1, 29999, Note_on_c, 1, 67, 0
1, 30000, Note_on_c, 1, 62, 70
1, 30023, Note_on_c, 1, 62, 0
1, 30024, Note_on_c, 1, 65, 70
1, 30041, Note_on_c, 0, 72, 0
1, 30047, Note_on_c, 1, 65, 0
1, 30048, Note_on_c, 1, 60, 70
1, 30071, Note_on_c, 1, 60, 0
1, 30072, Note_on_c, 1, 64, 70
1, 30095, Note_on_c, 1, 64, 0
1, 30096, Note_on_c, 0, 82, 70
1, 30096, Note_on_c, 1, 62, 70
1, 30119, Note_on_c, 1, 62, 0
1, 30120, Note_on_c, 1, 65, 70
1, 30141, Note_on_c, 0, 82, 0
1, 30143, Note_on_c, 1, 65, 0
1, 30144, Note_on_c, 0, 84, 70
1, 30144, Note_on_c, 1, 64, 70
1, 30154, Note_on_c, 0, 84, 0
1, 30154, Note_on_c, 0, 82, 70
1, 30164, Note_on_c, 0, 82, 0
1, 30164, Note_on_c, 0, 84, 70
1, 30167, Note_on_c, 1, 64, 0
1, 30168, Note_on_c, 1, 67, 70
1, 30174, Note_on_c, 0, 84, 0
1, 30174, Note_on_c, 0, 82, 70
1, 30184, Note_on_c, 0, 82, 0
1, 30184, Note_on_c, 0, 84, 70
1, 30191, Note_on_c, 1, 67, 0
1, 30192, Note_on_c, 1, 60, 70
1, 30194, Note_on_c, 0, 84, 0
1, 30194, Note_on_c, 0, 82, 70
1, 30204, Note_on_c, 0, 82, 0
1, 30204, Note_on_c, 0, 84, 70
1, 30213, Note_on_c, 0, 84, 0
1, 30213, Note_on_c, 0, 82, 70
1, 30215, Note_on_c, 1, 60, 0
1, 30216, Note_on_c, 1, 64, 70
1, 30222, Note_on_c, 0, 82, 0
1, 30222, Note_on_c, 0, 81, 70
1, 30231, Note_on_c, 0, 81, 0
1, 30231, Note_on_c, 0, 82, 70
1, 30239, Note_on_c, 1, 64, 0
1, 30240, Note_on_c, 0, 82, 0
1, 30240, Note_on_c, 0, 81, 70
1, 30240, Note_on_c, 1, 53, 70
1, 30260, Note_on_c, 0, 81, 0
1, 30263, Note_on_c, 1, 53, 0
1, 30264, Note_on_c, 1, 57, 70
1, 30287, Note_on_c, 1, 57, 0
1, 30288, Note_on_c, 0, 76, 70
1, 30288, Note_on_c, 1, 55, 70
1, 30311, Note_on_c, 1, 55, 0
1, 30312, Note_on_c, 1, 58, 70
1, 30335, Note_on_c, 1, 58, 0
1, 30336, Note_on_c, 0, 76, 0
1, 30336, Note_on_c, 0, 77, 70
1, 30336, Note_on_c, 1, 57, 70
1, 30356, Note_on_c, 0, 77, 0
1, 30359, Note_on_c, 1, 57, 0
1, 30360, Note_on_c, 1, 60, 70
1, 30383, Note_on_c, 1, 60, 0
1, 30384, Note_on_c, 0, 77, 86
1, 30384, Note_on_c, 1, 53, 70
1, 30407, Note_on_c, 1, 53, 0
1, 30408, Note_on_c, 1, 57, 70
1, 30431, Note_on_c, 1, 57, 0
1, 30432, Note_on_c, 1, 55, 70
1, 30455, Note_on_c, 1, 55, 0
1, 30456, Note_on_c, 1, 58, 70
1, 30479, Note_on_c, 1, 58, 0
1, 30480, Note_on_c, 0, 77, 0
1, 30480, Note_on_c, 0, 75, 70
1, 30480, Note_on_c, 1, 57, 70
1, 30503, Note_on_c, 1, 57, 0
1, 30504, Note_on_c, 1, 60, 70
1, 30525, Note_on_c, 0, 75, 0
1, 30527, Note_on_c, 1, 60, 0
1, 30528, Note_on_c, 0, 74, 70
1, 30528, Note_on_c, 1, 58, 70
1, 30548, Note_on_c, 0, 74, 0
1, 30551, Note_on_c, 1, 58, 0
1, 30552, Note_on_c, 1, 62, 70
1, 30575, Note_on_c, 1, 62, 0
1, 30576, Note_on_c, 0, 66, 70
1, 30576, Note_on_c, 1, 60, 70
1, 30599, Note_on_c, 1, 60, 0
1, 30600, Note_on_c, 1, 63, 70
1, 30621, Note_on_c, 0, 66, 0
1, 30623, Note_on_c, 1, 63, 0
1, 30624, Note_on_c, 0, 67, 70
1, 30624, Note_on_c, 1, 58, 70
1, 30647, Note_on_c, 1, 58, 0
1, 30648, Note_on_c, 1, 62, 70
1, 30669, Note_on_c, 0, 67, 0
1, 30671, Note_on_c, 1, 62, 0
1, 30672, Note_on_c, 0, 69, 70
1, 30672, Note_on_c, 1, 57, 70
1, 30695, Note_on_c, 1, 57, 0
1, 30696, Note_on_c, 1, 60, 70
1, 30717, Note_on_c, 0, 69, 0
1, 30719, Note_on_c, 1, 60, 0
1, 30720, Note_on_c, 0, 70, 70
1, 30720, Note_on_c, 1, 55, 70
1, 30740, Note_on_c, 0, 70, 0
1, 30743, Note_on_c, 1, 55, 0
1, 30744, Note_on_c, 1, 58, 70
1, 30767, Note_on_c, 1, 58, 0
1, 30768, Note_on_c, 0, 70, 70
1, 30768, Note_on_c, 1, 53, 70
1, 30791, Note_on_c, 1, 53, 0
1, 30792, Note_on_c, 1, 57, 70
1, 30813, Note_on_c, 0, 70, 0
1, 30815, Note_on_c, 1, 57, 0
1, 30816, Note_on_c, 0, 69, 58
1, 30816, Note_on_c, 1, 52, 58
1, 30826, Note_on_c, 0, 69, 0
1, 30826, Note_on_c, 0, 70, 58
1, 30836, Note_on_c, 0, 70, 0
1, 30836, Note_on_c, 0, 72, 58
1, 30839, Note_on_c, 1, 52, 0
1, 30840, Note_on_c, 1, 55, 59
1, 30846, Note_on_c, 0, 72, 0
1, 30846, Note_on_c, 0, 70, 58
1, 30856, Note_on_c, 0, 70, 0
1, 30856, Note_on_c, 0, 72, 59
1, 30863, Note_on_c, 1, 55, 0
1, 30864, Note_on_c, 1, 50, 60
1, 30866, Note_on_c, 0, 72, 0
1, 30866, Note_on_c, 0, 70, 59
1, 30876, Note_on_c, 0, 70, 0
1, 30876, Note_on_c, 0, 72, 59
1, 30886, Note_on_c, 0, 72, 0
1, 30886, Note_on_c, 0, 70, 59
1, 30887, Note_on_c, 1, 50, 0
1, 30888, Note_on_c, 1, 53, 61
1, 30896, Note_on_c, 0, 70, 0
1, 30896, Note_on_c, 0, 72, 60
1, 30906, Note_on_c, 0, 72, 0
1, 30906, Note_on_c, 0, 70, 60
1, 30911, Note_on_c, 1, 53, 0
1, 30912, Note_on_c, 1, 48, 62
1, 30916, Note_on_c, 0, 70, 0
1, 30916, Note_on_c, 0, 72, 60
1, 30926, Note_on_c, 0, 72, 0
1, 30926, Note_on_c, 0, 70, 60
1, 30935, Note_on_c, 1, 48, 0
1, 30936, Note_on_c, 0, 70, 0
1, 30936, Note_on_c, 0, 72, 61
1, 30936, Note_on_c, 1, 52, 63
1, 30946, Note_on_c, 0, 72, 0
1, 30946, Note_on_c, 0, 70, 61
1, 30956, Note_on_c, 0, 70, 0
1, 30956, Note_on_c, 0, 72, 61
1, 30959, Note_on_c, 1, 52, 0
1, 30960, Note_on_c, 1, 50, 64
1, 30966, Note_on_c, 0, 72, 0
1, 30966, Note_on_c, 0, 70, 61
1, 30976, Note_on_c, 0, 70, 0
1, 30976, Note_on_c, 0, 72, 62
1, 30983, Note_on_c, 1, 50, 0
1, 30984, Note_on_c, 1, 53, 65
1, 30986, Note_on_c, 0, 72, 0
1, 30986, Note_on_c, 0, 70, 62
1, 30996, Note_on_c, 0, 70, 0
1, 30996, Note_on_c, 0, 72, 62
1, 31005, Note_on_c, 0, 72, 0
1, 31005, Note_on_c, 0, 70, 62
1, 31007, Note_on_c, 1, 53, 0
1, 31008, Note_on_c, 1, 52, 66
1, 31014, Note_on_c, 0, 70, 0
1, 31014, Note_on_c, 0, 72, 63
1, 31023, Note_on_c, 0, 72, 0
1, 31023, Note_on_c, 0, 70, 63
1, 31031, Note_on_c, 1, 52, 0
1, 31032, Note_on_c, 0, 70, 0
1, 31032, Note_on_c, 0, 72, 63
1, 31032, Note_on_c, 1, 55, 67
1, 31041, Note_on_c, 0, 72, 0
1, 31041, Note_on_c, 0, 70, 63
1, 31050, Note_on_c, 0, 70, 0
1, 31050, Note_on_c, 0, 72, 64
1, 31055, Note_on_c, 1, 55, 0
1, 31056, Note_on_c, 1, 48, 68
1, 31059, Note_on_c, 0, 72, 0
1, 31059, Note_on_c, 0, 70, 64
1, 31068, Note_on_c, 0, 70, 0
1, 31068, Note_on_c, 0, 69, 64
1, 31079, Note_on_c, 1, 48, 0
1, 31080, Note_on_c, 1, 52, 69
1, 31086, Note_on_c, 0, 69, 0
1, 31086, Note_on_c, 0, 70, 65
1, 31103, Note_on_c, 1, 52, 0
1, 31104, Note_on_c, 0, 70, 0
1, 31104, Note_on_c, 0, 69, 70
1, 31104, Note_on_c, 1, 53, 70
1, 31127, Note_on_c, 0, 69, 0
1, 31128, Note_on_c, 0, 72, 70
1, 31149, Note_on_c, 1, 53, 0
1, 31151, Note_on_c, 0, 72, 0
1, 31152, Note_on_c, 0, 67, 70
1, 31152, Note_on_c, 1, 55, 70
1, 31175, Note_on_c, 0, 67, 0
1, 31176, Note_on_c, 0, 70, 70
1, 31197, Note_on_c, 1, 55, 0
1, 31199, Note_on_c, 0, 70, 0
1, 31200, Note_on_c, 0, 65, 70
1, 31200, Note_on_c, 1, 57, 70
1, 31223, Note_on_c, 0, 65, 0
1, 31224, Note_on_c, 0, 69, 70
1, 31245, Note_on_c, 1, 57, 0
1, 31247, Note_on_c, 0, 69, 0
1, 31248, Note_on_c, 0, 64, 70
1, 31248, Note_on_c, 1, 58, 70
1, 31271, Note_on_c, 0, 64, 0
1, 31272, Note_on_c, 0, 67, 70
1, 31293, Note_on_c, 1, 58, 0
1, 31295, Note_on_c, 0, 67, 0
1, 31296, Note_on_c, 0, 65, 70
1, 31296, Note_on_c, 1, 57, 70
1, 31319, Note_on_c, 0, 65, 0
1, 31320, Note_on_c, 0, 69, 70
1, 31341, Note_on_c, 1, 57, 0
1, 31343, Note_on_c, 0, 69, 0
1, 31344, Note_on_c, 0, 60, 70
1, 31344, Note_on_c, 1, 45, 70
1, 31367, Note_on_c, 0, 60, 0
1, 31368, Note_on_c, 0, 63, 70
1, 31389, Note_on_c, 1, 45, 0
1, 31391, Note_on_c, 0, 63, 0
1, 31392, Note_on_c, 0, 62, 70
1, 31392, Note_on_c, 1, 46, 70
1, 31416, Note_on_c, 0, 62, 0
1, 31416, Note_on_c, 0, 74, 69
1, 31439, Note_on_c, 0, 74, 0
1, 31440, Note_on_c, 0, 70, 68
1, 31450, Note_on_c, 0, 70, 0
1, 31464, Note_on_c, 0, 67, 68
1, 31474, Note_on_c, 0, 67, 0
1, 31488, Note_on_c, 0, 60, 67
1, 31488, Note_on_c, 1, 46, 0
1, 31488, Note_on_c, 1, 48, 67
1, 31512, Note_on_c, 0, 60, 0
1, 31512, Note_on_c, 0, 72, 67
1, 31535, Note_on_c, 0, 72, 0
1, 31536, Note_on_c, 0, 69, 66
1, 31546, Note_on_c, 0, 69, 0
1, 31560, Note_on_c, 0, 65, 65
1, 31570, Note_on_c, 0, 65, 0
1, 31577, Note_on_c, 1, 48, 0
1, 31584, Note_on_c, 0, 60, 65
1, 31584, Note_on_c, 1, 36, 65
1, 31608, Note_on_c, 0, 60, 0
1, 31608, Note_on_c, 0, 70, 64
1, 31631, Note_on_c, 0, 70, 0
1, 31632, Note_on_c, 0, 67, 64
1, 31642, Note_on_c, 0, 67, 0
1, 31656, Note_on_c, 0, 64, 63
1, 31666, Note_on_c, 0, 64, 0
1, 31673, Note_on_c, 1, 36, 0
1, 31680, Note_on_c, 0, 77, 70
1, 31680, Note_on_c, 1, 41, 70
1, 31690, Note_on_c, 0, 77, 0
1, 31690, Note_on_c, 1, 41, 0
1, 31704, Note_on_c, 0, 69, 70
1, 31704, Note_on_c, 1, 53, 70
1, 31727, Note_on_c, 0, 69, 0
1, 31727, Note_on_c, 1, 53, 0
1, 31728, Note_on_c, 0, 67, 70
1, 31728, Note_on_c, 1, 52, 70
1, 31751, Note_on_c, 0, 67, 0
1, 31751, Note_on_c, 1, 52, 0
1, 31752, Note_on_c, 0, 69, 70
1, 31752, Note_on_c, 1, 53, 70
1, 31775, Note_on_c, 0, 69, 0
1, 31775, Note_on_c, 1, 53, 0
1, 31776, Note_on_c, 0, 77, 70
1, 31776, Note_on_c, 1, 43, 70
1, 31786, Note_on_c, 0, 77, 0
1, 31786, Note_on_c, 1, 43, 0
1, 31800, Note_on_c, 0, 70, 70
1, 31800, Note_on_c, 1, 55, 70
1, 31823, Note_on_c, 0, 70, 0
1, 31823, Note_on_c, 1, 55, 0
1, 31824, Note_on_c, 0, 69, 70
1, 31824, Note_on_c, 1, 53, 70
1, 31847, Note_on_c, 0, 69, 0
1, 31847, Note_on_c, 1, 53, 0
1, 31848, Note_on_c, 0, 70, 70
1, 31848, Note_on_c, 1, 55, 70
1, 31871, Note_on_c, 0, 70, 0
1, 31871, Note_on_c, 1, 55, 0
1, 31872, Note_on_c, 0, 77, 70
1, 31872, Note_on_c, 1, 45, 70
1, 31882, Note_on_c, 0, 77, 0
1, 31882, Note_on_c, 1, 45, 0
1, 31896, Note_on_c, 0, 72, 70
1, 31896, Note_on_c, 1, 57, 70
1, 31919, Note_on_c, 0, 72, 0
1, 31919, Note_on_c, 1, 57, 0
1, 31920, Note_on_c, 0, 70, 70
1, 31920, Note_on_c, 1, 55, 70
1, 31943, Note_on_c, 0, 70, 0
1, 31943, Note_on_c, 1, 55, 0
1, 31944, Note_on_c, 0, 72, 70
1, 31944, Note_on_c, 1, 57, 70
1, 31967, Note_on_c, 0, 72, 0
1, 31967, Note_on_c, 1, 57, 0
1, 31968, Note_on_c, 0, 75, 86
1, 31968, Note_on_c, 1, 46, 70
1, 31978, Note_on_c, 1, 46, 0
1, 31992, Note_on_c, 0, 75, 0
1, 31992, Note_on_c, 0, 74, 69
1, 31992, Note_on_c, 1, 58, 69
1, 32015, Note_on_c, 0, 74, 0
1, 32015, Note_on_c, 1, 58, 0
1, 32016, Note_on_c, 0, 72, 68
1, 32016, Note_on_c, 1, 57, 68
1, 32026, Note_on_c, 0, 72, 0
1, 32039, Note_on_c, 1, 57, 0
1, 32040, Note_on_c, 0, 70, 68
1, 32040, Note_on_c, 1, 58, 68
1, 32050, Note_on_c, 0, 70, 0
1, 32063, Note_on_c, 1, 58, 0
1, 32064, Note_on_c, 0, 69, 67
1, 32064, Note_on_c, 0, 65, 67
1, 32064, Note_on_c, 1, 48, 67
1, 32074, Note_on_c, 1, 48, 0
1, 32088, Note_on_c, 1, 60, 67
1, 32111, Note_on_c, 1, 60, 0
1, 32112, Note_on_c, 1, 59, 66
1, 32135, Note_on_c, 1, 59, 0
1, 32136, Note_on_c, 1, 60, 65
1, 32153, Note_on_c, 0, 69, 0
1, 32153, Note_on_c, 0, 65, 0
1, 32159, Note_on_c, 1, 60, 0
1, 32160, Note_on_c, 0, 69, 65
1, 32160, Note_on_c, 0, 64, 75
1, 32160, Note_on_c, 1, 48, 65
1, 32170, Note_on_c, 0, 69, 0
1, 32170, Note_on_c, 0, 67, 65
1, 32170, Note_on_c, 1, 48, 0
1, 32180, Note_on_c, 0, 67, 0
1, 32180, Note_on_c, 0, 69, 65
1, 32184, Note_on_c, 1, 60, 64
1, 32190, Note_on_c, 0, 69, 0
1, 32190, Note_on_c, 0, 67, 64
1, 32200, Note_on_c, 0, 67, 0
1, 32200, Note_on_c, 0, 69, 64
1, 32207, Note_on_c, 1, 60, 0
1, 32208, Note_on_c, 1, 59, 64
1, 32210, Note_on_c, 0, 69, 0
1, 32210, Note_on_c, 0, 67, 64
1, 32220, Note_on_c, 0, 67, 0
1, 32220, Note_on_c, 0, 69, 64
1, 32229, Note_on_c, 0, 69, 0
1, 32229, Note_on_c, 0, 67, 64
1, 32231, Note_on_c, 1, 59, 0
1, 32232, Note_on_c, 1, 60, 63
1, 32238, Note_on_c, 0, 67, 0
1, 32238, Note_on_c, 0, 65, 64
1, 32247, Note_on_c, 0, 65, 0
1, 32247, Note_on_c, 0, 67, 64
1, 32249, Note_on_c, 0, 64, 0
1, 32255, Note_on_c, 1, 60, 0
1, 32256, Note_on_c, 0, 67, 0
1, 32256, Note_on_c, 1, 53, 70
1, 32280, Note_on_c, 0, 69, 70
1, 32280, Note_on_c, 0, 65, 70
1, 32295, Note_on_c, 1, 53, 0
1, 32303, Note_on_c, 0, 69, 0
1, 32303, Note_on_c, 0, 65, 0
1, 32304, Note_on_c, 0, 67, 70
1, 32304, Note_on_c, 0, 64, 70
1, 32327, Note_on_c, 0, 67, 0
1, 32327, Note_on_c, 0, 64, 0
1, 32328, Note_on_c, 0, 69, 70
1, 32328, Note_on_c, 0, 65, 70
1, 32351, Note_on_c, 0, 69, 0
1, 32351, Note_on_c, 0, 65, 0
1, 32352, Note_on_c, 1, 53, 70
1, 32352, Note_on_c, 1, 41, 70
1, 32376, Note_on_c, 0, 70, 70
1, 32376, Note_on_c, 0, 67, 70
1, 32399, Note_on_c, 0, 70, 0
1, 32399, Note_on_c, 0, 67, 0
1, 32400, Note_on_c, 0, 69, 70
1, 32400, Note_on_c, 0, 65, 70
1, 32423, Note_on_c, 0, 69, 0
1, 32423, Note_on_c, 0, 65, 0
1, 32424, Note_on_c, 0, 70, 70
1, 32424, Note_on_c, 0, 67, 70
1, 32446, Note_on_c, 1, 53, 0
1, 32446, Note_on_c, 1, 41, 0
1, 32447, Note_on_c, 0, 70, 0
1, 32447, Note_on_c, 0, 67, 0
1, 32448, Note_on_c, 1, 53, 70
1, 32448, Note_on_c, 1, 41, 70
1, 32472, Note_on_c, 0, 72, 70
1, 32472, Note_on_c, 0, 69, 70
1, 32495, Note_on_c, 0, 72, 0
1, 32495, Note_on_c, 0, 69, 0
1, 32496, Note_on_c, 0, 70, 70
1, 32496, Note_on_c, 0, 67, 70
1, 32519, Note_on_c, 0, 70, 0
1, 32519, Note_on_c, 0, 67, 0
1, 32520, Note_on_c, 0, 72, 70
1, 32520, Note_on_c, 0, 69, 70
1, 32542, Note_on_c, 1, 53, 0
1, 32542, Note_on_c, 1, 41, 0
1, 32543, Note_on_c, 0, 72, 0
1, 32543, Note_on_c, 0, 69, 0
1, 32544, Note_on_c, 1, 53, 70
1, 32544, Note_on_c, 1, 41, 70
1, 32568, Note_on_c, 0, 74, 70
1, 32568, Note_on_c, 0, 70, 70
1, 32591, Note_on_c, 0, 74, 0
1, 32591, Note_on_c, 0, 70, 0
1, 32592, Note_on_c, 0, 72, 70
1, 32592, Note_on_c, 0, 69, 70
1, 32615, Note_on_c, 0, 72, 0
1, 32615, Note_on_c, 0, 69, 0
1, 32616, Note_on_c, 0, 74, 70
1, 32616, Note_on_c, 0, 70, 70
1, 32638, Note_on_c, 1, 53, 0
1, 32638, Note_on_c, 1, 41, 0
1, 32639, Note_on_c, 0, 74, 0
1, 32639, Note_on_c, 0, 70, 0
1, 32640, Note_on_c, 1, 53, 70
1, 32640, Note_on_c, 1, 41, 70
1, 32664, Note_on_c, 0, 75, 70
1, 32664, Note_on_c, 0, 72, 70
1, 32687, Note_on_c, 0, 75, 0
1, 32687, Note_on_c, 0, 72, 0
1, 32688, Note_on_c, 0, 74, 70
1, 32688, Note_on_c, 0, 70, 70
1, 32711, Note_on_c, 0, 74, 0
1, 32711, Note_on_c, 0, 70, 0
1, 32712, Note_on_c, 0, 75, 70
1, 32712, Note_on_c, 0, 72, 70
1, 32734, Note_on_c, 1, 53, 0
1, 32734, Note_on_c, 1, 41, 0
1, 32735, Note_on_c, 0, 75, 0
1, 32735, Note_on_c, 0, 72, 0
1, 32736, Note_on_c, 1, 53, 71
1, 32736, Note_on_c, 1, 41, 71
1, 32760, Note_on_c, 0, 79, 71
1, 32760, Note_on_c, 0, 75, 71
1, 32783, Note_on_c, 0, 79, 0
1, 32783, Note_on_c, 0, 75, 0
1, 32784, Note_on_c, 0, 77, 71
1, 32784, Note_on_c, 0, 74, 71
1, 32807, Note_on_c, 0, 77, 0
1, 32807, Note_on_c, 0, 74, 0
1, 32808, Note_on_c, 0, 75, 71
1, 32808, Note_on_c, 0, 72, 71
1, 32830, Note_on_c, 1, 53, 0
1, 32830, Note_on_c, 1, 41, 0
1, 32831, Note_on_c, 0, 75, 0
1, 32831, Note_on_c, 0, 72, 0
1, 32832, Note_on_c, 0, 74, 71
1, 32832, Note_on_c, 0, 70, 71
1, 32856, Note_on_c, 1, 65, 71
1, 32856, Note_on_c, 1, 62, 71
1, 32879, Note_on_c, 1, 65, 0
1, 32879, Note_on_c, 1, 62, 0
1, 32880, Note_on_c, 1, 63, 71
1, 32880, Note_on_c, 1, 60, 71
1, 32903, Note_on_c, 1, 63, 0
1, 32903, Note_on_c, 1, 60, 0
1, 32904, Note_on_c, 1, 65, 72
1, 32904, Note_on_c, 1, 62, 72
1, 32921, Note_on_c, 0, 74, 0
1, 32921, Note_on_c, 0, 70, 0
1, 32927, Note_on_c, 1, 65, 0
1, 32927, Note_on_c, 1, 62, 0
1, 32928, Note_on_c, 0, 82, 72
1, 32928, Note_on_c, 0, 74, 72
1, 32952, Note_on_c, 1, 62, 72
1, 32952, Note_on_c, 1, 58, 72
1, 32967, Note_on_c, 0, 82, 0
1, 32967, Note_on_c, 0, 74, 0
1, 32975, Note_on_c, 1, 62, 0
1, 32975, Note_on_c, 1, 58, 0
1, 32976, Note_on_c, 1, 60, 72
1, 32976, Note_on_c, 1, 57, 72
1, 32999, Note_on_c, 1, 60, 0
1, 32999, Note_on_c, 1, 57, 0
1, 33000, Note_on_c, 1, 62, 72
1, 33000, Note_on_c, 1, 58, 72
1, 33023, Note_on_c, 1, 62, 0
1, 33023, Note_on_c, 1, 58, 0
1, 33024, Note_on_c, 0, 86, 72
1, 33024, Note_on_c, 0, 82, 72
1, 33048, Note_on_c, 1, 58, 72
1, 33048, Note_on_c, 1, 55, 72
1, 33063, Note_on_c, 0, 86, 0
1, 33063, Note_on_c, 0, 82, 0
1, 33071, Note_on_c, 1, 58, 0
1, 33071, Note_on_c, 1, 55, 0
1, 33072, Note_on_c, 1, 57, 73
1, 33072, Note_on_c, 1, 53, 73
1, 33095, Note_on_c, 1, 57, 0
1, 33095, Note_on_c, 1, 53, 0
1, 33096, Note_on_c, 1, 58, 73
1, 33096, Note_on_c, 1, 55, 73
1, 33119, Note_on_c, 1, 58, 0
1, 33119, Note_on_c, 1, 55, 0
1, 33120, Note_on_c, 1, 55, 73
1, 33120, Note_on_c, 1, 52, 73
1, 33144, Note_on_c, 0, 86, 73
1, 33144, Note_on_c, 0, 82, 73
1, 33167, Note_on_c, 0, 86, 0
1, 33167, Note_on_c, 0, 82, 0
1, 33168, Note_on_c, 0, 84, 73
1, 33168, Note_on_c, 0, 81, 73
1, 33191, Note_on_c, 0, 84, 0
1, 33191, Note_on_c, 0, 81, 0
1, 33192, Note_on_c, 0, 82, 73
1, 33192, Note_on_c, 0, 79, 73
1, 33215, Note_on_c, 0, 82, 0
1, 33215, Note_on_c, 0, 79, 0
1, 33216, Note_on_c, 1, 55, 0
1, 33216, Note_on_c, 1, 52, 0
1, 33216, Note_on_c, 1, 60, 73
1, 33240, Note_on_c, 0, 82, 74
1, 33240, Note_on_c, 0, 79, 74
1, 33263, Note_on_c, 0, 82, 0
1, 33263, Note_on_c, 0, 79, 0
1, 33264, Note_on_c, 0, 81, 74
1, 33264, Note_on_c, 0, 77, 74
1, 33287, Note_on_c, 0, 81, 0
1, 33287, Note_on_c, 0, 77, 0
1, 33288, Note_on_c, 0, 79, 74
1, 33288, Note_on_c, 0, 76, 74
1, 33305, Note_on_c, 1, 60, 0
1, 33311, Note_on_c, 0, 79, 0
1, 33311, Note_on_c, 0, 76, 0
1, 33312, Note_on_c, 1, 53, 74
1, 33336, Note_on_c, 0, 81, 74
1, 33336, Note_on_c, 0, 77, 74
1, 33359, Note_on_c, 0, 81, 0
1, 33359, Note_on_c, 0, 77, 0
1, 33360, Note_on_c, 0, 79, 74
1, 33360, Note_on_c, 0, 76, 74
1, 33383, Note_on_c, 0, 79, 0
1, 33383, Note_on_c, 0, 76, 0
1, 33384, Note_on_c, 0, 81, 74
1, 33384, Note_on_c, 0, 77, 74
1, 33401, Note_on_c, 1, 53, 0
1, 33407, Note_on_c, 0, 81, 0
1, 33407, Note_on_c, 0, 77, 0
1, 33408, Note_on_c, 1, 58, 75
1, 33432, Note_on_c, 0, 74, 74
1, 33432, Note_on_c, 0, 70, 74
1, 33455, Note_on_c, 0, 74, 0
1, 33455, Note_on_c, 0, 70, 0
1, 33456, Note_on_c, 0, 72, 74
1, 33456, Note_on_c, 0, 69, 74
1, 33479, Note_on_c, 0, 72, 0
1, 33479, Note_on_c, 0, 69, 0
1, 33480, Note_on_c, 0, 70, 73
1, 33480, Note_on_c, 0, 67, 73
1, 33497, Note_on_c, 1, 58, 0
1, 33503, Note_on_c, 0, 70, 0
1, 33503, Note_on_c, 0, 67, 0
1, 33504, Note_on_c, 0, 70, 73
1, 33504, Note_on_c, 0, 67, 73
1, 33504, Note_on_c, 1, 60, 73
1, 33528, Note_on_c, 0, 70, 0
1, 33528, Note_on_c, 0, 67, 0
1, 33528, Note_on_c, 0, 69, 72
1, 33528, Note_on_c, 0, 65, 72
1, 33551, Note_on_c, 0, 69, 0
1, 33551, Note_on_c, 0, 65, 0
1, 33552, Note_on_c, 0, 72, 72
1, 33552, Note_on_c, 0, 69, 72
1, 33562, Note_on_c, 0, 72, 0
1, 33562, Note_on_c, 0, 69, 0
1, 33576, Note_on_c, 0, 69, 72
1, 33576, Note_on_c, 0, 65, 72
1, 33586, Note_on_c, 0, 69, 0
1, 33586, Note_on_c, 0, 65, 0
1, 33593, Note_on_c, 1, 60, 0
1, 33600, Note_on_c, 0, 69, 71
1, 33600, Note_on_c, 0, 65, 71
1, 33600, Note_on_c, 1, 48, 71
1, 33624, Note_on_c, 0, 69, 0
1, 33624, Note_on_c, 0, 65, 0
1, 33624, Note_on_c, 0, 67, 71
1, 33624, Note_on_c, 0, 64, 71
1, 33647, Note_on_c, 0, 67, 0
1, 33647, Note_on_c, 0, 64, 0
1, 33648, Note_on_c, 0, 70, 70
1, 33648, Note_on_c, 0, 67, 70
1, 33658, Note_on_c, 0, 70, 0
1, 33658, Note_on_c, 0, 67, 0
1, 33672, Note_on_c, 0, 67, 70
1, 33672, Note_on_c, 0, 64, 70
1, 33682, Note_on_c, 0, 67, 0
1, 33682, Note_on_c, 0, 64, 0
1, 33689, Note_on_c, 1, 48, 0
1, 33696, Note_on_c, 1, 53, 70
1, 33720, Note_on_c, 0, 81, 75
1, 33720, Note_on_c, 0, 69, 75
1, 33743, Note_on_c, 0, 81, 0
1, 33743, Note_on_c, 0, 69, 0
1, 33744, Note_on_c, 0, 79, 75
1, 33744, Note_on_c, 0, 67, 75
1, 33767, Note_on_c, 0, 79, 0
1, 33767, Note_on_c, 0, 67, 0
1, 33768, Note_on_c, 0, 77, 75
1, 33768, Note_on_c, 0, 65, 75
1, 33785, Note_on_c, 1, 53, 0
1, 33791, Note_on_c, 0, 77, 0
1, 33791, Note_on_c, 0, 65, 0
1, 33792, Note_on_c, 0, 76, 75
1, 33792, Note_on_c, 0, 64, 75
1, 33815, Note_on_c, 0, 76, 0
1, 33815, Note_on_c, 0, 64, 0
1, 33816, Note_on_c, 0, 74, 75
1, 33816, Note_on_c, 0, 62, 75
1, 33839, Note_on_c, 0, 74, 0
1, 33839, Note_on_c, 0, 62, 0
1, 33840, Note_on_c, 0, 72, 75
1, 33840, Note_on_c, 0, 60, 75
1, 33863, Note_on_c, 0, 72, 0
1, 33863, Note_on_c, 0, 60, 0
1, 33864, Note_on_c, 0, 71, 75
1, 33864, Note_on_c, 0, 59, 75
1, 33887, Note_on_c, 0, 71, 0
1, 33887, Note_on_c, 0, 59, 0
1, 33888, Note_on_c, 0, 72, 75
1, 33888, Note_on_c, 0, 60, 75
1, 33936, Note_on_c, 1, 57, 75
1, 33936, Note_on_c, 1, 53, 75
1, 33977, Note_on_c, 0, 72, 0
1, 33977, Note_on_c, 0, 60, 0
1, 33981, Note_on_c, 1, 57, 0
1, 33981, Note_on_c, 1, 53, 0
1, 33984, Note_on_c, 1, 58, 75
1, 33984, Note_on_c, 1, 55, 75
1, 33984, Note_on_c, 1, 52, 75
1, 34008, Note_on_c, 0, 82, 75
1, 34008, Note_on_c, 0, 70, 75
1, 34031, Note_on_c, 0, 82, 0
1, 34031, Note_on_c, 0, 70, 0
1, 34032, Note_on_c, 0, 82, 75
1, 34032, Note_on_c, 0, 70, 75
1, 34055, Note_on_c, 0, 82, 0
1, 34055, Note_on_c, 0, 70, 0
1, 34056, Note_on_c, 0, 81, 75
1, 34056, Note_on_c, 0, 69, 75
1, 34073, Note_on_c, 1, 58, 0
1, 34073, Note_on_c, 1, 55, 0
1, 34073, Note_on_c, 1, 52, 0
1, 34079, Note_on_c, 0, 81, 0
1, 34079, Note_on_c, 0, 69, 0
1, 34080, Note_on_c, 0, 79, 75
1, 34080, Note_on_c, 0, 67, 75
1, 34103, Note_on_c, 0, 79, 0
1, 34103, Note_on_c, 0, 67, 0
1, 34104, Note_on_c, 0, 77, 75
1, 34104, Note_on_c, 0, 65, 75
1, 34127, Note_on_c, 0, 77, 0
1, 34127, Note_on_c, 0, 65, 0
1, 34128, Note_on_c, 0, 76, 75
1, 34128, Note_on_c, 0, 64, 75
1, 34151, Note_on_c, 0, 76, 0
1, 34151, Note_on_c, 0, 64, 0
1, 34152, Note_on_c, 0, 74, 75
1, 34152, Note_on_c, 0, 62, 75
1, 34175, Note_on_c, 0, 74, 0
1, 34175, Note_on_c, 0, 62, 0
1, 34176, Note_on_c, 0, 72, 75
1, 34176, Note_on_c, 0, 60, 75
1, 34224, Note_on_c, 1, 58, 75
1, 34224, Note_on_c, 1, 55, 75
1, 34224, Note_on_c, 1, 52, 75
1, 34265, Note_on_c, 0, 72, 0
1, 34265, Note_on_c, 0, 60, 0
1, 34269, Note_on_c, 1, 58, 0
1, 34269, Note_on_c, 1, 55, 0
1, 34269, Note_on_c, 1, 52, 0
1, 34272, Note_on_c, 1, 57, 75
1, 34272, Note_on_c, 1, 53, 75
1, 34296, Note_on_c, 0, 81, 63
1, 34296, Note_on_c, 0, 69, 63
1, 34319, Note_on_c, 0, 81, 0
1, 34319, Note_on_c, 0, 69, 0
1, 34320, Note_on_c, 0, 79, 63
1, 34320, Note_on_c, 0, 67, 63
1, 34343, Note_on_c, 0, 79, 0
1, 34343, Note_on_c, 0, 67, 0
1, 34344, Note_on_c, 0, 77, 63
1, 34344, Note_on_c, 0, 65, 63
1, 34361, Note_on_c, 1, 57, 0
1, 34361, Note_on_c, 1, 53, 0
1, 34367, Note_on_c, 0, 77, 0
1, 34367, Note_on_c, 0, 65, 0
1, 34368, Note_on_c, 0, 76, 63
1, 34368, Note_on_c, 0, 64, 63
1, 34391, Note_on_c, 0, 76, 0
1, 34391, Note_on_c, 0, 64, 0
1, 34392, Note_on_c, 0, 74, 63
1, 34392, Note_on_c, 0, 62, 63
1, 34415, Note_on_c, 0, 74, 0
1, 34415, Note_on_c, 0, 62, 0
1, 34416, Note_on_c, 0, 72, 63
1, 34416, Note_on_c, 0, 60, 63
1, 34439, Note_on_c, 0, 72, 0
1, 34439, Note_on_c, 0, 60, 0
1, 34440, Note_on_c, 0, 71, 63
1, 34440, Note_on_c, 0, 59, 63
1, 34463, Note_on_c, 0, 71, 0
1, 34463, Note_on_c, 0, 59, 0
1, 34464, Note_on_c, 0, 72, 63
1, 34464, Note_on_c, 0, 60, 63
1, 34512, Note_on_c, 1, 57, 58
1, 34512, Note_on_c, 1, 53, 58
1, 34553, Note_on_c, 0, 72, 0
1, 34553, Note_on_c, 0, 60, 0
1, 34557, Note_on_c, 1, 57, 0
1, 34557, Note_on_c, 1, 53, 0
1, 34560, Note_on_c, 1, 58, 58
1, 34560, Note_on_c, 1, 55, 58
1, 34560, Note_on_c, 1, 52, 58
1, 34584, Note_on_c, 0, 82, 63
1, 34584, Note_on_c, 0, 70, 63
1, 34607, Note_on_c, 0, 82, 0
1, 34607, Note_on_c, 0, 70, 0
1, 34608, Note_on_c, 0, 82, 63
1, 34608, Note_on_c, 0, 70, 63
1, 34631, Note_on_c, 0, 82, 0
1, 34631, Note_on_c, 0, 70, 0
1, 34632, Note_on_c, 0, 81, 63
1, 34632, Note_on_c, 0, 69, 63
1, 34649, Note_on_c, 1, 58, 0
1, 34649, Note_on_c, 1, 55, 0
1, 34649, Note_on_c, 1, 52, 0
1, 34655, Note_on_c, 0, 81, 0
1, 34655, Note_on_c, 0, 69, 0
1, 34656, Note_on_c, 0, 79, 63
1, 34656, Note_on_c, 0, 67, 63
1, 34679, Note_on_c, 0, 79, 0
1, 34679, Note_on_c, 0, 67, 0
1, 34680, Note_on_c, 0, 77, 63
1, 34680, Note_on_c, 0, 65, 63
1, 34703, Note_on_c, 0, 77, 0
1, 34703, Note_on_c, 0, 65, 0
1, 34704, Note_on_c, 0, 76, 63
1, 34704, Note_on_c, 0, 64, 63
1, 34727, Note_on_c, 0, 76, 0
1, 34727, Note_on_c, 0, 64, 0
1, 34728, Note_on_c, 0, 74, 63
1, 34728, Note_on_c, 0, 62, 63
1, 34751, Note_on_c, 0, 74, 0
1, 34751, Note_on_c, 0, 62, 0
1, 34752, Note_on_c, 0, 72, 63
1, 34752, Note_on_c, 0, 60, 63
1, 34800, Note_on_c, 1, 58, 58
1, 34800, Note_on_c, 1, 55, 58
1, 34800, Note_on_c, 1, 52, 58
1, 34841, Note_on_c, 0, 72, 0
1, 34841, Note_on_c, 0, 60, 0
1, 34845, Note_on_c, 1, 58, 0
1, 34845, Note_on_c, 1, 55, 0
1, 34845, Note_on_c, 1, 52, 0
1, 34848, Note_on_c, 1, 57, 58
1, 34848, Note_on_c, 1, 53, 58
1, 34872, Note_on_c, 0, 84, 75
1, 34872, Note_on_c, 0, 72, 75
1, 34895, Note_on_c, 0, 84, 0
1, 34895, Note_on_c, 0, 72, 0
1, 34896, Note_on_c, 0, 82, 75
1, 34896, Note_on_c, 0, 70, 75
1, 34919, Note_on_c, 0, 82, 0
1, 34919, Note_on_c, 0, 70, 0
1, 34920, Note_on_c, 0, 81, 75
1, 34920, Note_on_c, 0, 69, 75
1, 34937, Note_on_c, 1, 57, 0
1, 34937, Note_on_c, 1, 53, 0
1, 34943, Note_on_c, 0, 81, 0
1, 34943, Note_on_c, 0, 69, 0
1, 34944, Note_on_c, 0, 79, 75
1, 34944, Note_on_c, 0, 67, 75
1, 34967, Note_on_c, 0, 79, 0
1, 34967, Note_on_c, 0, 67, 0
1, 34968, Note_on_c, 0, 77, 75
1, 34968, Note_on_c, 0, 65, 75
1, 34991, Note_on_c, 0, 77, 0
1, 34991, Note_on_c, 0, 65, 0
1, 34992, Note_on_c, 0, 76, 75
1, 34992, Note_on_c, 0, 64, 75
1, 35015, Note_on_c, 0, 76, 0
1, 35015, Note_on_c, 0, 64, 0
1, 35016, Note_on_c, 0, 74, 75
1, 35016, Note_on_c, 0, 62, 75
1, 35039, Note_on_c, 0, 74, 0
1, 35039, Note_on_c, 0, 62, 0
1, 35040, Note_on_c, 0, 72, 75
1, 35040, Note_on_c, 0, 60, 75
1, 35040, Note_on_c, 1, 45, 75
1, 35063, Note_on_c, 0, 72, 0
1, 35063, Note_on_c, 0, 60, 0
1, 35064, Note_on_c, 0, 74, 75
1, 35064, Note_on_c, 0, 62, 75
1, 35087, Note_on_c, 0, 74, 0
1, 35087, Note_on_c, 0, 62, 0
1, 35088, Note_on_c, 0, 76, 75
1, 35088, Note_on_c, 0, 64, 75
1, 35111, Note_on_c, 0, 76, 0
1, 35111, Note_on_c, 0, 64, 0
1, 35112, Note_on_c, 0, 77, 75
1, 35112, Note_on_c, 0, 65, 75
1, 35129, Note_on_c, 1, 45, 0
1, 35135, Note_on_c, 0, 77, 0
1, 35135, Note_on_c, 0, 65, 0
1, 35136, Note_on_c, 1, 58, 75
1, 35160, Note_on_c, 0, 74, 75
1, 35160, Note_on_c, 0, 70, 75
1, 35183, Note_on_c, 0, 74, 0
1, 35183, Note_on_c, 0, 70, 0
1, 35184, Note_on_c, 0, 72, 73
1, 35184, Note_on_c, 0, 69, 73
1, 35207, Note_on_c, 0, 72, 0
1, 35207, Note_on_c, 0, 69, 0
1, 35208, Note_on_c, 0, 70, 71
1, 35208, Note_on_c, 0, 67, 71
1, 35231, Note_on_c, 0, 70, 0
1, 35231, Note_on_c, 0, 67, 0
1, 35232, Note_on_c, 0, 70, 70
1, 35232, Note_on_c, 0, 67, 70
1, 35232, Note_on_c, 1, 58, 0
1, 35232, Note_on_c, 1, 60, 69
1, 35256, Note_on_c, 0, 70, 0
1, 35256, Note_on_c, 0, 67, 0
1, 35256, Note_on_c, 0, 69, 68
1, 35256, Note_on_c, 0, 65, 68
1, 35279, Note_on_c, 0, 69, 0
1, 35279, Note_on_c, 0, 65, 0
1, 35280, Note_on_c, 0, 72, 67
1, 35280, Note_on_c, 0, 69, 67
1, 35290, Note_on_c, 0, 72, 0
1, 35290, Note_on_c, 0, 69, 0
1, 35304, Note_on_c, 0, 69, 65
1, 35304, Note_on_c, 0, 65, 65
1, 35314, Note_on_c, 0, 69, 0
1, 35314, Note_on_c, 0, 65, 0
1, 35321, Note_on_c, 1, 60, 0
1, 35328, Note_on_c, 0, 69, 64
1, 35328, Note_on_c, 0, 65, 64
1, 35328, Note_on_c, 1, 48, 63
1, 35352, Note_on_c, 0, 69, 0
1, 35352, Note_on_c, 0, 65, 0
1, 35352, Note_on_c, 0, 67, 62
1, 35352, Note_on_c, 0, 64, 62
1, 35375, Note_on_c, 0, 67, 0
1, 35375, Note_on_c, 0, 64, 0
1, 35376, Note_on_c, 0, 70, 61
1, 35376, Note_on_c, 0, 67, 61
1, 35386, Note_on_c, 0, 70, 0
1, 35386, Note_on_c, 0, 67, 0
1, 35400, Note_on_c, 0, 67, 59
1, 35400, Note_on_c, 0, 64, 59
1, 35410, Note_on_c, 0, 67, 0
1, 35410, Note_on_c, 0, 64, 0
1, 35417, Note_on_c, 1, 48, 0
1, 35424, Note_on_c, 1, 41, 63
1, 35447, Note_on_c, 1, 41, 0
1, 35448, Note_on_c, 0, 65, 63
1, 35448, Note_on_c, 1, 53, 63
1, 35471, Note_on_c, 0, 65, 0
1, 35471, Note_on_c, 1, 53, 0
1, 35472, Note_on_c, 0, 64, 63
1, 35472, Note_on_c, 1, 52, 63
1, 35495, Note_on_c, 0, 64, 0
1, 35495, Note_on_c, 1, 52, 0
1, 35496, Note_on_c, 0, 65, 63
1, 35496, Note_on_c, 1, 53, 63
1, 35519, Note_on_c, 0, 65, 0
1, 35519, Note_on_c, 1, 53, 0
1, 35520, Note_on_c, 0, 60, 63
1, 35520, Note_on_c, 1, 48, 63
1, 35543, Note_on_c, 0, 60, 0
1, 35543, Note_on_c, 1, 48, 0
1, 35544, Note_on_c, 0, 65, 63
1, 35544, Note_on_c, 1, 53, 63
1, 35567, Note_on_c, 0, 65, 0
1, 35567, Note_on_c, 1, 53, 0
1, 35568, Note_on_c, 0, 57, 63
1, 35568, Note_on_c, 1, 45, 63
1, 35578, Note_on_c, 0, 57, 0
1, 35578, Note_on_c, 1, 45, 0
1, 35592, Note_on_c, 0, 60, 63
1, 35592, Note_on_c, 1, 48, 63
1, 35602, Note_on_c, 0, 60, 0
1, 35602, Note_on_c, 1, 48, 0
1, 35616, Note_on_c, 0, 53, 63
1, 35616, Note_on_c, 1, 41, 63
1, 35705, Note_on_c, 0, 53, 0
1, 35705, Note_on_c, 1, 41, 0
1, 35712, Note_on_c, 1, 64, 70
1, 35712, Note_on_c, 1, 60, 70
1, 35736, Note_on_c, 0, 67, 70
1, 35759, Note_on_c, 0, 67, 0
1, 35760, Note_on_c, 0, 69, 70
1, 35783, Note_on_c, 0, 69, 0
1, 35784, Note_on_c, 0, 71, 70
1, 35807, Note_on_c, 0, 71, 0
1, 35808, Note_on_c, 0, 72, 70
1, 35831, Note_on_c, 0, 72, 0
1, 35832, Note_on_c, 0, 74, 71
1, 35855, Note_on_c, 0, 74, 0
1, 35856, Note_on_c, 0, 76, 73
1, 35879, Note_on_c, 0, 76, 0
1, 35880, Note_on_c, 0, 77, 75
1, 35903, Note_on_c, 0, 77, 0
1, 35904, Note_on_c, 0, 79, 74
1, 35927, Note_on_c, 0, 79, 0
1, 35928, Note_on_c, 0, 76, 73
1, 35951, Note_on_c, 0, 76, 0
1, 35952, Note_on_c, 0, 74, 72
1, 35975, Note_on_c, 0, 74, 0
1, 35976, Note_on_c, 0, 72, 71
1, 35977, Note_on_c, 1, 64, 0
1, 35977, Note_on_c, 1, 60, 0
1, 35999, Note_on_c, 0, 72, 0
1, 36000, Note_on_c, 0, 72, 70
1, 36024, Note_on_c, 1, 55, 70
1, 36047, Note_on_c, 1, 55, 0
1, 36048, Note_on_c, 1, 57, 70
1, 36071, Note_on_c, 1, 57, 0
1, 36072, Note_on_c, 1, 59, 70
1, 36095, Note_on_c, 1, 59, 0
1, 36096, Note_on_c, 1, 60, 70
1, 36119, Note_on_c, 1, 60, 0
1, 36120, Note_on_c, 1, 62, 71
1, 36143, Note_on_c, 1, 62, 0
1, 36144, Note_on_c, 1, 64, 72
1, 36167, Note_on_c, 1, 64, 0
1, 36168, Note_on_c, 1, 65, 73
1, 36191, Note_on_c, 1, 65, 0
1, 36192, Note_on_c, 0, 72, 0
1, 36192, Note_on_c, 0, 71, 70
1, 36192, Note_on_c, 1, 67, 75
1, 36215, Note_on_c, 1, 67, 0
1, 36216, Note_on_c, 1, 69, 73
1, 36239, Note_on_c, 1, 69, 0
1, 36240, Note_on_c, 1, 67, 72
1, 36263, Note_on_c, 1, 67, 0
1, 36264, Note_on_c, 1, 65, 71
1, 36281, Note_on_c, 0, 71, 0
1, 36287, Note_on_c, 1, 65, 0
1, 36288, Note_on_c, 1, 64, 70
1, 36312, Note_on_c, 0, 79, 70
1, 36335, Note_on_c, 0, 79, 0
1, 36336, Note_on_c, 0, 77, 70
1, 36359, Note_on_c, 0, 77, 0
1, 36360, Note_on_c, 0, 76, 70
1, 36383, Note_on_c, 0, 76, 0
1, 36384, Note_on_c, 0, 74, 70
1, 36407, Note_on_c, 0, 74, 0
1, 36408, Note_on_c, 0, 72, 71
1, 36431, Note_on_c, 0, 72, 0
1, 36432, Note_on_c, 0, 71, 72
1, 36455, Note_on_c, 0, 71, 0
1, 36456, Note_on_c, 0, 72, 73
1, 36479, Note_on_c, 0, 72, 0
1, 36480, Note_on_c, 0, 84, 75
1, 36503, Note_on_c, 0, 84, 0
1, 36504, Note_on_c, 0, 83, 73
1, 36527, Note_on_c, 0, 83, 0
1, 36528, Note_on_c, 0, 81, 72
1, 36551, Note_on_c, 0, 81, 0
1, 36552, Note_on_c, 0, 79, 71
1, 36553, Note_on_c, 1, 64, 0
1, 36575, Note_on_c, 0, 79, 0
1, 36576, Note_on_c, 0, 79, 70
1, 36600, Note_on_c, 1, 57, 70
1, 36623, Note_on_c, 1, 57, 0
1, 36624, Note_on_c, 1, 59, 70
1, 36647, Note_on_c, 1, 59, 0
1, 36648, Note_on_c, 1, 61, 70
1, 36671, Note_on_c, 1, 61, 0
1, 36672, Note_on_c, 0, 79, 0
1, 36672, Note_on_c, 0, 77, 70
1, 36672, Note_on_c, 1, 62, 70
1, 36695, Note_on_c, 1, 62, 0
1, 36696, Note_on_c, 1, 64, 71
1, 36719, Note_on_c, 1, 64, 0
1, 36720, Note_on_c, 1, 65, 72
1, 36743, Note_on_c, 1, 65, 0
1, 36744, Note_on_c, 1, 67, 73
1, 36767, Note_on_c, 1, 67, 0
1, 36768, Note_on_c, 1, 65, 75
1, 36791, Note_on_c, 1, 65, 0
1, 36792, Note_on_c, 1, 64, 73
1, 36815, Note_on_c, 1, 64, 0
1, 36816, Note_on_c, 1, 62, 72
1, 36839, Note_on_c, 1, 62, 0
1, 36840, Note_on_c, 1, 60, 71
1, 36863, Note_on_c, 1, 60, 0
1, 36864, Note_on_c, 1, 59, 70
1, 36887, Note_on_c, 0, 77, 0
1, 36888, Note_on_c, 0, 74, 70
1, 36911, Note_on_c, 0, 74, 0
1, 36912, Note_on_c, 0, 76, 70
1, 36935, Note_on_c, 0, 76, 0
1, 36936, Note_on_c, 0, 77, 70
1, 36959, Note_on_c, 0, 77, 0
1, 36960, Note_on_c, 0, 79, 70
1, 36983, Note_on_c, 0, 79, 0
1, 36984, Note_on_c, 0, 81, 70
1, 37007, Note_on_c, 0, 81, 0
1, 37008, Note_on_c, 0, 83, 70
1, 37031, Note_on_c, 0, 83, 0
1, 37032, Note_on_c, 0, 84, 70
1, 37055, Note_on_c, 0, 84, 0
1, 37056, Note_on_c, 0, 86, 70
1, 37056, Note_on_c, 1, 59, 0
1, 37056, Note_on_c, 1, 55, 70
1, 37079, Note_on_c, 0, 86, 0
1, 37080, Note_on_c, 0, 83, 70
1, 37103, Note_on_c, 0, 83, 0
1, 37104, Note_on_c, 0, 79, 70
1, 37127, Note_on_c, 0, 79, 0
1, 37128, Note_on_c, 0, 77, 70
1, 37145, Note_on_c, 1, 55, 0
1, 37151, Note_on_c, 0, 77, 0
1, 37152, Note_on_c, 0, 77, 70
1, 37176, Note_on_c, 1, 57, 70
1, 37199, Note_on_c, 1, 57, 0
1, 37200, Note_on_c, 1, 59, 70
1, 37223, Note_on_c, 1, 59, 0
1, 37224, Note_on_c, 1, 60, 70
1, 37247, Note_on_c, 1, 60, 0
1, 37248, Note_on_c, 0, 77, 0
1, 37248, Note_on_c, 0, 76, 70
1, 37248, Note_on_c, 1, 62, 70
1, 37271, Note_on_c, 1, 62, 0
1, 37272, Note_on_c, 1, 64, 71
1, 37295, Note_on_c, 1, 64, 0
1, 37296, Note_on_c, 1, 65, 73
1, 37319, Note_on_c, 1, 65, 0
1, 37320, Note_on_c, 1, 67, 75
1, 37337, Note_on_c, 0, 76, 0
1, 37343, Note_on_c, 1, 67, 0
1, 37344, Note_on_c, 0, 84, 70
1, 37344, Note_on_c, 1, 69, 74
1, 37367, Note_on_c, 0, 84, 0
1, 37367, Note_on_c, 1, 69, 0
1, 37368, Note_on_c, 0, 83, 70
1, 37368, Note_on_c, 1, 67, 73
1, 37391, Note_on_c, 0, 83, 0
1, 37391, Note_on_c, 1, 67, 0
1, 37392, Note_on_c, 0, 81, 70
1, 37392, Note_on_c, 1, 65, 72
1, 37415, Note_on_c, 0, 81, 0
1, 37415, Note_on_c, 1, 65, 0
1, 37416, Note_on_c, 0, 79, 70
1, 37416, Note_on_c, 1, 64, 71
1, 37439, Note_on_c, 0, 79, 0
1, 37439, Note_on_c, 1, 64, 0
1, 37440, Note_on_c, 0, 81, 70
1, 37440, Note_on_c, 1, 65, 70
1, 37463, Note_on_c, 0, 81, 0
1, 37463, Note_on_c, 1, 65, 0
1, 37464, Note_on_c, 0, 77, 70
1, 37464, Note_on_c, 1, 69, 70
1, 37487, Note_on_c, 0, 77, 0
1, 37487, Note_on_c, 1, 69, 0
1, 37488, Note_on_c, 0, 76, 70
1, 37488, Note_on_c, 1, 67, 70
1, 37511, Note_on_c, 0, 76, 0
1, 37511, Note_on_c, 1, 67, 0
1, 37512, Note_on_c, 0, 74, 70
1, 37512, Note_on_c, 1, 65, 70
1, 37535, Note_on_c, 0, 74, 0
1, 37535, Note_on_c, 1, 65, 0
1, 37536, Note_on_c, 0, 77, 70
1, 37536, Note_on_c, 1, 67, 70
1, 37559, Note_on_c, 0, 77, 0
1, 37560, Note_on_c, 0, 76, 70
1, 37583, Note_on_c, 0, 76, 0
1, 37584, Note_on_c, 0, 79, 70
1, 37607, Note_on_c, 0, 79, 0
1, 37608, Note_on_c, 0, 72, 70
1, 37625, Note_on_c, 1, 67, 0
1, 37631, Note_on_c, 0, 72, 0
1, 37632, Note_on_c, 0, 76, 70
1, 37632, Note_on_c, 1, 55, 70
1, 37655, Note_on_c, 0, 76, 0
1, 37656, Note_on_c, 0, 74, 67
1, 37679, Note_on_c, 0, 74, 0
1, 37680, Note_on_c, 0, 72, 64
1, 37703, Note_on_c, 0, 72, 0
1, 37704, Note_on_c, 0, 71, 61
1, 37721, Note_on_c, 1, 55, 0
1, 37727, Note_on_c, 0, 71, 0
1, 37728, Note_on_c, 0, 72, 58
1, 37752, Note_on_c, 1, 48, 58
1, 37775, Note_on_c, 1, 48, 0
1, 37776, Note_on_c, 1, 50, 59
1, 37799, Note_on_c, 1, 50, 0
1, 37800, Note_on_c, 1, 51, 61
1, 37817, Note_on_c, 0, 72, 0
1, 37823, Note_on_c, 1, 51, 0
1, 37824, Note_on_c, 1, 53, 63
1, 37847, Note_on_c, 1, 53, 0
1, 37848, Note_on_c, 1, 55, 64
1, 37871, Note_on_c, 1, 55, 0
1, 37872, Note_on_c, 1, 57, 66
1, 37895, Note_on_c, 1, 57, 0
1, 37896, Note_on_c, 1, 59, 68
1, 37919, Note_on_c, 1, 59, 0
1, 37920, Note_on_c, 1, 60, 69
1, 37943, Note_on_c, 1, 60, 0
1, 37944, Note_on_c, 1, 59, 71
1, 37967, Note_on_c, 1, 59, 0
1, 37968, Note_on_c, 1, 62, 73
1, 37991, Note_on_c, 1, 62, 0
1, 37992, Note_on_c, 1, 60, 75
1, 38015, Note_on_c, 1, 60, 0
1, 38016, Note_on_c, 1, 63, 73
1, 38040, Note_on_c, 0, 67, 58
1, 38063, Note_on_c, 0, 67, 0
1, 38064, Note_on_c, 0, 69, 58
1, 38087, Note_on_c, 0, 69, 0
1, 38088, Note_on_c, 0, 71, 58
1, 38111, Note_on_c, 0, 71, 0
1, 38112, Note_on_c, 0, 72, 58
1, 38135, Note_on_c, 0, 72, 0
1, 38136, Note_on_c, 0, 74, 58
1, 38159, Note_on_c, 0, 74, 0
1, 38160, Note_on_c, 0, 75, 58
1, 38183, Note_on_c, 0, 75, 0
1, 38184, Note_on_c, 0, 77, 58
1, 38207, Note_on_c, 0, 77, 0
1, 38208, Note_on_c, 0, 79, 58
1, 38208, Note_on_c, 1, 63, 0
1, 38208, Note_on_c, 1, 51, 63
1, 38231, Note_on_c, 0, 79, 0
1, 38232, Note_on_c, 0, 75, 58
1, 38255, Note_on_c, 0, 75, 0
1, 38256, Note_on_c, 0, 74, 58
1, 38279, Note_on_c, 0, 74, 0
1, 38280, Note_on_c, 0, 72, 58
1, 38297, Note_on_c, 1, 51, 0
1, 38303, Note_on_c, 0, 72, 0
1, 38304, Note_on_c, 0, 78, 58
1, 38304, Note_on_c, 1, 50, 58
1, 38327, Note_on_c, 1, 50, 0
1, 38328, Note_on_c, 1, 54, 58
1, 38349, Note_on_c, 0, 78, 0
1, 38351, Note_on_c, 1, 54, 0
1, 38352, Note_on_c, 0, 79, 59
1, 38352, Note_on_c, 1, 52, 59
1, 38375, Note_on_c, 1, 52, 0
1, 38376, Note_on_c, 1, 55, 60
1, 38397, Note_on_c, 0, 79, 0
1, 38399, Note_on_c, 1, 55, 0
1, 38400, Note_on_c, 0, 81, 60
1, 38400, Note_on_c, 1, 54, 60
1, 38420, Note_on_c, 0, 81, 0
1, 38423, Note_on_c, 1, 54, 0
1, 38424, Note_on_c, 1, 57, 61
1, 38447, Note_on_c, 1, 57, 0
1, 38448, Note_on_c, 0, 72, 77
1, 38448, Note_on_c, 1, 50, 62
1, 38471, Note_on_c, 1, 50, 0
1, 38472, Note_on_c, 1, 54, 63
1, 38495, Note_on_c, 1, 54, 0
1, 38496, Note_on_c, 1, 52, 63
1, 38519, Note_on_c, 1, 52, 0
1, 38520, Note_on_c, 1, 55, 63
1, 38543, Note_on_c, 1, 55, 0
1, 38544, Note_on_c, 0, 72, 0
1, 38544, Note_on_c, 0, 69, 63
1, 38544, Note_on_c, 1, 54, 63
1, 38567, Note_on_c, 1, 54, 0
1, 38568, Note_on_c, 1, 57, 63
1, 38589, Note_on_c, 0, 69, 0
1, 38591, Note_on_c, 1, 57, 0
1, 38592, Note_on_c, 0, 70, 64
1, 38592, Note_on_c, 1, 55, 64
1, 38615, Note_on_c, 1, 55, 0
1, 38616, Note_on_c, 1, 58, 65
1, 38637, Note_on_c, 0, 70, 0
1, 38639, Note_on_c, 1, 58, 0
1, 38640, Note_on_c, 0, 66, 65
1, 38640, Note_on_c, 1, 57, 66
1, 38663, Note_on_c, 1, 57, 0
1, 38664, Note_on_c, 1, 60, 67
1, 38685, Note_on_c, 0, 66, 0
1, 38687, Note_on_c, 1, 60, 0
1, 38688, Note_on_c, 0, 67, 66
1, 38688, Note_on_c, 1, 58, 68
1, 38708, Note_on_c, 0, 67, 0
1, 38711, Note_on_c, 1, 58, 0
1, 38712, Note_on_c, 1, 62, 69
1, 38735, Note_on_c, 1, 62, 0
1, 38736, Note_on_c, 0, 79, 83
1, 38736, Note_on_c, 1, 55, 70
1, 38759, Note_on_c, 1, 55, 0
1, 38760, Note_on_c, 1, 59, 70
1, 38783, Note_on_c, 1, 59, 0
1, 38784, Note_on_c, 1, 57, 70
1, 38807, Note_on_c, 1, 57, 0
1, 38808, Note_on_c, 1, 60, 70
1, 38831, Note_on_c, 1, 60, 0
1, 38832, Note_on_c, 0, 79, 0
1, 38832, Note_on_c, 0, 77, 70
1, 38832, Note_on_c, 1, 59, 71
1, 38855, Note_on_c, 1, 59, 0
1, 38856, Note_on_c, 1, 62, 71
1, 38877, Note_on_c, 0, 77, 0
1, 38879, Note_on_c, 1, 62, 0
1, 38880, Note_on_c, 0, 76, 70
1, 38880, Note_on_c, 1, 60, 72
1, 38903, Note_on_c, 1, 60, 0
1, 38904, Note_on_c, 1, 64, 72
1, 38925, Note_on_c, 0, 76, 0
1, 38927, Note_on_c, 1, 64, 0
1, 38928, Note_on_c, 0, 71, 71
1, 38928, Note_on_c, 1, 62, 73
1, 38951, Note_on_c, 1, 62, 0
1, 38952, Note_on_c, 1, 65, 73
1, 38973, Note_on_c, 0, 71, 0
1, 38975, Note_on_c, 1, 65, 0
1, 38976, Note_on_c, 0, 72, 72
1, 38976, Note_on_c, 1, 64, 74
1, 38996, Note_on_c, 0, 72, 0
1, 38999, Note_on_c, 1, 64, 0
1, 39000, Note_on_c, 1, 67, 74
1, 39023, Note_on_c, 1, 67, 0
1, 39024, Note_on_c, 0, 72, 89
1, 39024, Note_on_c, 1, 48, 75
1, 39047, Note_on_c, 1, 48, 0
1, 39048, Note_on_c, 1, 52, 75
1, 39071, Note_on_c, 1, 52, 0
1, 39072, Note_on_c, 1, 50, 75
1, 39095, Note_on_c, 1, 50, 0
1, 39096, Note_on_c, 1, 53, 75
1, 39119, Note_on_c, 1, 53, 0
1, 39120, Note_on_c, 0, 72, 0
1, 39120, Note_on_c, 0, 70, 75
1, 39120, Note_on_c, 1, 52, 75
1, 39143, Note_on_c, 1, 52, 0
1, 39144, Note_on_c, 1, 55, 75
1, 39165, Note_on_c, 0, 70, 0
1, 39167, Note_on_c, 1, 55, 0
1, 39168, Note_on_c, 0, 69, 75
1, 39168, Note_on_c, 1, 53, 75
1, 39191, Note_on_c, 1, 53, 0
1, 39192, Note_on_c, 1, 57, 75
1, 39213, Note_on_c, 0, 69, 0
1, 39215, Note_on_c, 1, 57, 0
1, 39216, Note_on_c, 0, 64, 75
1, 39216, Note_on_c, 1, 55, 75
1, 39239, Note_on_c, 1, 55, 0
1, 39240, Note_on_c, 1, 58, 75
1, 39261, Note_on_c, 0, 64, 0
1, 39263, Note_on_c, 1, 58, 0
1, 39264, Note_on_c, 0, 65, 75
1, 39264, Note_on_c, 1, 57, 75
1, 39284, Note_on_c, 0, 65, 0
1, 39287, Note_on_c, 1, 57, 0
1, 39288, Note_on_c, 1, 60, 75
1, 39311, Note_on_c, 1, 60, 0
1, 39312, Note_on_c, 0, 77, 91
1, 39312, Note_on_c, 1, 53, 75
1, 39335, Note_on_c, 1, 53, 0
1, 39336, Note_on_c, 1, 57, 75
1, 39359, Note_on_c, 1, 57, 0
1, 39360, Note_on_c, 1, 55, 75
1, 39383, Note_on_c, 1, 55, 0
1, 39384, Note_on_c, 1, 58, 75
1, 39407, Note_on_c, 1, 58, 0
1, 39408, Note_on_c, 0, 77, 0
1, 39408, Note_on_c, 0, 75, 75
1, 39408, Note_on_c, 1, 57, 75
1, 39431, Note_on_c, 1, 57, 0
1, 39432, Note_on_c, 1, 60, 75
1, 39453, Note_on_c, 0, 75, 0
1, 39455, Note_on_c, 1, 60, 0
1, 39456, Note_on_c, 0, 74, 75
1, 39456, Note_on_c, 1, 58, 75
1, 39479, Note_on_c, 1, 58, 0
1, 39480, Note_on_c, 1, 62, 75
1, 39501, Note_on_c, 0, 74, 0
1, 39503, Note_on_c, 1, 62, 0
1, 39504, Note_on_c, 0, 69, 75
1, 39504, Note_on_c, 1, 60, 75
1, 39527, Note_on_c, 1, 60, 0
1, 39528, Note_on_c, 1, 63, 75
1, 39549, Note_on_c, 0, 69, 0
1, 39551, Note_on_c, 1, 63, 0
1, 39552, Note_on_c, 0, 70, 75
1, 39552, Note_on_c, 1, 62, 75
1, 39572, Note_on_c, 0, 70, 0
1, 39575, Note_on_c, 1, 62, 0
1, 39576, Note_on_c, 1, 65, 75
1, 39599, Note_on_c, 1, 65, 0
1, 39600, Note_on_c, 0, 79, 91
1, 39600, Note_on_c, 1, 55, 75
1, 39623, Note_on_c, 1, 55, 0
1, 39624, Note_on_c, 1, 59, 75
1, 39647, Note_on_c, 1, 59, 0
1, 39648, Note_on_c, 1, 57, 75
1, 39671, Note_on_c, 1, 57, 0
1, 39672, Note_on_c, 1, 60, 75
1, 39695, Note_on_c, 1, 60, 0
1, 39696, Note_on_c, 0, 79, 0
1, 39696, Note_on_c, 0, 77, 75
1, 39696, Note_on_c, 1, 59, 75
1, 39719, Note_on_c, 1, 59, 0
1, 39720, Note_on_c, 1, 62, 75
1, 39741, Note_on_c, 0, 77, 0
1, 39743, Note_on_c, 1, 62, 0
1, 39744, Note_on_c, 0, 76, 75
1, 39744, Note_on_c, 1, 60, 75
1, 39767, Note_on_c, 1, 60, 0
1, 39768, Note_on_c, 1, 64, 75
1, 39789, Note_on_c, 0, 76, 0
1, 39791, Note_on_c, 1, 64, 0
1, 39792, Note_on_c, 0, 71, 75
1, 39792, Note_on_c, 1, 62, 75
1, 39815, Note_on_c, 1, 62, 0
1, 39816, Note_on_c, 1, 65, 75
1, 39837, Note_on_c, 0, 71, 0
1, 39839, Note_on_c, 1, 65, 0
1, 39840, Note_on_c, 0, 72, 75
1, 39840, Note_on_c, 1, 64, 75
1, 39860, Note_on_c, 0, 72, 0
1, 39863, Note_on_c, 1, 64, 0
1, 39864, Note_on_c, 1, 67, 75
1, 39887, Note_on_c, 1, 67, 0
1, 39888, Note_on_c, 0, 81, 91
1, 39888, Note_on_c, 1, 57, 75
1, 39911, Note_on_c, 1, 57, 0
1, 39912, Note_on_c, 1, 61, 75
1, 39935, Note_on_c, 1, 61, 0
1, 39936, Note_on_c, 1, 59, 75
1, 39959, Note_on_c, 1, 59, 0
1, 39960, Note_on_c, 1, 62, 75
1, 39983, Note_on_c, 1, 62, 0
1, 39984, Note_on_c, 0, 81, 0
1, 39984, Note_on_c, 0, 79, 75
1, 39984, Note_on_c, 1, 61, 75
1, 40007, Note_on_c, 1, 61, 0
1, 40008, Note_on_c, 1, 64, 75
1, 40029, Note_on_c, 0, 79, 0
1, 40031, Note_on_c, 1, 64, 0
1, 40032, Note_on_c, 0, 77, 75
1, 40032, Note_on_c, 1, 62, 75
1, 40055, Note_on_c, 1, 62, 0
1, 40056, Note_on_c, 1, 65, 75
1, 40077, Note_on_c, 0, 77, 0
1, 40079, Note_on_c, 1, 65, 0
1, 40080, Note_on_c, 0, 73, 75
1, 40080, Note_on_c, 1, 64, 75
1, 40103, Note_on_c, 1, 64, 0
1, 40104, Note_on_c, 1, 67, 75
1, 40125, Note_on_c, 0, 73, 0
1, 40127, Note_on_c, 1, 67, 0
1, 40128, Note_on_c, 0, 74, 75
1, 40128, Note_on_c, 1, 65, 75
1, 40151, Note_on_c, 1, 65, 0
1, 40152, Note_on_c, 1, 69, 75
1, 40173, Note_on_c, 0, 74, 0
1, 40175, Note_on_c, 1, 69, 0
1, 40176, Note_on_c, 0, 77, 75
1, 40176, Note_on_c, 1, 62, 75
1, 40199, Note_on_c, 0, 77, 0
1, 40199, Note_on_c, 1, 62, 0
1, 40200, Note_on_c, 0, 81, 75
1, 40200, Note_on_c, 1, 65, 75
1, 40223, Note_on_c, 0, 81, 0
1, 40223, Note_on_c, 1, 65, 0
1, 40224, Note_on_c, 0, 79, 75
1, 40224, Note_on_c, 1, 64, 75
1, 40247, Note_on_c, 0, 79, 0
1, 40247, Note_on_c, 1, 64, 0
1, 40248, Note_on_c, 0, 82, 75
1, 40248, Note_on_c, 1, 67, 75
1, 40271, Note_on_c, 0, 82, 0
1, 40271, Note_on_c, 1, 67, 0
1, 40272, Note_on_c, 0, 81, 75
1, 40272, Note_on_c, 1, 65, 75
1, 40295, Note_on_c, 0, 81, 0
1, 40295, Note_on_c, 1, 65, 0
1, 40296, Note_on_c, 0, 84, 75
1, 40296, Note_on_c, 1, 69, 75
1, 40319, Note_on_c, 0, 84, 0
1, 40319, Note_on_c, 1, 69, 0
1, 40320, Note_on_c, 0, 82, 75
1, 40320, Note_on_c, 1, 67, 75
1, 40343, Note_on_c, 0, 82, 0
1, 40344, Note_on_c, 0, 86, 75
1, 40365, Note_on_c, 1, 67, 0
1, 40367, Note_on_c, 0, 86, 0
1, 40368, Note_on_c, 0, 81, 75
1, 40368, Note_on_c, 1, 69, 75
1, 40391, Note_on_c, 0, 81, 0
1, 40392, Note_on_c, 0, 84, 75
1, 40413, Note_on_c, 1, 69, 0
1, 40415, Note_on_c, 0, 84, 0
1, 40416, Note_on_c, 0, 79, 75
1, 40416, Note_on_c, 1, 70, 75
1, 40439, Note_on_c, 0, 79, 0
1, 40440, Note_on_c, 0, 82, 75
1, 40461, Note_on_c, 1, 70, 0
1, 40463, Note_on_c, 0, 82, 0
1, 40464, Note_on_c, 0, 78, 75
1, 40464, Note_on_c, 1, 72, 75
1, 40487, Note_on_c, 0, 78, 0
1, 40488, Note_on_c, 0, 81, 75
1, 40509, Note_on_c, 1, 72, 0
1, 40511, Note_on_c, 0, 81, 0
1, 40512, Note_on_c, 0, 79, 75
1, 40512, Note_on_c, 1, 70, 75
1, 40532, Note_on_c, 1, 70, 0
1, 40535, Note_on_c, 0, 79, 0
1, 40536, Note_on_c, 0, 82, 75
1, 40559, Note_on_c, 0, 82, 0
1, 40560, Note_on_c, 0, 74, 75
1, 40560, Note_on_c, 1, 59, 75
1, 40583, Note_on_c, 0, 74, 0
1, 40584, Note_on_c, 0, 77, 75
1, 40605, Note_on_c, 1, 59, 0
1, 40607, Note_on_c, 0, 77, 0
1, 40608, Note_on_c, 0, 76, 75
1, 40608, Note_on_c, 1, 60, 75
1, 40631, Note_on_c, 0, 76, 0
1, 40632, Note_on_c, 0, 79, 75
1, 40653, Note_on_c, 1, 60, 0
1, 40655, Note_on_c, 0, 79, 0
1, 40656, Note_on_c, 0, 74, 75
1, 40656, Note_on_c, 1, 62, 75
1, 40679, Note_on_c, 0, 74, 0
1, 40680, Note_on_c, 0, 77, 75
1, 40701, Note_on_c, 1, 62, 0
1, 40703, Note_on_c, 0, 77, 0
1, 40704, Note_on_c, 0, 72, 75
1, 40704, Note_on_c, 1, 64, 75
1, 40727, Note_on_c, 0, 72, 0
1, 40728, Note_on_c, 0, 76, 75
1, 40749, Note_on_c, 1, 64, 0
1, 40751, Note_on_c, 0, 76, 0
1, 40752, Note_on_c, 0, 71, 75
1, 40752, Note_on_c, 1, 65, 75
1, 40775, Note_on_c, 0, 71, 0
1, 40776, Note_on_c, 0, 74, 75
1, 40797, Note_on_c, 1, 65, 0
1, 40799, Note_on_c, 0, 74, 0
1, 40800, Note_on_c, 0, 72, 75
1, 40800, Note_on_c, 1, 64, 75
1, 40823, Note_on_c, 0, 72, 0
1, 40824, Note_on_c, 0, 76, 75
1, 40845, Note_on_c, 1, 64, 0
1, 40847, Note_on_c, 0, 76, 0
1, 40848, Note_on_c, 0, 79, 75
1, 40848, Note_on_c, 1, 60, 75
1, 40871, Note_on_c, 0, 79, 0
1, 40872, Note_on_c, 0, 82, 75
1, 40893, Note_on_c, 1, 60, 0
1, 40895, Note_on_c, 0, 82, 0
1, 40896, Note_on_c, 0, 81, 75
1, 40896, Note_on_c, 1, 65, 75
1, 40919, Note_on_c, 0, 81, 0
1, 40920, Note_on_c, 0, 84, 75
1, 40941, Note_on_c, 1, 65, 0
1, 40943, Note_on_c, 0, 84, 0
1, 40944, Note_on_c, 0, 79, 75
1, 40944, Note_on_c, 1, 67, 75
1, 40967, Note_on_c, 0, 79, 0
1, 40968, Note_on_c, 0, 82, 75
1, 40989, Note_on_c, 1, 67, 0
1, 40991, Note_on_c, 0, 82, 0
1, 40992, Note_on_c, 0, 77, 75
1, 40992, Note_on_c, 1, 69, 75
1, 41015, Note_on_c, 0, 77, 0
1, 41016, Note_on_c, 0, 81, 75
1, 41037, Note_on_c, 1, 69, 0
1, 41039, Note_on_c, 0, 81, 0
1, 41040, Note_on_c, 0, 76, 75
1, 41040, Note_on_c, 1, 70, 75
1, 41063, Note_on_c, 0, 76, 0
1, 41064, Note_on_c, 0, 79, 75
1, 41085, Note_on_c, 1, 70, 0
1, 41087, Note_on_c, 0, 79, 0
1, 41088, Note_on_c, 0, 77, 75
1, 41088, Note_on_c, 1, 69, 75
1, 41111, Note_on_c, 0, 77, 0
1, 41112, Note_on_c, 0, 81, 75
1, 41133, Note_on_c, 1, 69, 0
1, 41135, Note_on_c, 0, 81, 0
1, 41136, Note_on_c, 0, 72, 75
1, 41136, Note_on_c, 1, 57, 75
1, 41159, Note_on_c, 0, 72, 0
1, 41160, Note_on_c, 0, 75, 75
1, 41181, Note_on_c, 1, 57, 0
1, 41183, Note_on_c, 0, 75, 0
1, 41184, Note_on_c, 0, 74, 75
1, 41184, Note_on_c, 1, 58, 75
1, 41207, Note_on_c, 0, 74, 0
1, 41208, Note_on_c, 0, 77, 75
1, 41229, Note_on_c, 1, 58, 0
1, 41231, Note_on_c, 0, 77, 0
1, 41232, Note_on_c, 0, 72, 75
1, 41232, Note_on_c, 1, 60, 75
1, 41255, Note_on_c, 0, 72, 0
1, 41256, Note_on_c, 0, 75, 75
1, 41277, Note_on_c, 1, 60, 0
1, 41279, Note_on_c, 0, 75, 0
1, 41280, Note_on_c, 0, 70, 75
1, 41280, Note_on_c, 1, 62, 75
1, 41303, Note_on_c, 0, 70, 0
1, 41304, Note_on_c, 0, 74, 75
1, 41325, Note_on_c, 1, 62, 0
1, 41327, Note_on_c, 0, 74, 0
1, 41328, Note_on_c, 0, 69, 75
1, 41328, Note_on_c, 1, 63, 75
1, 41351, Note_on_c, 0, 69, 0
1, 41352, Note_on_c, 0, 72, 75
1, 41373, Note_on_c, 1, 63, 0
1, 41375, Note_on_c, 0, 72, 0
1, 41376, Note_on_c, 0, 70, 75
1, 41376, Note_on_c, 1, 62, 75
1, 41399, Note_on_c, 0, 70, 0
1, 41400, Note_on_c, 0, 74, 75
1, 41421, Note_on_c, 1, 62, 0
1, 41423, Note_on_c, 0, 74, 0
1, 41424, Note_on_c, 0, 72, 75
1, 41424, Note_on_c, 1, 57, 75
1, 41447, Note_on_c, 0, 72, 0
1, 41448, Note_on_c, 0, 75, 75
1, 41469, Note_on_c, 1, 57, 0
1, 41471, Note_on_c, 0, 75, 0
1, 41472, Note_on_c, 0, 74, 75
1, 41472, Note_on_c, 1, 58, 75
1, 41495, Note_on_c, 0, 74, 0
1, 41496, Note_on_c, 0, 77, 73
1, 41517, Note_on_c, 1, 58, 0
1, 41519, Note_on_c, 0, 77, 0
1, 41520, Note_on_c, 0, 72, 72
1, 41520, Note_on_c, 1, 60, 72
1, 41543, Note_on_c, 0, 72, 0
1, 41544, Note_on_c, 0, 75, 71
1, 41565, Note_on_c, 1, 60, 0
1, 41567, Note_on_c, 0, 75, 0
1, 41568, Note_on_c, 0, 70, 70
1, 41568, Note_on_c, 1, 62, 70
1, 41591, Note_on_c, 0, 70, 0
1, 41592, Note_on_c, 0, 74, 69
1, 41613, Note_on_c, 1, 62, 0
1, 41615, Note_on_c, 0, 74, 0
1, 41616, Note_on_c, 0, 69, 68
1, 41616, Note_on_c, 1, 60, 68
1, 41639, Note_on_c, 0, 69, 0
1, 41640, Note_on_c, 0, 72, 67
1, 41661, Note_on_c, 1, 60, 0
1, 41663, Note_on_c, 0, 72, 0
1, 41664, Note_on_c, 0, 67, 66
1, 41664, Note_on_c, 1, 58, 66
1, 41687, Note_on_c, 0, 67, 0
1, 41688, Note_on_c, 0, 70, 65
1, 41709, Note_on_c, 1, 58, 0
1, 41711, Note_on_c, 0, 70, 0
1, 41712, Note_on_c, 0, 65, 64
1, 41712, Note_on_c, 1, 59, 64
1, 41735, Note_on_c, 0, 65, 0
1, 41736, Note_on_c, 0, 69, 63
1, 41757, Note_on_c, 1, 59, 0
1, 41759, Note_on_c, 0, 69, 0
1, 41760, Note_on_c, 0, 64, 62
1, 41760, Note_on_c, 1, 60, 62
1, 41783, Note_on_c, 0, 64, 0
1, 41784, Note_on_c, 0, 67, 61
1, 41807, Note_on_c, 0, 67, 0
1, 41808, Note_on_c, 0, 62, 60
1, 41831, Note_on_c, 0, 62, 0
1, 41832, Note_on_c, 0, 65, 59
1, 41849, Note_on_c, 1, 60, 0
1, 41855, Note_on_c, 0, 65, 0
1, 41856, Note_on_c, 1, 60, 58
1, 41879, Note_on_c, 1, 60, 0
1, 41880, Note_on_c, 1, 64, 59
1, 41903, Note_on_c, 1, 64, 0
1, 41904, Note_on_c, 1, 58, 61
1, 41927, Note_on_c, 1, 58, 0
1, 41928, Note_on_c, 1, 62, 62
1, 41951, Note_on_c, 1, 62, 0
1, 41952, Note_on_c, 1, 57, 64
1, 41975, Note_on_c, 1, 57, 0
1, 41976, Note_on_c, 1, 60, 65
1, 41999, Note_on_c, 1, 60, 0
1, 42000, Note_on_c, 1, 55, 67
1, 42023, Note_on_c, 1, 55, 0
1, 42024, Note_on_c, 1, 58, 68
1, 42047, Note_on_c, 1, 58, 0
1, 42048, Note_on_c, 1, 57, 70
1, 42048, Note_on_c, 1, 53, 70
1, 42072, Note_on_c, 0, 60, 70
1, 42095, Note_on_c, 0, 60, 0
1, 42096, Note_on_c, 0, 62, 70
1, 42119, Note_on_c, 0, 62, 0
1, 42120, Note_on_c, 0, 64, 70
1, 42143, Note_on_c, 0, 64, 0
1, 42144, Note_on_c, 0, 65, 70
1, 42167, Note_on_c, 0, 65, 0
1, 42168, Note_on_c, 0, 67, 71
1, 42191, Note_on_c, 0, 67, 0
1, 42192, Note_on_c, 0, 69, 72
1, 42215, Note_on_c, 0, 69, 0
1, 42216, Note_on_c, 0, 70, 73
1, 42225, Note_on_c, 1, 57, 0
1, 42225, Note_on_c, 1, 53, 0
1, 42239, Note_on_c, 0, 70, 0
1, 42240, Note_on_c, 0, 72, 75
1, 42263, Note_on_c, 0, 72, 0
1, 42264, Note_on_c, 0, 69, 73
1, 42287, Note_on_c, 0, 69, 0
1, 42288, Note_on_c, 0, 67, 72
1, 42311, Note_on_c, 0, 67, 0
1, 42312, Note_on_c, 0, 65, 71
1, 42335, Note_on_c, 0, 65, 0
1, 42336, Note_on_c, 0, 65, 70
1, 42360, Note_on_c, 1, 48, 70
1, 42383, Note_on_c, 1, 48, 0
1, 42384, Note_on_c, 1, 50, 71
1, 42407, Note_on_c, 1, 50, 0
1, 42408, Note_on_c, 1, 52, 72
1, 42431, Note_on_c, 1, 52, 0
1, 42432, Note_on_c, 1, 53, 73
1, 42455, Note_on_c, 1, 53, 0
1, 42456, Note_on_c, 1, 55, 74
1, 42479, Note_on_c, 1, 55, 0
1, 42480, Note_on_c, 1, 57, 75
1, 42503, Note_on_c, 1, 57, 0
1, 42504, Note_on_c, 1, 58, 74
1, 42527, Note_on_c, 1, 58, 0
1, 42528, Note_on_c, 0, 65, 0
1, 42528, Note_on_c, 0, 64, 70
1, 42528, Note_on_c, 1, 60, 73
1, 42551, Note_on_c, 1, 60, 0
1, 42552, Note_on_c, 1, 62, 72
1, 42575, Note_on_c, 1, 62, 0
1, 42576, Note_on_c, 1, 60, 71
1, 42599, Note_on_c, 1, 60, 0
1, 42600, Note_on_c, 1, 58, 70
1, 42617, Note_on_c, 0, 64, 0
1, 42623, Note_on_c, 1, 58, 0
1, 42624, Note_on_c, 1, 57, 70
1, 42648, Note_on_c, 0, 72, 70
1, 42671, Note_on_c, 0, 72, 0
1, 42672, Note_on_c, 0, 70, 70
1, 42695, Note_on_c, 0, 70, 0
1, 42696, Note_on_c, 0, 69, 70
1, 42719, Note_on_c, 0, 69, 0
1, 42720, Note_on_c, 0, 67, 70
1, 42743, Note_on_c, 0, 67, 0
1, 42744, Note_on_c, 0, 65, 70
1, 42767, Note_on_c, 0, 65, 0
1, 42768, Note_on_c, 0, 64, 70
1, 42791, Note_on_c, 0, 64, 0
1, 42792, Note_on_c, 0, 65, 70
1, 42815, Note_on_c, 0, 65, 0
1, 42816, Note_on_c, 0, 77, 70
1, 42839, Note_on_c, 0, 77, 0
1, 42840, Note_on_c, 0, 76, 70
1, 42863, Note_on_c, 0, 76, 0
1, 42864, Note_on_c, 0, 74, 70
1, 42887, Note_on_c, 0, 74, 0
1, 42888, Note_on_c, 0, 72, 70
1, 42911, Note_on_c, 0, 72, 0
1, 42912, Note_on_c, 0, 72, 70
1, 42935, Note_on_c, 1, 57, 0
1, 42936, Note_on_c, 1, 50, 70
1, 42959, Note_on_c, 1, 50, 0
1, 42960, Note_on_c, 1, 52, 70
1, 42983, Note_on_c, 1, 52, 0
1, 42984, Note_on_c, 1, 54, 70
1, 43001, Note_on_c, 0, 72, 0
1, 43007, Note_on_c, 1, 54, 0
1, 43008, Note_on_c, 0, 70, 70
1, 43008, Note_on_c, 1, 55, 70
1, 43031, Note_on_c, 1, 55, 0
1, 43032, Note_on_c, 1, 57, 71
1, 43055, Note_on_c, 1, 57, 0
1, 43056, Note_on_c, 1, 58, 73
1, 43079, Note_on_c, 1, 58, 0
1, 43080, Note_on_c, 1, 60, 75
1, 43103, Note_on_c, 1, 60, 0
1, 43104, Note_on_c, 1, 58, 74
1, 43127, Note_on_c, 1, 58, 0
1, 43128, Note_on_c, 1, 57, 73
1, 43151, Note_on_c, 1, 57, 0
1, 43152, Note_on_c, 1, 55, 72
1, 43175, Note_on_c, 1, 55, 0
1, 43176, Note_on_c, 1, 53, 71
1, 43199, Note_on_c, 1, 53, 0
1, 43200, Note_on_c, 1, 52, 70
1, 43223, Note_on_c, 0, 70, 0
1, 43224, Note_on_c, 0, 67, 70
1, 43247, Note_on_c, 0, 67, 0
1, 43248, Note_on_c, 0, 69, 70
1, 43271, Note_on_c, 0, 69, 0
1, 43272, Note_on_c, 0, 70, 70
1, 43295, Note_on_c, 0, 70, 0
1, 43296, Note_on_c, 0, 72, 70
1, 43319, Note_on_c, 0, 72, 0
1, 43320, Note_on_c, 0, 74, 71
1, 43343, Note_on_c, 0, 74, 0
1, 43344, Note_on_c, 0, 76, 73
1, 43367, Note_on_c, 0, 76, 0
1, 43368, Note_on_c, 0, 77, 75
1, 43391, Note_on_c, 0, 77, 0
1, 43392, Note_on_c, 0, 79, 74
1, 43392, Note_on_c, 1, 52, 0
1, 43392, Note_on_c, 1, 48, 70
1, 43415, Note_on_c, 0, 79, 0
1, 43416, Note_on_c, 0, 76, 73
1, 43439, Note_on_c, 0, 76, 0
1, 43440, Note_on_c, 0, 72, 72
1, 43463, Note_on_c, 0, 72, 0
1, 43464, Note_on_c, 0, 70, 71
1, 43481, Note_on_c, 1, 48, 0
1, 43487, Note_on_c, 0, 70, 0
1, 43488, Note_on_c, 0, 70, 86
1, 43512, Note_on_c, 1, 50, 70
1, 43535, Note_on_c, 1, 50, 0
1, 43536, Note_on_c, 1, 52, 70
1, 43559, Note_on_c, 1, 52, 0
1, 43560, Note_on_c, 1, 53, 70
1, 43583, Note_on_c, 1, 53, 0
1, 43584, Note_on_c, 0, 70, 0
1, 43584, Note_on_c, 0, 69, 70
1, 43584, Note_on_c, 1, 55, 70
1, 43607, Note_on_c, 1, 55, 0
1, 43608, Note_on_c, 1, 57, 71
1, 43631, Note_on_c, 1, 57, 0
1, 43632, Note_on_c, 1, 58, 72
1, 43655, Note_on_c, 1, 58, 0
1, 43656, Note_on_c, 1, 60, 73
1, 43673, Note_on_c, 0, 69, 0
1, 43679, Note_on_c, 1, 60, 0
1, 43680, Note_on_c, 0, 77, 70
1, 43680, Note_on_c, 1, 62, 75
1, 43703, Note_on_c, 0, 77, 0
1, 43703, Note_on_c, 1, 62, 0
1, 43704, Note_on_c, 0, 76, 70
1, 43704, Note_on_c, 1, 60, 73
1, 43727, Note_on_c, 0, 76, 0
1, 43727, Note_on_c, 1, 60, 0
1, 43728, Note_on_c, 0, 74, 70
1, 43728, Note_on_c, 1, 58, 72
1, 43751, Note_on_c, 0, 74, 0
1, 43751, Note_on_c, 1, 58, 0
1, 43752, Note_on_c, 0, 72, 70
1, 43752, Note_on_c, 1, 57, 71
1, 43775, Note_on_c, 0, 72, 0
1, 43775, Note_on_c, 1, 57, 0
1, 43776, Note_on_c, 0, 74, 70
1, 43776, Note_on_c, 1, 58, 70
1, 43799, Note_on_c, 0, 74, 0
1, 43799, Note_on_c, 1, 58, 0
1, 43800, Note_on_c, 0, 70, 70
1, 43800, Note_on_c, 1, 62, 70
1, 43823, Note_on_c, 0, 70, 0
1, 43823, Note_on_c, 1, 62, 0
1, 43824, Note_on_c, 0, 69, 70
1, 43824, Note_on_c, 1, 60, 70
1, 43847, Note_on_c, 0, 69, 0
1, 43847, Note_on_c, 1, 60, 0
1, 43848, Note_on_c, 0, 67, 70
1, 43848, Note_on_c, 1, 58, 70
1, 43871, Note_on_c, 0, 67, 0
1, 43871, Note_on_c, 1, 58, 0
1, 43872, Note_on_c, 0, 70, 70
1, 43872, Note_on_c, 1, 60, 70
1, 43895, Note_on_c, 0, 70, 0
1, 43896, Note_on_c, 0, 69, 70
1, 43919, Note_on_c, 0, 69, 0
1, 43920, Note_on_c, 0, 72, 70
1, 43943, Note_on_c, 0, 72, 0
1, 43944, Note_on_c, 0, 65, 70
1, 43954, Note_on_c, 0, 65, 0
1, 43961, Note_on_c, 1, 60, 0
1, 43968, Note_on_c, 0, 69, 70
1, 43968, Note_on_c, 1, 48, 70
1, 43991, Note_on_c, 0, 69, 0
1, 43992, Note_on_c, 0, 67, 70
1, 44015, Note_on_c, 0, 67, 0
1, 44016, Note_on_c, 0, 65, 70
1, 44039, Note_on_c, 0, 65, 0
1, 44040, Note_on_c, 0, 64, 70
1, 44057, Note_on_c, 1, 48, 0
1, 44063, Note_on_c, 0, 64, 0
1, 44064, Note_on_c, 0, 65, 70
1, 44087, Note_on_c, 0, 65, 0
1, 44088, Note_on_c, 0, 57, 70
1, 44088, Note_on_c, 1, 41, 70
1, 44111, Note_on_c, 0, 57, 0
1, 44111, Note_on_c, 1, 41, 0
1, 44112, Note_on_c, 0, 58, 70
1, 44112, Note_on_c, 1, 43, 70
1, 44135, Note_on_c, 0, 58, 0
1, 44135, Note_on_c, 1, 43, 0
1, 44136, Note_on_c, 0, 60, 70
1, 44136, Note_on_c, 1, 45, 70
1, 44159, Note_on_c, 0, 60, 0
1, 44159, Note_on_c, 1, 45, 0
1, 44160, Note_on_c, 0, 62, 71
1, 44160, Note_on_c, 1, 46, 71
1, 44183, Note_on_c, 0, 62, 0
1, 44183, Note_on_c, 1, 46, 0
1, 44184, Note_on_c, 0, 64, 71
1, 44184, Note_on_c, 1, 48, 71
1, 44207, Note_on_c, 0, 64, 0
1, 44207, Note_on_c, 1, 48, 0
1, 44208, Note_on_c, 0, 65, 72
1, 44208, Note_on_c, 1, 50, 72
1, 44231, Note_on_c, 0, 65, 0
1, 44231, Note_on_c, 1, 50, 0
1, 44232, Note_on_c, 0, 67, 72
1, 44232, Note_on_c, 1, 52, 72
1, 44255, Note_on_c, 0, 67, 0
1, 44255, Note_on_c, 1, 52, 0
1, 44256, Note_on_c, 0, 69, 72
1, 44256, Note_on_c, 1, 53, 73
1, 44279, Note_on_c, 0, 69, 0
1, 44279, Note_on_c, 1, 53, 0
1, 44280, Note_on_c, 0, 67, 73
1, 44280, Note_on_c, 1, 52, 73
1, 44303, Note_on_c, 0, 67, 0
1, 44303, Note_on_c, 1, 52, 0
1, 44304, Note_on_c, 0, 70, 73
1, 44304, Note_on_c, 1, 55, 74
1, 44327, Note_on_c, 0, 70, 0
1, 44327, Note_on_c, 1, 55, 0
1, 44328, Note_on_c, 0, 69, 74
1, 44328, Note_on_c, 1, 53, 74
1, 44351, Note_on_c, 0, 69, 0
1, 44351, Note_on_c, 1, 53, 0
1, 44352, Note_on_c, 0, 72, 74
1, 44352, Note_on_c, 1, 57, 75
1, 44362, Note_on_c, 0, 72, 0
1, 44376, Note_on_c, 0, 72, 70
1, 44399, Note_on_c, 0, 72, 0
1, 44400, Note_on_c, 0, 77, 70
1, 44423, Note_on_c, 0, 77, 0
1, 44424, Note_on_c, 0, 76, 70
1, 44441, Note_on_c, 1, 57, 0
1, 44447, Note_on_c, 0, 76, 0
1, 44448, Note_on_c, 0, 79, 71
1, 44471, Note_on_c, 0, 79, 0
1, 44472, Note_on_c, 0, 77, 71
1, 44495, Note_on_c, 0, 77, 0
1, 44496, Note_on_c, 0, 81, 72
1, 44519, Note_on_c, 0, 81, 0
1, 44520, Note_on_c, 0, 79, 72
1, 44543, Note_on_c, 0, 79, 0
1, 44544, Note_on_c, 0, 77, 73
1, 44567, Note_on_c, 0, 77, 0
1, 44568, Note_on_c, 0, 76, 73
1, 44591, Note_on_c, 0, 76, 0
1, 44592, Note_on_c, 0, 74, 74
1, 44615, Note_on_c, 0, 74, 0
1, 44616, Note_on_c, 0, 72, 74
1, 44639, Note_on_c, 0, 72, 0
1, 44640, Note_on_c, 0, 70, 75
1, 44664, Note_on_c, 1, 50, 70
1, 44687, Note_on_c, 1, 50, 0
1, 44688, Note_on_c, 1, 55, 72
1, 44711, Note_on_c, 1, 55, 0
1, 44712, Note_on_c, 1, 54, 74
1, 44729, Note_on_c, 0, 70, 0
1, 44735, Note_on_c, 1, 54, 0
1, 44736, Note_on_c, 1, 57, 76
1, 44759, Note_on_c, 1, 57, 0
1, 44760, Note_on_c, 1, 55, 78
1, 44783, Note_on_c, 1, 55, 0
1, 44784, Note_on_c, 1, 58, 81
1, 44807, Note_on_c, 1, 58, 0
1, 44808, Note_on_c, 1, 57, 80
1, 44831, Note_on_c, 1, 57, 0
1, 44832, Note_on_c, 1, 55, 79
1, 44855, Note_on_c, 1, 55, 0
1, 44856, Note_on_c, 1, 53, 78
1, 44879, Note_on_c, 1, 53, 0
1, 44880, Note_on_c, 1, 52, 77
1, 44903, Note_on_c, 1, 52, 0
1, 44904, Note_on_c, 1, 50, 76
1, 44927, Note_on_c, 1, 50, 0
1, 44928, Note_on_c, 1, 48, 75
1, 44952, Note_on_c, 0, 70, 70
1, 44975, Note_on_c, 0, 70, 0
1, 44976, Note_on_c, 0, 76, 71
1, 44999, Note_on_c, 0, 76, 0
1, 45000, Note_on_c, 0, 74, 72
1, 45017, Note_on_c, 1, 48, 0
1, 45023, Note_on_c, 0, 74, 0
1, 45024, Note_on_c, 0, 77, 73
1, 45047, Note_on_c, 0, 77, 0
1, 45048, Note_on_c, 0, 76, 74
1, 45071, Note_on_c, 0, 76, 0
1, 45072, Note_on_c, 0, 79, 75
1, 45095, Note_on_c, 0, 79, 0
1, 45096, Note_on_c, 0, 77, 74
1, 45119, Note_on_c, 0, 77, 0
1, 45120, Note_on_c, 0, 76, 73
1, 45143, Note_on_c, 0, 76, 0
1, 45144, Note_on_c, 0, 74, 72
1, 45167, Note_on_c, 0, 74, 0
1, 45168, Note_on_c, 0, 72, 71
1, 45191, Note_on_c, 0, 72, 0
1, 45192, Note_on_c, 0, 70, 70
1, 45215, Note_on_c, 0, 70, 0
1, 45216, Note_on_c, 0, 69, 70
1, 45240, Note_on_c, 1, 48, 70
1, 45263, Note_on_c, 1, 48, 0
1, 45264, Note_on_c, 1, 53, 71
1, 45287, Note_on_c, 1, 53, 0
1, 45288, Note_on_c, 1, 52, 72
1, 45305, Note_on_c, 0, 69, 0
1, 45311, Note_on_c, 1, 52, 0
1, 45312, Note_on_c, 1, 55, 73
1, 45335, Note_on_c, 1, 55, 0
1, 45336, Note_on_c, 1, 53, 74
1, 45359, Note_on_c, 1, 53, 0
1, 45360, Note_on_c, 1, 57, 75
1, 45383, Note_on_c, 1, 57, 0
1, 45384, Note_on_c, 1, 55, 74
1, 45407, Note_on_c, 1, 55, 0
1, 45408, Note_on_c, 1, 53, 73
1, 45431, Note_on_c, 1, 53, 0
1, 45432, Note_on_c, 1, 52, 72
1, 45455, Note_on_c, 1, 52, 0
1, 45456, Note_on_c, 1, 50, 71
1, 45479, Note_on_c, 1, 50, 0
1, 45480, Note_on_c, 1, 48, 70
1, 45503, Note_on_c, 1, 48, 0
1, 45504, Note_on_c, 1, 46, 70
1, 45528, Note_on_c, 0, 62, 70
1, 45551, Note_on_c, 0, 62, 0
1, 45552, Note_on_c, 0, 67, 70
1, 45575, Note_on_c, 0, 67, 0
1, 45576, Note_on_c, 0, 66, 70
1, 45599, Note_on_c, 0, 66, 0
1, 45600, Note_on_c, 0, 69, 70
1, 45623, Note_on_c, 0, 69, 0
1, 45624, Note_on_c, 0, 67, 70
1, 45647, Note_on_c, 0, 67, 0
1, 45648, Note_on_c, 0, 70, 70
1, 45671, Note_on_c, 0, 70, 0
1, 45672, Note_on_c, 0, 69, 70
1, 45695, Note_on_c, 0, 69, 0
1, 45696, Note_on_c, 0, 72, 70
1, 45719, Note_on_c, 0, 72, 0
1, 45720, Note_on_c, 0, 70, 70
1, 45741, Note_on_c, 1, 46, 0
1, 45743, Note_on_c, 0, 70, 0
1, 45744, Note_on_c, 0, 74, 70
1, 45744, Note_on_c, 1, 47, 70
1, 45767, Note_on_c, 0, 74, 0
1, 45768, Note_on_c, 0, 65, 70
1, 45789, Note_on_c, 1, 47, 0
1, 45791, Note_on_c, 0, 65, 0
1, 45792, Note_on_c, 0, 64, 70
1, 45792, Note_on_c, 1, 48, 70
1, 45815, Note_on_c, 0, 64, 0
1, 45815, Note_on_c, 1, 48, 0
1, 45816, Note_on_c, 0, 67, 70
1, 45816, Note_on_c, 1, 52, 70
1, 45839, Note_on_c, 0, 67, 0
1, 45839, Note_on_c, 1, 52, 0
1, 45840, Note_on_c, 0, 65, 70
1, 45840, Note_on_c, 1, 50, 70
1, 45863, Note_on_c, 0, 65, 0
1, 45863, Note_on_c, 1, 50, 0
1, 45864, Note_on_c, 0, 69, 70
1, 45864, Note_on_c, 1, 53, 70
1, 45887, Note_on_c, 0, 69, 0
1, 45887, Note_on_c, 1, 53, 0
1, 45888, Note_on_c, 0, 67, 70
1, 45888, Note_on_c, 1, 52, 70
1, 45911, Note_on_c, 0, 67, 0
1, 45911, Note_on_c, 1, 52, 0
1, 45912, Note_on_c, 0, 70, 70
1, 45912, Note_on_c, 1, 55, 70
1, 45935, Note_on_c, 0, 70, 0
1, 45935, Note_on_c, 1, 55, 0
1, 45936, Note_on_c, 0, 69, 70
1, 45936, Note_on_c, 1, 53, 70
1, 45959, Note_on_c, 0, 69, 0
1, 45959, Note_on_c, 1, 53, 0
1, 45960, Note_on_c, 0, 72, 70
1, 45960, Note_on_c, 1, 57, 70
1, 45983, Note_on_c, 0, 72, 0
1, 45983, Note_on_c, 1, 57, 0
1, 45984, Note_on_c, 0, 70, 70
1, 45984, Note_on_c, 1, 55, 70
1, 46007, Note_on_c, 0, 70, 0
1, 46007, Note_on_c, 1, 55, 0
1, 46008, Note_on_c, 0, 74, 70
1, 46008, Note_on_c, 1, 58, 70
1, 46031, Note_on_c, 0, 74, 0
1, 46031, Note_on_c, 1, 58, 0
1, 46032, Note_on_c, 0, 67, 70
1, 46032, Note_on_c, 1, 52, 70
1, 46055, Note_on_c, 0, 67, 0
1, 46055, Note_on_c, 1, 52, 0
1, 46056, Note_on_c, 0, 70, 70
1, 46056, Note_on_c, 1, 55, 70
1, 46079, Note_on_c, 0, 70, 0
1, 46079, Note_on_c, 1, 55, 0
1, 46080, Note_on_c, 0, 69, 70
1, 46080, Note_on_c, 1, 53, 70
1, 46103, Note_on_c, 0, 69, 0
1, 46103, Note_on_c, 1, 53, 0
1, 46104, Note_on_c, 0, 72, 70
1, 46104, Note_on_c, 1, 57, 70
1, 46127, Note_on_c, 0, 72, 0
1, 46127, Note_on_c, 1, 57, 0
1, 46128, Note_on_c, 0, 70, 70
1, 46128, Note_on_c, 1, 55, 70
1, 46151, Note_on_c, 0, 70, 0
1, 46151, Note_on_c, 1, 55, 0
1, 46152, Note_on_c, 0, 74, 70
1, 46152, Note_on_c, 1, 58, 70
1, 46175, Note_on_c, 0, 74, 0
1, 46175, Note_on_c, 1, 58, 0
1, 46176, Note_on_c, 0, 72, 70
1, 46176, Note_on_c, 1, 57, 70
1, 46199, Note_on_c, 0, 72, 0
1, 46199, Note_on_c, 1, 57, 0
1, 46200, Note_on_c, 0, 75, 70
1, 46200, Note_on_c, 1, 60, 70
1, 46223, Note_on_c, 0, 75, 0
1, 46223, Note_on_c, 1, 60, 0
1, 46224, Note_on_c, 0, 74, 70
1, 46224, Note_on_c, 1, 58, 70
1, 46247, Note_on_c, 0, 74, 0
1, 46247, Note_on_c, 1, 58, 0
1, 46248, Note_on_c, 0, 77, 70
1, 46248, Note_on_c, 1, 62, 70
1, 46271, Note_on_c, 0, 77, 0
1, 46271, Note_on_c, 1, 62, 0
1, 46272, Note_on_c, 0, 75, 70
1, 46272, Note_on_c, 1, 60, 70
1, 46295, Note_on_c, 0, 75, 0
1, 46295, Note_on_c, 1, 60, 0
1, 46296, Note_on_c, 0, 79, 67
1, 46296, Note_on_c, 1, 63, 67
1, 46319, Note_on_c, 0, 79, 0
1, 46319, Note_on_c, 1, 63, 0
1, 46320, Note_on_c, 0, 72, 64
1, 46320, Note_on_c, 1, 57, 64
1, 46343, Note_on_c, 0, 72, 0
1, 46343, Note_on_c, 1, 57, 0
1, 46344, Note_on_c, 0, 75, 61
1, 46344, Note_on_c, 1, 60, 61
1, 46367, Note_on_c, 0, 75, 0
1, 46367, Note_on_c, 1, 60, 0
1, 46368, Note_on_c, 0, 74, 58
1, 46368, Note_on_c, 1, 58, 58
1, 46388, Note_on_c, 0, 74, 0
1, 46391, Note_on_c, 1, 58, 0
1, 46392, Note_on_c, 1, 62, 58
1, 46415, Note_on_c, 1, 62, 0
1, 46416, Note_on_c, 0, 67, 58
1, 46416, Note_on_c, 1, 60, 58
1, 46428, Note_on_c, 0, 67, 0
1, 46428, Note_on_c, 0, 66, 58
1, 46439, Note_on_c, 1, 60, 0
1, 46440, Note_on_c, 0, 66, 0
1, 46440, Note_on_c, 0, 64, 58
1, 46440, Note_on_c, 1, 62, 59
1, 46452, Note_on_c, 0, 64, 0
1, 46452, Note_on_c, 0, 66, 58
1, 46463, Note_on_c, 1, 62, 0
1, 46464, Note_on_c, 0, 66, 0
1, 46464, Note_on_c, 0, 67, 59
1, 46464, Note_on_c, 1, 58, 59
1, 46484, Note_on_c, 0, 67, 0
1, 46487, Note_on_c, 1, 58, 0
1, 46488, Note_on_c, 1, 62, 60
1, 46511, Note_on_c, 1, 62, 0
1, 46512, Note_on_c, 0, 70, 60
1, 46512, Note_on_c, 1, 54, 60
1, 46524, Note_on_c, 0, 70, 0
1, 46524, Note_on_c, 0, 69, 60
1, 46535, Note_on_c, 1, 54, 0
1, 46536, Note_on_c, 0, 69, 0
1, 46536, Note_on_c, 0, 67, 60
1, 46536, Note_on_c, 1, 62, 61
1, 46548, Note_on_c, 0, 67, 0
1, 46548, Note_on_c, 0, 69, 60
1, 46559, Note_on_c, 1, 62, 0
1, 46560, Note_on_c, 0, 69, 0
1, 46560, Note_on_c, 0, 70, 61
1, 46560, Note_on_c, 1, 55, 61
1, 46583, Note_on_c, 1, 55, 0
1, 46584, Note_on_c, 1, 62, 62
1, 46605, Note_on_c, 0, 70, 0
1, 46607, Note_on_c, 1, 62, 0
1, 46608, Note_on_c, 0, 74, 62
1, 46608, Note_on_c, 1, 58, 62
1, 46631, Note_on_c, 1, 58, 0
1, 46632, Note_on_c, 1, 62, 63
1, 46653, Note_on_c, 0, 74, 0
1, 46655, Note_on_c, 1, 62, 0
1, 46656, Note_on_c, 0, 72, 63
1, 46656, Note_on_c, 1, 57, 63
1, 46676, Note_on_c, 0, 72, 0
1, 46679, Note_on_c, 1, 57, 0
1, 46680, Note_on_c, 1, 60, 63
1, 46703, Note_on_c, 1, 60, 0
1, 46704, Note_on_c, 0, 65, 63
1, 46704, Note_on_c, 1, 58, 63
1, 46716, Note_on_c, 0, 65, 0
1, 46716, Note_on_c, 0, 64, 63
1, 46727, Note_on_c, 1, 58, 0
1, 46728, Note_on_c, 0, 64, 0
1, 46728, Note_on_c, 0, 62, 63
1, 46728, Note_on_c, 1, 60, 63
1, 46740, Note_on_c, 0, 62, 0
1, 46740, Note_on_c, 0, 64, 64
1, 46751, Note_on_c, 1, 60, 0
1, 46752, Note_on_c, 0, 64, 0
1, 46752, Note_on_c, 0, 65, 64
1, 46752, Note_on_c, 1, 57, 64
1, 46772, Note_on_c, 0, 65, 0
1, 46775, Note_on_c, 1, 57, 0
1, 46776, Note_on_c, 1, 60, 65
1, 46799, Note_on_c, 1, 60, 0
1, 46800, Note_on_c, 0, 69, 65
1, 46800, Note_on_c, 1, 52, 65
1, 46812, Note_on_c, 0, 69, 0
1, 46812, Note_on_c, 0, 67, 66
1, 46823, Note_on_c, 1, 52, 0
1, 46824, Note_on_c, 0, 67, 0
1, 46824, Note_on_c, 0, 65, 66
1, 46824, Note_on_c, 1, 60, 66
1, 46836, Note_on_c, 0, 65, 0
1, 46836, Note_on_c, 0, 67, 66
1, 46847, Note_on_c, 1, 60, 0
1, 46848, Note_on_c, 0, 67, 0
1, 46848, Note_on_c, 0, 69, 67
1, 46848, Note_on_c, 1, 53, 67
1, 46871, Note_on_c, 1, 53, 0
1, 46872, Note_on_c, 1, 60, 67
1, 46893, Note_on_c, 0, 69, 0
1, 46895, Note_on_c, 1, 60, 0
1, 46896, Note_on_c, 0, 72, 68
1, 46896, Note_on_c, 1, 57, 68
1, 46919, Note_on_c, 1, 57, 0
1, 46920, Note_on_c, 1, 60, 69
1, 46941, Note_on_c, 0, 72, 0
1, 46943, Note_on_c, 1, 60, 0
1, 46944, Note_on_c, 0, 70, 70
1, 46944, Note_on_c, 1, 55, 70
1, 46964, Note_on_c, 0, 70, 0
1, 46967, Note_on_c, 1, 55, 0
1, 46968, Note_on_c, 1, 58, 70
1, 46991, Note_on_c, 1, 58, 0
1, 46992, Note_on_c, 0, 78, 70
1, 46992, Note_on_c, 1, 57, 70
1, 47015, Note_on_c, 1, 57, 0
1, 47016, Note_on_c, 1, 60, 70
1, 47037, Note_on_c, 0, 78, 0
1, 47039, Note_on_c, 1, 60, 0
1, 47040, Note_on_c, 0, 79, 70
1, 47040, Note_on_c, 1, 58, 70
1, 47063, Note_on_c, 1, 58, 0
1, 47064, Note_on_c, 1, 62, 70
1, 47085, Note_on_c, 0, 79, 0
1, 47087, Note_on_c, 1, 62, 0
1, 47088, Note_on_c, 0, 77, 70
1, 47088, Note_on_c, 1, 59, 70
1, 47111, Note_on_c, 1, 59, 0
1, 47112, Note_on_c, 1, 62, 70
1, 47133, Note_on_c, 0, 77, 0
1, 47135, Note_on_c, 1, 62, 0
1, 47136, Note_on_c, 0, 76, 70
1, 47136, Note_on_c, 1, 60, 70
1, 47159, Note_on_c, 1, 60, 0
1, 47160, Note_on_c, 1, 64, 70
1, 47181, Note_on_c, 0, 76, 0
1, 47183, Note_on_c, 1, 64, 0
1, 47184, Note_on_c, 0, 71, 70
1, 47184, Note_on_c, 1, 62, 70
1, 47207, Note_on_c, 1, 62, 0
1, 47208, Note_on_c, 1, 65, 70
1, 47229, Note_on_c, 0, 71, 0
1, 47231, Note_on_c, 1, 65, 0
1, 47232, Note_on_c, 0, 72, 70
1, 47232, Note_on_c, 1, 64, 70
1, 47255, Note_on_c, 1, 64, 0
1, 47256, Note_on_c, 1, 67, 70
1, 47279, Note_on_c, 1, 67, 0
1, 47280, Note_on_c, 1, 62, 70
1, 47303, Note_on_c, 1, 62, 0
1, 47304, Note_on_c, 1, 65, 70
1, 47321, Note_on_c, 0, 72, 0
1, 47327, Note_on_c, 1, 65, 0
1, 47328, Note_on_c, 1, 60, 70
1, 47351, Note_on_c, 1, 60, 0
1, 47352, Note_on_c, 1, 64, 70
1, 47375, Note_on_c, 1, 64, 0
1, 47376, Note_on_c, 0, 82, 70
1, 47376, Note_on_c, 1, 62, 70
1, 47399, Note_on_c, 1, 62, 0
1, 47400, Note_on_c, 1, 65, 70
1, 47421, Note_on_c, 0, 82, 0
1, 47423, Note_on_c, 1, 65, 0
1, 47424, Note_on_c, 0, 84, 70
1, 47424, Note_on_c, 1, 64, 70
1, 47434, Note_on_c, 0, 84, 0
1, 47434, Note_on_c, 0, 82, 70
1, 47444, Note_on_c, 0, 82, 0
1, 47444, Note_on_c, 0, 84, 70
1, 47447, Note_on_c, 1, 64, 0
1, 47448, Note_on_c, 1, 67, 70
1, 47454, Note_on_c, 0, 84, 0
1, 47454, Note_on_c, 0, 82, 70
1, 47464, Note_on_c, 0, 82, 0
1, 47464, Note_on_c, 0, 84, 70
1, 47471, Note_on_c, 1, 67, 0
1, 47472, Note_on_c, 1, 60, 70
1, 47474, Note_on_c, 0, 84, 0
1, 47474, Note_on_c, 0, 82, 70
1, 47484, Note_on_c, 0, 82, 0
1, 47484, Note_on_c, 0, 84, 70
1, 47493, Note_on_c, 0, 84, 0
1, 47493, Note_on_c, 0, 82, 70
1, 47495, Note_on_c, 1, 60, 0
1, 47496, Note_on_c, 1, 64, 70
1, 47502, Note_on_c, 0, 82, 0
1, 47502, Note_on_c, 0, 81, 70
1, 47511, Note_on_c, 0, 81, 0
1, 47511, Note_on_c, 0, 82, 70
1, 47519, Note_on_c, 1, 64, 0
1, 47520, Note_on_c, 0, 82, 0
1, 47520, Note_on_c, 0, 81, 70
1, 47520, Note_on_c, 1, 53, 70
1, 47540, Note_on_c, 0, 81, 0
1, 47543, Note_on_c, 1, 53, 0
1, 47544, Note_on_c, 1, 57, 70
1, 47567, Note_on_c, 1, 57, 0
1, 47568, Note_on_c, 0, 76, 70
1, 47568, Note_on_c, 1, 55, 70
1, 47591, Note_on_c, 1, 55, 0
1, 47592, Note_on_c, 1, 58, 70
1, 47615, Note_on_c, 1, 58, 0
1, 47616, Note_on_c, 0, 76, 0
1, 47616, Note_on_c, 0, 77, 70
1, 47616, Note_on_c, 1, 57, 70
1, 47636, Note_on_c, 0, 77, 0
1, 47639, Note_on_c, 1, 57, 0
1, 47640, Note_on_c, 1, 60, 70
1, 47663, Note_on_c, 1, 60, 0
1, 47664, Note_on_c, 0, 77, 86
1, 47664, Note_on_c, 1, 53, 70
1, 47687, Note_on_c, 1, 53, 0
1, 47688, Note_on_c, 1, 57, 70
1, 47711, Note_on_c, 1, 57, 0
1, 47712, Note_on_c, 1, 55, 70
1, 47735, Note_on_c, 1, 55, 0
1, 47736, Note_on_c, 1, 58, 70
1, 47759, Note_on_c, 1, 58, 0
1, 47760, Note_on_c, 0, 77, 0
1, 47760, Note_on_c, 0, 75, 70
1, 47760, Note_on_c, 1, 57, 70
1, 47783, Note_on_c, 1, 57, 0
1, 47784, Note_on_c, 1, 60, 70
1, 47805, Note_on_c, 0, 75, 0
1, 47807, Note_on_c, 1, 60, 0
1, 47808, Note_on_c, 0, 74, 70
1, 47808, Note_on_c, 1, 58, 70
1, 47828, Note_on_c, 0, 74, 0
1, 47831, Note_on_c, 1, 58, 0
1, 47832, Note_on_c, 1, 62, 70
1, 47855, Note_on_c, 1, 62, 0
1, 47856, Note_on_c, 0, 66, 70
1, 47856, Note_on_c, 1, 60, 70
1, 47879, Note_on_c, 1, 60, 0
1, 47880, Note_on_c, 1, 63, 70
1, 47901, Note_on_c, 0, 66, 0
1, 47903, Note_on_c, 1, 63, 0
1, 47904, Note_on_c, 0, 67, 70
1, 47904, Note_on_c, 1, 58, 70
1, 47927, Note_on_c, 1, 58, 0
1, 47928, Note_on_c, 1, 62, 70
1, 47949, Note_on_c, 0, 67, 0
1, 47951, Note_on_c, 1, 62, 0
1, 47952, Note_on_c, 0, 69, 70
1, 47952, Note_on_c, 1, 57, 70
1, 47975, Note_on_c, 1, 57, 0
1, 47976, Note_on_c, 1, 60, 70
1, 47997, Note_on_c, 0, 69, 0
1, 47999, Note_on_c, 1, 60, 0
1, 48000, Note_on_c, 0, 70, 70
1, 48000, Note_on_c, 1, 55, 70
1, 48020, Note_on_c, 0, 70, 0
1, 48023, Note_on_c, 1, 55, 0
1, 48024, Note_on_c, 1, 58, 70
1, 48047, Note_on_c, 1, 58, 0
1, 48048, Note_on_c, 0, 70, 70
1, 48048, Note_on_c, 1, 53, 70
1, 48071, Note_on_c, 1, 53, 0
1, 48072, Note_on_c, 1, 57, 70
1, 48093, Note_on_c, 0, 70, 0
1, 48095, Note_on_c, 1, 57, 0
1, 48096, Note_on_c, 0, 69, 58
1, 48096, Note_on_c, 1, 52, 58
1, 48106, Note_on_c, 0, 69, 0
1, 48106, Note_on_c, 0, 70, 58
1, 48116, Note_on_c, 0, 70, 0
1, 48116, Note_on_c, 0, 72, 58
1, 48119, Note_on_c, 1, 52, 0
1, 48120, Note_on_c, 1, 55, 59
1, 48126, Note_on_c, 0, 72, 0
1, 48126, Note_on_c, 0, 70, 58
1, 48136, Note_on_c, 0, 70, 0
1, 48136, Note_on_c, 0, 72, 59
1, 48143, Note_on_c, 1, 55, 0
1, 48144, Note_on_c, 1, 50, 60
1, 48146, Note_on_c, 0, 72, 0
1, 48146, Note_on_c, 0, 70, 59
1, 48156, Note_on_c, 0, 70, 0
1, 48156, Note_on_c, 0, 72, 59
1, 48166, Note_on_c, 0, 72, 0
1, 48166, Note_on_c, 0, 70, 59
1, 48167, Note_on_c, 1, 50, 0
1, 48168, Note_on_c, 1, 53, 61
1, 48176, Note_on_c, 0, 70, 0
1, 48176, Note_on_c, 0, 72, 60
1, 48186, Note_on_c, 0, 72, 0
1, 48186, Note_on_c, 0, 70, 60
1, 48191, Note_on_c, 1, 53, 0
1, 48192, Note_on_c, 1, 48, 62
1, 48196, Note_on_c, 0, 70, 0
1, 48196, Note_on_c, 0, 72, 60
1, 48206, Note_on_c, 0, 72, 0
1, 48206, Note_on_c, 0, 70, 60
1, 48215, Note_on_c, 1, 48, 0
1, 48216, Note_on_c, 0, 70, 0
1, 48216, Note_on_c, 0, 72, 61
1, 48216, Note_on_c, 1, 52, 63
1, 48226, Note_on_c, 0, 72, 0
1, 48226, Note_on_c, 0, 70, 61
1, 48236, Note_on_c, 0, 70, 0
1, 48236, Note_on_c, 0, 72, 61
1, 48239, Note_on_c, 1, 52, 0
1, 48240, Note_on_c, 1, 50, 64
1, 48246, Note_on_c, 0, 72, 0
1, 48246, Note_on_c, 0, 70, 61
1, 48256, Note_on_c, 0, 70, 0
1, 48256, Note_on_c, 0, 72, 62
1, 48263, Note_on_c, 1, 50, 0
1, 48264, Note_on_c, 1, 53, 65
1, 48266, Note_on_c, 0, 72, 0
1, 48266, Note_on_c, 0, 70, 62
1, 48276, Note_on_c, 0, 70, 0
1, 48276, Note_on_c, 0, 72, 62
1, 48285, Note_on_c, 0, 72, 0
1, 48285, Note_on_c, 0, 70, 62
1, 48287, Note_on_c, 1, 53, 0
1, 48288, Note_on_c, 1, 52, 66
1, 48294, Note_on_c, 0, 70, 0
1, 48294, Note_on_c, 0, 72, 63
1, 48303, Note_on_c, 0, 72, 0
1, 48303, Note_on_c, 0, 70, 63
1, 48311, Note_on_c, 1, 52, 0
1, 48312, Note_on_c, 0, 70, 0
1, 48312, Note_on_c, 0, 72, 63
1, 48312, Note_on_c, 1, 55, 67
1, 48321, Note_on_c, 0, 72, 0
1, 48321, Note_on_c, 0, 70, 63
1, 48330, Note_on_c, 0, 70, 0
1, 48330, Note_on_c, 0, 72, 64
1, 48335, Note_on_c, 1, 55, 0
1, 48336, Note_on_c, 1, 48, 68
1, 48339, Note_on_c, 0, 72, 0
1, 48339, Note_on_c, 0, 70, 64
1, 48348, Note_on_c, 0, 70, 0
1, 48348, Note_on_c, 0, 69, 64
1, 48359, Note_on_c, 1, 48, 0
1, 48360, Note_on_c, 1, 52, 69
1, 48366, Note_on_c, 0, 69, 0
1, 48366, Note_on_c, 0, 70, 65
1, 48383, Note_on_c, 1, 52, 0
1, 48384, Note_on_c, 0, 70, 0
1, 48384, Note_on_c, 0, 69, 70
1, 48384, Note_on_c, 1, 53, 70
1, 48407, Note_on_c, 0, 69, 0
1, 48408, Note_on_c, 0, 72, 70
1, 48429, Note_on_c, 1, 53, 0
1, 48431, Note_on_c, 0, 72, 0
1, 48432, Note_on_c, 0, 67, 70
1, 48432, Note_on_c, 1, 55, 70
1, 48455, Note_on_c, 0, 67, 0
1, 48456, Note_on_c, 0, 70, 70
1, 48477, Note_on_c, 1, 55, 0
1, 48479, Note_on_c, 0, 70, 0
1, 48480, Note_on_c, 0, 65, 70
1, 48480, Note_on_c, 1, 57, 70
1, 48503, Note_on_c, 0, 65, 0
1, 48504, Note_on_c, 0, 69, 70
1, 48525, Note_on_c, 1, 57, 0
1, 48527, Note_on_c, 0, 69, 0
1, 48528, Note_on_c, 0, 64, 70
1, 48528, Note_on_c, 1, 58, 70
1, 48551, Note_on_c, 0, 64, 0
1, 48552, Note_on_c, 0, 67, 70
1, 48573, Note_on_c, 1, 58, 0
1, 48575, Note_on_c, 0, 67, 0
1, 48576, Note_on_c, 0, 65, 70
1, 48576, Note_on_c, 1, 57, 70
1, 48599, Note_on_c, 0, 65, 0
1, 48600, Note_on_c, 0, 69, 70
1, 48621, Note_on_c, 1, 57, 0
1, 48623, Note_on_c, 0, 69, 0
1, 48624, Note_on_c, 0, 60, 70
1, 48624, Note_on_c, 1, 45, 70
1, 48647, Note_on_c, 0, 60, 0
1, 48648, Note_on_c, 0, 63, 70
1, 48669, Note_on_c, 1, 45, 0
1, 48671, Note_on_c, 0, 63, 0
1, 48672, Note_on_c, 0, 62, 70
1, 48672, Note_on_c, 1, 46, 70
1, 48696, Note_on_c, 0, 62, 0
1, 48696, Note_on_c, 0, 74, 69
1, 48719, Note_on_c, 0, 74, 0
1, 48720, Note_on_c, 0, 70, 68
1, 48730, Note_on_c, 0, 70, 0
1, 48744, Note_on_c, 0, 67, 68
1, 48754, Note_on_c, 0, 67, 0
1, 48768, Note_on_c, 0, 60, 67
1, 48768, Note_on_c, 1, 46, 0
1, 48768, Note_on_c, 1, 48, 67
1, 48792, Note_on_c, 0, 60, 0
1, 48792, Note_on_c, 0, 72, 67
1, 48815, Note_on_c, 0, 72, 0
1, 48816, Note_on_c, 0, 69, 66
1, 48826, Note_on_c, 0, 69, 0
1, 48840, Note_on_c, 0, 65, 65
1, 48850, Note_on_c, 0, 65, 0
1, 48857, Note_on_c, 1, 48, 0
1, 48864, Note_on_c, 0, 60, 65
1, 48864, Note_on_c, 1, 36, 65
1, 48888, Note_on_c, 0, 60, 0
1, 48888, Note_on_c, 0, 70, 64
1, 48911, Note_on_c, 0, 70, 0
1, 48912, Note_on_c, 0, 67, 64
1, 48922, Note_on_c, 0, 67, 0
1, 48936, Note_on_c, 0, 64, 63
1, 48946, Note_on_c, 0, 64, 0
1, 48953, Note_on_c, 1, 36, 0
1, 48960, Note_on_c, 0, 77, 70
1, 48960, Note_on_c, 1, 41, 70
1, 48970, Note_on_c, 0, 77, 0
1, 48970, Note_on_c, 1, 41, 0
1, 48984, Note_on_c, 0, 69, 70
1, 48984, Note_on_c, 1, 53, 70
1, 49007, Note_on_c, 0, 69, 0
1, 49007, Note_on_c, 1, 53, 0
1, 49008, Note_on_c, 0, 67, 70
1, 49008, Note_on_c, 1, 52, 70
1, 49031, Note_on_c, 0, 67, 0
1, 49031, Note_on_c, 1, 52, 0
1, 49032, Note_on_c, 0, 69, 70
1, 49032, Note_on_c, 1, 53, 70
1, 49055, Note_on_c, 0, 69, 0
1, 49055, Note_on_c, 1, 53, 0
1, 49056, Note_on_c, 0, 77, 70
1, 49056, Note_on_c, 1, 43, 70
1, 49066, Note_on_c, 0, 77, 0
1, 49066, Note_on_c, 1, 43, 0
1, 49080, Note_on_c, 0, 70, 70
1, 49080, Note_on_c, 1, 55, 70
1, 49103, Note_on_c, 0, 70, 0
1, 49103, Note_on_c, 1, 55, 0
1, 49104, Note_on_c, 0, 69, 70
1, 49104, Note_on_c, 1, 53, 70
1, 49127, Note_on_c, 0, 69, 0
1, 49127, Note_on_c, 1, 53, 0
1, 49128, Note_on_c, 0, 70, 70
1, 49128, Note_on_c, 1, 55, 70
1, 49151, Note_on_c, 0, 70, 0
1, 49151, Note_on_c, 1, 55, 0
1, 49152, Note_on_c, 0, 77, 70
1, 49152, Note_on_c, 1, 45, 70
1, 49162, Note_on_c, 0, 77, 0
1, 49162, Note_on_c, 1, 45, 0
1, 49176, Note_on_c, 0, 72, 70
1, 49176, Note_on_c, 1, 57, 70
1, 49199, Note_on_c, 0, 72, 0
1, 49199, Note_on_c, 1, 57, 0
1, 49200, Note_on_c, 0, 70, 70
1, 49200, Note_on_c, 1, 55, 70
1, 49223, Note_on_c, 0, 70, 0
1, 49223, Note_on_c, 1, 55, 0
1, 49224, Note_on_c, 0, 72, 70
1, 49224, Note_on_c, 1, 57, 70
1, 49247, Note_on_c, 0, 72, 0
1, 49247, Note_on_c, 1, 57, 0
1, 49248, Note_on_c, 0, 75, 86
1, 49248, Note_on_c, 1, 46, 70
1, 49258, Note_on_c, 1, 46, 0
1, 49272, Note_on_c, 0, 75, 0
1, 49272, Note_on_c, 0, 74, 69
1, 49272, Note_on_c, 1, 58, 69
1, 49295, Note_on_c, 0, 74, 0
1, 49295, Note_on_c, 1, 58, 0
1, 49296, Note_on_c, 0, 72, 68
1, 49296, Note_on_c, 1, 57, 68
1, 49306, Note_on_c, 0, 72, 0
1, 49319, Note_on_c, 1, 57, 0
1, 49320, Note_on_c, 0, 70, 68
1, 49320, Note_on_c, 1, 58, 68
1, 49330, Note_on_c, 0, 70, 0
1, 49343, Note_on_c, 1, 58, 0
1, 49344, Note_on_c, 0, 69, 67
1, 49344, Note_on_c, 0, 65, 67
1, 49344, Note_on_c, 1, 48, 67
1, 49354, Note_on_c, 1, 48, 0
1, 49368, Note_on_c, 1, 60, 67
1, 49391, Note_on_c, 1, 60, 0
1, 49392, Note_on_c, 1, 59, 66
1, 49415, Note_on_c, 1, 59, 0
1, 49416, Note_on_c, 1, 60, 65
1, 49433, Note_on_c, 0, 69, 0
1, 49433, Note_on_c, 0, 65, 0
1, 49439, Note_on_c, 1, 60, 0
1, 49440, Note_on_c, 0, 69, 65
1, 49440, Note_on_c, 0, 64, 75
1, 49440, Note_on_c, 1, 48, 65
1, 49450, Note_on_c, 0, 69, 0
1, 49450, Note_on_c, 0, 67, 65
1, 49450, Note_on_c, 1, 48, 0
1, 49460, Note_on_c, 0, 67, 0
1, 49460, Note_on_c, 0, 69, 65
1, 49464, Note_on_c, 1, 60, 64
1, 49470, Note_on_c, 0, 69, 0
1, 49470, Note_on_c, 0, 67, 64
1, 49480, Note_on_c, 0, 67, 0
1, 49480, Note_on_c, 0, 69, 64
1, 49487, Note_on_c, 1, 60, 0
1, 49488, Note_on_c, 1, 59, 64
1, 49490, Note_on_c, 0, 69, 0
1, 49490, Note_on_c, 0, 67, 64
1, 49500, Note_on_c, 0, 67, 0
1, 49500, Note_on_c, 0, 69, 64
1, 49509, Note_on_c, 0, 69, 0
1, 49509, Note_on_c, 0, 67, 64
1, 49511, Note_on_c, 1, 59, 0
1, 49512, Note_on_c, 1, 60, 63
1, 49518, Note_on_c, 0, 67, 0
1, 49518, Note_on_c, 0, 65, 64
1, 49527, Note_on_c, 0, 65, 0
1, 49527, Note_on_c, 0, 67, 64
1, 49529, Note_on_c, 0, 64, 0
1, 49535, Note_on_c, 1, 60, 0
1, 49536, Note_on_c, 0, 67, 0
1, 49536, Note_on_c, 1, 53, 70
1, 49560, Note_on_c, 0, 69, 70
1, 49560, Note_on_c, 0, 65, 70
1, 49575, Note_on_c, 1, 53, 0
1, 49583, Note_on_c, 0, 69, 0
1, 49583, Note_on_c, 0, 65, 0
1, 49584, Note_on_c, 0, 67, 70
1, 49584, Note_on_c, 0, 64, 70
1, 49607, Note_on_c, 0, 67, 0
1, 49607, Note_on_c, 0, 64, 0
1, 49608, Note_on_c, 0, 69, 70
1, 49608, Note_on_c, 0, 65, 70
1, 49631, Note_on_c, 0, 69, 0
1, 49631, Note_on_c, 0, 65, 0
1, 49632, Note_on_c, 1, 53, 70
1, 49632, Note_on_c, 1, 41, 70
1, 49656, Note_on_c, 0, 70, 70
1, 49656, Note_on_c, 0, 67, 70
1, 49679, Note_on_c, 0, 70, 0
1, 49679, Note_on_c, 0, 67, 0
1, 49680, Note_on_c, 0, 69, 70
1, 49680, Note_on_c, 0, 65, 70
1, 49703, Note_on_c, 0, 69, 0
1, 49703, Note_on_c, 0, 65, 0
1, 49704, Note_on_c, 0, 70, 70
1, 49704, Note_on_c, 0, 67, 70
1, 49726, Note_on_c, 1, 53, 0
1, 49726, Note_on_c, 1, 41, 0
1, 49727, Note_on_c, 0, 70, 0
1, 49727, Note_on_c, 0, 67, 0
1, 49728, Note_on_c, 1, 53, 70
1, 49728, Note_on_c, 1, 41, 70
1, 49752, Note_on_c, 0, 72, 70
1, 49752, Note_on_c, 0, 69, 70
1, 49775, Note_on_c, 0, 72, 0
1, 49775, Note_on_c, 0, 69, 0
1, 49776, Note_on_c, 0, 70, 70
1, 49776, Note_on_c, 0, 67, 70
1, 49799, Note_on_c, 0, 70, 0
1, 49799, Note_on_c, 0, 67, 0
1, 49800, Note_on_c, 0, 72, 70
1, 49800, Note_on_c, 0, 69, 70
1, 49822, Note_on_c, 1, 53, 0
1, 49822, Note_on_c, 1, 41, 0
1, 49823, Note_on_c, 0, 72, 0
1, 49823, Note_on_c, 0, 69, 0
1, 49824, Note_on_c, 1, 53, 70
1, 49824, Note_on_c, 1, 41, 70
1, 49848, Note_on_c, 0, 74, 70
1, 49848, Note_on_c, 0, 70, 70
1, 49871, Note_on_c, 0, 74, 0
1, 49871, Note_on_c, 0, 70, 0
1, 49872, Note_on_c, 0, 72, 70
1, 49872, Note_on_c, 0, 69, 70
1, 49895, Note_on_c, 0, 72, 0
1, 49895, Note_on_c, 0, 69, 0
1, 49896, Note_on_c, 0, 74, 70
1, 49896, Note_on_c, 0, 70, 70
1, 49918, Note_on_c, 1, 53, 0
1, 49918, Note_on_c, 1, 41, 0
1, 49919, Note_on_c, 0, 74, 0
1, 49919, Note_on_c, 0, 70, 0
1, 49920, Note_on_c, 1, 53, 70
1, 49920, Note_on_c, 1, 41, 70
1, 49944, Note_on_c, 0, 75, 70
1, 49944, Note_on_c, 0, 72, 70
1, 49967, Note_on_c, 0, 75, 0
1, 49967, Note_on_c, 0, 72, 0
1, 49968, Note_on_c, 0, 74, 70
1, 49968, Note_on_c, 0, 70, 70
1, 49991, Note_on_c, 0, 74, 0
1, 49991, Note_on_c, 0, 70, 0
1, 49992, Note_on_c, 0, 75, 70
1, 49992, Note_on_c, 0, 72, 70
1, 50014, Note_on_c, 1, 53, 0
1, 50014, Note_on_c, 1, 41, 0
1, 50015, Note_on_c, 0, 75, 0
1, 50015, Note_on_c, 0, 72, 0
1, 50016, Note_on_c, 1, 53, 71
1, 50016, Note_on_c, 1, 41, 71
1, 50040, Note_on_c, 0, 79, 71
1, 50040, Note_on_c, 0, 75, 71
1, 50063, Note_on_c, 0, 79, 0
1, 50063, Note_on_c, 0, 75, 0
1, 50064, Note_on_c, 0, 77, 71
1, 50064, Note_on_c, 0, 74, 71
1, 50087, Note_on_c, 0, 77, 0
1, 50087, Note_on_c, 0, 74, 0
1, 50088, Note_on_c, 0, 75, 71
1, 50088, Note_on_c, 0, 72, 71
1, 50110, Note_on_c, 1, 53, 0
1, 50110, Note_on_c, 1, 41, 0
1, 50111, Note_on_c, 0, 75, 0
1, 50111, Note_on_c, 0, 72, 0
1, 50112, Note_on_c, 0, 74, 71
1, 50112, Note_on_c, 0, 70, 71
1, 50136, Note_on_c, 1, 65, 71
1, 50136, Note_on_c, 1, 62, 71
1, 50159, Note_on_c, 1, 65, 0
1, 50159, Note_on_c, 1, 62, 0
1, 50160, Note_on_c, 1, 63, 71
1, 50160, Note_on_c, 1, 60, 71
1, 50183, Note_on_c, 1, 63, 0
1, 50183, Note_on_c, 1, 60, 0
1, 50184, Note_on_c, 1, 65, 72
1, 50184, Note_on_c, 1, 62, 72
1, 50201, Note_on_c, 0, 74, 0
1, 50201, Note_on_c, 0, 70, 0
1, 50207, Note_on_c, 1, 65, 0
1, 50207, Note_on_c, 1, 62, 0
1, 50208, Note_on_c, 0, 82, 72
1, 50208, Note_on_c, 0, 74, 72
1, 50232, Note_on_c, 1, 62, 72
1, 50232, Note_on_c, 1, 58, 72
1, 50247, Note_on_c, 0, 82, 0
1, 50247, Note_on_c, 0, 74, 0
1, 50255, Note_on_c, 1, 62, 0
1, 50255, Note_on_c, 1, 58, 0
1, 50256, Note_on_c, 1, 60, 72
1, 50256, Note_on_c, 1, 57, 72
1, 50279, Note_on_c, 1, 60, 0
1, 50279, Note_on_c, 1, 57, 0
1, 50280, Note_on_c, 1, 62, 72
1, 50280, Note_on_c, 1, 58, 72
1, 50303, Note_on_c, 1, 62, 0
1, 50303, Note_on_c, 1, 58, 0
1, 50304, Note_on_c, 0, 86, 72
1, 50304, Note_on_c, 0, 82, 72
1, 50328, Note_on_c, 1, 58, 72
1, 50328, Note_on_c, 1, 55, 72
1, 50343, Note_on_c, 0, 86, 0
1, 50343, Note_on_c, 0, 82, 0
1, 50351, Note_on_c, 1, 58, 0
1, 50351, Note_on_c, 1, 55, 0
1, 50352, Note_on_c, 1, 57, 73
1, 50352, Note_on_c, 1, 53, 73
1, 50375, Note_on_c, 1, 57, 0
1, 50375, Note_on_c, 1, 53, 0
1, 50376, Note_on_c, 1, 58, 73
1, 50376, Note_on_c, 1, 55, 73
1, 50399, Note_on_c, 1, 58, 0
1, 50399, Note_on_c, 1, 55, 0
1, 50400, Note_on_c, 1, 55, 73
1, 50400, Note_on_c, 1, 52, 73
1, 50424, Note_on_c, 0, 86, 73
1, 50424, Note_on_c, 0, 82, 73
1, 50447, Note_on_c, 0, 86, 0
1, 50447, Note_on_c, 0, 82, 0
1, 50448, Note_on_c, 0, 84, 73
1, 50448, Note_on_c, 0, 81, 73
1, 50471, Note_on_c, 0, 84, 0
1, 50471, Note_on_c, 0, 81, 0
1, 50472, Note_on_c, 0, 82, 73
1, 50472, Note_on_c, 0, 79, 73
1, 50495, Note_on_c, 0, 82, 0
1, 50495, Note_on_c, 0, 79, 0
1, 50496, Note_on_c, 1, 55, 0
1, 50496, Note_on_c, 1, 52, 0
1, 50496, Note_on_c, 1, 60, 73
1, 50520, Note_on_c, 0, 82, 74
1, 50520, Note_on_c, 0, 79, 74
1, 50543, Note_on_c, 0, 82, 0
1, 50543, Note_on_c, 0, 79, 0
1, 50544, Note_on_c, 0, 81, 74
1, 50544, Note_on_c, 0, 77, 74
1, 50567, Note_on_c, 0, 81, 0
1, 50567, Note_on_c, 0, 77, 0
1, 50568, Note_on_c, 0, 79, 74
1, 50568, Note_on_c, 0, 76, 74
1, 50585, Note_on_c, 1, 60, 0
1, 50591, Note_on_c, 0, 79, 0
1, 50591, Note_on_c, 0, 76, 0
1, 50592, Note_on_c, 1, 53, 74
1, 50616, Note_on_c, 0, 81, 74
1, 50616, Note_on_c, 0, 77, 74
1, 50639, Note_on_c, 0, 81, 0
1, 50639, Note_on_c, 0, 77, 0
1, 50640, Note_on_c, 0, 79, 74
1, 50640, Note_on_c, 0, 76, 74
1, 50663, Note_on_c, 0, 79, 0
1, 50663, Note_on_c, 0, 76, 0
1, 50664, Note_on_c, 0, 81, 74
1, 50664, Note_on_c, 0, 77, 74
1, 50681, Note_on_c, 1, 53, 0
1, 50687, Note_on_c, 0, 81, 0
1, 50687, Note_on_c, 0, 77, 0
1, 50688, Note_on_c, 1, 58, 75
1, 50712, Note_on_c, 0, 74, 74
1, 50712, Note_on_c, 0, 70, 74
1, 50735, Note_on_c, 0, 74, 0
1, 50735, Note_on_c, 0, 70, 0
1, 50736, Note_on_c, 0, 72, 74
1, 50736, Note_on_c, 0, 69, 74
1, 50759, Note_on_c, 0, 72, 0
1, 50759, Note_on_c, 0, 69, 0
1, 50760, Note_on_c, 0, 70, 73
1, 50760, Note_on_c, 0, 67, 73
1, 50777, Note_on_c, 1, 58, 0
1, 50783, Note_on_c, 0, 70, 0
1, 50783, Note_on_c, 0, 67, 0
1, 50784, Note_on_c, 0, 70, 73
1, 50784, Note_on_c, 0, 67, 73
1, 50784, Note_on_c, 1, 60, 73
1, 50808, Note_on_c, 0, 70, 0
1, 50808, Note_on_c, 0, 67, 0
1, 50808, Note_on_c, 0, 69, 72
1, 50808, Note_on_c, 0, 65, 72
1, 50831, Note_on_c, 0, 69, 0
1, 50831, Note_on_c, 0, 65, 0
1, 50832, Note_on_c, 0, 72, 72
1, 50832, Note_on_c, 0, 69, 72
1, 50842, Note_on_c, 0, 72, 0
1, 50842, Note_on_c, 0, 69, 0
1, 50856, Note_on_c, 0, 69, 72
1, 50856, Note_on_c, 0, 65, 72
1, 50866, Note_on_c, 0, 69, 0
1, 50866, Note_on_c, 0, 65, 0
1, 50873, Note_on_c, 1, 60, 0
1, 50880, Note_on_c, 0, 69, 71
1, 50880, Note_on_c, 0, 65, 71
1, 50880, Note_on_c, 1, 48, 71
1, 50904, Note_on_c, 0, 69, 0
1, 50904, Note_on_c, 0, 65, 0
1, 50904, Note_on_c, 0, 67, 71
1, 50904, Note_on_c, 0, 64, 71
1, 50927, Note_on_c, 0, 67, 0
1, 50927, Note_on_c, 0, 64, 0
1, 50928, Note_on_c, 0, 70, 70
1, 50928, Note_on_c, 0, 67, 70
1, 50938, Note_on_c, 0, 70, 0
1, 50938, Note_on_c, 0, 67, 0
1, 50952, Note_on_c, 0, 67, 70
1, 50952, Note_on_c, 0, 64, 70
1, 50962, Note_on_c, 0, 67, 0
1, 50962, Note_on_c, 0, 64, 0
1, 50969, Note_on_c, 1, 48, 0
1, 50976, Note_on_c, 1, 53, 70
1, 51000, Note_on_c, 0, 81, 75
1, 51000, Note_on_c, 0, 69, 75
1, 51023, Note_on_c, 0, 81, 0
1, 51023, Note_on_c, 0, 69, 0
1, 51024, Note_on_c, 0, 79, 75
1, 51024, Note_on_c, 0, 67, 75
1, 51047, Note_on_c, 0, 79, 0
1, 51047, Note_on_c, 0, 67, 0
1, 51048, Note_on_c, 0, 77, 75
1, 51048, Note_on_c, 0, 65, 75
1, 51065, Note_on_c, 1, 53, 0
1, 51071, Note_on_c, 0, 77, 0
1, 51071, Note_on_c, 0, 65, 0
1, 51072, Note_on_c, 0, 76, 75
1, 51072, Note_on_c, 0, 64, 75
1, 51095, Note_on_c, 0, 76, 0
1, 51095, Note_on_c, 0, 64, 0
1, 51096, Note_on_c, 0, 74, 75
1, 51096, Note_on_c, 0, 62, 75
1, 51119, Note_on_c, 0, 74, 0
1, 51119, Note_on_c, 0, 62, 0
1, 51120, Note_on_c, 0, 72, 75
1, 51120, Note_on_c, 0, 60, 75
1, 51143, Note_on_c, 0, 72, 0
1, 51143, Note_on_c, 0, 60, 0
1, 51144, Note_on_c, 0, 71, 75
1, 51144, Note_on_c, 0, 59, 75
1, 51167, Note_on_c, 0, 71, 0
1, 51167, Note_on_c, 0, 59, 0
1, 51168, Note_on_c, 0, 72, 75
1, 51168, Note_on_c, 0, 60, 75
1, 51216, Note_on_c, 1, 57, 75
1, 51216, Note_on_c, 1, 53, 75
1, 51257, Note_on_c, 0, 72, 0
1, 51257, Note_on_c, 0, 60, 0
1, 51261, Note_on_c, 1, 57, 0
1, 51261, Note_on_c, 1, 53, 0
1, 51264, Note_on_c, 1, 58, 75
1, 51264, Note_on_c, 1, 55, 75
1, 51264, Note_on_c, 1, 52, 75
1, 51288, Note_on_c, 0, 82, 75
1, 51288, Note_on_c, 0, 70, 75
1, 51311, Note_on_c, 0, 82, 0
1, 51311, Note_on_c, 0, 70, 0
1, 51312, Note_on_c, 0, 82, 75
1, 51312, Note_on_c, 0, 70, 75
1, 51335, Note_on_c, 0, 82, 0
1, 51335, Note_on_c, 0, 70, 0
1, 51336, Note_on_c, 0, 81, 75
1, 51336, Note_on_c, 0, 69, 75
1, 51353, Note_on_c, 1, 58, 0
1, 51353, Note_on_c, 1, 55, 0
1, 51353, Note_on_c, 1, 52, 0
1, 51359, Note_on_c, 0, 81, 0
1, 51359, Note_on_c, 0, 69, 0
1, 51360, Note_on_c, 0, 79, 75
1, 51360, Note_on_c, 0, 67, 75
1, 51383, Note_on_c, 0, 79, 0
1, 51383, Note_on_c, 0, 67, 0
1, 51384, Note_on_c, 0, 77, 75
1, 51384, Note_on_c, 0, 65, 75
1, 51407, Note_on_c, 0, 77, 0
1, 51407, Note_on_c, 0, 65, 0
1, 51408, Note_on_c, 0, 76, 75
1, 51408, Note_on_c, 0, 64, 75
1, 51431, Note_on_c, 0, 76, 0
1, 51431, Note_on_c, 0, 64, 0
1, 51432, Note_on_c, 0, 74, 75
1, 51432, Note_on_c, 0, 62, 75
1, 51455, Note_on_c, 0, 74, 0
1, 51455, Note_on_c, 0, 62, 0
1, 51456, Note_on_c, 0, 72, 75
1, 51456, Note_on_c, 0, 60, 75
1, 51504, Note_on_c, 1, 58, 75
1, 51504, Note_on_c, 1, 55, 75
1, 51504, Note_on_c, 1, 52, 75
1, 51545, Note_on_c, 0, 72, 0
1, 51545, Note_on_c, 0, 60, 0
1, 51549, Note_on_c, 1, 58, 0
1, 51549, Note_on_c, 1, 55, 0
1, 51549, Note_on_c, 1, 52, 0
1, 51552, Note_on_c, 1, 57, 75
1, 51552, Note_on_c, 1, 53, 75
1, 51576, Note_on_c, 0, 81, 63
1, 51576, Note_on_c, 0, 69, 63
1, 51599, Note_on_c, 0, 81, 0
1, 51599, Note_on_c, 0, 69, 0
1, 51600, Note_on_c, 0, 79, 63
1, 51600, Note_on_c, 0, 67, 63
1, 51623, Note_on_c, 0, 79, 0
1, 51623, Note_on_c, 0, 67, 0
1, 51624, Note_on_c, 0, 77, 63
1, 51624, Note_on_c, 0, 65, 63
1, 51641, Note_on_c, 1, 57, 0
1, 51641, Note_on_c, 1, 53, 0
1, 51647, Note_on_c, 0, 77, 0
1, 51647, Note_on_c, 0, 65, 0
1, 51648, Note_on_c, 0, 76, 63
1, 51648, Note_on_c, 0, 64, 63
1, 51671, Note_on_c, 0, 76, 0
1, 51671, Note_on_c, 0, 64, 0
1, 51672, Note_on_c, 0, 74, 63
1, 51672, Note_on_c, 0, 62, 63
1, 51695, Note_on_c, 0, 74, 0
1, 51695, Note_on_c, 0, 62, 0
1, 51696, Note_on_c, 0, 72, 63
1, 51696, Note_on_c, 0, 60, 63
1, 51719, Note_on_c, 0, 72, 0
1, 51719, Note_on_c, 0, 60, 0
1, 51720, Note_on_c, 0, 71, 63
1, 51720, Note_on_c, 0, 59, 63
1, 51743, Note_on_c, 0, 71, 0
1, 51743, Note_on_c, 0, 59, 0
1, 51744, Note_on_c, 0, 72, 63
1, 51744, Note_on_c, 0, 60, 63
1, 51792, Note_on_c, 1, 57, 58
1, 51792, Note_on_c, 1, 53, 58
1, 51833, Note_on_c, 0, 72, 0
1, 51833, Note_on_c, 0, 60, 0
1, 51837, Note_on_c, 1, 57, 0
1, 51837, Note_on_c, 1, 53, 0
1, 51840, Note_on_c, 1, 58, 58
1, 51840, Note_on_c, 1, 55, 58
1, 51840, Note_on_c, 1, 52, 58
1, 51864, Note_on_c, 0, 82, 63
1, 51864, Note_on_c, 0, 70, 63
1, 51887, Note_on_c, 0, 82, 0
1, 51887, Note_on_c, 0, 70, 0
1, 51888, Note_on_c, 0, 82, 63
1, 51888, Note_on_c, 0, 70, 63
1, 51911, Note_on_c, 0, 82, 0
1, 51911, Note_on_c, 0, 70, 0
1, 51912, Note_on_c, 0, 81, 63
1, 51912, Note_on_c, 0, 69, 63
1, 51929, Note_on_c, 1, 58, 0
1, 51929, Note_on_c, 1, 55, 0
1, 51929, Note_on_c, 1, 52, 0
1, 51935, Note_on_c, 0, 81, 0
1, 51935, Note_on_c, 0, 69, 0
1, 51936, Note_on_c, 0, 79, 63
1, 51936, Note_on_c, 0, 67, 63
1, 51959, Note_on_c, 0, 79, 0
1, 51959, Note_on_c, 0, 67, 0
1, 51960, Note_on_c, 0, 77, 63
1, 51960, Note_on_c, 0, 65, 63
1, 51983, Note_on_c, 0, 77, 0
1, 51983, Note_on_c, 0, 65, 0
1, 51984, Note_on_c, 0, 76, 63
1, 51984, Note_on_c, 0, 64, 63
1, 52007, Note_on_c, 0, 76, 0
1, 52007, Note_on_c, 0, 64, 0
1, 52008, Note_on_c, 0, 74, 63
1, 52008, Note_on_c, 0, 62, 63
1, 52031, Note_on_c, 0, 74, 0
1, 52031, Note_on_c, 0, 62, 0
1, 52032, Note_on_c, 0, 72, 63
1, 52032, Note_on_c, 0, 60, 63
1, 52080, Note_on_c, 1, 58, 58
1, 52080, Note_on_c, 1, 55, 58
1, 52080, Note_on_c, 1, 52, 58
1, 52121, Note_on_c, 0, 72, 0
1, 52121, Note_on_c, 0, 60, 0
1, 52125, Note_on_c, 1, 58, 0
1, 52125, Note_on_c, 1, 55, 0
1, 52125, Note_on_c, 1, 52, 0
1, 52128, Note_on_c, 1, 57, 58
1, 52128, Note_on_c, 1, 53, 58
1, 52152, Note_on_c, 0, 84, 75
1, 52152, Note_on_c, 0, 72, 75
1, 52175, Note_on_c, 0, 84, 0
1, 52175, Note_on_c, 0, 72, 0
1, 52176, Note_on_c, 0, 82, 75
1, 52176, Note_on_c, 0, 70, 75
1, 52199, Note_on_c, 0, 82, 0
1, 52199, Note_on_c, 0, 70, 0
1, 52200, Note_on_c, 0, 81, 75
1, 52200, Note_on_c, 0, 69, 75
1, 52217, Note_on_c, 1, 57, 0
1, 52217, Note_on_c, 1, 53, 0
1, 52223, Note_on_c, 0, 81, 0
1, 52223, Note_on_c, 0, 69, 0
1, 52224, Note_on_c, 0, 79, 75
1, 52224, Note_on_c, 0, 67, 75
1, 52247, Note_on_c, 0, 79, 0
1, 52247, Note_on_c, 0, 67, 0
1, 52248, Note_on_c, 0, 77, 75
1, 52248, Note_on_c, 0, 65, 75
1, 52271, Note_on_c, 0, 77, 0
1, 52271, Note_on_c, 0, 65, 0
1, 52272, Note_on_c, 0, 76, 75
1, 52272, Note_on_c, 0, 64, 75
1, 52295, Note_on_c, 0, 76, 0
1, 52295, Note_on_c, 0, 64, 0
1, 52296, Note_on_c, 0, 74, 75
1, 52296, Note_on_c, 0, 62, 75
1, 52319, Note_on_c, 0, 74, 0
1, 52319, Note_on_c, 0, 62, 0
1, 52320, Note_on_c, 0, 72, 75
1, 52320, Note_on_c, 0, 60, 75
1, 52320, Note_on_c, 1, 45, 75
1, 52343, Note_on_c, 0, 72, 0
1, 52343, Note_on_c, 0, 60, 0
1, 52344, Note_on_c, 0, 74, 75
1, 52344, Note_on_c, 0, 62, 75
1, 52367, Note_on_c, 0, 74, 0
1, 52367, Note_on_c, 0, 62, 0
1, 52368, Note_on_c, 0, 76, 75
1, 52368, Note_on_c, 0, 64, 75
1, 52391, Note_on_c, 0, 76, 0
1, 52391, Note_on_c, 0, 64, 0
1, 52392, Note_on_c, 0, 77, 75
1, 52392, Note_on_c, 0, 65, 75
1, 52409, Note_on_c, 1, 45, 0
1, 52415, Note_on_c, 0, 77, 0
1, 52415, Note_on_c, 0, 65, 0
1, 52416, Note_on_c, 1, 58, 75
1, 52440, Note_on_c, 0, 74, 75
1, 52440, Note_on_c, 0, 70, 75
1, 52463, Note_on_c, 0, 74, 0
1, 52463, Note_on_c, 0, 70, 0
1, 52464, Note_on_c, 0, 72, 73
1, 52464, Note_on_c, 0, 69, 73
1, 52487, Note_on_c, 0, 72, 0
1, 52487, Note_on_c, 0, 69, 0
1, 52488, Note_on_c, 0, 70, 71
1, 52488, Note_on_c, 0, 67, 71
1, 52511, Note_on_c, 0, 70, 0
1, 52511, Note_on_c, 0, 67, 0
1, 52512, Note_on_c, 0, 70, 70
1, 52512, Note_on_c, 0, 67, 70
1, 52512, Note_on_c, 1, 58, 0
1, 52512, Note_on_c, 1, 60, 69
1, 52536, Note_on_c, 0, 70, 0
1, 52536, Note_on_c, 0, 67, 0
1, 52536, Note_on_c, 0, 69, 68
1, 52536, Note_on_c, 0, 65, 68
1, 52559, Note_on_c, 0, 69, 0
1, 52559, Note_on_c, 0, 65, 0
1, 52560, Note_on_c, 0, 72, 67
1, 52560, Note_on_c, 0, 69, 67
1, 52570, Note_on_c, 0, 72, 0
1, 52570, Note_on_c, 0, 69, 0
1, 52584, Note_on_c, 0, 69, 65
1, 52584, Note_on_c, 0, 65, 65
1, 52594, Note_on_c, 0, 69, 0
1, 52594, Note_on_c, 0, 65, 0
1, 52601, Note_on_c, 1, 60, 0
1, 52608, Note_on_c, 0, 69, 64
1, 52608, Note_on_c, 0, 65, 64
1, 52608, Note_on_c, 1, 48, 63
1, 52632, Note_on_c, 0, 69, 0
1, 52632, Note_on_c, 0, 65, 0
1, 52632, Note_on_c, 0, 67, 62
1, 52632, Note_on_c, 0, 64, 62
1, 52655, Note_on_c, 0, 67, 0
1, 52655, Note_on_c, 0, 64, 0
1, 52656, Note_on_c, 0, 70, 61
1, 52656, Note_on_c, 0, 67, 61
1, 52666, Note_on_c, 0, 70, 0
1, 52666, Note_on_c, 0, 67, 0
1, 52680, Note_on_c, 0, 67, 59
1, 52680, Note_on_c, 0, 64, 59
1, 52690, Note_on_c, 0, 67, 0
1, 52690, Note_on_c, 0, 64, 0
1, 52697, Note_on_c, 1, 48, 0
1, 52704, Note_on_c, 1, 41, 63
1, 52727, Note_on_c, 1, 41, 0
1, 52728, Note_on_c, 0, 65, 63
1, 52728, Note_on_c, 1, 53, 63
1, 52751, Note_on_c, 0, 65, 0
1, 52751, Note_on_c, 1, 53, 0
1, 52752, Note_on_c, 0, 64, 63
1, 52752, Note_on_c, 1, 52, 63
1, 52775, Note_on_c, 0, 64, 0
1, 52775, Note_on_c, 1, 52, 0
1, 52776, Note_on_c, 0, 65, 63
1, 52776, Note_on_c, 1, 53, 63
1, 52799, Note_on_c, 0, 65, 0
1, 52799, Note_on_c, 1, 53, 0
1, 52800, Note_on_c, 0, 60, 63
1, 52800, Note_on_c, 1, 48, 63
1, 52823, Note_on_c, 0, 60, 0
1, 52823, Note_on_c, 1, 48, 0
1, 52824, Note_on_c, 0, 65, 63
1, 52824, Note_on_c, 1, 53, 63
1, 52847, Note_on_c, 0, 65, 0
1, 52847, Note_on_c, 1, 53, 0
1, 52848, Note_on_c, 0, 57, 63
1, 52848, Note_on_c, 1, 45, 63
1, 52858, Note_on_c, 0, 57, 0
1, 52858, Note_on_c, 1, 45, 0
1, 52872, Note_on_c, 0, 60, 63
1, 52872, Note_on_c, 1, 48, 63
1, 52882, Note_on_c, 0, 60, 0
1, 52882, Note_on_c, 1, 48, 0
1, 52896, Note_on_c, 0, 53, 63
1, 52896, Note_on_c, 1, 41, 63
1, 52920, Note_on_c, 0, 53, 0
1, 52920, Note_on_c, 0, 57, 63
1, 52920, Note_on_c, 1, 41, 0
1, 52920, Note_on_c, 1, 45, 63
1, 52943, Note_on_c, 0, 57, 0
1, 52943, Note_on_c, 1, 45, 0
1, 52944, Note_on_c, 0, 60, 63
1, 52944, Note_on_c, 1, 48, 63
1, 52954, Note_on_c, 0, 60, 0
1, 52954, Note_on_c, 1, 48, 0
1, 52968, Note_on_c, 0, 65, 63
1, 52968, Note_on_c, 1, 53, 63
1, 52978, Note_on_c, 0, 65, 0
1, 52978, Note_on_c, 1, 53, 0
1, 52992, Note_on_c, 0, 53, 63
1, 52992, Note_on_c, 1, 41, 63
1, 53169, Note_on_c, 0, 53, 0
1, 53169, Note_on_c, 1, 41, 0
1, 53280, Note_on_c, 1, 41, 0
1, 53457, Note_on_c, 1, 41, 0
1, 53467, End_track
0, 0, End_of_file