0, 0, Header, 0, 1, 96
1, 0, Start_track
1, 0, Tempo, 480000
1, 0, Note_on_c, 0, 79, 64
1, 0, Note_on_c, 1, 53, 64
1, 0, Note_on_c, 1, 41, 64
1, 13, Note_on_c, 0, 79, 0
1, 14, Note_on_c, 0, 77, 64
1, 27, Note_on_c, 0, 77, 0
1, 28, Note_on_c, 0, 79, 64
1, 41, Note_on_c, 0, 79, 0
1, 42, Note_on_c, 0, 77, 64
1, 55, Note_on_c, 0, 77, 0
1, 56, Note_on_c, 0, 79, 64
1, 69, Note_on_c, 0, 79, 0
1, 70, Note_on_c, 0, 77, 64
1, 83, Note_on_c, 0, 77, 0
1, 84, Note_on_c, 0, 79, 64
1, 89, Note_on_c, 1, 53, 0
1, 89, Note_on_c, 1, 41, 0
1, 96, Note_on_c, 1, 57, 64
1, 96, Note_on_c, 1, 45, 64
1, 97, Note_on_c, 0, 79, 0
1, 98, Note_on_c, 0, 77, 64
1, 111, Note_on_c, 0, 77, 0
1, 112, Note_on_c, 0, 79, 64
1, 125, Note_on_c, 0, 79, 0
1, 126, Note_on_c, 0, 77, 64
1, 139, Note_on_c, 0, 77, 0
1, 140, Note_on_c, 0, 76, 64
1, 165, Note_on_c, 0, 76, 0
1, 166, Note_on_c, 0, 77, 64
1, 185, Note_on_c, 1, 57, 0
1, 185, Note_on_c, 1, 45, 0
1, 191, Note_on_c, 0, 77, 0
1, 192, Note_on_c, 0, 82, 64
1, 192, Note_on_c, 1, 60, 64
1, 192, Note_on_c, 1, 48, 64
1, 222, Note_on_c, 0, 82, 0
1, 224, Note_on_c, 0, 79, 64
1, 254, Note_on_c, 0, 79, 0
1, 256, Note_on_c, 0, 76, 64
1, 281, Note_on_c, 1, 60, 0
1, 281, Note_on_c, 1, 48, 0
1, 286, Note_on_c, 0, 76, 0
1, 288, Note_on_c, 0, 77, 64
1, 288, Note_on_c, 1, 65, 64
1, 288, Note_on_c, 1, 53, 64
1, 333, Note_on_c, 0, 77, 0
1, 336, Note_on_c, 0, 81, 64
1, 377, Note_on_c, 1, 65, 0
1, 377, Note_on_c, 1, 53, 0
1, 381, Note_on_c, 0, 81, 0
1, 384, Note_on_c, 0, 72, 64
1, 473, Note_on_c, 0, 72, 0
1, 480, Note_on_c, 0, 70, 64
1, 480, Note_on_c, 1, 67, 64
1, 493, Note_on_c, 0, 70, 0
1, 494, Note_on_c, 0, 72, 64
1, 507, Note_on_c, 0, 72, 0
1, 508, Note_on_c, 0, 70, 64
1, 521, Note_on_c, 0, 70, 0
1, 522, Note_on_c, 0, 72, 64
1, 535, Note_on_c, 0, 72, 0
1, 536, Note_on_c, 0, 70, 64
1, 549, Note_on_c, 0, 70, 0
1, 550, Note_on_c, 0, 69, 64
1, 562, Note_on_c, 0, 69, 0
1, 563, Note_on_c, 0, 70, 64
1, 569, Note_on_c, 1, 67, 0
1, 575, Note_on_c, 0, 70, 0
1, 576, Note_on_c, 0, 69, 64
1, 576, Note_on_c, 1, 65, 64
1, 621, Note_on_c, 0, 69, 0
1, 624, Note_on_c, 0, 72, 64
1, 665, Note_on_c, 1, 65, 0
1, 669, Note_on_c, 0, 72, 0
1, 672, Note_on_c, 0, 77, 64
1, 702, Note_on_c, 0, 77, 0
1, 704, Note_on_c, 0, 76, 64
1, 734, Note_on_c, 0, 76, 0
1, 736, Note_on_c, 0, 74, 64
1, 766, Note_on_c, 0, 74, 0
1, 768, Note_on_c, 0, 72, 64
1, 798, Note_on_c, 0, 72, 0
1, 800, Note_on_c, 0, 70, 64
1, 830, Note_on_c, 0, 70, 0
1, 832, Note_on_c, 0, 69, 64
1, 862, Note_on_c, 0, 69, 0
1, 864, Note_on_c, 0, 67, 64
1, 864, Note_on_c, 1, 64, 64
1, 953, Note_on_c, 1, 64, 0
1, 960, Note_on_c, 1, 60, 64
1, 997, Note_on_c, 0, 67, 0
1, 1008, Note_on_c, 0, 69, 64
1, 1031, Note_on_c, 0, 69, 0
1, 1032, Note_on_c, 0, 70, 64
1, 1049, Note_on_c, 1, 60, 0
1, 1055, Note_on_c, 0, 70, 0
1, 1056, Note_on_c, 0, 69, 64
1, 1056, Note_on_c, 1, 65, 64
1, 1145, Note_on_c, 0, 69, 0
1, 1145, Note_on_c, 1, 65, 0
1, 1152, Note_on_c, 0, 79, 64
1, 1152, Note_on_c, 1, 53, 64
1, 1165, Note_on_c, 0, 79, 0
1, 1166, Note_on_c, 0, 77, 64
1, 1179, Note_on_c, 0, 77, 0
1, 1180, Note_on_c, 0, 79, 64
1, 1193, Note_on_c, 0, 79, 0
1, 1194, Note_on_c, 0, 77, 64
1, 1207, Note_on_c, 0, 77, 0
1, 1208, Note_on_c, 0, 79, 64
1, 1221, Note_on_c, 0, 79, 0
1, 1222, Note_on_c, 0, 77, 64
1, 1235, Note_on_c, 0, 77, 0
1, 1236, Note_on_c, 0, 79, 64
1, 1241, Note_on_c, 1, 53, 0
1, 1248, Note_on_c, 1, 57, 64
1, 1249, Note_on_c, 0, 79, 0
1, 1250, Note_on_c, 0, 77, 64
1, 1263, Note_on_c, 0, 77, 0
1, 1264, Note_on_c, 0, 79, 64
1, 1277, Note_on_c, 0, 79, 0
1, 1278, Note_on_c, 0, 77, 64
1, 1291, Note_on_c, 0, 77, 0
1, 1292, Note_on_c, 0, 76, 64
1, 1317, Note_on_c, 0, 76, 0
1, 1318, Note_on_c, 0, 77, 64
1, 1337, Note_on_c, 1, 57, 0
1, 1343, Note_on_c, 0, 77, 0
1, 1344, Note_on_c, 0, 82, 64
1, 1344, Note_on_c, 1, 60, 64
1, 1374, Note_on_c, 0, 82, 0
1, 1376, Note_on_c, 0, 79, 64
1, 1406, Note_on_c, 0, 79, 0
1, 1408, Note_on_c, 0, 76, 64
1, 1433, Note_on_c, 1, 60, 0
1, 1438, Note_on_c, 0, 76, 0
1, 1440, Note_on_c, 0, 77, 64
1, 1440, Note_on_c, 1, 65, 64
1, 1440, Note_on_c, 1, 53, 64
1, 1485, Note_on_c, 0, 77, 0
1, 1488, Note_on_c, 0, 81, 64
1, 1529, Note_on_c, 1, 65, 0
1, 1529, Note_on_c, 1, 53, 0
1, 1533, Note_on_c, 0, 81, 0
1, 1536, Note_on_c, 0, 72, 64
1, 1625, Note_on_c, 0, 72, 0
1, 1632, Note_on_c, 0, 81, 64
1, 1632, Note_on_c, 1, 65, 64
1, 1662, Note_on_c, 0, 81, 0
1, 1664, Note_on_c, 0, 83, 64
1, 1694, Note_on_c, 0, 83, 0
1, 1696, Note_on_c, 0, 84, 64
1, 1721, Note_on_c, 1, 65, 0
1, 1726, Note_on_c, 0, 84, 0
1, 1728, Note_on_c, 0, 84, 64
1, 1728, Note_on_c, 1, 64, 64
1, 1758, Note_on_c, 0, 84, 0
1, 1760, Note_on_c, 0, 83, 64
1, 1790, Note_on_c, 0, 83, 0
1, 1792, Note_on_c, 0, 81, 64
1, 1822, Note_on_c, 0, 81, 0
1, 1824, Note_on_c, 0, 79, 64
1, 1905, Note_on_c, 1, 64, 0
1, 1913, Note_on_c, 0, 79, 0
1, 1920, Note_on_c, 0, 81, 64
1, 1920, Note_on_c, 1, 65, 64
1, 1950, Note_on_c, 0, 81, 0
1, 1952, Note_on_c, 0, 83, 64
1, 1982, Note_on_c, 0, 83, 0
1, 1984, Note_on_c, 0, 84, 64
1, 2009, Note_on_c, 1, 65, 0
1, 2014, Note_on_c, 0, 84, 0
1, 2016, Note_on_c, 0, 84, 64
1, 2016, Note_on_c, 1, 64, 64
1, 2046, Note_on_c, 0, 84, 0
1, 2048, Note_on_c, 0, 83, 64
1, 2078, Note_on_c, 0, 83, 0
1, 2080, Note_on_c, 0, 81, 64
1, 2110, Note_on_c, 0, 81, 0
1, 2112, Note_on_c, 0, 79, 64
1, 2142, Note_on_c, 0, 79, 0
1, 2144, Note_on_c, 0, 77, 64
1, 2174, Note_on_c, 0, 77, 0
1, 2176, Note_on_c, 0, 76, 64
1, 2193, Note_on_c, 1, 64, 0
1, 2206, Note_on_c, 0, 76, 0
1, 2208, Note_on_c, 0, 77, 64
1, 2208, Note_on_c, 1, 59, 64
1, 2208, Note_on_c, 1, 47, 64
1, 2238, Note_on_c, 0, 77, 0
1, 2240, Note_on_c, 0, 76, 64
1, 2270, Note_on_c, 0, 76, 0
1, 2272, Note_on_c, 0, 74, 64
1, 2297, Note_on_c, 1, 59, 0
1, 2297, Note_on_c, 1, 47, 0
1, 2302, Note_on_c, 0, 74, 0
1, 2304, Note_on_c, 0, 76, 64
1, 2304, Note_on_c, 1, 60, 64
1, 2304, Note_on_c, 1, 48, 64
1, 2334, Note_on_c, 0, 76, 0
1, 2336, Note_on_c, 0, 77, 64
1, 2366, Note_on_c, 0, 77, 0
1, 2368, Note_on_c, 0, 79, 64
1, 2393, Note_on_c, 1, 60, 0
1, 2393, Note_on_c, 1, 48, 0
1, 2398, Note_on_c, 0, 79, 0
1, 2400, Note_on_c, 0, 72, 64
1, 2400, Note_on_c, 1, 64, 64
1, 2400, Note_on_c, 1, 55, 64
1, 2489, Note_on_c, 0, 72, 0
1, 2489, Note_on_c, 1, 64, 0
1, 2489, Note_on_c, 1, 55, 0
1, 2496, Note_on_c, 0, 71, 64
1, 2496, Note_on_c, 1, 62, 64
1, 2496, Note_on_c, 1, 55, 64
1, 2509, Note_on_c, 0, 71, 0
1, 2510, Note_on_c, 0, 72, 64
1, 2523, Note_on_c, 0, 72, 0
1, 2524, Note_on_c, 0, 71, 64
1, 2537, Note_on_c, 0, 71, 0
1, 2538, Note_on_c, 0, 72, 64
1, 2551, Note_on_c, 0, 72, 0
1, 2552, Note_on_c, 0, 71, 64
1, 2565, Note_on_c, 0, 71, 0
1, 2566, Note_on_c, 0, 69, 64
1, 2578, Note_on_c, 0, 69, 0
1, 2579, Note_on_c, 0, 71, 64
1, 2585, Note_on_c, 1, 62, 0
1, 2585, Note_on_c, 1, 55, 0
1, 2591, Note_on_c, 0, 71, 0
1, 2592, Note_on_c, 0, 72, 64
1, 2592, Note_on_c, 1, 60, 64
1, 2681, Note_on_c, 1, 60, 0
1, 2688, Note_on_c, 1, 55, 64
1, 2769, Note_on_c, 0, 72, 0
1, 2777, Note_on_c, 1, 55, 0
1, 2784, Note_on_c, 1, 48, 64
1, 2873, Note_on_c, 1, 48, 0
1, 2880, Note_on_c, 0, 79, 64
1, 2880, Note_on_c, 1, 53, 64
1, 2880, Note_on_c, 1, 41, 64
1, 2893, Note_on_c, 0, 79, 0
1, 2894, Note_on_c, 0, 77, 64
1, 2907, Note_on_c, 0, 77, 0
1, 2908, Note_on_c, 0, 79, 64
1, 2921, Note_on_c, 0, 79, 0
1, 2922, Note_on_c, 0, 77, 64
1, 2935, Note_on_c, 0, 77, 0
1, 2936, Note_on_c, 0, 79, 64
1, 2949, Note_on_c, 0, 79, 0
1, 2950, Note_on_c, 0, 77, 64
1, 2963, Note_on_c, 0, 77, 0
1, 2964, Note_on_c, 0, 79, 64
1, 2969, Note_on_c, 1, 53, 0
1, 2969, Note_on_c, 1, 41, 0
1, 2976, Note_on_c, 1, 57, 64
1, 2976, Note_on_c, 1, 45, 64
1, 2977, Note_on_c, 0, 79, 0
1, 2978, Note_on_c, 0, 77, 64
1, 2991, Note_on_c, 0, 77, 0
1, 2992, Note_on_c, 0, 79, 64
1, 3005, Note_on_c, 0, 79, 0
1, 3006, Note_on_c, 0, 77, 64
1, 3019, Note_on_c, 0, 77, 0
1, 3020, Note_on_c, 0, 76, 64
1, 3045, Note_on_c, 0, 76, 0
1, 3046, Note_on_c, 0, 77, 64
1, 3065, Note_on_c, 1, 57, 0
1, 3065, Note_on_c, 1, 45, 0
1, 3071, Note_on_c, 0, 77, 0
1, 3072, Note_on_c, 0, 82, 64
1, 3072, Note_on_c, 1, 60, 64
1, 3072, Note_on_c, 1, 48, 64
1, 3102, Note_on_c, 0, 82, 0
1, 3104, Note_on_c, 0, 79, 64
1, 3134, Note_on_c, 0, 79, 0
1, 3136, Note_on_c, 0, 76, 64
1, 3161, Note_on_c, 1, 60, 0
1, 3161, Note_on_c, 1, 48, 0
1, 3166, Note_on_c, 0, 76, 0
1, 3168, Note_on_c, 0, 77, 64
1, 3168, Note_on_c, 1, 65, 64
1, 3168, Note_on_c, 1, 53, 64
1, 3213, Note_on_c, 0, 77, 0
1, 3216, Note_on_c, 0, 81, 64
1, 3257, Note_on_c, 1, 65, 0
1, 3257, Note_on_c, 1, 53, 0
1, 3261, Note_on_c, 0, 81, 0
1, 3264, Note_on_c, 0, 72, 64
1, 3353, Note_on_c, 0, 72, 0
1, 3360, Note_on_c, 0, 70, 64
1, 3360, Note_on_c, 1, 67, 64
1, 3373, Note_on_c, 0, 70, 0
1, 3374, Note_on_c, 0, 72, 64
1, 3387, Note_on_c, 0, 72, 0
1, 3388, Note_on_c, 0, 70, 64
1, 3401, Note_on_c, 0, 70, 0
1, 3402, Note_on_c, 0, 72, 64
1, 3415, Note_on_c, 0, 72, 0
1, 3416, Note_on_c, 0, 70, 64
1, 3429, Note_on_c, 0, 70, 0
1, 3430, Note_on_c, 0, 69, 64
1, 3442, Note_on_c, 0, 69, 0
1, 3443, Note_on_c, 0, 70, 64
1, 3449, Note_on_c, 1, 67, 0
1, 3455, Note_on_c, 0, 70, 0
1, 3456, Note_on_c, 0, 69, 64
1, 3456, Note_on_c, 1, 65, 64
1, 3501, Note_on_c, 0, 69, 0
1, 3504, Note_on_c, 0, 72, 64
1, 3545, Note_on_c, 1, 65, 0
1, 3549, Note_on_c, 0, 72, 0
1, 3552, Note_on_c, 0, 77, 64
1, 3582, Note_on_c, 0, 77, 0
1, 3584, Note_on_c, 0, 76, 64
1, 3614, Note_on_c, 0, 76, 0
1, 3616, Note_on_c, 0, 74, 64
1, 3646, Note_on_c, 0, 74, 0
1, 3648, Note_on_c, 0, 72, 64
1, 3678, Note_on_c, 0, 72, 0
1, 3680, Note_on_c, 0, 70, 64
1, 3710, Note_on_c, 0, 70, 0
1, 3712, Note_on_c, 0, 69, 64
1, 3742, Note_on_c, 0, 69, 0
1, 3744, Note_on_c, 0, 67, 64
1, 3744, Note_on_c, 1, 64, 64
1, 3833, Note_on_c, 1, 64, 0
1, 3840, Note_on_c, 1, 60, 64
1, 3877, Note_on_c, 0, 67, 0
1, 3888, Note_on_c, 0, 69, 64
1, 3911, Note_on_c, 0, 69, 0
1, 3912, Note_on_c, 0, 70, 64
1, 3929, Note_on_c, 1, 60, 0
1, 3935, Note_on_c, 0, 70, 0
1, 3936, Note_on_c, 0, 69, 64
1, 3936, Note_on_c, 1, 65, 64
1, 4025, Note_on_c, 0, 69, 0
1, 4025, Note_on_c, 1, 65, 0
1, 4032, Note_on_c, 0, 79, 64
1, 4032, Note_on_c, 1, 53, 64
1, 4045, Note_on_c, 0, 79, 0
1, 4046, Note_on_c, 0, 77, 64
1, 4059, Note_on_c, 0, 77, 0
1, 4060, Note_on_c, 0, 79, 64
1, 4073, Note_on_c, 0, 79, 0
1, 4074, Note_on_c, 0, 77, 64
1, 4087, Note_on_c, 0, 77, 0
1, 4088, Note_on_c, 0, 79, 64
1, 4101, Note_on_c, 0, 79, 0
1, 4102, Note_on_c, 0, 77, 64
1, 4115, Note_on_c, 0, 77, 0
1, 4116, Note_on_c, 0, 79, 64
1, 4121, Note_on_c, 1, 53, 0
1, 4128, Note_on_c, 1, 57, 64
1, 4129, Note_on_c, 0, 79, 0
1, 4130, Note_on_c, 0, 77, 64
1, 4143, Note_on_c, 0, 77, 0
1, 4144, Note_on_c, 0, 79, 64
1, 4157, Note_on_c, 0, 79, 0
1, 4158, Note_on_c, 0, 77, 64
1, 4171, Note_on_c, 0, 77, 0
1, 4172, Note_on_c, 0, 76, 64
1, 4197, Note_on_c, 0, 76, 0
1, 4198, Note_on_c, 0, 77, 64
1, 4217, Note_on_c, 1, 57, 0
1, 4223, Note_on_c, 0, 77, 0
1, 4224, Note_on_c, 0, 82, 64
1, 4224, Note_on_c, 1, 60, 64
1, 4254, Note_on_c, 0, 82, 0
1, 4256, Note_on_c, 0, 79, 64
1, 4286, Note_on_c, 0, 79, 0
1, 4288, Note_on_c, 0, 76, 64
1, 4313, Note_on_c, 1, 60, 0
1, 4318, Note_on_c, 0, 76, 0
1, 4320, Note_on_c, 0, 77, 64
1, 4320, Note_on_c, 1, 65, 64
1, 4320, Note_on_c, 1, 53, 64
1, 4365, Note_on_c, 0, 77, 0
1, 4368, Note_on_c, 0, 81, 64
1, 4409, Note_on_c, 1, 65, 0
1, 4409, Note_on_c, 1, 53, 0
1, 4413, Note_on_c, 0, 81, 0
1, 4416, Note_on_c, 0, 72, 64
1, 4505, Note_on_c, 0, 72, 0
1, 4512, Note_on_c, 0, 81, 64
1, 4512, Note_on_c, 1, 65, 64
1, 4542, Note_on_c, 0, 81, 0
1, 4544, Note_on_c, 0, 83, 64
1, 4574, Note_on_c, 0, 83, 0
1, 4576, Note_on_c, 0, 84, 64
1, 4601, Note_on_c, 1, 65, 0
1, 4606, Note_on_c, 0, 84, 0
1, 4608, Note_on_c, 0, 84, 64
1, 4608, Note_on_c, 1, 64, 64
1, 4638, Note_on_c, 0, 84, 0
1, 4640, Note_on_c, 0, 83, 64
1, 4670, Note_on_c, 0, 83, 0
1, 4672, Note_on_c, 0, 81, 64
1, 4702, Note_on_c, 0, 81, 0
1, 4704, Note_on_c, 0, 79, 64
1, 4785, Note_on_c, 1, 64, 0
1, 4793, Note_on_c, 0, 79, 0
1, 4800, Note_on_c, 0, 81, 64
1, 4800, Note_on_c, 1, 65, 64
1, 4830, Note_on_c, 0, 81, 0
1, 4832, Note_on_c, 0, 83, 64
1, 4862, Note_on_c, 0, 83, 0
1, 4864, Note_on_c, 0, 84, 64
1, 4889, Note_on_c, 1, 65, 0
1, 4894, Note_on_c, 0, 84, 0
1, 4896, Note_on_c, 0, 84, 64
1, 4896, Note_on_c, 1, 64, 64
1, 4926, Note_on_c, 0, 84, 0
1, 4928, Note_on_c, 0, 83, 64
1, 4958, Note_on_c, 0, 83, 0
1, 4960, Note_on_c, 0, 81, 64
1, 4990, Note_on_c, 0, 81, 0
1, 4992, Note_on_c, 0, 79, 64
1, 5022, Note_on_c, 0, 79, 0
1, 5024, Note_on_c, 0, 77, 64
1, 5054, Note_on_c, 0, 77, 0
1, 5056, Note_on_c, 0, 76, 64
1, 5073, Note_on_c, 1, 64, 0
1, 5086, Note_on_c, 0, 76, 0
1, 5088, Note_on_c, 0, 77, 64
1, 5088, Note_on_c, 1, 59, 64
1, 5088, Note_on_c, 1, 47, 64
1, 5118, Note_on_c, 0, 77, 0
1, 5120, Note_on_c, 0, 76, 64
1, 5150, Note_on_c, 0, 76, 0
1, 5152, Note_on_c, 0, 74, 64
1, 5177, Note_on_c, 1, 59, 0
1, 5177, Note_on_c, 1, 47, 0
1, 5182, Note_on_c, 0, 74, 0
1, 5184, Note_on_c, 0, 76, 64
1, 5184, Note_on_c, 1, 60, 64
1, 5184, Note_on_c, 1, 48, 64
1, 5214, Note_on_c, 0, 76, 0
1, 5216, Note_on_c, 0, 77, 64
1, 5246, Note_on_c, 0, 77, 0
1, 5248, Note_on_c, 0, 79, 64
1, 5273, Note_on_c, 1, 60, 0
1, 5273, Note_on_c, 1, 48, 0
1, 5278, Note_on_c, 0, 79, 0
1, 5280, Note_on_c, 0, 72, 64
1, 5280, Note_on_c, 1, 64, 64
1, 5280, Note_on_c, 1, 55, 64
1, 5369, Note_on_c, 0, 72, 0
1, 5369, Note_on_c, 1, 64, 0
1, 5369, Note_on_c, 1, 55, 0
1, 5376, Note_on_c, 0, 71, 64
1, 5376, Note_on_c, 1, 62, 64
1, 5376, Note_on_c, 1, 55, 64
1, 5389, Note_on_c, 0, 71, 0
1, 5390, Note_on_c, 0, 72, 64
1, 5403, Note_on_c, 0, 72, 0
1, 5404, Note_on_c, 0, 71, 64
1, 5417, Note_on_c, 0, 71, 0
1, 5418, Note_on_c, 0, 72, 64
1, 5431, Note_on_c, 0, 72, 0
1, 5432, Note_on_c, 0, 71, 64
1, 5445, Note_on_c, 0, 71, 0
1, 5446, Note_on_c, 0, 69, 64
1, 5458, Note_on_c, 0, 69, 0
1, 5459, Note_on_c, 0, 71, 64
1, 5465, Note_on_c, 1, 62, 0
1, 5465, Note_on_c, 1, 55, 0
1, 5471, Note_on_c, 0, 71, 0
1, 5472, Note_on_c, 0, 72, 64
1, 5472, Note_on_c, 1, 60, 64
1, 5561, Note_on_c, 1, 60, 0
1, 5568, Note_on_c, 1, 55, 64
1, 5649, Note_on_c, 0, 72, 0
1, 5657, Note_on_c, 1, 55, 0
1, 5664, Note_on_c, 1, 48, 64
1, 5753, Note_on_c, 1, 48, 0
1, 5760, Note_on_c, 0, 72, 64
1, 5760, Note_on_c, 1, 60, 64
1, 5856, Note_on_c, 1, 67, 64
1, 5937, Note_on_c, 0, 72, 0
1, 5952, Note_on_c, 0, 79, 64
1, 5952, Note_on_c, 1, 67, 0
1, 5952, Note_on_c, 1, 70, 64
1, 5982, Note_on_c, 0, 79, 0
1, 5984, Note_on_c, 0, 76, 64
1, 6014, Note_on_c, 0, 76, 0
1, 6016, Note_on_c, 0, 72, 64
1, 6046, Note_on_c, 0, 72, 0
1, 6048, Note_on_c, 0, 81, 64
1, 6048, Note_on_c, 1, 70, 0
1, 6048, Note_on_c, 1, 69, 64
1, 6078, Note_on_c, 0, 81, 0
1, 6080, Note_on_c, 0, 77, 64
1, 6110, Note_on_c, 0, 77, 0
1, 6112, Note_on_c, 0, 72, 64
1, 6142, Note_on_c, 0, 72, 0
1, 6144, Note_on_c, 0, 82, 64
1, 6144, Note_on_c, 1, 69, 0
1, 6144, Note_on_c, 1, 64, 64
1, 6174, Note_on_c, 0, 82, 0
1, 6176, Note_on_c, 0, 81, 64
1, 6206, Note_on_c, 0, 81, 0
1, 6208, Note_on_c, 0, 79, 64
1, 6233, Note_on_c, 1, 64, 0
1, 6233, Note_on_c, 1, 60, 0
1, 6238, Note_on_c, 0, 79, 0
1, 6240, Note_on_c, 0, 81, 64
1, 6240, Note_on_c, 1, 65, 64
1, 6329, Note_on_c, 0, 81, 0
1, 6329, Note_on_c, 1, 65, 0
1, 6336, Note_on_c, 0, 79, 64
1, 6336, Note_on_c, 1, 58, 64
1, 6366, Note_on_c, 0, 79, 0
1, 6368, Note_on_c, 0, 82, 64
1, 6398, Note_on_c, 0, 82, 0
1, 6400, Note_on_c, 0, 81, 64
1, 6430, Note_on_c, 0, 81, 0
1, 6432, Note_on_c, 0, 79, 64
1, 6462, Note_on_c, 0, 79, 0
1, 6464, Note_on_c, 0, 86, 64
1, 6494, Note_on_c, 0, 86, 0
1, 6496, Note_on_c, 0, 84, 64
1, 6513, Note_on_c, 1, 58, 0
1, 6526, Note_on_c, 0, 84, 0
1, 6528, Note_on_c, 0, 82, 64
1, 6528, Note_on_c, 1, 59, 64
1, 6558, Note_on_c, 0, 82, 0
1, 6560, Note_on_c, 0, 81, 64
1, 6590, Note_on_c, 0, 81, 0
1, 6592, Note_on_c, 0, 79, 64
1, 6617, Note_on_c, 1, 59, 0
1, 6622, Note_on_c, 0, 79, 0
1, 6624, Note_on_c, 0, 77, 64
1, 6624, Note_on_c, 1, 60, 64
1, 6713, Note_on_c, 1, 60, 0
1, 6720, Note_on_c, 0, 77, 0
1, 6720, Note_on_c, 0, 76, 64
1, 6720, Note_on_c, 1, 55, 64
1, 6809, Note_on_c, 0, 76, 0
1, 6809, Note_on_c, 1, 55, 0
1, 6816, Note_on_c, 1, 48, 64
1, 6905, Note_on_c, 1, 48, 0
1, 6912, Note_on_c, 1, 60, 64
1, 6960, Note_on_c, 0, 72, 64
1, 7001, Note_on_c, 1, 60, 0
1, 7008, Note_on_c, 1, 68, 64
1, 7049, Note_on_c, 0, 72, 0
1, 7056, Note_on_c, 0, 80, 64
1, 7097, Note_on_c, 1, 68, 0
1, 7104, Note_on_c, 1, 65, 64
1, 7145, Note_on_c, 0, 80, 0
1, 7152, Note_on_c, 0, 72, 64
1, 7193, Note_on_c, 1, 65, 0
1, 7200, Note_on_c, 1, 67, 64
1, 7245, Note_on_c, 0, 72, 0
1, 7248, Note_on_c, 0, 70, 64
1, 7289, Note_on_c, 1, 67, 0
1, 7293, Note_on_c, 0, 70, 0
1, 7296, Note_on_c, 0, 79, 64
1, 7296, Note_on_c, 1, 64, 64
1, 7341, Note_on_c, 0, 79, 0
1, 7344, Note_on_c, 0, 70, 64
1, 7385, Note_on_c, 1, 64, 0
1, 7392, Note_on_c, 1, 65, 64
1, 7433, Note_on_c, 0, 70, 0
1, 7440, Note_on_c, 0, 68, 64
1, 7481, Note_on_c, 1, 65, 0
1, 7488, Note_on_c, 1, 58, 64
1, 7533, Note_on_c, 0, 68, 0
1, 7536, Note_on_c, 0, 67, 64
1, 7581, Note_on_c, 0, 67, 0
1, 7584, Note_on_c, 0, 73, 64
1, 7629, Note_on_c, 0, 73, 0
1, 7632, Note_on_c, 0, 70, 64
1, 7665, Note_on_c, 1, 58, 0
1, 7677, Note_on_c, 0, 70, 0
1, 7680, Note_on_c, 0, 67, 64
1, 7680, Note_on_c, 1, 59, 64
1, 7725, Note_on_c, 0, 67, 0
1, 7728, Note_on_c, 0, 65, 64
1, 7769, Note_on_c, 1, 59, 0
1, 7773, Note_on_c, 0, 65, 0
1, 7776, Note_on_c, 0, 65, 64
1, 7776, Note_on_c, 1, 60, 64
1, 7865, Note_on_c, 1, 60, 0
1, 7872, Note_on_c, 0, 65, 0
1, 7872, Note_on_c, 0, 64, 64
1, 7872, Note_on_c, 1, 55, 64
1, 7961, Note_on_c, 0, 64, 0
1, 7961, Note_on_c, 1, 55, 0
1, 7968, Note_on_c, 1, 48, 64
1, 8057, Note_on_c, 1, 48, 0
1, 8064, Note_on_c, 0, 79, 64
1, 8064, Note_on_c, 1, 53, 64
1, 8064, Note_on_c, 1, 41, 64
1, 8077, Note_on_c, 0, 79, 0
1, 8078, Note_on_c, 0, 77, 64
1, 8091, Note_on_c, 0, 77, 0
1, 8092, Note_on_c, 0, 79, 64
1, 8105, Note_on_c, 0, 79, 0
1, 8106, Note_on_c, 0, 77, 64
1, 8119, Note_on_c, 0, 77, 0
1, 8120, Note_on_c, 0, 79, 64
1, 8133, Note_on_c, 0, 79, 0
1, 8134, Note_on_c, 0, 77, 64
1, 8147, Note_on_c, 0, 77, 0
1, 8148, Note_on_c, 0, 79, 64
1, 8153, Note_on_c, 1, 53, 0
1, 8153, Note_on_c, 1, 41, 0
1, 8160, Note_on_c, 1, 57, 64
1, 8160, Note_on_c, 1, 45, 64
1, 8161, Note_on_c, 0, 79, 0
1, 8162, Note_on_c, 0, 77, 64
1, 8175, Note_on_c, 0, 77, 0
1, 8176, Note_on_c, 0, 79, 64
1, 8189, Note_on_c, 0, 79, 0
1, 8190, Note_on_c, 0, 77, 64
1, 8203, Note_on_c, 0, 77, 0
1, 8204, Note_on_c, 0, 76, 64
1, 8229, Note_on_c, 0, 76, 0
1, 8230, Note_on_c, 0, 77, 64
1, 8249, Note_on_c, 1, 57, 0
1, 8249, Note_on_c, 1, 45, 0
1, 8255, Note_on_c, 0, 77, 0
1, 8256, Note_on_c, 0, 82, 64
1, 8256, Note_on_c, 1, 60, 64
1, 8256, Note_on_c, 1, 48, 64
1, 8286, Note_on_c, 0, 82, 0
1, 8288, Note_on_c, 0, 79, 64
1, 8318, Note_on_c, 0, 79, 0
1, 8320, Note_on_c, 0, 76, 64
1, 8345, Note_on_c, 1, 60, 0
1, 8345, Note_on_c, 1, 48, 0
1, 8350, Note_on_c, 0, 76, 0
1, 8352, Note_on_c, 0, 77, 64
1, 8352, Note_on_c, 1, 65, 64
1, 8352, Note_on_c, 1, 53, 64
1, 8397, Note_on_c, 0, 77, 0
1, 8400, Note_on_c, 0, 81, 64
1, 8441, Note_on_c, 1, 65, 0
1, 8441, Note_on_c, 1, 53, 0
1, 8445, Note_on_c, 0, 81, 0
1, 8448, Note_on_c, 0, 72, 64
1, 8537, Note_on_c, 0, 72, 0
1, 8544, Note_on_c, 0, 70, 64
1, 8544, Note_on_c, 1, 67, 64
1, 8557, Note_on_c, 0, 70, 0
1, 8558, Note_on_c, 0, 72, 64
1, 8571, Note_on_c, 0, 72, 0
1, 8572, Note_on_c, 0, 70, 64
1, 8585, Note_on_c, 0, 70, 0
1, 8586, Note_on_c, 0, 72, 64
1, 8599, Note_on_c, 0, 72, 0
1, 8600, Note_on_c, 0, 70, 64
1, 8613, Note_on_c, 0, 70, 0
1, 8614, Note_on_c, 0, 69, 64
1, 8626, Note_on_c, 0, 69, 0
1, 8627, Note_on_c, 0, 70, 64
1, 8633, Note_on_c, 1, 67, 0
1, 8639, Note_on_c, 0, 70, 0
1, 8640, Note_on_c, 0, 69, 64
1, 8640, Note_on_c, 1, 65, 64
1, 8685, Note_on_c, 0, 69, 0
1, 8688, Note_on_c, 0, 72, 64
1, 8729, Note_on_c, 1, 65, 0
1, 8733, Note_on_c, 0, 72, 0
1, 8736, Note_on_c, 0, 77, 64
1, 8766, Note_on_c, 0, 77, 0
1, 8768, Note_on_c, 0, 76, 64
1, 8798, Note_on_c, 0, 76, 0
1, 8800, Note_on_c, 0, 74, 64
1, 8830, Note_on_c, 0, 74, 0
1, 8832, Note_on_c, 0, 72, 64
1, 8862, Note_on_c, 0, 72, 0
1, 8864, Note_on_c, 0, 70, 64
1, 8894, Note_on_c, 0, 70, 0
1, 8896, Note_on_c, 0, 69, 64
1, 8926, Note_on_c, 0, 69, 0
1, 8928, Note_on_c, 0, 67, 64
1, 8928, Note_on_c, 1, 64, 64
1, 9017, Note_on_c, 1, 64, 0
1, 9024, Note_on_c, 1, 60, 64
1, 9061, Note_on_c, 0, 67, 0
1, 9072, Note_on_c, 0, 69, 64
1, 9095, Note_on_c, 0, 69, 0
1, 9096, Note_on_c, 0, 70, 64
1, 9113, Note_on_c, 1, 60, 0
1, 9119, Note_on_c, 0, 70, 0
1, 9120, Note_on_c, 0, 69, 64
1, 9120, Note_on_c, 1, 65, 64
1, 9209, Note_on_c, 0, 69, 0
1, 9209, Note_on_c, 1, 65, 0
1, 9216, Note_on_c, 0, 79, 64
1, 9216, Note_on_c, 1, 53, 64
1, 9216, Note_on_c, 1, 41, 64
1, 9229, Note_on_c, 0, 79, 0
1, 9230, Note_on_c, 0, 77, 64
1, 9243, Note_on_c, 0, 77, 0
1, 9244, Note_on_c, 0, 79, 64
1, 9257, Note_on_c, 0, 79, 0
1, 9258, Note_on_c, 0, 77, 64
1, 9271, Note_on_c, 0, 77, 0
1, 9272, Note_on_c, 0, 79, 64
1, 9285, Note_on_c, 0, 79, 0
1, 9286, Note_on_c, 0, 77, 64
1, 9299, Note_on_c, 0, 77, 0
1, 9300, Note_on_c, 0, 79, 64
1, 9305, Note_on_c, 1, 53, 0
1, 9305, Note_on_c, 1, 41, 0
1, 9312, Note_on_c, 1, 57, 64
1, 9312, Note_on_c, 1, 45, 64
1, 9313, Note_on_c, 0, 79, 0
1, 9314, Note_on_c, 0, 77, 64
1, 9327, Note_on_c, 0, 77, 0
1, 9328, Note_on_c, 0, 79, 64
1, 9341, Note_on_c, 0, 79, 0
1, 9342, Note_on_c, 0, 77, 64
1, 9355, Note_on_c, 0, 77, 0
1, 9356, Note_on_c, 0, 76, 64
1, 9381, Note_on_c, 0, 76, 0
1, 9382, Note_on_c, 0, 77, 64
1, 9401, Note_on_c, 1, 57, 0
1, 9401, Note_on_c, 1, 45, 0
1, 9407, Note_on_c, 0, 77, 0
1, 9408, Note_on_c, 0, 82, 64
1, 9408, Note_on_c, 1, 60, 64
1, 9408, Note_on_c, 1, 48, 64
1, 9438, Note_on_c, 0, 82, 0
1, 9440, Note_on_c, 0, 79, 64
1, 9470, Note_on_c, 0, 79, 0
1, 9472, Note_on_c, 0, 76, 64
1, 9497, Note_on_c, 1, 60, 0
1, 9497, Note_on_c, 1, 48, 0
1, 9502, Note_on_c, 0, 76, 0
1, 9504, Note_on_c, 0, 77, 64
1, 9504, Note_on_c, 1, 65, 64
1, 9504, Note_on_c, 1, 53, 64
1, 9549, Note_on_c, 0, 77, 0
1, 9552, Note_on_c, 0, 81, 64
1, 9593, Note_on_c, 1, 65, 0
1, 9593, Note_on_c, 1, 53, 0
1, 9597, Note_on_c, 0, 81, 0
1, 9600, Note_on_c, 0, 72, 64
1, 9689, Note_on_c, 0, 72, 0
1, 9696, Note_on_c, 0, 74, 64
1, 9696, Note_on_c, 1, 58, 64
1, 9696, Note_on_c, 1, 46, 64
1, 9726, Note_on_c, 0, 74, 0
1, 9728, Note_on_c, 0, 76, 64
1, 9758, Note_on_c, 0, 76, 0
1, 9760, Note_on_c, 0, 77, 64
1, 9785, Note_on_c, 1, 58, 0
1, 9785, Note_on_c, 1, 46, 0
1, 9790, Note_on_c, 0, 77, 0
1, 9792, Note_on_c, 0, 77, 64
1, 9792, Note_on_c, 1, 57, 64
1, 9792, Note_on_c, 1, 45, 64
1, 9822, Note_on_c, 0, 77, 0
1, 9824, Note_on_c, 0, 76, 64
1, 9854, Note_on_c, 0, 76, 0
1, 9856, Note_on_c, 0, 74, 64
1, 9881, Note_on_c, 1, 57, 0
1, 9881, Note_on_c, 1, 45, 0
1, 9886, Note_on_c, 0, 74, 0
1, 9888, Note_on_c, 0, 72, 64
1, 9888, Note_on_c, 1, 65, 64
1, 9888, Note_on_c, 1, 53, 64
1, 9977, Note_on_c, 0, 72, 0
1, 9977, Note_on_c, 1, 65, 0
1, 9977, Note_on_c, 1, 53, 0
1, 9984, Note_on_c, 0, 74, 64
1, 9984, Note_on_c, 1, 58, 64
1, 9984, Note_on_c, 1, 46, 64
1, 10014, Note_on_c, 0, 74, 0
1, 10016, Note_on_c, 0, 76, 64
1, 10046, Note_on_c, 0, 76, 0
1, 10048, Note_on_c, 0, 77, 64
1, 10073, Note_on_c, 1, 58, 0
1, 10073, Note_on_c, 1, 46, 0
1, 10078, Note_on_c, 0, 77, 0
1, 10080, Note_on_c, 0, 77, 64
1, 10080, Note_on_c, 1, 57, 64
1, 10080, Note_on_c, 1, 45, 64
1, 10110, Note_on_c, 0, 77, 0
1, 10112, Note_on_c, 0, 76, 64
1, 10142, Note_on_c, 0, 76, 0
1, 10144, Note_on_c, 0, 74, 64
1, 10169, Note_on_c, 1, 57, 0
1, 10169, Note_on_c, 1, 45, 0
1, 10174, Note_on_c, 0, 74, 0
1, 10176, Note_on_c, 0, 72, 64
1, 10176, Note_on_c, 1, 65, 64
1, 10176, Note_on_c, 1, 53, 64
1, 10206, Note_on_c, 0, 72, 0
1, 10208, Note_on_c, 0, 77, 64
1, 10238, Note_on_c, 0, 77, 0
1, 10240, Note_on_c, 0, 81, 64
1, 10265, Note_on_c, 1, 65, 0
1, 10265, Note_on_c, 1, 53, 0
1, 10270, Note_on_c, 0, 81, 0
1, 10272, Note_on_c, 0, 72, 64
1, 10272, Note_on_c, 1, 64, 64
1, 10272, Note_on_c, 1, 52, 64
1, 10302, Note_on_c, 0, 72, 0
1, 10304, Note_on_c, 0, 79, 64
1, 10334, Note_on_c, 0, 79, 0
1, 10336, Note_on_c, 0, 82, 64
1, 10361, Note_on_c, 1, 64, 0
1, 10361, Note_on_c, 1, 52, 0
1, 10366, Note_on_c, 0, 82, 0
1, 10368, Note_on_c, 0, 81, 64
1, 10368, Note_on_c, 1, 65, 64
1, 10368, Note_on_c, 1, 53, 64
1, 10398, Note_on_c, 0, 81, 0
1, 10400, Note_on_c, 0, 82, 64
1, 10430, Note_on_c, 0, 82, 0
1, 10432, Note_on_c, 0, 84, 64
1, 10457, Note_on_c, 1, 65, 0
1, 10457, Note_on_c, 1, 53, 0
1, 10462, Note_on_c, 0, 84, 0
1, 10464, Note_on_c, 0, 77, 64
1, 10464, Note_on_c, 1, 57, 64
1, 10464, Note_on_c, 1, 48, 64
1, 10553, Note_on_c, 0, 77, 0
1, 10553, Note_on_c, 1, 57, 0
1, 10553, Note_on_c, 1, 48, 0
1, 10560, Note_on_c, 0, 76, 64
1, 10560, Note_on_c, 1, 55, 64
1, 10560, Note_on_c, 1, 48, 64
1, 10573, Note_on_c, 0, 76, 0
1, 10574, Note_on_c, 0, 77, 64
1, 10587, Note_on_c, 0, 77, 0
1, 10588, Note_on_c, 0, 76, 64
1, 10601, Note_on_c, 0, 76, 0
1, 10602, Note_on_c, 0, 77, 64
1, 10615, Note_on_c, 0, 77, 0
1, 10616, Note_on_c, 0, 76, 64
1, 10629, Note_on_c, 0, 76, 0
1, 10630, Note_on_c, 0, 74, 64
1, 10642, Note_on_c, 0, 74, 0
1, 10643, Note_on_c, 0, 76, 64
1, 10649, Note_on_c, 1, 55, 0
1, 10649, Note_on_c, 1, 48, 0
1, 10655, Note_on_c, 0, 76, 0
1, 10656, Note_on_c, 0, 77, 64
1, 10656, Note_on_c, 1, 53, 64
1, 10745, Note_on_c, 1, 53, 0
1, 10752, Note_on_c, 1, 48, 64
1, 10833, Note_on_c, 0, 77, 0
1, 10841, Note_on_c, 1, 48, 0
1, 10848, Note_on_c, 1, 41, 64
1, 10937, Note_on_c, 1, 41, 0
1, 10944, Note_on_c, 0, 72, 64
1, 10944, Note_on_c, 1, 60, 64
1, 11040, Note_on_c, 1, 67, 64
1, 11121, Note_on_c, 0, 72, 0
1, 11136, Note_on_c, 0, 79, 64
1, 11136, Note_on_c, 1, 67, 0
1, 11136, Note_on_c, 1, 70, 64
1, 11166, Note_on_c, 0, 79, 0
1, 11168, Note_on_c, 0, 76, 64
1, 11198, Note_on_c, 0, 76, 0
1, 11200, Note_on_c, 0, 72, 64
1, 11230, Note_on_c, 0, 72, 0
1, 11232, Note_on_c, 0, 81, 64
1, 11232, Note_on_c, 1, 70, 0
1, 11232, Note_on_c, 1, 69, 64
1, 11262, Note_on_c, 0, 81, 0
1, 11264, Note_on_c, 0, 77, 64
1, 11294, Note_on_c, 0, 77, 0
1, 11296, Note_on_c, 0, 72, 64
1, 11326, Note_on_c, 0, 72, 0
1, 11328, Note_on_c, 0, 82, 64
1, 11328, Note_on_c, 1, 69, 0
1, 11328, Note_on_c, 1, 64, 64
1, 11358, Note_on_c, 0, 82, 0
1, 11360, Note_on_c, 0, 81, 64
1, 11390, Note_on_c, 0, 81, 0
1, 11392, Note_on_c, 0, 79, 64
1, 11417, Note_on_c, 1, 64, 0
1, 11417, Note_on_c, 1, 60, 0
1, 11422, Note_on_c, 0, 79, 0
1, 11424, Note_on_c, 0, 81, 64
1, 11424, Note_on_c, 1, 65, 64
1, 11513, Note_on_c, 0, 81, 0
1, 11513, Note_on_c, 1, 65, 0
1, 11520, Note_on_c, 0, 79, 64
1, 11520, Note_on_c, 1, 58, 64
1, 11550, Note_on_c, 0, 79, 0
1, 11552, Note_on_c, 0, 82, 64
1, 11582, Note_on_c, 0, 82, 0
1, 11584, Note_on_c, 0, 81, 64
1, 11614, Note_on_c, 0, 81, 0
1, 11616, Note_on_c, 0, 79, 64
1, 11646, Note_on_c, 0, 79, 0
1, 11648, Note_on_c, 0, 86, 64
1, 11678, Note_on_c, 0, 86, 0
1, 11680, Note_on_c, 0, 84, 64
1, 11697, Note_on_c, 1, 58, 0
1, 11710, Note_on_c, 0, 84, 0
1, 11712, Note_on_c, 0, 82, 64
1, 11712, Note_on_c, 1, 59, 64
1, 11742, Note_on_c, 0, 82, 0
1, 11744, Note_on_c, 0, 81, 64
1, 11774, Note_on_c, 0, 81, 0
1, 11776, Note_on_c, 0, 79, 64
1, 11801, Note_on_c, 1, 59, 0
1, 11806, Note_on_c, 0, 79, 0
1, 11808, Note_on_c, 0, 77, 64
1, 11808, Note_on_c, 1, 60, 64
1, 11897, Note_on_c, 1, 60, 0
1, 11904, Note_on_c, 0, 77, 0
1, 11904, Note_on_c, 0, 76, 64
1, 11904, Note_on_c, 1, 55, 64
1, 11993, Note_on_c, 0, 76, 0
1, 11993, Note_on_c, 1, 55, 0
1, 12000, Note_on_c, 1, 48, 64
1, 12089, Note_on_c, 1, 48, 0
1, 12096, Note_on_c, 1, 60, 64
1, 12144, Note_on_c, 0, 72, 64
1, 12185, Note_on_c, 1, 60, 0
1, 12192, Note_on_c, 1, 68, 64
1, 12233, Note_on_c, 0, 72, 0
1, 12240, Note_on_c, 0, 80, 64
1, 12281, Note_on_c, 1, 68, 0
1, 12288, Note_on_c, 1, 65, 64
1, 12329, Note_on_c, 0, 80, 0
1, 12336, Note_on_c, 0, 72, 64
1, 12377, Note_on_c, 1, 65, 0
1, 12384, Note_on_c, 1, 67, 64
1, 12429, Note_on_c, 0, 72, 0
1, 12432, Note_on_c, 0, 70, 64
1, 12473, Note_on_c, 1, 67, 0
1, 12477, Note_on_c, 0, 70, 0
1, 12480, Note_on_c, 0, 79, 64
1, 12480, Note_on_c, 1, 64, 64
1, 12525, Note_on_c, 0, 79, 0
1, 12528, Note_on_c, 0, 70, 64
1, 12569, Note_on_c, 1, 64, 0
1, 12576, Note_on_c, 1, 65, 64
1, 12617, Note_on_c, 0, 70, 0
1, 12624, Note_on_c, 0, 68, 64
1, 12665, Note_on_c, 1, 65, 0
1, 12672, Note_on_c, 1, 58, 64
1, 12717, Note_on_c, 0, 68, 0
1, 12720, Note_on_c, 0, 67, 64
1, 12765, Note_on_c, 0, 67, 0
1, 12768, Note_on_c, 0, 73, 64
1, 12813, Note_on_c, 0, 73, 0
1, 12816, Note_on_c, 0, 70, 64
1, 12849, Note_on_c, 1, 58, 0
1, 12861, Note_on_c, 0, 70, 0
1, 12864, Note_on_c, 0, 67, 64
1, 12864, Note_on_c, 1, 59, 64
1, 12909, Note_on_c, 0, 67, 0
1, 12912, Note_on_c, 0, 65, 64
1, 12953, Note_on_c, 1, 59, 0
1, 12957, Note_on_c, 0, 65, 0
1, 12960, Note_on_c, 0, 65, 64
1, 12960, Note_on_c, 1, 60, 64
1, 13049, Note_on_c, 1, 60, 0
1, 13056, Note_on_c, 0, 65, 0
1, 13056, Note_on_c, 0, 64, 64
1, 13056, Note_on_c, 1, 55, 64
1, 13145, Note_on_c, 0, 64, 0
1, 13145, Note_on_c, 1, 55, 0
1, 13152, Note_on_c, 1, 48, 64
1, 13241, Note_on_c, 1, 48, 0
1, 13248, Note_on_c, 0, 79, 64
1, 13248, Note_on_c, 1, 53, 64
1, 13248, Note_on_c, 1, 41, 64
1, 13261, Note_on_c, 0, 79, 0
1, 13262, Note_on_c, 0, 77, 64
1, 13275, Note_on_c, 0, 77, 0
1, 13276, Note_on_c, 0, 79, 64
1, 13289, Note_on_c, 0, 79, 0
1, 13290, Note_on_c, 0, 77, 64
1, 13303, Note_on_c, 0, 77, 0
1, 13304, Note_on_c, 0, 79, 64
1, 13317, Note_on_c, 0, 79, 0
1, 13318, Note_on_c, 0, 77, 64
1, 13331, Note_on_c, 0, 77, 0
1, 13332, Note_on_c, 0, 79, 64
1, 13337, Note_on_c, 1, 53, 0
1, 13337, Note_on_c, 1, 41, 0
1, 13344, Note_on_c, 1, 57, 64
1, 13344, Note_on_c, 1, 45, 64
1, 13345, Note_on_c, 0, 79, 0
1, 13346, Note_on_c, 0, 77, 64
1, 13359, Note_on_c, 0, 77, 0
1, 13360, Note_on_c, 0, 79, 64
1, 13373, Note_on_c, 0, 79, 0
1, 13374, Note_on_c, 0, 77, 64
1, 13387, Note_on_c, 0, 77, 0
1, 13388, Note_on_c, 0, 76, 64
1, 13413, Note_on_c, 0, 76, 0
1, 13414, Note_on_c, 0, 77, 64
1, 13433, Note_on_c, 1, 57, 0
1, 13433, Note_on_c, 1, 45, 0
1, 13439, Note_on_c, 0, 77, 0
1, 13440, Note_on_c, 0, 82, 64
1, 13440, Note_on_c, 1, 60, 64
1, 13440, Note_on_c, 1, 48, 64
1, 13470, Note_on_c, 0, 82, 0
1, 13472, Note_on_c, 0, 79, 64
1, 13502, Note_on_c, 0, 79, 0
1, 13504, Note_on_c, 0, 76, 64
1, 13529, Note_on_c, 1, 60, 0
1, 13529, Note_on_c, 1, 48, 0
1, 13534, Note_on_c, 0, 76, 0
1, 13536, Note_on_c, 0, 77, 64
1, 13536, Note_on_c, 1, 65, 64
1, 13536, Note_on_c, 1, 53, 64
1, 13581, Note_on_c, 0, 77, 0
1, 13584, Note_on_c, 0, 81, 64
1, 13625, Note_on_c, 1, 65, 0
1, 13625, Note_on_c, 1, 53, 0
1, 13629, Note_on_c, 0, 81, 0
1, 13632, Note_on_c, 0, 72, 64
1, 13721, Note_on_c, 0, 72, 0
1, 13728, Note_on_c, 0, 70, 64
1, 13728, Note_on_c, 1, 67, 64
1, 13741, Note_on_c, 0, 70, 0
1, 13742, Note_on_c, 0, 72, 64
1, 13755, Note_on_c, 0, 72, 0
1, 13756, Note_on_c, 0, 70, 64
1, 13769, Note_on_c, 0, 70, 0
1, 13770, Note_on_c, 0, 72, 64
1, 13783, Note_on_c, 0, 72, 0
1, 13784, Note_on_c, 0, 70, 64
1, 13797, Note_on_c, 0, 70, 0
1, 13798, Note_on_c, 0, 69, 64
1, 13810, Note_on_c, 0, 69, 0
1, 13811, Note_on_c, 0, 70, 64
1, 13817, Note_on_c, 1, 67, 0
1, 13823, Note_on_c, 0, 70, 0
1, 13824, Note_on_c, 0, 69, 64
1, 13824, Note_on_c, 1, 65, 64
1, 13869, Note_on_c, 0, 69, 0
1, 13872, Note_on_c, 0, 72, 64
1, 13913, Note_on_c, 1, 65, 0
1, 13917, Note_on_c, 0, 72, 0
1, 13920, Note_on_c, 0, 77, 64
1, 13950, Note_on_c, 0, 77, 0
1, 13952, Note_on_c, 0, 76, 64
1, 13982, Note_on_c, 0, 76, 0
1, 13984, Note_on_c, 0, 74, 64
1, 14014, Note_on_c, 0, 74, 0
1, 14016, Note_on_c, 0, 72, 64
1, 14046, Note_on_c, 0, 72, 0
1, 14048, Note_on_c, 0, 70, 64
1, 14078, Note_on_c, 0, 70, 0
1, 14080, Note_on_c, 0, 69, 64
1, 14110, Note_on_c, 0, 69, 0
1, 14112, Note_on_c, 0, 67, 64
1, 14112, Note_on_c, 1, 64, 64
1, 14201, Note_on_c, 1, 64, 0
1, 14208, Note_on_c, 1, 60, 64
1, 14245, Note_on_c, 0, 67, 0
1, 14256, Note_on_c, 0, 69, 64
1, 14279, Note_on_c, 0, 69, 0
1, 14280, Note_on_c, 0, 70, 64
1, 14297, Note_on_c, 1, 60, 0
1, 14303, Note_on_c, 0, 70, 0
1, 14304, Note_on_c, 0, 69, 64
1, 14304, Note_on_c, 1, 65, 64
1, 14393, Note_on_c, 0, 69, 0
1, 14393, Note_on_c, 1, 65, 0
1, 14400, Note_on_c, 0, 79, 64
1, 14400, Note_on_c, 1, 53, 64
1, 14400, Note_on_c, 1, 41, 64
1, 14413, Note_on_c, 0, 79, 0
1, 14414, Note_on_c, 0, 77, 64
1, 14427, Note_on_c, 0, 77, 0
1, 14428, Note_on_c, 0, 79, 64
1, 14441, Note_on_c, 0, 79, 0
1, 14442, Note_on_c, 0, 77, 64
1, 14455, Note_on_c, 0, 77, 0
1, 14456, Note_on_c, 0, 79, 64
1, 14469, Note_on_c, 0, 79, 0
1, 14470, Note_on_c, 0, 77, 64
1, 14483, Note_on_c, 0, 77, 0
1, 14484, Note_on_c, 0, 79, 64
1, 14489, Note_on_c, 1, 53, 0
1, 14489, Note_on_c, 1, 41, 0
1, 14496, Note_on_c, 1, 57, 64
1, 14496, Note_on_c, 1, 45, 64
1, 14497, Note_on_c, 0, 79, 0
1, 14498, Note_on_c, 0, 77, 64
1, 14511, Note_on_c, 0, 77, 0
1, 14512, Note_on_c, 0, 79, 64
1, 14525, Note_on_c, 0, 79, 0
1, 14526, Note_on_c, 0, 77, 64
1, 14539, Note_on_c, 0, 77, 0
1, 14540, Note_on_c, 0, 76, 64
1, 14565, Note_on_c, 0, 76, 0
1, 14566, Note_on_c, 0, 77, 64
1, 14585, Note_on_c, 1, 57, 0
1, 14585, Note_on_c, 1, 45, 0
1, 14591, Note_on_c, 0, 77, 0
1, 14592, Note_on_c, 0, 82, 64
1, 14592, Note_on_c, 1, 60, 64
1, 14592, Note_on_c, 1, 48, 64
1, 14622, Note_on_c, 0, 82, 0
1, 14624, Note_on_c, 0, 79, 64
1, 14654, Note_on_c, 0, 79, 0
1, 14656, Note_on_c, 0, 76, 64
1, 14681, Note_on_c, 1, 60, 0
1, 14681, Note_on_c, 1, 48, 0
1, 14686, Note_on_c, 0, 76, 0
1, 14688, Note_on_c, 0, 77, 64
1, 14688, Note_on_c, 1, 65, 64
1, 14688, Note_on_c, 1, 53, 64
1, 14733, Note_on_c, 0, 77, 0
1, 14736, Note_on_c, 0, 81, 64
1, 14777, Note_on_c, 1, 65, 0
1, 14777, Note_on_c, 1, 53, 0
1, 14781, Note_on_c, 0, 81, 0
1, 14784, Note_on_c, 0, 72, 64
1, 14873, Note_on_c, 0, 72, 0
1, 14880, Note_on_c, 0, 74, 64
1, 14880, Note_on_c, 1, 58, 64
1, 14880, Note_on_c, 1, 46, 64
1, 14910, Note_on_c, 0, 74, 0
1, 14912, Note_on_c, 0, 76, 64
1, 14942, Note_on_c, 0, 76, 0
1, 14944, Note_on_c, 0, 77, 64
1, 14969, Note_on_c, 1, 58, 0
1, 14969, Note_on_c, 1, 46, 0
1, 14974, Note_on_c, 0, 77, 0
1, 14976, Note_on_c, 0, 77, 64
1, 14976, Note_on_c, 1, 57, 64
1, 14976, Note_on_c, 1, 45, 64
1, 15006, Note_on_c, 0, 77, 0
1, 15008, Note_on_c, 0, 76, 64
1, 15038, Note_on_c, 0, 76, 0
1, 15040, Note_on_c, 0, 74, 64
1, 15065, Note_on_c, 1, 57, 0
1, 15065, Note_on_c, 1, 45, 0
1, 15070, Note_on_c, 0, 74, 0
1, 15072, Note_on_c, 0, 72, 64
1, 15072, Note_on_c, 1, 65, 64
1, 15072, Note_on_c, 1, 53, 64
1, 15161, Note_on_c, 0, 72, 0
1, 15161, Note_on_c, 1, 65, 0
1, 15161, Note_on_c, 1, 53, 0
1, 15168, Note_on_c, 0, 74, 64
1, 15168, Note_on_c, 1, 58, 64
1, 15168, Note_on_c, 1, 46, 64
1, 15198, Note_on_c, 0, 74, 0
1, 15200, Note_on_c, 0, 76, 64
1, 15230, Note_on_c, 0, 76, 0
1, 15232, Note_on_c, 0, 77, 64
1, 15257, Note_on_c, 1, 58, 0
1, 15257, Note_on_c, 1, 46, 0
1, 15262, Note_on_c, 0, 77, 0
1, 15264, Note_on_c, 0, 77, 64
1, 15264, Note_on_c, 1, 57, 64
1, 15264, Note_on_c, 1, 45, 64
1, 15294, Note_on_c, 0, 77, 0
1, 15296, Note_on_c, 0, 76, 64
1, 15326, Note_on_c, 0, 76, 0
1, 15328, Note_on_c, 0, 74, 64
1, 15353, Note_on_c, 1, 57, 0
1, 15353, Note_on_c, 1, 45, 0
1, 15358, Note_on_c, 0, 74, 0
1, 15360, Note_on_c, 0, 72, 64
1, 15360, Note_on_c, 1, 65, 64
1, 15360, Note_on_c, 1, 53, 64
1, 15390, Note_on_c, 0, 72, 0
1, 15392, Note_on_c, 0, 77, 64
1, 15422, Note_on_c, 0, 77, 0
1, 15424, Note_on_c, 0, 81, 64
1, 15449, Note_on_c, 1, 65, 0
1, 15449, Note_on_c, 1, 53, 0
1, 15454, Note_on_c, 0, 81, 0
1, 15456, Note_on_c, 0, 72, 64
1, 15456, Note_on_c, 1, 64, 64
1, 15456, Note_on_c, 1, 52, 64
1, 15486, Note_on_c, 0, 72, 0
1, 15488, Note_on_c, 0, 79, 64
1, 15518, Note_on_c, 0, 79, 0
1, 15520, Note_on_c, 0, 82, 64
1, 15545, Note_on_c, 1, 64, 0
1, 15545, Note_on_c, 1, 52, 0
1, 15550, Note_on_c, 0, 82, 0
1, 15552, Note_on_c, 0, 81, 64
1, 15552, Note_on_c, 1, 65, 64
1, 15552, Note_on_c, 1, 53, 64
1, 15582, Note_on_c, 0, 81, 0
1, 15584, Note_on_c, 0, 82, 64
1, 15614, Note_on_c, 0, 82, 0
1, 15616, Note_on_c, 0, 84, 64
1, 15641, Note_on_c, 1, 65, 0
1, 15641, Note_on_c, 1, 53, 0
1, 15646, Note_on_c, 0, 84, 0
1, 15648, Note_on_c, 0, 77, 64
1, 15648, Note_on_c, 1, 57, 64
1, 15648, Note_on_c, 1, 48, 64
1, 15737, Note_on_c, 0, 77, 0
1, 15737, Note_on_c, 1, 57, 0
1, 15737, Note_on_c, 1, 48, 0
1, 15744, Note_on_c, 0, 76, 64
1, 15744, Note_on_c, 1, 55, 64
1, 15744, Note_on_c, 1, 48, 64
1, 15757, Note_on_c, 0, 76, 0
1, 15758, Note_on_c, 0, 77, 64
1, 15771, Note_on_c, 0, 77, 0
1, 15772, Note_on_c, 0, 76, 64
1, 15785, Note_on_c, 0, 76, 0
1, 15786, Note_on_c, 0, 77, 64
1, 15799, Note_on_c, 0, 77, 0
1, 15800, Note_on_c, 0, 76, 64
1, 15813, Note_on_c, 0, 76, 0
1, 15814, Note_on_c, 0, 74, 64
1, 15826, Note_on_c, 0, 74, 0
1, 15827, Note_on_c, 0, 76, 64
1, 15833, Note_on_c, 1, 55, 0
1, 15833, Note_on_c, 1, 48, 0
1, 15839, Note_on_c, 0, 76, 0
1, 15840, Note_on_c, 0, 77, 64
1, 15840, Note_on_c, 1, 53, 64
1, 15929, Note_on_c, 1, 53, 0
1, 15936, Note_on_c, 1, 48, 64
1, 16017, Note_on_c, 0, 77, 0
1, 16025, Note_on_c, 1, 48, 0
1, 16032, Note_on_c, 1, 41, 64
1, 16121, Note_on_c, 1, 41, 0
1, 16128, Note_on_c, 1, 46, 64
1, 16128, Note_on_c, 1, 34, 64
1, 16224, Note_on_c, 0, 77, 64
1, 16224, Note_on_c, 0, 74, 64
1, 16305, Note_on_c, 1, 46, 0
1, 16305, Note_on_c, 1, 34, 0
1, 16313, Note_on_c, 0, 77, 0
1, 16313, Note_on_c, 0, 74, 0
1, 16320, Note_on_c, 0, 82, 64
1, 16320, Note_on_c, 1, 63, 64
1, 16350, Note_on_c, 0, 82, 0
1, 16352, Note_on_c, 0, 81, 64
1, 16382, Note_on_c, 0, 81, 0
1, 16384, Note_on_c, 0, 79, 64
1, 16409, Note_on_c, 1, 63, 0
1, 16414, Note_on_c, 0, 79, 0
1, 16416, Note_on_c, 0, 77, 64
1, 16416, Note_on_c, 1, 62, 64
1, 16505, Note_on_c, 0, 77, 0
1, 16505, Note_on_c, 1, 62, 0
1, 16512, Note_on_c, 0, 74, 64
1, 16512, Note_on_c, 1, 58, 64
1, 16542, Note_on_c, 0, 74, 0
1, 16544, Note_on_c, 0, 75, 64
1, 16574, Note_on_c, 0, 75, 0
1, 16576, Note_on_c, 0, 77, 64
1, 16601, Note_on_c, 1, 58, 0
1, 16606, Note_on_c, 0, 77, 0
1, 16608, Note_on_c, 0, 75, 64
1, 16608, Note_on_c, 1, 60, 64
1, 16638, Note_on_c, 0, 75, 0
1, 16640, Note_on_c, 0, 77, 64
1, 16670, Note_on_c, 0, 77, 0
1, 16672, Note_on_c, 0, 79, 64
1, 16697, Note_on_c, 1, 60, 0
1, 16702, Note_on_c, 0, 79, 0
1, 16704, Note_on_c, 0, 77, 64
1, 16704, Note_on_c, 1, 62, 64
1, 16793, Note_on_c, 0, 77, 0
1, 16793, Note_on_c, 1, 62, 0
1, 16800, Note_on_c, 0, 70, 64
1, 16889, Note_on_c, 0, 70, 0
1, 16896, Note_on_c, 0, 70, 64
1, 16985, Note_on_c, 0, 70, 0
1, 16992, Note_on_c, 0, 69, 64
1, 16992, Note_on_c, 1, 63, 64
1, 16992, Note_on_c, 1, 53, 64
1, 17022, Note_on_c, 0, 69, 0
1, 17024, Note_on_c, 0, 70, 64
1, 17054, Note_on_c, 0, 70, 0
1, 17056, Note_on_c, 0, 72, 64
1, 17081, Note_on_c, 1, 63, 0
1, 17081, Note_on_c, 1, 53, 0
1, 17086, Note_on_c, 0, 72, 0
1, 17088, Note_on_c, 0, 70, 64
1, 17088, Note_on_c, 1, 62, 64
1, 17088, Note_on_c, 1, 58, 64
1, 17177, Note_on_c, 0, 70, 0
1, 17177, Note_on_c, 1, 62, 0
1, 17177, Note_on_c, 1, 58, 0
1, 17280, Note_on_c, 0, 72, 64
1, 17280, Note_on_c, 1, 53, 64
1, 17310, Note_on_c, 1, 53, 0
1, 17312, Note_on_c, 1, 57, 64
1, 17342, Note_on_c, 1, 57, 0
1, 17344, Note_on_c, 1, 60, 64
1, 17369, Note_on_c, 0, 72, 0
1, 17374, Note_on_c, 1, 60, 0
1, 17376, Note_on_c, 0, 81, 64
1, 17376, Note_on_c, 1, 53, 64
1, 17406, Note_on_c, 1, 53, 0
1, 17408, Note_on_c, 1, 57, 64
1, 17438, Note_on_c, 1, 57, 0
1, 17440, Note_on_c, 1, 60, 64
1, 17465, Note_on_c, 0, 81, 0
1, 17470, Note_on_c, 1, 60, 0
1, 17472, Note_on_c, 0, 69, 64
1, 17472, Note_on_c, 1, 53, 64
1, 17502, Note_on_c, 1, 53, 0
1, 17504, Note_on_c, 1, 57, 64
1, 17534, Note_on_c, 1, 57, 0
1, 17536, Note_on_c, 1, 60, 64
1, 17561, Note_on_c, 0, 69, 0
1, 17566, Note_on_c, 1, 60, 0
1, 17568, Note_on_c, 0, 70, 64
1, 17568, Note_on_c, 1, 52, 64
1, 17598, Note_on_c, 1, 52, 0
1, 17600, Note_on_c, 1, 55, 64
1, 17630, Note_on_c, 1, 55, 0
1, 17632, Note_on_c, 1, 60, 64
1, 17657, Note_on_c, 0, 70, 0
1, 17662, Note_on_c, 1, 60, 0
1, 17664, Note_on_c, 0, 79, 64
1, 17664, Note_on_c, 1, 52, 64
1, 17694, Note_on_c, 1, 52, 0
1, 17696, Note_on_c, 1, 55, 64
1, 17726, Note_on_c, 1, 55, 0
1, 17728, Note_on_c, 1, 60, 64
1, 17753, Note_on_c, 0, 79, 0
1, 17758, Note_on_c, 1, 60, 0
1, 17760, Note_on_c, 0, 70, 64
1, 17760, Note_on_c, 1, 52, 64
1, 17790, Note_on_c, 1, 52, 0
1, 17792, Note_on_c, 1, 55, 64
1, 17822, Note_on_c, 1, 55, 0
1, 17824, Note_on_c, 1, 60, 64
1, 17849, Note_on_c, 0, 70, 0
1, 17854, Note_on_c, 1, 60, 0
1, 17856, Note_on_c, 0, 69, 64
1, 17856, Note_on_c, 1, 53, 64
1, 17886, Note_on_c, 0, 69, 0
1, 17888, Note_on_c, 0, 70, 64
1, 17918, Note_on_c, 0, 70, 0
1, 17920, Note_on_c, 0, 72, 64
1, 17945, Note_on_c, 1, 53, 0
1, 17950, Note_on_c, 0, 72, 0
1, 17952, Note_on_c, 0, 65, 64
1, 17952, Note_on_c, 1, 57, 64
1, 17952, Note_on_c, 1, 48, 64
1, 18041, Note_on_c, 1, 57, 0
1, 18041, Note_on_c, 1, 48, 0
1, 18048, Note_on_c, 0, 65, 0
1, 18048, Note_on_c, 0, 64, 64
1, 18048, Note_on_c, 1, 55, 64
1, 18048, Note_on_c, 1, 48, 64
1, 18137, Note_on_c, 0, 64, 0
1, 18137, Note_on_c, 1, 55, 0
1, 18137, Note_on_c, 1, 48, 0
1, 18144, Note_on_c, 0, 65, 64
1, 18144, Note_on_c, 1, 53, 64
1, 18233, Note_on_c, 1, 53, 0
1, 18240, Note_on_c, 1, 48, 64
1, 18321, Note_on_c, 0, 65, 0
1, 18329, Note_on_c, 1, 48, 0
1, 18336, Note_on_c, 1, 41, 64
1, 18425, Note_on_c, 1, 41, 0
1, 18432, Note_on_c, 1, 46, 64
1, 18432, Note_on_c, 1, 34, 64
1, 18528, Note_on_c, 0, 77, 64
1, 18528, Note_on_c, 0, 74, 64
1, 18609, Note_on_c, 1, 46, 0
1, 18609, Note_on_c, 1, 34, 0
1, 18617, Note_on_c, 0, 77, 0
1, 18617, Note_on_c, 0, 74, 0
1, 18624, Note_on_c, 0, 82, 64
1, 18624, Note_on_c, 1, 63, 64
1, 18654, Note_on_c, 0, 82, 0
1, 18656, Note_on_c, 0, 81, 64
1, 18686, Note_on_c, 0, 81, 0
1, 18688, Note_on_c, 0, 79, 64
1, 18713, Note_on_c, 1, 63, 0
1, 18718, Note_on_c, 0, 79, 0
1, 18720, Note_on_c, 0, 77, 64
1, 18720, Note_on_c, 1, 62, 64
1, 18809, Note_on_c, 0, 77, 0
1, 18809, Note_on_c, 1, 62, 0
1, 18816, Note_on_c, 0, 74, 64
1, 18816, Note_on_c, 1, 58, 64
1, 18846, Note_on_c, 0, 74, 0
1, 18848, Note_on_c, 0, 75, 64
1, 18878, Note_on_c, 0, 75, 0
1, 18880, Note_on_c, 0, 77, 64
1, 18905, Note_on_c, 1, 58, 0
1, 18910, Note_on_c, 0, 77, 0
1, 18912, Note_on_c, 0, 75, 64
1, 18912, Note_on_c, 1, 60, 64
1, 18942, Note_on_c, 0, 75, 0
1, 18944, Note_on_c, 0, 77, 64
1, 18974, Note_on_c, 0, 77, 0
1, 18976, Note_on_c, 0, 79, 64
1, 19001, Note_on_c, 1, 60, 0
1, 19006, Note_on_c, 0, 79, 0
1, 19008, Note_on_c, 0, 77, 64
1, 19008, Note_on_c, 1, 62, 64
1, 19097, Note_on_c, 0, 77, 0
1, 19097, Note_on_c, 1, 62, 0
1, 19104, Note_on_c, 0, 70, 64
1, 19193, Note_on_c, 0, 70, 0
1, 19200, Note_on_c, 0, 70, 64
1, 19289, Note_on_c, 0, 70, 0
1, 19296, Note_on_c, 0, 69, 64
1, 19296, Note_on_c, 1, 63, 64
1, 19296, Note_on_c, 1, 53, 64
1, 19326, Note_on_c, 0, 69, 0
1, 19328, Note_on_c, 0, 70, 64
1, 19358, Note_on_c, 0, 70, 0
1, 19360, Note_on_c, 0, 72, 64
1, 19385, Note_on_c, 1, 63, 0
1, 19385, Note_on_c, 1, 53, 0
1, 19390, Note_on_c, 0, 72, 0
1, 19392, Note_on_c, 0, 70, 64
1, 19392, Note_on_c, 1, 62, 64
1, 19392, Note_on_c, 1, 58, 64
1, 19481, Note_on_c, 0, 70, 0
1, 19481, Note_on_c, 1, 62, 0
1, 19481, Note_on_c, 1, 58, 0
1, 19584, Note_on_c, 0, 72, 64
1, 19584, Note_on_c, 1, 53, 64
1, 19614, Note_on_c, 1, 53, 0
1, 19616, Note_on_c, 1, 57, 64
1, 19646, Note_on_c, 1, 57, 0
1, 19648, Note_on_c, 1, 60, 64
1, 19673, Note_on_c, 0, 72, 0
1, 19678, Note_on_c, 1, 60, 0
1, 19680, Note_on_c, 0, 81, 64
1, 19680, Note_on_c, 1, 53, 64
1, 19710, Note_on_c, 1, 53, 0
1, 19712, Note_on_c, 1, 57, 64
1, 19742, Note_on_c, 1, 57, 0
1, 19744, Note_on_c, 1, 60, 64
1, 19769, Note_on_c, 0, 81, 0
1, 19774, Note_on_c, 1, 60, 0
1, 19776, Note_on_c, 0, 69, 64
1, 19776, Note_on_c, 1, 53, 64
1, 19806, Note_on_c, 1, 53, 0
1, 19808, Note_on_c, 1, 57, 64
1, 19838, Note_on_c, 1, 57, 0
1, 19840, Note_on_c, 1, 60, 64
1, 19865, Note_on_c, 0, 69, 0
1, 19870, Note_on_c, 1, 60, 0
1, 19872, Note_on_c, 0, 70, 64
1, 19872, Note_on_c, 1, 52, 64
1, 19902, Note_on_c, 1, 52, 0
1, 19904, Note_on_c, 1, 55, 64
1, 19934, Note_on_c, 1, 55, 0
1, 19936, Note_on_c, 1, 60, 64
1, 19961, Note_on_c, 0, 70, 0
1, 19966, Note_on_c, 1, 60, 0
1, 19968, Note_on_c, 0, 79, 64
1, 19968, Note_on_c, 1, 52, 64
1, 19998, Note_on_c, 1, 52, 0
1, 20000, Note_on_c, 1, 55, 64
1, 20030, Note_on_c, 1, 55, 0
1, 20032, Note_on_c, 1, 60, 64
1, 20057, Note_on_c, 0, 79, 0
1, 20062, Note_on_c, 1, 60, 0
1, 20064, Note_on_c, 0, 70, 64
1, 20064, Note_on_c, 1, 52, 64
1, 20094, Note_on_c, 1, 52, 0
1, 20096, Note_on_c, 1, 55, 64
1, 20126, Note_on_c, 1, 55, 0
1, 20128, Note_on_c, 1, 60, 64
1, 20153, Note_on_c, 0, 70, 0
1, 20158, Note_on_c, 1, 60, 0
1, 20160, Note_on_c, 0, 69, 64
1, 20160, Note_on_c, 1, 53, 64
1, 20190, Note_on_c, 0, 69, 0
1, 20192, Note_on_c, 0, 70, 64
1, 20222, Note_on_c, 0, 70, 0
1, 20224, Note_on_c, 0, 72, 64
1, 20249, Note_on_c, 1, 53, 0
1, 20254, Note_on_c, 0, 72, 0
1, 20256, Note_on_c, 0, 65, 64
1, 20256, Note_on_c, 1, 57, 64
1, 20256, Note_on_c, 1, 48, 64
1, 20345, Note_on_c, 1, 57, 0
1, 20345, Note_on_c, 1, 48, 0
1, 20352, Note_on_c, 0, 65, 0
1, 20352, Note_on_c, 0, 64, 64
1, 20352, Note_on_c, 1, 55, 64
1, 20352, Note_on_c, 1, 48, 64
1, 20441, Note_on_c, 0, 64, 0
1, 20441, Note_on_c, 1, 55, 0
1, 20441, Note_on_c, 1, 48, 0
1, 20448, Note_on_c, 0, 65, 64
1, 20448, Note_on_c, 1, 53, 64
1, 20537, Note_on_c, 1, 53, 0
1, 20544, Note_on_c, 1, 48, 64
1, 20625, Note_on_c, 0, 65, 0
1, 20633, Note_on_c, 1, 48, 0
1, 20640, Note_on_c, 1, 41, 64
1, 20729, Note_on_c, 1, 41, 0
1, 20736, Note_on_c, 0, 77, 64
1, 20736, Note_on_c, 1, 50, 64
1, 20766, Note_on_c, 0, 77, 0
1, 20768, Note_on_c, 0, 75, 64
1, 20798, Note_on_c, 0, 75, 0
1, 20800, Note_on_c, 0, 74, 64
1, 20825, Note_on_c, 1, 50, 0
1, 20830, Note_on_c, 0, 74, 0
1, 20832, Note_on_c, 0, 77, 65
1, 20832, Note_on_c, 1, 58, 64
1, 20862, Note_on_c, 0, 77, 0
1, 20864, Note_on_c, 0, 75, 66
1, 20894, Note_on_c, 0, 75, 0
1, 20896, Note_on_c, 0, 74, 67
1, 20921, Note_on_c, 1, 58, 0
1, 20926, Note_on_c, 0, 74, 0
1, 20928, Note_on_c, 0, 72, 68
1, 20928, Note_on_c, 1, 50, 66
1, 20958, Note_on_c, 0, 72, 0
1, 20960, Note_on_c, 0, 70, 68
1, 20990, Note_on_c, 0, 70, 0
1, 20992, Note_on_c, 0, 68, 69
1, 21017, Note_on_c, 1, 50, 0
1, 21022, Note_on_c, 0, 68, 0
1, 21024, Note_on_c, 0, 67, 70
1, 21024, Note_on_c, 1, 51, 69
1, 21054, Note_on_c, 0, 67, 0
1, 21056, Note_on_c, 0, 66, 71
1, 21086, Note_on_c, 0, 66, 0
1, 21088, Note_on_c, 0, 67, 72
1, 21113, Note_on_c, 1, 51, 0
1, 21118, Note_on_c, 0, 67, 0
1, 21120, Note_on_c, 0, 72, 73
1, 21120, Note_on_c, 1, 55, 71
1, 21150, Note_on_c, 0, 72, 0
1, 21152, Note_on_c, 0, 71, 73
1, 21182, Note_on_c, 0, 71, 0
1, 21184, Note_on_c, 0, 72, 74
1, 21209, Note_on_c, 1, 55, 0
1, 21214, Note_on_c, 0, 72, 0
1, 21216, Note_on_c, 0, 75, 75
1, 21216, Note_on_c, 1, 60, 74
1, 21246, Note_on_c, 0, 75, 0
1, 21248, Note_on_c, 0, 74, 76
1, 21278, Note_on_c, 0, 74, 0
1, 21280, Note_on_c, 0, 75, 77
1, 21305, Note_on_c, 1, 60, 0
1, 21310, Note_on_c, 0, 75, 0
1, 21312, Note_on_c, 0, 79, 77
1, 21312, Note_on_c, 1, 51, 77
1, 21342, Note_on_c, 0, 79, 0
1, 21344, Note_on_c, 0, 77, 78
1, 21374, Note_on_c, 0, 77, 0
1, 21376, Note_on_c, 0, 75, 79
1, 21401, Note_on_c, 1, 51, 0
1, 21406, Note_on_c, 0, 75, 0
1, 21408, Note_on_c, 0, 79, 80
1, 21408, Note_on_c, 1, 60, 79
1, 21438, Note_on_c, 0, 79, 0
1, 21440, Note_on_c, 0, 77, 81
1, 21470, Note_on_c, 0, 77, 0
1, 21472, Note_on_c, 0, 75, 82
1, 21497, Note_on_c, 1, 60, 0
1, 21502, Note_on_c, 0, 75, 0
1, 21504, Note_on_c, 0, 74, 82
1, 21504, Note_on_c, 1, 52, 82
1, 21534, Note_on_c, 0, 74, 0
1, 21536, Note_on_c, 0, 72, 85
1, 21566, Note_on_c, 0, 72, 0
1, 21568, Note_on_c, 0, 70, 82
1, 21593, Note_on_c, 1, 52, 0
1, 21598, Note_on_c, 0, 70, 0
1, 21600, Note_on_c, 0, 70, 80
1, 21600, Note_on_c, 1, 53, 85
1, 21689, Note_on_c, 1, 53, 0
1, 21696, Note_on_c, 0, 70, 0
1, 21696, Note_on_c, 0, 69, 72
1, 21696, Note_on_c, 1, 48, 74
1, 21785, Note_on_c, 0, 69, 0
1, 21785, Note_on_c, 1, 48, 0
1, 21792, Note_on_c, 1, 41, 64
1, 21881, Note_on_c, 1, 41, 0
1, 21888, Note_on_c, 0, 77, 64
1, 21888, Note_on_c, 1, 58, 64
1, 21918, Note_on_c, 1, 58, 0
1, 21920, Note_on_c, 1, 62, 64
1, 21950, Note_on_c, 1, 62, 0
1, 21952, Note_on_c, 1, 65, 64
1, 21977, Note_on_c, 0, 77, 0
1, 21982, Note_on_c, 1, 65, 0
1, 21984, Note_on_c, 0, 86, 64
1, 21984, Note_on_c, 1, 58, 64
1, 22014, Note_on_c, 1, 58, 0
1, 22016, Note_on_c, 1, 62, 64
1, 22046, Note_on_c, 1, 62, 0
1, 22048, Note_on_c, 1, 65, 64
1, 22073, Note_on_c, 0, 86, 0
1, 22078, Note_on_c, 1, 65, 0
1, 22080, Note_on_c, 0, 74, 64
1, 22080, Note_on_c, 1, 58, 64
1, 22110, Note_on_c, 1, 58, 0
1, 22112, Note_on_c, 1, 62, 64
1, 22142, Note_on_c, 1, 62, 0
1, 22144, Note_on_c, 1, 65, 64
1, 22169, Note_on_c, 0, 74, 0
1, 22174, Note_on_c, 1, 65, 0
1, 22176, Note_on_c, 0, 75, 64
1, 22176, Note_on_c, 1, 57, 64
1, 22206, Note_on_c, 1, 57, 0
1, 22208, Note_on_c, 1, 60, 64
1, 22238, Note_on_c, 1, 60, 0
1, 22240, Note_on_c, 1, 65, 64
1, 22265, Note_on_c, 0, 75, 0
1, 22270, Note_on_c, 1, 65, 0
1, 22272, Note_on_c, 0, 84, 64
1, 22272, Note_on_c, 1, 57, 64
1, 22302, Note_on_c, 1, 57, 0
1, 22304, Note_on_c, 1, 60, 64
1, 22334, Note_on_c, 1, 60, 0
1, 22336, Note_on_c, 1, 65, 64
1, 22361, Note_on_c, 0, 84, 0
1, 22366, Note_on_c, 1, 65, 0
1, 22368, Note_on_c, 0, 75, 64
1, 22368, Note_on_c, 1, 57, 64
1, 22398, Note_on_c, 1, 57, 0
1, 22400, Note_on_c, 1, 60, 64
1, 22430, Note_on_c, 1, 60, 0
1, 22432, Note_on_c, 1, 65, 64
1, 22457, Note_on_c, 0, 75, 0
1, 22462, Note_on_c, 1, 65, 0
1, 22464, Note_on_c, 0, 74, 64
1, 22464, Note_on_c, 1, 58, 64
1, 22494, Note_on_c, 0, 74, 0
1, 22496, Note_on_c, 0, 75, 64
1, 22526, Note_on_c, 0, 75, 0
1, 22528, Note_on_c, 0, 77, 64
1, 22553, Note_on_c, 1, 58, 0
1, 22558, Note_on_c, 0, 77, 0
1, 22560, Note_on_c, 0, 70, 64
1, 22560, Note_on_c, 1, 62, 64
1, 22560, Note_on_c, 1, 53, 64
1, 22649, Note_on_c, 0, 70, 0
1, 22649, Note_on_c, 1, 62, 0
1, 22649, Note_on_c, 1, 53, 0
1, 22656, Note_on_c, 0, 69, 64
1, 22656, Note_on_c, 1, 60, 64
1, 22656, Note_on_c, 1, 53, 64
1, 22669, Note_on_c, 0, 69, 0
1, 22670, Note_on_c, 0, 70, 64
1, 22683, Note_on_c, 0, 70, 0
1, 22684, Note_on_c, 0, 69, 64
1, 22697, Note_on_c, 0, 69, 0
1, 22698, Note_on_c, 0, 70, 64
1, 22711, Note_on_c, 0, 70, 0
1, 22712, Note_on_c, 0, 69, 64
1, 22725, Note_on_c, 0, 69, 0
1, 22726, Note_on_c, 0, 67, 64
1, 22738, Note_on_c, 0, 67, 0
1, 22739, Note_on_c, 0, 69, 64
1, 22745, Note_on_c, 1, 60, 0
1, 22745, Note_on_c, 1, 53, 0
1, 22751, Note_on_c, 0, 69, 0
1, 22752, Note_on_c, 0, 70, 64
1, 22752, Note_on_c, 1, 58, 64
1, 22841, Note_on_c, 1, 58, 0
1, 22848, Note_on_c, 1, 53, 64
1, 22929, Note_on_c, 0, 70, 0
1, 22937, Note_on_c, 1, 53, 0
1, 22944, Note_on_c, 1, 46, 64
1, 23033, Note_on_c, 1, 46, 0
1, 23040, Note_on_c, 0, 77, 64
1, 23040, Note_on_c, 1, 50, 64
1, 23070, Note_on_c, 0, 77, 0
1, 23072, Note_on_c, 0, 75, 64
1, 23102, Note_on_c, 0, 75, 0
1, 23104, Note_on_c, 0, 74, 64
1, 23129, Note_on_c, 1, 50, 0
1, 23134, Note_on_c, 0, 74, 0
1, 23136, Note_on_c, 0, 77, 65
1, 23136, Note_on_c, 1, 58, 64
1, 23166, Note_on_c, 0, 77, 0
1, 23168, Note_on_c, 0, 75, 66
1, 23198, Note_on_c, 0, 75, 0
1, 23200, Note_on_c, 0, 74, 67
1, 23225, Note_on_c, 1, 58, 0
1, 23230, Note_on_c, 0, 74, 0
1, 23232, Note_on_c, 0, 72, 68
1, 23232, Note_on_c, 1, 50, 66
1, 23262, Note_on_c, 0, 72, 0
1, 23264, Note_on_c, 0, 70, 68
1, 23294, Note_on_c, 0, 70, 0
1, 23296, Note_on_c, 0, 68, 69
1, 23321, Note_on_c, 1, 50, 0
1, 23326, Note_on_c, 0, 68, 0
1, 23328, Note_on_c, 0, 67, 70
1, 23328, Note_on_c, 1, 51, 69
1, 23358, Note_on_c, 0, 67, 0
1, 23360, Note_on_c, 0, 66, 71
1, 23390, Note_on_c, 0, 66, 0
1, 23392, Note_on_c, 0, 67, 72
1, 23417, Note_on_c, 1, 51, 0
1, 23422, Note_on_c, 0, 67, 0
1, 23424, Note_on_c, 0, 72, 73
1, 23424, Note_on_c, 1, 55, 71
1, 23454, Note_on_c, 0, 72, 0
1, 23456, Note_on_c, 0, 71, 73
1, 23486, Note_on_c, 0, 71, 0
1, 23488, Note_on_c, 0, 72, 74
1, 23513, Note_on_c, 1, 55, 0
1, 23518, Note_on_c, 0, 72, 0
1, 23520, Note_on_c, 0, 75, 75
1, 23520, Note_on_c, 1, 60, 74
1, 23550, Note_on_c, 0, 75, 0
1, 23552, Note_on_c, 0, 74, 76
1, 23582, Note_on_c, 0, 74, 0
1, 23584, Note_on_c, 0, 75, 77
1, 23609, Note_on_c, 1, 60, 0
1, 23614, Note_on_c, 0, 75, 0
1, 23616, Note_on_c, 0, 79, 77
1, 23616, Note_on_c, 1, 51, 77
1, 23646, Note_on_c, 0, 79, 0
1, 23648, Note_on_c, 0, 77, 78
1, 23678, Note_on_c, 0, 77, 0
1, 23680, Note_on_c, 0, 75, 79
1, 23705, Note_on_c, 1, 51, 0
1, 23710, Note_on_c, 0, 75, 0
1, 23712, Note_on_c, 0, 79, 80
1, 23712, Note_on_c, 1, 60, 79
1, 23742, Note_on_c, 0, 79, 0
1, 23744, Note_on_c, 0, 77, 81
1, 23774, Note_on_c, 0, 77, 0
1, 23776, Note_on_c, 0, 75, 82
1, 23801, Note_on_c, 1, 60, 0
1, 23806, Note_on_c, 0, 75, 0
1, 23808, Note_on_c, 0, 74, 82
1, 23808, Note_on_c, 1, 52, 82
1, 23838, Note_on_c, 0, 74, 0
1, 23840, Note_on_c, 0, 72, 85
1, 23870, Note_on_c, 0, 72, 0
1, 23872, Note_on_c, 0, 70, 82
1, 23897, Note_on_c, 1, 52, 0
1, 23902, Note_on_c, 0, 70, 0
1, 23904, Note_on_c, 0, 70, 80
1, 23904, Note_on_c, 1, 53, 85
1, 23993, Note_on_c, 1, 53, 0
1, 24000, Note_on_c, 0, 70, 0
1, 24000, Note_on_c, 0, 69, 72
1, 24000, Note_on_c, 1, 48, 74
1, 24089, Note_on_c, 0, 69, 0
1, 24089, Note_on_c, 1, 48, 0
1, 24096, Note_on_c, 1, 41, 64
1, 24185, Note_on_c, 1, 41, 0
1, 24192, Note_on_c, 0, 77, 64
1, 24192, Note_on_c, 1, 58, 64
1, 24222, Note_on_c, 1, 58, 0
1, 24224, Note_on_c, 1, 62, 64
1, 24254, Note_on_c, 1, 62, 0
1, 24256, Note_on_c, 1, 65, 64
1, 24281, Note_on_c, 0, 77, 0
1, 24286, Note_on_c, 1, 65, 0
1, 24288, Note_on_c, 0, 86, 64
1, 24288, Note_on_c, 1, 58, 64
1, 24318, Note_on_c, 1, 58, 0
1, 24320, Note_on_c, 1, 62, 64
1, 24350, Note_on_c, 1, 62, 0
1, 24352, Note_on_c, 1, 65, 64
1, 24377, Note_on_c, 0, 86, 0
1, 24382, Note_on_c, 1, 65, 0
1, 24384, Note_on_c, 0, 74, 64
1, 24384, Note_on_c, 1, 58, 64
1, 24414, Note_on_c, 1, 58, 0
1, 24416, Note_on_c, 1, 62, 64
1, 24446, Note_on_c, 1, 62, 0
1, 24448, Note_on_c, 1, 65, 64
1, 24473, Note_on_c, 0, 74, 0
1, 24478, Note_on_c, 1, 65, 0
1, 24480, Note_on_c, 0, 75, 64
1, 24480, Note_on_c, 1, 57, 64
1, 24510, Note_on_c, 1, 57, 0
1, 24512, Note_on_c, 1, 60, 64
1, 24542, Note_on_c, 1, 60, 0
1, 24544, Note_on_c, 1, 65, 64
1, 24569, Note_on_c, 0, 75, 0
1, 24574, Note_on_c, 1, 65, 0
1, 24576, Note_on_c, 0, 84, 64
1, 24576, Note_on_c, 1, 57, 64
1, 24606, Note_on_c, 1, 57, 0
1, 24608, Note_on_c, 1, 60, 64
1, 24638, Note_on_c, 1, 60, 0
1, 24640, Note_on_c, 1, 65, 64
1, 24665, Note_on_c, 0, 84, 0
1, 24670, Note_on_c, 1, 65, 0
1, 24672, Note_on_c, 0, 75, 64
1, 24672, Note_on_c, 1, 57, 64
1, 24702, Note_on_c, 1, 57, 0
1, 24704, Note_on_c, 1, 60, 64
1, 24734, Note_on_c, 1, 60, 0
1, 24736, Note_on_c, 1, 65, 64
1, 24761, Note_on_c, 0, 75, 0
1, 24766, Note_on_c, 1, 65, 0
1, 24768, Note_on_c, 0, 74, 64
1, 24768, Note_on_c, 1, 58, 64
1, 24798, Note_on_c, 0, 74, 0
1, 24800, Note_on_c, 0, 75, 64
1, 24830, Note_on_c, 0, 75, 0
1, 24832, Note_on_c, 0, 77, 64
1, 24857, Note_on_c, 1, 58, 0
1, 24862, Note_on_c, 0, 77, 0
1, 24864, Note_on_c, 0, 70, 64
1, 24864, Note_on_c, 1, 62, 64
1, 24864, Note_on_c, 1, 53, 64
1, 24953, Note_on_c, 0, 70, 0
1, 24953, Note_on_c, 1, 62, 0
1, 24953, Note_on_c, 1, 53, 0
1, 24960, Note_on_c, 0, 69, 64
1, 24960, Note_on_c, 1, 60, 64
1, 24960, Note_on_c, 1, 53, 64
1, 24973, Note_on_c, 0, 69, 0
1, 24974, Note_on_c, 0, 70, 64
1, 24987, Note_on_c, 0, 70, 0
1, 24988, Note_on_c, 0, 69, 64
1, 25001, Note_on_c, 0, 69, 0
1, 25002, Note_on_c, 0, 70, 64
1, 25015, Note_on_c, 0, 70, 0
1, 25016, Note_on_c, 0, 69, 64
1, 25029, Note_on_c, 0, 69, 0
1, 25030, Note_on_c, 0, 67, 64
1, 25042, Note_on_c, 0, 67, 0
1, 25043, Note_on_c, 0, 69, 64
1, 25049, Note_on_c, 1, 60, 0
1, 25049, Note_on_c, 1, 53, 0
1, 25055, Note_on_c, 0, 69, 0
1, 25056, Note_on_c, 0, 70, 64
1, 25056, Note_on_c, 1, 58, 64
1, 25145, Note_on_c, 1, 58, 0
1, 25152, Note_on_c, 1, 53, 64
1, 25233, Note_on_c, 0, 70, 0
1, 25241, Note_on_c, 1, 53, 0
1, 25248, Note_on_c, 1, 46, 64
1, 25337, Note_on_c, 1, 46, 0
1, 25344, Note_on_c, 0, 79, 64
1, 25344, Note_on_c, 1, 53, 64
1, 25344, Note_on_c, 1, 41, 64
1, 25357, Note_on_c, 0, 79, 0
1, 25358, Note_on_c, 0, 77, 64
1, 25371, Note_on_c, 0, 77, 0
1, 25372, Note_on_c, 0, 79, 64
1, 25385, Note_on_c, 0, 79, 0
1, 25386, Note_on_c, 0, 77, 64
1, 25399, Note_on_c, 0, 77, 0
1, 25400, Note_on_c, 0, 79, 64
1, 25413, Note_on_c, 0, 79, 0
1, 25414, Note_on_c, 0, 77, 64
1, 25427, Note_on_c, 0, 77, 0
1, 25428, Note_on_c, 0, 79, 64
1, 25433, Note_on_c, 1, 53, 0
1, 25433, Note_on_c, 1, 41, 0
1, 25440, Note_on_c, 1, 57, 64
1, 25440, Note_on_c, 1, 45, 64
1, 25441, Note_on_c, 0, 79, 0
1, 25442, Note_on_c, 0, 77, 64
1, 25455, Note_on_c, 0, 77, 0
1, 25456, Note_on_c, 0, 79, 64
1, 25469, Note_on_c, 0, 79, 0
1, 25470, Note_on_c, 0, 77, 64
1, 25483, Note_on_c, 0, 77, 0
1, 25484, Note_on_c, 0, 76, 64
1, 25509, Note_on_c, 0, 76, 0
1, 25510, Note_on_c, 0, 77, 64
1, 25529, Note_on_c, 1, 57, 0
1, 25529, Note_on_c, 1, 45, 0
1, 25535, Note_on_c, 0, 77, 0
1, 25536, Note_on_c, 0, 82, 64
1, 25536, Note_on_c, 1, 60, 64
1, 25536, Note_on_c, 1, 48, 64
1, 25566, Note_on_c, 0, 82, 0
1, 25568, Note_on_c, 0, 79, 64
1, 25598, Note_on_c, 0, 79, 0
1, 25600, Note_on_c, 0, 76, 64
1, 25625, Note_on_c, 1, 60, 0
1, 25625, Note_on_c, 1, 48, 0
1, 25630, Note_on_c, 0, 76, 0
1, 25632, Note_on_c, 0, 77, 64
1, 25632, Note_on_c, 1, 65, 64
1, 25632, Note_on_c, 1, 53, 64
1, 25677, Note_on_c, 0, 77, 0
1, 25680, Note_on_c, 0, 81, 64
1, 25721, Note_on_c, 1, 65, 0
1, 25721, Note_on_c, 1, 53, 0
1, 25725, Note_on_c, 0, 81, 0
1, 25728, Note_on_c, 0, 72, 64
1, 25817, Note_on_c, 0, 72, 0
1, 25824, Note_on_c, 0, 70, 64
1, 25824, Note_on_c, 1, 67, 64
1, 25837, Note_on_c, 0, 70, 0
1, 25838, Note_on_c, 0, 72, 64
1, 25851, Note_on_c, 0, 72, 0
1, 25852, Note_on_c, 0, 70, 64
1, 25865, Note_on_c, 0, 70, 0
1, 25866, Note_on_c, 0, 72, 64
1, 25879, Note_on_c, 0, 72, 0
1, 25880, Note_on_c, 0, 70, 64
1, 25893, Note_on_c, 0, 70, 0
1, 25894, Note_on_c, 0, 69, 64
1, 25906, Note_on_c, 0, 69, 0
1, 25907, Note_on_c, 0, 70, 64
1, 25913, Note_on_c, 1, 67, 0
1, 25919, Note_on_c, 0, 70, 0
1, 25920, Note_on_c, 0, 69, 64
1, 25920, Note_on_c, 1, 65, 64
1, 25965, Note_on_c, 0, 69, 0
1, 25968, Note_on_c, 0, 72, 64
1, 26009, Note_on_c, 1, 65, 0
1, 26013, Note_on_c, 0, 72, 0
1, 26016, Note_on_c, 0, 77, 64
1, 26046, Note_on_c, 0, 77, 0
1, 26048, Note_on_c, 0, 76, 64
1, 26078, Note_on_c, 0, 76, 0
1, 26080, Note_on_c, 0, 74, 64
1, 26110, Note_on_c, 0, 74, 0
1, 26112, Note_on_c, 0, 72, 64
1, 26142, Note_on_c, 0, 72, 0
1, 26144, Note_on_c, 0, 70, 64
1, 26174, Note_on_c, 0, 70, 0
1, 26176, Note_on_c, 0, 69, 64
1, 26206, Note_on_c, 0, 69, 0
1, 26208, Note_on_c, 0, 67, 64
1, 26208, Note_on_c, 1, 64, 64
1, 26297, Note_on_c, 1, 64, 0
1, 26304, Note_on_c, 1, 60, 64
1, 26341, Note_on_c, 0, 67, 0
1, 26352, Note_on_c, 0, 69, 64
1, 26375, Note_on_c, 0, 69, 0
1, 26376, Note_on_c, 0, 70, 64
1, 26393, Note_on_c, 1, 60, 0
1, 26399, Note_on_c, 0, 70, 0
1, 26400, Note_on_c, 0, 69, 64
1, 26400, Note_on_c, 1, 65, 64
1, 26489, Note_on_c, 0, 69, 0
1, 26489, Note_on_c, 1, 65, 0
1, 26496, Note_on_c, 0, 79, 64
1, 26496, Note_on_c, 1, 53, 64
1, 26509, Note_on_c, 0, 79, 0
1, 26510, Note_on_c, 0, 77, 64
1, 26523, Note_on_c, 0, 77, 0
1, 26524, Note_on_c, 0, 79, 64
1, 26537, Note_on_c, 0, 79, 0
1, 26538, Note_on_c, 0, 77, 64
1, 26551, Note_on_c, 0, 77, 0
1, 26552, Note_on_c, 0, 79, 64
1, 26565, Note_on_c, 0, 79, 0
1, 26566, Note_on_c, 0, 77, 64
1, 26579, Note_on_c, 0, 77, 0
1, 26580, Note_on_c, 0, 79, 64
1, 26585, Note_on_c, 1, 53, 0
1, 26592, Note_on_c, 1, 57, 64
1, 26593, Note_on_c, 0, 79, 0
1, 26594, Note_on_c, 0, 77, 64
1, 26607, Note_on_c, 0, 77, 0
1, 26608, Note_on_c, 0, 79, 64
1, 26621, Note_on_c, 0, 79, 0
1, 26622, Note_on_c, 0, 77, 64
1, 26635, Note_on_c, 0, 77, 0
1, 26636, Note_on_c, 0, 76, 64
1, 26661, Note_on_c, 0, 76, 0
1, 26662, Note_on_c, 0, 77, 64
1, 26681, Note_on_c, 1, 57, 0
1, 26687, Note_on_c, 0, 77, 0
1, 26688, Note_on_c, 0, 82, 64
1, 26688, Note_on_c, 1, 60, 64
1, 26718, Note_on_c, 0, 82, 0
1, 26720, Note_on_c, 0, 79, 64
1, 26750, Note_on_c, 0, 79, 0
1, 26752, Note_on_c, 0, 76, 64
1, 26777, Note_on_c, 1, 60, 0
1, 26782, Note_on_c, 0, 76, 0
1, 26784, Note_on_c, 0, 77, 64
1, 26784, Note_on_c, 1, 65, 64
1, 26784, Note_on_c, 1, 53, 64
1, 26829, Note_on_c, 0, 77, 0
1, 26832, Note_on_c, 0, 81, 64
1, 26873, Note_on_c, 1, 65, 0
1, 26873, Note_on_c, 1, 53, 0
1, 26877, Note_on_c, 0, 81, 0
1, 26880, Note_on_c, 0, 72, 64
1, 26969, Note_on_c, 0, 72, 0
1, 26976, Note_on_c, 0, 81, 64
1, 26976, Note_on_c, 1, 65, 64
1, 27006, Note_on_c, 0, 81, 0
1, 27008, Note_on_c, 0, 83, 64
1, 27038, Note_on_c, 0, 83, 0
1, 27040, Note_on_c, 0, 84, 64
1, 27065, Note_on_c, 1, 65, 0
1, 27070, Note_on_c, 0, 84, 0
1, 27072, Note_on_c, 0, 84, 64
1, 27072, Note_on_c, 1, 64, 64
1, 27102, Note_on_c, 0, 84, 0
1, 27104, Note_on_c, 0, 83, 64
1, 27134, Note_on_c, 0, 83, 0
1, 27136, Note_on_c, 0, 81, 64
1, 27166, Note_on_c, 0, 81, 0
1, 27168, Note_on_c, 0, 79, 64
1, 27249, Note_on_c, 1, 64, 0
1, 27257, Note_on_c, 0, 79, 0
1, 27264, Note_on_c, 0, 81, 64
1, 27264, Note_on_c, 1, 65, 64
1, 27294, Note_on_c, 0, 81, 0
1, 27296, Note_on_c, 0, 83, 64
1, 27326, Note_on_c, 0, 83, 0
1, 27328, Note_on_c, 0, 84, 64
1, 27353, Note_on_c, 1, 65, 0
1, 27358, Note_on_c, 0, 84, 0
1, 27360, Note_on_c, 0, 84, 64
1, 27360, Note_on_c, 1, 64, 64
1, 27390, Note_on_c, 0, 84, 0
1, 27392, Note_on_c, 0, 83, 64
1, 27422, Note_on_c, 0, 83, 0
1, 27424, Note_on_c, 0, 81, 64
1, 27454, Note_on_c, 0, 81, 0
1, 27456, Note_on_c, 0, 79, 64
1, 27486, Note_on_c, 0, 79, 0
1, 27488, Note_on_c, 0, 77, 64
1, 27518, Note_on_c, 0, 77, 0
1, 27520, Note_on_c, 0, 76, 64
1, 27537, Note_on_c, 1, 64, 0
1, 27550, Note_on_c, 0, 76, 0
1, 27552, Note_on_c, 0, 77, 64
1, 27552, Note_on_c, 1, 59, 64
1, 27552, Note_on_c, 1, 47, 64
1, 27582, Note_on_c, 0, 77, 0
1, 27584, Note_on_c, 0, 76, 64
1, 27614, Note_on_c, 0, 76, 0
1, 27616, Note_on_c, 0, 74, 64
1, 27641, Note_on_c, 1, 59, 0
1, 27641, Note_on_c, 1, 47, 0
1, 27646, Note_on_c, 0, 74, 0
1, 27648, Note_on_c, 0, 76, 64
1, 27648, Note_on_c, 1, 60, 64
1, 27648, Note_on_c, 1, 48, 64
1, 27678, Note_on_c, 0, 76, 0
1, 27680, Note_on_c, 0, 77, 64
1, 27710, Note_on_c, 0, 77, 0
1, 27712, Note_on_c, 0, 79, 64
1, 27737, Note_on_c, 1, 60, 0
1, 27737, Note_on_c, 1, 48, 0
1, 27742, Note_on_c, 0, 79, 0
1, 27744, Note_on_c, 0, 72, 64
1, 27744, Note_on_c, 1, 64, 64
1, 27744, Note_on_c, 1, 55, 64
1, 27833, Note_on_c, 0, 72, 0
1, 27833, Note_on_c, 1, 64, 0
1, 27833, Note_on_c, 1, 55, 0
1, 27840, Note_on_c, 0, 71, 64
1, 27840, Note_on_c, 1, 62, 64
1, 27840, Note_on_c, 1, 55, 64
1, 27853, Note_on_c, 0, 71, 0
1, 27854, Note_on_c, 0, 72, 64
1, 27867, Note_on_c, 0, 72, 0
1, 27868, Note_on_c, 0, 71, 64
1, 27881, Note_on_c, 0, 71, 0
1, 27882, Note_on_c, 0, 72, 64
1, 27895, Note_on_c, 0, 72, 0
1, 27896, Note_on_c, 0, 71, 64
1, 27909, Note_on_c, 0, 71, 0
1, 27910, Note_on_c, 0, 69, 64
1, 27922, Note_on_c, 0, 69, 0
1, 27923, Note_on_c, 0, 71, 64
1, 27929, Note_on_c, 1, 62, 0
1, 27929, Note_on_c, 1, 55, 0
1, 27935, Note_on_c, 0, 71, 0
1, 27936, Note_on_c, 0, 72, 64
1, 27936, Note_on_c, 1, 60, 64
1, 28025, Note_on_c, 1, 60, 0
1, 28032, Note_on_c, 1, 55, 64
1, 28113, Note_on_c, 0, 72, 0
1, 28121, Note_on_c, 1, 55, 0
1, 28128, Note_on_c, 1, 48, 64
1, 28217, Note_on_c, 1, 48, 0
1, 28224, Note_on_c, 0, 79, 64
1, 28224, Note_on_c, 1, 53, 64
1, 28224, Note_on_c, 1, 41, 64
1, 28237, Note_on_c, 0, 79, 0
1, 28238, Note_on_c, 0, 77, 64
1, 28251, Note_on_c, 0, 77, 0
1, 28252, Note_on_c, 0, 79, 64
1, 28265, Note_on_c, 0, 79, 0
1, 28266, Note_on_c, 0, 77, 64
1, 28279, Note_on_c, 0, 77, 0
1, 28280, Note_on_c, 0, 79, 64
1, 28293, Note_on_c, 0, 79, 0
1, 28294, Note_on_c, 0, 77, 64
1, 28307, Note_on_c, 0, 77, 0
1, 28308, Note_on_c, 0, 79, 64
1, 28313, Note_on_c, 1, 53, 0
1, 28313, Note_on_c, 1, 41, 0
1, 28320, Note_on_c, 1, 57, 64
1, 28320, Note_on_c, 1, 45, 64
1, 28321, Note_on_c, 0, 79, 0
1, 28322, Note_on_c, 0, 77, 64
1, 28335, Note_on_c, 0, 77, 0
1, 28336, Note_on_c, 0, 79, 64
1, 28349, Note_on_c, 0, 79, 0
1, 28350, Note_on_c, 0, 77, 64
1, 28363, Note_on_c, 0, 77, 0
1, 28364, Note_on_c, 0, 76, 64
1, 28389, Note_on_c, 0, 76, 0
1, 28390, Note_on_c, 0, 77, 64
1, 28409, Note_on_c, 1, 57, 0
1, 28409, Note_on_c, 1, 45, 0
1, 28415, Note_on_c, 0, 77, 0
1, 28416, Note_on_c, 0, 82, 64
1, 28416, Note_on_c, 1, 60, 64
1, 28416, Note_on_c, 1, 48, 64
1, 28446, Note_on_c, 0, 82, 0
1, 28448, Note_on_c, 0, 79, 64
1, 28478, Note_on_c, 0, 79, 0
1, 28480, Note_on_c, 0, 76, 64
1, 28505, Note_on_c, 1, 60, 0
1, 28505, Note_on_c, 1, 48, 0
1, 28510, Note_on_c, 0, 76, 0
1, 28512, Note_on_c, 0, 77, 64
1, 28512, Note_on_c, 1, 65, 64
1, 28512, Note_on_c, 1, 53, 64
1, 28557, Note_on_c, 0, 77, 0
1, 28560, Note_on_c, 0, 81, 64
1, 28601, Note_on_c, 1, 65, 0
1, 28601, Note_on_c, 1, 53, 0
1, 28605, Note_on_c, 0, 81, 0
1, 28608, Note_on_c, 0, 72, 64
1, 28697, Note_on_c, 0, 72, 0
1, 28704, Note_on_c, 0, 70, 64
1, 28704, Note_on_c, 1, 67, 64
1, 28717, Note_on_c, 0, 70, 0
1, 28718, Note_on_c, 0, 72, 64
1, 28731, Note_on_c, 0, 72, 0
1, 28732, Note_on_c, 0, 70, 64
1, 28745, Note_on_c, 0, 70, 0
1, 28746, Note_on_c, 0, 72, 64
1, 28759, Note_on_c, 0, 72, 0
1, 28760, Note_on_c, 0, 70, 64
1, 28773, Note_on_c, 0, 70, 0
1, 28774, Note_on_c, 0, 69, 64
1, 28786, Note_on_c, 0, 69, 0
1, 28787, Note_on_c, 0, 70, 64
1, 28793, Note_on_c, 1, 67, 0
1, 28799, Note_on_c, 0, 70, 0
1, 28800, Note_on_c, 0, 69, 64
1, 28800, Note_on_c, 1, 65, 64
1, 28845, Note_on_c, 0, 69, 0
1, 28848, Note_on_c, 0, 72, 64
1, 28889, Note_on_c, 1, 65, 0
1, 28893, Note_on_c, 0, 72, 0
1, 28896, Note_on_c, 0, 77, 64
1, 28926, Note_on_c, 0, 77, 0
1, 28928, Note_on_c, 0, 76, 64
1, 28958, Note_on_c, 0, 76, 0
1, 28960, Note_on_c, 0, 74, 64
1, 28990, Note_on_c, 0, 74, 0
1, 28992, Note_on_c, 0, 72, 64
1, 29022, Note_on_c, 0, 72, 0
1, 29024, Note_on_c, 0, 70, 64
1, 29054, Note_on_c, 0, 70, 0
1, 29056, Note_on_c, 0, 69, 64
1, 29086, Note_on_c, 0, 69, 0
1, 29088, Note_on_c, 0, 67, 64
1, 29088, Note_on_c, 1, 64, 64
1, 29177, Note_on_c, 1, 64, 0
1, 29184, Note_on_c, 1, 60, 64
1, 29221, Note_on_c, 0, 67, 0
1, 29232, Note_on_c, 0, 69, 64
1, 29255, Note_on_c, 0, 69, 0
1, 29256, Note_on_c, 0, 70, 64
1, 29273, Note_on_c, 1, 60, 0
1, 29279, Note_on_c, 0, 70, 0
1, 29280, Note_on_c, 0, 69, 64
1, 29280, Note_on_c, 1, 65, 64
1, 29369, Note_on_c, 0, 69, 0
1, 29369, Note_on_c, 1, 65, 0
1, 29376, Note_on_c, 0, 79, 64
1, 29376, Note_on_c, 1, 53, 64
1, 29389, Note_on_c, 0, 79, 0
1, 29390, Note_on_c, 0, 77, 64
1, 29403, Note_on_c, 0, 77, 0
1, 29404, Note_on_c, 0, 79, 64
1, 29417, Note_on_c, 0, 79, 0
1, 29418, Note_on_c, 0, 77, 64
1, 29431, Note_on_c, 0, 77, 0
1, 29432, Note_on_c, 0, 79, 64
1, 29445, Note_on_c, 0, 79, 0
1, 29446, Note_on_c, 0, 77, 64
1, 29459, Note_on_c, 0, 77, 0
1, 29460, Note_on_c, 0, 79, 64
1, 29465, Note_on_c, 1, 53, 0
1, 29472, Note_on_c, 1, 57, 64
1, 29473, Note_on_c, 0, 79, 0
1, 29474, Note_on_c, 0, 77, 64
1, 29487, Note_on_c, 0, 77, 0
1, 29488, Note_on_c, 0, 79, 64
1, 29501, Note_on_c, 0, 79, 0
1, 29502, Note_on_c, 0, 77, 64
1, 29515, Note_on_c, 0, 77, 0
1, 29516, Note_on_c, 0, 76, 64
1, 29541, Note_on_c, 0, 76, 0
1, 29542, Note_on_c, 0, 77, 64
1, 29561, Note_on_c, 1, 57, 0
1, 29567, Note_on_c, 0, 77, 0
1, 29568, Note_on_c, 0, 82, 64
1, 29568, Note_on_c, 1, 60, 64
1, 29598, Note_on_c, 0, 82, 0
1, 29600, Note_on_c, 0, 79, 64
1, 29630, Note_on_c, 0, 79, 0
1, 29632, Note_on_c, 0, 76, 64
1, 29657, Note_on_c, 1, 60, 0
1, 29662, Note_on_c, 0, 76, 0
1, 29664, Note_on_c, 0, 77, 64
1, 29664, Note_on_c, 1, 65, 64
1, 29664, Note_on_c, 1, 53, 64
1, 29709, Note_on_c, 0, 77, 0
1, 29712, Note_on_c, 0, 81, 64
1, 29753, Note_on_c, 1, 65, 0
1, 29753, Note_on_c, 1, 53, 0
1, 29757, Note_on_c, 0, 81, 0
1, 29760, Note_on_c, 0, 72, 64
1, 29849, Note_on_c, 0, 72, 0
1, 29856, Note_on_c, 0, 81, 64
1, 29856, Note_on_c, 1, 65, 64
1, 29886, Note_on_c, 0, 81, 0
1, 29888, Note_on_c, 0, 83, 64
1, 29918, Note_on_c, 0, 83, 0
1, 29920, Note_on_c, 0, 84, 64
1, 29945, Note_on_c, 1, 65, 0
1, 29950, Note_on_c, 0, 84, 0
1, 29952, Note_on_c, 0, 84, 64
1, 29952, Note_on_c, 1, 64, 64
1, 29982, Note_on_c, 0, 84, 0
1, 29984, Note_on_c, 0, 83, 64
1, 30014, Note_on_c, 0, 83, 0
1, 30016, Note_on_c, 0, 81, 64
1, 30046, Note_on_c, 0, 81, 0
1, 30048, Note_on_c, 0, 79, 64
1, 30129, Note_on_c, 1, 64, 0
1, 30137, Note_on_c, 0, 79, 0
1, 30144, Note_on_c, 0, 81, 64
1, 30144, Note_on_c, 1, 65, 64
1, 30174, Note_on_c, 0, 81, 0
1, 30176, Note_on_c, 0, 83, 64
1, 30206, Note_on_c, 0, 83, 0
1, 30208, Note_on_c, 0, 84, 64
1, 30233, Note_on_c, 1, 65, 0
1, 30238, Note_on_c, 0, 84, 0
1, 30240, Note_on_c, 0, 84, 64
1, 30240, Note_on_c, 1, 64, 64
1, 30270, Note_on_c, 0, 84, 0
1, 30272, Note_on_c, 0, 83, 64
1, 30302, Note_on_c, 0, 83, 0
1, 30304, Note_on_c, 0, 81, 64
1, 30334, Note_on_c, 0, 81, 0
1, 30336, Note_on_c, 0, 79, 64
1, 30366, Note_on_c, 0, 79, 0
1, 30368, Note_on_c, 0, 77, 64
1, 30398, Note_on_c, 0, 77, 0
1, 30400, Note_on_c, 0, 76, 64
1, 30417, Note_on_c, 1, 64, 0
1, 30430, Note_on_c, 0, 76, 0
1, 30432, Note_on_c, 0, 77, 64
1, 30432, Note_on_c, 1, 59, 64
1, 30432, Note_on_c, 1, 47, 64
1, 30462, Note_on_c, 0, 77, 0
1, 30464, Note_on_c, 0, 76, 64
1, 30494, Note_on_c, 0, 76, 0
1, 30496, Note_on_c, 0, 74, 64
1, 30521, Note_on_c, 1, 59, 0
1, 30521, Note_on_c, 1, 47, 0
1, 30526, Note_on_c, 0, 74, 0
1, 30528, Note_on_c, 0, 76, 64
1, 30528, Note_on_c, 1, 60, 64
1, 30528, Note_on_c, 1, 48, 64
1, 30558, Note_on_c, 0, 76, 0
1, 30560, Note_on_c, 0, 77, 64
1, 30590, Note_on_c, 0, 77, 0
1, 30592, Note_on_c, 0, 79, 64
1, 30617, Note_on_c, 1, 60, 0
1, 30617, Note_on_c, 1, 48, 0
1, 30622, Note_on_c, 0, 79, 0
1, 30624, Note_on_c, 0, 72, 64
1, 30624, Note_on_c, 1, 64, 64
1, 30624, Note_on_c, 1, 55, 64
1, 30713, Note_on_c, 0, 72, 0
1, 30713, Note_on_c, 1, 64, 0
1, 30713, Note_on_c, 1, 55, 0
1, 30720, Note_on_c, 0, 71, 64
1, 30720, Note_on_c, 1, 62, 64
1, 30720, Note_on_c, 1, 55, 64
1, 30733, Note_on_c, 0, 71, 0
1, 30734, Note_on_c, 0, 72, 64
1, 30747, Note_on_c, 0, 72, 0
1, 30748, Note_on_c, 0, 71, 64
1, 30761, Note_on_c, 0, 71, 0
1, 30762, Note_on_c, 0, 72, 64
1, 30775, Note_on_c, 0, 72, 0
1, 30776, Note_on_c, 0, 71, 64
1, 30789, Note_on_c, 0, 71, 0
1, 30790, Note_on_c, 0, 69, 64
1, 30802, Note_on_c, 0, 69, 0
1, 30803, Note_on_c, 0, 71, 64
1, 30809, Note_on_c, 1, 62, 0
1, 30809, Note_on_c, 1, 55, 0
1, 30815, Note_on_c, 0, 71, 0
1, 30816, Note_on_c, 0, 72, 64
1, 30816, Note_on_c, 1, 60, 64
1, 30905, Note_on_c, 1, 60, 0
1, 30912, Note_on_c, 1, 55, 64
1, 30993, Note_on_c, 0, 72, 0
1, 31001, Note_on_c, 1, 55, 0
1, 31008, Note_on_c, 1, 48, 64
1, 31097, Note_on_c, 1, 48, 0
1, 31104, Note_on_c, 0, 72, 64
1, 31104, Note_on_c, 1, 60, 64
1, 31200, Note_on_c, 1, 67, 64
1, 31281, Note_on_c, 0, 72, 0
1, 31296, Note_on_c, 0, 79, 64
1, 31296, Note_on_c, 1, 67, 0
1, 31296, Note_on_c, 1, 70, 64
1, 31326, Note_on_c, 0, 79, 0
1, 31328, Note_on_c, 0, 76, 64
1, 31358, Note_on_c, 0, 76, 0
1, 31360, Note_on_c, 0, 72, 64
1, 31390, Note_on_c, 0, 72, 0
1, 31392, Note_on_c, 0, 81, 64
1, 31392, Note_on_c, 1, 70, 0
1, 31392, Note_on_c, 1, 69, 64
1, 31422, Note_on_c, 0, 81, 0
1, 31424, Note_on_c, 0, 77, 64
1, 31454, Note_on_c, 0, 77, 0
1, 31456, Note_on_c, 0, 72, 64
1, 31486, Note_on_c, 0, 72, 0
1, 31488, Note_on_c, 0, 82, 64
1, 31488, Note_on_c, 1, 69, 0
1, 31488, Note_on_c, 1, 64, 64
1, 31518, Note_on_c, 0, 82, 0
1, 31520, Note_on_c, 0, 81, 64
1, 31550, Note_on_c, 0, 81, 0
1, 31552, Note_on_c, 0, 79, 64
1, 31577, Note_on_c, 1, 64, 0
1, 31577, Note_on_c, 1, 60, 0
1, 31582, Note_on_c, 0, 79, 0
1, 31584, Note_on_c, 0, 81, 64
1, 31584, Note_on_c, 1, 65, 64
1, 31673, Note_on_c, 0, 81, 0
1, 31673, Note_on_c, 1, 65, 0
1, 31680, Note_on_c, 0, 79, 64
1, 31680, Note_on_c, 1, 58, 64
1, 31710, Note_on_c, 0, 79, 0
1, 31712, Note_on_c, 0, 82, 64
1, 31742, Note_on_c, 0, 82, 0
1, 31744, Note_on_c, 0, 81, 64
1, 31774, Note_on_c, 0, 81, 0
1, 31776, Note_on_c, 0, 79, 64
1, 31806, Note_on_c, 0, 79, 0
1, 31808, Note_on_c, 0, 86, 64
1, 31838, Note_on_c, 0, 86, 0
1, 31840, Note_on_c, 0, 84, 64
1, 31857, Note_on_c, 1, 58, 0
1, 31870, Note_on_c, 0, 84, 0
1, 31872, Note_on_c, 0, 82, 64
1, 31872, Note_on_c, 1, 59, 64
1, 31902, Note_on_c, 0, 82, 0
1, 31904, Note_on_c, 0, 81, 64
1, 31934, Note_on_c, 0, 81, 0
1, 31936, Note_on_c, 0, 79, 64
1, 31961, Note_on_c, 1, 59, 0
1, 31966, Note_on_c, 0, 79, 0
1, 31968, Note_on_c, 0, 77, 64
1, 31968, Note_on_c, 1, 60, 64
1, 32057, Note_on_c, 1, 60, 0
1, 32064, Note_on_c, 0, 77, 0
1, 32064, Note_on_c, 0, 76, 64
1, 32064, Note_on_c, 1, 55, 64
1, 32153, Note_on_c, 0, 76, 0
1, 32153, Note_on_c, 1, 55, 0
1, 32160, Note_on_c, 1, 48, 64
1, 32249, Note_on_c, 1, 48, 0
1, 32256, Note_on_c, 1, 60, 64
1, 32304, Note_on_c, 0, 72, 64
1, 32345, Note_on_c, 1, 60, 0
1, 32352, Note_on_c, 1, 68, 64
1, 32393, Note_on_c, 0, 72, 0
1, 32400, Note_on_c, 0, 80, 64
1, 32441, Note_on_c, 1, 68, 0
1, 32448, Note_on_c, 1, 65, 64
1, 32489, Note_on_c, 0, 80, 0
1, 32496, Note_on_c, 0, 72, 64
1, 32537, Note_on_c, 1, 65, 0
1, 32544, Note_on_c, 1, 67, 64
1, 32589, Note_on_c, 0, 72, 0
1, 32592, Note_on_c, 0, 70, 64
1, 32633, Note_on_c, 1, 67, 0
1, 32637, Note_on_c, 0, 70, 0
1, 32640, Note_on_c, 0, 79, 64
1, 32640, Note_on_c, 1, 64, 64
1, 32685, Note_on_c, 0, 79, 0
1, 32688, Note_on_c, 0, 70, 64
1, 32729, Note_on_c, 1, 64, 0
1, 32736, Note_on_c, 1, 65, 64
1, 32777, Note_on_c, 0, 70, 0
1, 32784, Note_on_c, 0, 68, 64
1, 32825, Note_on_c, 1, 65, 0
1, 32832, Note_on_c, 1, 58, 64
1, 32877, Note_on_c, 0, 68, 0
1, 32880, Note_on_c, 0, 67, 64
1, 32925, Note_on_c, 0, 67, 0
1, 32928, Note_on_c, 0, 73, 64
1, 32973, Note_on_c, 0, 73, 0
1, 32976, Note_on_c, 0, 70, 64
1, 33009, Note_on_c, 1, 58, 0
1, 33021, Note_on_c, 0, 70, 0
1, 33024, Note_on_c, 0, 67, 64
1, 33024, Note_on_c, 1, 59, 64
1, 33069, Note_on_c, 0, 67, 0
1, 33072, Note_on_c, 0, 65, 64
1, 33113, Note_on_c, 1, 59, 0
1, 33117, Note_on_c, 0, 65, 0
1, 33120, Note_on_c, 0, 65, 64
1, 33120, Note_on_c, 1, 60, 64
1, 33209, Note_on_c, 1, 60, 0
1, 33216, Note_on_c, 0, 65, 0
1, 33216, Note_on_c, 0, 64, 64
1, 33216, Note_on_c, 1, 55, 64
1, 33305, Note_on_c, 0, 64, 0
1, 33305, Note_on_c, 1, 55, 0
1, 33312, Note_on_c, 1, 48, 64
1, 33401, Note_on_c, 1, 48, 0
1, 33408, Note_on_c, 0, 79, 64
1, 33408, Note_on_c, 1, 53, 64
1, 33408, Note_on_c, 1, 41, 64
1, 33421, Note_on_c, 0, 79, 0
1, 33422, Note_on_c, 0, 77, 64
1, 33435, Note_on_c, 0, 77, 0
1, 33436, Note_on_c, 0, 79, 64
1, 33449, Note_on_c, 0, 79, 0
1, 33450, Note_on_c, 0, 77, 64
1, 33463, Note_on_c, 0, 77, 0
1, 33464, Note_on_c, 0, 79, 64
1, 33477, Note_on_c, 0, 79, 0
1, 33478, Note_on_c, 0, 77, 64
1, 33491, Note_on_c, 0, 77, 0
1, 33492, Note_on_c, 0, 79, 64
1, 33497, Note_on_c, 1, 53, 0
1, 33497, Note_on_c, 1, 41, 0
1, 33504, Note_on_c, 1, 57, 64
1, 33504, Note_on_c, 1, 45, 64
1, 33505, Note_on_c, 0, 79, 0
1, 33506, Note_on_c, 0, 77, 64
1, 33519, Note_on_c, 0, 77, 0
1, 33520, Note_on_c, 0, 79, 64
1, 33533, Note_on_c, 0, 79, 0
1, 33534, Note_on_c, 0, 77, 64
1, 33547, Note_on_c, 0, 77, 0
1, 33548, Note_on_c, 0, 76, 64
1, 33573, Note_on_c, 0, 76, 0
1, 33574, Note_on_c, 0, 77, 64
1, 33593, Note_on_c, 1, 57, 0
1, 33593, Note_on_c, 1, 45, 0
1, 33599, Note_on_c, 0, 77, 0
1, 33600, Note_on_c, 0, 82, 64
1, 33600, Note_on_c, 1, 60, 64
1, 33600, Note_on_c, 1, 48, 64
1, 33630, Note_on_c, 0, 82, 0
1, 33632, Note_on_c, 0, 79, 64
1, 33662, Note_on_c, 0, 79, 0
1, 33664, Note_on_c, 0, 76, 64
1, 33689, Note_on_c, 1, 60, 0
1, 33689, Note_on_c, 1, 48, 0
1, 33694, Note_on_c, 0, 76, 0
1, 33696, Note_on_c, 0, 77, 64
1, 33696, Note_on_c, 1, 65, 64
1, 33696, Note_on_c, 1, 53, 64
1, 33741, Note_on_c, 0, 77, 0
1, 33744, Note_on_c, 0, 81, 64
1, 33785, Note_on_c, 1, 65, 0
1, 33785, Note_on_c, 1, 53, 0
1, 33789, Note_on_c, 0, 81, 0
1, 33792, Note_on_c, 0, 72, 64
1, 33881, Note_on_c, 0, 72, 0
1, 33888, Note_on_c, 0, 70, 64
1, 33888, Note_on_c, 1, 67, 64
1, 33901, Note_on_c, 0, 70, 0
1, 33902, Note_on_c, 0, 72, 64
1, 33915, Note_on_c, 0, 72, 0
1, 33916, Note_on_c, 0, 70, 64
1, 33929, Note_on_c, 0, 70, 0
1, 33930, Note_on_c, 0, 72, 64
1, 33943, Note_on_c, 0, 72, 0
1, 33944, Note_on_c, 0, 70, 64
1, 33957, Note_on_c, 0, 70, 0
1, 33958, Note_on_c, 0, 69, 64
1, 33970, Note_on_c, 0, 69, 0
1, 33971, Note_on_c, 0, 70, 64
1, 33977, Note_on_c, 1, 67, 0
1, 33983, Note_on_c, 0, 70, 0
1, 33984, Note_on_c, 0, 69, 64
1, 33984, Note_on_c, 1, 65, 64
1, 34029, Note_on_c, 0, 69, 0
1, 34032, Note_on_c, 0, 72, 64
1, 34073, Note_on_c, 1, 65, 0
1, 34077, Note_on_c, 0, 72, 0
1, 34080, Note_on_c, 0, 77, 64
1, 34110, Note_on_c, 0, 77, 0
1, 34112, Note_on_c, 0, 76, 64
1, 34142, Note_on_c, 0, 76, 0
1, 34144, Note_on_c, 0, 74, 64
1, 34174, Note_on_c, 0, 74, 0
1, 34176, Note_on_c, 0, 72, 64
1, 34206, Note_on_c, 0, 72, 0
1, 34208, Note_on_c, 0, 70, 64
1, 34238, Note_on_c, 0, 70, 0
1, 34240, Note_on_c, 0, 69, 64
1, 34270, Note_on_c, 0, 69, 0
1, 34272, Note_on_c, 0, 67, 64
1, 34272, Note_on_c, 1, 64, 64
1, 34361, Note_on_c, 1, 64, 0
1, 34368, Note_on_c, 1, 60, 64
1, 34405, Note_on_c, 0, 67, 0
1, 34416, Note_on_c, 0, 69, 64
1, 34439, Note_on_c, 0, 69, 0
1, 34440, Note_on_c, 0, 70, 64
1, 34457, Note_on_c, 1, 60, 0
1, 34463, Note_on_c, 0, 70, 0
1, 34464, Note_on_c, 0, 69, 64
1, 34464, Note_on_c, 1, 65, 64
1, 34553, Note_on_c, 0, 69, 0
1, 34553, Note_on_c, 1, 65, 0
1, 34560, Note_on_c, 0, 79, 64
1, 34560, Note_on_c, 1, 53, 64
1, 34560, Note_on_c, 1, 41, 64
1, 34573, Note_on_c, 0, 79, 0
1, 34574, Note_on_c, 0, 77, 64
1, 34587, Note_on_c, 0, 77, 0
1, 34588, Note_on_c, 0, 79, 64
1, 34601, Note_on_c, 0, 79, 0
1, 34602, Note_on_c, 0, 77, 64
1, 34615, Note_on_c, 0, 77, 0
1, 34616, Note_on_c, 0, 79, 64
1, 34629, Note_on_c, 0, 79, 0
1, 34630, Note_on_c, 0, 77, 64
1, 34643, Note_on_c, 0, 77, 0
1, 34644, Note_on_c, 0, 79, 64
1, 34649, Note_on_c, 1, 53, 0
1, 34649, Note_on_c, 1, 41, 0
1, 34656, Note_on_c, 1, 57, 64
1, 34656, Note_on_c, 1, 45, 64
1, 34657, Note_on_c, 0, 79, 0
1, 34658, Note_on_c, 0, 77, 64
1, 34671, Note_on_c, 0, 77, 0
1, 34672, Note_on_c, 0, 79, 64
1, 34685, Note_on_c, 0, 79, 0
1, 34686, Note_on_c, 0, 77, 64
1, 34699, Note_on_c, 0, 77, 0
1, 34700, Note_on_c, 0, 76, 64
1, 34725, Note_on_c, 0, 76, 0
1, 34726, Note_on_c, 0, 77, 64
1, 34745, Note_on_c, 1, 57, 0
1, 34745, Note_on_c, 1, 45, 0
1, 34751, Note_on_c, 0, 77, 0
1, 34752, Note_on_c, 0, 82, 64
1, 34752, Note_on_c, 1, 60, 64
1, 34752, Note_on_c, 1, 48, 64
1, 34782, Note_on_c, 0, 82, 0
1, 34784, Note_on_c, 0, 79, 64
1, 34814, Note_on_c, 0, 79, 0
1, 34816, Note_on_c, 0, 76, 64
1, 34841, Note_on_c, 1, 60, 0
1, 34841, Note_on_c, 1, 48, 0
1, 34846, Note_on_c, 0, 76, 0
1, 34848, Note_on_c, 0, 77, 64
1, 34848, Note_on_c, 1, 65, 64
1, 34848, Note_on_c, 1, 53, 64
1, 34893, Note_on_c, 0, 77, 0
1, 34896, Note_on_c, 0, 81, 64
1, 34937, Note_on_c, 1, 65, 0
1, 34937, Note_on_c, 1, 53, 0
1, 34941, Note_on_c, 0, 81, 0
1, 34944, Note_on_c, 0, 72, 64
1, 35033, Note_on_c, 0, 72, 0
1, 35040, Note_on_c, 0, 74, 64
1, 35040, Note_on_c, 1, 58, 64
1, 35040, Note_on_c, 1, 46, 64
1, 35070, Note_on_c, 0, 74, 0
1, 35072, Note_on_c, 0, 76, 64
1, 35102, Note_on_c, 0, 76, 0
1, 35104, Note_on_c, 0, 77, 64
1, 35129, Note_on_c, 1, 58, 0
1, 35129, Note_on_c, 1, 46, 0
1, 35134, Note_on_c, 0, 77, 0
1, 35136, Note_on_c, 0, 77, 64
1, 35136, Note_on_c, 1, 57, 64
1, 35136, Note_on_c, 1, 45, 64
1, 35166, Note_on_c, 0, 77, 0
1, 35168, Note_on_c, 0, 76, 64
1, 35198, Note_on_c, 0, 76, 0
1, 35200, Note_on_c, 0, 74, 64
1, 35225, Note_on_c, 1, 57, 0
1, 35225, Note_on_c, 1, 45, 0
1, 35230, Note_on_c, 0, 74, 0
1, 35232, Note_on_c, 0, 72, 64
1, 35232, Note_on_c, 1, 65, 64
1, 35232, Note_on_c, 1, 53, 64
1, 35321, Note_on_c, 0, 72, 0
1, 35321, Note_on_c, 1, 65, 0
1, 35321, Note_on_c, 1, 53, 0
1, 35328, Note_on_c, 0, 74, 64
1, 35328, Note_on_c, 1, 58, 64
1, 35328, Note_on_c, 1, 46, 64
1, 35358, Note_on_c, 0, 74, 0
1, 35360, Note_on_c, 0, 76, 64
1, 35390, Note_on_c, 0, 76, 0
1, 35392, Note_on_c, 0, 77, 64
1, 35417, Note_on_c, 1, 58, 0
1, 35417, Note_on_c, 1, 46, 0
1, 35422, Note_on_c, 0, 77, 0
1, 35424, Note_on_c, 0, 77, 64
1, 35424, Note_on_c, 1, 57, 64
1, 35424, Note_on_c, 1, 45, 64
1, 35454, Note_on_c, 0, 77, 0
1, 35456, Note_on_c, 0, 76, 64
1, 35486, Note_on_c, 0, 76, 0
1, 35488, Note_on_c, 0, 74, 64
1, 35513, Note_on_c, 1, 57, 0
1, 35513, Note_on_c, 1, 45, 0
1, 35518, Note_on_c, 0, 74, 0
1, 35520, Note_on_c, 0, 72, 64
1, 35520, Note_on_c, 1, 65, 64
1, 35520, Note_on_c, 1, 53, 64
1, 35550, Note_on_c, 0, 72, 0
1, 35552, Note_on_c, 0, 77, 64
1, 35582, Note_on_c, 0, 77, 0
1, 35584, Note_on_c, 0, 81, 64
1, 35609, Note_on_c, 1, 65, 0
1, 35609, Note_on_c, 1, 53, 0
1, 35614, Note_on_c, 0, 81, 0
1, 35616, Note_on_c, 0, 72, 64
1, 35616, Note_on_c, 1, 64, 64
1, 35616, Note_on_c, 1, 52, 64
1, 35646, Note_on_c, 0, 72, 0
1, 35648, Note_on_c, 0, 79, 64
1, 35678, Note_on_c, 0, 79, 0
1, 35680, Note_on_c, 0, 82, 64
1, 35705, Note_on_c, 1, 64, 0
1, 35705, Note_on_c, 1, 52, 0
1, 35710, Note_on_c, 0, 82, 0
1, 35712, Note_on_c, 0, 81, 64
1, 35712, Note_on_c, 1, 65, 64
1, 35712, Note_on_c, 1, 53, 64
1, 35742, Note_on_c, 0, 81, 0
1, 35744, Note_on_c, 0, 82, 64
1, 35774, Note_on_c, 0, 82, 0
1, 35776, Note_on_c, 0, 84, 64
1, 35801, Note_on_c, 1, 65, 0
1, 35801, Note_on_c, 1, 53, 0
1, 35806, Note_on_c, 0, 84, 0
1, 35808, Note_on_c, 0, 77, 64
1, 35808, Note_on_c, 1, 57, 64
1, 35808, Note_on_c, 1, 48, 64
1, 35897, Note_on_c, 0, 77, 0
1, 35897, Note_on_c, 1, 57, 0
1, 35897, Note_on_c, 1, 48, 0
1, 35904, Note_on_c, 0, 76, 64
1, 35904, Note_on_c, 1, 55, 64
1, 35904, Note_on_c, 1, 48, 64
1, 35917, Note_on_c, 0, 76, 0
1, 35918, Note_on_c, 0, 77, 64
1, 35931, Note_on_c, 0, 77, 0
1, 35932, Note_on_c, 0, 76, 64
1, 35945, Note_on_c, 0, 76, 0
1, 35946, Note_on_c, 0, 77, 64
1, 35959, Note_on_c, 0, 77, 0
1, 35960, Note_on_c, 0, 76, 64
1, 35973, Note_on_c, 0, 76, 0
1, 35974, Note_on_c, 0, 74, 64
1, 35986, Note_on_c, 0, 74, 0
1, 35987, Note_on_c, 0, 76, 64
1, 35993, Note_on_c, 1, 55, 0
1, 35993, Note_on_c, 1, 48, 0
1, 35999, Note_on_c, 0, 76, 0
1, 36000, Note_on_c, 0, 77, 64
1, 36000, Note_on_c, 1, 53, 64
1, 36089, Note_on_c, 1, 53, 0
1, 36096, Note_on_c, 1, 48, 64
1, 36177, Note_on_c, 0, 77, 0
1, 36185, Note_on_c, 1, 48, 0
1, 36192, Note_on_c, 1, 41, 64
1, 36281, Note_on_c, 1, 41, 0
1, 36288, Note_on_c, 0, 72, 64
1, 36288, Note_on_c, 1, 60, 64
1, 36384, Note_on_c, 1, 67, 64
1, 36465, Note_on_c, 0, 72, 0
1, 36480, Note_on_c, 0, 79, 64
1, 36480, Note_on_c, 1, 67, 0
1, 36480, Note_on_c, 1, 70, 64
1, 36510, Note_on_c, 0, 79, 0
1, 36512, Note_on_c, 0, 76, 64
1, 36542, Note_on_c, 0, 76, 0
1, 36544, Note_on_c, 0, 72, 64
1, 36574, Note_on_c, 0, 72, 0
1, 36576, Note_on_c, 0, 81, 64
1, 36576, Note_on_c, 1, 70, 0
1, 36576, Note_on_c, 1, 69, 64
1, 36606, Note_on_c, 0, 81, 0
1, 36608, Note_on_c, 0, 77, 64
1, 36638, Note_on_c, 0, 77, 0
1, 36640, Note_on_c, 0, 72, 64
1, 36670, Note_on_c, 0, 72, 0
1, 36672, Note_on_c, 0, 82, 64
1, 36672, Note_on_c, 1, 69, 0
1, 36672, Note_on_c, 1, 64, 64
1, 36702, Note_on_c, 0, 82, 0
1, 36704, Note_on_c, 0, 81, 64
1, 36734, Note_on_c, 0, 81, 0
1, 36736, Note_on_c, 0, 79, 64
1, 36761, Note_on_c, 1, 64, 0
1, 36761, Note_on_c, 1, 60, 0
1, 36766, Note_on_c, 0, 79, 0
1, 36768, Note_on_c, 0, 81, 64
1, 36768, Note_on_c, 1, 65, 64
1, 36857, Note_on_c, 0, 81, 0
1, 36857, Note_on_c, 1, 65, 0
1, 36864, Note_on_c, 0, 79, 64
1, 36864, Note_on_c, 1, 58, 64
1, 36894, Note_on_c, 0, 79, 0
1, 36896, Note_on_c, 0, 82, 64
1, 36926, Note_on_c, 0, 82, 0
1, 36928, Note_on_c, 0, 81, 64
1, 36958, Note_on_c, 0, 81, 0
1, 36960, Note_on_c, 0, 79, 64
1, 36990, Note_on_c, 0, 79, 0
1, 36992, Note_on_c, 0, 86, 64
1, 37022, Note_on_c, 0, 86, 0
1, 37024, Note_on_c, 0, 84, 64
1, 37041, Note_on_c, 1, 58, 0
1, 37054, Note_on_c, 0, 84, 0
1, 37056, Note_on_c, 0, 82, 64
1, 37056, Note_on_c, 1, 59, 64
1, 37086, Note_on_c, 0, 82, 0
1, 37088, Note_on_c, 0, 81, 64
1, 37118, Note_on_c, 0, 81, 0
1, 37120, Note_on_c, 0, 79, 64
1, 37145, Note_on_c, 1, 59, 0
1, 37150, Note_on_c, 0, 79, 0
1, 37152, Note_on_c, 0, 77, 64
1, 37152, Note_on_c, 1, 60, 64
1, 37241, Note_on_c, 1, 60, 0
1, 37248, Note_on_c, 0, 77, 0
1, 37248, Note_on_c, 0, 76, 64
1, 37248, Note_on_c, 1, 55, 64
1, 37337, Note_on_c, 0, 76, 0
1, 37337, Note_on_c, 1, 55, 0
1, 37344, Note_on_c, 1, 48, 64
1, 37433, Note_on_c, 1, 48, 0
1, 37440, Note_on_c, 1, 60, 64
1, 37488, Note_on_c, 0, 72, 64
1, 37529, Note_on_c, 1, 60, 0
1, 37536, Note_on_c, 1, 68, 64
1, 37577, Note_on_c, 0, 72, 0
1, 37584, Note_on_c, 0, 80, 64
1, 37625, Note_on_c, 1, 68, 0
1, 37632, Note_on_c, 1, 65, 64
1, 37673, Note_on_c, 0, 80, 0
1, 37680, Note_on_c, 0, 72, 64
1, 37721, Note_on_c, 1, 65, 0
1, 37728, Note_on_c, 1, 67, 64
1, 37773, Note_on_c, 0, 72, 0
1, 37776, Note_on_c, 0, 70, 64
1, 37817, Note_on_c, 1, 67, 0
1, 37821, Note_on_c, 0, 70, 0
1, 37824, Note_on_c, 0, 79, 64
1, 37824, Note_on_c, 1, 64, 64
1, 37869, Note_on_c, 0, 79, 0
1, 37872, Note_on_c, 0, 70, 64
1, 37913, Note_on_c, 1, 64, 0
1, 37920, Note_on_c, 1, 65, 64
1, 37961, Note_on_c, 0, 70, 0
1, 37968, Note_on_c, 0, 68, 64
1, 38009, Note_on_c, 1, 65, 0
1, 38016, Note_on_c, 1, 58, 64
1, 38061, Note_on_c, 0, 68, 0
1, 38064, Note_on_c, 0, 67, 64
1, 38109, Note_on_c, 0, 67, 0
1, 38112, Note_on_c, 0, 73, 64
1, 38157, Note_on_c, 0, 73, 0
1, 38160, Note_on_c, 0, 70, 64
1, 38193, Note_on_c, 1, 58, 0
1, 38205, Note_on_c, 0, 70, 0
1, 38208, Note_on_c, 0, 67, 64
1, 38208, Note_on_c, 1, 59, 64
1, 38253, Note_on_c, 0, 67, 0
1, 38256, Note_on_c, 0, 65, 64
1, 38297, Note_on_c, 1, 59, 0
1, 38301, Note_on_c, 0, 65, 0
1, 38304, Note_on_c, 0, 65, 64
1, 38304, Note_on_c, 1, 60, 64
1, 38393, Note_on_c, 1, 60, 0
1, 38400, Note_on_c, 0, 65, 0
1, 38400, Note_on_c, 0, 64, 64
1, 38400, Note_on_c, 1, 55, 64
1, 38489, Note_on_c, 0, 64, 0
1, 38489, Note_on_c, 1, 55, 0
1, 38496, Note_on_c, 1, 48, 64
1, 38585, Note_on_c, 1, 48, 0
1, 38592, Note_on_c, 0, 79, 64
1, 38592, Note_on_c, 1, 53, 64
1, 38592, Note_on_c, 1, 41, 64
1, 38605, Note_on_c, 0, 79, 0
1, 38606, Note_on_c, 0, 77, 64
1, 38619, Note_on_c, 0, 77, 0
1, 38620, Note_on_c, 0, 79, 64
1, 38633, Note_on_c, 0, 79, 0
1, 38634, Note_on_c, 0, 77, 64
1, 38647, Note_on_c, 0, 77, 0
1, 38648, Note_on_c, 0, 79, 64
1, 38661, Note_on_c, 0, 79, 0
1, 38662, Note_on_c, 0, 77, 64
1, 38675, Note_on_c, 0, 77, 0
1, 38676, Note_on_c, 0, 79, 64
1, 38681, Note_on_c, 1, 53, 0
1, 38681, Note_on_c, 1, 41, 0
1, 38688, Note_on_c, 1, 57, 64
1, 38688, Note_on_c, 1, 45, 64
1, 38689, Note_on_c, 0, 79, 0
1, 38690, Note_on_c, 0, 77, 64
1, 38703, Note_on_c, 0, 77, 0
1, 38704, Note_on_c, 0, 79, 64
1, 38717, Note_on_c, 0, 79, 0
1, 38718, Note_on_c, 0, 77, 64
1, 38731, Note_on_c, 0, 77, 0
1, 38732, Note_on_c, 0, 76, 64
1, 38757, Note_on_c, 0, 76, 0
1, 38758, Note_on_c, 0, 77, 64
1, 38777, Note_on_c, 1, 57, 0
1, 38777, Note_on_c, 1, 45, 0
1, 38783, Note_on_c, 0, 77, 0
1, 38784, Note_on_c, 0, 82, 64
1, 38784, Note_on_c, 1, 60, 64
1, 38784, Note_on_c, 1, 48, 64
1, 38814, Note_on_c, 0, 82, 0
1, 38816, Note_on_c, 0, 79, 64
1, 38846, Note_on_c, 0, 79, 0
1, 38848, Note_on_c, 0, 76, 64
1, 38873, Note_on_c, 1, 60, 0
1, 38873, Note_on_c, 1, 48, 0
1, 38878, Note_on_c, 0, 76, 0
1, 38880, Note_on_c, 0, 77, 64
1, 38880, Note_on_c, 1, 65, 64
1, 38880, Note_on_c, 1, 53, 64
1, 38925, Note_on_c, 0, 77, 0
1, 38928, Note_on_c, 0, 81, 64
1, 38969, Note_on_c, 1, 65, 0
1, 38969, Note_on_c, 1, 53, 0
1, 38973, Note_on_c, 0, 81, 0
1, 38976, Note_on_c, 0, 72, 64
1, 39065, Note_on_c, 0, 72, 0
1, 39072, Note_on_c, 0, 70, 64
1, 39072, Note_on_c, 1, 67, 64
1, 39085, Note_on_c, 0, 70, 0
1, 39086, Note_on_c, 0, 72, 64
1, 39099, Note_on_c, 0, 72, 0
1, 39100, Note_on_c, 0, 70, 64
1, 39113, Note_on_c, 0, 70, 0
1, 39114, Note_on_c, 0, 72, 64
1, 39127, Note_on_c, 0, 72, 0
1, 39128, Note_on_c, 0, 70, 64
1, 39141, Note_on_c, 0, 70, 0
1, 39142, Note_on_c, 0, 69, 64
1, 39154, Note_on_c, 0, 69, 0
1, 39155, Note_on_c, 0, 70, 64
1, 39161, Note_on_c, 1, 67, 0
1, 39167, Note_on_c, 0, 70, 0
1, 39168, Note_on_c, 0, 69, 64
1, 39168, Note_on_c, 1, 65, 64
1, 39213, Note_on_c, 0, 69, 0
1, 39216, Note_on_c, 0, 72, 64
1, 39257, Note_on_c, 1, 65, 0
1, 39261, Note_on_c, 0, 72, 0
1, 39264, Note_on_c, 0, 77, 64
1, 39294, Note_on_c, 0, 77, 0
1, 39296, Note_on_c, 0, 76, 64
1, 39326, Note_on_c, 0, 76, 0
1, 39328, Note_on_c, 0, 74, 64
1, 39358, Note_on_c, 0, 74, 0
1, 39360, Note_on_c, 0, 72, 64
1, 39390, Note_on_c, 0, 72, 0
1, 39392, Note_on_c, 0, 70, 64
1, 39422, Note_on_c, 0, 70, 0
1, 39424, Note_on_c, 0, 69, 64
1, 39454, Note_on_c, 0, 69, 0
1, 39456, Note_on_c, 0, 67, 64
1, 39456, Note_on_c, 1, 64, 64
1, 39545, Note_on_c, 1, 64, 0
1, 39552, Note_on_c, 1, 60, 64
1, 39589, Note_on_c, 0, 67, 0
1, 39600, Note_on_c, 0, 69, 64
1, 39623, Note_on_c, 0, 69, 0
1, 39624, Note_on_c, 0, 70, 64
1, 39641, Note_on_c, 1, 60, 0
1, 39647, Note_on_c, 0, 70, 0
1, 39648, Note_on_c, 0, 69, 64
1, 39648, Note_on_c, 1, 65, 64
1, 39737, Note_on_c, 0, 69, 0
1, 39737, Note_on_c, 1, 65, 0
1, 39744, Note_on_c, 0, 79, 64
1, 39744, Note_on_c, 1, 53, 64
1, 39744, Note_on_c, 1, 41, 64
1, 39757, Note_on_c, 0, 79, 0
1, 39758, Note_on_c, 0, 77, 64
1, 39771, Note_on_c, 0, 77, 0
1, 39772, Note_on_c, 0, 79, 64
1, 39785, Note_on_c, 0, 79, 0
1, 39786, Note_on_c, 0, 77, 64
1, 39799, Note_on_c, 0, 77, 0
1, 39800, Note_on_c, 0, 79, 64
1, 39813, Note_on_c, 0, 79, 0
1, 39814, Note_on_c, 0, 77, 64
1, 39827, Note_on_c, 0, 77, 0
1, 39828, Note_on_c, 0, 79, 64
1, 39833, Note_on_c, 1, 53, 0
1, 39833, Note_on_c, 1, 41, 0
1, 39840, Note_on_c, 1, 57, 64
1, 39840, Note_on_c, 1, 45, 64
1, 39841, Note_on_c, 0, 79, 0
1, 39842, Note_on_c, 0, 77, 64
1, 39855, Note_on_c, 0, 77, 0
1, 39856, Note_on_c, 0, 79, 64
1, 39869, Note_on_c, 0, 79, 0
1, 39870, Note_on_c, 0, 77, 64
1, 39883, Note_on_c, 0, 77, 0
1, 39884, Note_on_c, 0, 76, 64
1, 39909, Note_on_c, 0, 76, 0
1, 39910, Note_on_c, 0, 77, 64
1, 39929, Note_on_c, 1, 57, 0
1, 39929, Note_on_c, 1, 45, 0
1, 39935, Note_on_c, 0, 77, 0
1, 39936, Note_on_c, 0, 82, 64
1, 39936, Note_on_c, 1, 60, 64
1, 39936, Note_on_c, 1, 48, 64
1, 39966, Note_on_c, 0, 82, 0
1, 39968, Note_on_c, 0, 79, 64
1, 39998, Note_on_c, 0, 79, 0
1, 40000, Note_on_c, 0, 76, 64
1, 40025, Note_on_c, 1, 60, 0
1, 40025, Note_on_c, 1, 48, 0
1, 40030, Note_on_c, 0, 76, 0
1, 40032, Note_on_c, 0, 77, 64
1, 40032, Note_on_c, 1, 65, 64
1, 40032, Note_on_c, 1, 53, 64
1, 40077, Note_on_c, 0, 77, 0
1, 40080, Note_on_c, 0, 81, 64
1, 40121, Note_on_c, 1, 65, 0
1, 40121, Note_on_c, 1, 53, 0
1, 40125, Note_on_c, 0, 81, 0
1, 40128, Note_on_c, 0, 72, 64
1, 40217, Note_on_c, 0, 72, 0
1, 40224, Note_on_c, 0, 74, 64
1, 40224, Note_on_c, 1, 58, 64
1, 40224, Note_on_c, 1, 46, 64
1, 40254, Note_on_c, 0, 74, 0
1, 40256, Note_on_c, 0, 76, 64
1, 40286, Note_on_c, 0, 76, 0
1, 40288, Note_on_c, 0, 77, 64
1, 40313, Note_on_c, 1, 58, 0
1, 40313, Note_on_c, 1, 46, 0
1, 40318, Note_on_c, 0, 77, 0
1, 40320, Note_on_c, 0, 77, 64
1, 40320, Note_on_c, 1, 57, 64
1, 40320, Note_on_c, 1, 45, 64
1, 40350, Note_on_c, 0, 77, 0
1, 40352, Note_on_c, 0, 76, 64
1, 40382, Note_on_c, 0, 76, 0
1, 40384, Note_on_c, 0, 74, 64
1, 40409, Note_on_c, 1, 57, 0
1, 40409, Note_on_c, 1, 45, 0
1, 40414, Note_on_c, 0, 74, 0
1, 40416, Note_on_c, 0, 72, 64
1, 40416, Note_on_c, 1, 65, 64
1, 40416, Note_on_c, 1, 53, 64
1, 40505, Note_on_c, 0, 72, 0
1, 40505, Note_on_c, 1, 65, 0
1, 40505, Note_on_c, 1, 53, 0
1, 40512, Note_on_c, 0, 74, 64
1, 40512, Note_on_c, 1, 58, 64
1, 40512, Note_on_c, 1, 46, 64
1, 40542, Note_on_c, 0, 74, 0
1, 40544, Note_on_c, 0, 76, 64
1, 40574, Note_on_c, 0, 76, 0
1, 40576, Note_on_c, 0, 77, 64
1, 40601, Note_on_c, 1, 58, 0
1, 40601, Note_on_c, 1, 46, 0
1, 40606, Note_on_c, 0, 77, 0
1, 40608, Note_on_c, 0, 77, 64
1, 40608, Note_on_c, 1, 57, 64
1, 40608, Note_on_c, 1, 45, 64
1, 40638, Note_on_c, 0, 77, 0
1, 40640, Note_on_c, 0, 76, 64
1, 40670, Note_on_c, 0, 76, 0
1, 40672, Note_on_c, 0, 74, 64
1, 40697, Note_on_c, 1, 57, 0
1, 40697, Note_on_c, 1, 45, 0
1, 40702, Note_on_c, 0, 74, 0
1, 40704, Note_on_c, 0, 72, 64
1, 40704, Note_on_c, 1, 65, 64
1, 40704, Note_on_c, 1, 53, 64
1, 40734, Note_on_c, 0, 72, 0
1, 40736, Note_on_c, 0, 77, 64
1, 40766, Note_on_c, 0, 77, 0
1, 40768, Note_on_c, 0, 81, 64
1, 40793, Note_on_c, 1, 65, 0
1, 40793, Note_on_c, 1, 53, 0
1, 40798, Note_on_c, 0, 81, 0
1, 40800, Note_on_c, 0, 72, 64
1, 40800, Note_on_c, 1, 64, 64
1, 40800, Note_on_c, 1, 52, 64
1, 40830, Note_on_c, 0, 72, 0
1, 40832, Note_on_c, 0, 79, 64
1, 40862, Note_on_c, 0, 79, 0
1, 40864, Note_on_c, 0, 82, 64
1, 40889, Note_on_c, 1, 64, 0
1, 40889, Note_on_c, 1, 52, 0
1, 40894, Note_on_c, 0, 82, 0
1, 40896, Note_on_c, 0, 81, 64
1, 40896, Note_on_c, 1, 65, 64
1, 40896, Note_on_c, 1, 53, 64
1, 40926, Note_on_c, 0, 81, 0
1, 40928, Note_on_c, 0, 82, 64
1, 40958, Note_on_c, 0, 82, 0
1, 40960, Note_on_c, 0, 84, 64
1, 40985, Note_on_c, 1, 65, 0
1, 40985, Note_on_c, 1, 53, 0
1, 40990, Note_on_c, 0, 84, 0
1, 40992, Note_on_c, 0, 77, 64
1, 40992, Note_on_c, 1, 57, 64
1, 40992, Note_on_c, 1, 48, 64
1, 41081, Note_on_c, 0, 77, 0
1, 41081, Note_on_c, 1, 57, 0
1, 41081, Note_on_c, 1, 48, 0
1, 41088, Note_on_c, 0, 76, 64
1, 41088, Note_on_c, 1, 55, 64
1, 41088, Note_on_c, 1, 48, 64
1, 41101, Note_on_c, 0, 76, 0
1, 41102, Note_on_c, 0, 77, 64
1, 41115, Note_on_c, 0, 77, 0
1, 41116, Note_on_c, 0, 76, 64
1, 41129, Note_on_c, 0, 76, 0
1, 41130, Note_on_c, 0, 77, 64
1, 41143, Note_on_c, 0, 77, 0
1, 41144, Note_on_c, 0, 76, 64
1, 41157, Note_on_c, 0, 76, 0
1, 41158, Note_on_c, 0, 74, 64
1, 41170, Note_on_c, 0, 74, 0
1, 41171, Note_on_c, 0, 76, 64
1, 41177, Note_on_c, 1, 55, 0
1, 41177, Note_on_c, 1, 48, 0
1, 41183, Note_on_c, 0, 76, 0
1, 41184, Note_on_c, 0, 77, 64
1, 41184, Note_on_c, 1, 53, 64
1, 41273, Note_on_c, 1, 53, 0
1, 41280, Note_on_c, 1, 48, 64
1, 41361, Note_on_c, 0, 77, 0
1, 41369, Note_on_c, 1, 48, 0
1, 41376, Note_on_c, 1, 41, 64
1, 41465, Note_on_c, 1, 41, 0
1, 41472, Note_on_c, 1, 41, 0
1, 41649, Note_on_c, 1, 41, 0
1, 41659, End_track
0, 0, End_of_file