0, 0, Header, 0, 1, 96
1, 0, Start_track
1, 0, Tempo, 1333333
1, 0, Note_on_c, 0, 71, 70
1, 48, Note_on_c, 1, 67, 70
1, 48, Note_on_c, 1, 64, 70
1, 63, Note_on_c, 0, 71, 0
1, 64, Note_on_c, 0, 79, 70
1, 79, Note_on_c, 0, 79, 0
1, 80, Note_on_c, 0, 78, 70
1, 93, Note_on_c, 1, 67, 0
1, 93, Note_on_c, 1, 64, 0
1, 95, Note_on_c, 0, 78, 0
1, 96, Note_on_c, 0, 76, 70
1, 96, Note_on_c, 1, 69, 70
1, 96, Note_on_c, 1, 66, 70
1, 111, Note_on_c, 0, 76, 0
1, 112, Note_on_c, 0, 75, 70
1, 127, Note_on_c, 0, 75, 0
1, 128, Note_on_c, 0, 78, 70
1, 141, Note_on_c, 1, 69, 0
1, 141, Note_on_c, 1, 66, 0
1, 143, Note_on_c, 0, 78, 0
1, 144, Note_on_c, 0, 78, 70
1, 144, Note_on_c, 1, 71, 70
1, 144, Note_on_c, 1, 67, 70
1, 159, Note_on_c, 0, 78, 0
1, 160, Note_on_c, 0, 76, 70
1, 164, Note_on_c, 1, 71, 0
1, 164, Note_on_c, 1, 67, 0
1, 175, Note_on_c, 0, 76, 0
1, 176, Note_on_c, 0, 71, 70
1, 191, Note_on_c, 0, 71, 0
1, 192, Note_on_c, 0, 83, 86
1, 240, Note_on_c, 1, 67, 70
1, 255, Note_on_c, 0, 83, 0
1, 256, Note_on_c, 0, 79, 70
1, 271, Note_on_c, 0, 79, 0
1, 272, Note_on_c, 0, 76, 70
1, 285, Note_on_c, 1, 67, 0
1, 287, Note_on_c, 0, 76, 0
1, 288, Note_on_c, 0, 74, 70
1, 288, Note_on_c, 1, 69, 70
1, 303, Note_on_c, 0, 74, 0
1, 304, Note_on_c, 0, 72, 70
1, 319, Note_on_c, 0, 72, 0
1, 320, Note_on_c, 0, 76, 70
1, 333, Note_on_c, 1, 69, 0
1, 335, Note_on_c, 0, 76, 0
1, 336, Note_on_c, 0, 72, 70
1, 336, Note_on_c, 1, 67, 70
1, 351, Note_on_c, 0, 72, 0
1, 352, Note_on_c, 0, 71, 70
1, 367, Note_on_c, 0, 71, 0
1, 368, Note_on_c, 0, 76, 70
1, 381, Note_on_c, 1, 67, 0
1, 383, Note_on_c, 0, 76, 0
1, 384, Note_on_c, 0, 71, 70
1, 384, Note_on_c, 1, 66, 70
1, 399, Note_on_c, 0, 71, 0
1, 399, Note_on_c, 1, 66, 0
1, 400, Note_on_c, 0, 69, 70
1, 415, Note_on_c, 0, 69, 0
1, 416, Note_on_c, 0, 78, 70
1, 416, Note_on_c, 0, 81, 64
1, 416, Note_on_c, 1, 63, 70
1, 431, Note_on_c, 0, 78, 0
1, 431, Note_on_c, 0, 81, 0
1, 431, Note_on_c, 1, 63, 0
1, 432, Note_on_c, 0, 78, 70
1, 432, Note_on_c, 0, 81, 75
1, 432, Note_on_c, 1, 64, 70
1, 466, Note_on_c, 0, 78, 0
1, 466, Note_on_c, 0, 81, 0
1, 466, Note_on_c, 1, 64, 0
1, 468, Note_on_c, 0, 76, 71
1, 468, Note_on_c, 0, 79, 71
1, 468, Note_on_c, 1, 58, 71
1, 480, Note_on_c, 0, 76, 0
1, 480, Note_on_c, 0, 75, 72
1, 480, Note_on_c, 0, 79, 0
1, 480, Note_on_c, 0, 78, 70
1, 480, Note_on_c, 1, 58, 0
1, 480, Note_on_c, 1, 59, 72
1, 500, Note_on_c, 0, 78, 0
1, 525, Note_on_c, 0, 75, 0
1, 525, Note_on_c, 1, 59, 0
1, 576, Note_on_c, 0, 59, 70
1, 624, Note_on_c, 1, 55, 70
1, 624, Note_on_c, 1, 52, 70
1, 639, Note_on_c, 0, 59, 0
1, 640, Note_on_c, 0, 67, 70
1, 655, Note_on_c, 0, 67, 0
1, 656, Note_on_c, 0, 66, 70
1, 669, Note_on_c, 1, 55, 0
1, 669, Note_on_c, 1, 52, 0
1, 671, Note_on_c, 0, 66, 0
1, 672, Note_on_c, 0, 64, 70
1, 672, Note_on_c, 1, 57, 70
1, 672, Note_on_c, 1, 54, 70
1, 687, Note_on_c, 0, 64, 0
1, 688, Note_on_c, 0, 63, 70
1, 703, Note_on_c, 0, 63, 0
1, 704, Note_on_c, 0, 66, 70
1, 717, Note_on_c, 1, 57, 0
1, 717, Note_on_c, 1, 54, 0
1, 719, Note_on_c, 0, 66, 0
1, 720, Note_on_c, 0, 66, 70
1, 720, Note_on_c, 1, 59, 70
1, 720, Note_on_c, 1, 55, 70
1, 735, Note_on_c, 0, 66, 0
1, 736, Note_on_c, 0, 64, 70
1, 740, Note_on_c, 1, 59, 0
1, 740, Note_on_c, 1, 55, 0
1, 751, Note_on_c, 0, 64, 0
1, 752, Note_on_c, 0, 59, 70
1, 767, Note_on_c, 0, 59, 0
1, 768, Note_on_c, 0, 71, 86
1, 816, Note_on_c, 1, 55, 70
1, 831, Note_on_c, 0, 71, 0
1, 832, Note_on_c, 0, 67, 70
1, 847, Note_on_c, 0, 67, 0
1, 848, Note_on_c, 0, 64, 70
1, 861, Note_on_c, 1, 55, 0
1, 863, Note_on_c, 0, 64, 0
1, 864, Note_on_c, 0, 62, 70
1, 864, Note_on_c, 1, 57, 70
1, 879, Note_on_c, 0, 62, 0
1, 880, Note_on_c, 0, 60, 70
1, 895, Note_on_c, 0, 60, 0
1, 896, Note_on_c, 0, 64, 70
1, 911, Note_on_c, 0, 64, 0
1, 912, Note_on_c, 0, 60, 70
1, 927, Note_on_c, 0, 60, 0
1, 928, Note_on_c, 0, 72, 70
1, 943, Note_on_c, 0, 72, 0
1, 944, Note_on_c, 0, 69, 70
1, 953, Note_on_c, 1, 57, 0
1, 959, Note_on_c, 0, 69, 0
1, 960, Note_on_c, 0, 66, 70
1, 960, Note_on_c, 1, 50, 70
1, 975, Note_on_c, 0, 66, 0
1, 976, Note_on_c, 0, 60, 70
1, 991, Note_on_c, 0, 60, 0
1, 992, Note_on_c, 0, 69, 70
1, 1005, Note_on_c, 1, 50, 0
1, 1007, Note_on_c, 0, 69, 0
1, 1008, Note_on_c, 0, 62, 70
1, 1008, Note_on_c, 1, 55, 70
1, 1032, Note_on_c, 0, 62, 0
1, 1032, Note_on_c, 0, 60, 70
1, 1038, Note_on_c, 0, 60, 0
1, 1038, Note_on_c, 0, 62, 70
1, 1044, Note_on_c, 0, 62, 0
1, 1044, Note_on_c, 0, 60, 70
1, 1055, Note_on_c, 0, 60, 0
1, 1056, Note_on_c, 0, 59, 70
1, 1071, Note_on_c, 0, 59, 0
1, 1072, Note_on_c, 0, 67, 70
1, 1087, Note_on_c, 0, 67, 0
1, 1088, Note_on_c, 0, 62, 70
1, 1097, Note_on_c, 1, 55, 0
1, 1103, Note_on_c, 0, 62, 0
1, 1104, Note_on_c, 0, 71, 70
1, 1104, Note_on_c, 1, 47, 70
1, 1119, Note_on_c, 0, 71, 0
1, 1120, Note_on_c, 0, 67, 70
1, 1135, Note_on_c, 0, 67, 0
1, 1136, Note_on_c, 0, 74, 70
1, 1149, Note_on_c, 1, 47, 0
1, 1151, Note_on_c, 0, 74, 0
1, 1152, Note_on_c, 0, 74, 70
1, 1152, Note_on_c, 1, 48, 70
1, 1167, Note_on_c, 0, 74, 0
1, 1168, Note_on_c, 0, 64, 70
1, 1183, Note_on_c, 0, 64, 0
1, 1184, Note_on_c, 0, 72, 71
1, 1199, Note_on_c, 0, 72, 0
1, 1200, Note_on_c, 0, 72, 71
1, 1215, Note_on_c, 0, 72, 0
1, 1216, Note_on_c, 0, 69, 72
1, 1231, Note_on_c, 0, 69, 0
1, 1232, Note_on_c, 0, 76, 72
1, 1241, Note_on_c, 1, 48, 0
1, 1247, Note_on_c, 0, 76, 0
1, 1248, Note_on_c, 0, 76, 73
1, 1248, Note_on_c, 1, 49, 73
1, 1263, Note_on_c, 0, 76, 0
1, 1264, Note_on_c, 0, 64, 75
1, 1279, Note_on_c, 0, 64, 0
1, 1280, Note_on_c, 0, 69, 75
1, 1293, Note_on_c, 1, 49, 0
1, 1295, Note_on_c, 0, 69, 0
1, 1296, Note_on_c, 0, 67, 75
1, 1296, Note_on_c, 1, 50, 75
1, 1341, Note_on_c, 1, 50, 0
1, 1344, Note_on_c, 1, 45, 73
1, 1389, Note_on_c, 1, 45, 0
1, 1392, Note_on_c, 0, 67, 0
1, 1392, Note_on_c, 0, 66, 71
1, 1392, Note_on_c, 1, 38, 71
1, 1398, Note_on_c, 0, 66, 0
1, 1398, Note_on_c, 0, 67, 71
1, 1404, Note_on_c, 0, 67, 0
1, 1404, Note_on_c, 0, 66, 71
1, 1437, Note_on_c, 1, 38, 0
1, 1439, Note_on_c, 0, 66, 0
1, 1440, Note_on_c, 0, 74, 75
1, 1456, Note_on_c, 0, 69, 75
1, 1456, Note_on_c, 1, 54, 75
1, 1471, Note_on_c, 0, 69, 0
1, 1471, Note_on_c, 1, 54, 0
1, 1472, Note_on_c, 0, 66, 75
1, 1472, Note_on_c, 1, 50, 75
1, 1487, Note_on_c, 0, 66, 0
1, 1487, Note_on_c, 1, 50, 0
1, 1488, Note_on_c, 0, 71, 75
1, 1488, Note_on_c, 1, 55, 75
1, 1503, Note_on_c, 0, 71, 0
1, 1503, Note_on_c, 1, 55, 0
1, 1504, Note_on_c, 0, 67, 76
1, 1504, Note_on_c, 1, 52, 76
1, 1519, Note_on_c, 0, 67, 0
1, 1519, Note_on_c, 1, 52, 0
1, 1520, Note_on_c, 0, 72, 76
1, 1520, Note_on_c, 1, 57, 76
1, 1535, Note_on_c, 0, 72, 0
1, 1535, Note_on_c, 1, 57, 0
1, 1536, Note_on_c, 0, 69, 77
1, 1536, Note_on_c, 1, 54, 77
1, 1551, Note_on_c, 0, 74, 0
1, 1551, Note_on_c, 0, 69, 0
1, 1551, Note_on_c, 1, 54, 0
1, 1552, Note_on_c, 0, 81, 76
1, 1567, Note_on_c, 0, 81, 0
1, 1568, Note_on_c, 0, 78, 77
1, 1568, Note_on_c, 1, 74, 78
1, 1568, Note_on_c, 1, 72, 78
1, 1583, Note_on_c, 0, 78, 0
1, 1584, Note_on_c, 0, 79, 80
1, 1584, Note_on_c, 1, 72, 0
1, 1584, Note_on_c, 1, 71, 80
1, 1599, Note_on_c, 0, 79, 0
1, 1600, Note_on_c, 0, 74, 79
1, 1607, Note_on_c, 1, 74, 0
1, 1607, Note_on_c, 1, 71, 0
1, 1615, Note_on_c, 0, 74, 0
1, 1616, Note_on_c, 0, 83, 79
1, 1631, Note_on_c, 0, 83, 0
1, 1632, Note_on_c, 0, 79, 78
1, 1647, Note_on_c, 0, 79, 0
1, 1648, Note_on_c, 0, 86, 78
1, 1663, Note_on_c, 0, 86, 0
1, 1664, Note_on_c, 0, 83, 77
1, 1679, Note_on_c, 0, 83, 0
1, 1680, Note_on_c, 0, 79, 77
1, 1695, Note_on_c, 0, 79, 0
1, 1696, Note_on_c, 0, 74, 77
1, 1711, Note_on_c, 0, 74, 0
1, 1712, Note_on_c, 0, 71, 76
1, 1727, Note_on_c, 0, 71, 0
1, 1728, Note_on_c, 0, 74, 75
1, 1744, Note_on_c, 0, 69, 75
1, 1744, Note_on_c, 1, 54, 75
1, 1759, Note_on_c, 0, 69, 0
1, 1759, Note_on_c, 1, 54, 0
1, 1760, Note_on_c, 0, 66, 75
1, 1760, Note_on_c, 1, 50, 75
1, 1775, Note_on_c, 0, 66, 0
1, 1775, Note_on_c, 1, 50, 0
1, 1776, Note_on_c, 0, 71, 76
1, 1776, Note_on_c, 1, 55, 76
1, 1791, Note_on_c, 0, 71, 0
1, 1791, Note_on_c, 1, 55, 0
1, 1792, Note_on_c, 0, 67, 76
1, 1792, Note_on_c, 1, 52, 76
1, 1807, Note_on_c, 0, 67, 0
1, 1807, Note_on_c, 1, 52, 0
1, 1808, Note_on_c, 0, 72, 77
1, 1808, Note_on_c, 1, 57, 77
1, 1823, Note_on_c, 0, 72, 0
1, 1823, Note_on_c, 1, 57, 0
1, 1824, Note_on_c, 0, 69, 77
1, 1824, Note_on_c, 1, 54, 77
1, 1839, Note_on_c, 0, 74, 0
1, 1839, Note_on_c, 0, 69, 0
1, 1839, Note_on_c, 1, 54, 0
1, 1840, Note_on_c, 0, 81, 78
1, 1855, Note_on_c, 0, 81, 0
1, 1856, Note_on_c, 0, 78, 79
1, 1856, Note_on_c, 1, 74, 78
1, 1856, Note_on_c, 1, 72, 78
1, 1871, Note_on_c, 0, 78, 0
1, 1872, Note_on_c, 0, 79, 80
1, 1872, Note_on_c, 1, 72, 0
1, 1872, Note_on_c, 1, 71, 80
1, 1887, Note_on_c, 0, 79, 0
1, 1888, Note_on_c, 0, 74, 79
1, 1895, Note_on_c, 1, 74, 0
1, 1895, Note_on_c, 1, 71, 0
1, 1903, Note_on_c, 0, 74, 0
1, 1904, Note_on_c, 0, 83, 79
1, 1919, Note_on_c, 0, 83, 0
1, 1920, Note_on_c, 0, 79, 78
1, 1935, Note_on_c, 0, 79, 0
1, 1936, Note_on_c, 0, 86, 78
1, 1951, Note_on_c, 0, 86, 0
1, 1952, Note_on_c, 0, 83, 77
1, 1967, Note_on_c, 0, 83, 0
1, 1968, Note_on_c, 0, 79, 77
1, 1983, Note_on_c, 0, 79, 0
1, 1984, Note_on_c, 0, 74, 77
1, 1999, Note_on_c, 0, 74, 0
1, 2000, Note_on_c, 0, 71, 76
1, 2015, Note_on_c, 0, 71, 0
1, 2016, Note_on_c, 0, 74, 75
1, 2032, Note_on_c, 0, 69, 75
1, 2032, Note_on_c, 1, 54, 75
1, 2047, Note_on_c, 0, 69, 0
1, 2047, Note_on_c, 1, 54, 0
1, 2048, Note_on_c, 0, 66, 75
1, 2048, Note_on_c, 1, 50, 75
1, 2063, Note_on_c, 0, 66, 0
1, 2063, Note_on_c, 1, 50, 0
1, 2064, Note_on_c, 0, 71, 76
1, 2064, Note_on_c, 1, 55, 76
1, 2079, Note_on_c, 0, 71, 0
1, 2079, Note_on_c, 1, 55, 0
1, 2080, Note_on_c, 0, 67, 76
1, 2080, Note_on_c, 1, 52, 76
1, 2095, Note_on_c, 0, 67, 0
1, 2095, Note_on_c, 1, 52, 0
1, 2096, Note_on_c, 0, 72, 77
1, 2096, Note_on_c, 1, 57, 77
1, 2111, Note_on_c, 0, 72, 0
1, 2111, Note_on_c, 1, 57, 0
1, 2112, Note_on_c, 0, 69, 77
1, 2112, Note_on_c, 1, 54, 77
1, 2127, Note_on_c, 0, 74, 0
1, 2127, Note_on_c, 0, 69, 0
1, 2127, Note_on_c, 1, 54, 0
1, 2128, Note_on_c, 0, 74, 78
1, 2128, Note_on_c, 1, 59, 78
1, 2143, Note_on_c, 0, 74, 0
1, 2143, Note_on_c, 1, 59, 0
1, 2144, Note_on_c, 0, 71, 79
1, 2144, Note_on_c, 1, 55, 80
1, 2159, Note_on_c, 0, 71, 0
1, 2159, Note_on_c, 1, 55, 0
1, 2160, Note_on_c, 0, 76, 80
1, 2160, Note_on_c, 1, 60, 80
1, 2175, Note_on_c, 0, 76, 0
1, 2175, Note_on_c, 1, 60, 0
1, 2176, Note_on_c, 0, 72, 78
1, 2176, Note_on_c, 1, 57, 78
1, 2191, Note_on_c, 0, 72, 0
1, 2191, Note_on_c, 1, 57, 0
1, 2192, Note_on_c, 0, 78, 77
1, 2192, Note_on_c, 1, 62, 77
1, 2207, Note_on_c, 0, 78, 0
1, 2207, Note_on_c, 1, 62, 0
1, 2208, Note_on_c, 0, 79, 76
1, 2208, Note_on_c, 1, 64, 76
1, 2228, Note_on_c, 0, 79, 0
1, 2228, Note_on_c, 1, 64, 0
1, 2304, Note_on_c, 1, 52, 64
1, 2320, Note_on_c, 0, 71, 64
1, 2335, Note_on_c, 0, 71, 0
1, 2336, Note_on_c, 0, 72, 64
1, 2349, Note_on_c, 1, 52, 0
1, 2351, Note_on_c, 0, 72, 0
1, 2352, Note_on_c, 0, 79, 64
1, 2368, Note_on_c, 1, 64, 65
1, 2372, Note_on_c, 0, 79, 0
1, 2384, Note_on_c, 1, 64, 0
1, 2384, Note_on_c, 1, 52, 65
1, 2399, Note_on_c, 1, 52, 0
1, 2400, Note_on_c, 0, 78, 66
1, 2416, Note_on_c, 1, 62, 66
1, 2420, Note_on_c, 0, 78, 0
1, 2432, Note_on_c, 1, 62, 0
1, 2432, Note_on_c, 1, 50, 66
1, 2447, Note_on_c, 1, 50, 0
1, 2448, Note_on_c, 1, 48, 67
1, 2464, Note_on_c, 0, 68, 67
1, 2479, Note_on_c, 0, 68, 0
1, 2480, Note_on_c, 0, 69, 68
1, 2493, Note_on_c, 1, 48, 0
1, 2495, Note_on_c, 0, 69, 0
1, 2496, Note_on_c, 0, 76, 68
1, 2512, Note_on_c, 1, 60, 68
1, 2516, Note_on_c, 0, 76, 0
1, 2528, Note_on_c, 1, 60, 0
1, 2528, Note_on_c, 1, 48, 68
1, 2543, Note_on_c, 1, 48, 0
1, 2544, Note_on_c, 0, 74, 69
1, 2560, Note_on_c, 1, 59, 69
1, 2564, Note_on_c, 0, 74, 0
1, 2576, Note_on_c, 1, 59, 0
1, 2576, Note_on_c, 1, 47, 69
1, 2591, Note_on_c, 1, 47, 0
1, 2592, Note_on_c, 1, 45, 70
1, 2608, Note_on_c, 0, 66, 71
1, 2623, Note_on_c, 0, 66, 0
1, 2624, Note_on_c, 0, 69, 71
1, 2637, Note_on_c, 1, 45, 0
1, 2639, Note_on_c, 0, 69, 0
1, 2640, Note_on_c, 0, 72, 71
1, 2655, Note_on_c, 0, 72, 0
1, 2656, Note_on_c, 0, 62, 72
1, 2671, Note_on_c, 0, 62, 0
1, 2672, Note_on_c, 0, 63, 72
1, 2687, Note_on_c, 0, 63, 0
1, 2688, Note_on_c, 1, 58, 72
1, 2688, Note_on_c, 1, 55, 72
1, 2704, Note_on_c, 0, 62, 73
1, 2719, Note_on_c, 0, 62, 0
1, 2720, Note_on_c, 0, 63, 75
1, 2733, Note_on_c, 1, 58, 0
1, 2733, Note_on_c, 1, 55, 0
1, 2735, Note_on_c, 0, 63, 0
1, 2736, Note_on_c, 1, 57, 75
1, 2736, Note_on_c, 1, 54, 75
1, 2752, Note_on_c, 0, 66, 75
1, 2767, Note_on_c, 0, 66, 0
1, 2768, Note_on_c, 0, 69, 75
1, 2783, Note_on_c, 0, 69, 0
1, 2784, Note_on_c, 0, 72, 75
1, 2799, Note_on_c, 0, 72, 0
1, 2800, Note_on_c, 0, 62, 75
1, 2816, Note_on_c, 0, 62, 0
1, 2816, Note_on_c, 0, 63, 75
1, 2831, Note_on_c, 0, 63, 0
1, 2832, Note_on_c, 0, 62, 75
1, 2847, Note_on_c, 0, 62, 0
1, 2848, Note_on_c, 0, 76, 75
1, 2863, Note_on_c, 0, 76, 0
1, 2864, Note_on_c, 0, 74, 75
1, 2869, Note_on_c, 1, 57, 0
1, 2869, Note_on_c, 1, 54, 0
1, 2879, Note_on_c, 0, 74, 0
1, 2880, Note_on_c, 0, 71, 75
1, 2880, Note_on_c, 0, 67, 80
1, 2896, Note_on_c, 1, 55, 75
1, 2911, Note_on_c, 1, 55, 0
1, 2912, Note_on_c, 1, 59, 75
1, 2925, Note_on_c, 0, 71, 0
1, 2925, Note_on_c, 0, 67, 0
1, 2927, Note_on_c, 1, 59, 0
1, 2928, Note_on_c, 0, 69, 75
1, 2928, Note_on_c, 0, 67, 80
1, 2928, Note_on_c, 1, 60, 75
1, 2943, Note_on_c, 1, 60, 0
1, 2944, Note_on_c, 1, 57, 75
1, 2959, Note_on_c, 1, 57, 0
1, 2960, Note_on_c, 1, 61, 75
1, 2973, Note_on_c, 0, 67, 0
1, 2975, Note_on_c, 1, 61, 0
1, 2976, Note_on_c, 0, 66, 80
1, 2976, Note_on_c, 1, 62, 75
1, 2991, Note_on_c, 0, 69, 0
1, 2991, Note_on_c, 1, 62, 0
1, 2992, Note_on_c, 0, 71, 75
1, 2992, Note_on_c, 1, 50, 75
1, 3007, Note_on_c, 0, 71, 0
1, 3007, Note_on_c, 1, 50, 0
1, 3008, Note_on_c, 0, 72, 75
1, 3008, Note_on_c, 1, 62, 75
1, 3021, Note_on_c, 0, 66, 0
1, 3023, Note_on_c, 0, 72, 0
1, 3023, Note_on_c, 1, 62, 0
1, 3024, Note_on_c, 0, 74, 75
1, 3024, Note_on_c, 0, 67, 80
1, 3024, Note_on_c, 1, 64, 75
1, 3030, Note_on_c, 0, 74, 0
1, 3030, Note_on_c, 0, 72, 75
1, 3036, Note_on_c, 0, 72, 0
1, 3036, Note_on_c, 0, 71, 75
1, 3042, Note_on_c, 0, 71, 0
1, 3042, Note_on_c, 0, 72, 75
1, 3120, Note_on_c, 0, 72, 0
1, 3120, Note_on_c, 0, 71, 75
1, 3140, Note_on_c, 0, 71, 0
1, 3157, Note_on_c, 0, 67, 0
1, 3157, Note_on_c, 1, 64, 0
1, 3168, Note_on_c, 0, 71, 75
1, 3168, Note_on_c, 0, 67, 80
1, 3184, Note_on_c, 1, 55, 75
1, 3199, Note_on_c, 1, 55, 0
1, 3200, Note_on_c, 1, 59, 75
1, 3213, Note_on_c, 0, 71, 0
1, 3213, Note_on_c, 0, 67, 0
1, 3215, Note_on_c, 1, 59, 0
1, 3216, Note_on_c, 0, 69, 75
1, 3216, Note_on_c, 0, 67, 80
1, 3216, Note_on_c, 1, 60, 75
1, 3231, Note_on_c, 1, 60, 0
1, 3232, Note_on_c, 1, 57, 75
1, 3247, Note_on_c, 1, 57, 0
1, 3248, Note_on_c, 1, 61, 75
1, 3261, Note_on_c, 0, 67, 0
1, 3263, Note_on_c, 1, 61, 0
1, 3264, Note_on_c, 0, 66, 80
1, 3264, Note_on_c, 1, 62, 75
1, 3279, Note_on_c, 0, 69, 0
1, 3279, Note_on_c, 1, 62, 0
1, 3280, Note_on_c, 0, 71, 75
1, 3280, Note_on_c, 1, 50, 75
1, 3295, Note_on_c, 0, 71, 0
1, 3295, Note_on_c, 1, 50, 0
1, 3296, Note_on_c, 0, 72, 75
1, 3296, Note_on_c, 1, 62, 75
1, 3309, Note_on_c, 0, 66, 0
1, 3311, Note_on_c, 0, 72, 0
1, 3311, Note_on_c, 1, 62, 0
1, 3312, Note_on_c, 0, 72, 70
1, 3312, Note_on_c, 0, 67, 70
1, 3312, Note_on_c, 1, 64, 70
1, 3327, Note_on_c, 0, 67, 0
1, 3328, Note_on_c, 0, 72, 0
1, 3328, Note_on_c, 0, 71, 70
1, 3328, Note_on_c, 1, 64, 0
1, 3328, Note_on_c, 1, 62, 70
1, 3343, Note_on_c, 0, 71, 0
1, 3343, Note_on_c, 1, 62, 0
1, 3344, Note_on_c, 0, 76, 71
1, 3344, Note_on_c, 0, 67, 71
1, 3344, Note_on_c, 1, 60, 71
1, 3351, Note_on_c, 0, 76, 0
1, 3351, Note_on_c, 1, 60, 0
1, 3359, Note_on_c, 0, 67, 0
1, 3360, Note_on_c, 0, 76, 71
1, 3360, Note_on_c, 0, 67, 71
1, 3360, Note_on_c, 1, 60, 71
1, 3375, Note_on_c, 0, 67, 0
1, 3376, Note_on_c, 0, 76, 0
1, 3376, Note_on_c, 0, 74, 72
1, 3376, Note_on_c, 1, 60, 0
1, 3376, Note_on_c, 1, 59, 72
1, 3391, Note_on_c, 0, 74, 0
1, 3391, Note_on_c, 1, 59, 0
1, 3392, Note_on_c, 0, 72, 72
1, 3392, Note_on_c, 0, 67, 72
1, 3392, Note_on_c, 1, 64, 72
1, 3399, Note_on_c, 0, 72, 0
1, 3399, Note_on_c, 1, 64, 0
1, 3407, Note_on_c, 0, 67, 0
1, 3408, Note_on_c, 0, 72, 73
1, 3408, Note_on_c, 0, 67, 73
1, 3408, Note_on_c, 1, 64, 73
1, 3423, Note_on_c, 0, 67, 0
1, 3424, Note_on_c, 0, 72, 0
1, 3424, Note_on_c, 0, 71, 73
1, 3424, Note_on_c, 1, 64, 0
1, 3424, Note_on_c, 1, 62, 73
1, 3439, Note_on_c, 0, 71, 0
1, 3439, Note_on_c, 1, 62, 0
1, 3440, Note_on_c, 0, 76, 74
1, 3440, Note_on_c, 0, 67, 74
1, 3440, Note_on_c, 1, 60, 74
1, 3447, Note_on_c, 0, 76, 0
1, 3447, Note_on_c, 1, 60, 0
1, 3455, Note_on_c, 0, 67, 0
1, 3456, Note_on_c, 0, 76, 74
1, 3456, Note_on_c, 0, 67, 74
1, 3456, Note_on_c, 1, 60, 74
1, 3471, Note_on_c, 0, 67, 0
1, 3472, Note_on_c, 0, 76, 0
1, 3472, Note_on_c, 0, 74, 75
1, 3472, Note_on_c, 1, 60, 0
1, 3472, Note_on_c, 1, 59, 75
1, 3487, Note_on_c, 0, 74, 0
1, 3487, Note_on_c, 1, 59, 0
1, 3488, Note_on_c, 0, 72, 75
1, 3488, Note_on_c, 0, 67, 75
1, 3488, Note_on_c, 1, 64, 75
1, 3495, Note_on_c, 0, 72, 0
1, 3495, Note_on_c, 1, 64, 0
1, 3503, Note_on_c, 0, 67, 0
1, 3504, Note_on_c, 0, 72, 76
1, 3504, Note_on_c, 0, 67, 76
1, 3504, Note_on_c, 1, 64, 76
1, 3519, Note_on_c, 0, 67, 0
1, 3520, Note_on_c, 0, 72, 0
1, 3520, Note_on_c, 0, 71, 76
1, 3520, Note_on_c, 1, 64, 0
1, 3520, Note_on_c, 1, 62, 76
1, 3535, Note_on_c, 0, 71, 0
1, 3535, Note_on_c, 1, 62, 0
1, 3536, Note_on_c, 0, 76, 77
1, 3536, Note_on_c, 0, 67, 77
1, 3536, Note_on_c, 1, 60, 77
1, 3543, Note_on_c, 0, 76, 0
1, 3543, Note_on_c, 1, 60, 0
1, 3551, Note_on_c, 0, 67, 0
1, 3552, Note_on_c, 0, 76, 77
1, 3552, Note_on_c, 0, 67, 77
1, 3552, Note_on_c, 1, 60, 77
1, 3567, Note_on_c, 0, 67, 0
1, 3568, Note_on_c, 0, 76, 0
1, 3568, Note_on_c, 0, 74, 78
1, 3568, Note_on_c, 1, 60, 0
1, 3568, Note_on_c, 1, 59, 78
1, 3583, Note_on_c, 0, 74, 0
1, 3583, Note_on_c, 1, 59, 0
1, 3584, Note_on_c, 0, 78, 78
1, 3584, Note_on_c, 0, 72, 78
1, 3584, Note_on_c, 1, 57, 78
1, 3591, Note_on_c, 0, 78, 0
1, 3591, Note_on_c, 1, 57, 0
1, 3599, Note_on_c, 0, 72, 0
1, 3600, Note_on_c, 0, 78, 79
1, 3600, Note_on_c, 0, 72, 79
1, 3600, Note_on_c, 1, 57, 79
1, 3696, Note_on_c, 0, 78, 0
1, 3696, Note_on_c, 0, 79, 70
1, 3696, Note_on_c, 0, 72, 0
1, 3696, Note_on_c, 0, 71, 70
1, 3696, Note_on_c, 1, 57, 0
1, 3696, Note_on_c, 1, 55, 70
1, 3716, Note_on_c, 0, 79, 0
1, 3716, Note_on_c, 1, 55, 0
1, 3741, Note_on_c, 0, 71, 0
1, 3744, Note_on_c, 1, 36, 64
1, 3760, Note_on_c, 0, 57, 64
1, 3775, Note_on_c, 0, 57, 0
1, 3776, Note_on_c, 0, 60, 64
1, 3789, Note_on_c, 1, 36, 0
1, 3791, Note_on_c, 0, 60, 0
1, 3792, Note_on_c, 0, 64, 64
1, 3807, Note_on_c, 0, 64, 0
1, 3808, Note_on_c, 0, 60, 64
1, 3823, Note_on_c, 0, 60, 0
1, 3824, Note_on_c, 0, 72, 64
1, 3839, Note_on_c, 0, 72, 0
1, 3840, Note_on_c, 0, 72, 64
1, 3840, Note_on_c, 1, 38, 64
1, 3855, Note_on_c, 0, 72, 0
1, 3856, Note_on_c, 0, 69, 64
1, 3871, Note_on_c, 0, 69, 0
1, 3872, Note_on_c, 0, 66, 64
1, 3872, Note_on_c, 0, 60, 64
1, 3885, Note_on_c, 1, 38, 0
1, 3887, Note_on_c, 0, 66, 0
1, 3887, Note_on_c, 0, 60, 0
1, 3888, Note_on_c, 0, 66, 64
1, 3888, Note_on_c, 0, 60, 70
1, 3888, Note_on_c, 1, 43, 64
1, 3977, Note_on_c, 0, 60, 0
1, 3984, Note_on_c, 0, 66, 0
1, 3984, Note_on_c, 0, 67, 64
1, 3984, Note_on_c, 0, 59, 70
1, 4004, Note_on_c, 0, 67, 0
1, 4021, Note_on_c, 1, 43, 0
1, 4029, Note_on_c, 0, 59, 0
1, 4032, Note_on_c, 0, 71, 70
1, 4080, Note_on_c, 1, 67, 70
1, 4080, Note_on_c, 1, 64, 70
1, 4095, Note_on_c, 0, 71, 0
1, 4096, Note_on_c, 0, 79, 70
1, 4111, Note_on_c, 0, 79, 0
1, 4112, Note_on_c, 0, 78, 70
1, 4125, Note_on_c, 1, 67, 0
1, 4125, Note_on_c, 1, 64, 0
1, 4127, Note_on_c, 0, 78, 0
1, 4128, Note_on_c, 0, 76, 70
1, 4128, Note_on_c, 1, 69, 70
1, 4128, Note_on_c, 1, 66, 70
1, 4143, Note_on_c, 0, 76, 0
1, 4144, Note_on_c, 0, 75, 70
1, 4159, Note_on_c, 0, 75, 0
1, 4160, Note_on_c, 0, 78, 70
1, 4173, Note_on_c, 1, 69, 0
1, 4173, Note_on_c, 1, 66, 0
1, 4175, Note_on_c, 0, 78, 0
1, 4176, Note_on_c, 0, 78, 70
1, 4176, Note_on_c, 1, 71, 70
1, 4176, Note_on_c, 1, 67, 70
1, 4191, Note_on_c, 0, 78, 0
1, 4192, Note_on_c, 0, 76, 70
1, 4196, Note_on_c, 1, 71, 0
1, 4196, Note_on_c, 1, 67, 0
1, 4207, Note_on_c, 0, 76, 0
1, 4208, Note_on_c, 0, 71, 70
1, 4223, Note_on_c, 0, 71, 0
1, 4224, Note_on_c, 0, 83, 86
1, 4272, Note_on_c, 1, 67, 70
1, 4287, Note_on_c, 0, 83, 0
1, 4288, Note_on_c, 0, 79, 70
1, 4303, Note_on_c, 0, 79, 0
1, 4304, Note_on_c, 0, 76, 70
1, 4317, Note_on_c, 1, 67, 0
1, 4319, Note_on_c, 0, 76, 0
1, 4320, Note_on_c, 0, 74, 70
1, 4320, Note_on_c, 1, 69, 70
1, 4335, Note_on_c, 0, 74, 0
1, 4336, Note_on_c, 0, 72, 70
1, 4351, Note_on_c, 0, 72, 0
1, 4352, Note_on_c, 0, 76, 70
1, 4365, Note_on_c, 1, 69, 0
1, 4367, Note_on_c, 0, 76, 0
1, 4368, Note_on_c, 0, 72, 70
1, 4368, Note_on_c, 1, 67, 70
1, 4383, Note_on_c, 0, 72, 0
1, 4384, Note_on_c, 0, 71, 70
1, 4399, Note_on_c, 0, 71, 0
1, 4400, Note_on_c, 0, 76, 70
1, 4413, Note_on_c, 1, 67, 0
1, 4415, Note_on_c, 0, 76, 0
1, 4416, Note_on_c, 0, 71, 70
1, 4416, Note_on_c, 1, 66, 70
1, 4431, Note_on_c, 0, 71, 0
1, 4431, Note_on_c, 1, 66, 0
1, 4432, Note_on_c, 0, 69, 70
1, 4447, Note_on_c, 0, 69, 0
1, 4448, Note_on_c, 0, 78, 70
1, 4448, Note_on_c, 0, 81, 64
1, 4448, Note_on_c, 1, 63, 70
1, 4463, Note_on_c, 0, 78, 0
1, 4463, Note_on_c, 0, 81, 0
1, 4463, Note_on_c, 1, 63, 0
1, 4464, Note_on_c, 0, 78, 70
1, 4464, Note_on_c, 0, 81, 75
1, 4464, Note_on_c, 1, 64, 70
1, 4498, Note_on_c, 0, 78, 0
1, 4498, Note_on_c, 0, 81, 0
1, 4498, Note_on_c, 1, 64, 0
1, 4500, Note_on_c, 0, 76, 71
1, 4500, Note_on_c, 0, 79, 71
1, 4500, Note_on_c, 1, 58, 71
1, 4512, Note_on_c, 0, 76, 0
1, 4512, Note_on_c, 0, 75, 72
1, 4512, Note_on_c, 0, 79, 0
1, 4512, Note_on_c, 0, 78, 70
1, 4512, Note_on_c, 1, 58, 0
1, 4512, Note_on_c, 1, 59, 72
1, 4532, Note_on_c, 0, 78, 0
1, 4557, Note_on_c, 0, 75, 0
1, 4557, Note_on_c, 1, 59, 0
1, 4608, Note_on_c, 0, 59, 70
1, 4656, Note_on_c, 1, 55, 70
1, 4656, Note_on_c, 1, 52, 70
1, 4671, Note_on_c, 0, 59, 0
1, 4672, Note_on_c, 0, 67, 70
1, 4687, Note_on_c, 0, 67, 0
1, 4688, Note_on_c, 0, 66, 70
1, 4701, Note_on_c, 1, 55, 0
1, 4701, Note_on_c, 1, 52, 0
1, 4703, Note_on_c, 0, 66, 0
1, 4704, Note_on_c, 0, 64, 70
1, 4704, Note_on_c, 1, 57, 70
1, 4704, Note_on_c, 1, 54, 70
1, 4719, Note_on_c, 0, 64, 0
1, 4720, Note_on_c, 0, 63, 70
1, 4735, Note_on_c, 0, 63, 0
1, 4736, Note_on_c, 0, 66, 70
1, 4749, Note_on_c, 1, 57, 0
1, 4749, Note_on_c, 1, 54, 0
1, 4751, Note_on_c, 0, 66, 0
1, 4752, Note_on_c, 0, 66, 70
1, 4752, Note_on_c, 1, 59, 70
1, 4752, Note_on_c, 1, 55, 70
1, 4767, Note_on_c, 0, 66, 0
1, 4768, Note_on_c, 0, 64, 70
1, 4772, Note_on_c, 1, 59, 0
1, 4772, Note_on_c, 1, 55, 0
1, 4783, Note_on_c, 0, 64, 0
1, 4784, Note_on_c, 0, 59, 70
1, 4799, Note_on_c, 0, 59, 0
1, 4800, Note_on_c, 0, 71, 86
1, 4848, Note_on_c, 1, 55, 70
1, 4863, Note_on_c, 0, 71, 0
1, 4864, Note_on_c, 0, 67, 70
1, 4879, Note_on_c, 0, 67, 0
1, 4880, Note_on_c, 0, 64, 70
1, 4893, Note_on_c, 1, 55, 0
1, 4895, Note_on_c, 0, 64, 0
1, 4896, Note_on_c, 0, 62, 70
1, 4896, Note_on_c, 1, 57, 70
1, 4911, Note_on_c, 0, 62, 0
1, 4912, Note_on_c, 0, 60, 70
1, 4927, Note_on_c, 0, 60, 0
1, 4928, Note_on_c, 0, 64, 70
1, 4943, Note_on_c, 0, 64, 0
1, 4944, Note_on_c, 0, 60, 70
1, 4959, Note_on_c, 0, 60, 0
1, 4960, Note_on_c, 0, 72, 70
1, 4975, Note_on_c, 0, 72, 0
1, 4976, Note_on_c, 0, 69, 70
1, 4985, Note_on_c, 1, 57, 0
1, 4991, Note_on_c, 0, 69, 0
1, 4992, Note_on_c, 0, 66, 70
1, 4992, Note_on_c, 1, 50, 70
1, 5007, Note_on_c, 0, 66, 0
1, 5008, Note_on_c, 0, 60, 70
1, 5023, Note_on_c, 0, 60, 0
1, 5024, Note_on_c, 0, 69, 70
1, 5037, Note_on_c, 1, 50, 0
1, 5039, Note_on_c, 0, 69, 0
1, 5040, Note_on_c, 0, 62, 70
1, 5040, Note_on_c, 1, 55, 70
1, 5064, Note_on_c, 0, 62, 0
1, 5064, Note_on_c, 0, 60, 70
1, 5070, Note_on_c, 0, 60, 0
1, 5070, Note_on_c, 0, 62, 70
1, 5076, Note_on_c, 0, 62, 0
1, 5076, Note_on_c, 0, 60, 70
1, 5087, Note_on_c, 0, 60, 0
1, 5088, Note_on_c, 0, 59, 70
1, 5103, Note_on_c, 0, 59, 0
1, 5104, Note_on_c, 0, 67, 70
1, 5119, Note_on_c, 0, 67, 0
1, 5120, Note_on_c, 0, 62, 70
1, 5129, Note_on_c, 1, 55, 0
1, 5135, Note_on_c, 0, 62, 0
1, 5136, Note_on_c, 0, 71, 70
1, 5136, Note_on_c, 1, 47, 70
1, 5151, Note_on_c, 0, 71, 0
1, 5152, Note_on_c, 0, 67, 70
1, 5167, Note_on_c, 0, 67, 0
1, 5168, Note_on_c, 0, 74, 70
1, 5181, Note_on_c, 1, 47, 0
1, 5183, Note_on_c, 0, 74, 0
1, 5184, Note_on_c, 0, 74, 70
1, 5184, Note_on_c, 1, 48, 70
1, 5199, Note_on_c, 0, 74, 0
1, 5200, Note_on_c, 0, 64, 70
1, 5215, Note_on_c, 0, 64, 0
1, 5216, Note_on_c, 0, 72, 71
1, 5231, Note_on_c, 0, 72, 0
1, 5232, Note_on_c, 0, 72, 71
1, 5247, Note_on_c, 0, 72, 0
1, 5248, Note_on_c, 0, 69, 72
1, 5263, Note_on_c, 0, 69, 0
1, 5264, Note_on_c, 0, 76, 72
1, 5273, Note_on_c, 1, 48, 0
1, 5279, Note_on_c, 0, 76, 0
1, 5280, Note_on_c, 0, 76, 73
1, 5280, Note_on_c, 1, 49, 73
1, 5295, Note_on_c, 0, 76, 0
1, 5296, Note_on_c, 0, 64, 75
1, 5311, Note_on_c, 0, 64, 0
1, 5312, Note_on_c, 0, 69, 75
1, 5325, Note_on_c, 1, 49, 0
1, 5327, Note_on_c, 0, 69, 0
1, 5328, Note_on_c, 0, 67, 75
1, 5328, Note_on_c, 1, 50, 75
1, 5373, Note_on_c, 1, 50, 0
1, 5376, Note_on_c, 1, 45, 73
1, 5421, Note_on_c, 1, 45, 0
1, 5424, Note_on_c, 0, 67, 0
1, 5424, Note_on_c, 0, 66, 71
1, 5424, Note_on_c, 1, 38, 71
1, 5430, Note_on_c, 0, 66, 0
1, 5430, Note_on_c, 0, 67, 71
1, 5436, Note_on_c, 0, 67, 0
1, 5436, Note_on_c, 0, 66, 71
1, 5469, Note_on_c, 1, 38, 0
1, 5471, Note_on_c, 0, 66, 0
1, 5472, Note_on_c, 0, 74, 75
1, 5488, Note_on_c, 0, 69, 75
1, 5488, Note_on_c, 1, 54, 75
1, 5503, Note_on_c, 0, 69, 0
1, 5503, Note_on_c, 1, 54, 0
1, 5504, Note_on_c, 0, 66, 75
1, 5504, Note_on_c, 1, 50, 75
1, 5519, Note_on_c, 0, 66, 0
1, 5519, Note_on_c, 1, 50, 0
1, 5520, Note_on_c, 0, 71, 75
1, 5520, Note_on_c, 1, 55, 75
1, 5535, Note_on_c, 0, 71, 0
1, 5535, Note_on_c, 1, 55, 0
1, 5536, Note_on_c, 0, 67, 76
1, 5536, Note_on_c, 1, 52, 76
1, 5551, Note_on_c, 0, 67, 0
1, 5551, Note_on_c, 1, 52, 0
1, 5552, Note_on_c, 0, 72, 76
1, 5552, Note_on_c, 1, 57, 76
1, 5567, Note_on_c, 0, 72, 0
1, 5567, Note_on_c, 1, 57, 0
1, 5568, Note_on_c, 0, 69, 77
1, 5568, Note_on_c, 1, 54, 77
1, 5583, Note_on_c, 0, 74, 0
1, 5583, Note_on_c, 0, 69, 0
1, 5583, Note_on_c, 1, 54, 0
1, 5584, Note_on_c, 0, 81, 76
1, 5599, Note_on_c, 0, 81, 0
1, 5600, Note_on_c, 0, 78, 77
1, 5600, Note_on_c, 1, 74, 78
1, 5600, Note_on_c, 1, 72, 78
1, 5615, Note_on_c, 0, 78, 0
1, 5616, Note_on_c, 0, 79, 80
1, 5616, Note_on_c, 1, 72, 0
1, 5616, Note_on_c, 1, 71, 80
1, 5631, Note_on_c, 0, 79, 0
1, 5632, Note_on_c, 0, 74, 79
1, 5639, Note_on_c, 1, 74, 0
1, 5639, Note_on_c, 1, 71, 0
1, 5647, Note_on_c, 0, 74, 0
1, 5648, Note_on_c, 0, 83, 79
1, 5663, Note_on_c, 0, 83, 0
1, 5664, Note_on_c, 0, 79, 78
1, 5679, Note_on_c, 0, 79, 0
1, 5680, Note_on_c, 0, 86, 78
1, 5695, Note_on_c, 0, 86, 0
1, 5696, Note_on_c, 0, 83, 77
1, 5711, Note_on_c, 0, 83, 0
1, 5712, Note_on_c, 0, 79, 77
1, 5727, Note_on_c, 0, 79, 0
1, 5728, Note_on_c, 0, 74, 77
1, 5743, Note_on_c, 0, 74, 0
1, 5744, Note_on_c, 0, 71, 76
1, 5759, Note_on_c, 0, 71, 0
1, 5760, Note_on_c, 0, 74, 75
1, 5776, Note_on_c, 0, 69, 75
1, 5776, Note_on_c, 1, 54, 75
1, 5791, Note_on_c, 0, 69, 0
1, 5791, Note_on_c, 1, 54, 0
1, 5792, Note_on_c, 0, 66, 75
1, 5792, Note_on_c, 1, 50, 75
1, 5807, Note_on_c, 0, 66, 0
1, 5807, Note_on_c, 1, 50, 0
1, 5808, Note_on_c, 0, 71, 76
1, 5808, Note_on_c, 1, 55, 76
1, 5823, Note_on_c, 0, 71, 0
1, 5823, Note_on_c, 1, 55, 0
1, 5824, Note_on_c, 0, 67, 76
1, 5824, Note_on_c, 1, 52, 76
1, 5839, Note_on_c, 0, 67, 0
1, 5839, Note_on_c, 1, 52, 0
1, 5840, Note_on_c, 0, 72, 77
1, 5840, Note_on_c, 1, 57, 77
1, 5855, Note_on_c, 0, 72, 0
1, 5855, Note_on_c, 1, 57, 0
1, 5856, Note_on_c, 0, 69, 77
1, 5856, Note_on_c, 1, 54, 77
1, 5871, Note_on_c, 0, 74, 0
1, 5871, Note_on_c, 0, 69, 0
1, 5871, Note_on_c, 1, 54, 0
1, 5872, Note_on_c, 0, 81, 78
1, 5887, Note_on_c, 0, 81, 0
1, 5888, Note_on_c, 0, 78, 79
1, 5888, Note_on_c, 1, 74, 78
1, 5888, Note_on_c, 1, 72, 78
1, 5903, Note_on_c, 0, 78, 0
1, 5904, Note_on_c, 0, 79, 80
1, 5904, Note_on_c, 1, 72, 0
1, 5904, Note_on_c, 1, 71, 80
1, 5919, Note_on_c, 0, 79, 0
1, 5920, Note_on_c, 0, 74, 79
1, 5927, Note_on_c, 1, 74, 0
1, 5927, Note_on_c, 1, 71, 0
1, 5935, Note_on_c, 0, 74, 0
1, 5936, Note_on_c, 0, 83, 79
1, 5951, Note_on_c, 0, 83, 0
1, 5952, Note_on_c, 0, 79, 78
1, 5967, Note_on_c, 0, 79, 0
1, 5968, Note_on_c, 0, 86, 78
1, 5983, Note_on_c, 0, 86, 0
1, 5984, Note_on_c, 0, 83, 77
1, 5999, Note_on_c, 0, 83, 0
1, 6000, Note_on_c, 0, 79, 77
1, 6015, Note_on_c, 0, 79, 0
1, 6016, Note_on_c, 0, 74, 77
1, 6031, Note_on_c, 0, 74, 0
1, 6032, Note_on_c, 0, 71, 76
1, 6047, Note_on_c, 0, 71, 0
1, 6048, Note_on_c, 0, 74, 75
1, 6064, Note_on_c, 0, 69, 75
1, 6064, Note_on_c, 1, 54, 75
1, 6079, Note_on_c, 0, 69, 0
1, 6079, Note_on_c, 1, 54, 0
1, 6080, Note_on_c, 0, 66, 75
1, 6080, Note_on_c, 1, 50, 75
1, 6095, Note_on_c, 0, 66, 0
1, 6095, Note_on_c, 1, 50, 0
1, 6096, Note_on_c, 0, 71, 76
1, 6096, Note_on_c, 1, 55, 76
1, 6111, Note_on_c, 0, 71, 0
1, 6111, Note_on_c, 1, 55, 0
1, 6112, Note_on_c, 0, 67, 76
1, 6112, Note_on_c, 1, 52, 76
1, 6127, Note_on_c, 0, 67, 0
1, 6127, Note_on_c, 1, 52, 0
1, 6128, Note_on_c, 0, 72, 77
1, 6128, Note_on_c, 1, 57, 77
1, 6143, Note_on_c, 0, 72, 0
1, 6143, Note_on_c, 1, 57, 0
1, 6144, Note_on_c, 0, 69, 77
1, 6144, Note_on_c, 1, 54, 77
1, 6159, Note_on_c, 0, 74, 0
1, 6159, Note_on_c, 0, 69, 0
1, 6159, Note_on_c, 1, 54, 0
1, 6160, Note_on_c, 0, 74, 78
1, 6160, Note_on_c, 1, 59, 78
1, 6175, Note_on_c, 0, 74, 0
1, 6175, Note_on_c, 1, 59, 0
1, 6176, Note_on_c, 0, 71, 79
1, 6176, Note_on_c, 1, 55, 80
1, 6191, Note_on_c, 0, 71, 0
1, 6191, Note_on_c, 1, 55, 0
1, 6192, Note_on_c, 0, 76, 80
1, 6192, Note_on_c, 1, 60, 80
1, 6207, Note_on_c, 0, 76, 0
1, 6207, Note_on_c, 1, 60, 0
1, 6208, Note_on_c, 0, 72, 78
1, 6208, Note_on_c, 1, 57, 78
1, 6223, Note_on_c, 0, 72, 0
1, 6223, Note_on_c, 1, 57, 0
1, 6224, Note_on_c, 0, 78, 77
1, 6224, Note_on_c, 1, 62, 77
1, 6239, Note_on_c, 0, 78, 0
1, 6239, Note_on_c, 1, 62, 0
1, 6240, Note_on_c, 0, 79, 76
1, 6240, Note_on_c, 1, 64, 76
1, 6260, Note_on_c, 0, 79, 0
1, 6260, Note_on_c, 1, 64, 0
1, 6336, Note_on_c, 1, 52, 64
1, 6352, Note_on_c, 0, 71, 64
1, 6367, Note_on_c, 0, 71, 0
1, 6368, Note_on_c, 0, 72, 64
1, 6381, Note_on_c, 1, 52, 0
1, 6383, Note_on_c, 0, 72, 0
1, 6384, Note_on_c, 0, 79, 64
1, 6400, Note_on_c, 1, 64, 65
1, 6404, Note_on_c, 0, 79, 0
1, 6416, Note_on_c, 1, 64, 0
1, 6416, Note_on_c, 1, 52, 65
1, 6431, Note_on_c, 1, 52, 0
1, 6432, Note_on_c, 0, 78, 66
1, 6448, Note_on_c, 1, 62, 66
1, 6452, Note_on_c, 0, 78, 0
1, 6464, Note_on_c, 1, 62, 0
1, 6464, Note_on_c, 1, 50, 66
1, 6479, Note_on_c, 1, 50, 0
1, 6480, Note_on_c, 1, 48, 67
1, 6496, Note_on_c, 0, 68, 67
1, 6511, Note_on_c, 0, 68, 0
1, 6512, Note_on_c, 0, 69, 68
1, 6525, Note_on_c, 1, 48, 0
1, 6527, Note_on_c, 0, 69, 0
1, 6528, Note_on_c, 0, 76, 68
1, 6544, Note_on_c, 1, 60, 68
1, 6548, Note_on_c, 0, 76, 0
1, 6560, Note_on_c, 1, 60, 0
1, 6560, Note_on_c, 1, 48, 68
1, 6575, Note_on_c, 1, 48, 0
1, 6576, Note_on_c, 0, 74, 69
1, 6592, Note_on_c, 1, 59, 69
1, 6596, Note_on_c, 0, 74, 0
1, 6608, Note_on_c, 1, 59, 0
1, 6608, Note_on_c, 1, 47, 69
1, 6623, Note_on_c, 1, 47, 0
1, 6624, Note_on_c, 1, 45, 70
1, 6640, Note_on_c, 0, 66, 71
1, 6655, Note_on_c, 0, 66, 0
1, 6656, Note_on_c, 0, 69, 71
1, 6669, Note_on_c, 1, 45, 0
1, 6671, Note_on_c, 0, 69, 0
1, 6672, Note_on_c, 0, 72, 71
1, 6687, Note_on_c, 0, 72, 0
1, 6688, Note_on_c, 0, 62, 72
1, 6703, Note_on_c, 0, 62, 0
1, 6704, Note_on_c, 0, 63, 72
1, 6719, Note_on_c, 0, 63, 0
1, 6720, Note_on_c, 1, 58, 72
1, 6720, Note_on_c, 1, 55, 72
1, 6736, Note_on_c, 0, 62, 73
1, 6751, Note_on_c, 0, 62, 0
1, 6752, Note_on_c, 0, 63, 75
1, 6765, Note_on_c, 1, 58, 0
1, 6765, Note_on_c, 1, 55, 0
1, 6767, Note_on_c, 0, 63, 0
1, 6768, Note_on_c, 1, 57, 75
1, 6768, Note_on_c, 1, 54, 75
1, 6784, Note_on_c, 0, 66, 75
1, 6799, Note_on_c, 0, 66, 0
1, 6800, Note_on_c, 0, 69, 75
1, 6815, Note_on_c, 0, 69, 0
1, 6816, Note_on_c, 0, 72, 75
1, 6831, Note_on_c, 0, 72, 0
1, 6832, Note_on_c, 0, 62, 75
1, 6848, Note_on_c, 0, 62, 0
1, 6848, Note_on_c, 0, 63, 75
1, 6863, Note_on_c, 0, 63, 0
1, 6864, Note_on_c, 0, 62, 75
1, 6879, Note_on_c, 0, 62, 0
1, 6880, Note_on_c, 0, 76, 75
1, 6895, Note_on_c, 0, 76, 0
1, 6896, Note_on_c, 0, 74, 75
1, 6901, Note_on_c, 1, 57, 0
1, 6901, Note_on_c, 1, 54, 0
1, 6911, Note_on_c, 0, 74, 0
1, 6912, Note_on_c, 0, 71, 75
1, 6912, Note_on_c, 0, 67, 80
1, 6928, Note_on_c, 1, 55, 75
1, 6943, Note_on_c, 1, 55, 0
1, 6944, Note_on_c, 1, 59, 75
1, 6957, Note_on_c, 0, 71, 0
1, 6957, Note_on_c, 0, 67, 0
1, 6959, Note_on_c, 1, 59, 0
1, 6960, Note_on_c, 0, 69, 75
1, 6960, Note_on_c, 0, 67, 80
1, 6960, Note_on_c, 1, 60, 75
1, 6975, Note_on_c, 1, 60, 0
1, 6976, Note_on_c, 1, 57, 75
1, 6991, Note_on_c, 1, 57, 0
1, 6992, Note_on_c, 1, 61, 75
1, 7005, Note_on_c, 0, 67, 0
1, 7007, Note_on_c, 1, 61, 0
1, 7008, Note_on_c, 0, 66, 80
1, 7008, Note_on_c, 1, 62, 75
1, 7023, Note_on_c, 0, 69, 0
1, 7023, Note_on_c, 1, 62, 0
1, 7024, Note_on_c, 0, 71, 75
1, 7024, Note_on_c, 1, 50, 75
1, 7039, Note_on_c, 0, 71, 0
1, 7039, Note_on_c, 1, 50, 0
1, 7040, Note_on_c, 0, 72, 75
1, 7040, Note_on_c, 1, 62, 75
1, 7053, Note_on_c, 0, 66, 0
1, 7055, Note_on_c, 0, 72, 0
1, 7055, Note_on_c, 1, 62, 0
1, 7056, Note_on_c, 0, 74, 75
1, 7056, Note_on_c, 0, 67, 80
1, 7056, Note_on_c, 1, 64, 75
1, 7062, Note_on_c, 0, 74, 0
1, 7062, Note_on_c, 0, 72, 75
1, 7068, Note_on_c, 0, 72, 0
1, 7068, Note_on_c, 0, 71, 75
1, 7074, Note_on_c, 0, 71, 0
1, 7074, Note_on_c, 0, 72, 75
1, 7152, Note_on_c, 0, 72, 0
1, 7152, Note_on_c, 0, 71, 75
1, 7172, Note_on_c, 0, 71, 0
1, 7189, Note_on_c, 0, 67, 0
1, 7189, Note_on_c, 1, 64, 0
1, 7200, Note_on_c, 0, 71, 75
1, 7200, Note_on_c, 0, 67, 80
1, 7216, Note_on_c, 1, 55, 75
1, 7231, Note_on_c, 1, 55, 0
1, 7232, Note_on_c, 1, 59, 75
1, 7245, Note_on_c, 0, 71, 0
1, 7245, Note_on_c, 0, 67, 0
1, 7247, Note_on_c, 1, 59, 0
1, 7248, Note_on_c, 0, 69, 75
1, 7248, Note_on_c, 0, 67, 80
1, 7248, Note_on_c, 1, 60, 75
1, 7263, Note_on_c, 1, 60, 0
1, 7264, Note_on_c, 1, 57, 75
1, 7279, Note_on_c, 1, 57, 0
1, 7280, Note_on_c, 1, 61, 75
1, 7293, Note_on_c, 0, 67, 0
1, 7295, Note_on_c, 1, 61, 0
1, 7296, Note_on_c, 0, 66, 80
1, 7296, Note_on_c, 1, 62, 75
1, 7311, Note_on_c, 0, 69, 0
1, 7311, Note_on_c, 1, 62, 0
1, 7312, Note_on_c, 0, 71, 75
1, 7312, Note_on_c, 1, 50, 75
1, 7327, Note_on_c, 0, 71, 0
1, 7327, Note_on_c, 1, 50, 0
1, 7328, Note_on_c, 0, 72, 75
1, 7328, Note_on_c, 1, 62, 75
1, 7341, Note_on_c, 0, 66, 0
1, 7343, Note_on_c, 0, 72, 0
1, 7343, Note_on_c, 1, 62, 0
1, 7344, Note_on_c, 0, 72, 70
1, 7344, Note_on_c, 0, 67, 70
1, 7344, Note_on_c, 1, 64, 70
1, 7359, Note_on_c, 0, 67, 0
1, 7360, Note_on_c, 0, 72, 0
1, 7360, Note_on_c, 0, 71, 70
1, 7360, Note_on_c, 1, 64, 0
1, 7360, Note_on_c, 1, 62, 70
1, 7375, Note_on_c, 0, 71, 0
1, 7375, Note_on_c, 1, 62, 0
1, 7376, Note_on_c, 0, 76, 71
1, 7376, Note_on_c, 0, 67, 71
1, 7376, Note_on_c, 1, 60, 71
1, 7383, Note_on_c, 0, 76, 0
1, 7383, Note_on_c, 1, 60, 0
1, 7391, Note_on_c, 0, 67, 0
1, 7392, Note_on_c, 0, 76, 71
1, 7392, Note_on_c, 0, 67, 71
1, 7392, Note_on_c, 1, 60, 71
1, 7407, Note_on_c, 0, 67, 0
1, 7408, Note_on_c, 0, 76, 0
1, 7408, Note_on_c, 0, 74, 72
1, 7408, Note_on_c, 1, 60, 0
1, 7408, Note_on_c, 1, 59, 72
1, 7423, Note_on_c, 0, 74, 0
1, 7423, Note_on_c, 1, 59, 0
1, 7424, Note_on_c, 0, 72, 72
1, 7424, Note_on_c, 0, 67, 72
1, 7424, Note_on_c, 1, 64, 72
1, 7431, Note_on_c, 0, 72, 0
1, 7431, Note_on_c, 1, 64, 0
1, 7439, Note_on_c, 0, 67, 0
1, 7440, Note_on_c, 0, 72, 73
1, 7440, Note_on_c, 0, 67, 73
1, 7440, Note_on_c, 1, 64, 73
1, 7455, Note_on_c, 0, 67, 0
1, 7456, Note_on_c, 0, 72, 0
1, 7456, Note_on_c, 0, 71, 73
1, 7456, Note_on_c, 1, 64, 0
1, 7456, Note_on_c, 1, 62, 73
1, 7471, Note_on_c, 0, 71, 0
1, 7471, Note_on_c, 1, 62, 0
1, 7472, Note_on_c, 0, 76, 74
1, 7472, Note_on_c, 0, 67, 74
1, 7472, Note_on_c, 1, 60, 74
1, 7479, Note_on_c, 0, 76, 0
1, 7479, Note_on_c, 1, 60, 0
1, 7487, Note_on_c, 0, 67, 0
1, 7488, Note_on_c, 0, 76, 74
1, 7488, Note_on_c, 0, 67, 74
1, 7488, Note_on_c, 1, 60, 74
1, 7503, Note_on_c, 0, 67, 0
1, 7504, Note_on_c, 0, 76, 0
1, 7504, Note_on_c, 0, 74, 75
1, 7504, Note_on_c, 1, 60, 0
1, 7504, Note_on_c, 1, 59, 75
1, 7519, Note_on_c, 0, 74, 0
1, 7519, Note_on_c, 1, 59, 0
1, 7520, Note_on_c, 0, 72, 75
1, 7520, Note_on_c, 0, 67, 75
1, 7520, Note_on_c, 1, 64, 75
1, 7527, Note_on_c, 0, 72, 0
1, 7527, Note_on_c, 1, 64, 0
1, 7535, Note_on_c, 0, 67, 0
1, 7536, Note_on_c, 0, 72, 76
1, 7536, Note_on_c, 0, 67, 76
1, 7536, Note_on_c, 1, 64, 76
1, 7551, Note_on_c, 0, 67, 0
1, 7552, Note_on_c, 0, 72, 0
1, 7552, Note_on_c, 0, 71, 76
1, 7552, Note_on_c, 1, 64, 0
1, 7552, Note_on_c, 1, 62, 76
1, 7567, Note_on_c, 0, 71, 0
1, 7567, Note_on_c, 1, 62, 0
1, 7568, Note_on_c, 0, 76, 77
1, 7568, Note_on_c, 0, 67, 77
1, 7568, Note_on_c, 1, 60, 77
1, 7575, Note_on_c, 0, 76, 0
1, 7575, Note_on_c, 1, 60, 0
1, 7583, Note_on_c, 0, 67, 0
1, 7584, Note_on_c, 0, 76, 77
1, 7584, Note_on_c, 0, 67, 77
1, 7584, Note_on_c, 1, 60, 77
1, 7599, Note_on_c, 0, 67, 0
1, 7600, Note_on_c, 0, 76, 0
1, 7600, Note_on_c, 0, 74, 78
1, 7600, Note_on_c, 1, 60, 0
1, 7600, Note_on_c, 1, 59, 78
1, 7615, Note_on_c, 0, 74, 0
1, 7615, Note_on_c, 1, 59, 0
1, 7616, Note_on_c, 0, 78, 78
1, 7616, Note_on_c, 0, 72, 78
1, 7616, Note_on_c, 1, 57, 78
1, 7623, Note_on_c, 0, 78, 0
1, 7623, Note_on_c, 1, 57, 0
1, 7631, Note_on_c, 0, 72, 0
1, 7632, Note_on_c, 0, 78, 79
1, 7632, Note_on_c, 0, 72, 79
1, 7632, Note_on_c, 1, 57, 79
1, 7728, Note_on_c, 0, 78, 0
1, 7728, Note_on_c, 0, 79, 70
1, 7728, Note_on_c, 0, 72, 0
1, 7728, Note_on_c, 0, 71, 70
1, 7728, Note_on_c, 1, 57, 0
1, 7728, Note_on_c, 1, 55, 70
1, 7748, Note_on_c, 0, 79, 0
1, 7748, Note_on_c, 1, 55, 0
1, 7773, Note_on_c, 0, 71, 0
1, 7776, Note_on_c, 1, 36, 64
1, 7792, Note_on_c, 0, 57, 64
1, 7807, Note_on_c, 0, 57, 0
1, 7808, Note_on_c, 0, 60, 64
1, 7821, Note_on_c, 1, 36, 0
1, 7823, Note_on_c, 0, 60, 0
1, 7824, Note_on_c, 0, 64, 64
1, 7839, Note_on_c, 0, 64, 0
1, 7840, Note_on_c, 0, 60, 64
1, 7855, Note_on_c, 0, 60, 0
1, 7856, Note_on_c, 0, 72, 64
1, 7871, Note_on_c, 0, 72, 0
1, 7872, Note_on_c, 0, 72, 64
1, 7872, Note_on_c, 1, 38, 64
1, 7887, Note_on_c, 0, 72, 0
1, 7888, Note_on_c, 0, 69, 64
1, 7903, Note_on_c, 0, 69, 0
1, 7904, Note_on_c, 0, 66, 64
1, 7904, Note_on_c, 0, 60, 64
1, 7917, Note_on_c, 1, 38, 0
1, 7919, Note_on_c, 0, 66, 0
1, 7919, Note_on_c, 0, 60, 0
1, 7920, Note_on_c, 0, 66, 64
1, 7920, Note_on_c, 0, 60, 70
1, 7920, Note_on_c, 1, 43, 64
1, 8009, Note_on_c, 0, 60, 0
1, 8016, Note_on_c, 0, 66, 0
1, 8016, Note_on_c, 0, 67, 64
1, 8016, Note_on_c, 0, 59, 70
1, 8036, Note_on_c, 0, 67, 0
1, 8053, Note_on_c, 1, 43, 0
1, 8061, Note_on_c, 0, 59, 0
1, 8064, Note_on_c, 0, 74, 75
1, 8112, Note_on_c, 1, 71, 75
1, 8112, Note_on_c, 1, 67, 75
1, 8127, Note_on_c, 0, 74, 0
1, 8128, Note_on_c, 0, 83, 75
1, 8143, Note_on_c, 0, 83, 0
1, 8144, Note_on_c, 0, 81, 75
1, 8157, Note_on_c, 1, 71, 0
1, 8157, Note_on_c, 1, 67, 0
1, 8159, Note_on_c, 0, 81, 0
1, 8160, Note_on_c, 0, 79, 75
1, 8160, Note_on_c, 1, 72, 75
1, 8160, Note_on_c, 1, 69, 75
1, 8175, Note_on_c, 0, 79, 0
1, 8176, Note_on_c, 0, 78, 75
1, 8191, Note_on_c, 0, 78, 0
1, 8192, Note_on_c, 0, 81, 75
1, 8205, Note_on_c, 1, 72, 0
1, 8205, Note_on_c, 1, 69, 0
1, 8207, Note_on_c, 0, 81, 0
1, 8208, Note_on_c, 0, 81, 75
1, 8208, Note_on_c, 1, 74, 75
1, 8208, Note_on_c, 1, 71, 75
1, 8223, Note_on_c, 0, 81, 0
1, 8224, Note_on_c, 0, 79, 75
1, 8228, Note_on_c, 1, 74, 0
1, 8228, Note_on_c, 1, 71, 0
1, 8239, Note_on_c, 0, 79, 0
1, 8240, Note_on_c, 0, 74, 75
1, 8255, Note_on_c, 0, 74, 0
1, 8256, Note_on_c, 0, 86, 91
1, 8304, Note_on_c, 1, 71, 75
1, 8319, Note_on_c, 0, 86, 0
1, 8320, Note_on_c, 0, 83, 75
1, 8335, Note_on_c, 0, 83, 0
1, 8336, Note_on_c, 0, 79, 75
1, 8349, Note_on_c, 1, 71, 0
1, 8351, Note_on_c, 0, 79, 0
1, 8352, Note_on_c, 0, 78, 75
1, 8352, Note_on_c, 1, 72, 75
1, 8367, Note_on_c, 0, 78, 0
1, 8368, Note_on_c, 0, 76, 75
1, 8383, Note_on_c, 0, 76, 0
1, 8384, Note_on_c, 0, 79, 75
1, 8397, Note_on_c, 1, 72, 0
1, 8399, Note_on_c, 0, 79, 0
1, 8400, Note_on_c, 0, 76, 76
1, 8400, Note_on_c, 1, 71, 76
1, 8415, Note_on_c, 0, 76, 0
1, 8416, Note_on_c, 0, 74, 76
1, 8431, Note_on_c, 0, 74, 0
1, 8432, Note_on_c, 0, 79, 77
1, 8445, Note_on_c, 1, 71, 0
1, 8447, Note_on_c, 0, 79, 0
1, 8448, Note_on_c, 0, 74, 77
1, 8448, Note_on_c, 1, 69, 78
1, 8463, Note_on_c, 0, 74, 0
1, 8463, Note_on_c, 1, 69, 0
1, 8464, Note_on_c, 0, 72, 77
1, 8479, Note_on_c, 0, 72, 0
1, 8480, Note_on_c, 0, 81, 78
1, 8480, Note_on_c, 0, 84, 75
1, 8480, Note_on_c, 1, 66, 79
1, 8495, Note_on_c, 0, 81, 0
1, 8495, Note_on_c, 0, 84, 0
1, 8495, Note_on_c, 1, 66, 0
1, 8496, Note_on_c, 0, 81, 80
1, 8496, Note_on_c, 0, 84, 80
1, 8496, Note_on_c, 1, 67, 80
1, 8530, Note_on_c, 0, 81, 0
1, 8530, Note_on_c, 0, 84, 0
1, 8530, Note_on_c, 1, 67, 0
1, 8532, Note_on_c, 0, 79, 78
1, 8532, Note_on_c, 0, 83, 78
1, 8532, Note_on_c, 1, 61, 76
1, 8544, Note_on_c, 0, 79, 0
1, 8544, Note_on_c, 0, 78, 77
1, 8544, Note_on_c, 0, 83, 0
1, 8544, Note_on_c, 0, 81, 77
1, 8544, Note_on_c, 1, 61, 0
1, 8544, Note_on_c, 1, 62, 75
1, 8564, Note_on_c, 0, 81, 0
1, 8589, Note_on_c, 0, 78, 0
1, 8589, Note_on_c, 1, 62, 0
1, 8640, Note_on_c, 0, 62, 75
1, 8688, Note_on_c, 1, 59, 75
1, 8688, Note_on_c, 1, 55, 75
1, 8703, Note_on_c, 0, 62, 0
1, 8704, Note_on_c, 0, 71, 75
1, 8719, Note_on_c, 0, 71, 0
1, 8720, Note_on_c, 0, 69, 75
1, 8733, Note_on_c, 1, 59, 0
1, 8733, Note_on_c, 1, 55, 0
1, 8735, Note_on_c, 0, 69, 0
1, 8736, Note_on_c, 0, 67, 75
1, 8736, Note_on_c, 1, 60, 75
1, 8736, Note_on_c, 1, 57, 75
1, 8751, Note_on_c, 0, 67, 0
1, 8752, Note_on_c, 0, 66, 75
1, 8767, Note_on_c, 0, 66, 0
1, 8768, Note_on_c, 0, 69, 75
1, 8781, Note_on_c, 1, 60, 0
1, 8781, Note_on_c, 1, 57, 0
1, 8783, Note_on_c, 0, 69, 0
1, 8784, Note_on_c, 0, 69, 75
1, 8784, Note_on_c, 1, 62, 75
1, 8784, Note_on_c, 1, 59, 75
1, 8799, Note_on_c, 0, 69, 0
1, 8800, Note_on_c, 0, 67, 75
1, 8804, Note_on_c, 1, 62, 0
1, 8804, Note_on_c, 1, 59, 0
1, 8815, Note_on_c, 0, 67, 0
1, 8816, Note_on_c, 0, 62, 75
1, 8831, Note_on_c, 0, 62, 0
1, 8832, Note_on_c, 0, 74, 91
1, 8880, Note_on_c, 1, 53, 75
1, 8895, Note_on_c, 0, 74, 0
1, 8896, Note_on_c, 0, 71, 75
1, 8911, Note_on_c, 0, 71, 0
1, 8912, Note_on_c, 0, 67, 75
1, 8927, Note_on_c, 0, 67, 0
1, 8928, Note_on_c, 0, 69, 75
1, 8928, Note_on_c, 1, 53, 0
1, 8928, Note_on_c, 1, 52, 75
1, 8943, Note_on_c, 0, 69, 0
1, 8944, Note_on_c, 0, 68, 75
1, 8959, Note_on_c, 0, 68, 0
1, 8960, Note_on_c, 0, 62, 75
1, 8973, Note_on_c, 1, 52, 0
1, 8975, Note_on_c, 0, 62, 0
1, 8976, Note_on_c, 0, 77, 91
1, 9024, Note_on_c, 1, 56, 75
1, 9039, Note_on_c, 0, 77, 0
1, 9040, Note_on_c, 0, 74, 75
1, 9055, Note_on_c, 0, 74, 0
1, 9056, Note_on_c, 0, 71, 75
1, 9069, Note_on_c, 1, 56, 0
1, 9071, Note_on_c, 0, 71, 0
1, 9072, Note_on_c, 0, 74, 75
1, 9072, Note_on_c, 1, 57, 75
1, 9087, Note_on_c, 0, 74, 0
1, 9087, Note_on_c, 1, 57, 0
1, 9088, Note_on_c, 0, 72, 75
1, 9103, Note_on_c, 0, 72, 0
1, 9104, Note_on_c, 0, 69, 75
1, 9104, Note_on_c, 1, 60, 75
1, 9104, Note_on_c, 1, 51, 75
1, 9119, Note_on_c, 0, 69, 0
1, 9119, Note_on_c, 1, 60, 0
1, 9119, Note_on_c, 1, 51, 0
1, 9120, Note_on_c, 0, 68, 75
1, 9120, Note_on_c, 1, 59, 75
1, 9120, Note_on_c, 1, 52, 75
1, 9140, Note_on_c, 0, 68, 0
1, 9140, Note_on_c, 1, 59, 0
1, 9140, Note_on_c, 1, 52, 0
1, 9216, Note_on_c, 0, 76, 75
1, 9232, Note_on_c, 0, 71, 75
1, 9232, Note_on_c, 1, 56, 75
1, 9247, Note_on_c, 0, 71, 0
1, 9247, Note_on_c, 1, 56, 0
1, 9248, Note_on_c, 0, 68, 75
1, 9248, Note_on_c, 1, 52, 75
1, 9263, Note_on_c, 0, 68, 0
1, 9263, Note_on_c, 1, 52, 0
1, 9264, Note_on_c, 0, 72, 75
1, 9264, Note_on_c, 1, 57, 75
1, 9279, Note_on_c, 0, 72, 0
1, 9279, Note_on_c, 1, 57, 0
1, 9280, Note_on_c, 0, 69, 75
1, 9280, Note_on_c, 1, 54, 75
1, 9295, Note_on_c, 0, 69, 0
1, 9295, Note_on_c, 1, 54, 0
1, 9296, Note_on_c, 0, 74, 75
1, 9296, Note_on_c, 1, 59, 75
1, 9311, Note_on_c, 0, 74, 0
1, 9311, Note_on_c, 1, 59, 0
1, 9312, Note_on_c, 0, 71, 75
1, 9312, Note_on_c, 1, 56, 75
1, 9327, Note_on_c, 0, 76, 0
1, 9327, Note_on_c, 0, 71, 0
1, 9328, Note_on_c, 0, 83, 75
1, 9343, Note_on_c, 0, 83, 0
1, 9344, Note_on_c, 0, 80, 75
1, 9357, Note_on_c, 1, 56, 0
1, 9359, Note_on_c, 0, 80, 0
1, 9360, Note_on_c, 0, 81, 75
1, 9376, Note_on_c, 0, 76, 75
1, 9376, Note_on_c, 1, 61, 75
1, 9391, Note_on_c, 0, 76, 0
1, 9391, Note_on_c, 1, 61, 0
1, 9392, Note_on_c, 0, 73, 75
1, 9392, Note_on_c, 1, 57, 75
1, 9407, Note_on_c, 0, 73, 0
1, 9407, Note_on_c, 1, 57, 0
1, 9408, Note_on_c, 0, 78, 75
1, 9408, Note_on_c, 1, 62, 75
1, 9423, Note_on_c, 0, 78, 0
1, 9423, Note_on_c, 1, 62, 0
1, 9424, Note_on_c, 0, 74, 75
1, 9424, Note_on_c, 1, 59, 75
1, 9439, Note_on_c, 0, 74, 0
1, 9439, Note_on_c, 1, 59, 0
1, 9440, Note_on_c, 0, 79, 75
1, 9440, Note_on_c, 1, 64, 75
1, 9455, Note_on_c, 0, 79, 0
1, 9455, Note_on_c, 1, 64, 0
1, 9456, Note_on_c, 0, 76, 75
1, 9456, Note_on_c, 1, 61, 75
1, 9471, Note_on_c, 0, 81, 0
1, 9471, Note_on_c, 0, 76, 0
1, 9472, Note_on_c, 0, 76, 75
1, 9487, Note_on_c, 0, 76, 0
1, 9488, Note_on_c, 0, 73, 75
1, 9501, Note_on_c, 1, 61, 0
1, 9503, Note_on_c, 0, 73, 0
1, 9504, Note_on_c, 0, 74, 75
1, 9520, Note_on_c, 0, 69, 75
1, 9520, Note_on_c, 1, 54, 75
1, 9535, Note_on_c, 0, 69, 0
1, 9535, Note_on_c, 1, 54, 0
1, 9536, Note_on_c, 0, 66, 75
1, 9536, Note_on_c, 1, 50, 75
1, 9551, Note_on_c, 0, 66, 0
1, 9551, Note_on_c, 1, 50, 0
1, 9552, Note_on_c, 0, 71, 75
1, 9552, Note_on_c, 1, 55, 75
1, 9567, Note_on_c, 0, 71, 0
1, 9567, Note_on_c, 1, 55, 0
1, 9568, Note_on_c, 0, 67, 75
1, 9568, Note_on_c, 1, 52, 75
1, 9583, Note_on_c, 0, 67, 0
1, 9583, Note_on_c, 1, 52, 0
1, 9584, Note_on_c, 0, 72, 75
1, 9584, Note_on_c, 1, 57, 75
1, 9599, Note_on_c, 0, 72, 0
1, 9599, Note_on_c, 1, 57, 0
1, 9600, Note_on_c, 0, 69, 75
1, 9600, Note_on_c, 1, 54, 75
1, 9615, Note_on_c, 0, 74, 0
1, 9615, Note_on_c, 0, 69, 0
1, 9616, Note_on_c, 0, 81, 75
1, 9631, Note_on_c, 0, 81, 0
1, 9632, Note_on_c, 0, 78, 75
1, 9645, Note_on_c, 1, 54, 0
1, 9647, Note_on_c, 0, 78, 0
1, 9648, Note_on_c, 0, 79, 75
1, 9664, Note_on_c, 0, 74, 75
1, 9664, Note_on_c, 1, 59, 75
1, 9679, Note_on_c, 0, 74, 0
1, 9679, Note_on_c, 1, 59, 0
1, 9680, Note_on_c, 0, 71, 75
1, 9680, Note_on_c, 1, 55, 75
1, 9695, Note_on_c, 0, 71, 0
1, 9695, Note_on_c, 1, 55, 0
1, 9696, Note_on_c, 0, 76, 75
1, 9696, Note_on_c, 1, 60, 75
1, 9711, Note_on_c, 0, 76, 0
1, 9711, Note_on_c, 1, 60, 0
1, 9712, Note_on_c, 0, 72, 75
1, 9712, Note_on_c, 1, 57, 75
1, 9727, Note_on_c, 0, 72, 0
1, 9727, Note_on_c, 1, 57, 0
1, 9728, Note_on_c, 0, 77, 75
1, 9728, Note_on_c, 1, 62, 75
1, 9743, Note_on_c, 0, 77, 0
1, 9743, Note_on_c, 1, 62, 0
1, 9744, Note_on_c, 0, 74, 75
1, 9744, Note_on_c, 1, 59, 75
1, 9759, Note_on_c, 0, 79, 0
1, 9759, Note_on_c, 0, 74, 0
1, 9760, Note_on_c, 0, 86, 75
1, 9775, Note_on_c, 0, 86, 0
1, 9776, Note_on_c, 0, 77, 75
1, 9789, Note_on_c, 1, 59, 0
1, 9791, Note_on_c, 0, 77, 0
1, 9792, Note_on_c, 1, 72, 75
1, 9808, Note_on_c, 0, 75, 75
1, 9812, Note_on_c, 1, 72, 0
1, 9823, Note_on_c, 0, 75, 0
1, 9824, Note_on_c, 0, 76, 75
1, 9839, Note_on_c, 0, 76, 0
1, 9840, Note_on_c, 0, 84, 75
1, 9855, Note_on_c, 0, 84, 0
1, 9856, Note_on_c, 0, 79, 75
1, 9871, Note_on_c, 0, 79, 0
1, 9872, Note_on_c, 0, 76, 75
1, 9887, Note_on_c, 0, 76, 0
1, 9888, Note_on_c, 1, 68, 75
1, 9904, Note_on_c, 0, 83, 75
1, 9908, Note_on_c, 1, 68, 0
1, 9919, Note_on_c, 0, 83, 0
1, 9920, Note_on_c, 0, 74, 75
1, 9935, Note_on_c, 0, 74, 0
1, 9936, Note_on_c, 1, 69, 75
1, 9952, Note_on_c, 0, 71, 75
1, 9956, Note_on_c, 1, 69, 0
1, 9967, Note_on_c, 0, 71, 0
1, 9968, Note_on_c, 0, 72, 75
1, 9983, Note_on_c, 0, 72, 0
1, 9984, Note_on_c, 0, 81, 75
1, 9999, Note_on_c, 0, 81, 0
1, 10000, Note_on_c, 0, 76, 75
1, 10015, Note_on_c, 0, 76, 0
1, 10016, Note_on_c, 0, 72, 75
1, 10031, Note_on_c, 0, 72, 0
1, 10032, Note_on_c, 1, 64, 75
1, 10048, Note_on_c, 0, 79, 75
1, 10052, Note_on_c, 1, 64, 0
1, 10063, Note_on_c, 0, 79, 0
1, 10064, Note_on_c, 0, 71, 75
1, 10079, Note_on_c, 0, 71, 0
1, 10080, Note_on_c, 1, 66, 75
1, 10096, Note_on_c, 0, 68, 75
1, 10100, Note_on_c, 1, 66, 0
1, 10111, Note_on_c, 0, 68, 0
1, 10112, Note_on_c, 0, 69, 75
1, 10127, Note_on_c, 0, 69, 0
1, 10128, Note_on_c, 0, 78, 75
1, 10128, Note_on_c, 1, 63, 75
1, 10143, Note_on_c, 0, 78, 0
1, 10144, Note_on_c, 0, 75, 75
1, 10148, Note_on_c, 1, 63, 0
1, 10159, Note_on_c, 0, 75, 0
1, 10160, Note_on_c, 0, 69, 75
1, 10175, Note_on_c, 0, 69, 0
1, 10176, Note_on_c, 1, 64, 75
1, 10192, Note_on_c, 0, 67, 75
1, 10196, Note_on_c, 1, 64, 0
1, 10207, Note_on_c, 0, 67, 0
1, 10208, Note_on_c, 0, 76, 75
1, 10223, Note_on_c, 0, 76, 0
1, 10224, Note_on_c, 1, 60, 75
1, 10240, Note_on_c, 0, 67, 75
1, 10255, Note_on_c, 0, 67, 0
1, 10256, Note_on_c, 0, 70, 75
1, 10271, Note_on_c, 0, 70, 0
1, 10272, Note_on_c, 0, 76, 75
1, 10287, Note_on_c, 0, 76, 0
1, 10288, Note_on_c, 0, 70, 75
1, 10303, Note_on_c, 0, 70, 0
1, 10304, Note_on_c, 0, 79, 75
1, 10319, Note_on_c, 0, 79, 0
1, 10320, Note_on_c, 1, 60, 0
1, 10320, Note_on_c, 1, 58, 75
1, 10336, Note_on_c, 0, 76, 75
1, 10351, Note_on_c, 0, 76, 0
1, 10352, Note_on_c, 0, 67, 75
1, 10365, Note_on_c, 1, 58, 0
1, 10367, Note_on_c, 0, 67, 0
1, 10368, Note_on_c, 1, 59, 75
1, 10384, Note_on_c, 0, 66, 75
1, 10399, Note_on_c, 0, 66, 0
1, 10400, Note_on_c, 0, 75, 75
1, 10413, Note_on_c, 1, 59, 0
1, 10415, Note_on_c, 0, 75, 0
1, 10416, Note_on_c, 1, 47, 75
1, 10461, Note_on_c, 1, 47, 0
1, 10512, Note_on_c, 0, 71, 75
1, 10560, Note_on_c, 1, 67, 75
1, 10560, Note_on_c, 1, 64, 75
1, 10575, Note_on_c, 0, 71, 0
1, 10576, Note_on_c, 0, 79, 75
1, 10591, Note_on_c, 0, 79, 0
1, 10592, Note_on_c, 0, 78, 75
1, 10605, Note_on_c, 1, 67, 0
1, 10605, Note_on_c, 1, 64, 0
1, 10607, Note_on_c, 0, 78, 0
1, 10608, Note_on_c, 0, 76, 75
1, 10608, Note_on_c, 1, 69, 75
1, 10608, Note_on_c, 1, 66, 75
1, 10623, Note_on_c, 0, 76, 0
1, 10624, Note_on_c, 0, 75, 75
1, 10639, Note_on_c, 0, 75, 0
1, 10640, Note_on_c, 0, 78, 75
1, 10653, Note_on_c, 1, 69, 0
1, 10653, Note_on_c, 1, 66, 0
1, 10655, Note_on_c, 0, 78, 0
1, 10656, Note_on_c, 0, 78, 75
1, 10656, Note_on_c, 1, 71, 75
1, 10656, Note_on_c, 1, 67, 75
1, 10671, Note_on_c, 0, 78, 0
1, 10672, Note_on_c, 0, 76, 75
1, 10676, Note_on_c, 1, 71, 0
1, 10676, Note_on_c, 1, 67, 0
1, 10687, Note_on_c, 0, 76, 0
1, 10688, Note_on_c, 0, 71, 75
1, 10703, Note_on_c, 0, 71, 0
1, 10704, Note_on_c, 0, 83, 91
1, 10752, Note_on_c, 1, 67, 75
1, 10767, Note_on_c, 0, 83, 0
1, 10768, Note_on_c, 0, 79, 75
1, 10783, Note_on_c, 0, 79, 0
1, 10784, Note_on_c, 0, 76, 75
1, 10797, Note_on_c, 1, 67, 0
1, 10799, Note_on_c, 0, 76, 0
1, 10800, Note_on_c, 0, 74, 75
1, 10800, Note_on_c, 1, 69, 75
1, 10815, Note_on_c, 0, 74, 0
1, 10816, Note_on_c, 0, 72, 75
1, 10831, Note_on_c, 0, 72, 0
1, 10832, Note_on_c, 0, 76, 75
1, 10845, Note_on_c, 1, 69, 0
1, 10847, Note_on_c, 0, 76, 0
1, 10848, Note_on_c, 0, 72, 76
1, 10848, Note_on_c, 1, 67, 76
1, 10863, Note_on_c, 0, 72, 0
1, 10864, Note_on_c, 0, 71, 76
1, 10879, Note_on_c, 0, 71, 0
1, 10880, Note_on_c, 0, 76, 77
1, 10893, Note_on_c, 1, 67, 0
1, 10895, Note_on_c, 0, 76, 0
1, 10896, Note_on_c, 0, 71, 77
1, 10896, Note_on_c, 1, 66, 78
1, 10911, Note_on_c, 0, 71, 0
1, 10911, Note_on_c, 1, 66, 0
1, 10912, Note_on_c, 0, 69, 77
1, 10927, Note_on_c, 0, 69, 0
1, 10928, Note_on_c, 0, 78, 78
1, 10928, Note_on_c, 0, 81, 79
1, 10928, Note_on_c, 1, 63, 79
1, 10943, Note_on_c, 0, 78, 0
1, 10943, Note_on_c, 0, 81, 0
1, 10943, Note_on_c, 1, 63, 0
1, 10944, Note_on_c, 0, 78, 80
1, 10944, Note_on_c, 0, 81, 80
1, 10944, Note_on_c, 1, 64, 80
1, 10978, Note_on_c, 0, 78, 0
1, 10978, Note_on_c, 0, 81, 0
1, 10978, Note_on_c, 1, 64, 0
1, 10980, Note_on_c, 0, 76, 78
1, 10980, Note_on_c, 0, 79, 78
1, 10980, Note_on_c, 1, 58, 78
1, 10992, Note_on_c, 0, 76, 0
1, 10992, Note_on_c, 0, 75, 77
1, 10992, Note_on_c, 0, 79, 0
1, 10992, Note_on_c, 0, 78, 77
1, 10992, Note_on_c, 1, 58, 0
1, 10992, Note_on_c, 1, 59, 77
1, 11012, Note_on_c, 0, 78, 0
1, 11037, Note_on_c, 0, 75, 0
1, 11037, Note_on_c, 1, 59, 0
1, 11088, Note_on_c, 0, 71, 75
1, 11104, Note_on_c, 0, 66, 75
1, 11104, Note_on_c, 1, 51, 75
1, 11119, Note_on_c, 0, 66, 0
1, 11119, Note_on_c, 1, 51, 0
1, 11120, Note_on_c, 0, 63, 75
1, 11120, Note_on_c, 1, 47, 75
1, 11135, Note_on_c, 0, 63, 0
1, 11135, Note_on_c, 1, 47, 0
1, 11136, Note_on_c, 0, 67, 76
1, 11136, Note_on_c, 1, 52, 76
1, 11151, Note_on_c, 0, 67, 0
1, 11151, Note_on_c, 1, 52, 0
1, 11152, Note_on_c, 0, 64, 76
1, 11152, Note_on_c, 1, 49, 76
1, 11167, Note_on_c, 0, 64, 0
1, 11167, Note_on_c, 1, 49, 0
1, 11168, Note_on_c, 0, 69, 77
1, 11168, Note_on_c, 1, 54, 77
1, 11183, Note_on_c, 0, 69, 0
1, 11183, Note_on_c, 1, 54, 0
1, 11184, Note_on_c, 0, 66, 77
1, 11184, Note_on_c, 1, 51, 77
1, 11199, Note_on_c, 0, 71, 0
1, 11199, Note_on_c, 0, 66, 0
1, 11199, Note_on_c, 1, 51, 0
1, 11200, Note_on_c, 0, 78, 78
1, 11215, Note_on_c, 0, 78, 0
1, 11216, Note_on_c, 0, 75, 79
1, 11216, Note_on_c, 1, 71, 78
1, 11216, Note_on_c, 1, 69, 78
1, 11231, Note_on_c, 0, 75, 0
1, 11232, Note_on_c, 0, 76, 79
1, 11232, Note_on_c, 1, 69, 0
1, 11232, Note_on_c, 1, 67, 78
1, 11247, Note_on_c, 0, 76, 0
1, 11248, Note_on_c, 0, 71, 80
1, 11263, Note_on_c, 0, 71, 0
1, 11264, Note_on_c, 0, 79, 79
1, 11277, Note_on_c, 1, 71, 0
1, 11277, Note_on_c, 1, 67, 0
1, 11279, Note_on_c, 0, 79, 0
1, 11280, Note_on_c, 0, 76, 79
1, 11295, Note_on_c, 0, 76, 0
1, 11296, Note_on_c, 0, 83, 78
1, 11311, Note_on_c, 0, 83, 0
1, 11312, Note_on_c, 0, 79, 78
1, 11327, Note_on_c, 0, 79, 0
1, 11328, Note_on_c, 0, 76, 77
1, 11343, Note_on_c, 0, 76, 0
1, 11344, Note_on_c, 0, 71, 77
1, 11359, Note_on_c, 0, 71, 0
1, 11360, Note_on_c, 0, 67, 77
1, 11375, Note_on_c, 0, 67, 0
1, 11376, Note_on_c, 0, 71, 75
1, 11392, Note_on_c, 0, 66, 75
1, 11392, Note_on_c, 1, 51, 75
1, 11407, Note_on_c, 0, 66, 0
1, 11407, Note_on_c, 1, 51, 0
1, 11408, Note_on_c, 0, 63, 75
1, 11408, Note_on_c, 1, 47, 75
1, 11423, Note_on_c, 0, 63, 0
1, 11423, Note_on_c, 1, 47, 0
1, 11424, Note_on_c, 0, 67, 76
1, 11424, Note_on_c, 1, 52, 76
1, 11439, Note_on_c, 0, 67, 0
1, 11439, Note_on_c, 1, 52, 0
1, 11440, Note_on_c, 0, 64, 76
1, 11440, Note_on_c, 1, 49, 76
1, 11455, Note_on_c, 0, 64, 0
1, 11455, Note_on_c, 1, 49, 0
1, 11456, Note_on_c, 0, 69, 77
1, 11456, Note_on_c, 1, 54, 77
1, 11471, Note_on_c, 0, 69, 0
1, 11471, Note_on_c, 1, 54, 0
1, 11472, Note_on_c, 0, 66, 77
1, 11472, Note_on_c, 1, 51, 77
1, 11487, Note_on_c, 0, 71, 0
1, 11487, Note_on_c, 0, 66, 0
1, 11487, Note_on_c, 1, 51, 0
1, 11488, Note_on_c, 0, 78, 78
1, 11503, Note_on_c, 0, 78, 0
1, 11504, Note_on_c, 0, 75, 79
1, 11504, Note_on_c, 1, 71, 78
1, 11504, Note_on_c, 1, 69, 78
1, 11519, Note_on_c, 0, 75, 0
1, 11520, Note_on_c, 0, 76, 79
1, 11520, Note_on_c, 1, 69, 0
1, 11520, Note_on_c, 1, 67, 78
1, 11535, Note_on_c, 0, 76, 0
1, 11536, Note_on_c, 0, 71, 80
1, 11551, Note_on_c, 0, 71, 0
1, 11552, Note_on_c, 0, 79, 79
1, 11565, Note_on_c, 1, 71, 0
1, 11565, Note_on_c, 1, 67, 0
1, 11567, Note_on_c, 0, 79, 0
1, 11568, Note_on_c, 0, 76, 79
1, 11583, Note_on_c, 0, 76, 0
1, 11584, Note_on_c, 0, 83, 78
1, 11599, Note_on_c, 0, 83, 0
1, 11600, Note_on_c, 0, 79, 78
1, 11615, Note_on_c, 0, 79, 0
1, 11616, Note_on_c, 0, 76, 77
1, 11631, Note_on_c, 0, 76, 0
1, 11632, Note_on_c, 0, 71, 77
1, 11647, Note_on_c, 0, 71, 0
1, 11648, Note_on_c, 0, 67, 77
1, 11663, Note_on_c, 0, 67, 0
1, 11664, Note_on_c, 0, 71, 75
1, 11680, Note_on_c, 0, 66, 75
1, 11680, Note_on_c, 1, 51, 75
1, 11695, Note_on_c, 0, 66, 0
1, 11695, Note_on_c, 1, 51, 0
1, 11696, Note_on_c, 0, 63, 75
1, 11696, Note_on_c, 1, 47, 75
1, 11711, Note_on_c, 0, 63, 0
1, 11711, Note_on_c, 1, 47, 0
1, 11712, Note_on_c, 0, 67, 75
1, 11712, Note_on_c, 1, 52, 75
1, 11727, Note_on_c, 0, 67, 0
1, 11727, Note_on_c, 1, 52, 0
1, 11728, Note_on_c, 0, 64, 76
1, 11728, Note_on_c, 1, 49, 76
1, 11743, Note_on_c, 0, 64, 0
1, 11743, Note_on_c, 1, 49, 0
1, 11744, Note_on_c, 0, 69, 76
1, 11744, Note_on_c, 1, 54, 76
1, 11759, Note_on_c, 0, 69, 0
1, 11759, Note_on_c, 1, 54, 0
1, 11760, Note_on_c, 0, 66, 77
1, 11760, Note_on_c, 1, 51, 77
1, 11775, Note_on_c, 0, 71, 0
1, 11775, Note_on_c, 0, 66, 0
1, 11775, Note_on_c, 1, 51, 0
1, 11776, Note_on_c, 0, 71, 76
1, 11776, Note_on_c, 1, 55, 77
1, 11791, Note_on_c, 0, 71, 0
1, 11791, Note_on_c, 1, 55, 0
1, 11792, Note_on_c, 0, 67, 77
1, 11792, Note_on_c, 1, 52, 78
1, 11807, Note_on_c, 0, 67, 0
1, 11807, Note_on_c, 1, 52, 0
1, 11808, Note_on_c, 1, 57, 80
1, 11824, Note_on_c, 0, 84, 80
1, 11828, Note_on_c, 1, 57, 0
1, 11839, Note_on_c, 0, 84, 0
1, 11840, Note_on_c, 0, 78, 80
1, 11855, Note_on_c, 0, 78, 0
1, 11856, Note_on_c, 0, 75, 80
1, 11872, Note_on_c, 1, 69, 80
1, 11876, Note_on_c, 0, 75, 0
1, 11888, Note_on_c, 1, 69, 0
1, 11888, Note_on_c, 1, 57, 80
1, 11903, Note_on_c, 1, 57, 0
1, 11904, Note_on_c, 0, 76, 80
1, 11920, Note_on_c, 1, 67, 80
1, 11924, Note_on_c, 0, 76, 0
1, 11936, Note_on_c, 1, 67, 0
1, 11936, Note_on_c, 1, 55, 80
1, 11951, Note_on_c, 1, 55, 0
1, 11952, Note_on_c, 1, 54, 80
1, 11968, Note_on_c, 0, 68, 80
1, 11984, Note_on_c, 0, 68, 0
1, 11984, Note_on_c, 0, 69, 80
1, 11997, Note_on_c, 1, 54, 0
1, 11999, Note_on_c, 0, 69, 0
1, 12000, Note_on_c, 0, 81, 80
1, 12000, Note_on_c, 0, 75, 80
1, 12016, Note_on_c, 1, 66, 80
1, 12032, Note_on_c, 1, 66, 0
1, 12032, Note_on_c, 1, 54, 80
1, 12047, Note_on_c, 1, 54, 0
1, 12048, Note_on_c, 0, 81, 0
1, 12048, Note_on_c, 0, 75, 0
1, 12048, Note_on_c, 0, 79, 80
1, 12048, Note_on_c, 0, 76, 80
1, 12064, Note_on_c, 1, 64, 80
1, 12080, Note_on_c, 1, 64, 0
1, 12080, Note_on_c, 1, 52, 80
1, 12093, Note_on_c, 0, 79, 0
1, 12093, Note_on_c, 0, 76, 0
1, 12095, Note_on_c, 1, 52, 0
1, 12096, Note_on_c, 1, 60, 80
1, 12096, Note_on_c, 1, 57, 80
1, 12112, Note_on_c, 0, 64, 79
1, 12127, Note_on_c, 0, 64, 0
1, 12128, Note_on_c, 0, 65, 79
1, 12143, Note_on_c, 0, 65, 0
1, 12144, Note_on_c, 0, 72, 78
1, 12159, Note_on_c, 0, 72, 0
1, 12160, Note_on_c, 0, 64, 78
1, 12175, Note_on_c, 0, 64, 0
1, 12176, Note_on_c, 0, 65, 77
1, 12191, Note_on_c, 0, 65, 0
1, 12192, Note_on_c, 1, 60, 0
1, 12192, Note_on_c, 1, 57, 0
1, 12192, Note_on_c, 1, 59, 76
1, 12192, Note_on_c, 1, 55, 76
1, 12208, Note_on_c, 0, 63, 76
1, 12223, Note_on_c, 0, 63, 0
1, 12224, Note_on_c, 0, 64, 76
1, 12237, Note_on_c, 1, 59, 0
1, 12237, Note_on_c, 1, 55, 0
1, 12239, Note_on_c, 0, 64, 0
1, 12240, Note_on_c, 1, 57, 75
1, 12240, Note_on_c, 1, 54, 75
1, 12256, Note_on_c, 0, 63, 75
1, 12271, Note_on_c, 0, 63, 0
1, 12272, Note_on_c, 0, 66, 74
1, 12287, Note_on_c, 0, 66, 0
1, 12288, Note_on_c, 0, 69, 74
1, 12303, Note_on_c, 0, 69, 0
1, 12304, Note_on_c, 0, 59, 73
1, 12319, Note_on_c, 0, 59, 0
1, 12320, Note_on_c, 0, 60, 73
1, 12335, Note_on_c, 0, 60, 0
1, 12336, Note_on_c, 1, 57, 0
1, 12336, Note_on_c, 1, 51, 71
1, 12352, Note_on_c, 0, 59, 70
1, 12367, Note_on_c, 0, 59, 0
1, 12368, Note_on_c, 0, 69, 70
1, 12381, Note_on_c, 1, 54, 0
1, 12381, Note_on_c, 1, 51, 0
1, 12383, Note_on_c, 0, 69, 0
1, 12384, Note_on_c, 0, 67, 75
1, 12384, Note_on_c, 0, 64, 80
1, 12400, Note_on_c, 1, 52, 74
1, 12415, Note_on_c, 1, 52, 0
1, 12416, Note_on_c, 1, 55, 73
1, 12429, Note_on_c, 0, 67, 0
1, 12429, Note_on_c, 0, 64, 0
1, 12431, Note_on_c, 1, 55, 0
1, 12432, Note_on_c, 0, 66, 71
1, 12432, Note_on_c, 0, 64, 80
1, 12432, Note_on_c, 1, 57, 72
1, 12447, Note_on_c, 1, 57, 0
1, 12448, Note_on_c, 1, 54, 71
1, 12463, Note_on_c, 1, 54, 0
1, 12464, Note_on_c, 1, 58, 70
1, 12477, Note_on_c, 0, 64, 0
1, 12479, Note_on_c, 1, 58, 0
1, 12480, Note_on_c, 0, 63, 80
1, 12480, Note_on_c, 1, 59, 69
1, 12495, Note_on_c, 0, 66, 0
1, 12495, Note_on_c, 1, 59, 0
1, 12496, Note_on_c, 0, 67, 66
1, 12496, Note_on_c, 1, 47, 68
1, 12511, Note_on_c, 0, 67, 0
1, 12511, Note_on_c, 1, 47, 0
1, 12512, Note_on_c, 0, 69, 65
1, 12512, Note_on_c, 1, 59, 67
1, 12525, Note_on_c, 0, 63, 0
1, 12527, Note_on_c, 0, 69, 0
1, 12527, Note_on_c, 1, 59, 0
1, 12528, Note_on_c, 0, 69, 64
1, 12528, Note_on_c, 0, 64, 64
1, 12528, Note_on_c, 1, 60, 64
1, 12624, Note_on_c, 0, 69, 0
1, 12624, Note_on_c, 0, 67, 64
1, 12644, Note_on_c, 0, 67, 0
1, 12661, Note_on_c, 0, 64, 0
1, 12661, Note_on_c, 1, 60, 0
1, 12672, Note_on_c, 0, 79, 64
1, 12672, Note_on_c, 0, 76, 64
1, 12688, Note_on_c, 1, 64, 64
1, 12703, Note_on_c, 1, 64, 0
1, 12704, Note_on_c, 1, 67, 64
1, 12717, Note_on_c, 0, 79, 0
1, 12717, Note_on_c, 0, 76, 0
1, 12719, Note_on_c, 1, 67, 0
1, 12720, Note_on_c, 0, 78, 65
1, 12720, Note_on_c, 0, 76, 65
1, 12720, Note_on_c, 1, 69, 65
1, 12735, Note_on_c, 1, 69, 0
1, 12736, Note_on_c, 1, 66, 65
1, 12751, Note_on_c, 1, 66, 0
1, 12752, Note_on_c, 1, 70, 66
1, 12765, Note_on_c, 0, 78, 0
1, 12765, Note_on_c, 0, 76, 0
1, 12767, Note_on_c, 1, 70, 0
1, 12768, Note_on_c, 0, 78, 67
1, 12768, Note_on_c, 0, 74, 67
1, 12768, Note_on_c, 1, 71, 66
1, 12783, Note_on_c, 1, 71, 0
1, 12784, Note_on_c, 1, 59, 67
1, 12799, Note_on_c, 1, 59, 0
1, 12800, Note_on_c, 1, 71, 67
1, 12813, Note_on_c, 0, 78, 0
1, 12813, Note_on_c, 0, 74, 0
1, 12815, Note_on_c, 1, 71, 0
1, 12816, Note_on_c, 0, 83, 69
1, 12816, Note_on_c, 0, 76, 69
1, 12816, Note_on_c, 0, 74, 69
1, 12816, Note_on_c, 1, 68, 68
1, 12831, Note_on_c, 1, 68, 0
1, 12832, Note_on_c, 1, 64, 68
1, 12847, Note_on_c, 1, 64, 0
1, 12848, Note_on_c, 1, 68, 68
1, 12861, Note_on_c, 0, 83, 0
1, 12861, Note_on_c, 0, 76, 0
1, 12861, Note_on_c, 0, 74, 0
1, 12863, Note_on_c, 1, 68, 0
1, 12864, Note_on_c, 0, 76, 71
1, 12864, Note_on_c, 0, 72, 71
1, 12864, Note_on_c, 1, 69, 69
1, 12879, Note_on_c, 1, 69, 0
1, 12880, Note_on_c, 1, 57, 69
1, 12895, Note_on_c, 1, 57, 0
1, 12896, Note_on_c, 1, 69, 70
1, 12909, Note_on_c, 0, 76, 0
1, 12909, Note_on_c, 0, 72, 0
1, 12911, Note_on_c, 1, 69, 0
1, 12912, Note_on_c, 0, 81, 72
1, 12912, Note_on_c, 0, 74, 72
1, 12912, Note_on_c, 0, 72, 72
1, 12912, Note_on_c, 1, 66, 70
1, 12927, Note_on_c, 1, 66, 0
1, 12928, Note_on_c, 1, 62, 71
1, 12943, Note_on_c, 1, 62, 0
1, 12944, Note_on_c, 1, 66, 71
1, 12957, Note_on_c, 0, 81, 0
1, 12957, Note_on_c, 0, 74, 0
1, 12957, Note_on_c, 0, 72, 0
1, 12959, Note_on_c, 1, 66, 0
1, 12960, Note_on_c, 0, 74, 74
1, 12960, Note_on_c, 0, 71, 74
1, 12960, Note_on_c, 1, 67, 72
1, 12975, Note_on_c, 1, 67, 0
1, 12976, Note_on_c, 1, 55, 72
1, 12991, Note_on_c, 1, 55, 0
1, 12992, Note_on_c, 1, 67, 72
1, 13005, Note_on_c, 0, 74, 0
1, 13005, Note_on_c, 0, 71, 0
1, 13007, Note_on_c, 1, 67, 0
1, 13008, Note_on_c, 0, 79, 76
1, 13008, Note_on_c, 0, 72, 76
1, 13008, Note_on_c, 0, 71, 76
1, 13008, Note_on_c, 1, 64, 73
1, 13023, Note_on_c, 1, 64, 0
1, 13024, Note_on_c, 1, 60, 73
1, 13039, Note_on_c, 1, 60, 0
1, 13040, Note_on_c, 1, 64, 74
1, 13053, Note_on_c, 0, 79, 0
1, 13053, Note_on_c, 0, 72, 0
1, 13053, Note_on_c, 0, 71, 0
1, 13055, Note_on_c, 1, 64, 0
1, 13056, Note_on_c, 0, 72, 78
1, 13056, Note_on_c, 0, 69, 78
1, 13056, Note_on_c, 1, 66, 74
1, 13071, Note_on_c, 1, 66, 0
1, 13072, Note_on_c, 1, 54, 75
1, 13087, Note_on_c, 1, 54, 0
1, 13088, Note_on_c, 1, 66, 75
1, 13101, Note_on_c, 0, 72, 0
1, 13101, Note_on_c, 0, 69, 0
1, 13103, Note_on_c, 1, 66, 0
1, 13104, Note_on_c, 0, 78, 80
1, 13104, Note_on_c, 0, 71, 80
1, 13104, Note_on_c, 0, 69, 80
1, 13104, Note_on_c, 1, 63, 80
1, 13119, Note_on_c, 1, 63, 0
1, 13120, Note_on_c, 1, 59, 80
1, 13135, Note_on_c, 1, 59, 0
1, 13136, Note_on_c, 1, 63, 80
1, 13149, Note_on_c, 0, 78, 0
1, 13149, Note_on_c, 0, 71, 0
1, 13149, Note_on_c, 0, 69, 0
1, 13151, Note_on_c, 1, 63, 0
1, 13152, Note_on_c, 0, 71, 80
1, 13152, Note_on_c, 0, 67, 80
1, 13152, Note_on_c, 1, 64, 80
1, 13167, Note_on_c, 0, 71, 0
1, 13167, Note_on_c, 0, 67, 0
1, 13167, Note_on_c, 1, 64, 0
1, 13168, Note_on_c, 1, 52, 80
1, 13183, Note_on_c, 1, 52, 0
1, 13184, Note_on_c, 0, 69, 80
1, 13184, Note_on_c, 0, 64, 80
1, 13184, Note_on_c, 1, 60, 80
1, 13191, Note_on_c, 0, 69, 0
1, 13191, Note_on_c, 1, 60, 0
1, 13199, Note_on_c, 0, 64, 0
1, 13200, Note_on_c, 0, 69, 80
1, 13200, Note_on_c, 0, 64, 80
1, 13200, Note_on_c, 1, 60, 80
1, 13215, Note_on_c, 0, 64, 0
1, 13216, Note_on_c, 0, 69, 0
1, 13216, Note_on_c, 0, 67, 81
1, 13216, Note_on_c, 1, 60, 0
1, 13216, Note_on_c, 1, 59, 81
1, 13231, Note_on_c, 0, 67, 0
1, 13231, Note_on_c, 1, 59, 0
1, 13232, Note_on_c, 0, 72, 81
1, 13232, Note_on_c, 0, 64, 81
1, 13232, Note_on_c, 1, 57, 81
1, 13239, Note_on_c, 0, 72, 0
1, 13239, Note_on_c, 1, 57, 0
1, 13247, Note_on_c, 0, 64, 0
1, 13248, Note_on_c, 0, 72, 81
1, 13248, Note_on_c, 0, 64, 81
1, 13248, Note_on_c, 1, 57, 81
1, 13263, Note_on_c, 0, 64, 0
1, 13264, Note_on_c, 0, 72, 0
1, 13264, Note_on_c, 0, 71, 82
1, 13264, Note_on_c, 1, 57, 0
1, 13264, Note_on_c, 1, 55, 82
1, 13279, Note_on_c, 0, 71, 0
1, 13279, Note_on_c, 1, 55, 0
1, 13280, Note_on_c, 0, 69, 82
1, 13280, Note_on_c, 0, 64, 82
1, 13280, Note_on_c, 1, 60, 82
1, 13287, Note_on_c, 0, 69, 0
1, 13287, Note_on_c, 1, 60, 0
1, 13295, Note_on_c, 0, 64, 0
1, 13296, Note_on_c, 0, 69, 82
1, 13296, Note_on_c, 0, 64, 82
1, 13296, Note_on_c, 1, 60, 82
1, 13311, Note_on_c, 0, 64, 0
1, 13312, Note_on_c, 0, 69, 0
1, 13312, Note_on_c, 0, 67, 83
1, 13312, Note_on_c, 1, 60, 0
1, 13312, Note_on_c, 1, 59, 83
1, 13327, Note_on_c, 0, 67, 0
1, 13327, Note_on_c, 1, 59, 0
1, 13328, Note_on_c, 0, 72, 83
1, 13328, Note_on_c, 0, 64, 83
1, 13328, Note_on_c, 1, 57, 83
1, 13335, Note_on_c, 0, 72, 0
1, 13335, Note_on_c, 1, 57, 0
1, 13343, Note_on_c, 0, 64, 0
1, 13344, Note_on_c, 0, 72, 83
1, 13344, Note_on_c, 0, 64, 83
1, 13344, Note_on_c, 1, 57, 83
1, 13359, Note_on_c, 0, 64, 0
1, 13360, Note_on_c, 0, 72, 0
1, 13360, Note_on_c, 0, 71, 83
1, 13360, Note_on_c, 1, 57, 0
1, 13360, Note_on_c, 1, 55, 83
1, 13375, Note_on_c, 0, 71, 0
1, 13375, Note_on_c, 1, 55, 0
1, 13376, Note_on_c, 0, 75, 84
1, 13376, Note_on_c, 0, 69, 84
1, 13376, Note_on_c, 1, 54, 84
1, 13383, Note_on_c, 0, 75, 0
1, 13383, Note_on_c, 1, 54, 0
1, 13391, Note_on_c, 0, 69, 0
1, 13392, Note_on_c, 0, 75, 80
1, 13392, Note_on_c, 0, 69, 80
1, 13392, Note_on_c, 1, 54, 75
1, 13488, Note_on_c, 0, 75, 0
1, 13488, Note_on_c, 0, 76, 73
1, 13488, Note_on_c, 0, 69, 0
1, 13488, Note_on_c, 0, 71, 73
1, 13488, Note_on_c, 1, 54, 0
1, 13488, Note_on_c, 1, 55, 71
1, 13508, Note_on_c, 0, 76, 0
1, 13508, Note_on_c, 1, 55, 0
1, 13535, Note_on_c, 0, 71, 0
1, 13536, Note_on_c, 1, 45, 70
1, 13552, Note_on_c, 0, 72, 75
1, 13567, Note_on_c, 0, 72, 0
1, 13568, Note_on_c, 0, 69, 73
1, 13581, Note_on_c, 1, 45, 0
1, 13583, Note_on_c, 0, 69, 0
1, 13584, Note_on_c, 0, 66, 72
1, 13599, Note_on_c, 0, 66, 0
1, 13600, Note_on_c, 0, 60, 71
1, 13615, Note_on_c, 0, 60, 0
1, 13616, Note_on_c, 0, 57, 70
1, 13631, Note_on_c, 0, 57, 0
1, 13632, Note_on_c, 0, 54, 69
1, 13632, Note_on_c, 1, 47, 64
1, 13666, Note_on_c, 0, 54, 0
1, 13668, Note_on_c, 0, 63, 64
1, 13668, Note_on_c, 0, 57, 64
1, 13677, Note_on_c, 1, 47, 0
1, 13680, Note_on_c, 0, 63, 0
1, 13680, Note_on_c, 0, 57, 0
1, 13680, Note_on_c, 0, 63, 64
1, 13680, Note_on_c, 0, 57, 64
1, 13680, Note_on_c, 1, 40, 64
1, 13776, Note_on_c, 0, 63, 0
1, 13776, Note_on_c, 0, 57, 0
1, 13776, Note_on_c, 0, 64, 58
1, 13776, Note_on_c, 0, 55, 58
1, 13796, Note_on_c, 0, 64, 0
1, 13796, Note_on_c, 0, 55, 0
1, 13813, Note_on_c, 1, 40, 0
1, 13824, Note_on_c, 0, 74, 75
1, 13872, Note_on_c, 1, 71, 75
1, 13872, Note_on_c, 1, 67, 75
1, 13887, Note_on_c, 0, 74, 0
1, 13888, Note_on_c, 0, 83, 75
1, 13903, Note_on_c, 0, 83, 0
1, 13904, Note_on_c, 0, 81, 75
1, 13917, Note_on_c, 1, 71, 0
1, 13917, Note_on_c, 1, 67, 0
1, 13919, Note_on_c, 0, 81, 0
1, 13920, Note_on_c, 0, 79, 75
1, 13920, Note_on_c, 1, 72, 75
1, 13920, Note_on_c, 1, 69, 75
1, 13935, Note_on_c, 0, 79, 0
1, 13936, Note_on_c, 0, 78, 75
1, 13951, Note_on_c, 0, 78, 0
1, 13952, Note_on_c, 0, 81, 75
1, 13965, Note_on_c, 1, 72, 0
1, 13965, Note_on_c, 1, 69, 0
1, 13967, Note_on_c, 0, 81, 0
1, 13968, Note_on_c, 0, 81, 75
1, 13968, Note_on_c, 1, 74, 75
1, 13968, Note_on_c, 1, 71, 75
1, 13983, Note_on_c, 0, 81, 0
1, 13984, Note_on_c, 0, 79, 75
1, 13988, Note_on_c, 1, 74, 0
1, 13988, Note_on_c, 1, 71, 0
1, 13999, Note_on_c, 0, 79, 0
1, 14000, Note_on_c, 0, 74, 75
1, 14015, Note_on_c, 0, 74, 0
1, 14016, Note_on_c, 0, 86, 91
1, 14064, Note_on_c, 1, 71, 75
1, 14079, Note_on_c, 0, 86, 0
1, 14080, Note_on_c, 0, 83, 75
1, 14095, Note_on_c, 0, 83, 0
1, 14096, Note_on_c, 0, 79, 75
1, 14109, Note_on_c, 1, 71, 0
1, 14111, Note_on_c, 0, 79, 0
1, 14112, Note_on_c, 0, 78, 75
1, 14112, Note_on_c, 1, 72, 75
1, 14127, Note_on_c, 0, 78, 0
1, 14128, Note_on_c, 0, 76, 75
1, 14143, Note_on_c, 0, 76, 0
1, 14144, Note_on_c, 0, 79, 75
1, 14157, Note_on_c, 1, 72, 0
1, 14159, Note_on_c, 0, 79, 0
1, 14160, Note_on_c, 0, 76, 76
1, 14160, Note_on_c, 1, 71, 76
1, 14175, Note_on_c, 0, 76, 0
1, 14176, Note_on_c, 0, 74, 76
1, 14191, Note_on_c, 0, 74, 0
1, 14192, Note_on_c, 0, 79, 77
1, 14205, Note_on_c, 1, 71, 0
1, 14207, Note_on_c, 0, 79, 0
1, 14208, Note_on_c, 0, 74, 77
1, 14208, Note_on_c, 1, 69, 78
1, 14223, Note_on_c, 0, 74, 0
1, 14223, Note_on_c, 1, 69, 0
1, 14224, Note_on_c, 0, 72, 77
1, 14239, Note_on_c, 0, 72, 0
1, 14240, Note_on_c, 0, 81, 78
1, 14240, Note_on_c, 0, 84, 75
1, 14240, Note_on_c, 1, 66, 79
1, 14255, Note_on_c, 0, 81, 0
1, 14255, Note_on_c, 0, 84, 0
1, 14255, Note_on_c, 1, 66, 0
1, 14256, Note_on_c, 0, 81, 80
1, 14256, Note_on_c, 0, 84, 80
1, 14256, Note_on_c, 1, 67, 80
1, 14290, Note_on_c, 0, 81, 0
1, 14290, Note_on_c, 0, 84, 0
1, 14290, Note_on_c, 1, 67, 0
1, 14292, Note_on_c, 0, 79, 78
1, 14292, Note_on_c, 0, 83, 78
1, 14292, Note_on_c, 1, 61, 76
1, 14304, Note_on_c, 0, 79, 0
1, 14304, Note_on_c, 0, 78, 77
1, 14304, Note_on_c, 0, 83, 0
1, 14304, Note_on_c, 0, 81, 77
1, 14304, Note_on_c, 1, 61, 0
1, 14304, Note_on_c, 1, 62, 75
1, 14324, Note_on_c, 0, 81, 0
1, 14349, Note_on_c, 0, 78, 0
1, 14349, Note_on_c, 1, 62, 0
1, 14400, Note_on_c, 0, 62, 75
1, 14448, Note_on_c, 1, 59, 75
1, 14448, Note_on_c, 1, 55, 75
1, 14463, Note_on_c, 0, 62, 0
1, 14464, Note_on_c, 0, 71, 75
1, 14479, Note_on_c, 0, 71, 0
1, 14480, Note_on_c, 0, 69, 75
1, 14493, Note_on_c, 1, 59, 0
1, 14493, Note_on_c, 1, 55, 0
1, 14495, Note_on_c, 0, 69, 0
1, 14496, Note_on_c, 0, 67, 75
1, 14496, Note_on_c, 1, 60, 75
1, 14496, Note_on_c, 1, 57, 75
1, 14511, Note_on_c, 0, 67, 0
1, 14512, Note_on_c, 0, 66, 75
1, 14527, Note_on_c, 0, 66, 0
1, 14528, Note_on_c, 0, 69, 75
1, 14541, Note_on_c, 1, 60, 0
1, 14541, Note_on_c, 1, 57, 0
1, 14543, Note_on_c, 0, 69, 0
1, 14544, Note_on_c, 0, 69, 75
1, 14544, Note_on_c, 1, 62, 75
1, 14544, Note_on_c, 1, 59, 75
1, 14559, Note_on_c, 0, 69, 0
1, 14560, Note_on_c, 0, 67, 75
1, 14564, Note_on_c, 1, 62, 0
1, 14564, Note_on_c, 1, 59, 0
1, 14575, Note_on_c, 0, 67, 0
1, 14576, Note_on_c, 0, 62, 75
1, 14591, Note_on_c, 0, 62, 0
1, 14592, Note_on_c, 0, 74, 91
1, 14640, Note_on_c, 1, 53, 75
1, 14655, Note_on_c, 0, 74, 0
1, 14656, Note_on_c, 0, 71, 75
1, 14671, Note_on_c, 0, 71, 0
1, 14672, Note_on_c, 0, 67, 75
1, 14687, Note_on_c, 0, 67, 0
1, 14688, Note_on_c, 0, 69, 75
1, 14688, Note_on_c, 1, 53, 0
1, 14688, Note_on_c, 1, 52, 75
1, 14703, Note_on_c, 0, 69, 0
1, 14704, Note_on_c, 0, 68, 75
1, 14719, Note_on_c, 0, 68, 0
1, 14720, Note_on_c, 0, 62, 75
1, 14733, Note_on_c, 1, 52, 0
1, 14735, Note_on_c, 0, 62, 0
1, 14736, Note_on_c, 0, 77, 91
1, 14784, Note_on_c, 1, 56, 75
1, 14799, Note_on_c, 0, 77, 0
1, 14800, Note_on_c, 0, 74, 75
1, 14815, Note_on_c, 0, 74, 0
1, 14816, Note_on_c, 0, 71, 75
1, 14829, Note_on_c, 1, 56, 0
1, 14831, Note_on_c, 0, 71, 0
1, 14832, Note_on_c, 0, 74, 75
1, 14832, Note_on_c, 1, 57, 75
1, 14847, Note_on_c, 0, 74, 0
1, 14847, Note_on_c, 1, 57, 0
1, 14848, Note_on_c, 0, 72, 75
1, 14863, Note_on_c, 0, 72, 0
1, 14864, Note_on_c, 0, 69, 75
1, 14864, Note_on_c, 1, 60, 75
1, 14864, Note_on_c, 1, 51, 75
1, 14879, Note_on_c, 0, 69, 0
1, 14879, Note_on_c, 1, 60, 0
1, 14879, Note_on_c, 1, 51, 0
1, 14880, Note_on_c, 0, 68, 75
1, 14880, Note_on_c, 1, 59, 75
1, 14880, Note_on_c, 1, 52, 75
1, 14900, Note_on_c, 0, 68, 0
1, 14900, Note_on_c, 1, 59, 0
1, 14900, Note_on_c, 1, 52, 0
1, 14976, Note_on_c, 0, 76, 75
1, 14992, Note_on_c, 0, 71, 75
1, 14992, Note_on_c, 1, 56, 75
1, 15007, Note_on_c, 0, 71, 0
1, 15007, Note_on_c, 1, 56, 0
1, 15008, Note_on_c, 0, 68, 75
1, 15008, Note_on_c, 1, 52, 75
1, 15023, Note_on_c, 0, 68, 0
1, 15023, Note_on_c, 1, 52, 0
1, 15024, Note_on_c, 0, 72, 75
1, 15024, Note_on_c, 1, 57, 75
1, 15039, Note_on_c, 0, 72, 0
1, 15039, Note_on_c, 1, 57, 0
1, 15040, Note_on_c, 0, 69, 75
1, 15040, Note_on_c, 1, 54, 75
1, 15055, Note_on_c, 0, 69, 0
1, 15055, Note_on_c, 1, 54, 0
1, 15056, Note_on_c, 0, 74, 75
1, 15056, Note_on_c, 1, 59, 75
1, 15071, Note_on_c, 0, 74, 0
1, 15071, Note_on_c, 1, 59, 0
1, 15072, Note_on_c, 0, 71, 75
1, 15072, Note_on_c, 1, 56, 75
1, 15087, Note_on_c, 0, 76, 0
1, 15087, Note_on_c, 0, 71, 0
1, 15088, Note_on_c, 0, 83, 75
1, 15103, Note_on_c, 0, 83, 0
1, 15104, Note_on_c, 0, 80, 75
1, 15117, Note_on_c, 1, 56, 0
1, 15119, Note_on_c, 0, 80, 0
1, 15120, Note_on_c, 0, 81, 75
1, 15136, Note_on_c, 0, 76, 75
1, 15136, Note_on_c, 1, 61, 75
1, 15151, Note_on_c, 0, 76, 0
1, 15151, Note_on_c, 1, 61, 0
1, 15152, Note_on_c, 0, 73, 75
1, 15152, Note_on_c, 1, 57, 75
1, 15167, Note_on_c, 0, 73, 0
1, 15167, Note_on_c, 1, 57, 0
1, 15168, Note_on_c, 0, 78, 75
1, 15168, Note_on_c, 1, 62, 75
1, 15183, Note_on_c, 0, 78, 0
1, 15183, Note_on_c, 1, 62, 0
1, 15184, Note_on_c, 0, 74, 75
1, 15184, Note_on_c, 1, 59, 75
1, 15199, Note_on_c, 0, 74, 0
1, 15199, Note_on_c, 1, 59, 0
1, 15200, Note_on_c, 0, 79, 75
1, 15200, Note_on_c, 1, 64, 75
1, 15215, Note_on_c, 0, 79, 0
1, 15215, Note_on_c, 1, 64, 0
1, 15216, Note_on_c, 0, 76, 75
1, 15216, Note_on_c, 1, 61, 75
1, 15231, Note_on_c, 0, 81, 0
1, 15231, Note_on_c, 0, 76, 0
1, 15232, Note_on_c, 0, 76, 75
1, 15247, Note_on_c, 0, 76, 0
1, 15248, Note_on_c, 0, 73, 75
1, 15261, Note_on_c, 1, 61, 0
1, 15263, Note_on_c, 0, 73, 0
1, 15264, Note_on_c, 0, 74, 75
1, 15280, Note_on_c, 0, 69, 75
1, 15280, Note_on_c, 1, 54, 75
1, 15295, Note_on_c, 0, 69, 0
1, 15295, Note_on_c, 1, 54, 0
1, 15296, Note_on_c, 0, 66, 75
1, 15296, Note_on_c, 1, 50, 75
1, 15311, Note_on_c, 0, 66, 0
1, 15311, Note_on_c, 1, 50, 0
1, 15312, Note_on_c, 0, 71, 75
1, 15312, Note_on_c, 1, 55, 75
1, 15327, Note_on_c, 0, 71, 0
1, 15327, Note_on_c, 1, 55, 0
1, 15328, Note_on_c, 0, 67, 75
1, 15328, Note_on_c, 1, 52, 75
1, 15343, Note_on_c, 0, 67, 0
1, 15343, Note_on_c, 1, 52, 0
1, 15344, Note_on_c, 0, 72, 75
1, 15344, Note_on_c, 1, 57, 75
1, 15359, Note_on_c, 0, 72, 0
1, 15359, Note_on_c, 1, 57, 0
1, 15360, Note_on_c, 0, 69, 75
1, 15360, Note_on_c, 1, 54, 75
1, 15375, Note_on_c, 0, 74, 0
1, 15375, Note_on_c, 0, 69, 0
1, 15376, Note_on_c, 0, 81, 75
1, 15391, Note_on_c, 0, 81, 0
1, 15392, Note_on_c, 0, 78, 75
1, 15405, Note_on_c, 1, 54, 0
1, 15407, Note_on_c, 0, 78, 0
1, 15408, Note_on_c, 0, 79, 75
1, 15424, Note_on_c, 0, 74, 75
1, 15424, Note_on_c, 1, 59, 75
1, 15439, Note_on_c, 0, 74, 0
1, 15439, Note_on_c, 1, 59, 0
1, 15440, Note_on_c, 0, 71, 75
1, 15440, Note_on_c, 1, 55, 75
1, 15455, Note_on_c, 0, 71, 0
1, 15455, Note_on_c, 1, 55, 0
1, 15456, Note_on_c, 0, 76, 75
1, 15456, Note_on_c, 1, 60, 75
1, 15471, Note_on_c, 0, 76, 0
1, 15471, Note_on_c, 1, 60, 0
1, 15472, Note_on_c, 0, 72, 75
1, 15472, Note_on_c, 1, 57, 75
1, 15487, Note_on_c, 0, 72, 0
1, 15487, Note_on_c, 1, 57, 0
1, 15488, Note_on_c, 0, 77, 75
1, 15488, Note_on_c, 1, 62, 75
1, 15503, Note_on_c, 0, 77, 0
1, 15503, Note_on_c, 1, 62, 0
1, 15504, Note_on_c, 0, 74, 75
1, 15504, Note_on_c, 1, 59, 75
1, 15519, Note_on_c, 0, 79, 0
1, 15519, Note_on_c, 0, 74, 0
1, 15520, Note_on_c, 0, 86, 75
1, 15535, Note_on_c, 0, 86, 0
1, 15536, Note_on_c, 0, 77, 75
1, 15549, Note_on_c, 1, 59, 0
1, 15551, Note_on_c, 0, 77, 0
1, 15552, Note_on_c, 1, 72, 75
1, 15568, Note_on_c, 0, 75, 75
1, 15572, Note_on_c, 1, 72, 0
1, 15583, Note_on_c, 0, 75, 0
1, 15584, Note_on_c, 0, 76, 75
1, 15599, Note_on_c, 0, 76, 0
1, 15600, Note_on_c, 0, 84, 75
1, 15615, Note_on_c, 0, 84, 0
1, 15616, Note_on_c, 0, 79, 75
1, 15631, Note_on_c, 0, 79, 0
1, 15632, Note_on_c, 0, 76, 75
1, 15647, Note_on_c, 0, 76, 0
1, 15648, Note_on_c, 1, 68, 75
1, 15664, Note_on_c, 0, 83, 75
1, 15668, Note_on_c, 1, 68, 0
1, 15679, Note_on_c, 0, 83, 0
1, 15680, Note_on_c, 0, 74, 75
1, 15695, Note_on_c, 0, 74, 0
1, 15696, Note_on_c, 1, 69, 75
1, 15712, Note_on_c, 0, 71, 75
1, 15716, Note_on_c, 1, 69, 0
1, 15727, Note_on_c, 0, 71, 0
1, 15728, Note_on_c, 0, 72, 75
1, 15743, Note_on_c, 0, 72, 0
1, 15744, Note_on_c, 0, 81, 75
1, 15759, Note_on_c, 0, 81, 0
1, 15760, Note_on_c, 0, 76, 75
1, 15775, Note_on_c, 0, 76, 0
1, 15776, Note_on_c, 0, 72, 75
1, 15791, Note_on_c, 0, 72, 0
1, 15792, Note_on_c, 1, 64, 75
1, 15808, Note_on_c, 0, 79, 75
1, 15812, Note_on_c, 1, 64, 0
1, 15823, Note_on_c, 0, 79, 0
1, 15824, Note_on_c, 0, 71, 75
1, 15839, Note_on_c, 0, 71, 0
1, 15840, Note_on_c, 1, 66, 75
1, 15856, Note_on_c, 0, 68, 75
1, 15860, Note_on_c, 1, 66, 0
1, 15871, Note_on_c, 0, 68, 0
1, 15872, Note_on_c, 0, 69, 75
1, 15887, Note_on_c, 0, 69, 0
1, 15888, Note_on_c, 0, 78, 75
1, 15888, Note_on_c, 1, 63, 75
1, 15903, Note_on_c, 0, 78, 0
1, 15904, Note_on_c, 0, 75, 75
1, 15908, Note_on_c, 1, 63, 0
1, 15919, Note_on_c, 0, 75, 0
1, 15920, Note_on_c, 0, 69, 75
1, 15935, Note_on_c, 0, 69, 0
1, 15936, Note_on_c, 1, 64, 75
1, 15952, Note_on_c, 0, 67, 75
1, 15956, Note_on_c, 1, 64, 0
1, 15967, Note_on_c, 0, 67, 0
1, 15968, Note_on_c, 0, 76, 75
1, 15983, Note_on_c, 0, 76, 0
1, 15984, Note_on_c, 1, 60, 75
1, 16000, Note_on_c, 0, 67, 75
1, 16015, Note_on_c, 0, 67, 0
1, 16016, Note_on_c, 0, 70, 75
1, 16031, Note_on_c, 0, 70, 0
1, 16032, Note_on_c, 0, 76, 75
1, 16047, Note_on_c, 0, 76, 0
1, 16048, Note_on_c, 0, 70, 75
1, 16063, Note_on_c, 0, 70, 0
1, 16064, Note_on_c, 0, 79, 75
1, 16079, Note_on_c, 0, 79, 0
1, 16080, Note_on_c, 1, 60, 0
1, 16080, Note_on_c, 1, 58, 75
1, 16096, Note_on_c, 0, 76, 75
1, 16111, Note_on_c, 0, 76, 0
1, 16112, Note_on_c, 0, 67, 75
1, 16125, Note_on_c, 1, 58, 0
1, 16127, Note_on_c, 0, 67, 0
1, 16128, Note_on_c, 1, 59, 75
1, 16144, Note_on_c, 0, 66, 75
1, 16159, Note_on_c, 0, 66, 0
1, 16160, Note_on_c, 0, 75, 75
1, 16173, Note_on_c, 1, 59, 0
1, 16175, Note_on_c, 0, 75, 0
1, 16176, Note_on_c, 1, 47, 75
1, 16221, Note_on_c, 1, 47, 0
1, 16272, Note_on_c, 0, 71, 75
1, 16320, Note_on_c, 1, 67, 75
1, 16320, Note_on_c, 1, 64, 75
1, 16335, Note_on_c, 0, 71, 0
1, 16336, Note_on_c, 0, 79, 75
1, 16351, Note_on_c, 0, 79, 0
1, 16352, Note_on_c, 0, 78, 75
1, 16365, Note_on_c, 1, 67, 0
1, 16365, Note_on_c, 1, 64, 0
1, 16367, Note_on_c, 0, 78, 0
1, 16368, Note_on_c, 0, 76, 75
1, 16368, Note_on_c, 1, 69, 75
1, 16368, Note_on_c, 1, 66, 75
1, 16383, Note_on_c, 0, 76, 0
1, 16384, Note_on_c, 0, 75, 75
1, 16399, Note_on_c, 0, 75, 0
1, 16400, Note_on_c, 0, 78, 75
1, 16413, Note_on_c, 1, 69, 0
1, 16413, Note_on_c, 1, 66, 0
1, 16415, Note_on_c, 0, 78, 0
1, 16416, Note_on_c, 0, 78, 75
1, 16416, Note_on_c, 1, 71, 75
1, 16416, Note_on_c, 1, 67, 75
1, 16431, Note_on_c, 0, 78, 0
1, 16432, Note_on_c, 0, 76, 75
1, 16436, Note_on_c, 1, 71, 0
1, 16436, Note_on_c, 1, 67, 0
1, 16447, Note_on_c, 0, 76, 0
1, 16448, Note_on_c, 0, 71, 75
1, 16463, Note_on_c, 0, 71, 0
1, 16464, Note_on_c, 0, 83, 91
1, 16512, Note_on_c, 1, 67, 75
1, 16527, Note_on_c, 0, 83, 0
1, 16528, Note_on_c, 0, 79, 75
1, 16543, Note_on_c, 0, 79, 0
1, 16544, Note_on_c, 0, 76, 75
1, 16557, Note_on_c, 1, 67, 0
1, 16559, Note_on_c, 0, 76, 0
1, 16560, Note_on_c, 0, 74, 75
1, 16560, Note_on_c, 1, 69, 75
1, 16575, Note_on_c, 0, 74, 0
1, 16576, Note_on_c, 0, 72, 75
1, 16591, Note_on_c, 0, 72, 0
1, 16592, Note_on_c, 0, 76, 75
1, 16605, Note_on_c, 1, 69, 0
1, 16607, Note_on_c, 0, 76, 0
1, 16608, Note_on_c, 0, 72, 76
1, 16608, Note_on_c, 1, 67, 76
1, 16623, Note_on_c, 0, 72, 0
1, 16624, Note_on_c, 0, 71, 76
1, 16639, Note_on_c, 0, 71, 0
1, 16640, Note_on_c, 0, 76, 77
1, 16653, Note_on_c, 1, 67, 0
1, 16655, Note_on_c, 0, 76, 0
1, 16656, Note_on_c, 0, 71, 77
1, 16656, Note_on_c, 1, 66, 78
1, 16671, Note_on_c, 0, 71, 0
1, 16671, Note_on_c, 1, 66, 0
1, 16672, Note_on_c, 0, 69, 77
1, 16687, Note_on_c, 0, 69, 0
1, 16688, Note_on_c, 0, 78, 78
1, 16688, Note_on_c, 0, 81, 79
1, 16688, Note_on_c, 1, 63, 79
1, 16703, Note_on_c, 0, 78, 0
1, 16703, Note_on_c, 0, 81, 0
1, 16703, Note_on_c, 1, 63, 0
1, 16704, Note_on_c, 0, 78, 80
1, 16704, Note_on_c, 0, 81, 80
1, 16704, Note_on_c, 1, 64, 80
1, 16738, Note_on_c, 0, 78, 0
1, 16738, Note_on_c, 0, 81, 0
1, 16738, Note_on_c, 1, 64, 0
1, 16740, Note_on_c, 0, 76, 78
1, 16740, Note_on_c, 0, 79, 78
1, 16740, Note_on_c, 1, 58, 78
1, 16752, Note_on_c, 0, 76, 0
1, 16752, Note_on_c, 0, 75, 77
1, 16752, Note_on_c, 0, 79, 0
1, 16752, Note_on_c, 0, 78, 77
1, 16752, Note_on_c, 1, 58, 0
1, 16752, Note_on_c, 1, 59, 77
1, 16772, Note_on_c, 0, 78, 0
1, 16797, Note_on_c, 0, 75, 0
1, 16797, Note_on_c, 1, 59, 0
1, 16848, Note_on_c, 0, 71, 75
1, 16864, Note_on_c, 0, 66, 75
1, 16864, Note_on_c, 1, 51, 75
1, 16879, Note_on_c, 0, 66, 0
1, 16879, Note_on_c, 1, 51, 0
1, 16880, Note_on_c, 0, 63, 75
1, 16880, Note_on_c, 1, 47, 75
1, 16895, Note_on_c, 0, 63, 0
1, 16895, Note_on_c, 1, 47, 0
1, 16896, Note_on_c, 0, 67, 76
1, 16896, Note_on_c, 1, 52, 76
1, 16911, Note_on_c, 0, 67, 0
1, 16911, Note_on_c, 1, 52, 0
1, 16912, Note_on_c, 0, 64, 76
1, 16912, Note_on_c, 1, 49, 76
1, 16927, Note_on_c, 0, 64, 0
1, 16927, Note_on_c, 1, 49, 0
1, 16928, Note_on_c, 0, 69, 77
1, 16928, Note_on_c, 1, 54, 77
1, 16943, Note_on_c, 0, 69, 0
1, 16943, Note_on_c, 1, 54, 0
1, 16944, Note_on_c, 0, 66, 77
1, 16944, Note_on_c, 1, 51, 77
1, 16959, Note_on_c, 0, 71, 0
1, 16959, Note_on_c, 0, 66, 0
1, 16959, Note_on_c, 1, 51, 0
1, 16960, Note_on_c, 0, 78, 78
1, 16975, Note_on_c, 0, 78, 0
1, 16976, Note_on_c, 0, 75, 79
1, 16976, Note_on_c, 1, 71, 78
1, 16976, Note_on_c, 1, 69, 78
1, 16991, Note_on_c, 0, 75, 0
1, 16992, Note_on_c, 0, 76, 79
1, 16992, Note_on_c, 1, 69, 0
1, 16992, Note_on_c, 1, 67, 78
1, 17007, Note_on_c, 0, 76, 0
1, 17008, Note_on_c, 0, 71, 80
1, 17023, Note_on_c, 0, 71, 0
1, 17024, Note_on_c, 0, 79, 79
1, 17037, Note_on_c, 1, 71, 0
1, 17037, Note_on_c, 1, 67, 0
1, 17039, Note_on_c, 0, 79, 0
1, 17040, Note_on_c, 0, 76, 79
1, 17055, Note_on_c, 0, 76, 0
1, 17056, Note_on_c, 0, 83, 78
1, 17071, Note_on_c, 0, 83, 0
1, 17072, Note_on_c, 0, 79, 78
1, 17087, Note_on_c, 0, 79, 0
1, 17088, Note_on_c, 0, 76, 77
1, 17103, Note_on_c, 0, 76, 0
1, 17104, Note_on_c, 0, 71, 77
1, 17119, Note_on_c, 0, 71, 0
1, 17120, Note_on_c, 0, 67, 77
1, 17135, Note_on_c, 0, 67, 0
1, 17136, Note_on_c, 0, 71, 75
1, 17152, Note_on_c, 0, 66, 75
1, 17152, Note_on_c, 1, 51, 75
1, 17167, Note_on_c, 0, 66, 0
1, 17167, Note_on_c, 1, 51, 0
1, 17168, Note_on_c, 0, 63, 75
1, 17168, Note_on_c, 1, 47, 75
1, 17183, Note_on_c, 0, 63, 0
1, 17183, Note_on_c, 1, 47, 0
1, 17184, Note_on_c, 0, 67, 76
1, 17184, Note_on_c, 1, 52, 76
1, 17199, Note_on_c, 0, 67, 0
1, 17199, Note_on_c, 1, 52, 0
1, 17200, Note_on_c, 0, 64, 76
1, 17200, Note_on_c, 1, 49, 76
1, 17215, Note_on_c, 0, 64, 0
1, 17215, Note_on_c, 1, 49, 0
1, 17216, Note_on_c, 0, 69, 77
1, 17216, Note_on_c, 1, 54, 77
1, 17231, Note_on_c, 0, 69, 0
1, 17231, Note_on_c, 1, 54, 0
1, 17232, Note_on_c, 0, 66, 77
1, 17232, Note_on_c, 1, 51, 77
1, 17247, Note_on_c, 0, 71, 0
1, 17247, Note_on_c, 0, 66, 0
1, 17247, Note_on_c, 1, 51, 0
1, 17248, Note_on_c, 0, 78, 78
1, 17263, Note_on_c, 0, 78, 0
1, 17264, Note_on_c, 0, 75, 79
1, 17264, Note_on_c, 1, 71, 78
1, 17264, Note_on_c, 1, 69, 78
1, 17279, Note_on_c, 0, 75, 0
1, 17280, Note_on_c, 0, 76, 79
1, 17280, Note_on_c, 1, 69, 0
1, 17280, Note_on_c, 1, 67, 78
1, 17295, Note_on_c, 0, 76, 0
1, 17296, Note_on_c, 0, 71, 80
1, 17311, Note_on_c, 0, 71, 0
1, 17312, Note_on_c, 0, 79, 79
1, 17325, Note_on_c, 1, 71, 0
1, 17325, Note_on_c, 1, 67, 0
1, 17327, Note_on_c, 0, 79, 0
1, 17328, Note_on_c, 0, 76, 79
1, 17343, Note_on_c, 0, 76, 0
1, 17344, Note_on_c, 0, 83, 78
1, 17359, Note_on_c, 0, 83, 0
1, 17360, Note_on_c, 0, 79, 78
1, 17375, Note_on_c, 0, 79, 0
1, 17376, Note_on_c, 0, 76, 77
1, 17391, Note_on_c, 0, 76, 0
1, 17392, Note_on_c, 0, 71, 77
1, 17407, Note_on_c, 0, 71, 0
1, 17408, Note_on_c, 0, 67, 77
1, 17423, Note_on_c, 0, 67, 0
1, 17424, Note_on_c, 0, 71, 75
1, 17440, Note_on_c, 0, 66, 75
1, 17440, Note_on_c, 1, 51, 75
1, 17455, Note_on_c, 0, 66, 0
1, 17455, Note_on_c, 1, 51, 0
1, 17456, Note_on_c, 0, 63, 75
1, 17456, Note_on_c, 1, 47, 75
1, 17471, Note_on_c, 0, 63, 0
1, 17471, Note_on_c, 1, 47, 0
1, 17472, Note_on_c, 0, 67, 75
1, 17472, Note_on_c, 1, 52, 75
1, 17487, Note_on_c, 0, 67, 0
1, 17487, Note_on_c, 1, 52, 0
1, 17488, Note_on_c, 0, 64, 76
1, 17488, Note_on_c, 1, 49, 76
1, 17503, Note_on_c, 0, 64, 0
1, 17503, Note_on_c, 1, 49, 0
1, 17504, Note_on_c, 0, 69, 76
1, 17504, Note_on_c, 1, 54, 76
1, 17519, Note_on_c, 0, 69, 0
1, 17519, Note_on_c, 1, 54, 0
1, 17520, Note_on_c, 0, 66, 77
1, 17520, Note_on_c, 1, 51, 77
1, 17535, Note_on_c, 0, 71, 0
1, 17535, Note_on_c, 0, 66, 0
1, 17535, Note_on_c, 1, 51, 0
1, 17536, Note_on_c, 0, 71, 76
1, 17536, Note_on_c, 1, 55, 77
1, 17551, Note_on_c, 0, 71, 0
1, 17551, Note_on_c, 1, 55, 0
1, 17552, Note_on_c, 0, 67, 77
1, 17552, Note_on_c, 1, 52, 78
1, 17567, Note_on_c, 0, 67, 0
1, 17567, Note_on_c, 1, 52, 0
1, 17568, Note_on_c, 1, 57, 80
1, 17584, Note_on_c, 0, 84, 80
1, 17588, Note_on_c, 1, 57, 0
1, 17599, Note_on_c, 0, 84, 0
1, 17600, Note_on_c, 0, 78, 80
1, 17615, Note_on_c, 0, 78, 0
1, 17616, Note_on_c, 0, 75, 80
1, 17632, Note_on_c, 1, 69, 80
1, 17636, Note_on_c, 0, 75, 0
1, 17648, Note_on_c, 1, 69, 0
1, 17648, Note_on_c, 1, 57, 80
1, 17663, Note_on_c, 1, 57, 0
1, 17664, Note_on_c, 0, 76, 80
1, 17680, Note_on_c, 1, 67, 80
1, 17684, Note_on_c, 0, 76, 0
1, 17696, Note_on_c, 1, 67, 0
1, 17696, Note_on_c, 1, 55, 80
1, 17711, Note_on_c, 1, 55, 0
1, 17712, Note_on_c, 1, 54, 80
1, 17728, Note_on_c, 0, 68, 80
1, 17744, Note_on_c, 0, 68, 0
1, 17744, Note_on_c, 0, 69, 80
1, 17757, Note_on_c, 1, 54, 0
1, 17759, Note_on_c, 0, 69, 0
1, 17760, Note_on_c, 0, 81, 80
1, 17760, Note_on_c, 0, 75, 80
1, 17776, Note_on_c, 1, 66, 80
1, 17792, Note_on_c, 1, 66, 0
1, 17792, Note_on_c, 1, 54, 80
1, 17807, Note_on_c, 1, 54, 0
1, 17808, Note_on_c, 0, 81, 0
1, 17808, Note_on_c, 0, 75, 0
1, 17808, Note_on_c, 0, 79, 80
1, 17808, Note_on_c, 0, 76, 80
1, 17824, Note_on_c, 1, 64, 80
1, 17840, Note_on_c, 1, 64, 0
1, 17840, Note_on_c, 1, 52, 80
1, 17853, Note_on_c, 0, 79, 0
1, 17853, Note_on_c, 0, 76, 0
1, 17855, Note_on_c, 1, 52, 0
1, 17856, Note_on_c, 1, 60, 80
1, 17856, Note_on_c, 1, 57, 80
1, 17872, Note_on_c, 0, 64, 79
1, 17887, Note_on_c, 0, 64, 0
1, 17888, Note_on_c, 0, 65, 79
1, 17903, Note_on_c, 0, 65, 0
1, 17904, Note_on_c, 0, 72, 78
1, 17919, Note_on_c, 0, 72, 0
1, 17920, Note_on_c, 0, 64, 78
1, 17935, Note_on_c, 0, 64, 0
1, 17936, Note_on_c, 0, 65, 77
1, 17951, Note_on_c, 0, 65, 0
1, 17952, Note_on_c, 1, 60, 0
1, 17952, Note_on_c, 1, 57, 0
1, 17952, Note_on_c, 1, 59, 76
1, 17952, Note_on_c, 1, 55, 76
1, 17968, Note_on_c, 0, 63, 76
1, 17983, Note_on_c, 0, 63, 0
1, 17984, Note_on_c, 0, 64, 76
1, 17997, Note_on_c, 1, 59, 0
1, 17997, Note_on_c, 1, 55, 0
1, 17999, Note_on_c, 0, 64, 0
1, 18000, Note_on_c, 1, 57, 75
1, 18000, Note_on_c, 1, 54, 75
1, 18016, Note_on_c, 0, 63, 75
1, 18031, Note_on_c, 0, 63, 0
1, 18032, Note_on_c, 0, 66, 74
1, 18047, Note_on_c, 0, 66, 0
1, 18048, Note_on_c, 0, 69, 74
1, 18063, Note_on_c, 0, 69, 0
1, 18064, Note_on_c, 0, 59, 73
1, 18079, Note_on_c, 0, 59, 0
1, 18080, Note_on_c, 0, 60, 73
1, 18095, Note_on_c, 0, 60, 0
1, 18096, Note_on_c, 1, 57, 0
1, 18096, Note_on_c, 1, 51, 71
1, 18112, Note_on_c, 0, 59, 70
1, 18127, Note_on_c, 0, 59, 0
1, 18128, Note_on_c, 0, 69, 70
1, 18141, Note_on_c, 1, 54, 0
1, 18141, Note_on_c, 1, 51, 0
1, 18143, Note_on_c, 0, 69, 0
1, 18144, Note_on_c, 0, 67, 75
1, 18144, Note_on_c, 0, 64, 80
1, 18160, Note_on_c, 1, 52, 74
1, 18175, Note_on_c, 1, 52, 0
1, 18176, Note_on_c, 1, 55, 73
1, 18189, Note_on_c, 0, 67, 0
1, 18189, Note_on_c, 0, 64, 0
1, 18191, Note_on_c, 1, 55, 0
1, 18192, Note_on_c, 0, 66, 71
1, 18192, Note_on_c, 0, 64, 80
1, 18192, Note_on_c, 1, 57, 72
1, 18207, Note_on_c, 1, 57, 0
1, 18208, Note_on_c, 1, 54, 71
1, 18223, Note_on_c, 1, 54, 0
1, 18224, Note_on_c, 1, 58, 70
1, 18237, Note_on_c, 0, 64, 0
1, 18239, Note_on_c, 1, 58, 0
1, 18240, Note_on_c, 0, 63, 80
1, 18240, Note_on_c, 1, 59, 69
1, 18255, Note_on_c, 0, 66, 0
1, 18255, Note_on_c, 1, 59, 0
1, 18256, Note_on_c, 0, 67, 66
1, 18256, Note_on_c, 1, 47, 68
1, 18271, Note_on_c, 0, 67, 0
1, 18271, Note_on_c, 1, 47, 0
1, 18272, Note_on_c, 0, 69, 65
1, 18272, Note_on_c, 1, 59, 67
1, 18285, Note_on_c, 0, 63, 0
1, 18287, Note_on_c, 0, 69, 0
1, 18287, Note_on_c, 1, 59, 0
1, 18288, Note_on_c, 0, 69, 64
1, 18288, Note_on_c, 0, 64, 64
1, 18288, Note_on_c, 1, 60, 64
1, 18384, Note_on_c, 0, 69, 0
1, 18384, Note_on_c, 0, 67, 64
1, 18404, Note_on_c, 0, 67, 0
1, 18421, Note_on_c, 0, 64, 0
1, 18421, Note_on_c, 1, 60, 0
1, 18432, Note_on_c, 0, 79, 64
1, 18432, Note_on_c, 0, 76, 64
1, 18448, Note_on_c, 1, 64, 64
1, 18463, Note_on_c, 1, 64, 0
1, 18464, Note_on_c, 1, 67, 64
1, 18477, Note_on_c, 0, 79, 0
1, 18477, Note_on_c, 0, 76, 0
1, 18479, Note_on_c, 1, 67, 0
1, 18480, Note_on_c, 0, 78, 65
1, 18480, Note_on_c, 0, 76, 65
1, 18480, Note_on_c, 1, 69, 65
1, 18495, Note_on_c, 1, 69, 0
1, 18496, Note_on_c, 1, 66, 65
1, 18511, Note_on_c, 1, 66, 0
1, 18512, Note_on_c, 1, 70, 66
1, 18525, Note_on_c, 0, 78, 0
1, 18525, Note_on_c, 0, 76, 0
1, 18527, Note_on_c, 1, 70, 0
1, 18528, Note_on_c, 0, 78, 67
1, 18528, Note_on_c, 0, 74, 67
1, 18528, Note_on_c, 1, 71, 66
1, 18543, Note_on_c, 1, 71, 0
1, 18544, Note_on_c, 1, 59, 67
1, 18559, Note_on_c, 1, 59, 0
1, 18560, Note_on_c, 1, 71, 67
1, 18573, Note_on_c, 0, 78, 0
1, 18573, Note_on_c, 0, 74, 0
1, 18575, Note_on_c, 1, 71, 0
1, 18576, Note_on_c, 0, 83, 69
1, 18576, Note_on_c, 0, 76, 69
1, 18576, Note_on_c, 0, 74, 69
1, 18576, Note_on_c, 1, 68, 68
1, 18591, Note_on_c, 1, 68, 0
1, 18592, Note_on_c, 1, 64, 68
1, 18607, Note_on_c, 1, 64, 0
1, 18608, Note_on_c, 1, 68, 68
1, 18621, Note_on_c, 0, 83, 0
1, 18621, Note_on_c, 0, 76, 0
1, 18621, Note_on_c, 0, 74, 0
1, 18623, Note_on_c, 1, 68, 0
1, 18624, Note_on_c, 0, 76, 71
1, 18624, Note_on_c, 0, 72, 71
1, 18624, Note_on_c, 1, 69, 69
1, 18639, Note_on_c, 1, 69, 0
1, 18640, Note_on_c, 1, 57, 69
1, 18655, Note_on_c, 1, 57, 0
1, 18656, Note_on_c, 1, 69, 70
1, 18669, Note_on_c, 0, 76, 0
1, 18669, Note_on_c, 0, 72, 0
1, 18671, Note_on_c, 1, 69, 0
1, 18672, Note_on_c, 0, 81, 72
1, 18672, Note_on_c, 0, 74, 72
1, 18672, Note_on_c, 0, 72, 72
1, 18672, Note_on_c, 1, 66, 70
1, 18687, Note_on_c, 1, 66, 0
1, 18688, Note_on_c, 1, 62, 71
1, 18703, Note_on_c, 1, 62, 0
1, 18704, Note_on_c, 1, 66, 71
1, 18717, Note_on_c, 0, 81, 0
1, 18717, Note_on_c, 0, 74, 0
1, 18717, Note_on_c, 0, 72, 0
1, 18719, Note_on_c, 1, 66, 0
1, 18720, Note_on_c, 0, 74, 74
1, 18720, Note_on_c, 0, 71, 74
1, 18720, Note_on_c, 1, 67, 72
1, 18735, Note_on_c, 1, 67, 0
1, 18736, Note_on_c, 1, 55, 72
1, 18751, Note_on_c, 1, 55, 0
1, 18752, Note_on_c, 1, 67, 72
1, 18765, Note_on_c, 0, 74, 0
1, 18765, Note_on_c, 0, 71, 0
1, 18767, Note_on_c, 1, 67, 0
1, 18768, Note_on_c, 0, 79, 76
1, 18768, Note_on_c, 0, 72, 76
1, 18768, Note_on_c, 0, 71, 76
1, 18768, Note_on_c, 1, 64, 73
1, 18783, Note_on_c, 1, 64, 0
1, 18784, Note_on_c, 1, 60, 73
1, 18799, Note_on_c, 1, 60, 0
1, 18800, Note_on_c, 1, 64, 74
1, 18813, Note_on_c, 0, 79, 0
1, 18813, Note_on_c, 0, 72, 0
1, 18813, Note_on_c, 0, 71, 0
1, 18815, Note_on_c, 1, 64, 0
1, 18816, Note_on_c, 0, 72, 78
1, 18816, Note_on_c, 0, 69, 78
1, 18816, Note_on_c, 1, 66, 74
1, 18831, Note_on_c, 1, 66, 0
1, 18832, Note_on_c, 1, 54, 75
1, 18847, Note_on_c, 1, 54, 0
1, 18848, Note_on_c, 1, 66, 75
1, 18861, Note_on_c, 0, 72, 0
1, 18861, Note_on_c, 0, 69, 0
1, 18863, Note_on_c, 1, 66, 0
1, 18864, Note_on_c, 0, 78, 80
1, 18864, Note_on_c, 0, 71, 80
1, 18864, Note_on_c, 0, 69, 80
1, 18864, Note_on_c, 1, 63, 80
1, 18879, Note_on_c, 1, 63, 0
1, 18880, Note_on_c, 1, 59, 80
1, 18895, Note_on_c, 1, 59, 0
1, 18896, Note_on_c, 1, 63, 80
1, 18909, Note_on_c, 0, 78, 0
1, 18909, Note_on_c, 0, 71, 0
1, 18909, Note_on_c, 0, 69, 0
1, 18911, Note_on_c, 1, 63, 0
1, 18912, Note_on_c, 0, 71, 80
1, 18912, Note_on_c, 0, 67, 80
1, 18912, Note_on_c, 1, 64, 80
1, 18927, Note_on_c, 0, 71, 0
1, 18927, Note_on_c, 0, 67, 0
1, 18927, Note_on_c, 1, 64, 0
1, 18928, Note_on_c, 1, 52, 80
1, 18943, Note_on_c, 1, 52, 0
1, 18944, Note_on_c, 0, 69, 80
1, 18944, Note_on_c, 0, 64, 80
1, 18944, Note_on_c, 1, 60, 80
1, 18951, Note_on_c, 0, 69, 0
1, 18951, Note_on_c, 1, 60, 0
1, 18959, Note_on_c, 0, 64, 0
1, 18960, Note_on_c, 0, 69, 80
1, 18960, Note_on_c, 0, 64, 80
1, 18960, Note_on_c, 1, 60, 80
1, 18975, Note_on_c, 0, 64, 0
1, 18976, Note_on_c, 0, 69, 0
1, 18976, Note_on_c, 0, 67, 81
1, 18976, Note_on_c, 1, 60, 0
1, 18976, Note_on_c, 1, 59, 81
1, 18991, Note_on_c, 0, 67, 0
1, 18991, Note_on_c, 1, 59, 0
1, 18992, Note_on_c, 0, 72, 81
1, 18992, Note_on_c, 0, 64, 81
1, 18992, Note_on_c, 1, 57, 81
1, 18999, Note_on_c, 0, 72, 0
1, 18999, Note_on_c, 1, 57, 0
1, 19007, Note_on_c, 0, 64, 0
1, 19008, Note_on_c, 0, 72, 81
1, 19008, Note_on_c, 0, 64, 81
1, 19008, Note_on_c, 1, 57, 81
1, 19023, Note_on_c, 0, 64, 0
1, 19024, Note_on_c, 0, 72, 0
1, 19024, Note_on_c, 0, 71, 82
1, 19024, Note_on_c, 1, 57, 0
1, 19024, Note_on_c, 1, 55, 82
1, 19039, Note_on_c, 0, 71, 0
1, 19039, Note_on_c, 1, 55, 0
1, 19040, Note_on_c, 0, 69, 82
1, 19040, Note_on_c, 0, 64, 82
1, 19040, Note_on_c, 1, 60, 82
1, 19047, Note_on_c, 0, 69, 0
1, 19047, Note_on_c, 1, 60, 0
1, 19055, Note_on_c, 0, 64, 0
1, 19056, Note_on_c, 0, 69, 82
1, 19056, Note_on_c, 0, 64, 82
1, 19056, Note_on_c, 1, 60, 82
1, 19071, Note_on_c, 0, 64, 0
1, 19072, Note_on_c, 0, 69, 0
1, 19072, Note_on_c, 0, 67, 83
1, 19072, Note_on_c, 1, 60, 0
1, 19072, Note_on_c, 1, 59, 83
1, 19087, Note_on_c, 0, 67, 0
1, 19087, Note_on_c, 1, 59, 0
1, 19088, Note_on_c, 0, 72, 83
1, 19088, Note_on_c, 0, 64, 83
1, 19088, Note_on_c, 1, 57, 83
1, 19095, Note_on_c, 0, 72, 0
1, 19095, Note_on_c, 1, 57, 0
1, 19103, Note_on_c, 0, 64, 0
1, 19104, Note_on_c, 0, 72, 83
1, 19104, Note_on_c, 0, 64, 83
1, 19104, Note_on_c, 1, 57, 83
1, 19119, Note_on_c, 0, 64, 0
1, 19120, Note_on_c, 0, 72, 0
1, 19120, Note_on_c, 0, 71, 83
1, 19120, Note_on_c, 1, 57, 0
1, 19120, Note_on_c, 1, 55, 83
1, 19135, Note_on_c, 0, 71, 0
1, 19135, Note_on_c, 1, 55, 0
1, 19136, Note_on_c, 0, 75, 84
1, 19136, Note_on_c, 0, 69, 84
1, 19136, Note_on_c, 1, 54, 84
1, 19143, Note_on_c, 0, 75, 0
1, 19143, Note_on_c, 1, 54, 0
1, 19151, Note_on_c, 0, 69, 0
1, 19152, Note_on_c, 0, 75, 80
1, 19152, Note_on_c, 0, 69, 80
1, 19152, Note_on_c, 1, 54, 75
1, 19248, Note_on_c, 0, 75, 0
1, 19248, Note_on_c, 0, 76, 73
1, 19248, Note_on_c, 0, 69, 0
1, 19248, Note_on_c, 0, 71, 73
1, 19248, Note_on_c, 1, 54, 0
1, 19248, Note_on_c, 1, 55, 71
1, 19268, Note_on_c, 0, 76, 0
1, 19268, Note_on_c, 1, 55, 0
1, 19295, Note_on_c, 0, 71, 0
1, 19296, Note_on_c, 1, 45, 70
1, 19312, Note_on_c, 0, 72, 75
1, 19327, Note_on_c, 0, 72, 0
1, 19328, Note_on_c, 0, 69, 73
1, 19341, Note_on_c, 1, 45, 0
1, 19343, Note_on_c, 0, 69, 0
1, 19344, Note_on_c, 0, 66, 72
1, 19359, Note_on_c, 0, 66, 0
1, 19360, Note_on_c, 0, 60, 71
1, 19375, Note_on_c, 0, 60, 0
1, 19376, Note_on_c, 0, 57, 70
1, 19391, Note_on_c, 0, 57, 0
1, 19392, Note_on_c, 0, 54, 69
1, 19392, Note_on_c, 1, 47, 64
1, 19426, Note_on_c, 0, 54, 0
1, 19428, Note_on_c, 0, 63, 64
1, 19428, Note_on_c, 0, 57, 64
1, 19437, Note_on_c, 1, 47, 0
1, 19440, Note_on_c, 0, 63, 0
1, 19440, Note_on_c, 0, 57, 0
1, 19440, Note_on_c, 0, 63, 64
1, 19440, Note_on_c, 0, 57, 64
1, 19440, Note_on_c, 1, 40, 64
1, 19536, Note_on_c, 0, 63, 0
1, 19536, Note_on_c, 0, 57, 0
1, 19536, Note_on_c, 0, 64, 58
1, 19536, Note_on_c, 0, 55, 58
1, 19556, Note_on_c, 0, 64, 0
1, 19556, Note_on_c, 0, 55, 0
1, 19573, Note_on_c, 1, 40, 0
1, 19584, Note_on_c, 1, 40, 0
1, 19673, Note_on_c, 1, 40, 0
1, 19683, End_track
0, 0, End_of_file