0, 0, Header, 0, 1, 96
1, 0, Start_track
1, 0, Tempo, 428571
1, 144, Note_on_c, 0, 72, 64
1, 189, Note_on_c, 0, 72, 0
1, 192, Note_on_c, 0, 77, 64
1, 192, Note_on_c, 1, 69, 64
1, 192, Note_on_c, 1, 65, 64
1, 215, Note_on_c, 0, 77, 0
1, 216, Note_on_c, 0, 72, 64
1, 239, Note_on_c, 0, 72, 0
1, 240, Note_on_c, 0, 77, 64
1, 263, Note_on_c, 0, 77, 0
1, 264, Note_on_c, 0, 72, 64
1, 281, Note_on_c, 1, 69, 0
1, 281, Note_on_c, 1, 65, 0
1, 287, Note_on_c, 0, 72, 0
1, 288, Note_on_c, 0, 81, 64
1, 311, Note_on_c, 0, 81, 0
1, 312, Note_on_c, 0, 77, 64
1, 335, Note_on_c, 0, 77, 0
1, 336, Note_on_c, 0, 81, 64
1, 359, Note_on_c, 0, 81, 0
1, 360, Note_on_c, 0, 77, 64
1, 383, Note_on_c, 0, 77, 0
1, 384, Note_on_c, 0, 84, 64
1, 384, Note_on_c, 1, 69, 63
1, 384, Note_on_c, 1, 65, 63
1, 429, Note_on_c, 1, 69, 0
1, 429, Note_on_c, 1, 65, 0
1, 432, Note_on_c, 1, 69, 63
1, 432, Note_on_c, 1, 65, 63
1, 473, Note_on_c, 0, 84, 0
1, 477, Note_on_c, 1, 69, 0
1, 477, Note_on_c, 1, 65, 0
1, 480, Note_on_c, 0, 82, 64
1, 480, Note_on_c, 1, 69, 63
1, 480, Note_on_c, 1, 65, 63
1, 503, Note_on_c, 0, 82, 0
1, 504, Note_on_c, 0, 81, 64
1, 525, Note_on_c, 1, 69, 0
1, 525, Note_on_c, 1, 65, 0
1, 527, Note_on_c, 0, 81, 0
1, 528, Note_on_c, 0, 79, 64
1, 528, Note_on_c, 1, 69, 63
1, 528, Note_on_c, 1, 65, 63
1, 551, Note_on_c, 0, 79, 0
1, 552, Note_on_c, 0, 77, 64
1, 573, Note_on_c, 1, 69, 0
1, 573, Note_on_c, 1, 65, 0
1, 575, Note_on_c, 0, 77, 0
1, 576, Note_on_c, 0, 76, 64
1, 576, Note_on_c, 1, 67, 63
1, 576, Note_on_c, 1, 60, 63
1, 599, Note_on_c, 0, 76, 0
1, 600, Note_on_c, 0, 77, 64
1, 621, Note_on_c, 1, 67, 0
1, 621, Note_on_c, 1, 60, 0
1, 623, Note_on_c, 0, 77, 0
1, 624, Note_on_c, 0, 79, 64
1, 624, Note_on_c, 1, 67, 63
1, 624, Note_on_c, 1, 60, 63
1, 647, Note_on_c, 0, 79, 0
1, 648, Note_on_c, 0, 76, 64
1, 669, Note_on_c, 1, 67, 0
1, 669, Note_on_c, 1, 60, 0
1, 671, Note_on_c, 0, 76, 0
1, 672, Note_on_c, 0, 72, 64
1, 672, Note_on_c, 1, 67, 63
1, 672, Note_on_c, 1, 60, 63
1, 717, Note_on_c, 0, 72, 0
1, 717, Note_on_c, 1, 67, 0
1, 717, Note_on_c, 1, 60, 0
1, 720, Note_on_c, 0, 82, 64
1, 720, Note_on_c, 0, 79, 64
1, 720, Note_on_c, 1, 67, 63
1, 720, Note_on_c, 1, 60, 63
1, 740, Note_on_c, 0, 82, 0
1, 740, Note_on_c, 0, 79, 0
1, 765, Note_on_c, 1, 67, 0
1, 765, Note_on_c, 1, 60, 0
1, 768, Note_on_c, 0, 82, 64
1, 768, Note_on_c, 0, 79, 64
1, 768, Note_on_c, 1, 65, 76
1, 813, Note_on_c, 1, 65, 0
1, 816, Note_on_c, 1, 60, 76
1, 861, Note_on_c, 1, 60, 0
1, 864, Note_on_c, 0, 82, 0
1, 864, Note_on_c, 0, 79, 0
1, 864, Note_on_c, 0, 81, 64
1, 864, Note_on_c, 0, 77, 64
1, 864, Note_on_c, 1, 53, 76
1, 909, Note_on_c, 0, 81, 0
1, 909, Note_on_c, 0, 77, 0
1, 912, Note_on_c, 0, 72, 64
1, 953, Note_on_c, 1, 53, 0
1, 957, Note_on_c, 0, 72, 0
1, 960, Note_on_c, 0, 77, 64
1, 960, Note_on_c, 1, 69, 76
1, 960, Note_on_c, 1, 65, 76
1, 983, Note_on_c, 0, 77, 0
1, 984, Note_on_c, 0, 72, 64
1, 1007, Note_on_c, 0, 72, 0
1, 1008, Note_on_c, 0, 77, 64
1, 1031, Note_on_c, 0, 77, 0
1, 1032, Note_on_c, 0, 72, 64
1, 1049, Note_on_c, 1, 69, 0
1, 1049, Note_on_c, 1, 65, 0
1, 1055, Note_on_c, 0, 72, 0
1, 1056, Note_on_c, 0, 81, 64
1, 1079, Note_on_c, 0, 81, 0
1, 1080, Note_on_c, 0, 77, 64
1, 1103, Note_on_c, 0, 77, 0
1, 1104, Note_on_c, 0, 81, 64
1, 1127, Note_on_c, 0, 81, 0
1, 1128, Note_on_c, 0, 77, 64
1, 1151, Note_on_c, 0, 77, 0
1, 1152, Note_on_c, 0, 84, 64
1, 1152, Note_on_c, 1, 69, 63
1, 1152, Note_on_c, 1, 65, 63
1, 1197, Note_on_c, 1, 69, 0
1, 1197, Note_on_c, 1, 65, 0
1, 1200, Note_on_c, 1, 69, 63
1, 1200, Note_on_c, 1, 65, 63
1, 1241, Note_on_c, 0, 84, 0
1, 1245, Note_on_c, 1, 69, 0
1, 1245, Note_on_c, 1, 65, 0
1, 1248, Note_on_c, 0, 82, 64
1, 1248, Note_on_c, 1, 69, 63
1, 1248, Note_on_c, 1, 65, 63
1, 1271, Note_on_c, 0, 82, 0
1, 1272, Note_on_c, 0, 81, 64
1, 1293, Note_on_c, 1, 69, 0
1, 1293, Note_on_c, 1, 65, 0
1, 1295, Note_on_c, 0, 81, 0
1, 1296, Note_on_c, 0, 79, 64
1, 1296, Note_on_c, 1, 69, 63
1, 1296, Note_on_c, 1, 65, 63
1, 1319, Note_on_c, 0, 79, 0
1, 1320, Note_on_c, 0, 77, 64
1, 1341, Note_on_c, 1, 69, 0
1, 1341, Note_on_c, 1, 65, 0
1, 1343, Note_on_c, 0, 77, 0
1, 1344, Note_on_c, 0, 79, 64
1, 1344, Note_on_c, 1, 67, 76
1, 1344, Note_on_c, 1, 58, 76
1, 1367, Note_on_c, 0, 79, 0
1, 1368, Note_on_c, 0, 81, 64
1, 1391, Note_on_c, 0, 81, 0
1, 1392, Note_on_c, 0, 82, 64
1, 1415, Note_on_c, 0, 82, 0
1, 1416, Note_on_c, 0, 79, 64
1, 1433, Note_on_c, 1, 67, 0
1, 1433, Note_on_c, 1, 58, 0
1, 1439, Note_on_c, 0, 79, 0
1, 1440, Note_on_c, 0, 77, 64
1, 1440, Note_on_c, 1, 67, 76
1, 1440, Note_on_c, 1, 60, 76
1, 1463, Note_on_c, 0, 77, 0
1, 1464, Note_on_c, 0, 76, 64
1, 1487, Note_on_c, 0, 76, 0
1, 1488, Note_on_c, 0, 74, 64
1, 1511, Note_on_c, 0, 74, 0
1, 1512, Note_on_c, 0, 72, 64
1, 1529, Note_on_c, 1, 67, 0
1, 1529, Note_on_c, 1, 60, 0
1, 1535, Note_on_c, 0, 72, 0
1, 1536, Note_on_c, 0, 77, 64
1, 1536, Note_on_c, 1, 65, 76
1, 1625, Note_on_c, 0, 77, 0
1, 1625, Note_on_c, 1, 65, 0
1, 1680, Note_on_c, 0, 72, 64
1, 1725, Note_on_c, 0, 72, 0
1, 1728, Note_on_c, 0, 77, 64
1, 1728, Note_on_c, 1, 69, 64
1, 1728, Note_on_c, 1, 65, 64
1, 1751, Note_on_c, 0, 77, 0
1, 1752, Note_on_c, 0, 72, 64
1, 1775, Note_on_c, 0, 72, 0
1, 1776, Note_on_c, 0, 77, 64
1, 1799, Note_on_c, 0, 77, 0
1, 1800, Note_on_c, 0, 72, 64
1, 1817, Note_on_c, 1, 69, 0
1, 1817, Note_on_c, 1, 65, 0
1, 1823, Note_on_c, 0, 72, 0
1, 1824, Note_on_c, 0, 81, 64
1, 1847, Note_on_c, 0, 81, 0
1, 1848, Note_on_c, 0, 77, 64
1, 1871, Note_on_c, 0, 77, 0
1, 1872, Note_on_c, 0, 81, 64
1, 1895, Note_on_c, 0, 81, 0
1, 1896, Note_on_c, 0, 77, 64
1, 1919, Note_on_c, 0, 77, 0
1, 1920, Note_on_c, 0, 84, 64
1, 1920, Note_on_c, 1, 69, 63
1, 1920, Note_on_c, 1, 65, 63
1, 1965, Note_on_c, 1, 69, 0
1, 1965, Note_on_c, 1, 65, 0
1, 1968, Note_on_c, 1, 69, 63
1, 1968, Note_on_c, 1, 65, 63
1, 2009, Note_on_c, 0, 84, 0
1, 2013, Note_on_c, 1, 69, 0
1, 2013, Note_on_c, 1, 65, 0
1, 2016, Note_on_c, 0, 82, 64
1, 2016, Note_on_c, 1, 69, 63
1, 2016, Note_on_c, 1, 65, 63
1, 2039, Note_on_c, 0, 82, 0
1, 2040, Note_on_c, 0, 81, 64
1, 2061, Note_on_c, 1, 69, 0
1, 2061, Note_on_c, 1, 65, 0
1, 2063, Note_on_c, 0, 81, 0
1, 2064, Note_on_c, 0, 79, 64
1, 2064, Note_on_c, 1, 69, 63
1, 2064, Note_on_c, 1, 65, 63
1, 2087, Note_on_c, 0, 79, 0
1, 2088, Note_on_c, 0, 77, 64
1, 2109, Note_on_c, 1, 69, 0
1, 2109, Note_on_c, 1, 65, 0
1, 2111, Note_on_c, 0, 77, 0
1, 2112, Note_on_c, 0, 76, 64
1, 2112, Note_on_c, 1, 67, 63
1, 2112, Note_on_c, 1, 60, 63
1, 2135, Note_on_c, 0, 76, 0
1, 2136, Note_on_c, 0, 77, 64
1, 2157, Note_on_c, 1, 67, 0
1, 2157, Note_on_c, 1, 60, 0
1, 2159, Note_on_c, 0, 77, 0
1, 2160, Note_on_c, 0, 79, 64
1, 2160, Note_on_c, 1, 67, 63
1, 2160, Note_on_c, 1, 60, 63
1, 2183, Note_on_c, 0, 79, 0
1, 2184, Note_on_c, 0, 76, 64
1, 2205, Note_on_c, 1, 67, 0
1, 2205, Note_on_c, 1, 60, 0
1, 2207, Note_on_c, 0, 76, 0
1, 2208, Note_on_c, 0, 72, 64
1, 2208, Note_on_c, 1, 67, 63
1, 2208, Note_on_c, 1, 60, 63
1, 2253, Note_on_c, 0, 72, 0
1, 2253, Note_on_c, 1, 67, 0
1, 2253, Note_on_c, 1, 60, 0
1, 2256, Note_on_c, 0, 82, 64
1, 2256, Note_on_c, 0, 79, 64
1, 2256, Note_on_c, 1, 67, 63
1, 2256, Note_on_c, 1, 60, 63
1, 2276, Note_on_c, 0, 82, 0
1, 2276, Note_on_c, 0, 79, 0
1, 2301, Note_on_c, 1, 67, 0
1, 2301, Note_on_c, 1, 60, 0
1, 2304, Note_on_c, 0, 82, 64
1, 2304, Note_on_c, 0, 79, 64
1, 2304, Note_on_c, 1, 65, 76
1, 2349, Note_on_c, 1, 65, 0
1, 2352, Note_on_c, 1, 60, 76
1, 2397, Note_on_c, 1, 60, 0
1, 2400, Note_on_c, 0, 82, 0
1, 2400, Note_on_c, 0, 79, 0
1, 2400, Note_on_c, 0, 81, 64
1, 2400, Note_on_c, 0, 77, 64
1, 2400, Note_on_c, 1, 53, 76
1, 2445, Note_on_c, 0, 81, 0
1, 2445, Note_on_c, 0, 77, 0
1, 2448, Note_on_c, 0, 72, 64
1, 2489, Note_on_c, 1, 53, 0
1, 2493, Note_on_c, 0, 72, 0
1, 2496, Note_on_c, 0, 77, 64
1, 2496, Note_on_c, 1, 69, 76
1, 2496, Note_on_c, 1, 65, 76
1, 2519, Note_on_c, 0, 77, 0
1, 2520, Note_on_c, 0, 72, 64
1, 2543, Note_on_c, 0, 72, 0
1, 2544, Note_on_c, 0, 77, 64
1, 2567, Note_on_c, 0, 77, 0
1, 2568, Note_on_c, 0, 72, 64
1, 2585, Note_on_c, 1, 69, 0
1, 2585, Note_on_c, 1, 65, 0
1, 2591, Note_on_c, 0, 72, 0
1, 2592, Note_on_c, 0, 81, 64
1, 2615, Note_on_c, 0, 81, 0
1, 2616, Note_on_c, 0, 77, 64
1, 2639, Note_on_c, 0, 77, 0
1, 2640, Note_on_c, 0, 81, 64
1, 2663, Note_on_c, 0, 81, 0
1, 2664, Note_on_c, 0, 77, 64
1, 2687, Note_on_c, 0, 77, 0
1, 2688, Note_on_c, 0, 84, 64
1, 2688, Note_on_c, 1, 69, 63
1, 2688, Note_on_c, 1, 65, 63
1, 2733, Note_on_c, 1, 69, 0
1, 2733, Note_on_c, 1, 65, 0
1, 2736, Note_on_c, 1, 69, 63
1, 2736, Note_on_c, 1, 65, 63
1, 2777, Note_on_c, 0, 84, 0
1, 2781, Note_on_c, 1, 69, 0
1, 2781, Note_on_c, 1, 65, 0
1, 2784, Note_on_c, 0, 82, 64
1, 2784, Note_on_c, 1, 69, 63
1, 2784, Note_on_c, 1, 65, 63
1, 2807, Note_on_c, 0, 82, 0
1, 2808, Note_on_c, 0, 81, 64
1, 2829, Note_on_c, 1, 69, 0
1, 2829, Note_on_c, 1, 65, 0
1, 2831, Note_on_c, 0, 81, 0
1, 2832, Note_on_c, 0, 79, 64
1, 2832, Note_on_c, 1, 69, 63
1, 2832, Note_on_c, 1, 65, 63
1, 2855, Note_on_c, 0, 79, 0
1, 2856, Note_on_c, 0, 77, 64
1, 2877, Note_on_c, 1, 69, 0
1, 2877, Note_on_c, 1, 65, 0
1, 2879, Note_on_c, 0, 77, 0
1, 2880, Note_on_c, 0, 79, 64
1, 2880, Note_on_c, 1, 67, 76
1, 2880, Note_on_c, 1, 58, 76
1, 2903, Note_on_c, 0, 79, 0
1, 2904, Note_on_c, 0, 81, 64
1, 2927, Note_on_c, 0, 81, 0
1, 2928, Note_on_c, 0, 82, 64
1, 2951, Note_on_c, 0, 82, 0
1, 2952, Note_on_c, 0, 79, 64
1, 2969, Note_on_c, 1, 67, 0
1, 2969, Note_on_c, 1, 58, 0
1, 2975, Note_on_c, 0, 79, 0
1, 2976, Note_on_c, 0, 77, 64
1, 2976, Note_on_c, 1, 67, 76
1, 2976, Note_on_c, 1, 60, 76
1, 2999, Note_on_c, 0, 77, 0
1, 3000, Note_on_c, 0, 76, 64
1, 3023, Note_on_c, 0, 76, 0
1, 3024, Note_on_c, 0, 74, 64
1, 3047, Note_on_c, 0, 74, 0
1, 3048, Note_on_c, 0, 72, 64
1, 3065, Note_on_c, 1, 67, 0
1, 3065, Note_on_c, 1, 60, 0
1, 3071, Note_on_c, 0, 72, 0
1, 3072, Note_on_c, 0, 77, 64
1, 3072, Note_on_c, 1, 65, 76
1, 3161, Note_on_c, 0, 77, 0
1, 3161, Note_on_c, 1, 65, 0
1, 3216, Note_on_c, 0, 72, 64
1, 3261, Note_on_c, 0, 72, 0
1, 3264, Note_on_c, 0, 82, 76
1, 3264, Note_on_c, 1, 52, 63
1, 3287, Note_on_c, 1, 52, 0
1, 3288, Note_on_c, 1, 60, 63
1, 3309, Note_on_c, 0, 82, 0
1, 3311, Note_on_c, 1, 60, 0
1, 3312, Note_on_c, 0, 82, 76
1, 3312, Note_on_c, 1, 52, 63
1, 3335, Note_on_c, 1, 52, 0
1, 3336, Note_on_c, 1, 60, 63
1, 3357, Note_on_c, 0, 82, 0
1, 3359, Note_on_c, 1, 60, 0
1, 3360, Note_on_c, 0, 82, 76
1, 3360, Note_on_c, 1, 52, 64
1, 3383, Note_on_c, 1, 52, 0
1, 3384, Note_on_c, 1, 60, 64
1, 3405, Note_on_c, 0, 82, 0
1, 3407, Note_on_c, 1, 60, 0
1, 3408, Note_on_c, 0, 86, 76
1, 3408, Note_on_c, 1, 52, 65
1, 3431, Note_on_c, 0, 86, 0
1, 3431, Note_on_c, 1, 52, 0
1, 3432, Note_on_c, 0, 82, 77
1, 3432, Note_on_c, 1, 60, 65
1, 3455, Note_on_c, 0, 82, 0
1, 3455, Note_on_c, 1, 60, 0
1, 3456, Note_on_c, 0, 81, 77
1, 3456, Note_on_c, 1, 53, 66
1, 3479, Note_on_c, 1, 53, 0
1, 3480, Note_on_c, 1, 60, 66
1, 3503, Note_on_c, 1, 60, 0
1, 3504, Note_on_c, 1, 53, 66
1, 3527, Note_on_c, 1, 53, 0
1, 3528, Note_on_c, 1, 60, 67
1, 3545, Note_on_c, 0, 81, 0
1, 3551, Note_on_c, 1, 60, 0
1, 3552, Note_on_c, 1, 53, 67
1, 3575, Note_on_c, 1, 53, 0
1, 3576, Note_on_c, 1, 60, 68
1, 3599, Note_on_c, 1, 60, 0
1, 3600, Note_on_c, 0, 84, 78
1, 3600, Note_on_c, 1, 53, 68
1, 3623, Note_on_c, 1, 53, 0
1, 3624, Note_on_c, 1, 60, 69
1, 3645, Note_on_c, 0, 84, 0
1, 3647, Note_on_c, 1, 60, 0
1, 3648, Note_on_c, 0, 76, 78
1, 3648, Note_on_c, 1, 55, 69
1, 3671, Note_on_c, 1, 55, 0
1, 3672, Note_on_c, 1, 60, 70
1, 3693, Note_on_c, 0, 76, 0
1, 3695, Note_on_c, 1, 60, 0
1, 3696, Note_on_c, 0, 76, 78
1, 3696, Note_on_c, 1, 55, 70
1, 3719, Note_on_c, 1, 55, 0
1, 3720, Note_on_c, 1, 60, 70
1, 3741, Note_on_c, 0, 76, 0
1, 3743, Note_on_c, 1, 60, 0
1, 3744, Note_on_c, 0, 76, 79
1, 3744, Note_on_c, 1, 55, 71
1, 3767, Note_on_c, 1, 55, 0
1, 3768, Note_on_c, 1, 60, 71
1, 3789, Note_on_c, 0, 76, 0
1, 3791, Note_on_c, 1, 60, 0
1, 3792, Note_on_c, 0, 79, 79
1, 3792, Note_on_c, 1, 55, 72
1, 3815, Note_on_c, 0, 79, 0
1, 3815, Note_on_c, 1, 55, 0
1, 3816, Note_on_c, 0, 76, 79
1, 3816, Note_on_c, 1, 60, 72
1, 3839, Note_on_c, 0, 76, 0
1, 3839, Note_on_c, 1, 60, 0
1, 3840, Note_on_c, 0, 77, 79
1, 3840, Note_on_c, 1, 57, 73
1, 3863, Note_on_c, 1, 57, 0
1, 3864, Note_on_c, 1, 60, 73
1, 3887, Note_on_c, 1, 60, 0
1, 3888, Note_on_c, 1, 57, 74
1, 3911, Note_on_c, 1, 57, 0
1, 3912, Note_on_c, 1, 60, 74
1, 3929, Note_on_c, 0, 77, 0
1, 3935, Note_on_c, 1, 60, 0
1, 3936, Note_on_c, 1, 57, 74
1, 3959, Note_on_c, 1, 57, 0
1, 3960, Note_on_c, 1, 60, 75
1, 3983, Note_on_c, 1, 60, 0
1, 3984, Note_on_c, 0, 72, 80
1, 3984, Note_on_c, 1, 57, 75
1, 4007, Note_on_c, 1, 57, 0
1, 4008, Note_on_c, 1, 60, 76
1, 4029, Note_on_c, 0, 72, 0
1, 4031, Note_on_c, 1, 60, 0
1, 4032, Note_on_c, 0, 79, 80
1, 4032, Note_on_c, 1, 52, 76
1, 4055, Note_on_c, 1, 52, 0
1, 4056, Note_on_c, 1, 60, 77
1, 4077, Note_on_c, 0, 79, 0
1, 4079, Note_on_c, 1, 60, 0
1, 4080, Note_on_c, 0, 79, 81
1, 4080, Note_on_c, 1, 52, 77
1, 4103, Note_on_c, 1, 52, 0
1, 4104, Note_on_c, 1, 60, 78
1, 4125, Note_on_c, 0, 79, 0
1, 4127, Note_on_c, 1, 60, 0
1, 4128, Note_on_c, 0, 79, 81
1, 4128, Note_on_c, 1, 52, 78
1, 4151, Note_on_c, 1, 52, 0
1, 4152, Note_on_c, 1, 60, 78
1, 4173, Note_on_c, 0, 79, 0
1, 4175, Note_on_c, 1, 60, 0
1, 4176, Note_on_c, 0, 67, 81
1, 4176, Note_on_c, 1, 52, 79
1, 4199, Note_on_c, 0, 67, 0
1, 4199, Note_on_c, 1, 52, 0
1, 4200, Note_on_c, 0, 70, 81
1, 4200, Note_on_c, 1, 60, 79
1, 4223, Note_on_c, 0, 70, 0
1, 4223, Note_on_c, 1, 60, 0
1, 4224, Note_on_c, 0, 69, 82
1, 4224, Note_on_c, 1, 53, 80
1, 4247, Note_on_c, 0, 69, 0
1, 4248, Note_on_c, 0, 72, 82
1, 4271, Note_on_c, 0, 72, 0
1, 4272, Note_on_c, 0, 70, 82
1, 4295, Note_on_c, 0, 70, 0
1, 4296, Note_on_c, 0, 69, 82
1, 4313, Note_on_c, 1, 53, 0
1, 4319, Note_on_c, 0, 69, 0
1, 4320, Note_on_c, 0, 67, 82
1, 4343, Note_on_c, 0, 67, 0
1, 4344, Note_on_c, 0, 65, 82
1, 4367, Note_on_c, 0, 65, 0
1, 4368, Note_on_c, 0, 64, 82
1, 4391, Note_on_c, 0, 64, 0
1, 4392, Note_on_c, 0, 65, 82
1, 4415, Note_on_c, 0, 65, 0
1, 4416, Note_on_c, 0, 62, 82
1, 4416, Note_on_c, 1, 58, 82
1, 4439, Note_on_c, 0, 62, 0
1, 4440, Note_on_c, 0, 70, 82
1, 4463, Note_on_c, 0, 70, 0
1, 4464, Note_on_c, 0, 74, 82
1, 4487, Note_on_c, 0, 74, 0
1, 4488, Note_on_c, 0, 72, 82
1, 4505, Note_on_c, 1, 58, 0
1, 4511, Note_on_c, 0, 72, 0
1, 4512, Note_on_c, 0, 70, 82
1, 4535, Note_on_c, 0, 70, 0
1, 4536, Note_on_c, 0, 69, 82
1, 4559, Note_on_c, 0, 69, 0
1, 4560, Note_on_c, 0, 67, 82
1, 4560, Note_on_c, 1, 59, 82
1, 4583, Note_on_c, 0, 67, 0
1, 4584, Note_on_c, 0, 65, 82
1, 4605, Note_on_c, 1, 59, 0
1, 4607, Note_on_c, 0, 65, 0
1, 4608, Note_on_c, 0, 64, 82
1, 4608, Note_on_c, 1, 60, 82
1, 4653, Note_on_c, 1, 60, 0
1, 4656, Note_on_c, 1, 55, 82
1, 4697, Note_on_c, 0, 64, 0
1, 4701, Note_on_c, 1, 55, 0
1, 4704, Note_on_c, 1, 48, 82
1, 4749, Note_on_c, 1, 48, 0
1, 4752, Note_on_c, 0, 72, 76
1, 4797, Note_on_c, 0, 72, 0
1, 4800, Note_on_c, 0, 77, 76
1, 4800, Note_on_c, 1, 69, 76
1, 4800, Note_on_c, 1, 65, 76
1, 4823, Note_on_c, 0, 77, 0
1, 4824, Note_on_c, 0, 72, 76
1, 4847, Note_on_c, 0, 72, 0
1, 4848, Note_on_c, 0, 77, 76
1, 4871, Note_on_c, 0, 77, 0
1, 4872, Note_on_c, 0, 72, 76
1, 4889, Note_on_c, 1, 69, 0
1, 4889, Note_on_c, 1, 65, 0
1, 4895, Note_on_c, 0, 72, 0
1, 4896, Note_on_c, 0, 81, 76
1, 4919, Note_on_c, 0, 81, 0
1, 4920, Note_on_c, 0, 77, 76
1, 4943, Note_on_c, 0, 77, 0
1, 4944, Note_on_c, 0, 81, 76
1, 4967, Note_on_c, 0, 81, 0
1, 4968, Note_on_c, 0, 77, 76
1, 4991, Note_on_c, 0, 77, 0
1, 4992, Note_on_c, 0, 84, 76
1, 4992, Note_on_c, 1, 69, 63
1, 4992, Note_on_c, 1, 65, 63
1, 5037, Note_on_c, 1, 69, 0
1, 5037, Note_on_c, 1, 65, 0
1, 5040, Note_on_c, 1, 69, 63
1, 5040, Note_on_c, 1, 65, 63
1, 5081, Note_on_c, 0, 84, 0
1, 5085, Note_on_c, 1, 69, 0
1, 5085, Note_on_c, 1, 65, 0
1, 5088, Note_on_c, 0, 82, 76
1, 5088, Note_on_c, 1, 69, 63
1, 5088, Note_on_c, 1, 65, 63
1, 5111, Note_on_c, 0, 82, 0
1, 5112, Note_on_c, 0, 81, 76
1, 5133, Note_on_c, 1, 69, 0
1, 5133, Note_on_c, 1, 65, 0
1, 5135, Note_on_c, 0, 81, 0
1, 5136, Note_on_c, 0, 79, 76
1, 5136, Note_on_c, 1, 69, 63
1, 5136, Note_on_c, 1, 65, 63
1, 5159, Note_on_c, 0, 79, 0
1, 5160, Note_on_c, 0, 77, 76
1, 5181, Note_on_c, 1, 69, 0
1, 5181, Note_on_c, 1, 65, 0
1, 5183, Note_on_c, 0, 77, 0
1, 5184, Note_on_c, 0, 76, 76
1, 5184, Note_on_c, 1, 67, 63
1, 5184, Note_on_c, 1, 60, 63
1, 5207, Note_on_c, 0, 76, 0
1, 5208, Note_on_c, 0, 77, 76
1, 5229, Note_on_c, 1, 67, 0
1, 5229, Note_on_c, 1, 60, 0
1, 5231, Note_on_c, 0, 77, 0
1, 5232, Note_on_c, 0, 79, 76
1, 5232, Note_on_c, 1, 67, 63
1, 5232, Note_on_c, 1, 60, 63
1, 5255, Note_on_c, 0, 79, 0
1, 5256, Note_on_c, 0, 76, 76
1, 5277, Note_on_c, 1, 67, 0
1, 5277, Note_on_c, 1, 60, 0
1, 5279, Note_on_c, 0, 76, 0
1, 5280, Note_on_c, 0, 72, 76
1, 5280, Note_on_c, 1, 67, 63
1, 5280, Note_on_c, 1, 60, 63
1, 5325, Note_on_c, 0, 72, 0
1, 5325, Note_on_c, 1, 67, 0
1, 5325, Note_on_c, 1, 60, 0
1, 5328, Note_on_c, 0, 82, 76
1, 5328, Note_on_c, 0, 79, 76
1, 5328, Note_on_c, 1, 67, 63
1, 5328, Note_on_c, 1, 60, 63
1, 5348, Note_on_c, 0, 82, 0
1, 5348, Note_on_c, 0, 79, 0
1, 5373, Note_on_c, 1, 67, 0
1, 5373, Note_on_c, 1, 60, 0
1, 5376, Note_on_c, 0, 82, 76
1, 5376, Note_on_c, 0, 79, 76
1, 5376, Note_on_c, 1, 65, 76
1, 5421, Note_on_c, 1, 65, 0
1, 5424, Note_on_c, 1, 60, 76
1, 5469, Note_on_c, 1, 60, 0
1, 5472, Note_on_c, 0, 82, 0
1, 5472, Note_on_c, 0, 79, 0
1, 5472, Note_on_c, 0, 81, 76
1, 5472, Note_on_c, 0, 77, 76
1, 5472, Note_on_c, 1, 53, 76
1, 5517, Note_on_c, 0, 81, 0
1, 5517, Note_on_c, 0, 77, 0
1, 5520, Note_on_c, 0, 72, 76
1, 5561, Note_on_c, 1, 53, 0
1, 5565, Note_on_c, 0, 72, 0
1, 5568, Note_on_c, 0, 77, 76
1, 5568, Note_on_c, 1, 69, 76
1, 5568, Note_on_c, 1, 65, 76
1, 5591, Note_on_c, 0, 77, 0
1, 5592, Note_on_c, 0, 72, 76
1, 5615, Note_on_c, 0, 72, 0
1, 5616, Note_on_c, 0, 77, 76
1, 5639, Note_on_c, 0, 77, 0
1, 5640, Note_on_c, 0, 72, 76
1, 5657, Note_on_c, 1, 69, 0
1, 5657, Note_on_c, 1, 65, 0
1, 5663, Note_on_c, 0, 72, 0
1, 5664, Note_on_c, 0, 81, 76
1, 5687, Note_on_c, 0, 81, 0
1, 5688, Note_on_c, 0, 77, 76
1, 5711, Note_on_c, 0, 77, 0
1, 5712, Note_on_c, 0, 81, 76
1, 5735, Note_on_c, 0, 81, 0
1, 5736, Note_on_c, 0, 77, 76
1, 5759, Note_on_c, 0, 77, 0
1, 5760, Note_on_c, 0, 84, 76
1, 5760, Note_on_c, 1, 69, 63
1, 5760, Note_on_c, 1, 65, 63
1, 5805, Note_on_c, 1, 69, 0
1, 5805, Note_on_c, 1, 65, 0
1, 5808, Note_on_c, 1, 69, 63
1, 5808, Note_on_c, 1, 65, 63
1, 5849, Note_on_c, 0, 84, 0
1, 5853, Note_on_c, 1, 69, 0
1, 5853, Note_on_c, 1, 65, 0
1, 5856, Note_on_c, 0, 82, 76
1, 5856, Note_on_c, 1, 69, 63
1, 5856, Note_on_c, 1, 65, 63
1, 5879, Note_on_c, 0, 82, 0
1, 5880, Note_on_c, 0, 81, 76
1, 5901, Note_on_c, 1, 69, 0
1, 5901, Note_on_c, 1, 65, 0
1, 5903, Note_on_c, 0, 81, 0
1, 5904, Note_on_c, 0, 79, 76
1, 5904, Note_on_c, 1, 69, 63
1, 5904, Note_on_c, 1, 65, 63
1, 5927, Note_on_c, 0, 79, 0
1, 5928, Note_on_c, 0, 77, 76
1, 5949, Note_on_c, 1, 69, 0
1, 5949, Note_on_c, 1, 65, 0
1, 5951, Note_on_c, 0, 77, 0
1, 5952, Note_on_c, 0, 79, 76
1, 5952, Note_on_c, 1, 67, 76
1, 5952, Note_on_c, 1, 58, 76
1, 5975, Note_on_c, 0, 79, 0
1, 5976, Note_on_c, 0, 81, 76
1, 5999, Note_on_c, 0, 81, 0
1, 6000, Note_on_c, 0, 82, 76
1, 6023, Note_on_c, 0, 82, 0
1, 6024, Note_on_c, 0, 79, 76
1, 6041, Note_on_c, 1, 67, 0
1, 6041, Note_on_c, 1, 58, 0
1, 6047, Note_on_c, 0, 79, 0
1, 6048, Note_on_c, 0, 77, 76
1, 6048, Note_on_c, 1, 67, 76
1, 6048, Note_on_c, 1, 60, 76
1, 6071, Note_on_c, 0, 77, 0
1, 6072, Note_on_c, 0, 76, 76
1, 6095, Note_on_c, 0, 76, 0
1, 6096, Note_on_c, 0, 74, 76
1, 6119, Note_on_c, 0, 74, 0
1, 6120, Note_on_c, 0, 72, 76
1, 6137, Note_on_c, 1, 67, 0
1, 6137, Note_on_c, 1, 60, 0
1, 6143, Note_on_c, 0, 72, 0
1, 6144, Note_on_c, 0, 77, 76
1, 6144, Note_on_c, 1, 65, 76
1, 6144, Note_on_c, 1, 53, 76
1, 6233, Note_on_c, 0, 77, 0
1, 6233, Note_on_c, 1, 65, 0
1, 6233, Note_on_c, 1, 53, 0
1, 6288, Note_on_c, 0, 72, 76
1, 6333, Note_on_c, 0, 72, 0
1, 6336, Note_on_c, 0, 82, 76
1, 6336, Note_on_c, 1, 52, 63
1, 6359, Note_on_c, 1, 52, 0
1, 6360, Note_on_c, 1, 60, 63
1, 6381, Note_on_c, 0, 82, 0
1, 6383, Note_on_c, 1, 60, 0
1, 6384, Note_on_c, 0, 82, 76
1, 6384, Note_on_c, 1, 52, 63
1, 6407, Note_on_c, 1, 52, 0
1, 6408, Note_on_c, 1, 60, 63
1, 6429, Note_on_c, 0, 82, 0
1, 6431, Note_on_c, 1, 60, 0
1, 6432, Note_on_c, 0, 82, 76
1, 6432, Note_on_c, 1, 52, 64
1, 6455, Note_on_c, 1, 52, 0
1, 6456, Note_on_c, 1, 60, 64
1, 6477, Note_on_c, 0, 82, 0
1, 6479, Note_on_c, 1, 60, 0
1, 6480, Note_on_c, 0, 86, 76
1, 6480, Note_on_c, 1, 52, 65
1, 6503, Note_on_c, 0, 86, 0
1, 6503, Note_on_c, 1, 52, 0
1, 6504, Note_on_c, 0, 82, 77
1, 6504, Note_on_c, 1, 60, 65
1, 6527, Note_on_c, 0, 82, 0
1, 6527, Note_on_c, 1, 60, 0
1, 6528, Note_on_c, 0, 81, 77
1, 6528, Note_on_c, 1, 53, 66
1, 6551, Note_on_c, 1, 53, 0
1, 6552, Note_on_c, 1, 60, 66
1, 6575, Note_on_c, 1, 60, 0
1, 6576, Note_on_c, 1, 53, 66
1, 6599, Note_on_c, 1, 53, 0
1, 6600, Note_on_c, 1, 60, 67
1, 6617, Note_on_c, 0, 81, 0
1, 6623, Note_on_c, 1, 60, 0
1, 6624, Note_on_c, 1, 53, 67
1, 6647, Note_on_c, 1, 53, 0
1, 6648, Note_on_c, 1, 60, 68
1, 6671, Note_on_c, 1, 60, 0
1, 6672, Note_on_c, 0, 84, 78
1, 6672, Note_on_c, 1, 53, 68
1, 6695, Note_on_c, 1, 53, 0
1, 6696, Note_on_c, 1, 60, 69
1, 6717, Note_on_c, 0, 84, 0
1, 6719, Note_on_c, 1, 60, 0
1, 6720, Note_on_c, 0, 76, 78
1, 6720, Note_on_c, 1, 55, 69
1, 6743, Note_on_c, 1, 55, 0
1, 6744, Note_on_c, 1, 60, 70
1, 6765, Note_on_c, 0, 76, 0
1, 6767, Note_on_c, 1, 60, 0
1, 6768, Note_on_c, 0, 76, 78
1, 6768, Note_on_c, 1, 55, 70
1, 6791, Note_on_c, 1, 55, 0
1, 6792, Note_on_c, 1, 60, 70
1, 6813, Note_on_c, 0, 76, 0
1, 6815, Note_on_c, 1, 60, 0
1, 6816, Note_on_c, 0, 76, 79
1, 6816, Note_on_c, 1, 55, 71
1, 6839, Note_on_c, 1, 55, 0
1, 6840, Note_on_c, 1, 60, 71
1, 6861, Note_on_c, 0, 76, 0
1, 6863, Note_on_c, 1, 60, 0
1, 6864, Note_on_c, 0, 79, 79
1, 6864, Note_on_c, 1, 55, 72
1, 6887, Note_on_c, 0, 79, 0
1, 6887, Note_on_c, 1, 55, 0
1, 6888, Note_on_c, 0, 76, 79
1, 6888, Note_on_c, 1, 60, 72
1, 6911, Note_on_c, 0, 76, 0
1, 6911, Note_on_c, 1, 60, 0
1, 6912, Note_on_c, 0, 77, 79
1, 6912, Note_on_c, 1, 57, 73
1, 6935, Note_on_c, 1, 57, 0
1, 6936, Note_on_c, 1, 60, 73
1, 6959, Note_on_c, 1, 60, 0
1, 6960, Note_on_c, 1, 57, 74
1, 6983, Note_on_c, 1, 57, 0
1, 6984, Note_on_c, 1, 60, 74
1, 7001, Note_on_c, 0, 77, 0
1, 7007, Note_on_c, 1, 60, 0
1, 7008, Note_on_c, 1, 57, 74
1, 7031, Note_on_c, 1, 57, 0
1, 7032, Note_on_c, 1, 60, 75
1, 7055, Note_on_c, 1, 60, 0
1, 7056, Note_on_c, 0, 72, 80
1, 7056, Note_on_c, 1, 57, 75
1, 7079, Note_on_c, 1, 57, 0
1, 7080, Note_on_c, 1, 60, 76
1, 7101, Note_on_c, 0, 72, 0
1, 7103, Note_on_c, 1, 60, 0
1, 7104, Note_on_c, 0, 79, 80
1, 7104, Note_on_c, 1, 52, 76
1, 7127, Note_on_c, 1, 52, 0
1, 7128, Note_on_c, 1, 60, 77
1, 7149, Note_on_c, 0, 79, 0
1, 7151, Note_on_c, 1, 60, 0
1, 7152, Note_on_c, 0, 79, 81
1, 7152, Note_on_c, 1, 52, 77
1, 7175, Note_on_c, 1, 52, 0
1, 7176, Note_on_c, 1, 60, 78
1, 7197, Note_on_c, 0, 79, 0
1, 7199, Note_on_c, 1, 60, 0
1, 7200, Note_on_c, 0, 79, 81
1, 7200, Note_on_c, 1, 52, 78
1, 7223, Note_on_c, 1, 52, 0
1, 7224, Note_on_c, 1, 60, 78
1, 7245, Note_on_c, 0, 79, 0
1, 7247, Note_on_c, 1, 60, 0
1, 7248, Note_on_c, 0, 67, 81
1, 7248, Note_on_c, 1, 52, 79
1, 7271, Note_on_c, 0, 67, 0
1, 7271, Note_on_c, 1, 52, 0
1, 7272, Note_on_c, 0, 70, 81
1, 7272, Note_on_c, 1, 60, 79
1, 7295, Note_on_c, 0, 70, 0
1, 7295, Note_on_c, 1, 60, 0
1, 7296, Note_on_c, 0, 69, 82
1, 7296, Note_on_c, 1, 53, 80
1, 7319, Note_on_c, 0, 69, 0
1, 7320, Note_on_c, 0, 72, 82
1, 7343, Note_on_c, 0, 72, 0
1, 7344, Note_on_c, 0, 70, 82
1, 7367, Note_on_c, 0, 70, 0
1, 7368, Note_on_c, 0, 69, 82
1, 7385, Note_on_c, 1, 53, 0
1, 7391, Note_on_c, 0, 69, 0
1, 7392, Note_on_c, 0, 67, 82
1, 7415, Note_on_c, 0, 67, 0
1, 7416, Note_on_c, 0, 65, 82
1, 7439, Note_on_c, 0, 65, 0
1, 7440, Note_on_c, 0, 64, 82
1, 7463, Note_on_c, 0, 64, 0
1, 7464, Note_on_c, 0, 65, 82
1, 7487, Note_on_c, 0, 65, 0
1, 7488, Note_on_c, 0, 62, 82
1, 7488, Note_on_c, 1, 58, 82
1, 7511, Note_on_c, 0, 62, 0
1, 7512, Note_on_c, 0, 70, 82
1, 7535, Note_on_c, 0, 70, 0
1, 7536, Note_on_c, 0, 74, 82
1, 7559, Note_on_c, 0, 74, 0
1, 7560, Note_on_c, 0, 72, 82
1, 7577, Note_on_c, 1, 58, 0
1, 7583, Note_on_c, 0, 72, 0
1, 7584, Note_on_c, 0, 70, 82
1, 7607, Note_on_c, 0, 70, 0
1, 7608, Note_on_c, 0, 69, 82
1, 7631, Note_on_c, 0, 69, 0
1, 7632, Note_on_c, 0, 67, 82
1, 7632, Note_on_c, 1, 59, 82
1, 7655, Note_on_c, 0, 67, 0
1, 7656, Note_on_c, 0, 65, 82
1, 7677, Note_on_c, 1, 59, 0
1, 7679, Note_on_c, 0, 65, 0
1, 7680, Note_on_c, 0, 64, 82
1, 7680, Note_on_c, 1, 60, 82
1, 7725, Note_on_c, 1, 60, 0
1, 7728, Note_on_c, 1, 55, 82
1, 7769, Note_on_c, 0, 64, 0
1, 7773, Note_on_c, 1, 55, 0
1, 7776, Note_on_c, 1, 48, 82
1, 7821, Note_on_c, 1, 48, 0
1, 7824, Note_on_c, 0, 72, 76
1, 7869, Note_on_c, 0, 72, 0
1, 7872, Note_on_c, 0, 77, 76
1, 7872, Note_on_c, 1, 69, 76
1, 7872, Note_on_c, 1, 65, 76
1, 7895, Note_on_c, 0, 77, 0
1, 7896, Note_on_c, 0, 72, 76
1, 7919, Note_on_c, 0, 72, 0
1, 7920, Note_on_c, 0, 77, 76
1, 7943, Note_on_c, 0, 77, 0
1, 7944, Note_on_c, 0, 72, 76
1, 7961, Note_on_c, 1, 69, 0
1, 7961, Note_on_c, 1, 65, 0
1, 7967, Note_on_c, 0, 72, 0
1, 7968, Note_on_c, 0, 81, 76
1, 7991, Note_on_c, 0, 81, 0
1, 7992, Note_on_c, 0, 77, 76
1, 8015, Note_on_c, 0, 77, 0
1, 8016, Note_on_c, 0, 81, 76
1, 8039, Note_on_c, 0, 81, 0
1, 8040, Note_on_c, 0, 77, 76
1, 8063, Note_on_c, 0, 77, 0
1, 8064, Note_on_c, 0, 84, 76
1, 8064, Note_on_c, 1, 69, 63
1, 8064, Note_on_c, 1, 65, 63
1, 8109, Note_on_c, 1, 69, 0
1, 8109, Note_on_c, 1, 65, 0
1, 8112, Note_on_c, 1, 69, 63
1, 8112, Note_on_c, 1, 65, 63
1, 8153, Note_on_c, 0, 84, 0
1, 8157, Note_on_c, 1, 69, 0
1, 8157, Note_on_c, 1, 65, 0
1, 8160, Note_on_c, 0, 82, 76
1, 8160, Note_on_c, 1, 69, 63
1, 8160, Note_on_c, 1, 65, 63
1, 8183, Note_on_c, 0, 82, 0
1, 8184, Note_on_c, 0, 81, 76
1, 8205, Note_on_c, 1, 69, 0
1, 8205, Note_on_c, 1, 65, 0
1, 8207, Note_on_c, 0, 81, 0
1, 8208, Note_on_c, 0, 79, 76
1, 8208, Note_on_c, 1, 69, 63
1, 8208, Note_on_c, 1, 65, 63
1, 8231, Note_on_c, 0, 79, 0
1, 8232, Note_on_c, 0, 77, 76
1, 8253, Note_on_c, 1, 69, 0
1, 8253, Note_on_c, 1, 65, 0
1, 8255, Note_on_c, 0, 77, 0
1, 8256, Note_on_c, 0, 76, 76
1, 8256, Note_on_c, 1, 67, 63
1, 8256, Note_on_c, 1, 60, 63
1, 8279, Note_on_c, 0, 76, 0
1, 8280, Note_on_c, 0, 77, 76
1, 8301, Note_on_c, 1, 67, 0
1, 8301, Note_on_c, 1, 60, 0
1, 8303, Note_on_c, 0, 77, 0
1, 8304, Note_on_c, 0, 79, 76
1, 8304, Note_on_c, 1, 67, 63
1, 8304, Note_on_c, 1, 60, 63
1, 8327, Note_on_c, 0, 79, 0
1, 8328, Note_on_c, 0, 76, 76
1, 8349, Note_on_c, 1, 67, 0
1, 8349, Note_on_c, 1, 60, 0
1, 8351, Note_on_c, 0, 76, 0
1, 8352, Note_on_c, 0, 72, 76
1, 8352, Note_on_c, 1, 67, 63
1, 8352, Note_on_c, 1, 60, 63
1, 8397, Note_on_c, 0, 72, 0
1, 8397, Note_on_c, 1, 67, 0
1, 8397, Note_on_c, 1, 60, 0
1, 8400, Note_on_c, 0, 82, 76
1, 8400, Note_on_c, 0, 79, 76
1, 8400, Note_on_c, 1, 67, 63
1, 8400, Note_on_c, 1, 60, 63
1, 8420, Note_on_c, 0, 82, 0
1, 8420, Note_on_c, 0, 79, 0
1, 8445, Note_on_c, 1, 67, 0
1, 8445, Note_on_c, 1, 60, 0
1, 8448, Note_on_c, 0, 82, 76
1, 8448, Note_on_c, 0, 79, 76
1, 8448, Note_on_c, 1, 65, 76
1, 8493, Note_on_c, 1, 65, 0
1, 8496, Note_on_c, 1, 60, 76
1, 8541, Note_on_c, 1, 60, 0
1, 8544, Note_on_c, 0, 82, 0
1, 8544, Note_on_c, 0, 79, 0
1, 8544, Note_on_c, 0, 81, 76
1, 8544, Note_on_c, 0, 77, 76
1, 8544, Note_on_c, 1, 53, 76
1, 8589, Note_on_c, 0, 81, 0
1, 8589, Note_on_c, 0, 77, 0
1, 8592, Note_on_c, 0, 72, 76
1, 8633, Note_on_c, 1, 53, 0
1, 8637, Note_on_c, 0, 72, 0
1, 8640, Note_on_c, 0, 77, 76
1, 8640, Note_on_c, 1, 69, 76
1, 8640, Note_on_c, 1, 65, 76
1, 8663, Note_on_c, 0, 77, 0
1, 8664, Note_on_c, 0, 72, 76
1, 8687, Note_on_c, 0, 72, 0
1, 8688, Note_on_c, 0, 77, 76
1, 8711, Note_on_c, 0, 77, 0
1, 8712, Note_on_c, 0, 72, 76
1, 8729, Note_on_c, 1, 69, 0
1, 8729, Note_on_c, 1, 65, 0
1, 8735, Note_on_c, 0, 72, 0
1, 8736, Note_on_c, 0, 81, 76
1, 8759, Note_on_c, 0, 81, 0
1, 8760, Note_on_c, 0, 77, 76
1, 8783, Note_on_c, 0, 77, 0
1, 8784, Note_on_c, 0, 81, 76
1, 8807, Note_on_c, 0, 81, 0
1, 8808, Note_on_c, 0, 77, 76
1, 8831, Note_on_c, 0, 77, 0
1, 8832, Note_on_c, 0, 84, 76
1, 8832, Note_on_c, 1, 69, 63
1, 8832, Note_on_c, 1, 65, 63
1, 8877, Note_on_c, 1, 69, 0
1, 8877, Note_on_c, 1, 65, 0
1, 8880, Note_on_c, 1, 69, 63
1, 8880, Note_on_c, 1, 65, 63
1, 8921, Note_on_c, 0, 84, 0
1, 8925, Note_on_c, 1, 69, 0
1, 8925, Note_on_c, 1, 65, 0
1, 8928, Note_on_c, 0, 82, 76
1, 8928, Note_on_c, 1, 69, 63
1, 8928, Note_on_c, 1, 65, 63
1, 8951, Note_on_c, 0, 82, 0
1, 8952, Note_on_c, 0, 81, 76
1, 8973, Note_on_c, 1, 69, 0
1, 8973, Note_on_c, 1, 65, 0
1, 8975, Note_on_c, 0, 81, 0
1, 8976, Note_on_c, 0, 79, 76
1, 8976, Note_on_c, 1, 69, 63
1, 8976, Note_on_c, 1, 65, 63
1, 8999, Note_on_c, 0, 79, 0
1, 9000, Note_on_c, 0, 77, 76
1, 9021, Note_on_c, 1, 69, 0
1, 9021, Note_on_c, 1, 65, 0
1, 9023, Note_on_c, 0, 77, 0
1, 9024, Note_on_c, 0, 79, 76
1, 9024, Note_on_c, 1, 67, 76
1, 9024, Note_on_c, 1, 58, 76
1, 9047, Note_on_c, 0, 79, 0
1, 9048, Note_on_c, 0, 81, 76
1, 9071, Note_on_c, 0, 81, 0
1, 9072, Note_on_c, 0, 82, 76
1, 9095, Note_on_c, 0, 82, 0
1, 9096, Note_on_c, 0, 79, 76
1, 9113, Note_on_c, 1, 67, 0
1, 9113, Note_on_c, 1, 58, 0
1, 9119, Note_on_c, 0, 79, 0
1, 9120, Note_on_c, 0, 77, 76
1, 9120, Note_on_c, 1, 67, 76
1, 9120, Note_on_c, 1, 60, 76
1, 9143, Note_on_c, 0, 77, 0
1, 9144, Note_on_c, 0, 76, 76
1, 9167, Note_on_c, 0, 76, 0
1, 9168, Note_on_c, 0, 74, 76
1, 9191, Note_on_c, 0, 74, 0
1, 9192, Note_on_c, 0, 72, 76
1, 9209, Note_on_c, 1, 67, 0
1, 9209, Note_on_c, 1, 60, 0
1, 9215, Note_on_c, 0, 72, 0
1, 9216, Note_on_c, 0, 77, 76
1, 9216, Note_on_c, 1, 65, 76
1, 9216, Note_on_c, 1, 53, 76
1, 9305, Note_on_c, 0, 77, 0
1, 9305, Note_on_c, 1, 65, 0
1, 9305, Note_on_c, 1, 53, 0
1, 9408, Note_on_c, 1, 65, 0
1, 9497, Note_on_c, 1, 65, 0
1, 9507, End_track
0, 0, End_of_file