0, 0, Header, 0, 1, 96
1, 0, Start_track
1, 0, Tempo, 100000
1, 144, Note_on_c, 0, 81, 69
1, 189, Note_on_c, 0, 81, 0
1, 192, Note_on_c, 1, 74, 69
1, 237, Note_on_c, 1, 74, 0
1, 240, Note_on_c, 0, 78, 69
1, 285, Note_on_c, 0, 78, 0
1, 288, Note_on_c, 1, 76, 69
1, 333, Note_on_c, 1, 76, 0
1, 336, Note_on_c, 0, 79, 69
1, 381, Note_on_c, 0, 79, 0
1, 384, Note_on_c, 1, 73, 69
1, 429, Note_on_c, 1, 73, 0
1, 432, Note_on_c, 0, 76, 69
1, 477, Note_on_c, 0, 76, 0
1, 480, Note_on_c, 1, 74, 69
1, 525, Note_on_c, 1, 74, 0
1, 528, Note_on_c, 0, 78, 69
1, 573, Note_on_c, 0, 78, 0
1, 576, Note_on_c, 1, 67, 69
1, 621, Note_on_c, 1, 67, 0
1, 624, Note_on_c, 0, 71, 70
1, 669, Note_on_c, 0, 71, 0
1, 672, Note_on_c, 1, 68, 74
1, 717, Note_on_c, 1, 68, 0
1, 720, Note_on_c, 0, 76, 73
1, 765, Note_on_c, 0, 76, 0
1, 768, Note_on_c, 0, 74, 74
1, 768, Note_on_c, 1, 69, 79
1, 791, Note_on_c, 0, 74, 0
1, 792, Note_on_c, 0, 73, 75
1, 815, Note_on_c, 0, 73, 0
1, 816, Note_on_c, 0, 71, 75
1, 839, Note_on_c, 0, 71, 0
1, 840, Note_on_c, 0, 73, 75
1, 857, Note_on_c, 1, 69, 0
1, 863, Note_on_c, 0, 73, 0
1, 864, Note_on_c, 0, 69, 75
1, 909, Note_on_c, 0, 69, 0
1, 912, Note_on_c, 0, 81, 69
1, 957, Note_on_c, 0, 81, 0
1, 960, Note_on_c, 1, 74, 69
1, 1005, Note_on_c, 1, 74, 0
1, 1008, Note_on_c, 0, 78, 69
1, 1053, Note_on_c, 0, 78, 0
1, 1056, Note_on_c, 1, 76, 69
1, 1101, Note_on_c, 1, 76, 0
1, 1104, Note_on_c, 0, 79, 69
1, 1149, Note_on_c, 0, 79, 0
1, 1152, Note_on_c, 1, 73, 69
1, 1197, Note_on_c, 1, 73, 0
1, 1200, Note_on_c, 0, 76, 69
1, 1245, Note_on_c, 0, 76, 0
1, 1248, Note_on_c, 1, 74, 69
1, 1293, Note_on_c, 1, 74, 0
1, 1296, Note_on_c, 0, 78, 69
1, 1341, Note_on_c, 0, 78, 0
1, 1344, Note_on_c, 1, 67, 69
1, 1392, Note_on_c, 0, 76, 69
1, 1433, Note_on_c, 1, 67, 0
1, 1437, Note_on_c, 0, 76, 0
1, 1440, Note_on_c, 0, 74, 69
1, 1440, Note_on_c, 1, 69, 69
1, 1463, Note_on_c, 0, 74, 0
1, 1464, Note_on_c, 0, 73, 69
1, 1487, Note_on_c, 0, 73, 0
1, 1488, Note_on_c, 0, 71, 69
1, 1511, Note_on_c, 0, 71, 0
1, 1512, Note_on_c, 0, 73, 69
1, 1529, Note_on_c, 1, 69, 0
1, 1535, Note_on_c, 0, 73, 0
1, 1536, Note_on_c, 0, 74, 69
1, 1536, Note_on_c, 1, 62, 69
1, 1625, Note_on_c, 0, 74, 0
1, 1625, Note_on_c, 1, 62, 0
1, 1680, Note_on_c, 0, 81, 69
1, 1725, Note_on_c, 0, 81, 0
1, 1728, Note_on_c, 1, 74, 69
1, 1773, Note_on_c, 1, 74, 0
1, 1776, Note_on_c, 0, 78, 69
1, 1821, Note_on_c, 0, 78, 0
1, 1824, Note_on_c, 1, 76, 69
1, 1869, Note_on_c, 1, 76, 0
1, 1872, Note_on_c, 0, 79, 69
1, 1917, Note_on_c, 0, 79, 0
1, 1920, Note_on_c, 1, 73, 69
1, 1965, Note_on_c, 1, 73, 0
1, 1968, Note_on_c, 0, 76, 69
1, 2013, Note_on_c, 0, 76, 0
1, 2016, Note_on_c, 1, 74, 69
1, 2061, Note_on_c, 1, 74, 0
1, 2064, Note_on_c, 0, 78, 69
1, 2109, Note_on_c, 0, 78, 0
1, 2112, Note_on_c, 1, 67, 69
1, 2157, Note_on_c, 1, 67, 0
1, 2160, Note_on_c, 0, 71, 70
1, 2205, Note_on_c, 0, 71, 0
1, 2208, Note_on_c, 1, 68, 74
1, 2253, Note_on_c, 1, 68, 0
1, 2256, Note_on_c, 0, 76, 73
1, 2301, Note_on_c, 0, 76, 0
1, 2304, Note_on_c, 0, 74, 74
1, 2304, Note_on_c, 1, 69, 79
1, 2327, Note_on_c, 0, 74, 0
1, 2328, Note_on_c, 0, 73, 75
1, 2351, Note_on_c, 0, 73, 0
1, 2352, Note_on_c, 0, 71, 75
1, 2375, Note_on_c, 0, 71, 0
1, 2376, Note_on_c, 0, 73, 75
1, 2393, Note_on_c, 1, 69, 0
1, 2399, Note_on_c, 0, 73, 0
1, 2400, Note_on_c, 0, 69, 75
1, 2445, Note_on_c, 0, 69, 0
1, 2448, Note_on_c, 0, 81, 69
1, 2493, Note_on_c, 0, 81, 0
1, 2496, Note_on_c, 1, 74, 69
1, 2541, Note_on_c, 1, 74, 0
1, 2544, Note_on_c, 0, 78, 69
1, 2589, Note_on_c, 0, 78, 0
1, 2592, Note_on_c, 1, 76, 69
1, 2637, Note_on_c, 1, 76, 0
1, 2640, Note_on_c, 0, 79, 69
1, 2685, Note_on_c, 0, 79, 0
1, 2688, Note_on_c, 1, 73, 69
1, 2733, Note_on_c, 1, 73, 0
1, 2736, Note_on_c, 0, 76, 69
1, 2781, Note_on_c, 0, 76, 0
1, 2784, Note_on_c, 1, 74, 69
1, 2829, Note_on_c, 1, 74, 0
1, 2832, Note_on_c, 0, 78, 69
1, 2877, Note_on_c, 0, 78, 0
1, 2880, Note_on_c, 1, 67, 69
1, 2928, Note_on_c, 0, 76, 69
1, 2969, Note_on_c, 1, 67, 0
1, 2973, Note_on_c, 0, 76, 0
1, 2976, Note_on_c, 0, 74, 69
1, 2976, Note_on_c, 1, 69, 69
1, 2999, Note_on_c, 0, 74, 0
1, 3000, Note_on_c, 0, 73, 69
1, 3023, Note_on_c, 0, 73, 0
1, 3024, Note_on_c, 0, 71, 69
1, 3047, Note_on_c, 0, 71, 0
1, 3048, Note_on_c, 0, 73, 69
1, 3065, Note_on_c, 1, 69, 0
1, 3071, Note_on_c, 0, 73, 0
1, 3072, Note_on_c, 0, 74, 69
1, 3072, Note_on_c, 1, 62, 69
1, 3161, Note_on_c, 0, 74, 0
1, 3161, Note_on_c, 1, 62, 0
1, 3216, Note_on_c, 0, 78, 69
1, 3261, Note_on_c, 0, 78, 0
1, 3264, Note_on_c, 1, 61, 69
1, 3309, Note_on_c, 1, 61, 0
1, 3312, Note_on_c, 0, 76, 69
1, 3357, Note_on_c, 0, 76, 0
1, 3360, Note_on_c, 1, 69, 69
1, 3405, Note_on_c, 1, 69, 0
1, 3408, Note_on_c, 0, 79, 69
1, 3453, Note_on_c, 0, 79, 0
1, 3456, Note_on_c, 1, 62, 69
1, 3501, Note_on_c, 1, 62, 0
1, 3504, Note_on_c, 0, 78, 69
1, 3549, Note_on_c, 0, 78, 0
1, 3552, Note_on_c, 1, 69, 69
1, 3597, Note_on_c, 1, 69, 0
1, 3600, Note_on_c, 0, 81, 69
1, 3645, Note_on_c, 0, 81, 0
1, 3648, Note_on_c, 0, 81, 69
1, 3648, Note_on_c, 1, 71, 69
1, 3671, Note_on_c, 0, 81, 0
1, 3672, Note_on_c, 0, 79, 69
1, 3687, Note_on_c, 1, 71, 0
1, 3695, Note_on_c, 0, 79, 0
1, 3696, Note_on_c, 0, 78, 69
1, 3719, Note_on_c, 0, 78, 0
1, 3720, Note_on_c, 0, 79, 69
1, 3743, Note_on_c, 0, 79, 0
1, 3744, Note_on_c, 0, 78, 69
1, 3744, Note_on_c, 1, 67, 69
1, 3767, Note_on_c, 0, 78, 0
1, 3768, Note_on_c, 0, 76, 69
1, 3783, Note_on_c, 1, 67, 0
1, 3791, Note_on_c, 0, 76, 0
1, 3792, Note_on_c, 0, 74, 69
1, 3815, Note_on_c, 0, 74, 0
1, 3816, Note_on_c, 0, 76, 69
1, 3839, Note_on_c, 0, 76, 0
1, 3840, Note_on_c, 0, 74, 69
1, 3840, Note_on_c, 1, 69, 69
1, 3863, Note_on_c, 0, 74, 0
1, 3864, Note_on_c, 0, 73, 69
1, 3887, Note_on_c, 0, 73, 0
1, 3888, Note_on_c, 0, 71, 69
1, 3911, Note_on_c, 0, 71, 0
1, 3912, Note_on_c, 0, 73, 69
1, 3929, Note_on_c, 1, 69, 0
1, 3935, Note_on_c, 0, 73, 0
1, 3936, Note_on_c, 0, 69, 69
1, 3981, Note_on_c, 0, 69, 0
1, 3984, Note_on_c, 0, 78, 69
1, 4029, Note_on_c, 0, 78, 0
1, 4032, Note_on_c, 1, 61, 69
1, 4077, Note_on_c, 1, 61, 0
1, 4080, Note_on_c, 0, 76, 69
1, 4125, Note_on_c, 0, 76, 0
1, 4128, Note_on_c, 1, 69, 69
1, 4173, Note_on_c, 1, 69, 0
1, 4176, Note_on_c, 0, 79, 69
1, 4221, Note_on_c, 0, 79, 0
1, 4224, Note_on_c, 1, 62, 69
1, 4269, Note_on_c, 1, 62, 0
1, 4272, Note_on_c, 0, 78, 69
1, 4317, Note_on_c, 0, 78, 0
1, 4320, Note_on_c, 1, 66, 69
1, 4365, Note_on_c, 1, 66, 0
1, 4368, Note_on_c, 0, 74, 69
1, 4413, Note_on_c, 0, 74, 0
1, 4416, Note_on_c, 1, 67, 69
1, 4455, Note_on_c, 1, 67, 0
1, 4464, Note_on_c, 0, 76, 69
1, 4509, Note_on_c, 0, 76, 0
1, 4512, Note_on_c, 0, 74, 69
1, 4512, Note_on_c, 1, 69, 69
1, 4535, Note_on_c, 0, 74, 0
1, 4536, Note_on_c, 0, 73, 69
1, 4551, Note_on_c, 1, 69, 0
1, 4559, Note_on_c, 0, 73, 0
1, 4560, Note_on_c, 0, 71, 69
1, 4583, Note_on_c, 0, 71, 0
1, 4584, Note_on_c, 0, 73, 69
1, 4607, Note_on_c, 0, 73, 0
1, 4608, Note_on_c, 0, 74, 69
1, 4608, Note_on_c, 1, 62, 69
1, 4697, Note_on_c, 0, 74, 0
1, 4697, Note_on_c, 1, 62, 0
1, 4752, Note_on_c, 0, 78, 69
1, 4797, Note_on_c, 0, 78, 0
1, 4800, Note_on_c, 1, 61, 69
1, 4845, Note_on_c, 1, 61, 0
1, 4848, Note_on_c, 0, 76, 69
1, 4893, Note_on_c, 0, 76, 0
1, 4896, Note_on_c, 1, 69, 69
1, 4941, Note_on_c, 1, 69, 0
1, 4944, Note_on_c, 0, 79, 69
1, 4989, Note_on_c, 0, 79, 0
1, 4992, Note_on_c, 1, 62, 69
1, 5037, Note_on_c, 1, 62, 0
1, 5040, Note_on_c, 0, 78, 69
1, 5085, Note_on_c, 0, 78, 0
1, 5088, Note_on_c, 1, 69, 69
1, 5133, Note_on_c, 1, 69, 0
1, 5136, Note_on_c, 0, 81, 69
1, 5181, Note_on_c, 0, 81, 0
1, 5184, Note_on_c, 0, 81, 69
1, 5184, Note_on_c, 1, 71, 69
1, 5207, Note_on_c, 0, 81, 0
1, 5208, Note_on_c, 0, 79, 69
1, 5223, Note_on_c, 1, 71, 0
1, 5231, Note_on_c, 0, 79, 0
1, 5232, Note_on_c, 0, 78, 69
1, 5255, Note_on_c, 0, 78, 0
1, 5256, Note_on_c, 0, 79, 69
1, 5279, Note_on_c, 0, 79, 0
1, 5280, Note_on_c, 0, 78, 69
1, 5280, Note_on_c, 1, 67, 69
1, 5303, Note_on_c, 0, 78, 0
1, 5304, Note_on_c, 0, 76, 69
1, 5319, Note_on_c, 1, 67, 0
1, 5327, Note_on_c, 0, 76, 0
1, 5328, Note_on_c, 0, 74, 69
1, 5351, Note_on_c, 0, 74, 0
1, 5352, Note_on_c, 0, 76, 69
1, 5375, Note_on_c, 0, 76, 0
1, 5376, Note_on_c, 0, 74, 69
1, 5376, Note_on_c, 1, 69, 69
1, 5399, Note_on_c, 0, 74, 0
1, 5400, Note_on_c, 0, 73, 69
1, 5423, Note_on_c, 0, 73, 0
1, 5424, Note_on_c, 0, 71, 69
1, 5447, Note_on_c, 0, 71, 0
1, 5448, Note_on_c, 0, 73, 69
1, 5465, Note_on_c, 1, 69, 0
1, 5471, Note_on_c, 0, 73, 0
1, 5472, Note_on_c, 0, 69, 69
1, 5517, Note_on_c, 0, 69, 0
1, 5520, Note_on_c, 0, 78, 69
1, 5565, Note_on_c, 0, 78, 0
1, 5568, Note_on_c, 1, 61, 69
1, 5613, Note_on_c, 1, 61, 0
1, 5616, Note_on_c, 0, 76, 69
1, 5661, Note_on_c, 0, 76, 0
1, 5664, Note_on_c, 1, 69, 69
1, 5709, Note_on_c, 1, 69, 0
1, 5712, Note_on_c, 0, 79, 69
1, 5757, Note_on_c, 0, 79, 0
1, 5760, Note_on_c, 1, 62, 69
1, 5805, Note_on_c, 1, 62, 0
1, 5808, Note_on_c, 0, 78, 69
1, 5853, Note_on_c, 0, 78, 0
1, 5856, Note_on_c, 1, 66, 69
1, 5901, Note_on_c, 1, 66, 0
1, 5904, Note_on_c, 0, 74, 69
1, 5949, Note_on_c, 0, 74, 0
1, 5952, Note_on_c, 1, 67, 69
1, 5991, Note_on_c, 1, 67, 0
1, 6000, Note_on_c, 0, 76, 69
1, 6045, Note_on_c, 0, 76, 0
1, 6048, Note_on_c, 0, 74, 69
1, 6048, Note_on_c, 1, 69, 69
1, 6071, Note_on_c, 0, 74, 0
1, 6072, Note_on_c, 0, 73, 69
1, 6087, Note_on_c, 1, 69, 0
1, 6095, Note_on_c, 0, 73, 0
1, 6096, Note_on_c, 0, 71, 69
1, 6119, Note_on_c, 0, 71, 0
1, 6120, Note_on_c, 0, 73, 69
1, 6143, Note_on_c, 0, 73, 0
1, 6144, Note_on_c, 0, 74, 69
1, 6144, Note_on_c, 1, 62, 69
1, 6233, Note_on_c, 0, 74, 0
1, 6233, Note_on_c, 1, 62, 0
1, 6288, Note_on_c, 0, 62, 84
1, 6288, Note_on_c, 1, 50, 84
1, 6333, Note_on_c, 0, 62, 0
1, 6333, Note_on_c, 1, 50, 0
1, 6336, Note_on_c, 0, 65, 84
1, 6336, Note_on_c, 1, 53, 84
1, 6356, Note_on_c, 0, 65, 0
1, 6356, Note_on_c, 1, 53, 0
1, 6384, Note_on_c, 0, 64, 84
1, 6384, Note_on_c, 1, 52, 84
1, 6404, Note_on_c, 0, 64, 0
1, 6404, Note_on_c, 1, 52, 0
1, 6432, Note_on_c, 0, 62, 84
1, 6432, Note_on_c, 1, 50, 84
1, 6452, Note_on_c, 0, 62, 0
1, 6452, Note_on_c, 1, 50, 0
1, 6480, Note_on_c, 0, 61, 84
1, 6480, Note_on_c, 1, 49, 84
1, 6500, Note_on_c, 0, 61, 0
1, 6500, Note_on_c, 1, 49, 0
1, 6528, Note_on_c, 0, 62, 84
1, 6528, Note_on_c, 1, 50, 84
1, 6548, Note_on_c, 0, 62, 0
1, 6548, Note_on_c, 1, 50, 0
1, 6576, Note_on_c, 0, 57, 84
1, 6576, Note_on_c, 1, 45, 84
1, 6596, Note_on_c, 0, 57, 0
1, 6596, Note_on_c, 1, 45, 0
1, 6624, Note_on_c, 0, 58, 84
1, 6624, Note_on_c, 1, 46, 84
1, 6644, Note_on_c, 0, 58, 0
1, 6644, Note_on_c, 1, 46, 0
1, 6672, Note_on_c, 0, 57, 84
1, 6672, Note_on_c, 1, 45, 84
1, 6692, Note_on_c, 0, 57, 0
1, 6692, Note_on_c, 1, 45, 0
1, 6720, Note_on_c, 0, 58, 84
1, 6720, Note_on_c, 1, 46, 84
1, 6732, Note_on_c, 0, 58, 0
1, 6732, Note_on_c, 0, 60, 84
1, 6732, Note_on_c, 1, 46, 0
1, 6732, Note_on_c, 1, 48, 84
1, 6744, Note_on_c, 0, 60, 0
1, 6744, Note_on_c, 0, 58, 84
1, 6744, Note_on_c, 1, 48, 0
1, 6744, Note_on_c, 1, 46, 84
1, 6765, Note_on_c, 0, 58, 0
1, 6765, Note_on_c, 1, 46, 0
1, 6768, Note_on_c, 0, 57, 84
1, 6768, Note_on_c, 1, 45, 84
1, 6813, Note_on_c, 0, 57, 0
1, 6813, Note_on_c, 1, 45, 0
1, 6816, Note_on_c, 0, 58, 84
1, 6816, Note_on_c, 1, 46, 84
1, 6836, Note_on_c, 0, 58, 0
1, 6836, Note_on_c, 1, 46, 0
1, 6864, Note_on_c, 0, 57, 84
1, 6864, Note_on_c, 1, 45, 84
1, 6884, Note_on_c, 0, 57, 0
1, 6884, Note_on_c, 1, 45, 0
1, 6912, Note_on_c, 0, 58, 84
1, 6912, Note_on_c, 1, 46, 84
1, 6924, Note_on_c, 0, 58, 0
1, 6924, Note_on_c, 0, 60, 84
1, 6924, Note_on_c, 1, 46, 0
1, 6924, Note_on_c, 1, 48, 84
1, 6936, Note_on_c, 0, 60, 0
1, 6936, Note_on_c, 0, 58, 84
1, 6936, Note_on_c, 1, 48, 0
1, 6936, Note_on_c, 1, 46, 84
1, 6957, Note_on_c, 0, 58, 0
1, 6957, Note_on_c, 1, 46, 0
1, 6960, Note_on_c, 0, 57, 84
1, 6960, Note_on_c, 1, 45, 84
1, 7005, Note_on_c, 0, 57, 0
1, 7005, Note_on_c, 1, 45, 0
1, 7104, Note_on_c, 0, 67, 69
1, 7104, Note_on_c, 0, 64, 69
1, 7152, Note_on_c, 1, 45, 69
1, 7197, Note_on_c, 1, 45, 0
1, 7200, Note_on_c, 1, 57, 69
1, 7245, Note_on_c, 1, 57, 0
1, 7248, Note_on_c, 1, 61, 69
1, 7281, Note_on_c, 0, 67, 0
1, 7281, Note_on_c, 0, 64, 0
1, 7293, Note_on_c, 1, 61, 0
1, 7296, Note_on_c, 0, 65, 69
1, 7296, Note_on_c, 0, 62, 69
1, 7344, Note_on_c, 1, 38, 69
1, 7389, Note_on_c, 1, 38, 0
1, 7392, Note_on_c, 1, 50, 69
1, 7437, Note_on_c, 1, 50, 0
1, 7440, Note_on_c, 1, 53, 69
1, 7473, Note_on_c, 0, 65, 0
1, 7473, Note_on_c, 0, 62, 0
1, 7485, Note_on_c, 1, 53, 0
1, 7488, Note_on_c, 1, 55, 69
1, 7488, Note_on_c, 1, 43, 69
1, 7536, Note_on_c, 0, 67, 69
1, 7536, Note_on_c, 0, 58, 69
1, 7577, Note_on_c, 1, 55, 0
1, 7577, Note_on_c, 1, 43, 0
1, 7581, Note_on_c, 0, 67, 0
1, 7581, Note_on_c, 0, 58, 0
1, 7584, Note_on_c, 1, 52, 69
1, 7584, Note_on_c, 1, 45, 69
1, 7632, Note_on_c, 0, 61, 69
1, 7632, Note_on_c, 0, 55, 69
1, 7673, Note_on_c, 1, 52, 0
1, 7673, Note_on_c, 1, 45, 0
1, 7677, Note_on_c, 0, 61, 0
1, 7677, Note_on_c, 0, 55, 0
1, 7680, Note_on_c, 0, 62, 69
1, 7680, Note_on_c, 0, 53, 69
1, 7680, Note_on_c, 1, 50, 69
1, 7725, Note_on_c, 1, 50, 0
1, 7728, Note_on_c, 1, 45, 69
1, 7769, Note_on_c, 0, 62, 0
1, 7769, Note_on_c, 0, 53, 0
1, 7773, Note_on_c, 1, 45, 0
1, 7776, Note_on_c, 1, 38, 69
1, 7821, Note_on_c, 1, 38, 0
1, 7824, Note_on_c, 0, 62, 84
1, 7824, Note_on_c, 1, 50, 84
1, 7869, Note_on_c, 0, 62, 0
1, 7869, Note_on_c, 1, 50, 0
1, 7872, Note_on_c, 0, 65, 84
1, 7872, Note_on_c, 1, 53, 84
1, 7892, Note_on_c, 0, 65, 0
1, 7892, Note_on_c, 1, 53, 0
1, 7920, Note_on_c, 0, 64, 84
1, 7920, Note_on_c, 1, 52, 84
1, 7940, Note_on_c, 0, 64, 0
1, 7940, Note_on_c, 1, 52, 0
1, 7968, Note_on_c, 0, 62, 84
1, 7968, Note_on_c, 1, 50, 84
1, 7988, Note_on_c, 0, 62, 0
1, 7988, Note_on_c, 1, 50, 0
1, 8016, Note_on_c, 0, 61, 84
1, 8016, Note_on_c, 1, 49, 84
1, 8036, Note_on_c, 0, 61, 0
1, 8036, Note_on_c, 1, 49, 0
1, 8064, Note_on_c, 0, 62, 84
1, 8064, Note_on_c, 1, 50, 84
1, 8084, Note_on_c, 0, 62, 0
1, 8084, Note_on_c, 1, 50, 0
1, 8112, Note_on_c, 0, 57, 84
1, 8112, Note_on_c, 1, 45, 84
1, 8132, Note_on_c, 0, 57, 0
1, 8132, Note_on_c, 1, 45, 0
1, 8160, Note_on_c, 0, 58, 84
1, 8160, Note_on_c, 1, 46, 84
1, 8180, Note_on_c, 0, 58, 0
1, 8180, Note_on_c, 1, 46, 0
1, 8208, Note_on_c, 0, 57, 84
1, 8208, Note_on_c, 1, 45, 84
1, 8228, Note_on_c, 0, 57, 0
1, 8228, Note_on_c, 1, 45, 0
1, 8256, Note_on_c, 0, 58, 84
1, 8256, Note_on_c, 1, 46, 84
1, 8268, Note_on_c, 0, 58, 0
1, 8268, Note_on_c, 0, 60, 84
1, 8268, Note_on_c, 1, 46, 0
1, 8268, Note_on_c, 1, 48, 84
1, 8280, Note_on_c, 0, 60, 0
1, 8280, Note_on_c, 0, 58, 84
1, 8280, Note_on_c, 1, 48, 0
1, 8280, Note_on_c, 1, 46, 84
1, 8301, Note_on_c, 0, 58, 0
1, 8301, Note_on_c, 1, 46, 0
1, 8304, Note_on_c, 0, 57, 84
1, 8304, Note_on_c, 1, 45, 84
1, 8349, Note_on_c, 0, 57, 0
1, 8349, Note_on_c, 1, 45, 0
1, 8352, Note_on_c, 0, 58, 84
1, 8352, Note_on_c, 1, 46, 84
1, 8372, Note_on_c, 0, 58, 0
1, 8372, Note_on_c, 1, 46, 0
1, 8400, Note_on_c, 0, 57, 84
1, 8400, Note_on_c, 1, 45, 84
1, 8420, Note_on_c, 0, 57, 0
1, 8420, Note_on_c, 1, 45, 0
1, 8448, Note_on_c, 0, 58, 84
1, 8448, Note_on_c, 1, 46, 84
1, 8460, Note_on_c, 0, 58, 0
1, 8460, Note_on_c, 0, 60, 84
1, 8460, Note_on_c, 1, 46, 0
1, 8460, Note_on_c, 1, 48, 84
1, 8472, Note_on_c, 0, 60, 0
1, 8472, Note_on_c, 0, 58, 84
1, 8472, Note_on_c, 1, 48, 0
1, 8472, Note_on_c, 1, 46, 84
1, 8493, Note_on_c, 0, 58, 0
1, 8493, Note_on_c, 1, 46, 0
1, 8496, Note_on_c, 0, 57, 84
1, 8496, Note_on_c, 1, 45, 84
1, 8541, Note_on_c, 0, 57, 0
1, 8541, Note_on_c, 1, 45, 0
1, 8640, Note_on_c, 0, 67, 69
1, 8640, Note_on_c, 0, 64, 69
1, 8688, Note_on_c, 1, 45, 69
1, 8733, Note_on_c, 1, 45, 0
1, 8736, Note_on_c, 1, 57, 69
1, 8781, Note_on_c, 1, 57, 0
1, 8784, Note_on_c, 1, 61, 69
1, 8817, Note_on_c, 0, 67, 0
1, 8817, Note_on_c, 0, 64, 0
1, 8829, Note_on_c, 1, 61, 0
1, 8832, Note_on_c, 0, 65, 69
1, 8832, Note_on_c, 0, 62, 69
1, 8880, Note_on_c, 1, 38, 69
1, 8925, Note_on_c, 1, 38, 0
1, 8928, Note_on_c, 1, 50, 69
1, 8973, Note_on_c, 1, 50, 0
1, 8976, Note_on_c, 1, 53, 69
1, 9009, Note_on_c, 0, 65, 0
1, 9009, Note_on_c, 0, 62, 0
1, 9021, Note_on_c, 1, 53, 0
1, 9024, Note_on_c, 1, 55, 69
1, 9024, Note_on_c, 1, 43, 69
1, 9072, Note_on_c, 0, 67, 69
1, 9072, Note_on_c, 0, 58, 69
1, 9113, Note_on_c, 1, 55, 0
1, 9113, Note_on_c, 1, 43, 0
1, 9117, Note_on_c, 0, 67, 0
1, 9117, Note_on_c, 0, 58, 0
1, 9120, Note_on_c, 1, 52, 69
1, 9120, Note_on_c, 1, 45, 69
1, 9168, Note_on_c, 0, 61, 69
1, 9168, Note_on_c, 0, 55, 69
1, 9209, Note_on_c, 1, 52, 0
1, 9209, Note_on_c, 1, 45, 0
1, 9213, Note_on_c, 0, 61, 0
1, 9213, Note_on_c, 0, 55, 0
1, 9216, Note_on_c, 0, 62, 69
1, 9216, Note_on_c, 0, 53, 69
1, 9216, Note_on_c, 1, 50, 69
1, 9261, Note_on_c, 1, 50, 0
1, 9264, Note_on_c, 1, 45, 69
1, 9305, Note_on_c, 0, 62, 0
1, 9305, Note_on_c, 0, 53, 0
1, 9309, Note_on_c, 1, 45, 0
1, 9312, Note_on_c, 1, 38, 69
1, 9357, Note_on_c, 1, 38, 0
1, 9360, Note_on_c, 0, 60, 84
1, 9405, Note_on_c, 0, 60, 0
1, 9408, Note_on_c, 0, 65, 84
1, 9408, Note_on_c, 1, 57, 84
1, 9408, Note_on_c, 1, 53, 84
1, 9453, Note_on_c, 0, 65, 0
1, 9456, Note_on_c, 0, 69, 84
1, 9497, Note_on_c, 1, 57, 0
1, 9497, Note_on_c, 1, 53, 0
1, 9501, Note_on_c, 0, 69, 0
1, 9504, Note_on_c, 0, 72, 84
1, 9549, Note_on_c, 0, 72, 0
1, 9552, Note_on_c, 0, 69, 84
1, 9552, Note_on_c, 1, 60, 84
1, 9597, Note_on_c, 0, 69, 0
1, 9597, Note_on_c, 1, 60, 0
1, 9600, Note_on_c, 0, 67, 84
1, 9600, Note_on_c, 1, 58, 84
1, 9612, Note_on_c, 0, 67, 0
1, 9612, Note_on_c, 0, 69, 84
1, 9612, Note_on_c, 1, 58, 0
1, 9612, Note_on_c, 1, 60, 84
1, 9624, Note_on_c, 0, 69, 0
1, 9624, Note_on_c, 0, 67, 84
1, 9624, Note_on_c, 1, 60, 0
1, 9624, Note_on_c, 1, 58, 84
1, 9645, Note_on_c, 0, 67, 0
1, 9645, Note_on_c, 1, 58, 0
1, 9648, Note_on_c, 0, 65, 84
1, 9648, Note_on_c, 1, 57, 84
1, 9693, Note_on_c, 0, 65, 0
1, 9693, Note_on_c, 1, 57, 0
1, 9696, Note_on_c, 0, 67, 84
1, 9696, Note_on_c, 1, 58, 84
1, 9708, Note_on_c, 0, 67, 0
1, 9708, Note_on_c, 0, 69, 84
1, 9708, Note_on_c, 1, 58, 0
1, 9708, Note_on_c, 1, 60, 84
1, 9720, Note_on_c, 0, 69, 0
1, 9720, Note_on_c, 0, 67, 84
1, 9720, Note_on_c, 1, 60, 0
1, 9720, Note_on_c, 1, 58, 84
1, 9741, Note_on_c, 0, 67, 0
1, 9741, Note_on_c, 1, 58, 0
1, 9744, Note_on_c, 0, 65, 84
1, 9744, Note_on_c, 1, 57, 84
1, 9789, Note_on_c, 0, 65, 0
1, 9789, Note_on_c, 1, 57, 0
1, 9792, Note_on_c, 0, 70, 84
1, 9792, Note_on_c, 0, 67, 84
1, 9837, Note_on_c, 0, 70, 0
1, 9837, Note_on_c, 0, 67, 0
1, 9840, Note_on_c, 1, 60, 84
1, 9840, Note_on_c, 1, 52, 84
1, 9885, Note_on_c, 1, 60, 0
1, 9885, Note_on_c, 1, 52, 0
1, 9888, Note_on_c, 0, 69, 84
1, 9888, Note_on_c, 0, 65, 84
1, 9933, Note_on_c, 0, 69, 0
1, 9933, Note_on_c, 0, 65, 0
1, 9936, Note_on_c, 1, 60, 84
1, 9936, Note_on_c, 1, 53, 84
1, 9981, Note_on_c, 1, 60, 0
1, 9981, Note_on_c, 1, 53, 0
1, 9984, Note_on_c, 0, 67, 84
1, 9984, Note_on_c, 1, 58, 84
1, 9996, Note_on_c, 0, 67, 0
1, 9996, Note_on_c, 0, 69, 84
1, 9996, Note_on_c, 1, 58, 0
1, 9996, Note_on_c, 1, 60, 84
1, 10008, Note_on_c, 0, 69, 0
1, 10008, Note_on_c, 0, 67, 84
1, 10008, Note_on_c, 1, 60, 0
1, 10008, Note_on_c, 1, 58, 84
1, 10029, Note_on_c, 0, 67, 0
1, 10029, Note_on_c, 1, 58, 0
1, 10032, Note_on_c, 0, 65, 84
1, 10032, Note_on_c, 1, 57, 84
1, 10077, Note_on_c, 0, 65, 0
1, 10077, Note_on_c, 1, 57, 0
1, 10080, Note_on_c, 0, 67, 84
1, 10080, Note_on_c, 1, 58, 84
1, 10092, Note_on_c, 0, 67, 0
1, 10092, Note_on_c, 0, 69, 84
1, 10092, Note_on_c, 1, 58, 0
1, 10092, Note_on_c, 1, 60, 84
1, 10104, Note_on_c, 0, 69, 0
1, 10104, Note_on_c, 0, 67, 84
1, 10104, Note_on_c, 1, 60, 0
1, 10104, Note_on_c, 1, 58, 84
1, 10125, Note_on_c, 0, 67, 0
1, 10125, Note_on_c, 1, 58, 0
1, 10128, Note_on_c, 0, 65, 84
1, 10128, Note_on_c, 1, 57, 84
1, 10173, Note_on_c, 0, 65, 0
1, 10173, Note_on_c, 1, 57, 0
1, 10176, Note_on_c, 0, 70, 84
1, 10176, Note_on_c, 0, 67, 84
1, 10221, Note_on_c, 0, 70, 0
1, 10221, Note_on_c, 0, 67, 0
1, 10224, Note_on_c, 1, 60, 82
1, 10224, Note_on_c, 1, 52, 82
1, 10269, Note_on_c, 1, 60, 0
1, 10269, Note_on_c, 1, 52, 0
1, 10272, Note_on_c, 0, 69, 80
1, 10272, Note_on_c, 0, 65, 80
1, 10317, Note_on_c, 0, 69, 0
1, 10317, Note_on_c, 0, 65, 0
1, 10320, Note_on_c, 1, 60, 78
1, 10320, Note_on_c, 1, 53, 78
1, 10365, Note_on_c, 1, 60, 0
1, 10365, Note_on_c, 1, 53, 0
1, 10368, Note_on_c, 0, 70, 76
1, 10368, Note_on_c, 0, 67, 76
1, 10413, Note_on_c, 0, 70, 0
1, 10413, Note_on_c, 0, 67, 0
1, 10416, Note_on_c, 1, 60, 74
1, 10416, Note_on_c, 1, 52, 74
1, 10461, Note_on_c, 1, 60, 0
1, 10461, Note_on_c, 1, 52, 0
1, 10464, Note_on_c, 0, 69, 72
1, 10464, Note_on_c, 0, 65, 72
1, 10509, Note_on_c, 0, 69, 0
1, 10509, Note_on_c, 0, 65, 0
1, 10512, Note_on_c, 1, 60, 70
1, 10512, Note_on_c, 1, 53, 70
1, 10557, Note_on_c, 1, 60, 0
1, 10557, Note_on_c, 1, 53, 0
1, 10560, Note_on_c, 1, 58, 69
1, 10560, Note_on_c, 1, 46, 69
1, 10608, Note_on_c, 0, 67, 69
1, 10649, Note_on_c, 1, 58, 0
1, 10649, Note_on_c, 1, 46, 0
1, 10653, Note_on_c, 0, 67, 0
1, 10656, Note_on_c, 0, 65, 69
1, 10656, Note_on_c, 1, 57, 69
1, 10656, Note_on_c, 1, 48, 64
1, 10668, Note_on_c, 0, 65, 0
1, 10668, Note_on_c, 0, 67, 69
1, 10680, Note_on_c, 0, 67, 0
1, 10680, Note_on_c, 0, 65, 69
1, 10701, Note_on_c, 0, 65, 0
1, 10701, Note_on_c, 1, 57, 0
1, 10704, Note_on_c, 0, 64, 69
1, 10704, Note_on_c, 1, 55, 69
1, 10745, Note_on_c, 1, 48, 0
1, 10749, Note_on_c, 0, 64, 0
1, 10749, Note_on_c, 1, 55, 0
1, 10752, Note_on_c, 0, 65, 69
1, 10752, Note_on_c, 1, 53, 69
1, 10797, Note_on_c, 1, 53, 0
1, 10800, Note_on_c, 1, 48, 69
1, 10841, Note_on_c, 0, 65, 0
1, 10845, Note_on_c, 1, 48, 0
1, 10848, Note_on_c, 1, 41, 69
1, 10893, Note_on_c, 1, 41, 0
1, 10896, Note_on_c, 0, 62, 69
1, 10941, Note_on_c, 0, 62, 0
1, 10944, Note_on_c, 0, 66, 69
1, 10944, Note_on_c, 0, 60, 69
1, 10989, Note_on_c, 0, 66, 0
1, 10989, Note_on_c, 0, 60, 0
1, 10992, Note_on_c, 1, 57, 70
1, 10992, Note_on_c, 1, 50, 70
1, 11037, Note_on_c, 1, 57, 0
1, 11037, Note_on_c, 1, 50, 0
1, 11040, Note_on_c, 0, 67, 72
1, 11040, Note_on_c, 0, 59, 72
1, 11085, Note_on_c, 0, 67, 0
1, 11085, Note_on_c, 0, 59, 0
1, 11088, Note_on_c, 1, 55, 74
1, 11088, Note_on_c, 1, 43, 74
1, 11133, Note_on_c, 1, 55, 0
1, 11133, Note_on_c, 1, 43, 0
1, 11136, Note_on_c, 0, 68, 76
1, 11136, Note_on_c, 0, 62, 76
1, 11181, Note_on_c, 0, 68, 0
1, 11181, Note_on_c, 0, 62, 0
1, 11184, Note_on_c, 1, 59, 78
1, 11184, Note_on_c, 1, 52, 78
1, 11229, Note_on_c, 1, 59, 0
1, 11229, Note_on_c, 1, 52, 0
1, 11232, Note_on_c, 0, 69, 80
1, 11232, Note_on_c, 0, 61, 80
1, 11277, Note_on_c, 0, 69, 0
1, 11277, Note_on_c, 0, 61, 0
1, 11280, Note_on_c, 1, 57, 82
1, 11280, Note_on_c, 1, 45, 82
1, 11325, Note_on_c, 1, 57, 0
1, 11325, Note_on_c, 1, 45, 0
1, 11328, Note_on_c, 1, 57, 84
1, 11328, Note_on_c, 1, 49, 64
1, 11376, Note_on_c, 0, 67, 84
1, 11376, Note_on_c, 0, 64, 84
1, 11417, Note_on_c, 1, 49, 0
1, 11421, Note_on_c, 0, 67, 0
1, 11421, Note_on_c, 0, 64, 0
1, 11424, Note_on_c, 0, 67, 84
1, 11424, Note_on_c, 0, 64, 84
1, 11424, Note_on_c, 1, 50, 64
1, 11469, Note_on_c, 0, 67, 0
1, 11469, Note_on_c, 0, 64, 0
1, 11472, Note_on_c, 0, 65, 84
1, 11472, Note_on_c, 0, 62, 84
1, 11505, Note_on_c, 1, 57, 0
1, 11513, Note_on_c, 1, 50, 0
1, 11517, Note_on_c, 0, 65, 0
1, 11517, Note_on_c, 0, 62, 0
1, 11520, Note_on_c, 0, 65, 81
1, 11520, Note_on_c, 0, 62, 81
1, 11520, Note_on_c, 1, 45, 84
1, 11565, Note_on_c, 1, 45, 0
1, 11568, Note_on_c, 1, 57, 81
1, 11613, Note_on_c, 1, 57, 0
1, 11616, Note_on_c, 0, 65, 0
1, 11616, Note_on_c, 0, 62, 0
1, 11616, Note_on_c, 0, 64, 77
1, 11616, Note_on_c, 0, 61, 77
1, 11616, Note_on_c, 1, 45, 78
1, 11661, Note_on_c, 0, 64, 0
1, 11661, Note_on_c, 0, 61, 0
1, 11661, Note_on_c, 1, 45, 0
1, 11664, Note_on_c, 0, 62, 84
1, 11664, Note_on_c, 1, 50, 84
1, 11684, Note_on_c, 0, 62, 0
1, 11684, Note_on_c, 1, 50, 0
1, 11712, Note_on_c, 0, 65, 84
1, 11712, Note_on_c, 1, 53, 84
1, 11732, Note_on_c, 0, 65, 0
1, 11732, Note_on_c, 1, 53, 0
1, 11760, Note_on_c, 0, 64, 84
1, 11760, Note_on_c, 1, 52, 84
1, 11780, Note_on_c, 0, 64, 0
1, 11780, Note_on_c, 1, 52, 0
1, 11808, Note_on_c, 0, 62, 84
1, 11808, Note_on_c, 1, 50, 84
1, 11828, Note_on_c, 0, 62, 0
1, 11828, Note_on_c, 1, 50, 0
1, 11856, Note_on_c, 0, 61, 84
1, 11856, Note_on_c, 1, 49, 84
1, 11876, Note_on_c, 0, 61, 0
1, 11876, Note_on_c, 1, 49, 0
1, 11904, Note_on_c, 0, 62, 84
1, 11904, Note_on_c, 1, 50, 84
1, 11924, Note_on_c, 0, 62, 0
1, 11924, Note_on_c, 1, 50, 0
1, 11952, Note_on_c, 0, 57, 84
1, 11952, Note_on_c, 1, 45, 84
1, 11972, Note_on_c, 0, 57, 0
1, 11972, Note_on_c, 1, 45, 0
1, 12000, Note_on_c, 0, 58, 84
1, 12000, Note_on_c, 1, 46, 84
1, 12020, Note_on_c, 0, 58, 0
1, 12020, Note_on_c, 1, 46, 0
1, 12048, Note_on_c, 0, 57, 84
1, 12048, Note_on_c, 1, 45, 84
1, 12068, Note_on_c, 0, 57, 0
1, 12068, Note_on_c, 1, 45, 0
1, 12096, Note_on_c, 0, 58, 84
1, 12096, Note_on_c, 1, 46, 84
1, 12108, Note_on_c, 0, 58, 0
1, 12108, Note_on_c, 0, 60, 84
1, 12108, Note_on_c, 1, 46, 0
1, 12108, Note_on_c, 1, 48, 84
1, 12120, Note_on_c, 0, 60, 0
1, 12120, Note_on_c, 0, 58, 84
1, 12120, Note_on_c, 1, 48, 0
1, 12120, Note_on_c, 1, 46, 84
1, 12141, Note_on_c, 0, 58, 0
1, 12141, Note_on_c, 1, 46, 0
1, 12144, Note_on_c, 0, 57, 84
1, 12144, Note_on_c, 1, 45, 84
1, 12189, Note_on_c, 0, 57, 0
1, 12189, Note_on_c, 1, 45, 0
1, 12192, Note_on_c, 0, 58, 84
1, 12192, Note_on_c, 1, 46, 84
1, 12212, Note_on_c, 0, 58, 0
1, 12212, Note_on_c, 1, 46, 0
1, 12240, Note_on_c, 0, 57, 84
1, 12240, Note_on_c, 1, 45, 84
1, 12260, Note_on_c, 0, 57, 0
1, 12260, Note_on_c, 1, 45, 0
1, 12288, Note_on_c, 0, 58, 84
1, 12288, Note_on_c, 1, 46, 84
1, 12300, Note_on_c, 0, 58, 0
1, 12300, Note_on_c, 0, 60, 84
1, 12300, Note_on_c, 1, 46, 0
1, 12300, Note_on_c, 1, 48, 84
1, 12312, Note_on_c, 0, 60, 0
1, 12312, Note_on_c, 0, 58, 84
1, 12312, Note_on_c, 1, 48, 0
1, 12312, Note_on_c, 1, 46, 84
1, 12333, Note_on_c, 0, 58, 0
1, 12333, Note_on_c, 1, 46, 0
1, 12336, Note_on_c, 0, 57, 84
1, 12336, Note_on_c, 1, 45, 84
1, 12381, Note_on_c, 0, 57, 0
1, 12381, Note_on_c, 1, 45, 0
1, 12480, Note_on_c, 0, 67, 69
1, 12480, Note_on_c, 0, 64, 69
1, 12528, Note_on_c, 1, 45, 69
1, 12573, Note_on_c, 1, 45, 0
1, 12576, Note_on_c, 1, 57, 69
1, 12621, Note_on_c, 1, 57, 0
1, 12624, Note_on_c, 1, 61, 69
1, 12657, Note_on_c, 0, 67, 0
1, 12657, Note_on_c, 0, 64, 0
1, 12669, Note_on_c, 1, 61, 0
1, 12672, Note_on_c, 0, 65, 69
1, 12672, Note_on_c, 0, 62, 69
1, 12720, Note_on_c, 1, 38, 69
1, 12765, Note_on_c, 1, 38, 0
1, 12768, Note_on_c, 1, 50, 69
1, 12813, Note_on_c, 1, 50, 0
1, 12816, Note_on_c, 1, 53, 69
1, 12849, Note_on_c, 0, 65, 0
1, 12849, Note_on_c, 0, 62, 0
1, 12861, Note_on_c, 1, 53, 0
1, 12864, Note_on_c, 1, 55, 69
1, 12864, Note_on_c, 1, 43, 69
1, 12912, Note_on_c, 0, 67, 69
1, 12912, Note_on_c, 0, 58, 69
1, 12953, Note_on_c, 1, 55, 0
1, 12953, Note_on_c, 1, 43, 0
1, 12957, Note_on_c, 0, 67, 0
1, 12957, Note_on_c, 0, 58, 0
1, 12960, Note_on_c, 1, 52, 69
1, 12960, Note_on_c, 1, 45, 69
1, 13008, Note_on_c, 0, 61, 69
1, 13008, Note_on_c, 0, 55, 69
1, 13049, Note_on_c, 1, 52, 0
1, 13049, Note_on_c, 1, 45, 0
1, 13053, Note_on_c, 0, 61, 0
1, 13053, Note_on_c, 0, 55, 0
1, 13056, Note_on_c, 0, 62, 69
1, 13056, Note_on_c, 0, 53, 69
1, 13056, Note_on_c, 1, 50, 69
1, 13101, Note_on_c, 1, 50, 0
1, 13104, Note_on_c, 1, 45, 69
1, 13145, Note_on_c, 0, 62, 0
1, 13145, Note_on_c, 0, 53, 0
1, 13149, Note_on_c, 1, 45, 0
1, 13152, Note_on_c, 1, 38, 69
1, 13197, Note_on_c, 1, 38, 0
1, 13200, Note_on_c, 0, 60, 84
1, 13245, Note_on_c, 0, 60, 0
1, 13248, Note_on_c, 0, 65, 84
1, 13248, Note_on_c, 1, 57, 84
1, 13248, Note_on_c, 1, 53, 84
1, 13293, Note_on_c, 0, 65, 0
1, 13296, Note_on_c, 0, 69, 84
1, 13337, Note_on_c, 1, 57, 0
1, 13337, Note_on_c, 1, 53, 0
1, 13341, Note_on_c, 0, 69, 0
1, 13344, Note_on_c, 0, 72, 84
1, 13389, Note_on_c, 0, 72, 0
1, 13392, Note_on_c, 0, 69, 84
1, 13392, Note_on_c, 1, 60, 84
1, 13437, Note_on_c, 0, 69, 0
1, 13437, Note_on_c, 1, 60, 0
1, 13440, Note_on_c, 0, 67, 84
1, 13440, Note_on_c, 1, 58, 84
1, 13452, Note_on_c, 0, 67, 0
1, 13452, Note_on_c, 0, 69, 84
1, 13452, Note_on_c, 1, 58, 0
1, 13452, Note_on_c, 1, 60, 84
1, 13464, Note_on_c, 0, 69, 0
1, 13464, Note_on_c, 0, 67, 84
1, 13464, Note_on_c, 1, 60, 0
1, 13464, Note_on_c, 1, 58, 84
1, 13485, Note_on_c, 0, 67, 0
1, 13485, Note_on_c, 1, 58, 0
1, 13488, Note_on_c, 0, 65, 84
1, 13488, Note_on_c, 1, 57, 84
1, 13533, Note_on_c, 0, 65, 0
1, 13533, Note_on_c, 1, 57, 0
1, 13536, Note_on_c, 0, 67, 84
1, 13536, Note_on_c, 1, 58, 84
1, 13548, Note_on_c, 0, 67, 0
1, 13548, Note_on_c, 0, 69, 84
1, 13548, Note_on_c, 1, 58, 0
1, 13548, Note_on_c, 1, 60, 84
1, 13560, Note_on_c, 0, 69, 0
1, 13560, Note_on_c, 0, 67, 84
1, 13560, Note_on_c, 1, 60, 0
1, 13560, Note_on_c, 1, 58, 84
1, 13581, Note_on_c, 0, 67, 0
1, 13581, Note_on_c, 1, 58, 0
1, 13584, Note_on_c, 0, 65, 84
1, 13584, Note_on_c, 1, 57, 84
1, 13629, Note_on_c, 0, 65, 0
1, 13629, Note_on_c, 1, 57, 0
1, 13632, Note_on_c, 0, 70, 84
1, 13632, Note_on_c, 0, 67, 84
1, 13677, Note_on_c, 0, 70, 0
1, 13677, Note_on_c, 0, 67, 0
1, 13680, Note_on_c, 1, 60, 84
1, 13680, Note_on_c, 1, 52, 84
1, 13725, Note_on_c, 1, 60, 0
1, 13725, Note_on_c, 1, 52, 0
1, 13728, Note_on_c, 0, 69, 84
1, 13728, Note_on_c, 0, 65, 84
1, 13773, Note_on_c, 0, 69, 0
1, 13773, Note_on_c, 0, 65, 0
1, 13776, Note_on_c, 1, 60, 84
1, 13776, Note_on_c, 1, 53, 84
1, 13821, Note_on_c, 1, 60, 0
1, 13821, Note_on_c, 1, 53, 0
1, 13824, Note_on_c, 0, 67, 84
1, 13824, Note_on_c, 1, 58, 84
1, 13836, Note_on_c, 0, 67, 0
1, 13836, Note_on_c, 0, 69, 84
1, 13836, Note_on_c, 1, 58, 0
1, 13836, Note_on_c, 1, 60, 84
1, 13848, Note_on_c, 0, 69, 0
1, 13848, Note_on_c, 0, 67, 84
1, 13848, Note_on_c, 1, 60, 0
1, 13848, Note_on_c, 1, 58, 84
1, 13869, Note_on_c, 0, 67, 0
1, 13869, Note_on_c, 1, 58, 0
1, 13872, Note_on_c, 0, 65, 84
1, 13872, Note_on_c, 1, 57, 84
1, 13917, Note_on_c, 0, 65, 0
1, 13917, Note_on_c, 1, 57, 0
1, 13920, Note_on_c, 0, 67, 84
1, 13920, Note_on_c, 1, 58, 84
1, 13932, Note_on_c, 0, 67, 0
1, 13932, Note_on_c, 0, 69, 84
1, 13932, Note_on_c, 1, 58, 0
1, 13932, Note_on_c, 1, 60, 84
1, 13944, Note_on_c, 0, 69, 0
1, 13944, Note_on_c, 0, 67, 84
1, 13944, Note_on_c, 1, 60, 0
1, 13944, Note_on_c, 1, 58, 84
1, 13965, Note_on_c, 0, 67, 0
1, 13965, Note_on_c, 1, 58, 0
1, 13968, Note_on_c, 0, 65, 84
1, 13968, Note_on_c, 1, 57, 84
1, 14013, Note_on_c, 0, 65, 0
1, 14013, Note_on_c, 1, 57, 0
1, 14016, Note_on_c, 0, 70, 84
1, 14016, Note_on_c, 0, 67, 84
1, 14061, Note_on_c, 0, 70, 0
1, 14061, Note_on_c, 0, 67, 0
1, 14064, Note_on_c, 1, 60, 82
1, 14064, Note_on_c, 1, 52, 82
1, 14109, Note_on_c, 1, 60, 0
1, 14109, Note_on_c, 1, 52, 0
1, 14112, Note_on_c, 0, 69, 80
1, 14112, Note_on_c, 0, 65, 80
1, 14157, Note_on_c, 0, 69, 0
1, 14157, Note_on_c, 0, 65, 0
1, 14160, Note_on_c, 1, 60, 78
1, 14160, Note_on_c, 1, 53, 78
1, 14205, Note_on_c, 1, 60, 0
1, 14205, Note_on_c, 1, 53, 0
1, 14208, Note_on_c, 0, 70, 76
1, 14208, Note_on_c, 0, 67, 76
1, 14253, Note_on_c, 0, 70, 0
1, 14253, Note_on_c, 0, 67, 0
1, 14256, Note_on_c, 1, 60, 74
1, 14256, Note_on_c, 1, 52, 74
1, 14301, Note_on_c, 1, 60, 0
1, 14301, Note_on_c, 1, 52, 0
1, 14304, Note_on_c, 0, 69, 72
1, 14304, Note_on_c, 0, 65, 72
1, 14349, Note_on_c, 0, 69, 0
1, 14349, Note_on_c, 0, 65, 0
1, 14352, Note_on_c, 1, 60, 70
1, 14352, Note_on_c, 1, 53, 70
1, 14397, Note_on_c, 1, 60, 0
1, 14397, Note_on_c, 1, 53, 0
1, 14400, Note_on_c, 1, 58, 69
1, 14400, Note_on_c, 1, 46, 69
1, 14448, Note_on_c, 0, 67, 69
1, 14489, Note_on_c, 1, 58, 0
1, 14489, Note_on_c, 1, 46, 0
1, 14493, Note_on_c, 0, 67, 0
1, 14496, Note_on_c, 0, 65, 69
1, 14496, Note_on_c, 1, 57, 69
1, 14496, Note_on_c, 1, 48, 64
1, 14508, Note_on_c, 0, 65, 0
1, 14508, Note_on_c, 0, 67, 69
1, 14520, Note_on_c, 0, 67, 0
1, 14520, Note_on_c, 0, 65, 69
1, 14541, Note_on_c, 0, 65, 0
1, 14541, Note_on_c, 1, 57, 0
1, 14544, Note_on_c, 0, 64, 69
1, 14544, Note_on_c, 1, 55, 69
1, 14585, Note_on_c, 1, 48, 0
1, 14589, Note_on_c, 0, 64, 0
1, 14589, Note_on_c, 1, 55, 0
1, 14592, Note_on_c, 0, 65, 69
1, 14592, Note_on_c, 1, 53, 69
1, 14637, Note_on_c, 1, 53, 0
1, 14640, Note_on_c, 1, 48, 69
1, 14681, Note_on_c, 0, 65, 0
1, 14685, Note_on_c, 1, 48, 0
1, 14688, Note_on_c, 1, 41, 69
1, 14733, Note_on_c, 1, 41, 0
1, 14736, Note_on_c, 0, 62, 69
1, 14781, Note_on_c, 0, 62, 0
1, 14784, Note_on_c, 0, 66, 69
1, 14784, Note_on_c, 0, 60, 69
1, 14829, Note_on_c, 0, 66, 0
1, 14829, Note_on_c, 0, 60, 0
1, 14832, Note_on_c, 1, 57, 70
1, 14832, Note_on_c, 1, 50, 70
1, 14877, Note_on_c, 1, 57, 0
1, 14877, Note_on_c, 1, 50, 0
1, 14880, Note_on_c, 0, 67, 72
1, 14880, Note_on_c, 0, 59, 72
1, 14925, Note_on_c, 0, 67, 0
1, 14925, Note_on_c, 0, 59, 0
1, 14928, Note_on_c, 1, 55, 74
1, 14928, Note_on_c, 1, 43, 74
1, 14973, Note_on_c, 1, 55, 0
1, 14973, Note_on_c, 1, 43, 0
1, 14976, Note_on_c, 0, 68, 76
1, 14976, Note_on_c, 0, 62, 76
1, 15021, Note_on_c, 0, 68, 0
1, 15021, Note_on_c, 0, 62, 0
1, 15024, Note_on_c, 1, 59, 78
1, 15024, Note_on_c, 1, 52, 78
1, 15069, Note_on_c, 1, 59, 0
1, 15069, Note_on_c, 1, 52, 0
1, 15072, Note_on_c, 0, 69, 80
1, 15072, Note_on_c, 0, 61, 80
1, 15117, Note_on_c, 0, 69, 0
1, 15117, Note_on_c, 0, 61, 0
1, 15120, Note_on_c, 1, 57, 82
1, 15120, Note_on_c, 1, 45, 82
1, 15165, Note_on_c, 1, 57, 0
1, 15165, Note_on_c, 1, 45, 0
1, 15168, Note_on_c, 1, 57, 84
1, 15168, Note_on_c, 1, 49, 64
1, 15216, Note_on_c, 0, 67, 84
1, 15216, Note_on_c, 0, 64, 84
1, 15257, Note_on_c, 1, 49, 0
1, 15261, Note_on_c, 0, 67, 0
1, 15261, Note_on_c, 0, 64, 0
1, 15264, Note_on_c, 0, 67, 84
1, 15264, Note_on_c, 0, 64, 84
1, 15264, Note_on_c, 1, 50, 64
1, 15309, Note_on_c, 0, 67, 0
1, 15309, Note_on_c, 0, 64, 0
1, 15312, Note_on_c, 0, 65, 84
1, 15312, Note_on_c, 0, 62, 84
1, 15345, Note_on_c, 1, 57, 0
1, 15353, Note_on_c, 1, 50, 0
1, 15357, Note_on_c, 0, 65, 0
1, 15357, Note_on_c, 0, 62, 0
1, 15360, Note_on_c, 0, 65, 81
1, 15360, Note_on_c, 0, 62, 81
1, 15360, Note_on_c, 1, 45, 84
1, 15405, Note_on_c, 1, 45, 0
1, 15408, Note_on_c, 1, 57, 81
1, 15453, Note_on_c, 1, 57, 0
1, 15456, Note_on_c, 0, 65, 0
1, 15456, Note_on_c, 0, 62, 0
1, 15456, Note_on_c, 0, 64, 77
1, 15456, Note_on_c, 0, 61, 77
1, 15456, Note_on_c, 1, 45, 78
1, 15501, Note_on_c, 0, 64, 0
1, 15501, Note_on_c, 0, 61, 0
1, 15501, Note_on_c, 1, 45, 0
1, 15504, Note_on_c, 0, 62, 84
1, 15504, Note_on_c, 1, 50, 84
1, 15524, Note_on_c, 0, 62, 0
1, 15524, Note_on_c, 1, 50, 0
1, 15552, Note_on_c, 0, 65, 84
1, 15552, Note_on_c, 1, 53, 84
1, 15572, Note_on_c, 0, 65, 0
1, 15572, Note_on_c, 1, 53, 0
1, 15600, Note_on_c, 0, 64, 84
1, 15600, Note_on_c, 1, 52, 84
1, 15620, Note_on_c, 0, 64, 0
1, 15620, Note_on_c, 1, 52, 0
1, 15648, Note_on_c, 0, 62, 84
1, 15648, Note_on_c, 1, 50, 84
1, 15668, Note_on_c, 0, 62, 0
1, 15668, Note_on_c, 1, 50, 0
1, 15696, Note_on_c, 0, 61, 84
1, 15696, Note_on_c, 1, 49, 84
1, 15716, Note_on_c, 0, 61, 0
1, 15716, Note_on_c, 1, 49, 0
1, 15744, Note_on_c, 0, 62, 84
1, 15744, Note_on_c, 1, 50, 84
1, 15764, Note_on_c, 0, 62, 0
1, 15764, Note_on_c, 1, 50, 0
1, 15792, Note_on_c, 0, 57, 84
1, 15792, Note_on_c, 1, 45, 84
1, 15812, Note_on_c, 0, 57, 0
1, 15812, Note_on_c, 1, 45, 0
1, 15840, Note_on_c, 0, 58, 84
1, 15840, Note_on_c, 1, 46, 84
1, 15860, Note_on_c, 0, 58, 0
1, 15860, Note_on_c, 1, 46, 0
1, 15888, Note_on_c, 0, 57, 84
1, 15888, Note_on_c, 1, 45, 84
1, 15908, Note_on_c, 0, 57, 0
1, 15908, Note_on_c, 1, 45, 0
1, 15936, Note_on_c, 0, 58, 84
1, 15936, Note_on_c, 1, 46, 84
1, 15948, Note_on_c, 0, 58, 0
1, 15948, Note_on_c, 0, 60, 84
1, 15948, Note_on_c, 1, 46, 0
1, 15948, Note_on_c, 1, 48, 84
1, 15960, Note_on_c, 0, 60, 0
1, 15960, Note_on_c, 0, 58, 84
1, 15960, Note_on_c, 1, 48, 0
1, 15960, Note_on_c, 1, 46, 84
1, 15981, Note_on_c, 0, 58, 0
1, 15981, Note_on_c, 1, 46, 0
1, 15984, Note_on_c, 0, 57, 84
1, 15984, Note_on_c, 1, 45, 84
1, 16029, Note_on_c, 0, 57, 0
1, 16029, Note_on_c, 1, 45, 0
1, 16032, Note_on_c, 0, 58, 84
1, 16032, Note_on_c, 1, 46, 84
1, 16052, Note_on_c, 0, 58, 0
1, 16052, Note_on_c, 1, 46, 0
1, 16080, Note_on_c, 0, 57, 84
1, 16080, Note_on_c, 1, 45, 84
1, 16100, Note_on_c, 0, 57, 0
1, 16100, Note_on_c, 1, 45, 0
1, 16128, Note_on_c, 0, 58, 84
1, 16128, Note_on_c, 1, 46, 84
1, 16140, Note_on_c, 0, 58, 0
1, 16140, Note_on_c, 0, 60, 84
1, 16140, Note_on_c, 1, 46, 0
1, 16140, Note_on_c, 1, 48, 84
1, 16152, Note_on_c, 0, 60, 0
1, 16152, Note_on_c, 0, 58, 84
1, 16152, Note_on_c, 1, 48, 0
1, 16152, Note_on_c, 1, 46, 84
1, 16173, Note_on_c, 0, 58, 0
1, 16173, Note_on_c, 1, 46, 0
1, 16176, Note_on_c, 0, 57, 84
1, 16176, Note_on_c, 1, 45, 84
1, 16221, Note_on_c, 0, 57, 0
1, 16221, Note_on_c, 1, 45, 0
1, 16320, Note_on_c, 0, 67, 69
1, 16320, Note_on_c, 0, 64, 69
1, 16368, Note_on_c, 1, 45, 69
1, 16413, Note_on_c, 1, 45, 0
1, 16416, Note_on_c, 1, 57, 69
1, 16461, Note_on_c, 1, 57, 0
1, 16464, Note_on_c, 1, 61, 69
1, 16497, Note_on_c, 0, 67, 0
1, 16497, Note_on_c, 0, 64, 0
1, 16509, Note_on_c, 1, 61, 0
1, 16512, Note_on_c, 0, 65, 69
1, 16512, Note_on_c, 0, 62, 69
1, 16560, Note_on_c, 1, 38, 69
1, 16605, Note_on_c, 1, 38, 0
1, 16608, Note_on_c, 1, 50, 69
1, 16653, Note_on_c, 1, 50, 0
1, 16656, Note_on_c, 1, 53, 69
1, 16689, Note_on_c, 0, 65, 0
1, 16689, Note_on_c, 0, 62, 0
1, 16701, Note_on_c, 1, 53, 0
1, 16704, Note_on_c, 1, 55, 69
1, 16704, Note_on_c, 1, 43, 69
1, 16752, Note_on_c, 0, 67, 69
1, 16752, Note_on_c, 0, 58, 69
1, 16793, Note_on_c, 1, 55, 0
1, 16793, Note_on_c, 1, 43, 0
1, 16797, Note_on_c, 0, 67, 0
1, 16797, Note_on_c, 0, 58, 0
1, 16800, Note_on_c, 1, 52, 69
1, 16800, Note_on_c, 1, 45, 69
1, 16848, Note_on_c, 0, 61, 69
1, 16848, Note_on_c, 0, 55, 69
1, 16889, Note_on_c, 1, 52, 0
1, 16889, Note_on_c, 1, 45, 0
1, 16893, Note_on_c, 0, 61, 0
1, 16893, Note_on_c, 0, 55, 0
1, 16896, Note_on_c, 0, 62, 69
1, 16896, Note_on_c, 0, 53, 69
1, 16896, Note_on_c, 1, 50, 69
1, 16941, Note_on_c, 1, 50, 0
1, 16944, Note_on_c, 1, 45, 69
1, 16985, Note_on_c, 0, 62, 0
1, 16985, Note_on_c, 0, 53, 0
1, 16989, Note_on_c, 1, 45, 0
1, 16992, Note_on_c, 1, 38, 69
1, 17037, Note_on_c, 1, 38, 0
1, 17040, Note_on_c, 0, 81, 69
1, 17085, Note_on_c, 0, 81, 0
1, 17088, Note_on_c, 0, 78, 69
1, 17088, Note_on_c, 1, 62, 69
1, 17111, Note_on_c, 0, 78, 0
1, 17112, Note_on_c, 0, 81, 69
1, 17127, Note_on_c, 1, 62, 0
1, 17135, Note_on_c, 0, 81, 0
1, 17136, Note_on_c, 0, 86, 69
1, 17159, Note_on_c, 0, 86, 0
1, 17160, Note_on_c, 0, 81, 69
1, 17183, Note_on_c, 0, 81, 0
1, 17184, Note_on_c, 0, 78, 69
1, 17184, Note_on_c, 1, 64, 69
1, 17207, Note_on_c, 0, 78, 0
1, 17208, Note_on_c, 0, 79, 69
1, 17223, Note_on_c, 1, 64, 0
1, 17231, Note_on_c, 0, 79, 0
1, 17232, Note_on_c, 0, 83, 69
1, 17255, Note_on_c, 0, 83, 0
1, 17256, Note_on_c, 0, 79, 69
1, 17279, Note_on_c, 0, 79, 0
1, 17280, Note_on_c, 0, 76, 69
1, 17280, Note_on_c, 1, 61, 69
1, 17303, Note_on_c, 0, 76, 0
1, 17304, Note_on_c, 0, 79, 69
1, 17319, Note_on_c, 1, 61, 0
1, 17327, Note_on_c, 0, 79, 0
1, 17328, Note_on_c, 0, 81, 69
1, 17351, Note_on_c, 0, 81, 0
1, 17352, Note_on_c, 0, 79, 69
1, 17375, Note_on_c, 0, 79, 0
1, 17376, Note_on_c, 0, 74, 69
1, 17376, Note_on_c, 1, 62, 69
1, 17399, Note_on_c, 0, 74, 0
1, 17400, Note_on_c, 0, 78, 69
1, 17415, Note_on_c, 1, 62, 0
1, 17423, Note_on_c, 0, 78, 0
1, 17424, Note_on_c, 0, 81, 69
1, 17447, Note_on_c, 0, 81, 0
1, 17448, Note_on_c, 0, 78, 69
1, 17471, Note_on_c, 0, 78, 0
1, 17472, Note_on_c, 0, 71, 75
1, 17472, Note_on_c, 1, 55, 75
1, 17495, Note_on_c, 0, 71, 0
1, 17496, Note_on_c, 0, 76, 76
1, 17511, Note_on_c, 1, 55, 0
1, 17519, Note_on_c, 0, 76, 0
1, 17520, Note_on_c, 0, 79, 77
1, 17543, Note_on_c, 0, 79, 0
1, 17544, Note_on_c, 0, 76, 78
1, 17567, Note_on_c, 0, 76, 0
1, 17568, Note_on_c, 0, 71, 79
1, 17568, Note_on_c, 1, 56, 79
1, 17591, Note_on_c, 0, 71, 0
1, 17592, Note_on_c, 0, 74, 80
1, 17607, Note_on_c, 1, 56, 0
1, 17615, Note_on_c, 0, 74, 0
1, 17616, Note_on_c, 0, 76, 81
1, 17639, Note_on_c, 0, 76, 0
1, 17640, Note_on_c, 0, 74, 82
1, 17663, Note_on_c, 0, 74, 0
1, 17664, Note_on_c, 0, 69, 84
1, 17664, Note_on_c, 1, 57, 84
1, 17687, Note_on_c, 0, 69, 0
1, 17688, Note_on_c, 0, 73, 84
1, 17711, Note_on_c, 0, 73, 0
1, 17712, Note_on_c, 0, 76, 84
1, 17735, Note_on_c, 0, 76, 0
1, 17736, Note_on_c, 0, 73, 84
1, 17758, Note_on_c, 1, 57, 0
1, 17759, Note_on_c, 0, 73, 0
1, 17760, Note_on_c, 0, 69, 84
1, 17805, Note_on_c, 0, 69, 0
1, 17808, Note_on_c, 0, 81, 84
1, 17853, Note_on_c, 0, 81, 0
1, 17856, Note_on_c, 0, 78, 75
1, 17856, Note_on_c, 1, 62, 75
1, 17879, Note_on_c, 0, 78, 0
1, 17880, Note_on_c, 0, 81, 75
1, 17895, Note_on_c, 1, 62, 0
1, 17903, Note_on_c, 0, 81, 0
1, 17904, Note_on_c, 0, 86, 75
1, 17927, Note_on_c, 0, 86, 0
1, 17928, Note_on_c, 0, 81, 75
1, 17951, Note_on_c, 0, 81, 0
1, 17952, Note_on_c, 0, 78, 75
1, 17952, Note_on_c, 1, 64, 75
1, 17975, Note_on_c, 0, 78, 0
1, 17976, Note_on_c, 0, 79, 75
1, 17991, Note_on_c, 1, 64, 0
1, 17999, Note_on_c, 0, 79, 0
1, 18000, Note_on_c, 0, 83, 75
1, 18023, Note_on_c, 0, 83, 0
1, 18024, Note_on_c, 0, 79, 75
1, 18047, Note_on_c, 0, 79, 0
1, 18048, Note_on_c, 0, 76, 75
1, 18048, Note_on_c, 1, 61, 75
1, 18071, Note_on_c, 0, 76, 0
1, 18072, Note_on_c, 0, 79, 75
1, 18087, Note_on_c, 1, 61, 0
1, 18095, Note_on_c, 0, 79, 0
1, 18096, Note_on_c, 0, 81, 75
1, 18119, Note_on_c, 0, 81, 0
1, 18120, Note_on_c, 0, 79, 75
1, 18143, Note_on_c, 0, 79, 0
1, 18144, Note_on_c, 0, 74, 75
1, 18144, Note_on_c, 1, 62, 75
1, 18167, Note_on_c, 0, 74, 0
1, 18168, Note_on_c, 0, 78, 75
1, 18183, Note_on_c, 1, 62, 0
1, 18191, Note_on_c, 0, 78, 0
1, 18192, Note_on_c, 0, 81, 75
1, 18215, Note_on_c, 0, 81, 0
1, 18216, Note_on_c, 0, 78, 75
1, 18239, Note_on_c, 0, 78, 0
1, 18240, Note_on_c, 0, 71, 75
1, 18240, Note_on_c, 1, 55, 75
1, 18263, Note_on_c, 0, 71, 0
1, 18264, Note_on_c, 0, 76, 75
1, 18279, Note_on_c, 1, 55, 0
1, 18287, Note_on_c, 0, 76, 0
1, 18288, Note_on_c, 0, 79, 75
1, 18311, Note_on_c, 0, 79, 0
1, 18312, Note_on_c, 0, 76, 75
1, 18335, Note_on_c, 0, 76, 0
1, 18336, Note_on_c, 0, 69, 75
1, 18336, Note_on_c, 1, 57, 75
1, 18359, Note_on_c, 0, 69, 0
1, 18360, Note_on_c, 0, 73, 75
1, 18375, Note_on_c, 1, 57, 0
1, 18383, Note_on_c, 0, 73, 0
1, 18384, Note_on_c, 0, 76, 75
1, 18407, Note_on_c, 0, 76, 0
1, 18408, Note_on_c, 0, 73, 75
1, 18431, Note_on_c, 0, 73, 0
1, 18432, Note_on_c, 0, 74, 75
1, 18432, Note_on_c, 1, 50, 75
1, 18477, Note_on_c, 1, 50, 0
1, 18480, Note_on_c, 1, 62, 75
1, 18521, Note_on_c, 0, 74, 0
1, 18525, Note_on_c, 1, 62, 0
1, 18528, Note_on_c, 1, 50, 75
1, 18573, Note_on_c, 1, 50, 0
1, 18576, Note_on_c, 0, 81, 69
1, 18621, Note_on_c, 0, 81, 0
1, 18624, Note_on_c, 0, 78, 69
1, 18624, Note_on_c, 1, 62, 69
1, 18647, Note_on_c, 0, 78, 0
1, 18648, Note_on_c, 0, 81, 69
1, 18663, Note_on_c, 1, 62, 0
1, 18671, Note_on_c, 0, 81, 0
1, 18672, Note_on_c, 0, 86, 69
1, 18695, Note_on_c, 0, 86, 0
1, 18696, Note_on_c, 0, 81, 69
1, 18719, Note_on_c, 0, 81, 0
1, 18720, Note_on_c, 0, 78, 69
1, 18720, Note_on_c, 1, 64, 69
1, 18743, Note_on_c, 0, 78, 0
1, 18744, Note_on_c, 0, 79, 69
1, 18759, Note_on_c, 1, 64, 0
1, 18767, Note_on_c, 0, 79, 0
1, 18768, Note_on_c, 0, 83, 69
1, 18791, Note_on_c, 0, 83, 0
1, 18792, Note_on_c, 0, 79, 69
1, 18815, Note_on_c, 0, 79, 0
1, 18816, Note_on_c, 0, 76, 69
1, 18816, Note_on_c, 1, 61, 69
1, 18839, Note_on_c, 0, 76, 0
1, 18840, Note_on_c, 0, 79, 69
1, 18855, Note_on_c, 1, 61, 0
1, 18863, Note_on_c, 0, 79, 0
1, 18864, Note_on_c, 0, 81, 69
1, 18887, Note_on_c, 0, 81, 0
1, 18888, Note_on_c, 0, 79, 69
1, 18911, Note_on_c, 0, 79, 0
1, 18912, Note_on_c, 0, 74, 69
1, 18912, Note_on_c, 1, 62, 69
1, 18935, Note_on_c, 0, 74, 0
1, 18936, Note_on_c, 0, 78, 69
1, 18951, Note_on_c, 1, 62, 0
1, 18959, Note_on_c, 0, 78, 0
1, 18960, Note_on_c, 0, 81, 69
1, 18983, Note_on_c, 0, 81, 0
1, 18984, Note_on_c, 0, 78, 69
1, 19007, Note_on_c, 0, 78, 0
1, 19008, Note_on_c, 0, 71, 75
1, 19008, Note_on_c, 1, 55, 75
1, 19031, Note_on_c, 0, 71, 0
1, 19032, Note_on_c, 0, 76, 76
1, 19047, Note_on_c, 1, 55, 0
1, 19055, Note_on_c, 0, 76, 0
1, 19056, Note_on_c, 0, 79, 77
1, 19079, Note_on_c, 0, 79, 0
1, 19080, Note_on_c, 0, 76, 78
1, 19103, Note_on_c, 0, 76, 0
1, 19104, Note_on_c, 0, 71, 79
1, 19104, Note_on_c, 1, 56, 79
1, 19127, Note_on_c, 0, 71, 0
1, 19128, Note_on_c, 0, 74, 80
1, 19143, Note_on_c, 1, 56, 0
1, 19151, Note_on_c, 0, 74, 0
1, 19152, Note_on_c, 0, 76, 81
1, 19175, Note_on_c, 0, 76, 0
1, 19176, Note_on_c, 0, 74, 82
1, 19199, Note_on_c, 0, 74, 0
1, 19200, Note_on_c, 0, 69, 84
1, 19200, Note_on_c, 1, 57, 84
1, 19223, Note_on_c, 0, 69, 0
1, 19224, Note_on_c, 0, 73, 84
1, 19247, Note_on_c, 0, 73, 0
1, 19248, Note_on_c, 0, 76, 84
1, 19271, Note_on_c, 0, 76, 0
1, 19272, Note_on_c, 0, 73, 84
1, 19294, Note_on_c, 1, 57, 0
1, 19295, Note_on_c, 0, 73, 0
1, 19296, Note_on_c, 0, 69, 84
1, 19341, Note_on_c, 0, 69, 0
1, 19344, Note_on_c, 0, 81, 84
1, 19389, Note_on_c, 0, 81, 0
1, 19392, Note_on_c, 0, 78, 75
1, 19392, Note_on_c, 1, 62, 75
1, 19415, Note_on_c, 0, 78, 0
1, 19416, Note_on_c, 0, 81, 75
1, 19431, Note_on_c, 1, 62, 0
1, 19439, Note_on_c, 0, 81, 0
1, 19440, Note_on_c, 0, 86, 75
1, 19463, Note_on_c, 0, 86, 0
1, 19464, Note_on_c, 0, 81, 75
1, 19487, Note_on_c, 0, 81, 0
1, 19488, Note_on_c, 0, 78, 75
1, 19488, Note_on_c, 1, 64, 75
1, 19511, Note_on_c, 0, 78, 0
1, 19512, Note_on_c, 0, 79, 75
1, 19527, Note_on_c, 1, 64, 0
1, 19535, Note_on_c, 0, 79, 0
1, 19536, Note_on_c, 0, 83, 75
1, 19559, Note_on_c, 0, 83, 0
1, 19560, Note_on_c, 0, 79, 75
1, 19583, Note_on_c, 0, 79, 0
1, 19584, Note_on_c, 0, 76, 75
1, 19584, Note_on_c, 1, 61, 75
1, 19607, Note_on_c, 0, 76, 0
1, 19608, Note_on_c, 0, 79, 75
1, 19623, Note_on_c, 1, 61, 0
1, 19631, Note_on_c, 0, 79, 0
1, 19632, Note_on_c, 0, 81, 75
1, 19655, Note_on_c, 0, 81, 0
1, 19656, Note_on_c, 0, 79, 75
1, 19679, Note_on_c, 0, 79, 0
1, 19680, Note_on_c, 0, 74, 75
1, 19680, Note_on_c, 1, 62, 75
1, 19703, Note_on_c, 0, 74, 0
1, 19704, Note_on_c, 0, 78, 75
1, 19719, Note_on_c, 1, 62, 0
1, 19727, Note_on_c, 0, 78, 0
1, 19728, Note_on_c, 0, 81, 75
1, 19751, Note_on_c, 0, 81, 0
1, 19752, Note_on_c, 0, 78, 75
1, 19775, Note_on_c, 0, 78, 0
1, 19776, Note_on_c, 0, 71, 75
1, 19776, Note_on_c, 1, 55, 75
1, 19799, Note_on_c, 0, 71, 0
1, 19800, Note_on_c, 0, 76, 75
1, 19815, Note_on_c, 1, 55, 0
1, 19823, Note_on_c, 0, 76, 0
1, 19824, Note_on_c, 0, 79, 75
1, 19847, Note_on_c, 0, 79, 0
1, 19848, Note_on_c, 0, 76, 75
1, 19871, Note_on_c, 0, 76, 0
1, 19872, Note_on_c, 0, 69, 75
1, 19872, Note_on_c, 1, 57, 75
1, 19895, Note_on_c, 0, 69, 0
1, 19896, Note_on_c, 0, 73, 75
1, 19911, Note_on_c, 1, 57, 0
1, 19919, Note_on_c, 0, 73, 0
1, 19920, Note_on_c, 0, 76, 75
1, 19943, Note_on_c, 0, 76, 0
1, 19944, Note_on_c, 0, 73, 75
1, 19967, Note_on_c, 0, 73, 0
1, 19968, Note_on_c, 0, 74, 75
1, 19968, Note_on_c, 1, 50, 75
1, 20013, Note_on_c, 1, 50, 0
1, 20016, Note_on_c, 1, 62, 75
1, 20057, Note_on_c, 0, 74, 0
1, 20061, Note_on_c, 1, 62, 0
1, 20064, Note_on_c, 1, 50, 75
1, 20109, Note_on_c, 1, 50, 0
1, 20112, Note_on_c, 0, 78, 75
1, 20157, Note_on_c, 0, 78, 0
1, 20160, Note_on_c, 0, 69, 75
1, 20160, Note_on_c, 1, 61, 75
1, 20183, Note_on_c, 0, 69, 0
1, 20184, Note_on_c, 0, 76, 75
1, 20199, Note_on_c, 1, 61, 0
1, 20207, Note_on_c, 0, 76, 0
1, 20208, Note_on_c, 0, 79, 75
1, 20231, Note_on_c, 0, 79, 0
1, 20232, Note_on_c, 0, 76, 75
1, 20255, Note_on_c, 0, 76, 0
1, 20256, Note_on_c, 0, 73, 75
1, 20256, Note_on_c, 1, 69, 75
1, 20279, Note_on_c, 0, 73, 0
1, 20280, Note_on_c, 0, 76, 75
1, 20295, Note_on_c, 1, 69, 0
1, 20303, Note_on_c, 0, 76, 0
1, 20304, Note_on_c, 0, 79, 75
1, 20327, Note_on_c, 0, 79, 0
1, 20328, Note_on_c, 0, 76, 75
1, 20351, Note_on_c, 0, 76, 0
1, 20352, Note_on_c, 0, 69, 75
1, 20352, Note_on_c, 1, 62, 75
1, 20375, Note_on_c, 0, 69, 0
1, 20376, Note_on_c, 0, 74, 75
1, 20391, Note_on_c, 1, 62, 0
1, 20399, Note_on_c, 0, 74, 0
1, 20400, Note_on_c, 0, 78, 75
1, 20423, Note_on_c, 0, 78, 0
1, 20424, Note_on_c, 0, 74, 75
1, 20447, Note_on_c, 0, 74, 0
1, 20448, Note_on_c, 0, 69, 75
1, 20448, Note_on_c, 1, 54, 75
1, 20471, Note_on_c, 0, 69, 0
1, 20472, Note_on_c, 0, 74, 75
1, 20487, Note_on_c, 1, 54, 0
1, 20495, Note_on_c, 0, 74, 0
1, 20496, Note_on_c, 0, 78, 75
1, 20519, Note_on_c, 0, 78, 0
1, 20520, Note_on_c, 0, 74, 75
1, 20543, Note_on_c, 0, 74, 0
1, 20544, Note_on_c, 0, 71, 75
1, 20544, Note_on_c, 1, 55, 75
1, 20567, Note_on_c, 0, 71, 0
1, 20568, Note_on_c, 0, 74, 76
1, 20583, Note_on_c, 1, 55, 0
1, 20591, Note_on_c, 0, 74, 0
1, 20592, Note_on_c, 0, 76, 77
1, 20615, Note_on_c, 0, 76, 0
1, 20616, Note_on_c, 0, 74, 78
1, 20639, Note_on_c, 0, 74, 0
1, 20640, Note_on_c, 0, 71, 79
1, 20640, Note_on_c, 1, 56, 78
1, 20663, Note_on_c, 0, 71, 0
1, 20664, Note_on_c, 0, 74, 80
1, 20679, Note_on_c, 1, 56, 0
1, 20687, Note_on_c, 0, 74, 0
1, 20688, Note_on_c, 0, 76, 81
1, 20711, Note_on_c, 0, 76, 0
1, 20712, Note_on_c, 0, 74, 82
1, 20735, Note_on_c, 0, 74, 0
1, 20736, Note_on_c, 0, 69, 83
1, 20736, Note_on_c, 1, 57, 81
1, 20759, Note_on_c, 0, 69, 0
1, 20760, Note_on_c, 0, 73, 84
1, 20783, Note_on_c, 0, 73, 0
1, 20784, Note_on_c, 0, 76, 84
1, 20807, Note_on_c, 0, 76, 0
1, 20808, Note_on_c, 0, 73, 84
1, 20830, Note_on_c, 1, 57, 0
1, 20831, Note_on_c, 0, 73, 0
1, 20832, Note_on_c, 0, 69, 84
1, 20877, Note_on_c, 0, 69, 0
1, 20880, Note_on_c, 0, 78, 75
1, 20925, Note_on_c, 0, 78, 0
1, 20928, Note_on_c, 0, 69, 75
1, 20928, Note_on_c, 1, 61, 75
1, 20951, Note_on_c, 0, 69, 0
1, 20952, Note_on_c, 0, 76, 75
1, 20967, Note_on_c, 1, 61, 0
1, 20975, Note_on_c, 0, 76, 0
1, 20976, Note_on_c, 0, 79, 75
1, 20999, Note_on_c, 0, 79, 0
1, 21000, Note_on_c, 0, 76, 75
1, 21023, Note_on_c, 0, 76, 0
1, 21024, Note_on_c, 0, 73, 75
1, 21024, Note_on_c, 1, 69, 75
1, 21047, Note_on_c, 0, 73, 0
1, 21048, Note_on_c, 0, 76, 75
1, 21063, Note_on_c, 1, 69, 0
1, 21071, Note_on_c, 0, 76, 0
1, 21072, Note_on_c, 0, 79, 75
1, 21095, Note_on_c, 0, 79, 0
1, 21096, Note_on_c, 0, 76, 75
1, 21119, Note_on_c, 0, 76, 0
1, 21120, Note_on_c, 0, 69, 75
1, 21120, Note_on_c, 1, 62, 75
1, 21143, Note_on_c, 0, 69, 0
1, 21144, Note_on_c, 0, 74, 75
1, 21159, Note_on_c, 1, 62, 0
1, 21167, Note_on_c, 0, 74, 0
1, 21168, Note_on_c, 0, 78, 75
1, 21191, Note_on_c, 0, 78, 0
1, 21192, Note_on_c, 0, 74, 75
1, 21215, Note_on_c, 0, 74, 0
1, 21216, Note_on_c, 0, 69, 75
1, 21216, Note_on_c, 1, 54, 75
1, 21239, Note_on_c, 0, 69, 0
1, 21240, Note_on_c, 0, 74, 75
1, 21255, Note_on_c, 1, 54, 0
1, 21263, Note_on_c, 0, 74, 0
1, 21264, Note_on_c, 0, 78, 75
1, 21287, Note_on_c, 0, 78, 0
1, 21288, Note_on_c, 0, 74, 75
1, 21311, Note_on_c, 0, 74, 0
1, 21312, Note_on_c, 0, 71, 75
1, 21312, Note_on_c, 1, 55, 75
1, 21335, Note_on_c, 0, 71, 0
1, 21336, Note_on_c, 0, 74, 75
1, 21351, Note_on_c, 1, 55, 0
1, 21359, Note_on_c, 0, 74, 0
1, 21360, Note_on_c, 0, 76, 75
1, 21383, Note_on_c, 0, 76, 0
1, 21384, Note_on_c, 0, 74, 75
1, 21407, Note_on_c, 0, 74, 0
1, 21408, Note_on_c, 0, 69, 75
1, 21408, Note_on_c, 1, 57, 75
1, 21431, Note_on_c, 0, 69, 0
1, 21432, Note_on_c, 0, 73, 75
1, 21447, Note_on_c, 1, 57, 0
1, 21455, Note_on_c, 0, 73, 0
1, 21456, Note_on_c, 0, 76, 75
1, 21479, Note_on_c, 0, 76, 0
1, 21480, Note_on_c, 0, 73, 75
1, 21503, Note_on_c, 0, 73, 0
1, 21504, Note_on_c, 0, 74, 75
1, 21504, Note_on_c, 1, 50, 75
1, 21549, Note_on_c, 1, 50, 0
1, 21552, Note_on_c, 1, 62, 75
1, 21593, Note_on_c, 0, 74, 0
1, 21597, Note_on_c, 1, 62, 0
1, 21600, Note_on_c, 1, 50, 75
1, 21645, Note_on_c, 1, 50, 0
1, 21648, Note_on_c, 0, 78, 75
1, 21693, Note_on_c, 0, 78, 0
1, 21696, Note_on_c, 0, 69, 75
1, 21696, Note_on_c, 1, 61, 75
1, 21719, Note_on_c, 0, 69, 0
1, 21720, Note_on_c, 0, 76, 75
1, 21735, Note_on_c, 1, 61, 0
1, 21743, Note_on_c, 0, 76, 0
1, 21744, Note_on_c, 0, 79, 75
1, 21767, Note_on_c, 0, 79, 0
1, 21768, Note_on_c, 0, 76, 75
1, 21791, Note_on_c, 0, 76, 0
1, 21792, Note_on_c, 0, 73, 75
1, 21792, Note_on_c, 1, 69, 75
1, 21815, Note_on_c, 0, 73, 0
1, 21816, Note_on_c, 0, 76, 75
1, 21831, Note_on_c, 1, 69, 0
1, 21839, Note_on_c, 0, 76, 0
1, 21840, Note_on_c, 0, 79, 75
1, 21863, Note_on_c, 0, 79, 0
1, 21864, Note_on_c, 0, 76, 75
1, 21887, Note_on_c, 0, 76, 0
1, 21888, Note_on_c, 0, 69, 75
1, 21888, Note_on_c, 1, 62, 75
1, 21911, Note_on_c, 0, 69, 0
1, 21912, Note_on_c, 0, 74, 75
1, 21927, Note_on_c, 1, 62, 0
1, 21935, Note_on_c, 0, 74, 0
1, 21936, Note_on_c, 0, 78, 75
1, 21959, Note_on_c, 0, 78, 0
1, 21960, Note_on_c, 0, 74, 75
1, 21983, Note_on_c, 0, 74, 0
1, 21984, Note_on_c, 0, 69, 75
1, 21984, Note_on_c, 1, 54, 75
1, 22007, Note_on_c, 0, 69, 0
1, 22008, Note_on_c, 0, 74, 75
1, 22023, Note_on_c, 1, 54, 0
1, 22031, Note_on_c, 0, 74, 0
1, 22032, Note_on_c, 0, 78, 75
1, 22055, Note_on_c, 0, 78, 0
1, 22056, Note_on_c, 0, 74, 75
1, 22079, Note_on_c, 0, 74, 0
1, 22080, Note_on_c, 0, 71, 75
1, 22080, Note_on_c, 1, 55, 75
1, 22103, Note_on_c, 0, 71, 0
1, 22104, Note_on_c, 0, 74, 76
1, 22119, Note_on_c, 1, 55, 0
1, 22127, Note_on_c, 0, 74, 0
1, 22128, Note_on_c, 0, 76, 77
1, 22151, Note_on_c, 0, 76, 0
1, 22152, Note_on_c, 0, 74, 78
1, 22175, Note_on_c, 0, 74, 0
1, 22176, Note_on_c, 0, 71, 79
1, 22176, Note_on_c, 1, 56, 78
1, 22199, Note_on_c, 0, 71, 0
1, 22200, Note_on_c, 0, 74, 80
1, 22215, Note_on_c, 1, 56, 0
1, 22223, Note_on_c, 0, 74, 0
1, 22224, Note_on_c, 0, 76, 81
1, 22247, Note_on_c, 0, 76, 0
1, 22248, Note_on_c, 0, 74, 82
1, 22271, Note_on_c, 0, 74, 0
1, 22272, Note_on_c, 0, 69, 83
1, 22272, Note_on_c, 1, 57, 81
1, 22295, Note_on_c, 0, 69, 0
1, 22296, Note_on_c, 0, 73, 84
1, 22319, Note_on_c, 0, 73, 0
1, 22320, Note_on_c, 0, 76, 84
1, 22343, Note_on_c, 0, 76, 0
1, 22344, Note_on_c, 0, 73, 84
1, 22366, Note_on_c, 1, 57, 0
1, 22367, Note_on_c, 0, 73, 0
1, 22368, Note_on_c, 0, 69, 84
1, 22413, Note_on_c, 0, 69, 0
1, 22416, Note_on_c, 0, 78, 75
1, 22461, Note_on_c, 0, 78, 0
1, 22464, Note_on_c, 0, 69, 75
1, 22464, Note_on_c, 1, 61, 75
1, 22487, Note_on_c, 0, 69, 0
1, 22488, Note_on_c, 0, 76, 75
1, 22503, Note_on_c, 1, 61, 0
1, 22511, Note_on_c, 0, 76, 0
1, 22512, Note_on_c, 0, 79, 75
1, 22535, Note_on_c, 0, 79, 0
1, 22536, Note_on_c, 0, 76, 75
1, 22559, Note_on_c, 0, 76, 0
1, 22560, Note_on_c, 0, 73, 75
1, 22560, Note_on_c, 1, 69, 75
1, 22583, Note_on_c, 0, 73, 0
1, 22584, Note_on_c, 0, 76, 75
1, 22599, Note_on_c, 1, 69, 0
1, 22607, Note_on_c, 0, 76, 0
1, 22608, Note_on_c, 0, 79, 75
1, 22631, Note_on_c, 0, 79, 0
1, 22632, Note_on_c, 0, 76, 75
1, 22655, Note_on_c, 0, 76, 0
1, 22656, Note_on_c, 0, 69, 75
1, 22656, Note_on_c, 1, 62, 75
1, 22679, Note_on_c, 0, 69, 0
1, 22680, Note_on_c, 0, 74, 75
1, 22695, Note_on_c, 1, 62, 0
1, 22703, Note_on_c, 0, 74, 0
1, 22704, Note_on_c, 0, 78, 75
1, 22727, Note_on_c, 0, 78, 0
1, 22728, Note_on_c, 0, 74, 75
1, 22751, Note_on_c, 0, 74, 0
1, 22752, Note_on_c, 0, 69, 75
1, 22752, Note_on_c, 1, 54, 75
1, 22775, Note_on_c, 0, 69, 0
1, 22776, Note_on_c, 0, 74, 75
1, 22791, Note_on_c, 1, 54, 0
1, 22799, Note_on_c, 0, 74, 0
1, 22800, Note_on_c, 0, 78, 75
1, 22823, Note_on_c, 0, 78, 0
1, 22824, Note_on_c, 0, 74, 75
1, 22847, Note_on_c, 0, 74, 0
1, 22848, Note_on_c, 0, 71, 75
1, 22848, Note_on_c, 1, 55, 75
1, 22871, Note_on_c, 0, 71, 0
1, 22872, Note_on_c, 0, 74, 75
1, 22887, Note_on_c, 1, 55, 0
1, 22895, Note_on_c, 0, 74, 0
1, 22896, Note_on_c, 0, 76, 75
1, 22919, Note_on_c, 0, 76, 0
1, 22920, Note_on_c, 0, 74, 75
1, 22943, Note_on_c, 0, 74, 0
1, 22944, Note_on_c, 0, 69, 75
1, 22944, Note_on_c, 1, 57, 75
1, 22967, Note_on_c, 0, 69, 0
1, 22968, Note_on_c, 0, 73, 75
1, 22983, Note_on_c, 1, 57, 0
1, 22991, Note_on_c, 0, 73, 0
1, 22992, Note_on_c, 0, 76, 75
1, 23015, Note_on_c, 0, 76, 0
1, 23016, Note_on_c, 0, 73, 75
1, 23039, Note_on_c, 0, 73, 0
1, 23040, Note_on_c, 0, 74, 75
1, 23040, Note_on_c, 1, 50, 75
1, 23085, Note_on_c, 1, 50, 0
1, 23088, Note_on_c, 1, 62, 75
1, 23129, Note_on_c, 0, 74, 0
1, 23133, Note_on_c, 1, 62, 0
1, 23136, Note_on_c, 1, 50, 75
1, 23181, Note_on_c, 1, 50, 0
1, 23184, Note_on_c, 0, 69, 84
1, 23229, Note_on_c, 0, 69, 0
1, 23232, Note_on_c, 0, 64, 84
1, 23232, Note_on_c, 0, 61, 84
1, 23232, Note_on_c, 1, 33, 84
1, 23255, Note_on_c, 1, 33, 0
1, 23256, Note_on_c, 1, 45, 84
1, 23279, Note_on_c, 1, 45, 0
1, 23280, Note_on_c, 1, 33, 84
1, 23303, Note_on_c, 1, 33, 0
1, 23304, Note_on_c, 1, 45, 84
1, 23327, Note_on_c, 1, 45, 0
1, 23328, Note_on_c, 1, 33, 84
1, 23351, Note_on_c, 1, 33, 0
1, 23352, Note_on_c, 1, 45, 84
1, 23365, Note_on_c, 0, 64, 0
1, 23365, Note_on_c, 0, 61, 0
1, 23375, Note_on_c, 1, 45, 0
1, 23376, Note_on_c, 0, 66, 84
1, 23376, Note_on_c, 0, 62, 84
1, 23376, Note_on_c, 1, 33, 84
1, 23399, Note_on_c, 1, 33, 0
1, 23400, Note_on_c, 1, 45, 84
1, 23421, Note_on_c, 0, 66, 0
1, 23421, Note_on_c, 0, 62, 0
1, 23423, Note_on_c, 1, 45, 0
1, 23424, Note_on_c, 0, 64, 84
1, 23424, Note_on_c, 0, 61, 84
1, 23424, Note_on_c, 1, 33, 84
1, 23447, Note_on_c, 1, 33, 0
1, 23448, Note_on_c, 1, 45, 84
1, 23469, Note_on_c, 0, 64, 0
1, 23469, Note_on_c, 0, 61, 0
1, 23471, Note_on_c, 1, 45, 0
1, 23472, Note_on_c, 0, 62, 84
1, 23472, Note_on_c, 0, 59, 84
1, 23472, Note_on_c, 1, 33, 84
1, 23495, Note_on_c, 1, 33, 0
1, 23496, Note_on_c, 1, 45, 84
1, 23517, Note_on_c, 0, 62, 0
1, 23517, Note_on_c, 0, 59, 0
1, 23519, Note_on_c, 1, 45, 0
1, 23520, Note_on_c, 0, 61, 84
1, 23520, Note_on_c, 0, 57, 84
1, 23520, Note_on_c, 1, 33, 84
1, 23543, Note_on_c, 1, 33, 0
1, 23544, Note_on_c, 1, 45, 84
1, 23565, Note_on_c, 0, 61, 0
1, 23565, Note_on_c, 0, 57, 0
1, 23567, Note_on_c, 1, 45, 0
1, 23568, Note_on_c, 0, 59, 84
1, 23568, Note_on_c, 0, 56, 84
1, 23568, Note_on_c, 1, 33, 84
1, 23591, Note_on_c, 1, 33, 0
1, 23592, Note_on_c, 1, 45, 84
1, 23613, Note_on_c, 0, 59, 0
1, 23613, Note_on_c, 0, 56, 0
1, 23615, Note_on_c, 1, 45, 0
1, 23616, Note_on_c, 0, 57, 84
1, 23616, Note_on_c, 1, 33, 84
1, 23705, Note_on_c, 0, 57, 0
1, 23705, Note_on_c, 1, 33, 0
1, 23712, Note_on_c, 0, 61, 75
1, 23735, Note_on_c, 0, 61, 0
1, 23736, Note_on_c, 0, 52, 75
1, 23759, Note_on_c, 0, 52, 0
1, 23760, Note_on_c, 0, 61, 75
1, 23760, Note_on_c, 1, 45, 75
1, 23783, Note_on_c, 0, 61, 0
1, 23784, Note_on_c, 0, 52, 75
1, 23805, Note_on_c, 1, 45, 0
1, 23807, Note_on_c, 0, 52, 0
1, 23808, Note_on_c, 0, 62, 75
1, 23808, Note_on_c, 1, 44, 75
1, 23828, Note_on_c, 1, 44, 0
1, 23831, Note_on_c, 0, 62, 0
1, 23832, Note_on_c, 0, 52, 75
1, 23855, Note_on_c, 0, 52, 0
1, 23856, Note_on_c, 0, 61, 75
1, 23856, Note_on_c, 1, 45, 75
1, 23876, Note_on_c, 1, 45, 0
1, 23879, Note_on_c, 0, 61, 0
1, 23880, Note_on_c, 0, 52, 75
1, 23903, Note_on_c, 0, 52, 0
1, 23904, Note_on_c, 0, 59, 75
1, 23904, Note_on_c, 1, 50, 75
1, 23924, Note_on_c, 1, 50, 0
1, 23927, Note_on_c, 0, 59, 0
1, 23928, Note_on_c, 0, 52, 75
1, 23951, Note_on_c, 0, 52, 0
1, 23952, Note_on_c, 0, 57, 75
1, 23952, Note_on_c, 1, 49, 75
1, 23972, Note_on_c, 1, 49, 0
1, 23975, Note_on_c, 0, 57, 0
1, 23976, Note_on_c, 0, 52, 75
1, 23999, Note_on_c, 0, 52, 0
1, 24000, Note_on_c, 0, 62, 75
1, 24000, Note_on_c, 1, 44, 75
1, 24020, Note_on_c, 1, 44, 0
1, 24023, Note_on_c, 0, 62, 0
1, 24024, Note_on_c, 0, 52, 75
1, 24047, Note_on_c, 0, 52, 0
1, 24048, Note_on_c, 0, 61, 75
1, 24048, Note_on_c, 1, 45, 75
1, 24068, Note_on_c, 1, 45, 0
1, 24071, Note_on_c, 0, 61, 0
1, 24072, Note_on_c, 0, 52, 75
1, 24095, Note_on_c, 0, 52, 0
1, 24096, Note_on_c, 0, 59, 75
1, 24096, Note_on_c, 1, 50, 75
1, 24116, Note_on_c, 1, 50, 0
1, 24119, Note_on_c, 0, 59, 0
1, 24120, Note_on_c, 0, 52, 75
1, 24143, Note_on_c, 0, 52, 0
1, 24144, Note_on_c, 0, 57, 75
1, 24144, Note_on_c, 1, 49, 75
1, 24164, Note_on_c, 1, 49, 0
1, 24167, Note_on_c, 0, 57, 0
1, 24168, Note_on_c, 0, 52, 75
1, 24191, Note_on_c, 0, 52, 0
1, 24192, Note_on_c, 0, 54, 75
1, 24192, Note_on_c, 1, 38, 75
1, 24215, Note_on_c, 0, 54, 0
1, 24216, Note_on_c, 0, 59, 75
1, 24239, Note_on_c, 0, 59, 0
1, 24240, Note_on_c, 0, 54, 75
1, 24263, Note_on_c, 0, 54, 0
1, 24264, Note_on_c, 0, 59, 75
1, 24281, Note_on_c, 1, 38, 0
1, 24287, Note_on_c, 0, 59, 0
1, 24288, Note_on_c, 0, 50, 75
1, 24288, Note_on_c, 1, 40, 75
1, 24311, Note_on_c, 0, 50, 0
1, 24312, Note_on_c, 0, 56, 75
1, 24335, Note_on_c, 0, 56, 0
1, 24336, Note_on_c, 0, 50, 75
1, 24359, Note_on_c, 0, 50, 0
1, 24360, Note_on_c, 0, 56, 75
1, 24377, Note_on_c, 1, 40, 0
1, 24383, Note_on_c, 0, 56, 0
1, 24384, Note_on_c, 0, 57, 75
1, 24384, Note_on_c, 0, 49, 75
1, 24384, Note_on_c, 1, 33, 75
1, 24429, Note_on_c, 1, 33, 0
1, 24432, Note_on_c, 1, 45, 75
1, 24473, Note_on_c, 0, 57, 0
1, 24473, Note_on_c, 0, 49, 0
1, 24477, Note_on_c, 1, 45, 0
1, 24480, Note_on_c, 1, 33, 75
1, 24525, Note_on_c, 1, 33, 0
1, 24528, Note_on_c, 0, 69, 84
1, 24573, Note_on_c, 0, 69, 0
1, 24576, Note_on_c, 0, 64, 84
1, 24576, Note_on_c, 0, 61, 84
1, 24576, Note_on_c, 1, 33, 84
1, 24599, Note_on_c, 1, 33, 0
1, 24600, Note_on_c, 1, 45, 84
1, 24623, Note_on_c, 1, 45, 0
1, 24624, Note_on_c, 1, 33, 84
1, 24647, Note_on_c, 1, 33, 0
1, 24648, Note_on_c, 1, 45, 84
1, 24671, Note_on_c, 1, 45, 0
1, 24672, Note_on_c, 1, 33, 84
1, 24695, Note_on_c, 1, 33, 0
1, 24696, Note_on_c, 1, 45, 84
1, 24709, Note_on_c, 0, 64, 0
1, 24709, Note_on_c, 0, 61, 0
1, 24719, Note_on_c, 1, 45, 0
1, 24720, Note_on_c, 0, 66, 84
1, 24720, Note_on_c, 0, 62, 84
1, 24720, Note_on_c, 1, 33, 84
1, 24743, Note_on_c, 1, 33, 0
1, 24744, Note_on_c, 1, 45, 84
1, 24765, Note_on_c, 0, 66, 0
1, 24765, Note_on_c, 0, 62, 0
1, 24767, Note_on_c, 1, 45, 0
1, 24768, Note_on_c, 0, 64, 84
1, 24768, Note_on_c, 0, 61, 84
1, 24768, Note_on_c, 1, 33, 84
1, 24791, Note_on_c, 1, 33, 0
1, 24792, Note_on_c, 1, 45, 84
1, 24813, Note_on_c, 0, 64, 0
1, 24813, Note_on_c, 0, 61, 0
1, 24815, Note_on_c, 1, 45, 0
1, 24816, Note_on_c, 0, 62, 84
1, 24816, Note_on_c, 0, 59, 84
1, 24816, Note_on_c, 1, 33, 84
1, 24839, Note_on_c, 1, 33, 0
1, 24840, Note_on_c, 1, 45, 84
1, 24861, Note_on_c, 0, 62, 0
1, 24861, Note_on_c, 0, 59, 0
1, 24863, Note_on_c, 1, 45, 0
1, 24864, Note_on_c, 0, 61, 84
1, 24864, Note_on_c, 0, 57, 84
1, 24864, Note_on_c, 1, 33, 84
1, 24887, Note_on_c, 1, 33, 0
1, 24888, Note_on_c, 1, 45, 84
1, 24909, Note_on_c, 0, 61, 0
1, 24909, Note_on_c, 0, 57, 0
1, 24911, Note_on_c, 1, 45, 0
1, 24912, Note_on_c, 0, 59, 84
1, 24912, Note_on_c, 0, 56, 84
1, 24912, Note_on_c, 1, 33, 84
1, 24935, Note_on_c, 1, 33, 0
1, 24936, Note_on_c, 1, 45, 84
1, 24957, Note_on_c, 0, 59, 0
1, 24957, Note_on_c, 0, 56, 0
1, 24959, Note_on_c, 1, 45, 0
1, 24960, Note_on_c, 0, 57, 84
1, 24960, Note_on_c, 1, 33, 84
1, 25049, Note_on_c, 0, 57, 0
1, 25049, Note_on_c, 1, 33, 0
1, 25056, Note_on_c, 0, 61, 75
1, 25079, Note_on_c, 0, 61, 0
1, 25080, Note_on_c, 0, 52, 75
1, 25103, Note_on_c, 0, 52, 0
1, 25104, Note_on_c, 0, 61, 75
1, 25104, Note_on_c, 1, 45, 75
1, 25127, Note_on_c, 0, 61, 0
1, 25128, Note_on_c, 0, 52, 75
1, 25149, Note_on_c, 1, 45, 0
1, 25151, Note_on_c, 0, 52, 0
1, 25152, Note_on_c, 0, 62, 75
1, 25152, Note_on_c, 1, 44, 75
1, 25172, Note_on_c, 1, 44, 0
1, 25175, Note_on_c, 0, 62, 0
1, 25176, Note_on_c, 0, 52, 75
1, 25199, Note_on_c, 0, 52, 0
1, 25200, Note_on_c, 0, 61, 75
1, 25200, Note_on_c, 1, 45, 75
1, 25220, Note_on_c, 1, 45, 0
1, 25223, Note_on_c, 0, 61, 0
1, 25224, Note_on_c, 0, 52, 75
1, 25247, Note_on_c, 0, 52, 0
1, 25248, Note_on_c, 0, 59, 75
1, 25248, Note_on_c, 1, 50, 75
1, 25268, Note_on_c, 1, 50, 0
1, 25271, Note_on_c, 0, 59, 0
1, 25272, Note_on_c, 0, 52, 75
1, 25295, Note_on_c, 0, 52, 0
1, 25296, Note_on_c, 0, 57, 75
1, 25296, Note_on_c, 1, 49, 75
1, 25316, Note_on_c, 1, 49, 0
1, 25319, Note_on_c, 0, 57, 0
1, 25320, Note_on_c, 0, 52, 75
1, 25343, Note_on_c, 0, 52, 0
1, 25344, Note_on_c, 0, 62, 75
1, 25344, Note_on_c, 1, 44, 75
1, 25364, Note_on_c, 1, 44, 0
1, 25367, Note_on_c, 0, 62, 0
1, 25368, Note_on_c, 0, 52, 75
1, 25391, Note_on_c, 0, 52, 0
1, 25392, Note_on_c, 0, 61, 75
1, 25392, Note_on_c, 1, 45, 75
1, 25412, Note_on_c, 1, 45, 0
1, 25415, Note_on_c, 0, 61, 0
1, 25416, Note_on_c, 0, 52, 75
1, 25439, Note_on_c, 0, 52, 0
1, 25440, Note_on_c, 0, 59, 75
1, 25440, Note_on_c, 1, 50, 75
1, 25460, Note_on_c, 1, 50, 0
1, 25463, Note_on_c, 0, 59, 0
1, 25464, Note_on_c, 0, 52, 75
1, 25487, Note_on_c, 0, 52, 0
1, 25488, Note_on_c, 0, 57, 75
1, 25488, Note_on_c, 1, 49, 75
1, 25508, Note_on_c, 1, 49, 0
1, 25511, Note_on_c, 0, 57, 0
1, 25512, Note_on_c, 0, 52, 75
1, 25535, Note_on_c, 0, 52, 0
1, 25536, Note_on_c, 0, 54, 75
1, 25536, Note_on_c, 1, 38, 75
1, 25559, Note_on_c, 0, 54, 0
1, 25560, Note_on_c, 0, 59, 75
1, 25583, Note_on_c, 0, 59, 0
1, 25584, Note_on_c, 0, 54, 75
1, 25607, Note_on_c, 0, 54, 0
1, 25608, Note_on_c, 0, 59, 75
1, 25625, Note_on_c, 1, 38, 0
1, 25631, Note_on_c, 0, 59, 0
1, 25632, Note_on_c, 0, 50, 75
1, 25632, Note_on_c, 1, 40, 75
1, 25655, Note_on_c, 0, 50, 0
1, 25656, Note_on_c, 0, 56, 75
1, 25679, Note_on_c, 0, 56, 0
1, 25680, Note_on_c, 0, 50, 75
1, 25703, Note_on_c, 0, 50, 0
1, 25704, Note_on_c, 0, 56, 75
1, 25721, Note_on_c, 1, 40, 0
1, 25727, Note_on_c, 0, 56, 0
1, 25728, Note_on_c, 0, 57, 75
1, 25728, Note_on_c, 0, 49, 75
1, 25728, Note_on_c, 1, 33, 75
1, 25773, Note_on_c, 1, 33, 0
1, 25776, Note_on_c, 1, 45, 75
1, 25817, Note_on_c, 0, 57, 0
1, 25817, Note_on_c, 0, 49, 0
1, 25821, Note_on_c, 1, 45, 0
1, 25824, Note_on_c, 1, 33, 75
1, 25869, Note_on_c, 1, 33, 0
1, 25872, Note_on_c, 0, 64, 84
1, 25917, Note_on_c, 0, 64, 0
1, 25920, Note_on_c, 0, 59, 84
1, 25920, Note_on_c, 0, 56, 84
1, 25920, Note_on_c, 1, 40, 84
1, 25943, Note_on_c, 1, 40, 0
1, 25944, Note_on_c, 1, 52, 84
1, 25967, Note_on_c, 1, 52, 0
1, 25968, Note_on_c, 1, 40, 84
1, 25991, Note_on_c, 1, 40, 0
1, 25992, Note_on_c, 1, 52, 84
1, 26015, Note_on_c, 1, 52, 0
1, 26016, Note_on_c, 1, 40, 84
1, 26039, Note_on_c, 1, 40, 0
1, 26040, Note_on_c, 1, 52, 84
1, 26053, Note_on_c, 0, 59, 0
1, 26053, Note_on_c, 0, 56, 0
1, 26063, Note_on_c, 1, 52, 0
1, 26064, Note_on_c, 0, 61, 84
1, 26064, Note_on_c, 0, 57, 84
1, 26064, Note_on_c, 1, 40, 84
1, 26087, Note_on_c, 1, 40, 0
1, 26088, Note_on_c, 1, 52, 84
1, 26109, Note_on_c, 0, 61, 0
1, 26109, Note_on_c, 0, 57, 0
1, 26111, Note_on_c, 1, 52, 0
1, 26112, Note_on_c, 0, 62, 84
1, 26112, Note_on_c, 0, 59, 84
1, 26112, Note_on_c, 1, 40, 84
1, 26135, Note_on_c, 1, 40, 0
1, 26136, Note_on_c, 1, 52, 84
1, 26157, Note_on_c, 0, 62, 0
1, 26157, Note_on_c, 0, 59, 0
1, 26159, Note_on_c, 1, 52, 0
1, 26160, Note_on_c, 0, 61, 84
1, 26160, Note_on_c, 0, 57, 84
1, 26160, Note_on_c, 1, 40, 84
1, 26183, Note_on_c, 1, 40, 0
1, 26184, Note_on_c, 1, 52, 84
1, 26205, Note_on_c, 0, 61, 0
1, 26205, Note_on_c, 0, 57, 0
1, 26207, Note_on_c, 1, 52, 0
1, 26208, Note_on_c, 0, 64, 84
1, 26208, Note_on_c, 0, 61, 84
1, 26208, Note_on_c, 1, 40, 84
1, 26231, Note_on_c, 1, 40, 0
1, 26232, Note_on_c, 1, 52, 84
1, 26253, Note_on_c, 0, 64, 0
1, 26253, Note_on_c, 0, 61, 0
1, 26255, Note_on_c, 1, 52, 0
1, 26256, Note_on_c, 0, 62, 84
1, 26256, Note_on_c, 0, 59, 84
1, 26256, Note_on_c, 1, 40, 84
1, 26279, Note_on_c, 1, 40, 0
1, 26280, Note_on_c, 1, 52, 84
1, 26301, Note_on_c, 0, 62, 0
1, 26301, Note_on_c, 0, 59, 0
1, 26303, Note_on_c, 1, 52, 0
1, 26304, Note_on_c, 0, 66, 84
1, 26304, Note_on_c, 0, 62, 84
1, 26304, Note_on_c, 1, 40, 84
1, 26327, Note_on_c, 1, 40, 0
1, 26328, Note_on_c, 1, 52, 84
1, 26349, Note_on_c, 0, 66, 0
1, 26349, Note_on_c, 0, 62, 0
1, 26351, Note_on_c, 1, 52, 0
1, 26352, Note_on_c, 0, 64, 84
1, 26352, Note_on_c, 0, 61, 84
1, 26352, Note_on_c, 1, 40, 84
1, 26375, Note_on_c, 1, 40, 0
1, 26376, Note_on_c, 1, 52, 84
1, 26397, Note_on_c, 0, 64, 0
1, 26397, Note_on_c, 0, 61, 0
1, 26399, Note_on_c, 1, 52, 0
1, 26400, Note_on_c, 0, 62, 84
1, 26400, Note_on_c, 0, 59, 84
1, 26400, Note_on_c, 1, 40, 84
1, 26423, Note_on_c, 1, 40, 0
1, 26424, Note_on_c, 1, 52, 84
1, 26445, Note_on_c, 0, 62, 0
1, 26445, Note_on_c, 0, 59, 0
1, 26447, Note_on_c, 1, 52, 0
1, 26448, Note_on_c, 0, 61, 84
1, 26448, Note_on_c, 0, 57, 84
1, 26448, Note_on_c, 1, 40, 84
1, 26471, Note_on_c, 1, 40, 0
1, 26472, Note_on_c, 1, 52, 84
1, 26493, Note_on_c, 0, 61, 0
1, 26493, Note_on_c, 0, 57, 0
1, 26495, Note_on_c, 1, 52, 0
1, 26496, Note_on_c, 0, 59, 84
1, 26496, Note_on_c, 0, 56, 84
1, 26496, Note_on_c, 1, 40, 84
1, 26519, Note_on_c, 1, 40, 0
1, 26520, Note_on_c, 1, 52, 84
1, 26543, Note_on_c, 1, 52, 0
1, 26544, Note_on_c, 1, 40, 84
1, 26567, Note_on_c, 1, 40, 0
1, 26568, Note_on_c, 1, 52, 84
1, 26585, Note_on_c, 0, 59, 0
1, 26585, Note_on_c, 0, 56, 0
1, 26591, Note_on_c, 1, 52, 0
1, 26592, Note_on_c, 1, 40, 84
1, 26640, Note_on_c, 0, 64, 75
1, 26681, Note_on_c, 1, 40, 0
1, 26685, Note_on_c, 0, 64, 0
1, 26688, Note_on_c, 0, 56, 75
1, 26688, Note_on_c, 1, 52, 75
1, 26708, Note_on_c, 1, 52, 0
1, 26711, Note_on_c, 0, 56, 0
1, 26712, Note_on_c, 0, 64, 75
1, 26735, Note_on_c, 0, 64, 0
1, 26736, Note_on_c, 0, 57, 75
1, 26736, Note_on_c, 1, 54, 75
1, 26756, Note_on_c, 1, 54, 0
1, 26759, Note_on_c, 0, 57, 0
1, 26760, Note_on_c, 0, 64, 75
1, 26783, Note_on_c, 0, 64, 0
1, 26784, Note_on_c, 0, 59, 75
1, 26784, Note_on_c, 1, 56, 75
1, 26804, Note_on_c, 1, 56, 0
1, 26807, Note_on_c, 0, 59, 0
1, 26808, Note_on_c, 0, 64, 75
1, 26831, Note_on_c, 0, 64, 0
1, 26832, Note_on_c, 0, 61, 75
1, 26832, Note_on_c, 1, 57, 75
1, 26852, Note_on_c, 1, 57, 0
1, 26855, Note_on_c, 0, 61, 0
1, 26856, Note_on_c, 0, 64, 75
1, 26879, Note_on_c, 0, 64, 0
1, 26880, Note_on_c, 0, 62, 75
1, 26880, Note_on_c, 1, 59, 75
1, 26900, Note_on_c, 1, 59, 0
1, 26903, Note_on_c, 0, 62, 0
1, 26904, Note_on_c, 0, 64, 75
1, 26927, Note_on_c, 0, 64, 0
1, 26928, Note_on_c, 0, 61, 75
1, 26928, Note_on_c, 1, 57, 75
1, 26948, Note_on_c, 1, 57, 0
1, 26951, Note_on_c, 0, 61, 0
1, 26952, Note_on_c, 0, 64, 75
1, 26975, Note_on_c, 0, 64, 0
1, 26976, Note_on_c, 0, 59, 75
1, 26976, Note_on_c, 1, 56, 75
1, 26996, Note_on_c, 1, 56, 0
1, 26999, Note_on_c, 0, 59, 0
1, 27000, Note_on_c, 0, 64, 75
1, 27023, Note_on_c, 0, 64, 0
1, 27024, Note_on_c, 0, 57, 75
1, 27024, Note_on_c, 1, 54, 75
1, 27044, Note_on_c, 1, 54, 0
1, 27047, Note_on_c, 0, 57, 0
1, 27048, Note_on_c, 0, 64, 75
1, 27071, Note_on_c, 0, 64, 0
1, 27072, Note_on_c, 0, 56, 75
1, 27072, Note_on_c, 1, 52, 75
1, 27092, Note_on_c, 1, 52, 0
1, 27095, Note_on_c, 0, 56, 0
1, 27096, Note_on_c, 0, 64, 75
1, 27119, Note_on_c, 0, 64, 0
1, 27120, Note_on_c, 0, 57, 75
1, 27120, Note_on_c, 1, 54, 75
1, 27140, Note_on_c, 1, 54, 0
1, 27143, Note_on_c, 0, 57, 0
1, 27144, Note_on_c, 0, 64, 75
1, 27167, Note_on_c, 0, 64, 0
1, 27168, Note_on_c, 0, 59, 75
1, 27168, Note_on_c, 1, 56, 75
1, 27188, Note_on_c, 1, 56, 0
1, 27191, Note_on_c, 0, 59, 0
1, 27192, Note_on_c, 0, 64, 75
1, 27215, Note_on_c, 0, 64, 0
1, 27216, Note_on_c, 0, 61, 75
1, 27216, Note_on_c, 1, 57, 75
1, 27236, Note_on_c, 1, 57, 0
1, 27239, Note_on_c, 0, 61, 0
1, 27240, Note_on_c, 0, 64, 75
1, 27263, Note_on_c, 0, 64, 0
1, 27264, Note_on_c, 0, 62, 75
1, 27264, Note_on_c, 1, 59, 75
1, 27284, Note_on_c, 1, 59, 0
1, 27287, Note_on_c, 0, 62, 0
1, 27288, Note_on_c, 0, 64, 75
1, 27311, Note_on_c, 0, 64, 0
1, 27312, Note_on_c, 0, 61, 75
1, 27312, Note_on_c, 1, 57, 75
1, 27332, Note_on_c, 1, 57, 0
1, 27335, Note_on_c, 0, 61, 0
1, 27336, Note_on_c, 0, 64, 75
1, 27359, Note_on_c, 0, 64, 0
1, 27360, Note_on_c, 0, 59, 75
1, 27360, Note_on_c, 1, 56, 75
1, 27380, Note_on_c, 1, 56, 0
1, 27383, Note_on_c, 0, 59, 0
1, 27384, Note_on_c, 0, 64, 75
1, 27407, Note_on_c, 0, 64, 0
1, 27408, Note_on_c, 0, 57, 75
1, 27408, Note_on_c, 1, 54, 75
1, 27428, Note_on_c, 1, 54, 0
1, 27431, Note_on_c, 0, 57, 0
1, 27432, Note_on_c, 0, 64, 75
1, 27455, Note_on_c, 0, 64, 0
1, 27456, Note_on_c, 0, 56, 75
1, 27456, Note_on_c, 1, 52, 75
1, 27476, Note_on_c, 1, 52, 0
1, 27479, Note_on_c, 0, 56, 0
1, 27480, Note_on_c, 0, 64, 75
1, 27503, Note_on_c, 0, 64, 0
1, 27504, Note_on_c, 0, 57, 75
1, 27504, Note_on_c, 1, 54, 75
1, 27524, Note_on_c, 1, 54, 0
1, 27527, Note_on_c, 0, 57, 0
1, 27528, Note_on_c, 0, 64, 75
1, 27551, Note_on_c, 0, 64, 0
1, 27552, Note_on_c, 0, 56, 75
1, 27552, Note_on_c, 1, 52, 75
1, 27572, Note_on_c, 1, 52, 0
1, 27575, Note_on_c, 0, 56, 0
1, 27576, Note_on_c, 0, 64, 75
1, 27599, Note_on_c, 0, 64, 0
1, 27600, Note_on_c, 0, 57, 75
1, 27600, Note_on_c, 1, 54, 75
1, 27620, Note_on_c, 1, 54, 0
1, 27623, Note_on_c, 0, 57, 0
1, 27624, Note_on_c, 0, 64, 75
1, 27647, Note_on_c, 0, 64, 0
1, 27648, Note_on_c, 0, 56, 75
1, 27648, Note_on_c, 1, 52, 75
1, 27737, Note_on_c, 0, 56, 0
1, 27742, Note_on_c, 1, 52, 0
1, 27792, Note_on_c, 0, 69, 84
1, 27837, Note_on_c, 0, 69, 0
1, 27840, Note_on_c, 0, 64, 84
1, 27840, Note_on_c, 0, 61, 84
1, 27840, Note_on_c, 1, 33, 84
1, 27863, Note_on_c, 1, 33, 0
1, 27864, Note_on_c, 1, 45, 84
1, 27887, Note_on_c, 1, 45, 0
1, 27888, Note_on_c, 1, 33, 84
1, 27911, Note_on_c, 1, 33, 0
1, 27912, Note_on_c, 1, 45, 84
1, 27935, Note_on_c, 1, 45, 0
1, 27936, Note_on_c, 1, 33, 84
1, 27959, Note_on_c, 1, 33, 0
1, 27960, Note_on_c, 1, 45, 84
1, 27973, Note_on_c, 0, 64, 0
1, 27973, Note_on_c, 0, 61, 0
1, 27983, Note_on_c, 1, 45, 0
1, 27984, Note_on_c, 0, 66, 84
1, 27984, Note_on_c, 0, 62, 84
1, 27984, Note_on_c, 1, 33, 84
1, 28007, Note_on_c, 1, 33, 0
1, 28008, Note_on_c, 1, 45, 84
1, 28029, Note_on_c, 0, 66, 0
1, 28029, Note_on_c, 0, 62, 0
1, 28031, Note_on_c, 1, 45, 0
1, 28032, Note_on_c, 0, 64, 84
1, 28032, Note_on_c, 0, 61, 84
1, 28032, Note_on_c, 1, 33, 84
1, 28055, Note_on_c, 1, 33, 0
1, 28056, Note_on_c, 1, 45, 84
1, 28077, Note_on_c, 0, 64, 0
1, 28077, Note_on_c, 0, 61, 0
1, 28079, Note_on_c, 1, 45, 0
1, 28080, Note_on_c, 0, 62, 84
1, 28080, Note_on_c, 0, 59, 84
1, 28080, Note_on_c, 1, 33, 84
1, 28103, Note_on_c, 1, 33, 0
1, 28104, Note_on_c, 1, 45, 84
1, 28125, Note_on_c, 0, 62, 0
1, 28125, Note_on_c, 0, 59, 0
1, 28127, Note_on_c, 1, 45, 0
1, 28128, Note_on_c, 0, 61, 84
1, 28128, Note_on_c, 0, 57, 84
1, 28128, Note_on_c, 1, 33, 84
1, 28151, Note_on_c, 1, 33, 0
1, 28152, Note_on_c, 1, 45, 84
1, 28173, Note_on_c, 0, 61, 0
1, 28173, Note_on_c, 0, 57, 0
1, 28175, Note_on_c, 1, 45, 0
1, 28176, Note_on_c, 0, 59, 84
1, 28176, Note_on_c, 0, 56, 84
1, 28176, Note_on_c, 1, 33, 84
1, 28199, Note_on_c, 1, 33, 0
1, 28200, Note_on_c, 1, 45, 84
1, 28221, Note_on_c, 0, 59, 0
1, 28221, Note_on_c, 0, 56, 0
1, 28223, Note_on_c, 1, 45, 0
1, 28224, Note_on_c, 0, 57, 84
1, 28224, Note_on_c, 1, 33, 84
1, 28313, Note_on_c, 0, 57, 0
1, 28313, Note_on_c, 1, 33, 0
1, 28320, Note_on_c, 0, 61, 75
1, 28343, Note_on_c, 0, 61, 0
1, 28344, Note_on_c, 0, 52, 75
1, 28367, Note_on_c, 0, 52, 0
1, 28368, Note_on_c, 0, 61, 75
1, 28368, Note_on_c, 1, 45, 75
1, 28391, Note_on_c, 0, 61, 0
1, 28392, Note_on_c, 0, 52, 75
1, 28413, Note_on_c, 1, 45, 0
1, 28415, Note_on_c, 0, 52, 0
1, 28416, Note_on_c, 0, 62, 75
1, 28416, Note_on_c, 1, 44, 75
1, 28436, Note_on_c, 1, 44, 0
1, 28439, Note_on_c, 0, 62, 0
1, 28440, Note_on_c, 0, 52, 75
1, 28463, Note_on_c, 0, 52, 0
1, 28464, Note_on_c, 0, 61, 75
1, 28464, Note_on_c, 1, 45, 75
1, 28484, Note_on_c, 1, 45, 0
1, 28487, Note_on_c, 0, 61, 0
1, 28488, Note_on_c, 0, 52, 75
1, 28511, Note_on_c, 0, 52, 0
1, 28512, Note_on_c, 0, 59, 75
1, 28512, Note_on_c, 1, 50, 75
1, 28532, Note_on_c, 1, 50, 0
1, 28535, Note_on_c, 0, 59, 0
1, 28536, Note_on_c, 0, 52, 75
1, 28559, Note_on_c, 0, 52, 0
1, 28560, Note_on_c, 0, 57, 75
1, 28560, Note_on_c, 1, 49, 75
1, 28580, Note_on_c, 1, 49, 0
1, 28583, Note_on_c, 0, 57, 0
1, 28584, Note_on_c, 0, 52, 75
1, 28607, Note_on_c, 0, 52, 0
1, 28608, Note_on_c, 0, 62, 75
1, 28608, Note_on_c, 1, 44, 75
1, 28628, Note_on_c, 1, 44, 0
1, 28631, Note_on_c, 0, 62, 0
1, 28632, Note_on_c, 0, 52, 75
1, 28655, Note_on_c, 0, 52, 0
1, 28656, Note_on_c, 0, 61, 75
1, 28656, Note_on_c, 1, 45, 75
1, 28676, Note_on_c, 1, 45, 0
1, 28679, Note_on_c, 0, 61, 0
1, 28680, Note_on_c, 0, 52, 75
1, 28703, Note_on_c, 0, 52, 0
1, 28704, Note_on_c, 0, 59, 75
1, 28704, Note_on_c, 1, 50, 75
1, 28724, Note_on_c, 1, 50, 0
1, 28727, Note_on_c, 0, 59, 0
1, 28728, Note_on_c, 0, 52, 75
1, 28751, Note_on_c, 0, 52, 0
1, 28752, Note_on_c, 0, 57, 75
1, 28752, Note_on_c, 1, 49, 75
1, 28772, Note_on_c, 1, 49, 0
1, 28775, Note_on_c, 0, 57, 0
1, 28776, Note_on_c, 0, 52, 75
1, 28799, Note_on_c, 0, 52, 0
1, 28800, Note_on_c, 0, 54, 75
1, 28800, Note_on_c, 1, 38, 75
1, 28823, Note_on_c, 0, 54, 0
1, 28824, Note_on_c, 0, 59, 75
1, 28847, Note_on_c, 0, 59, 0
1, 28848, Note_on_c, 0, 54, 75
1, 28871, Note_on_c, 0, 54, 0
1, 28872, Note_on_c, 0, 59, 75
1, 28889, Note_on_c, 1, 38, 0
1, 28895, Note_on_c, 0, 59, 0
1, 28896, Note_on_c, 0, 50, 75
1, 28896, Note_on_c, 1, 40, 75
1, 28919, Note_on_c, 0, 50, 0
1, 28920, Note_on_c, 0, 56, 75
1, 28943, Note_on_c, 0, 56, 0
1, 28944, Note_on_c, 0, 50, 75
1, 28967, Note_on_c, 0, 50, 0
1, 28968, Note_on_c, 0, 56, 75
1, 28985, Note_on_c, 1, 40, 0
1, 28991, Note_on_c, 0, 56, 0
1, 28992, Note_on_c, 0, 57, 75
1, 28992, Note_on_c, 0, 49, 75
1, 28992, Note_on_c, 1, 33, 75
1, 29037, Note_on_c, 1, 33, 0
1, 29040, Note_on_c, 1, 45, 75
1, 29081, Note_on_c, 0, 57, 0
1, 29081, Note_on_c, 0, 49, 0
1, 29085, Note_on_c, 1, 45, 0
1, 29088, Note_on_c, 1, 33, 75
1, 29133, Note_on_c, 1, 33, 0
1, 29136, Note_on_c, 0, 64, 84
1, 29181, Note_on_c, 0, 64, 0
1, 29184, Note_on_c, 0, 59, 84
1, 29184, Note_on_c, 0, 56, 84
1, 29184, Note_on_c, 1, 40, 84
1, 29207, Note_on_c, 1, 40, 0
1, 29208, Note_on_c, 1, 52, 84
1, 29231, Note_on_c, 1, 52, 0
1, 29232, Note_on_c, 1, 40, 84
1, 29255, Note_on_c, 1, 40, 0
1, 29256, Note_on_c, 1, 52, 84
1, 29279, Note_on_c, 1, 52, 0
1, 29280, Note_on_c, 1, 40, 84
1, 29303, Note_on_c, 1, 40, 0
1, 29304, Note_on_c, 1, 52, 84
1, 29317, Note_on_c, 0, 59, 0
1, 29317, Note_on_c, 0, 56, 0
1, 29327, Note_on_c, 1, 52, 0
1, 29328, Note_on_c, 0, 61, 84
1, 29328, Note_on_c, 0, 57, 84
1, 29328, Note_on_c, 1, 40, 84
1, 29351, Note_on_c, 1, 40, 0
1, 29352, Note_on_c, 1, 52, 84
1, 29373, Note_on_c, 0, 61, 0
1, 29373, Note_on_c, 0, 57, 0
1, 29375, Note_on_c, 1, 52, 0
1, 29376, Note_on_c, 0, 62, 84
1, 29376, Note_on_c, 0, 59, 84
1, 29376, Note_on_c, 1, 40, 84
1, 29399, Note_on_c, 1, 40, 0
1, 29400, Note_on_c, 1, 52, 84
1, 29421, Note_on_c, 0, 62, 0
1, 29421, Note_on_c, 0, 59, 0
1, 29423, Note_on_c, 1, 52, 0
1, 29424, Note_on_c, 0, 61, 84
1, 29424, Note_on_c, 0, 57, 84
1, 29424, Note_on_c, 1, 40, 84
1, 29447, Note_on_c, 1, 40, 0
1, 29448, Note_on_c, 1, 52, 84
1, 29469, Note_on_c, 0, 61, 0
1, 29469, Note_on_c, 0, 57, 0
1, 29471, Note_on_c, 1, 52, 0
1, 29472, Note_on_c, 0, 64, 84
1, 29472, Note_on_c, 0, 61, 84
1, 29472, Note_on_c, 1, 40, 84
1, 29495, Note_on_c, 1, 40, 0
1, 29496, Note_on_c, 1, 52, 84
1, 29517, Note_on_c, 0, 64, 0
1, 29517, Note_on_c, 0, 61, 0
1, 29519, Note_on_c, 1, 52, 0
1, 29520, Note_on_c, 0, 62, 84
1, 29520, Note_on_c, 0, 59, 84
1, 29520, Note_on_c, 1, 40, 84
1, 29543, Note_on_c, 1, 40, 0
1, 29544, Note_on_c, 1, 52, 84
1, 29565, Note_on_c, 0, 62, 0
1, 29565, Note_on_c, 0, 59, 0
1, 29567, Note_on_c, 1, 52, 0
1, 29568, Note_on_c, 0, 66, 84
1, 29568, Note_on_c, 0, 62, 84
1, 29568, Note_on_c, 1, 40, 84
1, 29591, Note_on_c, 1, 40, 0
1, 29592, Note_on_c, 1, 52, 84
1, 29613, Note_on_c, 0, 66, 0
1, 29613, Note_on_c, 0, 62, 0
1, 29615, Note_on_c, 1, 52, 0
1, 29616, Note_on_c, 0, 64, 84
1, 29616, Note_on_c, 0, 61, 84
1, 29616, Note_on_c, 1, 40, 84
1, 29639, Note_on_c, 1, 40, 0
1, 29640, Note_on_c, 1, 52, 84
1, 29661, Note_on_c, 0, 64, 0
1, 29661, Note_on_c, 0, 61, 0
1, 29663, Note_on_c, 1, 52, 0
1, 29664, Note_on_c, 0, 62, 84
1, 29664, Note_on_c, 0, 59, 84
1, 29664, Note_on_c, 1, 40, 84
1, 29687, Note_on_c, 1, 40, 0
1, 29688, Note_on_c, 1, 52, 84
1, 29709, Note_on_c, 0, 62, 0
1, 29709, Note_on_c, 0, 59, 0
1, 29711, Note_on_c, 1, 52, 0
1, 29712, Note_on_c, 0, 61, 84
1, 29712, Note_on_c, 0, 57, 84
1, 29712, Note_on_c, 1, 40, 84
1, 29735, Note_on_c, 1, 40, 0
1, 29736, Note_on_c, 1, 52, 84
1, 29757, Note_on_c, 0, 61, 0
1, 29757, Note_on_c, 0, 57, 0
1, 29759, Note_on_c, 1, 52, 0
1, 29760, Note_on_c, 0, 59, 84
1, 29760, Note_on_c, 0, 56, 84
1, 29760, Note_on_c, 1, 40, 84
1, 29783, Note_on_c, 1, 40, 0
1, 29784, Note_on_c, 1, 52, 84
1, 29807, Note_on_c, 1, 52, 0
1, 29808, Note_on_c, 1, 40, 84
1, 29831, Note_on_c, 1, 40, 0
1, 29832, Note_on_c, 1, 52, 84
1, 29849, Note_on_c, 0, 59, 0
1, 29849, Note_on_c, 0, 56, 0
1, 29855, Note_on_c, 1, 52, 0
1, 29856, Note_on_c, 1, 40, 84
1, 29904, Note_on_c, 0, 64, 75
1, 29945, Note_on_c, 1, 40, 0
1, 29949, Note_on_c, 0, 64, 0
1, 29952, Note_on_c, 0, 56, 75
1, 29952, Note_on_c, 1, 52, 75
1, 29972, Note_on_c, 1, 52, 0
1, 29975, Note_on_c, 0, 56, 0
1, 29976, Note_on_c, 0, 64, 75
1, 29999, Note_on_c, 0, 64, 0
1, 30000, Note_on_c, 0, 57, 75
1, 30000, Note_on_c, 1, 54, 75
1, 30020, Note_on_c, 1, 54, 0
1, 30023, Note_on_c, 0, 57, 0
1, 30024, Note_on_c, 0, 64, 75
1, 30047, Note_on_c, 0, 64, 0
1, 30048, Note_on_c, 0, 59, 75
1, 30048, Note_on_c, 1, 56, 75
1, 30068, Note_on_c, 1, 56, 0
1, 30071, Note_on_c, 0, 59, 0
1, 30072, Note_on_c, 0, 64, 75
1, 30095, Note_on_c, 0, 64, 0
1, 30096, Note_on_c, 0, 61, 75
1, 30096, Note_on_c, 1, 57, 75
1, 30116, Note_on_c, 1, 57, 0
1, 30119, Note_on_c, 0, 61, 0
1, 30120, Note_on_c, 0, 64, 75
1, 30143, Note_on_c, 0, 64, 0
1, 30144, Note_on_c, 0, 62, 75
1, 30144, Note_on_c, 1, 59, 75
1, 30164, Note_on_c, 1, 59, 0
1, 30167, Note_on_c, 0, 62, 0
1, 30168, Note_on_c, 0, 64, 75
1, 30191, Note_on_c, 0, 64, 0
1, 30192, Note_on_c, 0, 61, 75
1, 30192, Note_on_c, 1, 57, 75
1, 30212, Note_on_c, 1, 57, 0
1, 30215, Note_on_c, 0, 61, 0
1, 30216, Note_on_c, 0, 64, 75
1, 30239, Note_on_c, 0, 64, 0
1, 30240, Note_on_c, 0, 59, 75
1, 30240, Note_on_c, 1, 56, 75
1, 30260, Note_on_c, 1, 56, 0
1, 30263, Note_on_c, 0, 59, 0
1, 30264, Note_on_c, 0, 64, 75
1, 30287, Note_on_c, 0, 64, 0
1, 30288, Note_on_c, 0, 57, 75
1, 30288, Note_on_c, 1, 54, 75
1, 30308, Note_on_c, 1, 54, 0
1, 30311, Note_on_c, 0, 57, 0
1, 30312, Note_on_c, 0, 64, 75
1, 30335, Note_on_c, 0, 64, 0
1, 30336, Note_on_c, 0, 56, 75
1, 30336, Note_on_c, 1, 52, 75
1, 30356, Note_on_c, 1, 52, 0
1, 30359, Note_on_c, 0, 56, 0
1, 30360, Note_on_c, 0, 64, 75
1, 30383, Note_on_c, 0, 64, 0
1, 30384, Note_on_c, 0, 57, 75
1, 30384, Note_on_c, 1, 54, 75
1, 30404, Note_on_c, 1, 54, 0
1, 30407, Note_on_c, 0, 57, 0
1, 30408, Note_on_c, 0, 64, 75
1, 30431, Note_on_c, 0, 64, 0
1, 30432, Note_on_c, 0, 59, 75
1, 30432, Note_on_c, 1, 56, 75
1, 30452, Note_on_c, 1, 56, 0
1, 30455, Note_on_c, 0, 59, 0
1, 30456, Note_on_c, 0, 64, 75
1, 30479, Note_on_c, 0, 64, 0
1, 30480, Note_on_c, 0, 61, 75
1, 30480, Note_on_c, 1, 57, 75
1, 30500, Note_on_c, 1, 57, 0
1, 30503, Note_on_c, 0, 61, 0
1, 30504, Note_on_c, 0, 64, 75
1, 30527, Note_on_c, 0, 64, 0
1, 30528, Note_on_c, 0, 62, 75
1, 30528, Note_on_c, 1, 59, 75
1, 30548, Note_on_c, 1, 59, 0
1, 30551, Note_on_c, 0, 62, 0
1, 30552, Note_on_c, 0, 64, 75
1, 30575, Note_on_c, 0, 64, 0
1, 30576, Note_on_c, 0, 61, 75
1, 30576, Note_on_c, 1, 57, 75
1, 30596, Note_on_c, 1, 57, 0
1, 30599, Note_on_c, 0, 61, 0
1, 30600, Note_on_c, 0, 64, 75
1, 30623, Note_on_c, 0, 64, 0
1, 30624, Note_on_c, 0, 59, 75
1, 30624, Note_on_c, 1, 56, 75
1, 30644, Note_on_c, 1, 56, 0
1, 30647, Note_on_c, 0, 59, 0
1, 30648, Note_on_c, 0, 64, 75
1, 30671, Note_on_c, 0, 64, 0
1, 30672, Note_on_c, 0, 57, 75
1, 30672, Note_on_c, 1, 54, 75
1, 30692, Note_on_c, 1, 54, 0
1, 30695, Note_on_c, 0, 57, 0
1, 30696, Note_on_c, 0, 64, 75
1, 30719, Note_on_c, 0, 64, 0
1, 30720, Note_on_c, 0, 56, 75
1, 30720, Note_on_c, 1, 52, 75
1, 30740, Note_on_c, 1, 52, 0
1, 30743, Note_on_c, 0, 56, 0
1, 30744, Note_on_c, 0, 64, 75
1, 30767, Note_on_c, 0, 64, 0
1, 30768, Note_on_c, 0, 57, 75
1, 30768, Note_on_c, 1, 54, 75
1, 30788, Note_on_c, 1, 54, 0
1, 30791, Note_on_c, 0, 57, 0
1, 30792, Note_on_c, 0, 64, 75
1, 30815, Note_on_c, 0, 64, 0
1, 30816, Note_on_c, 0, 56, 75
1, 30816, Note_on_c, 1, 52, 75
1, 30836, Note_on_c, 1, 52, 0
1, 30839, Note_on_c, 0, 56, 0
1, 30840, Note_on_c, 0, 64, 75
1, 30863, Note_on_c, 0, 64, 0
1, 30864, Note_on_c, 0, 57, 75
1, 30864, Note_on_c, 1, 54, 75
1, 30884, Note_on_c, 1, 54, 0
1, 30887, Note_on_c, 0, 57, 0
1, 30888, Note_on_c, 0, 64, 75
1, 30911, Note_on_c, 0, 64, 0
1, 30912, Note_on_c, 0, 56, 75
1, 30912, Note_on_c, 1, 52, 75
1, 31001, Note_on_c, 0, 56, 0
1, 31006, Note_on_c, 1, 52, 0
1, 31056, Note_on_c, 0, 69, 84
1, 31101, Note_on_c, 0, 69, 0
1, 31104, Note_on_c, 0, 64, 84
1, 31104, Note_on_c, 0, 61, 84
1, 31104, Note_on_c, 1, 33, 84
1, 31127, Note_on_c, 1, 33, 0
1, 31128, Note_on_c, 1, 45, 84
1, 31151, Note_on_c, 1, 45, 0
1, 31152, Note_on_c, 1, 33, 84
1, 31175, Note_on_c, 1, 33, 0
1, 31176, Note_on_c, 1, 45, 84
1, 31199, Note_on_c, 1, 45, 0
1, 31200, Note_on_c, 1, 33, 84
1, 31223, Note_on_c, 1, 33, 0
1, 31224, Note_on_c, 1, 45, 84
1, 31237, Note_on_c, 0, 64, 0
1, 31237, Note_on_c, 0, 61, 0
1, 31247, Note_on_c, 1, 45, 0
1, 31248, Note_on_c, 0, 66, 84
1, 31248, Note_on_c, 0, 62, 84
1, 31248, Note_on_c, 1, 33, 84
1, 31271, Note_on_c, 1, 33, 0
1, 31272, Note_on_c, 1, 45, 84
1, 31293, Note_on_c, 0, 66, 0
1, 31293, Note_on_c, 0, 62, 0
1, 31295, Note_on_c, 1, 45, 0
1, 31296, Note_on_c, 0, 64, 84
1, 31296, Note_on_c, 0, 61, 84
1, 31296, Note_on_c, 1, 33, 84
1, 31319, Note_on_c, 1, 33, 0
1, 31320, Note_on_c, 1, 45, 84
1, 31341, Note_on_c, 0, 64, 0
1, 31341, Note_on_c, 0, 61, 0
1, 31343, Note_on_c, 1, 45, 0
1, 31344, Note_on_c, 0, 62, 84
1, 31344, Note_on_c, 0, 59, 84
1, 31344, Note_on_c, 1, 33, 84
1, 31367, Note_on_c, 1, 33, 0
1, 31368, Note_on_c, 1, 45, 84
1, 31389, Note_on_c, 0, 62, 0
1, 31389, Note_on_c, 0, 59, 0
1, 31391, Note_on_c, 1, 45, 0
1, 31392, Note_on_c, 0, 61, 84
1, 31392, Note_on_c, 0, 57, 84
1, 31392, Note_on_c, 1, 33, 84
1, 31415, Note_on_c, 1, 33, 0
1, 31416, Note_on_c, 1, 45, 84
1, 31437, Note_on_c, 0, 61, 0
1, 31437, Note_on_c, 0, 57, 0
1, 31439, Note_on_c, 1, 45, 0
1, 31440, Note_on_c, 0, 59, 84
1, 31440, Note_on_c, 0, 56, 84
1, 31440, Note_on_c, 1, 33, 84
1, 31463, Note_on_c, 1, 33, 0
1, 31464, Note_on_c, 1, 45, 84
1, 31485, Note_on_c, 0, 59, 0
1, 31485, Note_on_c, 0, 56, 0
1, 31487, Note_on_c, 1, 45, 0
1, 31488, Note_on_c, 0, 57, 84
1, 31488, Note_on_c, 1, 33, 84
1, 31577, Note_on_c, 0, 57, 0
1, 31577, Note_on_c, 1, 33, 0
1, 31584, Note_on_c, 0, 61, 75
1, 31607, Note_on_c, 0, 61, 0
1, 31608, Note_on_c, 0, 52, 75
1, 31631, Note_on_c, 0, 52, 0
1, 31632, Note_on_c, 0, 61, 75
1, 31632, Note_on_c, 1, 45, 75
1, 31655, Note_on_c, 0, 61, 0
1, 31656, Note_on_c, 0, 52, 75
1, 31677, Note_on_c, 1, 45, 0
1, 31679, Note_on_c, 0, 52, 0
1, 31680, Note_on_c, 0, 62, 75
1, 31680, Note_on_c, 1, 44, 75
1, 31700, Note_on_c, 1, 44, 0
1, 31703, Note_on_c, 0, 62, 0
1, 31704, Note_on_c, 0, 52, 75
1, 31727, Note_on_c, 0, 52, 0
1, 31728, Note_on_c, 0, 61, 75
1, 31728, Note_on_c, 1, 45, 75
1, 31748, Note_on_c, 1, 45, 0
1, 31751, Note_on_c, 0, 61, 0
1, 31752, Note_on_c, 0, 52, 75
1, 31775, Note_on_c, 0, 52, 0
1, 31776, Note_on_c, 0, 59, 75
1, 31776, Note_on_c, 1, 50, 75
1, 31796, Note_on_c, 1, 50, 0
1, 31799, Note_on_c, 0, 59, 0
1, 31800, Note_on_c, 0, 52, 75
1, 31823, Note_on_c, 0, 52, 0
1, 31824, Note_on_c, 0, 57, 75
1, 31824, Note_on_c, 1, 49, 75
1, 31844, Note_on_c, 1, 49, 0
1, 31847, Note_on_c, 0, 57, 0
1, 31848, Note_on_c, 0, 52, 75
1, 31871, Note_on_c, 0, 52, 0
1, 31872, Note_on_c, 0, 62, 75
1, 31872, Note_on_c, 1, 44, 75
1, 31892, Note_on_c, 1, 44, 0
1, 31895, Note_on_c, 0, 62, 0
1, 31896, Note_on_c, 0, 52, 75
1, 31919, Note_on_c, 0, 52, 0
1, 31920, Note_on_c, 0, 61, 75
1, 31920, Note_on_c, 1, 45, 75
1, 31940, Note_on_c, 1, 45, 0
1, 31943, Note_on_c, 0, 61, 0
1, 31944, Note_on_c, 0, 52, 75
1, 31967, Note_on_c, 0, 52, 0
1, 31968, Note_on_c, 0, 59, 75
1, 31968, Note_on_c, 1, 50, 75
1, 31988, Note_on_c, 1, 50, 0
1, 31991, Note_on_c, 0, 59, 0
1, 31992, Note_on_c, 0, 52, 75
1, 32015, Note_on_c, 0, 52, 0
1, 32016, Note_on_c, 0, 57, 75
1, 32016, Note_on_c, 1, 49, 75
1, 32036, Note_on_c, 1, 49, 0
1, 32039, Note_on_c, 0, 57, 0
1, 32040, Note_on_c, 0, 52, 75
1, 32063, Note_on_c, 0, 52, 0
1, 32064, Note_on_c, 0, 54, 75
1, 32064, Note_on_c, 1, 38, 75
1, 32087, Note_on_c, 0, 54, 0
1, 32088, Note_on_c, 0, 59, 75
1, 32111, Note_on_c, 0, 59, 0
1, 32112, Note_on_c, 0, 54, 75
1, 32135, Note_on_c, 0, 54, 0
1, 32136, Note_on_c, 0, 59, 75
1, 32153, Note_on_c, 1, 38, 0
1, 32159, Note_on_c, 0, 59, 0
1, 32160, Note_on_c, 0, 50, 75
1, 32160, Note_on_c, 1, 40, 75
1, 32183, Note_on_c, 0, 50, 0
1, 32184, Note_on_c, 0, 56, 75
1, 32207, Note_on_c, 0, 56, 0
1, 32208, Note_on_c, 0, 50, 75
1, 32231, Note_on_c, 0, 50, 0
1, 32232, Note_on_c, 0, 56, 75
1, 32249, Note_on_c, 1, 40, 0
1, 32255, Note_on_c, 0, 56, 0
1, 32256, Note_on_c, 0, 57, 75
1, 32256, Note_on_c, 0, 49, 75
1, 32256, Note_on_c, 1, 33, 75
1, 32301, Note_on_c, 1, 33, 0
1, 32304, Note_on_c, 1, 45, 75
1, 32345, Note_on_c, 0, 57, 0
1, 32345, Note_on_c, 0, 49, 0
1, 32349, Note_on_c, 1, 45, 0
1, 32352, Note_on_c, 1, 33, 75
1, 32397, Note_on_c, 1, 33, 0
1, 32400, Note_on_c, 0, 81, 69
1, 32445, Note_on_c, 0, 81, 0
1, 32448, Note_on_c, 0, 86, 69
1, 32448, Note_on_c, 1, 74, 69
1, 32471, Note_on_c, 0, 86, 0
1, 32472, Note_on_c, 0, 85, 69
1, 32487, Note_on_c, 1, 74, 0
1, 32495, Note_on_c, 0, 85, 0
1, 32496, Note_on_c, 0, 83, 69
1, 32519, Note_on_c, 0, 83, 0
1, 32520, Note_on_c, 0, 81, 69
1, 32543, Note_on_c, 0, 81, 0
1, 32544, Note_on_c, 0, 79, 69
1, 32544, Note_on_c, 1, 76, 69
1, 32567, Note_on_c, 0, 79, 0
1, 32568, Note_on_c, 0, 83, 69
1, 32583, Note_on_c, 1, 76, 0
1, 32591, Note_on_c, 0, 83, 0
1, 32592, Note_on_c, 0, 79, 69
1, 32615, Note_on_c, 0, 79, 0
1, 32616, Note_on_c, 0, 78, 69
1, 32639, Note_on_c, 0, 78, 0
1, 32640, Note_on_c, 0, 76, 69
1, 32640, Note_on_c, 1, 73, 69
1, 32663, Note_on_c, 0, 76, 0
1, 32664, Note_on_c, 0, 79, 69
1, 32679, Note_on_c, 1, 73, 0
1, 32687, Note_on_c, 0, 79, 0
1, 32688, Note_on_c, 0, 78, 69
1, 32711, Note_on_c, 0, 78, 0
1, 32712, Note_on_c, 0, 76, 69
1, 32735, Note_on_c, 0, 76, 0
1, 32736, Note_on_c, 0, 78, 69
1, 32736, Note_on_c, 1, 74, 69
1, 32759, Note_on_c, 0, 78, 0
1, 32760, Note_on_c, 0, 81, 69
1, 32775, Note_on_c, 1, 74, 0
1, 32783, Note_on_c, 0, 81, 0
1, 32784, Note_on_c, 0, 79, 69
1, 32807, Note_on_c, 0, 79, 0
1, 32808, Note_on_c, 0, 78, 69
1, 32831, Note_on_c, 0, 78, 0
1, 32832, Note_on_c, 0, 83, 75
1, 32832, Note_on_c, 1, 67, 75
1, 32855, Note_on_c, 0, 83, 0
1, 32856, Note_on_c, 0, 81, 76
1, 32871, Note_on_c, 1, 67, 0
1, 32879, Note_on_c, 0, 81, 0
1, 32880, Note_on_c, 0, 79, 77
1, 32903, Note_on_c, 0, 79, 0
1, 32904, Note_on_c, 0, 78, 78
1, 32927, Note_on_c, 0, 78, 0
1, 32928, Note_on_c, 0, 76, 79
1, 32928, Note_on_c, 1, 68, 78
1, 32951, Note_on_c, 0, 76, 0
1, 32952, Note_on_c, 0, 74, 80
1, 32967, Note_on_c, 1, 68, 0
1, 32975, Note_on_c, 0, 74, 0
1, 32976, Note_on_c, 0, 73, 81
1, 32999, Note_on_c, 0, 73, 0
1, 33000, Note_on_c, 0, 71, 82
1, 33023, Note_on_c, 0, 71, 0
1, 33024, Note_on_c, 0, 73, 83
1, 33024, Note_on_c, 1, 69, 81
1, 33047, Note_on_c, 0, 73, 0
1, 33048, Note_on_c, 0, 74, 84
1, 33063, Note_on_c, 1, 69, 0
1, 33071, Note_on_c, 0, 74, 0
1, 33072, Note_on_c, 0, 76, 84
1, 33095, Note_on_c, 0, 76, 0
1, 33096, Note_on_c, 0, 73, 84
1, 33119, Note_on_c, 0, 73, 0
1, 33120, Note_on_c, 0, 69, 84
1, 33165, Note_on_c, 0, 69, 0
1, 33168, Note_on_c, 0, 81, 75
1, 33213, Note_on_c, 0, 81, 0
1, 33216, Note_on_c, 0, 86, 75
1, 33216, Note_on_c, 1, 74, 75
1, 33239, Note_on_c, 0, 86, 0
1, 33240, Note_on_c, 0, 85, 75
1, 33255, Note_on_c, 1, 74, 0
1, 33263, Note_on_c, 0, 85, 0
1, 33264, Note_on_c, 0, 83, 75
1, 33287, Note_on_c, 0, 83, 0
1, 33288, Note_on_c, 0, 81, 75
1, 33311, Note_on_c, 0, 81, 0
1, 33312, Note_on_c, 0, 79, 75
1, 33312, Note_on_c, 1, 76, 75
1, 33335, Note_on_c, 0, 79, 0
1, 33336, Note_on_c, 0, 83, 75
1, 33351, Note_on_c, 1, 76, 0
1, 33359, Note_on_c, 0, 83, 0
1, 33360, Note_on_c, 0, 79, 75
1, 33383, Note_on_c, 0, 79, 0
1, 33384, Note_on_c, 0, 78, 75
1, 33407, Note_on_c, 0, 78, 0
1, 33408, Note_on_c, 0, 76, 75
1, 33408, Note_on_c, 1, 73, 75
1, 33431, Note_on_c, 0, 76, 0
1, 33432, Note_on_c, 0, 79, 75
1, 33447, Note_on_c, 1, 73, 0
1, 33455, Note_on_c, 0, 79, 0
1, 33456, Note_on_c, 0, 78, 75
1, 33479, Note_on_c, 0, 78, 0
1, 33480, Note_on_c, 0, 76, 75
1, 33503, Note_on_c, 0, 76, 0
1, 33504, Note_on_c, 0, 78, 75
1, 33504, Note_on_c, 1, 74, 75
1, 33527, Note_on_c, 0, 78, 0
1, 33528, Note_on_c, 0, 81, 75
1, 33543, Note_on_c, 1, 74, 0
1, 33551, Note_on_c, 0, 81, 0
1, 33552, Note_on_c, 0, 79, 75
1, 33575, Note_on_c, 0, 79, 0
1, 33576, Note_on_c, 0, 78, 75
1, 33599, Note_on_c, 0, 78, 0
1, 33600, Note_on_c, 0, 76, 75
1, 33600, Note_on_c, 1, 67, 75
1, 33623, Note_on_c, 0, 76, 0
1, 33624, Note_on_c, 0, 79, 75
1, 33639, Note_on_c, 1, 67, 0
1, 33647, Note_on_c, 0, 79, 0
1, 33648, Note_on_c, 0, 78, 75
1, 33671, Note_on_c, 0, 78, 0
1, 33672, Note_on_c, 0, 76, 75
1, 33695, Note_on_c, 0, 76, 0
1, 33696, Note_on_c, 0, 74, 75
1, 33696, Note_on_c, 1, 69, 75
1, 33719, Note_on_c, 0, 74, 0
1, 33720, Note_on_c, 0, 73, 75
1, 33735, Note_on_c, 1, 69, 0
1, 33743, Note_on_c, 0, 73, 0
1, 33744, Note_on_c, 0, 76, 75
1, 33767, Note_on_c, 0, 76, 0
1, 33768, Note_on_c, 0, 73, 75
1, 33791, Note_on_c, 0, 73, 0
1, 33792, Note_on_c, 0, 74, 75
1, 33792, Note_on_c, 1, 62, 75
1, 33837, Note_on_c, 1, 62, 0
1, 33840, Note_on_c, 1, 57, 75
1, 33881, Note_on_c, 0, 74, 0
1, 33885, Note_on_c, 1, 57, 0
1, 33888, Note_on_c, 1, 50, 75
1, 33933, Note_on_c, 1, 50, 0
1, 33936, Note_on_c, 0, 81, 69
1, 33981, Note_on_c, 0, 81, 0
1, 33984, Note_on_c, 0, 86, 69
1, 33984, Note_on_c, 1, 74, 69
1, 34007, Note_on_c, 0, 86, 0
1, 34008, Note_on_c, 0, 85, 69
1, 34023, Note_on_c, 1, 74, 0
1, 34031, Note_on_c, 0, 85, 0
1, 34032, Note_on_c, 0, 83, 69
1, 34055, Note_on_c, 0, 83, 0
1, 34056, Note_on_c, 0, 81, 69
1, 34079, Note_on_c, 0, 81, 0
1, 34080, Note_on_c, 0, 79, 69
1, 34080, Note_on_c, 1, 76, 69
1, 34103, Note_on_c, 0, 79, 0
1, 34104, Note_on_c, 0, 83, 69
1, 34119, Note_on_c, 1, 76, 0
1, 34127, Note_on_c, 0, 83, 0
1, 34128, Note_on_c, 0, 79, 69
1, 34151, Note_on_c, 0, 79, 0
1, 34152, Note_on_c, 0, 78, 69
1, 34175, Note_on_c, 0, 78, 0
1, 34176, Note_on_c, 0, 76, 69
1, 34176, Note_on_c, 1, 73, 69
1, 34199, Note_on_c, 0, 76, 0
1, 34200, Note_on_c, 0, 79, 69
1, 34215, Note_on_c, 1, 73, 0
1, 34223, Note_on_c, 0, 79, 0
1, 34224, Note_on_c, 0, 78, 69
1, 34247, Note_on_c, 0, 78, 0
1, 34248, Note_on_c, 0, 76, 69
1, 34271, Note_on_c, 0, 76, 0
1, 34272, Note_on_c, 0, 78, 69
1, 34272, Note_on_c, 1, 74, 69
1, 34295, Note_on_c, 0, 78, 0
1, 34296, Note_on_c, 0, 81, 69
1, 34311, Note_on_c, 1, 74, 0
1, 34319, Note_on_c, 0, 81, 0
1, 34320, Note_on_c, 0, 79, 69
1, 34343, Note_on_c, 0, 79, 0
1, 34344, Note_on_c, 0, 78, 69
1, 34367, Note_on_c, 0, 78, 0
1, 34368, Note_on_c, 0, 83, 75
1, 34368, Note_on_c, 1, 67, 75
1, 34391, Note_on_c, 0, 83, 0
1, 34392, Note_on_c, 0, 81, 76
1, 34407, Note_on_c, 1, 67, 0
1, 34415, Note_on_c, 0, 81, 0
1, 34416, Note_on_c, 0, 79, 77
1, 34439, Note_on_c, 0, 79, 0
1, 34440, Note_on_c, 0, 78, 78
1, 34463, Note_on_c, 0, 78, 0
1, 34464, Note_on_c, 0, 76, 79
1, 34464, Note_on_c, 1, 68, 78
1, 34487, Note_on_c, 0, 76, 0
1, 34488, Note_on_c, 0, 74, 80
1, 34503, Note_on_c, 1, 68, 0
1, 34511, Note_on_c, 0, 74, 0
1, 34512, Note_on_c, 0, 73, 81
1, 34535, Note_on_c, 0, 73, 0
1, 34536, Note_on_c, 0, 71, 82
1, 34559, Note_on_c, 0, 71, 0
1, 34560, Note_on_c, 0, 73, 83
1, 34560, Note_on_c, 1, 69, 81
1, 34583, Note_on_c, 0, 73, 0
1, 34584, Note_on_c, 0, 74, 84
1, 34599, Note_on_c, 1, 69, 0
1, 34607, Note_on_c, 0, 74, 0
1, 34608, Note_on_c, 0, 76, 84
1, 34631, Note_on_c, 0, 76, 0
1, 34632, Note_on_c, 0, 73, 84
1, 34655, Note_on_c, 0, 73, 0
1, 34656, Note_on_c, 0, 69, 84
1, 34701, Note_on_c, 0, 69, 0
1, 34704, Note_on_c, 0, 81, 75
1, 34749, Note_on_c, 0, 81, 0
1, 34752, Note_on_c, 0, 86, 75
1, 34752, Note_on_c, 1, 74, 75
1, 34775, Note_on_c, 0, 86, 0
1, 34776, Note_on_c, 0, 85, 75
1, 34791, Note_on_c, 1, 74, 0
1, 34799, Note_on_c, 0, 85, 0
1, 34800, Note_on_c, 0, 83, 75
1, 34823, Note_on_c, 0, 83, 0
1, 34824, Note_on_c, 0, 81, 75
1, 34847, Note_on_c, 0, 81, 0
1, 34848, Note_on_c, 0, 79, 75
1, 34848, Note_on_c, 1, 76, 75
1, 34871, Note_on_c, 0, 79, 0
1, 34872, Note_on_c, 0, 83, 75
1, 34887, Note_on_c, 1, 76, 0
1, 34895, Note_on_c, 0, 83, 0
1, 34896, Note_on_c, 0, 79, 75
1, 34919, Note_on_c, 0, 79, 0
1, 34920, Note_on_c, 0, 78, 75
1, 34943, Note_on_c, 0, 78, 0
1, 34944, Note_on_c, 0, 76, 75
1, 34944, Note_on_c, 1, 73, 75
1, 34967, Note_on_c, 0, 76, 0
1, 34968, Note_on_c, 0, 79, 75
1, 34983, Note_on_c, 1, 73, 0
1, 34991, Note_on_c, 0, 79, 0
1, 34992, Note_on_c, 0, 78, 75
1, 35015, Note_on_c, 0, 78, 0
1, 35016, Note_on_c, 0, 76, 75
1, 35039, Note_on_c, 0, 76, 0
1, 35040, Note_on_c, 0, 78, 75
1, 35040, Note_on_c, 1, 74, 75
1, 35063, Note_on_c, 0, 78, 0
1, 35064, Note_on_c, 0, 81, 75
1, 35079, Note_on_c, 1, 74, 0
1, 35087, Note_on_c, 0, 81, 0
1, 35088, Note_on_c, 0, 79, 75
1, 35111, Note_on_c, 0, 79, 0
1, 35112, Note_on_c, 0, 78, 75
1, 35135, Note_on_c, 0, 78, 0
1, 35136, Note_on_c, 0, 76, 75
1, 35136, Note_on_c, 1, 67, 75
1, 35159, Note_on_c, 0, 76, 0
1, 35160, Note_on_c, 0, 79, 75
1, 35175, Note_on_c, 1, 67, 0
1, 35183, Note_on_c, 0, 79, 0
1, 35184, Note_on_c, 0, 78, 75
1, 35207, Note_on_c, 0, 78, 0
1, 35208, Note_on_c, 0, 76, 75
1, 35231, Note_on_c, 0, 76, 0
1, 35232, Note_on_c, 0, 74, 75
1, 35232, Note_on_c, 1, 69, 75
1, 35255, Note_on_c, 0, 74, 0
1, 35256, Note_on_c, 0, 73, 75
1, 35271, Note_on_c, 1, 69, 0
1, 35279, Note_on_c, 0, 73, 0
1, 35280, Note_on_c, 0, 76, 75
1, 35303, Note_on_c, 0, 76, 0
1, 35304, Note_on_c, 0, 73, 75
1, 35327, Note_on_c, 0, 73, 0
1, 35328, Note_on_c, 0, 74, 75
1, 35328, Note_on_c, 1, 62, 75
1, 35373, Note_on_c, 1, 62, 0
1, 35376, Note_on_c, 1, 57, 75
1, 35417, Note_on_c, 0, 74, 0
1, 35421, Note_on_c, 1, 57, 0
1, 35424, Note_on_c, 1, 50, 75
1, 35469, Note_on_c, 1, 50, 0
1, 35472, Note_on_c, 0, 78, 75
1, 35484, Note_on_c, 0, 78, 0
1, 35484, Note_on_c, 0, 76, 75
1, 35496, Note_on_c, 0, 76, 0
1, 35496, Note_on_c, 0, 78, 75
1, 35517, Note_on_c, 0, 78, 0
1, 35520, Note_on_c, 0, 79, 75
1, 35520, Note_on_c, 1, 61, 75
1, 35543, Note_on_c, 0, 79, 0
1, 35544, Note_on_c, 0, 78, 75
1, 35559, Note_on_c, 1, 61, 0
1, 35567, Note_on_c, 0, 78, 0
1, 35568, Note_on_c, 0, 76, 75
1, 35591, Note_on_c, 0, 76, 0
1, 35592, Note_on_c, 0, 74, 75
1, 35615, Note_on_c, 0, 74, 0
1, 35616, Note_on_c, 0, 73, 75
1, 35616, Note_on_c, 1, 69, 75
1, 35639, Note_on_c, 0, 73, 0
1, 35640, Note_on_c, 0, 71, 75
1, 35655, Note_on_c, 1, 69, 0
1, 35663, Note_on_c, 0, 71, 0
1, 35664, Note_on_c, 0, 69, 75
1, 35687, Note_on_c, 0, 69, 0
1, 35688, Note_on_c, 0, 79, 75
1, 35711, Note_on_c, 0, 79, 0
1, 35712, Note_on_c, 0, 78, 75
1, 35712, Note_on_c, 1, 62, 75
1, 35735, Note_on_c, 0, 78, 0
1, 35736, Note_on_c, 0, 76, 75
1, 35751, Note_on_c, 1, 62, 0
1, 35759, Note_on_c, 0, 76, 0
1, 35760, Note_on_c, 0, 74, 75
1, 35783, Note_on_c, 0, 74, 0
1, 35784, Note_on_c, 0, 76, 75
1, 35807, Note_on_c, 0, 76, 0
1, 35808, Note_on_c, 0, 78, 75
1, 35808, Note_on_c, 1, 62, 75
1, 35831, Note_on_c, 0, 78, 0
1, 35832, Note_on_c, 0, 79, 75
1, 35847, Note_on_c, 1, 62, 0
1, 35855, Note_on_c, 0, 79, 0
1, 35856, Note_on_c, 0, 81, 75
1, 35879, Note_on_c, 0, 81, 0
1, 35880, Note_on_c, 0, 78, 75
1, 35903, Note_on_c, 0, 78, 0
1, 35904, Note_on_c, 0, 79, 75
1, 35904, Note_on_c, 1, 71, 75
1, 35927, Note_on_c, 0, 79, 0
1, 35928, Note_on_c, 0, 81, 75
1, 35943, Note_on_c, 1, 71, 0
1, 35951, Note_on_c, 0, 81, 0
1, 35952, Note_on_c, 0, 79, 75
1, 35975, Note_on_c, 0, 79, 0
1, 35976, Note_on_c, 0, 78, 75
1, 35999, Note_on_c, 0, 78, 0
1, 36000, Note_on_c, 0, 76, 75
1, 36000, Note_on_c, 1, 67, 75
1, 36023, Note_on_c, 0, 76, 0
1, 36024, Note_on_c, 0, 78, 75
1, 36039, Note_on_c, 1, 67, 0
1, 36047, Note_on_c, 0, 78, 0
1, 36048, Note_on_c, 0, 76, 75
1, 36071, Note_on_c, 0, 76, 0
1, 36072, Note_on_c, 0, 74, 75
1, 36095, Note_on_c, 0, 74, 0
1, 36096, Note_on_c, 0, 73, 75
1, 36096, Note_on_c, 1, 69, 75
1, 36119, Note_on_c, 0, 73, 0
1, 36120, Note_on_c, 0, 74, 75
1, 36135, Note_on_c, 1, 69, 0
1, 36143, Note_on_c, 0, 74, 0
1, 36144, Note_on_c, 0, 73, 75
1, 36167, Note_on_c, 0, 73, 0
1, 36168, Note_on_c, 0, 71, 75
1, 36191, Note_on_c, 0, 71, 0
1, 36192, Note_on_c, 0, 69, 75
1, 36237, Note_on_c, 0, 69, 0
1, 36240, Note_on_c, 0, 78, 75
1, 36252, Note_on_c, 0, 78, 0
1, 36252, Note_on_c, 0, 76, 75
1, 36264, Note_on_c, 0, 76, 0
1, 36264, Note_on_c, 0, 78, 75
1, 36285, Note_on_c, 0, 78, 0
1, 36288, Note_on_c, 0, 79, 75
1, 36288, Note_on_c, 1, 61, 75
1, 36311, Note_on_c, 0, 79, 0
1, 36312, Note_on_c, 0, 78, 75
1, 36327, Note_on_c, 1, 61, 0
1, 36335, Note_on_c, 0, 78, 0
1, 36336, Note_on_c, 0, 76, 75
1, 36359, Note_on_c, 0, 76, 0
1, 36360, Note_on_c, 0, 74, 75
1, 36383, Note_on_c, 0, 74, 0
1, 36384, Note_on_c, 0, 73, 75
1, 36384, Note_on_c, 1, 69, 75
1, 36407, Note_on_c, 0, 73, 0
1, 36408, Note_on_c, 0, 71, 75
1, 36423, Note_on_c, 1, 69, 0
1, 36431, Note_on_c, 0, 71, 0
1, 36432, Note_on_c, 0, 69, 75
1, 36455, Note_on_c, 0, 69, 0
1, 36456, Note_on_c, 0, 79, 75
1, 36479, Note_on_c, 0, 79, 0
1, 36480, Note_on_c, 0, 78, 75
1, 36480, Note_on_c, 1, 62, 75
1, 36503, Note_on_c, 0, 78, 0
1, 36504, Note_on_c, 0, 76, 75
1, 36519, Note_on_c, 1, 62, 0
1, 36527, Note_on_c, 0, 76, 0
1, 36528, Note_on_c, 0, 74, 75
1, 36551, Note_on_c, 0, 74, 0
1, 36552, Note_on_c, 0, 76, 75
1, 36575, Note_on_c, 0, 76, 0
1, 36576, Note_on_c, 0, 78, 75
1, 36576, Note_on_c, 1, 62, 75
1, 36599, Note_on_c, 0, 78, 0
1, 36600, Note_on_c, 0, 79, 75
1, 36615, Note_on_c, 1, 62, 0
1, 36623, Note_on_c, 0, 79, 0
1, 36624, Note_on_c, 0, 81, 75
1, 36647, Note_on_c, 0, 81, 0
1, 36648, Note_on_c, 0, 78, 75
1, 36671, Note_on_c, 0, 78, 0
1, 36672, Note_on_c, 0, 76, 75
1, 36672, Note_on_c, 1, 67, 75
1, 36695, Note_on_c, 0, 76, 0
1, 36696, Note_on_c, 0, 79, 75
1, 36711, Note_on_c, 1, 67, 0
1, 36719, Note_on_c, 0, 79, 0
1, 36720, Note_on_c, 0, 78, 75
1, 36743, Note_on_c, 0, 78, 0
1, 36744, Note_on_c, 0, 76, 75
1, 36767, Note_on_c, 0, 76, 0
1, 36768, Note_on_c, 0, 74, 75
1, 36768, Note_on_c, 1, 69, 75
1, 36791, Note_on_c, 0, 74, 0
1, 36792, Note_on_c, 0, 73, 75
1, 36807, Note_on_c, 1, 69, 0
1, 36815, Note_on_c, 0, 73, 0
1, 36816, Note_on_c, 0, 76, 75
1, 36839, Note_on_c, 0, 76, 0
1, 36840, Note_on_c, 0, 73, 75
1, 36863, Note_on_c, 0, 73, 0
1, 36864, Note_on_c, 0, 74, 75
1, 36864, Note_on_c, 1, 62, 75
1, 36909, Note_on_c, 1, 62, 0
1, 36912, Note_on_c, 1, 57, 75
1, 36953, Note_on_c, 0, 74, 0
1, 36957, Note_on_c, 1, 57, 0
1, 36960, Note_on_c, 1, 50, 75
1, 37005, Note_on_c, 1, 50, 0
1, 37008, Note_on_c, 0, 78, 75
1, 37020, Note_on_c, 0, 78, 0
1, 37020, Note_on_c, 0, 76, 75
1, 37032, Note_on_c, 0, 76, 0
1, 37032, Note_on_c, 0, 78, 75
1, 37053, Note_on_c, 0, 78, 0
1, 37056, Note_on_c, 0, 79, 75
1, 37056, Note_on_c, 1, 61, 75
1, 37079, Note_on_c, 0, 79, 0
1, 37080, Note_on_c, 0, 78, 75
1, 37095, Note_on_c, 1, 61, 0
1, 37103, Note_on_c, 0, 78, 0
1, 37104, Note_on_c, 0, 76, 75
1, 37127, Note_on_c, 0, 76, 0
1, 37128, Note_on_c, 0, 74, 75
1, 37151, Note_on_c, 0, 74, 0
1, 37152, Note_on_c, 0, 73, 75
1, 37152, Note_on_c, 1, 69, 75
1, 37175, Note_on_c, 0, 73, 0
1, 37176, Note_on_c, 0, 71, 75
1, 37191, Note_on_c, 1, 69, 0
1, 37199, Note_on_c, 0, 71, 0
1, 37200, Note_on_c, 0, 69, 75
1, 37223, Note_on_c, 0, 69, 0
1, 37224, Note_on_c, 0, 79, 75
1, 37247, Note_on_c, 0, 79, 0
1, 37248, Note_on_c, 0, 78, 75
1, 37248, Note_on_c, 1, 62, 75
1, 37271, Note_on_c, 0, 78, 0
1, 37272, Note_on_c, 0, 76, 75
1, 37287, Note_on_c, 1, 62, 0
1, 37295, Note_on_c, 0, 76, 0
1, 37296, Note_on_c, 0, 74, 75
1, 37319, Note_on_c, 0, 74, 0
1, 37320, Note_on_c, 0, 76, 75
1, 37343, Note_on_c, 0, 76, 0
1, 37344, Note_on_c, 0, 78, 75
1, 37344, Note_on_c, 1, 62, 75
1, 37367, Note_on_c, 0, 78, 0
1, 37368, Note_on_c, 0, 79, 75
1, 37383, Note_on_c, 1, 62, 0
1, 37391, Note_on_c, 0, 79, 0
1, 37392, Note_on_c, 0, 81, 75
1, 37415, Note_on_c, 0, 81, 0
1, 37416, Note_on_c, 0, 78, 75
1, 37439, Note_on_c, 0, 78, 0
1, 37440, Note_on_c, 0, 79, 75
1, 37440, Note_on_c, 1, 71, 75
1, 37463, Note_on_c, 0, 79, 0
1, 37464, Note_on_c, 0, 81, 75
1, 37479, Note_on_c, 1, 71, 0
1, 37487, Note_on_c, 0, 81, 0
1, 37488, Note_on_c, 0, 79, 75
1, 37511, Note_on_c, 0, 79, 0
1, 37512, Note_on_c, 0, 78, 75
1, 37535, Note_on_c, 0, 78, 0
1, 37536, Note_on_c, 0, 76, 75
1, 37536, Note_on_c, 1, 67, 75
1, 37559, Note_on_c, 0, 76, 0
1, 37560, Note_on_c, 0, 78, 75
1, 37575, Note_on_c, 1, 67, 0
1, 37583, Note_on_c, 0, 78, 0
1, 37584, Note_on_c, 0, 76, 75
1, 37607, Note_on_c, 0, 76, 0
1, 37608, Note_on_c, 0, 74, 75
1, 37631, Note_on_c, 0, 74, 0
1, 37632, Note_on_c, 0, 73, 75
1, 37632, Note_on_c, 1, 69, 75
1, 37655, Note_on_c, 0, 73, 0
1, 37656, Note_on_c, 0, 74, 75
1, 37671, Note_on_c, 1, 69, 0
1, 37679, Note_on_c, 0, 74, 0
1, 37680, Note_on_c, 0, 73, 75
1, 37703, Note_on_c, 0, 73, 0
1, 37704, Note_on_c, 0, 71, 75
1, 37727, Note_on_c, 0, 71, 0
1, 37728, Note_on_c, 0, 69, 75
1, 37773, Note_on_c, 0, 69, 0
1, 37776, Note_on_c, 0, 78, 75
1, 37788, Note_on_c, 0, 78, 0
1, 37788, Note_on_c, 0, 76, 75
1, 37800, Note_on_c, 0, 76, 0
1, 37800, Note_on_c, 0, 78, 75
1, 37821, Note_on_c, 0, 78, 0
1, 37824, Note_on_c, 0, 79, 75
1, 37824, Note_on_c, 1, 61, 75
1, 37847, Note_on_c, 0, 79, 0
1, 37848, Note_on_c, 0, 78, 75
1, 37863, Note_on_c, 1, 61, 0
1, 37871, Note_on_c, 0, 78, 0
1, 37872, Note_on_c, 0, 76, 75
1, 37895, Note_on_c, 0, 76, 0
1, 37896, Note_on_c, 0, 74, 75
1, 37919, Note_on_c, 0, 74, 0
1, 37920, Note_on_c, 0, 73, 75
1, 37920, Note_on_c, 1, 69, 75
1, 37943, Note_on_c, 0, 73, 0
1, 37944, Note_on_c, 0, 71, 75
1, 37959, Note_on_c, 1, 69, 0
1, 37967, Note_on_c, 0, 71, 0
1, 37968, Note_on_c, 0, 69, 75
1, 37991, Note_on_c, 0, 69, 0
1, 37992, Note_on_c, 0, 79, 75
1, 38015, Note_on_c, 0, 79, 0
1, 38016, Note_on_c, 0, 78, 75
1, 38016, Note_on_c, 1, 62, 75
1, 38039, Note_on_c, 0, 78, 0
1, 38040, Note_on_c, 0, 76, 75
1, 38055, Note_on_c, 1, 62, 0
1, 38063, Note_on_c, 0, 76, 0
1, 38064, Note_on_c, 0, 74, 75
1, 38087, Note_on_c, 0, 74, 0
1, 38088, Note_on_c, 0, 76, 75
1, 38111, Note_on_c, 0, 76, 0
1, 38112, Note_on_c, 0, 78, 75
1, 38112, Note_on_c, 1, 62, 75
1, 38135, Note_on_c, 0, 78, 0
1, 38136, Note_on_c, 0, 79, 75
1, 38151, Note_on_c, 1, 62, 0
1, 38159, Note_on_c, 0, 79, 0
1, 38160, Note_on_c, 0, 81, 75
1, 38183, Note_on_c, 0, 81, 0
1, 38184, Note_on_c, 0, 78, 75
1, 38207, Note_on_c, 0, 78, 0
1, 38208, Note_on_c, 0, 76, 75
1, 38208, Note_on_c, 1, 67, 75
1, 38231, Note_on_c, 0, 76, 0
1, 38232, Note_on_c, 0, 79, 75
1, 38247, Note_on_c, 1, 67, 0
1, 38255, Note_on_c, 0, 79, 0
1, 38256, Note_on_c, 0, 78, 75
1, 38279, Note_on_c, 0, 78, 0
1, 38280, Note_on_c, 0, 76, 75
1, 38303, Note_on_c, 0, 76, 0
1, 38304, Note_on_c, 0, 74, 75
1, 38304, Note_on_c, 1, 69, 75
1, 38327, Note_on_c, 0, 74, 0
1, 38328, Note_on_c, 0, 73, 75
1, 38343, Note_on_c, 1, 69, 0
1, 38351, Note_on_c, 0, 73, 0
1, 38352, Note_on_c, 0, 76, 75
1, 38375, Note_on_c, 0, 76, 0
1, 38376, Note_on_c, 0, 73, 75
1, 38399, Note_on_c, 0, 73, 0
1, 38400, Note_on_c, 0, 74, 75
1, 38400, Note_on_c, 1, 62, 75
1, 38445, Note_on_c, 1, 62, 0
1, 38448, Note_on_c, 1, 57, 75
1, 38489, Note_on_c, 0, 74, 0
1, 38493, Note_on_c, 1, 57, 0
1, 38496, Note_on_c, 1, 50, 75
1, 38541, Note_on_c, 1, 50, 0
1, 38544, Note_on_c, 0, 81, 69
1, 38544, Note_on_c, 0, 69, 69
1, 38589, Note_on_c, 0, 81, 0
1, 38589, Note_on_c, 0, 69, 0
1, 38592, Note_on_c, 1, 62, 69
1, 38592, Note_on_c, 1, 50, 69
1, 38637, Note_on_c, 1, 62, 0
1, 38637, Note_on_c, 1, 50, 0
1, 38640, Note_on_c, 0, 78, 69
1, 38640, Note_on_c, 0, 66, 69
1, 38685, Note_on_c, 0, 78, 0
1, 38685, Note_on_c, 0, 66, 0
1, 38688, Note_on_c, 1, 64, 69
1, 38688, Note_on_c, 1, 52, 69
1, 38733, Note_on_c, 1, 64, 0
1, 38733, Note_on_c, 1, 52, 0
1, 38736, Note_on_c, 0, 79, 69
1, 38736, Note_on_c, 0, 67, 69
1, 38781, Note_on_c, 0, 79, 0
1, 38781, Note_on_c, 0, 67, 0
1, 38784, Note_on_c, 1, 61, 69
1, 38784, Note_on_c, 1, 49, 69
1, 38829, Note_on_c, 1, 61, 0
1, 38829, Note_on_c, 1, 49, 0
1, 38832, Note_on_c, 0, 76, 69
1, 38832, Note_on_c, 0, 64, 69
1, 38877, Note_on_c, 0, 76, 0
1, 38877, Note_on_c, 0, 64, 0
1, 38880, Note_on_c, 1, 62, 69
1, 38880, Note_on_c, 1, 50, 69
1, 38925, Note_on_c, 1, 62, 0
1, 38925, Note_on_c, 1, 50, 0
1, 38928, Note_on_c, 0, 78, 69
1, 38928, Note_on_c, 0, 66, 69
1, 38973, Note_on_c, 0, 78, 0
1, 38973, Note_on_c, 0, 66, 0
1, 38976, Note_on_c, 1, 55, 69
1, 38976, Note_on_c, 1, 43, 69
1, 39021, Note_on_c, 1, 55, 0
1, 39021, Note_on_c, 1, 43, 0
1, 39024, Note_on_c, 0, 71, 69
1, 39024, Note_on_c, 0, 59, 69
1, 39069, Note_on_c, 0, 71, 0
1, 39069, Note_on_c, 0, 59, 0
1, 39072, Note_on_c, 1, 56, 69
1, 39072, Note_on_c, 1, 44, 69
1, 39117, Note_on_c, 1, 56, 0
1, 39117, Note_on_c, 1, 44, 0
1, 39120, Note_on_c, 0, 76, 69
1, 39120, Note_on_c, 0, 64, 69
1, 39165, Note_on_c, 0, 76, 0
1, 39165, Note_on_c, 0, 64, 0
1, 39168, Note_on_c, 0, 74, 69
1, 39168, Note_on_c, 0, 62, 69
1, 39168, Note_on_c, 1, 57, 69
1, 39213, Note_on_c, 1, 57, 0
1, 39216, Note_on_c, 1, 52, 69
1, 39261, Note_on_c, 1, 52, 0
1, 39264, Note_on_c, 0, 74, 0
1, 39264, Note_on_c, 0, 62, 0
1, 39264, Note_on_c, 0, 73, 69
1, 39264, Note_on_c, 0, 61, 69
1, 39264, Note_on_c, 1, 45, 69
1, 39309, Note_on_c, 0, 73, 0
1, 39309, Note_on_c, 0, 61, 0
1, 39309, Note_on_c, 1, 45, 0
1, 39312, Note_on_c, 0, 81, 69
1, 39312, Note_on_c, 0, 69, 69
1, 39357, Note_on_c, 0, 81, 0
1, 39357, Note_on_c, 0, 69, 0
1, 39360, Note_on_c, 1, 62, 69
1, 39360, Note_on_c, 1, 50, 69
1, 39405, Note_on_c, 1, 62, 0
1, 39405, Note_on_c, 1, 50, 0
1, 39408, Note_on_c, 0, 78, 69
1, 39408, Note_on_c, 0, 66, 69
1, 39453, Note_on_c, 0, 78, 0
1, 39453, Note_on_c, 0, 66, 0
1, 39456, Note_on_c, 1, 64, 69
1, 39456, Note_on_c, 1, 52, 69
1, 39501, Note_on_c, 1, 64, 0
1, 39501, Note_on_c, 1, 52, 0
1, 39504, Note_on_c, 0, 79, 69
1, 39504, Note_on_c, 0, 67, 69
1, 39549, Note_on_c, 0, 79, 0
1, 39549, Note_on_c, 0, 67, 0
1, 39552, Note_on_c, 1, 61, 69
1, 39552, Note_on_c, 1, 49, 69
1, 39597, Note_on_c, 1, 61, 0
1, 39597, Note_on_c, 1, 49, 0
1, 39600, Note_on_c, 0, 76, 69
1, 39600, Note_on_c, 0, 64, 69
1, 39645, Note_on_c, 0, 76, 0
1, 39645, Note_on_c, 0, 64, 0
1, 39648, Note_on_c, 1, 62, 69
1, 39648, Note_on_c, 1, 50, 69
1, 39693, Note_on_c, 1, 62, 0
1, 39693, Note_on_c, 1, 50, 0
1, 39696, Note_on_c, 0, 78, 69
1, 39696, Note_on_c, 0, 66, 69
1, 39744, Note_on_c, 1, 55, 69
1, 39744, Note_on_c, 1, 43, 69
1, 39789, Note_on_c, 0, 78, 0
1, 39789, Note_on_c, 0, 66, 0
1, 39792, Note_on_c, 0, 76, 69
1, 39792, Note_on_c, 0, 64, 69
1, 39833, Note_on_c, 1, 55, 0
1, 39833, Note_on_c, 1, 43, 0
1, 39837, Note_on_c, 0, 76, 0
1, 39837, Note_on_c, 0, 64, 0
1, 39840, Note_on_c, 0, 74, 69
1, 39840, Note_on_c, 0, 62, 69
1, 39840, Note_on_c, 1, 57, 69
1, 39840, Note_on_c, 1, 45, 69
1, 39885, Note_on_c, 0, 74, 0
1, 39885, Note_on_c, 0, 62, 0
1, 39888, Note_on_c, 0, 73, 69
1, 39888, Note_on_c, 0, 61, 69
1, 39929, Note_on_c, 1, 57, 0
1, 39929, Note_on_c, 1, 45, 0
1, 39933, Note_on_c, 0, 73, 0
1, 39933, Note_on_c, 0, 61, 0
1, 39936, Note_on_c, 0, 74, 69
1, 39936, Note_on_c, 0, 62, 69
1, 39936, Note_on_c, 1, 50, 69
1, 39981, Note_on_c, 1, 50, 0
1, 39984, Note_on_c, 1, 45, 69
1, 40025, Note_on_c, 0, 74, 0
1, 40025, Note_on_c, 0, 62, 0
1, 40029, Note_on_c, 1, 45, 0
1, 40032, Note_on_c, 1, 38, 69
1, 40077, Note_on_c, 1, 38, 0
1, 40080, Note_on_c, 0, 81, 69
1, 40080, Note_on_c, 0, 69, 69
1, 40125, Note_on_c, 0, 81, 0
1, 40125, Note_on_c, 0, 69, 0
1, 40128, Note_on_c, 1, 62, 69
1, 40128, Note_on_c, 1, 50, 69
1, 40173, Note_on_c, 1, 62, 0
1, 40173, Note_on_c, 1, 50, 0
1, 40176, Note_on_c, 0, 78, 69
1, 40176, Note_on_c, 0, 66, 69
1, 40221, Note_on_c, 0, 78, 0
1, 40221, Note_on_c, 0, 66, 0
1, 40224, Note_on_c, 1, 64, 69
1, 40224, Note_on_c, 1, 52, 69
1, 40269, Note_on_c, 1, 64, 0
1, 40269, Note_on_c, 1, 52, 0
1, 40272, Note_on_c, 0, 79, 69
1, 40272, Note_on_c, 0, 67, 69
1, 40317, Note_on_c, 0, 79, 0
1, 40317, Note_on_c, 0, 67, 0
1, 40320, Note_on_c, 1, 61, 69
1, 40320, Note_on_c, 1, 49, 69
1, 40365, Note_on_c, 1, 61, 0
1, 40365, Note_on_c, 1, 49, 0
1, 40368, Note_on_c, 0, 76, 69
1, 40368, Note_on_c, 0, 64, 69
1, 40413, Note_on_c, 0, 76, 0
1, 40413, Note_on_c, 0, 64, 0
1, 40416, Note_on_c, 1, 62, 69
1, 40416, Note_on_c, 1, 50, 69
1, 40461, Note_on_c, 1, 62, 0
1, 40461, Note_on_c, 1, 50, 0
1, 40464, Note_on_c, 0, 78, 69
1, 40464, Note_on_c, 0, 66, 69
1, 40509, Note_on_c, 0, 78, 0
1, 40509, Note_on_c, 0, 66, 0
1, 40512, Note_on_c, 1, 55, 69
1, 40512, Note_on_c, 1, 43, 69
1, 40557, Note_on_c, 1, 55, 0
1, 40557, Note_on_c, 1, 43, 0
1, 40560, Note_on_c, 0, 71, 69
1, 40560, Note_on_c, 0, 59, 69
1, 40605, Note_on_c, 0, 71, 0
1, 40605, Note_on_c, 0, 59, 0
1, 40608, Note_on_c, 1, 56, 69
1, 40608, Note_on_c, 1, 44, 69
1, 40653, Note_on_c, 1, 56, 0
1, 40653, Note_on_c, 1, 44, 0
1, 40656, Note_on_c, 0, 76, 69
1, 40656, Note_on_c, 0, 64, 69
1, 40701, Note_on_c, 0, 76, 0
1, 40701, Note_on_c, 0, 64, 0
1, 40704, Note_on_c, 0, 74, 69
1, 40704, Note_on_c, 0, 62, 69
1, 40704, Note_on_c, 1, 57, 69
1, 40749, Note_on_c, 1, 57, 0
1, 40752, Note_on_c, 1, 52, 69
1, 40797, Note_on_c, 1, 52, 0
1, 40800, Note_on_c, 0, 74, 0
1, 40800, Note_on_c, 0, 62, 0
1, 40800, Note_on_c, 0, 73, 69
1, 40800, Note_on_c, 0, 61, 69
1, 40800, Note_on_c, 1, 45, 69
1, 40845, Note_on_c, 0, 73, 0
1, 40845, Note_on_c, 0, 61, 0
1, 40845, Note_on_c, 1, 45, 0
1, 40848, Note_on_c, 0, 81, 69
1, 40848, Note_on_c, 0, 69, 69
1, 40893, Note_on_c, 0, 81, 0
1, 40893, Note_on_c, 0, 69, 0
1, 40896, Note_on_c, 1, 62, 69
1, 40896, Note_on_c, 1, 50, 69
1, 40941, Note_on_c, 1, 62, 0
1, 40941, Note_on_c, 1, 50, 0
1, 40944, Note_on_c, 0, 78, 69
1, 40944, Note_on_c, 0, 66, 69
1, 40989, Note_on_c, 0, 78, 0
1, 40989, Note_on_c, 0, 66, 0
1, 40992, Note_on_c, 1, 64, 69
1, 40992, Note_on_c, 1, 52, 69
1, 41037, Note_on_c, 1, 64, 0
1, 41037, Note_on_c, 1, 52, 0
1, 41040, Note_on_c, 0, 79, 69
1, 41040, Note_on_c, 0, 67, 69
1, 41085, Note_on_c, 0, 79, 0
1, 41085, Note_on_c, 0, 67, 0
1, 41088, Note_on_c, 1, 61, 69
1, 41088, Note_on_c, 1, 49, 69
1, 41133, Note_on_c, 1, 61, 0
1, 41133, Note_on_c, 1, 49, 0
1, 41136, Note_on_c, 0, 76, 69
1, 41136, Note_on_c, 0, 64, 69
1, 41181, Note_on_c, 0, 76, 0
1, 41181, Note_on_c, 0, 64, 0
1, 41184, Note_on_c, 1, 62, 69
1, 41184, Note_on_c, 1, 50, 69
1, 41229, Note_on_c, 1, 62, 0
1, 41229, Note_on_c, 1, 50, 0
1, 41232, Note_on_c, 0, 78, 69
1, 41232, Note_on_c, 0, 66, 69
1, 41280, Note_on_c, 1, 55, 69
1, 41280, Note_on_c, 1, 43, 69
1, 41325, Note_on_c, 0, 78, 0
1, 41325, Note_on_c, 0, 66, 0
1, 41328, Note_on_c, 0, 76, 69
1, 41328, Note_on_c, 0, 64, 69
1, 41369, Note_on_c, 1, 55, 0
1, 41369, Note_on_c, 1, 43, 0
1, 41373, Note_on_c, 0, 76, 0
1, 41373, Note_on_c, 0, 64, 0
1, 41376, Note_on_c, 0, 74, 69
1, 41376, Note_on_c, 0, 62, 69
1, 41376, Note_on_c, 1, 57, 69
1, 41376, Note_on_c, 1, 45, 69
1, 41421, Note_on_c, 0, 74, 0
1, 41421, Note_on_c, 0, 62, 0
1, 41424, Note_on_c, 0, 73, 69
1, 41424, Note_on_c, 0, 61, 69
1, 41465, Note_on_c, 1, 57, 0
1, 41465, Note_on_c, 1, 45, 0
1, 41469, Note_on_c, 0, 73, 0
1, 41469, Note_on_c, 0, 61, 0
1, 41472, Note_on_c, 0, 74, 69
1, 41472, Note_on_c, 0, 62, 69
1, 41472, Note_on_c, 1, 50, 69
1, 41517, Note_on_c, 1, 50, 0
1, 41520, Note_on_c, 1, 45, 69
1, 41561, Note_on_c, 0, 74, 0
1, 41561, Note_on_c, 0, 62, 0
1, 41565, Note_on_c, 1, 45, 0
1, 41568, Note_on_c, 1, 38, 69
1, 41613, Note_on_c, 1, 38, 0
1, 41616, Note_on_c, 0, 78, 61
1, 41616, Note_on_c, 0, 66, 61
1, 41664, Note_on_c, 0, 78, 0
1, 41664, Note_on_c, 0, 66, 0
1, 41664, Note_on_c, 0, 79, 61
1, 41664, Note_on_c, 0, 67, 61
1, 41664, Note_on_c, 1, 49, 53
1, 41687, Note_on_c, 1, 49, 0
1, 41688, Note_on_c, 1, 57, 54
1, 41711, Note_on_c, 1, 57, 0
1, 41712, Note_on_c, 1, 52, 54
1, 41735, Note_on_c, 1, 52, 0
1, 41736, Note_on_c, 1, 57, 55
1, 41753, Note_on_c, 0, 79, 0
1, 41753, Note_on_c, 0, 67, 0
1, 41759, Note_on_c, 1, 57, 0
1, 41760, Note_on_c, 1, 49, 55
1, 41783, Note_on_c, 1, 49, 0
1, 41784, Note_on_c, 1, 57, 55
1, 41807, Note_on_c, 1, 57, 0
1, 41808, Note_on_c, 0, 79, 63
1, 41808, Note_on_c, 0, 67, 63
1, 41808, Note_on_c, 1, 52, 56
1, 41831, Note_on_c, 1, 52, 0
1, 41832, Note_on_c, 1, 57, 56
1, 41855, Note_on_c, 1, 57, 0
1, 41856, Note_on_c, 0, 79, 0
1, 41856, Note_on_c, 0, 67, 0
1, 41856, Note_on_c, 0, 78, 64
1, 41856, Note_on_c, 0, 66, 64
1, 41856, Note_on_c, 1, 50, 57
1, 41879, Note_on_c, 1, 50, 0
1, 41880, Note_on_c, 1, 57, 57
1, 41903, Note_on_c, 1, 57, 0
1, 41904, Note_on_c, 1, 54, 58
1, 41927, Note_on_c, 1, 54, 0
1, 41928, Note_on_c, 1, 57, 58
1, 41945, Note_on_c, 0, 78, 0
1, 41945, Note_on_c, 0, 66, 0
1, 41951, Note_on_c, 1, 57, 0
1, 41952, Note_on_c, 1, 50, 58
1, 41975, Note_on_c, 1, 50, 0
1, 41976, Note_on_c, 1, 57, 59
1, 41999, Note_on_c, 1, 57, 0
1, 42000, Note_on_c, 0, 81, 66
1, 42000, Note_on_c, 0, 69, 66
1, 42000, Note_on_c, 1, 54, 59
1, 42023, Note_on_c, 1, 54, 0
1, 42024, Note_on_c, 1, 57, 60
1, 42047, Note_on_c, 1, 57, 0
1, 42048, Note_on_c, 0, 81, 0
1, 42048, Note_on_c, 0, 69, 0
1, 42048, Note_on_c, 0, 83, 67
1, 42048, Note_on_c, 0, 71, 67
1, 42048, Note_on_c, 1, 43, 60
1, 42071, Note_on_c, 1, 43, 0
1, 42072, Note_on_c, 1, 52, 60
1, 42095, Note_on_c, 1, 52, 0
1, 42096, Note_on_c, 1, 47, 61
1, 42119, Note_on_c, 1, 47, 0
1, 42120, Note_on_c, 1, 52, 61
1, 42137, Note_on_c, 0, 83, 0
1, 42137, Note_on_c, 0, 71, 0
1, 42143, Note_on_c, 1, 52, 0
1, 42144, Note_on_c, 1, 44, 62
1, 42167, Note_on_c, 1, 44, 0
1, 42168, Note_on_c, 1, 52, 62
1, 42191, Note_on_c, 1, 52, 0
1, 42192, Note_on_c, 0, 76, 69
1, 42192, Note_on_c, 0, 64, 69
1, 42192, Note_on_c, 1, 47, 63
1, 42215, Note_on_c, 1, 47, 0
1, 42216, Note_on_c, 1, 52, 63
1, 42237, Note_on_c, 0, 76, 0
1, 42237, Note_on_c, 0, 64, 0
1, 42239, Note_on_c, 1, 52, 0
1, 42240, Note_on_c, 0, 74, 70
1, 42240, Note_on_c, 0, 62, 70
1, 42240, Note_on_c, 1, 45, 63
1, 42263, Note_on_c, 1, 45, 0
1, 42264, Note_on_c, 1, 52, 64
1, 42287, Note_on_c, 1, 52, 0
1, 42288, Note_on_c, 1, 45, 64
1, 42311, Note_on_c, 1, 45, 0
1, 42312, Note_on_c, 1, 52, 65
1, 42335, Note_on_c, 1, 52, 0
1, 42336, Note_on_c, 0, 74, 0
1, 42336, Note_on_c, 0, 62, 0
1, 42336, Note_on_c, 0, 73, 71
1, 42336, Note_on_c, 0, 61, 71
1, 42336, Note_on_c, 1, 45, 65
1, 42381, Note_on_c, 0, 73, 0
1, 42381, Note_on_c, 0, 61, 0
1, 42381, Note_on_c, 1, 45, 0
1, 42384, Note_on_c, 0, 78, 72
1, 42384, Note_on_c, 0, 66, 72
1, 42432, Note_on_c, 0, 78, 0
1, 42432, Note_on_c, 0, 66, 0
1, 42432, Note_on_c, 0, 79, 73
1, 42432, Note_on_c, 0, 67, 73
1, 42432, Note_on_c, 1, 49, 67
1, 42455, Note_on_c, 1, 49, 0
1, 42456, Note_on_c, 1, 57, 67
1, 42479, Note_on_c, 1, 57, 0
1, 42480, Note_on_c, 1, 52, 68
1, 42503, Note_on_c, 1, 52, 0
1, 42504, Note_on_c, 1, 57, 68
1, 42521, Note_on_c, 0, 79, 0
1, 42521, Note_on_c, 0, 67, 0
1, 42527, Note_on_c, 1, 57, 0
1, 42528, Note_on_c, 1, 49, 68
1, 42551, Note_on_c, 1, 49, 0
1, 42552, Note_on_c, 1, 57, 69
1, 42575, Note_on_c, 1, 57, 0
1, 42576, Note_on_c, 0, 79, 75
1, 42576, Note_on_c, 0, 67, 75
1, 42576, Note_on_c, 1, 52, 69
1, 42599, Note_on_c, 1, 52, 0
1, 42600, Note_on_c, 1, 57, 70
1, 42623, Note_on_c, 1, 57, 0
1, 42624, Note_on_c, 0, 79, 0
1, 42624, Note_on_c, 0, 67, 0
1, 42624, Note_on_c, 0, 78, 76
1, 42624, Note_on_c, 0, 66, 76
1, 42624, Note_on_c, 1, 50, 70
1, 42647, Note_on_c, 1, 50, 0
1, 42648, Note_on_c, 1, 57, 71
1, 42671, Note_on_c, 1, 57, 0
1, 42672, Note_on_c, 1, 54, 71
1, 42695, Note_on_c, 1, 54, 0
1, 42696, Note_on_c, 1, 57, 71
1, 42713, Note_on_c, 0, 78, 0
1, 42713, Note_on_c, 0, 66, 0
1, 42719, Note_on_c, 1, 57, 0
1, 42720, Note_on_c, 1, 50, 72
1, 42743, Note_on_c, 1, 50, 0
1, 42744, Note_on_c, 1, 57, 72
1, 42767, Note_on_c, 1, 57, 0
1, 42768, Note_on_c, 0, 81, 78
1, 42768, Note_on_c, 0, 69, 78
1, 42768, Note_on_c, 1, 54, 73
1, 42791, Note_on_c, 1, 54, 0
1, 42792, Note_on_c, 1, 57, 73
1, 42815, Note_on_c, 1, 57, 0
1, 42816, Note_on_c, 0, 81, 0
1, 42816, Note_on_c, 0, 69, 0
1, 42816, Note_on_c, 0, 83, 78
1, 42816, Note_on_c, 0, 71, 78
1, 42816, Note_on_c, 1, 43, 74
1, 42839, Note_on_c, 1, 43, 0
1, 42840, Note_on_c, 1, 52, 74
1, 42863, Note_on_c, 1, 52, 0
1, 42864, Note_on_c, 1, 47, 74
1, 42887, Note_on_c, 1, 47, 0
1, 42888, Note_on_c, 1, 52, 75
1, 42905, Note_on_c, 0, 83, 0
1, 42905, Note_on_c, 0, 71, 0
1, 42911, Note_on_c, 1, 52, 0
1, 42912, Note_on_c, 1, 45, 75
1, 42935, Note_on_c, 1, 45, 0
1, 42936, Note_on_c, 1, 52, 76
1, 42959, Note_on_c, 1, 52, 0
1, 42960, Note_on_c, 0, 73, 81
1, 42960, Note_on_c, 0, 61, 81
1, 42960, Note_on_c, 1, 49, 76
1, 42983, Note_on_c, 1, 49, 0
1, 42984, Note_on_c, 1, 52, 76
1, 43007, Note_on_c, 1, 52, 0
1, 43008, Note_on_c, 0, 73, 0
1, 43008, Note_on_c, 0, 61, 0
1, 43008, Note_on_c, 0, 74, 81
1, 43008, Note_on_c, 0, 62, 81
1, 43008, Note_on_c, 1, 38, 77
1, 43031, Note_on_c, 1, 38, 0
1, 43032, Note_on_c, 1, 50, 77
1, 43055, Note_on_c, 1, 50, 0
1, 43056, Note_on_c, 1, 45, 78
1, 43079, Note_on_c, 1, 45, 0
1, 43080, Note_on_c, 1, 50, 78
1, 43097, Note_on_c, 0, 74, 0
1, 43097, Note_on_c, 0, 62, 0
1, 43103, Note_on_c, 1, 50, 0
1, 43104, Note_on_c, 1, 38, 79
1, 43149, Note_on_c, 1, 38, 0
1, 43152, Note_on_c, 0, 78, 83
1, 43152, Note_on_c, 0, 66, 83
1, 43200, Note_on_c, 0, 78, 0
1, 43200, Note_on_c, 0, 66, 0
1, 43200, Note_on_c, 0, 79, 84
1, 43200, Note_on_c, 0, 67, 84
1, 43200, Note_on_c, 1, 49, 80
1, 43223, Note_on_c, 1, 49, 0
1, 43224, Note_on_c, 1, 57, 81
1, 43247, Note_on_c, 1, 57, 0
1, 43248, Note_on_c, 1, 52, 81
1, 43271, Note_on_c, 1, 52, 0
1, 43272, Note_on_c, 1, 57, 82
1, 43289, Note_on_c, 0, 79, 0
1, 43289, Note_on_c, 0, 67, 0
1, 43295, Note_on_c, 1, 57, 0
1, 43296, Note_on_c, 1, 49, 82
1, 43319, Note_on_c, 1, 49, 0
1, 43320, Note_on_c, 1, 57, 82
1, 43343, Note_on_c, 1, 57, 0
1, 43344, Note_on_c, 0, 79, 86
1, 43344, Note_on_c, 0, 67, 86
1, 43344, Note_on_c, 1, 52, 83
1, 43367, Note_on_c, 1, 52, 0
1, 43368, Note_on_c, 1, 57, 83
1, 43391, Note_on_c, 1, 57, 0
1, 43392, Note_on_c, 0, 79, 0
1, 43392, Note_on_c, 0, 67, 0
1, 43392, Note_on_c, 0, 78, 87
1, 43392, Note_on_c, 0, 66, 87
1, 43392, Note_on_c, 1, 50, 84
1, 43415, Note_on_c, 1, 50, 0
1, 43416, Note_on_c, 1, 57, 84
1, 43439, Note_on_c, 1, 57, 0
1, 43440, Note_on_c, 1, 54, 84
1, 43463, Note_on_c, 1, 54, 0
1, 43464, Note_on_c, 1, 57, 85
1, 43481, Note_on_c, 0, 78, 0
1, 43481, Note_on_c, 0, 66, 0
1, 43487, Note_on_c, 1, 57, 0
1, 43488, Note_on_c, 1, 50, 85
1, 43511, Note_on_c, 1, 50, 0
1, 43512, Note_on_c, 1, 57, 86
1, 43535, Note_on_c, 1, 57, 0
1, 43536, Note_on_c, 0, 81, 89
1, 43536, Note_on_c, 0, 69, 89
1, 43536, Note_on_c, 1, 54, 86
1, 43559, Note_on_c, 1, 54, 0
1, 43560, Note_on_c, 1, 57, 87
1, 43583, Note_on_c, 1, 57, 0
1, 43584, Note_on_c, 0, 81, 0
1, 43584, Note_on_c, 0, 69, 0
1, 43584, Note_on_c, 0, 83, 90
1, 43584, Note_on_c, 0, 71, 90
1, 43584, Note_on_c, 1, 43, 87
1, 43607, Note_on_c, 1, 43, 0
1, 43608, Note_on_c, 1, 52, 87
1, 43631, Note_on_c, 1, 52, 0
1, 43632, Note_on_c, 1, 47, 88
1, 43655, Note_on_c, 1, 47, 0
1, 43656, Note_on_c, 1, 52, 88
1, 43673, Note_on_c, 0, 83, 0
1, 43673, Note_on_c, 0, 71, 0
1, 43679, Note_on_c, 1, 52, 0
1, 43680, Note_on_c, 1, 44, 89
1, 43703, Note_on_c, 1, 44, 0
1, 43704, Note_on_c, 1, 52, 89
1, 43727, Note_on_c, 1, 52, 0
1, 43728, Note_on_c, 0, 76, 92
1, 43728, Note_on_c, 0, 64, 92
1, 43728, Note_on_c, 1, 47, 90
1, 43751, Note_on_c, 1, 47, 0
1, 43752, Note_on_c, 1, 52, 90
1, 43773, Note_on_c, 0, 76, 0
1, 43773, Note_on_c, 0, 64, 0
1, 43775, Note_on_c, 1, 52, 0
1, 43776, Note_on_c, 0, 74, 93
1, 43776, Note_on_c, 0, 62, 93
1, 43776, Note_on_c, 1, 45, 90
1, 43799, Note_on_c, 1, 45, 0
1, 43800, Note_on_c, 1, 52, 91
1, 43823, Note_on_c, 1, 52, 0
1, 43824, Note_on_c, 1, 45, 91
1, 43847, Note_on_c, 1, 45, 0
1, 43848, Note_on_c, 1, 52, 92
1, 43871, Note_on_c, 1, 52, 0
1, 43872, Note_on_c, 0, 74, 0
1, 43872, Note_on_c, 0, 62, 0
1, 43872, Note_on_c, 0, 73, 94
1, 43872, Note_on_c, 0, 61, 94
1, 43872, Note_on_c, 1, 45, 92
1, 43917, Note_on_c, 0, 73, 0
1, 43917, Note_on_c, 0, 61, 0
1, 43917, Note_on_c, 1, 45, 0
1, 43920, Note_on_c, 0, 78, 95
1, 43920, Note_on_c, 0, 66, 95
1, 43968, Note_on_c, 0, 78, 0
1, 43968, Note_on_c, 0, 66, 0
1, 43968, Note_on_c, 0, 79, 96
1, 43968, Note_on_c, 0, 67, 96
1, 43968, Note_on_c, 1, 49, 94
1, 43991, Note_on_c, 1, 49, 0
1, 43992, Note_on_c, 1, 57, 94
1, 44015, Note_on_c, 1, 57, 0
1, 44016, Note_on_c, 1, 52, 95
1, 44039, Note_on_c, 1, 52, 0
1, 44040, Note_on_c, 1, 57, 95
1, 44057, Note_on_c, 0, 79, 0
1, 44057, Note_on_c, 0, 67, 0
1, 44063, Note_on_c, 1, 57, 0
1, 44064, Note_on_c, 1, 49, 95
1, 44087, Note_on_c, 1, 49, 0
1, 44088, Note_on_c, 1, 57, 96
1, 44111, Note_on_c, 1, 57, 0
1, 44112, Note_on_c, 0, 79, 98
1, 44112, Note_on_c, 0, 67, 98
1, 44112, Note_on_c, 1, 52, 96
1, 44135, Note_on_c, 1, 52, 0
1, 44136, Note_on_c, 1, 57, 97
1, 44159, Note_on_c, 1, 57, 0
1, 44160, Note_on_c, 0, 79, 0
1, 44160, Note_on_c, 0, 67, 0
1, 44160, Note_on_c, 0, 78, 98
1, 44160, Note_on_c, 0, 66, 98
1, 44160, Note_on_c, 1, 50, 97
1, 44183, Note_on_c, 1, 50, 0
1, 44184, Note_on_c, 1, 57, 98
1, 44207, Note_on_c, 1, 57, 0
1, 44208, Note_on_c, 1, 54, 98
1, 44231, Note_on_c, 1, 54, 0
1, 44232, Note_on_c, 1, 57, 98
1, 44249, Note_on_c, 0, 78, 0
1, 44249, Note_on_c, 0, 66, 0
1, 44255, Note_on_c, 1, 57, 0
1, 44256, Note_on_c, 1, 50, 99
1, 44279, Note_on_c, 1, 50, 0
1, 44280, Note_on_c, 1, 57, 99
1, 44303, Note_on_c, 1, 57, 0
1, 44304, Note_on_c, 0, 81, 101
1, 44304, Note_on_c, 0, 69, 101
1, 44304, Note_on_c, 1, 54, 100
1, 44327, Note_on_c, 1, 54, 0
1, 44328, Note_on_c, 1, 57, 100
1, 44351, Note_on_c, 1, 57, 0
1, 44352, Note_on_c, 0, 81, 0
1, 44352, Note_on_c, 0, 69, 0
1, 44352, Note_on_c, 0, 83, 101
1, 44352, Note_on_c, 0, 71, 101
1, 44352, Note_on_c, 1, 43, 100
1, 44375, Note_on_c, 1, 43, 0
1, 44376, Note_on_c, 1, 52, 101
1, 44399, Note_on_c, 1, 52, 0
1, 44400, Note_on_c, 1, 47, 101
1, 44423, Note_on_c, 1, 47, 0
1, 44424, Note_on_c, 1, 52, 102
1, 44441, Note_on_c, 0, 83, 0
1, 44441, Note_on_c, 0, 71, 0
1, 44447, Note_on_c, 1, 52, 0
1, 44448, Note_on_c, 1, 45, 102
1, 44471, Note_on_c, 1, 45, 0
1, 44472, Note_on_c, 1, 52, 103
1, 44495, Note_on_c, 1, 52, 0
1, 44496, Note_on_c, 0, 73, 103
1, 44496, Note_on_c, 0, 61, 103
1, 44496, Note_on_c, 1, 49, 103
1, 44519, Note_on_c, 1, 49, 0
1, 44520, Note_on_c, 1, 52, 103
1, 44543, Note_on_c, 1, 52, 0
1, 44544, Note_on_c, 0, 73, 0
1, 44544, Note_on_c, 0, 61, 0
1, 44544, Note_on_c, 0, 74, 104
1, 44544, Note_on_c, 0, 62, 104
1, 44544, Note_on_c, 1, 38, 104
1, 44633, Note_on_c, 0, 74, 0
1, 44633, Note_on_c, 0, 62, 0
1, 44633, Note_on_c, 1, 38, 0
1, 44640, Note_on_c, 0, 86, 106
1, 44640, Note_on_c, 0, 81, 106
1, 44640, Note_on_c, 0, 78, 106
1, 44640, Note_on_c, 0, 74, 106
1, 44640, Note_on_c, 1, 50, 106
1, 44640, Note_on_c, 1, 38, 106
1, 44729, Note_on_c, 0, 86, 0
1, 44729, Note_on_c, 0, 81, 0
1, 44729, Note_on_c, 0, 78, 0
1, 44729, Note_on_c, 0, 74, 0
1, 44729, Note_on_c, 1, 50, 0
1, 44729, Note_on_c, 1, 38, 0
1, 44736, Note_on_c, 0, 86, 106
1, 44736, Note_on_c, 0, 81, 106
1, 44736, Note_on_c, 0, 78, 106
1, 44736, Note_on_c, 0, 74, 106
1, 44736, Note_on_c, 1, 50, 106
1, 44736, Note_on_c, 1, 38, 106
1, 44869, Note_on_c, 0, 86, 0
1, 44869, Note_on_c, 0, 81, 0
1, 44869, Note_on_c, 0, 78, 0
1, 44869, Note_on_c, 0, 74, 0
1, 44869, Note_on_c, 1, 50, 0
1, 44869, Note_on_c, 1, 38, 0
1, 44880, Note_on_c, 1, 38, 0
1, 44925, Note_on_c, 1, 38, 0
1, 44935, End_track
0, 0, End_of_file