0, 0, Header, 0, 1, 96
1, 0, Start_track
1, 0, Tempo, 521739
1, 0, Note_on_c, 0, 79, 64
1, 0, Note_on_c, 0, 71, 64
1, 0, Note_on_c, 1, 67, 64
1, 89, Note_on_c, 0, 79, 0
1, 89, Note_on_c, 0, 71, 0
1, 89, Note_on_c, 1, 67, 0
1, 96, Note_on_c, 0, 83, 64
1, 96, Note_on_c, 0, 74, 64
1, 185, Note_on_c, 0, 83, 0
1, 185, Note_on_c, 0, 74, 0
1, 192, Note_on_c, 0, 81, 64
1, 192, Note_on_c, 0, 72, 64
1, 281, Note_on_c, 0, 81, 0
1, 281, Note_on_c, 0, 72, 0
1, 288, Note_on_c, 0, 79, 64
1, 288, Note_on_c, 1, 72, 64
1, 301, Note_on_c, 0, 79, 0
1, 302, Note_on_c, 0, 81, 64
1, 303, Note_on_c, 1, 72, 0
1, 304, Note_on_c, 1, 71, 64
1, 315, Note_on_c, 0, 81, 0
1, 316, Note_on_c, 0, 79, 64
1, 319, Note_on_c, 1, 71, 0
1, 320, Note_on_c, 1, 72, 64
1, 329, Note_on_c, 0, 79, 0
1, 330, Note_on_c, 0, 81, 64
1, 335, Note_on_c, 1, 72, 0
1, 336, Note_on_c, 1, 71, 64
1, 343, Note_on_c, 0, 81, 0
1, 344, Note_on_c, 0, 79, 64
1, 351, Note_on_c, 1, 71, 0
1, 352, Note_on_c, 1, 72, 64
1, 357, Note_on_c, 0, 79, 0
1, 358, Note_on_c, 0, 81, 64
1, 367, Note_on_c, 1, 72, 0
1, 368, Note_on_c, 1, 71, 64
1, 370, Note_on_c, 0, 81, 0
1, 371, Note_on_c, 0, 79, 64
1, 429, Note_on_c, 0, 79, 0
1, 429, Note_on_c, 1, 71, 0
1, 432, Note_on_c, 0, 78, 64
1, 432, Note_on_c, 1, 69, 64
1, 477, Note_on_c, 0, 78, 0
1, 477, Note_on_c, 1, 69, 0
1, 480, Note_on_c, 0, 79, 64
1, 480, Note_on_c, 1, 71, 64
1, 569, Note_on_c, 0, 79, 0
1, 569, Note_on_c, 1, 71, 0
1, 576, Note_on_c, 1, 67, 64
1, 624, Note_on_c, 0, 81, 64
1, 624, Note_on_c, 0, 72, 64
1, 647, Note_on_c, 0, 81, 0
1, 647, Note_on_c, 0, 72, 0
1, 648, Note_on_c, 0, 83, 64
1, 648, Note_on_c, 0, 74, 64
1, 665, Note_on_c, 1, 67, 0
1, 671, Note_on_c, 0, 83, 0
1, 671, Note_on_c, 0, 74, 0
1, 672, Note_on_c, 0, 84, 64
1, 672, Note_on_c, 0, 76, 64
1, 717, Note_on_c, 0, 84, 0
1, 717, Note_on_c, 0, 76, 0
1, 720, Note_on_c, 0, 83, 64
1, 720, Note_on_c, 0, 74, 64
1, 743, Note_on_c, 0, 83, 0
1, 743, Note_on_c, 0, 74, 0
1, 744, Note_on_c, 0, 81, 64
1, 744, Note_on_c, 0, 72, 64
1, 767, Note_on_c, 0, 81, 0
1, 767, Note_on_c, 0, 72, 0
1, 768, Note_on_c, 0, 83, 64
1, 768, Note_on_c, 0, 74, 64
1, 813, Note_on_c, 0, 83, 0
1, 813, Note_on_c, 0, 74, 0
1, 816, Note_on_c, 0, 86, 80
1, 864, Note_on_c, 0, 86, 0
1, 864, Note_on_c, 0, 84, 64
1, 864, Note_on_c, 0, 76, 64
1, 909, Note_on_c, 0, 84, 0
1, 909, Note_on_c, 0, 76, 0
1, 912, Note_on_c, 0, 83, 64
1, 912, Note_on_c, 0, 74, 64
1, 957, Note_on_c, 0, 83, 0
1, 957, Note_on_c, 0, 74, 0
1, 960, Note_on_c, 0, 81, 64
1, 960, Note_on_c, 0, 72, 64
1, 1005, Note_on_c, 0, 81, 0
1, 1005, Note_on_c, 0, 72, 0
1, 1008, Note_on_c, 0, 79, 64
1, 1008, Note_on_c, 0, 71, 64
1, 1053, Note_on_c, 0, 79, 0
1, 1053, Note_on_c, 0, 71, 0
1, 1056, Note_on_c, 0, 79, 80
1, 1056, Note_on_c, 0, 71, 80
1, 1056, Note_on_c, 1, 67, 64
1, 1104, Note_on_c, 0, 79, 0
1, 1104, Note_on_c, 0, 71, 0
1, 1104, Note_on_c, 0, 81, 64
1, 1104, Note_on_c, 0, 72, 64
1, 1127, Note_on_c, 0, 81, 0
1, 1127, Note_on_c, 0, 72, 0
1, 1128, Note_on_c, 0, 79, 64
1, 1128, Note_on_c, 0, 71, 64
1, 1145, Note_on_c, 1, 67, 0
1, 1151, Note_on_c, 0, 79, 0
1, 1151, Note_on_c, 0, 71, 0
1, 1152, Note_on_c, 0, 81, 64
1, 1152, Note_on_c, 0, 72, 64
1, 1241, Note_on_c, 0, 81, 0
1, 1241, Note_on_c, 0, 72, 0
1, 1248, Note_on_c, 0, 78, 64
1, 1248, Note_on_c, 0, 69, 64
1, 1260, Note_on_c, 0, 78, 0
1, 1260, Note_on_c, 0, 79, 64
1, 1272, Note_on_c, 0, 79, 0
1, 1272, Note_on_c, 0, 78, 64
1, 1337, Note_on_c, 0, 78, 0
1, 1337, Note_on_c, 0, 69, 0
1, 1344, Note_on_c, 1, 67, 64
1, 1433, Note_on_c, 1, 67, 0
1, 1440, Note_on_c, 0, 79, 64
1, 1440, Note_on_c, 0, 71, 64
1, 1485, Note_on_c, 0, 79, 0
1, 1485, Note_on_c, 0, 71, 0
1, 1488, Note_on_c, 0, 74, 64
1, 1488, Note_on_c, 0, 71, 64
1, 1533, Note_on_c, 0, 74, 0
1, 1533, Note_on_c, 0, 71, 0
1, 1536, Note_on_c, 0, 74, 64
1, 1536, Note_on_c, 0, 71, 64
1, 1584, Note_on_c, 0, 74, 0
1, 1584, Note_on_c, 0, 71, 0
1, 1584, Note_on_c, 0, 76, 64
1, 1584, Note_on_c, 0, 72, 64
1, 1629, Note_on_c, 0, 76, 0
1, 1629, Note_on_c, 0, 72, 0
1, 1632, Note_on_c, 1, 67, 64
1, 1721, Note_on_c, 1, 67, 0
1, 1728, Note_on_c, 0, 81, 64
1, 1728, Note_on_c, 0, 72, 64
1, 1776, Note_on_c, 0, 81, 0
1, 1776, Note_on_c, 0, 72, 0
1, 1776, Note_on_c, 0, 78, 64
1, 1776, Note_on_c, 0, 69, 64
1, 1821, Note_on_c, 0, 78, 0
1, 1821, Note_on_c, 0, 69, 0
1, 1824, Note_on_c, 0, 78, 64
1, 1824, Note_on_c, 0, 69, 64
1, 1872, Note_on_c, 0, 78, 0
1, 1872, Note_on_c, 0, 69, 0
1, 1872, Note_on_c, 0, 79, 64
1, 1872, Note_on_c, 0, 71, 64
1, 1917, Note_on_c, 0, 79, 0
1, 1917, Note_on_c, 0, 71, 0
1, 1920, Note_on_c, 0, 78, 64
1, 1920, Note_on_c, 0, 69, 64
1, 1920, Note_on_c, 1, 62, 64
1, 1932, Note_on_c, 0, 78, 0
1, 1932, Note_on_c, 0, 79, 64
1, 1944, Note_on_c, 0, 79, 0
1, 1944, Note_on_c, 0, 78, 64
1, 2061, Note_on_c, 0, 78, 0
1, 2061, Note_on_c, 0, 69, 0
1, 2064, Note_on_c, 0, 76, 64
1, 2064, Note_on_c, 0, 67, 64
1, 2105, Note_on_c, 1, 62, 0
1, 2109, Note_on_c, 0, 76, 0
1, 2109, Note_on_c, 0, 67, 0
1, 2112, Note_on_c, 0, 74, 64
1, 2112, Note_on_c, 0, 66, 64
1, 2201, Note_on_c, 0, 74, 0
1, 2201, Note_on_c, 0, 66, 0
1, 2208, Note_on_c, 0, 83, 64
1, 2208, Note_on_c, 0, 79, 64
1, 2208, Note_on_c, 1, 74, 64
1, 2238, Note_on_c, 0, 83, 0
1, 2238, Note_on_c, 0, 79, 0
1, 2240, Note_on_c, 0, 84, 64
1, 2240, Note_on_c, 0, 81, 64
1, 2270, Note_on_c, 0, 84, 0
1, 2270, Note_on_c, 0, 81, 0
1, 2272, Note_on_c, 0, 86, 64
1, 2272, Note_on_c, 0, 83, 64
1, 2297, Note_on_c, 1, 74, 0
1, 2302, Note_on_c, 0, 86, 0
1, 2302, Note_on_c, 0, 83, 0
1, 2304, Note_on_c, 0, 86, 80
1, 2304, Note_on_c, 0, 83, 80
1, 2448, Note_on_c, 0, 86, 0
1, 2448, Note_on_c, 0, 83, 0
1, 2448, Note_on_c, 0, 59, 64
1, 2448, Note_on_c, 0, 55, 64
1, 2468, Note_on_c, 0, 59, 0
1, 2468, Note_on_c, 0, 55, 0
1, 2496, Note_on_c, 0, 62, 64
1, 2496, Note_on_c, 0, 59, 64
1, 2496, Note_on_c, 1, 48, 64
1, 2541, Note_on_c, 0, 62, 0
1, 2541, Note_on_c, 0, 59, 0
1, 2544, Note_on_c, 0, 60, 64
1, 2544, Note_on_c, 0, 57, 64
1, 2585, Note_on_c, 1, 48, 0
1, 2589, Note_on_c, 0, 60, 0
1, 2589, Note_on_c, 0, 57, 0
1, 2592, Note_on_c, 0, 59, 64
1, 2592, Note_on_c, 0, 55, 64
1, 2592, Note_on_c, 1, 50, 64
1, 2640, Note_on_c, 0, 59, 0
1, 2640, Note_on_c, 0, 55, 0
1, 2640, Note_on_c, 0, 57, 64
1, 2640, Note_on_c, 0, 54, 64
1, 2681, Note_on_c, 1, 50, 0
1, 2685, Note_on_c, 0, 57, 0
1, 2685, Note_on_c, 0, 54, 0
1, 2688, Note_on_c, 0, 57, 64
1, 2688, Note_on_c, 0, 54, 64
1, 2688, Note_on_c, 1, 43, 64
1, 2784, Note_on_c, 0, 57, 0
1, 2784, Note_on_c, 0, 54, 0
1, 2784, Note_on_c, 0, 59, 64
1, 2784, Note_on_c, 0, 55, 64
1, 2821, Note_on_c, 1, 43, 0
1, 2829, Note_on_c, 0, 59, 0
1, 2829, Note_on_c, 0, 55, 0
1, 2832, Note_on_c, 0, 54, 80
1, 2879, Note_on_c, 0, 54, 0
1, 2880, Note_on_c, 0, 55, 64
1, 2880, Note_on_c, 1, 47, 64
1, 2928, Note_on_c, 0, 55, 0
1, 2928, Note_on_c, 0, 50, 64
1, 2969, Note_on_c, 1, 47, 0
1, 2973, Note_on_c, 0, 50, 0
1, 2976, Note_on_c, 0, 50, 80
1, 2976, Note_on_c, 1, 43, 64
1, 2988, Note_on_c, 0, 50, 0
1, 2988, Note_on_c, 0, 52, 80
1, 3000, Note_on_c, 0, 52, 0
1, 3000, Note_on_c, 0, 50, 80
1, 3065, Note_on_c, 1, 43, 0
1, 3120, Note_on_c, 0, 50, 0
1, 3120, Note_on_c, 0, 48, 80
1, 3167, Note_on_c, 0, 48, 0
1, 3168, Note_on_c, 0, 47, 64
1, 3168, Note_on_c, 1, 43, 64
1, 3216, Note_on_c, 0, 47, 0
1, 3216, Note_on_c, 0, 50, 64
1, 3216, Note_on_c, 1, 43, 0
1, 3216, Note_on_c, 1, 47, 64
1, 3261, Note_on_c, 0, 50, 0
1, 3261, Note_on_c, 1, 47, 0
1, 3264, Note_on_c, 0, 48, 64
1, 3264, Note_on_c, 1, 45, 64
1, 3312, Note_on_c, 0, 48, 0
1, 3312, Note_on_c, 0, 45, 64
1, 3312, Note_on_c, 1, 45, 0
1, 3312, Note_on_c, 1, 42, 64
1, 3357, Note_on_c, 0, 45, 0
1, 3357, Note_on_c, 1, 42, 0
1, 3360, Note_on_c, 0, 47, 64
1, 3360, Note_on_c, 1, 43, 64
1, 3408, Note_on_c, 0, 47, 0
1, 3408, Note_on_c, 0, 43, 64
1, 3408, Note_on_c, 1, 43, 0
1, 3408, Note_on_c, 1, 40, 64
1, 3453, Note_on_c, 0, 43, 0
1, 3453, Note_on_c, 1, 40, 0
1, 3456, Note_on_c, 0, 45, 64
1, 3456, Note_on_c, 0, 42, 64
1, 3456, Note_on_c, 1, 38, 64
1, 3643, Note_on_c, 0, 45, 0
1, 3643, Note_on_c, 0, 42, 0
1, 3643, Note_on_c, 1, 38, 0
1, 3744, Note_on_c, 0, 49, 80
1, 3744, Note_on_c, 0, 45, 80
1, 3744, Note_on_c, 1, 37, 64
1, 3792, Note_on_c, 0, 49, 0
1, 3792, Note_on_c, 0, 45, 0
1, 3792, Note_on_c, 0, 52, 64
1, 3792, Note_on_c, 0, 49, 64
1, 3833, Note_on_c, 1, 37, 0
1, 3837, Note_on_c, 0, 52, 0
1, 3837, Note_on_c, 0, 49, 0
1, 3840, Note_on_c, 0, 52, 64
1, 3840, Note_on_c, 0, 49, 64
1, 3840, Note_on_c, 1, 37, 64
1, 3885, Note_on_c, 0, 52, 0
1, 3885, Note_on_c, 0, 49, 0
1, 3888, Note_on_c, 0, 55, 64
1, 3888, Note_on_c, 0, 52, 64
1, 3929, Note_on_c, 1, 37, 0
1, 3933, Note_on_c, 0, 55, 0
1, 3933, Note_on_c, 0, 52, 0
1, 3936, Note_on_c, 1, 37, 64
1, 3984, Note_on_c, 0, 52, 64
1, 3984, Note_on_c, 0, 49, 64
1, 4004, Note_on_c, 0, 52, 0
1, 4004, Note_on_c, 0, 49, 0
1, 4025, Note_on_c, 1, 37, 0
1, 4032, Note_on_c, 0, 54, 80
1, 4032, Note_on_c, 0, 50, 80
1, 4032, Note_on_c, 1, 38, 64
1, 4080, Note_on_c, 0, 54, 0
1, 4080, Note_on_c, 0, 50, 0
1, 4080, Note_on_c, 0, 57, 64
1, 4080, Note_on_c, 0, 54, 64
1, 4121, Note_on_c, 1, 38, 0
1, 4125, Note_on_c, 0, 57, 0
1, 4125, Note_on_c, 0, 54, 0
1, 4128, Note_on_c, 0, 57, 64
1, 4128, Note_on_c, 0, 54, 64
1, 4128, Note_on_c, 1, 50, 64
1, 4128, Note_on_c, 1, 38, 64
1, 4173, Note_on_c, 0, 57, 0
1, 4173, Note_on_c, 0, 54, 0
1, 4176, Note_on_c, 0, 62, 64
1, 4176, Note_on_c, 0, 57, 64
1, 4217, Note_on_c, 1, 50, 0
1, 4217, Note_on_c, 1, 38, 0
1, 4221, Note_on_c, 0, 62, 0
1, 4221, Note_on_c, 0, 57, 0
1, 4224, Note_on_c, 1, 50, 64
1, 4224, Note_on_c, 1, 38, 64
1, 4272, Note_on_c, 0, 62, 64
1, 4272, Note_on_c, 0, 57, 64
1, 4292, Note_on_c, 0, 62, 0
1, 4292, Note_on_c, 0, 57, 0
1, 4313, Note_on_c, 1, 50, 0
1, 4313, Note_on_c, 1, 38, 0
1, 4320, Note_on_c, 0, 61, 80
1, 4320, Note_on_c, 0, 57, 80
1, 4320, Note_on_c, 1, 49, 64
1, 4320, Note_on_c, 1, 37, 64
1, 4368, Note_on_c, 0, 61, 0
1, 4368, Note_on_c, 0, 57, 0
1, 4368, Note_on_c, 0, 71, 75
1, 4368, Note_on_c, 0, 67, 75
1, 4409, Note_on_c, 1, 49, 0
1, 4409, Note_on_c, 1, 37, 0
1, 4413, Note_on_c, 0, 71, 0
1, 4413, Note_on_c, 0, 67, 0
1, 4416, Note_on_c, 0, 69, 75
1, 4416, Note_on_c, 0, 66, 75
1, 4416, Note_on_c, 1, 49, 75
1, 4416, Note_on_c, 1, 37, 75
1, 4461, Note_on_c, 0, 69, 0
1, 4461, Note_on_c, 0, 66, 0
1, 4464, Note_on_c, 0, 67, 75
1, 4464, Note_on_c, 0, 64, 75
1, 4505, Note_on_c, 1, 49, 0
1, 4505, Note_on_c, 1, 37, 0
1, 4509, Note_on_c, 0, 67, 0
1, 4509, Note_on_c, 0, 64, 0
1, 4512, Note_on_c, 0, 66, 76
1, 4512, Note_on_c, 0, 62, 76
1, 4512, Note_on_c, 1, 49, 76
1, 4512, Note_on_c, 1, 37, 76
1, 4557, Note_on_c, 0, 66, 0
1, 4557, Note_on_c, 0, 62, 0
1, 4560, Note_on_c, 0, 64, 76
1, 4560, Note_on_c, 0, 61, 76
1, 4601, Note_on_c, 1, 49, 0
1, 4601, Note_on_c, 1, 37, 0
1, 4605, Note_on_c, 0, 64, 0
1, 4605, Note_on_c, 0, 61, 0
1, 4608, Note_on_c, 0, 66, 93
1, 4608, Note_on_c, 0, 62, 93
1, 4608, Note_on_c, 1, 50, 77
1, 4608, Note_on_c, 1, 38, 77
1, 4656, Note_on_c, 0, 66, 0
1, 4656, Note_on_c, 0, 62, 0
1, 4656, Note_on_c, 0, 76, 77
1, 4656, Note_on_c, 0, 72, 77
1, 4697, Note_on_c, 1, 50, 0
1, 4697, Note_on_c, 1, 38, 0
1, 4701, Note_on_c, 0, 76, 0
1, 4701, Note_on_c, 0, 72, 0
1, 4704, Note_on_c, 0, 76, 78
1, 4704, Note_on_c, 0, 72, 78
1, 4704, Note_on_c, 1, 50, 78
1, 4704, Note_on_c, 1, 38, 78
1, 4752, Note_on_c, 0, 76, 0
1, 4752, Note_on_c, 0, 72, 0
1, 4752, Note_on_c, 0, 74, 78
1, 4752, Note_on_c, 0, 71, 78
1, 4793, Note_on_c, 1, 50, 0
1, 4793, Note_on_c, 1, 38, 0
1, 4797, Note_on_c, 0, 74, 0
1, 4797, Note_on_c, 0, 71, 0
1, 4800, Note_on_c, 0, 74, 79
1, 4800, Note_on_c, 0, 71, 79
1, 4800, Note_on_c, 1, 50, 79
1, 4800, Note_on_c, 1, 38, 79
1, 4848, Note_on_c, 0, 74, 0
1, 4848, Note_on_c, 0, 71, 0
1, 4848, Note_on_c, 0, 73, 79
1, 4848, Note_on_c, 0, 70, 79
1, 4889, Note_on_c, 1, 50, 0
1, 4889, Note_on_c, 1, 38, 0
1, 4893, Note_on_c, 0, 73, 0
1, 4893, Note_on_c, 0, 70, 0
1, 4896, Note_on_c, 0, 74, 80
1, 4896, Note_on_c, 0, 71, 80
1, 4896, Note_on_c, 1, 65, 80
1, 4896, Note_on_c, 1, 62, 80
1, 4896, Note_on_c, 1, 56, 80
1, 4896, Note_on_c, 1, 44, 80
1, 4926, Note_on_c, 0, 74, 0
1, 4926, Note_on_c, 0, 71, 0
1, 4928, Note_on_c, 0, 76, 80
1, 4928, Note_on_c, 0, 72, 80
1, 4958, Note_on_c, 0, 76, 0
1, 4958, Note_on_c, 0, 72, 0
1, 4960, Note_on_c, 0, 77, 80
1, 4960, Note_on_c, 0, 74, 80
1, 4990, Note_on_c, 0, 77, 0
1, 4990, Note_on_c, 0, 74, 0
1, 4992, Note_on_c, 0, 77, 96
1, 4992, Note_on_c, 0, 74, 96
1, 5081, Note_on_c, 1, 65, 0
1, 5081, Note_on_c, 1, 62, 0
1, 5081, Note_on_c, 1, 56, 0
1, 5081, Note_on_c, 1, 44, 0
1, 5088, Note_on_c, 0, 77, 0
1, 5088, Note_on_c, 0, 74, 0
1, 5184, Note_on_c, 0, 78, 70
1, 5196, Note_on_c, 0, 78, 0
1, 5196, Note_on_c, 0, 81, 70
1, 5273, Note_on_c, 0, 81, 0
1, 5280, Note_on_c, 0, 78, 70
1, 5280, Note_on_c, 1, 50, 64
1, 5292, Note_on_c, 0, 78, 0
1, 5292, Note_on_c, 0, 74, 70
1, 5319, Note_on_c, 1, 50, 0
1, 5369, Note_on_c, 0, 74, 0
1, 5376, Note_on_c, 0, 76, 70
1, 5376, Note_on_c, 1, 57, 64
1, 5388, Note_on_c, 0, 76, 0
1, 5388, Note_on_c, 0, 73, 70
1, 5415, Note_on_c, 1, 57, 0
1, 5465, Note_on_c, 0, 73, 0
1, 5472, Note_on_c, 0, 73, 86
1, 5472, Note_on_c, 1, 62, 58
1, 5568, Note_on_c, 0, 73, 0
1, 5568, Note_on_c, 0, 74, 70
1, 5649, Note_on_c, 1, 62, 0
1, 5657, Note_on_c, 0, 74, 0
1, 5760, Note_on_c, 0, 79, 64
1, 5760, Note_on_c, 0, 71, 64
1, 5760, Note_on_c, 1, 67, 64
1, 5849, Note_on_c, 0, 79, 0
1, 5849, Note_on_c, 0, 71, 0
1, 5849, Note_on_c, 1, 67, 0
1, 5856, Note_on_c, 0, 83, 64
1, 5856, Note_on_c, 0, 74, 64
1, 5945, Note_on_c, 0, 83, 0
1, 5945, Note_on_c, 0, 74, 0
1, 5952, Note_on_c, 0, 81, 64
1, 5952, Note_on_c, 0, 72, 64
1, 6041, Note_on_c, 0, 81, 0
1, 6041, Note_on_c, 0, 72, 0
1, 6048, Note_on_c, 0, 79, 64
1, 6048, Note_on_c, 1, 72, 64
1, 6061, Note_on_c, 0, 79, 0
1, 6062, Note_on_c, 0, 81, 64
1, 6063, Note_on_c, 1, 72, 0
1, 6064, Note_on_c, 1, 71, 64
1, 6075, Note_on_c, 0, 81, 0
1, 6076, Note_on_c, 0, 79, 64
1, 6079, Note_on_c, 1, 71, 0
1, 6080, Note_on_c, 1, 72, 64
1, 6089, Note_on_c, 0, 79, 0
1, 6090, Note_on_c, 0, 81, 64
1, 6095, Note_on_c, 1, 72, 0
1, 6096, Note_on_c, 1, 71, 64
1, 6103, Note_on_c, 0, 81, 0
1, 6104, Note_on_c, 0, 79, 64
1, 6111, Note_on_c, 1, 71, 0
1, 6112, Note_on_c, 1, 72, 64
1, 6117, Note_on_c, 0, 79, 0
1, 6118, Note_on_c, 0, 81, 64
1, 6127, Note_on_c, 1, 72, 0
1, 6128, Note_on_c, 1, 71, 64
1, 6130, Note_on_c, 0, 81, 0
1, 6131, Note_on_c, 0, 79, 64
1, 6189, Note_on_c, 0, 79, 0
1, 6189, Note_on_c, 1, 71, 0
1, 6192, Note_on_c, 0, 78, 64
1, 6192, Note_on_c, 1, 69, 64
1, 6237, Note_on_c, 0, 78, 0
1, 6237, Note_on_c, 1, 69, 0
1, 6240, Note_on_c, 0, 79, 64
1, 6240, Note_on_c, 1, 71, 64
1, 6329, Note_on_c, 0, 79, 0
1, 6329, Note_on_c, 1, 71, 0
1, 6336, Note_on_c, 1, 67, 64
1, 6384, Note_on_c, 0, 81, 64
1, 6384, Note_on_c, 0, 72, 64
1, 6407, Note_on_c, 0, 81, 0
1, 6407, Note_on_c, 0, 72, 0
1, 6408, Note_on_c, 0, 83, 64
1, 6408, Note_on_c, 0, 74, 64
1, 6425, Note_on_c, 1, 67, 0
1, 6431, Note_on_c, 0, 83, 0
1, 6431, Note_on_c, 0, 74, 0
1, 6432, Note_on_c, 0, 84, 64
1, 6432, Note_on_c, 0, 76, 64
1, 6477, Note_on_c, 0, 84, 0
1, 6477, Note_on_c, 0, 76, 0
1, 6480, Note_on_c, 0, 83, 64
1, 6480, Note_on_c, 0, 74, 64
1, 6503, Note_on_c, 0, 83, 0
1, 6503, Note_on_c, 0, 74, 0
1, 6504, Note_on_c, 0, 81, 64
1, 6504, Note_on_c, 0, 72, 64
1, 6527, Note_on_c, 0, 81, 0
1, 6527, Note_on_c, 0, 72, 0
1, 6528, Note_on_c, 0, 83, 64
1, 6528, Note_on_c, 0, 74, 64
1, 6573, Note_on_c, 0, 83, 0
1, 6573, Note_on_c, 0, 74, 0
1, 6576, Note_on_c, 0, 86, 80
1, 6624, Note_on_c, 0, 86, 0
1, 6624, Note_on_c, 0, 84, 64
1, 6624, Note_on_c, 0, 76, 64
1, 6669, Note_on_c, 0, 84, 0
1, 6669, Note_on_c, 0, 76, 0
1, 6672, Note_on_c, 0, 83, 64
1, 6672, Note_on_c, 0, 74, 64
1, 6717, Note_on_c, 0, 83, 0
1, 6717, Note_on_c, 0, 74, 0
1, 6720, Note_on_c, 0, 81, 64
1, 6720, Note_on_c, 0, 72, 64
1, 6765, Note_on_c, 0, 81, 0
1, 6765, Note_on_c, 0, 72, 0
1, 6768, Note_on_c, 0, 79, 64
1, 6768, Note_on_c, 0, 71, 64
1, 6813, Note_on_c, 0, 79, 0
1, 6813, Note_on_c, 0, 71, 0
1, 6816, Note_on_c, 0, 79, 80
1, 6816, Note_on_c, 0, 71, 80
1, 6816, Note_on_c, 1, 67, 64
1, 6864, Note_on_c, 0, 79, 0
1, 6864, Note_on_c, 0, 71, 0
1, 6864, Note_on_c, 0, 81, 64
1, 6864, Note_on_c, 0, 72, 64
1, 6887, Note_on_c, 0, 81, 0
1, 6887, Note_on_c, 0, 72, 0
1, 6888, Note_on_c, 0, 79, 64
1, 6888, Note_on_c, 0, 71, 64
1, 6905, Note_on_c, 1, 67, 0
1, 6911, Note_on_c, 0, 79, 0
1, 6911, Note_on_c, 0, 71, 0
1, 6912, Note_on_c, 0, 81, 64
1, 6912, Note_on_c, 0, 72, 64
1, 7001, Note_on_c, 0, 81, 0
1, 7001, Note_on_c, 0, 72, 0
1, 7008, Note_on_c, 0, 78, 64
1, 7008, Note_on_c, 0, 69, 64
1, 7020, Note_on_c, 0, 78, 0
1, 7020, Note_on_c, 0, 79, 64
1, 7032, Note_on_c, 0, 79, 0
1, 7032, Note_on_c, 0, 78, 64
1, 7097, Note_on_c, 0, 78, 0
1, 7097, Note_on_c, 0, 69, 0
1, 7104, Note_on_c, 1, 67, 64
1, 7193, Note_on_c, 1, 67, 0
1, 7200, Note_on_c, 0, 79, 64
1, 7200, Note_on_c, 0, 71, 64
1, 7245, Note_on_c, 0, 79, 0
1, 7245, Note_on_c, 0, 71, 0
1, 7248, Note_on_c, 0, 74, 64
1, 7248, Note_on_c, 0, 71, 64
1, 7293, Note_on_c, 0, 74, 0
1, 7293, Note_on_c, 0, 71, 0
1, 7296, Note_on_c, 0, 74, 64
1, 7296, Note_on_c, 0, 71, 64
1, 7344, Note_on_c, 0, 74, 0
1, 7344, Note_on_c, 0, 71, 0
1, 7344, Note_on_c, 0, 76, 64
1, 7344, Note_on_c, 0, 72, 64
1, 7389, Note_on_c, 0, 76, 0
1, 7389, Note_on_c, 0, 72, 0
1, 7392, Note_on_c, 1, 67, 64
1, 7481, Note_on_c, 1, 67, 0
1, 7488, Note_on_c, 0, 81, 64
1, 7488, Note_on_c, 0, 72, 64
1, 7536, Note_on_c, 0, 81, 0
1, 7536, Note_on_c, 0, 72, 0
1, 7536, Note_on_c, 0, 78, 64
1, 7536, Note_on_c, 0, 69, 64
1, 7581, Note_on_c, 0, 78, 0
1, 7581, Note_on_c, 0, 69, 0
1, 7584, Note_on_c, 0, 78, 64
1, 7584, Note_on_c, 0, 69, 64
1, 7632, Note_on_c, 0, 78, 0
1, 7632, Note_on_c, 0, 69, 0
1, 7632, Note_on_c, 0, 79, 64
1, 7632, Note_on_c, 0, 71, 64
1, 7677, Note_on_c, 0, 79, 0
1, 7677, Note_on_c, 0, 71, 0
1, 7680, Note_on_c, 0, 78, 64
1, 7680, Note_on_c, 0, 69, 64
1, 7680, Note_on_c, 1, 62, 64
1, 7692, Note_on_c, 0, 78, 0
1, 7692, Note_on_c, 0, 79, 64
1, 7704, Note_on_c, 0, 79, 0
1, 7704, Note_on_c, 0, 78, 64
1, 7821, Note_on_c, 0, 78, 0
1, 7821, Note_on_c, 0, 69, 0
1, 7824, Note_on_c, 0, 76, 64
1, 7824, Note_on_c, 0, 67, 64
1, 7865, Note_on_c, 1, 62, 0
1, 7869, Note_on_c, 0, 76, 0
1, 7869, Note_on_c, 0, 67, 0
1, 7872, Note_on_c, 0, 74, 64
1, 7872, Note_on_c, 0, 66, 64
1, 7961, Note_on_c, 0, 74, 0
1, 7961, Note_on_c, 0, 66, 0
1, 7968, Note_on_c, 0, 83, 64
1, 7968, Note_on_c, 0, 79, 64
1, 7968, Note_on_c, 1, 74, 64
1, 7998, Note_on_c, 0, 83, 0
1, 7998, Note_on_c, 0, 79, 0
1, 8000, Note_on_c, 0, 84, 64
1, 8000, Note_on_c, 0, 81, 64
1, 8030, Note_on_c, 0, 84, 0
1, 8030, Note_on_c, 0, 81, 0
1, 8032, Note_on_c, 0, 86, 64
1, 8032, Note_on_c, 0, 83, 64
1, 8057, Note_on_c, 1, 74, 0
1, 8062, Note_on_c, 0, 86, 0
1, 8062, Note_on_c, 0, 83, 0
1, 8064, Note_on_c, 0, 86, 80
1, 8064, Note_on_c, 0, 83, 80
1, 8208, Note_on_c, 0, 86, 0
1, 8208, Note_on_c, 0, 83, 0
1, 8208, Note_on_c, 0, 59, 64
1, 8208, Note_on_c, 0, 55, 64
1, 8228, Note_on_c, 0, 59, 0
1, 8228, Note_on_c, 0, 55, 0
1, 8256, Note_on_c, 0, 62, 64
1, 8256, Note_on_c, 0, 59, 64
1, 8256, Note_on_c, 1, 48, 64
1, 8301, Note_on_c, 0, 62, 0
1, 8301, Note_on_c, 0, 59, 0
1, 8304, Note_on_c, 0, 60, 64
1, 8304, Note_on_c, 0, 57, 64
1, 8345, Note_on_c, 1, 48, 0
1, 8349, Note_on_c, 0, 60, 0
1, 8349, Note_on_c, 0, 57, 0
1, 8352, Note_on_c, 0, 59, 64
1, 8352, Note_on_c, 0, 55, 64
1, 8352, Note_on_c, 1, 50, 64
1, 8400, Note_on_c, 0, 59, 0
1, 8400, Note_on_c, 0, 55, 0
1, 8400, Note_on_c, 0, 57, 64
1, 8400, Note_on_c, 0, 54, 64
1, 8441, Note_on_c, 1, 50, 0
1, 8445, Note_on_c, 0, 57, 0
1, 8445, Note_on_c, 0, 54, 0
1, 8448, Note_on_c, 0, 57, 64
1, 8448, Note_on_c, 0, 54, 64
1, 8448, Note_on_c, 1, 43, 64
1, 8544, Note_on_c, 0, 57, 0
1, 8544, Note_on_c, 0, 54, 0
1, 8544, Note_on_c, 0, 59, 64
1, 8544, Note_on_c, 0, 55, 64
1, 8581, Note_on_c, 1, 43, 0
1, 8589, Note_on_c, 0, 59, 0
1, 8589, Note_on_c, 0, 55, 0
1, 8592, Note_on_c, 0, 54, 80
1, 8639, Note_on_c, 0, 54, 0
1, 8640, Note_on_c, 0, 55, 64
1, 8640, Note_on_c, 1, 47, 64
1, 8688, Note_on_c, 0, 55, 0
1, 8688, Note_on_c, 0, 50, 64
1, 8729, Note_on_c, 1, 47, 0
1, 8733, Note_on_c, 0, 50, 0
1, 8736, Note_on_c, 0, 50, 80
1, 8736, Note_on_c, 1, 43, 64
1, 8748, Note_on_c, 0, 50, 0
1, 8748, Note_on_c, 0, 52, 80
1, 8760, Note_on_c, 0, 52, 0
1, 8760, Note_on_c, 0, 50, 80
1, 8825, Note_on_c, 1, 43, 0
1, 8880, Note_on_c, 0, 50, 0
1, 8880, Note_on_c, 0, 48, 80
1, 8927, Note_on_c, 0, 48, 0
1, 8928, Note_on_c, 0, 47, 64
1, 8928, Note_on_c, 1, 43, 64
1, 8976, Note_on_c, 0, 47, 0
1, 8976, Note_on_c, 0, 50, 64
1, 8976, Note_on_c, 1, 43, 0
1, 8976, Note_on_c, 1, 47, 64
1, 9021, Note_on_c, 0, 50, 0
1, 9021, Note_on_c, 1, 47, 0
1, 9024, Note_on_c, 0, 48, 64
1, 9024, Note_on_c, 1, 45, 64
1, 9072, Note_on_c, 0, 48, 0
1, 9072, Note_on_c, 0, 45, 64
1, 9072, Note_on_c, 1, 45, 0
1, 9072, Note_on_c, 1, 42, 64
1, 9117, Note_on_c, 0, 45, 0
1, 9117, Note_on_c, 1, 42, 0
1, 9120, Note_on_c, 0, 47, 64
1, 9120, Note_on_c, 1, 43, 64
1, 9168, Note_on_c, 0, 47, 0
1, 9168, Note_on_c, 0, 43, 64
1, 9168, Note_on_c, 1, 43, 0
1, 9168, Note_on_c, 1, 40, 64
1, 9213, Note_on_c, 0, 43, 0
1, 9213, Note_on_c, 1, 40, 0
1, 9216, Note_on_c, 0, 45, 64
1, 9216, Note_on_c, 0, 42, 64
1, 9216, Note_on_c, 1, 38, 64
1, 9403, Note_on_c, 0, 45, 0
1, 9403, Note_on_c, 0, 42, 0
1, 9403, Note_on_c, 1, 38, 0
1, 9504, Note_on_c, 0, 49, 80
1, 9504, Note_on_c, 0, 45, 80
1, 9504, Note_on_c, 1, 37, 64
1, 9552, Note_on_c, 0, 49, 0
1, 9552, Note_on_c, 0, 45, 0
1, 9552, Note_on_c, 0, 52, 64
1, 9552, Note_on_c, 0, 49, 64
1, 9593, Note_on_c, 1, 37, 0
1, 9597, Note_on_c, 0, 52, 0
1, 9597, Note_on_c, 0, 49, 0
1, 9600, Note_on_c, 0, 52, 64
1, 9600, Note_on_c, 0, 49, 64
1, 9600, Note_on_c, 1, 37, 64
1, 9645, Note_on_c, 0, 52, 0
1, 9645, Note_on_c, 0, 49, 0
1, 9648, Note_on_c, 0, 55, 64
1, 9648, Note_on_c, 0, 52, 64
1, 9689, Note_on_c, 1, 37, 0
1, 9693, Note_on_c, 0, 55, 0
1, 9693, Note_on_c, 0, 52, 0
1, 9696, Note_on_c, 1, 37, 64
1, 9744, Note_on_c, 0, 52, 64
1, 9744, Note_on_c, 0, 49, 64
1, 9764, Note_on_c, 0, 52, 0
1, 9764, Note_on_c, 0, 49, 0
1, 9785, Note_on_c, 1, 37, 0
1, 9792, Note_on_c, 0, 54, 80
1, 9792, Note_on_c, 0, 50, 80
1, 9792, Note_on_c, 1, 38, 64
1, 9840, Note_on_c, 0, 54, 0
1, 9840, Note_on_c, 0, 50, 0
1, 9840, Note_on_c, 0, 57, 64
1, 9840, Note_on_c, 0, 54, 64
1, 9881, Note_on_c, 1, 38, 0
1, 9885, Note_on_c, 0, 57, 0
1, 9885, Note_on_c, 0, 54, 0
1, 9888, Note_on_c, 0, 57, 64
1, 9888, Note_on_c, 0, 54, 64
1, 9888, Note_on_c, 1, 50, 64
1, 9888, Note_on_c, 1, 38, 64
1, 9933, Note_on_c, 0, 57, 0
1, 9933, Note_on_c, 0, 54, 0
1, 9936, Note_on_c, 0, 62, 64
1, 9936, Note_on_c, 0, 57, 64
1, 9977, Note_on_c, 1, 50, 0
1, 9977, Note_on_c, 1, 38, 0
1, 9981, Note_on_c, 0, 62, 0
1, 9981, Note_on_c, 0, 57, 0
1, 9984, Note_on_c, 1, 50, 64
1, 9984, Note_on_c, 1, 38, 64
1, 10032, Note_on_c, 0, 62, 64
1, 10032, Note_on_c, 0, 57, 64
1, 10052, Note_on_c, 0, 62, 0
1, 10052, Note_on_c, 0, 57, 0
1, 10073, Note_on_c, 1, 50, 0
1, 10073, Note_on_c, 1, 38, 0
1, 10080, Note_on_c, 0, 61, 80
1, 10080, Note_on_c, 0, 57, 80
1, 10080, Note_on_c, 1, 49, 64
1, 10080, Note_on_c, 1, 37, 64
1, 10128, Note_on_c, 0, 61, 0
1, 10128, Note_on_c, 0, 57, 0
1, 10128, Note_on_c, 0, 71, 75
1, 10128, Note_on_c, 0, 67, 75
1, 10169, Note_on_c, 1, 49, 0
1, 10169, Note_on_c, 1, 37, 0
1, 10173, Note_on_c, 0, 71, 0
1, 10173, Note_on_c, 0, 67, 0
1, 10176, Note_on_c, 0, 69, 75
1, 10176, Note_on_c, 0, 66, 75
1, 10176, Note_on_c, 1, 49, 75
1, 10176, Note_on_c, 1, 37, 75
1, 10221, Note_on_c, 0, 69, 0
1, 10221, Note_on_c, 0, 66, 0
1, 10224, Note_on_c, 0, 67, 75
1, 10224, Note_on_c, 0, 64, 75
1, 10265, Note_on_c, 1, 49, 0
1, 10265, Note_on_c, 1, 37, 0
1, 10269, Note_on_c, 0, 67, 0
1, 10269, Note_on_c, 0, 64, 0
1, 10272, Note_on_c, 0, 66, 76
1, 10272, Note_on_c, 0, 62, 76
1, 10272, Note_on_c, 1, 49, 76
1, 10272, Note_on_c, 1, 37, 76
1, 10317, Note_on_c, 0, 66, 0
1, 10317, Note_on_c, 0, 62, 0
1, 10320, Note_on_c, 0, 64, 76
1, 10320, Note_on_c, 0, 61, 76
1, 10361, Note_on_c, 1, 49, 0
1, 10361, Note_on_c, 1, 37, 0
1, 10365, Note_on_c, 0, 64, 0
1, 10365, Note_on_c, 0, 61, 0
1, 10368, Note_on_c, 0, 66, 93
1, 10368, Note_on_c, 0, 62, 93
1, 10368, Note_on_c, 1, 50, 77
1, 10368, Note_on_c, 1, 38, 77
1, 10416, Note_on_c, 0, 66, 0
1, 10416, Note_on_c, 0, 62, 0
1, 10416, Note_on_c, 0, 76, 77
1, 10416, Note_on_c, 0, 72, 77
1, 10457, Note_on_c, 1, 50, 0
1, 10457, Note_on_c, 1, 38, 0
1, 10461, Note_on_c, 0, 76, 0
1, 10461, Note_on_c, 0, 72, 0
1, 10464, Note_on_c, 0, 76, 78
1, 10464, Note_on_c, 0, 72, 78
1, 10464, Note_on_c, 1, 50, 78
1, 10464, Note_on_c, 1, 38, 78
1, 10512, Note_on_c, 0, 76, 0
1, 10512, Note_on_c, 0, 72, 0
1, 10512, Note_on_c, 0, 74, 78
1, 10512, Note_on_c, 0, 71, 78
1, 10553, Note_on_c, 1, 50, 0
1, 10553, Note_on_c, 1, 38, 0
1, 10557, Note_on_c, 0, 74, 0
1, 10557, Note_on_c, 0, 71, 0
1, 10560, Note_on_c, 0, 74, 79
1, 10560, Note_on_c, 0, 71, 79
1, 10560, Note_on_c, 1, 50, 79
1, 10560, Note_on_c, 1, 38, 79
1, 10608, Note_on_c, 0, 74, 0
1, 10608, Note_on_c, 0, 71, 0
1, 10608, Note_on_c, 0, 73, 79
1, 10608, Note_on_c, 0, 70, 79
1, 10649, Note_on_c, 1, 50, 0
1, 10649, Note_on_c, 1, 38, 0
1, 10653, Note_on_c, 0, 73, 0
1, 10653, Note_on_c, 0, 70, 0
1, 10656, Note_on_c, 0, 74, 80
1, 10656, Note_on_c, 0, 71, 80
1, 10656, Note_on_c, 1, 65, 80
1, 10656, Note_on_c, 1, 62, 80
1, 10656, Note_on_c, 1, 56, 80
1, 10656, Note_on_c, 1, 44, 80
1, 10686, Note_on_c, 0, 74, 0
1, 10686, Note_on_c, 0, 71, 0
1, 10688, Note_on_c, 0, 76, 80
1, 10688, Note_on_c, 0, 72, 80
1, 10718, Note_on_c, 0, 76, 0
1, 10718, Note_on_c, 0, 72, 0
1, 10720, Note_on_c, 0, 77, 80
1, 10720, Note_on_c, 0, 74, 80
1, 10750, Note_on_c, 0, 77, 0
1, 10750, Note_on_c, 0, 74, 0
1, 10752, Note_on_c, 0, 77, 96
1, 10752, Note_on_c, 0, 74, 96
1, 10841, Note_on_c, 1, 65, 0
1, 10841, Note_on_c, 1, 62, 0
1, 10841, Note_on_c, 1, 56, 0
1, 10841, Note_on_c, 1, 44, 0
1, 10848, Note_on_c, 0, 77, 0
1, 10848, Note_on_c, 0, 74, 0
1, 10944, Note_on_c, 0, 78, 70
1, 10956, Note_on_c, 0, 78, 0
1, 10956, Note_on_c, 0, 81, 70
1, 11033, Note_on_c, 0, 81, 0
1, 11040, Note_on_c, 0, 78, 70
1, 11040, Note_on_c, 1, 50, 64
1, 11052, Note_on_c, 0, 78, 0
1, 11052, Note_on_c, 0, 74, 70
1, 11079, Note_on_c, 1, 50, 0
1, 11129, Note_on_c, 0, 74, 0
1, 11136, Note_on_c, 0, 76, 70
1, 11136, Note_on_c, 1, 57, 64
1, 11148, Note_on_c, 0, 76, 0
1, 11148, Note_on_c, 0, 73, 70
1, 11175, Note_on_c, 1, 57, 0
1, 11225, Note_on_c, 0, 73, 0
1, 11232, Note_on_c, 0, 73, 86
1, 11232, Note_on_c, 1, 62, 58
1, 11328, Note_on_c, 0, 73, 0
1, 11328, Note_on_c, 0, 74, 70
1, 11409, Note_on_c, 1, 62, 0
1, 11417, Note_on_c, 0, 74, 0
1, 11520, Note_on_c, 0, 60, 70
1, 11520, Note_on_c, 1, 52, 64
1, 11520, Note_on_c, 1, 45, 64
1, 11609, Note_on_c, 0, 60, 0
1, 11616, Note_on_c, 0, 64, 70
1, 11705, Note_on_c, 0, 64, 0
1, 11712, Note_on_c, 0, 62, 70
1, 11801, Note_on_c, 0, 62, 0
1, 11808, Note_on_c, 0, 60, 70
1, 11821, Note_on_c, 0, 60, 0
1, 11822, Note_on_c, 0, 62, 70
1, 11835, Note_on_c, 0, 62, 0
1, 11836, Note_on_c, 0, 60, 70
1, 11849, Note_on_c, 0, 60, 0
1, 11850, Note_on_c, 0, 62, 70
1, 11863, Note_on_c, 0, 62, 0
1, 11864, Note_on_c, 0, 60, 70
1, 11877, Note_on_c, 0, 60, 0
1, 11878, Note_on_c, 0, 62, 70
1, 11890, Note_on_c, 0, 62, 0
1, 11891, Note_on_c, 0, 60, 70
1, 11949, Note_on_c, 0, 60, 0
1, 11952, Note_on_c, 0, 59, 70
1, 11997, Note_on_c, 0, 59, 0
1, 12000, Note_on_c, 0, 60, 70
1, 12073, Note_on_c, 1, 52, 0
1, 12073, Note_on_c, 1, 45, 0
1, 12089, Note_on_c, 0, 60, 0
1, 12096, Note_on_c, 0, 59, 70
1, 12096, Note_on_c, 1, 51, 64
1, 12096, Note_on_c, 1, 45, 64
1, 12361, Note_on_c, 0, 59, 0
1, 12361, Note_on_c, 1, 51, 0
1, 12361, Note_on_c, 1, 45, 0
1, 12384, Note_on_c, 0, 75, 86
1, 12416, Note_on_c, 0, 75, 0
1, 12416, Note_on_c, 0, 72, 70
1, 12446, Note_on_c, 0, 72, 0
1, 12448, Note_on_c, 0, 71, 70
1, 12478, Note_on_c, 0, 71, 0
1, 12480, Note_on_c, 0, 69, 70
1, 12510, Note_on_c, 0, 69, 0
1, 12512, Note_on_c, 0, 67, 70
1, 12542, Note_on_c, 0, 67, 0
1, 12544, Note_on_c, 0, 66, 70
1, 12574, Note_on_c, 0, 66, 0
1, 12576, Note_on_c, 0, 64, 70
1, 12606, Note_on_c, 0, 64, 0
1, 12608, Note_on_c, 0, 66, 70
1, 12638, Note_on_c, 0, 66, 0
1, 12640, Note_on_c, 0, 67, 70
1, 12670, Note_on_c, 0, 67, 0
1, 12672, Note_on_c, 0, 71, 70
1, 12672, Note_on_c, 1, 60, 64
1, 12702, Note_on_c, 0, 71, 0
1, 12704, Note_on_c, 0, 69, 70
1, 12734, Note_on_c, 0, 69, 0
1, 12736, Note_on_c, 0, 67, 71
1, 12761, Note_on_c, 1, 60, 0
1, 12766, Note_on_c, 0, 67, 0
1, 12768, Note_on_c, 0, 66, 71
1, 12798, Note_on_c, 0, 66, 0
1, 12800, Note_on_c, 0, 64, 72
1, 12830, Note_on_c, 0, 64, 0
1, 12832, Note_on_c, 0, 63, 72
1, 12862, Note_on_c, 0, 63, 0
1, 12864, Note_on_c, 0, 64, 73
1, 12894, Note_on_c, 0, 64, 0
1, 12896, Note_on_c, 0, 66, 73
1, 12926, Note_on_c, 0, 66, 0
1, 12928, Note_on_c, 0, 67, 74
1, 12958, Note_on_c, 0, 67, 0
1, 12960, Note_on_c, 1, 57, 64
1, 12992, Note_on_c, 0, 80, 75
1, 13022, Note_on_c, 0, 80, 0
1, 13024, Note_on_c, 0, 81, 75
1, 13049, Note_on_c, 1, 57, 0
1, 13054, Note_on_c, 0, 81, 0
1, 13056, Note_on_c, 0, 84, 91
1, 13088, Note_on_c, 0, 84, 0
1, 13088, Note_on_c, 0, 80, 75
1, 13118, Note_on_c, 0, 80, 0
1, 13120, Note_on_c, 0, 81, 75
1, 13150, Note_on_c, 0, 81, 0
1, 13152, Note_on_c, 0, 84, 91
1, 13184, Note_on_c, 0, 84, 0
1, 13184, Note_on_c, 0, 83, 75
1, 13214, Note_on_c, 0, 83, 0
1, 13216, Note_on_c, 0, 81, 75
1, 13246, Note_on_c, 0, 81, 0
1, 13248, Note_on_c, 0, 80, 75
1, 13248, Note_on_c, 1, 77, 75
1, 13278, Note_on_c, 1, 77, 0
1, 13280, Note_on_c, 1, 76, 75
1, 13310, Note_on_c, 1, 76, 0
1, 13312, Note_on_c, 1, 74, 75
1, 13337, Note_on_c, 0, 80, 0
1, 13342, Note_on_c, 1, 74, 0
1, 13344, Note_on_c, 1, 72, 75
1, 13374, Note_on_c, 1, 72, 0
1, 13376, Note_on_c, 1, 71, 75
1, 13406, Note_on_c, 1, 71, 0
1, 13408, Note_on_c, 1, 69, 75
1, 13438, Note_on_c, 1, 69, 0
1, 13440, Note_on_c, 1, 68, 75
1, 13470, Note_on_c, 1, 68, 0
1, 13472, Note_on_c, 1, 69, 75
1, 13502, Note_on_c, 1, 69, 0
1, 13504, Note_on_c, 1, 71, 75
1, 13534, Note_on_c, 1, 71, 0
1, 13536, Note_on_c, 0, 62, 64
1, 13584, Note_on_c, 0, 62, 0
1, 13584, Note_on_c, 0, 65, 64
1, 13629, Note_on_c, 0, 65, 0
1, 13632, Note_on_c, 0, 65, 70
1, 13632, Note_on_c, 0, 62, 70
1, 13632, Note_on_c, 1, 52, 64
1, 13632, Note_on_c, 1, 40, 64
1, 13680, Note_on_c, 0, 65, 0
1, 13680, Note_on_c, 0, 62, 0
1, 13680, Note_on_c, 0, 64, 70
1, 13680, Note_on_c, 0, 60, 70
1, 13721, Note_on_c, 1, 52, 0
1, 13721, Note_on_c, 1, 40, 0
1, 13725, Note_on_c, 0, 64, 0
1, 13725, Note_on_c, 0, 60, 0
1, 13728, Note_on_c, 0, 64, 70
1, 13728, Note_on_c, 0, 60, 70
1, 13776, Note_on_c, 0, 64, 0
1, 13776, Note_on_c, 0, 60, 0
1, 13776, Note_on_c, 0, 62, 70
1, 13776, Note_on_c, 0, 59, 70
1, 13821, Note_on_c, 0, 62, 0
1, 13821, Note_on_c, 0, 59, 0
1, 13824, Note_on_c, 0, 60, 70
1, 13824, Note_on_c, 0, 57, 70
1, 13824, Note_on_c, 1, 52, 64
1, 13824, Note_on_c, 1, 40, 64
1, 13872, Note_on_c, 0, 57, 0
1, 13872, Note_on_c, 0, 64, 70
1, 13913, Note_on_c, 1, 52, 0
1, 13913, Note_on_c, 1, 40, 0
1, 13917, Note_on_c, 0, 64, 0
1, 13917, Note_on_c, 0, 60, 0
1, 13920, Note_on_c, 0, 64, 70
1, 13920, Note_on_c, 0, 60, 70
1, 13920, Note_on_c, 1, 52, 64
1, 13920, Note_on_c, 1, 40, 64
1, 13968, Note_on_c, 0, 64, 0
1, 13968, Note_on_c, 0, 60, 0
1, 13968, Note_on_c, 0, 62, 70
1, 13968, Note_on_c, 0, 59, 70
1, 14009, Note_on_c, 1, 52, 0
1, 14009, Note_on_c, 1, 40, 0
1, 14013, Note_on_c, 0, 62, 0
1, 14013, Note_on_c, 0, 59, 0
1, 14016, Note_on_c, 0, 62, 70
1, 14016, Note_on_c, 0, 59, 70
1, 14064, Note_on_c, 0, 62, 0
1, 14064, Note_on_c, 0, 59, 0
1, 14064, Note_on_c, 0, 60, 70
1, 14064, Note_on_c, 0, 57, 70
1, 14109, Note_on_c, 0, 60, 0
1, 14109, Note_on_c, 0, 57, 0
1, 14112, Note_on_c, 0, 59, 70
1, 14112, Note_on_c, 0, 56, 70
1, 14112, Note_on_c, 1, 52, 64
1, 14112, Note_on_c, 1, 40, 64
1, 14157, Note_on_c, 0, 59, 0
1, 14157, Note_on_c, 0, 56, 0
1, 14160, Note_on_c, 0, 77, 70
1, 14160, Note_on_c, 0, 74, 70
1, 14201, Note_on_c, 1, 52, 0
1, 14201, Note_on_c, 1, 40, 0
1, 14205, Note_on_c, 0, 77, 0
1, 14205, Note_on_c, 0, 74, 0
1, 14208, Note_on_c, 0, 76, 70
1, 14208, Note_on_c, 0, 72, 70
1, 14208, Note_on_c, 1, 52, 64
1, 14208, Note_on_c, 1, 40, 64
1, 14253, Note_on_c, 0, 76, 0
1, 14253, Note_on_c, 0, 72, 0
1, 14256, Note_on_c, 0, 74, 70
1, 14256, Note_on_c, 0, 71, 70
1, 14297, Note_on_c, 1, 52, 0
1, 14297, Note_on_c, 1, 40, 0
1, 14301, Note_on_c, 0, 74, 0
1, 14301, Note_on_c, 0, 71, 0
1, 14304, Note_on_c, 0, 72, 70
1, 14304, Note_on_c, 0, 69, 70
1, 14349, Note_on_c, 0, 72, 0
1, 14349, Note_on_c, 0, 69, 0
1, 14352, Note_on_c, 0, 71, 70
1, 14352, Note_on_c, 0, 68, 70
1, 14397, Note_on_c, 0, 71, 0
1, 14397, Note_on_c, 0, 68, 0
1, 14400, Note_on_c, 0, 72, 70
1, 14400, Note_on_c, 0, 69, 70
1, 14400, Note_on_c, 1, 57, 64
1, 14400, Note_on_c, 1, 45, 64
1, 14430, Note_on_c, 0, 72, 0
1, 14430, Note_on_c, 0, 69, 0
1, 14432, Note_on_c, 0, 74, 70
1, 14432, Note_on_c, 0, 71, 70
1, 14462, Note_on_c, 0, 74, 0
1, 14462, Note_on_c, 0, 71, 0
1, 14464, Note_on_c, 0, 76, 70
1, 14464, Note_on_c, 0, 72, 70
1, 14494, Note_on_c, 0, 76, 0
1, 14494, Note_on_c, 0, 72, 0
1, 14496, Note_on_c, 0, 76, 86
1, 14496, Note_on_c, 0, 72, 86
1, 14577, Note_on_c, 1, 57, 0
1, 14577, Note_on_c, 1, 45, 0
1, 14592, Note_on_c, 0, 76, 0
1, 14592, Note_on_c, 0, 72, 0
1, 14688, Note_on_c, 0, 76, 64
1, 14688, Note_on_c, 1, 67, 64
1, 14736, Note_on_c, 0, 76, 0
1, 14736, Note_on_c, 0, 73, 64
1, 14781, Note_on_c, 0, 73, 0
1, 14784, Note_on_c, 0, 73, 64
1, 14784, Note_on_c, 1, 67, 0
1, 14784, Note_on_c, 1, 65, 64
1, 14832, Note_on_c, 0, 73, 0
1, 14832, Note_on_c, 0, 74, 64
1, 14873, Note_on_c, 1, 65, 0
1, 14877, Note_on_c, 0, 74, 0
1, 14976, Note_on_c, 0, 74, 70
1, 14976, Note_on_c, 0, 71, 70
1, 14976, Note_on_c, 1, 68, 70
1, 15006, Note_on_c, 0, 74, 0
1, 15006, Note_on_c, 0, 71, 0
1, 15008, Note_on_c, 0, 76, 70
1, 15008, Note_on_c, 0, 72, 70
1, 15038, Note_on_c, 0, 76, 0
1, 15038, Note_on_c, 0, 72, 0
1, 15040, Note_on_c, 0, 77, 70
1, 15040, Note_on_c, 0, 74, 70
1, 15070, Note_on_c, 0, 77, 0
1, 15070, Note_on_c, 0, 74, 0
1, 15072, Note_on_c, 0, 77, 86
1, 15072, Note_on_c, 0, 74, 86
1, 15153, Note_on_c, 1, 68, 0
1, 15168, Note_on_c, 0, 77, 0
1, 15168, Note_on_c, 0, 74, 0
1, 15264, Note_on_c, 0, 77, 64
1, 15264, Note_on_c, 1, 71, 70
1, 15312, Note_on_c, 0, 77, 0
1, 15312, Note_on_c, 0, 75, 64
1, 15357, Note_on_c, 0, 75, 0
1, 15360, Note_on_c, 0, 75, 64
1, 15360, Note_on_c, 1, 71, 0
1, 15360, Note_on_c, 1, 68, 70
1, 15408, Note_on_c, 0, 75, 0
1, 15408, Note_on_c, 0, 76, 64
1, 15449, Note_on_c, 1, 68, 0
1, 15453, Note_on_c, 0, 76, 0
1, 15552, Note_on_c, 0, 86, 64
1, 15552, Note_on_c, 0, 83, 64
1, 15552, Note_on_c, 1, 80, 58
1, 15582, Note_on_c, 0, 86, 0
1, 15582, Note_on_c, 0, 83, 0
1, 15584, Note_on_c, 0, 88, 64
1, 15584, Note_on_c, 0, 84, 64
1, 15614, Note_on_c, 0, 88, 0
1, 15614, Note_on_c, 0, 84, 0
1, 15616, Note_on_c, 0, 89, 64
1, 15616, Note_on_c, 0, 86, 64
1, 15646, Note_on_c, 0, 89, 0
1, 15646, Note_on_c, 0, 86, 0
1, 15648, Note_on_c, 0, 89, 80
1, 15648, Note_on_c, 0, 86, 80
1, 15729, Note_on_c, 1, 80, 0
1, 15744, Note_on_c, 0, 89, 0
1, 15744, Note_on_c, 0, 86, 0
1, 15840, Note_on_c, 0, 88, 58
1, 15840, Note_on_c, 1, 79, 58
1, 15888, Note_on_c, 0, 88, 0
1, 15888, Note_on_c, 0, 85, 58
1, 15933, Note_on_c, 0, 85, 0
1, 15936, Note_on_c, 0, 85, 58
1, 15936, Note_on_c, 1, 79, 0
1, 15936, Note_on_c, 1, 78, 58
1, 15984, Note_on_c, 0, 85, 0
1, 15984, Note_on_c, 0, 86, 58
1, 16025, Note_on_c, 1, 78, 0
1, 16029, Note_on_c, 0, 86, 0
1, 16080, Note_on_c, 0, 86, 80
1, 16125, Note_on_c, 0, 86, 0
1, 16128, Note_on_c, 0, 84, 96
1, 16128, Note_on_c, 1, 57, 80
1, 16128, Note_on_c, 1, 54, 80
1, 16128, Note_on_c, 1, 50, 80
1, 16176, Note_on_c, 0, 84, 0
1, 16176, Note_on_c, 0, 88, 80
1, 16221, Note_on_c, 0, 88, 0
1, 16224, Note_on_c, 0, 86, 80
1, 16269, Note_on_c, 0, 86, 0
1, 16272, Note_on_c, 0, 84, 80
1, 16317, Note_on_c, 0, 84, 0
1, 16320, Note_on_c, 0, 83, 80
1, 16365, Note_on_c, 0, 83, 0
1, 16368, Note_on_c, 0, 81, 80
1, 16413, Note_on_c, 0, 81, 0
1, 16416, Note_on_c, 0, 79, 80
1, 16461, Note_on_c, 0, 79, 0
1, 16464, Note_on_c, 0, 78, 80
1, 16509, Note_on_c, 0, 78, 0
1, 16512, Note_on_c, 0, 77, 80
1, 16557, Note_on_c, 0, 77, 0
1, 16560, Note_on_c, 0, 76, 80
1, 16605, Note_on_c, 0, 76, 0
1, 16608, Note_on_c, 0, 75, 80
1, 16653, Note_on_c, 0, 75, 0
1, 16656, Note_on_c, 0, 74, 80
1, 16701, Note_on_c, 0, 74, 0
1, 16704, Note_on_c, 0, 74, 75
1, 16728, Note_on_c, 0, 74, 0
1, 16728, Note_on_c, 0, 72, 75
1, 16740, Note_on_c, 0, 72, 0
1, 16740, Note_on_c, 0, 74, 75
1, 16752, Note_on_c, 0, 74, 0
1, 16752, Note_on_c, 0, 72, 75
1, 16764, Note_on_c, 0, 72, 0
1, 16764, Note_on_c, 0, 74, 75
1, 16776, Note_on_c, 0, 74, 0
1, 16776, Note_on_c, 0, 72, 75
1, 16788, Note_on_c, 0, 72, 0
1, 16788, Note_on_c, 0, 74, 75
1, 16800, Note_on_c, 0, 74, 0
1, 16800, Note_on_c, 0, 72, 75
1, 16812, Note_on_c, 0, 72, 0
1, 16812, Note_on_c, 0, 74, 75
1, 16824, Note_on_c, 0, 74, 0
1, 16824, Note_on_c, 0, 72, 75
1, 16836, Note_on_c, 0, 72, 0
1, 16836, Note_on_c, 0, 74, 75
1, 16837, Note_on_c, 0, 74, 0
1, 16848, Note_on_c, 0, 71, 75
1, 16871, Note_on_c, 0, 71, 0
1, 16872, Note_on_c, 0, 72, 75
1, 16895, Note_on_c, 0, 72, 0
1, 16896, Note_on_c, 0, 81, 75
1, 16969, Note_on_c, 1, 57, 0
1, 16969, Note_on_c, 1, 54, 0
1, 16969, Note_on_c, 1, 50, 0
1, 17081, Note_on_c, 0, 81, 0
1, 17280, Note_on_c, 0, 59, 91
1, 17280, Note_on_c, 0, 55, 91
1, 17280, Note_on_c, 1, 50, 75
1, 17280, Note_on_c, 1, 38, 75
1, 17328, Note_on_c, 0, 59, 0
1, 17328, Note_on_c, 0, 55, 0
1, 17328, Note_on_c, 0, 62, 75
1, 17328, Note_on_c, 0, 59, 75
1, 17369, Note_on_c, 1, 50, 0
1, 17369, Note_on_c, 1, 38, 0
1, 17373, Note_on_c, 0, 62, 0
1, 17373, Note_on_c, 0, 59, 0
1, 17376, Note_on_c, 0, 62, 75
1, 17376, Note_on_c, 0, 59, 75
1, 17376, Note_on_c, 1, 50, 75
1, 17376, Note_on_c, 1, 38, 75
1, 17421, Note_on_c, 0, 62, 0
1, 17421, Note_on_c, 0, 59, 0
1, 17424, Note_on_c, 0, 67, 75
1, 17424, Note_on_c, 0, 62, 75
1, 17465, Note_on_c, 1, 50, 0
1, 17465, Note_on_c, 1, 38, 0
1, 17469, Note_on_c, 0, 67, 0
1, 17469, Note_on_c, 0, 62, 0
1, 17472, Note_on_c, 1, 50, 75
1, 17472, Note_on_c, 1, 38, 75
1, 17520, Note_on_c, 0, 67, 75
1, 17520, Note_on_c, 0, 62, 75
1, 17540, Note_on_c, 0, 67, 0
1, 17540, Note_on_c, 0, 62, 0
1, 17561, Note_on_c, 1, 50, 0
1, 17561, Note_on_c, 1, 38, 0
1, 17568, Note_on_c, 0, 66, 91
1, 17568, Note_on_c, 0, 62, 91
1, 17568, Note_on_c, 1, 50, 75
1, 17568, Note_on_c, 1, 38, 75
1, 17616, Note_on_c, 0, 66, 0
1, 17616, Note_on_c, 0, 62, 0
1, 17616, Note_on_c, 0, 76, 75
1, 17616, Note_on_c, 0, 72, 75
1, 17657, Note_on_c, 1, 50, 0
1, 17657, Note_on_c, 1, 38, 0
1, 17661, Note_on_c, 0, 76, 0
1, 17661, Note_on_c, 0, 72, 0
1, 17664, Note_on_c, 0, 74, 75
1, 17664, Note_on_c, 0, 71, 75
1, 17664, Note_on_c, 1, 50, 75
1, 17664, Note_on_c, 1, 38, 75
1, 17709, Note_on_c, 0, 74, 0
1, 17709, Note_on_c, 0, 71, 0
1, 17712, Note_on_c, 0, 72, 75
1, 17712, Note_on_c, 0, 69, 75
1, 17753, Note_on_c, 1, 50, 0
1, 17753, Note_on_c, 1, 38, 0
1, 17757, Note_on_c, 0, 72, 0
1, 17757, Note_on_c, 0, 69, 0
1, 17760, Note_on_c, 0, 71, 75
1, 17760, Note_on_c, 0, 67, 75
1, 17760, Note_on_c, 1, 50, 76
1, 17760, Note_on_c, 1, 38, 76
1, 17805, Note_on_c, 0, 71, 0
1, 17805, Note_on_c, 0, 67, 0
1, 17808, Note_on_c, 0, 69, 76
1, 17808, Note_on_c, 0, 66, 76
1, 17849, Note_on_c, 1, 50, 0
1, 17849, Note_on_c, 1, 38, 0
1, 17853, Note_on_c, 0, 69, 0
1, 17853, Note_on_c, 0, 66, 0
1, 17856, Note_on_c, 0, 71, 92
1, 17856, Note_on_c, 0, 67, 92
1, 17856, Note_on_c, 1, 50, 77
1, 17856, Note_on_c, 1, 38, 77
1, 17904, Note_on_c, 0, 71, 0
1, 17904, Note_on_c, 0, 67, 0
1, 17904, Note_on_c, 0, 81, 77
1, 17904, Note_on_c, 0, 78, 77
1, 17945, Note_on_c, 1, 50, 0
1, 17945, Note_on_c, 1, 38, 0
1, 17949, Note_on_c, 0, 81, 0
1, 17949, Note_on_c, 0, 78, 0
1, 17952, Note_on_c, 0, 81, 77
1, 17952, Note_on_c, 0, 78, 77
1, 17952, Note_on_c, 1, 50, 78
1, 17952, Note_on_c, 1, 38, 78
1, 18000, Note_on_c, 0, 81, 0
1, 18000, Note_on_c, 0, 78, 0
1, 18000, Note_on_c, 0, 79, 78
1, 18000, Note_on_c, 0, 76, 78
1, 18041, Note_on_c, 1, 50, 0
1, 18041, Note_on_c, 1, 38, 0
1, 18045, Note_on_c, 0, 79, 0
1, 18045, Note_on_c, 0, 76, 0
1, 18048, Note_on_c, 0, 79, 78
1, 18048, Note_on_c, 0, 76, 78
1, 18048, Note_on_c, 1, 50, 79
1, 18048, Note_on_c, 1, 38, 79
1, 18096, Note_on_c, 0, 79, 0
1, 18096, Note_on_c, 0, 76, 0
1, 18096, Note_on_c, 0, 78, 79
1, 18096, Note_on_c, 0, 74, 79
1, 18137, Note_on_c, 1, 50, 0
1, 18137, Note_on_c, 1, 38, 0
1, 18141, Note_on_c, 0, 78, 0
1, 18141, Note_on_c, 0, 74, 0
1, 18144, Note_on_c, 0, 81, 79
1, 18144, Note_on_c, 0, 76, 64
1, 18144, Note_on_c, 1, 49, 80
1, 18144, Note_on_c, 1, 37, 80
1, 18150, Note_on_c, 0, 81, 0
1, 18150, Note_on_c, 0, 79, 95
1, 18168, Note_on_c, 0, 79, 0
1, 18168, Note_on_c, 0, 78, 80
1, 18191, Note_on_c, 0, 78, 0
1, 18192, Note_on_c, 0, 79, 80
1, 18215, Note_on_c, 0, 79, 0
1, 18216, Note_on_c, 0, 81, 80
1, 18239, Note_on_c, 0, 81, 0
1, 18240, Note_on_c, 0, 82, 80
1, 18321, Note_on_c, 0, 76, 0
1, 18321, Note_on_c, 1, 49, 0
1, 18321, Note_on_c, 1, 37, 0
1, 18329, Note_on_c, 0, 82, 0
1, 18432, Note_on_c, 0, 71, 75
1, 18450, Note_on_c, 0, 71, 0
1, 18450, Note_on_c, 0, 74, 75
1, 18521, Note_on_c, 0, 74, 0
1, 18528, Note_on_c, 0, 71, 75
1, 18528, Note_on_c, 1, 62, 64
1, 18546, Note_on_c, 0, 71, 0
1, 18546, Note_on_c, 0, 67, 75
1, 18567, Note_on_c, 1, 62, 0
1, 18617, Note_on_c, 0, 67, 0
1, 18624, Note_on_c, 0, 69, 75
1, 18624, Note_on_c, 1, 62, 64
1, 18642, Note_on_c, 0, 69, 0
1, 18642, Note_on_c, 0, 66, 75
1, 18663, Note_on_c, 1, 62, 0
1, 18713, Note_on_c, 0, 66, 0
1, 18720, Note_on_c, 0, 67, 75
1, 18720, Note_on_c, 1, 59, 58
1, 18897, Note_on_c, 0, 67, 0
1, 18897, Note_on_c, 1, 59, 0
1, 19008, Note_on_c, 0, 60, 70
1, 19008, Note_on_c, 1, 52, 64
1, 19008, Note_on_c, 1, 45, 64
1, 19097, Note_on_c, 0, 60, 0
1, 19104, Note_on_c, 0, 64, 70
1, 19193, Note_on_c, 0, 64, 0
1, 19200, Note_on_c, 0, 62, 70
1, 19289, Note_on_c, 0, 62, 0
1, 19296, Note_on_c, 0, 60, 70
1, 19309, Note_on_c, 0, 60, 0
1, 19310, Note_on_c, 0, 62, 70
1, 19323, Note_on_c, 0, 62, 0
1, 19324, Note_on_c, 0, 60, 70
1, 19337, Note_on_c, 0, 60, 0
1, 19338, Note_on_c, 0, 62, 70
1, 19351, Note_on_c, 0, 62, 0
1, 19352, Note_on_c, 0, 60, 70
1, 19365, Note_on_c, 0, 60, 0
1, 19366, Note_on_c, 0, 62, 70
1, 19378, Note_on_c, 0, 62, 0
1, 19379, Note_on_c, 0, 60, 70
1, 19437, Note_on_c, 0, 60, 0
1, 19440, Note_on_c, 0, 59, 70
1, 19485, Note_on_c, 0, 59, 0
1, 19488, Note_on_c, 0, 60, 70
1, 19561, Note_on_c, 1, 52, 0
1, 19561, Note_on_c, 1, 45, 0
1, 19577, Note_on_c, 0, 60, 0
1, 19584, Note_on_c, 0, 59, 70
1, 19584, Note_on_c, 1, 51, 64
1, 19584, Note_on_c, 1, 45, 64
1, 19849, Note_on_c, 0, 59, 0
1, 19849, Note_on_c, 1, 51, 0
1, 19849, Note_on_c, 1, 45, 0
1, 19872, Note_on_c, 0, 75, 86
1, 19904, Note_on_c, 0, 75, 0
1, 19904, Note_on_c, 0, 72, 70
1, 19934, Note_on_c, 0, 72, 0
1, 19936, Note_on_c, 0, 71, 70
1, 19966, Note_on_c, 0, 71, 0
1, 19968, Note_on_c, 0, 69, 70
1, 19998, Note_on_c, 0, 69, 0
1, 20000, Note_on_c, 0, 67, 70
1, 20030, Note_on_c, 0, 67, 0
1, 20032, Note_on_c, 0, 66, 70
1, 20062, Note_on_c, 0, 66, 0
1, 20064, Note_on_c, 0, 64, 70
1, 20094, Note_on_c, 0, 64, 0
1, 20096, Note_on_c, 0, 66, 70
1, 20126, Note_on_c, 0, 66, 0
1, 20128, Note_on_c, 0, 67, 70
1, 20158, Note_on_c, 0, 67, 0
1, 20160, Note_on_c, 0, 71, 70
1, 20160, Note_on_c, 1, 60, 64
1, 20190, Note_on_c, 0, 71, 0
1, 20192, Note_on_c, 0, 69, 70
1, 20222, Note_on_c, 0, 69, 0
1, 20224, Note_on_c, 0, 67, 71
1, 20249, Note_on_c, 1, 60, 0
1, 20254, Note_on_c, 0, 67, 0
1, 20256, Note_on_c, 0, 66, 71
1, 20286, Note_on_c, 0, 66, 0
1, 20288, Note_on_c, 0, 64, 72
1, 20318, Note_on_c, 0, 64, 0
1, 20320, Note_on_c, 0, 63, 72
1, 20350, Note_on_c, 0, 63, 0
1, 20352, Note_on_c, 0, 64, 73
1, 20382, Note_on_c, 0, 64, 0
1, 20384, Note_on_c, 0, 66, 73
1, 20414, Note_on_c, 0, 66, 0
1, 20416, Note_on_c, 0, 67, 74
1, 20446, Note_on_c, 0, 67, 0
1, 20448, Note_on_c, 1, 57, 64
1, 20480, Note_on_c, 0, 80, 75
1, 20510, Note_on_c, 0, 80, 0
1, 20512, Note_on_c, 0, 81, 75
1, 20537, Note_on_c, 1, 57, 0
1, 20542, Note_on_c, 0, 81, 0
1, 20544, Note_on_c, 0, 84, 91
1, 20576, Note_on_c, 0, 84, 0
1, 20576, Note_on_c, 0, 80, 75
1, 20606, Note_on_c, 0, 80, 0
1, 20608, Note_on_c, 0, 81, 75
1, 20638, Note_on_c, 0, 81, 0
1, 20640, Note_on_c, 0, 84, 91
1, 20672, Note_on_c, 0, 84, 0
1, 20672, Note_on_c, 0, 83, 75
1, 20702, Note_on_c, 0, 83, 0
1, 20704, Note_on_c, 0, 81, 75
1, 20734, Note_on_c, 0, 81, 0
1, 20736, Note_on_c, 0, 80, 75
1, 20736, Note_on_c, 1, 77, 75
1, 20766, Note_on_c, 1, 77, 0
1, 20768, Note_on_c, 1, 76, 75
1, 20798, Note_on_c, 1, 76, 0
1, 20800, Note_on_c, 1, 74, 75
1, 20825, Note_on_c, 0, 80, 0
1, 20830, Note_on_c, 1, 74, 0
1, 20832, Note_on_c, 1, 72, 75
1, 20862, Note_on_c, 1, 72, 0
1, 20864, Note_on_c, 1, 71, 75
1, 20894, Note_on_c, 1, 71, 0
1, 20896, Note_on_c, 1, 69, 75
1, 20926, Note_on_c, 1, 69, 0
1, 20928, Note_on_c, 1, 68, 75
1, 20958, Note_on_c, 1, 68, 0
1, 20960, Note_on_c, 1, 69, 75
1, 20990, Note_on_c, 1, 69, 0
1, 20992, Note_on_c, 1, 71, 75
1, 21022, Note_on_c, 1, 71, 0
1, 21024, Note_on_c, 0, 62, 64
1, 21072, Note_on_c, 0, 62, 0
1, 21072, Note_on_c, 0, 65, 64
1, 21117, Note_on_c, 0, 65, 0
1, 21120, Note_on_c, 0, 65, 70
1, 21120, Note_on_c, 0, 62, 70
1, 21120, Note_on_c, 1, 52, 64
1, 21120, Note_on_c, 1, 40, 64
1, 21168, Note_on_c, 0, 65, 0
1, 21168, Note_on_c, 0, 62, 0
1, 21168, Note_on_c, 0, 64, 70
1, 21168, Note_on_c, 0, 60, 70
1, 21209, Note_on_c, 1, 52, 0
1, 21209, Note_on_c, 1, 40, 0
1, 21213, Note_on_c, 0, 64, 0
1, 21213, Note_on_c, 0, 60, 0
1, 21216, Note_on_c, 0, 64, 70
1, 21216, Note_on_c, 0, 60, 70
1, 21264, Note_on_c, 0, 64, 0
1, 21264, Note_on_c, 0, 60, 0
1, 21264, Note_on_c, 0, 62, 70
1, 21264, Note_on_c, 0, 59, 70
1, 21309, Note_on_c, 0, 62, 0
1, 21309, Note_on_c, 0, 59, 0
1, 21312, Note_on_c, 0, 60, 70
1, 21312, Note_on_c, 0, 57, 70
1, 21312, Note_on_c, 1, 52, 64
1, 21312, Note_on_c, 1, 40, 64
1, 21360, Note_on_c, 0, 57, 0
1, 21360, Note_on_c, 0, 64, 70
1, 21401, Note_on_c, 1, 52, 0
1, 21401, Note_on_c, 1, 40, 0
1, 21405, Note_on_c, 0, 64, 0
1, 21405, Note_on_c, 0, 60, 0
1, 21408, Note_on_c, 0, 64, 70
1, 21408, Note_on_c, 0, 60, 70
1, 21408, Note_on_c, 1, 52, 64
1, 21408, Note_on_c, 1, 40, 64
1, 21456, Note_on_c, 0, 64, 0
1, 21456, Note_on_c, 0, 60, 0
1, 21456, Note_on_c, 0, 62, 70
1, 21456, Note_on_c, 0, 59, 70
1, 21497, Note_on_c, 1, 52, 0
1, 21497, Note_on_c, 1, 40, 0
1, 21501, Note_on_c, 0, 62, 0
1, 21501, Note_on_c, 0, 59, 0
1, 21504, Note_on_c, 0, 62, 70
1, 21504, Note_on_c, 0, 59, 70
1, 21552, Note_on_c, 0, 62, 0
1, 21552, Note_on_c, 0, 59, 0
1, 21552, Note_on_c, 0, 60, 70
1, 21552, Note_on_c, 0, 57, 70
1, 21597, Note_on_c, 0, 60, 0
1, 21597, Note_on_c, 0, 57, 0
1, 21600, Note_on_c, 0, 59, 70
1, 21600, Note_on_c, 0, 56, 70
1, 21600, Note_on_c, 1, 52, 64
1, 21600, Note_on_c, 1, 40, 64
1, 21645, Note_on_c, 0, 59, 0
1, 21645, Note_on_c, 0, 56, 0
1, 21648, Note_on_c, 0, 77, 70
1, 21648, Note_on_c, 0, 74, 70
1, 21689, Note_on_c, 1, 52, 0
1, 21689, Note_on_c, 1, 40, 0
1, 21693, Note_on_c, 0, 77, 0
1, 21693, Note_on_c, 0, 74, 0
1, 21696, Note_on_c, 0, 76, 70
1, 21696, Note_on_c, 0, 72, 70
1, 21696, Note_on_c, 1, 52, 64
1, 21696, Note_on_c, 1, 40, 64
1, 21741, Note_on_c, 0, 76, 0
1, 21741, Note_on_c, 0, 72, 0
1, 21744, Note_on_c, 0, 74, 70
1, 21744, Note_on_c, 0, 71, 70
1, 21785, Note_on_c, 1, 52, 0
1, 21785, Note_on_c, 1, 40, 0
1, 21789, Note_on_c, 0, 74, 0
1, 21789, Note_on_c, 0, 71, 0
1, 21792, Note_on_c, 0, 72, 70
1, 21792, Note_on_c, 0, 69, 70
1, 21837, Note_on_c, 0, 72, 0
1, 21837, Note_on_c, 0, 69, 0
1, 21840, Note_on_c, 0, 71, 70
1, 21840, Note_on_c, 0, 68, 70
1, 21885, Note_on_c, 0, 71, 0
1, 21885, Note_on_c, 0, 68, 0
1, 21888, Note_on_c, 0, 72, 70
1, 21888, Note_on_c, 0, 69, 70
1, 21888, Note_on_c, 1, 57, 64
1, 21888, Note_on_c, 1, 45, 64
1, 21918, Note_on_c, 0, 72, 0
1, 21918, Note_on_c, 0, 69, 0
1, 21920, Note_on_c, 0, 74, 70
1, 21920, Note_on_c, 0, 71, 70
1, 21950, Note_on_c, 0, 74, 0
1, 21950, Note_on_c, 0, 71, 0
1, 21952, Note_on_c, 0, 76, 70
1, 21952, Note_on_c, 0, 72, 70
1, 21982, Note_on_c, 0, 76, 0
1, 21982, Note_on_c, 0, 72, 0
1, 21984, Note_on_c, 0, 76, 86
1, 21984, Note_on_c, 0, 72, 86
1, 22065, Note_on_c, 1, 57, 0
1, 22065, Note_on_c, 1, 45, 0
1, 22080, Note_on_c, 0, 76, 0
1, 22080, Note_on_c, 0, 72, 0
1, 22176, Note_on_c, 0, 76, 64
1, 22176, Note_on_c, 1, 67, 64
1, 22224, Note_on_c, 0, 76, 0
1, 22224, Note_on_c, 0, 73, 64
1, 22269, Note_on_c, 0, 73, 0
1, 22272, Note_on_c, 0, 73, 64
1, 22272, Note_on_c, 1, 67, 0
1, 22272, Note_on_c, 1, 65, 64
1, 22320, Note_on_c, 0, 73, 0
1, 22320, Note_on_c, 0, 74, 64
1, 22361, Note_on_c, 1, 65, 0
1, 22365, Note_on_c, 0, 74, 0
1, 22464, Note_on_c, 0, 74, 70
1, 22464, Note_on_c, 0, 71, 70
1, 22464, Note_on_c, 1, 68, 70
1, 22494, Note_on_c, 0, 74, 0
1, 22494, Note_on_c, 0, 71, 0
1, 22496, Note_on_c, 0, 76, 70
1, 22496, Note_on_c, 0, 72, 70
1, 22526, Note_on_c, 0, 76, 0
1, 22526, Note_on_c, 0, 72, 0
1, 22528, Note_on_c, 0, 77, 70
1, 22528, Note_on_c, 0, 74, 70
1, 22558, Note_on_c, 0, 77, 0
1, 22558, Note_on_c, 0, 74, 0
1, 22560, Note_on_c, 0, 77, 86
1, 22560, Note_on_c, 0, 74, 86
1, 22641, Note_on_c, 1, 68, 0
1, 22656, Note_on_c, 0, 77, 0
1, 22656, Note_on_c, 0, 74, 0
1, 22752, Note_on_c, 0, 77, 64
1, 22752, Note_on_c, 1, 71, 70
1, 22800, Note_on_c, 0, 77, 0
1, 22800, Note_on_c, 0, 75, 64
1, 22845, Note_on_c, 0, 75, 0
1, 22848, Note_on_c, 0, 75, 64
1, 22848, Note_on_c, 1, 71, 0
1, 22848, Note_on_c, 1, 68, 70
1, 22896, Note_on_c, 0, 75, 0
1, 22896, Note_on_c, 0, 76, 64
1, 22937, Note_on_c, 1, 68, 0
1, 22941, Note_on_c, 0, 76, 0
1, 23040, Note_on_c, 0, 86, 64
1, 23040, Note_on_c, 0, 83, 64
1, 23040, Note_on_c, 1, 80, 58
1, 23070, Note_on_c, 0, 86, 0
1, 23070, Note_on_c, 0, 83, 0
1, 23072, Note_on_c, 0, 88, 64
1, 23072, Note_on_c, 0, 84, 64
1, 23102, Note_on_c, 0, 88, 0
1, 23102, Note_on_c, 0, 84, 0
1, 23104, Note_on_c, 0, 89, 64
1, 23104, Note_on_c, 0, 86, 64
1, 23134, Note_on_c, 0, 89, 0
1, 23134, Note_on_c, 0, 86, 0
1, 23136, Note_on_c, 0, 89, 80
1, 23136, Note_on_c, 0, 86, 80
1, 23217, Note_on_c, 1, 80, 0
1, 23232, Note_on_c, 0, 89, 0
1, 23232, Note_on_c, 0, 86, 0
1, 23328, Note_on_c, 0, 88, 58
1, 23328, Note_on_c, 1, 79, 58
1, 23376, Note_on_c, 0, 88, 0
1, 23376, Note_on_c, 0, 85, 58
1, 23421, Note_on_c, 0, 85, 0
1, 23424, Note_on_c, 0, 85, 58
1, 23424, Note_on_c, 1, 79, 0
1, 23424, Note_on_c, 1, 78, 58
1, 23472, Note_on_c, 0, 85, 0
1, 23472, Note_on_c, 0, 86, 58
1, 23513, Note_on_c, 1, 78, 0
1, 23517, Note_on_c, 0, 86, 0
1, 23568, Note_on_c, 0, 86, 80
1, 23613, Note_on_c, 0, 86, 0
1, 23616, Note_on_c, 0, 84, 96
1, 23616, Note_on_c, 1, 57, 80
1, 23616, Note_on_c, 1, 54, 80
1, 23616, Note_on_c, 1, 50, 80
1, 23664, Note_on_c, 0, 84, 0
1, 23664, Note_on_c, 0, 88, 80
1, 23709, Note_on_c, 0, 88, 0
1, 23712, Note_on_c, 0, 86, 80
1, 23757, Note_on_c, 0, 86, 0
1, 23760, Note_on_c, 0, 84, 80
1, 23805, Note_on_c, 0, 84, 0
1, 23808, Note_on_c, 0, 83, 80
1, 23853, Note_on_c, 0, 83, 0
1, 23856, Note_on_c, 0, 81, 80
1, 23901, Note_on_c, 0, 81, 0
1, 23904, Note_on_c, 0, 79, 80
1, 23949, Note_on_c, 0, 79, 0
1, 23952, Note_on_c, 0, 78, 80
1, 23997, Note_on_c, 0, 78, 0
1, 24000, Note_on_c, 0, 77, 80
1, 24045, Note_on_c, 0, 77, 0
1, 24048, Note_on_c, 0, 76, 80
1, 24093, Note_on_c, 0, 76, 0
1, 24096, Note_on_c, 0, 75, 80
1, 24141, Note_on_c, 0, 75, 0
1, 24144, Note_on_c, 0, 74, 80
1, 24189, Note_on_c, 0, 74, 0
1, 24192, Note_on_c, 0, 74, 75
1, 24216, Note_on_c, 0, 74, 0
1, 24216, Note_on_c, 0, 72, 75
1, 24228, Note_on_c, 0, 72, 0
1, 24228, Note_on_c, 0, 74, 75
1, 24240, Note_on_c, 0, 74, 0
1, 24240, Note_on_c, 0, 72, 75
1, 24252, Note_on_c, 0, 72, 0
1, 24252, Note_on_c, 0, 74, 75
1, 24264, Note_on_c, 0, 74, 0
1, 24264, Note_on_c, 0, 72, 75
1, 24276, Note_on_c, 0, 72, 0
1, 24276, Note_on_c, 0, 74, 75
1, 24288, Note_on_c, 0, 74, 0
1, 24288, Note_on_c, 0, 72, 75
1, 24300, Note_on_c, 0, 72, 0
1, 24300, Note_on_c, 0, 74, 75
1, 24312, Note_on_c, 0, 74, 0
1, 24312, Note_on_c, 0, 72, 75
1, 24324, Note_on_c, 0, 72, 0
1, 24324, Note_on_c, 0, 74, 75
1, 24325, Note_on_c, 0, 74, 0
1, 24336, Note_on_c, 0, 71, 75
1, 24359, Note_on_c, 0, 71, 0
1, 24360, Note_on_c, 0, 72, 75
1, 24383, Note_on_c, 0, 72, 0
1, 24384, Note_on_c, 0, 81, 75
1, 24457, Note_on_c, 1, 57, 0
1, 24457, Note_on_c, 1, 54, 0
1, 24457, Note_on_c, 1, 50, 0
1, 24569, Note_on_c, 0, 81, 0
1, 24768, Note_on_c, 0, 59, 91
1, 24768, Note_on_c, 0, 55, 91
1, 24768, Note_on_c, 1, 50, 75
1, 24768, Note_on_c, 1, 38, 75
1, 24816, Note_on_c, 0, 59, 0
1, 24816, Note_on_c, 0, 55, 0
1, 24816, Note_on_c, 0, 62, 75
1, 24816, Note_on_c, 0, 59, 75
1, 24857, Note_on_c, 1, 50, 0
1, 24857, Note_on_c, 1, 38, 0
1, 24861, Note_on_c, 0, 62, 0
1, 24861, Note_on_c, 0, 59, 0
1, 24864, Note_on_c, 0, 62, 75
1, 24864, Note_on_c, 0, 59, 75
1, 24864, Note_on_c, 1, 50, 75
1, 24864, Note_on_c, 1, 38, 75
1, 24909, Note_on_c, 0, 62, 0
1, 24909, Note_on_c, 0, 59, 0
1, 24912, Note_on_c, 0, 67, 75
1, 24912, Note_on_c, 0, 62, 75
1, 24953, Note_on_c, 1, 50, 0
1, 24953, Note_on_c, 1, 38, 0
1, 24957, Note_on_c, 0, 67, 0
1, 24957, Note_on_c, 0, 62, 0
1, 24960, Note_on_c, 1, 50, 75
1, 24960, Note_on_c, 1, 38, 75
1, 25008, Note_on_c, 0, 67, 75
1, 25008, Note_on_c, 0, 62, 75
1, 25028, Note_on_c, 0, 67, 0
1, 25028, Note_on_c, 0, 62, 0
1, 25049, Note_on_c, 1, 50, 0
1, 25049, Note_on_c, 1, 38, 0
1, 25056, Note_on_c, 0, 66, 91
1, 25056, Note_on_c, 0, 62, 91
1, 25056, Note_on_c, 1, 50, 75
1, 25056, Note_on_c, 1, 38, 75
1, 25104, Note_on_c, 0, 66, 0
1, 25104, Note_on_c, 0, 62, 0
1, 25104, Note_on_c, 0, 76, 75
1, 25104, Note_on_c, 0, 72, 75
1, 25145, Note_on_c, 1, 50, 0
1, 25145, Note_on_c, 1, 38, 0
1, 25149, Note_on_c, 0, 76, 0
1, 25149, Note_on_c, 0, 72, 0
1, 25152, Note_on_c, 0, 74, 75
1, 25152, Note_on_c, 0, 71, 75
1, 25152, Note_on_c, 1, 50, 75
1, 25152, Note_on_c, 1, 38, 75
1, 25197, Note_on_c, 0, 74, 0
1, 25197, Note_on_c, 0, 71, 0
1, 25200, Note_on_c, 0, 72, 75
1, 25200, Note_on_c, 0, 69, 75
1, 25241, Note_on_c, 1, 50, 0
1, 25241, Note_on_c, 1, 38, 0
1, 25245, Note_on_c, 0, 72, 0
1, 25245, Note_on_c, 0, 69, 0
1, 25248, Note_on_c, 0, 71, 75
1, 25248, Note_on_c, 0, 67, 75
1, 25248, Note_on_c, 1, 50, 76
1, 25248, Note_on_c, 1, 38, 76
1, 25293, Note_on_c, 0, 71, 0
1, 25293, Note_on_c, 0, 67, 0
1, 25296, Note_on_c, 0, 69, 76
1, 25296, Note_on_c, 0, 66, 76
1, 25337, Note_on_c, 1, 50, 0
1, 25337, Note_on_c, 1, 38, 0
1, 25341, Note_on_c, 0, 69, 0
1, 25341, Note_on_c, 0, 66, 0
1, 25344, Note_on_c, 0, 71, 92
1, 25344, Note_on_c, 0, 67, 92
1, 25344, Note_on_c, 1, 50, 77
1, 25344, Note_on_c, 1, 38, 77
1, 25392, Note_on_c, 0, 71, 0
1, 25392, Note_on_c, 0, 67, 0
1, 25392, Note_on_c, 0, 81, 77
1, 25392, Note_on_c, 0, 78, 77
1, 25433, Note_on_c, 1, 50, 0
1, 25433, Note_on_c, 1, 38, 0
1, 25437, Note_on_c, 0, 81, 0
1, 25437, Note_on_c, 0, 78, 0
1, 25440, Note_on_c, 0, 81, 77
1, 25440, Note_on_c, 0, 78, 77
1, 25440, Note_on_c, 1, 50, 78
1, 25440, Note_on_c, 1, 38, 78
1, 25488, Note_on_c, 0, 81, 0
1, 25488, Note_on_c, 0, 78, 0
1, 25488, Note_on_c, 0, 79, 78
1, 25488, Note_on_c, 0, 76, 78
1, 25529, Note_on_c, 1, 50, 0
1, 25529, Note_on_c, 1, 38, 0
1, 25533, Note_on_c, 0, 79, 0
1, 25533, Note_on_c, 0, 76, 0
1, 25536, Note_on_c, 0, 79, 78
1, 25536, Note_on_c, 0, 76, 78
1, 25536, Note_on_c, 1, 50, 79
1, 25536, Note_on_c, 1, 38, 79
1, 25584, Note_on_c, 0, 79, 0
1, 25584, Note_on_c, 0, 76, 0
1, 25584, Note_on_c, 0, 78, 79
1, 25584, Note_on_c, 0, 74, 79
1, 25625, Note_on_c, 1, 50, 0
1, 25625, Note_on_c, 1, 38, 0
1, 25629, Note_on_c, 0, 78, 0
1, 25629, Note_on_c, 0, 74, 0
1, 25632, Note_on_c, 0, 81, 79
1, 25632, Note_on_c, 0, 76, 64
1, 25632, Note_on_c, 1, 49, 80
1, 25632, Note_on_c, 1, 37, 80
1, 25638, Note_on_c, 0, 81, 0
1, 25638, Note_on_c, 0, 79, 95
1, 25656, Note_on_c, 0, 79, 0
1, 25656, Note_on_c, 0, 78, 80
1, 25679, Note_on_c, 0, 78, 0
1, 25680, Note_on_c, 0, 79, 80
1, 25703, Note_on_c, 0, 79, 0
1, 25704, Note_on_c, 0, 81, 80
1, 25727, Note_on_c, 0, 81, 0
1, 25728, Note_on_c, 0, 82, 80
1, 25809, Note_on_c, 0, 76, 0
1, 25809, Note_on_c, 1, 49, 0
1, 25809, Note_on_c, 1, 37, 0
1, 25817, Note_on_c, 0, 82, 0
1, 25920, Note_on_c, 0, 71, 75
1, 25938, Note_on_c, 0, 71, 0
1, 25938, Note_on_c, 0, 74, 75
1, 26009, Note_on_c, 0, 74, 0
1, 26016, Note_on_c, 0, 71, 75
1, 26016, Note_on_c, 1, 62, 64
1, 26034, Note_on_c, 0, 71, 0
1, 26034, Note_on_c, 0, 67, 75
1, 26055, Note_on_c, 1, 62, 0
1, 26105, Note_on_c, 0, 67, 0
1, 26112, Note_on_c, 0, 69, 75
1, 26112, Note_on_c, 1, 62, 64
1, 26130, Note_on_c, 0, 69, 0
1, 26130, Note_on_c, 0, 66, 75
1, 26151, Note_on_c, 1, 62, 0
1, 26201, Note_on_c, 0, 66, 0
1, 26208, Note_on_c, 0, 67, 75
1, 26208, Note_on_c, 1, 59, 64
1, 26385, Note_on_c, 0, 67, 0
1, 26385, Note_on_c, 1, 59, 0
1, 26448, Note_on_c, 0, 60, 80
1, 26468, Note_on_c, 0, 60, 0
1, 26496, Note_on_c, 0, 60, 96
1, 26496, Note_on_c, 1, 54, 80
1, 26496, Note_on_c, 1, 50, 80
1, 26496, Note_on_c, 1, 45, 80
1, 26784, Note_on_c, 0, 60, 0
1, 26784, Note_on_c, 0, 59, 75
1, 26832, Note_on_c, 0, 59, 0
1, 26832, Note_on_c, 0, 60, 74
1, 26877, Note_on_c, 0, 60, 0
1, 26880, Note_on_c, 0, 59, 73
1, 26928, Note_on_c, 0, 59, 0
1, 26928, Note_on_c, 0, 60, 72
1, 26973, Note_on_c, 0, 60, 0
1, 26976, Note_on_c, 0, 62, 71
1, 27024, Note_on_c, 0, 62, 0
1, 27024, Note_on_c, 0, 60, 70
1, 27049, Note_on_c, 1, 54, 0
1, 27049, Note_on_c, 1, 50, 0
1, 27049, Note_on_c, 1, 45, 0
1, 27069, Note_on_c, 0, 60, 0
1, 27072, Note_on_c, 0, 59, 70
1, 27072, Note_on_c, 1, 55, 70
1, 27072, Note_on_c, 1, 50, 70
1, 27072, Note_on_c, 1, 43, 70
1, 27449, Note_on_c, 0, 59, 0
1, 27449, Note_on_c, 1, 55, 0
1, 27449, Note_on_c, 1, 50, 0
1, 27449, Note_on_c, 1, 43, 0
1, 27552, Note_on_c, 1, 50, 64
1, 27552, Note_on_c, 1, 47, 64
1, 27591, Note_on_c, 1, 50, 0
1, 27591, Note_on_c, 1, 47, 0
1, 27744, Note_on_c, 1, 47, 64
1, 27744, Note_on_c, 1, 43, 64
1, 27783, Note_on_c, 1, 47, 0
1, 27783, Note_on_c, 1, 43, 0
1, 27936, Note_on_c, 1, 43, 0
1, 28025, Note_on_c, 1, 43, 0
1, 28035, End_track
0, 0, End_of_file