0, 0, Header, 0, 1, 96
1, 0, Start_track
1, 0, Tempo, 100000
1, 336, Note_on_c, 0, 71, 75
1, 381, Note_on_c, 0, 71, 0
1, 384, Note_on_c, 0, 76, 91
1, 384, Note_on_c, 1, 52, 64
1, 407, Note_on_c, 1, 52, 0
1, 408, Note_on_c, 1, 59, 64
1, 431, Note_on_c, 1, 59, 0
1, 432, Note_on_c, 0, 76, 0
1, 432, Note_on_c, 0, 79, 75
1, 432, Note_on_c, 1, 55, 64
1, 455, Note_on_c, 1, 55, 0
1, 456, Note_on_c, 1, 59, 64
1, 477, Note_on_c, 0, 79, 0
1, 479, Note_on_c, 1, 59, 0
1, 480, Note_on_c, 0, 78, 75
1, 480, Note_on_c, 1, 52, 64
1, 503, Note_on_c, 1, 52, 0
1, 504, Note_on_c, 1, 59, 64
1, 525, Note_on_c, 0, 78, 0
1, 527, Note_on_c, 1, 59, 0
1, 528, Note_on_c, 0, 76, 75
1, 528, Note_on_c, 1, 55, 64
1, 551, Note_on_c, 1, 55, 0
1, 552, Note_on_c, 1, 59, 64
1, 573, Note_on_c, 0, 76, 0
1, 575, Note_on_c, 1, 59, 0
1, 576, Note_on_c, 0, 75, 75
1, 576, Note_on_c, 1, 47, 64
1, 599, Note_on_c, 1, 47, 0
1, 600, Note_on_c, 1, 59, 64
1, 621, Note_on_c, 0, 75, 0
1, 623, Note_on_c, 1, 59, 0
1, 624, Note_on_c, 0, 84, 75
1, 624, Note_on_c, 1, 54, 64
1, 647, Note_on_c, 1, 54, 0
1, 648, Note_on_c, 1, 59, 64
1, 669, Note_on_c, 0, 84, 0
1, 671, Note_on_c, 1, 59, 0
1, 672, Note_on_c, 0, 83, 75
1, 672, Note_on_c, 1, 47, 64
1, 695, Note_on_c, 1, 47, 0
1, 696, Note_on_c, 1, 59, 64
1, 717, Note_on_c, 0, 83, 0
1, 719, Note_on_c, 1, 59, 0
1, 720, Note_on_c, 0, 81, 75
1, 720, Note_on_c, 1, 54, 64
1, 743, Note_on_c, 1, 54, 0
1, 744, Note_on_c, 1, 59, 64
1, 765, Note_on_c, 0, 81, 0
1, 767, Note_on_c, 1, 59, 0
1, 768, Note_on_c, 0, 81, 91
1, 768, Note_on_c, 1, 52, 64
1, 791, Note_on_c, 1, 52, 0
1, 792, Note_on_c, 0, 81, 0
1, 792, Note_on_c, 0, 79, 75
1, 792, Note_on_c, 1, 59, 64
1, 815, Note_on_c, 0, 79, 0
1, 815, Note_on_c, 1, 59, 0
1, 816, Note_on_c, 0, 78, 75
1, 816, Note_on_c, 1, 55, 64
1, 839, Note_on_c, 0, 78, 0
1, 839, Note_on_c, 1, 55, 0
1, 840, Note_on_c, 0, 76, 75
1, 840, Note_on_c, 1, 59, 64
1, 863, Note_on_c, 0, 76, 0
1, 863, Note_on_c, 1, 59, 0
1, 864, Note_on_c, 0, 75, 75
1, 864, Note_on_c, 1, 54, 64
1, 884, Note_on_c, 0, 75, 0
1, 887, Note_on_c, 1, 54, 0
1, 888, Note_on_c, 1, 59, 64
1, 911, Note_on_c, 1, 59, 0
1, 912, Note_on_c, 0, 76, 75
1, 912, Note_on_c, 1, 55, 64
1, 932, Note_on_c, 0, 76, 0
1, 935, Note_on_c, 1, 55, 0
1, 936, Note_on_c, 1, 59, 64
1, 959, Note_on_c, 1, 59, 0
1, 960, Note_on_c, 0, 78, 75
1, 960, Note_on_c, 1, 47, 64
1, 983, Note_on_c, 0, 78, 0
1, 984, Note_on_c, 0, 76, 75
1, 1007, Note_on_c, 0, 76, 0
1, 1008, Note_on_c, 0, 75, 75
1, 1031, Note_on_c, 0, 75, 0
1, 1032, Note_on_c, 0, 73, 75
1, 1049, Note_on_c, 1, 47, 0
1, 1055, Note_on_c, 0, 73, 0
1, 1056, Note_on_c, 0, 71, 75
1, 1101, Note_on_c, 0, 71, 0
1, 1104, Note_on_c, 0, 79, 91
1, 1152, Note_on_c, 1, 49, 64
1, 1175, Note_on_c, 1, 49, 0
1, 1176, Note_on_c, 1, 57, 64
1, 1197, Note_on_c, 0, 79, 0
1, 1199, Note_on_c, 1, 57, 0
1, 1200, Note_on_c, 0, 69, 75
1, 1200, Note_on_c, 1, 52, 64
1, 1223, Note_on_c, 1, 52, 0
1, 1224, Note_on_c, 1, 57, 64
1, 1247, Note_on_c, 1, 57, 0
1, 1248, Note_on_c, 1, 50, 64
1, 1271, Note_on_c, 1, 50, 0
1, 1272, Note_on_c, 1, 57, 64
1, 1289, Note_on_c, 0, 69, 0
1, 1295, Note_on_c, 1, 57, 0
1, 1296, Note_on_c, 0, 77, 91
1, 1296, Note_on_c, 1, 53, 64
1, 1319, Note_on_c, 1, 53, 0
1, 1320, Note_on_c, 1, 57, 64
1, 1343, Note_on_c, 1, 57, 0
1, 1344, Note_on_c, 1, 47, 64
1, 1367, Note_on_c, 1, 47, 0
1, 1368, Note_on_c, 1, 55, 64
1, 1391, Note_on_c, 1, 55, 0
1, 1392, Note_on_c, 0, 77, 0
1, 1392, Note_on_c, 0, 67, 75
1, 1392, Note_on_c, 1, 50, 64
1, 1415, Note_on_c, 1, 50, 0
1, 1416, Note_on_c, 1, 55, 64
1, 1439, Note_on_c, 1, 55, 0
1, 1440, Note_on_c, 1, 48, 64
1, 1463, Note_on_c, 1, 48, 0
1, 1464, Note_on_c, 1, 55, 64
1, 1481, Note_on_c, 0, 67, 0
1, 1487, Note_on_c, 1, 55, 0
1, 1488, Note_on_c, 0, 76, 91
1, 1488, Note_on_c, 1, 52, 64
1, 1511, Note_on_c, 1, 52, 0
1, 1512, Note_on_c, 1, 55, 64
1, 1535, Note_on_c, 1, 55, 0
1, 1536, Note_on_c, 0, 76, 0
1, 1536, Note_on_c, 0, 75, 75
1, 1536, Note_on_c, 1, 47, 64
1, 1559, Note_on_c, 1, 47, 0
1, 1560, Note_on_c, 0, 75, 0
1, 1560, Note_on_c, 0, 76, 75
1, 1560, Note_on_c, 1, 54, 64
1, 1583, Note_on_c, 0, 76, 0
1, 1583, Note_on_c, 1, 54, 0
1, 1584, Note_on_c, 0, 75, 75
1, 1584, Note_on_c, 1, 51, 64
1, 1607, Note_on_c, 1, 51, 0
1, 1608, Note_on_c, 0, 75, 0
1, 1608, Note_on_c, 0, 76, 75
1, 1608, Note_on_c, 1, 54, 64
1, 1631, Note_on_c, 0, 76, 0
1, 1631, Note_on_c, 1, 54, 0
1, 1632, Note_on_c, 0, 81, 75
1, 1632, Note_on_c, 0, 78, 75
1, 1632, Note_on_c, 1, 47, 64
1, 1652, Note_on_c, 0, 81, 0
1, 1652, Note_on_c, 0, 78, 0
1, 1655, Note_on_c, 1, 47, 0
1, 1656, Note_on_c, 1, 55, 64
1, 1679, Note_on_c, 1, 55, 0
1, 1680, Note_on_c, 0, 79, 75
1, 1680, Note_on_c, 0, 76, 75
1, 1680, Note_on_c, 1, 52, 64
1, 1700, Note_on_c, 0, 79, 0
1, 1700, Note_on_c, 0, 76, 0
1, 1703, Note_on_c, 1, 52, 0
1, 1704, Note_on_c, 1, 55, 64
1, 1727, Note_on_c, 1, 55, 0
1, 1728, Note_on_c, 0, 79, 91
1, 1728, Note_on_c, 0, 76, 91
1, 1728, Note_on_c, 1, 47, 64
1, 1751, Note_on_c, 1, 47, 0
1, 1752, Note_on_c, 1, 58, 64
1, 1775, Note_on_c, 1, 58, 0
1, 1776, Note_on_c, 1, 59, 64
1, 1799, Note_on_c, 1, 59, 0
1, 1800, Note_on_c, 1, 58, 64
1, 1823, Note_on_c, 1, 58, 0
1, 1824, Note_on_c, 0, 79, 0
1, 1824, Note_on_c, 0, 76, 0
1, 1824, Note_on_c, 0, 78, 75
1, 1824, Note_on_c, 0, 75, 75
1, 1824, Note_on_c, 1, 59, 64
1, 1844, Note_on_c, 0, 78, 0
1, 1844, Note_on_c, 0, 75, 0
1, 1847, Note_on_c, 1, 59, 0
1, 1848, Note_on_c, 1, 57, 64
1, 1871, Note_on_c, 1, 57, 0
1, 1872, Note_on_c, 0, 71, 75
1, 1872, Note_on_c, 1, 55, 64
1, 1895, Note_on_c, 1, 55, 0
1, 1896, Note_on_c, 1, 54, 64
1, 1917, Note_on_c, 0, 71, 0
1, 1919, Note_on_c, 1, 54, 0
1, 1920, Note_on_c, 0, 76, 91
1, 1920, Note_on_c, 1, 52, 64
1, 1943, Note_on_c, 1, 52, 0
1, 1944, Note_on_c, 1, 59, 64
1, 1967, Note_on_c, 1, 59, 0
1, 1968, Note_on_c, 0, 76, 0
1, 1968, Note_on_c, 0, 79, 75
1, 1968, Note_on_c, 1, 55, 64
1, 1991, Note_on_c, 1, 55, 0
1, 1992, Note_on_c, 1, 59, 64
1, 2013, Note_on_c, 0, 79, 0
1, 2015, Note_on_c, 1, 59, 0
1, 2016, Note_on_c, 0, 78, 75
1, 2016, Note_on_c, 1, 52, 64
1, 2039, Note_on_c, 1, 52, 0
1, 2040, Note_on_c, 1, 59, 64
1, 2061, Note_on_c, 0, 78, 0
1, 2063, Note_on_c, 1, 59, 0
1, 2064, Note_on_c, 0, 76, 75
1, 2064, Note_on_c, 1, 55, 64
1, 2087, Note_on_c, 1, 55, 0
1, 2088, Note_on_c, 1, 59, 64
1, 2109, Note_on_c, 0, 76, 0
1, 2111, Note_on_c, 1, 59, 0
1, 2112, Note_on_c, 0, 75, 75
1, 2112, Note_on_c, 1, 47, 64
1, 2135, Note_on_c, 1, 47, 0
1, 2136, Note_on_c, 1, 59, 64
1, 2157, Note_on_c, 0, 75, 0
1, 2159, Note_on_c, 1, 59, 0
1, 2160, Note_on_c, 0, 84, 75
1, 2160, Note_on_c, 1, 54, 64
1, 2183, Note_on_c, 1, 54, 0
1, 2184, Note_on_c, 1, 59, 64
1, 2205, Note_on_c, 0, 84, 0
1, 2207, Note_on_c, 1, 59, 0
1, 2208, Note_on_c, 0, 83, 75
1, 2208, Note_on_c, 1, 47, 64
1, 2231, Note_on_c, 1, 47, 0
1, 2232, Note_on_c, 1, 59, 64
1, 2253, Note_on_c, 0, 83, 0
1, 2255, Note_on_c, 1, 59, 0
1, 2256, Note_on_c, 0, 79, 75
1, 2256, Note_on_c, 1, 55, 64
1, 2279, Note_on_c, 1, 55, 0
1, 2280, Note_on_c, 1, 59, 64
1, 2301, Note_on_c, 0, 79, 0
1, 2303, Note_on_c, 1, 59, 0
1, 2304, Note_on_c, 0, 81, 75
1, 2304, Note_on_c, 0, 72, 75
1, 2304, Note_on_c, 1, 48, 64
1, 2327, Note_on_c, 1, 48, 0
1, 2328, Note_on_c, 1, 57, 64
1, 2343, Note_on_c, 0, 81, 0
1, 2343, Note_on_c, 0, 72, 0
1, 2351, Note_on_c, 1, 57, 0
1, 2352, Note_on_c, 1, 52, 65
1, 2375, Note_on_c, 1, 52, 0
1, 2376, Note_on_c, 1, 57, 66
1, 2399, Note_on_c, 1, 57, 0
1, 2400, Note_on_c, 0, 78, 77
1, 2400, Note_on_c, 0, 72, 77
1, 2400, Note_on_c, 1, 50, 67
1, 2423, Note_on_c, 1, 50, 0
1, 2424, Note_on_c, 1, 60, 67
1, 2439, Note_on_c, 0, 78, 0
1, 2439, Note_on_c, 0, 72, 0
1, 2447, Note_on_c, 1, 60, 0
1, 2448, Note_on_c, 1, 54, 68
1, 2471, Note_on_c, 1, 54, 0
1, 2472, Note_on_c, 1, 60, 69
1, 2495, Note_on_c, 1, 60, 0
1, 2496, Note_on_c, 0, 79, 80
1, 2496, Note_on_c, 0, 71, 80
1, 2496, Note_on_c, 1, 55, 70
1, 2519, Note_on_c, 1, 55, 0
1, 2520, Note_on_c, 1, 43, 70
1, 2543, Note_on_c, 1, 43, 0
1, 2544, Note_on_c, 1, 47, 70
1, 2567, Note_on_c, 1, 47, 0
1, 2568, Note_on_c, 1, 50, 70
1, 2585, Note_on_c, 0, 79, 0
1, 2585, Note_on_c, 0, 71, 0
1, 2591, Note_on_c, 1, 50, 0
1, 2592, Note_on_c, 1, 55, 70
1, 2637, Note_on_c, 1, 55, 0
1, 2640, Note_on_c, 0, 71, 75
1, 2685, Note_on_c, 0, 71, 0
1, 2688, Note_on_c, 0, 76, 91
1, 2688, Note_on_c, 1, 52, 64
1, 2711, Note_on_c, 1, 52, 0
1, 2712, Note_on_c, 1, 59, 64
1, 2735, Note_on_c, 1, 59, 0
1, 2736, Note_on_c, 0, 76, 0
1, 2736, Note_on_c, 0, 79, 75
1, 2736, Note_on_c, 1, 55, 64
1, 2759, Note_on_c, 1, 55, 0
1, 2760, Note_on_c, 1, 59, 64
1, 2781, Note_on_c, 0, 79, 0
1, 2783, Note_on_c, 1, 59, 0
1, 2784, Note_on_c, 0, 78, 75
1, 2784, Note_on_c, 1, 52, 64
1, 2807, Note_on_c, 1, 52, 0
1, 2808, Note_on_c, 1, 59, 64
1, 2829, Note_on_c, 0, 78, 0
1, 2831, Note_on_c, 1, 59, 0
1, 2832, Note_on_c, 0, 76, 75
1, 2832, Note_on_c, 1, 55, 64
1, 2855, Note_on_c, 1, 55, 0
1, 2856, Note_on_c, 1, 59, 64
1, 2877, Note_on_c, 0, 76, 0
1, 2879, Note_on_c, 1, 59, 0
1, 2880, Note_on_c, 0, 75, 75
1, 2880, Note_on_c, 1, 47, 64
1, 2903, Note_on_c, 1, 47, 0
1, 2904, Note_on_c, 1, 59, 64
1, 2925, Note_on_c, 0, 75, 0
1, 2927, Note_on_c, 1, 59, 0
1, 2928, Note_on_c, 0, 84, 75
1, 2928, Note_on_c, 1, 54, 64
1, 2951, Note_on_c, 1, 54, 0
1, 2952, Note_on_c, 1, 59, 64
1, 2973, Note_on_c, 0, 84, 0
1, 2975, Note_on_c, 1, 59, 0
1, 2976, Note_on_c, 0, 83, 75
1, 2976, Note_on_c, 1, 47, 64
1, 2999, Note_on_c, 1, 47, 0
1, 3000, Note_on_c, 1, 59, 64
1, 3021, Note_on_c, 0, 83, 0
1, 3023, Note_on_c, 1, 59, 0
1, 3024, Note_on_c, 0, 81, 75
1, 3024, Note_on_c, 1, 54, 64
1, 3047, Note_on_c, 1, 54, 0
1, 3048, Note_on_c, 1, 59, 64
1, 3069, Note_on_c, 0, 81, 0
1, 3071, Note_on_c, 1, 59, 0
1, 3072, Note_on_c, 0, 81, 91
1, 3072, Note_on_c, 1, 52, 64
1, 3095, Note_on_c, 1, 52, 0
1, 3096, Note_on_c, 0, 81, 0
1, 3096, Note_on_c, 0, 79, 75
1, 3096, Note_on_c, 1, 59, 64
1, 3119, Note_on_c, 0, 79, 0
1, 3119, Note_on_c, 1, 59, 0
1, 3120, Note_on_c, 0, 78, 75
1, 3120, Note_on_c, 1, 55, 64
1, 3143, Note_on_c, 0, 78, 0
1, 3143, Note_on_c, 1, 55, 0
1, 3144, Note_on_c, 0, 76, 75
1, 3144, Note_on_c, 1, 59, 64
1, 3167, Note_on_c, 0, 76, 0
1, 3167, Note_on_c, 1, 59, 0
1, 3168, Note_on_c, 0, 75, 75
1, 3168, Note_on_c, 1, 54, 64
1, 3188, Note_on_c, 0, 75, 0
1, 3191, Note_on_c, 1, 54, 0
1, 3192, Note_on_c, 1, 59, 64
1, 3215, Note_on_c, 1, 59, 0
1, 3216, Note_on_c, 0, 76, 75
1, 3216, Note_on_c, 1, 55, 64
1, 3236, Note_on_c, 0, 76, 0
1, 3239, Note_on_c, 1, 55, 0
1, 3240, Note_on_c, 1, 59, 64
1, 3263, Note_on_c, 1, 59, 0
1, 3264, Note_on_c, 0, 78, 75
1, 3264, Note_on_c, 1, 47, 64
1, 3287, Note_on_c, 0, 78, 0
1, 3288, Note_on_c, 0, 76, 75
1, 3311, Note_on_c, 0, 76, 0
1, 3312, Note_on_c, 0, 75, 75
1, 3335, Note_on_c, 0, 75, 0
1, 3336, Note_on_c, 0, 73, 75
1, 3353, Note_on_c, 1, 47, 0
1, 3359, Note_on_c, 0, 73, 0
1, 3360, Note_on_c, 0, 71, 75
1, 3405, Note_on_c, 0, 71, 0
1, 3408, Note_on_c, 0, 79, 91
1, 3456, Note_on_c, 1, 49, 64
1, 3479, Note_on_c, 1, 49, 0
1, 3480, Note_on_c, 1, 57, 64
1, 3501, Note_on_c, 0, 79, 0
1, 3503, Note_on_c, 1, 57, 0
1, 3504, Note_on_c, 0, 69, 75
1, 3504, Note_on_c, 1, 52, 64
1, 3527, Note_on_c, 1, 52, 0
1, 3528, Note_on_c, 1, 57, 64
1, 3551, Note_on_c, 1, 57, 0
1, 3552, Note_on_c, 1, 50, 64
1, 3575, Note_on_c, 1, 50, 0
1, 3576, Note_on_c, 1, 57, 64
1, 3593, Note_on_c, 0, 69, 0
1, 3599, Note_on_c, 1, 57, 0
1, 3600, Note_on_c, 0, 77, 91
1, 3600, Note_on_c, 1, 53, 64
1, 3623, Note_on_c, 1, 53, 0
1, 3624, Note_on_c, 1, 57, 64
1, 3647, Note_on_c, 1, 57, 0
1, 3648, Note_on_c, 1, 47, 64
1, 3671, Note_on_c, 1, 47, 0
1, 3672, Note_on_c, 1, 55, 64
1, 3695, Note_on_c, 1, 55, 0
1, 3696, Note_on_c, 0, 77, 0
1, 3696, Note_on_c, 0, 67, 75
1, 3696, Note_on_c, 1, 50, 64
1, 3719, Note_on_c, 1, 50, 0
1, 3720, Note_on_c, 1, 55, 64
1, 3743, Note_on_c, 1, 55, 0
1, 3744, Note_on_c, 1, 48, 64
1, 3767, Note_on_c, 1, 48, 0
1, 3768, Note_on_c, 1, 55, 64
1, 3785, Note_on_c, 0, 67, 0
1, 3791, Note_on_c, 1, 55, 0
1, 3792, Note_on_c, 0, 76, 91
1, 3792, Note_on_c, 1, 52, 64
1, 3815, Note_on_c, 1, 52, 0
1, 3816, Note_on_c, 1, 55, 64
1, 3839, Note_on_c, 1, 55, 0
1, 3840, Note_on_c, 0, 76, 0
1, 3840, Note_on_c, 0, 75, 75
1, 3840, Note_on_c, 1, 47, 64
1, 3863, Note_on_c, 1, 47, 0
1, 3864, Note_on_c, 0, 75, 0
1, 3864, Note_on_c, 0, 76, 75
1, 3864, Note_on_c, 1, 54, 64
1, 3887, Note_on_c, 0, 76, 0
1, 3887, Note_on_c, 1, 54, 0
1, 3888, Note_on_c, 0, 75, 75
1, 3888, Note_on_c, 1, 51, 64
1, 3911, Note_on_c, 1, 51, 0
1, 3912, Note_on_c, 0, 75, 0
1, 3912, Note_on_c, 0, 76, 75
1, 3912, Note_on_c, 1, 54, 64
1, 3935, Note_on_c, 0, 76, 0
1, 3935, Note_on_c, 1, 54, 0
1, 3936, Note_on_c, 0, 81, 75
1, 3936, Note_on_c, 0, 78, 75
1, 3936, Note_on_c, 1, 47, 64
1, 3956, Note_on_c, 0, 81, 0
1, 3956, Note_on_c, 0, 78, 0
1, 3959, Note_on_c, 1, 47, 0
1, 3960, Note_on_c, 1, 55, 64
1, 3983, Note_on_c, 1, 55, 0
1, 3984, Note_on_c, 0, 79, 75
1, 3984, Note_on_c, 0, 76, 75
1, 3984, Note_on_c, 1, 52, 64
1, 4004, Note_on_c, 0, 79, 0
1, 4004, Note_on_c, 0, 76, 0
1, 4007, Note_on_c, 1, 52, 0
1, 4008, Note_on_c, 1, 55, 64
1, 4031, Note_on_c, 1, 55, 0
1, 4032, Note_on_c, 0, 79, 91
1, 4032, Note_on_c, 0, 76, 91
1, 4032, Note_on_c, 1, 47, 64
1, 4055, Note_on_c, 1, 47, 0
1, 4056, Note_on_c, 1, 58, 64
1, 4079, Note_on_c, 1, 58, 0
1, 4080, Note_on_c, 1, 59, 64
1, 4103, Note_on_c, 1, 59, 0
1, 4104, Note_on_c, 1, 58, 64
1, 4127, Note_on_c, 1, 58, 0
1, 4128, Note_on_c, 0, 79, 0
1, 4128, Note_on_c, 0, 76, 0
1, 4128, Note_on_c, 0, 78, 75
1, 4128, Note_on_c, 0, 75, 75
1, 4128, Note_on_c, 1, 59, 64
1, 4148, Note_on_c, 0, 78, 0
1, 4148, Note_on_c, 0, 75, 0
1, 4151, Note_on_c, 1, 59, 0
1, 4152, Note_on_c, 1, 57, 64
1, 4175, Note_on_c, 1, 57, 0
1, 4176, Note_on_c, 0, 71, 75
1, 4176, Note_on_c, 1, 55, 64
1, 4199, Note_on_c, 1, 55, 0
1, 4200, Note_on_c, 1, 54, 64
1, 4221, Note_on_c, 0, 71, 0
1, 4223, Note_on_c, 1, 54, 0
1, 4224, Note_on_c, 0, 76, 91
1, 4224, Note_on_c, 1, 52, 64
1, 4247, Note_on_c, 1, 52, 0
1, 4248, Note_on_c, 1, 59, 64
1, 4271, Note_on_c, 1, 59, 0
1, 4272, Note_on_c, 0, 76, 0
1, 4272, Note_on_c, 0, 79, 75
1, 4272, Note_on_c, 1, 55, 64
1, 4295, Note_on_c, 1, 55, 0
1, 4296, Note_on_c, 1, 59, 64
1, 4317, Note_on_c, 0, 79, 0
1, 4319, Note_on_c, 1, 59, 0
1, 4320, Note_on_c, 0, 78, 75
1, 4320, Note_on_c, 1, 52, 64
1, 4343, Note_on_c, 1, 52, 0
1, 4344, Note_on_c, 1, 59, 64
1, 4365, Note_on_c, 0, 78, 0
1, 4367, Note_on_c, 1, 59, 0
1, 4368, Note_on_c, 0, 76, 75
1, 4368, Note_on_c, 1, 55, 64
1, 4391, Note_on_c, 1, 55, 0
1, 4392, Note_on_c, 1, 59, 64
1, 4413, Note_on_c, 0, 76, 0
1, 4415, Note_on_c, 1, 59, 0
1, 4416, Note_on_c, 0, 75, 75
1, 4416, Note_on_c, 1, 47, 64
1, 4439, Note_on_c, 1, 47, 0
1, 4440, Note_on_c, 1, 59, 64
1, 4461, Note_on_c, 0, 75, 0
1, 4463, Note_on_c, 1, 59, 0
1, 4464, Note_on_c, 0, 84, 75
1, 4464, Note_on_c, 1, 54, 64
1, 4487, Note_on_c, 1, 54, 0
1, 4488, Note_on_c, 1, 59, 64
1, 4509, Note_on_c, 0, 84, 0
1, 4511, Note_on_c, 1, 59, 0
1, 4512, Note_on_c, 0, 83, 75
1, 4512, Note_on_c, 1, 47, 64
1, 4535, Note_on_c, 1, 47, 0
1, 4536, Note_on_c, 1, 59, 64
1, 4557, Note_on_c, 0, 83, 0
1, 4559, Note_on_c, 1, 59, 0
1, 4560, Note_on_c, 0, 79, 75
1, 4560, Note_on_c, 1, 55, 64
1, 4583, Note_on_c, 1, 55, 0
1, 4584, Note_on_c, 1, 59, 64
1, 4605, Note_on_c, 0, 79, 0
1, 4607, Note_on_c, 1, 59, 0
1, 4608, Note_on_c, 0, 81, 75
1, 4608, Note_on_c, 0, 72, 75
1, 4608, Note_on_c, 1, 48, 64
1, 4631, Note_on_c, 1, 48, 0
1, 4632, Note_on_c, 1, 57, 64
1, 4647, Note_on_c, 0, 81, 0
1, 4647, Note_on_c, 0, 72, 0
1, 4655, Note_on_c, 1, 57, 0
1, 4656, Note_on_c, 1, 52, 65
1, 4679, Note_on_c, 1, 52, 0
1, 4680, Note_on_c, 1, 57, 66
1, 4703, Note_on_c, 1, 57, 0
1, 4704, Note_on_c, 0, 78, 77
1, 4704, Note_on_c, 0, 72, 77
1, 4704, Note_on_c, 1, 50, 67
1, 4727, Note_on_c, 1, 50, 0
1, 4728, Note_on_c, 1, 60, 67
1, 4743, Note_on_c, 0, 78, 0
1, 4743, Note_on_c, 0, 72, 0
1, 4751, Note_on_c, 1, 60, 0
1, 4752, Note_on_c, 1, 54, 68
1, 4775, Note_on_c, 1, 54, 0
1, 4776, Note_on_c, 1, 60, 69
1, 4799, Note_on_c, 1, 60, 0
1, 4800, Note_on_c, 0, 79, 80
1, 4800, Note_on_c, 0, 71, 80
1, 4800, Note_on_c, 1, 55, 70
1, 4823, Note_on_c, 1, 55, 0
1, 4824, Note_on_c, 1, 43, 70
1, 4847, Note_on_c, 1, 43, 0
1, 4848, Note_on_c, 1, 47, 70
1, 4871, Note_on_c, 1, 47, 0
1, 4872, Note_on_c, 1, 50, 70
1, 4889, Note_on_c, 0, 79, 0
1, 4889, Note_on_c, 0, 71, 0
1, 4895, Note_on_c, 1, 50, 0
1, 4896, Note_on_c, 1, 55, 70
1, 4941, Note_on_c, 1, 55, 0
1, 4944, Note_on_c, 0, 74, 80
1, 4989, Note_on_c, 0, 74, 0
1, 4992, Note_on_c, 0, 64, 80
1, 4992, Note_on_c, 1, 44, 80
1, 5004, Note_on_c, 1, 47, 80
1, 5015, Note_on_c, 0, 64, 0
1, 5016, Note_on_c, 0, 68, 80
1, 5016, Note_on_c, 1, 50, 80
1, 5028, Note_on_c, 1, 52, 80
1, 5039, Note_on_c, 0, 68, 0
1, 5040, Note_on_c, 0, 71, 80
1, 5063, Note_on_c, 0, 71, 0
1, 5064, Note_on_c, 0, 74, 80
1, 5081, Note_on_c, 1, 52, 0
1, 5081, Note_on_c, 1, 50, 0
1, 5081, Note_on_c, 1, 47, 0
1, 5081, Note_on_c, 1, 44, 0
1, 5087, Note_on_c, 0, 74, 0
1, 5088, Note_on_c, 0, 64, 80
1, 5088, Note_on_c, 1, 44, 80
1, 5100, Note_on_c, 1, 47, 80
1, 5111, Note_on_c, 0, 64, 0
1, 5112, Note_on_c, 0, 68, 80
1, 5112, Note_on_c, 1, 50, 80
1, 5124, Note_on_c, 1, 52, 80
1, 5135, Note_on_c, 0, 68, 0
1, 5136, Note_on_c, 0, 71, 80
1, 5159, Note_on_c, 0, 71, 0
1, 5160, Note_on_c, 0, 74, 80
1, 5177, Note_on_c, 1, 52, 0
1, 5177, Note_on_c, 1, 50, 0
1, 5177, Note_on_c, 1, 47, 0
1, 5177, Note_on_c, 1, 44, 0
1, 5183, Note_on_c, 0, 74, 0
1, 5184, Note_on_c, 0, 72, 80
1, 5184, Note_on_c, 0, 71, 80
1, 5184, Note_on_c, 1, 45, 80
1, 5207, Note_on_c, 1, 45, 0
1, 5208, Note_on_c, 1, 52, 80
1, 5231, Note_on_c, 1, 52, 0
1, 5232, Note_on_c, 0, 72, 0
1, 5232, Note_on_c, 0, 71, 0
1, 5232, Note_on_c, 0, 69, 80
1, 5232, Note_on_c, 0, 64, 80
1, 5232, Note_on_c, 1, 48, 80
1, 5255, Note_on_c, 1, 48, 0
1, 5256, Note_on_c, 1, 52, 80
1, 5277, Note_on_c, 0, 69, 0
1, 5277, Note_on_c, 0, 64, 0
1, 5279, Note_on_c, 1, 52, 0
1, 5280, Note_on_c, 1, 45, 80
1, 5303, Note_on_c, 1, 45, 0
1, 5304, Note_on_c, 1, 52, 80
1, 5327, Note_on_c, 1, 52, 0
1, 5328, Note_on_c, 0, 72, 80
1, 5328, Note_on_c, 1, 48, 80
1, 5351, Note_on_c, 1, 48, 0
1, 5352, Note_on_c, 1, 52, 80
1, 5373, Note_on_c, 0, 72, 0
1, 5375, Note_on_c, 1, 52, 0
1, 5376, Note_on_c, 0, 62, 80
1, 5376, Note_on_c, 1, 42, 80
1, 5388, Note_on_c, 1, 45, 80
1, 5399, Note_on_c, 0, 62, 0
1, 5400, Note_on_c, 0, 66, 80
1, 5400, Note_on_c, 1, 48, 80
1, 5412, Note_on_c, 1, 50, 80
1, 5423, Note_on_c, 0, 66, 0
1, 5424, Note_on_c, 0, 69, 80
1, 5447, Note_on_c, 0, 69, 0
1, 5448, Note_on_c, 0, 72, 80
1, 5465, Note_on_c, 1, 50, 0
1, 5465, Note_on_c, 1, 48, 0
1, 5465, Note_on_c, 1, 45, 0
1, 5465, Note_on_c, 1, 42, 0
1, 5471, Note_on_c, 0, 72, 0
1, 5472, Note_on_c, 0, 62, 80
1, 5472, Note_on_c, 1, 42, 80
1, 5484, Note_on_c, 1, 45, 80
1, 5495, Note_on_c, 0, 62, 0
1, 5496, Note_on_c, 0, 66, 80
1, 5496, Note_on_c, 1, 48, 80
1, 5508, Note_on_c, 1, 50, 80
1, 5519, Note_on_c, 0, 66, 0
1, 5520, Note_on_c, 0, 69, 80
1, 5543, Note_on_c, 0, 69, 0
1, 5544, Note_on_c, 0, 72, 80
1, 5561, Note_on_c, 1, 50, 0
1, 5561, Note_on_c, 1, 48, 0
1, 5561, Note_on_c, 1, 45, 0
1, 5561, Note_on_c, 1, 42, 0
1, 5567, Note_on_c, 0, 72, 0
1, 5568, Note_on_c, 0, 71, 80
1, 5568, Note_on_c, 0, 67, 80
1, 5568, Note_on_c, 1, 43, 80
1, 5591, Note_on_c, 1, 43, 0
1, 5592, Note_on_c, 1, 50, 80
1, 5613, Note_on_c, 0, 71, 0
1, 5613, Note_on_c, 0, 67, 0
1, 5615, Note_on_c, 1, 50, 0
1, 5616, Note_on_c, 0, 67, 80
1, 5616, Note_on_c, 0, 62, 80
1, 5616, Note_on_c, 1, 47, 80
1, 5639, Note_on_c, 1, 47, 0
1, 5640, Note_on_c, 1, 50, 80
1, 5661, Note_on_c, 0, 67, 0
1, 5661, Note_on_c, 0, 62, 0
1, 5663, Note_on_c, 1, 50, 0
1, 5664, Note_on_c, 1, 43, 80
1, 5687, Note_on_c, 1, 43, 0
1, 5688, Note_on_c, 1, 50, 80
1, 5711, Note_on_c, 1, 50, 0
1, 5712, Note_on_c, 0, 79, 80
1, 5712, Note_on_c, 1, 47, 80
1, 5735, Note_on_c, 1, 47, 0
1, 5736, Note_on_c, 1, 50, 80
1, 5757, Note_on_c, 0, 79, 0
1, 5759, Note_on_c, 1, 50, 0
1, 5760, Note_on_c, 0, 77, 80
1, 5760, Note_on_c, 1, 45, 80
1, 5783, Note_on_c, 0, 77, 0
1, 5783, Note_on_c, 1, 45, 0
1, 5784, Note_on_c, 0, 81, 80
1, 5784, Note_on_c, 1, 53, 80
1, 5807, Note_on_c, 0, 81, 0
1, 5807, Note_on_c, 1, 53, 0
1, 5808, Note_on_c, 0, 84, 80
1, 5808, Note_on_c, 1, 48, 80
1, 5831, Note_on_c, 0, 84, 0
1, 5831, Note_on_c, 1, 48, 0
1, 5832, Note_on_c, 0, 89, 80
1, 5832, Note_on_c, 1, 53, 80
1, 5855, Note_on_c, 0, 89, 0
1, 5855, Note_on_c, 1, 53, 0
1, 5856, Note_on_c, 0, 77, 80
1, 5856, Note_on_c, 1, 45, 80
1, 5879, Note_on_c, 0, 77, 0
1, 5879, Note_on_c, 1, 45, 0
1, 5880, Note_on_c, 0, 81, 80
1, 5880, Note_on_c, 1, 53, 80
1, 5903, Note_on_c, 0, 81, 0
1, 5903, Note_on_c, 1, 53, 0
1, 5904, Note_on_c, 0, 84, 80
1, 5904, Note_on_c, 1, 48, 80
1, 5927, Note_on_c, 0, 84, 0
1, 5927, Note_on_c, 1, 48, 0
1, 5928, Note_on_c, 0, 89, 80
1, 5928, Note_on_c, 1, 53, 80
1, 5951, Note_on_c, 0, 89, 0
1, 5951, Note_on_c, 1, 53, 0
1, 5952, Note_on_c, 0, 87, 80
1, 5952, Note_on_c, 0, 75, 80
1, 5952, Note_on_c, 1, 63, 80
1, 5952, Note_on_c, 1, 51, 80
1, 5972, Note_on_c, 0, 87, 0
1, 5972, Note_on_c, 0, 75, 0
1, 5972, Note_on_c, 1, 63, 0
1, 5972, Note_on_c, 1, 51, 0
1, 6000, Note_on_c, 0, 88, 80
1, 6000, Note_on_c, 0, 76, 80
1, 6000, Note_on_c, 1, 64, 80
1, 6000, Note_on_c, 1, 52, 80
1, 6020, Note_on_c, 0, 88, 0
1, 6020, Note_on_c, 0, 76, 0
1, 6020, Note_on_c, 1, 64, 0
1, 6020, Note_on_c, 1, 52, 0
1, 6096, Note_on_c, 0, 83, 80
1, 6096, Note_on_c, 1, 59, 80
1, 6096, Note_on_c, 1, 47, 80
1, 6108, Note_on_c, 0, 83, 0
1, 6108, Note_on_c, 0, 84, 80
1, 6120, Note_on_c, 0, 84, 0
1, 6120, Note_on_c, 0, 83, 80
1, 6141, Note_on_c, 1, 59, 0
1, 6141, Note_on_c, 1, 47, 0
1, 6144, Note_on_c, 0, 83, 0
1, 6144, Note_on_c, 0, 84, 80
1, 6144, Note_on_c, 1, 60, 80
1, 6144, Note_on_c, 1, 48, 80
1, 6164, Note_on_c, 0, 84, 0
1, 6164, Note_on_c, 1, 60, 0
1, 6164, Note_on_c, 1, 48, 0
1, 6192, Note_on_c, 0, 82, 80
1, 6192, Note_on_c, 1, 58, 80
1, 6192, Note_on_c, 1, 46, 80
1, 6204, Note_on_c, 0, 82, 0
1, 6204, Note_on_c, 0, 83, 80
1, 6216, Note_on_c, 0, 83, 0
1, 6216, Note_on_c, 0, 82, 80
1, 6240, Note_on_c, 0, 82, 0
1, 6240, Note_on_c, 0, 83, 80
1, 6240, Note_on_c, 1, 58, 0
1, 6240, Note_on_c, 1, 46, 0
1, 6240, Note_on_c, 1, 59, 80
1, 6240, Note_on_c, 1, 47, 80
1, 6260, Note_on_c, 0, 83, 0
1, 6260, Note_on_c, 1, 59, 0
1, 6260, Note_on_c, 1, 47, 0
1, 6288, Note_on_c, 0, 83, 80
1, 6288, Note_on_c, 1, 59, 80
1, 6288, Note_on_c, 1, 47, 80
1, 6333, Note_on_c, 1, 59, 0
1, 6333, Note_on_c, 1, 47, 0
1, 6336, Note_on_c, 0, 83, 0
1, 6336, Note_on_c, 0, 76, 80
1, 6336, Note_on_c, 0, 64, 80
1, 6336, Note_on_c, 1, 40, 80
1, 6356, Note_on_c, 0, 76, 0
1, 6356, Note_on_c, 0, 64, 0
1, 6359, Note_on_c, 1, 40, 0
1, 6360, Note_on_c, 1, 43, 80
1, 6383, Note_on_c, 1, 43, 0
1, 6384, Note_on_c, 1, 47, 80
1, 6407, Note_on_c, 1, 47, 0
1, 6408, Note_on_c, 1, 52, 80
1, 6431, Note_on_c, 1, 52, 0
1, 6432, Note_on_c, 1, 40, 80
1, 6477, Note_on_c, 1, 40, 0
1, 6480, Note_on_c, 0, 71, 75
1, 6480, Note_on_c, 0, 68, 75
1, 6504, Note_on_c, 0, 71, 0
1, 6504, Note_on_c, 0, 68, 0
1, 6504, Note_on_c, 0, 72, 75
1, 6504, Note_on_c, 0, 69, 75
1, 6527, Note_on_c, 0, 72, 0
1, 6527, Note_on_c, 0, 69, 0
1, 6528, Note_on_c, 0, 74, 75
1, 6528, Note_on_c, 0, 71, 75
1, 6528, Note_on_c, 1, 44, 64
1, 6548, Note_on_c, 0, 74, 0
1, 6548, Note_on_c, 0, 71, 0
1, 6551, Note_on_c, 1, 44, 0
1, 6552, Note_on_c, 1, 52, 64
1, 6575, Note_on_c, 1, 52, 0
1, 6576, Note_on_c, 0, 74, 91
1, 6576, Note_on_c, 0, 71, 91
1, 6576, Note_on_c, 1, 47, 64
1, 6599, Note_on_c, 1, 47, 0
1, 6600, Note_on_c, 1, 52, 64
1, 6623, Note_on_c, 1, 52, 0
1, 6624, Note_on_c, 1, 44, 64
1, 6647, Note_on_c, 1, 44, 0
1, 6648, Note_on_c, 1, 52, 64
1, 6671, Note_on_c, 1, 52, 0
1, 6672, Note_on_c, 0, 74, 0
1, 6672, Note_on_c, 0, 71, 0
1, 6672, Note_on_c, 0, 72, 75
1, 6672, Note_on_c, 0, 69, 75
1, 6672, Note_on_c, 1, 47, 64
1, 6695, Note_on_c, 1, 47, 0
1, 6696, Note_on_c, 0, 72, 0
1, 6696, Note_on_c, 0, 69, 0
1, 6696, Note_on_c, 0, 71, 75
1, 6696, Note_on_c, 0, 68, 75
1, 6696, Note_on_c, 1, 52, 64
1, 6719, Note_on_c, 0, 71, 0
1, 6719, Note_on_c, 0, 68, 0
1, 6719, Note_on_c, 1, 52, 0
1, 6720, Note_on_c, 0, 71, 91
1, 6720, Note_on_c, 0, 68, 91
1, 6744, Note_on_c, 1, 45, 64
1, 6767, Note_on_c, 1, 45, 0
1, 6768, Note_on_c, 0, 71, 0
1, 6768, Note_on_c, 0, 68, 0
1, 6768, Note_on_c, 0, 72, 75
1, 6768, Note_on_c, 0, 69, 75
1, 6768, Note_on_c, 1, 48, 64
1, 6791, Note_on_c, 1, 48, 0
1, 6792, Note_on_c, 1, 52, 64
1, 6815, Note_on_c, 1, 52, 0
1, 6816, Note_on_c, 1, 57, 64
1, 6857, Note_on_c, 0, 72, 0
1, 6857, Note_on_c, 0, 69, 0
1, 6861, Note_on_c, 1, 57, 0
1, 6864, Note_on_c, 0, 69, 75
1, 6864, Note_on_c, 0, 66, 75
1, 6888, Note_on_c, 0, 69, 0
1, 6888, Note_on_c, 0, 66, 0
1, 6888, Note_on_c, 0, 71, 75
1, 6888, Note_on_c, 0, 67, 75
1, 6911, Note_on_c, 0, 71, 0
1, 6911, Note_on_c, 0, 67, 0
1, 6912, Note_on_c, 0, 72, 75
1, 6912, Note_on_c, 0, 69, 75
1, 6912, Note_on_c, 1, 42, 64
1, 6932, Note_on_c, 0, 72, 0
1, 6932, Note_on_c, 0, 69, 0
1, 6935, Note_on_c, 1, 42, 0
1, 6936, Note_on_c, 1, 50, 64
1, 6959, Note_on_c, 1, 50, 0
1, 6960, Note_on_c, 0, 72, 91
1, 6960, Note_on_c, 0, 69, 91
1, 6960, Note_on_c, 1, 45, 64
1, 6983, Note_on_c, 1, 45, 0
1, 6984, Note_on_c, 1, 50, 64
1, 7007, Note_on_c, 1, 50, 0
1, 7008, Note_on_c, 1, 42, 64
1, 7031, Note_on_c, 1, 42, 0
1, 7032, Note_on_c, 1, 50, 64
1, 7055, Note_on_c, 1, 50, 0
1, 7056, Note_on_c, 0, 72, 0
1, 7056, Note_on_c, 0, 69, 0
1, 7056, Note_on_c, 0, 71, 75
1, 7056, Note_on_c, 0, 67, 75
1, 7056, Note_on_c, 1, 45, 64
1, 7079, Note_on_c, 1, 45, 0
1, 7080, Note_on_c, 0, 71, 0
1, 7080, Note_on_c, 0, 67, 0
1, 7080, Note_on_c, 0, 69, 75
1, 7080, Note_on_c, 0, 66, 75
1, 7080, Note_on_c, 1, 50, 64
1, 7103, Note_on_c, 0, 69, 0
1, 7103, Note_on_c, 0, 66, 0
1, 7103, Note_on_c, 1, 50, 0
1, 7104, Note_on_c, 0, 69, 91
1, 7104, Note_on_c, 0, 66, 91
1, 7128, Note_on_c, 1, 43, 64
1, 7151, Note_on_c, 1, 43, 0
1, 7152, Note_on_c, 0, 69, 0
1, 7152, Note_on_c, 0, 66, 0
1, 7152, Note_on_c, 0, 71, 75
1, 7152, Note_on_c, 0, 67, 75
1, 7152, Note_on_c, 1, 47, 64
1, 7175, Note_on_c, 1, 47, 0
1, 7176, Note_on_c, 1, 50, 64
1, 7199, Note_on_c, 1, 50, 0
1, 7200, Note_on_c, 1, 55, 64
1, 7241, Note_on_c, 0, 71, 0
1, 7241, Note_on_c, 0, 67, 0
1, 7245, Note_on_c, 1, 55, 0
1, 7248, Note_on_c, 0, 64, 80
1, 7248, Note_on_c, 1, 52, 80
1, 7248, Note_on_c, 1, 40, 80
1, 7293, Note_on_c, 0, 64, 0
1, 7293, Note_on_c, 1, 52, 0
1, 7293, Note_on_c, 1, 40, 0
1, 7296, Note_on_c, 0, 65, 96
1, 7296, Note_on_c, 1, 53, 80
1, 7296, Note_on_c, 1, 41, 80
1, 7341, Note_on_c, 1, 53, 0
1, 7341, Note_on_c, 1, 41, 0
1, 7344, Note_on_c, 0, 65, 0
1, 7344, Note_on_c, 0, 66, 80
1, 7344, Note_on_c, 1, 54, 80
1, 7344, Note_on_c, 1, 42, 80
1, 7389, Note_on_c, 0, 66, 0
1, 7389, Note_on_c, 1, 54, 0
1, 7389, Note_on_c, 1, 42, 0
1, 7392, Note_on_c, 0, 67, 80
1, 7392, Note_on_c, 1, 55, 80
1, 7392, Note_on_c, 1, 43, 80
1, 7437, Note_on_c, 0, 67, 0
1, 7437, Note_on_c, 1, 55, 0
1, 7437, Note_on_c, 1, 43, 0
1, 7440, Note_on_c, 0, 68, 80
1, 7440, Note_on_c, 1, 56, 80
1, 7440, Note_on_c, 1, 44, 80
1, 7485, Note_on_c, 0, 68, 0
1, 7485, Note_on_c, 1, 56, 0
1, 7485, Note_on_c, 1, 44, 0
1, 7488, Note_on_c, 0, 69, 80
1, 7488, Note_on_c, 1, 57, 80
1, 7488, Note_on_c, 1, 45, 80
1, 7508, Note_on_c, 0, 69, 0
1, 7508, Note_on_c, 1, 57, 0
1, 7508, Note_on_c, 1, 45, 0
1, 7536, Note_on_c, 0, 69, 80
1, 7536, Note_on_c, 1, 57, 80
1, 7536, Note_on_c, 1, 45, 80
1, 7548, Note_on_c, 0, 69, 0
1, 7548, Note_on_c, 0, 71, 80
1, 7560, Note_on_c, 0, 71, 0
1, 7560, Note_on_c, 0, 69, 80
1, 7625, Note_on_c, 0, 69, 0
1, 7625, Note_on_c, 1, 57, 0
1, 7625, Note_on_c, 1, 45, 0
1, 7632, Note_on_c, 0, 66, 80
1, 7632, Note_on_c, 1, 54, 80
1, 7632, Note_on_c, 1, 42, 80
1, 7677, Note_on_c, 0, 66, 0
1, 7677, Note_on_c, 1, 54, 0
1, 7677, Note_on_c, 1, 42, 0
1, 7680, Note_on_c, 0, 67, 96
1, 7680, Note_on_c, 1, 55, 80
1, 7680, Note_on_c, 1, 43, 80
1, 7725, Note_on_c, 1, 55, 0
1, 7725, Note_on_c, 1, 43, 0
1, 7728, Note_on_c, 0, 67, 0
1, 7728, Note_on_c, 0, 68, 80
1, 7728, Note_on_c, 1, 56, 80
1, 7728, Note_on_c, 1, 44, 80
1, 7740, Note_on_c, 0, 68, 0
1, 7740, Note_on_c, 0, 69, 80
1, 7752, Note_on_c, 0, 69, 0
1, 7752, Note_on_c, 0, 68, 80
1, 7773, Note_on_c, 0, 68, 0
1, 7773, Note_on_c, 1, 56, 0
1, 7773, Note_on_c, 1, 44, 0
1, 7776, Note_on_c, 0, 69, 80
1, 7776, Note_on_c, 1, 57, 80
1, 7776, Note_on_c, 1, 45, 80
1, 7821, Note_on_c, 0, 69, 0
1, 7821, Note_on_c, 1, 57, 0
1, 7821, Note_on_c, 1, 45, 0
1, 7824, Note_on_c, 0, 70, 80
1, 7824, Note_on_c, 1, 58, 80
1, 7824, Note_on_c, 1, 46, 80
1, 7869, Note_on_c, 0, 70, 0
1, 7869, Note_on_c, 1, 58, 0
1, 7869, Note_on_c, 1, 46, 0
1, 7872, Note_on_c, 0, 71, 80
1, 7872, Note_on_c, 1, 59, 80
1, 7872, Note_on_c, 1, 47, 80
1, 7961, Note_on_c, 0, 71, 0
1, 7961, Note_on_c, 1, 59, 0
1, 7961, Note_on_c, 1, 47, 0
1, 8016, Note_on_c, 0, 71, 75
1, 8061, Note_on_c, 0, 71, 0
1, 8064, Note_on_c, 0, 76, 91
1, 8064, Note_on_c, 1, 52, 64
1, 8087, Note_on_c, 1, 52, 0
1, 8088, Note_on_c, 1, 59, 64
1, 8111, Note_on_c, 1, 59, 0
1, 8112, Note_on_c, 0, 76, 0
1, 8112, Note_on_c, 0, 79, 75
1, 8112, Note_on_c, 1, 55, 64
1, 8135, Note_on_c, 1, 55, 0
1, 8136, Note_on_c, 1, 59, 64
1, 8157, Note_on_c, 0, 79, 0
1, 8159, Note_on_c, 1, 59, 0
1, 8160, Note_on_c, 0, 78, 75
1, 8160, Note_on_c, 1, 52, 64
1, 8183, Note_on_c, 1, 52, 0
1, 8184, Note_on_c, 1, 59, 64
1, 8205, Note_on_c, 0, 78, 0
1, 8207, Note_on_c, 1, 59, 0
1, 8208, Note_on_c, 0, 76, 75
1, 8208, Note_on_c, 1, 55, 64
1, 8231, Note_on_c, 1, 55, 0
1, 8232, Note_on_c, 1, 59, 64
1, 8253, Note_on_c, 0, 76, 0
1, 8255, Note_on_c, 1, 59, 0
1, 8256, Note_on_c, 0, 75, 75
1, 8256, Note_on_c, 1, 47, 64
1, 8279, Note_on_c, 1, 47, 0
1, 8280, Note_on_c, 1, 59, 64
1, 8301, Note_on_c, 0, 75, 0
1, 8303, Note_on_c, 1, 59, 0
1, 8304, Note_on_c, 0, 84, 75
1, 8304, Note_on_c, 1, 54, 64
1, 8327, Note_on_c, 1, 54, 0
1, 8328, Note_on_c, 1, 59, 64
1, 8349, Note_on_c, 0, 84, 0
1, 8351, Note_on_c, 1, 59, 0
1, 8352, Note_on_c, 0, 83, 75
1, 8352, Note_on_c, 1, 47, 64
1, 8375, Note_on_c, 1, 47, 0
1, 8376, Note_on_c, 1, 59, 64
1, 8397, Note_on_c, 0, 83, 0
1, 8399, Note_on_c, 1, 59, 0
1, 8400, Note_on_c, 0, 81, 75
1, 8400, Note_on_c, 1, 54, 64
1, 8423, Note_on_c, 1, 54, 0
1, 8424, Note_on_c, 1, 59, 64
1, 8445, Note_on_c, 0, 81, 0
1, 8447, Note_on_c, 1, 59, 0
1, 8448, Note_on_c, 0, 81, 91
1, 8448, Note_on_c, 1, 52, 64
1, 8471, Note_on_c, 1, 52, 0
1, 8472, Note_on_c, 0, 81, 0
1, 8472, Note_on_c, 0, 79, 75
1, 8472, Note_on_c, 1, 59, 64
1, 8495, Note_on_c, 0, 79, 0
1, 8495, Note_on_c, 1, 59, 0
1, 8496, Note_on_c, 0, 78, 75
1, 8496, Note_on_c, 1, 55, 64
1, 8519, Note_on_c, 0, 78, 0
1, 8519, Note_on_c, 1, 55, 0
1, 8520, Note_on_c, 0, 76, 75
1, 8520, Note_on_c, 1, 59, 64
1, 8543, Note_on_c, 0, 76, 0
1, 8543, Note_on_c, 1, 59, 0
1, 8544, Note_on_c, 0, 75, 75
1, 8544, Note_on_c, 1, 54, 64
1, 8564, Note_on_c, 0, 75, 0
1, 8567, Note_on_c, 1, 54, 0
1, 8568, Note_on_c, 1, 59, 64
1, 8591, Note_on_c, 1, 59, 0
1, 8592, Note_on_c, 0, 76, 75
1, 8592, Note_on_c, 1, 55, 64
1, 8612, Note_on_c, 0, 76, 0
1, 8615, Note_on_c, 1, 55, 0
1, 8616, Note_on_c, 1, 59, 64
1, 8639, Note_on_c, 1, 59, 0
1, 8640, Note_on_c, 0, 78, 75
1, 8640, Note_on_c, 1, 47, 64
1, 8663, Note_on_c, 0, 78, 0
1, 8664, Note_on_c, 0, 76, 75
1, 8687, Note_on_c, 0, 76, 0
1, 8688, Note_on_c, 0, 75, 75
1, 8711, Note_on_c, 0, 75, 0
1, 8712, Note_on_c, 0, 73, 75
1, 8729, Note_on_c, 1, 47, 0
1, 8735, Note_on_c, 0, 73, 0
1, 8736, Note_on_c, 0, 71, 75
1, 8781, Note_on_c, 0, 71, 0
1, 8784, Note_on_c, 0, 79, 91
1, 8832, Note_on_c, 1, 49, 64
1, 8855, Note_on_c, 1, 49, 0
1, 8856, Note_on_c, 1, 57, 64
1, 8877, Note_on_c, 0, 79, 0
1, 8879, Note_on_c, 1, 57, 0
1, 8880, Note_on_c, 0, 69, 75
1, 8880, Note_on_c, 1, 52, 64
1, 8903, Note_on_c, 1, 52, 0
1, 8904, Note_on_c, 1, 57, 64
1, 8927, Note_on_c, 1, 57, 0
1, 8928, Note_on_c, 1, 50, 64
1, 8951, Note_on_c, 1, 50, 0
1, 8952, Note_on_c, 1, 57, 64
1, 8969, Note_on_c, 0, 69, 0
1, 8975, Note_on_c, 1, 57, 0
1, 8976, Note_on_c, 0, 77, 91
1, 8976, Note_on_c, 1, 53, 64
1, 8999, Note_on_c, 1, 53, 0
1, 9000, Note_on_c, 1, 57, 64
1, 9023, Note_on_c, 1, 57, 0
1, 9024, Note_on_c, 1, 47, 64
1, 9047, Note_on_c, 1, 47, 0
1, 9048, Note_on_c, 1, 55, 64
1, 9071, Note_on_c, 1, 55, 0
1, 9072, Note_on_c, 0, 77, 0
1, 9072, Note_on_c, 0, 67, 75
1, 9072, Note_on_c, 1, 50, 64
1, 9095, Note_on_c, 1, 50, 0
1, 9096, Note_on_c, 1, 55, 64
1, 9119, Note_on_c, 1, 55, 0
1, 9120, Note_on_c, 1, 48, 64
1, 9143, Note_on_c, 1, 48, 0
1, 9144, Note_on_c, 1, 55, 64
1, 9161, Note_on_c, 0, 67, 0
1, 9167, Note_on_c, 1, 55, 0
1, 9168, Note_on_c, 0, 76, 91
1, 9168, Note_on_c, 1, 52, 64
1, 9191, Note_on_c, 1, 52, 0
1, 9192, Note_on_c, 1, 55, 64
1, 9215, Note_on_c, 1, 55, 0
1, 9216, Note_on_c, 0, 76, 0
1, 9216, Note_on_c, 0, 75, 75
1, 9216, Note_on_c, 1, 47, 64
1, 9239, Note_on_c, 1, 47, 0
1, 9240, Note_on_c, 0, 75, 0
1, 9240, Note_on_c, 0, 76, 75
1, 9240, Note_on_c, 1, 54, 64
1, 9263, Note_on_c, 0, 76, 0
1, 9263, Note_on_c, 1, 54, 0
1, 9264, Note_on_c, 0, 75, 75
1, 9264, Note_on_c, 1, 51, 64
1, 9287, Note_on_c, 1, 51, 0
1, 9288, Note_on_c, 0, 75, 0
1, 9288, Note_on_c, 0, 76, 75
1, 9288, Note_on_c, 1, 54, 64
1, 9311, Note_on_c, 0, 76, 0
1, 9311, Note_on_c, 1, 54, 0
1, 9312, Note_on_c, 0, 81, 75
1, 9312, Note_on_c, 0, 78, 75
1, 9312, Note_on_c, 1, 47, 64
1, 9332, Note_on_c, 0, 81, 0
1, 9332, Note_on_c, 0, 78, 0
1, 9335, Note_on_c, 1, 47, 0
1, 9336, Note_on_c, 1, 55, 64
1, 9359, Note_on_c, 1, 55, 0
1, 9360, Note_on_c, 0, 79, 75
1, 9360, Note_on_c, 0, 76, 75
1, 9360, Note_on_c, 1, 52, 64
1, 9380, Note_on_c, 0, 79, 0
1, 9380, Note_on_c, 0, 76, 0
1, 9383, Note_on_c, 1, 52, 0
1, 9384, Note_on_c, 1, 55, 64
1, 9407, Note_on_c, 1, 55, 0
1, 9408, Note_on_c, 0, 79, 91
1, 9408, Note_on_c, 0, 76, 91
1, 9408, Note_on_c, 1, 47, 64
1, 9431, Note_on_c, 1, 47, 0
1, 9432, Note_on_c, 1, 58, 64
1, 9455, Note_on_c, 1, 58, 0
1, 9456, Note_on_c, 1, 59, 64
1, 9479, Note_on_c, 1, 59, 0
1, 9480, Note_on_c, 1, 58, 64
1, 9503, Note_on_c, 1, 58, 0
1, 9504, Note_on_c, 0, 79, 0
1, 9504, Note_on_c, 0, 76, 0
1, 9504, Note_on_c, 0, 78, 75
1, 9504, Note_on_c, 0, 75, 75
1, 9504, Note_on_c, 1, 59, 64
1, 9524, Note_on_c, 0, 78, 0
1, 9524, Note_on_c, 0, 75, 0
1, 9527, Note_on_c, 1, 59, 0
1, 9528, Note_on_c, 1, 57, 64
1, 9551, Note_on_c, 1, 57, 0
1, 9552, Note_on_c, 0, 71, 75
1, 9552, Note_on_c, 1, 55, 64
1, 9575, Note_on_c, 1, 55, 0
1, 9576, Note_on_c, 1, 54, 64
1, 9597, Note_on_c, 0, 71, 0
1, 9599, Note_on_c, 1, 54, 0
1, 9600, Note_on_c, 0, 76, 91
1, 9600, Note_on_c, 1, 52, 64
1, 9623, Note_on_c, 1, 52, 0
1, 9624, Note_on_c, 1, 59, 64
1, 9647, Note_on_c, 1, 59, 0
1, 9648, Note_on_c, 0, 76, 0
1, 9648, Note_on_c, 0, 79, 75
1, 9648, Note_on_c, 1, 55, 64
1, 9671, Note_on_c, 1, 55, 0
1, 9672, Note_on_c, 1, 59, 64
1, 9693, Note_on_c, 0, 79, 0
1, 9695, Note_on_c, 1, 59, 0
1, 9696, Note_on_c, 0, 78, 75
1, 9696, Note_on_c, 1, 52, 64
1, 9719, Note_on_c, 1, 52, 0
1, 9720, Note_on_c, 1, 59, 64
1, 9741, Note_on_c, 0, 78, 0
1, 9743, Note_on_c, 1, 59, 0
1, 9744, Note_on_c, 0, 76, 75
1, 9744, Note_on_c, 1, 55, 64
1, 9767, Note_on_c, 1, 55, 0
1, 9768, Note_on_c, 1, 59, 64
1, 9789, Note_on_c, 0, 76, 0
1, 9791, Note_on_c, 1, 59, 0
1, 9792, Note_on_c, 0, 75, 75
1, 9792, Note_on_c, 1, 47, 64
1, 9815, Note_on_c, 1, 47, 0
1, 9816, Note_on_c, 1, 59, 64
1, 9837, Note_on_c, 0, 75, 0
1, 9839, Note_on_c, 1, 59, 0
1, 9840, Note_on_c, 0, 84, 75
1, 9840, Note_on_c, 1, 54, 64
1, 9863, Note_on_c, 1, 54, 0
1, 9864, Note_on_c, 1, 59, 64
1, 9885, Note_on_c, 0, 84, 0
1, 9887, Note_on_c, 1, 59, 0
1, 9888, Note_on_c, 0, 83, 75
1, 9888, Note_on_c, 1, 47, 64
1, 9911, Note_on_c, 1, 47, 0
1, 9912, Note_on_c, 1, 59, 64
1, 9933, Note_on_c, 0, 83, 0
1, 9935, Note_on_c, 1, 59, 0
1, 9936, Note_on_c, 0, 79, 75
1, 9936, Note_on_c, 1, 55, 64
1, 9959, Note_on_c, 1, 55, 0
1, 9960, Note_on_c, 1, 59, 64
1, 9981, Note_on_c, 0, 79, 0
1, 9983, Note_on_c, 1, 59, 0
1, 9984, Note_on_c, 0, 81, 75
1, 9984, Note_on_c, 0, 72, 75
1, 9984, Note_on_c, 1, 48, 64
1, 10007, Note_on_c, 1, 48, 0
1, 10008, Note_on_c, 1, 57, 64
1, 10023, Note_on_c, 0, 81, 0
1, 10023, Note_on_c, 0, 72, 0
1, 10031, Note_on_c, 1, 57, 0
1, 10032, Note_on_c, 1, 52, 65
1, 10055, Note_on_c, 1, 52, 0
1, 10056, Note_on_c, 1, 57, 66
1, 10079, Note_on_c, 1, 57, 0
1, 10080, Note_on_c, 0, 78, 76
1, 10080, Note_on_c, 0, 72, 76
1, 10080, Note_on_c, 1, 50, 66
1, 10103, Note_on_c, 1, 50, 0
1, 10104, Note_on_c, 1, 60, 67
1, 10119, Note_on_c, 0, 78, 0
1, 10119, Note_on_c, 0, 72, 0
1, 10127, Note_on_c, 1, 60, 0
1, 10128, Note_on_c, 1, 54, 68
1, 10151, Note_on_c, 1, 54, 0
1, 10152, Note_on_c, 1, 60, 68
1, 10175, Note_on_c, 1, 60, 0
1, 10176, Note_on_c, 0, 79, 78
1, 10176, Note_on_c, 0, 71, 78
1, 10176, Note_on_c, 1, 55, 69
1, 10199, Note_on_c, 1, 55, 0
1, 10200, Note_on_c, 1, 43, 70
1, 10223, Note_on_c, 1, 43, 0
1, 10224, Note_on_c, 1, 47, 70
1, 10247, Note_on_c, 1, 47, 0
1, 10248, Note_on_c, 1, 50, 70
1, 10265, Note_on_c, 0, 79, 0
1, 10265, Note_on_c, 0, 71, 0
1, 10271, Note_on_c, 1, 50, 0
1, 10272, Note_on_c, 1, 55, 70
1, 10317, Note_on_c, 1, 55, 0
1, 10320, Note_on_c, 0, 67, 80
1, 10365, Note_on_c, 0, 67, 0
1, 10368, Note_on_c, 0, 65, 80
1, 10391, Note_on_c, 0, 65, 0
1, 10392, Note_on_c, 0, 74, 80
1, 10415, Note_on_c, 0, 74, 0
1, 10416, Note_on_c, 0, 71, 80
1, 10416, Note_on_c, 1, 53, 70
1, 10416, Note_on_c, 1, 50, 70
1, 10416, Note_on_c, 1, 47, 70
1, 10416, Note_on_c, 1, 43, 70
1, 10439, Note_on_c, 0, 71, 0
1, 10440, Note_on_c, 0, 67, 80
1, 10461, Note_on_c, 1, 53, 0
1, 10461, Note_on_c, 1, 50, 0
1, 10461, Note_on_c, 1, 47, 0
1, 10461, Note_on_c, 1, 43, 0
1, 10463, Note_on_c, 0, 67, 0
1, 10464, Note_on_c, 0, 65, 80
1, 10487, Note_on_c, 0, 65, 0
1, 10488, Note_on_c, 0, 74, 80
1, 10511, Note_on_c, 0, 74, 0
1, 10512, Note_on_c, 0, 71, 80
1, 10512, Note_on_c, 1, 53, 70
1, 10512, Note_on_c, 1, 50, 70
1, 10512, Note_on_c, 1, 47, 70
1, 10512, Note_on_c, 1, 43, 70
1, 10535, Note_on_c, 0, 71, 0
1, 10536, Note_on_c, 0, 67, 80
1, 10557, Note_on_c, 1, 53, 0
1, 10557, Note_on_c, 1, 50, 0
1, 10557, Note_on_c, 1, 47, 0
1, 10557, Note_on_c, 1, 43, 0
1, 10559, Note_on_c, 0, 67, 0
1, 10560, Note_on_c, 0, 64, 80
1, 10560, Note_on_c, 1, 52, 70
1, 10583, Note_on_c, 0, 64, 0
1, 10583, Note_on_c, 1, 52, 0
1, 10584, Note_on_c, 0, 60, 80
1, 10584, Note_on_c, 1, 48, 70
1, 10607, Note_on_c, 0, 60, 0
1, 10607, Note_on_c, 1, 48, 0
1, 10608, Note_on_c, 0, 55, 80
1, 10608, Note_on_c, 1, 43, 70
1, 10631, Note_on_c, 0, 55, 0
1, 10631, Note_on_c, 1, 43, 0
1, 10632, Note_on_c, 0, 52, 80
1, 10632, Note_on_c, 1, 40, 70
1, 10655, Note_on_c, 0, 52, 0
1, 10655, Note_on_c, 1, 40, 0
1, 10656, Note_on_c, 1, 48, 70
1, 10656, Note_on_c, 1, 36, 70
1, 10679, Note_on_c, 1, 48, 0
1, 10679, Note_on_c, 1, 36, 0
1, 10680, Note_on_c, 1, 43, 70
1, 10680, Note_on_c, 1, 31, 70
1, 10703, Note_on_c, 1, 43, 0
1, 10703, Note_on_c, 1, 31, 0
1, 10704, Note_on_c, 1, 40, 70
1, 10727, Note_on_c, 1, 40, 0
1, 10728, Note_on_c, 1, 36, 70
1, 10751, Note_on_c, 1, 36, 0
1, 10752, Note_on_c, 0, 69, 80
1, 10775, Note_on_c, 0, 69, 0
1, 10776, Note_on_c, 0, 76, 80
1, 10799, Note_on_c, 0, 76, 0
1, 10800, Note_on_c, 0, 73, 80
1, 10800, Note_on_c, 1, 55, 70
1, 10800, Note_on_c, 1, 52, 70
1, 10800, Note_on_c, 1, 49, 70
1, 10800, Note_on_c, 1, 45, 70
1, 10823, Note_on_c, 0, 73, 0
1, 10824, Note_on_c, 0, 69, 80
1, 10845, Note_on_c, 1, 55, 0
1, 10845, Note_on_c, 1, 52, 0
1, 10845, Note_on_c, 1, 49, 0
1, 10845, Note_on_c, 1, 45, 0
1, 10847, Note_on_c, 0, 69, 0
1, 10848, Note_on_c, 0, 67, 80
1, 10871, Note_on_c, 0, 67, 0
1, 10872, Note_on_c, 0, 76, 80
1, 10895, Note_on_c, 0, 76, 0
1, 10896, Note_on_c, 0, 73, 80
1, 10896, Note_on_c, 1, 55, 70
1, 10896, Note_on_c, 1, 52, 70
1, 10896, Note_on_c, 1, 49, 70
1, 10896, Note_on_c, 1, 45, 70
1, 10919, Note_on_c, 0, 73, 0
1, 10920, Note_on_c, 0, 69, 80
1, 10941, Note_on_c, 1, 55, 0
1, 10941, Note_on_c, 1, 52, 0
1, 10941, Note_on_c, 1, 49, 0
1, 10941, Note_on_c, 1, 45, 0
1, 10943, Note_on_c, 0, 69, 0
1, 10944, Note_on_c, 0, 66, 80
1, 10944, Note_on_c, 1, 54, 70
1, 10967, Note_on_c, 0, 66, 0
1, 10967, Note_on_c, 1, 54, 0
1, 10968, Note_on_c, 0, 62, 80
1, 10968, Note_on_c, 1, 50, 70
1, 10991, Note_on_c, 0, 62, 0
1, 10991, Note_on_c, 1, 50, 0
1, 10992, Note_on_c, 0, 57, 80
1, 10992, Note_on_c, 1, 45, 70
1, 11015, Note_on_c, 0, 57, 0
1, 11015, Note_on_c, 1, 45, 0
1, 11016, Note_on_c, 0, 54, 80
1, 11016, Note_on_c, 1, 42, 70
1, 11039, Note_on_c, 0, 54, 0
1, 11039, Note_on_c, 1, 42, 0
1, 11040, Note_on_c, 1, 50, 70
1, 11040, Note_on_c, 1, 38, 70
1, 11063, Note_on_c, 1, 50, 0
1, 11063, Note_on_c, 1, 38, 0
1, 11064, Note_on_c, 1, 45, 70
1, 11064, Note_on_c, 1, 33, 70
1, 11087, Note_on_c, 1, 45, 0
1, 11087, Note_on_c, 1, 33, 0
1, 11088, Note_on_c, 0, 74, 80
1, 11088, Note_on_c, 0, 62, 80
1, 11088, Note_on_c, 1, 42, 70
1, 11088, Note_on_c, 1, 30, 70
1, 11108, Note_on_c, 0, 74, 0
1, 11108, Note_on_c, 0, 62, 0
1, 11111, Note_on_c, 1, 42, 0
1, 11111, Note_on_c, 1, 30, 0
1, 11112, Note_on_c, 1, 38, 70
1, 11135, Note_on_c, 1, 38, 0
1, 11136, Note_on_c, 0, 79, 80
1, 11136, Note_on_c, 0, 67, 80
1, 11136, Note_on_c, 1, 47, 64
1, 11156, Note_on_c, 0, 79, 0
1, 11156, Note_on_c, 0, 67, 0
1, 11159, Note_on_c, 1, 47, 0
1, 11160, Note_on_c, 1, 55, 64
1, 11183, Note_on_c, 1, 55, 0
1, 11184, Note_on_c, 0, 83, 80
1, 11184, Note_on_c, 0, 71, 80
1, 11184, Note_on_c, 1, 50, 64
1, 11204, Note_on_c, 0, 83, 0
1, 11204, Note_on_c, 0, 71, 0
1, 11207, Note_on_c, 1, 50, 0
1, 11208, Note_on_c, 1, 55, 64
1, 11231, Note_on_c, 1, 55, 0
1, 11232, Note_on_c, 0, 81, 80
1, 11232, Note_on_c, 0, 69, 80
1, 11232, Note_on_c, 1, 47, 64
1, 11252, Note_on_c, 0, 81, 0
1, 11252, Note_on_c, 0, 69, 0
1, 11255, Note_on_c, 1, 47, 0
1, 11256, Note_on_c, 1, 55, 64
1, 11279, Note_on_c, 1, 55, 0
1, 11280, Note_on_c, 0, 79, 80
1, 11280, Note_on_c, 0, 67, 80
1, 11280, Note_on_c, 1, 50, 64
1, 11300, Note_on_c, 0, 79, 0
1, 11300, Note_on_c, 0, 67, 0
1, 11303, Note_on_c, 1, 50, 0
1, 11304, Note_on_c, 1, 55, 64
1, 11327, Note_on_c, 1, 55, 0
1, 11328, Note_on_c, 0, 78, 80
1, 11328, Note_on_c, 0, 66, 80
1, 11328, Note_on_c, 1, 38, 64
1, 11348, Note_on_c, 0, 78, 0
1, 11348, Note_on_c, 0, 66, 0
1, 11351, Note_on_c, 1, 38, 0
1, 11352, Note_on_c, 1, 45, 64
1, 11375, Note_on_c, 1, 45, 0
1, 11376, Note_on_c, 0, 88, 80
1, 11376, Note_on_c, 0, 76, 80
1, 11376, Note_on_c, 1, 42, 64
1, 11396, Note_on_c, 0, 88, 0
1, 11396, Note_on_c, 0, 76, 0
1, 11399, Note_on_c, 1, 42, 0
1, 11400, Note_on_c, 1, 45, 64
1, 11423, Note_on_c, 1, 45, 0
1, 11424, Note_on_c, 0, 86, 80
1, 11424, Note_on_c, 0, 74, 80
1, 11424, Note_on_c, 1, 38, 64
1, 11444, Note_on_c, 0, 86, 0
1, 11444, Note_on_c, 0, 74, 0
1, 11447, Note_on_c, 1, 38, 0
1, 11448, Note_on_c, 1, 45, 64
1, 11471, Note_on_c, 1, 45, 0
1, 11472, Note_on_c, 0, 84, 80
1, 11472, Note_on_c, 0, 72, 80
1, 11472, Note_on_c, 1, 42, 64
1, 11492, Note_on_c, 0, 84, 0
1, 11492, Note_on_c, 0, 72, 0
1, 11495, Note_on_c, 1, 42, 0
1, 11496, Note_on_c, 1, 45, 64
1, 11519, Note_on_c, 1, 45, 0
1, 11520, Note_on_c, 0, 84, 80
1, 11520, Note_on_c, 0, 72, 80
1, 11520, Note_on_c, 1, 43, 64
1, 11543, Note_on_c, 0, 84, 0
1, 11543, Note_on_c, 0, 72, 0
1, 11543, Note_on_c, 1, 43, 0
1, 11544, Note_on_c, 0, 83, 80
1, 11544, Note_on_c, 0, 71, 80
1, 11544, Note_on_c, 1, 50, 64
1, 11567, Note_on_c, 0, 83, 0
1, 11567, Note_on_c, 0, 71, 0
1, 11567, Note_on_c, 1, 50, 0
1, 11568, Note_on_c, 0, 81, 80
1, 11568, Note_on_c, 0, 69, 80
1, 11568, Note_on_c, 1, 47, 64
1, 11591, Note_on_c, 0, 81, 0
1, 11591, Note_on_c, 0, 69, 0
1, 11591, Note_on_c, 1, 47, 0
1, 11592, Note_on_c, 0, 79, 80
1, 11592, Note_on_c, 0, 67, 80
1, 11592, Note_on_c, 1, 50, 64
1, 11615, Note_on_c, 0, 79, 0
1, 11615, Note_on_c, 0, 67, 0
1, 11615, Note_on_c, 1, 50, 0
1, 11616, Note_on_c, 0, 78, 80
1, 11616, Note_on_c, 0, 66, 80
1, 11616, Note_on_c, 1, 45, 64
1, 11636, Note_on_c, 0, 78, 0
1, 11636, Note_on_c, 0, 66, 0
1, 11639, Note_on_c, 1, 45, 0
1, 11640, Note_on_c, 1, 50, 64
1, 11663, Note_on_c, 1, 50, 0
1, 11664, Note_on_c, 0, 79, 80
1, 11664, Note_on_c, 0, 67, 80
1, 11664, Note_on_c, 1, 47, 64
1, 11684, Note_on_c, 0, 79, 0
1, 11684, Note_on_c, 0, 67, 0
1, 11687, Note_on_c, 1, 47, 0
1, 11688, Note_on_c, 1, 50, 64
1, 11711, Note_on_c, 1, 50, 0
1, 11712, Note_on_c, 0, 81, 80
1, 11712, Note_on_c, 0, 69, 80
1, 11712, Note_on_c, 1, 38, 64
1, 11735, Note_on_c, 0, 81, 0
1, 11735, Note_on_c, 0, 69, 0
1, 11736, Note_on_c, 0, 79, 80
1, 11736, Note_on_c, 0, 67, 80
1, 11759, Note_on_c, 0, 79, 0
1, 11759, Note_on_c, 0, 67, 0
1, 11760, Note_on_c, 0, 78, 80
1, 11760, Note_on_c, 0, 66, 80
1, 11783, Note_on_c, 0, 78, 0
1, 11783, Note_on_c, 0, 66, 0
1, 11784, Note_on_c, 0, 76, 80
1, 11784, Note_on_c, 0, 64, 80
1, 11801, Note_on_c, 1, 38, 0
1, 11807, Note_on_c, 0, 76, 0
1, 11807, Note_on_c, 0, 64, 0
1, 11808, Note_on_c, 0, 74, 80
1, 11808, Note_on_c, 0, 62, 80
1, 11828, Note_on_c, 0, 74, 0
1, 11828, Note_on_c, 0, 62, 0
1, 11856, Note_on_c, 0, 62, 75
1, 11901, Note_on_c, 0, 62, 0
1, 11904, Note_on_c, 0, 67, 75
1, 11904, Note_on_c, 1, 47, 64
1, 11927, Note_on_c, 1, 47, 0
1, 11928, Note_on_c, 1, 55, 64
1, 11949, Note_on_c, 0, 67, 0
1, 11951, Note_on_c, 1, 55, 0
1, 11952, Note_on_c, 0, 71, 75
1, 11952, Note_on_c, 1, 50, 64
1, 11975, Note_on_c, 1, 50, 0
1, 11976, Note_on_c, 1, 55, 64
1, 11997, Note_on_c, 0, 71, 0
1, 11999, Note_on_c, 1, 55, 0
1, 12000, Note_on_c, 0, 69, 75
1, 12000, Note_on_c, 1, 47, 64
1, 12023, Note_on_c, 1, 47, 0
1, 12024, Note_on_c, 1, 55, 64
1, 12045, Note_on_c, 0, 69, 0
1, 12047, Note_on_c, 1, 55, 0
1, 12048, Note_on_c, 0, 67, 75
1, 12048, Note_on_c, 1, 50, 64
1, 12071, Note_on_c, 1, 50, 0
1, 12072, Note_on_c, 1, 55, 64
1, 12093, Note_on_c, 0, 67, 0
1, 12095, Note_on_c, 1, 55, 0
1, 12096, Note_on_c, 0, 66, 75
1, 12096, Note_on_c, 1, 45, 64
1, 12119, Note_on_c, 1, 45, 0
1, 12120, Note_on_c, 1, 54, 64
1, 12141, Note_on_c, 0, 66, 0
1, 12143, Note_on_c, 1, 54, 0
1, 12144, Note_on_c, 0, 72, 75
1, 12144, Note_on_c, 1, 50, 64
1, 12167, Note_on_c, 1, 50, 0
1, 12168, Note_on_c, 1, 54, 64
1, 12189, Note_on_c, 0, 72, 0
1, 12191, Note_on_c, 1, 54, 0
1, 12192, Note_on_c, 0, 71, 75
1, 12192, Note_on_c, 1, 45, 64
1, 12215, Note_on_c, 1, 45, 0
1, 12216, Note_on_c, 1, 54, 64
1, 12237, Note_on_c, 0, 71, 0
1, 12239, Note_on_c, 1, 54, 0
1, 12240, Note_on_c, 0, 69, 75
1, 12240, Note_on_c, 1, 50, 64
1, 12263, Note_on_c, 1, 50, 0
1, 12264, Note_on_c, 1, 54, 64
1, 12285, Note_on_c, 0, 69, 0
1, 12287, Note_on_c, 1, 54, 0
1, 12288, Note_on_c, 0, 71, 75
1, 12288, Note_on_c, 1, 55, 75
1, 12308, Note_on_c, 0, 71, 0
1, 12336, Note_on_c, 0, 79, 91
1, 12377, Note_on_c, 1, 55, 0
1, 12384, Note_on_c, 1, 67, 75
1, 12384, Note_on_c, 1, 57, 75
1, 12432, Note_on_c, 0, 79, 0
1, 12432, Note_on_c, 0, 73, 75
1, 12473, Note_on_c, 1, 67, 0
1, 12473, Note_on_c, 1, 57, 0
1, 12477, Note_on_c, 0, 73, 0
1, 12480, Note_on_c, 0, 76, 75
1, 12480, Note_on_c, 1, 66, 75
1, 12480, Note_on_c, 1, 50, 75
1, 12486, Note_on_c, 0, 76, 0
1, 12486, Note_on_c, 0, 74, 75
1, 12503, Note_on_c, 0, 74, 0
1, 12504, Note_on_c, 0, 73, 75
1, 12527, Note_on_c, 0, 73, 0
1, 12528, Note_on_c, 0, 74, 75
1, 12551, Note_on_c, 0, 74, 0
1, 12552, Note_on_c, 0, 76, 75
1, 12569, Note_on_c, 1, 66, 0
1, 12569, Note_on_c, 1, 50, 0
1, 12575, Note_on_c, 0, 76, 0
1, 12576, Note_on_c, 0, 74, 75
1, 12621, Note_on_c, 0, 74, 0
1, 12624, Note_on_c, 0, 78, 74
1, 12630, Note_on_c, 0, 78, 0
1, 12630, Note_on_c, 0, 79, 74
1, 12636, Note_on_c, 0, 79, 0
1, 12636, Note_on_c, 0, 81, 90
1, 12672, Note_on_c, 0, 81, 0
1, 12672, Note_on_c, 0, 72, 73
1, 12672, Note_on_c, 1, 69, 75
1, 12672, Note_on_c, 1, 66, 75
1, 12717, Note_on_c, 0, 72, 0
1, 12720, Note_on_c, 0, 78, 73
1, 12726, Note_on_c, 0, 78, 0
1, 12726, Note_on_c, 0, 79, 73
1, 12732, Note_on_c, 0, 79, 0
1, 12732, Note_on_c, 0, 81, 89
1, 12761, Note_on_c, 1, 69, 0
1, 12761, Note_on_c, 1, 66, 0
1, 12768, Note_on_c, 0, 81, 0
1, 12768, Note_on_c, 0, 72, 72
1, 12768, Note_on_c, 1, 67, 73
1, 12768, Note_on_c, 1, 64, 73
1, 12813, Note_on_c, 0, 72, 0
1, 12816, Note_on_c, 0, 78, 71
1, 12822, Note_on_c, 0, 78, 0
1, 12822, Note_on_c, 0, 79, 71
1, 12828, Note_on_c, 0, 79, 0
1, 12828, Note_on_c, 0, 81, 87
1, 12857, Note_on_c, 1, 67, 0
1, 12857, Note_on_c, 1, 64, 0
1, 12864, Note_on_c, 0, 81, 0
1, 12864, Note_on_c, 0, 71, 71
1, 12864, Note_on_c, 1, 66, 71
1, 12864, Note_on_c, 1, 63, 71
1, 12953, Note_on_c, 0, 71, 0
1, 12953, Note_on_c, 1, 66, 0
1, 12953, Note_on_c, 1, 63, 0
1, 13008, Note_on_c, 0, 59, 75
1, 13053, Note_on_c, 0, 59, 0
1, 13056, Note_on_c, 0, 64, 75
1, 13056, Note_on_c, 1, 52, 64
1, 13079, Note_on_c, 1, 52, 0
1, 13080, Note_on_c, 1, 59, 64
1, 13101, Note_on_c, 0, 64, 0
1, 13103, Note_on_c, 1, 59, 0
1, 13104, Note_on_c, 0, 67, 75
1, 13104, Note_on_c, 1, 55, 64
1, 13127, Note_on_c, 1, 55, 0
1, 13128, Note_on_c, 1, 59, 64
1, 13149, Note_on_c, 0, 67, 0
1, 13151, Note_on_c, 1, 59, 0
1, 13152, Note_on_c, 0, 66, 75
1, 13152, Note_on_c, 1, 52, 64
1, 13175, Note_on_c, 1, 52, 0
1, 13176, Note_on_c, 1, 59, 64
1, 13197, Note_on_c, 0, 66, 0
1, 13199, Note_on_c, 1, 59, 0
1, 13200, Note_on_c, 0, 64, 75
1, 13200, Note_on_c, 1, 55, 64
1, 13223, Note_on_c, 1, 55, 0
1, 13224, Note_on_c, 1, 59, 64
1, 13245, Note_on_c, 0, 64, 0
1, 13247, Note_on_c, 1, 59, 0
1, 13248, Note_on_c, 0, 63, 75
1, 13248, Note_on_c, 1, 47, 64
1, 13271, Note_on_c, 1, 47, 0
1, 13272, Note_on_c, 1, 59, 64
1, 13293, Note_on_c, 0, 63, 0
1, 13295, Note_on_c, 1, 59, 0
1, 13296, Note_on_c, 0, 72, 75
1, 13296, Note_on_c, 1, 54, 64
1, 13319, Note_on_c, 1, 54, 0
1, 13320, Note_on_c, 1, 59, 64
1, 13341, Note_on_c, 0, 72, 0
1, 13343, Note_on_c, 1, 59, 0
1, 13344, Note_on_c, 0, 71, 75
1, 13344, Note_on_c, 1, 47, 64
1, 13367, Note_on_c, 1, 47, 0
1, 13368, Note_on_c, 1, 59, 64
1, 13389, Note_on_c, 0, 71, 0
1, 13391, Note_on_c, 1, 59, 0
1, 13392, Note_on_c, 0, 69, 75
1, 13392, Note_on_c, 1, 54, 64
1, 13415, Note_on_c, 1, 54, 0
1, 13416, Note_on_c, 1, 59, 64
1, 13437, Note_on_c, 0, 69, 0
1, 13439, Note_on_c, 1, 59, 0
1, 13440, Note_on_c, 0, 69, 91
1, 13440, Note_on_c, 1, 52, 64
1, 13463, Note_on_c, 1, 52, 0
1, 13464, Note_on_c, 0, 69, 0
1, 13464, Note_on_c, 0, 67, 75
1, 13464, Note_on_c, 1, 59, 64
1, 13487, Note_on_c, 0, 67, 0
1, 13487, Note_on_c, 1, 59, 0
1, 13488, Note_on_c, 0, 66, 75
1, 13488, Note_on_c, 1, 55, 64
1, 13511, Note_on_c, 0, 66, 0
1, 13511, Note_on_c, 1, 55, 0
1, 13512, Note_on_c, 0, 64, 75
1, 13512, Note_on_c, 1, 59, 64
1, 13535, Note_on_c, 0, 64, 0
1, 13535, Note_on_c, 1, 59, 0
1, 13536, Note_on_c, 0, 63, 75
1, 13536, Note_on_c, 1, 54, 64
1, 13556, Note_on_c, 0, 63, 0
1, 13559, Note_on_c, 1, 54, 0
1, 13560, Note_on_c, 1, 59, 64
1, 13583, Note_on_c, 1, 59, 0
1, 13584, Note_on_c, 0, 64, 75
1, 13584, Note_on_c, 1, 55, 64
1, 13604, Note_on_c, 0, 64, 0
1, 13607, Note_on_c, 1, 55, 0
1, 13608, Note_on_c, 1, 59, 64
1, 13631, Note_on_c, 1, 59, 0
1, 13632, Note_on_c, 0, 67, 75
1, 13632, Note_on_c, 0, 64, 75
1, 13632, Note_on_c, 1, 47, 64
1, 13655, Note_on_c, 1, 47, 0
1, 13656, Note_on_c, 1, 58, 64
1, 13679, Note_on_c, 1, 58, 0
1, 13680, Note_on_c, 1, 59, 64
1, 13703, Note_on_c, 1, 59, 0
1, 13704, Note_on_c, 1, 58, 64
1, 13727, Note_on_c, 1, 58, 0
1, 13728, Note_on_c, 0, 67, 0
1, 13728, Note_on_c, 0, 64, 0
1, 13728, Note_on_c, 0, 66, 75
1, 13728, Note_on_c, 0, 63, 75
1, 13728, Note_on_c, 1, 59, 64
1, 13748, Note_on_c, 0, 66, 0
1, 13748, Note_on_c, 0, 63, 0
1, 13751, Note_on_c, 1, 59, 0
1, 13752, Note_on_c, 1, 57, 64
1, 13775, Note_on_c, 1, 57, 0
1, 13776, Note_on_c, 0, 71, 75
1, 13776, Note_on_c, 1, 55, 64
1, 13799, Note_on_c, 1, 55, 0
1, 13800, Note_on_c, 1, 54, 64
1, 13821, Note_on_c, 0, 71, 0
1, 13823, Note_on_c, 1, 54, 0
1, 13824, Note_on_c, 0, 76, 91
1, 13824, Note_on_c, 1, 52, 64
1, 13847, Note_on_c, 1, 52, 0
1, 13848, Note_on_c, 1, 59, 64
1, 13871, Note_on_c, 1, 59, 0
1, 13872, Note_on_c, 0, 76, 0
1, 13872, Note_on_c, 0, 79, 75
1, 13872, Note_on_c, 1, 55, 64
1, 13895, Note_on_c, 1, 55, 0
1, 13896, Note_on_c, 1, 59, 64
1, 13917, Note_on_c, 0, 79, 0
1, 13919, Note_on_c, 1, 59, 0
1, 13920, Note_on_c, 0, 78, 75
1, 13920, Note_on_c, 1, 52, 64
1, 13943, Note_on_c, 1, 52, 0
1, 13944, Note_on_c, 1, 59, 64
1, 13965, Note_on_c, 0, 78, 0
1, 13967, Note_on_c, 1, 59, 0
1, 13968, Note_on_c, 0, 76, 75
1, 13968, Note_on_c, 1, 55, 64
1, 13991, Note_on_c, 1, 55, 0
1, 13992, Note_on_c, 1, 59, 64
1, 14013, Note_on_c, 0, 76, 0
1, 14015, Note_on_c, 1, 59, 0
1, 14016, Note_on_c, 0, 75, 75
1, 14016, Note_on_c, 1, 47, 64
1, 14039, Note_on_c, 1, 47, 0
1, 14040, Note_on_c, 1, 59, 64
1, 14061, Note_on_c, 0, 75, 0
1, 14063, Note_on_c, 1, 59, 0
1, 14064, Note_on_c, 0, 84, 75
1, 14064, Note_on_c, 1, 54, 64
1, 14087, Note_on_c, 1, 54, 0
1, 14088, Note_on_c, 1, 59, 64
1, 14109, Note_on_c, 0, 84, 0
1, 14111, Note_on_c, 1, 59, 0
1, 14112, Note_on_c, 0, 83, 75
1, 14112, Note_on_c, 1, 47, 64
1, 14135, Note_on_c, 1, 47, 0
1, 14136, Note_on_c, 1, 59, 64
1, 14157, Note_on_c, 0, 83, 0
1, 14159, Note_on_c, 1, 59, 0
1, 14160, Note_on_c, 0, 79, 75
1, 14160, Note_on_c, 1, 55, 64
1, 14183, Note_on_c, 1, 55, 0
1, 14184, Note_on_c, 1, 59, 64
1, 14205, Note_on_c, 0, 79, 0
1, 14207, Note_on_c, 1, 59, 0
1, 14208, Note_on_c, 0, 77, 75
1, 14208, Note_on_c, 0, 72, 75
1, 14208, Note_on_c, 1, 57, 75
1, 14247, Note_on_c, 0, 77, 0
1, 14247, Note_on_c, 0, 72, 0
1, 14247, Note_on_c, 1, 57, 0
1, 14304, Note_on_c, 0, 75, 75
1, 14304, Note_on_c, 0, 69, 75
1, 14304, Note_on_c, 1, 59, 75
1, 14343, Note_on_c, 0, 75, 0
1, 14343, Note_on_c, 0, 69, 0
1, 14343, Note_on_c, 1, 59, 0
1, 14400, Note_on_c, 0, 76, 75
1, 14400, Note_on_c, 0, 67, 75
1, 14400, Note_on_c, 1, 60, 75
1, 14489, Note_on_c, 0, 76, 0
1, 14489, Note_on_c, 0, 67, 0
1, 14489, Note_on_c, 1, 60, 0
1, 14544, Note_on_c, 0, 74, 75
1, 14544, Note_on_c, 0, 71, 75
1, 14544, Note_on_c, 1, 56, 75
1, 14589, Note_on_c, 0, 74, 0
1, 14589, Note_on_c, 0, 71, 0
1, 14589, Note_on_c, 1, 56, 0
1, 14592, Note_on_c, 0, 72, 75
1, 14592, Note_on_c, 0, 69, 75
1, 14592, Note_on_c, 1, 57, 75
1, 14631, Note_on_c, 0, 72, 0
1, 14631, Note_on_c, 0, 69, 0
1, 14631, Note_on_c, 1, 57, 0
1, 14688, Note_on_c, 0, 71, 75
1, 14688, Note_on_c, 0, 68, 75
1, 14688, Note_on_c, 1, 52, 75
1, 14727, Note_on_c, 0, 71, 0
1, 14727, Note_on_c, 0, 68, 0
1, 14727, Note_on_c, 1, 52, 0
1, 14784, Note_on_c, 0, 69, 75
1, 14784, Note_on_c, 0, 65, 75
1, 14784, Note_on_c, 1, 53, 75
1, 14873, Note_on_c, 0, 69, 0
1, 14873, Note_on_c, 0, 65, 0
1, 14873, Note_on_c, 1, 53, 0
1, 14928, Note_on_c, 0, 72, 91
1, 14976, Note_on_c, 1, 46, 64
1, 14999, Note_on_c, 1, 46, 0
1, 15000, Note_on_c, 1, 55, 64
1, 15021, Note_on_c, 0, 72, 0
1, 15023, Note_on_c, 1, 55, 0
1, 15024, Note_on_c, 0, 62, 75
1, 15024, Note_on_c, 1, 50, 64
1, 15047, Note_on_c, 1, 50, 0
1, 15048, Note_on_c, 1, 55, 64
1, 15071, Note_on_c, 1, 55, 0
1, 15072, Note_on_c, 1, 43, 64
1, 15095, Note_on_c, 1, 43, 0
1, 15096, Note_on_c, 1, 52, 64
1, 15113, Note_on_c, 0, 62, 0
1, 15119, Note_on_c, 1, 52, 0
1, 15120, Note_on_c, 0, 70, 91
1, 15120, Note_on_c, 1, 46, 64
1, 15143, Note_on_c, 1, 46, 0
1, 15144, Note_on_c, 1, 52, 64
1, 15167, Note_on_c, 1, 52, 0
1, 15168, Note_on_c, 1, 40, 64
1, 15191, Note_on_c, 1, 40, 0
1, 15192, Note_on_c, 1, 48, 64
1, 15215, Note_on_c, 1, 48, 0
1, 15216, Note_on_c, 0, 70, 0
1, 15216, Note_on_c, 0, 60, 75
1, 15216, Note_on_c, 1, 43, 64
1, 15239, Note_on_c, 1, 43, 0
1, 15240, Note_on_c, 1, 48, 64
1, 15263, Note_on_c, 1, 48, 0
1, 15264, Note_on_c, 1, 41, 64
1, 15287, Note_on_c, 1, 41, 0
1, 15288, Note_on_c, 1, 48, 64
1, 15305, Note_on_c, 0, 60, 0
1, 15311, Note_on_c, 1, 48, 0
1, 15312, Note_on_c, 0, 69, 91
1, 15312, Note_on_c, 1, 45, 64
1, 15335, Note_on_c, 1, 45, 0
1, 15336, Note_on_c, 1, 48, 64
1, 15359, Note_on_c, 1, 48, 0
1, 15360, Note_on_c, 1, 62, 64
1, 15360, Note_on_c, 1, 46, 64
1, 15383, Note_on_c, 0, 69, 0
1, 15384, Note_on_c, 0, 69, 75
1, 15407, Note_on_c, 0, 69, 0
1, 15408, Note_on_c, 0, 67, 75
1, 15431, Note_on_c, 0, 67, 0
1, 15432, Note_on_c, 0, 65, 75
1, 15449, Note_on_c, 1, 62, 0
1, 15449, Note_on_c, 1, 46, 0
1, 15455, Note_on_c, 0, 65, 0
1, 15456, Note_on_c, 0, 64, 75
1, 15456, Note_on_c, 1, 55, 64
1, 15476, Note_on_c, 0, 64, 0
1, 15501, Note_on_c, 1, 55, 0
1, 15504, Note_on_c, 0, 65, 75
1, 15504, Note_on_c, 1, 57, 64
1, 15524, Note_on_c, 0, 65, 0
1, 15549, Note_on_c, 1, 57, 0
1, 15552, Note_on_c, 0, 69, 75
1, 15552, Note_on_c, 0, 65, 75
1, 15552, Note_on_c, 1, 48, 64
1, 15575, Note_on_c, 1, 48, 0
1, 15576, Note_on_c, 1, 59, 64
1, 15599, Note_on_c, 1, 59, 0
1, 15600, Note_on_c, 1, 60, 64
1, 15623, Note_on_c, 1, 60, 0
1, 15624, Note_on_c, 1, 59, 64
1, 15647, Note_on_c, 1, 59, 0
1, 15648, Note_on_c, 0, 69, 0
1, 15648, Note_on_c, 0, 65, 0
1, 15648, Note_on_c, 0, 67, 75
1, 15648, Note_on_c, 0, 64, 75
1, 15648, Note_on_c, 1, 60, 64
1, 15693, Note_on_c, 0, 67, 0
1, 15693, Note_on_c, 0, 64, 0
1, 15693, Note_on_c, 1, 60, 0
1, 15696, Note_on_c, 0, 72, 80
1, 15696, Note_on_c, 1, 48, 80
1, 15696, Note_on_c, 1, 36, 80
1, 15719, Note_on_c, 0, 72, 0
1, 15720, Note_on_c, 0, 81, 80
1, 15741, Note_on_c, 1, 48, 0
1, 15741, Note_on_c, 1, 36, 0
1, 15743, Note_on_c, 0, 81, 0
1, 15744, Note_on_c, 0, 72, 80
1, 15744, Note_on_c, 1, 53, 80
1, 15744, Note_on_c, 1, 41, 80
1, 15764, Note_on_c, 1, 53, 0
1, 15764, Note_on_c, 1, 41, 0
1, 15767, Note_on_c, 0, 72, 0
1, 15768, Note_on_c, 0, 81, 80
1, 15791, Note_on_c, 0, 81, 0
1, 15792, Note_on_c, 0, 72, 80
1, 15792, Note_on_c, 1, 57, 80
1, 15792, Note_on_c, 1, 45, 80
1, 15812, Note_on_c, 1, 57, 0
1, 15812, Note_on_c, 1, 45, 0
1, 15815, Note_on_c, 0, 72, 0
1, 15816, Note_on_c, 0, 81, 80
1, 15839, Note_on_c, 0, 81, 0
1, 15840, Note_on_c, 0, 72, 80
1, 15840, Note_on_c, 1, 55, 80
1, 15840, Note_on_c, 1, 43, 80
1, 15860, Note_on_c, 1, 55, 0
1, 15860, Note_on_c, 1, 43, 0
1, 15863, Note_on_c, 0, 72, 0
1, 15864, Note_on_c, 0, 81, 80
1, 15887, Note_on_c, 0, 81, 0
1, 15888, Note_on_c, 0, 72, 80
1, 15888, Note_on_c, 1, 53, 80
1, 15888, Note_on_c, 1, 41, 80
1, 15908, Note_on_c, 1, 53, 0
1, 15908, Note_on_c, 1, 41, 0
1, 15911, Note_on_c, 0, 72, 0
1, 15912, Note_on_c, 0, 81, 80
1, 15935, Note_on_c, 0, 81, 0
1, 15936, Note_on_c, 0, 73, 80
1, 15936, Note_on_c, 1, 52, 80
1, 15936, Note_on_c, 1, 40, 80
1, 15956, Note_on_c, 1, 52, 0
1, 15956, Note_on_c, 1, 40, 0
1, 15959, Note_on_c, 0, 73, 0
1, 15960, Note_on_c, 0, 82, 80
1, 15983, Note_on_c, 0, 82, 0
1, 15984, Note_on_c, 0, 73, 80
1, 15984, Note_on_c, 1, 61, 80
1, 15984, Note_on_c, 1, 49, 80
1, 16004, Note_on_c, 1, 61, 0
1, 16004, Note_on_c, 1, 49, 0
1, 16007, Note_on_c, 0, 73, 0
1, 16008, Note_on_c, 0, 82, 80
1, 16031, Note_on_c, 0, 82, 0
1, 16032, Note_on_c, 0, 73, 80
1, 16032, Note_on_c, 1, 60, 80
1, 16032, Note_on_c, 1, 48, 80
1, 16052, Note_on_c, 1, 60, 0
1, 16052, Note_on_c, 1, 48, 0
1, 16055, Note_on_c, 0, 73, 0
1, 16056, Note_on_c, 0, 82, 80
1, 16079, Note_on_c, 0, 82, 0
1, 16080, Note_on_c, 0, 73, 80
1, 16080, Note_on_c, 1, 58, 80
1, 16080, Note_on_c, 1, 46, 80
1, 16100, Note_on_c, 1, 58, 0
1, 16100, Note_on_c, 1, 46, 0
1, 16103, Note_on_c, 0, 73, 0
1, 16104, Note_on_c, 0, 82, 80
1, 16127, Note_on_c, 0, 82, 0
1, 16128, Note_on_c, 0, 72, 80
1, 16128, Note_on_c, 1, 57, 80
1, 16128, Note_on_c, 1, 45, 80
1, 16151, Note_on_c, 0, 72, 0
1, 16152, Note_on_c, 0, 77, 80
1, 16167, Note_on_c, 1, 57, 0
1, 16167, Note_on_c, 1, 45, 0
1, 16175, Note_on_c, 0, 77, 0
1, 16176, Note_on_c, 0, 81, 80
1, 16199, Note_on_c, 0, 81, 0
1, 16200, Note_on_c, 0, 84, 80
1, 16223, Note_on_c, 0, 84, 0
1, 16224, Note_on_c, 0, 70, 80
1, 16224, Note_on_c, 1, 60, 80
1, 16224, Note_on_c, 1, 48, 80
1, 16247, Note_on_c, 0, 70, 0
1, 16248, Note_on_c, 0, 72, 80
1, 16263, Note_on_c, 1, 60, 0
1, 16263, Note_on_c, 1, 48, 0
1, 16271, Note_on_c, 0, 72, 0
1, 16272, Note_on_c, 0, 76, 80
1, 16295, Note_on_c, 0, 76, 0
1, 16296, Note_on_c, 0, 79, 80
1, 16319, Note_on_c, 0, 79, 0
1, 16320, Note_on_c, 0, 77, 80
1, 16320, Note_on_c, 1, 53, 80
1, 16320, Note_on_c, 1, 41, 80
1, 16343, Note_on_c, 0, 77, 0
1, 16344, Note_on_c, 0, 72, 80
1, 16367, Note_on_c, 0, 72, 0
1, 16368, Note_on_c, 0, 69, 80
1, 16391, Note_on_c, 0, 69, 0
1, 16392, Note_on_c, 0, 65, 80
1, 16409, Note_on_c, 1, 53, 0
1, 16409, Note_on_c, 1, 41, 0
1, 16439, Note_on_c, 0, 65, 0
1, 16464, Note_on_c, 0, 72, 86
1, 16512, Note_on_c, 0, 72, 0
1, 16512, Note_on_c, 0, 70, 70
1, 16512, Note_on_c, 1, 52, 64
1, 16535, Note_on_c, 1, 52, 0
1, 16536, Note_on_c, 1, 60, 64
1, 16559, Note_on_c, 1, 60, 0
1, 16560, Note_on_c, 1, 55, 64
1, 16583, Note_on_c, 1, 55, 0
1, 16584, Note_on_c, 1, 60, 64
1, 16601, Note_on_c, 0, 70, 0
1, 16607, Note_on_c, 1, 60, 0
1, 16608, Note_on_c, 1, 52, 64
1, 16631, Note_on_c, 1, 52, 0
1, 16632, Note_on_c, 1, 60, 64
1, 16655, Note_on_c, 1, 60, 0
1, 16656, Note_on_c, 0, 46, 87
1, 16656, Note_on_c, 1, 55, 65
1, 16679, Note_on_c, 1, 55, 0
1, 16680, Note_on_c, 1, 60, 65
1, 16703, Note_on_c, 1, 60, 0
1, 16704, Note_on_c, 0, 46, 0
1, 16704, Note_on_c, 0, 45, 71
1, 16704, Note_on_c, 1, 53, 65
1, 16727, Note_on_c, 1, 53, 0
1, 16728, Note_on_c, 1, 60, 65
1, 16751, Note_on_c, 1, 60, 0
1, 16752, Note_on_c, 1, 57, 65
1, 16775, Note_on_c, 1, 57, 0
1, 16776, Note_on_c, 1, 60, 66
1, 16793, Note_on_c, 0, 45, 0
1, 16799, Note_on_c, 1, 60, 0
1, 16800, Note_on_c, 1, 53, 66
1, 16823, Note_on_c, 1, 53, 0
1, 16824, Note_on_c, 1, 60, 66
1, 16847, Note_on_c, 1, 60, 0
1, 16848, Note_on_c, 0, 74, 88
1, 16848, Note_on_c, 1, 57, 66
1, 16871, Note_on_c, 1, 57, 0
1, 16872, Note_on_c, 1, 60, 66
1, 16895, Note_on_c, 1, 60, 0
1, 16896, Note_on_c, 0, 74, 0
1, 16896, Note_on_c, 0, 72, 72
1, 16896, Note_on_c, 1, 54, 67
1, 16919, Note_on_c, 1, 54, 0
1, 16920, Note_on_c, 1, 62, 67
1, 16943, Note_on_c, 1, 62, 0
1, 16944, Note_on_c, 1, 57, 67
1, 16967, Note_on_c, 1, 57, 0
1, 16968, Note_on_c, 1, 62, 67
1, 16985, Note_on_c, 0, 72, 0
1, 16991, Note_on_c, 1, 62, 0
1, 16992, Note_on_c, 1, 54, 67
1, 17015, Note_on_c, 1, 54, 0
1, 17016, Note_on_c, 1, 62, 68
1, 17039, Note_on_c, 1, 62, 0
1, 17040, Note_on_c, 0, 48, 89
1, 17040, Note_on_c, 1, 57, 68
1, 17063, Note_on_c, 1, 57, 0
1, 17064, Note_on_c, 1, 62, 68
1, 17087, Note_on_c, 1, 62, 0
1, 17088, Note_on_c, 0, 48, 0
1, 17088, Note_on_c, 0, 47, 74
1, 17088, Note_on_c, 1, 55, 68
1, 17111, Note_on_c, 1, 55, 0
1, 17112, Note_on_c, 1, 62, 68
1, 17135, Note_on_c, 1, 62, 0
1, 17136, Note_on_c, 1, 59, 69
1, 17159, Note_on_c, 1, 59, 0
1, 17160, Note_on_c, 1, 62, 69
1, 17177, Note_on_c, 0, 47, 0
1, 17183, Note_on_c, 1, 62, 0
1, 17184, Note_on_c, 1, 55, 69
1, 17207, Note_on_c, 1, 55, 0
1, 17208, Note_on_c, 1, 62, 69
1, 17231, Note_on_c, 1, 62, 0
1, 17232, Note_on_c, 0, 76, 91
1, 17232, Note_on_c, 1, 59, 69
1, 17255, Note_on_c, 1, 59, 0
1, 17256, Note_on_c, 1, 62, 70
1, 17279, Note_on_c, 1, 62, 0
1, 17280, Note_on_c, 0, 76, 0
1, 17280, Note_on_c, 0, 74, 75
1, 17280, Note_on_c, 1, 56, 70
1, 17303, Note_on_c, 1, 56, 0
1, 17304, Note_on_c, 1, 64, 70
1, 17327, Note_on_c, 1, 64, 0
1, 17328, Note_on_c, 1, 59, 70
1, 17351, Note_on_c, 1, 59, 0
1, 17352, Note_on_c, 1, 64, 70
1, 17369, Note_on_c, 0, 74, 0
1, 17375, Note_on_c, 1, 64, 0
1, 17376, Note_on_c, 1, 56, 71
1, 17399, Note_on_c, 1, 56, 0
1, 17400, Note_on_c, 1, 64, 71
1, 17423, Note_on_c, 1, 64, 0
1, 17424, Note_on_c, 0, 50, 92
1, 17424, Note_on_c, 1, 59, 71
1, 17447, Note_on_c, 1, 59, 0
1, 17448, Note_on_c, 1, 64, 71
1, 17471, Note_on_c, 1, 64, 0
1, 17472, Note_on_c, 0, 50, 0
1, 17472, Note_on_c, 0, 48, 76
1, 17472, Note_on_c, 1, 57, 71
1, 17495, Note_on_c, 1, 57, 0
1, 17496, Note_on_c, 1, 64, 72
1, 17519, Note_on_c, 1, 64, 0
1, 17520, Note_on_c, 1, 60, 72
1, 17543, Note_on_c, 1, 60, 0
1, 17544, Note_on_c, 1, 64, 72
1, 17561, Note_on_c, 0, 48, 0
1, 17567, Note_on_c, 1, 64, 0
1, 17568, Note_on_c, 1, 57, 72
1, 17591, Note_on_c, 1, 57, 0
1, 17592, Note_on_c, 1, 65, 72
1, 17615, Note_on_c, 1, 65, 0
1, 17616, Note_on_c, 0, 84, 93
1, 17616, Note_on_c, 1, 60, 73
1, 17639, Note_on_c, 1, 60, 0
1, 17640, Note_on_c, 1, 65, 73
1, 17663, Note_on_c, 1, 65, 0
1, 17664, Note_on_c, 1, 57, 73
1, 17687, Note_on_c, 1, 57, 0
1, 17688, Note_on_c, 1, 65, 73
1, 17709, Note_on_c, 0, 84, 0
1, 17711, Note_on_c, 1, 65, 0
1, 17712, Note_on_c, 0, 81, 78
1, 17712, Note_on_c, 1, 60, 73
1, 17735, Note_on_c, 1, 60, 0
1, 17736, Note_on_c, 1, 65, 74
1, 17759, Note_on_c, 1, 65, 0
1, 17760, Note_on_c, 1, 57, 74
1, 17783, Note_on_c, 1, 57, 0
1, 17784, Note_on_c, 1, 65, 74
1, 17801, Note_on_c, 0, 81, 0
1, 17807, Note_on_c, 1, 65, 0
1, 17808, Note_on_c, 0, 77, 79
1, 17808, Note_on_c, 1, 45, 74
1, 17831, Note_on_c, 1, 45, 0
1, 17832, Note_on_c, 1, 48, 74
1, 17853, Note_on_c, 0, 77, 0
1, 17855, Note_on_c, 1, 48, 0
1, 17856, Note_on_c, 0, 75, 79
1, 17856, Note_on_c, 0, 72, 79
1, 17856, Note_on_c, 0, 69, 79
1, 17856, Note_on_c, 0, 66, 79
1, 17856, Note_on_c, 1, 57, 75
1, 17856, Note_on_c, 1, 45, 75
1, 17945, Note_on_c, 0, 75, 0
1, 17945, Note_on_c, 0, 72, 0
1, 17945, Note_on_c, 0, 69, 0
1, 17945, Note_on_c, 0, 66, 0
1, 17945, Note_on_c, 1, 57, 0
1, 17945, Note_on_c, 1, 45, 0
1, 18000, Note_on_c, 0, 63, 75
1, 18012, Note_on_c, 0, 63, 0
1, 18012, Note_on_c, 0, 75, 75
1, 18045, Note_on_c, 0, 75, 0
1, 18048, Note_on_c, 0, 64, 75
1, 18060, Note_on_c, 0, 64, 0
1, 18060, Note_on_c, 0, 76, 75
1, 18093, Note_on_c, 0, 76, 0
1, 18096, Note_on_c, 0, 66, 76
1, 18108, Note_on_c, 0, 66, 0
1, 18108, Note_on_c, 0, 78, 76
1, 18141, Note_on_c, 0, 78, 0
1, 18144, Note_on_c, 0, 67, 76
1, 18156, Note_on_c, 0, 67, 0
1, 18156, Note_on_c, 0, 79, 76
1, 18189, Note_on_c, 0, 79, 0
1, 18192, Note_on_c, 0, 70, 77
1, 18204, Note_on_c, 0, 70, 0
1, 18204, Note_on_c, 0, 82, 77
1, 18237, Note_on_c, 0, 82, 0
1, 18240, Note_on_c, 0, 71, 78
1, 18252, Note_on_c, 0, 71, 0
1, 18252, Note_on_c, 0, 83, 78
1, 18285, Note_on_c, 0, 83, 0
1, 18288, Note_on_c, 0, 75, 78
1, 18300, Note_on_c, 0, 75, 0
1, 18300, Note_on_c, 0, 87, 78
1, 18333, Note_on_c, 0, 87, 0
1, 18336, Note_on_c, 0, 76, 79
1, 18348, Note_on_c, 0, 76, 0
1, 18348, Note_on_c, 0, 88, 79
1, 18381, Note_on_c, 0, 88, 0
1, 18384, Note_on_c, 0, 76, 80
1, 18390, Note_on_c, 0, 76, 0
1, 18390, Note_on_c, 0, 88, 80
1, 18429, Note_on_c, 0, 88, 0
1, 18432, Note_on_c, 0, 77, 74
1, 18444, Note_on_c, 0, 77, 0
1, 18444, Note_on_c, 0, 89, 74
1, 18471, Note_on_c, 0, 89, 0
1, 18528, Note_on_c, 0, 75, 64
1, 18540, Note_on_c, 0, 75, 0
1, 18540, Note_on_c, 0, 87, 64
1, 18567, Note_on_c, 0, 87, 0
1, 18768, Note_on_c, 0, 59, 75
1, 18813, Note_on_c, 0, 59, 0
1, 18816, Note_on_c, 0, 64, 91
1, 18816, Note_on_c, 1, 52, 64
1, 18839, Note_on_c, 1, 52, 0
1, 18840, Note_on_c, 1, 59, 64
1, 18863, Note_on_c, 1, 59, 0
1, 18864, Note_on_c, 0, 64, 0
1, 18864, Note_on_c, 0, 67, 75
1, 18864, Note_on_c, 1, 55, 64
1, 18887, Note_on_c, 1, 55, 0
1, 18888, Note_on_c, 1, 59, 64
1, 18909, Note_on_c, 0, 67, 0
1, 18911, Note_on_c, 1, 59, 0
1, 18912, Note_on_c, 0, 66, 75
1, 18912, Note_on_c, 1, 52, 64
1, 18935, Note_on_c, 1, 52, 0
1, 18936, Note_on_c, 1, 59, 64
1, 18957, Note_on_c, 0, 66, 0
1, 18959, Note_on_c, 1, 59, 0
1, 18960, Note_on_c, 0, 64, 75
1, 18960, Note_on_c, 1, 55, 64
1, 18983, Note_on_c, 1, 55, 0
1, 18984, Note_on_c, 1, 59, 64
1, 19005, Note_on_c, 0, 64, 0
1, 19007, Note_on_c, 1, 59, 0
1, 19008, Note_on_c, 0, 63, 75
1, 19008, Note_on_c, 1, 47, 64
1, 19031, Note_on_c, 1, 47, 0
1, 19032, Note_on_c, 1, 59, 64
1, 19053, Note_on_c, 0, 63, 0
1, 19055, Note_on_c, 1, 59, 0
1, 19056, Note_on_c, 0, 72, 75
1, 19056, Note_on_c, 1, 54, 64
1, 19079, Note_on_c, 1, 54, 0
1, 19080, Note_on_c, 1, 59, 64
1, 19101, Note_on_c, 0, 72, 0
1, 19103, Note_on_c, 1, 59, 0
1, 19104, Note_on_c, 0, 71, 75
1, 19104, Note_on_c, 1, 47, 64
1, 19127, Note_on_c, 1, 47, 0
1, 19128, Note_on_c, 1, 59, 64
1, 19149, Note_on_c, 0, 71, 0
1, 19151, Note_on_c, 1, 59, 0
1, 19152, Note_on_c, 0, 81, 75
1, 19152, Note_on_c, 1, 54, 64
1, 19175, Note_on_c, 1, 54, 0
1, 19176, Note_on_c, 1, 59, 64
1, 19197, Note_on_c, 0, 81, 0
1, 19199, Note_on_c, 1, 59, 0
1, 19200, Note_on_c, 0, 81, 91
1, 19200, Note_on_c, 1, 52, 64
1, 19223, Note_on_c, 1, 52, 0
1, 19224, Note_on_c, 0, 81, 0
1, 19224, Note_on_c, 0, 79, 75
1, 19224, Note_on_c, 1, 59, 64
1, 19247, Note_on_c, 0, 79, 0
1, 19247, Note_on_c, 1, 59, 0
1, 19248, Note_on_c, 0, 78, 75
1, 19248, Note_on_c, 1, 55, 64
1, 19271, Note_on_c, 0, 78, 0
1, 19271, Note_on_c, 1, 55, 0
1, 19272, Note_on_c, 0, 76, 75
1, 19272, Note_on_c, 1, 59, 64
1, 19295, Note_on_c, 0, 76, 0
1, 19295, Note_on_c, 1, 59, 0
1, 19296, Note_on_c, 0, 75, 75
1, 19296, Note_on_c, 1, 54, 64
1, 19316, Note_on_c, 0, 75, 0
1, 19319, Note_on_c, 1, 54, 0
1, 19320, Note_on_c, 1, 59, 64
1, 19343, Note_on_c, 1, 59, 0
1, 19344, Note_on_c, 0, 76, 75
1, 19344, Note_on_c, 1, 55, 64
1, 19364, Note_on_c, 0, 76, 0
1, 19367, Note_on_c, 1, 55, 0
1, 19368, Note_on_c, 1, 59, 64
1, 19391, Note_on_c, 1, 59, 0
1, 19392, Note_on_c, 0, 78, 75
1, 19392, Note_on_c, 1, 47, 64
1, 19415, Note_on_c, 0, 78, 0
1, 19416, Note_on_c, 0, 76, 75
1, 19439, Note_on_c, 0, 76, 0
1, 19440, Note_on_c, 0, 75, 75
1, 19463, Note_on_c, 0, 75, 0
1, 19464, Note_on_c, 0, 73, 75
1, 19481, Note_on_c, 1, 47, 0
1, 19487, Note_on_c, 0, 73, 0
1, 19488, Note_on_c, 0, 71, 75
1, 19533, Note_on_c, 0, 71, 0
1, 19536, Note_on_c, 0, 79, 91
1, 19584, Note_on_c, 1, 49, 64
1, 19607, Note_on_c, 1, 49, 0
1, 19608, Note_on_c, 1, 57, 64
1, 19629, Note_on_c, 0, 79, 0
1, 19631, Note_on_c, 1, 57, 0
1, 19632, Note_on_c, 0, 69, 75
1, 19632, Note_on_c, 1, 52, 64
1, 19655, Note_on_c, 1, 52, 0
1, 19656, Note_on_c, 1, 57, 64
1, 19679, Note_on_c, 1, 57, 0
1, 19680, Note_on_c, 1, 50, 64
1, 19703, Note_on_c, 1, 50, 0
1, 19704, Note_on_c, 1, 57, 64
1, 19721, Note_on_c, 0, 69, 0
1, 19727, Note_on_c, 1, 57, 0
1, 19728, Note_on_c, 0, 77, 91
1, 19728, Note_on_c, 1, 53, 64
1, 19751, Note_on_c, 1, 53, 0
1, 19752, Note_on_c, 1, 57, 64
1, 19775, Note_on_c, 1, 57, 0
1, 19776, Note_on_c, 1, 47, 64
1, 19799, Note_on_c, 1, 47, 0
1, 19800, Note_on_c, 1, 55, 64
1, 19823, Note_on_c, 1, 55, 0
1, 19824, Note_on_c, 0, 77, 0
1, 19824, Note_on_c, 0, 67, 75
1, 19824, Note_on_c, 1, 50, 64
1, 19847, Note_on_c, 1, 50, 0
1, 19848, Note_on_c, 1, 55, 64
1, 19871, Note_on_c, 1, 55, 0
1, 19872, Note_on_c, 1, 48, 64
1, 19895, Note_on_c, 1, 48, 0
1, 19896, Note_on_c, 1, 55, 64
1, 19913, Note_on_c, 0, 67, 0
1, 19919, Note_on_c, 1, 55, 0
1, 19920, Note_on_c, 0, 76, 91
1, 19920, Note_on_c, 1, 52, 64
1, 19943, Note_on_c, 1, 52, 0
1, 19944, Note_on_c, 1, 55, 64
1, 19967, Note_on_c, 1, 55, 0
1, 19968, Note_on_c, 0, 76, 0
1, 19968, Note_on_c, 0, 75, 75
1, 19968, Note_on_c, 1, 47, 64
1, 19988, Note_on_c, 0, 75, 0
1, 19991, Note_on_c, 1, 47, 0
1, 19992, Note_on_c, 1, 54, 64
1, 20015, Note_on_c, 1, 54, 0
1, 20016, Note_on_c, 0, 76, 75
1, 20016, Note_on_c, 1, 51, 64
1, 20036, Note_on_c, 0, 76, 0
1, 20039, Note_on_c, 1, 51, 0
1, 20040, Note_on_c, 1, 54, 64
1, 20063, Note_on_c, 1, 54, 0
1, 20064, Note_on_c, 0, 81, 75
1, 20064, Note_on_c, 0, 78, 75
1, 20064, Note_on_c, 1, 47, 64
1, 20084, Note_on_c, 0, 81, 0
1, 20084, Note_on_c, 0, 78, 0
1, 20087, Note_on_c, 1, 47, 0
1, 20088, Note_on_c, 1, 55, 64
1, 20111, Note_on_c, 1, 55, 0
1, 20112, Note_on_c, 0, 79, 75
1, 20112, Note_on_c, 0, 76, 75
1, 20112, Note_on_c, 1, 52, 64
1, 20132, Note_on_c, 0, 79, 0
1, 20132, Note_on_c, 0, 76, 0
1, 20135, Note_on_c, 1, 52, 0
1, 20136, Note_on_c, 1, 55, 64
1, 20159, Note_on_c, 1, 55, 0
1, 20160, Note_on_c, 0, 79, 91
1, 20160, Note_on_c, 0, 76, 91
1, 20160, Note_on_c, 1, 47, 64
1, 20183, Note_on_c, 1, 47, 0
1, 20184, Note_on_c, 1, 58, 64
1, 20207, Note_on_c, 1, 58, 0
1, 20208, Note_on_c, 1, 59, 64
1, 20231, Note_on_c, 1, 59, 0
1, 20232, Note_on_c, 1, 58, 64
1, 20255, Note_on_c, 1, 58, 0
1, 20256, Note_on_c, 0, 79, 0
1, 20256, Note_on_c, 0, 76, 0
1, 20256, Note_on_c, 0, 78, 75
1, 20256, Note_on_c, 0, 75, 75
1, 20256, Note_on_c, 1, 59, 64
1, 20276, Note_on_c, 0, 78, 0
1, 20276, Note_on_c, 0, 75, 0
1, 20279, Note_on_c, 1, 59, 0
1, 20280, Note_on_c, 1, 57, 64
1, 20303, Note_on_c, 1, 57, 0
1, 20304, Note_on_c, 0, 59, 75
1, 20304, Note_on_c, 1, 55, 64
1, 20327, Note_on_c, 1, 55, 0
1, 20328, Note_on_c, 1, 54, 64
1, 20349, Note_on_c, 0, 59, 0
1, 20351, Note_on_c, 1, 54, 0
1, 20352, Note_on_c, 0, 64, 91
1, 20352, Note_on_c, 1, 52, 64
1, 20375, Note_on_c, 1, 52, 0
1, 20376, Note_on_c, 1, 59, 64
1, 20399, Note_on_c, 1, 59, 0
1, 20400, Note_on_c, 0, 64, 0
1, 20400, Note_on_c, 0, 67, 75
1, 20400, Note_on_c, 1, 55, 64
1, 20423, Note_on_c, 1, 55, 0
1, 20424, Note_on_c, 1, 59, 64
1, 20445, Note_on_c, 0, 67, 0
1, 20447, Note_on_c, 1, 59, 0
1, 20448, Note_on_c, 0, 66, 75
1, 20448, Note_on_c, 1, 52, 64
1, 20471, Note_on_c, 1, 52, 0
1, 20472, Note_on_c, 1, 59, 64
1, 20493, Note_on_c, 0, 66, 0
1, 20495, Note_on_c, 1, 59, 0
1, 20496, Note_on_c, 0, 64, 75
1, 20496, Note_on_c, 1, 55, 64
1, 20519, Note_on_c, 1, 55, 0
1, 20520, Note_on_c, 1, 59, 64
1, 20541, Note_on_c, 0, 64, 0
1, 20543, Note_on_c, 1, 59, 0
1, 20544, Note_on_c, 0, 63, 75
1, 20544, Note_on_c, 1, 47, 64
1, 20567, Note_on_c, 1, 47, 0
1, 20568, Note_on_c, 1, 59, 64
1, 20589, Note_on_c, 0, 63, 0
1, 20591, Note_on_c, 1, 59, 0
1, 20592, Note_on_c, 0, 72, 75
1, 20592, Note_on_c, 1, 54, 64
1, 20615, Note_on_c, 1, 54, 0
1, 20616, Note_on_c, 1, 59, 64
1, 20637, Note_on_c, 0, 72, 0
1, 20639, Note_on_c, 1, 59, 0
1, 20640, Note_on_c, 0, 71, 75
1, 20640, Note_on_c, 1, 47, 64
1, 20663, Note_on_c, 1, 47, 0
1, 20664, Note_on_c, 1, 59, 64
1, 20685, Note_on_c, 0, 71, 0
1, 20687, Note_on_c, 1, 59, 0
1, 20688, Note_on_c, 0, 69, 75
1, 20688, Note_on_c, 1, 54, 64
1, 20711, Note_on_c, 1, 54, 0
1, 20712, Note_on_c, 1, 59, 64
1, 20733, Note_on_c, 0, 69, 0
1, 20735, Note_on_c, 1, 59, 0
1, 20736, Note_on_c, 0, 67, 75
1, 20736, Note_on_c, 0, 64, 75
1, 20736, Note_on_c, 1, 59, 64
1, 20775, Note_on_c, 0, 67, 0
1, 20775, Note_on_c, 0, 64, 0
1, 20775, Note_on_c, 1, 59, 0
1, 20832, Note_on_c, 0, 66, 75
1, 20832, Note_on_c, 0, 63, 75
1, 20832, Note_on_c, 1, 59, 64
1, 20871, Note_on_c, 0, 66, 0
1, 20871, Note_on_c, 0, 63, 0
1, 20871, Note_on_c, 1, 59, 0
1, 20928, Note_on_c, 0, 64, 91
1, 20928, Note_on_c, 0, 60, 91
1, 20928, Note_on_c, 0, 55, 91
1, 20928, Note_on_c, 1, 52, 80
1, 20928, Note_on_c, 1, 40, 80
1, 21024, Note_on_c, 0, 64, 0
1, 21024, Note_on_c, 0, 60, 0
1, 21024, Note_on_c, 0, 55, 0
1, 21024, Note_on_c, 1, 52, 0
1, 21024, Note_on_c, 1, 40, 0
1, 21072, Note_on_c, 0, 72, 91
1, 21120, Note_on_c, 1, 51, 64
1, 21143, Note_on_c, 1, 51, 0
1, 21144, Note_on_c, 1, 60, 64
1, 21165, Note_on_c, 0, 72, 0
1, 21167, Note_on_c, 1, 60, 0
1, 21168, Note_on_c, 0, 63, 75
1, 21168, Note_on_c, 1, 57, 65
1, 21191, Note_on_c, 1, 57, 0
1, 21192, Note_on_c, 1, 60, 66
1, 21215, Note_on_c, 1, 60, 0
1, 21216, Note_on_c, 1, 52, 67
1, 21239, Note_on_c, 1, 52, 0
1, 21240, Note_on_c, 1, 59, 68
1, 21257, Note_on_c, 0, 63, 0
1, 21263, Note_on_c, 1, 59, 0
1, 21264, Note_on_c, 0, 71, 91
1, 21264, Note_on_c, 1, 55, 69
1, 21287, Note_on_c, 1, 55, 0
1, 21288, Note_on_c, 1, 59, 69
1, 21311, Note_on_c, 1, 59, 0
1, 21312, Note_on_c, 1, 48, 70
1, 21335, Note_on_c, 1, 48, 0
1, 21336, Note_on_c, 1, 57, 71
1, 21359, Note_on_c, 1, 57, 0
1, 21360, Note_on_c, 0, 71, 0
1, 21360, Note_on_c, 0, 60, 75
1, 21360, Note_on_c, 1, 54, 72
1, 21383, Note_on_c, 1, 54, 0
1, 21384, Note_on_c, 1, 57, 73
1, 21407, Note_on_c, 1, 57, 0
1, 21408, Note_on_c, 1, 39, 74
1, 21431, Note_on_c, 1, 39, 0
1, 21432, Note_on_c, 1, 48, 75
1, 21449, Note_on_c, 0, 60, 0
1, 21455, Note_on_c, 1, 48, 0
1, 21456, Note_on_c, 0, 81, 91
1, 21456, Note_on_c, 1, 42, 75
1, 21479, Note_on_c, 1, 42, 0
1, 21480, Note_on_c, 1, 48, 75
1, 21503, Note_on_c, 1, 48, 0
1, 21504, Note_on_c, 1, 52, 75
1, 21504, Note_on_c, 1, 47, 75
1, 21504, Note_on_c, 1, 43, 75
1, 21504, Note_on_c, 1, 40, 75
1, 21527, Note_on_c, 0, 81, 0
1, 21528, Note_on_c, 0, 79, 75
1, 21551, Note_on_c, 0, 79, 0
1, 21552, Note_on_c, 0, 78, 75
1, 21575, Note_on_c, 0, 78, 0
1, 21576, Note_on_c, 0, 76, 75
1, 21593, Note_on_c, 1, 52, 0
1, 21593, Note_on_c, 1, 47, 0
1, 21593, Note_on_c, 1, 43, 0
1, 21593, Note_on_c, 1, 40, 0
1, 21599, Note_on_c, 0, 76, 0
1, 21600, Note_on_c, 0, 75, 75
1, 21645, Note_on_c, 0, 75, 0
1, 21648, Note_on_c, 0, 76, 75
1, 21693, Note_on_c, 0, 76, 0
1, 21696, Note_on_c, 0, 79, 75
1, 21696, Note_on_c, 0, 76, 75
1, 21720, Note_on_c, 1, 59, 75
1, 21743, Note_on_c, 1, 59, 0
1, 21744, Note_on_c, 1, 58, 75
1, 21767, Note_on_c, 1, 58, 0
1, 21768, Note_on_c, 1, 59, 75
1, 21791, Note_on_c, 1, 59, 0
1, 21792, Note_on_c, 0, 79, 0
1, 21792, Note_on_c, 0, 76, 0
1, 21792, Note_on_c, 0, 78, 75
1, 21792, Note_on_c, 0, 75, 75
1, 21792, Note_on_c, 1, 47, 75
1, 21812, Note_on_c, 0, 78, 0
1, 21812, Note_on_c, 0, 75, 0
1, 21837, Note_on_c, 1, 47, 0
1, 21840, Note_on_c, 0, 59, 70
1, 21885, Note_on_c, 0, 59, 0
1, 21888, Note_on_c, 0, 64, 86
1, 21888, Note_on_c, 1, 52, 64
1, 21911, Note_on_c, 1, 52, 0
1, 21912, Note_on_c, 1, 59, 64
1, 21935, Note_on_c, 1, 59, 0
1, 21936, Note_on_c, 0, 64, 0
1, 21936, Note_on_c, 0, 67, 70
1, 21936, Note_on_c, 1, 55, 64
1, 21959, Note_on_c, 1, 55, 0
1, 21960, Note_on_c, 1, 59, 64
1, 21981, Note_on_c, 0, 67, 0
1, 21983, Note_on_c, 1, 59, 0
1, 21984, Note_on_c, 0, 66, 70
1, 21984, Note_on_c, 1, 52, 64
1, 22007, Note_on_c, 1, 52, 0
1, 22008, Note_on_c, 1, 59, 64
1, 22029, Note_on_c, 0, 66, 0
1, 22031, Note_on_c, 1, 59, 0
1, 22032, Note_on_c, 0, 64, 70
1, 22032, Note_on_c, 1, 55, 64
1, 22055, Note_on_c, 1, 55, 0
1, 22056, Note_on_c, 1, 59, 64
1, 22077, Note_on_c, 0, 64, 0
1, 22079, Note_on_c, 1, 59, 0
1, 22080, Note_on_c, 0, 63, 70
1, 22080, Note_on_c, 1, 47, 64
1, 22103, Note_on_c, 1, 47, 0
1, 22104, Note_on_c, 1, 59, 64
1, 22125, Note_on_c, 0, 63, 0
1, 22127, Note_on_c, 1, 59, 0
1, 22128, Note_on_c, 0, 72, 70
1, 22128, Note_on_c, 1, 54, 64
1, 22151, Note_on_c, 1, 54, 0
1, 22152, Note_on_c, 1, 59, 64
1, 22173, Note_on_c, 0, 72, 0
1, 22175, Note_on_c, 1, 59, 0
1, 22176, Note_on_c, 0, 71, 70
1, 22176, Note_on_c, 1, 47, 64
1, 22199, Note_on_c, 1, 47, 0
1, 22200, Note_on_c, 1, 59, 64
1, 22221, Note_on_c, 0, 71, 0
1, 22223, Note_on_c, 1, 59, 0
1, 22224, Note_on_c, 0, 81, 70
1, 22224, Note_on_c, 0, 78, 70
1, 22224, Note_on_c, 1, 54, 64
1, 22247, Note_on_c, 1, 54, 0
1, 22248, Note_on_c, 1, 59, 64
1, 22269, Note_on_c, 0, 81, 0
1, 22269, Note_on_c, 0, 78, 0
1, 22271, Note_on_c, 1, 59, 0
1, 22272, Note_on_c, 0, 79, 64
1, 22272, Note_on_c, 0, 76, 64
1, 22272, Note_on_c, 1, 57, 64
1, 22311, Note_on_c, 0, 79, 0
1, 22311, Note_on_c, 0, 76, 0
1, 22311, Note_on_c, 1, 57, 0
1, 22368, Note_on_c, 0, 78, 62
1, 22368, Note_on_c, 0, 75, 62
1, 22368, Note_on_c, 1, 59, 64
1, 22407, Note_on_c, 0, 78, 0
1, 22407, Note_on_c, 0, 75, 0
1, 22407, Note_on_c, 1, 59, 0
1, 22464, Note_on_c, 0, 76, 60
1, 22464, Note_on_c, 1, 52, 64
1, 22509, Note_on_c, 0, 76, 0
1, 22512, Note_on_c, 0, 79, 59
1, 22535, Note_on_c, 0, 79, 0
1, 22536, Note_on_c, 0, 83, 59
1, 22553, Note_on_c, 1, 52, 0
1, 22559, Note_on_c, 0, 83, 0
1, 22560, Note_on_c, 0, 88, 58
1, 22605, Note_on_c, 0, 88, 0
1, 22656, Note_on_c, 1, 52, 0
1, 22745, Note_on_c, 1, 52, 0
1, 22755, End_track
0, 0, End_of_file