0, 0, Header, 0, 1, 120
1, 0, Start_track
1, 0, Tempo, 1500000
1, 480, Note_on_c, 0, 41, 45
1, 483, Note_on_c, 0, 45, 45
1, 486, Note_on_c, 0, 48, 45
1, 489, Note_on_c, 0, 53, 45
1, 492, Note_on_c, 0, 57, 44
1, 495, Note_on_c, 0, 60, 44
1, 498, Note_on_c, 0, 65, 44
1, 570, Note_on_c, 0, 60, 49
1, 582, Note_on_c, 0, 65, 0
1, 582, Note_on_c, 0, 57, 0
1, 582, Note_on_c, 0, 60, 0
1, 600, Note_on_c, 0, 60, 0
1, 600, Note_on_c, 0, 70, 47
1, 600, Note_on_c, 0, 53, 0
1, 600, Note_on_c, 0, 41, 0
1, 600, Note_on_c, 0, 45, 0
1, 600, Note_on_c, 0, 48, 0
1, 630, Note_on_c, 0, 70, 0
1, 630, Note_on_c, 0, 69, 46
1, 660, Note_on_c, 0, 69, 0
1, 660, Note_on_c, 0, 67, 44
1, 690, Note_on_c, 0, 67, 0
1, 690, Note_on_c, 0, 65, 43
1, 720, Note_on_c, 0, 65, 0
1, 720, Note_on_c, 0, 64, 41
1, 720, Note_on_c, 0, 58, 38
1, 720, Note_on_c, 0, 55, 38
1, 720, Note_on_c, 0, 48, 38
1, 750, Note_on_c, 0, 64, 0
1, 780, Note_on_c, 0, 65, 42
1, 810, Note_on_c, 0, 65, 0
1, 810, Note_on_c, 0, 48, 0
1, 810, Note_on_c, 0, 55, 0
1, 810, Note_on_c, 0, 58, 0
1, 840, Note_on_c, 0, 67, 44
1, 870, Note_on_c, 0, 67, 0
1, 900, Note_on_c, 0, 69, 45
1, 930, Note_on_c, 0, 69, 0
1, 960, Note_on_c, 0, 52, 40
1, 963, Note_on_c, 0, 55, 40
1, 966, Note_on_c, 0, 58, 40
1, 969, Note_on_c, 0, 60, 40
1, 972, Note_on_c, 0, 64, 48
1, 972, Note_on_c, 0, 67, 48
1, 972, Note_on_c, 0, 70, 48
1, 1050, Note_on_c, 0, 67, 49
1, 1062, Note_on_c, 0, 70, 0
1, 1062, Note_on_c, 0, 64, 0
1, 1062, Note_on_c, 0, 67, 0
1, 1080, Note_on_c, 0, 67, 0
1, 1080, Note_on_c, 0, 76, 47
1, 1080, Note_on_c, 0, 60, 0
1, 1080, Note_on_c, 0, 52, 0
1, 1080, Note_on_c, 0, 55, 0
1, 1080, Note_on_c, 0, 58, 0
1, 1110, Note_on_c, 0, 76, 0
1, 1110, Note_on_c, 0, 74, 45
1, 1140, Note_on_c, 0, 74, 0
1, 1140, Note_on_c, 0, 72, 43
1, 1170, Note_on_c, 0, 72, 0
1, 1170, Note_on_c, 0, 70, 42
1, 1200, Note_on_c, 0, 70, 0
1, 1200, Note_on_c, 0, 69, 40
1, 1200, Note_on_c, 0, 60, 38
1, 1200, Note_on_c, 0, 53, 38
1, 1230, Note_on_c, 0, 69, 0
1, 1260, Note_on_c, 0, 70, 42
1, 1290, Note_on_c, 0, 70, 0
1, 1290, Note_on_c, 0, 53, 0
1, 1290, Note_on_c, 0, 60, 0
1, 1320, Note_on_c, 0, 72, 45
1, 1350, Note_on_c, 0, 72, 0
1, 1380, Note_on_c, 0, 73, 49
1, 1410, Note_on_c, 0, 73, 0
1, 1440, Note_on_c, 0, 74, 39
1, 1440, Note_on_c, 0, 58, 36
1, 1440, Note_on_c, 0, 65, 36
1, 1530, Note_on_c, 0, 74, 0
1, 1530, Note_on_c, 0, 76, 42
1, 1560, Note_on_c, 0, 76, 0
1, 1560, Note_on_c, 0, 79, 50
1, 1590, Note_on_c, 0, 79, 0
1, 1590, Note_on_c, 0, 77, 48
1, 1620, Note_on_c, 0, 77, 0
1, 1620, Note_on_c, 0, 76, 46
1, 1650, Note_on_c, 0, 76, 0
1, 1650, Note_on_c, 0, 74, 44
1, 1680, Note_on_c, 0, 74, 0
1, 1680, Note_on_c, 0, 72, 41
1, 1680, Note_on_c, 0, 58, 0
1, 1680, Note_on_c, 0, 57, 36
1, 1710, Note_on_c, 0, 72, 0
1, 1740, Note_on_c, 0, 72, 40
1, 1770, Note_on_c, 0, 72, 0
1, 1800, Note_on_c, 0, 70, 40
1, 1800, Note_on_c, 0, 57, 0
1, 1800, Note_on_c, 0, 65, 0
1, 1810, Note_on_c, 0, 70, 0
1, 1810, Note_on_c, 0, 72, 40
1, 1820, Note_on_c, 0, 70, 40
1, 1825, Note_on_c, 0, 72, 0
1, 1830, Note_on_c, 0, 70, 0
1, 1830, Note_on_c, 0, 72, 40
1, 1845, Note_on_c, 0, 72, 0
1, 1845, Note_on_c, 0, 70, 40
1, 1860, Note_on_c, 0, 70, 0
1, 1860, Note_on_c, 0, 69, 40
1, 1920, Note_on_c, 0, 69, 0
1, 1920, Note_on_c, 0, 67, 48
1, 1920, Note_on_c, 0, 46, 48
1, 1920, Note_on_c, 0, 58, 48
1, 1980, Note_on_c, 0, 67, 0
1, 1980, Note_on_c, 0, 67, 37
1, 1990, Note_on_c, 0, 67, 0
1, 1990, Note_on_c, 0, 69, 38
1, 2000, Note_on_c, 0, 69, 0
1, 2000, Note_on_c, 0, 67, 39
1, 2010, Note_on_c, 0, 67, 0
1, 2010, Note_on_c, 0, 66, 41
1, 2025, Note_on_c, 0, 66, 0
1, 2025, Note_on_c, 0, 67, 43
1, 2040, Note_on_c, 0, 67, 0
1, 2040, Note_on_c, 0, 70, 45
1, 2100, Note_on_c, 0, 70, 0
1, 2100, Note_on_c, 0, 74, 46
1, 2160, Note_on_c, 0, 74, 0
1, 2160, Note_on_c, 0, 65, 40
1, 2160, Note_on_c, 0, 58, 0
1, 2160, Note_on_c, 0, 46, 0
1, 2160, Note_on_c, 0, 48, 47
1, 2160, Note_on_c, 0, 57, 47
1, 2280, Note_on_c, 0, 57, 0
1, 2280, Note_on_c, 0, 55, 42
1, 2340, Note_on_c, 0, 65, 0
1, 2340, Note_on_c, 0, 64, 44
1, 2350, Note_on_c, 0, 64, 0
1, 2350, Note_on_c, 0, 65, 44
1, 2360, Note_on_c, 0, 65, 0
1, 2360, Note_on_c, 0, 64, 44
1, 2400, Note_on_c, 0, 64, 0
1, 2400, Note_on_c, 0, 57, 44
1, 2400, Note_on_c, 0, 55, 0
1, 2400, Note_on_c, 0, 48, 0
1, 2400, Note_on_c, 0, 41, 45
1, 2403, Note_on_c, 0, 60, 44
1, 2403, Note_on_c, 0, 45, 45
1, 2406, Note_on_c, 0, 65, 44
1, 2406, Note_on_c, 0, 48, 45
1, 2409, Note_on_c, 0, 53, 45
1, 2490, Note_on_c, 0, 65, 0
1, 2490, Note_on_c, 0, 60, 0
1, 2490, Note_on_c, 0, 57, 0
1, 2490, Note_on_c, 0, 60, 49
1, 2520, Note_on_c, 0, 60, 0
1, 2520, Note_on_c, 0, 70, 47
1, 2520, Note_on_c, 0, 53, 0
1, 2520, Note_on_c, 0, 41, 0
1, 2520, Note_on_c, 0, 45, 0
1, 2520, Note_on_c, 0, 48, 0
1, 2550, Note_on_c, 0, 70, 0
1, 2550, Note_on_c, 0, 69, 46
1, 2580, Note_on_c, 0, 69, 0
1, 2580, Note_on_c, 0, 67, 44
1, 2610, Note_on_c, 0, 67, 0
1, 2610, Note_on_c, 0, 65, 43
1, 2640, Note_on_c, 0, 65, 0
1, 2640, Note_on_c, 0, 64, 39
1, 2640, Note_on_c, 0, 48, 46
1, 2640, Note_on_c, 0, 58, 46
1, 2685, Note_on_c, 0, 64, 0
1, 2685, Note_on_c, 0, 60, 32
1, 2700, Note_on_c, 0, 60, 0
1, 2700, Note_on_c, 0, 65, 42
1, 2700, Note_on_c, 0, 58, 0
1, 2700, Note_on_c, 0, 57, 44
1, 2745, Note_on_c, 0, 65, 0
1, 2745, Note_on_c, 0, 60, 32
1, 2760, Note_on_c, 0, 60, 0
1, 2760, Note_on_c, 0, 67, 45
1, 2760, Note_on_c, 0, 57, 0
1, 2760, Note_on_c, 0, 55, 42
1, 2805, Note_on_c, 0, 67, 0
1, 2805, Note_on_c, 0, 60, 32
1, 2820, Note_on_c, 0, 60, 0
1, 2820, Note_on_c, 0, 69, 48
1, 2820, Note_on_c, 0, 55, 0
1, 2820, Note_on_c, 0, 53, 40
1, 2865, Note_on_c, 0, 69, 0
1, 2865, Note_on_c, 0, 60, 32
1, 2880, Note_on_c, 0, 60, 0
1, 2880, Note_on_c, 0, 70, 50
1, 2880, Note_on_c, 0, 53, 0
1, 2880, Note_on_c, 0, 55, 38
1, 2880, Note_on_c, 0, 52, 38
1, 2970, Note_on_c, 0, 70, 0
1, 2970, Note_on_c, 0, 67, 40
1, 3000, Note_on_c, 0, 67, 0
1, 3000, Note_on_c, 0, 76, 52
1, 3030, Note_on_c, 0, 76, 0
1, 3030, Note_on_c, 0, 74, 49
1, 3060, Note_on_c, 0, 74, 0
1, 3060, Note_on_c, 0, 72, 45
1, 3090, Note_on_c, 0, 72, 0
1, 3090, Note_on_c, 0, 70, 42
1, 3120, Note_on_c, 0, 70, 0
1, 3120, Note_on_c, 0, 69, 40
1, 3120, Note_on_c, 0, 52, 0
1, 3120, Note_on_c, 0, 55, 0
1, 3120, Note_on_c, 0, 48, 0
1, 3120, Note_on_c, 0, 53, 36
1, 3120, Note_on_c, 0, 41, 36
1, 3180, Note_on_c, 0, 69, 0
1, 3180, Note_on_c, 0, 70, 40
1, 3210, Note_on_c, 0, 41, 0
1, 3210, Note_on_c, 0, 53, 0
1, 3240, Note_on_c, 0, 70, 0
1, 3240, Note_on_c, 0, 72, 43
1, 3300, Note_on_c, 0, 72, 0
1, 3300, Note_on_c, 0, 73, 45
1, 3360, Note_on_c, 0, 73, 0
1, 3360, Note_on_c, 0, 58, 46
1, 3360, Note_on_c, 0, 46, 46
1, 3390, Note_on_c, 0, 73, 47
1, 3420, Note_on_c, 0, 73, 0
1, 3420, Note_on_c, 0, 74, 41
1, 3450, Note_on_c, 0, 74, 0
1, 3450, Note_on_c, 0, 76, 42
1, 3480, Note_on_c, 0, 76, 0
1, 3480, Note_on_c, 0, 77, 43
1, 3480, Note_on_c, 0, 46, 0
1, 3480, Note_on_c, 0, 58, 0
1, 3510, Note_on_c, 0, 77, 0
1, 3510, Note_on_c, 0, 78, 44
1, 3540, Note_on_c, 0, 78, 0
1, 3540, Note_on_c, 0, 79, 45
1, 3570, Note_on_c, 0, 79, 0
1, 3570, Note_on_c, 0, 81, 46
1, 3600, Note_on_c, 0, 81, 0
1, 3600, Note_on_c, 0, 82, 47
1, 3630, Note_on_c, 0, 82, 0
1, 3630, Note_on_c, 0, 83, 48
1, 3660, Note_on_c, 0, 83, 0
1, 3660, Note_on_c, 0, 84, 49
1, 3690, Note_on_c, 0, 84, 0
1, 3690, Note_on_c, 0, 85, 50
1, 3720, Note_on_c, 0, 85, 0
1, 3720, Note_on_c, 0, 86, 51
1, 3720, Note_on_c, 0, 70, 47
1, 3720, Note_on_c, 0, 58, 47
1, 3750, Note_on_c, 0, 86, 0
1, 3750, Note_on_c, 0, 81, 49
1, 3780, Note_on_c, 0, 81, 0
1, 3780, Note_on_c, 0, 82, 45
1, 3810, Note_on_c, 0, 82, 0
1, 3810, Note_on_c, 0, 79, 41
1, 3840, Note_on_c, 0, 79, 0
1, 3840, Note_on_c, 0, 77, 48
1, 3840, Note_on_c, 0, 58, 0
1, 3840, Note_on_c, 0, 70, 0
1, 3840, Note_on_c, 0, 69, 48
1, 3840, Note_on_c, 0, 60, 48
1, 4020, Note_on_c, 0, 77, 0
1, 4020, Note_on_c, 0, 79, 40
1, 4050, Note_on_c, 0, 79, 0
1, 4050, Note_on_c, 0, 77, 40
1, 4080, Note_on_c, 0, 77, 0
1, 4080, Note_on_c, 0, 76, 40
1, 4080, Note_on_c, 0, 69, 0
1, 4080, Note_on_c, 0, 67, 37
1, 4200, Note_on_c, 0, 76, 0
1, 4200, Note_on_c, 0, 67, 0
1, 4200, Note_on_c, 0, 60, 0
1, 4320, Note_on_c, 0, 79, 47
1, 4320, Note_on_c, 0, 60, 36
1, 4350, Note_on_c, 0, 67, 36
1, 4380, Note_on_c, 0, 67, 0
1, 4380, Note_on_c, 0, 64, 36
1, 4410, Note_on_c, 0, 64, 0
1, 4410, Note_on_c, 0, 67, 36
1, 4440, Note_on_c, 0, 79, 0
1, 4440, Note_on_c, 0, 77, 43
1, 4440, Note_on_c, 0, 67, 0
1, 4440, Note_on_c, 0, 60, 0
1, 4440, Note_on_c, 0, 60, 36
1, 4470, Note_on_c, 0, 77, 0
1, 4470, Note_on_c, 0, 76, 42
1, 4470, Note_on_c, 0, 67, 36
1, 4500, Note_on_c, 0, 76, 0
1, 4500, Note_on_c, 0, 74, 42
1, 4500, Note_on_c, 0, 67, 0
1, 4500, Note_on_c, 0, 64, 36
1, 4530, Note_on_c, 0, 74, 0
1, 4530, Note_on_c, 0, 72, 41
1, 4530, Note_on_c, 0, 64, 0
1, 4530, Note_on_c, 0, 67, 36
1, 4560, Note_on_c, 0, 72, 0
1, 4560, Note_on_c, 0, 72, 40
1, 4560, Note_on_c, 0, 67, 0
1, 4560, Note_on_c, 0, 60, 0
1, 4560, Note_on_c, 0, 62, 36
1, 4590, Note_on_c, 0, 67, 36
1, 4620, Note_on_c, 0, 67, 0
1, 4620, Note_on_c, 0, 65, 36
1, 4650, Note_on_c, 0, 65, 0
1, 4650, Note_on_c, 0, 67, 36
1, 4680, Note_on_c, 0, 72, 0
1, 4680, Note_on_c, 0, 71, 39
1, 4680, Note_on_c, 0, 67, 0
1, 4680, Note_on_c, 0, 62, 0
1, 4680, Note_on_c, 0, 62, 36
1, 4690, Note_on_c, 0, 71, 0
1, 4690, Note_on_c, 0, 72, 39
1, 4700, Note_on_c, 0, 72, 0
1, 4700, Note_on_c, 0, 71, 39
1, 4710, Note_on_c, 0, 67, 36
1, 4740, Note_on_c, 0, 67, 0
1, 4740, Note_on_c, 0, 65, 36
1, 4770, Note_on_c, 0, 71, 0
1, 4770, Note_on_c, 0, 71, 39
1, 4770, Note_on_c, 0, 65, 0
1, 4770, Note_on_c, 0, 67, 36
1, 4785, Note_on_c, 0, 71, 0
1, 4800, Note_on_c, 0, 72, 38
1, 4800, Note_on_c, 0, 67, 0
1, 4800, Note_on_c, 0, 62, 0
1, 4800, Note_on_c, 0, 60, 36
1, 4830, Note_on_c, 0, 72, 0
1, 4830, Note_on_c, 0, 74, 39
1, 4830, Note_on_c, 0, 67, 36
1, 4860, Note_on_c, 0, 74, 0
1, 4860, Note_on_c, 0, 76, 41
1, 4860, Note_on_c, 0, 67, 0
1, 4860, Note_on_c, 0, 64, 36
1, 4890, Note_on_c, 0, 76, 0
1, 4890, Note_on_c, 0, 77, 43
1, 4890, Note_on_c, 0, 64, 0
1, 4890, Note_on_c, 0, 67, 36
1, 4920, Note_on_c, 0, 77, 0
1, 4920, Note_on_c, 0, 79, 44
1, 4920, Note_on_c, 0, 67, 0
1, 4920, Note_on_c, 0, 60, 0
1, 4920, Note_on_c, 0, 60, 36
1, 4950, Note_on_c, 0, 79, 0
1, 4950, Note_on_c, 0, 81, 46
1, 4950, Note_on_c, 0, 67, 36
1, 4980, Note_on_c, 0, 81, 0
1, 4980, Note_on_c, 0, 83, 48
1, 4980, Note_on_c, 0, 67, 0
1, 4980, Note_on_c, 0, 64, 36
1, 5010, Note_on_c, 0, 83, 0
1, 5010, Note_on_c, 0, 84, 49
1, 5010, Note_on_c, 0, 64, 0
1, 5010, Note_on_c, 0, 67, 36
1, 5040, Note_on_c, 0, 84, 0
1, 5040, Note_on_c, 0, 84, 50
1, 5040, Note_on_c, 0, 67, 0
1, 5040, Note_on_c, 0, 60, 0
1, 5040, Note_on_c, 0, 62, 36
1, 5070, Note_on_c, 0, 84, 0
1, 5070, Note_on_c, 0, 83, 49
1, 5070, Note_on_c, 0, 67, 36
1, 5100, Note_on_c, 0, 83, 0
1, 5100, Note_on_c, 0, 81, 47
1, 5100, Note_on_c, 0, 67, 0
1, 5100, Note_on_c, 0, 65, 36
1, 5130, Note_on_c, 0, 81, 0
1, 5130, Note_on_c, 0, 79, 46
1, 5130, Note_on_c, 0, 65, 0
1, 5130, Note_on_c, 0, 67, 36
1, 5160, Note_on_c, 0, 79, 0
1, 5160, Note_on_c, 0, 79, 44
1, 5160, Note_on_c, 0, 67, 0
1, 5160, Note_on_c, 0, 62, 0
1, 5160, Note_on_c, 0, 62, 36
1, 5190, Note_on_c, 0, 79, 0
1, 5190, Note_on_c, 0, 77, 43
1, 5190, Note_on_c, 0, 67, 36
1, 5220, Note_on_c, 0, 77, 0
1, 5220, Note_on_c, 0, 76, 41
1, 5220, Note_on_c, 0, 67, 0
1, 5220, Note_on_c, 0, 65, 36
1, 5250, Note_on_c, 0, 76, 0
1, 5250, Note_on_c, 0, 74, 40
1, 5250, Note_on_c, 0, 65, 0
1, 5250, Note_on_c, 0, 67, 36
1, 5280, Note_on_c, 0, 74, 0
1, 5280, Note_on_c, 0, 79, 46
1, 5280, Note_on_c, 0, 67, 0
1, 5280, Note_on_c, 0, 62, 0
1, 5280, Note_on_c, 0, 60, 36
1, 5310, Note_on_c, 0, 67, 36
1, 5340, Note_on_c, 0, 67, 0
1, 5340, Note_on_c, 0, 64, 36
1, 5370, Note_on_c, 0, 79, 0
1, 5370, Note_on_c, 0, 81, 46
1, 5370, Note_on_c, 0, 64, 0
1, 5370, Note_on_c, 0, 67, 36
1, 5385, Note_on_c, 0, 81, 0
1, 5385, Note_on_c, 0, 79, 46
1, 5400, Note_on_c, 0, 79, 0
1, 5400, Note_on_c, 0, 77, 45
1, 5400, Note_on_c, 0, 67, 0
1, 5400, Note_on_c, 0, 60, 0
1, 5400, Note_on_c, 0, 60, 36
1, 5415, Note_on_c, 0, 77, 0
1, 5430, Note_on_c, 0, 76, 44
1, 5430, Note_on_c, 0, 67, 36
1, 5445, Note_on_c, 0, 76, 0
1, 5460, Note_on_c, 0, 74, 42
1, 5460, Note_on_c, 0, 67, 0
1, 5460, Note_on_c, 0, 64, 36
1, 5475, Note_on_c, 0, 74, 0
1, 5490, Note_on_c, 0, 72, 41
1, 5490, Note_on_c, 0, 64, 0
1, 5490, Note_on_c, 0, 67, 36
1, 5505, Note_on_c, 0, 72, 0
1, 5520, Note_on_c, 0, 72, 39
1, 5520, Note_on_c, 0, 67, 0
1, 5520, Note_on_c, 0, 60, 0
1, 5520, Note_on_c, 0, 62, 36
1, 5550, Note_on_c, 0, 67, 36
1, 5580, Note_on_c, 0, 67, 0
1, 5580, Note_on_c, 0, 65, 36
1, 5610, Note_on_c, 0, 65, 0
1, 5610, Note_on_c, 0, 67, 36
1, 5640, Note_on_c, 0, 72, 0
1, 5640, Note_on_c, 0, 71, 39
1, 5640, Note_on_c, 0, 67, 0
1, 5640, Note_on_c, 0, 62, 0
1, 5640, Note_on_c, 0, 62, 36
1, 5650, Note_on_c, 0, 71, 0
1, 5650, Note_on_c, 0, 72, 39
1, 5660, Note_on_c, 0, 72, 0
1, 5660, Note_on_c, 0, 71, 39
1, 5670, Note_on_c, 0, 67, 36
1, 5700, Note_on_c, 0, 67, 0
1, 5700, Note_on_c, 0, 65, 36
1, 5730, Note_on_c, 0, 71, 0
1, 5730, Note_on_c, 0, 77, 47
1, 5730, Note_on_c, 0, 65, 0
1, 5730, Note_on_c, 0, 67, 36
1, 5745, Note_on_c, 0, 77, 0
1, 5760, Note_on_c, 0, 76, 41
1, 5760, Note_on_c, 0, 67, 0
1, 5760, Note_on_c, 0, 62, 0
1, 5760, Note_on_c, 0, 60, 36
1, 5775, Note_on_c, 0, 76, 0
1, 5790, Note_on_c, 0, 77, 40
1, 5790, Note_on_c, 0, 67, 36
1, 5805, Note_on_c, 0, 77, 0
1, 5820, Note_on_c, 0, 79, 40
1, 5820, Note_on_c, 0, 67, 0
1, 5820, Note_on_c, 0, 64, 36
1, 5835, Note_on_c, 0, 79, 0
1, 5850, Note_on_c, 0, 81, 40
1, 5850, Note_on_c, 0, 64, 0
1, 5850, Note_on_c, 0, 67, 36
1, 5865, Note_on_c, 0, 81, 0
1, 5880, Note_on_c, 0, 83, 40
1, 5880, Note_on_c, 0, 67, 0
1, 5880, Note_on_c, 0, 60, 0
1, 5880, Note_on_c, 0, 60, 36
1, 5895, Note_on_c, 0, 83, 0
1, 5910, Note_on_c, 0, 84, 40
1, 5910, Note_on_c, 0, 67, 36
1, 5925, Note_on_c, 0, 84, 0
1, 5940, Note_on_c, 0, 83, 40
1, 5940, Note_on_c, 0, 67, 0
1, 5940, Note_on_c, 0, 64, 36
1, 5955, Note_on_c, 0, 83, 0
1, 5970, Note_on_c, 0, 84, 40
1, 5970, Note_on_c, 0, 64, 0
1, 5970, Note_on_c, 0, 67, 36
1, 5985, Note_on_c, 0, 84, 0
1, 6000, Note_on_c, 0, 84, 49
1, 6000, Note_on_c, 0, 67, 0
1, 6000, Note_on_c, 0, 60, 0
1, 6000, Note_on_c, 0, 62, 36
1, 6030, Note_on_c, 0, 84, 0
1, 6030, Note_on_c, 0, 83, 46
1, 6030, Note_on_c, 0, 67, 36
1, 6060, Note_on_c, 0, 83, 0
1, 6060, Note_on_c, 0, 81, 43
1, 6060, Note_on_c, 0, 67, 0
1, 6060, Note_on_c, 0, 65, 36
1, 6090, Note_on_c, 0, 81, 0
1, 6090, Note_on_c, 0, 79, 40
1, 6090, Note_on_c, 0, 65, 0
1, 6090, Note_on_c, 0, 67, 36
1, 6120, Note_on_c, 0, 79, 0
1, 6120, Note_on_c, 0, 79, 47
1, 6120, Note_on_c, 0, 67, 0
1, 6120, Note_on_c, 0, 62, 0
1, 6120, Note_on_c, 0, 62, 36
1, 6150, Note_on_c, 0, 79, 0
1, 6150, Note_on_c, 0, 77, 45
1, 6150, Note_on_c, 0, 67, 36
1, 6180, Note_on_c, 0, 77, 0
1, 6180, Note_on_c, 0, 76, 43
1, 6180, Note_on_c, 0, 67, 0
1, 6180, Note_on_c, 0, 65, 36
1, 6210, Note_on_c, 0, 76, 0
1, 6210, Note_on_c, 0, 74, 40
1, 6210, Note_on_c, 0, 65, 0
1, 6210, Note_on_c, 0, 67, 36
1, 6240, Note_on_c, 0, 74, 0
1, 6240, Note_on_c, 0, 76, 40
1, 6240, Note_on_c, 0, 67, 0
1, 6240, Note_on_c, 0, 62, 0
1, 6240, Note_on_c, 0, 60, 36
1, 6270, Note_on_c, 0, 76, 0
1, 6270, Note_on_c, 0, 77, 42
1, 6270, Note_on_c, 0, 67, 36
1, 6300, Note_on_c, 0, 77, 0
1, 6300, Note_on_c, 0, 76, 44
1, 6300, Note_on_c, 0, 67, 0
1, 6300, Note_on_c, 0, 64, 38
1, 6330, Note_on_c, 0, 76, 0
1, 6330, Note_on_c, 0, 77, 46
1, 6330, Note_on_c, 0, 64, 0
1, 6330, Note_on_c, 0, 67, 40
1, 6360, Note_on_c, 0, 77, 0
1, 6360, Note_on_c, 0, 79, 48
1, 6360, Note_on_c, 0, 67, 0
1, 6360, Note_on_c, 0, 60, 0
1, 6360, Note_on_c, 0, 60, 42
1, 6390, Note_on_c, 0, 79, 0
1, 6390, Note_on_c, 0, 81, 50
1, 6390, Note_on_c, 0, 67, 43
1, 6420, Note_on_c, 0, 81, 0
1, 6420, Note_on_c, 0, 79, 52
1, 6420, Note_on_c, 0, 67, 0
1, 6420, Note_on_c, 0, 64, 45
1, 6450, Note_on_c, 0, 79, 0
1, 6450, Note_on_c, 0, 81, 53
1, 6450, Note_on_c, 0, 64, 0
1, 6450, Note_on_c, 0, 67, 47
1, 6480, Note_on_c, 0, 81, 0
1, 6480, Note_on_c, 0, 70, 55
1, 6480, Note_on_c, 0, 82, 55
1, 6480, Note_on_c, 0, 67, 0
1, 6480, Note_on_c, 0, 60, 0
1, 6480, Note_on_c, 0, 52, 49
1, 6510, Note_on_c, 0, 60, 49
1, 6540, Note_on_c, 0, 60, 0
1, 6540, Note_on_c, 0, 55, 48
1, 6570, Note_on_c, 0, 55, 0
1, 6570, Note_on_c, 0, 60, 48
1, 6600, Note_on_c, 0, 60, 0
1, 6600, Note_on_c, 0, 52, 0
1, 6600, Note_on_c, 0, 52, 47
1, 6630, Note_on_c, 0, 60, 46
1, 6660, Note_on_c, 0, 60, 0
1, 6660, Note_on_c, 0, 55, 46
1, 6690, Note_on_c, 0, 55, 0
1, 6690, Note_on_c, 0, 60, 45
1, 6720, Note_on_c, 0, 82, 0
1, 6720, Note_on_c, 0, 70, 0
1, 6720, Note_on_c, 0, 60, 0
1, 6720, Note_on_c, 0, 52, 0
1, 6720, Note_on_c, 0, 53, 45
1, 6750, Note_on_c, 0, 81, 38
1, 6750, Note_on_c, 0, 60, 43
1, 6780, Note_on_c, 0, 81, 0
1, 6780, Note_on_c, 0, 80, 38
1, 6780, Note_on_c, 0, 60, 0
1, 6780, Note_on_c, 0, 57, 40
1, 6810, Note_on_c, 0, 80, 0
1, 6810, Note_on_c, 0, 81, 38
1, 6810, Note_on_c, 0, 57, 0
1, 6810, Note_on_c, 0, 60, 38
1, 6840, Note_on_c, 0, 81, 0
1, 6840, Note_on_c, 0, 60, 0
1, 6840, Note_on_c, 0, 53, 0
1, 6840, Note_on_c, 0, 52, 46
1, 6870, Note_on_c, 0, 79, 46
1, 6870, Note_on_c, 0, 61, 36
1, 6900, Note_on_c, 0, 79, 0
1, 6900, Note_on_c, 0, 78, 46
1, 6900, Note_on_c, 0, 61, 0
1, 6900, Note_on_c, 0, 55, 36
1, 6930, Note_on_c, 0, 78, 0
1, 6930, Note_on_c, 0, 79, 46
1, 6930, Note_on_c, 0, 55, 0
1, 6930, Note_on_c, 0, 61, 36
1, 6960, Note_on_c, 0, 79, 0
1, 6960, Note_on_c, 0, 61, 0
1, 6960, Note_on_c, 0, 52, 0
1, 6960, Note_on_c, 0, 50, 44
1, 6990, Note_on_c, 0, 78, 45
1, 6990, Note_on_c, 0, 60, 36
1, 7005, Note_on_c, 0, 78, 0
1, 7020, Note_on_c, 0, 78, 42
1, 7020, Note_on_c, 0, 60, 0
1, 7020, Note_on_c, 0, 57, 36
1, 7030, Note_on_c, 0, 78, 0
1, 7030, Note_on_c, 0, 79, 42
1, 7040, Note_on_c, 0, 79, 0
1, 7040, Note_on_c, 0, 78, 42
1, 7050, Note_on_c, 0, 57, 0
1, 7050, Note_on_c, 0, 60, 36
1, 7080, Note_on_c, 0, 78, 0
1, 7080, Note_on_c, 0, 60, 0
1, 7080, Note_on_c, 0, 50, 0
1, 7080, Note_on_c, 0, 55, 40
1, 7110, Note_on_c, 0, 77, 40
1, 7110, Note_on_c, 0, 62, 36
1, 7125, Note_on_c, 0, 77, 0
1, 7140, Note_on_c, 0, 77, 42
1, 7140, Note_on_c, 0, 62, 0
1, 7140, Note_on_c, 0, 59, 36
1, 7150, Note_on_c, 0, 77, 0
1, 7150, Note_on_c, 0, 79, 42
1, 7160, Note_on_c, 0, 79, 0
1, 7160, Note_on_c, 0, 77, 42
1, 7170, Note_on_c, 0, 59, 0
1, 7170, Note_on_c, 0, 62, 36
1, 7200, Note_on_c, 0, 77, 0
1, 7200, Note_on_c, 0, 62, 0
1, 7200, Note_on_c, 0, 55, 0
1, 7200, Note_on_c, 0, 48, 41
1, 7230, Note_on_c, 0, 76, 37
1, 7230, Note_on_c, 0, 60, 36
1, 7260, Note_on_c, 0, 76, 0
1, 7260, Note_on_c, 0, 77, 41
1, 7260, Note_on_c, 0, 60, 0
1, 7260, Note_on_c, 0, 52, 36
1, 7290, Note_on_c, 0, 77, 0
1, 7290, Note_on_c, 0, 79, 46
1, 7290, Note_on_c, 0, 52, 0
1, 7290, Note_on_c, 0, 60, 36
1, 7320, Note_on_c, 0, 79, 0
1, 7320, Note_on_c, 0, 79, 51
1, 7320, Note_on_c, 0, 60, 0
1, 7320, Note_on_c, 0, 48, 0
1, 7320, Note_on_c, 0, 53, 41
1, 7350, Note_on_c, 0, 79, 0
1, 7350, Note_on_c, 0, 69, 37
1, 7350, Note_on_c, 0, 62, 36
1, 7380, Note_on_c, 0, 69, 0
1, 7380, Note_on_c, 0, 77, 44
1, 7380, Note_on_c, 0, 62, 0
1, 7380, Note_on_c, 0, 57, 36
1, 7410, Note_on_c, 0, 77, 0
1, 7410, Note_on_c, 0, 74, 40
1, 7410, Note_on_c, 0, 57, 0
1, 7410, Note_on_c, 0, 62, 36
1, 7440, Note_on_c, 0, 74, 0
1, 7440, Note_on_c, 0, 72, 37
1, 7440, Note_on_c, 0, 62, 0
1, 7440, Note_on_c, 0, 53, 0
1, 7440, Note_on_c, 0, 55, 40
1, 7470, Note_on_c, 0, 64, 36
1, 7500, Note_on_c, 0, 64, 0
1, 7500, Note_on_c, 0, 60, 36
1, 7530, Note_on_c, 0, 60, 0
1, 7530, Note_on_c, 0, 64, 36
1, 7560, Note_on_c, 0, 72, 0
1, 7560, Note_on_c, 0, 71, 36
1, 7560, Note_on_c, 0, 64, 0
1, 7560, Note_on_c, 0, 55, 0
1, 7560, Note_on_c, 0, 55, 42
1, 7570, Note_on_c, 0, 71, 0
1, 7570, Note_on_c, 0, 72, 36
1, 7580, Note_on_c, 0, 72, 0
1, 7580, Note_on_c, 0, 71, 36
1, 7590, Note_on_c, 0, 71, 0
1, 7590, Note_on_c, 0, 72, 36
1, 7590, Note_on_c, 0, 65, 36
1, 7600, Note_on_c, 0, 72, 0
1, 7600, Note_on_c, 0, 71, 36
1, 7610, Note_on_c, 0, 71, 0
1, 7610, Note_on_c, 0, 72, 36
1, 7620, Note_on_c, 0, 72, 0
1, 7620, Note_on_c, 0, 71, 36
1, 7620, Note_on_c, 0, 65, 0
1, 7620, Note_on_c, 0, 62, 36
1, 7630, Note_on_c, 0, 71, 0
1, 7630, Note_on_c, 0, 72, 36
1, 7640, Note_on_c, 0, 72, 0
1, 7640, Note_on_c, 0, 71, 36
1, 7650, Note_on_c, 0, 71, 0
1, 7650, Note_on_c, 0, 69, 36
1, 7650, Note_on_c, 0, 62, 0
1, 7650, Note_on_c, 0, 65, 36
1, 7665, Note_on_c, 0, 69, 0
1, 7665, Note_on_c, 0, 71, 36
1, 7680, Note_on_c, 0, 71, 0
1, 7680, Note_on_c, 0, 65, 0
1, 7680, Note_on_c, 0, 55, 0
1, 7680, Note_on_c, 0, 52, 41
1, 7710, Note_on_c, 0, 84, 37
1, 7710, Note_on_c, 0, 60, 36
1, 7740, Note_on_c, 0, 84, 0
1, 7740, Note_on_c, 0, 88, 39
1, 7740, Note_on_c, 0, 60, 0
1, 7740, Note_on_c, 0, 55, 36
1, 7770, Note_on_c, 0, 88, 0
1, 7770, Note_on_c, 0, 84, 44
1, 7770, Note_on_c, 0, 55, 0
1, 7770, Note_on_c, 0, 60, 36
1, 7800, Note_on_c, 0, 84, 0
1, 7800, Note_on_c, 0, 83, 49
1, 7800, Note_on_c, 0, 60, 0
1, 7800, Note_on_c, 0, 52, 0
1, 7800, Note_on_c, 0, 53, 41
1, 7830, Note_on_c, 0, 83, 0
1, 7830, Note_on_c, 0, 81, 48
1, 7830, Note_on_c, 0, 60, 36
1, 7860, Note_on_c, 0, 81, 0
1, 7860, Note_on_c, 0, 79, 45
1, 7860, Note_on_c, 0, 60, 0
1, 7860, Note_on_c, 0, 57, 36
1, 7890, Note_on_c, 0, 79, 0
1, 7890, Note_on_c, 0, 77, 43
1, 7890, Note_on_c, 0, 57, 0
1, 7890, Note_on_c, 0, 60, 36
1, 7920, Note_on_c, 0, 77, 0
1, 7920, Note_on_c, 0, 76, 40
1, 7920, Note_on_c, 0, 60, 0
1, 7920, Note_on_c, 0, 53, 0
1, 7920, Note_on_c, 0, 55, 39
1, 7950, Note_on_c, 0, 64, 36
1, 7980, Note_on_c, 0, 64, 0
1, 7980, Note_on_c, 0, 60, 36
1, 8010, Note_on_c, 0, 60, 0
1, 8010, Note_on_c, 0, 64, 36
1, 8040, Note_on_c, 0, 76, 0
1, 8040, Note_on_c, 0, 74, 39
1, 8040, Note_on_c, 0, 64, 0
1, 8040, Note_on_c, 0, 55, 0
1, 8040, Note_on_c, 0, 55, 40
1, 8050, Note_on_c, 0, 74, 0
1, 8050, Note_on_c, 0, 76, 39
1, 8060, Note_on_c, 0, 76, 0
1, 8060, Note_on_c, 0, 74, 39
1, 8070, Note_on_c, 0, 74, 0
1, 8070, Note_on_c, 0, 76, 39
1, 8070, Note_on_c, 0, 65, 36
1, 8080, Note_on_c, 0, 76, 0
1, 8080, Note_on_c, 0, 74, 39
1, 8090, Note_on_c, 0, 74, 0
1, 8090, Note_on_c, 0, 76, 39
1, 8100, Note_on_c, 0, 76, 0
1, 8100, Note_on_c, 0, 74, 39
1, 8100, Note_on_c, 0, 65, 0
1, 8100, Note_on_c, 0, 62, 36
1, 8110, Note_on_c, 0, 74, 0
1, 8110, Note_on_c, 0, 76, 39
1, 8120, Note_on_c, 0, 76, 0
1, 8120, Note_on_c, 0, 74, 39
1, 8130, Note_on_c, 0, 74, 0
1, 8130, Note_on_c, 0, 72, 39
1, 8130, Note_on_c, 0, 62, 0
1, 8130, Note_on_c, 0, 65, 36
1, 8145, Note_on_c, 0, 72, 0
1, 8145, Note_on_c, 0, 74, 39
1, 8160, Note_on_c, 0, 74, 0
1, 8160, Note_on_c, 0, 72, 40
1, 8160, Note_on_c, 0, 65, 0
1, 8160, Note_on_c, 0, 55, 0
1, 8160, Note_on_c, 0, 64, 36
1, 8160, Note_on_c, 0, 60, 36
1, 8220, Note_on_c, 0, 72, 0
1, 8220, Note_on_c, 0, 76, 44
1, 8220, Note_on_c, 0, 72, 44
1, 8280, Note_on_c, 0, 72, 0
1, 8280, Note_on_c, 0, 76, 0
1, 8280, Note_on_c, 0, 72, 44
1, 8280, Note_on_c, 0, 76, 44
1, 8280, Note_on_c, 0, 60, 0
1, 8280, Note_on_c, 0, 64, 0
1, 8340, Note_on_c, 0, 76, 0
1, 8340, Note_on_c, 0, 72, 0
1, 8340, Note_on_c, 0, 72, 44
1, 8340, Note_on_c, 0, 76, 44
1, 8400, Note_on_c, 0, 76, 0
1, 8400, Note_on_c, 0, 72, 0
1, 8400, Note_on_c, 0, 72, 42
1, 8400, Note_on_c, 0, 76, 42
1, 8410, Note_on_c, 0, 76, 0
1, 8410, Note_on_c, 0, 72, 0
1, 8410, Note_on_c, 0, 74, 41
1, 8410, Note_on_c, 0, 77, 41
1, 8420, Note_on_c, 0, 77, 0
1, 8420, Note_on_c, 0, 74, 0
1, 8420, Note_on_c, 0, 72, 39
1, 8420, Note_on_c, 0, 76, 39
1, 8430, Note_on_c, 0, 76, 0
1, 8430, Note_on_c, 0, 72, 0
1, 8430, Note_on_c, 0, 71, 38
1, 8430, Note_on_c, 0, 74, 38
1, 8445, Note_on_c, 0, 74, 0
1, 8445, Note_on_c, 0, 71, 0
1, 8445, Note_on_c, 0, 72, 43
1, 8445, Note_on_c, 0, 76, 43
1, 8460, Note_on_c, 0, 76, 0
1, 8460, Note_on_c, 0, 72, 0
1, 8460, Note_on_c, 0, 79, 45
1, 8460, Note_on_c, 0, 76, 45
1, 8520, Note_on_c, 0, 76, 0
1, 8520, Note_on_c, 0, 79, 0
1, 8520, Note_on_c, 0, 76, 45
1, 8520, Note_on_c, 0, 72, 45
1, 8580, Note_on_c, 0, 72, 0
1, 8580, Note_on_c, 0, 76, 0
1, 8580, Note_on_c, 0, 69, 45
1, 8580, Note_on_c, 0, 72, 45
1, 8640, Note_on_c, 0, 72, 0
1, 8640, Note_on_c, 0, 69, 0
1, 8640, Note_on_c, 0, 65, 51
1, 8640, Note_on_c, 0, 69, 51
1, 8760, Note_on_c, 0, 41, 45
1, 8760, Note_on_c, 0, 53, 45
1, 8790, Note_on_c, 0, 69, 0
1, 8790, Note_on_c, 0, 65, 0
1, 8790, Note_on_c, 0, 65, 35
1, 8790, Note_on_c, 0, 69, 35
1, 8820, Note_on_c, 0, 69, 0
1, 8820, Note_on_c, 0, 65, 0
1, 8820, Note_on_c, 0, 67, 38
1, 8820, Note_on_c, 0, 71, 38
1, 8850, Note_on_c, 0, 71, 0
1, 8850, Note_on_c, 0, 67, 0
1, 8850, Note_on_c, 0, 69, 42
1, 8850, Note_on_c, 0, 72, 42
1, 8880, Note_on_c, 0, 72, 0
1, 8880, Note_on_c, 0, 69, 0
1, 8880, Note_on_c, 0, 69, 46
1, 8880, Note_on_c, 0, 72, 46
1, 8880, Note_on_c, 0, 53, 0
1, 8880, Note_on_c, 0, 41, 0
1, 8880, Note_on_c, 0, 55, 45
1, 8880, Note_on_c, 0, 43, 45
1, 8910, Note_on_c, 0, 72, 0
1, 8910, Note_on_c, 0, 69, 0
1, 8910, Note_on_c, 0, 67, 44
1, 8910, Note_on_c, 0, 71, 44
1, 8940, Note_on_c, 0, 71, 0
1, 8940, Note_on_c, 0, 67, 0
1, 8940, Note_on_c, 0, 65, 42
1, 8940, Note_on_c, 0, 69, 42
1, 8970, Note_on_c, 0, 69, 0
1, 8970, Note_on_c, 0, 65, 0
1, 8970, Note_on_c, 0, 64, 39
1, 8970, Note_on_c, 0, 67, 39
1, 9000, Note_on_c, 0, 67, 0
1, 9000, Note_on_c, 0, 64, 0
1, 9000, Note_on_c, 0, 64, 43
1, 9000, Note_on_c, 0, 67, 43
1, 9000, Note_on_c, 0, 43, 0
1, 9000, Note_on_c, 0, 55, 0
1, 9000, Note_on_c, 0, 55, 45
1, 9000, Note_on_c, 0, 43, 45
1, 9030, Note_on_c, 0, 67, 0
1, 9030, Note_on_c, 0, 64, 0
1, 9030, Note_on_c, 0, 62, 42
1, 9030, Note_on_c, 0, 65, 42
1, 9060, Note_on_c, 0, 65, 0
1, 9060, Note_on_c, 0, 62, 0
1, 9060, Note_on_c, 0, 60, 40
1, 9060, Note_on_c, 0, 64, 40
1, 9090, Note_on_c, 0, 64, 0
1, 9090, Note_on_c, 0, 60, 0
1, 9090, Note_on_c, 0, 59, 38
1, 9090, Note_on_c, 0, 62, 38
1, 9120, Note_on_c, 0, 62, 0
1, 9120, Note_on_c, 0, 59, 0
1, 9120, Note_on_c, 0, 43, 0
1, 9120, Note_on_c, 0, 55, 0
1, 9120, Note_on_c, 0, 36, 39
1, 9120, Note_on_c, 0, 48, 39
1, 9180, Note_on_c, 0, 72, 40
1, 9200, Note_on_c, 0, 76, 40
1, 9220, Note_on_c, 0, 76, 0
1, 9220, Note_on_c, 0, 84, 41
1, 9240, Note_on_c, 0, 84, 0
1, 9240, Note_on_c, 0, 72, 0
1, 9240, Note_on_c, 0, 72, 41
1, 9260, Note_on_c, 0, 76, 42
1, 9280, Note_on_c, 0, 76, 0
1, 9280, Note_on_c, 0, 84, 42
1, 9300, Note_on_c, 0, 84, 0
1, 9300, Note_on_c, 0, 72, 0
1, 9300, Note_on_c, 0, 72, 43
1, 9320, Note_on_c, 0, 76, 43
1, 9340, Note_on_c, 0, 76, 0
1, 9340, Note_on_c, 0, 84, 44
1, 9360, Note_on_c, 0, 84, 0
1, 9360, Note_on_c, 0, 72, 0
1, 9360, Note_on_c, 0, 72, 45
1, 9360, Note_on_c, 0, 48, 0
1, 9360, Note_on_c, 0, 36, 0
1, 9380, Note_on_c, 0, 76, 46
1, 9400, Note_on_c, 0, 76, 0
1, 9400, Note_on_c, 0, 84, 48
1, 9420, Note_on_c, 0, 84, 0
1, 9420, Note_on_c, 0, 72, 0
1, 9420, Note_on_c, 0, 76, 49
1, 9440, Note_on_c, 0, 79, 51
1, 9460, Note_on_c, 0, 79, 0
1, 9460, Note_on_c, 0, 88, 51
1, 9480, Note_on_c, 0, 88, 0
1, 9480, Note_on_c, 0, 76, 0
1, 9480, Note_on_c, 0, 72, 51
1, 9500, Note_on_c, 0, 76, 48
1, 9520, Note_on_c, 0, 76, 0
1, 9520, Note_on_c, 0, 84, 46
1, 9540, Note_on_c, 0, 84, 0
1, 9540, Note_on_c, 0, 72, 0
1, 9540, Note_on_c, 0, 69, 43
1, 9560, Note_on_c, 0, 72, 41
1, 9580, Note_on_c, 0, 72, 0
1, 9580, Note_on_c, 0, 81, 39
1, 9600, Note_on_c, 0, 81, 0
1, 9600, Note_on_c, 0, 69, 0
1, 9600, Note_on_c, 0, 65, 54
1, 9720, Note_on_c, 0, 53, 40
1, 9720, Note_on_c, 0, 41, 40
1, 9750, Note_on_c, 0, 65, 0
1, 9750, Note_on_c, 0, 69, 51
1, 9750, Note_on_c, 0, 72, 51
1, 9780, Note_on_c, 0, 72, 0
1, 9780, Note_on_c, 0, 69, 0
1, 9780, Note_on_c, 0, 67, 46
1, 9780, Note_on_c, 0, 71, 46
1, 9810, Note_on_c, 0, 71, 0
1, 9810, Note_on_c, 0, 67, 0
1, 9810, Note_on_c, 0, 65, 41
1, 9810, Note_on_c, 0, 69, 41
1, 9840, Note_on_c, 0, 69, 0
1, 9840, Note_on_c, 0, 65, 0
1, 9840, Note_on_c, 0, 65, 48
1, 9840, Note_on_c, 0, 69, 48
1, 9840, Note_on_c, 0, 41, 0
1, 9840, Note_on_c, 0, 53, 0
1, 9840, Note_on_c, 0, 55, 40
1, 9840, Note_on_c, 0, 43, 40
1, 9870, Note_on_c, 0, 69, 0
1, 9870, Note_on_c, 0, 65, 0
1, 9870, Note_on_c, 0, 64, 47
1, 9870, Note_on_c, 0, 67, 47
1, 9900, Note_on_c, 0, 67, 0
1, 9900, Note_on_c, 0, 64, 0
1, 9900, Note_on_c, 0, 62, 46
1, 9900, Note_on_c, 0, 65, 46
1, 9930, Note_on_c, 0, 65, 0
1, 9930, Note_on_c, 0, 62, 0
1, 9930, Note_on_c, 0, 60, 45
1, 9930, Note_on_c, 0, 64, 45
1, 9960, Note_on_c, 0, 64, 0
1, 9960, Note_on_c, 0, 60, 0
1, 9960, Note_on_c, 0, 64, 44
1, 9960, Note_on_c, 0, 43, 0
1, 9960, Note_on_c, 0, 55, 0
1, 9960, Note_on_c, 0, 53, 40
1, 9960, Note_on_c, 0, 43, 40
1, 9990, Note_on_c, 0, 64, 0
1, 9990, Note_on_c, 0, 62, 43
1, 10020, Note_on_c, 0, 62, 0
1, 10020, Note_on_c, 0, 60, 42
1, 10050, Note_on_c, 0, 60, 0
1, 10050, Note_on_c, 0, 53, 41
1, 10050, Note_on_c, 0, 59, 41
1, 10080, Note_on_c, 0, 59, 0
1, 10080, Note_on_c, 0, 53, 0
1, 10080, Note_on_c, 0, 53, 40
1, 10080, Note_on_c, 0, 59, 40
1, 10080, Note_on_c, 0, 43, 0
1, 10080, Note_on_c, 0, 53, 0
1, 10080, Note_on_c, 0, 48, 40
1, 10320, Note_on_c, 0, 59, 0
1, 10320, Note_on_c, 0, 53, 0
1, 10320, Note_on_c, 0, 48, 0
1, 10320, Note_on_c, 0, 36, 36
1, 10323, Note_on_c, 0, 40, 36
1, 10326, Note_on_c, 0, 43, 36
1, 10329, Note_on_c, 0, 52, 40
1, 10332, Note_on_c, 0, 55, 40
1, 10335, Note_on_c, 0, 60, 40
1, 10500, Note_on_c, 0, 60, 0
1, 10500, Note_on_c, 0, 55, 0
1, 10500, Note_on_c, 0, 52, 0
1, 10500, Note_on_c, 0, 43, 0
1, 10500, Note_on_c, 0, 40, 0
1, 10500, Note_on_c, 0, 36, 0
1, 10560, Note_on_c, 0, 41, 45
1, 10563, Note_on_c, 0, 45, 45
1, 10566, Note_on_c, 0, 48, 45
1, 10569, Note_on_c, 0, 53, 45
1, 10572, Note_on_c, 0, 57, 44
1, 10575, Note_on_c, 0, 60, 44
1, 10578, Note_on_c, 0, 65, 44
1, 10650, Note_on_c, 0, 60, 49
1, 10662, Note_on_c, 0, 65, 0
1, 10662, Note_on_c, 0, 57, 0
1, 10662, Note_on_c, 0, 60, 0
1, 10680, Note_on_c, 0, 60, 0
1, 10680, Note_on_c, 0, 70, 47
1, 10680, Note_on_c, 0, 53, 0
1, 10680, Note_on_c, 0, 41, 0
1, 10680, Note_on_c, 0, 45, 0
1, 10680, Note_on_c, 0, 48, 0
1, 10710, Note_on_c, 0, 70, 0
1, 10710, Note_on_c, 0, 69, 46
1, 10740, Note_on_c, 0, 69, 0
1, 10740, Note_on_c, 0, 67, 44
1, 10770, Note_on_c, 0, 67, 0
1, 10770, Note_on_c, 0, 65, 43
1, 10800, Note_on_c, 0, 65, 0
1, 10800, Note_on_c, 0, 64, 41
1, 10800, Note_on_c, 0, 58, 38
1, 10800, Note_on_c, 0, 55, 38
1, 10800, Note_on_c, 0, 48, 38
1, 10830, Note_on_c, 0, 64, 0
1, 10860, Note_on_c, 0, 65, 42
1, 10890, Note_on_c, 0, 65, 0
1, 10890, Note_on_c, 0, 48, 0
1, 10890, Note_on_c, 0, 55, 0
1, 10890, Note_on_c, 0, 58, 0
1, 10920, Note_on_c, 0, 67, 44
1, 10950, Note_on_c, 0, 67, 0
1, 10980, Note_on_c, 0, 69, 45
1, 11010, Note_on_c, 0, 69, 0
1, 11040, Note_on_c, 0, 52, 40
1, 11043, Note_on_c, 0, 55, 40
1, 11046, Note_on_c, 0, 58, 40
1, 11049, Note_on_c, 0, 60, 40
1, 11052, Note_on_c, 0, 64, 48
1, 11052, Note_on_c, 0, 67, 48
1, 11052, Note_on_c, 0, 70, 48
1, 11130, Note_on_c, 0, 67, 49
1, 11142, Note_on_c, 0, 70, 0
1, 11142, Note_on_c, 0, 64, 0
1, 11142, Note_on_c, 0, 67, 0
1, 11160, Note_on_c, 0, 67, 0
1, 11160, Note_on_c, 0, 76, 47
1, 11160, Note_on_c, 0, 60, 0
1, 11160, Note_on_c, 0, 52, 0
1, 11160, Note_on_c, 0, 55, 0
1, 11160, Note_on_c, 0, 58, 0
1, 11190, Note_on_c, 0, 76, 0
1, 11190, Note_on_c, 0, 74, 45
1, 11220, Note_on_c, 0, 74, 0
1, 11220, Note_on_c, 0, 72, 43
1, 11250, Note_on_c, 0, 72, 0
1, 11250, Note_on_c, 0, 70, 42
1, 11280, Note_on_c, 0, 70, 0
1, 11280, Note_on_c, 0, 69, 40
1, 11280, Note_on_c, 0, 60, 38
1, 11280, Note_on_c, 0, 53, 38
1, 11310, Note_on_c, 0, 69, 0
1, 11340, Note_on_c, 0, 70, 42
1, 11370, Note_on_c, 0, 70, 0
1, 11370, Note_on_c, 0, 53, 0
1, 11370, Note_on_c, 0, 60, 0
1, 11400, Note_on_c, 0, 72, 45
1, 11430, Note_on_c, 0, 72, 0
1, 11460, Note_on_c, 0, 73, 49
1, 11490, Note_on_c, 0, 73, 0
1, 11520, Note_on_c, 0, 74, 39
1, 11520, Note_on_c, 0, 58, 36
1, 11520, Note_on_c, 0, 65, 36
1, 11610, Note_on_c, 0, 74, 0
1, 11610, Note_on_c, 0, 76, 42
1, 11640, Note_on_c, 0, 76, 0
1, 11640, Note_on_c, 0, 79, 50
1, 11670, Note_on_c, 0, 79, 0
1, 11670, Note_on_c, 0, 77, 48
1, 11700, Note_on_c, 0, 77, 0
1, 11700, Note_on_c, 0, 76, 46
1, 11730, Note_on_c, 0, 76, 0
1, 11730, Note_on_c, 0, 74, 44
1, 11760, Note_on_c, 0, 74, 0
1, 11760, Note_on_c, 0, 72, 41
1, 11760, Note_on_c, 0, 58, 0
1, 11760, Note_on_c, 0, 57, 36
1, 11790, Note_on_c, 0, 72, 0
1, 11820, Note_on_c, 0, 72, 40
1, 11850, Note_on_c, 0, 72, 0
1, 11880, Note_on_c, 0, 70, 40
1, 11880, Note_on_c, 0, 57, 0
1, 11880, Note_on_c, 0, 65, 0
1, 11890, Note_on_c, 0, 70, 0
1, 11890, Note_on_c, 0, 72, 40
1, 11900, Note_on_c, 0, 70, 40
1, 11905, Note_on_c, 0, 72, 0
1, 11910, Note_on_c, 0, 70, 0
1, 11910, Note_on_c, 0, 72, 40
1, 11925, Note_on_c, 0, 72, 0
1, 11925, Note_on_c, 0, 70, 40
1, 11940, Note_on_c, 0, 70, 0
1, 11940, Note_on_c, 0, 69, 40
1, 12000, Note_on_c, 0, 69, 0
1, 12000, Note_on_c, 0, 67, 48
1, 12000, Note_on_c, 0, 46, 48
1, 12000, Note_on_c, 0, 58, 48
1, 12060, Note_on_c, 0, 67, 0
1, 12060, Note_on_c, 0, 67, 37
1, 12070, Note_on_c, 0, 67, 0
1, 12070, Note_on_c, 0, 69, 38
1, 12080, Note_on_c, 0, 69, 0
1, 12080, Note_on_c, 0, 67, 39
1, 12090, Note_on_c, 0, 67, 0
1, 12090, Note_on_c, 0, 66, 41
1, 12105, Note_on_c, 0, 66, 0
1, 12105, Note_on_c, 0, 67, 43
1, 12120, Note_on_c, 0, 67, 0
1, 12120, Note_on_c, 0, 70, 45
1, 12180, Note_on_c, 0, 70, 0
1, 12180, Note_on_c, 0, 74, 46
1, 12240, Note_on_c, 0, 74, 0
1, 12240, Note_on_c, 0, 65, 40
1, 12240, Note_on_c, 0, 58, 0
1, 12240, Note_on_c, 0, 46, 0
1, 12240, Note_on_c, 0, 48, 47
1, 12240, Note_on_c, 0, 57, 47
1, 12360, Note_on_c, 0, 57, 0
1, 12360, Note_on_c, 0, 55, 42
1, 12420, Note_on_c, 0, 65, 0
1, 12420, Note_on_c, 0, 64, 44
1, 12430, Note_on_c, 0, 64, 0
1, 12430, Note_on_c, 0, 65, 44
1, 12440, Note_on_c, 0, 65, 0
1, 12440, Note_on_c, 0, 64, 44
1, 12480, Note_on_c, 0, 64, 0
1, 12480, Note_on_c, 0, 57, 44
1, 12480, Note_on_c, 0, 55, 0
1, 12480, Note_on_c, 0, 48, 0
1, 12480, Note_on_c, 0, 41, 45
1, 12483, Note_on_c, 0, 60, 44
1, 12483, Note_on_c, 0, 45, 45
1, 12486, Note_on_c, 0, 65, 44
1, 12486, Note_on_c, 0, 48, 45
1, 12489, Note_on_c, 0, 53, 45
1, 12570, Note_on_c, 0, 65, 0
1, 12570, Note_on_c, 0, 60, 0
1, 12570, Note_on_c, 0, 57, 0
1, 12570, Note_on_c, 0, 60, 49
1, 12600, Note_on_c, 0, 60, 0
1, 12600, Note_on_c, 0, 70, 47
1, 12600, Note_on_c, 0, 53, 0
1, 12600, Note_on_c, 0, 41, 0
1, 12600, Note_on_c, 0, 45, 0
1, 12600, Note_on_c, 0, 48, 0
1, 12630, Note_on_c, 0, 70, 0
1, 12630, Note_on_c, 0, 69, 46
1, 12660, Note_on_c, 0, 69, 0
1, 12660, Note_on_c, 0, 67, 44
1, 12690, Note_on_c, 0, 67, 0
1, 12690, Note_on_c, 0, 65, 43
1, 12720, Note_on_c, 0, 65, 0
1, 12720, Note_on_c, 0, 64, 39
1, 12720, Note_on_c, 0, 48, 46
1, 12720, Note_on_c, 0, 58, 46
1, 12765, Note_on_c, 0, 64, 0
1, 12765, Note_on_c, 0, 60, 32
1, 12780, Note_on_c, 0, 60, 0
1, 12780, Note_on_c, 0, 65, 42
1, 12780, Note_on_c, 0, 58, 0
1, 12780, Note_on_c, 0, 57, 44
1, 12825, Note_on_c, 0, 65, 0
1, 12825, Note_on_c, 0, 60, 32
1, 12840, Note_on_c, 0, 60, 0
1, 12840, Note_on_c, 0, 67, 45
1, 12840, Note_on_c, 0, 57, 0
1, 12840, Note_on_c, 0, 55, 42
1, 12885, Note_on_c, 0, 67, 0
1, 12885, Note_on_c, 0, 60, 32
1, 12900, Note_on_c, 0, 60, 0
1, 12900, Note_on_c, 0, 69, 48
1, 12900, Note_on_c, 0, 55, 0
1, 12900, Note_on_c, 0, 53, 40
1, 12945, Note_on_c, 0, 69, 0
1, 12945, Note_on_c, 0, 60, 32
1, 12960, Note_on_c, 0, 60, 0
1, 12960, Note_on_c, 0, 70, 50
1, 12960, Note_on_c, 0, 53, 0
1, 12960, Note_on_c, 0, 55, 38
1, 12960, Note_on_c, 0, 52, 38
1, 13050, Note_on_c, 0, 70, 0
1, 13050, Note_on_c, 0, 67, 40
1, 13080, Note_on_c, 0, 67, 0
1, 13080, Note_on_c, 0, 76, 52
1, 13110, Note_on_c, 0, 76, 0
1, 13110, Note_on_c, 0, 74, 49
1, 13140, Note_on_c, 0, 74, 0
1, 13140, Note_on_c, 0, 72, 45
1, 13170, Note_on_c, 0, 72, 0
1, 13170, Note_on_c, 0, 70, 42
1, 13200, Note_on_c, 0, 70, 0
1, 13200, Note_on_c, 0, 69, 40
1, 13200, Note_on_c, 0, 52, 0
1, 13200, Note_on_c, 0, 55, 0
1, 13200, Note_on_c, 0, 48, 0
1, 13200, Note_on_c, 0, 53, 36
1, 13200, Note_on_c, 0, 41, 36
1, 13260, Note_on_c, 0, 69, 0
1, 13260, Note_on_c, 0, 70, 40
1, 13290, Note_on_c, 0, 41, 0
1, 13290, Note_on_c, 0, 53, 0
1, 13320, Note_on_c, 0, 70, 0
1, 13320, Note_on_c, 0, 72, 43
1, 13380, Note_on_c, 0, 72, 0
1, 13380, Note_on_c, 0, 73, 45
1, 13440, Note_on_c, 0, 73, 0
1, 13440, Note_on_c, 0, 58, 46
1, 13440, Note_on_c, 0, 46, 46
1, 13470, Note_on_c, 0, 73, 47
1, 13500, Note_on_c, 0, 73, 0
1, 13500, Note_on_c, 0, 74, 41
1, 13530, Note_on_c, 0, 74, 0
1, 13530, Note_on_c, 0, 76, 42
1, 13560, Note_on_c, 0, 76, 0
1, 13560, Note_on_c, 0, 77, 43
1, 13560, Note_on_c, 0, 46, 0
1, 13560, Note_on_c, 0, 58, 0
1, 13590, Note_on_c, 0, 77, 0
1, 13590, Note_on_c, 0, 78, 44
1, 13620, Note_on_c, 0, 78, 0
1, 13620, Note_on_c, 0, 79, 45
1, 13650, Note_on_c, 0, 79, 0
1, 13650, Note_on_c, 0, 81, 46
1, 13680, Note_on_c, 0, 81, 0
1, 13680, Note_on_c, 0, 82, 47
1, 13710, Note_on_c, 0, 82, 0
1, 13710, Note_on_c, 0, 83, 48
1, 13740, Note_on_c, 0, 83, 0
1, 13740, Note_on_c, 0, 84, 49
1, 13770, Note_on_c, 0, 84, 0
1, 13770, Note_on_c, 0, 85, 50
1, 13800, Note_on_c, 0, 85, 0
1, 13800, Note_on_c, 0, 86, 51
1, 13800, Note_on_c, 0, 70, 47
1, 13800, Note_on_c, 0, 58, 47
1, 13830, Note_on_c, 0, 86, 0
1, 13830, Note_on_c, 0, 81, 49
1, 13860, Note_on_c, 0, 81, 0
1, 13860, Note_on_c, 0, 82, 45
1, 13890, Note_on_c, 0, 82, 0
1, 13890, Note_on_c, 0, 79, 41
1, 13920, Note_on_c, 0, 79, 0
1, 13920, Note_on_c, 0, 77, 48
1, 13920, Note_on_c, 0, 58, 0
1, 13920, Note_on_c, 0, 70, 0
1, 13920, Note_on_c, 0, 69, 48
1, 13920, Note_on_c, 0, 60, 48
1, 14100, Note_on_c, 0, 77, 0
1, 14100, Note_on_c, 0, 79, 40
1, 14130, Note_on_c, 0, 79, 0
1, 14130, Note_on_c, 0, 77, 40
1, 14160, Note_on_c, 0, 77, 0
1, 14160, Note_on_c, 0, 76, 40
1, 14160, Note_on_c, 0, 69, 0
1, 14160, Note_on_c, 0, 67, 37
1, 14280, Note_on_c, 0, 76, 0
1, 14280, Note_on_c, 0, 67, 0
1, 14280, Note_on_c, 0, 60, 0
1, 14400, Note_on_c, 0, 79, 47
1, 14400, Note_on_c, 0, 60, 36
1, 14430, Note_on_c, 0, 67, 36
1, 14460, Note_on_c, 0, 67, 0
1, 14460, Note_on_c, 0, 64, 36
1, 14490, Note_on_c, 0, 64, 0
1, 14490, Note_on_c, 0, 67, 36
1, 14520, Note_on_c, 0, 79, 0
1, 14520, Note_on_c, 0, 77, 43
1, 14520, Note_on_c, 0, 67, 0
1, 14520, Note_on_c, 0, 60, 0
1, 14520, Note_on_c, 0, 60, 36
1, 14550, Note_on_c, 0, 77, 0
1, 14550, Note_on_c, 0, 76, 42
1, 14550, Note_on_c, 0, 67, 36
1, 14580, Note_on_c, 0, 76, 0
1, 14580, Note_on_c, 0, 74, 42
1, 14580, Note_on_c, 0, 67, 0
1, 14580, Note_on_c, 0, 64, 36
1, 14610, Note_on_c, 0, 74, 0
1, 14610, Note_on_c, 0, 72, 41
1, 14610, Note_on_c, 0, 64, 0
1, 14610, Note_on_c, 0, 67, 36
1, 14640, Note_on_c, 0, 72, 0
1, 14640, Note_on_c, 0, 72, 40
1, 14640, Note_on_c, 0, 67, 0
1, 14640, Note_on_c, 0, 60, 0
1, 14640, Note_on_c, 0, 62, 36
1, 14670, Note_on_c, 0, 67, 36
1, 14700, Note_on_c, 0, 67, 0
1, 14700, Note_on_c, 0, 65, 36
1, 14730, Note_on_c, 0, 65, 0
1, 14730, Note_on_c, 0, 67, 36
1, 14760, Note_on_c, 0, 72, 0
1, 14760, Note_on_c, 0, 71, 39
1, 14760, Note_on_c, 0, 67, 0
1, 14760, Note_on_c, 0, 62, 0
1, 14760, Note_on_c, 0, 62, 36
1, 14770, Note_on_c, 0, 71, 0
1, 14770, Note_on_c, 0, 72, 39
1, 14780, Note_on_c, 0, 72, 0
1, 14780, Note_on_c, 0, 71, 39
1, 14790, Note_on_c, 0, 67, 36
1, 14820, Note_on_c, 0, 67, 0
1, 14820, Note_on_c, 0, 65, 36
1, 14850, Note_on_c, 0, 71, 0
1, 14850, Note_on_c, 0, 71, 39
1, 14850, Note_on_c, 0, 65, 0
1, 14850, Note_on_c, 0, 67, 36
1, 14865, Note_on_c, 0, 71, 0
1, 14880, Note_on_c, 0, 72, 38
1, 14880, Note_on_c, 0, 67, 0
1, 14880, Note_on_c, 0, 62, 0
1, 14880, Note_on_c, 0, 60, 36
1, 14910, Note_on_c, 0, 72, 0
1, 14910, Note_on_c, 0, 74, 39
1, 14910, Note_on_c, 0, 67, 36
1, 14940, Note_on_c, 0, 74, 0
1, 14940, Note_on_c, 0, 76, 41
1, 14940, Note_on_c, 0, 67, 0
1, 14940, Note_on_c, 0, 64, 36
1, 14970, Note_on_c, 0, 76, 0
1, 14970, Note_on_c, 0, 77, 43
1, 14970, Note_on_c, 0, 64, 0
1, 14970, Note_on_c, 0, 67, 36
1, 15000, Note_on_c, 0, 77, 0
1, 15000, Note_on_c, 0, 79, 44
1, 15000, Note_on_c, 0, 67, 0
1, 15000, Note_on_c, 0, 60, 0
1, 15000, Note_on_c, 0, 60, 36
1, 15030, Note_on_c, 0, 79, 0
1, 15030, Note_on_c, 0, 81, 46
1, 15030, Note_on_c, 0, 67, 36
1, 15060, Note_on_c, 0, 81, 0
1, 15060, Note_on_c, 0, 83, 48
1, 15060, Note_on_c, 0, 67, 0
1, 15060, Note_on_c, 0, 64, 36
1, 15090, Note_on_c, 0, 83, 0
1, 15090, Note_on_c, 0, 84, 49
1, 15090, Note_on_c, 0, 64, 0
1, 15090, Note_on_c, 0, 67, 36
1, 15120, Note_on_c, 0, 84, 0
1, 15120, Note_on_c, 0, 84, 50
1, 15120, Note_on_c, 0, 67, 0
1, 15120, Note_on_c, 0, 60, 0
1, 15120, Note_on_c, 0, 62, 36
1, 15150, Note_on_c, 0, 84, 0
1, 15150, Note_on_c, 0, 83, 49
1, 15150, Note_on_c, 0, 67, 36
1, 15180, Note_on_c, 0, 83, 0
1, 15180, Note_on_c, 0, 81, 47
1, 15180, Note_on_c, 0, 67, 0
1, 15180, Note_on_c, 0, 65, 36
1, 15210, Note_on_c, 0, 81, 0
1, 15210, Note_on_c, 0, 79, 46
1, 15210, Note_on_c, 0, 65, 0
1, 15210, Note_on_c, 0, 67, 36
1, 15240, Note_on_c, 0, 79, 0
1, 15240, Note_on_c, 0, 79, 44
1, 15240, Note_on_c, 0, 67, 0
1, 15240, Note_on_c, 0, 62, 0
1, 15240, Note_on_c, 0, 62, 36
1, 15270, Note_on_c, 0, 79, 0
1, 15270, Note_on_c, 0, 77, 43
1, 15270, Note_on_c, 0, 67, 36
1, 15300, Note_on_c, 0, 77, 0
1, 15300, Note_on_c, 0, 76, 41
1, 15300, Note_on_c, 0, 67, 0
1, 15300, Note_on_c, 0, 65, 36
1, 15330, Note_on_c, 0, 76, 0
1, 15330, Note_on_c, 0, 74, 40
1, 15330, Note_on_c, 0, 65, 0
1, 15330, Note_on_c, 0, 67, 36
1, 15360, Note_on_c, 0, 74, 0
1, 15360, Note_on_c, 0, 79, 46
1, 15360, Note_on_c, 0, 67, 0
1, 15360, Note_on_c, 0, 62, 0
1, 15360, Note_on_c, 0, 60, 36
1, 15390, Note_on_c, 0, 67, 36
1, 15420, Note_on_c, 0, 67, 0
1, 15420, Note_on_c, 0, 64, 36
1, 15450, Note_on_c, 0, 79, 0
1, 15450, Note_on_c, 0, 81, 46
1, 15450, Note_on_c, 0, 64, 0
1, 15450, Note_on_c, 0, 67, 36
1, 15465, Note_on_c, 0, 81, 0
1, 15465, Note_on_c, 0, 79, 46
1, 15480, Note_on_c, 0, 79, 0
1, 15480, Note_on_c, 0, 77, 45
1, 15480, Note_on_c, 0, 67, 0
1, 15480, Note_on_c, 0, 60, 0
1, 15480, Note_on_c, 0, 60, 36
1, 15495, Note_on_c, 0, 77, 0
1, 15510, Note_on_c, 0, 76, 44
1, 15510, Note_on_c, 0, 67, 36
1, 15525, Note_on_c, 0, 76, 0
1, 15540, Note_on_c, 0, 74, 42
1, 15540, Note_on_c, 0, 67, 0
1, 15540, Note_on_c, 0, 64, 36
1, 15555, Note_on_c, 0, 74, 0
1, 15570, Note_on_c, 0, 72, 41
1, 15570, Note_on_c, 0, 64, 0
1, 15570, Note_on_c, 0, 67, 36
1, 15585, Note_on_c, 0, 72, 0
1, 15600, Note_on_c, 0, 72, 39
1, 15600, Note_on_c, 0, 67, 0
1, 15600, Note_on_c, 0, 60, 0
1, 15600, Note_on_c, 0, 62, 36
1, 15630, Note_on_c, 0, 67, 36
1, 15660, Note_on_c, 0, 67, 0
1, 15660, Note_on_c, 0, 65, 36
1, 15690, Note_on_c, 0, 65, 0
1, 15690, Note_on_c, 0, 67, 36
1, 15720, Note_on_c, 0, 72, 0
1, 15720, Note_on_c, 0, 71, 39
1, 15720, Note_on_c, 0, 67, 0
1, 15720, Note_on_c, 0, 62, 0
1, 15720, Note_on_c, 0, 62, 36
1, 15730, Note_on_c, 0, 71, 0
1, 15730, Note_on_c, 0, 72, 39
1, 15740, Note_on_c, 0, 72, 0
1, 15740, Note_on_c, 0, 71, 39
1, 15750, Note_on_c, 0, 67, 36
1, 15780, Note_on_c, 0, 67, 0
1, 15780, Note_on_c, 0, 65, 36
1, 15810, Note_on_c, 0, 71, 0
1, 15810, Note_on_c, 0, 77, 47
1, 15810, Note_on_c, 0, 65, 0
1, 15810, Note_on_c, 0, 67, 36
1, 15825, Note_on_c, 0, 77, 0
1, 15840, Note_on_c, 0, 76, 41
1, 15840, Note_on_c, 0, 67, 0
1, 15840, Note_on_c, 0, 62, 0
1, 15840, Note_on_c, 0, 60, 36
1, 15855, Note_on_c, 0, 76, 0
1, 15870, Note_on_c, 0, 77, 40
1, 15870, Note_on_c, 0, 67, 36
1, 15885, Note_on_c, 0, 77, 0
1, 15900, Note_on_c, 0, 79, 40
1, 15900, Note_on_c, 0, 67, 0
1, 15900, Note_on_c, 0, 64, 36
1, 15915, Note_on_c, 0, 79, 0
1, 15930, Note_on_c, 0, 81, 40
1, 15930, Note_on_c, 0, 64, 0
1, 15930, Note_on_c, 0, 67, 36
1, 15945, Note_on_c, 0, 81, 0
1, 15960, Note_on_c, 0, 83, 40
1, 15960, Note_on_c, 0, 67, 0
1, 15960, Note_on_c, 0, 60, 0
1, 15960, Note_on_c, 0, 60, 36
1, 15975, Note_on_c, 0, 83, 0
1, 15990, Note_on_c, 0, 84, 40
1, 15990, Note_on_c, 0, 67, 36
1, 16005, Note_on_c, 0, 84, 0
1, 16020, Note_on_c, 0, 83, 40
1, 16020, Note_on_c, 0, 67, 0
1, 16020, Note_on_c, 0, 64, 36
1, 16035, Note_on_c, 0, 83, 0
1, 16050, Note_on_c, 0, 84, 40
1, 16050, Note_on_c, 0, 64, 0
1, 16050, Note_on_c, 0, 67, 36
1, 16065, Note_on_c, 0, 84, 0
1, 16080, Note_on_c, 0, 84, 49
1, 16080, Note_on_c, 0, 67, 0
1, 16080, Note_on_c, 0, 60, 0
1, 16080, Note_on_c, 0, 62, 36
1, 16110, Note_on_c, 0, 84, 0
1, 16110, Note_on_c, 0, 83, 46
1, 16110, Note_on_c, 0, 67, 36
1, 16140, Note_on_c, 0, 83, 0
1, 16140, Note_on_c, 0, 81, 43
1, 16140, Note_on_c, 0, 67, 0
1, 16140, Note_on_c, 0, 65, 36
1, 16170, Note_on_c, 0, 81, 0
1, 16170, Note_on_c, 0, 79, 40
1, 16170, Note_on_c, 0, 65, 0
1, 16170, Note_on_c, 0, 67, 36
1, 16200, Note_on_c, 0, 79, 0
1, 16200, Note_on_c, 0, 79, 47
1, 16200, Note_on_c, 0, 67, 0
1, 16200, Note_on_c, 0, 62, 0
1, 16200, Note_on_c, 0, 62, 36
1, 16230, Note_on_c, 0, 79, 0
1, 16230, Note_on_c, 0, 77, 45
1, 16230, Note_on_c, 0, 67, 36
1, 16260, Note_on_c, 0, 77, 0
1, 16260, Note_on_c, 0, 76, 43
1, 16260, Note_on_c, 0, 67, 0
1, 16260, Note_on_c, 0, 65, 36
1, 16290, Note_on_c, 0, 76, 0
1, 16290, Note_on_c, 0, 74, 40
1, 16290, Note_on_c, 0, 65, 0
1, 16290, Note_on_c, 0, 67, 36
1, 16320, Note_on_c, 0, 74, 0
1, 16320, Note_on_c, 0, 76, 40
1, 16320, Note_on_c, 0, 67, 0
1, 16320, Note_on_c, 0, 62, 0
1, 16320, Note_on_c, 0, 60, 36
1, 16350, Note_on_c, 0, 76, 0
1, 16350, Note_on_c, 0, 77, 42
1, 16350, Note_on_c, 0, 67, 36
1, 16380, Note_on_c, 0, 77, 0
1, 16380, Note_on_c, 0, 76, 44
1, 16380, Note_on_c, 0, 67, 0
1, 16380, Note_on_c, 0, 64, 38
1, 16410, Note_on_c, 0, 76, 0
1, 16410, Note_on_c, 0, 77, 46
1, 16410, Note_on_c, 0, 64, 0
1, 16410, Note_on_c, 0, 67, 40
1, 16440, Note_on_c, 0, 77, 0
1, 16440, Note_on_c, 0, 79, 48
1, 16440, Note_on_c, 0, 67, 0
1, 16440, Note_on_c, 0, 60, 0
1, 16440, Note_on_c, 0, 60, 42
1, 16470, Note_on_c, 0, 79, 0
1, 16470, Note_on_c, 0, 81, 50
1, 16470, Note_on_c, 0, 67, 43
1, 16500, Note_on_c, 0, 81, 0
1, 16500, Note_on_c, 0, 79, 52
1, 16500, Note_on_c, 0, 67, 0
1, 16500, Note_on_c, 0, 64, 45
1, 16530, Note_on_c, 0, 79, 0
1, 16530, Note_on_c, 0, 81, 53
1, 16530, Note_on_c, 0, 64, 0
1, 16530, Note_on_c, 0, 67, 47
1, 16560, Note_on_c, 0, 81, 0
1, 16560, Note_on_c, 0, 70, 55
1, 16560, Note_on_c, 0, 82, 55
1, 16560, Note_on_c, 0, 67, 0
1, 16560, Note_on_c, 0, 60, 0
1, 16560, Note_on_c, 0, 52, 49
1, 16590, Note_on_c, 0, 60, 49
1, 16620, Note_on_c, 0, 60, 0
1, 16620, Note_on_c, 0, 55, 48
1, 16650, Note_on_c, 0, 55, 0
1, 16650, Note_on_c, 0, 60, 48
1, 16680, Note_on_c, 0, 60, 0
1, 16680, Note_on_c, 0, 52, 0
1, 16680, Note_on_c, 0, 52, 47
1, 16710, Note_on_c, 0, 60, 46
1, 16740, Note_on_c, 0, 60, 0
1, 16740, Note_on_c, 0, 55, 46
1, 16770, Note_on_c, 0, 55, 0
1, 16770, Note_on_c, 0, 60, 45
1, 16800, Note_on_c, 0, 82, 0
1, 16800, Note_on_c, 0, 70, 0
1, 16800, Note_on_c, 0, 60, 0
1, 16800, Note_on_c, 0, 52, 0
1, 16800, Note_on_c, 0, 53, 45
1, 16830, Note_on_c, 0, 81, 38
1, 16830, Note_on_c, 0, 60, 43
1, 16860, Note_on_c, 0, 81, 0
1, 16860, Note_on_c, 0, 80, 38
1, 16860, Note_on_c, 0, 60, 0
1, 16860, Note_on_c, 0, 57, 40
1, 16890, Note_on_c, 0, 80, 0
1, 16890, Note_on_c, 0, 81, 38
1, 16890, Note_on_c, 0, 57, 0
1, 16890, Note_on_c, 0, 60, 38
1, 16920, Note_on_c, 0, 81, 0
1, 16920, Note_on_c, 0, 60, 0
1, 16920, Note_on_c, 0, 53, 0
1, 16920, Note_on_c, 0, 52, 46
1, 16950, Note_on_c, 0, 79, 46
1, 16950, Note_on_c, 0, 61, 36
1, 16980, Note_on_c, 0, 79, 0
1, 16980, Note_on_c, 0, 78, 46
1, 16980, Note_on_c, 0, 61, 0
1, 16980, Note_on_c, 0, 55, 36
1, 17010, Note_on_c, 0, 78, 0
1, 17010, Note_on_c, 0, 79, 46
1, 17010, Note_on_c, 0, 55, 0
1, 17010, Note_on_c, 0, 61, 36
1, 17040, Note_on_c, 0, 79, 0
1, 17040, Note_on_c, 0, 61, 0
1, 17040, Note_on_c, 0, 52, 0
1, 17040, Note_on_c, 0, 50, 44
1, 17070, Note_on_c, 0, 78, 45
1, 17070, Note_on_c, 0, 60, 36
1, 17085, Note_on_c, 0, 78, 0
1, 17100, Note_on_c, 0, 78, 42
1, 17100, Note_on_c, 0, 60, 0
1, 17100, Note_on_c, 0, 57, 36
1, 17110, Note_on_c, 0, 78, 0
1, 17110, Note_on_c, 0, 79, 42
1, 17120, Note_on_c, 0, 79, 0
1, 17120, Note_on_c, 0, 78, 42
1, 17130, Note_on_c, 0, 57, 0
1, 17130, Note_on_c, 0, 60, 36
1, 17160, Note_on_c, 0, 78, 0
1, 17160, Note_on_c, 0, 60, 0
1, 17160, Note_on_c, 0, 50, 0
1, 17160, Note_on_c, 0, 55, 40
1, 17190, Note_on_c, 0, 77, 40
1, 17190, Note_on_c, 0, 62, 36
1, 17205, Note_on_c, 0, 77, 0
1, 17220, Note_on_c, 0, 77, 42
1, 17220, Note_on_c, 0, 62, 0
1, 17220, Note_on_c, 0, 59, 36
1, 17230, Note_on_c, 0, 77, 0
1, 17230, Note_on_c, 0, 79, 42
1, 17240, Note_on_c, 0, 79, 0
1, 17240, Note_on_c, 0, 77, 42
1, 17250, Note_on_c, 0, 59, 0
1, 17250, Note_on_c, 0, 62, 36
1, 17280, Note_on_c, 0, 77, 0
1, 17280, Note_on_c, 0, 62, 0
1, 17280, Note_on_c, 0, 55, 0
1, 17280, Note_on_c, 0, 48, 41
1, 17310, Note_on_c, 0, 76, 37
1, 17310, Note_on_c, 0, 60, 36
1, 17340, Note_on_c, 0, 76, 0
1, 17340, Note_on_c, 0, 77, 41
1, 17340, Note_on_c, 0, 60, 0
1, 17340, Note_on_c, 0, 52, 36
1, 17370, Note_on_c, 0, 77, 0
1, 17370, Note_on_c, 0, 79, 46
1, 17370, Note_on_c, 0, 52, 0
1, 17370, Note_on_c, 0, 60, 36
1, 17400, Note_on_c, 0, 79, 0
1, 17400, Note_on_c, 0, 79, 51
1, 17400, Note_on_c, 0, 60, 0
1, 17400, Note_on_c, 0, 48, 0
1, 17400, Note_on_c, 0, 53, 41
1, 17430, Note_on_c, 0, 79, 0
1, 17430, Note_on_c, 0, 69, 37
1, 17430, Note_on_c, 0, 62, 36
1, 17460, Note_on_c, 0, 69, 0
1, 17460, Note_on_c, 0, 77, 44
1, 17460, Note_on_c, 0, 62, 0
1, 17460, Note_on_c, 0, 57, 36
1, 17490, Note_on_c, 0, 77, 0
1, 17490, Note_on_c, 0, 74, 40
1, 17490, Note_on_c, 0, 57, 0
1, 17490, Note_on_c, 0, 62, 36
1, 17520, Note_on_c, 0, 74, 0
1, 17520, Note_on_c, 0, 72, 37
1, 17520, Note_on_c, 0, 62, 0
1, 17520, Note_on_c, 0, 53, 0
1, 17520, Note_on_c, 0, 55, 40
1, 17550, Note_on_c, 0, 64, 36
1, 17580, Note_on_c, 0, 64, 0
1, 17580, Note_on_c, 0, 60, 36
1, 17610, Note_on_c, 0, 60, 0
1, 17610, Note_on_c, 0, 64, 36
1, 17640, Note_on_c, 0, 72, 0
1, 17640, Note_on_c, 0, 71, 36
1, 17640, Note_on_c, 0, 64, 0
1, 17640, Note_on_c, 0, 55, 0
1, 17640, Note_on_c, 0, 55, 42
1, 17650, Note_on_c, 0, 71, 0
1, 17650, Note_on_c, 0, 72, 36
1, 17660, Note_on_c, 0, 72, 0
1, 17660, Note_on_c, 0, 71, 36
1, 17670, Note_on_c, 0, 71, 0
1, 17670, Note_on_c, 0, 72, 36
1, 17670, Note_on_c, 0, 65, 36
1, 17680, Note_on_c, 0, 72, 0
1, 17680, Note_on_c, 0, 71, 36
1, 17690, Note_on_c, 0, 71, 0
1, 17690, Note_on_c, 0, 72, 36
1, 17700, Note_on_c, 0, 72, 0
1, 17700, Note_on_c, 0, 71, 36
1, 17700, Note_on_c, 0, 65, 0
1, 17700, Note_on_c, 0, 62, 36
1, 17710, Note_on_c, 0, 71, 0
1, 17710, Note_on_c, 0, 72, 36
1, 17720, Note_on_c, 0, 72, 0
1, 17720, Note_on_c, 0, 71, 36
1, 17730, Note_on_c, 0, 71, 0
1, 17730, Note_on_c, 0, 69, 36
1, 17730, Note_on_c, 0, 62, 0
1, 17730, Note_on_c, 0, 65, 36
1, 17745, Note_on_c, 0, 69, 0
1, 17745, Note_on_c, 0, 71, 36
1, 17760, Note_on_c, 0, 71, 0
1, 17760, Note_on_c, 0, 65, 0
1, 17760, Note_on_c, 0, 55, 0
1, 17760, Note_on_c, 0, 52, 41
1, 17790, Note_on_c, 0, 84, 37
1, 17790, Note_on_c, 0, 60, 36
1, 17820, Note_on_c, 0, 84, 0
1, 17820, Note_on_c, 0, 88, 39
1, 17820, Note_on_c, 0, 60, 0
1, 17820, Note_on_c, 0, 55, 36
1, 17850, Note_on_c, 0, 88, 0
1, 17850, Note_on_c, 0, 84, 44
1, 17850, Note_on_c, 0, 55, 0
1, 17850, Note_on_c, 0, 60, 36
1, 17880, Note_on_c, 0, 84, 0
1, 17880, Note_on_c, 0, 83, 49
1, 17880, Note_on_c, 0, 60, 0
1, 17880, Note_on_c, 0, 52, 0
1, 17880, Note_on_c, 0, 53, 41
1, 17910, Note_on_c, 0, 83, 0
1, 17910, Note_on_c, 0, 81, 48
1, 17910, Note_on_c, 0, 60, 36
1, 17940, Note_on_c, 0, 81, 0
1, 17940, Note_on_c, 0, 79, 45
1, 17940, Note_on_c, 0, 60, 0
1, 17940, Note_on_c, 0, 57, 36
1, 17970, Note_on_c, 0, 79, 0
1, 17970, Note_on_c, 0, 77, 43
1, 17970, Note_on_c, 0, 57, 0
1, 17970, Note_on_c, 0, 60, 36
1, 18000, Note_on_c, 0, 77, 0
1, 18000, Note_on_c, 0, 76, 40
1, 18000, Note_on_c, 0, 60, 0
1, 18000, Note_on_c, 0, 53, 0
1, 18000, Note_on_c, 0, 55, 39
1, 18030, Note_on_c, 0, 64, 36
1, 18060, Note_on_c, 0, 64, 0
1, 18060, Note_on_c, 0, 60, 36
1, 18090, Note_on_c, 0, 60, 0
1, 18090, Note_on_c, 0, 64, 36
1, 18120, Note_on_c, 0, 76, 0
1, 18120, Note_on_c, 0, 74, 39
1, 18120, Note_on_c, 0, 64, 0
1, 18120, Note_on_c, 0, 55, 0
1, 18120, Note_on_c, 0, 55, 40
1, 18130, Note_on_c, 0, 74, 0
1, 18130, Note_on_c, 0, 76, 39
1, 18140, Note_on_c, 0, 76, 0
1, 18140, Note_on_c, 0, 74, 39
1, 18150, Note_on_c, 0, 74, 0
1, 18150, Note_on_c, 0, 76, 39
1, 18150, Note_on_c, 0, 65, 36
1, 18160, Note_on_c, 0, 76, 0
1, 18160, Note_on_c, 0, 74, 39
1, 18170, Note_on_c, 0, 74, 0
1, 18170, Note_on_c, 0, 76, 39
1, 18180, Note_on_c, 0, 76, 0
1, 18180, Note_on_c, 0, 74, 39
1, 18180, Note_on_c, 0, 65, 0
1, 18180, Note_on_c, 0, 62, 36
1, 18190, Note_on_c, 0, 74, 0
1, 18190, Note_on_c, 0, 76, 39
1, 18200, Note_on_c, 0, 76, 0
1, 18200, Note_on_c, 0, 74, 39
1, 18210, Note_on_c, 0, 74, 0
1, 18210, Note_on_c, 0, 72, 39
1, 18210, Note_on_c, 0, 62, 0
1, 18210, Note_on_c, 0, 65, 36
1, 18225, Note_on_c, 0, 72, 0
1, 18225, Note_on_c, 0, 74, 39
1, 18240, Note_on_c, 0, 74, 0
1, 18240, Note_on_c, 0, 72, 40
1, 18240, Note_on_c, 0, 65, 0
1, 18240, Note_on_c, 0, 55, 0
1, 18240, Note_on_c, 0, 64, 36
1, 18240, Note_on_c, 0, 60, 36
1, 18300, Note_on_c, 0, 72, 0
1, 18300, Note_on_c, 0, 76, 44
1, 18300, Note_on_c, 0, 72, 44
1, 18360, Note_on_c, 0, 72, 0
1, 18360, Note_on_c, 0, 76, 0
1, 18360, Note_on_c, 0, 72, 44
1, 18360, Note_on_c, 0, 76, 44
1, 18360, Note_on_c, 0, 60, 0
1, 18360, Note_on_c, 0, 64, 0
1, 18420, Note_on_c, 0, 76, 0
1, 18420, Note_on_c, 0, 72, 0
1, 18420, Note_on_c, 0, 72, 44
1, 18420, Note_on_c, 0, 76, 44
1, 18480, Note_on_c, 0, 76, 0
1, 18480, Note_on_c, 0, 72, 0
1, 18480, Note_on_c, 0, 72, 42
1, 18480, Note_on_c, 0, 76, 42
1, 18490, Note_on_c, 0, 76, 0
1, 18490, Note_on_c, 0, 72, 0
1, 18490, Note_on_c, 0, 74, 41
1, 18490, Note_on_c, 0, 77, 41
1, 18500, Note_on_c, 0, 77, 0
1, 18500, Note_on_c, 0, 74, 0
1, 18500, Note_on_c, 0, 72, 39
1, 18500, Note_on_c, 0, 76, 39
1, 18510, Note_on_c, 0, 76, 0
1, 18510, Note_on_c, 0, 72, 0
1, 18510, Note_on_c, 0, 71, 38
1, 18510, Note_on_c, 0, 74, 38
1, 18525, Note_on_c, 0, 74, 0
1, 18525, Note_on_c, 0, 71, 0
1, 18525, Note_on_c, 0, 72, 43
1, 18525, Note_on_c, 0, 76, 43
1, 18540, Note_on_c, 0, 76, 0
1, 18540, Note_on_c, 0, 72, 0
1, 18540, Note_on_c, 0, 79, 45
1, 18540, Note_on_c, 0, 76, 45
1, 18600, Note_on_c, 0, 76, 0
1, 18600, Note_on_c, 0, 79, 0
1, 18600, Note_on_c, 0, 76, 45
1, 18600, Note_on_c, 0, 72, 45
1, 18660, Note_on_c, 0, 72, 0
1, 18660, Note_on_c, 0, 76, 0
1, 18660, Note_on_c, 0, 69, 45
1, 18660, Note_on_c, 0, 72, 45
1, 18720, Note_on_c, 0, 72, 0
1, 18720, Note_on_c, 0, 69, 0
1, 18720, Note_on_c, 0, 65, 51
1, 18720, Note_on_c, 0, 69, 51
1, 18840, Note_on_c, 0, 41, 45
1, 18840, Note_on_c, 0, 53, 45
1, 18870, Note_on_c, 0, 69, 0
1, 18870, Note_on_c, 0, 65, 0
1, 18870, Note_on_c, 0, 65, 35
1, 18870, Note_on_c, 0, 69, 35
1, 18900, Note_on_c, 0, 69, 0
1, 18900, Note_on_c, 0, 65, 0
1, 18900, Note_on_c, 0, 67, 38
1, 18900, Note_on_c, 0, 71, 38
1, 18930, Note_on_c, 0, 71, 0
1, 18930, Note_on_c, 0, 67, 0
1, 18930, Note_on_c, 0, 69, 42
1, 18930, Note_on_c, 0, 72, 42
1, 18960, Note_on_c, 0, 72, 0
1, 18960, Note_on_c, 0, 69, 0
1, 18960, Note_on_c, 0, 69, 46
1, 18960, Note_on_c, 0, 72, 46
1, 18960, Note_on_c, 0, 53, 0
1, 18960, Note_on_c, 0, 41, 0
1, 18960, Note_on_c, 0, 55, 45
1, 18960, Note_on_c, 0, 43, 45
1, 18990, Note_on_c, 0, 72, 0
1, 18990, Note_on_c, 0, 69, 0
1, 18990, Note_on_c, 0, 67, 44
1, 18990, Note_on_c, 0, 71, 44
1, 19020, Note_on_c, 0, 71, 0
1, 19020, Note_on_c, 0, 67, 0
1, 19020, Note_on_c, 0, 65, 42
1, 19020, Note_on_c, 0, 69, 42
1, 19050, Note_on_c, 0, 69, 0
1, 19050, Note_on_c, 0, 65, 0
1, 19050, Note_on_c, 0, 64, 39
1, 19050, Note_on_c, 0, 67, 39
1, 19080, Note_on_c, 0, 67, 0
1, 19080, Note_on_c, 0, 64, 0
1, 19080, Note_on_c, 0, 64, 43
1, 19080, Note_on_c, 0, 67, 43
1, 19080, Note_on_c, 0, 43, 0
1, 19080, Note_on_c, 0, 55, 0
1, 19080, Note_on_c, 0, 55, 45
1, 19080, Note_on_c, 0, 43, 45
1, 19110, Note_on_c, 0, 67, 0
1, 19110, Note_on_c, 0, 64, 0
1, 19110, Note_on_c, 0, 62, 42
1, 19110, Note_on_c, 0, 65, 42
1, 19140, Note_on_c, 0, 65, 0
1, 19140, Note_on_c, 0, 62, 0
1, 19140, Note_on_c, 0, 60, 40
1, 19140, Note_on_c, 0, 64, 40
1, 19170, Note_on_c, 0, 64, 0
1, 19170, Note_on_c, 0, 60, 0
1, 19170, Note_on_c, 0, 59, 38
1, 19170, Note_on_c, 0, 62, 38
1, 19200, Note_on_c, 0, 62, 0
1, 19200, Note_on_c, 0, 59, 0
1, 19200, Note_on_c, 0, 43, 0
1, 19200, Note_on_c, 0, 55, 0
1, 19200, Note_on_c, 0, 36, 39
1, 19200, Note_on_c, 0, 48, 39
1, 19260, Note_on_c, 0, 72, 40
1, 19280, Note_on_c, 0, 76, 40
1, 19300, Note_on_c, 0, 76, 0
1, 19300, Note_on_c, 0, 84, 41
1, 19320, Note_on_c, 0, 84, 0
1, 19320, Note_on_c, 0, 72, 0
1, 19320, Note_on_c, 0, 72, 41
1, 19340, Note_on_c, 0, 76, 42
1, 19360, Note_on_c, 0, 76, 0
1, 19360, Note_on_c, 0, 84, 42
1, 19380, Note_on_c, 0, 84, 0
1, 19380, Note_on_c, 0, 72, 0
1, 19380, Note_on_c, 0, 72, 43
1, 19400, Note_on_c, 0, 76, 43
1, 19420, Note_on_c, 0, 76, 0
1, 19420, Note_on_c, 0, 84, 44
1, 19440, Note_on_c, 0, 84, 0
1, 19440, Note_on_c, 0, 72, 0
1, 19440, Note_on_c, 0, 72, 45
1, 19440, Note_on_c, 0, 48, 0
1, 19440, Note_on_c, 0, 36, 0
1, 19460, Note_on_c, 0, 76, 46
1, 19480, Note_on_c, 0, 76, 0
1, 19480, Note_on_c, 0, 84, 48
1, 19500, Note_on_c, 0, 84, 0
1, 19500, Note_on_c, 0, 72, 0
1, 19500, Note_on_c, 0, 76, 49
1, 19520, Note_on_c, 0, 79, 51
1, 19540, Note_on_c, 0, 79, 0
1, 19540, Note_on_c, 0, 88, 51
1, 19560, Note_on_c, 0, 88, 0
1, 19560, Note_on_c, 0, 76, 0
1, 19560, Note_on_c, 0, 72, 51
1, 19580, Note_on_c, 0, 76, 48
1, 19600, Note_on_c, 0, 76, 0
1, 19600, Note_on_c, 0, 84, 46
1, 19620, Note_on_c, 0, 84, 0
1, 19620, Note_on_c, 0, 72, 0
1, 19620, Note_on_c, 0, 69, 43
1, 19640, Note_on_c, 0, 72, 41
1, 19660, Note_on_c, 0, 72, 0
1, 19660, Note_on_c, 0, 81, 39
1, 19680, Note_on_c, 0, 81, 0
1, 19680, Note_on_c, 0, 69, 0
1, 19680, Note_on_c, 0, 65, 54
1, 19800, Note_on_c, 0, 53, 40
1, 19800, Note_on_c, 0, 41, 40
1, 19830, Note_on_c, 0, 65, 0
1, 19830, Note_on_c, 0, 69, 51
1, 19830, Note_on_c, 0, 72, 51
1, 19860, Note_on_c, 0, 72, 0
1, 19860, Note_on_c, 0, 69, 0
1, 19860, Note_on_c, 0, 67, 46
1, 19860, Note_on_c, 0, 71, 46
1, 19890, Note_on_c, 0, 71, 0
1, 19890, Note_on_c, 0, 67, 0
1, 19890, Note_on_c, 0, 65, 41
1, 19890, Note_on_c, 0, 69, 41
1, 19920, Note_on_c, 0, 69, 0
1, 19920, Note_on_c, 0, 65, 0
1, 19920, Note_on_c, 0, 65, 48
1, 19920, Note_on_c, 0, 69, 48
1, 19920, Note_on_c, 0, 41, 0
1, 19920, Note_on_c, 0, 53, 0
1, 19920, Note_on_c, 0, 55, 40
1, 19920, Note_on_c, 0, 43, 40
1, 19950, Note_on_c, 0, 69, 0
1, 19950, Note_on_c, 0, 65, 0
1, 19950, Note_on_c, 0, 64, 47
1, 19950, Note_on_c, 0, 67, 47
1, 19980, Note_on_c, 0, 67, 0
1, 19980, Note_on_c, 0, 64, 0
1, 19980, Note_on_c, 0, 62, 46
1, 19980, Note_on_c, 0, 65, 46
1, 20010, Note_on_c, 0, 65, 0
1, 20010, Note_on_c, 0, 62, 0
1, 20010, Note_on_c, 0, 60, 45
1, 20010, Note_on_c, 0, 64, 45
1, 20040, Note_on_c, 0, 64, 0
1, 20040, Note_on_c, 0, 60, 0
1, 20040, Note_on_c, 0, 64, 44
1, 20040, Note_on_c, 0, 43, 0
1, 20040, Note_on_c, 0, 55, 0
1, 20040, Note_on_c, 0, 53, 40
1, 20040, Note_on_c, 0, 43, 40
1, 20070, Note_on_c, 0, 64, 0
1, 20070, Note_on_c, 0, 62, 43
1, 20100, Note_on_c, 0, 62, 0
1, 20100, Note_on_c, 0, 60, 42
1, 20130, Note_on_c, 0, 60, 0
1, 20130, Note_on_c, 0, 53, 41
1, 20130, Note_on_c, 0, 59, 41
1, 20160, Note_on_c, 0, 59, 0
1, 20160, Note_on_c, 0, 53, 0
1, 20160, Note_on_c, 0, 53, 40
1, 20160, Note_on_c, 0, 59, 40
1, 20160, Note_on_c, 0, 43, 0
1, 20160, Note_on_c, 0, 53, 0
1, 20160, Note_on_c, 0, 48, 40
1, 20400, Note_on_c, 0, 59, 0
1, 20400, Note_on_c, 0, 53, 0
1, 20400, Note_on_c, 0, 48, 0
1, 20400, Note_on_c, 0, 36, 36
1, 20403, Note_on_c, 0, 40, 36
1, 20406, Note_on_c, 0, 43, 36
1, 20409, Note_on_c, 0, 52, 40
1, 20412, Note_on_c, 0, 55, 40
1, 20415, Note_on_c, 0, 60, 40
1, 20580, Note_on_c, 0, 60, 0
1, 20580, Note_on_c, 0, 55, 0
1, 20580, Note_on_c, 0, 52, 0
1, 20580, Note_on_c, 0, 43, 0
1, 20580, Note_on_c, 0, 40, 0
1, 20580, Note_on_c, 0, 36, 0
1, 20640, Note_on_c, 0, 48, 37
1, 20643, Note_on_c, 0, 52, 37
1, 20646, Note_on_c, 0, 55, 37
1, 20649, Note_on_c, 0, 60, 37
1, 20652, Note_on_c, 0, 64, 40
1, 20655, Note_on_c, 0, 67, 40
1, 20658, Note_on_c, 0, 72, 40
1, 20730, Note_on_c, 0, 67, 40
1, 20742, Note_on_c, 0, 64, 0
1, 20745, Note_on_c, 0, 67, 0
1, 20748, Note_on_c, 0, 72, 0
1, 20760, Note_on_c, 0, 67, 0
1, 20760, Note_on_c, 0, 77, 49
1, 20760, Note_on_c, 0, 48, 0
1, 20763, Note_on_c, 0, 52, 0
1, 20766, Note_on_c, 0, 55, 0
1, 20769, Note_on_c, 0, 60, 0
1, 20790, Note_on_c, 0, 77, 0
1, 20790, Note_on_c, 0, 76, 45
1, 20820, Note_on_c, 0, 76, 0
1, 20820, Note_on_c, 0, 74, 41
1, 20850, Note_on_c, 0, 74, 0
1, 20850, Note_on_c, 0, 72, 38
1, 20880, Note_on_c, 0, 72, 0
1, 20880, Note_on_c, 0, 79, 45
1, 20880, Note_on_c, 0, 60, 36
1, 20910, Note_on_c, 0, 70, 36
1, 20940, Note_on_c, 0, 70, 0
1, 20940, Note_on_c, 0, 67, 36
1, 20970, Note_on_c, 0, 67, 0
1, 20970, Note_on_c, 0, 70, 36
1, 21000, Note_on_c, 0, 79, 0
1, 21000, Note_on_c, 0, 70, 0
1, 21000, Note_on_c, 0, 60, 0
1, 21000, Note_on_c, 0, 60, 36
1, 21030, Note_on_c, 0, 70, 36
1, 21060, Note_on_c, 0, 70, 0
1, 21060, Note_on_c, 0, 67, 36
1, 21090, Note_on_c, 0, 67, 0
1, 21090, Note_on_c, 0, 70, 36
1, 21120, Note_on_c, 0, 77, 39
1, 21120, Note_on_c, 0, 70, 0
1, 21120, Note_on_c, 0, 60, 0
1, 21120, Note_on_c, 0, 60, 36
1, 21150, Note_on_c, 0, 69, 36
1, 21180, Note_on_c, 0, 69, 0
1, 21180, Note_on_c, 0, 65, 36
1, 21210, Note_on_c, 0, 77, 0
1, 21210, Note_on_c, 0, 72, 39
1, 21210, Note_on_c, 0, 65, 0
1, 21210, Note_on_c, 0, 69, 36
1, 21240, Note_on_c, 0, 72, 0
1, 21240, Note_on_c, 0, 82, 48
1, 21240, Note_on_c, 0, 69, 0
1, 21240, Note_on_c, 0, 60, 0
1, 21240, Note_on_c, 0, 60, 36
1, 21270, Note_on_c, 0, 82, 0
1, 21270, Note_on_c, 0, 81, 45
1, 21270, Note_on_c, 0, 69, 36
1, 21300, Note_on_c, 0, 81, 0
1, 21300, Note_on_c, 0, 79, 42
1, 21300, Note_on_c, 0, 69, 0
1, 21300, Note_on_c, 0, 65, 36
1, 21330, Note_on_c, 0, 79, 0
1, 21330, Note_on_c, 0, 77, 39
1, 21330, Note_on_c, 0, 65, 0
1, 21330, Note_on_c, 0, 69, 36
1, 21360, Note_on_c, 0, 77, 0
1, 21360, Note_on_c, 0, 84, 38
1, 21360, Note_on_c, 0, 69, 0
1, 21360, Note_on_c, 0, 60, 0
1, 21360, Note_on_c, 0, 60, 36
1, 21390, Note_on_c, 0, 67, 36
1, 21420, Note_on_c, 0, 67, 0
1, 21420, Note_on_c, 0, 64, 36
1, 21450, Note_on_c, 0, 64, 0
1, 21450, Note_on_c, 0, 67, 36
1, 21480, Note_on_c, 0, 84, 0
1, 21480, Note_on_c, 0, 67, 0
1, 21480, Note_on_c, 0, 60, 0
1, 21480, Note_on_c, 0, 60, 36
1, 21510, Note_on_c, 0, 67, 36
1, 21540, Note_on_c, 0, 67, 0
1, 21540, Note_on_c, 0, 64, 36
1, 21570, Note_on_c, 0, 64, 0
1, 21570, Note_on_c, 0, 67, 36
1, 21600, Note_on_c, 0, 83, 38
1, 21600, Note_on_c, 0, 67, 0
1, 21600, Note_on_c, 0, 60, 0
1, 21600, Note_on_c, 0, 57, 40
1, 21610, Note_on_c, 0, 83, 0
1, 21610, Note_on_c, 0, 84, 38
1, 21620, Note_on_c, 0, 84, 0
1, 21620, Note_on_c, 0, 86, 38
1, 21630, Note_on_c, 0, 86, 0
1, 21630, Note_on_c, 0, 84, 38
1, 21630, Note_on_c, 0, 63, 36
1, 21660, Note_on_c, 0, 63, 0
1, 21660, Note_on_c, 0, 60, 34
1, 21690, Note_on_c, 0, 60, 0
1, 21690, Note_on_c, 0, 63, 34
1, 21720, Note_on_c, 0, 63, 0
1, 21720, Note_on_c, 0, 57, 0
1, 21720, Note_on_c, 0, 57, 34
1, 21750, Note_on_c, 0, 63, 34
1, 21780, Note_on_c, 0, 63, 0
1, 21780, Note_on_c, 0, 60, 34
1, 21810, Note_on_c, 0, 84, 0
1, 21810, Note_on_c, 0, 82, 48
1, 21810, Note_on_c, 0, 60, 0
1, 21810, Note_on_c, 0, 63, 34
1, 21820, Note_on_c, 0, 82, 0
1, 21820, Note_on_c, 0, 81, 46
1, 21830, Note_on_c, 0, 81, 0
1, 21830, Note_on_c, 0, 79, 45
1, 21840, Note_on_c, 0, 79, 0
1, 21840, Note_on_c, 0, 78, 44
1, 21840, Note_on_c, 0, 63, 0
1, 21840, Note_on_c, 0, 57, 0
1, 21840, Note_on_c, 0, 57, 34
1, 21870, Note_on_c, 0, 78, 0
1, 21870, Note_on_c, 0, 75, 39
1, 21870, Note_on_c, 0, 63, 34
1, 21900, Note_on_c, 0, 75, 0
1, 21900, Note_on_c, 0, 74, 39
1, 21900, Note_on_c, 0, 63, 0
1, 21900, Note_on_c, 0, 60, 34
1, 21930, Note_on_c, 0, 74, 0
1, 21930, Note_on_c, 0, 72, 42
1, 21930, Note_on_c, 0, 60, 0
1, 21930, Note_on_c, 0, 63, 34
1, 21960, Note_on_c, 0, 72, 0
1, 21960, Note_on_c, 0, 70, 46
1, 21960, Note_on_c, 0, 63, 0
1, 21960, Note_on_c, 0, 57, 0
1, 21960, Note_on_c, 0, 57, 34
1, 21990, Note_on_c, 0, 70, 0
1, 21990, Note_on_c, 0, 69, 46
1, 21990, Note_on_c, 0, 63, 34
1, 22020, Note_on_c, 0, 69, 0
1, 22020, Note_on_c, 0, 67, 46
1, 22020, Note_on_c, 0, 63, 0
1, 22020, Note_on_c, 0, 60, 34
1, 22050, Note_on_c, 0, 67, 0
1, 22050, Note_on_c, 0, 66, 46
1, 22050, Note_on_c, 0, 60, 0
1, 22050, Note_on_c, 0, 63, 34
1, 22080, Note_on_c, 0, 66, 0
1, 22080, Note_on_c, 0, 67, 46
1, 22080, Note_on_c, 0, 63, 0
1, 22080, Note_on_c, 0, 57, 0
1, 22080, Note_on_c, 0, 58, 40
1, 22110, Note_on_c, 0, 67, 0
1, 22110, Note_on_c, 0, 67, 38
1, 22140, Note_on_c, 0, 70, 44
1, 22140, Note_on_c, 0, 67, 0
1, 22140, Note_on_c, 0, 62, 36
1, 22170, Note_on_c, 0, 70, 0
1, 22170, Note_on_c, 0, 62, 0
1, 22170, Note_on_c, 0, 67, 36
1, 22200, Note_on_c, 0, 74, 42
1, 22200, Note_on_c, 0, 67, 0
1, 22200, Note_on_c, 0, 58, 0
1, 22200, Note_on_c, 0, 58, 36
1, 22230, Note_on_c, 0, 74, 0
1, 22230, Note_on_c, 0, 67, 36
1, 22260, Note_on_c, 0, 79, 40
1, 22260, Note_on_c, 0, 67, 0
1, 22260, Note_on_c, 0, 62, 36
1, 22290, Note_on_c, 0, 79, 0
1, 22290, Note_on_c, 0, 62, 0
1, 22290, Note_on_c, 0, 67, 36
1, 22320, Note_on_c, 0, 82, 39
1, 22320, Note_on_c, 0, 67, 0
1, 22320, Note_on_c, 0, 58, 0
1, 22320, Note_on_c, 0, 58, 36
1, 22350, Note_on_c, 0, 67, 36
1, 22380, Note_on_c, 0, 67, 0
1, 22380, Note_on_c, 0, 62, 36
1, 22410, Note_on_c, 0, 62, 0
1, 22410, Note_on_c, 0, 67, 36
1, 22440, Note_on_c, 0, 82, 0
1, 22440, Note_on_c, 0, 67, 0
1, 22440, Note_on_c, 0, 58, 0
1, 22440, Note_on_c, 0, 58, 36
1, 22470, Note_on_c, 0, 67, 36
1, 22500, Note_on_c, 0, 67, 0
1, 22500, Note_on_c, 0, 62, 36
1, 22530, Note_on_c, 0, 62, 0
1, 22530, Note_on_c, 0, 67, 36
1, 22560, Note_on_c, 0, 86, 41
1, 22560, Note_on_c, 0, 67, 0
1, 22560, Note_on_c, 0, 58, 0
1, 22560, Note_on_c, 0, 58, 39
1, 22590, Note_on_c, 0, 67, 39
1, 22620, Note_on_c, 0, 86, 0
1, 22620, Note_on_c, 0, 86, 48
1, 22620, Note_on_c, 0, 67, 0
1, 22620, Note_on_c, 0, 64, 40
1, 22650, Note_on_c, 0, 64, 0
1, 22650, Note_on_c, 0, 67, 40
1, 22680, Note_on_c, 0, 67, 0
1, 22680, Note_on_c, 0, 58, 0
1, 22680, Note_on_c, 0, 58, 41
1, 22710, Note_on_c, 0, 67, 39
1, 22740, Note_on_c, 0, 86, 0
1, 22740, Note_on_c, 0, 84, 40
1, 22740, Note_on_c, 0, 67, 0
1, 22740, Note_on_c, 0, 64, 36
1, 22755, Note_on_c, 0, 84, 0
1, 22755, Note_on_c, 0, 82, 39
1, 22770, Note_on_c, 0, 82, 0
1, 22770, Note_on_c, 0, 81, 38
1, 22770, Note_on_c, 0, 64, 0
1, 22770, Note_on_c, 0, 67, 33
1, 22785, Note_on_c, 0, 81, 0
1, 22785, Note_on_c, 0, 79, 37
1, 22800, Note_on_c, 0, 79, 0
1, 22800, Note_on_c, 0, 84, 46
1, 22800, Note_on_c, 0, 67, 0
1, 22800, Note_on_c, 0, 58, 0
1, 22800, Note_on_c, 0, 57, 38
1, 22830, Note_on_c, 0, 65, 38
1, 22860, Note_on_c, 0, 84, 0
1, 22860, Note_on_c, 0, 84, 40
1, 22860, Note_on_c, 0, 65, 0
1, 22860, Note_on_c, 0, 60, 38
1, 22890, Note_on_c, 0, 60, 0
1, 22890, Note_on_c, 0, 65, 38
1, 22920, Note_on_c, 0, 65, 0
1, 22920, Note_on_c, 0, 57, 0
1, 22920, Note_on_c, 0, 57, 38
1, 22950, Note_on_c, 0, 65, 37
1, 22980, Note_on_c, 0, 84, 0
1, 22980, Note_on_c, 0, 82, 45
1, 22980, Note_on_c, 0, 65, 0
1, 22980, Note_on_c, 0, 60, 35
1, 22995, Note_on_c, 0, 82, 0
1, 22995, Note_on_c, 0, 81, 44
1, 23010, Note_on_c, 0, 81, 0
1, 23010, Note_on_c, 0, 79, 42
1, 23010, Note_on_c, 0, 60, 0
1, 23010, Note_on_c, 0, 65, 34
1, 23025, Note_on_c, 0, 79, 0
1, 23025, Note_on_c, 0, 77, 40
1, 23040, Note_on_c, 0, 77, 0
1, 23040, Note_on_c, 0, 84, 48
1, 23040, Note_on_c, 0, 65, 0
1, 23040, Note_on_c, 0, 57, 0
1, 23040, Note_on_c, 0, 52, 41
1, 23070, Note_on_c, 0, 84, 0
1, 23070, Note_on_c, 0, 82, 46
1, 23070, Note_on_c, 0, 60, 41
1, 23100, Note_on_c, 0, 82, 0
1, 23100, Note_on_c, 0, 82, 43
1, 23100, Note_on_c, 0, 60, 0
1, 23100, Note_on_c, 0, 55, 41
1, 23130, Note_on_c, 0, 82, 0
1, 23130, Note_on_c, 0, 81, 41
1, 23130, Note_on_c, 0, 55, 0
1, 23130, Note_on_c, 0, 60, 41
1, 23160, Note_on_c, 0, 81, 0
1, 23160, Note_on_c, 0, 81, 38
1, 23160, Note_on_c, 0, 60, 0
1, 23160, Note_on_c, 0, 52, 0
1, 23160, Note_on_c, 0, 53, 41
1, 23190, Note_on_c, 0, 60, 37
1, 23220, Note_on_c, 0, 81, 0
1, 23220, Note_on_c, 0, 60, 0
1, 23220, Note_on_c, 0, 57, 37
1, 23250, Note_on_c, 0, 57, 0
1, 23250, Note_on_c, 0, 60, 37
1, 23280, Note_on_c, 0, 84, 40
1, 23280, Note_on_c, 0, 60, 0
1, 23280, Note_on_c, 0, 53, 0
1, 23280, Note_on_c, 0, 52, 38
1, 23310, Note_on_c, 0, 84, 0
1, 23310, Note_on_c, 0, 82, 39
1, 23310, Note_on_c, 0, 60, 38
1, 23340, Note_on_c, 0, 82, 0
1, 23340, Note_on_c, 0, 82, 38
1, 23340, Note_on_c, 0, 60, 0
1, 23340, Note_on_c, 0, 55, 38
1, 23370, Note_on_c, 0, 82, 0
1, 23370, Note_on_c, 0, 81, 37
1, 23370, Note_on_c, 0, 55, 0
1, 23370, Note_on_c, 0, 60, 38
1, 23400, Note_on_c, 0, 81, 0
1, 23400, Note_on_c, 0, 81, 36
1, 23400, Note_on_c, 0, 60, 0
1, 23400, Note_on_c, 0, 52, 0
1, 23400, Note_on_c, 0, 53, 36
1, 23430, Note_on_c, 0, 60, 36
1, 23460, Note_on_c, 0, 81, 0
1, 23460, Note_on_c, 0, 60, 0
1, 23460, Note_on_c, 0, 57, 36
1, 23490, Note_on_c, 0, 57, 0
1, 23490, Note_on_c, 0, 60, 36
1, 23520, Note_on_c, 0, 84, 47
1, 23520, Note_on_c, 0, 60, 0
1, 23520, Note_on_c, 0, 53, 0
1, 23520, Note_on_c, 0, 52, 41
1, 23525, Note_on_c, 0, 84, 0
1, 23525, Note_on_c, 0, 86, 47
1, 23530, Note_on_c, 0, 84, 46
1, 23533, Note_on_c, 0, 86, 0
1, 23550, Note_on_c, 0, 84, 0
1, 23550, Note_on_c, 0, 82, 44
1, 23550, Note_on_c, 0, 60, 41
1, 23580, Note_on_c, 0, 82, 0
1, 23580, Note_on_c, 0, 82, 40
1, 23580, Note_on_c, 0, 60, 0
1, 23580, Note_on_c, 0, 55, 41
1, 23585, Note_on_c, 0, 82, 0
1, 23585, Note_on_c, 0, 84, 40
1, 23590, Note_on_c, 0, 84, 0
1, 23590, Note_on_c, 0, 82, 39
1, 23610, Note_on_c, 0, 82, 0
1, 23610, Note_on_c, 0, 81, 37
1, 23610, Note_on_c, 0, 55, 0
1, 23610, Note_on_c, 0, 60, 41
1, 23640, Note_on_c, 0, 81, 0
1, 23640, Note_on_c, 0, 81, 37
1, 23640, Note_on_c, 0, 60, 0
1, 23640, Note_on_c, 0, 52, 0
1, 23640, Note_on_c, 0, 53, 40
1, 23670, Note_on_c, 0, 60, 35
1, 23700, Note_on_c, 0, 81, 0
1, 23700, Note_on_c, 0, 60, 0
1, 23700, Note_on_c, 0, 57, 35
1, 23730, Note_on_c, 0, 57, 0
1, 23730, Note_on_c, 0, 60, 35
1, 23760, Note_on_c, 0, 82, 44
1, 23760, Note_on_c, 0, 60, 0
1, 23760, Note_on_c, 0, 53, 0
1, 23760, Note_on_c, 0, 58, 37
1, 23765, Note_on_c, 0, 81, 44
1, 23775, Note_on_c, 0, 82, 0
1, 23790, Note_on_c, 0, 79, 42
1, 23790, Note_on_c, 0, 67, 37
1, 23795, Note_on_c, 0, 81, 0
1, 23820, Note_on_c, 0, 79, 0
1, 23820, Note_on_c, 0, 81, 40
1, 23820, Note_on_c, 0, 67, 0
1, 23820, Note_on_c, 0, 62, 38
1, 23825, Note_on_c, 0, 79, 40
1, 23835, Note_on_c, 0, 81, 0
1, 23850, Note_on_c, 0, 77, 38
1, 23850, Note_on_c, 0, 62, 0
1, 23850, Note_on_c, 0, 67, 38
1, 23855, Note_on_c, 0, 79, 0
1, 23880, Note_on_c, 0, 77, 0
1, 23880, Note_on_c, 0, 77, 40
1, 23880, Note_on_c, 0, 67, 0
1, 23880, Note_on_c, 0, 58, 0
1, 23880, Note_on_c, 0, 59, 39
1, 23910, Note_on_c, 0, 67, 40
1, 23940, Note_on_c, 0, 77, 0
1, 23940, Note_on_c, 0, 67, 0
1, 23940, Note_on_c, 0, 62, 40
1, 23970, Note_on_c, 0, 62, 0
1, 23970, Note_on_c, 0, 67, 41
1, 24000, Note_on_c, 0, 77, 40
1, 24000, Note_on_c, 0, 67, 0
1, 24000, Note_on_c, 0, 59, 0
1, 24000, Note_on_c, 0, 60, 42
1, 24030, Note_on_c, 0, 77, 0
1, 24030, Note_on_c, 0, 76, 39
1, 24030, Note_on_c, 0, 67, 41
1, 24060, Note_on_c, 0, 76, 0
1, 24060, Note_on_c, 0, 74, 39
1, 24060, Note_on_c, 0, 67, 0
1, 24060, Note_on_c, 0, 64, 40
1, 24090, Note_on_c, 0, 74, 0
1, 24090, Note_on_c, 0, 72, 39
1, 24090, Note_on_c, 0, 64, 0
1, 24090, Note_on_c, 0, 67, 39
1, 24120, Note_on_c, 0, 72, 0
1, 24120, Note_on_c, 0, 72, 38
1, 24120, Note_on_c, 0, 67, 0
1, 24120, Note_on_c, 0, 60, 0
1, 24120, Note_on_c, 0, 60, 38
1, 24150, Note_on_c, 0, 67, 37
1, 24180, Note_on_c, 0, 72, 0
1, 24180, Note_on_c, 0, 72, 38
1, 24180, Note_on_c, 0, 67, 0
1, 24180, Note_on_c, 0, 64, 37
1, 24210, Note_on_c, 0, 64, 0
1, 24210, Note_on_c, 0, 67, 37
1, 24240, Note_on_c, 0, 72, 0
1, 24240, Note_on_c, 0, 71, 44
1, 24240, Note_on_c, 0, 67, 0
1, 24240, Note_on_c, 0, 60, 0
1, 24240, Note_on_c, 0, 60, 46
1, 24250, Note_on_c, 0, 71, 0
1, 24250, Note_on_c, 0, 72, 44
1, 24260, Note_on_c, 0, 72, 0
1, 24260, Note_on_c, 0, 74, 44
1, 24270, Note_on_c, 0, 74, 0
1, 24270, Note_on_c, 0, 72, 44
1, 24270, Note_on_c, 0, 60, 0
1, 24270, Note_on_c, 0, 62, 45
1, 24300, Note_on_c, 0, 62, 0
1, 24300, Note_on_c, 0, 58, 44
1, 24330, Note_on_c, 0, 58, 0
1, 24330, Note_on_c, 0, 60, 43
1, 24360, Note_on_c, 0, 72, 0
1, 24360, Note_on_c, 0, 60, 0
1, 24360, Note_on_c, 0, 57, 42
1, 24390, Note_on_c, 0, 57, 0
1, 24390, Note_on_c, 0, 58, 41
1, 24420, Note_on_c, 0, 58, 0
1, 24420, Note_on_c, 0, 55, 40
1, 24450, Note_on_c, 0, 55, 0
1, 24450, Note_on_c, 0, 57, 39
1, 24480, Note_on_c, 0, 72, 47
1, 24480, Note_on_c, 0, 57, 0
1, 24480, Note_on_c, 0, 53, 36
1, 24510, Note_on_c, 0, 60, 36
1, 24540, Note_on_c, 0, 60, 0
1, 24540, Note_on_c, 0, 57, 36
1, 24570, Note_on_c, 0, 57, 0
1, 24570, Note_on_c, 0, 60, 36
1, 24600, Note_on_c, 0, 72, 0
1, 24600, Note_on_c, 0, 70, 43
1, 24600, Note_on_c, 0, 60, 0
1, 24600, Note_on_c, 0, 53, 0
1, 24600, Note_on_c, 0, 53, 36
1, 24630, Note_on_c, 0, 70, 0
1, 24630, Note_on_c, 0, 69, 42
1, 24630, Note_on_c, 0, 60, 36
1, 24660, Note_on_c, 0, 69, 0
1, 24660, Note_on_c, 0, 67, 42
1, 24660, Note_on_c, 0, 60, 0
1, 24660, Note_on_c, 0, 57, 36
1, 24690, Note_on_c, 0, 67, 0
1, 24690, Note_on_c, 0, 65, 41
1, 24690, Note_on_c, 0, 57, 0
1, 24690, Note_on_c, 0, 60, 36
1, 24720, Note_on_c, 0, 65, 0
1, 24720, Note_on_c, 0, 65, 40
1, 24720, Note_on_c, 0, 60, 0
1, 24720, Note_on_c, 0, 53, 0
1, 24720, Note_on_c, 0, 55, 36
1, 24750, Note_on_c, 0, 60, 36
1, 24780, Note_on_c, 0, 60, 0
1, 24780, Note_on_c, 0, 58, 36
1, 24810, Note_on_c, 0, 58, 0
1, 24810, Note_on_c, 0, 60, 36
1, 24840, Note_on_c, 0, 65, 0
1, 24840, Note_on_c, 0, 64, 39
1, 24840, Note_on_c, 0, 60, 0
1, 24840, Note_on_c, 0, 55, 0
1, 24840, Note_on_c, 0, 55, 36
1, 24850, Note_on_c, 0, 64, 0
1, 24850, Note_on_c, 0, 65, 39
1, 24860, Note_on_c, 0, 65, 0
1, 24860, Note_on_c, 0, 64, 39
1, 24870, Note_on_c, 0, 60, 36
1, 24900, Note_on_c, 0, 60, 0
1, 24900, Note_on_c, 0, 58, 36
1, 24930, Note_on_c, 0, 64, 0
1, 24930, Note_on_c, 0, 64, 39
1, 24930, Note_on_c, 0, 58, 0
1, 24930, Note_on_c, 0, 60, 36
1, 24945, Note_on_c, 0, 64, 0
1, 24960, Note_on_c, 0, 65, 38
1, 24960, Note_on_c, 0, 60, 0
1, 24960, Note_on_c, 0, 55, 0
1, 24960, Note_on_c, 0, 53, 36
1, 24990, Note_on_c, 0, 65, 0
1, 24990, Note_on_c, 0, 67, 39
1, 24990, Note_on_c, 0, 60, 36
1, 25020, Note_on_c, 0, 67, 0
1, 25020, Note_on_c, 0, 69, 41
1, 25020, Note_on_c, 0, 60, 0
1, 25020, Note_on_c, 0, 57, 36
1, 25050, Note_on_c, 0, 69, 0
1, 25050, Note_on_c, 0, 70, 43
1, 25050, Note_on_c, 0, 57, 0
1, 25050, Note_on_c, 0, 60, 36
1, 25080, Note_on_c, 0, 70, 0
1, 25080, Note_on_c, 0, 72, 44
1, 25080, Note_on_c, 0, 60, 0
1, 25080, Note_on_c, 0, 53, 0
1, 25080, Note_on_c, 0, 53, 36
1, 25110, Note_on_c, 0, 72, 0
1, 25110, Note_on_c, 0, 74, 46
1, 25110, Note_on_c, 0, 60, 36
1, 25140, Note_on_c, 0, 74, 0
1, 25140, Note_on_c, 0, 76, 48
1, 25140, Note_on_c, 0, 60, 0
1, 25140, Note_on_c, 0, 57, 36
1, 25170, Note_on_c, 0, 76, 0
1, 25170, Note_on_c, 0, 77, 49
1, 25170, Note_on_c, 0, 57, 0
1, 25170, Note_on_c, 0, 60, 36
1, 25200, Note_on_c, 0, 77, 0
1, 25200, Note_on_c, 0, 77, 50
1, 25200, Note_on_c, 0, 60, 0
1, 25200, Note_on_c, 0, 53, 0
1, 25200, Note_on_c, 0, 55, 36
1, 25230, Note_on_c, 0, 77, 0
1, 25230, Note_on_c, 0, 76, 49
1, 25230, Note_on_c, 0, 60, 36
1, 25260, Note_on_c, 0, 76, 0
1, 25260, Note_on_c, 0, 74, 47
1, 25260, Note_on_c, 0, 60, 0
1, 25260, Note_on_c, 0, 58, 36
1, 25290, Note_on_c, 0, 74, 0
1, 25290, Note_on_c, 0, 72, 46
1, 25290, Note_on_c, 0, 58, 0
1, 25290, Note_on_c, 0, 60, 36
1, 25320, Note_on_c, 0, 72, 0
1, 25320, Note_on_c, 0, 72, 44
1, 25320, Note_on_c, 0, 60, 0
1, 25320, Note_on_c, 0, 55, 0
1, 25320, Note_on_c, 0, 55, 36
1, 25350, Note_on_c, 0, 72, 0
1, 25350, Note_on_c, 0, 70, 43
1, 25350, Note_on_c, 0, 60, 36
1, 25380, Note_on_c, 0, 70, 0
1, 25380, Note_on_c, 0, 69, 41
1, 25380, Note_on_c, 0, 60, 0
1, 25380, Note_on_c, 0, 58, 36
1, 25410, Note_on_c, 0, 69, 0
1, 25410, Note_on_c, 0, 67, 40
1, 25410, Note_on_c, 0, 58, 0
1, 25410, Note_on_c, 0, 60, 36
1, 25440, Note_on_c, 0, 67, 0
1, 25440, Note_on_c, 0, 84, 46
1, 25440, Note_on_c, 0, 60, 0
1, 25440, Note_on_c, 0, 55, 0
1, 25440, Note_on_c, 0, 53, 36
1, 25470, Note_on_c, 0, 60, 36
1, 25500, Note_on_c, 0, 60, 0
1, 25500, Note_on_c, 0, 57, 36
1, 25530, Note_on_c, 0, 84, 0
1, 25530, Note_on_c, 0, 86, 46
1, 25530, Note_on_c, 0, 57, 0
1, 25530, Note_on_c, 0, 60, 36
1, 25545, Note_on_c, 0, 86, 0
1, 25545, Note_on_c, 0, 84, 46
1, 25560, Note_on_c, 0, 84, 0
1, 25560, Note_on_c, 0, 82, 45
1, 25560, Note_on_c, 0, 60, 0
1, 25560, Note_on_c, 0, 53, 0
1, 25560, Note_on_c, 0, 53, 36
1, 25575, Note_on_c, 0, 82, 0
1, 25590, Note_on_c, 0, 81, 44
1, 25590, Note_on_c, 0, 60, 36
1, 25605, Note_on_c, 0, 81, 0
1, 25620, Note_on_c, 0, 79, 42
1, 25620, Note_on_c, 0, 60, 0
1, 25620, Note_on_c, 0, 57, 36
1, 25635, Note_on_c, 0, 79, 0
1, 25650, Note_on_c, 0, 77, 41
1, 25650, Note_on_c, 0, 57, 0
1, 25650, Note_on_c, 0, 60, 36
1, 25665, Note_on_c, 0, 77, 0
1, 25680, Note_on_c, 0, 77, 39
1, 25680, Note_on_c, 0, 60, 0
1, 25680, Note_on_c, 0, 53, 0
1, 25680, Note_on_c, 0, 55, 36
1, 25710, Note_on_c, 0, 60, 36
1, 25740, Note_on_c, 0, 60, 0
1, 25740, Note_on_c, 0, 58, 36
1, 25770, Note_on_c, 0, 58, 0
1, 25770, Note_on_c, 0, 60, 36
1, 25800, Note_on_c, 0, 77, 0
1, 25800, Note_on_c, 0, 76, 39
1, 25800, Note_on_c, 0, 60, 0
1, 25800, Note_on_c, 0, 55, 0
1, 25800, Note_on_c, 0, 55, 36
1, 25810, Note_on_c, 0, 76, 0
1, 25810, Note_on_c, 0, 77, 39
1, 25820, Note_on_c, 0, 77, 0
1, 25820, Note_on_c, 0, 76, 39
1, 25830, Note_on_c, 0, 60, 36
1, 25860, Note_on_c, 0, 60, 0
1, 25860, Note_on_c, 0, 58, 36
1, 25890, Note_on_c, 0, 76, 0
1, 25890, Note_on_c, 0, 82, 47
1, 25890, Note_on_c, 0, 58, 0
1, 25890, Note_on_c, 0, 60, 36
1, 25905, Note_on_c, 0, 82, 0
1, 25920, Note_on_c, 0, 81, 41
1, 25920, Note_on_c, 0, 60, 0
1, 25920, Note_on_c, 0, 55, 0
1, 25920, Note_on_c, 0, 53, 36
1, 25935, Note_on_c, 0, 81, 0
1, 25950, Note_on_c, 0, 82, 40
1, 25950, Note_on_c, 0, 60, 36
1, 25965, Note_on_c, 0, 82, 0
1, 25980, Note_on_c, 0, 84, 40
1, 25980, Note_on_c, 0, 60, 0
1, 25980, Note_on_c, 0, 57, 36
1, 25995, Note_on_c, 0, 84, 0
1, 26010, Note_on_c, 0, 86, 40
1, 26010, Note_on_c, 0, 57, 0
1, 26010, Note_on_c, 0, 60, 36
1, 26025, Note_on_c, 0, 86, 0
1, 26040, Note_on_c, 0, 88, 40
1, 26040, Note_on_c, 0, 60, 0
1, 26040, Note_on_c, 0, 53, 0
1, 26040, Note_on_c, 0, 53, 36
1, 26055, Note_on_c, 0, 88, 0
1, 26070, Note_on_c, 0, 89, 40
1, 26070, Note_on_c, 0, 60, 36
1, 26085, Note_on_c, 0, 89, 0
1, 26100, Note_on_c, 0, 88, 40
1, 26100, Note_on_c, 0, 60, 0
1, 26100, Note_on_c, 0, 57, 36
1, 26115, Note_on_c, 0, 88, 0
1, 26130, Note_on_c, 0, 89, 40
1, 26130, Note_on_c, 0, 57, 0
1, 26130, Note_on_c, 0, 60, 36
1, 26145, Note_on_c, 0, 89, 0
1, 26160, Note_on_c, 0, 89, 49
1, 26160, Note_on_c, 0, 60, 0
1, 26160, Note_on_c, 0, 53, 0
1, 26160, Note_on_c, 0, 55, 36
1, 26190, Note_on_c, 0, 89, 0
1, 26190, Note_on_c, 0, 88, 46
1, 26190, Note_on_c, 0, 60, 36
1, 26220, Note_on_c, 0, 88, 0
1, 26220, Note_on_c, 0, 86, 43
1, 26220, Note_on_c, 0, 60, 0
1, 26220, Note_on_c, 0, 58, 36
1, 26250, Note_on_c, 0, 86, 0
1, 26250, Note_on_c, 0, 84, 40
1, 26250, Note_on_c, 0, 58, 0
1, 26250, Note_on_c, 0, 60, 36
1, 26280, Note_on_c, 0, 84, 0
1, 26280, Note_on_c, 0, 84, 47
1, 26280, Note_on_c, 0, 60, 0
1, 26280, Note_on_c, 0, 55, 0
1, 26280, Note_on_c, 0, 55, 36
1, 26310, Note_on_c, 0, 84, 0
1, 26310, Note_on_c, 0, 82, 45
1, 26310, Note_on_c, 0, 60, 36
1, 26340, Note_on_c, 0, 82, 0
1, 26340, Note_on_c, 0, 81, 43
1, 26340, Note_on_c, 0, 60, 0
1, 26340, Note_on_c, 0, 58, 36
1, 26370, Note_on_c, 0, 81, 0
1, 26370, Note_on_c, 0, 79, 40
1, 26370, Note_on_c, 0, 58, 0
1, 26370, Note_on_c, 0, 60, 36
1, 26400, Note_on_c, 0, 79, 0
1, 26400, Note_on_c, 0, 81, 40
1, 26400, Note_on_c, 0, 60, 0
1, 26400, Note_on_c, 0, 55, 0
1, 26400, Note_on_c, 0, 53, 36
1, 26430, Note_on_c, 0, 81, 0
1, 26430, Note_on_c, 0, 82, 42
1, 26430, Note_on_c, 0, 60, 36
1, 26460, Note_on_c, 0, 82, 0
1, 26460, Note_on_c, 0, 81, 44
1, 26460, Note_on_c, 0, 60, 0
1, 26460, Note_on_c, 0, 57, 38
1, 26490, Note_on_c, 0, 81, 0
1, 26490, Note_on_c, 0, 82, 46
1, 26490, Note_on_c, 0, 57, 0
1, 26490, Note_on_c, 0, 60, 40
1, 26520, Note_on_c, 0, 82, 0
1, 26520, Note_on_c, 0, 84, 48
1, 26520, Note_on_c, 0, 60, 0
1, 26520, Note_on_c, 0, 53, 0
1, 26520, Note_on_c, 0, 53, 42
1, 26550, Note_on_c, 0, 84, 0
1, 26550, Note_on_c, 0, 86, 50
1, 26550, Note_on_c, 0, 60, 43
1, 26580, Note_on_c, 0, 86, 0
1, 26580, Note_on_c, 0, 84, 52
1, 26580, Note_on_c, 0, 60, 0
1, 26580, Note_on_c, 0, 57, 45
1, 26610, Note_on_c, 0, 84, 0
1, 26610, Note_on_c, 0, 86, 53
1, 26610, Note_on_c, 0, 57, 0
1, 26610, Note_on_c, 0, 60, 47
1, 26640, Note_on_c, 0, 86, 0
1, 26640, Note_on_c, 0, 75, 55
1, 26640, Note_on_c, 0, 87, 55
1, 26640, Note_on_c, 0, 60, 0
1, 26640, Note_on_c, 0, 53, 0
1, 26640, Note_on_c, 0, 57, 49
1, 26670, Note_on_c, 0, 65, 49
1, 26700, Note_on_c, 0, 65, 0
1, 26700, Note_on_c, 0, 60, 48
1, 26730, Note_on_c, 0, 60, 0
1, 26730, Note_on_c, 0, 65, 48
1, 26760, Note_on_c, 0, 65, 0
1, 26760, Note_on_c, 0, 57, 0
1, 26760, Note_on_c, 0, 57, 47
1, 26790, Note_on_c, 0, 65, 46
1, 26820, Note_on_c, 0, 65, 0
1, 26820, Note_on_c, 0, 60, 46
1, 26850, Note_on_c, 0, 60, 0
1, 26850, Note_on_c, 0, 65, 45
1, 26880, Note_on_c, 0, 87, 0
1, 26880, Note_on_c, 0, 75, 0
1, 26880, Note_on_c, 0, 65, 0
1, 26880, Note_on_c, 0, 57, 0
1, 26880, Note_on_c, 0, 58, 45
1, 26910, Note_on_c, 0, 86, 38
1, 26910, Note_on_c, 0, 65, 43
1, 26940, Note_on_c, 0, 86, 0
1, 26940, Note_on_c, 0, 85, 38
1, 26940, Note_on_c, 0, 65, 0
1, 26940, Note_on_c, 0, 62, 40
1, 26970, Note_on_c, 0, 85, 0
1, 26970, Note_on_c, 0, 86, 38
1, 26970, Note_on_c, 0, 62, 0
1, 26970, Note_on_c, 0, 65, 38
1, 27000, Note_on_c, 0, 86, 0
1, 27000, Note_on_c, 0, 65, 0
1, 27000, Note_on_c, 0, 58, 0
1, 27000, Note_on_c, 0, 57, 46
1, 27030, Note_on_c, 0, 84, 46
1, 27030, Note_on_c, 0, 66, 36
1, 27060, Note_on_c, 0, 84, 0
1, 27060, Note_on_c, 0, 83, 46
1, 27060, Note_on_c, 0, 66, 0
1, 27060, Note_on_c, 0, 60, 36
1, 27090, Note_on_c, 0, 83, 0
1, 27090, Note_on_c, 0, 84, 46
1, 27090, Note_on_c, 0, 60, 0
1, 27090, Note_on_c, 0, 66, 36
1, 27120, Note_on_c, 0, 84, 0
1, 27120, Note_on_c, 0, 66, 0
1, 27120, Note_on_c, 0, 57, 0
1, 27120, Note_on_c, 0, 55, 44
1, 27150, Note_on_c, 0, 83, 45
1, 27150, Note_on_c, 0, 65, 36
1, 27165, Note_on_c, 0, 83, 0
1, 27180, Note_on_c, 0, 83, 42
1, 27180, Note_on_c, 0, 65, 0
1, 27180, Note_on_c, 0, 62, 36
1, 27190, Note_on_c, 0, 83, 0
1, 27190, Note_on_c, 0, 84, 42
1, 27200, Note_on_c, 0, 84, 0
1, 27200, Note_on_c, 0, 83, 42
1, 27210, Note_on_c, 0, 62, 0
1, 27210, Note_on_c, 0, 65, 36
1, 27240, Note_on_c, 0, 83, 0
1, 27240, Note_on_c, 0, 65, 0
1, 27240, Note_on_c, 0, 55, 0
1, 27240, Note_on_c, 0, 60, 40
1, 27270, Note_on_c, 0, 82, 40
1, 27270, Note_on_c, 0, 67, 36
1, 27285, Note_on_c, 0, 82, 0
1, 27300, Note_on_c, 0, 82, 42
1, 27300, Note_on_c, 0, 67, 0
1, 27300, Note_on_c, 0, 64, 36
1, 27310, Note_on_c, 0, 82, 0
1, 27310, Note_on_c, 0, 84, 42
1, 27320, Note_on_c, 0, 84, 0
1, 27320, Note_on_c, 0, 82, 42
1, 27330, Note_on_c, 0, 64, 0
1, 27330, Note_on_c, 0, 67, 36
1, 27360, Note_on_c, 0, 82, 0
1, 27360, Note_on_c, 0, 67, 0
1, 27360, Note_on_c, 0, 60, 0
1, 27360, Note_on_c, 0, 53, 41
1, 27390, Note_on_c, 0, 81, 37
1, 27390, Note_on_c, 0, 65, 36
1, 27420, Note_on_c, 0, 81, 0
1, 27420, Note_on_c, 0, 82, 41
1, 27420, Note_on_c, 0, 65, 0
1, 27420, Note_on_c, 0, 57, 36
1, 27450, Note_on_c, 0, 82, 0
1, 27450, Note_on_c, 0, 84, 46
1, 27450, Note_on_c, 0, 57, 0
1, 27450, Note_on_c, 0, 65, 36
1, 27480, Note_on_c, 0, 84, 0
1, 27480, Note_on_c, 0, 84, 51
1, 27480, Note_on_c, 0, 65, 0
1, 27480, Note_on_c, 0, 53, 0
1, 27480, Note_on_c, 0, 58, 41
1, 27510, Note_on_c, 0, 84, 0
1, 27510, Note_on_c, 0, 74, 37
1, 27510, Note_on_c, 0, 67, 36
1, 27540, Note_on_c, 0, 74, 0
1, 27540, Note_on_c, 0, 82, 44
1, 27540, Note_on_c, 0, 67, 0
1, 27540, Note_on_c, 0, 62, 36
1, 27570, Note_on_c, 0, 82, 0
1, 27570, Note_on_c, 0, 79, 40
1, 27570, Note_on_c, 0, 62, 0
1, 27570, Note_on_c, 0, 67, 36
1, 27600, Note_on_c, 0, 79, 0
1, 27600, Note_on_c, 0, 77, 37
1, 27600, Note_on_c, 0, 67, 0
1, 27600, Note_on_c, 0, 58, 0
1, 27600, Note_on_c, 0, 60, 40
1, 27630, Note_on_c, 0, 69, 36
1, 27660, Note_on_c, 0, 69, 0
1, 27660, Note_on_c, 0, 65, 36
1, 27690, Note_on_c, 0, 65, 0
1, 27690, Note_on_c, 0, 69, 36
1, 27720, Note_on_c, 0, 77, 0
1, 27720, Note_on_c, 0, 76, 36
1, 27720, Note_on_c, 0, 69, 0
1, 27720, Note_on_c, 0, 60, 0
1, 27720, Note_on_c, 0, 60, 42
1, 27730, Note_on_c, 0, 76, 0
1, 27730, Note_on_c, 0, 77, 36
1, 27740, Note_on_c, 0, 77, 0
1, 27740, Note_on_c, 0, 76, 36
1, 27750, Note_on_c, 0, 76, 0
1, 27750, Note_on_c, 0, 77, 36
1, 27750, Note_on_c, 0, 67, 36
1, 27760, Note_on_c, 0, 77, 0
1, 27760, Note_on_c, 0, 76, 36
1, 27770, Note_on_c, 0, 76, 0
1, 27770, Note_on_c, 0, 77, 36
1, 27780, Note_on_c, 0, 77, 0
1, 27780, Note_on_c, 0, 76, 36
1, 27780, Note_on_c, 0, 67, 0
1, 27780, Note_on_c, 0, 64, 36
1, 27790, Note_on_c, 0, 76, 0
1, 27790, Note_on_c, 0, 77, 36
1, 27800, Note_on_c, 0, 77, 0
1, 27800, Note_on_c, 0, 76, 36
1, 27810, Note_on_c, 0, 76, 0
1, 27810, Note_on_c, 0, 74, 36
1, 27810, Note_on_c, 0, 64, 0
1, 27810, Note_on_c, 0, 67, 36
1, 27825, Note_on_c, 0, 74, 0
1, 27825, Note_on_c, 0, 76, 36
1, 27840, Note_on_c, 0, 76, 0
1, 27840, Note_on_c, 0, 67, 0
1, 27840, Note_on_c, 0, 60, 0
1, 27840, Note_on_c, 0, 57, 41
1, 27870, Note_on_c, 0, 84, 37
1, 27870, Note_on_c, 0, 65, 36
1, 27900, Note_on_c, 0, 84, 0
1, 27900, Note_on_c, 0, 81, 39
1, 27900, Note_on_c, 0, 65, 0
1, 27900, Note_on_c, 0, 60, 36
1, 27930, Note_on_c, 0, 81, 0
1, 27930, Note_on_c, 0, 77, 44
1, 27930, Note_on_c, 0, 60, 0
1, 27930, Note_on_c, 0, 65, 36
1, 27960, Note_on_c, 0, 77, 0
1, 27960, Note_on_c, 0, 75, 49
1, 27960, Note_on_c, 0, 65, 0
1, 27960, Note_on_c, 0, 57, 0
1, 27960, Note_on_c, 0, 58, 41
1, 27990, Note_on_c, 0, 75, 0
1, 27990, Note_on_c, 0, 74, 48
1, 27990, Note_on_c, 0, 65, 36
1, 28020, Note_on_c, 0, 74, 0
1, 28020, Note_on_c, 0, 85, 45
1, 28020, Note_on_c, 0, 65, 0
1, 28020, Note_on_c, 0, 62, 36
1, 28050, Note_on_c, 0, 85, 0
1, 28050, Note_on_c, 0, 86, 43
1, 28050, Note_on_c, 0, 62, 0
1, 28050, Note_on_c, 0, 65, 36
1, 28080, Note_on_c, 0, 86, 0
1, 28080, Note_on_c, 0, 77, 40
1, 28080, Note_on_c, 0, 65, 0
1, 28080, Note_on_c, 0, 58, 0
1, 28080, Note_on_c, 0, 60, 39
1, 28110, Note_on_c, 0, 69, 36
1, 28140, Note_on_c, 0, 69, 0
1, 28140, Note_on_c, 0, 65, 36
1, 28170, Note_on_c, 0, 65, 0
1, 28170, Note_on_c, 0, 69, 36
1, 28200, Note_on_c, 0, 77, 0
1, 28200, Note_on_c, 0, 79, 39
1, 28200, Note_on_c, 0, 69, 0
1, 28200, Note_on_c, 0, 60, 0
1, 28200, Note_on_c, 0, 60, 40
1, 28210, Note_on_c, 0, 79, 0
1, 28210, Note_on_c, 0, 81, 39
1, 28220, Note_on_c, 0, 81, 0
1, 28220, Note_on_c, 0, 79, 39
1, 28230, Note_on_c, 0, 79, 0
1, 28230, Note_on_c, 0, 81, 39
1, 28230, Note_on_c, 0, 64, 36
1, 28240, Note_on_c, 0, 81, 0
1, 28240, Note_on_c, 0, 79, 39
1, 28250, Note_on_c, 0, 79, 0
1, 28250, Note_on_c, 0, 81, 39
1, 28260, Note_on_c, 0, 81, 0
1, 28260, Note_on_c, 0, 79, 39
1, 28260, Note_on_c, 0, 64, 0
1, 28260, Note_on_c, 0, 60, 0
1, 28260, Note_on_c, 0, 60, 36
1, 28270, Note_on_c, 0, 79, 0
1, 28270, Note_on_c, 0, 81, 39
1, 28280, Note_on_c, 0, 81, 0
1, 28280, Note_on_c, 0, 79, 39
1, 28290, Note_on_c, 0, 79, 0
1, 28290, Note_on_c, 0, 77, 39
1, 28290, Note_on_c, 0, 64, 36
1, 28305, Note_on_c, 0, 77, 0
1, 28305, Note_on_c, 0, 79, 39
1, 28320, Note_on_c, 0, 79, 0
1, 28320, Note_on_c, 0, 77, 40
1, 28320, Note_on_c, 0, 64, 0
1, 28320, Note_on_c, 0, 60, 0
1, 28320, Note_on_c, 0, 53, 36
1, 28320, Note_on_c, 0, 65, 36
1, 28380, Note_on_c, 0, 77, 0
1, 28380, Note_on_c, 0, 69, 44
1, 28380, Note_on_c, 0, 65, 44
1, 28440, Note_on_c, 0, 65, 0
1, 28440, Note_on_c, 0, 69, 0
1, 28440, Note_on_c, 0, 65, 44
1, 28440, Note_on_c, 0, 69, 44
1, 28440, Note_on_c, 0, 65, 0
1, 28440, Note_on_c, 0, 53, 0
1, 28500, Note_on_c, 0, 69, 0
1, 28500, Note_on_c, 0, 65, 0
1, 28500, Note_on_c, 0, 65, 44
1, 28500, Note_on_c, 0, 69, 44
1, 28560, Note_on_c, 0, 69, 0
1, 28560, Note_on_c, 0, 65, 0
1, 28560, Note_on_c, 0, 65, 42
1, 28560, Note_on_c, 0, 69, 42
1, 28570, Note_on_c, 0, 69, 0
1, 28570, Note_on_c, 0, 65, 0
1, 28570, Note_on_c, 0, 67, 41
1, 28570, Note_on_c, 0, 70, 41
1, 28580, Note_on_c, 0, 70, 0
1, 28580, Note_on_c, 0, 67, 0
1, 28580, Note_on_c, 0, 65, 39
1, 28580, Note_on_c, 0, 69, 39
1, 28590, Note_on_c, 0, 69, 0
1, 28590, Note_on_c, 0, 65, 0
1, 28590, Note_on_c, 0, 64, 38
1, 28590, Note_on_c, 0, 67, 38
1, 28605, Note_on_c, 0, 67, 0
1, 28605, Note_on_c, 0, 64, 0
1, 28605, Note_on_c, 0, 65, 43
1, 28605, Note_on_c, 0, 69, 43
1, 28620, Note_on_c, 0, 69, 0
1, 28620, Note_on_c, 0, 65, 0
1, 28620, Note_on_c, 0, 72, 45
1, 28620, Note_on_c, 0, 69, 45
1, 28680, Note_on_c, 0, 69, 0
1, 28680, Note_on_c, 0, 72, 0
1, 28680, Note_on_c, 0, 69, 45
1, 28680, Note_on_c, 0, 65, 45
1, 28740, Note_on_c, 0, 65, 0
1, 28740, Note_on_c, 0, 69, 0
1, 28740, Note_on_c, 0, 62, 45
1, 28740, Note_on_c, 0, 65, 45
1, 28800, Note_on_c, 0, 65, 0
1, 28800, Note_on_c, 0, 62, 0
1, 28800, Note_on_c, 0, 58, 51
1, 28800, Note_on_c, 0, 62, 51
1, 28920, Note_on_c, 0, 34, 45
1, 28920, Note_on_c, 0, 46, 45
1, 28950, Note_on_c, 0, 62, 0
1, 28950, Note_on_c, 0, 58, 0
1, 28950, Note_on_c, 0, 58, 35
1, 28950, Note_on_c, 0, 62, 35
1, 28980, Note_on_c, 0, 62, 0
1, 28980, Note_on_c, 0, 58, 0
1, 28980, Note_on_c, 0, 60, 38
1, 28980, Note_on_c, 0, 64, 38
1, 29010, Note_on_c, 0, 64, 0
1, 29010, Note_on_c, 0, 60, 0
1, 29010, Note_on_c, 0, 62, 42
1, 29010, Note_on_c, 0, 65, 42
1, 29040, Note_on_c, 0, 65, 0
1, 29040, Note_on_c, 0, 62, 0
1, 29040, Note_on_c, 0, 62, 46
1, 29040, Note_on_c, 0, 65, 46
1, 29040, Note_on_c, 0, 46, 0
1, 29040, Note_on_c, 0, 34, 0
1, 29040, Note_on_c, 0, 48, 45
1, 29040, Note_on_c, 0, 36, 45
1, 29070, Note_on_c, 0, 65, 0
1, 29070, Note_on_c, 0, 62, 0
1, 29070, Note_on_c, 0, 60, 44
1, 29070, Note_on_c, 0, 64, 44
1, 29100, Note_on_c, 0, 64, 0
1, 29100, Note_on_c, 0, 60, 0
1, 29100, Note_on_c, 0, 58, 42
1, 29100, Note_on_c, 0, 62, 42
1, 29130, Note_on_c, 0, 62, 0
1, 29130, Note_on_c, 0, 58, 0
1, 29130, Note_on_c, 0, 57, 39
1, 29130, Note_on_c, 0, 60, 39
1, 29160, Note_on_c, 0, 60, 0
1, 29160, Note_on_c, 0, 57, 0
1, 29160, Note_on_c, 0, 57, 43
1, 29160, Note_on_c, 0, 60, 43
1, 29160, Note_on_c, 0, 36, 0
1, 29160, Note_on_c, 0, 48, 0
1, 29160, Note_on_c, 0, 48, 45
1, 29160, Note_on_c, 0, 36, 45
1, 29190, Note_on_c, 0, 60, 0
1, 29190, Note_on_c, 0, 57, 0
1, 29190, Note_on_c, 0, 55, 42
1, 29190, Note_on_c, 0, 58, 42
1, 29220, Note_on_c, 0, 58, 0
1, 29220, Note_on_c, 0, 55, 0
1, 29220, Note_on_c, 0, 53, 40
1, 29220, Note_on_c, 0, 57, 40
1, 29250, Note_on_c, 0, 57, 0
1, 29250, Note_on_c, 0, 53, 0
1, 29250, Note_on_c, 0, 52, 38
1, 29250, Note_on_c, 0, 55, 38
1, 29280, Note_on_c, 0, 55, 0
1, 29280, Note_on_c, 0, 52, 0
1, 29280, Note_on_c, 0, 36, 0
1, 29280, Note_on_c, 0, 48, 0
1, 29280, Note_on_c, 0, 29, 39
1, 29280, Note_on_c, 0, 41, 39
1, 29340, Note_on_c, 0, 65, 40
1, 29360, Note_on_c, 0, 69, 40
1, 29380, Note_on_c, 0, 69, 0
1, 29380, Note_on_c, 0, 77, 41
1, 29400, Note_on_c, 0, 77, 0
1, 29400, Note_on_c, 0, 65, 0
1, 29400, Note_on_c, 0, 65, 41
1, 29420, Note_on_c, 0, 69, 42
1, 29440, Note_on_c, 0, 69, 0
1, 29440, Note_on_c, 0, 77, 42
1, 29460, Note_on_c, 0, 77, 0
1, 29460, Note_on_c, 0, 65, 0
1, 29460, Note_on_c, 0, 65, 43
1, 29480, Note_on_c, 0, 69, 43
1, 29500, Note_on_c, 0, 69, 0
1, 29500, Note_on_c, 0, 77, 44
1, 29520, Note_on_c, 0, 77, 0
1, 29520, Note_on_c, 0, 65, 0
1, 29520, Note_on_c, 0, 65, 45
1, 29520, Note_on_c, 0, 41, 0
1, 29520, Note_on_c, 0, 29, 0
1, 29540, Note_on_c, 0, 69, 46
1, 29560, Note_on_c, 0, 69, 0
1, 29560, Note_on_c, 0, 77, 48
1, 29580, Note_on_c, 0, 77, 0
1, 29580, Note_on_c, 0, 65, 0
1, 29580, Note_on_c, 0, 69, 49
1, 29600, Note_on_c, 0, 72, 51
1, 29620, Note_on_c, 0, 72, 0
1, 29620, Note_on_c, 0, 81, 51
1, 29640, Note_on_c, 0, 81, 0
1, 29640, Note_on_c, 0, 69, 0
1, 29640, Note_on_c, 0, 65, 51
1, 29660, Note_on_c, 0, 69, 48
1, 29680, Note_on_c, 0, 69, 0
1, 29680, Note_on_c, 0, 77, 46
1, 29700, Note_on_c, 0, 77, 0
1, 29700, Note_on_c, 0, 65, 0
1, 29700, Note_on_c, 0, 62, 43
1, 29720, Note_on_c, 0, 65, 41
1, 29740, Note_on_c, 0, 65, 0
1, 29740, Note_on_c, 0, 74, 39
1, 29760, Note_on_c, 0, 74, 0
1, 29760, Note_on_c, 0, 62, 0
1, 29760, Note_on_c, 0, 58, 54
1, 29880, Note_on_c, 0, 46, 40
1, 29880, Note_on_c, 0, 34, 40
1, 29910, Note_on_c, 0, 58, 0
1, 29910, Note_on_c, 0, 74, 51
1, 29910, Note_on_c, 0, 77, 51
1, 29940, Note_on_c, 0, 77, 0
1, 29940, Note_on_c, 0, 74, 0
1, 29940, Note_on_c, 0, 72, 46
1, 29940, Note_on_c, 0, 76, 46
1, 29970, Note_on_c, 0, 76, 0
1, 29970, Note_on_c, 0, 72, 0
1, 29970, Note_on_c, 0, 70, 41
1, 29970, Note_on_c, 0, 74, 41
1, 30000, Note_on_c, 0, 74, 0
1, 30000, Note_on_c, 0, 70, 0
1, 30000, Note_on_c, 0, 70, 48
1, 30000, Note_on_c, 0, 74, 48
1, 30000, Note_on_c, 0, 34, 0
1, 30000, Note_on_c, 0, 46, 0
1, 30000, Note_on_c, 0, 48, 40
1, 30000, Note_on_c, 0, 36, 40
1, 30030, Note_on_c, 0, 74, 0
1, 30030, Note_on_c, 0, 70, 0
1, 30030, Note_on_c, 0, 69, 47
1, 30030, Note_on_c, 0, 72, 47
1, 30060, Note_on_c, 0, 72, 0
1, 30060, Note_on_c, 0, 69, 0
1, 30060, Note_on_c, 0, 67, 46
1, 30060, Note_on_c, 0, 70, 46
1, 30090, Note_on_c, 0, 70, 0
1, 30090, Note_on_c, 0, 67, 0
1, 30090, Note_on_c, 0, 65, 45
1, 30090, Note_on_c, 0, 69, 45
1, 30120, Note_on_c, 0, 69, 0
1, 30120, Note_on_c, 0, 65, 0
1, 30120, Note_on_c, 0, 69, 44
1, 30120, Note_on_c, 0, 36, 0
1, 30120, Note_on_c, 0, 48, 0
1, 30120, Note_on_c, 0, 58, 40
1, 30120, Note_on_c, 0, 48, 40
1, 30150, Note_on_c, 0, 69, 0
1, 30150, Note_on_c, 0, 67, 43
1, 30180, Note_on_c, 0, 67, 0
1, 30180, Note_on_c, 0, 65, 42
1, 30210, Note_on_c, 0, 65, 0
1, 30210, Note_on_c, 0, 58, 41
1, 30210, Note_on_c, 0, 64, 41
1, 30240, Note_on_c, 0, 64, 0
1, 30240, Note_on_c, 0, 58, 0
1, 30240, Note_on_c, 0, 58, 40
1, 30240, Note_on_c, 0, 64, 40
1, 30240, Note_on_c, 0, 48, 0
1, 30240, Note_on_c, 0, 58, 0
1, 30240, Note_on_c, 0, 53, 40
1, 30480, Note_on_c, 0, 64, 0
1, 30480, Note_on_c, 0, 58, 0
1, 30480, Note_on_c, 0, 53, 0
1, 30480, Note_on_c, 0, 41, 36
1, 30483, Note_on_c, 0, 45, 36
1, 30486, Note_on_c, 0, 48, 36
1, 30489, Note_on_c, 0, 57, 40
1, 30492, Note_on_c, 0, 60, 40
1, 30495, Note_on_c, 0, 65, 40
1, 30660, Note_on_c, 0, 65, 0
1, 30660, Note_on_c, 0, 60, 0
1, 30660, Note_on_c, 0, 57, 0
1, 30660, Note_on_c, 0, 48, 0
1, 30660, Note_on_c, 0, 45, 0
1, 30660, Note_on_c, 0, 41, 0
1, 30670, End_track
0, 0, End_of_file