0, 0, Header, 0, 1, 96
1, 0, Start_track
1, 0, Tempo, 952380
1, 0, Note_on_c, 0, 74, 64
1, 0, Note_on_c, 1, 65, 64
1, 0, Note_on_c, 1, 58, 64
1, 89, Note_on_c, 0, 74, 0
1, 96, Note_on_c, 0, 75, 64
1, 102, Note_on_c, 0, 75, 0
1, 102, Note_on_c, 0, 74, 64
1, 108, Note_on_c, 0, 74, 0
1, 108, Note_on_c, 0, 72, 64
1, 114, Note_on_c, 0, 72, 0
1, 114, Note_on_c, 0, 74, 64
1, 168, Note_on_c, 0, 74, 0
1, 168, Note_on_c, 0, 75, 64
1, 177, Note_on_c, 1, 65, 0
1, 191, Note_on_c, 0, 75, 0
1, 192, Note_on_c, 0, 72, 64
1, 192, Note_on_c, 1, 63, 64
1, 264, Note_on_c, 0, 72, 0
1, 264, Note_on_c, 0, 69, 64
1, 281, Note_on_c, 1, 63, 0
1, 287, Note_on_c, 0, 69, 0
1, 288, Note_on_c, 0, 70, 64
1, 288, Note_on_c, 1, 62, 64
1, 315, Note_on_c, 0, 70, 0
1, 318, Note_on_c, 0, 72, 64
1, 324, Note_on_c, 0, 72, 0
1, 324, Note_on_c, 0, 70, 64
1, 330, Note_on_c, 0, 70, 0
1, 330, Note_on_c, 0, 69, 64
1, 336, Note_on_c, 0, 69, 0
1, 336, Note_on_c, 0, 70, 64
1, 370, Note_on_c, 0, 70, 0
1, 372, Note_on_c, 0, 74, 64
1, 384, Note_on_c, 0, 74, 0
1, 384, Note_on_c, 0, 77, 64
1, 404, Note_on_c, 0, 77, 0
1, 421, Note_on_c, 1, 62, 0
1, 421, Note_on_c, 1, 58, 0
1, 576, Note_on_c, 0, 65, 64
1, 576, Note_on_c, 1, 58, 64
1, 576, Note_on_c, 1, 50, 64
1, 624, Note_on_c, 0, 65, 0
1, 624, Note_on_c, 0, 70, 64
1, 665, Note_on_c, 1, 50, 0
1, 669, Note_on_c, 0, 70, 0
1, 672, Note_on_c, 0, 67, 64
1, 672, Note_on_c, 1, 51, 64
1, 720, Note_on_c, 0, 67, 0
1, 720, Note_on_c, 0, 75, 77
1, 753, Note_on_c, 1, 58, 0
1, 765, Note_on_c, 0, 75, 0
1, 768, Note_on_c, 0, 72, 64
1, 768, Note_on_c, 1, 60, 64
1, 816, Note_on_c, 0, 72, 0
1, 816, Note_on_c, 0, 79, 77
1, 849, Note_on_c, 1, 51, 0
1, 857, Note_on_c, 1, 60, 0
1, 861, Note_on_c, 0, 79, 0
1, 864, Note_on_c, 0, 70, 64
1, 864, Note_on_c, 1, 62, 64
1, 864, Note_on_c, 1, 53, 64
1, 953, Note_on_c, 1, 62, 0
1, 960, Note_on_c, 1, 60, 64
1, 997, Note_on_c, 0, 70, 0
1, 1008, Note_on_c, 0, 69, 64
1, 1041, Note_on_c, 1, 53, 0
1, 1049, Note_on_c, 1, 60, 0
1, 1053, Note_on_c, 0, 69, 0
1, 1056, Note_on_c, 0, 70, 64
1, 1079, Note_on_c, 0, 70, 0
1, 1080, Note_on_c, 0, 71, 64
1, 1103, Note_on_c, 0, 71, 0
1, 1104, Note_on_c, 0, 72, 64
1, 1127, Note_on_c, 0, 72, 0
1, 1128, Note_on_c, 0, 73, 64
1, 1151, Note_on_c, 0, 73, 0
1, 1152, Note_on_c, 0, 74, 64
1, 1152, Note_on_c, 1, 65, 64
1, 1152, Note_on_c, 1, 58, 64
1, 1241, Note_on_c, 0, 74, 0
1, 1248, Note_on_c, 0, 75, 64
1, 1254, Note_on_c, 0, 75, 0
1, 1254, Note_on_c, 0, 74, 64
1, 1260, Note_on_c, 0, 74, 0
1, 1260, Note_on_c, 0, 72, 64
1, 1266, Note_on_c, 0, 72, 0
1, 1266, Note_on_c, 0, 74, 64
1, 1320, Note_on_c, 0, 74, 0
1, 1320, Note_on_c, 0, 75, 64
1, 1329, Note_on_c, 1, 65, 0
1, 1343, Note_on_c, 0, 75, 0
1, 1344, Note_on_c, 0, 72, 64
1, 1344, Note_on_c, 1, 63, 64
1, 1416, Note_on_c, 0, 72, 0
1, 1416, Note_on_c, 0, 69, 64
1, 1433, Note_on_c, 1, 63, 0
1, 1439, Note_on_c, 0, 69, 0
1, 1440, Note_on_c, 0, 70, 64
1, 1440, Note_on_c, 1, 62, 64
1, 1467, Note_on_c, 0, 70, 0
1, 1470, Note_on_c, 0, 72, 64
1, 1476, Note_on_c, 0, 72, 0
1, 1476, Note_on_c, 0, 70, 64
1, 1482, Note_on_c, 0, 70, 0
1, 1482, Note_on_c, 0, 69, 64
1, 1488, Note_on_c, 0, 69, 0
1, 1488, Note_on_c, 0, 70, 64
1, 1522, Note_on_c, 0, 70, 0
1, 1524, Note_on_c, 0, 74, 64
1, 1536, Note_on_c, 0, 74, 0
1, 1536, Note_on_c, 0, 77, 64
1, 1556, Note_on_c, 0, 77, 0
1, 1573, Note_on_c, 1, 62, 0
1, 1573, Note_on_c, 1, 58, 0
1, 1728, Note_on_c, 0, 76, 64
1, 1728, Note_on_c, 1, 58, 64
1, 1728, Note_on_c, 1, 55, 64
1, 1728, Note_on_c, 1, 48, 64
1, 1776, Note_on_c, 0, 76, 0
1, 1776, Note_on_c, 0, 82, 77
1, 1821, Note_on_c, 0, 82, 0
1, 1824, Note_on_c, 0, 79, 64
1, 1872, Note_on_c, 0, 79, 0
1, 1872, Note_on_c, 0, 86, 77
1, 1917, Note_on_c, 0, 86, 0
1, 1920, Note_on_c, 0, 84, 64
1, 1968, Note_on_c, 0, 84, 0
1, 1968, Note_on_c, 0, 76, 64
1, 1993, Note_on_c, 1, 58, 0
1, 1993, Note_on_c, 1, 55, 0
1, 1993, Note_on_c, 1, 48, 0
1, 2013, Note_on_c, 0, 76, 0
1, 2016, Note_on_c, 0, 79, 64
1, 2016, Note_on_c, 1, 58, 64
1, 2016, Note_on_c, 1, 53, 64
1, 2112, Note_on_c, 1, 58, 0
1, 2112, Note_on_c, 1, 57, 64
1, 2149, Note_on_c, 0, 79, 0
1, 2160, Note_on_c, 0, 77, 64
1, 2193, Note_on_c, 1, 53, 0
1, 2201, Note_on_c, 1, 57, 0
1, 2205, Note_on_c, 0, 77, 0
1, 2208, Note_on_c, 0, 76, 64
1, 2253, Note_on_c, 0, 76, 0
1, 2256, Note_on_c, 0, 75, 64
1, 2301, Note_on_c, 0, 75, 0
1, 2304, Note_on_c, 0, 74, 64
1, 2304, Note_on_c, 1, 65, 64
1, 2304, Note_on_c, 1, 58, 64
1, 2398, Note_on_c, 0, 74, 0
1, 2400, Note_on_c, 0, 75, 64
1, 2406, Note_on_c, 0, 75, 0
1, 2406, Note_on_c, 0, 74, 64
1, 2412, Note_on_c, 0, 74, 0
1, 2412, Note_on_c, 0, 72, 64
1, 2418, Note_on_c, 0, 72, 0
1, 2418, Note_on_c, 0, 74, 64
1, 2445, Note_on_c, 0, 74, 0
1, 2448, Note_on_c, 0, 77, 64
1, 2466, Note_on_c, 0, 77, 0
1, 2466, Note_on_c, 0, 75, 64
1, 2491, Note_on_c, 1, 65, 0
1, 2493, Note_on_c, 0, 75, 0
1, 2496, Note_on_c, 0, 74, 64
1, 2496, Note_on_c, 1, 63, 64
1, 2514, Note_on_c, 0, 74, 0
1, 2514, Note_on_c, 0, 72, 64
1, 2541, Note_on_c, 0, 72, 0
1, 2544, Note_on_c, 0, 70, 64
1, 2562, Note_on_c, 0, 70, 0
1, 2562, Note_on_c, 0, 69, 64
1, 2585, Note_on_c, 1, 63, 0
1, 2589, Note_on_c, 0, 69, 0
1, 2592, Note_on_c, 0, 70, 64
1, 2592, Note_on_c, 1, 62, 64
1, 2619, Note_on_c, 0, 70, 0
1, 2622, Note_on_c, 0, 72, 64
1, 2628, Note_on_c, 0, 72, 0
1, 2628, Note_on_c, 0, 70, 64
1, 2634, Note_on_c, 0, 70, 0
1, 2634, Note_on_c, 0, 69, 64
1, 2640, Note_on_c, 0, 69, 0
1, 2640, Note_on_c, 0, 70, 64
1, 2674, Note_on_c, 0, 70, 0
1, 2676, Note_on_c, 0, 74, 64
1, 2688, Note_on_c, 0, 74, 0
1, 2688, Note_on_c, 0, 77, 64
1, 2708, Note_on_c, 0, 77, 0
1, 2725, Note_on_c, 1, 62, 0
1, 2725, Note_on_c, 1, 58, 0
1, 2880, Note_on_c, 0, 65, 64
1, 2880, Note_on_c, 1, 58, 64
1, 2880, Note_on_c, 1, 50, 64
1, 2900, Note_on_c, 0, 65, 0
1, 2928, Note_on_c, 0, 72, 64
1, 2940, Note_on_c, 0, 72, 0
1, 2940, Note_on_c, 0, 70, 64
1, 2952, Note_on_c, 0, 70, 0
1, 2952, Note_on_c, 0, 69, 64
1, 2964, Note_on_c, 0, 69, 0
1, 2964, Note_on_c, 0, 70, 64
1, 2969, Note_on_c, 1, 50, 0
1, 2976, Note_on_c, 0, 70, 0
1, 2976, Note_on_c, 0, 67, 64
1, 2976, Note_on_c, 1, 51, 64
1, 2996, Note_on_c, 0, 67, 0
1, 3024, Note_on_c, 0, 77, 64
1, 3036, Note_on_c, 0, 77, 0
1, 3036, Note_on_c, 0, 75, 64
1, 3048, Note_on_c, 0, 75, 0
1, 3048, Note_on_c, 0, 74, 64
1, 3057, Note_on_c, 1, 58, 0
1, 3060, Note_on_c, 0, 74, 0
1, 3060, Note_on_c, 0, 75, 64
1, 3072, Note_on_c, 0, 75, 0
1, 3072, Note_on_c, 0, 72, 64
1, 3072, Note_on_c, 1, 60, 64
1, 3092, Note_on_c, 0, 72, 0
1, 3120, Note_on_c, 0, 78, 64
1, 3132, Note_on_c, 0, 78, 0
1, 3132, Note_on_c, 0, 79, 64
1, 3144, Note_on_c, 0, 79, 0
1, 3144, Note_on_c, 0, 75, 64
1, 3153, Note_on_c, 1, 51, 0
1, 3156, Note_on_c, 0, 75, 0
1, 3156, Note_on_c, 0, 72, 64
1, 3161, Note_on_c, 1, 60, 0
1, 3168, Note_on_c, 0, 72, 0
1, 3168, Note_on_c, 0, 70, 64
1, 3168, Note_on_c, 1, 62, 64
1, 3168, Note_on_c, 1, 53, 64
1, 3264, Note_on_c, 1, 62, 0
1, 3264, Note_on_c, 1, 60, 64
1, 3287, Note_on_c, 0, 70, 0
1, 3288, Note_on_c, 0, 69, 65
1, 3311, Note_on_c, 0, 69, 0
1, 3312, Note_on_c, 0, 72, 66
1, 3335, Note_on_c, 0, 72, 0
1, 3336, Note_on_c, 0, 70, 68
1, 3345, Note_on_c, 1, 53, 0
1, 3353, Note_on_c, 1, 60, 0
1, 3359, Note_on_c, 0, 70, 0
1, 3360, Note_on_c, 0, 74, 69
1, 3383, Note_on_c, 0, 74, 0
1, 3384, Note_on_c, 0, 72, 70
1, 3407, Note_on_c, 0, 72, 0
1, 3408, Note_on_c, 0, 75, 72
1, 3431, Note_on_c, 0, 75, 0
1, 3432, Note_on_c, 0, 73, 73
1, 3455, Note_on_c, 0, 73, 0
1, 3456, Note_on_c, 0, 74, 75
1, 3456, Note_on_c, 1, 65, 70
1, 3456, Note_on_c, 1, 58, 64
1, 3545, Note_on_c, 0, 74, 0
1, 3552, Note_on_c, 0, 75, 75
1, 3558, Note_on_c, 0, 75, 0
1, 3558, Note_on_c, 0, 74, 75
1, 3564, Note_on_c, 0, 74, 0
1, 3564, Note_on_c, 0, 72, 75
1, 3570, Note_on_c, 0, 72, 0
1, 3570, Note_on_c, 0, 74, 75
1, 3619, Note_on_c, 0, 74, 0
1, 3624, Note_on_c, 0, 72, 75
1, 3633, Note_on_c, 1, 65, 0
1, 3636, Note_on_c, 0, 72, 0
1, 3636, Note_on_c, 0, 74, 75
1, 3648, Note_on_c, 0, 74, 0
1, 3648, Note_on_c, 0, 77, 75
1, 3648, Note_on_c, 1, 63, 70
1, 3660, Note_on_c, 0, 77, 0
1, 3660, Note_on_c, 0, 75, 75
1, 3672, Note_on_c, 0, 75, 0
1, 3672, Note_on_c, 0, 74, 75
1, 3684, Note_on_c, 0, 74, 0
1, 3684, Note_on_c, 0, 72, 75
1, 3696, Note_on_c, 0, 72, 0
1, 3696, Note_on_c, 0, 74, 75
1, 3708, Note_on_c, 0, 74, 0
1, 3708, Note_on_c, 0, 72, 75
1, 3720, Note_on_c, 0, 72, 0
1, 3720, Note_on_c, 0, 70, 75
1, 3732, Note_on_c, 0, 70, 0
1, 3732, Note_on_c, 0, 69, 75
1, 3737, Note_on_c, 1, 63, 0
1, 3744, Note_on_c, 0, 69, 0
1, 3744, Note_on_c, 0, 70, 75
1, 3744, Note_on_c, 1, 62, 70
1, 3756, Note_on_c, 0, 70, 0
1, 3756, Note_on_c, 0, 69, 75
1, 3768, Note_on_c, 0, 69, 0
1, 3768, Note_on_c, 0, 72, 75
1, 3780, Note_on_c, 0, 72, 0
1, 3780, Note_on_c, 0, 70, 75
1, 3792, Note_on_c, 0, 70, 0
1, 3792, Note_on_c, 0, 74, 75
1, 3804, Note_on_c, 0, 74, 0
1, 3804, Note_on_c, 0, 72, 75
1, 3816, Note_on_c, 0, 72, 0
1, 3816, Note_on_c, 0, 75, 75
1, 3828, Note_on_c, 0, 75, 0
1, 3828, Note_on_c, 0, 74, 75
1, 3840, Note_on_c, 0, 74, 0
1, 3840, Note_on_c, 0, 77, 75
1, 3877, Note_on_c, 1, 62, 0
1, 3877, Note_on_c, 1, 58, 0
1, 3885, Note_on_c, 0, 77, 0
1, 4032, Note_on_c, 0, 76, 75
1, 4032, Note_on_c, 1, 58, 75
1, 4032, Note_on_c, 1, 55, 75
1, 4032, Note_on_c, 1, 48, 75
1, 4077, Note_on_c, 0, 76, 0
1, 4080, Note_on_c, 0, 77, 75
1, 4086, Note_on_c, 0, 77, 0
1, 4086, Note_on_c, 0, 76, 75
1, 4092, Note_on_c, 0, 76, 0
1, 4092, Note_on_c, 0, 74, 75
1, 4098, Note_on_c, 0, 74, 0
1, 4098, Note_on_c, 0, 76, 75
1, 4114, Note_on_c, 0, 76, 0
1, 4116, Note_on_c, 0, 77, 75
1, 4128, Note_on_c, 0, 77, 0
1, 4128, Note_on_c, 0, 79, 88
1, 4138, Note_on_c, 0, 79, 0
1, 4152, Note_on_c, 0, 81, 75
1, 4162, Note_on_c, 0, 81, 0
1, 4176, Note_on_c, 0, 82, 75
1, 4186, Note_on_c, 0, 82, 0
1, 4200, Note_on_c, 0, 83, 75
1, 4210, Note_on_c, 0, 83, 0
1, 4224, Note_on_c, 0, 84, 75
1, 4234, Note_on_c, 0, 84, 0
1, 4248, Note_on_c, 0, 85, 75
1, 4258, Note_on_c, 0, 85, 0
1, 4272, Note_on_c, 0, 86, 75
1, 4295, Note_on_c, 0, 86, 0
1, 4296, Note_on_c, 0, 76, 75
1, 4297, Note_on_c, 1, 58, 0
1, 4297, Note_on_c, 1, 55, 0
1, 4297, Note_on_c, 1, 48, 0
1, 4319, Note_on_c, 0, 76, 0
1, 4320, Note_on_c, 0, 79, 75
1, 4320, Note_on_c, 1, 58, 75
1, 4320, Note_on_c, 1, 53, 64
1, 4416, Note_on_c, 0, 79, 0
1, 4416, Note_on_c, 0, 77, 75
1, 4416, Note_on_c, 1, 58, 0
1, 4416, Note_on_c, 1, 57, 75
1, 4436, Note_on_c, 0, 77, 0
1, 4455, Note_on_c, 1, 57, 0
1, 4497, Note_on_c, 1, 53, 0
1, 4608, Note_on_c, 0, 57, 75
1, 4608, Note_on_c, 1, 41, 64
1, 4620, Note_on_c, 0, 57, 0
1, 4620, Note_on_c, 0, 65, 91
1, 4656, Note_on_c, 1, 51, 75
1, 4701, Note_on_c, 1, 51, 0
1, 4704, Note_on_c, 1, 51, 75
1, 4749, Note_on_c, 1, 51, 0
1, 4752, Note_on_c, 0, 65, 0
1, 4752, Note_on_c, 0, 67, 75
1, 4752, Note_on_c, 1, 51, 75
1, 4758, Note_on_c, 0, 67, 0
1, 4758, Note_on_c, 0, 65, 75
1, 4764, Note_on_c, 0, 65, 0
1, 4764, Note_on_c, 0, 63, 75
1, 4770, Note_on_c, 0, 63, 0
1, 4770, Note_on_c, 0, 65, 75
1, 4797, Note_on_c, 0, 65, 0
1, 4797, Note_on_c, 1, 51, 0
1, 4800, Note_on_c, 0, 67, 75
1, 4800, Note_on_c, 1, 51, 75
1, 4845, Note_on_c, 1, 51, 0
1, 4848, Note_on_c, 0, 67, 0
1, 4848, Note_on_c, 0, 69, 75
1, 4848, Note_on_c, 1, 51, 75
1, 4873, Note_on_c, 1, 41, 0
1, 4893, Note_on_c, 0, 69, 0
1, 4893, Note_on_c, 1, 51, 0
1, 4896, Note_on_c, 0, 69, 75
1, 4896, Note_on_c, 1, 41, 64
1, 4923, Note_on_c, 0, 69, 0
1, 4926, Note_on_c, 0, 70, 75
1, 4932, Note_on_c, 0, 70, 0
1, 4932, Note_on_c, 0, 69, 75
1, 4938, Note_on_c, 0, 69, 0
1, 4938, Note_on_c, 0, 67, 75
1, 4944, Note_on_c, 0, 67, 0
1, 4944, Note_on_c, 0, 69, 75
1, 4944, Note_on_c, 1, 50, 75
1, 4978, Note_on_c, 0, 69, 0
1, 4980, Note_on_c, 0, 70, 75
1, 4989, Note_on_c, 1, 50, 0
1, 4992, Note_on_c, 0, 70, 0
1, 4992, Note_on_c, 0, 65, 75
1, 4992, Note_on_c, 1, 50, 75
1, 5037, Note_on_c, 0, 65, 0
1, 5037, Note_on_c, 1, 50, 0
1, 5040, Note_on_c, 1, 50, 75
1, 5085, Note_on_c, 1, 50, 0
1, 5088, Note_on_c, 1, 50, 75
1, 5133, Note_on_c, 1, 50, 0
1, 5136, Note_on_c, 1, 50, 75
1, 5161, Note_on_c, 1, 41, 0
1, 5181, Note_on_c, 1, 50, 0
1, 5184, Note_on_c, 0, 75, 75
1, 5184, Note_on_c, 0, 72, 75
1, 5204, Note_on_c, 0, 75, 0
1, 5204, Note_on_c, 0, 72, 0
1, 5232, Note_on_c, 1, 45, 75
1, 5252, Note_on_c, 1, 45, 0
1, 5280, Note_on_c, 0, 74, 75
1, 5280, Note_on_c, 0, 70, 75
1, 5300, Note_on_c, 0, 74, 0
1, 5300, Note_on_c, 0, 70, 0
1, 5328, Note_on_c, 1, 46, 75
1, 5348, Note_on_c, 1, 46, 0
1, 5376, Note_on_c, 0, 79, 75
1, 5376, Note_on_c, 0, 70, 75
1, 5396, Note_on_c, 0, 79, 0
1, 5396, Note_on_c, 0, 70, 0
1, 5424, Note_on_c, 1, 39, 75
1, 5444, Note_on_c, 1, 39, 0
1, 5472, Note_on_c, 0, 70, 75
1, 5472, Note_on_c, 0, 62, 75
1, 5520, Note_on_c, 1, 40, 75
1, 5565, Note_on_c, 1, 40, 0
1, 5568, Note_on_c, 0, 70, 0
1, 5568, Note_on_c, 0, 62, 0
1, 5568, Note_on_c, 0, 69, 75
1, 5568, Note_on_c, 0, 60, 75
1, 5568, Note_on_c, 1, 41, 72
1, 5588, Note_on_c, 0, 69, 0
1, 5588, Note_on_c, 0, 60, 0
1, 5613, Note_on_c, 1, 41, 0
1, 5616, Note_on_c, 1, 43, 70
1, 5661, Note_on_c, 1, 43, 0
1, 5664, Note_on_c, 1, 41, 73
1, 5709, Note_on_c, 1, 41, 0
1, 5712, Note_on_c, 1, 39, 76
1, 5757, Note_on_c, 1, 39, 0
1, 5760, Note_on_c, 0, 58, 96
1, 5760, Note_on_c, 1, 37, 80
1, 5805, Note_on_c, 1, 37, 0
1, 5808, Note_on_c, 1, 53, 64
1, 5808, Note_on_c, 1, 49, 64
1, 5853, Note_on_c, 1, 53, 0
1, 5853, Note_on_c, 1, 49, 0
1, 5856, Note_on_c, 1, 53, 64
1, 5856, Note_on_c, 1, 49, 64
1, 5901, Note_on_c, 1, 53, 0
1, 5901, Note_on_c, 1, 49, 0
1, 5904, Note_on_c, 0, 58, 0
1, 5904, Note_on_c, 0, 60, 64
1, 5904, Note_on_c, 1, 53, 64
1, 5904, Note_on_c, 1, 49, 64
1, 5910, Note_on_c, 0, 60, 0
1, 5910, Note_on_c, 0, 58, 64
1, 5916, Note_on_c, 0, 58, 0
1, 5916, Note_on_c, 0, 57, 64
1, 5922, Note_on_c, 0, 57, 0
1, 5922, Note_on_c, 0, 58, 64
1, 5949, Note_on_c, 0, 58, 0
1, 5949, Note_on_c, 1, 53, 0
1, 5949, Note_on_c, 1, 49, 0
1, 5952, Note_on_c, 0, 65, 64
1, 5952, Note_on_c, 1, 53, 64
1, 5952, Note_on_c, 1, 49, 64
1, 5997, Note_on_c, 1, 53, 0
1, 5997, Note_on_c, 1, 49, 0
1, 6000, Note_on_c, 1, 53, 64
1, 6000, Note_on_c, 1, 49, 64
1, 6019, Note_on_c, 0, 65, 0
1, 6024, Note_on_c, 0, 61, 64
1, 6045, Note_on_c, 1, 53, 0
1, 6045, Note_on_c, 1, 49, 0
1, 6047, Note_on_c, 0, 61, 0
1, 6048, Note_on_c, 0, 61, 80
1, 6096, Note_on_c, 1, 54, 64
1, 6096, Note_on_c, 1, 51, 64
1, 6141, Note_on_c, 1, 54, 0
1, 6141, Note_on_c, 1, 51, 0
1, 6144, Note_on_c, 0, 61, 0
1, 6144, Note_on_c, 0, 60, 64
1, 6144, Note_on_c, 1, 54, 64
1, 6144, Note_on_c, 1, 51, 64
1, 6189, Note_on_c, 1, 54, 0
1, 6189, Note_on_c, 1, 51, 0
1, 6192, Note_on_c, 1, 54, 64
1, 6192, Note_on_c, 1, 51, 64
1, 6233, Note_on_c, 0, 60, 0
1, 6237, Note_on_c, 1, 54, 0
1, 6237, Note_on_c, 1, 51, 0
1, 6240, Note_on_c, 1, 54, 64
1, 6240, Note_on_c, 1, 51, 64
1, 6285, Note_on_c, 1, 54, 0
1, 6285, Note_on_c, 1, 51, 0
1, 6288, Note_on_c, 1, 54, 64
1, 6288, Note_on_c, 1, 51, 64
1, 6312, Note_on_c, 0, 63, 64
1, 6333, Note_on_c, 1, 54, 0
1, 6333, Note_on_c, 1, 51, 0
1, 6335, Note_on_c, 0, 63, 0
1, 6336, Note_on_c, 0, 63, 64
1, 6384, Note_on_c, 1, 56, 64
1, 6384, Note_on_c, 1, 53, 64
1, 6429, Note_on_c, 1, 56, 0
1, 6429, Note_on_c, 1, 53, 0
1, 6432, Note_on_c, 1, 56, 65
1, 6432, Note_on_c, 1, 53, 65
1, 6469, Note_on_c, 0, 63, 0
1, 6477, Note_on_c, 1, 56, 0
1, 6477, Note_on_c, 1, 53, 0
1, 6480, Note_on_c, 0, 62, 68
1, 6480, Note_on_c, 1, 56, 65
1, 6480, Note_on_c, 1, 53, 65
1, 6525, Note_on_c, 0, 62, 0
1, 6525, Note_on_c, 1, 56, 0
1, 6525, Note_on_c, 1, 53, 0
1, 6528, Note_on_c, 0, 71, 69
1, 6528, Note_on_c, 1, 56, 66
1, 6528, Note_on_c, 1, 53, 66
1, 6573, Note_on_c, 1, 56, 0
1, 6573, Note_on_c, 1, 53, 0
1, 6576, Note_on_c, 1, 56, 66
1, 6576, Note_on_c, 1, 53, 66
1, 6595, Note_on_c, 0, 71, 0
1, 6600, Note_on_c, 0, 62, 71
1, 6621, Note_on_c, 1, 56, 0
1, 6621, Note_on_c, 1, 53, 0
1, 6623, Note_on_c, 0, 62, 0
1, 6624, Note_on_c, 0, 65, 88
1, 6672, Note_on_c, 1, 58, 67
1, 6672, Note_on_c, 1, 54, 67
1, 6717, Note_on_c, 1, 58, 0
1, 6717, Note_on_c, 1, 54, 0
1, 6720, Note_on_c, 0, 65, 0
1, 6720, Note_on_c, 0, 63, 74
1, 6720, Note_on_c, 1, 58, 68
1, 6720, Note_on_c, 1, 54, 68
1, 6765, Note_on_c, 1, 58, 0
1, 6765, Note_on_c, 1, 54, 0
1, 6768, Note_on_c, 1, 58, 68
1, 6768, Note_on_c, 1, 54, 68
1, 6809, Note_on_c, 0, 63, 0
1, 6813, Note_on_c, 1, 58, 0
1, 6813, Note_on_c, 1, 54, 0
1, 6816, Note_on_c, 1, 58, 69
1, 6816, Note_on_c, 1, 54, 69
1, 6861, Note_on_c, 1, 58, 0
1, 6861, Note_on_c, 1, 54, 0
1, 6864, Note_on_c, 1, 58, 69
1, 6864, Note_on_c, 1, 54, 69
1, 6888, Note_on_c, 0, 70, 79
1, 6909, Note_on_c, 1, 58, 0
1, 6909, Note_on_c, 1, 54, 0
1, 6911, Note_on_c, 0, 70, 0
1, 6912, Note_on_c, 0, 69, 80
1, 6918, Note_on_c, 0, 69, 0
1, 6918, Note_on_c, 0, 70, 80
1, 6924, Note_on_c, 0, 70, 0
1, 6924, Note_on_c, 0, 72, 80
1, 6930, Note_on_c, 0, 72, 0
1, 6930, Note_on_c, 0, 70, 80
1, 6960, Note_on_c, 1, 64, 70
1, 6960, Note_on_c, 1, 58, 70
1, 6960, Note_on_c, 1, 54, 70
1, 7005, Note_on_c, 1, 64, 0
1, 7005, Note_on_c, 1, 58, 0
1, 7005, Note_on_c, 1, 54, 0
1, 7008, Note_on_c, 1, 64, 70
1, 7008, Note_on_c, 1, 58, 70
1, 7008, Note_on_c, 1, 54, 70
1, 7039, Note_on_c, 0, 70, 0
1, 7050, Note_on_c, 0, 72, 80
1, 7053, Note_on_c, 1, 64, 0
1, 7053, Note_on_c, 1, 58, 0
1, 7053, Note_on_c, 1, 54, 0
1, 7056, Note_on_c, 0, 72, 0
1, 7056, Note_on_c, 0, 70, 80
1, 7056, Note_on_c, 1, 64, 70
1, 7056, Note_on_c, 1, 58, 70
1, 7056, Note_on_c, 1, 54, 70
1, 7068, Note_on_c, 0, 70, 0
1, 7068, Note_on_c, 0, 69, 80
1, 7080, Note_on_c, 0, 69, 0
1, 7080, Note_on_c, 0, 70, 80
1, 7092, Note_on_c, 0, 70, 0
1, 7092, Note_on_c, 0, 72, 80
1, 7101, Note_on_c, 1, 64, 0
1, 7101, Note_on_c, 1, 58, 0
1, 7101, Note_on_c, 1, 54, 0
1, 7104, Note_on_c, 0, 72, 0
1, 7104, Note_on_c, 0, 73, 80
1, 7104, Note_on_c, 1, 64, 70
1, 7104, Note_on_c, 1, 58, 70
1, 7104, Note_on_c, 1, 54, 70
1, 7149, Note_on_c, 0, 73, 0
1, 7149, Note_on_c, 1, 64, 0
1, 7149, Note_on_c, 1, 58, 0
1, 7149, Note_on_c, 1, 54, 0
1, 7152, Note_on_c, 0, 64, 96
1, 7152, Note_on_c, 1, 58, 70
1, 7152, Note_on_c, 1, 54, 70
1, 7197, Note_on_c, 1, 58, 0
1, 7197, Note_on_c, 1, 54, 0
1, 7200, Note_on_c, 0, 64, 0
1, 7200, Note_on_c, 0, 67, 80
1, 7200, Note_on_c, 1, 58, 70
1, 7200, Note_on_c, 1, 53, 64
1, 7296, Note_on_c, 1, 58, 0
1, 7296, Note_on_c, 1, 57, 70
1, 7319, Note_on_c, 0, 67, 0
1, 7320, Note_on_c, 0, 65, 75
1, 7343, Note_on_c, 0, 65, 0
1, 7344, Note_on_c, 0, 69, 74
1, 7367, Note_on_c, 0, 69, 0
1, 7368, Note_on_c, 0, 67, 73
1, 7377, Note_on_c, 1, 53, 0
1, 7385, Note_on_c, 1, 57, 0
1, 7391, Note_on_c, 0, 67, 0
1, 7392, Note_on_c, 0, 70, 72
1, 7415, Note_on_c, 0, 70, 0
1, 7416, Note_on_c, 0, 69, 71
1, 7439, Note_on_c, 0, 69, 0
1, 7440, Note_on_c, 0, 72, 70
1, 7452, Note_on_c, 0, 72, 0
1, 7452, Note_on_c, 0, 70, 69
1, 7464, Note_on_c, 0, 70, 0
1, 7464, Note_on_c, 0, 74, 69
1, 7476, Note_on_c, 0, 74, 0
1, 7476, Note_on_c, 0, 72, 68
1, 7488, Note_on_c, 0, 72, 0
1, 7488, Note_on_c, 0, 74, 68
1, 7488, Note_on_c, 1, 65, 64
1, 7488, Note_on_c, 1, 58, 64
1, 7577, Note_on_c, 0, 74, 0
1, 7584, Note_on_c, 0, 75, 64
1, 7590, Note_on_c, 0, 75, 0
1, 7590, Note_on_c, 0, 74, 64
1, 7596, Note_on_c, 0, 74, 0
1, 7596, Note_on_c, 0, 72, 64
1, 7602, Note_on_c, 0, 72, 0
1, 7602, Note_on_c, 0, 74, 64
1, 7629, Note_on_c, 0, 74, 0
1, 7632, Note_on_c, 0, 77, 64
1, 7655, Note_on_c, 0, 77, 0
1, 7656, Note_on_c, 0, 75, 64
1, 7665, Note_on_c, 1, 65, 0
1, 7679, Note_on_c, 0, 75, 0
1, 7680, Note_on_c, 0, 74, 64
1, 7680, Note_on_c, 1, 63, 64
1, 7703, Note_on_c, 0, 74, 0
1, 7704, Note_on_c, 0, 72, 64
1, 7727, Note_on_c, 0, 72, 0
1, 7728, Note_on_c, 0, 70, 64
1, 7751, Note_on_c, 0, 70, 0
1, 7752, Note_on_c, 0, 69, 64
1, 7769, Note_on_c, 1, 63, 0
1, 7775, Note_on_c, 0, 69, 0
1, 7776, Note_on_c, 0, 70, 64
1, 7776, Note_on_c, 1, 62, 64
1, 7803, Note_on_c, 0, 70, 0
1, 7806, Note_on_c, 0, 72, 64
1, 7812, Note_on_c, 0, 72, 0
1, 7812, Note_on_c, 0, 70, 64
1, 7818, Note_on_c, 0, 70, 0
1, 7818, Note_on_c, 0, 69, 64
1, 7824, Note_on_c, 0, 69, 0
1, 7824, Note_on_c, 0, 70, 64
1, 7858, Note_on_c, 0, 70, 0
1, 7860, Note_on_c, 0, 74, 64
1, 7872, Note_on_c, 0, 74, 0
1, 7872, Note_on_c, 0, 77, 64
1, 7892, Note_on_c, 0, 77, 0
1, 7909, Note_on_c, 1, 62, 0
1, 7909, Note_on_c, 1, 58, 0
1, 8064, Note_on_c, 0, 65, 64
1, 8064, Note_on_c, 1, 58, 64
1, 8064, Note_on_c, 1, 50, 64
1, 8087, Note_on_c, 0, 65, 0
1, 8088, Note_on_c, 0, 74, 64
1, 8111, Note_on_c, 0, 74, 0
1, 8112, Note_on_c, 0, 69, 64
1, 8135, Note_on_c, 0, 69, 0
1, 8136, Note_on_c, 0, 70, 64
1, 8153, Note_on_c, 1, 50, 0
1, 8159, Note_on_c, 0, 70, 0
1, 8160, Note_on_c, 0, 67, 64
1, 8160, Note_on_c, 1, 51, 64
1, 8183, Note_on_c, 0, 67, 0
1, 8184, Note_on_c, 0, 75, 64
1, 8207, Note_on_c, 0, 75, 0
1, 8208, Note_on_c, 0, 71, 64
1, 8231, Note_on_c, 0, 71, 0
1, 8232, Note_on_c, 0, 72, 64
1, 8241, Note_on_c, 1, 58, 0
1, 8255, Note_on_c, 0, 72, 0
1, 8256, Note_on_c, 0, 67, 64
1, 8256, Note_on_c, 1, 60, 64
1, 8279, Note_on_c, 0, 67, 0
1, 8280, Note_on_c, 0, 79, 64
1, 8303, Note_on_c, 0, 79, 0
1, 8304, Note_on_c, 0, 75, 64
1, 8327, Note_on_c, 0, 75, 0
1, 8328, Note_on_c, 0, 72, 64
1, 8337, Note_on_c, 1, 51, 0
1, 8345, Note_on_c, 1, 60, 0
1, 8351, Note_on_c, 0, 72, 0
1, 8352, Note_on_c, 0, 70, 64
1, 8352, Note_on_c, 1, 62, 64
1, 8352, Note_on_c, 1, 53, 64
1, 8441, Note_on_c, 1, 62, 0
1, 8448, Note_on_c, 1, 60, 64
1, 8463, Note_on_c, 0, 70, 0
1, 8464, Note_on_c, 0, 69, 64
1, 8479, Note_on_c, 0, 69, 0
1, 8480, Note_on_c, 0, 67, 64
1, 8495, Note_on_c, 0, 67, 0
1, 8496, Note_on_c, 0, 65, 64
1, 8511, Note_on_c, 0, 65, 0
1, 8512, Note_on_c, 0, 64, 64
1, 8527, Note_on_c, 0, 64, 0
1, 8528, Note_on_c, 0, 65, 64
1, 8529, Note_on_c, 1, 53, 0
1, 8537, Note_on_c, 1, 60, 0
1, 8543, Note_on_c, 0, 65, 0
1, 8544, Note_on_c, 0, 66, 64
1, 8556, Note_on_c, 0, 66, 0
1, 8556, Note_on_c, 0, 67, 64
1, 8568, Note_on_c, 0, 67, 0
1, 8568, Note_on_c, 0, 68, 64
1, 8580, Note_on_c, 0, 68, 0
1, 8580, Note_on_c, 0, 69, 64
1, 8592, Note_on_c, 0, 69, 0
1, 8592, Note_on_c, 0, 70, 64
1, 8604, Note_on_c, 0, 70, 0
1, 8604, Note_on_c, 0, 71, 64
1, 8616, Note_on_c, 0, 71, 0
1, 8616, Note_on_c, 0, 72, 64
1, 8628, Note_on_c, 0, 72, 0
1, 8628, Note_on_c, 0, 73, 64
1, 8640, Note_on_c, 0, 73, 0
1, 8640, Note_on_c, 0, 74, 64
1, 8640, Note_on_c, 1, 65, 64
1, 8640, Note_on_c, 1, 58, 64
1, 8685, Note_on_c, 1, 65, 0
1, 8688, Note_on_c, 1, 66, 64
1, 8733, Note_on_c, 1, 66, 0
1, 8736, Note_on_c, 1, 67, 64
1, 8759, Note_on_c, 0, 74, 0
1, 8760, Note_on_c, 0, 75, 64
1, 8766, Note_on_c, 0, 75, 0
1, 8766, Note_on_c, 0, 74, 64
1, 8772, Note_on_c, 0, 74, 0
1, 8772, Note_on_c, 0, 72, 64
1, 8778, Note_on_c, 0, 72, 0
1, 8778, Note_on_c, 0, 74, 64
1, 8784, Note_on_c, 0, 74, 0
1, 8784, Note_on_c, 0, 77, 64
1, 8807, Note_on_c, 0, 77, 0
1, 8808, Note_on_c, 0, 75, 64
1, 8825, Note_on_c, 1, 67, 0
1, 8831, Note_on_c, 0, 75, 0
1, 8832, Note_on_c, 0, 74, 64
1, 8832, Note_on_c, 1, 65, 64
1, 8855, Note_on_c, 0, 74, 0
1, 8855, Note_on_c, 1, 65, 0
1, 8856, Note_on_c, 0, 72, 64
1, 8856, Note_on_c, 1, 63, 64
1, 8879, Note_on_c, 0, 72, 0
1, 8879, Note_on_c, 1, 63, 0
1, 8880, Note_on_c, 0, 70, 64
1, 8880, Note_on_c, 1, 62, 64
1, 8903, Note_on_c, 0, 70, 0
1, 8903, Note_on_c, 1, 62, 0
1, 8904, Note_on_c, 0, 69, 64
1, 8904, Note_on_c, 1, 60, 64
1, 8927, Note_on_c, 0, 69, 0
1, 8927, Note_on_c, 1, 60, 0
1, 8928, Note_on_c, 0, 70, 64
1, 8928, Note_on_c, 1, 62, 64
1, 8928, Note_on_c, 1, 58, 64
1, 8955, Note_on_c, 0, 70, 0
1, 8958, Note_on_c, 0, 72, 64
1, 8964, Note_on_c, 0, 72, 0
1, 8964, Note_on_c, 0, 70, 64
1, 8970, Note_on_c, 0, 70, 0
1, 8970, Note_on_c, 0, 69, 64
1, 8976, Note_on_c, 0, 69, 0
1, 8976, Note_on_c, 0, 70, 64
1, 9010, Note_on_c, 0, 70, 0
1, 9012, Note_on_c, 0, 74, 64
1, 9017, Note_on_c, 1, 62, 0
1, 9017, Note_on_c, 1, 58, 0
1, 9017, Note_on_c, 1, 58, 0
1, 9024, Note_on_c, 0, 74, 0
1, 9024, Note_on_c, 0, 77, 64
1, 9044, Note_on_c, 0, 77, 0
1, 9072, Note_on_c, 1, 62, 64
1, 9072, Note_on_c, 1, 58, 64
1, 9117, Note_on_c, 1, 62, 0
1, 9117, Note_on_c, 1, 58, 0
1, 9120, Note_on_c, 1, 60, 65
1, 9120, Note_on_c, 1, 57, 65
1, 9165, Note_on_c, 1, 60, 0
1, 9165, Note_on_c, 1, 57, 0
1, 9168, Note_on_c, 1, 62, 66
1, 9168, Note_on_c, 1, 58, 66
1, 9168, Note_on_c, 1, 56, 66
1, 9213, Note_on_c, 1, 62, 0
1, 9213, Note_on_c, 1, 58, 0
1, 9213, Note_on_c, 1, 56, 0
1, 9216, Note_on_c, 0, 75, 64
1, 9216, Note_on_c, 1, 63, 67
1, 9216, Note_on_c, 1, 58, 67
1, 9216, Note_on_c, 1, 55, 67
1, 9243, Note_on_c, 0, 75, 0
1, 9246, Note_on_c, 0, 77, 64
1, 9252, Note_on_c, 0, 77, 0
1, 9252, Note_on_c, 0, 75, 64
1, 9258, Note_on_c, 0, 75, 0
1, 9258, Note_on_c, 0, 74, 64
1, 9264, Note_on_c, 0, 74, 0
1, 9264, Note_on_c, 0, 75, 64
1, 9298, Note_on_c, 0, 75, 0
1, 9300, Note_on_c, 0, 79, 64
1, 9305, Note_on_c, 1, 63, 0
1, 9305, Note_on_c, 1, 58, 0
1, 9305, Note_on_c, 1, 55, 0
1, 9312, Note_on_c, 0, 79, 0
1, 9312, Note_on_c, 0, 82, 64
1, 9357, Note_on_c, 0, 82, 0
1, 9360, Note_on_c, 0, 82, 64
1, 9360, Note_on_c, 1, 58, 70
1, 9360, Note_on_c, 1, 55, 70
1, 9380, Note_on_c, 1, 58, 0
1, 9380, Note_on_c, 1, 55, 0
1, 9405, Note_on_c, 0, 82, 0
1, 9408, Note_on_c, 0, 82, 64
1, 9408, Note_on_c, 1, 57, 69
1, 9408, Note_on_c, 1, 53, 69
1, 9428, Note_on_c, 1, 57, 0
1, 9428, Note_on_c, 1, 53, 0
1, 9453, Note_on_c, 0, 82, 0
1, 9456, Note_on_c, 0, 82, 64
1, 9456, Note_on_c, 1, 55, 68
1, 9456, Note_on_c, 1, 51, 68
1, 9476, Note_on_c, 1, 55, 0
1, 9476, Note_on_c, 1, 51, 0
1, 9501, Note_on_c, 0, 82, 0
1, 9504, Note_on_c, 0, 82, 64
1, 9504, Note_on_c, 1, 53, 67
1, 9504, Note_on_c, 1, 50, 67
1, 9549, Note_on_c, 0, 82, 0
1, 9552, Note_on_c, 0, 84, 64
1, 9552, Note_on_c, 1, 53, 0
1, 9552, Note_on_c, 1, 50, 0
1, 9552, Note_on_c, 1, 51, 66
1, 9552, Note_on_c, 1, 48, 66
1, 9558, Note_on_c, 0, 84, 0
1, 9558, Note_on_c, 0, 82, 64
1, 9564, Note_on_c, 0, 82, 0
1, 9564, Note_on_c, 0, 81, 64
1, 9570, Note_on_c, 0, 81, 0
1, 9570, Note_on_c, 0, 82, 64
1, 9576, Note_on_c, 0, 82, 0
1, 9576, Note_on_c, 0, 82, 64
1, 9586, Note_on_c, 0, 82, 0
1, 9588, Note_on_c, 0, 84, 64
1, 9597, Note_on_c, 1, 51, 0
1, 9597, Note_on_c, 1, 48, 0
1, 9600, Note_on_c, 0, 84, 0
1, 9600, Note_on_c, 0, 86, 64
1, 9600, Note_on_c, 1, 50, 65
1, 9600, Note_on_c, 1, 46, 65
1, 9620, Note_on_c, 1, 50, 0
1, 9620, Note_on_c, 1, 46, 0
1, 9623, Note_on_c, 0, 86, 0
1, 9624, Note_on_c, 0, 84, 64
1, 9634, Note_on_c, 0, 84, 0
1, 9648, Note_on_c, 0, 82, 64
1, 9658, Note_on_c, 0, 82, 0
1, 9672, Note_on_c, 0, 81, 64
1, 9682, Note_on_c, 0, 81, 0
1, 9696, Note_on_c, 0, 79, 64
1, 9706, Note_on_c, 0, 79, 0
1, 9720, Note_on_c, 0, 77, 64
1, 9730, Note_on_c, 0, 77, 0
1, 9744, Note_on_c, 0, 75, 64
1, 9754, Note_on_c, 0, 75, 0
1, 9768, Note_on_c, 0, 74, 64
1, 9778, Note_on_c, 0, 74, 0
1, 9792, Note_on_c, 0, 72, 64
1, 9792, Note_on_c, 1, 63, 64
1, 9792, Note_on_c, 1, 51, 64
1, 9815, Note_on_c, 0, 72, 0
1, 9816, Note_on_c, 0, 79, 64
1, 9839, Note_on_c, 0, 79, 0
1, 9840, Note_on_c, 0, 75, 64
1, 9863, Note_on_c, 0, 75, 0
1, 9864, Note_on_c, 0, 72, 64
1, 9881, Note_on_c, 1, 63, 0
1, 9881, Note_on_c, 1, 51, 0
1, 9887, Note_on_c, 0, 72, 0
1, 9888, Note_on_c, 0, 70, 64
1, 9888, Note_on_c, 1, 62, 64
1, 9888, Note_on_c, 1, 53, 64
1, 9937, Note_on_c, 0, 70, 0
1, 9942, Note_on_c, 0, 72, 64
1, 9948, Note_on_c, 0, 72, 0
1, 9948, Note_on_c, 0, 70, 64
1, 9954, Note_on_c, 0, 70, 0
1, 9954, Note_on_c, 0, 69, 64
1, 9960, Note_on_c, 0, 69, 0
1, 9960, Note_on_c, 0, 70, 64
1, 9977, Note_on_c, 1, 62, 0
1, 9977, Note_on_c, 1, 53, 0
1, 9983, Note_on_c, 0, 70, 0
1, 9984, Note_on_c, 0, 74, 77
1, 9984, Note_on_c, 0, 69, 77
1, 9984, Note_on_c, 0, 65, 77
1, 9984, Note_on_c, 1, 63, 64
1, 9984, Note_on_c, 1, 53, 64
1, 10051, Note_on_c, 0, 74, 0
1, 10056, Note_on_c, 0, 72, 64
1, 10079, Note_on_c, 0, 72, 0
1, 10080, Note_on_c, 0, 72, 64
1, 10080, Note_on_c, 1, 53, 0
1, 10080, Note_on_c, 1, 58, 64
1, 10272, Note_on_c, 0, 72, 0
1, 10272, Note_on_c, 0, 70, 64
1, 10272, Note_on_c, 0, 69, 0
1, 10272, Note_on_c, 0, 65, 0
1, 10272, Note_on_c, 0, 70, 64
1, 10272, Note_on_c, 1, 63, 0
1, 10272, Note_on_c, 1, 62, 64
1, 10292, Note_on_c, 0, 70, 0
1, 10317, Note_on_c, 0, 70, 0
1, 10317, Note_on_c, 1, 62, 0
1, 10317, Note_on_c, 1, 58, 0
1, 10368, Note_on_c, 0, 57, 75
1, 10368, Note_on_c, 1, 41, 75
1, 10380, Note_on_c, 0, 57, 0
1, 10380, Note_on_c, 0, 65, 91
1, 10416, Note_on_c, 1, 51, 64
1, 10461, Note_on_c, 1, 51, 0
1, 10464, Note_on_c, 1, 51, 64
1, 10509, Note_on_c, 1, 51, 0
1, 10512, Note_on_c, 0, 65, 0
1, 10512, Note_on_c, 0, 67, 75
1, 10512, Note_on_c, 1, 51, 64
1, 10518, Note_on_c, 0, 67, 0
1, 10518, Note_on_c, 0, 65, 75
1, 10524, Note_on_c, 0, 65, 0
1, 10524, Note_on_c, 0, 63, 75
1, 10530, Note_on_c, 0, 63, 0
1, 10530, Note_on_c, 0, 65, 75
1, 10557, Note_on_c, 0, 65, 0
1, 10557, Note_on_c, 1, 51, 0
1, 10560, Note_on_c, 0, 66, 75
1, 10560, Note_on_c, 1, 51, 64
1, 10583, Note_on_c, 0, 66, 0
1, 10584, Note_on_c, 0, 67, 75
1, 10605, Note_on_c, 1, 51, 0
1, 10607, Note_on_c, 0, 67, 0
1, 10608, Note_on_c, 0, 68, 75
1, 10608, Note_on_c, 1, 51, 64
1, 10631, Note_on_c, 0, 68, 0
1, 10632, Note_on_c, 0, 69, 75
1, 10633, Note_on_c, 1, 41, 0
1, 10653, Note_on_c, 1, 51, 0
1, 10655, Note_on_c, 0, 69, 0
1, 10656, Note_on_c, 0, 72, 75
1, 10656, Note_on_c, 1, 41, 75
1, 10680, Note_on_c, 0, 72, 0
1, 10680, Note_on_c, 0, 70, 75
1, 10703, Note_on_c, 0, 70, 0
1, 10704, Note_on_c, 0, 69, 75
1, 10704, Note_on_c, 1, 50, 64
1, 10727, Note_on_c, 0, 69, 0
1, 10728, Note_on_c, 0, 67, 75
1, 10749, Note_on_c, 1, 50, 0
1, 10751, Note_on_c, 0, 67, 0
1, 10752, Note_on_c, 0, 65, 75
1, 10752, Note_on_c, 1, 50, 64
1, 10797, Note_on_c, 0, 65, 0
1, 10797, Note_on_c, 1, 50, 0
1, 10800, Note_on_c, 1, 50, 64
1, 10845, Note_on_c, 1, 50, 0
1, 10848, Note_on_c, 1, 50, 64
1, 10893, Note_on_c, 1, 50, 0
1, 10896, Note_on_c, 1, 50, 64
1, 10921, Note_on_c, 1, 41, 0
1, 10941, Note_on_c, 1, 50, 0
1, 10944, Note_on_c, 0, 65, 75
1, 10956, Note_on_c, 0, 65, 0
1, 10956, Note_on_c, 0, 69, 75
1, 10968, Note_on_c, 0, 69, 0
1, 10968, Note_on_c, 0, 72, 75
1, 10980, Note_on_c, 0, 72, 0
1, 10980, Note_on_c, 0, 75, 91
1, 10992, Note_on_c, 0, 75, 0
1, 10992, Note_on_c, 1, 45, 64
1, 11037, Note_on_c, 1, 45, 0
1, 11040, Note_on_c, 0, 65, 75
1, 11052, Note_on_c, 0, 65, 0
1, 11052, Note_on_c, 0, 69, 75
1, 11064, Note_on_c, 0, 69, 0
1, 11064, Note_on_c, 0, 70, 75
1, 11076, Note_on_c, 0, 70, 0
1, 11076, Note_on_c, 0, 74, 91
1, 11088, Note_on_c, 0, 74, 0
1, 11088, Note_on_c, 1, 46, 64
1, 11133, Note_on_c, 1, 46, 0
1, 11136, Note_on_c, 0, 67, 75
1, 11148, Note_on_c, 0, 67, 0
1, 11148, Note_on_c, 0, 72, 75
1, 11160, Note_on_c, 0, 72, 0
1, 11160, Note_on_c, 0, 75, 75
1, 11172, Note_on_c, 0, 75, 0
1, 11172, Note_on_c, 0, 79, 91
1, 11184, Note_on_c, 0, 79, 0
1, 11184, Note_on_c, 1, 39, 64
1, 11229, Note_on_c, 1, 39, 0
1, 11232, Note_on_c, 0, 70, 75
1, 11232, Note_on_c, 0, 62, 75
1, 11280, Note_on_c, 1, 40, 75
1, 11325, Note_on_c, 1, 40, 0
1, 11328, Note_on_c, 0, 70, 0
1, 11328, Note_on_c, 0, 62, 0
1, 11328, Note_on_c, 0, 69, 75
1, 11328, Note_on_c, 0, 60, 75
1, 11328, Note_on_c, 1, 41, 72
1, 11373, Note_on_c, 1, 41, 0
1, 11375, Note_on_c, 0, 69, 0
1, 11375, Note_on_c, 0, 60, 0
1, 11376, Note_on_c, 1, 43, 70
1, 11421, Note_on_c, 1, 43, 0
1, 11424, Note_on_c, 1, 41, 73
1, 11469, Note_on_c, 1, 41, 0
1, 11472, Note_on_c, 1, 39, 76
1, 11517, Note_on_c, 1, 39, 0
1, 11520, Note_on_c, 0, 58, 80
1, 11520, Note_on_c, 1, 37, 80
1, 11565, Note_on_c, 1, 37, 0
1, 11568, Note_on_c, 1, 53, 64
1, 11568, Note_on_c, 1, 49, 64
1, 11613, Note_on_c, 1, 53, 0
1, 11613, Note_on_c, 1, 49, 0
1, 11616, Note_on_c, 1, 53, 64
1, 11616, Note_on_c, 1, 49, 64
1, 11653, Note_on_c, 0, 58, 0
1, 11661, Note_on_c, 1, 53, 0
1, 11661, Note_on_c, 1, 49, 0
1, 11664, Note_on_c, 0, 60, 64
1, 11664, Note_on_c, 1, 53, 64
1, 11664, Note_on_c, 1, 49, 64
1, 11670, Note_on_c, 0, 60, 0
1, 11670, Note_on_c, 0, 58, 64
1, 11676, Note_on_c, 0, 58, 0
1, 11676, Note_on_c, 0, 57, 64
1, 11682, Note_on_c, 0, 57, 0
1, 11682, Note_on_c, 0, 58, 64
1, 11709, Note_on_c, 0, 58, 0
1, 11709, Note_on_c, 1, 53, 0
1, 11709, Note_on_c, 1, 49, 0
1, 11712, Note_on_c, 0, 65, 64
1, 11712, Note_on_c, 1, 53, 64
1, 11712, Note_on_c, 1, 49, 64
1, 11757, Note_on_c, 1, 53, 0
1, 11757, Note_on_c, 1, 49, 0
1, 11760, Note_on_c, 1, 53, 64
1, 11760, Note_on_c, 1, 49, 64
1, 11779, Note_on_c, 0, 65, 0
1, 11784, Note_on_c, 0, 61, 64
1, 11805, Note_on_c, 1, 53, 0
1, 11805, Note_on_c, 1, 49, 0
1, 11807, Note_on_c, 0, 61, 0
1, 11808, Note_on_c, 0, 61, 80
1, 11856, Note_on_c, 1, 54, 64
1, 11856, Note_on_c, 1, 51, 64
1, 11901, Note_on_c, 1, 54, 0
1, 11901, Note_on_c, 1, 51, 0
1, 11904, Note_on_c, 0, 61, 0
1, 11904, Note_on_c, 0, 60, 64
1, 11904, Note_on_c, 1, 54, 64
1, 11904, Note_on_c, 1, 51, 64
1, 11949, Note_on_c, 1, 54, 0
1, 11949, Note_on_c, 1, 51, 0
1, 11952, Note_on_c, 1, 54, 64
1, 11952, Note_on_c, 1, 51, 64
1, 11993, Note_on_c, 0, 60, 0
1, 11997, Note_on_c, 1, 54, 0
1, 11997, Note_on_c, 1, 51, 0
1, 12000, Note_on_c, 1, 54, 64
1, 12000, Note_on_c, 1, 51, 64
1, 12045, Note_on_c, 1, 54, 0
1, 12045, Note_on_c, 1, 51, 0
1, 12048, Note_on_c, 1, 54, 64
1, 12048, Note_on_c, 1, 51, 64
1, 12072, Note_on_c, 0, 63, 64
1, 12093, Note_on_c, 1, 54, 0
1, 12093, Note_on_c, 1, 51, 0
1, 12095, Note_on_c, 0, 63, 0
1, 12096, Note_on_c, 0, 63, 80
1, 12144, Note_on_c, 1, 56, 64
1, 12144, Note_on_c, 1, 53, 64
1, 12189, Note_on_c, 1, 56, 0
1, 12189, Note_on_c, 1, 53, 0
1, 12192, Note_on_c, 1, 56, 65
1, 12192, Note_on_c, 1, 53, 65
1, 12215, Note_on_c, 0, 63, 0
1, 12216, Note_on_c, 0, 62, 67
1, 12237, Note_on_c, 1, 56, 0
1, 12237, Note_on_c, 1, 53, 0
1, 12239, Note_on_c, 0, 62, 0
1, 12240, Note_on_c, 1, 56, 65
1, 12240, Note_on_c, 1, 53, 65
1, 12264, Note_on_c, 0, 83, 68
1, 12285, Note_on_c, 1, 56, 0
1, 12285, Note_on_c, 1, 53, 0
1, 12287, Note_on_c, 0, 83, 0
1, 12288, Note_on_c, 1, 56, 66
1, 12288, Note_on_c, 1, 53, 66
1, 12312, Note_on_c, 0, 80, 70
1, 12333, Note_on_c, 1, 56, 0
1, 12333, Note_on_c, 1, 53, 0
1, 12335, Note_on_c, 0, 80, 0
1, 12336, Note_on_c, 1, 56, 66
1, 12336, Note_on_c, 1, 53, 66
1, 12360, Note_on_c, 0, 62, 71
1, 12381, Note_on_c, 1, 56, 0
1, 12381, Note_on_c, 1, 53, 0
1, 12383, Note_on_c, 0, 62, 0
1, 12384, Note_on_c, 0, 65, 88
1, 12432, Note_on_c, 1, 58, 67
1, 12432, Note_on_c, 1, 54, 67
1, 12477, Note_on_c, 1, 58, 0
1, 12477, Note_on_c, 1, 54, 0
1, 12480, Note_on_c, 1, 58, 68
1, 12480, Note_on_c, 1, 54, 68
1, 12503, Note_on_c, 0, 65, 0
1, 12504, Note_on_c, 0, 63, 75
1, 12525, Note_on_c, 1, 58, 0
1, 12525, Note_on_c, 1, 54, 0
1, 12527, Note_on_c, 0, 63, 0
1, 12528, Note_on_c, 1, 58, 68
1, 12528, Note_on_c, 1, 54, 68
1, 12552, Note_on_c, 0, 82, 76
1, 12573, Note_on_c, 1, 58, 0
1, 12573, Note_on_c, 1, 54, 0
1, 12575, Note_on_c, 0, 82, 0
1, 12576, Note_on_c, 1, 58, 69
1, 12576, Note_on_c, 1, 54, 69
1, 12600, Note_on_c, 0, 78, 78
1, 12621, Note_on_c, 1, 58, 0
1, 12621, Note_on_c, 1, 54, 0
1, 12623, Note_on_c, 0, 78, 0
1, 12624, Note_on_c, 1, 58, 69
1, 12624, Note_on_c, 1, 54, 69
1, 12648, Note_on_c, 0, 77, 79
1, 12669, Note_on_c, 1, 58, 0
1, 12669, Note_on_c, 1, 54, 0
1, 12671, Note_on_c, 0, 77, 0
1, 12672, Note_on_c, 0, 77, 96
1, 12720, Note_on_c, 1, 58, 70
1, 12720, Note_on_c, 1, 54, 70
1, 12765, Note_on_c, 1, 58, 0
1, 12765, Note_on_c, 1, 54, 0
1, 12768, Note_on_c, 1, 58, 70
1, 12768, Note_on_c, 1, 54, 70
1, 12791, Note_on_c, 0, 77, 0
1, 12792, Note_on_c, 0, 76, 80
1, 12813, Note_on_c, 1, 58, 0
1, 12813, Note_on_c, 1, 54, 0
1, 12815, Note_on_c, 0, 76, 0
1, 12816, Note_on_c, 1, 64, 70
1, 12816, Note_on_c, 1, 54, 70
1, 12840, Note_on_c, 0, 73, 80
1, 12861, Note_on_c, 1, 64, 0
1, 12861, Note_on_c, 1, 54, 0
1, 12863, Note_on_c, 0, 73, 0
1, 12864, Note_on_c, 1, 64, 70
1, 12864, Note_on_c, 1, 54, 70
1, 12888, Note_on_c, 0, 72, 80
1, 12909, Note_on_c, 1, 64, 0
1, 12909, Note_on_c, 1, 54, 0
1, 12911, Note_on_c, 0, 72, 0
1, 12912, Note_on_c, 1, 64, 70
1, 12912, Note_on_c, 1, 54, 70
1, 12936, Note_on_c, 0, 70, 80
1, 12957, Note_on_c, 1, 64, 0
1, 12957, Note_on_c, 1, 54, 0
1, 12959, Note_on_c, 0, 70, 0
1, 12960, Note_on_c, 0, 70, 80
1, 12960, Note_on_c, 1, 53, 70
1, 13005, Note_on_c, 1, 53, 0
1, 13008, Note_on_c, 1, 64, 70
1, 13031, Note_on_c, 1, 64, 0
1, 13032, Note_on_c, 1, 65, 70
1, 13056, Note_on_c, 1, 65, 0
1, 13056, Note_on_c, 1, 53, 70
1, 13079, Note_on_c, 0, 70, 0
1, 13080, Note_on_c, 0, 69, 75
1, 13101, Note_on_c, 1, 53, 0
1, 13103, Note_on_c, 0, 69, 0
1, 13104, Note_on_c, 0, 67, 74
1, 13127, Note_on_c, 0, 67, 0
1, 13128, Note_on_c, 0, 65, 73
1, 13151, Note_on_c, 0, 65, 0
1, 13152, Note_on_c, 0, 64, 72
1, 13175, Note_on_c, 0, 64, 0
1, 13176, Note_on_c, 0, 63, 71
1, 13199, Note_on_c, 0, 63, 0
1, 13200, Note_on_c, 0, 62, 70
1, 13223, Note_on_c, 0, 62, 0
1, 13224, Note_on_c, 0, 60, 69
1, 13247, Note_on_c, 0, 60, 0
1, 13248, Note_on_c, 1, 58, 75
1, 13260, Note_on_c, 1, 58, 0
1, 13260, Note_on_c, 1, 46, 73
1, 13272, Note_on_c, 1, 46, 0
1, 13272, Note_on_c, 1, 50, 72
1, 13284, Note_on_c, 1, 50, 0
1, 13284, Note_on_c, 1, 53, 70
1, 13296, Note_on_c, 1, 53, 0
1, 13296, Note_on_c, 1, 58, 69
1, 13308, Note_on_c, 1, 58, 0
1, 13308, Note_on_c, 1, 62, 68
1, 13320, Note_on_c, 1, 62, 0
1, 13320, Note_on_c, 1, 65, 66
1, 13332, Note_on_c, 1, 65, 0
1, 13332, Note_on_c, 1, 70, 65
1, 13344, Note_on_c, 0, 74, 64
1, 13344, Note_on_c, 1, 70, 0
1, 13367, Note_on_c, 0, 74, 0
1, 13368, Note_on_c, 0, 65, 64
1, 13391, Note_on_c, 0, 65, 0
1, 13392, Note_on_c, 0, 70, 64
1, 13415, Note_on_c, 0, 70, 0
1, 13416, Note_on_c, 0, 74, 64
1, 13439, Note_on_c, 0, 74, 0
1, 13440, Note_on_c, 0, 77, 64
1, 13440, Note_on_c, 1, 63, 64
1, 13440, Note_on_c, 1, 58, 64
1, 13463, Note_on_c, 0, 77, 0
1, 13464, Note_on_c, 0, 75, 64
1, 13487, Note_on_c, 0, 75, 0
1, 13488, Note_on_c, 0, 72, 64
1, 13511, Note_on_c, 0, 72, 0
1, 13512, Note_on_c, 0, 69, 64
1, 13529, Note_on_c, 1, 63, 0
1, 13529, Note_on_c, 1, 58, 0
1, 13535, Note_on_c, 0, 69, 0
1, 13536, Note_on_c, 0, 70, 64
1, 13536, Note_on_c, 1, 62, 64
1, 13536, Note_on_c, 1, 58, 64
1, 13559, Note_on_c, 0, 70, 0
1, 13560, Note_on_c, 0, 72, 64
1, 13572, Note_on_c, 0, 72, 0
1, 13572, Note_on_c, 0, 74, 64
1, 13584, Note_on_c, 0, 74, 0
1, 13584, Note_on_c, 0, 75, 64
1, 13596, Note_on_c, 0, 75, 0
1, 13596, Note_on_c, 0, 77, 64
1, 13608, Note_on_c, 0, 77, 0
1, 13608, Note_on_c, 0, 79, 64
1, 13620, Note_on_c, 0, 79, 0
1, 13620, Note_on_c, 0, 81, 64
1, 13625, Note_on_c, 1, 62, 0
1, 13625, Note_on_c, 1, 58, 0
1, 13632, Note_on_c, 0, 81, 0
1, 13632, Note_on_c, 0, 82, 64
1, 13642, Note_on_c, 0, 82, 0
1, 13656, Note_on_c, 0, 84, 64
1, 13666, Note_on_c, 0, 84, 0
1, 13680, Note_on_c, 0, 86, 64
1, 13690, Note_on_c, 0, 86, 0
1, 13704, Note_on_c, 0, 87, 64
1, 13714, Note_on_c, 0, 87, 0
1, 13728, Note_on_c, 0, 89, 64
1, 13773, Note_on_c, 0, 89, 0
1, 13824, Note_on_c, 1, 58, 64
1, 13824, Note_on_c, 1, 53, 64
1, 13824, Note_on_c, 1, 50, 64
1, 13848, Note_on_c, 0, 89, 64
1, 13869, Note_on_c, 1, 58, 0
1, 13869, Note_on_c, 1, 53, 0
1, 13869, Note_on_c, 1, 50, 0
1, 13871, Note_on_c, 0, 89, 0
1, 13872, Note_on_c, 0, 86, 64
1, 13895, Note_on_c, 0, 86, 0
1, 13896, Note_on_c, 0, 82, 64
1, 13919, Note_on_c, 0, 82, 0
1, 13920, Note_on_c, 1, 58, 64
1, 13920, Note_on_c, 1, 55, 64
1, 13920, Note_on_c, 1, 51, 64
1, 13944, Note_on_c, 0, 84, 64
1, 13956, Note_on_c, 0, 84, 0
1, 13956, Note_on_c, 0, 82, 64
1, 13961, Note_on_c, 0, 82, 0
1, 13965, Note_on_c, 1, 58, 0
1, 13965, Note_on_c, 1, 55, 0
1, 13965, Note_on_c, 1, 51, 0
1, 13968, Note_on_c, 0, 81, 64
1, 13980, Note_on_c, 0, 81, 0
1, 13980, Note_on_c, 0, 79, 64
1, 13985, Note_on_c, 0, 79, 0
1, 13992, Note_on_c, 0, 77, 64
1, 14004, Note_on_c, 0, 77, 0
1, 14004, Note_on_c, 0, 75, 64
1, 14009, Note_on_c, 0, 75, 0
1, 14016, Note_on_c, 1, 60, 64
1, 14016, Note_on_c, 1, 55, 64
1, 14016, Note_on_c, 1, 51, 64
1, 14040, Note_on_c, 0, 81, 64
1, 14052, Note_on_c, 0, 81, 0
1, 14052, Note_on_c, 0, 79, 64
1, 14057, Note_on_c, 0, 79, 0
1, 14061, Note_on_c, 1, 60, 0
1, 14061, Note_on_c, 1, 55, 0
1, 14061, Note_on_c, 1, 51, 0
1, 14064, Note_on_c, 0, 77, 64
1, 14076, Note_on_c, 0, 77, 0
1, 14076, Note_on_c, 0, 75, 64
1, 14081, Note_on_c, 0, 75, 0
1, 14088, Note_on_c, 0, 74, 64
1, 14100, Note_on_c, 0, 74, 0
1, 14100, Note_on_c, 0, 72, 64
1, 14105, Note_on_c, 0, 72, 0
1, 14112, Note_on_c, 0, 70, 64
1, 14112, Note_on_c, 1, 62, 64
1, 14112, Note_on_c, 1, 53, 64
1, 14208, Note_on_c, 1, 62, 0
1, 14208, Note_on_c, 1, 60, 64
1, 14231, Note_on_c, 0, 70, 0
1, 14232, Note_on_c, 0, 69, 64
1, 14255, Note_on_c, 0, 69, 0
1, 14256, Note_on_c, 0, 67, 64
1, 14262, Note_on_c, 0, 67, 0
1, 14262, Note_on_c, 0, 69, 64
1, 14268, Note_on_c, 0, 69, 0
1, 14268, Note_on_c, 0, 67, 64
1, 14279, Note_on_c, 0, 67, 0
1, 14280, Note_on_c, 0, 65, 64
1, 14289, Note_on_c, 1, 53, 0
1, 14297, Note_on_c, 1, 60, 0
1, 14303, Note_on_c, 0, 65, 0
1, 14304, Note_on_c, 0, 77, 64
1, 14327, Note_on_c, 0, 77, 0
1, 14328, Note_on_c, 0, 76, 64
1, 14351, Note_on_c, 0, 76, 0
1, 14352, Note_on_c, 0, 75, 64
1, 14375, Note_on_c, 0, 75, 0
1, 14376, Note_on_c, 0, 72, 64
1, 14399, Note_on_c, 0, 72, 0
1, 14400, Note_on_c, 0, 73, 64
1, 14400, Note_on_c, 1, 58, 64
1, 14445, Note_on_c, 0, 73, 0
1, 14448, Note_on_c, 0, 74, 64
1, 14448, Note_on_c, 1, 65, 64
1, 14493, Note_on_c, 1, 65, 0
1, 14496, Note_on_c, 1, 68, 64
1, 14519, Note_on_c, 0, 74, 0
1, 14520, Note_on_c, 0, 75, 64
1, 14526, Note_on_c, 0, 75, 0
1, 14526, Note_on_c, 0, 74, 64
1, 14532, Note_on_c, 0, 74, 0
1, 14532, Note_on_c, 0, 72, 64
1, 14538, Note_on_c, 0, 72, 0
1, 14538, Note_on_c, 0, 74, 64
1, 14541, Note_on_c, 1, 68, 0
1, 14544, Note_on_c, 0, 74, 0
1, 14544, Note_on_c, 0, 77, 64
1, 14544, Note_on_c, 1, 67, 64
1, 14567, Note_on_c, 0, 77, 0
1, 14568, Note_on_c, 0, 75, 64
1, 14589, Note_on_c, 1, 67, 0
1, 14591, Note_on_c, 0, 75, 0
1, 14592, Note_on_c, 0, 74, 64
1, 14592, Note_on_c, 1, 65, 64
1, 14615, Note_on_c, 0, 74, 0
1, 14615, Note_on_c, 1, 65, 0
1, 14616, Note_on_c, 0, 72, 64
1, 14616, Note_on_c, 1, 63, 64
1, 14639, Note_on_c, 0, 72, 0
1, 14639, Note_on_c, 1, 63, 0
1, 14640, Note_on_c, 0, 70, 64
1, 14640, Note_on_c, 1, 62, 64
1, 14663, Note_on_c, 0, 70, 0
1, 14663, Note_on_c, 1, 62, 0
1, 14664, Note_on_c, 0, 69, 64
1, 14664, Note_on_c, 1, 60, 64
1, 14687, Note_on_c, 0, 69, 0
1, 14687, Note_on_c, 1, 60, 0
1, 14688, Note_on_c, 0, 70, 64
1, 14688, Note_on_c, 1, 62, 64
1, 14688, Note_on_c, 1, 58, 64
1, 14715, Note_on_c, 0, 70, 0
1, 14718, Note_on_c, 0, 72, 64
1, 14724, Note_on_c, 0, 72, 0
1, 14724, Note_on_c, 0, 70, 64
1, 14730, Note_on_c, 0, 70, 0
1, 14730, Note_on_c, 0, 69, 64
1, 14736, Note_on_c, 0, 69, 0
1, 14736, Note_on_c, 0, 70, 64
1, 14770, Note_on_c, 0, 70, 0
1, 14772, Note_on_c, 0, 74, 64
1, 14777, Note_on_c, 1, 62, 0
1, 14777, Note_on_c, 1, 58, 0
1, 14777, Note_on_c, 1, 58, 0
1, 14784, Note_on_c, 0, 74, 0
1, 14784, Note_on_c, 0, 77, 64
1, 14804, Note_on_c, 0, 77, 0
1, 14832, Note_on_c, 1, 58, 64
1, 14856, Note_on_c, 1, 58, 0
1, 14856, Note_on_c, 1, 62, 64
1, 14879, Note_on_c, 1, 62, 0
1, 14880, Note_on_c, 1, 57, 64
1, 14904, Note_on_c, 1, 57, 0
1, 14904, Note_on_c, 1, 60, 64
1, 14927, Note_on_c, 1, 60, 0
1, 14928, Note_on_c, 1, 56, 64
1, 14952, Note_on_c, 1, 56, 0
1, 14952, Note_on_c, 1, 62, 64
1, 14975, Note_on_c, 1, 62, 0
1, 14976, Note_on_c, 0, 75, 64
1, 14976, Note_on_c, 1, 55, 64
1, 14999, Note_on_c, 1, 55, 0
1, 15000, Note_on_c, 1, 63, 65
1, 15003, Note_on_c, 0, 75, 0
1, 15006, Note_on_c, 0, 77, 64
1, 15012, Note_on_c, 0, 77, 0
1, 15012, Note_on_c, 0, 75, 64
1, 15018, Note_on_c, 0, 75, 0
1, 15018, Note_on_c, 0, 74, 64
1, 15023, Note_on_c, 1, 63, 0
1, 15024, Note_on_c, 0, 74, 0
1, 15024, Note_on_c, 0, 75, 66
1, 15058, Note_on_c, 0, 75, 0
1, 15060, Note_on_c, 0, 79, 68
1, 15072, Note_on_c, 0, 79, 0
1, 15072, Note_on_c, 0, 82, 69
1, 15095, Note_on_c, 0, 82, 0
1, 15096, Note_on_c, 0, 82, 70
1, 15119, Note_on_c, 0, 82, 0
1, 15120, Note_on_c, 1, 58, 72
1, 15120, Note_on_c, 1, 55, 72
1, 15144, Note_on_c, 0, 82, 73
1, 15165, Note_on_c, 1, 58, 0
1, 15165, Note_on_c, 1, 55, 0
1, 15167, Note_on_c, 0, 82, 0
1, 15168, Note_on_c, 1, 57, 74
1, 15168, Note_on_c, 1, 53, 74
1, 15192, Note_on_c, 0, 82, 76
1, 15213, Note_on_c, 1, 57, 0
1, 15213, Note_on_c, 1, 53, 0
1, 15215, Note_on_c, 0, 82, 0
1, 15216, Note_on_c, 1, 55, 77
1, 15216, Note_on_c, 1, 51, 77
1, 15240, Note_on_c, 0, 82, 78
1, 15261, Note_on_c, 1, 55, 0
1, 15261, Note_on_c, 1, 51, 0
1, 15263, Note_on_c, 0, 82, 0
1, 15264, Note_on_c, 1, 53, 80
1, 15264, Note_on_c, 1, 50, 80
1, 15288, Note_on_c, 0, 82, 80
1, 15309, Note_on_c, 1, 53, 0
1, 15309, Note_on_c, 1, 50, 0
1, 15311, Note_on_c, 0, 82, 0
1, 15312, Note_on_c, 0, 84, 80
1, 15312, Note_on_c, 1, 51, 80
1, 15312, Note_on_c, 1, 48, 80
1, 15318, Note_on_c, 0, 84, 0
1, 15318, Note_on_c, 0, 82, 80
1, 15324, Note_on_c, 0, 82, 0
1, 15324, Note_on_c, 0, 81, 80
1, 15336, Note_on_c, 0, 81, 0
1, 15336, Note_on_c, 0, 82, 80
1, 15348, Note_on_c, 0, 82, 0
1, 15348, Note_on_c, 0, 84, 80
1, 15357, Note_on_c, 1, 51, 0
1, 15357, Note_on_c, 1, 48, 0
1, 15360, Note_on_c, 0, 84, 0
1, 15360, Note_on_c, 0, 86, 80
1, 15360, Note_on_c, 1, 50, 80
1, 15360, Note_on_c, 1, 46, 80
1, 15370, Note_on_c, 0, 86, 0
1, 15396, Note_on_c, 0, 84, 77
1, 15401, Note_on_c, 0, 84, 0
1, 15405, Note_on_c, 1, 50, 0
1, 15405, Note_on_c, 1, 46, 0
1, 15408, Note_on_c, 0, 84, 76
1, 15420, Note_on_c, 0, 84, 0
1, 15420, Note_on_c, 0, 82, 75
1, 15432, Note_on_c, 0, 82, 0
1, 15444, Note_on_c, 0, 81, 73
1, 15449, Note_on_c, 0, 81, 0
1, 15456, Note_on_c, 0, 81, 72
1, 15468, Note_on_c, 0, 81, 0
1, 15468, Note_on_c, 0, 79, 71
1, 15480, Note_on_c, 0, 79, 0
1, 15492, Note_on_c, 0, 77, 69
1, 15497, Note_on_c, 0, 77, 0
1, 15504, Note_on_c, 0, 77, 68
1, 15516, Note_on_c, 0, 77, 0
1, 15516, Note_on_c, 0, 75, 67
1, 15528, Note_on_c, 0, 75, 0
1, 15540, Note_on_c, 0, 74, 65
1, 15545, Note_on_c, 0, 74, 0
1, 15552, Note_on_c, 0, 72, 64
1, 15552, Note_on_c, 1, 63, 64
1, 15552, Note_on_c, 1, 51, 64
1, 15567, Note_on_c, 0, 72, 0
1, 15568, Note_on_c, 0, 78, 64
1, 15583, Note_on_c, 0, 78, 0
1, 15584, Note_on_c, 0, 81, 64
1, 15599, Note_on_c, 0, 81, 0
1, 15600, Note_on_c, 0, 79, 64
1, 15615, Note_on_c, 0, 79, 0
1, 15616, Note_on_c, 0, 75, 64
1, 15631, Note_on_c, 0, 75, 0
1, 15632, Note_on_c, 0, 72, 64
1, 15641, Note_on_c, 1, 63, 0
1, 15641, Note_on_c, 1, 51, 0
1, 15647, Note_on_c, 0, 72, 0
1, 15648, Note_on_c, 0, 70, 64
1, 15648, Note_on_c, 1, 62, 64
1, 15648, Note_on_c, 1, 53, 64
1, 15697, Note_on_c, 0, 70, 0
1, 15702, Note_on_c, 0, 72, 64
1, 15708, Note_on_c, 0, 72, 0
1, 15708, Note_on_c, 0, 70, 64
1, 15714, Note_on_c, 0, 70, 0
1, 15714, Note_on_c, 0, 69, 64
1, 15720, Note_on_c, 0, 69, 0
1, 15720, Note_on_c, 0, 70, 64
1, 15737, Note_on_c, 1, 62, 0
1, 15737, Note_on_c, 1, 53, 0
1, 15743, Note_on_c, 0, 70, 0
1, 15744, Note_on_c, 0, 74, 64
1, 15744, Note_on_c, 0, 69, 64
1, 15744, Note_on_c, 0, 65, 64
1, 15744, Note_on_c, 1, 63, 64
1, 15744, Note_on_c, 1, 53, 64
1, 15811, Note_on_c, 0, 74, 0
1, 15816, Note_on_c, 0, 72, 64
1, 15839, Note_on_c, 0, 72, 0
1, 15840, Note_on_c, 0, 72, 64
1, 15840, Note_on_c, 1, 53, 0
1, 15840, Note_on_c, 1, 58, 64
1, 16032, Note_on_c, 0, 72, 0
1, 16032, Note_on_c, 0, 70, 64
1, 16032, Note_on_c, 0, 69, 0
1, 16032, Note_on_c, 0, 65, 0
1, 16032, Note_on_c, 0, 70, 64
1, 16032, Note_on_c, 1, 63, 0
1, 16032, Note_on_c, 1, 62, 64
1, 16061, Note_on_c, 0, 70, 0
1, 16077, Note_on_c, 0, 70, 0
1, 16099, Note_on_c, 1, 62, 0
1, 16099, Note_on_c, 1, 58, 0
1, 16128, Note_on_c, 0, 53, 70
1, 16128, Note_on_c, 1, 46, 93
1, 16128, Note_on_c, 1, 34, 93
1, 16143, Note_on_c, 0, 53, 0
1, 16144, Note_on_c, 0, 58, 70
1, 16159, Note_on_c, 0, 58, 0
1, 16160, Note_on_c, 0, 61, 70
1, 16175, Note_on_c, 0, 61, 0
1, 16176, Note_on_c, 0, 65, 70
1, 16191, Note_on_c, 0, 65, 0
1, 16192, Note_on_c, 0, 61, 70
1, 16207, Note_on_c, 0, 61, 0
1, 16208, Note_on_c, 0, 58, 70
1, 16217, Note_on_c, 1, 46, 0
1, 16217, Note_on_c, 1, 34, 0
1, 16223, Note_on_c, 0, 58, 0
1, 16224, Note_on_c, 0, 53, 70
1, 16239, Note_on_c, 0, 53, 0
1, 16240, Note_on_c, 0, 58, 70
1, 16255, Note_on_c, 0, 58, 0
1, 16256, Note_on_c, 0, 61, 70
1, 16271, Note_on_c, 0, 61, 0
1, 16272, Note_on_c, 0, 65, 70
1, 16287, Note_on_c, 0, 65, 0
1, 16288, Note_on_c, 0, 61, 70
1, 16303, Note_on_c, 0, 61, 0
1, 16304, Note_on_c, 0, 58, 70
1, 16319, Note_on_c, 0, 58, 0
1, 16320, Note_on_c, 0, 53, 70
1, 16320, Note_on_c, 1, 85, 80
1, 16335, Note_on_c, 0, 53, 0
1, 16336, Note_on_c, 0, 58, 70
1, 16351, Note_on_c, 0, 58, 0
1, 16352, Note_on_c, 0, 61, 70
1, 16367, Note_on_c, 0, 61, 0
1, 16368, Note_on_c, 0, 65, 70
1, 16383, Note_on_c, 0, 65, 0
1, 16384, Note_on_c, 0, 61, 70
1, 16392, Note_on_c, 1, 85, 0
1, 16392, Note_on_c, 1, 82, 80
1, 16399, Note_on_c, 0, 61, 0
1, 16400, Note_on_c, 0, 58, 70
1, 16415, Note_on_c, 0, 58, 0
1, 16415, Note_on_c, 1, 82, 0
1, 16416, Note_on_c, 0, 53, 70
1, 16416, Note_on_c, 1, 81, 80
1, 16431, Note_on_c, 0, 53, 0
1, 16432, Note_on_c, 0, 60, 70
1, 16447, Note_on_c, 0, 60, 0
1, 16448, Note_on_c, 0, 63, 70
1, 16463, Note_on_c, 0, 63, 0
1, 16464, Note_on_c, 0, 65, 70
1, 16479, Note_on_c, 0, 65, 0
1, 16480, Note_on_c, 0, 63, 70
1, 16495, Note_on_c, 0, 63, 0
1, 16496, Note_on_c, 0, 60, 70
1, 16511, Note_on_c, 0, 60, 0
1, 16512, Note_on_c, 0, 53, 70
1, 16512, Note_on_c, 1, 81, 0
1, 16512, Note_on_c, 1, 87, 80
1, 16527, Note_on_c, 0, 53, 0
1, 16528, Note_on_c, 0, 60, 70
1, 16543, Note_on_c, 0, 60, 0
1, 16544, Note_on_c, 0, 63, 70
1, 16557, Note_on_c, 1, 87, 0
1, 16559, Note_on_c, 0, 63, 0
1, 16560, Note_on_c, 0, 65, 70
1, 16575, Note_on_c, 0, 65, 0
1, 16576, Note_on_c, 0, 63, 70
1, 16591, Note_on_c, 0, 63, 0
1, 16592, Note_on_c, 0, 60, 70
1, 16607, Note_on_c, 0, 60, 0
1, 16608, Note_on_c, 0, 53, 70
1, 16623, Note_on_c, 0, 53, 0
1, 16624, Note_on_c, 0, 60, 70
1, 16639, Note_on_c, 0, 60, 0
1, 16640, Note_on_c, 0, 63, 70
1, 16655, Note_on_c, 0, 63, 0
1, 16656, Note_on_c, 0, 65, 70
1, 16671, Note_on_c, 0, 65, 0
1, 16672, Note_on_c, 0, 63, 70
1, 16687, Note_on_c, 0, 63, 0
1, 16688, Note_on_c, 0, 60, 70
1, 16703, Note_on_c, 0, 60, 0
1, 16704, Note_on_c, 0, 57, 70
1, 16704, Note_on_c, 1, 41, 93
1, 16704, Note_on_c, 1, 29, 93
1, 16719, Note_on_c, 0, 57, 0
1, 16720, Note_on_c, 0, 60, 70
1, 16735, Note_on_c, 0, 60, 0
1, 16736, Note_on_c, 0, 63, 70
1, 16751, Note_on_c, 0, 63, 0
1, 16752, Note_on_c, 0, 65, 70
1, 16767, Note_on_c, 0, 65, 0
1, 16768, Note_on_c, 0, 63, 70
1, 16783, Note_on_c, 0, 63, 0
1, 16784, Note_on_c, 0, 60, 70
1, 16793, Note_on_c, 1, 41, 0
1, 16793, Note_on_c, 1, 29, 0
1, 16799, Note_on_c, 0, 60, 0
1, 16800, Note_on_c, 0, 57, 70
1, 16815, Note_on_c, 0, 57, 0
1, 16816, Note_on_c, 0, 60, 70
1, 16831, Note_on_c, 0, 60, 0
1, 16832, Note_on_c, 0, 63, 70
1, 16847, Note_on_c, 0, 63, 0
1, 16848, Note_on_c, 0, 65, 70
1, 16863, Note_on_c, 0, 65, 0
1, 16864, Note_on_c, 0, 63, 70
1, 16879, Note_on_c, 0, 63, 0
1, 16880, Note_on_c, 0, 60, 70
1, 16895, Note_on_c, 0, 60, 0
1, 16896, Note_on_c, 0, 57, 70
1, 16896, Note_on_c, 1, 87, 80
1, 16911, Note_on_c, 0, 57, 0
1, 16912, Note_on_c, 0, 60, 70
1, 16927, Note_on_c, 0, 60, 0
1, 16928, Note_on_c, 0, 63, 70
1, 16943, Note_on_c, 0, 63, 0
1, 16944, Note_on_c, 0, 65, 70
1, 16959, Note_on_c, 0, 65, 0
1, 16960, Note_on_c, 0, 63, 70
1, 16968, Note_on_c, 1, 87, 0
1, 16968, Note_on_c, 1, 81, 80
1, 16975, Note_on_c, 0, 63, 0
1, 16976, Note_on_c, 0, 60, 70
1, 16991, Note_on_c, 0, 60, 0
1, 16991, Note_on_c, 1, 81, 0
1, 16992, Note_on_c, 0, 53, 70
1, 16992, Note_on_c, 1, 82, 80
1, 17007, Note_on_c, 0, 53, 0
1, 17008, Note_on_c, 0, 58, 70
1, 17023, Note_on_c, 0, 58, 0
1, 17024, Note_on_c, 0, 61, 70
1, 17039, Note_on_c, 0, 61, 0
1, 17040, Note_on_c, 0, 65, 70
1, 17055, Note_on_c, 0, 65, 0
1, 17056, Note_on_c, 0, 61, 70
1, 17071, Note_on_c, 0, 61, 0
1, 17072, Note_on_c, 0, 58, 70
1, 17087, Note_on_c, 0, 58, 0
1, 17088, Note_on_c, 0, 53, 70
1, 17088, Note_on_c, 1, 82, 0
1, 17088, Note_on_c, 1, 85, 80
1, 17103, Note_on_c, 0, 53, 0
1, 17104, Note_on_c, 0, 58, 70
1, 17119, Note_on_c, 0, 58, 0
1, 17120, Note_on_c, 0, 61, 70
1, 17133, Note_on_c, 1, 85, 0
1, 17135, Note_on_c, 0, 61, 0
1, 17136, Note_on_c, 0, 65, 70
1, 17151, Note_on_c, 0, 65, 0
1, 17152, Note_on_c, 0, 61, 70
1, 17167, Note_on_c, 0, 61, 0
1, 17168, Note_on_c, 0, 58, 70
1, 17183, Note_on_c, 0, 58, 0
1, 17184, Note_on_c, 0, 53, 70
1, 17199, Note_on_c, 0, 53, 0
1, 17200, Note_on_c, 0, 58, 70
1, 17215, Note_on_c, 0, 58, 0
1, 17216, Note_on_c, 0, 61, 70
1, 17231, Note_on_c, 0, 61, 0
1, 17232, Note_on_c, 0, 65, 70
1, 17247, Note_on_c, 0, 65, 0
1, 17248, Note_on_c, 0, 61, 70
1, 17263, Note_on_c, 0, 61, 0
1, 17264, Note_on_c, 0, 58, 70
1, 17279, Note_on_c, 0, 58, 0
1, 17280, Note_on_c, 0, 54, 70
1, 17280, Note_on_c, 1, 42, 93
1, 17280, Note_on_c, 1, 30, 93
1, 17295, Note_on_c, 0, 54, 0
1, 17296, Note_on_c, 0, 58, 70
1, 17311, Note_on_c, 0, 58, 0
1, 17312, Note_on_c, 0, 61, 70
1, 17327, Note_on_c, 0, 61, 0
1, 17328, Note_on_c, 0, 66, 70
1, 17343, Note_on_c, 0, 66, 0
1, 17344, Note_on_c, 0, 61, 70
1, 17359, Note_on_c, 0, 61, 0
1, 17360, Note_on_c, 0, 58, 70
1, 17369, Note_on_c, 1, 42, 0
1, 17369, Note_on_c, 1, 30, 0
1, 17375, Note_on_c, 0, 58, 0
1, 17376, Note_on_c, 0, 54, 70
1, 17391, Note_on_c, 0, 54, 0
1, 17392, Note_on_c, 0, 58, 70
1, 17407, Note_on_c, 0, 58, 0
1, 17408, Note_on_c, 0, 61, 70
1, 17423, Note_on_c, 0, 61, 0
1, 17424, Note_on_c, 0, 66, 70
1, 17439, Note_on_c, 0, 66, 0
1, 17440, Note_on_c, 0, 61, 70
1, 17455, Note_on_c, 0, 61, 0
1, 17456, Note_on_c, 0, 58, 70
1, 17471, Note_on_c, 0, 58, 0
1, 17472, Note_on_c, 0, 54, 70
1, 17472, Note_on_c, 1, 82, 80
1, 17487, Note_on_c, 0, 54, 0
1, 17488, Note_on_c, 0, 58, 70
1, 17503, Note_on_c, 0, 58, 0
1, 17504, Note_on_c, 0, 61, 70
1, 17519, Note_on_c, 0, 61, 0
1, 17520, Note_on_c, 0, 66, 70
1, 17535, Note_on_c, 0, 66, 0
1, 17536, Note_on_c, 0, 61, 70
1, 17544, Note_on_c, 1, 82, 0
1, 17544, Note_on_c, 1, 78, 80
1, 17551, Note_on_c, 0, 61, 0
1, 17552, Note_on_c, 0, 58, 70
1, 17567, Note_on_c, 0, 58, 0
1, 17567, Note_on_c, 1, 78, 0
1, 17568, Note_on_c, 0, 56, 70
1, 17568, Note_on_c, 1, 75, 80
1, 17583, Note_on_c, 0, 56, 0
1, 17584, Note_on_c, 0, 60, 70
1, 17599, Note_on_c, 0, 60, 0
1, 17600, Note_on_c, 0, 63, 70
1, 17615, Note_on_c, 0, 63, 0
1, 17616, Note_on_c, 0, 66, 70
1, 17631, Note_on_c, 0, 66, 0
1, 17632, Note_on_c, 0, 63, 70
1, 17647, Note_on_c, 0, 63, 0
1, 17648, Note_on_c, 0, 60, 70
1, 17663, Note_on_c, 0, 60, 0
1, 17664, Note_on_c, 0, 56, 70
1, 17664, Note_on_c, 1, 75, 0
1, 17664, Note_on_c, 1, 80, 80
1, 17679, Note_on_c, 0, 56, 0
1, 17680, Note_on_c, 0, 60, 70
1, 17695, Note_on_c, 0, 60, 0
1, 17696, Note_on_c, 0, 63, 70
1, 17711, Note_on_c, 0, 63, 0
1, 17712, Note_on_c, 0, 66, 70
1, 17727, Note_on_c, 0, 66, 0
1, 17728, Note_on_c, 0, 63, 70
1, 17743, Note_on_c, 0, 63, 0
1, 17744, Note_on_c, 0, 60, 70
1, 17753, Note_on_c, 1, 80, 0
1, 17759, Note_on_c, 0, 60, 0
1, 17760, Note_on_c, 0, 56, 70
1, 17775, Note_on_c, 0, 56, 0
1, 17776, Note_on_c, 0, 60, 70
1, 17791, Note_on_c, 0, 60, 0
1, 17792, Note_on_c, 0, 63, 70
1, 17807, Note_on_c, 0, 63, 0
1, 17808, Note_on_c, 0, 66, 70
1, 17823, Note_on_c, 0, 66, 0
1, 17824, Note_on_c, 0, 63, 70
1, 17839, Note_on_c, 0, 63, 0
1, 17840, Note_on_c, 0, 60, 70
1, 17855, Note_on_c, 0, 60, 0
1, 17856, Note_on_c, 0, 56, 70
1, 17856, Note_on_c, 1, 77, 80
1, 17871, Note_on_c, 0, 56, 0
1, 17872, Note_on_c, 0, 61, 70
1, 17887, Note_on_c, 0, 61, 0
1, 17888, Note_on_c, 0, 65, 70
1, 17903, Note_on_c, 0, 65, 0
1, 17904, Note_on_c, 0, 68, 70
1, 17919, Note_on_c, 0, 68, 0
1, 17920, Note_on_c, 0, 65, 70
1, 17935, Note_on_c, 0, 65, 0
1, 17936, Note_on_c, 0, 61, 70
1, 17951, Note_on_c, 0, 61, 0
1, 17952, Note_on_c, 0, 56, 70
1, 17952, Note_on_c, 1, 77, 0
1, 17952, Note_on_c, 1, 85, 80
1, 17967, Note_on_c, 0, 56, 0
1, 17968, Note_on_c, 0, 61, 70
1, 17983, Note_on_c, 0, 61, 0
1, 17984, Note_on_c, 0, 65, 70
1, 17999, Note_on_c, 0, 65, 0
1, 18000, Note_on_c, 0, 68, 70
1, 18015, Note_on_c, 0, 68, 0
1, 18016, Note_on_c, 0, 65, 70
1, 18031, Note_on_c, 0, 65, 0
1, 18032, Note_on_c, 0, 61, 70
1, 18041, Note_on_c, 1, 85, 0
1, 18047, Note_on_c, 0, 61, 0
1, 18048, Note_on_c, 0, 56, 70
1, 18063, Note_on_c, 0, 56, 0
1, 18064, Note_on_c, 0, 61, 70
1, 18079, Note_on_c, 0, 61, 0
1, 18080, Note_on_c, 0, 65, 70
1, 18095, Note_on_c, 0, 65, 0
1, 18096, Note_on_c, 0, 68, 70
1, 18111, Note_on_c, 0, 68, 0
1, 18112, Note_on_c, 0, 65, 70
1, 18127, Note_on_c, 0, 65, 0
1, 18128, Note_on_c, 0, 61, 70
1, 18143, Note_on_c, 0, 61, 0
1, 18144, Note_on_c, 0, 58, 70
1, 18144, Note_on_c, 1, 79, 80
1, 18159, Note_on_c, 0, 58, 0
1, 18160, Note_on_c, 0, 61, 70
1, 18175, Note_on_c, 0, 61, 0
1, 18176, Note_on_c, 0, 64, 70
1, 18191, Note_on_c, 0, 64, 0
1, 18192, Note_on_c, 0, 67, 70
1, 18207, Note_on_c, 0, 67, 0
1, 18208, Note_on_c, 0, 64, 70
1, 18223, Note_on_c, 0, 64, 0
1, 18224, Note_on_c, 0, 61, 71
1, 18239, Note_on_c, 0, 61, 0
1, 18240, Note_on_c, 0, 58, 71
1, 18240, Note_on_c, 1, 79, 0
1, 18240, Note_on_c, 1, 85, 80
1, 18255, Note_on_c, 0, 58, 0
1, 18256, Note_on_c, 0, 61, 71
1, 18271, Note_on_c, 0, 61, 0
1, 18272, Note_on_c, 0, 64, 71
1, 18287, Note_on_c, 0, 64, 0
1, 18288, Note_on_c, 0, 67, 71
1, 18303, Note_on_c, 0, 67, 0
1, 18304, Note_on_c, 0, 64, 72
1, 18319, Note_on_c, 0, 64, 0
1, 18320, Note_on_c, 0, 61, 72
1, 18329, Note_on_c, 1, 85, 0
1, 18335, Note_on_c, 0, 61, 0
1, 18336, Note_on_c, 0, 58, 72
1, 18351, Note_on_c, 0, 58, 0
1, 18352, Note_on_c, 0, 61, 72
1, 18367, Note_on_c, 0, 61, 0
1, 18368, Note_on_c, 0, 64, 72
1, 18383, Note_on_c, 0, 64, 0
1, 18384, Note_on_c, 0, 67, 73
1, 18399, Note_on_c, 0, 67, 0
1, 18400, Note_on_c, 0, 64, 73
1, 18415, Note_on_c, 0, 64, 0
1, 18416, Note_on_c, 0, 61, 73
1, 18431, Note_on_c, 0, 61, 0
1, 18432, Note_on_c, 0, 56, 80
1, 18432, Note_on_c, 1, 44, 93
1, 18432, Note_on_c, 1, 32, 93
1, 18447, Note_on_c, 0, 56, 0
1, 18448, Note_on_c, 0, 61, 80
1, 18463, Note_on_c, 0, 61, 0
1, 18464, Note_on_c, 0, 65, 80
1, 18479, Note_on_c, 0, 65, 0
1, 18480, Note_on_c, 0, 68, 80
1, 18495, Note_on_c, 0, 68, 0
1, 18496, Note_on_c, 0, 65, 80
1, 18511, Note_on_c, 0, 65, 0
1, 18512, Note_on_c, 0, 61, 80
1, 18527, Note_on_c, 0, 61, 0
1, 18528, Note_on_c, 0, 56, 80
1, 18543, Note_on_c, 0, 56, 0
1, 18544, Note_on_c, 0, 61, 80
1, 18559, Note_on_c, 0, 61, 0
1, 18560, Note_on_c, 0, 65, 80
1, 18575, Note_on_c, 0, 65, 0
1, 18576, Note_on_c, 0, 68, 80
1, 18591, Note_on_c, 0, 68, 0
1, 18592, Note_on_c, 0, 65, 80
1, 18607, Note_on_c, 0, 65, 0
1, 18608, Note_on_c, 0, 61, 80
1, 18623, Note_on_c, 0, 61, 0
1, 18624, Note_on_c, 0, 66, 80
1, 18639, Note_on_c, 0, 66, 0
1, 18640, Note_on_c, 0, 63, 80
1, 18655, Note_on_c, 0, 63, 0
1, 18656, Note_on_c, 0, 60, 80
1, 18671, Note_on_c, 0, 60, 0
1, 18672, Note_on_c, 0, 66, 80
1, 18687, Note_on_c, 0, 66, 0
1, 18688, Note_on_c, 0, 63, 80
1, 18697, Note_on_c, 1, 44, 0
1, 18697, Note_on_c, 1, 32, 0
1, 18703, Note_on_c, 0, 63, 0
1, 18704, Note_on_c, 0, 60, 80
1, 18719, Note_on_c, 0, 60, 0
1, 18720, Note_on_c, 0, 61, 80
1, 18720, Note_on_c, 1, 37, 80
1, 18735, Note_on_c, 1, 37, 0
1, 18736, Note_on_c, 1, 41, 80
1, 18751, Note_on_c, 1, 41, 0
1, 18752, Note_on_c, 1, 44, 80
1, 18767, Note_on_c, 1, 44, 0
1, 18768, Note_on_c, 1, 49, 80
1, 18783, Note_on_c, 1, 49, 0
1, 18784, Note_on_c, 1, 44, 80
1, 18799, Note_on_c, 1, 44, 0
1, 18800, Note_on_c, 1, 41, 80
1, 18809, Note_on_c, 0, 61, 0
1, 18815, Note_on_c, 1, 41, 0
1, 18816, Note_on_c, 1, 37, 80
1, 18831, Note_on_c, 1, 37, 0
1, 18832, Note_on_c, 1, 41, 79
1, 18847, Note_on_c, 1, 41, 0
1, 18848, Note_on_c, 1, 44, 78
1, 18863, Note_on_c, 1, 44, 0
1, 18864, Note_on_c, 1, 49, 78
1, 18879, Note_on_c, 1, 49, 0
1, 18880, Note_on_c, 1, 44, 77
1, 18895, Note_on_c, 1, 44, 0
1, 18896, Note_on_c, 1, 41, 76
1, 18911, Note_on_c, 1, 41, 0
1, 18912, Note_on_c, 1, 37, 76
1, 18935, Note_on_c, 1, 37, 0
1, 18936, Note_on_c, 1, 49, 75
1, 18959, Note_on_c, 1, 49, 0
1, 18960, Note_on_c, 1, 36, 73
1, 18983, Note_on_c, 1, 36, 0
1, 18984, Note_on_c, 1, 48, 72
1, 19007, Note_on_c, 1, 48, 0
1, 19008, Note_on_c, 0, 53, 70
1, 19008, Note_on_c, 1, 46, 93
1, 19008, Note_on_c, 1, 34, 93
1, 19023, Note_on_c, 0, 53, 0
1, 19024, Note_on_c, 0, 58, 70
1, 19039, Note_on_c, 0, 58, 0
1, 19040, Note_on_c, 0, 61, 70
1, 19055, Note_on_c, 0, 61, 0
1, 19056, Note_on_c, 0, 65, 70
1, 19071, Note_on_c, 0, 65, 0
1, 19072, Note_on_c, 0, 61, 70
1, 19087, Note_on_c, 0, 61, 0
1, 19088, Note_on_c, 0, 58, 70
1, 19097, Note_on_c, 1, 46, 0
1, 19097, Note_on_c, 1, 34, 0
1, 19103, Note_on_c, 0, 58, 0
1, 19104, Note_on_c, 0, 53, 70
1, 19119, Note_on_c, 0, 53, 0
1, 19120, Note_on_c, 0, 58, 70
1, 19135, Note_on_c, 0, 58, 0
1, 19136, Note_on_c, 0, 61, 70
1, 19151, Note_on_c, 0, 61, 0
1, 19152, Note_on_c, 0, 65, 70
1, 19167, Note_on_c, 0, 65, 0
1, 19168, Note_on_c, 0, 61, 70
1, 19183, Note_on_c, 0, 61, 0
1, 19184, Note_on_c, 0, 58, 70
1, 19199, Note_on_c, 0, 58, 0
1, 19200, Note_on_c, 0, 53, 70
1, 19200, Note_on_c, 1, 85, 80
1, 19215, Note_on_c, 0, 53, 0
1, 19216, Note_on_c, 0, 58, 70
1, 19231, Note_on_c, 0, 58, 0
1, 19232, Note_on_c, 0, 61, 70
1, 19247, Note_on_c, 0, 61, 0
1, 19248, Note_on_c, 0, 65, 70
1, 19263, Note_on_c, 0, 65, 0
1, 19264, Note_on_c, 0, 61, 70
1, 19272, Note_on_c, 1, 85, 0
1, 19272, Note_on_c, 1, 82, 80
1, 19279, Note_on_c, 0, 61, 0
1, 19280, Note_on_c, 0, 58, 70
1, 19295, Note_on_c, 0, 58, 0
1, 19295, Note_on_c, 1, 82, 0
1, 19296, Note_on_c, 0, 53, 70
1, 19296, Note_on_c, 1, 81, 80
1, 19311, Note_on_c, 0, 53, 0
1, 19312, Note_on_c, 0, 60, 70
1, 19327, Note_on_c, 0, 60, 0
1, 19328, Note_on_c, 0, 63, 70
1, 19343, Note_on_c, 0, 63, 0
1, 19344, Note_on_c, 0, 65, 70
1, 19359, Note_on_c, 0, 65, 0
1, 19360, Note_on_c, 0, 63, 70
1, 19375, Note_on_c, 0, 63, 0
1, 19376, Note_on_c, 0, 60, 70
1, 19391, Note_on_c, 0, 60, 0
1, 19392, Note_on_c, 0, 53, 70
1, 19392, Note_on_c, 1, 81, 0
1, 19392, Note_on_c, 1, 87, 80
1, 19407, Note_on_c, 0, 53, 0
1, 19408, Note_on_c, 0, 60, 70
1, 19423, Note_on_c, 0, 60, 0
1, 19424, Note_on_c, 0, 63, 70
1, 19437, Note_on_c, 1, 87, 0
1, 19439, Note_on_c, 0, 63, 0
1, 19440, Note_on_c, 0, 65, 70
1, 19455, Note_on_c, 0, 65, 0
1, 19456, Note_on_c, 0, 63, 70
1, 19471, Note_on_c, 0, 63, 0
1, 19472, Note_on_c, 0, 60, 70
1, 19487, Note_on_c, 0, 60, 0
1, 19488, Note_on_c, 0, 53, 70
1, 19503, Note_on_c, 0, 53, 0
1, 19504, Note_on_c, 0, 60, 70
1, 19519, Note_on_c, 0, 60, 0
1, 19520, Note_on_c, 0, 63, 70
1, 19535, Note_on_c, 0, 63, 0
1, 19536, Note_on_c, 0, 65, 70
1, 19551, Note_on_c, 0, 65, 0
1, 19552, Note_on_c, 0, 63, 70
1, 19567, Note_on_c, 0, 63, 0
1, 19568, Note_on_c, 0, 60, 70
1, 19583, Note_on_c, 0, 60, 0
1, 19584, Note_on_c, 0, 57, 70
1, 19584, Note_on_c, 1, 41, 93
1, 19584, Note_on_c, 1, 29, 93
1, 19599, Note_on_c, 0, 57, 0
1, 19600, Note_on_c, 0, 60, 70
1, 19615, Note_on_c, 0, 60, 0
1, 19616, Note_on_c, 0, 63, 70
1, 19631, Note_on_c, 0, 63, 0
1, 19632, Note_on_c, 0, 65, 70
1, 19647, Note_on_c, 0, 65, 0
1, 19648, Note_on_c, 0, 63, 70
1, 19663, Note_on_c, 0, 63, 0
1, 19664, Note_on_c, 0, 60, 70
1, 19673, Note_on_c, 1, 41, 0
1, 19673, Note_on_c, 1, 29, 0
1, 19679, Note_on_c, 0, 60, 0
1, 19680, Note_on_c, 0, 57, 70
1, 19695, Note_on_c, 0, 57, 0
1, 19696, Note_on_c, 0, 60, 70
1, 19711, Note_on_c, 0, 60, 0
1, 19712, Note_on_c, 0, 63, 70
1, 19727, Note_on_c, 0, 63, 0
1, 19728, Note_on_c, 0, 65, 70
1, 19743, Note_on_c, 0, 65, 0
1, 19744, Note_on_c, 0, 63, 70
1, 19759, Note_on_c, 0, 63, 0
1, 19760, Note_on_c, 0, 60, 70
1, 19775, Note_on_c, 0, 60, 0
1, 19776, Note_on_c, 0, 57, 70
1, 19776, Note_on_c, 1, 87, 80
1, 19791, Note_on_c, 0, 57, 0
1, 19792, Note_on_c, 0, 60, 70
1, 19807, Note_on_c, 0, 60, 0
1, 19808, Note_on_c, 0, 63, 70
1, 19823, Note_on_c, 0, 63, 0
1, 19824, Note_on_c, 0, 65, 70
1, 19839, Note_on_c, 0, 65, 0
1, 19840, Note_on_c, 0, 63, 70
1, 19848, Note_on_c, 1, 87, 0
1, 19848, Note_on_c, 1, 81, 80
1, 19855, Note_on_c, 0, 63, 0
1, 19856, Note_on_c, 0, 60, 70
1, 19871, Note_on_c, 0, 60, 0
1, 19871, Note_on_c, 1, 81, 0
1, 19872, Note_on_c, 0, 53, 70
1, 19872, Note_on_c, 1, 82, 80
1, 19887, Note_on_c, 0, 53, 0
1, 19888, Note_on_c, 0, 58, 70
1, 19903, Note_on_c, 0, 58, 0
1, 19904, Note_on_c, 0, 61, 70
1, 19919, Note_on_c, 0, 61, 0
1, 19920, Note_on_c, 0, 65, 70
1, 19935, Note_on_c, 0, 65, 0
1, 19936, Note_on_c, 0, 61, 70
1, 19951, Note_on_c, 0, 61, 0
1, 19952, Note_on_c, 0, 58, 70
1, 19967, Note_on_c, 0, 58, 0
1, 19968, Note_on_c, 0, 53, 70
1, 19968, Note_on_c, 1, 82, 0
1, 19968, Note_on_c, 1, 85, 80
1, 19983, Note_on_c, 0, 53, 0
1, 19984, Note_on_c, 0, 58, 70
1, 19999, Note_on_c, 0, 58, 0
1, 20000, Note_on_c, 0, 61, 70
1, 20013, Note_on_c, 1, 85, 0
1, 20015, Note_on_c, 0, 61, 0
1, 20016, Note_on_c, 0, 65, 70
1, 20031, Note_on_c, 0, 65, 0
1, 20032, Note_on_c, 0, 61, 70
1, 20047, Note_on_c, 0, 61, 0
1, 20048, Note_on_c, 0, 58, 70
1, 20063, Note_on_c, 0, 58, 0
1, 20064, Note_on_c, 0, 53, 70
1, 20079, Note_on_c, 0, 53, 0
1, 20080, Note_on_c, 0, 58, 70
1, 20095, Note_on_c, 0, 58, 0
1, 20096, Note_on_c, 0, 61, 70
1, 20111, Note_on_c, 0, 61, 0
1, 20112, Note_on_c, 0, 65, 70
1, 20127, Note_on_c, 0, 65, 0
1, 20128, Note_on_c, 0, 61, 70
1, 20143, Note_on_c, 0, 61, 0
1, 20144, Note_on_c, 0, 58, 70
1, 20159, Note_on_c, 0, 58, 0
1, 20160, Note_on_c, 0, 54, 70
1, 20160, Note_on_c, 1, 42, 93
1, 20160, Note_on_c, 1, 30, 93
1, 20175, Note_on_c, 0, 54, 0
1, 20176, Note_on_c, 0, 58, 70
1, 20191, Note_on_c, 0, 58, 0
1, 20192, Note_on_c, 0, 61, 70
1, 20207, Note_on_c, 0, 61, 0
1, 20208, Note_on_c, 0, 66, 70
1, 20223, Note_on_c, 0, 66, 0
1, 20224, Note_on_c, 0, 61, 70
1, 20239, Note_on_c, 0, 61, 0
1, 20240, Note_on_c, 0, 58, 70
1, 20249, Note_on_c, 1, 42, 0
1, 20249, Note_on_c, 1, 30, 0
1, 20255, Note_on_c, 0, 58, 0
1, 20256, Note_on_c, 0, 54, 70
1, 20271, Note_on_c, 0, 54, 0
1, 20272, Note_on_c, 0, 58, 70
1, 20287, Note_on_c, 0, 58, 0
1, 20288, Note_on_c, 0, 61, 70
1, 20303, Note_on_c, 0, 61, 0
1, 20304, Note_on_c, 0, 66, 70
1, 20319, Note_on_c, 0, 66, 0
1, 20320, Note_on_c, 0, 61, 70
1, 20335, Note_on_c, 0, 61, 0
1, 20336, Note_on_c, 0, 58, 70
1, 20351, Note_on_c, 0, 58, 0
1, 20352, Note_on_c, 0, 54, 70
1, 20352, Note_on_c, 1, 82, 80
1, 20367, Note_on_c, 0, 54, 0
1, 20368, Note_on_c, 0, 58, 70
1, 20383, Note_on_c, 0, 58, 0
1, 20384, Note_on_c, 0, 61, 70
1, 20399, Note_on_c, 0, 61, 0
1, 20400, Note_on_c, 0, 66, 70
1, 20415, Note_on_c, 0, 66, 0
1, 20416, Note_on_c, 0, 61, 70
1, 20424, Note_on_c, 1, 82, 0
1, 20424, Note_on_c, 1, 78, 80
1, 20431, Note_on_c, 0, 61, 0
1, 20432, Note_on_c, 0, 58, 70
1, 20447, Note_on_c, 0, 58, 0
1, 20447, Note_on_c, 1, 78, 0
1, 20448, Note_on_c, 0, 56, 70
1, 20448, Note_on_c, 1, 75, 80
1, 20463, Note_on_c, 0, 56, 0
1, 20464, Note_on_c, 0, 60, 70
1, 20479, Note_on_c, 0, 60, 0
1, 20480, Note_on_c, 0, 63, 70
1, 20495, Note_on_c, 0, 63, 0
1, 20496, Note_on_c, 0, 66, 70
1, 20511, Note_on_c, 0, 66, 0
1, 20512, Note_on_c, 0, 63, 70
1, 20527, Note_on_c, 0, 63, 0
1, 20528, Note_on_c, 0, 60, 70
1, 20543, Note_on_c, 0, 60, 0
1, 20544, Note_on_c, 0, 56, 70
1, 20544, Note_on_c, 1, 75, 0
1, 20544, Note_on_c, 1, 80, 80
1, 20559, Note_on_c, 0, 56, 0
1, 20560, Note_on_c, 0, 60, 70
1, 20575, Note_on_c, 0, 60, 0
1, 20576, Note_on_c, 0, 63, 70
1, 20591, Note_on_c, 0, 63, 0
1, 20592, Note_on_c, 0, 66, 70
1, 20607, Note_on_c, 0, 66, 0
1, 20608, Note_on_c, 0, 63, 70
1, 20623, Note_on_c, 0, 63, 0
1, 20624, Note_on_c, 0, 60, 70
1, 20633, Note_on_c, 1, 80, 0
1, 20639, Note_on_c, 0, 60, 0
1, 20640, Note_on_c, 0, 56, 70
1, 20655, Note_on_c, 0, 56, 0
1, 20656, Note_on_c, 0, 60, 70
1, 20671, Note_on_c, 0, 60, 0
1, 20672, Note_on_c, 0, 63, 70
1, 20687, Note_on_c, 0, 63, 0
1, 20688, Note_on_c, 0, 66, 70
1, 20703, Note_on_c, 0, 66, 0
1, 20704, Note_on_c, 0, 63, 70
1, 20719, Note_on_c, 0, 63, 0
1, 20720, Note_on_c, 0, 60, 70
1, 20735, Note_on_c, 0, 60, 0
1, 20736, Note_on_c, 0, 56, 70
1, 20736, Note_on_c, 1, 77, 80
1, 20751, Note_on_c, 0, 56, 0
1, 20752, Note_on_c, 0, 61, 70
1, 20767, Note_on_c, 0, 61, 0
1, 20768, Note_on_c, 0, 65, 70
1, 20783, Note_on_c, 0, 65, 0
1, 20784, Note_on_c, 0, 68, 70
1, 20799, Note_on_c, 0, 68, 0
1, 20800, Note_on_c, 0, 65, 70
1, 20815, Note_on_c, 0, 65, 0
1, 20816, Note_on_c, 0, 61, 70
1, 20831, Note_on_c, 0, 61, 0
1, 20832, Note_on_c, 0, 56, 70
1, 20832, Note_on_c, 1, 77, 0
1, 20832, Note_on_c, 1, 85, 80
1, 20847, Note_on_c, 0, 56, 0
1, 20848, Note_on_c, 0, 61, 70
1, 20863, Note_on_c, 0, 61, 0
1, 20864, Note_on_c, 0, 65, 70
1, 20879, Note_on_c, 0, 65, 0
1, 20880, Note_on_c, 0, 68, 70
1, 20895, Note_on_c, 0, 68, 0
1, 20896, Note_on_c, 0, 65, 70
1, 20911, Note_on_c, 0, 65, 0
1, 20912, Note_on_c, 0, 61, 70
1, 20921, Note_on_c, 1, 85, 0
1, 20927, Note_on_c, 0, 61, 0
1, 20928, Note_on_c, 0, 56, 70
1, 20943, Note_on_c, 0, 56, 0
1, 20944, Note_on_c, 0, 61, 70
1, 20959, Note_on_c, 0, 61, 0
1, 20960, Note_on_c, 0, 65, 70
1, 20975, Note_on_c, 0, 65, 0
1, 20976, Note_on_c, 0, 68, 70
1, 20991, Note_on_c, 0, 68, 0
1, 20992, Note_on_c, 0, 65, 70
1, 21007, Note_on_c, 0, 65, 0
1, 21008, Note_on_c, 0, 61, 70
1, 21023, Note_on_c, 0, 61, 0
1, 21024, Note_on_c, 0, 58, 70
1, 21024, Note_on_c, 1, 79, 80
1, 21039, Note_on_c, 0, 58, 0
1, 21040, Note_on_c, 0, 61, 70
1, 21055, Note_on_c, 0, 61, 0
1, 21056, Note_on_c, 0, 64, 70
1, 21071, Note_on_c, 0, 64, 0
1, 21072, Note_on_c, 0, 67, 70
1, 21087, Note_on_c, 0, 67, 0
1, 21088, Note_on_c, 0, 64, 70
1, 21103, Note_on_c, 0, 64, 0
1, 21104, Note_on_c, 0, 61, 71
1, 21119, Note_on_c, 0, 61, 0
1, 21120, Note_on_c, 0, 58, 71
1, 21120, Note_on_c, 1, 79, 0
1, 21120, Note_on_c, 1, 85, 80
1, 21135, Note_on_c, 0, 58, 0
1, 21136, Note_on_c, 0, 61, 71
1, 21151, Note_on_c, 0, 61, 0
1, 21152, Note_on_c, 0, 64, 71
1, 21167, Note_on_c, 0, 64, 0
1, 21168, Note_on_c, 0, 67, 71
1, 21183, Note_on_c, 0, 67, 0
1, 21184, Note_on_c, 0, 64, 72
1, 21199, Note_on_c, 0, 64, 0
1, 21200, Note_on_c, 0, 61, 72
1, 21209, Note_on_c, 1, 85, 0
1, 21215, Note_on_c, 0, 61, 0
1, 21216, Note_on_c, 0, 58, 72
1, 21231, Note_on_c, 0, 58, 0
1, 21232, Note_on_c, 0, 61, 72
1, 21247, Note_on_c, 0, 61, 0
1, 21248, Note_on_c, 0, 64, 72
1, 21263, Note_on_c, 0, 64, 0
1, 21264, Note_on_c, 0, 67, 73
1, 21279, Note_on_c, 0, 67, 0
1, 21280, Note_on_c, 0, 64, 73
1, 21295, Note_on_c, 0, 64, 0
1, 21296, Note_on_c, 0, 61, 73
1, 21311, Note_on_c, 0, 61, 0
1, 21312, Note_on_c, 0, 56, 80
1, 21312, Note_on_c, 1, 44, 93
1, 21312, Note_on_c, 1, 32, 93
1, 21327, Note_on_c, 0, 56, 0
1, 21328, Note_on_c, 0, 61, 80
1, 21343, Note_on_c, 0, 61, 0
1, 21344, Note_on_c, 0, 65, 80
1, 21359, Note_on_c, 0, 65, 0
1, 21360, Note_on_c, 0, 68, 80
1, 21375, Note_on_c, 0, 68, 0
1, 21376, Note_on_c, 0, 65, 80
1, 21391, Note_on_c, 0, 65, 0
1, 21392, Note_on_c, 0, 61, 80
1, 21407, Note_on_c, 0, 61, 0
1, 21408, Note_on_c, 0, 56, 80
1, 21423, Note_on_c, 0, 56, 0
1, 21424, Note_on_c, 0, 61, 80
1, 21439, Note_on_c, 0, 61, 0
1, 21440, Note_on_c, 0, 65, 80
1, 21455, Note_on_c, 0, 65, 0
1, 21456, Note_on_c, 0, 68, 80
1, 21471, Note_on_c, 0, 68, 0
1, 21472, Note_on_c, 0, 65, 80
1, 21487, Note_on_c, 0, 65, 0
1, 21488, Note_on_c, 0, 61, 80
1, 21503, Note_on_c, 0, 61, 0
1, 21504, Note_on_c, 0, 66, 80
1, 21519, Note_on_c, 0, 66, 0
1, 21520, Note_on_c, 0, 63, 80
1, 21535, Note_on_c, 0, 63, 0
1, 21536, Note_on_c, 0, 60, 80
1, 21551, Note_on_c, 0, 60, 0
1, 21552, Note_on_c, 0, 66, 80
1, 21567, Note_on_c, 0, 66, 0
1, 21568, Note_on_c, 0, 63, 80
1, 21577, Note_on_c, 1, 44, 0
1, 21577, Note_on_c, 1, 32, 0
1, 21583, Note_on_c, 0, 63, 0
1, 21584, Note_on_c, 0, 60, 80
1, 21599, Note_on_c, 0, 60, 0
1, 21600, Note_on_c, 0, 61, 80
1, 21600, Note_on_c, 1, 49, 70
1, 21615, Note_on_c, 1, 49, 0
1, 21616, Note_on_c, 1, 53, 69
1, 21631, Note_on_c, 1, 53, 0
1, 21632, Note_on_c, 1, 56, 68
1, 21647, Note_on_c, 1, 56, 0
1, 21648, Note_on_c, 1, 61, 67
1, 21663, Note_on_c, 1, 61, 0
1, 21664, Note_on_c, 1, 56, 67
1, 21679, Note_on_c, 1, 56, 0
1, 21680, Note_on_c, 1, 53, 66
1, 21689, Note_on_c, 0, 61, 0
1, 21695, Note_on_c, 1, 53, 0
1, 21696, Note_on_c, 0, 68, 74
1, 21696, Note_on_c, 1, 49, 64
1, 21711, Note_on_c, 1, 49, 0
1, 21712, Note_on_c, 1, 53, 64
1, 21727, Note_on_c, 1, 53, 0
1, 21728, Note_on_c, 1, 56, 64
1, 21743, Note_on_c, 1, 56, 0
1, 21744, Note_on_c, 1, 61, 64
1, 21745, Note_on_c, 0, 68, 0
1, 21750, Note_on_c, 0, 70, 74
1, 21756, Note_on_c, 0, 70, 0
1, 21756, Note_on_c, 0, 68, 74
1, 21759, Note_on_c, 1, 61, 0
1, 21760, Note_on_c, 1, 56, 64
1, 21762, Note_on_c, 0, 68, 0
1, 21762, Note_on_c, 0, 67, 74
1, 21768, Note_on_c, 0, 67, 0
1, 21768, Note_on_c, 0, 68, 70
1, 21775, Note_on_c, 1, 56, 0
1, 21776, Note_on_c, 1, 53, 64
1, 21791, Note_on_c, 0, 68, 0
1, 21791, Note_on_c, 1, 53, 0
1, 21792, Note_on_c, 0, 77, 70
1, 21792, Note_on_c, 1, 49, 64
1, 21807, Note_on_c, 1, 49, 0
1, 21808, Note_on_c, 1, 53, 64
1, 21823, Note_on_c, 1, 53, 0
1, 21824, Note_on_c, 1, 56, 64
1, 21839, Note_on_c, 1, 56, 0
1, 21840, Note_on_c, 1, 61, 64
1, 21855, Note_on_c, 1, 61, 0
1, 21856, Note_on_c, 1, 56, 64
1, 21859, Note_on_c, 0, 77, 0
1, 21864, Note_on_c, 0, 73, 70
1, 21871, Note_on_c, 1, 56, 0
1, 21872, Note_on_c, 1, 53, 64
1, 21887, Note_on_c, 0, 73, 0
1, 21887, Note_on_c, 1, 53, 0
1, 21888, Note_on_c, 0, 72, 70
1, 21888, Note_on_c, 1, 51, 64
1, 21903, Note_on_c, 1, 51, 0
1, 21904, Note_on_c, 1, 54, 64
1, 21919, Note_on_c, 1, 54, 0
1, 21920, Note_on_c, 1, 56, 64
1, 21935, Note_on_c, 1, 56, 0
1, 21936, Note_on_c, 1, 60, 64
1, 21951, Note_on_c, 1, 60, 0
1, 21952, Note_on_c, 1, 56, 64
1, 21955, Note_on_c, 0, 72, 0
1, 21960, Note_on_c, 0, 75, 70
1, 21967, Note_on_c, 1, 56, 0
1, 21968, Note_on_c, 1, 54, 64
1, 21983, Note_on_c, 0, 75, 0
1, 21983, Note_on_c, 1, 54, 0
1, 21984, Note_on_c, 0, 78, 86
1, 21984, Note_on_c, 1, 51, 64
1, 21999, Note_on_c, 1, 51, 0
1, 22000, Note_on_c, 1, 54, 64
1, 22015, Note_on_c, 1, 54, 0
1, 22016, Note_on_c, 1, 56, 64
1, 22031, Note_on_c, 1, 56, 0
1, 22032, Note_on_c, 1, 60, 64
1, 22047, Note_on_c, 1, 60, 0
1, 22048, Note_on_c, 1, 56, 64
1, 22063, Note_on_c, 1, 56, 0
1, 22064, Note_on_c, 1, 54, 64
1, 22079, Note_on_c, 1, 54, 0
1, 22080, Note_on_c, 1, 51, 64
1, 22095, Note_on_c, 1, 51, 0
1, 22096, Note_on_c, 1, 54, 64
1, 22111, Note_on_c, 1, 54, 0
1, 22112, Note_on_c, 1, 56, 64
1, 22125, Note_on_c, 0, 78, 0
1, 22127, Note_on_c, 1, 56, 0
1, 22128, Note_on_c, 0, 77, 70
1, 22128, Note_on_c, 1, 60, 64
1, 22140, Note_on_c, 0, 77, 0
1, 22140, Note_on_c, 0, 75, 70
1, 22143, Note_on_c, 1, 60, 0
1, 22144, Note_on_c, 1, 56, 64
1, 22152, Note_on_c, 0, 75, 0
1, 22152, Note_on_c, 0, 73, 70
1, 22159, Note_on_c, 1, 56, 0
1, 22160, Note_on_c, 1, 54, 64
1, 22164, Note_on_c, 0, 73, 0
1, 22164, Note_on_c, 0, 72, 70
1, 22175, Note_on_c, 1, 54, 0
1, 22176, Note_on_c, 0, 72, 0
1, 22176, Note_on_c, 0, 73, 70
1, 22176, Note_on_c, 1, 53, 64
1, 22191, Note_on_c, 1, 53, 0
1, 22192, Note_on_c, 1, 56, 64
1, 22207, Note_on_c, 1, 56, 0
1, 22208, Note_on_c, 1, 61, 64
1, 22221, Note_on_c, 0, 73, 0
1, 22223, Note_on_c, 1, 61, 0
1, 22224, Note_on_c, 0, 75, 70
1, 22224, Note_on_c, 1, 65, 64
1, 22230, Note_on_c, 0, 75, 0
1, 22230, Note_on_c, 0, 73, 70
1, 22236, Note_on_c, 0, 73, 0
1, 22236, Note_on_c, 0, 72, 70
1, 22239, Note_on_c, 1, 65, 0
1, 22240, Note_on_c, 1, 61, 64
1, 22242, Note_on_c, 0, 72, 0
1, 22242, Note_on_c, 0, 73, 70
1, 22255, Note_on_c, 1, 61, 0
1, 22256, Note_on_c, 1, 56, 64
1, 22258, Note_on_c, 0, 73, 0
1, 22260, Note_on_c, 0, 77, 70
1, 22271, Note_on_c, 1, 56, 0
1, 22272, Note_on_c, 0, 77, 0
1, 22272, Note_on_c, 0, 80, 86
1, 22272, Note_on_c, 1, 53, 64
1, 22287, Note_on_c, 1, 53, 0
1, 22288, Note_on_c, 1, 56, 64
1, 22303, Note_on_c, 1, 56, 0
1, 22304, Note_on_c, 1, 61, 64
1, 22319, Note_on_c, 1, 61, 0
1, 22320, Note_on_c, 1, 65, 64
1, 22335, Note_on_c, 1, 65, 0
1, 22336, Note_on_c, 1, 61, 64
1, 22351, Note_on_c, 1, 61, 0
1, 22352, Note_on_c, 1, 56, 64
1, 22367, Note_on_c, 1, 56, 0
1, 22368, Note_on_c, 1, 53, 64
1, 22383, Note_on_c, 1, 53, 0
1, 22384, Note_on_c, 1, 56, 65
1, 22399, Note_on_c, 1, 56, 0
1, 22400, Note_on_c, 1, 61, 65
1, 22415, Note_on_c, 1, 61, 0
1, 22416, Note_on_c, 1, 65, 65
1, 22431, Note_on_c, 1, 65, 0
1, 22432, Note_on_c, 1, 61, 65
1, 22440, Note_on_c, 0, 80, 0
1, 22440, Note_on_c, 0, 78, 71
1, 22447, Note_on_c, 1, 61, 0
1, 22448, Note_on_c, 0, 78, 0
1, 22448, Note_on_c, 0, 77, 71
1, 22448, Note_on_c, 1, 56, 65
1, 22456, Note_on_c, 0, 77, 0
1, 22456, Note_on_c, 0, 75, 71
1, 22463, Note_on_c, 1, 56, 0
1, 22464, Note_on_c, 0, 75, 0
1, 22464, Note_on_c, 0, 74, 71
1, 22464, Note_on_c, 1, 53, 65
1, 22479, Note_on_c, 1, 53, 0
1, 22480, Note_on_c, 1, 56, 65
1, 22495, Note_on_c, 1, 56, 0
1, 22496, Note_on_c, 1, 59, 66
1, 22511, Note_on_c, 1, 59, 0
1, 22512, Note_on_c, 1, 62, 66
1, 22527, Note_on_c, 1, 62, 0
1, 22528, Note_on_c, 1, 59, 66
1, 22531, Note_on_c, 0, 74, 0
1, 22536, Note_on_c, 0, 77, 72
1, 22543, Note_on_c, 1, 59, 0
1, 22544, Note_on_c, 1, 56, 66
1, 22559, Note_on_c, 0, 77, 0
1, 22559, Note_on_c, 1, 56, 0
1, 22560, Note_on_c, 0, 80, 88
1, 22560, Note_on_c, 1, 53, 66
1, 22575, Note_on_c, 1, 53, 0
1, 22576, Note_on_c, 1, 56, 66
1, 22591, Note_on_c, 1, 56, 0
1, 22592, Note_on_c, 1, 59, 67
1, 22607, Note_on_c, 1, 59, 0
1, 22608, Note_on_c, 1, 62, 67
1, 22623, Note_on_c, 1, 62, 0
1, 22624, Note_on_c, 1, 59, 67
1, 22639, Note_on_c, 1, 59, 0
1, 22640, Note_on_c, 1, 56, 67
1, 22655, Note_on_c, 1, 56, 0
1, 22656, Note_on_c, 1, 53, 67
1, 22671, Note_on_c, 1, 53, 0
1, 22672, Note_on_c, 1, 56, 67
1, 22687, Note_on_c, 1, 56, 0
1, 22688, Note_on_c, 1, 59, 67
1, 22703, Note_on_c, 1, 59, 0
1, 22704, Note_on_c, 0, 80, 0
1, 22704, Note_on_c, 0, 78, 74
1, 22704, Note_on_c, 1, 62, 68
1, 22716, Note_on_c, 0, 78, 0
1, 22716, Note_on_c, 0, 77, 74
1, 22719, Note_on_c, 1, 62, 0
1, 22720, Note_on_c, 1, 59, 68
1, 22728, Note_on_c, 0, 77, 0
1, 22728, Note_on_c, 0, 75, 74
1, 22735, Note_on_c, 1, 59, 0
1, 22736, Note_on_c, 1, 56, 68
1, 22740, Note_on_c, 0, 75, 0
1, 22740, Note_on_c, 0, 74, 74
1, 22751, Note_on_c, 1, 56, 0
1, 22752, Note_on_c, 0, 74, 0
1, 22752, Note_on_c, 0, 75, 74
1, 22752, Note_on_c, 1, 54, 68
1, 22767, Note_on_c, 1, 54, 0
1, 22768, Note_on_c, 1, 58, 68
1, 22779, Note_on_c, 0, 75, 0
1, 22782, Note_on_c, 0, 77, 74
1, 22783, Note_on_c, 1, 58, 0
1, 22784, Note_on_c, 1, 63, 68
1, 22788, Note_on_c, 0, 77, 0
1, 22788, Note_on_c, 0, 75, 74
1, 22794, Note_on_c, 0, 75, 0
1, 22794, Note_on_c, 0, 74, 74
1, 22799, Note_on_c, 1, 63, 0
1, 22800, Note_on_c, 0, 74, 0
1, 22800, Note_on_c, 0, 75, 75
1, 22800, Note_on_c, 1, 66, 69
1, 22815, Note_on_c, 1, 66, 0
1, 22816, Note_on_c, 1, 63, 69
1, 22831, Note_on_c, 1, 63, 0
1, 22832, Note_on_c, 1, 58, 69
1, 22834, Note_on_c, 0, 75, 0
1, 22836, Note_on_c, 0, 78, 75
1, 22847, Note_on_c, 1, 58, 0
1, 22848, Note_on_c, 0, 78, 0
1, 22848, Note_on_c, 0, 82, 91
1, 22848, Note_on_c, 1, 54, 69
1, 22863, Note_on_c, 1, 54, 0
1, 22864, Note_on_c, 1, 58, 69
1, 22879, Note_on_c, 1, 58, 0
1, 22880, Note_on_c, 1, 63, 69
1, 22895, Note_on_c, 1, 63, 0
1, 22896, Note_on_c, 1, 66, 69
1, 22911, Note_on_c, 1, 66, 0
1, 22912, Note_on_c, 1, 63, 70
1, 22927, Note_on_c, 1, 63, 0
1, 22928, Note_on_c, 1, 58, 70
1, 22943, Note_on_c, 1, 58, 0
1, 22944, Note_on_c, 1, 54, 70
1, 22959, Note_on_c, 1, 54, 0
1, 22960, Note_on_c, 1, 58, 70
1, 22975, Note_on_c, 1, 58, 0
1, 22976, Note_on_c, 1, 63, 70
1, 22991, Note_on_c, 1, 63, 0
1, 22992, Note_on_c, 1, 66, 70
1, 23007, Note_on_c, 1, 66, 0
1, 23008, Note_on_c, 1, 63, 71
1, 23011, Note_on_c, 0, 82, 0
1, 23016, Note_on_c, 0, 80, 77
1, 23023, Note_on_c, 1, 63, 0
1, 23024, Note_on_c, 0, 80, 0
1, 23024, Note_on_c, 0, 78, 77
1, 23024, Note_on_c, 1, 58, 71
1, 23032, Note_on_c, 0, 78, 0
1, 23032, Note_on_c, 0, 77, 77
1, 23039, Note_on_c, 1, 58, 0
1, 23040, Note_on_c, 0, 77, 0
1, 23040, Note_on_c, 0, 76, 77
1, 23040, Note_on_c, 1, 55, 71
1, 23055, Note_on_c, 1, 55, 0
1, 23056, Note_on_c, 1, 58, 71
1, 23071, Note_on_c, 1, 58, 0
1, 23072, Note_on_c, 1, 61, 71
1, 23087, Note_on_c, 1, 61, 0
1, 23088, Note_on_c, 1, 64, 71
1, 23103, Note_on_c, 1, 64, 0
1, 23104, Note_on_c, 1, 61, 71
1, 23107, Note_on_c, 0, 76, 0
1, 23112, Note_on_c, 0, 79, 78
1, 23119, Note_on_c, 1, 61, 0
1, 23120, Note_on_c, 1, 58, 72
1, 23124, Note_on_c, 0, 79, 0
1, 23124, Note_on_c, 0, 82, 78
1, 23135, Note_on_c, 1, 58, 0
1, 23136, Note_on_c, 0, 82, 0
1, 23136, Note_on_c, 0, 85, 94
1, 23136, Note_on_c, 1, 55, 75
1, 23151, Note_on_c, 1, 55, 0
1, 23152, Note_on_c, 1, 58, 75
1, 23167, Note_on_c, 1, 58, 0
1, 23168, Note_on_c, 1, 61, 75
1, 23183, Note_on_c, 1, 61, 0
1, 23184, Note_on_c, 1, 64, 75
1, 23199, Note_on_c, 1, 64, 0
1, 23200, Note_on_c, 1, 61, 75
1, 23215, Note_on_c, 1, 61, 0
1, 23216, Note_on_c, 1, 58, 75
1, 23231, Note_on_c, 1, 58, 0
1, 23232, Note_on_c, 1, 55, 75
1, 23247, Note_on_c, 1, 55, 0
1, 23248, Note_on_c, 1, 58, 75
1, 23263, Note_on_c, 1, 58, 0
1, 23264, Note_on_c, 1, 61, 75
1, 23266, Note_on_c, 0, 85, 0
1, 23268, Note_on_c, 0, 76, 80
1, 23279, Note_on_c, 1, 61, 0
1, 23280, Note_on_c, 1, 64, 75
1, 23292, Note_on_c, 0, 77, 80
1, 23295, Note_on_c, 1, 64, 0
1, 23296, Note_on_c, 1, 61, 75
1, 23298, Note_on_c, 0, 77, 0
1, 23298, Note_on_c, 0, 76, 80
1, 23304, Note_on_c, 0, 76, 0
1, 23304, Note_on_c, 0, 74, 80
1, 23310, Note_on_c, 0, 74, 0
1, 23310, Note_on_c, 0, 76, 80
1, 23311, Note_on_c, 1, 61, 0
1, 23312, Note_on_c, 1, 58, 75
1, 23316, Note_on_c, 0, 76, 0
1, 23316, Note_on_c, 0, 76, 80
1, 23326, Note_on_c, 0, 76, 0
1, 23327, Note_on_c, 1, 58, 0
1, 23328, Note_on_c, 0, 77, 80
1, 23328, Note_on_c, 1, 53, 75
1, 23343, Note_on_c, 1, 53, 0
1, 23344, Note_on_c, 1, 57, 75
1, 23359, Note_on_c, 1, 57, 0
1, 23360, Note_on_c, 1, 60, 75
1, 23375, Note_on_c, 1, 60, 0
1, 23376, Note_on_c, 1, 65, 75
1, 23391, Note_on_c, 1, 65, 0
1, 23392, Note_on_c, 1, 60, 75
1, 23407, Note_on_c, 1, 60, 0
1, 23408, Note_on_c, 1, 57, 75
1, 23417, Note_on_c, 0, 77, 0
1, 23423, Note_on_c, 1, 57, 0
1, 23424, Note_on_c, 0, 76, 80
1, 23424, Note_on_c, 1, 53, 75
1, 23439, Note_on_c, 1, 53, 0
1, 23440, Note_on_c, 1, 57, 75
1, 23455, Note_on_c, 1, 57, 0
1, 23456, Note_on_c, 1, 60, 75
1, 23469, Note_on_c, 0, 76, 0
1, 23471, Note_on_c, 1, 60, 0
1, 23472, Note_on_c, 0, 75, 80
1, 23472, Note_on_c, 1, 65, 75
1, 23487, Note_on_c, 1, 65, 0
1, 23488, Note_on_c, 1, 60, 75
1, 23503, Note_on_c, 1, 60, 0
1, 23504, Note_on_c, 1, 57, 75
1, 23517, Note_on_c, 0, 75, 0
1, 23519, Note_on_c, 1, 57, 0
1, 23520, Note_on_c, 0, 73, 80
1, 23520, Note_on_c, 1, 53, 75
1, 23535, Note_on_c, 1, 53, 0
1, 23536, Note_on_c, 1, 58, 75
1, 23551, Note_on_c, 1, 58, 0
1, 23552, Note_on_c, 1, 61, 75
1, 23565, Note_on_c, 0, 73, 0
1, 23567, Note_on_c, 1, 61, 0
1, 23568, Note_on_c, 0, 72, 80
1, 23568, Note_on_c, 1, 64, 75
1, 23580, Note_on_c, 0, 72, 0
1, 23580, Note_on_c, 0, 70, 80
1, 23583, Note_on_c, 1, 64, 0
1, 23584, Note_on_c, 1, 61, 75
1, 23592, Note_on_c, 0, 70, 0
1, 23592, Note_on_c, 0, 69, 80
1, 23599, Note_on_c, 1, 61, 0
1, 23600, Note_on_c, 1, 58, 75
1, 23604, Note_on_c, 0, 69, 0
1, 23604, Note_on_c, 0, 70, 80
1, 23615, Note_on_c, 1, 58, 0
1, 23616, Note_on_c, 0, 70, 0
1, 23616, Note_on_c, 0, 69, 80
1, 23616, Note_on_c, 1, 53, 75
1, 23631, Note_on_c, 1, 53, 0
1, 23632, Note_on_c, 1, 57, 75
1, 23647, Note_on_c, 1, 57, 0
1, 23648, Note_on_c, 1, 60, 75
1, 23661, Note_on_c, 0, 69, 0
1, 23663, Note_on_c, 1, 60, 0
1, 23664, Note_on_c, 0, 77, 96
1, 23664, Note_on_c, 1, 65, 75
1, 23679, Note_on_c, 1, 65, 0
1, 23680, Note_on_c, 1, 60, 75
1, 23695, Note_on_c, 1, 60, 0
1, 23696, Note_on_c, 1, 57, 75
1, 23711, Note_on_c, 1, 57, 0
1, 23712, Note_on_c, 0, 77, 0
1, 23712, Note_on_c, 0, 76, 80
1, 23712, Note_on_c, 1, 53, 75
1, 23727, Note_on_c, 1, 53, 0
1, 23728, Note_on_c, 1, 57, 75
1, 23743, Note_on_c, 1, 57, 0
1, 23744, Note_on_c, 1, 60, 75
1, 23757, Note_on_c, 0, 76, 0
1, 23759, Note_on_c, 1, 60, 0
1, 23760, Note_on_c, 0, 75, 80
1, 23760, Note_on_c, 1, 65, 75
1, 23775, Note_on_c, 1, 65, 0
1, 23776, Note_on_c, 1, 60, 75
1, 23791, Note_on_c, 1, 60, 0
1, 23792, Note_on_c, 1, 57, 75
1, 23805, Note_on_c, 0, 75, 0
1, 23807, Note_on_c, 1, 57, 0
1, 23808, Note_on_c, 0, 73, 80
1, 23808, Note_on_c, 1, 53, 75
1, 23823, Note_on_c, 1, 53, 0
1, 23824, Note_on_c, 1, 58, 75
1, 23839, Note_on_c, 1, 58, 0
1, 23840, Note_on_c, 1, 61, 75
1, 23853, Note_on_c, 0, 73, 0
1, 23855, Note_on_c, 1, 61, 0
1, 23856, Note_on_c, 0, 72, 80
1, 23856, Note_on_c, 1, 64, 75
1, 23868, Note_on_c, 0, 72, 0
1, 23868, Note_on_c, 0, 70, 80
1, 23871, Note_on_c, 1, 64, 0
1, 23872, Note_on_c, 1, 61, 75
1, 23880, Note_on_c, 0, 70, 0
1, 23880, Note_on_c, 0, 69, 80
1, 23887, Note_on_c, 1, 61, 0
1, 23888, Note_on_c, 1, 58, 75
1, 23892, Note_on_c, 0, 69, 0
1, 23892, Note_on_c, 0, 70, 80
1, 23903, Note_on_c, 1, 58, 0
1, 23904, Note_on_c, 0, 70, 0
1, 23904, Note_on_c, 0, 69, 80
1, 23904, Note_on_c, 1, 53, 75
1, 23919, Note_on_c, 1, 53, 0
1, 23920, Note_on_c, 1, 57, 75
1, 23935, Note_on_c, 1, 57, 0
1, 23936, Note_on_c, 1, 60, 75
1, 23949, Note_on_c, 0, 69, 0
1, 23951, Note_on_c, 1, 60, 0
1, 23952, Note_on_c, 0, 77, 96
1, 23952, Note_on_c, 1, 65, 75
1, 23967, Note_on_c, 1, 65, 0
1, 23968, Note_on_c, 1, 60, 75
1, 23983, Note_on_c, 1, 60, 0
1, 23984, Note_on_c, 1, 57, 75
1, 23999, Note_on_c, 1, 57, 0
1, 24000, Note_on_c, 0, 77, 0
1, 24000, Note_on_c, 0, 76, 80
1, 24000, Note_on_c, 1, 53, 75
1, 24015, Note_on_c, 1, 53, 0
1, 24016, Note_on_c, 1, 57, 74
1, 24031, Note_on_c, 1, 57, 0
1, 24032, Note_on_c, 1, 60, 73
1, 24045, Note_on_c, 0, 76, 0
1, 24047, Note_on_c, 1, 60, 0
1, 24048, Note_on_c, 0, 75, 76
1, 24048, Note_on_c, 1, 65, 72
1, 24063, Note_on_c, 1, 65, 0
1, 24064, Note_on_c, 1, 60, 72
1, 24079, Note_on_c, 1, 60, 0
1, 24080, Note_on_c, 1, 57, 71
1, 24093, Note_on_c, 0, 75, 0
1, 24095, Note_on_c, 1, 57, 0
1, 24096, Note_on_c, 0, 73, 72
1, 24096, Note_on_c, 1, 53, 70
1, 24111, Note_on_c, 1, 53, 0
1, 24112, Note_on_c, 1, 58, 70
1, 24127, Note_on_c, 1, 58, 0
1, 24128, Note_on_c, 1, 61, 69
1, 24141, Note_on_c, 0, 73, 0
1, 24143, Note_on_c, 1, 61, 0
1, 24144, Note_on_c, 0, 72, 68
1, 24144, Note_on_c, 1, 64, 68
1, 24156, Note_on_c, 0, 72, 0
1, 24156, Note_on_c, 0, 70, 67
1, 24159, Note_on_c, 1, 64, 0
1, 24160, Note_on_c, 1, 61, 68
1, 24168, Note_on_c, 0, 70, 0
1, 24168, Note_on_c, 0, 69, 66
1, 24175, Note_on_c, 1, 61, 0
1, 24176, Note_on_c, 1, 58, 67
1, 24180, Note_on_c, 0, 69, 0
1, 24180, Note_on_c, 0, 70, 65
1, 24191, Note_on_c, 1, 58, 0
1, 24192, Note_on_c, 0, 70, 0
1, 24192, Note_on_c, 0, 69, 64
1, 24192, Note_on_c, 1, 53, 64
1, 24207, Note_on_c, 0, 69, 0
1, 24208, Note_on_c, 0, 72, 64
1, 24223, Note_on_c, 0, 72, 0
1, 24224, Note_on_c, 0, 76, 64
1, 24239, Note_on_c, 0, 76, 0
1, 24240, Note_on_c, 0, 77, 64
1, 24247, Note_on_c, 0, 77, 0
1, 24256, Note_on_c, 0, 72, 64
1, 24272, Note_on_c, 0, 72, 0
1, 24272, Note_on_c, 0, 77, 64
1, 24281, Note_on_c, 1, 53, 0
1, 24287, Note_on_c, 0, 77, 0
1, 24288, Note_on_c, 0, 81, 64
1, 24295, Note_on_c, 0, 81, 0
1, 24304, Note_on_c, 0, 77, 64
1, 24320, Note_on_c, 0, 77, 0
1, 24320, Note_on_c, 0, 81, 64
1, 24335, Note_on_c, 0, 81, 0
1, 24336, Note_on_c, 0, 84, 64
1, 24343, Note_on_c, 0, 84, 0
1, 24352, Note_on_c, 0, 81, 64
1, 24368, Note_on_c, 0, 81, 0
1, 24368, Note_on_c, 0, 84, 64
1, 24383, Note_on_c, 0, 84, 0
1, 24384, Note_on_c, 0, 89, 58
1, 24404, Note_on_c, 0, 89, 0
1, 24480, Note_on_c, 1, 29, 80
1, 24657, Note_on_c, 1, 29, 0
1, 24672, Note_on_c, 0, 53, 64
1, 24692, Note_on_c, 0, 53, 0
1, 24720, Note_on_c, 0, 55, 65
1, 24726, Note_on_c, 0, 55, 0
1, 24726, Note_on_c, 0, 53, 65
1, 24732, Note_on_c, 0, 53, 0
1, 24732, Note_on_c, 0, 52, 65
1, 24744, Note_on_c, 0, 52, 0
1, 24744, Note_on_c, 0, 53, 65
1, 24756, Note_on_c, 0, 53, 0
1, 24756, Note_on_c, 0, 55, 66
1, 24768, Note_on_c, 0, 55, 0
1, 24768, Note_on_c, 0, 57, 66
1, 24788, Note_on_c, 0, 57, 0
1, 24816, Note_on_c, 0, 58, 67
1, 24822, Note_on_c, 0, 58, 0
1, 24822, Note_on_c, 0, 57, 67
1, 24828, Note_on_c, 0, 57, 0
1, 24828, Note_on_c, 0, 55, 67
1, 24840, Note_on_c, 0, 55, 0
1, 24840, Note_on_c, 0, 57, 68
1, 24852, Note_on_c, 0, 57, 0
1, 24852, Note_on_c, 0, 58, 68
1, 24864, Note_on_c, 0, 58, 0
1, 24864, Note_on_c, 0, 60, 68
1, 24884, Note_on_c, 0, 60, 0
1, 24912, Note_on_c, 0, 62, 69
1, 24918, Note_on_c, 0, 62, 0
1, 24918, Note_on_c, 0, 60, 69
1, 24924, Note_on_c, 0, 60, 0
1, 24924, Note_on_c, 0, 59, 70
1, 24936, Note_on_c, 0, 59, 0
1, 24936, Note_on_c, 0, 60, 70
1, 24948, Note_on_c, 0, 60, 0
1, 24948, Note_on_c, 0, 62, 70
1, 24960, Note_on_c, 0, 62, 0
1, 24960, Note_on_c, 0, 63, 70
1, 24980, Note_on_c, 0, 63, 0
1, 25008, Note_on_c, 0, 65, 72
1, 25014, Note_on_c, 0, 65, 0
1, 25014, Note_on_c, 0, 63, 72
1, 25020, Note_on_c, 0, 63, 0
1, 25020, Note_on_c, 0, 62, 72
1, 25032, Note_on_c, 0, 62, 0
1, 25032, Note_on_c, 0, 63, 72
1, 25044, Note_on_c, 0, 63, 0
1, 25044, Note_on_c, 0, 65, 72
1, 25056, Note_on_c, 0, 65, 0
1, 25056, Note_on_c, 0, 67, 73
1, 25056, Note_on_c, 1, 63, 80
1, 25056, Note_on_c, 1, 60, 80
1, 25056, Note_on_c, 1, 57, 80
1, 25175, Note_on_c, 0, 67, 0
1, 25176, Note_on_c, 0, 65, 76
1, 25199, Note_on_c, 0, 65, 0
1, 25200, Note_on_c, 0, 69, 76
1, 25223, Note_on_c, 0, 69, 0
1, 25224, Note_on_c, 0, 72, 77
1, 25233, Note_on_c, 1, 63, 0
1, 25233, Note_on_c, 1, 60, 0
1, 25233, Note_on_c, 1, 57, 0
1, 25247, Note_on_c, 0, 72, 0
1, 25248, Note_on_c, 0, 75, 77
1, 25271, Note_on_c, 0, 75, 0
1, 25272, Note_on_c, 0, 77, 78
1, 25295, Note_on_c, 0, 77, 0
1, 25296, Note_on_c, 0, 81, 78
1, 25319, Note_on_c, 0, 81, 0
1, 25320, Note_on_c, 0, 84, 79
1, 25343, Note_on_c, 0, 84, 0
1, 25344, Note_on_c, 0, 77, 80
1, 25344, Note_on_c, 1, 57, 93
1, 25353, Note_on_c, 0, 81, 80
1, 25356, Note_on_c, 1, 60, 93
1, 25362, Note_on_c, 0, 84, 80
1, 25368, Note_on_c, 1, 63, 93
1, 25371, Note_on_c, 0, 87, 80
1, 25485, Note_on_c, 0, 87, 0
1, 25485, Note_on_c, 0, 84, 0
1, 25485, Note_on_c, 0, 81, 0
1, 25485, Note_on_c, 0, 77, 0
1, 25488, Note_on_c, 0, 86, 80
1, 25533, Note_on_c, 0, 86, 0
1, 25536, Note_on_c, 0, 84, 76
1, 25581, Note_on_c, 0, 84, 0
1, 25584, Note_on_c, 0, 82, 72
1, 25629, Note_on_c, 0, 82, 0
1, 25632, Note_on_c, 0, 81, 68
1, 25677, Note_on_c, 0, 81, 0
1, 25680, Note_on_c, 0, 79, 64
1, 25725, Note_on_c, 0, 79, 0
1, 25728, Note_on_c, 0, 78, 64
1, 25773, Note_on_c, 0, 78, 0
1, 25776, Note_on_c, 0, 77, 64
1, 25809, Note_on_c, 1, 63, 0
1, 25809, Note_on_c, 1, 60, 0
1, 25809, Note_on_c, 1, 57, 0
1, 25821, Note_on_c, 0, 77, 0
1, 25824, Note_on_c, 0, 76, 64
1, 25869, Note_on_c, 0, 76, 0
1, 25872, Note_on_c, 0, 75, 64
1, 25917, Note_on_c, 0, 75, 0
1, 25920, Note_on_c, 0, 74, 64
1, 25920, Note_on_c, 1, 65, 64
1, 25920, Note_on_c, 1, 58, 64
1, 26009, Note_on_c, 0, 74, 0
1, 26016, Note_on_c, 0, 75, 64
1, 26022, Note_on_c, 0, 75, 0
1, 26022, Note_on_c, 0, 74, 64
1, 26028, Note_on_c, 0, 74, 0
1, 26028, Note_on_c, 0, 72, 64
1, 26034, Note_on_c, 0, 72, 0
1, 26034, Note_on_c, 0, 74, 64
1, 26088, Note_on_c, 0, 74, 0
1, 26088, Note_on_c, 0, 75, 64
1, 26097, Note_on_c, 1, 65, 0
1, 26111, Note_on_c, 0, 75, 0
1, 26112, Note_on_c, 0, 72, 64
1, 26112, Note_on_c, 1, 63, 64
1, 26184, Note_on_c, 0, 72, 0
1, 26184, Note_on_c, 0, 69, 64
1, 26201, Note_on_c, 1, 63, 0
1, 26207, Note_on_c, 0, 69, 0
1, 26208, Note_on_c, 0, 70, 64
1, 26208, Note_on_c, 1, 62, 64
1, 26235, Note_on_c, 0, 70, 0
1, 26238, Note_on_c, 0, 72, 64
1, 26244, Note_on_c, 0, 72, 0
1, 26244, Note_on_c, 0, 70, 64
1, 26250, Note_on_c, 0, 70, 0
1, 26250, Note_on_c, 0, 69, 64
1, 26256, Note_on_c, 0, 69, 0
1, 26256, Note_on_c, 0, 70, 64
1, 26290, Note_on_c, 0, 70, 0
1, 26292, Note_on_c, 0, 74, 64
1, 26304, Note_on_c, 0, 74, 0
1, 26304, Note_on_c, 0, 77, 64
1, 26324, Note_on_c, 0, 77, 0
1, 26341, Note_on_c, 1, 62, 0
1, 26341, Note_on_c, 1, 58, 0
1, 26496, Note_on_c, 0, 65, 64
1, 26496, Note_on_c, 1, 58, 64
1, 26496, Note_on_c, 1, 50, 64
1, 26512, Note_on_c, 0, 65, 0
1, 26512, Note_on_c, 0, 69, 64
1, 26527, Note_on_c, 0, 69, 0
1, 26528, Note_on_c, 0, 70, 64
1, 26543, Note_on_c, 0, 70, 0
1, 26544, Note_on_c, 0, 74, 64
1, 26559, Note_on_c, 0, 74, 0
1, 26560, Note_on_c, 0, 69, 64
1, 26575, Note_on_c, 0, 69, 0
1, 26576, Note_on_c, 0, 70, 65
1, 26585, Note_on_c, 1, 50, 0
1, 26591, Note_on_c, 0, 70, 0
1, 26592, Note_on_c, 0, 67, 65
1, 26592, Note_on_c, 1, 51, 64
1, 26608, Note_on_c, 0, 67, 0
1, 26608, Note_on_c, 0, 71, 65
1, 26623, Note_on_c, 0, 71, 0
1, 26624, Note_on_c, 0, 72, 65
1, 26639, Note_on_c, 0, 72, 0
1, 26640, Note_on_c, 0, 75, 66
1, 26655, Note_on_c, 0, 75, 0
1, 26656, Note_on_c, 0, 71, 66
1, 26671, Note_on_c, 0, 71, 0
1, 26672, Note_on_c, 0, 72, 66
1, 26673, Note_on_c, 1, 58, 0
1, 26687, Note_on_c, 0, 72, 0
1, 26688, Note_on_c, 0, 67, 66
1, 26688, Note_on_c, 1, 60, 64
1, 26703, Note_on_c, 0, 67, 0
1, 26704, Note_on_c, 0, 78, 67
1, 26720, Note_on_c, 0, 78, 0
1, 26720, Note_on_c, 0, 81, 67
1, 26735, Note_on_c, 0, 81, 0
1, 26736, Note_on_c, 0, 79, 67
1, 26751, Note_on_c, 0, 79, 0
1, 26752, Note_on_c, 0, 75, 67
1, 26767, Note_on_c, 0, 75, 0
1, 26768, Note_on_c, 0, 72, 68
1, 26769, Note_on_c, 1, 51, 0
1, 26777, Note_on_c, 1, 60, 0
1, 26783, Note_on_c, 0, 72, 0
1, 26784, Note_on_c, 0, 70, 70
1, 26784, Note_on_c, 1, 62, 64
1, 26784, Note_on_c, 1, 53, 64
1, 26873, Note_on_c, 1, 62, 0
1, 26880, Note_on_c, 1, 60, 64
1, 26895, Note_on_c, 0, 70, 0
1, 26896, Note_on_c, 0, 69, 68
1, 26911, Note_on_c, 0, 69, 0
1, 26912, Note_on_c, 0, 67, 67
1, 26927, Note_on_c, 0, 67, 0
1, 26928, Note_on_c, 0, 65, 66
1, 26943, Note_on_c, 0, 65, 0
1, 26944, Note_on_c, 0, 66, 64
1, 26959, Note_on_c, 0, 66, 0
1, 26960, Note_on_c, 0, 67, 64
1, 26961, Note_on_c, 1, 53, 0
1, 26969, Note_on_c, 1, 60, 0
1, 26975, Note_on_c, 0, 67, 0
1, 26976, Note_on_c, 0, 68, 64
1, 26991, Note_on_c, 0, 68, 0
1, 26992, Note_on_c, 0, 69, 64
1, 27007, Note_on_c, 0, 69, 0
1, 27008, Note_on_c, 0, 70, 64
1, 27023, Note_on_c, 0, 70, 0
1, 27024, Note_on_c, 0, 71, 64
1, 27039, Note_on_c, 0, 71, 0
1, 27040, Note_on_c, 0, 72, 64
1, 27055, Note_on_c, 0, 72, 0
1, 27056, Note_on_c, 0, 73, 64
1, 27071, Note_on_c, 0, 73, 0
1, 27072, Note_on_c, 0, 74, 64
1, 27072, Note_on_c, 1, 65, 64
1, 27072, Note_on_c, 1, 58, 64
1, 27143, Note_on_c, 0, 74, 0
1, 27150, Note_on_c, 0, 75, 64
1, 27156, Note_on_c, 0, 75, 0
1, 27156, Note_on_c, 0, 74, 64
1, 27162, Note_on_c, 0, 74, 0
1, 27162, Note_on_c, 0, 72, 64
1, 27168, Note_on_c, 0, 72, 0
1, 27168, Note_on_c, 0, 74, 64
1, 27183, Note_on_c, 0, 74, 0
1, 27184, Note_on_c, 0, 75, 64
1, 27199, Note_on_c, 0, 75, 0
1, 27200, Note_on_c, 0, 76, 64
1, 27215, Note_on_c, 0, 76, 0
1, 27216, Note_on_c, 0, 77, 64
1, 27231, Note_on_c, 0, 77, 0
1, 27232, Note_on_c, 0, 74, 64
1, 27247, Note_on_c, 0, 74, 0
1, 27248, Note_on_c, 0, 70, 64
1, 27249, Note_on_c, 1, 65, 0
1, 27263, Note_on_c, 0, 70, 0
1, 27264, Note_on_c, 0, 71, 64
1, 27264, Note_on_c, 1, 63, 64
1, 27279, Note_on_c, 0, 71, 0
1, 27280, Note_on_c, 0, 72, 64
1, 27295, Note_on_c, 0, 72, 0
1, 27296, Note_on_c, 0, 74, 64
1, 27311, Note_on_c, 0, 74, 0
1, 27312, Note_on_c, 0, 75, 64
1, 27327, Note_on_c, 0, 75, 0
1, 27328, Note_on_c, 0, 72, 64
1, 27343, Note_on_c, 0, 72, 0
1, 27344, Note_on_c, 0, 69, 64
1, 27351, Note_on_c, 0, 69, 0
1, 27353, Note_on_c, 1, 63, 0
1, 27360, Note_on_c, 0, 69, 64
1, 27360, Note_on_c, 1, 62, 64
1, 27375, Note_on_c, 0, 69, 0
1, 27376, Note_on_c, 0, 70, 64
1, 27391, Note_on_c, 0, 70, 0
1, 27392, Note_on_c, 0, 65, 65
1, 27407, Note_on_c, 0, 65, 0
1, 27408, Note_on_c, 0, 67, 66
1, 27423, Note_on_c, 0, 67, 0
1, 27424, Note_on_c, 0, 69, 66
1, 27439, Note_on_c, 0, 69, 0
1, 27440, Note_on_c, 0, 70, 67
1, 27455, Note_on_c, 0, 70, 0
1, 27456, Note_on_c, 0, 72, 68
1, 27471, Note_on_c, 0, 72, 0
1, 27472, Note_on_c, 0, 74, 68
1, 27487, Note_on_c, 0, 74, 0
1, 27488, Note_on_c, 0, 75, 69
1, 27493, Note_on_c, 1, 62, 0
1, 27493, Note_on_c, 1, 58, 0
1, 27503, Note_on_c, 0, 75, 0
1, 27504, Note_on_c, 0, 77, 70
1, 27519, Note_on_c, 0, 77, 0
1, 27520, Note_on_c, 0, 79, 70
1, 27535, Note_on_c, 0, 79, 0
1, 27536, Note_on_c, 0, 81, 71
1, 27551, Note_on_c, 0, 81, 0
1, 27552, Note_on_c, 0, 82, 88
1, 27559, Note_on_c, 0, 82, 0
1, 27568, Note_on_c, 0, 82, 72
1, 27575, Note_on_c, 0, 82, 0
1, 27584, Note_on_c, 0, 82, 73
1, 27591, Note_on_c, 0, 82, 0
1, 27600, Note_on_c, 0, 82, 74
1, 27607, Note_on_c, 0, 82, 0
1, 27616, Note_on_c, 0, 82, 74
1, 27623, Note_on_c, 0, 82, 0
1, 27632, Note_on_c, 0, 82, 75
1, 27639, Note_on_c, 0, 82, 0
1, 27648, Note_on_c, 0, 76, 76
1, 27648, Note_on_c, 1, 58, 64
1, 27648, Note_on_c, 1, 55, 64
1, 27648, Note_on_c, 1, 48, 64
1, 27663, Note_on_c, 0, 76, 0
1, 27664, Note_on_c, 0, 82, 76
1, 27679, Note_on_c, 0, 82, 0
1, 27680, Note_on_c, 0, 81, 77
1, 27695, Note_on_c, 0, 81, 0
1, 27696, Note_on_c, 0, 79, 78
1, 27711, Note_on_c, 0, 79, 0
1, 27712, Note_on_c, 0, 86, 78
1, 27727, Note_on_c, 0, 86, 0
1, 27728, Note_on_c, 0, 84, 79
1, 27743, Note_on_c, 0, 84, 0
1, 27744, Note_on_c, 0, 82, 80
1, 27759, Note_on_c, 0, 82, 0
1, 27760, Note_on_c, 0, 81, 79
1, 27775, Note_on_c, 0, 81, 0
1, 27776, Note_on_c, 0, 79, 78
1, 27791, Note_on_c, 0, 79, 0
1, 27792, Note_on_c, 0, 77, 78
1, 27807, Note_on_c, 0, 77, 0
1, 27808, Note_on_c, 0, 76, 77
1, 27823, Note_on_c, 0, 76, 0
1, 27824, Note_on_c, 0, 74, 76
1, 27839, Note_on_c, 0, 74, 0
1, 27840, Note_on_c, 0, 72, 76
1, 27855, Note_on_c, 0, 72, 0
1, 27856, Note_on_c, 0, 70, 75
1, 27871, Note_on_c, 0, 70, 0
1, 27872, Note_on_c, 0, 69, 74
1, 27887, Note_on_c, 0, 69, 0
1, 27888, Note_on_c, 0, 67, 74
1, 27903, Note_on_c, 0, 67, 0
1, 27904, Note_on_c, 0, 65, 73
1, 27913, Note_on_c, 1, 58, 0
1, 27913, Note_on_c, 1, 55, 0
1, 27913, Note_on_c, 1, 48, 0
1, 27919, Note_on_c, 0, 65, 0
1, 27920, Note_on_c, 0, 64, 72
1, 27935, Note_on_c, 0, 64, 0
1, 27936, Note_on_c, 0, 67, 64
1, 27936, Note_on_c, 1, 58, 64
1, 27936, Note_on_c, 1, 53, 64
1, 28032, Note_on_c, 0, 67, 0
1, 28032, Note_on_c, 0, 65, 64
1, 28032, Note_on_c, 1, 58, 0
1, 28032, Note_on_c, 1, 57, 64
1, 28113, Note_on_c, 1, 53, 0
1, 28121, Note_on_c, 0, 65, 0
1, 28121, Note_on_c, 1, 57, 0
1, 28224, Note_on_c, 0, 57, 75
1, 28224, Note_on_c, 1, 41, 75
1, 28230, Note_on_c, 0, 57, 0
1, 28230, Note_on_c, 0, 60, 75
1, 28236, Note_on_c, 0, 60, 0
1, 28236, Note_on_c, 0, 65, 91
1, 28272, Note_on_c, 1, 51, 64
1, 28284, Note_on_c, 0, 65, 0
1, 28284, Note_on_c, 0, 67, 75
1, 28296, Note_on_c, 0, 67, 0
1, 28296, Note_on_c, 0, 65, 75
1, 28308, Note_on_c, 0, 65, 0
1, 28308, Note_on_c, 0, 64, 75
1, 28317, Note_on_c, 1, 51, 0
1, 28320, Note_on_c, 0, 64, 0
1, 28320, Note_on_c, 0, 65, 75
1, 28320, Note_on_c, 1, 51, 64
1, 28343, Note_on_c, 0, 65, 0
1, 28344, Note_on_c, 0, 65, 75
1, 28365, Note_on_c, 1, 51, 0
1, 28367, Note_on_c, 0, 65, 0
1, 28368, Note_on_c, 0, 77, 75
1, 28368, Note_on_c, 1, 51, 64
1, 28392, Note_on_c, 0, 77, 0
1, 28392, Note_on_c, 0, 65, 75
1, 28413, Note_on_c, 1, 51, 0
1, 28415, Note_on_c, 0, 65, 0
1, 28416, Note_on_c, 0, 77, 75
1, 28416, Note_on_c, 1, 51, 64
1, 28440, Note_on_c, 0, 77, 0
1, 28440, Note_on_c, 0, 67, 75
1, 28461, Note_on_c, 1, 51, 0
1, 28463, Note_on_c, 0, 67, 0
1, 28464, Note_on_c, 0, 77, 75
1, 28464, Note_on_c, 1, 51, 64
1, 28488, Note_on_c, 0, 77, 0
1, 28488, Note_on_c, 0, 69, 75
1, 28489, Note_on_c, 1, 41, 0
1, 28509, Note_on_c, 1, 51, 0
1, 28511, Note_on_c, 0, 69, 0
1, 28512, Note_on_c, 0, 77, 75
1, 28512, Note_on_c, 1, 41, 75
1, 28524, Note_on_c, 0, 77, 0
1, 28524, Note_on_c, 0, 70, 91
1, 28560, Note_on_c, 1, 50, 64
1, 28572, Note_on_c, 0, 70, 0
1, 28572, Note_on_c, 0, 72, 75
1, 28584, Note_on_c, 0, 72, 0
1, 28584, Note_on_c, 0, 70, 75
1, 28596, Note_on_c, 0, 70, 0
1, 28596, Note_on_c, 0, 69, 75
1, 28605, Note_on_c, 1, 50, 0
1, 28608, Note_on_c, 0, 69, 0
1, 28608, Note_on_c, 0, 70, 75
1, 28608, Note_on_c, 1, 50, 64
1, 28620, Note_on_c, 0, 70, 0
1, 28620, Note_on_c, 0, 72, 75
1, 28632, Note_on_c, 0, 72, 0
1, 28632, Note_on_c, 0, 74, 75
1, 28644, Note_on_c, 0, 74, 0
1, 28644, Note_on_c, 0, 75, 75
1, 28653, Note_on_c, 1, 50, 0
1, 28656, Note_on_c, 0, 75, 0
1, 28656, Note_on_c, 0, 77, 75
1, 28656, Note_on_c, 1, 50, 64
1, 28668, Note_on_c, 0, 77, 0
1, 28668, Note_on_c, 0, 79, 75
1, 28680, Note_on_c, 0, 79, 0
1, 28680, Note_on_c, 0, 81, 75
1, 28692, Note_on_c, 0, 81, 0
1, 28692, Note_on_c, 0, 82, 75
1, 28701, Note_on_c, 1, 50, 0
1, 28704, Note_on_c, 0, 82, 0
1, 28704, Note_on_c, 0, 84, 75
1, 28704, Note_on_c, 1, 50, 64
1, 28727, Note_on_c, 0, 84, 0
1, 28728, Note_on_c, 0, 82, 75
1, 28749, Note_on_c, 1, 50, 0
1, 28751, Note_on_c, 0, 82, 0
1, 28752, Note_on_c, 0, 81, 75
1, 28752, Note_on_c, 1, 50, 64
1, 28775, Note_on_c, 0, 81, 0
1, 28776, Note_on_c, 0, 79, 75
1, 28777, Note_on_c, 1, 41, 0
1, 28797, Note_on_c, 1, 50, 0
1, 28799, Note_on_c, 0, 79, 0
1, 28800, Note_on_c, 0, 77, 75
1, 28800, Note_on_c, 1, 45, 64
1, 28800, Note_on_c, 1, 41, 64
1, 28845, Note_on_c, 0, 77, 0
1, 28848, Note_on_c, 0, 76, 75
1, 28889, Note_on_c, 1, 45, 0
1, 28889, Note_on_c, 1, 41, 0
1, 28893, Note_on_c, 0, 76, 0
1, 28896, Note_on_c, 0, 75, 75
1, 28896, Note_on_c, 0, 72, 75
1, 28944, Note_on_c, 1, 57, 64
1, 28989, Note_on_c, 1, 57, 0
1, 28992, Note_on_c, 1, 58, 64
1, 29029, Note_on_c, 0, 75, 0
1, 29029, Note_on_c, 0, 72, 0
1, 29037, Note_on_c, 1, 58, 0
1, 29040, Note_on_c, 0, 74, 75
1, 29040, Note_on_c, 0, 70, 75
1, 29040, Note_on_c, 1, 64, 64
1, 29085, Note_on_c, 1, 64, 0
1, 29088, Note_on_c, 1, 65, 64
1, 29133, Note_on_c, 0, 74, 0
1, 29133, Note_on_c, 0, 70, 0
1, 29136, Note_on_c, 0, 71, 75
1, 29136, Note_on_c, 0, 68, 75
1, 29177, Note_on_c, 1, 65, 0
1, 29181, Note_on_c, 0, 71, 0
1, 29181, Note_on_c, 0, 68, 0
1, 29184, Note_on_c, 0, 72, 75
1, 29184, Note_on_c, 0, 69, 75
1, 29231, Note_on_c, 0, 72, 0
1, 29231, Note_on_c, 0, 69, 0
1, 29232, Note_on_c, 1, 43, 64
1, 29277, Note_on_c, 1, 43, 0
1, 29280, Note_on_c, 1, 41, 67
1, 29325, Note_on_c, 1, 41, 0
1, 29328, Note_on_c, 1, 39, 71
1, 29373, Note_on_c, 1, 39, 0
1, 29376, Note_on_c, 0, 58, 96
1, 29376, Note_on_c, 1, 37, 80
1, 29421, Note_on_c, 1, 37, 0
1, 29424, Note_on_c, 1, 53, 64
1, 29424, Note_on_c, 1, 49, 64
1, 29469, Note_on_c, 1, 53, 0
1, 29469, Note_on_c, 1, 49, 0
1, 29472, Note_on_c, 1, 53, 64
1, 29472, Note_on_c, 1, 49, 64
1, 29517, Note_on_c, 1, 53, 0
1, 29517, Note_on_c, 1, 49, 0
1, 29520, Note_on_c, 0, 58, 0
1, 29520, Note_on_c, 0, 60, 64
1, 29520, Note_on_c, 1, 53, 64
1, 29520, Note_on_c, 1, 49, 64
1, 29526, Note_on_c, 0, 60, 0
1, 29526, Note_on_c, 0, 58, 64
1, 29532, Note_on_c, 0, 58, 0
1, 29532, Note_on_c, 0, 57, 64
1, 29538, Note_on_c, 0, 57, 0
1, 29538, Note_on_c, 0, 58, 64
1, 29565, Note_on_c, 0, 58, 0
1, 29565, Note_on_c, 1, 53, 0
1, 29565, Note_on_c, 1, 49, 0
1, 29568, Note_on_c, 0, 65, 64
1, 29568, Note_on_c, 1, 53, 64
1, 29568, Note_on_c, 1, 49, 64
1, 29613, Note_on_c, 1, 53, 0
1, 29613, Note_on_c, 1, 49, 0
1, 29616, Note_on_c, 1, 53, 64
1, 29616, Note_on_c, 1, 49, 64
1, 29635, Note_on_c, 0, 65, 0
1, 29640, Note_on_c, 0, 61, 64
1, 29661, Note_on_c, 1, 53, 0
1, 29661, Note_on_c, 1, 49, 0
1, 29663, Note_on_c, 0, 61, 0
1, 29664, Note_on_c, 0, 61, 80
1, 29712, Note_on_c, 1, 54, 64
1, 29712, Note_on_c, 1, 51, 64
1, 29757, Note_on_c, 1, 54, 0
1, 29757, Note_on_c, 1, 51, 0
1, 29760, Note_on_c, 0, 61, 0
1, 29760, Note_on_c, 0, 60, 64
1, 29760, Note_on_c, 1, 54, 64
1, 29760, Note_on_c, 1, 51, 64
1, 29805, Note_on_c, 1, 54, 0
1, 29805, Note_on_c, 1, 51, 0
1, 29808, Note_on_c, 1, 54, 64
1, 29808, Note_on_c, 1, 51, 64
1, 29849, Note_on_c, 0, 60, 0
1, 29853, Note_on_c, 1, 54, 0
1, 29853, Note_on_c, 1, 51, 0
1, 29856, Note_on_c, 1, 54, 64
1, 29856, Note_on_c, 1, 51, 64
1, 29901, Note_on_c, 1, 54, 0
1, 29901, Note_on_c, 1, 51, 0
1, 29904, Note_on_c, 1, 54, 64
1, 29904, Note_on_c, 1, 51, 64
1, 29928, Note_on_c, 0, 63, 64
1, 29949, Note_on_c, 1, 54, 0
1, 29949, Note_on_c, 1, 51, 0
1, 29951, Note_on_c, 0, 63, 0
1, 29952, Note_on_c, 0, 63, 80
1, 30000, Note_on_c, 1, 56, 65
1, 30000, Note_on_c, 1, 53, 65
1, 30045, Note_on_c, 1, 56, 0
1, 30045, Note_on_c, 1, 53, 0
1, 30048, Note_on_c, 1, 56, 66
1, 30048, Note_on_c, 1, 53, 66
1, 30060, Note_on_c, 0, 63, 0
1, 30060, Note_on_c, 0, 62, 67
1, 30072, Note_on_c, 0, 62, 0
1, 30072, Note_on_c, 0, 65, 67
1, 30084, Note_on_c, 0, 65, 0
1, 30084, Note_on_c, 0, 68, 67
1, 30093, Note_on_c, 1, 56, 0
1, 30093, Note_on_c, 1, 53, 0
1, 30096, Note_on_c, 0, 68, 0
1, 30096, Note_on_c, 0, 71, 68
1, 30096, Note_on_c, 1, 56, 68
1, 30096, Note_on_c, 1, 53, 68
1, 30108, Note_on_c, 0, 71, 0
1, 30108, Note_on_c, 0, 74, 68
1, 30120, Note_on_c, 0, 74, 0
1, 30120, Note_on_c, 0, 77, 68
1, 30132, Note_on_c, 0, 77, 0
1, 30132, Note_on_c, 0, 80, 69
1, 30141, Note_on_c, 1, 56, 0
1, 30141, Note_on_c, 1, 53, 0
1, 30144, Note_on_c, 0, 80, 0
1, 30144, Note_on_c, 0, 83, 69
1, 30144, Note_on_c, 1, 56, 69
1, 30144, Note_on_c, 1, 53, 69
1, 30189, Note_on_c, 0, 83, 0
1, 30189, Note_on_c, 1, 56, 0
1, 30189, Note_on_c, 1, 53, 0
1, 30192, Note_on_c, 1, 56, 70
1, 30192, Note_on_c, 1, 53, 70
1, 30216, Note_on_c, 0, 62, 71
1, 30237, Note_on_c, 1, 56, 0
1, 30237, Note_on_c, 1, 53, 0
1, 30239, Note_on_c, 0, 62, 0
1, 30240, Note_on_c, 0, 65, 88
1, 30288, Note_on_c, 1, 58, 73
1, 30288, Note_on_c, 1, 54, 73
1, 30333, Note_on_c, 1, 58, 0
1, 30333, Note_on_c, 1, 54, 0
1, 30336, Note_on_c, 0, 65, 0
1, 30336, Note_on_c, 0, 63, 74
1, 30336, Note_on_c, 1, 58, 74
1, 30336, Note_on_c, 1, 54, 74
1, 30381, Note_on_c, 1, 58, 0
1, 30381, Note_on_c, 1, 54, 0
1, 30384, Note_on_c, 1, 58, 76
1, 30384, Note_on_c, 1, 54, 76
1, 30425, Note_on_c, 0, 63, 0
1, 30429, Note_on_c, 1, 58, 0
1, 30429, Note_on_c, 1, 54, 0
1, 30432, Note_on_c, 1, 58, 77
1, 30432, Note_on_c, 1, 54, 77
1, 30456, Note_on_c, 0, 70, 78
1, 30477, Note_on_c, 1, 58, 0
1, 30477, Note_on_c, 1, 54, 0
1, 30479, Note_on_c, 0, 70, 0
1, 30480, Note_on_c, 0, 72, 78
1, 30480, Note_on_c, 1, 58, 78
1, 30480, Note_on_c, 1, 54, 78
1, 30486, Note_on_c, 0, 72, 0
1, 30486, Note_on_c, 0, 70, 78
1, 30492, Note_on_c, 0, 70, 0
1, 30492, Note_on_c, 0, 69, 78
1, 30498, Note_on_c, 0, 69, 0
1, 30498, Note_on_c, 0, 70, 78
1, 30525, Note_on_c, 0, 70, 0
1, 30525, Note_on_c, 1, 58, 0
1, 30525, Note_on_c, 1, 54, 0
1, 30528, Note_on_c, 0, 85, 96
1, 30576, Note_on_c, 1, 64, 80
1, 30576, Note_on_c, 1, 58, 80
1, 30576, Note_on_c, 1, 54, 80
1, 30621, Note_on_c, 1, 64, 0
1, 30621, Note_on_c, 1, 58, 0
1, 30621, Note_on_c, 1, 54, 0
1, 30624, Note_on_c, 1, 64, 80
1, 30624, Note_on_c, 1, 58, 80
1, 30624, Note_on_c, 1, 54, 80
1, 30669, Note_on_c, 0, 85, 0
1, 30669, Note_on_c, 1, 64, 0
1, 30669, Note_on_c, 1, 58, 0
1, 30669, Note_on_c, 1, 54, 0
1, 30672, Note_on_c, 0, 84, 80
1, 30672, Note_on_c, 1, 64, 80
1, 30672, Note_on_c, 1, 58, 80
1, 30672, Note_on_c, 1, 54, 80
1, 30695, Note_on_c, 0, 84, 0
1, 30696, Note_on_c, 0, 82, 80
1, 30717, Note_on_c, 1, 64, 0
1, 30717, Note_on_c, 1, 58, 0
1, 30717, Note_on_c, 1, 54, 0
1, 30719, Note_on_c, 0, 82, 0
1, 30720, Note_on_c, 0, 80, 80
1, 30720, Note_on_c, 1, 64, 80
1, 30720, Note_on_c, 1, 58, 80
1, 30720, Note_on_c, 1, 54, 80
1, 30743, Note_on_c, 0, 80, 0
1, 30744, Note_on_c, 0, 78, 80
1, 30765, Note_on_c, 1, 64, 0
1, 30765, Note_on_c, 1, 58, 0
1, 30765, Note_on_c, 1, 54, 0
1, 30767, Note_on_c, 0, 78, 0
1, 30768, Note_on_c, 0, 77, 80
1, 30768, Note_on_c, 1, 58, 80
1, 30768, Note_on_c, 1, 54, 80
1, 30791, Note_on_c, 0, 77, 0
1, 30792, Note_on_c, 0, 76, 80
1, 30813, Note_on_c, 1, 58, 0
1, 30813, Note_on_c, 1, 54, 0
1, 30815, Note_on_c, 0, 76, 0
1, 30816, Note_on_c, 0, 76, 80
1, 30816, Note_on_c, 1, 58, 80
1, 30816, Note_on_c, 1, 53, 75
1, 30839, Note_on_c, 0, 76, 0
1, 30840, Note_on_c, 0, 77, 80
1, 30846, Note_on_c, 0, 77, 0
1, 30846, Note_on_c, 0, 76, 80
1, 30852, Note_on_c, 0, 76, 0
1, 30852, Note_on_c, 0, 74, 80
1, 30858, Note_on_c, 0, 74, 0
1, 30858, Note_on_c, 0, 76, 80
1, 30864, Note_on_c, 0, 76, 0
1, 30864, Note_on_c, 0, 79, 80
1, 30887, Note_on_c, 0, 79, 0
1, 30888, Note_on_c, 0, 77, 80
1, 30911, Note_on_c, 0, 77, 0
1, 30912, Note_on_c, 0, 77, 80
1, 30912, Note_on_c, 1, 58, 0
1, 30912, Note_on_c, 1, 57, 80
1, 30993, Note_on_c, 1, 53, 0
1, 31001, Note_on_c, 1, 57, 0
1, 31008, Note_on_c, 0, 77, 0
1, 31008, Note_on_c, 0, 76, 72
1, 31053, Note_on_c, 0, 76, 0
1, 31056, Note_on_c, 0, 75, 68
1, 31101, Note_on_c, 0, 75, 0
1, 31104, Note_on_c, 0, 74, 64
1, 31104, Note_on_c, 1, 65, 64
1, 31104, Note_on_c, 1, 58, 64
1, 31193, Note_on_c, 0, 74, 0
1, 31200, Note_on_c, 0, 75, 64
1, 31206, Note_on_c, 0, 75, 0
1, 31206, Note_on_c, 0, 74, 64
1, 31212, Note_on_c, 0, 74, 0
1, 31212, Note_on_c, 0, 72, 64
1, 31218, Note_on_c, 0, 72, 0
1, 31218, Note_on_c, 0, 74, 64
1, 31245, Note_on_c, 0, 74, 0
1, 31248, Note_on_c, 0, 77, 64
1, 31271, Note_on_c, 0, 77, 0
1, 31272, Note_on_c, 0, 75, 64
1, 31281, Note_on_c, 1, 65, 0
1, 31295, Note_on_c, 0, 75, 0
1, 31296, Note_on_c, 0, 74, 64
1, 31296, Note_on_c, 1, 63, 64
1, 31319, Note_on_c, 0, 74, 0
1, 31320, Note_on_c, 0, 72, 64
1, 31343, Note_on_c, 0, 72, 0
1, 31344, Note_on_c, 0, 70, 64
1, 31367, Note_on_c, 0, 70, 0
1, 31368, Note_on_c, 0, 69, 64
1, 31385, Note_on_c, 1, 63, 0
1, 31391, Note_on_c, 0, 69, 0
1, 31392, Note_on_c, 0, 70, 64
1, 31392, Note_on_c, 1, 62, 64
1, 31419, Note_on_c, 0, 70, 0
1, 31422, Note_on_c, 0, 72, 64
1, 31428, Note_on_c, 0, 72, 0
1, 31428, Note_on_c, 0, 70, 64
1, 31434, Note_on_c, 0, 70, 0
1, 31434, Note_on_c, 0, 69, 64
1, 31440, Note_on_c, 0, 69, 0
1, 31440, Note_on_c, 0, 70, 64
1, 31474, Note_on_c, 0, 70, 0
1, 31476, Note_on_c, 0, 74, 64
1, 31488, Note_on_c, 0, 74, 0
1, 31488, Note_on_c, 0, 77, 64
1, 31525, Note_on_c, 1, 62, 0
1, 31525, Note_on_c, 1, 58, 0
1, 31533, Note_on_c, 0, 77, 0
1, 31536, Note_on_c, 0, 77, 64
1, 31556, Note_on_c, 0, 77, 0
1, 31584, Note_on_c, 0, 77, 75
1, 31604, Note_on_c, 0, 77, 0
1, 31632, Note_on_c, 0, 77, 69
1, 31652, Note_on_c, 0, 77, 0
1, 31680, Note_on_c, 1, 65, 64
1, 31680, Note_on_c, 1, 62, 64
1, 31689, Note_on_c, 0, 67, 64
1, 31698, Note_on_c, 0, 67, 0
1, 31698, Note_on_c, 0, 69, 64
1, 31707, Note_on_c, 0, 69, 0
1, 31707, Note_on_c, 0, 70, 64
1, 31716, Note_on_c, 0, 70, 0
1, 31716, Note_on_c, 0, 72, 65
1, 31725, Note_on_c, 0, 72, 0
1, 31725, Note_on_c, 0, 74, 65
1, 31725, Note_on_c, 1, 65, 0
1, 31725, Note_on_c, 1, 62, 0
1, 31734, Note_on_c, 0, 74, 0
1, 31734, Note_on_c, 0, 75, 65
1, 31743, Note_on_c, 0, 75, 0
1, 31743, Note_on_c, 0, 77, 66
1, 31752, Note_on_c, 0, 77, 0
1, 31752, Note_on_c, 0, 79, 66
1, 31760, Note_on_c, 0, 79, 0
1, 31760, Note_on_c, 0, 81, 66
1, 31768, Note_on_c, 0, 81, 0
1, 31768, Note_on_c, 0, 82, 67
1, 31776, Note_on_c, 0, 82, 0
1, 31776, Note_on_c, 0, 81, 67
1, 31776, Note_on_c, 1, 67, 64
1, 31776, Note_on_c, 1, 63, 64
1, 31799, Note_on_c, 0, 81, 0
1, 31800, Note_on_c, 0, 79, 68
1, 31821, Note_on_c, 1, 67, 0
1, 31821, Note_on_c, 1, 63, 0
1, 31823, Note_on_c, 0, 79, 0
1, 31824, Note_on_c, 0, 77, 70
1, 31847, Note_on_c, 0, 77, 0
1, 31848, Note_on_c, 0, 75, 71
1, 31871, Note_on_c, 0, 75, 0
1, 31872, Note_on_c, 0, 74, 75
1, 31895, Note_on_c, 0, 74, 0
1, 31896, Note_on_c, 0, 72, 75
1, 31919, Note_on_c, 0, 72, 0
1, 31920, Note_on_c, 0, 87, 75
1, 31944, Note_on_c, 0, 87, 0
1, 31944, Note_on_c, 0, 84, 75
1, 31967, Note_on_c, 0, 84, 0
1, 31968, Note_on_c, 0, 82, 91
1, 31968, Note_on_c, 1, 62, 75
1, 31968, Note_on_c, 1, 53, 64
1, 32057, Note_on_c, 1, 62, 0
1, 32064, Note_on_c, 1, 60, 71
1, 32087, Note_on_c, 0, 82, 0
1, 32088, Note_on_c, 0, 81, 73
1, 32109, Note_on_c, 1, 60, 0
1, 32112, Note_on_c, 1, 58, 69
1, 32133, Note_on_c, 0, 81, 0
1, 32136, Note_on_c, 0, 79, 70
1, 32157, Note_on_c, 1, 58, 0
1, 32160, Note_on_c, 1, 57, 67
1, 32181, Note_on_c, 0, 79, 0
1, 32184, Note_on_c, 0, 77, 68
1, 32205, Note_on_c, 1, 57, 0
1, 32208, Note_on_c, 1, 60, 65
1, 32229, Note_on_c, 0, 77, 0
1, 32232, Note_on_c, 0, 75, 65
1, 32233, Note_on_c, 1, 53, 0
1, 32253, Note_on_c, 1, 60, 0
1, 32255, Note_on_c, 0, 75, 0
1, 32256, Note_on_c, 0, 74, 80
1, 32280, Note_on_c, 1, 46, 64
1, 32303, Note_on_c, 1, 46, 0
1, 32304, Note_on_c, 1, 50, 64
1, 32327, Note_on_c, 1, 50, 0
1, 32328, Note_on_c, 1, 53, 64
1, 32351, Note_on_c, 1, 53, 0
1, 32352, Note_on_c, 1, 58, 64
1, 32375, Note_on_c, 1, 58, 0
1, 32376, Note_on_c, 1, 62, 64
1, 32399, Note_on_c, 1, 62, 0
1, 32400, Note_on_c, 1, 65, 64
1, 32423, Note_on_c, 0, 74, 0
1, 32423, Note_on_c, 1, 65, 0
1, 32424, Note_on_c, 0, 77, 64
1, 32424, Note_on_c, 1, 67, 64
1, 32430, Note_on_c, 0, 77, 0
1, 32430, Note_on_c, 0, 75, 64
1, 32436, Note_on_c, 0, 75, 0
1, 32436, Note_on_c, 0, 74, 64
1, 32442, Note_on_c, 0, 74, 0
1, 32442, Note_on_c, 0, 75, 64
1, 32447, Note_on_c, 1, 67, 0
1, 32448, Note_on_c, 0, 75, 0
1, 32448, Note_on_c, 0, 74, 64
1, 32448, Note_on_c, 1, 65, 64
1, 32471, Note_on_c, 0, 74, 0
1, 32471, Note_on_c, 1, 65, 0
1, 32472, Note_on_c, 0, 72, 64
1, 32472, Note_on_c, 1, 63, 64
1, 32495, Note_on_c, 0, 72, 0
1, 32495, Note_on_c, 1, 63, 0
1, 32496, Note_on_c, 0, 70, 64
1, 32496, Note_on_c, 1, 62, 64
1, 32519, Note_on_c, 0, 70, 0
1, 32519, Note_on_c, 1, 62, 0
1, 32520, Note_on_c, 0, 69, 64
1, 32520, Note_on_c, 1, 60, 64
1, 32543, Note_on_c, 0, 69, 0
1, 32543, Note_on_c, 1, 60, 0
1, 32544, Note_on_c, 0, 70, 64
1, 32544, Note_on_c, 1, 58, 64
1, 32556, Note_on_c, 0, 70, 0
1, 32556, Note_on_c, 0, 72, 64
1, 32568, Note_on_c, 0, 72, 0
1, 32568, Note_on_c, 0, 70, 64
1, 32580, Note_on_c, 0, 70, 0
1, 32580, Note_on_c, 0, 69, 64
1, 32592, Note_on_c, 0, 69, 0
1, 32592, Note_on_c, 0, 70, 64
1, 32604, Note_on_c, 0, 70, 0
1, 32604, Note_on_c, 0, 72, 64
1, 32616, Note_on_c, 0, 72, 0
1, 32616, Note_on_c, 0, 74, 64
1, 32628, Note_on_c, 0, 74, 0
1, 32628, Note_on_c, 0, 75, 64
1, 32633, Note_on_c, 1, 58, 0
1, 32640, Note_on_c, 0, 75, 0
1, 32640, Note_on_c, 0, 77, 64
1, 32660, Note_on_c, 0, 77, 0
1, 32664, Note_on_c, 1, 58, 64
1, 32687, Note_on_c, 1, 58, 0
1, 32688, Note_on_c, 1, 57, 64
1, 32711, Note_on_c, 1, 57, 0
1, 32712, Note_on_c, 1, 58, 64
1, 32735, Note_on_c, 1, 58, 0
1, 32736, Note_on_c, 1, 57, 64
1, 32759, Note_on_c, 1, 57, 0
1, 32760, Note_on_c, 1, 58, 64
1, 32783, Note_on_c, 1, 58, 0
1, 32784, Note_on_c, 1, 56, 64
1, 32807, Note_on_c, 1, 56, 0
1, 32808, Note_on_c, 1, 58, 64
1, 32831, Note_on_c, 1, 58, 0
1, 32832, Note_on_c, 0, 75, 64
1, 32832, Note_on_c, 1, 55, 64
1, 32844, Note_on_c, 0, 75, 0
1, 32844, Note_on_c, 0, 77, 64
1, 32855, Note_on_c, 1, 55, 0
1, 32856, Note_on_c, 0, 77, 0
1, 32856, Note_on_c, 0, 75, 64
1, 32856, Note_on_c, 1, 58, 64
1, 32868, Note_on_c, 0, 75, 0
1, 32868, Note_on_c, 0, 74, 64
1, 32879, Note_on_c, 1, 58, 0
1, 32880, Note_on_c, 0, 74, 0
1, 32880, Note_on_c, 0, 75, 64
1, 32880, Note_on_c, 1, 55, 64
1, 32892, Note_on_c, 0, 75, 0
1, 32892, Note_on_c, 0, 77, 64
1, 32903, Note_on_c, 1, 55, 0
1, 32904, Note_on_c, 0, 77, 0
1, 32904, Note_on_c, 0, 79, 64
1, 32904, Note_on_c, 1, 58, 64
1, 32916, Note_on_c, 0, 79, 0
1, 32916, Note_on_c, 0, 81, 64
1, 32927, Note_on_c, 1, 58, 0
1, 32928, Note_on_c, 0, 81, 0
1, 32928, Note_on_c, 0, 82, 64
1, 32928, Note_on_c, 1, 51, 64
1, 32951, Note_on_c, 0, 82, 0
1, 32951, Note_on_c, 1, 51, 0
1, 32952, Note_on_c, 0, 82, 66
1, 32952, Note_on_c, 1, 55, 64
1, 32962, Note_on_c, 0, 82, 0
1, 32975, Note_on_c, 1, 55, 0
1, 32976, Note_on_c, 0, 82, 68
1, 32976, Note_on_c, 1, 51, 64
1, 32986, Note_on_c, 0, 82, 0
1, 32999, Note_on_c, 1, 51, 0
1, 33000, Note_on_c, 0, 82, 70
1, 33000, Note_on_c, 1, 55, 64
1, 33010, Note_on_c, 0, 82, 0
1, 33023, Note_on_c, 1, 55, 0
1, 33024, Note_on_c, 0, 82, 72
1, 33024, Note_on_c, 1, 50, 64
1, 33034, Note_on_c, 0, 82, 0
1, 33047, Note_on_c, 1, 50, 0
1, 33048, Note_on_c, 0, 82, 74
1, 33048, Note_on_c, 1, 53, 64
1, 33058, Note_on_c, 0, 82, 0
1, 33071, Note_on_c, 1, 53, 0
1, 33072, Note_on_c, 0, 82, 76
1, 33072, Note_on_c, 1, 48, 64
1, 33082, Note_on_c, 0, 82, 0
1, 33095, Note_on_c, 1, 48, 0
1, 33096, Note_on_c, 0, 82, 78
1, 33096, Note_on_c, 1, 51, 64
1, 33106, Note_on_c, 0, 82, 0
1, 33119, Note_on_c, 1, 51, 0
1, 33120, Note_on_c, 0, 82, 80
1, 33120, Note_on_c, 1, 46, 64
1, 33143, Note_on_c, 1, 46, 0
1, 33144, Note_on_c, 1, 50, 64
1, 33147, Note_on_c, 0, 82, 0
1, 33150, Note_on_c, 0, 84, 80
1, 33156, Note_on_c, 0, 84, 0
1, 33156, Note_on_c, 0, 82, 80
1, 33162, Note_on_c, 0, 82, 0
1, 33162, Note_on_c, 0, 81, 80
1, 33167, Note_on_c, 1, 50, 0
1, 33168, Note_on_c, 0, 81, 0
1, 33168, Note_on_c, 0, 82, 80
1, 33168, Note_on_c, 1, 46, 64
1, 33202, Note_on_c, 0, 82, 0
1, 33204, Note_on_c, 0, 84, 80
1, 33213, Note_on_c, 1, 46, 0
1, 33216, Note_on_c, 0, 84, 0
1, 33216, Note_on_c, 0, 86, 80
1, 33228, Note_on_c, 0, 86, 0
1, 33228, Note_on_c, 0, 77, 80
1, 33240, Note_on_c, 0, 77, 0
1, 33240, Note_on_c, 0, 82, 80
1, 33252, Note_on_c, 0, 82, 0
1, 33252, Note_on_c, 0, 86, 80
1, 33264, Note_on_c, 0, 86, 0
1, 33264, Note_on_c, 0, 89, 80
1, 33276, Note_on_c, 0, 89, 0
1, 33276, Note_on_c, 0, 87, 78
1, 33288, Note_on_c, 0, 87, 0
1, 33288, Note_on_c, 0, 86, 77
1, 33300, Note_on_c, 0, 86, 0
1, 33300, Note_on_c, 0, 84, 76
1, 33312, Note_on_c, 0, 84, 0
1, 33312, Note_on_c, 0, 82, 75
1, 33324, Note_on_c, 0, 82, 0
1, 33324, Note_on_c, 0, 81, 73
1, 33336, Note_on_c, 0, 81, 0
1, 33336, Note_on_c, 0, 79, 72
1, 33348, Note_on_c, 0, 79, 0
1, 33348, Note_on_c, 0, 77, 71
1, 33360, Note_on_c, 0, 77, 0
1, 33360, Note_on_c, 0, 75, 70
1, 33372, Note_on_c, 0, 75, 0
1, 33372, Note_on_c, 0, 74, 68
1, 33384, Note_on_c, 0, 74, 0
1, 33384, Note_on_c, 0, 72, 67
1, 33396, Note_on_c, 0, 72, 0
1, 33396, Note_on_c, 0, 71, 66
1, 33408, Note_on_c, 0, 71, 0
1, 33408, Note_on_c, 0, 72, 65
1, 33408, Note_on_c, 1, 60, 64
1, 33408, Note_on_c, 1, 51, 64
1, 33420, Note_on_c, 0, 72, 0
1, 33420, Note_on_c, 0, 79, 64
1, 33432, Note_on_c, 0, 79, 0
1, 33432, Note_on_c, 0, 75, 64
1, 33444, Note_on_c, 0, 75, 0
1, 33444, Note_on_c, 0, 72, 64
1, 33456, Note_on_c, 0, 72, 0
1, 33456, Note_on_c, 0, 82, 64
1, 33468, Note_on_c, 0, 82, 0
1, 33468, Note_on_c, 0, 79, 64
1, 33480, Note_on_c, 0, 79, 0
1, 33480, Note_on_c, 0, 75, 64
1, 33492, Note_on_c, 0, 75, 0
1, 33492, Note_on_c, 0, 72, 64
1, 33497, Note_on_c, 1, 60, 0
1, 33497, Note_on_c, 1, 51, 0
1, 33504, Note_on_c, 0, 72, 0
1, 33504, Note_on_c, 0, 70, 64
1, 33504, Note_on_c, 1, 62, 64
1, 33504, Note_on_c, 1, 53, 64
1, 33571, Note_on_c, 0, 70, 0
1, 33576, Note_on_c, 0, 72, 64
1, 33582, Note_on_c, 0, 72, 0
1, 33582, Note_on_c, 0, 70, 64
1, 33588, Note_on_c, 0, 70, 0
1, 33588, Note_on_c, 0, 69, 64
1, 33593, Note_on_c, 1, 62, 0
1, 33593, Note_on_c, 1, 53, 0
1, 33594, Note_on_c, 0, 69, 0
1, 33594, Note_on_c, 0, 70, 64
1, 33600, Note_on_c, 0, 70, 0
1, 33600, Note_on_c, 0, 74, 64
1, 33600, Note_on_c, 0, 69, 64
1, 33600, Note_on_c, 1, 63, 64
1, 33600, Note_on_c, 1, 53, 64
1, 33667, Note_on_c, 0, 74, 0
1, 33672, Note_on_c, 0, 72, 64
1, 33689, Note_on_c, 0, 69, 0
1, 33689, Note_on_c, 1, 63, 0
1, 33689, Note_on_c, 1, 53, 0
1, 33695, Note_on_c, 0, 72, 0
1, 33696, Note_on_c, 0, 70, 64
1, 33696, Note_on_c, 0, 70, 64
1, 33696, Note_on_c, 1, 62, 64
1, 33696, Note_on_c, 1, 55, 64
1, 33873, Note_on_c, 0, 70, 0
1, 33883, Note_on_c, 0, 70, 0
1, 33883, Note_on_c, 1, 62, 0
1, 33883, Note_on_c, 1, 55, 0
1, 33960, Note_on_c, 0, 75, 96
1, 33960, Note_on_c, 0, 72, 96
1, 33960, Note_on_c, 0, 69, 96
1, 33960, Note_on_c, 0, 65, 96
1, 33960, Note_on_c, 1, 53, 80
1, 33960, Note_on_c, 1, 51, 80
1, 33960, Note_on_c, 1, 48, 80
1, 33960, Note_on_c, 1, 45, 80
1, 33970, Note_on_c, 0, 75, 0
1, 33970, Note_on_c, 0, 72, 0
1, 33970, Note_on_c, 0, 69, 0
1, 33970, Note_on_c, 0, 65, 0
1, 33970, Note_on_c, 1, 53, 0
1, 33970, Note_on_c, 1, 51, 0
1, 33970, Note_on_c, 1, 48, 0
1, 33970, Note_on_c, 1, 45, 0
1, 33984, Note_on_c, 0, 75, 96
1, 33984, Note_on_c, 0, 72, 96
1, 33984, Note_on_c, 0, 69, 96
1, 33984, Note_on_c, 0, 65, 96
1, 33984, Note_on_c, 1, 53, 80
1, 33984, Note_on_c, 1, 51, 80
1, 33984, Note_on_c, 1, 48, 80
1, 33984, Note_on_c, 1, 45, 80
1, 34161, Note_on_c, 1, 53, 0
1, 34161, Note_on_c, 1, 51, 0
1, 34161, Note_on_c, 1, 48, 0
1, 34161, Note_on_c, 1, 45, 0
1, 34176, Note_on_c, 0, 75, 0
1, 34176, Note_on_c, 0, 72, 0
1, 34176, Note_on_c, 0, 69, 0
1, 34176, Note_on_c, 0, 65, 0
1, 34272, Note_on_c, 1, 41, 64
1, 34296, Note_on_c, 0, 57, 64
1, 34319, Note_on_c, 0, 57, 0
1, 34320, Note_on_c, 0, 60, 64
1, 34320, Note_on_c, 1, 51, 64
1, 34343, Note_on_c, 0, 60, 0
1, 34344, Note_on_c, 0, 57, 64
1, 34365, Note_on_c, 1, 51, 0
1, 34367, Note_on_c, 0, 57, 0
1, 34368, Note_on_c, 0, 67, 64
1, 34368, Note_on_c, 1, 51, 64
1, 34413, Note_on_c, 1, 51, 0
1, 34416, Note_on_c, 1, 51, 64
1, 34461, Note_on_c, 1, 51, 0
1, 34464, Note_on_c, 0, 67, 0
1, 34464, Note_on_c, 0, 65, 64
1, 34464, Note_on_c, 1, 51, 64
1, 34509, Note_on_c, 0, 65, 0
1, 34509, Note_on_c, 1, 51, 0
1, 34512, Note_on_c, 0, 57, 64
1, 34512, Note_on_c, 1, 51, 64
1, 34537, Note_on_c, 1, 41, 0
1, 34557, Note_on_c, 0, 57, 0
1, 34557, Note_on_c, 1, 51, 0
1, 34560, Note_on_c, 1, 50, 64
1, 34560, Note_on_c, 1, 41, 64
1, 34584, Note_on_c, 0, 58, 64
1, 34605, Note_on_c, 1, 50, 0
1, 34607, Note_on_c, 0, 58, 0
1, 34608, Note_on_c, 0, 62, 64
1, 34608, Note_on_c, 1, 50, 64
1, 34631, Note_on_c, 0, 62, 0
1, 34632, Note_on_c, 0, 58, 64
1, 34653, Note_on_c, 1, 50, 0
1, 34655, Note_on_c, 0, 58, 0
1, 34656, Note_on_c, 0, 70, 64
1, 34656, Note_on_c, 1, 50, 64
1, 34701, Note_on_c, 1, 50, 0
1, 34704, Note_on_c, 1, 50, 64
1, 34749, Note_on_c, 1, 50, 0
1, 34752, Note_on_c, 1, 50, 64
1, 34775, Note_on_c, 0, 70, 0
1, 34776, Note_on_c, 0, 69, 64
1, 34797, Note_on_c, 1, 50, 0
1, 34799, Note_on_c, 0, 69, 0
1, 34800, Note_on_c, 0, 67, 64
1, 34800, Note_on_c, 1, 50, 64
1, 34823, Note_on_c, 0, 67, 0
1, 34824, Note_on_c, 0, 65, 64
1, 34825, Note_on_c, 1, 41, 0
1, 34845, Note_on_c, 1, 50, 0
1, 34847, Note_on_c, 0, 65, 0
1, 34848, Note_on_c, 1, 41, 64
1, 34872, Note_on_c, 0, 69, 64
1, 34884, Note_on_c, 0, 69, 0
1, 34884, Note_on_c, 0, 70, 64
1, 34896, Note_on_c, 0, 70, 0
1, 34896, Note_on_c, 0, 74, 64
1, 34896, Note_on_c, 1, 51, 64
1, 34908, Note_on_c, 0, 74, 0
1, 34908, Note_on_c, 0, 72, 64
1, 34920, Note_on_c, 0, 72, 0
1, 34920, Note_on_c, 0, 70, 64
1, 34932, Note_on_c, 0, 70, 0
1, 34932, Note_on_c, 0, 69, 64
1, 34941, Note_on_c, 1, 51, 0
1, 34944, Note_on_c, 0, 69, 0
1, 34944, Note_on_c, 0, 79, 64
1, 34944, Note_on_c, 1, 51, 64
1, 34989, Note_on_c, 1, 51, 0
1, 34992, Note_on_c, 1, 51, 64
1, 35037, Note_on_c, 1, 51, 0
1, 35040, Note_on_c, 0, 79, 0
1, 35040, Note_on_c, 0, 77, 64
1, 35040, Note_on_c, 1, 51, 64
1, 35085, Note_on_c, 0, 77, 0
1, 35085, Note_on_c, 1, 51, 0
1, 35088, Note_on_c, 0, 69, 64
1, 35088, Note_on_c, 1, 51, 64
1, 35113, Note_on_c, 1, 41, 0
1, 35133, Note_on_c, 0, 69, 0
1, 35133, Note_on_c, 1, 51, 0
1, 35136, Note_on_c, 1, 50, 64
1, 35136, Note_on_c, 1, 41, 64
1, 35148, Note_on_c, 0, 70, 64
1, 35160, Note_on_c, 0, 70, 0
1, 35160, Note_on_c, 0, 72, 64
1, 35172, Note_on_c, 0, 72, 0
1, 35172, Note_on_c, 0, 74, 65
1, 35181, Note_on_c, 1, 50, 0
1, 35184, Note_on_c, 0, 74, 0
1, 35184, Note_on_c, 0, 75, 65
1, 35184, Note_on_c, 1, 50, 64
1, 35196, Note_on_c, 0, 75, 0
1, 35196, Note_on_c, 0, 77, 66
1, 35208, Note_on_c, 0, 77, 0
1, 35208, Note_on_c, 0, 79, 67
1, 35220, Note_on_c, 0, 79, 0
1, 35220, Note_on_c, 0, 81, 67
1, 35229, Note_on_c, 1, 50, 0
1, 35232, Note_on_c, 0, 81, 0
1, 35232, Note_on_c, 0, 82, 68
1, 35232, Note_on_c, 1, 50, 66
1, 35277, Note_on_c, 1, 50, 0
1, 35280, Note_on_c, 1, 50, 69
1, 35325, Note_on_c, 1, 50, 0
1, 35328, Note_on_c, 1, 50, 72
1, 35351, Note_on_c, 0, 82, 0
1, 35352, Note_on_c, 0, 81, 74
1, 35373, Note_on_c, 1, 50, 0
1, 35375, Note_on_c, 0, 81, 0
1, 35376, Note_on_c, 0, 79, 76
1, 35376, Note_on_c, 1, 50, 74
1, 35399, Note_on_c, 0, 79, 0
1, 35400, Note_on_c, 0, 77, 77
1, 35401, Note_on_c, 1, 41, 0
1, 35421, Note_on_c, 1, 50, 0
1, 35423, Note_on_c, 0, 77, 0
1, 35424, Note_on_c, 1, 45, 77
1, 35430, Note_on_c, 1, 48, 77
1, 35436, Note_on_c, 1, 51, 77
1, 35442, Note_on_c, 1, 53, 77
1, 35448, Note_on_c, 0, 77, 80
1, 35471, Note_on_c, 0, 77, 0
1, 35472, Note_on_c, 0, 84, 80
1, 35495, Note_on_c, 0, 84, 0
1, 35496, Note_on_c, 0, 81, 80
1, 35519, Note_on_c, 0, 81, 0
1, 35520, Note_on_c, 0, 87, 80
1, 35639, Note_on_c, 0, 87, 0
1, 35640, Note_on_c, 0, 87, 80
1, 35646, Note_on_c, 0, 87, 0
1, 35646, Note_on_c, 0, 86, 80
1, 35652, Note_on_c, 0, 86, 0
1, 35652, Note_on_c, 0, 84, 80
1, 35658, Note_on_c, 0, 84, 0
1, 35658, Note_on_c, 0, 86, 80
1, 35664, Note_on_c, 0, 86, 0
1, 35664, Note_on_c, 0, 89, 80
1, 35687, Note_on_c, 0, 89, 0
1, 35688, Note_on_c, 0, 87, 80
1, 35711, Note_on_c, 0, 87, 0
1, 35712, Note_on_c, 0, 86, 80
1, 35735, Note_on_c, 0, 86, 0
1, 35736, Note_on_c, 0, 84, 80
1, 35759, Note_on_c, 0, 84, 0
1, 35760, Note_on_c, 0, 87, 80
1, 35783, Note_on_c, 0, 87, 0
1, 35784, Note_on_c, 0, 86, 79
1, 35807, Note_on_c, 0, 86, 0
1, 35808, Note_on_c, 0, 84, 78
1, 35831, Note_on_c, 0, 84, 0
1, 35832, Note_on_c, 0, 82, 77
1, 35855, Note_on_c, 0, 82, 0
1, 35856, Note_on_c, 0, 86, 76
1, 35879, Note_on_c, 0, 86, 0
1, 35880, Note_on_c, 0, 84, 75
1, 35903, Note_on_c, 0, 84, 0
1, 35904, Note_on_c, 0, 82, 74
1, 35927, Note_on_c, 0, 82, 0
1, 35928, Note_on_c, 0, 81, 73
1, 35951, Note_on_c, 0, 81, 0
1, 35952, Note_on_c, 0, 84, 72
1, 35975, Note_on_c, 0, 84, 0
1, 35976, Note_on_c, 0, 82, 71
1, 35999, Note_on_c, 0, 82, 0
1, 36000, Note_on_c, 0, 81, 70
1, 36023, Note_on_c, 0, 81, 0
1, 36024, Note_on_c, 0, 79, 69
1, 36047, Note_on_c, 0, 79, 0
1, 36048, Note_on_c, 0, 82, 68
1, 36071, Note_on_c, 0, 82, 0
1, 36072, Note_on_c, 0, 81, 67
1, 36089, Note_on_c, 1, 53, 0
1, 36089, Note_on_c, 1, 51, 0
1, 36089, Note_on_c, 1, 48, 0
1, 36089, Note_on_c, 1, 45, 0
1, 36095, Note_on_c, 0, 81, 0
1, 36096, Note_on_c, 0, 79, 66
1, 36141, Note_on_c, 0, 79, 0
1, 36144, Note_on_c, 0, 78, 64
1, 36189, Note_on_c, 0, 78, 0
1, 36192, Note_on_c, 0, 77, 64
1, 36237, Note_on_c, 0, 77, 0
1, 36240, Note_on_c, 0, 76, 64
1, 36285, Note_on_c, 0, 76, 0
1, 36288, Note_on_c, 0, 75, 64
1, 36288, Note_on_c, 0, 72, 64
1, 36336, Note_on_c, 1, 53, 80
1, 36381, Note_on_c, 1, 53, 0
1, 36384, Note_on_c, 1, 54, 76
1, 36429, Note_on_c, 1, 54, 0
1, 36432, Note_on_c, 1, 53, 73
1, 36477, Note_on_c, 1, 53, 0
1, 36480, Note_on_c, 1, 65, 70
1, 36528, Note_on_c, 1, 65, 0
1, 36528, Note_on_c, 1, 66, 67
1, 36576, Note_on_c, 0, 75, 0
1, 36576, Note_on_c, 0, 72, 0
1, 36576, Note_on_c, 0, 74, 58
1, 36576, Note_on_c, 0, 70, 58
1, 36576, Note_on_c, 1, 66, 0
1, 36576, Note_on_c, 1, 67, 64
1, 36763, Note_on_c, 0, 74, 0
1, 36763, Note_on_c, 0, 70, 0
1, 36763, Note_on_c, 1, 67, 0
1, 36864, Note_on_c, 0, 67, 74
1, 36864, Note_on_c, 1, 60, 80
1, 36864, Note_on_c, 1, 55, 80
1, 36864, Note_on_c, 1, 51, 80
1, 36870, Note_on_c, 0, 72, 74
1, 36876, Note_on_c, 0, 75, 74
1, 36882, Note_on_c, 0, 79, 74
1, 36946, Note_on_c, 0, 79, 0
1, 36946, Note_on_c, 0, 75, 0
1, 36946, Note_on_c, 0, 72, 0
1, 36946, Note_on_c, 0, 67, 0
1, 36948, Note_on_c, 0, 77, 58
1, 36960, Note_on_c, 0, 77, 0
1, 36960, Note_on_c, 0, 75, 58
1, 36960, Note_on_c, 1, 60, 0
1, 36960, Note_on_c, 1, 55, 0
1, 36960, Note_on_c, 1, 51, 0
1, 36968, Note_on_c, 0, 75, 0
1, 36968, Note_on_c, 0, 74, 58
1, 36976, Note_on_c, 0, 74, 0
1, 36976, Note_on_c, 0, 72, 58
1, 36984, Note_on_c, 0, 72, 0
1, 36984, Note_on_c, 0, 70, 58
1, 36992, Note_on_c, 0, 70, 0
1, 36992, Note_on_c, 0, 69, 58
1, 37000, Note_on_c, 0, 69, 0
1, 37000, Note_on_c, 0, 67, 58
1, 37007, Note_on_c, 0, 67, 0
1, 37007, Note_on_c, 0, 65, 58
1, 37014, Note_on_c, 0, 65, 0
1, 37014, Note_on_c, 0, 63, 58
1, 37021, Note_on_c, 0, 63, 0
1, 37021, Note_on_c, 0, 62, 58
1, 37028, Note_on_c, 0, 62, 0
1, 37028, Note_on_c, 0, 60, 58
1, 37035, Note_on_c, 0, 60, 0
1, 37035, Note_on_c, 0, 58, 58
1, 37042, Note_on_c, 0, 58, 0
1, 37042, Note_on_c, 0, 57, 58
1, 37049, Note_on_c, 0, 57, 0
1, 37049, Note_on_c, 0, 55, 58
1, 37056, Note_on_c, 0, 55, 0
1, 37056, Note_on_c, 0, 53, 58
1, 37056, Note_on_c, 1, 51, 64
1, 37056, Note_on_c, 1, 48, 64
1, 37056, Note_on_c, 1, 45, 64
1, 37056, Note_on_c, 1, 41, 64
1, 37076, Note_on_c, 0, 53, 0
1, 37104, Note_on_c, 0, 69, 58
1, 37104, Note_on_c, 0, 63, 58
1, 37124, Note_on_c, 0, 69, 0
1, 37124, Note_on_c, 0, 63, 0
1, 37150, Note_on_c, 1, 51, 0
1, 37150, Note_on_c, 1, 48, 0
1, 37150, Note_on_c, 1, 45, 0
1, 37150, Note_on_c, 1, 41, 0
1, 37152, Note_on_c, 0, 70, 58
1, 37152, Note_on_c, 0, 62, 58
1, 37152, Note_on_c, 1, 34, 64
1, 37197, Note_on_c, 0, 70, 0
1, 37197, Note_on_c, 0, 62, 0
1, 37200, Note_on_c, 1, 46, 64
1, 37245, Note_on_c, 1, 46, 0
1, 37248, Note_on_c, 1, 46, 64
1, 37293, Note_on_c, 1, 46, 0
1, 37296, Note_on_c, 1, 46, 64
1, 37341, Note_on_c, 1, 46, 0
1, 37344, Note_on_c, 0, 67, 64
1, 37344, Note_on_c, 0, 63, 64
1, 37344, Note_on_c, 1, 46, 64
1, 37389, Note_on_c, 1, 46, 0
1, 37392, Note_on_c, 1, 46, 64
1, 37416, Note_on_c, 0, 67, 0
1, 37416, Note_on_c, 0, 66, 64
1, 37417, Note_on_c, 1, 34, 0
1, 37437, Note_on_c, 1, 46, 0
1, 37439, Note_on_c, 0, 66, 0
1, 37440, Note_on_c, 0, 65, 64
1, 37440, Note_on_c, 0, 63, 0
1, 37440, Note_on_c, 0, 62, 64
1, 37440, Note_on_c, 1, 34, 64
1, 37485, Note_on_c, 0, 65, 0
1, 37485, Note_on_c, 0, 62, 0
1, 37488, Note_on_c, 1, 46, 64
1, 37533, Note_on_c, 1, 46, 0
1, 37536, Note_on_c, 1, 46, 64
1, 37581, Note_on_c, 1, 46, 0
1, 37584, Note_on_c, 1, 46, 64
1, 37629, Note_on_c, 1, 46, 0
1, 37632, Note_on_c, 0, 63, 64
1, 37632, Note_on_c, 0, 55, 64
1, 37632, Note_on_c, 1, 46, 64
1, 37677, Note_on_c, 1, 46, 0
1, 37680, Note_on_c, 1, 46, 64
1, 37704, Note_on_c, 0, 55, 0
1, 37704, Note_on_c, 0, 54, 64
1, 37705, Note_on_c, 1, 34, 0
1, 37725, Note_on_c, 1, 46, 0
1, 37727, Note_on_c, 0, 54, 0
1, 37728, Note_on_c, 0, 63, 0
1, 37728, Note_on_c, 0, 62, 64
1, 37728, Note_on_c, 0, 53, 64
1, 37728, Note_on_c, 1, 34, 64
1, 37773, Note_on_c, 0, 62, 0
1, 37773, Note_on_c, 0, 53, 0
1, 37776, Note_on_c, 1, 46, 64
1, 37821, Note_on_c, 1, 46, 0
1, 37824, Note_on_c, 1, 46, 64
1, 37869, Note_on_c, 1, 46, 0
1, 37872, Note_on_c, 1, 46, 64
1, 37917, Note_on_c, 1, 46, 0
1, 37920, Note_on_c, 0, 60, 64
1, 37920, Note_on_c, 0, 51, 64
1, 37920, Note_on_c, 1, 46, 64
1, 37965, Note_on_c, 1, 46, 0
1, 37968, Note_on_c, 1, 46, 64
1, 37992, Note_on_c, 0, 60, 0
1, 37992, Note_on_c, 0, 57, 64
1, 37992, Note_on_c, 0, 51, 0
1, 37992, Note_on_c, 0, 54, 64
1, 37993, Note_on_c, 1, 34, 0
1, 38013, Note_on_c, 1, 46, 0
1, 38015, Note_on_c, 0, 57, 0
1, 38015, Note_on_c, 0, 54, 0
1, 38016, Note_on_c, 0, 58, 64
1, 38016, Note_on_c, 0, 50, 64
1, 38016, Note_on_c, 0, 58, 64
1, 38016, Note_on_c, 0, 50, 64
1, 38016, Note_on_c, 1, 46, 64
1, 38016, Note_on_c, 1, 34, 64
1, 38061, Note_on_c, 0, 58, 0
1, 38061, Note_on_c, 0, 50, 0
1, 38061, Note_on_c, 0, 58, 0
1, 38061, Note_on_c, 0, 50, 0
1, 38061, Note_on_c, 1, 46, 0
1, 38061, Note_on_c, 1, 34, 0
1, 38208, Note_on_c, 0, 58, 58
1, 38208, Note_on_c, 0, 50, 58
1, 38208, Note_on_c, 0, 50, 64
1, 38208, Note_on_c, 1, 46, 58
1, 38208, Note_on_c, 1, 34, 58
1, 38255, Note_on_c, 0, 58, 0
1, 38255, Note_on_c, 0, 50, 0
1, 38255, Note_on_c, 0, 50, 0
1, 38255, Note_on_c, 1, 46, 0
1, 38255, Note_on_c, 1, 34, 0
1, 38304, Note_on_c, 0, 58, 58
1, 38304, Note_on_c, 0, 50, 58
1, 38304, Note_on_c, 0, 50, 64
1, 38304, Note_on_c, 1, 46, 58
1, 38304, Note_on_c, 1, 34, 58
1, 38374, Note_on_c, 0, 58, 0
1, 38374, Note_on_c, 0, 50, 0
1, 38374, Note_on_c, 0, 50, 0
1, 38374, Note_on_c, 1, 46, 0
1, 38374, Note_on_c, 1, 34, 0
1, 38592, Note_on_c, 1, 34, 0
1, 38681, Note_on_c, 1, 34, 0
1, 38691, End_track
0, 0, End_of_file