0, 0, Header, 0, 1, 96
1, 0, Start_track
1, 0, Tempo, 461538
1, 0, Note_on_c, 0, 74, 75
1, 0, Note_on_c, 1, 60, 91
1, 0, Note_on_c, 1, 48, 91
1, 18, Note_on_c, 0, 74, 0
1, 18, Note_on_c, 0, 72, 75
1, 36, Note_on_c, 0, 72, 0
1, 36, Note_on_c, 0, 71, 75
1, 54, Note_on_c, 0, 71, 0
1, 54, Note_on_c, 0, 72, 75
1, 89, Note_on_c, 0, 72, 0
1, 96, Note_on_c, 0, 76, 75
1, 96, Note_on_c, 1, 60, 0
1, 96, Note_on_c, 1, 48, 0
1, 126, Note_on_c, 0, 76, 0
1, 128, Note_on_c, 0, 74, 75
1, 158, Note_on_c, 0, 74, 0
1, 160, Note_on_c, 0, 72, 75
1, 190, Note_on_c, 0, 72, 0
1, 192, Note_on_c, 0, 77, 75
1, 222, Note_on_c, 0, 77, 0
1, 224, Note_on_c, 0, 76, 75
1, 254, Note_on_c, 0, 76, 0
1, 256, Note_on_c, 0, 74, 75
1, 286, Note_on_c, 0, 74, 0
1, 288, Note_on_c, 0, 79, 75
1, 288, Note_on_c, 1, 64, 75
1, 377, Note_on_c, 0, 79, 0
1, 377, Note_on_c, 1, 64, 0
1, 384, Note_on_c, 0, 76, 75
1, 384, Note_on_c, 1, 60, 75
1, 473, Note_on_c, 0, 76, 0
1, 473, Note_on_c, 1, 60, 0
1, 480, Note_on_c, 0, 79, 75
1, 480, Note_on_c, 1, 62, 75
1, 480, Note_on_c, 1, 55, 75
1, 503, Note_on_c, 0, 79, 0
1, 504, Note_on_c, 0, 77, 75
1, 527, Note_on_c, 0, 77, 0
1, 528, Note_on_c, 0, 76, 75
1, 551, Note_on_c, 0, 76, 0
1, 552, Note_on_c, 0, 74, 75
1, 569, Note_on_c, 1, 62, 0
1, 569, Note_on_c, 1, 55, 0
1, 575, Note_on_c, 0, 74, 0
1, 576, Note_on_c, 0, 72, 75
1, 576, Note_on_c, 1, 60, 75
1, 665, Note_on_c, 0, 72, 0
1, 665, Note_on_c, 1, 60, 0
1, 672, Note_on_c, 0, 84, 75
1, 672, Note_on_c, 1, 64, 75
1, 761, Note_on_c, 0, 84, 0
1, 761, Note_on_c, 1, 64, 0
1, 768, Note_on_c, 0, 81, 75
1, 768, Note_on_c, 1, 65, 75
1, 857, Note_on_c, 0, 81, 0
1, 857, Note_on_c, 1, 65, 0
1, 864, Note_on_c, 0, 83, 75
1, 864, Note_on_c, 1, 65, 75
1, 864, Note_on_c, 1, 60, 64
1, 879, Note_on_c, 0, 83, 0
1, 880, Note_on_c, 0, 81, 75
1, 895, Note_on_c, 0, 81, 0
1, 896, Note_on_c, 0, 83, 75
1, 911, Note_on_c, 0, 83, 0
1, 912, Note_on_c, 0, 81, 75
1, 927, Note_on_c, 0, 81, 0
1, 928, Note_on_c, 0, 79, 75
1, 943, Note_on_c, 0, 79, 0
1, 944, Note_on_c, 0, 81, 75
1, 953, Note_on_c, 1, 65, 0
1, 959, Note_on_c, 0, 81, 0
1, 960, Note_on_c, 0, 79, 75
1, 960, Note_on_c, 1, 64, 75
1, 1041, Note_on_c, 1, 60, 0
1, 1049, Note_on_c, 0, 79, 0
1, 1049, Note_on_c, 1, 64, 0
1, 1152, Note_on_c, 1, 59, 75
1, 1182, Note_on_c, 1, 59, 0
1, 1184, Note_on_c, 1, 62, 75
1, 1214, Note_on_c, 1, 62, 0
1, 1216, Note_on_c, 1, 67, 75
1, 1246, Note_on_c, 1, 67, 0
1, 1248, Note_on_c, 1, 59, 75
1, 1280, Note_on_c, 0, 74, 75
1, 1310, Note_on_c, 0, 74, 0
1, 1312, Note_on_c, 0, 76, 75
1, 1337, Note_on_c, 1, 59, 0
1, 1342, Note_on_c, 0, 76, 0
1, 1344, Note_on_c, 0, 77, 75
1, 1374, Note_on_c, 0, 77, 0
1, 1376, Note_on_c, 0, 76, 75
1, 1406, Note_on_c, 0, 76, 0
1, 1408, Note_on_c, 0, 74, 75
1, 1438, Note_on_c, 0, 74, 0
1, 1440, Note_on_c, 0, 76, 75
1, 1440, Note_on_c, 1, 60, 75
1, 1470, Note_on_c, 1, 60, 0
1, 1472, Note_on_c, 1, 64, 75
1, 1502, Note_on_c, 1, 64, 0
1, 1504, Note_on_c, 1, 67, 75
1, 1529, Note_on_c, 0, 76, 0
1, 1534, Note_on_c, 1, 67, 0
1, 1536, Note_on_c, 1, 60, 75
1, 1568, Note_on_c, 0, 76, 75
1, 1598, Note_on_c, 0, 76, 0
1, 1600, Note_on_c, 0, 77, 75
1, 1625, Note_on_c, 1, 60, 0
1, 1630, Note_on_c, 0, 77, 0
1, 1632, Note_on_c, 0, 79, 75
1, 1662, Note_on_c, 0, 79, 0
1, 1664, Note_on_c, 0, 77, 75
1, 1694, Note_on_c, 0, 77, 0
1, 1696, Note_on_c, 0, 76, 75
1, 1726, Note_on_c, 0, 76, 0
1, 1728, Note_on_c, 0, 74, 75
1, 1728, Note_on_c, 1, 65, 75
1, 1728, Note_on_c, 1, 53, 75
1, 1758, Note_on_c, 0, 74, 0
1, 1760, Note_on_c, 0, 76, 75
1, 1790, Note_on_c, 0, 76, 0
1, 1792, Note_on_c, 0, 77, 75
1, 1817, Note_on_c, 1, 65, 0
1, 1817, Note_on_c, 1, 53, 0
1, 1822, Note_on_c, 0, 77, 0
1, 1824, Note_on_c, 0, 72, 75
1, 1824, Note_on_c, 1, 64, 75
1, 1824, Note_on_c, 1, 55, 75
1, 1913, Note_on_c, 0, 72, 0
1, 1913, Note_on_c, 1, 64, 0
1, 1913, Note_on_c, 1, 55, 0
1, 1920, Note_on_c, 0, 72, 75
1, 1920, Note_on_c, 1, 62, 75
1, 1920, Note_on_c, 1, 55, 75
1, 1935, Note_on_c, 0, 72, 0
1, 1936, Note_on_c, 0, 71, 75
1, 1951, Note_on_c, 0, 71, 0
1, 1952, Note_on_c, 0, 72, 75
1, 1967, Note_on_c, 0, 72, 0
1, 1968, Note_on_c, 0, 71, 75
1, 1983, Note_on_c, 0, 71, 0
1, 1984, Note_on_c, 0, 69, 75
1, 1999, Note_on_c, 0, 69, 0
1, 2000, Note_on_c, 0, 71, 75
1, 2009, Note_on_c, 1, 62, 0
1, 2009, Note_on_c, 1, 55, 0
1, 2015, Note_on_c, 0, 71, 0
1, 2016, Note_on_c, 0, 72, 75
1, 2016, Note_on_c, 1, 60, 75
1, 2105, Note_on_c, 1, 60, 0
1, 2112, Note_on_c, 1, 55, 75
1, 2193, Note_on_c, 0, 72, 0
1, 2201, Note_on_c, 1, 55, 0
1, 2208, Note_on_c, 1, 48, 75
1, 2297, Note_on_c, 1, 48, 0
1, 2304, Note_on_c, 0, 74, 75
1, 2304, Note_on_c, 1, 60, 91
1, 2304, Note_on_c, 1, 48, 91
1, 2322, Note_on_c, 0, 74, 0
1, 2322, Note_on_c, 0, 72, 75
1, 2340, Note_on_c, 0, 72, 0
1, 2340, Note_on_c, 0, 71, 75
1, 2358, Note_on_c, 0, 71, 0
1, 2358, Note_on_c, 0, 72, 75
1, 2393, Note_on_c, 0, 72, 0
1, 2400, Note_on_c, 0, 76, 75
1, 2400, Note_on_c, 1, 60, 0
1, 2400, Note_on_c, 1, 48, 0
1, 2430, Note_on_c, 0, 76, 0
1, 2432, Note_on_c, 0, 74, 75
1, 2462, Note_on_c, 0, 74, 0
1, 2464, Note_on_c, 0, 72, 75
1, 2494, Note_on_c, 0, 72, 0
1, 2496, Note_on_c, 0, 77, 75
1, 2526, Note_on_c, 0, 77, 0
1, 2528, Note_on_c, 0, 76, 75
1, 2558, Note_on_c, 0, 76, 0
1, 2560, Note_on_c, 0, 74, 75
1, 2590, Note_on_c, 0, 74, 0
1, 2592, Note_on_c, 0, 79, 75
1, 2592, Note_on_c, 1, 64, 75
1, 2681, Note_on_c, 0, 79, 0
1, 2681, Note_on_c, 1, 64, 0
1, 2688, Note_on_c, 0, 76, 75
1, 2688, Note_on_c, 1, 60, 75
1, 2777, Note_on_c, 0, 76, 0
1, 2777, Note_on_c, 1, 60, 0
1, 2784, Note_on_c, 0, 79, 75
1, 2784, Note_on_c, 1, 62, 75
1, 2784, Note_on_c, 1, 55, 75
1, 2807, Note_on_c, 0, 79, 0
1, 2808, Note_on_c, 0, 77, 75
1, 2831, Note_on_c, 0, 77, 0
1, 2832, Note_on_c, 0, 76, 75
1, 2855, Note_on_c, 0, 76, 0
1, 2856, Note_on_c, 0, 74, 75
1, 2873, Note_on_c, 1, 62, 0
1, 2873, Note_on_c, 1, 55, 0
1, 2879, Note_on_c, 0, 74, 0
1, 2880, Note_on_c, 0, 72, 75
1, 2880, Note_on_c, 1, 60, 75
1, 2969, Note_on_c, 0, 72, 0
1, 2969, Note_on_c, 1, 60, 0
1, 2976, Note_on_c, 0, 84, 75
1, 2976, Note_on_c, 1, 64, 75
1, 3065, Note_on_c, 0, 84, 0
1, 3065, Note_on_c, 1, 64, 0
1, 3072, Note_on_c, 0, 81, 75
1, 3072, Note_on_c, 1, 65, 75
1, 3161, Note_on_c, 0, 81, 0
1, 3161, Note_on_c, 1, 65, 0
1, 3168, Note_on_c, 0, 83, 75
1, 3168, Note_on_c, 1, 65, 75
1, 3168, Note_on_c, 1, 60, 64
1, 3183, Note_on_c, 0, 83, 0
1, 3184, Note_on_c, 0, 81, 75
1, 3199, Note_on_c, 0, 81, 0
1, 3200, Note_on_c, 0, 83, 75
1, 3215, Note_on_c, 0, 83, 0
1, 3216, Note_on_c, 0, 81, 75
1, 3231, Note_on_c, 0, 81, 0
1, 3232, Note_on_c, 0, 79, 75
1, 3247, Note_on_c, 0, 79, 0
1, 3248, Note_on_c, 0, 81, 75
1, 3257, Note_on_c, 1, 65, 0
1, 3263, Note_on_c, 0, 81, 0
1, 3264, Note_on_c, 0, 79, 75
1, 3264, Note_on_c, 1, 64, 75
1, 3345, Note_on_c, 1, 60, 0
1, 3353, Note_on_c, 0, 79, 0
1, 3353, Note_on_c, 1, 64, 0
1, 3456, Note_on_c, 1, 59, 75
1, 3486, Note_on_c, 1, 59, 0
1, 3488, Note_on_c, 1, 62, 75
1, 3518, Note_on_c, 1, 62, 0
1, 3520, Note_on_c, 1, 67, 75
1, 3550, Note_on_c, 1, 67, 0
1, 3552, Note_on_c, 1, 59, 75
1, 3584, Note_on_c, 0, 74, 75
1, 3614, Note_on_c, 0, 74, 0
1, 3616, Note_on_c, 0, 76, 75
1, 3641, Note_on_c, 1, 59, 0
1, 3646, Note_on_c, 0, 76, 0
1, 3648, Note_on_c, 0, 77, 75
1, 3678, Note_on_c, 0, 77, 0
1, 3680, Note_on_c, 0, 76, 75
1, 3710, Note_on_c, 0, 76, 0
1, 3712, Note_on_c, 0, 74, 75
1, 3742, Note_on_c, 0, 74, 0
1, 3744, Note_on_c, 0, 76, 75
1, 3744, Note_on_c, 1, 60, 75
1, 3774, Note_on_c, 1, 60, 0
1, 3776, Note_on_c, 1, 64, 75
1, 3806, Note_on_c, 1, 64, 0
1, 3808, Note_on_c, 1, 67, 75
1, 3833, Note_on_c, 0, 76, 0
1, 3838, Note_on_c, 1, 67, 0
1, 3840, Note_on_c, 1, 60, 75
1, 3872, Note_on_c, 0, 76, 75
1, 3902, Note_on_c, 0, 76, 0
1, 3904, Note_on_c, 0, 77, 75
1, 3929, Note_on_c, 1, 60, 0
1, 3934, Note_on_c, 0, 77, 0
1, 3936, Note_on_c, 0, 79, 75
1, 3966, Note_on_c, 0, 79, 0
1, 3968, Note_on_c, 0, 77, 75
1, 3998, Note_on_c, 0, 77, 0
1, 4000, Note_on_c, 0, 76, 75
1, 4030, Note_on_c, 0, 76, 0
1, 4032, Note_on_c, 0, 74, 75
1, 4032, Note_on_c, 1, 65, 75
1, 4032, Note_on_c, 1, 53, 75
1, 4062, Note_on_c, 0, 74, 0
1, 4064, Note_on_c, 0, 76, 75
1, 4094, Note_on_c, 0, 76, 0
1, 4096, Note_on_c, 0, 77, 75
1, 4121, Note_on_c, 1, 65, 0
1, 4121, Note_on_c, 1, 53, 0
1, 4126, Note_on_c, 0, 77, 0
1, 4128, Note_on_c, 0, 72, 75
1, 4128, Note_on_c, 1, 64, 75
1, 4128, Note_on_c, 1, 55, 75
1, 4217, Note_on_c, 0, 72, 0
1, 4217, Note_on_c, 1, 64, 0
1, 4217, Note_on_c, 1, 55, 0
1, 4224, Note_on_c, 0, 72, 75
1, 4224, Note_on_c, 1, 62, 75
1, 4224, Note_on_c, 1, 55, 75
1, 4239, Note_on_c, 0, 72, 0
1, 4240, Note_on_c, 0, 71, 75
1, 4255, Note_on_c, 0, 71, 0
1, 4256, Note_on_c, 0, 72, 75
1, 4271, Note_on_c, 0, 72, 0
1, 4272, Note_on_c, 0, 71, 75
1, 4287, Note_on_c, 0, 71, 0
1, 4288, Note_on_c, 0, 69, 75
1, 4303, Note_on_c, 0, 69, 0
1, 4304, Note_on_c, 0, 71, 75
1, 4313, Note_on_c, 1, 62, 0
1, 4313, Note_on_c, 1, 55, 0
1, 4319, Note_on_c, 0, 71, 0
1, 4320, Note_on_c, 0, 72, 75
1, 4320, Note_on_c, 1, 60, 75
1, 4409, Note_on_c, 1, 60, 0
1, 4416, Note_on_c, 1, 55, 75
1, 4497, Note_on_c, 0, 72, 0
1, 4505, Note_on_c, 1, 55, 0
1, 4512, Note_on_c, 1, 48, 75
1, 4601, Note_on_c, 1, 48, 0
1, 4608, Note_on_c, 0, 76, 75
1, 4608, Note_on_c, 1, 48, 75
1, 4653, Note_on_c, 0, 76, 0
1, 4656, Note_on_c, 0, 84, 75
1, 4697, Note_on_c, 1, 48, 0
1, 4701, Note_on_c, 0, 84, 0
1, 4704, Note_on_c, 0, 76, 75
1, 4734, Note_on_c, 0, 76, 0
1, 4736, Note_on_c, 0, 78, 75
1, 4766, Note_on_c, 0, 78, 0
1, 4768, Note_on_c, 0, 79, 75
1, 4798, Note_on_c, 0, 79, 0
1, 4800, Note_on_c, 0, 78, 75
1, 4800, Note_on_c, 1, 48, 75
1, 4830, Note_on_c, 0, 78, 0
1, 4832, Note_on_c, 0, 79, 75
1, 4862, Note_on_c, 0, 79, 0
1, 4864, Note_on_c, 0, 81, 75
1, 4889, Note_on_c, 1, 48, 0
1, 4894, Note_on_c, 0, 81, 0
1, 4896, Note_on_c, 0, 79, 75
1, 4896, Note_on_c, 1, 47, 75
1, 4941, Note_on_c, 0, 79, 0
1, 4944, Note_on_c, 0, 83, 75
1, 4989, Note_on_c, 0, 83, 0
1, 4992, Note_on_c, 0, 74, 75
1, 5029, Note_on_c, 1, 47, 0
1, 5040, Note_on_c, 1, 59, 75
1, 5081, Note_on_c, 0, 74, 0
1, 5085, Note_on_c, 1, 59, 0
1, 5088, Note_on_c, 1, 57, 75
1, 5133, Note_on_c, 1, 57, 0
1, 5136, Note_on_c, 1, 55, 75
1, 5181, Note_on_c, 1, 55, 0
1, 5184, Note_on_c, 0, 72, 75
1, 5184, Note_on_c, 1, 57, 75
1, 5229, Note_on_c, 0, 72, 0
1, 5232, Note_on_c, 0, 81, 75
1, 5273, Note_on_c, 1, 57, 0
1, 5277, Note_on_c, 0, 81, 0
1, 5280, Note_on_c, 0, 69, 75
1, 5280, Note_on_c, 1, 54, 75
1, 5310, Note_on_c, 0, 69, 0
1, 5312, Note_on_c, 0, 71, 75
1, 5342, Note_on_c, 0, 71, 0
1, 5344, Note_on_c, 0, 72, 75
1, 5369, Note_on_c, 1, 54, 0
1, 5374, Note_on_c, 0, 72, 0
1, 5376, Note_on_c, 0, 71, 75
1, 5376, Note_on_c, 1, 55, 75
1, 5406, Note_on_c, 0, 71, 0
1, 5408, Note_on_c, 0, 72, 75
1, 5438, Note_on_c, 0, 72, 0
1, 5440, Note_on_c, 0, 74, 75
1, 5465, Note_on_c, 1, 55, 0
1, 5470, Note_on_c, 0, 74, 0
1, 5472, Note_on_c, 0, 74, 75
1, 5472, Note_on_c, 1, 57, 75
1, 5561, Note_on_c, 0, 74, 0
1, 5561, Note_on_c, 1, 57, 0
1, 5568, Note_on_c, 0, 74, 75
1, 5568, Note_on_c, 1, 50, 75
1, 5583, Note_on_c, 0, 74, 0
1, 5584, Note_on_c, 0, 72, 75
1, 5599, Note_on_c, 0, 72, 0
1, 5600, Note_on_c, 0, 74, 75
1, 5615, Note_on_c, 0, 74, 0
1, 5616, Note_on_c, 0, 72, 75
1, 5631, Note_on_c, 0, 72, 0
1, 5632, Note_on_c, 0, 71, 75
1, 5647, Note_on_c, 0, 71, 0
1, 5648, Note_on_c, 0, 72, 75
1, 5657, Note_on_c, 1, 50, 0
1, 5663, Note_on_c, 0, 72, 0
1, 5664, Note_on_c, 0, 71, 75
1, 5664, Note_on_c, 1, 55, 75
1, 5753, Note_on_c, 0, 71, 0
1, 5753, Note_on_c, 1, 55, 0
1, 5760, Note_on_c, 1, 48, 75
1, 5790, Note_on_c, 1, 48, 0
1, 5792, Note_on_c, 1, 52, 75
1, 5822, Note_on_c, 1, 52, 0
1, 5824, Note_on_c, 1, 55, 75
1, 5854, Note_on_c, 1, 55, 0
1, 5856, Note_on_c, 1, 48, 75
1, 5888, Note_on_c, 0, 76, 75
1, 5918, Note_on_c, 0, 76, 0
1, 5920, Note_on_c, 0, 78, 75
1, 5945, Note_on_c, 1, 48, 0
1, 5950, Note_on_c, 0, 78, 0
1, 5952, Note_on_c, 0, 79, 75
1, 5982, Note_on_c, 0, 79, 0
1, 5984, Note_on_c, 0, 78, 75
1, 6014, Note_on_c, 0, 78, 0
1, 6016, Note_on_c, 0, 76, 75
1, 6046, Note_on_c, 0, 76, 0
1, 6048, Note_on_c, 0, 74, 75
1, 6048, Note_on_c, 1, 47, 75
1, 6078, Note_on_c, 1, 47, 0
1, 6080, Note_on_c, 1, 50, 75
1, 6110, Note_on_c, 1, 50, 0
1, 6112, Note_on_c, 1, 55, 75
1, 6137, Note_on_c, 0, 74, 0
1, 6142, Note_on_c, 1, 55, 0
1, 6144, Note_on_c, 1, 47, 75
1, 6176, Note_on_c, 0, 78, 75
1, 6206, Note_on_c, 0, 78, 0
1, 6208, Note_on_c, 0, 79, 75
1, 6233, Note_on_c, 1, 47, 0
1, 6238, Note_on_c, 0, 79, 0
1, 6240, Note_on_c, 0, 81, 75
1, 6270, Note_on_c, 0, 81, 0
1, 6272, Note_on_c, 0, 78, 75
1, 6302, Note_on_c, 0, 78, 0
1, 6304, Note_on_c, 0, 79, 75
1, 6334, Note_on_c, 0, 79, 0
1, 6336, Note_on_c, 0, 76, 75
1, 6336, Note_on_c, 1, 55, 75
1, 6336, Note_on_c, 1, 48, 64
1, 6366, Note_on_c, 0, 76, 0
1, 6368, Note_on_c, 0, 74, 75
1, 6398, Note_on_c, 0, 74, 0
1, 6400, Note_on_c, 0, 72, 75
1, 6425, Note_on_c, 1, 55, 0
1, 6425, Note_on_c, 1, 48, 0
1, 6430, Note_on_c, 0, 72, 0
1, 6432, Note_on_c, 0, 71, 75
1, 6432, Note_on_c, 1, 55, 75
1, 6432, Note_on_c, 1, 50, 64
1, 6521, Note_on_c, 0, 71, 0
1, 6521, Note_on_c, 1, 55, 0
1, 6528, Note_on_c, 0, 71, 75
1, 6528, Note_on_c, 1, 54, 75
1, 6543, Note_on_c, 0, 71, 0
1, 6544, Note_on_c, 0, 69, 75
1, 6559, Note_on_c, 0, 69, 0
1, 6560, Note_on_c, 0, 71, 75
1, 6575, Note_on_c, 0, 71, 0
1, 6576, Note_on_c, 0, 69, 75
1, 6591, Note_on_c, 0, 69, 0
1, 6592, Note_on_c, 0, 67, 75
1, 6607, Note_on_c, 0, 67, 0
1, 6608, Note_on_c, 0, 69, 75
1, 6609, Note_on_c, 1, 50, 0
1, 6617, Note_on_c, 1, 54, 0
1, 6623, Note_on_c, 0, 69, 0
1, 6624, Note_on_c, 0, 67, 75
1, 6624, Note_on_c, 1, 55, 75
1, 6713, Note_on_c, 1, 55, 0
1, 6720, Note_on_c, 1, 50, 75
1, 6801, Note_on_c, 0, 67, 0
1, 6809, Note_on_c, 1, 50, 0
1, 6816, Note_on_c, 1, 43, 75
1, 6905, Note_on_c, 1, 43, 0
1, 6912, Note_on_c, 0, 74, 75
1, 6912, Note_on_c, 1, 60, 91
1, 6912, Note_on_c, 1, 48, 91
1, 6930, Note_on_c, 0, 74, 0
1, 6930, Note_on_c, 0, 72, 75
1, 6948, Note_on_c, 0, 72, 0
1, 6948, Note_on_c, 0, 71, 75
1, 6966, Note_on_c, 0, 71, 0
1, 6966, Note_on_c, 0, 72, 75
1, 7001, Note_on_c, 0, 72, 0
1, 7008, Note_on_c, 0, 76, 75
1, 7008, Note_on_c, 1, 60, 0
1, 7008, Note_on_c, 1, 48, 0
1, 7038, Note_on_c, 0, 76, 0
1, 7040, Note_on_c, 0, 74, 75
1, 7070, Note_on_c, 0, 74, 0
1, 7072, Note_on_c, 0, 72, 75
1, 7102, Note_on_c, 0, 72, 0
1, 7104, Note_on_c, 0, 77, 75
1, 7134, Note_on_c, 0, 77, 0
1, 7136, Note_on_c, 0, 76, 75
1, 7166, Note_on_c, 0, 76, 0
1, 7168, Note_on_c, 0, 74, 75
1, 7198, Note_on_c, 0, 74, 0
1, 7200, Note_on_c, 0, 79, 75
1, 7200, Note_on_c, 1, 64, 75
1, 7289, Note_on_c, 0, 79, 0
1, 7289, Note_on_c, 1, 64, 0
1, 7296, Note_on_c, 0, 76, 75
1, 7296, Note_on_c, 1, 60, 75
1, 7385, Note_on_c, 0, 76, 0
1, 7385, Note_on_c, 1, 60, 0
1, 7392, Note_on_c, 0, 79, 75
1, 7392, Note_on_c, 1, 62, 75
1, 7392, Note_on_c, 1, 55, 75
1, 7415, Note_on_c, 0, 79, 0
1, 7416, Note_on_c, 0, 77, 75
1, 7439, Note_on_c, 0, 77, 0
1, 7440, Note_on_c, 0, 76, 75
1, 7463, Note_on_c, 0, 76, 0
1, 7464, Note_on_c, 0, 74, 75
1, 7481, Note_on_c, 1, 62, 0
1, 7481, Note_on_c, 1, 55, 0
1, 7487, Note_on_c, 0, 74, 0
1, 7488, Note_on_c, 0, 72, 75
1, 7488, Note_on_c, 1, 60, 75
1, 7577, Note_on_c, 0, 72, 0
1, 7577, Note_on_c, 1, 60, 0
1, 7584, Note_on_c, 0, 84, 75
1, 7584, Note_on_c, 1, 64, 75
1, 7673, Note_on_c, 0, 84, 0
1, 7673, Note_on_c, 1, 64, 0
1, 7680, Note_on_c, 0, 81, 75
1, 7680, Note_on_c, 1, 65, 75
1, 7769, Note_on_c, 0, 81, 0
1, 7769, Note_on_c, 1, 65, 0
1, 7776, Note_on_c, 0, 83, 75
1, 7776, Note_on_c, 1, 65, 75
1, 7776, Note_on_c, 1, 60, 64
1, 7791, Note_on_c, 0, 83, 0
1, 7792, Note_on_c, 0, 81, 75
1, 7807, Note_on_c, 0, 81, 0
1, 7808, Note_on_c, 0, 83, 75
1, 7823, Note_on_c, 0, 83, 0
1, 7824, Note_on_c, 0, 81, 75
1, 7839, Note_on_c, 0, 81, 0
1, 7840, Note_on_c, 0, 79, 75
1, 7855, Note_on_c, 0, 79, 0
1, 7856, Note_on_c, 0, 81, 75
1, 7865, Note_on_c, 1, 65, 0
1, 7871, Note_on_c, 0, 81, 0
1, 7872, Note_on_c, 0, 79, 75
1, 7872, Note_on_c, 1, 64, 75
1, 7953, Note_on_c, 1, 60, 0
1, 7961, Note_on_c, 0, 79, 0
1, 7961, Note_on_c, 1, 64, 0
1, 8064, Note_on_c, 1, 59, 75
1, 8094, Note_on_c, 1, 59, 0
1, 8096, Note_on_c, 1, 62, 75
1, 8126, Note_on_c, 1, 62, 0
1, 8128, Note_on_c, 1, 67, 75
1, 8158, Note_on_c, 1, 67, 0
1, 8160, Note_on_c, 1, 59, 75
1, 8192, Note_on_c, 0, 74, 75
1, 8222, Note_on_c, 0, 74, 0
1, 8224, Note_on_c, 0, 76, 75
1, 8249, Note_on_c, 1, 59, 0
1, 8254, Note_on_c, 0, 76, 0
1, 8256, Note_on_c, 0, 77, 75
1, 8286, Note_on_c, 0, 77, 0
1, 8288, Note_on_c, 0, 76, 75
1, 8318, Note_on_c, 0, 76, 0
1, 8320, Note_on_c, 0, 74, 75
1, 8350, Note_on_c, 0, 74, 0
1, 8352, Note_on_c, 0, 76, 75
1, 8352, Note_on_c, 1, 60, 75
1, 8382, Note_on_c, 1, 60, 0
1, 8384, Note_on_c, 1, 64, 75
1, 8414, Note_on_c, 1, 64, 0
1, 8416, Note_on_c, 1, 67, 75
1, 8441, Note_on_c, 0, 76, 0
1, 8446, Note_on_c, 1, 67, 0
1, 8448, Note_on_c, 1, 60, 75
1, 8480, Note_on_c, 0, 76, 75
1, 8510, Note_on_c, 0, 76, 0
1, 8512, Note_on_c, 0, 77, 75
1, 8537, Note_on_c, 1, 60, 0
1, 8542, Note_on_c, 0, 77, 0
1, 8544, Note_on_c, 0, 79, 75
1, 8574, Note_on_c, 0, 79, 0
1, 8576, Note_on_c, 0, 77, 75
1, 8606, Note_on_c, 0, 77, 0
1, 8608, Note_on_c, 0, 76, 75
1, 8638, Note_on_c, 0, 76, 0
1, 8640, Note_on_c, 0, 81, 75
1, 8640, Note_on_c, 1, 53, 75
1, 8670, Note_on_c, 1, 53, 0
1, 8672, Note_on_c, 1, 57, 75
1, 8702, Note_on_c, 1, 57, 0
1, 8704, Note_on_c, 1, 60, 75
1, 8729, Note_on_c, 0, 81, 0
1, 8734, Note_on_c, 1, 60, 0
1, 8736, Note_on_c, 1, 53, 75
1, 8768, Note_on_c, 0, 81, 75
1, 8798, Note_on_c, 0, 81, 0
1, 8800, Note_on_c, 0, 83, 75
1, 8825, Note_on_c, 1, 53, 0
1, 8830, Note_on_c, 0, 83, 0
1, 8832, Note_on_c, 0, 84, 75
1, 8862, Note_on_c, 0, 84, 0
1, 8864, Note_on_c, 0, 83, 75
1, 8894, Note_on_c, 0, 83, 0
1, 8896, Note_on_c, 0, 81, 75
1, 8926, Note_on_c, 0, 81, 0
1, 8928, Note_on_c, 0, 79, 75
1, 8928, Note_on_c, 1, 52, 75
1, 8958, Note_on_c, 1, 52, 0
1, 8960, Note_on_c, 1, 55, 75
1, 8990, Note_on_c, 1, 55, 0
1, 8992, Note_on_c, 1, 60, 75
1, 9017, Note_on_c, 0, 79, 0
1, 9022, Note_on_c, 1, 60, 0
1, 9024, Note_on_c, 0, 84, 75
1, 9024, Note_on_c, 1, 52, 75
1, 9054, Note_on_c, 0, 84, 0
1, 9056, Note_on_c, 0, 83, 75
1, 9086, Note_on_c, 0, 83, 0
1, 9088, Note_on_c, 0, 81, 75
1, 9113, Note_on_c, 1, 52, 0
1, 9118, Note_on_c, 0, 81, 0
1, 9120, Note_on_c, 0, 79, 75
1, 9150, Note_on_c, 0, 79, 0
1, 9152, Note_on_c, 0, 77, 75
1, 9182, Note_on_c, 0, 77, 0
1, 9184, Note_on_c, 0, 76, 75
1, 9214, Note_on_c, 0, 76, 0
1, 9216, Note_on_c, 0, 74, 75
1, 9216, Note_on_c, 1, 65, 75
1, 9216, Note_on_c, 1, 53, 64
1, 9246, Note_on_c, 0, 74, 0
1, 9248, Note_on_c, 0, 77, 75
1, 9278, Note_on_c, 0, 77, 0
1, 9280, Note_on_c, 0, 81, 75
1, 9305, Note_on_c, 1, 65, 0
1, 9305, Note_on_c, 1, 53, 0
1, 9310, Note_on_c, 0, 81, 0
1, 9312, Note_on_c, 0, 72, 75
1, 9312, Note_on_c, 1, 64, 75
1, 9312, Note_on_c, 1, 55, 64
1, 9401, Note_on_c, 0, 72, 0
1, 9401, Note_on_c, 1, 64, 0
1, 9408, Note_on_c, 0, 72, 75
1, 9408, Note_on_c, 1, 62, 75
1, 9423, Note_on_c, 0, 72, 0
1, 9424, Note_on_c, 0, 71, 75
1, 9439, Note_on_c, 0, 71, 0
1, 9440, Note_on_c, 0, 72, 75
1, 9455, Note_on_c, 0, 72, 0
1, 9456, Note_on_c, 0, 71, 75
1, 9471, Note_on_c, 0, 71, 0
1, 9472, Note_on_c, 0, 69, 75
1, 9487, Note_on_c, 0, 69, 0
1, 9488, Note_on_c, 0, 71, 75
1, 9489, Note_on_c, 1, 55, 0
1, 9497, Note_on_c, 1, 62, 0
1, 9503, Note_on_c, 0, 71, 0
1, 9504, Note_on_c, 0, 72, 75
1, 9504, Note_on_c, 1, 60, 75
1, 9593, Note_on_c, 1, 60, 0
1, 9600, Note_on_c, 1, 55, 75
1, 9681, Note_on_c, 0, 72, 0
1, 9689, Note_on_c, 1, 55, 0
1, 9696, Note_on_c, 1, 48, 75
1, 9785, Note_on_c, 1, 48, 0
1, 9792, Note_on_c, 0, 76, 75
1, 9792, Note_on_c, 1, 48, 75
1, 9837, Note_on_c, 0, 76, 0
1, 9840, Note_on_c, 0, 84, 75
1, 9881, Note_on_c, 1, 48, 0
1, 9885, Note_on_c, 0, 84, 0
1, 9888, Note_on_c, 0, 76, 75
1, 9918, Note_on_c, 0, 76, 0
1, 9920, Note_on_c, 0, 78, 75
1, 9950, Note_on_c, 0, 78, 0
1, 9952, Note_on_c, 0, 79, 75
1, 9982, Note_on_c, 0, 79, 0
1, 9984, Note_on_c, 0, 78, 75
1, 9984, Note_on_c, 1, 48, 75
1, 10014, Note_on_c, 0, 78, 0
1, 10016, Note_on_c, 0, 79, 75
1, 10046, Note_on_c, 0, 79, 0
1, 10048, Note_on_c, 0, 81, 75
1, 10073, Note_on_c, 1, 48, 0
1, 10078, Note_on_c, 0, 81, 0
1, 10080, Note_on_c, 0, 79, 75
1, 10080, Note_on_c, 1, 47, 75
1, 10125, Note_on_c, 0, 79, 0
1, 10128, Note_on_c, 0, 83, 75
1, 10173, Note_on_c, 0, 83, 0
1, 10176, Note_on_c, 0, 74, 75
1, 10213, Note_on_c, 1, 47, 0
1, 10224, Note_on_c, 1, 59, 75
1, 10265, Note_on_c, 0, 74, 0
1, 10269, Note_on_c, 1, 59, 0
1, 10272, Note_on_c, 1, 57, 75
1, 10317, Note_on_c, 1, 57, 0
1, 10320, Note_on_c, 1, 55, 75
1, 10365, Note_on_c, 1, 55, 0
1, 10368, Note_on_c, 0, 72, 75
1, 10368, Note_on_c, 1, 57, 75
1, 10413, Note_on_c, 0, 72, 0
1, 10416, Note_on_c, 0, 81, 75
1, 10457, Note_on_c, 1, 57, 0
1, 10461, Note_on_c, 0, 81, 0
1, 10464, Note_on_c, 0, 69, 75
1, 10464, Note_on_c, 1, 54, 75
1, 10494, Note_on_c, 0, 69, 0
1, 10496, Note_on_c, 0, 71, 75
1, 10526, Note_on_c, 0, 71, 0
1, 10528, Note_on_c, 0, 72, 75
1, 10553, Note_on_c, 1, 54, 0
1, 10558, Note_on_c, 0, 72, 0
1, 10560, Note_on_c, 0, 71, 75
1, 10560, Note_on_c, 1, 55, 75
1, 10590, Note_on_c, 0, 71, 0
1, 10592, Note_on_c, 0, 72, 75
1, 10622, Note_on_c, 0, 72, 0
1, 10624, Note_on_c, 0, 74, 75
1, 10649, Note_on_c, 1, 55, 0
1, 10654, Note_on_c, 0, 74, 0
1, 10656, Note_on_c, 0, 74, 75
1, 10656, Note_on_c, 1, 57, 75
1, 10745, Note_on_c, 0, 74, 0
1, 10745, Note_on_c, 1, 57, 0
1, 10752, Note_on_c, 0, 74, 75
1, 10752, Note_on_c, 1, 50, 75
1, 10767, Note_on_c, 0, 74, 0
1, 10768, Note_on_c, 0, 72, 75
1, 10783, Note_on_c, 0, 72, 0
1, 10784, Note_on_c, 0, 74, 75
1, 10799, Note_on_c, 0, 74, 0
1, 10800, Note_on_c, 0, 72, 75
1, 10815, Note_on_c, 0, 72, 0
1, 10816, Note_on_c, 0, 71, 75
1, 10831, Note_on_c, 0, 71, 0
1, 10832, Note_on_c, 0, 72, 75
1, 10841, Note_on_c, 1, 50, 0
1, 10847, Note_on_c, 0, 72, 0
1, 10848, Note_on_c, 0, 71, 75
1, 10848, Note_on_c, 1, 55, 75
1, 10937, Note_on_c, 0, 71, 0
1, 10937, Note_on_c, 1, 55, 0
1, 10944, Note_on_c, 1, 48, 75
1, 10974, Note_on_c, 1, 48, 0
1, 10976, Note_on_c, 1, 52, 75
1, 11006, Note_on_c, 1, 52, 0
1, 11008, Note_on_c, 1, 55, 75
1, 11038, Note_on_c, 1, 55, 0
1, 11040, Note_on_c, 1, 48, 75
1, 11072, Note_on_c, 0, 76, 75
1, 11102, Note_on_c, 0, 76, 0
1, 11104, Note_on_c, 0, 78, 75
1, 11129, Note_on_c, 1, 48, 0
1, 11134, Note_on_c, 0, 78, 0
1, 11136, Note_on_c, 0, 79, 75
1, 11166, Note_on_c, 0, 79, 0
1, 11168, Note_on_c, 0, 78, 75
1, 11198, Note_on_c, 0, 78, 0
1, 11200, Note_on_c, 0, 76, 75
1, 11230, Note_on_c, 0, 76, 0
1, 11232, Note_on_c, 0, 74, 75
1, 11232, Note_on_c, 1, 47, 75
1, 11262, Note_on_c, 1, 47, 0
1, 11264, Note_on_c, 1, 50, 75
1, 11294, Note_on_c, 1, 50, 0
1, 11296, Note_on_c, 1, 55, 75
1, 11321, Note_on_c, 0, 74, 0
1, 11326, Note_on_c, 1, 55, 0
1, 11328, Note_on_c, 1, 47, 75
1, 11360, Note_on_c, 0, 78, 75
1, 11390, Note_on_c, 0, 78, 0
1, 11392, Note_on_c, 0, 79, 75
1, 11417, Note_on_c, 1, 47, 0
1, 11422, Note_on_c, 0, 79, 0
1, 11424, Note_on_c, 0, 81, 75
1, 11454, Note_on_c, 0, 81, 0
1, 11456, Note_on_c, 0, 78, 75
1, 11486, Note_on_c, 0, 78, 0
1, 11488, Note_on_c, 0, 79, 75
1, 11518, Note_on_c, 0, 79, 0
1, 11520, Note_on_c, 0, 76, 75
1, 11520, Note_on_c, 1, 55, 75
1, 11520, Note_on_c, 1, 48, 64
1, 11550, Note_on_c, 0, 76, 0
1, 11552, Note_on_c, 0, 74, 75
1, 11582, Note_on_c, 0, 74, 0
1, 11584, Note_on_c, 0, 72, 75
1, 11609, Note_on_c, 1, 55, 0
1, 11609, Note_on_c, 1, 48, 0
1, 11614, Note_on_c, 0, 72, 0
1, 11616, Note_on_c, 0, 71, 75
1, 11616, Note_on_c, 1, 55, 75
1, 11616, Note_on_c, 1, 50, 64
1, 11705, Note_on_c, 0, 71, 0
1, 11705, Note_on_c, 1, 55, 0
1, 11712, Note_on_c, 0, 71, 75
1, 11712, Note_on_c, 1, 54, 75
1, 11727, Note_on_c, 0, 71, 0
1, 11728, Note_on_c, 0, 69, 75
1, 11743, Note_on_c, 0, 69, 0
1, 11744, Note_on_c, 0, 71, 75
1, 11759, Note_on_c, 0, 71, 0
1, 11760, Note_on_c, 0, 69, 75
1, 11775, Note_on_c, 0, 69, 0
1, 11776, Note_on_c, 0, 67, 75
1, 11791, Note_on_c, 0, 67, 0
1, 11792, Note_on_c, 0, 69, 75
1, 11793, Note_on_c, 1, 50, 0
1, 11801, Note_on_c, 1, 54, 0
1, 11807, Note_on_c, 0, 69, 0
1, 11808, Note_on_c, 0, 67, 75
1, 11808, Note_on_c, 1, 55, 75
1, 11897, Note_on_c, 1, 55, 0
1, 11904, Note_on_c, 1, 50, 75
1, 11985, Note_on_c, 0, 67, 0
1, 11993, Note_on_c, 1, 50, 0
1, 12000, Note_on_c, 1, 43, 75
1, 12089, Note_on_c, 1, 43, 0
1, 12096, Note_on_c, 0, 74, 75
1, 12096, Note_on_c, 1, 60, 91
1, 12096, Note_on_c, 1, 48, 91
1, 12114, Note_on_c, 0, 74, 0
1, 12114, Note_on_c, 0, 72, 75
1, 12132, Note_on_c, 0, 72, 0
1, 12132, Note_on_c, 0, 71, 75
1, 12150, Note_on_c, 0, 71, 0
1, 12150, Note_on_c, 0, 72, 75
1, 12185, Note_on_c, 0, 72, 0
1, 12192, Note_on_c, 0, 76, 75
1, 12192, Note_on_c, 1, 60, 0
1, 12192, Note_on_c, 1, 48, 0
1, 12222, Note_on_c, 0, 76, 0
1, 12224, Note_on_c, 0, 74, 75
1, 12254, Note_on_c, 0, 74, 0
1, 12256, Note_on_c, 0, 72, 75
1, 12286, Note_on_c, 0, 72, 0
1, 12288, Note_on_c, 0, 77, 75
1, 12318, Note_on_c, 0, 77, 0
1, 12320, Note_on_c, 0, 76, 75
1, 12350, Note_on_c, 0, 76, 0
1, 12352, Note_on_c, 0, 74, 75
1, 12382, Note_on_c, 0, 74, 0
1, 12384, Note_on_c, 0, 79, 75
1, 12384, Note_on_c, 1, 64, 75
1, 12473, Note_on_c, 0, 79, 0
1, 12473, Note_on_c, 1, 64, 0
1, 12480, Note_on_c, 0, 76, 75
1, 12480, Note_on_c, 1, 60, 75
1, 12569, Note_on_c, 0, 76, 0
1, 12569, Note_on_c, 1, 60, 0
1, 12576, Note_on_c, 0, 79, 75
1, 12576, Note_on_c, 1, 62, 75
1, 12576, Note_on_c, 1, 55, 75
1, 12599, Note_on_c, 0, 79, 0
1, 12600, Note_on_c, 0, 77, 75
1, 12623, Note_on_c, 0, 77, 0
1, 12624, Note_on_c, 0, 76, 75
1, 12647, Note_on_c, 0, 76, 0
1, 12648, Note_on_c, 0, 74, 75
1, 12665, Note_on_c, 1, 62, 0
1, 12665, Note_on_c, 1, 55, 0
1, 12671, Note_on_c, 0, 74, 0
1, 12672, Note_on_c, 0, 72, 75
1, 12672, Note_on_c, 1, 60, 75
1, 12761, Note_on_c, 0, 72, 0
1, 12761, Note_on_c, 1, 60, 0
1, 12768, Note_on_c, 0, 84, 75
1, 12768, Note_on_c, 1, 64, 75
1, 12857, Note_on_c, 0, 84, 0
1, 12857, Note_on_c, 1, 64, 0
1, 12864, Note_on_c, 0, 81, 75
1, 12864, Note_on_c, 1, 65, 75
1, 12953, Note_on_c, 0, 81, 0
1, 12953, Note_on_c, 1, 65, 0
1, 12960, Note_on_c, 0, 83, 75
1, 12960, Note_on_c, 1, 65, 75
1, 12960, Note_on_c, 1, 60, 64
1, 12975, Note_on_c, 0, 83, 0
1, 12976, Note_on_c, 0, 81, 75
1, 12991, Note_on_c, 0, 81, 0
1, 12992, Note_on_c, 0, 83, 75
1, 13007, Note_on_c, 0, 83, 0
1, 13008, Note_on_c, 0, 81, 75
1, 13023, Note_on_c, 0, 81, 0
1, 13024, Note_on_c, 0, 79, 75
1, 13039, Note_on_c, 0, 79, 0
1, 13040, Note_on_c, 0, 81, 75
1, 13049, Note_on_c, 1, 65, 0
1, 13055, Note_on_c, 0, 81, 0
1, 13056, Note_on_c, 0, 79, 75
1, 13056, Note_on_c, 1, 64, 75
1, 13137, Note_on_c, 1, 60, 0
1, 13145, Note_on_c, 0, 79, 0
1, 13145, Note_on_c, 1, 64, 0
1, 13248, Note_on_c, 1, 59, 75
1, 13278, Note_on_c, 1, 59, 0
1, 13280, Note_on_c, 1, 62, 75
1, 13310, Note_on_c, 1, 62, 0
1, 13312, Note_on_c, 1, 67, 75
1, 13342, Note_on_c, 1, 67, 0
1, 13344, Note_on_c, 1, 59, 75
1, 13376, Note_on_c, 0, 74, 75
1, 13406, Note_on_c, 0, 74, 0
1, 13408, Note_on_c, 0, 76, 75
1, 13433, Note_on_c, 1, 59, 0
1, 13438, Note_on_c, 0, 76, 0
1, 13440, Note_on_c, 0, 77, 75
1, 13470, Note_on_c, 0, 77, 0
1, 13472, Note_on_c, 0, 76, 75
1, 13502, Note_on_c, 0, 76, 0
1, 13504, Note_on_c, 0, 74, 75
1, 13534, Note_on_c, 0, 74, 0
1, 13536, Note_on_c, 0, 76, 75
1, 13536, Note_on_c, 1, 60, 75
1, 13566, Note_on_c, 1, 60, 0
1, 13568, Note_on_c, 1, 64, 75
1, 13598, Note_on_c, 1, 64, 0
1, 13600, Note_on_c, 1, 67, 75
1, 13625, Note_on_c, 0, 76, 0
1, 13630, Note_on_c, 1, 67, 0
1, 13632, Note_on_c, 1, 60, 75
1, 13664, Note_on_c, 0, 76, 75
1, 13694, Note_on_c, 0, 76, 0
1, 13696, Note_on_c, 0, 77, 75
1, 13721, Note_on_c, 1, 60, 0
1, 13726, Note_on_c, 0, 77, 0
1, 13728, Note_on_c, 0, 79, 75
1, 13758, Note_on_c, 0, 79, 0
1, 13760, Note_on_c, 0, 77, 75
1, 13790, Note_on_c, 0, 77, 0
1, 13792, Note_on_c, 0, 76, 75
1, 13822, Note_on_c, 0, 76, 0
1, 13824, Note_on_c, 0, 81, 75
1, 13824, Note_on_c, 1, 53, 75
1, 13854, Note_on_c, 1, 53, 0
1, 13856, Note_on_c, 1, 57, 75
1, 13886, Note_on_c, 1, 57, 0
1, 13888, Note_on_c, 1, 60, 75
1, 13913, Note_on_c, 0, 81, 0
1, 13918, Note_on_c, 1, 60, 0
1, 13920, Note_on_c, 1, 53, 75
1, 13952, Note_on_c, 0, 81, 75
1, 13982, Note_on_c, 0, 81, 0
1, 13984, Note_on_c, 0, 83, 75
1, 14009, Note_on_c, 1, 53, 0
1, 14014, Note_on_c, 0, 83, 0
1, 14016, Note_on_c, 0, 84, 75
1, 14046, Note_on_c, 0, 84, 0
1, 14048, Note_on_c, 0, 83, 75
1, 14078, Note_on_c, 0, 83, 0
1, 14080, Note_on_c, 0, 81, 75
1, 14110, Note_on_c, 0, 81, 0
1, 14112, Note_on_c, 0, 79, 75
1, 14112, Note_on_c, 1, 52, 75
1, 14142, Note_on_c, 1, 52, 0
1, 14144, Note_on_c, 1, 55, 75
1, 14174, Note_on_c, 1, 55, 0
1, 14176, Note_on_c, 1, 60, 75
1, 14201, Note_on_c, 0, 79, 0
1, 14206, Note_on_c, 1, 60, 0
1, 14208, Note_on_c, 0, 84, 75
1, 14208, Note_on_c, 1, 52, 75
1, 14238, Note_on_c, 0, 84, 0
1, 14240, Note_on_c, 0, 83, 75
1, 14270, Note_on_c, 0, 83, 0
1, 14272, Note_on_c, 0, 81, 75
1, 14297, Note_on_c, 1, 52, 0
1, 14302, Note_on_c, 0, 81, 0
1, 14304, Note_on_c, 0, 79, 75
1, 14334, Note_on_c, 0, 79, 0
1, 14336, Note_on_c, 0, 77, 75
1, 14366, Note_on_c, 0, 77, 0
1, 14368, Note_on_c, 0, 76, 75
1, 14398, Note_on_c, 0, 76, 0
1, 14400, Note_on_c, 0, 74, 75
1, 14400, Note_on_c, 1, 65, 75
1, 14400, Note_on_c, 1, 53, 64
1, 14430, Note_on_c, 0, 74, 0
1, 14432, Note_on_c, 0, 77, 75
1, 14462, Note_on_c, 0, 77, 0
1, 14464, Note_on_c, 0, 81, 75
1, 14489, Note_on_c, 1, 65, 0
1, 14489, Note_on_c, 1, 53, 0
1, 14494, Note_on_c, 0, 81, 0
1, 14496, Note_on_c, 0, 72, 75
1, 14496, Note_on_c, 1, 64, 75
1, 14496, Note_on_c, 1, 55, 64
1, 14585, Note_on_c, 0, 72, 0
1, 14585, Note_on_c, 1, 64, 0
1, 14592, Note_on_c, 0, 72, 75
1, 14592, Note_on_c, 1, 62, 75
1, 14607, Note_on_c, 0, 72, 0
1, 14608, Note_on_c, 0, 71, 75
1, 14623, Note_on_c, 0, 71, 0
1, 14624, Note_on_c, 0, 72, 75
1, 14639, Note_on_c, 0, 72, 0
1, 14640, Note_on_c, 0, 71, 75
1, 14655, Note_on_c, 0, 71, 0
1, 14656, Note_on_c, 0, 69, 75
1, 14671, Note_on_c, 0, 69, 0
1, 14672, Note_on_c, 0, 71, 75
1, 14673, Note_on_c, 1, 55, 0
1, 14681, Note_on_c, 1, 62, 0
1, 14687, Note_on_c, 0, 71, 0
1, 14688, Note_on_c, 0, 72, 75
1, 14688, Note_on_c, 1, 60, 75
1, 14777, Note_on_c, 1, 60, 0
1, 14784, Note_on_c, 1, 55, 75
1, 14865, Note_on_c, 0, 72, 0
1, 14873, Note_on_c, 1, 55, 0
1, 14880, Note_on_c, 1, 48, 75
1, 14969, Note_on_c, 1, 48, 0
1, 14976, Note_on_c, 1, 48, 64
1, 15024, Note_on_c, 0, 67, 67
1, 15069, Note_on_c, 0, 67, 0
1, 15072, Note_on_c, 0, 63, 67
1, 15117, Note_on_c, 0, 63, 0
1, 15120, Note_on_c, 0, 68, 67
1, 15165, Note_on_c, 0, 68, 0
1, 15168, Note_on_c, 0, 65, 67
1, 15168, Note_on_c, 1, 56, 67
1, 15213, Note_on_c, 0, 65, 0
1, 15216, Note_on_c, 0, 63, 67
1, 15241, Note_on_c, 1, 48, 0
1, 15261, Note_on_c, 0, 63, 0
1, 15264, Note_on_c, 0, 62, 67
1, 15264, Note_on_c, 1, 46, 64
1, 15309, Note_on_c, 0, 62, 0
1, 15312, Note_on_c, 0, 65, 67
1, 15353, Note_on_c, 1, 56, 0
1, 15357, Note_on_c, 0, 65, 0
1, 15360, Note_on_c, 0, 62, 67
1, 15360, Note_on_c, 1, 55, 67
1, 15405, Note_on_c, 0, 62, 0
1, 15408, Note_on_c, 0, 67, 67
1, 15441, Note_on_c, 1, 46, 0
1, 15453, Note_on_c, 0, 67, 0
1, 15456, Note_on_c, 0, 63, 67
1, 15456, Note_on_c, 1, 43, 64
1, 15501, Note_on_c, 0, 63, 0
1, 15504, Note_on_c, 0, 62, 67
1, 15545, Note_on_c, 1, 43, 0
1, 15549, Note_on_c, 0, 62, 0
1, 15552, Note_on_c, 0, 60, 67
1, 15552, Note_on_c, 1, 44, 64
1, 15597, Note_on_c, 0, 60, 0
1, 15600, Note_on_c, 0, 63, 67
1, 15641, Note_on_c, 1, 55, 0
1, 15645, Note_on_c, 0, 63, 0
1, 15648, Note_on_c, 0, 60, 67
1, 15648, Note_on_c, 1, 53, 67
1, 15693, Note_on_c, 0, 60, 0
1, 15696, Note_on_c, 0, 65, 67
1, 15737, Note_on_c, 1, 53, 0
1, 15741, Note_on_c, 0, 65, 0
1, 15744, Note_on_c, 0, 62, 67
1, 15744, Note_on_c, 1, 54, 67
1, 15789, Note_on_c, 0, 62, 0
1, 15792, Note_on_c, 0, 60, 67
1, 15817, Note_on_c, 1, 44, 0
1, 15833, Note_on_c, 1, 54, 0
1, 15837, Note_on_c, 0, 60, 0
1, 15840, Note_on_c, 0, 62, 67
1, 15840, Note_on_c, 1, 55, 67
1, 15840, Note_on_c, 1, 43, 64
1, 15855, Note_on_c, 0, 62, 0
1, 15856, Note_on_c, 0, 60, 67
1, 15871, Note_on_c, 0, 60, 0
1, 15872, Note_on_c, 0, 62, 67
1, 15887, Note_on_c, 0, 62, 0
1, 15888, Note_on_c, 0, 60, 67
1, 15903, Note_on_c, 0, 60, 0
1, 15904, Note_on_c, 0, 59, 67
1, 15919, Note_on_c, 0, 59, 0
1, 15920, Note_on_c, 0, 60, 67
1, 15935, Note_on_c, 0, 60, 0
1, 15936, Note_on_c, 0, 59, 67
1, 15973, Note_on_c, 1, 55, 0
1, 15973, Note_on_c, 1, 43, 0
1, 15984, Note_on_c, 1, 53, 67
1, 16025, Note_on_c, 0, 59, 0
1, 16029, Note_on_c, 1, 53, 0
1, 16032, Note_on_c, 1, 51, 67
1, 16077, Note_on_c, 1, 51, 0
1, 16080, Note_on_c, 1, 50, 67
1, 16125, Note_on_c, 1, 50, 0
1, 16128, Note_on_c, 1, 48, 64
1, 16176, Note_on_c, 0, 67, 67
1, 16221, Note_on_c, 0, 67, 0
1, 16224, Note_on_c, 0, 63, 67
1, 16269, Note_on_c, 0, 63, 0
1, 16272, Note_on_c, 0, 68, 67
1, 16317, Note_on_c, 0, 68, 0
1, 16320, Note_on_c, 0, 65, 67
1, 16320, Note_on_c, 1, 56, 67
1, 16365, Note_on_c, 0, 65, 0
1, 16368, Note_on_c, 0, 63, 67
1, 16393, Note_on_c, 1, 48, 0
1, 16413, Note_on_c, 0, 63, 0
1, 16416, Note_on_c, 0, 62, 67
1, 16416, Note_on_c, 1, 46, 64
1, 16461, Note_on_c, 0, 62, 0
1, 16464, Note_on_c, 0, 65, 67
1, 16505, Note_on_c, 1, 56, 0
1, 16509, Note_on_c, 0, 65, 0
1, 16512, Note_on_c, 0, 62, 68
1, 16512, Note_on_c, 1, 53, 67
1, 16557, Note_on_c, 0, 62, 0
1, 16560, Note_on_c, 0, 72, 69
1, 16601, Note_on_c, 1, 53, 0
1, 16605, Note_on_c, 0, 72, 0
1, 16608, Note_on_c, 0, 70, 70
1, 16608, Note_on_c, 1, 50, 69
1, 16653, Note_on_c, 0, 70, 0
1, 16656, Note_on_c, 0, 68, 71
1, 16681, Note_on_c, 1, 46, 0
1, 16697, Note_on_c, 1, 50, 0
1, 16701, Note_on_c, 0, 68, 0
1, 16704, Note_on_c, 0, 67, 72
1, 16704, Note_on_c, 1, 51, 72
1, 16749, Note_on_c, 0, 67, 0
1, 16752, Note_on_c, 0, 75, 73
1, 16793, Note_on_c, 1, 51, 0
1, 16797, Note_on_c, 0, 75, 0
1, 16800, Note_on_c, 1, 55, 75
1, 16848, Note_on_c, 0, 63, 75
1, 16889, Note_on_c, 1, 55, 0
1, 16893, Note_on_c, 0, 63, 0
1, 16896, Note_on_c, 0, 65, 75
1, 16896, Note_on_c, 1, 58, 75
1, 16941, Note_on_c, 0, 65, 0
1, 16944, Note_on_c, 0, 62, 75
1, 16985, Note_on_c, 1, 58, 0
1, 16989, Note_on_c, 0, 62, 0
1, 16992, Note_on_c, 0, 65, 75
1, 16992, Note_on_c, 1, 51, 75
1, 17007, Note_on_c, 0, 65, 0
1, 17008, Note_on_c, 0, 63, 75
1, 17023, Note_on_c, 0, 63, 0
1, 17024, Note_on_c, 0, 65, 75
1, 17039, Note_on_c, 0, 65, 0
1, 17040, Note_on_c, 0, 63, 75
1, 17081, Note_on_c, 1, 51, 0
1, 17087, Note_on_c, 0, 63, 0
1, 17088, Note_on_c, 1, 55, 75
1, 17133, Note_on_c, 1, 55, 0
1, 17136, Note_on_c, 1, 53, 73
1, 17181, Note_on_c, 1, 53, 0
1, 17184, Note_on_c, 1, 51, 71
1, 17229, Note_on_c, 1, 51, 0
1, 17232, Note_on_c, 1, 50, 69
1, 17277, Note_on_c, 1, 50, 0
1, 17280, Note_on_c, 1, 48, 64
1, 17328, Note_on_c, 0, 67, 67
1, 17373, Note_on_c, 0, 67, 0
1, 17376, Note_on_c, 0, 63, 67
1, 17421, Note_on_c, 0, 63, 0
1, 17424, Note_on_c, 0, 68, 67
1, 17469, Note_on_c, 0, 68, 0
1, 17472, Note_on_c, 0, 65, 67
1, 17472, Note_on_c, 1, 56, 67
1, 17517, Note_on_c, 0, 65, 0
1, 17520, Note_on_c, 0, 63, 67
1, 17545, Note_on_c, 1, 48, 0
1, 17565, Note_on_c, 0, 63, 0
1, 17568, Note_on_c, 0, 62, 67
1, 17568, Note_on_c, 1, 46, 64
1, 17613, Note_on_c, 0, 62, 0
1, 17616, Note_on_c, 0, 65, 67
1, 17657, Note_on_c, 1, 56, 0
1, 17661, Note_on_c, 0, 65, 0
1, 17664, Note_on_c, 0, 62, 67
1, 17664, Note_on_c, 1, 55, 67
1, 17709, Note_on_c, 0, 62, 0
1, 17712, Note_on_c, 0, 67, 67
1, 17745, Note_on_c, 1, 46, 0
1, 17757, Note_on_c, 0, 67, 0
1, 17760, Note_on_c, 0, 63, 67
1, 17760, Note_on_c, 1, 43, 64
1, 17805, Note_on_c, 0, 63, 0
1, 17808, Note_on_c, 0, 62, 67
1, 17849, Note_on_c, 1, 43, 0
1, 17853, Note_on_c, 0, 62, 0
1, 17856, Note_on_c, 0, 60, 67
1, 17856, Note_on_c, 1, 44, 64
1, 17901, Note_on_c, 0, 60, 0
1, 17904, Note_on_c, 0, 63, 67
1, 17945, Note_on_c, 1, 55, 0
1, 17949, Note_on_c, 0, 63, 0
1, 17952, Note_on_c, 0, 60, 67
1, 17952, Note_on_c, 1, 53, 67
1, 17997, Note_on_c, 0, 60, 0
1, 18000, Note_on_c, 0, 65, 67
1, 18041, Note_on_c, 1, 53, 0
1, 18045, Note_on_c, 0, 65, 0
1, 18048, Note_on_c, 0, 62, 67
1, 18048, Note_on_c, 1, 54, 67
1, 18093, Note_on_c, 0, 62, 0
1, 18096, Note_on_c, 0, 60, 67
1, 18121, Note_on_c, 1, 44, 0
1, 18137, Note_on_c, 1, 54, 0
1, 18141, Note_on_c, 0, 60, 0
1, 18144, Note_on_c, 0, 62, 67
1, 18144, Note_on_c, 1, 55, 67
1, 18144, Note_on_c, 1, 43, 64
1, 18159, Note_on_c, 0, 62, 0
1, 18160, Note_on_c, 0, 60, 67
1, 18175, Note_on_c, 0, 60, 0
1, 18176, Note_on_c, 0, 62, 67
1, 18191, Note_on_c, 0, 62, 0
1, 18192, Note_on_c, 0, 60, 67
1, 18207, Note_on_c, 0, 60, 0
1, 18208, Note_on_c, 0, 59, 67
1, 18223, Note_on_c, 0, 59, 0
1, 18224, Note_on_c, 0, 60, 67
1, 18239, Note_on_c, 0, 60, 0
1, 18240, Note_on_c, 0, 59, 67
1, 18277, Note_on_c, 1, 55, 0
1, 18277, Note_on_c, 1, 43, 0
1, 18288, Note_on_c, 1, 53, 67
1, 18329, Note_on_c, 0, 59, 0
1, 18333, Note_on_c, 1, 53, 0
1, 18336, Note_on_c, 1, 51, 67
1, 18381, Note_on_c, 1, 51, 0
1, 18384, Note_on_c, 1, 50, 67
1, 18429, Note_on_c, 1, 50, 0
1, 18432, Note_on_c, 1, 48, 64
1, 18480, Note_on_c, 0, 67, 67
1, 18525, Note_on_c, 0, 67, 0
1, 18528, Note_on_c, 0, 63, 67
1, 18573, Note_on_c, 0, 63, 0
1, 18576, Note_on_c, 0, 68, 67
1, 18621, Note_on_c, 0, 68, 0
1, 18624, Note_on_c, 0, 65, 67
1, 18624, Note_on_c, 1, 56, 67
1, 18669, Note_on_c, 0, 65, 0
1, 18672, Note_on_c, 0, 63, 67
1, 18697, Note_on_c, 1, 48, 0
1, 18717, Note_on_c, 0, 63, 0
1, 18720, Note_on_c, 0, 62, 67
1, 18720, Note_on_c, 1, 46, 64
1, 18765, Note_on_c, 0, 62, 0
1, 18768, Note_on_c, 0, 65, 67
1, 18809, Note_on_c, 1, 56, 0
1, 18813, Note_on_c, 0, 65, 0
1, 18816, Note_on_c, 0, 62, 68
1, 18816, Note_on_c, 1, 53, 67
1, 18861, Note_on_c, 0, 62, 0
1, 18864, Note_on_c, 0, 72, 69
1, 18905, Note_on_c, 1, 53, 0
1, 18909, Note_on_c, 0, 72, 0
1, 18912, Note_on_c, 0, 70, 70
1, 18912, Note_on_c, 1, 50, 69
1, 18957, Note_on_c, 0, 70, 0
1, 18960, Note_on_c, 0, 68, 71
1, 18985, Note_on_c, 1, 46, 0
1, 19001, Note_on_c, 1, 50, 0
1, 19005, Note_on_c, 0, 68, 0
1, 19008, Note_on_c, 0, 67, 72
1, 19008, Note_on_c, 1, 51, 72
1, 19053, Note_on_c, 0, 67, 0
1, 19056, Note_on_c, 0, 75, 73
1, 19097, Note_on_c, 1, 51, 0
1, 19101, Note_on_c, 0, 75, 0
1, 19104, Note_on_c, 1, 55, 75
1, 19152, Note_on_c, 0, 63, 75
1, 19193, Note_on_c, 1, 55, 0
1, 19197, Note_on_c, 0, 63, 0
1, 19200, Note_on_c, 0, 65, 75
1, 19200, Note_on_c, 1, 58, 75
1, 19245, Note_on_c, 0, 65, 0
1, 19248, Note_on_c, 0, 62, 75
1, 19289, Note_on_c, 1, 58, 0
1, 19293, Note_on_c, 0, 62, 0
1, 19296, Note_on_c, 0, 65, 75
1, 19296, Note_on_c, 1, 51, 75
1, 19311, Note_on_c, 0, 65, 0
1, 19312, Note_on_c, 0, 63, 75
1, 19327, Note_on_c, 0, 63, 0
1, 19328, Note_on_c, 0, 65, 75
1, 19343, Note_on_c, 0, 65, 0
1, 19344, Note_on_c, 0, 63, 75
1, 19385, Note_on_c, 1, 51, 0
1, 19391, Note_on_c, 0, 63, 0
1, 19392, Note_on_c, 1, 55, 75
1, 19437, Note_on_c, 1, 55, 0
1, 19440, Note_on_c, 1, 53, 73
1, 19485, Note_on_c, 1, 53, 0
1, 19488, Note_on_c, 1, 51, 71
1, 19533, Note_on_c, 1, 51, 0
1, 19536, Note_on_c, 1, 50, 69
1, 19581, Note_on_c, 1, 50, 0
1, 19584, Note_on_c, 1, 51, 80
1, 19584, Note_on_c, 1, 39, 80
1, 19632, Note_on_c, 0, 70, 80
1, 19677, Note_on_c, 0, 70, 0
1, 19680, Note_on_c, 0, 67, 80
1, 19725, Note_on_c, 0, 67, 0
1, 19728, Note_on_c, 0, 72, 80
1, 19761, Note_on_c, 1, 51, 0
1, 19761, Note_on_c, 1, 39, 0
1, 19776, Note_on_c, 1, 52, 80
1, 19776, Note_on_c, 1, 40, 80
1, 19817, Note_on_c, 0, 72, 0
1, 19824, Note_on_c, 0, 70, 80
1, 19865, Note_on_c, 1, 52, 0
1, 19865, Note_on_c, 1, 40, 0
1, 19869, Note_on_c, 0, 70, 0
1, 19872, Note_on_c, 1, 53, 80
1, 19872, Note_on_c, 1, 41, 80
1, 19920, Note_on_c, 0, 68, 80
1, 19961, Note_on_c, 1, 53, 0
1, 19961, Note_on_c, 1, 41, 0
1, 19965, Note_on_c, 0, 68, 0
1, 19968, Note_on_c, 0, 65, 80
1, 19968, Note_on_c, 1, 50, 80
1, 20013, Note_on_c, 0, 65, 0
1, 20016, Note_on_c, 0, 70, 78
1, 20057, Note_on_c, 1, 50, 0
1, 20064, Note_on_c, 1, 46, 77
1, 20105, Note_on_c, 0, 70, 0
1, 20112, Note_on_c, 0, 68, 76
1, 20153, Note_on_c, 1, 46, 0
1, 20157, Note_on_c, 0, 68, 0
1, 20160, Note_on_c, 1, 51, 74
1, 20208, Note_on_c, 0, 67, 73
1, 20253, Note_on_c, 0, 67, 0
1, 20256, Note_on_c, 0, 65, 72
1, 20301, Note_on_c, 0, 65, 0
1, 20304, Note_on_c, 0, 63, 70
1, 20337, Note_on_c, 1, 51, 0
1, 20349, Note_on_c, 0, 63, 0
1, 20352, Note_on_c, 0, 62, 69
1, 20352, Note_on_c, 1, 53, 69
1, 20397, Note_on_c, 0, 62, 0
1, 20400, Note_on_c, 0, 60, 68
1, 20441, Note_on_c, 1, 53, 0
1, 20445, Note_on_c, 0, 60, 0
1, 20448, Note_on_c, 0, 59, 67
1, 20448, Note_on_c, 1, 55, 67
1, 20592, Note_on_c, 1, 55, 0
1, 20592, Note_on_c, 1, 56, 67
1, 20625, Note_on_c, 0, 59, 0
1, 20637, Note_on_c, 1, 56, 0
1, 20640, Note_on_c, 1, 55, 67
1, 20685, Note_on_c, 1, 55, 0
1, 20688, Note_on_c, 1, 53, 67
1, 20733, Note_on_c, 1, 53, 0
1, 20736, Note_on_c, 1, 51, 67
1, 20784, Note_on_c, 0, 72, 68
1, 20829, Note_on_c, 0, 72, 0
1, 20832, Note_on_c, 0, 60, 69
1, 20869, Note_on_c, 1, 51, 0
1, 20877, Note_on_c, 0, 60, 0
1, 20880, Note_on_c, 0, 68, 70
1, 20880, Note_on_c, 1, 53, 70
1, 20925, Note_on_c, 0, 68, 0
1, 20925, Note_on_c, 1, 53, 0
1, 20928, Note_on_c, 0, 67, 71
1, 20928, Note_on_c, 1, 51, 71
1, 20973, Note_on_c, 0, 67, 0
1, 20973, Note_on_c, 1, 51, 0
1, 20976, Note_on_c, 0, 65, 72
1, 20976, Note_on_c, 1, 50, 72
1, 21021, Note_on_c, 0, 65, 0
1, 21021, Note_on_c, 1, 50, 0
1, 21024, Note_on_c, 0, 63, 73
1, 21024, Note_on_c, 1, 48, 73
1, 21069, Note_on_c, 0, 63, 0
1, 21072, Note_on_c, 0, 72, 75
1, 21113, Note_on_c, 1, 48, 0
1, 21117, Note_on_c, 0, 72, 0
1, 21120, Note_on_c, 0, 60, 75
1, 21165, Note_on_c, 0, 60, 0
1, 21168, Note_on_c, 0, 65, 75
1, 21168, Note_on_c, 1, 56, 75
1, 21213, Note_on_c, 0, 65, 0
1, 21213, Note_on_c, 1, 56, 0
1, 21216, Note_on_c, 0, 63, 75
1, 21216, Note_on_c, 1, 55, 75
1, 21261, Note_on_c, 0, 63, 0
1, 21261, Note_on_c, 1, 55, 0
1, 21264, Note_on_c, 0, 62, 75
1, 21264, Note_on_c, 1, 53, 75
1, 21309, Note_on_c, 0, 62, 0
1, 21309, Note_on_c, 1, 53, 0
1, 21312, Note_on_c, 0, 60, 75
1, 21312, Note_on_c, 1, 51, 75
1, 21357, Note_on_c, 0, 60, 0
1, 21360, Note_on_c, 0, 72, 75
1, 21401, Note_on_c, 1, 51, 0
1, 21405, Note_on_c, 0, 72, 0
1, 21408, Note_on_c, 0, 60, 76
1, 21453, Note_on_c, 0, 60, 0
1, 21456, Note_on_c, 0, 70, 77
1, 21456, Note_on_c, 1, 55, 76
1, 21501, Note_on_c, 0, 70, 0
1, 21501, Note_on_c, 1, 55, 0
1, 21504, Note_on_c, 0, 68, 77
1, 21504, Note_on_c, 1, 53, 77
1, 21549, Note_on_c, 0, 68, 0
1, 21549, Note_on_c, 1, 53, 0
1, 21552, Note_on_c, 0, 67, 78
1, 21552, Note_on_c, 1, 52, 78
1, 21597, Note_on_c, 0, 67, 0
1, 21597, Note_on_c, 1, 52, 0
1, 21600, Note_on_c, 0, 68, 79
1, 21600, Note_on_c, 1, 53, 78
1, 21645, Note_on_c, 0, 68, 0
1, 21648, Note_on_c, 0, 72, 80
1, 21689, Note_on_c, 1, 53, 0
1, 21693, Note_on_c, 0, 72, 0
1, 21696, Note_on_c, 0, 65, 80
1, 21741, Note_on_c, 0, 65, 0
1, 21744, Note_on_c, 0, 68, 80
1, 21744, Note_on_c, 1, 53, 80
1, 21789, Note_on_c, 0, 68, 0
1, 21789, Note_on_c, 1, 53, 0
1, 21792, Note_on_c, 0, 67, 80
1, 21792, Note_on_c, 1, 51, 80
1, 21837, Note_on_c, 0, 67, 0
1, 21837, Note_on_c, 1, 51, 0
1, 21840, Note_on_c, 0, 65, 80
1, 21840, Note_on_c, 1, 50, 80
1, 21885, Note_on_c, 0, 65, 0
1, 21885, Note_on_c, 1, 50, 0
1, 21888, Note_on_c, 0, 67, 80
1, 21888, Note_on_c, 1, 51, 80
1, 21933, Note_on_c, 0, 67, 0
1, 21936, Note_on_c, 0, 72, 77
1, 21977, Note_on_c, 1, 51, 0
1, 21981, Note_on_c, 0, 72, 0
1, 21984, Note_on_c, 1, 53, 74
1, 22032, Note_on_c, 0, 68, 72
1, 22073, Note_on_c, 1, 53, 0
1, 22077, Note_on_c, 0, 68, 0
1, 22080, Note_on_c, 0, 67, 69
1, 22080, Note_on_c, 1, 55, 69
1, 22125, Note_on_c, 0, 67, 0
1, 22128, Note_on_c, 0, 59, 66
1, 22169, Note_on_c, 1, 55, 0
1, 22173, Note_on_c, 0, 59, 0
1, 22176, Note_on_c, 0, 59, 64
1, 22176, Note_on_c, 1, 48, 64
1, 22224, Note_on_c, 0, 59, 0
1, 22224, Note_on_c, 0, 60, 64
1, 22265, Note_on_c, 0, 60, 0
1, 22265, Note_on_c, 1, 48, 0
1, 22272, Note_on_c, 1, 43, 64
1, 22361, Note_on_c, 1, 43, 0
1, 22368, Note_on_c, 1, 36, 64
1, 22457, Note_on_c, 1, 36, 0
1, 22464, Note_on_c, 1, 51, 80
1, 22464, Note_on_c, 1, 39, 80
1, 22512, Note_on_c, 0, 70, 80
1, 22557, Note_on_c, 0, 70, 0
1, 22560, Note_on_c, 0, 67, 80
1, 22605, Note_on_c, 0, 67, 0
1, 22608, Note_on_c, 0, 72, 80
1, 22641, Note_on_c, 1, 51, 0
1, 22641, Note_on_c, 1, 39, 0
1, 22656, Note_on_c, 1, 52, 80
1, 22656, Note_on_c, 1, 40, 80
1, 22697, Note_on_c, 0, 72, 0
1, 22704, Note_on_c, 0, 70, 80
1, 22745, Note_on_c, 1, 52, 0
1, 22745, Note_on_c, 1, 40, 0
1, 22749, Note_on_c, 0, 70, 0
1, 22752, Note_on_c, 1, 53, 80
1, 22752, Note_on_c, 1, 41, 80
1, 22800, Note_on_c, 0, 68, 80
1, 22841, Note_on_c, 1, 53, 0
1, 22841, Note_on_c, 1, 41, 0
1, 22845, Note_on_c, 0, 68, 0
1, 22848, Note_on_c, 0, 65, 80
1, 22848, Note_on_c, 1, 50, 80
1, 22893, Note_on_c, 0, 65, 0
1, 22896, Note_on_c, 0, 70, 78
1, 22937, Note_on_c, 1, 50, 0
1, 22944, Note_on_c, 1, 46, 77
1, 22985, Note_on_c, 0, 70, 0
1, 22992, Note_on_c, 0, 68, 76
1, 23033, Note_on_c, 1, 46, 0
1, 23037, Note_on_c, 0, 68, 0
1, 23040, Note_on_c, 1, 51, 74
1, 23088, Note_on_c, 0, 67, 73
1, 23133, Note_on_c, 0, 67, 0
1, 23136, Note_on_c, 0, 65, 72
1, 23181, Note_on_c, 0, 65, 0
1, 23184, Note_on_c, 0, 63, 70
1, 23217, Note_on_c, 1, 51, 0
1, 23229, Note_on_c, 0, 63, 0
1, 23232, Note_on_c, 0, 62, 69
1, 23232, Note_on_c, 1, 53, 69
1, 23277, Note_on_c, 0, 62, 0
1, 23280, Note_on_c, 0, 60, 68
1, 23321, Note_on_c, 1, 53, 0
1, 23325, Note_on_c, 0, 60, 0
1, 23328, Note_on_c, 0, 59, 67
1, 23328, Note_on_c, 1, 55, 67
1, 23472, Note_on_c, 1, 55, 0
1, 23472, Note_on_c, 1, 56, 67
1, 23505, Note_on_c, 0, 59, 0
1, 23517, Note_on_c, 1, 56, 0
1, 23520, Note_on_c, 1, 55, 67
1, 23565, Note_on_c, 1, 55, 0
1, 23568, Note_on_c, 1, 53, 67
1, 23613, Note_on_c, 1, 53, 0
1, 23616, Note_on_c, 1, 51, 67
1, 23664, Note_on_c, 0, 72, 68
1, 23709, Note_on_c, 0, 72, 0
1, 23712, Note_on_c, 0, 60, 69
1, 23749, Note_on_c, 1, 51, 0
1, 23757, Note_on_c, 0, 60, 0
1, 23760, Note_on_c, 0, 68, 70
1, 23760, Note_on_c, 1, 53, 70
1, 23805, Note_on_c, 0, 68, 0
1, 23805, Note_on_c, 1, 53, 0
1, 23808, Note_on_c, 0, 67, 71
1, 23808, Note_on_c, 1, 51, 71
1, 23853, Note_on_c, 0, 67, 0
1, 23853, Note_on_c, 1, 51, 0
1, 23856, Note_on_c, 0, 65, 72
1, 23856, Note_on_c, 1, 50, 72
1, 23901, Note_on_c, 0, 65, 0
1, 23901, Note_on_c, 1, 50, 0
1, 23904, Note_on_c, 0, 63, 73
1, 23904, Note_on_c, 1, 48, 73
1, 23949, Note_on_c, 0, 63, 0
1, 23952, Note_on_c, 0, 72, 75
1, 23993, Note_on_c, 1, 48, 0
1, 23997, Note_on_c, 0, 72, 0
1, 24000, Note_on_c, 0, 60, 75
1, 24045, Note_on_c, 0, 60, 0
1, 24048, Note_on_c, 0, 65, 75
1, 24048, Note_on_c, 1, 56, 75
1, 24093, Note_on_c, 0, 65, 0
1, 24093, Note_on_c, 1, 56, 0
1, 24096, Note_on_c, 0, 63, 75
1, 24096, Note_on_c, 1, 55, 75
1, 24141, Note_on_c, 0, 63, 0
1, 24141, Note_on_c, 1, 55, 0
1, 24144, Note_on_c, 0, 62, 75
1, 24144, Note_on_c, 1, 53, 75
1, 24189, Note_on_c, 0, 62, 0
1, 24189, Note_on_c, 1, 53, 0
1, 24192, Note_on_c, 0, 60, 75
1, 24192, Note_on_c, 1, 51, 75
1, 24237, Note_on_c, 0, 60, 0
1, 24240, Note_on_c, 0, 72, 75
1, 24281, Note_on_c, 1, 51, 0
1, 24285, Note_on_c, 0, 72, 0
1, 24288, Note_on_c, 0, 60, 76
1, 24333, Note_on_c, 0, 60, 0
1, 24336, Note_on_c, 0, 70, 77
1, 24336, Note_on_c, 1, 55, 76
1, 24381, Note_on_c, 0, 70, 0
1, 24381, Note_on_c, 1, 55, 0
1, 24384, Note_on_c, 0, 68, 77
1, 24384, Note_on_c, 1, 53, 77
1, 24429, Note_on_c, 0, 68, 0
1, 24429, Note_on_c, 1, 53, 0
1, 24432, Note_on_c, 0, 67, 78
1, 24432, Note_on_c, 1, 52, 78
1, 24477, Note_on_c, 0, 67, 0
1, 24477, Note_on_c, 1, 52, 0
1, 24480, Note_on_c, 0, 68, 79
1, 24480, Note_on_c, 1, 53, 78
1, 24525, Note_on_c, 0, 68, 0
1, 24528, Note_on_c, 0, 72, 80
1, 24569, Note_on_c, 1, 53, 0
1, 24573, Note_on_c, 0, 72, 0
1, 24576, Note_on_c, 0, 65, 80
1, 24621, Note_on_c, 0, 65, 0
1, 24624, Note_on_c, 0, 68, 80
1, 24624, Note_on_c, 1, 53, 80
1, 24669, Note_on_c, 0, 68, 0
1, 24669, Note_on_c, 1, 53, 0
1, 24672, Note_on_c, 0, 67, 80
1, 24672, Note_on_c, 1, 51, 80
1, 24717, Note_on_c, 0, 67, 0
1, 24717, Note_on_c, 1, 51, 0
1, 24720, Note_on_c, 0, 65, 80
1, 24720, Note_on_c, 1, 50, 80
1, 24765, Note_on_c, 0, 65, 0
1, 24765, Note_on_c, 1, 50, 0
1, 24768, Note_on_c, 0, 67, 80
1, 24768, Note_on_c, 1, 51, 80
1, 24813, Note_on_c, 0, 67, 0
1, 24816, Note_on_c, 0, 72, 77
1, 24857, Note_on_c, 1, 51, 0
1, 24861, Note_on_c, 0, 72, 0
1, 24864, Note_on_c, 1, 53, 74
1, 24912, Note_on_c, 0, 68, 72
1, 24953, Note_on_c, 1, 53, 0
1, 24957, Note_on_c, 0, 68, 0
1, 24960, Note_on_c, 0, 67, 69
1, 24960, Note_on_c, 1, 55, 69
1, 25005, Note_on_c, 0, 67, 0
1, 25008, Note_on_c, 0, 59, 66
1, 25049, Note_on_c, 1, 55, 0
1, 25053, Note_on_c, 0, 59, 0
1, 25056, Note_on_c, 0, 59, 64
1, 25056, Note_on_c, 1, 48, 64
1, 25104, Note_on_c, 0, 59, 0
1, 25104, Note_on_c, 0, 60, 64
1, 25145, Note_on_c, 0, 60, 0
1, 25145, Note_on_c, 1, 48, 0
1, 25152, Note_on_c, 1, 43, 64
1, 25241, Note_on_c, 1, 43, 0
1, 25248, Note_on_c, 1, 36, 64
1, 25337, Note_on_c, 1, 36, 0
1, 25344, Note_on_c, 0, 74, 75
1, 25344, Note_on_c, 1, 60, 91
1, 25344, Note_on_c, 1, 48, 91
1, 25362, Note_on_c, 0, 74, 0
1, 25362, Note_on_c, 0, 72, 75
1, 25380, Note_on_c, 0, 72, 0
1, 25380, Note_on_c, 0, 71, 75
1, 25398, Note_on_c, 0, 71, 0
1, 25398, Note_on_c, 0, 72, 75
1, 25433, Note_on_c, 0, 72, 0
1, 25440, Note_on_c, 0, 76, 75
1, 25440, Note_on_c, 1, 60, 0
1, 25440, Note_on_c, 1, 48, 0
1, 25470, Note_on_c, 0, 76, 0
1, 25472, Note_on_c, 0, 74, 75
1, 25502, Note_on_c, 0, 74, 0
1, 25504, Note_on_c, 0, 72, 75
1, 25534, Note_on_c, 0, 72, 0
1, 25536, Note_on_c, 0, 77, 75
1, 25566, Note_on_c, 0, 77, 0
1, 25568, Note_on_c, 0, 76, 75
1, 25598, Note_on_c, 0, 76, 0
1, 25600, Note_on_c, 0, 74, 75
1, 25630, Note_on_c, 0, 74, 0
1, 25632, Note_on_c, 0, 79, 75
1, 25632, Note_on_c, 1, 64, 75
1, 25721, Note_on_c, 0, 79, 0
1, 25721, Note_on_c, 1, 64, 0
1, 25728, Note_on_c, 0, 76, 75
1, 25728, Note_on_c, 1, 60, 75
1, 25817, Note_on_c, 0, 76, 0
1, 25817, Note_on_c, 1, 60, 0
1, 25824, Note_on_c, 0, 79, 75
1, 25824, Note_on_c, 1, 62, 75
1, 25824, Note_on_c, 1, 55, 75
1, 25847, Note_on_c, 0, 79, 0
1, 25848, Note_on_c, 0, 77, 75
1, 25871, Note_on_c, 0, 77, 0
1, 25872, Note_on_c, 0, 76, 75
1, 25895, Note_on_c, 0, 76, 0
1, 25896, Note_on_c, 0, 74, 75
1, 25913, Note_on_c, 1, 62, 0
1, 25913, Note_on_c, 1, 55, 0
1, 25919, Note_on_c, 0, 74, 0
1, 25920, Note_on_c, 0, 72, 75
1, 25920, Note_on_c, 1, 60, 75
1, 26009, Note_on_c, 0, 72, 0
1, 26009, Note_on_c, 1, 60, 0
1, 26016, Note_on_c, 0, 84, 75
1, 26016, Note_on_c, 1, 64, 75
1, 26105, Note_on_c, 0, 84, 0
1, 26105, Note_on_c, 1, 64, 0
1, 26112, Note_on_c, 0, 81, 75
1, 26112, Note_on_c, 1, 65, 75
1, 26201, Note_on_c, 0, 81, 0
1, 26201, Note_on_c, 1, 65, 0
1, 26208, Note_on_c, 0, 83, 75
1, 26208, Note_on_c, 1, 65, 75
1, 26208, Note_on_c, 1, 60, 64
1, 26223, Note_on_c, 0, 83, 0
1, 26224, Note_on_c, 0, 81, 75
1, 26239, Note_on_c, 0, 81, 0
1, 26240, Note_on_c, 0, 83, 75
1, 26255, Note_on_c, 0, 83, 0
1, 26256, Note_on_c, 0, 81, 75
1, 26271, Note_on_c, 0, 81, 0
1, 26272, Note_on_c, 0, 79, 75
1, 26287, Note_on_c, 0, 79, 0
1, 26288, Note_on_c, 0, 81, 75
1, 26297, Note_on_c, 1, 65, 0
1, 26303, Note_on_c, 0, 81, 0
1, 26304, Note_on_c, 0, 79, 75
1, 26304, Note_on_c, 1, 64, 75
1, 26385, Note_on_c, 1, 60, 0
1, 26393, Note_on_c, 0, 79, 0
1, 26393, Note_on_c, 1, 64, 0
1, 26496, Note_on_c, 1, 59, 75
1, 26526, Note_on_c, 1, 59, 0
1, 26528, Note_on_c, 1, 62, 75
1, 26558, Note_on_c, 1, 62, 0
1, 26560, Note_on_c, 1, 67, 75
1, 26590, Note_on_c, 1, 67, 0
1, 26592, Note_on_c, 1, 59, 75
1, 26624, Note_on_c, 0, 74, 75
1, 26654, Note_on_c, 0, 74, 0
1, 26656, Note_on_c, 0, 76, 75
1, 26681, Note_on_c, 1, 59, 0
1, 26686, Note_on_c, 0, 76, 0
1, 26688, Note_on_c, 0, 77, 75
1, 26718, Note_on_c, 0, 77, 0
1, 26720, Note_on_c, 0, 76, 75
1, 26750, Note_on_c, 0, 76, 0
1, 26752, Note_on_c, 0, 74, 75
1, 26782, Note_on_c, 0, 74, 0
1, 26784, Note_on_c, 0, 76, 75
1, 26784, Note_on_c, 1, 60, 75
1, 26814, Note_on_c, 1, 60, 0
1, 26816, Note_on_c, 1, 64, 75
1, 26846, Note_on_c, 1, 64, 0
1, 26848, Note_on_c, 1, 67, 75
1, 26873, Note_on_c, 0, 76, 0
1, 26878, Note_on_c, 1, 67, 0
1, 26880, Note_on_c, 1, 60, 75
1, 26912, Note_on_c, 0, 76, 75
1, 26942, Note_on_c, 0, 76, 0
1, 26944, Note_on_c, 0, 77, 75
1, 26969, Note_on_c, 1, 60, 0
1, 26974, Note_on_c, 0, 77, 0
1, 26976, Note_on_c, 0, 79, 75
1, 27006, Note_on_c, 0, 79, 0
1, 27008, Note_on_c, 0, 77, 75
1, 27038, Note_on_c, 0, 77, 0
1, 27040, Note_on_c, 0, 76, 75
1, 27070, Note_on_c, 0, 76, 0
1, 27072, Note_on_c, 0, 74, 75
1, 27072, Note_on_c, 1, 65, 75
1, 27072, Note_on_c, 1, 53, 75
1, 27102, Note_on_c, 0, 74, 0
1, 27104, Note_on_c, 0, 76, 75
1, 27134, Note_on_c, 0, 76, 0
1, 27136, Note_on_c, 0, 77, 75
1, 27161, Note_on_c, 1, 65, 0
1, 27161, Note_on_c, 1, 53, 0
1, 27166, Note_on_c, 0, 77, 0
1, 27168, Note_on_c, 0, 72, 75
1, 27168, Note_on_c, 1, 64, 75
1, 27168, Note_on_c, 1, 55, 75
1, 27257, Note_on_c, 0, 72, 0
1, 27257, Note_on_c, 1, 64, 0
1, 27257, Note_on_c, 1, 55, 0
1, 27264, Note_on_c, 0, 72, 75
1, 27264, Note_on_c, 1, 62, 75
1, 27264, Note_on_c, 1, 55, 75
1, 27279, Note_on_c, 0, 72, 0
1, 27280, Note_on_c, 0, 71, 75
1, 27295, Note_on_c, 0, 71, 0
1, 27296, Note_on_c, 0, 72, 75
1, 27311, Note_on_c, 0, 72, 0
1, 27312, Note_on_c, 0, 71, 75
1, 27327, Note_on_c, 0, 71, 0
1, 27328, Note_on_c, 0, 69, 75
1, 27343, Note_on_c, 0, 69, 0
1, 27344, Note_on_c, 0, 71, 75
1, 27353, Note_on_c, 1, 62, 0
1, 27353, Note_on_c, 1, 55, 0
1, 27359, Note_on_c, 0, 71, 0
1, 27360, Note_on_c, 0, 72, 75
1, 27360, Note_on_c, 1, 60, 75
1, 27449, Note_on_c, 1, 60, 0
1, 27456, Note_on_c, 1, 55, 75
1, 27537, Note_on_c, 0, 72, 0
1, 27545, Note_on_c, 1, 55, 0
1, 27552, Note_on_c, 1, 48, 75
1, 27641, Note_on_c, 1, 48, 0
1, 27648, Note_on_c, 0, 74, 75
1, 27648, Note_on_c, 1, 60, 91
1, 27648, Note_on_c, 1, 48, 91
1, 27666, Note_on_c, 0, 74, 0
1, 27666, Note_on_c, 0, 72, 75
1, 27684, Note_on_c, 0, 72, 0
1, 27684, Note_on_c, 0, 71, 75
1, 27702, Note_on_c, 0, 71, 0
1, 27702, Note_on_c, 0, 72, 75
1, 27737, Note_on_c, 0, 72, 0
1, 27744, Note_on_c, 0, 76, 75
1, 27744, Note_on_c, 1, 60, 0
1, 27744, Note_on_c, 1, 48, 0
1, 27774, Note_on_c, 0, 76, 0
1, 27776, Note_on_c, 0, 74, 75
1, 27806, Note_on_c, 0, 74, 0
1, 27808, Note_on_c, 0, 72, 75
1, 27838, Note_on_c, 0, 72, 0
1, 27840, Note_on_c, 0, 77, 75
1, 27870, Note_on_c, 0, 77, 0
1, 27872, Note_on_c, 0, 76, 75
1, 27902, Note_on_c, 0, 76, 0
1, 27904, Note_on_c, 0, 74, 75
1, 27934, Note_on_c, 0, 74, 0
1, 27936, Note_on_c, 0, 79, 75
1, 27936, Note_on_c, 1, 64, 75
1, 28025, Note_on_c, 0, 79, 0
1, 28025, Note_on_c, 1, 64, 0
1, 28032, Note_on_c, 0, 76, 75
1, 28032, Note_on_c, 1, 60, 75
1, 28121, Note_on_c, 0, 76, 0
1, 28121, Note_on_c, 1, 60, 0
1, 28128, Note_on_c, 0, 79, 75
1, 28128, Note_on_c, 1, 62, 75
1, 28128, Note_on_c, 1, 55, 75
1, 28151, Note_on_c, 0, 79, 0
1, 28152, Note_on_c, 0, 77, 75
1, 28175, Note_on_c, 0, 77, 0
1, 28176, Note_on_c, 0, 76, 75
1, 28199, Note_on_c, 0, 76, 0
1, 28200, Note_on_c, 0, 74, 75
1, 28217, Note_on_c, 1, 62, 0
1, 28217, Note_on_c, 1, 55, 0
1, 28223, Note_on_c, 0, 74, 0
1, 28224, Note_on_c, 0, 72, 75
1, 28224, Note_on_c, 1, 60, 75
1, 28313, Note_on_c, 0, 72, 0
1, 28313, Note_on_c, 1, 60, 0
1, 28320, Note_on_c, 0, 84, 75
1, 28320, Note_on_c, 1, 64, 75
1, 28409, Note_on_c, 0, 84, 0
1, 28409, Note_on_c, 1, 64, 0
1, 28416, Note_on_c, 0, 81, 75
1, 28416, Note_on_c, 1, 65, 75
1, 28505, Note_on_c, 0, 81, 0
1, 28505, Note_on_c, 1, 65, 0
1, 28512, Note_on_c, 0, 83, 75
1, 28512, Note_on_c, 1, 65, 75
1, 28512, Note_on_c, 1, 60, 64
1, 28527, Note_on_c, 0, 83, 0
1, 28528, Note_on_c, 0, 81, 75
1, 28543, Note_on_c, 0, 81, 0
1, 28544, Note_on_c, 0, 83, 75
1, 28559, Note_on_c, 0, 83, 0
1, 28560, Note_on_c, 0, 81, 75
1, 28575, Note_on_c, 0, 81, 0
1, 28576, Note_on_c, 0, 79, 75
1, 28591, Note_on_c, 0, 79, 0
1, 28592, Note_on_c, 0, 81, 75
1, 28601, Note_on_c, 1, 65, 0
1, 28607, Note_on_c, 0, 81, 0
1, 28608, Note_on_c, 0, 79, 75
1, 28608, Note_on_c, 1, 64, 75
1, 28689, Note_on_c, 1, 60, 0
1, 28697, Note_on_c, 0, 79, 0
1, 28697, Note_on_c, 1, 64, 0
1, 28800, Note_on_c, 1, 59, 75
1, 28830, Note_on_c, 1, 59, 0
1, 28832, Note_on_c, 1, 62, 75
1, 28862, Note_on_c, 1, 62, 0
1, 28864, Note_on_c, 1, 67, 75
1, 28894, Note_on_c, 1, 67, 0
1, 28896, Note_on_c, 1, 59, 75
1, 28928, Note_on_c, 0, 74, 75
1, 28958, Note_on_c, 0, 74, 0
1, 28960, Note_on_c, 0, 76, 75
1, 28985, Note_on_c, 1, 59, 0
1, 28990, Note_on_c, 0, 76, 0
1, 28992, Note_on_c, 0, 77, 75
1, 29022, Note_on_c, 0, 77, 0
1, 29024, Note_on_c, 0, 76, 75
1, 29054, Note_on_c, 0, 76, 0
1, 29056, Note_on_c, 0, 74, 75
1, 29086, Note_on_c, 0, 74, 0
1, 29088, Note_on_c, 0, 76, 75
1, 29088, Note_on_c, 1, 60, 75
1, 29118, Note_on_c, 1, 60, 0
1, 29120, Note_on_c, 1, 64, 75
1, 29150, Note_on_c, 1, 64, 0
1, 29152, Note_on_c, 1, 67, 75
1, 29177, Note_on_c, 0, 76, 0
1, 29182, Note_on_c, 1, 67, 0
1, 29184, Note_on_c, 1, 60, 75
1, 29216, Note_on_c, 0, 76, 75
1, 29246, Note_on_c, 0, 76, 0
1, 29248, Note_on_c, 0, 77, 75
1, 29273, Note_on_c, 1, 60, 0
1, 29278, Note_on_c, 0, 77, 0
1, 29280, Note_on_c, 0, 79, 75
1, 29310, Note_on_c, 0, 79, 0
1, 29312, Note_on_c, 0, 77, 75
1, 29342, Note_on_c, 0, 77, 0
1, 29344, Note_on_c, 0, 76, 75
1, 29374, Note_on_c, 0, 76, 0
1, 29376, Note_on_c, 0, 74, 75
1, 29376, Note_on_c, 1, 65, 75
1, 29376, Note_on_c, 1, 53, 75
1, 29406, Note_on_c, 0, 74, 0
1, 29408, Note_on_c, 0, 76, 75
1, 29438, Note_on_c, 0, 76, 0
1, 29440, Note_on_c, 0, 77, 75
1, 29465, Note_on_c, 1, 65, 0
1, 29465, Note_on_c, 1, 53, 0
1, 29470, Note_on_c, 0, 77, 0
1, 29472, Note_on_c, 0, 72, 75
1, 29472, Note_on_c, 1, 64, 75
1, 29472, Note_on_c, 1, 55, 75
1, 29561, Note_on_c, 0, 72, 0
1, 29561, Note_on_c, 1, 64, 0
1, 29561, Note_on_c, 1, 55, 0
1, 29568, Note_on_c, 0, 72, 75
1, 29568, Note_on_c, 1, 62, 75
1, 29568, Note_on_c, 1, 55, 75
1, 29583, Note_on_c, 0, 72, 0
1, 29584, Note_on_c, 0, 71, 75
1, 29599, Note_on_c, 0, 71, 0
1, 29600, Note_on_c, 0, 72, 75
1, 29615, Note_on_c, 0, 72, 0
1, 29616, Note_on_c, 0, 71, 75
1, 29631, Note_on_c, 0, 71, 0
1, 29632, Note_on_c, 0, 69, 75
1, 29647, Note_on_c, 0, 69, 0
1, 29648, Note_on_c, 0, 71, 75
1, 29657, Note_on_c, 1, 62, 0
1, 29657, Note_on_c, 1, 55, 0
1, 29663, Note_on_c, 0, 71, 0
1, 29664, Note_on_c, 0, 72, 75
1, 29664, Note_on_c, 1, 60, 75
1, 29753, Note_on_c, 1, 60, 0
1, 29760, Note_on_c, 1, 55, 75
1, 29841, Note_on_c, 0, 72, 0
1, 29849, Note_on_c, 1, 55, 0
1, 29856, Note_on_c, 1, 48, 75
1, 29945, Note_on_c, 1, 48, 0
1, 29952, Note_on_c, 0, 76, 75
1, 29952, Note_on_c, 1, 48, 75
1, 29997, Note_on_c, 0, 76, 0
1, 30000, Note_on_c, 0, 84, 75
1, 30041, Note_on_c, 1, 48, 0
1, 30045, Note_on_c, 0, 84, 0
1, 30048, Note_on_c, 0, 76, 75
1, 30078, Note_on_c, 0, 76, 0
1, 30080, Note_on_c, 0, 78, 75
1, 30110, Note_on_c, 0, 78, 0
1, 30112, Note_on_c, 0, 79, 75
1, 30142, Note_on_c, 0, 79, 0
1, 30144, Note_on_c, 0, 78, 75
1, 30144, Note_on_c, 1, 48, 75
1, 30174, Note_on_c, 0, 78, 0
1, 30176, Note_on_c, 0, 79, 75
1, 30206, Note_on_c, 0, 79, 0
1, 30208, Note_on_c, 0, 81, 75
1, 30233, Note_on_c, 1, 48, 0
1, 30238, Note_on_c, 0, 81, 0
1, 30240, Note_on_c, 0, 79, 75
1, 30240, Note_on_c, 1, 47, 75
1, 30285, Note_on_c, 0, 79, 0
1, 30288, Note_on_c, 0, 83, 75
1, 30333, Note_on_c, 0, 83, 0
1, 30336, Note_on_c, 0, 74, 75
1, 30373, Note_on_c, 1, 47, 0
1, 30384, Note_on_c, 1, 59, 75
1, 30425, Note_on_c, 0, 74, 0
1, 30429, Note_on_c, 1, 59, 0
1, 30432, Note_on_c, 1, 57, 75
1, 30477, Note_on_c, 1, 57, 0
1, 30480, Note_on_c, 1, 55, 75
1, 30525, Note_on_c, 1, 55, 0
1, 30528, Note_on_c, 0, 72, 75
1, 30528, Note_on_c, 1, 57, 75
1, 30573, Note_on_c, 0, 72, 0
1, 30576, Note_on_c, 0, 81, 75
1, 30617, Note_on_c, 1, 57, 0
1, 30621, Note_on_c, 0, 81, 0
1, 30624, Note_on_c, 0, 69, 75
1, 30624, Note_on_c, 1, 54, 75
1, 30654, Note_on_c, 0, 69, 0
1, 30656, Note_on_c, 0, 71, 75
1, 30686, Note_on_c, 0, 71, 0
1, 30688, Note_on_c, 0, 72, 75
1, 30713, Note_on_c, 1, 54, 0
1, 30718, Note_on_c, 0, 72, 0
1, 30720, Note_on_c, 0, 71, 75
1, 30720, Note_on_c, 1, 55, 75
1, 30750, Note_on_c, 0, 71, 0
1, 30752, Note_on_c, 0, 72, 75
1, 30782, Note_on_c, 0, 72, 0
1, 30784, Note_on_c, 0, 74, 75
1, 30809, Note_on_c, 1, 55, 0
1, 30814, Note_on_c, 0, 74, 0
1, 30816, Note_on_c, 0, 74, 75
1, 30816, Note_on_c, 1, 57, 75
1, 30905, Note_on_c, 0, 74, 0
1, 30905, Note_on_c, 1, 57, 0
1, 30912, Note_on_c, 0, 74, 75
1, 30912, Note_on_c, 1, 50, 75
1, 30927, Note_on_c, 0, 74, 0
1, 30928, Note_on_c, 0, 72, 75
1, 30943, Note_on_c, 0, 72, 0
1, 30944, Note_on_c, 0, 74, 75
1, 30959, Note_on_c, 0, 74, 0
1, 30960, Note_on_c, 0, 72, 75
1, 30975, Note_on_c, 0, 72, 0
1, 30976, Note_on_c, 0, 71, 75
1, 30991, Note_on_c, 0, 71, 0
1, 30992, Note_on_c, 0, 72, 75
1, 31001, Note_on_c, 1, 50, 0
1, 31007, Note_on_c, 0, 72, 0
1, 31008, Note_on_c, 0, 71, 75
1, 31008, Note_on_c, 1, 55, 75
1, 31097, Note_on_c, 0, 71, 0
1, 31097, Note_on_c, 1, 55, 0
1, 31104, Note_on_c, 1, 48, 75
1, 31134, Note_on_c, 1, 48, 0
1, 31136, Note_on_c, 1, 52, 75
1, 31166, Note_on_c, 1, 52, 0
1, 31168, Note_on_c, 1, 55, 75
1, 31198, Note_on_c, 1, 55, 0
1, 31200, Note_on_c, 1, 48, 75
1, 31232, Note_on_c, 0, 76, 75
1, 31262, Note_on_c, 0, 76, 0
1, 31264, Note_on_c, 0, 78, 75
1, 31289, Note_on_c, 1, 48, 0
1, 31294, Note_on_c, 0, 78, 0
1, 31296, Note_on_c, 0, 79, 75
1, 31326, Note_on_c, 0, 79, 0
1, 31328, Note_on_c, 0, 78, 75
1, 31358, Note_on_c, 0, 78, 0
1, 31360, Note_on_c, 0, 76, 75
1, 31390, Note_on_c, 0, 76, 0
1, 31392, Note_on_c, 0, 74, 75
1, 31392, Note_on_c, 1, 47, 75
1, 31422, Note_on_c, 1, 47, 0
1, 31424, Note_on_c, 1, 50, 75
1, 31454, Note_on_c, 1, 50, 0
1, 31456, Note_on_c, 1, 55, 75
1, 31481, Note_on_c, 0, 74, 0
1, 31486, Note_on_c, 1, 55, 0
1, 31488, Note_on_c, 1, 47, 75
1, 31520, Note_on_c, 0, 78, 75
1, 31550, Note_on_c, 0, 78, 0
1, 31552, Note_on_c, 0, 79, 75
1, 31577, Note_on_c, 1, 47, 0
1, 31582, Note_on_c, 0, 79, 0
1, 31584, Note_on_c, 0, 81, 75
1, 31614, Note_on_c, 0, 81, 0
1, 31616, Note_on_c, 0, 78, 75
1, 31646, Note_on_c, 0, 78, 0
1, 31648, Note_on_c, 0, 79, 75
1, 31678, Note_on_c, 0, 79, 0
1, 31680, Note_on_c, 0, 76, 75
1, 31680, Note_on_c, 1, 55, 75
1, 31680, Note_on_c, 1, 48, 64
1, 31710, Note_on_c, 0, 76, 0
1, 31712, Note_on_c, 0, 74, 75
1, 31742, Note_on_c, 0, 74, 0
1, 31744, Note_on_c, 0, 72, 75
1, 31769, Note_on_c, 1, 55, 0
1, 31769, Note_on_c, 1, 48, 0
1, 31774, Note_on_c, 0, 72, 0
1, 31776, Note_on_c, 0, 71, 75
1, 31776, Note_on_c, 1, 55, 75
1, 31776, Note_on_c, 1, 50, 64
1, 31865, Note_on_c, 0, 71, 0
1, 31865, Note_on_c, 1, 55, 0
1, 31872, Note_on_c, 0, 71, 75
1, 31872, Note_on_c, 1, 54, 75
1, 31887, Note_on_c, 0, 71, 0
1, 31888, Note_on_c, 0, 69, 75
1, 31903, Note_on_c, 0, 69, 0
1, 31904, Note_on_c, 0, 71, 75
1, 31919, Note_on_c, 0, 71, 0
1, 31920, Note_on_c, 0, 69, 75
1, 31935, Note_on_c, 0, 69, 0
1, 31936, Note_on_c, 0, 67, 75
1, 31951, Note_on_c, 0, 67, 0
1, 31952, Note_on_c, 0, 69, 75
1, 31953, Note_on_c, 1, 50, 0
1, 31961, Note_on_c, 1, 54, 0
1, 31967, Note_on_c, 0, 69, 0
1, 31968, Note_on_c, 0, 67, 75
1, 31968, Note_on_c, 1, 55, 75
1, 32057, Note_on_c, 1, 55, 0
1, 32064, Note_on_c, 1, 50, 75
1, 32145, Note_on_c, 0, 67, 0
1, 32153, Note_on_c, 1, 50, 0
1, 32160, Note_on_c, 1, 43, 75
1, 32249, Note_on_c, 1, 43, 0
1, 32256, Note_on_c, 0, 74, 75
1, 32256, Note_on_c, 1, 60, 91
1, 32256, Note_on_c, 1, 48, 91
1, 32274, Note_on_c, 0, 74, 0
1, 32274, Note_on_c, 0, 72, 75
1, 32292, Note_on_c, 0, 72, 0
1, 32292, Note_on_c, 0, 71, 75
1, 32310, Note_on_c, 0, 71, 0
1, 32310, Note_on_c, 0, 72, 75
1, 32345, Note_on_c, 0, 72, 0
1, 32352, Note_on_c, 0, 76, 75
1, 32352, Note_on_c, 1, 60, 0
1, 32352, Note_on_c, 1, 48, 0
1, 32382, Note_on_c, 0, 76, 0
1, 32384, Note_on_c, 0, 74, 75
1, 32414, Note_on_c, 0, 74, 0
1, 32416, Note_on_c, 0, 72, 75
1, 32446, Note_on_c, 0, 72, 0
1, 32448, Note_on_c, 0, 77, 75
1, 32478, Note_on_c, 0, 77, 0
1, 32480, Note_on_c, 0, 76, 75
1, 32510, Note_on_c, 0, 76, 0
1, 32512, Note_on_c, 0, 74, 75
1, 32542, Note_on_c, 0, 74, 0
1, 32544, Note_on_c, 0, 79, 75
1, 32544, Note_on_c, 1, 64, 75
1, 32633, Note_on_c, 0, 79, 0
1, 32633, Note_on_c, 1, 64, 0
1, 32640, Note_on_c, 0, 76, 75
1, 32640, Note_on_c, 1, 60, 75
1, 32729, Note_on_c, 0, 76, 0
1, 32729, Note_on_c, 1, 60, 0
1, 32736, Note_on_c, 0, 79, 75
1, 32736, Note_on_c, 1, 62, 75
1, 32736, Note_on_c, 1, 55, 75
1, 32759, Note_on_c, 0, 79, 0
1, 32760, Note_on_c, 0, 77, 75
1, 32783, Note_on_c, 0, 77, 0
1, 32784, Note_on_c, 0, 76, 75
1, 32807, Note_on_c, 0, 76, 0
1, 32808, Note_on_c, 0, 74, 75
1, 32825, Note_on_c, 1, 62, 0
1, 32825, Note_on_c, 1, 55, 0
1, 32831, Note_on_c, 0, 74, 0
1, 32832, Note_on_c, 0, 72, 75
1, 32832, Note_on_c, 1, 60, 75
1, 32921, Note_on_c, 0, 72, 0
1, 32921, Note_on_c, 1, 60, 0
1, 32928, Note_on_c, 0, 84, 75
1, 32928, Note_on_c, 1, 64, 75
1, 33017, Note_on_c, 0, 84, 0
1, 33017, Note_on_c, 1, 64, 0
1, 33024, Note_on_c, 0, 81, 75
1, 33024, Note_on_c, 1, 65, 75
1, 33113, Note_on_c, 0, 81, 0
1, 33113, Note_on_c, 1, 65, 0
1, 33120, Note_on_c, 0, 83, 75
1, 33120, Note_on_c, 1, 65, 75
1, 33120, Note_on_c, 1, 60, 64
1, 33135, Note_on_c, 0, 83, 0
1, 33136, Note_on_c, 0, 81, 75
1, 33151, Note_on_c, 0, 81, 0
1, 33152, Note_on_c, 0, 83, 75
1, 33167, Note_on_c, 0, 83, 0
1, 33168, Note_on_c, 0, 81, 75
1, 33183, Note_on_c, 0, 81, 0
1, 33184, Note_on_c, 0, 79, 75
1, 33199, Note_on_c, 0, 79, 0
1, 33200, Note_on_c, 0, 81, 75
1, 33209, Note_on_c, 1, 65, 0
1, 33215, Note_on_c, 0, 81, 0
1, 33216, Note_on_c, 0, 79, 75
1, 33216, Note_on_c, 1, 64, 75
1, 33297, Note_on_c, 1, 60, 0
1, 33305, Note_on_c, 0, 79, 0
1, 33305, Note_on_c, 1, 64, 0
1, 33408, Note_on_c, 1, 59, 75
1, 33438, Note_on_c, 1, 59, 0
1, 33440, Note_on_c, 1, 62, 75
1, 33470, Note_on_c, 1, 62, 0
1, 33472, Note_on_c, 1, 67, 75
1, 33502, Note_on_c, 1, 67, 0
1, 33504, Note_on_c, 1, 59, 75
1, 33536, Note_on_c, 0, 74, 75
1, 33566, Note_on_c, 0, 74, 0
1, 33568, Note_on_c, 0, 76, 75
1, 33593, Note_on_c, 1, 59, 0
1, 33598, Note_on_c, 0, 76, 0
1, 33600, Note_on_c, 0, 77, 75
1, 33630, Note_on_c, 0, 77, 0
1, 33632, Note_on_c, 0, 76, 75
1, 33662, Note_on_c, 0, 76, 0
1, 33664, Note_on_c, 0, 74, 75
1, 33694, Note_on_c, 0, 74, 0
1, 33696, Note_on_c, 0, 76, 75
1, 33696, Note_on_c, 1, 60, 75
1, 33726, Note_on_c, 1, 60, 0
1, 33728, Note_on_c, 1, 64, 75
1, 33758, Note_on_c, 1, 64, 0
1, 33760, Note_on_c, 1, 67, 75
1, 33785, Note_on_c, 0, 76, 0
1, 33790, Note_on_c, 1, 67, 0
1, 33792, Note_on_c, 1, 60, 75
1, 33824, Note_on_c, 0, 76, 75
1, 33854, Note_on_c, 0, 76, 0
1, 33856, Note_on_c, 0, 77, 75
1, 33881, Note_on_c, 1, 60, 0
1, 33886, Note_on_c, 0, 77, 0
1, 33888, Note_on_c, 0, 79, 75
1, 33918, Note_on_c, 0, 79, 0
1, 33920, Note_on_c, 0, 77, 75
1, 33950, Note_on_c, 0, 77, 0
1, 33952, Note_on_c, 0, 76, 75
1, 33982, Note_on_c, 0, 76, 0
1, 33984, Note_on_c, 0, 81, 75
1, 33984, Note_on_c, 1, 53, 75
1, 34014, Note_on_c, 1, 53, 0
1, 34016, Note_on_c, 1, 57, 75
1, 34046, Note_on_c, 1, 57, 0
1, 34048, Note_on_c, 1, 60, 75
1, 34073, Note_on_c, 0, 81, 0
1, 34078, Note_on_c, 1, 60, 0
1, 34080, Note_on_c, 1, 53, 75
1, 34112, Note_on_c, 0, 81, 75
1, 34142, Note_on_c, 0, 81, 0
1, 34144, Note_on_c, 0, 83, 75
1, 34169, Note_on_c, 1, 53, 0
1, 34174, Note_on_c, 0, 83, 0
1, 34176, Note_on_c, 0, 84, 75
1, 34206, Note_on_c, 0, 84, 0
1, 34208, Note_on_c, 0, 83, 75
1, 34238, Note_on_c, 0, 83, 0
1, 34240, Note_on_c, 0, 81, 75
1, 34270, Note_on_c, 0, 81, 0
1, 34272, Note_on_c, 0, 79, 75
1, 34272, Note_on_c, 1, 52, 75
1, 34302, Note_on_c, 1, 52, 0
1, 34304, Note_on_c, 1, 55, 75
1, 34334, Note_on_c, 1, 55, 0
1, 34336, Note_on_c, 1, 60, 75
1, 34361, Note_on_c, 0, 79, 0
1, 34366, Note_on_c, 1, 60, 0
1, 34368, Note_on_c, 0, 84, 75
1, 34368, Note_on_c, 1, 52, 75
1, 34398, Note_on_c, 0, 84, 0
1, 34400, Note_on_c, 0, 83, 75
1, 34430, Note_on_c, 0, 83, 0
1, 34432, Note_on_c, 0, 81, 75
1, 34457, Note_on_c, 1, 52, 0
1, 34462, Note_on_c, 0, 81, 0
1, 34464, Note_on_c, 0, 79, 75
1, 34494, Note_on_c, 0, 79, 0
1, 34496, Note_on_c, 0, 77, 75
1, 34526, Note_on_c, 0, 77, 0
1, 34528, Note_on_c, 0, 76, 75
1, 34558, Note_on_c, 0, 76, 0
1, 34560, Note_on_c, 0, 74, 75
1, 34560, Note_on_c, 1, 65, 75
1, 34560, Note_on_c, 1, 53, 64
1, 34590, Note_on_c, 0, 74, 0
1, 34592, Note_on_c, 0, 77, 75
1, 34622, Note_on_c, 0, 77, 0
1, 34624, Note_on_c, 0, 81, 75
1, 34649, Note_on_c, 1, 65, 0
1, 34649, Note_on_c, 1, 53, 0
1, 34654, Note_on_c, 0, 81, 0
1, 34656, Note_on_c, 0, 72, 75
1, 34656, Note_on_c, 1, 64, 75
1, 34656, Note_on_c, 1, 55, 64
1, 34745, Note_on_c, 0, 72, 0
1, 34745, Note_on_c, 1, 64, 0
1, 34752, Note_on_c, 0, 72, 75
1, 34752, Note_on_c, 1, 62, 75
1, 34767, Note_on_c, 0, 72, 0
1, 34768, Note_on_c, 0, 71, 75
1, 34783, Note_on_c, 0, 71, 0
1, 34784, Note_on_c, 0, 72, 75
1, 34799, Note_on_c, 0, 72, 0
1, 34800, Note_on_c, 0, 71, 75
1, 34815, Note_on_c, 0, 71, 0
1, 34816, Note_on_c, 0, 69, 75
1, 34831, Note_on_c, 0, 69, 0
1, 34832, Note_on_c, 0, 71, 75
1, 34833, Note_on_c, 1, 55, 0
1, 34841, Note_on_c, 1, 62, 0
1, 34847, Note_on_c, 0, 71, 0
1, 34848, Note_on_c, 0, 72, 75
1, 34848, Note_on_c, 1, 60, 75
1, 34937, Note_on_c, 1, 60, 0
1, 34944, Note_on_c, 1, 55, 75
1, 35025, Note_on_c, 0, 72, 0
1, 35033, Note_on_c, 1, 55, 0
1, 35040, Note_on_c, 1, 48, 75
1, 35129, Note_on_c, 1, 48, 0
1, 35136, Note_on_c, 0, 76, 75
1, 35136, Note_on_c, 1, 48, 75
1, 35181, Note_on_c, 0, 76, 0
1, 35184, Note_on_c, 0, 84, 75
1, 35225, Note_on_c, 1, 48, 0
1, 35229, Note_on_c, 0, 84, 0
1, 35232, Note_on_c, 0, 76, 75
1, 35262, Note_on_c, 0, 76, 0
1, 35264, Note_on_c, 0, 78, 75
1, 35294, Note_on_c, 0, 78, 0
1, 35296, Note_on_c, 0, 79, 75
1, 35326, Note_on_c, 0, 79, 0
1, 35328, Note_on_c, 0, 78, 75
1, 35328, Note_on_c, 1, 48, 75
1, 35358, Note_on_c, 0, 78, 0
1, 35360, Note_on_c, 0, 79, 75
1, 35390, Note_on_c, 0, 79, 0
1, 35392, Note_on_c, 0, 81, 75
1, 35417, Note_on_c, 1, 48, 0
1, 35422, Note_on_c, 0, 81, 0
1, 35424, Note_on_c, 0, 79, 75
1, 35424, Note_on_c, 1, 47, 75
1, 35469, Note_on_c, 0, 79, 0
1, 35472, Note_on_c, 0, 83, 75
1, 35517, Note_on_c, 0, 83, 0
1, 35520, Note_on_c, 0, 74, 75
1, 35557, Note_on_c, 1, 47, 0
1, 35568, Note_on_c, 1, 59, 75
1, 35609, Note_on_c, 0, 74, 0
1, 35613, Note_on_c, 1, 59, 0
1, 35616, Note_on_c, 1, 57, 75
1, 35661, Note_on_c, 1, 57, 0
1, 35664, Note_on_c, 1, 55, 75
1, 35709, Note_on_c, 1, 55, 0
1, 35712, Note_on_c, 0, 72, 75
1, 35712, Note_on_c, 1, 57, 75
1, 35757, Note_on_c, 0, 72, 0
1, 35760, Note_on_c, 0, 81, 75
1, 35801, Note_on_c, 1, 57, 0
1, 35805, Note_on_c, 0, 81, 0
1, 35808, Note_on_c, 0, 69, 75
1, 35808, Note_on_c, 1, 54, 75
1, 35838, Note_on_c, 0, 69, 0
1, 35840, Note_on_c, 0, 71, 75
1, 35870, Note_on_c, 0, 71, 0
1, 35872, Note_on_c, 0, 72, 75
1, 35897, Note_on_c, 1, 54, 0
1, 35902, Note_on_c, 0, 72, 0
1, 35904, Note_on_c, 0, 71, 75
1, 35904, Note_on_c, 1, 55, 75
1, 35934, Note_on_c, 0, 71, 0
1, 35936, Note_on_c, 0, 72, 75
1, 35966, Note_on_c, 0, 72, 0
1, 35968, Note_on_c, 0, 74, 75
1, 35993, Note_on_c, 1, 55, 0
1, 35998, Note_on_c, 0, 74, 0
1, 36000, Note_on_c, 0, 74, 75
1, 36000, Note_on_c, 1, 57, 75
1, 36089, Note_on_c, 0, 74, 0
1, 36089, Note_on_c, 1, 57, 0
1, 36096, Note_on_c, 0, 74, 75
1, 36096, Note_on_c, 1, 50, 75
1, 36111, Note_on_c, 0, 74, 0
1, 36112, Note_on_c, 0, 72, 75
1, 36127, Note_on_c, 0, 72, 0
1, 36128, Note_on_c, 0, 74, 75
1, 36143, Note_on_c, 0, 74, 0
1, 36144, Note_on_c, 0, 72, 75
1, 36159, Note_on_c, 0, 72, 0
1, 36160, Note_on_c, 0, 71, 75
1, 36175, Note_on_c, 0, 71, 0
1, 36176, Note_on_c, 0, 72, 75
1, 36185, Note_on_c, 1, 50, 0
1, 36191, Note_on_c, 0, 72, 0
1, 36192, Note_on_c, 0, 71, 75
1, 36192, Note_on_c, 1, 55, 75
1, 36281, Note_on_c, 0, 71, 0
1, 36281, Note_on_c, 1, 55, 0
1, 36288, Note_on_c, 1, 48, 75
1, 36318, Note_on_c, 1, 48, 0
1, 36320, Note_on_c, 1, 52, 75
1, 36350, Note_on_c, 1, 52, 0
1, 36352, Note_on_c, 1, 55, 75
1, 36382, Note_on_c, 1, 55, 0
1, 36384, Note_on_c, 1, 48, 75
1, 36416, Note_on_c, 0, 76, 75
1, 36446, Note_on_c, 0, 76, 0
1, 36448, Note_on_c, 0, 78, 75
1, 36473, Note_on_c, 1, 48, 0
1, 36478, Note_on_c, 0, 78, 0
1, 36480, Note_on_c, 0, 79, 75
1, 36510, Note_on_c, 0, 79, 0
1, 36512, Note_on_c, 0, 78, 75
1, 36542, Note_on_c, 0, 78, 0
1, 36544, Note_on_c, 0, 76, 75
1, 36574, Note_on_c, 0, 76, 0
1, 36576, Note_on_c, 0, 74, 75
1, 36576, Note_on_c, 1, 47, 75
1, 36606, Note_on_c, 1, 47, 0
1, 36608, Note_on_c, 1, 50, 75
1, 36638, Note_on_c, 1, 50, 0
1, 36640, Note_on_c, 1, 55, 75
1, 36665, Note_on_c, 0, 74, 0
1, 36670, Note_on_c, 1, 55, 0
1, 36672, Note_on_c, 1, 47, 75
1, 36704, Note_on_c, 0, 78, 75
1, 36734, Note_on_c, 0, 78, 0
1, 36736, Note_on_c, 0, 79, 75
1, 36761, Note_on_c, 1, 47, 0
1, 36766, Note_on_c, 0, 79, 0
1, 36768, Note_on_c, 0, 81, 75
1, 36798, Note_on_c, 0, 81, 0
1, 36800, Note_on_c, 0, 78, 75
1, 36830, Note_on_c, 0, 78, 0
1, 36832, Note_on_c, 0, 79, 75
1, 36862, Note_on_c, 0, 79, 0
1, 36864, Note_on_c, 0, 76, 75
1, 36864, Note_on_c, 1, 55, 75
1, 36864, Note_on_c, 1, 48, 64
1, 36894, Note_on_c, 0, 76, 0
1, 36896, Note_on_c, 0, 74, 75
1, 36926, Note_on_c, 0, 74, 0
1, 36928, Note_on_c, 0, 72, 75
1, 36953, Note_on_c, 1, 55, 0
1, 36953, Note_on_c, 1, 48, 0
1, 36958, Note_on_c, 0, 72, 0
1, 36960, Note_on_c, 0, 71, 75
1, 36960, Note_on_c, 1, 55, 75
1, 36960, Note_on_c, 1, 50, 64
1, 37049, Note_on_c, 0, 71, 0
1, 37049, Note_on_c, 1, 55, 0
1, 37056, Note_on_c, 0, 71, 75
1, 37056, Note_on_c, 1, 54, 75
1, 37071, Note_on_c, 0, 71, 0
1, 37072, Note_on_c, 0, 69, 75
1, 37087, Note_on_c, 0, 69, 0
1, 37088, Note_on_c, 0, 71, 75
1, 37103, Note_on_c, 0, 71, 0
1, 37104, Note_on_c, 0, 69, 75
1, 37119, Note_on_c, 0, 69, 0
1, 37120, Note_on_c, 0, 67, 75
1, 37135, Note_on_c, 0, 67, 0
1, 37136, Note_on_c, 0, 69, 75
1, 37137, Note_on_c, 1, 50, 0
1, 37145, Note_on_c, 1, 54, 0
1, 37151, Note_on_c, 0, 69, 0
1, 37152, Note_on_c, 0, 67, 75
1, 37152, Note_on_c, 1, 55, 75
1, 37241, Note_on_c, 1, 55, 0
1, 37248, Note_on_c, 1, 50, 75
1, 37329, Note_on_c, 0, 67, 0
1, 37337, Note_on_c, 1, 50, 0
1, 37344, Note_on_c, 1, 43, 75
1, 37433, Note_on_c, 1, 43, 0
1, 37440, Note_on_c, 0, 74, 75
1, 37440, Note_on_c, 1, 60, 91
1, 37440, Note_on_c, 1, 48, 91
1, 37458, Note_on_c, 0, 74, 0
1, 37458, Note_on_c, 0, 72, 75
1, 37476, Note_on_c, 0, 72, 0
1, 37476, Note_on_c, 0, 71, 75
1, 37494, Note_on_c, 0, 71, 0
1, 37494, Note_on_c, 0, 72, 75
1, 37529, Note_on_c, 0, 72, 0
1, 37536, Note_on_c, 0, 76, 75
1, 37536, Note_on_c, 1, 60, 0
1, 37536, Note_on_c, 1, 48, 0
1, 37566, Note_on_c, 0, 76, 0
1, 37568, Note_on_c, 0, 74, 75
1, 37598, Note_on_c, 0, 74, 0
1, 37600, Note_on_c, 0, 72, 75
1, 37630, Note_on_c, 0, 72, 0
1, 37632, Note_on_c, 0, 77, 75
1, 37662, Note_on_c, 0, 77, 0
1, 37664, Note_on_c, 0, 76, 75
1, 37694, Note_on_c, 0, 76, 0
1, 37696, Note_on_c, 0, 74, 75
1, 37726, Note_on_c, 0, 74, 0
1, 37728, Note_on_c, 0, 79, 75
1, 37728, Note_on_c, 1, 64, 75
1, 37817, Note_on_c, 0, 79, 0
1, 37817, Note_on_c, 1, 64, 0
1, 37824, Note_on_c, 0, 76, 75
1, 37824, Note_on_c, 1, 60, 75
1, 37913, Note_on_c, 0, 76, 0
1, 37913, Note_on_c, 1, 60, 0
1, 37920, Note_on_c, 0, 79, 75
1, 37920, Note_on_c, 1, 62, 75
1, 37920, Note_on_c, 1, 55, 75
1, 37943, Note_on_c, 0, 79, 0
1, 37944, Note_on_c, 0, 77, 75
1, 37967, Note_on_c, 0, 77, 0
1, 37968, Note_on_c, 0, 76, 75
1, 37991, Note_on_c, 0, 76, 0
1, 37992, Note_on_c, 0, 74, 75
1, 38009, Note_on_c, 1, 62, 0
1, 38009, Note_on_c, 1, 55, 0
1, 38015, Note_on_c, 0, 74, 0
1, 38016, Note_on_c, 0, 72, 75
1, 38016, Note_on_c, 1, 60, 75
1, 38105, Note_on_c, 0, 72, 0
1, 38105, Note_on_c, 1, 60, 0
1, 38112, Note_on_c, 0, 84, 75
1, 38112, Note_on_c, 1, 64, 75
1, 38201, Note_on_c, 0, 84, 0
1, 38201, Note_on_c, 1, 64, 0
1, 38208, Note_on_c, 0, 81, 75
1, 38208, Note_on_c, 1, 65, 75
1, 38297, Note_on_c, 0, 81, 0
1, 38297, Note_on_c, 1, 65, 0
1, 38304, Note_on_c, 0, 83, 75
1, 38304, Note_on_c, 1, 65, 75
1, 38304, Note_on_c, 1, 60, 64
1, 38319, Note_on_c, 0, 83, 0
1, 38320, Note_on_c, 0, 81, 75
1, 38335, Note_on_c, 0, 81, 0
1, 38336, Note_on_c, 0, 83, 75
1, 38351, Note_on_c, 0, 83, 0
1, 38352, Note_on_c, 0, 81, 75
1, 38367, Note_on_c, 0, 81, 0
1, 38368, Note_on_c, 0, 79, 75
1, 38383, Note_on_c, 0, 79, 0
1, 38384, Note_on_c, 0, 81, 75
1, 38393, Note_on_c, 1, 65, 0
1, 38399, Note_on_c, 0, 81, 0
1, 38400, Note_on_c, 0, 79, 75
1, 38400, Note_on_c, 1, 64, 75
1, 38481, Note_on_c, 1, 60, 0
1, 38489, Note_on_c, 0, 79, 0
1, 38489, Note_on_c, 1, 64, 0
1, 38592, Note_on_c, 1, 59, 75
1, 38622, Note_on_c, 1, 59, 0
1, 38624, Note_on_c, 1, 62, 75
1, 38654, Note_on_c, 1, 62, 0
1, 38656, Note_on_c, 1, 67, 75
1, 38686, Note_on_c, 1, 67, 0
1, 38688, Note_on_c, 1, 59, 75
1, 38720, Note_on_c, 0, 74, 75
1, 38750, Note_on_c, 0, 74, 0
1, 38752, Note_on_c, 0, 76, 75
1, 38777, Note_on_c, 1, 59, 0
1, 38782, Note_on_c, 0, 76, 0
1, 38784, Note_on_c, 0, 77, 75
1, 38814, Note_on_c, 0, 77, 0
1, 38816, Note_on_c, 0, 76, 75
1, 38846, Note_on_c, 0, 76, 0
1, 38848, Note_on_c, 0, 74, 75
1, 38878, Note_on_c, 0, 74, 0
1, 38880, Note_on_c, 0, 76, 75
1, 38880, Note_on_c, 1, 60, 75
1, 38910, Note_on_c, 1, 60, 0
1, 38912, Note_on_c, 1, 64, 75
1, 38942, Note_on_c, 1, 64, 0
1, 38944, Note_on_c, 1, 67, 75
1, 38969, Note_on_c, 0, 76, 0
1, 38974, Note_on_c, 1, 67, 0
1, 38976, Note_on_c, 1, 60, 75
1, 39008, Note_on_c, 0, 76, 75
1, 39038, Note_on_c, 0, 76, 0
1, 39040, Note_on_c, 0, 77, 75
1, 39065, Note_on_c, 1, 60, 0
1, 39070, Note_on_c, 0, 77, 0
1, 39072, Note_on_c, 0, 79, 75
1, 39102, Note_on_c, 0, 79, 0
1, 39104, Note_on_c, 0, 77, 75
1, 39134, Note_on_c, 0, 77, 0
1, 39136, Note_on_c, 0, 76, 75
1, 39166, Note_on_c, 0, 76, 0
1, 39168, Note_on_c, 0, 81, 75
1, 39168, Note_on_c, 1, 53, 75
1, 39198, Note_on_c, 1, 53, 0
1, 39200, Note_on_c, 1, 57, 75
1, 39230, Note_on_c, 1, 57, 0
1, 39232, Note_on_c, 1, 60, 75
1, 39257, Note_on_c, 0, 81, 0
1, 39262, Note_on_c, 1, 60, 0
1, 39264, Note_on_c, 1, 53, 75
1, 39296, Note_on_c, 0, 81, 75
1, 39326, Note_on_c, 0, 81, 0
1, 39328, Note_on_c, 0, 83, 75
1, 39353, Note_on_c, 1, 53, 0
1, 39358, Note_on_c, 0, 83, 0
1, 39360, Note_on_c, 0, 84, 75
1, 39390, Note_on_c, 0, 84, 0
1, 39392, Note_on_c, 0, 83, 75
1, 39422, Note_on_c, 0, 83, 0
1, 39424, Note_on_c, 0, 81, 75
1, 39454, Note_on_c, 0, 81, 0
1, 39456, Note_on_c, 0, 79, 75
1, 39456, Note_on_c, 1, 52, 75
1, 39486, Note_on_c, 1, 52, 0
1, 39488, Note_on_c, 1, 55, 75
1, 39518, Note_on_c, 1, 55, 0
1, 39520, Note_on_c, 1, 60, 75
1, 39545, Note_on_c, 0, 79, 0
1, 39550, Note_on_c, 1, 60, 0
1, 39552, Note_on_c, 0, 84, 75
1, 39552, Note_on_c, 1, 52, 75
1, 39582, Note_on_c, 0, 84, 0
1, 39584, Note_on_c, 0, 83, 75
1, 39614, Note_on_c, 0, 83, 0
1, 39616, Note_on_c, 0, 81, 75
1, 39641, Note_on_c, 1, 52, 0
1, 39646, Note_on_c, 0, 81, 0
1, 39648, Note_on_c, 0, 79, 75
1, 39678, Note_on_c, 0, 79, 0
1, 39680, Note_on_c, 0, 77, 75
1, 39710, Note_on_c, 0, 77, 0
1, 39712, Note_on_c, 0, 76, 75
1, 39742, Note_on_c, 0, 76, 0
1, 39744, Note_on_c, 0, 74, 75
1, 39744, Note_on_c, 1, 65, 75
1, 39744, Note_on_c, 1, 53, 64
1, 39774, Note_on_c, 0, 74, 0
1, 39776, Note_on_c, 0, 77, 75
1, 39806, Note_on_c, 0, 77, 0
1, 39808, Note_on_c, 0, 81, 75
1, 39833, Note_on_c, 1, 65, 0
1, 39833, Note_on_c, 1, 53, 0
1, 39838, Note_on_c, 0, 81, 0
1, 39840, Note_on_c, 0, 72, 75
1, 39840, Note_on_c, 1, 64, 75
1, 39840, Note_on_c, 1, 55, 64
1, 39929, Note_on_c, 0, 72, 0
1, 39929, Note_on_c, 1, 64, 0
1, 39936, Note_on_c, 0, 72, 75
1, 39936, Note_on_c, 1, 62, 75
1, 39951, Note_on_c, 0, 72, 0
1, 39952, Note_on_c, 0, 71, 75
1, 39967, Note_on_c, 0, 71, 0
1, 39968, Note_on_c, 0, 72, 75
1, 39983, Note_on_c, 0, 72, 0
1, 39984, Note_on_c, 0, 71, 75
1, 39999, Note_on_c, 0, 71, 0
1, 40000, Note_on_c, 0, 69, 75
1, 40015, Note_on_c, 0, 69, 0
1, 40016, Note_on_c, 0, 71, 75
1, 40017, Note_on_c, 1, 55, 0
1, 40025, Note_on_c, 1, 62, 0
1, 40031, Note_on_c, 0, 71, 0
1, 40032, Note_on_c, 0, 72, 75
1, 40032, Note_on_c, 1, 60, 75
1, 40121, Note_on_c, 1, 60, 0
1, 40128, Note_on_c, 1, 55, 75
1, 40209, Note_on_c, 0, 72, 0
1, 40217, Note_on_c, 1, 55, 0
1, 40224, Note_on_c, 1, 48, 75
1, 40313, Note_on_c, 1, 48, 0
1, 40320, Note_on_c, 1, 48, 0
1, 40497, Note_on_c, 1, 48, 0
1, 40507, End_track
0, 0, End_of_file