0, 0, Header, 0, 1, 96
1, 0, Start_track
1, 0, Tempo, 461538
1, 0, Note_on_c, 0, 69, 91
1, 0, Note_on_c, 1, 57, 91
1, 0, Note_on_c, 1, 45, 91
1, 96, Note_on_c, 0, 69, 0
1, 96, Note_on_c, 0, 73, 75
1, 96, Note_on_c, 1, 57, 0
1, 96, Note_on_c, 1, 45, 0
1, 126, Note_on_c, 0, 73, 0
1, 128, Note_on_c, 0, 71, 75
1, 158, Note_on_c, 0, 71, 0
1, 160, Note_on_c, 0, 69, 75
1, 190, Note_on_c, 0, 69, 0
1, 192, Note_on_c, 0, 76, 75
1, 192, Note_on_c, 1, 61, 75
1, 281, Note_on_c, 0, 76, 0
1, 281, Note_on_c, 1, 61, 0
1, 288, Note_on_c, 0, 74, 75
1, 288, Note_on_c, 1, 59, 75
1, 318, Note_on_c, 0, 74, 0
1, 320, Note_on_c, 0, 76, 75
1, 350, Note_on_c, 0, 76, 0
1, 352, Note_on_c, 0, 78, 75
1, 377, Note_on_c, 1, 59, 0
1, 382, Note_on_c, 0, 78, 0
1, 384, Note_on_c, 0, 71, 75
1, 384, Note_on_c, 1, 56, 75
1, 473, Note_on_c, 0, 71, 0
1, 473, Note_on_c, 1, 56, 0
1, 480, Note_on_c, 0, 74, 75
1, 480, Note_on_c, 1, 52, 75
1, 569, Note_on_c, 0, 74, 0
1, 569, Note_on_c, 1, 52, 0
1, 576, Note_on_c, 0, 73, 75
1, 576, Note_on_c, 1, 57, 75
1, 606, Note_on_c, 0, 73, 0
1, 608, Note_on_c, 0, 74, 75
1, 638, Note_on_c, 0, 74, 0
1, 640, Note_on_c, 0, 76, 75
1, 665, Note_on_c, 1, 57, 0
1, 670, Note_on_c, 0, 76, 0
1, 672, Note_on_c, 0, 69, 75
1, 672, Note_on_c, 1, 61, 75
1, 761, Note_on_c, 0, 69, 0
1, 761, Note_on_c, 1, 61, 0
1, 768, Note_on_c, 0, 83, 75
1, 768, Note_on_c, 1, 57, 75
1, 791, Note_on_c, 0, 83, 0
1, 792, Note_on_c, 0, 81, 75
1, 815, Note_on_c, 0, 81, 0
1, 816, Note_on_c, 0, 80, 75
1, 839, Note_on_c, 0, 80, 0
1, 840, Note_on_c, 0, 78, 75
1, 857, Note_on_c, 1, 57, 0
1, 863, Note_on_c, 0, 78, 0
1, 864, Note_on_c, 0, 76, 75
1, 864, Note_on_c, 1, 59, 75
1, 953, Note_on_c, 0, 76, 0
1, 953, Note_on_c, 1, 59, 0
1, 960, Note_on_c, 0, 74, 75
1, 960, Note_on_c, 1, 52, 75
1, 973, Note_on_c, 0, 74, 0
1, 974, Note_on_c, 0, 76, 75
1, 987, Note_on_c, 0, 76, 0
1, 988, Note_on_c, 0, 74, 75
1, 1001, Note_on_c, 0, 74, 0
1, 1002, Note_on_c, 0, 76, 75
1, 1015, Note_on_c, 0, 76, 0
1, 1016, Note_on_c, 0, 74, 75
1, 1029, Note_on_c, 0, 74, 0
1, 1030, Note_on_c, 0, 73, 75
1, 1042, Note_on_c, 0, 73, 0
1, 1043, Note_on_c, 0, 74, 75
1, 1049, Note_on_c, 1, 52, 0
1, 1055, Note_on_c, 0, 74, 0
1, 1056, Note_on_c, 0, 73, 75
1, 1056, Note_on_c, 1, 57, 75
1, 1145, Note_on_c, 0, 73, 0
1, 1145, Note_on_c, 1, 57, 0
1, 1152, Note_on_c, 0, 81, 75
1, 1182, Note_on_c, 0, 81, 0
1, 1184, Note_on_c, 0, 83, 75
1, 1214, Note_on_c, 0, 83, 0
1, 1216, Note_on_c, 0, 85, 75
1, 1246, Note_on_c, 0, 85, 0
1, 1248, Note_on_c, 0, 83, 75
1, 1278, Note_on_c, 0, 83, 0
1, 1280, Note_on_c, 0, 81, 75
1, 1310, Note_on_c, 0, 81, 0
1, 1312, Note_on_c, 0, 80, 75
1, 1342, Note_on_c, 0, 80, 0
1, 1344, Note_on_c, 0, 78, 75
1, 1344, Note_on_c, 1, 63, 75
1, 1374, Note_on_c, 0, 78, 0
1, 1376, Note_on_c, 0, 80, 75
1, 1406, Note_on_c, 0, 80, 0
1, 1408, Note_on_c, 0, 81, 75
1, 1433, Note_on_c, 1, 63, 0
1, 1438, Note_on_c, 0, 81, 0
1, 1440, Note_on_c, 0, 80, 75
1, 1440, Note_on_c, 1, 64, 75
1, 1470, Note_on_c, 0, 80, 0
1, 1472, Note_on_c, 0, 78, 75
1, 1502, Note_on_c, 0, 78, 0
1, 1504, Note_on_c, 0, 76, 75
1, 1529, Note_on_c, 1, 64, 0
1, 1534, Note_on_c, 0, 76, 0
1, 1536, Note_on_c, 0, 75, 75
1, 1536, Note_on_c, 1, 66, 75
1, 1566, Note_on_c, 0, 75, 0
1, 1568, Note_on_c, 0, 73, 75
1, 1598, Note_on_c, 0, 73, 0
1, 1600, Note_on_c, 0, 71, 75
1, 1625, Note_on_c, 1, 66, 0
1, 1630, Note_on_c, 0, 71, 0
1, 1632, Note_on_c, 0, 76, 75
1, 1632, Note_on_c, 1, 68, 75
1, 1721, Note_on_c, 0, 76, 0
1, 1721, Note_on_c, 1, 68, 0
1, 1728, Note_on_c, 0, 81, 64
1, 1758, Note_on_c, 0, 81, 0
1, 1760, Note_on_c, 0, 83, 64
1, 1790, Note_on_c, 0, 83, 0
1, 1792, Note_on_c, 0, 85, 64
1, 1822, Note_on_c, 0, 85, 0
1, 1824, Note_on_c, 0, 83, 64
1, 1854, Note_on_c, 0, 83, 0
1, 1856, Note_on_c, 0, 81, 64
1, 1886, Note_on_c, 0, 81, 0
1, 1888, Note_on_c, 0, 80, 64
1, 1918, Note_on_c, 0, 80, 0
1, 1920, Note_on_c, 0, 78, 64
1, 1920, Note_on_c, 1, 51, 70
1, 1950, Note_on_c, 0, 78, 0
1, 1952, Note_on_c, 0, 80, 65
1, 1982, Note_on_c, 0, 80, 0
1, 1984, Note_on_c, 0, 81, 66
1, 2009, Note_on_c, 1, 51, 0
1, 2014, Note_on_c, 0, 81, 0
1, 2016, Note_on_c, 0, 80, 67
1, 2016, Note_on_c, 1, 52, 72
1, 2046, Note_on_c, 0, 80, 0
1, 2048, Note_on_c, 0, 81, 69
1, 2078, Note_on_c, 0, 81, 0
1, 2080, Note_on_c, 0, 83, 70
1, 2105, Note_on_c, 1, 52, 0
1, 2110, Note_on_c, 0, 83, 0
1, 2112, Note_on_c, 0, 75, 71
1, 2112, Note_on_c, 1, 54, 75
1, 2142, Note_on_c, 0, 75, 0
1, 2144, Note_on_c, 0, 76, 72
1, 2174, Note_on_c, 0, 76, 0
1, 2176, Note_on_c, 0, 78, 74
1, 2201, Note_on_c, 1, 54, 0
1, 2206, Note_on_c, 0, 78, 0
1, 2208, Note_on_c, 0, 76, 75
1, 2208, Note_on_c, 1, 56, 77
1, 2275, Note_on_c, 0, 76, 0
1, 2280, Note_on_c, 0, 76, 78
1, 2297, Note_on_c, 1, 56, 0
1, 2303, Note_on_c, 0, 76, 0
1, 2304, Note_on_c, 0, 75, 80
1, 2304, Note_on_c, 1, 57, 80
1, 2327, Note_on_c, 0, 75, 0
1, 2328, Note_on_c, 0, 73, 80
1, 2351, Note_on_c, 0, 73, 0
1, 2352, Note_on_c, 0, 71, 80
1, 2375, Note_on_c, 0, 71, 0
1, 2376, Note_on_c, 0, 69, 80
1, 2393, Note_on_c, 1, 57, 0
1, 2399, Note_on_c, 0, 69, 0
1, 2400, Note_on_c, 0, 68, 80
1, 2400, Note_on_c, 1, 59, 80
1, 2489, Note_on_c, 0, 68, 0
1, 2489, Note_on_c, 1, 59, 0
1, 2496, Note_on_c, 0, 66, 80
1, 2496, Note_on_c, 1, 47, 80
1, 2509, Note_on_c, 0, 66, 0
1, 2510, Note_on_c, 0, 68, 80
1, 2523, Note_on_c, 0, 68, 0
1, 2524, Note_on_c, 0, 66, 80
1, 2537, Note_on_c, 0, 66, 0
1, 2538, Note_on_c, 0, 68, 80
1, 2551, Note_on_c, 0, 68, 0
1, 2552, Note_on_c, 0, 66, 80
1, 2565, Note_on_c, 0, 66, 0
1, 2566, Note_on_c, 0, 64, 80
1, 2578, Note_on_c, 0, 64, 0
1, 2579, Note_on_c, 0, 66, 80
1, 2585, Note_on_c, 1, 47, 0
1, 2591, Note_on_c, 0, 66, 0
1, 2592, Note_on_c, 0, 64, 80
1, 2592, Note_on_c, 1, 52, 80
1, 2681, Note_on_c, 1, 52, 0
1, 2688, Note_on_c, 1, 47, 80
1, 2769, Note_on_c, 0, 64, 0
1, 2777, Note_on_c, 1, 47, 0
1, 2784, Note_on_c, 1, 40, 80
1, 2873, Note_on_c, 1, 40, 0
1, 2880, Note_on_c, 0, 69, 91
1, 2880, Note_on_c, 1, 57, 91
1, 2880, Note_on_c, 1, 45, 91
1, 2976, Note_on_c, 0, 69, 0
1, 2976, Note_on_c, 0, 73, 75
1, 2976, Note_on_c, 1, 57, 0
1, 2976, Note_on_c, 1, 45, 0
1, 3006, Note_on_c, 0, 73, 0
1, 3008, Note_on_c, 0, 71, 75
1, 3038, Note_on_c, 0, 71, 0
1, 3040, Note_on_c, 0, 69, 75
1, 3070, Note_on_c, 0, 69, 0
1, 3072, Note_on_c, 0, 76, 75
1, 3072, Note_on_c, 1, 61, 75
1, 3161, Note_on_c, 0, 76, 0
1, 3161, Note_on_c, 1, 61, 0
1, 3168, Note_on_c, 0, 74, 75
1, 3168, Note_on_c, 1, 59, 75
1, 3198, Note_on_c, 0, 74, 0
1, 3200, Note_on_c, 0, 76, 75
1, 3230, Note_on_c, 0, 76, 0
1, 3232, Note_on_c, 0, 78, 75
1, 3257, Note_on_c, 1, 59, 0
1, 3262, Note_on_c, 0, 78, 0
1, 3264, Note_on_c, 0, 71, 75
1, 3264, Note_on_c, 1, 56, 75
1, 3353, Note_on_c, 0, 71, 0
1, 3353, Note_on_c, 1, 56, 0
1, 3360, Note_on_c, 0, 74, 75
1, 3360, Note_on_c, 1, 52, 75
1, 3449, Note_on_c, 0, 74, 0
1, 3449, Note_on_c, 1, 52, 0
1, 3456, Note_on_c, 0, 73, 75
1, 3456, Note_on_c, 1, 57, 75
1, 3486, Note_on_c, 0, 73, 0
1, 3488, Note_on_c, 0, 74, 75
1, 3518, Note_on_c, 0, 74, 0
1, 3520, Note_on_c, 0, 76, 75
1, 3545, Note_on_c, 1, 57, 0
1, 3550, Note_on_c, 0, 76, 0
1, 3552, Note_on_c, 0, 69, 75
1, 3552, Note_on_c, 1, 61, 75
1, 3641, Note_on_c, 0, 69, 0
1, 3641, Note_on_c, 1, 61, 0
1, 3648, Note_on_c, 0, 83, 75
1, 3648, Note_on_c, 1, 57, 75
1, 3671, Note_on_c, 0, 83, 0
1, 3672, Note_on_c, 0, 81, 75
1, 3695, Note_on_c, 0, 81, 0
1, 3696, Note_on_c, 0, 80, 75
1, 3719, Note_on_c, 0, 80, 0
1, 3720, Note_on_c, 0, 78, 75
1, 3737, Note_on_c, 1, 57, 0
1, 3743, Note_on_c, 0, 78, 0
1, 3744, Note_on_c, 0, 76, 75
1, 3744, Note_on_c, 1, 59, 75
1, 3833, Note_on_c, 0, 76, 0
1, 3833, Note_on_c, 1, 59, 0
1, 3840, Note_on_c, 0, 74, 75
1, 3840, Note_on_c, 1, 52, 75
1, 3853, Note_on_c, 0, 74, 0
1, 3854, Note_on_c, 0, 76, 75
1, 3867, Note_on_c, 0, 76, 0
1, 3868, Note_on_c, 0, 74, 75
1, 3881, Note_on_c, 0, 74, 0
1, 3882, Note_on_c, 0, 76, 75
1, 3895, Note_on_c, 0, 76, 0
1, 3896, Note_on_c, 0, 74, 75
1, 3909, Note_on_c, 0, 74, 0
1, 3910, Note_on_c, 0, 73, 75
1, 3922, Note_on_c, 0, 73, 0
1, 3923, Note_on_c, 0, 74, 75
1, 3929, Note_on_c, 1, 52, 0
1, 3935, Note_on_c, 0, 74, 0
1, 3936, Note_on_c, 0, 73, 75
1, 3936, Note_on_c, 1, 57, 75
1, 4025, Note_on_c, 0, 73, 0
1, 4025, Note_on_c, 1, 57, 0
1, 4032, Note_on_c, 0, 81, 75
1, 4062, Note_on_c, 0, 81, 0
1, 4064, Note_on_c, 0, 83, 75
1, 4094, Note_on_c, 0, 83, 0
1, 4096, Note_on_c, 0, 85, 75
1, 4126, Note_on_c, 0, 85, 0
1, 4128, Note_on_c, 0, 83, 75
1, 4158, Note_on_c, 0, 83, 0
1, 4160, Note_on_c, 0, 81, 75
1, 4190, Note_on_c, 0, 81, 0
1, 4192, Note_on_c, 0, 80, 75
1, 4222, Note_on_c, 0, 80, 0
1, 4224, Note_on_c, 0, 78, 75
1, 4224, Note_on_c, 1, 63, 75
1, 4254, Note_on_c, 0, 78, 0
1, 4256, Note_on_c, 0, 80, 75
1, 4286, Note_on_c, 0, 80, 0
1, 4288, Note_on_c, 0, 81, 75
1, 4313, Note_on_c, 1, 63, 0
1, 4318, Note_on_c, 0, 81, 0
1, 4320, Note_on_c, 0, 80, 75
1, 4320, Note_on_c, 1, 64, 75
1, 4350, Note_on_c, 0, 80, 0
1, 4352, Note_on_c, 0, 78, 75
1, 4382, Note_on_c, 0, 78, 0
1, 4384, Note_on_c, 0, 76, 75
1, 4409, Note_on_c, 1, 64, 0
1, 4414, Note_on_c, 0, 76, 0
1, 4416, Note_on_c, 0, 75, 75
1, 4416, Note_on_c, 1, 66, 75
1, 4446, Note_on_c, 0, 75, 0
1, 4448, Note_on_c, 0, 73, 75
1, 4478, Note_on_c, 0, 73, 0
1, 4480, Note_on_c, 0, 71, 75
1, 4505, Note_on_c, 1, 66, 0
1, 4510, Note_on_c, 0, 71, 0
1, 4512, Note_on_c, 0, 76, 75
1, 4512, Note_on_c, 1, 68, 75
1, 4601, Note_on_c, 0, 76, 0
1, 4601, Note_on_c, 1, 68, 0
1, 4608, Note_on_c, 0, 81, 64
1, 4638, Note_on_c, 0, 81, 0
1, 4640, Note_on_c, 0, 83, 64
1, 4670, Note_on_c, 0, 83, 0
1, 4672, Note_on_c, 0, 85, 64
1, 4702, Note_on_c, 0, 85, 0
1, 4704, Note_on_c, 0, 83, 64
1, 4734, Note_on_c, 0, 83, 0
1, 4736, Note_on_c, 0, 81, 64
1, 4766, Note_on_c, 0, 81, 0
1, 4768, Note_on_c, 0, 80, 64
1, 4798, Note_on_c, 0, 80, 0
1, 4800, Note_on_c, 0, 78, 64
1, 4800, Note_on_c, 1, 51, 70
1, 4830, Note_on_c, 0, 78, 0
1, 4832, Note_on_c, 0, 80, 65
1, 4862, Note_on_c, 0, 80, 0
1, 4864, Note_on_c, 0, 81, 66
1, 4889, Note_on_c, 1, 51, 0
1, 4894, Note_on_c, 0, 81, 0
1, 4896, Note_on_c, 0, 80, 67
1, 4896, Note_on_c, 1, 52, 72
1, 4926, Note_on_c, 0, 80, 0
1, 4928, Note_on_c, 0, 81, 69
1, 4958, Note_on_c, 0, 81, 0
1, 4960, Note_on_c, 0, 83, 70
1, 4985, Note_on_c, 1, 52, 0
1, 4990, Note_on_c, 0, 83, 0
1, 4992, Note_on_c, 0, 75, 71
1, 4992, Note_on_c, 1, 54, 75
1, 5022, Note_on_c, 0, 75, 0
1, 5024, Note_on_c, 0, 76, 72
1, 5054, Note_on_c, 0, 76, 0
1, 5056, Note_on_c, 0, 78, 74
1, 5081, Note_on_c, 1, 54, 0
1, 5086, Note_on_c, 0, 78, 0
1, 5088, Note_on_c, 0, 76, 75
1, 5088, Note_on_c, 1, 56, 77
1, 5155, Note_on_c, 0, 76, 0
1, 5160, Note_on_c, 0, 76, 78
1, 5177, Note_on_c, 1, 56, 0
1, 5183, Note_on_c, 0, 76, 0
1, 5184, Note_on_c, 0, 75, 80
1, 5184, Note_on_c, 1, 57, 80
1, 5207, Note_on_c, 0, 75, 0
1, 5208, Note_on_c, 0, 73, 80
1, 5231, Note_on_c, 0, 73, 0
1, 5232, Note_on_c, 0, 71, 80
1, 5255, Note_on_c, 0, 71, 0
1, 5256, Note_on_c, 0, 69, 80
1, 5273, Note_on_c, 1, 57, 0
1, 5279, Note_on_c, 0, 69, 0
1, 5280, Note_on_c, 0, 68, 80
1, 5280, Note_on_c, 1, 59, 80
1, 5369, Note_on_c, 0, 68, 0
1, 5369, Note_on_c, 1, 59, 0
1, 5376, Note_on_c, 0, 66, 80
1, 5376, Note_on_c, 1, 47, 80
1, 5389, Note_on_c, 0, 66, 0
1, 5390, Note_on_c, 0, 68, 80
1, 5403, Note_on_c, 0, 68, 0
1, 5404, Note_on_c, 0, 66, 80
1, 5417, Note_on_c, 0, 66, 0
1, 5418, Note_on_c, 0, 68, 80
1, 5431, Note_on_c, 0, 68, 0
1, 5432, Note_on_c, 0, 66, 80
1, 5445, Note_on_c, 0, 66, 0
1, 5446, Note_on_c, 0, 64, 80
1, 5458, Note_on_c, 0, 64, 0
1, 5459, Note_on_c, 0, 66, 80
1, 5465, Note_on_c, 1, 47, 0
1, 5471, Note_on_c, 0, 66, 0
1, 5472, Note_on_c, 0, 64, 80
1, 5472, Note_on_c, 1, 52, 80
1, 5561, Note_on_c, 1, 52, 0
1, 5568, Note_on_c, 1, 47, 80
1, 5649, Note_on_c, 0, 64, 0
1, 5657, Note_on_c, 1, 47, 0
1, 5664, Note_on_c, 1, 40, 80
1, 5753, Note_on_c, 1, 40, 0
1, 5760, Note_on_c, 0, 64, 91
1, 5760, Note_on_c, 1, 52, 91
1, 5760, Note_on_c, 1, 40, 91
1, 5856, Note_on_c, 0, 64, 0
1, 5856, Note_on_c, 0, 68, 75
1, 5886, Note_on_c, 0, 68, 0
1, 5888, Note_on_c, 0, 66, 75
1, 5918, Note_on_c, 0, 66, 0
1, 5920, Note_on_c, 0, 64, 75
1, 5950, Note_on_c, 0, 64, 0
1, 5952, Note_on_c, 0, 74, 75
1, 5952, Note_on_c, 1, 52, 0
1, 5952, Note_on_c, 1, 40, 0
1, 5952, Note_on_c, 1, 56, 75
1, 6041, Note_on_c, 0, 74, 0
1, 6041, Note_on_c, 1, 56, 0
1, 6048, Note_on_c, 0, 73, 75
1, 6048, Note_on_c, 1, 57, 75
1, 6078, Note_on_c, 0, 73, 0
1, 6080, Note_on_c, 0, 74, 75
1, 6110, Note_on_c, 0, 74, 0
1, 6112, Note_on_c, 0, 76, 75
1, 6137, Note_on_c, 1, 57, 0
1, 6142, Note_on_c, 0, 76, 0
1, 6144, Note_on_c, 0, 68, 75
1, 6144, Note_on_c, 1, 59, 75
1, 6233, Note_on_c, 0, 68, 0
1, 6233, Note_on_c, 1, 59, 0
1, 6240, Note_on_c, 0, 69, 75
1, 6240, Note_on_c, 1, 61, 75
1, 6329, Note_on_c, 0, 69, 0
1, 6329, Note_on_c, 1, 61, 0
1, 6336, Note_on_c, 0, 78, 75
1, 6366, Note_on_c, 0, 78, 0
1, 6368, Note_on_c, 0, 80, 75
1, 6398, Note_on_c, 0, 80, 0
1, 6400, Note_on_c, 0, 81, 75
1, 6430, Note_on_c, 0, 81, 0
1, 6432, Note_on_c, 0, 76, 75
1, 6432, Note_on_c, 1, 73, 75
1, 6521, Note_on_c, 0, 76, 0
1, 6521, Note_on_c, 1, 73, 0
1, 6528, Note_on_c, 0, 73, 75
1, 6528, Note_on_c, 1, 69, 75
1, 6617, Note_on_c, 0, 73, 0
1, 6617, Note_on_c, 1, 69, 0
1, 6624, Note_on_c, 0, 74, 75
1, 6624, Note_on_c, 1, 71, 75
1, 6654, Note_on_c, 0, 74, 0
1, 6656, Note_on_c, 0, 76, 75
1, 6686, Note_on_c, 0, 76, 0
1, 6688, Note_on_c, 0, 78, 75
1, 6713, Note_on_c, 1, 71, 0
1, 6718, Note_on_c, 0, 78, 0
1, 6720, Note_on_c, 0, 74, 75
1, 6720, Note_on_c, 1, 68, 75
1, 6809, Note_on_c, 0, 74, 0
1, 6809, Note_on_c, 1, 68, 0
1, 6816, Note_on_c, 0, 73, 75
1, 6816, Note_on_c, 1, 69, 75
1, 6905, Note_on_c, 0, 73, 0
1, 6905, Note_on_c, 1, 69, 0
1, 6912, Note_on_c, 0, 73, 75
1, 6912, Note_on_c, 1, 66, 75
1, 6912, Note_on_c, 1, 62, 75
1, 6957, Note_on_c, 0, 73, 0
1, 6960, Note_on_c, 0, 71, 76
1, 7005, Note_on_c, 0, 71, 0
1, 7008, Note_on_c, 0, 78, 77
1, 7038, Note_on_c, 0, 78, 0
1, 7040, Note_on_c, 0, 76, 77
1, 7070, Note_on_c, 0, 76, 0
1, 7072, Note_on_c, 0, 74, 78
1, 7102, Note_on_c, 0, 74, 0
1, 7104, Note_on_c, 0, 73, 79
1, 7104, Note_on_c, 1, 62, 0
1, 7104, Note_on_c, 1, 63, 78
1, 7134, Note_on_c, 0, 73, 0
1, 7136, Note_on_c, 0, 71, 79
1, 7166, Note_on_c, 0, 71, 0
1, 7168, Note_on_c, 0, 69, 79
1, 7177, Note_on_c, 1, 66, 0
1, 7193, Note_on_c, 1, 63, 0
1, 7198, Note_on_c, 0, 69, 0
1, 7200, Note_on_c, 0, 69, 79
1, 7200, Note_on_c, 1, 64, 80
1, 7289, Note_on_c, 1, 64, 0
1, 7296, Note_on_c, 1, 59, 78
1, 7385, Note_on_c, 1, 59, 0
1, 7392, Note_on_c, 0, 69, 0
1, 7392, Note_on_c, 0, 68, 79
1, 7392, Note_on_c, 1, 52, 76
1, 7465, Note_on_c, 0, 68, 0
1, 7481, Note_on_c, 1, 52, 0
1, 7488, Note_on_c, 0, 69, 91
1, 7488, Note_on_c, 1, 57, 91
1, 7488, Note_on_c, 1, 45, 91
1, 7584, Note_on_c, 0, 69, 0
1, 7584, Note_on_c, 0, 73, 75
1, 7584, Note_on_c, 1, 57, 0
1, 7584, Note_on_c, 1, 45, 0
1, 7614, Note_on_c, 0, 73, 0
1, 7616, Note_on_c, 0, 71, 75
1, 7646, Note_on_c, 0, 71, 0
1, 7648, Note_on_c, 0, 69, 75
1, 7678, Note_on_c, 0, 69, 0
1, 7680, Note_on_c, 0, 76, 75
1, 7680, Note_on_c, 1, 61, 75
1, 7769, Note_on_c, 0, 76, 0
1, 7769, Note_on_c, 1, 61, 0
1, 7776, Note_on_c, 0, 74, 75
1, 7776, Note_on_c, 1, 59, 75
1, 7806, Note_on_c, 0, 74, 0
1, 7808, Note_on_c, 0, 76, 75
1, 7838, Note_on_c, 0, 76, 0
1, 7840, Note_on_c, 0, 78, 75
1, 7865, Note_on_c, 1, 59, 0
1, 7870, Note_on_c, 0, 78, 0
1, 7872, Note_on_c, 0, 71, 75
1, 7872, Note_on_c, 1, 56, 75
1, 7961, Note_on_c, 0, 71, 0
1, 7961, Note_on_c, 1, 56, 0
1, 7968, Note_on_c, 0, 74, 75
1, 7968, Note_on_c, 1, 52, 75
1, 8057, Note_on_c, 0, 74, 0
1, 8057, Note_on_c, 1, 52, 0
1, 8064, Note_on_c, 0, 73, 75
1, 8064, Note_on_c, 1, 57, 75
1, 8094, Note_on_c, 0, 73, 0
1, 8096, Note_on_c, 0, 74, 75
1, 8126, Note_on_c, 0, 74, 0
1, 8128, Note_on_c, 0, 76, 75
1, 8153, Note_on_c, 1, 57, 0
1, 8158, Note_on_c, 0, 76, 0
1, 8160, Note_on_c, 0, 69, 75
1, 8160, Note_on_c, 1, 61, 75
1, 8249, Note_on_c, 0, 69, 0
1, 8249, Note_on_c, 1, 61, 0
1, 8256, Note_on_c, 0, 83, 75
1, 8256, Note_on_c, 1, 57, 75
1, 8279, Note_on_c, 0, 83, 0
1, 8280, Note_on_c, 0, 81, 75
1, 8303, Note_on_c, 0, 81, 0
1, 8304, Note_on_c, 0, 80, 75
1, 8327, Note_on_c, 0, 80, 0
1, 8328, Note_on_c, 0, 78, 75
1, 8345, Note_on_c, 1, 57, 0
1, 8351, Note_on_c, 0, 78, 0
1, 8352, Note_on_c, 0, 76, 75
1, 8352, Note_on_c, 1, 59, 75
1, 8441, Note_on_c, 0, 76, 0
1, 8441, Note_on_c, 1, 59, 0
1, 8448, Note_on_c, 0, 74, 75
1, 8448, Note_on_c, 1, 52, 75
1, 8461, Note_on_c, 0, 74, 0
1, 8462, Note_on_c, 0, 76, 75
1, 8475, Note_on_c, 0, 76, 0
1, 8476, Note_on_c, 0, 74, 75
1, 8489, Note_on_c, 0, 74, 0
1, 8490, Note_on_c, 0, 76, 75
1, 8503, Note_on_c, 0, 76, 0
1, 8504, Note_on_c, 0, 74, 75
1, 8517, Note_on_c, 0, 74, 0
1, 8518, Note_on_c, 0, 73, 75
1, 8530, Note_on_c, 0, 73, 0
1, 8531, Note_on_c, 0, 74, 75
1, 8537, Note_on_c, 1, 52, 0
1, 8543, Note_on_c, 0, 74, 0
1, 8544, Note_on_c, 0, 73, 75
1, 8544, Note_on_c, 1, 57, 75
1, 8633, Note_on_c, 0, 73, 0
1, 8633, Note_on_c, 1, 57, 0
1, 8640, Note_on_c, 0, 78, 91
1, 8640, Note_on_c, 1, 62, 91
1, 8640, Note_on_c, 1, 50, 91
1, 8736, Note_on_c, 0, 78, 0
1, 8736, Note_on_c, 0, 86, 75
1, 8766, Note_on_c, 0, 86, 0
1, 8768, Note_on_c, 0, 85, 75
1, 8798, Note_on_c, 0, 85, 0
1, 8800, Note_on_c, 0, 83, 75
1, 8830, Note_on_c, 0, 83, 0
1, 8832, Note_on_c, 0, 81, 75
1, 8832, Note_on_c, 1, 62, 0
1, 8832, Note_on_c, 1, 50, 0
1, 8862, Note_on_c, 0, 81, 0
1, 8864, Note_on_c, 0, 80, 75
1, 8894, Note_on_c, 0, 80, 0
1, 8896, Note_on_c, 0, 78, 75
1, 8926, Note_on_c, 0, 78, 0
1, 8928, Note_on_c, 0, 76, 91
1, 8928, Note_on_c, 1, 61, 75
1, 8928, Note_on_c, 1, 57, 75
1, 8960, Note_on_c, 0, 76, 0
1, 8960, Note_on_c, 0, 78, 75
1, 8990, Note_on_c, 0, 78, 0
1, 8992, Note_on_c, 0, 80, 75
1, 9022, Note_on_c, 0, 80, 0
1, 9024, Note_on_c, 0, 81, 75
1, 9054, Note_on_c, 0, 81, 0
1, 9056, Note_on_c, 0, 80, 75
1, 9086, Note_on_c, 0, 80, 0
1, 9088, Note_on_c, 0, 78, 75
1, 9105, Note_on_c, 1, 61, 0
1, 9105, Note_on_c, 1, 57, 0
1, 9118, Note_on_c, 0, 78, 0
1, 9120, Note_on_c, 0, 76, 75
1, 9150, Note_on_c, 0, 76, 0
1, 9152, Note_on_c, 0, 74, 75
1, 9182, Note_on_c, 0, 74, 0
1, 9184, Note_on_c, 0, 73, 75
1, 9214, Note_on_c, 0, 73, 0
1, 9216, Note_on_c, 0, 71, 75
1, 9216, Note_on_c, 1, 62, 75
1, 9216, Note_on_c, 1, 50, 75
1, 9246, Note_on_c, 0, 71, 0
1, 9248, Note_on_c, 0, 74, 75
1, 9278, Note_on_c, 0, 74, 0
1, 9280, Note_on_c, 0, 78, 75
1, 9305, Note_on_c, 1, 62, 0
1, 9305, Note_on_c, 1, 50, 0
1, 9310, Note_on_c, 0, 78, 0
1, 9312, Note_on_c, 0, 69, 75
1, 9312, Note_on_c, 1, 61, 75
1, 9312, Note_on_c, 1, 52, 75
1, 9401, Note_on_c, 0, 69, 0
1, 9401, Note_on_c, 1, 61, 0
1, 9401, Note_on_c, 1, 52, 0
1, 9408, Note_on_c, 0, 68, 75
1, 9408, Note_on_c, 1, 59, 75
1, 9408, Note_on_c, 1, 52, 75
1, 9421, Note_on_c, 0, 68, 0
1, 9422, Note_on_c, 0, 69, 75
1, 9435, Note_on_c, 0, 69, 0
1, 9436, Note_on_c, 0, 68, 75
1, 9449, Note_on_c, 0, 68, 0
1, 9450, Note_on_c, 0, 69, 75
1, 9463, Note_on_c, 0, 69, 0
1, 9464, Note_on_c, 0, 68, 75
1, 9477, Note_on_c, 0, 68, 0
1, 9478, Note_on_c, 0, 66, 75
1, 9490, Note_on_c, 0, 66, 0
1, 9491, Note_on_c, 0, 68, 75
1, 9497, Note_on_c, 1, 59, 0
1, 9497, Note_on_c, 1, 52, 0
1, 9503, Note_on_c, 0, 68, 0
1, 9504, Note_on_c, 0, 69, 75
1, 9504, Note_on_c, 1, 57, 75
1, 9593, Note_on_c, 1, 57, 0
1, 9600, Note_on_c, 1, 52, 75
1, 9681, Note_on_c, 0, 69, 0
1, 9689, Note_on_c, 1, 52, 0
1, 9696, Note_on_c, 1, 45, 75
1, 9785, Note_on_c, 1, 45, 0
1, 9792, Note_on_c, 0, 64, 91
1, 9792, Note_on_c, 1, 52, 91
1, 9792, Note_on_c, 1, 40, 91
1, 9888, Note_on_c, 0, 64, 0
1, 9888, Note_on_c, 0, 68, 75
1, 9918, Note_on_c, 0, 68, 0
1, 9920, Note_on_c, 0, 66, 75
1, 9950, Note_on_c, 0, 66, 0
1, 9952, Note_on_c, 0, 64, 75
1, 9982, Note_on_c, 0, 64, 0
1, 9984, Note_on_c, 0, 74, 75
1, 9984, Note_on_c, 1, 52, 0
1, 9984, Note_on_c, 1, 40, 0
1, 9984, Note_on_c, 1, 56, 75
1, 10073, Note_on_c, 0, 74, 0
1, 10073, Note_on_c, 1, 56, 0
1, 10080, Note_on_c, 0, 73, 75
1, 10080, Note_on_c, 1, 57, 75
1, 10110, Note_on_c, 0, 73, 0
1, 10112, Note_on_c, 0, 74, 75
1, 10142, Note_on_c, 0, 74, 0
1, 10144, Note_on_c, 0, 76, 75
1, 10169, Note_on_c, 1, 57, 0
1, 10174, Note_on_c, 0, 76, 0
1, 10176, Note_on_c, 0, 68, 75
1, 10176, Note_on_c, 1, 59, 75
1, 10265, Note_on_c, 0, 68, 0
1, 10265, Note_on_c, 1, 59, 0
1, 10272, Note_on_c, 0, 69, 75
1, 10272, Note_on_c, 1, 61, 75
1, 10361, Note_on_c, 0, 69, 0
1, 10361, Note_on_c, 1, 61, 0
1, 10368, Note_on_c, 0, 78, 75
1, 10398, Note_on_c, 0, 78, 0
1, 10400, Note_on_c, 0, 80, 75
1, 10430, Note_on_c, 0, 80, 0
1, 10432, Note_on_c, 0, 81, 75
1, 10462, Note_on_c, 0, 81, 0
1, 10464, Note_on_c, 0, 76, 75
1, 10464, Note_on_c, 1, 73, 75
1, 10553, Note_on_c, 0, 76, 0
1, 10553, Note_on_c, 1, 73, 0
1, 10560, Note_on_c, 0, 73, 75
1, 10560, Note_on_c, 1, 69, 75
1, 10649, Note_on_c, 0, 73, 0
1, 10649, Note_on_c, 1, 69, 0
1, 10656, Note_on_c, 0, 74, 75
1, 10656, Note_on_c, 1, 71, 75
1, 10686, Note_on_c, 0, 74, 0
1, 10688, Note_on_c, 0, 76, 75
1, 10718, Note_on_c, 0, 76, 0
1, 10720, Note_on_c, 0, 78, 75
1, 10745, Note_on_c, 1, 71, 0
1, 10750, Note_on_c, 0, 78, 0
1, 10752, Note_on_c, 0, 74, 75
1, 10752, Note_on_c, 1, 68, 75
1, 10841, Note_on_c, 0, 74, 0
1, 10841, Note_on_c, 1, 68, 0
1, 10848, Note_on_c, 0, 73, 75
1, 10848, Note_on_c, 1, 69, 75
1, 10937, Note_on_c, 0, 73, 0
1, 10937, Note_on_c, 1, 69, 0
1, 10944, Note_on_c, 0, 73, 75
1, 10944, Note_on_c, 1, 66, 75
1, 10944, Note_on_c, 1, 62, 75
1, 10989, Note_on_c, 0, 73, 0
1, 10992, Note_on_c, 0, 71, 76
1, 11037, Note_on_c, 0, 71, 0
1, 11040, Note_on_c, 0, 78, 77
1, 11070, Note_on_c, 0, 78, 0
1, 11072, Note_on_c, 0, 76, 77
1, 11102, Note_on_c, 0, 76, 0
1, 11104, Note_on_c, 0, 74, 78
1, 11134, Note_on_c, 0, 74, 0
1, 11136, Note_on_c, 0, 73, 79
1, 11136, Note_on_c, 1, 62, 0
1, 11136, Note_on_c, 1, 63, 78
1, 11166, Note_on_c, 0, 73, 0
1, 11168, Note_on_c, 0, 71, 79
1, 11198, Note_on_c, 0, 71, 0
1, 11200, Note_on_c, 0, 69, 79
1, 11209, Note_on_c, 1, 66, 0
1, 11225, Note_on_c, 1, 63, 0
1, 11230, Note_on_c, 0, 69, 0
1, 11232, Note_on_c, 0, 69, 79
1, 11232, Note_on_c, 1, 64, 80
1, 11321, Note_on_c, 1, 64, 0
1, 11328, Note_on_c, 1, 59, 78
1, 11417, Note_on_c, 1, 59, 0
1, 11424, Note_on_c, 0, 69, 0
1, 11424, Note_on_c, 0, 68, 79
1, 11424, Note_on_c, 1, 52, 76
1, 11497, Note_on_c, 0, 68, 0
1, 11513, Note_on_c, 1, 52, 0
1, 11520, Note_on_c, 0, 69, 91
1, 11520, Note_on_c, 1, 57, 91
1, 11520, Note_on_c, 1, 45, 91
1, 11616, Note_on_c, 0, 69, 0
1, 11616, Note_on_c, 0, 73, 75
1, 11616, Note_on_c, 1, 57, 0
1, 11616, Note_on_c, 1, 45, 0
1, 11646, Note_on_c, 0, 73, 0
1, 11648, Note_on_c, 0, 71, 75
1, 11678, Note_on_c, 0, 71, 0
1, 11680, Note_on_c, 0, 69, 75
1, 11710, Note_on_c, 0, 69, 0
1, 11712, Note_on_c, 0, 76, 75
1, 11712, Note_on_c, 1, 61, 75
1, 11801, Note_on_c, 0, 76, 0
1, 11801, Note_on_c, 1, 61, 0
1, 11808, Note_on_c, 0, 74, 75
1, 11808, Note_on_c, 1, 59, 75
1, 11838, Note_on_c, 0, 74, 0
1, 11840, Note_on_c, 0, 76, 75
1, 11870, Note_on_c, 0, 76, 0
1, 11872, Note_on_c, 0, 78, 75
1, 11897, Note_on_c, 1, 59, 0
1, 11902, Note_on_c, 0, 78, 0
1, 11904, Note_on_c, 0, 71, 75
1, 11904, Note_on_c, 1, 56, 75
1, 11993, Note_on_c, 0, 71, 0
1, 11993, Note_on_c, 1, 56, 0
1, 12000, Note_on_c, 0, 74, 75
1, 12000, Note_on_c, 1, 52, 75
1, 12089, Note_on_c, 0, 74, 0
1, 12089, Note_on_c, 1, 52, 0
1, 12096, Note_on_c, 0, 73, 75
1, 12096, Note_on_c, 1, 57, 75
1, 12126, Note_on_c, 0, 73, 0
1, 12128, Note_on_c, 0, 74, 75
1, 12158, Note_on_c, 0, 74, 0
1, 12160, Note_on_c, 0, 76, 75
1, 12185, Note_on_c, 1, 57, 0
1, 12190, Note_on_c, 0, 76, 0
1, 12192, Note_on_c, 0, 69, 75
1, 12192, Note_on_c, 1, 61, 75
1, 12281, Note_on_c, 0, 69, 0
1, 12281, Note_on_c, 1, 61, 0
1, 12288, Note_on_c, 0, 83, 75
1, 12288, Note_on_c, 1, 57, 75
1, 12311, Note_on_c, 0, 83, 0
1, 12312, Note_on_c, 0, 81, 75
1, 12335, Note_on_c, 0, 81, 0
1, 12336, Note_on_c, 0, 80, 75
1, 12359, Note_on_c, 0, 80, 0
1, 12360, Note_on_c, 0, 78, 75
1, 12377, Note_on_c, 1, 57, 0
1, 12383, Note_on_c, 0, 78, 0
1, 12384, Note_on_c, 0, 76, 75
1, 12384, Note_on_c, 1, 59, 75
1, 12473, Note_on_c, 0, 76, 0
1, 12473, Note_on_c, 1, 59, 0
1, 12480, Note_on_c, 0, 74, 75
1, 12480, Note_on_c, 1, 52, 75
1, 12493, Note_on_c, 0, 74, 0
1, 12494, Note_on_c, 0, 76, 75
1, 12507, Note_on_c, 0, 76, 0
1, 12508, Note_on_c, 0, 74, 75
1, 12521, Note_on_c, 0, 74, 0
1, 12522, Note_on_c, 0, 76, 75
1, 12535, Note_on_c, 0, 76, 0
1, 12536, Note_on_c, 0, 74, 75
1, 12549, Note_on_c, 0, 74, 0
1, 12550, Note_on_c, 0, 73, 75
1, 12562, Note_on_c, 0, 73, 0
1, 12563, Note_on_c, 0, 74, 75
1, 12569, Note_on_c, 1, 52, 0
1, 12575, Note_on_c, 0, 74, 0
1, 12576, Note_on_c, 0, 73, 75
1, 12576, Note_on_c, 1, 57, 75
1, 12665, Note_on_c, 0, 73, 0
1, 12665, Note_on_c, 1, 57, 0
1, 12672, Note_on_c, 0, 78, 91
1, 12672, Note_on_c, 1, 62, 91
1, 12672, Note_on_c, 1, 50, 91
1, 12768, Note_on_c, 0, 78, 0
1, 12768, Note_on_c, 0, 86, 75
1, 12798, Note_on_c, 0, 86, 0
1, 12800, Note_on_c, 0, 85, 75
1, 12830, Note_on_c, 0, 85, 0
1, 12832, Note_on_c, 0, 83, 75
1, 12862, Note_on_c, 0, 83, 0
1, 12864, Note_on_c, 0, 81, 75
1, 12864, Note_on_c, 1, 62, 0
1, 12864, Note_on_c, 1, 50, 0
1, 12894, Note_on_c, 0, 81, 0
1, 12896, Note_on_c, 0, 80, 75
1, 12926, Note_on_c, 0, 80, 0
1, 12928, Note_on_c, 0, 78, 75
1, 12958, Note_on_c, 0, 78, 0
1, 12960, Note_on_c, 0, 76, 91
1, 12960, Note_on_c, 1, 61, 75
1, 12960, Note_on_c, 1, 57, 75
1, 12992, Note_on_c, 0, 76, 0
1, 12992, Note_on_c, 0, 78, 75
1, 13022, Note_on_c, 0, 78, 0
1, 13024, Note_on_c, 0, 80, 75
1, 13054, Note_on_c, 0, 80, 0
1, 13056, Note_on_c, 0, 81, 75
1, 13086, Note_on_c, 0, 81, 0
1, 13088, Note_on_c, 0, 80, 75
1, 13118, Note_on_c, 0, 80, 0
1, 13120, Note_on_c, 0, 78, 75
1, 13137, Note_on_c, 1, 61, 0
1, 13137, Note_on_c, 1, 57, 0
1, 13150, Note_on_c, 0, 78, 0
1, 13152, Note_on_c, 0, 76, 75
1, 13182, Note_on_c, 0, 76, 0
1, 13184, Note_on_c, 0, 74, 75
1, 13214, Note_on_c, 0, 74, 0
1, 13216, Note_on_c, 0, 73, 75
1, 13246, Note_on_c, 0, 73, 0
1, 13248, Note_on_c, 0, 71, 75
1, 13248, Note_on_c, 1, 62, 75
1, 13248, Note_on_c, 1, 50, 75
1, 13278, Note_on_c, 0, 71, 0
1, 13280, Note_on_c, 0, 74, 75
1, 13310, Note_on_c, 0, 74, 0
1, 13312, Note_on_c, 0, 78, 75
1, 13337, Note_on_c, 1, 62, 0
1, 13337, Note_on_c, 1, 50, 0
1, 13342, Note_on_c, 0, 78, 0
1, 13344, Note_on_c, 0, 69, 75
1, 13344, Note_on_c, 1, 61, 75
1, 13344, Note_on_c, 1, 52, 75
1, 13433, Note_on_c, 0, 69, 0
1, 13433, Note_on_c, 1, 61, 0
1, 13433, Note_on_c, 1, 52, 0
1, 13440, Note_on_c, 0, 68, 75
1, 13440, Note_on_c, 1, 59, 75
1, 13440, Note_on_c, 1, 52, 75
1, 13453, Note_on_c, 0, 68, 0
1, 13454, Note_on_c, 0, 69, 75
1, 13467, Note_on_c, 0, 69, 0
1, 13468, Note_on_c, 0, 68, 75
1, 13481, Note_on_c, 0, 68, 0
1, 13482, Note_on_c, 0, 69, 75
1, 13495, Note_on_c, 0, 69, 0
1, 13496, Note_on_c, 0, 68, 75
1, 13509, Note_on_c, 0, 68, 0
1, 13510, Note_on_c, 0, 66, 75
1, 13522, Note_on_c, 0, 66, 0
1, 13523, Note_on_c, 0, 68, 75
1, 13529, Note_on_c, 1, 59, 0
1, 13529, Note_on_c, 1, 52, 0
1, 13535, Note_on_c, 0, 68, 0
1, 13536, Note_on_c, 0, 69, 75
1, 13536, Note_on_c, 1, 57, 75
1, 13625, Note_on_c, 1, 57, 0
1, 13632, Note_on_c, 1, 52, 75
1, 13713, Note_on_c, 0, 69, 0
1, 13721, Note_on_c, 1, 52, 0
1, 13728, Note_on_c, 1, 45, 75
1, 13817, Note_on_c, 1, 45, 0
1, 13824, Note_on_c, 1, 57, 64
1, 13872, Note_on_c, 0, 72, 64
1, 13920, Note_on_c, 1, 64, 64
1, 13961, Note_on_c, 0, 72, 0
1, 13968, Note_on_c, 0, 71, 64
1, 14009, Note_on_c, 1, 64, 0
1, 14016, Note_on_c, 1, 65, 64
1, 14057, Note_on_c, 0, 71, 0
1, 14064, Note_on_c, 0, 69, 64
1, 14089, Note_on_c, 1, 57, 0
1, 14109, Note_on_c, 0, 69, 0
1, 14112, Note_on_c, 1, 56, 64
1, 14160, Note_on_c, 0, 71, 64
1, 14201, Note_on_c, 1, 65, 0
1, 14208, Note_on_c, 1, 63, 64
1, 14249, Note_on_c, 0, 71, 0
1, 14256, Note_on_c, 0, 83, 64
1, 14304, Note_on_c, 1, 63, 0
1, 14304, Note_on_c, 1, 64, 64
1, 14345, Note_on_c, 0, 83, 0
1, 14352, Note_on_c, 0, 76, 64
1, 14377, Note_on_c, 1, 56, 0
1, 14393, Note_on_c, 1, 64, 0
1, 14397, Note_on_c, 0, 76, 0
1, 14400, Note_on_c, 1, 55, 64
1, 14448, Note_on_c, 0, 71, 64
1, 14496, Note_on_c, 1, 63, 64
1, 14537, Note_on_c, 0, 71, 0
1, 14544, Note_on_c, 0, 69, 64
1, 14585, Note_on_c, 1, 63, 0
1, 14592, Note_on_c, 1, 64, 64
1, 14633, Note_on_c, 0, 69, 0
1, 14640, Note_on_c, 0, 67, 64
1, 14665, Note_on_c, 1, 55, 0
1, 14685, Note_on_c, 0, 67, 0
1, 14688, Note_on_c, 1, 54, 64
1, 14736, Note_on_c, 0, 69, 64
1, 14777, Note_on_c, 1, 64, 0
1, 14784, Note_on_c, 1, 61, 64
1, 14825, Note_on_c, 0, 69, 0
1, 14832, Note_on_c, 0, 81, 64
1, 14880, Note_on_c, 1, 61, 0
1, 14880, Note_on_c, 1, 62, 64
1, 14921, Note_on_c, 0, 81, 0
1, 14928, Note_on_c, 0, 74, 64
1, 14953, Note_on_c, 1, 54, 0
1, 14969, Note_on_c, 1, 62, 0
1, 14973, Note_on_c, 0, 74, 0
1, 14976, Note_on_c, 1, 53, 64
1, 15024, Note_on_c, 0, 69, 64
1, 15072, Note_on_c, 1, 61, 64
1, 15113, Note_on_c, 0, 69, 0
1, 15120, Note_on_c, 0, 67, 64
1, 15168, Note_on_c, 1, 61, 0
1, 15168, Note_on_c, 1, 62, 64
1, 15209, Note_on_c, 0, 67, 0
1, 15216, Note_on_c, 0, 65, 64
1, 15241, Note_on_c, 1, 53, 0
1, 15257, Note_on_c, 1, 62, 0
1, 15261, Note_on_c, 0, 65, 0
1, 15264, Note_on_c, 1, 52, 64
1, 15312, Note_on_c, 0, 67, 64
1, 15360, Note_on_c, 1, 59, 64
1, 15401, Note_on_c, 0, 67, 0
1, 15408, Note_on_c, 0, 79, 64
1, 15456, Note_on_c, 1, 59, 0
1, 15456, Note_on_c, 1, 60, 64
1, 15497, Note_on_c, 0, 79, 0
1, 15504, Note_on_c, 0, 72, 64
1, 15529, Note_on_c, 1, 52, 0
1, 15545, Note_on_c, 1, 60, 0
1, 15549, Note_on_c, 0, 72, 0
1, 15552, Note_on_c, 1, 52, 64
1, 15600, Note_on_c, 0, 79, 64
1, 15648, Note_on_c, 1, 59, 64
1, 15689, Note_on_c, 0, 79, 0
1, 15696, Note_on_c, 0, 67, 65
1, 15737, Note_on_c, 1, 59, 0
1, 15744, Note_on_c, 1, 60, 65
1, 15785, Note_on_c, 0, 67, 0
1, 15792, Note_on_c, 0, 70, 66
1, 15817, Note_on_c, 1, 52, 0
1, 15837, Note_on_c, 0, 70, 0
1, 15840, Note_on_c, 0, 69, 67
1, 15840, Note_on_c, 1, 53, 64
1, 15885, Note_on_c, 0, 69, 0
1, 15888, Note_on_c, 0, 81, 68
1, 15929, Note_on_c, 1, 60, 0
1, 15936, Note_on_c, 1, 61, 68
1, 15977, Note_on_c, 0, 81, 0
1, 15984, Note_on_c, 0, 69, 69
1, 16025, Note_on_c, 1, 61, 0
1, 16032, Note_on_c, 1, 62, 69
1, 16073, Note_on_c, 0, 69, 0
1, 16080, Note_on_c, 0, 72, 70
1, 16105, Note_on_c, 1, 53, 0
1, 16125, Note_on_c, 0, 72, 0
1, 16128, Note_on_c, 0, 71, 71
1, 16128, Note_on_c, 1, 55, 69
1, 16173, Note_on_c, 0, 71, 0
1, 16176, Note_on_c, 0, 83, 72
1, 16217, Note_on_c, 1, 62, 0
1, 16224, Note_on_c, 1, 63, 72
1, 16265, Note_on_c, 0, 83, 0
1, 16272, Note_on_c, 0, 71, 73
1, 16313, Note_on_c, 1, 63, 0
1, 16320, Note_on_c, 1, 64, 74
1, 16361, Note_on_c, 0, 71, 0
1, 16368, Note_on_c, 0, 74, 75
1, 16393, Note_on_c, 1, 55, 0
1, 16413, Note_on_c, 0, 74, 0
1, 16416, Note_on_c, 0, 72, 75
1, 16416, Note_on_c, 1, 57, 74
1, 16461, Note_on_c, 0, 72, 0
1, 16464, Note_on_c, 0, 84, 76
1, 16505, Note_on_c, 1, 64, 0
1, 16512, Note_on_c, 1, 64, 77
1, 16553, Note_on_c, 0, 84, 0
1, 16560, Note_on_c, 0, 72, 77
1, 16601, Note_on_c, 1, 64, 0
1, 16608, Note_on_c, 1, 65, 78
1, 16649, Note_on_c, 0, 72, 0
1, 16656, Note_on_c, 0, 76, 79
1, 16681, Note_on_c, 1, 57, 0
1, 16701, Note_on_c, 0, 76, 0
1, 16704, Note_on_c, 0, 74, 80
1, 16704, Note_on_c, 1, 59, 80
1, 16749, Note_on_c, 0, 74, 0
1, 16752, Note_on_c, 0, 86, 80
1, 16793, Note_on_c, 1, 65, 0
1, 16800, Note_on_c, 1, 66, 80
1, 16841, Note_on_c, 0, 86, 0
1, 16848, Note_on_c, 0, 74, 80
1, 16889, Note_on_c, 1, 66, 0
1, 16896, Note_on_c, 1, 67, 80
1, 16937, Note_on_c, 0, 74, 0
1, 16944, Note_on_c, 0, 77, 80
1, 16969, Note_on_c, 1, 59, 0
1, 16985, Note_on_c, 1, 67, 0
1, 16992, Note_on_c, 1, 60, 80
1, 17037, Note_on_c, 0, 77, 0
1, 17040, Note_on_c, 0, 76, 80
1, 17081, Note_on_c, 1, 60, 0
1, 17088, Note_on_c, 1, 62, 80
1, 17129, Note_on_c, 0, 76, 0
1, 17136, Note_on_c, 0, 71, 80
1, 17177, Note_on_c, 1, 62, 0
1, 17184, Note_on_c, 1, 64, 80
1, 17225, Note_on_c, 0, 71, 0
1, 17232, Note_on_c, 0, 72, 80
1, 17273, Note_on_c, 1, 64, 0
1, 17280, Note_on_c, 1, 65, 80
1, 17280, Note_on_c, 1, 53, 80
1, 17325, Note_on_c, 0, 72, 0
1, 17328, Note_on_c, 0, 74, 80
1, 17369, Note_on_c, 1, 65, 0
1, 17369, Note_on_c, 1, 53, 0
1, 17376, Note_on_c, 1, 64, 80
1, 17376, Note_on_c, 1, 55, 80
1, 17417, Note_on_c, 0, 74, 0
1, 17424, Note_on_c, 0, 72, 80
1, 17465, Note_on_c, 1, 64, 0
1, 17465, Note_on_c, 1, 55, 0
1, 17472, Note_on_c, 1, 62, 80
1, 17472, Note_on_c, 1, 55, 80
1, 17513, Note_on_c, 0, 72, 0
1, 17520, Note_on_c, 0, 71, 80
1, 17561, Note_on_c, 1, 62, 0
1, 17561, Note_on_c, 1, 55, 0
1, 17565, Note_on_c, 0, 71, 0
1, 17568, Note_on_c, 0, 71, 80
1, 17568, Note_on_c, 1, 60, 80
1, 17657, Note_on_c, 1, 60, 0
1, 17664, Note_on_c, 0, 71, 0
1, 17664, Note_on_c, 0, 72, 80
1, 17664, Note_on_c, 1, 55, 80
1, 17745, Note_on_c, 0, 72, 0
1, 17753, Note_on_c, 1, 55, 0
1, 17760, Note_on_c, 1, 48, 80
1, 17849, Note_on_c, 1, 48, 0
1, 17856, Note_on_c, 1, 57, 64
1, 17904, Note_on_c, 0, 72, 64
1, 17952, Note_on_c, 1, 64, 64
1, 17993, Note_on_c, 0, 72, 0
1, 18000, Note_on_c, 0, 71, 64
1, 18041, Note_on_c, 1, 64, 0
1, 18048, Note_on_c, 1, 65, 64
1, 18089, Note_on_c, 0, 71, 0
1, 18096, Note_on_c, 0, 69, 64
1, 18121, Note_on_c, 1, 57, 0
1, 18141, Note_on_c, 0, 69, 0
1, 18144, Note_on_c, 1, 56, 64
1, 18192, Note_on_c, 0, 71, 64
1, 18233, Note_on_c, 1, 65, 0
1, 18240, Note_on_c, 1, 63, 64
1, 18281, Note_on_c, 0, 71, 0
1, 18288, Note_on_c, 0, 83, 64
1, 18336, Note_on_c, 1, 63, 0
1, 18336, Note_on_c, 1, 64, 64
1, 18377, Note_on_c, 0, 83, 0
1, 18384, Note_on_c, 0, 76, 64
1, 18409, Note_on_c, 1, 56, 0
1, 18425, Note_on_c, 1, 64, 0
1, 18429, Note_on_c, 0, 76, 0
1, 18432, Note_on_c, 1, 55, 64
1, 18480, Note_on_c, 0, 71, 64
1, 18528, Note_on_c, 1, 63, 64
1, 18569, Note_on_c, 0, 71, 0
1, 18576, Note_on_c, 0, 69, 64
1, 18617, Note_on_c, 1, 63, 0
1, 18624, Note_on_c, 1, 64, 64
1, 18665, Note_on_c, 0, 69, 0
1, 18672, Note_on_c, 0, 67, 64
1, 18697, Note_on_c, 1, 55, 0
1, 18717, Note_on_c, 0, 67, 0
1, 18720, Note_on_c, 1, 54, 64
1, 18768, Note_on_c, 0, 69, 64
1, 18809, Note_on_c, 1, 64, 0
1, 18816, Note_on_c, 1, 61, 64
1, 18857, Note_on_c, 0, 69, 0
1, 18864, Note_on_c, 0, 81, 64
1, 18912, Note_on_c, 1, 61, 0
1, 18912, Note_on_c, 1, 62, 64
1, 18953, Note_on_c, 0, 81, 0
1, 18960, Note_on_c, 0, 74, 64
1, 18985, Note_on_c, 1, 54, 0
1, 19001, Note_on_c, 1, 62, 0
1, 19005, Note_on_c, 0, 74, 0
1, 19008, Note_on_c, 1, 53, 64
1, 19056, Note_on_c, 0, 69, 64
1, 19104, Note_on_c, 1, 61, 64
1, 19145, Note_on_c, 0, 69, 0
1, 19152, Note_on_c, 0, 67, 64
1, 19200, Note_on_c, 1, 61, 0
1, 19200, Note_on_c, 1, 62, 64
1, 19241, Note_on_c, 0, 67, 0
1, 19248, Note_on_c, 0, 65, 64
1, 19273, Note_on_c, 1, 53, 0
1, 19289, Note_on_c, 1, 62, 0
1, 19293, Note_on_c, 0, 65, 0
1, 19296, Note_on_c, 1, 52, 64
1, 19344, Note_on_c, 0, 67, 64
1, 19392, Note_on_c, 1, 59, 64
1, 19433, Note_on_c, 0, 67, 0
1, 19440, Note_on_c, 0, 79, 64
1, 19488, Note_on_c, 1, 59, 0
1, 19488, Note_on_c, 1, 60, 64
1, 19529, Note_on_c, 0, 79, 0
1, 19536, Note_on_c, 0, 72, 64
1, 19561, Note_on_c, 1, 52, 0
1, 19577, Note_on_c, 1, 60, 0
1, 19581, Note_on_c, 0, 72, 0
1, 19584, Note_on_c, 1, 52, 64
1, 19632, Note_on_c, 0, 79, 64
1, 19680, Note_on_c, 1, 59, 64
1, 19721, Note_on_c, 0, 79, 0
1, 19728, Note_on_c, 0, 67, 65
1, 19769, Note_on_c, 1, 59, 0
1, 19776, Note_on_c, 1, 60, 65
1, 19817, Note_on_c, 0, 67, 0
1, 19824, Note_on_c, 0, 70, 66
1, 19849, Note_on_c, 1, 52, 0
1, 19869, Note_on_c, 0, 70, 0
1, 19872, Note_on_c, 0, 69, 67
1, 19872, Note_on_c, 1, 53, 64
1, 19917, Note_on_c, 0, 69, 0
1, 19920, Note_on_c, 0, 81, 68
1, 19961, Note_on_c, 1, 60, 0
1, 19968, Note_on_c, 1, 61, 68
1, 20009, Note_on_c, 0, 81, 0
1, 20016, Note_on_c, 0, 69, 69
1, 20057, Note_on_c, 1, 61, 0
1, 20064, Note_on_c, 1, 62, 69
1, 20105, Note_on_c, 0, 69, 0
1, 20112, Note_on_c, 0, 72, 70
1, 20137, Note_on_c, 1, 53, 0
1, 20157, Note_on_c, 0, 72, 0
1, 20160, Note_on_c, 0, 71, 71
1, 20160, Note_on_c, 1, 55, 69
1, 20205, Note_on_c, 0, 71, 0
1, 20208, Note_on_c, 0, 83, 72
1, 20249, Note_on_c, 1, 62, 0
1, 20256, Note_on_c, 1, 63, 72
1, 20297, Note_on_c, 0, 83, 0
1, 20304, Note_on_c, 0, 71, 73
1, 20345, Note_on_c, 1, 63, 0
1, 20352, Note_on_c, 1, 64, 74
1, 20393, Note_on_c, 0, 71, 0
1, 20400, Note_on_c, 0, 74, 75
1, 20425, Note_on_c, 1, 55, 0
1, 20445, Note_on_c, 0, 74, 0
1, 20448, Note_on_c, 0, 72, 75
1, 20448, Note_on_c, 1, 57, 74
1, 20493, Note_on_c, 0, 72, 0
1, 20496, Note_on_c, 0, 84, 76
1, 20537, Note_on_c, 1, 64, 0
1, 20544, Note_on_c, 1, 64, 77
1, 20585, Note_on_c, 0, 84, 0
1, 20592, Note_on_c, 0, 72, 77
1, 20633, Note_on_c, 1, 64, 0
1, 20640, Note_on_c, 1, 65, 78
1, 20681, Note_on_c, 0, 72, 0
1, 20688, Note_on_c, 0, 76, 79
1, 20713, Note_on_c, 1, 57, 0
1, 20733, Note_on_c, 0, 76, 0
1, 20736, Note_on_c, 0, 74, 80
1, 20736, Note_on_c, 1, 59, 80
1, 20781, Note_on_c, 0, 74, 0
1, 20784, Note_on_c, 0, 86, 80
1, 20825, Note_on_c, 1, 65, 0
1, 20832, Note_on_c, 1, 66, 80
1, 20873, Note_on_c, 0, 86, 0
1, 20880, Note_on_c, 0, 74, 80
1, 20921, Note_on_c, 1, 66, 0
1, 20928, Note_on_c, 1, 67, 80
1, 20969, Note_on_c, 0, 74, 0
1, 20976, Note_on_c, 0, 77, 80
1, 21001, Note_on_c, 1, 59, 0
1, 21017, Note_on_c, 1, 67, 0
1, 21024, Note_on_c, 1, 60, 80
1, 21069, Note_on_c, 0, 77, 0
1, 21072, Note_on_c, 0, 76, 80
1, 21113, Note_on_c, 1, 60, 0
1, 21120, Note_on_c, 1, 62, 80
1, 21161, Note_on_c, 0, 76, 0
1, 21168, Note_on_c, 0, 71, 80
1, 21209, Note_on_c, 1, 62, 0
1, 21216, Note_on_c, 1, 64, 80
1, 21257, Note_on_c, 0, 71, 0
1, 21264, Note_on_c, 0, 72, 80
1, 21305, Note_on_c, 1, 64, 0
1, 21312, Note_on_c, 1, 65, 80
1, 21312, Note_on_c, 1, 53, 80
1, 21357, Note_on_c, 0, 72, 0
1, 21360, Note_on_c, 0, 74, 80
1, 21401, Note_on_c, 1, 65, 0
1, 21401, Note_on_c, 1, 53, 0
1, 21408, Note_on_c, 1, 64, 80
1, 21408, Note_on_c, 1, 55, 80
1, 21449, Note_on_c, 0, 74, 0
1, 21456, Note_on_c, 0, 72, 80
1, 21497, Note_on_c, 1, 64, 0
1, 21497, Note_on_c, 1, 55, 0
1, 21504, Note_on_c, 1, 62, 80
1, 21504, Note_on_c, 1, 55, 80
1, 21545, Note_on_c, 0, 72, 0
1, 21552, Note_on_c, 0, 71, 80
1, 21593, Note_on_c, 1, 62, 0
1, 21593, Note_on_c, 1, 55, 0
1, 21597, Note_on_c, 0, 71, 0
1, 21600, Note_on_c, 0, 71, 80
1, 21600, Note_on_c, 1, 60, 80
1, 21689, Note_on_c, 1, 60, 0
1, 21696, Note_on_c, 0, 71, 0
1, 21696, Note_on_c, 0, 72, 80
1, 21696, Note_on_c, 1, 55, 80
1, 21777, Note_on_c, 0, 72, 0
1, 21785, Note_on_c, 1, 55, 0
1, 21792, Note_on_c, 1, 48, 80
1, 21881, Note_on_c, 1, 48, 0
1, 21888, Note_on_c, 1, 60, 75
1, 21936, Note_on_c, 0, 76, 75
1, 21977, Note_on_c, 1, 60, 0
1, 21984, Note_on_c, 1, 64, 75
1, 22025, Note_on_c, 0, 76, 0
1, 22032, Note_on_c, 0, 79, 75
1, 22073, Note_on_c, 1, 64, 0
1, 22080, Note_on_c, 1, 58, 75
1, 22121, Note_on_c, 0, 79, 0
1, 22128, Note_on_c, 0, 74, 75
1, 22169, Note_on_c, 1, 58, 0
1, 22176, Note_on_c, 1, 57, 75
1, 22221, Note_on_c, 0, 74, 0
1, 22224, Note_on_c, 0, 73, 75
1, 22265, Note_on_c, 1, 57, 0
1, 22272, Note_on_c, 1, 67, 75
1, 22313, Note_on_c, 0, 73, 0
1, 22320, Note_on_c, 0, 70, 75
1, 22361, Note_on_c, 1, 67, 0
1, 22368, Note_on_c, 1, 65, 75
1, 22409, Note_on_c, 0, 70, 0
1, 22416, Note_on_c, 0, 69, 75
1, 22457, Note_on_c, 1, 65, 0
1, 22464, Note_on_c, 1, 64, 75
1, 22509, Note_on_c, 0, 69, 0
1, 22512, Note_on_c, 0, 67, 75
1, 22553, Note_on_c, 1, 64, 0
1, 22560, Note_on_c, 1, 62, 75
1, 22601, Note_on_c, 0, 67, 0
1, 22608, Note_on_c, 0, 65, 75
1, 22649, Note_on_c, 1, 62, 0
1, 22656, Note_on_c, 1, 61, 75
1, 22697, Note_on_c, 0, 65, 0
1, 22704, Note_on_c, 0, 64, 75
1, 22745, Note_on_c, 1, 61, 0
1, 22752, Note_on_c, 1, 62, 75
1, 22797, Note_on_c, 0, 64, 0
1, 22800, Note_on_c, 0, 65, 75
1, 22841, Note_on_c, 1, 62, 0
1, 22848, Note_on_c, 1, 57, 75
1, 22889, Note_on_c, 0, 65, 0
1, 22896, Note_on_c, 0, 64, 75
1, 22937, Note_on_c, 1, 57, 0
1, 22944, Note_on_c, 1, 53, 75
1, 22985, Note_on_c, 0, 64, 0
1, 22992, Note_on_c, 0, 62, 75
1, 23033, Note_on_c, 1, 53, 0
1, 23037, Note_on_c, 0, 62, 0
1, 23040, Note_on_c, 1, 50, 75
1, 23088, Note_on_c, 0, 65, 75
1, 23136, Note_on_c, 1, 56, 75
1, 23177, Note_on_c, 0, 65, 0
1, 23184, Note_on_c, 0, 64, 75
1, 23232, Note_on_c, 1, 56, 0
1, 23232, Note_on_c, 1, 57, 75
1, 23273, Note_on_c, 0, 64, 0
1, 23280, Note_on_c, 0, 62, 76
1, 23305, Note_on_c, 1, 50, 0
1, 23321, Note_on_c, 1, 57, 0
1, 23325, Note_on_c, 0, 62, 0
1, 23328, Note_on_c, 1, 48, 75
1, 23376, Note_on_c, 0, 64, 76
1, 23424, Note_on_c, 1, 56, 76
1, 23465, Note_on_c, 0, 64, 0
1, 23472, Note_on_c, 0, 62, 77
1, 23520, Note_on_c, 1, 56, 0
1, 23520, Note_on_c, 1, 57, 77
1, 23561, Note_on_c, 0, 62, 0
1, 23568, Note_on_c, 0, 60, 77
1, 23593, Note_on_c, 1, 48, 0
1, 23609, Note_on_c, 1, 57, 0
1, 23613, Note_on_c, 0, 60, 0
1, 23616, Note_on_c, 1, 47, 77
1, 23664, Note_on_c, 0, 62, 78
1, 23712, Note_on_c, 1, 56, 78
1, 23753, Note_on_c, 0, 62, 0
1, 23760, Note_on_c, 0, 59, 79
1, 23793, Note_on_c, 1, 47, 0
1, 23805, Note_on_c, 0, 59, 0
1, 23808, Note_on_c, 0, 60, 79
1, 23808, Note_on_c, 1, 56, 0
1, 23808, Note_on_c, 1, 57, 79
1, 23808, Note_on_c, 1, 45, 79
1, 23853, Note_on_c, 0, 60, 0
1, 23856, Note_on_c, 0, 62, 79
1, 23897, Note_on_c, 1, 57, 0
1, 23897, Note_on_c, 1, 45, 0
1, 23901, Note_on_c, 0, 62, 0
1, 23904, Note_on_c, 0, 60, 80
1, 23904, Note_on_c, 1, 52, 80
1, 23993, Note_on_c, 1, 52, 0
1, 24000, Note_on_c, 0, 60, 0
1, 24000, Note_on_c, 0, 59, 80
1, 24000, Note_on_c, 1, 40, 64
1, 24081, Note_on_c, 0, 59, 0
1, 24089, Note_on_c, 1, 40, 0
1, 24192, Note_on_c, 1, 57, 64
1, 24240, Note_on_c, 0, 72, 64
1, 24288, Note_on_c, 1, 64, 64
1, 24329, Note_on_c, 0, 72, 0
1, 24336, Note_on_c, 0, 71, 64
1, 24377, Note_on_c, 1, 64, 0
1, 24384, Note_on_c, 1, 65, 64
1, 24425, Note_on_c, 0, 71, 0
1, 24432, Note_on_c, 0, 69, 64
1, 24457, Note_on_c, 1, 57, 0
1, 24477, Note_on_c, 0, 69, 0
1, 24480, Note_on_c, 1, 56, 64
1, 24528, Note_on_c, 0, 71, 64
1, 24569, Note_on_c, 1, 65, 0
1, 24576, Note_on_c, 1, 63, 64
1, 24617, Note_on_c, 0, 71, 0
1, 24624, Note_on_c, 0, 83, 64
1, 24672, Note_on_c, 1, 63, 0
1, 24672, Note_on_c, 1, 64, 64
1, 24713, Note_on_c, 0, 83, 0
1, 24720, Note_on_c, 0, 76, 64
1, 24745, Note_on_c, 1, 56, 0
1, 24761, Note_on_c, 1, 64, 0
1, 24765, Note_on_c, 0, 76, 0
1, 24768, Note_on_c, 1, 55, 64
1, 24816, Note_on_c, 0, 82, 64
1, 24864, Note_on_c, 1, 61, 64
1, 24905, Note_on_c, 0, 82, 0
1, 24912, Note_on_c, 0, 79, 64
1, 24960, Note_on_c, 1, 61, 0
1, 24960, Note_on_c, 1, 64, 64
1, 25001, Note_on_c, 0, 79, 0
1, 25008, Note_on_c, 0, 73, 64
1, 25033, Note_on_c, 1, 55, 0
1, 25049, Note_on_c, 1, 64, 0
1, 25053, Note_on_c, 0, 73, 0
1, 25056, Note_on_c, 1, 53, 64
1, 25104, Note_on_c, 0, 81, 64
1, 25152, Note_on_c, 1, 57, 64
1, 25193, Note_on_c, 0, 81, 0
1, 25200, Note_on_c, 0, 77, 64
1, 25241, Note_on_c, 1, 57, 0
1, 25248, Note_on_c, 1, 62, 64
1, 25289, Note_on_c, 0, 77, 0
1, 25296, Note_on_c, 0, 74, 64
1, 25321, Note_on_c, 1, 53, 0
1, 25337, Note_on_c, 1, 62, 0
1, 25341, Note_on_c, 0, 74, 0
1, 25344, Note_on_c, 1, 52, 64
1, 25392, Note_on_c, 0, 80, 64
1, 25440, Note_on_c, 1, 59, 64
1, 25481, Note_on_c, 0, 80, 0
1, 25488, Note_on_c, 0, 83, 64
1, 25529, Note_on_c, 1, 59, 0
1, 25536, Note_on_c, 1, 56, 64
1, 25577, Note_on_c, 0, 83, 0
1, 25584, Note_on_c, 0, 74, 64
1, 25609, Note_on_c, 1, 52, 0
1, 25625, Note_on_c, 1, 56, 0
1, 25632, Note_on_c, 1, 57, 64
1, 25677, Note_on_c, 0, 74, 0
1, 25680, Note_on_c, 0, 72, 64
1, 25721, Note_on_c, 1, 57, 0
1, 25728, Note_on_c, 1, 59, 64
1, 25769, Note_on_c, 0, 72, 0
1, 25776, Note_on_c, 0, 68, 64
1, 25817, Note_on_c, 1, 59, 0
1, 25824, Note_on_c, 1, 60, 64
1, 25865, Note_on_c, 0, 68, 0
1, 25872, Note_on_c, 0, 69, 64
1, 25913, Note_on_c, 1, 60, 0
1, 25920, Note_on_c, 1, 62, 64
1, 25920, Note_on_c, 1, 50, 64
1, 25965, Note_on_c, 0, 69, 0
1, 25968, Note_on_c, 0, 71, 64
1, 26009, Note_on_c, 1, 62, 0
1, 26009, Note_on_c, 1, 50, 0
1, 26016, Note_on_c, 1, 60, 64
1, 26016, Note_on_c, 1, 52, 64
1, 26057, Note_on_c, 0, 71, 0
1, 26064, Note_on_c, 0, 69, 64
1, 26105, Note_on_c, 1, 60, 0
1, 26105, Note_on_c, 1, 52, 0
1, 26112, Note_on_c, 1, 59, 64
1, 26112, Note_on_c, 1, 52, 64
1, 26153, Note_on_c, 0, 69, 0
1, 26160, Note_on_c, 0, 68, 64
1, 26201, Note_on_c, 1, 59, 0
1, 26201, Note_on_c, 1, 52, 0
1, 26205, Note_on_c, 0, 68, 0
1, 26208, Note_on_c, 0, 69, 64
1, 26208, Note_on_c, 1, 57, 64
1, 26297, Note_on_c, 1, 57, 0
1, 26304, Note_on_c, 1, 52, 64
1, 26385, Note_on_c, 0, 69, 0
1, 26393, Note_on_c, 1, 52, 0
1, 26400, Note_on_c, 1, 45, 64
1, 26489, Note_on_c, 1, 45, 0
1, 26496, Note_on_c, 1, 60, 75
1, 26544, Note_on_c, 0, 76, 75
1, 26585, Note_on_c, 1, 60, 0
1, 26592, Note_on_c, 1, 64, 75
1, 26633, Note_on_c, 0, 76, 0
1, 26640, Note_on_c, 0, 79, 75
1, 26681, Note_on_c, 1, 64, 0
1, 26688, Note_on_c, 1, 58, 75
1, 26729, Note_on_c, 0, 79, 0
1, 26736, Note_on_c, 0, 74, 75
1, 26777, Note_on_c, 1, 58, 0
1, 26784, Note_on_c, 1, 57, 75
1, 26829, Note_on_c, 0, 74, 0
1, 26832, Note_on_c, 0, 73, 75
1, 26873, Note_on_c, 1, 57, 0
1, 26880, Note_on_c, 1, 67, 75
1, 26921, Note_on_c, 0, 73, 0
1, 26928, Note_on_c, 0, 70, 75
1, 26969, Note_on_c, 1, 67, 0
1, 26976, Note_on_c, 1, 65, 75
1, 27017, Note_on_c, 0, 70, 0
1, 27024, Note_on_c, 0, 69, 75
1, 27065, Note_on_c, 1, 65, 0
1, 27072, Note_on_c, 1, 64, 75
1, 27117, Note_on_c, 0, 69, 0
1, 27120, Note_on_c, 0, 67, 75
1, 27161, Note_on_c, 1, 64, 0
1, 27168, Note_on_c, 1, 62, 75
1, 27209, Note_on_c, 0, 67, 0
1, 27216, Note_on_c, 0, 65, 75
1, 27257, Note_on_c, 1, 62, 0
1, 27264, Note_on_c, 1, 61, 75
1, 27305, Note_on_c, 0, 65, 0
1, 27312, Note_on_c, 0, 64, 75
1, 27353, Note_on_c, 1, 61, 0
1, 27360, Note_on_c, 1, 62, 75
1, 27405, Note_on_c, 0, 64, 0
1, 27408, Note_on_c, 0, 65, 75
1, 27449, Note_on_c, 1, 62, 0
1, 27456, Note_on_c, 1, 57, 75
1, 27497, Note_on_c, 0, 65, 0
1, 27504, Note_on_c, 0, 64, 75
1, 27545, Note_on_c, 1, 57, 0
1, 27552, Note_on_c, 1, 53, 75
1, 27593, Note_on_c, 0, 64, 0
1, 27600, Note_on_c, 0, 62, 75
1, 27641, Note_on_c, 1, 53, 0
1, 27645, Note_on_c, 0, 62, 0
1, 27648, Note_on_c, 1, 50, 75
1, 27696, Note_on_c, 0, 65, 75
1, 27744, Note_on_c, 1, 56, 75
1, 27785, Note_on_c, 0, 65, 0
1, 27792, Note_on_c, 0, 64, 75
1, 27840, Note_on_c, 1, 56, 0
1, 27840, Note_on_c, 1, 57, 75
1, 27881, Note_on_c, 0, 64, 0
1, 27888, Note_on_c, 0, 62, 76
1, 27913, Note_on_c, 1, 50, 0
1, 27929, Note_on_c, 1, 57, 0
1, 27933, Note_on_c, 0, 62, 0
1, 27936, Note_on_c, 1, 48, 75
1, 27984, Note_on_c, 0, 64, 76
1, 28032, Note_on_c, 1, 56, 76
1, 28073, Note_on_c, 0, 64, 0
1, 28080, Note_on_c, 0, 62, 77
1, 28128, Note_on_c, 1, 56, 0
1, 28128, Note_on_c, 1, 57, 77
1, 28169, Note_on_c, 0, 62, 0
1, 28176, Note_on_c, 0, 60, 77
1, 28201, Note_on_c, 1, 48, 0
1, 28217, Note_on_c, 1, 57, 0
1, 28221, Note_on_c, 0, 60, 0
1, 28224, Note_on_c, 1, 47, 77
1, 28272, Note_on_c, 0, 62, 78
1, 28320, Note_on_c, 1, 56, 78
1, 28361, Note_on_c, 0, 62, 0
1, 28368, Note_on_c, 0, 59, 79
1, 28401, Note_on_c, 1, 47, 0
1, 28413, Note_on_c, 0, 59, 0
1, 28416, Note_on_c, 0, 60, 79
1, 28416, Note_on_c, 1, 56, 0
1, 28416, Note_on_c, 1, 57, 79
1, 28416, Note_on_c, 1, 45, 79
1, 28461, Note_on_c, 0, 60, 0
1, 28464, Note_on_c, 0, 62, 79
1, 28505, Note_on_c, 1, 57, 0
1, 28505, Note_on_c, 1, 45, 0
1, 28509, Note_on_c, 0, 62, 0
1, 28512, Note_on_c, 0, 60, 80
1, 28512, Note_on_c, 1, 52, 80
1, 28601, Note_on_c, 1, 52, 0
1, 28608, Note_on_c, 0, 60, 0
1, 28608, Note_on_c, 0, 59, 80
1, 28608, Note_on_c, 1, 40, 64
1, 28689, Note_on_c, 0, 59, 0
1, 28697, Note_on_c, 1, 40, 0
1, 28800, Note_on_c, 1, 57, 64
1, 28848, Note_on_c, 0, 72, 64
1, 28896, Note_on_c, 1, 64, 64
1, 28937, Note_on_c, 0, 72, 0
1, 28944, Note_on_c, 0, 71, 64
1, 28985, Note_on_c, 1, 64, 0
1, 28992, Note_on_c, 1, 65, 64
1, 29033, Note_on_c, 0, 71, 0
1, 29040, Note_on_c, 0, 69, 64
1, 29065, Note_on_c, 1, 57, 0
1, 29085, Note_on_c, 0, 69, 0
1, 29088, Note_on_c, 1, 56, 64
1, 29136, Note_on_c, 0, 71, 64
1, 29177, Note_on_c, 1, 65, 0
1, 29184, Note_on_c, 1, 63, 64
1, 29225, Note_on_c, 0, 71, 0
1, 29232, Note_on_c, 0, 83, 64
1, 29280, Note_on_c, 1, 63, 0
1, 29280, Note_on_c, 1, 64, 64
1, 29321, Note_on_c, 0, 83, 0
1, 29328, Note_on_c, 0, 76, 64
1, 29353, Note_on_c, 1, 56, 0
1, 29369, Note_on_c, 1, 64, 0
1, 29373, Note_on_c, 0, 76, 0
1, 29376, Note_on_c, 1, 55, 64
1, 29424, Note_on_c, 0, 82, 64
1, 29472, Note_on_c, 1, 61, 64
1, 29513, Note_on_c, 0, 82, 0
1, 29520, Note_on_c, 0, 79, 64
1, 29568, Note_on_c, 1, 61, 0
1, 29568, Note_on_c, 1, 64, 64
1, 29609, Note_on_c, 0, 79, 0
1, 29616, Note_on_c, 0, 73, 64
1, 29641, Note_on_c, 1, 55, 0
1, 29657, Note_on_c, 1, 64, 0
1, 29661, Note_on_c, 0, 73, 0
1, 29664, Note_on_c, 1, 53, 64
1, 29712, Note_on_c, 0, 81, 64
1, 29760, Note_on_c, 1, 57, 64
1, 29801, Note_on_c, 0, 81, 0
1, 29808, Note_on_c, 0, 77, 64
1, 29849, Note_on_c, 1, 57, 0
1, 29856, Note_on_c, 1, 62, 64
1, 29897, Note_on_c, 0, 77, 0
1, 29904, Note_on_c, 0, 74, 64
1, 29929, Note_on_c, 1, 53, 0
1, 29945, Note_on_c, 1, 62, 0
1, 29949, Note_on_c, 0, 74, 0
1, 29952, Note_on_c, 1, 52, 64
1, 30000, Note_on_c, 0, 80, 64
1, 30048, Note_on_c, 1, 59, 64
1, 30089, Note_on_c, 0, 80, 0
1, 30096, Note_on_c, 0, 83, 64
1, 30137, Note_on_c, 1, 59, 0
1, 30144, Note_on_c, 1, 56, 64
1, 30185, Note_on_c, 0, 83, 0
1, 30192, Note_on_c, 0, 74, 64
1, 30217, Note_on_c, 1, 52, 0
1, 30233, Note_on_c, 1, 56, 0
1, 30240, Note_on_c, 1, 57, 64
1, 30285, Note_on_c, 0, 74, 0
1, 30288, Note_on_c, 0, 72, 64
1, 30329, Note_on_c, 1, 57, 0
1, 30336, Note_on_c, 1, 59, 64
1, 30377, Note_on_c, 0, 72, 0
1, 30384, Note_on_c, 0, 68, 64
1, 30425, Note_on_c, 1, 59, 0
1, 30432, Note_on_c, 1, 60, 64
1, 30473, Note_on_c, 0, 68, 0
1, 30480, Note_on_c, 0, 69, 64
1, 30521, Note_on_c, 1, 60, 0
1, 30528, Note_on_c, 1, 62, 64
1, 30528, Note_on_c, 1, 50, 64
1, 30573, Note_on_c, 0, 69, 0
1, 30576, Note_on_c, 0, 71, 64
1, 30617, Note_on_c, 1, 62, 0
1, 30617, Note_on_c, 1, 50, 0
1, 30624, Note_on_c, 1, 60, 64
1, 30624, Note_on_c, 1, 52, 64
1, 30665, Note_on_c, 0, 71, 0
1, 30672, Note_on_c, 0, 69, 64
1, 30713, Note_on_c, 1, 60, 0
1, 30713, Note_on_c, 1, 52, 0
1, 30720, Note_on_c, 1, 59, 64
1, 30720, Note_on_c, 1, 52, 64
1, 30761, Note_on_c, 0, 69, 0
1, 30768, Note_on_c, 0, 68, 64
1, 30809, Note_on_c, 1, 59, 0
1, 30809, Note_on_c, 1, 52, 0
1, 30813, Note_on_c, 0, 68, 0
1, 30816, Note_on_c, 0, 69, 64
1, 30816, Note_on_c, 1, 57, 64
1, 30905, Note_on_c, 1, 57, 0
1, 30912, Note_on_c, 1, 52, 64
1, 30993, Note_on_c, 0, 69, 0
1, 31001, Note_on_c, 1, 52, 0
1, 31008, Note_on_c, 1, 45, 64
1, 31097, Note_on_c, 1, 45, 0
1, 31104, Note_on_c, 0, 69, 91
1, 31104, Note_on_c, 1, 57, 91
1, 31104, Note_on_c, 1, 45, 91
1, 31200, Note_on_c, 0, 69, 0
1, 31200, Note_on_c, 0, 73, 75
1, 31200, Note_on_c, 1, 57, 0
1, 31200, Note_on_c, 1, 45, 0
1, 31230, Note_on_c, 0, 73, 0
1, 31232, Note_on_c, 0, 71, 75
1, 31262, Note_on_c, 0, 71, 0
1, 31264, Note_on_c, 0, 69, 75
1, 31294, Note_on_c, 0, 69, 0
1, 31296, Note_on_c, 0, 76, 75
1, 31296, Note_on_c, 1, 61, 75
1, 31385, Note_on_c, 0, 76, 0
1, 31385, Note_on_c, 1, 61, 0
1, 31392, Note_on_c, 0, 74, 75
1, 31392, Note_on_c, 1, 59, 75
1, 31422, Note_on_c, 0, 74, 0
1, 31424, Note_on_c, 0, 76, 75
1, 31454, Note_on_c, 0, 76, 0
1, 31456, Note_on_c, 0, 78, 75
1, 31481, Note_on_c, 1, 59, 0
1, 31486, Note_on_c, 0, 78, 0
1, 31488, Note_on_c, 0, 71, 75
1, 31488, Note_on_c, 1, 56, 75
1, 31577, Note_on_c, 0, 71, 0
1, 31577, Note_on_c, 1, 56, 0
1, 31584, Note_on_c, 0, 74, 75
1, 31584, Note_on_c, 1, 52, 75
1, 31673, Note_on_c, 0, 74, 0
1, 31673, Note_on_c, 1, 52, 0
1, 31680, Note_on_c, 0, 73, 75
1, 31680, Note_on_c, 1, 57, 75
1, 31710, Note_on_c, 0, 73, 0
1, 31712, Note_on_c, 0, 74, 75
1, 31742, Note_on_c, 0, 74, 0
1, 31744, Note_on_c, 0, 76, 75
1, 31769, Note_on_c, 1, 57, 0
1, 31774, Note_on_c, 0, 76, 0
1, 31776, Note_on_c, 0, 69, 75
1, 31776, Note_on_c, 1, 61, 75
1, 31865, Note_on_c, 0, 69, 0
1, 31865, Note_on_c, 1, 61, 0
1, 31872, Note_on_c, 0, 83, 75
1, 31872, Note_on_c, 1, 57, 75
1, 31895, Note_on_c, 0, 83, 0
1, 31896, Note_on_c, 0, 81, 75
1, 31919, Note_on_c, 0, 81, 0
1, 31920, Note_on_c, 0, 80, 75
1, 31943, Note_on_c, 0, 80, 0
1, 31944, Note_on_c, 0, 78, 75
1, 31961, Note_on_c, 1, 57, 0
1, 31967, Note_on_c, 0, 78, 0
1, 31968, Note_on_c, 0, 76, 75
1, 31968, Note_on_c, 1, 59, 75
1, 32057, Note_on_c, 0, 76, 0
1, 32057, Note_on_c, 1, 59, 0
1, 32064, Note_on_c, 0, 74, 75
1, 32064, Note_on_c, 1, 52, 75
1, 32077, Note_on_c, 0, 74, 0
1, 32078, Note_on_c, 0, 76, 75
1, 32091, Note_on_c, 0, 76, 0
1, 32092, Note_on_c, 0, 74, 75
1, 32105, Note_on_c, 0, 74, 0
1, 32106, Note_on_c, 0, 76, 75
1, 32119, Note_on_c, 0, 76, 0
1, 32120, Note_on_c, 0, 74, 75
1, 32133, Note_on_c, 0, 74, 0
1, 32134, Note_on_c, 0, 73, 75
1, 32146, Note_on_c, 0, 73, 0
1, 32147, Note_on_c, 0, 74, 75
1, 32153, Note_on_c, 1, 52, 0
1, 32159, Note_on_c, 0, 74, 0
1, 32160, Note_on_c, 0, 73, 75
1, 32160, Note_on_c, 1, 57, 75
1, 32249, Note_on_c, 0, 73, 0
1, 32249, Note_on_c, 1, 57, 0
1, 32256, Note_on_c, 0, 81, 75
1, 32286, Note_on_c, 0, 81, 0
1, 32288, Note_on_c, 0, 83, 75
1, 32318, Note_on_c, 0, 83, 0
1, 32320, Note_on_c, 0, 85, 75
1, 32350, Note_on_c, 0, 85, 0
1, 32352, Note_on_c, 0, 83, 75
1, 32382, Note_on_c, 0, 83, 0
1, 32384, Note_on_c, 0, 81, 75
1, 32414, Note_on_c, 0, 81, 0
1, 32416, Note_on_c, 0, 80, 75
1, 32446, Note_on_c, 0, 80, 0
1, 32448, Note_on_c, 0, 78, 75
1, 32448, Note_on_c, 1, 63, 75
1, 32478, Note_on_c, 0, 78, 0
1, 32480, Note_on_c, 0, 80, 75
1, 32510, Note_on_c, 0, 80, 0
1, 32512, Note_on_c, 0, 81, 75
1, 32537, Note_on_c, 1, 63, 0
1, 32542, Note_on_c, 0, 81, 0
1, 32544, Note_on_c, 0, 80, 75
1, 32544, Note_on_c, 1, 64, 75
1, 32574, Note_on_c, 0, 80, 0
1, 32576, Note_on_c, 0, 78, 75
1, 32606, Note_on_c, 0, 78, 0
1, 32608, Note_on_c, 0, 76, 75
1, 32633, Note_on_c, 1, 64, 0
1, 32638, Note_on_c, 0, 76, 0
1, 32640, Note_on_c, 0, 75, 75
1, 32640, Note_on_c, 1, 66, 75
1, 32670, Note_on_c, 0, 75, 0
1, 32672, Note_on_c, 0, 73, 75
1, 32702, Note_on_c, 0, 73, 0
1, 32704, Note_on_c, 0, 71, 75
1, 32729, Note_on_c, 1, 66, 0
1, 32734, Note_on_c, 0, 71, 0
1, 32736, Note_on_c, 0, 76, 75
1, 32736, Note_on_c, 1, 68, 75
1, 32825, Note_on_c, 0, 76, 0
1, 32825, Note_on_c, 1, 68, 0
1, 32832, Note_on_c, 0, 81, 64
1, 32862, Note_on_c, 0, 81, 0
1, 32864, Note_on_c, 0, 83, 64
1, 32894, Note_on_c, 0, 83, 0
1, 32896, Note_on_c, 0, 85, 64
1, 32926, Note_on_c, 0, 85, 0
1, 32928, Note_on_c, 0, 83, 64
1, 32958, Note_on_c, 0, 83, 0
1, 32960, Note_on_c, 0, 81, 64
1, 32990, Note_on_c, 0, 81, 0
1, 32992, Note_on_c, 0, 80, 64
1, 33022, Note_on_c, 0, 80, 0
1, 33024, Note_on_c, 0, 78, 64
1, 33024, Note_on_c, 1, 51, 70
1, 33054, Note_on_c, 0, 78, 0
1, 33056, Note_on_c, 0, 80, 65
1, 33086, Note_on_c, 0, 80, 0
1, 33088, Note_on_c, 0, 81, 66
1, 33113, Note_on_c, 1, 51, 0
1, 33118, Note_on_c, 0, 81, 0
1, 33120, Note_on_c, 0, 80, 67
1, 33120, Note_on_c, 1, 52, 72
1, 33150, Note_on_c, 0, 80, 0
1, 33152, Note_on_c, 0, 81, 69
1, 33182, Note_on_c, 0, 81, 0
1, 33184, Note_on_c, 0, 83, 70
1, 33209, Note_on_c, 1, 52, 0
1, 33214, Note_on_c, 0, 83, 0
1, 33216, Note_on_c, 0, 75, 71
1, 33216, Note_on_c, 1, 54, 75
1, 33246, Note_on_c, 0, 75, 0
1, 33248, Note_on_c, 0, 76, 72
1, 33278, Note_on_c, 0, 76, 0
1, 33280, Note_on_c, 0, 78, 74
1, 33305, Note_on_c, 1, 54, 0
1, 33310, Note_on_c, 0, 78, 0
1, 33312, Note_on_c, 0, 76, 75
1, 33312, Note_on_c, 1, 56, 77
1, 33379, Note_on_c, 0, 76, 0
1, 33384, Note_on_c, 0, 76, 78
1, 33401, Note_on_c, 1, 56, 0
1, 33407, Note_on_c, 0, 76, 0
1, 33408, Note_on_c, 0, 75, 80
1, 33408, Note_on_c, 1, 57, 80
1, 33431, Note_on_c, 0, 75, 0
1, 33432, Note_on_c, 0, 73, 80
1, 33455, Note_on_c, 0, 73, 0
1, 33456, Note_on_c, 0, 71, 80
1, 33479, Note_on_c, 0, 71, 0
1, 33480, Note_on_c, 0, 69, 80
1, 33497, Note_on_c, 1, 57, 0
1, 33503, Note_on_c, 0, 69, 0
1, 33504, Note_on_c, 0, 68, 80
1, 33504, Note_on_c, 1, 59, 80
1, 33593, Note_on_c, 0, 68, 0
1, 33593, Note_on_c, 1, 59, 0
1, 33600, Note_on_c, 0, 66, 80
1, 33600, Note_on_c, 1, 47, 80
1, 33613, Note_on_c, 0, 66, 0
1, 33614, Note_on_c, 0, 68, 80
1, 33627, Note_on_c, 0, 68, 0
1, 33628, Note_on_c, 0, 66, 80
1, 33641, Note_on_c, 0, 66, 0
1, 33642, Note_on_c, 0, 68, 80
1, 33655, Note_on_c, 0, 68, 0
1, 33656, Note_on_c, 0, 66, 80
1, 33669, Note_on_c, 0, 66, 0
1, 33670, Note_on_c, 0, 64, 80
1, 33682, Note_on_c, 0, 64, 0
1, 33683, Note_on_c, 0, 66, 80
1, 33689, Note_on_c, 1, 47, 0
1, 33695, Note_on_c, 0, 66, 0
1, 33696, Note_on_c, 0, 64, 80
1, 33696, Note_on_c, 1, 52, 80
1, 33785, Note_on_c, 1, 52, 0
1, 33792, Note_on_c, 1, 47, 80
1, 33873, Note_on_c, 0, 64, 0
1, 33881, Note_on_c, 1, 47, 0
1, 33888, Note_on_c, 1, 40, 80
1, 33977, Note_on_c, 1, 40, 0
1, 33984, Note_on_c, 0, 69, 91
1, 33984, Note_on_c, 1, 57, 91
1, 33984, Note_on_c, 1, 45, 91
1, 34080, Note_on_c, 0, 69, 0
1, 34080, Note_on_c, 0, 73, 75
1, 34080, Note_on_c, 1, 57, 0
1, 34080, Note_on_c, 1, 45, 0
1, 34110, Note_on_c, 0, 73, 0
1, 34112, Note_on_c, 0, 71, 75
1, 34142, Note_on_c, 0, 71, 0
1, 34144, Note_on_c, 0, 69, 75
1, 34174, Note_on_c, 0, 69, 0
1, 34176, Note_on_c, 0, 76, 75
1, 34176, Note_on_c, 1, 61, 75
1, 34265, Note_on_c, 0, 76, 0
1, 34265, Note_on_c, 1, 61, 0
1, 34272, Note_on_c, 0, 74, 75
1, 34272, Note_on_c, 1, 59, 75
1, 34302, Note_on_c, 0, 74, 0
1, 34304, Note_on_c, 0, 76, 75
1, 34334, Note_on_c, 0, 76, 0
1, 34336, Note_on_c, 0, 78, 75
1, 34361, Note_on_c, 1, 59, 0
1, 34366, Note_on_c, 0, 78, 0
1, 34368, Note_on_c, 0, 71, 75
1, 34368, Note_on_c, 1, 56, 75
1, 34457, Note_on_c, 0, 71, 0
1, 34457, Note_on_c, 1, 56, 0
1, 34464, Note_on_c, 0, 74, 75
1, 34464, Note_on_c, 1, 52, 75
1, 34553, Note_on_c, 0, 74, 0
1, 34553, Note_on_c, 1, 52, 0
1, 34560, Note_on_c, 0, 73, 75
1, 34560, Note_on_c, 1, 57, 75
1, 34590, Note_on_c, 0, 73, 0
1, 34592, Note_on_c, 0, 74, 75
1, 34622, Note_on_c, 0, 74, 0
1, 34624, Note_on_c, 0, 76, 75
1, 34649, Note_on_c, 1, 57, 0
1, 34654, Note_on_c, 0, 76, 0
1, 34656, Note_on_c, 0, 69, 75
1, 34656, Note_on_c, 1, 61, 75
1, 34745, Note_on_c, 0, 69, 0
1, 34745, Note_on_c, 1, 61, 0
1, 34752, Note_on_c, 0, 83, 75
1, 34752, Note_on_c, 1, 57, 75
1, 34775, Note_on_c, 0, 83, 0
1, 34776, Note_on_c, 0, 81, 75
1, 34799, Note_on_c, 0, 81, 0
1, 34800, Note_on_c, 0, 80, 75
1, 34823, Note_on_c, 0, 80, 0
1, 34824, Note_on_c, 0, 78, 75
1, 34841, Note_on_c, 1, 57, 0
1, 34847, Note_on_c, 0, 78, 0
1, 34848, Note_on_c, 0, 76, 75
1, 34848, Note_on_c, 1, 59, 75
1, 34937, Note_on_c, 0, 76, 0
1, 34937, Note_on_c, 1, 59, 0
1, 34944, Note_on_c, 0, 74, 75
1, 34944, Note_on_c, 1, 52, 75
1, 34957, Note_on_c, 0, 74, 0
1, 34958, Note_on_c, 0, 76, 75
1, 34971, Note_on_c, 0, 76, 0
1, 34972, Note_on_c, 0, 74, 75
1, 34985, Note_on_c, 0, 74, 0
1, 34986, Note_on_c, 0, 76, 75
1, 34999, Note_on_c, 0, 76, 0
1, 35000, Note_on_c, 0, 74, 75
1, 35013, Note_on_c, 0, 74, 0
1, 35014, Note_on_c, 0, 73, 75
1, 35026, Note_on_c, 0, 73, 0
1, 35027, Note_on_c, 0, 74, 75
1, 35033, Note_on_c, 1, 52, 0
1, 35039, Note_on_c, 0, 74, 0
1, 35040, Note_on_c, 0, 73, 75
1, 35040, Note_on_c, 1, 57, 75
1, 35129, Note_on_c, 0, 73, 0
1, 35129, Note_on_c, 1, 57, 0
1, 35136, Note_on_c, 0, 81, 75
1, 35166, Note_on_c, 0, 81, 0
1, 35168, Note_on_c, 0, 83, 75
1, 35198, Note_on_c, 0, 83, 0
1, 35200, Note_on_c, 0, 85, 75
1, 35230, Note_on_c, 0, 85, 0
1, 35232, Note_on_c, 0, 83, 75
1, 35262, Note_on_c, 0, 83, 0
1, 35264, Note_on_c, 0, 81, 75
1, 35294, Note_on_c, 0, 81, 0
1, 35296, Note_on_c, 0, 80, 75
1, 35326, Note_on_c, 0, 80, 0
1, 35328, Note_on_c, 0, 78, 75
1, 35328, Note_on_c, 1, 63, 75
1, 35358, Note_on_c, 0, 78, 0
1, 35360, Note_on_c, 0, 80, 75
1, 35390, Note_on_c, 0, 80, 0
1, 35392, Note_on_c, 0, 81, 75
1, 35417, Note_on_c, 1, 63, 0
1, 35422, Note_on_c, 0, 81, 0
1, 35424, Note_on_c, 0, 80, 75
1, 35424, Note_on_c, 1, 64, 75
1, 35454, Note_on_c, 0, 80, 0
1, 35456, Note_on_c, 0, 78, 75
1, 35486, Note_on_c, 0, 78, 0
1, 35488, Note_on_c, 0, 76, 75
1, 35513, Note_on_c, 1, 64, 0
1, 35518, Note_on_c, 0, 76, 0
1, 35520, Note_on_c, 0, 75, 75
1, 35520, Note_on_c, 1, 66, 75
1, 35550, Note_on_c, 0, 75, 0
1, 35552, Note_on_c, 0, 73, 75
1, 35582, Note_on_c, 0, 73, 0
1, 35584, Note_on_c, 0, 71, 75
1, 35609, Note_on_c, 1, 66, 0
1, 35614, Note_on_c, 0, 71, 0
1, 35616, Note_on_c, 0, 76, 75
1, 35616, Note_on_c, 1, 68, 75
1, 35705, Note_on_c, 0, 76, 0
1, 35705, Note_on_c, 1, 68, 0
1, 35712, Note_on_c, 0, 81, 64
1, 35742, Note_on_c, 0, 81, 0
1, 35744, Note_on_c, 0, 83, 64
1, 35774, Note_on_c, 0, 83, 0
1, 35776, Note_on_c, 0, 85, 64
1, 35806, Note_on_c, 0, 85, 0
1, 35808, Note_on_c, 0, 83, 64
1, 35838, Note_on_c, 0, 83, 0
1, 35840, Note_on_c, 0, 81, 64
1, 35870, Note_on_c, 0, 81, 0
1, 35872, Note_on_c, 0, 80, 64
1, 35902, Note_on_c, 0, 80, 0
1, 35904, Note_on_c, 0, 78, 64
1, 35904, Note_on_c, 1, 51, 70
1, 35934, Note_on_c, 0, 78, 0
1, 35936, Note_on_c, 0, 80, 65
1, 35966, Note_on_c, 0, 80, 0
1, 35968, Note_on_c, 0, 81, 66
1, 35993, Note_on_c, 1, 51, 0
1, 35998, Note_on_c, 0, 81, 0
1, 36000, Note_on_c, 0, 80, 67
1, 36000, Note_on_c, 1, 52, 72
1, 36030, Note_on_c, 0, 80, 0
1, 36032, Note_on_c, 0, 81, 69
1, 36062, Note_on_c, 0, 81, 0
1, 36064, Note_on_c, 0, 83, 70
1, 36089, Note_on_c, 1, 52, 0
1, 36094, Note_on_c, 0, 83, 0
1, 36096, Note_on_c, 0, 75, 71
1, 36096, Note_on_c, 1, 54, 75
1, 36126, Note_on_c, 0, 75, 0
1, 36128, Note_on_c, 0, 76, 72
1, 36158, Note_on_c, 0, 76, 0
1, 36160, Note_on_c, 0, 78, 74
1, 36185, Note_on_c, 1, 54, 0
1, 36190, Note_on_c, 0, 78, 0
1, 36192, Note_on_c, 0, 76, 75
1, 36192, Note_on_c, 1, 56, 77
1, 36259, Note_on_c, 0, 76, 0
1, 36264, Note_on_c, 0, 76, 78
1, 36281, Note_on_c, 1, 56, 0
1, 36287, Note_on_c, 0, 76, 0
1, 36288, Note_on_c, 0, 75, 80
1, 36288, Note_on_c, 1, 57, 80
1, 36311, Note_on_c, 0, 75, 0
1, 36312, Note_on_c, 0, 73, 80
1, 36335, Note_on_c, 0, 73, 0
1, 36336, Note_on_c, 0, 71, 80
1, 36359, Note_on_c, 0, 71, 0
1, 36360, Note_on_c, 0, 69, 80
1, 36377, Note_on_c, 1, 57, 0
1, 36383, Note_on_c, 0, 69, 0
1, 36384, Note_on_c, 0, 68, 80
1, 36384, Note_on_c, 1, 59, 80
1, 36473, Note_on_c, 0, 68, 0
1, 36473, Note_on_c, 1, 59, 0
1, 36480, Note_on_c, 0, 66, 80
1, 36480, Note_on_c, 1, 47, 80
1, 36493, Note_on_c, 0, 66, 0
1, 36494, Note_on_c, 0, 68, 80
1, 36507, Note_on_c, 0, 68, 0
1, 36508, Note_on_c, 0, 66, 80
1, 36521, Note_on_c, 0, 66, 0
1, 36522, Note_on_c, 0, 68, 80
1, 36535, Note_on_c, 0, 68, 0
1, 36536, Note_on_c, 0, 66, 80
1, 36549, Note_on_c, 0, 66, 0
1, 36550, Note_on_c, 0, 64, 80
1, 36562, Note_on_c, 0, 64, 0
1, 36563, Note_on_c, 0, 66, 80
1, 36569, Note_on_c, 1, 47, 0
1, 36575, Note_on_c, 0, 66, 0
1, 36576, Note_on_c, 0, 64, 80
1, 36576, Note_on_c, 1, 52, 80
1, 36665, Note_on_c, 1, 52, 0
1, 36672, Note_on_c, 1, 47, 80
1, 36753, Note_on_c, 0, 64, 0
1, 36761, Note_on_c, 1, 47, 0
1, 36768, Note_on_c, 1, 40, 80
1, 36857, Note_on_c, 1, 40, 0
1, 36864, Note_on_c, 0, 64, 91
1, 36864, Note_on_c, 1, 52, 91
1, 36864, Note_on_c, 1, 40, 91
1, 36960, Note_on_c, 0, 64, 0
1, 36960, Note_on_c, 0, 68, 75
1, 36990, Note_on_c, 0, 68, 0
1, 36992, Note_on_c, 0, 66, 75
1, 37022, Note_on_c, 0, 66, 0
1, 37024, Note_on_c, 0, 64, 75
1, 37054, Note_on_c, 0, 64, 0
1, 37056, Note_on_c, 0, 74, 75
1, 37056, Note_on_c, 1, 52, 0
1, 37056, Note_on_c, 1, 40, 0
1, 37056, Note_on_c, 1, 56, 75
1, 37145, Note_on_c, 0, 74, 0
1, 37145, Note_on_c, 1, 56, 0
1, 37152, Note_on_c, 0, 73, 75
1, 37152, Note_on_c, 1, 57, 75
1, 37182, Note_on_c, 0, 73, 0
1, 37184, Note_on_c, 0, 74, 75
1, 37214, Note_on_c, 0, 74, 0
1, 37216, Note_on_c, 0, 76, 75
1, 37241, Note_on_c, 1, 57, 0
1, 37246, Note_on_c, 0, 76, 0
1, 37248, Note_on_c, 0, 68, 75
1, 37248, Note_on_c, 1, 59, 75
1, 37337, Note_on_c, 0, 68, 0
1, 37337, Note_on_c, 1, 59, 0
1, 37344, Note_on_c, 0, 69, 75
1, 37344, Note_on_c, 1, 61, 75
1, 37433, Note_on_c, 0, 69, 0
1, 37433, Note_on_c, 1, 61, 0
1, 37440, Note_on_c, 0, 78, 75
1, 37470, Note_on_c, 0, 78, 0
1, 37472, Note_on_c, 0, 80, 75
1, 37502, Note_on_c, 0, 80, 0
1, 37504, Note_on_c, 0, 81, 75
1, 37534, Note_on_c, 0, 81, 0
1, 37536, Note_on_c, 0, 76, 75
1, 37536, Note_on_c, 1, 73, 75
1, 37625, Note_on_c, 0, 76, 0
1, 37625, Note_on_c, 1, 73, 0
1, 37632, Note_on_c, 0, 73, 75
1, 37632, Note_on_c, 1, 69, 75
1, 37721, Note_on_c, 0, 73, 0
1, 37721, Note_on_c, 1, 69, 0
1, 37728, Note_on_c, 0, 74, 75
1, 37728, Note_on_c, 1, 71, 75
1, 37758, Note_on_c, 0, 74, 0
1, 37760, Note_on_c, 0, 76, 75
1, 37790, Note_on_c, 0, 76, 0
1, 37792, Note_on_c, 0, 78, 75
1, 37817, Note_on_c, 1, 71, 0
1, 37822, Note_on_c, 0, 78, 0
1, 37824, Note_on_c, 0, 74, 75
1, 37824, Note_on_c, 1, 68, 75
1, 37913, Note_on_c, 0, 74, 0
1, 37913, Note_on_c, 1, 68, 0
1, 37920, Note_on_c, 0, 73, 75
1, 37920, Note_on_c, 1, 69, 75
1, 38009, Note_on_c, 0, 73, 0
1, 38009, Note_on_c, 1, 69, 0
1, 38016, Note_on_c, 0, 73, 75
1, 38016, Note_on_c, 1, 66, 75
1, 38016, Note_on_c, 1, 62, 64
1, 38061, Note_on_c, 0, 73, 0
1, 38064, Note_on_c, 0, 71, 76
1, 38109, Note_on_c, 0, 71, 0
1, 38112, Note_on_c, 0, 78, 77
1, 38142, Note_on_c, 0, 78, 0
1, 38144, Note_on_c, 0, 76, 77
1, 38174, Note_on_c, 0, 76, 0
1, 38176, Note_on_c, 0, 74, 78
1, 38206, Note_on_c, 0, 74, 0
1, 38208, Note_on_c, 0, 73, 79
1, 38208, Note_on_c, 1, 62, 0
1, 38208, Note_on_c, 1, 63, 71
1, 38238, Note_on_c, 0, 73, 0
1, 38240, Note_on_c, 0, 71, 79
1, 38270, Note_on_c, 0, 71, 0
1, 38272, Note_on_c, 0, 69, 79
1, 38281, Note_on_c, 1, 66, 0
1, 38297, Note_on_c, 1, 63, 0
1, 38302, Note_on_c, 0, 69, 0
1, 38304, Note_on_c, 0, 69, 79
1, 38304, Note_on_c, 1, 64, 80
1, 38393, Note_on_c, 1, 64, 0
1, 38400, Note_on_c, 1, 59, 78
1, 38489, Note_on_c, 1, 59, 0
1, 38496, Note_on_c, 0, 69, 0
1, 38496, Note_on_c, 0, 68, 79
1, 38496, Note_on_c, 1, 52, 76
1, 38569, Note_on_c, 0, 68, 0
1, 38585, Note_on_c, 1, 52, 0
1, 38592, Note_on_c, 0, 69, 91
1, 38592, Note_on_c, 1, 57, 91
1, 38592, Note_on_c, 1, 45, 91
1, 38688, Note_on_c, 0, 69, 0
1, 38688, Note_on_c, 0, 73, 75
1, 38688, Note_on_c, 1, 57, 0
1, 38688, Note_on_c, 1, 45, 0
1, 38718, Note_on_c, 0, 73, 0
1, 38720, Note_on_c, 0, 71, 75
1, 38750, Note_on_c, 0, 71, 0
1, 38752, Note_on_c, 0, 69, 75
1, 38782, Note_on_c, 0, 69, 0
1, 38784, Note_on_c, 0, 76, 75
1, 38784, Note_on_c, 1, 61, 75
1, 38873, Note_on_c, 0, 76, 0
1, 38873, Note_on_c, 1, 61, 0
1, 38880, Note_on_c, 0, 74, 75
1, 38880, Note_on_c, 1, 59, 75
1, 38910, Note_on_c, 0, 74, 0
1, 38912, Note_on_c, 0, 76, 75
1, 38942, Note_on_c, 0, 76, 0
1, 38944, Note_on_c, 0, 78, 75
1, 38969, Note_on_c, 1, 59, 0
1, 38974, Note_on_c, 0, 78, 0
1, 38976, Note_on_c, 0, 71, 75
1, 38976, Note_on_c, 1, 56, 75
1, 39065, Note_on_c, 0, 71, 0
1, 39065, Note_on_c, 1, 56, 0
1, 39072, Note_on_c, 0, 74, 75
1, 39072, Note_on_c, 1, 52, 75
1, 39161, Note_on_c, 0, 74, 0
1, 39161, Note_on_c, 1, 52, 0
1, 39168, Note_on_c, 0, 73, 75
1, 39168, Note_on_c, 1, 57, 75
1, 39198, Note_on_c, 0, 73, 0
1, 39200, Note_on_c, 0, 74, 75
1, 39230, Note_on_c, 0, 74, 0
1, 39232, Note_on_c, 0, 76, 75
1, 39257, Note_on_c, 1, 57, 0
1, 39262, Note_on_c, 0, 76, 0
1, 39264, Note_on_c, 0, 69, 75
1, 39264, Note_on_c, 1, 61, 75
1, 39353, Note_on_c, 0, 69, 0
1, 39353, Note_on_c, 1, 61, 0
1, 39360, Note_on_c, 0, 83, 75
1, 39360, Note_on_c, 1, 57, 75
1, 39383, Note_on_c, 0, 83, 0
1, 39384, Note_on_c, 0, 81, 75
1, 39407, Note_on_c, 0, 81, 0
1, 39408, Note_on_c, 0, 80, 75
1, 39431, Note_on_c, 0, 80, 0
1, 39432, Note_on_c, 0, 78, 75
1, 39449, Note_on_c, 1, 57, 0
1, 39455, Note_on_c, 0, 78, 0
1, 39456, Note_on_c, 0, 76, 75
1, 39456, Note_on_c, 1, 59, 75
1, 39545, Note_on_c, 0, 76, 0
1, 39545, Note_on_c, 1, 59, 0
1, 39552, Note_on_c, 0, 74, 75
1, 39552, Note_on_c, 1, 52, 75
1, 39565, Note_on_c, 0, 74, 0
1, 39566, Note_on_c, 0, 76, 75
1, 39579, Note_on_c, 0, 76, 0
1, 39580, Note_on_c, 0, 74, 75
1, 39593, Note_on_c, 0, 74, 0
1, 39594, Note_on_c, 0, 76, 75
1, 39607, Note_on_c, 0, 76, 0
1, 39608, Note_on_c, 0, 74, 75
1, 39621, Note_on_c, 0, 74, 0
1, 39622, Note_on_c, 0, 73, 75
1, 39634, Note_on_c, 0, 73, 0
1, 39635, Note_on_c, 0, 74, 75
1, 39641, Note_on_c, 1, 52, 0
1, 39647, Note_on_c, 0, 74, 0
1, 39648, Note_on_c, 0, 73, 75
1, 39648, Note_on_c, 1, 57, 75
1, 39737, Note_on_c, 0, 73, 0
1, 39737, Note_on_c, 1, 57, 0
1, 39744, Note_on_c, 0, 78, 91
1, 39744, Note_on_c, 1, 62, 91
1, 39744, Note_on_c, 1, 50, 91
1, 39840, Note_on_c, 0, 78, 0
1, 39840, Note_on_c, 0, 86, 75
1, 39870, Note_on_c, 0, 86, 0
1, 39872, Note_on_c, 0, 85, 75
1, 39902, Note_on_c, 0, 85, 0
1, 39904, Note_on_c, 0, 83, 75
1, 39934, Note_on_c, 0, 83, 0
1, 39936, Note_on_c, 0, 81, 75
1, 39936, Note_on_c, 1, 62, 0
1, 39936, Note_on_c, 1, 50, 0
1, 39966, Note_on_c, 0, 81, 0
1, 39968, Note_on_c, 0, 80, 75
1, 39998, Note_on_c, 0, 80, 0
1, 40000, Note_on_c, 0, 78, 75
1, 40030, Note_on_c, 0, 78, 0
1, 40032, Note_on_c, 0, 76, 91
1, 40032, Note_on_c, 1, 61, 75
1, 40032, Note_on_c, 1, 57, 75
1, 40064, Note_on_c, 0, 76, 0
1, 40064, Note_on_c, 0, 78, 75
1, 40094, Note_on_c, 0, 78, 0
1, 40096, Note_on_c, 0, 80, 75
1, 40126, Note_on_c, 0, 80, 0
1, 40128, Note_on_c, 0, 81, 75
1, 40158, Note_on_c, 0, 81, 0
1, 40160, Note_on_c, 0, 80, 75
1, 40190, Note_on_c, 0, 80, 0
1, 40192, Note_on_c, 0, 78, 75
1, 40209, Note_on_c, 1, 61, 0
1, 40209, Note_on_c, 1, 57, 0
1, 40222, Note_on_c, 0, 78, 0
1, 40224, Note_on_c, 0, 76, 75
1, 40254, Note_on_c, 0, 76, 0
1, 40256, Note_on_c, 0, 74, 75
1, 40286, Note_on_c, 0, 74, 0
1, 40288, Note_on_c, 0, 73, 75
1, 40318, Note_on_c, 0, 73, 0
1, 40320, Note_on_c, 0, 71, 75
1, 40320, Note_on_c, 1, 62, 75
1, 40320, Note_on_c, 1, 50, 75
1, 40350, Note_on_c, 0, 71, 0
1, 40352, Note_on_c, 0, 74, 75
1, 40382, Note_on_c, 0, 74, 0
1, 40384, Note_on_c, 0, 78, 75
1, 40409, Note_on_c, 1, 62, 0
1, 40409, Note_on_c, 1, 50, 0
1, 40414, Note_on_c, 0, 78, 0
1, 40416, Note_on_c, 0, 69, 75
1, 40416, Note_on_c, 1, 61, 75
1, 40416, Note_on_c, 1, 52, 75
1, 40505, Note_on_c, 0, 69, 0
1, 40505, Note_on_c, 1, 61, 0
1, 40505, Note_on_c, 1, 52, 0
1, 40512, Note_on_c, 0, 68, 75
1, 40512, Note_on_c, 1, 59, 75
1, 40512, Note_on_c, 1, 52, 75
1, 40525, Note_on_c, 0, 68, 0
1, 40526, Note_on_c, 0, 69, 75
1, 40539, Note_on_c, 0, 69, 0
1, 40540, Note_on_c, 0, 68, 75
1, 40553, Note_on_c, 0, 68, 0
1, 40554, Note_on_c, 0, 69, 75
1, 40567, Note_on_c, 0, 69, 0
1, 40568, Note_on_c, 0, 68, 75
1, 40581, Note_on_c, 0, 68, 0
1, 40582, Note_on_c, 0, 66, 75
1, 40594, Note_on_c, 0, 66, 0
1, 40595, Note_on_c, 0, 68, 75
1, 40601, Note_on_c, 1, 59, 0
1, 40601, Note_on_c, 1, 52, 0
1, 40607, Note_on_c, 0, 68, 0
1, 40608, Note_on_c, 0, 69, 75
1, 40608, Note_on_c, 1, 57, 75
1, 40697, Note_on_c, 1, 57, 0
1, 40704, Note_on_c, 1, 52, 75
1, 40785, Note_on_c, 0, 69, 0
1, 40793, Note_on_c, 1, 52, 0
1, 40800, Note_on_c, 1, 45, 75
1, 40889, Note_on_c, 1, 45, 0
1, 40896, Note_on_c, 0, 64, 91
1, 40896, Note_on_c, 1, 52, 91
1, 40896, Note_on_c, 1, 40, 91
1, 40992, Note_on_c, 0, 64, 0
1, 40992, Note_on_c, 0, 68, 75
1, 41022, Note_on_c, 0, 68, 0
1, 41024, Note_on_c, 0, 66, 75
1, 41054, Note_on_c, 0, 66, 0
1, 41056, Note_on_c, 0, 64, 75
1, 41086, Note_on_c, 0, 64, 0
1, 41088, Note_on_c, 0, 74, 75
1, 41088, Note_on_c, 1, 52, 0
1, 41088, Note_on_c, 1, 40, 0
1, 41088, Note_on_c, 1, 56, 75
1, 41177, Note_on_c, 0, 74, 0
1, 41177, Note_on_c, 1, 56, 0
1, 41184, Note_on_c, 0, 73, 75
1, 41184, Note_on_c, 1, 57, 75
1, 41214, Note_on_c, 0, 73, 0
1, 41216, Note_on_c, 0, 74, 75
1, 41246, Note_on_c, 0, 74, 0
1, 41248, Note_on_c, 0, 76, 75
1, 41273, Note_on_c, 1, 57, 0
1, 41278, Note_on_c, 0, 76, 0
1, 41280, Note_on_c, 0, 68, 75
1, 41280, Note_on_c, 1, 59, 75
1, 41369, Note_on_c, 0, 68, 0
1, 41369, Note_on_c, 1, 59, 0
1, 41376, Note_on_c, 0, 69, 75
1, 41376, Note_on_c, 1, 61, 75
1, 41465, Note_on_c, 0, 69, 0
1, 41465, Note_on_c, 1, 61, 0
1, 41472, Note_on_c, 0, 78, 75
1, 41502, Note_on_c, 0, 78, 0
1, 41504, Note_on_c, 0, 80, 75
1, 41534, Note_on_c, 0, 80, 0
1, 41536, Note_on_c, 0, 81, 75
1, 41566, Note_on_c, 0, 81, 0
1, 41568, Note_on_c, 0, 76, 75
1, 41568, Note_on_c, 1, 73, 75
1, 41657, Note_on_c, 0, 76, 0
1, 41657, Note_on_c, 1, 73, 0
1, 41664, Note_on_c, 0, 73, 75
1, 41664, Note_on_c, 1, 69, 75
1, 41753, Note_on_c, 0, 73, 0
1, 41753, Note_on_c, 1, 69, 0
1, 41760, Note_on_c, 0, 74, 75
1, 41760, Note_on_c, 1, 71, 75
1, 41790, Note_on_c, 0, 74, 0
1, 41792, Note_on_c, 0, 76, 75
1, 41822, Note_on_c, 0, 76, 0
1, 41824, Note_on_c, 0, 78, 75
1, 41849, Note_on_c, 1, 71, 0
1, 41854, Note_on_c, 0, 78, 0
1, 41856, Note_on_c, 0, 74, 75
1, 41856, Note_on_c, 1, 68, 75
1, 41945, Note_on_c, 0, 74, 0
1, 41945, Note_on_c, 1, 68, 0
1, 41952, Note_on_c, 0, 73, 75
1, 41952, Note_on_c, 1, 69, 75
1, 42041, Note_on_c, 0, 73, 0
1, 42041, Note_on_c, 1, 69, 0
1, 42048, Note_on_c, 0, 73, 75
1, 42048, Note_on_c, 1, 66, 75
1, 42048, Note_on_c, 1, 62, 64
1, 42093, Note_on_c, 0, 73, 0
1, 42096, Note_on_c, 0, 71, 76
1, 42141, Note_on_c, 0, 71, 0
1, 42144, Note_on_c, 0, 78, 77
1, 42174, Note_on_c, 0, 78, 0
1, 42176, Note_on_c, 0, 76, 77
1, 42206, Note_on_c, 0, 76, 0
1, 42208, Note_on_c, 0, 74, 78
1, 42238, Note_on_c, 0, 74, 0
1, 42240, Note_on_c, 0, 73, 79
1, 42240, Note_on_c, 1, 62, 0
1, 42240, Note_on_c, 1, 63, 71
1, 42270, Note_on_c, 0, 73, 0
1, 42272, Note_on_c, 0, 71, 79
1, 42302, Note_on_c, 0, 71, 0
1, 42304, Note_on_c, 0, 69, 79
1, 42313, Note_on_c, 1, 66, 0
1, 42329, Note_on_c, 1, 63, 0
1, 42334, Note_on_c, 0, 69, 0
1, 42336, Note_on_c, 0, 69, 79
1, 42336, Note_on_c, 1, 64, 80
1, 42425, Note_on_c, 1, 64, 0
1, 42432, Note_on_c, 1, 59, 78
1, 42521, Note_on_c, 1, 59, 0
1, 42528, Note_on_c, 0, 69, 0
1, 42528, Note_on_c, 0, 68, 79
1, 42528, Note_on_c, 1, 52, 76
1, 42601, Note_on_c, 0, 68, 0
1, 42617, Note_on_c, 1, 52, 0
1, 42624, Note_on_c, 0, 69, 91
1, 42624, Note_on_c, 1, 57, 91
1, 42624, Note_on_c, 1, 45, 91
1, 42720, Note_on_c, 0, 69, 0
1, 42720, Note_on_c, 0, 73, 75
1, 42720, Note_on_c, 1, 57, 0
1, 42720, Note_on_c, 1, 45, 0
1, 42750, Note_on_c, 0, 73, 0
1, 42752, Note_on_c, 0, 71, 75
1, 42782, Note_on_c, 0, 71, 0
1, 42784, Note_on_c, 0, 69, 75
1, 42814, Note_on_c, 0, 69, 0
1, 42816, Note_on_c, 0, 76, 75
1, 42816, Note_on_c, 1, 61, 75
1, 42905, Note_on_c, 0, 76, 0
1, 42905, Note_on_c, 1, 61, 0
1, 42912, Note_on_c, 0, 74, 75
1, 42912, Note_on_c, 1, 59, 75
1, 42942, Note_on_c, 0, 74, 0
1, 42944, Note_on_c, 0, 76, 75
1, 42974, Note_on_c, 0, 76, 0
1, 42976, Note_on_c, 0, 78, 75
1, 43001, Note_on_c, 1, 59, 0
1, 43006, Note_on_c, 0, 78, 0
1, 43008, Note_on_c, 0, 71, 75
1, 43008, Note_on_c, 1, 56, 75
1, 43097, Note_on_c, 0, 71, 0
1, 43097, Note_on_c, 1, 56, 0
1, 43104, Note_on_c, 0, 74, 75
1, 43104, Note_on_c, 1, 52, 75
1, 43193, Note_on_c, 0, 74, 0
1, 43193, Note_on_c, 1, 52, 0
1, 43200, Note_on_c, 0, 73, 75
1, 43200, Note_on_c, 1, 57, 75
1, 43230, Note_on_c, 0, 73, 0
1, 43232, Note_on_c, 0, 74, 75
1, 43262, Note_on_c, 0, 74, 0
1, 43264, Note_on_c, 0, 76, 75
1, 43289, Note_on_c, 1, 57, 0
1, 43294, Note_on_c, 0, 76, 0
1, 43296, Note_on_c, 0, 69, 75
1, 43296, Note_on_c, 1, 61, 75
1, 43385, Note_on_c, 0, 69, 0
1, 43385, Note_on_c, 1, 61, 0
1, 43392, Note_on_c, 0, 83, 75
1, 43392, Note_on_c, 1, 57, 75
1, 43415, Note_on_c, 0, 83, 0
1, 43416, Note_on_c, 0, 81, 75
1, 43439, Note_on_c, 0, 81, 0
1, 43440, Note_on_c, 0, 80, 75
1, 43463, Note_on_c, 0, 80, 0
1, 43464, Note_on_c, 0, 78, 75
1, 43481, Note_on_c, 1, 57, 0
1, 43487, Note_on_c, 0, 78, 0
1, 43488, Note_on_c, 0, 76, 75
1, 43488, Note_on_c, 1, 59, 75
1, 43577, Note_on_c, 0, 76, 0
1, 43577, Note_on_c, 1, 59, 0
1, 43584, Note_on_c, 0, 74, 75
1, 43584, Note_on_c, 1, 52, 75
1, 43597, Note_on_c, 0, 74, 0
1, 43598, Note_on_c, 0, 76, 75
1, 43611, Note_on_c, 0, 76, 0
1, 43612, Note_on_c, 0, 74, 75
1, 43625, Note_on_c, 0, 74, 0
1, 43626, Note_on_c, 0, 76, 75
1, 43639, Note_on_c, 0, 76, 0
1, 43640, Note_on_c, 0, 74, 75
1, 43653, Note_on_c, 0, 74, 0
1, 43654, Note_on_c, 0, 73, 75
1, 43666, Note_on_c, 0, 73, 0
1, 43667, Note_on_c, 0, 74, 75
1, 43673, Note_on_c, 1, 52, 0
1, 43679, Note_on_c, 0, 74, 0
1, 43680, Note_on_c, 0, 73, 75
1, 43680, Note_on_c, 1, 57, 75
1, 43769, Note_on_c, 0, 73, 0
1, 43769, Note_on_c, 1, 57, 0
1, 43776, Note_on_c, 0, 78, 91
1, 43776, Note_on_c, 1, 62, 91
1, 43776, Note_on_c, 1, 50, 91
1, 43872, Note_on_c, 0, 78, 0
1, 43872, Note_on_c, 0, 86, 75
1, 43902, Note_on_c, 0, 86, 0
1, 43904, Note_on_c, 0, 85, 75
1, 43934, Note_on_c, 0, 85, 0
1, 43936, Note_on_c, 0, 83, 75
1, 43966, Note_on_c, 0, 83, 0
1, 43968, Note_on_c, 0, 81, 75
1, 43968, Note_on_c, 1, 62, 0
1, 43968, Note_on_c, 1, 50, 0
1, 43998, Note_on_c, 0, 81, 0
1, 44000, Note_on_c, 0, 80, 75
1, 44030, Note_on_c, 0, 80, 0
1, 44032, Note_on_c, 0, 78, 75
1, 44062, Note_on_c, 0, 78, 0
1, 44064, Note_on_c, 0, 76, 91
1, 44064, Note_on_c, 1, 61, 75
1, 44064, Note_on_c, 1, 57, 75
1, 44096, Note_on_c, 0, 76, 0
1, 44096, Note_on_c, 0, 78, 75
1, 44126, Note_on_c, 0, 78, 0
1, 44128, Note_on_c, 0, 80, 75
1, 44158, Note_on_c, 0, 80, 0
1, 44160, Note_on_c, 0, 81, 75
1, 44190, Note_on_c, 0, 81, 0
1, 44192, Note_on_c, 0, 80, 75
1, 44222, Note_on_c, 0, 80, 0
1, 44224, Note_on_c, 0, 78, 75
1, 44241, Note_on_c, 1, 61, 0
1, 44241, Note_on_c, 1, 57, 0
1, 44254, Note_on_c, 0, 78, 0
1, 44256, Note_on_c, 0, 76, 75
1, 44286, Note_on_c, 0, 76, 0
1, 44288, Note_on_c, 0, 74, 75
1, 44318, Note_on_c, 0, 74, 0
1, 44320, Note_on_c, 0, 73, 75
1, 44350, Note_on_c, 0, 73, 0
1, 44352, Note_on_c, 0, 71, 75
1, 44352, Note_on_c, 1, 62, 75
1, 44352, Note_on_c, 1, 50, 75
1, 44382, Note_on_c, 0, 71, 0
1, 44384, Note_on_c, 0, 74, 75
1, 44414, Note_on_c, 0, 74, 0
1, 44416, Note_on_c, 0, 78, 75
1, 44441, Note_on_c, 1, 62, 0
1, 44441, Note_on_c, 1, 50, 0
1, 44446, Note_on_c, 0, 78, 0
1, 44448, Note_on_c, 0, 69, 75
1, 44448, Note_on_c, 1, 61, 75
1, 44448, Note_on_c, 1, 52, 75
1, 44537, Note_on_c, 0, 69, 0
1, 44537, Note_on_c, 1, 61, 0
1, 44537, Note_on_c, 1, 52, 0
1, 44544, Note_on_c, 0, 68, 75
1, 44544, Note_on_c, 1, 59, 75
1, 44544, Note_on_c, 1, 52, 75
1, 44557, Note_on_c, 0, 68, 0
1, 44558, Note_on_c, 0, 69, 75
1, 44571, Note_on_c, 0, 69, 0
1, 44572, Note_on_c, 0, 68, 75
1, 44585, Note_on_c, 0, 68, 0
1, 44586, Note_on_c, 0, 69, 75
1, 44599, Note_on_c, 0, 69, 0
1, 44600, Note_on_c, 0, 68, 75
1, 44613, Note_on_c, 0, 68, 0
1, 44614, Note_on_c, 0, 66, 75
1, 44626, Note_on_c, 0, 66, 0
1, 44627, Note_on_c, 0, 68, 75
1, 44633, Note_on_c, 1, 59, 0
1, 44633, Note_on_c, 1, 52, 0
1, 44639, Note_on_c, 0, 68, 0
1, 44640, Note_on_c, 0, 69, 75
1, 44640, Note_on_c, 1, 57, 75
1, 44729, Note_on_c, 1, 57, 0
1, 44736, Note_on_c, 1, 52, 75
1, 44817, Note_on_c, 0, 69, 0
1, 44825, Note_on_c, 1, 52, 0
1, 44832, Note_on_c, 1, 45, 75
1, 44921, Note_on_c, 1, 45, 0
1, 44928, Note_on_c, 1, 45, 0
1, 45017, Note_on_c, 1, 45, 0
1, 45027, End_track
0, 0, End_of_file