0, 0, Header, 0, 1, 96
1, 0, Start_track
1, 0, Tempo, 454545
1, 0, Note_on_c, 0, 54, 80
1, 12, Note_on_c, 0, 54, 0
1, 12, Note_on_c, 0, 57, 80
1, 24, Note_on_c, 0, 57, 0
1, 24, Note_on_c, 0, 62, 80
1, 96, Note_on_c, 1, 50, 80
1, 96, Note_on_c, 1, 38, 80
1, 177, Note_on_c, 0, 62, 0
1, 185, Note_on_c, 1, 50, 0
1, 185, Note_on_c, 1, 38, 0
1, 192, Note_on_c, 0, 57, 80
1, 204, Note_on_c, 0, 57, 0
1, 204, Note_on_c, 0, 61, 80
1, 216, Note_on_c, 0, 61, 0
1, 216, Note_on_c, 0, 64, 80
1, 288, Note_on_c, 1, 45, 80
1, 288, Note_on_c, 1, 33, 80
1, 369, Note_on_c, 0, 64, 0
1, 377, Note_on_c, 1, 45, 0
1, 377, Note_on_c, 1, 33, 0
1, 384, Note_on_c, 0, 57, 80
1, 396, Note_on_c, 0, 57, 0
1, 396, Note_on_c, 0, 62, 80
1, 408, Note_on_c, 0, 62, 0
1, 408, Note_on_c, 0, 66, 80
1, 480, Note_on_c, 1, 50, 80
1, 510, Note_on_c, 1, 50, 0
1, 512, Note_on_c, 1, 45, 80
1, 542, Note_on_c, 1, 45, 0
1, 544, Note_on_c, 1, 42, 80
1, 561, Note_on_c, 0, 66, 0
1, 574, Note_on_c, 1, 42, 0
1, 576, Note_on_c, 1, 38, 80
1, 665, Note_on_c, 1, 38, 0
1, 672, Note_on_c, 0, 74, 64
1, 739, Note_on_c, 0, 74, 0
1, 744, Note_on_c, 0, 69, 64
1, 767, Note_on_c, 0, 69, 0
1, 768, Note_on_c, 0, 66, 64
1, 864, Note_on_c, 1, 62, 64
1, 864, Note_on_c, 1, 62, 64
1, 945, Note_on_c, 0, 66, 0
1, 953, Note_on_c, 1, 62, 0
1, 960, Note_on_c, 0, 69, 64
1, 960, Note_on_c, 1, 59, 64
1, 978, Note_on_c, 0, 69, 0
1, 978, Note_on_c, 0, 67, 64
1, 1027, Note_on_c, 0, 67, 0
1, 1032, Note_on_c, 0, 66, 64
1, 1049, Note_on_c, 1, 59, 0
1, 1055, Note_on_c, 0, 66, 0
1, 1056, Note_on_c, 0, 67, 64
1, 1056, Note_on_c, 1, 55, 64
1, 1123, Note_on_c, 0, 67, 0
1, 1128, Note_on_c, 0, 71, 65
1, 1129, Note_on_c, 1, 62, 0
1, 1145, Note_on_c, 1, 55, 0
1, 1151, Note_on_c, 0, 71, 0
1, 1152, Note_on_c, 0, 64, 65
1, 1152, Note_on_c, 1, 61, 64
1, 1152, Note_on_c, 1, 57, 64
1, 1219, Note_on_c, 0, 64, 0
1, 1224, Note_on_c, 0, 67, 66
1, 1241, Note_on_c, 1, 61, 0
1, 1247, Note_on_c, 0, 67, 0
1, 1248, Note_on_c, 0, 66, 67
1, 1248, Note_on_c, 1, 62, 64
1, 1315, Note_on_c, 0, 66, 0
1, 1320, Note_on_c, 0, 69, 68
1, 1337, Note_on_c, 1, 62, 0
1, 1343, Note_on_c, 0, 69, 0
1, 1344, Note_on_c, 0, 67, 68
1, 1344, Note_on_c, 1, 64, 64
1, 1417, Note_on_c, 1, 57, 0
1, 1433, Note_on_c, 0, 67, 0
1, 1433, Note_on_c, 1, 64, 0
1, 1536, Note_on_c, 0, 54, 80
1, 1548, Note_on_c, 0, 54, 0
1, 1548, Note_on_c, 0, 57, 80
1, 1560, Note_on_c, 0, 57, 0
1, 1560, Note_on_c, 0, 62, 80
1, 1584, Note_on_c, 1, 49, 80
1, 1607, Note_on_c, 1, 49, 0
1, 1608, Note_on_c, 1, 50, 80
1, 1631, Note_on_c, 1, 50, 0
1, 1632, Note_on_c, 1, 38, 80
1, 1713, Note_on_c, 0, 62, 0
1, 1721, Note_on_c, 1, 38, 0
1, 1728, Note_on_c, 0, 57, 80
1, 1740, Note_on_c, 0, 57, 0
1, 1740, Note_on_c, 0, 61, 80
1, 1752, Note_on_c, 0, 61, 0
1, 1752, Note_on_c, 0, 64, 80
1, 1776, Note_on_c, 1, 44, 80
1, 1799, Note_on_c, 1, 44, 0
1, 1800, Note_on_c, 1, 45, 80
1, 1823, Note_on_c, 1, 45, 0
1, 1824, Note_on_c, 1, 33, 80
1, 1905, Note_on_c, 0, 64, 0
1, 1913, Note_on_c, 1, 33, 0
1, 1920, Note_on_c, 0, 57, 80
1, 1932, Note_on_c, 0, 57, 0
1, 1932, Note_on_c, 0, 62, 80
1, 1944, Note_on_c, 0, 62, 0
1, 1944, Note_on_c, 0, 66, 80
1, 1992, Note_on_c, 1, 49, 80
1, 2015, Note_on_c, 1, 49, 0
1, 2016, Note_on_c, 1, 50, 80
1, 2061, Note_on_c, 1, 50, 0
1, 2064, Note_on_c, 1, 45, 80
1, 2087, Note_on_c, 1, 45, 0
1, 2088, Note_on_c, 1, 42, 80
1, 2097, Note_on_c, 0, 66, 0
1, 2111, Note_on_c, 1, 42, 0
1, 2112, Note_on_c, 1, 38, 80
1, 2201, Note_on_c, 1, 38, 0
1, 2208, Note_on_c, 0, 78, 64
1, 2275, Note_on_c, 0, 78, 0
1, 2280, Note_on_c, 0, 74, 64
1, 2303, Note_on_c, 0, 74, 0
1, 2304, Note_on_c, 0, 69, 64
1, 2400, Note_on_c, 1, 66, 64
1, 2400, Note_on_c, 1, 62, 64
1, 2481, Note_on_c, 0, 69, 0
1, 2489, Note_on_c, 1, 66, 0
1, 2496, Note_on_c, 0, 73, 64
1, 2496, Note_on_c, 1, 67, 64
1, 2508, Note_on_c, 0, 73, 0
1, 2508, Note_on_c, 0, 71, 64
1, 2563, Note_on_c, 0, 71, 0
1, 2568, Note_on_c, 0, 69, 64
1, 2585, Note_on_c, 1, 67, 0
1, 2591, Note_on_c, 0, 69, 0
1, 2592, Note_on_c, 0, 71, 64
1, 2592, Note_on_c, 1, 67, 64
1, 2659, Note_on_c, 0, 71, 0
1, 2664, Note_on_c, 0, 74, 64
1, 2665, Note_on_c, 1, 62, 0
1, 2681, Note_on_c, 1, 67, 0
1, 2687, Note_on_c, 0, 74, 0
1, 2688, Note_on_c, 0, 69, 64
1, 2688, Note_on_c, 1, 66, 64
1, 2688, Note_on_c, 1, 62, 64
1, 2755, Note_on_c, 0, 69, 0
1, 2760, Note_on_c, 0, 74, 66
1, 2783, Note_on_c, 0, 74, 0
1, 2784, Note_on_c, 0, 78, 67
1, 2851, Note_on_c, 0, 78, 0
1, 2856, Note_on_c, 0, 74, 70
1, 2865, Note_on_c, 1, 66, 0
1, 2865, Note_on_c, 1, 62, 0
1, 2879, Note_on_c, 0, 74, 0
1, 2880, Note_on_c, 0, 81, 87
1, 2976, Note_on_c, 0, 81, 0
1, 3072, Note_on_c, 0, 71, 64
1, 3072, Note_on_c, 1, 62, 64
1, 3072, Note_on_c, 1, 59, 64
1, 3072, Note_on_c, 1, 55, 64
1, 3139, Note_on_c, 0, 71, 0
1, 3144, Note_on_c, 0, 74, 66
1, 3167, Note_on_c, 0, 74, 0
1, 3168, Note_on_c, 0, 79, 67
1, 3235, Note_on_c, 0, 79, 0
1, 3240, Note_on_c, 0, 74, 70
1, 3249, Note_on_c, 1, 62, 0
1, 3249, Note_on_c, 1, 59, 0
1, 3249, Note_on_c, 1, 55, 0
1, 3263, Note_on_c, 0, 74, 0
1, 3264, Note_on_c, 0, 83, 87
1, 3360, Note_on_c, 0, 83, 0
1, 3432, Note_on_c, 0, 83, 75
1, 3442, Note_on_c, 0, 83, 0
1, 3456, Note_on_c, 0, 81, 96
1, 3456, Note_on_c, 1, 54, 80
1, 3456, Note_on_c, 1, 50, 80
1, 3456, Note_on_c, 1, 45, 80
1, 3488, Note_on_c, 0, 81, 0
1, 3488, Note_on_c, 0, 78, 80
1, 3518, Note_on_c, 0, 78, 0
1, 3520, Note_on_c, 0, 74, 80
1, 3550, Note_on_c, 0, 74, 0
1, 3552, Note_on_c, 0, 69, 80
1, 3582, Note_on_c, 0, 69, 0
1, 3584, Note_on_c, 0, 66, 80
1, 3614, Note_on_c, 0, 66, 0
1, 3616, Note_on_c, 0, 62, 80
1, 3646, Note_on_c, 0, 62, 0
1, 3648, Note_on_c, 0, 57, 80
1, 3678, Note_on_c, 0, 57, 0
1, 3680, Note_on_c, 0, 58, 79
1, 3710, Note_on_c, 0, 58, 0
1, 3712, Note_on_c, 0, 59, 78
1, 3721, Note_on_c, 1, 54, 0
1, 3721, Note_on_c, 1, 50, 0
1, 3721, Note_on_c, 1, 45, 0
1, 3742, Note_on_c, 0, 59, 0
1, 3744, Note_on_c, 0, 60, 77
1, 3744, Note_on_c, 1, 55, 80
1, 3744, Note_on_c, 1, 52, 80
1, 3744, Note_on_c, 1, 45, 80
1, 3774, Note_on_c, 0, 60, 0
1, 3776, Note_on_c, 0, 61, 76
1, 3806, Note_on_c, 0, 61, 0
1, 3808, Note_on_c, 0, 64, 76
1, 3833, Note_on_c, 1, 55, 0
1, 3833, Note_on_c, 1, 52, 0
1, 3833, Note_on_c, 1, 45, 0
1, 3838, Note_on_c, 0, 64, 0
1, 3840, Note_on_c, 0, 62, 75
1, 3840, Note_on_c, 1, 50, 64
1, 3858, Note_on_c, 0, 62, 0
1, 3858, Note_on_c, 0, 74, 91
1, 3870, Note_on_c, 1, 50, 0
1, 3872, Note_on_c, 1, 54, 64
1, 3902, Note_on_c, 1, 54, 0
1, 3904, Note_on_c, 1, 57, 64
1, 3934, Note_on_c, 1, 57, 0
1, 3936, Note_on_c, 1, 50, 64
1, 3966, Note_on_c, 1, 50, 0
1, 3968, Note_on_c, 1, 54, 64
1, 3998, Note_on_c, 1, 54, 0
1, 4000, Note_on_c, 1, 57, 64
1, 4030, Note_on_c, 1, 57, 0
1, 4032, Note_on_c, 0, 74, 0
1, 4032, Note_on_c, 0, 73, 75
1, 4032, Note_on_c, 0, 61, 75
1, 4032, Note_on_c, 1, 52, 64
1, 4062, Note_on_c, 1, 52, 0
1, 4064, Note_on_c, 1, 55, 64
1, 4094, Note_on_c, 1, 55, 0
1, 4096, Note_on_c, 1, 57, 64
1, 4126, Note_on_c, 1, 57, 0
1, 4128, Note_on_c, 0, 73, 0
1, 4128, Note_on_c, 0, 61, 0
1, 4128, Note_on_c, 0, 74, 75
1, 4128, Note_on_c, 0, 62, 75
1, 4128, Note_on_c, 1, 50, 64
1, 4158, Note_on_c, 1, 50, 0
1, 4160, Note_on_c, 1, 54, 64
1, 4190, Note_on_c, 1, 54, 0
1, 4192, Note_on_c, 1, 57, 64
1, 4217, Note_on_c, 0, 74, 0
1, 4217, Note_on_c, 0, 62, 0
1, 4222, Note_on_c, 1, 57, 0
1, 4224, Note_on_c, 0, 76, 75
1, 4224, Note_on_c, 0, 64, 75
1, 4224, Note_on_c, 1, 49, 64
1, 4254, Note_on_c, 1, 49, 0
1, 4256, Note_on_c, 1, 52, 64
1, 4286, Note_on_c, 1, 52, 0
1, 4288, Note_on_c, 1, 57, 64
1, 4318, Note_on_c, 1, 57, 0
1, 4320, Note_on_c, 1, 47, 64
1, 4350, Note_on_c, 1, 47, 0
1, 4352, Note_on_c, 1, 50, 64
1, 4379, Note_on_c, 0, 76, 0
1, 4379, Note_on_c, 0, 64, 0
1, 4382, Note_on_c, 1, 50, 0
1, 4384, Note_on_c, 1, 57, 64
1, 4392, Note_on_c, 0, 78, 75
1, 4392, Note_on_c, 0, 66, 75
1, 4414, Note_on_c, 1, 57, 0
1, 4415, Note_on_c, 0, 78, 0
1, 4415, Note_on_c, 0, 66, 0
1, 4416, Note_on_c, 0, 79, 75
1, 4416, Note_on_c, 0, 67, 75
1, 4416, Note_on_c, 1, 45, 64
1, 4446, Note_on_c, 1, 45, 0
1, 4448, Note_on_c, 1, 49, 64
1, 4478, Note_on_c, 1, 49, 0
1, 4480, Note_on_c, 1, 57, 64
1, 4510, Note_on_c, 1, 57, 0
1, 4512, Note_on_c, 1, 49, 64
1, 4542, Note_on_c, 1, 49, 0
1, 4544, Note_on_c, 1, 52, 64
1, 4574, Note_on_c, 1, 52, 0
1, 4576, Note_on_c, 1, 57, 64
1, 4593, Note_on_c, 0, 79, 0
1, 4593, Note_on_c, 0, 67, 0
1, 4606, Note_on_c, 1, 57, 0
1, 4608, Note_on_c, 0, 78, 75
1, 4608, Note_on_c, 0, 66, 75
1, 4608, Note_on_c, 1, 50, 64
1, 4638, Note_on_c, 1, 50, 0
1, 4640, Note_on_c, 1, 54, 64
1, 4647, Note_on_c, 0, 78, 0
1, 4647, Note_on_c, 0, 66, 0
1, 4670, Note_on_c, 1, 54, 0
1, 4672, Note_on_c, 1, 57, 64
1, 4702, Note_on_c, 1, 57, 0
1, 4704, Note_on_c, 0, 78, 75
1, 4704, Note_on_c, 0, 66, 75
1, 4704, Note_on_c, 1, 50, 64
1, 4734, Note_on_c, 1, 50, 0
1, 4736, Note_on_c, 1, 54, 64
1, 4743, Note_on_c, 0, 78, 0
1, 4743, Note_on_c, 0, 66, 0
1, 4766, Note_on_c, 1, 54, 0
1, 4768, Note_on_c, 1, 57, 64
1, 4798, Note_on_c, 1, 57, 0
1, 4800, Note_on_c, 0, 83, 75
1, 4800, Note_on_c, 0, 71, 75
1, 4800, Note_on_c, 1, 43, 64
1, 4830, Note_on_c, 1, 43, 0
1, 4832, Note_on_c, 1, 47, 64
1, 4839, Note_on_c, 0, 83, 0
1, 4839, Note_on_c, 0, 71, 0
1, 4862, Note_on_c, 1, 47, 0
1, 4864, Note_on_c, 1, 55, 64
1, 4894, Note_on_c, 1, 55, 0
1, 4896, Note_on_c, 0, 83, 75
1, 4896, Note_on_c, 0, 71, 75
1, 4896, Note_on_c, 1, 43, 64
1, 4926, Note_on_c, 1, 43, 0
1, 4928, Note_on_c, 1, 47, 64
1, 4935, Note_on_c, 0, 83, 0
1, 4935, Note_on_c, 0, 71, 0
1, 4958, Note_on_c, 1, 47, 0
1, 4960, Note_on_c, 1, 55, 64
1, 4990, Note_on_c, 1, 55, 0
1, 4992, Note_on_c, 0, 74, 75
1, 4992, Note_on_c, 0, 66, 75
1, 4992, Note_on_c, 1, 45, 75
1, 5022, Note_on_c, 1, 45, 0
1, 5024, Note_on_c, 1, 50, 75
1, 5054, Note_on_c, 1, 50, 0
1, 5056, Note_on_c, 1, 54, 76
1, 5086, Note_on_c, 1, 54, 0
1, 5088, Note_on_c, 1, 57, 77
1, 5118, Note_on_c, 1, 57, 0
1, 5120, Note_on_c, 1, 59, 78
1, 5150, Note_on_c, 1, 59, 0
1, 5152, Note_on_c, 1, 56, 78
1, 5182, Note_on_c, 1, 56, 0
1, 5184, Note_on_c, 0, 74, 0
1, 5184, Note_on_c, 0, 66, 0
1, 5184, Note_on_c, 0, 73, 80
1, 5184, Note_on_c, 1, 64, 80
1, 5184, Note_on_c, 1, 57, 80
1, 5214, Note_on_c, 0, 73, 0
1, 5216, Note_on_c, 0, 71, 79
1, 5246, Note_on_c, 0, 71, 0
1, 5248, Note_on_c, 0, 69, 78
1, 5273, Note_on_c, 1, 64, 0
1, 5273, Note_on_c, 1, 57, 0
1, 5278, Note_on_c, 0, 69, 0
1, 5280, Note_on_c, 0, 67, 77
1, 5310, Note_on_c, 0, 67, 0
1, 5312, Note_on_c, 0, 66, 76
1, 5342, Note_on_c, 0, 66, 0
1, 5344, Note_on_c, 0, 64, 76
1, 5374, Note_on_c, 0, 64, 0
1, 5376, Note_on_c, 0, 74, 75
1, 5376, Note_on_c, 0, 62, 75
1, 5376, Note_on_c, 1, 50, 75
1, 5406, Note_on_c, 1, 50, 0
1, 5408, Note_on_c, 1, 54, 75
1, 5438, Note_on_c, 1, 54, 0
1, 5440, Note_on_c, 1, 57, 75
1, 5470, Note_on_c, 1, 57, 0
1, 5472, Note_on_c, 1, 50, 75
1, 5502, Note_on_c, 1, 50, 0
1, 5504, Note_on_c, 1, 54, 75
1, 5534, Note_on_c, 1, 54, 0
1, 5536, Note_on_c, 1, 57, 75
1, 5553, Note_on_c, 0, 74, 0
1, 5553, Note_on_c, 0, 62, 0
1, 5566, Note_on_c, 1, 57, 0
1, 5568, Note_on_c, 0, 73, 75
1, 5568, Note_on_c, 0, 61, 75
1, 5568, Note_on_c, 1, 52, 75
1, 5598, Note_on_c, 1, 52, 0
1, 5600, Note_on_c, 1, 55, 75
1, 5630, Note_on_c, 1, 55, 0
1, 5632, Note_on_c, 1, 57, 75
1, 5662, Note_on_c, 1, 57, 0
1, 5664, Note_on_c, 0, 73, 0
1, 5664, Note_on_c, 0, 61, 0
1, 5664, Note_on_c, 0, 74, 75
1, 5664, Note_on_c, 0, 62, 75
1, 5664, Note_on_c, 1, 50, 75
1, 5694, Note_on_c, 1, 50, 0
1, 5696, Note_on_c, 1, 54, 75
1, 5726, Note_on_c, 1, 54, 0
1, 5728, Note_on_c, 1, 57, 75
1, 5753, Note_on_c, 0, 74, 0
1, 5753, Note_on_c, 0, 62, 0
1, 5758, Note_on_c, 1, 57, 0
1, 5760, Note_on_c, 0, 76, 75
1, 5760, Note_on_c, 0, 64, 75
1, 5760, Note_on_c, 1, 49, 75
1, 5790, Note_on_c, 1, 49, 0
1, 5792, Note_on_c, 1, 52, 75
1, 5822, Note_on_c, 1, 52, 0
1, 5824, Note_on_c, 1, 57, 75
1, 5854, Note_on_c, 1, 57, 0
1, 5856, Note_on_c, 1, 47, 75
1, 5886, Note_on_c, 1, 47, 0
1, 5888, Note_on_c, 1, 50, 75
1, 5915, Note_on_c, 0, 76, 0
1, 5915, Note_on_c, 0, 64, 0
1, 5918, Note_on_c, 1, 50, 0
1, 5920, Note_on_c, 1, 57, 75
1, 5928, Note_on_c, 0, 78, 75
1, 5928, Note_on_c, 0, 66, 75
1, 5950, Note_on_c, 1, 57, 0
1, 5951, Note_on_c, 0, 78, 0
1, 5951, Note_on_c, 0, 66, 0
1, 5952, Note_on_c, 0, 79, 75
1, 5952, Note_on_c, 0, 67, 75
1, 5952, Note_on_c, 1, 45, 75
1, 5982, Note_on_c, 1, 45, 0
1, 5984, Note_on_c, 1, 49, 75
1, 6014, Note_on_c, 1, 49, 0
1, 6016, Note_on_c, 1, 57, 75
1, 6046, Note_on_c, 1, 57, 0
1, 6048, Note_on_c, 1, 49, 75
1, 6078, Note_on_c, 1, 49, 0
1, 6080, Note_on_c, 1, 52, 75
1, 6110, Note_on_c, 1, 52, 0
1, 6112, Note_on_c, 1, 57, 75
1, 6129, Note_on_c, 0, 79, 0
1, 6129, Note_on_c, 0, 67, 0
1, 6142, Note_on_c, 1, 57, 0
1, 6144, Note_on_c, 0, 78, 75
1, 6144, Note_on_c, 0, 66, 75
1, 6144, Note_on_c, 1, 50, 75
1, 6174, Note_on_c, 1, 50, 0
1, 6176, Note_on_c, 1, 54, 75
1, 6206, Note_on_c, 1, 54, 0
1, 6208, Note_on_c, 1, 57, 75
1, 6238, Note_on_c, 1, 57, 0
1, 6240, Note_on_c, 1, 50, 75
1, 6270, Note_on_c, 1, 50, 0
1, 6272, Note_on_c, 1, 54, 75
1, 6302, Note_on_c, 1, 54, 0
1, 6304, Note_on_c, 1, 57, 75
1, 6321, Note_on_c, 0, 78, 0
1, 6321, Note_on_c, 0, 66, 0
1, 6334, Note_on_c, 1, 57, 0
1, 6336, Note_on_c, 0, 76, 76
1, 6336, Note_on_c, 0, 64, 76
1, 6336, Note_on_c, 1, 49, 75
1, 6366, Note_on_c, 1, 49, 0
1, 6368, Note_on_c, 1, 55, 75
1, 6398, Note_on_c, 1, 55, 0
1, 6400, Note_on_c, 1, 57, 76
1, 6425, Note_on_c, 0, 76, 0
1, 6425, Note_on_c, 0, 64, 0
1, 6430, Note_on_c, 1, 57, 0
1, 6432, Note_on_c, 0, 78, 76
1, 6432, Note_on_c, 0, 66, 76
1, 6432, Note_on_c, 1, 48, 76
1, 6462, Note_on_c, 1, 48, 0
1, 6464, Note_on_c, 1, 50, 76
1, 6494, Note_on_c, 1, 50, 0
1, 6496, Note_on_c, 1, 57, 76
1, 6521, Note_on_c, 0, 78, 0
1, 6521, Note_on_c, 0, 66, 0
1, 6526, Note_on_c, 1, 57, 0
1, 6528, Note_on_c, 0, 79, 77
1, 6528, Note_on_c, 0, 67, 77
1, 6528, Note_on_c, 1, 47, 76
1, 6558, Note_on_c, 1, 47, 0
1, 6560, Note_on_c, 1, 50, 76
1, 6590, Note_on_c, 1, 50, 0
1, 6592, Note_on_c, 1, 55, 76
1, 6622, Note_on_c, 1, 55, 0
1, 6624, Note_on_c, 1, 45, 77
1, 6654, Note_on_c, 1, 45, 0
1, 6656, Note_on_c, 1, 48, 77
1, 6683, Note_on_c, 0, 79, 0
1, 6683, Note_on_c, 0, 67, 0
1, 6686, Note_on_c, 1, 48, 0
1, 6688, Note_on_c, 1, 54, 77
1, 6696, Note_on_c, 0, 81, 78
1, 6696, Note_on_c, 0, 69, 78
1, 6718, Note_on_c, 1, 54, 0
1, 6719, Note_on_c, 0, 81, 0
1, 6719, Note_on_c, 0, 69, 0
1, 6720, Note_on_c, 0, 83, 78
1, 6720, Note_on_c, 0, 71, 78
1, 6720, Note_on_c, 1, 43, 77
1, 6750, Note_on_c, 1, 43, 0
1, 6752, Note_on_c, 1, 47, 77
1, 6782, Note_on_c, 1, 47, 0
1, 6784, Note_on_c, 1, 55, 77
1, 6814, Note_on_c, 1, 55, 0
1, 6816, Note_on_c, 1, 43, 77
1, 6846, Note_on_c, 1, 43, 0
1, 6848, Note_on_c, 1, 47, 78
1, 6875, Note_on_c, 0, 83, 0
1, 6875, Note_on_c, 0, 71, 0
1, 6878, Note_on_c, 1, 47, 0
1, 6880, Note_on_c, 1, 55, 78
1, 6888, Note_on_c, 0, 83, 79
1, 6888, Note_on_c, 0, 71, 79
1, 6910, Note_on_c, 1, 55, 0
1, 6911, Note_on_c, 0, 83, 0
1, 6911, Note_on_c, 0, 71, 0
1, 6912, Note_on_c, 0, 81, 79
1, 6912, Note_on_c, 0, 69, 79
1, 6912, Note_on_c, 1, 54, 78
1, 6912, Note_on_c, 1, 50, 78
1, 6912, Note_on_c, 1, 45, 78
1, 6942, Note_on_c, 0, 81, 0
1, 6942, Note_on_c, 0, 69, 0
1, 6944, Note_on_c, 0, 78, 80
1, 6974, Note_on_c, 0, 78, 0
1, 6976, Note_on_c, 0, 86, 80
1, 7006, Note_on_c, 0, 86, 0
1, 7008, Note_on_c, 0, 81, 80
1, 7038, Note_on_c, 0, 81, 0
1, 7040, Note_on_c, 0, 78, 79
1, 7070, Note_on_c, 0, 78, 0
1, 7072, Note_on_c, 0, 74, 78
1, 7102, Note_on_c, 0, 74, 0
1, 7104, Note_on_c, 0, 69, 78
1, 7134, Note_on_c, 0, 69, 0
1, 7136, Note_on_c, 0, 66, 77
1, 7166, Note_on_c, 0, 66, 0
1, 7168, Note_on_c, 0, 69, 76
1, 7177, Note_on_c, 1, 54, 0
1, 7177, Note_on_c, 1, 50, 0
1, 7177, Note_on_c, 1, 45, 0
1, 7198, Note_on_c, 0, 69, 0
1, 7200, Note_on_c, 0, 67, 76
1, 7200, Note_on_c, 1, 55, 80
1, 7200, Note_on_c, 1, 49, 80
1, 7200, Note_on_c, 1, 45, 80
1, 7230, Note_on_c, 0, 67, 0
1, 7232, Note_on_c, 0, 64, 75
1, 7262, Note_on_c, 0, 64, 0
1, 7264, Note_on_c, 0, 61, 75
1, 7289, Note_on_c, 1, 55, 0
1, 7289, Note_on_c, 1, 49, 0
1, 7289, Note_on_c, 1, 45, 0
1, 7294, Note_on_c, 0, 61, 0
1, 7296, Note_on_c, 0, 74, 74
1, 7296, Note_on_c, 0, 62, 74
1, 7296, Note_on_c, 1, 50, 72
1, 7326, Note_on_c, 1, 50, 0
1, 7328, Note_on_c, 1, 54, 70
1, 7358, Note_on_c, 1, 54, 0
1, 7360, Note_on_c, 1, 57, 70
1, 7390, Note_on_c, 1, 57, 0
1, 7392, Note_on_c, 1, 50, 70
1, 7422, Note_on_c, 1, 50, 0
1, 7424, Note_on_c, 1, 54, 70
1, 7454, Note_on_c, 1, 54, 0
1, 7456, Note_on_c, 1, 57, 70
1, 7473, Note_on_c, 0, 74, 0
1, 7473, Note_on_c, 0, 62, 0
1, 7486, Note_on_c, 1, 57, 0
1, 7488, Note_on_c, 0, 78, 70
1, 7488, Note_on_c, 0, 66, 70
1, 7488, Note_on_c, 1, 50, 70
1, 7518, Note_on_c, 1, 50, 0
1, 7520, Note_on_c, 1, 54, 70
1, 7550, Note_on_c, 1, 54, 0
1, 7552, Note_on_c, 1, 57, 70
1, 7582, Note_on_c, 1, 57, 0
1, 7584, Note_on_c, 1, 50, 70
1, 7614, Note_on_c, 1, 50, 0
1, 7616, Note_on_c, 1, 54, 70
1, 7646, Note_on_c, 1, 54, 0
1, 7648, Note_on_c, 1, 57, 70
1, 7665, Note_on_c, 0, 78, 0
1, 7665, Note_on_c, 0, 66, 0
1, 7678, Note_on_c, 1, 57, 0
1, 7680, Note_on_c, 0, 81, 86
1, 7680, Note_on_c, 0, 69, 86
1, 7680, Note_on_c, 1, 49, 70
1, 7710, Note_on_c, 1, 49, 0
1, 7712, Note_on_c, 1, 55, 70
1, 7742, Note_on_c, 1, 55, 0
1, 7744, Note_on_c, 1, 57, 70
1, 7774, Note_on_c, 1, 57, 0
1, 7776, Note_on_c, 1, 49, 70
1, 7806, Note_on_c, 1, 49, 0
1, 7808, Note_on_c, 1, 55, 70
1, 7838, Note_on_c, 1, 55, 0
1, 7840, Note_on_c, 1, 57, 70
1, 7870, Note_on_c, 1, 57, 0
1, 7872, Note_on_c, 1, 49, 70
1, 7902, Note_on_c, 0, 81, 0
1, 7902, Note_on_c, 0, 69, 0
1, 7902, Note_on_c, 1, 49, 0
1, 7904, Note_on_c, 0, 83, 70
1, 7904, Note_on_c, 0, 71, 70
1, 7904, Note_on_c, 1, 55, 70
1, 7934, Note_on_c, 0, 83, 0
1, 7934, Note_on_c, 0, 71, 0
1, 7934, Note_on_c, 1, 55, 0
1, 7936, Note_on_c, 0, 81, 70
1, 7936, Note_on_c, 0, 69, 70
1, 7936, Note_on_c, 1, 57, 70
1, 7966, Note_on_c, 0, 81, 0
1, 7966, Note_on_c, 0, 69, 0
1, 7966, Note_on_c, 1, 57, 0
1, 7968, Note_on_c, 0, 79, 70
1, 7968, Note_on_c, 0, 67, 70
1, 7968, Note_on_c, 1, 49, 70
1, 7998, Note_on_c, 0, 79, 0
1, 7998, Note_on_c, 0, 67, 0
1, 7998, Note_on_c, 1, 49, 0
1, 8000, Note_on_c, 0, 78, 70
1, 8000, Note_on_c, 0, 66, 70
1, 8000, Note_on_c, 1, 55, 70
1, 8030, Note_on_c, 0, 78, 0
1, 8030, Note_on_c, 0, 66, 0
1, 8030, Note_on_c, 1, 55, 0
1, 8032, Note_on_c, 0, 76, 70
1, 8032, Note_on_c, 0, 64, 70
1, 8032, Note_on_c, 1, 57, 70
1, 8062, Note_on_c, 0, 76, 0
1, 8062, Note_on_c, 0, 64, 0
1, 8062, Note_on_c, 1, 57, 0
1, 8064, Note_on_c, 0, 74, 70
1, 8064, Note_on_c, 0, 62, 70
1, 8064, Note_on_c, 1, 50, 70
1, 8094, Note_on_c, 1, 50, 0
1, 8096, Note_on_c, 1, 54, 70
1, 8126, Note_on_c, 1, 54, 0
1, 8128, Note_on_c, 1, 57, 71
1, 8158, Note_on_c, 1, 57, 0
1, 8160, Note_on_c, 1, 50, 72
1, 8190, Note_on_c, 1, 50, 0
1, 8192, Note_on_c, 1, 54, 73
1, 8222, Note_on_c, 1, 54, 0
1, 8224, Note_on_c, 1, 57, 73
1, 8241, Note_on_c, 0, 74, 0
1, 8241, Note_on_c, 0, 62, 0
1, 8254, Note_on_c, 1, 57, 0
1, 8256, Note_on_c, 0, 78, 75
1, 8256, Note_on_c, 0, 66, 75
1, 8256, Note_on_c, 1, 50, 74
1, 8286, Note_on_c, 1, 50, 0
1, 8288, Note_on_c, 1, 54, 75
1, 8318, Note_on_c, 1, 54, 0
1, 8320, Note_on_c, 1, 57, 76
1, 8350, Note_on_c, 1, 57, 0
1, 8352, Note_on_c, 1, 50, 77
1, 8382, Note_on_c, 1, 50, 0
1, 8384, Note_on_c, 1, 54, 77
1, 8414, Note_on_c, 1, 54, 0
1, 8416, Note_on_c, 1, 57, 78
1, 8433, Note_on_c, 0, 78, 0
1, 8433, Note_on_c, 0, 66, 0
1, 8446, Note_on_c, 1, 57, 0
1, 8448, Note_on_c, 0, 82, 101
1, 8448, Note_on_c, 0, 70, 101
1, 8448, Note_on_c, 1, 49, 80
1, 8478, Note_on_c, 1, 49, 0
1, 8480, Note_on_c, 1, 52, 80
1, 8510, Note_on_c, 1, 52, 0
1, 8512, Note_on_c, 1, 55, 80
1, 8542, Note_on_c, 1, 55, 0
1, 8544, Note_on_c, 1, 49, 80
1, 8574, Note_on_c, 1, 49, 0
1, 8576, Note_on_c, 1, 52, 80
1, 8606, Note_on_c, 1, 52, 0
1, 8608, Note_on_c, 1, 55, 80
1, 8638, Note_on_c, 1, 55, 0
1, 8640, Note_on_c, 1, 49, 80
1, 8670, Note_on_c, 0, 82, 0
1, 8670, Note_on_c, 0, 70, 0
1, 8670, Note_on_c, 1, 49, 0
1, 8672, Note_on_c, 0, 88, 80
1, 8672, Note_on_c, 0, 76, 80
1, 8672, Note_on_c, 1, 52, 80
1, 8702, Note_on_c, 0, 88, 0
1, 8702, Note_on_c, 0, 76, 0
1, 8702, Note_on_c, 1, 52, 0
1, 8704, Note_on_c, 0, 86, 80
1, 8704, Note_on_c, 0, 74, 80
1, 8704, Note_on_c, 1, 55, 80
1, 8734, Note_on_c, 0, 86, 0
1, 8734, Note_on_c, 0, 74, 0
1, 8734, Note_on_c, 1, 55, 0
1, 8736, Note_on_c, 0, 85, 80
1, 8736, Note_on_c, 0, 73, 80
1, 8736, Note_on_c, 1, 49, 80
1, 8766, Note_on_c, 0, 85, 0
1, 8766, Note_on_c, 0, 73, 0
1, 8766, Note_on_c, 1, 49, 0
1, 8768, Note_on_c, 0, 83, 80
1, 8768, Note_on_c, 0, 71, 80
1, 8768, Note_on_c, 1, 52, 80
1, 8798, Note_on_c, 0, 83, 0
1, 8798, Note_on_c, 0, 71, 0
1, 8798, Note_on_c, 1, 52, 0
1, 8800, Note_on_c, 0, 82, 80
1, 8800, Note_on_c, 0, 70, 80
1, 8800, Note_on_c, 1, 55, 80
1, 8830, Note_on_c, 0, 82, 0
1, 8830, Note_on_c, 0, 70, 0
1, 8830, Note_on_c, 1, 55, 0
1, 8832, Note_on_c, 0, 83, 80
1, 8832, Note_on_c, 0, 71, 80
1, 8832, Note_on_c, 1, 50, 80
1, 8862, Note_on_c, 1, 50, 0
1, 8864, Note_on_c, 1, 54, 80
1, 8894, Note_on_c, 1, 54, 0
1, 8896, Note_on_c, 1, 59, 80
1, 8921, Note_on_c, 0, 83, 0
1, 8921, Note_on_c, 0, 71, 0
1, 8926, Note_on_c, 1, 59, 0
1, 8928, Note_on_c, 0, 85, 80
1, 8928, Note_on_c, 0, 73, 80
1, 8928, Note_on_c, 1, 49, 80
1, 8958, Note_on_c, 1, 49, 0
1, 8960, Note_on_c, 1, 52, 80
1, 8990, Note_on_c, 1, 52, 0
1, 8992, Note_on_c, 1, 58, 80
1, 9017, Note_on_c, 0, 85, 0
1, 9017, Note_on_c, 0, 73, 0
1, 9022, Note_on_c, 1, 58, 0
1, 9024, Note_on_c, 0, 88, 80
1, 9024, Note_on_c, 0, 76, 80
1, 9024, Note_on_c, 1, 47, 80
1, 9054, Note_on_c, 1, 47, 0
1, 9056, Note_on_c, 1, 50, 80
1, 9072, Note_on_c, 0, 88, 0
1, 9072, Note_on_c, 0, 76, 0
1, 9072, Note_on_c, 0, 86, 80
1, 9072, Note_on_c, 0, 74, 80
1, 9086, Note_on_c, 1, 50, 0
1, 9088, Note_on_c, 1, 59, 80
1, 9117, Note_on_c, 0, 86, 0
1, 9117, Note_on_c, 0, 74, 0
1, 9118, Note_on_c, 1, 59, 0
1, 9120, Note_on_c, 0, 85, 80
1, 9120, Note_on_c, 0, 73, 80
1, 9120, Note_on_c, 1, 50, 80
1, 9150, Note_on_c, 1, 50, 0
1, 9152, Note_on_c, 1, 54, 80
1, 9168, Note_on_c, 0, 85, 0
1, 9168, Note_on_c, 0, 73, 0
1, 9168, Note_on_c, 0, 83, 80
1, 9168, Note_on_c, 0, 71, 80
1, 9182, Note_on_c, 1, 54, 0
1, 9184, Note_on_c, 1, 59, 80
1, 9213, Note_on_c, 0, 83, 0
1, 9213, Note_on_c, 0, 71, 0
1, 9214, Note_on_c, 1, 59, 0
1, 9216, Note_on_c, 0, 81, 80
1, 9216, Note_on_c, 0, 73, 80
1, 9216, Note_on_c, 1, 52, 80
1, 9246, Note_on_c, 1, 52, 0
1, 9248, Note_on_c, 1, 57, 80
1, 9278, Note_on_c, 1, 57, 0
1, 9280, Note_on_c, 1, 61, 81
1, 9310, Note_on_c, 1, 61, 0
1, 9312, Note_on_c, 1, 64, 81
1, 9342, Note_on_c, 1, 64, 0
1, 9344, Note_on_c, 1, 66, 82
1, 9374, Note_on_c, 1, 66, 0
1, 9376, Note_on_c, 1, 63, 83
1, 9406, Note_on_c, 1, 63, 0
1, 9408, Note_on_c, 0, 81, 0
1, 9408, Note_on_c, 0, 73, 0
1, 9408, Note_on_c, 0, 80, 86
1, 9408, Note_on_c, 1, 71, 83
1, 9408, Note_on_c, 1, 64, 83
1, 9438, Note_on_c, 0, 80, 0
1, 9440, Note_on_c, 0, 78, 83
1, 9470, Note_on_c, 0, 78, 0
1, 9472, Note_on_c, 0, 76, 81
1, 9497, Note_on_c, 1, 71, 0
1, 9497, Note_on_c, 1, 64, 0
1, 9502, Note_on_c, 0, 76, 0
1, 9504, Note_on_c, 0, 74, 78
1, 9534, Note_on_c, 0, 74, 0
1, 9536, Note_on_c, 0, 73, 76
1, 9566, Note_on_c, 0, 73, 0
1, 9568, Note_on_c, 0, 71, 73
1, 9598, Note_on_c, 0, 71, 0
1, 9600, Note_on_c, 0, 69, 70
1, 9600, Note_on_c, 1, 57, 64
1, 9630, Note_on_c, 1, 57, 0
1, 9632, Note_on_c, 1, 61, 64
1, 9639, Note_on_c, 0, 69, 0
1, 9662, Note_on_c, 1, 61, 0
1, 9664, Note_on_c, 1, 64, 64
1, 9694, Note_on_c, 1, 64, 0
1, 9696, Note_on_c, 0, 69, 70
1, 9696, Note_on_c, 1, 57, 64
1, 9726, Note_on_c, 1, 57, 0
1, 9728, Note_on_c, 1, 61, 64
1, 9735, Note_on_c, 0, 69, 0
1, 9758, Note_on_c, 1, 61, 0
1, 9760, Note_on_c, 1, 64, 64
1, 9790, Note_on_c, 1, 64, 0
1, 9792, Note_on_c, 0, 71, 70
1, 9792, Note_on_c, 1, 56, 64
1, 9822, Note_on_c, 1, 56, 0
1, 9824, Note_on_c, 1, 62, 64
1, 9831, Note_on_c, 0, 71, 0
1, 9854, Note_on_c, 1, 62, 0
1, 9856, Note_on_c, 1, 64, 64
1, 9886, Note_on_c, 1, 64, 0
1, 9888, Note_on_c, 1, 56, 64
1, 9918, Note_on_c, 1, 56, 0
1, 9920, Note_on_c, 1, 62, 64
1, 9950, Note_on_c, 1, 62, 0
1, 9952, Note_on_c, 1, 64, 64
1, 9982, Note_on_c, 1, 64, 0
1, 9984, Note_on_c, 0, 73, 70
1, 9984, Note_on_c, 1, 57, 64
1, 10014, Note_on_c, 1, 57, 0
1, 10016, Note_on_c, 1, 61, 64
1, 10023, Note_on_c, 0, 73, 0
1, 10046, Note_on_c, 1, 61, 0
1, 10048, Note_on_c, 1, 64, 64
1, 10078, Note_on_c, 1, 64, 0
1, 10080, Note_on_c, 0, 73, 70
1, 10080, Note_on_c, 1, 57, 64
1, 10110, Note_on_c, 1, 57, 0
1, 10112, Note_on_c, 1, 61, 64
1, 10119, Note_on_c, 0, 73, 0
1, 10142, Note_on_c, 1, 61, 0
1, 10144, Note_on_c, 1, 64, 64
1, 10174, Note_on_c, 1, 64, 0
1, 10176, Note_on_c, 0, 74, 70
1, 10176, Note_on_c, 1, 59, 70
1, 10206, Note_on_c, 1, 59, 0
1, 10208, Note_on_c, 1, 62, 70
1, 10215, Note_on_c, 0, 74, 0
1, 10238, Note_on_c, 1, 62, 0
1, 10240, Note_on_c, 1, 64, 71
1, 10270, Note_on_c, 1, 64, 0
1, 10272, Note_on_c, 1, 59, 72
1, 10302, Note_on_c, 1, 59, 0
1, 10304, Note_on_c, 1, 62, 73
1, 10334, Note_on_c, 1, 62, 0
1, 10336, Note_on_c, 1, 64, 73
1, 10366, Note_on_c, 1, 64, 0
1, 10368, Note_on_c, 1, 61, 75
1, 10368, Note_on_c, 1, 57, 75
1, 10400, Note_on_c, 0, 85, 75
1, 10430, Note_on_c, 0, 85, 0
1, 10432, Note_on_c, 0, 83, 75
1, 10457, Note_on_c, 1, 61, 0
1, 10457, Note_on_c, 1, 57, 0
1, 10462, Note_on_c, 0, 83, 0
1, 10464, Note_on_c, 0, 81, 75
1, 10494, Note_on_c, 0, 81, 0
1, 10496, Note_on_c, 0, 80, 75
1, 10526, Note_on_c, 0, 80, 0
1, 10528, Note_on_c, 0, 78, 75
1, 10558, Note_on_c, 0, 78, 0
1, 10560, Note_on_c, 0, 76, 75
1, 10590, Note_on_c, 0, 76, 0
1, 10592, Note_on_c, 0, 78, 75
1, 10622, Note_on_c, 0, 78, 0
1, 10624, Note_on_c, 0, 76, 75
1, 10654, Note_on_c, 0, 76, 0
1, 10656, Note_on_c, 0, 74, 75
1, 10656, Note_on_c, 1, 64, 75
1, 10656, Note_on_c, 1, 59, 75
1, 10656, Note_on_c, 1, 56, 75
1, 10686, Note_on_c, 0, 74, 0
1, 10688, Note_on_c, 0, 73, 75
1, 10718, Note_on_c, 0, 73, 0
1, 10720, Note_on_c, 0, 71, 75
1, 10745, Note_on_c, 1, 64, 0
1, 10745, Note_on_c, 1, 59, 0
1, 10745, Note_on_c, 1, 56, 0
1, 10750, Note_on_c, 0, 71, 0
1, 10752, Note_on_c, 0, 69, 75
1, 10752, Note_on_c, 1, 64, 75
1, 10752, Note_on_c, 1, 61, 75
1, 10752, Note_on_c, 1, 57, 75
1, 10782, Note_on_c, 0, 69, 0
1, 10784, Note_on_c, 0, 85, 96
1, 10816, Note_on_c, 0, 85, 0
1, 10816, Note_on_c, 0, 83, 75
1, 10841, Note_on_c, 1, 64, 0
1, 10841, Note_on_c, 1, 61, 0
1, 10841, Note_on_c, 1, 57, 0
1, 10846, Note_on_c, 0, 83, 0
1, 10848, Note_on_c, 0, 81, 75
1, 10861, Note_on_c, 0, 81, 0
1, 10880, Note_on_c, 0, 80, 96
1, 10912, Note_on_c, 0, 80, 0
1, 10912, Note_on_c, 0, 78, 75
1, 10942, Note_on_c, 0, 78, 0
1, 10944, Note_on_c, 0, 76, 75
1, 10957, Note_on_c, 0, 76, 0
1, 10976, Note_on_c, 0, 78, 96
1, 11008, Note_on_c, 0, 78, 0
1, 11008, Note_on_c, 0, 76, 75
1, 11038, Note_on_c, 0, 76, 0
1, 11040, Note_on_c, 0, 74, 75
1, 11040, Note_on_c, 1, 64, 75
1, 11040, Note_on_c, 1, 59, 75
1, 11040, Note_on_c, 1, 56, 75
1, 11053, Note_on_c, 0, 74, 0
1, 11072, Note_on_c, 0, 73, 96
1, 11104, Note_on_c, 0, 73, 0
1, 11104, Note_on_c, 0, 71, 75
1, 11129, Note_on_c, 1, 64, 0
1, 11129, Note_on_c, 1, 59, 0
1, 11129, Note_on_c, 1, 56, 0
1, 11134, Note_on_c, 0, 71, 0
1, 11136, Note_on_c, 0, 69, 75
1, 11136, Note_on_c, 1, 64, 75
1, 11136, Note_on_c, 1, 61, 75
1, 11136, Note_on_c, 1, 57, 75
1, 11166, Note_on_c, 0, 69, 0
1, 11168, Note_on_c, 0, 81, 80
1, 11198, Note_on_c, 0, 81, 0
1, 11200, Note_on_c, 0, 80, 80
1, 11225, Note_on_c, 1, 64, 0
1, 11225, Note_on_c, 1, 61, 0
1, 11225, Note_on_c, 1, 57, 0
1, 11230, Note_on_c, 0, 80, 0
1, 11232, Note_on_c, 0, 78, 80
1, 11232, Note_on_c, 1, 73, 70
1, 11232, Note_on_c, 1, 69, 70
1, 11262, Note_on_c, 0, 78, 0
1, 11264, Note_on_c, 0, 85, 80
1, 11294, Note_on_c, 0, 85, 0
1, 11296, Note_on_c, 0, 75, 80
1, 11321, Note_on_c, 1, 73, 0
1, 11321, Note_on_c, 1, 69, 0
1, 11326, Note_on_c, 0, 75, 0
1, 11328, Note_on_c, 0, 76, 80
1, 11328, Note_on_c, 1, 71, 70
1, 11328, Note_on_c, 1, 68, 70
1, 11358, Note_on_c, 0, 76, 0
1, 11360, Note_on_c, 0, 78, 80
1, 11390, Note_on_c, 0, 78, 0
1, 11392, Note_on_c, 0, 76, 80
1, 11417, Note_on_c, 1, 71, 0
1, 11417, Note_on_c, 1, 68, 0
1, 11422, Note_on_c, 0, 76, 0
1, 11424, Note_on_c, 0, 74, 80
1, 11424, Note_on_c, 1, 69, 70
1, 11424, Note_on_c, 1, 66, 70
1, 11454, Note_on_c, 0, 74, 0
1, 11456, Note_on_c, 0, 81, 80
1, 11486, Note_on_c, 0, 81, 0
1, 11488, Note_on_c, 0, 72, 80
1, 11513, Note_on_c, 1, 69, 0
1, 11513, Note_on_c, 1, 66, 0
1, 11518, Note_on_c, 0, 72, 0
1, 11520, Note_on_c, 0, 73, 80
1, 11520, Note_on_c, 1, 68, 80
1, 11520, Note_on_c, 1, 64, 80
1, 11550, Note_on_c, 0, 73, 0
1, 11552, Note_on_c, 0, 74, 79
1, 11582, Note_on_c, 0, 74, 0
1, 11584, Note_on_c, 0, 73, 78
1, 11609, Note_on_c, 1, 68, 0
1, 11609, Note_on_c, 1, 64, 0
1, 11614, Note_on_c, 0, 73, 0
1, 11616, Note_on_c, 0, 71, 78
1, 11616, Note_on_c, 1, 66, 76
1, 11616, Note_on_c, 1, 62, 76
1, 11646, Note_on_c, 0, 71, 0
1, 11648, Note_on_c, 0, 78, 77
1, 11678, Note_on_c, 0, 78, 0
1, 11680, Note_on_c, 0, 68, 77
1, 11705, Note_on_c, 1, 66, 0
1, 11705, Note_on_c, 1, 62, 0
1, 11710, Note_on_c, 0, 68, 0
1, 11712, Note_on_c, 0, 69, 76
1, 11712, Note_on_c, 1, 64, 72
1, 11712, Note_on_c, 1, 61, 72
1, 11742, Note_on_c, 0, 69, 0
1, 11744, Note_on_c, 0, 73, 76
1, 11774, Note_on_c, 0, 73, 0
1, 11776, Note_on_c, 0, 71, 75
1, 11801, Note_on_c, 1, 64, 0
1, 11801, Note_on_c, 1, 61, 0
1, 11806, Note_on_c, 0, 71, 0
1, 11808, Note_on_c, 0, 69, 74
1, 11838, Note_on_c, 0, 69, 0
1, 11840, Note_on_c, 0, 76, 74
1, 11870, Note_on_c, 0, 76, 0
1, 11872, Note_on_c, 0, 70, 73
1, 11902, Note_on_c, 0, 70, 0
1, 11904, Note_on_c, 0, 71, 73
1, 11904, Note_on_c, 1, 50, 65
1, 11934, Note_on_c, 1, 50, 0
1, 11936, Note_on_c, 1, 54, 64
1, 11966, Note_on_c, 1, 54, 0
1, 11968, Note_on_c, 1, 59, 64
1, 11998, Note_on_c, 1, 59, 0
1, 12000, Note_on_c, 1, 50, 64
1, 12030, Note_on_c, 1, 50, 0
1, 12032, Note_on_c, 1, 54, 64
1, 12037, Note_on_c, 0, 71, 0
1, 12048, Note_on_c, 0, 71, 70
1, 12060, Note_on_c, 0, 71, 0
1, 12060, Note_on_c, 0, 73, 70
1, 12062, Note_on_c, 1, 54, 0
1, 12064, Note_on_c, 1, 59, 64
1, 12072, Note_on_c, 0, 73, 0
1, 12072, Note_on_c, 0, 74, 70
1, 12084, Note_on_c, 0, 74, 0
1, 12084, Note_on_c, 0, 76, 70
1, 12094, Note_on_c, 1, 59, 0
1, 12096, Note_on_c, 0, 76, 0
1, 12096, Note_on_c, 0, 77, 87
1, 12096, Note_on_c, 1, 51, 64
1, 12126, Note_on_c, 1, 51, 0
1, 12128, Note_on_c, 1, 57, 64
1, 12158, Note_on_c, 1, 57, 0
1, 12160, Note_on_c, 1, 60, 64
1, 12190, Note_on_c, 1, 60, 0
1, 12192, Note_on_c, 0, 77, 0
1, 12192, Note_on_c, 0, 78, 73
1, 12192, Note_on_c, 1, 51, 64
1, 12222, Note_on_c, 1, 51, 0
1, 12224, Note_on_c, 1, 57, 64
1, 12254, Note_on_c, 1, 57, 0
1, 12256, Note_on_c, 1, 60, 64
1, 12281, Note_on_c, 0, 78, 0
1, 12286, Note_on_c, 1, 60, 0
1, 12288, Note_on_c, 0, 78, 75
1, 12288, Note_on_c, 1, 52, 64
1, 12306, Note_on_c, 0, 78, 0
1, 12306, Note_on_c, 0, 69, 91
1, 12318, Note_on_c, 1, 52, 0
1, 12320, Note_on_c, 1, 57, 64
1, 12350, Note_on_c, 1, 57, 0
1, 12352, Note_on_c, 1, 61, 64
1, 12382, Note_on_c, 1, 61, 0
1, 12384, Note_on_c, 1, 52, 64
1, 12414, Note_on_c, 1, 52, 0
1, 12416, Note_on_c, 1, 57, 64
1, 12446, Note_on_c, 1, 57, 0
1, 12448, Note_on_c, 1, 61, 64
1, 12478, Note_on_c, 1, 61, 0
1, 12480, Note_on_c, 0, 69, 0
1, 12480, Note_on_c, 0, 73, 71
1, 12480, Note_on_c, 1, 52, 64
1, 12492, Note_on_c, 0, 73, 0
1, 12492, Note_on_c, 0, 71, 71
1, 12510, Note_on_c, 1, 52, 0
1, 12512, Note_on_c, 1, 56, 64
1, 12542, Note_on_c, 1, 56, 0
1, 12544, Note_on_c, 1, 62, 64
1, 12547, Note_on_c, 0, 71, 0
1, 12552, Note_on_c, 0, 69, 70
1, 12574, Note_on_c, 1, 62, 0
1, 12575, Note_on_c, 0, 69, 0
1, 12576, Note_on_c, 0, 71, 70
1, 12576, Note_on_c, 1, 52, 64
1, 12606, Note_on_c, 1, 52, 0
1, 12608, Note_on_c, 1, 56, 64
1, 12638, Note_on_c, 1, 56, 0
1, 12640, Note_on_c, 1, 62, 64
1, 12643, Note_on_c, 0, 71, 0
1, 12648, Note_on_c, 0, 73, 70
1, 12670, Note_on_c, 1, 62, 0
1, 12671, Note_on_c, 0, 73, 0
1, 12672, Note_on_c, 0, 69, 70
1, 12672, Note_on_c, 1, 61, 64
1, 12672, Note_on_c, 1, 57, 64
1, 12702, Note_on_c, 0, 69, 0
1, 12704, Note_on_c, 0, 81, 75
1, 12704, Note_on_c, 0, 78, 75
1, 12734, Note_on_c, 0, 81, 0
1, 12734, Note_on_c, 0, 78, 0
1, 12736, Note_on_c, 0, 80, 75
1, 12736, Note_on_c, 0, 76, 75
1, 12761, Note_on_c, 1, 61, 0
1, 12761, Note_on_c, 1, 57, 0
1, 12766, Note_on_c, 0, 80, 0
1, 12766, Note_on_c, 0, 76, 0
1, 12768, Note_on_c, 0, 78, 75
1, 12768, Note_on_c, 0, 74, 75
1, 12798, Note_on_c, 0, 78, 0
1, 12798, Note_on_c, 0, 74, 0
1, 12800, Note_on_c, 0, 76, 75
1, 12800, Note_on_c, 0, 73, 75
1, 12830, Note_on_c, 0, 76, 0
1, 12830, Note_on_c, 0, 73, 0
1, 12832, Note_on_c, 0, 74, 75
1, 12832, Note_on_c, 0, 71, 75
1, 12832, Note_on_c, 1, 56, 75
1, 12832, Note_on_c, 1, 44, 75
1, 12862, Note_on_c, 0, 74, 0
1, 12862, Note_on_c, 0, 71, 0
1, 12862, Note_on_c, 1, 56, 0
1, 12862, Note_on_c, 1, 44, 0
1, 12864, Note_on_c, 0, 73, 75
1, 12864, Note_on_c, 0, 69, 75
1, 12864, Note_on_c, 1, 57, 75
1, 12864, Note_on_c, 1, 45, 75
1, 12894, Note_on_c, 0, 73, 0
1, 12894, Note_on_c, 0, 69, 0
1, 12896, Note_on_c, 0, 81, 75
1, 12896, Note_on_c, 0, 78, 75
1, 12926, Note_on_c, 0, 81, 0
1, 12926, Note_on_c, 0, 78, 0
1, 12928, Note_on_c, 0, 80, 76
1, 12928, Note_on_c, 0, 76, 76
1, 12953, Note_on_c, 1, 57, 0
1, 12953, Note_on_c, 1, 45, 0
1, 12958, Note_on_c, 0, 80, 0
1, 12958, Note_on_c, 0, 76, 0
1, 12960, Note_on_c, 0, 78, 76
1, 12960, Note_on_c, 0, 74, 76
1, 12990, Note_on_c, 0, 78, 0
1, 12990, Note_on_c, 0, 74, 0
1, 12992, Note_on_c, 0, 76, 77
1, 12992, Note_on_c, 0, 73, 77
1, 13022, Note_on_c, 0, 76, 0
1, 13022, Note_on_c, 0, 73, 0
1, 13024, Note_on_c, 0, 74, 77
1, 13024, Note_on_c, 0, 71, 77
1, 13024, Note_on_c, 1, 56, 77
1, 13024, Note_on_c, 1, 44, 77
1, 13054, Note_on_c, 0, 74, 0
1, 13054, Note_on_c, 0, 71, 0
1, 13054, Note_on_c, 1, 56, 0
1, 13054, Note_on_c, 1, 44, 0
1, 13056, Note_on_c, 0, 73, 78
1, 13056, Note_on_c, 0, 69, 78
1, 13056, Note_on_c, 1, 57, 78
1, 13056, Note_on_c, 1, 45, 78
1, 13086, Note_on_c, 0, 73, 0
1, 13086, Note_on_c, 0, 69, 0
1, 13088, Note_on_c, 0, 85, 79
1, 13120, Note_on_c, 0, 85, 0
1, 13120, Note_on_c, 0, 83, 80
1, 13145, Note_on_c, 1, 57, 0
1, 13145, Note_on_c, 1, 45, 0
1, 13150, Note_on_c, 0, 83, 0
1, 13152, Note_on_c, 0, 81, 80
1, 13165, Note_on_c, 0, 81, 0
1, 13184, Note_on_c, 0, 81, 78
1, 13184, Note_on_c, 1, 66, 78
1, 13216, Note_on_c, 0, 81, 0
1, 13216, Note_on_c, 0, 80, 77
1, 13216, Note_on_c, 1, 66, 0
1, 13216, Note_on_c, 1, 64, 76
1, 13246, Note_on_c, 0, 80, 0
1, 13246, Note_on_c, 1, 64, 0
1, 13248, Note_on_c, 0, 78, 76
1, 13248, Note_on_c, 1, 62, 75
1, 13261, Note_on_c, 0, 78, 0
1, 13261, Note_on_c, 1, 62, 0
1, 13280, Note_on_c, 0, 78, 75
1, 13280, Note_on_c, 1, 62, 73
1, 13312, Note_on_c, 0, 78, 0
1, 13312, Note_on_c, 0, 76, 74
1, 13312, Note_on_c, 1, 62, 0
1, 13312, Note_on_c, 1, 61, 71
1, 13342, Note_on_c, 0, 76, 0
1, 13342, Note_on_c, 1, 61, 0
1, 13344, Note_on_c, 0, 74, 73
1, 13344, Note_on_c, 1, 59, 70
1, 13357, Note_on_c, 0, 74, 0
1, 13357, Note_on_c, 1, 59, 0
1, 13376, Note_on_c, 0, 74, 72
1, 13376, Note_on_c, 1, 59, 68
1, 13408, Note_on_c, 0, 74, 0
1, 13408, Note_on_c, 0, 73, 71
1, 13408, Note_on_c, 1, 59, 0
1, 13408, Note_on_c, 1, 57, 66
1, 13438, Note_on_c, 0, 73, 0
1, 13438, Note_on_c, 1, 57, 0
1, 13440, Note_on_c, 0, 71, 70
1, 13440, Note_on_c, 1, 56, 64
1, 13470, Note_on_c, 1, 56, 0
1, 13472, Note_on_c, 1, 59, 64
1, 13502, Note_on_c, 1, 59, 0
1, 13504, Note_on_c, 1, 64, 64
1, 13529, Note_on_c, 0, 71, 0
1, 13534, Note_on_c, 1, 64, 0
1, 13536, Note_on_c, 0, 74, 70
1, 13536, Note_on_c, 1, 56, 64
1, 13566, Note_on_c, 1, 56, 0
1, 13568, Note_on_c, 1, 59, 64
1, 13598, Note_on_c, 1, 59, 0
1, 13600, Note_on_c, 1, 64, 64
1, 13625, Note_on_c, 0, 74, 0
1, 13630, Note_on_c, 1, 64, 0
1, 13632, Note_on_c, 0, 73, 70
1, 13632, Note_on_c, 1, 57, 64
1, 13662, Note_on_c, 1, 57, 0
1, 13664, Note_on_c, 1, 61, 64
1, 13694, Note_on_c, 1, 61, 0
1, 13696, Note_on_c, 1, 64, 64
1, 13721, Note_on_c, 0, 73, 0
1, 13726, Note_on_c, 1, 64, 0
1, 13728, Note_on_c, 0, 69, 70
1, 13728, Note_on_c, 1, 57, 64
1, 13758, Note_on_c, 1, 57, 0
1, 13760, Note_on_c, 1, 61, 64
1, 13790, Note_on_c, 1, 61, 0
1, 13792, Note_on_c, 1, 64, 64
1, 13817, Note_on_c, 0, 69, 0
1, 13822, Note_on_c, 1, 64, 0
1, 13824, Note_on_c, 0, 78, 86
1, 13824, Note_on_c, 1, 50, 64
1, 13854, Note_on_c, 1, 50, 0
1, 13856, Note_on_c, 1, 54, 66
1, 13886, Note_on_c, 1, 54, 0
1, 13888, Note_on_c, 1, 59, 68
1, 13918, Note_on_c, 1, 59, 0
1, 13920, Note_on_c, 1, 50, 70
1, 13950, Note_on_c, 1, 50, 0
1, 13952, Note_on_c, 1, 54, 72
1, 13968, Note_on_c, 0, 78, 0
1, 13968, Note_on_c, 0, 80, 73
1, 13980, Note_on_c, 0, 80, 0
1, 13980, Note_on_c, 0, 78, 74
1, 13982, Note_on_c, 1, 54, 0
1, 13984, Note_on_c, 1, 59, 74
1, 13992, Note_on_c, 0, 78, 0
1, 13992, Note_on_c, 0, 77, 74
1, 14004, Note_on_c, 0, 77, 0
1, 14004, Note_on_c, 0, 78, 74
1, 14014, Note_on_c, 1, 59, 0
1, 14016, Note_on_c, 0, 78, 0
1, 14016, Note_on_c, 0, 81, 91
1, 14016, Note_on_c, 1, 51, 76
1, 14046, Note_on_c, 1, 51, 0
1, 14048, Note_on_c, 1, 57, 80
1, 14078, Note_on_c, 1, 57, 0
1, 14080, Note_on_c, 1, 60, 80
1, 14110, Note_on_c, 1, 60, 0
1, 14112, Note_on_c, 1, 51, 80
1, 14142, Note_on_c, 1, 51, 0
1, 14144, Note_on_c, 1, 57, 80
1, 14174, Note_on_c, 1, 57, 0
1, 14176, Note_on_c, 1, 60, 80
1, 14206, Note_on_c, 1, 60, 0
1, 14208, Note_on_c, 0, 81, 0
1, 14208, Note_on_c, 0, 69, 80
1, 14208, Note_on_c, 1, 52, 80
1, 14238, Note_on_c, 1, 52, 0
1, 14240, Note_on_c, 1, 57, 80
1, 14270, Note_on_c, 1, 57, 0
1, 14272, Note_on_c, 1, 61, 80
1, 14302, Note_on_c, 1, 61, 0
1, 14304, Note_on_c, 1, 52, 80
1, 14334, Note_on_c, 1, 52, 0
1, 14336, Note_on_c, 1, 57, 80
1, 14366, Note_on_c, 1, 57, 0
1, 14368, Note_on_c, 1, 61, 80
1, 14385, Note_on_c, 0, 69, 0
1, 14398, Note_on_c, 1, 61, 0
1, 14400, Note_on_c, 0, 73, 80
1, 14400, Note_on_c, 1, 52, 80
1, 14412, Note_on_c, 0, 73, 0
1, 14412, Note_on_c, 0, 71, 80
1, 14430, Note_on_c, 1, 52, 0
1, 14432, Note_on_c, 1, 56, 80
1, 14462, Note_on_c, 1, 56, 0
1, 14464, Note_on_c, 1, 62, 77
1, 14467, Note_on_c, 0, 71, 0
1, 14472, Note_on_c, 0, 69, 80
1, 14494, Note_on_c, 1, 62, 0
1, 14495, Note_on_c, 0, 69, 0
1, 14496, Note_on_c, 0, 71, 78
1, 14496, Note_on_c, 1, 52, 75
1, 14526, Note_on_c, 1, 52, 0
1, 14528, Note_on_c, 1, 56, 72
1, 14558, Note_on_c, 1, 56, 0
1, 14560, Note_on_c, 1, 62, 70
1, 14563, Note_on_c, 0, 71, 0
1, 14568, Note_on_c, 0, 73, 72
1, 14590, Note_on_c, 1, 62, 0
1, 14591, Note_on_c, 0, 73, 0
1, 14592, Note_on_c, 0, 69, 71
1, 14592, Note_on_c, 1, 57, 67
1, 14622, Note_on_c, 1, 57, 0
1, 14624, Note_on_c, 1, 61, 64
1, 14654, Note_on_c, 1, 61, 0
1, 14656, Note_on_c, 1, 64, 64
1, 14681, Note_on_c, 0, 69, 0
1, 14686, Note_on_c, 1, 64, 0
1, 14688, Note_on_c, 1, 57, 64
1, 14718, Note_on_c, 1, 57, 0
1, 14720, Note_on_c, 1, 61, 64
1, 14750, Note_on_c, 1, 61, 0
1, 14752, Note_on_c, 1, 64, 64
1, 14782, Note_on_c, 1, 64, 0
1, 14784, Note_on_c, 0, 76, 64
1, 14784, Note_on_c, 0, 68, 64
1, 14784, Note_on_c, 1, 52, 64
1, 14814, Note_on_c, 1, 52, 0
1, 14816, Note_on_c, 1, 59, 64
1, 14823, Note_on_c, 0, 76, 0
1, 14823, Note_on_c, 0, 68, 0
1, 14846, Note_on_c, 1, 59, 0
1, 14848, Note_on_c, 1, 62, 64
1, 14878, Note_on_c, 1, 62, 0
1, 14880, Note_on_c, 0, 76, 64
1, 14880, Note_on_c, 0, 68, 64
1, 14880, Note_on_c, 1, 52, 64
1, 14910, Note_on_c, 1, 52, 0
1, 14912, Note_on_c, 1, 59, 64
1, 14919, Note_on_c, 0, 76, 0
1, 14919, Note_on_c, 0, 68, 0
1, 14942, Note_on_c, 1, 59, 0
1, 14944, Note_on_c, 1, 62, 64
1, 14974, Note_on_c, 1, 62, 0
1, 14976, Note_on_c, 0, 73, 64
1, 14976, Note_on_c, 0, 69, 64
1, 14976, Note_on_c, 1, 57, 64
1, 15006, Note_on_c, 1, 57, 0
1, 15008, Note_on_c, 1, 61, 63
1, 15038, Note_on_c, 1, 61, 0
1, 15040, Note_on_c, 1, 64, 62
1, 15065, Note_on_c, 0, 73, 0
1, 15065, Note_on_c, 0, 69, 0
1, 15070, Note_on_c, 1, 64, 0
1, 15072, Note_on_c, 1, 57, 61
1, 15102, Note_on_c, 1, 57, 0
1, 15104, Note_on_c, 1, 61, 60
1, 15134, Note_on_c, 1, 61, 0
1, 15136, Note_on_c, 1, 64, 59
1, 15166, Note_on_c, 1, 64, 0
1, 15168, Note_on_c, 0, 76, 58
1, 15168, Note_on_c, 0, 68, 58
1, 15168, Note_on_c, 1, 52, 59
1, 15198, Note_on_c, 1, 52, 0
1, 15200, Note_on_c, 1, 59, 58
1, 15207, Note_on_c, 0, 76, 0
1, 15207, Note_on_c, 0, 68, 0
1, 15230, Note_on_c, 1, 59, 0
1, 15232, Note_on_c, 1, 62, 58
1, 15262, Note_on_c, 1, 62, 0
1, 15264, Note_on_c, 0, 76, 58
1, 15264, Note_on_c, 0, 68, 58
1, 15264, Note_on_c, 1, 52, 58
1, 15294, Note_on_c, 1, 52, 0
1, 15296, Note_on_c, 1, 59, 58
1, 15303, Note_on_c, 0, 76, 0
1, 15303, Note_on_c, 0, 68, 0
1, 15326, Note_on_c, 1, 59, 0
1, 15328, Note_on_c, 1, 62, 58
1, 15358, Note_on_c, 1, 62, 0
1, 15360, Note_on_c, 0, 69, 58
1, 15360, Note_on_c, 1, 57, 58
1, 15390, Note_on_c, 1, 57, 0
1, 15392, Note_on_c, 1, 61, 58
1, 15422, Note_on_c, 1, 61, 0
1, 15424, Note_on_c, 1, 64, 58
1, 15449, Note_on_c, 0, 69, 0
1, 15454, Note_on_c, 1, 64, 0
1, 15456, Note_on_c, 1, 57, 58
1, 15486, Note_on_c, 1, 57, 0
1, 15488, Note_on_c, 1, 61, 58
1, 15518, Note_on_c, 1, 61, 0
1, 15520, Note_on_c, 1, 64, 58
1, 15550, Note_on_c, 1, 64, 0
1, 15552, Note_on_c, 0, 45, 96
1, 15552, Note_on_c, 1, 57, 58
1, 15582, Note_on_c, 1, 57, 0
1, 15584, Note_on_c, 1, 61, 58
1, 15614, Note_on_c, 1, 61, 0
1, 15616, Note_on_c, 1, 64, 58
1, 15646, Note_on_c, 1, 64, 0
1, 15648, Note_on_c, 0, 45, 0
1, 15648, Note_on_c, 0, 45, 96
1, 15648, Note_on_c, 1, 57, 58
1, 15678, Note_on_c, 1, 57, 0
1, 15680, Note_on_c, 1, 61, 58
1, 15710, Note_on_c, 1, 61, 0
1, 15712, Note_on_c, 1, 64, 58
1, 15742, Note_on_c, 1, 64, 0
1, 15744, Note_on_c, 0, 45, 0
1, 15744, Note_on_c, 0, 45, 96
1, 15744, Note_on_c, 1, 57, 58
1, 15776, Note_on_c, 0, 45, 0
1, 15776, Note_on_c, 0, 52, 70
1, 15806, Note_on_c, 0, 52, 0
1, 15808, Note_on_c, 0, 50, 70
1, 15833, Note_on_c, 1, 57, 0
1, 15838, Note_on_c, 0, 50, 0
1, 15840, Note_on_c, 0, 49, 70
1, 15853, Note_on_c, 0, 49, 0
1, 15872, Note_on_c, 0, 55, 70
1, 15902, Note_on_c, 0, 55, 0
1, 15904, Note_on_c, 0, 54, 70
1, 15934, Note_on_c, 0, 54, 0
1, 15936, Note_on_c, 0, 52, 70
1, 15949, Note_on_c, 0, 52, 0
1, 15968, Note_on_c, 0, 59, 70
1, 15998, Note_on_c, 0, 59, 0
1, 16000, Note_on_c, 0, 57, 71
1, 16030, Note_on_c, 0, 57, 0
1, 16032, Note_on_c, 0, 55, 71
1, 16045, Note_on_c, 0, 55, 0
1, 16064, Note_on_c, 0, 64, 71
1, 16094, Note_on_c, 0, 64, 0
1, 16096, Note_on_c, 0, 62, 71
1, 16126, Note_on_c, 0, 62, 0
1, 16128, Note_on_c, 0, 61, 72
1, 16141, Note_on_c, 0, 61, 0
1, 16160, Note_on_c, 0, 67, 72
1, 16190, Note_on_c, 0, 67, 0
1, 16192, Note_on_c, 0, 66, 72
1, 16222, Note_on_c, 0, 66, 0
1, 16224, Note_on_c, 0, 64, 72
1, 16254, Note_on_c, 0, 64, 0
1, 16256, Note_on_c, 0, 62, 72
1, 16286, Note_on_c, 0, 62, 0
1, 16288, Note_on_c, 0, 61, 73
1, 16318, Note_on_c, 0, 61, 0
1, 16320, Note_on_c, 0, 60, 73
1, 16350, Note_on_c, 0, 60, 0
1, 16352, Note_on_c, 0, 59, 73
1, 16382, Note_on_c, 0, 59, 0
1, 16384, Note_on_c, 0, 58, 73
1, 16414, Note_on_c, 0, 58, 0
1, 16416, Note_on_c, 0, 57, 74
1, 16446, Note_on_c, 0, 57, 0
1, 16448, Note_on_c, 0, 56, 74
1, 16478, Note_on_c, 0, 56, 0
1, 16480, Note_on_c, 0, 55, 74
1, 16510, Note_on_c, 0, 55, 0
1, 16512, Note_on_c, 0, 54, 80
1, 16524, Note_on_c, 0, 54, 0
1, 16524, Note_on_c, 0, 57, 80
1, 16536, Note_on_c, 0, 57, 0
1, 16536, Note_on_c, 0, 62, 80
1, 16560, Note_on_c, 1, 49, 80
1, 16583, Note_on_c, 1, 49, 0
1, 16584, Note_on_c, 1, 50, 80
1, 16607, Note_on_c, 1, 50, 0
1, 16608, Note_on_c, 1, 38, 80
1, 16689, Note_on_c, 0, 62, 0
1, 16697, Note_on_c, 1, 38, 0
1, 16704, Note_on_c, 0, 57, 80
1, 16716, Note_on_c, 0, 57, 0
1, 16716, Note_on_c, 0, 61, 80
1, 16728, Note_on_c, 0, 61, 0
1, 16728, Note_on_c, 0, 64, 80
1, 16752, Note_on_c, 1, 44, 80
1, 16775, Note_on_c, 1, 44, 0
1, 16776, Note_on_c, 1, 45, 80
1, 16799, Note_on_c, 1, 45, 0
1, 16800, Note_on_c, 1, 33, 80
1, 16881, Note_on_c, 0, 64, 0
1, 16889, Note_on_c, 1, 33, 0
1, 16896, Note_on_c, 0, 57, 80
1, 16908, Note_on_c, 0, 57, 0
1, 16908, Note_on_c, 0, 62, 80
1, 16920, Note_on_c, 0, 62, 0
1, 16920, Note_on_c, 0, 66, 80
1, 16968, Note_on_c, 1, 49, 80
1, 16991, Note_on_c, 1, 49, 0
1, 16992, Note_on_c, 1, 50, 80
1, 17037, Note_on_c, 1, 50, 0
1, 17040, Note_on_c, 1, 45, 80
1, 17063, Note_on_c, 1, 45, 0
1, 17064, Note_on_c, 1, 42, 80
1, 17073, Note_on_c, 0, 66, 0
1, 17087, Note_on_c, 1, 42, 0
1, 17088, Note_on_c, 1, 38, 80
1, 17177, Note_on_c, 1, 38, 0
1, 17184, Note_on_c, 0, 74, 64
1, 17251, Note_on_c, 0, 74, 0
1, 17256, Note_on_c, 0, 69, 64
1, 17279, Note_on_c, 0, 69, 0
1, 17280, Note_on_c, 0, 66, 64
1, 17376, Note_on_c, 1, 62, 64
1, 17376, Note_on_c, 1, 62, 64
1, 17457, Note_on_c, 0, 66, 0
1, 17465, Note_on_c, 1, 62, 0
1, 17472, Note_on_c, 0, 69, 64
1, 17472, Note_on_c, 1, 59, 64
1, 17484, Note_on_c, 0, 69, 0
1, 17484, Note_on_c, 0, 67, 64
1, 17539, Note_on_c, 0, 67, 0
1, 17544, Note_on_c, 0, 66, 64
1, 17561, Note_on_c, 1, 59, 0
1, 17567, Note_on_c, 0, 66, 0
1, 17568, Note_on_c, 0, 67, 64
1, 17568, Note_on_c, 1, 55, 64
1, 17635, Note_on_c, 0, 67, 0
1, 17640, Note_on_c, 0, 71, 64
1, 17641, Note_on_c, 1, 62, 0
1, 17657, Note_on_c, 1, 55, 0
1, 17663, Note_on_c, 0, 71, 0
1, 17664, Note_on_c, 0, 64, 64
1, 17664, Note_on_c, 1, 61, 64
1, 17664, Note_on_c, 1, 57, 64
1, 17731, Note_on_c, 0, 64, 0
1, 17736, Note_on_c, 0, 67, 64
1, 17753, Note_on_c, 1, 61, 0
1, 17759, Note_on_c, 0, 67, 0
1, 17760, Note_on_c, 0, 66, 64
1, 17760, Note_on_c, 1, 62, 64
1, 17827, Note_on_c, 0, 66, 0
1, 17832, Note_on_c, 0, 69, 64
1, 17849, Note_on_c, 1, 62, 0
1, 17855, Note_on_c, 0, 69, 0
1, 17856, Note_on_c, 0, 67, 64
1, 17856, Note_on_c, 1, 64, 64
1, 17929, Note_on_c, 1, 57, 0
1, 17945, Note_on_c, 0, 67, 0
1, 17945, Note_on_c, 1, 64, 0
1, 18048, Note_on_c, 0, 54, 80
1, 18060, Note_on_c, 0, 54, 0
1, 18060, Note_on_c, 0, 57, 80
1, 18072, Note_on_c, 0, 57, 0
1, 18072, Note_on_c, 0, 62, 80
1, 18072, Note_on_c, 1, 50, 80
1, 18095, Note_on_c, 1, 50, 0
1, 18096, Note_on_c, 1, 45, 80
1, 18119, Note_on_c, 1, 45, 0
1, 18120, Note_on_c, 1, 42, 80
1, 18137, Note_on_c, 0, 62, 0
1, 18143, Note_on_c, 1, 42, 0
1, 18144, Note_on_c, 1, 38, 80
1, 18189, Note_on_c, 1, 38, 0
1, 18192, Note_on_c, 0, 54, 80
1, 18204, Note_on_c, 0, 54, 0
1, 18204, Note_on_c, 0, 57, 80
1, 18216, Note_on_c, 0, 57, 0
1, 18216, Note_on_c, 0, 62, 80
1, 18237, Note_on_c, 0, 62, 0
1, 18240, Note_on_c, 0, 57, 80
1, 18246, Note_on_c, 0, 57, 0
1, 18246, Note_on_c, 0, 61, 80
1, 18252, Note_on_c, 0, 61, 0
1, 18252, Note_on_c, 0, 64, 80
1, 18264, Note_on_c, 1, 45, 80
1, 18287, Note_on_c, 1, 45, 0
1, 18288, Note_on_c, 1, 40, 80
1, 18311, Note_on_c, 1, 40, 0
1, 18312, Note_on_c, 1, 37, 80
1, 18329, Note_on_c, 0, 64, 0
1, 18335, Note_on_c, 1, 37, 0
1, 18336, Note_on_c, 1, 33, 80
1, 18381, Note_on_c, 1, 33, 0
1, 18384, Note_on_c, 0, 57, 80
1, 18396, Note_on_c, 0, 57, 0
1, 18396, Note_on_c, 0, 61, 80
1, 18408, Note_on_c, 0, 61, 0
1, 18408, Note_on_c, 0, 64, 80
1, 18429, Note_on_c, 0, 64, 0
1, 18432, Note_on_c, 0, 57, 80
1, 18444, Note_on_c, 0, 57, 0
1, 18444, Note_on_c, 0, 62, 80
1, 18456, Note_on_c, 0, 62, 0
1, 18456, Note_on_c, 0, 66, 80
1, 18456, Note_on_c, 1, 38, 80
1, 18479, Note_on_c, 1, 38, 0
1, 18480, Note_on_c, 1, 40, 80
1, 18503, Note_on_c, 1, 40, 0
1, 18504, Note_on_c, 1, 42, 80
1, 18521, Note_on_c, 0, 66, 0
1, 18527, Note_on_c, 1, 42, 0
1, 18528, Note_on_c, 1, 43, 80
1, 18551, Note_on_c, 1, 43, 0
1, 18552, Note_on_c, 1, 45, 80
1, 18575, Note_on_c, 1, 45, 0
1, 18576, Note_on_c, 1, 47, 80
1, 18599, Note_on_c, 1, 47, 0
1, 18600, Note_on_c, 1, 49, 80
1, 18623, Note_on_c, 1, 49, 0
1, 18624, Note_on_c, 1, 50, 80
1, 18648, Note_on_c, 0, 81, 80
1, 18671, Note_on_c, 0, 81, 0
1, 18672, Note_on_c, 0, 79, 77
1, 18695, Note_on_c, 0, 79, 0
1, 18696, Note_on_c, 0, 78, 75
1, 18713, Note_on_c, 1, 50, 0
1, 18719, Note_on_c, 0, 78, 0
1, 18720, Note_on_c, 0, 76, 73
1, 18743, Note_on_c, 0, 76, 0
1, 18744, Note_on_c, 0, 74, 70
1, 18767, Note_on_c, 0, 74, 0
1, 18768, Note_on_c, 0, 73, 68
1, 18791, Note_on_c, 0, 73, 0
1, 18792, Note_on_c, 0, 71, 66
1, 18815, Note_on_c, 0, 71, 0
1, 18816, Note_on_c, 0, 69, 64
1, 18816, Note_on_c, 1, 66, 64
1, 18861, Note_on_c, 1, 66, 0
1, 18864, Note_on_c, 1, 62, 64
1, 18909, Note_on_c, 1, 62, 0
1, 18912, Note_on_c, 1, 66, 64
1, 18949, Note_on_c, 0, 69, 0
1, 18957, Note_on_c, 1, 66, 0
1, 18960, Note_on_c, 0, 70, 64
1, 18960, Note_on_c, 1, 62, 64
1, 19005, Note_on_c, 0, 70, 0
1, 19005, Note_on_c, 1, 62, 0
1, 19008, Note_on_c, 0, 71, 64
1, 19008, Note_on_c, 1, 67, 64
1, 19031, Note_on_c, 0, 71, 0
1, 19032, Note_on_c, 0, 73, 64
1, 19053, Note_on_c, 1, 67, 0
1, 19055, Note_on_c, 0, 73, 0
1, 19056, Note_on_c, 0, 74, 64
1, 19056, Note_on_c, 1, 62, 64
1, 19079, Note_on_c, 0, 74, 0
1, 19080, Note_on_c, 0, 73, 64
1, 19101, Note_on_c, 1, 62, 0
1, 19103, Note_on_c, 0, 73, 0
1, 19104, Note_on_c, 0, 76, 64
1, 19104, Note_on_c, 1, 67, 64
1, 19127, Note_on_c, 0, 76, 0
1, 19128, Note_on_c, 0, 74, 64
1, 19149, Note_on_c, 1, 67, 0
1, 19151, Note_on_c, 0, 74, 0
1, 19152, Note_on_c, 0, 73, 64
1, 19152, Note_on_c, 1, 62, 64
1, 19175, Note_on_c, 0, 73, 0
1, 19176, Note_on_c, 0, 71, 64
1, 19197, Note_on_c, 1, 62, 0
1, 19199, Note_on_c, 0, 71, 0
1, 19200, Note_on_c, 0, 69, 64
1, 19200, Note_on_c, 1, 66, 64
1, 19245, Note_on_c, 0, 69, 0
1, 19248, Note_on_c, 0, 71, 65
1, 19271, Note_on_c, 0, 71, 0
1, 19272, Note_on_c, 0, 73, 66
1, 19289, Note_on_c, 1, 66, 0
1, 19295, Note_on_c, 0, 73, 0
1, 19296, Note_on_c, 0, 74, 67
1, 19319, Note_on_c, 0, 74, 0
1, 19320, Note_on_c, 0, 76, 68
1, 19343, Note_on_c, 0, 76, 0
1, 19344, Note_on_c, 0, 78, 69
1, 19367, Note_on_c, 0, 78, 0
1, 19368, Note_on_c, 0, 79, 70
1, 19391, Note_on_c, 0, 79, 0
1, 19392, Note_on_c, 0, 81, 71
1, 19440, Note_on_c, 1, 66, 64
1, 19463, Note_on_c, 1, 66, 0
1, 19464, Note_on_c, 1, 64, 64
1, 19481, Note_on_c, 0, 81, 0
1, 19487, Note_on_c, 1, 64, 0
1, 19488, Note_on_c, 1, 62, 64
1, 19511, Note_on_c, 1, 62, 0
1, 19512, Note_on_c, 1, 61, 64
1, 19535, Note_on_c, 1, 61, 0
1, 19536, Note_on_c, 1, 59, 64
1, 19559, Note_on_c, 1, 59, 0
1, 19560, Note_on_c, 1, 57, 64
1, 19583, Note_on_c, 1, 57, 0
1, 19584, Note_on_c, 0, 71, 64
1, 19584, Note_on_c, 1, 55, 64
1, 19629, Note_on_c, 0, 71, 0
1, 19632, Note_on_c, 0, 73, 68
1, 19655, Note_on_c, 0, 73, 0
1, 19656, Note_on_c, 0, 74, 70
1, 19673, Note_on_c, 1, 55, 0
1, 19679, Note_on_c, 0, 74, 0
1, 19680, Note_on_c, 0, 76, 72
1, 19703, Note_on_c, 0, 76, 0
1, 19704, Note_on_c, 0, 78, 74
1, 19727, Note_on_c, 0, 78, 0
1, 19728, Note_on_c, 0, 79, 76
1, 19751, Note_on_c, 0, 79, 0
1, 19752, Note_on_c, 0, 81, 78
1, 19775, Note_on_c, 0, 81, 0
1, 19776, Note_on_c, 0, 83, 80
1, 19821, Note_on_c, 0, 83, 0
1, 19824, Note_on_c, 0, 85, 80
1, 19836, Note_on_c, 0, 85, 0
1, 19836, Note_on_c, 0, 83, 80
1, 19848, Note_on_c, 0, 83, 0
1, 19848, Note_on_c, 0, 82, 80
1, 19860, Note_on_c, 0, 82, 0
1, 19860, Note_on_c, 0, 83, 80
1, 19872, Note_on_c, 0, 83, 0
1, 19872, Note_on_c, 0, 85, 80
1, 19872, Note_on_c, 1, 65, 80
1, 19872, Note_on_c, 1, 62, 80
1, 19872, Note_on_c, 1, 59, 80
1, 19872, Note_on_c, 1, 56, 80
1, 19917, Note_on_c, 0, 85, 0
1, 19920, Note_on_c, 0, 86, 80
1, 19961, Note_on_c, 1, 65, 0
1, 19961, Note_on_c, 1, 62, 0
1, 19961, Note_on_c, 1, 59, 0
1, 19961, Note_on_c, 1, 56, 0
1, 19965, Note_on_c, 0, 86, 0
1, 19968, Note_on_c, 0, 86, 80
1, 19968, Note_on_c, 1, 57, 70
1, 19986, Note_on_c, 0, 86, 0
1, 19986, Note_on_c, 0, 74, 96
1, 19998, Note_on_c, 1, 57, 0
1, 20000, Note_on_c, 1, 62, 70
1, 20030, Note_on_c, 1, 62, 0
1, 20032, Note_on_c, 1, 66, 70
1, 20062, Note_on_c, 1, 66, 0
1, 20064, Note_on_c, 1, 57, 70
1, 20094, Note_on_c, 1, 57, 0
1, 20096, Note_on_c, 1, 62, 70
1, 20126, Note_on_c, 1, 62, 0
1, 20128, Note_on_c, 1, 66, 70
1, 20158, Note_on_c, 1, 66, 0
1, 20160, Note_on_c, 0, 74, 0
1, 20160, Note_on_c, 0, 76, 80
1, 20160, Note_on_c, 1, 57, 70
1, 20172, Note_on_c, 0, 76, 0
1, 20172, Note_on_c, 0, 78, 80
1, 20184, Note_on_c, 0, 78, 0
1, 20184, Note_on_c, 0, 76, 80
1, 20190, Note_on_c, 1, 57, 0
1, 20192, Note_on_c, 1, 61, 69
1, 20222, Note_on_c, 1, 61, 0
1, 20224, Note_on_c, 1, 67, 68
1, 20227, Note_on_c, 0, 76, 0
1, 20232, Note_on_c, 0, 74, 76
1, 20254, Note_on_c, 1, 67, 0
1, 20255, Note_on_c, 0, 74, 0
1, 20256, Note_on_c, 0, 76, 74
1, 20256, Note_on_c, 1, 57, 67
1, 20286, Note_on_c, 1, 57, 0
1, 20288, Note_on_c, 1, 61, 66
1, 20318, Note_on_c, 1, 61, 0
1, 20320, Note_on_c, 1, 67, 65
1, 20323, Note_on_c, 0, 76, 0
1, 20328, Note_on_c, 0, 78, 70
1, 20350, Note_on_c, 1, 67, 0
1, 20351, Note_on_c, 0, 78, 0
1, 20352, Note_on_c, 0, 74, 69
1, 20352, Note_on_c, 1, 62, 65
1, 20382, Note_on_c, 1, 62, 0
1, 20384, Note_on_c, 1, 65, 64
1, 20414, Note_on_c, 1, 65, 0
1, 20416, Note_on_c, 1, 69, 64
1, 20441, Note_on_c, 0, 74, 0
1, 20446, Note_on_c, 1, 69, 0
1, 20448, Note_on_c, 1, 62, 64
1, 20478, Note_on_c, 1, 62, 0
1, 20480, Note_on_c, 1, 65, 64
1, 20510, Note_on_c, 1, 65, 0
1, 20512, Note_on_c, 1, 69, 64
1, 20542, Note_on_c, 1, 69, 0
1, 20544, Note_on_c, 0, 76, 64
1, 20544, Note_on_c, 1, 61, 64
1, 20574, Note_on_c, 1, 61, 0
1, 20576, Note_on_c, 1, 64, 64
1, 20583, Note_on_c, 0, 76, 0
1, 20606, Note_on_c, 1, 64, 0
1, 20608, Note_on_c, 1, 69, 64
1, 20638, Note_on_c, 1, 69, 0
1, 20640, Note_on_c, 0, 76, 64
1, 20640, Note_on_c, 1, 61, 64
1, 20670, Note_on_c, 1, 61, 0
1, 20672, Note_on_c, 1, 64, 64
1, 20679, Note_on_c, 0, 76, 0
1, 20702, Note_on_c, 1, 64, 0
1, 20704, Note_on_c, 1, 69, 64
1, 20734, Note_on_c, 1, 69, 0
1, 20736, Note_on_c, 0, 77, 64
1, 20736, Note_on_c, 1, 62, 64
1, 20766, Note_on_c, 1, 62, 0
1, 20768, Note_on_c, 1, 65, 64
1, 20798, Note_on_c, 1, 65, 0
1, 20800, Note_on_c, 1, 69, 64
1, 20825, Note_on_c, 0, 77, 0
1, 20830, Note_on_c, 1, 69, 0
1, 20832, Note_on_c, 1, 62, 64
1, 20862, Note_on_c, 1, 62, 0
1, 20864, Note_on_c, 1, 65, 64
1, 20894, Note_on_c, 1, 65, 0
1, 20896, Note_on_c, 1, 69, 64
1, 20926, Note_on_c, 1, 69, 0
1, 20928, Note_on_c, 0, 73, 64
1, 20928, Note_on_c, 1, 64, 64
1, 20958, Note_on_c, 1, 64, 0
1, 20960, Note_on_c, 1, 67, 64
1, 20967, Note_on_c, 0, 73, 0
1, 20990, Note_on_c, 1, 67, 0
1, 20992, Note_on_c, 1, 69, 64
1, 21022, Note_on_c, 1, 69, 0
1, 21024, Note_on_c, 0, 73, 64
1, 21024, Note_on_c, 1, 64, 64
1, 21054, Note_on_c, 1, 64, 0
1, 21056, Note_on_c, 1, 67, 64
1, 21063, Note_on_c, 0, 73, 0
1, 21086, Note_on_c, 1, 67, 0
1, 21088, Note_on_c, 1, 69, 64
1, 21118, Note_on_c, 1, 69, 0
1, 21120, Note_on_c, 0, 74, 64
1, 21120, Note_on_c, 1, 65, 64
1, 21150, Note_on_c, 1, 65, 0
1, 21152, Note_on_c, 1, 69, 64
1, 21159, Note_on_c, 0, 74, 0
1, 21182, Note_on_c, 1, 69, 0
1, 21184, Note_on_c, 1, 67, 64
1, 21214, Note_on_c, 1, 67, 0
1, 21216, Note_on_c, 0, 74, 64
1, 21216, Note_on_c, 1, 65, 64
1, 21246, Note_on_c, 1, 65, 0
1, 21248, Note_on_c, 1, 64, 64
1, 21255, Note_on_c, 0, 74, 0
1, 21278, Note_on_c, 1, 64, 0
1, 21280, Note_on_c, 1, 62, 64
1, 21310, Note_on_c, 1, 62, 0
1, 21312, Note_on_c, 0, 76, 64
1, 21312, Note_on_c, 1, 61, 64
1, 21342, Note_on_c, 1, 61, 0
1, 21344, Note_on_c, 1, 64, 64
1, 21351, Note_on_c, 0, 76, 0
1, 21374, Note_on_c, 1, 64, 0
1, 21376, Note_on_c, 1, 62, 64
1, 21406, Note_on_c, 1, 62, 0
1, 21408, Note_on_c, 0, 76, 64
1, 21408, Note_on_c, 1, 61, 64
1, 21438, Note_on_c, 1, 61, 0
1, 21440, Note_on_c, 1, 59, 64
1, 21447, Note_on_c, 0, 76, 0
1, 21470, Note_on_c, 1, 59, 0
1, 21472, Note_on_c, 1, 57, 64
1, 21502, Note_on_c, 1, 57, 0
1, 21504, Note_on_c, 0, 77, 64
1, 21504, Note_on_c, 1, 62, 64
1, 21534, Note_on_c, 1, 62, 0
1, 21536, Note_on_c, 1, 65, 64
1, 21543, Note_on_c, 0, 77, 0
1, 21566, Note_on_c, 1, 65, 0
1, 21568, Note_on_c, 1, 64, 64
1, 21598, Note_on_c, 1, 64, 0
1, 21600, Note_on_c, 0, 77, 64
1, 21600, Note_on_c, 1, 62, 64
1, 21630, Note_on_c, 1, 62, 0
1, 21632, Note_on_c, 1, 60, 64
1, 21639, Note_on_c, 0, 77, 0
1, 21662, Note_on_c, 1, 60, 0
1, 21664, Note_on_c, 1, 58, 64
1, 21694, Note_on_c, 1, 58, 0
1, 21696, Note_on_c, 0, 82, 65
1, 21696, Note_on_c, 0, 70, 65
1, 21696, Note_on_c, 1, 57, 65
1, 21726, Note_on_c, 1, 57, 0
1, 21728, Note_on_c, 1, 55, 65
1, 21735, Note_on_c, 0, 82, 0
1, 21735, Note_on_c, 0, 70, 0
1, 21758, Note_on_c, 1, 55, 0
1, 21760, Note_on_c, 1, 54, 66
1, 21790, Note_on_c, 1, 54, 0
1, 21792, Note_on_c, 0, 82, 66
1, 21792, Note_on_c, 0, 70, 66
1, 21792, Note_on_c, 1, 55, 66
1, 21822, Note_on_c, 1, 55, 0
1, 21824, Note_on_c, 1, 57, 67
1, 21831, Note_on_c, 0, 82, 0
1, 21831, Note_on_c, 0, 70, 0
1, 21854, Note_on_c, 1, 57, 0
1, 21856, Note_on_c, 1, 58, 67
1, 21886, Note_on_c, 1, 58, 0
1, 21888, Note_on_c, 0, 76, 68
1, 21888, Note_on_c, 0, 64, 68
1, 21888, Note_on_c, 1, 60, 67
1, 21918, Note_on_c, 1, 60, 0
1, 21920, Note_on_c, 1, 62, 68
1, 21927, Note_on_c, 0, 76, 0
1, 21927, Note_on_c, 0, 64, 0
1, 21950, Note_on_c, 1, 62, 0
1, 21952, Note_on_c, 1, 60, 68
1, 21982, Note_on_c, 1, 60, 0
1, 21984, Note_on_c, 0, 76, 69
1, 21984, Note_on_c, 0, 64, 69
1, 21984, Note_on_c, 1, 58, 69
1, 22014, Note_on_c, 1, 58, 0
1, 22016, Note_on_c, 1, 57, 69
1, 22023, Note_on_c, 0, 76, 0
1, 22023, Note_on_c, 0, 64, 0
1, 22046, Note_on_c, 1, 57, 0
1, 22048, Note_on_c, 1, 55, 70
1, 22078, Note_on_c, 1, 55, 0
1, 22080, Note_on_c, 0, 81, 71
1, 22080, Note_on_c, 0, 69, 71
1, 22080, Note_on_c, 1, 53, 70
1, 22110, Note_on_c, 1, 53, 0
1, 22112, Note_on_c, 1, 55, 71
1, 22119, Note_on_c, 0, 81, 0
1, 22119, Note_on_c, 0, 69, 0
1, 22142, Note_on_c, 1, 55, 0
1, 22144, Note_on_c, 1, 57, 71
1, 22174, Note_on_c, 1, 57, 0
1, 22176, Note_on_c, 0, 81, 72
1, 22176, Note_on_c, 0, 69, 72
1, 22176, Note_on_c, 1, 55, 71
1, 22206, Note_on_c, 1, 55, 0
1, 22208, Note_on_c, 1, 53, 72
1, 22215, Note_on_c, 0, 81, 0
1, 22215, Note_on_c, 0, 69, 0
1, 22238, Note_on_c, 1, 53, 0
1, 22240, Note_on_c, 1, 52, 72
1, 22270, Note_on_c, 1, 52, 0
1, 22272, Note_on_c, 0, 86, 73
1, 22272, Note_on_c, 0, 77, 73
1, 22272, Note_on_c, 1, 50, 73
1, 22302, Note_on_c, 1, 50, 0
1, 22304, Note_on_c, 1, 52, 73
1, 22311, Note_on_c, 0, 86, 0
1, 22311, Note_on_c, 0, 77, 0
1, 22334, Note_on_c, 1, 52, 0
1, 22336, Note_on_c, 1, 53, 74
1, 22366, Note_on_c, 1, 53, 0
1, 22368, Note_on_c, 0, 86, 75
1, 22368, Note_on_c, 0, 77, 75
1, 22368, Note_on_c, 1, 52, 74
1, 22398, Note_on_c, 1, 52, 0
1, 22400, Note_on_c, 1, 50, 75
1, 22407, Note_on_c, 0, 86, 0
1, 22407, Note_on_c, 0, 77, 0
1, 22430, Note_on_c, 1, 50, 0
1, 22432, Note_on_c, 1, 48, 75
1, 22462, Note_on_c, 1, 48, 0
1, 22464, Note_on_c, 0, 86, 76
1, 22464, Note_on_c, 0, 74, 76
1, 22464, Note_on_c, 1, 46, 75
1, 22494, Note_on_c, 1, 46, 0
1, 22496, Note_on_c, 1, 50, 76
1, 22503, Note_on_c, 0, 86, 0
1, 22503, Note_on_c, 0, 74, 0
1, 22526, Note_on_c, 1, 50, 0
1, 22528, Note_on_c, 1, 54, 76
1, 22558, Note_on_c, 1, 54, 0
1, 22560, Note_on_c, 0, 86, 78
1, 22560, Note_on_c, 0, 74, 78
1, 22560, Note_on_c, 1, 55, 77
1, 22590, Note_on_c, 1, 55, 0
1, 22592, Note_on_c, 1, 57, 77
1, 22599, Note_on_c, 0, 86, 0
1, 22599, Note_on_c, 0, 74, 0
1, 22622, Note_on_c, 1, 57, 0
1, 22624, Note_on_c, 1, 58, 78
1, 22654, Note_on_c, 1, 58, 0
1, 22656, Note_on_c, 0, 76, 79
1, 22656, Note_on_c, 1, 60, 78
1, 22686, Note_on_c, 0, 76, 0
1, 22686, Note_on_c, 1, 60, 0
1, 22688, Note_on_c, 0, 79, 80
1, 22688, Note_on_c, 1, 64, 80
1, 22718, Note_on_c, 0, 79, 0
1, 22718, Note_on_c, 1, 64, 0
1, 22720, Note_on_c, 0, 77, 80
1, 22720, Note_on_c, 1, 62, 80
1, 22750, Note_on_c, 0, 77, 0
1, 22750, Note_on_c, 1, 62, 0
1, 22752, Note_on_c, 0, 76, 80
1, 22752, Note_on_c, 1, 60, 80
1, 22782, Note_on_c, 0, 76, 0
1, 22782, Note_on_c, 1, 60, 0
1, 22784, Note_on_c, 0, 82, 80
1, 22784, Note_on_c, 1, 67, 80
1, 22814, Note_on_c, 0, 82, 0
1, 22814, Note_on_c, 1, 67, 0
1, 22816, Note_on_c, 0, 81, 80
1, 22816, Note_on_c, 1, 65, 80
1, 22846, Note_on_c, 0, 81, 0
1, 22846, Note_on_c, 1, 65, 0
1, 22848, Note_on_c, 0, 79, 80
1, 22848, Note_on_c, 1, 64, 80
1, 22878, Note_on_c, 0, 79, 0
1, 22878, Note_on_c, 1, 64, 0
1, 22880, Note_on_c, 0, 86, 80
1, 22880, Note_on_c, 1, 70, 80
1, 22910, Note_on_c, 0, 86, 0
1, 22910, Note_on_c, 1, 70, 0
1, 22912, Note_on_c, 0, 84, 80
1, 22912, Note_on_c, 1, 69, 80
1, 22942, Note_on_c, 0, 84, 0
1, 22942, Note_on_c, 1, 69, 0
1, 22944, Note_on_c, 0, 82, 80
1, 22944, Note_on_c, 1, 67, 80
1, 22974, Note_on_c, 0, 82, 0
1, 22974, Note_on_c, 1, 67, 0
1, 22976, Note_on_c, 0, 81, 80
1, 22976, Note_on_c, 1, 72, 80
1, 23006, Note_on_c, 0, 81, 0
1, 23006, Note_on_c, 1, 72, 0
1, 23008, Note_on_c, 0, 79, 80
1, 23008, Note_on_c, 1, 70, 80
1, 23038, Note_on_c, 0, 79, 0
1, 23038, Note_on_c, 1, 70, 0
1, 23040, Note_on_c, 0, 77, 80
1, 23040, Note_on_c, 1, 69, 80
1, 23070, Note_on_c, 0, 77, 0
1, 23070, Note_on_c, 1, 69, 0
1, 23072, Note_on_c, 0, 81, 80
1, 23072, Note_on_c, 1, 72, 80
1, 23102, Note_on_c, 0, 81, 0
1, 23102, Note_on_c, 1, 72, 0
1, 23104, Note_on_c, 0, 79, 80
1, 23104, Note_on_c, 1, 70, 80
1, 23134, Note_on_c, 0, 79, 0
1, 23134, Note_on_c, 1, 70, 0
1, 23136, Note_on_c, 0, 77, 80
1, 23136, Note_on_c, 1, 69, 80
1, 23166, Note_on_c, 0, 77, 0
1, 23166, Note_on_c, 1, 69, 0
1, 23168, Note_on_c, 0, 76, 80
1, 23168, Note_on_c, 1, 67, 80
1, 23198, Note_on_c, 0, 76, 0
1, 23198, Note_on_c, 1, 67, 0
1, 23200, Note_on_c, 0, 74, 80
1, 23200, Note_on_c, 1, 65, 80
1, 23230, Note_on_c, 0, 74, 0
1, 23230, Note_on_c, 1, 65, 0
1, 23232, Note_on_c, 0, 72, 80
1, 23232, Note_on_c, 1, 64, 80
1, 23262, Note_on_c, 0, 72, 0
1, 23262, Note_on_c, 1, 64, 0
1, 23264, Note_on_c, 0, 74, 80
1, 23264, Note_on_c, 1, 65, 80
1, 23294, Note_on_c, 0, 74, 0
1, 23294, Note_on_c, 1, 65, 0
1, 23296, Note_on_c, 0, 72, 80
1, 23296, Note_on_c, 1, 64, 80
1, 23326, Note_on_c, 0, 72, 0
1, 23326, Note_on_c, 1, 64, 0
1, 23328, Note_on_c, 0, 70, 80
1, 23328, Note_on_c, 1, 62, 80
1, 23358, Note_on_c, 0, 70, 0
1, 23358, Note_on_c, 1, 62, 0
1, 23360, Note_on_c, 0, 69, 80
1, 23360, Note_on_c, 1, 60, 80
1, 23390, Note_on_c, 0, 69, 0
1, 23390, Note_on_c, 1, 60, 0
1, 23392, Note_on_c, 0, 67, 80
1, 23392, Note_on_c, 1, 58, 80
1, 23422, Note_on_c, 0, 67, 0
1, 23422, Note_on_c, 1, 58, 0
1, 23424, Note_on_c, 0, 65, 80
1, 23424, Note_on_c, 1, 57, 80
1, 23454, Note_on_c, 0, 65, 0
1, 23456, Note_on_c, 0, 81, 75
1, 23486, Note_on_c, 0, 81, 0
1, 23488, Note_on_c, 0, 79, 75
1, 23513, Note_on_c, 1, 57, 0
1, 23518, Note_on_c, 0, 79, 0
1, 23520, Note_on_c, 0, 77, 75
1, 23550, Note_on_c, 0, 77, 0
1, 23552, Note_on_c, 0, 76, 75
1, 23582, Note_on_c, 0, 76, 0
1, 23584, Note_on_c, 0, 74, 75
1, 23614, Note_on_c, 0, 74, 0
1, 23616, Note_on_c, 0, 72, 75
1, 23646, Note_on_c, 0, 72, 0
1, 23648, Note_on_c, 0, 74, 75
1, 23678, Note_on_c, 0, 74, 0
1, 23680, Note_on_c, 0, 72, 75
1, 23710, Note_on_c, 0, 72, 0
1, 23712, Note_on_c, 0, 70, 75
1, 23712, Note_on_c, 1, 60, 75
1, 23712, Note_on_c, 1, 55, 75
1, 23712, Note_on_c, 1, 52, 75
1, 23742, Note_on_c, 0, 70, 0
1, 23744, Note_on_c, 0, 69, 75
1, 23774, Note_on_c, 0, 69, 0
1, 23776, Note_on_c, 0, 67, 75
1, 23801, Note_on_c, 1, 60, 0
1, 23801, Note_on_c, 1, 55, 0
1, 23801, Note_on_c, 1, 52, 0
1, 23806, Note_on_c, 0, 67, 0
1, 23808, Note_on_c, 0, 65, 75
1, 23808, Note_on_c, 1, 60, 75
1, 23808, Note_on_c, 1, 57, 75
1, 23808, Note_on_c, 1, 53, 75
1, 23838, Note_on_c, 0, 65, 0
1, 23840, Note_on_c, 0, 81, 70
1, 23870, Note_on_c, 0, 81, 0
1, 23872, Note_on_c, 0, 79, 70
1, 23897, Note_on_c, 1, 60, 0
1, 23897, Note_on_c, 1, 57, 0
1, 23897, Note_on_c, 1, 53, 0
1, 23902, Note_on_c, 0, 79, 0
1, 23904, Note_on_c, 0, 77, 70
1, 23934, Note_on_c, 0, 77, 0
1, 23936, Note_on_c, 0, 76, 70
1, 23966, Note_on_c, 0, 76, 0
1, 23968, Note_on_c, 0, 74, 70
1, 23998, Note_on_c, 0, 74, 0
1, 24000, Note_on_c, 0, 72, 70
1, 24030, Note_on_c, 0, 72, 0
1, 24032, Note_on_c, 0, 74, 70
1, 24062, Note_on_c, 0, 74, 0
1, 24064, Note_on_c, 0, 72, 70
1, 24094, Note_on_c, 0, 72, 0
1, 24096, Note_on_c, 0, 70, 70
1, 24096, Note_on_c, 1, 60, 75
1, 24096, Note_on_c, 1, 55, 75
1, 24096, Note_on_c, 1, 52, 75
1, 24126, Note_on_c, 0, 70, 0
1, 24128, Note_on_c, 0, 69, 70
1, 24158, Note_on_c, 0, 69, 0
1, 24160, Note_on_c, 0, 67, 70
1, 24185, Note_on_c, 1, 60, 0
1, 24185, Note_on_c, 1, 55, 0
1, 24185, Note_on_c, 1, 52, 0
1, 24190, Note_on_c, 0, 67, 0
1, 24192, Note_on_c, 0, 65, 70
1, 24192, Note_on_c, 1, 60, 75
1, 24192, Note_on_c, 1, 57, 75
1, 24192, Note_on_c, 1, 53, 75
1, 24222, Note_on_c, 0, 65, 0
1, 24224, Note_on_c, 0, 69, 70
1, 24254, Note_on_c, 0, 69, 0
1, 24256, Note_on_c, 0, 77, 70
1, 24281, Note_on_c, 1, 60, 0
1, 24281, Note_on_c, 1, 57, 0
1, 24281, Note_on_c, 1, 53, 0
1, 24286, Note_on_c, 0, 77, 0
1, 24288, Note_on_c, 0, 65, 70
1, 24318, Note_on_c, 0, 65, 0
1, 24320, Note_on_c, 0, 69, 70
1, 24350, Note_on_c, 0, 69, 0
1, 24352, Note_on_c, 0, 76, 70
1, 24382, Note_on_c, 0, 76, 0
1, 24384, Note_on_c, 0, 65, 71
1, 24414, Note_on_c, 0, 65, 0
1, 24416, Note_on_c, 0, 69, 71
1, 24446, Note_on_c, 0, 69, 0
1, 24448, Note_on_c, 0, 74, 72
1, 24478, Note_on_c, 0, 74, 0
1, 24480, Note_on_c, 0, 65, 72
1, 24510, Note_on_c, 0, 65, 0
1, 24512, Note_on_c, 0, 69, 73
1, 24542, Note_on_c, 0, 69, 0
1, 24544, Note_on_c, 0, 73, 73
1, 24574, Note_on_c, 0, 73, 0
1, 24576, Note_on_c, 0, 65, 74
1, 24576, Note_on_c, 1, 46, 77
1, 24576, Note_on_c, 1, 34, 77
1, 24606, Note_on_c, 0, 65, 0
1, 24608, Note_on_c, 0, 70, 74
1, 24638, Note_on_c, 0, 70, 0
1, 24640, Note_on_c, 0, 74, 75
1, 24670, Note_on_c, 0, 74, 0
1, 24672, Note_on_c, 0, 65, 75
1, 24702, Note_on_c, 0, 65, 0
1, 24704, Note_on_c, 0, 69, 76
1, 24734, Note_on_c, 0, 69, 0
1, 24736, Note_on_c, 0, 74, 76
1, 24766, Note_on_c, 0, 74, 0
1, 24768, Note_on_c, 0, 65, 77
1, 24798, Note_on_c, 0, 65, 0
1, 24800, Note_on_c, 0, 68, 77
1, 24830, Note_on_c, 0, 68, 0
1, 24832, Note_on_c, 0, 74, 78
1, 24841, Note_on_c, 1, 46, 0
1, 24841, Note_on_c, 1, 34, 0
1, 24862, Note_on_c, 0, 74, 0
1, 24864, Note_on_c, 0, 65, 78
1, 24864, Note_on_c, 1, 47, 79
1, 24864, Note_on_c, 1, 35, 79
1, 24894, Note_on_c, 0, 65, 0
1, 24896, Note_on_c, 0, 67, 80
1, 24926, Note_on_c, 0, 67, 0
1, 24928, Note_on_c, 0, 74, 80
1, 24953, Note_on_c, 1, 47, 0
1, 24953, Note_on_c, 1, 35, 0
1, 24958, Note_on_c, 0, 74, 0
1, 24960, Note_on_c, 0, 65, 80
1, 24960, Note_on_c, 1, 48, 86
1, 24960, Note_on_c, 1, 36, 86
1, 24990, Note_on_c, 0, 65, 0
1, 24992, Note_on_c, 0, 69, 80
1, 25022, Note_on_c, 0, 69, 0
1, 25024, Note_on_c, 0, 72, 80
1, 25049, Note_on_c, 1, 48, 0
1, 25049, Note_on_c, 1, 36, 0
1, 25054, Note_on_c, 0, 72, 0
1, 25056, Note_on_c, 0, 65, 80
1, 25056, Note_on_c, 1, 49, 86
1, 25056, Note_on_c, 1, 37, 86
1, 25086, Note_on_c, 0, 65, 0
1, 25088, Note_on_c, 0, 68, 80
1, 25118, Note_on_c, 0, 68, 0
1, 25120, Note_on_c, 0, 71, 80
1, 25145, Note_on_c, 1, 49, 0
1, 25145, Note_on_c, 1, 37, 0
1, 25150, Note_on_c, 0, 71, 0
1, 25152, Note_on_c, 0, 65, 80
1, 25152, Note_on_c, 1, 48, 80
1, 25152, Note_on_c, 1, 36, 80
1, 25182, Note_on_c, 0, 65, 0
1, 25184, Note_on_c, 0, 69, 79
1, 25214, Note_on_c, 0, 69, 0
1, 25216, Note_on_c, 0, 72, 78
1, 25246, Note_on_c, 0, 72, 0
1, 25248, Note_on_c, 0, 70, 77
1, 25278, Note_on_c, 0, 70, 0
1, 25280, Note_on_c, 0, 67, 76
1, 25310, Note_on_c, 0, 67, 0
1, 25312, Note_on_c, 0, 64, 76
1, 25329, Note_on_c, 1, 48, 0
1, 25329, Note_on_c, 1, 36, 0
1, 25342, Note_on_c, 0, 64, 0
1, 25344, Note_on_c, 0, 77, 75
1, 25344, Note_on_c, 0, 65, 75
1, 25344, Note_on_c, 1, 53, 71
1, 25374, Note_on_c, 1, 53, 0
1, 25376, Note_on_c, 1, 57, 70
1, 25406, Note_on_c, 1, 57, 0
1, 25408, Note_on_c, 1, 60, 70
1, 25438, Note_on_c, 1, 60, 0
1, 25440, Note_on_c, 1, 53, 70
1, 25470, Note_on_c, 1, 53, 0
1, 25472, Note_on_c, 1, 57, 70
1, 25502, Note_on_c, 1, 57, 0
1, 25504, Note_on_c, 1, 60, 70
1, 25521, Note_on_c, 0, 77, 0
1, 25521, Note_on_c, 0, 65, 0
1, 25534, Note_on_c, 1, 60, 0
1, 25536, Note_on_c, 0, 81, 70
1, 25536, Note_on_c, 0, 69, 70
1, 25536, Note_on_c, 1, 53, 70
1, 25566, Note_on_c, 1, 53, 0
1, 25568, Note_on_c, 1, 57, 70
1, 25598, Note_on_c, 1, 57, 0
1, 25600, Note_on_c, 1, 60, 70
1, 25630, Note_on_c, 1, 60, 0
1, 25632, Note_on_c, 1, 53, 70
1, 25662, Note_on_c, 1, 53, 0
1, 25664, Note_on_c, 1, 57, 70
1, 25694, Note_on_c, 1, 57, 0
1, 25696, Note_on_c, 1, 60, 70
1, 25713, Note_on_c, 0, 81, 0
1, 25713, Note_on_c, 0, 69, 0
1, 25726, Note_on_c, 1, 60, 0
1, 25728, Note_on_c, 0, 84, 86
1, 25728, Note_on_c, 0, 72, 86
1, 25728, Note_on_c, 1, 52, 70
1, 25758, Note_on_c, 1, 52, 0
1, 25760, Note_on_c, 1, 58, 70
1, 25790, Note_on_c, 1, 58, 0
1, 25792, Note_on_c, 1, 60, 70
1, 25822, Note_on_c, 1, 60, 0
1, 25824, Note_on_c, 1, 52, 70
1, 25854, Note_on_c, 1, 52, 0
1, 25856, Note_on_c, 1, 58, 70
1, 25886, Note_on_c, 1, 58, 0
1, 25888, Note_on_c, 1, 60, 70
1, 25918, Note_on_c, 1, 60, 0
1, 25920, Note_on_c, 1, 52, 70
1, 25950, Note_on_c, 0, 84, 0
1, 25950, Note_on_c, 0, 72, 0
1, 25950, Note_on_c, 1, 52, 0
1, 25952, Note_on_c, 0, 86, 70
1, 25952, Note_on_c, 0, 74, 70
1, 25952, Note_on_c, 1, 58, 70
1, 25982, Note_on_c, 0, 86, 0
1, 25982, Note_on_c, 0, 74, 0
1, 25982, Note_on_c, 1, 58, 0
1, 25984, Note_on_c, 0, 84, 70
1, 25984, Note_on_c, 0, 72, 70
1, 25984, Note_on_c, 1, 60, 70
1, 26014, Note_on_c, 0, 84, 0
1, 26014, Note_on_c, 0, 72, 0
1, 26014, Note_on_c, 1, 60, 0
1, 26016, Note_on_c, 0, 82, 70
1, 26016, Note_on_c, 0, 70, 70
1, 26016, Note_on_c, 1, 52, 70
1, 26046, Note_on_c, 0, 82, 0
1, 26046, Note_on_c, 0, 70, 0
1, 26046, Note_on_c, 1, 52, 0
1, 26048, Note_on_c, 0, 81, 70
1, 26048, Note_on_c, 0, 69, 70
1, 26048, Note_on_c, 1, 58, 70
1, 26078, Note_on_c, 0, 81, 0
1, 26078, Note_on_c, 0, 69, 0
1, 26078, Note_on_c, 1, 58, 0
1, 26080, Note_on_c, 0, 79, 70
1, 26080, Note_on_c, 0, 67, 70
1, 26080, Note_on_c, 1, 60, 70
1, 26110, Note_on_c, 0, 79, 0
1, 26110, Note_on_c, 0, 67, 0
1, 26110, Note_on_c, 1, 60, 0
1, 26112, Note_on_c, 0, 77, 70
1, 26112, Note_on_c, 0, 65, 70
1, 26112, Note_on_c, 1, 53, 70
1, 26142, Note_on_c, 1, 53, 0
1, 26144, Note_on_c, 1, 57, 70
1, 26174, Note_on_c, 1, 57, 0
1, 26176, Note_on_c, 1, 60, 70
1, 26206, Note_on_c, 1, 60, 0
1, 26208, Note_on_c, 1, 53, 71
1, 26238, Note_on_c, 1, 53, 0
1, 26240, Note_on_c, 1, 57, 71
1, 26270, Note_on_c, 1, 57, 0
1, 26272, Note_on_c, 1, 60, 72
1, 26289, Note_on_c, 0, 77, 0
1, 26289, Note_on_c, 0, 65, 0
1, 26302, Note_on_c, 1, 60, 0
1, 26304, Note_on_c, 0, 81, 72
1, 26304, Note_on_c, 0, 69, 72
1, 26304, Note_on_c, 1, 53, 72
1, 26334, Note_on_c, 1, 53, 0
1, 26336, Note_on_c, 1, 57, 73
1, 26366, Note_on_c, 1, 57, 0
1, 26368, Note_on_c, 1, 60, 73
1, 26393, Note_on_c, 0, 81, 0
1, 26393, Note_on_c, 0, 69, 0
1, 26398, Note_on_c, 1, 60, 0
1, 26400, Note_on_c, 0, 84, 73
1, 26400, Note_on_c, 0, 72, 73
1, 26400, Note_on_c, 1, 53, 74
1, 26430, Note_on_c, 1, 53, 0
1, 26432, Note_on_c, 1, 57, 75
1, 26462, Note_on_c, 1, 57, 0
1, 26464, Note_on_c, 1, 60, 75
1, 26489, Note_on_c, 0, 84, 0
1, 26489, Note_on_c, 0, 72, 0
1, 26494, Note_on_c, 1, 60, 0
1, 26496, Note_on_c, 0, 87, 96
1, 26496, Note_on_c, 0, 75, 96
1, 26496, Note_on_c, 1, 54, 75
1, 26526, Note_on_c, 1, 54, 0
1, 26528, Note_on_c, 1, 57, 75
1, 26558, Note_on_c, 1, 57, 0
1, 26560, Note_on_c, 1, 60, 75
1, 26590, Note_on_c, 1, 60, 0
1, 26592, Note_on_c, 1, 54, 75
1, 26622, Note_on_c, 0, 87, 0
1, 26622, Note_on_c, 0, 75, 0
1, 26622, Note_on_c, 1, 54, 0
1, 26624, Note_on_c, 0, 84, 74
1, 26624, Note_on_c, 1, 57, 74
1, 26654, Note_on_c, 0, 84, 0
1, 26654, Note_on_c, 1, 57, 0
1, 26656, Note_on_c, 0, 82, 73
1, 26656, Note_on_c, 1, 60, 73
1, 26686, Note_on_c, 0, 82, 0
1, 26686, Note_on_c, 1, 60, 0
1, 26688, Note_on_c, 0, 81, 73
1, 26688, Note_on_c, 1, 54, 73
1, 26718, Note_on_c, 0, 81, 0
1, 26718, Note_on_c, 1, 54, 0
1, 26720, Note_on_c, 0, 79, 72
1, 26720, Note_on_c, 1, 57, 72
1, 26750, Note_on_c, 0, 79, 0
1, 26750, Note_on_c, 1, 57, 0
1, 26752, Note_on_c, 0, 78, 72
1, 26752, Note_on_c, 1, 62, 72
1, 26782, Note_on_c, 0, 78, 0
1, 26782, Note_on_c, 1, 62, 0
1, 26784, Note_on_c, 0, 75, 71
1, 26784, Note_on_c, 1, 54, 71
1, 26814, Note_on_c, 0, 75, 0
1, 26814, Note_on_c, 1, 54, 0
1, 26816, Note_on_c, 0, 74, 71
1, 26816, Note_on_c, 1, 57, 71
1, 26846, Note_on_c, 0, 74, 0
1, 26846, Note_on_c, 1, 57, 0
1, 26848, Note_on_c, 0, 72, 70
1, 26848, Note_on_c, 1, 62, 70
1, 26878, Note_on_c, 0, 72, 0
1, 26878, Note_on_c, 1, 62, 0
1, 26880, Note_on_c, 0, 70, 70
1, 26880, Note_on_c, 1, 55, 70
1, 26898, Note_on_c, 0, 70, 0
1, 26898, Note_on_c, 0, 79, 86
1, 26910, Note_on_c, 1, 55, 0
1, 26912, Note_on_c, 1, 58, 70
1, 26942, Note_on_c, 1, 58, 0
1, 26944, Note_on_c, 1, 62, 71
1, 26974, Note_on_c, 1, 62, 0
1, 26976, Note_on_c, 1, 55, 72
1, 27006, Note_on_c, 1, 55, 0
1, 27008, Note_on_c, 1, 58, 73
1, 27038, Note_on_c, 1, 58, 0
1, 27040, Note_on_c, 1, 62, 74
1, 27070, Note_on_c, 1, 62, 0
1, 27072, Note_on_c, 0, 79, 0
1, 27072, Note_on_c, 0, 82, 91
1, 27072, Note_on_c, 1, 55, 75
1, 27102, Note_on_c, 1, 55, 0
1, 27104, Note_on_c, 1, 58, 76
1, 27134, Note_on_c, 1, 58, 0
1, 27136, Note_on_c, 1, 62, 77
1, 27166, Note_on_c, 1, 62, 0
1, 27168, Note_on_c, 0, 82, 0
1, 27168, Note_on_c, 0, 86, 93
1, 27168, Note_on_c, 1, 55, 78
1, 27198, Note_on_c, 1, 55, 0
1, 27200, Note_on_c, 1, 58, 80
1, 27230, Note_on_c, 1, 58, 0
1, 27232, Note_on_c, 1, 62, 80
1, 27262, Note_on_c, 1, 62, 0
1, 27264, Note_on_c, 0, 86, 0
1, 27264, Note_on_c, 0, 89, 101
1, 27264, Note_on_c, 0, 77, 101
1, 27264, Note_on_c, 1, 56, 80
1, 27294, Note_on_c, 1, 56, 0
1, 27296, Note_on_c, 1, 59, 80
1, 27326, Note_on_c, 1, 59, 0
1, 27328, Note_on_c, 1, 62, 80
1, 27358, Note_on_c, 1, 62, 0
1, 27360, Note_on_c, 1, 56, 80
1, 27390, Note_on_c, 0, 89, 0
1, 27390, Note_on_c, 0, 77, 0
1, 27390, Note_on_c, 1, 56, 0
1, 27392, Note_on_c, 0, 85, 80
1, 27392, Note_on_c, 1, 59, 80
1, 27422, Note_on_c, 0, 85, 0
1, 27422, Note_on_c, 1, 59, 0
1, 27424, Note_on_c, 0, 86, 80
1, 27424, Note_on_c, 1, 62, 80
1, 27454, Note_on_c, 0, 86, 0
1, 27454, Note_on_c, 1, 62, 0
1, 27456, Note_on_c, 0, 89, 80
1, 27456, Note_on_c, 1, 56, 80
1, 27486, Note_on_c, 0, 89, 0
1, 27486, Note_on_c, 1, 56, 0
1, 27488, Note_on_c, 0, 85, 80
1, 27488, Note_on_c, 1, 59, 80
1, 27518, Note_on_c, 0, 85, 0
1, 27518, Note_on_c, 1, 59, 0
1, 27520, Note_on_c, 0, 86, 80
1, 27520, Note_on_c, 1, 62, 80
1, 27550, Note_on_c, 0, 86, 0
1, 27550, Note_on_c, 1, 62, 0
1, 27552, Note_on_c, 0, 89, 80
1, 27552, Note_on_c, 1, 56, 80
1, 27582, Note_on_c, 0, 89, 0
1, 27582, Note_on_c, 1, 56, 0
1, 27584, Note_on_c, 0, 88, 80
1, 27584, Note_on_c, 1, 62, 80
1, 27614, Note_on_c, 0, 88, 0
1, 27614, Note_on_c, 1, 62, 0
1, 27616, Note_on_c, 0, 86, 80
1, 27616, Note_on_c, 1, 65, 80
1, 27646, Note_on_c, 0, 86, 0
1, 27646, Note_on_c, 1, 65, 0
1, 27648, Note_on_c, 0, 85, 80
1, 27648, Note_on_c, 1, 57, 80
1, 27678, Note_on_c, 1, 57, 0
1, 27680, Note_on_c, 1, 61, 80
1, 27710, Note_on_c, 1, 61, 0
1, 27712, Note_on_c, 1, 64, 80
1, 27737, Note_on_c, 0, 85, 0
1, 27742, Note_on_c, 1, 64, 0
1, 27744, Note_on_c, 0, 81, 80
1, 27744, Note_on_c, 0, 69, 80
1, 27744, Note_on_c, 1, 57, 80
1, 27774, Note_on_c, 1, 57, 0
1, 27776, Note_on_c, 1, 61, 78
1, 27806, Note_on_c, 1, 61, 0
1, 27808, Note_on_c, 1, 64, 77
1, 27833, Note_on_c, 0, 81, 0
1, 27833, Note_on_c, 0, 69, 0
1, 27838, Note_on_c, 1, 64, 0
1, 27840, Note_on_c, 0, 82, 76
1, 27840, Note_on_c, 0, 70, 76
1, 27840, Note_on_c, 1, 57, 76
1, 27870, Note_on_c, 1, 57, 0
1, 27872, Note_on_c, 1, 62, 75
1, 27902, Note_on_c, 1, 62, 0
1, 27904, Note_on_c, 1, 65, 74
1, 27929, Note_on_c, 0, 82, 0
1, 27929, Note_on_c, 0, 70, 0
1, 27934, Note_on_c, 1, 65, 0
1, 27936, Note_on_c, 0, 80, 73
1, 27936, Note_on_c, 0, 68, 73
1, 27936, Note_on_c, 1, 57, 73
1, 27966, Note_on_c, 1, 57, 0
1, 27968, Note_on_c, 1, 62, 71
1, 27998, Note_on_c, 1, 62, 0
1, 28000, Note_on_c, 1, 65, 70
1, 28025, Note_on_c, 0, 80, 0
1, 28025, Note_on_c, 0, 68, 0
1, 28030, Note_on_c, 1, 65, 0
1, 28032, Note_on_c, 0, 81, 70
1, 28032, Note_on_c, 0, 69, 70
1, 28032, Note_on_c, 1, 57, 69
1, 28062, Note_on_c, 1, 57, 0
1, 28064, Note_on_c, 1, 61, 68
1, 28094, Note_on_c, 1, 61, 0
1, 28096, Note_on_c, 1, 64, 67
1, 28121, Note_on_c, 0, 81, 0
1, 28121, Note_on_c, 0, 69, 0
1, 28126, Note_on_c, 1, 64, 0
1, 28128, Note_on_c, 0, 76, 67
1, 28128, Note_on_c, 1, 57, 66
1, 28158, Note_on_c, 1, 57, 0
1, 28160, Note_on_c, 1, 61, 64
1, 28190, Note_on_c, 1, 61, 0
1, 28192, Note_on_c, 1, 64, 64
1, 28217, Note_on_c, 0, 76, 0
1, 28222, Note_on_c, 1, 64, 0
1, 28224, Note_on_c, 0, 77, 64
1, 28224, Note_on_c, 1, 57, 64
1, 28254, Note_on_c, 1, 57, 0
1, 28256, Note_on_c, 1, 62, 64
1, 28286, Note_on_c, 1, 62, 0
1, 28288, Note_on_c, 1, 65, 64
1, 28313, Note_on_c, 0, 77, 0
1, 28318, Note_on_c, 1, 65, 0
1, 28320, Note_on_c, 0, 68, 64
1, 28320, Note_on_c, 1, 57, 64
1, 28350, Note_on_c, 1, 57, 0
1, 28352, Note_on_c, 1, 62, 64
1, 28382, Note_on_c, 1, 62, 0
1, 28384, Note_on_c, 1, 65, 64
1, 28409, Note_on_c, 0, 68, 0
1, 28414, Note_on_c, 1, 65, 0
1, 28416, Note_on_c, 0, 69, 64
1, 28416, Note_on_c, 1, 57, 64
1, 28446, Note_on_c, 1, 57, 0
1, 28448, Note_on_c, 1, 61, 64
1, 28478, Note_on_c, 1, 61, 0
1, 28480, Note_on_c, 1, 64, 64
1, 28505, Note_on_c, 0, 69, 0
1, 28510, Note_on_c, 1, 64, 0
1, 28512, Note_on_c, 0, 73, 64
1, 28512, Note_on_c, 1, 57, 64
1, 28542, Note_on_c, 0, 73, 0
1, 28542, Note_on_c, 1, 57, 0
1, 28544, Note_on_c, 0, 76, 64
1, 28544, Note_on_c, 1, 61, 64
1, 28574, Note_on_c, 0, 76, 0
1, 28574, Note_on_c, 1, 61, 0
1, 28576, Note_on_c, 0, 81, 65
1, 28576, Note_on_c, 1, 64, 65
1, 28606, Note_on_c, 0, 81, 0
1, 28606, Note_on_c, 1, 64, 0
1, 28608, Note_on_c, 0, 74, 65
1, 28608, Note_on_c, 1, 57, 65
1, 28638, Note_on_c, 0, 74, 0
1, 28638, Note_on_c, 1, 57, 0
1, 28640, Note_on_c, 0, 77, 66
1, 28640, Note_on_c, 1, 62, 66
1, 28670, Note_on_c, 0, 77, 0
1, 28670, Note_on_c, 1, 62, 0
1, 28672, Note_on_c, 0, 83, 66
1, 28672, Note_on_c, 1, 65, 66
1, 28702, Note_on_c, 0, 83, 0
1, 28702, Note_on_c, 1, 65, 0
1, 28704, Note_on_c, 0, 71, 67
1, 28704, Note_on_c, 1, 57, 67
1, 28734, Note_on_c, 0, 71, 0
1, 28734, Note_on_c, 1, 57, 0
1, 28736, Note_on_c, 0, 74, 68
1, 28736, Note_on_c, 1, 59, 68
1, 28766, Note_on_c, 0, 74, 0
1, 28766, Note_on_c, 1, 59, 0
1, 28768, Note_on_c, 0, 80, 68
1, 28768, Note_on_c, 1, 62, 68
1, 28798, Note_on_c, 0, 80, 0
1, 28798, Note_on_c, 1, 62, 0
1, 28800, Note_on_c, 0, 69, 69
1, 28800, Note_on_c, 1, 57, 69
1, 28830, Note_on_c, 0, 69, 0
1, 28830, Note_on_c, 1, 57, 0
1, 28832, Note_on_c, 0, 76, 69
1, 28832, Note_on_c, 1, 61, 69
1, 28862, Note_on_c, 0, 76, 0
1, 28862, Note_on_c, 1, 61, 0
1, 28864, Note_on_c, 0, 81, 70
1, 28864, Note_on_c, 1, 64, 70
1, 28894, Note_on_c, 0, 81, 0
1, 28894, Note_on_c, 1, 64, 0
1, 28896, Note_on_c, 0, 69, 70
1, 28896, Note_on_c, 1, 57, 70
1, 28926, Note_on_c, 0, 69, 0
1, 28926, Note_on_c, 1, 57, 0
1, 28928, Note_on_c, 0, 75, 71
1, 28928, Note_on_c, 1, 63, 71
1, 28958, Note_on_c, 0, 75, 0
1, 28958, Note_on_c, 1, 63, 0
1, 28960, Note_on_c, 0, 78, 72
1, 28960, Note_on_c, 1, 66, 72
1, 28990, Note_on_c, 0, 78, 0
1, 28990, Note_on_c, 1, 66, 0
1, 28992, Note_on_c, 0, 69, 72
1, 28992, Note_on_c, 1, 57, 72
1, 29022, Note_on_c, 0, 69, 0
1, 29022, Note_on_c, 1, 57, 0
1, 29024, Note_on_c, 0, 76, 73
1, 29024, Note_on_c, 1, 64, 73
1, 29054, Note_on_c, 0, 76, 0
1, 29054, Note_on_c, 1, 64, 0
1, 29056, Note_on_c, 0, 79, 73
1, 29056, Note_on_c, 1, 67, 73
1, 29086, Note_on_c, 0, 79, 0
1, 29086, Note_on_c, 1, 67, 0
1, 29088, Note_on_c, 0, 69, 74
1, 29088, Note_on_c, 1, 57, 74
1, 29118, Note_on_c, 0, 69, 0
1, 29118, Note_on_c, 1, 57, 0
1, 29120, Note_on_c, 0, 78, 74
1, 29120, Note_on_c, 1, 63, 74
1, 29150, Note_on_c, 0, 78, 0
1, 29150, Note_on_c, 1, 63, 0
1, 29152, Note_on_c, 0, 81, 75
1, 29152, Note_on_c, 1, 66, 75
1, 29182, Note_on_c, 0, 81, 0
1, 29182, Note_on_c, 1, 66, 0
1, 29184, Note_on_c, 0, 69, 76
1, 29184, Note_on_c, 1, 57, 76
1, 29214, Note_on_c, 0, 69, 0
1, 29214, Note_on_c, 1, 57, 0
1, 29216, Note_on_c, 0, 76, 76
1, 29216, Note_on_c, 1, 64, 76
1, 29246, Note_on_c, 0, 76, 0
1, 29246, Note_on_c, 1, 64, 0
1, 29248, Note_on_c, 0, 79, 77
1, 29248, Note_on_c, 1, 67, 77
1, 29278, Note_on_c, 0, 79, 0
1, 29278, Note_on_c, 1, 67, 0
1, 29280, Note_on_c, 0, 69, 77
1, 29280, Note_on_c, 1, 57, 77
1, 29310, Note_on_c, 0, 69, 0
1, 29310, Note_on_c, 1, 57, 0
1, 29312, Note_on_c, 0, 78, 78
1, 29312, Note_on_c, 1, 63, 78
1, 29342, Note_on_c, 0, 78, 0
1, 29342, Note_on_c, 1, 63, 0
1, 29344, Note_on_c, 0, 81, 78
1, 29344, Note_on_c, 1, 66, 78
1, 29374, Note_on_c, 0, 81, 0
1, 29374, Note_on_c, 1, 66, 0
1, 29376, Note_on_c, 0, 69, 79
1, 29376, Note_on_c, 1, 57, 79
1, 29406, Note_on_c, 0, 69, 0
1, 29406, Note_on_c, 1, 57, 0
1, 29408, Note_on_c, 0, 76, 80
1, 29408, Note_on_c, 1, 64, 80
1, 29438, Note_on_c, 0, 76, 0
1, 29438, Note_on_c, 1, 64, 0
1, 29440, Note_on_c, 0, 79, 80
1, 29440, Note_on_c, 1, 67, 80
1, 29470, Note_on_c, 0, 79, 0
1, 29470, Note_on_c, 1, 67, 0
1, 29472, Note_on_c, 0, 69, 81
1, 29472, Note_on_c, 1, 57, 81
1, 29502, Note_on_c, 0, 69, 0
1, 29502, Note_on_c, 1, 57, 0
1, 29504, Note_on_c, 0, 78, 81
1, 29504, Note_on_c, 1, 63, 81
1, 29534, Note_on_c, 0, 78, 0
1, 29534, Note_on_c, 1, 63, 0
1, 29536, Note_on_c, 0, 81, 82
1, 29536, Note_on_c, 1, 66, 82
1, 29566, Note_on_c, 0, 81, 0
1, 29566, Note_on_c, 1, 66, 0
1, 29568, Note_on_c, 0, 69, 82
1, 29568, Note_on_c, 0, 73, 82
1, 29568, Note_on_c, 0, 76, 82
1, 29568, Note_on_c, 0, 79, 86
1, 29568, Note_on_c, 1, 57, 82
1, 29568, Note_on_c, 1, 61, 82
1, 29568, Note_on_c, 1, 64, 82
1, 29568, Note_on_c, 1, 67, 82
1, 29600, Note_on_c, 0, 79, 0
1, 29600, Note_on_c, 0, 76, 86
1, 29613, Note_on_c, 1, 67, 0
1, 29613, Note_on_c, 1, 64, 0
1, 29613, Note_on_c, 1, 61, 0
1, 29613, Note_on_c, 1, 57, 0
1, 29615, Note_on_c, 0, 76, 0
1, 29615, Note_on_c, 0, 73, 0
1, 29615, Note_on_c, 0, 69, 0
1, 29630, Note_on_c, 0, 76, 0
1, 29632, Note_on_c, 0, 73, 86
1, 29662, Note_on_c, 0, 73, 0
1, 29664, Note_on_c, 0, 69, 86
1, 29694, Note_on_c, 0, 69, 0
1, 29696, Note_on_c, 1, 67, 86
1, 29726, Note_on_c, 1, 67, 0
1, 29728, Note_on_c, 1, 64, 86
1, 29758, Note_on_c, 1, 64, 0
1, 29760, Note_on_c, 1, 61, 86
1, 29790, Note_on_c, 1, 61, 0
1, 29792, Note_on_c, 1, 57, 86
1, 29822, Note_on_c, 1, 57, 0
1, 29824, Note_on_c, 1, 55, 86
1, 29854, Note_on_c, 1, 55, 0
1, 29856, Note_on_c, 1, 52, 86
1, 29886, Note_on_c, 1, 52, 0
1, 29888, Note_on_c, 1, 49, 86
1, 29918, Note_on_c, 1, 49, 0
1, 29920, Note_on_c, 1, 45, 86
1, 29950, Note_on_c, 1, 45, 0
1, 29952, Note_on_c, 1, 33, 86
1, 29982, Note_on_c, 1, 33, 0
1, 29984, Note_on_c, 1, 37, 86
1, 30014, Note_on_c, 1, 37, 0
1, 30016, Note_on_c, 1, 40, 86
1, 30046, Note_on_c, 1, 40, 0
1, 30048, Note_on_c, 1, 45, 86
1, 30078, Note_on_c, 1, 45, 0
1, 30080, Note_on_c, 1, 49, 86
1, 30110, Note_on_c, 1, 49, 0
1, 30112, Note_on_c, 1, 52, 86
1, 30142, Note_on_c, 1, 52, 0
1, 30144, Note_on_c, 1, 55, 86
1, 30174, Note_on_c, 1, 55, 0
1, 30176, Note_on_c, 1, 59, 86
1, 30206, Note_on_c, 1, 59, 0
1, 30208, Note_on_c, 1, 57, 86
1, 30238, Note_on_c, 1, 57, 0
1, 30240, Note_on_c, 1, 55, 86
1, 30270, Note_on_c, 1, 55, 0
1, 30272, Note_on_c, 1, 54, 86
1, 30302, Note_on_c, 1, 54, 0
1, 30304, Note_on_c, 1, 52, 86
1, 30334, Note_on_c, 1, 52, 0
1, 30336, Note_on_c, 0, 54, 80
1, 30348, Note_on_c, 0, 54, 0
1, 30348, Note_on_c, 0, 57, 80
1, 30360, Note_on_c, 0, 57, 0
1, 30360, Note_on_c, 0, 62, 96
1, 30384, Note_on_c, 1, 49, 80
1, 30407, Note_on_c, 1, 49, 0
1, 30408, Note_on_c, 1, 50, 80
1, 30431, Note_on_c, 1, 50, 0
1, 30432, Note_on_c, 1, 38, 80
1, 30521, Note_on_c, 1, 38, 0
1, 30528, Note_on_c, 0, 62, 0
1, 30528, Note_on_c, 0, 57, 80
1, 30540, Note_on_c, 0, 57, 0
1, 30540, Note_on_c, 0, 61, 80
1, 30552, Note_on_c, 0, 61, 0
1, 30552, Note_on_c, 0, 64, 80
1, 30576, Note_on_c, 1, 44, 80
1, 30599, Note_on_c, 1, 44, 0
1, 30600, Note_on_c, 1, 45, 80
1, 30623, Note_on_c, 1, 45, 0
1, 30624, Note_on_c, 1, 33, 80
1, 30705, Note_on_c, 0, 64, 0
1, 30713, Note_on_c, 1, 33, 0
1, 30720, Note_on_c, 0, 57, 80
1, 30732, Note_on_c, 0, 57, 0
1, 30732, Note_on_c, 0, 62, 80
1, 30744, Note_on_c, 0, 62, 0
1, 30744, Note_on_c, 0, 66, 80
1, 30792, Note_on_c, 1, 49, 80
1, 30815, Note_on_c, 1, 49, 0
1, 30816, Note_on_c, 1, 50, 80
1, 30861, Note_on_c, 1, 50, 0
1, 30864, Note_on_c, 1, 45, 80
1, 30887, Note_on_c, 1, 45, 0
1, 30888, Note_on_c, 1, 42, 80
1, 30897, Note_on_c, 0, 66, 0
1, 30911, Note_on_c, 1, 42, 0
1, 30912, Note_on_c, 1, 38, 80
1, 31001, Note_on_c, 1, 38, 0
1, 31008, Note_on_c, 0, 74, 64
1, 31075, Note_on_c, 0, 74, 0
1, 31080, Note_on_c, 0, 69, 64
1, 31103, Note_on_c, 0, 69, 0
1, 31104, Note_on_c, 0, 66, 64
1, 31200, Note_on_c, 1, 62, 64
1, 31200, Note_on_c, 1, 62, 64
1, 31281, Note_on_c, 0, 66, 0
1, 31289, Note_on_c, 1, 62, 0
1, 31296, Note_on_c, 0, 69, 64
1, 31296, Note_on_c, 1, 59, 64
1, 31314, Note_on_c, 0, 69, 0
1, 31314, Note_on_c, 0, 67, 64
1, 31363, Note_on_c, 0, 67, 0
1, 31368, Note_on_c, 0, 66, 64
1, 31385, Note_on_c, 1, 59, 0
1, 31391, Note_on_c, 0, 66, 0
1, 31392, Note_on_c, 0, 67, 64
1, 31392, Note_on_c, 1, 55, 64
1, 31459, Note_on_c, 0, 67, 0
1, 31464, Note_on_c, 0, 71, 65
1, 31465, Note_on_c, 1, 62, 0
1, 31481, Note_on_c, 1, 55, 0
1, 31487, Note_on_c, 0, 71, 0
1, 31488, Note_on_c, 0, 64, 65
1, 31488, Note_on_c, 1, 61, 64
1, 31488, Note_on_c, 1, 57, 64
1, 31555, Note_on_c, 0, 64, 0
1, 31560, Note_on_c, 0, 67, 66
1, 31577, Note_on_c, 1, 61, 0
1, 31583, Note_on_c, 0, 67, 0
1, 31584, Note_on_c, 0, 66, 67
1, 31584, Note_on_c, 1, 62, 64
1, 31651, Note_on_c, 0, 66, 0
1, 31656, Note_on_c, 0, 69, 68
1, 31673, Note_on_c, 1, 62, 0
1, 31679, Note_on_c, 0, 69, 0
1, 31680, Note_on_c, 0, 67, 68
1, 31680, Note_on_c, 1, 64, 64
1, 31753, Note_on_c, 1, 57, 0
1, 31769, Note_on_c, 0, 67, 0
1, 31769, Note_on_c, 1, 64, 0
1, 31872, Note_on_c, 0, 54, 80
1, 31884, Note_on_c, 0, 54, 0
1, 31884, Note_on_c, 0, 57, 80
1, 31896, Note_on_c, 0, 57, 0
1, 31896, Note_on_c, 0, 62, 80
1, 31896, Note_on_c, 1, 50, 80
1, 31919, Note_on_c, 1, 50, 0
1, 31920, Note_on_c, 1, 45, 80
1, 31943, Note_on_c, 1, 45, 0
1, 31944, Note_on_c, 1, 42, 80
1, 31961, Note_on_c, 0, 62, 0
1, 31967, Note_on_c, 1, 42, 0
1, 31968, Note_on_c, 1, 38, 80
1, 32013, Note_on_c, 1, 38, 0
1, 32016, Note_on_c, 0, 54, 80
1, 32028, Note_on_c, 0, 54, 0
1, 32028, Note_on_c, 0, 57, 80
1, 32040, Note_on_c, 0, 57, 0
1, 32040, Note_on_c, 0, 62, 80
1, 32061, Note_on_c, 0, 62, 0
1, 32064, Note_on_c, 0, 57, 80
1, 32070, Note_on_c, 0, 57, 0
1, 32070, Note_on_c, 0, 61, 80
1, 32076, Note_on_c, 0, 61, 0
1, 32076, Note_on_c, 0, 64, 80
1, 32088, Note_on_c, 1, 45, 80
1, 32111, Note_on_c, 1, 45, 0
1, 32112, Note_on_c, 1, 40, 80
1, 32135, Note_on_c, 1, 40, 0
1, 32136, Note_on_c, 1, 37, 80
1, 32153, Note_on_c, 0, 64, 0
1, 32159, Note_on_c, 1, 37, 0
1, 32160, Note_on_c, 1, 33, 80
1, 32205, Note_on_c, 1, 33, 0
1, 32208, Note_on_c, 0, 57, 80
1, 32220, Note_on_c, 0, 57, 0
1, 32220, Note_on_c, 0, 61, 80
1, 32232, Note_on_c, 0, 61, 0
1, 32232, Note_on_c, 0, 64, 80
1, 32253, Note_on_c, 0, 64, 0
1, 32256, Note_on_c, 0, 57, 80
1, 32268, Note_on_c, 0, 57, 0
1, 32268, Note_on_c, 0, 62, 80
1, 32280, Note_on_c, 0, 62, 0
1, 32280, Note_on_c, 0, 66, 80
1, 32280, Note_on_c, 1, 50, 80
1, 32303, Note_on_c, 1, 50, 0
1, 32304, Note_on_c, 1, 49, 80
1, 32327, Note_on_c, 1, 49, 0
1, 32328, Note_on_c, 1, 47, 80
1, 32345, Note_on_c, 0, 66, 0
1, 32351, Note_on_c, 1, 47, 0
1, 32352, Note_on_c, 1, 45, 80
1, 32375, Note_on_c, 1, 45, 0
1, 32376, Note_on_c, 1, 43, 80
1, 32399, Note_on_c, 1, 43, 0
1, 32400, Note_on_c, 1, 42, 80
1, 32423, Note_on_c, 1, 42, 0
1, 32424, Note_on_c, 1, 40, 80
1, 32447, Note_on_c, 1, 40, 0
1, 32448, Note_on_c, 1, 38, 80
1, 32472, Note_on_c, 0, 81, 80
1, 32495, Note_on_c, 0, 81, 0
1, 32496, Note_on_c, 0, 79, 77
1, 32519, Note_on_c, 0, 79, 0
1, 32520, Note_on_c, 0, 78, 75
1, 32537, Note_on_c, 1, 38, 0
1, 32543, Note_on_c, 0, 78, 0
1, 32544, Note_on_c, 0, 76, 73
1, 32567, Note_on_c, 0, 76, 0
1, 32568, Note_on_c, 0, 74, 70
1, 32591, Note_on_c, 0, 74, 0
1, 32592, Note_on_c, 0, 73, 68
1, 32615, Note_on_c, 0, 73, 0
1, 32616, Note_on_c, 0, 71, 66
1, 32639, Note_on_c, 0, 71, 0
1, 32640, Note_on_c, 0, 69, 64
1, 32640, Note_on_c, 1, 50, 64
1, 32663, Note_on_c, 1, 50, 0
1, 32664, Note_on_c, 1, 54, 64
1, 32687, Note_on_c, 1, 54, 0
1, 32688, Note_on_c, 1, 57, 64
1, 32711, Note_on_c, 1, 57, 0
1, 32712, Note_on_c, 1, 62, 64
1, 32735, Note_on_c, 1, 62, 0
1, 32736, Note_on_c, 1, 66, 64
1, 32773, Note_on_c, 0, 69, 0
1, 32781, Note_on_c, 1, 66, 0
1, 32784, Note_on_c, 0, 70, 64
1, 32784, Note_on_c, 1, 62, 64
1, 32829, Note_on_c, 0, 70, 0
1, 32829, Note_on_c, 1, 62, 0
1, 32832, Note_on_c, 0, 71, 64
1, 32832, Note_on_c, 1, 67, 64
1, 32855, Note_on_c, 0, 71, 0
1, 32856, Note_on_c, 0, 73, 64
1, 32877, Note_on_c, 1, 67, 0
1, 32879, Note_on_c, 0, 73, 0
1, 32880, Note_on_c, 0, 74, 64
1, 32880, Note_on_c, 1, 62, 64
1, 32903, Note_on_c, 0, 74, 0
1, 32904, Note_on_c, 0, 73, 64
1, 32925, Note_on_c, 1, 62, 0
1, 32927, Note_on_c, 0, 73, 0
1, 32928, Note_on_c, 0, 76, 64
1, 32928, Note_on_c, 1, 67, 64
1, 32951, Note_on_c, 0, 76, 0
1, 32952, Note_on_c, 0, 74, 64
1, 32973, Note_on_c, 1, 67, 0
1, 32975, Note_on_c, 0, 74, 0
1, 32976, Note_on_c, 0, 73, 64
1, 32976, Note_on_c, 1, 62, 64
1, 32999, Note_on_c, 0, 73, 0
1, 33000, Note_on_c, 0, 71, 64
1, 33021, Note_on_c, 1, 62, 0
1, 33023, Note_on_c, 0, 71, 0
1, 33024, Note_on_c, 0, 69, 64
1, 33024, Note_on_c, 1, 66, 64
1, 33047, Note_on_c, 0, 69, 0
1, 33048, Note_on_c, 0, 71, 64
1, 33071, Note_on_c, 0, 71, 0
1, 33072, Note_on_c, 0, 73, 65
1, 33095, Note_on_c, 0, 73, 0
1, 33096, Note_on_c, 0, 74, 66
1, 33113, Note_on_c, 1, 66, 0
1, 33119, Note_on_c, 0, 74, 0
1, 33120, Note_on_c, 0, 76, 67
1, 33143, Note_on_c, 0, 76, 0
1, 33144, Note_on_c, 0, 78, 68
1, 33167, Note_on_c, 0, 78, 0
1, 33168, Note_on_c, 0, 79, 69
1, 33191, Note_on_c, 0, 79, 0
1, 33192, Note_on_c, 0, 80, 70
1, 33215, Note_on_c, 0, 80, 0
1, 33216, Note_on_c, 0, 81, 71
1, 33216, Note_on_c, 1, 54, 64
1, 33239, Note_on_c, 1, 54, 0
1, 33240, Note_on_c, 1, 55, 64
1, 33263, Note_on_c, 1, 55, 0
1, 33264, Note_on_c, 1, 57, 64
1, 33287, Note_on_c, 1, 57, 0
1, 33288, Note_on_c, 1, 59, 64
1, 33305, Note_on_c, 0, 81, 0
1, 33311, Note_on_c, 1, 59, 0
1, 33312, Note_on_c, 1, 61, 64
1, 33335, Note_on_c, 1, 61, 0
1, 33336, Note_on_c, 1, 62, 64
1, 33359, Note_on_c, 1, 62, 0
1, 33360, Note_on_c, 1, 64, 64
1, 33383, Note_on_c, 1, 64, 0
1, 33384, Note_on_c, 1, 66, 64
1, 33407, Note_on_c, 1, 66, 0
1, 33408, Note_on_c, 0, 71, 64
1, 33408, Note_on_c, 1, 67, 64
1, 33453, Note_on_c, 0, 71, 0
1, 33456, Note_on_c, 0, 73, 68
1, 33479, Note_on_c, 0, 73, 0
1, 33480, Note_on_c, 0, 74, 70
1, 33497, Note_on_c, 1, 67, 0
1, 33503, Note_on_c, 0, 74, 0
1, 33504, Note_on_c, 0, 76, 72
1, 33527, Note_on_c, 0, 76, 0
1, 33528, Note_on_c, 0, 78, 74
1, 33551, Note_on_c, 0, 78, 0
1, 33552, Note_on_c, 0, 79, 76
1, 33575, Note_on_c, 0, 79, 0
1, 33576, Note_on_c, 0, 81, 78
1, 33599, Note_on_c, 0, 81, 0
1, 33600, Note_on_c, 0, 83, 80
1, 33645, Note_on_c, 0, 83, 0
1, 33648, Note_on_c, 0, 85, 80
1, 33660, Note_on_c, 0, 85, 0
1, 33660, Note_on_c, 0, 83, 80
1, 33672, Note_on_c, 0, 83, 0
1, 33672, Note_on_c, 0, 82, 80
1, 33684, Note_on_c, 0, 82, 0
1, 33684, Note_on_c, 0, 83, 80
1, 33696, Note_on_c, 0, 83, 0
1, 33696, Note_on_c, 0, 85, 80
1, 33696, Note_on_c, 1, 65, 80
1, 33696, Note_on_c, 1, 62, 80
1, 33696, Note_on_c, 1, 59, 80
1, 33696, Note_on_c, 1, 56, 80
1, 33741, Note_on_c, 0, 85, 0
1, 33744, Note_on_c, 0, 86, 80
1, 33785, Note_on_c, 1, 65, 0
1, 33785, Note_on_c, 1, 62, 0
1, 33785, Note_on_c, 1, 59, 0
1, 33785, Note_on_c, 1, 56, 0
1, 33789, Note_on_c, 0, 86, 0
1, 33792, Note_on_c, 0, 86, 80
1, 33792, Note_on_c, 1, 57, 70
1, 33810, Note_on_c, 0, 86, 0
1, 33810, Note_on_c, 0, 74, 96
1, 33822, Note_on_c, 1, 57, 0
1, 33824, Note_on_c, 1, 62, 70
1, 33854, Note_on_c, 1, 62, 0
1, 33856, Note_on_c, 1, 66, 70
1, 33886, Note_on_c, 1, 66, 0
1, 33888, Note_on_c, 1, 57, 80
1, 33918, Note_on_c, 1, 57, 0
1, 33920, Note_on_c, 1, 62, 78
1, 33950, Note_on_c, 1, 62, 0
1, 33952, Note_on_c, 1, 66, 76
1, 33982, Note_on_c, 1, 66, 0
1, 33984, Note_on_c, 0, 74, 0
1, 33984, Note_on_c, 0, 76, 80
1, 33984, Note_on_c, 1, 57, 75
1, 33996, Note_on_c, 0, 76, 0
1, 33996, Note_on_c, 0, 78, 80
1, 34008, Note_on_c, 0, 78, 0
1, 34008, Note_on_c, 0, 76, 80
1, 34014, Note_on_c, 1, 57, 0
1, 34016, Note_on_c, 1, 61, 73
1, 34046, Note_on_c, 1, 61, 0
1, 34048, Note_on_c, 1, 67, 72
1, 34051, Note_on_c, 0, 76, 0
1, 34056, Note_on_c, 0, 74, 76
1, 34078, Note_on_c, 1, 67, 0
1, 34079, Note_on_c, 0, 74, 0
1, 34080, Note_on_c, 0, 76, 74
1, 34080, Note_on_c, 1, 57, 70
1, 34110, Note_on_c, 1, 57, 0
1, 34112, Note_on_c, 1, 61, 69
1, 34142, Note_on_c, 1, 61, 0
1, 34144, Note_on_c, 1, 67, 67
1, 34147, Note_on_c, 0, 76, 0
1, 34152, Note_on_c, 0, 78, 70
1, 34174, Note_on_c, 1, 67, 0
1, 34175, Note_on_c, 0, 78, 0
1, 34176, Note_on_c, 0, 74, 69
1, 34176, Note_on_c, 1, 62, 66
1, 34206, Note_on_c, 1, 62, 0
1, 34208, Note_on_c, 1, 66, 64
1, 34238, Note_on_c, 1, 66, 0
1, 34240, Note_on_c, 1, 69, 64
1, 34265, Note_on_c, 0, 74, 0
1, 34270, Note_on_c, 1, 69, 0
1, 34272, Note_on_c, 1, 62, 64
1, 34302, Note_on_c, 1, 62, 0
1, 34304, Note_on_c, 1, 66, 64
1, 34334, Note_on_c, 1, 66, 0
1, 34336, Note_on_c, 1, 69, 64
1, 34366, Note_on_c, 1, 69, 0
1, 34368, Note_on_c, 0, 81, 64
1, 34368, Note_on_c, 0, 76, 64
1, 34368, Note_on_c, 1, 61, 64
1, 34398, Note_on_c, 1, 61, 0
1, 34400, Note_on_c, 1, 67, 64
1, 34407, Note_on_c, 0, 81, 0
1, 34407, Note_on_c, 0, 76, 0
1, 34430, Note_on_c, 1, 67, 0
1, 34432, Note_on_c, 1, 69, 64
1, 34462, Note_on_c, 1, 69, 0
1, 34464, Note_on_c, 0, 81, 64
1, 34464, Note_on_c, 0, 76, 64
1, 34464, Note_on_c, 1, 61, 64
1, 34494, Note_on_c, 1, 61, 0
1, 34496, Note_on_c, 1, 67, 64
1, 34503, Note_on_c, 0, 81, 0
1, 34503, Note_on_c, 0, 76, 0
1, 34526, Note_on_c, 1, 67, 0
1, 34528, Note_on_c, 1, 69, 64
1, 34558, Note_on_c, 1, 69, 0
1, 34560, Note_on_c, 0, 81, 64
1, 34560, Note_on_c, 0, 78, 64
1, 34560, Note_on_c, 1, 62, 64
1, 34590, Note_on_c, 1, 62, 0
1, 34592, Note_on_c, 1, 66, 64
1, 34622, Note_on_c, 1, 66, 0
1, 34624, Note_on_c, 1, 69, 64
1, 34649, Note_on_c, 0, 81, 0
1, 34649, Note_on_c, 0, 78, 0
1, 34654, Note_on_c, 1, 69, 0
1, 34656, Note_on_c, 1, 62, 64
1, 34686, Note_on_c, 1, 62, 0
1, 34688, Note_on_c, 1, 66, 64
1, 34718, Note_on_c, 1, 66, 0
1, 34720, Note_on_c, 1, 69, 64
1, 34750, Note_on_c, 1, 69, 0
1, 34752, Note_on_c, 0, 57, 64
1, 34752, Note_on_c, 0, 52, 64
1, 34752, Note_on_c, 1, 61, 64
1, 34782, Note_on_c, 1, 61, 0
1, 34784, Note_on_c, 1, 67, 64
1, 34791, Note_on_c, 0, 57, 0
1, 34791, Note_on_c, 0, 52, 0
1, 34814, Note_on_c, 1, 67, 0
1, 34816, Note_on_c, 1, 69, 64
1, 34846, Note_on_c, 1, 69, 0
1, 34848, Note_on_c, 0, 57, 64
1, 34848, Note_on_c, 0, 52, 64
1, 34848, Note_on_c, 1, 61, 64
1, 34878, Note_on_c, 1, 61, 0
1, 34880, Note_on_c, 1, 67, 64
1, 34887, Note_on_c, 0, 57, 0
1, 34887, Note_on_c, 0, 52, 0
1, 34910, Note_on_c, 1, 67, 0
1, 34912, Note_on_c, 1, 69, 64
1, 34942, Note_on_c, 1, 69, 0
1, 34944, Note_on_c, 0, 57, 64
1, 34944, Note_on_c, 0, 54, 64
1, 34944, Note_on_c, 1, 62, 64
1, 34974, Note_on_c, 1, 62, 0
1, 34976, Note_on_c, 1, 66, 64
1, 35006, Note_on_c, 1, 66, 0
1, 35008, Note_on_c, 1, 69, 64
1, 35033, Note_on_c, 0, 57, 0
1, 35033, Note_on_c, 0, 54, 0
1, 35038, Note_on_c, 1, 69, 0
1, 35040, Note_on_c, 1, 62, 64
1, 35070, Note_on_c, 1, 62, 0
1, 35072, Note_on_c, 1, 66, 64
1, 35102, Note_on_c, 1, 66, 0
1, 35104, Note_on_c, 1, 69, 64
1, 35134, Note_on_c, 1, 69, 0
1, 35136, Note_on_c, 0, 81, 64
1, 35136, Note_on_c, 0, 76, 64
1, 35136, Note_on_c, 1, 61, 64
1, 35166, Note_on_c, 1, 61, 0
1, 35168, Note_on_c, 1, 67, 64
1, 35175, Note_on_c, 0, 81, 0
1, 35175, Note_on_c, 0, 76, 0
1, 35198, Note_on_c, 1, 67, 0
1, 35200, Note_on_c, 1, 69, 64
1, 35230, Note_on_c, 1, 69, 0
1, 35232, Note_on_c, 0, 81, 64
1, 35232, Note_on_c, 0, 76, 64
1, 35232, Note_on_c, 1, 61, 64
1, 35262, Note_on_c, 1, 61, 0
1, 35264, Note_on_c, 1, 67, 64
1, 35271, Note_on_c, 0, 81, 0
1, 35271, Note_on_c, 0, 76, 0
1, 35294, Note_on_c, 1, 67, 0
1, 35296, Note_on_c, 1, 69, 64
1, 35326, Note_on_c, 1, 69, 0
1, 35328, Note_on_c, 0, 78, 64
1, 35328, Note_on_c, 1, 62, 64
1, 35358, Note_on_c, 0, 78, 0
1, 35360, Note_on_c, 0, 81, 64
1, 35390, Note_on_c, 0, 81, 0
1, 35392, Note_on_c, 0, 79, 65
1, 35417, Note_on_c, 1, 62, 0
1, 35422, Note_on_c, 0, 79, 0
1, 35424, Note_on_c, 0, 78, 65
1, 35454, Note_on_c, 0, 78, 0
1, 35456, Note_on_c, 0, 76, 66
1, 35486, Note_on_c, 0, 76, 0
1, 35488, Note_on_c, 0, 74, 67
1, 35518, Note_on_c, 0, 74, 0
1, 35520, Note_on_c, 0, 73, 67
1, 35550, Note_on_c, 0, 73, 0
1, 35552, Note_on_c, 0, 71, 68
1, 35582, Note_on_c, 0, 71, 0
1, 35584, Note_on_c, 0, 69, 68
1, 35614, Note_on_c, 0, 69, 0
1, 35616, Note_on_c, 0, 67, 69
1, 35616, Note_on_c, 1, 57, 69
1, 35616, Note_on_c, 1, 55, 69
1, 35616, Note_on_c, 1, 52, 69
1, 35616, Note_on_c, 1, 49, 69
1, 35646, Note_on_c, 0, 67, 0
1, 35648, Note_on_c, 0, 66, 70
1, 35678, Note_on_c, 0, 66, 0
1, 35680, Note_on_c, 0, 64, 70
1, 35705, Note_on_c, 1, 57, 0
1, 35705, Note_on_c, 1, 55, 0
1, 35705, Note_on_c, 1, 52, 0
1, 35705, Note_on_c, 1, 49, 0
1, 35710, Note_on_c, 0, 64, 0
1, 35712, Note_on_c, 0, 62, 71
1, 35712, Note_on_c, 1, 57, 71
1, 35712, Note_on_c, 1, 54, 71
1, 35712, Note_on_c, 1, 50, 71
1, 35742, Note_on_c, 0, 62, 0
1, 35744, Note_on_c, 0, 78, 71
1, 35774, Note_on_c, 0, 78, 0
1, 35776, Note_on_c, 0, 76, 72
1, 35801, Note_on_c, 1, 57, 0
1, 35801, Note_on_c, 1, 54, 0
1, 35801, Note_on_c, 1, 50, 0
1, 35806, Note_on_c, 0, 76, 0
1, 35808, Note_on_c, 0, 74, 73
1, 35838, Note_on_c, 0, 74, 0
1, 35840, Note_on_c, 0, 73, 73
1, 35870, Note_on_c, 0, 73, 0
1, 35872, Note_on_c, 0, 71, 74
1, 35902, Note_on_c, 0, 71, 0
1, 35904, Note_on_c, 0, 69, 74
1, 35934, Note_on_c, 0, 69, 0
1, 35936, Note_on_c, 0, 67, 75
1, 35966, Note_on_c, 0, 67, 0
1, 35968, Note_on_c, 0, 66, 76
1, 35998, Note_on_c, 0, 66, 0
1, 36000, Note_on_c, 0, 64, 76
1, 36000, Note_on_c, 1, 57, 76
1, 36000, Note_on_c, 1, 55, 76
1, 36000, Note_on_c, 1, 52, 76
1, 36000, Note_on_c, 1, 49, 76
1, 36030, Note_on_c, 0, 64, 0
1, 36032, Note_on_c, 0, 62, 77
1, 36062, Note_on_c, 0, 62, 0
1, 36064, Note_on_c, 0, 61, 77
1, 36089, Note_on_c, 1, 57, 0
1, 36089, Note_on_c, 1, 55, 0
1, 36089, Note_on_c, 1, 52, 0
1, 36089, Note_on_c, 1, 49, 0
1, 36094, Note_on_c, 0, 61, 0
1, 36096, Note_on_c, 0, 62, 78
1, 36096, Note_on_c, 1, 57, 78
1, 36096, Note_on_c, 1, 54, 78
1, 36096, Note_on_c, 1, 50, 78
1, 36126, Note_on_c, 0, 62, 0
1, 36128, Note_on_c, 0, 78, 101
1, 36160, Note_on_c, 0, 78, 0
1, 36160, Note_on_c, 0, 76, 80
1, 36185, Note_on_c, 1, 57, 0
1, 36185, Note_on_c, 1, 54, 0
1, 36185, Note_on_c, 1, 50, 0
1, 36190, Note_on_c, 0, 76, 0
1, 36192, Note_on_c, 0, 74, 80
1, 36205, Note_on_c, 0, 74, 0
1, 36224, Note_on_c, 0, 73, 101
1, 36256, Note_on_c, 0, 73, 0
1, 36256, Note_on_c, 0, 71, 80
1, 36286, Note_on_c, 0, 71, 0
1, 36288, Note_on_c, 0, 69, 80
1, 36301, Note_on_c, 0, 69, 0
1, 36320, Note_on_c, 0, 71, 101
1, 36352, Note_on_c, 0, 71, 0
1, 36352, Note_on_c, 0, 69, 80
1, 36382, Note_on_c, 0, 69, 0
1, 36384, Note_on_c, 0, 67, 80
1, 36384, Note_on_c, 1, 57, 80
1, 36384, Note_on_c, 1, 55, 80
1, 36384, Note_on_c, 1, 52, 80
1, 36384, Note_on_c, 1, 49, 80
1, 36397, Note_on_c, 0, 67, 0
1, 36416, Note_on_c, 0, 66, 101
1, 36448, Note_on_c, 0, 66, 0
1, 36448, Note_on_c, 0, 64, 80
1, 36473, Note_on_c, 1, 57, 0
1, 36473, Note_on_c, 1, 55, 0
1, 36473, Note_on_c, 1, 52, 0
1, 36473, Note_on_c, 1, 49, 0
1, 36478, Note_on_c, 0, 64, 0
1, 36480, Note_on_c, 0, 62, 80
1, 36480, Note_on_c, 1, 57, 80
1, 36480, Note_on_c, 1, 54, 80
1, 36480, Note_on_c, 1, 50, 80
1, 36510, Note_on_c, 0, 62, 0
1, 36512, Note_on_c, 0, 74, 80
1, 36542, Note_on_c, 0, 74, 0
1, 36544, Note_on_c, 0, 73, 80
1, 36569, Note_on_c, 1, 57, 0
1, 36569, Note_on_c, 1, 54, 0
1, 36569, Note_on_c, 1, 50, 0
1, 36574, Note_on_c, 0, 73, 0
1, 36576, Note_on_c, 0, 71, 80
1, 36576, Note_on_c, 1, 66, 70
1, 36576, Note_on_c, 1, 62, 70
1, 36606, Note_on_c, 0, 71, 0
1, 36608, Note_on_c, 0, 78, 80
1, 36638, Note_on_c, 0, 78, 0
1, 36640, Note_on_c, 0, 68, 80
1, 36665, Note_on_c, 1, 66, 0
1, 36665, Note_on_c, 1, 62, 0
1, 36670, Note_on_c, 0, 68, 0
1, 36672, Note_on_c, 0, 69, 80
1, 36672, Note_on_c, 1, 64, 70
1, 36672, Note_on_c, 1, 61, 70
1, 36702, Note_on_c, 0, 69, 0
1, 36704, Note_on_c, 0, 71, 80
1, 36734, Note_on_c, 0, 71, 0
1, 36736, Note_on_c, 0, 69, 80
1, 36761, Note_on_c, 1, 64, 0
1, 36761, Note_on_c, 1, 61, 0
1, 36766, Note_on_c, 0, 69, 0
1, 36768, Note_on_c, 0, 67, 80
1, 36768, Note_on_c, 1, 62, 70
1, 36768, Note_on_c, 1, 59, 70
1, 36798, Note_on_c, 0, 67, 0
1, 36800, Note_on_c, 0, 74, 80
1, 36830, Note_on_c, 0, 74, 0
1, 36832, Note_on_c, 0, 65, 80
1, 36857, Note_on_c, 1, 62, 0
1, 36857, Note_on_c, 1, 59, 0
1, 36862, Note_on_c, 0, 65, 0
1, 36864, Note_on_c, 0, 66, 80
1, 36864, Note_on_c, 1, 61, 70
1, 36864, Note_on_c, 1, 57, 70
1, 36894, Note_on_c, 0, 66, 0
1, 36896, Note_on_c, 0, 67, 80
1, 36926, Note_on_c, 0, 67, 0
1, 36928, Note_on_c, 0, 66, 80
1, 36953, Note_on_c, 1, 61, 0
1, 36953, Note_on_c, 1, 57, 0
1, 36958, Note_on_c, 0, 66, 0
1, 36960, Note_on_c, 0, 64, 80
1, 36960, Note_on_c, 1, 59, 70
1, 36960, Note_on_c, 1, 55, 70
1, 36990, Note_on_c, 0, 64, 0
1, 36992, Note_on_c, 0, 71, 79
1, 37022, Note_on_c, 0, 71, 0
1, 37024, Note_on_c, 0, 61, 78
1, 37049, Note_on_c, 1, 59, 0
1, 37049, Note_on_c, 1, 55, 0
1, 37054, Note_on_c, 0, 61, 0
1, 37056, Note_on_c, 0, 62, 77
1, 37056, Note_on_c, 1, 57, 70
1, 37056, Note_on_c, 1, 54, 70
1, 37086, Note_on_c, 0, 62, 0
1, 37088, Note_on_c, 0, 66, 77
1, 37118, Note_on_c, 0, 66, 0
1, 37120, Note_on_c, 0, 64, 76
1, 37145, Note_on_c, 1, 57, 0
1, 37145, Note_on_c, 1, 54, 0
1, 37150, Note_on_c, 0, 64, 0
1, 37152, Note_on_c, 0, 62, 75
1, 37182, Note_on_c, 0, 62, 0
1, 37184, Note_on_c, 0, 69, 75
1, 37214, Note_on_c, 0, 69, 0
1, 37216, Note_on_c, 0, 63, 74
1, 37246, Note_on_c, 0, 63, 0
1, 37248, Note_on_c, 0, 64, 73
1, 37248, Note_on_c, 1, 43, 64
1, 37278, Note_on_c, 1, 43, 0
1, 37280, Note_on_c, 1, 47, 64
1, 37310, Note_on_c, 1, 47, 0
1, 37312, Note_on_c, 1, 52, 64
1, 37342, Note_on_c, 1, 52, 0
1, 37344, Note_on_c, 1, 43, 64
1, 37374, Note_on_c, 1, 43, 0
1, 37376, Note_on_c, 1, 47, 64
1, 37381, Note_on_c, 0, 64, 0
1, 37392, Note_on_c, 0, 64, 64
1, 37404, Note_on_c, 0, 64, 0
1, 37404, Note_on_c, 0, 66, 64
1, 37406, Note_on_c, 1, 47, 0
1, 37408, Note_on_c, 1, 52, 64
1, 37416, Note_on_c, 0, 66, 0
1, 37416, Note_on_c, 0, 67, 65
1, 37428, Note_on_c, 0, 67, 0
1, 37428, Note_on_c, 0, 69, 65
1, 37438, Note_on_c, 1, 52, 0
1, 37440, Note_on_c, 0, 69, 0
1, 37440, Note_on_c, 0, 70, 82
1, 37440, Note_on_c, 1, 44, 64
1, 37470, Note_on_c, 1, 44, 0
1, 37472, Note_on_c, 1, 50, 64
1, 37502, Note_on_c, 1, 50, 0
1, 37504, Note_on_c, 1, 53, 64
1, 37534, Note_on_c, 1, 53, 0
1, 37536, Note_on_c, 0, 70, 0
1, 37536, Note_on_c, 0, 71, 70
1, 37536, Note_on_c, 1, 44, 64
1, 37566, Note_on_c, 1, 44, 0
1, 37568, Note_on_c, 1, 50, 64
1, 37598, Note_on_c, 1, 50, 0
1, 37600, Note_on_c, 1, 53, 64
1, 37625, Note_on_c, 0, 71, 0
1, 37630, Note_on_c, 1, 53, 0
1, 37632, Note_on_c, 0, 71, 75
1, 37632, Note_on_c, 1, 45, 64
1, 37650, Note_on_c, 0, 71, 0
1, 37650, Note_on_c, 0, 62, 91
1, 37662, Note_on_c, 1, 45, 0
1, 37664, Note_on_c, 1, 50, 64
1, 37694, Note_on_c, 1, 50, 0
1, 37696, Note_on_c, 1, 54, 64
1, 37726, Note_on_c, 1, 54, 0
1, 37728, Note_on_c, 1, 45, 64
1, 37758, Note_on_c, 1, 45, 0
1, 37760, Note_on_c, 1, 50, 64
1, 37790, Note_on_c, 1, 50, 0
1, 37792, Note_on_c, 1, 54, 64
1, 37822, Note_on_c, 1, 54, 0
1, 37824, Note_on_c, 0, 62, 0
1, 37824, Note_on_c, 0, 66, 64
1, 37824, Note_on_c, 1, 45, 64
1, 37836, Note_on_c, 0, 66, 0
1, 37836, Note_on_c, 0, 64, 64
1, 37854, Note_on_c, 1, 45, 0
1, 37856, Note_on_c, 1, 49, 64
1, 37886, Note_on_c, 1, 49, 0
1, 37888, Note_on_c, 1, 55, 64
1, 37891, Note_on_c, 0, 64, 0
1, 37896, Note_on_c, 0, 62, 64
1, 37918, Note_on_c, 1, 55, 0
1, 37919, Note_on_c, 0, 62, 0
1, 37920, Note_on_c, 0, 64, 64
1, 37920, Note_on_c, 1, 45, 64
1, 37950, Note_on_c, 1, 45, 0
1, 37952, Note_on_c, 1, 49, 64
1, 37982, Note_on_c, 1, 49, 0
1, 37984, Note_on_c, 1, 55, 64
1, 37987, Note_on_c, 0, 64, 0
1, 37992, Note_on_c, 0, 66, 64
1, 38014, Note_on_c, 1, 55, 0
1, 38015, Note_on_c, 0, 66, 0
1, 38016, Note_on_c, 0, 62, 64
1, 38016, Note_on_c, 1, 54, 64
1, 38016, Note_on_c, 1, 50, 64
1, 38046, Note_on_c, 0, 62, 0
1, 38048, Note_on_c, 0, 74, 64
1, 38048, Note_on_c, 0, 71, 64
1, 38078, Note_on_c, 0, 74, 0
1, 38078, Note_on_c, 0, 71, 0
1, 38080, Note_on_c, 0, 73, 64
1, 38080, Note_on_c, 0, 69, 64
1, 38105, Note_on_c, 1, 54, 0
1, 38105, Note_on_c, 1, 50, 0
1, 38110, Note_on_c, 0, 73, 0
1, 38110, Note_on_c, 0, 69, 0
1, 38112, Note_on_c, 0, 71, 64
1, 38112, Note_on_c, 0, 67, 64
1, 38142, Note_on_c, 0, 71, 0
1, 38142, Note_on_c, 0, 67, 0
1, 38144, Note_on_c, 0, 69, 65
1, 38144, Note_on_c, 0, 66, 65
1, 38174, Note_on_c, 0, 69, 0
1, 38174, Note_on_c, 0, 66, 0
1, 38176, Note_on_c, 0, 67, 67
1, 38176, Note_on_c, 0, 64, 67
1, 38176, Note_on_c, 1, 49, 66
1, 38176, Note_on_c, 1, 37, 66
1, 38206, Note_on_c, 0, 67, 0
1, 38206, Note_on_c, 0, 64, 0
1, 38206, Note_on_c, 1, 49, 0
1, 38206, Note_on_c, 1, 37, 0
1, 38208, Note_on_c, 0, 66, 68
1, 38208, Note_on_c, 0, 62, 68
1, 38208, Note_on_c, 1, 50, 67
1, 38208, Note_on_c, 1, 38, 67
1, 38238, Note_on_c, 0, 66, 0
1, 38238, Note_on_c, 0, 62, 0
1, 38240, Note_on_c, 0, 74, 70
1, 38240, Note_on_c, 0, 71, 70
1, 38270, Note_on_c, 0, 74, 0
1, 38270, Note_on_c, 0, 71, 0
1, 38272, Note_on_c, 0, 73, 71
1, 38272, Note_on_c, 0, 69, 71
1, 38297, Note_on_c, 1, 50, 0
1, 38297, Note_on_c, 1, 38, 0
1, 38302, Note_on_c, 0, 73, 0
1, 38302, Note_on_c, 0, 69, 0
1, 38304, Note_on_c, 0, 71, 73
1, 38304, Note_on_c, 0, 67, 73
1, 38334, Note_on_c, 0, 71, 0
1, 38334, Note_on_c, 0, 67, 0
1, 38336, Note_on_c, 0, 69, 74
1, 38336, Note_on_c, 0, 66, 74
1, 38366, Note_on_c, 0, 69, 0
1, 38366, Note_on_c, 0, 66, 0
1, 38368, Note_on_c, 0, 67, 76
1, 38368, Note_on_c, 0, 64, 76
1, 38368, Note_on_c, 1, 49, 74
1, 38368, Note_on_c, 1, 37, 74
1, 38398, Note_on_c, 0, 67, 0
1, 38398, Note_on_c, 0, 64, 0
1, 38398, Note_on_c, 1, 49, 0
1, 38398, Note_on_c, 1, 37, 0
1, 38400, Note_on_c, 0, 66, 77
1, 38400, Note_on_c, 0, 62, 77
1, 38400, Note_on_c, 1, 50, 75
1, 38400, Note_on_c, 1, 38, 75
1, 38430, Note_on_c, 0, 66, 0
1, 38430, Note_on_c, 0, 62, 0
1, 38432, Note_on_c, 0, 86, 80
1, 38432, Note_on_c, 0, 83, 80
1, 38462, Note_on_c, 0, 86, 0
1, 38462, Note_on_c, 0, 83, 0
1, 38464, Note_on_c, 0, 85, 80
1, 38464, Note_on_c, 0, 81, 80
1, 38489, Note_on_c, 1, 50, 0
1, 38489, Note_on_c, 1, 38, 0
1, 38494, Note_on_c, 0, 85, 0
1, 38494, Note_on_c, 0, 81, 0
1, 38496, Note_on_c, 0, 83, 80
1, 38496, Note_on_c, 0, 79, 80
1, 38526, Note_on_c, 0, 83, 0
1, 38526, Note_on_c, 0, 79, 0
1, 38528, Note_on_c, 0, 81, 80
1, 38528, Note_on_c, 0, 78, 80
1, 38558, Note_on_c, 0, 81, 0
1, 38558, Note_on_c, 0, 78, 0
1, 38560, Note_on_c, 0, 79, 80
1, 38560, Note_on_c, 0, 76, 80
1, 38560, Note_on_c, 1, 61, 80
1, 38560, Note_on_c, 1, 49, 80
1, 38590, Note_on_c, 0, 79, 0
1, 38590, Note_on_c, 0, 76, 0
1, 38590, Note_on_c, 1, 61, 0
1, 38590, Note_on_c, 1, 49, 0
1, 38592, Note_on_c, 0, 78, 80
1, 38592, Note_on_c, 0, 74, 80
1, 38592, Note_on_c, 1, 62, 80
1, 38592, Note_on_c, 1, 50, 80
1, 38622, Note_on_c, 0, 78, 0
1, 38622, Note_on_c, 0, 74, 0
1, 38624, Note_on_c, 0, 86, 80
1, 38624, Note_on_c, 0, 83, 80
1, 38654, Note_on_c, 0, 86, 0
1, 38654, Note_on_c, 0, 83, 0
1, 38656, Note_on_c, 0, 85, 80
1, 38656, Note_on_c, 0, 81, 80
1, 38681, Note_on_c, 1, 62, 0
1, 38681, Note_on_c, 1, 50, 0
1, 38686, Note_on_c, 0, 85, 0
1, 38686, Note_on_c, 0, 81, 0
1, 38688, Note_on_c, 0, 83, 80
1, 38688, Note_on_c, 0, 79, 80
1, 38718, Note_on_c, 0, 83, 0
1, 38718, Note_on_c, 0, 79, 0
1, 38720, Note_on_c, 0, 81, 80
1, 38720, Note_on_c, 0, 78, 80
1, 38750, Note_on_c, 0, 81, 0
1, 38750, Note_on_c, 0, 78, 0
1, 38752, Note_on_c, 0, 79, 80
1, 38752, Note_on_c, 0, 76, 80
1, 38752, Note_on_c, 1, 61, 80
1, 38752, Note_on_c, 1, 49, 80
1, 38782, Note_on_c, 0, 79, 0
1, 38782, Note_on_c, 0, 76, 0
1, 38782, Note_on_c, 1, 61, 0
1, 38782, Note_on_c, 1, 49, 0
1, 38784, Note_on_c, 0, 78, 80
1, 38784, Note_on_c, 0, 74, 80
1, 38784, Note_on_c, 1, 62, 80
1, 38784, Note_on_c, 1, 50, 80
1, 38814, Note_on_c, 0, 78, 0
1, 38814, Note_on_c, 0, 74, 0
1, 38816, Note_on_c, 0, 81, 80
1, 38816, Note_on_c, 0, 78, 80
1, 38848, Note_on_c, 0, 81, 0
1, 38848, Note_on_c, 0, 78, 0
1, 38848, Note_on_c, 0, 79, 80
1, 38848, Note_on_c, 0, 76, 80
1, 38873, Note_on_c, 1, 62, 0
1, 38873, Note_on_c, 1, 50, 0
1, 38878, Note_on_c, 0, 79, 0
1, 38878, Note_on_c, 0, 76, 0
1, 38880, Note_on_c, 0, 78, 80
1, 38880, Note_on_c, 0, 74, 80
1, 38893, Note_on_c, 0, 78, 0
1, 38893, Note_on_c, 0, 74, 0
1, 38912, Note_on_c, 0, 78, 79
1, 38912, Note_on_c, 0, 74, 79
1, 38944, Note_on_c, 0, 78, 0
1, 38944, Note_on_c, 0, 74, 0
1, 38944, Note_on_c, 0, 76, 78
1, 38944, Note_on_c, 0, 73, 78
1, 38974, Note_on_c, 0, 76, 0
1, 38974, Note_on_c, 0, 73, 0
1, 38976, Note_on_c, 0, 74, 77
1, 38976, Note_on_c, 0, 71, 77
1, 38989, Note_on_c, 0, 74, 0
1, 38989, Note_on_c, 0, 71, 0
1, 39008, Note_on_c, 0, 74, 76
1, 39008, Note_on_c, 0, 71, 76
1, 39040, Note_on_c, 0, 74, 0
1, 39040, Note_on_c, 0, 71, 0
1, 39040, Note_on_c, 0, 73, 75
1, 39040, Note_on_c, 0, 69, 75
1, 39070, Note_on_c, 0, 73, 0
1, 39070, Note_on_c, 0, 69, 0
1, 39072, Note_on_c, 0, 71, 74
1, 39072, Note_on_c, 0, 67, 74
1, 39085, Note_on_c, 0, 71, 0
1, 39085, Note_on_c, 0, 67, 0
1, 39104, Note_on_c, 0, 71, 73
1, 39104, Note_on_c, 0, 67, 73
1, 39136, Note_on_c, 0, 71, 0
1, 39136, Note_on_c, 0, 67, 0
1, 39136, Note_on_c, 0, 69, 72
1, 39136, Note_on_c, 0, 66, 72
1, 39166, Note_on_c, 0, 69, 0
1, 39166, Note_on_c, 0, 66, 0
1, 39168, Note_on_c, 0, 67, 71
1, 39168, Note_on_c, 0, 64, 71
1, 39168, Note_on_c, 1, 49, 64
1, 39198, Note_on_c, 1, 49, 0
1, 39200, Note_on_c, 1, 52, 64
1, 39230, Note_on_c, 1, 52, 0
1, 39232, Note_on_c, 1, 57, 64
1, 39262, Note_on_c, 1, 57, 0
1, 39264, Note_on_c, 1, 49, 64
1, 39294, Note_on_c, 1, 49, 0
1, 39296, Note_on_c, 1, 52, 64
1, 39326, Note_on_c, 1, 52, 0
1, 39328, Note_on_c, 1, 57, 64
1, 39345, Note_on_c, 0, 67, 0
1, 39345, Note_on_c, 0, 64, 0
1, 39358, Note_on_c, 1, 57, 0
1, 39360, Note_on_c, 0, 66, 64
1, 39360, Note_on_c, 1, 50, 64
1, 39390, Note_on_c, 1, 50, 0
1, 39392, Note_on_c, 1, 54, 64
1, 39422, Note_on_c, 1, 54, 0
1, 39424, Note_on_c, 1, 57, 64
1, 39449, Note_on_c, 0, 66, 0
1, 39454, Note_on_c, 1, 57, 0
1, 39456, Note_on_c, 0, 62, 64
1, 39456, Note_on_c, 1, 50, 64
1, 39486, Note_on_c, 1, 50, 0
1, 39488, Note_on_c, 1, 54, 64
1, 39518, Note_on_c, 1, 54, 0
1, 39520, Note_on_c, 1, 57, 64
1, 39545, Note_on_c, 0, 62, 0
1, 39550, Note_on_c, 1, 57, 0
1, 39552, Note_on_c, 0, 71, 64
1, 39552, Note_on_c, 1, 43, 64
1, 39582, Note_on_c, 1, 43, 0
1, 39584, Note_on_c, 1, 50, 66
1, 39614, Note_on_c, 1, 50, 0
1, 39616, Note_on_c, 1, 55, 68
1, 39646, Note_on_c, 1, 55, 0
1, 39648, Note_on_c, 1, 43, 70
1, 39678, Note_on_c, 1, 43, 0
1, 39680, Note_on_c, 1, 50, 72
1, 39685, Note_on_c, 0, 71, 0
1, 39696, Note_on_c, 0, 73, 70
1, 39708, Note_on_c, 0, 73, 0
1, 39708, Note_on_c, 0, 71, 70
1, 39710, Note_on_c, 1, 50, 0
1, 39712, Note_on_c, 1, 55, 74
1, 39720, Note_on_c, 0, 71, 0
1, 39720, Note_on_c, 0, 70, 70
1, 39732, Note_on_c, 0, 70, 0
1, 39732, Note_on_c, 0, 71, 70
1, 39742, Note_on_c, 1, 55, 0
1, 39744, Note_on_c, 0, 71, 0
1, 39744, Note_on_c, 0, 74, 88
1, 39744, Note_on_c, 1, 44, 76
1, 39774, Note_on_c, 1, 44, 0
1, 39776, Note_on_c, 1, 50, 80
1, 39806, Note_on_c, 1, 50, 0
1, 39808, Note_on_c, 1, 53, 80
1, 39838, Note_on_c, 1, 53, 0
1, 39840, Note_on_c, 1, 44, 80
1, 39870, Note_on_c, 1, 44, 0
1, 39872, Note_on_c, 1, 50, 80
1, 39902, Note_on_c, 1, 50, 0
1, 39904, Note_on_c, 1, 53, 80
1, 39934, Note_on_c, 1, 53, 0
1, 39936, Note_on_c, 0, 74, 0
1, 39936, Note_on_c, 0, 62, 91
1, 39936, Note_on_c, 1, 45, 80
1, 39966, Note_on_c, 1, 45, 0
1, 39968, Note_on_c, 1, 50, 78
1, 39998, Note_on_c, 1, 50, 0
1, 40000, Note_on_c, 1, 54, 77
1, 40030, Note_on_c, 1, 54, 0
1, 40032, Note_on_c, 1, 45, 76
1, 40062, Note_on_c, 1, 45, 0
1, 40064, Note_on_c, 1, 50, 75
1, 40094, Note_on_c, 1, 50, 0
1, 40096, Note_on_c, 1, 54, 74
1, 40126, Note_on_c, 1, 54, 0
1, 40128, Note_on_c, 0, 62, 0
1, 40128, Note_on_c, 0, 66, 70
1, 40128, Note_on_c, 1, 45, 73
1, 40140, Note_on_c, 0, 66, 0
1, 40140, Note_on_c, 0, 64, 70
1, 40158, Note_on_c, 1, 45, 0
1, 40160, Note_on_c, 1, 49, 71
1, 40190, Note_on_c, 1, 49, 0
1, 40192, Note_on_c, 1, 55, 70
1, 40195, Note_on_c, 0, 64, 0
1, 40200, Note_on_c, 0, 62, 68
1, 40222, Note_on_c, 1, 55, 0
1, 40223, Note_on_c, 0, 62, 0
1, 40224, Note_on_c, 0, 64, 68
1, 40224, Note_on_c, 1, 45, 69
1, 40254, Note_on_c, 1, 45, 0
1, 40256, Note_on_c, 1, 49, 68
1, 40286, Note_on_c, 1, 49, 0
1, 40288, Note_on_c, 1, 55, 67
1, 40291, Note_on_c, 0, 64, 0
1, 40296, Note_on_c, 0, 66, 66
1, 40318, Note_on_c, 1, 55, 0
1, 40319, Note_on_c, 0, 66, 0
1, 40320, Note_on_c, 0, 62, 66
1, 40320, Note_on_c, 1, 38, 66
1, 40350, Note_on_c, 1, 38, 0
1, 40352, Note_on_c, 1, 45, 64
1, 40382, Note_on_c, 1, 45, 0
1, 40384, Note_on_c, 1, 50, 64
1, 40409, Note_on_c, 0, 62, 0
1, 40414, Note_on_c, 1, 50, 0
1, 40416, Note_on_c, 1, 38, 64
1, 40446, Note_on_c, 1, 38, 0
1, 40448, Note_on_c, 1, 45, 64
1, 40478, Note_on_c, 1, 45, 0
1, 40480, Note_on_c, 1, 50, 64
1, 40510, Note_on_c, 1, 50, 0
1, 40512, Note_on_c, 0, 67, 64
1, 40512, Note_on_c, 0, 61, 64
1, 40512, Note_on_c, 1, 37, 64
1, 40542, Note_on_c, 1, 37, 0
1, 40544, Note_on_c, 1, 45, 64
1, 40551, Note_on_c, 0, 67, 0
1, 40551, Note_on_c, 0, 61, 0
1, 40574, Note_on_c, 1, 45, 0
1, 40576, Note_on_c, 1, 52, 64
1, 40606, Note_on_c, 1, 52, 0
1, 40608, Note_on_c, 0, 67, 64
1, 40608, Note_on_c, 0, 61, 64
1, 40608, Note_on_c, 1, 37, 64
1, 40638, Note_on_c, 1, 37, 0
1, 40640, Note_on_c, 1, 45, 64
1, 40647, Note_on_c, 0, 67, 0
1, 40647, Note_on_c, 0, 61, 0
1, 40670, Note_on_c, 1, 45, 0
1, 40672, Note_on_c, 1, 52, 64
1, 40702, Note_on_c, 1, 52, 0
1, 40704, Note_on_c, 0, 66, 64
1, 40704, Note_on_c, 0, 62, 64
1, 40704, Note_on_c, 1, 38, 64
1, 40734, Note_on_c, 1, 38, 0
1, 40736, Note_on_c, 1, 45, 64
1, 40766, Note_on_c, 1, 45, 0
1, 40768, Note_on_c, 1, 50, 65
1, 40798, Note_on_c, 0, 66, 0
1, 40798, Note_on_c, 0, 62, 0
1, 40798, Note_on_c, 1, 50, 0
1, 40800, Note_on_c, 1, 38, 66
1, 40830, Note_on_c, 1, 38, 0
1, 40832, Note_on_c, 1, 45, 67
1, 40862, Note_on_c, 1, 45, 0
1, 40864, Note_on_c, 1, 50, 68
1, 40894, Note_on_c, 1, 50, 0
1, 40896, Note_on_c, 0, 73, 68
1, 40896, Note_on_c, 0, 67, 68
1, 40896, Note_on_c, 1, 37, 68
1, 40926, Note_on_c, 1, 37, 0
1, 40928, Note_on_c, 1, 45, 70
1, 40935, Note_on_c, 0, 73, 0
1, 40935, Note_on_c, 0, 67, 0
1, 40958, Note_on_c, 1, 45, 0
1, 40960, Note_on_c, 1, 52, 70
1, 40990, Note_on_c, 1, 52, 0
1, 40992, Note_on_c, 0, 73, 70
1, 40992, Note_on_c, 0, 67, 70
1, 40992, Note_on_c, 1, 37, 70
1, 41022, Note_on_c, 1, 37, 0
1, 41024, Note_on_c, 1, 45, 70
1, 41031, Note_on_c, 0, 73, 0
1, 41031, Note_on_c, 0, 67, 0
1, 41054, Note_on_c, 1, 45, 0
1, 41056, Note_on_c, 1, 52, 70
1, 41086, Note_on_c, 1, 52, 0
1, 41088, Note_on_c, 0, 74, 70
1, 41088, Note_on_c, 0, 66, 70
1, 41088, Note_on_c, 1, 38, 70
1, 41118, Note_on_c, 1, 38, 0
1, 41120, Note_on_c, 1, 45, 70
1, 41150, Note_on_c, 1, 45, 0
1, 41152, Note_on_c, 1, 50, 70
1, 41182, Note_on_c, 0, 74, 0
1, 41182, Note_on_c, 0, 66, 0
1, 41182, Note_on_c, 1, 50, 0
1, 41184, Note_on_c, 1, 38, 70
1, 41214, Note_on_c, 1, 38, 0
1, 41216, Note_on_c, 1, 45, 70
1, 41246, Note_on_c, 1, 45, 0
1, 41248, Note_on_c, 1, 50, 70
1, 41278, Note_on_c, 1, 50, 0
1, 41280, Note_on_c, 0, 67, 70
1, 41280, Note_on_c, 0, 61, 70
1, 41280, Note_on_c, 1, 37, 70
1, 41310, Note_on_c, 1, 37, 0
1, 41312, Note_on_c, 1, 46, 70
1, 41319, Note_on_c, 0, 67, 0
1, 41319, Note_on_c, 0, 61, 0
1, 41342, Note_on_c, 1, 46, 0
1, 41344, Note_on_c, 1, 52, 70
1, 41374, Note_on_c, 1, 52, 0
1, 41376, Note_on_c, 0, 67, 70
1, 41376, Note_on_c, 0, 61, 70
1, 41376, Note_on_c, 1, 37, 70
1, 41406, Note_on_c, 1, 37, 0
1, 41408, Note_on_c, 1, 46, 70
1, 41415, Note_on_c, 0, 67, 0
1, 41415, Note_on_c, 0, 61, 0
1, 41438, Note_on_c, 1, 46, 0
1, 41440, Note_on_c, 1, 52, 70
1, 41470, Note_on_c, 1, 52, 0
1, 41472, Note_on_c, 0, 66, 70
1, 41472, Note_on_c, 0, 62, 70
1, 41472, Note_on_c, 1, 38, 70
1, 41502, Note_on_c, 1, 38, 0
1, 41504, Note_on_c, 1, 45, 69
1, 41534, Note_on_c, 1, 45, 0
1, 41536, Note_on_c, 1, 50, 68
1, 41566, Note_on_c, 0, 66, 0
1, 41566, Note_on_c, 0, 62, 0
1, 41566, Note_on_c, 1, 50, 0
1, 41568, Note_on_c, 1, 38, 67
1, 41598, Note_on_c, 1, 38, 0
1, 41600, Note_on_c, 1, 45, 66
1, 41630, Note_on_c, 1, 45, 0
1, 41632, Note_on_c, 1, 50, 65
1, 41662, Note_on_c, 1, 50, 0
1, 41664, Note_on_c, 0, 61, 66
1, 41664, Note_on_c, 0, 55, 66
1, 41664, Note_on_c, 1, 37, 65
1, 41694, Note_on_c, 1, 37, 0
1, 41696, Note_on_c, 1, 46, 64
1, 41703, Note_on_c, 0, 61, 0
1, 41703, Note_on_c, 0, 55, 0
1, 41726, Note_on_c, 1, 46, 0
1, 41728, Note_on_c, 1, 52, 64
1, 41758, Note_on_c, 1, 52, 0
1, 41760, Note_on_c, 0, 61, 64
1, 41760, Note_on_c, 0, 55, 64
1, 41760, Note_on_c, 1, 37, 64
1, 41790, Note_on_c, 1, 37, 0
1, 41792, Note_on_c, 1, 46, 64
1, 41799, Note_on_c, 0, 61, 0
1, 41799, Note_on_c, 0, 55, 0
1, 41822, Note_on_c, 1, 46, 0
1, 41824, Note_on_c, 1, 52, 64
1, 41854, Note_on_c, 1, 52, 0
1, 41856, Note_on_c, 0, 62, 64
1, 41856, Note_on_c, 0, 54, 64
1, 41856, Note_on_c, 1, 38, 64
1, 41886, Note_on_c, 1, 38, 0
1, 41888, Note_on_c, 1, 45, 63
1, 41918, Note_on_c, 1, 45, 0
1, 41920, Note_on_c, 1, 50, 62
1, 41950, Note_on_c, 0, 62, 0
1, 41950, Note_on_c, 0, 54, 0
1, 41950, Note_on_c, 1, 50, 0
1, 41952, Note_on_c, 1, 38, 61
1, 41982, Note_on_c, 1, 38, 0
1, 41984, Note_on_c, 1, 45, 60
1, 42014, Note_on_c, 1, 45, 0
1, 42016, Note_on_c, 1, 50, 59
1, 42046, Note_on_c, 1, 50, 0
1, 42048, Note_on_c, 0, 62, 60
1, 42048, Note_on_c, 0, 54, 60
1, 42048, Note_on_c, 1, 38, 59
1, 42078, Note_on_c, 1, 38, 0
1, 42080, Note_on_c, 1, 45, 58
1, 42087, Note_on_c, 0, 62, 0
1, 42087, Note_on_c, 0, 54, 0
1, 42110, Note_on_c, 1, 45, 0
1, 42112, Note_on_c, 1, 52, 58
1, 42142, Note_on_c, 1, 52, 0
1, 42144, Note_on_c, 0, 62, 58
1, 42144, Note_on_c, 0, 54, 58
1, 42144, Note_on_c, 1, 38, 58
1, 42174, Note_on_c, 1, 38, 0
1, 42176, Note_on_c, 1, 45, 58
1, 42183, Note_on_c, 0, 62, 0
1, 42183, Note_on_c, 0, 54, 0
1, 42206, Note_on_c, 1, 45, 0
1, 42208, Note_on_c, 1, 52, 58
1, 42238, Note_on_c, 1, 52, 0
1, 42240, Note_on_c, 0, 62, 58
1, 42240, Note_on_c, 0, 54, 58
1, 42240, Note_on_c, 1, 38, 58
1, 42594, Note_on_c, 0, 62, 0
1, 42594, Note_on_c, 0, 54, 0
1, 42594, Note_on_c, 1, 38, 0
1, 42624, Note_on_c, 1, 38, 0
1, 42713, Note_on_c, 1, 38, 0
1, 42723, End_track
0, 0, End_of_file