0, 0, Header, 0, 1, 96
1, 0, Start_track
1, 0, Tempo, 100000
1, 240, Tempo, 705882
1, 240, Note_on_c, 0, 67, 86
1, 240, Note_on_c, 1, 59, 62
1, 240, Note_on_c, 1, 55, 62
1, 260, Note_on_c, 0, 67, 0
1, 260, Note_on_c, 1, 59, 0
1, 260, Note_on_c, 1, 55, 0
1, 288, Note_on_c, 0, 67, 86
1, 288, Note_on_c, 1, 59, 62
1, 288, Note_on_c, 1, 55, 62
1, 377, Note_on_c, 1, 59, 0
1, 377, Note_on_c, 1, 55, 0
1, 384, Note_on_c, 0, 67, 0
1, 384, Note_on_c, 0, 71, 70
1, 384, Note_on_c, 1, 60, 62
1, 384, Note_on_c, 1, 55, 62
1, 396, Note_on_c, 0, 71, 0
1, 396, Note_on_c, 0, 69, 70
1, 404, Note_on_c, 1, 60, 0
1, 404, Note_on_c, 1, 55, 0
1, 429, Note_on_c, 0, 69, 0
1, 432, Note_on_c, 0, 62, 70
1, 432, Note_on_c, 1, 60, 62
1, 432, Note_on_c, 1, 55, 62
1, 477, Note_on_c, 0, 62, 0
1, 480, Note_on_c, 0, 64, 70
1, 521, Note_on_c, 1, 60, 0
1, 521, Note_on_c, 1, 55, 0
1, 525, Note_on_c, 0, 64, 0
1, 528, Note_on_c, 0, 67, 70
1, 528, Note_on_c, 1, 60, 62
1, 528, Note_on_c, 1, 55, 62
1, 540, Note_on_c, 0, 67, 0
1, 540, Note_on_c, 0, 66, 70
1, 548, Note_on_c, 1, 60, 0
1, 548, Note_on_c, 1, 55, 0
1, 552, Note_on_c, 0, 66, 0
1, 552, Note_on_c, 0, 64, 70
1, 564, Note_on_c, 0, 64, 0
1, 564, Note_on_c, 0, 66, 70
1, 576, Note_on_c, 0, 66, 0
1, 576, Note_on_c, 0, 67, 86
1, 576, Note_on_c, 1, 59, 62
1, 576, Note_on_c, 1, 55, 62
1, 596, Note_on_c, 0, 67, 0
1, 596, Note_on_c, 1, 59, 0
1, 596, Note_on_c, 1, 55, 0
1, 624, Note_on_c, 0, 67, 77
1, 624, Note_on_c, 1, 59, 62
1, 624, Note_on_c, 1, 55, 62
1, 644, Note_on_c, 0, 67, 0
1, 644, Note_on_c, 1, 59, 0
1, 644, Note_on_c, 1, 55, 0
1, 672, Note_on_c, 0, 67, 73
1, 672, Note_on_c, 1, 59, 62
1, 672, Note_on_c, 1, 55, 62
1, 692, Note_on_c, 0, 67, 0
1, 692, Note_on_c, 1, 59, 0
1, 692, Note_on_c, 1, 55, 0
1, 720, Note_on_c, 0, 67, 70
1, 720, Note_on_c, 1, 59, 62
1, 720, Note_on_c, 1, 55, 62
1, 809, Note_on_c, 0, 67, 0
1, 809, Note_on_c, 1, 59, 0
1, 809, Note_on_c, 1, 55, 0
1, 816, Note_on_c, 0, 69, 70
1, 816, Note_on_c, 0, 62, 70
1, 816, Note_on_c, 1, 54, 62
1, 836, Note_on_c, 0, 69, 0
1, 836, Note_on_c, 0, 62, 0
1, 836, Note_on_c, 1, 54, 0
1, 864, Note_on_c, 0, 72, 70
1, 864, Note_on_c, 0, 62, 62
1, 864, Note_on_c, 1, 57, 62
1, 876, Note_on_c, 0, 72, 0
1, 876, Note_on_c, 0, 71, 70
1, 876, Note_on_c, 1, 57, 0
1, 876, Note_on_c, 1, 55, 62
1, 909, Note_on_c, 1, 55, 0
1, 912, Note_on_c, 0, 71, 0
1, 912, Note_on_c, 0, 69, 72
1, 912, Note_on_c, 1, 54, 64
1, 957, Note_on_c, 0, 69, 0
1, 957, Note_on_c, 1, 54, 0
1, 960, Note_on_c, 0, 71, 74
1, 960, Note_on_c, 1, 55, 67
1, 997, Note_on_c, 0, 62, 0
1, 1005, Note_on_c, 0, 71, 0
1, 1005, Note_on_c, 1, 55, 0
1, 1008, Note_on_c, 0, 74, 93
1, 1008, Note_on_c, 0, 66, 62
1, 1008, Note_on_c, 0, 62, 62
1, 1008, Note_on_c, 1, 57, 70
1, 1056, Note_on_c, 0, 74, 0
1, 1056, Note_on_c, 0, 72, 75
1, 1097, Note_on_c, 1, 57, 0
1, 1101, Note_on_c, 0, 72, 0
1, 1104, Note_on_c, 0, 71, 74
1, 1104, Note_on_c, 1, 55, 67
1, 1124, Note_on_c, 0, 71, 0
1, 1124, Note_on_c, 1, 55, 0
1, 1141, Note_on_c, 0, 66, 0
1, 1141, Note_on_c, 0, 62, 0
1, 1152, Note_on_c, 0, 71, 89
1, 1152, Note_on_c, 0, 67, 89
1, 1152, Note_on_c, 1, 50, 66
1, 1200, Note_on_c, 0, 71, 0
1, 1200, Note_on_c, 0, 67, 0
1, 1200, Note_on_c, 0, 69, 72
1, 1200, Note_on_c, 0, 66, 72
1, 1200, Note_on_c, 1, 50, 0
1, 1200, Note_on_c, 1, 62, 65
1, 1220, Note_on_c, 0, 69, 0
1, 1220, Note_on_c, 0, 66, 0
1, 1220, Note_on_c, 1, 62, 0
1, 1248, Note_on_c, 0, 69, 71
1, 1248, Note_on_c, 0, 66, 71
1, 1248, Note_on_c, 1, 62, 64
1, 1268, Note_on_c, 0, 69, 0
1, 1268, Note_on_c, 0, 66, 0
1, 1268, Note_on_c, 1, 62, 0
1, 1296, Note_on_c, 0, 69, 86
1, 1296, Note_on_c, 0, 66, 86
1, 1296, Note_on_c, 1, 62, 63
1, 1344, Note_on_c, 1, 62, 0
1, 1344, Note_on_c, 1, 60, 62
1, 1389, Note_on_c, 1, 60, 0
1, 1392, Note_on_c, 0, 69, 0
1, 1392, Note_on_c, 0, 66, 0
1, 1392, Note_on_c, 0, 71, 71
1, 1392, Note_on_c, 0, 68, 71
1, 1392, Note_on_c, 1, 59, 67
1, 1412, Note_on_c, 0, 71, 0
1, 1412, Note_on_c, 0, 68, 0
1, 1412, Note_on_c, 1, 59, 0
1, 1440, Note_on_c, 0, 72, 72
1, 1440, Note_on_c, 0, 69, 72
1, 1440, Note_on_c, 1, 57, 73
1, 1485, Note_on_c, 0, 72, 0
1, 1485, Note_on_c, 0, 69, 0
1, 1488, Note_on_c, 0, 74, 73
1, 1488, Note_on_c, 0, 71, 73
1, 1529, Note_on_c, 1, 57, 0
1, 1533, Note_on_c, 0, 74, 0
1, 1533, Note_on_c, 0, 71, 0
1, 1536, Note_on_c, 0, 76, 74
1, 1536, Note_on_c, 0, 72, 74
1, 1536, Note_on_c, 1, 55, 84
1, 1556, Note_on_c, 0, 76, 0
1, 1556, Note_on_c, 0, 72, 0
1, 1581, Note_on_c, 1, 55, 0
1, 1584, Note_on_c, 0, 76, 91
1, 1584, Note_on_c, 0, 72, 91
1, 1584, Note_on_c, 1, 54, 84
1, 1629, Note_on_c, 1, 54, 0
1, 1632, Note_on_c, 1, 57, 84
1, 1677, Note_on_c, 1, 57, 0
1, 1680, Note_on_c, 0, 76, 0
1, 1680, Note_on_c, 0, 72, 0
1, 1680, Note_on_c, 0, 74, 77
1, 1680, Note_on_c, 0, 69, 62
1, 1680, Note_on_c, 1, 62, 84
1, 1692, Note_on_c, 0, 74, 0
1, 1692, Note_on_c, 0, 72, 77
1, 1704, Note_on_c, 0, 72, 0
1, 1704, Note_on_c, 0, 71, 77
1, 1716, Note_on_c, 0, 71, 0
1, 1716, Note_on_c, 0, 72, 77
1, 1725, Note_on_c, 0, 69, 0
1, 1725, Note_on_c, 1, 62, 0
1, 1728, Note_on_c, 0, 72, 0
1, 1728, Note_on_c, 0, 71, 77
1, 1728, Note_on_c, 0, 67, 77
1, 1728, Note_on_c, 1, 55, 70
1, 1773, Note_on_c, 0, 71, 0
1, 1773, Note_on_c, 0, 67, 0
1, 1776, Note_on_c, 0, 72, 77
1, 1776, Note_on_c, 0, 69, 77
1, 1821, Note_on_c, 0, 72, 0
1, 1821, Note_on_c, 0, 69, 0
1, 1824, Note_on_c, 0, 74, 78
1, 1824, Note_on_c, 0, 71, 78
1, 1824, Note_on_c, 1, 65, 71
1, 1869, Note_on_c, 0, 74, 0
1, 1869, Note_on_c, 0, 71, 0
1, 1869, Note_on_c, 1, 65, 0
1, 1872, Note_on_c, 0, 72, 79
1, 1872, Note_on_c, 0, 67, 68
1, 1872, Note_on_c, 1, 64, 72
1, 1917, Note_on_c, 0, 72, 0
1, 1917, Note_on_c, 1, 64, 0
1, 1920, Note_on_c, 0, 74, 79
1, 1920, Note_on_c, 1, 62, 72
1, 1965, Note_on_c, 0, 74, 0
1, 1965, Note_on_c, 1, 62, 0
1, 1968, Note_on_c, 0, 76, 80
1, 1968, Note_on_c, 1, 60, 73
1, 1993, Note_on_c, 1, 55, 0
1, 2013, Note_on_c, 0, 76, 0
1, 2013, Note_on_c, 1, 60, 0
1, 2016, Note_on_c, 0, 74, 81
1, 2016, Note_on_c, 1, 59, 74
1, 2016, Note_on_c, 1, 55, 73
1, 2036, Note_on_c, 0, 74, 0
1, 2061, Note_on_c, 0, 67, 0
1, 2061, Note_on_c, 1, 59, 0
1, 2061, Note_on_c, 1, 55, 0
1, 2064, Note_on_c, 0, 79, 81
1, 2064, Note_on_c, 1, 59, 90
1, 2064, Note_on_c, 1, 55, 74
1, 2084, Note_on_c, 0, 79, 0
1, 2109, Note_on_c, 1, 55, 0
1, 2112, Note_on_c, 0, 79, 82
1, 2112, Note_on_c, 1, 59, 0
1, 2112, Note_on_c, 1, 57, 75
1, 2112, Note_on_c, 1, 54, 75
1, 2132, Note_on_c, 0, 79, 0
1, 2157, Note_on_c, 1, 57, 0
1, 2157, Note_on_c, 1, 54, 0
1, 2160, Note_on_c, 0, 81, 83
1, 2160, Note_on_c, 1, 55, 76
1, 2160, Note_on_c, 1, 52, 75
1, 2184, Note_on_c, 0, 81, 0
1, 2184, Note_on_c, 0, 79, 83
1, 2205, Note_on_c, 0, 79, 0
1, 2205, Note_on_c, 1, 55, 0
1, 2208, Note_on_c, 0, 78, 84
1, 2208, Note_on_c, 1, 59, 77
1, 2231, Note_on_c, 0, 78, 0
1, 2232, Note_on_c, 0, 76, 83
1, 2249, Note_on_c, 1, 52, 0
1, 2253, Note_on_c, 1, 59, 0
1, 2255, Note_on_c, 0, 76, 0
1, 2256, Note_on_c, 0, 74, 82
1, 2256, Note_on_c, 1, 67, 89
1, 2279, Note_on_c, 0, 74, 0
1, 2280, Note_on_c, 0, 73, 81
1, 2303, Note_on_c, 0, 73, 0
1, 2304, Note_on_c, 0, 76, 81
1, 2304, Note_on_c, 1, 62, 62
1, 2352, Note_on_c, 0, 76, 0
1, 2352, Note_on_c, 0, 74, 79
1, 2352, Note_on_c, 1, 67, 0
1, 2352, Note_on_c, 1, 66, 70
1, 2397, Note_on_c, 0, 74, 0
1, 2397, Note_on_c, 1, 66, 0
1, 2400, Note_on_c, 0, 74, 78
1, 2400, Note_on_c, 1, 66, 70
1, 2420, Note_on_c, 0, 74, 0
1, 2437, Note_on_c, 1, 62, 0
1, 2445, Note_on_c, 1, 66, 0
1, 2448, Note_on_c, 0, 74, 77
1, 2448, Note_on_c, 1, 66, 70
1, 2448, Note_on_c, 1, 62, 70
1, 2515, Note_on_c, 0, 74, 0
1, 2520, Note_on_c, 0, 71, 77
1, 2537, Note_on_c, 1, 66, 0
1, 2537, Note_on_c, 1, 62, 0
1, 2543, Note_on_c, 0, 71, 0
1, 2544, Note_on_c, 0, 72, 77
1, 2567, Note_on_c, 0, 72, 0
1, 2568, Note_on_c, 0, 69, 77
1, 2591, Note_on_c, 0, 69, 0
1, 2592, Note_on_c, 0, 67, 86
1, 2592, Note_on_c, 1, 59, 62
1, 2592, Note_on_c, 1, 55, 62
1, 2681, Note_on_c, 1, 59, 0
1, 2681, Note_on_c, 1, 55, 0
1, 2688, Note_on_c, 0, 67, 0
1, 2688, Note_on_c, 0, 71, 70
1, 2688, Note_on_c, 1, 60, 62
1, 2688, Note_on_c, 1, 55, 62
1, 2700, Note_on_c, 0, 71, 0
1, 2700, Note_on_c, 0, 69, 70
1, 2708, Note_on_c, 1, 60, 0
1, 2708, Note_on_c, 1, 55, 0
1, 2733, Note_on_c, 0, 69, 0
1, 2736, Note_on_c, 0, 62, 70
1, 2736, Note_on_c, 1, 60, 62
1, 2736, Note_on_c, 1, 55, 62
1, 2781, Note_on_c, 0, 62, 0
1, 2784, Note_on_c, 0, 64, 70
1, 2825, Note_on_c, 1, 60, 0
1, 2825, Note_on_c, 1, 55, 0
1, 2829, Note_on_c, 0, 64, 0
1, 2832, Note_on_c, 0, 67, 70
1, 2832, Note_on_c, 1, 60, 62
1, 2832, Note_on_c, 1, 55, 62
1, 2844, Note_on_c, 0, 67, 0
1, 2844, Note_on_c, 0, 66, 70
1, 2852, Note_on_c, 1, 60, 0
1, 2852, Note_on_c, 1, 55, 0
1, 2856, Note_on_c, 0, 66, 0
1, 2856, Note_on_c, 0, 64, 70
1, 2868, Note_on_c, 0, 64, 0
1, 2868, Note_on_c, 0, 66, 70
1, 2880, Note_on_c, 0, 66, 0
1, 2880, Note_on_c, 0, 67, 86
1, 2880, Note_on_c, 1, 59, 62
1, 2880, Note_on_c, 1, 55, 62
1, 2900, Note_on_c, 0, 67, 0
1, 2900, Note_on_c, 1, 59, 0
1, 2900, Note_on_c, 1, 55, 0
1, 2928, Note_on_c, 0, 67, 77
1, 2928, Note_on_c, 1, 59, 62
1, 2928, Note_on_c, 1, 55, 62
1, 2948, Note_on_c, 0, 67, 0
1, 2948, Note_on_c, 1, 59, 0
1, 2948, Note_on_c, 1, 55, 0
1, 2976, Note_on_c, 0, 67, 73
1, 2976, Note_on_c, 1, 59, 62
1, 2976, Note_on_c, 1, 55, 62
1, 2996, Note_on_c, 0, 67, 0
1, 2996, Note_on_c, 1, 59, 0
1, 2996, Note_on_c, 1, 55, 0
1, 3024, Note_on_c, 0, 67, 70
1, 3024, Note_on_c, 1, 59, 62
1, 3024, Note_on_c, 1, 55, 62
1, 3113, Note_on_c, 0, 67, 0
1, 3113, Note_on_c, 1, 59, 0
1, 3113, Note_on_c, 1, 55, 0
1, 3120, Note_on_c, 0, 69, 70
1, 3120, Note_on_c, 0, 62, 70
1, 3120, Note_on_c, 1, 54, 62
1, 3140, Note_on_c, 0, 69, 0
1, 3140, Note_on_c, 0, 62, 0
1, 3140, Note_on_c, 1, 54, 0
1, 3168, Note_on_c, 0, 72, 70
1, 3168, Note_on_c, 0, 62, 62
1, 3168, Note_on_c, 1, 57, 62
1, 3180, Note_on_c, 0, 72, 0
1, 3180, Note_on_c, 0, 71, 70
1, 3180, Note_on_c, 1, 57, 0
1, 3180, Note_on_c, 1, 55, 62
1, 3213, Note_on_c, 1, 55, 0
1, 3216, Note_on_c, 0, 71, 0
1, 3216, Note_on_c, 0, 69, 72
1, 3216, Note_on_c, 1, 54, 64
1, 3261, Note_on_c, 0, 69, 0
1, 3261, Note_on_c, 1, 54, 0
1, 3264, Note_on_c, 0, 71, 74
1, 3264, Note_on_c, 1, 55, 67
1, 3301, Note_on_c, 0, 62, 0
1, 3309, Note_on_c, 0, 71, 0
1, 3309, Note_on_c, 1, 55, 0
1, 3312, Note_on_c, 0, 74, 93
1, 3312, Note_on_c, 0, 66, 62
1, 3312, Note_on_c, 0, 62, 62
1, 3312, Note_on_c, 1, 57, 70
1, 3360, Note_on_c, 0, 74, 0
1, 3360, Note_on_c, 0, 72, 75
1, 3401, Note_on_c, 1, 57, 0
1, 3405, Note_on_c, 0, 72, 0
1, 3408, Note_on_c, 0, 71, 74
1, 3408, Note_on_c, 1, 55, 67
1, 3428, Note_on_c, 0, 71, 0
1, 3428, Note_on_c, 1, 55, 0
1, 3445, Note_on_c, 0, 66, 0
1, 3445, Note_on_c, 0, 62, 0
1, 3456, Note_on_c, 0, 71, 89
1, 3456, Note_on_c, 0, 67, 89
1, 3456, Note_on_c, 1, 50, 66
1, 3504, Note_on_c, 0, 71, 0
1, 3504, Note_on_c, 0, 67, 0
1, 3504, Note_on_c, 0, 69, 72
1, 3504, Note_on_c, 0, 66, 72
1, 3504, Note_on_c, 1, 50, 0
1, 3504, Note_on_c, 1, 62, 65
1, 3524, Note_on_c, 0, 69, 0
1, 3524, Note_on_c, 0, 66, 0
1, 3524, Note_on_c, 1, 62, 0
1, 3552, Note_on_c, 0, 69, 71
1, 3552, Note_on_c, 0, 66, 71
1, 3552, Note_on_c, 1, 62, 64
1, 3572, Note_on_c, 0, 69, 0
1, 3572, Note_on_c, 0, 66, 0
1, 3572, Note_on_c, 1, 62, 0
1, 3600, Note_on_c, 0, 69, 86
1, 3600, Note_on_c, 0, 66, 86
1, 3600, Note_on_c, 1, 62, 63
1, 3648, Note_on_c, 1, 62, 0
1, 3648, Note_on_c, 1, 60, 62
1, 3693, Note_on_c, 1, 60, 0
1, 3696, Note_on_c, 0, 69, 0
1, 3696, Note_on_c, 0, 66, 0
1, 3696, Note_on_c, 0, 71, 71
1, 3696, Note_on_c, 0, 68, 71
1, 3696, Note_on_c, 1, 59, 67
1, 3716, Note_on_c, 0, 71, 0
1, 3716, Note_on_c, 0, 68, 0
1, 3716, Note_on_c, 1, 59, 0
1, 3744, Note_on_c, 0, 72, 72
1, 3744, Note_on_c, 0, 69, 72
1, 3744, Note_on_c, 1, 57, 73
1, 3789, Note_on_c, 0, 72, 0
1, 3789, Note_on_c, 0, 69, 0
1, 3792, Note_on_c, 0, 74, 73
1, 3792, Note_on_c, 0, 71, 73
1, 3833, Note_on_c, 1, 57, 0
1, 3837, Note_on_c, 0, 74, 0
1, 3837, Note_on_c, 0, 71, 0
1, 3840, Note_on_c, 0, 76, 74
1, 3840, Note_on_c, 0, 72, 74
1, 3840, Note_on_c, 1, 55, 84
1, 3860, Note_on_c, 0, 76, 0
1, 3860, Note_on_c, 0, 72, 0
1, 3885, Note_on_c, 1, 55, 0
1, 3888, Note_on_c, 0, 76, 91
1, 3888, Note_on_c, 0, 72, 91
1, 3888, Note_on_c, 1, 54, 84
1, 3933, Note_on_c, 1, 54, 0
1, 3936, Note_on_c, 1, 57, 84
1, 3981, Note_on_c, 1, 57, 0
1, 3984, Note_on_c, 0, 76, 0
1, 3984, Note_on_c, 0, 72, 0
1, 3984, Note_on_c, 0, 74, 77
1, 3984, Note_on_c, 0, 69, 62
1, 3984, Note_on_c, 1, 62, 84
1, 3996, Note_on_c, 0, 74, 0
1, 3996, Note_on_c, 0, 72, 77
1, 4008, Note_on_c, 0, 72, 0
1, 4008, Note_on_c, 0, 71, 77
1, 4020, Note_on_c, 0, 71, 0
1, 4020, Note_on_c, 0, 72, 77
1, 4029, Note_on_c, 0, 69, 0
1, 4029, Note_on_c, 1, 62, 0
1, 4032, Note_on_c, 0, 72, 0
1, 4032, Note_on_c, 0, 71, 77
1, 4032, Note_on_c, 0, 67, 77
1, 4032, Note_on_c, 1, 55, 70
1, 4077, Note_on_c, 0, 71, 0
1, 4077, Note_on_c, 0, 67, 0
1, 4080, Note_on_c, 0, 72, 77
1, 4080, Note_on_c, 0, 69, 77
1, 4125, Note_on_c, 0, 72, 0
1, 4125, Note_on_c, 0, 69, 0
1, 4128, Note_on_c, 0, 74, 78
1, 4128, Note_on_c, 0, 71, 78
1, 4128, Note_on_c, 1, 65, 71
1, 4173, Note_on_c, 0, 74, 0
1, 4173, Note_on_c, 0, 71, 0
1, 4173, Note_on_c, 1, 65, 0
1, 4176, Note_on_c, 0, 72, 79
1, 4176, Note_on_c, 0, 67, 68
1, 4176, Note_on_c, 1, 64, 72
1, 4221, Note_on_c, 0, 72, 0
1, 4221, Note_on_c, 1, 64, 0
1, 4224, Note_on_c, 0, 74, 79
1, 4224, Note_on_c, 1, 62, 72
1, 4269, Note_on_c, 0, 74, 0
1, 4269, Note_on_c, 1, 62, 0
1, 4272, Note_on_c, 0, 76, 80
1, 4272, Note_on_c, 1, 60, 73
1, 4297, Note_on_c, 1, 55, 0
1, 4317, Note_on_c, 0, 76, 0
1, 4317, Note_on_c, 1, 60, 0
1, 4320, Note_on_c, 0, 74, 81
1, 4320, Note_on_c, 1, 59, 74
1, 4320, Note_on_c, 1, 55, 73
1, 4340, Note_on_c, 0, 74, 0
1, 4365, Note_on_c, 0, 67, 0
1, 4365, Note_on_c, 1, 59, 0
1, 4365, Note_on_c, 1, 55, 0
1, 4368, Note_on_c, 0, 79, 81
1, 4368, Note_on_c, 1, 59, 90
1, 4368, Note_on_c, 1, 55, 74
1, 4388, Note_on_c, 0, 79, 0
1, 4413, Note_on_c, 1, 55, 0
1, 4416, Note_on_c, 0, 79, 82
1, 4416, Note_on_c, 1, 59, 0
1, 4416, Note_on_c, 1, 57, 75
1, 4416, Note_on_c, 1, 54, 75
1, 4436, Note_on_c, 0, 79, 0
1, 4461, Note_on_c, 1, 57, 0
1, 4461, Note_on_c, 1, 54, 0
1, 4464, Note_on_c, 0, 81, 83
1, 4464, Note_on_c, 1, 55, 76
1, 4464, Note_on_c, 1, 52, 75
1, 4488, Note_on_c, 0, 81, 0
1, 4488, Note_on_c, 0, 79, 83
1, 4509, Note_on_c, 0, 79, 0
1, 4509, Note_on_c, 1, 55, 0
1, 4512, Note_on_c, 0, 78, 84
1, 4512, Note_on_c, 1, 59, 77
1, 4535, Note_on_c, 0, 78, 0
1, 4536, Note_on_c, 0, 76, 83
1, 4553, Note_on_c, 1, 52, 0
1, 4557, Note_on_c, 1, 59, 0
1, 4559, Note_on_c, 0, 76, 0
1, 4560, Note_on_c, 0, 74, 82
1, 4560, Note_on_c, 1, 67, 89
1, 4583, Note_on_c, 0, 74, 0
1, 4584, Note_on_c, 0, 73, 81
1, 4607, Note_on_c, 0, 73, 0
1, 4608, Note_on_c, 0, 76, 81
1, 4608, Note_on_c, 1, 67, 70
1, 4608, Note_on_c, 1, 62, 62
1, 4653, Note_on_c, 1, 67, 0
1, 4656, Note_on_c, 0, 76, 0
1, 4656, Note_on_c, 0, 74, 79
1, 4656, Note_on_c, 1, 66, 70
1, 4701, Note_on_c, 0, 74, 0
1, 4701, Note_on_c, 1, 66, 0
1, 4704, Note_on_c, 0, 74, 78
1, 4704, Note_on_c, 1, 66, 70
1, 4724, Note_on_c, 0, 74, 0
1, 4741, Note_on_c, 1, 62, 0
1, 4749, Note_on_c, 1, 66, 0
1, 4752, Note_on_c, 0, 74, 77
1, 4752, Note_on_c, 1, 66, 70
1, 4841, Note_on_c, 0, 74, 0
1, 4841, Note_on_c, 1, 66, 0
1, 4848, Note_on_c, 0, 79, 93
1, 4848, Note_on_c, 1, 62, 70
1, 4848, Note_on_c, 1, 59, 70
1, 4868, Note_on_c, 0, 79, 0
1, 4868, Note_on_c, 1, 62, 0
1, 4868, Note_on_c, 1, 59, 0
1, 4896, Note_on_c, 0, 79, 93
1, 4896, Note_on_c, 1, 62, 84
1, 4896, Note_on_c, 1, 59, 84
1, 4985, Note_on_c, 1, 62, 0
1, 4985, Note_on_c, 1, 59, 0
1, 4992, Note_on_c, 0, 79, 0
1, 4992, Note_on_c, 0, 83, 77
1, 4992, Note_on_c, 1, 64, 76
1, 4992, Note_on_c, 1, 60, 76
1, 5004, Note_on_c, 0, 83, 0
1, 5004, Note_on_c, 0, 81, 77
1, 5037, Note_on_c, 0, 81, 0
1, 5037, Note_on_c, 1, 64, 0
1, 5037, Note_on_c, 1, 60, 0
1, 5040, Note_on_c, 0, 79, 84
1, 5040, Note_on_c, 1, 62, 73
1, 5040, Note_on_c, 1, 59, 73
1, 5085, Note_on_c, 0, 79, 0
1, 5085, Note_on_c, 1, 62, 0
1, 5085, Note_on_c, 1, 59, 0
1, 5088, Note_on_c, 0, 78, 82
1, 5088, Note_on_c, 1, 60, 69
1, 5088, Note_on_c, 1, 57, 69
1, 5133, Note_on_c, 0, 78, 0
1, 5133, Note_on_c, 1, 60, 0
1, 5133, Note_on_c, 1, 57, 0
1, 5136, Note_on_c, 0, 76, 81
1, 5136, Note_on_c, 1, 59, 65
1, 5136, Note_on_c, 1, 55, 65
1, 5181, Note_on_c, 0, 76, 0
1, 5181, Note_on_c, 1, 59, 0
1, 5181, Note_on_c, 1, 55, 0
1, 5184, Note_on_c, 0, 74, 79
1, 5184, Note_on_c, 1, 57, 62
1, 5184, Note_on_c, 1, 54, 62
1, 5204, Note_on_c, 0, 74, 0
1, 5229, Note_on_c, 1, 57, 0
1, 5229, Note_on_c, 1, 54, 0
1, 5232, Note_on_c, 0, 74, 78
1, 5232, Note_on_c, 1, 57, 65
1, 5232, Note_on_c, 1, 54, 65
1, 5252, Note_on_c, 0, 74, 0
1, 5277, Note_on_c, 1, 57, 0
1, 5277, Note_on_c, 1, 54, 0
1, 5280, Note_on_c, 0, 74, 77
1, 5280, Note_on_c, 1, 57, 69
1, 5280, Note_on_c, 1, 54, 69
1, 5300, Note_on_c, 0, 74, 0
1, 5325, Note_on_c, 1, 57, 0
1, 5325, Note_on_c, 1, 54, 0
1, 5328, Note_on_c, 0, 74, 78
1, 5328, Note_on_c, 1, 54, 73
1, 5328, Note_on_c, 1, 57, 77
1, 5373, Note_on_c, 1, 57, 0
1, 5376, Note_on_c, 1, 59, 79
1, 5421, Note_on_c, 1, 59, 0
1, 5424, Note_on_c, 0, 74, 0
1, 5424, Note_on_c, 0, 75, 82
1, 5424, Note_on_c, 1, 60, 81
1, 5461, Note_on_c, 1, 54, 0
1, 5469, Note_on_c, 0, 75, 0
1, 5469, Note_on_c, 1, 60, 0
1, 5472, Note_on_c, 0, 76, 84
1, 5472, Note_on_c, 1, 55, 84
1, 5517, Note_on_c, 0, 76, 0
1, 5517, Note_on_c, 1, 55, 0
1, 5520, Note_on_c, 0, 79, 84
1, 5520, Note_on_c, 1, 54, 84
1, 5532, Note_on_c, 0, 79, 0
1, 5532, Note_on_c, 0, 78, 84
1, 5544, Note_on_c, 0, 78, 0
1, 5544, Note_on_c, 0, 76, 84
1, 5556, Note_on_c, 0, 76, 0
1, 5556, Note_on_c, 0, 78, 84
1, 5565, Note_on_c, 1, 54, 0
1, 5568, Note_on_c, 0, 78, 0
1, 5568, Note_on_c, 0, 79, 84
1, 5568, Note_on_c, 1, 52, 84
1, 5613, Note_on_c, 0, 79, 0
1, 5613, Note_on_c, 1, 52, 0
1, 5616, Note_on_c, 0, 69, 84
1, 5616, Note_on_c, 1, 57, 84
1, 5616, Note_on_c, 1, 67, 84
1, 5661, Note_on_c, 0, 69, 0
1, 5661, Note_on_c, 1, 67, 0
1, 5664, Note_on_c, 0, 71, 79
1, 5664, Note_on_c, 1, 66, 81
1, 5709, Note_on_c, 0, 71, 0
1, 5709, Note_on_c, 1, 66, 0
1, 5712, Note_on_c, 0, 74, 74
1, 5712, Note_on_c, 1, 64, 79
1, 5724, Note_on_c, 0, 74, 0
1, 5724, Note_on_c, 0, 73, 74
1, 5736, Note_on_c, 0, 73, 0
1, 5736, Note_on_c, 0, 71, 74
1, 5748, Note_on_c, 0, 71, 0
1, 5748, Note_on_c, 0, 73, 74
1, 5749, Note_on_c, 1, 57, 0
1, 5757, Note_on_c, 1, 64, 0
1, 5760, Note_on_c, 0, 73, 0
1, 5760, Note_on_c, 0, 74, 86
1, 5780, Note_on_c, 0, 74, 0
1, 5808, Note_on_c, 1, 54, 70
1, 5808, Note_on_c, 1, 50, 70
1, 5856, Note_on_c, 0, 74, 72
1, 5856, Note_on_c, 1, 54, 0
1, 5856, Note_on_c, 1, 50, 0
1, 5856, Note_on_c, 1, 55, 71
1, 5856, Note_on_c, 1, 52, 71
1, 5876, Note_on_c, 0, 74, 0
1, 5876, Note_on_c, 1, 55, 0
1, 5876, Note_on_c, 1, 52, 0
1, 5904, Note_on_c, 0, 74, 89
1, 5924, Note_on_c, 0, 74, 0
1, 5952, Note_on_c, 1, 57, 74
1, 5952, Note_on_c, 1, 54, 74
1, 6000, Note_on_c, 0, 74, 75
1, 6000, Note_on_c, 1, 57, 0
1, 6000, Note_on_c, 1, 54, 0
1, 6000, Note_on_c, 1, 59, 75
1, 6000, Note_on_c, 1, 55, 75
1, 6020, Note_on_c, 0, 74, 0
1, 6020, Note_on_c, 1, 59, 0
1, 6020, Note_on_c, 1, 55, 0
1, 6048, Note_on_c, 0, 74, 93
1, 6068, Note_on_c, 0, 74, 0
1, 6096, Note_on_c, 1, 60, 75
1, 6096, Note_on_c, 1, 57, 75
1, 6144, Note_on_c, 0, 74, 72
1, 6144, Note_on_c, 1, 60, 0
1, 6144, Note_on_c, 1, 57, 0
1, 6144, Note_on_c, 1, 59, 74
1, 6144, Note_on_c, 1, 55, 74
1, 6164, Note_on_c, 0, 74, 0
1, 6164, Note_on_c, 1, 59, 0
1, 6164, Note_on_c, 1, 55, 0
1, 6192, Note_on_c, 0, 74, 86
1, 6212, Note_on_c, 0, 74, 0
1, 6240, Note_on_c, 1, 57, 72
1, 6240, Note_on_c, 1, 54, 72
1, 6288, Note_on_c, 0, 74, 66
1, 6288, Note_on_c, 1, 57, 0
1, 6288, Note_on_c, 1, 54, 0
1, 6288, Note_on_c, 1, 55, 71
1, 6288, Note_on_c, 1, 52, 71
1, 6308, Note_on_c, 0, 74, 0
1, 6308, Note_on_c, 1, 55, 0
1, 6308, Note_on_c, 1, 52, 0
1, 6336, Note_on_c, 0, 74, 64
1, 6336, Note_on_c, 1, 54, 70
1, 6336, Note_on_c, 1, 50, 70
1, 6356, Note_on_c, 0, 74, 0
1, 6381, Note_on_c, 1, 54, 0
1, 6381, Note_on_c, 1, 50, 0
1, 6384, Note_on_c, 0, 78, 62
1, 6384, Note_on_c, 0, 74, 62
1, 6432, Note_on_c, 0, 78, 0
1, 6432, Note_on_c, 0, 74, 0
1, 6432, Note_on_c, 0, 79, 55
1, 6432, Note_on_c, 0, 76, 55
1, 6432, Note_on_c, 1, 62, 55
1, 6452, Note_on_c, 1, 62, 0
1, 6477, Note_on_c, 0, 79, 0
1, 6477, Note_on_c, 0, 76, 0
1, 6480, Note_on_c, 1, 62, 74
1, 6500, Note_on_c, 1, 62, 0
1, 6528, Note_on_c, 0, 81, 61
1, 6528, Note_on_c, 0, 78, 61
1, 6576, Note_on_c, 0, 81, 0
1, 6576, Note_on_c, 0, 78, 0
1, 6576, Note_on_c, 0, 83, 64
1, 6576, Note_on_c, 0, 79, 64
1, 6576, Note_on_c, 1, 62, 64
1, 6596, Note_on_c, 1, 62, 0
1, 6621, Note_on_c, 0, 83, 0
1, 6621, Note_on_c, 0, 79, 0
1, 6624, Note_on_c, 1, 62, 83
1, 6644, Note_on_c, 1, 62, 0
1, 6672, Note_on_c, 0, 84, 71
1, 6672, Note_on_c, 0, 81, 71
1, 6720, Note_on_c, 0, 84, 0
1, 6720, Note_on_c, 0, 81, 0
1, 6720, Note_on_c, 0, 83, 74
1, 6720, Note_on_c, 0, 79, 74
1, 6720, Note_on_c, 1, 62, 74
1, 6740, Note_on_c, 1, 62, 0
1, 6765, Note_on_c, 0, 83, 0
1, 6765, Note_on_c, 0, 79, 0
1, 6768, Note_on_c, 1, 62, 62
1, 6816, Note_on_c, 0, 81, 80
1, 6816, Note_on_c, 0, 72, 80
1, 6816, Note_on_c, 1, 66, 80
1, 6861, Note_on_c, 1, 66, 0
1, 6864, Note_on_c, 0, 81, 0
1, 6864, Note_on_c, 0, 72, 0
1, 6864, Note_on_c, 0, 79, 84
1, 6864, Note_on_c, 0, 71, 84
1, 6864, Note_on_c, 1, 67, 84
1, 6901, Note_on_c, 1, 62, 0
1, 6909, Note_on_c, 0, 79, 0
1, 6909, Note_on_c, 0, 71, 0
1, 6909, Note_on_c, 1, 67, 0
1, 6912, Tempo, 1200000
1, 6912, Note_on_c, 0, 78, 84
1, 6912, Note_on_c, 0, 72, 84
1, 6912, Note_on_c, 1, 69, 84
1, 6912, Note_on_c, 1, 62, 84
1, 7089, Note_on_c, 0, 78, 0
1, 7089, Note_on_c, 0, 72, 0
1, 7104, Tempo, 705882
1, 7120, Note_on_c, 0, 71, 77
1, 7135, Note_on_c, 0, 71, 0
1, 7136, Note_on_c, 0, 72, 76
1, 7151, Note_on_c, 0, 72, 0
1, 7152, Note_on_c, 0, 74, 76
1, 7164, Note_on_c, 0, 74, 0
1, 7164, Note_on_c, 0, 72, 75
1, 7176, Note_on_c, 0, 72, 0
1, 7176, Note_on_c, 0, 71, 75
1, 7188, Note_on_c, 0, 71, 0
1, 7188, Note_on_c, 0, 69, 74
1, 7193, Note_on_c, 1, 69, 0
1, 7193, Note_on_c, 1, 62, 0
1, 7200, Note_on_c, 0, 69, 0
1, 7200, Note_on_c, 0, 67, 74
1, 7200, Note_on_c, 1, 59, 78
1, 7200, Note_on_c, 1, 55, 78
1, 7289, Note_on_c, 0, 67, 0
1, 7296, Note_on_c, 0, 71, 70
1, 7296, Note_on_c, 1, 59, 0
1, 7296, Note_on_c, 1, 55, 0
1, 7296, Note_on_c, 1, 60, 62
1, 7296, Note_on_c, 1, 55, 62
1, 7308, Note_on_c, 0, 71, 0
1, 7308, Note_on_c, 0, 69, 70
1, 7316, Note_on_c, 1, 60, 0
1, 7316, Note_on_c, 1, 55, 0
1, 7341, Note_on_c, 0, 69, 0
1, 7344, Note_on_c, 0, 62, 70
1, 7344, Note_on_c, 1, 60, 62
1, 7344, Note_on_c, 1, 55, 62
1, 7389, Note_on_c, 0, 62, 0
1, 7392, Note_on_c, 0, 64, 70
1, 7433, Note_on_c, 1, 60, 0
1, 7433, Note_on_c, 1, 55, 0
1, 7437, Note_on_c, 0, 64, 0
1, 7440, Note_on_c, 0, 67, 70
1, 7440, Note_on_c, 1, 60, 62
1, 7440, Note_on_c, 1, 55, 62
1, 7452, Note_on_c, 0, 67, 0
1, 7452, Note_on_c, 0, 66, 70
1, 7460, Note_on_c, 1, 60, 0
1, 7460, Note_on_c, 1, 55, 0
1, 7464, Note_on_c, 0, 66, 0
1, 7464, Note_on_c, 0, 64, 70
1, 7476, Note_on_c, 0, 64, 0
1, 7476, Note_on_c, 0, 66, 70
1, 7488, Note_on_c, 0, 66, 0
1, 7488, Note_on_c, 0, 67, 70
1, 7488, Note_on_c, 1, 59, 62
1, 7488, Note_on_c, 1, 55, 62
1, 7508, Note_on_c, 0, 67, 0
1, 7508, Note_on_c, 1, 59, 0
1, 7508, Note_on_c, 1, 55, 0
1, 7536, Note_on_c, 0, 67, 77
1, 7536, Note_on_c, 1, 59, 62
1, 7536, Note_on_c, 1, 55, 62
1, 7556, Note_on_c, 0, 67, 0
1, 7556, Note_on_c, 1, 59, 0
1, 7556, Note_on_c, 1, 55, 0
1, 7584, Note_on_c, 0, 67, 73
1, 7584, Note_on_c, 1, 59, 62
1, 7584, Note_on_c, 1, 55, 62
1, 7604, Note_on_c, 0, 67, 0
1, 7604, Note_on_c, 1, 59, 0
1, 7604, Note_on_c, 1, 55, 0
1, 7632, Note_on_c, 0, 67, 86
1, 7632, Note_on_c, 1, 59, 62
1, 7632, Note_on_c, 1, 55, 62
1, 7721, Note_on_c, 1, 59, 0
1, 7721, Note_on_c, 1, 55, 0
1, 7728, Note_on_c, 0, 67, 0
1, 7728, Note_on_c, 0, 69, 70
1, 7728, Note_on_c, 0, 62, 70
1, 7728, Note_on_c, 1, 54, 62
1, 7748, Note_on_c, 0, 69, 0
1, 7748, Note_on_c, 0, 62, 0
1, 7748, Note_on_c, 1, 54, 0
1, 7776, Note_on_c, 0, 72, 70
1, 7776, Note_on_c, 0, 62, 62
1, 7776, Note_on_c, 1, 57, 62
1, 7788, Note_on_c, 0, 72, 0
1, 7788, Note_on_c, 0, 71, 70
1, 7788, Note_on_c, 1, 57, 0
1, 7788, Note_on_c, 1, 55, 62
1, 7821, Note_on_c, 1, 55, 0
1, 7824, Note_on_c, 0, 71, 0
1, 7824, Note_on_c, 0, 69, 72
1, 7824, Note_on_c, 1, 54, 64
1, 7869, Note_on_c, 0, 69, 0
1, 7869, Note_on_c, 1, 54, 0
1, 7872, Note_on_c, 0, 71, 74
1, 7872, Note_on_c, 1, 55, 67
1, 7909, Note_on_c, 0, 62, 0
1, 7917, Note_on_c, 0, 71, 0
1, 7917, Note_on_c, 1, 55, 0
1, 7920, Note_on_c, 0, 74, 93
1, 7920, Note_on_c, 0, 66, 66
1, 7920, Note_on_c, 0, 62, 66
1, 7920, Note_on_c, 1, 57, 70
1, 7968, Note_on_c, 0, 74, 0
1, 7968, Note_on_c, 0, 72, 75
1, 8009, Note_on_c, 1, 57, 0
1, 8013, Note_on_c, 0, 72, 0
1, 8016, Note_on_c, 0, 71, 74
1, 8016, Note_on_c, 1, 55, 64
1, 8036, Note_on_c, 0, 71, 0
1, 8036, Note_on_c, 1, 55, 0
1, 8053, Note_on_c, 0, 66, 0
1, 8053, Note_on_c, 0, 62, 0
1, 8064, Note_on_c, 0, 71, 89
1, 8064, Note_on_c, 0, 67, 89
1, 8064, Note_on_c, 1, 50, 70
1, 8112, Note_on_c, 0, 71, 0
1, 8112, Note_on_c, 0, 67, 0
1, 8112, Note_on_c, 0, 69, 72
1, 8112, Note_on_c, 0, 66, 72
1, 8112, Note_on_c, 1, 50, 0
1, 8112, Note_on_c, 1, 62, 72
1, 8132, Note_on_c, 0, 69, 0
1, 8132, Note_on_c, 0, 66, 0
1, 8157, Note_on_c, 1, 62, 0
1, 8160, Note_on_c, 0, 69, 71
1, 8160, Note_on_c, 0, 66, 71
1, 8160, Note_on_c, 1, 62, 74
1, 8180, Note_on_c, 0, 69, 0
1, 8180, Note_on_c, 0, 66, 0
1, 8180, Note_on_c, 1, 62, 0
1, 8208, Note_on_c, 0, 69, 86
1, 8208, Note_on_c, 0, 66, 86
1, 8208, Note_on_c, 1, 62, 93
1, 8256, Note_on_c, 1, 62, 0
1, 8256, Note_on_c, 1, 60, 74
1, 8301, Note_on_c, 1, 60, 0
1, 8304, Note_on_c, 0, 69, 0
1, 8304, Note_on_c, 0, 66, 0
1, 8304, Note_on_c, 0, 71, 75
1, 8304, Note_on_c, 0, 68, 75
1, 8304, Note_on_c, 1, 59, 72
1, 8324, Note_on_c, 0, 71, 0
1, 8324, Note_on_c, 0, 68, 0
1, 8324, Note_on_c, 1, 59, 0
1, 8352, Note_on_c, 0, 72, 78
1, 8352, Note_on_c, 0, 69, 78
1, 8352, Note_on_c, 1, 57, 70
1, 8397, Note_on_c, 0, 72, 0
1, 8397, Note_on_c, 0, 69, 0
1, 8400, Note_on_c, 0, 74, 81
1, 8400, Note_on_c, 0, 71, 81
1, 8441, Note_on_c, 1, 57, 0
1, 8445, Note_on_c, 0, 74, 0
1, 8445, Note_on_c, 0, 71, 0
1, 8448, Note_on_c, 0, 76, 84
1, 8448, Note_on_c, 0, 72, 84
1, 8448, Note_on_c, 1, 55, 70
1, 8468, Note_on_c, 0, 76, 0
1, 8468, Note_on_c, 0, 72, 0
1, 8493, Note_on_c, 1, 55, 0
1, 8496, Note_on_c, 0, 76, 100
1, 8496, Note_on_c, 0, 72, 100
1, 8496, Note_on_c, 1, 54, 70
1, 8541, Note_on_c, 1, 54, 0
1, 8544, Note_on_c, 1, 57, 72
1, 8589, Note_on_c, 1, 57, 0
1, 8592, Note_on_c, 0, 76, 0
1, 8592, Note_on_c, 0, 72, 0
1, 8592, Note_on_c, 0, 74, 80
1, 8592, Note_on_c, 0, 69, 70
1, 8592, Note_on_c, 1, 62, 74
1, 8604, Note_on_c, 0, 74, 0
1, 8604, Note_on_c, 0, 72, 80
1, 8616, Note_on_c, 0, 72, 0
1, 8616, Note_on_c, 0, 71, 80
1, 8628, Note_on_c, 0, 71, 0
1, 8628, Note_on_c, 0, 72, 80
1, 8637, Note_on_c, 0, 69, 0
1, 8637, Note_on_c, 1, 62, 0
1, 8640, Note_on_c, 0, 72, 0
1, 8640, Note_on_c, 0, 71, 78
1, 8640, Note_on_c, 0, 67, 78
1, 8640, Note_on_c, 1, 55, 77
1, 8685, Note_on_c, 0, 71, 0
1, 8685, Note_on_c, 0, 67, 0
1, 8688, Note_on_c, 0, 72, 77
1, 8688, Note_on_c, 0, 69, 77
1, 8733, Note_on_c, 0, 72, 0
1, 8733, Note_on_c, 0, 69, 0
1, 8736, Note_on_c, 0, 74, 80
1, 8736, Note_on_c, 0, 71, 80
1, 8773, Note_on_c, 1, 55, 0
1, 8781, Note_on_c, 0, 74, 0
1, 8781, Note_on_c, 0, 71, 0
1, 8784, Note_on_c, 0, 73, 84
1, 8784, Note_on_c, 0, 71, 70
1, 8784, Note_on_c, 1, 43, 77
1, 8796, Note_on_c, 0, 73, 0
1, 8796, Note_on_c, 0, 74, 84
1, 8808, Note_on_c, 0, 74, 0
1, 8808, Note_on_c, 0, 76, 84
1, 8820, Note_on_c, 0, 76, 0
1, 8820, Note_on_c, 0, 74, 100
1, 8829, Note_on_c, 1, 43, 0
1, 8832, Note_on_c, 1, 47, 77
1, 8873, Note_on_c, 0, 71, 0
1, 8877, Note_on_c, 1, 47, 0
1, 8880, Note_on_c, 0, 74, 0
1, 8880, Note_on_c, 0, 69, 77
1, 8880, Note_on_c, 0, 59, 70
1, 8880, Note_on_c, 1, 52, 77
1, 8892, Note_on_c, 0, 69, 0
1, 8892, Note_on_c, 0, 67, 77
1, 8904, Note_on_c, 0, 67, 0
1, 8904, Note_on_c, 0, 66, 77
1, 8916, Note_on_c, 0, 66, 0
1, 8916, Note_on_c, 0, 67, 77
1, 8925, Note_on_c, 0, 59, 0
1, 8925, Note_on_c, 1, 52, 0
1, 8928, Note_on_c, 0, 67, 0
1, 8928, Note_on_c, 0, 69, 77
1, 8928, Note_on_c, 0, 60, 70
1, 8928, Note_on_c, 1, 48, 77
1, 8973, Note_on_c, 0, 69, 0
1, 8973, Note_on_c, 0, 60, 0
1, 8976, Note_on_c, 0, 72, 76
1, 8976, Note_on_c, 0, 64, 69
1, 9021, Note_on_c, 0, 72, 0
1, 9021, Note_on_c, 0, 64, 0
1, 9024, Note_on_c, 0, 71, 75
1, 9024, Note_on_c, 0, 62, 68
1, 9061, Note_on_c, 1, 48, 0
1, 9069, Note_on_c, 0, 71, 0
1, 9069, Note_on_c, 0, 62, 0
1, 9072, Note_on_c, 0, 71, 74
1, 9072, Note_on_c, 0, 60, 68
1, 9072, Note_on_c, 1, 50, 73
1, 9084, Note_on_c, 0, 71, 0
1, 9084, Note_on_c, 0, 69, 74
1, 9096, Note_on_c, 0, 69, 0
1, 9096, Note_on_c, 0, 68, 74
1, 9108, Note_on_c, 0, 68, 0
1, 9108, Note_on_c, 0, 69, 74
1, 9117, Note_on_c, 0, 60, 0
1, 9120, Note_on_c, 0, 69, 0
1, 9120, Note_on_c, 0, 67, 73
1, 9120, Note_on_c, 0, 59, 67
1, 9165, Note_on_c, 0, 67, 0
1, 9165, Note_on_c, 0, 59, 0
1, 9168, Note_on_c, 0, 67, 73
1, 9168, Note_on_c, 0, 57, 66
1, 9180, Note_on_c, 0, 67, 0
1, 9180, Note_on_c, 0, 66, 73
1, 9192, Note_on_c, 0, 66, 0
1, 9192, Note_on_c, 0, 64, 73
1, 9204, Note_on_c, 0, 64, 0
1, 9204, Note_on_c, 0, 66, 73
1, 9205, Note_on_c, 1, 50, 0
1, 9213, Note_on_c, 0, 57, 0
1, 9216, Note_on_c, 0, 66, 0
1, 9216, Note_on_c, 0, 69, 72
1, 9216, Note_on_c, 0, 60, 72
1, 9216, Note_on_c, 1, 43, 70
1, 9261, Note_on_c, 1, 43, 0
1, 9264, Note_on_c, 0, 69, 0
1, 9264, Note_on_c, 0, 60, 0
1, 9264, Note_on_c, 0, 67, 71
1, 9264, Note_on_c, 0, 59, 71
1, 9264, Note_on_c, 1, 47, 70
1, 9309, Note_on_c, 0, 67, 0
1, 9309, Note_on_c, 0, 59, 0
1, 9309, Note_on_c, 1, 47, 0
1, 9312, Note_on_c, 0, 67, 70
1, 9312, Note_on_c, 0, 59, 70
1, 9312, Note_on_c, 1, 50, 70
1, 9332, Note_on_c, 0, 67, 0
1, 9332, Note_on_c, 0, 59, 0
1, 9357, Note_on_c, 1, 50, 0
1, 9360, Note_on_c, 0, 67, 86
1, 9360, Note_on_c, 0, 59, 86
1, 9360, Note_on_c, 1, 55, 70
1, 9449, Note_on_c, 1, 55, 0
1, 9456, Note_on_c, 0, 67, 0
1, 9456, Note_on_c, 0, 59, 0
1, 9456, Note_on_c, 0, 79, 100
1, 9456, Note_on_c, 1, 62, 77
1, 9456, Note_on_c, 1, 59, 77
1, 9476, Note_on_c, 0, 79, 0
1, 9476, Note_on_c, 1, 62, 0
1, 9476, Note_on_c, 1, 59, 0
1, 9504, Note_on_c, 0, 79, 100
1, 9504, Note_on_c, 1, 62, 84
1, 9504, Note_on_c, 1, 59, 84
1, 9593, Note_on_c, 1, 62, 0
1, 9593, Note_on_c, 1, 59, 0
1, 9600, Note_on_c, 0, 79, 0
1, 9600, Note_on_c, 0, 83, 84
1, 9600, Note_on_c, 1, 64, 76
1, 9600, Note_on_c, 1, 60, 76
1, 9612, Note_on_c, 0, 83, 0
1, 9612, Note_on_c, 0, 81, 84
1, 9645, Note_on_c, 0, 81, 0
1, 9645, Note_on_c, 1, 64, 0
1, 9645, Note_on_c, 1, 60, 0
1, 9648, Note_on_c, 0, 79, 84
1, 9648, Note_on_c, 1, 62, 73
1, 9648, Note_on_c, 1, 59, 73
1, 9693, Note_on_c, 0, 79, 0
1, 9693, Note_on_c, 1, 62, 0
1, 9693, Note_on_c, 1, 59, 0
1, 9696, Note_on_c, 0, 78, 82
1, 9696, Note_on_c, 1, 60, 69
1, 9696, Note_on_c, 1, 57, 69
1, 9741, Note_on_c, 0, 78, 0
1, 9741, Note_on_c, 1, 60, 0
1, 9741, Note_on_c, 1, 57, 0
1, 9744, Note_on_c, 0, 76, 81
1, 9744, Note_on_c, 1, 59, 65
1, 9744, Note_on_c, 1, 55, 65
1, 9789, Note_on_c, 0, 76, 0
1, 9789, Note_on_c, 1, 59, 0
1, 9789, Note_on_c, 1, 55, 0
1, 9792, Note_on_c, 0, 74, 79
1, 9792, Note_on_c, 1, 57, 62
1, 9792, Note_on_c, 1, 54, 62
1, 9812, Note_on_c, 0, 74, 0
1, 9837, Note_on_c, 1, 57, 0
1, 9837, Note_on_c, 1, 54, 0
1, 9840, Note_on_c, 0, 74, 78
1, 9840, Note_on_c, 1, 57, 65
1, 9840, Note_on_c, 1, 54, 65
1, 9860, Note_on_c, 0, 74, 0
1, 9885, Note_on_c, 1, 57, 0
1, 9885, Note_on_c, 1, 54, 0
1, 9888, Note_on_c, 0, 74, 77
1, 9888, Note_on_c, 1, 57, 69
1, 9888, Note_on_c, 1, 54, 69
1, 9908, Note_on_c, 0, 74, 0
1, 9933, Note_on_c, 1, 57, 0
1, 9933, Note_on_c, 1, 54, 0
1, 9936, Note_on_c, 0, 74, 78
1, 9936, Note_on_c, 1, 54, 73
1, 9936, Note_on_c, 1, 57, 77
1, 9981, Note_on_c, 1, 57, 0
1, 9984, Note_on_c, 1, 59, 79
1, 10029, Note_on_c, 1, 59, 0
1, 10032, Note_on_c, 0, 74, 0
1, 10032, Note_on_c, 0, 75, 82
1, 10032, Note_on_c, 1, 60, 81
1, 10069, Note_on_c, 1, 54, 0
1, 10077, Note_on_c, 0, 75, 0
1, 10077, Note_on_c, 1, 60, 0
1, 10080, Note_on_c, 0, 76, 84
1, 10080, Note_on_c, 1, 55, 84
1, 10125, Note_on_c, 0, 76, 0
1, 10125, Note_on_c, 1, 55, 0
1, 10128, Note_on_c, 0, 79, 84
1, 10128, Note_on_c, 1, 54, 84
1, 10140, Note_on_c, 0, 79, 0
1, 10140, Note_on_c, 0, 78, 84
1, 10152, Note_on_c, 0, 78, 0
1, 10152, Note_on_c, 0, 76, 84
1, 10164, Note_on_c, 0, 76, 0
1, 10164, Note_on_c, 0, 78, 84
1, 10173, Note_on_c, 1, 54, 0
1, 10176, Note_on_c, 0, 78, 0
1, 10176, Note_on_c, 0, 79, 84
1, 10176, Note_on_c, 1, 52, 84
1, 10221, Note_on_c, 0, 79, 0
1, 10221, Note_on_c, 1, 52, 0
1, 10224, Note_on_c, 0, 69, 84
1, 10224, Note_on_c, 1, 57, 84
1, 10224, Note_on_c, 1, 67, 84
1, 10269, Note_on_c, 0, 69, 0
1, 10269, Note_on_c, 1, 67, 0
1, 10272, Note_on_c, 0, 71, 79
1, 10272, Note_on_c, 1, 66, 81
1, 10317, Note_on_c, 0, 71, 0
1, 10317, Note_on_c, 1, 66, 0
1, 10320, Note_on_c, 0, 74, 74
1, 10320, Note_on_c, 1, 64, 79
1, 10332, Note_on_c, 0, 74, 0
1, 10332, Note_on_c, 0, 73, 74
1, 10344, Note_on_c, 0, 73, 0
1, 10344, Note_on_c, 0, 71, 74
1, 10356, Note_on_c, 0, 71, 0
1, 10356, Note_on_c, 0, 73, 74
1, 10357, Note_on_c, 1, 57, 0
1, 10365, Note_on_c, 1, 64, 0
1, 10368, Note_on_c, 0, 73, 0
1, 10368, Note_on_c, 0, 74, 86
1, 10388, Note_on_c, 0, 74, 0
1, 10416, Note_on_c, 1, 54, 70
1, 10416, Note_on_c, 1, 50, 70
1, 10464, Note_on_c, 0, 74, 72
1, 10464, Note_on_c, 1, 54, 0
1, 10464, Note_on_c, 1, 50, 0
1, 10464, Note_on_c, 1, 55, 71
1, 10464, Note_on_c, 1, 52, 71
1, 10484, Note_on_c, 0, 74, 0
1, 10484, Note_on_c, 1, 55, 0
1, 10484, Note_on_c, 1, 52, 0
1, 10512, Note_on_c, 0, 74, 89
1, 10532, Note_on_c, 0, 74, 0
1, 10560, Note_on_c, 1, 57, 74
1, 10560, Note_on_c, 1, 54, 74
1, 10608, Note_on_c, 0, 74, 75
1, 10608, Note_on_c, 1, 57, 0
1, 10608, Note_on_c, 1, 54, 0
1, 10608, Note_on_c, 1, 59, 75
1, 10608, Note_on_c, 1, 55, 75
1, 10628, Note_on_c, 0, 74, 0
1, 10628, Note_on_c, 1, 59, 0
1, 10628, Note_on_c, 1, 55, 0
1, 10656, Note_on_c, 0, 74, 93
1, 10676, Note_on_c, 0, 74, 0
1, 10704, Note_on_c, 1, 60, 75
1, 10704, Note_on_c, 1, 57, 75
1, 10752, Note_on_c, 0, 74, 72
1, 10752, Note_on_c, 1, 60, 0
1, 10752, Note_on_c, 1, 57, 0
1, 10752, Note_on_c, 1, 59, 74
1, 10752, Note_on_c, 1, 55, 74
1, 10772, Note_on_c, 0, 74, 0
1, 10772, Note_on_c, 1, 59, 0
1, 10772, Note_on_c, 1, 55, 0
1, 10800, Note_on_c, 0, 74, 86
1, 10820, Note_on_c, 0, 74, 0
1, 10848, Note_on_c, 1, 57, 72
1, 10848, Note_on_c, 1, 54, 72
1, 10896, Note_on_c, 0, 74, 66
1, 10896, Note_on_c, 1, 57, 0
1, 10896, Note_on_c, 1, 54, 0
1, 10896, Note_on_c, 1, 55, 71
1, 10896, Note_on_c, 1, 52, 71
1, 10916, Note_on_c, 0, 74, 0
1, 10916, Note_on_c, 1, 55, 0
1, 10916, Note_on_c, 1, 52, 0
1, 10944, Note_on_c, 0, 74, 64
1, 10944, Note_on_c, 1, 54, 70
1, 10944, Note_on_c, 1, 50, 70
1, 10964, Note_on_c, 0, 74, 0
1, 10989, Note_on_c, 1, 54, 0
1, 10989, Note_on_c, 1, 50, 0
1, 10992, Note_on_c, 0, 78, 62
1, 10992, Note_on_c, 0, 74, 62
1, 11040, Note_on_c, 0, 78, 0
1, 11040, Note_on_c, 0, 74, 0
1, 11040, Note_on_c, 0, 79, 55
1, 11040, Note_on_c, 0, 76, 55
1, 11040, Note_on_c, 1, 62, 55
1, 11060, Note_on_c, 1, 62, 0
1, 11085, Note_on_c, 0, 79, 0
1, 11085, Note_on_c, 0, 76, 0
1, 11088, Note_on_c, 1, 62, 74
1, 11108, Note_on_c, 1, 62, 0
1, 11136, Note_on_c, 0, 81, 61
1, 11136, Note_on_c, 0, 78, 61
1, 11184, Note_on_c, 0, 81, 0
1, 11184, Note_on_c, 0, 78, 0
1, 11184, Note_on_c, 0, 83, 64
1, 11184, Note_on_c, 0, 79, 64
1, 11184, Note_on_c, 1, 62, 64
1, 11204, Note_on_c, 1, 62, 0
1, 11229, Note_on_c, 0, 83, 0
1, 11229, Note_on_c, 0, 79, 0
1, 11232, Note_on_c, 1, 62, 83
1, 11252, Note_on_c, 1, 62, 0
1, 11280, Note_on_c, 0, 84, 71
1, 11280, Note_on_c, 0, 81, 71
1, 11328, Note_on_c, 0, 84, 0
1, 11328, Note_on_c, 0, 81, 0
1, 11328, Note_on_c, 0, 83, 74
1, 11328, Note_on_c, 0, 79, 74
1, 11328, Note_on_c, 1, 62, 74
1, 11348, Note_on_c, 1, 62, 0
1, 11373, Note_on_c, 0, 83, 0
1, 11373, Note_on_c, 0, 79, 0
1, 11376, Note_on_c, 1, 62, 62
1, 11424, Note_on_c, 0, 81, 80
1, 11424, Note_on_c, 0, 72, 80
1, 11424, Note_on_c, 1, 66, 80
1, 11469, Note_on_c, 1, 66, 0
1, 11472, Note_on_c, 0, 81, 0
1, 11472, Note_on_c, 0, 72, 0
1, 11472, Note_on_c, 0, 79, 84
1, 11472, Note_on_c, 0, 71, 84
1, 11472, Note_on_c, 1, 67, 84
1, 11509, Note_on_c, 1, 62, 0
1, 11517, Note_on_c, 0, 79, 0
1, 11517, Note_on_c, 0, 71, 0
1, 11517, Note_on_c, 1, 67, 0
1, 11520, Tempo, 1200000
1, 11520, Note_on_c, 0, 78, 84
1, 11520, Note_on_c, 0, 72, 84
1, 11520, Note_on_c, 1, 69, 84
1, 11520, Note_on_c, 1, 62, 84
1, 11697, Note_on_c, 0, 78, 0
1, 11697, Note_on_c, 0, 72, 0
1, 11712, Tempo, 705882
1, 11728, Note_on_c, 0, 71, 77
1, 11743, Note_on_c, 0, 71, 0
1, 11744, Note_on_c, 0, 72, 76
1, 11759, Note_on_c, 0, 72, 0
1, 11760, Note_on_c, 0, 74, 76
1, 11772, Note_on_c, 0, 74, 0
1, 11772, Note_on_c, 0, 72, 75
1, 11784, Note_on_c, 0, 72, 0
1, 11784, Note_on_c, 0, 71, 75
1, 11796, Note_on_c, 0, 71, 0
1, 11796, Note_on_c, 0, 69, 74
1, 11801, Note_on_c, 1, 69, 0
1, 11801, Note_on_c, 1, 62, 0
1, 11808, Note_on_c, 0, 69, 0
1, 11808, Note_on_c, 0, 67, 74
1, 11808, Note_on_c, 1, 59, 78
1, 11808, Note_on_c, 1, 55, 78
1, 11897, Note_on_c, 0, 67, 0
1, 11904, Note_on_c, 0, 71, 70
1, 11904, Note_on_c, 1, 59, 0
1, 11904, Note_on_c, 1, 55, 0
1, 11904, Note_on_c, 1, 60, 62
1, 11904, Note_on_c, 1, 55, 62
1, 11916, Note_on_c, 0, 71, 0
1, 11916, Note_on_c, 0, 69, 70
1, 11924, Note_on_c, 1, 60, 0
1, 11924, Note_on_c, 1, 55, 0
1, 11949, Note_on_c, 0, 69, 0
1, 11952, Note_on_c, 0, 62, 70
1, 11952, Note_on_c, 1, 60, 62
1, 11952, Note_on_c, 1, 55, 62
1, 11997, Note_on_c, 0, 62, 0
1, 12000, Note_on_c, 0, 64, 70
1, 12041, Note_on_c, 1, 60, 0
1, 12041, Note_on_c, 1, 55, 0
1, 12045, Note_on_c, 0, 64, 0
1, 12048, Note_on_c, 0, 67, 70
1, 12048, Note_on_c, 1, 60, 62
1, 12048, Note_on_c, 1, 55, 62
1, 12060, Note_on_c, 0, 67, 0
1, 12060, Note_on_c, 0, 66, 70
1, 12068, Note_on_c, 1, 60, 0
1, 12068, Note_on_c, 1, 55, 0
1, 12072, Note_on_c, 0, 66, 0
1, 12072, Note_on_c, 0, 64, 70
1, 12084, Note_on_c, 0, 64, 0
1, 12084, Note_on_c, 0, 66, 70
1, 12096, Note_on_c, 0, 66, 0
1, 12096, Note_on_c, 0, 67, 70
1, 12096, Note_on_c, 1, 59, 62
1, 12096, Note_on_c, 1, 55, 62
1, 12116, Note_on_c, 0, 67, 0
1, 12116, Note_on_c, 1, 59, 0
1, 12116, Note_on_c, 1, 55, 0
1, 12144, Note_on_c, 0, 67, 77
1, 12144, Note_on_c, 1, 59, 62
1, 12144, Note_on_c, 1, 55, 62
1, 12164, Note_on_c, 0, 67, 0
1, 12164, Note_on_c, 1, 59, 0
1, 12164, Note_on_c, 1, 55, 0
1, 12192, Note_on_c, 0, 67, 73
1, 12192, Note_on_c, 1, 59, 62
1, 12192, Note_on_c, 1, 55, 62
1, 12212, Note_on_c, 0, 67, 0
1, 12212, Note_on_c, 1, 59, 0
1, 12212, Note_on_c, 1, 55, 0
1, 12240, Note_on_c, 0, 67, 86
1, 12240, Note_on_c, 1, 59, 62
1, 12240, Note_on_c, 1, 55, 62
1, 12329, Note_on_c, 1, 59, 0
1, 12329, Note_on_c, 1, 55, 0
1, 12336, Note_on_c, 0, 67, 0
1, 12336, Note_on_c, 0, 69, 70
1, 12336, Note_on_c, 0, 62, 70
1, 12336, Note_on_c, 1, 54, 62
1, 12356, Note_on_c, 0, 69, 0
1, 12356, Note_on_c, 0, 62, 0
1, 12356, Note_on_c, 1, 54, 0
1, 12384, Note_on_c, 0, 72, 70
1, 12384, Note_on_c, 0, 62, 62
1, 12384, Note_on_c, 1, 57, 62
1, 12396, Note_on_c, 0, 72, 0
1, 12396, Note_on_c, 0, 71, 70
1, 12396, Note_on_c, 1, 57, 0
1, 12396, Note_on_c, 1, 55, 62
1, 12429, Note_on_c, 1, 55, 0
1, 12432, Note_on_c, 0, 71, 0
1, 12432, Note_on_c, 0, 69, 72
1, 12432, Note_on_c, 1, 54, 64
1, 12477, Note_on_c, 0, 69, 0
1, 12477, Note_on_c, 1, 54, 0
1, 12480, Note_on_c, 0, 71, 74
1, 12480, Note_on_c, 1, 55, 67
1, 12517, Note_on_c, 0, 62, 0
1, 12525, Note_on_c, 0, 71, 0
1, 12525, Note_on_c, 1, 55, 0
1, 12528, Note_on_c, 0, 74, 93
1, 12528, Note_on_c, 0, 66, 66
1, 12528, Note_on_c, 0, 62, 66
1, 12528, Note_on_c, 1, 57, 70
1, 12576, Note_on_c, 0, 74, 0
1, 12576, Note_on_c, 0, 72, 75
1, 12617, Note_on_c, 1, 57, 0
1, 12621, Note_on_c, 0, 72, 0
1, 12624, Note_on_c, 0, 71, 74
1, 12624, Note_on_c, 1, 55, 64
1, 12644, Note_on_c, 0, 71, 0
1, 12644, Note_on_c, 1, 55, 0
1, 12661, Note_on_c, 0, 66, 0
1, 12661, Note_on_c, 0, 62, 0
1, 12672, Note_on_c, 0, 71, 89
1, 12672, Note_on_c, 0, 67, 89
1, 12672, Note_on_c, 1, 50, 70
1, 12720, Note_on_c, 0, 71, 0
1, 12720, Note_on_c, 0, 67, 0
1, 12720, Note_on_c, 0, 69, 72
1, 12720, Note_on_c, 0, 66, 72
1, 12720, Note_on_c, 1, 50, 0
1, 12720, Note_on_c, 1, 62, 72
1, 12740, Note_on_c, 0, 69, 0
1, 12740, Note_on_c, 0, 66, 0
1, 12765, Note_on_c, 1, 62, 0
1, 12768, Note_on_c, 0, 69, 71
1, 12768, Note_on_c, 0, 66, 71
1, 12768, Note_on_c, 1, 62, 74
1, 12788, Note_on_c, 0, 69, 0
1, 12788, Note_on_c, 0, 66, 0
1, 12788, Note_on_c, 1, 62, 0
1, 12816, Note_on_c, 0, 69, 86
1, 12816, Note_on_c, 0, 66, 86
1, 12816, Note_on_c, 1, 62, 93
1, 12864, Note_on_c, 1, 62, 0
1, 12864, Note_on_c, 1, 60, 74
1, 12909, Note_on_c, 1, 60, 0
1, 12912, Note_on_c, 0, 69, 0
1, 12912, Note_on_c, 0, 66, 0
1, 12912, Note_on_c, 0, 71, 75
1, 12912, Note_on_c, 0, 68, 75
1, 12912, Note_on_c, 1, 59, 72
1, 12932, Note_on_c, 0, 71, 0
1, 12932, Note_on_c, 0, 68, 0
1, 12932, Note_on_c, 1, 59, 0
1, 12960, Note_on_c, 0, 72, 78
1, 12960, Note_on_c, 0, 69, 78
1, 12960, Note_on_c, 1, 57, 70
1, 13005, Note_on_c, 0, 72, 0
1, 13005, Note_on_c, 0, 69, 0
1, 13008, Note_on_c, 0, 74, 81
1, 13008, Note_on_c, 0, 71, 81
1, 13049, Note_on_c, 1, 57, 0
1, 13053, Note_on_c, 0, 74, 0
1, 13053, Note_on_c, 0, 71, 0
1, 13056, Note_on_c, 0, 76, 84
1, 13056, Note_on_c, 0, 72, 84
1, 13056, Note_on_c, 1, 55, 70
1, 13076, Note_on_c, 0, 76, 0
1, 13076, Note_on_c, 0, 72, 0
1, 13101, Note_on_c, 1, 55, 0
1, 13104, Note_on_c, 0, 76, 100
1, 13104, Note_on_c, 0, 72, 100
1, 13104, Note_on_c, 1, 54, 70
1, 13149, Note_on_c, 1, 54, 0
1, 13152, Note_on_c, 1, 57, 72
1, 13197, Note_on_c, 1, 57, 0
1, 13200, Note_on_c, 0, 76, 0
1, 13200, Note_on_c, 0, 72, 0
1, 13200, Note_on_c, 0, 74, 80
1, 13200, Note_on_c, 0, 69, 70
1, 13200, Note_on_c, 1, 62, 74
1, 13212, Note_on_c, 0, 74, 0
1, 13212, Note_on_c, 0, 72, 80
1, 13224, Note_on_c, 0, 72, 0
1, 13224, Note_on_c, 0, 71, 80
1, 13236, Note_on_c, 0, 71, 0
1, 13236, Note_on_c, 0, 72, 80
1, 13245, Note_on_c, 0, 69, 0
1, 13245, Note_on_c, 1, 62, 0
1, 13248, Note_on_c, 0, 72, 0
1, 13248, Note_on_c, 0, 71, 78
1, 13248, Note_on_c, 0, 67, 78
1, 13248, Note_on_c, 1, 55, 77
1, 13293, Note_on_c, 0, 71, 0
1, 13293, Note_on_c, 0, 67, 0
1, 13296, Note_on_c, 0, 72, 77
1, 13296, Note_on_c, 0, 69, 77
1, 13341, Note_on_c, 0, 72, 0
1, 13341, Note_on_c, 0, 69, 0
1, 13344, Note_on_c, 0, 74, 80
1, 13344, Note_on_c, 0, 71, 80
1, 13381, Note_on_c, 1, 55, 0
1, 13389, Note_on_c, 0, 74, 0
1, 13389, Note_on_c, 0, 71, 0
1, 13392, Note_on_c, 0, 73, 84
1, 13392, Note_on_c, 0, 71, 70
1, 13392, Note_on_c, 1, 43, 77
1, 13404, Note_on_c, 0, 73, 0
1, 13404, Note_on_c, 0, 74, 84
1, 13416, Note_on_c, 0, 74, 0
1, 13416, Note_on_c, 0, 76, 84
1, 13428, Note_on_c, 0, 76, 0
1, 13428, Note_on_c, 0, 74, 100
1, 13437, Note_on_c, 1, 43, 0
1, 13440, Note_on_c, 1, 47, 77
1, 13481, Note_on_c, 0, 71, 0
1, 13485, Note_on_c, 1, 47, 0
1, 13488, Note_on_c, 0, 74, 0
1, 13488, Note_on_c, 0, 69, 77
1, 13488, Note_on_c, 0, 59, 70
1, 13488, Note_on_c, 1, 52, 77
1, 13500, Note_on_c, 0, 69, 0
1, 13500, Note_on_c, 0, 67, 77
1, 13512, Note_on_c, 0, 67, 0
1, 13512, Note_on_c, 0, 66, 77
1, 13524, Note_on_c, 0, 66, 0
1, 13524, Note_on_c, 0, 67, 77
1, 13533, Note_on_c, 0, 59, 0
1, 13533, Note_on_c, 1, 52, 0
1, 13536, Note_on_c, 0, 67, 0
1, 13536, Note_on_c, 0, 69, 77
1, 13536, Note_on_c, 0, 60, 70
1, 13536, Note_on_c, 1, 48, 77
1, 13581, Note_on_c, 0, 69, 0
1, 13581, Note_on_c, 0, 60, 0
1, 13584, Note_on_c, 0, 72, 76
1, 13584, Note_on_c, 0, 64, 69
1, 13629, Note_on_c, 0, 72, 0
1, 13629, Note_on_c, 0, 64, 0
1, 13632, Note_on_c, 0, 71, 75
1, 13632, Note_on_c, 0, 62, 68
1, 13669, Note_on_c, 1, 48, 0
1, 13677, Note_on_c, 0, 71, 0
1, 13677, Note_on_c, 0, 62, 0
1, 13680, Note_on_c, 0, 71, 74
1, 13680, Note_on_c, 0, 60, 68
1, 13680, Note_on_c, 1, 50, 73
1, 13692, Note_on_c, 0, 71, 0
1, 13692, Note_on_c, 0, 69, 74
1, 13704, Note_on_c, 0, 69, 0
1, 13704, Note_on_c, 0, 68, 74
1, 13716, Note_on_c, 0, 68, 0
1, 13716, Note_on_c, 0, 69, 74
1, 13725, Note_on_c, 0, 60, 0
1, 13728, Note_on_c, 0, 69, 0
1, 13728, Note_on_c, 0, 67, 73
1, 13728, Note_on_c, 0, 59, 67
1, 13773, Note_on_c, 0, 67, 0
1, 13773, Note_on_c, 0, 59, 0
1, 13776, Note_on_c, 0, 67, 73
1, 13776, Note_on_c, 0, 57, 66
1, 13788, Note_on_c, 0, 67, 0
1, 13788, Note_on_c, 0, 66, 73
1, 13800, Note_on_c, 0, 66, 0
1, 13800, Note_on_c, 0, 64, 73
1, 13812, Note_on_c, 0, 64, 0
1, 13812, Note_on_c, 0, 66, 73
1, 13813, Note_on_c, 1, 50, 0
1, 13821, Note_on_c, 0, 57, 0
1, 13824, Note_on_c, 0, 66, 0
1, 13824, Note_on_c, 0, 69, 77
1, 13824, Note_on_c, 0, 60, 77
1, 13824, Note_on_c, 1, 43, 70
1, 13869, Note_on_c, 1, 43, 0
1, 13872, Note_on_c, 0, 69, 0
1, 13872, Note_on_c, 0, 60, 0
1, 13872, Note_on_c, 0, 67, 75
1, 13872, Note_on_c, 0, 59, 75
1, 13872, Note_on_c, 1, 47, 70
1, 13917, Note_on_c, 0, 67, 0
1, 13917, Note_on_c, 0, 59, 0
1, 13917, Note_on_c, 1, 47, 0
1, 13920, Note_on_c, 0, 67, 74
1, 13920, Note_on_c, 0, 59, 74
1, 13920, Note_on_c, 1, 50, 70
1, 13940, Note_on_c, 0, 67, 0
1, 13940, Note_on_c, 0, 59, 0
1, 13965, Note_on_c, 1, 50, 0
1, 13968, Note_on_c, 0, 67, 72
1, 13968, Note_on_c, 0, 59, 72
1, 13968, Note_on_c, 1, 55, 70
1, 14016, Tempo, 1395348
1, 14039, Note_on_c, 0, 67, 0
1, 14039, Note_on_c, 0, 59, 0
1, 14039, Note_on_c, 1, 55, 0
1, 14064, Tempo, 705882
1, 14064, Note_on_c, 0, 74, 70
1, 14084, Note_on_c, 0, 74, 0
1, 14112, Note_on_c, 0, 74, 62
1, 14132, Note_on_c, 0, 74, 0
1, 14160, Note_on_c, 1, 58, 64
1, 14160, Note_on_c, 1, 55, 64
1, 14180, Note_on_c, 1, 58, 0
1, 14180, Note_on_c, 1, 55, 0
1, 14208, Note_on_c, 0, 75, 66
1, 14228, Note_on_c, 0, 75, 0
1, 14256, Note_on_c, 0, 75, 69
1, 14276, Note_on_c, 0, 75, 0
1, 14304, Note_on_c, 1, 60, 71
1, 14304, Note_on_c, 1, 55, 71
1, 14324, Note_on_c, 1, 60, 0
1, 14324, Note_on_c, 1, 55, 0
1, 14352, Note_on_c, 0, 78, 74
1, 14372, Note_on_c, 0, 78, 0
1, 14400, Note_on_c, 0, 78, 76
1, 14420, Note_on_c, 0, 78, 0
1, 14448, Note_on_c, 1, 60, 79
1, 14448, Note_on_c, 1, 55, 79
1, 14468, Note_on_c, 1, 60, 0
1, 14468, Note_on_c, 1, 55, 0
1, 14496, Note_on_c, 0, 79, 81
1, 14516, Note_on_c, 0, 79, 0
1, 14544, Note_on_c, 0, 79, 84
1, 14564, Note_on_c, 0, 79, 0
1, 14592, Note_on_c, 1, 58, 84
1, 14592, Note_on_c, 1, 55, 84
1, 14612, Note_on_c, 1, 58, 0
1, 14612, Note_on_c, 1, 55, 0
1, 14640, Note_on_c, 0, 82, 100
1, 14640, Note_on_c, 0, 73, 62
1, 14640, Note_on_c, 1, 64, 84
1, 14640, Note_on_c, 1, 55, 84
1, 14685, Note_on_c, 0, 73, 0
1, 14685, Note_on_c, 1, 64, 0
1, 14685, Note_on_c, 1, 55, 0
1, 14688, Note_on_c, 0, 74, 62
1, 14688, Note_on_c, 1, 65, 78
1, 14688, Note_on_c, 1, 53, 78
1, 14736, Note_on_c, 0, 82, 0
1, 14736, Note_on_c, 0, 81, 62
1, 14781, Note_on_c, 0, 81, 0
1, 14784, Note_on_c, 0, 82, 100
1, 14784, Note_on_c, 0, 74, 0
1, 14784, Note_on_c, 0, 73, 62
1, 14784, Note_on_c, 1, 65, 0
1, 14784, Note_on_c, 1, 53, 0
1, 14784, Note_on_c, 1, 64, 84
1, 14784, Note_on_c, 1, 55, 84
1, 14829, Note_on_c, 0, 73, 0
1, 14829, Note_on_c, 1, 64, 0
1, 14829, Note_on_c, 1, 55, 0
1, 14832, Note_on_c, 0, 74, 62
1, 14832, Note_on_c, 1, 65, 78
1, 14832, Note_on_c, 1, 53, 78
1, 14880, Note_on_c, 0, 82, 0
1, 14880, Note_on_c, 0, 81, 62
1, 14921, Note_on_c, 0, 74, 0
1, 14925, Note_on_c, 0, 81, 0
1, 14928, Note_on_c, 0, 81, 84
1, 14928, Note_on_c, 1, 65, 0
1, 14928, Note_on_c, 1, 53, 0
1, 14928, Note_on_c, 1, 65, 84
1, 14928, Note_on_c, 1, 62, 84
1, 14928, Note_on_c, 1, 58, 84
1, 14940, Note_on_c, 0, 81, 0
1, 14940, Note_on_c, 0, 80, 84
1, 14952, Note_on_c, 0, 80, 0
1, 14952, Note_on_c, 0, 78, 84
1, 14964, Note_on_c, 0, 78, 0
1, 14964, Note_on_c, 0, 80, 84
1, 14973, Note_on_c, 1, 65, 0
1, 14973, Note_on_c, 1, 62, 0
1, 14973, Note_on_c, 1, 58, 0
1, 14976, Note_on_c, 0, 80, 0
1, 14976, Note_on_c, 0, 80, 62
1, 14976, Note_on_c, 1, 65, 78
1, 14976, Note_on_c, 1, 62, 78
1, 14976, Note_on_c, 1, 57, 78
1, 15021, Note_on_c, 0, 80, 0
1, 15024, Note_on_c, 0, 81, 62
1, 15044, Note_on_c, 0, 81, 0
1, 15072, Note_on_c, 0, 81, 62
1, 15092, Note_on_c, 0, 81, 0
1, 15120, Note_on_c, 1, 65, 0
1, 15120, Note_on_c, 1, 62, 0
1, 15120, Note_on_c, 1, 57, 0
1, 15120, Note_on_c, 1, 65, 84
1, 15120, Note_on_c, 1, 62, 84
1, 15120, Note_on_c, 1, 56, 84
1, 15168, Note_on_c, 0, 83, 84
1, 15188, Note_on_c, 0, 83, 0
1, 15216, Note_on_c, 0, 83, 84
1, 15236, Note_on_c, 0, 83, 0
1, 15253, Note_on_c, 1, 65, 0
1, 15253, Note_on_c, 1, 62, 0
1, 15253, Note_on_c, 1, 56, 0
1, 15264, Note_on_c, 1, 65, 62
1, 15264, Note_on_c, 1, 62, 62
1, 15264, Note_on_c, 1, 57, 62
1, 15312, Note_on_c, 0, 69, 62
1, 15353, Note_on_c, 1, 65, 0
1, 15353, Note_on_c, 1, 62, 0
1, 15353, Note_on_c, 1, 57, 0
1, 15359, Note_on_c, 0, 69, 0
1, 15360, Note_on_c, 0, 69, 62
1, 15407, Note_on_c, 0, 69, 0
1, 15408, Note_on_c, 0, 69, 62
1, 15453, Note_on_c, 0, 69, 0
1, 15456, Note_on_c, 0, 71, 62
1, 15456, Note_on_c, 1, 67, 62
1, 15476, Note_on_c, 1, 67, 0
1, 15501, Note_on_c, 0, 71, 0
1, 15504, Note_on_c, 0, 73, 62
1, 15504, Note_on_c, 1, 67, 62
1, 15524, Note_on_c, 1, 67, 0
1, 15549, Note_on_c, 0, 73, 0
1, 15552, Note_on_c, 0, 73, 62
1, 15552, Note_on_c, 1, 67, 62
1, 15597, Note_on_c, 1, 67, 0
1, 15600, Note_on_c, 1, 65, 62
1, 15645, Note_on_c, 1, 65, 0
1, 15648, Note_on_c, 1, 64, 62
1, 15693, Note_on_c, 1, 64, 0
1, 15696, Note_on_c, 0, 73, 0
1, 15696, Note_on_c, 0, 74, 62
1, 15696, Note_on_c, 1, 62, 62
1, 15716, Note_on_c, 0, 74, 0
1, 15741, Note_on_c, 1, 62, 0
1, 15792, Note_on_c, 0, 74, 62
1, 15812, Note_on_c, 0, 74, 0
1, 15840, Note_on_c, 0, 74, 62
1, 15860, Note_on_c, 0, 74, 0
1, 15888, Note_on_c, 1, 58, 64
1, 15888, Note_on_c, 1, 55, 64
1, 15908, Note_on_c, 1, 58, 0
1, 15908, Note_on_c, 1, 55, 0
1, 15936, Note_on_c, 0, 75, 66
1, 15956, Note_on_c, 0, 75, 0
1, 15984, Note_on_c, 0, 75, 69
1, 16004, Note_on_c, 0, 75, 0
1, 16032, Note_on_c, 1, 60, 71
1, 16032, Note_on_c, 1, 55, 71
1, 16052, Note_on_c, 1, 60, 0
1, 16052, Note_on_c, 1, 55, 0
1, 16080, Note_on_c, 0, 78, 74
1, 16100, Note_on_c, 0, 78, 0
1, 16128, Note_on_c, 0, 78, 76
1, 16148, Note_on_c, 0, 78, 0
1, 16176, Note_on_c, 1, 60, 79
1, 16176, Note_on_c, 1, 55, 79
1, 16196, Note_on_c, 1, 60, 0
1, 16196, Note_on_c, 1, 55, 0
1, 16224, Note_on_c, 0, 79, 81
1, 16244, Note_on_c, 0, 79, 0
1, 16272, Note_on_c, 0, 79, 84
1, 16292, Note_on_c, 0, 79, 0
1, 16320, Note_on_c, 1, 58, 84
1, 16320, Note_on_c, 1, 55, 84
1, 16340, Note_on_c, 1, 58, 0
1, 16340, Note_on_c, 1, 55, 0
1, 16368, Note_on_c, 0, 82, 100
1, 16368, Note_on_c, 0, 73, 84
1, 16368, Note_on_c, 1, 64, 84
1, 16368, Note_on_c, 1, 55, 84
1, 16413, Note_on_c, 0, 73, 0
1, 16413, Note_on_c, 1, 64, 0
1, 16413, Note_on_c, 1, 55, 0
1, 16416, Note_on_c, 0, 74, 62
1, 16416, Note_on_c, 1, 65, 78
1, 16416, Note_on_c, 1, 53, 78
1, 16464, Note_on_c, 0, 82, 0
1, 16464, Note_on_c, 0, 81, 62
1, 16509, Note_on_c, 0, 81, 0
1, 16512, Note_on_c, 0, 82, 100
1, 16512, Note_on_c, 0, 74, 0
1, 16512, Note_on_c, 0, 73, 84
1, 16512, Note_on_c, 1, 65, 0
1, 16512, Note_on_c, 1, 53, 0
1, 16512, Note_on_c, 1, 64, 84
1, 16512, Note_on_c, 1, 55, 84
1, 16557, Note_on_c, 0, 73, 0
1, 16557, Note_on_c, 1, 64, 0
1, 16557, Note_on_c, 1, 55, 0
1, 16560, Note_on_c, 0, 74, 62
1, 16560, Note_on_c, 1, 65, 78
1, 16560, Note_on_c, 1, 53, 78
1, 16608, Note_on_c, 0, 82, 0
1, 16608, Note_on_c, 0, 81, 62
1, 16649, Note_on_c, 0, 74, 0
1, 16653, Note_on_c, 0, 81, 0
1, 16656, Note_on_c, 0, 81, 84
1, 16656, Note_on_c, 1, 65, 0
1, 16656, Note_on_c, 1, 53, 0
1, 16656, Note_on_c, 1, 65, 84
1, 16656, Note_on_c, 1, 62, 84
1, 16656, Note_on_c, 1, 58, 84
1, 16668, Note_on_c, 0, 81, 0
1, 16668, Note_on_c, 0, 80, 84
1, 16680, Note_on_c, 0, 80, 0
1, 16680, Note_on_c, 0, 78, 84
1, 16692, Note_on_c, 0, 78, 0
1, 16692, Note_on_c, 0, 80, 84
1, 16701, Note_on_c, 1, 65, 0
1, 16701, Note_on_c, 1, 62, 0
1, 16701, Note_on_c, 1, 58, 0
1, 16704, Note_on_c, 0, 80, 0
1, 16704, Note_on_c, 0, 80, 62
1, 16704, Note_on_c, 1, 65, 78
1, 16704, Note_on_c, 1, 62, 78
1, 16704, Note_on_c, 1, 57, 78
1, 16749, Note_on_c, 0, 80, 0
1, 16752, Note_on_c, 0, 81, 62
1, 16772, Note_on_c, 0, 81, 0
1, 16800, Note_on_c, 0, 81, 62
1, 16820, Note_on_c, 0, 81, 0
1, 16848, Note_on_c, 1, 65, 0
1, 16848, Note_on_c, 1, 62, 0
1, 16848, Note_on_c, 1, 57, 0
1, 16848, Note_on_c, 1, 65, 84
1, 16848, Note_on_c, 1, 62, 84
1, 16848, Note_on_c, 1, 56, 84
1, 16896, Note_on_c, 0, 83, 84
1, 16916, Note_on_c, 0, 83, 0
1, 16944, Note_on_c, 0, 83, 84
1, 16964, Note_on_c, 0, 83, 0
1, 16981, Note_on_c, 1, 65, 0
1, 16981, Note_on_c, 1, 62, 0
1, 16981, Note_on_c, 1, 56, 0
1, 16992, Note_on_c, 1, 65, 62
1, 16992, Note_on_c, 1, 62, 62
1, 16992, Note_on_c, 1, 57, 62
1, 17040, Note_on_c, 0, 69, 62
1, 17081, Note_on_c, 1, 65, 0
1, 17081, Note_on_c, 1, 62, 0
1, 17081, Note_on_c, 1, 57, 0
1, 17087, Note_on_c, 0, 69, 0
1, 17088, Note_on_c, 0, 69, 62
1, 17135, Note_on_c, 0, 69, 0
1, 17136, Note_on_c, 0, 69, 62
1, 17181, Note_on_c, 0, 69, 0
1, 17184, Note_on_c, 0, 71, 62
1, 17184, Note_on_c, 1, 67, 62
1, 17204, Note_on_c, 1, 67, 0
1, 17229, Note_on_c, 0, 71, 0
1, 17232, Note_on_c, 0, 73, 62
1, 17232, Note_on_c, 1, 67, 62
1, 17252, Note_on_c, 1, 67, 0
1, 17277, Note_on_c, 0, 73, 0
1, 17280, Note_on_c, 0, 73, 62
1, 17280, Note_on_c, 1, 67, 62
1, 17325, Note_on_c, 1, 67, 0
1, 17328, Note_on_c, 1, 65, 62
1, 17373, Note_on_c, 1, 65, 0
1, 17376, Note_on_c, 1, 64, 62
1, 17421, Note_on_c, 1, 64, 0
1, 17424, Note_on_c, 0, 73, 0
1, 17424, Note_on_c, 0, 74, 62
1, 17424, Note_on_c, 1, 62, 62
1, 17444, Note_on_c, 0, 74, 0
1, 17469, Note_on_c, 1, 62, 0
1, 17520, Note_on_c, 0, 74, 62
1, 17540, Note_on_c, 0, 74, 0
1, 17568, Note_on_c, 0, 74, 62
1, 17588, Note_on_c, 0, 74, 0
1, 17616, Note_on_c, 1, 62, 62
1, 17616, Note_on_c, 1, 58, 62
1, 17636, Note_on_c, 1, 62, 0
1, 17636, Note_on_c, 1, 58, 0
1, 17664, Note_on_c, 0, 67, 62
1, 17712, Note_on_c, 0, 67, 0
1, 17712, Note_on_c, 0, 72, 62
1, 17732, Note_on_c, 0, 72, 0
1, 17760, Note_on_c, 1, 63, 62
1, 17760, Note_on_c, 1, 57, 62
1, 17780, Note_on_c, 1, 63, 0
1, 17780, Note_on_c, 1, 57, 0
1, 17808, Note_on_c, 0, 66, 62
1, 17856, Note_on_c, 0, 66, 0
1, 17856, Note_on_c, 0, 70, 62
1, 17876, Note_on_c, 0, 70, 0
1, 17904, Note_on_c, 1, 58, 62
1, 17904, Note_on_c, 1, 55, 62
1, 17924, Note_on_c, 1, 58, 0
1, 17924, Note_on_c, 1, 55, 0
1, 17952, Note_on_c, 0, 61, 62
1, 18000, Note_on_c, 0, 61, 0
1, 18000, Note_on_c, 0, 62, 62
1, 18020, Note_on_c, 0, 62, 0
1, 18048, Note_on_c, 1, 50, 62
1, 18048, Note_on_c, 1, 38, 62
1, 18068, Note_on_c, 1, 50, 0
1, 18068, Note_on_c, 1, 38, 0
1, 18096, Note_on_c, 0, 79, 100
1, 18096, Note_on_c, 0, 67, 100
1, 18096, Note_on_c, 1, 62, 84
1, 18096, Note_on_c, 1, 58, 84
1, 18141, Note_on_c, 1, 62, 0
1, 18141, Note_on_c, 1, 58, 0
1, 18144, Note_on_c, 0, 67, 0
1, 18144, Note_on_c, 0, 69, 62
1, 18144, Note_on_c, 1, 63, 62
1, 18144, Note_on_c, 1, 60, 62
1, 18189, Note_on_c, 0, 79, 0
1, 18192, Note_on_c, 0, 78, 62
1, 18233, Note_on_c, 0, 69, 0
1, 18233, Note_on_c, 1, 63, 0
1, 18233, Note_on_c, 1, 60, 0
1, 18237, Note_on_c, 0, 78, 0
1, 18240, Note_on_c, 0, 79, 100
1, 18240, Note_on_c, 0, 67, 84
1, 18240, Note_on_c, 1, 62, 84
1, 18240, Note_on_c, 1, 58, 84
1, 18285, Note_on_c, 0, 67, 0
1, 18285, Note_on_c, 1, 62, 0
1, 18285, Note_on_c, 1, 58, 0
1, 18288, Note_on_c, 0, 69, 62
1, 18288, Note_on_c, 1, 63, 62
1, 18288, Note_on_c, 1, 60, 62
1, 18333, Note_on_c, 0, 79, 0
1, 18336, Note_on_c, 0, 78, 62
1, 18377, Note_on_c, 0, 69, 0
1, 18377, Note_on_c, 1, 63, 0
1, 18377, Note_on_c, 1, 60, 0
1, 18381, Note_on_c, 0, 78, 0
1, 18384, Note_on_c, 0, 79, 84
1, 18384, Note_on_c, 0, 67, 84
1, 18384, Note_on_c, 1, 62, 84
1, 18384, Note_on_c, 1, 58, 84
1, 18429, Note_on_c, 0, 79, 0
1, 18429, Note_on_c, 0, 67, 0
1, 18429, Note_on_c, 1, 62, 0
1, 18429, Note_on_c, 1, 58, 0
1, 18432, Note_on_c, 0, 72, 100
1, 18432, Note_on_c, 1, 54, 84
1, 18438, Note_on_c, 0, 75, 100
1, 18438, Note_on_c, 1, 57, 84
1, 18444, Note_on_c, 0, 78, 100
1, 18444, Note_on_c, 1, 60, 84
1, 18450, Note_on_c, 0, 84, 100
1, 18450, Note_on_c, 1, 63, 84
1, 18569, Note_on_c, 1, 63, 0
1, 18569, Note_on_c, 1, 60, 0
1, 18569, Note_on_c, 1, 57, 0
1, 18569, Note_on_c, 1, 54, 0
1, 18576, Note_on_c, 0, 78, 0
1, 18576, Note_on_c, 0, 72, 0
1, 18576, Note_on_c, 1, 55, 84
1, 18621, Note_on_c, 0, 84, 0
1, 18621, Note_on_c, 0, 75, 0
1, 18624, Note_on_c, 0, 82, 81
1, 18624, Note_on_c, 0, 74, 81
1, 18669, Note_on_c, 0, 82, 0
1, 18669, Note_on_c, 0, 74, 0
1, 18672, Note_on_c, 0, 82, 79
1, 18672, Note_on_c, 0, 74, 79
1, 18709, Note_on_c, 1, 55, 0
1, 18720, Note_on_c, 0, 74, 0
1, 18720, Note_on_c, 0, 75, 84
1, 18720, Note_on_c, 1, 60, 84
1, 18765, Note_on_c, 0, 82, 0
1, 18768, Note_on_c, 0, 81, 74
1, 18768, Note_on_c, 1, 72, 77
1, 18813, Note_on_c, 0, 81, 0
1, 18813, Note_on_c, 1, 72, 0
1, 18816, Note_on_c, 0, 81, 71
1, 18816, Note_on_c, 1, 72, 76
1, 18853, Note_on_c, 1, 60, 0
1, 18864, Note_on_c, 1, 62, 73
1, 18909, Note_on_c, 0, 81, 0
1, 18909, Note_on_c, 0, 75, 0
1, 18909, Note_on_c, 1, 72, 0
1, 18912, Note_on_c, 0, 79, 66
1, 18912, Note_on_c, 0, 74, 69
1, 18912, Note_on_c, 1, 70, 73
1, 18957, Note_on_c, 0, 79, 0
1, 18957, Note_on_c, 0, 74, 0
1, 18957, Note_on_c, 1, 70, 0
1, 18960, Note_on_c, 0, 78, 64
1, 18960, Note_on_c, 0, 72, 65
1, 18960, Note_on_c, 1, 69, 71
1, 18997, Note_on_c, 1, 62, 0
1, 19005, Note_on_c, 0, 78, 0
1, 19005, Note_on_c, 0, 72, 0
1, 19005, Note_on_c, 1, 69, 0
1, 19008, Note_on_c, 0, 78, 62
1, 19008, Note_on_c, 0, 72, 62
1, 19008, Note_on_c, 1, 69, 62
1, 19008, Note_on_c, 1, 55, 62
1, 19152, Note_on_c, 0, 78, 0
1, 19152, Note_on_c, 0, 72, 0
1, 19152, Note_on_c, 0, 79, 62
1, 19152, Note_on_c, 0, 70, 62
1, 19152, Note_on_c, 1, 69, 0
1, 19152, Note_on_c, 1, 67, 62
1, 19199, Note_on_c, 0, 79, 0
1, 19199, Note_on_c, 0, 70, 0
1, 19199, Note_on_c, 1, 67, 0
1, 19199, Note_on_c, 1, 55, 0
1, 19248, Note_on_c, 0, 74, 62
1, 19268, Note_on_c, 0, 74, 0
1, 19296, Note_on_c, 0, 74, 62
1, 19316, Note_on_c, 0, 74, 0
1, 19344, Note_on_c, 1, 62, 62
1, 19344, Note_on_c, 1, 58, 62
1, 19364, Note_on_c, 1, 62, 0
1, 19364, Note_on_c, 1, 58, 0
1, 19392, Note_on_c, 0, 67, 62
1, 19440, Note_on_c, 0, 67, 0
1, 19440, Note_on_c, 0, 72, 62
1, 19460, Note_on_c, 0, 72, 0
1, 19488, Note_on_c, 1, 63, 62
1, 19488, Note_on_c, 1, 57, 62
1, 19508, Note_on_c, 1, 63, 0
1, 19508, Note_on_c, 1, 57, 0
1, 19536, Note_on_c, 0, 66, 62
1, 19584, Note_on_c, 0, 66, 0
1, 19584, Note_on_c, 0, 70, 62
1, 19604, Note_on_c, 0, 70, 0
1, 19632, Note_on_c, 1, 58, 62
1, 19632, Note_on_c, 1, 55, 62
1, 19652, Note_on_c, 1, 58, 0
1, 19652, Note_on_c, 1, 55, 0
1, 19680, Note_on_c, 0, 61, 62
1, 19728, Note_on_c, 0, 61, 0
1, 19728, Note_on_c, 0, 62, 62
1, 19748, Note_on_c, 0, 62, 0
1, 19776, Note_on_c, 1, 50, 62
1, 19776, Note_on_c, 1, 38, 62
1, 19796, Note_on_c, 1, 50, 0
1, 19796, Note_on_c, 1, 38, 0
1, 19824, Note_on_c, 0, 79, 100
1, 19824, Note_on_c, 0, 67, 100
1, 19824, Note_on_c, 1, 62, 84
1, 19824, Note_on_c, 1, 58, 84
1, 19869, Note_on_c, 1, 62, 0
1, 19869, Note_on_c, 1, 58, 0
1, 19872, Note_on_c, 0, 67, 0
1, 19872, Note_on_c, 0, 69, 62
1, 19872, Note_on_c, 1, 63, 62
1, 19872, Note_on_c, 1, 60, 62
1, 19917, Note_on_c, 0, 79, 0
1, 19920, Note_on_c, 0, 78, 62
1, 19961, Note_on_c, 0, 69, 0
1, 19961, Note_on_c, 1, 63, 0
1, 19961, Note_on_c, 1, 60, 0
1, 19965, Note_on_c, 0, 78, 0
1, 19968, Note_on_c, 0, 79, 100
1, 19968, Note_on_c, 0, 67, 84
1, 19968, Note_on_c, 1, 62, 84
1, 19968, Note_on_c, 1, 58, 84
1, 20013, Note_on_c, 0, 67, 0
1, 20013, Note_on_c, 1, 62, 0
1, 20013, Note_on_c, 1, 58, 0
1, 20016, Note_on_c, 0, 69, 62
1, 20016, Note_on_c, 1, 63, 62
1, 20016, Note_on_c, 1, 60, 62
1, 20061, Note_on_c, 0, 79, 0
1, 20064, Note_on_c, 0, 78, 62
1, 20105, Note_on_c, 0, 69, 0
1, 20105, Note_on_c, 1, 63, 0
1, 20105, Note_on_c, 1, 60, 0
1, 20109, Note_on_c, 0, 78, 0
1, 20112, Note_on_c, 0, 79, 84
1, 20112, Note_on_c, 0, 67, 84
1, 20112, Note_on_c, 1, 62, 84
1, 20112, Note_on_c, 1, 58, 84
1, 20157, Note_on_c, 0, 79, 0
1, 20157, Note_on_c, 0, 67, 0
1, 20157, Note_on_c, 1, 62, 0
1, 20157, Note_on_c, 1, 58, 0
1, 20160, Note_on_c, 0, 72, 100
1, 20160, Note_on_c, 1, 54, 84
1, 20166, Note_on_c, 0, 75, 100
1, 20166, Note_on_c, 1, 57, 84
1, 20172, Note_on_c, 0, 78, 100
1, 20172, Note_on_c, 1, 60, 84
1, 20178, Note_on_c, 0, 84, 100
1, 20178, Note_on_c, 1, 63, 84
1, 20297, Note_on_c, 1, 63, 0
1, 20297, Note_on_c, 1, 60, 0
1, 20297, Note_on_c, 1, 57, 0
1, 20297, Note_on_c, 1, 54, 0
1, 20304, Note_on_c, 0, 78, 0
1, 20304, Note_on_c, 0, 72, 0
1, 20304, Note_on_c, 1, 55, 84
1, 20349, Note_on_c, 0, 84, 0
1, 20349, Note_on_c, 0, 75, 0
1, 20352, Note_on_c, 0, 82, 81
1, 20352, Note_on_c, 0, 74, 81
1, 20397, Note_on_c, 0, 82, 0
1, 20397, Note_on_c, 0, 74, 0
1, 20400, Note_on_c, 0, 82, 79
1, 20400, Note_on_c, 0, 74, 79
1, 20437, Note_on_c, 1, 55, 0
1, 20448, Note_on_c, 0, 74, 0
1, 20448, Note_on_c, 0, 75, 84
1, 20448, Note_on_c, 1, 60, 84
1, 20493, Note_on_c, 0, 82, 0
1, 20496, Note_on_c, 0, 81, 74
1, 20496, Note_on_c, 1, 72, 77
1, 20541, Note_on_c, 0, 81, 0
1, 20541, Note_on_c, 1, 72, 0
1, 20544, Note_on_c, 0, 81, 71
1, 20544, Note_on_c, 1, 72, 76
1, 20581, Note_on_c, 1, 60, 0
1, 20592, Note_on_c, 1, 62, 73
1, 20637, Note_on_c, 0, 81, 0
1, 20637, Note_on_c, 0, 75, 0
1, 20637, Note_on_c, 1, 72, 0
1, 20640, Note_on_c, 0, 79, 66
1, 20640, Note_on_c, 0, 74, 69
1, 20640, Note_on_c, 1, 70, 73
1, 20685, Note_on_c, 0, 79, 0
1, 20685, Note_on_c, 0, 74, 0
1, 20685, Note_on_c, 1, 70, 0
1, 20688, Note_on_c, 0, 78, 64
1, 20688, Note_on_c, 0, 72, 65
1, 20688, Note_on_c, 1, 69, 71
1, 20725, Note_on_c, 1, 62, 0
1, 20733, Note_on_c, 0, 78, 0
1, 20733, Note_on_c, 0, 72, 0
1, 20733, Note_on_c, 1, 69, 0
1, 20736, Note_on_c, 0, 78, 62
1, 20736, Note_on_c, 0, 72, 62
1, 20736, Note_on_c, 1, 69, 62
1, 20736, Note_on_c, 1, 55, 62
1, 20880, Note_on_c, 0, 78, 0
1, 20880, Note_on_c, 0, 72, 0
1, 20880, Note_on_c, 0, 79, 62
1, 20880, Note_on_c, 0, 70, 62
1, 20880, Note_on_c, 1, 69, 0
1, 20880, Note_on_c, 1, 67, 62
1, 20927, Note_on_c, 0, 79, 0
1, 20927, Note_on_c, 0, 70, 0
1, 20927, Note_on_c, 1, 67, 0
1, 20927, Note_on_c, 1, 55, 0
1, 20928, Tempo, 1395348
1, 20976, Tempo, 705882
1, 20976, Note_on_c, 0, 67, 86
1, 20976, Note_on_c, 1, 59, 62
1, 20976, Note_on_c, 1, 55, 62
1, 20996, Note_on_c, 0, 67, 0
1, 20996, Note_on_c, 1, 59, 0
1, 20996, Note_on_c, 1, 55, 0
1, 21024, Note_on_c, 0, 67, 70
1, 21024, Note_on_c, 1, 59, 62
1, 21024, Note_on_c, 1, 55, 62
1, 21113, Note_on_c, 0, 67, 0
1, 21113, Note_on_c, 1, 59, 0
1, 21113, Note_on_c, 1, 55, 0
1, 21120, Note_on_c, 0, 71, 70
1, 21120, Note_on_c, 1, 60, 62
1, 21120, Note_on_c, 1, 55, 62
1, 21132, Note_on_c, 0, 71, 0
1, 21132, Note_on_c, 0, 69, 70
1, 21140, Note_on_c, 1, 60, 0
1, 21140, Note_on_c, 1, 55, 0
1, 21165, Note_on_c, 0, 69, 0
1, 21168, Note_on_c, 0, 62, 70
1, 21168, Note_on_c, 1, 60, 62
1, 21168, Note_on_c, 1, 55, 62
1, 21213, Note_on_c, 0, 62, 0
1, 21216, Note_on_c, 0, 63, 70
1, 21239, Note_on_c, 0, 63, 0
1, 21240, Note_on_c, 0, 64, 71
1, 21257, Note_on_c, 1, 60, 0
1, 21257, Note_on_c, 1, 55, 0
1, 21263, Note_on_c, 0, 64, 0
1, 21264, Note_on_c, 0, 65, 72
1, 21264, Note_on_c, 1, 60, 62
1, 21264, Note_on_c, 1, 55, 62
1, 21284, Note_on_c, 1, 60, 0
1, 21284, Note_on_c, 1, 55, 0
1, 21287, Note_on_c, 0, 65, 0
1, 21288, Note_on_c, 0, 66, 73
1, 21311, Note_on_c, 0, 66, 0
1, 21312, Note_on_c, 0, 67, 74
1, 21312, Note_on_c, 1, 59, 62
1, 21312, Note_on_c, 1, 55, 62
1, 21332, Note_on_c, 0, 67, 0
1, 21335, Note_on_c, 1, 59, 0
1, 21336, Note_on_c, 1, 58, 67
1, 21359, Note_on_c, 1, 58, 0
1, 21360, Note_on_c, 0, 67, 77
1, 21360, Note_on_c, 1, 59, 72
1, 21380, Note_on_c, 0, 67, 0
1, 21383, Note_on_c, 1, 59, 0
1, 21384, Note_on_c, 1, 58, 77
1, 21407, Note_on_c, 1, 58, 0
1, 21408, Note_on_c, 0, 67, 75
1, 21408, Note_on_c, 1, 59, 72
1, 21428, Note_on_c, 0, 67, 0
1, 21431, Note_on_c, 1, 59, 0
1, 21432, Note_on_c, 1, 58, 67
1, 21455, Note_on_c, 1, 58, 0
1, 21456, Note_on_c, 0, 67, 73
1, 21456, Note_on_c, 1, 59, 62
1, 21501, Note_on_c, 1, 55, 0
1, 21545, Note_on_c, 0, 67, 0
1, 21545, Note_on_c, 1, 59, 0
1, 21552, Note_on_c, 0, 69, 70
1, 21552, Note_on_c, 0, 62, 70
1, 21552, Note_on_c, 1, 54, 62
1, 21572, Note_on_c, 0, 69, 0
1, 21572, Note_on_c, 0, 62, 0
1, 21572, Note_on_c, 1, 54, 0
1, 21600, Note_on_c, 0, 72, 70
1, 21600, Note_on_c, 0, 62, 62
1, 21600, Note_on_c, 1, 57, 62
1, 21606, Note_on_c, 0, 72, 0
1, 21606, Note_on_c, 0, 71, 70
1, 21606, Note_on_c, 1, 57, 0
1, 21606, Note_on_c, 1, 55, 62
1, 21623, Note_on_c, 0, 71, 0
1, 21623, Note_on_c, 1, 55, 0
1, 21624, Note_on_c, 0, 70, 71
1, 21624, Note_on_c, 1, 54, 63
1, 21647, Note_on_c, 0, 70, 0
1, 21647, Note_on_c, 1, 54, 0
1, 21648, Note_on_c, 0, 71, 72
1, 21648, Note_on_c, 1, 55, 64
1, 21671, Note_on_c, 0, 71, 0
1, 21671, Note_on_c, 1, 55, 0
1, 21672, Note_on_c, 0, 70, 73
1, 21672, Note_on_c, 1, 54, 66
1, 21695, Note_on_c, 0, 70, 0
1, 21695, Note_on_c, 1, 54, 0
1, 21696, Note_on_c, 0, 71, 74
1, 21696, Note_on_c, 1, 55, 67
1, 21719, Note_on_c, 0, 71, 0
1, 21719, Note_on_c, 1, 55, 0
1, 21720, Note_on_c, 0, 74, 75
1, 21720, Note_on_c, 1, 59, 68
1, 21733, Note_on_c, 0, 62, 0
1, 21743, Note_on_c, 0, 74, 0
1, 21743, Note_on_c, 1, 59, 0
1, 21744, Note_on_c, 0, 74, 93
1, 21744, Note_on_c, 0, 66, 62
1, 21744, Note_on_c, 0, 62, 62
1, 21744, Note_on_c, 1, 57, 70
1, 21789, Note_on_c, 0, 66, 0
1, 21789, Note_on_c, 0, 62, 0
1, 21792, Note_on_c, 0, 74, 0
1, 21792, Note_on_c, 0, 72, 77
1, 21833, Note_on_c, 1, 57, 0
1, 21837, Note_on_c, 0, 72, 0
1, 21840, Note_on_c, 0, 71, 77
1, 21840, Note_on_c, 0, 67, 77
1, 21840, Note_on_c, 1, 55, 70
1, 21860, Note_on_c, 0, 71, 0
1, 21860, Note_on_c, 0, 67, 0
1, 21860, Note_on_c, 1, 55, 0
1, 21888, Note_on_c, 0, 71, 77
1, 21888, Note_on_c, 0, 67, 77
1, 21888, Note_on_c, 1, 50, 70
1, 21911, Note_on_c, 1, 50, 0
1, 21912, Note_on_c, 1, 61, 70
1, 21935, Note_on_c, 1, 61, 0
1, 21936, Note_on_c, 0, 71, 0
1, 21936, Note_on_c, 0, 67, 0
1, 21936, Note_on_c, 0, 69, 74
1, 21936, Note_on_c, 0, 66, 74
1, 21936, Note_on_c, 1, 62, 70
1, 21956, Note_on_c, 0, 69, 0
1, 21956, Note_on_c, 0, 66, 0
1, 21959, Note_on_c, 1, 62, 0
1, 21960, Note_on_c, 1, 61, 70
1, 21983, Note_on_c, 1, 61, 0
1, 21984, Note_on_c, 0, 69, 72
1, 21984, Note_on_c, 0, 66, 72
1, 21984, Note_on_c, 1, 62, 70
1, 22004, Note_on_c, 0, 69, 0
1, 22004, Note_on_c, 0, 66, 0
1, 22007, Note_on_c, 1, 62, 0
1, 22008, Note_on_c, 1, 61, 70
1, 22031, Note_on_c, 1, 61, 0
1, 22032, Note_on_c, 0, 69, 86
1, 22032, Note_on_c, 0, 66, 86
1, 22032, Note_on_c, 1, 62, 70
1, 22055, Note_on_c, 1, 62, 0
1, 22056, Note_on_c, 1, 64, 70
1, 22079, Note_on_c, 1, 64, 0
1, 22080, Note_on_c, 1, 60, 70
1, 22103, Note_on_c, 1, 60, 0
1, 22104, Note_on_c, 1, 62, 70
1, 22127, Note_on_c, 1, 62, 0
1, 22128, Note_on_c, 0, 69, 0
1, 22128, Note_on_c, 0, 66, 0
1, 22128, Note_on_c, 0, 71, 72
1, 22128, Note_on_c, 0, 68, 72
1, 22128, Note_on_c, 1, 59, 70
1, 22151, Note_on_c, 1, 59, 0
1, 22152, Note_on_c, 1, 60, 70
1, 22173, Note_on_c, 0, 71, 0
1, 22173, Note_on_c, 0, 68, 0
1, 22175, Note_on_c, 1, 60, 0
1, 22176, Note_on_c, 0, 72, 73
1, 22176, Note_on_c, 0, 69, 73
1, 22176, Note_on_c, 1, 57, 70
1, 22199, Note_on_c, 1, 57, 0
1, 22200, Note_on_c, 1, 64, 70
1, 22223, Note_on_c, 1, 64, 0
1, 22224, Note_on_c, 0, 72, 0
1, 22224, Note_on_c, 0, 69, 0
1, 22224, Note_on_c, 0, 74, 74
1, 22224, Note_on_c, 0, 71, 74
1, 22224, Note_on_c, 1, 60, 70
1, 22247, Note_on_c, 1, 60, 0
1, 22248, Note_on_c, 1, 59, 70
1, 22269, Note_on_c, 0, 74, 0
1, 22269, Note_on_c, 0, 71, 0
1, 22271, Note_on_c, 1, 59, 0
1, 22272, Note_on_c, 0, 76, 75
1, 22272, Note_on_c, 0, 72, 75
1, 22272, Note_on_c, 1, 57, 70
1, 22292, Note_on_c, 0, 76, 0
1, 22292, Note_on_c, 0, 72, 0
1, 22295, Note_on_c, 1, 57, 0
1, 22296, Note_on_c, 1, 55, 70
1, 22319, Note_on_c, 1, 55, 0
1, 22320, Note_on_c, 0, 76, 93
1, 22320, Note_on_c, 0, 72, 93
1, 22320, Note_on_c, 1, 54, 70
1, 22343, Note_on_c, 1, 54, 0
1, 22344, Note_on_c, 1, 57, 70
1, 22367, Note_on_c, 1, 57, 0
1, 22368, Note_on_c, 1, 60, 70
1, 22391, Note_on_c, 1, 60, 0
1, 22392, Note_on_c, 1, 62, 70
1, 22415, Note_on_c, 1, 62, 0
1, 22416, Note_on_c, 0, 76, 0
1, 22416, Note_on_c, 0, 72, 0
1, 22416, Note_on_c, 0, 74, 72
1, 22416, Note_on_c, 0, 71, 72
1, 22416, Note_on_c, 1, 64, 70
1, 22439, Note_on_c, 0, 74, 0
1, 22439, Note_on_c, 0, 71, 0
1, 22439, Note_on_c, 1, 64, 0
1, 22440, Note_on_c, 0, 72, 71
1, 22440, Note_on_c, 0, 69, 71
1, 22440, Note_on_c, 1, 66, 70
1, 22463, Note_on_c, 0, 72, 0
1, 22463, Note_on_c, 0, 69, 0
1, 22463, Note_on_c, 1, 66, 0
1, 22464, Note_on_c, 0, 71, 70
1, 22464, Note_on_c, 1, 67, 70
1, 22487, Note_on_c, 0, 71, 0
1, 22488, Note_on_c, 0, 72, 70
1, 22511, Note_on_c, 0, 72, 0
1, 22512, Note_on_c, 0, 71, 71
1, 22535, Note_on_c, 0, 71, 0
1, 22536, Note_on_c, 0, 72, 72
1, 22553, Note_on_c, 1, 67, 0
1, 22559, Note_on_c, 0, 72, 0
1, 22560, Note_on_c, 0, 71, 73
1, 22560, Note_on_c, 1, 65, 71
1, 22583, Note_on_c, 0, 71, 0
1, 22584, Note_on_c, 0, 74, 73
1, 22605, Note_on_c, 1, 65, 0
1, 22607, Note_on_c, 0, 74, 0
1, 22608, Note_on_c, 0, 72, 74
1, 22608, Note_on_c, 1, 64, 72
1, 22631, Note_on_c, 1, 64, 0
1, 22632, Note_on_c, 1, 67, 72
1, 22653, Note_on_c, 0, 72, 0
1, 22655, Note_on_c, 1, 67, 0
1, 22656, Note_on_c, 0, 74, 76
1, 22656, Note_on_c, 1, 62, 73
1, 22679, Note_on_c, 1, 62, 0
1, 22680, Note_on_c, 1, 65, 73
1, 22701, Note_on_c, 0, 74, 0
1, 22703, Note_on_c, 1, 65, 0
1, 22704, Note_on_c, 0, 76, 77
1, 22704, Note_on_c, 1, 60, 73
1, 22727, Note_on_c, 1, 60, 0
1, 22728, Note_on_c, 1, 64, 74
1, 22749, Note_on_c, 0, 76, 0
1, 22751, Note_on_c, 1, 64, 0
1, 22752, Note_on_c, 0, 74, 79
1, 22752, Note_on_c, 1, 59, 74
1, 22775, Note_on_c, 1, 59, 0
1, 22776, Note_on_c, 1, 62, 75
1, 22797, Note_on_c, 0, 74, 0
1, 22799, Note_on_c, 1, 62, 0
1, 22800, Note_on_c, 0, 79, 80
1, 22800, Note_on_c, 1, 55, 75
1, 22820, Note_on_c, 0, 79, 0
1, 22823, Note_on_c, 1, 55, 0
1, 22824, Note_on_c, 1, 59, 75
1, 22847, Note_on_c, 1, 59, 0
1, 22848, Note_on_c, 0, 79, 82
1, 22848, Note_on_c, 1, 54, 76
1, 22868, Note_on_c, 0, 79, 0
1, 22871, Note_on_c, 1, 54, 0
1, 22872, Note_on_c, 1, 57, 76
1, 22895, Note_on_c, 1, 57, 0
1, 22896, Note_on_c, 0, 81, 84
1, 22896, Note_on_c, 1, 52, 77
1, 22919, Note_on_c, 1, 52, 0
1, 22920, Note_on_c, 0, 81, 0
1, 22920, Note_on_c, 0, 79, 84
1, 22920, Note_on_c, 1, 55, 75
1, 22941, Note_on_c, 0, 79, 0
1, 22943, Note_on_c, 1, 55, 0
1, 22944, Note_on_c, 0, 78, 80
1, 22944, Note_on_c, 1, 57, 74
1, 22967, Note_on_c, 0, 78, 0
1, 22967, Note_on_c, 1, 57, 0
1, 22968, Note_on_c, 0, 76, 78
1, 22968, Note_on_c, 1, 61, 72
1, 22991, Note_on_c, 0, 76, 0
1, 22991, Note_on_c, 1, 61, 0
1, 22992, Note_on_c, 0, 74, 76
1, 22992, Note_on_c, 1, 64, 71
1, 23015, Note_on_c, 0, 74, 0
1, 23015, Note_on_c, 1, 64, 0
1, 23016, Note_on_c, 0, 73, 74
1, 23016, Note_on_c, 1, 67, 69
1, 23039, Note_on_c, 0, 73, 0
1, 23040, Note_on_c, 0, 76, 73
1, 23040, Note_on_c, 1, 62, 68
1, 23088, Note_on_c, 0, 76, 0
1, 23088, Note_on_c, 0, 74, 69
1, 23088, Note_on_c, 1, 67, 0
1, 23088, Note_on_c, 1, 66, 65
1, 23133, Note_on_c, 0, 74, 0
1, 23133, Note_on_c, 1, 66, 0
1, 23133, Note_on_c, 1, 62, 0
1, 23136, Note_on_c, 0, 74, 65
1, 23136, Note_on_c, 1, 66, 62
1, 23136, Note_on_c, 1, 62, 62
1, 23156, Note_on_c, 0, 74, 0
1, 23156, Note_on_c, 1, 66, 0
1, 23156, Note_on_c, 1, 62, 0
1, 23184, Note_on_c, 0, 74, 62
1, 23184, Note_on_c, 1, 66, 62
1, 23184, Note_on_c, 1, 62, 62
1, 23251, Note_on_c, 0, 74, 0
1, 23256, Note_on_c, 0, 71, 58
1, 23273, Note_on_c, 1, 66, 0
1, 23273, Note_on_c, 1, 62, 0
1, 23279, Note_on_c, 0, 71, 0
1, 23280, Note_on_c, 0, 72, 57
1, 23303, Note_on_c, 0, 72, 0
1, 23304, Note_on_c, 0, 69, 56
1, 23327, Note_on_c, 0, 69, 0
1, 23328, Note_on_c, 0, 67, 70
1, 23328, Note_on_c, 1, 59, 62
1, 23328, Note_on_c, 1, 55, 62
1, 23417, Note_on_c, 0, 67, 0
1, 23417, Note_on_c, 1, 59, 0
1, 23417, Note_on_c, 1, 55, 0
1, 23424, Note_on_c, 0, 71, 70
1, 23424, Note_on_c, 1, 60, 62
1, 23424, Note_on_c, 1, 55, 62
1, 23436, Note_on_c, 0, 71, 0
1, 23436, Note_on_c, 0, 69, 70
1, 23444, Note_on_c, 1, 60, 0
1, 23444, Note_on_c, 1, 55, 0
1, 23469, Note_on_c, 0, 69, 0
1, 23472, Note_on_c, 0, 62, 70
1, 23472, Note_on_c, 1, 60, 62
1, 23472, Note_on_c, 1, 55, 62
1, 23517, Note_on_c, 0, 62, 0
1, 23520, Note_on_c, 0, 63, 70
1, 23543, Note_on_c, 0, 63, 0
1, 23544, Note_on_c, 0, 64, 71
1, 23561, Note_on_c, 1, 60, 0
1, 23561, Note_on_c, 1, 55, 0
1, 23567, Note_on_c, 0, 64, 0
1, 23568, Note_on_c, 0, 65, 72
1, 23568, Note_on_c, 1, 60, 62
1, 23568, Note_on_c, 1, 55, 62
1, 23588, Note_on_c, 1, 60, 0
1, 23588, Note_on_c, 1, 55, 0
1, 23591, Note_on_c, 0, 65, 0
1, 23592, Note_on_c, 0, 66, 73
1, 23615, Note_on_c, 0, 66, 0
1, 23616, Note_on_c, 0, 67, 74
1, 23616, Note_on_c, 1, 59, 62
1, 23616, Note_on_c, 1, 55, 62
1, 23636, Note_on_c, 0, 67, 0
1, 23639, Note_on_c, 1, 59, 0
1, 23640, Note_on_c, 1, 58, 67
1, 23663, Note_on_c, 1, 58, 0
1, 23664, Note_on_c, 0, 67, 77
1, 23664, Note_on_c, 1, 59, 72
1, 23684, Note_on_c, 0, 67, 0
1, 23687, Note_on_c, 1, 59, 0
1, 23688, Note_on_c, 1, 58, 77
1, 23711, Note_on_c, 1, 58, 0
1, 23712, Note_on_c, 0, 67, 75
1, 23712, Note_on_c, 1, 59, 72
1, 23732, Note_on_c, 0, 67, 0
1, 23735, Note_on_c, 1, 59, 0
1, 23736, Note_on_c, 1, 58, 67
1, 23759, Note_on_c, 1, 58, 0
1, 23760, Note_on_c, 0, 67, 73
1, 23760, Note_on_c, 1, 59, 62
1, 23805, Note_on_c, 1, 55, 0
1, 23849, Note_on_c, 0, 67, 0
1, 23849, Note_on_c, 1, 59, 0
1, 23856, Note_on_c, 0, 69, 70
1, 23856, Note_on_c, 0, 62, 70
1, 23856, Note_on_c, 1, 54, 62
1, 23876, Note_on_c, 0, 69, 0
1, 23876, Note_on_c, 0, 62, 0
1, 23876, Note_on_c, 1, 54, 0
1, 23904, Note_on_c, 0, 72, 70
1, 23904, Note_on_c, 0, 62, 62
1, 23904, Note_on_c, 1, 57, 62
1, 23910, Note_on_c, 0, 72, 0
1, 23910, Note_on_c, 0, 71, 70
1, 23910, Note_on_c, 1, 57, 0
1, 23910, Note_on_c, 1, 55, 62
1, 23927, Note_on_c, 0, 71, 0
1, 23927, Note_on_c, 1, 55, 0
1, 23928, Note_on_c, 0, 70, 71
1, 23928, Note_on_c, 1, 54, 63
1, 23951, Note_on_c, 0, 70, 0
1, 23951, Note_on_c, 1, 54, 0
1, 23952, Note_on_c, 0, 71, 72
1, 23952, Note_on_c, 1, 55, 64
1, 23975, Note_on_c, 0, 71, 0
1, 23975, Note_on_c, 1, 55, 0
1, 23976, Note_on_c, 0, 70, 73
1, 23976, Note_on_c, 1, 54, 66
1, 23999, Note_on_c, 0, 70, 0
1, 23999, Note_on_c, 1, 54, 0
1, 24000, Note_on_c, 0, 71, 74
1, 24000, Note_on_c, 1, 55, 67
1, 24023, Note_on_c, 0, 71, 0
1, 24023, Note_on_c, 1, 55, 0
1, 24024, Note_on_c, 0, 74, 75
1, 24024, Note_on_c, 1, 59, 68
1, 24037, Note_on_c, 0, 62, 0
1, 24047, Note_on_c, 0, 74, 0
1, 24047, Note_on_c, 1, 59, 0
1, 24048, Note_on_c, 0, 74, 93
1, 24048, Note_on_c, 0, 66, 62
1, 24048, Note_on_c, 0, 62, 62
1, 24048, Note_on_c, 1, 57, 70
1, 24093, Note_on_c, 0, 66, 0
1, 24093, Note_on_c, 0, 62, 0
1, 24096, Note_on_c, 0, 74, 0
1, 24096, Note_on_c, 0, 72, 77
1, 24137, Note_on_c, 1, 57, 0
1, 24141, Note_on_c, 0, 72, 0
1, 24144, Note_on_c, 0, 71, 77
1, 24144, Note_on_c, 0, 67, 77
1, 24144, Note_on_c, 1, 55, 70
1, 24164, Note_on_c, 0, 71, 0
1, 24164, Note_on_c, 0, 67, 0
1, 24164, Note_on_c, 1, 55, 0
1, 24192, Note_on_c, 0, 71, 77
1, 24192, Note_on_c, 0, 67, 77
1, 24192, Note_on_c, 1, 50, 70
1, 24215, Note_on_c, 1, 50, 0
1, 24216, Note_on_c, 1, 61, 70
1, 24239, Note_on_c, 1, 61, 0
1, 24240, Note_on_c, 0, 71, 0
1, 24240, Note_on_c, 0, 67, 0
1, 24240, Note_on_c, 0, 69, 74
1, 24240, Note_on_c, 0, 66, 74
1, 24240, Note_on_c, 1, 62, 70
1, 24260, Note_on_c, 0, 69, 0
1, 24260, Note_on_c, 0, 66, 0
1, 24263, Note_on_c, 1, 62, 0
1, 24264, Note_on_c, 1, 61, 70
1, 24287, Note_on_c, 1, 61, 0
1, 24288, Note_on_c, 0, 69, 72
1, 24288, Note_on_c, 0, 66, 72
1, 24288, Note_on_c, 1, 62, 70
1, 24308, Note_on_c, 0, 69, 0
1, 24308, Note_on_c, 0, 66, 0
1, 24311, Note_on_c, 1, 62, 0
1, 24312, Note_on_c, 1, 61, 70
1, 24335, Note_on_c, 1, 61, 0
1, 24336, Note_on_c, 0, 69, 86
1, 24336, Note_on_c, 0, 66, 86
1, 24336, Note_on_c, 1, 62, 70
1, 24359, Note_on_c, 1, 62, 0
1, 24360, Note_on_c, 1, 64, 70
1, 24383, Note_on_c, 1, 64, 0
1, 24384, Note_on_c, 1, 60, 70
1, 24407, Note_on_c, 1, 60, 0
1, 24408, Note_on_c, 1, 62, 70
1, 24431, Note_on_c, 1, 62, 0
1, 24432, Note_on_c, 0, 69, 0
1, 24432, Note_on_c, 0, 66, 0
1, 24432, Note_on_c, 0, 71, 72
1, 24432, Note_on_c, 0, 68, 72
1, 24432, Note_on_c, 1, 59, 70
1, 24455, Note_on_c, 1, 59, 0
1, 24456, Note_on_c, 1, 60, 70
1, 24477, Note_on_c, 0, 71, 0
1, 24477, Note_on_c, 0, 68, 0
1, 24479, Note_on_c, 1, 60, 0
1, 24480, Note_on_c, 0, 72, 73
1, 24480, Note_on_c, 0, 69, 73
1, 24480, Note_on_c, 1, 57, 70
1, 24503, Note_on_c, 1, 57, 0
1, 24504, Note_on_c, 1, 64, 70
1, 24527, Note_on_c, 1, 64, 0
1, 24528, Note_on_c, 0, 72, 0
1, 24528, Note_on_c, 0, 69, 0
1, 24528, Note_on_c, 0, 74, 74
1, 24528, Note_on_c, 0, 71, 74
1, 24528, Note_on_c, 1, 60, 70
1, 24551, Note_on_c, 1, 60, 0
1, 24552, Note_on_c, 1, 59, 70
1, 24573, Note_on_c, 0, 74, 0
1, 24573, Note_on_c, 0, 71, 0
1, 24575, Note_on_c, 1, 59, 0
1, 24576, Note_on_c, 0, 76, 75
1, 24576, Note_on_c, 0, 72, 75
1, 24576, Note_on_c, 1, 57, 70
1, 24596, Note_on_c, 0, 76, 0
1, 24596, Note_on_c, 0, 72, 0
1, 24599, Note_on_c, 1, 57, 0
1, 24600, Note_on_c, 1, 55, 70
1, 24623, Note_on_c, 1, 55, 0
1, 24624, Note_on_c, 0, 76, 93
1, 24624, Note_on_c, 0, 72, 93
1, 24624, Note_on_c, 1, 54, 70
1, 24647, Note_on_c, 1, 54, 0
1, 24648, Note_on_c, 1, 57, 70
1, 24671, Note_on_c, 1, 57, 0
1, 24672, Note_on_c, 1, 60, 70
1, 24695, Note_on_c, 1, 60, 0
1, 24696, Note_on_c, 1, 62, 70
1, 24719, Note_on_c, 1, 62, 0
1, 24720, Note_on_c, 0, 76, 0
1, 24720, Note_on_c, 0, 72, 0
1, 24720, Note_on_c, 0, 74, 72
1, 24720, Note_on_c, 0, 71, 72
1, 24720, Note_on_c, 1, 64, 70
1, 24743, Note_on_c, 0, 74, 0
1, 24743, Note_on_c, 0, 71, 0
1, 24743, Note_on_c, 1, 64, 0
1, 24744, Note_on_c, 0, 72, 71
1, 24744, Note_on_c, 0, 69, 71
1, 24744, Note_on_c, 1, 66, 70
1, 24767, Note_on_c, 0, 72, 0
1, 24767, Note_on_c, 0, 69, 0
1, 24767, Note_on_c, 1, 66, 0
1, 24768, Note_on_c, 0, 71, 70
1, 24768, Note_on_c, 1, 67, 70
1, 24791, Note_on_c, 0, 71, 0
1, 24792, Note_on_c, 0, 72, 70
1, 24815, Note_on_c, 0, 72, 0
1, 24816, Note_on_c, 0, 71, 71
1, 24839, Note_on_c, 0, 71, 0
1, 24840, Note_on_c, 0, 72, 72
1, 24857, Note_on_c, 1, 67, 0
1, 24863, Note_on_c, 0, 72, 0
1, 24864, Note_on_c, 0, 71, 73
1, 24864, Note_on_c, 1, 65, 71
1, 24887, Note_on_c, 0, 71, 0
1, 24888, Note_on_c, 0, 74, 73
1, 24909, Note_on_c, 1, 65, 0
1, 24911, Note_on_c, 0, 74, 0
1, 24912, Note_on_c, 0, 72, 74
1, 24912, Note_on_c, 1, 64, 72
1, 24935, Note_on_c, 1, 64, 0
1, 24936, Note_on_c, 1, 67, 72
1, 24957, Note_on_c, 0, 72, 0
1, 24959, Note_on_c, 1, 67, 0
1, 24960, Note_on_c, 0, 74, 76
1, 24960, Note_on_c, 1, 62, 73
1, 24983, Note_on_c, 1, 62, 0
1, 24984, Note_on_c, 1, 65, 73
1, 25005, Note_on_c, 0, 74, 0
1, 25007, Note_on_c, 1, 65, 0
1, 25008, Note_on_c, 0, 76, 77
1, 25008, Note_on_c, 1, 60, 73
1, 25031, Note_on_c, 1, 60, 0
1, 25032, Note_on_c, 1, 64, 74
1, 25053, Note_on_c, 0, 76, 0
1, 25055, Note_on_c, 1, 64, 0
1, 25056, Note_on_c, 0, 74, 79
1, 25056, Note_on_c, 1, 59, 74
1, 25079, Note_on_c, 1, 59, 0
1, 25080, Note_on_c, 1, 62, 75
1, 25101, Note_on_c, 0, 74, 0
1, 25103, Note_on_c, 1, 62, 0
1, 25104, Note_on_c, 0, 79, 80
1, 25104, Note_on_c, 1, 55, 75
1, 25124, Note_on_c, 0, 79, 0
1, 25127, Note_on_c, 1, 55, 0
1, 25128, Note_on_c, 1, 59, 75
1, 25151, Note_on_c, 1, 59, 0
1, 25152, Note_on_c, 0, 79, 82
1, 25152, Note_on_c, 1, 54, 76
1, 25172, Note_on_c, 0, 79, 0
1, 25175, Note_on_c, 1, 54, 0
1, 25176, Note_on_c, 1, 57, 76
1, 25199, Note_on_c, 1, 57, 0
1, 25200, Note_on_c, 0, 81, 84
1, 25200, Note_on_c, 1, 52, 77
1, 25223, Note_on_c, 1, 52, 0
1, 25224, Note_on_c, 0, 81, 0
1, 25224, Note_on_c, 0, 79, 84
1, 25224, Note_on_c, 1, 55, 75
1, 25245, Note_on_c, 0, 79, 0
1, 25247, Note_on_c, 1, 55, 0
1, 25248, Note_on_c, 0, 78, 80
1, 25248, Note_on_c, 1, 57, 74
1, 25271, Note_on_c, 0, 78, 0
1, 25271, Note_on_c, 1, 57, 0
1, 25272, Note_on_c, 0, 76, 78
1, 25272, Note_on_c, 1, 61, 72
1, 25295, Note_on_c, 0, 76, 0
1, 25295, Note_on_c, 1, 61, 0
1, 25296, Note_on_c, 0, 74, 76
1, 25296, Note_on_c, 1, 64, 71
1, 25319, Note_on_c, 0, 74, 0
1, 25319, Note_on_c, 1, 64, 0
1, 25320, Note_on_c, 0, 73, 74
1, 25320, Note_on_c, 1, 67, 69
1, 25343, Note_on_c, 0, 73, 0
1, 25344, Note_on_c, 0, 76, 77
1, 25344, Note_on_c, 1, 67, 68
1, 25344, Note_on_c, 1, 62, 68
1, 25392, Note_on_c, 0, 76, 0
1, 25392, Note_on_c, 0, 74, 75
1, 25392, Note_on_c, 1, 67, 0
1, 25392, Note_on_c, 1, 66, 65
1, 25437, Note_on_c, 0, 74, 0
1, 25437, Note_on_c, 1, 66, 0
1, 25437, Note_on_c, 1, 62, 0
1, 25440, Note_on_c, 0, 74, 73
1, 25440, Note_on_c, 1, 66, 62
1, 25440, Note_on_c, 1, 62, 62
1, 25460, Note_on_c, 0, 74, 0
1, 25460, Note_on_c, 1, 66, 0
1, 25460, Note_on_c, 1, 62, 0
1, 25488, Note_on_c, 0, 74, 71
1, 25488, Note_on_c, 1, 66, 62
1, 25488, Note_on_c, 1, 62, 62
1, 25533, Note_on_c, 0, 74, 0
1, 25533, Note_on_c, 1, 66, 0
1, 25533, Note_on_c, 1, 62, 0
1, 25584, Note_on_c, 0, 79, 77
1, 25584, Note_on_c, 1, 71, 62
1, 25604, Note_on_c, 0, 79, 0
1, 25607, Note_on_c, 1, 71, 0
1, 25608, Note_on_c, 1, 74, 62
1, 25631, Note_on_c, 1, 74, 0
1, 25632, Note_on_c, 0, 79, 77
1, 25632, Note_on_c, 1, 71, 62
1, 25655, Note_on_c, 1, 71, 0
1, 25656, Note_on_c, 1, 74, 62
1, 25679, Note_on_c, 1, 74, 0
1, 25680, Note_on_c, 1, 71, 62
1, 25703, Note_on_c, 1, 71, 0
1, 25704, Note_on_c, 1, 74, 62
1, 25721, Note_on_c, 0, 79, 0
1, 25727, Note_on_c, 1, 74, 0
1, 25728, Note_on_c, 0, 83, 77
1, 25728, Note_on_c, 1, 72, 62
1, 25740, Note_on_c, 0, 83, 0
1, 25740, Note_on_c, 0, 81, 77
1, 25751, Note_on_c, 1, 72, 0
1, 25752, Note_on_c, 1, 76, 62
1, 25773, Note_on_c, 0, 81, 0
1, 25775, Note_on_c, 1, 76, 0
1, 25776, Note_on_c, 0, 79, 77
1, 25776, Note_on_c, 1, 71, 62
1, 25799, Note_on_c, 1, 71, 0
1, 25800, Note_on_c, 1, 74, 62
1, 25821, Note_on_c, 0, 79, 0
1, 25823, Note_on_c, 1, 74, 0
1, 25824, Note_on_c, 0, 78, 77
1, 25824, Note_on_c, 1, 69, 62
1, 25847, Note_on_c, 1, 69, 0
1, 25848, Note_on_c, 1, 72, 62
1, 25869, Note_on_c, 0, 78, 0
1, 25871, Note_on_c, 1, 72, 0
1, 25872, Note_on_c, 0, 76, 77
1, 25872, Note_on_c, 1, 67, 62
1, 25895, Note_on_c, 1, 67, 0
1, 25896, Note_on_c, 1, 71, 62
1, 25917, Note_on_c, 0, 76, 0
1, 25919, Note_on_c, 1, 71, 0
1, 25920, Note_on_c, 0, 74, 77
1, 25920, Note_on_c, 1, 66, 62
1, 25943, Note_on_c, 1, 66, 0
1, 25944, Note_on_c, 1, 69, 62
1, 25965, Note_on_c, 0, 74, 0
1, 25967, Note_on_c, 1, 69, 0
1, 25968, Note_on_c, 0, 74, 77
1, 25968, Note_on_c, 1, 66, 62
1, 25991, Note_on_c, 1, 66, 0
1, 25992, Note_on_c, 1, 69, 62
1, 26013, Note_on_c, 0, 74, 0
1, 26015, Note_on_c, 1, 69, 0
1, 26016, Note_on_c, 0, 74, 77
1, 26016, Note_on_c, 1, 66, 62
1, 26039, Note_on_c, 1, 66, 0
1, 26040, Note_on_c, 1, 69, 62
1, 26061, Note_on_c, 0, 74, 0
1, 26063, Note_on_c, 1, 69, 0
1, 26064, Note_on_c, 0, 74, 62
1, 26064, Note_on_c, 1, 66, 62
1, 26087, Note_on_c, 1, 66, 0
1, 26088, Note_on_c, 1, 69, 64
1, 26111, Note_on_c, 1, 69, 0
1, 26112, Note_on_c, 1, 66, 67
1, 26135, Note_on_c, 1, 66, 0
1, 26136, Note_on_c, 1, 69, 69
1, 26159, Note_on_c, 1, 69, 0
1, 26160, Note_on_c, 0, 74, 0
1, 26160, Note_on_c, 0, 75, 76
1, 26160, Note_on_c, 1, 66, 72
1, 26183, Note_on_c, 1, 66, 0
1, 26184, Note_on_c, 1, 69, 74
1, 26205, Note_on_c, 0, 75, 0
1, 26207, Note_on_c, 1, 69, 0
1, 26208, Note_on_c, 0, 76, 84
1, 26208, Note_on_c, 1, 67, 77
1, 26231, Note_on_c, 0, 76, 0
1, 26232, Note_on_c, 0, 75, 85
1, 26255, Note_on_c, 0, 75, 0
1, 26256, Note_on_c, 0, 78, 86
1, 26279, Note_on_c, 0, 78, 0
1, 26280, Note_on_c, 0, 76, 87
1, 26297, Note_on_c, 1, 67, 0
1, 26303, Note_on_c, 0, 76, 0
1, 26304, Note_on_c, 0, 79, 88
1, 26327, Note_on_c, 0, 79, 0
1, 26328, Note_on_c, 0, 78, 89
1, 26351, Note_on_c, 0, 78, 0
1, 26352, Note_on_c, 0, 81, 90
1, 26352, Note_on_c, 1, 57, 77
1, 26355, Note_on_c, 1, 61, 77
1, 26358, Note_on_c, 1, 64, 77
1, 26361, Note_on_c, 1, 67, 77
1, 26375, Note_on_c, 0, 81, 0
1, 26376, Note_on_c, 0, 79, 89
1, 26399, Note_on_c, 0, 79, 0
1, 26400, Note_on_c, 0, 78, 88
1, 26423, Note_on_c, 0, 78, 0
1, 26424, Note_on_c, 0, 76, 87
1, 26445, Note_on_c, 1, 67, 0
1, 26445, Note_on_c, 1, 64, 0
1, 26445, Note_on_c, 1, 61, 0
1, 26445, Note_on_c, 1, 57, 0
1, 26447, Note_on_c, 0, 76, 0
1, 26448, Note_on_c, 0, 74, 86
1, 26471, Note_on_c, 0, 74, 0
1, 26472, Note_on_c, 0, 73, 85
1, 26495, Note_on_c, 0, 73, 0
1, 26496, Note_on_c, 0, 74, 84
1, 26520, Note_on_c, 1, 50, 77
1, 26541, Note_on_c, 0, 74, 0
1, 26543, Note_on_c, 1, 50, 0
1, 26544, Note_on_c, 1, 54, 77
1, 26567, Note_on_c, 1, 54, 0
1, 26568, Note_on_c, 1, 50, 77
1, 26591, Note_on_c, 1, 50, 0
1, 26592, Note_on_c, 0, 74, 100
1, 26592, Note_on_c, 1, 52, 77
1, 26612, Note_on_c, 0, 74, 0
1, 26615, Note_on_c, 1, 52, 0
1, 26616, Note_on_c, 1, 55, 77
1, 26639, Note_on_c, 1, 55, 0
1, 26640, Note_on_c, 0, 74, 84
1, 26664, Note_on_c, 1, 54, 77
1, 26685, Note_on_c, 0, 74, 0
1, 26687, Note_on_c, 1, 54, 0
1, 26688, Note_on_c, 1, 57, 77
1, 26711, Note_on_c, 1, 57, 0
1, 26712, Note_on_c, 1, 54, 77
1, 26735, Note_on_c, 1, 54, 0
1, 26736, Note_on_c, 0, 74, 100
1, 26736, Note_on_c, 1, 55, 77
1, 26756, Note_on_c, 0, 74, 0
1, 26759, Note_on_c, 1, 55, 0
1, 26760, Note_on_c, 1, 59, 77
1, 26783, Note_on_c, 1, 59, 0
1, 26784, Note_on_c, 0, 74, 84
1, 26808, Note_on_c, 1, 57, 77
1, 26829, Note_on_c, 0, 74, 0
1, 26831, Note_on_c, 1, 57, 0
1, 26832, Note_on_c, 1, 60, 77
1, 26855, Note_on_c, 1, 60, 0
1, 26856, Note_on_c, 1, 57, 77
1, 26879, Note_on_c, 1, 57, 0
1, 26880, Note_on_c, 0, 74, 100
1, 26880, Note_on_c, 1, 59, 77
1, 26900, Note_on_c, 0, 74, 0
1, 26903, Note_on_c, 1, 59, 0
1, 26904, Note_on_c, 1, 55, 77
1, 26927, Note_on_c, 1, 55, 0
1, 26928, Note_on_c, 0, 74, 84
1, 26952, Note_on_c, 1, 54, 84
1, 26973, Note_on_c, 0, 74, 0
1, 26975, Note_on_c, 1, 54, 0
1, 26976, Note_on_c, 1, 57, 82
1, 26999, Note_on_c, 1, 57, 0
1, 27000, Note_on_c, 1, 54, 80
1, 27023, Note_on_c, 1, 54, 0
1, 27024, Note_on_c, 0, 74, 100
1, 27024, Note_on_c, 1, 55, 78
1, 27044, Note_on_c, 0, 74, 0
1, 27047, Note_on_c, 1, 55, 0
1, 27048, Note_on_c, 1, 52, 76
1, 27071, Note_on_c, 1, 52, 0
1, 27072, Note_on_c, 1, 50, 74
1, 27096, Note_on_c, 0, 74, 70
1, 27117, Note_on_c, 1, 50, 0
1, 27119, Note_on_c, 0, 74, 0
1, 27120, Note_on_c, 0, 78, 70
1, 27143, Note_on_c, 0, 78, 0
1, 27144, Note_on_c, 0, 74, 70
1, 27167, Note_on_c, 0, 74, 0
1, 27168, Note_on_c, 0, 76, 70
1, 27168, Note_on_c, 1, 50, 86
1, 27188, Note_on_c, 1, 50, 0
1, 27191, Note_on_c, 0, 76, 0
1, 27192, Note_on_c, 0, 79, 70
1, 27215, Note_on_c, 0, 79, 0
1, 27216, Note_on_c, 1, 50, 70
1, 27240, Note_on_c, 0, 78, 62
1, 27261, Note_on_c, 1, 50, 0
1, 27263, Note_on_c, 0, 78, 0
1, 27264, Note_on_c, 0, 81, 65
1, 27287, Note_on_c, 0, 81, 0
1, 27288, Note_on_c, 0, 78, 68
1, 27311, Note_on_c, 0, 78, 0
1, 27312, Note_on_c, 0, 79, 71
1, 27312, Note_on_c, 1, 38, 93
1, 27332, Note_on_c, 1, 38, 0
1, 27335, Note_on_c, 0, 79, 0
1, 27336, Note_on_c, 0, 83, 74
1, 27359, Note_on_c, 0, 83, 0
1, 27360, Note_on_c, 1, 38, 84
1, 27384, Note_on_c, 0, 81, 80
1, 27408, Note_on_c, 0, 81, 0
1, 27408, Note_on_c, 0, 84, 84
1, 27431, Note_on_c, 0, 84, 0
1, 27432, Note_on_c, 0, 78, 84
1, 27456, Note_on_c, 0, 78, 0
1, 27456, Note_on_c, 0, 81, 84
1, 27479, Note_on_c, 0, 81, 0
1, 27480, Note_on_c, 0, 72, 84
1, 27504, Note_on_c, 0, 72, 0
1, 27504, Note_on_c, 0, 78, 84
1, 27527, Note_on_c, 0, 78, 0
1, 27528, Note_on_c, 0, 69, 84
1, 27552, Note_on_c, 0, 69, 0
1, 27552, Note_on_c, 0, 72, 84
1, 27575, Note_on_c, 0, 72, 0
1, 27576, Note_on_c, 0, 66, 84
1, 27600, Note_on_c, 0, 66, 0
1, 27600, Note_on_c, 0, 69, 84
1, 27623, Note_on_c, 0, 69, 0
1, 27624, Note_on_c, 0, 60, 84
1, 27625, Note_on_c, 1, 38, 0
1, 27648, Note_on_c, 0, 60, 0
1, 27648, Note_on_c, 0, 76, 84
1, 27672, Note_on_c, 1, 48, 84
1, 27696, Note_on_c, 1, 48, 0
1, 27696, Note_on_c, 1, 57, 84
1, 27719, Note_on_c, 1, 57, 0
1, 27720, Note_on_c, 1, 54, 84
1, 27744, Note_on_c, 1, 54, 0
1, 27744, Note_on_c, 1, 60, 84
1, 27767, Note_on_c, 1, 60, 0
1, 27768, Note_on_c, 1, 57, 84
1, 27792, Tempo, 1500000
1, 27792, Note_on_c, 1, 57, 0
1, 27792, Note_on_c, 1, 66, 84
1, 27881, Note_on_c, 0, 76, 0
1, 27888, Tempo, 705882
1, 27888, Note_on_c, 0, 74, 70
1, 27900, Note_on_c, 0, 74, 0
1, 27900, Note_on_c, 0, 72, 70
1, 27912, Note_on_c, 0, 72, 0
1, 27912, Note_on_c, 0, 71, 70
1, 27924, Note_on_c, 0, 71, 0
1, 27924, Note_on_c, 0, 69, 70
1, 27933, Note_on_c, 1, 66, 0
1, 27936, Note_on_c, 0, 69, 0
1, 27936, Note_on_c, 0, 67, 70
1, 27936, Note_on_c, 1, 59, 62
1, 27936, Note_on_c, 1, 55, 62
1, 28025, Note_on_c, 0, 67, 0
1, 28025, Note_on_c, 1, 59, 0
1, 28025, Note_on_c, 1, 55, 0
1, 28032, Note_on_c, 0, 71, 70
1, 28032, Note_on_c, 1, 60, 62
1, 28032, Note_on_c, 1, 55, 62
1, 28044, Note_on_c, 0, 71, 0
1, 28044, Note_on_c, 0, 69, 70
1, 28052, Note_on_c, 1, 60, 0
1, 28052, Note_on_c, 1, 55, 0
1, 28077, Note_on_c, 0, 69, 0
1, 28080, Note_on_c, 0, 62, 70
1, 28080, Note_on_c, 1, 60, 62
1, 28080, Note_on_c, 1, 55, 62
1, 28125, Note_on_c, 0, 62, 0
1, 28128, Note_on_c, 0, 63, 69
1, 28151, Note_on_c, 0, 63, 0
1, 28152, Note_on_c, 0, 64, 68
1, 28169, Note_on_c, 1, 60, 0
1, 28169, Note_on_c, 1, 55, 0
1, 28175, Note_on_c, 0, 64, 0
1, 28176, Note_on_c, 0, 65, 68
1, 28176, Note_on_c, 1, 60, 62
1, 28176, Note_on_c, 1, 55, 62
1, 28196, Note_on_c, 1, 60, 0
1, 28196, Note_on_c, 1, 55, 0
1, 28199, Note_on_c, 0, 65, 0
1, 28200, Note_on_c, 0, 66, 67
1, 28223, Note_on_c, 0, 66, 0
1, 28224, Note_on_c, 0, 67, 67
1, 28224, Note_on_c, 1, 59, 62
1, 28224, Note_on_c, 1, 55, 62
1, 28244, Note_on_c, 0, 67, 0
1, 28247, Note_on_c, 1, 59, 0
1, 28248, Note_on_c, 1, 58, 67
1, 28271, Note_on_c, 1, 58, 0
1, 28272, Note_on_c, 0, 67, 66
1, 28272, Note_on_c, 1, 59, 72
1, 28292, Note_on_c, 0, 67, 0
1, 28295, Note_on_c, 1, 59, 0
1, 28296, Note_on_c, 1, 58, 77
1, 28319, Note_on_c, 1, 58, 0
1, 28320, Note_on_c, 0, 67, 65
1, 28320, Note_on_c, 1, 59, 72
1, 28340, Note_on_c, 0, 67, 0
1, 28343, Note_on_c, 1, 59, 0
1, 28344, Note_on_c, 1, 58, 67
1, 28367, Note_on_c, 1, 58, 0
1, 28368, Note_on_c, 0, 67, 64
1, 28368, Note_on_c, 1, 59, 62
1, 28413, Note_on_c, 1, 55, 0
1, 28457, Note_on_c, 0, 67, 0
1, 28457, Note_on_c, 1, 59, 0
1, 28464, Note_on_c, 0, 69, 62
1, 28464, Note_on_c, 0, 62, 62
1, 28464, Note_on_c, 1, 54, 62
1, 28484, Note_on_c, 0, 69, 0
1, 28484, Note_on_c, 0, 62, 0
1, 28484, Note_on_c, 1, 54, 0
1, 28512, Note_on_c, 0, 72, 70
1, 28512, Note_on_c, 0, 62, 62
1, 28512, Note_on_c, 1, 57, 62
1, 28518, Note_on_c, 0, 72, 0
1, 28518, Note_on_c, 0, 71, 70
1, 28518, Note_on_c, 1, 57, 0
1, 28518, Note_on_c, 1, 55, 62
1, 28535, Note_on_c, 0, 71, 0
1, 28535, Note_on_c, 1, 55, 0
1, 28536, Note_on_c, 0, 70, 71
1, 28536, Note_on_c, 1, 54, 63
1, 28559, Note_on_c, 0, 70, 0
1, 28559, Note_on_c, 1, 54, 0
1, 28560, Note_on_c, 0, 71, 72
1, 28560, Note_on_c, 1, 55, 64
1, 28583, Note_on_c, 0, 71, 0
1, 28583, Note_on_c, 1, 55, 0
1, 28584, Note_on_c, 0, 70, 73
1, 28584, Note_on_c, 1, 54, 66
1, 28607, Note_on_c, 0, 70, 0
1, 28607, Note_on_c, 1, 54, 0
1, 28608, Note_on_c, 0, 71, 74
1, 28608, Note_on_c, 1, 55, 67
1, 28631, Note_on_c, 0, 71, 0
1, 28631, Note_on_c, 1, 55, 0
1, 28632, Note_on_c, 0, 74, 75
1, 28632, Note_on_c, 1, 59, 68
1, 28645, Note_on_c, 0, 62, 0
1, 28655, Note_on_c, 0, 74, 0
1, 28655, Note_on_c, 1, 59, 0
1, 28656, Note_on_c, 0, 74, 93
1, 28656, Note_on_c, 0, 66, 62
1, 28656, Note_on_c, 0, 62, 62
1, 28656, Note_on_c, 1, 57, 70
1, 28704, Note_on_c, 0, 74, 0
1, 28704, Note_on_c, 0, 72, 77
1, 28745, Note_on_c, 1, 57, 0
1, 28749, Note_on_c, 0, 72, 0
1, 28752, Note_on_c, 0, 71, 77
1, 28752, Note_on_c, 0, 67, 77
1, 28752, Note_on_c, 1, 55, 70
1, 28772, Note_on_c, 0, 71, 0
1, 28772, Note_on_c, 0, 67, 0
1, 28772, Note_on_c, 1, 55, 0
1, 28789, Note_on_c, 0, 66, 0
1, 28789, Note_on_c, 0, 62, 0
1, 28800, Note_on_c, 0, 71, 93
1, 28800, Note_on_c, 0, 67, 93
1, 28800, Note_on_c, 1, 50, 70
1, 28823, Note_on_c, 1, 50, 0
1, 28824, Note_on_c, 1, 61, 70
1, 28847, Note_on_c, 1, 61, 0
1, 28848, Note_on_c, 0, 71, 0
1, 28848, Note_on_c, 0, 67, 0
1, 28848, Note_on_c, 0, 69, 74
1, 28848, Note_on_c, 0, 66, 74
1, 28848, Note_on_c, 1, 62, 70
1, 28868, Note_on_c, 0, 69, 0
1, 28868, Note_on_c, 0, 66, 0
1, 28871, Note_on_c, 1, 62, 0
1, 28872, Note_on_c, 1, 61, 70
1, 28895, Note_on_c, 1, 61, 0
1, 28896, Note_on_c, 0, 69, 72
1, 28896, Note_on_c, 0, 66, 72
1, 28896, Note_on_c, 1, 62, 70
1, 28916, Note_on_c, 0, 69, 0
1, 28916, Note_on_c, 0, 66, 0
1, 28919, Note_on_c, 1, 62, 0
1, 28920, Note_on_c, 1, 61, 70
1, 28943, Note_on_c, 1, 61, 0
1, 28944, Note_on_c, 0, 69, 86
1, 28944, Note_on_c, 0, 66, 86
1, 28944, Note_on_c, 1, 62, 70
1, 28967, Note_on_c, 1, 62, 0
1, 28968, Note_on_c, 1, 64, 70
1, 28991, Note_on_c, 1, 64, 0
1, 28992, Note_on_c, 1, 60, 70
1, 29015, Note_on_c, 1, 60, 0
1, 29016, Note_on_c, 1, 62, 70
1, 29039, Note_on_c, 1, 62, 0
1, 29040, Note_on_c, 0, 69, 0
1, 29040, Note_on_c, 0, 66, 0
1, 29040, Note_on_c, 0, 71, 72
1, 29040, Note_on_c, 0, 68, 72
1, 29040, Note_on_c, 1, 59, 70
1, 29063, Note_on_c, 1, 59, 0
1, 29064, Note_on_c, 1, 60, 70
1, 29085, Note_on_c, 0, 71, 0
1, 29085, Note_on_c, 0, 68, 0
1, 29087, Note_on_c, 1, 60, 0
1, 29088, Note_on_c, 0, 72, 73
1, 29088, Note_on_c, 0, 69, 73
1, 29088, Note_on_c, 1, 57, 70
1, 29111, Note_on_c, 1, 57, 0
1, 29112, Note_on_c, 1, 64, 70
1, 29133, Note_on_c, 0, 72, 0
1, 29133, Note_on_c, 0, 69, 0
1, 29135, Note_on_c, 1, 64, 0
1, 29136, Note_on_c, 0, 74, 74
1, 29136, Note_on_c, 0, 71, 74
1, 29136, Note_on_c, 1, 60, 70
1, 29159, Note_on_c, 1, 60, 0
1, 29160, Note_on_c, 1, 59, 70
1, 29181, Note_on_c, 0, 74, 0
1, 29181, Note_on_c, 0, 71, 0
1, 29183, Note_on_c, 1, 59, 0
1, 29184, Note_on_c, 0, 76, 75
1, 29184, Note_on_c, 0, 72, 75
1, 29184, Note_on_c, 1, 57, 70
1, 29204, Note_on_c, 0, 76, 0
1, 29204, Note_on_c, 0, 72, 0
1, 29207, Note_on_c, 1, 57, 0
1, 29208, Note_on_c, 1, 55, 70
1, 29231, Note_on_c, 1, 55, 0
1, 29232, Note_on_c, 0, 76, 93
1, 29232, Note_on_c, 0, 72, 93
1, 29232, Note_on_c, 1, 54, 70
1, 29255, Note_on_c, 1, 54, 0
1, 29256, Note_on_c, 1, 55, 70
1, 29279, Note_on_c, 1, 55, 0
1, 29280, Note_on_c, 1, 57, 70
1, 29303, Note_on_c, 1, 57, 0
1, 29304, Note_on_c, 1, 50, 70
1, 29327, Note_on_c, 1, 50, 0
1, 29328, Note_on_c, 0, 76, 0
1, 29328, Note_on_c, 0, 72, 0
1, 29328, Note_on_c, 0, 74, 72
1, 29328, Note_on_c, 0, 71, 72
1, 29328, Note_on_c, 1, 52, 70
1, 29351, Note_on_c, 0, 74, 0
1, 29351, Note_on_c, 0, 71, 0
1, 29351, Note_on_c, 1, 52, 0
1, 29352, Note_on_c, 0, 72, 71
1, 29352, Note_on_c, 0, 69, 71
1, 29352, Note_on_c, 1, 54, 70
1, 29375, Note_on_c, 0, 72, 0
1, 29375, Note_on_c, 0, 69, 0
1, 29375, Note_on_c, 1, 54, 0
1, 29376, Note_on_c, 0, 71, 77
1, 29376, Note_on_c, 0, 67, 77
1, 29376, Note_on_c, 1, 55, 70
1, 29399, Note_on_c, 1, 55, 0
1, 29400, Note_on_c, 1, 54, 70
1, 29421, Note_on_c, 0, 71, 0
1, 29421, Note_on_c, 0, 67, 0
1, 29423, Note_on_c, 1, 54, 0
1, 29424, Note_on_c, 0, 72, 75
1, 29424, Note_on_c, 0, 69, 75
1, 29424, Note_on_c, 1, 52, 70
1, 29447, Note_on_c, 1, 52, 0
1, 29448, Note_on_c, 1, 50, 70
1, 29469, Note_on_c, 0, 72, 0
1, 29469, Note_on_c, 0, 69, 0
1, 29471, Note_on_c, 1, 50, 0
1, 29472, Note_on_c, 0, 74, 74
1, 29472, Note_on_c, 0, 71, 74
1, 29472, Note_on_c, 1, 48, 70
1, 29495, Note_on_c, 1, 48, 0
1, 29496, Note_on_c, 1, 47, 70
1, 29517, Note_on_c, 0, 74, 0
1, 29517, Note_on_c, 0, 71, 0
1, 29519, Note_on_c, 1, 47, 0
1, 29520, Note_on_c, 0, 67, 73
1, 29520, Note_on_c, 0, 59, 73
1, 29520, Note_on_c, 1, 52, 70
1, 29543, Note_on_c, 1, 52, 0
1, 29544, Note_on_c, 1, 50, 70
1, 29565, Note_on_c, 0, 67, 0
1, 29565, Note_on_c, 0, 59, 0
1, 29567, Note_on_c, 1, 50, 0
1, 29568, Note_on_c, 0, 69, 72
1, 29568, Note_on_c, 0, 60, 72
1, 29568, Note_on_c, 1, 48, 70
1, 29591, Note_on_c, 1, 48, 0
1, 29592, Note_on_c, 1, 47, 70
1, 29613, Note_on_c, 0, 69, 0
1, 29613, Note_on_c, 0, 60, 0
1, 29615, Note_on_c, 1, 47, 0
1, 29616, Note_on_c, 0, 71, 71
1, 29616, Note_on_c, 0, 62, 71
1, 29616, Note_on_c, 1, 45, 70
1, 29639, Note_on_c, 1, 45, 0
1, 29640, Note_on_c, 1, 43, 70
1, 29661, Note_on_c, 0, 71, 0
1, 29661, Note_on_c, 0, 62, 0
1, 29663, Note_on_c, 1, 43, 0
1, 29664, Note_on_c, 0, 69, 70
1, 29664, Note_on_c, 1, 48, 70
1, 29688, Note_on_c, 0, 64, 62
1, 29709, Note_on_c, 0, 69, 0
1, 29709, Note_on_c, 1, 48, 0
1, 29712, Note_on_c, 0, 71, 73
1, 29712, Note_on_c, 1, 47, 67
1, 29733, Note_on_c, 0, 64, 0
1, 29736, Note_on_c, 0, 62, 62
1, 29757, Note_on_c, 0, 71, 0
1, 29757, Note_on_c, 1, 47, 0
1, 29760, Note_on_c, 0, 72, 77
1, 29760, Note_on_c, 1, 45, 64
1, 29781, Note_on_c, 0, 62, 0
1, 29784, Note_on_c, 0, 60, 62
1, 29805, Note_on_c, 0, 72, 0
1, 29805, Note_on_c, 1, 45, 0
1, 29808, Note_on_c, 0, 72, 91
1, 29808, Note_on_c, 1, 50, 62
1, 29829, Note_on_c, 0, 60, 0
1, 29832, Note_on_c, 0, 60, 62
1, 29856, Note_on_c, 0, 72, 0
1, 29856, Note_on_c, 0, 69, 73
1, 29877, Note_on_c, 0, 60, 0
1, 29880, Note_on_c, 0, 60, 62
1, 29901, Note_on_c, 0, 69, 0
1, 29904, Note_on_c, 0, 66, 71
1, 29925, Note_on_c, 0, 60, 0
1, 29928, Note_on_c, 0, 60, 62
1, 29941, Note_on_c, 1, 50, 0
1, 29949, Note_on_c, 0, 66, 0
1, 29952, Note_on_c, 0, 69, 84
1, 29952, Note_on_c, 1, 43, 70
1, 29975, Note_on_c, 1, 43, 0
1, 29976, Note_on_c, 1, 54, 68
1, 29999, Note_on_c, 1, 54, 0
1, 30000, Note_on_c, 1, 55, 67
1, 30023, Note_on_c, 1, 55, 0
1, 30024, Note_on_c, 1, 54, 66
1, 30047, Note_on_c, 1, 54, 0
1, 30048, Note_on_c, 1, 55, 64
1, 30071, Note_on_c, 1, 55, 0
1, 30072, Note_on_c, 1, 54, 63
1, 30095, Note_on_c, 1, 54, 0
1, 30096, Note_on_c, 0, 69, 0
1, 30096, Note_on_c, 0, 67, 78
1, 30096, Note_on_c, 0, 60, 0
1, 30096, Note_on_c, 0, 59, 62
1, 30096, Note_on_c, 1, 55, 62
1, 30141, Note_on_c, 0, 67, 0
1, 30141, Note_on_c, 0, 59, 0
1, 30141, Note_on_c, 1, 55, 0
1, 30192, Note_on_c, 0, 79, 77
1, 30192, Note_on_c, 1, 71, 62
1, 30212, Note_on_c, 0, 79, 0
1, 30216, Note_on_c, 1, 71, 0
1, 30216, Note_on_c, 1, 74, 62
1, 30239, Note_on_c, 1, 74, 0
1, 30240, Note_on_c, 0, 79, 77
1, 30240, Note_on_c, 1, 71, 62
1, 30263, Note_on_c, 1, 71, 0
1, 30264, Note_on_c, 1, 74, 62
1, 30287, Note_on_c, 1, 74, 0
1, 30288, Note_on_c, 1, 71, 62
1, 30311, Note_on_c, 1, 71, 0
1, 30312, Note_on_c, 1, 74, 62
1, 30329, Note_on_c, 0, 79, 0
1, 30335, Note_on_c, 1, 74, 0
1, 30336, Note_on_c, 0, 83, 77
1, 30336, Note_on_c, 1, 72, 62
1, 30348, Note_on_c, 0, 83, 0
1, 30348, Note_on_c, 0, 81, 77
1, 30359, Note_on_c, 1, 72, 0
1, 30360, Note_on_c, 1, 76, 62
1, 30381, Note_on_c, 0, 81, 0
1, 30383, Note_on_c, 1, 76, 0
1, 30384, Note_on_c, 0, 79, 77
1, 30384, Note_on_c, 1, 71, 62
1, 30407, Note_on_c, 1, 71, 0
1, 30408, Note_on_c, 1, 74, 62
1, 30429, Note_on_c, 0, 79, 0
1, 30431, Note_on_c, 1, 74, 0
1, 30432, Note_on_c, 0, 78, 77
1, 30432, Note_on_c, 1, 69, 62
1, 30455, Note_on_c, 1, 69, 0
1, 30456, Note_on_c, 1, 72, 62
1, 30477, Note_on_c, 0, 78, 0
1, 30479, Note_on_c, 1, 72, 0
1, 30480, Note_on_c, 0, 76, 77
1, 30480, Note_on_c, 1, 67, 62
1, 30503, Note_on_c, 1, 67, 0
1, 30504, Note_on_c, 1, 71, 62
1, 30525, Note_on_c, 0, 76, 0
1, 30527, Note_on_c, 1, 71, 0
1, 30528, Note_on_c, 0, 74, 77
1, 30528, Note_on_c, 1, 66, 62
1, 30551, Note_on_c, 1, 66, 0
1, 30552, Note_on_c, 1, 69, 62
1, 30573, Note_on_c, 0, 74, 0
1, 30575, Note_on_c, 1, 69, 0
1, 30576, Note_on_c, 0, 74, 77
1, 30576, Note_on_c, 1, 66, 62
1, 30599, Note_on_c, 1, 66, 0
1, 30600, Note_on_c, 1, 69, 62
1, 30621, Note_on_c, 0, 74, 0
1, 30623, Note_on_c, 1, 69, 0
1, 30624, Note_on_c, 0, 74, 77
1, 30624, Note_on_c, 1, 66, 62
1, 30647, Note_on_c, 1, 66, 0
1, 30648, Note_on_c, 1, 69, 62
1, 30669, Note_on_c, 0, 74, 0
1, 30671, Note_on_c, 1, 69, 0
1, 30672, Note_on_c, 0, 74, 62
1, 30672, Note_on_c, 1, 66, 62
1, 30695, Note_on_c, 1, 66, 0
1, 30696, Note_on_c, 1, 69, 64
1, 30719, Note_on_c, 1, 69, 0
1, 30720, Note_on_c, 1, 66, 67
1, 30743, Note_on_c, 1, 66, 0
1, 30744, Note_on_c, 1, 69, 69
1, 30767, Note_on_c, 1, 69, 0
1, 30768, Note_on_c, 0, 74, 0
1, 30768, Note_on_c, 0, 75, 76
1, 30768, Note_on_c, 1, 66, 72
1, 30791, Note_on_c, 1, 66, 0
1, 30792, Note_on_c, 1, 69, 74
1, 30813, Note_on_c, 0, 75, 0
1, 30815, Note_on_c, 1, 69, 0
1, 30816, Note_on_c, 0, 76, 84
1, 30816, Note_on_c, 1, 67, 77
1, 30839, Note_on_c, 0, 76, 0
1, 30840, Note_on_c, 0, 75, 85
1, 30863, Note_on_c, 0, 75, 0
1, 30864, Note_on_c, 0, 78, 86
1, 30887, Note_on_c, 0, 78, 0
1, 30888, Note_on_c, 0, 76, 87
1, 30905, Note_on_c, 1, 67, 0
1, 30911, Note_on_c, 0, 76, 0
1, 30912, Note_on_c, 0, 79, 88
1, 30935, Note_on_c, 0, 79, 0
1, 30936, Note_on_c, 0, 78, 89
1, 30959, Note_on_c, 0, 78, 0
1, 30960, Note_on_c, 0, 81, 90
1, 30960, Note_on_c, 1, 57, 77
1, 30963, Note_on_c, 1, 61, 77
1, 30966, Note_on_c, 1, 64, 77
1, 30969, Note_on_c, 1, 67, 77
1, 30983, Note_on_c, 0, 81, 0
1, 30984, Note_on_c, 0, 79, 89
1, 31007, Note_on_c, 0, 79, 0
1, 31008, Note_on_c, 0, 78, 88
1, 31031, Note_on_c, 0, 78, 0
1, 31032, Note_on_c, 0, 76, 87
1, 31053, Note_on_c, 1, 67, 0
1, 31053, Note_on_c, 1, 64, 0
1, 31053, Note_on_c, 1, 61, 0
1, 31053, Note_on_c, 1, 57, 0
1, 31055, Note_on_c, 0, 76, 0
1, 31056, Note_on_c, 0, 74, 86
1, 31079, Note_on_c, 0, 74, 0
1, 31080, Note_on_c, 0, 73, 85
1, 31103, Note_on_c, 0, 73, 0
1, 31104, Note_on_c, 0, 74, 84
1, 31128, Note_on_c, 1, 50, 77
1, 31149, Note_on_c, 0, 74, 0
1, 31151, Note_on_c, 1, 50, 0
1, 31152, Note_on_c, 1, 54, 77
1, 31175, Note_on_c, 1, 54, 0
1, 31176, Note_on_c, 1, 50, 77
1, 31199, Note_on_c, 1, 50, 0
1, 31200, Note_on_c, 0, 74, 100
1, 31200, Note_on_c, 1, 52, 77
1, 31220, Note_on_c, 0, 74, 0
1, 31223, Note_on_c, 1, 52, 0
1, 31224, Note_on_c, 1, 55, 77
1, 31247, Note_on_c, 1, 55, 0
1, 31248, Note_on_c, 0, 74, 84
1, 31272, Note_on_c, 1, 54, 77
1, 31293, Note_on_c, 0, 74, 0
1, 31295, Note_on_c, 1, 54, 0
1, 31296, Note_on_c, 1, 57, 77
1, 31319, Note_on_c, 1, 57, 0
1, 31320, Note_on_c, 1, 54, 77
1, 31343, Note_on_c, 1, 54, 0
1, 31344, Note_on_c, 0, 74, 100
1, 31344, Note_on_c, 1, 55, 77
1, 31364, Note_on_c, 0, 74, 0
1, 31367, Note_on_c, 1, 55, 0
1, 31368, Note_on_c, 1, 59, 77
1, 31391, Note_on_c, 1, 59, 0
1, 31392, Note_on_c, 0, 74, 84
1, 31416, Note_on_c, 1, 57, 77
1, 31437, Note_on_c, 0, 74, 0
1, 31439, Note_on_c, 1, 57, 0
1, 31440, Note_on_c, 1, 60, 77
1, 31463, Note_on_c, 1, 60, 0
1, 31464, Note_on_c, 1, 57, 77
1, 31487, Note_on_c, 1, 57, 0
1, 31488, Note_on_c, 0, 74, 100
1, 31488, Note_on_c, 1, 59, 77
1, 31508, Note_on_c, 0, 74, 0
1, 31511, Note_on_c, 1, 59, 0
1, 31512, Note_on_c, 1, 55, 77
1, 31535, Note_on_c, 1, 55, 0
1, 31536, Note_on_c, 0, 74, 84
1, 31560, Note_on_c, 1, 54, 84
1, 31581, Note_on_c, 0, 74, 0
1, 31583, Note_on_c, 1, 54, 0
1, 31584, Note_on_c, 1, 57, 82
1, 31607, Note_on_c, 1, 57, 0
1, 31608, Note_on_c, 1, 54, 80
1, 31631, Note_on_c, 1, 54, 0
1, 31632, Note_on_c, 0, 74, 100
1, 31632, Note_on_c, 1, 55, 78
1, 31652, Note_on_c, 0, 74, 0
1, 31655, Note_on_c, 1, 55, 0
1, 31656, Note_on_c, 1, 52, 76
1, 31679, Note_on_c, 1, 52, 0
1, 31680, Note_on_c, 1, 50, 74
1, 31704, Note_on_c, 0, 74, 70
1, 31725, Note_on_c, 1, 50, 0
1, 31727, Note_on_c, 0, 74, 0
1, 31728, Note_on_c, 0, 78, 70
1, 31751, Note_on_c, 0, 78, 0
1, 31752, Note_on_c, 0, 74, 70
1, 31775, Note_on_c, 0, 74, 0
1, 31776, Note_on_c, 0, 76, 70
1, 31776, Note_on_c, 1, 50, 86
1, 31796, Note_on_c, 1, 50, 0
1, 31799, Note_on_c, 0, 76, 0
1, 31800, Note_on_c, 0, 79, 70
1, 31823, Note_on_c, 0, 79, 0
1, 31824, Note_on_c, 1, 50, 70
1, 31848, Note_on_c, 0, 78, 62
1, 31869, Note_on_c, 1, 50, 0
1, 31871, Note_on_c, 0, 78, 0
1, 31872, Note_on_c, 0, 81, 65
1, 31895, Note_on_c, 0, 81, 0
1, 31896, Note_on_c, 0, 78, 68
1, 31919, Note_on_c, 0, 78, 0
1, 31920, Note_on_c, 0, 79, 71
1, 31920, Note_on_c, 1, 38, 93
1, 31940, Note_on_c, 1, 38, 0
1, 31943, Note_on_c, 0, 79, 0
1, 31944, Note_on_c, 0, 83, 74
1, 31967, Note_on_c, 0, 83, 0
1, 31968, Note_on_c, 1, 38, 84
1, 31992, Note_on_c, 0, 81, 80
1, 32016, Note_on_c, 0, 81, 0
1, 32016, Note_on_c, 0, 84, 84
1, 32039, Note_on_c, 0, 84, 0
1, 32040, Note_on_c, 0, 78, 84
1, 32064, Note_on_c, 0, 78, 0
1, 32064, Note_on_c, 0, 81, 84
1, 32087, Note_on_c, 0, 81, 0
1, 32088, Note_on_c, 0, 72, 84
1, 32112, Note_on_c, 0, 72, 0
1, 32112, Note_on_c, 0, 78, 84
1, 32135, Note_on_c, 0, 78, 0
1, 32136, Note_on_c, 0, 69, 84
1, 32160, Note_on_c, 0, 69, 0
1, 32160, Note_on_c, 0, 72, 84
1, 32183, Note_on_c, 0, 72, 0
1, 32184, Note_on_c, 0, 66, 84
1, 32208, Note_on_c, 0, 66, 0
1, 32208, Note_on_c, 0, 69, 84
1, 32231, Note_on_c, 0, 69, 0
1, 32232, Note_on_c, 0, 60, 84
1, 32233, Note_on_c, 1, 38, 0
1, 32256, Note_on_c, 0, 60, 0
1, 32256, Note_on_c, 0, 76, 84
1, 32280, Note_on_c, 1, 48, 84
1, 32304, Note_on_c, 1, 48, 0
1, 32304, Note_on_c, 1, 57, 84
1, 32327, Note_on_c, 1, 57, 0
1, 32328, Note_on_c, 1, 54, 84
1, 32352, Note_on_c, 1, 54, 0
1, 32352, Note_on_c, 1, 60, 84
1, 32375, Note_on_c, 1, 60, 0
1, 32376, Note_on_c, 1, 57, 84
1, 32400, Tempo, 1500000
1, 32400, Note_on_c, 1, 57, 0
1, 32400, Note_on_c, 1, 66, 84
1, 32489, Note_on_c, 0, 76, 0
1, 32496, Tempo, 705882
1, 32496, Note_on_c, 0, 74, 70
1, 32508, Note_on_c, 0, 74, 0
1, 32508, Note_on_c, 0, 72, 70
1, 32520, Note_on_c, 0, 72, 0
1, 32520, Note_on_c, 0, 71, 70
1, 32532, Note_on_c, 0, 71, 0
1, 32532, Note_on_c, 0, 69, 70
1, 32541, Note_on_c, 1, 66, 0
1, 32544, Note_on_c, 0, 69, 0
1, 32544, Note_on_c, 0, 67, 70
1, 32544, Note_on_c, 1, 59, 62
1, 32544, Note_on_c, 1, 55, 62
1, 32633, Note_on_c, 0, 67, 0
1, 32633, Note_on_c, 1, 59, 0
1, 32633, Note_on_c, 1, 55, 0
1, 32640, Note_on_c, 0, 71, 70
1, 32640, Note_on_c, 1, 60, 62
1, 32640, Note_on_c, 1, 55, 62
1, 32652, Note_on_c, 0, 71, 0
1, 32652, Note_on_c, 0, 69, 70
1, 32660, Note_on_c, 1, 60, 0
1, 32660, Note_on_c, 1, 55, 0
1, 32685, Note_on_c, 0, 69, 0
1, 32688, Note_on_c, 0, 62, 70
1, 32688, Note_on_c, 1, 60, 62
1, 32688, Note_on_c, 1, 55, 62
1, 32733, Note_on_c, 0, 62, 0
1, 32736, Note_on_c, 0, 63, 69
1, 32759, Note_on_c, 0, 63, 0
1, 32760, Note_on_c, 0, 64, 68
1, 32777, Note_on_c, 1, 60, 0
1, 32777, Note_on_c, 1, 55, 0
1, 32783, Note_on_c, 0, 64, 0
1, 32784, Note_on_c, 0, 65, 68
1, 32784, Note_on_c, 1, 60, 62
1, 32784, Note_on_c, 1, 55, 62
1, 32804, Note_on_c, 1, 60, 0
1, 32804, Note_on_c, 1, 55, 0
1, 32807, Note_on_c, 0, 65, 0
1, 32808, Note_on_c, 0, 66, 67
1, 32831, Note_on_c, 0, 66, 0
1, 32832, Note_on_c, 0, 67, 67
1, 32832, Note_on_c, 1, 59, 62
1, 32832, Note_on_c, 1, 55, 62
1, 32852, Note_on_c, 0, 67, 0
1, 32855, Note_on_c, 1, 59, 0
1, 32856, Note_on_c, 1, 58, 67
1, 32879, Note_on_c, 1, 58, 0
1, 32880, Note_on_c, 0, 67, 66
1, 32880, Note_on_c, 1, 59, 72
1, 32900, Note_on_c, 0, 67, 0
1, 32903, Note_on_c, 1, 59, 0
1, 32904, Note_on_c, 1, 58, 77
1, 32927, Note_on_c, 1, 58, 0
1, 32928, Note_on_c, 0, 67, 65
1, 32928, Note_on_c, 1, 59, 72
1, 32948, Note_on_c, 0, 67, 0
1, 32951, Note_on_c, 1, 59, 0
1, 32952, Note_on_c, 1, 58, 67
1, 32975, Note_on_c, 1, 58, 0
1, 32976, Note_on_c, 0, 67, 64
1, 32976, Note_on_c, 1, 59, 62
1, 33021, Note_on_c, 1, 55, 0
1, 33065, Note_on_c, 0, 67, 0
1, 33065, Note_on_c, 1, 59, 0
1, 33072, Note_on_c, 0, 69, 62
1, 33072, Note_on_c, 0, 62, 62
1, 33072, Note_on_c, 1, 54, 62
1, 33092, Note_on_c, 0, 69, 0
1, 33092, Note_on_c, 0, 62, 0
1, 33092, Note_on_c, 1, 54, 0
1, 33120, Note_on_c, 0, 72, 70
1, 33120, Note_on_c, 0, 62, 62
1, 33120, Note_on_c, 1, 57, 62
1, 33126, Note_on_c, 0, 72, 0
1, 33126, Note_on_c, 0, 71, 70
1, 33126, Note_on_c, 1, 57, 0
1, 33126, Note_on_c, 1, 55, 62
1, 33143, Note_on_c, 0, 71, 0
1, 33143, Note_on_c, 1, 55, 0
1, 33144, Note_on_c, 0, 70, 71
1, 33144, Note_on_c, 1, 54, 63
1, 33167, Note_on_c, 0, 70, 0
1, 33167, Note_on_c, 1, 54, 0
1, 33168, Note_on_c, 0, 71, 72
1, 33168, Note_on_c, 1, 55, 64
1, 33191, Note_on_c, 0, 71, 0
1, 33191, Note_on_c, 1, 55, 0
1, 33192, Note_on_c, 0, 70, 73
1, 33192, Note_on_c, 1, 54, 66
1, 33215, Note_on_c, 0, 70, 0
1, 33215, Note_on_c, 1, 54, 0
1, 33216, Note_on_c, 0, 71, 74
1, 33216, Note_on_c, 1, 55, 67
1, 33239, Note_on_c, 0, 71, 0
1, 33239, Note_on_c, 1, 55, 0
1, 33240, Note_on_c, 0, 74, 75
1, 33240, Note_on_c, 1, 59, 68
1, 33253, Note_on_c, 0, 62, 0
1, 33263, Note_on_c, 0, 74, 0
1, 33263, Note_on_c, 1, 59, 0
1, 33264, Note_on_c, 0, 74, 93
1, 33264, Note_on_c, 0, 66, 62
1, 33264, Note_on_c, 0, 62, 62
1, 33264, Note_on_c, 1, 57, 70
1, 33312, Note_on_c, 0, 74, 0
1, 33312, Note_on_c, 0, 72, 77
1, 33353, Note_on_c, 1, 57, 0
1, 33357, Note_on_c, 0, 72, 0
1, 33360, Note_on_c, 0, 71, 77
1, 33360, Note_on_c, 0, 67, 77
1, 33360, Note_on_c, 1, 55, 70
1, 33380, Note_on_c, 0, 71, 0
1, 33380, Note_on_c, 0, 67, 0
1, 33380, Note_on_c, 1, 55, 0
1, 33397, Note_on_c, 0, 66, 0
1, 33397, Note_on_c, 0, 62, 0
1, 33408, Note_on_c, 0, 71, 93
1, 33408, Note_on_c, 0, 67, 93
1, 33408, Note_on_c, 1, 50, 70
1, 33431, Note_on_c, 1, 50, 0
1, 33432, Note_on_c, 1, 61, 70
1, 33455, Note_on_c, 1, 61, 0
1, 33456, Note_on_c, 0, 71, 0
1, 33456, Note_on_c, 0, 67, 0
1, 33456, Note_on_c, 0, 69, 74
1, 33456, Note_on_c, 0, 66, 74
1, 33456, Note_on_c, 1, 62, 70
1, 33476, Note_on_c, 0, 69, 0
1, 33476, Note_on_c, 0, 66, 0
1, 33479, Note_on_c, 1, 62, 0
1, 33480, Note_on_c, 1, 61, 70
1, 33503, Note_on_c, 1, 61, 0
1, 33504, Note_on_c, 0, 69, 72
1, 33504, Note_on_c, 0, 66, 72
1, 33504, Note_on_c, 1, 62, 70
1, 33524, Note_on_c, 0, 69, 0
1, 33524, Note_on_c, 0, 66, 0
1, 33527, Note_on_c, 1, 62, 0
1, 33528, Note_on_c, 1, 61, 70
1, 33551, Note_on_c, 1, 61, 0
1, 33552, Note_on_c, 0, 69, 86
1, 33552, Note_on_c, 0, 66, 86
1, 33552, Note_on_c, 1, 62, 70
1, 33575, Note_on_c, 1, 62, 0
1, 33576, Note_on_c, 1, 64, 70
1, 33599, Note_on_c, 1, 64, 0
1, 33600, Note_on_c, 1, 60, 70
1, 33623, Note_on_c, 1, 60, 0
1, 33624, Note_on_c, 1, 62, 70
1, 33647, Note_on_c, 1, 62, 0
1, 33648, Note_on_c, 0, 69, 0
1, 33648, Note_on_c, 0, 66, 0
1, 33648, Note_on_c, 0, 71, 72
1, 33648, Note_on_c, 0, 68, 72
1, 33648, Note_on_c, 1, 59, 70
1, 33671, Note_on_c, 1, 59, 0
1, 33672, Note_on_c, 1, 60, 70
1, 33693, Note_on_c, 0, 71, 0
1, 33693, Note_on_c, 0, 68, 0
1, 33695, Note_on_c, 1, 60, 0
1, 33696, Note_on_c, 0, 72, 73
1, 33696, Note_on_c, 0, 69, 73
1, 33696, Note_on_c, 1, 57, 70
1, 33719, Note_on_c, 1, 57, 0
1, 33720, Note_on_c, 1, 64, 70
1, 33741, Note_on_c, 0, 72, 0
1, 33741, Note_on_c, 0, 69, 0
1, 33743, Note_on_c, 1, 64, 0
1, 33744, Note_on_c, 0, 74, 74
1, 33744, Note_on_c, 0, 71, 74
1, 33744, Note_on_c, 1, 60, 70
1, 33767, Note_on_c, 1, 60, 0
1, 33768, Note_on_c, 1, 59, 70
1, 33789, Note_on_c, 0, 74, 0
1, 33789, Note_on_c, 0, 71, 0
1, 33791, Note_on_c, 1, 59, 0
1, 33792, Note_on_c, 0, 76, 75
1, 33792, Note_on_c, 0, 72, 75
1, 33792, Note_on_c, 1, 57, 70
1, 33812, Note_on_c, 0, 76, 0
1, 33812, Note_on_c, 0, 72, 0
1, 33815, Note_on_c, 1, 57, 0
1, 33816, Note_on_c, 1, 55, 70
1, 33839, Note_on_c, 1, 55, 0
1, 33840, Note_on_c, 0, 76, 93
1, 33840, Note_on_c, 0, 72, 93
1, 33840, Note_on_c, 1, 54, 70
1, 33863, Note_on_c, 1, 54, 0
1, 33864, Note_on_c, 1, 55, 70
1, 33887, Note_on_c, 1, 55, 0
1, 33888, Note_on_c, 1, 57, 70
1, 33911, Note_on_c, 1, 57, 0
1, 33912, Note_on_c, 1, 50, 70
1, 33935, Note_on_c, 1, 50, 0
1, 33936, Note_on_c, 0, 76, 0
1, 33936, Note_on_c, 0, 72, 0
1, 33936, Note_on_c, 0, 74, 72
1, 33936, Note_on_c, 0, 71, 72
1, 33936, Note_on_c, 1, 52, 70
1, 33959, Note_on_c, 0, 74, 0
1, 33959, Note_on_c, 0, 71, 0
1, 33959, Note_on_c, 1, 52, 0
1, 33960, Note_on_c, 0, 72, 71
1, 33960, Note_on_c, 0, 69, 71
1, 33960, Note_on_c, 1, 54, 70
1, 33983, Note_on_c, 0, 72, 0
1, 33983, Note_on_c, 0, 69, 0
1, 33983, Note_on_c, 1, 54, 0
1, 33984, Note_on_c, 0, 71, 77
1, 33984, Note_on_c, 0, 67, 77
1, 33984, Note_on_c, 1, 55, 70
1, 34007, Note_on_c, 1, 55, 0
1, 34008, Note_on_c, 1, 54, 70
1, 34029, Note_on_c, 0, 71, 0
1, 34029, Note_on_c, 0, 67, 0
1, 34031, Note_on_c, 1, 54, 0
1, 34032, Note_on_c, 0, 72, 75
1, 34032, Note_on_c, 0, 69, 75
1, 34032, Note_on_c, 1, 52, 70
1, 34055, Note_on_c, 1, 52, 0
1, 34056, Note_on_c, 1, 50, 70
1, 34077, Note_on_c, 0, 72, 0
1, 34077, Note_on_c, 0, 69, 0
1, 34079, Note_on_c, 1, 50, 0
1, 34080, Note_on_c, 0, 74, 74
1, 34080, Note_on_c, 0, 71, 74
1, 34080, Note_on_c, 1, 48, 70
1, 34103, Note_on_c, 1, 48, 0
1, 34104, Note_on_c, 1, 47, 70
1, 34125, Note_on_c, 0, 74, 0
1, 34125, Note_on_c, 0, 71, 0
1, 34127, Note_on_c, 1, 47, 0
1, 34128, Note_on_c, 0, 67, 73
1, 34128, Note_on_c, 0, 59, 73
1, 34128, Note_on_c, 1, 52, 70
1, 34151, Note_on_c, 1, 52, 0
1, 34152, Note_on_c, 1, 50, 70
1, 34173, Note_on_c, 0, 67, 0
1, 34173, Note_on_c, 0, 59, 0
1, 34175, Note_on_c, 1, 50, 0
1, 34176, Note_on_c, 0, 69, 72
1, 34176, Note_on_c, 0, 60, 72
1, 34176, Note_on_c, 1, 48, 70
1, 34199, Note_on_c, 1, 48, 0
1, 34200, Note_on_c, 1, 47, 70
1, 34221, Note_on_c, 0, 69, 0
1, 34221, Note_on_c, 0, 60, 0
1, 34223, Note_on_c, 1, 47, 0
1, 34224, Note_on_c, 0, 71, 71
1, 34224, Note_on_c, 0, 62, 71
1, 34224, Note_on_c, 1, 45, 70
1, 34247, Note_on_c, 1, 45, 0
1, 34248, Note_on_c, 1, 43, 70
1, 34269, Note_on_c, 0, 71, 0
1, 34269, Note_on_c, 0, 62, 0
1, 34271, Note_on_c, 1, 43, 0
1, 34272, Note_on_c, 0, 69, 70
1, 34272, Note_on_c, 1, 48, 70
1, 34296, Note_on_c, 0, 64, 62
1, 34317, Note_on_c, 0, 69, 0
1, 34317, Note_on_c, 1, 48, 0
1, 34320, Note_on_c, 0, 71, 73
1, 34320, Note_on_c, 1, 47, 67
1, 34341, Note_on_c, 0, 64, 0
1, 34344, Note_on_c, 0, 62, 62
1, 34365, Note_on_c, 0, 71, 0
1, 34365, Note_on_c, 1, 47, 0
1, 34368, Note_on_c, 0, 72, 77
1, 34368, Note_on_c, 1, 45, 64
1, 34389, Note_on_c, 0, 62, 0
1, 34392, Note_on_c, 0, 60, 62
1, 34413, Note_on_c, 0, 72, 0
1, 34413, Note_on_c, 1, 45, 0
1, 34416, Note_on_c, 0, 72, 91
1, 34416, Note_on_c, 1, 50, 62
1, 34437, Note_on_c, 0, 60, 0
1, 34440, Note_on_c, 0, 60, 62
1, 34464, Note_on_c, 0, 72, 0
1, 34464, Note_on_c, 0, 69, 73
1, 34485, Note_on_c, 0, 60, 0
1, 34488, Note_on_c, 0, 60, 62
1, 34509, Note_on_c, 0, 69, 0
1, 34512, Note_on_c, 0, 66, 71
1, 34533, Note_on_c, 0, 60, 0
1, 34536, Note_on_c, 0, 60, 62
1, 34549, Note_on_c, 1, 50, 0
1, 34557, Note_on_c, 0, 66, 0
1, 34560, Note_on_c, 0, 69, 70
1, 34560, Note_on_c, 0, 60, 62
1, 34560, Note_on_c, 1, 43, 70
1, 34583, Note_on_c, 1, 43, 0
1, 34584, Note_on_c, 1, 54, 68
1, 34607, Note_on_c, 1, 54, 0
1, 34608, Note_on_c, 1, 55, 67
1, 34631, Note_on_c, 1, 55, 0
1, 34632, Note_on_c, 1, 54, 66
1, 34655, Note_on_c, 1, 54, 0
1, 34656, Note_on_c, 1, 55, 64
1, 34679, Note_on_c, 1, 55, 0
1, 34680, Note_on_c, 1, 54, 63
1, 34703, Note_on_c, 1, 54, 0
1, 34704, Note_on_c, 0, 60, 0
1, 34704, Note_on_c, 0, 59, 62
1, 34704, Note_on_c, 1, 55, 62
1, 34751, Note_on_c, 0, 69, 0
1, 34751, Note_on_c, 0, 59, 0
1, 34751, Note_on_c, 1, 55, 0
1, 34752, Tempo, 1395348
1, 34800, Tempo, 705882
1, 34800, Note_on_c, 0, 74, 62
1, 34820, Note_on_c, 0, 74, 0
1, 34848, Note_on_c, 0, 74, 62
1, 34868, Note_on_c, 0, 74, 0
1, 34896, Note_on_c, 1, 58, 62
1, 34896, Note_on_c, 1, 55, 62
1, 34916, Note_on_c, 1, 58, 0
1, 34916, Note_on_c, 1, 55, 0
1, 34944, Note_on_c, 0, 74, 65
1, 34968, Note_on_c, 0, 74, 0
1, 34968, Note_on_c, 0, 75, 66
1, 34991, Note_on_c, 0, 75, 0
1, 34992, Note_on_c, 0, 75, 66
1, 35012, Note_on_c, 0, 75, 0
1, 35040, Note_on_c, 1, 60, 66
1, 35040, Note_on_c, 1, 55, 66
1, 35060, Note_on_c, 1, 60, 0
1, 35060, Note_on_c, 1, 55, 0
1, 35088, Note_on_c, 0, 79, 70
1, 35112, Note_on_c, 0, 79, 0
1, 35112, Note_on_c, 0, 78, 70
1, 35135, Note_on_c, 0, 78, 0
1, 35136, Note_on_c, 0, 78, 71
1, 35156, Note_on_c, 0, 78, 0
1, 35184, Note_on_c, 1, 60, 71
1, 35184, Note_on_c, 1, 55, 71
1, 35204, Note_on_c, 1, 60, 0
1, 35204, Note_on_c, 1, 55, 0
1, 35232, Note_on_c, 0, 82, 75
1, 35256, Note_on_c, 0, 82, 0
1, 35256, Note_on_c, 0, 78, 75
1, 35279, Note_on_c, 0, 78, 0
1, 35280, Note_on_c, 0, 79, 76
1, 35300, Note_on_c, 0, 79, 0
1, 35328, Note_on_c, 1, 58, 75
1, 35328, Note_on_c, 1, 55, 75
1, 35348, Note_on_c, 1, 58, 0
1, 35348, Note_on_c, 1, 55, 0
1, 35376, Note_on_c, 0, 82, 79
1, 35400, Note_on_c, 0, 82, 0
1, 35400, Note_on_c, 0, 81, 80
1, 35423, Note_on_c, 0, 81, 0
1, 35424, Note_on_c, 0, 84, 81
1, 35491, Note_on_c, 0, 84, 0
1, 35496, Note_on_c, 0, 82, 84
1, 35519, Note_on_c, 0, 82, 0
1, 35520, Note_on_c, 0, 81, 84
1, 35532, Note_on_c, 0, 81, 0
1, 35532, Note_on_c, 0, 79, 84
1, 35544, Note_on_c, 0, 79, 0
1, 35544, Note_on_c, 0, 77, 84
1, 35556, Note_on_c, 0, 77, 0
1, 35556, Note_on_c, 0, 76, 84
1, 35562, Note_on_c, 0, 76, 0
1, 35562, Note_on_c, 0, 74, 84
1, 35568, Note_on_c, 0, 74, 0
1, 35568, Note_on_c, 1, 76, 84
1, 35568, Note_on_c, 1, 73, 84
1, 35568, Note_on_c, 1, 70, 84
1, 35568, Note_on_c, 1, 67, 84
1, 35616, Note_on_c, 0, 79, 106
1, 35619, Note_on_c, 0, 82, 106
1, 35622, Note_on_c, 0, 85, 106
1, 35625, Note_on_c, 0, 88, 106
1, 35701, Note_on_c, 1, 76, 0
1, 35701, Note_on_c, 1, 73, 0
1, 35701, Note_on_c, 1, 70, 0
1, 35701, Note_on_c, 1, 67, 0
1, 35707, Note_on_c, 0, 88, 0
1, 35707, Note_on_c, 0, 85, 0
1, 35707, Note_on_c, 0, 82, 0
1, 35707, Note_on_c, 0, 79, 0
1, 35712, Note_on_c, 1, 69, 84
1, 35712, Note_on_c, 1, 65, 84
1, 35724, Note_on_c, 0, 77, 84
1, 35736, Note_on_c, 0, 77, 0
1, 35736, Note_on_c, 0, 81, 84
1, 35748, Note_on_c, 0, 81, 0
1, 35748, Note_on_c, 0, 85, 84
1, 35760, Note_on_c, 0, 85, 0
1, 35760, Note_on_c, 0, 86, 84
1, 35772, Note_on_c, 0, 86, 0
1, 35772, Note_on_c, 0, 79, 84
1, 35784, Note_on_c, 0, 79, 0
1, 35784, Note_on_c, 0, 85, 84
1, 35796, Note_on_c, 0, 85, 0
1, 35796, Note_on_c, 0, 86, 84
1, 35801, Note_on_c, 1, 69, 0
1, 35801, Note_on_c, 1, 65, 0
1, 35808, Note_on_c, 0, 86, 0
1, 35808, Note_on_c, 0, 88, 84
1, 35808, Note_on_c, 1, 67, 84
1, 35808, Note_on_c, 1, 64, 84
1, 35820, Note_on_c, 0, 88, 0
1, 35820, Note_on_c, 0, 81, 84
1, 35832, Note_on_c, 0, 81, 0
1, 35832, Note_on_c, 0, 86, 84
1, 35844, Note_on_c, 0, 86, 0
1, 35844, Note_on_c, 0, 88, 84
1, 35853, Note_on_c, 1, 67, 0
1, 35853, Note_on_c, 1, 64, 0
1, 35856, Note_on_c, 0, 88, 0
1, 35856, Note_on_c, 0, 89, 84
1, 35856, Note_on_c, 1, 65, 84
1, 35856, Note_on_c, 1, 62, 84
1, 35901, Note_on_c, 0, 89, 0
1, 35901, Note_on_c, 1, 65, 0
1, 35901, Note_on_c, 1, 62, 0
1, 35904, Note_on_c, 0, 74, 106
1, 35904, Note_on_c, 1, 71, 90
1, 35904, Note_on_c, 1, 68, 90
1, 35908, Note_on_c, 0, 77, 106
1, 35912, Note_on_c, 0, 83, 106
1, 35993, Note_on_c, 1, 71, 0
1, 35993, Note_on_c, 1, 68, 0
1, 35995, Note_on_c, 0, 83, 0
1, 35995, Note_on_c, 0, 77, 0
1, 35995, Note_on_c, 0, 74, 0
1, 36000, Note_on_c, 1, 65, 84
1, 36000, Note_on_c, 1, 62, 84
1, 36000, Note_on_c, 1, 57, 84
1, 36048, Note_on_c, 0, 81, 84
1, 36048, Note_on_c, 0, 69, 84
1, 36093, Note_on_c, 0, 81, 0
1, 36093, Note_on_c, 0, 69, 0
1, 36096, Note_on_c, 0, 77, 84
1, 36119, Note_on_c, 0, 77, 0
1, 36120, Note_on_c, 0, 74, 84
1, 36133, Note_on_c, 1, 65, 0
1, 36133, Note_on_c, 1, 62, 0
1, 36133, Note_on_c, 1, 57, 0
1, 36143, Note_on_c, 0, 74, 0
1, 36144, Note_on_c, 1, 67, 84
1, 36144, Note_on_c, 1, 64, 84
1, 36144, Note_on_c, 1, 57, 84
1, 36192, Note_on_c, 0, 79, 77
1, 36192, Note_on_c, 0, 69, 77
1, 36237, Note_on_c, 0, 79, 0
1, 36237, Note_on_c, 0, 69, 0
1, 36240, Note_on_c, 0, 76, 77
1, 36263, Note_on_c, 0, 76, 0
1, 36264, Note_on_c, 0, 73, 77
1, 36277, Note_on_c, 1, 67, 0
1, 36277, Note_on_c, 1, 64, 0
1, 36277, Note_on_c, 1, 57, 0
1, 36287, Note_on_c, 0, 73, 0
1, 36288, Note_on_c, 0, 73, 70
1, 36384, Note_on_c, 0, 73, 0
1, 36384, Note_on_c, 0, 74, 62
1, 36384, Note_on_c, 1, 62, 62
1, 36384, Note_on_c, 1, 50, 62
1, 36404, Note_on_c, 0, 74, 0
1, 36429, Note_on_c, 1, 62, 0
1, 36429, Note_on_c, 1, 50, 0
1, 36432, Note_on_c, 0, 74, 62
1, 36432, Note_on_c, 1, 62, 62
1, 36432, Note_on_c, 1, 50, 62
1, 36477, Note_on_c, 0, 74, 0
1, 36477, Note_on_c, 1, 62, 0
1, 36477, Note_on_c, 1, 50, 0
1, 36528, Note_on_c, 0, 74, 62
1, 36548, Note_on_c, 0, 74, 0
1, 36576, Note_on_c, 0, 74, 62
1, 36596, Note_on_c, 0, 74, 0
1, 36624, Note_on_c, 1, 58, 62
1, 36624, Note_on_c, 1, 55, 62
1, 36644, Note_on_c, 1, 58, 0
1, 36644, Note_on_c, 1, 55, 0
1, 36672, Note_on_c, 0, 74, 65
1, 36696, Note_on_c, 0, 74, 0
1, 36696, Note_on_c, 0, 75, 66
1, 36719, Note_on_c, 0, 75, 0
1, 36720, Note_on_c, 0, 75, 66
1, 36740, Note_on_c, 0, 75, 0
1, 36768, Note_on_c, 1, 60, 66
1, 36768, Note_on_c, 1, 55, 66
1, 36788, Note_on_c, 1, 60, 0
1, 36788, Note_on_c, 1, 55, 0
1, 36816, Note_on_c, 0, 79, 70
1, 36840, Note_on_c, 0, 79, 0
1, 36840, Note_on_c, 0, 78, 70
1, 36863, Note_on_c, 0, 78, 0
1, 36864, Note_on_c, 0, 78, 71
1, 36884, Note_on_c, 0, 78, 0
1, 36912, Note_on_c, 1, 60, 71
1, 36912, Note_on_c, 1, 55, 71
1, 36932, Note_on_c, 1, 60, 0
1, 36932, Note_on_c, 1, 55, 0
1, 36960, Note_on_c, 0, 82, 75
1, 36984, Note_on_c, 0, 82, 0
1, 36984, Note_on_c, 0, 78, 75
1, 37007, Note_on_c, 0, 78, 0
1, 37008, Note_on_c, 0, 79, 76
1, 37028, Note_on_c, 0, 79, 0
1, 37056, Note_on_c, 1, 58, 75
1, 37056, Note_on_c, 1, 55, 75
1, 37076, Note_on_c, 1, 58, 0
1, 37076, Note_on_c, 1, 55, 0
1, 37104, Note_on_c, 0, 82, 79
1, 37128, Note_on_c, 0, 82, 0
1, 37128, Note_on_c, 0, 81, 80
1, 37151, Note_on_c, 0, 81, 0
1, 37152, Note_on_c, 0, 84, 81
1, 37219, Note_on_c, 0, 84, 0
1, 37224, Note_on_c, 0, 82, 84
1, 37247, Note_on_c, 0, 82, 0
1, 37248, Note_on_c, 0, 81, 84
1, 37260, Note_on_c, 0, 81, 0
1, 37260, Note_on_c, 0, 79, 84
1, 37272, Note_on_c, 0, 79, 0
1, 37272, Note_on_c, 0, 77, 84
1, 37284, Note_on_c, 0, 77, 0
1, 37284, Note_on_c, 0, 76, 84
1, 37290, Note_on_c, 0, 76, 0
1, 37290, Note_on_c, 0, 74, 84
1, 37296, Note_on_c, 0, 74, 0
1, 37296, Note_on_c, 1, 76, 84
1, 37296, Note_on_c, 1, 73, 84
1, 37296, Note_on_c, 1, 70, 84
1, 37296, Note_on_c, 1, 67, 84
1, 37344, Note_on_c, 0, 79, 106
1, 37347, Note_on_c, 0, 82, 106
1, 37350, Note_on_c, 0, 85, 106
1, 37353, Note_on_c, 0, 88, 106
1, 37429, Note_on_c, 1, 76, 0
1, 37429, Note_on_c, 1, 73, 0
1, 37429, Note_on_c, 1, 70, 0
1, 37429, Note_on_c, 1, 67, 0
1, 37435, Note_on_c, 0, 88, 0
1, 37435, Note_on_c, 0, 85, 0
1, 37435, Note_on_c, 0, 82, 0
1, 37435, Note_on_c, 0, 79, 0
1, 37440, Note_on_c, 1, 69, 84
1, 37440, Note_on_c, 1, 65, 84
1, 37452, Note_on_c, 0, 77, 84
1, 37464, Note_on_c, 0, 77, 0
1, 37464, Note_on_c, 0, 81, 84
1, 37476, Note_on_c, 0, 81, 0
1, 37476, Note_on_c, 0, 85, 84
1, 37488, Note_on_c, 0, 85, 0
1, 37488, Note_on_c, 0, 86, 84
1, 37500, Note_on_c, 0, 86, 0
1, 37500, Note_on_c, 0, 79, 84
1, 37512, Note_on_c, 0, 79, 0
1, 37512, Note_on_c, 0, 85, 84
1, 37524, Note_on_c, 0, 85, 0
1, 37524, Note_on_c, 0, 86, 84
1, 37529, Note_on_c, 1, 69, 0
1, 37529, Note_on_c, 1, 65, 0
1, 37536, Note_on_c, 0, 86, 0
1, 37536, Note_on_c, 0, 88, 84
1, 37536, Note_on_c, 1, 67, 84
1, 37536, Note_on_c, 1, 64, 84
1, 37548, Note_on_c, 0, 88, 0
1, 37548, Note_on_c, 0, 81, 84
1, 37560, Note_on_c, 0, 81, 0
1, 37560, Note_on_c, 0, 86, 84
1, 37572, Note_on_c, 0, 86, 0
1, 37572, Note_on_c, 0, 88, 84
1, 37581, Note_on_c, 1, 67, 0
1, 37581, Note_on_c, 1, 64, 0
1, 37584, Note_on_c, 0, 88, 0
1, 37584, Note_on_c, 0, 89, 84
1, 37584, Note_on_c, 1, 65, 84
1, 37584, Note_on_c, 1, 62, 84
1, 37629, Note_on_c, 0, 89, 0
1, 37629, Note_on_c, 1, 65, 0
1, 37629, Note_on_c, 1, 62, 0
1, 37632, Note_on_c, 0, 74, 106
1, 37632, Note_on_c, 1, 71, 90
1, 37632, Note_on_c, 1, 68, 90
1, 37636, Note_on_c, 0, 77, 106
1, 37640, Note_on_c, 0, 83, 106
1, 37721, Note_on_c, 1, 71, 0
1, 37721, Note_on_c, 1, 68, 0
1, 37723, Note_on_c, 0, 83, 0
1, 37723, Note_on_c, 0, 77, 0
1, 37723, Note_on_c, 0, 74, 0
1, 37728, Note_on_c, 1, 65, 84
1, 37728, Note_on_c, 1, 62, 84
1, 37728, Note_on_c, 1, 57, 84
1, 37776, Note_on_c, 0, 81, 84
1, 37776, Note_on_c, 0, 69, 84
1, 37821, Note_on_c, 0, 81, 0
1, 37821, Note_on_c, 0, 69, 0
1, 37824, Note_on_c, 0, 77, 84
1, 37847, Note_on_c, 0, 77, 0
1, 37848, Note_on_c, 0, 74, 84
1, 37861, Note_on_c, 1, 65, 0
1, 37861, Note_on_c, 1, 62, 0
1, 37861, Note_on_c, 1, 57, 0
1, 37871, Note_on_c, 0, 74, 0
1, 37872, Note_on_c, 1, 67, 84
1, 37872, Note_on_c, 1, 64, 84
1, 37872, Note_on_c, 1, 57, 84
1, 37920, Note_on_c, 0, 79, 77
1, 37920, Note_on_c, 0, 69, 77
1, 37965, Note_on_c, 0, 79, 0
1, 37965, Note_on_c, 0, 69, 0
1, 37968, Note_on_c, 0, 76, 77
1, 37991, Note_on_c, 0, 76, 0
1, 37992, Note_on_c, 0, 73, 77
1, 38005, Note_on_c, 1, 67, 0
1, 38005, Note_on_c, 1, 64, 0
1, 38005, Note_on_c, 1, 57, 0
1, 38015, Note_on_c, 0, 73, 0
1, 38016, Note_on_c, 0, 73, 70
1, 38112, Note_on_c, 0, 73, 0
1, 38112, Note_on_c, 0, 74, 62
1, 38112, Note_on_c, 1, 62, 62
1, 38112, Note_on_c, 1, 50, 62
1, 38132, Note_on_c, 0, 74, 0
1, 38157, Note_on_c, 1, 62, 0
1, 38157, Note_on_c, 1, 50, 0
1, 38160, Note_on_c, 0, 74, 62
1, 38160, Note_on_c, 1, 62, 62
1, 38160, Note_on_c, 1, 50, 62
1, 38205, Note_on_c, 0, 74, 0
1, 38205, Note_on_c, 1, 62, 0
1, 38205, Note_on_c, 1, 50, 0
1, 38256, Note_on_c, 0, 74, 62
1, 38276, Note_on_c, 0, 74, 0
1, 38304, Note_on_c, 0, 74, 62
1, 38324, Note_on_c, 0, 74, 0
1, 38352, Note_on_c, 1, 62, 62
1, 38352, Note_on_c, 1, 58, 62
1, 38372, Note_on_c, 1, 62, 0
1, 38372, Note_on_c, 1, 58, 0
1, 38400, Note_on_c, 0, 67, 63
1, 38448, Note_on_c, 0, 67, 0
1, 38448, Note_on_c, 0, 72, 64
1, 38468, Note_on_c, 0, 72, 0
1, 38496, Note_on_c, 1, 63, 64
1, 38496, Note_on_c, 1, 57, 64
1, 38516, Note_on_c, 1, 63, 0
1, 38516, Note_on_c, 1, 57, 0
1, 38544, Note_on_c, 0, 66, 66
1, 38592, Note_on_c, 0, 66, 0
1, 38592, Note_on_c, 0, 70, 66
1, 38612, Note_on_c, 0, 70, 0
1, 38640, Note_on_c, 1, 58, 66
1, 38640, Note_on_c, 1, 55, 66
1, 38660, Note_on_c, 1, 58, 0
1, 38660, Note_on_c, 1, 55, 0
1, 38688, Note_on_c, 0, 61, 68
1, 38736, Note_on_c, 0, 61, 0
1, 38736, Note_on_c, 0, 62, 69
1, 38756, Note_on_c, 0, 62, 0
1, 38784, Note_on_c, 1, 50, 69
1, 38784, Note_on_c, 1, 38, 69
1, 38804, Note_on_c, 1, 50, 0
1, 38804, Note_on_c, 1, 38, 0
1, 38832, Note_on_c, 0, 67, 100
1, 38832, Note_on_c, 1, 62, 70
1, 38832, Note_on_c, 1, 58, 70
1, 38856, Note_on_c, 0, 67, 0
1, 38856, Note_on_c, 0, 79, 84
1, 38877, Note_on_c, 1, 62, 0
1, 38877, Note_on_c, 1, 58, 0
1, 38879, Note_on_c, 0, 79, 0
1, 38880, Note_on_c, 0, 69, 100
1, 38880, Note_on_c, 1, 63, 70
1, 38880, Note_on_c, 1, 60, 70
1, 38904, Note_on_c, 0, 69, 0
1, 38904, Note_on_c, 0, 79, 84
1, 38927, Note_on_c, 0, 79, 0
1, 38928, Note_on_c, 0, 78, 84
1, 38951, Note_on_c, 0, 78, 0
1, 38952, Note_on_c, 0, 69, 84
1, 38969, Note_on_c, 1, 63, 0
1, 38969, Note_on_c, 1, 60, 0
1, 38975, Note_on_c, 0, 69, 0
1, 38976, Note_on_c, 0, 67, 100
1, 38976, Note_on_c, 1, 62, 70
1, 38976, Note_on_c, 1, 58, 70
1, 39000, Note_on_c, 0, 67, 0
1, 39000, Note_on_c, 0, 79, 84
1, 39021, Note_on_c, 1, 62, 0
1, 39021, Note_on_c, 1, 58, 0
1, 39023, Note_on_c, 0, 79, 0
1, 39024, Note_on_c, 0, 69, 100
1, 39024, Note_on_c, 1, 63, 70
1, 39024, Note_on_c, 1, 60, 70
1, 39048, Note_on_c, 0, 69, 0
1, 39048, Note_on_c, 0, 79, 84
1, 39071, Note_on_c, 0, 79, 0
1, 39072, Note_on_c, 0, 78, 84
1, 39095, Note_on_c, 0, 78, 0
1, 39096, Note_on_c, 0, 69, 84
1, 39113, Note_on_c, 1, 63, 0
1, 39113, Note_on_c, 1, 60, 0
1, 39119, Note_on_c, 0, 69, 0
1, 39120, Note_on_c, 0, 67, 100
1, 39120, Note_on_c, 1, 62, 70
1, 39120, Note_on_c, 1, 58, 70
1, 39144, Note_on_c, 0, 67, 0
1, 39144, Note_on_c, 0, 79, 84
1, 39165, Note_on_c, 1, 62, 0
1, 39165, Note_on_c, 1, 58, 0
1, 39167, Note_on_c, 0, 79, 0
1, 39168, Note_on_c, 0, 75, 100
1, 39168, Note_on_c, 1, 60, 70
1, 39168, Note_on_c, 1, 54, 84
1, 39192, Note_on_c, 0, 75, 0
1, 39192, Note_on_c, 0, 87, 84
1, 39213, Note_on_c, 1, 60, 0
1, 39215, Note_on_c, 0, 87, 0
1, 39216, Note_on_c, 0, 74, 84
1, 39216, Note_on_c, 1, 62, 70
1, 39239, Note_on_c, 0, 74, 0
1, 39240, Note_on_c, 0, 86, 84
1, 39261, Note_on_c, 1, 62, 0
1, 39263, Note_on_c, 0, 86, 0
1, 39264, Note_on_c, 0, 72, 84
1, 39264, Note_on_c, 1, 63, 70
1, 39287, Note_on_c, 0, 72, 0
1, 39288, Note_on_c, 0, 84, 84
1, 39301, Note_on_c, 1, 54, 0
1, 39309, Note_on_c, 1, 63, 0
1, 39312, Note_on_c, 1, 62, 70
1, 39312, Note_on_c, 1, 55, 84
1, 39335, Note_on_c, 0, 84, 0
1, 39336, Note_on_c, 0, 82, 84
1, 39357, Note_on_c, 1, 55, 0
1, 39359, Note_on_c, 0, 82, 0
1, 39360, Note_on_c, 0, 81, 84
1, 39360, Note_on_c, 1, 57, 84
1, 39383, Note_on_c, 0, 81, 0
1, 39384, Note_on_c, 0, 79, 84
1, 39405, Note_on_c, 1, 57, 0
1, 39407, Note_on_c, 0, 79, 0
1, 39408, Note_on_c, 0, 78, 84
1, 39408, Note_on_c, 1, 58, 84
1, 39431, Note_on_c, 0, 78, 0
1, 39432, Note_on_c, 0, 79, 84
1, 39445, Note_on_c, 1, 62, 0
1, 39453, Note_on_c, 1, 58, 0
1, 39455, Note_on_c, 0, 79, 0
1, 39456, Note_on_c, 0, 77, 84
1, 39456, Note_on_c, 1, 63, 84
1, 39456, Note_on_c, 1, 60, 84
1, 39479, Note_on_c, 0, 77, 0
1, 39480, Note_on_c, 0, 75, 82
1, 39503, Note_on_c, 0, 75, 0
1, 39504, Note_on_c, 0, 74, 80
1, 39527, Note_on_c, 0, 74, 0
1, 39528, Note_on_c, 0, 72, 78
1, 39551, Note_on_c, 0, 72, 0
1, 39552, Note_on_c, 0, 70, 76
1, 39575, Note_on_c, 0, 70, 0
1, 39576, Note_on_c, 0, 69, 74
1, 39589, Note_on_c, 1, 63, 0
1, 39589, Note_on_c, 1, 60, 0
1, 39599, Note_on_c, 0, 69, 0
1, 39600, Note_on_c, 0, 67, 73
1, 39600, Note_on_c, 1, 58, 73
1, 39600, Note_on_c, 1, 50, 73
1, 39667, Note_on_c, 0, 67, 0
1, 39672, Note_on_c, 0, 69, 67
1, 39689, Note_on_c, 1, 58, 0
1, 39695, Note_on_c, 0, 69, 0
1, 39696, Note_on_c, 0, 66, 65
1, 39696, Note_on_c, 1, 57, 65
1, 39733, Note_on_c, 1, 50, 0
1, 39741, Note_on_c, 0, 66, 0
1, 39741, Note_on_c, 1, 57, 0
1, 39840, Note_on_c, 0, 67, 55
1, 39840, Note_on_c, 1, 55, 55
1, 39840, Note_on_c, 1, 43, 55
1, 39860, Note_on_c, 0, 67, 0
1, 39860, Note_on_c, 1, 55, 0
1, 39860, Note_on_c, 1, 43, 0
1, 39888, Note_on_c, 0, 67, 55
1, 39888, Note_on_c, 1, 55, 55
1, 39888, Note_on_c, 1, 43, 55
1, 39933, Note_on_c, 0, 67, 0
1, 39933, Note_on_c, 1, 55, 0
1, 39933, Note_on_c, 1, 43, 0
1, 39984, Note_on_c, 0, 74, 62
1, 40004, Note_on_c, 0, 74, 0
1, 40032, Note_on_c, 0, 74, 62
1, 40052, Note_on_c, 0, 74, 0
1, 40080, Note_on_c, 1, 62, 62
1, 40080, Note_on_c, 1, 58, 62
1, 40100, Note_on_c, 1, 62, 0
1, 40100, Note_on_c, 1, 58, 0
1, 40128, Note_on_c, 0, 67, 63
1, 40176, Note_on_c, 0, 67, 0
1, 40176, Note_on_c, 0, 72, 64
1, 40196, Note_on_c, 0, 72, 0
1, 40224, Note_on_c, 1, 63, 64
1, 40224, Note_on_c, 1, 57, 64
1, 40244, Note_on_c, 1, 63, 0
1, 40244, Note_on_c, 1, 57, 0
1, 40272, Note_on_c, 0, 66, 66
1, 40320, Note_on_c, 0, 66, 0
1, 40320, Note_on_c, 0, 70, 66
1, 40340, Note_on_c, 0, 70, 0
1, 40368, Note_on_c, 1, 58, 66
1, 40368, Note_on_c, 1, 55, 66
1, 40388, Note_on_c, 1, 58, 0
1, 40388, Note_on_c, 1, 55, 0
1, 40416, Note_on_c, 0, 61, 68
1, 40464, Note_on_c, 0, 61, 0
1, 40464, Note_on_c, 0, 62, 69
1, 40484, Note_on_c, 0, 62, 0
1, 40512, Note_on_c, 1, 50, 69
1, 40512, Note_on_c, 1, 38, 69
1, 40532, Note_on_c, 1, 50, 0
1, 40532, Note_on_c, 1, 38, 0
1, 40560, Note_on_c, 0, 67, 100
1, 40560, Note_on_c, 1, 62, 70
1, 40560, Note_on_c, 1, 58, 70
1, 40584, Note_on_c, 0, 67, 0
1, 40584, Note_on_c, 0, 79, 84
1, 40605, Note_on_c, 1, 62, 0
1, 40605, Note_on_c, 1, 58, 0
1, 40607, Note_on_c, 0, 79, 0
1, 40608, Note_on_c, 0, 69, 100
1, 40608, Note_on_c, 1, 63, 70
1, 40608, Note_on_c, 1, 60, 70
1, 40632, Note_on_c, 0, 69, 0
1, 40632, Note_on_c, 0, 79, 84
1, 40655, Note_on_c, 0, 79, 0
1, 40656, Note_on_c, 0, 78, 84
1, 40679, Note_on_c, 0, 78, 0
1, 40680, Note_on_c, 0, 69, 84
1, 40697, Note_on_c, 1, 63, 0
1, 40697, Note_on_c, 1, 60, 0
1, 40703, Note_on_c, 0, 69, 0
1, 40704, Note_on_c, 0, 67, 100
1, 40704, Note_on_c, 1, 62, 70
1, 40704, Note_on_c, 1, 58, 70
1, 40728, Note_on_c, 0, 67, 0
1, 40728, Note_on_c, 0, 79, 84
1, 40749, Note_on_c, 1, 62, 0
1, 40749, Note_on_c, 1, 58, 0
1, 40751, Note_on_c, 0, 79, 0
1, 40752, Note_on_c, 0, 69, 100
1, 40752, Note_on_c, 1, 63, 70
1, 40752, Note_on_c, 1, 60, 70
1, 40776, Note_on_c, 0, 69, 0
1, 40776, Note_on_c, 0, 79, 84
1, 40799, Note_on_c, 0, 79, 0
1, 40800, Note_on_c, 0, 78, 84
1, 40823, Note_on_c, 0, 78, 0
1, 40824, Note_on_c, 0, 69, 84
1, 40841, Note_on_c, 1, 63, 0
1, 40841, Note_on_c, 1, 60, 0
1, 40847, Note_on_c, 0, 69, 0
1, 40848, Note_on_c, 0, 67, 100
1, 40848, Note_on_c, 1, 62, 70
1, 40848, Note_on_c, 1, 58, 70
1, 40872, Note_on_c, 0, 67, 0
1, 40872, Note_on_c, 0, 79, 84
1, 40893, Note_on_c, 1, 62, 0
1, 40893, Note_on_c, 1, 58, 0
1, 40895, Note_on_c, 0, 79, 0
1, 40896, Note_on_c, 0, 75, 100
1, 40896, Note_on_c, 1, 60, 70
1, 40896, Note_on_c, 1, 54, 84
1, 40920, Note_on_c, 0, 75, 0
1, 40920, Note_on_c, 0, 87, 84
1, 40941, Note_on_c, 1, 60, 0
1, 40943, Note_on_c, 0, 87, 0
1, 40944, Note_on_c, 0, 74, 84
1, 40944, Note_on_c, 1, 62, 70
1, 40967, Note_on_c, 0, 74, 0
1, 40968, Note_on_c, 0, 86, 84
1, 40989, Note_on_c, 1, 62, 0
1, 40991, Note_on_c, 0, 86, 0
1, 40992, Note_on_c, 0, 72, 84
1, 40992, Note_on_c, 1, 63, 70
1, 41015, Note_on_c, 0, 72, 0
1, 41016, Note_on_c, 0, 84, 84
1, 41029, Note_on_c, 1, 54, 0
1, 41037, Note_on_c, 1, 63, 0
1, 41040, Note_on_c, 1, 62, 70
1, 41040, Note_on_c, 1, 55, 84
1, 41063, Note_on_c, 0, 84, 0
1, 41064, Note_on_c, 0, 82, 84
1, 41085, Note_on_c, 1, 55, 0
1, 41087, Note_on_c, 0, 82, 0
1, 41088, Note_on_c, 0, 81, 84
1, 41088, Note_on_c, 1, 57, 84
1, 41111, Note_on_c, 0, 81, 0
1, 41112, Note_on_c, 0, 79, 84
1, 41133, Note_on_c, 1, 57, 0
1, 41135, Note_on_c, 0, 79, 0
1, 41136, Note_on_c, 0, 78, 84
1, 41136, Note_on_c, 1, 58, 84
1, 41159, Note_on_c, 0, 78, 0
1, 41160, Note_on_c, 0, 79, 84
1, 41173, Note_on_c, 1, 62, 0
1, 41181, Note_on_c, 1, 58, 0
1, 41183, Note_on_c, 0, 79, 0
1, 41184, Note_on_c, 0, 77, 84
1, 41184, Note_on_c, 1, 63, 84
1, 41184, Note_on_c, 1, 60, 84
1, 41207, Note_on_c, 0, 77, 0
1, 41208, Note_on_c, 0, 75, 82
1, 41231, Note_on_c, 0, 75, 0
1, 41232, Note_on_c, 0, 74, 80
1, 41255, Note_on_c, 0, 74, 0
1, 41256, Note_on_c, 0, 72, 78
1, 41279, Note_on_c, 0, 72, 0
1, 41280, Note_on_c, 0, 70, 76
1, 41303, Note_on_c, 0, 70, 0
1, 41304, Note_on_c, 0, 69, 74
1, 41317, Note_on_c, 1, 63, 0
1, 41317, Note_on_c, 1, 60, 0
1, 41327, Note_on_c, 0, 69, 0
1, 41328, Note_on_c, 0, 67, 73
1, 41328, Note_on_c, 1, 58, 73
1, 41328, Note_on_c, 1, 50, 73
1, 41395, Note_on_c, 0, 67, 0
1, 41400, Note_on_c, 0, 69, 67
1, 41417, Note_on_c, 1, 58, 0
1, 41423, Note_on_c, 0, 69, 0
1, 41424, Note_on_c, 0, 66, 65
1, 41424, Note_on_c, 1, 57, 65
1, 41461, Note_on_c, 1, 50, 0
1, 41469, Note_on_c, 0, 66, 0
1, 41469, Note_on_c, 1, 57, 0
1, 41568, Note_on_c, 0, 67, 55
1, 41568, Note_on_c, 1, 55, 55
1, 41568, Note_on_c, 1, 43, 55
1, 41588, Note_on_c, 0, 67, 0
1, 41588, Note_on_c, 1, 55, 0
1, 41588, Note_on_c, 1, 43, 0
1, 41616, Note_on_c, 0, 67, 55
1, 41616, Note_on_c, 1, 55, 55
1, 41616, Note_on_c, 1, 43, 55
1, 41661, Note_on_c, 0, 67, 0
1, 41661, Note_on_c, 1, 55, 0
1, 41661, Note_on_c, 1, 43, 0
1, 41664, Tempo, 1395348
1, 41712, Tempo, 705882
1, 41712, Note_on_c, 0, 67, 86
1, 41712, Note_on_c, 1, 59, 62
1, 41712, Note_on_c, 1, 55, 62
1, 41732, Note_on_c, 0, 67, 0
1, 41732, Note_on_c, 1, 59, 0
1, 41732, Note_on_c, 1, 55, 0
1, 41760, Note_on_c, 0, 67, 86
1, 41760, Note_on_c, 1, 59, 62
1, 41760, Note_on_c, 1, 55, 62
1, 41849, Note_on_c, 1, 59, 0
1, 41849, Note_on_c, 1, 55, 0
1, 41856, Note_on_c, 0, 67, 0
1, 41856, Note_on_c, 0, 71, 70
1, 41856, Note_on_c, 1, 60, 62
1, 41856, Note_on_c, 1, 55, 62
1, 41868, Note_on_c, 0, 71, 0
1, 41868, Note_on_c, 0, 69, 70
1, 41876, Note_on_c, 1, 60, 0
1, 41876, Note_on_c, 1, 55, 0
1, 41901, Note_on_c, 0, 69, 0
1, 41904, Note_on_c, 0, 62, 70
1, 41904, Note_on_c, 1, 60, 62
1, 41904, Note_on_c, 1, 55, 62
1, 41949, Note_on_c, 0, 62, 0
1, 41952, Note_on_c, 0, 66, 70
1, 41976, Note_on_c, 0, 66, 0
1, 41976, Note_on_c, 0, 64, 71
1, 41993, Note_on_c, 1, 60, 0
1, 41993, Note_on_c, 1, 55, 0
1, 41999, Note_on_c, 0, 64, 0
1, 42000, Note_on_c, 0, 67, 72
1, 42000, Note_on_c, 1, 60, 67
1, 42000, Note_on_c, 1, 55, 67
1, 42020, Note_on_c, 1, 60, 0
1, 42020, Note_on_c, 1, 55, 0
1, 42024, Note_on_c, 0, 67, 0
1, 42024, Note_on_c, 0, 66, 73
1, 42047, Note_on_c, 0, 66, 0
1, 42048, Note_on_c, 0, 69, 74
1, 42048, Note_on_c, 1, 59, 69
1, 42048, Note_on_c, 1, 55, 69
1, 42072, Note_on_c, 0, 69, 0
1, 42072, Note_on_c, 0, 67, 75
1, 42095, Note_on_c, 0, 67, 0
1, 42096, Note_on_c, 0, 72, 76
1, 42120, Note_on_c, 0, 72, 0
1, 42120, Note_on_c, 0, 71, 77
1, 42137, Note_on_c, 1, 59, 0
1, 42137, Note_on_c, 1, 55, 0
1, 42143, Note_on_c, 0, 71, 0
1, 42144, Note_on_c, 0, 74, 78
1, 42144, Note_on_c, 1, 59, 74
1, 42144, Note_on_c, 1, 55, 74
1, 42164, Note_on_c, 1, 59, 0
1, 42164, Note_on_c, 1, 55, 0
1, 42168, Note_on_c, 0, 74, 0
1, 42168, Note_on_c, 0, 71, 79
1, 42191, Note_on_c, 0, 71, 0
1, 42192, Note_on_c, 0, 67, 80
1, 42192, Note_on_c, 1, 59, 77
1, 42192, Note_on_c, 1, 55, 77
1, 42281, Note_on_c, 0, 67, 0
1, 42281, Note_on_c, 1, 59, 0
1, 42281, Note_on_c, 1, 55, 0
1, 42288, Note_on_c, 0, 69, 77
1, 42288, Note_on_c, 0, 62, 77
1, 42288, Note_on_c, 1, 54, 70
1, 42308, Note_on_c, 0, 69, 0
1, 42308, Note_on_c, 0, 62, 0
1, 42308, Note_on_c, 1, 54, 0
1, 42336, Note_on_c, 0, 70, 78
1, 42336, Note_on_c, 0, 62, 77
1, 42336, Note_on_c, 1, 55, 71
1, 42359, Note_on_c, 0, 70, 0
1, 42359, Note_on_c, 1, 55, 0
1, 42360, Note_on_c, 0, 71, 79
1, 42360, Note_on_c, 1, 56, 72
1, 42383, Note_on_c, 0, 71, 0
1, 42383, Note_on_c, 1, 56, 0
1, 42384, Note_on_c, 0, 72, 80
1, 42384, Note_on_c, 1, 57, 73
1, 42407, Note_on_c, 0, 72, 0
1, 42407, Note_on_c, 1, 57, 0
1, 42408, Note_on_c, 0, 73, 81
1, 42408, Note_on_c, 1, 58, 74
1, 42431, Note_on_c, 0, 73, 0
1, 42431, Note_on_c, 1, 58, 0
1, 42432, Note_on_c, 0, 74, 82
1, 42432, Note_on_c, 1, 59, 75
1, 42469, Note_on_c, 0, 62, 0
1, 42477, Note_on_c, 0, 74, 0
1, 42477, Note_on_c, 1, 59, 0
1, 42480, Note_on_c, 0, 74, 100
1, 42480, Note_on_c, 0, 66, 84
1, 42480, Note_on_c, 0, 62, 84
1, 42480, Note_on_c, 1, 57, 77
1, 42528, Note_on_c, 0, 74, 0
1, 42528, Note_on_c, 0, 72, 84
1, 42569, Note_on_c, 1, 57, 0
1, 42573, Note_on_c, 0, 72, 0
1, 42576, Note_on_c, 0, 71, 84
1, 42576, Note_on_c, 0, 67, 84
1, 42576, Note_on_c, 1, 55, 77
1, 42596, Note_on_c, 0, 71, 0
1, 42596, Note_on_c, 0, 67, 0
1, 42596, Note_on_c, 1, 55, 0
1, 42613, Note_on_c, 0, 66, 0
1, 42613, Note_on_c, 0, 62, 0
1, 42624, Note_on_c, 0, 71, 100
1, 42624, Note_on_c, 0, 67, 100
1, 42624, Note_on_c, 1, 50, 77
1, 42672, Note_on_c, 0, 71, 0
1, 42672, Note_on_c, 0, 67, 0
1, 42672, Note_on_c, 0, 69, 81
1, 42672, Note_on_c, 0, 66, 81
1, 42691, Note_on_c, 1, 50, 0
1, 42692, Note_on_c, 0, 69, 0
1, 42692, Note_on_c, 0, 66, 0
1, 42696, Note_on_c, 1, 51, 77
1, 42708, Note_on_c, 1, 51, 0
1, 42708, Note_on_c, 1, 54, 77
1, 42720, Note_on_c, 0, 69, 79
1, 42720, Note_on_c, 0, 66, 79
1, 42720, Note_on_c, 1, 54, 0
1, 42720, Note_on_c, 1, 55, 77
1, 42732, Note_on_c, 1, 55, 0
1, 42732, Note_on_c, 1, 57, 77
1, 42740, Note_on_c, 0, 69, 0
1, 42740, Note_on_c, 0, 66, 0
1, 42744, Note_on_c, 1, 57, 0
1, 42744, Note_on_c, 1, 59, 77
1, 42756, Note_on_c, 1, 59, 0
1, 42756, Note_on_c, 1, 61, 77
1, 42768, Note_on_c, 0, 69, 77
1, 42768, Note_on_c, 0, 66, 77
1, 42768, Note_on_c, 1, 61, 0
1, 42768, Note_on_c, 1, 62, 93
1, 42816, Note_on_c, 1, 62, 0
1, 42816, Note_on_c, 1, 60, 74
1, 42857, Note_on_c, 0, 69, 0
1, 42857, Note_on_c, 0, 66, 0
1, 42861, Note_on_c, 1, 60, 0
1, 42864, Note_on_c, 0, 71, 79
1, 42864, Note_on_c, 0, 68, 79
1, 42864, Note_on_c, 1, 59, 72
1, 42909, Note_on_c, 0, 71, 0
1, 42909, Note_on_c, 0, 68, 0
1, 42909, Note_on_c, 1, 59, 0
1, 42912, Note_on_c, 0, 72, 80
1, 42912, Note_on_c, 1, 57, 70
1, 42924, Note_on_c, 0, 72, 0
1, 42924, Note_on_c, 0, 69, 80
1, 42936, Note_on_c, 0, 69, 0
1, 42936, Note_on_c, 0, 71, 81
1, 42948, Note_on_c, 0, 71, 0
1, 42948, Note_on_c, 0, 72, 81
1, 42960, Note_on_c, 0, 72, 0
1, 42960, Note_on_c, 0, 74, 81
1, 42972, Note_on_c, 0, 74, 0
1, 42972, Note_on_c, 0, 76, 81
1, 42984, Note_on_c, 0, 76, 0
1, 42984, Note_on_c, 0, 78, 82
1, 42996, Note_on_c, 0, 78, 0
1, 42996, Note_on_c, 0, 79, 82
1, 43001, Note_on_c, 1, 57, 0
1, 43008, Note_on_c, 0, 79, 0
1, 43008, Note_on_c, 0, 81, 82
1, 43008, Note_on_c, 1, 55, 72
1, 43020, Note_on_c, 0, 81, 0
1, 43020, Note_on_c, 0, 83, 83
1, 43032, Note_on_c, 0, 83, 0
1, 43032, Note_on_c, 0, 84, 83
1, 43044, Note_on_c, 0, 84, 0
1, 43044, Note_on_c, 0, 86, 83
1, 43053, Note_on_c, 1, 55, 0
1, 43056, Note_on_c, 0, 86, 0
1, 43056, Note_on_c, 0, 88, 100
1, 43056, Note_on_c, 0, 84, 84
1, 43056, Note_on_c, 1, 54, 73
1, 43101, Note_on_c, 0, 84, 0
1, 43104, Note_on_c, 0, 88, 0
1, 43104, Note_on_c, 0, 86, 84
1, 43104, Note_on_c, 0, 83, 84
1, 43149, Note_on_c, 0, 86, 0
1, 43149, Note_on_c, 0, 83, 0
1, 43152, Note_on_c, 0, 86, 84
1, 43152, Note_on_c, 0, 81, 84
1, 43152, Note_on_c, 1, 62, 84
1, 43164, Note_on_c, 0, 86, 0
1, 43164, Note_on_c, 0, 84, 84
1, 43176, Note_on_c, 0, 84, 0
1, 43176, Note_on_c, 0, 83, 84
1, 43188, Note_on_c, 0, 83, 0
1, 43188, Note_on_c, 0, 84, 84
1, 43189, Note_on_c, 1, 54, 0
1, 43200, Note_on_c, 0, 84, 0
1, 43200, Note_on_c, 0, 84, 84
1, 43200, Note_on_c, 1, 55, 77
1, 43245, Note_on_c, 0, 84, 0
1, 43245, Note_on_c, 0, 81, 0
1, 43248, Note_on_c, 0, 83, 84
1, 43248, Note_on_c, 0, 79, 84
1, 43289, Note_on_c, 1, 62, 0
1, 43293, Note_on_c, 0, 83, 0
1, 43293, Note_on_c, 0, 79, 0
1, 43296, Note_on_c, 0, 86, 84
1, 43296, Note_on_c, 1, 65, 84
1, 43341, Note_on_c, 0, 86, 0
1, 43341, Note_on_c, 1, 65, 0
1, 43344, Note_on_c, 0, 88, 84
1, 43344, Note_on_c, 1, 64, 84
1, 43350, Note_on_c, 0, 88, 0
1, 43350, Note_on_c, 0, 86, 84
1, 43368, Note_on_c, 0, 86, 0
1, 43368, Note_on_c, 0, 84, 83
1, 43389, Note_on_c, 1, 64, 0
1, 43391, Note_on_c, 0, 84, 0
1, 43392, Note_on_c, 0, 86, 82
1, 43392, Note_on_c, 1, 62, 82
1, 43398, Note_on_c, 0, 86, 0
1, 43398, Note_on_c, 0, 84, 82
1, 43416, Note_on_c, 0, 84, 0
1, 43416, Note_on_c, 0, 83, 82
1, 43437, Note_on_c, 1, 62, 0
1, 43439, Note_on_c, 0, 83, 0
1, 43440, Note_on_c, 0, 84, 81
1, 43440, Note_on_c, 1, 60, 80
1, 43446, Note_on_c, 0, 84, 0
1, 43446, Note_on_c, 0, 83, 81
1, 43464, Note_on_c, 0, 83, 0
1, 43464, Note_on_c, 0, 81, 81
1, 43465, Note_on_c, 1, 55, 0
1, 43485, Note_on_c, 1, 60, 0
1, 43487, Note_on_c, 0, 81, 0
1, 43488, Note_on_c, 0, 83, 80
1, 43488, Note_on_c, 1, 55, 77
1, 43488, Note_on_c, 1, 59, 78
1, 43494, Note_on_c, 0, 83, 0
1, 43494, Note_on_c, 0, 81, 80
1, 43512, Note_on_c, 0, 81, 0
1, 43512, Note_on_c, 0, 79, 79
1, 43533, Note_on_c, 1, 59, 0
1, 43535, Note_on_c, 0, 79, 0
1, 43536, Note_on_c, 0, 81, 79
1, 43536, Note_on_c, 1, 57, 76
1, 43542, Note_on_c, 0, 81, 0
1, 43542, Note_on_c, 0, 79, 79
1, 43559, Note_on_c, 0, 79, 0
1, 43560, Note_on_c, 0, 78, 78
1, 43581, Note_on_c, 1, 57, 0
1, 43584, Note_on_c, 1, 60, 74
1, 43605, Note_on_c, 0, 78, 0
1, 43608, Note_on_c, 0, 81, 77
1, 43629, Note_on_c, 1, 60, 0
1, 43632, Note_on_c, 1, 59, 73
1, 43653, Note_on_c, 0, 81, 0
1, 43656, Note_on_c, 0, 79, 76
1, 43677, Note_on_c, 1, 59, 0
1, 43680, Note_on_c, 1, 67, 71
1, 43701, Note_on_c, 0, 79, 0
1, 43704, Note_on_c, 0, 76, 75
1, 43721, Note_on_c, 1, 55, 0
1, 43728, Note_on_c, 1, 57, 69
1, 43749, Note_on_c, 0, 76, 0
1, 43752, Note_on_c, 0, 73, 74
1, 43773, Note_on_c, 1, 57, 0
1, 43776, Note_on_c, 1, 62, 68
1, 43799, Note_on_c, 0, 73, 0
1, 43800, Note_on_c, 0, 74, 72
1, 43821, Note_on_c, 1, 67, 0
1, 43823, Note_on_c, 0, 74, 0
1, 43824, Note_on_c, 0, 76, 72
1, 43824, Note_on_c, 1, 66, 65
1, 43847, Note_on_c, 0, 76, 0
1, 43848, Note_on_c, 0, 74, 71
1, 43869, Note_on_c, 1, 66, 0
1, 43871, Note_on_c, 0, 74, 0
1, 43872, Note_on_c, 0, 76, 71
1, 43872, Note_on_c, 1, 66, 63
1, 43895, Note_on_c, 0, 76, 0
1, 43896, Note_on_c, 0, 74, 70
1, 43917, Note_on_c, 1, 66, 0
1, 43919, Note_on_c, 0, 74, 0
1, 43920, Note_on_c, 0, 74, 70
1, 43920, Note_on_c, 1, 66, 62
1, 43965, Note_on_c, 0, 74, 0
1, 43965, Note_on_c, 1, 62, 0
1, 43965, Note_on_c, 1, 66, 0
1, 44016, Note_on_c, 0, 67, 86
1, 44016, Note_on_c, 1, 59, 62
1, 44016, Note_on_c, 1, 55, 62
1, 44036, Note_on_c, 0, 67, 0
1, 44036, Note_on_c, 1, 59, 0
1, 44036, Note_on_c, 1, 55, 0
1, 44064, Note_on_c, 0, 67, 86
1, 44064, Note_on_c, 1, 59, 62
1, 44064, Note_on_c, 1, 55, 62
1, 44153, Note_on_c, 1, 59, 0
1, 44153, Note_on_c, 1, 55, 0
1, 44160, Note_on_c, 0, 67, 0
1, 44160, Note_on_c, 0, 71, 70
1, 44160, Note_on_c, 1, 60, 62
1, 44160, Note_on_c, 1, 55, 62
1, 44172, Note_on_c, 0, 71, 0
1, 44172, Note_on_c, 0, 69, 70
1, 44180, Note_on_c, 1, 60, 0
1, 44180, Note_on_c, 1, 55, 0
1, 44205, Note_on_c, 0, 69, 0
1, 44208, Note_on_c, 0, 62, 70
1, 44208, Note_on_c, 1, 60, 62
1, 44208, Note_on_c, 1, 55, 62
1, 44253, Note_on_c, 0, 62, 0
1, 44256, Note_on_c, 0, 66, 70
1, 44280, Note_on_c, 0, 66, 0
1, 44280, Note_on_c, 0, 64, 71
1, 44297, Note_on_c, 1, 60, 0
1, 44297, Note_on_c, 1, 55, 0
1, 44303, Note_on_c, 0, 64, 0
1, 44304, Note_on_c, 0, 67, 72
1, 44304, Note_on_c, 1, 60, 67
1, 44304, Note_on_c, 1, 55, 67
1, 44324, Note_on_c, 1, 60, 0
1, 44324, Note_on_c, 1, 55, 0
1, 44328, Note_on_c, 0, 67, 0
1, 44328, Note_on_c, 0, 66, 73
1, 44351, Note_on_c, 0, 66, 0
1, 44352, Note_on_c, 0, 69, 74
1, 44352, Note_on_c, 1, 59, 69
1, 44352, Note_on_c, 1, 55, 69
1, 44376, Note_on_c, 0, 69, 0
1, 44376, Note_on_c, 0, 67, 75
1, 44399, Note_on_c, 0, 67, 0
1, 44400, Note_on_c, 0, 72, 76
1, 44424, Note_on_c, 0, 72, 0
1, 44424, Note_on_c, 0, 71, 77
1, 44441, Note_on_c, 1, 59, 0
1, 44441, Note_on_c, 1, 55, 0
1, 44447, Note_on_c, 0, 71, 0
1, 44448, Note_on_c, 0, 74, 78
1, 44448, Note_on_c, 1, 59, 74
1, 44448, Note_on_c, 1, 55, 74
1, 44468, Note_on_c, 1, 59, 0
1, 44468, Note_on_c, 1, 55, 0
1, 44472, Note_on_c, 0, 74, 0
1, 44472, Note_on_c, 0, 71, 79
1, 44495, Note_on_c, 0, 71, 0
1, 44496, Note_on_c, 0, 67, 80
1, 44496, Note_on_c, 1, 59, 77
1, 44496, Note_on_c, 1, 55, 77
1, 44585, Note_on_c, 0, 67, 0
1, 44585, Note_on_c, 1, 59, 0
1, 44585, Note_on_c, 1, 55, 0
1, 44592, Note_on_c, 0, 69, 77
1, 44592, Note_on_c, 0, 62, 77
1, 44592, Note_on_c, 1, 54, 70
1, 44612, Note_on_c, 0, 69, 0
1, 44612, Note_on_c, 0, 62, 0
1, 44612, Note_on_c, 1, 54, 0
1, 44640, Note_on_c, 0, 70, 78
1, 44640, Note_on_c, 0, 62, 77
1, 44640, Note_on_c, 1, 55, 71
1, 44663, Note_on_c, 0, 70, 0
1, 44663, Note_on_c, 1, 55, 0
1, 44664, Note_on_c, 0, 71, 79
1, 44664, Note_on_c, 1, 56, 72
1, 44687, Note_on_c, 0, 71, 0
1, 44687, Note_on_c, 1, 56, 0
1, 44688, Note_on_c, 0, 72, 80
1, 44688, Note_on_c, 1, 57, 73
1, 44711, Note_on_c, 0, 72, 0
1, 44711, Note_on_c, 1, 57, 0
1, 44712, Note_on_c, 0, 73, 81
1, 44712, Note_on_c, 1, 58, 74
1, 44735, Note_on_c, 0, 73, 0
1, 44735, Note_on_c, 1, 58, 0
1, 44736, Note_on_c, 0, 74, 82
1, 44736, Note_on_c, 1, 59, 75
1, 44773, Note_on_c, 0, 62, 0
1, 44781, Note_on_c, 0, 74, 0
1, 44781, Note_on_c, 1, 59, 0
1, 44784, Note_on_c, 0, 74, 100
1, 44784, Note_on_c, 0, 66, 84
1, 44784, Note_on_c, 0, 62, 84
1, 44784, Note_on_c, 1, 57, 77
1, 44832, Note_on_c, 0, 74, 0
1, 44832, Note_on_c, 0, 72, 84
1, 44873, Note_on_c, 1, 57, 0
1, 44877, Note_on_c, 0, 72, 0
1, 44880, Note_on_c, 0, 71, 84
1, 44880, Note_on_c, 0, 67, 84
1, 44880, Note_on_c, 1, 55, 77
1, 44900, Note_on_c, 0, 71, 0
1, 44900, Note_on_c, 0, 67, 0
1, 44900, Note_on_c, 1, 55, 0
1, 44917, Note_on_c, 0, 66, 0
1, 44917, Note_on_c, 0, 62, 0
1, 44928, Note_on_c, 0, 71, 100
1, 44928, Note_on_c, 0, 67, 100
1, 44928, Note_on_c, 1, 50, 77
1, 44976, Note_on_c, 0, 71, 0
1, 44976, Note_on_c, 0, 67, 0
1, 44976, Note_on_c, 0, 69, 81
1, 44976, Note_on_c, 0, 66, 81
1, 44995, Note_on_c, 1, 50, 0
1, 44996, Note_on_c, 0, 69, 0
1, 44996, Note_on_c, 0, 66, 0
1, 45000, Note_on_c, 1, 51, 77
1, 45012, Note_on_c, 1, 51, 0
1, 45012, Note_on_c, 1, 54, 77
1, 45024, Note_on_c, 0, 69, 79
1, 45024, Note_on_c, 0, 66, 79
1, 45024, Note_on_c, 1, 54, 0
1, 45024, Note_on_c, 1, 55, 77
1, 45036, Note_on_c, 1, 55, 0
1, 45036, Note_on_c, 1, 57, 77
1, 45044, Note_on_c, 0, 69, 0
1, 45044, Note_on_c, 0, 66, 0
1, 45048, Note_on_c, 1, 57, 0
1, 45048, Note_on_c, 1, 59, 77
1, 45060, Note_on_c, 1, 59, 0
1, 45060, Note_on_c, 1, 61, 77
1, 45072, Note_on_c, 0, 69, 77
1, 45072, Note_on_c, 0, 66, 77
1, 45072, Note_on_c, 1, 61, 0
1, 45072, Note_on_c, 1, 62, 93
1, 45120, Note_on_c, 1, 62, 0
1, 45120, Note_on_c, 1, 60, 74
1, 45161, Note_on_c, 0, 69, 0
1, 45161, Note_on_c, 0, 66, 0
1, 45165, Note_on_c, 1, 60, 0
1, 45168, Note_on_c, 0, 71, 79
1, 45168, Note_on_c, 0, 68, 79
1, 45168, Note_on_c, 1, 59, 72
1, 45213, Note_on_c, 0, 71, 0
1, 45213, Note_on_c, 0, 68, 0
1, 45213, Note_on_c, 1, 59, 0
1, 45216, Note_on_c, 0, 72, 80
1, 45216, Note_on_c, 1, 57, 70
1, 45228, Note_on_c, 0, 72, 0
1, 45228, Note_on_c, 0, 69, 80
1, 45240, Note_on_c, 0, 69, 0
1, 45240, Note_on_c, 0, 71, 81
1, 45252, Note_on_c, 0, 71, 0
1, 45252, Note_on_c, 0, 72, 81
1, 45264, Note_on_c, 0, 72, 0
1, 45264, Note_on_c, 0, 74, 81
1, 45276, Note_on_c, 0, 74, 0
1, 45276, Note_on_c, 0, 76, 81
1, 45288, Note_on_c, 0, 76, 0
1, 45288, Note_on_c, 0, 78, 82
1, 45300, Note_on_c, 0, 78, 0
1, 45300, Note_on_c, 0, 79, 82
1, 45305, Note_on_c, 1, 57, 0
1, 45312, Note_on_c, 0, 79, 0
1, 45312, Note_on_c, 0, 81, 82
1, 45312, Note_on_c, 1, 55, 72
1, 45324, Note_on_c, 0, 81, 0
1, 45324, Note_on_c, 0, 83, 83
1, 45336, Note_on_c, 0, 83, 0
1, 45336, Note_on_c, 0, 84, 83
1, 45348, Note_on_c, 0, 84, 0
1, 45348, Note_on_c, 0, 86, 83
1, 45357, Note_on_c, 1, 55, 0
1, 45360, Note_on_c, 0, 86, 0
1, 45360, Note_on_c, 0, 88, 100
1, 45360, Note_on_c, 0, 84, 84
1, 45360, Note_on_c, 1, 54, 73
1, 45405, Note_on_c, 0, 84, 0
1, 45408, Note_on_c, 0, 88, 0
1, 45408, Note_on_c, 0, 86, 84
1, 45408, Note_on_c, 0, 83, 84
1, 45453, Note_on_c, 0, 86, 0
1, 45453, Note_on_c, 0, 83, 0
1, 45456, Note_on_c, 0, 86, 84
1, 45456, Note_on_c, 0, 81, 84
1, 45456, Note_on_c, 1, 62, 84
1, 45468, Note_on_c, 0, 86, 0
1, 45468, Note_on_c, 0, 84, 84
1, 45480, Note_on_c, 0, 84, 0
1, 45480, Note_on_c, 0, 83, 84
1, 45492, Note_on_c, 0, 83, 0
1, 45492, Note_on_c, 0, 84, 84
1, 45493, Note_on_c, 1, 54, 0
1, 45504, Note_on_c, 0, 84, 0
1, 45504, Note_on_c, 0, 84, 84
1, 45504, Note_on_c, 1, 55, 77
1, 45549, Note_on_c, 0, 84, 0
1, 45549, Note_on_c, 0, 81, 0
1, 45552, Note_on_c, 0, 83, 84
1, 45552, Note_on_c, 0, 79, 84
1, 45593, Note_on_c, 1, 62, 0
1, 45597, Note_on_c, 0, 83, 0
1, 45597, Note_on_c, 0, 79, 0
1, 45600, Note_on_c, 0, 86, 84
1, 45600, Note_on_c, 1, 65, 84
1, 45645, Note_on_c, 0, 86, 0
1, 45645, Note_on_c, 1, 65, 0
1, 45648, Note_on_c, 0, 88, 84
1, 45648, Note_on_c, 1, 64, 84
1, 45654, Note_on_c, 0, 88, 0
1, 45654, Note_on_c, 0, 86, 84
1, 45672, Note_on_c, 0, 86, 0
1, 45672, Note_on_c, 0, 84, 83
1, 45693, Note_on_c, 1, 64, 0
1, 45695, Note_on_c, 0, 84, 0
1, 45696, Note_on_c, 0, 86, 82
1, 45696, Note_on_c, 1, 62, 82
1, 45702, Note_on_c, 0, 86, 0
1, 45702, Note_on_c, 0, 84, 82
1, 45720, Note_on_c, 0, 84, 0
1, 45720, Note_on_c, 0, 83, 82
1, 45741, Note_on_c, 1, 62, 0
1, 45743, Note_on_c, 0, 83, 0
1, 45744, Note_on_c, 0, 84, 81
1, 45744, Note_on_c, 1, 60, 80
1, 45750, Note_on_c, 0, 84, 0
1, 45750, Note_on_c, 0, 83, 81
1, 45768, Note_on_c, 0, 83, 0
1, 45768, Note_on_c, 0, 81, 81
1, 45769, Note_on_c, 1, 55, 0
1, 45789, Note_on_c, 1, 60, 0
1, 45791, Note_on_c, 0, 81, 0
1, 45792, Note_on_c, 0, 83, 80
1, 45792, Note_on_c, 1, 55, 77
1, 45792, Note_on_c, 1, 59, 78
1, 45798, Note_on_c, 0, 83, 0
1, 45798, Note_on_c, 0, 81, 80
1, 45816, Note_on_c, 0, 81, 0
1, 45816, Note_on_c, 0, 79, 79
1, 45837, Note_on_c, 1, 59, 0
1, 45839, Note_on_c, 0, 79, 0
1, 45840, Note_on_c, 0, 81, 79
1, 45840, Note_on_c, 1, 57, 76
1, 45846, Note_on_c, 0, 81, 0
1, 45846, Note_on_c, 0, 79, 79
1, 45863, Note_on_c, 0, 79, 0
1, 45864, Note_on_c, 0, 78, 78
1, 45885, Note_on_c, 1, 57, 0
1, 45888, Note_on_c, 1, 60, 74
1, 45909, Note_on_c, 0, 78, 0
1, 45912, Note_on_c, 0, 81, 77
1, 45933, Note_on_c, 1, 60, 0
1, 45936, Note_on_c, 1, 59, 73
1, 45957, Note_on_c, 0, 81, 0
1, 45960, Note_on_c, 0, 79, 76
1, 45981, Note_on_c, 1, 59, 0
1, 45984, Note_on_c, 1, 67, 71
1, 46005, Note_on_c, 0, 79, 0
1, 46008, Note_on_c, 0, 76, 75
1, 46025, Note_on_c, 1, 55, 0
1, 46032, Note_on_c, 1, 57, 69
1, 46053, Note_on_c, 0, 76, 0
1, 46056, Note_on_c, 0, 73, 74
1, 46077, Note_on_c, 1, 57, 0
1, 46080, Note_on_c, 0, 73, 73
1, 46080, Note_on_c, 1, 62, 68
1, 46080, Note_on_c, 1, 67, 67
1, 46103, Note_on_c, 0, 73, 0
1, 46104, Note_on_c, 0, 74, 72
1, 46125, Note_on_c, 1, 67, 0
1, 46127, Note_on_c, 0, 74, 0
1, 46128, Note_on_c, 0, 76, 72
1, 46128, Note_on_c, 1, 66, 65
1, 46151, Note_on_c, 0, 76, 0
1, 46152, Note_on_c, 0, 74, 71
1, 46173, Note_on_c, 1, 66, 0
1, 46175, Note_on_c, 0, 74, 0
1, 46176, Note_on_c, 0, 76, 71
1, 46176, Note_on_c, 1, 66, 63
1, 46199, Note_on_c, 0, 76, 0
1, 46200, Note_on_c, 0, 74, 70
1, 46221, Note_on_c, 1, 66, 0
1, 46223, Note_on_c, 0, 74, 0
1, 46224, Note_on_c, 0, 74, 70
1, 46224, Note_on_c, 1, 66, 62
1, 46269, Note_on_c, 0, 74, 0
1, 46269, Note_on_c, 1, 62, 0
1, 46269, Note_on_c, 1, 66, 0
1, 46320, Note_on_c, 0, 79, 86
1, 46320, Note_on_c, 1, 74, 62
1, 46320, Note_on_c, 1, 71, 62
1, 46340, Note_on_c, 0, 79, 0
1, 46340, Note_on_c, 1, 74, 0
1, 46340, Note_on_c, 1, 71, 0
1, 46368, Note_on_c, 0, 78, 62
1, 46368, Note_on_c, 1, 74, 62
1, 46368, Note_on_c, 1, 71, 62
1, 46392, Note_on_c, 0, 78, 0
1, 46392, Note_on_c, 0, 79, 62
1, 46415, Note_on_c, 0, 79, 0
1, 46416, Note_on_c, 0, 81, 63
1, 46440, Note_on_c, 0, 81, 0
1, 46440, Note_on_c, 0, 79, 64
1, 46457, Note_on_c, 1, 74, 0
1, 46457, Note_on_c, 1, 71, 0
1, 46463, Note_on_c, 0, 79, 0
1, 46464, Note_on_c, 0, 81, 65
1, 46464, Note_on_c, 1, 76, 65
1, 46464, Note_on_c, 1, 72, 65
1, 46488, Note_on_c, 0, 81, 0
1, 46488, Note_on_c, 0, 79, 65
1, 46509, Note_on_c, 1, 76, 0
1, 46509, Note_on_c, 1, 72, 0
1, 46511, Note_on_c, 0, 79, 0
1, 46512, Note_on_c, 0, 81, 66
1, 46512, Note_on_c, 1, 74, 66
1, 46512, Note_on_c, 1, 71, 66
1, 46536, Note_on_c, 0, 81, 0
1, 46536, Note_on_c, 0, 79, 67
1, 46557, Note_on_c, 1, 74, 0
1, 46557, Note_on_c, 1, 71, 0
1, 46559, Note_on_c, 0, 79, 0
1, 46560, Note_on_c, 0, 79, 68
1, 46560, Note_on_c, 1, 72, 68
1, 46560, Note_on_c, 1, 69, 68
1, 46584, Note_on_c, 0, 79, 0
1, 46584, Note_on_c, 0, 78, 69
1, 46605, Note_on_c, 1, 72, 0
1, 46605, Note_on_c, 1, 69, 0
1, 46607, Note_on_c, 0, 78, 0
1, 46608, Note_on_c, 0, 78, 69
1, 46608, Note_on_c, 1, 71, 69
1, 46608, Note_on_c, 1, 67, 69
1, 46632, Note_on_c, 0, 78, 0
1, 46632, Note_on_c, 0, 76, 70
1, 46653, Note_on_c, 1, 71, 0
1, 46653, Note_on_c, 1, 67, 0
1, 46655, Note_on_c, 0, 76, 0
1, 46656, Note_on_c, 0, 76, 71
1, 46656, Note_on_c, 1, 69, 71
1, 46656, Note_on_c, 1, 66, 71
1, 46680, Note_on_c, 0, 76, 0
1, 46680, Note_on_c, 0, 74, 72
1, 46703, Note_on_c, 0, 74, 0
1, 46704, Note_on_c, 0, 74, 72
1, 46714, Note_on_c, 0, 74, 0
1, 46728, Note_on_c, 0, 74, 73
1, 46738, Note_on_c, 0, 74, 0
1, 46745, Note_on_c, 1, 69, 0
1, 46745, Note_on_c, 1, 66, 0
1, 46752, Note_on_c, 0, 74, 74
1, 46752, Note_on_c, 1, 69, 74
1, 46752, Note_on_c, 1, 66, 74
1, 46762, Note_on_c, 0, 74, 0
1, 46776, Note_on_c, 0, 74, 75
1, 46786, Note_on_c, 0, 74, 0
1, 46797, Note_on_c, 1, 69, 0
1, 46797, Note_on_c, 1, 66, 0
1, 46800, Note_on_c, 0, 76, 76
1, 46800, Note_on_c, 1, 69, 76
1, 46800, Note_on_c, 1, 66, 76
1, 46824, Note_on_c, 0, 76, 0
1, 46824, Note_on_c, 0, 75, 76
1, 46847, Note_on_c, 0, 75, 0
1, 46848, Note_on_c, 0, 75, 77
1, 46858, Note_on_c, 0, 75, 0
1, 46872, Note_on_c, 0, 75, 78
1, 46882, Note_on_c, 0, 75, 0
1, 46889, Note_on_c, 1, 69, 0
1, 46889, Note_on_c, 1, 66, 0
1, 46896, Note_on_c, 0, 75, 79
1, 46896, Note_on_c, 1, 69, 79
1, 46896, Note_on_c, 1, 66, 79
1, 46906, Note_on_c, 0, 75, 0
1, 46920, Note_on_c, 0, 75, 79
1, 46930, Note_on_c, 0, 75, 0
1, 46941, Note_on_c, 1, 69, 0
1, 46941, Note_on_c, 1, 66, 0
1, 46944, Note_on_c, 0, 75, 80
1, 46944, Note_on_c, 1, 71, 80
1, 46944, Note_on_c, 1, 67, 80
1, 46968, Note_on_c, 0, 75, 0
1, 46968, Note_on_c, 0, 76, 81
1, 46991, Note_on_c, 0, 76, 0
1, 46992, Note_on_c, 0, 78, 82
1, 47016, Note_on_c, 0, 78, 0
1, 47016, Note_on_c, 0, 76, 83
1, 47039, Note_on_c, 0, 76, 0
1, 47040, Note_on_c, 0, 79, 83
1, 47064, Note_on_c, 0, 79, 0
1, 47064, Note_on_c, 0, 78, 84
1, 47077, Note_on_c, 1, 71, 0
1, 47077, Note_on_c, 1, 67, 0
1, 47087, Note_on_c, 0, 78, 0
1, 47088, Note_on_c, 0, 81, 101
1, 47088, Note_on_c, 1, 67, 85
1, 47088, Note_on_c, 1, 64, 85
1, 47088, Note_on_c, 1, 57, 85
1, 47112, Note_on_c, 0, 81, 0
1, 47112, Note_on_c, 0, 79, 86
1, 47135, Note_on_c, 0, 79, 0
1, 47136, Note_on_c, 0, 78, 86
1, 47159, Note_on_c, 0, 78, 0
1, 47160, Note_on_c, 0, 76, 87
1, 47183, Note_on_c, 0, 76, 0
1, 47184, Note_on_c, 0, 74, 88
1, 47207, Note_on_c, 0, 74, 0
1, 47208, Note_on_c, 0, 73, 89
1, 47221, Note_on_c, 1, 67, 0
1, 47221, Note_on_c, 1, 64, 0
1, 47221, Note_on_c, 1, 57, 0
1, 47231, Note_on_c, 0, 73, 0
1, 47232, Note_on_c, 0, 74, 90
1, 47256, Note_on_c, 0, 74, 0
1, 47256, Note_on_c, 0, 86, 90
1, 47279, Note_on_c, 0, 86, 0
1, 47280, Note_on_c, 0, 74, 90
1, 47280, Note_on_c, 1, 54, 90
1, 47280, Note_on_c, 1, 50, 90
1, 47290, Note_on_c, 0, 74, 0
1, 47304, Note_on_c, 0, 74, 90
1, 47314, Note_on_c, 0, 74, 0
1, 47328, Note_on_c, 0, 74, 90
1, 47328, Note_on_c, 1, 54, 0
1, 47328, Note_on_c, 1, 50, 0
1, 47328, Note_on_c, 1, 55, 90
1, 47328, Note_on_c, 1, 52, 90
1, 47338, Note_on_c, 0, 74, 0
1, 47348, Note_on_c, 1, 55, 0
1, 47348, Note_on_c, 1, 52, 0
1, 47352, Note_on_c, 0, 74, 90
1, 47362, Note_on_c, 0, 74, 0
1, 47376, Note_on_c, 0, 74, 90
1, 47400, Note_on_c, 0, 74, 0
1, 47400, Note_on_c, 0, 86, 90
1, 47423, Note_on_c, 0, 86, 0
1, 47424, Note_on_c, 0, 74, 90
1, 47424, Note_on_c, 1, 57, 90
1, 47424, Note_on_c, 1, 54, 90
1, 47434, Note_on_c, 0, 74, 0
1, 47448, Note_on_c, 0, 74, 90
1, 47458, Note_on_c, 0, 74, 0
1, 47472, Note_on_c, 0, 74, 90
1, 47472, Note_on_c, 1, 57, 0
1, 47472, Note_on_c, 1, 54, 0
1, 47472, Note_on_c, 1, 59, 90
1, 47472, Note_on_c, 1, 55, 90
1, 47482, Note_on_c, 0, 74, 0
1, 47492, Note_on_c, 1, 59, 0
1, 47492, Note_on_c, 1, 55, 0
1, 47496, Note_on_c, 0, 74, 90
1, 47506, Note_on_c, 0, 74, 0
1, 47520, Note_on_c, 0, 74, 90
1, 47532, Note_on_c, 0, 74, 0
1, 47532, Note_on_c, 0, 78, 90
1, 47544, Note_on_c, 0, 78, 0
1, 47544, Note_on_c, 0, 81, 90
1, 47556, Note_on_c, 0, 81, 0
1, 47556, Note_on_c, 0, 86, 90
1, 47568, Note_on_c, 0, 86, 0
1, 47568, Note_on_c, 0, 74, 90
1, 47568, Note_on_c, 1, 60, 90
1, 47568, Note_on_c, 1, 57, 90
1, 47578, Note_on_c, 0, 74, 0
1, 47592, Note_on_c, 0, 74, 90
1, 47602, Note_on_c, 0, 74, 0
1, 47616, Note_on_c, 0, 74, 90
1, 47616, Note_on_c, 1, 60, 0
1, 47616, Note_on_c, 1, 57, 0
1, 47616, Note_on_c, 1, 59, 90
1, 47616, Note_on_c, 1, 55, 90
1, 47626, Note_on_c, 0, 74, 0
1, 47636, Note_on_c, 1, 59, 0
1, 47636, Note_on_c, 1, 55, 0
1, 47640, Note_on_c, 0, 74, 90
1, 47650, Note_on_c, 0, 74, 0
1, 47664, Note_on_c, 0, 74, 90
1, 47676, Note_on_c, 0, 74, 0
1, 47676, Note_on_c, 0, 78, 90
1, 47688, Note_on_c, 0, 78, 0
1, 47688, Note_on_c, 0, 81, 90
1, 47700, Note_on_c, 0, 81, 0
1, 47700, Note_on_c, 0, 86, 90
1, 47712, Note_on_c, 0, 86, 0
1, 47712, Note_on_c, 0, 74, 90
1, 47712, Note_on_c, 1, 57, 90
1, 47712, Note_on_c, 1, 54, 90
1, 47722, Note_on_c, 0, 74, 0
1, 47736, Note_on_c, 0, 74, 90
1, 47746, Note_on_c, 0, 74, 0
1, 47760, Note_on_c, 0, 74, 90
1, 47760, Note_on_c, 1, 57, 0
1, 47760, Note_on_c, 1, 54, 0
1, 47760, Note_on_c, 1, 55, 90
1, 47760, Note_on_c, 1, 52, 90
1, 47770, Note_on_c, 0, 74, 0
1, 47780, Note_on_c, 1, 55, 0
1, 47780, Note_on_c, 1, 52, 0
1, 47784, Note_on_c, 0, 74, 90
1, 47794, Note_on_c, 0, 74, 0
1, 47808, Note_on_c, 0, 74, 90
1, 47808, Note_on_c, 1, 54, 90
1, 47808, Note_on_c, 1, 50, 90
1, 47832, Note_on_c, 0, 74, 0
1, 47832, Note_on_c, 0, 86, 89
1, 47853, Note_on_c, 1, 54, 0
1, 47853, Note_on_c, 1, 50, 0
1, 47855, Note_on_c, 0, 86, 0
1, 47856, Note_on_c, 0, 86, 88
1, 47856, Note_on_c, 1, 66, 88
1, 47856, Note_on_c, 1, 62, 88
1, 47866, Note_on_c, 0, 86, 0
1, 47880, Note_on_c, 0, 86, 87
1, 47890, Note_on_c, 0, 86, 0
1, 47904, Note_on_c, 0, 86, 86
1, 47904, Note_on_c, 1, 66, 0
1, 47904, Note_on_c, 1, 62, 0
1, 47904, Note_on_c, 1, 67, 86
1, 47904, Note_on_c, 1, 64, 86
1, 47914, Note_on_c, 0, 86, 0
1, 47924, Note_on_c, 1, 67, 0
1, 47924, Note_on_c, 1, 64, 0
1, 47928, Note_on_c, 0, 86, 85
1, 47938, Note_on_c, 0, 86, 0
1, 47952, Note_on_c, 0, 85, 84
1, 47976, Note_on_c, 0, 85, 0
1, 47976, Note_on_c, 0, 86, 83
1, 47999, Note_on_c, 0, 86, 0
1, 48000, Note_on_c, 0, 86, 83
1, 48000, Note_on_c, 1, 69, 83
1, 48000, Note_on_c, 1, 66, 83
1, 48010, Note_on_c, 0, 86, 0
1, 48024, Note_on_c, 0, 86, 82
1, 48034, Note_on_c, 0, 86, 0
1, 48048, Note_on_c, 0, 86, 81
1, 48048, Note_on_c, 1, 69, 0
1, 48048, Note_on_c, 1, 66, 0
1, 48048, Note_on_c, 1, 70, 81
1, 48048, Note_on_c, 1, 67, 81
1, 48058, Note_on_c, 0, 86, 0
1, 48068, Note_on_c, 1, 70, 0
1, 48068, Note_on_c, 1, 67, 0
1, 48072, Note_on_c, 0, 86, 80
1, 48082, Note_on_c, 0, 86, 0
1, 48096, Note_on_c, 0, 87, 79
1, 48120, Note_on_c, 0, 87, 0
1, 48120, Note_on_c, 0, 86, 78
1, 48143, Note_on_c, 0, 86, 0
1, 48144, Note_on_c, 0, 86, 77
1, 48144, Note_on_c, 1, 72, 78
1, 48144, Note_on_c, 1, 69, 78
1, 48154, Note_on_c, 0, 86, 0
1, 48168, Note_on_c, 0, 86, 76
1, 48178, Note_on_c, 0, 86, 0
1, 48192, Note_on_c, 0, 86, 76
1, 48192, Note_on_c, 1, 72, 0
1, 48192, Note_on_c, 1, 69, 0
1, 48192, Note_on_c, 1, 70, 76
1, 48192, Note_on_c, 1, 67, 76
1, 48202, Note_on_c, 0, 86, 0
1, 48212, Note_on_c, 1, 70, 0
1, 48212, Note_on_c, 1, 67, 0
1, 48216, Note_on_c, 0, 86, 75
1, 48226, Note_on_c, 0, 86, 0
1, 48240, Note_on_c, 0, 85, 74
1, 48264, Note_on_c, 0, 85, 0
1, 48264, Note_on_c, 0, 86, 73
1, 48287, Note_on_c, 0, 86, 0
1, 48288, Note_on_c, 0, 86, 72
1, 48288, Note_on_c, 1, 69, 73
1, 48288, Note_on_c, 1, 66, 73
1, 48298, Note_on_c, 0, 86, 0
1, 48312, Note_on_c, 0, 86, 71
1, 48322, Note_on_c, 0, 86, 0
1, 48336, Note_on_c, 0, 86, 70
1, 48336, Note_on_c, 1, 69, 0
1, 48336, Note_on_c, 1, 66, 0
1, 48336, Note_on_c, 1, 67, 71
1, 48336, Note_on_c, 1, 64, 71
1, 48346, Note_on_c, 0, 86, 0
1, 48356, Note_on_c, 1, 67, 0
1, 48356, Note_on_c, 1, 64, 0
1, 48360, Note_on_c, 0, 86, 69
1, 48370, Note_on_c, 0, 86, 0
1, 48384, Note_on_c, 0, 86, 69
1, 48384, Note_on_c, 1, 66, 70
1, 48384, Note_on_c, 1, 62, 70
1, 48394, Note_on_c, 0, 86, 0
1, 48408, Note_on_c, 0, 86, 68
1, 48418, Note_on_c, 0, 86, 0
1, 48432, Note_on_c, 0, 86, 67
1, 48442, Note_on_c, 0, 86, 0
1, 48456, Note_on_c, 0, 86, 66
1, 48466, Note_on_c, 0, 86, 0
1, 48473, Note_on_c, 1, 66, 0
1, 48473, Note_on_c, 1, 62, 0
1, 48480, Note_on_c, 0, 86, 65
1, 48490, Note_on_c, 0, 86, 0
1, 48504, Note_on_c, 0, 86, 64
1, 48514, Note_on_c, 0, 86, 0
1, 48528, Note_on_c, 0, 86, 63
1, 48548, Note_on_c, 0, 86, 0
1, 48576, Note_on_c, 0, 86, 62
1, 48596, Note_on_c, 0, 86, 0
1, 48624, Note_on_c, 0, 86, 62
1, 48644, Note_on_c, 0, 86, 0
1, 48672, Tempo, 722891
1, 48672, Note_on_c, 0, 86, 62
1, 48672, Note_on_c, 0, 84, 62
1, 48692, Note_on_c, 0, 86, 0
1, 48692, Note_on_c, 0, 84, 0
1, 48720, Note_on_c, 0, 86, 62
1, 48720, Note_on_c, 0, 84, 62
1, 48740, Note_on_c, 0, 86, 0
1, 48740, Note_on_c, 0, 84, 0
1, 48768, Note_on_c, 0, 86, 62
1, 48768, Note_on_c, 0, 84, 62
1, 48788, Note_on_c, 0, 86, 0
1, 48788, Note_on_c, 0, 84, 0
1, 48816, Tempo, 750000
1, 48816, Note_on_c, 0, 86, 62
1, 48816, Note_on_c, 0, 84, 62
1, 48816, Note_on_c, 1, 81, 62
1, 48836, Note_on_c, 0, 86, 0
1, 48836, Note_on_c, 0, 84, 0
1, 48836, Note_on_c, 1, 81, 0
1, 48864, Note_on_c, 0, 86, 62
1, 48864, Note_on_c, 0, 84, 62
1, 48864, Note_on_c, 1, 81, 62
1, 48884, Note_on_c, 0, 86, 0
1, 48884, Note_on_c, 0, 84, 0
1, 48884, Note_on_c, 1, 81, 0
1, 48912, Note_on_c, 0, 86, 62
1, 48912, Note_on_c, 0, 84, 62
1, 48912, Note_on_c, 1, 81, 62
1, 48932, Note_on_c, 0, 86, 0
1, 48932, Note_on_c, 0, 84, 0
1, 48932, Note_on_c, 1, 81, 0
1, 48960, Tempo, 857142
1, 48960, Note_on_c, 0, 86, 62
1, 48960, Note_on_c, 0, 84, 62
1, 48960, Note_on_c, 1, 81, 62
1, 48960, Note_on_c, 1, 78, 62
1, 48980, Note_on_c, 0, 86, 0
1, 48980, Note_on_c, 0, 84, 0
1, 48980, Note_on_c, 1, 81, 0
1, 48980, Note_on_c, 1, 78, 0
1, 49008, Tempo, 1000000
1, 49008, Note_on_c, 0, 86, 62
1, 49008, Note_on_c, 0, 84, 62
1, 49008, Note_on_c, 1, 81, 62
1, 49008, Note_on_c, 1, 78, 62
1, 49028, Note_on_c, 0, 86, 0
1, 49028, Note_on_c, 0, 84, 0
1, 49028, Note_on_c, 1, 81, 0
1, 49028, Note_on_c, 1, 78, 0
1, 49056, Note_on_c, 0, 86, 62
1, 49056, Note_on_c, 0, 84, 62
1, 49056, Note_on_c, 1, 81, 62
1, 49056, Note_on_c, 1, 78, 62
1, 49076, Note_on_c, 0, 86, 0
1, 49076, Note_on_c, 0, 84, 0
1, 49076, Note_on_c, 1, 81, 0
1, 49076, Note_on_c, 1, 78, 0
1, 49104, Note_on_c, 0, 86, 62
1, 49104, Note_on_c, 0, 84, 62
1, 49104, Note_on_c, 1, 81, 62
1, 49104, Note_on_c, 1, 78, 62
1, 49104, Note_on_c, 1, 74, 62
1, 49237, Note_on_c, 0, 86, 0
1, 49237, Note_on_c, 0, 84, 0
1, 49237, Note_on_c, 1, 81, 0
1, 49237, Note_on_c, 1, 78, 0
1, 49237, Note_on_c, 1, 74, 0
1, 49248, Tempo, 705882
1, 49344, Note_on_c, 0, 74, 71
1, 49344, Note_on_c, 0, 72, 71
1, 49344, Note_on_c, 1, 69, 55
1, 49344, Note_on_c, 1, 66, 55
1, 49354, Note_on_c, 0, 74, 0
1, 49354, Note_on_c, 0, 72, 0
1, 49354, Note_on_c, 1, 69, 0
1, 49354, Note_on_c, 1, 66, 0
1, 49368, Tempo, 2400000
1, 49392, Note_on_c, 0, 74, 71
1, 49392, Note_on_c, 0, 72, 71
1, 49392, Note_on_c, 1, 69, 55
1, 49392, Note_on_c, 1, 66, 55
1, 49470, Note_on_c, 1, 69, 0
1, 49470, Note_on_c, 1, 66, 0
1, 49476, Note_on_c, 0, 74, 0
1, 49476, Note_on_c, 0, 72, 0
1, 49488, Tempo, 705882
1, 49488, Note_on_c, 0, 67, 86
1, 49488, Note_on_c, 1, 59, 62
1, 49488, Note_on_c, 1, 55, 62
1, 49508, Note_on_c, 0, 67, 0
1, 49508, Note_on_c, 1, 59, 0
1, 49508, Note_on_c, 1, 55, 0
1, 49536, Note_on_c, 0, 67, 70
1, 49536, Note_on_c, 1, 59, 62
1, 49536, Note_on_c, 1, 55, 62
1, 49625, Note_on_c, 0, 67, 0
1, 49625, Note_on_c, 1, 59, 0
1, 49625, Note_on_c, 1, 55, 0
1, 49632, Note_on_c, 0, 71, 70
1, 49632, Note_on_c, 1, 60, 62
1, 49632, Note_on_c, 1, 55, 62
1, 49644, Note_on_c, 0, 71, 0
1, 49644, Note_on_c, 0, 69, 70
1, 49652, Note_on_c, 1, 60, 0
1, 49652, Note_on_c, 1, 55, 0
1, 49677, Note_on_c, 0, 69, 0
1, 49680, Note_on_c, 0, 62, 70
1, 49680, Note_on_c, 1, 60, 62
1, 49680, Note_on_c, 1, 55, 62
1, 49725, Note_on_c, 0, 62, 0
1, 49728, Note_on_c, 0, 64, 70
1, 49769, Note_on_c, 1, 60, 0
1, 49769, Note_on_c, 1, 55, 0
1, 49773, Note_on_c, 0, 64, 0
1, 49776, Note_on_c, 0, 67, 70
1, 49776, Note_on_c, 1, 60, 62
1, 49776, Note_on_c, 1, 55, 62
1, 49788, Note_on_c, 0, 67, 0
1, 49788, Note_on_c, 0, 66, 70
1, 49796, Note_on_c, 1, 60, 0
1, 49796, Note_on_c, 1, 55, 0
1, 49800, Note_on_c, 0, 66, 0
1, 49800, Note_on_c, 0, 64, 70
1, 49812, Note_on_c, 0, 64, 0
1, 49812, Note_on_c, 0, 66, 70
1, 49824, Note_on_c, 0, 66, 0
1, 49824, Note_on_c, 0, 67, 70
1, 49824, Note_on_c, 1, 59, 62
1, 49824, Note_on_c, 1, 55, 62
1, 49844, Note_on_c, 0, 67, 0
1, 49844, Note_on_c, 1, 59, 0
1, 49844, Note_on_c, 1, 55, 0
1, 49872, Note_on_c, 0, 67, 77
1, 49872, Note_on_c, 1, 59, 62
1, 49872, Note_on_c, 1, 55, 62
1, 49892, Note_on_c, 0, 67, 0
1, 49892, Note_on_c, 1, 59, 0
1, 49892, Note_on_c, 1, 55, 0
1, 49920, Note_on_c, 0, 67, 73
1, 49920, Note_on_c, 1, 59, 62
1, 49920, Note_on_c, 1, 55, 62
1, 49940, Note_on_c, 0, 67, 0
1, 49940, Note_on_c, 1, 59, 0
1, 49940, Note_on_c, 1, 55, 0
1, 49968, Note_on_c, 0, 67, 70
1, 49968, Note_on_c, 1, 59, 62
1, 49968, Note_on_c, 1, 55, 62
1, 50057, Note_on_c, 0, 67, 0
1, 50057, Note_on_c, 1, 59, 0
1, 50057, Note_on_c, 1, 55, 0
1, 50064, Note_on_c, 0, 69, 84
1, 50064, Note_on_c, 0, 66, 84
1, 50064, Note_on_c, 0, 62, 84
1, 50064, Note_on_c, 1, 50, 84
1, 50109, Note_on_c, 0, 69, 0
1, 50109, Note_on_c, 0, 66, 0
1, 50109, Note_on_c, 0, 62, 0
1, 50109, Note_on_c, 1, 50, 0
1, 50112, Note_on_c, 0, 71, 84
1, 50112, Note_on_c, 0, 67, 84
1, 50112, Note_on_c, 0, 62, 84
1, 50112, Note_on_c, 1, 59, 84
1, 50112, Note_on_c, 1, 55, 84
1, 50157, Note_on_c, 0, 71, 0
1, 50157, Note_on_c, 0, 67, 0
1, 50157, Note_on_c, 0, 62, 0
1, 50157, Note_on_c, 1, 59, 0
1, 50157, Note_on_c, 1, 55, 0
1, 50208, Note_on_c, 0, 62, 84
1, 50208, Note_on_c, 1, 43, 84
1, 50214, Note_on_c, 0, 67, 84
1, 50214, Note_on_c, 1, 47, 84
1, 50220, Note_on_c, 0, 71, 84
1, 50220, Note_on_c, 1, 50, 84
1, 50226, Note_on_c, 0, 74, 84
1, 50226, Note_on_c, 1, 55, 84
1, 50253, Note_on_c, 0, 74, 0
1, 50253, Note_on_c, 0, 71, 0
1, 50253, Note_on_c, 0, 67, 0
1, 50253, Note_on_c, 0, 62, 0
1, 50253, Note_on_c, 1, 55, 0
1, 50253, Note_on_c, 1, 50, 0
1, 50253, Note_on_c, 1, 47, 0
1, 50253, Note_on_c, 1, 43, 0
1, 50256, Note_on_c, 0, 62, 84
1, 50256, Note_on_c, 1, 45, 84
1, 50262, Note_on_c, 0, 66, 84
1, 50262, Note_on_c, 1, 48, 84
1, 50268, Note_on_c, 0, 69, 84
1, 50268, Note_on_c, 1, 54, 84
1, 50274, Note_on_c, 0, 72, 84
1, 50274, Note_on_c, 1, 57, 84
1, 50349, Note_on_c, 0, 72, 0
1, 50349, Note_on_c, 0, 69, 0
1, 50349, Note_on_c, 0, 66, 0
1, 50349, Note_on_c, 0, 62, 0
1, 50349, Note_on_c, 1, 57, 0
1, 50349, Note_on_c, 1, 54, 0
1, 50349, Note_on_c, 1, 48, 0
1, 50349, Note_on_c, 1, 45, 0
1, 50352, Note_on_c, 0, 71, 84
1, 50352, Note_on_c, 0, 67, 84
1, 50352, Note_on_c, 0, 62, 84
1, 50352, Note_on_c, 1, 55, 84
1, 50352, Note_on_c, 1, 50, 84
1, 50352, Note_on_c, 1, 47, 84
1, 50397, Note_on_c, 0, 71, 0
1, 50397, Note_on_c, 0, 67, 0
1, 50397, Note_on_c, 0, 62, 0
1, 50397, Note_on_c, 1, 55, 0
1, 50397, Note_on_c, 1, 50, 0
1, 50397, Note_on_c, 1, 47, 0
1, 50400, Note_on_c, 0, 62, 84
1, 50412, Note_on_c, 0, 62, 0
1, 50412, Note_on_c, 0, 64, 84
1, 50424, Note_on_c, 0, 64, 0
1, 50424, Note_on_c, 0, 66, 85
1, 50436, Note_on_c, 0, 66, 0
1, 50436, Note_on_c, 0, 67, 85
1, 50448, Note_on_c, 0, 67, 0
1, 50448, Note_on_c, 0, 69, 86
1, 50460, Note_on_c, 0, 69, 0
1, 50460, Note_on_c, 0, 71, 86
1, 50472, Note_on_c, 0, 71, 0
1, 50472, Note_on_c, 0, 73, 87
1, 50484, Note_on_c, 0, 73, 0
1, 50484, Note_on_c, 0, 74, 87
1, 50496, Note_on_c, 0, 74, 0
1, 50496, Note_on_c, 0, 76, 88
1, 50508, Note_on_c, 0, 76, 0
1, 50508, Note_on_c, 0, 78, 88
1, 50520, Note_on_c, 0, 78, 0
1, 50520, Note_on_c, 0, 79, 89
1, 50526, Note_on_c, 0, 79, 0
1, 50526, Note_on_c, 0, 81, 89
1, 50532, Note_on_c, 0, 81, 0
1, 50532, Note_on_c, 0, 83, 89
1, 50538, Note_on_c, 0, 83, 0
1, 50538, Note_on_c, 0, 85, 89
1, 50544, Note_on_c, 0, 85, 0
1, 50544, Note_on_c, 0, 86, 106
1, 50544, Note_on_c, 1, 50, 90
1, 50544, Note_on_c, 1, 45, 90
1, 50544, Note_on_c, 1, 42, 90
1, 50544, Note_on_c, 1, 38, 90
1, 50633, Note_on_c, 1, 50, 0
1, 50633, Note_on_c, 1, 45, 0
1, 50633, Note_on_c, 1, 42, 0
1, 50633, Note_on_c, 1, 38, 0
1, 50640, Note_on_c, 0, 86, 0
1, 50640, Note_on_c, 0, 71, 84
1, 50640, Note_on_c, 0, 68, 84
1, 50640, Note_on_c, 1, 64, 84
1, 50660, Note_on_c, 0, 71, 0
1, 50660, Note_on_c, 0, 68, 0
1, 50660, Note_on_c, 1, 64, 0
1, 50688, Note_on_c, 0, 72, 84
1, 50688, Note_on_c, 0, 69, 84
1, 50688, Note_on_c, 1, 60, 84
1, 50736, Note_on_c, 0, 72, 0
1, 50736, Note_on_c, 0, 69, 0
1, 50736, Note_on_c, 0, 74, 78
1, 50736, Note_on_c, 0, 71, 78
1, 50736, Note_on_c, 1, 60, 0
1, 50736, Note_on_c, 1, 59, 78
1, 50781, Note_on_c, 0, 74, 0
1, 50781, Note_on_c, 0, 71, 0
1, 50781, Note_on_c, 1, 59, 0
1, 50784, Note_on_c, 0, 76, 73
1, 50784, Note_on_c, 0, 72, 73
1, 50784, Note_on_c, 1, 57, 73
1, 50804, Note_on_c, 0, 76, 0
1, 50804, Note_on_c, 0, 72, 0
1, 50804, Note_on_c, 1, 57, 0
1, 50832, Note_on_c, 0, 76, 83
1, 50832, Note_on_c, 0, 72, 83
1, 50832, Note_on_c, 1, 57, 67
1, 50877, Note_on_c, 1, 57, 0
1, 50880, Note_on_c, 0, 76, 0
1, 50880, Note_on_c, 0, 72, 0
1, 50928, Note_on_c, 0, 69, 84
1, 50928, Note_on_c, 0, 66, 84
1, 50928, Note_on_c, 1, 62, 84
1, 50948, Note_on_c, 0, 69, 0
1, 50948, Note_on_c, 0, 66, 0
1, 50948, Note_on_c, 1, 62, 0
1, 50976, Note_on_c, 0, 71, 84
1, 50976, Note_on_c, 0, 67, 84
1, 50976, Note_on_c, 1, 59, 84
1, 51024, Note_on_c, 0, 71, 0
1, 51024, Note_on_c, 0, 67, 0
1, 51024, Note_on_c, 0, 72, 78
1, 51024, Note_on_c, 0, 69, 78
1, 51024, Note_on_c, 1, 59, 0
1, 51024, Note_on_c, 1, 57, 78
1, 51069, Note_on_c, 0, 72, 0
1, 51069, Note_on_c, 0, 69, 0
1, 51069, Note_on_c, 1, 57, 0
1, 51072, Note_on_c, 0, 74, 73
1, 51072, Note_on_c, 0, 71, 73
1, 51072, Note_on_c, 1, 55, 73
1, 51092, Note_on_c, 0, 74, 0
1, 51092, Note_on_c, 0, 71, 0
1, 51092, Note_on_c, 1, 55, 0
1, 51120, Note_on_c, 0, 74, 83
1, 51120, Note_on_c, 0, 71, 83
1, 51120, Note_on_c, 1, 55, 67
1, 51165, Note_on_c, 1, 55, 0
1, 51168, Note_on_c, 0, 74, 0
1, 51168, Note_on_c, 0, 71, 0
1, 51216, Note_on_c, 0, 67, 62
1, 51216, Note_on_c, 1, 52, 62
1, 51261, Note_on_c, 1, 52, 0
1, 51264, Note_on_c, 0, 67, 0
1, 51264, Note_on_c, 0, 69, 62
1, 51264, Note_on_c, 1, 48, 62
1, 51274, Note_on_c, 0, 69, 0
1, 51284, Note_on_c, 1, 48, 0
1, 51312, Note_on_c, 0, 71, 62
1, 51322, Note_on_c, 0, 71, 0
1, 51360, Note_on_c, 0, 72, 62
1, 51370, Note_on_c, 0, 72, 0
1, 51408, Note_on_c, 0, 62, 62
1, 51408, Note_on_c, 1, 50, 62
1, 51418, Note_on_c, 0, 62, 0
1, 51428, Note_on_c, 1, 50, 0
1, 51456, Note_on_c, 0, 64, 62
1, 51466, Note_on_c, 0, 64, 0
1, 51504, Note_on_c, 0, 66, 62
1, 51514, Note_on_c, 0, 66, 0
1, 51552, Note_on_c, 1, 55, 62
1, 51562, Note_on_c, 1, 55, 0
1, 51600, Note_on_c, 1, 50, 62
1, 51610, Note_on_c, 1, 50, 0
1, 51648, Note_on_c, 1, 47, 62
1, 51658, Note_on_c, 1, 47, 0
1, 51696, Note_on_c, 0, 59, 84
1, 51696, Note_on_c, 1, 43, 84
1, 51705, Note_on_c, 1, 47, 84
1, 51708, Note_on_c, 0, 62, 84
1, 51714, Note_on_c, 1, 50, 84
1, 51720, Note_on_c, 0, 67, 84
1, 51723, Note_on_c, 1, 55, 84
1, 51763, Note_on_c, 0, 67, 0
1, 51763, Note_on_c, 0, 62, 0
1, 51763, Note_on_c, 0, 59, 0
1, 51763, Note_on_c, 1, 55, 0
1, 51763, Note_on_c, 1, 50, 0
1, 51763, Note_on_c, 1, 47, 0
1, 51763, Note_on_c, 1, 43, 0
1, 51792, Note_on_c, 0, 79, 62
1, 51792, Note_on_c, 1, 74, 62
1, 51792, Note_on_c, 1, 71, 62
1, 51837, Note_on_c, 0, 79, 0
1, 51837, Note_on_c, 1, 74, 0
1, 51837, Note_on_c, 1, 71, 0
1, 51840, Note_on_c, 0, 78, 62
1, 51840, Note_on_c, 1, 74, 62
1, 51840, Note_on_c, 1, 71, 62
1, 51864, Note_on_c, 0, 78, 0
1, 51864, Note_on_c, 0, 79, 62
1, 51887, Note_on_c, 0, 79, 0
1, 51888, Note_on_c, 0, 81, 63
1, 51912, Note_on_c, 0, 81, 0
1, 51912, Note_on_c, 0, 79, 64
1, 51929, Note_on_c, 1, 74, 0
1, 51929, Note_on_c, 1, 71, 0
1, 51935, Note_on_c, 0, 79, 0
1, 51936, Note_on_c, 0, 81, 65
1, 51936, Note_on_c, 1, 76, 65
1, 51936, Note_on_c, 1, 72, 65
1, 51960, Note_on_c, 0, 81, 0
1, 51960, Note_on_c, 0, 79, 65
1, 51981, Note_on_c, 1, 76, 0
1, 51981, Note_on_c, 1, 72, 0
1, 51983, Note_on_c, 0, 79, 0
1, 51984, Note_on_c, 0, 81, 66
1, 51984, Note_on_c, 1, 74, 66
1, 51984, Note_on_c, 1, 71, 66
1, 52008, Note_on_c, 0, 81, 0
1, 52008, Note_on_c, 0, 79, 67
1, 52029, Note_on_c, 1, 74, 0
1, 52029, Note_on_c, 1, 71, 0
1, 52031, Note_on_c, 0, 79, 0
1, 52032, Note_on_c, 0, 79, 68
1, 52032, Note_on_c, 1, 72, 68
1, 52032, Note_on_c, 1, 69, 68
1, 52056, Note_on_c, 0, 79, 0
1, 52056, Note_on_c, 0, 78, 69
1, 52077, Note_on_c, 1, 72, 0
1, 52077, Note_on_c, 1, 69, 0
1, 52079, Note_on_c, 0, 78, 0
1, 52080, Note_on_c, 0, 78, 69
1, 52080, Note_on_c, 1, 71, 69
1, 52080, Note_on_c, 1, 67, 69
1, 52104, Note_on_c, 0, 78, 0
1, 52104, Note_on_c, 0, 76, 70
1, 52125, Note_on_c, 1, 71, 0
1, 52125, Note_on_c, 1, 67, 0
1, 52127, Note_on_c, 0, 76, 0
1, 52128, Note_on_c, 0, 76, 71
1, 52128, Note_on_c, 1, 69, 71
1, 52128, Note_on_c, 1, 66, 71
1, 52152, Note_on_c, 0, 76, 0
1, 52152, Note_on_c, 0, 74, 72
1, 52175, Note_on_c, 0, 74, 0
1, 52176, Note_on_c, 0, 74, 72
1, 52186, Note_on_c, 0, 74, 0
1, 52200, Note_on_c, 0, 74, 73
1, 52210, Note_on_c, 0, 74, 0
1, 52217, Note_on_c, 1, 69, 0
1, 52217, Note_on_c, 1, 66, 0
1, 52224, Note_on_c, 0, 74, 74
1, 52224, Note_on_c, 1, 69, 74
1, 52224, Note_on_c, 1, 66, 74
1, 52234, Note_on_c, 0, 74, 0
1, 52248, Note_on_c, 0, 74, 75
1, 52258, Note_on_c, 0, 74, 0
1, 52269, Note_on_c, 1, 69, 0
1, 52269, Note_on_c, 1, 66, 0
1, 52272, Note_on_c, 0, 76, 76
1, 52272, Note_on_c, 1, 69, 76
1, 52272, Note_on_c, 1, 66, 76
1, 52296, Note_on_c, 0, 76, 0
1, 52296, Note_on_c, 0, 75, 76
1, 52319, Note_on_c, 0, 75, 0
1, 52320, Note_on_c, 0, 75, 77
1, 52330, Note_on_c, 0, 75, 0
1, 52344, Note_on_c, 0, 75, 78
1, 52354, Note_on_c, 0, 75, 0
1, 52361, Note_on_c, 1, 69, 0
1, 52361, Note_on_c, 1, 66, 0
1, 52368, Note_on_c, 0, 75, 79
1, 52368, Note_on_c, 1, 69, 79
1, 52368, Note_on_c, 1, 66, 79
1, 52378, Note_on_c, 0, 75, 0
1, 52392, Note_on_c, 0, 75, 79
1, 52402, Note_on_c, 0, 75, 0
1, 52413, Note_on_c, 1, 69, 0
1, 52413, Note_on_c, 1, 66, 0
1, 52416, Note_on_c, 0, 75, 80
1, 52416, Note_on_c, 1, 71, 80
1, 52416, Note_on_c, 1, 67, 80
1, 52440, Note_on_c, 0, 75, 0
1, 52440, Note_on_c, 0, 76, 81
1, 52463, Note_on_c, 0, 76, 0
1, 52464, Note_on_c, 0, 78, 82
1, 52488, Note_on_c, 0, 78, 0
1, 52488, Note_on_c, 0, 76, 83
1, 52511, Note_on_c, 0, 76, 0
1, 52512, Note_on_c, 0, 79, 83
1, 52536, Note_on_c, 0, 79, 0
1, 52536, Note_on_c, 0, 78, 84
1, 52549, Note_on_c, 1, 71, 0
1, 52549, Note_on_c, 1, 67, 0
1, 52559, Note_on_c, 0, 78, 0
1, 52560, Note_on_c, 0, 81, 101
1, 52560, Note_on_c, 1, 67, 85
1, 52560, Note_on_c, 1, 64, 85
1, 52560, Note_on_c, 1, 57, 85
1, 52584, Note_on_c, 0, 81, 0
1, 52584, Note_on_c, 0, 79, 86
1, 52607, Note_on_c, 0, 79, 0
1, 52608, Note_on_c, 0, 78, 86
1, 52631, Note_on_c, 0, 78, 0
1, 52632, Note_on_c, 0, 76, 87
1, 52655, Note_on_c, 0, 76, 0
1, 52656, Note_on_c, 0, 74, 88
1, 52679, Note_on_c, 0, 74, 0
1, 52680, Note_on_c, 0, 73, 89
1, 52693, Note_on_c, 1, 67, 0
1, 52693, Note_on_c, 1, 64, 0
1, 52693, Note_on_c, 1, 57, 0
1, 52703, Note_on_c, 0, 73, 0
1, 52704, Note_on_c, 0, 74, 90
1, 52728, Note_on_c, 0, 74, 0
1, 52728, Note_on_c, 0, 86, 90
1, 52751, Note_on_c, 0, 86, 0
1, 52752, Note_on_c, 0, 74, 90
1, 52752, Note_on_c, 1, 54, 90
1, 52752, Note_on_c, 1, 50, 90
1, 52762, Note_on_c, 0, 74, 0
1, 52776, Note_on_c, 0, 74, 90
1, 52786, Note_on_c, 0, 74, 0
1, 52800, Note_on_c, 0, 74, 90
1, 52800, Note_on_c, 1, 54, 0
1, 52800, Note_on_c, 1, 50, 0
1, 52800, Note_on_c, 1, 55, 90
1, 52800, Note_on_c, 1, 52, 90
1, 52810, Note_on_c, 0, 74, 0
1, 52820, Note_on_c, 1, 55, 0
1, 52820, Note_on_c, 1, 52, 0
1, 52824, Note_on_c, 0, 74, 90
1, 52834, Note_on_c, 0, 74, 0
1, 52848, Note_on_c, 0, 74, 90
1, 52872, Note_on_c, 0, 74, 0
1, 52872, Note_on_c, 0, 86, 90
1, 52895, Note_on_c, 0, 86, 0
1, 52896, Note_on_c, 0, 74, 90
1, 52896, Note_on_c, 1, 57, 90
1, 52896, Note_on_c, 1, 54, 90
1, 52906, Note_on_c, 0, 74, 0
1, 52920, Note_on_c, 0, 74, 90
1, 52930, Note_on_c, 0, 74, 0
1, 52944, Note_on_c, 0, 74, 90
1, 52944, Note_on_c, 1, 57, 0
1, 52944, Note_on_c, 1, 54, 0
1, 52944, Note_on_c, 1, 59, 90
1, 52944, Note_on_c, 1, 55, 90
1, 52954, Note_on_c, 0, 74, 0
1, 52964, Note_on_c, 1, 59, 0
1, 52964, Note_on_c, 1, 55, 0
1, 52968, Note_on_c, 0, 74, 90
1, 52978, Note_on_c, 0, 74, 0
1, 52992, Note_on_c, 0, 74, 90
1, 53004, Note_on_c, 0, 74, 0
1, 53004, Note_on_c, 0, 78, 90
1, 53016, Note_on_c, 0, 78, 0
1, 53016, Note_on_c, 0, 81, 90
1, 53028, Note_on_c, 0, 81, 0
1, 53028, Note_on_c, 0, 86, 90
1, 53040, Note_on_c, 0, 86, 0
1, 53040, Note_on_c, 0, 74, 90
1, 53040, Note_on_c, 1, 60, 90
1, 53040, Note_on_c, 1, 57, 90
1, 53050, Note_on_c, 0, 74, 0
1, 53064, Note_on_c, 0, 74, 90
1, 53074, Note_on_c, 0, 74, 0
1, 53088, Note_on_c, 0, 74, 90
1, 53088, Note_on_c, 1, 60, 0
1, 53088, Note_on_c, 1, 57, 0
1, 53088, Note_on_c, 1, 59, 90
1, 53088, Note_on_c, 1, 55, 90
1, 53098, Note_on_c, 0, 74, 0
1, 53108, Note_on_c, 1, 59, 0
1, 53108, Note_on_c, 1, 55, 0
1, 53112, Note_on_c, 0, 74, 90
1, 53122, Note_on_c, 0, 74, 0
1, 53136, Note_on_c, 0, 74, 90
1, 53148, Note_on_c, 0, 74, 0
1, 53148, Note_on_c, 0, 78, 90
1, 53160, Note_on_c, 0, 78, 0
1, 53160, Note_on_c, 0, 81, 90
1, 53172, Note_on_c, 0, 81, 0
1, 53172, Note_on_c, 0, 86, 90
1, 53184, Note_on_c, 0, 86, 0
1, 53184, Note_on_c, 0, 74, 90
1, 53184, Note_on_c, 1, 57, 90
1, 53184, Note_on_c, 1, 54, 90
1, 53194, Note_on_c, 0, 74, 0
1, 53208, Note_on_c, 0, 74, 90
1, 53218, Note_on_c, 0, 74, 0
1, 53232, Note_on_c, 0, 74, 90
1, 53232, Note_on_c, 1, 57, 0
1, 53232, Note_on_c, 1, 54, 0
1, 53232, Note_on_c, 1, 55, 90
1, 53232, Note_on_c, 1, 52, 90
1, 53242, Note_on_c, 0, 74, 0
1, 53252, Note_on_c, 1, 55, 0
1, 53252, Note_on_c, 1, 52, 0
1, 53256, Note_on_c, 0, 74, 90
1, 53266, Note_on_c, 0, 74, 0
1, 53280, Note_on_c, 0, 74, 90
1, 53280, Note_on_c, 1, 54, 90
1, 53280, Note_on_c, 1, 50, 90
1, 53304, Note_on_c, 0, 74, 0
1, 53304, Note_on_c, 0, 86, 89
1, 53325, Note_on_c, 1, 54, 0
1, 53325, Note_on_c, 1, 50, 0
1, 53327, Note_on_c, 0, 86, 0
1, 53328, Note_on_c, 0, 86, 88
1, 53328, Note_on_c, 1, 66, 88
1, 53328, Note_on_c, 1, 62, 88
1, 53338, Note_on_c, 0, 86, 0
1, 53352, Note_on_c, 0, 86, 87
1, 53362, Note_on_c, 0, 86, 0
1, 53376, Note_on_c, 0, 86, 86
1, 53376, Note_on_c, 1, 66, 0
1, 53376, Note_on_c, 1, 62, 0
1, 53376, Note_on_c, 1, 67, 86
1, 53376, Note_on_c, 1, 64, 86
1, 53386, Note_on_c, 0, 86, 0
1, 53396, Note_on_c, 1, 67, 0
1, 53396, Note_on_c, 1, 64, 0
1, 53400, Note_on_c, 0, 86, 85
1, 53410, Note_on_c, 0, 86, 0
1, 53424, Note_on_c, 0, 85, 84
1, 53448, Note_on_c, 0, 85, 0
1, 53448, Note_on_c, 0, 86, 83
1, 53471, Note_on_c, 0, 86, 0
1, 53472, Note_on_c, 0, 86, 83
1, 53472, Note_on_c, 1, 69, 83
1, 53472, Note_on_c, 1, 66, 83
1, 53482, Note_on_c, 0, 86, 0
1, 53496, Note_on_c, 0, 86, 82
1, 53506, Note_on_c, 0, 86, 0
1, 53520, Note_on_c, 0, 86, 81
1, 53520, Note_on_c, 1, 69, 0
1, 53520, Note_on_c, 1, 66, 0
1, 53520, Note_on_c, 1, 70, 81
1, 53520, Note_on_c, 1, 67, 81
1, 53530, Note_on_c, 0, 86, 0
1, 53540, Note_on_c, 1, 70, 0
1, 53540, Note_on_c, 1, 67, 0
1, 53544, Note_on_c, 0, 86, 80
1, 53554, Note_on_c, 0, 86, 0
1, 53568, Note_on_c, 0, 87, 79
1, 53592, Note_on_c, 0, 87, 0
1, 53592, Note_on_c, 0, 86, 78
1, 53615, Note_on_c, 0, 86, 0
1, 53616, Note_on_c, 0, 86, 77
1, 53616, Note_on_c, 1, 72, 78
1, 53616, Note_on_c, 1, 69, 78
1, 53626, Note_on_c, 0, 86, 0
1, 53640, Note_on_c, 0, 86, 76
1, 53650, Note_on_c, 0, 86, 0
1, 53664, Note_on_c, 0, 86, 76
1, 53664, Note_on_c, 1, 72, 0
1, 53664, Note_on_c, 1, 69, 0
1, 53664, Note_on_c, 1, 70, 76
1, 53664, Note_on_c, 1, 67, 76
1, 53674, Note_on_c, 0, 86, 0
1, 53684, Note_on_c, 1, 70, 0
1, 53684, Note_on_c, 1, 67, 0
1, 53688, Note_on_c, 0, 86, 75
1, 53698, Note_on_c, 0, 86, 0
1, 53712, Note_on_c, 0, 85, 74
1, 53736, Note_on_c, 0, 85, 0
1, 53736, Note_on_c, 0, 86, 73
1, 53759, Note_on_c, 0, 86, 0
1, 53760, Note_on_c, 0, 86, 72
1, 53760, Note_on_c, 1, 69, 73
1, 53760, Note_on_c, 1, 66, 73
1, 53770, Note_on_c, 0, 86, 0
1, 53784, Note_on_c, 0, 86, 71
1, 53794, Note_on_c, 0, 86, 0
1, 53808, Note_on_c, 0, 86, 70
1, 53808, Note_on_c, 1, 69, 0
1, 53808, Note_on_c, 1, 66, 0
1, 53808, Note_on_c, 1, 67, 71
1, 53808, Note_on_c, 1, 64, 71
1, 53818, Note_on_c, 0, 86, 0
1, 53828, Note_on_c, 1, 67, 0
1, 53828, Note_on_c, 1, 64, 0
1, 53832, Note_on_c, 0, 86, 69
1, 53842, Note_on_c, 0, 86, 0
1, 53856, Note_on_c, 0, 86, 69
1, 53856, Note_on_c, 1, 66, 70
1, 53856, Note_on_c, 1, 62, 70
1, 53866, Note_on_c, 0, 86, 0
1, 53880, Note_on_c, 0, 86, 68
1, 53890, Note_on_c, 0, 86, 0
1, 53904, Note_on_c, 0, 86, 67
1, 53914, Note_on_c, 0, 86, 0
1, 53928, Note_on_c, 0, 86, 66
1, 53938, Note_on_c, 0, 86, 0
1, 53945, Note_on_c, 1, 66, 0
1, 53945, Note_on_c, 1, 62, 0
1, 53952, Note_on_c, 0, 86, 65
1, 53962, Note_on_c, 0, 86, 0
1, 53976, Note_on_c, 0, 86, 64
1, 53986, Note_on_c, 0, 86, 0
1, 54000, Note_on_c, 0, 86, 63
1, 54020, Note_on_c, 0, 86, 0
1, 54048, Note_on_c, 0, 86, 62
1, 54068, Note_on_c, 0, 86, 0
1, 54096, Note_on_c, 0, 86, 62
1, 54116, Note_on_c, 0, 86, 0
1, 54144, Tempo, 722891
1, 54144, Note_on_c, 0, 86, 62
1, 54144, Note_on_c, 0, 84, 62
1, 54164, Note_on_c, 0, 86, 0
1, 54164, Note_on_c, 0, 84, 0
1, 54192, Note_on_c, 0, 86, 62
1, 54192, Note_on_c, 0, 84, 62
1, 54212, Note_on_c, 0, 86, 0
1, 54212, Note_on_c, 0, 84, 0
1, 54240, Note_on_c, 0, 86, 62
1, 54240, Note_on_c, 0, 84, 62
1, 54260, Note_on_c, 0, 86, 0
1, 54260, Note_on_c, 0, 84, 0
1, 54288, Tempo, 750000
1, 54288, Note_on_c, 0, 86, 62
1, 54288, Note_on_c, 0, 84, 62
1, 54288, Note_on_c, 1, 81, 62
1, 54308, Note_on_c, 0, 86, 0
1, 54308, Note_on_c, 0, 84, 0
1, 54308, Note_on_c, 1, 81, 0
1, 54336, Note_on_c, 0, 86, 62
1, 54336, Note_on_c, 0, 84, 62
1, 54336, Note_on_c, 1, 81, 62
1, 54356, Note_on_c, 0, 86, 0
1, 54356, Note_on_c, 0, 84, 0
1, 54356, Note_on_c, 1, 81, 0
1, 54384, Note_on_c, 0, 86, 62
1, 54384, Note_on_c, 0, 84, 62
1, 54384, Note_on_c, 1, 81, 62
1, 54404, Note_on_c, 0, 86, 0
1, 54404, Note_on_c, 0, 84, 0
1, 54404, Note_on_c, 1, 81, 0
1, 54432, Tempo, 857142
1, 54432, Note_on_c, 0, 86, 62
1, 54432, Note_on_c, 0, 84, 62
1, 54432, Note_on_c, 1, 81, 62
1, 54432, Note_on_c, 1, 78, 62
1, 54452, Note_on_c, 0, 86, 0
1, 54452, Note_on_c, 0, 84, 0
1, 54452, Note_on_c, 1, 81, 0
1, 54452, Note_on_c, 1, 78, 0
1, 54480, Tempo, 1000000
1, 54480, Note_on_c, 0, 86, 62
1, 54480, Note_on_c, 0, 84, 62
1, 54480, Note_on_c, 1, 81, 62
1, 54480, Note_on_c, 1, 78, 62
1, 54500, Note_on_c, 0, 86, 0
1, 54500, Note_on_c, 0, 84, 0
1, 54500, Note_on_c, 1, 81, 0
1, 54500, Note_on_c, 1, 78, 0
1, 54528, Note_on_c, 0, 86, 62
1, 54528, Note_on_c, 0, 84, 62
1, 54528, Note_on_c, 1, 81, 62
1, 54528, Note_on_c, 1, 78, 62
1, 54548, Note_on_c, 0, 86, 0
1, 54548, Note_on_c, 0, 84, 0
1, 54548, Note_on_c, 1, 81, 0
1, 54548, Note_on_c, 1, 78, 0
1, 54576, Note_on_c, 0, 86, 62
1, 54576, Note_on_c, 0, 84, 62
1, 54576, Note_on_c, 1, 81, 62
1, 54576, Note_on_c, 1, 78, 62
1, 54576, Note_on_c, 1, 74, 62
1, 54709, Note_on_c, 0, 86, 0
1, 54709, Note_on_c, 0, 84, 0
1, 54709, Note_on_c, 1, 81, 0
1, 54709, Note_on_c, 1, 78, 0
1, 54709, Note_on_c, 1, 74, 0
1, 54720, Tempo, 705882
1, 54816, Note_on_c, 0, 74, 71
1, 54816, Note_on_c, 0, 72, 71
1, 54816, Note_on_c, 1, 69, 55
1, 54816, Note_on_c, 1, 66, 55
1, 54826, Note_on_c, 0, 74, 0
1, 54826, Note_on_c, 0, 72, 0
1, 54826, Note_on_c, 1, 69, 0
1, 54826, Note_on_c, 1, 66, 0
1, 54840, Tempo, 2400000
1, 54864, Note_on_c, 0, 74, 71
1, 54864, Note_on_c, 0, 72, 71
1, 54864, Note_on_c, 1, 69, 55
1, 54864, Note_on_c, 1, 66, 55
1, 54942, Note_on_c, 1, 69, 0
1, 54942, Note_on_c, 1, 66, 0
1, 54948, Note_on_c, 0, 74, 0
1, 54948, Note_on_c, 0, 72, 0
1, 54960, Tempo, 705882
1, 54960, Note_on_c, 0, 67, 86
1, 54960, Note_on_c, 1, 59, 62
1, 54960, Note_on_c, 1, 55, 62
1, 54980, Note_on_c, 0, 67, 0
1, 54980, Note_on_c, 1, 59, 0
1, 54980, Note_on_c, 1, 55, 0
1, 55008, Note_on_c, 0, 67, 70
1, 55008, Note_on_c, 1, 59, 62
1, 55008, Note_on_c, 1, 55, 62
1, 55097, Note_on_c, 0, 67, 0
1, 55097, Note_on_c, 1, 59, 0
1, 55097, Note_on_c, 1, 55, 0
1, 55104, Note_on_c, 0, 71, 70
1, 55104, Note_on_c, 1, 60, 62
1, 55104, Note_on_c, 1, 55, 62
1, 55116, Note_on_c, 0, 71, 0
1, 55116, Note_on_c, 0, 69, 70
1, 55124, Note_on_c, 1, 60, 0
1, 55124, Note_on_c, 1, 55, 0
1, 55149, Note_on_c, 0, 69, 0
1, 55152, Note_on_c, 0, 62, 70
1, 55152, Note_on_c, 1, 60, 62
1, 55152, Note_on_c, 1, 55, 62
1, 55197, Note_on_c, 0, 62, 0
1, 55200, Note_on_c, 0, 64, 70
1, 55241, Note_on_c, 1, 60, 0
1, 55241, Note_on_c, 1, 55, 0
1, 55245, Note_on_c, 0, 64, 0
1, 55248, Note_on_c, 0, 67, 70
1, 55248, Note_on_c, 1, 60, 62
1, 55248, Note_on_c, 1, 55, 62
1, 55260, Note_on_c, 0, 67, 0
1, 55260, Note_on_c, 0, 66, 70
1, 55268, Note_on_c, 1, 60, 0
1, 55268, Note_on_c, 1, 55, 0
1, 55272, Note_on_c, 0, 66, 0
1, 55272, Note_on_c, 0, 64, 70
1, 55284, Note_on_c, 0, 64, 0
1, 55284, Note_on_c, 0, 66, 70
1, 55296, Note_on_c, 0, 66, 0
1, 55296, Note_on_c, 0, 67, 70
1, 55296, Note_on_c, 1, 59, 62
1, 55296, Note_on_c, 1, 55, 62
1, 55316, Note_on_c, 0, 67, 0
1, 55316, Note_on_c, 1, 59, 0
1, 55316, Note_on_c, 1, 55, 0
1, 55344, Note_on_c, 0, 67, 77
1, 55344, Note_on_c, 1, 59, 62
1, 55344, Note_on_c, 1, 55, 62
1, 55364, Note_on_c, 0, 67, 0
1, 55364, Note_on_c, 1, 59, 0
1, 55364, Note_on_c, 1, 55, 0
1, 55392, Note_on_c, 0, 67, 73
1, 55392, Note_on_c, 1, 59, 62
1, 55392, Note_on_c, 1, 55, 62
1, 55412, Note_on_c, 0, 67, 0
1, 55412, Note_on_c, 1, 59, 0
1, 55412, Note_on_c, 1, 55, 0
1, 55440, Note_on_c, 0, 67, 70
1, 55440, Note_on_c, 1, 59, 62
1, 55440, Note_on_c, 1, 55, 62
1, 55529, Note_on_c, 0, 67, 0
1, 55529, Note_on_c, 1, 59, 0
1, 55529, Note_on_c, 1, 55, 0
1, 55536, Note_on_c, 0, 69, 84
1, 55536, Note_on_c, 0, 66, 84
1, 55536, Note_on_c, 0, 62, 84
1, 55536, Note_on_c, 1, 50, 84
1, 55581, Note_on_c, 0, 69, 0
1, 55581, Note_on_c, 0, 66, 0
1, 55581, Note_on_c, 0, 62, 0
1, 55581, Note_on_c, 1, 50, 0
1, 55584, Note_on_c, 0, 71, 84
1, 55584, Note_on_c, 0, 67, 84
1, 55584, Note_on_c, 0, 62, 84
1, 55584, Note_on_c, 1, 59, 84
1, 55584, Note_on_c, 1, 55, 84
1, 55629, Note_on_c, 0, 71, 0
1, 55629, Note_on_c, 0, 67, 0
1, 55629, Note_on_c, 0, 62, 0
1, 55629, Note_on_c, 1, 59, 0
1, 55629, Note_on_c, 1, 55, 0
1, 55680, Note_on_c, 0, 62, 84
1, 55680, Note_on_c, 1, 43, 84
1, 55686, Note_on_c, 0, 67, 84
1, 55686, Note_on_c, 1, 47, 84
1, 55692, Note_on_c, 0, 71, 84
1, 55692, Note_on_c, 1, 50, 84
1, 55698, Note_on_c, 0, 74, 84
1, 55698, Note_on_c, 1, 55, 84
1, 55725, Note_on_c, 0, 74, 0
1, 55725, Note_on_c, 0, 71, 0
1, 55725, Note_on_c, 0, 67, 0
1, 55725, Note_on_c, 0, 62, 0
1, 55725, Note_on_c, 1, 55, 0
1, 55725, Note_on_c, 1, 50, 0
1, 55725, Note_on_c, 1, 47, 0
1, 55725, Note_on_c, 1, 43, 0
1, 55728, Note_on_c, 0, 62, 84
1, 55728, Note_on_c, 1, 45, 84
1, 55734, Note_on_c, 0, 66, 84
1, 55734, Note_on_c, 1, 48, 84
1, 55740, Note_on_c, 0, 69, 84
1, 55740, Note_on_c, 1, 54, 84
1, 55746, Note_on_c, 0, 72, 84
1, 55746, Note_on_c, 1, 57, 84
1, 55821, Note_on_c, 0, 72, 0
1, 55821, Note_on_c, 0, 69, 0
1, 55821, Note_on_c, 0, 66, 0
1, 55821, Note_on_c, 0, 62, 0
1, 55821, Note_on_c, 1, 57, 0
1, 55821, Note_on_c, 1, 54, 0
1, 55821, Note_on_c, 1, 48, 0
1, 55821, Note_on_c, 1, 45, 0
1, 55824, Note_on_c, 0, 71, 84
1, 55824, Note_on_c, 0, 67, 84
1, 55824, Note_on_c, 0, 62, 84
1, 55824, Note_on_c, 1, 55, 84
1, 55824, Note_on_c, 1, 50, 84
1, 55824, Note_on_c, 1, 47, 84
1, 55869, Note_on_c, 0, 71, 0
1, 55869, Note_on_c, 0, 67, 0
1, 55869, Note_on_c, 0, 62, 0
1, 55869, Note_on_c, 1, 55, 0
1, 55869, Note_on_c, 1, 50, 0
1, 55869, Note_on_c, 1, 47, 0
1, 55872, Note_on_c, 0, 62, 84
1, 55884, Note_on_c, 0, 62, 0
1, 55884, Note_on_c, 0, 64, 84
1, 55896, Note_on_c, 0, 64, 0
1, 55896, Note_on_c, 0, 66, 85
1, 55908, Note_on_c, 0, 66, 0
1, 55908, Note_on_c, 0, 67, 85
1, 55920, Note_on_c, 0, 67, 0
1, 55920, Note_on_c, 0, 69, 86
1, 55932, Note_on_c, 0, 69, 0
1, 55932, Note_on_c, 0, 71, 86
1, 55944, Note_on_c, 0, 71, 0
1, 55944, Note_on_c, 0, 73, 87
1, 55956, Note_on_c, 0, 73, 0
1, 55956, Note_on_c, 0, 74, 87
1, 55968, Note_on_c, 0, 74, 0
1, 55968, Note_on_c, 0, 76, 88
1, 55980, Note_on_c, 0, 76, 0
1, 55980, Note_on_c, 0, 78, 88
1, 55992, Note_on_c, 0, 78, 0
1, 55992, Note_on_c, 0, 79, 89
1, 55998, Note_on_c, 0, 79, 0
1, 55998, Note_on_c, 0, 81, 89
1, 56004, Note_on_c, 0, 81, 0
1, 56004, Note_on_c, 0, 83, 89
1, 56010, Note_on_c, 0, 83, 0
1, 56010, Note_on_c, 0, 85, 89
1, 56016, Note_on_c, 0, 85, 0
1, 56016, Note_on_c, 0, 86, 106
1, 56016, Note_on_c, 1, 50, 90
1, 56016, Note_on_c, 1, 45, 90
1, 56016, Note_on_c, 1, 42, 90
1, 56016, Note_on_c, 1, 38, 90
1, 56105, Note_on_c, 1, 50, 0
1, 56105, Note_on_c, 1, 45, 0
1, 56105, Note_on_c, 1, 42, 0
1, 56105, Note_on_c, 1, 38, 0
1, 56112, Note_on_c, 0, 86, 0
1, 56112, Note_on_c, 0, 71, 84
1, 56112, Note_on_c, 0, 68, 84
1, 56112, Note_on_c, 1, 64, 84
1, 56132, Note_on_c, 0, 71, 0
1, 56132, Note_on_c, 0, 68, 0
1, 56132, Note_on_c, 1, 64, 0
1, 56160, Note_on_c, 0, 72, 84
1, 56160, Note_on_c, 0, 69, 84
1, 56160, Note_on_c, 1, 60, 84
1, 56208, Note_on_c, 0, 72, 0
1, 56208, Note_on_c, 0, 69, 0
1, 56208, Note_on_c, 0, 74, 78
1, 56208, Note_on_c, 0, 71, 78
1, 56208, Note_on_c, 1, 60, 0
1, 56208, Note_on_c, 1, 59, 78
1, 56253, Note_on_c, 0, 74, 0
1, 56253, Note_on_c, 0, 71, 0
1, 56253, Note_on_c, 1, 59, 0
1, 56256, Note_on_c, 0, 76, 73
1, 56256, Note_on_c, 0, 72, 73
1, 56256, Note_on_c, 1, 57, 73
1, 56276, Note_on_c, 0, 76, 0
1, 56276, Note_on_c, 0, 72, 0
1, 56276, Note_on_c, 1, 57, 0
1, 56304, Note_on_c, 0, 76, 83
1, 56304, Note_on_c, 0, 72, 83
1, 56304, Note_on_c, 1, 57, 67
1, 56349, Note_on_c, 1, 57, 0
1, 56352, Note_on_c, 0, 76, 0
1, 56352, Note_on_c, 0, 72, 0
1, 56400, Note_on_c, 0, 69, 84
1, 56400, Note_on_c, 0, 66, 84
1, 56400, Note_on_c, 1, 62, 84
1, 56420, Note_on_c, 0, 69, 0
1, 56420, Note_on_c, 0, 66, 0
1, 56420, Note_on_c, 1, 62, 0
1, 56448, Note_on_c, 0, 71, 84
1, 56448, Note_on_c, 0, 67, 84
1, 56448, Note_on_c, 1, 59, 84
1, 56496, Note_on_c, 0, 71, 0
1, 56496, Note_on_c, 0, 67, 0
1, 56496, Note_on_c, 0, 72, 78
1, 56496, Note_on_c, 0, 69, 78
1, 56496, Note_on_c, 1, 59, 0
1, 56496, Note_on_c, 1, 57, 78
1, 56541, Note_on_c, 0, 72, 0
1, 56541, Note_on_c, 0, 69, 0
1, 56541, Note_on_c, 1, 57, 0
1, 56544, Note_on_c, 0, 74, 73
1, 56544, Note_on_c, 0, 71, 73
1, 56544, Note_on_c, 1, 55, 73
1, 56564, Note_on_c, 0, 74, 0
1, 56564, Note_on_c, 0, 71, 0
1, 56564, Note_on_c, 1, 55, 0
1, 56592, Note_on_c, 0, 74, 83
1, 56592, Note_on_c, 0, 71, 83
1, 56592, Note_on_c, 1, 55, 67
1, 56637, Note_on_c, 1, 55, 0
1, 56640, Note_on_c, 0, 74, 0
1, 56640, Note_on_c, 0, 71, 0
1, 56688, Note_on_c, 0, 67, 62
1, 56688, Note_on_c, 1, 52, 62
1, 56733, Note_on_c, 1, 52, 0
1, 56736, Note_on_c, 0, 67, 0
1, 56736, Note_on_c, 0, 69, 62
1, 56736, Note_on_c, 1, 48, 62
1, 56746, Note_on_c, 0, 69, 0
1, 56756, Note_on_c, 1, 48, 0
1, 56784, Note_on_c, 0, 71, 62
1, 56794, Note_on_c, 0, 71, 0
1, 56832, Note_on_c, 0, 72, 62
1, 56842, Note_on_c, 0, 72, 0
1, 56880, Note_on_c, 0, 62, 62
1, 56880, Note_on_c, 1, 50, 62
1, 56890, Note_on_c, 0, 62, 0
1, 56900, Note_on_c, 1, 50, 0
1, 56928, Note_on_c, 0, 64, 62
1, 56938, Note_on_c, 0, 64, 0
1, 56976, Note_on_c, 0, 66, 62
1, 56986, Note_on_c, 0, 66, 0
1, 57024, Note_on_c, 1, 55, 62
1, 57034, Note_on_c, 1, 55, 0
1, 57072, Note_on_c, 1, 50, 62
1, 57082, Note_on_c, 1, 50, 0
1, 57120, Note_on_c, 1, 47, 62
1, 57130, Note_on_c, 1, 47, 0
1, 57168, Note_on_c, 0, 59, 84
1, 57168, Note_on_c, 1, 43, 84
1, 57174, Note_on_c, 1, 47, 84
1, 57176, Note_on_c, 0, 62, 84
1, 57180, Note_on_c, 1, 50, 84
1, 57184, Note_on_c, 0, 67, 84
1, 57186, Note_on_c, 1, 55, 84
1, 57305, Note_on_c, 0, 67, 0
1, 57305, Note_on_c, 0, 62, 0
1, 57305, Note_on_c, 0, 59, 0
1, 57305, Note_on_c, 1, 55, 0
1, 57305, Note_on_c, 1, 50, 0
1, 57305, Note_on_c, 1, 47, 0
1, 57305, Note_on_c, 1, 43, 0
1, 57312, Note_on_c, 1, 43, 0
1, 57401, Note_on_c, 1, 43, 0
1, 57411, End_track
0, 0, End_of_file