0, 0, Header, 0, 1, 96
1, 0, Start_track
1, 0, Tempo, 428571
1, 0, Note_on_c, 0, 69, 75
1, 0, Note_on_c, 1, 57, 64
1, 12, Note_on_c, 0, 69, 0
1, 12, Note_on_c, 0, 68, 75
1, 23, Note_on_c, 1, 57, 0
1, 24, Note_on_c, 0, 68, 0
1, 24, Note_on_c, 0, 69, 75
1, 24, Note_on_c, 1, 64, 64
1, 45, Note_on_c, 0, 69, 0
1, 47, Note_on_c, 1, 64, 0
1, 48, Note_on_c, 1, 61, 64
1, 71, Note_on_c, 1, 61, 0
1, 72, Note_on_c, 1, 64, 64
1, 95, Note_on_c, 1, 64, 0
1, 96, Note_on_c, 1, 57, 64
1, 119, Note_on_c, 1, 57, 0
1, 120, Note_on_c, 1, 64, 64
1, 143, Note_on_c, 1, 64, 0
1, 144, Note_on_c, 0, 71, 75
1, 144, Note_on_c, 1, 56, 64
1, 156, Note_on_c, 0, 71, 0
1, 156, Note_on_c, 0, 69, 75
1, 167, Note_on_c, 1, 56, 0
1, 168, Note_on_c, 0, 69, 0
1, 168, Note_on_c, 0, 71, 75
1, 168, Note_on_c, 1, 64, 64
1, 189, Note_on_c, 0, 71, 0
1, 191, Note_on_c, 1, 64, 0
1, 192, Note_on_c, 1, 59, 64
1, 215, Note_on_c, 1, 59, 0
1, 216, Note_on_c, 1, 64, 64
1, 239, Note_on_c, 1, 64, 0
1, 240, Note_on_c, 1, 56, 64
1, 263, Note_on_c, 1, 56, 0
1, 264, Note_on_c, 1, 64, 64
1, 287, Note_on_c, 1, 64, 0
1, 288, Note_on_c, 0, 73, 75
1, 288, Note_on_c, 1, 57, 64
1, 300, Note_on_c, 0, 73, 0
1, 300, Note_on_c, 0, 71, 75
1, 311, Note_on_c, 1, 57, 0
1, 312, Note_on_c, 0, 71, 0
1, 312, Note_on_c, 0, 73, 75
1, 312, Note_on_c, 1, 64, 64
1, 333, Note_on_c, 0, 73, 0
1, 335, Note_on_c, 1, 64, 0
1, 336, Note_on_c, 1, 61, 64
1, 359, Note_on_c, 1, 61, 0
1, 360, Note_on_c, 1, 64, 64
1, 383, Note_on_c, 1, 64, 0
1, 384, Note_on_c, 1, 57, 64
1, 407, Note_on_c, 1, 57, 0
1, 408, Note_on_c, 1, 64, 64
1, 431, Note_on_c, 1, 64, 0
1, 432, Note_on_c, 0, 74, 75
1, 432, Note_on_c, 1, 56, 64
1, 444, Note_on_c, 0, 74, 0
1, 444, Note_on_c, 0, 73, 75
1, 455, Note_on_c, 1, 56, 0
1, 456, Note_on_c, 0, 73, 0
1, 456, Note_on_c, 0, 74, 75
1, 456, Note_on_c, 1, 64, 64
1, 477, Note_on_c, 0, 74, 0
1, 479, Note_on_c, 1, 64, 0
1, 480, Note_on_c, 1, 59, 64
1, 503, Note_on_c, 1, 59, 0
1, 504, Note_on_c, 1, 64, 64
1, 527, Note_on_c, 1, 64, 0
1, 528, Note_on_c, 1, 56, 64
1, 551, Note_on_c, 1, 56, 0
1, 552, Note_on_c, 1, 64, 64
1, 575, Note_on_c, 1, 64, 0
1, 576, Note_on_c, 0, 74, 75
1, 576, Note_on_c, 1, 57, 64
1, 599, Note_on_c, 0, 74, 0
1, 600, Note_on_c, 0, 73, 75
1, 623, Note_on_c, 0, 73, 0
1, 624, Note_on_c, 0, 71, 75
1, 647, Note_on_c, 0, 71, 0
1, 648, Note_on_c, 0, 69, 75
1, 665, Note_on_c, 1, 57, 0
1, 671, Note_on_c, 0, 69, 0
1, 672, Note_on_c, 0, 68, 75
1, 695, Note_on_c, 0, 68, 0
1, 696, Note_on_c, 0, 66, 75
1, 719, Note_on_c, 0, 66, 0
1, 720, Note_on_c, 0, 64, 75
1, 720, Note_on_c, 1, 61, 64
1, 720, Note_on_c, 1, 52, 64
1, 767, Note_on_c, 1, 61, 0
1, 767, Note_on_c, 1, 52, 0
1, 768, Note_on_c, 1, 61, 64
1, 768, Note_on_c, 1, 52, 64
1, 809, Note_on_c, 0, 64, 0
1, 815, Note_on_c, 1, 61, 0
1, 815, Note_on_c, 1, 52, 0
1, 816, Note_on_c, 0, 62, 75
1, 816, Note_on_c, 1, 59, 64
1, 816, Note_on_c, 1, 52, 64
1, 828, Note_on_c, 0, 62, 0
1, 828, Note_on_c, 0, 64, 75
1, 840, Note_on_c, 0, 64, 0
1, 840, Note_on_c, 0, 62, 75
1, 861, Note_on_c, 0, 62, 0
1, 863, Note_on_c, 1, 59, 0
1, 863, Note_on_c, 1, 52, 0
1, 864, Note_on_c, 0, 61, 75
1, 864, Note_on_c, 1, 57, 64
1, 953, Note_on_c, 0, 61, 0
1, 953, Note_on_c, 1, 57, 0
1, 1008, Note_on_c, 0, 78, 75
1, 1008, Note_on_c, 1, 62, 64
1, 1031, Note_on_c, 1, 62, 0
1, 1032, Note_on_c, 1, 69, 64
1, 1055, Note_on_c, 1, 69, 0
1, 1056, Note_on_c, 1, 66, 64
1, 1079, Note_on_c, 1, 66, 0
1, 1080, Note_on_c, 1, 69, 64
1, 1097, Note_on_c, 0, 78, 0
1, 1103, Note_on_c, 1, 69, 0
1, 1104, Note_on_c, 0, 80, 75
1, 1104, Note_on_c, 1, 62, 64
1, 1127, Note_on_c, 1, 62, 0
1, 1128, Note_on_c, 1, 69, 64
1, 1149, Note_on_c, 0, 80, 0
1, 1151, Note_on_c, 1, 69, 0
1, 1152, Note_on_c, 0, 81, 75
1, 1152, Note_on_c, 1, 61, 64
1, 1175, Note_on_c, 1, 61, 0
1, 1176, Note_on_c, 1, 69, 64
1, 1197, Note_on_c, 0, 81, 0
1, 1199, Note_on_c, 1, 69, 0
1, 1200, Note_on_c, 0, 76, 75
1, 1200, Note_on_c, 1, 64, 64
1, 1223, Note_on_c, 1, 64, 0
1, 1224, Note_on_c, 1, 69, 64
1, 1245, Note_on_c, 0, 76, 0
1, 1247, Note_on_c, 1, 69, 0
1, 1248, Note_on_c, 1, 61, 64
1, 1271, Note_on_c, 1, 61, 0
1, 1272, Note_on_c, 1, 69, 64
1, 1295, Note_on_c, 1, 69, 0
1, 1296, Note_on_c, 0, 78, 75
1, 1296, Note_on_c, 1, 62, 64
1, 1319, Note_on_c, 1, 62, 0
1, 1320, Note_on_c, 1, 69, 64
1, 1343, Note_on_c, 1, 69, 0
1, 1344, Note_on_c, 1, 66, 64
1, 1367, Note_on_c, 1, 66, 0
1, 1368, Note_on_c, 1, 69, 64
1, 1385, Note_on_c, 0, 78, 0
1, 1391, Note_on_c, 1, 69, 0
1, 1392, Note_on_c, 0, 80, 75
1, 1392, Note_on_c, 1, 62, 64
1, 1415, Note_on_c, 1, 62, 0
1, 1416, Note_on_c, 1, 69, 64
1, 1437, Note_on_c, 0, 80, 0
1, 1439, Note_on_c, 1, 69, 0
1, 1440, Note_on_c, 0, 81, 75
1, 1440, Note_on_c, 1, 61, 64
1, 1463, Note_on_c, 1, 61, 0
1, 1464, Note_on_c, 1, 69, 64
1, 1485, Note_on_c, 0, 81, 0
1, 1487, Note_on_c, 1, 69, 0
1, 1488, Note_on_c, 0, 76, 75
1, 1488, Note_on_c, 1, 64, 64
1, 1511, Note_on_c, 1, 64, 0
1, 1512, Note_on_c, 1, 69, 64
1, 1533, Note_on_c, 0, 76, 0
1, 1535, Note_on_c, 1, 69, 0
1, 1536, Note_on_c, 1, 61, 64
1, 1559, Note_on_c, 1, 61, 0
1, 1560, Note_on_c, 1, 69, 64
1, 1583, Note_on_c, 1, 69, 0
1, 1584, Note_on_c, 0, 76, 75
1, 1584, Note_on_c, 1, 59, 64
1, 1607, Note_on_c, 0, 76, 0
1, 1608, Note_on_c, 0, 74, 75
1, 1629, Note_on_c, 1, 59, 0
1, 1631, Note_on_c, 0, 74, 0
1, 1632, Note_on_c, 0, 83, 75
1, 1632, Note_on_c, 1, 68, 64
1, 1655, Note_on_c, 0, 83, 0
1, 1656, Note_on_c, 0, 74, 75
1, 1677, Note_on_c, 1, 68, 0
1, 1679, Note_on_c, 0, 74, 0
1, 1680, Note_on_c, 0, 74, 75
1, 1680, Note_on_c, 1, 69, 64
1, 1703, Note_on_c, 0, 74, 0
1, 1704, Note_on_c, 0, 73, 75
1, 1725, Note_on_c, 1, 69, 0
1, 1727, Note_on_c, 0, 73, 0
1, 1728, Note_on_c, 0, 78, 75
1, 1728, Note_on_c, 1, 62, 64
1, 1751, Note_on_c, 0, 78, 0
1, 1752, Note_on_c, 0, 76, 75
1, 1775, Note_on_c, 0, 76, 0
1, 1776, Note_on_c, 0, 74, 75
1, 1799, Note_on_c, 0, 74, 0
1, 1800, Note_on_c, 0, 73, 75
1, 1817, Note_on_c, 1, 62, 0
1, 1823, Note_on_c, 0, 73, 0
1, 1824, Note_on_c, 0, 71, 75
1, 1824, Note_on_c, 1, 63, 64
1, 1847, Note_on_c, 0, 71, 0
1, 1848, Note_on_c, 0, 69, 75
1, 1869, Note_on_c, 1, 63, 0
1, 1871, Note_on_c, 0, 69, 0
1, 1872, Note_on_c, 0, 69, 75
1, 1872, Note_on_c, 1, 64, 64
1, 1917, Note_on_c, 1, 64, 0
1, 1920, Note_on_c, 0, 69, 0
1, 1920, Note_on_c, 0, 68, 75
1, 1920, Note_on_c, 1, 52, 64
1, 1961, Note_on_c, 0, 68, 0
1, 1965, Note_on_c, 1, 52, 0
1, 2016, Note_on_c, 0, 83, 75
1, 2039, Note_on_c, 0, 83, 0
1, 2040, Note_on_c, 0, 80, 74
1, 2063, Note_on_c, 0, 80, 0
1, 2064, Note_on_c, 0, 76, 73
1, 2087, Note_on_c, 0, 76, 0
1, 2088, Note_on_c, 0, 71, 72
1, 2111, Note_on_c, 0, 71, 0
1, 2112, Note_on_c, 0, 75, 71
1, 2112, Note_on_c, 1, 69, 64
1, 2135, Note_on_c, 0, 75, 0
1, 2136, Note_on_c, 0, 71, 70
1, 2157, Note_on_c, 1, 69, 0
1, 2159, Note_on_c, 0, 71, 0
1, 2160, Note_on_c, 0, 76, 70
1, 2160, Note_on_c, 1, 68, 64
1, 2183, Note_on_c, 0, 76, 0
1, 2184, Note_on_c, 0, 71, 70
1, 2205, Note_on_c, 1, 68, 0
1, 2207, Note_on_c, 0, 71, 0
1, 2208, Note_on_c, 0, 78, 71
1, 2208, Note_on_c, 1, 66, 64
1, 2231, Note_on_c, 0, 78, 0
1, 2232, Note_on_c, 0, 71, 72
1, 2253, Note_on_c, 1, 66, 0
1, 2255, Note_on_c, 0, 71, 0
1, 2256, Note_on_c, 0, 80, 73
1, 2256, Note_on_c, 1, 64, 64
1, 2279, Note_on_c, 0, 80, 0
1, 2280, Note_on_c, 0, 71, 74
1, 2301, Note_on_c, 1, 64, 0
1, 2303, Note_on_c, 0, 71, 0
1, 2304, Note_on_c, 0, 83, 70
1, 2327, Note_on_c, 0, 83, 0
1, 2328, Note_on_c, 0, 79, 69
1, 2351, Note_on_c, 0, 79, 0
1, 2352, Note_on_c, 0, 76, 68
1, 2375, Note_on_c, 0, 76, 0
1, 2376, Note_on_c, 0, 71, 67
1, 2399, Note_on_c, 0, 71, 0
1, 2400, Note_on_c, 0, 75, 66
1, 2400, Note_on_c, 1, 69, 64
1, 2423, Note_on_c, 0, 75, 0
1, 2424, Note_on_c, 0, 71, 65
1, 2445, Note_on_c, 1, 69, 0
1, 2447, Note_on_c, 0, 71, 0
1, 2448, Note_on_c, 0, 76, 64
1, 2448, Note_on_c, 1, 67, 64
1, 2471, Note_on_c, 0, 76, 0
1, 2472, Note_on_c, 0, 71, 65
1, 2493, Note_on_c, 1, 67, 0
1, 2495, Note_on_c, 0, 71, 0
1, 2496, Note_on_c, 0, 78, 66
1, 2496, Note_on_c, 1, 66, 64
1, 2519, Note_on_c, 0, 78, 0
1, 2520, Note_on_c, 0, 71, 67
1, 2541, Note_on_c, 1, 66, 0
1, 2543, Note_on_c, 0, 71, 0
1, 2544, Note_on_c, 0, 79, 68
1, 2544, Note_on_c, 1, 64, 64
1, 2567, Note_on_c, 0, 79, 0
1, 2568, Note_on_c, 0, 71, 69
1, 2589, Note_on_c, 1, 64, 0
1, 2591, Note_on_c, 0, 71, 0
1, 2592, Note_on_c, 0, 83, 75
1, 2615, Note_on_c, 0, 83, 0
1, 2616, Note_on_c, 0, 80, 74
1, 2639, Note_on_c, 0, 80, 0
1, 2640, Note_on_c, 0, 76, 73
1, 2663, Note_on_c, 0, 76, 0
1, 2664, Note_on_c, 0, 71, 72
1, 2687, Note_on_c, 0, 71, 0
1, 2688, Note_on_c, 0, 75, 71
1, 2688, Note_on_c, 1, 69, 64
1, 2711, Note_on_c, 0, 75, 0
1, 2712, Note_on_c, 0, 71, 70
1, 2733, Note_on_c, 1, 69, 0
1, 2735, Note_on_c, 0, 71, 0
1, 2736, Note_on_c, 0, 76, 70
1, 2736, Note_on_c, 1, 68, 64
1, 2759, Note_on_c, 0, 76, 0
1, 2760, Note_on_c, 0, 71, 70
1, 2781, Note_on_c, 1, 68, 0
1, 2783, Note_on_c, 0, 71, 0
1, 2784, Note_on_c, 0, 78, 71
1, 2784, Note_on_c, 1, 66, 64
1, 2807, Note_on_c, 0, 78, 0
1, 2808, Note_on_c, 0, 71, 72
1, 2829, Note_on_c, 1, 66, 0
1, 2831, Note_on_c, 0, 71, 0
1, 2832, Note_on_c, 0, 80, 73
1, 2832, Note_on_c, 1, 64, 64
1, 2855, Note_on_c, 0, 80, 0
1, 2856, Note_on_c, 0, 71, 74
1, 2877, Note_on_c, 1, 64, 0
1, 2879, Note_on_c, 0, 71, 0
1, 2880, Note_on_c, 0, 83, 75
1, 2903, Note_on_c, 0, 83, 0
1, 2904, Note_on_c, 0, 81, 75
1, 2927, Note_on_c, 0, 81, 0
1, 2928, Note_on_c, 0, 80, 75
1, 2951, Note_on_c, 0, 80, 0
1, 2952, Note_on_c, 0, 78, 75
1, 2975, Note_on_c, 0, 78, 0
1, 2976, Note_on_c, 0, 76, 75
1, 2999, Note_on_c, 0, 76, 0
1, 3000, Note_on_c, 0, 74, 75
1, 3023, Note_on_c, 0, 74, 0
1, 3024, Note_on_c, 0, 73, 75
1, 3024, Note_on_c, 1, 64, 64
1, 3024, Note_on_c, 1, 57, 64
1, 3069, Note_on_c, 0, 73, 0
1, 3071, Note_on_c, 1, 64, 0
1, 3071, Note_on_c, 1, 57, 0
1, 3072, Note_on_c, 0, 73, 75
1, 3072, Note_on_c, 1, 64, 64
1, 3072, Note_on_c, 1, 57, 64
1, 3117, Note_on_c, 0, 73, 0
1, 3119, Note_on_c, 1, 64, 0
1, 3119, Note_on_c, 1, 57, 0
1, 3120, Note_on_c, 0, 73, 75
1, 3120, Note_on_c, 1, 64, 64
1, 3120, Note_on_c, 1, 57, 64
1, 3165, Note_on_c, 0, 73, 0
1, 3167, Note_on_c, 1, 64, 0
1, 3167, Note_on_c, 1, 57, 0
1, 3168, Note_on_c, 0, 73, 75
1, 3168, Note_on_c, 1, 64, 64
1, 3168, Note_on_c, 1, 57, 64
1, 3191, Note_on_c, 0, 73, 0
1, 3192, Note_on_c, 0, 76, 75
1, 3215, Note_on_c, 0, 76, 0
1, 3216, Note_on_c, 0, 75, 75
1, 3239, Note_on_c, 0, 75, 0
1, 3240, Note_on_c, 0, 73, 75
1, 3257, Note_on_c, 1, 64, 0
1, 3257, Note_on_c, 1, 57, 0
1, 3263, Note_on_c, 0, 73, 0
1, 3264, Note_on_c, 0, 71, 75
1, 3287, Note_on_c, 0, 71, 0
1, 3288, Note_on_c, 0, 69, 75
1, 3311, Note_on_c, 0, 69, 0
1, 3312, Note_on_c, 0, 68, 75
1, 3312, Note_on_c, 1, 52, 64
1, 3312, Note_on_c, 1, 47, 64
1, 3335, Note_on_c, 0, 68, 0
1, 3336, Note_on_c, 0, 71, 75
1, 3359, Note_on_c, 0, 71, 0
1, 3360, Note_on_c, 0, 69, 75
1, 3383, Note_on_c, 0, 69, 0
1, 3384, Note_on_c, 0, 68, 75
1, 3401, Note_on_c, 1, 52, 0
1, 3401, Note_on_c, 1, 47, 0
1, 3407, Note_on_c, 0, 68, 0
1, 3408, Note_on_c, 0, 66, 75
1, 3431, Note_on_c, 0, 66, 0
1, 3432, Note_on_c, 0, 64, 75
1, 3455, Note_on_c, 0, 64, 0
1, 3456, Note_on_c, 0, 68, 75
1, 3456, Note_on_c, 1, 51, 64
1, 3456, Note_on_c, 1, 47, 64
1, 3470, Note_on_c, 0, 68, 0
1, 3471, Note_on_c, 0, 66, 75
1, 3485, Note_on_c, 0, 66, 0
1, 3486, Note_on_c, 0, 68, 75
1, 3500, Note_on_c, 0, 68, 0
1, 3501, Note_on_c, 0, 66, 75
1, 3503, Note_on_c, 1, 51, 0
1, 3503, Note_on_c, 1, 47, 0
1, 3504, Note_on_c, 1, 51, 64
1, 3504, Note_on_c, 1, 47, 64
1, 3515, Note_on_c, 0, 66, 0
1, 3516, Note_on_c, 0, 68, 75
1, 3529, Note_on_c, 0, 68, 0
1, 3530, Note_on_c, 0, 66, 75
1, 3543, Note_on_c, 0, 66, 0
1, 3544, Note_on_c, 0, 68, 75
1, 3551, Note_on_c, 1, 51, 0
1, 3551, Note_on_c, 1, 47, 0
1, 3552, Note_on_c, 1, 51, 64
1, 3552, Note_on_c, 1, 47, 64
1, 3557, Note_on_c, 0, 68, 0
1, 3558, Note_on_c, 0, 66, 75
1, 3571, Note_on_c, 0, 66, 0
1, 3572, Note_on_c, 0, 64, 75
1, 3585, Note_on_c, 0, 64, 0
1, 3586, Note_on_c, 0, 66, 75
1, 3599, Note_on_c, 0, 66, 0
1, 3599, Note_on_c, 1, 51, 0
1, 3599, Note_on_c, 1, 47, 0
1, 3600, Note_on_c, 0, 64, 75
1, 3600, Note_on_c, 1, 52, 75
1, 3645, Note_on_c, 0, 64, 0
1, 3645, Note_on_c, 1, 52, 0
1, 3648, Note_on_c, 0, 71, 75
1, 3671, Note_on_c, 0, 71, 0
1, 3672, Note_on_c, 0, 68, 75
1, 3695, Note_on_c, 0, 68, 0
1, 3696, Note_on_c, 0, 69, 75
1, 3696, Note_on_c, 1, 47, 75
1, 3719, Note_on_c, 0, 69, 0
1, 3720, Note_on_c, 0, 66, 75
1, 3741, Note_on_c, 1, 47, 0
1, 3743, Note_on_c, 0, 66, 0
1, 3744, Note_on_c, 0, 64, 75
1, 3744, Note_on_c, 1, 52, 75
1, 3789, Note_on_c, 0, 64, 0
1, 3789, Note_on_c, 1, 52, 0
1, 3792, Note_on_c, 0, 71, 75
1, 3815, Note_on_c, 0, 71, 0
1, 3816, Note_on_c, 0, 68, 75
1, 3839, Note_on_c, 0, 68, 0
1, 3840, Note_on_c, 0, 69, 75
1, 3840, Note_on_c, 1, 47, 75
1, 3863, Note_on_c, 0, 69, 0
1, 3864, Note_on_c, 0, 66, 75
1, 3885, Note_on_c, 1, 47, 0
1, 3887, Note_on_c, 0, 66, 0
1, 3888, Note_on_c, 0, 64, 75
1, 3888, Note_on_c, 1, 52, 75
1, 3977, Note_on_c, 0, 64, 0
1, 3977, Note_on_c, 1, 52, 0
1, 4032, Note_on_c, 0, 69, 75
1, 4032, Note_on_c, 1, 57, 64
1, 4044, Note_on_c, 0, 69, 0
1, 4044, Note_on_c, 0, 68, 75
1, 4055, Note_on_c, 1, 57, 0
1, 4056, Note_on_c, 0, 68, 0
1, 4056, Note_on_c, 0, 69, 75
1, 4056, Note_on_c, 1, 64, 64
1, 4077, Note_on_c, 0, 69, 0
1, 4079, Note_on_c, 1, 64, 0
1, 4080, Note_on_c, 1, 61, 64
1, 4103, Note_on_c, 1, 61, 0
1, 4104, Note_on_c, 1, 64, 64
1, 4127, Note_on_c, 1, 64, 0
1, 4128, Note_on_c, 1, 57, 64
1, 4151, Note_on_c, 1, 57, 0
1, 4152, Note_on_c, 1, 64, 64
1, 4175, Note_on_c, 1, 64, 0
1, 4176, Note_on_c, 0, 71, 75
1, 4176, Note_on_c, 1, 56, 64
1, 4188, Note_on_c, 0, 71, 0
1, 4188, Note_on_c, 0, 69, 75
1, 4199, Note_on_c, 1, 56, 0
1, 4200, Note_on_c, 0, 69, 0
1, 4200, Note_on_c, 0, 71, 75
1, 4200, Note_on_c, 1, 64, 64
1, 4221, Note_on_c, 0, 71, 0
1, 4223, Note_on_c, 1, 64, 0
1, 4224, Note_on_c, 1, 59, 64
1, 4247, Note_on_c, 1, 59, 0
1, 4248, Note_on_c, 1, 64, 64
1, 4271, Note_on_c, 1, 64, 0
1, 4272, Note_on_c, 1, 56, 64
1, 4295, Note_on_c, 1, 56, 0
1, 4296, Note_on_c, 1, 64, 64
1, 4319, Note_on_c, 1, 64, 0
1, 4320, Note_on_c, 0, 73, 75
1, 4320, Note_on_c, 1, 57, 64
1, 4332, Note_on_c, 0, 73, 0
1, 4332, Note_on_c, 0, 71, 75
1, 4343, Note_on_c, 1, 57, 0
1, 4344, Note_on_c, 0, 71, 0
1, 4344, Note_on_c, 0, 73, 75
1, 4344, Note_on_c, 1, 64, 64
1, 4365, Note_on_c, 0, 73, 0
1, 4367, Note_on_c, 1, 64, 0
1, 4368, Note_on_c, 1, 61, 64
1, 4391, Note_on_c, 1, 61, 0
1, 4392, Note_on_c, 1, 64, 64
1, 4415, Note_on_c, 1, 64, 0
1, 4416, Note_on_c, 1, 57, 64
1, 4439, Note_on_c, 1, 57, 0
1, 4440, Note_on_c, 1, 64, 64
1, 4463, Note_on_c, 1, 64, 0
1, 4464, Note_on_c, 0, 74, 75
1, 4464, Note_on_c, 1, 56, 64
1, 4476, Note_on_c, 0, 74, 0
1, 4476, Note_on_c, 0, 73, 75
1, 4487, Note_on_c, 1, 56, 0
1, 4488, Note_on_c, 0, 73, 0
1, 4488, Note_on_c, 0, 74, 75
1, 4488, Note_on_c, 1, 64, 64
1, 4509, Note_on_c, 0, 74, 0
1, 4511, Note_on_c, 1, 64, 0
1, 4512, Note_on_c, 1, 59, 64
1, 4535, Note_on_c, 1, 59, 0
1, 4536, Note_on_c, 1, 64, 64
1, 4559, Note_on_c, 1, 64, 0
1, 4560, Note_on_c, 1, 56, 64
1, 4583, Note_on_c, 1, 56, 0
1, 4584, Note_on_c, 1, 64, 64
1, 4607, Note_on_c, 1, 64, 0
1, 4608, Note_on_c, 0, 74, 75
1, 4608, Note_on_c, 1, 57, 64
1, 4631, Note_on_c, 0, 74, 0
1, 4632, Note_on_c, 0, 73, 75
1, 4655, Note_on_c, 0, 73, 0
1, 4656, Note_on_c, 0, 71, 75
1, 4679, Note_on_c, 0, 71, 0
1, 4680, Note_on_c, 0, 69, 75
1, 4697, Note_on_c, 1, 57, 0
1, 4703, Note_on_c, 0, 69, 0
1, 4704, Note_on_c, 0, 68, 75
1, 4727, Note_on_c, 0, 68, 0
1, 4728, Note_on_c, 0, 66, 75
1, 4751, Note_on_c, 0, 66, 0
1, 4752, Note_on_c, 0, 64, 75
1, 4752, Note_on_c, 1, 61, 64
1, 4752, Note_on_c, 1, 52, 64
1, 4799, Note_on_c, 1, 61, 0
1, 4799, Note_on_c, 1, 52, 0
1, 4800, Note_on_c, 1, 61, 64
1, 4800, Note_on_c, 1, 52, 64
1, 4841, Note_on_c, 0, 64, 0
1, 4847, Note_on_c, 1, 61, 0
1, 4847, Note_on_c, 1, 52, 0
1, 4848, Note_on_c, 0, 62, 75
1, 4848, Note_on_c, 1, 59, 64
1, 4848, Note_on_c, 1, 52, 64
1, 4860, Note_on_c, 0, 62, 0
1, 4860, Note_on_c, 0, 64, 75
1, 4872, Note_on_c, 0, 64, 0
1, 4872, Note_on_c, 0, 62, 75
1, 4893, Note_on_c, 0, 62, 0
1, 4895, Note_on_c, 1, 59, 0
1, 4895, Note_on_c, 1, 52, 0
1, 4896, Note_on_c, 0, 61, 75
1, 4896, Note_on_c, 1, 57, 64
1, 4985, Note_on_c, 0, 61, 0
1, 4985, Note_on_c, 1, 57, 0
1, 5040, Note_on_c, 0, 78, 75
1, 5040, Note_on_c, 1, 62, 64
1, 5063, Note_on_c, 1, 62, 0
1, 5064, Note_on_c, 1, 69, 64
1, 5087, Note_on_c, 1, 69, 0
1, 5088, Note_on_c, 1, 66, 64
1, 5111, Note_on_c, 1, 66, 0
1, 5112, Note_on_c, 1, 69, 64
1, 5129, Note_on_c, 0, 78, 0
1, 5135, Note_on_c, 1, 69, 0
1, 5136, Note_on_c, 0, 80, 75
1, 5136, Note_on_c, 1, 62, 64
1, 5159, Note_on_c, 1, 62, 0
1, 5160, Note_on_c, 1, 69, 64
1, 5181, Note_on_c, 0, 80, 0
1, 5183, Note_on_c, 1, 69, 0
1, 5184, Note_on_c, 0, 81, 75
1, 5184, Note_on_c, 1, 61, 64
1, 5207, Note_on_c, 1, 61, 0
1, 5208, Note_on_c, 1, 69, 64
1, 5229, Note_on_c, 0, 81, 0
1, 5231, Note_on_c, 1, 69, 0
1, 5232, Note_on_c, 0, 76, 75
1, 5232, Note_on_c, 1, 64, 64
1, 5255, Note_on_c, 1, 64, 0
1, 5256, Note_on_c, 1, 69, 64
1, 5277, Note_on_c, 0, 76, 0
1, 5279, Note_on_c, 1, 69, 0
1, 5280, Note_on_c, 1, 61, 64
1, 5303, Note_on_c, 1, 61, 0
1, 5304, Note_on_c, 1, 69, 64
1, 5327, Note_on_c, 1, 69, 0
1, 5328, Note_on_c, 0, 78, 75
1, 5328, Note_on_c, 1, 62, 64
1, 5351, Note_on_c, 1, 62, 0
1, 5352, Note_on_c, 1, 69, 64
1, 5375, Note_on_c, 1, 69, 0
1, 5376, Note_on_c, 1, 66, 64
1, 5399, Note_on_c, 1, 66, 0
1, 5400, Note_on_c, 1, 69, 64
1, 5417, Note_on_c, 0, 78, 0
1, 5423, Note_on_c, 1, 69, 0
1, 5424, Note_on_c, 0, 80, 75
1, 5424, Note_on_c, 1, 62, 64
1, 5447, Note_on_c, 1, 62, 0
1, 5448, Note_on_c, 1, 69, 64
1, 5469, Note_on_c, 0, 80, 0
1, 5471, Note_on_c, 1, 69, 0
1, 5472, Note_on_c, 0, 81, 75
1, 5472, Note_on_c, 1, 61, 64
1, 5495, Note_on_c, 1, 61, 0
1, 5496, Note_on_c, 1, 69, 64
1, 5517, Note_on_c, 0, 81, 0
1, 5519, Note_on_c, 1, 69, 0
1, 5520, Note_on_c, 0, 76, 75
1, 5520, Note_on_c, 1, 64, 64
1, 5543, Note_on_c, 1, 64, 0
1, 5544, Note_on_c, 1, 69, 64
1, 5565, Note_on_c, 0, 76, 0
1, 5567, Note_on_c, 1, 69, 0
1, 5568, Note_on_c, 1, 61, 64
1, 5591, Note_on_c, 1, 61, 0
1, 5592, Note_on_c, 1, 69, 64
1, 5615, Note_on_c, 1, 69, 0
1, 5616, Note_on_c, 0, 76, 75
1, 5616, Note_on_c, 1, 59, 64
1, 5639, Note_on_c, 0, 76, 0
1, 5640, Note_on_c, 0, 74, 75
1, 5661, Note_on_c, 1, 59, 0
1, 5663, Note_on_c, 0, 74, 0
1, 5664, Note_on_c, 0, 83, 75
1, 5664, Note_on_c, 1, 68, 64
1, 5687, Note_on_c, 0, 83, 0
1, 5688, Note_on_c, 0, 74, 75
1, 5709, Note_on_c, 1, 68, 0
1, 5711, Note_on_c, 0, 74, 0
1, 5712, Note_on_c, 0, 74, 75
1, 5712, Note_on_c, 1, 69, 64
1, 5735, Note_on_c, 0, 74, 0
1, 5736, Note_on_c, 0, 73, 75
1, 5757, Note_on_c, 1, 69, 0
1, 5759, Note_on_c, 0, 73, 0
1, 5760, Note_on_c, 0, 78, 75
1, 5760, Note_on_c, 1, 62, 64
1, 5783, Note_on_c, 0, 78, 0
1, 5784, Note_on_c, 0, 76, 75
1, 5807, Note_on_c, 0, 76, 0
1, 5808, Note_on_c, 0, 74, 75
1, 5831, Note_on_c, 0, 74, 0
1, 5832, Note_on_c, 0, 73, 75
1, 5849, Note_on_c, 1, 62, 0
1, 5855, Note_on_c, 0, 73, 0
1, 5856, Note_on_c, 0, 71, 75
1, 5856, Note_on_c, 1, 63, 64
1, 5879, Note_on_c, 0, 71, 0
1, 5880, Note_on_c, 0, 69, 75
1, 5901, Note_on_c, 1, 63, 0
1, 5903, Note_on_c, 0, 69, 0
1, 5904, Note_on_c, 0, 69, 75
1, 5904, Note_on_c, 1, 64, 64
1, 5949, Note_on_c, 1, 64, 0
1, 5952, Note_on_c, 0, 69, 0
1, 5952, Note_on_c, 0, 68, 75
1, 5952, Note_on_c, 1, 52, 64
1, 5993, Note_on_c, 0, 68, 0
1, 5997, Note_on_c, 1, 52, 0
1, 6048, Note_on_c, 0, 83, 75
1, 6071, Note_on_c, 0, 83, 0
1, 6072, Note_on_c, 0, 80, 74
1, 6095, Note_on_c, 0, 80, 0
1, 6096, Note_on_c, 0, 76, 73
1, 6119, Note_on_c, 0, 76, 0
1, 6120, Note_on_c, 0, 71, 72
1, 6143, Note_on_c, 0, 71, 0
1, 6144, Note_on_c, 0, 75, 71
1, 6144, Note_on_c, 1, 69, 64
1, 6167, Note_on_c, 0, 75, 0
1, 6168, Note_on_c, 0, 71, 70
1, 6189, Note_on_c, 1, 69, 0
1, 6191, Note_on_c, 0, 71, 0
1, 6192, Note_on_c, 0, 76, 70
1, 6192, Note_on_c, 1, 68, 64
1, 6215, Note_on_c, 0, 76, 0
1, 6216, Note_on_c, 0, 71, 70
1, 6237, Note_on_c, 1, 68, 0
1, 6239, Note_on_c, 0, 71, 0
1, 6240, Note_on_c, 0, 78, 71
1, 6240, Note_on_c, 1, 66, 64
1, 6263, Note_on_c, 0, 78, 0
1, 6264, Note_on_c, 0, 71, 72
1, 6285, Note_on_c, 1, 66, 0
1, 6287, Note_on_c, 0, 71, 0
1, 6288, Note_on_c, 0, 80, 73
1, 6288, Note_on_c, 1, 64, 64
1, 6311, Note_on_c, 0, 80, 0
1, 6312, Note_on_c, 0, 71, 74
1, 6333, Note_on_c, 1, 64, 0
1, 6335, Note_on_c, 0, 71, 0
1, 6336, Note_on_c, 0, 83, 70
1, 6359, Note_on_c, 0, 83, 0
1, 6360, Note_on_c, 0, 79, 69
1, 6383, Note_on_c, 0, 79, 0
1, 6384, Note_on_c, 0, 76, 68
1, 6407, Note_on_c, 0, 76, 0
1, 6408, Note_on_c, 0, 71, 67
1, 6431, Note_on_c, 0, 71, 0
1, 6432, Note_on_c, 0, 75, 66
1, 6432, Note_on_c, 1, 69, 64
1, 6455, Note_on_c, 0, 75, 0
1, 6456, Note_on_c, 0, 71, 65
1, 6477, Note_on_c, 1, 69, 0
1, 6479, Note_on_c, 0, 71, 0
1, 6480, Note_on_c, 0, 76, 64
1, 6480, Note_on_c, 1, 67, 64
1, 6503, Note_on_c, 0, 76, 0
1, 6504, Note_on_c, 0, 71, 65
1, 6525, Note_on_c, 1, 67, 0
1, 6527, Note_on_c, 0, 71, 0
1, 6528, Note_on_c, 0, 78, 66
1, 6528, Note_on_c, 1, 66, 64
1, 6551, Note_on_c, 0, 78, 0
1, 6552, Note_on_c, 0, 71, 67
1, 6573, Note_on_c, 1, 66, 0
1, 6575, Note_on_c, 0, 71, 0
1, 6576, Note_on_c, 0, 79, 68
1, 6576, Note_on_c, 1, 64, 64
1, 6599, Note_on_c, 0, 79, 0
1, 6600, Note_on_c, 0, 71, 69
1, 6621, Note_on_c, 1, 64, 0
1, 6623, Note_on_c, 0, 71, 0
1, 6624, Note_on_c, 0, 83, 75
1, 6647, Note_on_c, 0, 83, 0
1, 6648, Note_on_c, 0, 80, 74
1, 6671, Note_on_c, 0, 80, 0
1, 6672, Note_on_c, 0, 76, 73
1, 6695, Note_on_c, 0, 76, 0
1, 6696, Note_on_c, 0, 71, 72
1, 6719, Note_on_c, 0, 71, 0
1, 6720, Note_on_c, 0, 75, 71
1, 6720, Note_on_c, 1, 69, 64
1, 6743, Note_on_c, 0, 75, 0
1, 6744, Note_on_c, 0, 71, 70
1, 6765, Note_on_c, 1, 69, 0
1, 6767, Note_on_c, 0, 71, 0
1, 6768, Note_on_c, 0, 76, 70
1, 6768, Note_on_c, 1, 68, 64
1, 6791, Note_on_c, 0, 76, 0
1, 6792, Note_on_c, 0, 71, 70
1, 6813, Note_on_c, 1, 68, 0
1, 6815, Note_on_c, 0, 71, 0
1, 6816, Note_on_c, 0, 78, 71
1, 6816, Note_on_c, 1, 66, 64
1, 6839, Note_on_c, 0, 78, 0
1, 6840, Note_on_c, 0, 71, 72
1, 6861, Note_on_c, 1, 66, 0
1, 6863, Note_on_c, 0, 71, 0
1, 6864, Note_on_c, 0, 80, 73
1, 6864, Note_on_c, 1, 64, 64
1, 6887, Note_on_c, 0, 80, 0
1, 6888, Note_on_c, 0, 71, 74
1, 6909, Note_on_c, 1, 64, 0
1, 6911, Note_on_c, 0, 71, 0
1, 6912, Note_on_c, 0, 83, 75
1, 6935, Note_on_c, 0, 83, 0
1, 6936, Note_on_c, 0, 81, 75
1, 6959, Note_on_c, 0, 81, 0
1, 6960, Note_on_c, 0, 80, 75
1, 6983, Note_on_c, 0, 80, 0
1, 6984, Note_on_c, 0, 78, 75
1, 7007, Note_on_c, 0, 78, 0
1, 7008, Note_on_c, 0, 76, 75
1, 7031, Note_on_c, 0, 76, 0
1, 7032, Note_on_c, 0, 74, 75
1, 7055, Note_on_c, 0, 74, 0
1, 7056, Note_on_c, 0, 73, 75
1, 7056, Note_on_c, 1, 64, 64
1, 7056, Note_on_c, 1, 57, 64
1, 7101, Note_on_c, 0, 73, 0
1, 7103, Note_on_c, 1, 64, 0
1, 7103, Note_on_c, 1, 57, 0
1, 7104, Note_on_c, 0, 73, 75
1, 7104, Note_on_c, 1, 64, 64
1, 7104, Note_on_c, 1, 57, 64
1, 7149, Note_on_c, 0, 73, 0
1, 7151, Note_on_c, 1, 64, 0
1, 7151, Note_on_c, 1, 57, 0
1, 7152, Note_on_c, 0, 73, 75
1, 7152, Note_on_c, 1, 64, 64
1, 7152, Note_on_c, 1, 57, 64
1, 7197, Note_on_c, 0, 73, 0
1, 7199, Note_on_c, 1, 64, 0
1, 7199, Note_on_c, 1, 57, 0
1, 7200, Note_on_c, 0, 73, 75
1, 7200, Note_on_c, 1, 64, 64
1, 7200, Note_on_c, 1, 57, 64
1, 7223, Note_on_c, 0, 73, 0
1, 7224, Note_on_c, 0, 76, 75
1, 7247, Note_on_c, 0, 76, 0
1, 7248, Note_on_c, 0, 75, 75
1, 7271, Note_on_c, 0, 75, 0
1, 7272, Note_on_c, 0, 73, 75
1, 7289, Note_on_c, 1, 64, 0
1, 7289, Note_on_c, 1, 57, 0
1, 7295, Note_on_c, 0, 73, 0
1, 7296, Note_on_c, 0, 71, 75
1, 7319, Note_on_c, 0, 71, 0
1, 7320, Note_on_c, 0, 69, 75
1, 7343, Note_on_c, 0, 69, 0
1, 7344, Note_on_c, 0, 68, 75
1, 7344, Note_on_c, 1, 52, 64
1, 7344, Note_on_c, 1, 47, 64
1, 7367, Note_on_c, 0, 68, 0
1, 7368, Note_on_c, 0, 71, 75
1, 7391, Note_on_c, 0, 71, 0
1, 7392, Note_on_c, 0, 69, 75
1, 7415, Note_on_c, 0, 69, 0
1, 7416, Note_on_c, 0, 68, 75
1, 7433, Note_on_c, 1, 52, 0
1, 7433, Note_on_c, 1, 47, 0
1, 7439, Note_on_c, 0, 68, 0
1, 7440, Note_on_c, 0, 66, 75
1, 7463, Note_on_c, 0, 66, 0
1, 7464, Note_on_c, 0, 64, 75
1, 7487, Note_on_c, 0, 64, 0
1, 7488, Note_on_c, 0, 68, 75
1, 7488, Note_on_c, 1, 51, 64
1, 7488, Note_on_c, 1, 47, 64
1, 7502, Note_on_c, 0, 68, 0
1, 7503, Note_on_c, 0, 66, 75
1, 7517, Note_on_c, 0, 66, 0
1, 7518, Note_on_c, 0, 68, 75
1, 7532, Note_on_c, 0, 68, 0
1, 7533, Note_on_c, 0, 66, 75
1, 7535, Note_on_c, 1, 51, 0
1, 7535, Note_on_c, 1, 47, 0
1, 7536, Note_on_c, 1, 51, 64
1, 7536, Note_on_c, 1, 47, 64
1, 7547, Note_on_c, 0, 66, 0
1, 7548, Note_on_c, 0, 68, 75
1, 7561, Note_on_c, 0, 68, 0
1, 7562, Note_on_c, 0, 66, 75
1, 7575, Note_on_c, 0, 66, 0
1, 7576, Note_on_c, 0, 68, 75
1, 7583, Note_on_c, 1, 51, 0
1, 7583, Note_on_c, 1, 47, 0
1, 7584, Note_on_c, 1, 51, 64
1, 7584, Note_on_c, 1, 47, 64
1, 7589, Note_on_c, 0, 68, 0
1, 7590, Note_on_c, 0, 66, 75
1, 7603, Note_on_c, 0, 66, 0
1, 7604, Note_on_c, 0, 64, 75
1, 7617, Note_on_c, 0, 64, 0
1, 7618, Note_on_c, 0, 66, 75
1, 7631, Note_on_c, 0, 66, 0
1, 7631, Note_on_c, 1, 51, 0
1, 7631, Note_on_c, 1, 47, 0
1, 7632, Note_on_c, 0, 64, 75
1, 7632, Note_on_c, 1, 52, 75
1, 7677, Note_on_c, 0, 64, 0
1, 7677, Note_on_c, 1, 52, 0
1, 7680, Note_on_c, 0, 71, 75
1, 7703, Note_on_c, 0, 71, 0
1, 7704, Note_on_c, 0, 68, 75
1, 7727, Note_on_c, 0, 68, 0
1, 7728, Note_on_c, 0, 69, 75
1, 7728, Note_on_c, 1, 47, 75
1, 7751, Note_on_c, 0, 69, 0
1, 7752, Note_on_c, 0, 66, 75
1, 7773, Note_on_c, 1, 47, 0
1, 7775, Note_on_c, 0, 66, 0
1, 7776, Note_on_c, 0, 64, 75
1, 7776, Note_on_c, 1, 52, 75
1, 7821, Note_on_c, 0, 64, 0
1, 7821, Note_on_c, 1, 52, 0
1, 7824, Note_on_c, 0, 71, 75
1, 7847, Note_on_c, 0, 71, 0
1, 7848, Note_on_c, 0, 68, 75
1, 7871, Note_on_c, 0, 68, 0
1, 7872, Note_on_c, 0, 69, 75
1, 7872, Note_on_c, 1, 47, 75
1, 7895, Note_on_c, 0, 69, 0
1, 7896, Note_on_c, 0, 66, 75
1, 7917, Note_on_c, 1, 47, 0
1, 7919, Note_on_c, 0, 66, 0
1, 7920, Note_on_c, 0, 64, 75
1, 7920, Note_on_c, 1, 52, 75
1, 8009, Note_on_c, 0, 64, 0
1, 8009, Note_on_c, 1, 52, 0
1, 8064, Note_on_c, 0, 64, 75
1, 8064, Note_on_c, 1, 52, 75
1, 8064, Note_on_c, 1, 40, 75
1, 8109, Note_on_c, 0, 64, 0
1, 8112, Note_on_c, 0, 68, 75
1, 8135, Note_on_c, 0, 68, 0
1, 8136, Note_on_c, 0, 64, 75
1, 8159, Note_on_c, 0, 64, 0
1, 8160, Note_on_c, 0, 71, 75
1, 8183, Note_on_c, 0, 71, 0
1, 8184, Note_on_c, 0, 68, 75
1, 8197, Note_on_c, 1, 52, 0
1, 8207, Note_on_c, 0, 68, 0
1, 8208, Note_on_c, 0, 66, 75
1, 8208, Note_on_c, 1, 51, 75
1, 8253, Note_on_c, 0, 66, 0
1, 8256, Note_on_c, 0, 69, 75
1, 8279, Note_on_c, 0, 69, 0
1, 8280, Note_on_c, 0, 66, 75
1, 8303, Note_on_c, 0, 66, 0
1, 8304, Note_on_c, 0, 73, 75
1, 8327, Note_on_c, 0, 73, 0
1, 8328, Note_on_c, 0, 69, 75
1, 8341, Note_on_c, 1, 51, 0
1, 8351, Note_on_c, 0, 69, 0
1, 8352, Note_on_c, 0, 68, 75
1, 8352, Note_on_c, 1, 50, 75
1, 8397, Note_on_c, 0, 68, 0
1, 8400, Note_on_c, 0, 71, 75
1, 8423, Note_on_c, 0, 71, 0
1, 8424, Note_on_c, 0, 68, 75
1, 8447, Note_on_c, 0, 68, 0
1, 8448, Note_on_c, 0, 74, 75
1, 8471, Note_on_c, 0, 74, 0
1, 8472, Note_on_c, 0, 71, 75
1, 8485, Note_on_c, 1, 50, 0
1, 8495, Note_on_c, 0, 71, 0
1, 8496, Note_on_c, 0, 69, 75
1, 8496, Note_on_c, 1, 49, 75
1, 8541, Note_on_c, 0, 69, 0
1, 8544, Note_on_c, 0, 73, 75
1, 8567, Note_on_c, 0, 73, 0
1, 8568, Note_on_c, 0, 69, 76
1, 8591, Note_on_c, 0, 69, 0
1, 8592, Note_on_c, 0, 76, 77
1, 8615, Note_on_c, 0, 76, 0
1, 8616, Note_on_c, 0, 73, 78
1, 8629, Note_on_c, 1, 49, 0
1, 8629, Note_on_c, 1, 40, 0
1, 8639, Note_on_c, 0, 73, 0
1, 8640, Note_on_c, 0, 71, 80
1, 8640, Note_on_c, 1, 56, 80
1, 8640, Note_on_c, 1, 52, 80
1, 8663, Note_on_c, 0, 71, 0
1, 8664, Note_on_c, 0, 64, 80
1, 8685, Note_on_c, 1, 56, 0
1, 8687, Note_on_c, 0, 64, 0
1, 8688, Note_on_c, 0, 74, 80
1, 8688, Note_on_c, 1, 59, 80
1, 8711, Note_on_c, 0, 74, 0
1, 8712, Note_on_c, 0, 64, 80
1, 8733, Note_on_c, 1, 59, 0
1, 8735, Note_on_c, 0, 64, 0
1, 8736, Note_on_c, 0, 73, 80
1, 8736, Note_on_c, 1, 57, 80
1, 8759, Note_on_c, 0, 73, 0
1, 8760, Note_on_c, 0, 64, 80
1, 8773, Note_on_c, 1, 52, 0
1, 8781, Note_on_c, 1, 57, 0
1, 8783, Note_on_c, 0, 64, 0
1, 8784, Note_on_c, 0, 71, 80
1, 8784, Note_on_c, 1, 56, 80
1, 8784, Note_on_c, 1, 52, 80
1, 8807, Note_on_c, 0, 71, 0
1, 8808, Note_on_c, 0, 64, 80
1, 8829, Note_on_c, 1, 56, 0
1, 8831, Note_on_c, 0, 64, 0
1, 8832, Note_on_c, 0, 74, 80
1, 8832, Note_on_c, 1, 59, 80
1, 8855, Note_on_c, 0, 74, 0
1, 8856, Note_on_c, 0, 64, 80
1, 8877, Note_on_c, 1, 59, 0
1, 8879, Note_on_c, 0, 64, 0
1, 8880, Note_on_c, 0, 73, 80
1, 8880, Note_on_c, 1, 57, 80
1, 8903, Note_on_c, 0, 73, 0
1, 8904, Note_on_c, 0, 64, 80
1, 8917, Note_on_c, 1, 52, 0
1, 8925, Note_on_c, 1, 57, 0
1, 8927, Note_on_c, 0, 64, 0
1, 8928, Note_on_c, 0, 71, 80
1, 8928, Note_on_c, 1, 56, 80
1, 8928, Note_on_c, 1, 52, 80
1, 8940, Note_on_c, 0, 71, 0
1, 8940, Note_on_c, 0, 73, 80
1, 8952, Note_on_c, 0, 73, 0
1, 8952, Note_on_c, 0, 71, 80
1, 9017, Note_on_c, 0, 71, 0
1, 9017, Note_on_c, 1, 56, 0
1, 9017, Note_on_c, 1, 52, 0
1, 9072, Note_on_c, 0, 69, 75
1, 9072, Note_on_c, 1, 57, 64
1, 9084, Note_on_c, 0, 69, 0
1, 9084, Note_on_c, 0, 68, 75
1, 9095, Note_on_c, 1, 57, 0
1, 9096, Note_on_c, 0, 68, 0
1, 9096, Note_on_c, 0, 69, 75
1, 9096, Note_on_c, 1, 64, 64
1, 9117, Note_on_c, 0, 69, 0
1, 9119, Note_on_c, 1, 64, 0
1, 9120, Note_on_c, 1, 61, 64
1, 9143, Note_on_c, 1, 61, 0
1, 9144, Note_on_c, 1, 64, 64
1, 9167, Note_on_c, 1, 64, 0
1, 9168, Note_on_c, 1, 57, 64
1, 9191, Note_on_c, 1, 57, 0
1, 9192, Note_on_c, 1, 64, 64
1, 9215, Note_on_c, 1, 64, 0
1, 9216, Note_on_c, 0, 71, 75
1, 9216, Note_on_c, 1, 56, 64
1, 9228, Note_on_c, 0, 71, 0
1, 9228, Note_on_c, 0, 69, 75
1, 9239, Note_on_c, 1, 56, 0
1, 9240, Note_on_c, 0, 69, 0
1, 9240, Note_on_c, 0, 71, 75
1, 9240, Note_on_c, 1, 64, 64
1, 9261, Note_on_c, 0, 71, 0
1, 9263, Note_on_c, 1, 64, 0
1, 9264, Note_on_c, 1, 59, 64
1, 9287, Note_on_c, 1, 59, 0
1, 9288, Note_on_c, 1, 64, 64
1, 9311, Note_on_c, 1, 64, 0
1, 9312, Note_on_c, 1, 56, 64
1, 9335, Note_on_c, 1, 56, 0
1, 9336, Note_on_c, 1, 64, 64
1, 9359, Note_on_c, 1, 64, 0
1, 9360, Note_on_c, 0, 73, 75
1, 9360, Note_on_c, 1, 57, 64
1, 9372, Note_on_c, 0, 73, 0
1, 9372, Note_on_c, 0, 71, 75
1, 9383, Note_on_c, 1, 57, 0
1, 9384, Note_on_c, 0, 71, 0
1, 9384, Note_on_c, 0, 73, 75
1, 9384, Note_on_c, 1, 64, 64
1, 9405, Note_on_c, 0, 73, 0
1, 9407, Note_on_c, 1, 64, 0
1, 9408, Note_on_c, 1, 61, 64
1, 9431, Note_on_c, 1, 61, 0
1, 9432, Note_on_c, 1, 64, 64
1, 9455, Note_on_c, 1, 64, 0
1, 9456, Note_on_c, 1, 57, 64
1, 9479, Note_on_c, 1, 57, 0
1, 9480, Note_on_c, 1, 64, 64
1, 9503, Note_on_c, 1, 64, 0
1, 9504, Note_on_c, 0, 74, 75
1, 9504, Note_on_c, 1, 56, 64
1, 9516, Note_on_c, 0, 74, 0
1, 9516, Note_on_c, 0, 73, 75
1, 9527, Note_on_c, 1, 56, 0
1, 9528, Note_on_c, 0, 73, 0
1, 9528, Note_on_c, 0, 74, 75
1, 9528, Note_on_c, 1, 64, 64
1, 9549, Note_on_c, 0, 74, 0
1, 9551, Note_on_c, 1, 64, 0
1, 9552, Note_on_c, 1, 59, 64
1, 9575, Note_on_c, 1, 59, 0
1, 9576, Note_on_c, 1, 64, 64
1, 9599, Note_on_c, 1, 64, 0
1, 9600, Note_on_c, 1, 56, 64
1, 9623, Note_on_c, 1, 56, 0
1, 9624, Note_on_c, 1, 64, 64
1, 9647, Note_on_c, 1, 64, 0
1, 9648, Note_on_c, 0, 74, 75
1, 9648, Note_on_c, 1, 57, 64
1, 9671, Note_on_c, 0, 74, 0
1, 9672, Note_on_c, 0, 73, 75
1, 9695, Note_on_c, 0, 73, 0
1, 9696, Note_on_c, 0, 71, 75
1, 9719, Note_on_c, 0, 71, 0
1, 9720, Note_on_c, 0, 69, 75
1, 9737, Note_on_c, 1, 57, 0
1, 9743, Note_on_c, 0, 69, 0
1, 9744, Note_on_c, 0, 68, 75
1, 9767, Note_on_c, 0, 68, 0
1, 9768, Note_on_c, 0, 66, 75
1, 9791, Note_on_c, 0, 66, 0
1, 9792, Note_on_c, 0, 64, 75
1, 9792, Note_on_c, 1, 61, 64
1, 9792, Note_on_c, 1, 52, 64
1, 9839, Note_on_c, 1, 61, 0
1, 9839, Note_on_c, 1, 52, 0
1, 9840, Note_on_c, 1, 61, 64
1, 9840, Note_on_c, 1, 52, 64
1, 9881, Note_on_c, 0, 64, 0
1, 9887, Note_on_c, 1, 61, 0
1, 9887, Note_on_c, 1, 52, 0
1, 9888, Note_on_c, 0, 62, 75
1, 9888, Note_on_c, 1, 59, 64
1, 9888, Note_on_c, 1, 52, 64
1, 9900, Note_on_c, 0, 62, 0
1, 9900, Note_on_c, 0, 64, 75
1, 9912, Note_on_c, 0, 64, 0
1, 9912, Note_on_c, 0, 62, 75
1, 9933, Note_on_c, 0, 62, 0
1, 9935, Note_on_c, 1, 59, 0
1, 9935, Note_on_c, 1, 52, 0
1, 9936, Note_on_c, 0, 61, 75
1, 9936, Note_on_c, 1, 57, 64
1, 9981, Note_on_c, 0, 61, 0
1, 9984, Note_on_c, 0, 68, 75
1, 9996, Note_on_c, 0, 68, 0
1, 9996, Note_on_c, 0, 69, 75
1, 10025, Note_on_c, 1, 57, 0
1, 10030, Note_on_c, 0, 69, 0
1, 10032, Note_on_c, 0, 68, 75
1, 10044, Note_on_c, 0, 68, 0
1, 10044, Note_on_c, 0, 69, 75
1, 10078, Note_on_c, 0, 69, 0
1, 10080, Note_on_c, 0, 64, 75
1, 10080, Note_on_c, 1, 61, 64
1, 10080, Note_on_c, 1, 52, 64
1, 10127, Note_on_c, 1, 61, 0
1, 10127, Note_on_c, 1, 52, 0
1, 10128, Note_on_c, 1, 61, 64
1, 10128, Note_on_c, 1, 52, 64
1, 10169, Note_on_c, 0, 64, 0
1, 10175, Note_on_c, 1, 61, 0
1, 10175, Note_on_c, 1, 52, 0
1, 10176, Note_on_c, 0, 62, 75
1, 10176, Note_on_c, 1, 59, 64
1, 10176, Note_on_c, 1, 52, 64
1, 10188, Note_on_c, 0, 62, 0
1, 10188, Note_on_c, 0, 64, 75
1, 10200, Note_on_c, 0, 64, 0
1, 10200, Note_on_c, 0, 62, 75
1, 10221, Note_on_c, 0, 62, 0
1, 10223, Note_on_c, 1, 59, 0
1, 10223, Note_on_c, 1, 52, 0
1, 10224, Note_on_c, 0, 61, 75
1, 10224, Note_on_c, 1, 57, 64
1, 10313, Note_on_c, 0, 61, 0
1, 10313, Note_on_c, 1, 57, 0
1, 10368, Note_on_c, 0, 74, 75
1, 10368, Note_on_c, 1, 62, 64
1, 10380, Note_on_c, 0, 74, 0
1, 10380, Note_on_c, 0, 73, 75
1, 10391, Note_on_c, 1, 62, 0
1, 10392, Note_on_c, 0, 73, 0
1, 10392, Note_on_c, 0, 74, 75
1, 10392, Note_on_c, 1, 69, 64
1, 10413, Note_on_c, 0, 74, 0
1, 10415, Note_on_c, 1, 69, 0
1, 10416, Note_on_c, 1, 66, 64
1, 10439, Note_on_c, 1, 66, 0
1, 10440, Note_on_c, 1, 69, 65
1, 10463, Note_on_c, 1, 69, 0
1, 10464, Note_on_c, 1, 62, 65
1, 10487, Note_on_c, 1, 62, 0
1, 10488, Note_on_c, 1, 69, 65
1, 10511, Note_on_c, 1, 69, 0
1, 10512, Note_on_c, 0, 76, 77
1, 10512, Note_on_c, 1, 61, 66
1, 10524, Note_on_c, 0, 76, 0
1, 10524, Note_on_c, 0, 74, 77
1, 10535, Note_on_c, 1, 61, 0
1, 10536, Note_on_c, 0, 74, 0
1, 10536, Note_on_c, 0, 76, 77
1, 10536, Note_on_c, 1, 69, 66
1, 10557, Note_on_c, 0, 76, 0
1, 10559, Note_on_c, 1, 69, 0
1, 10560, Note_on_c, 1, 64, 66
1, 10583, Note_on_c, 1, 64, 0
1, 10584, Note_on_c, 1, 69, 67
1, 10607, Note_on_c, 1, 69, 0
1, 10608, Note_on_c, 1, 61, 67
1, 10631, Note_on_c, 1, 61, 0
1, 10632, Note_on_c, 1, 69, 67
1, 10655, Note_on_c, 1, 69, 0
1, 10656, Note_on_c, 0, 78, 79
1, 10656, Note_on_c, 1, 62, 68
1, 10668, Note_on_c, 0, 78, 0
1, 10668, Note_on_c, 0, 76, 79
1, 10679, Note_on_c, 1, 62, 0
1, 10680, Note_on_c, 0, 76, 0
1, 10680, Note_on_c, 0, 78, 79
1, 10680, Note_on_c, 1, 69, 68
1, 10701, Note_on_c, 0, 78, 0
1, 10703, Note_on_c, 1, 69, 0
1, 10704, Note_on_c, 1, 66, 68
1, 10727, Note_on_c, 1, 66, 0
1, 10728, Note_on_c, 1, 69, 69
1, 10751, Note_on_c, 1, 69, 0
1, 10752, Note_on_c, 1, 62, 69
1, 10775, Note_on_c, 1, 62, 0
1, 10776, Note_on_c, 1, 69, 69
1, 10799, Note_on_c, 1, 69, 0
1, 10800, Note_on_c, 0, 86, 80
1, 10800, Note_on_c, 1, 59, 70
1, 10823, Note_on_c, 0, 86, 0
1, 10824, Note_on_c, 0, 85, 80
1, 10847, Note_on_c, 0, 85, 0
1, 10848, Note_on_c, 0, 83, 80
1, 10871, Note_on_c, 0, 83, 0
1, 10872, Note_on_c, 0, 81, 80
1, 10889, Note_on_c, 1, 59, 0
1, 10895, Note_on_c, 0, 81, 0
1, 10896, Note_on_c, 0, 80, 80
1, 10919, Note_on_c, 0, 80, 0
1, 10920, Note_on_c, 0, 78, 80
1, 10943, Note_on_c, 0, 78, 0
1, 10944, Note_on_c, 0, 76, 80
1, 10989, Note_on_c, 0, 76, 0
1, 10992, Note_on_c, 1, 64, 70
1, 10992, Note_on_c, 1, 61, 70
1, 11037, Note_on_c, 1, 64, 0
1, 11037, Note_on_c, 1, 61, 0
1, 11040, Note_on_c, 1, 62, 70
1, 11040, Note_on_c, 1, 59, 70
1, 11085, Note_on_c, 1, 62, 0
1, 11085, Note_on_c, 1, 59, 0
1, 11088, Note_on_c, 0, 85, 80
1, 11088, Note_on_c, 1, 61, 70
1, 11088, Note_on_c, 1, 57, 70
1, 11111, Note_on_c, 0, 85, 0
1, 11112, Note_on_c, 0, 83, 80
1, 11135, Note_on_c, 0, 83, 0
1, 11136, Note_on_c, 0, 81, 80
1, 11159, Note_on_c, 0, 81, 0
1, 11160, Note_on_c, 0, 80, 80
1, 11177, Note_on_c, 1, 61, 0
1, 11177, Note_on_c, 1, 57, 0
1, 11183, Note_on_c, 0, 80, 0
1, 11184, Note_on_c, 0, 78, 80
1, 11207, Note_on_c, 0, 78, 0
1, 11208, Note_on_c, 0, 76, 80
1, 11231, Note_on_c, 0, 76, 0
1, 11232, Note_on_c, 0, 74, 80
1, 11277, Note_on_c, 0, 74, 0
1, 11280, Note_on_c, 1, 62, 70
1, 11280, Note_on_c, 1, 59, 70
1, 11325, Note_on_c, 1, 62, 0
1, 11325, Note_on_c, 1, 59, 0
1, 11328, Note_on_c, 1, 61, 70
1, 11328, Note_on_c, 1, 57, 70
1, 11373, Note_on_c, 1, 61, 0
1, 11373, Note_on_c, 1, 57, 0
1, 11376, Note_on_c, 0, 83, 80
1, 11376, Note_on_c, 1, 59, 70
1, 11376, Note_on_c, 1, 56, 70
1, 11399, Note_on_c, 0, 83, 0
1, 11400, Note_on_c, 0, 81, 80
1, 11423, Note_on_c, 0, 81, 0
1, 11424, Note_on_c, 0, 80, 80
1, 11447, Note_on_c, 0, 80, 0
1, 11448, Note_on_c, 0, 78, 80
1, 11465, Note_on_c, 1, 59, 0
1, 11465, Note_on_c, 1, 56, 0
1, 11471, Note_on_c, 0, 78, 0
1, 11472, Note_on_c, 0, 76, 80
1, 11495, Note_on_c, 0, 76, 0
1, 11496, Note_on_c, 0, 74, 80
1, 11519, Note_on_c, 0, 74, 0
1, 11520, Note_on_c, 0, 73, 80
1, 11520, Note_on_c, 1, 57, 70
1, 11520, Note_on_c, 1, 45, 70
1, 11543, Note_on_c, 0, 73, 0
1, 11544, Note_on_c, 0, 76, 80
1, 11567, Note_on_c, 0, 76, 0
1, 11568, Note_on_c, 0, 74, 80
1, 11591, Note_on_c, 0, 74, 0
1, 11592, Note_on_c, 0, 73, 80
1, 11609, Note_on_c, 1, 57, 0
1, 11609, Note_on_c, 1, 45, 0
1, 11615, Note_on_c, 0, 73, 0
1, 11616, Note_on_c, 0, 71, 80
1, 11639, Note_on_c, 0, 71, 0
1, 11640, Note_on_c, 0, 69, 80
1, 11663, Note_on_c, 0, 69, 0
1, 11664, Note_on_c, 0, 78, 80
1, 11664, Note_on_c, 1, 50, 70
1, 11687, Note_on_c, 0, 78, 0
1, 11688, Note_on_c, 0, 76, 80
1, 11711, Note_on_c, 0, 76, 0
1, 11712, Note_on_c, 0, 74, 80
1, 11735, Note_on_c, 0, 74, 0
1, 11736, Note_on_c, 0, 73, 80
1, 11753, Note_on_c, 1, 50, 0
1, 11759, Note_on_c, 0, 73, 0
1, 11760, Note_on_c, 0, 71, 80
1, 11783, Note_on_c, 0, 71, 0
1, 11784, Note_on_c, 0, 69, 80
1, 11807, Note_on_c, 0, 69, 0
1, 11808, Note_on_c, 0, 69, 80
1, 11808, Note_on_c, 1, 52, 70
1, 11808, Note_on_c, 1, 40, 70
1, 11856, Note_on_c, 0, 69, 0
1, 11856, Note_on_c, 0, 68, 80
1, 11897, Note_on_c, 0, 68, 0
1, 11897, Note_on_c, 1, 52, 0
1, 11897, Note_on_c, 1, 40, 0
1, 11952, Note_on_c, 0, 76, 75
1, 11975, Note_on_c, 0, 76, 0
1, 11976, Note_on_c, 0, 73, 74
1, 11999, Note_on_c, 0, 73, 0
1, 12000, Note_on_c, 0, 69, 73
1, 12023, Note_on_c, 0, 69, 0
1, 12024, Note_on_c, 0, 64, 72
1, 12047, Note_on_c, 0, 64, 0
1, 12048, Note_on_c, 0, 68, 71
1, 12048, Note_on_c, 1, 62, 64
1, 12071, Note_on_c, 0, 68, 0
1, 12072, Note_on_c, 0, 64, 70
1, 12093, Note_on_c, 1, 62, 0
1, 12095, Note_on_c, 0, 64, 0
1, 12096, Note_on_c, 0, 69, 70
1, 12096, Note_on_c, 1, 61, 64
1, 12119, Note_on_c, 0, 69, 0
1, 12120, Note_on_c, 0, 64, 70
1, 12141, Note_on_c, 1, 61, 0
1, 12143, Note_on_c, 0, 64, 0
1, 12144, Note_on_c, 0, 71, 71
1, 12144, Note_on_c, 1, 59, 64
1, 12167, Note_on_c, 0, 71, 0
1, 12168, Note_on_c, 0, 64, 72
1, 12189, Note_on_c, 1, 59, 0
1, 12191, Note_on_c, 0, 64, 0
1, 12192, Note_on_c, 0, 73, 73
1, 12192, Note_on_c, 1, 57, 64
1, 12215, Note_on_c, 0, 73, 0
1, 12216, Note_on_c, 0, 64, 74
1, 12237, Note_on_c, 1, 57, 0
1, 12239, Note_on_c, 0, 64, 0
1, 12240, Note_on_c, 0, 76, 70
1, 12263, Note_on_c, 0, 76, 0
1, 12264, Note_on_c, 0, 72, 69
1, 12287, Note_on_c, 0, 72, 0
1, 12288, Note_on_c, 0, 69, 68
1, 12311, Note_on_c, 0, 69, 0
1, 12312, Note_on_c, 0, 64, 67
1, 12335, Note_on_c, 0, 64, 0
1, 12336, Note_on_c, 0, 68, 66
1, 12336, Note_on_c, 1, 62, 64
1, 12359, Note_on_c, 0, 68, 0
1, 12360, Note_on_c, 0, 64, 65
1, 12381, Note_on_c, 1, 62, 0
1, 12383, Note_on_c, 0, 64, 0
1, 12384, Note_on_c, 0, 69, 64
1, 12384, Note_on_c, 1, 60, 64
1, 12407, Note_on_c, 0, 69, 0
1, 12408, Note_on_c, 0, 64, 65
1, 12429, Note_on_c, 1, 60, 0
1, 12431, Note_on_c, 0, 64, 0
1, 12432, Note_on_c, 0, 71, 66
1, 12432, Note_on_c, 1, 59, 64
1, 12455, Note_on_c, 0, 71, 0
1, 12456, Note_on_c, 0, 64, 67
1, 12477, Note_on_c, 1, 59, 0
1, 12479, Note_on_c, 0, 64, 0
1, 12480, Note_on_c, 0, 72, 68
1, 12480, Note_on_c, 1, 57, 64
1, 12503, Note_on_c, 0, 72, 0
1, 12504, Note_on_c, 0, 64, 69
1, 12525, Note_on_c, 1, 57, 0
1, 12527, Note_on_c, 0, 64, 0
1, 12528, Note_on_c, 0, 76, 75
1, 12551, Note_on_c, 0, 76, 0
1, 12552, Note_on_c, 0, 73, 74
1, 12575, Note_on_c, 0, 73, 0
1, 12576, Note_on_c, 0, 69, 73
1, 12599, Note_on_c, 0, 69, 0
1, 12600, Note_on_c, 0, 64, 72
1, 12623, Note_on_c, 0, 64, 0
1, 12624, Note_on_c, 0, 68, 71
1, 12624, Note_on_c, 1, 62, 64
1, 12647, Note_on_c, 0, 68, 0
1, 12648, Note_on_c, 0, 64, 70
1, 12669, Note_on_c, 1, 62, 0
1, 12671, Note_on_c, 0, 64, 0
1, 12672, Note_on_c, 0, 69, 70
1, 12672, Note_on_c, 1, 61, 64
1, 12695, Note_on_c, 0, 69, 0
1, 12696, Note_on_c, 0, 64, 70
1, 12717, Note_on_c, 1, 61, 0
1, 12719, Note_on_c, 0, 64, 0
1, 12720, Note_on_c, 0, 71, 71
1, 12720, Note_on_c, 1, 59, 64
1, 12743, Note_on_c, 0, 71, 0
1, 12744, Note_on_c, 0, 64, 72
1, 12765, Note_on_c, 1, 59, 0
1, 12767, Note_on_c, 0, 64, 0
1, 12768, Note_on_c, 0, 73, 73
1, 12768, Note_on_c, 1, 57, 64
1, 12791, Note_on_c, 0, 73, 0
1, 12792, Note_on_c, 0, 64, 74
1, 12813, Note_on_c, 1, 57, 0
1, 12815, Note_on_c, 0, 64, 0
1, 12816, Note_on_c, 0, 76, 75
1, 12839, Note_on_c, 0, 76, 0
1, 12840, Note_on_c, 0, 74, 75
1, 12863, Note_on_c, 0, 74, 0
1, 12864, Note_on_c, 0, 73, 75
1, 12887, Note_on_c, 0, 73, 0
1, 12888, Note_on_c, 0, 71, 75
1, 12911, Note_on_c, 0, 71, 0
1, 12912, Note_on_c, 0, 69, 75
1, 12935, Note_on_c, 0, 69, 0
1, 12936, Note_on_c, 0, 67, 75
1, 12959, Note_on_c, 0, 67, 0
1, 12960, Note_on_c, 0, 66, 75
1, 13005, Note_on_c, 0, 66, 0
1, 13008, Note_on_c, 0, 78, 76
1, 13008, Note_on_c, 1, 57, 75
1, 13008, Note_on_c, 1, 50, 75
1, 13053, Note_on_c, 0, 78, 0
1, 13055, Note_on_c, 1, 57, 0
1, 13055, Note_on_c, 1, 50, 0
1, 13056, Note_on_c, 0, 78, 77
1, 13056, Note_on_c, 1, 57, 75
1, 13056, Note_on_c, 1, 50, 75
1, 13101, Note_on_c, 0, 78, 0
1, 13103, Note_on_c, 1, 57, 0
1, 13103, Note_on_c, 1, 50, 0
1, 13104, Note_on_c, 0, 78, 79
1, 13104, Note_on_c, 1, 57, 75
1, 13104, Note_on_c, 1, 50, 75
1, 13127, Note_on_c, 0, 78, 0
1, 13128, Note_on_c, 0, 81, 80
1, 13151, Note_on_c, 0, 81, 0
1, 13152, Note_on_c, 0, 80, 80
1, 13175, Note_on_c, 0, 80, 0
1, 13176, Note_on_c, 0, 78, 80
1, 13193, Note_on_c, 1, 57, 0
1, 13193, Note_on_c, 1, 50, 0
1, 13199, Note_on_c, 0, 78, 0
1, 13200, Note_on_c, 0, 76, 80
1, 13223, Note_on_c, 0, 76, 0
1, 13224, Note_on_c, 0, 74, 80
1, 13247, Note_on_c, 0, 74, 0
1, 13248, Note_on_c, 0, 73, 80
1, 13248, Note_on_c, 1, 57, 75
1, 13248, Note_on_c, 1, 52, 75
1, 13271, Note_on_c, 0, 73, 0
1, 13272, Note_on_c, 0, 76, 80
1, 13295, Note_on_c, 0, 76, 0
1, 13296, Note_on_c, 0, 74, 80
1, 13319, Note_on_c, 0, 74, 0
1, 13320, Note_on_c, 0, 73, 80
1, 13337, Note_on_c, 1, 57, 0
1, 13337, Note_on_c, 1, 52, 0
1, 13343, Note_on_c, 0, 73, 0
1, 13344, Note_on_c, 0, 71, 80
1, 13367, Note_on_c, 0, 71, 0
1, 13368, Note_on_c, 0, 69, 80
1, 13391, Note_on_c, 0, 69, 0
1, 13392, Note_on_c, 0, 73, 80
1, 13392, Note_on_c, 1, 52, 75
1, 13406, Note_on_c, 0, 73, 0
1, 13407, Note_on_c, 0, 71, 80
1, 13421, Note_on_c, 0, 71, 0
1, 13422, Note_on_c, 0, 73, 80
1, 13436, Note_on_c, 0, 73, 0
1, 13437, Note_on_c, 0, 71, 80
1, 13437, Note_on_c, 1, 52, 0
1, 13440, Note_on_c, 1, 52, 75
1, 13451, Note_on_c, 0, 71, 0
1, 13452, Note_on_c, 0, 73, 80
1, 13465, Note_on_c, 0, 73, 0
1, 13466, Note_on_c, 0, 71, 80
1, 13479, Note_on_c, 0, 71, 0
1, 13480, Note_on_c, 0, 73, 80
1, 13485, Note_on_c, 1, 52, 0
1, 13488, Note_on_c, 1, 52, 75
1, 13493, Note_on_c, 0, 73, 0
1, 13494, Note_on_c, 0, 71, 80
1, 13507, Note_on_c, 0, 71, 0
1, 13508, Note_on_c, 0, 69, 80
1, 13521, Note_on_c, 0, 69, 0
1, 13522, Note_on_c, 0, 71, 80
1, 13533, Note_on_c, 1, 52, 0
1, 13535, Note_on_c, 0, 71, 0
1, 13536, Note_on_c, 0, 69, 80
1, 13536, Note_on_c, 1, 57, 75
1, 13581, Note_on_c, 0, 69, 0
1, 13581, Note_on_c, 1, 57, 0
1, 13584, Note_on_c, 0, 76, 80
1, 13607, Note_on_c, 0, 76, 0
1, 13608, Note_on_c, 0, 73, 80
1, 13631, Note_on_c, 0, 73, 0
1, 13632, Note_on_c, 0, 74, 80
1, 13632, Note_on_c, 1, 52, 75
1, 13655, Note_on_c, 0, 74, 0
1, 13656, Note_on_c, 0, 71, 80
1, 13677, Note_on_c, 1, 52, 0
1, 13679, Note_on_c, 0, 71, 0
1, 13680, Note_on_c, 0, 69, 80
1, 13680, Note_on_c, 1, 45, 75
1, 13725, Note_on_c, 0, 69, 0
1, 13725, Note_on_c, 1, 45, 0
1, 13728, Note_on_c, 0, 76, 80
1, 13751, Note_on_c, 0, 76, 0
1, 13752, Note_on_c, 0, 73, 80
1, 13775, Note_on_c, 0, 73, 0
1, 13776, Note_on_c, 0, 74, 80
1, 13776, Note_on_c, 1, 52, 75
1, 13799, Note_on_c, 0, 74, 0
1, 13800, Note_on_c, 0, 71, 80
1, 13821, Note_on_c, 1, 52, 0
1, 13823, Note_on_c, 0, 71, 0
1, 13824, Note_on_c, 0, 69, 80
1, 13824, Note_on_c, 1, 45, 75
1, 13913, Note_on_c, 0, 69, 0
1, 13913, Note_on_c, 1, 45, 0
1, 13968, Note_on_c, 0, 64, 75
1, 13968, Note_on_c, 1, 52, 75
1, 13968, Note_on_c, 1, 40, 75
1, 14013, Note_on_c, 0, 64, 0
1, 14016, Note_on_c, 0, 68, 75
1, 14039, Note_on_c, 0, 68, 0
1, 14040, Note_on_c, 0, 64, 75
1, 14063, Note_on_c, 0, 64, 0
1, 14064, Note_on_c, 0, 71, 75
1, 14087, Note_on_c, 0, 71, 0
1, 14088, Note_on_c, 0, 68, 75
1, 14101, Note_on_c, 1, 52, 0
1, 14111, Note_on_c, 0, 68, 0
1, 14112, Note_on_c, 0, 66, 75
1, 14112, Note_on_c, 1, 51, 75
1, 14157, Note_on_c, 0, 66, 0
1, 14160, Note_on_c, 0, 69, 75
1, 14183, Note_on_c, 0, 69, 0
1, 14184, Note_on_c, 0, 66, 75
1, 14207, Note_on_c, 0, 66, 0
1, 14208, Note_on_c, 0, 73, 75
1, 14231, Note_on_c, 0, 73, 0
1, 14232, Note_on_c, 0, 69, 75
1, 14245, Note_on_c, 1, 51, 0
1, 14255, Note_on_c, 0, 69, 0
1, 14256, Note_on_c, 0, 68, 75
1, 14256, Note_on_c, 1, 50, 75
1, 14301, Note_on_c, 0, 68, 0
1, 14304, Note_on_c, 0, 71, 75
1, 14327, Note_on_c, 0, 71, 0
1, 14328, Note_on_c, 0, 68, 75
1, 14351, Note_on_c, 0, 68, 0
1, 14352, Note_on_c, 0, 74, 75
1, 14375, Note_on_c, 0, 74, 0
1, 14376, Note_on_c, 0, 71, 75
1, 14389, Note_on_c, 1, 50, 0
1, 14399, Note_on_c, 0, 71, 0
1, 14400, Note_on_c, 0, 69, 75
1, 14400, Note_on_c, 1, 49, 75
1, 14445, Note_on_c, 0, 69, 0
1, 14448, Note_on_c, 0, 73, 75
1, 14471, Note_on_c, 0, 73, 0
1, 14472, Note_on_c, 0, 69, 76
1, 14495, Note_on_c, 0, 69, 0
1, 14496, Note_on_c, 0, 76, 77
1, 14519, Note_on_c, 0, 76, 0
1, 14520, Note_on_c, 0, 73, 78
1, 14533, Note_on_c, 1, 49, 0
1, 14533, Note_on_c, 1, 40, 0
1, 14543, Note_on_c, 0, 73, 0
1, 14544, Note_on_c, 0, 71, 80
1, 14544, Note_on_c, 1, 56, 80
1, 14544, Note_on_c, 1, 52, 80
1, 14567, Note_on_c, 0, 71, 0
1, 14568, Note_on_c, 0, 64, 80
1, 14589, Note_on_c, 1, 56, 0
1, 14591, Note_on_c, 0, 64, 0
1, 14592, Note_on_c, 0, 74, 80
1, 14592, Note_on_c, 1, 59, 80
1, 14615, Note_on_c, 0, 74, 0
1, 14616, Note_on_c, 0, 64, 80
1, 14637, Note_on_c, 1, 59, 0
1, 14639, Note_on_c, 0, 64, 0
1, 14640, Note_on_c, 0, 73, 80
1, 14640, Note_on_c, 1, 57, 80
1, 14663, Note_on_c, 0, 73, 0
1, 14664, Note_on_c, 0, 64, 80
1, 14677, Note_on_c, 1, 52, 0
1, 14685, Note_on_c, 1, 57, 0
1, 14687, Note_on_c, 0, 64, 0
1, 14688, Note_on_c, 0, 71, 80
1, 14688, Note_on_c, 1, 56, 80
1, 14688, Note_on_c, 1, 52, 80
1, 14711, Note_on_c, 0, 71, 0
1, 14712, Note_on_c, 0, 64, 80
1, 14733, Note_on_c, 1, 56, 0
1, 14735, Note_on_c, 0, 64, 0
1, 14736, Note_on_c, 0, 74, 80
1, 14736, Note_on_c, 1, 59, 80
1, 14759, Note_on_c, 0, 74, 0
1, 14760, Note_on_c, 0, 64, 80
1, 14781, Note_on_c, 1, 59, 0
1, 14783, Note_on_c, 0, 64, 0
1, 14784, Note_on_c, 0, 73, 80
1, 14784, Note_on_c, 1, 57, 80
1, 14807, Note_on_c, 0, 73, 0
1, 14808, Note_on_c, 0, 64, 80
1, 14821, Note_on_c, 1, 52, 0
1, 14829, Note_on_c, 1, 57, 0
1, 14831, Note_on_c, 0, 64, 0
1, 14832, Note_on_c, 0, 71, 80
1, 14832, Note_on_c, 1, 56, 80
1, 14832, Note_on_c, 1, 52, 80
1, 14844, Note_on_c, 0, 71, 0
1, 14844, Note_on_c, 0, 73, 80
1, 14856, Note_on_c, 0, 73, 0
1, 14856, Note_on_c, 0, 71, 80
1, 14921, Note_on_c, 0, 71, 0
1, 14921, Note_on_c, 1, 56, 0
1, 14921, Note_on_c, 1, 52, 0
1, 14976, Note_on_c, 0, 69, 75
1, 14976, Note_on_c, 1, 57, 64
1, 14988, Note_on_c, 0, 69, 0
1, 14988, Note_on_c, 0, 68, 75
1, 14999, Note_on_c, 1, 57, 0
1, 15000, Note_on_c, 0, 68, 0
1, 15000, Note_on_c, 0, 69, 75
1, 15000, Note_on_c, 1, 64, 64
1, 15021, Note_on_c, 0, 69, 0
1, 15023, Note_on_c, 1, 64, 0
1, 15024, Note_on_c, 1, 61, 64
1, 15047, Note_on_c, 1, 61, 0
1, 15048, Note_on_c, 1, 64, 64
1, 15071, Note_on_c, 1, 64, 0
1, 15072, Note_on_c, 1, 57, 64
1, 15095, Note_on_c, 1, 57, 0
1, 15096, Note_on_c, 1, 64, 64
1, 15119, Note_on_c, 1, 64, 0
1, 15120, Note_on_c, 0, 71, 75
1, 15120, Note_on_c, 1, 56, 64
1, 15132, Note_on_c, 0, 71, 0
1, 15132, Note_on_c, 0, 69, 75
1, 15143, Note_on_c, 1, 56, 0
1, 15144, Note_on_c, 0, 69, 0
1, 15144, Note_on_c, 0, 71, 75
1, 15144, Note_on_c, 1, 64, 64
1, 15165, Note_on_c, 0, 71, 0
1, 15167, Note_on_c, 1, 64, 0
1, 15168, Note_on_c, 1, 59, 64
1, 15191, Note_on_c, 1, 59, 0
1, 15192, Note_on_c, 1, 64, 64
1, 15215, Note_on_c, 1, 64, 0
1, 15216, Note_on_c, 1, 56, 64
1, 15239, Note_on_c, 1, 56, 0
1, 15240, Note_on_c, 1, 64, 64
1, 15263, Note_on_c, 1, 64, 0
1, 15264, Note_on_c, 0, 73, 75
1, 15264, Note_on_c, 1, 57, 64
1, 15276, Note_on_c, 0, 73, 0
1, 15276, Note_on_c, 0, 71, 75
1, 15287, Note_on_c, 1, 57, 0
1, 15288, Note_on_c, 0, 71, 0
1, 15288, Note_on_c, 0, 73, 75
1, 15288, Note_on_c, 1, 64, 64
1, 15309, Note_on_c, 0, 73, 0
1, 15311, Note_on_c, 1, 64, 0
1, 15312, Note_on_c, 1, 61, 64
1, 15335, Note_on_c, 1, 61, 0
1, 15336, Note_on_c, 1, 64, 64
1, 15359, Note_on_c, 1, 64, 0
1, 15360, Note_on_c, 1, 57, 64
1, 15383, Note_on_c, 1, 57, 0
1, 15384, Note_on_c, 1, 64, 64
1, 15407, Note_on_c, 1, 64, 0
1, 15408, Note_on_c, 0, 74, 75
1, 15408, Note_on_c, 1, 56, 64
1, 15420, Note_on_c, 0, 74, 0
1, 15420, Note_on_c, 0, 73, 75
1, 15431, Note_on_c, 1, 56, 0
1, 15432, Note_on_c, 0, 73, 0
1, 15432, Note_on_c, 0, 74, 75
1, 15432, Note_on_c, 1, 64, 64
1, 15453, Note_on_c, 0, 74, 0
1, 15455, Note_on_c, 1, 64, 0
1, 15456, Note_on_c, 1, 59, 64
1, 15479, Note_on_c, 1, 59, 0
1, 15480, Note_on_c, 1, 64, 64
1, 15503, Note_on_c, 1, 64, 0
1, 15504, Note_on_c, 1, 56, 64
1, 15527, Note_on_c, 1, 56, 0
1, 15528, Note_on_c, 1, 64, 64
1, 15551, Note_on_c, 1, 64, 0
1, 15552, Note_on_c, 0, 74, 75
1, 15552, Note_on_c, 1, 57, 64
1, 15575, Note_on_c, 0, 74, 0
1, 15576, Note_on_c, 0, 73, 75
1, 15599, Note_on_c, 0, 73, 0
1, 15600, Note_on_c, 0, 71, 75
1, 15623, Note_on_c, 0, 71, 0
1, 15624, Note_on_c, 0, 69, 75
1, 15641, Note_on_c, 1, 57, 0
1, 15647, Note_on_c, 0, 69, 0
1, 15648, Note_on_c, 0, 68, 75
1, 15671, Note_on_c, 0, 68, 0
1, 15672, Note_on_c, 0, 66, 75
1, 15695, Note_on_c, 0, 66, 0
1, 15696, Note_on_c, 0, 64, 75
1, 15696, Note_on_c, 1, 61, 64
1, 15696, Note_on_c, 1, 52, 64
1, 15743, Note_on_c, 1, 61, 0
1, 15743, Note_on_c, 1, 52, 0
1, 15744, Note_on_c, 1, 61, 64
1, 15744, Note_on_c, 1, 52, 64
1, 15785, Note_on_c, 0, 64, 0
1, 15791, Note_on_c, 1, 61, 0
1, 15791, Note_on_c, 1, 52, 0
1, 15792, Note_on_c, 0, 62, 75
1, 15792, Note_on_c, 1, 59, 64
1, 15792, Note_on_c, 1, 52, 64
1, 15804, Note_on_c, 0, 62, 0
1, 15804, Note_on_c, 0, 64, 75
1, 15816, Note_on_c, 0, 64, 0
1, 15816, Note_on_c, 0, 62, 75
1, 15837, Note_on_c, 0, 62, 0
1, 15839, Note_on_c, 1, 59, 0
1, 15839, Note_on_c, 1, 52, 0
1, 15840, Note_on_c, 0, 61, 75
1, 15840, Note_on_c, 1, 57, 64
1, 15885, Note_on_c, 0, 61, 0
1, 15888, Note_on_c, 0, 68, 75
1, 15900, Note_on_c, 0, 68, 0
1, 15900, Note_on_c, 0, 69, 75
1, 15929, Note_on_c, 1, 57, 0
1, 15934, Note_on_c, 0, 69, 0
1, 15936, Note_on_c, 0, 68, 75
1, 15948, Note_on_c, 0, 68, 0
1, 15948, Note_on_c, 0, 69, 75
1, 15982, Note_on_c, 0, 69, 0
1, 15984, Note_on_c, 0, 64, 75
1, 15984, Note_on_c, 1, 61, 64
1, 15984, Note_on_c, 1, 52, 64
1, 16031, Note_on_c, 1, 61, 0
1, 16031, Note_on_c, 1, 52, 0
1, 16032, Note_on_c, 1, 61, 64
1, 16032, Note_on_c, 1, 52, 64
1, 16073, Note_on_c, 0, 64, 0
1, 16079, Note_on_c, 1, 61, 0
1, 16079, Note_on_c, 1, 52, 0
1, 16080, Note_on_c, 0, 62, 75
1, 16080, Note_on_c, 1, 59, 64
1, 16080, Note_on_c, 1, 52, 64
1, 16092, Note_on_c, 0, 62, 0
1, 16092, Note_on_c, 0, 64, 75
1, 16104, Note_on_c, 0, 64, 0
1, 16104, Note_on_c, 0, 62, 75
1, 16125, Note_on_c, 0, 62, 0
1, 16127, Note_on_c, 1, 59, 0
1, 16127, Note_on_c, 1, 52, 0
1, 16128, Note_on_c, 0, 61, 75
1, 16128, Note_on_c, 1, 57, 64
1, 16217, Note_on_c, 0, 61, 0
1, 16217, Note_on_c, 1, 57, 0
1, 16272, Note_on_c, 0, 74, 75
1, 16272, Note_on_c, 1, 62, 64
1, 16284, Note_on_c, 0, 74, 0
1, 16284, Note_on_c, 0, 73, 75
1, 16295, Note_on_c, 1, 62, 0
1, 16296, Note_on_c, 0, 73, 0
1, 16296, Note_on_c, 0, 74, 75
1, 16296, Note_on_c, 1, 69, 64
1, 16317, Note_on_c, 0, 74, 0
1, 16319, Note_on_c, 1, 69, 0
1, 16320, Note_on_c, 1, 66, 64
1, 16343, Note_on_c, 1, 66, 0
1, 16344, Note_on_c, 1, 69, 65
1, 16367, Note_on_c, 1, 69, 0
1, 16368, Note_on_c, 1, 62, 65
1, 16391, Note_on_c, 1, 62, 0
1, 16392, Note_on_c, 1, 69, 65
1, 16415, Note_on_c, 1, 69, 0
1, 16416, Note_on_c, 0, 76, 77
1, 16416, Note_on_c, 1, 61, 66
1, 16428, Note_on_c, 0, 76, 0
1, 16428, Note_on_c, 0, 74, 77
1, 16439, Note_on_c, 1, 61, 0
1, 16440, Note_on_c, 0, 74, 0
1, 16440, Note_on_c, 0, 76, 77
1, 16440, Note_on_c, 1, 69, 66
1, 16461, Note_on_c, 0, 76, 0
1, 16463, Note_on_c, 1, 69, 0
1, 16464, Note_on_c, 1, 64, 66
1, 16487, Note_on_c, 1, 64, 0
1, 16488, Note_on_c, 1, 69, 67
1, 16511, Note_on_c, 1, 69, 0
1, 16512, Note_on_c, 1, 61, 67
1, 16535, Note_on_c, 1, 61, 0
1, 16536, Note_on_c, 1, 69, 67
1, 16559, Note_on_c, 1, 69, 0
1, 16560, Note_on_c, 0, 78, 79
1, 16560, Note_on_c, 1, 62, 68
1, 16572, Note_on_c, 0, 78, 0
1, 16572, Note_on_c, 0, 76, 79
1, 16583, Note_on_c, 1, 62, 0
1, 16584, Note_on_c, 0, 76, 0
1, 16584, Note_on_c, 0, 78, 79
1, 16584, Note_on_c, 1, 69, 68
1, 16605, Note_on_c, 0, 78, 0
1, 16607, Note_on_c, 1, 69, 0
1, 16608, Note_on_c, 1, 66, 68
1, 16631, Note_on_c, 1, 66, 0
1, 16632, Note_on_c, 1, 69, 69
1, 16655, Note_on_c, 1, 69, 0
1, 16656, Note_on_c, 1, 62, 69
1, 16679, Note_on_c, 1, 62, 0
1, 16680, Note_on_c, 1, 69, 69
1, 16703, Note_on_c, 1, 69, 0
1, 16704, Note_on_c, 0, 86, 80
1, 16704, Note_on_c, 1, 59, 70
1, 16727, Note_on_c, 0, 86, 0
1, 16728, Note_on_c, 0, 85, 80
1, 16751, Note_on_c, 0, 85, 0
1, 16752, Note_on_c, 0, 83, 80
1, 16775, Note_on_c, 0, 83, 0
1, 16776, Note_on_c, 0, 81, 80
1, 16793, Note_on_c, 1, 59, 0
1, 16799, Note_on_c, 0, 81, 0
1, 16800, Note_on_c, 0, 80, 80
1, 16823, Note_on_c, 0, 80, 0
1, 16824, Note_on_c, 0, 78, 80
1, 16847, Note_on_c, 0, 78, 0
1, 16848, Note_on_c, 0, 76, 80
1, 16893, Note_on_c, 0, 76, 0
1, 16896, Note_on_c, 1, 64, 70
1, 16896, Note_on_c, 1, 61, 70
1, 16941, Note_on_c, 1, 64, 0
1, 16941, Note_on_c, 1, 61, 0
1, 16944, Note_on_c, 1, 62, 70
1, 16944, Note_on_c, 1, 59, 70
1, 16989, Note_on_c, 1, 62, 0
1, 16989, Note_on_c, 1, 59, 0
1, 16992, Note_on_c, 0, 85, 80
1, 16992, Note_on_c, 1, 61, 70
1, 16992, Note_on_c, 1, 57, 70
1, 17015, Note_on_c, 0, 85, 0
1, 17016, Note_on_c, 0, 83, 80
1, 17039, Note_on_c, 0, 83, 0
1, 17040, Note_on_c, 0, 81, 80
1, 17063, Note_on_c, 0, 81, 0
1, 17064, Note_on_c, 0, 80, 80
1, 17081, Note_on_c, 1, 61, 0
1, 17081, Note_on_c, 1, 57, 0
1, 17087, Note_on_c, 0, 80, 0
1, 17088, Note_on_c, 0, 78, 80
1, 17111, Note_on_c, 0, 78, 0
1, 17112, Note_on_c, 0, 76, 80
1, 17135, Note_on_c, 0, 76, 0
1, 17136, Note_on_c, 0, 74, 80
1, 17181, Note_on_c, 0, 74, 0
1, 17184, Note_on_c, 1, 62, 70
1, 17184, Note_on_c, 1, 59, 70
1, 17229, Note_on_c, 1, 62, 0
1, 17229, Note_on_c, 1, 59, 0
1, 17232, Note_on_c, 1, 61, 70
1, 17232, Note_on_c, 1, 57, 70
1, 17277, Note_on_c, 1, 61, 0
1, 17277, Note_on_c, 1, 57, 0
1, 17280, Note_on_c, 0, 83, 80
1, 17280, Note_on_c, 1, 59, 70
1, 17280, Note_on_c, 1, 56, 70
1, 17303, Note_on_c, 0, 83, 0
1, 17304, Note_on_c, 0, 81, 80
1, 17327, Note_on_c, 0, 81, 0
1, 17328, Note_on_c, 0, 80, 80
1, 17351, Note_on_c, 0, 80, 0
1, 17352, Note_on_c, 0, 78, 80
1, 17369, Note_on_c, 1, 59, 0
1, 17369, Note_on_c, 1, 56, 0
1, 17375, Note_on_c, 0, 78, 0
1, 17376, Note_on_c, 0, 76, 80
1, 17399, Note_on_c, 0, 76, 0
1, 17400, Note_on_c, 0, 74, 80
1, 17423, Note_on_c, 0, 74, 0
1, 17424, Note_on_c, 0, 73, 80
1, 17424, Note_on_c, 1, 57, 70
1, 17424, Note_on_c, 1, 45, 70
1, 17447, Note_on_c, 0, 73, 0
1, 17448, Note_on_c, 0, 76, 80
1, 17471, Note_on_c, 0, 76, 0
1, 17472, Note_on_c, 0, 74, 80
1, 17495, Note_on_c, 0, 74, 0
1, 17496, Note_on_c, 0, 73, 80
1, 17513, Note_on_c, 1, 57, 0
1, 17513, Note_on_c, 1, 45, 0
1, 17519, Note_on_c, 0, 73, 0
1, 17520, Note_on_c, 0, 71, 80
1, 17543, Note_on_c, 0, 71, 0
1, 17544, Note_on_c, 0, 69, 80
1, 17567, Note_on_c, 0, 69, 0
1, 17568, Note_on_c, 0, 78, 80
1, 17568, Note_on_c, 1, 50, 70
1, 17591, Note_on_c, 0, 78, 0
1, 17592, Note_on_c, 0, 76, 80
1, 17615, Note_on_c, 0, 76, 0
1, 17616, Note_on_c, 0, 74, 80
1, 17639, Note_on_c, 0, 74, 0
1, 17640, Note_on_c, 0, 73, 80
1, 17657, Note_on_c, 1, 50, 0
1, 17663, Note_on_c, 0, 73, 0
1, 17664, Note_on_c, 0, 71, 80
1, 17687, Note_on_c, 0, 71, 0
1, 17688, Note_on_c, 0, 69, 80
1, 17711, Note_on_c, 0, 69, 0
1, 17712, Note_on_c, 0, 69, 80
1, 17712, Note_on_c, 1, 52, 70
1, 17712, Note_on_c, 1, 40, 70
1, 17760, Note_on_c, 0, 69, 0
1, 17760, Note_on_c, 0, 68, 80
1, 17801, Note_on_c, 0, 68, 0
1, 17801, Note_on_c, 1, 52, 0
1, 17801, Note_on_c, 1, 40, 0
1, 17856, Note_on_c, 0, 76, 75
1, 17879, Note_on_c, 0, 76, 0
1, 17880, Note_on_c, 0, 73, 74
1, 17903, Note_on_c, 0, 73, 0
1, 17904, Note_on_c, 0, 69, 73
1, 17927, Note_on_c, 0, 69, 0
1, 17928, Note_on_c, 0, 64, 72
1, 17951, Note_on_c, 0, 64, 0
1, 17952, Note_on_c, 0, 68, 71
1, 17952, Note_on_c, 1, 62, 64
1, 17975, Note_on_c, 0, 68, 0
1, 17976, Note_on_c, 0, 64, 70
1, 17997, Note_on_c, 1, 62, 0
1, 17999, Note_on_c, 0, 64, 0
1, 18000, Note_on_c, 0, 69, 70
1, 18000, Note_on_c, 1, 61, 64
1, 18023, Note_on_c, 0, 69, 0
1, 18024, Note_on_c, 0, 64, 70
1, 18045, Note_on_c, 1, 61, 0
1, 18047, Note_on_c, 0, 64, 0
1, 18048, Note_on_c, 0, 71, 71
1, 18048, Note_on_c, 1, 59, 64
1, 18071, Note_on_c, 0, 71, 0
1, 18072, Note_on_c, 0, 64, 72
1, 18093, Note_on_c, 1, 59, 0
1, 18095, Note_on_c, 0, 64, 0
1, 18096, Note_on_c, 0, 73, 73
1, 18096, Note_on_c, 1, 57, 64
1, 18119, Note_on_c, 0, 73, 0
1, 18120, Note_on_c, 0, 64, 74
1, 18141, Note_on_c, 1, 57, 0
1, 18143, Note_on_c, 0, 64, 0
1, 18144, Note_on_c, 0, 76, 70
1, 18167, Note_on_c, 0, 76, 0
1, 18168, Note_on_c, 0, 72, 69
1, 18191, Note_on_c, 0, 72, 0
1, 18192, Note_on_c, 0, 69, 68
1, 18215, Note_on_c, 0, 69, 0
1, 18216, Note_on_c, 0, 64, 67
1, 18239, Note_on_c, 0, 64, 0
1, 18240, Note_on_c, 0, 68, 66
1, 18240, Note_on_c, 1, 62, 64
1, 18263, Note_on_c, 0, 68, 0
1, 18264, Note_on_c, 0, 64, 65
1, 18285, Note_on_c, 1, 62, 0
1, 18287, Note_on_c, 0, 64, 0
1, 18288, Note_on_c, 0, 69, 64
1, 18288, Note_on_c, 1, 60, 64
1, 18311, Note_on_c, 0, 69, 0
1, 18312, Note_on_c, 0, 64, 65
1, 18333, Note_on_c, 1, 60, 0
1, 18335, Note_on_c, 0, 64, 0
1, 18336, Note_on_c, 0, 71, 66
1, 18336, Note_on_c, 1, 59, 64
1, 18359, Note_on_c, 0, 71, 0
1, 18360, Note_on_c, 0, 64, 67
1, 18381, Note_on_c, 1, 59, 0
1, 18383, Note_on_c, 0, 64, 0
1, 18384, Note_on_c, 0, 72, 68
1, 18384, Note_on_c, 1, 57, 64
1, 18407, Note_on_c, 0, 72, 0
1, 18408, Note_on_c, 0, 64, 69
1, 18429, Note_on_c, 1, 57, 0
1, 18431, Note_on_c, 0, 64, 0
1, 18432, Note_on_c, 0, 76, 75
1, 18455, Note_on_c, 0, 76, 0
1, 18456, Note_on_c, 0, 73, 74
1, 18479, Note_on_c, 0, 73, 0
1, 18480, Note_on_c, 0, 69, 73
1, 18503, Note_on_c, 0, 69, 0
1, 18504, Note_on_c, 0, 64, 72
1, 18527, Note_on_c, 0, 64, 0
1, 18528, Note_on_c, 0, 68, 71
1, 18528, Note_on_c, 1, 62, 64
1, 18551, Note_on_c, 0, 68, 0
1, 18552, Note_on_c, 0, 64, 70
1, 18573, Note_on_c, 1, 62, 0
1, 18575, Note_on_c, 0, 64, 0
1, 18576, Note_on_c, 0, 69, 70
1, 18576, Note_on_c, 1, 61, 64
1, 18599, Note_on_c, 0, 69, 0
1, 18600, Note_on_c, 0, 64, 70
1, 18621, Note_on_c, 1, 61, 0
1, 18623, Note_on_c, 0, 64, 0
1, 18624, Note_on_c, 0, 71, 71
1, 18624, Note_on_c, 1, 59, 64
1, 18647, Note_on_c, 0, 71, 0
1, 18648, Note_on_c, 0, 64, 72
1, 18669, Note_on_c, 1, 59, 0
1, 18671, Note_on_c, 0, 64, 0
1, 18672, Note_on_c, 0, 73, 73
1, 18672, Note_on_c, 1, 57, 64
1, 18695, Note_on_c, 0, 73, 0
1, 18696, Note_on_c, 0, 64, 74
1, 18717, Note_on_c, 1, 57, 0
1, 18719, Note_on_c, 0, 64, 0
1, 18720, Note_on_c, 0, 76, 75
1, 18743, Note_on_c, 0, 76, 0
1, 18744, Note_on_c, 0, 74, 75
1, 18767, Note_on_c, 0, 74, 0
1, 18768, Note_on_c, 0, 73, 75
1, 18791, Note_on_c, 0, 73, 0
1, 18792, Note_on_c, 0, 71, 75
1, 18815, Note_on_c, 0, 71, 0
1, 18816, Note_on_c, 0, 69, 75
1, 18839, Note_on_c, 0, 69, 0
1, 18840, Note_on_c, 0, 67, 75
1, 18863, Note_on_c, 0, 67, 0
1, 18864, Note_on_c, 0, 66, 75
1, 18909, Note_on_c, 0, 66, 0
1, 18912, Note_on_c, 0, 78, 76
1, 18912, Note_on_c, 1, 57, 75
1, 18912, Note_on_c, 1, 50, 75
1, 18957, Note_on_c, 0, 78, 0
1, 18959, Note_on_c, 1, 57, 0
1, 18959, Note_on_c, 1, 50, 0
1, 18960, Note_on_c, 0, 78, 77
1, 18960, Note_on_c, 1, 57, 75
1, 18960, Note_on_c, 1, 50, 75
1, 19005, Note_on_c, 0, 78, 0
1, 19007, Note_on_c, 1, 57, 0
1, 19007, Note_on_c, 1, 50, 0
1, 19008, Note_on_c, 0, 78, 79
1, 19008, Note_on_c, 1, 57, 75
1, 19008, Note_on_c, 1, 50, 75
1, 19031, Note_on_c, 0, 78, 0
1, 19032, Note_on_c, 0, 81, 80
1, 19055, Note_on_c, 0, 81, 0
1, 19056, Note_on_c, 0, 80, 80
1, 19079, Note_on_c, 0, 80, 0
1, 19080, Note_on_c, 0, 78, 80
1, 19097, Note_on_c, 1, 57, 0
1, 19097, Note_on_c, 1, 50, 0
1, 19103, Note_on_c, 0, 78, 0
1, 19104, Note_on_c, 0, 76, 80
1, 19127, Note_on_c, 0, 76, 0
1, 19128, Note_on_c, 0, 74, 80
1, 19151, Note_on_c, 0, 74, 0
1, 19152, Note_on_c, 0, 73, 80
1, 19152, Note_on_c, 1, 57, 75
1, 19152, Note_on_c, 1, 52, 75
1, 19175, Note_on_c, 0, 73, 0
1, 19176, Note_on_c, 0, 76, 80
1, 19199, Note_on_c, 0, 76, 0
1, 19200, Note_on_c, 0, 74, 80
1, 19223, Note_on_c, 0, 74, 0
1, 19224, Note_on_c, 0, 73, 80
1, 19241, Note_on_c, 1, 57, 0
1, 19241, Note_on_c, 1, 52, 0
1, 19247, Note_on_c, 0, 73, 0
1, 19248, Note_on_c, 0, 71, 80
1, 19271, Note_on_c, 0, 71, 0
1, 19272, Note_on_c, 0, 69, 80
1, 19295, Note_on_c, 0, 69, 0
1, 19296, Note_on_c, 0, 73, 80
1, 19296, Note_on_c, 1, 52, 75
1, 19310, Note_on_c, 0, 73, 0
1, 19311, Note_on_c, 0, 71, 80
1, 19325, Note_on_c, 0, 71, 0
1, 19326, Note_on_c, 0, 73, 80
1, 19340, Note_on_c, 0, 73, 0
1, 19341, Note_on_c, 0, 71, 80
1, 19341, Note_on_c, 1, 52, 0
1, 19344, Note_on_c, 1, 52, 75
1, 19355, Note_on_c, 0, 71, 0
1, 19356, Note_on_c, 0, 73, 80
1, 19369, Note_on_c, 0, 73, 0
1, 19370, Note_on_c, 0, 71, 80
1, 19383, Note_on_c, 0, 71, 0
1, 19384, Note_on_c, 0, 73, 80
1, 19389, Note_on_c, 1, 52, 0
1, 19392, Note_on_c, 1, 52, 75
1, 19397, Note_on_c, 0, 73, 0
1, 19398, Note_on_c, 0, 71, 80
1, 19411, Note_on_c, 0, 71, 0
1, 19412, Note_on_c, 0, 69, 80
1, 19425, Note_on_c, 0, 69, 0
1, 19426, Note_on_c, 0, 71, 80
1, 19437, Note_on_c, 1, 52, 0
1, 19439, Note_on_c, 0, 71, 0
1, 19440, Note_on_c, 0, 69, 80
1, 19440, Note_on_c, 1, 57, 75
1, 19485, Note_on_c, 0, 69, 0
1, 19485, Note_on_c, 1, 57, 0
1, 19488, Note_on_c, 0, 76, 80
1, 19511, Note_on_c, 0, 76, 0
1, 19512, Note_on_c, 0, 73, 80
1, 19535, Note_on_c, 0, 73, 0
1, 19536, Note_on_c, 0, 74, 80
1, 19536, Note_on_c, 1, 52, 75
1, 19559, Note_on_c, 0, 74, 0
1, 19560, Note_on_c, 0, 71, 80
1, 19581, Note_on_c, 1, 52, 0
1, 19583, Note_on_c, 0, 71, 0
1, 19584, Note_on_c, 0, 69, 80
1, 19584, Note_on_c, 1, 45, 75
1, 19629, Note_on_c, 0, 69, 0
1, 19629, Note_on_c, 1, 45, 0
1, 19632, Note_on_c, 0, 76, 80
1, 19655, Note_on_c, 0, 76, 0
1, 19656, Note_on_c, 0, 73, 80
1, 19679, Note_on_c, 0, 73, 0
1, 19680, Note_on_c, 0, 74, 80
1, 19680, Note_on_c, 1, 52, 75
1, 19703, Note_on_c, 0, 74, 0
1, 19704, Note_on_c, 0, 71, 80
1, 19725, Note_on_c, 1, 52, 0
1, 19727, Note_on_c, 0, 71, 0
1, 19728, Note_on_c, 0, 69, 80
1, 19728, Note_on_c, 1, 45, 75
1, 19817, Note_on_c, 0, 69, 0
1, 19817, Note_on_c, 1, 45, 0
1, 19872, Note_on_c, 1, 45, 0
1, 19961, Note_on_c, 1, 45, 0
1, 19971, End_track
0, 0, End_of_file