0, 0, Header, 0, 1, 96
1, 0, Start_track
1, 0, Tempo, 600000
1, 0, Note_on_c, 0, 69, 78
1, 0, Note_on_c, 0, 61, 66
1, 0, Note_on_c, 0, 57, 66
1, 23, Note_on_c, 0, 69, 0
1, 24, Note_on_c, 0, 71, 78
1, 45, Note_on_c, 0, 61, 0
1, 45, Note_on_c, 0, 57, 0
1, 47, Note_on_c, 0, 71, 0
1, 48, Note_on_c, 0, 73, 78
1, 48, Note_on_c, 0, 61, 66
1, 48, Note_on_c, 0, 57, 66
1, 71, Note_on_c, 0, 73, 0
1, 72, Note_on_c, 0, 74, 78
1, 93, Note_on_c, 0, 61, 0
1, 93, Note_on_c, 0, 57, 0
1, 95, Note_on_c, 0, 74, 0
1, 96, Note_on_c, 0, 76, 78
1, 96, Note_on_c, 0, 61, 66
1, 96, Note_on_c, 0, 57, 66
1, 119, Note_on_c, 0, 76, 0
1, 120, Note_on_c, 0, 78, 78
1, 141, Note_on_c, 0, 61, 0
1, 141, Note_on_c, 0, 57, 0
1, 143, Note_on_c, 0, 78, 0
1, 144, Note_on_c, 0, 80, 78
1, 144, Note_on_c, 0, 61, 66
1, 144, Note_on_c, 0, 57, 66
1, 167, Note_on_c, 0, 80, 0
1, 168, Note_on_c, 0, 81, 78
1, 189, Note_on_c, 0, 61, 0
1, 189, Note_on_c, 0, 57, 0
1, 191, Note_on_c, 0, 81, 0
1, 192, Note_on_c, 0, 78, 78
1, 192, Note_on_c, 0, 62, 66
1, 192, Note_on_c, 0, 57, 66
1, 202, Note_on_c, 0, 78, 0
1, 202, Note_on_c, 0, 80, 78
1, 212, Note_on_c, 0, 80, 0
1, 212, Note_on_c, 0, 78, 78
1, 222, Note_on_c, 0, 78, 0
1, 222, Note_on_c, 0, 76, 78
1, 231, Note_on_c, 0, 76, 0
1, 231, Note_on_c, 0, 78, 78
1, 237, Note_on_c, 0, 62, 0
1, 237, Note_on_c, 0, 57, 0
1, 240, Note_on_c, 0, 78, 0
1, 240, Note_on_c, 0, 76, 78
1, 240, Note_on_c, 0, 61, 66
1, 240, Note_on_c, 0, 57, 66
1, 285, Note_on_c, 0, 76, 0
1, 285, Note_on_c, 0, 61, 0
1, 285, Note_on_c, 0, 57, 0
1, 288, Note_on_c, 0, 61, 66
1, 288, Note_on_c, 0, 57, 66
1, 333, Note_on_c, 0, 61, 0
1, 333, Note_on_c, 0, 57, 0
1, 336, Note_on_c, 0, 83, 78
1, 336, Note_on_c, 0, 61, 66
1, 336, Note_on_c, 0, 57, 66
1, 348, Note_on_c, 0, 83, 0
1, 348, Note_on_c, 0, 81, 78
1, 360, Note_on_c, 0, 81, 0
1, 360, Note_on_c, 0, 80, 78
1, 372, Note_on_c, 0, 80, 0
1, 372, Note_on_c, 0, 81, 78
1, 381, Note_on_c, 0, 61, 0
1, 381, Note_on_c, 0, 57, 0
1, 384, Note_on_c, 0, 81, 0
1, 384, Note_on_c, 0, 80, 78
1, 399, Note_on_c, 0, 80, 0
1, 400, Note_on_c, 0, 81, 78
1, 415, Note_on_c, 0, 81, 0
1, 416, Note_on_c, 0, 83, 78
1, 431, Note_on_c, 0, 83, 0
1, 432, Note_on_c, 0, 74, 78
1, 432, Note_on_c, 0, 59, 66
1, 432, Note_on_c, 0, 52, 66
1, 477, Note_on_c, 0, 74, 0
1, 477, Note_on_c, 0, 59, 0
1, 477, Note_on_c, 0, 52, 0
1, 480, Note_on_c, 0, 73, 78
1, 480, Note_on_c, 0, 57, 66
1, 480, Note_on_c, 0, 52, 66
1, 490, Note_on_c, 0, 73, 0
1, 490, Note_on_c, 0, 74, 78
1, 500, Note_on_c, 0, 74, 0
1, 500, Note_on_c, 0, 73, 78
1, 510, Note_on_c, 0, 73, 0
1, 510, Note_on_c, 0, 71, 78
1, 519, Note_on_c, 0, 71, 0
1, 519, Note_on_c, 0, 73, 78
1, 525, Note_on_c, 0, 57, 0
1, 525, Note_on_c, 0, 52, 0
1, 528, Note_on_c, 0, 73, 0
1, 528, Note_on_c, 0, 71, 78
1, 528, Note_on_c, 0, 56, 66
1, 528, Note_on_c, 0, 52, 66
1, 573, Note_on_c, 0, 71, 0
1, 573, Note_on_c, 0, 56, 0
1, 573, Note_on_c, 0, 52, 0
1, 576, Note_on_c, 0, 73, 78
1, 591, Note_on_c, 0, 73, 0
1, 592, Note_on_c, 0, 74, 78
1, 607, Note_on_c, 0, 74, 0
1, 608, Note_on_c, 0, 76, 78
1, 623, Note_on_c, 0, 76, 0
1, 624, Note_on_c, 0, 69, 78
1, 624, Note_on_c, 0, 61, 66
1, 624, Note_on_c, 0, 57, 66
1, 669, Note_on_c, 0, 69, 0
1, 669, Note_on_c, 0, 61, 0
1, 669, Note_on_c, 0, 57, 0
1, 672, Note_on_c, 0, 64, 66
1, 672, Note_on_c, 0, 61, 66
1, 717, Note_on_c, 0, 64, 0
1, 717, Note_on_c, 0, 61, 0
1, 720, Note_on_c, 0, 83, 78
1, 720, Note_on_c, 0, 61, 66
1, 720, Note_on_c, 0, 57, 66
1, 732, Note_on_c, 0, 83, 0
1, 732, Note_on_c, 0, 81, 78
1, 744, Note_on_c, 0, 81, 0
1, 744, Note_on_c, 0, 80, 78
1, 756, Note_on_c, 0, 80, 0
1, 756, Note_on_c, 0, 81, 78
1, 765, Note_on_c, 0, 61, 0
1, 765, Note_on_c, 0, 57, 0
1, 768, Note_on_c, 0, 81, 0
1, 768, Note_on_c, 0, 80, 78
1, 783, Note_on_c, 0, 80, 0
1, 784, Note_on_c, 0, 81, 78
1, 799, Note_on_c, 0, 81, 0
1, 800, Note_on_c, 0, 83, 78
1, 815, Note_on_c, 0, 83, 0
1, 816, Note_on_c, 0, 74, 78
1, 816, Note_on_c, 0, 59, 66
1, 816, Note_on_c, 0, 52, 66
1, 861, Note_on_c, 0, 74, 0
1, 861, Note_on_c, 0, 59, 0
1, 861, Note_on_c, 0, 52, 0
1, 864, Note_on_c, 0, 73, 78
1, 864, Note_on_c, 0, 57, 66
1, 864, Note_on_c, 0, 52, 66
1, 874, Note_on_c, 0, 73, 0
1, 874, Note_on_c, 0, 74, 78
1, 884, Note_on_c, 0, 74, 0
1, 884, Note_on_c, 0, 73, 78
1, 894, Note_on_c, 0, 73, 0
1, 894, Note_on_c, 0, 71, 78
1, 903, Note_on_c, 0, 71, 0
1, 903, Note_on_c, 0, 73, 78
1, 909, Note_on_c, 0, 57, 0
1, 909, Note_on_c, 0, 52, 0
1, 912, Note_on_c, 0, 73, 0
1, 912, Note_on_c, 0, 71, 78
1, 912, Note_on_c, 0, 56, 66
1, 912, Note_on_c, 0, 52, 66
1, 957, Note_on_c, 0, 71, 0
1, 957, Note_on_c, 0, 56, 0
1, 957, Note_on_c, 0, 52, 0
1, 960, Note_on_c, 0, 73, 78
1, 975, Note_on_c, 0, 73, 0
1, 976, Note_on_c, 0, 74, 78
1, 991, Note_on_c, 0, 74, 0
1, 992, Note_on_c, 0, 76, 78
1, 1007, Note_on_c, 0, 76, 0
1, 1008, Note_on_c, 0, 69, 78
1, 1008, Note_on_c, 0, 61, 66
1, 1008, Note_on_c, 0, 57, 66
1, 1053, Note_on_c, 0, 69, 0
1, 1053, Note_on_c, 0, 61, 0
1, 1053, Note_on_c, 0, 57, 0
1, 1056, Note_on_c, 0, 64, 66
1, 1056, Note_on_c, 0, 61, 66
1, 1101, Note_on_c, 0, 64, 0
1, 1101, Note_on_c, 0, 61, 0
1, 1104, Note_on_c, 0, 83, 78
1, 1104, Note_on_c, 0, 61, 66
1, 1104, Note_on_c, 0, 57, 66
1, 1116, Note_on_c, 0, 83, 0
1, 1116, Note_on_c, 0, 81, 78
1, 1128, Note_on_c, 0, 81, 0
1, 1128, Note_on_c, 0, 80, 78
1, 1140, Note_on_c, 0, 80, 0
1, 1140, Note_on_c, 0, 81, 78
1, 1145, Note_on_c, 0, 81, 0
1, 1149, Note_on_c, 0, 61, 0
1, 1149, Note_on_c, 0, 57, 0
1, 1152, Note_on_c, 0, 81, 78
1, 1175, Note_on_c, 0, 81, 0
1, 1176, Note_on_c, 0, 78, 78
1, 1199, Note_on_c, 0, 78, 0
1, 1200, Note_on_c, 0, 76, 78
1, 1200, Note_on_c, 0, 71, 66
1, 1200, Note_on_c, 0, 69, 66
1, 1223, Note_on_c, 0, 76, 0
1, 1224, Note_on_c, 0, 75, 78
1, 1245, Note_on_c, 0, 71, 0
1, 1245, Note_on_c, 0, 69, 0
1, 1247, Note_on_c, 0, 75, 0
1, 1248, Note_on_c, 0, 76, 78
1, 1248, Note_on_c, 0, 71, 66
1, 1248, Note_on_c, 0, 68, 66
1, 1263, Note_on_c, 0, 76, 0
1, 1264, Note_on_c, 0, 78, 78
1, 1279, Note_on_c, 0, 78, 0
1, 1280, Note_on_c, 0, 80, 78
1, 1293, Note_on_c, 0, 71, 0
1, 1293, Note_on_c, 0, 68, 0
1, 1295, Note_on_c, 0, 80, 0
1, 1296, Note_on_c, 0, 76, 78
1, 1296, Note_on_c, 0, 71, 66
1, 1296, Note_on_c, 0, 68, 66
1, 1341, Note_on_c, 0, 76, 0
1, 1341, Note_on_c, 0, 71, 0
1, 1341, Note_on_c, 0, 68, 0
1, 1344, Note_on_c, 0, 81, 72
1, 1367, Note_on_c, 0, 81, 0
1, 1368, Note_on_c, 0, 78, 72
1, 1391, Note_on_c, 0, 78, 0
1, 1392, Note_on_c, 0, 76, 72
1, 1392, Note_on_c, 0, 71, 66
1, 1392, Note_on_c, 0, 69, 66
1, 1415, Note_on_c, 0, 76, 0
1, 1416, Note_on_c, 0, 75, 72
1, 1437, Note_on_c, 0, 71, 0
1, 1437, Note_on_c, 0, 69, 0
1, 1439, Note_on_c, 0, 75, 0
1, 1440, Note_on_c, 0, 76, 72
1, 1440, Note_on_c, 0, 71, 66
1, 1440, Note_on_c, 0, 68, 66
1, 1455, Note_on_c, 0, 76, 0
1, 1456, Note_on_c, 0, 78, 72
1, 1471, Note_on_c, 0, 78, 0
1, 1472, Note_on_c, 0, 80, 72
1, 1485, Note_on_c, 0, 71, 0
1, 1485, Note_on_c, 0, 68, 0
1, 1487, Note_on_c, 0, 80, 0
1, 1488, Note_on_c, 0, 76, 72
1, 1488, Note_on_c, 0, 71, 66
1, 1488, Note_on_c, 0, 68, 66
1, 1533, Note_on_c, 0, 76, 0
1, 1533, Note_on_c, 0, 71, 0
1, 1533, Note_on_c, 0, 68, 0
1, 1536, Note_on_c, 0, 85, 78
1, 1536, Note_on_c, 0, 69, 72
1, 1551, Note_on_c, 0, 85, 0
1, 1552, Note_on_c, 0, 83, 78
1, 1567, Note_on_c, 0, 83, 0
1, 1568, Note_on_c, 0, 81, 78
1, 1581, Note_on_c, 0, 69, 0
1, 1583, Note_on_c, 0, 81, 0
1, 1584, Note_on_c, 0, 83, 78
1, 1584, Note_on_c, 0, 68, 72
1, 1599, Note_on_c, 0, 83, 0
1, 1600, Note_on_c, 0, 81, 78
1, 1615, Note_on_c, 0, 81, 0
1, 1616, Note_on_c, 0, 80, 78
1, 1629, Note_on_c, 0, 68, 0
1, 1631, Note_on_c, 0, 80, 0
1, 1632, Note_on_c, 0, 81, 78
1, 1632, Note_on_c, 0, 66, 72
1, 1647, Note_on_c, 0, 81, 0
1, 1648, Note_on_c, 0, 80, 78
1, 1663, Note_on_c, 0, 80, 0
1, 1664, Note_on_c, 0, 78, 78
1, 1677, Note_on_c, 0, 66, 0
1, 1679, Note_on_c, 0, 78, 0
1, 1680, Note_on_c, 0, 80, 78
1, 1680, Note_on_c, 0, 64, 72
1, 1695, Note_on_c, 0, 80, 0
1, 1696, Note_on_c, 0, 78, 78
1, 1711, Note_on_c, 0, 78, 0
1, 1712, Note_on_c, 0, 76, 78
1, 1725, Note_on_c, 0, 64, 0
1, 1727, Note_on_c, 0, 76, 0
1, 1728, Note_on_c, 0, 81, 78
1, 1728, Note_on_c, 0, 66, 72
1, 1743, Note_on_c, 0, 81, 0
1, 1744, Note_on_c, 0, 80, 78
1, 1759, Note_on_c, 0, 80, 0
1, 1760, Note_on_c, 0, 78, 78
1, 1773, Note_on_c, 0, 66, 0
1, 1775, Note_on_c, 0, 78, 0
1, 1776, Note_on_c, 0, 80, 78
1, 1776, Note_on_c, 0, 64, 72
1, 1791, Note_on_c, 0, 80, 0
1, 1792, Note_on_c, 0, 78, 78
1, 1807, Note_on_c, 0, 78, 0
1, 1808, Note_on_c, 0, 76, 78
1, 1821, Note_on_c, 0, 64, 0
1, 1823, Note_on_c, 0, 76, 0
1, 1824, Note_on_c, 0, 78, 78
1, 1824, Note_on_c, 0, 63, 72
1, 1839, Note_on_c, 0, 78, 0
1, 1840, Note_on_c, 0, 76, 78
1, 1855, Note_on_c, 0, 76, 0
1, 1856, Note_on_c, 0, 75, 78
1, 1869, Note_on_c, 0, 63, 0
1, 1871, Note_on_c, 0, 75, 0
1, 1872, Note_on_c, 0, 76, 78
1, 1872, Note_on_c, 0, 61, 72
1, 1887, Note_on_c, 0, 76, 0
1, 1888, Note_on_c, 0, 75, 78
1, 1903, Note_on_c, 0, 75, 0
1, 1904, Note_on_c, 0, 73, 78
1, 1917, Note_on_c, 0, 61, 0
1, 1919, Note_on_c, 0, 73, 0
1, 1920, Note_on_c, 0, 75, 78
1, 1935, Note_on_c, 0, 75, 0
1, 1936, Note_on_c, 0, 76, 78
1, 1951, Note_on_c, 0, 76, 0
1, 1952, Note_on_c, 0, 78, 78
1, 1967, Note_on_c, 0, 78, 0
1, 1968, Note_on_c, 0, 71, 78
1, 1968, Note_on_c, 0, 59, 72
1, 2013, Note_on_c, 0, 71, 0
1, 2013, Note_on_c, 0, 59, 0
1, 2016, Note_on_c, 0, 63, 72
1, 2040, Note_on_c, 0, 71, 78
1, 2061, Note_on_c, 0, 63, 0
1, 2063, Note_on_c, 0, 71, 0
1, 2064, Note_on_c, 0, 75, 78
1, 2064, Note_on_c, 0, 66, 72
1, 2087, Note_on_c, 0, 75, 0
1, 2088, Note_on_c, 0, 78, 78
1, 2109, Note_on_c, 0, 66, 0
1, 2111, Note_on_c, 0, 78, 0
1, 2112, Note_on_c, 0, 76, 78
1, 2127, Note_on_c, 0, 76, 0
1, 2128, Note_on_c, 0, 78, 78
1, 2143, Note_on_c, 0, 78, 0
1, 2144, Note_on_c, 0, 80, 78
1, 2159, Note_on_c, 0, 80, 0
1, 2160, Note_on_c, 0, 71, 78
1, 2160, Note_on_c, 0, 59, 72
1, 2205, Note_on_c, 0, 71, 0
1, 2205, Note_on_c, 0, 59, 0
1, 2208, Note_on_c, 0, 64, 72
1, 2232, Note_on_c, 0, 71, 78
1, 2253, Note_on_c, 0, 64, 0
1, 2255, Note_on_c, 0, 71, 0
1, 2256, Note_on_c, 0, 76, 78
1, 2256, Note_on_c, 0, 68, 72
1, 2279, Note_on_c, 0, 76, 0
1, 2280, Note_on_c, 0, 80, 78
1, 2301, Note_on_c, 0, 68, 0
1, 2303, Note_on_c, 0, 80, 0
1, 2304, Note_on_c, 0, 78, 78
1, 2319, Note_on_c, 0, 78, 0
1, 2320, Note_on_c, 0, 80, 78
1, 2335, Note_on_c, 0, 80, 0
1, 2336, Note_on_c, 0, 81, 78
1, 2351, Note_on_c, 0, 81, 0
1, 2352, Note_on_c, 0, 71, 78
1, 2352, Note_on_c, 0, 59, 72
1, 2397, Note_on_c, 0, 71, 0
1, 2397, Note_on_c, 0, 59, 0
1, 2400, Note_on_c, 0, 63, 72
1, 2424, Note_on_c, 0, 71, 78
1, 2445, Note_on_c, 0, 63, 0
1, 2447, Note_on_c, 0, 71, 0
1, 2448, Note_on_c, 0, 78, 78
1, 2448, Note_on_c, 0, 66, 72
1, 2471, Note_on_c, 0, 78, 0
1, 2472, Note_on_c, 0, 81, 78
1, 2493, Note_on_c, 0, 66, 0
1, 2495, Note_on_c, 0, 81, 0
1, 2496, Note_on_c, 0, 80, 78
1, 2511, Note_on_c, 0, 80, 0
1, 2512, Note_on_c, 0, 81, 78
1, 2527, Note_on_c, 0, 81, 0
1, 2528, Note_on_c, 0, 83, 78
1, 2543, Note_on_c, 0, 83, 0
1, 2544, Note_on_c, 0, 76, 78
1, 2544, Note_on_c, 0, 71, 66
1, 2544, Note_on_c, 0, 68, 66
1, 2589, Note_on_c, 0, 76, 0
1, 2589, Note_on_c, 0, 71, 0
1, 2589, Note_on_c, 0, 68, 0
1, 2592, Note_on_c, 0, 78, 78
1, 2592, Note_on_c, 0, 73, 66
1, 2592, Note_on_c, 0, 69, 66
1, 2602, Note_on_c, 0, 78, 0
1, 2602, Note_on_c, 0, 80, 78
1, 2612, Note_on_c, 0, 80, 0
1, 2612, Note_on_c, 0, 78, 78
1, 2622, Note_on_c, 0, 78, 0
1, 2622, Note_on_c, 0, 76, 78
1, 2631, Note_on_c, 0, 76, 0
1, 2631, Note_on_c, 0, 78, 78
1, 2637, Note_on_c, 0, 73, 0
1, 2637, Note_on_c, 0, 69, 0
1, 2640, Note_on_c, 0, 78, 0
1, 2640, Note_on_c, 0, 76, 78
1, 2640, Note_on_c, 0, 71, 66
1, 2640, Note_on_c, 0, 68, 66
1, 2685, Note_on_c, 0, 76, 0
1, 2685, Note_on_c, 0, 71, 0
1, 2685, Note_on_c, 0, 68, 0
1, 2688, Note_on_c, 0, 80, 78
1, 2703, Note_on_c, 0, 80, 0
1, 2704, Note_on_c, 0, 81, 78
1, 2719, Note_on_c, 0, 81, 0
1, 2720, Note_on_c, 0, 83, 78
1, 2735, Note_on_c, 0, 83, 0
1, 2736, Note_on_c, 0, 76, 78
1, 2736, Note_on_c, 0, 71, 66
1, 2736, Note_on_c, 0, 68, 66
1, 2781, Note_on_c, 0, 76, 0
1, 2781, Note_on_c, 0, 71, 0
1, 2781, Note_on_c, 0, 68, 0
1, 2784, Note_on_c, 0, 75, 78
1, 2784, Note_on_c, 0, 69, 66
1, 2784, Note_on_c, 0, 66, 66
1, 2794, Note_on_c, 0, 75, 0
1, 2794, Note_on_c, 0, 76, 78
1, 2804, Note_on_c, 0, 76, 0
1, 2804, Note_on_c, 0, 75, 78
1, 2814, Note_on_c, 0, 75, 0
1, 2814, Note_on_c, 0, 73, 78
1, 2823, Note_on_c, 0, 73, 0
1, 2823, Note_on_c, 0, 75, 78
1, 2829, Note_on_c, 0, 69, 0
1, 2829, Note_on_c, 0, 66, 0
1, 2832, Note_on_c, 0, 75, 0
1, 2832, Note_on_c, 0, 76, 78
1, 2832, Note_on_c, 0, 68, 66
1, 2832, Note_on_c, 0, 64, 66
1, 2877, Note_on_c, 0, 76, 0
1, 2877, Note_on_c, 0, 68, 0
1, 2877, Note_on_c, 0, 64, 0
1, 2880, Note_on_c, 0, 56, 66
1, 2903, Note_on_c, 0, 56, 0
1, 2904, Note_on_c, 0, 68, 66
1, 2927, Note_on_c, 0, 68, 0
1, 2928, Note_on_c, 0, 75, 78
1, 2928, Note_on_c, 0, 72, 78
1, 2928, Note_on_c, 0, 56, 66
1, 2951, Note_on_c, 0, 56, 0
1, 2952, Note_on_c, 0, 68, 66
1, 2973, Note_on_c, 0, 75, 0
1, 2973, Note_on_c, 0, 72, 0
1, 2975, Note_on_c, 0, 68, 0
1, 2976, Note_on_c, 0, 78, 78
1, 2976, Note_on_c, 0, 75, 78
1, 2976, Note_on_c, 0, 56, 66
1, 2999, Note_on_c, 0, 56, 0
1, 3000, Note_on_c, 0, 68, 66
1, 3021, Note_on_c, 0, 78, 0
1, 3021, Note_on_c, 0, 75, 0
1, 3023, Note_on_c, 0, 68, 0
1, 3024, Note_on_c, 0, 75, 78
1, 3024, Note_on_c, 0, 72, 78
1, 3024, Note_on_c, 0, 56, 66
1, 3047, Note_on_c, 0, 56, 0
1, 3048, Note_on_c, 0, 68, 66
1, 3069, Note_on_c, 0, 75, 0
1, 3069, Note_on_c, 0, 72, 0
1, 3071, Note_on_c, 0, 68, 0
1, 3072, Note_on_c, 0, 61, 66
1, 3095, Note_on_c, 0, 61, 0
1, 3096, Note_on_c, 0, 68, 66
1, 3119, Note_on_c, 0, 68, 0
1, 3120, Note_on_c, 0, 76, 78
1, 3120, Note_on_c, 0, 73, 78
1, 3120, Note_on_c, 0, 61, 66
1, 3143, Note_on_c, 0, 61, 0
1, 3144, Note_on_c, 0, 68, 66
1, 3165, Note_on_c, 0, 76, 0
1, 3165, Note_on_c, 0, 73, 0
1, 3167, Note_on_c, 0, 68, 0
1, 3168, Note_on_c, 0, 80, 78
1, 3168, Note_on_c, 0, 76, 78
1, 3168, Note_on_c, 0, 61, 66
1, 3191, Note_on_c, 0, 61, 0
1, 3192, Note_on_c, 0, 68, 66
1, 3213, Note_on_c, 0, 80, 0
1, 3213, Note_on_c, 0, 76, 0
1, 3215, Note_on_c, 0, 68, 0
1, 3216, Note_on_c, 0, 76, 78
1, 3216, Note_on_c, 0, 73, 78
1, 3216, Note_on_c, 0, 61, 66
1, 3239, Note_on_c, 0, 61, 0
1, 3240, Note_on_c, 0, 68, 66
1, 3261, Note_on_c, 0, 76, 0
1, 3261, Note_on_c, 0, 73, 0
1, 3263, Note_on_c, 0, 68, 0
1, 3264, Note_on_c, 0, 54, 66
1, 3287, Note_on_c, 0, 54, 0
1, 3288, Note_on_c, 0, 66, 66
1, 3311, Note_on_c, 0, 66, 0
1, 3312, Note_on_c, 0, 73, 78
1, 3312, Note_on_c, 0, 70, 78
1, 3312, Note_on_c, 0, 54, 66
1, 3335, Note_on_c, 0, 54, 0
1, 3336, Note_on_c, 0, 66, 66
1, 3357, Note_on_c, 0, 73, 0
1, 3357, Note_on_c, 0, 70, 0
1, 3359, Note_on_c, 0, 66, 0
1, 3360, Note_on_c, 0, 76, 78
1, 3360, Note_on_c, 0, 73, 78
1, 3360, Note_on_c, 0, 54, 66
1, 3383, Note_on_c, 0, 54, 0
1, 3384, Note_on_c, 0, 66, 66
1, 3405, Note_on_c, 0, 76, 0
1, 3405, Note_on_c, 0, 73, 0
1, 3407, Note_on_c, 0, 66, 0
1, 3408, Note_on_c, 0, 73, 78
1, 3408, Note_on_c, 0, 70, 78
1, 3408, Note_on_c, 0, 54, 66
1, 3431, Note_on_c, 0, 54, 0
1, 3432, Note_on_c, 0, 66, 66
1, 3453, Note_on_c, 0, 73, 0
1, 3453, Note_on_c, 0, 70, 0
1, 3455, Note_on_c, 0, 66, 0
1, 3456, Note_on_c, 0, 59, 66
1, 3479, Note_on_c, 0, 59, 0
1, 3480, Note_on_c, 0, 66, 66
1, 3503, Note_on_c, 0, 66, 0
1, 3504, Note_on_c, 0, 75, 78
1, 3504, Note_on_c, 0, 71, 78
1, 3504, Note_on_c, 0, 59, 66
1, 3527, Note_on_c, 0, 59, 0
1, 3528, Note_on_c, 0, 66, 66
1, 3549, Note_on_c, 0, 75, 0
1, 3549, Note_on_c, 0, 71, 0
1, 3551, Note_on_c, 0, 66, 0
1, 3552, Note_on_c, 0, 78, 78
1, 3552, Note_on_c, 0, 75, 78
1, 3552, Note_on_c, 0, 59, 66
1, 3575, Note_on_c, 0, 59, 0
1, 3576, Note_on_c, 0, 66, 66
1, 3597, Note_on_c, 0, 78, 0
1, 3597, Note_on_c, 0, 75, 0
1, 3599, Note_on_c, 0, 66, 0
1, 3600, Note_on_c, 0, 75, 78
1, 3600, Note_on_c, 0, 71, 78
1, 3600, Note_on_c, 0, 59, 66
1, 3623, Note_on_c, 0, 59, 0
1, 3624, Note_on_c, 0, 66, 66
1, 3645, Note_on_c, 0, 75, 0
1, 3645, Note_on_c, 0, 71, 0
1, 3647, Note_on_c, 0, 66, 0
1, 3648, Note_on_c, 0, 47, 66
1, 3671, Note_on_c, 0, 47, 0
1, 3672, Note_on_c, 0, 59, 66
1, 3695, Note_on_c, 0, 59, 0
1, 3696, Note_on_c, 0, 78, 78
1, 3696, Note_on_c, 0, 75, 78
1, 3696, Note_on_c, 0, 47, 66
1, 3719, Note_on_c, 0, 47, 0
1, 3720, Note_on_c, 0, 59, 66
1, 3741, Note_on_c, 0, 78, 0
1, 3741, Note_on_c, 0, 75, 0
1, 3743, Note_on_c, 0, 59, 0
1, 3744, Note_on_c, 0, 81, 78
1, 3744, Note_on_c, 0, 78, 78
1, 3744, Note_on_c, 0, 47, 66
1, 3767, Note_on_c, 0, 47, 0
1, 3768, Note_on_c, 0, 59, 66
1, 3789, Note_on_c, 0, 81, 0
1, 3789, Note_on_c, 0, 78, 0
1, 3791, Note_on_c, 0, 59, 0
1, 3792, Note_on_c, 0, 78, 78
1, 3792, Note_on_c, 0, 75, 78
1, 3792, Note_on_c, 0, 47, 66
1, 3815, Note_on_c, 0, 47, 0
1, 3816, Note_on_c, 0, 59, 66
1, 3837, Note_on_c, 0, 78, 0
1, 3837, Note_on_c, 0, 75, 0
1, 3839, Note_on_c, 0, 59, 0
1, 3840, Note_on_c, 0, 52, 66
1, 3863, Note_on_c, 0, 52, 0
1, 3864, Note_on_c, 0, 59, 66
1, 3887, Note_on_c, 0, 59, 0
1, 3888, Note_on_c, 0, 80, 78
1, 3888, Note_on_c, 0, 76, 78
1, 3888, Note_on_c, 0, 52, 66
1, 3911, Note_on_c, 0, 52, 0
1, 3912, Note_on_c, 0, 59, 66
1, 3933, Note_on_c, 0, 80, 0
1, 3933, Note_on_c, 0, 76, 0
1, 3935, Note_on_c, 0, 59, 0
1, 3936, Note_on_c, 0, 83, 78
1, 3936, Note_on_c, 0, 80, 78
1, 3936, Note_on_c, 0, 52, 66
1, 3959, Note_on_c, 0, 52, 0
1, 3960, Note_on_c, 0, 59, 66
1, 3981, Note_on_c, 0, 83, 0
1, 3981, Note_on_c, 0, 80, 0
1, 3983, Note_on_c, 0, 59, 0
1, 3984, Note_on_c, 0, 80, 78
1, 3984, Note_on_c, 0, 76, 78
1, 3984, Note_on_c, 0, 52, 66
1, 4007, Note_on_c, 0, 52, 0
1, 4008, Note_on_c, 0, 59, 66
1, 4029, Note_on_c, 0, 80, 0
1, 4029, Note_on_c, 0, 76, 0
1, 4031, Note_on_c, 0, 59, 0
1, 4032, Note_on_c, 0, 57, 66
1, 4055, Note_on_c, 0, 57, 0
1, 4056, Note_on_c, 0, 64, 66
1, 4079, Note_on_c, 0, 64, 0
1, 4080, Note_on_c, 0, 73, 78
1, 4080, Note_on_c, 0, 57, 66
1, 4090, Note_on_c, 0, 73, 0
1, 4090, Note_on_c, 0, 75, 78
1, 4100, Note_on_c, 0, 75, 0
1, 4100, Note_on_c, 0, 73, 78
1, 4103, Note_on_c, 0, 57, 0
1, 4104, Note_on_c, 0, 64, 66
1, 4110, Note_on_c, 0, 73, 0
1, 4110, Note_on_c, 0, 71, 78
1, 4119, Note_on_c, 0, 71, 0
1, 4119, Note_on_c, 0, 73, 78
1, 4127, Note_on_c, 0, 64, 0
1, 4128, Note_on_c, 0, 73, 0
1, 4128, Note_on_c, 0, 71, 78
1, 4128, Note_on_c, 0, 56, 66
1, 4151, Note_on_c, 0, 56, 0
1, 4152, Note_on_c, 0, 64, 66
1, 4173, Note_on_c, 0, 71, 0
1, 4175, Note_on_c, 0, 64, 0
1, 4176, Note_on_c, 0, 76, 78
1, 4176, Note_on_c, 0, 56, 66
1, 4199, Note_on_c, 0, 56, 0
1, 4200, Note_on_c, 0, 64, 66
1, 4221, Note_on_c, 0, 76, 0
1, 4223, Note_on_c, 0, 64, 0
1, 4224, Note_on_c, 0, 54, 66
1, 4247, Note_on_c, 0, 54, 0
1, 4248, Note_on_c, 0, 63, 66
1, 4271, Note_on_c, 0, 63, 0
1, 4272, Note_on_c, 0, 81, 78
1, 4272, Note_on_c, 0, 57, 66
1, 4282, Note_on_c, 0, 81, 0
1, 4282, Note_on_c, 0, 83, 78
1, 4292, Note_on_c, 0, 83, 0
1, 4292, Note_on_c, 0, 81, 78
1, 4295, Note_on_c, 0, 57, 0
1, 4296, Note_on_c, 0, 63, 66
1, 4302, Note_on_c, 0, 81, 0
1, 4302, Note_on_c, 0, 80, 78
1, 4311, Note_on_c, 0, 80, 0
1, 4311, Note_on_c, 0, 81, 78
1, 4319, Note_on_c, 0, 63, 0
1, 4320, Note_on_c, 0, 81, 0
1, 4320, Note_on_c, 0, 80, 78
1, 4320, Note_on_c, 0, 52, 66
1, 4343, Note_on_c, 0, 52, 0
1, 4344, Note_on_c, 0, 59, 66
1, 4365, Note_on_c, 0, 80, 0
1, 4367, Note_on_c, 0, 59, 0
1, 4368, Note_on_c, 0, 76, 78
1, 4368, Note_on_c, 0, 56, 66
1, 4391, Note_on_c, 0, 56, 0
1, 4392, Note_on_c, 0, 59, 66
1, 4413, Note_on_c, 0, 76, 0
1, 4415, Note_on_c, 0, 59, 0
1, 4416, Note_on_c, 0, 57, 66
1, 4439, Note_on_c, 0, 57, 0
1, 4440, Note_on_c, 0, 64, 66
1, 4463, Note_on_c, 0, 64, 0
1, 4464, Note_on_c, 0, 73, 78
1, 4464, Note_on_c, 0, 57, 66
1, 4474, Note_on_c, 0, 73, 0
1, 4474, Note_on_c, 0, 75, 78
1, 4484, Note_on_c, 0, 75, 0
1, 4484, Note_on_c, 0, 73, 78
1, 4487, Note_on_c, 0, 57, 0
1, 4488, Note_on_c, 0, 64, 66
1, 4494, Note_on_c, 0, 73, 0
1, 4494, Note_on_c, 0, 71, 78
1, 4503, Note_on_c, 0, 71, 0
1, 4503, Note_on_c, 0, 73, 78
1, 4511, Note_on_c, 0, 64, 0
1, 4512, Note_on_c, 0, 73, 0
1, 4512, Note_on_c, 0, 71, 78
1, 4512, Note_on_c, 0, 56, 66
1, 4535, Note_on_c, 0, 56, 0
1, 4536, Note_on_c, 0, 64, 66
1, 4557, Note_on_c, 0, 71, 0
1, 4559, Note_on_c, 0, 64, 0
1, 4560, Note_on_c, 0, 76, 78
1, 4560, Note_on_c, 0, 56, 66
1, 4583, Note_on_c, 0, 56, 0
1, 4584, Note_on_c, 0, 64, 66
1, 4605, Note_on_c, 0, 76, 0
1, 4607, Note_on_c, 0, 64, 0
1, 4608, Note_on_c, 0, 54, 66
1, 4631, Note_on_c, 0, 54, 0
1, 4632, Note_on_c, 0, 63, 66
1, 4655, Note_on_c, 0, 63, 0
1, 4656, Note_on_c, 0, 81, 78
1, 4656, Note_on_c, 0, 57, 66
1, 4666, Note_on_c, 0, 81, 0
1, 4666, Note_on_c, 0, 83, 78
1, 4676, Note_on_c, 0, 83, 0
1, 4676, Note_on_c, 0, 81, 78
1, 4679, Note_on_c, 0, 57, 0
1, 4680, Note_on_c, 0, 63, 66
1, 4686, Note_on_c, 0, 81, 0
1, 4686, Note_on_c, 0, 80, 78
1, 4695, Note_on_c, 0, 80, 0
1, 4695, Note_on_c, 0, 81, 78
1, 4703, Note_on_c, 0, 63, 0
1, 4704, Note_on_c, 0, 81, 0
1, 4704, Note_on_c, 0, 80, 78
1, 4704, Note_on_c, 0, 52, 66
1, 4727, Note_on_c, 0, 52, 0
1, 4728, Note_on_c, 0, 59, 66
1, 4749, Note_on_c, 0, 80, 0
1, 4751, Note_on_c, 0, 59, 0
1, 4752, Note_on_c, 0, 76, 78
1, 4752, Note_on_c, 0, 56, 66
1, 4775, Note_on_c, 0, 56, 0
1, 4776, Note_on_c, 0, 59, 66
1, 4797, Note_on_c, 0, 76, 0
1, 4799, Note_on_c, 0, 59, 0
1, 4800, Note_on_c, 0, 47, 66
1, 4823, Note_on_c, 0, 47, 0
1, 4824, Note_on_c, 0, 59, 66
1, 4847, Note_on_c, 0, 59, 0
1, 4848, Note_on_c, 0, 71, 66
1, 4848, Note_on_c, 0, 51, 60
1, 4871, Note_on_c, 0, 51, 0
1, 4872, Note_on_c, 0, 59, 60
1, 4893, Note_on_c, 0, 71, 0
1, 4895, Note_on_c, 0, 59, 0
1, 4896, Note_on_c, 0, 71, 66
1, 4896, Note_on_c, 0, 47, 61
1, 4919, Note_on_c, 0, 47, 0
1, 4920, Note_on_c, 0, 59, 61
1, 4941, Note_on_c, 0, 71, 0
1, 4943, Note_on_c, 0, 59, 0
1, 4944, Note_on_c, 0, 71, 66
1, 4944, Note_on_c, 0, 51, 62
1, 4967, Note_on_c, 0, 51, 0
1, 4968, Note_on_c, 0, 59, 62
1, 4989, Note_on_c, 0, 71, 0
1, 4991, Note_on_c, 0, 59, 0
1, 4992, Note_on_c, 0, 47, 63
1, 5015, Note_on_c, 0, 47, 0
1, 5016, Note_on_c, 0, 59, 64
1, 5039, Note_on_c, 0, 59, 0
1, 5040, Note_on_c, 0, 73, 67
1, 5040, Note_on_c, 0, 71, 67
1, 5040, Note_on_c, 0, 52, 64
1, 5063, Note_on_c, 0, 52, 0
1, 5064, Note_on_c, 0, 59, 65
1, 5085, Note_on_c, 0, 73, 0
1, 5085, Note_on_c, 0, 71, 0
1, 5087, Note_on_c, 0, 59, 0
1, 5088, Note_on_c, 0, 73, 67
1, 5088, Note_on_c, 0, 71, 67
1, 5088, Note_on_c, 0, 47, 65
1, 5111, Note_on_c, 0, 47, 0
1, 5112, Note_on_c, 0, 59, 66
1, 5133, Note_on_c, 0, 73, 0
1, 5133, Note_on_c, 0, 71, 0
1, 5135, Note_on_c, 0, 59, 0
1, 5136, Note_on_c, 0, 73, 68
1, 5136, Note_on_c, 0, 71, 68
1, 5136, Note_on_c, 0, 52, 66
1, 5159, Note_on_c, 0, 52, 0
1, 5160, Note_on_c, 0, 59, 67
1, 5181, Note_on_c, 0, 73, 0
1, 5181, Note_on_c, 0, 71, 0
1, 5183, Note_on_c, 0, 59, 0
1, 5184, Note_on_c, 0, 47, 68
1, 5207, Note_on_c, 0, 47, 0
1, 5208, Note_on_c, 0, 59, 68
1, 5231, Note_on_c, 0, 59, 0
1, 5232, Note_on_c, 0, 73, 69
1, 5232, Note_on_c, 0, 69, 69
1, 5232, Note_on_c, 0, 54, 69
1, 5255, Note_on_c, 0, 54, 0
1, 5256, Note_on_c, 0, 59, 69
1, 5277, Note_on_c, 0, 73, 0
1, 5277, Note_on_c, 0, 69, 0
1, 5279, Note_on_c, 0, 59, 0
1, 5280, Note_on_c, 0, 73, 69
1, 5280, Note_on_c, 0, 69, 69
1, 5280, Note_on_c, 0, 47, 70
1, 5303, Note_on_c, 0, 47, 0
1, 5304, Note_on_c, 0, 59, 71
1, 5325, Note_on_c, 0, 73, 0
1, 5325, Note_on_c, 0, 69, 0
1, 5327, Note_on_c, 0, 59, 0
1, 5328, Note_on_c, 0, 73, 69
1, 5328, Note_on_c, 0, 69, 69
1, 5328, Note_on_c, 0, 54, 71
1, 5351, Note_on_c, 0, 54, 0
1, 5352, Note_on_c, 0, 59, 72
1, 5373, Note_on_c, 0, 73, 0
1, 5373, Note_on_c, 0, 69, 0
1, 5375, Note_on_c, 0, 59, 0
1, 5376, Note_on_c, 0, 47, 72
1, 5399, Note_on_c, 0, 47, 0
1, 5400, Note_on_c, 0, 59, 73
1, 5423, Note_on_c, 0, 59, 0
1, 5424, Note_on_c, 0, 75, 70
1, 5424, Note_on_c, 0, 69, 70
1, 5424, Note_on_c, 0, 54, 73
1, 5447, Note_on_c, 0, 54, 0
1, 5448, Note_on_c, 0, 59, 74
1, 5469, Note_on_c, 0, 75, 0
1, 5469, Note_on_c, 0, 69, 0
1, 5471, Note_on_c, 0, 59, 0
1, 5472, Note_on_c, 0, 75, 70
1, 5472, Note_on_c, 0, 69, 70
1, 5472, Note_on_c, 0, 47, 75
1, 5495, Note_on_c, 0, 47, 0
1, 5496, Note_on_c, 0, 59, 75
1, 5517, Note_on_c, 0, 75, 0
1, 5517, Note_on_c, 0, 69, 0
1, 5519, Note_on_c, 0, 59, 0
1, 5520, Note_on_c, 0, 75, 71
1, 5520, Note_on_c, 0, 69, 71
1, 5520, Note_on_c, 0, 54, 76
1, 5543, Note_on_c, 0, 54, 0
1, 5544, Note_on_c, 0, 59, 76
1, 5565, Note_on_c, 0, 75, 0
1, 5565, Note_on_c, 0, 69, 0
1, 5567, Note_on_c, 0, 59, 0
1, 5568, Note_on_c, 0, 68, 71
1, 5568, Note_on_c, 0, 52, 77
1, 5576, Note_on_c, 0, 71, 71
1, 5584, Note_on_c, 0, 76, 71
1, 5591, Note_on_c, 0, 52, 0
1, 5592, Note_on_c, 0, 59, 78
1, 5615, Note_on_c, 0, 59, 0
1, 5616, Note_on_c, 0, 56, 78
1, 5639, Note_on_c, 0, 56, 0
1, 5640, Note_on_c, 0, 59, 78
1, 5661, Note_on_c, 0, 76, 0
1, 5661, Note_on_c, 0, 71, 0
1, 5661, Note_on_c, 0, 68, 0
1, 5663, Note_on_c, 0, 59, 0
1, 5664, Note_on_c, 0, 71, 72
1, 5664, Note_on_c, 0, 51, 78
1, 5670, Note_on_c, 0, 75, 72
1, 5676, Note_on_c, 0, 78, 72
1, 5682, Note_on_c, 0, 81, 72
1, 5687, Note_on_c, 0, 51, 0
1, 5688, Note_on_c, 0, 59, 78
1, 5711, Note_on_c, 0, 59, 0
1, 5712, Note_on_c, 0, 54, 78
1, 5735, Note_on_c, 0, 54, 0
1, 5736, Note_on_c, 0, 59, 78
1, 5757, Note_on_c, 0, 81, 0
1, 5757, Note_on_c, 0, 78, 0
1, 5757, Note_on_c, 0, 75, 0
1, 5757, Note_on_c, 0, 71, 0
1, 5759, Note_on_c, 0, 59, 0
1, 5760, Note_on_c, 0, 71, 72
1, 5760, Note_on_c, 0, 52, 78
1, 5768, Note_on_c, 0, 76, 72
1, 5776, Note_on_c, 0, 80, 72
1, 5783, Note_on_c, 0, 52, 0
1, 5784, Note_on_c, 0, 59, 78
1, 5807, Note_on_c, 0, 59, 0
1, 5808, Note_on_c, 0, 56, 78
1, 5831, Note_on_c, 0, 56, 0
1, 5832, Note_on_c, 0, 59, 78
1, 5853, Note_on_c, 0, 80, 0
1, 5853, Note_on_c, 0, 76, 0
1, 5853, Note_on_c, 0, 71, 0
1, 5855, Note_on_c, 0, 59, 0
1, 5856, Note_on_c, 0, 69, 72
1, 5856, Note_on_c, 0, 54, 78
1, 5864, Note_on_c, 0, 75, 72
1, 5872, Note_on_c, 0, 78, 72
1, 5879, Note_on_c, 0, 54, 0
1, 5880, Note_on_c, 0, 59, 78
1, 5903, Note_on_c, 0, 59, 0
1, 5904, Note_on_c, 0, 57, 78
1, 5927, Note_on_c, 0, 57, 0
1, 5928, Note_on_c, 0, 59, 78
1, 5949, Note_on_c, 0, 78, 0
1, 5949, Note_on_c, 0, 75, 0
1, 5949, Note_on_c, 0, 69, 0
1, 5951, Note_on_c, 0, 59, 0
1, 5952, Note_on_c, 0, 68, 72
1, 5952, Note_on_c, 0, 52, 78
1, 5960, Note_on_c, 0, 71, 72
1, 5968, Note_on_c, 0, 76, 72
1, 5975, Note_on_c, 0, 52, 0
1, 5976, Note_on_c, 0, 59, 78
1, 5999, Note_on_c, 0, 59, 0
1, 6000, Note_on_c, 0, 56, 78
1, 6023, Note_on_c, 0, 56, 0
1, 6024, Note_on_c, 0, 59, 78
1, 6045, Note_on_c, 0, 76, 0
1, 6045, Note_on_c, 0, 71, 0
1, 6045, Note_on_c, 0, 68, 0
1, 6047, Note_on_c, 0, 59, 0
1, 6048, Note_on_c, 0, 71, 72
1, 6048, Note_on_c, 0, 51, 78
1, 6054, Note_on_c, 0, 75, 72
1, 6060, Note_on_c, 0, 78, 72
1, 6066, Note_on_c, 0, 81, 72
1, 6071, Note_on_c, 0, 51, 0
1, 6072, Note_on_c, 0, 59, 78
1, 6095, Note_on_c, 0, 59, 0
1, 6096, Note_on_c, 0, 54, 78
1, 6119, Note_on_c, 0, 54, 0
1, 6120, Note_on_c, 0, 59, 78
1, 6141, Note_on_c, 0, 81, 0
1, 6141, Note_on_c, 0, 78, 0
1, 6141, Note_on_c, 0, 75, 0
1, 6141, Note_on_c, 0, 71, 0
1, 6143, Note_on_c, 0, 59, 0
1, 6144, Note_on_c, 0, 71, 72
1, 6144, Note_on_c, 0, 52, 78
1, 6152, Note_on_c, 0, 76, 72
1, 6160, Note_on_c, 0, 80, 72
1, 6167, Note_on_c, 0, 52, 0
1, 6168, Note_on_c, 0, 59, 78
1, 6191, Note_on_c, 0, 59, 0
1, 6192, Note_on_c, 0, 56, 78
1, 6215, Note_on_c, 0, 56, 0
1, 6216, Note_on_c, 0, 59, 78
1, 6237, Note_on_c, 0, 80, 0
1, 6237, Note_on_c, 0, 76, 0
1, 6237, Note_on_c, 0, 71, 0
1, 6239, Note_on_c, 0, 59, 0
1, 6240, Note_on_c, 0, 69, 72
1, 6240, Note_on_c, 0, 54, 78
1, 6248, Note_on_c, 0, 75, 72
1, 6256, Note_on_c, 0, 78, 72
1, 6263, Note_on_c, 0, 54, 0
1, 6264, Note_on_c, 0, 59, 78
1, 6287, Note_on_c, 0, 59, 0
1, 6288, Note_on_c, 0, 57, 78
1, 6311, Note_on_c, 0, 57, 0
1, 6312, Note_on_c, 0, 59, 78
1, 6333, Note_on_c, 0, 78, 0
1, 6333, Note_on_c, 0, 75, 0
1, 6333, Note_on_c, 0, 69, 0
1, 6335, Note_on_c, 0, 59, 0
1, 6336, Note_on_c, 0, 76, 72
1, 6336, Note_on_c, 0, 56, 78
1, 6359, Note_on_c, 0, 76, 0
1, 6360, Note_on_c, 0, 80, 72
1, 6383, Note_on_c, 0, 80, 0
1, 6384, Note_on_c, 0, 71, 72
1, 6407, Note_on_c, 0, 71, 0
1, 6408, Note_on_c, 0, 76, 72
1, 6425, Note_on_c, 0, 56, 0
1, 6431, Note_on_c, 0, 76, 0
1, 6432, Note_on_c, 0, 68, 72
1, 6455, Note_on_c, 0, 68, 0
1, 6456, Note_on_c, 0, 71, 72
1, 6479, Note_on_c, 0, 71, 0
1, 6480, Note_on_c, 0, 64, 72
1, 6503, Note_on_c, 0, 64, 0
1, 6504, Note_on_c, 0, 68, 72
1, 6527, Note_on_c, 0, 68, 0
1, 6528, Note_on_c, 0, 73, 72
1, 6528, Note_on_c, 0, 57, 78
1, 6551, Note_on_c, 0, 73, 0
1, 6552, Note_on_c, 0, 76, 72
1, 6575, Note_on_c, 0, 76, 0
1, 6576, Note_on_c, 0, 69, 72
1, 6599, Note_on_c, 0, 69, 0
1, 6600, Note_on_c, 0, 73, 72
1, 6617, Note_on_c, 0, 57, 0
1, 6623, Note_on_c, 0, 73, 0
1, 6624, Note_on_c, 0, 66, 72
1, 6647, Note_on_c, 0, 66, 0
1, 6648, Note_on_c, 0, 69, 72
1, 6671, Note_on_c, 0, 69, 0
1, 6672, Note_on_c, 0, 61, 72
1, 6695, Note_on_c, 0, 61, 0
1, 6696, Note_on_c, 0, 66, 72
1, 6719, Note_on_c, 0, 66, 0
1, 6720, Note_on_c, 0, 64, 72
1, 6720, Note_on_c, 0, 56, 78
1, 6720, Note_on_c, 0, 47, 78
1, 6765, Note_on_c, 0, 56, 0
1, 6765, Note_on_c, 0, 47, 0
1, 6768, Note_on_c, 0, 56, 78
1, 6768, Note_on_c, 0, 47, 78
1, 6809, Note_on_c, 0, 64, 0
1, 6813, Note_on_c, 0, 56, 0
1, 6813, Note_on_c, 0, 47, 0
1, 6816, Note_on_c, 0, 63, 72
1, 6816, Note_on_c, 0, 54, 78
1, 6816, Note_on_c, 0, 47, 78
1, 6827, Note_on_c, 0, 63, 0
1, 6827, Note_on_c, 0, 64, 72
1, 6838, Note_on_c, 0, 64, 0
1, 6838, Note_on_c, 0, 63, 72
1, 6849, Note_on_c, 0, 63, 0
1, 6849, Note_on_c, 0, 64, 72
1, 6860, Note_on_c, 0, 64, 0
1, 6860, Note_on_c, 0, 63, 72
1, 6861, Note_on_c, 0, 54, 0
1, 6861, Note_on_c, 0, 47, 0
1, 6864, Note_on_c, 0, 54, 78
1, 6864, Note_on_c, 0, 47, 78
1, 6871, Note_on_c, 0, 63, 0
1, 6871, Note_on_c, 0, 64, 72
1, 6882, Note_on_c, 0, 64, 0
1, 6882, Note_on_c, 0, 63, 72
1, 6892, Note_on_c, 0, 63, 0
1, 6892, Note_on_c, 0, 61, 72
1, 6902, Note_on_c, 0, 61, 0
1, 6902, Note_on_c, 0, 63, 72
1, 6909, Note_on_c, 0, 54, 0
1, 6909, Note_on_c, 0, 47, 0
1, 6912, Note_on_c, 0, 63, 0
1, 6912, Note_on_c, 0, 64, 72
1, 6912, Note_on_c, 0, 52, 78
1, 6912, Note_on_c, 0, 40, 78
1, 7001, Note_on_c, 0, 64, 0
1, 7001, Note_on_c, 0, 52, 0
1, 7001, Note_on_c, 0, 40, 0
1, 7104, Note_on_c, 0, 67, 66
1, 7112, Note_on_c, 0, 71, 66
1, 7120, Note_on_c, 0, 76, 66
1, 7152, Note_on_c, 0, 52, 66
1, 7152, Note_on_c, 0, 40, 66
1, 7197, Note_on_c, 0, 76, 0
1, 7197, Note_on_c, 0, 71, 0
1, 7197, Note_on_c, 0, 67, 0
1, 7197, Note_on_c, 0, 52, 0
1, 7197, Note_on_c, 0, 40, 0
1, 7200, Note_on_c, 0, 55, 66
1, 7200, Note_on_c, 0, 43, 66
1, 7245, Note_on_c, 0, 55, 0
1, 7245, Note_on_c, 0, 43, 0
1, 7248, Note_on_c, 0, 76, 66
1, 7248, Note_on_c, 0, 67, 66
1, 7248, Note_on_c, 0, 52, 66
1, 7248, Note_on_c, 0, 40, 66
1, 7293, Note_on_c, 0, 76, 0
1, 7293, Note_on_c, 0, 67, 0
1, 7293, Note_on_c, 0, 52, 0
1, 7293, Note_on_c, 0, 40, 0
1, 7296, Note_on_c, 0, 76, 66
1, 7296, Note_on_c, 0, 67, 66
1, 7320, Note_on_c, 0, 76, 0
1, 7320, Note_on_c, 0, 67, 0
1, 7320, Note_on_c, 0, 75, 66
1, 7320, Note_on_c, 0, 66, 66
1, 7343, Note_on_c, 0, 75, 0
1, 7343, Note_on_c, 0, 66, 0
1, 7344, Note_on_c, 0, 75, 66
1, 7344, Note_on_c, 0, 66, 66
1, 7344, Note_on_c, 0, 59, 66
1, 7344, Note_on_c, 0, 47, 66
1, 7389, Note_on_c, 0, 75, 0
1, 7389, Note_on_c, 0, 66, 0
1, 7389, Note_on_c, 0, 59, 0
1, 7389, Note_on_c, 0, 47, 0
1, 7392, Note_on_c, 0, 63, 66
1, 7392, Note_on_c, 0, 51, 66
1, 7437, Note_on_c, 0, 63, 0
1, 7437, Note_on_c, 0, 51, 0
1, 7440, Note_on_c, 0, 59, 66
1, 7440, Note_on_c, 0, 47, 66
1, 7485, Note_on_c, 0, 59, 0
1, 7485, Note_on_c, 0, 47, 0
1, 7488, Note_on_c, 0, 71, 66
1, 7494, Note_on_c, 0, 75, 66
1, 7500, Note_on_c, 0, 78, 66
1, 7506, Note_on_c, 0, 81, 66
1, 7536, Note_on_c, 0, 59, 66
1, 7536, Note_on_c, 0, 47, 66
1, 7581, Note_on_c, 0, 81, 0
1, 7581, Note_on_c, 0, 78, 0
1, 7581, Note_on_c, 0, 75, 0
1, 7581, Note_on_c, 0, 71, 0
1, 7581, Note_on_c, 0, 59, 0
1, 7581, Note_on_c, 0, 47, 0
1, 7584, Note_on_c, 0, 63, 66
1, 7584, Note_on_c, 0, 51, 66
1, 7629, Note_on_c, 0, 63, 0
1, 7629, Note_on_c, 0, 51, 0
1, 7632, Note_on_c, 0, 81, 66
1, 7632, Note_on_c, 0, 78, 66
1, 7632, Note_on_c, 0, 59, 66
1, 7632, Note_on_c, 0, 47, 66
1, 7677, Note_on_c, 0, 81, 0
1, 7677, Note_on_c, 0, 78, 0
1, 7677, Note_on_c, 0, 59, 0
1, 7677, Note_on_c, 0, 47, 0
1, 7680, Note_on_c, 0, 81, 66
1, 7680, Note_on_c, 0, 78, 66
1, 7704, Note_on_c, 0, 81, 0
1, 7704, Note_on_c, 0, 78, 0
1, 7704, Note_on_c, 0, 79, 66
1, 7704, Note_on_c, 0, 76, 66
1, 7727, Note_on_c, 0, 79, 0
1, 7727, Note_on_c, 0, 76, 0
1, 7728, Note_on_c, 0, 79, 66
1, 7728, Note_on_c, 0, 76, 66
1, 7728, Note_on_c, 0, 52, 66
1, 7728, Note_on_c, 0, 40, 66
1, 7773, Note_on_c, 0, 79, 0
1, 7773, Note_on_c, 0, 76, 0
1, 7773, Note_on_c, 0, 52, 0
1, 7773, Note_on_c, 0, 40, 0
1, 7776, Note_on_c, 0, 55, 66
1, 7776, Note_on_c, 0, 43, 66
1, 7821, Note_on_c, 0, 55, 0
1, 7821, Note_on_c, 0, 43, 0
1, 7824, Note_on_c, 0, 52, 66
1, 7824, Note_on_c, 0, 40, 66
1, 7869, Note_on_c, 0, 52, 0
1, 7869, Note_on_c, 0, 40, 0
1, 7872, Note_on_c, 0, 84, 66
1, 7872, Note_on_c, 0, 81, 66
1, 7920, Note_on_c, 0, 57, 66
1, 7920, Note_on_c, 0, 45, 66
1, 7961, Note_on_c, 0, 84, 0
1, 7961, Note_on_c, 0, 81, 0
1, 7965, Note_on_c, 0, 57, 0
1, 7965, Note_on_c, 0, 45, 0
1, 7968, Note_on_c, 0, 54, 66
1, 7968, Note_on_c, 0, 42, 66
1, 8013, Note_on_c, 0, 54, 0
1, 8013, Note_on_c, 0, 42, 0
1, 8016, Note_on_c, 0, 84, 66
1, 8016, Note_on_c, 0, 81, 66
1, 8016, Note_on_c, 0, 50, 66
1, 8016, Note_on_c, 0, 38, 66
1, 8061, Note_on_c, 0, 84, 0
1, 8061, Note_on_c, 0, 81, 0
1, 8061, Note_on_c, 0, 50, 0
1, 8061, Note_on_c, 0, 38, 0
1, 8064, Note_on_c, 0, 84, 66
1, 8064, Note_on_c, 0, 81, 66
1, 8088, Note_on_c, 0, 84, 0
1, 8088, Note_on_c, 0, 81, 0
1, 8088, Note_on_c, 0, 83, 66
1, 8088, Note_on_c, 0, 79, 66
1, 8111, Note_on_c, 0, 83, 0
1, 8111, Note_on_c, 0, 79, 0
1, 8112, Note_on_c, 0, 83, 66
1, 8112, Note_on_c, 0, 79, 66
1, 8112, Note_on_c, 0, 55, 66
1, 8112, Note_on_c, 0, 43, 66
1, 8157, Note_on_c, 0, 83, 0
1, 8157, Note_on_c, 0, 79, 0
1, 8157, Note_on_c, 0, 55, 0
1, 8157, Note_on_c, 0, 43, 0
1, 8160, Note_on_c, 0, 52, 67
1, 8160, Note_on_c, 0, 40, 67
1, 8205, Note_on_c, 0, 52, 0
1, 8205, Note_on_c, 0, 40, 0
1, 8208, Note_on_c, 0, 83, 68
1, 8208, Note_on_c, 0, 79, 68
1, 8208, Note_on_c, 0, 48, 68
1, 8208, Note_on_c, 0, 36, 68
1, 8253, Note_on_c, 0, 83, 0
1, 8253, Note_on_c, 0, 79, 0
1, 8253, Note_on_c, 0, 48, 0
1, 8253, Note_on_c, 0, 36, 0
1, 8256, Note_on_c, 0, 83, 69
1, 8256, Note_on_c, 0, 79, 69
1, 8280, Note_on_c, 0, 83, 0
1, 8280, Note_on_c, 0, 79, 0
1, 8280, Note_on_c, 0, 81, 70
1, 8280, Note_on_c, 0, 78, 70
1, 8303, Note_on_c, 0, 81, 0
1, 8303, Note_on_c, 0, 78, 0
1, 8304, Note_on_c, 0, 81, 70
1, 8304, Note_on_c, 0, 78, 70
1, 8304, Note_on_c, 0, 54, 70
1, 8304, Note_on_c, 0, 42, 70
1, 8349, Note_on_c, 0, 81, 0
1, 8349, Note_on_c, 0, 78, 0
1, 8349, Note_on_c, 0, 54, 0
1, 8349, Note_on_c, 0, 42, 0
1, 8352, Note_on_c, 0, 51, 71
1, 8352, Note_on_c, 0, 39, 71
1, 8397, Note_on_c, 0, 51, 0
1, 8397, Note_on_c, 0, 39, 0
1, 8400, Note_on_c, 0, 81, 72
1, 8400, Note_on_c, 0, 78, 72
1, 8400, Note_on_c, 0, 47, 72
1, 8400, Note_on_c, 0, 35, 72
1, 8445, Note_on_c, 0, 81, 0
1, 8445, Note_on_c, 0, 78, 0
1, 8445, Note_on_c, 0, 47, 0
1, 8445, Note_on_c, 0, 35, 0
1, 8448, Note_on_c, 0, 81, 73
1, 8448, Note_on_c, 0, 78, 73
1, 8472, Note_on_c, 0, 81, 0
1, 8472, Note_on_c, 0, 78, 0
1, 8472, Note_on_c, 0, 79, 74
1, 8472, Note_on_c, 0, 76, 74
1, 8495, Note_on_c, 0, 79, 0
1, 8495, Note_on_c, 0, 76, 0
1, 8496, Note_on_c, 0, 79, 74
1, 8496, Note_on_c, 0, 76, 74
1, 8496, Note_on_c, 0, 52, 74
1, 8496, Note_on_c, 0, 40, 74
1, 8541, Note_on_c, 0, 79, 0
1, 8541, Note_on_c, 0, 76, 0
1, 8541, Note_on_c, 0, 52, 0
1, 8541, Note_on_c, 0, 40, 0
1, 8544, Note_on_c, 0, 55, 75
1, 8544, Note_on_c, 0, 43, 75
1, 8589, Note_on_c, 0, 55, 0
1, 8589, Note_on_c, 0, 43, 0
1, 8592, Note_on_c, 0, 79, 76
1, 8592, Note_on_c, 0, 76, 76
1, 8592, Note_on_c, 0, 52, 76
1, 8592, Note_on_c, 0, 40, 76
1, 8637, Note_on_c, 0, 79, 0
1, 8637, Note_on_c, 0, 76, 0
1, 8637, Note_on_c, 0, 52, 0
1, 8637, Note_on_c, 0, 40, 0
1, 8640, Note_on_c, 0, 81, 77
1, 8640, Note_on_c, 0, 78, 77
1, 8664, Note_on_c, 0, 81, 0
1, 8664, Note_on_c, 0, 78, 0
1, 8664, Note_on_c, 0, 79, 77
1, 8664, Note_on_c, 0, 76, 77
1, 8687, Note_on_c, 0, 79, 0
1, 8687, Note_on_c, 0, 76, 0
1, 8688, Note_on_c, 0, 79, 78
1, 8688, Note_on_c, 0, 76, 78
1, 8688, Note_on_c, 0, 48, 78
1, 8688, Note_on_c, 0, 36, 78
1, 8733, Note_on_c, 0, 79, 0
1, 8733, Note_on_c, 0, 76, 0
1, 8733, Note_on_c, 0, 48, 0
1, 8733, Note_on_c, 0, 36, 0
1, 8736, Note_on_c, 0, 52, 79
1, 8736, Note_on_c, 0, 40, 79
1, 8781, Note_on_c, 0, 52, 0
1, 8781, Note_on_c, 0, 40, 0
1, 8784, Note_on_c, 0, 79, 80
1, 8784, Note_on_c, 0, 76, 80
1, 8784, Note_on_c, 0, 48, 80
1, 8784, Note_on_c, 0, 36, 80
1, 8829, Note_on_c, 0, 79, 0
1, 8829, Note_on_c, 0, 76, 0
1, 8829, Note_on_c, 0, 48, 0
1, 8829, Note_on_c, 0, 36, 0
1, 8832, Note_on_c, 0, 81, 81
1, 8832, Note_on_c, 0, 78, 81
1, 8856, Note_on_c, 0, 81, 0
1, 8856, Note_on_c, 0, 78, 0
1, 8856, Note_on_c, 0, 79, 81
1, 8856, Note_on_c, 0, 76, 81
1, 8879, Note_on_c, 0, 79, 0
1, 8879, Note_on_c, 0, 76, 0
1, 8880, Note_on_c, 0, 79, 82
1, 8880, Note_on_c, 0, 76, 82
1, 8880, Note_on_c, 0, 48, 82
1, 8880, Note_on_c, 0, 36, 82
1, 8925, Note_on_c, 0, 79, 0
1, 8925, Note_on_c, 0, 76, 0
1, 8925, Note_on_c, 0, 48, 0
1, 8925, Note_on_c, 0, 36, 0
1, 8928, Note_on_c, 0, 47, 83
1, 8928, Note_on_c, 0, 35, 83
1, 8973, Note_on_c, 0, 47, 0
1, 8973, Note_on_c, 0, 35, 0
1, 8976, Note_on_c, 0, 79, 84
1, 8976, Note_on_c, 0, 76, 84
1, 8976, Note_on_c, 0, 46, 84
1, 8976, Note_on_c, 0, 34, 84
1, 9021, Note_on_c, 0, 79, 0
1, 9021, Note_on_c, 0, 76, 0
1, 9021, Note_on_c, 0, 46, 0
1, 9021, Note_on_c, 0, 34, 0
1, 9024, Note_on_c, 0, 79, 85
1, 9024, Note_on_c, 0, 76, 85
1, 9024, Note_on_c, 0, 47, 85
1, 9024, Note_on_c, 0, 35, 85
1, 9034, Note_on_c, 0, 79, 0
1, 9034, Note_on_c, 0, 81, 85
1, 9044, Note_on_c, 0, 81, 0
1, 9044, Note_on_c, 0, 79, 85
1, 9054, Note_on_c, 0, 79, 0
1, 9054, Note_on_c, 0, 78, 85
1, 9063, Note_on_c, 0, 78, 0
1, 9063, Note_on_c, 0, 79, 85
1, 9069, Note_on_c, 0, 76, 0
1, 9072, Note_on_c, 0, 79, 0
1, 9072, Note_on_c, 0, 78, 85
1, 9072, Note_on_c, 0, 75, 85
1, 9113, Note_on_c, 0, 47, 0
1, 9113, Note_on_c, 0, 35, 0
1, 9117, Note_on_c, 0, 78, 0
1, 9117, Note_on_c, 0, 75, 0
1, 9216, Note_on_c, 0, 64, 85
1, 9216, Note_on_c, 0, 52, 85
1, 9216, Note_on_c, 0, 40, 85
1, 9231, Note_on_c, 0, 64, 0
1, 9232, Note_on_c, 0, 68, 85
1, 9247, Note_on_c, 0, 68, 0
1, 9248, Note_on_c, 0, 71, 85
1, 9263, Note_on_c, 0, 71, 0
1, 9264, Note_on_c, 0, 68, 85
1, 9279, Note_on_c, 0, 68, 0
1, 9280, Note_on_c, 0, 71, 85
1, 9295, Note_on_c, 0, 71, 0
1, 9296, Note_on_c, 0, 76, 85
1, 9305, Note_on_c, 0, 52, 0
1, 9305, Note_on_c, 0, 40, 0
1, 9311, Note_on_c, 0, 76, 0
1, 9312, Note_on_c, 0, 71, 85
1, 9327, Note_on_c, 0, 71, 0
1, 9328, Note_on_c, 0, 76, 85
1, 9343, Note_on_c, 0, 76, 0
1, 9344, Note_on_c, 0, 80, 85
1, 9359, Note_on_c, 0, 80, 0
1, 9360, Note_on_c, 0, 76, 85
1, 9375, Note_on_c, 0, 76, 0
1, 9376, Note_on_c, 0, 80, 85
1, 9391, Note_on_c, 0, 80, 0
1, 9392, Note_on_c, 0, 83, 85
1, 9407, Note_on_c, 0, 83, 0
1, 9408, Note_on_c, 0, 81, 85
1, 9408, Note_on_c, 0, 78, 85
1, 9456, Note_on_c, 0, 59, 85
1, 9456, Note_on_c, 0, 47, 85
1, 9497, Note_on_c, 0, 81, 0
1, 9497, Note_on_c, 0, 78, 0
1, 9501, Note_on_c, 0, 59, 0
1, 9501, Note_on_c, 0, 47, 0
1, 9504, Note_on_c, 0, 63, 85
1, 9504, Note_on_c, 0, 51, 85
1, 9549, Note_on_c, 0, 63, 0
1, 9549, Note_on_c, 0, 51, 0
1, 9552, Note_on_c, 0, 59, 85
1, 9552, Note_on_c, 0, 47, 85
1, 9597, Note_on_c, 0, 59, 0
1, 9597, Note_on_c, 0, 47, 0
1, 9600, Note_on_c, 0, 59, 85
1, 9600, Note_on_c, 0, 47, 85
1, 9600, Note_on_c, 0, 35, 85
1, 9615, Note_on_c, 0, 59, 0
1, 9616, Note_on_c, 0, 63, 85
1, 9631, Note_on_c, 0, 63, 0
1, 9632, Note_on_c, 0, 66, 85
1, 9647, Note_on_c, 0, 66, 0
1, 9648, Note_on_c, 0, 63, 85
1, 9663, Note_on_c, 0, 63, 0
1, 9664, Note_on_c, 0, 66, 85
1, 9679, Note_on_c, 0, 66, 0
1, 9680, Note_on_c, 0, 69, 85
1, 9689, Note_on_c, 0, 47, 0
1, 9689, Note_on_c, 0, 35, 0
1, 9695, Note_on_c, 0, 69, 0
1, 9696, Note_on_c, 0, 69, 85
1, 9711, Note_on_c, 0, 69, 0
1, 9712, Note_on_c, 0, 75, 85
1, 9727, Note_on_c, 0, 75, 0
1, 9728, Note_on_c, 0, 78, 85
1, 9743, Note_on_c, 0, 78, 0
1, 9744, Note_on_c, 0, 75, 85
1, 9759, Note_on_c, 0, 75, 0
1, 9760, Note_on_c, 0, 78, 85
1, 9775, Note_on_c, 0, 78, 0
1, 9776, Note_on_c, 0, 81, 85
1, 9791, Note_on_c, 0, 81, 0
1, 9792, Note_on_c, 0, 80, 85
1, 9792, Note_on_c, 0, 76, 85
1, 9840, Note_on_c, 0, 52, 85
1, 9840, Note_on_c, 0, 40, 85
1, 9881, Note_on_c, 0, 80, 0
1, 9881, Note_on_c, 0, 76, 0
1, 9885, Note_on_c, 0, 52, 0
1, 9885, Note_on_c, 0, 40, 0
1, 9888, Note_on_c, 0, 56, 85
1, 9888, Note_on_c, 0, 44, 85
1, 9933, Note_on_c, 0, 56, 0
1, 9933, Note_on_c, 0, 44, 0
1, 9936, Note_on_c, 0, 52, 85
1, 9936, Note_on_c, 0, 40, 85
1, 9981, Note_on_c, 0, 52, 0
1, 9981, Note_on_c, 0, 40, 0
1, 9984, Note_on_c, 0, 56, 72
1, 10007, Note_on_c, 0, 56, 0
1, 10008, Note_on_c, 0, 64, 72
1, 10031, Note_on_c, 0, 64, 0
1, 10032, Note_on_c, 0, 76, 78
1, 10032, Note_on_c, 0, 59, 72
1, 10055, Note_on_c, 0, 59, 0
1, 10056, Note_on_c, 0, 64, 72
1, 10077, Note_on_c, 0, 76, 0
1, 10079, Note_on_c, 0, 64, 0
1, 10080, Note_on_c, 0, 80, 78
1, 10080, Note_on_c, 0, 56, 72
1, 10103, Note_on_c, 0, 56, 0
1, 10104, Note_on_c, 0, 64, 72
1, 10125, Note_on_c, 0, 80, 0
1, 10127, Note_on_c, 0, 64, 0
1, 10128, Note_on_c, 0, 83, 78
1, 10128, Note_on_c, 0, 59, 72
1, 10151, Note_on_c, 0, 59, 0
1, 10152, Note_on_c, 0, 64, 72
1, 10173, Note_on_c, 0, 83, 0
1, 10175, Note_on_c, 0, 64, 0
1, 10176, Note_on_c, 0, 73, 78
1, 10176, Note_on_c, 0, 57, 72
1, 10187, Note_on_c, 0, 73, 0
1, 10187, Note_on_c, 0, 75, 78
1, 10198, Note_on_c, 0, 75, 0
1, 10198, Note_on_c, 0, 73, 78
1, 10199, Note_on_c, 0, 57, 0
1, 10200, Note_on_c, 0, 64, 72
1, 10209, Note_on_c, 0, 73, 0
1, 10209, Note_on_c, 0, 75, 78
1, 10220, Note_on_c, 0, 75, 0
1, 10220, Note_on_c, 0, 73, 78
1, 10223, Note_on_c, 0, 64, 0
1, 10224, Note_on_c, 0, 61, 72
1, 10231, Note_on_c, 0, 73, 0
1, 10231, Note_on_c, 0, 75, 78
1, 10242, Note_on_c, 0, 75, 0
1, 10242, Note_on_c, 0, 73, 78
1, 10247, Note_on_c, 0, 61, 0
1, 10248, Note_on_c, 0, 64, 72
1, 10253, Note_on_c, 0, 73, 0
1, 10253, Note_on_c, 0, 75, 78
1, 10264, Note_on_c, 0, 75, 0
1, 10264, Note_on_c, 0, 73, 78
1, 10271, Note_on_c, 0, 64, 0
1, 10272, Note_on_c, 0, 57, 72
1, 10275, Note_on_c, 0, 73, 0
1, 10275, Note_on_c, 0, 75, 78
1, 10286, Note_on_c, 0, 75, 0
1, 10286, Note_on_c, 0, 73, 78
1, 10295, Note_on_c, 0, 57, 0
1, 10296, Note_on_c, 0, 64, 72
1, 10297, Note_on_c, 0, 73, 0
1, 10297, Note_on_c, 0, 75, 78
1, 10308, Note_on_c, 0, 75, 0
1, 10308, Note_on_c, 0, 73, 78
1, 10319, Note_on_c, 0, 64, 0
1, 10320, Note_on_c, 0, 61, 72
1, 10343, Note_on_c, 0, 61, 0
1, 10344, Note_on_c, 0, 64, 72
1, 10367, Note_on_c, 0, 64, 0
1, 10368, Note_on_c, 0, 73, 0
1, 10368, Note_on_c, 0, 59, 72
1, 10391, Note_on_c, 0, 59, 0
1, 10392, Note_on_c, 0, 68, 72
1, 10415, Note_on_c, 0, 68, 0
1, 10416, Note_on_c, 0, 76, 78
1, 10416, Note_on_c, 0, 64, 72
1, 10439, Note_on_c, 0, 64, 0
1, 10440, Note_on_c, 0, 68, 72
1, 10461, Note_on_c, 0, 76, 0
1, 10463, Note_on_c, 0, 68, 0
1, 10464, Note_on_c, 0, 80, 78
1, 10464, Note_on_c, 0, 59, 72
1, 10487, Note_on_c, 0, 59, 0
1, 10488, Note_on_c, 0, 68, 72
1, 10509, Note_on_c, 0, 80, 0
1, 10511, Note_on_c, 0, 68, 0
1, 10512, Note_on_c, 0, 83, 78
1, 10512, Note_on_c, 0, 64, 72
1, 10535, Note_on_c, 0, 64, 0
1, 10536, Note_on_c, 0, 68, 72
1, 10557, Note_on_c, 0, 83, 0
1, 10559, Note_on_c, 0, 68, 0
1, 10560, Note_on_c, 0, 76, 78
1, 10560, Note_on_c, 0, 61, 72
1, 10571, Note_on_c, 0, 76, 0
1, 10571, Note_on_c, 0, 78, 78
1, 10582, Note_on_c, 0, 78, 0
1, 10582, Note_on_c, 0, 76, 78
1, 10583, Note_on_c, 0, 61, 0
1, 10584, Note_on_c, 0, 68, 72
1, 10593, Note_on_c, 0, 76, 0
1, 10593, Note_on_c, 0, 78, 78
1, 10604, Note_on_c, 0, 78, 0
1, 10604, Note_on_c, 0, 76, 78
1, 10607, Note_on_c, 0, 68, 0
1, 10608, Note_on_c, 0, 64, 72
1, 10615, Note_on_c, 0, 76, 0
1, 10615, Note_on_c, 0, 78, 78
1, 10626, Note_on_c, 0, 78, 0
1, 10626, Note_on_c, 0, 76, 78
1, 10631, Note_on_c, 0, 64, 0
1, 10632, Note_on_c, 0, 68, 72
1, 10637, Note_on_c, 0, 76, 0
1, 10637, Note_on_c, 0, 78, 78
1, 10648, Note_on_c, 0, 78, 0
1, 10648, Note_on_c, 0, 76, 78
1, 10655, Note_on_c, 0, 68, 0
1, 10656, Note_on_c, 0, 61, 72
1, 10659, Note_on_c, 0, 76, 0
1, 10659, Note_on_c, 0, 78, 78
1, 10670, Note_on_c, 0, 78, 0
1, 10670, Note_on_c, 0, 76, 78
1, 10679, Note_on_c, 0, 61, 0
1, 10680, Note_on_c, 0, 68, 72
1, 10681, Note_on_c, 0, 76, 0
1, 10681, Note_on_c, 0, 78, 78
1, 10692, Note_on_c, 0, 78, 0
1, 10692, Note_on_c, 0, 76, 78
1, 10703, Note_on_c, 0, 68, 0
1, 10704, Note_on_c, 0, 64, 72
1, 10727, Note_on_c, 0, 64, 0
1, 10728, Note_on_c, 0, 68, 72
1, 10751, Note_on_c, 0, 68, 0
1, 10752, Note_on_c, 0, 76, 0
1, 10752, Note_on_c, 0, 56, 72
1, 10775, Note_on_c, 0, 56, 0
1, 10776, Note_on_c, 0, 64, 72
1, 10799, Note_on_c, 0, 64, 0
1, 10800, Note_on_c, 0, 76, 78
1, 10800, Note_on_c, 0, 59, 72
1, 10823, Note_on_c, 0, 59, 0
1, 10824, Note_on_c, 0, 64, 72
1, 10845, Note_on_c, 0, 76, 0
1, 10847, Note_on_c, 0, 64, 0
1, 10848, Note_on_c, 0, 80, 78
1, 10848, Note_on_c, 0, 56, 72
1, 10871, Note_on_c, 0, 56, 0
1, 10872, Note_on_c, 0, 64, 72
1, 10893, Note_on_c, 0, 80, 0
1, 10895, Note_on_c, 0, 64, 0
1, 10896, Note_on_c, 0, 83, 78
1, 10896, Note_on_c, 0, 59, 72
1, 10919, Note_on_c, 0, 59, 0
1, 10920, Note_on_c, 0, 64, 72
1, 10941, Note_on_c, 0, 83, 0
1, 10943, Note_on_c, 0, 64, 0
1, 10944, Note_on_c, 0, 83, 78
1, 10944, Note_on_c, 0, 57, 72
1, 10967, Note_on_c, 0, 57, 0
1, 10968, Note_on_c, 0, 64, 72
1, 10989, Note_on_c, 0, 83, 0
1, 10991, Note_on_c, 0, 64, 0
1, 10992, Note_on_c, 0, 84, 78
1, 10992, Note_on_c, 0, 61, 72
1, 11015, Note_on_c, 0, 61, 0
1, 11016, Note_on_c, 0, 64, 72
1, 11037, Note_on_c, 0, 84, 0
1, 11039, Note_on_c, 0, 64, 0
1, 11040, Note_on_c, 0, 85, 78
1, 11040, Note_on_c, 0, 57, 72
1, 11063, Note_on_c, 0, 57, 0
1, 11064, Note_on_c, 0, 64, 72
1, 11085, Note_on_c, 0, 85, 0
1, 11087, Note_on_c, 0, 64, 0
1, 11088, Note_on_c, 0, 81, 78
1, 11088, Note_on_c, 0, 61, 72
1, 11111, Note_on_c, 0, 61, 0
1, 11112, Note_on_c, 0, 64, 72
1, 11133, Note_on_c, 0, 81, 0
1, 11135, Note_on_c, 0, 64, 0
1, 11136, Note_on_c, 0, 81, 78
1, 11136, Note_on_c, 0, 59, 72
1, 11159, Note_on_c, 0, 81, 0
1, 11159, Note_on_c, 0, 59, 0
1, 11160, Note_on_c, 0, 80, 78
1, 11160, Note_on_c, 0, 68, 72
1, 11183, Note_on_c, 0, 80, 0
1, 11183, Note_on_c, 0, 68, 0
1, 11184, Note_on_c, 0, 78, 78
1, 11184, Note_on_c, 0, 64, 72
1, 11207, Note_on_c, 0, 78, 0
1, 11207, Note_on_c, 0, 64, 0
1, 11208, Note_on_c, 0, 76, 78
1, 11208, Note_on_c, 0, 68, 72
1, 11231, Note_on_c, 0, 76, 0
1, 11231, Note_on_c, 0, 68, 0
1, 11232, Note_on_c, 0, 80, 78
1, 11232, Note_on_c, 0, 59, 72
1, 11255, Note_on_c, 0, 80, 0
1, 11255, Note_on_c, 0, 59, 0
1, 11256, Note_on_c, 0, 78, 78
1, 11256, Note_on_c, 0, 69, 72
1, 11279, Note_on_c, 0, 78, 0
1, 11279, Note_on_c, 0, 69, 0
1, 11280, Note_on_c, 0, 76, 78
1, 11280, Note_on_c, 0, 66, 72
1, 11303, Note_on_c, 0, 76, 0
1, 11303, Note_on_c, 0, 66, 0
1, 11304, Note_on_c, 0, 75, 78
1, 11304, Note_on_c, 0, 69, 72
1, 11327, Note_on_c, 0, 75, 0
1, 11327, Note_on_c, 0, 69, 0
1, 11328, Note_on_c, 0, 76, 78
1, 11328, Note_on_c, 0, 68, 72
1, 11328, Note_on_c, 0, 64, 72
1, 11373, Note_on_c, 0, 76, 0
1, 11376, Note_on_c, 0, 80, 85
1, 11376, Note_on_c, 0, 76, 85
1, 11391, Note_on_c, 0, 80, 0
1, 11391, Note_on_c, 0, 76, 0
1, 11392, Note_on_c, 0, 81, 85
1, 11392, Note_on_c, 0, 78, 85
1, 11407, Note_on_c, 0, 81, 0
1, 11407, Note_on_c, 0, 78, 0
1, 11408, Note_on_c, 0, 83, 85
1, 11408, Note_on_c, 0, 80, 85
1, 11417, Note_on_c, 0, 68, 0
1, 11417, Note_on_c, 0, 64, 0
1, 11423, Note_on_c, 0, 83, 0
1, 11423, Note_on_c, 0, 80, 0
1, 11424, Note_on_c, 0, 81, 85
1, 11424, Note_on_c, 0, 78, 85
1, 11469, Note_on_c, 0, 81, 0
1, 11469, Note_on_c, 0, 78, 0
1, 11472, Note_on_c, 0, 75, 85
1, 11472, Note_on_c, 0, 69, 85
1, 11472, Note_on_c, 0, 59, 85
1, 11517, Note_on_c, 0, 75, 0
1, 11517, Note_on_c, 0, 69, 0
1, 11517, Note_on_c, 0, 59, 0
1, 11520, Note_on_c, 0, 76, 85
1, 11520, Note_on_c, 0, 68, 85
1, 11520, Note_on_c, 0, 52, 85
1, 11565, Note_on_c, 0, 76, 0
1, 11565, Note_on_c, 0, 68, 0
1, 11568, Note_on_c, 0, 68, 85
1, 11568, Note_on_c, 0, 64, 85
1, 11583, Note_on_c, 0, 68, 0
1, 11583, Note_on_c, 0, 64, 0
1, 11584, Note_on_c, 0, 69, 85
1, 11584, Note_on_c, 0, 66, 85
1, 11599, Note_on_c, 0, 69, 0
1, 11599, Note_on_c, 0, 66, 0
1, 11600, Note_on_c, 0, 71, 85
1, 11600, Note_on_c, 0, 68, 85
1, 11609, Note_on_c, 0, 52, 0
1, 11615, Note_on_c, 0, 71, 0
1, 11615, Note_on_c, 0, 68, 0
1, 11616, Note_on_c, 0, 69, 85
1, 11616, Note_on_c, 0, 66, 85
1, 11661, Note_on_c, 0, 69, 0
1, 11661, Note_on_c, 0, 66, 0
1, 11664, Note_on_c, 0, 63, 85
1, 11664, Note_on_c, 0, 57, 85
1, 11664, Note_on_c, 0, 47, 85
1, 11709, Note_on_c, 0, 63, 0
1, 11709, Note_on_c, 0, 57, 0
1, 11709, Note_on_c, 0, 47, 0
1, 11712, Note_on_c, 0, 64, 85
1, 11712, Note_on_c, 0, 56, 85
1, 11712, Note_on_c, 0, 40, 85
1, 11801, Note_on_c, 0, 64, 0
1, 11801, Note_on_c, 0, 56, 0
1, 11801, Note_on_c, 0, 40, 0
1, 11904, Note_on_c, 0, 69, 78
1, 11904, Note_on_c, 0, 61, 66
1, 11904, Note_on_c, 0, 57, 66
1, 11927, Note_on_c, 0, 69, 0
1, 11928, Note_on_c, 0, 71, 78
1, 11949, Note_on_c, 0, 61, 0
1, 11949, Note_on_c, 0, 57, 0
1, 11951, Note_on_c, 0, 71, 0
1, 11952, Note_on_c, 0, 73, 78
1, 11952, Note_on_c, 0, 61, 66
1, 11952, Note_on_c, 0, 57, 66
1, 11975, Note_on_c, 0, 73, 0
1, 11976, Note_on_c, 0, 74, 78
1, 11997, Note_on_c, 0, 61, 0
1, 11997, Note_on_c, 0, 57, 0
1, 11999, Note_on_c, 0, 74, 0
1, 12000, Note_on_c, 0, 76, 78
1, 12000, Note_on_c, 0, 61, 66
1, 12000, Note_on_c, 0, 57, 66
1, 12023, Note_on_c, 0, 76, 0
1, 12024, Note_on_c, 0, 78, 78
1, 12045, Note_on_c, 0, 61, 0
1, 12045, Note_on_c, 0, 57, 0
1, 12047, Note_on_c, 0, 78, 0
1, 12048, Note_on_c, 0, 80, 78
1, 12048, Note_on_c, 0, 61, 66
1, 12048, Note_on_c, 0, 57, 66
1, 12071, Note_on_c, 0, 80, 0
1, 12072, Note_on_c, 0, 81, 78
1, 12093, Note_on_c, 0, 61, 0
1, 12093, Note_on_c, 0, 57, 0
1, 12095, Note_on_c, 0, 81, 0
1, 12096, Note_on_c, 0, 78, 78
1, 12096, Note_on_c, 0, 62, 66
1, 12096, Note_on_c, 0, 57, 66
1, 12106, Note_on_c, 0, 78, 0
1, 12106, Note_on_c, 0, 80, 78
1, 12116, Note_on_c, 0, 80, 0
1, 12116, Note_on_c, 0, 78, 78
1, 12126, Note_on_c, 0, 78, 0
1, 12126, Note_on_c, 0, 76, 78
1, 12135, Note_on_c, 0, 76, 0
1, 12135, Note_on_c, 0, 78, 78
1, 12141, Note_on_c, 0, 62, 0
1, 12141, Note_on_c, 0, 57, 0
1, 12144, Note_on_c, 0, 78, 0
1, 12144, Note_on_c, 0, 76, 78
1, 12144, Note_on_c, 0, 61, 66
1, 12144, Note_on_c, 0, 57, 66
1, 12189, Note_on_c, 0, 76, 0
1, 12189, Note_on_c, 0, 61, 0
1, 12189, Note_on_c, 0, 57, 0
1, 12192, Note_on_c, 0, 61, 66
1, 12192, Note_on_c, 0, 57, 66
1, 12237, Note_on_c, 0, 61, 0
1, 12237, Note_on_c, 0, 57, 0
1, 12240, Note_on_c, 0, 83, 78
1, 12240, Note_on_c, 0, 61, 66
1, 12240, Note_on_c, 0, 57, 66
1, 12252, Note_on_c, 0, 83, 0
1, 12252, Note_on_c, 0, 81, 78
1, 12264, Note_on_c, 0, 81, 0
1, 12264, Note_on_c, 0, 80, 78
1, 12276, Note_on_c, 0, 80, 0
1, 12276, Note_on_c, 0, 81, 78
1, 12285, Note_on_c, 0, 61, 0
1, 12285, Note_on_c, 0, 57, 0
1, 12288, Note_on_c, 0, 81, 0
1, 12288, Note_on_c, 0, 80, 78
1, 12303, Note_on_c, 0, 80, 0
1, 12304, Note_on_c, 0, 81, 78
1, 12319, Note_on_c, 0, 81, 0
1, 12320, Note_on_c, 0, 83, 78
1, 12335, Note_on_c, 0, 83, 0
1, 12336, Note_on_c, 0, 74, 78
1, 12336, Note_on_c, 0, 59, 66
1, 12336, Note_on_c, 0, 52, 66
1, 12381, Note_on_c, 0, 74, 0
1, 12381, Note_on_c, 0, 59, 0
1, 12381, Note_on_c, 0, 52, 0
1, 12384, Note_on_c, 0, 73, 78
1, 12384, Note_on_c, 0, 57, 66
1, 12384, Note_on_c, 0, 52, 66
1, 12394, Note_on_c, 0, 73, 0
1, 12394, Note_on_c, 0, 74, 78
1, 12404, Note_on_c, 0, 74, 0
1, 12404, Note_on_c, 0, 73, 78
1, 12414, Note_on_c, 0, 73, 0
1, 12414, Note_on_c, 0, 71, 78
1, 12423, Note_on_c, 0, 71, 0
1, 12423, Note_on_c, 0, 73, 78
1, 12429, Note_on_c, 0, 57, 0
1, 12429, Note_on_c, 0, 52, 0
1, 12432, Note_on_c, 0, 73, 0
1, 12432, Note_on_c, 0, 71, 78
1, 12432, Note_on_c, 0, 56, 66
1, 12432, Note_on_c, 0, 52, 66
1, 12477, Note_on_c, 0, 71, 0
1, 12477, Note_on_c, 0, 56, 0
1, 12477, Note_on_c, 0, 52, 0
1, 12480, Note_on_c, 0, 73, 78
1, 12495, Note_on_c, 0, 73, 0
1, 12496, Note_on_c, 0, 74, 78
1, 12511, Note_on_c, 0, 74, 0
1, 12512, Note_on_c, 0, 76, 78
1, 12527, Note_on_c, 0, 76, 0
1, 12528, Note_on_c, 0, 69, 78
1, 12528, Note_on_c, 0, 61, 66
1, 12528, Note_on_c, 0, 57, 66
1, 12573, Note_on_c, 0, 69, 0
1, 12573, Note_on_c, 0, 61, 0
1, 12573, Note_on_c, 0, 57, 0
1, 12576, Note_on_c, 0, 64, 66
1, 12576, Note_on_c, 0, 61, 66
1, 12621, Note_on_c, 0, 64, 0
1, 12621, Note_on_c, 0, 61, 0
1, 12624, Note_on_c, 0, 83, 78
1, 12624, Note_on_c, 0, 61, 66
1, 12624, Note_on_c, 0, 57, 66
1, 12636, Note_on_c, 0, 83, 0
1, 12636, Note_on_c, 0, 81, 78
1, 12648, Note_on_c, 0, 81, 0
1, 12648, Note_on_c, 0, 80, 78
1, 12660, Note_on_c, 0, 80, 0
1, 12660, Note_on_c, 0, 81, 78
1, 12669, Note_on_c, 0, 61, 0
1, 12669, Note_on_c, 0, 57, 0
1, 12672, Note_on_c, 0, 81, 0
1, 12672, Note_on_c, 0, 80, 78
1, 12687, Note_on_c, 0, 80, 0
1, 12688, Note_on_c, 0, 81, 78
1, 12703, Note_on_c, 0, 81, 0
1, 12704, Note_on_c, 0, 83, 78
1, 12719, Note_on_c, 0, 83, 0
1, 12720, Note_on_c, 0, 74, 78
1, 12720, Note_on_c, 0, 59, 66
1, 12720, Note_on_c, 0, 52, 66
1, 12765, Note_on_c, 0, 74, 0
1, 12765, Note_on_c, 0, 59, 0
1, 12765, Note_on_c, 0, 52, 0
1, 12768, Note_on_c, 0, 73, 78
1, 12768, Note_on_c, 0, 57, 66
1, 12768, Note_on_c, 0, 52, 66
1, 12778, Note_on_c, 0, 73, 0
1, 12778, Note_on_c, 0, 74, 78
1, 12788, Note_on_c, 0, 74, 0
1, 12788, Note_on_c, 0, 73, 78
1, 12798, Note_on_c, 0, 73, 0
1, 12798, Note_on_c, 0, 71, 78
1, 12807, Note_on_c, 0, 71, 0
1, 12807, Note_on_c, 0, 73, 78
1, 12813, Note_on_c, 0, 57, 0
1, 12813, Note_on_c, 0, 52, 0
1, 12816, Note_on_c, 0, 73, 0
1, 12816, Note_on_c, 0, 71, 78
1, 12816, Note_on_c, 0, 56, 66
1, 12816, Note_on_c, 0, 52, 66
1, 12861, Note_on_c, 0, 71, 0
1, 12861, Note_on_c, 0, 56, 0
1, 12861, Note_on_c, 0, 52, 0
1, 12864, Note_on_c, 0, 73, 78
1, 12879, Note_on_c, 0, 73, 0
1, 12880, Note_on_c, 0, 74, 78
1, 12895, Note_on_c, 0, 74, 0
1, 12896, Note_on_c, 0, 76, 78
1, 12911, Note_on_c, 0, 76, 0
1, 12912, Note_on_c, 0, 69, 78
1, 12912, Note_on_c, 0, 61, 66
1, 12912, Note_on_c, 0, 57, 66
1, 12957, Note_on_c, 0, 69, 0
1, 12957, Note_on_c, 0, 61, 0
1, 12957, Note_on_c, 0, 57, 0
1, 12960, Note_on_c, 0, 64, 66
1, 12960, Note_on_c, 0, 61, 66
1, 13005, Note_on_c, 0, 64, 0
1, 13005, Note_on_c, 0, 61, 0
1, 13008, Note_on_c, 0, 83, 78
1, 13008, Note_on_c, 0, 61, 66
1, 13008, Note_on_c, 0, 57, 66
1, 13020, Note_on_c, 0, 83, 0
1, 13020, Note_on_c, 0, 81, 78
1, 13032, Note_on_c, 0, 81, 0
1, 13032, Note_on_c, 0, 80, 78
1, 13044, Note_on_c, 0, 80, 0
1, 13044, Note_on_c, 0, 81, 78
1, 13049, Note_on_c, 0, 81, 0
1, 13053, Note_on_c, 0, 61, 0
1, 13053, Note_on_c, 0, 57, 0
1, 13056, Note_on_c, 0, 81, 78
1, 13079, Note_on_c, 0, 81, 0
1, 13080, Note_on_c, 0, 78, 78
1, 13103, Note_on_c, 0, 78, 0
1, 13104, Note_on_c, 0, 76, 78
1, 13104, Note_on_c, 0, 71, 66
1, 13104, Note_on_c, 0, 69, 66
1, 13127, Note_on_c, 0, 76, 0
1, 13128, Note_on_c, 0, 75, 78
1, 13149, Note_on_c, 0, 71, 0
1, 13149, Note_on_c, 0, 69, 0
1, 13151, Note_on_c, 0, 75, 0
1, 13152, Note_on_c, 0, 76, 78
1, 13152, Note_on_c, 0, 71, 66
1, 13152, Note_on_c, 0, 68, 66
1, 13167, Note_on_c, 0, 76, 0
1, 13168, Note_on_c, 0, 78, 78
1, 13183, Note_on_c, 0, 78, 0
1, 13184, Note_on_c, 0, 80, 78
1, 13197, Note_on_c, 0, 71, 0
1, 13197, Note_on_c, 0, 68, 0
1, 13199, Note_on_c, 0, 80, 0
1, 13200, Note_on_c, 0, 76, 78
1, 13200, Note_on_c, 0, 71, 66
1, 13200, Note_on_c, 0, 68, 66
1, 13245, Note_on_c, 0, 76, 0
1, 13245, Note_on_c, 0, 71, 0
1, 13245, Note_on_c, 0, 68, 0
1, 13248, Note_on_c, 0, 81, 72
1, 13271, Note_on_c, 0, 81, 0
1, 13272, Note_on_c, 0, 78, 72
1, 13295, Note_on_c, 0, 78, 0
1, 13296, Note_on_c, 0, 76, 72
1, 13296, Note_on_c, 0, 71, 66
1, 13296, Note_on_c, 0, 69, 66
1, 13319, Note_on_c, 0, 76, 0
1, 13320, Note_on_c, 0, 75, 72
1, 13341, Note_on_c, 0, 71, 0
1, 13341, Note_on_c, 0, 69, 0
1, 13343, Note_on_c, 0, 75, 0
1, 13344, Note_on_c, 0, 76, 72
1, 13344, Note_on_c, 0, 71, 66
1, 13344, Note_on_c, 0, 68, 66
1, 13359, Note_on_c, 0, 76, 0
1, 13360, Note_on_c, 0, 78, 72
1, 13375, Note_on_c, 0, 78, 0
1, 13376, Note_on_c, 0, 80, 72
1, 13389, Note_on_c, 0, 71, 0
1, 13389, Note_on_c, 0, 68, 0
1, 13391, Note_on_c, 0, 80, 0
1, 13392, Note_on_c, 0, 76, 72
1, 13392, Note_on_c, 0, 71, 66
1, 13392, Note_on_c, 0, 68, 66
1, 13437, Note_on_c, 0, 76, 0
1, 13437, Note_on_c, 0, 71, 0
1, 13437, Note_on_c, 0, 68, 0
1, 13440, Note_on_c, 0, 85, 78
1, 13440, Note_on_c, 0, 69, 72
1, 13455, Note_on_c, 0, 85, 0
1, 13456, Note_on_c, 0, 83, 78
1, 13471, Note_on_c, 0, 83, 0
1, 13472, Note_on_c, 0, 81, 78
1, 13485, Note_on_c, 0, 69, 0
1, 13487, Note_on_c, 0, 81, 0
1, 13488, Note_on_c, 0, 83, 78
1, 13488, Note_on_c, 0, 68, 72
1, 13503, Note_on_c, 0, 83, 0
1, 13504, Note_on_c, 0, 81, 78
1, 13519, Note_on_c, 0, 81, 0
1, 13520, Note_on_c, 0, 80, 78
1, 13533, Note_on_c, 0, 68, 0
1, 13535, Note_on_c, 0, 80, 0
1, 13536, Note_on_c, 0, 81, 78
1, 13536, Note_on_c, 0, 66, 72
1, 13551, Note_on_c, 0, 81, 0
1, 13552, Note_on_c, 0, 80, 78
1, 13567, Note_on_c, 0, 80, 0
1, 13568, Note_on_c, 0, 78, 78
1, 13581, Note_on_c, 0, 66, 0
1, 13583, Note_on_c, 0, 78, 0
1, 13584, Note_on_c, 0, 80, 78
1, 13584, Note_on_c, 0, 64, 72
1, 13599, Note_on_c, 0, 80, 0
1, 13600, Note_on_c, 0, 78, 78
1, 13615, Note_on_c, 0, 78, 0
1, 13616, Note_on_c, 0, 76, 78
1, 13629, Note_on_c, 0, 64, 0
1, 13631, Note_on_c, 0, 76, 0
1, 13632, Note_on_c, 0, 81, 78
1, 13632, Note_on_c, 0, 66, 72
1, 13647, Note_on_c, 0, 81, 0
1, 13648, Note_on_c, 0, 80, 78
1, 13663, Note_on_c, 0, 80, 0
1, 13664, Note_on_c, 0, 78, 78
1, 13677, Note_on_c, 0, 66, 0
1, 13679, Note_on_c, 0, 78, 0
1, 13680, Note_on_c, 0, 80, 78
1, 13680, Note_on_c, 0, 64, 72
1, 13695, Note_on_c, 0, 80, 0
1, 13696, Note_on_c, 0, 78, 78
1, 13711, Note_on_c, 0, 78, 0
1, 13712, Note_on_c, 0, 76, 78
1, 13725, Note_on_c, 0, 64, 0
1, 13727, Note_on_c, 0, 76, 0
1, 13728, Note_on_c, 0, 78, 78
1, 13728, Note_on_c, 0, 63, 72
1, 13743, Note_on_c, 0, 78, 0
1, 13744, Note_on_c, 0, 76, 78
1, 13759, Note_on_c, 0, 76, 0
1, 13760, Note_on_c, 0, 75, 78
1, 13773, Note_on_c, 0, 63, 0
1, 13775, Note_on_c, 0, 75, 0
1, 13776, Note_on_c, 0, 76, 78
1, 13776, Note_on_c, 0, 61, 72
1, 13791, Note_on_c, 0, 76, 0
1, 13792, Note_on_c, 0, 75, 78
1, 13807, Note_on_c, 0, 75, 0
1, 13808, Note_on_c, 0, 73, 78
1, 13821, Note_on_c, 0, 61, 0
1, 13823, Note_on_c, 0, 73, 0
1, 13824, Note_on_c, 0, 75, 78
1, 13839, Note_on_c, 0, 75, 0
1, 13840, Note_on_c, 0, 76, 78
1, 13855, Note_on_c, 0, 76, 0
1, 13856, Note_on_c, 0, 78, 78
1, 13871, Note_on_c, 0, 78, 0
1, 13872, Note_on_c, 0, 71, 78
1, 13872, Note_on_c, 0, 59, 72
1, 13917, Note_on_c, 0, 71, 0
1, 13917, Note_on_c, 0, 59, 0
1, 13920, Note_on_c, 0, 63, 72
1, 13944, Note_on_c, 0, 71, 78
1, 13965, Note_on_c, 0, 63, 0
1, 13967, Note_on_c, 0, 71, 0
1, 13968, Note_on_c, 0, 75, 78
1, 13968, Note_on_c, 0, 66, 72
1, 13991, Note_on_c, 0, 75, 0
1, 13992, Note_on_c, 0, 78, 78
1, 14013, Note_on_c, 0, 66, 0
1, 14015, Note_on_c, 0, 78, 0
1, 14016, Note_on_c, 0, 76, 78
1, 14031, Note_on_c, 0, 76, 0
1, 14032, Note_on_c, 0, 78, 78
1, 14047, Note_on_c, 0, 78, 0
1, 14048, Note_on_c, 0, 80, 78
1, 14063, Note_on_c, 0, 80, 0
1, 14064, Note_on_c, 0, 71, 78
1, 14064, Note_on_c, 0, 59, 72
1, 14109, Note_on_c, 0, 71, 0
1, 14109, Note_on_c, 0, 59, 0
1, 14112, Note_on_c, 0, 64, 72
1, 14136, Note_on_c, 0, 71, 78
1, 14157, Note_on_c, 0, 64, 0
1, 14159, Note_on_c, 0, 71, 0
1, 14160, Note_on_c, 0, 76, 78
1, 14160, Note_on_c, 0, 68, 72
1, 14183, Note_on_c, 0, 76, 0
1, 14184, Note_on_c, 0, 80, 78
1, 14205, Note_on_c, 0, 68, 0
1, 14207, Note_on_c, 0, 80, 0
1, 14208, Note_on_c, 0, 78, 78
1, 14223, Note_on_c, 0, 78, 0
1, 14224, Note_on_c, 0, 80, 78
1, 14239, Note_on_c, 0, 80, 0
1, 14240, Note_on_c, 0, 81, 78
1, 14255, Note_on_c, 0, 81, 0
1, 14256, Note_on_c, 0, 71, 78
1, 14256, Note_on_c, 0, 59, 72
1, 14301, Note_on_c, 0, 71, 0
1, 14301, Note_on_c, 0, 59, 0
1, 14304, Note_on_c, 0, 63, 72
1, 14328, Note_on_c, 0, 71, 78
1, 14349, Note_on_c, 0, 63, 0
1, 14351, Note_on_c, 0, 71, 0
1, 14352, Note_on_c, 0, 78, 78
1, 14352, Note_on_c, 0, 66, 72
1, 14375, Note_on_c, 0, 78, 0
1, 14376, Note_on_c, 0, 81, 78
1, 14397, Note_on_c, 0, 66, 0
1, 14399, Note_on_c, 0, 81, 0
1, 14400, Note_on_c, 0, 80, 78
1, 14415, Note_on_c, 0, 80, 0
1, 14416, Note_on_c, 0, 81, 78
1, 14431, Note_on_c, 0, 81, 0
1, 14432, Note_on_c, 0, 83, 78
1, 14447, Note_on_c, 0, 83, 0
1, 14448, Note_on_c, 0, 76, 78
1, 14448, Note_on_c, 0, 71, 66
1, 14448, Note_on_c, 0, 68, 66
1, 14493, Note_on_c, 0, 76, 0
1, 14493, Note_on_c, 0, 71, 0
1, 14493, Note_on_c, 0, 68, 0
1, 14496, Note_on_c, 0, 78, 78
1, 14496, Note_on_c, 0, 73, 66
1, 14496, Note_on_c, 0, 69, 66
1, 14506, Note_on_c, 0, 78, 0
1, 14506, Note_on_c, 0, 80, 78
1, 14516, Note_on_c, 0, 80, 0
1, 14516, Note_on_c, 0, 78, 78
1, 14526, Note_on_c, 0, 78, 0
1, 14526, Note_on_c, 0, 76, 78
1, 14535, Note_on_c, 0, 76, 0
1, 14535, Note_on_c, 0, 78, 78
1, 14541, Note_on_c, 0, 73, 0
1, 14541, Note_on_c, 0, 69, 0
1, 14544, Note_on_c, 0, 78, 0
1, 14544, Note_on_c, 0, 76, 78
1, 14544, Note_on_c, 0, 71, 66
1, 14544, Note_on_c, 0, 68, 66
1, 14589, Note_on_c, 0, 76, 0
1, 14589, Note_on_c, 0, 71, 0
1, 14589, Note_on_c, 0, 68, 0
1, 14592, Note_on_c, 0, 80, 78
1, 14607, Note_on_c, 0, 80, 0
1, 14608, Note_on_c, 0, 81, 78
1, 14623, Note_on_c, 0, 81, 0
1, 14624, Note_on_c, 0, 83, 78
1, 14639, Note_on_c, 0, 83, 0
1, 14640, Note_on_c, 0, 76, 78
1, 14640, Note_on_c, 0, 71, 66
1, 14640, Note_on_c, 0, 68, 66
1, 14685, Note_on_c, 0, 76, 0
1, 14685, Note_on_c, 0, 71, 0
1, 14685, Note_on_c, 0, 68, 0
1, 14688, Note_on_c, 0, 75, 78
1, 14688, Note_on_c, 0, 69, 66
1, 14688, Note_on_c, 0, 66, 66
1, 14698, Note_on_c, 0, 75, 0
1, 14698, Note_on_c, 0, 76, 78
1, 14708, Note_on_c, 0, 76, 0
1, 14708, Note_on_c, 0, 75, 78
1, 14718, Note_on_c, 0, 75, 0
1, 14718, Note_on_c, 0, 73, 78
1, 14727, Note_on_c, 0, 73, 0
1, 14727, Note_on_c, 0, 75, 78
1, 14733, Note_on_c, 0, 69, 0
1, 14733, Note_on_c, 0, 66, 0
1, 14736, Note_on_c, 0, 75, 0
1, 14736, Note_on_c, 0, 76, 78
1, 14736, Note_on_c, 0, 68, 66
1, 14736, Note_on_c, 0, 64, 66
1, 14781, Note_on_c, 0, 76, 0
1, 14781, Note_on_c, 0, 68, 0
1, 14781, Note_on_c, 0, 64, 0
1, 14784, Note_on_c, 0, 56, 66
1, 14807, Note_on_c, 0, 56, 0
1, 14808, Note_on_c, 0, 68, 66
1, 14831, Note_on_c, 0, 68, 0
1, 14832, Note_on_c, 0, 75, 78
1, 14832, Note_on_c, 0, 72, 78
1, 14832, Note_on_c, 0, 56, 66
1, 14855, Note_on_c, 0, 56, 0
1, 14856, Note_on_c, 0, 68, 66
1, 14877, Note_on_c, 0, 75, 0
1, 14877, Note_on_c, 0, 72, 0
1, 14879, Note_on_c, 0, 68, 0
1, 14880, Note_on_c, 0, 78, 78
1, 14880, Note_on_c, 0, 75, 78
1, 14880, Note_on_c, 0, 56, 66
1, 14903, Note_on_c, 0, 56, 0
1, 14904, Note_on_c, 0, 68, 66
1, 14925, Note_on_c, 0, 78, 0
1, 14925, Note_on_c, 0, 75, 0
1, 14927, Note_on_c, 0, 68, 0
1, 14928, Note_on_c, 0, 75, 78
1, 14928, Note_on_c, 0, 72, 78
1, 14928, Note_on_c, 0, 56, 66
1, 14951, Note_on_c, 0, 56, 0
1, 14952, Note_on_c, 0, 68, 66
1, 14973, Note_on_c, 0, 75, 0
1, 14973, Note_on_c, 0, 72, 0
1, 14975, Note_on_c, 0, 68, 0
1, 14976, Note_on_c, 0, 61, 66
1, 14999, Note_on_c, 0, 61, 0
1, 15000, Note_on_c, 0, 68, 66
1, 15023, Note_on_c, 0, 68, 0
1, 15024, Note_on_c, 0, 76, 78
1, 15024, Note_on_c, 0, 73, 78
1, 15024, Note_on_c, 0, 61, 66
1, 15047, Note_on_c, 0, 61, 0
1, 15048, Note_on_c, 0, 68, 66
1, 15069, Note_on_c, 0, 76, 0
1, 15069, Note_on_c, 0, 73, 0
1, 15071, Note_on_c, 0, 68, 0
1, 15072, Note_on_c, 0, 80, 78
1, 15072, Note_on_c, 0, 76, 78
1, 15072, Note_on_c, 0, 61, 66
1, 15095, Note_on_c, 0, 61, 0
1, 15096, Note_on_c, 0, 68, 66
1, 15117, Note_on_c, 0, 80, 0
1, 15117, Note_on_c, 0, 76, 0
1, 15119, Note_on_c, 0, 68, 0
1, 15120, Note_on_c, 0, 76, 78
1, 15120, Note_on_c, 0, 73, 78
1, 15120, Note_on_c, 0, 61, 66
1, 15143, Note_on_c, 0, 61, 0
1, 15144, Note_on_c, 0, 68, 66
1, 15165, Note_on_c, 0, 76, 0
1, 15165, Note_on_c, 0, 73, 0
1, 15167, Note_on_c, 0, 68, 0
1, 15168, Note_on_c, 0, 54, 66
1, 15191, Note_on_c, 0, 54, 0
1, 15192, Note_on_c, 0, 66, 66
1, 15215, Note_on_c, 0, 66, 0
1, 15216, Note_on_c, 0, 73, 78
1, 15216, Note_on_c, 0, 70, 78
1, 15216, Note_on_c, 0, 54, 66
1, 15239, Note_on_c, 0, 54, 0
1, 15240, Note_on_c, 0, 66, 66
1, 15261, Note_on_c, 0, 73, 0
1, 15261, Note_on_c, 0, 70, 0
1, 15263, Note_on_c, 0, 66, 0
1, 15264, Note_on_c, 0, 76, 78
1, 15264, Note_on_c, 0, 73, 78
1, 15264, Note_on_c, 0, 54, 66
1, 15287, Note_on_c, 0, 54, 0
1, 15288, Note_on_c, 0, 66, 66
1, 15309, Note_on_c, 0, 76, 0
1, 15309, Note_on_c, 0, 73, 0
1, 15311, Note_on_c, 0, 66, 0
1, 15312, Note_on_c, 0, 73, 78
1, 15312, Note_on_c, 0, 70, 78
1, 15312, Note_on_c, 0, 54, 66
1, 15335, Note_on_c, 0, 54, 0
1, 15336, Note_on_c, 0, 66, 66
1, 15357, Note_on_c, 0, 73, 0
1, 15357, Note_on_c, 0, 70, 0
1, 15359, Note_on_c, 0, 66, 0
1, 15360, Note_on_c, 0, 59, 66
1, 15383, Note_on_c, 0, 59, 0
1, 15384, Note_on_c, 0, 66, 66
1, 15407, Note_on_c, 0, 66, 0
1, 15408, Note_on_c, 0, 75, 78
1, 15408, Note_on_c, 0, 71, 78
1, 15408, Note_on_c, 0, 59, 66
1, 15431, Note_on_c, 0, 59, 0
1, 15432, Note_on_c, 0, 66, 66
1, 15453, Note_on_c, 0, 75, 0
1, 15453, Note_on_c, 0, 71, 0
1, 15455, Note_on_c, 0, 66, 0
1, 15456, Note_on_c, 0, 78, 78
1, 15456, Note_on_c, 0, 75, 78
1, 15456, Note_on_c, 0, 59, 66
1, 15479, Note_on_c, 0, 59, 0
1, 15480, Note_on_c, 0, 66, 66
1, 15501, Note_on_c, 0, 78, 0
1, 15501, Note_on_c, 0, 75, 0
1, 15503, Note_on_c, 0, 66, 0
1, 15504, Note_on_c, 0, 75, 78
1, 15504, Note_on_c, 0, 71, 78
1, 15504, Note_on_c, 0, 59, 66
1, 15527, Note_on_c, 0, 59, 0
1, 15528, Note_on_c, 0, 66, 66
1, 15549, Note_on_c, 0, 75, 0
1, 15549, Note_on_c, 0, 71, 0
1, 15551, Note_on_c, 0, 66, 0
1, 15552, Note_on_c, 0, 47, 66
1, 15575, Note_on_c, 0, 47, 0
1, 15576, Note_on_c, 0, 59, 66
1, 15599, Note_on_c, 0, 59, 0
1, 15600, Note_on_c, 0, 78, 78
1, 15600, Note_on_c, 0, 75, 78
1, 15600, Note_on_c, 0, 47, 66
1, 15623, Note_on_c, 0, 47, 0
1, 15624, Note_on_c, 0, 59, 66
1, 15645, Note_on_c, 0, 78, 0
1, 15645, Note_on_c, 0, 75, 0
1, 15647, Note_on_c, 0, 59, 0
1, 15648, Note_on_c, 0, 81, 78
1, 15648, Note_on_c, 0, 78, 78
1, 15648, Note_on_c, 0, 47, 66
1, 15671, Note_on_c, 0, 47, 0
1, 15672, Note_on_c, 0, 59, 66
1, 15693, Note_on_c, 0, 81, 0
1, 15693, Note_on_c, 0, 78, 0
1, 15695, Note_on_c, 0, 59, 0
1, 15696, Note_on_c, 0, 78, 78
1, 15696, Note_on_c, 0, 75, 78
1, 15696, Note_on_c, 0, 47, 66
1, 15719, Note_on_c, 0, 47, 0
1, 15720, Note_on_c, 0, 59, 66
1, 15741, Note_on_c, 0, 78, 0
1, 15741, Note_on_c, 0, 75, 0
1, 15743, Note_on_c, 0, 59, 0
1, 15744, Note_on_c, 0, 52, 66
1, 15767, Note_on_c, 0, 52, 0
1, 15768, Note_on_c, 0, 59, 66
1, 15791, Note_on_c, 0, 59, 0
1, 15792, Note_on_c, 0, 80, 78
1, 15792, Note_on_c, 0, 76, 78
1, 15792, Note_on_c, 0, 52, 66
1, 15815, Note_on_c, 0, 52, 0
1, 15816, Note_on_c, 0, 59, 66
1, 15837, Note_on_c, 0, 80, 0
1, 15837, Note_on_c, 0, 76, 0
1, 15839, Note_on_c, 0, 59, 0
1, 15840, Note_on_c, 0, 83, 78
1, 15840, Note_on_c, 0, 80, 78
1, 15840, Note_on_c, 0, 52, 66
1, 15863, Note_on_c, 0, 52, 0
1, 15864, Note_on_c, 0, 59, 66
1, 15885, Note_on_c, 0, 83, 0
1, 15885, Note_on_c, 0, 80, 0
1, 15887, Note_on_c, 0, 59, 0
1, 15888, Note_on_c, 0, 80, 78
1, 15888, Note_on_c, 0, 76, 78
1, 15888, Note_on_c, 0, 52, 66
1, 15911, Note_on_c, 0, 52, 0
1, 15912, Note_on_c, 0, 59, 66
1, 15933, Note_on_c, 0, 80, 0
1, 15933, Note_on_c, 0, 76, 0
1, 15935, Note_on_c, 0, 59, 0
1, 15936, Note_on_c, 0, 57, 66
1, 15959, Note_on_c, 0, 57, 0
1, 15960, Note_on_c, 0, 64, 66
1, 15983, Note_on_c, 0, 64, 0
1, 15984, Note_on_c, 0, 73, 78
1, 15984, Note_on_c, 0, 57, 66
1, 15994, Note_on_c, 0, 73, 0
1, 15994, Note_on_c, 0, 75, 78
1, 16004, Note_on_c, 0, 75, 0
1, 16004, Note_on_c, 0, 73, 78
1, 16007, Note_on_c, 0, 57, 0
1, 16008, Note_on_c, 0, 64, 66
1, 16014, Note_on_c, 0, 73, 0
1, 16014, Note_on_c, 0, 71, 78
1, 16023, Note_on_c, 0, 71, 0
1, 16023, Note_on_c, 0, 73, 78
1, 16031, Note_on_c, 0, 64, 0
1, 16032, Note_on_c, 0, 73, 0
1, 16032, Note_on_c, 0, 71, 78
1, 16032, Note_on_c, 0, 56, 66
1, 16055, Note_on_c, 0, 56, 0
1, 16056, Note_on_c, 0, 64, 66
1, 16077, Note_on_c, 0, 71, 0
1, 16079, Note_on_c, 0, 64, 0
1, 16080, Note_on_c, 0, 76, 78
1, 16080, Note_on_c, 0, 56, 66
1, 16103, Note_on_c, 0, 56, 0
1, 16104, Note_on_c, 0, 64, 66
1, 16125, Note_on_c, 0, 76, 0
1, 16127, Note_on_c, 0, 64, 0
1, 16128, Note_on_c, 0, 54, 66
1, 16151, Note_on_c, 0, 54, 0
1, 16152, Note_on_c, 0, 63, 66
1, 16175, Note_on_c, 0, 63, 0
1, 16176, Note_on_c, 0, 81, 78
1, 16176, Note_on_c, 0, 57, 66
1, 16186, Note_on_c, 0, 81, 0
1, 16186, Note_on_c, 0, 83, 78
1, 16196, Note_on_c, 0, 83, 0
1, 16196, Note_on_c, 0, 81, 78
1, 16199, Note_on_c, 0, 57, 0
1, 16200, Note_on_c, 0, 63, 66
1, 16206, Note_on_c, 0, 81, 0
1, 16206, Note_on_c, 0, 80, 78
1, 16215, Note_on_c, 0, 80, 0
1, 16215, Note_on_c, 0, 81, 78
1, 16223, Note_on_c, 0, 63, 0
1, 16224, Note_on_c, 0, 81, 0
1, 16224, Note_on_c, 0, 80, 78
1, 16224, Note_on_c, 0, 52, 66
1, 16247, Note_on_c, 0, 52, 0
1, 16248, Note_on_c, 0, 59, 66
1, 16269, Note_on_c, 0, 80, 0
1, 16271, Note_on_c, 0, 59, 0
1, 16272, Note_on_c, 0, 76, 78
1, 16272, Note_on_c, 0, 56, 66
1, 16295, Note_on_c, 0, 56, 0
1, 16296, Note_on_c, 0, 59, 66
1, 16317, Note_on_c, 0, 76, 0
1, 16319, Note_on_c, 0, 59, 0
1, 16320, Note_on_c, 0, 57, 66
1, 16343, Note_on_c, 0, 57, 0
1, 16344, Note_on_c, 0, 64, 66
1, 16367, Note_on_c, 0, 64, 0
1, 16368, Note_on_c, 0, 73, 78
1, 16368, Note_on_c, 0, 57, 66
1, 16378, Note_on_c, 0, 73, 0
1, 16378, Note_on_c, 0, 75, 78
1, 16388, Note_on_c, 0, 75, 0
1, 16388, Note_on_c, 0, 73, 78
1, 16391, Note_on_c, 0, 57, 0
1, 16392, Note_on_c, 0, 64, 66
1, 16398, Note_on_c, 0, 73, 0
1, 16398, Note_on_c, 0, 71, 78
1, 16407, Note_on_c, 0, 71, 0
1, 16407, Note_on_c, 0, 73, 78
1, 16415, Note_on_c, 0, 64, 0
1, 16416, Note_on_c, 0, 73, 0
1, 16416, Note_on_c, 0, 71, 78
1, 16416, Note_on_c, 0, 56, 66
1, 16439, Note_on_c, 0, 56, 0
1, 16440, Note_on_c, 0, 64, 66
1, 16461, Note_on_c, 0, 71, 0
1, 16463, Note_on_c, 0, 64, 0
1, 16464, Note_on_c, 0, 76, 78
1, 16464, Note_on_c, 0, 56, 66
1, 16487, Note_on_c, 0, 56, 0
1, 16488, Note_on_c, 0, 64, 66
1, 16509, Note_on_c, 0, 76, 0
1, 16511, Note_on_c, 0, 64, 0
1, 16512, Note_on_c, 0, 54, 66
1, 16535, Note_on_c, 0, 54, 0
1, 16536, Note_on_c, 0, 63, 66
1, 16559, Note_on_c, 0, 63, 0
1, 16560, Note_on_c, 0, 81, 78
1, 16560, Note_on_c, 0, 57, 66
1, 16570, Note_on_c, 0, 81, 0
1, 16570, Note_on_c, 0, 83, 78
1, 16580, Note_on_c, 0, 83, 0
1, 16580, Note_on_c, 0, 81, 78
1, 16583, Note_on_c, 0, 57, 0
1, 16584, Note_on_c, 0, 63, 66
1, 16590, Note_on_c, 0, 81, 0
1, 16590, Note_on_c, 0, 80, 78
1, 16599, Note_on_c, 0, 80, 0
1, 16599, Note_on_c, 0, 81, 78
1, 16607, Note_on_c, 0, 63, 0
1, 16608, Note_on_c, 0, 81, 0
1, 16608, Note_on_c, 0, 80, 78
1, 16608, Note_on_c, 0, 52, 66
1, 16631, Note_on_c, 0, 52, 0
1, 16632, Note_on_c, 0, 59, 66
1, 16653, Note_on_c, 0, 80, 0
1, 16655, Note_on_c, 0, 59, 0
1, 16656, Note_on_c, 0, 76, 78
1, 16656, Note_on_c, 0, 56, 66
1, 16679, Note_on_c, 0, 56, 0
1, 16680, Note_on_c, 0, 59, 66
1, 16701, Note_on_c, 0, 76, 0
1, 16703, Note_on_c, 0, 59, 0
1, 16704, Note_on_c, 0, 47, 66
1, 16727, Note_on_c, 0, 47, 0
1, 16728, Note_on_c, 0, 59, 66
1, 16751, Note_on_c, 0, 59, 0
1, 16752, Note_on_c, 0, 71, 66
1, 16752, Note_on_c, 0, 51, 60
1, 16775, Note_on_c, 0, 51, 0
1, 16776, Note_on_c, 0, 59, 60
1, 16797, Note_on_c, 0, 71, 0
1, 16799, Note_on_c, 0, 59, 0
1, 16800, Note_on_c, 0, 71, 66
1, 16800, Note_on_c, 0, 47, 61
1, 16823, Note_on_c, 0, 47, 0
1, 16824, Note_on_c, 0, 59, 61
1, 16845, Note_on_c, 0, 71, 0
1, 16847, Note_on_c, 0, 59, 0
1, 16848, Note_on_c, 0, 71, 66
1, 16848, Note_on_c, 0, 51, 62
1, 16871, Note_on_c, 0, 51, 0
1, 16872, Note_on_c, 0, 59, 62
1, 16893, Note_on_c, 0, 71, 0
1, 16895, Note_on_c, 0, 59, 0
1, 16896, Note_on_c, 0, 47, 63
1, 16919, Note_on_c, 0, 47, 0
1, 16920, Note_on_c, 0, 59, 64
1, 16943, Note_on_c, 0, 59, 0
1, 16944, Note_on_c, 0, 73, 67
1, 16944, Note_on_c, 0, 71, 67
1, 16944, Note_on_c, 0, 52, 64
1, 16967, Note_on_c, 0, 52, 0
1, 16968, Note_on_c, 0, 59, 65
1, 16989, Note_on_c, 0, 73, 0
1, 16989, Note_on_c, 0, 71, 0
1, 16991, Note_on_c, 0, 59, 0
1, 16992, Note_on_c, 0, 73, 67
1, 16992, Note_on_c, 0, 71, 67
1, 16992, Note_on_c, 0, 47, 65
1, 17015, Note_on_c, 0, 47, 0
1, 17016, Note_on_c, 0, 59, 66
1, 17037, Note_on_c, 0, 73, 0
1, 17037, Note_on_c, 0, 71, 0
1, 17039, Note_on_c, 0, 59, 0
1, 17040, Note_on_c, 0, 73, 68
1, 17040, Note_on_c, 0, 71, 68
1, 17040, Note_on_c, 0, 52, 66
1, 17063, Note_on_c, 0, 52, 0
1, 17064, Note_on_c, 0, 59, 67
1, 17085, Note_on_c, 0, 73, 0
1, 17085, Note_on_c, 0, 71, 0
1, 17087, Note_on_c, 0, 59, 0
1, 17088, Note_on_c, 0, 47, 68
1, 17111, Note_on_c, 0, 47, 0
1, 17112, Note_on_c, 0, 59, 68
1, 17135, Note_on_c, 0, 59, 0
1, 17136, Note_on_c, 0, 73, 69
1, 17136, Note_on_c, 0, 69, 69
1, 17136, Note_on_c, 0, 54, 69
1, 17159, Note_on_c, 0, 54, 0
1, 17160, Note_on_c, 0, 59, 69
1, 17181, Note_on_c, 0, 73, 0
1, 17181, Note_on_c, 0, 69, 0
1, 17183, Note_on_c, 0, 59, 0
1, 17184, Note_on_c, 0, 73, 69
1, 17184, Note_on_c, 0, 69, 69
1, 17184, Note_on_c, 0, 47, 70
1, 17207, Note_on_c, 0, 47, 0
1, 17208, Note_on_c, 0, 59, 71
1, 17229, Note_on_c, 0, 73, 0
1, 17229, Note_on_c, 0, 69, 0
1, 17231, Note_on_c, 0, 59, 0
1, 17232, Note_on_c, 0, 73, 69
1, 17232, Note_on_c, 0, 69, 69
1, 17232, Note_on_c, 0, 54, 71
1, 17255, Note_on_c, 0, 54, 0
1, 17256, Note_on_c, 0, 59, 72
1, 17277, Note_on_c, 0, 73, 0
1, 17277, Note_on_c, 0, 69, 0
1, 17279, Note_on_c, 0, 59, 0
1, 17280, Note_on_c, 0, 47, 72
1, 17303, Note_on_c, 0, 47, 0
1, 17304, Note_on_c, 0, 59, 73
1, 17327, Note_on_c, 0, 59, 0
1, 17328, Note_on_c, 0, 75, 70
1, 17328, Note_on_c, 0, 69, 70
1, 17328, Note_on_c, 0, 54, 73
1, 17351, Note_on_c, 0, 54, 0
1, 17352, Note_on_c, 0, 59, 74
1, 17373, Note_on_c, 0, 75, 0
1, 17373, Note_on_c, 0, 69, 0
1, 17375, Note_on_c, 0, 59, 0
1, 17376, Note_on_c, 0, 75, 70
1, 17376, Note_on_c, 0, 69, 70
1, 17376, Note_on_c, 0, 47, 75
1, 17399, Note_on_c, 0, 47, 0
1, 17400, Note_on_c, 0, 59, 75
1, 17421, Note_on_c, 0, 75, 0
1, 17421, Note_on_c, 0, 69, 0
1, 17423, Note_on_c, 0, 59, 0
1, 17424, Note_on_c, 0, 75, 71
1, 17424, Note_on_c, 0, 69, 71
1, 17424, Note_on_c, 0, 54, 76
1, 17447, Note_on_c, 0, 54, 0
1, 17448, Note_on_c, 0, 59, 76
1, 17469, Note_on_c, 0, 75, 0
1, 17469, Note_on_c, 0, 69, 0
1, 17471, Note_on_c, 0, 59, 0
1, 17472, Note_on_c, 0, 68, 71
1, 17472, Note_on_c, 0, 52, 77
1, 17480, Note_on_c, 0, 71, 71
1, 17488, Note_on_c, 0, 76, 71
1, 17495, Note_on_c, 0, 52, 0
1, 17496, Note_on_c, 0, 59, 78
1, 17519, Note_on_c, 0, 59, 0
1, 17520, Note_on_c, 0, 56, 78
1, 17543, Note_on_c, 0, 56, 0
1, 17544, Note_on_c, 0, 59, 78
1, 17565, Note_on_c, 0, 76, 0
1, 17565, Note_on_c, 0, 71, 0
1, 17565, Note_on_c, 0, 68, 0
1, 17567, Note_on_c, 0, 59, 0
1, 17568, Note_on_c, 0, 71, 72
1, 17568, Note_on_c, 0, 51, 78
1, 17574, Note_on_c, 0, 75, 72
1, 17580, Note_on_c, 0, 78, 72
1, 17586, Note_on_c, 0, 81, 72
1, 17591, Note_on_c, 0, 51, 0
1, 17592, Note_on_c, 0, 59, 78
1, 17615, Note_on_c, 0, 59, 0
1, 17616, Note_on_c, 0, 54, 78
1, 17639, Note_on_c, 0, 54, 0
1, 17640, Note_on_c, 0, 59, 78
1, 17661, Note_on_c, 0, 81, 0
1, 17661, Note_on_c, 0, 78, 0
1, 17661, Note_on_c, 0, 75, 0
1, 17661, Note_on_c, 0, 71, 0
1, 17663, Note_on_c, 0, 59, 0
1, 17664, Note_on_c, 0, 71, 72
1, 17664, Note_on_c, 0, 52, 78
1, 17672, Note_on_c, 0, 76, 72
1, 17680, Note_on_c, 0, 80, 72
1, 17687, Note_on_c, 0, 52, 0
1, 17688, Note_on_c, 0, 59, 78
1, 17711, Note_on_c, 0, 59, 0
1, 17712, Note_on_c, 0, 56, 78
1, 17735, Note_on_c, 0, 56, 0
1, 17736, Note_on_c, 0, 59, 78
1, 17757, Note_on_c, 0, 80, 0
1, 17757, Note_on_c, 0, 76, 0
1, 17757, Note_on_c, 0, 71, 0
1, 17759, Note_on_c, 0, 59, 0
1, 17760, Note_on_c, 0, 69, 72
1, 17760, Note_on_c, 0, 54, 78
1, 17768, Note_on_c, 0, 75, 72
1, 17776, Note_on_c, 0, 78, 72
1, 17783, Note_on_c, 0, 54, 0
1, 17784, Note_on_c, 0, 59, 78
1, 17807, Note_on_c, 0, 59, 0
1, 17808, Note_on_c, 0, 57, 78
1, 17831, Note_on_c, 0, 57, 0
1, 17832, Note_on_c, 0, 59, 78
1, 17853, Note_on_c, 0, 78, 0
1, 17853, Note_on_c, 0, 75, 0
1, 17853, Note_on_c, 0, 69, 0
1, 17855, Note_on_c, 0, 59, 0
1, 17856, Note_on_c, 0, 68, 72
1, 17856, Note_on_c, 0, 52, 78
1, 17864, Note_on_c, 0, 71, 72
1, 17872, Note_on_c, 0, 76, 72
1, 17879, Note_on_c, 0, 52, 0
1, 17880, Note_on_c, 0, 59, 78
1, 17903, Note_on_c, 0, 59, 0
1, 17904, Note_on_c, 0, 56, 78
1, 17927, Note_on_c, 0, 56, 0
1, 17928, Note_on_c, 0, 59, 78
1, 17949, Note_on_c, 0, 76, 0
1, 17949, Note_on_c, 0, 71, 0
1, 17949, Note_on_c, 0, 68, 0
1, 17951, Note_on_c, 0, 59, 0
1, 17952, Note_on_c, 0, 71, 72
1, 17952, Note_on_c, 0, 51, 78
1, 17958, Note_on_c, 0, 75, 72
1, 17964, Note_on_c, 0, 78, 72
1, 17970, Note_on_c, 0, 81, 72
1, 17975, Note_on_c, 0, 51, 0
1, 17976, Note_on_c, 0, 59, 78
1, 17999, Note_on_c, 0, 59, 0
1, 18000, Note_on_c, 0, 54, 78
1, 18023, Note_on_c, 0, 54, 0
1, 18024, Note_on_c, 0, 59, 78
1, 18045, Note_on_c, 0, 81, 0
1, 18045, Note_on_c, 0, 78, 0
1, 18045, Note_on_c, 0, 75, 0
1, 18045, Note_on_c, 0, 71, 0
1, 18047, Note_on_c, 0, 59, 0
1, 18048, Note_on_c, 0, 71, 72
1, 18048, Note_on_c, 0, 52, 78
1, 18056, Note_on_c, 0, 76, 72
1, 18064, Note_on_c, 0, 80, 72
1, 18071, Note_on_c, 0, 52, 0
1, 18072, Note_on_c, 0, 59, 78
1, 18095, Note_on_c, 0, 59, 0
1, 18096, Note_on_c, 0, 56, 78
1, 18119, Note_on_c, 0, 56, 0
1, 18120, Note_on_c, 0, 59, 78
1, 18141, Note_on_c, 0, 80, 0
1, 18141, Note_on_c, 0, 76, 0
1, 18141, Note_on_c, 0, 71, 0
1, 18143, Note_on_c, 0, 59, 0
1, 18144, Note_on_c, 0, 69, 72
1, 18144, Note_on_c, 0, 54, 78
1, 18152, Note_on_c, 0, 75, 72
1, 18160, Note_on_c, 0, 78, 72
1, 18167, Note_on_c, 0, 54, 0
1, 18168, Note_on_c, 0, 59, 78
1, 18191, Note_on_c, 0, 59, 0
1, 18192, Note_on_c, 0, 57, 78
1, 18215, Note_on_c, 0, 57, 0
1, 18216, Note_on_c, 0, 59, 78
1, 18237, Note_on_c, 0, 78, 0
1, 18237, Note_on_c, 0, 75, 0
1, 18237, Note_on_c, 0, 69, 0
1, 18239, Note_on_c, 0, 59, 0
1, 18240, Note_on_c, 0, 76, 72
1, 18240, Note_on_c, 0, 56, 78
1, 18263, Note_on_c, 0, 76, 0
1, 18264, Note_on_c, 0, 80, 72
1, 18287, Note_on_c, 0, 80, 0
1, 18288, Note_on_c, 0, 71, 72
1, 18311, Note_on_c, 0, 71, 0
1, 18312, Note_on_c, 0, 76, 72
1, 18329, Note_on_c, 0, 56, 0
1, 18335, Note_on_c, 0, 76, 0
1, 18336, Note_on_c, 0, 68, 72
1, 18359, Note_on_c, 0, 68, 0
1, 18360, Note_on_c, 0, 71, 72
1, 18383, Note_on_c, 0, 71, 0
1, 18384, Note_on_c, 0, 64, 72
1, 18407, Note_on_c, 0, 64, 0
1, 18408, Note_on_c, 0, 68, 72
1, 18431, Note_on_c, 0, 68, 0
1, 18432, Note_on_c, 0, 73, 72
1, 18432, Note_on_c, 0, 57, 78
1, 18455, Note_on_c, 0, 73, 0
1, 18456, Note_on_c, 0, 76, 72
1, 18479, Note_on_c, 0, 76, 0
1, 18480, Note_on_c, 0, 69, 72
1, 18503, Note_on_c, 0, 69, 0
1, 18504, Note_on_c, 0, 73, 72
1, 18521, Note_on_c, 0, 57, 0
1, 18527, Note_on_c, 0, 73, 0
1, 18528, Note_on_c, 0, 66, 72
1, 18551, Note_on_c, 0, 66, 0
1, 18552, Note_on_c, 0, 69, 72
1, 18575, Note_on_c, 0, 69, 0
1, 18576, Note_on_c, 0, 61, 72
1, 18599, Note_on_c, 0, 61, 0
1, 18600, Note_on_c, 0, 66, 72
1, 18623, Note_on_c, 0, 66, 0
1, 18624, Note_on_c, 0, 64, 72
1, 18624, Note_on_c, 0, 56, 78
1, 18624, Note_on_c, 0, 47, 78
1, 18669, Note_on_c, 0, 56, 0
1, 18669, Note_on_c, 0, 47, 0
1, 18672, Note_on_c, 0, 56, 78
1, 18672, Note_on_c, 0, 47, 78
1, 18713, Note_on_c, 0, 64, 0
1, 18717, Note_on_c, 0, 56, 0
1, 18717, Note_on_c, 0, 47, 0
1, 18720, Note_on_c, 0, 63, 72
1, 18720, Note_on_c, 0, 54, 78
1, 18720, Note_on_c, 0, 47, 78
1, 18731, Note_on_c, 0, 63, 0
1, 18731, Note_on_c, 0, 64, 72
1, 18742, Note_on_c, 0, 64, 0
1, 18742, Note_on_c, 0, 63, 72
1, 18753, Note_on_c, 0, 63, 0
1, 18753, Note_on_c, 0, 64, 72
1, 18764, Note_on_c, 0, 64, 0
1, 18764, Note_on_c, 0, 63, 72
1, 18765, Note_on_c, 0, 54, 0
1, 18765, Note_on_c, 0, 47, 0
1, 18768, Note_on_c, 0, 54, 78
1, 18768, Note_on_c, 0, 47, 78
1, 18775, Note_on_c, 0, 63, 0
1, 18775, Note_on_c, 0, 64, 72
1, 18786, Note_on_c, 0, 64, 0
1, 18786, Note_on_c, 0, 63, 72
1, 18796, Note_on_c, 0, 63, 0
1, 18796, Note_on_c, 0, 61, 72
1, 18806, Note_on_c, 0, 61, 0
1, 18806, Note_on_c, 0, 63, 72
1, 18813, Note_on_c, 0, 54, 0
1, 18813, Note_on_c, 0, 47, 0
1, 18816, Note_on_c, 0, 63, 0
1, 18816, Note_on_c, 0, 64, 72
1, 18816, Note_on_c, 0, 52, 78
1, 18816, Note_on_c, 0, 40, 78
1, 18905, Note_on_c, 0, 64, 0
1, 18905, Note_on_c, 0, 52, 0
1, 18905, Note_on_c, 0, 40, 0
1, 19008, Note_on_c, 0, 67, 66
1, 19016, Note_on_c, 0, 71, 66
1, 19024, Note_on_c, 0, 76, 66
1, 19056, Note_on_c, 0, 52, 66
1, 19056, Note_on_c, 0, 40, 66
1, 19101, Note_on_c, 0, 76, 0
1, 19101, Note_on_c, 0, 71, 0
1, 19101, Note_on_c, 0, 67, 0
1, 19101, Note_on_c, 0, 52, 0
1, 19101, Note_on_c, 0, 40, 0
1, 19104, Note_on_c, 0, 55, 66
1, 19104, Note_on_c, 0, 43, 66
1, 19149, Note_on_c, 0, 55, 0
1, 19149, Note_on_c, 0, 43, 0
1, 19152, Note_on_c, 0, 76, 66
1, 19152, Note_on_c, 0, 67, 66
1, 19152, Note_on_c, 0, 52, 66
1, 19152, Note_on_c, 0, 40, 66
1, 19197, Note_on_c, 0, 76, 0
1, 19197, Note_on_c, 0, 67, 0
1, 19197, Note_on_c, 0, 52, 0
1, 19197, Note_on_c, 0, 40, 0
1, 19200, Note_on_c, 0, 76, 66
1, 19200, Note_on_c, 0, 67, 66
1, 19224, Note_on_c, 0, 76, 0
1, 19224, Note_on_c, 0, 67, 0
1, 19224, Note_on_c, 0, 75, 66
1, 19224, Note_on_c, 0, 66, 66
1, 19247, Note_on_c, 0, 75, 0
1, 19247, Note_on_c, 0, 66, 0
1, 19248, Note_on_c, 0, 75, 66
1, 19248, Note_on_c, 0, 66, 66
1, 19248, Note_on_c, 0, 59, 66
1, 19248, Note_on_c, 0, 47, 66
1, 19293, Note_on_c, 0, 75, 0
1, 19293, Note_on_c, 0, 66, 0
1, 19293, Note_on_c, 0, 59, 0
1, 19293, Note_on_c, 0, 47, 0
1, 19296, Note_on_c, 0, 63, 66
1, 19296, Note_on_c, 0, 51, 66
1, 19341, Note_on_c, 0, 63, 0
1, 19341, Note_on_c, 0, 51, 0
1, 19344, Note_on_c, 0, 59, 66
1, 19344, Note_on_c, 0, 47, 66
1, 19389, Note_on_c, 0, 59, 0
1, 19389, Note_on_c, 0, 47, 0
1, 19392, Note_on_c, 0, 71, 66
1, 19398, Note_on_c, 0, 75, 66
1, 19404, Note_on_c, 0, 78, 66
1, 19410, Note_on_c, 0, 81, 66
1, 19440, Note_on_c, 0, 59, 66
1, 19440, Note_on_c, 0, 47, 66
1, 19485, Note_on_c, 0, 81, 0
1, 19485, Note_on_c, 0, 78, 0
1, 19485, Note_on_c, 0, 75, 0
1, 19485, Note_on_c, 0, 71, 0
1, 19485, Note_on_c, 0, 59, 0
1, 19485, Note_on_c, 0, 47, 0
1, 19488, Note_on_c, 0, 63, 66
1, 19488, Note_on_c, 0, 51, 66
1, 19533, Note_on_c, 0, 63, 0
1, 19533, Note_on_c, 0, 51, 0
1, 19536, Note_on_c, 0, 81, 66
1, 19536, Note_on_c, 0, 78, 66
1, 19536, Note_on_c, 0, 59, 66
1, 19536, Note_on_c, 0, 47, 66
1, 19581, Note_on_c, 0, 81, 0
1, 19581, Note_on_c, 0, 78, 0
1, 19581, Note_on_c, 0, 59, 0
1, 19581, Note_on_c, 0, 47, 0
1, 19584, Note_on_c, 0, 81, 66
1, 19584, Note_on_c, 0, 78, 66
1, 19608, Note_on_c, 0, 81, 0
1, 19608, Note_on_c, 0, 78, 0
1, 19608, Note_on_c, 0, 79, 66
1, 19608, Note_on_c, 0, 76, 66
1, 19631, Note_on_c, 0, 79, 0
1, 19631, Note_on_c, 0, 76, 0
1, 19632, Note_on_c, 0, 79, 66
1, 19632, Note_on_c, 0, 76, 66
1, 19632, Note_on_c, 0, 52, 66
1, 19632, Note_on_c, 0, 40, 66
1, 19677, Note_on_c, 0, 79, 0
1, 19677, Note_on_c, 0, 76, 0
1, 19677, Note_on_c, 0, 52, 0
1, 19677, Note_on_c, 0, 40, 0
1, 19680, Note_on_c, 0, 55, 66
1, 19680, Note_on_c, 0, 43, 66
1, 19725, Note_on_c, 0, 55, 0
1, 19725, Note_on_c, 0, 43, 0
1, 19728, Note_on_c, 0, 52, 66
1, 19728, Note_on_c, 0, 40, 66
1, 19773, Note_on_c, 0, 52, 0
1, 19773, Note_on_c, 0, 40, 0
1, 19776, Note_on_c, 0, 84, 66
1, 19776, Note_on_c, 0, 81, 66
1, 19824, Note_on_c, 0, 57, 66
1, 19824, Note_on_c, 0, 45, 66
1, 19865, Note_on_c, 0, 84, 0
1, 19865, Note_on_c, 0, 81, 0
1, 19869, Note_on_c, 0, 57, 0
1, 19869, Note_on_c, 0, 45, 0
1, 19872, Note_on_c, 0, 54, 66
1, 19872, Note_on_c, 0, 42, 66
1, 19917, Note_on_c, 0, 54, 0
1, 19917, Note_on_c, 0, 42, 0
1, 19920, Note_on_c, 0, 84, 66
1, 19920, Note_on_c, 0, 81, 66
1, 19920, Note_on_c, 0, 50, 66
1, 19920, Note_on_c, 0, 38, 66
1, 19965, Note_on_c, 0, 84, 0
1, 19965, Note_on_c, 0, 81, 0
1, 19965, Note_on_c, 0, 50, 0
1, 19965, Note_on_c, 0, 38, 0
1, 19968, Note_on_c, 0, 84, 66
1, 19968, Note_on_c, 0, 81, 66
1, 19992, Note_on_c, 0, 84, 0
1, 19992, Note_on_c, 0, 81, 0
1, 19992, Note_on_c, 0, 83, 66
1, 19992, Note_on_c, 0, 79, 66
1, 20015, Note_on_c, 0, 83, 0
1, 20015, Note_on_c, 0, 79, 0
1, 20016, Note_on_c, 0, 83, 66
1, 20016, Note_on_c, 0, 79, 66
1, 20016, Note_on_c, 0, 55, 66
1, 20016, Note_on_c, 0, 43, 66
1, 20061, Note_on_c, 0, 83, 0
1, 20061, Note_on_c, 0, 79, 0
1, 20061, Note_on_c, 0, 55, 0
1, 20061, Note_on_c, 0, 43, 0
1, 20064, Note_on_c, 0, 52, 67
1, 20064, Note_on_c, 0, 40, 67
1, 20109, Note_on_c, 0, 52, 0
1, 20109, Note_on_c, 0, 40, 0
1, 20112, Note_on_c, 0, 83, 68
1, 20112, Note_on_c, 0, 79, 68
1, 20112, Note_on_c, 0, 48, 68
1, 20112, Note_on_c, 0, 36, 68
1, 20157, Note_on_c, 0, 83, 0
1, 20157, Note_on_c, 0, 79, 0
1, 20157, Note_on_c, 0, 48, 0
1, 20157, Note_on_c, 0, 36, 0
1, 20160, Note_on_c, 0, 83, 69
1, 20160, Note_on_c, 0, 79, 69
1, 20184, Note_on_c, 0, 83, 0
1, 20184, Note_on_c, 0, 79, 0
1, 20184, Note_on_c, 0, 81, 70
1, 20184, Note_on_c, 0, 78, 70
1, 20207, Note_on_c, 0, 81, 0
1, 20207, Note_on_c, 0, 78, 0
1, 20208, Note_on_c, 0, 81, 70
1, 20208, Note_on_c, 0, 78, 70
1, 20208, Note_on_c, 0, 54, 70
1, 20208, Note_on_c, 0, 42, 70
1, 20253, Note_on_c, 0, 81, 0
1, 20253, Note_on_c, 0, 78, 0
1, 20253, Note_on_c, 0, 54, 0
1, 20253, Note_on_c, 0, 42, 0
1, 20256, Note_on_c, 0, 51, 71
1, 20256, Note_on_c, 0, 39, 71
1, 20301, Note_on_c, 0, 51, 0
1, 20301, Note_on_c, 0, 39, 0
1, 20304, Note_on_c, 0, 81, 72
1, 20304, Note_on_c, 0, 78, 72
1, 20304, Note_on_c, 0, 47, 72
1, 20304, Note_on_c, 0, 35, 72
1, 20349, Note_on_c, 0, 81, 0
1, 20349, Note_on_c, 0, 78, 0
1, 20349, Note_on_c, 0, 47, 0
1, 20349, Note_on_c, 0, 35, 0
1, 20352, Note_on_c, 0, 81, 73
1, 20352, Note_on_c, 0, 78, 73
1, 20376, Note_on_c, 0, 81, 0
1, 20376, Note_on_c, 0, 78, 0
1, 20376, Note_on_c, 0, 79, 74
1, 20376, Note_on_c, 0, 76, 74
1, 20399, Note_on_c, 0, 79, 0
1, 20399, Note_on_c, 0, 76, 0
1, 20400, Note_on_c, 0, 79, 74
1, 20400, Note_on_c, 0, 76, 74
1, 20400, Note_on_c, 0, 52, 74
1, 20400, Note_on_c, 0, 40, 74
1, 20445, Note_on_c, 0, 79, 0
1, 20445, Note_on_c, 0, 76, 0
1, 20445, Note_on_c, 0, 52, 0
1, 20445, Note_on_c, 0, 40, 0
1, 20448, Note_on_c, 0, 55, 75
1, 20448, Note_on_c, 0, 43, 75
1, 20493, Note_on_c, 0, 55, 0
1, 20493, Note_on_c, 0, 43, 0
1, 20496, Note_on_c, 0, 79, 76
1, 20496, Note_on_c, 0, 76, 76
1, 20496, Note_on_c, 0, 52, 76
1, 20496, Note_on_c, 0, 40, 76
1, 20541, Note_on_c, 0, 79, 0
1, 20541, Note_on_c, 0, 76, 0
1, 20541, Note_on_c, 0, 52, 0
1, 20541, Note_on_c, 0, 40, 0
1, 20544, Note_on_c, 0, 81, 77
1, 20544, Note_on_c, 0, 78, 77
1, 20568, Note_on_c, 0, 81, 0
1, 20568, Note_on_c, 0, 78, 0
1, 20568, Note_on_c, 0, 79, 77
1, 20568, Note_on_c, 0, 76, 77
1, 20591, Note_on_c, 0, 79, 0
1, 20591, Note_on_c, 0, 76, 0
1, 20592, Note_on_c, 0, 79, 78
1, 20592, Note_on_c, 0, 76, 78
1, 20592, Note_on_c, 0, 48, 78
1, 20592, Note_on_c, 0, 36, 78
1, 20637, Note_on_c, 0, 79, 0
1, 20637, Note_on_c, 0, 76, 0
1, 20637, Note_on_c, 0, 48, 0
1, 20637, Note_on_c, 0, 36, 0
1, 20640, Note_on_c, 0, 52, 79
1, 20640, Note_on_c, 0, 40, 79
1, 20685, Note_on_c, 0, 52, 0
1, 20685, Note_on_c, 0, 40, 0
1, 20688, Note_on_c, 0, 79, 80
1, 20688, Note_on_c, 0, 76, 80
1, 20688, Note_on_c, 0, 48, 80
1, 20688, Note_on_c, 0, 36, 80
1, 20733, Note_on_c, 0, 79, 0
1, 20733, Note_on_c, 0, 76, 0
1, 20733, Note_on_c, 0, 48, 0
1, 20733, Note_on_c, 0, 36, 0
1, 20736, Note_on_c, 0, 81, 81
1, 20736, Note_on_c, 0, 78, 81
1, 20760, Note_on_c, 0, 81, 0
1, 20760, Note_on_c, 0, 78, 0
1, 20760, Note_on_c, 0, 79, 81
1, 20760, Note_on_c, 0, 76, 81
1, 20783, Note_on_c, 0, 79, 0
1, 20783, Note_on_c, 0, 76, 0
1, 20784, Note_on_c, 0, 79, 82
1, 20784, Note_on_c, 0, 76, 82
1, 20784, Note_on_c, 0, 48, 82
1, 20784, Note_on_c, 0, 36, 82
1, 20829, Note_on_c, 0, 79, 0
1, 20829, Note_on_c, 0, 76, 0
1, 20829, Note_on_c, 0, 48, 0
1, 20829, Note_on_c, 0, 36, 0
1, 20832, Note_on_c, 0, 47, 83
1, 20832, Note_on_c, 0, 35, 83
1, 20877, Note_on_c, 0, 47, 0
1, 20877, Note_on_c, 0, 35, 0
1, 20880, Note_on_c, 0, 79, 84
1, 20880, Note_on_c, 0, 76, 84
1, 20880, Note_on_c, 0, 46, 84
1, 20880, Note_on_c, 0, 34, 84
1, 20925, Note_on_c, 0, 79, 0
1, 20925, Note_on_c, 0, 76, 0
1, 20925, Note_on_c, 0, 46, 0
1, 20925, Note_on_c, 0, 34, 0
1, 20928, Note_on_c, 0, 79, 85
1, 20928, Note_on_c, 0, 76, 85
1, 20928, Note_on_c, 0, 47, 85
1, 20928, Note_on_c, 0, 35, 85
1, 20938, Note_on_c, 0, 79, 0
1, 20938, Note_on_c, 0, 81, 85
1, 20948, Note_on_c, 0, 81, 0
1, 20948, Note_on_c, 0, 79, 85
1, 20958, Note_on_c, 0, 79, 0
1, 20958, Note_on_c, 0, 78, 85
1, 20967, Note_on_c, 0, 78, 0
1, 20967, Note_on_c, 0, 79, 85
1, 20973, Note_on_c, 0, 76, 0
1, 20976, Note_on_c, 0, 79, 0
1, 20976, Note_on_c, 0, 78, 85
1, 20976, Note_on_c, 0, 75, 85
1, 21017, Note_on_c, 0, 47, 0
1, 21017, Note_on_c, 0, 35, 0
1, 21021, Note_on_c, 0, 78, 0
1, 21021, Note_on_c, 0, 75, 0
1, 21120, Note_on_c, 0, 64, 85
1, 21120, Note_on_c, 0, 52, 85
1, 21120, Note_on_c, 0, 40, 85
1, 21135, Note_on_c, 0, 64, 0
1, 21136, Note_on_c, 0, 68, 85
1, 21151, Note_on_c, 0, 68, 0
1, 21152, Note_on_c, 0, 71, 85
1, 21167, Note_on_c, 0, 71, 0
1, 21168, Note_on_c, 0, 68, 85
1, 21183, Note_on_c, 0, 68, 0
1, 21184, Note_on_c, 0, 71, 85
1, 21199, Note_on_c, 0, 71, 0
1, 21200, Note_on_c, 0, 76, 85
1, 21209, Note_on_c, 0, 52, 0
1, 21209, Note_on_c, 0, 40, 0
1, 21215, Note_on_c, 0, 76, 0
1, 21216, Note_on_c, 0, 71, 85
1, 21231, Note_on_c, 0, 71, 0
1, 21232, Note_on_c, 0, 76, 85
1, 21247, Note_on_c, 0, 76, 0
1, 21248, Note_on_c, 0, 80, 85
1, 21263, Note_on_c, 0, 80, 0
1, 21264, Note_on_c, 0, 76, 85
1, 21279, Note_on_c, 0, 76, 0
1, 21280, Note_on_c, 0, 80, 85
1, 21295, Note_on_c, 0, 80, 0
1, 21296, Note_on_c, 0, 83, 85
1, 21311, Note_on_c, 0, 83, 0
1, 21312, Note_on_c, 0, 81, 85
1, 21312, Note_on_c, 0, 78, 85
1, 21360, Note_on_c, 0, 59, 85
1, 21360, Note_on_c, 0, 47, 85
1, 21401, Note_on_c, 0, 81, 0
1, 21401, Note_on_c, 0, 78, 0
1, 21405, Note_on_c, 0, 59, 0
1, 21405, Note_on_c, 0, 47, 0
1, 21408, Note_on_c, 0, 63, 85
1, 21408, Note_on_c, 0, 51, 85
1, 21453, Note_on_c, 0, 63, 0
1, 21453, Note_on_c, 0, 51, 0
1, 21456, Note_on_c, 0, 59, 85
1, 21456, Note_on_c, 0, 47, 85
1, 21501, Note_on_c, 0, 59, 0
1, 21501, Note_on_c, 0, 47, 0
1, 21504, Note_on_c, 0, 59, 85
1, 21504, Note_on_c, 0, 47, 85
1, 21504, Note_on_c, 0, 35, 85
1, 21519, Note_on_c, 0, 59, 0
1, 21520, Note_on_c, 0, 63, 85
1, 21535, Note_on_c, 0, 63, 0
1, 21536, Note_on_c, 0, 66, 85
1, 21551, Note_on_c, 0, 66, 0
1, 21552, Note_on_c, 0, 63, 85
1, 21567, Note_on_c, 0, 63, 0
1, 21568, Note_on_c, 0, 66, 85
1, 21583, Note_on_c, 0, 66, 0
1, 21584, Note_on_c, 0, 69, 85
1, 21593, Note_on_c, 0, 47, 0
1, 21593, Note_on_c, 0, 35, 0
1, 21599, Note_on_c, 0, 69, 0
1, 21600, Note_on_c, 0, 69, 85
1, 21615, Note_on_c, 0, 69, 0
1, 21616, Note_on_c, 0, 75, 85
1, 21631, Note_on_c, 0, 75, 0
1, 21632, Note_on_c, 0, 78, 85
1, 21647, Note_on_c, 0, 78, 0
1, 21648, Note_on_c, 0, 75, 85
1, 21663, Note_on_c, 0, 75, 0
1, 21664, Note_on_c, 0, 78, 85
1, 21679, Note_on_c, 0, 78, 0
1, 21680, Note_on_c, 0, 81, 85
1, 21695, Note_on_c, 0, 81, 0
1, 21696, Note_on_c, 0, 80, 85
1, 21696, Note_on_c, 0, 76, 85
1, 21744, Note_on_c, 0, 52, 85
1, 21744, Note_on_c, 0, 40, 85
1, 21785, Note_on_c, 0, 80, 0
1, 21785, Note_on_c, 0, 76, 0
1, 21789, Note_on_c, 0, 52, 0
1, 21789, Note_on_c, 0, 40, 0
1, 21792, Note_on_c, 0, 56, 85
1, 21792, Note_on_c, 0, 44, 85
1, 21837, Note_on_c, 0, 56, 0
1, 21837, Note_on_c, 0, 44, 0
1, 21840, Note_on_c, 0, 52, 85
1, 21840, Note_on_c, 0, 40, 85
1, 21885, Note_on_c, 0, 52, 0
1, 21885, Note_on_c, 0, 40, 0
1, 21888, Note_on_c, 0, 56, 72
1, 21911, Note_on_c, 0, 56, 0
1, 21912, Note_on_c, 0, 64, 72
1, 21935, Note_on_c, 0, 64, 0
1, 21936, Note_on_c, 0, 76, 78
1, 21936, Note_on_c, 0, 59, 72
1, 21959, Note_on_c, 0, 59, 0
1, 21960, Note_on_c, 0, 64, 72
1, 21981, Note_on_c, 0, 76, 0
1, 21983, Note_on_c, 0, 64, 0
1, 21984, Note_on_c, 0, 80, 78
1, 21984, Note_on_c, 0, 56, 72
1, 22007, Note_on_c, 0, 56, 0
1, 22008, Note_on_c, 0, 64, 72
1, 22029, Note_on_c, 0, 80, 0
1, 22031, Note_on_c, 0, 64, 0
1, 22032, Note_on_c, 0, 83, 78
1, 22032, Note_on_c, 0, 59, 72
1, 22055, Note_on_c, 0, 59, 0
1, 22056, Note_on_c, 0, 64, 72
1, 22077, Note_on_c, 0, 83, 0
1, 22079, Note_on_c, 0, 64, 0
1, 22080, Note_on_c, 0, 73, 78
1, 22080, Note_on_c, 0, 57, 72
1, 22091, Note_on_c, 0, 73, 0
1, 22091, Note_on_c, 0, 75, 78
1, 22102, Note_on_c, 0, 75, 0
1, 22102, Note_on_c, 0, 73, 78
1, 22103, Note_on_c, 0, 57, 0
1, 22104, Note_on_c, 0, 64, 72
1, 22113, Note_on_c, 0, 73, 0
1, 22113, Note_on_c, 0, 75, 78
1, 22124, Note_on_c, 0, 75, 0
1, 22124, Note_on_c, 0, 73, 78
1, 22127, Note_on_c, 0, 64, 0
1, 22128, Note_on_c, 0, 61, 72
1, 22135, Note_on_c, 0, 73, 0
1, 22135, Note_on_c, 0, 75, 78
1, 22146, Note_on_c, 0, 75, 0
1, 22146, Note_on_c, 0, 73, 78
1, 22151, Note_on_c, 0, 61, 0
1, 22152, Note_on_c, 0, 64, 72
1, 22157, Note_on_c, 0, 73, 0
1, 22157, Note_on_c, 0, 75, 78
1, 22168, Note_on_c, 0, 75, 0
1, 22168, Note_on_c, 0, 73, 78
1, 22175, Note_on_c, 0, 64, 0
1, 22176, Note_on_c, 0, 57, 72
1, 22179, Note_on_c, 0, 73, 0
1, 22179, Note_on_c, 0, 75, 78
1, 22190, Note_on_c, 0, 75, 0
1, 22190, Note_on_c, 0, 73, 78
1, 22199, Note_on_c, 0, 57, 0
1, 22200, Note_on_c, 0, 64, 72
1, 22201, Note_on_c, 0, 73, 0
1, 22201, Note_on_c, 0, 75, 78
1, 22212, Note_on_c, 0, 75, 0
1, 22212, Note_on_c, 0, 73, 78
1, 22223, Note_on_c, 0, 64, 0
1, 22224, Note_on_c, 0, 61, 72
1, 22247, Note_on_c, 0, 61, 0
1, 22248, Note_on_c, 0, 64, 72
1, 22271, Note_on_c, 0, 64, 0
1, 22272, Note_on_c, 0, 73, 0
1, 22272, Note_on_c, 0, 59, 72
1, 22295, Note_on_c, 0, 59, 0
1, 22296, Note_on_c, 0, 68, 72
1, 22319, Note_on_c, 0, 68, 0
1, 22320, Note_on_c, 0, 76, 78
1, 22320, Note_on_c, 0, 64, 72
1, 22343, Note_on_c, 0, 64, 0
1, 22344, Note_on_c, 0, 68, 72
1, 22365, Note_on_c, 0, 76, 0
1, 22367, Note_on_c, 0, 68, 0
1, 22368, Note_on_c, 0, 80, 78
1, 22368, Note_on_c, 0, 59, 72
1, 22391, Note_on_c, 0, 59, 0
1, 22392, Note_on_c, 0, 68, 72
1, 22413, Note_on_c, 0, 80, 0
1, 22415, Note_on_c, 0, 68, 0
1, 22416, Note_on_c, 0, 83, 78
1, 22416, Note_on_c, 0, 64, 72
1, 22439, Note_on_c, 0, 64, 0
1, 22440, Note_on_c, 0, 68, 72
1, 22461, Note_on_c, 0, 83, 0
1, 22463, Note_on_c, 0, 68, 0
1, 22464, Note_on_c, 0, 76, 78
1, 22464, Note_on_c, 0, 61, 72
1, 22475, Note_on_c, 0, 76, 0
1, 22475, Note_on_c, 0, 78, 78
1, 22486, Note_on_c, 0, 78, 0
1, 22486, Note_on_c, 0, 76, 78
1, 22487, Note_on_c, 0, 61, 0
1, 22488, Note_on_c, 0, 68, 72
1, 22497, Note_on_c, 0, 76, 0
1, 22497, Note_on_c, 0, 78, 78
1, 22508, Note_on_c, 0, 78, 0
1, 22508, Note_on_c, 0, 76, 78
1, 22511, Note_on_c, 0, 68, 0
1, 22512, Note_on_c, 0, 64, 72
1, 22519, Note_on_c, 0, 76, 0
1, 22519, Note_on_c, 0, 78, 78
1, 22530, Note_on_c, 0, 78, 0
1, 22530, Note_on_c, 0, 76, 78
1, 22535, Note_on_c, 0, 64, 0
1, 22536, Note_on_c, 0, 68, 72
1, 22541, Note_on_c, 0, 76, 0
1, 22541, Note_on_c, 0, 78, 78
1, 22552, Note_on_c, 0, 78, 0
1, 22552, Note_on_c, 0, 76, 78
1, 22559, Note_on_c, 0, 68, 0
1, 22560, Note_on_c, 0, 61, 72
1, 22563, Note_on_c, 0, 76, 0
1, 22563, Note_on_c, 0, 78, 78
1, 22574, Note_on_c, 0, 78, 0
1, 22574, Note_on_c, 0, 76, 78
1, 22583, Note_on_c, 0, 61, 0
1, 22584, Note_on_c, 0, 68, 72
1, 22585, Note_on_c, 0, 76, 0
1, 22585, Note_on_c, 0, 78, 78
1, 22596, Note_on_c, 0, 78, 0
1, 22596, Note_on_c, 0, 76, 78
1, 22607, Note_on_c, 0, 68, 0
1, 22608, Note_on_c, 0, 64, 72
1, 22631, Note_on_c, 0, 64, 0
1, 22632, Note_on_c, 0, 68, 72
1, 22655, Note_on_c, 0, 68, 0
1, 22656, Note_on_c, 0, 76, 0
1, 22656, Note_on_c, 0, 56, 72
1, 22679, Note_on_c, 0, 56, 0
1, 22680, Note_on_c, 0, 64, 72
1, 22703, Note_on_c, 0, 64, 0
1, 22704, Note_on_c, 0, 76, 78
1, 22704, Note_on_c, 0, 59, 72
1, 22727, Note_on_c, 0, 59, 0
1, 22728, Note_on_c, 0, 64, 72
1, 22749, Note_on_c, 0, 76, 0
1, 22751, Note_on_c, 0, 64, 0
1, 22752, Note_on_c, 0, 80, 78
1, 22752, Note_on_c, 0, 56, 72
1, 22775, Note_on_c, 0, 56, 0
1, 22776, Note_on_c, 0, 64, 72
1, 22797, Note_on_c, 0, 80, 0
1, 22799, Note_on_c, 0, 64, 0
1, 22800, Note_on_c, 0, 83, 78
1, 22800, Note_on_c, 0, 59, 72
1, 22823, Note_on_c, 0, 59, 0
1, 22824, Note_on_c, 0, 64, 72
1, 22845, Note_on_c, 0, 83, 0
1, 22847, Note_on_c, 0, 64, 0
1, 22848, Note_on_c, 0, 83, 78
1, 22848, Note_on_c, 0, 57, 72
1, 22871, Note_on_c, 0, 57, 0
1, 22872, Note_on_c, 0, 64, 72
1, 22893, Note_on_c, 0, 83, 0
1, 22895, Note_on_c, 0, 64, 0
1, 22896, Note_on_c, 0, 84, 78
1, 22896, Note_on_c, 0, 61, 72
1, 22919, Note_on_c, 0, 61, 0
1, 22920, Note_on_c, 0, 64, 72
1, 22941, Note_on_c, 0, 84, 0
1, 22943, Note_on_c, 0, 64, 0
1, 22944, Note_on_c, 0, 85, 78
1, 22944, Note_on_c, 0, 57, 72
1, 22967, Note_on_c, 0, 57, 0
1, 22968, Note_on_c, 0, 64, 72
1, 22989, Note_on_c, 0, 85, 0
1, 22991, Note_on_c, 0, 64, 0
1, 22992, Note_on_c, 0, 81, 78
1, 22992, Note_on_c, 0, 61, 72
1, 23015, Note_on_c, 0, 61, 0
1, 23016, Note_on_c, 0, 64, 72
1, 23037, Note_on_c, 0, 81, 0
1, 23039, Note_on_c, 0, 64, 0
1, 23040, Note_on_c, 0, 81, 78
1, 23040, Note_on_c, 0, 59, 72
1, 23063, Note_on_c, 0, 81, 0
1, 23063, Note_on_c, 0, 59, 0
1, 23064, Note_on_c, 0, 80, 78
1, 23064, Note_on_c, 0, 68, 72
1, 23087, Note_on_c, 0, 80, 0
1, 23087, Note_on_c, 0, 68, 0
1, 23088, Note_on_c, 0, 78, 78
1, 23088, Note_on_c, 0, 64, 72
1, 23111, Note_on_c, 0, 78, 0
1, 23111, Note_on_c, 0, 64, 0
1, 23112, Note_on_c, 0, 76, 78
1, 23112, Note_on_c, 0, 68, 72
1, 23135, Note_on_c, 0, 76, 0
1, 23135, Note_on_c, 0, 68, 0
1, 23136, Note_on_c, 0, 80, 78
1, 23136, Note_on_c, 0, 59, 72
1, 23159, Note_on_c, 0, 80, 0
1, 23159, Note_on_c, 0, 59, 0
1, 23160, Note_on_c, 0, 78, 78
1, 23160, Note_on_c, 0, 69, 72
1, 23183, Note_on_c, 0, 78, 0
1, 23183, Note_on_c, 0, 69, 0
1, 23184, Note_on_c, 0, 76, 78
1, 23184, Note_on_c, 0, 66, 72
1, 23207, Note_on_c, 0, 76, 0
1, 23207, Note_on_c, 0, 66, 0
1, 23208, Note_on_c, 0, 75, 78
1, 23208, Note_on_c, 0, 69, 72
1, 23231, Note_on_c, 0, 75, 0
1, 23231, Note_on_c, 0, 69, 0
1, 23232, Note_on_c, 0, 76, 78
1, 23232, Note_on_c, 0, 68, 72
1, 23232, Note_on_c, 0, 64, 72
1, 23277, Note_on_c, 0, 76, 0
1, 23280, Note_on_c, 0, 80, 85
1, 23280, Note_on_c, 0, 76, 85
1, 23295, Note_on_c, 0, 80, 0
1, 23295, Note_on_c, 0, 76, 0
1, 23296, Note_on_c, 0, 81, 85
1, 23296, Note_on_c, 0, 78, 85
1, 23311, Note_on_c, 0, 81, 0
1, 23311, Note_on_c, 0, 78, 0
1, 23312, Note_on_c, 0, 83, 85
1, 23312, Note_on_c, 0, 80, 85
1, 23321, Note_on_c, 0, 68, 0
1, 23321, Note_on_c, 0, 64, 0
1, 23327, Note_on_c, 0, 83, 0
1, 23327, Note_on_c, 0, 80, 0
1, 23328, Note_on_c, 0, 81, 85
1, 23328, Note_on_c, 0, 78, 85
1, 23373, Note_on_c, 0, 81, 0
1, 23373, Note_on_c, 0, 78, 0
1, 23376, Note_on_c, 0, 75, 85
1, 23376, Note_on_c, 0, 69, 85
1, 23376, Note_on_c, 0, 59, 85
1, 23421, Note_on_c, 0, 75, 0
1, 23421, Note_on_c, 0, 69, 0
1, 23421, Note_on_c, 0, 59, 0
1, 23424, Note_on_c, 0, 76, 85
1, 23424, Note_on_c, 0, 68, 85
1, 23424, Note_on_c, 0, 52, 85
1, 23469, Note_on_c, 0, 76, 0
1, 23469, Note_on_c, 0, 68, 0
1, 23472, Note_on_c, 0, 68, 85
1, 23472, Note_on_c, 0, 64, 85
1, 23487, Note_on_c, 0, 68, 0
1, 23487, Note_on_c, 0, 64, 0
1, 23488, Note_on_c, 0, 69, 85
1, 23488, Note_on_c, 0, 66, 85
1, 23503, Note_on_c, 0, 69, 0
1, 23503, Note_on_c, 0, 66, 0
1, 23504, Note_on_c, 0, 71, 85
1, 23504, Note_on_c, 0, 68, 85
1, 23513, Note_on_c, 0, 52, 0
1, 23519, Note_on_c, 0, 71, 0
1, 23519, Note_on_c, 0, 68, 0
1, 23520, Note_on_c, 0, 69, 85
1, 23520, Note_on_c, 0, 66, 85
1, 23565, Note_on_c, 0, 69, 0
1, 23565, Note_on_c, 0, 66, 0
1, 23568, Note_on_c, 0, 63, 85
1, 23568, Note_on_c, 0, 57, 85
1, 23568, Note_on_c, 0, 47, 85
1, 23613, Note_on_c, 0, 63, 0
1, 23613, Note_on_c, 0, 57, 0
1, 23613, Note_on_c, 0, 47, 0
1, 23616, Note_on_c, 0, 64, 85
1, 23616, Note_on_c, 0, 56, 85
1, 23616, Note_on_c, 0, 40, 85
1, 23705, Note_on_c, 0, 64, 0
1, 23705, Note_on_c, 0, 56, 0
1, 23705, Note_on_c, 0, 40, 0
1, 23808, Note_on_c, 0, 64, 78
1, 23808, Note_on_c, 0, 56, 66
1, 23808, Note_on_c, 0, 52, 66
1, 23831, Note_on_c, 0, 64, 0
1, 23832, Note_on_c, 0, 66, 78
1, 23853, Note_on_c, 0, 56, 0
1, 23853, Note_on_c, 0, 52, 0
1, 23855, Note_on_c, 0, 66, 0
1, 23856, Note_on_c, 0, 68, 78
1, 23856, Note_on_c, 0, 56, 66
1, 23856, Note_on_c, 0, 52, 66
1, 23879, Note_on_c, 0, 68, 0
1, 23880, Note_on_c, 0, 69, 78
1, 23901, Note_on_c, 0, 56, 0
1, 23901, Note_on_c, 0, 52, 0
1, 23903, Note_on_c, 0, 69, 0
1, 23904, Note_on_c, 0, 71, 78
1, 23904, Note_on_c, 0, 56, 66
1, 23904, Note_on_c, 0, 52, 66
1, 23927, Note_on_c, 0, 71, 0
1, 23928, Note_on_c, 0, 73, 78
1, 23949, Note_on_c, 0, 56, 0
1, 23949, Note_on_c, 0, 52, 0
1, 23951, Note_on_c, 0, 73, 0
1, 23952, Note_on_c, 0, 75, 78
1, 23952, Note_on_c, 0, 56, 66
1, 23952, Note_on_c, 0, 52, 66
1, 23975, Note_on_c, 0, 75, 0
1, 23976, Note_on_c, 0, 76, 78
1, 23997, Note_on_c, 0, 56, 0
1, 23997, Note_on_c, 0, 52, 0
1, 23999, Note_on_c, 0, 76, 0
1, 24000, Note_on_c, 0, 73, 78
1, 24000, Note_on_c, 0, 57, 66
1, 24000, Note_on_c, 0, 52, 66
1, 24010, Note_on_c, 0, 73, 0
1, 24010, Note_on_c, 0, 75, 78
1, 24020, Note_on_c, 0, 75, 0
1, 24020, Note_on_c, 0, 73, 78
1, 24030, Note_on_c, 0, 73, 0
1, 24030, Note_on_c, 0, 71, 78
1, 24039, Note_on_c, 0, 71, 0
1, 24039, Note_on_c, 0, 73, 78
1, 24045, Note_on_c, 0, 57, 0
1, 24045, Note_on_c, 0, 52, 0
1, 24048, Note_on_c, 0, 73, 0
1, 24048, Note_on_c, 0, 71, 78
1, 24048, Note_on_c, 0, 56, 66
1, 24048, Note_on_c, 0, 52, 66
1, 24093, Note_on_c, 0, 71, 0
1, 24093, Note_on_c, 0, 56, 0
1, 24093, Note_on_c, 0, 52, 0
1, 24096, Note_on_c, 0, 56, 66
1, 24096, Note_on_c, 0, 52, 66
1, 24141, Note_on_c, 0, 56, 0
1, 24141, Note_on_c, 0, 52, 0
1, 24144, Note_on_c, 0, 78, 78
1, 24144, Note_on_c, 0, 56, 66
1, 24144, Note_on_c, 0, 52, 66
1, 24156, Note_on_c, 0, 78, 0
1, 24156, Note_on_c, 0, 76, 78
1, 24168, Note_on_c, 0, 76, 0
1, 24168, Note_on_c, 0, 75, 78
1, 24180, Note_on_c, 0, 75, 0
1, 24180, Note_on_c, 0, 76, 78
1, 24189, Note_on_c, 0, 56, 0
1, 24189, Note_on_c, 0, 52, 0
1, 24192, Note_on_c, 0, 76, 0
1, 24192, Note_on_c, 0, 75, 78
1, 24207, Note_on_c, 0, 75, 0
1, 24208, Note_on_c, 0, 76, 78
1, 24223, Note_on_c, 0, 76, 0
1, 24224, Note_on_c, 0, 78, 78
1, 24239, Note_on_c, 0, 78, 0
1, 24240, Note_on_c, 0, 69, 78
1, 24240, Note_on_c, 0, 54, 66
1, 24240, Note_on_c, 0, 47, 66
1, 24285, Note_on_c, 0, 69, 0
1, 24285, Note_on_c, 0, 54, 0
1, 24285, Note_on_c, 0, 47, 0
1, 24288, Note_on_c, 0, 68, 78
1, 24288, Note_on_c, 0, 52, 66
1, 24288, Note_on_c, 0, 47, 66
1, 24298, Note_on_c, 0, 68, 0
1, 24298, Note_on_c, 0, 69, 78
1, 24308, Note_on_c, 0, 69, 0
1, 24308, Note_on_c, 0, 68, 78
1, 24318, Note_on_c, 0, 68, 0
1, 24318, Note_on_c, 0, 66, 78
1, 24327, Note_on_c, 0, 66, 0
1, 24327, Note_on_c, 0, 68, 78
1, 24333, Note_on_c, 0, 52, 0
1, 24333, Note_on_c, 0, 47, 0
1, 24336, Note_on_c, 0, 68, 0
1, 24336, Note_on_c, 0, 66, 78
1, 24336, Note_on_c, 0, 51, 66
1, 24336, Note_on_c, 0, 47, 66
1, 24381, Note_on_c, 0, 66, 0
1, 24381, Note_on_c, 0, 51, 0
1, 24381, Note_on_c, 0, 47, 0
1, 24384, Note_on_c, 0, 68, 78
1, 24399, Note_on_c, 0, 68, 0
1, 24400, Note_on_c, 0, 69, 78
1, 24415, Note_on_c, 0, 69, 0
1, 24416, Note_on_c, 0, 71, 78
1, 24431, Note_on_c, 0, 71, 0
1, 24432, Note_on_c, 0, 64, 78
1, 24432, Note_on_c, 0, 56, 66
1, 24432, Note_on_c, 0, 52, 66
1, 24477, Note_on_c, 0, 64, 0
1, 24477, Note_on_c, 0, 56, 0
1, 24477, Note_on_c, 0, 52, 0
1, 24480, Note_on_c, 0, 59, 66
1, 24480, Note_on_c, 0, 56, 66
1, 24525, Note_on_c, 0, 59, 0
1, 24525, Note_on_c, 0, 56, 0
1, 24528, Note_on_c, 0, 78, 78
1, 24528, Note_on_c, 0, 56, 66
1, 24528, Note_on_c, 0, 52, 66
1, 24540, Note_on_c, 0, 78, 0
1, 24540, Note_on_c, 0, 76, 78
1, 24552, Note_on_c, 0, 76, 0
1, 24552, Note_on_c, 0, 75, 78
1, 24564, Note_on_c, 0, 75, 0
1, 24564, Note_on_c, 0, 76, 78
1, 24569, Note_on_c, 0, 76, 0
1, 24573, Note_on_c, 0, 56, 0
1, 24573, Note_on_c, 0, 52, 0
1, 24576, Note_on_c, 0, 75, 101
1, 24591, Note_on_c, 0, 75, 0
1, 24592, Note_on_c, 0, 76, 78
1, 24607, Note_on_c, 0, 76, 0
1, 24608, Note_on_c, 0, 78, 78
1, 24623, Note_on_c, 0, 78, 0
1, 24624, Note_on_c, 0, 69, 78
1, 24624, Note_on_c, 0, 54, 66
1, 24624, Note_on_c, 0, 47, 66
1, 24669, Note_on_c, 0, 69, 0
1, 24669, Note_on_c, 0, 54, 0
1, 24669, Note_on_c, 0, 47, 0
1, 24672, Note_on_c, 0, 68, 78
1, 24672, Note_on_c, 0, 52, 66
1, 24672, Note_on_c, 0, 47, 66
1, 24682, Note_on_c, 0, 68, 0
1, 24682, Note_on_c, 0, 69, 78
1, 24692, Note_on_c, 0, 69, 0
1, 24692, Note_on_c, 0, 68, 78
1, 24702, Note_on_c, 0, 68, 0
1, 24702, Note_on_c, 0, 66, 78
1, 24711, Note_on_c, 0, 66, 0
1, 24711, Note_on_c, 0, 68, 78
1, 24717, Note_on_c, 0, 52, 0
1, 24717, Note_on_c, 0, 47, 0
1, 24720, Note_on_c, 0, 68, 0
1, 24720, Note_on_c, 0, 66, 78
1, 24720, Note_on_c, 0, 51, 66
1, 24720, Note_on_c, 0, 47, 66
1, 24765, Note_on_c, 0, 66, 0
1, 24765, Note_on_c, 0, 51, 0
1, 24765, Note_on_c, 0, 47, 0
1, 24768, Note_on_c, 0, 68, 78
1, 24783, Note_on_c, 0, 68, 0
1, 24784, Note_on_c, 0, 69, 78
1, 24799, Note_on_c, 0, 69, 0
1, 24800, Note_on_c, 0, 71, 78
1, 24815, Note_on_c, 0, 71, 0
1, 24816, Note_on_c, 0, 64, 78
1, 24816, Note_on_c, 0, 56, 66
1, 24816, Note_on_c, 0, 52, 66
1, 24861, Note_on_c, 0, 64, 0
1, 24861, Note_on_c, 0, 56, 0
1, 24861, Note_on_c, 0, 52, 0
1, 24864, Note_on_c, 0, 59, 66
1, 24864, Note_on_c, 0, 56, 66
1, 24909, Note_on_c, 0, 59, 0
1, 24909, Note_on_c, 0, 56, 0
1, 24912, Note_on_c, 0, 56, 66
1, 24912, Note_on_c, 0, 52, 66
1, 24957, Note_on_c, 0, 56, 0
1, 24957, Note_on_c, 0, 52, 0
1, 24960, Note_on_c, 0, 79, 101
1, 24960, Note_on_c, 0, 70, 101
1, 25008, Note_on_c, 0, 64, 85
1, 25008, Note_on_c, 0, 52, 85
1, 25053, Note_on_c, 0, 64, 0
1, 25053, Note_on_c, 0, 52, 0
1, 25056, Note_on_c, 0, 79, 0
1, 25056, Note_on_c, 0, 70, 0
1, 25056, Note_on_c, 0, 79, 85
1, 25056, Note_on_c, 0, 62, 85
1, 25056, Note_on_c, 0, 50, 85
1, 25080, Note_on_c, 0, 79, 0
1, 25080, Note_on_c, 0, 78, 85
1, 25101, Note_on_c, 0, 62, 0
1, 25101, Note_on_c, 0, 50, 0
1, 25103, Note_on_c, 0, 78, 0
1, 25104, Note_on_c, 0, 78, 85
1, 25104, Note_on_c, 0, 61, 85
1, 25104, Note_on_c, 0, 49, 85
1, 25128, Note_on_c, 0, 78, 0
1, 25128, Note_on_c, 0, 76, 85
1, 25149, Note_on_c, 0, 61, 0
1, 25149, Note_on_c, 0, 49, 0
1, 25151, Note_on_c, 0, 76, 0
1, 25152, Note_on_c, 0, 76, 85
1, 25152, Note_on_c, 0, 59, 85
1, 25152, Note_on_c, 0, 47, 85
1, 25176, Note_on_c, 0, 76, 0
1, 25176, Note_on_c, 0, 74, 85
1, 25197, Note_on_c, 0, 59, 0
1, 25197, Note_on_c, 0, 47, 0
1, 25199, Note_on_c, 0, 74, 0
1, 25200, Note_on_c, 0, 74, 85
1, 25200, Note_on_c, 0, 58, 85
1, 25200, Note_on_c, 0, 46, 85
1, 25224, Note_on_c, 0, 74, 0
1, 25224, Note_on_c, 0, 73, 85
1, 25245, Note_on_c, 0, 58, 0
1, 25245, Note_on_c, 0, 46, 0
1, 25247, Note_on_c, 0, 73, 0
1, 25248, Note_on_c, 0, 73, 85
1, 25248, Note_on_c, 0, 59, 85
1, 25248, Note_on_c, 0, 47, 85
1, 25296, Note_on_c, 0, 73, 0
1, 25296, Note_on_c, 0, 74, 85
1, 25337, Note_on_c, 0, 59, 0
1, 25337, Note_on_c, 0, 47, 0
1, 25341, Note_on_c, 0, 74, 0
1, 25344, Note_on_c, 0, 78, 101
1, 25344, Note_on_c, 0, 68, 101
1, 25392, Note_on_c, 0, 62, 85
1, 25392, Note_on_c, 0, 50, 85
1, 25437, Note_on_c, 0, 62, 0
1, 25437, Note_on_c, 0, 50, 0
1, 25440, Note_on_c, 0, 78, 0
1, 25440, Note_on_c, 0, 68, 0
1, 25440, Note_on_c, 0, 78, 85
1, 25440, Note_on_c, 0, 61, 85
1, 25440, Note_on_c, 0, 49, 85
1, 25464, Note_on_c, 0, 78, 0
1, 25464, Note_on_c, 0, 76, 85
1, 25485, Note_on_c, 0, 61, 0
1, 25485, Note_on_c, 0, 49, 0
1, 25487, Note_on_c, 0, 76, 0
1, 25488, Note_on_c, 0, 76, 85
1, 25488, Note_on_c, 0, 59, 85
1, 25488, Note_on_c, 0, 47, 85
1, 25512, Note_on_c, 0, 76, 0
1, 25512, Note_on_c, 0, 74, 85
1, 25533, Note_on_c, 0, 59, 0
1, 25533, Note_on_c, 0, 47, 0
1, 25535, Note_on_c, 0, 74, 0
1, 25536, Note_on_c, 0, 74, 85
1, 25536, Note_on_c, 0, 57, 85
1, 25536, Note_on_c, 0, 45, 85
1, 25560, Note_on_c, 0, 74, 0
1, 25560, Note_on_c, 0, 73, 85
1, 25581, Note_on_c, 0, 57, 0
1, 25581, Note_on_c, 0, 45, 0
1, 25583, Note_on_c, 0, 73, 0
1, 25584, Note_on_c, 0, 73, 85
1, 25584, Note_on_c, 0, 56, 85
1, 25584, Note_on_c, 0, 44, 85
1, 25608, Note_on_c, 0, 73, 0
1, 25608, Note_on_c, 0, 71, 85
1, 25629, Note_on_c, 0, 56, 0
1, 25629, Note_on_c, 0, 44, 0
1, 25631, Note_on_c, 0, 71, 0
1, 25632, Note_on_c, 0, 71, 85
1, 25632, Note_on_c, 0, 57, 85
1, 25632, Note_on_c, 0, 45, 85
1, 25680, Note_on_c, 0, 71, 0
1, 25680, Note_on_c, 0, 73, 85
1, 25721, Note_on_c, 0, 57, 0
1, 25721, Note_on_c, 0, 45, 0
1, 25725, Note_on_c, 0, 73, 0
1, 25728, Note_on_c, 0, 80, 85
1, 25728, Note_on_c, 0, 52, 85
1, 25728, Note_on_c, 0, 40, 85
1, 25743, Note_on_c, 0, 80, 0
1, 25744, Note_on_c, 0, 83, 85
1, 25759, Note_on_c, 0, 83, 0
1, 25760, Note_on_c, 0, 80, 85
1, 25775, Note_on_c, 0, 80, 0
1, 25776, Note_on_c, 0, 74, 85
1, 25791, Note_on_c, 0, 74, 0
1, 25792, Note_on_c, 0, 80, 85
1, 25807, Note_on_c, 0, 80, 0
1, 25808, Note_on_c, 0, 74, 85
1, 25817, Note_on_c, 0, 52, 0
1, 25817, Note_on_c, 0, 40, 0
1, 25823, Note_on_c, 0, 74, 0
1, 25824, Note_on_c, 0, 71, 85
1, 25839, Note_on_c, 0, 71, 0
1, 25840, Note_on_c, 0, 74, 85
1, 25855, Note_on_c, 0, 74, 0
1, 25856, Note_on_c, 0, 71, 85
1, 25871, Note_on_c, 0, 71, 0
1, 25872, Note_on_c, 0, 68, 85
1, 25887, Note_on_c, 0, 68, 0
1, 25888, Note_on_c, 0, 71, 85
1, 25903, Note_on_c, 0, 71, 0
1, 25904, Note_on_c, 0, 68, 85
1, 25919, Note_on_c, 0, 68, 0
1, 25920, Note_on_c, 0, 52, 85
1, 25944, Note_on_c, 0, 64, 85
1, 25967, Note_on_c, 0, 64, 0
1, 25968, Note_on_c, 0, 74, 85
1, 25968, Note_on_c, 0, 59, 72
1, 25991, Note_on_c, 0, 74, 0
1, 25992, Note_on_c, 0, 64, 85
1, 26013, Note_on_c, 0, 59, 0
1, 26015, Note_on_c, 0, 64, 0
1, 26016, Note_on_c, 0, 73, 85
1, 26016, Note_on_c, 0, 57, 72
1, 26039, Note_on_c, 0, 73, 0
1, 26040, Note_on_c, 0, 64, 85
1, 26061, Note_on_c, 0, 57, 0
1, 26063, Note_on_c, 0, 64, 0
1, 26064, Note_on_c, 0, 71, 85
1, 26064, Note_on_c, 0, 56, 72
1, 26087, Note_on_c, 0, 71, 0
1, 26088, Note_on_c, 0, 64, 85
1, 26097, Note_on_c, 0, 52, 0
1, 26109, Note_on_c, 0, 56, 0
1, 26111, Note_on_c, 0, 64, 0
1, 26112, Note_on_c, 0, 81, 85
1, 26112, Note_on_c, 0, 57, 72
1, 26112, Note_on_c, 0, 52, 85
1, 26127, Note_on_c, 0, 81, 0
1, 26128, Note_on_c, 0, 85, 85
1, 26143, Note_on_c, 0, 85, 0
1, 26144, Note_on_c, 0, 81, 85
1, 26159, Note_on_c, 0, 81, 0
1, 26160, Note_on_c, 0, 76, 85
1, 26175, Note_on_c, 0, 76, 0
1, 26176, Note_on_c, 0, 81, 85
1, 26191, Note_on_c, 0, 81, 0
1, 26192, Note_on_c, 0, 76, 85
1, 26201, Note_on_c, 0, 57, 0
1, 26201, Note_on_c, 0, 52, 0
1, 26207, Note_on_c, 0, 76, 0
1, 26208, Note_on_c, 0, 73, 85
1, 26223, Note_on_c, 0, 73, 0
1, 26224, Note_on_c, 0, 76, 85
1, 26239, Note_on_c, 0, 76, 0
1, 26240, Note_on_c, 0, 73, 85
1, 26255, Note_on_c, 0, 73, 0
1, 26256, Note_on_c, 0, 69, 85
1, 26271, Note_on_c, 0, 69, 0
1, 26272, Note_on_c, 0, 73, 85
1, 26287, Note_on_c, 0, 73, 0
1, 26288, Note_on_c, 0, 69, 85
1, 26303, Note_on_c, 0, 69, 0
1, 26304, Note_on_c, 0, 52, 85
1, 26328, Note_on_c, 0, 64, 85
1, 26351, Note_on_c, 0, 64, 0
1, 26352, Note_on_c, 0, 76, 85
1, 26352, Note_on_c, 0, 61, 72
1, 26375, Note_on_c, 0, 76, 0
1, 26376, Note_on_c, 0, 64, 85
1, 26397, Note_on_c, 0, 61, 0
1, 26399, Note_on_c, 0, 64, 0
1, 26400, Note_on_c, 0, 74, 85
1, 26400, Note_on_c, 0, 59, 72
1, 26423, Note_on_c, 0, 74, 0
1, 26424, Note_on_c, 0, 64, 85
1, 26445, Note_on_c, 0, 59, 0
1, 26447, Note_on_c, 0, 64, 0
1, 26448, Note_on_c, 0, 73, 85
1, 26448, Note_on_c, 0, 57, 72
1, 26471, Note_on_c, 0, 73, 0
1, 26472, Note_on_c, 0, 64, 85
1, 26481, Note_on_c, 0, 52, 0
1, 26493, Note_on_c, 0, 57, 0
1, 26495, Note_on_c, 0, 64, 0
1, 26496, Note_on_c, 0, 81, 78
1, 26508, Note_on_c, 0, 81, 0
1, 26508, Note_on_c, 0, 80, 78
1, 26520, Note_on_c, 0, 80, 0
1, 26520, Note_on_c, 0, 78, 78
1, 26532, Note_on_c, 0, 78, 0
1, 26532, Note_on_c, 0, 76, 78
1, 26544, Note_on_c, 0, 76, 0
1, 26544, Note_on_c, 0, 75, 78
1, 26544, Note_on_c, 0, 69, 72
1, 26544, Note_on_c, 0, 66, 72
1, 26589, Note_on_c, 0, 69, 0
1, 26589, Note_on_c, 0, 66, 0
1, 26592, Note_on_c, 0, 69, 72
1, 26592, Note_on_c, 0, 66, 72
1, 26637, Note_on_c, 0, 69, 0
1, 26637, Note_on_c, 0, 66, 0
1, 26640, Note_on_c, 0, 69, 72
1, 26640, Note_on_c, 0, 66, 72
1, 26677, Note_on_c, 0, 75, 0
1, 26685, Note_on_c, 0, 69, 0
1, 26685, Note_on_c, 0, 66, 0
1, 26688, Note_on_c, 0, 83, 78
1, 26700, Note_on_c, 0, 83, 0
1, 26700, Note_on_c, 0, 81, 78
1, 26712, Note_on_c, 0, 81, 0
1, 26712, Note_on_c, 0, 80, 78
1, 26724, Note_on_c, 0, 80, 0
1, 26724, Note_on_c, 0, 78, 78
1, 26736, Note_on_c, 0, 78, 0
1, 26736, Note_on_c, 0, 76, 78
1, 26736, Note_on_c, 0, 71, 72
1, 26736, Note_on_c, 0, 68, 72
1, 26781, Note_on_c, 0, 71, 0
1, 26781, Note_on_c, 0, 68, 0
1, 26784, Note_on_c, 0, 71, 72
1, 26784, Note_on_c, 0, 68, 72
1, 26829, Note_on_c, 0, 71, 0
1, 26829, Note_on_c, 0, 68, 0
1, 26832, Note_on_c, 0, 71, 72
1, 26832, Note_on_c, 0, 68, 72
1, 26869, Note_on_c, 0, 76, 0
1, 26877, Note_on_c, 0, 71, 0
1, 26877, Note_on_c, 0, 68, 0
1, 26880, Note_on_c, 0, 69, 72
1, 26904, Note_on_c, 0, 85, 72
1, 26914, Note_on_c, 0, 85, 0
1, 26925, Note_on_c, 0, 69, 0
1, 26928, Note_on_c, 0, 86, 72
1, 26928, Note_on_c, 0, 64, 72
1, 26940, Note_on_c, 0, 86, 0
1, 26940, Note_on_c, 0, 85, 72
1, 26952, Note_on_c, 0, 85, 0
1, 26952, Note_on_c, 0, 86, 72
1, 26964, Note_on_c, 0, 86, 0
1, 26964, Note_on_c, 0, 83, 72
1, 26970, Note_on_c, 0, 83, 0
1, 26970, Note_on_c, 0, 85, 72
1, 26973, Note_on_c, 0, 64, 0
1, 26976, Note_on_c, 0, 85, 0
1, 26976, Note_on_c, 0, 86, 72
1, 26976, Note_on_c, 0, 71, 72
1, 27021, Note_on_c, 0, 86, 0
1, 27021, Note_on_c, 0, 71, 0
1, 27024, Note_on_c, 0, 64, 72
1, 27069, Note_on_c, 0, 64, 0
1, 27072, Note_on_c, 0, 68, 72
1, 27096, Note_on_c, 0, 83, 72
1, 27106, Note_on_c, 0, 83, 0
1, 27117, Note_on_c, 0, 68, 0
1, 27120, Note_on_c, 0, 85, 72
1, 27120, Note_on_c, 0, 64, 72
1, 27132, Note_on_c, 0, 85, 0
1, 27132, Note_on_c, 0, 83, 72
1, 27144, Note_on_c, 0, 83, 0
1, 27144, Note_on_c, 0, 85, 72
1, 27156, Note_on_c, 0, 85, 0
1, 27156, Note_on_c, 0, 81, 72
1, 27162, Note_on_c, 0, 81, 0
1, 27162, Note_on_c, 0, 83, 72
1, 27165, Note_on_c, 0, 64, 0
1, 27168, Note_on_c, 0, 83, 0
1, 27168, Note_on_c, 0, 85, 72
1, 27168, Note_on_c, 0, 69, 72
1, 27213, Note_on_c, 0, 85, 0
1, 27213, Note_on_c, 0, 69, 0
1, 27216, Note_on_c, 0, 64, 72
1, 27261, Note_on_c, 0, 64, 0
1, 27264, Note_on_c, 0, 69, 72
1, 27288, Note_on_c, 0, 85, 72
1, 27298, Note_on_c, 0, 85, 0
1, 27309, Note_on_c, 0, 69, 0
1, 27312, Note_on_c, 0, 86, 72
1, 27312, Note_on_c, 0, 64, 72
1, 27324, Note_on_c, 0, 86, 0
1, 27324, Note_on_c, 0, 85, 72
1, 27336, Note_on_c, 0, 85, 0
1, 27336, Note_on_c, 0, 86, 72
1, 27348, Note_on_c, 0, 86, 0
1, 27348, Note_on_c, 0, 83, 72
1, 27354, Note_on_c, 0, 83, 0
1, 27354, Note_on_c, 0, 85, 72
1, 27357, Note_on_c, 0, 64, 0
1, 27360, Note_on_c, 0, 85, 0
1, 27360, Note_on_c, 0, 86, 72
1, 27360, Note_on_c, 0, 71, 72
1, 27405, Note_on_c, 0, 86, 0
1, 27405, Note_on_c, 0, 71, 0
1, 27408, Note_on_c, 0, 64, 72
1, 27453, Note_on_c, 0, 64, 0
1, 27456, Note_on_c, 0, 68, 72
1, 27480, Note_on_c, 0, 83, 72
1, 27490, Note_on_c, 0, 83, 0
1, 27501, Note_on_c, 0, 68, 0
1, 27504, Note_on_c, 0, 85, 72
1, 27504, Note_on_c, 0, 64, 72
1, 27516, Note_on_c, 0, 85, 0
1, 27516, Note_on_c, 0, 83, 72
1, 27528, Note_on_c, 0, 83, 0
1, 27528, Note_on_c, 0, 85, 72
1, 27540, Note_on_c, 0, 85, 0
1, 27540, Note_on_c, 0, 81, 72
1, 27546, Note_on_c, 0, 81, 0
1, 27546, Note_on_c, 0, 83, 72
1, 27549, Note_on_c, 0, 64, 0
1, 27552, Note_on_c, 0, 83, 0
1, 27552, Note_on_c, 0, 85, 72
1, 27552, Note_on_c, 0, 69, 73
1, 27575, Note_on_c, 0, 85, 0
1, 27576, Note_on_c, 0, 81, 73
1, 27586, Note_on_c, 0, 81, 0
1, 27597, Note_on_c, 0, 69, 0
1, 27600, Note_on_c, 0, 83, 73
1, 27600, Note_on_c, 0, 66, 73
1, 27612, Note_on_c, 0, 83, 0
1, 27612, Note_on_c, 0, 81, 73
1, 27624, Note_on_c, 0, 81, 0
1, 27624, Note_on_c, 0, 83, 73
1, 27636, Note_on_c, 0, 83, 0
1, 27636, Note_on_c, 0, 80, 74
1, 27642, Note_on_c, 0, 80, 0
1, 27642, Note_on_c, 0, 81, 74
1, 27645, Note_on_c, 0, 66, 0
1, 27648, Note_on_c, 0, 81, 0
1, 27648, Note_on_c, 0, 83, 74
1, 27648, Note_on_c, 0, 68, 74
1, 27671, Note_on_c, 0, 83, 0
1, 27672, Note_on_c, 0, 80, 74
1, 27682, Note_on_c, 0, 80, 0
1, 27693, Note_on_c, 0, 68, 0
1, 27696, Note_on_c, 0, 81, 74
1, 27696, Note_on_c, 0, 65, 75
1, 27708, Note_on_c, 0, 81, 0
1, 27708, Note_on_c, 0, 80, 75
1, 27720, Note_on_c, 0, 80, 0
1, 27720, Note_on_c, 0, 81, 75
1, 27732, Note_on_c, 0, 81, 0
1, 27732, Note_on_c, 0, 78, 75
1, 27738, Note_on_c, 0, 78, 0
1, 27738, Note_on_c, 0, 80, 75
1, 27741, Note_on_c, 0, 65, 0
1, 27744, Note_on_c, 0, 80, 0
1, 27744, Note_on_c, 0, 81, 75
1, 27744, Note_on_c, 0, 66, 75
1, 27767, Note_on_c, 0, 81, 0
1, 27768, Note_on_c, 0, 78, 75
1, 27778, Note_on_c, 0, 78, 0
1, 27789, Note_on_c, 0, 66, 0
1, 27792, Note_on_c, 0, 80, 76
1, 27792, Note_on_c, 0, 60, 76
1, 27804, Note_on_c, 0, 80, 0
1, 27804, Note_on_c, 0, 78, 76
1, 27816, Note_on_c, 0, 78, 0
1, 27816, Note_on_c, 0, 80, 76
1, 27828, Note_on_c, 0, 80, 0
1, 27828, Note_on_c, 0, 77, 76
1, 27834, Note_on_c, 0, 77, 0
1, 27834, Note_on_c, 0, 78, 76
1, 27837, Note_on_c, 0, 60, 0
1, 27840, Note_on_c, 0, 78, 0
1, 27840, Note_on_c, 0, 77, 76
1, 27840, Note_on_c, 0, 61, 76
1, 27855, Note_on_c, 0, 77, 0
1, 27856, Note_on_c, 0, 78, 76
1, 27871, Note_on_c, 0, 78, 0
1, 27872, Note_on_c, 0, 80, 77
1, 27887, Note_on_c, 0, 80, 0
1, 27888, Note_on_c, 0, 73, 77
1, 27929, Note_on_c, 0, 61, 0
1, 27933, Note_on_c, 0, 73, 0
1, 28032, Note_on_c, 0, 80, 85
1, 28032, Note_on_c, 0, 61, 85
1, 28032, Note_on_c, 0, 49, 85
1, 28047, Note_on_c, 0, 80, 0
1, 28048, Note_on_c, 0, 85, 85
1, 28063, Note_on_c, 0, 85, 0
1, 28064, Note_on_c, 0, 80, 85
1, 28079, Note_on_c, 0, 80, 0
1, 28080, Note_on_c, 0, 77, 85
1, 28095, Note_on_c, 0, 77, 0
1, 28096, Note_on_c, 0, 80, 85
1, 28111, Note_on_c, 0, 80, 0
1, 28112, Note_on_c, 0, 77, 85
1, 28121, Note_on_c, 0, 61, 0
1, 28121, Note_on_c, 0, 49, 0
1, 28127, Note_on_c, 0, 77, 0
1, 28128, Note_on_c, 0, 73, 85
1, 28143, Note_on_c, 0, 73, 0
1, 28144, Note_on_c, 0, 77, 85
1, 28159, Note_on_c, 0, 77, 0
1, 28160, Note_on_c, 0, 73, 85
1, 28175, Note_on_c, 0, 73, 0
1, 28176, Note_on_c, 0, 68, 85
1, 28191, Note_on_c, 0, 68, 0
1, 28192, Note_on_c, 0, 73, 85
1, 28207, Note_on_c, 0, 73, 0
1, 28208, Note_on_c, 0, 68, 85
1, 28223, Note_on_c, 0, 68, 0
1, 28224, Note_on_c, 0, 61, 85
1, 28248, Note_on_c, 0, 73, 85
1, 28271, Note_on_c, 0, 73, 0
1, 28272, Note_on_c, 0, 83, 85
1, 28272, Note_on_c, 0, 68, 78
1, 28295, Note_on_c, 0, 83, 0
1, 28296, Note_on_c, 0, 73, 85
1, 28317, Note_on_c, 0, 68, 0
1, 28319, Note_on_c, 0, 73, 0
1, 28320, Note_on_c, 0, 81, 85
1, 28320, Note_on_c, 0, 66, 78
1, 28343, Note_on_c, 0, 81, 0
1, 28344, Note_on_c, 0, 73, 85
1, 28365, Note_on_c, 0, 66, 0
1, 28367, Note_on_c, 0, 73, 0
1, 28368, Note_on_c, 0, 80, 85
1, 28368, Note_on_c, 0, 65, 78
1, 28391, Note_on_c, 0, 80, 0
1, 28392, Note_on_c, 0, 73, 85
1, 28401, Note_on_c, 0, 61, 0
1, 28413, Note_on_c, 0, 65, 0
1, 28415, Note_on_c, 0, 73, 0
1, 28416, Note_on_c, 0, 81, 85
1, 28416, Note_on_c, 0, 66, 78
1, 28416, Note_on_c, 0, 61, 85
1, 28431, Note_on_c, 0, 81, 0
1, 28432, Note_on_c, 0, 85, 85
1, 28447, Note_on_c, 0, 85, 0
1, 28448, Note_on_c, 0, 81, 85
1, 28463, Note_on_c, 0, 81, 0
1, 28464, Note_on_c, 0, 78, 85
1, 28479, Note_on_c, 0, 78, 0
1, 28480, Note_on_c, 0, 81, 85
1, 28495, Note_on_c, 0, 81, 0
1, 28496, Note_on_c, 0, 78, 85
1, 28505, Note_on_c, 0, 66, 0
1, 28505, Note_on_c, 0, 61, 0
1, 28511, Note_on_c, 0, 78, 0
1, 28512, Note_on_c, 0, 73, 85
1, 28527, Note_on_c, 0, 73, 0
1, 28528, Note_on_c, 0, 78, 85
1, 28543, Note_on_c, 0, 78, 0
1, 28544, Note_on_c, 0, 73, 85
1, 28559, Note_on_c, 0, 73, 0
1, 28560, Note_on_c, 0, 69, 85
1, 28575, Note_on_c, 0, 69, 0
1, 28576, Note_on_c, 0, 73, 85
1, 28591, Note_on_c, 0, 73, 0
1, 28592, Note_on_c, 0, 69, 85
1, 28607, Note_on_c, 0, 69, 0
1, 28608, Note_on_c, 0, 61, 85
1, 28632, Note_on_c, 0, 73, 85
1, 28655, Note_on_c, 0, 73, 0
1, 28656, Note_on_c, 0, 85, 85
1, 28656, Note_on_c, 0, 69, 78
1, 28679, Note_on_c, 0, 85, 0
1, 28680, Note_on_c, 0, 73, 85
1, 28701, Note_on_c, 0, 69, 0
1, 28703, Note_on_c, 0, 73, 0
1, 28704, Note_on_c, 0, 83, 85
1, 28704, Note_on_c, 0, 68, 78
1, 28727, Note_on_c, 0, 83, 0
1, 28728, Note_on_c, 0, 73, 85
1, 28749, Note_on_c, 0, 68, 0
1, 28751, Note_on_c, 0, 73, 0
1, 28752, Note_on_c, 0, 81, 85
1, 28752, Note_on_c, 0, 66, 78
1, 28775, Note_on_c, 0, 81, 0
1, 28776, Note_on_c, 0, 73, 85
1, 28785, Note_on_c, 0, 61, 0
1, 28797, Note_on_c, 0, 66, 0
1, 28799, Note_on_c, 0, 73, 0
1, 28800, Note_on_c, 0, 73, 85
1, 28800, Note_on_c, 0, 54, 85
1, 28800, Note_on_c, 0, 42, 85
1, 28815, Note_on_c, 0, 73, 0
1, 28816, Note_on_c, 0, 78, 85
1, 28831, Note_on_c, 0, 78, 0
1, 28832, Note_on_c, 0, 73, 85
1, 28847, Note_on_c, 0, 73, 0
1, 28848, Note_on_c, 0, 70, 85
1, 28863, Note_on_c, 0, 70, 0
1, 28864, Note_on_c, 0, 73, 85
1, 28879, Note_on_c, 0, 73, 0
1, 28880, Note_on_c, 0, 70, 85
1, 28889, Note_on_c, 0, 54, 0
1, 28889, Note_on_c, 0, 42, 0
1, 28895, Note_on_c, 0, 70, 0
1, 28896, Note_on_c, 0, 66, 85
1, 28911, Note_on_c, 0, 66, 0
1, 28912, Note_on_c, 0, 70, 85
1, 28927, Note_on_c, 0, 70, 0
1, 28928, Note_on_c, 0, 66, 85
1, 28943, Note_on_c, 0, 66, 0
1, 28944, Note_on_c, 0, 61, 85
1, 28959, Note_on_c, 0, 61, 0
1, 28960, Note_on_c, 0, 66, 85
1, 28975, Note_on_c, 0, 66, 0
1, 28976, Note_on_c, 0, 61, 85
1, 28991, Note_on_c, 0, 61, 0
1, 28992, Note_on_c, 0, 54, 85
1, 29016, Note_on_c, 0, 66, 85
1, 29039, Note_on_c, 0, 66, 0
1, 29040, Note_on_c, 0, 76, 85
1, 29040, Note_on_c, 0, 61, 78
1, 29063, Note_on_c, 0, 76, 0
1, 29064, Note_on_c, 0, 66, 85
1, 29085, Note_on_c, 0, 61, 0
1, 29087, Note_on_c, 0, 66, 0
1, 29088, Note_on_c, 0, 74, 85
1, 29088, Note_on_c, 0, 59, 78
1, 29111, Note_on_c, 0, 74, 0
1, 29112, Note_on_c, 0, 66, 85
1, 29133, Note_on_c, 0, 59, 0
1, 29135, Note_on_c, 0, 66, 0
1, 29136, Note_on_c, 0, 73, 85
1, 29136, Note_on_c, 0, 58, 78
1, 29159, Note_on_c, 0, 73, 0
1, 29160, Note_on_c, 0, 66, 85
1, 29169, Note_on_c, 0, 54, 0
1, 29181, Note_on_c, 0, 58, 0
1, 29183, Note_on_c, 0, 66, 0
1, 29184, Note_on_c, 0, 74, 85
1, 29184, Note_on_c, 0, 59, 78
1, 29184, Note_on_c, 0, 54, 85
1, 29199, Note_on_c, 0, 74, 0
1, 29200, Note_on_c, 0, 78, 85
1, 29215, Note_on_c, 0, 78, 0
1, 29216, Note_on_c, 0, 74, 85
1, 29231, Note_on_c, 0, 74, 0
1, 29232, Note_on_c, 0, 71, 85
1, 29247, Note_on_c, 0, 71, 0
1, 29248, Note_on_c, 0, 74, 85
1, 29263, Note_on_c, 0, 74, 0
1, 29264, Note_on_c, 0, 71, 85
1, 29273, Note_on_c, 0, 59, 0
1, 29273, Note_on_c, 0, 54, 0
1, 29279, Note_on_c, 0, 71, 0
1, 29280, Note_on_c, 0, 66, 85
1, 29295, Note_on_c, 0, 66, 0
1, 29296, Note_on_c, 0, 71, 85
1, 29311, Note_on_c, 0, 71, 0
1, 29312, Note_on_c, 0, 66, 85
1, 29327, Note_on_c, 0, 66, 0
1, 29328, Note_on_c, 0, 62, 85
1, 29343, Note_on_c, 0, 62, 0
1, 29344, Note_on_c, 0, 66, 85
1, 29359, Note_on_c, 0, 66, 0
1, 29360, Note_on_c, 0, 62, 85
1, 29375, Note_on_c, 0, 62, 0
1, 29376, Note_on_c, 0, 54, 85
1, 29400, Note_on_c, 0, 66, 85
1, 29423, Note_on_c, 0, 66, 0
1, 29424, Note_on_c, 0, 78, 85
1, 29424, Note_on_c, 0, 62, 78
1, 29447, Note_on_c, 0, 78, 0
1, 29448, Note_on_c, 0, 66, 85
1, 29469, Note_on_c, 0, 62, 0
1, 29471, Note_on_c, 0, 66, 0
1, 29472, Note_on_c, 0, 76, 85
1, 29472, Note_on_c, 0, 61, 78
1, 29495, Note_on_c, 0, 76, 0
1, 29496, Note_on_c, 0, 66, 85
1, 29517, Note_on_c, 0, 61, 0
1, 29519, Note_on_c, 0, 66, 0
1, 29520, Note_on_c, 0, 74, 85
1, 29520, Note_on_c, 0, 59, 78
1, 29543, Note_on_c, 0, 74, 0
1, 29544, Note_on_c, 0, 66, 85
1, 29553, Note_on_c, 0, 54, 0
1, 29565, Note_on_c, 0, 59, 0
1, 29567, Note_on_c, 0, 66, 0
1, 29568, Note_on_c, 0, 78, 85
1, 29568, Note_on_c, 0, 47, 85
1, 29568, Note_on_c, 0, 35, 85
1, 29583, Note_on_c, 0, 78, 0
1, 29584, Note_on_c, 0, 83, 85
1, 29599, Note_on_c, 0, 83, 0
1, 29600, Note_on_c, 0, 78, 85
1, 29615, Note_on_c, 0, 78, 0
1, 29616, Note_on_c, 0, 75, 85
1, 29631, Note_on_c, 0, 75, 0
1, 29632, Note_on_c, 0, 78, 85
1, 29647, Note_on_c, 0, 78, 0
1, 29648, Note_on_c, 0, 75, 85
1, 29657, Note_on_c, 0, 47, 0
1, 29657, Note_on_c, 0, 35, 0
1, 29663, Note_on_c, 0, 75, 0
1, 29664, Note_on_c, 0, 71, 85
1, 29679, Note_on_c, 0, 71, 0
1, 29680, Note_on_c, 0, 75, 85
1, 29695, Note_on_c, 0, 75, 0
1, 29696, Note_on_c, 0, 71, 85
1, 29711, Note_on_c, 0, 71, 0
1, 29712, Note_on_c, 0, 66, 85
1, 29727, Note_on_c, 0, 66, 0
1, 29728, Note_on_c, 0, 71, 85
1, 29743, Note_on_c, 0, 71, 0
1, 29744, Note_on_c, 0, 66, 85
1, 29759, Note_on_c, 0, 66, 0
1, 29760, Note_on_c, 0, 59, 85
1, 29784, Note_on_c, 0, 71, 85
1, 29807, Note_on_c, 0, 71, 0
1, 29808, Note_on_c, 0, 81, 85
1, 29808, Note_on_c, 0, 66, 78
1, 29831, Note_on_c, 0, 81, 0
1, 29832, Note_on_c, 0, 71, 85
1, 29853, Note_on_c, 0, 66, 0
1, 29855, Note_on_c, 0, 71, 0
1, 29856, Note_on_c, 0, 80, 85
1, 29856, Note_on_c, 0, 64, 78
1, 29879, Note_on_c, 0, 80, 0
1, 29880, Note_on_c, 0, 71, 85
1, 29901, Note_on_c, 0, 64, 0
1, 29903, Note_on_c, 0, 71, 0
1, 29904, Note_on_c, 0, 78, 85
1, 29904, Note_on_c, 0, 63, 78
1, 29927, Note_on_c, 0, 78, 0
1, 29928, Note_on_c, 0, 71, 85
1, 29937, Note_on_c, 0, 59, 0
1, 29949, Note_on_c, 0, 63, 0
1, 29951, Note_on_c, 0, 71, 0
1, 29952, Note_on_c, 0, 80, 85
1, 29952, Note_on_c, 0, 64, 78
1, 29952, Note_on_c, 0, 59, 85
1, 29967, Note_on_c, 0, 80, 0
1, 29968, Note_on_c, 0, 83, 85
1, 29983, Note_on_c, 0, 83, 0
1, 29984, Note_on_c, 0, 80, 85
1, 29999, Note_on_c, 0, 80, 0
1, 30000, Note_on_c, 0, 76, 85
1, 30015, Note_on_c, 0, 76, 0
1, 30016, Note_on_c, 0, 80, 85
1, 30031, Note_on_c, 0, 80, 0
1, 30032, Note_on_c, 0, 76, 85
1, 30041, Note_on_c, 0, 64, 0
1, 30041, Note_on_c, 0, 59, 0
1, 30047, Note_on_c, 0, 76, 0
1, 30048, Note_on_c, 0, 71, 85
1, 30063, Note_on_c, 0, 71, 0
1, 30064, Note_on_c, 0, 76, 85
1, 30079, Note_on_c, 0, 76, 0
1, 30080, Note_on_c, 0, 71, 85
1, 30095, Note_on_c, 0, 71, 0
1, 30096, Note_on_c, 0, 68, 85
1, 30111, Note_on_c, 0, 68, 0
1, 30112, Note_on_c, 0, 71, 85
1, 30127, Note_on_c, 0, 71, 0
1, 30128, Note_on_c, 0, 68, 85
1, 30143, Note_on_c, 0, 68, 0
1, 30144, Note_on_c, 0, 59, 85
1, 30168, Note_on_c, 0, 71, 85
1, 30191, Note_on_c, 0, 71, 0
1, 30192, Note_on_c, 0, 83, 85
1, 30192, Note_on_c, 0, 68, 78
1, 30215, Note_on_c, 0, 83, 0
1, 30216, Note_on_c, 0, 71, 85
1, 30237, Note_on_c, 0, 68, 0
1, 30239, Note_on_c, 0, 71, 0
1, 30240, Note_on_c, 0, 81, 85
1, 30240, Note_on_c, 0, 66, 78
1, 30263, Note_on_c, 0, 81, 0
1, 30264, Note_on_c, 0, 71, 85
1, 30285, Note_on_c, 0, 66, 0
1, 30287, Note_on_c, 0, 71, 0
1, 30288, Note_on_c, 0, 80, 85
1, 30288, Note_on_c, 0, 64, 78
1, 30311, Note_on_c, 0, 80, 0
1, 30312, Note_on_c, 0, 71, 85
1, 30321, Note_on_c, 0, 59, 0
1, 30333, Note_on_c, 0, 64, 0
1, 30335, Note_on_c, 0, 71, 0
1, 30336, Note_on_c, 0, 71, 85
1, 30336, Note_on_c, 0, 52, 85
1, 30336, Note_on_c, 0, 40, 85
1, 30351, Note_on_c, 0, 71, 0
1, 30352, Note_on_c, 0, 76, 85
1, 30367, Note_on_c, 0, 76, 0
1, 30368, Note_on_c, 0, 71, 85
1, 30383, Note_on_c, 0, 71, 0
1, 30384, Note_on_c, 0, 68, 85
1, 30399, Note_on_c, 0, 68, 0
1, 30400, Note_on_c, 0, 71, 85
1, 30415, Note_on_c, 0, 71, 0
1, 30416, Note_on_c, 0, 68, 85
1, 30425, Note_on_c, 0, 52, 0
1, 30425, Note_on_c, 0, 40, 0
1, 30431, Note_on_c, 0, 68, 0
1, 30432, Note_on_c, 0, 64, 85
1, 30447, Note_on_c, 0, 64, 0
1, 30448, Note_on_c, 0, 68, 85
1, 30463, Note_on_c, 0, 68, 0
1, 30464, Note_on_c, 0, 64, 85
1, 30479, Note_on_c, 0, 64, 0
1, 30480, Note_on_c, 0, 59, 85
1, 30495, Note_on_c, 0, 59, 0
1, 30496, Note_on_c, 0, 64, 85
1, 30511, Note_on_c, 0, 64, 0
1, 30512, Note_on_c, 0, 59, 85
1, 30527, Note_on_c, 0, 59, 0
1, 30528, Note_on_c, 0, 52, 85
1, 30552, Note_on_c, 0, 64, 85
1, 30575, Note_on_c, 0, 64, 0
1, 30576, Note_on_c, 0, 74, 85
1, 30576, Note_on_c, 0, 59, 78
1, 30599, Note_on_c, 0, 74, 0
1, 30600, Note_on_c, 0, 64, 85
1, 30621, Note_on_c, 0, 59, 0
1, 30623, Note_on_c, 0, 64, 0
1, 30624, Note_on_c, 0, 73, 85
1, 30624, Note_on_c, 0, 57, 78
1, 30647, Note_on_c, 0, 73, 0
1, 30648, Note_on_c, 0, 64, 85
1, 30669, Note_on_c, 0, 57, 0
1, 30671, Note_on_c, 0, 64, 0
1, 30672, Note_on_c, 0, 71, 85
1, 30672, Note_on_c, 0, 56, 78
1, 30695, Note_on_c, 0, 71, 0
1, 30696, Note_on_c, 0, 64, 85
1, 30705, Note_on_c, 0, 52, 0
1, 30717, Note_on_c, 0, 56, 0
1, 30719, Note_on_c, 0, 64, 0
1, 30720, Note_on_c, 0, 73, 85
1, 30720, Note_on_c, 0, 57, 78
1, 30720, Note_on_c, 0, 52, 85
1, 30735, Note_on_c, 0, 73, 0
1, 30736, Note_on_c, 0, 76, 85
1, 30751, Note_on_c, 0, 76, 0
1, 30752, Note_on_c, 0, 73, 85
1, 30767, Note_on_c, 0, 73, 0
1, 30768, Note_on_c, 0, 69, 85
1, 30783, Note_on_c, 0, 69, 0
1, 30784, Note_on_c, 0, 73, 85
1, 30799, Note_on_c, 0, 73, 0
1, 30800, Note_on_c, 0, 69, 85
1, 30809, Note_on_c, 0, 57, 0
1, 30809, Note_on_c, 0, 52, 0
1, 30815, Note_on_c, 0, 69, 0
1, 30816, Note_on_c, 0, 64, 85
1, 30831, Note_on_c, 0, 64, 0
1, 30832, Note_on_c, 0, 69, 85
1, 30847, Note_on_c, 0, 69, 0
1, 30848, Note_on_c, 0, 64, 85
1, 30863, Note_on_c, 0, 64, 0
1, 30864, Note_on_c, 0, 61, 85
1, 30879, Note_on_c, 0, 61, 0
1, 30880, Note_on_c, 0, 64, 85
1, 30895, Note_on_c, 0, 64, 0
1, 30896, Note_on_c, 0, 61, 85
1, 30911, Note_on_c, 0, 61, 0
1, 30912, Note_on_c, 0, 52, 85
1, 30936, Note_on_c, 0, 64, 85
1, 30959, Note_on_c, 0, 64, 0
1, 30960, Note_on_c, 0, 76, 85
1, 30960, Note_on_c, 0, 61, 78
1, 30983, Note_on_c, 0, 76, 0
1, 30984, Note_on_c, 0, 64, 85
1, 31005, Note_on_c, 0, 61, 0
1, 31007, Note_on_c, 0, 64, 0
1, 31008, Note_on_c, 0, 74, 85
1, 31008, Note_on_c, 0, 59, 78
1, 31031, Note_on_c, 0, 74, 0
1, 31032, Note_on_c, 0, 64, 85
1, 31053, Note_on_c, 0, 59, 0
1, 31055, Note_on_c, 0, 64, 0
1, 31056, Note_on_c, 0, 73, 85
1, 31056, Note_on_c, 0, 57, 78
1, 31079, Note_on_c, 0, 73, 0
1, 31080, Note_on_c, 0, 64, 85
1, 31089, Note_on_c, 0, 52, 0
1, 31101, Note_on_c, 0, 57, 0
1, 31103, Note_on_c, 0, 64, 0
1, 31104, Note_on_c, 0, 62, 72
1, 31127, Note_on_c, 0, 62, 0
1, 31128, Note_on_c, 0, 69, 72
1, 31151, Note_on_c, 0, 69, 0
1, 31152, Note_on_c, 0, 78, 78
1, 31152, Note_on_c, 0, 66, 72
1, 31162, Note_on_c, 0, 78, 0
1, 31162, Note_on_c, 0, 80, 78
1, 31172, Note_on_c, 0, 80, 0
1, 31172, Note_on_c, 0, 78, 78
1, 31175, Note_on_c, 0, 66, 0
1, 31176, Note_on_c, 0, 69, 72
1, 31182, Note_on_c, 0, 78, 0
1, 31182, Note_on_c, 0, 76, 78
1, 31191, Note_on_c, 0, 76, 0
1, 31191, Note_on_c, 0, 78, 78
1, 31199, Note_on_c, 0, 69, 0
1, 31200, Note_on_c, 0, 78, 0
1, 31200, Note_on_c, 0, 76, 78
1, 31200, Note_on_c, 0, 61, 72
1, 31223, Note_on_c, 0, 61, 0
1, 31224, Note_on_c, 0, 69, 72
1, 31245, Note_on_c, 0, 76, 0
1, 31247, Note_on_c, 0, 69, 0
1, 31248, Note_on_c, 0, 81, 78
1, 31248, Note_on_c, 0, 64, 72
1, 31271, Note_on_c, 0, 64, 0
1, 31272, Note_on_c, 0, 69, 72
1, 31293, Note_on_c, 0, 81, 0
1, 31295, Note_on_c, 0, 69, 0
1, 31296, Note_on_c, 0, 59, 72
1, 31319, Note_on_c, 0, 59, 0
1, 31320, Note_on_c, 0, 68, 72
1, 31343, Note_on_c, 0, 68, 0
1, 31344, Note_on_c, 0, 86, 78
1, 31344, Note_on_c, 0, 62, 72
1, 31354, Note_on_c, 0, 86, 0
1, 31354, Note_on_c, 0, 88, 78
1, 31364, Note_on_c, 0, 88, 0
1, 31364, Note_on_c, 0, 86, 78
1, 31367, Note_on_c, 0, 62, 0
1, 31368, Note_on_c, 0, 68, 72
1, 31374, Note_on_c, 0, 86, 0
1, 31374, Note_on_c, 0, 85, 78
1, 31383, Note_on_c, 0, 85, 0
1, 31383, Note_on_c, 0, 86, 78
1, 31391, Note_on_c, 0, 68, 0
1, 31392, Note_on_c, 0, 86, 0
1, 31392, Note_on_c, 0, 85, 78
1, 31392, Note_on_c, 0, 57, 72
1, 31415, Note_on_c, 0, 57, 0
1, 31416, Note_on_c, 0, 64, 72
1, 31437, Note_on_c, 0, 85, 0
1, 31439, Note_on_c, 0, 64, 0
1, 31440, Note_on_c, 0, 81, 78
1, 31440, Note_on_c, 0, 61, 72
1, 31463, Note_on_c, 0, 61, 0
1, 31464, Note_on_c, 0, 64, 72
1, 31485, Note_on_c, 0, 81, 0
1, 31487, Note_on_c, 0, 64, 0
1, 31488, Note_on_c, 0, 62, 72
1, 31511, Note_on_c, 0, 62, 0
1, 31512, Note_on_c, 0, 69, 72
1, 31535, Note_on_c, 0, 69, 0
1, 31536, Note_on_c, 0, 78, 78
1, 31536, Note_on_c, 0, 66, 72
1, 31546, Note_on_c, 0, 78, 0
1, 31546, Note_on_c, 0, 80, 78
1, 31556, Note_on_c, 0, 80, 0
1, 31556, Note_on_c, 0, 78, 78
1, 31559, Note_on_c, 0, 66, 0
1, 31560, Note_on_c, 0, 69, 72
1, 31566, Note_on_c, 0, 78, 0
1, 31566, Note_on_c, 0, 76, 78
1, 31575, Note_on_c, 0, 76, 0
1, 31575, Note_on_c, 0, 78, 78
1, 31583, Note_on_c, 0, 69, 0
1, 31584, Note_on_c, 0, 78, 0
1, 31584, Note_on_c, 0, 76, 78
1, 31584, Note_on_c, 0, 61, 72
1, 31607, Note_on_c, 0, 61, 0
1, 31608, Note_on_c, 0, 69, 72
1, 31629, Note_on_c, 0, 76, 0
1, 31631, Note_on_c, 0, 69, 0
1, 31632, Note_on_c, 0, 81, 78
1, 31632, Note_on_c, 0, 64, 72
1, 31655, Note_on_c, 0, 64, 0
1, 31656, Note_on_c, 0, 69, 72
1, 31677, Note_on_c, 0, 81, 0
1, 31679, Note_on_c, 0, 69, 0
1, 31680, Note_on_c, 0, 59, 72
1, 31703, Note_on_c, 0, 59, 0
1, 31704, Note_on_c, 0, 68, 72
1, 31727, Note_on_c, 0, 68, 0
1, 31728, Note_on_c, 0, 86, 78
1, 31728, Note_on_c, 0, 62, 72
1, 31738, Note_on_c, 0, 86, 0
1, 31738, Note_on_c, 0, 88, 78
1, 31748, Note_on_c, 0, 88, 0
1, 31748, Note_on_c, 0, 86, 78
1, 31751, Note_on_c, 0, 62, 0
1, 31752, Note_on_c, 0, 68, 72
1, 31758, Note_on_c, 0, 86, 0
1, 31758, Note_on_c, 0, 85, 78
1, 31767, Note_on_c, 0, 85, 0
1, 31767, Note_on_c, 0, 86, 78
1, 31775, Note_on_c, 0, 68, 0
1, 31776, Note_on_c, 0, 86, 0
1, 31776, Note_on_c, 0, 85, 78
1, 31776, Note_on_c, 0, 57, 72
1, 31799, Note_on_c, 0, 57, 0
1, 31800, Note_on_c, 0, 64, 72
1, 31821, Note_on_c, 0, 85, 0
1, 31823, Note_on_c, 0, 64, 0
1, 31824, Note_on_c, 0, 81, 78
1, 31824, Note_on_c, 0, 61, 72
1, 31847, Note_on_c, 0, 61, 0
1, 31848, Note_on_c, 0, 64, 72
1, 31869, Note_on_c, 0, 81, 0
1, 31871, Note_on_c, 0, 64, 0
1, 31872, Note_on_c, 0, 52, 60
1, 31895, Note_on_c, 0, 52, 0
1, 31896, Note_on_c, 0, 64, 60
1, 31919, Note_on_c, 0, 64, 0
1, 31920, Note_on_c, 0, 76, 66
1, 31920, Note_on_c, 0, 56, 61
1, 31943, Note_on_c, 0, 56, 0
1, 31944, Note_on_c, 0, 64, 61
1, 31965, Note_on_c, 0, 76, 0
1, 31967, Note_on_c, 0, 64, 0
1, 31968, Note_on_c, 0, 76, 67
1, 31968, Note_on_c, 0, 52, 62
1, 31991, Note_on_c, 0, 52, 0
1, 31992, Note_on_c, 0, 64, 62
1, 32013, Note_on_c, 0, 76, 0
1, 32015, Note_on_c, 0, 64, 0
1, 32016, Note_on_c, 0, 76, 68
1, 32016, Note_on_c, 0, 56, 63
1, 32039, Note_on_c, 0, 56, 0
1, 32040, Note_on_c, 0, 64, 63
1, 32061, Note_on_c, 0, 76, 0
1, 32063, Note_on_c, 0, 64, 0
1, 32064, Note_on_c, 0, 52, 64
1, 32087, Note_on_c, 0, 52, 0
1, 32088, Note_on_c, 0, 64, 65
1, 32111, Note_on_c, 0, 64, 0
1, 32112, Note_on_c, 0, 78, 71
1, 32112, Note_on_c, 0, 76, 71
1, 32112, Note_on_c, 0, 57, 65
1, 32135, Note_on_c, 0, 57, 0
1, 32136, Note_on_c, 0, 64, 66
1, 32157, Note_on_c, 0, 78, 0
1, 32157, Note_on_c, 0, 76, 0
1, 32159, Note_on_c, 0, 64, 0
1, 32160, Note_on_c, 0, 78, 72
1, 32160, Note_on_c, 0, 76, 72
1, 32160, Note_on_c, 0, 52, 66
1, 32183, Note_on_c, 0, 52, 0
1, 32184, Note_on_c, 0, 64, 67
1, 32205, Note_on_c, 0, 78, 0
1, 32205, Note_on_c, 0, 76, 0
1, 32207, Note_on_c, 0, 64, 0
1, 32208, Note_on_c, 0, 78, 73
1, 32208, Note_on_c, 0, 76, 73
1, 32208, Note_on_c, 0, 57, 67
1, 32231, Note_on_c, 0, 57, 0
1, 32232, Note_on_c, 0, 64, 68
1, 32253, Note_on_c, 0, 78, 0
1, 32253, Note_on_c, 0, 76, 0
1, 32255, Note_on_c, 0, 64, 0
1, 32256, Note_on_c, 0, 52, 69
1, 32279, Note_on_c, 0, 52, 0
1, 32280, Note_on_c, 0, 64, 69
1, 32303, Note_on_c, 0, 64, 0
1, 32304, Note_on_c, 0, 78, 76
1, 32304, Note_on_c, 0, 74, 76
1, 32304, Note_on_c, 0, 59, 70
1, 32327, Note_on_c, 0, 59, 0
1, 32328, Note_on_c, 0, 64, 70
1, 32349, Note_on_c, 0, 78, 0
1, 32349, Note_on_c, 0, 74, 0
1, 32351, Note_on_c, 0, 64, 0
1, 32352, Note_on_c, 0, 78, 77
1, 32352, Note_on_c, 0, 74, 77
1, 32352, Note_on_c, 0, 52, 71
1, 32375, Note_on_c, 0, 52, 0
1, 32376, Note_on_c, 0, 64, 71
1, 32397, Note_on_c, 0, 78, 0
1, 32397, Note_on_c, 0, 74, 0
1, 32399, Note_on_c, 0, 64, 0
1, 32400, Note_on_c, 0, 78, 78
1, 32400, Note_on_c, 0, 74, 78
1, 32400, Note_on_c, 0, 59, 72
1, 32423, Note_on_c, 0, 59, 0
1, 32424, Note_on_c, 0, 64, 72
1, 32445, Note_on_c, 0, 78, 0
1, 32445, Note_on_c, 0, 74, 0
1, 32447, Note_on_c, 0, 64, 0
1, 32448, Note_on_c, 0, 52, 73
1, 32471, Note_on_c, 0, 52, 0
1, 32472, Note_on_c, 0, 64, 74
1, 32495, Note_on_c, 0, 64, 0
1, 32496, Note_on_c, 0, 80, 81
1, 32496, Note_on_c, 0, 74, 81
1, 32496, Note_on_c, 0, 59, 74
1, 32519, Note_on_c, 0, 59, 0
1, 32520, Note_on_c, 0, 64, 75
1, 32541, Note_on_c, 0, 80, 0
1, 32541, Note_on_c, 0, 74, 0
1, 32543, Note_on_c, 0, 64, 0
1, 32544, Note_on_c, 0, 80, 82
1, 32544, Note_on_c, 0, 74, 82
1, 32544, Note_on_c, 0, 52, 75
1, 32567, Note_on_c, 0, 52, 0
1, 32568, Note_on_c, 0, 64, 76
1, 32589, Note_on_c, 0, 80, 0
1, 32589, Note_on_c, 0, 74, 0
1, 32591, Note_on_c, 0, 64, 0
1, 32592, Note_on_c, 0, 80, 83
1, 32592, Note_on_c, 0, 74, 83
1, 32592, Note_on_c, 0, 59, 76
1, 32615, Note_on_c, 0, 59, 0
1, 32616, Note_on_c, 0, 64, 77
1, 32637, Note_on_c, 0, 80, 0
1, 32637, Note_on_c, 0, 74, 0
1, 32639, Note_on_c, 0, 64, 0
1, 32640, Note_on_c, 0, 73, 85
1, 32640, Note_on_c, 0, 57, 78
1, 32648, Note_on_c, 0, 76, 85
1, 32656, Note_on_c, 0, 81, 85
1, 32663, Note_on_c, 0, 57, 0
1, 32664, Note_on_c, 0, 64, 78
1, 32687, Note_on_c, 0, 64, 0
1, 32688, Note_on_c, 0, 61, 78
1, 32711, Note_on_c, 0, 61, 0
1, 32712, Note_on_c, 0, 64, 78
1, 32733, Note_on_c, 0, 81, 0
1, 32733, Note_on_c, 0, 76, 0
1, 32733, Note_on_c, 0, 73, 0
1, 32735, Note_on_c, 0, 64, 0
1, 32736, Note_on_c, 0, 76, 85
1, 32736, Note_on_c, 0, 56, 78
1, 32742, Note_on_c, 0, 80, 85
1, 32748, Note_on_c, 0, 83, 85
1, 32754, Note_on_c, 0, 86, 85
1, 32759, Note_on_c, 0, 56, 0
1, 32760, Note_on_c, 0, 64, 78
1, 32783, Note_on_c, 0, 64, 0
1, 32784, Note_on_c, 0, 59, 78
1, 32807, Note_on_c, 0, 59, 0
1, 32808, Note_on_c, 0, 64, 78
1, 32829, Note_on_c, 0, 86, 0
1, 32829, Note_on_c, 0, 83, 0
1, 32829, Note_on_c, 0, 80, 0
1, 32829, Note_on_c, 0, 76, 0
1, 32831, Note_on_c, 0, 64, 0
1, 32832, Note_on_c, 0, 76, 85
1, 32832, Note_on_c, 0, 57, 78
1, 32840, Note_on_c, 0, 81, 85
1, 32848, Note_on_c, 0, 85, 85
1, 32855, Note_on_c, 0, 57, 0
1, 32856, Note_on_c, 0, 64, 78
1, 32879, Note_on_c, 0, 64, 0
1, 32880, Note_on_c, 0, 61, 78
1, 32903, Note_on_c, 0, 61, 0
1, 32904, Note_on_c, 0, 64, 78
1, 32925, Note_on_c, 0, 85, 0
1, 32925, Note_on_c, 0, 81, 0
1, 32925, Note_on_c, 0, 76, 0
1, 32927, Note_on_c, 0, 64, 0
1, 32928, Note_on_c, 0, 74, 85
1, 32928, Note_on_c, 0, 59, 78
1, 32936, Note_on_c, 0, 80, 85
1, 32944, Note_on_c, 0, 83, 85
1, 32951, Note_on_c, 0, 59, 0
1, 32952, Note_on_c, 0, 64, 78
1, 32975, Note_on_c, 0, 64, 0
1, 32976, Note_on_c, 0, 62, 78
1, 32999, Note_on_c, 0, 62, 0
1, 33000, Note_on_c, 0, 64, 78
1, 33021, Note_on_c, 0, 83, 0
1, 33021, Note_on_c, 0, 80, 0
1, 33021, Note_on_c, 0, 74, 0
1, 33023, Note_on_c, 0, 64, 0
1, 33024, Note_on_c, 0, 73, 85
1, 33024, Note_on_c, 0, 57, 78
1, 33032, Note_on_c, 0, 76, 85
1, 33040, Note_on_c, 0, 81, 85
1, 33047, Note_on_c, 0, 57, 0
1, 33048, Note_on_c, 0, 64, 78
1, 33071, Note_on_c, 0, 64, 0
1, 33072, Note_on_c, 0, 61, 78
1, 33095, Note_on_c, 0, 61, 0
1, 33096, Note_on_c, 0, 64, 78
1, 33117, Note_on_c, 0, 81, 0
1, 33117, Note_on_c, 0, 76, 0
1, 33117, Note_on_c, 0, 73, 0
1, 33119, Note_on_c, 0, 64, 0
1, 33120, Note_on_c, 0, 76, 85
1, 33120, Note_on_c, 0, 56, 78
1, 33126, Note_on_c, 0, 80, 85
1, 33132, Note_on_c, 0, 83, 85
1, 33138, Note_on_c, 0, 86, 85
1, 33143, Note_on_c, 0, 56, 0
1, 33144, Note_on_c, 0, 64, 78
1, 33167, Note_on_c, 0, 64, 0
1, 33168, Note_on_c, 0, 59, 78
1, 33191, Note_on_c, 0, 59, 0
1, 33192, Note_on_c, 0, 64, 78
1, 33213, Note_on_c, 0, 86, 0
1, 33213, Note_on_c, 0, 83, 0
1, 33213, Note_on_c, 0, 80, 0
1, 33213, Note_on_c, 0, 76, 0
1, 33215, Note_on_c, 0, 64, 0
1, 33216, Note_on_c, 0, 76, 85
1, 33216, Note_on_c, 0, 57, 78
1, 33224, Note_on_c, 0, 81, 85
1, 33232, Note_on_c, 0, 85, 85
1, 33239, Note_on_c, 0, 57, 0
1, 33240, Note_on_c, 0, 64, 78
1, 33263, Note_on_c, 0, 64, 0
1, 33264, Note_on_c, 0, 61, 78
1, 33287, Note_on_c, 0, 61, 0
1, 33288, Note_on_c, 0, 64, 78
1, 33309, Note_on_c, 0, 85, 0
1, 33309, Note_on_c, 0, 81, 0
1, 33309, Note_on_c, 0, 76, 0
1, 33311, Note_on_c, 0, 64, 0
1, 33312, Note_on_c, 0, 74, 85
1, 33312, Note_on_c, 0, 59, 78
1, 33320, Note_on_c, 0, 80, 85
1, 33328, Note_on_c, 0, 83, 85
1, 33335, Note_on_c, 0, 59, 0
1, 33336, Note_on_c, 0, 64, 78
1, 33359, Note_on_c, 0, 64, 0
1, 33360, Note_on_c, 0, 62, 78
1, 33383, Note_on_c, 0, 62, 0
1, 33384, Note_on_c, 0, 64, 78
1, 33405, Note_on_c, 0, 83, 0
1, 33405, Note_on_c, 0, 80, 0
1, 33405, Note_on_c, 0, 74, 0
1, 33407, Note_on_c, 0, 64, 0
1, 33408, Note_on_c, 0, 81, 85
1, 33408, Note_on_c, 0, 61, 78
1, 33431, Note_on_c, 0, 81, 0
1, 33432, Note_on_c, 0, 85, 85
1, 33455, Note_on_c, 0, 85, 0
1, 33456, Note_on_c, 0, 76, 85
1, 33479, Note_on_c, 0, 76, 0
1, 33480, Note_on_c, 0, 81, 85
1, 33497, Note_on_c, 0, 61, 0
1, 33503, Note_on_c, 0, 81, 0
1, 33504, Note_on_c, 0, 73, 85
1, 33527, Note_on_c, 0, 73, 0
1, 33528, Note_on_c, 0, 76, 85
1, 33551, Note_on_c, 0, 76, 0
1, 33552, Note_on_c, 0, 69, 85
1, 33575, Note_on_c, 0, 69, 0
1, 33576, Note_on_c, 0, 73, 85
1, 33599, Note_on_c, 0, 73, 0
1, 33600, Note_on_c, 0, 78, 85
1, 33600, Note_on_c, 0, 62, 78
1, 33623, Note_on_c, 0, 78, 0
1, 33624, Note_on_c, 0, 81, 85
1, 33647, Note_on_c, 0, 81, 0
1, 33648, Note_on_c, 0, 74, 85
1, 33671, Note_on_c, 0, 74, 0
1, 33672, Note_on_c, 0, 78, 85
1, 33689, Note_on_c, 0, 62, 0
1, 33695, Note_on_c, 0, 78, 0
1, 33696, Note_on_c, 0, 71, 85
1, 33719, Note_on_c, 0, 71, 0
1, 33720, Note_on_c, 0, 74, 85
1, 33743, Note_on_c, 0, 74, 0
1, 33744, Note_on_c, 0, 66, 85
1, 33767, Note_on_c, 0, 66, 0
1, 33768, Note_on_c, 0, 71, 85
1, 33791, Note_on_c, 0, 71, 0
1, 33792, Note_on_c, 0, 69, 85
1, 33792, Note_on_c, 0, 61, 78
1, 33792, Note_on_c, 0, 52, 78
1, 33837, Note_on_c, 0, 61, 0
1, 33837, Note_on_c, 0, 52, 0
1, 33840, Note_on_c, 0, 61, 78
1, 33840, Note_on_c, 0, 52, 78
1, 33881, Note_on_c, 0, 69, 0
1, 33885, Note_on_c, 0, 61, 0
1, 33885, Note_on_c, 0, 52, 0
1, 33888, Note_on_c, 0, 68, 85
1, 33888, Note_on_c, 0, 59, 78
1, 33888, Note_on_c, 0, 52, 78
1, 33899, Note_on_c, 0, 68, 0
1, 33899, Note_on_c, 0, 69, 85
1, 33910, Note_on_c, 0, 69, 0
1, 33910, Note_on_c, 0, 68, 85
1, 33921, Note_on_c, 0, 68, 0
1, 33921, Note_on_c, 0, 69, 85
1, 33932, Note_on_c, 0, 69, 0
1, 33932, Note_on_c, 0, 68, 85
1, 33933, Note_on_c, 0, 59, 0
1, 33933, Note_on_c, 0, 52, 0
1, 33936, Note_on_c, 0, 59, 78
1, 33936, Note_on_c, 0, 52, 78
1, 33943, Note_on_c, 0, 68, 0
1, 33943, Note_on_c, 0, 69, 85
1, 33954, Note_on_c, 0, 69, 0
1, 33954, Note_on_c, 0, 68, 85
1, 33964, Note_on_c, 0, 68, 0
1, 33964, Note_on_c, 0, 66, 85
1, 33974, Note_on_c, 0, 66, 0
1, 33974, Note_on_c, 0, 68, 85
1, 33981, Note_on_c, 0, 59, 0
1, 33981, Note_on_c, 0, 52, 0
1, 33984, Note_on_c, 0, 68, 0
1, 33984, Note_on_c, 0, 69, 85
1, 33984, Note_on_c, 0, 57, 78
1, 33984, Note_on_c, 0, 45, 78
1, 34073, Note_on_c, 0, 69, 0
1, 34073, Note_on_c, 0, 57, 0
1, 34073, Note_on_c, 0, 45, 0
1, 34176, Note_on_c, 0, 72, 66
1, 34184, Note_on_c, 0, 76, 66
1, 34192, Note_on_c, 0, 81, 66
1, 34224, Note_on_c, 0, 57, 66
1, 34224, Note_on_c, 0, 45, 66
1, 34269, Note_on_c, 0, 81, 0
1, 34269, Note_on_c, 0, 76, 0
1, 34269, Note_on_c, 0, 72, 0
1, 34269, Note_on_c, 0, 57, 0
1, 34269, Note_on_c, 0, 45, 0
1, 34272, Note_on_c, 0, 60, 66
1, 34272, Note_on_c, 0, 48, 66
1, 34317, Note_on_c, 0, 60, 0
1, 34317, Note_on_c, 0, 48, 0
1, 34320, Note_on_c, 0, 81, 66
1, 34320, Note_on_c, 0, 72, 66
1, 34320, Note_on_c, 0, 57, 66
1, 34320, Note_on_c, 0, 45, 66
1, 34365, Note_on_c, 0, 81, 0
1, 34365, Note_on_c, 0, 72, 0
1, 34365, Note_on_c, 0, 57, 0
1, 34365, Note_on_c, 0, 45, 0
1, 34368, Note_on_c, 0, 81, 66
1, 34368, Note_on_c, 0, 72, 66
1, 34392, Note_on_c, 0, 81, 0
1, 34392, Note_on_c, 0, 72, 0
1, 34392, Note_on_c, 0, 80, 66
1, 34392, Note_on_c, 0, 71, 66
1, 34415, Note_on_c, 0, 80, 0
1, 34415, Note_on_c, 0, 71, 0
1, 34416, Note_on_c, 0, 80, 66
1, 34416, Note_on_c, 0, 71, 66
1, 34416, Note_on_c, 0, 52, 66
1, 34416, Note_on_c, 0, 40, 66
1, 34461, Note_on_c, 0, 80, 0
1, 34461, Note_on_c, 0, 71, 0
1, 34461, Note_on_c, 0, 52, 0
1, 34461, Note_on_c, 0, 40, 0
1, 34464, Note_on_c, 0, 56, 66
1, 34464, Note_on_c, 0, 44, 66
1, 34509, Note_on_c, 0, 56, 0
1, 34509, Note_on_c, 0, 44, 0
1, 34512, Note_on_c, 0, 52, 66
1, 34512, Note_on_c, 0, 40, 66
1, 34557, Note_on_c, 0, 52, 0
1, 34557, Note_on_c, 0, 40, 0
1, 34560, Note_on_c, 0, 64, 66
1, 34566, Note_on_c, 0, 68, 66
1, 34572, Note_on_c, 0, 71, 66
1, 34578, Note_on_c, 0, 74, 66
1, 34608, Note_on_c, 0, 52, 66
1, 34608, Note_on_c, 0, 40, 66
1, 34653, Note_on_c, 0, 74, 0
1, 34653, Note_on_c, 0, 71, 0
1, 34653, Note_on_c, 0, 68, 0
1, 34653, Note_on_c, 0, 64, 0
1, 34653, Note_on_c, 0, 52, 0
1, 34653, Note_on_c, 0, 40, 0
1, 34656, Note_on_c, 0, 56, 66
1, 34656, Note_on_c, 0, 44, 66
1, 34701, Note_on_c, 0, 56, 0
1, 34701, Note_on_c, 0, 44, 0
1, 34704, Note_on_c, 0, 74, 66
1, 34704, Note_on_c, 0, 71, 66
1, 34704, Note_on_c, 0, 52, 66
1, 34704, Note_on_c, 0, 40, 66
1, 34749, Note_on_c, 0, 74, 0
1, 34749, Note_on_c, 0, 71, 0
1, 34749, Note_on_c, 0, 52, 0
1, 34749, Note_on_c, 0, 40, 0
1, 34752, Note_on_c, 0, 74, 66
1, 34752, Note_on_c, 0, 71, 66
1, 34776, Note_on_c, 0, 74, 0
1, 34776, Note_on_c, 0, 71, 0
1, 34776, Note_on_c, 0, 72, 66
1, 34776, Note_on_c, 0, 69, 66
1, 34799, Note_on_c, 0, 72, 0
1, 34799, Note_on_c, 0, 69, 0
1, 34800, Note_on_c, 0, 72, 66
1, 34800, Note_on_c, 0, 69, 66
1, 34800, Note_on_c, 0, 57, 66
1, 34800, Note_on_c, 0, 45, 66
1, 34845, Note_on_c, 0, 72, 0
1, 34845, Note_on_c, 0, 69, 0
1, 34845, Note_on_c, 0, 57, 0
1, 34845, Note_on_c, 0, 45, 0
1, 34848, Note_on_c, 0, 60, 66
1, 34848, Note_on_c, 0, 48, 66
1, 34893, Note_on_c, 0, 60, 0
1, 34893, Note_on_c, 0, 48, 0
1, 34896, Note_on_c, 0, 57, 66
1, 34896, Note_on_c, 0, 45, 66
1, 34941, Note_on_c, 0, 57, 0
1, 34941, Note_on_c, 0, 45, 0
1, 34944, Note_on_c, 0, 77, 66
1, 34944, Note_on_c, 0, 74, 66
1, 34992, Note_on_c, 0, 62, 66
1, 34992, Note_on_c, 0, 50, 66
1, 35033, Note_on_c, 0, 77, 0
1, 35033, Note_on_c, 0, 74, 0
1, 35037, Note_on_c, 0, 62, 0
1, 35037, Note_on_c, 0, 50, 0
1, 35040, Note_on_c, 0, 59, 66
1, 35040, Note_on_c, 0, 47, 66
1, 35085, Note_on_c, 0, 59, 0
1, 35085, Note_on_c, 0, 47, 0
1, 35088, Note_on_c, 0, 77, 68
1, 35088, Note_on_c, 0, 74, 68
1, 35088, Note_on_c, 0, 55, 67
1, 35088, Note_on_c, 0, 43, 67
1, 35133, Note_on_c, 0, 77, 0
1, 35133, Note_on_c, 0, 74, 0
1, 35133, Note_on_c, 0, 55, 0
1, 35133, Note_on_c, 0, 43, 0
1, 35136, Note_on_c, 0, 77, 69
1, 35136, Note_on_c, 0, 74, 69
1, 35160, Note_on_c, 0, 77, 0
1, 35160, Note_on_c, 0, 74, 0
1, 35160, Note_on_c, 0, 76, 69
1, 35160, Note_on_c, 0, 72, 69
1, 35183, Note_on_c, 0, 76, 0
1, 35183, Note_on_c, 0, 72, 0
1, 35184, Note_on_c, 0, 76, 69
1, 35184, Note_on_c, 0, 72, 69
1, 35184, Note_on_c, 0, 60, 69
1, 35184, Note_on_c, 0, 48, 69
1, 35229, Note_on_c, 0, 76, 0
1, 35229, Note_on_c, 0, 72, 0
1, 35229, Note_on_c, 0, 60, 0
1, 35229, Note_on_c, 0, 48, 0
1, 35232, Note_on_c, 0, 57, 70
1, 35232, Note_on_c, 0, 45, 70
1, 35277, Note_on_c, 0, 57, 0
1, 35277, Note_on_c, 0, 45, 0
1, 35280, Note_on_c, 0, 76, 71
1, 35280, Note_on_c, 0, 72, 71
1, 35280, Note_on_c, 0, 53, 70
1, 35280, Note_on_c, 0, 41, 70
1, 35325, Note_on_c, 0, 76, 0
1, 35325, Note_on_c, 0, 72, 0
1, 35325, Note_on_c, 0, 53, 0
1, 35325, Note_on_c, 0, 41, 0
1, 35328, Note_on_c, 0, 76, 72
1, 35328, Note_on_c, 0, 72, 72
1, 35352, Note_on_c, 0, 76, 0
1, 35352, Note_on_c, 0, 72, 0
1, 35352, Note_on_c, 0, 74, 72
1, 35352, Note_on_c, 0, 71, 72
1, 35375, Note_on_c, 0, 74, 0
1, 35375, Note_on_c, 0, 71, 0
1, 35376, Note_on_c, 0, 74, 73
1, 35376, Note_on_c, 0, 71, 73
1, 35376, Note_on_c, 0, 59, 72
1, 35376, Note_on_c, 0, 47, 72
1, 35421, Note_on_c, 0, 74, 0
1, 35421, Note_on_c, 0, 71, 0
1, 35421, Note_on_c, 0, 59, 0
1, 35421, Note_on_c, 0, 47, 0
1, 35424, Note_on_c, 0, 56, 73
1, 35424, Note_on_c, 0, 44, 73
1, 35469, Note_on_c, 0, 56, 0
1, 35469, Note_on_c, 0, 44, 0
1, 35472, Note_on_c, 0, 74, 74
1, 35472, Note_on_c, 0, 71, 74
1, 35472, Note_on_c, 0, 52, 74
1, 35472, Note_on_c, 0, 40, 74
1, 35517, Note_on_c, 0, 74, 0
1, 35517, Note_on_c, 0, 71, 0
1, 35517, Note_on_c, 0, 52, 0
1, 35517, Note_on_c, 0, 40, 0
1, 35520, Note_on_c, 0, 74, 75
1, 35520, Note_on_c, 0, 71, 75
1, 35544, Note_on_c, 0, 74, 0
1, 35544, Note_on_c, 0, 71, 0
1, 35544, Note_on_c, 0, 72, 75
1, 35544, Note_on_c, 0, 69, 75
1, 35567, Note_on_c, 0, 72, 0
1, 35567, Note_on_c, 0, 69, 0
1, 35568, Note_on_c, 0, 72, 76
1, 35568, Note_on_c, 0, 69, 76
1, 35568, Note_on_c, 0, 57, 75
1, 35568, Note_on_c, 0, 45, 75
1, 35613, Note_on_c, 0, 72, 0
1, 35613, Note_on_c, 0, 69, 0
1, 35613, Note_on_c, 0, 57, 0
1, 35613, Note_on_c, 0, 45, 0
1, 35616, Note_on_c, 0, 60, 76
1, 35616, Note_on_c, 0, 48, 76
1, 35661, Note_on_c, 0, 60, 0
1, 35661, Note_on_c, 0, 48, 0
1, 35664, Note_on_c, 0, 72, 77
1, 35664, Note_on_c, 0, 69, 77
1, 35664, Note_on_c, 0, 57, 77
1, 35664, Note_on_c, 0, 45, 77
1, 35709, Note_on_c, 0, 72, 0
1, 35709, Note_on_c, 0, 69, 0
1, 35709, Note_on_c, 0, 57, 0
1, 35709, Note_on_c, 0, 45, 0
1, 35712, Note_on_c, 0, 74, 78
1, 35712, Note_on_c, 0, 71, 78
1, 35736, Note_on_c, 0, 74, 0
1, 35736, Note_on_c, 0, 71, 0
1, 35736, Note_on_c, 0, 72, 79
1, 35736, Note_on_c, 0, 69, 79
1, 35759, Note_on_c, 0, 72, 0
1, 35759, Note_on_c, 0, 69, 0
1, 35760, Note_on_c, 0, 72, 79
1, 35760, Note_on_c, 0, 69, 79
1, 35760, Note_on_c, 0, 53, 79
1, 35760, Note_on_c, 0, 41, 79
1, 35805, Note_on_c, 0, 72, 0
1, 35805, Note_on_c, 0, 69, 0
1, 35805, Note_on_c, 0, 53, 0
1, 35805, Note_on_c, 0, 41, 0
1, 35808, Note_on_c, 0, 57, 80
1, 35808, Note_on_c, 0, 45, 80
1, 35853, Note_on_c, 0, 57, 0
1, 35853, Note_on_c, 0, 45, 0
1, 35856, Note_on_c, 0, 72, 81
1, 35856, Note_on_c, 0, 69, 81
1, 35856, Note_on_c, 0, 53, 80
1, 35856, Note_on_c, 0, 41, 80
1, 35901, Note_on_c, 0, 72, 0
1, 35901, Note_on_c, 0, 69, 0
1, 35901, Note_on_c, 0, 53, 0
1, 35901, Note_on_c, 0, 41, 0
1, 35904, Note_on_c, 0, 74, 81
1, 35904, Note_on_c, 0, 71, 81
1, 35928, Note_on_c, 0, 74, 0
1, 35928, Note_on_c, 0, 71, 0
1, 35928, Note_on_c, 0, 72, 82
1, 35928, Note_on_c, 0, 69, 82
1, 35951, Note_on_c, 0, 72, 0
1, 35951, Note_on_c, 0, 69, 0
1, 35952, Note_on_c, 0, 72, 82
1, 35952, Note_on_c, 0, 69, 82
1, 35952, Note_on_c, 0, 65, 82
1, 35952, Note_on_c, 0, 53, 82
1, 35997, Note_on_c, 0, 72, 0
1, 35997, Note_on_c, 0, 69, 0
1, 35997, Note_on_c, 0, 65, 0
1, 35997, Note_on_c, 0, 53, 0
1, 36000, Note_on_c, 0, 64, 83
1, 36000, Note_on_c, 0, 52, 83
1, 36045, Note_on_c, 0, 64, 0
1, 36045, Note_on_c, 0, 52, 0
1, 36048, Note_on_c, 0, 72, 84
1, 36048, Note_on_c, 0, 69, 84
1, 36048, Note_on_c, 0, 63, 84
1, 36048, Note_on_c, 0, 51, 84
1, 36093, Note_on_c, 0, 72, 0
1, 36093, Note_on_c, 0, 69, 0
1, 36093, Note_on_c, 0, 63, 0
1, 36093, Note_on_c, 0, 51, 0
1, 36096, Note_on_c, 0, 72, 85
1, 36096, Note_on_c, 0, 69, 72
1, 36096, Note_on_c, 0, 64, 85
1, 36096, Note_on_c, 0, 52, 85
1, 36106, Note_on_c, 0, 72, 0
1, 36106, Note_on_c, 0, 74, 85
1, 36116, Note_on_c, 0, 74, 0
1, 36116, Note_on_c, 0, 72, 85
1, 36126, Note_on_c, 0, 72, 0
1, 36126, Note_on_c, 0, 71, 85
1, 36135, Note_on_c, 0, 71, 0
1, 36135, Note_on_c, 0, 72, 85
1, 36144, Note_on_c, 0, 72, 0
1, 36144, Note_on_c, 0, 71, 85
1, 36144, Note_on_c, 0, 69, 0
1, 36144, Note_on_c, 0, 68, 72
1, 36185, Note_on_c, 0, 64, 0
1, 36185, Note_on_c, 0, 52, 0
1, 36189, Note_on_c, 0, 71, 0
1, 36189, Note_on_c, 0, 68, 0
1, 36288, Note_on_c, 0, 57, 85
1, 36288, Note_on_c, 0, 45, 85
1, 36288, Note_on_c, 0, 33, 85
1, 36303, Note_on_c, 0, 57, 0
1, 36304, Note_on_c, 0, 61, 85
1, 36319, Note_on_c, 0, 61, 0
1, 36320, Note_on_c, 0, 64, 85
1, 36335, Note_on_c, 0, 64, 0
1, 36336, Note_on_c, 0, 61, 85
1, 36351, Note_on_c, 0, 61, 0
1, 36352, Note_on_c, 0, 64, 85
1, 36367, Note_on_c, 0, 64, 0
1, 36368, Note_on_c, 0, 69, 85
1, 36377, Note_on_c, 0, 45, 0
1, 36377, Note_on_c, 0, 33, 0
1, 36383, Note_on_c, 0, 69, 0
1, 36384, Note_on_c, 0, 69, 85
1, 36399, Note_on_c, 0, 69, 0
1, 36400, Note_on_c, 0, 73, 85
1, 36415, Note_on_c, 0, 73, 0
1, 36416, Note_on_c, 0, 76, 85
1, 36431, Note_on_c, 0, 76, 0
1, 36432, Note_on_c, 0, 73, 85
1, 36447, Note_on_c, 0, 73, 0
1, 36448, Note_on_c, 0, 76, 85
1, 36463, Note_on_c, 0, 76, 0
1, 36464, Note_on_c, 0, 81, 85
1, 36479, Note_on_c, 0, 81, 0
1, 36480, Note_on_c, 0, 74, 85
1, 36480, Note_on_c, 0, 71, 85
1, 36528, Note_on_c, 0, 52, 85
1, 36528, Note_on_c, 0, 40, 85
1, 36569, Note_on_c, 0, 74, 0
1, 36569, Note_on_c, 0, 71, 0
1, 36573, Note_on_c, 0, 52, 0
1, 36573, Note_on_c, 0, 40, 0
1, 36576, Note_on_c, 0, 56, 85
1, 36576, Note_on_c, 0, 44, 85
1, 36621, Note_on_c, 0, 56, 0
1, 36621, Note_on_c, 0, 44, 0
1, 36624, Note_on_c, 0, 52, 85
1, 36624, Note_on_c, 0, 40, 85
1, 36669, Note_on_c, 0, 52, 0
1, 36669, Note_on_c, 0, 40, 0
1, 36672, Note_on_c, 0, 64, 85
1, 36672, Note_on_c, 0, 52, 85
1, 36672, Note_on_c, 0, 40, 85
1, 36687, Note_on_c, 0, 64, 0
1, 36688, Note_on_c, 0, 68, 85
1, 36703, Note_on_c, 0, 68, 0
1, 36704, Note_on_c, 0, 71, 85
1, 36719, Note_on_c, 0, 71, 0
1, 36720, Note_on_c, 0, 68, 85
1, 36735, Note_on_c, 0, 68, 0
1, 36736, Note_on_c, 0, 71, 85
1, 36751, Note_on_c, 0, 71, 0
1, 36752, Note_on_c, 0, 74, 85
1, 36761, Note_on_c, 0, 52, 0
1, 36761, Note_on_c, 0, 40, 0
1, 36767, Note_on_c, 0, 74, 0
1, 36768, Note_on_c, 0, 71, 85
1, 36783, Note_on_c, 0, 71, 0
1, 36784, Note_on_c, 0, 74, 85
1, 36799, Note_on_c, 0, 74, 0
1, 36800, Note_on_c, 0, 80, 85
1, 36815, Note_on_c, 0, 80, 0
1, 36816, Note_on_c, 0, 74, 85
1, 36831, Note_on_c, 0, 74, 0
1, 36832, Note_on_c, 0, 80, 85
1, 36847, Note_on_c, 0, 80, 0
1, 36848, Note_on_c, 0, 83, 85
1, 36863, Note_on_c, 0, 83, 0
1, 36864, Note_on_c, 0, 81, 85
1, 36864, Note_on_c, 0, 73, 85
1, 36912, Note_on_c, 0, 57, 85
1, 36912, Note_on_c, 0, 45, 85
1, 36953, Note_on_c, 0, 81, 0
1, 36953, Note_on_c, 0, 73, 0
1, 36957, Note_on_c, 0, 57, 0
1, 36957, Note_on_c, 0, 45, 0
1, 36960, Note_on_c, 0, 61, 85
1, 36960, Note_on_c, 0, 49, 85
1, 37005, Note_on_c, 0, 61, 0
1, 37005, Note_on_c, 0, 49, 0
1, 37008, Note_on_c, 0, 57, 85
1, 37008, Note_on_c, 0, 45, 85
1, 37053, Note_on_c, 0, 57, 0
1, 37053, Note_on_c, 0, 45, 0
1, 37056, Note_on_c, 0, 49, 72
1, 37079, Note_on_c, 0, 49, 0
1, 37080, Note_on_c, 0, 57, 72
1, 37103, Note_on_c, 0, 57, 0
1, 37104, Note_on_c, 0, 69, 78
1, 37104, Note_on_c, 0, 52, 72
1, 37127, Note_on_c, 0, 52, 0
1, 37128, Note_on_c, 0, 57, 72
1, 37149, Note_on_c, 0, 69, 0
1, 37151, Note_on_c, 0, 57, 0
1, 37152, Note_on_c, 0, 73, 78
1, 37152, Note_on_c, 0, 49, 72
1, 37175, Note_on_c, 0, 49, 0
1, 37176, Note_on_c, 0, 57, 72
1, 37197, Note_on_c, 0, 73, 0
1, 37199, Note_on_c, 0, 57, 0
1, 37200, Note_on_c, 0, 76, 78
1, 37200, Note_on_c, 0, 52, 72
1, 37223, Note_on_c, 0, 52, 0
1, 37224, Note_on_c, 0, 57, 72
1, 37245, Note_on_c, 0, 76, 0
1, 37247, Note_on_c, 0, 57, 0
1, 37248, Note_on_c, 0, 66, 78
1, 37248, Note_on_c, 0, 50, 72
1, 37259, Note_on_c, 0, 66, 0
1, 37259, Note_on_c, 0, 68, 78
1, 37270, Note_on_c, 0, 68, 0
1, 37270, Note_on_c, 0, 66, 78
1, 37271, Note_on_c, 0, 50, 0
1, 37272, Note_on_c, 0, 57, 72
1, 37281, Note_on_c, 0, 66, 0
1, 37281, Note_on_c, 0, 68, 78
1, 37292, Note_on_c, 0, 68, 0
1, 37292, Note_on_c, 0, 66, 78
1, 37295, Note_on_c, 0, 57, 0
1, 37296, Note_on_c, 0, 54, 72
1, 37303, Note_on_c, 0, 66, 0
1, 37303, Note_on_c, 0, 68, 78
1, 37314, Note_on_c, 0, 68, 0
1, 37314, Note_on_c, 0, 66, 78
1, 37319, Note_on_c, 0, 54, 0
1, 37320, Note_on_c, 0, 57, 72
1, 37325, Note_on_c, 0, 66, 0
1, 37325, Note_on_c, 0, 68, 78
1, 37336, Note_on_c, 0, 68, 0
1, 37336, Note_on_c, 0, 66, 78
1, 37343, Note_on_c, 0, 57, 0
1, 37344, Note_on_c, 0, 50, 72
1, 37347, Note_on_c, 0, 66, 0
1, 37347, Note_on_c, 0, 68, 78
1, 37358, Note_on_c, 0, 68, 0
1, 37358, Note_on_c, 0, 66, 78
1, 37367, Note_on_c, 0, 50, 0
1, 37368, Note_on_c, 0, 57, 72
1, 37369, Note_on_c, 0, 66, 0
1, 37369, Note_on_c, 0, 68, 78
1, 37380, Note_on_c, 0, 68, 0
1, 37380, Note_on_c, 0, 66, 78
1, 37391, Note_on_c, 0, 57, 0
1, 37392, Note_on_c, 0, 54, 72
1, 37415, Note_on_c, 0, 54, 0
1, 37416, Note_on_c, 0, 57, 72
1, 37439, Note_on_c, 0, 57, 0
1, 37440, Note_on_c, 0, 66, 0
1, 37440, Note_on_c, 0, 52, 72
1, 37463, Note_on_c, 0, 52, 0
1, 37464, Note_on_c, 0, 57, 72
1, 37487, Note_on_c, 0, 57, 0
1, 37488, Note_on_c, 0, 69, 78
1, 37488, Note_on_c, 0, 56, 72
1, 37511, Note_on_c, 0, 56, 0
1, 37512, Note_on_c, 0, 57, 72
1, 37533, Note_on_c, 0, 69, 0
1, 37535, Note_on_c, 0, 57, 0
1, 37536, Note_on_c, 0, 73, 78
1, 37536, Note_on_c, 0, 52, 72
1, 37559, Note_on_c, 0, 52, 0
1, 37560, Note_on_c, 0, 57, 72
1, 37581, Note_on_c, 0, 73, 0
1, 37583, Note_on_c, 0, 57, 0
1, 37584, Note_on_c, 0, 76, 78
1, 37584, Note_on_c, 0, 56, 72
1, 37607, Note_on_c, 0, 56, 0
1, 37608, Note_on_c, 0, 57, 72
1, 37629, Note_on_c, 0, 76, 0
1, 37631, Note_on_c, 0, 57, 0
1, 37632, Note_on_c, 0, 69, 78
1, 37632, Note_on_c, 0, 54, 72
1, 37643, Note_on_c, 0, 69, 0
1, 37643, Note_on_c, 0, 71, 78
1, 37654, Note_on_c, 0, 71, 0
1, 37654, Note_on_c, 0, 69, 78
1, 37655, Note_on_c, 0, 54, 0
1, 37656, Note_on_c, 0, 57, 72
1, 37665, Note_on_c, 0, 69, 0
1, 37665, Note_on_c, 0, 71, 78
1, 37676, Note_on_c, 0, 71, 0
1, 37676, Note_on_c, 0, 69, 78
1, 37679, Note_on_c, 0, 57, 0
1, 37680, Note_on_c, 0, 56, 72
1, 37687, Note_on_c, 0, 69, 0
1, 37687, Note_on_c, 0, 71, 78
1, 37698, Note_on_c, 0, 71, 0
1, 37698, Note_on_c, 0, 69, 78
1, 37703, Note_on_c, 0, 56, 0
1, 37704, Note_on_c, 0, 57, 72
1, 37709, Note_on_c, 0, 69, 0
1, 37709, Note_on_c, 0, 71, 78
1, 37720, Note_on_c, 0, 71, 0
1, 37720, Note_on_c, 0, 69, 78
1, 37727, Note_on_c, 0, 57, 0
1, 37728, Note_on_c, 0, 54, 72
1, 37731, Note_on_c, 0, 69, 0
1, 37731, Note_on_c, 0, 71, 78
1, 37742, Note_on_c, 0, 71, 0
1, 37742, Note_on_c, 0, 69, 78
1, 37751, Note_on_c, 0, 54, 0
1, 37752, Note_on_c, 0, 57, 72
1, 37753, Note_on_c, 0, 69, 0
1, 37753, Note_on_c, 0, 71, 78
1, 37764, Note_on_c, 0, 71, 0
1, 37764, Note_on_c, 0, 69, 78
1, 37775, Note_on_c, 0, 57, 0
1, 37776, Note_on_c, 0, 56, 72
1, 37799, Note_on_c, 0, 56, 0
1, 37800, Note_on_c, 0, 57, 72
1, 37823, Note_on_c, 0, 57, 0
1, 37824, Note_on_c, 0, 69, 0
1, 37824, Note_on_c, 0, 49, 72
1, 37847, Note_on_c, 0, 49, 0
1, 37848, Note_on_c, 0, 57, 72
1, 37871, Note_on_c, 0, 57, 0
1, 37872, Note_on_c, 0, 69, 78
1, 37872, Note_on_c, 0, 52, 72
1, 37895, Note_on_c, 0, 52, 0
1, 37896, Note_on_c, 0, 57, 72
1, 37917, Note_on_c, 0, 69, 0
1, 37919, Note_on_c, 0, 57, 0
1, 37920, Note_on_c, 0, 73, 78
1, 37920, Note_on_c, 0, 49, 72
1, 37943, Note_on_c, 0, 49, 0
1, 37944, Note_on_c, 0, 57, 72
1, 37965, Note_on_c, 0, 73, 0
1, 37967, Note_on_c, 0, 57, 0
1, 37968, Note_on_c, 0, 76, 78
1, 37968, Note_on_c, 0, 52, 72
1, 37991, Note_on_c, 0, 52, 0
1, 37992, Note_on_c, 0, 57, 72
1, 38013, Note_on_c, 0, 76, 0
1, 38015, Note_on_c, 0, 57, 0
1, 38016, Note_on_c, 0, 76, 78
1, 38016, Note_on_c, 0, 50, 72
1, 38039, Note_on_c, 0, 50, 0
1, 38040, Note_on_c, 0, 57, 72
1, 38061, Note_on_c, 0, 76, 0
1, 38063, Note_on_c, 0, 57, 0
1, 38064, Note_on_c, 0, 77, 78
1, 38064, Note_on_c, 0, 54, 72
1, 38087, Note_on_c, 0, 54, 0
1, 38088, Note_on_c, 0, 57, 72
1, 38109, Note_on_c, 0, 77, 0
1, 38111, Note_on_c, 0, 57, 0
1, 38112, Note_on_c, 0, 78, 78
1, 38112, Note_on_c, 0, 50, 72
1, 38135, Note_on_c, 0, 50, 0
1, 38136, Note_on_c, 0, 57, 72
1, 38157, Note_on_c, 0, 78, 0
1, 38159, Note_on_c, 0, 57, 0
1, 38160, Note_on_c, 0, 74, 78
1, 38160, Note_on_c, 0, 54, 72
1, 38183, Note_on_c, 0, 54, 0
1, 38184, Note_on_c, 0, 57, 72
1, 38205, Note_on_c, 0, 74, 0
1, 38207, Note_on_c, 0, 57, 0
1, 38208, Note_on_c, 0, 74, 78
1, 38208, Note_on_c, 0, 52, 72
1, 38231, Note_on_c, 0, 74, 0
1, 38231, Note_on_c, 0, 52, 0
1, 38232, Note_on_c, 0, 73, 78
1, 38232, Note_on_c, 0, 61, 72
1, 38255, Note_on_c, 0, 73, 0
1, 38255, Note_on_c, 0, 61, 0
1, 38256, Note_on_c, 0, 71, 78
1, 38256, Note_on_c, 0, 57, 72
1, 38279, Note_on_c, 0, 71, 0
1, 38279, Note_on_c, 0, 57, 0
1, 38280, Note_on_c, 0, 69, 78
1, 38280, Note_on_c, 0, 61, 72
1, 38303, Note_on_c, 0, 69, 0
1, 38303, Note_on_c, 0, 61, 0
1, 38304, Note_on_c, 0, 73, 78
1, 38304, Note_on_c, 0, 52, 72
1, 38327, Note_on_c, 0, 73, 0
1, 38327, Note_on_c, 0, 52, 0
1, 38328, Note_on_c, 0, 71, 78
1, 38328, Note_on_c, 0, 62, 72
1, 38351, Note_on_c, 0, 71, 0
1, 38351, Note_on_c, 0, 62, 0
1, 38352, Note_on_c, 0, 69, 78
1, 38352, Note_on_c, 0, 59, 72
1, 38375, Note_on_c, 0, 69, 0
1, 38375, Note_on_c, 0, 59, 0
1, 38376, Note_on_c, 0, 68, 78
1, 38376, Note_on_c, 0, 62, 72
1, 38399, Note_on_c, 0, 68, 0
1, 38399, Note_on_c, 0, 62, 0
1, 38400, Note_on_c, 0, 69, 78
1, 38400, Note_on_c, 0, 61, 72
1, 38400, Note_on_c, 0, 57, 72
1, 38445, Note_on_c, 0, 69, 0
1, 38448, Note_on_c, 0, 73, 85
1, 38448, Note_on_c, 0, 69, 85
1, 38463, Note_on_c, 0, 73, 0
1, 38463, Note_on_c, 0, 69, 0
1, 38464, Note_on_c, 0, 74, 85
1, 38464, Note_on_c, 0, 71, 85
1, 38479, Note_on_c, 0, 74, 0
1, 38479, Note_on_c, 0, 71, 0
1, 38480, Note_on_c, 0, 76, 85
1, 38480, Note_on_c, 0, 73, 85
1, 38489, Note_on_c, 0, 61, 0
1, 38489, Note_on_c, 0, 57, 0
1, 38495, Note_on_c, 0, 76, 0
1, 38495, Note_on_c, 0, 73, 0
1, 38496, Note_on_c, 0, 74, 85
1, 38496, Note_on_c, 0, 71, 85
1, 38541, Note_on_c, 0, 74, 0
1, 38541, Note_on_c, 0, 71, 0
1, 38544, Note_on_c, 0, 68, 85
1, 38544, Note_on_c, 0, 62, 85
1, 38544, Note_on_c, 0, 52, 85
1, 38544, Note_on_c, 0, 40, 85
1, 38589, Note_on_c, 0, 68, 0
1, 38589, Note_on_c, 0, 62, 0
1, 38589, Note_on_c, 0, 52, 0
1, 38589, Note_on_c, 0, 40, 0
1, 38592, Note_on_c, 0, 69, 85
1, 38592, Note_on_c, 0, 61, 85
1, 38592, Note_on_c, 0, 45, 85
1, 38637, Note_on_c, 0, 69, 0
1, 38637, Note_on_c, 0, 61, 0
1, 38640, Note_on_c, 0, 61, 85
1, 38640, Note_on_c, 0, 57, 85
1, 38655, Note_on_c, 0, 61, 0
1, 38655, Note_on_c, 0, 57, 0
1, 38656, Note_on_c, 0, 62, 85
1, 38656, Note_on_c, 0, 59, 85
1, 38671, Note_on_c, 0, 62, 0
1, 38671, Note_on_c, 0, 59, 0
1, 38672, Note_on_c, 0, 64, 85
1, 38672, Note_on_c, 0, 61, 85
1, 38681, Note_on_c, 0, 45, 0
1, 38687, Note_on_c, 0, 64, 0
1, 38687, Note_on_c, 0, 61, 0
1, 38688, Note_on_c, 0, 62, 85
1, 38688, Note_on_c, 0, 59, 85
1, 38733, Note_on_c, 0, 62, 0
1, 38733, Note_on_c, 0, 59, 0
1, 38736, Note_on_c, 0, 59, 85
1, 38736, Note_on_c, 0, 56, 85
1, 38736, Note_on_c, 0, 52, 85
1, 38736, Note_on_c, 0, 40, 85
1, 38781, Note_on_c, 0, 59, 0
1, 38781, Note_on_c, 0, 56, 0
1, 38781, Note_on_c, 0, 52, 0
1, 38781, Note_on_c, 0, 40, 0
1, 38784, Note_on_c, 0, 57, 85
1, 38784, Note_on_c, 0, 45, 85
1, 38784, Note_on_c, 0, 33, 85
1, 38873, Note_on_c, 0, 57, 0
1, 38873, Note_on_c, 0, 45, 0
1, 38873, Note_on_c, 0, 33, 0
1, 38976, Note_on_c, 0, 64, 78
1, 38976, Note_on_c, 0, 56, 66
1, 38976, Note_on_c, 0, 52, 66
1, 38999, Note_on_c, 0, 64, 0
1, 39000, Note_on_c, 0, 66, 78
1, 39021, Note_on_c, 0, 56, 0
1, 39021, Note_on_c, 0, 52, 0
1, 39023, Note_on_c, 0, 66, 0
1, 39024, Note_on_c, 0, 68, 78
1, 39024, Note_on_c, 0, 56, 66
1, 39024, Note_on_c, 0, 52, 66
1, 39047, Note_on_c, 0, 68, 0
1, 39048, Note_on_c, 0, 69, 78
1, 39069, Note_on_c, 0, 56, 0
1, 39069, Note_on_c, 0, 52, 0
1, 39071, Note_on_c, 0, 69, 0
1, 39072, Note_on_c, 0, 71, 78
1, 39072, Note_on_c, 0, 56, 66
1, 39072, Note_on_c, 0, 52, 66
1, 39095, Note_on_c, 0, 71, 0
1, 39096, Note_on_c, 0, 73, 78
1, 39117, Note_on_c, 0, 56, 0
1, 39117, Note_on_c, 0, 52, 0
1, 39119, Note_on_c, 0, 73, 0
1, 39120, Note_on_c, 0, 75, 78
1, 39120, Note_on_c, 0, 56, 66
1, 39120, Note_on_c, 0, 52, 66
1, 39143, Note_on_c, 0, 75, 0
1, 39144, Note_on_c, 0, 76, 78
1, 39165, Note_on_c, 0, 56, 0
1, 39165, Note_on_c, 0, 52, 0
1, 39167, Note_on_c, 0, 76, 0
1, 39168, Note_on_c, 0, 73, 78
1, 39168, Note_on_c, 0, 57, 66
1, 39168, Note_on_c, 0, 52, 66
1, 39178, Note_on_c, 0, 73, 0
1, 39178, Note_on_c, 0, 75, 78
1, 39188, Note_on_c, 0, 75, 0
1, 39188, Note_on_c, 0, 73, 78
1, 39198, Note_on_c, 0, 73, 0
1, 39198, Note_on_c, 0, 71, 78
1, 39207, Note_on_c, 0, 71, 0
1, 39207, Note_on_c, 0, 73, 78
1, 39213, Note_on_c, 0, 57, 0
1, 39213, Note_on_c, 0, 52, 0
1, 39216, Note_on_c, 0, 73, 0
1, 39216, Note_on_c, 0, 71, 78
1, 39216, Note_on_c, 0, 56, 66
1, 39216, Note_on_c, 0, 52, 66
1, 39261, Note_on_c, 0, 71, 0
1, 39261, Note_on_c, 0, 56, 0
1, 39261, Note_on_c, 0, 52, 0
1, 39264, Note_on_c, 0, 56, 66
1, 39264, Note_on_c, 0, 52, 66
1, 39309, Note_on_c, 0, 56, 0
1, 39309, Note_on_c, 0, 52, 0
1, 39312, Note_on_c, 0, 78, 78
1, 39312, Note_on_c, 0, 56, 66
1, 39312, Note_on_c, 0, 52, 66
1, 39324, Note_on_c, 0, 78, 0
1, 39324, Note_on_c, 0, 76, 78
1, 39336, Note_on_c, 0, 76, 0
1, 39336, Note_on_c, 0, 75, 78
1, 39348, Note_on_c, 0, 75, 0
1, 39348, Note_on_c, 0, 76, 78
1, 39357, Note_on_c, 0, 56, 0
1, 39357, Note_on_c, 0, 52, 0
1, 39360, Note_on_c, 0, 76, 0
1, 39360, Note_on_c, 0, 75, 78
1, 39375, Note_on_c, 0, 75, 0
1, 39376, Note_on_c, 0, 76, 78
1, 39391, Note_on_c, 0, 76, 0
1, 39392, Note_on_c, 0, 78, 78
1, 39407, Note_on_c, 0, 78, 0
1, 39408, Note_on_c, 0, 69, 78
1, 39408, Note_on_c, 0, 54, 66
1, 39408, Note_on_c, 0, 47, 66
1, 39453, Note_on_c, 0, 69, 0
1, 39453, Note_on_c, 0, 54, 0
1, 39453, Note_on_c, 0, 47, 0
1, 39456, Note_on_c, 0, 68, 78
1, 39456, Note_on_c, 0, 52, 66
1, 39456, Note_on_c, 0, 47, 66
1, 39466, Note_on_c, 0, 68, 0
1, 39466, Note_on_c, 0, 69, 78
1, 39476, Note_on_c, 0, 69, 0
1, 39476, Note_on_c, 0, 68, 78
1, 39486, Note_on_c, 0, 68, 0
1, 39486, Note_on_c, 0, 66, 78
1, 39495, Note_on_c, 0, 66, 0
1, 39495, Note_on_c, 0, 68, 78
1, 39501, Note_on_c, 0, 52, 0
1, 39501, Note_on_c, 0, 47, 0
1, 39504, Note_on_c, 0, 68, 0
1, 39504, Note_on_c, 0, 66, 78
1, 39504, Note_on_c, 0, 51, 66
1, 39504, Note_on_c, 0, 47, 66
1, 39549, Note_on_c, 0, 66, 0
1, 39549, Note_on_c, 0, 51, 0
1, 39549, Note_on_c, 0, 47, 0
1, 39552, Note_on_c, 0, 68, 78
1, 39567, Note_on_c, 0, 68, 0
1, 39568, Note_on_c, 0, 69, 78
1, 39583, Note_on_c, 0, 69, 0
1, 39584, Note_on_c, 0, 71, 78
1, 39599, Note_on_c, 0, 71, 0
1, 39600, Note_on_c, 0, 64, 78
1, 39600, Note_on_c, 0, 56, 66
1, 39600, Note_on_c, 0, 52, 66
1, 39645, Note_on_c, 0, 64, 0
1, 39645, Note_on_c, 0, 56, 0
1, 39645, Note_on_c, 0, 52, 0
1, 39648, Note_on_c, 0, 59, 66
1, 39648, Note_on_c, 0, 56, 66
1, 39693, Note_on_c, 0, 59, 0
1, 39693, Note_on_c, 0, 56, 0
1, 39696, Note_on_c, 0, 78, 78
1, 39696, Note_on_c, 0, 56, 66
1, 39696, Note_on_c, 0, 52, 66
1, 39708, Note_on_c, 0, 78, 0
1, 39708, Note_on_c, 0, 76, 78
1, 39720, Note_on_c, 0, 76, 0
1, 39720, Note_on_c, 0, 75, 78
1, 39732, Note_on_c, 0, 75, 0
1, 39732, Note_on_c, 0, 76, 78
1, 39737, Note_on_c, 0, 76, 0
1, 39741, Note_on_c, 0, 56, 0
1, 39741, Note_on_c, 0, 52, 0
1, 39744, Note_on_c, 0, 75, 101
1, 39759, Note_on_c, 0, 75, 0
1, 39760, Note_on_c, 0, 76, 78
1, 39775, Note_on_c, 0, 76, 0
1, 39776, Note_on_c, 0, 78, 78
1, 39791, Note_on_c, 0, 78, 0
1, 39792, Note_on_c, 0, 69, 78
1, 39792, Note_on_c, 0, 54, 66
1, 39792, Note_on_c, 0, 47, 66
1, 39837, Note_on_c, 0, 69, 0
1, 39837, Note_on_c, 0, 54, 0
1, 39837, Note_on_c, 0, 47, 0
1, 39840, Note_on_c, 0, 68, 78
1, 39840, Note_on_c, 0, 52, 66
1, 39840, Note_on_c, 0, 47, 66
1, 39850, Note_on_c, 0, 68, 0
1, 39850, Note_on_c, 0, 69, 78
1, 39860, Note_on_c, 0, 69, 0
1, 39860, Note_on_c, 0, 68, 78
1, 39870, Note_on_c, 0, 68, 0
1, 39870, Note_on_c, 0, 66, 78
1, 39879, Note_on_c, 0, 66, 0
1, 39879, Note_on_c, 0, 68, 78
1, 39885, Note_on_c, 0, 52, 0
1, 39885, Note_on_c, 0, 47, 0
1, 39888, Note_on_c, 0, 68, 0
1, 39888, Note_on_c, 0, 66, 78
1, 39888, Note_on_c, 0, 51, 66
1, 39888, Note_on_c, 0, 47, 66
1, 39933, Note_on_c, 0, 66, 0
1, 39933, Note_on_c, 0, 51, 0
1, 39933, Note_on_c, 0, 47, 0
1, 39936, Note_on_c, 0, 68, 78
1, 39951, Note_on_c, 0, 68, 0
1, 39952, Note_on_c, 0, 69, 78
1, 39967, Note_on_c, 0, 69, 0
1, 39968, Note_on_c, 0, 71, 78
1, 39983, Note_on_c, 0, 71, 0
1, 39984, Note_on_c, 0, 64, 78
1, 39984, Note_on_c, 0, 56, 66
1, 39984, Note_on_c, 0, 52, 66
1, 40029, Note_on_c, 0, 64, 0
1, 40029, Note_on_c, 0, 56, 0
1, 40029, Note_on_c, 0, 52, 0
1, 40032, Note_on_c, 0, 59, 66
1, 40032, Note_on_c, 0, 56, 66
1, 40077, Note_on_c, 0, 59, 0
1, 40077, Note_on_c, 0, 56, 0
1, 40080, Note_on_c, 0, 56, 66
1, 40080, Note_on_c, 0, 52, 66
1, 40125, Note_on_c, 0, 56, 0
1, 40125, Note_on_c, 0, 52, 0
1, 40128, Note_on_c, 0, 79, 101
1, 40128, Note_on_c, 0, 70, 101
1, 40176, Note_on_c, 0, 64, 85
1, 40176, Note_on_c, 0, 52, 85
1, 40221, Note_on_c, 0, 64, 0
1, 40221, Note_on_c, 0, 52, 0
1, 40224, Note_on_c, 0, 79, 0
1, 40224, Note_on_c, 0, 70, 0
1, 40224, Note_on_c, 0, 79, 85
1, 40224, Note_on_c, 0, 62, 85
1, 40224, Note_on_c, 0, 50, 85
1, 40248, Note_on_c, 0, 79, 0
1, 40248, Note_on_c, 0, 78, 85
1, 40269, Note_on_c, 0, 62, 0
1, 40269, Note_on_c, 0, 50, 0
1, 40271, Note_on_c, 0, 78, 0
1, 40272, Note_on_c, 0, 78, 85
1, 40272, Note_on_c, 0, 61, 85
1, 40272, Note_on_c, 0, 49, 85
1, 40296, Note_on_c, 0, 78, 0
1, 40296, Note_on_c, 0, 76, 85
1, 40317, Note_on_c, 0, 61, 0
1, 40317, Note_on_c, 0, 49, 0
1, 40319, Note_on_c, 0, 76, 0
1, 40320, Note_on_c, 0, 76, 85
1, 40320, Note_on_c, 0, 59, 85
1, 40320, Note_on_c, 0, 47, 85
1, 40344, Note_on_c, 0, 76, 0
1, 40344, Note_on_c, 0, 74, 85
1, 40365, Note_on_c, 0, 59, 0
1, 40365, Note_on_c, 0, 47, 0
1, 40367, Note_on_c, 0, 74, 0
1, 40368, Note_on_c, 0, 74, 85
1, 40368, Note_on_c, 0, 58, 85
1, 40368, Note_on_c, 0, 46, 85
1, 40392, Note_on_c, 0, 74, 0
1, 40392, Note_on_c, 0, 73, 85
1, 40413, Note_on_c, 0, 58, 0
1, 40413, Note_on_c, 0, 46, 0
1, 40415, Note_on_c, 0, 73, 0
1, 40416, Note_on_c, 0, 73, 85
1, 40416, Note_on_c, 0, 59, 85
1, 40416, Note_on_c, 0, 47, 85
1, 40464, Note_on_c, 0, 73, 0
1, 40464, Note_on_c, 0, 74, 85
1, 40505, Note_on_c, 0, 59, 0
1, 40505, Note_on_c, 0, 47, 0
1, 40509, Note_on_c, 0, 74, 0
1, 40512, Note_on_c, 0, 78, 101
1, 40512, Note_on_c, 0, 68, 101
1, 40560, Note_on_c, 0, 62, 85
1, 40560, Note_on_c, 0, 50, 85
1, 40605, Note_on_c, 0, 62, 0
1, 40605, Note_on_c, 0, 50, 0
1, 40608, Note_on_c, 0, 78, 0
1, 40608, Note_on_c, 0, 68, 0
1, 40608, Note_on_c, 0, 78, 85
1, 40608, Note_on_c, 0, 61, 85
1, 40608, Note_on_c, 0, 49, 85
1, 40632, Note_on_c, 0, 78, 0
1, 40632, Note_on_c, 0, 76, 85
1, 40653, Note_on_c, 0, 61, 0
1, 40653, Note_on_c, 0, 49, 0
1, 40655, Note_on_c, 0, 76, 0
1, 40656, Note_on_c, 0, 76, 85
1, 40656, Note_on_c, 0, 59, 85
1, 40656, Note_on_c, 0, 47, 85
1, 40680, Note_on_c, 0, 76, 0
1, 40680, Note_on_c, 0, 74, 85
1, 40701, Note_on_c, 0, 59, 0
1, 40701, Note_on_c, 0, 47, 0
1, 40703, Note_on_c, 0, 74, 0
1, 40704, Note_on_c, 0, 74, 85
1, 40704, Note_on_c, 0, 57, 85
1, 40704, Note_on_c, 0, 45, 85
1, 40728, Note_on_c, 0, 74, 0
1, 40728, Note_on_c, 0, 73, 85
1, 40749, Note_on_c, 0, 57, 0
1, 40749, Note_on_c, 0, 45, 0
1, 40751, Note_on_c, 0, 73, 0
1, 40752, Note_on_c, 0, 73, 85
1, 40752, Note_on_c, 0, 56, 85
1, 40752, Note_on_c, 0, 44, 85
1, 40776, Note_on_c, 0, 73, 0
1, 40776, Note_on_c, 0, 71, 85
1, 40797, Note_on_c, 0, 56, 0
1, 40797, Note_on_c, 0, 44, 0
1, 40799, Note_on_c, 0, 71, 0
1, 40800, Note_on_c, 0, 71, 85
1, 40800, Note_on_c, 0, 57, 85
1, 40800, Note_on_c, 0, 45, 85
1, 40848, Note_on_c, 0, 71, 0
1, 40848, Note_on_c, 0, 73, 85
1, 40889, Note_on_c, 0, 57, 0
1, 40889, Note_on_c, 0, 45, 0
1, 40893, Note_on_c, 0, 73, 0
1, 40896, Note_on_c, 0, 80, 85
1, 40896, Note_on_c, 0, 52, 85
1, 40896, Note_on_c, 0, 40, 85
1, 40911, Note_on_c, 0, 80, 0
1, 40912, Note_on_c, 0, 83, 85
1, 40927, Note_on_c, 0, 83, 0
1, 40928, Note_on_c, 0, 80, 85
1, 40943, Note_on_c, 0, 80, 0
1, 40944, Note_on_c, 0, 74, 85
1, 40959, Note_on_c, 0, 74, 0
1, 40960, Note_on_c, 0, 80, 85
1, 40975, Note_on_c, 0, 80, 0
1, 40976, Note_on_c, 0, 74, 85
1, 40985, Note_on_c, 0, 52, 0
1, 40985, Note_on_c, 0, 40, 0
1, 40991, Note_on_c, 0, 74, 0
1, 40992, Note_on_c, 0, 71, 85
1, 41007, Note_on_c, 0, 71, 0
1, 41008, Note_on_c, 0, 74, 85
1, 41023, Note_on_c, 0, 74, 0
1, 41024, Note_on_c, 0, 71, 85
1, 41039, Note_on_c, 0, 71, 0
1, 41040, Note_on_c, 0, 68, 85
1, 41055, Note_on_c, 0, 68, 0
1, 41056, Note_on_c, 0, 71, 85
1, 41071, Note_on_c, 0, 71, 0
1, 41072, Note_on_c, 0, 68, 85
1, 41087, Note_on_c, 0, 68, 0
1, 41088, Note_on_c, 0, 52, 85
1, 41112, Note_on_c, 0, 64, 85
1, 41135, Note_on_c, 0, 64, 0
1, 41136, Note_on_c, 0, 74, 85
1, 41136, Note_on_c, 0, 59, 72
1, 41159, Note_on_c, 0, 74, 0
1, 41160, Note_on_c, 0, 64, 85
1, 41181, Note_on_c, 0, 59, 0
1, 41183, Note_on_c, 0, 64, 0
1, 41184, Note_on_c, 0, 73, 85
1, 41184, Note_on_c, 0, 57, 72
1, 41207, Note_on_c, 0, 73, 0
1, 41208, Note_on_c, 0, 64, 85
1, 41229, Note_on_c, 0, 57, 0
1, 41231, Note_on_c, 0, 64, 0
1, 41232, Note_on_c, 0, 71, 85
1, 41232, Note_on_c, 0, 56, 72
1, 41255, Note_on_c, 0, 71, 0
1, 41256, Note_on_c, 0, 64, 85
1, 41265, Note_on_c, 0, 52, 0
1, 41277, Note_on_c, 0, 56, 0
1, 41279, Note_on_c, 0, 64, 0
1, 41280, Note_on_c, 0, 81, 85
1, 41280, Note_on_c, 0, 57, 72
1, 41280, Note_on_c, 0, 52, 85
1, 41295, Note_on_c, 0, 81, 0
1, 41296, Note_on_c, 0, 85, 85
1, 41311, Note_on_c, 0, 85, 0
1, 41312, Note_on_c, 0, 81, 85
1, 41327, Note_on_c, 0, 81, 0
1, 41328, Note_on_c, 0, 76, 85
1, 41343, Note_on_c, 0, 76, 0
1, 41344, Note_on_c, 0, 81, 85
1, 41359, Note_on_c, 0, 81, 0
1, 41360, Note_on_c, 0, 76, 85
1, 41369, Note_on_c, 0, 57, 0
1, 41369, Note_on_c, 0, 52, 0
1, 41375, Note_on_c, 0, 76, 0
1, 41376, Note_on_c, 0, 73, 85
1, 41391, Note_on_c, 0, 73, 0
1, 41392, Note_on_c, 0, 76, 85
1, 41407, Note_on_c, 0, 76, 0
1, 41408, Note_on_c, 0, 73, 85
1, 41423, Note_on_c, 0, 73, 0
1, 41424, Note_on_c, 0, 69, 85
1, 41439, Note_on_c, 0, 69, 0
1, 41440, Note_on_c, 0, 73, 85
1, 41455, Note_on_c, 0, 73, 0
1, 41456, Note_on_c, 0, 69, 85
1, 41471, Note_on_c, 0, 69, 0
1, 41472, Note_on_c, 0, 52, 85
1, 41496, Note_on_c, 0, 64, 85
1, 41519, Note_on_c, 0, 64, 0
1, 41520, Note_on_c, 0, 76, 85
1, 41520, Note_on_c, 0, 61, 72
1, 41543, Note_on_c, 0, 76, 0
1, 41544, Note_on_c, 0, 64, 85
1, 41565, Note_on_c, 0, 61, 0
1, 41567, Note_on_c, 0, 64, 0
1, 41568, Note_on_c, 0, 74, 85
1, 41568, Note_on_c, 0, 59, 72
1, 41591, Note_on_c, 0, 74, 0
1, 41592, Note_on_c, 0, 64, 85
1, 41613, Note_on_c, 0, 59, 0
1, 41615, Note_on_c, 0, 64, 0
1, 41616, Note_on_c, 0, 73, 85
1, 41616, Note_on_c, 0, 57, 72
1, 41639, Note_on_c, 0, 73, 0
1, 41640, Note_on_c, 0, 64, 85
1, 41649, Note_on_c, 0, 52, 0
1, 41661, Note_on_c, 0, 57, 0
1, 41663, Note_on_c, 0, 64, 0
1, 41664, Note_on_c, 0, 81, 78
1, 41676, Note_on_c, 0, 81, 0
1, 41676, Note_on_c, 0, 80, 78
1, 41688, Note_on_c, 0, 80, 0
1, 41688, Note_on_c, 0, 78, 78
1, 41700, Note_on_c, 0, 78, 0
1, 41700, Note_on_c, 0, 76, 78
1, 41712, Note_on_c, 0, 76, 0
1, 41712, Note_on_c, 0, 75, 78
1, 41712, Note_on_c, 0, 69, 72
1, 41712, Note_on_c, 0, 66, 72
1, 41757, Note_on_c, 0, 69, 0
1, 41757, Note_on_c, 0, 66, 0
1, 41760, Note_on_c, 0, 69, 72
1, 41760, Note_on_c, 0, 66, 72
1, 41805, Note_on_c, 0, 69, 0
1, 41805, Note_on_c, 0, 66, 0
1, 41808, Note_on_c, 0, 69, 72
1, 41808, Note_on_c, 0, 66, 72
1, 41845, Note_on_c, 0, 75, 0
1, 41853, Note_on_c, 0, 69, 0
1, 41853, Note_on_c, 0, 66, 0
1, 41856, Note_on_c, 0, 83, 78
1, 41868, Note_on_c, 0, 83, 0
1, 41868, Note_on_c, 0, 81, 78
1, 41880, Note_on_c, 0, 81, 0
1, 41880, Note_on_c, 0, 80, 78
1, 41892, Note_on_c, 0, 80, 0
1, 41892, Note_on_c, 0, 78, 78
1, 41904, Note_on_c, 0, 78, 0
1, 41904, Note_on_c, 0, 76, 78
1, 41904, Note_on_c, 0, 71, 72
1, 41904, Note_on_c, 0, 68, 72
1, 41949, Note_on_c, 0, 71, 0
1, 41949, Note_on_c, 0, 68, 0
1, 41952, Note_on_c, 0, 71, 72
1, 41952, Note_on_c, 0, 68, 72
1, 41997, Note_on_c, 0, 71, 0
1, 41997, Note_on_c, 0, 68, 0
1, 42000, Note_on_c, 0, 71, 72
1, 42000, Note_on_c, 0, 68, 72
1, 42037, Note_on_c, 0, 76, 0
1, 42045, Note_on_c, 0, 71, 0
1, 42045, Note_on_c, 0, 68, 0
1, 42048, Note_on_c, 0, 69, 72
1, 42072, Note_on_c, 0, 85, 72
1, 42082, Note_on_c, 0, 85, 0
1, 42093, Note_on_c, 0, 69, 0
1, 42096, Note_on_c, 0, 86, 72
1, 42096, Note_on_c, 0, 64, 72
1, 42108, Note_on_c, 0, 86, 0
1, 42108, Note_on_c, 0, 85, 72
1, 42120, Note_on_c, 0, 85, 0
1, 42120, Note_on_c, 0, 86, 72
1, 42132, Note_on_c, 0, 86, 0
1, 42132, Note_on_c, 0, 83, 72
1, 42138, Note_on_c, 0, 83, 0
1, 42138, Note_on_c, 0, 85, 72
1, 42141, Note_on_c, 0, 64, 0
1, 42144, Note_on_c, 0, 85, 0
1, 42144, Note_on_c, 0, 86, 72
1, 42144, Note_on_c, 0, 71, 72
1, 42189, Note_on_c, 0, 86, 0
1, 42189, Note_on_c, 0, 71, 0
1, 42192, Note_on_c, 0, 64, 72
1, 42237, Note_on_c, 0, 64, 0
1, 42240, Note_on_c, 0, 68, 72
1, 42264, Note_on_c, 0, 83, 72
1, 42274, Note_on_c, 0, 83, 0
1, 42285, Note_on_c, 0, 68, 0
1, 42288, Note_on_c, 0, 85, 72
1, 42288, Note_on_c, 0, 64, 72
1, 42300, Note_on_c, 0, 85, 0
1, 42300, Note_on_c, 0, 83, 72
1, 42312, Note_on_c, 0, 83, 0
1, 42312, Note_on_c, 0, 85, 72
1, 42324, Note_on_c, 0, 85, 0
1, 42324, Note_on_c, 0, 81, 72
1, 42330, Note_on_c, 0, 81, 0
1, 42330, Note_on_c, 0, 83, 72
1, 42333, Note_on_c, 0, 64, 0
1, 42336, Note_on_c, 0, 83, 0
1, 42336, Note_on_c, 0, 85, 72
1, 42336, Note_on_c, 0, 69, 72
1, 42381, Note_on_c, 0, 85, 0
1, 42381, Note_on_c, 0, 69, 0
1, 42384, Note_on_c, 0, 64, 72
1, 42429, Note_on_c, 0, 64, 0
1, 42432, Note_on_c, 0, 69, 72
1, 42456, Note_on_c, 0, 85, 72
1, 42466, Note_on_c, 0, 85, 0
1, 42477, Note_on_c, 0, 69, 0
1, 42480, Note_on_c, 0, 86, 72
1, 42480, Note_on_c, 0, 64, 72
1, 42492, Note_on_c, 0, 86, 0
1, 42492, Note_on_c, 0, 85, 72
1, 42504, Note_on_c, 0, 85, 0
1, 42504, Note_on_c, 0, 86, 72
1, 42516, Note_on_c, 0, 86, 0
1, 42516, Note_on_c, 0, 83, 72
1, 42522, Note_on_c, 0, 83, 0
1, 42522, Note_on_c, 0, 85, 72
1, 42525, Note_on_c, 0, 64, 0
1, 42528, Note_on_c, 0, 85, 0
1, 42528, Note_on_c, 0, 86, 72
1, 42528, Note_on_c, 0, 71, 72
1, 42573, Note_on_c, 0, 86, 0
1, 42573, Note_on_c, 0, 71, 0
1, 42576, Note_on_c, 0, 64, 72
1, 42621, Note_on_c, 0, 64, 0
1, 42624, Note_on_c, 0, 68, 72
1, 42648, Note_on_c, 0, 83, 72
1, 42658, Note_on_c, 0, 83, 0
1, 42669, Note_on_c, 0, 68, 0
1, 42672, Note_on_c, 0, 85, 72
1, 42672, Note_on_c, 0, 64, 72
1, 42684, Note_on_c, 0, 85, 0
1, 42684, Note_on_c, 0, 83, 72
1, 42696, Note_on_c, 0, 83, 0
1, 42696, Note_on_c, 0, 85, 72
1, 42708, Note_on_c, 0, 85, 0
1, 42708, Note_on_c, 0, 81, 72
1, 42714, Note_on_c, 0, 81, 0
1, 42714, Note_on_c, 0, 83, 72
1, 42717, Note_on_c, 0, 64, 0
1, 42720, Note_on_c, 0, 83, 0
1, 42720, Note_on_c, 0, 85, 72
1, 42720, Note_on_c, 0, 69, 73
1, 42743, Note_on_c, 0, 85, 0
1, 42744, Note_on_c, 0, 81, 73
1, 42754, Note_on_c, 0, 81, 0
1, 42765, Note_on_c, 0, 69, 0
1, 42768, Note_on_c, 0, 83, 73
1, 42768, Note_on_c, 0, 66, 73
1, 42780, Note_on_c, 0, 83, 0
1, 42780, Note_on_c, 0, 81, 73
1, 42792, Note_on_c, 0, 81, 0
1, 42792, Note_on_c, 0, 83, 73
1, 42804, Note_on_c, 0, 83, 0
1, 42804, Note_on_c, 0, 80, 74
1, 42810, Note_on_c, 0, 80, 0
1, 42810, Note_on_c, 0, 81, 74
1, 42813, Note_on_c, 0, 66, 0
1, 42816, Note_on_c, 0, 81, 0
1, 42816, Note_on_c, 0, 83, 74
1, 42816, Note_on_c, 0, 68, 74
1, 42839, Note_on_c, 0, 83, 0
1, 42840, Note_on_c, 0, 80, 74
1, 42850, Note_on_c, 0, 80, 0
1, 42861, Note_on_c, 0, 68, 0
1, 42864, Note_on_c, 0, 81, 74
1, 42864, Note_on_c, 0, 65, 75
1, 42876, Note_on_c, 0, 81, 0
1, 42876, Note_on_c, 0, 80, 75
1, 42888, Note_on_c, 0, 80, 0
1, 42888, Note_on_c, 0, 81, 75
1, 42900, Note_on_c, 0, 81, 0
1, 42900, Note_on_c, 0, 78, 75
1, 42906, Note_on_c, 0, 78, 0
1, 42906, Note_on_c, 0, 80, 75
1, 42909, Note_on_c, 0, 65, 0
1, 42912, Note_on_c, 0, 80, 0
1, 42912, Note_on_c, 0, 81, 75
1, 42912, Note_on_c, 0, 66, 75
1, 42935, Note_on_c, 0, 81, 0
1, 42936, Note_on_c, 0, 78, 75
1, 42946, Note_on_c, 0, 78, 0
1, 42957, Note_on_c, 0, 66, 0
1, 42960, Note_on_c, 0, 80, 76
1, 42960, Note_on_c, 0, 60, 76
1, 42972, Note_on_c, 0, 80, 0
1, 42972, Note_on_c, 0, 78, 76
1, 42984, Note_on_c, 0, 78, 0
1, 42984, Note_on_c, 0, 80, 76
1, 42996, Note_on_c, 0, 80, 0
1, 42996, Note_on_c, 0, 77, 76
1, 43002, Note_on_c, 0, 77, 0
1, 43002, Note_on_c, 0, 78, 76
1, 43005, Note_on_c, 0, 60, 0
1, 43008, Note_on_c, 0, 78, 0
1, 43008, Note_on_c, 0, 77, 76
1, 43008, Note_on_c, 0, 61, 76
1, 43023, Note_on_c, 0, 77, 0
1, 43024, Note_on_c, 0, 78, 76
1, 43039, Note_on_c, 0, 78, 0
1, 43040, Note_on_c, 0, 80, 77
1, 43055, Note_on_c, 0, 80, 0
1, 43056, Note_on_c, 0, 73, 77
1, 43097, Note_on_c, 0, 61, 0
1, 43101, Note_on_c, 0, 73, 0
1, 43200, Note_on_c, 0, 80, 85
1, 43200, Note_on_c, 0, 61, 85
1, 43200, Note_on_c, 0, 49, 85
1, 43215, Note_on_c, 0, 80, 0
1, 43216, Note_on_c, 0, 85, 85
1, 43231, Note_on_c, 0, 85, 0
1, 43232, Note_on_c, 0, 80, 85
1, 43247, Note_on_c, 0, 80, 0
1, 43248, Note_on_c, 0, 77, 85
1, 43263, Note_on_c, 0, 77, 0
1, 43264, Note_on_c, 0, 80, 85
1, 43279, Note_on_c, 0, 80, 0
1, 43280, Note_on_c, 0, 77, 85
1, 43289, Note_on_c, 0, 61, 0
1, 43289, Note_on_c, 0, 49, 0
1, 43295, Note_on_c, 0, 77, 0
1, 43296, Note_on_c, 0, 73, 85
1, 43311, Note_on_c, 0, 73, 0
1, 43312, Note_on_c, 0, 77, 85
1, 43327, Note_on_c, 0, 77, 0
1, 43328, Note_on_c, 0, 73, 85
1, 43343, Note_on_c, 0, 73, 0
1, 43344, Note_on_c, 0, 68, 85
1, 43359, Note_on_c, 0, 68, 0
1, 43360, Note_on_c, 0, 73, 85
1, 43375, Note_on_c, 0, 73, 0
1, 43376, Note_on_c, 0, 68, 85
1, 43391, Note_on_c, 0, 68, 0
1, 43392, Note_on_c, 0, 61, 85
1, 43416, Note_on_c, 0, 73, 85
1, 43439, Note_on_c, 0, 73, 0
1, 43440, Note_on_c, 0, 83, 85
1, 43440, Note_on_c, 0, 68, 78
1, 43463, Note_on_c, 0, 83, 0
1, 43464, Note_on_c, 0, 73, 85
1, 43485, Note_on_c, 0, 68, 0
1, 43487, Note_on_c, 0, 73, 0
1, 43488, Note_on_c, 0, 81, 85
1, 43488, Note_on_c, 0, 66, 78
1, 43511, Note_on_c, 0, 81, 0
1, 43512, Note_on_c, 0, 73, 85
1, 43533, Note_on_c, 0, 66, 0
1, 43535, Note_on_c, 0, 73, 0
1, 43536, Note_on_c, 0, 80, 85
1, 43536, Note_on_c, 0, 65, 78
1, 43559, Note_on_c, 0, 80, 0
1, 43560, Note_on_c, 0, 73, 85
1, 43569, Note_on_c, 0, 61, 0
1, 43581, Note_on_c, 0, 65, 0
1, 43583, Note_on_c, 0, 73, 0
1, 43584, Note_on_c, 0, 81, 85
1, 43584, Note_on_c, 0, 66, 78
1, 43584, Note_on_c, 0, 61, 85
1, 43599, Note_on_c, 0, 81, 0
1, 43600, Note_on_c, 0, 85, 85
1, 43615, Note_on_c, 0, 85, 0
1, 43616, Note_on_c, 0, 81, 85
1, 43631, Note_on_c, 0, 81, 0
1, 43632, Note_on_c, 0, 78, 85
1, 43647, Note_on_c, 0, 78, 0
1, 43648, Note_on_c, 0, 81, 85
1, 43663, Note_on_c, 0, 81, 0
1, 43664, Note_on_c, 0, 78, 85
1, 43673, Note_on_c, 0, 66, 0
1, 43673, Note_on_c, 0, 61, 0
1, 43679, Note_on_c, 0, 78, 0
1, 43680, Note_on_c, 0, 73, 85
1, 43695, Note_on_c, 0, 73, 0
1, 43696, Note_on_c, 0, 78, 85
1, 43711, Note_on_c, 0, 78, 0
1, 43712, Note_on_c, 0, 73, 85
1, 43727, Note_on_c, 0, 73, 0
1, 43728, Note_on_c, 0, 69, 85
1, 43743, Note_on_c, 0, 69, 0
1, 43744, Note_on_c, 0, 73, 85
1, 43759, Note_on_c, 0, 73, 0
1, 43760, Note_on_c, 0, 69, 85
1, 43775, Note_on_c, 0, 69, 0
1, 43776, Note_on_c, 0, 61, 85
1, 43800, Note_on_c, 0, 73, 85
1, 43823, Note_on_c, 0, 73, 0
1, 43824, Note_on_c, 0, 85, 85
1, 43824, Note_on_c, 0, 69, 78
1, 43847, Note_on_c, 0, 85, 0
1, 43848, Note_on_c, 0, 73, 85
1, 43869, Note_on_c, 0, 69, 0
1, 43871, Note_on_c, 0, 73, 0
1, 43872, Note_on_c, 0, 83, 85
1, 43872, Note_on_c, 0, 68, 78
1, 43895, Note_on_c, 0, 83, 0
1, 43896, Note_on_c, 0, 73, 85
1, 43917, Note_on_c, 0, 68, 0
1, 43919, Note_on_c, 0, 73, 0
1, 43920, Note_on_c, 0, 81, 85
1, 43920, Note_on_c, 0, 66, 78
1, 43943, Note_on_c, 0, 81, 0
1, 43944, Note_on_c, 0, 73, 85
1, 43953, Note_on_c, 0, 61, 0
1, 43965, Note_on_c, 0, 66, 0
1, 43967, Note_on_c, 0, 73, 0
1, 43968, Note_on_c, 0, 73, 85
1, 43968, Note_on_c, 0, 54, 85
1, 43968, Note_on_c, 0, 42, 85
1, 43983, Note_on_c, 0, 73, 0
1, 43984, Note_on_c, 0, 78, 85
1, 43999, Note_on_c, 0, 78, 0
1, 44000, Note_on_c, 0, 73, 85
1, 44015, Note_on_c, 0, 73, 0
1, 44016, Note_on_c, 0, 70, 85
1, 44031, Note_on_c, 0, 70, 0
1, 44032, Note_on_c, 0, 73, 85
1, 44047, Note_on_c, 0, 73, 0
1, 44048, Note_on_c, 0, 70, 85
1, 44057, Note_on_c, 0, 54, 0
1, 44057, Note_on_c, 0, 42, 0
1, 44063, Note_on_c, 0, 70, 0
1, 44064, Note_on_c, 0, 66, 85
1, 44079, Note_on_c, 0, 66, 0
1, 44080, Note_on_c, 0, 70, 85
1, 44095, Note_on_c, 0, 70, 0
1, 44096, Note_on_c, 0, 66, 85
1, 44111, Note_on_c, 0, 66, 0
1, 44112, Note_on_c, 0, 61, 85
1, 44127, Note_on_c, 0, 61, 0
1, 44128, Note_on_c, 0, 66, 85
1, 44143, Note_on_c, 0, 66, 0
1, 44144, Note_on_c, 0, 61, 85
1, 44159, Note_on_c, 0, 61, 0
1, 44160, Note_on_c, 0, 54, 85
1, 44184, Note_on_c, 0, 66, 85
1, 44207, Note_on_c, 0, 66, 0
1, 44208, Note_on_c, 0, 76, 85
1, 44208, Note_on_c, 0, 61, 78
1, 44231, Note_on_c, 0, 76, 0
1, 44232, Note_on_c, 0, 66, 85
1, 44253, Note_on_c, 0, 61, 0
1, 44255, Note_on_c, 0, 66, 0
1, 44256, Note_on_c, 0, 74, 85
1, 44256, Note_on_c, 0, 59, 78
1, 44279, Note_on_c, 0, 74, 0
1, 44280, Note_on_c, 0, 66, 85
1, 44301, Note_on_c, 0, 59, 0
1, 44303, Note_on_c, 0, 66, 0
1, 44304, Note_on_c, 0, 73, 85
1, 44304, Note_on_c, 0, 58, 78
1, 44327, Note_on_c, 0, 73, 0
1, 44328, Note_on_c, 0, 66, 85
1, 44337, Note_on_c, 0, 54, 0
1, 44349, Note_on_c, 0, 58, 0
1, 44351, Note_on_c, 0, 66, 0
1, 44352, Note_on_c, 0, 74, 85
1, 44352, Note_on_c, 0, 59, 78
1, 44352, Note_on_c, 0, 54, 85
1, 44367, Note_on_c, 0, 74, 0
1, 44368, Note_on_c, 0, 78, 85
1, 44383, Note_on_c, 0, 78, 0
1, 44384, Note_on_c, 0, 74, 85
1, 44399, Note_on_c, 0, 74, 0
1, 44400, Note_on_c, 0, 71, 85
1, 44415, Note_on_c, 0, 71, 0
1, 44416, Note_on_c, 0, 74, 85
1, 44431, Note_on_c, 0, 74, 0
1, 44432, Note_on_c, 0, 71, 85
1, 44441, Note_on_c, 0, 59, 0
1, 44441, Note_on_c, 0, 54, 0
1, 44447, Note_on_c, 0, 71, 0
1, 44448, Note_on_c, 0, 66, 85
1, 44463, Note_on_c, 0, 66, 0
1, 44464, Note_on_c, 0, 71, 85
1, 44479, Note_on_c, 0, 71, 0
1, 44480, Note_on_c, 0, 66, 85
1, 44495, Note_on_c, 0, 66, 0
1, 44496, Note_on_c, 0, 62, 85
1, 44511, Note_on_c, 0, 62, 0
1, 44512, Note_on_c, 0, 66, 85
1, 44527, Note_on_c, 0, 66, 0
1, 44528, Note_on_c, 0, 62, 85
1, 44543, Note_on_c, 0, 62, 0
1, 44544, Note_on_c, 0, 54, 85
1, 44568, Note_on_c, 0, 66, 85
1, 44591, Note_on_c, 0, 66, 0
1, 44592, Note_on_c, 0, 78, 85
1, 44592, Note_on_c, 0, 62, 78
1, 44615, Note_on_c, 0, 78, 0
1, 44616, Note_on_c, 0, 66, 85
1, 44637, Note_on_c, 0, 62, 0
1, 44639, Note_on_c, 0, 66, 0
1, 44640, Note_on_c, 0, 76, 85
1, 44640, Note_on_c, 0, 61, 78
1, 44663, Note_on_c, 0, 76, 0
1, 44664, Note_on_c, 0, 66, 85
1, 44685, Note_on_c, 0, 61, 0
1, 44687, Note_on_c, 0, 66, 0
1, 44688, Note_on_c, 0, 74, 85
1, 44688, Note_on_c, 0, 59, 78
1, 44711, Note_on_c, 0, 74, 0
1, 44712, Note_on_c, 0, 66, 85
1, 44721, Note_on_c, 0, 54, 0
1, 44733, Note_on_c, 0, 59, 0
1, 44735, Note_on_c, 0, 66, 0
1, 44736, Note_on_c, 0, 78, 85
1, 44736, Note_on_c, 0, 47, 85
1, 44736, Note_on_c, 0, 35, 85
1, 44751, Note_on_c, 0, 78, 0
1, 44752, Note_on_c, 0, 83, 85
1, 44767, Note_on_c, 0, 83, 0
1, 44768, Note_on_c, 0, 78, 85
1, 44783, Note_on_c, 0, 78, 0
1, 44784, Note_on_c, 0, 75, 85
1, 44799, Note_on_c, 0, 75, 0
1, 44800, Note_on_c, 0, 78, 85
1, 44815, Note_on_c, 0, 78, 0
1, 44816, Note_on_c, 0, 75, 85
1, 44825, Note_on_c, 0, 47, 0
1, 44825, Note_on_c, 0, 35, 0
1, 44831, Note_on_c, 0, 75, 0
1, 44832, Note_on_c, 0, 71, 85
1, 44847, Note_on_c, 0, 71, 0
1, 44848, Note_on_c, 0, 75, 85
1, 44863, Note_on_c, 0, 75, 0
1, 44864, Note_on_c, 0, 71, 85
1, 44879, Note_on_c, 0, 71, 0
1, 44880, Note_on_c, 0, 66, 85
1, 44895, Note_on_c, 0, 66, 0
1, 44896, Note_on_c, 0, 71, 85
1, 44911, Note_on_c, 0, 71, 0
1, 44912, Note_on_c, 0, 66, 85
1, 44927, Note_on_c, 0, 66, 0
1, 44928, Note_on_c, 0, 59, 85
1, 44952, Note_on_c, 0, 71, 85
1, 44975, Note_on_c, 0, 71, 0
1, 44976, Note_on_c, 0, 81, 85
1, 44976, Note_on_c, 0, 66, 78
1, 44999, Note_on_c, 0, 81, 0
1, 45000, Note_on_c, 0, 71, 85
1, 45021, Note_on_c, 0, 66, 0
1, 45023, Note_on_c, 0, 71, 0
1, 45024, Note_on_c, 0, 80, 85
1, 45024, Note_on_c, 0, 64, 78
1, 45047, Note_on_c, 0, 80, 0
1, 45048, Note_on_c, 0, 71, 85
1, 45069, Note_on_c, 0, 64, 0
1, 45071, Note_on_c, 0, 71, 0
1, 45072, Note_on_c, 0, 78, 85
1, 45072, Note_on_c, 0, 63, 78
1, 45095, Note_on_c, 0, 78, 0
1, 45096, Note_on_c, 0, 71, 85
1, 45105, Note_on_c, 0, 59, 0
1, 45117, Note_on_c, 0, 63, 0
1, 45119, Note_on_c, 0, 71, 0
1, 45120, Note_on_c, 0, 80, 85
1, 45120, Note_on_c, 0, 64, 78
1, 45120, Note_on_c, 0, 59, 85
1, 45135, Note_on_c, 0, 80, 0
1, 45136, Note_on_c, 0, 83, 85
1, 45151, Note_on_c, 0, 83, 0
1, 45152, Note_on_c, 0, 80, 85
1, 45167, Note_on_c, 0, 80, 0
1, 45168, Note_on_c, 0, 76, 85
1, 45183, Note_on_c, 0, 76, 0
1, 45184, Note_on_c, 0, 80, 85
1, 45199, Note_on_c, 0, 80, 0
1, 45200, Note_on_c, 0, 76, 85
1, 45209, Note_on_c, 0, 64, 0
1, 45209, Note_on_c, 0, 59, 0
1, 45215, Note_on_c, 0, 76, 0
1, 45216, Note_on_c, 0, 71, 85
1, 45231, Note_on_c, 0, 71, 0
1, 45232, Note_on_c, 0, 76, 85
1, 45247, Note_on_c, 0, 76, 0
1, 45248, Note_on_c, 0, 71, 85
1, 45263, Note_on_c, 0, 71, 0
1, 45264, Note_on_c, 0, 68, 85
1, 45279, Note_on_c, 0, 68, 0
1, 45280, Note_on_c, 0, 71, 85
1, 45295, Note_on_c, 0, 71, 0
1, 45296, Note_on_c, 0, 68, 85
1, 45311, Note_on_c, 0, 68, 0
1, 45312, Note_on_c, 0, 59, 85
1, 45336, Note_on_c, 0, 71, 85
1, 45359, Note_on_c, 0, 71, 0
1, 45360, Note_on_c, 0, 83, 85
1, 45360, Note_on_c, 0, 68, 78
1, 45383, Note_on_c, 0, 83, 0
1, 45384, Note_on_c, 0, 71, 85
1, 45405, Note_on_c, 0, 68, 0
1, 45407, Note_on_c, 0, 71, 0
1, 45408, Note_on_c, 0, 81, 85
1, 45408, Note_on_c, 0, 66, 78
1, 45431, Note_on_c, 0, 81, 0
1, 45432, Note_on_c, 0, 71, 85
1, 45453, Note_on_c, 0, 66, 0
1, 45455, Note_on_c, 0, 71, 0
1, 45456, Note_on_c, 0, 80, 85
1, 45456, Note_on_c, 0, 64, 78
1, 45479, Note_on_c, 0, 80, 0
1, 45480, Note_on_c, 0, 71, 85
1, 45489, Note_on_c, 0, 59, 0
1, 45501, Note_on_c, 0, 64, 0
1, 45503, Note_on_c, 0, 71, 0
1, 45504, Note_on_c, 0, 71, 85
1, 45504, Note_on_c, 0, 52, 85
1, 45504, Note_on_c, 0, 40, 85
1, 45519, Note_on_c, 0, 71, 0
1, 45520, Note_on_c, 0, 76, 85
1, 45535, Note_on_c, 0, 76, 0
1, 45536, Note_on_c, 0, 71, 85
1, 45551, Note_on_c, 0, 71, 0
1, 45552, Note_on_c, 0, 68, 85
1, 45567, Note_on_c, 0, 68, 0
1, 45568, Note_on_c, 0, 71, 85
1, 45583, Note_on_c, 0, 71, 0
1, 45584, Note_on_c, 0, 68, 85
1, 45593, Note_on_c, 0, 52, 0
1, 45593, Note_on_c, 0, 40, 0
1, 45599, Note_on_c, 0, 68, 0
1, 45600, Note_on_c, 0, 64, 85
1, 45615, Note_on_c, 0, 64, 0
1, 45616, Note_on_c, 0, 68, 85
1, 45631, Note_on_c, 0, 68, 0
1, 45632, Note_on_c, 0, 64, 85
1, 45647, Note_on_c, 0, 64, 0
1, 45648, Note_on_c, 0, 59, 85
1, 45663, Note_on_c, 0, 59, 0
1, 45664, Note_on_c, 0, 64, 85
1, 45679, Note_on_c, 0, 64, 0
1, 45680, Note_on_c, 0, 59, 85
1, 45695, Note_on_c, 0, 59, 0
1, 45696, Note_on_c, 0, 52, 85
1, 45720, Note_on_c, 0, 64, 85
1, 45743, Note_on_c, 0, 64, 0
1, 45744, Note_on_c, 0, 74, 85
1, 45744, Note_on_c, 0, 59, 78
1, 45767, Note_on_c, 0, 74, 0
1, 45768, Note_on_c, 0, 64, 85
1, 45789, Note_on_c, 0, 59, 0
1, 45791, Note_on_c, 0, 64, 0
1, 45792, Note_on_c, 0, 73, 85
1, 45792, Note_on_c, 0, 57, 78
1, 45815, Note_on_c, 0, 73, 0
1, 45816, Note_on_c, 0, 64, 85
1, 45837, Note_on_c, 0, 57, 0
1, 45839, Note_on_c, 0, 64, 0
1, 45840, Note_on_c, 0, 71, 85
1, 45840, Note_on_c, 0, 56, 78
1, 45863, Note_on_c, 0, 71, 0
1, 45864, Note_on_c, 0, 64, 85
1, 45873, Note_on_c, 0, 52, 0
1, 45885, Note_on_c, 0, 56, 0
1, 45887, Note_on_c, 0, 64, 0
1, 45888, Note_on_c, 0, 73, 85
1, 45888, Note_on_c, 0, 57, 78
1, 45888, Note_on_c, 0, 52, 85
1, 45903, Note_on_c, 0, 73, 0
1, 45904, Note_on_c, 0, 76, 85
1, 45919, Note_on_c, 0, 76, 0
1, 45920, Note_on_c, 0, 73, 85
1, 45935, Note_on_c, 0, 73, 0
1, 45936, Note_on_c, 0, 69, 85
1, 45951, Note_on_c, 0, 69, 0
1, 45952, Note_on_c, 0, 73, 85
1, 45967, Note_on_c, 0, 73, 0
1, 45968, Note_on_c, 0, 69, 85
1, 45977, Note_on_c, 0, 57, 0
1, 45977, Note_on_c, 0, 52, 0
1, 45983, Note_on_c, 0, 69, 0
1, 45984, Note_on_c, 0, 64, 85
1, 45999, Note_on_c, 0, 64, 0
1, 46000, Note_on_c, 0, 69, 85
1, 46015, Note_on_c, 0, 69, 0
1, 46016, Note_on_c, 0, 64, 85
1, 46031, Note_on_c, 0, 64, 0
1, 46032, Note_on_c, 0, 61, 85
1, 46047, Note_on_c, 0, 61, 0
1, 46048, Note_on_c, 0, 64, 85
1, 46063, Note_on_c, 0, 64, 0
1, 46064, Note_on_c, 0, 61, 85
1, 46079, Note_on_c, 0, 61, 0
1, 46080, Note_on_c, 0, 52, 85
1, 46104, Note_on_c, 0, 64, 85
1, 46127, Note_on_c, 0, 64, 0
1, 46128, Note_on_c, 0, 76, 85
1, 46128, Note_on_c, 0, 61, 78
1, 46151, Note_on_c, 0, 76, 0
1, 46152, Note_on_c, 0, 64, 85
1, 46173, Note_on_c, 0, 61, 0
1, 46175, Note_on_c, 0, 64, 0
1, 46176, Note_on_c, 0, 74, 85
1, 46176, Note_on_c, 0, 59, 78
1, 46199, Note_on_c, 0, 74, 0
1, 46200, Note_on_c, 0, 64, 85
1, 46221, Note_on_c, 0, 59, 0
1, 46223, Note_on_c, 0, 64, 0
1, 46224, Note_on_c, 0, 73, 85
1, 46224, Note_on_c, 0, 57, 78
1, 46247, Note_on_c, 0, 73, 0
1, 46248, Note_on_c, 0, 64, 85
1, 46257, Note_on_c, 0, 52, 0
1, 46269, Note_on_c, 0, 57, 0
1, 46271, Note_on_c, 0, 64, 0
1, 46272, Note_on_c, 0, 62, 72
1, 46295, Note_on_c, 0, 62, 0
1, 46296, Note_on_c, 0, 69, 72
1, 46319, Note_on_c, 0, 69, 0
1, 46320, Note_on_c, 0, 78, 78
1, 46320, Note_on_c, 0, 66, 72
1, 46330, Note_on_c, 0, 78, 0
1, 46330, Note_on_c, 0, 80, 78
1, 46340, Note_on_c, 0, 80, 0
1, 46340, Note_on_c, 0, 78, 78
1, 46343, Note_on_c, 0, 66, 0
1, 46344, Note_on_c, 0, 69, 72
1, 46350, Note_on_c, 0, 78, 0
1, 46350, Note_on_c, 0, 76, 78
1, 46359, Note_on_c, 0, 76, 0
1, 46359, Note_on_c, 0, 78, 78
1, 46367, Note_on_c, 0, 69, 0
1, 46368, Note_on_c, 0, 78, 0
1, 46368, Note_on_c, 0, 76, 78
1, 46368, Note_on_c, 0, 61, 72
1, 46391, Note_on_c, 0, 61, 0
1, 46392, Note_on_c, 0, 69, 72
1, 46413, Note_on_c, 0, 76, 0
1, 46415, Note_on_c, 0, 69, 0
1, 46416, Note_on_c, 0, 81, 78
1, 46416, Note_on_c, 0, 64, 72
1, 46439, Note_on_c, 0, 64, 0
1, 46440, Note_on_c, 0, 69, 72
1, 46461, Note_on_c, 0, 81, 0
1, 46463, Note_on_c, 0, 69, 0
1, 46464, Note_on_c, 0, 59, 72
1, 46487, Note_on_c, 0, 59, 0
1, 46488, Note_on_c, 0, 68, 72
1, 46511, Note_on_c, 0, 68, 0
1, 46512, Note_on_c, 0, 86, 78
1, 46512, Note_on_c, 0, 62, 72
1, 46522, Note_on_c, 0, 86, 0
1, 46522, Note_on_c, 0, 88, 78
1, 46532, Note_on_c, 0, 88, 0
1, 46532, Note_on_c, 0, 86, 78
1, 46535, Note_on_c, 0, 62, 0
1, 46536, Note_on_c, 0, 68, 72
1, 46542, Note_on_c, 0, 86, 0
1, 46542, Note_on_c, 0, 85, 78
1, 46551, Note_on_c, 0, 85, 0
1, 46551, Note_on_c, 0, 86, 78
1, 46559, Note_on_c, 0, 68, 0
1, 46560, Note_on_c, 0, 86, 0
1, 46560, Note_on_c, 0, 85, 78
1, 46560, Note_on_c, 0, 57, 72
1, 46583, Note_on_c, 0, 57, 0
1, 46584, Note_on_c, 0, 64, 72
1, 46605, Note_on_c, 0, 85, 0
1, 46607, Note_on_c, 0, 64, 0
1, 46608, Note_on_c, 0, 81, 78
1, 46608, Note_on_c, 0, 61, 72
1, 46631, Note_on_c, 0, 61, 0
1, 46632, Note_on_c, 0, 64, 72
1, 46653, Note_on_c, 0, 81, 0
1, 46655, Note_on_c, 0, 64, 0
1, 46656, Note_on_c, 0, 62, 72
1, 46679, Note_on_c, 0, 62, 0
1, 46680, Note_on_c, 0, 69, 72
1, 46703, Note_on_c, 0, 69, 0
1, 46704, Note_on_c, 0, 78, 78
1, 46704, Note_on_c, 0, 66, 72
1, 46714, Note_on_c, 0, 78, 0
1, 46714, Note_on_c, 0, 80, 78
1, 46724, Note_on_c, 0, 80, 0
1, 46724, Note_on_c, 0, 78, 78
1, 46727, Note_on_c, 0, 66, 0
1, 46728, Note_on_c, 0, 69, 72
1, 46734, Note_on_c, 0, 78, 0
1, 46734, Note_on_c, 0, 76, 78
1, 46743, Note_on_c, 0, 76, 0
1, 46743, Note_on_c, 0, 78, 78
1, 46751, Note_on_c, 0, 69, 0
1, 46752, Note_on_c, 0, 78, 0
1, 46752, Note_on_c, 0, 76, 78
1, 46752, Note_on_c, 0, 61, 72
1, 46775, Note_on_c, 0, 61, 0
1, 46776, Note_on_c, 0, 69, 72
1, 46797, Note_on_c, 0, 76, 0
1, 46799, Note_on_c, 0, 69, 0
1, 46800, Note_on_c, 0, 81, 78
1, 46800, Note_on_c, 0, 64, 72
1, 46823, Note_on_c, 0, 64, 0
1, 46824, Note_on_c, 0, 69, 72
1, 46845, Note_on_c, 0, 81, 0
1, 46847, Note_on_c, 0, 69, 0
1, 46848, Note_on_c, 0, 59, 72
1, 46871, Note_on_c, 0, 59, 0
1, 46872, Note_on_c, 0, 68, 72
1, 46895, Note_on_c, 0, 68, 0
1, 46896, Note_on_c, 0, 86, 78
1, 46896, Note_on_c, 0, 62, 72
1, 46906, Note_on_c, 0, 86, 0
1, 46906, Note_on_c, 0, 88, 78
1, 46916, Note_on_c, 0, 88, 0
1, 46916, Note_on_c, 0, 86, 78
1, 46919, Note_on_c, 0, 62, 0
1, 46920, Note_on_c, 0, 68, 72
1, 46926, Note_on_c, 0, 86, 0
1, 46926, Note_on_c, 0, 85, 78
1, 46935, Note_on_c, 0, 85, 0
1, 46935, Note_on_c, 0, 86, 78
1, 46943, Note_on_c, 0, 68, 0
1, 46944, Note_on_c, 0, 86, 0
1, 46944, Note_on_c, 0, 85, 78
1, 46944, Note_on_c, 0, 57, 72
1, 46967, Note_on_c, 0, 57, 0
1, 46968, Note_on_c, 0, 64, 72
1, 46989, Note_on_c, 0, 85, 0
1, 46991, Note_on_c, 0, 64, 0
1, 46992, Note_on_c, 0, 81, 78
1, 46992, Note_on_c, 0, 61, 72
1, 47015, Note_on_c, 0, 61, 0
1, 47016, Note_on_c, 0, 64, 72
1, 47037, Note_on_c, 0, 81, 0
1, 47039, Note_on_c, 0, 64, 0
1, 47040, Note_on_c, 0, 52, 60
1, 47063, Note_on_c, 0, 52, 0
1, 47064, Note_on_c, 0, 64, 60
1, 47087, Note_on_c, 0, 64, 0
1, 47088, Note_on_c, 0, 76, 66
1, 47088, Note_on_c, 0, 56, 61
1, 47111, Note_on_c, 0, 56, 0
1, 47112, Note_on_c, 0, 64, 61
1, 47133, Note_on_c, 0, 76, 0
1, 47135, Note_on_c, 0, 64, 0
1, 47136, Note_on_c, 0, 76, 67
1, 47136, Note_on_c, 0, 52, 62
1, 47159, Note_on_c, 0, 52, 0
1, 47160, Note_on_c, 0, 64, 62
1, 47181, Note_on_c, 0, 76, 0
1, 47183, Note_on_c, 0, 64, 0
1, 47184, Note_on_c, 0, 76, 68
1, 47184, Note_on_c, 0, 56, 63
1, 47207, Note_on_c, 0, 56, 0
1, 47208, Note_on_c, 0, 64, 63
1, 47229, Note_on_c, 0, 76, 0
1, 47231, Note_on_c, 0, 64, 0
1, 47232, Note_on_c, 0, 52, 64
1, 47255, Note_on_c, 0, 52, 0
1, 47256, Note_on_c, 0, 64, 65
1, 47279, Note_on_c, 0, 64, 0
1, 47280, Note_on_c, 0, 78, 71
1, 47280, Note_on_c, 0, 76, 71
1, 47280, Note_on_c, 0, 57, 65
1, 47303, Note_on_c, 0, 57, 0
1, 47304, Note_on_c, 0, 64, 66
1, 47325, Note_on_c, 0, 78, 0
1, 47325, Note_on_c, 0, 76, 0
1, 47327, Note_on_c, 0, 64, 0
1, 47328, Note_on_c, 0, 78, 72
1, 47328, Note_on_c, 0, 76, 72
1, 47328, Note_on_c, 0, 52, 66
1, 47351, Note_on_c, 0, 52, 0
1, 47352, Note_on_c, 0, 64, 67
1, 47373, Note_on_c, 0, 78, 0
1, 47373, Note_on_c, 0, 76, 0
1, 47375, Note_on_c, 0, 64, 0
1, 47376, Note_on_c, 0, 78, 73
1, 47376, Note_on_c, 0, 76, 73
1, 47376, Note_on_c, 0, 57, 67
1, 47399, Note_on_c, 0, 57, 0
1, 47400, Note_on_c, 0, 64, 68
1, 47421, Note_on_c, 0, 78, 0
1, 47421, Note_on_c, 0, 76, 0
1, 47423, Note_on_c, 0, 64, 0
1, 47424, Note_on_c, 0, 52, 69
1, 47447, Note_on_c, 0, 52, 0
1, 47448, Note_on_c, 0, 64, 69
1, 47471, Note_on_c, 0, 64, 0
1, 47472, Note_on_c, 0, 78, 76
1, 47472, Note_on_c, 0, 74, 76
1, 47472, Note_on_c, 0, 59, 70
1, 47495, Note_on_c, 0, 59, 0
1, 47496, Note_on_c, 0, 64, 70
1, 47517, Note_on_c, 0, 78, 0
1, 47517, Note_on_c, 0, 74, 0
1, 47519, Note_on_c, 0, 64, 0
1, 47520, Note_on_c, 0, 78, 77
1, 47520, Note_on_c, 0, 74, 77
1, 47520, Note_on_c, 0, 52, 71
1, 47543, Note_on_c, 0, 52, 0
1, 47544, Note_on_c, 0, 64, 71
1, 47565, Note_on_c, 0, 78, 0
1, 47565, Note_on_c, 0, 74, 0
1, 47567, Note_on_c, 0, 64, 0
1, 47568, Note_on_c, 0, 78, 78
1, 47568, Note_on_c, 0, 74, 78
1, 47568, Note_on_c, 0, 59, 72
1, 47591, Note_on_c, 0, 59, 0
1, 47592, Note_on_c, 0, 64, 72
1, 47613, Note_on_c, 0, 78, 0
1, 47613, Note_on_c, 0, 74, 0
1, 47615, Note_on_c, 0, 64, 0
1, 47616, Note_on_c, 0, 52, 73
1, 47639, Note_on_c, 0, 52, 0
1, 47640, Note_on_c, 0, 64, 74
1, 47663, Note_on_c, 0, 64, 0
1, 47664, Note_on_c, 0, 80, 81
1, 47664, Note_on_c, 0, 74, 81
1, 47664, Note_on_c, 0, 59, 74
1, 47687, Note_on_c, 0, 59, 0
1, 47688, Note_on_c, 0, 64, 75
1, 47709, Note_on_c, 0, 80, 0
1, 47709, Note_on_c, 0, 74, 0
1, 47711, Note_on_c, 0, 64, 0
1, 47712, Note_on_c, 0, 80, 82
1, 47712, Note_on_c, 0, 74, 82
1, 47712, Note_on_c, 0, 52, 75
1, 47735, Note_on_c, 0, 52, 0
1, 47736, Note_on_c, 0, 64, 76
1, 47757, Note_on_c, 0, 80, 0
1, 47757, Note_on_c, 0, 74, 0
1, 47759, Note_on_c, 0, 64, 0
1, 47760, Note_on_c, 0, 80, 83
1, 47760, Note_on_c, 0, 74, 83
1, 47760, Note_on_c, 0, 59, 76
1, 47783, Note_on_c, 0, 59, 0
1, 47784, Note_on_c, 0, 64, 77
1, 47805, Note_on_c, 0, 80, 0
1, 47805, Note_on_c, 0, 74, 0
1, 47807, Note_on_c, 0, 64, 0
1, 47808, Note_on_c, 0, 73, 85
1, 47808, Note_on_c, 0, 57, 78
1, 47816, Note_on_c, 0, 76, 85
1, 47824, Note_on_c, 0, 81, 85
1, 47831, Note_on_c, 0, 57, 0
1, 47832, Note_on_c, 0, 64, 78
1, 47855, Note_on_c, 0, 64, 0
1, 47856, Note_on_c, 0, 61, 78
1, 47879, Note_on_c, 0, 61, 0
1, 47880, Note_on_c, 0, 64, 78
1, 47901, Note_on_c, 0, 81, 0
1, 47901, Note_on_c, 0, 76, 0
1, 47901, Note_on_c, 0, 73, 0
1, 47903, Note_on_c, 0, 64, 0
1, 47904, Note_on_c, 0, 76, 85
1, 47904, Note_on_c, 0, 56, 78
1, 47910, Note_on_c, 0, 80, 85
1, 47916, Note_on_c, 0, 83, 85
1, 47922, Note_on_c, 0, 86, 85
1, 47927, Note_on_c, 0, 56, 0
1, 47928, Note_on_c, 0, 64, 78
1, 47951, Note_on_c, 0, 64, 0
1, 47952, Note_on_c, 0, 59, 78
1, 47975, Note_on_c, 0, 59, 0
1, 47976, Note_on_c, 0, 64, 78
1, 47997, Note_on_c, 0, 86, 0
1, 47997, Note_on_c, 0, 83, 0
1, 47997, Note_on_c, 0, 80, 0
1, 47997, Note_on_c, 0, 76, 0
1, 47999, Note_on_c, 0, 64, 0
1, 48000, Note_on_c, 0, 76, 85
1, 48000, Note_on_c, 0, 57, 78
1, 48008, Note_on_c, 0, 81, 85
1, 48016, Note_on_c, 0, 85, 85
1, 48023, Note_on_c, 0, 57, 0
1, 48024, Note_on_c, 0, 64, 78
1, 48047, Note_on_c, 0, 64, 0
1, 48048, Note_on_c, 0, 61, 78
1, 48071, Note_on_c, 0, 61, 0
1, 48072, Note_on_c, 0, 64, 78
1, 48093, Note_on_c, 0, 85, 0
1, 48093, Note_on_c, 0, 81, 0
1, 48093, Note_on_c, 0, 76, 0
1, 48095, Note_on_c, 0, 64, 0
1, 48096, Note_on_c, 0, 74, 85
1, 48096, Note_on_c, 0, 59, 78
1, 48104, Note_on_c, 0, 80, 85
1, 48112, Note_on_c, 0, 83, 85
1, 48119, Note_on_c, 0, 59, 0
1, 48120, Note_on_c, 0, 64, 78
1, 48143, Note_on_c, 0, 64, 0
1, 48144, Note_on_c, 0, 62, 78
1, 48167, Note_on_c, 0, 62, 0
1, 48168, Note_on_c, 0, 64, 78
1, 48189, Note_on_c, 0, 83, 0
1, 48189, Note_on_c, 0, 80, 0
1, 48189, Note_on_c, 0, 74, 0
1, 48191, Note_on_c, 0, 64, 0
1, 48192, Note_on_c, 0, 73, 85
1, 48192, Note_on_c, 0, 57, 78
1, 48200, Note_on_c, 0, 76, 85
1, 48208, Note_on_c, 0, 81, 85
1, 48215, Note_on_c, 0, 57, 0
1, 48216, Note_on_c, 0, 64, 78
1, 48239, Note_on_c, 0, 64, 0
1, 48240, Note_on_c, 0, 61, 78
1, 48263, Note_on_c, 0, 61, 0
1, 48264, Note_on_c, 0, 64, 78
1, 48285, Note_on_c, 0, 81, 0
1, 48285, Note_on_c, 0, 76, 0
1, 48285, Note_on_c, 0, 73, 0
1, 48287, Note_on_c, 0, 64, 0
1, 48288, Note_on_c, 0, 76, 85
1, 48288, Note_on_c, 0, 56, 78
1, 48294, Note_on_c, 0, 80, 85
1, 48300, Note_on_c, 0, 83, 85
1, 48306, Note_on_c, 0, 86, 85
1, 48311, Note_on_c, 0, 56, 0
1, 48312, Note_on_c, 0, 64, 78
1, 48335, Note_on_c, 0, 64, 0
1, 48336, Note_on_c, 0, 59, 78
1, 48359, Note_on_c, 0, 59, 0
1, 48360, Note_on_c, 0, 64, 78
1, 48381, Note_on_c, 0, 86, 0
1, 48381, Note_on_c, 0, 83, 0
1, 48381, Note_on_c, 0, 80, 0
1, 48381, Note_on_c, 0, 76, 0
1, 48383, Note_on_c, 0, 64, 0
1, 48384, Note_on_c, 0, 76, 85
1, 48384, Note_on_c, 0, 57, 78
1, 48392, Note_on_c, 0, 81, 85
1, 48400, Note_on_c, 0, 85, 85
1, 48407, Note_on_c, 0, 57, 0
1, 48408, Note_on_c, 0, 64, 78
1, 48431, Note_on_c, 0, 64, 0
1, 48432, Note_on_c, 0, 61, 78
1, 48455, Note_on_c, 0, 61, 0
1, 48456, Note_on_c, 0, 64, 78
1, 48477, Note_on_c, 0, 85, 0
1, 48477, Note_on_c, 0, 81, 0
1, 48477, Note_on_c, 0, 76, 0
1, 48479, Note_on_c, 0, 64, 0
1, 48480, Note_on_c, 0, 74, 85
1, 48480, Note_on_c, 0, 59, 78
1, 48488, Note_on_c, 0, 80, 85
1, 48496, Note_on_c, 0, 83, 85
1, 48503, Note_on_c, 0, 59, 0
1, 48504, Note_on_c, 0, 64, 78
1, 48527, Note_on_c, 0, 64, 0
1, 48528, Note_on_c, 0, 62, 78
1, 48551, Note_on_c, 0, 62, 0
1, 48552, Note_on_c, 0, 64, 78
1, 48573, Note_on_c, 0, 83, 0
1, 48573, Note_on_c, 0, 80, 0
1, 48573, Note_on_c, 0, 74, 0
1, 48575, Note_on_c, 0, 64, 0
1, 48576, Note_on_c, 0, 81, 85
1, 48576, Note_on_c, 0, 61, 78
1, 48599, Note_on_c, 0, 81, 0
1, 48600, Note_on_c, 0, 85, 85
1, 48623, Note_on_c, 0, 85, 0
1, 48624, Note_on_c, 0, 76, 85
1, 48647, Note_on_c, 0, 76, 0
1, 48648, Note_on_c, 0, 81, 85
1, 48665, Note_on_c, 0, 61, 0
1, 48671, Note_on_c, 0, 81, 0
1, 48672, Note_on_c, 0, 73, 85
1, 48695, Note_on_c, 0, 73, 0
1, 48696, Note_on_c, 0, 76, 85
1, 48719, Note_on_c, 0, 76, 0
1, 48720, Note_on_c, 0, 69, 85
1, 48743, Note_on_c, 0, 69, 0
1, 48744, Note_on_c, 0, 73, 85
1, 48767, Note_on_c, 0, 73, 0
1, 48768, Note_on_c, 0, 78, 85
1, 48768, Note_on_c, 0, 62, 78
1, 48791, Note_on_c, 0, 78, 0
1, 48792, Note_on_c, 0, 81, 85
1, 48815, Note_on_c, 0, 81, 0
1, 48816, Note_on_c, 0, 74, 85
1, 48839, Note_on_c, 0, 74, 0
1, 48840, Note_on_c, 0, 78, 85
1, 48857, Note_on_c, 0, 62, 0
1, 48863, Note_on_c, 0, 78, 0
1, 48864, Note_on_c, 0, 71, 85
1, 48887, Note_on_c, 0, 71, 0
1, 48888, Note_on_c, 0, 74, 85
1, 48911, Note_on_c, 0, 74, 0
1, 48912, Note_on_c, 0, 66, 85
1, 48935, Note_on_c, 0, 66, 0
1, 48936, Note_on_c, 0, 71, 85
1, 48959, Note_on_c, 0, 71, 0
1, 48960, Note_on_c, 0, 69, 85
1, 48960, Note_on_c, 0, 61, 78
1, 48960, Note_on_c, 0, 52, 78
1, 49005, Note_on_c, 0, 61, 0
1, 49005, Note_on_c, 0, 52, 0
1, 49008, Note_on_c, 0, 61, 78
1, 49008, Note_on_c, 0, 52, 78
1, 49049, Note_on_c, 0, 69, 0
1, 49053, Note_on_c, 0, 61, 0
1, 49053, Note_on_c, 0, 52, 0
1, 49056, Note_on_c, 0, 68, 85
1, 49056, Note_on_c, 0, 59, 78
1, 49056, Note_on_c, 0, 52, 78
1, 49067, Note_on_c, 0, 68, 0
1, 49067, Note_on_c, 0, 69, 85
1, 49078, Note_on_c, 0, 69, 0
1, 49078, Note_on_c, 0, 68, 85
1, 49089, Note_on_c, 0, 68, 0
1, 49089, Note_on_c, 0, 69, 85
1, 49100, Note_on_c, 0, 69, 0
1, 49100, Note_on_c, 0, 68, 85
1, 49101, Note_on_c, 0, 59, 0
1, 49101, Note_on_c, 0, 52, 0
1, 49104, Note_on_c, 0, 59, 78
1, 49104, Note_on_c, 0, 52, 78
1, 49111, Note_on_c, 0, 68, 0
1, 49111, Note_on_c, 0, 69, 85
1, 49122, Note_on_c, 0, 69, 0
1, 49122, Note_on_c, 0, 68, 85
1, 49132, Note_on_c, 0, 68, 0
1, 49132, Note_on_c, 0, 66, 85
1, 49142, Note_on_c, 0, 66, 0
1, 49142, Note_on_c, 0, 68, 85
1, 49149, Note_on_c, 0, 59, 0
1, 49149, Note_on_c, 0, 52, 0
1, 49152, Note_on_c, 0, 68, 0
1, 49152, Note_on_c, 0, 69, 85
1, 49152, Note_on_c, 0, 57, 78
1, 49152, Note_on_c, 0, 45, 78
1, 49241, Note_on_c, 0, 69, 0
1, 49241, Note_on_c, 0, 57, 0
1, 49241, Note_on_c, 0, 45, 0
1, 49344, Note_on_c, 0, 72, 66
1, 49352, Note_on_c, 0, 76, 66
1, 49360, Note_on_c, 0, 81, 66
1, 49392, Note_on_c, 0, 57, 66
1, 49392, Note_on_c, 0, 45, 66
1, 49437, Note_on_c, 0, 81, 0
1, 49437, Note_on_c, 0, 76, 0
1, 49437, Note_on_c, 0, 72, 0
1, 49437, Note_on_c, 0, 57, 0
1, 49437, Note_on_c, 0, 45, 0
1, 49440, Note_on_c, 0, 60, 66
1, 49440, Note_on_c, 0, 48, 66
1, 49485, Note_on_c, 0, 60, 0
1, 49485, Note_on_c, 0, 48, 0
1, 49488, Note_on_c, 0, 81, 66
1, 49488, Note_on_c, 0, 72, 66
1, 49488, Note_on_c, 0, 57, 66
1, 49488, Note_on_c, 0, 45, 66
1, 49533, Note_on_c, 0, 81, 0
1, 49533, Note_on_c, 0, 72, 0
1, 49533, Note_on_c, 0, 57, 0
1, 49533, Note_on_c, 0, 45, 0
1, 49536, Note_on_c, 0, 81, 66
1, 49536, Note_on_c, 0, 72, 66
1, 49560, Note_on_c, 0, 81, 0
1, 49560, Note_on_c, 0, 72, 0
1, 49560, Note_on_c, 0, 80, 66
1, 49560, Note_on_c, 0, 71, 66
1, 49583, Note_on_c, 0, 80, 0
1, 49583, Note_on_c, 0, 71, 0
1, 49584, Note_on_c, 0, 80, 66
1, 49584, Note_on_c, 0, 71, 66
1, 49584, Note_on_c, 0, 52, 66
1, 49584, Note_on_c, 0, 40, 66
1, 49629, Note_on_c, 0, 80, 0
1, 49629, Note_on_c, 0, 71, 0
1, 49629, Note_on_c, 0, 52, 0
1, 49629, Note_on_c, 0, 40, 0
1, 49632, Note_on_c, 0, 56, 66
1, 49632, Note_on_c, 0, 44, 66
1, 49677, Note_on_c, 0, 56, 0
1, 49677, Note_on_c, 0, 44, 0
1, 49680, Note_on_c, 0, 52, 66
1, 49680, Note_on_c, 0, 40, 66
1, 49725, Note_on_c, 0, 52, 0
1, 49725, Note_on_c, 0, 40, 0
1, 49728, Note_on_c, 0, 64, 66
1, 49734, Note_on_c, 0, 68, 66
1, 49740, Note_on_c, 0, 71, 66
1, 49746, Note_on_c, 0, 74, 66
1, 49776, Note_on_c, 0, 52, 66
1, 49776, Note_on_c, 0, 40, 66
1, 49821, Note_on_c, 0, 74, 0
1, 49821, Note_on_c, 0, 71, 0
1, 49821, Note_on_c, 0, 68, 0
1, 49821, Note_on_c, 0, 64, 0
1, 49821, Note_on_c, 0, 52, 0
1, 49821, Note_on_c, 0, 40, 0
1, 49824, Note_on_c, 0, 56, 66
1, 49824, Note_on_c, 0, 44, 66
1, 49869, Note_on_c, 0, 56, 0
1, 49869, Note_on_c, 0, 44, 0
1, 49872, Note_on_c, 0, 74, 66
1, 49872, Note_on_c, 0, 71, 66
1, 49872, Note_on_c, 0, 52, 66
1, 49872, Note_on_c, 0, 40, 66
1, 49917, Note_on_c, 0, 74, 0
1, 49917, Note_on_c, 0, 71, 0
1, 49917, Note_on_c, 0, 52, 0
1, 49917, Note_on_c, 0, 40, 0
1, 49920, Note_on_c, 0, 74, 66
1, 49920, Note_on_c, 0, 71, 66
1, 49944, Note_on_c, 0, 74, 0
1, 49944, Note_on_c, 0, 71, 0
1, 49944, Note_on_c, 0, 72, 66
1, 49944, Note_on_c, 0, 69, 66
1, 49967, Note_on_c, 0, 72, 0
1, 49967, Note_on_c, 0, 69, 0
1, 49968, Note_on_c, 0, 72, 66
1, 49968, Note_on_c, 0, 69, 66
1, 49968, Note_on_c, 0, 57, 66
1, 49968, Note_on_c, 0, 45, 66
1, 50013, Note_on_c, 0, 72, 0
1, 50013, Note_on_c, 0, 69, 0
1, 50013, Note_on_c, 0, 57, 0
1, 50013, Note_on_c, 0, 45, 0
1, 50016, Note_on_c, 0, 60, 66
1, 50016, Note_on_c, 0, 48, 66
1, 50061, Note_on_c, 0, 60, 0
1, 50061, Note_on_c, 0, 48, 0
1, 50064, Note_on_c, 0, 57, 66
1, 50064, Note_on_c, 0, 45, 66
1, 50109, Note_on_c, 0, 57, 0
1, 50109, Note_on_c, 0, 45, 0
1, 50112, Note_on_c, 0, 77, 66
1, 50112, Note_on_c, 0, 74, 66
1, 50160, Note_on_c, 0, 62, 66
1, 50160, Note_on_c, 0, 50, 66
1, 50201, Note_on_c, 0, 77, 0
1, 50201, Note_on_c, 0, 74, 0
1, 50205, Note_on_c, 0, 62, 0
1, 50205, Note_on_c, 0, 50, 0
1, 50208, Note_on_c, 0, 59, 66
1, 50208, Note_on_c, 0, 47, 66
1, 50253, Note_on_c, 0, 59, 0
1, 50253, Note_on_c, 0, 47, 0
1, 50256, Note_on_c, 0, 77, 68
1, 50256, Note_on_c, 0, 74, 68
1, 50256, Note_on_c, 0, 55, 67
1, 50256, Note_on_c, 0, 43, 67
1, 50301, Note_on_c, 0, 77, 0
1, 50301, Note_on_c, 0, 74, 0
1, 50301, Note_on_c, 0, 55, 0
1, 50301, Note_on_c, 0, 43, 0
1, 50304, Note_on_c, 0, 77, 69
1, 50304, Note_on_c, 0, 74, 69
1, 50328, Note_on_c, 0, 77, 0
1, 50328, Note_on_c, 0, 74, 0
1, 50328, Note_on_c, 0, 76, 69
1, 50328, Note_on_c, 0, 72, 69
1, 50351, Note_on_c, 0, 76, 0
1, 50351, Note_on_c, 0, 72, 0
1, 50352, Note_on_c, 0, 76, 69
1, 50352, Note_on_c, 0, 72, 69
1, 50352, Note_on_c, 0, 60, 69
1, 50352, Note_on_c, 0, 48, 69
1, 50397, Note_on_c, 0, 76, 0
1, 50397, Note_on_c, 0, 72, 0
1, 50397, Note_on_c, 0, 60, 0
1, 50397, Note_on_c, 0, 48, 0
1, 50400, Note_on_c, 0, 57, 70
1, 50400, Note_on_c, 0, 45, 70
1, 50445, Note_on_c, 0, 57, 0
1, 50445, Note_on_c, 0, 45, 0
1, 50448, Note_on_c, 0, 76, 71
1, 50448, Note_on_c, 0, 72, 71
1, 50448, Note_on_c, 0, 53, 70
1, 50448, Note_on_c, 0, 41, 70
1, 50493, Note_on_c, 0, 76, 0
1, 50493, Note_on_c, 0, 72, 0
1, 50493, Note_on_c, 0, 53, 0
1, 50493, Note_on_c, 0, 41, 0
1, 50496, Note_on_c, 0, 76, 72
1, 50496, Note_on_c, 0, 72, 72
1, 50520, Note_on_c, 0, 76, 0
1, 50520, Note_on_c, 0, 72, 0
1, 50520, Note_on_c, 0, 74, 72
1, 50520, Note_on_c, 0, 71, 72
1, 50543, Note_on_c, 0, 74, 0
1, 50543, Note_on_c, 0, 71, 0
1, 50544, Note_on_c, 0, 74, 73
1, 50544, Note_on_c, 0, 71, 73
1, 50544, Note_on_c, 0, 59, 72
1, 50544, Note_on_c, 0, 47, 72
1, 50589, Note_on_c, 0, 74, 0
1, 50589, Note_on_c, 0, 71, 0
1, 50589, Note_on_c, 0, 59, 0
1, 50589, Note_on_c, 0, 47, 0
1, 50592, Note_on_c, 0, 56, 73
1, 50592, Note_on_c, 0, 44, 73
1, 50637, Note_on_c, 0, 56, 0
1, 50637, Note_on_c, 0, 44, 0
1, 50640, Note_on_c, 0, 74, 74
1, 50640, Note_on_c, 0, 71, 74
1, 50640, Note_on_c, 0, 52, 74
1, 50640, Note_on_c, 0, 40, 74
1, 50685, Note_on_c, 0, 74, 0
1, 50685, Note_on_c, 0, 71, 0
1, 50685, Note_on_c, 0, 52, 0
1, 50685, Note_on_c, 0, 40, 0
1, 50688, Note_on_c, 0, 74, 75
1, 50688, Note_on_c, 0, 71, 75
1, 50712, Note_on_c, 0, 74, 0
1, 50712, Note_on_c, 0, 71, 0
1, 50712, Note_on_c, 0, 72, 75
1, 50712, Note_on_c, 0, 69, 75
1, 50735, Note_on_c, 0, 72, 0
1, 50735, Note_on_c, 0, 69, 0
1, 50736, Note_on_c, 0, 72, 76
1, 50736, Note_on_c, 0, 69, 76
1, 50736, Note_on_c, 0, 57, 75
1, 50736, Note_on_c, 0, 45, 75
1, 50781, Note_on_c, 0, 72, 0
1, 50781, Note_on_c, 0, 69, 0
1, 50781, Note_on_c, 0, 57, 0
1, 50781, Note_on_c, 0, 45, 0
1, 50784, Note_on_c, 0, 60, 76
1, 50784, Note_on_c, 0, 48, 76
1, 50829, Note_on_c, 0, 60, 0
1, 50829, Note_on_c, 0, 48, 0
1, 50832, Note_on_c, 0, 72, 77
1, 50832, Note_on_c, 0, 69, 77
1, 50832, Note_on_c, 0, 57, 77
1, 50832, Note_on_c, 0, 45, 77
1, 50877, Note_on_c, 0, 72, 0
1, 50877, Note_on_c, 0, 69, 0
1, 50877, Note_on_c, 0, 57, 0
1, 50877, Note_on_c, 0, 45, 0
1, 50880, Note_on_c, 0, 74, 78
1, 50880, Note_on_c, 0, 71, 78
1, 50904, Note_on_c, 0, 74, 0
1, 50904, Note_on_c, 0, 71, 0
1, 50904, Note_on_c, 0, 72, 79
1, 50904, Note_on_c, 0, 69, 79
1, 50927, Note_on_c, 0, 72, 0
1, 50927, Note_on_c, 0, 69, 0
1, 50928, Note_on_c, 0, 72, 79
1, 50928, Note_on_c, 0, 69, 79
1, 50928, Note_on_c, 0, 53, 79
1, 50928, Note_on_c, 0, 41, 79
1, 50973, Note_on_c, 0, 72, 0
1, 50973, Note_on_c, 0, 69, 0
1, 50973, Note_on_c, 0, 53, 0
1, 50973, Note_on_c, 0, 41, 0
1, 50976, Note_on_c, 0, 57, 80
1, 50976, Note_on_c, 0, 45, 80
1, 51021, Note_on_c, 0, 57, 0
1, 51021, Note_on_c, 0, 45, 0
1, 51024, Note_on_c, 0, 72, 81
1, 51024, Note_on_c, 0, 69, 81
1, 51024, Note_on_c, 0, 53, 80
1, 51024, Note_on_c, 0, 41, 80
1, 51069, Note_on_c, 0, 72, 0
1, 51069, Note_on_c, 0, 69, 0
1, 51069, Note_on_c, 0, 53, 0
1, 51069, Note_on_c, 0, 41, 0
1, 51072, Note_on_c, 0, 74, 81
1, 51072, Note_on_c, 0, 71, 81
1, 51096, Note_on_c, 0, 74, 0
1, 51096, Note_on_c, 0, 71, 0
1, 51096, Note_on_c, 0, 72, 82
1, 51096, Note_on_c, 0, 69, 82
1, 51119, Note_on_c, 0, 72, 0
1, 51119, Note_on_c, 0, 69, 0
1, 51120, Note_on_c, 0, 72, 82
1, 51120, Note_on_c, 0, 69, 82
1, 51120, Note_on_c, 0, 65, 82
1, 51120, Note_on_c, 0, 53, 82
1, 51165, Note_on_c, 0, 72, 0
1, 51165, Note_on_c, 0, 69, 0
1, 51165, Note_on_c, 0, 65, 0
1, 51165, Note_on_c, 0, 53, 0
1, 51168, Note_on_c, 0, 64, 83
1, 51168, Note_on_c, 0, 52, 83
1, 51213, Note_on_c, 0, 64, 0
1, 51213, Note_on_c, 0, 52, 0
1, 51216, Note_on_c, 0, 72, 84
1, 51216, Note_on_c, 0, 69, 84
1, 51216, Note_on_c, 0, 63, 84
1, 51216, Note_on_c, 0, 51, 84
1, 51261, Note_on_c, 0, 72, 0
1, 51261, Note_on_c, 0, 69, 0
1, 51261, Note_on_c, 0, 63, 0
1, 51261, Note_on_c, 0, 51, 0
1, 51264, Note_on_c, 0, 72, 85
1, 51264, Note_on_c, 0, 69, 72
1, 51264, Note_on_c, 0, 64, 85
1, 51264, Note_on_c, 0, 52, 85
1, 51274, Note_on_c, 0, 72, 0
1, 51274, Note_on_c, 0, 74, 85
1, 51284, Note_on_c, 0, 74, 0
1, 51284, Note_on_c, 0, 72, 85
1, 51294, Note_on_c, 0, 72, 0
1, 51294, Note_on_c, 0, 71, 85
1, 51303, Note_on_c, 0, 71, 0
1, 51303, Note_on_c, 0, 72, 85
1, 51312, Note_on_c, 0, 72, 0
1, 51312, Note_on_c, 0, 71, 85
1, 51312, Note_on_c, 0, 69, 0
1, 51312, Note_on_c, 0, 68, 72
1, 51353, Note_on_c, 0, 64, 0
1, 51353, Note_on_c, 0, 52, 0
1, 51357, Note_on_c, 0, 71, 0
1, 51357, Note_on_c, 0, 68, 0
1, 51456, Note_on_c, 0, 57, 85
1, 51456, Note_on_c, 0, 45, 85
1, 51456, Note_on_c, 0, 33, 85
1, 51471, Note_on_c, 0, 57, 0
1, 51472, Note_on_c, 0, 61, 85
1, 51487, Note_on_c, 0, 61, 0
1, 51488, Note_on_c, 0, 64, 85
1, 51503, Note_on_c, 0, 64, 0
1, 51504, Note_on_c, 0, 61, 85
1, 51519, Note_on_c, 0, 61, 0
1, 51520, Note_on_c, 0, 64, 85
1, 51535, Note_on_c, 0, 64, 0
1, 51536, Note_on_c, 0, 69, 85
1, 51545, Note_on_c, 0, 45, 0
1, 51545, Note_on_c, 0, 33, 0
1, 51551, Note_on_c, 0, 69, 0
1, 51552, Note_on_c, 0, 69, 85
1, 51567, Note_on_c, 0, 69, 0
1, 51568, Note_on_c, 0, 73, 85
1, 51583, Note_on_c, 0, 73, 0
1, 51584, Note_on_c, 0, 76, 85
1, 51599, Note_on_c, 0, 76, 0
1, 51600, Note_on_c, 0, 73, 85
1, 51615, Note_on_c, 0, 73, 0
1, 51616, Note_on_c, 0, 76, 85
1, 51631, Note_on_c, 0, 76, 0
1, 51632, Note_on_c, 0, 81, 85
1, 51647, Note_on_c, 0, 81, 0
1, 51648, Note_on_c, 0, 74, 85
1, 51648, Note_on_c, 0, 71, 85
1, 51696, Note_on_c, 0, 52, 85
1, 51696, Note_on_c, 0, 40, 85
1, 51737, Note_on_c, 0, 74, 0
1, 51737, Note_on_c, 0, 71, 0
1, 51741, Note_on_c, 0, 52, 0
1, 51741, Note_on_c, 0, 40, 0
1, 51744, Note_on_c, 0, 56, 85
1, 51744, Note_on_c, 0, 44, 85
1, 51789, Note_on_c, 0, 56, 0
1, 51789, Note_on_c, 0, 44, 0
1, 51792, Note_on_c, 0, 52, 85
1, 51792, Note_on_c, 0, 40, 85
1, 51837, Note_on_c, 0, 52, 0
1, 51837, Note_on_c, 0, 40, 0
1, 51840, Note_on_c, 0, 64, 85
1, 51840, Note_on_c, 0, 52, 85
1, 51840, Note_on_c, 0, 40, 85
1, 51855, Note_on_c, 0, 64, 0
1, 51856, Note_on_c, 0, 68, 85
1, 51871, Note_on_c, 0, 68, 0
1, 51872, Note_on_c, 0, 71, 85
1, 51887, Note_on_c, 0, 71, 0
1, 51888, Note_on_c, 0, 68, 85
1, 51903, Note_on_c, 0, 68, 0
1, 51904, Note_on_c, 0, 71, 85
1, 51919, Note_on_c, 0, 71, 0
1, 51920, Note_on_c, 0, 74, 85
1, 51929, Note_on_c, 0, 52, 0
1, 51929, Note_on_c, 0, 40, 0
1, 51935, Note_on_c, 0, 74, 0
1, 51936, Note_on_c, 0, 71, 85
1, 51951, Note_on_c, 0, 71, 0
1, 51952, Note_on_c, 0, 74, 85
1, 51967, Note_on_c, 0, 74, 0
1, 51968, Note_on_c, 0, 80, 85
1, 51983, Note_on_c, 0, 80, 0
1, 51984, Note_on_c, 0, 74, 85
1, 51999, Note_on_c, 0, 74, 0
1, 52000, Note_on_c, 0, 80, 85
1, 52015, Note_on_c, 0, 80, 0
1, 52016, Note_on_c, 0, 83, 85
1, 52031, Note_on_c, 0, 83, 0
1, 52032, Note_on_c, 0, 81, 85
1, 52032, Note_on_c, 0, 73, 85
1, 52080, Note_on_c, 0, 57, 85
1, 52080, Note_on_c, 0, 45, 85
1, 52121, Note_on_c, 0, 81, 0
1, 52121, Note_on_c, 0, 73, 0
1, 52125, Note_on_c, 0, 57, 0
1, 52125, Note_on_c, 0, 45, 0
1, 52128, Note_on_c, 0, 61, 85
1, 52128, Note_on_c, 0, 49, 85
1, 52173, Note_on_c, 0, 61, 0
1, 52173, Note_on_c, 0, 49, 0
1, 52176, Note_on_c, 0, 57, 85
1, 52176, Note_on_c, 0, 45, 85
1, 52221, Note_on_c, 0, 57, 0
1, 52221, Note_on_c, 0, 45, 0
1, 52224, Note_on_c, 0, 49, 72
1, 52247, Note_on_c, 0, 49, 0
1, 52248, Note_on_c, 0, 57, 72
1, 52271, Note_on_c, 0, 57, 0
1, 52272, Note_on_c, 0, 69, 78
1, 52272, Note_on_c, 0, 52, 72
1, 52295, Note_on_c, 0, 52, 0
1, 52296, Note_on_c, 0, 57, 72
1, 52317, Note_on_c, 0, 69, 0
1, 52319, Note_on_c, 0, 57, 0
1, 52320, Note_on_c, 0, 73, 78
1, 52320, Note_on_c, 0, 49, 72
1, 52343, Note_on_c, 0, 49, 0
1, 52344, Note_on_c, 0, 57, 72
1, 52365, Note_on_c, 0, 73, 0
1, 52367, Note_on_c, 0, 57, 0
1, 52368, Note_on_c, 0, 76, 78
1, 52368, Note_on_c, 0, 52, 72
1, 52391, Note_on_c, 0, 52, 0
1, 52392, Note_on_c, 0, 57, 72
1, 52413, Note_on_c, 0, 76, 0
1, 52415, Note_on_c, 0, 57, 0
1, 52416, Note_on_c, 0, 66, 78
1, 52416, Note_on_c, 0, 50, 72
1, 52427, Note_on_c, 0, 66, 0
1, 52427, Note_on_c, 0, 68, 78
1, 52438, Note_on_c, 0, 68, 0
1, 52438, Note_on_c, 0, 66, 78
1, 52439, Note_on_c, 0, 50, 0
1, 52440, Note_on_c, 0, 57, 72
1, 52449, Note_on_c, 0, 66, 0
1, 52449, Note_on_c, 0, 68, 78
1, 52460, Note_on_c, 0, 68, 0
1, 52460, Note_on_c, 0, 66, 78
1, 52463, Note_on_c, 0, 57, 0
1, 52464, Note_on_c, 0, 54, 72
1, 52471, Note_on_c, 0, 66, 0
1, 52471, Note_on_c, 0, 68, 78
1, 52482, Note_on_c, 0, 68, 0
1, 52482, Note_on_c, 0, 66, 78
1, 52487, Note_on_c, 0, 54, 0
1, 52488, Note_on_c, 0, 57, 72
1, 52493, Note_on_c, 0, 66, 0
1, 52493, Note_on_c, 0, 68, 78
1, 52504, Note_on_c, 0, 68, 0
1, 52504, Note_on_c, 0, 66, 78
1, 52511, Note_on_c, 0, 57, 0
1, 52512, Note_on_c, 0, 50, 72
1, 52515, Note_on_c, 0, 66, 0
1, 52515, Note_on_c, 0, 68, 78
1, 52526, Note_on_c, 0, 68, 0
1, 52526, Note_on_c, 0, 66, 78
1, 52535, Note_on_c, 0, 50, 0
1, 52536, Note_on_c, 0, 57, 72
1, 52537, Note_on_c, 0, 66, 0
1, 52537, Note_on_c, 0, 68, 78
1, 52548, Note_on_c, 0, 68, 0
1, 52548, Note_on_c, 0, 66, 78
1, 52559, Note_on_c, 0, 57, 0
1, 52560, Note_on_c, 0, 54, 72
1, 52583, Note_on_c, 0, 54, 0
1, 52584, Note_on_c, 0, 57, 72
1, 52607, Note_on_c, 0, 57, 0
1, 52608, Note_on_c, 0, 66, 0
1, 52608, Note_on_c, 0, 52, 72
1, 52631, Note_on_c, 0, 52, 0
1, 52632, Note_on_c, 0, 57, 72
1, 52655, Note_on_c, 0, 57, 0
1, 52656, Note_on_c, 0, 69, 78
1, 52656, Note_on_c, 0, 56, 72
1, 52679, Note_on_c, 0, 56, 0
1, 52680, Note_on_c, 0, 57, 72
1, 52701, Note_on_c, 0, 69, 0
1, 52703, Note_on_c, 0, 57, 0
1, 52704, Note_on_c, 0, 73, 78
1, 52704, Note_on_c, 0, 52, 72
1, 52727, Note_on_c, 0, 52, 0
1, 52728, Note_on_c, 0, 57, 72
1, 52749, Note_on_c, 0, 73, 0
1, 52751, Note_on_c, 0, 57, 0
1, 52752, Note_on_c, 0, 76, 78
1, 52752, Note_on_c, 0, 56, 72
1, 52775, Note_on_c, 0, 56, 0
1, 52776, Note_on_c, 0, 57, 72
1, 52797, Note_on_c, 0, 76, 0
1, 52799, Note_on_c, 0, 57, 0
1, 52800, Note_on_c, 0, 69, 78
1, 52800, Note_on_c, 0, 54, 72
1, 52811, Note_on_c, 0, 69, 0
1, 52811, Note_on_c, 0, 71, 78
1, 52822, Note_on_c, 0, 71, 0
1, 52822, Note_on_c, 0, 69, 78
1, 52823, Note_on_c, 0, 54, 0
1, 52824, Note_on_c, 0, 57, 72
1, 52833, Note_on_c, 0, 69, 0
1, 52833, Note_on_c, 0, 71, 78
1, 52844, Note_on_c, 0, 71, 0
1, 52844, Note_on_c, 0, 69, 78
1, 52847, Note_on_c, 0, 57, 0
1, 52848, Note_on_c, 0, 56, 72
1, 52855, Note_on_c, 0, 69, 0
1, 52855, Note_on_c, 0, 71, 78
1, 52866, Note_on_c, 0, 71, 0
1, 52866, Note_on_c, 0, 69, 78
1, 52871, Note_on_c, 0, 56, 0
1, 52872, Note_on_c, 0, 57, 72
1, 52877, Note_on_c, 0, 69, 0
1, 52877, Note_on_c, 0, 71, 78
1, 52888, Note_on_c, 0, 71, 0
1, 52888, Note_on_c, 0, 69, 78
1, 52895, Note_on_c, 0, 57, 0
1, 52896, Note_on_c, 0, 54, 72
1, 52899, Note_on_c, 0, 69, 0
1, 52899, Note_on_c, 0, 71, 78
1, 52910, Note_on_c, 0, 71, 0
1, 52910, Note_on_c, 0, 69, 78
1, 52919, Note_on_c, 0, 54, 0
1, 52920, Note_on_c, 0, 57, 72
1, 52921, Note_on_c, 0, 69, 0
1, 52921, Note_on_c, 0, 71, 78
1, 52932, Note_on_c, 0, 71, 0
1, 52932, Note_on_c, 0, 69, 78
1, 52943, Note_on_c, 0, 57, 0
1, 52944, Note_on_c, 0, 56, 72
1, 52967, Note_on_c, 0, 56, 0
1, 52968, Note_on_c, 0, 57, 72
1, 52991, Note_on_c, 0, 57, 0
1, 52992, Note_on_c, 0, 69, 0
1, 52992, Note_on_c, 0, 49, 72
1, 53015, Note_on_c, 0, 49, 0
1, 53016, Note_on_c, 0, 57, 72
1, 53039, Note_on_c, 0, 57, 0
1, 53040, Note_on_c, 0, 69, 78
1, 53040, Note_on_c, 0, 52, 72
1, 53063, Note_on_c, 0, 52, 0
1, 53064, Note_on_c, 0, 57, 72
1, 53085, Note_on_c, 0, 69, 0
1, 53087, Note_on_c, 0, 57, 0
1, 53088, Note_on_c, 0, 73, 78
1, 53088, Note_on_c, 0, 49, 72
1, 53111, Note_on_c, 0, 49, 0
1, 53112, Note_on_c, 0, 57, 72
1, 53133, Note_on_c, 0, 73, 0
1, 53135, Note_on_c, 0, 57, 0
1, 53136, Note_on_c, 0, 76, 78
1, 53136, Note_on_c, 0, 52, 72
1, 53159, Note_on_c, 0, 52, 0
1, 53160, Note_on_c, 0, 57, 72
1, 53181, Note_on_c, 0, 76, 0
1, 53183, Note_on_c, 0, 57, 0
1, 53184, Note_on_c, 0, 76, 78
1, 53184, Note_on_c, 0, 50, 72
1, 53207, Note_on_c, 0, 50, 0
1, 53208, Note_on_c, 0, 57, 72
1, 53229, Note_on_c, 0, 76, 0
1, 53231, Note_on_c, 0, 57, 0
1, 53232, Note_on_c, 0, 77, 78
1, 53232, Note_on_c, 0, 54, 72
1, 53255, Note_on_c, 0, 54, 0
1, 53256, Note_on_c, 0, 57, 72
1, 53277, Note_on_c, 0, 77, 0
1, 53279, Note_on_c, 0, 57, 0
1, 53280, Note_on_c, 0, 78, 78
1, 53280, Note_on_c, 0, 50, 72
1, 53303, Note_on_c, 0, 50, 0
1, 53304, Note_on_c, 0, 57, 72
1, 53325, Note_on_c, 0, 78, 0
1, 53327, Note_on_c, 0, 57, 0
1, 53328, Note_on_c, 0, 74, 78
1, 53328, Note_on_c, 0, 54, 72
1, 53351, Note_on_c, 0, 54, 0
1, 53352, Note_on_c, 0, 57, 72
1, 53373, Note_on_c, 0, 74, 0
1, 53375, Note_on_c, 0, 57, 0
1, 53376, Note_on_c, 0, 74, 78
1, 53376, Note_on_c, 0, 52, 72
1, 53399, Note_on_c, 0, 74, 0
1, 53399, Note_on_c, 0, 52, 0
1, 53400, Note_on_c, 0, 73, 78
1, 53400, Note_on_c, 0, 61, 72
1, 53423, Note_on_c, 0, 73, 0
1, 53423, Note_on_c, 0, 61, 0
1, 53424, Note_on_c, 0, 71, 78
1, 53424, Note_on_c, 0, 57, 72
1, 53447, Note_on_c, 0, 71, 0
1, 53447, Note_on_c, 0, 57, 0
1, 53448, Note_on_c, 0, 69, 78
1, 53448, Note_on_c, 0, 61, 72
1, 53471, Note_on_c, 0, 69, 0
1, 53471, Note_on_c, 0, 61, 0
1, 53472, Note_on_c, 0, 73, 78
1, 53472, Note_on_c, 0, 52, 72
1, 53495, Note_on_c, 0, 73, 0
1, 53495, Note_on_c, 0, 52, 0
1, 53496, Note_on_c, 0, 71, 78
1, 53496, Note_on_c, 0, 62, 72
1, 53519, Note_on_c, 0, 71, 0
1, 53519, Note_on_c, 0, 62, 0
1, 53520, Note_on_c, 0, 69, 78
1, 53520, Note_on_c, 0, 59, 72
1, 53543, Note_on_c, 0, 69, 0
1, 53543, Note_on_c, 0, 59, 0
1, 53544, Note_on_c, 0, 68, 78
1, 53544, Note_on_c, 0, 62, 72
1, 53567, Note_on_c, 0, 68, 0
1, 53567, Note_on_c, 0, 62, 0
1, 53568, Note_on_c, 0, 69, 78
1, 53568, Note_on_c, 0, 61, 72
1, 53568, Note_on_c, 0, 57, 72
1, 53613, Note_on_c, 0, 69, 0
1, 53616, Note_on_c, 0, 73, 85
1, 53616, Note_on_c, 0, 69, 85
1, 53631, Note_on_c, 0, 73, 0
1, 53631, Note_on_c, 0, 69, 0
1, 53632, Note_on_c, 0, 74, 85
1, 53632, Note_on_c, 0, 71, 85
1, 53647, Note_on_c, 0, 74, 0
1, 53647, Note_on_c, 0, 71, 0
1, 53648, Note_on_c, 0, 76, 85
1, 53648, Note_on_c, 0, 73, 85
1, 53657, Note_on_c, 0, 61, 0
1, 53657, Note_on_c, 0, 57, 0
1, 53663, Note_on_c, 0, 76, 0
1, 53663, Note_on_c, 0, 73, 0
1, 53664, Note_on_c, 0, 74, 85
1, 53664, Note_on_c, 0, 71, 85
1, 53709, Note_on_c, 0, 74, 0
1, 53709, Note_on_c, 0, 71, 0
1, 53712, Note_on_c, 0, 68, 85
1, 53712, Note_on_c, 0, 62, 85
1, 53712, Note_on_c, 0, 52, 85
1, 53712, Note_on_c, 0, 40, 85
1, 53757, Note_on_c, 0, 68, 0
1, 53757, Note_on_c, 0, 62, 0
1, 53757, Note_on_c, 0, 52, 0
1, 53757, Note_on_c, 0, 40, 0
1, 53760, Note_on_c, 0, 69, 85
1, 53760, Note_on_c, 0, 61, 85
1, 53760, Note_on_c, 0, 45, 85
1, 53805, Note_on_c, 0, 69, 0
1, 53805, Note_on_c, 0, 61, 0
1, 53808, Note_on_c, 0, 61, 85
1, 53808, Note_on_c, 0, 57, 85
1, 53823, Note_on_c, 0, 61, 0
1, 53823, Note_on_c, 0, 57, 0
1, 53824, Note_on_c, 0, 62, 85
1, 53824, Note_on_c, 0, 59, 85
1, 53839, Note_on_c, 0, 62, 0
1, 53839, Note_on_c, 0, 59, 0
1, 53840, Note_on_c, 0, 64, 85
1, 53840, Note_on_c, 0, 61, 85
1, 53849, Note_on_c, 0, 45, 0
1, 53855, Note_on_c, 0, 64, 0
1, 53855, Note_on_c, 0, 61, 0
1, 53856, Note_on_c, 0, 62, 85
1, 53856, Note_on_c, 0, 59, 85
1, 53901, Note_on_c, 0, 62, 0
1, 53901, Note_on_c, 0, 59, 0
1, 53904, Note_on_c, 0, 59, 85
1, 53904, Note_on_c, 0, 56, 85
1, 53904, Note_on_c, 0, 52, 85
1, 53904, Note_on_c, 0, 40, 85
1, 53949, Note_on_c, 0, 59, 0
1, 53949, Note_on_c, 0, 56, 0
1, 53949, Note_on_c, 0, 52, 0
1, 53949, Note_on_c, 0, 40, 0
1, 53952, Note_on_c, 0, 57, 85
1, 53952, Note_on_c, 0, 45, 85
1, 53952, Note_on_c, 0, 33, 85
1, 54041, Note_on_c, 0, 57, 0
1, 54041, Note_on_c, 0, 45, 0
1, 54041, Note_on_c, 0, 33, 0
1, 54144, Note_on_c, 0, 33, 0
1, 54321, Note_on_c, 0, 33, 0
1, 54331, End_track
0, 0, End_of_file