0, 0, Header, 0, 1, 96
1, 0, Start_track
1, 0, Tempo, 714285
1, 0, Note_on_c, 0, 55, 80
1, 0, Note_on_c, 1, 39, 80
1, 6, Note_on_c, 1, 43, 80
1, 8, Note_on_c, 0, 58, 80
1, 12, Note_on_c, 1, 46, 80
1, 16, Note_on_c, 0, 63, 80
1, 18, Note_on_c, 1, 51, 80
1, 93, Note_on_c, 0, 63, 0
1, 93, Note_on_c, 0, 58, 0
1, 93, Note_on_c, 0, 55, 0
1, 93, Note_on_c, 1, 51, 0
1, 93, Note_on_c, 1, 46, 0
1, 93, Note_on_c, 1, 43, 0
1, 93, Note_on_c, 1, 39, 0
1, 96, Note_on_c, 0, 67, 80
1, 96, Note_on_c, 0, 63, 80
1, 96, Note_on_c, 0, 61, 80
1, 96, Note_on_c, 1, 49, 80
1, 96, Note_on_c, 1, 46, 80
1, 96, Note_on_c, 1, 43, 80
1, 96, Note_on_c, 1, 39, 80
1, 163, Note_on_c, 0, 67, 0
1, 163, Note_on_c, 0, 63, 0
1, 163, Note_on_c, 0, 61, 0
1, 163, Note_on_c, 1, 49, 0
1, 163, Note_on_c, 1, 46, 0
1, 163, Note_on_c, 1, 43, 0
1, 163, Note_on_c, 1, 39, 0
1, 168, Note_on_c, 0, 67, 80
1, 168, Note_on_c, 0, 63, 80
1, 168, Note_on_c, 0, 61, 80
1, 168, Note_on_c, 1, 49, 80
1, 168, Note_on_c, 1, 46, 80
1, 168, Note_on_c, 1, 43, 80
1, 168, Note_on_c, 1, 39, 80
1, 191, Note_on_c, 0, 67, 0
1, 191, Note_on_c, 0, 63, 0
1, 191, Note_on_c, 0, 61, 0
1, 191, Note_on_c, 1, 49, 0
1, 191, Note_on_c, 1, 46, 0
1, 191, Note_on_c, 1, 43, 0
1, 191, Note_on_c, 1, 39, 0
1, 192, Note_on_c, 0, 56, 80
1, 192, Note_on_c, 1, 39, 80
1, 198, Note_on_c, 0, 60, 80
1, 198, Note_on_c, 1, 44, 80
1, 204, Note_on_c, 0, 63, 80
1, 204, Note_on_c, 1, 48, 80
1, 210, Note_on_c, 0, 68, 80
1, 210, Note_on_c, 1, 51, 80
1, 336, Note_on_c, 0, 63, 0
1, 336, Note_on_c, 0, 60, 0
1, 336, Note_on_c, 0, 56, 0
1, 348, Note_on_c, 0, 68, 0
1, 348, Note_on_c, 0, 67, 80
1, 360, Note_on_c, 0, 67, 0
1, 360, Note_on_c, 0, 65, 80
1, 372, Note_on_c, 0, 65, 0
1, 372, Note_on_c, 0, 63, 80
1, 373, Note_on_c, 1, 51, 0
1, 373, Note_on_c, 1, 48, 0
1, 373, Note_on_c, 1, 44, 0
1, 373, Note_on_c, 1, 39, 0
1, 384, Note_on_c, 0, 63, 0
1, 384, Note_on_c, 0, 56, 80
1, 384, Note_on_c, 0, 58, 80
1, 384, Note_on_c, 0, 62, 80
1, 384, Note_on_c, 1, 39, 80
1, 390, Note_on_c, 1, 41, 80
1, 396, Note_on_c, 1, 44, 80
1, 402, Note_on_c, 1, 50, 80
1, 451, Note_on_c, 0, 62, 0
1, 451, Note_on_c, 0, 58, 0
1, 451, Note_on_c, 0, 56, 0
1, 456, Note_on_c, 0, 65, 80
1, 477, Note_on_c, 1, 50, 0
1, 477, Note_on_c, 1, 44, 0
1, 477, Note_on_c, 1, 41, 0
1, 477, Note_on_c, 1, 39, 0
1, 479, Note_on_c, 0, 65, 0
1, 480, Note_on_c, 0, 62, 80
1, 480, Note_on_c, 1, 39, 80
1, 486, Note_on_c, 1, 41, 80
1, 488, Note_on_c, 0, 65, 80
1, 492, Note_on_c, 1, 44, 80
1, 496, Note_on_c, 0, 70, 80
1, 498, Note_on_c, 1, 50, 80
1, 551, Note_on_c, 0, 70, 0
1, 551, Note_on_c, 0, 65, 0
1, 551, Note_on_c, 0, 62, 0
1, 552, Note_on_c, 0, 68, 80
1, 573, Note_on_c, 1, 50, 0
1, 573, Note_on_c, 1, 44, 0
1, 573, Note_on_c, 1, 41, 0
1, 573, Note_on_c, 1, 39, 0
1, 575, Note_on_c, 0, 68, 0
1, 576, Note_on_c, 0, 58, 80
1, 576, Note_on_c, 1, 39, 80
1, 582, Note_on_c, 1, 43, 80
1, 584, Note_on_c, 0, 63, 80
1, 588, Note_on_c, 1, 46, 80
1, 592, Note_on_c, 0, 67, 80
1, 594, Note_on_c, 1, 51, 80
1, 691, Note_on_c, 0, 67, 0
1, 691, Note_on_c, 0, 63, 0
1, 691, Note_on_c, 0, 58, 0
1, 691, Note_on_c, 1, 51, 0
1, 691, Note_on_c, 1, 46, 0
1, 691, Note_on_c, 1, 43, 0
1, 691, Note_on_c, 1, 39, 0
1, 768, Note_on_c, 0, 74, 64
1, 768, Note_on_c, 1, 68, 64
1, 768, Note_on_c, 1, 65, 64
1, 768, Note_on_c, 1, 58, 64
1, 815, Note_on_c, 1, 68, 0
1, 815, Note_on_c, 1, 65, 0
1, 815, Note_on_c, 1, 58, 0
1, 835, Note_on_c, 0, 74, 0
1, 840, Note_on_c, 0, 77, 64
1, 863, Note_on_c, 0, 77, 0
1, 864, Note_on_c, 0, 82, 64
1, 864, Note_on_c, 1, 68, 64
1, 864, Note_on_c, 1, 65, 64
1, 864, Note_on_c, 1, 58, 64
1, 911, Note_on_c, 1, 68, 0
1, 911, Note_on_c, 1, 65, 0
1, 911, Note_on_c, 1, 58, 0
1, 931, Note_on_c, 0, 82, 0
1, 936, Note_on_c, 0, 80, 64
1, 936, Note_on_c, 1, 62, 64
1, 959, Note_on_c, 0, 80, 0
1, 960, Note_on_c, 0, 79, 64
1, 960, Note_on_c, 1, 62, 0
1, 960, Note_on_c, 1, 63, 64
1, 1005, Note_on_c, 0, 79, 0
1, 1005, Note_on_c, 1, 63, 0
1, 1080, Note_on_c, 0, 84, 64
1, 1080, Note_on_c, 0, 80, 64
1, 1080, Note_on_c, 1, 58, 64
1, 1103, Note_on_c, 0, 84, 0
1, 1103, Note_on_c, 0, 80, 0
1, 1103, Note_on_c, 1, 58, 0
1, 1104, Note_on_c, 0, 82, 64
1, 1104, Note_on_c, 0, 79, 64
1, 1104, Note_on_c, 1, 60, 64
1, 1127, Note_on_c, 0, 82, 0
1, 1127, Note_on_c, 0, 79, 0
1, 1127, Note_on_c, 1, 60, 0
1, 1128, Note_on_c, 0, 80, 64
1, 1128, Note_on_c, 0, 77, 64
1, 1128, Note_on_c, 1, 62, 64
1, 1151, Note_on_c, 0, 80, 0
1, 1151, Note_on_c, 0, 77, 0
1, 1151, Note_on_c, 1, 62, 0
1, 1152, Note_on_c, 0, 79, 64
1, 1152, Note_on_c, 0, 75, 64
1, 1152, Note_on_c, 1, 63, 64
1, 1172, Note_on_c, 0, 79, 0
1, 1172, Note_on_c, 0, 75, 0
1, 1172, Note_on_c, 1, 63, 0
1, 1272, Note_on_c, 0, 84, 75
1, 1272, Note_on_c, 0, 80, 75
1, 1272, Note_on_c, 1, 58, 75
1, 1295, Note_on_c, 0, 84, 0
1, 1295, Note_on_c, 0, 80, 0
1, 1295, Note_on_c, 1, 58, 0
1, 1296, Note_on_c, 0, 82, 75
1, 1296, Note_on_c, 0, 79, 75
1, 1296, Note_on_c, 1, 60, 75
1, 1319, Note_on_c, 0, 82, 0
1, 1319, Note_on_c, 0, 79, 0
1, 1319, Note_on_c, 1, 60, 0
1, 1320, Note_on_c, 0, 80, 75
1, 1320, Note_on_c, 0, 77, 75
1, 1320, Note_on_c, 1, 62, 75
1, 1343, Note_on_c, 0, 80, 0
1, 1343, Note_on_c, 0, 77, 0
1, 1343, Note_on_c, 1, 62, 0
1, 1344, Note_on_c, 0, 79, 75
1, 1344, Note_on_c, 0, 75, 75
1, 1344, Note_on_c, 1, 63, 75
1, 1364, Note_on_c, 0, 79, 0
1, 1364, Note_on_c, 0, 75, 0
1, 1364, Note_on_c, 1, 63, 0
1, 1464, Note_on_c, 0, 84, 80
1, 1464, Note_on_c, 0, 80, 80
1, 1487, Note_on_c, 0, 84, 0
1, 1487, Note_on_c, 0, 80, 0
1, 1488, Note_on_c, 0, 82, 80
1, 1488, Note_on_c, 0, 79, 80
1, 1511, Note_on_c, 0, 82, 0
1, 1511, Note_on_c, 0, 79, 0
1, 1512, Note_on_c, 0, 80, 80
1, 1512, Note_on_c, 0, 77, 80
1, 1535, Note_on_c, 0, 80, 0
1, 1535, Note_on_c, 0, 77, 0
1, 1536, Note_on_c, 0, 79, 80
1, 1536, Note_on_c, 0, 75, 80
1, 1546, Note_on_c, 0, 79, 0
1, 1546, Note_on_c, 0, 75, 0
1, 1560, Note_on_c, 0, 84, 80
1, 1560, Note_on_c, 0, 80, 80
1, 1583, Note_on_c, 0, 84, 0
1, 1583, Note_on_c, 0, 80, 0
1, 1584, Note_on_c, 0, 82, 80
1, 1584, Note_on_c, 0, 79, 80
1, 1607, Note_on_c, 0, 82, 0
1, 1607, Note_on_c, 0, 79, 0
1, 1608, Note_on_c, 0, 80, 80
1, 1608, Note_on_c, 0, 77, 80
1, 1631, Note_on_c, 0, 80, 0
1, 1631, Note_on_c, 0, 77, 0
1, 1632, Note_on_c, 0, 79, 80
1, 1632, Note_on_c, 0, 75, 80
1, 1642, Note_on_c, 0, 79, 0
1, 1642, Note_on_c, 0, 75, 0
1, 1656, Note_on_c, 0, 82, 78
1, 1656, Note_on_c, 0, 79, 78
1, 1679, Note_on_c, 0, 82, 0
1, 1679, Note_on_c, 0, 79, 0
1, 1680, Note_on_c, 0, 80, 77
1, 1680, Note_on_c, 0, 77, 77
1, 1703, Note_on_c, 0, 80, 0
1, 1703, Note_on_c, 0, 77, 0
1, 1704, Note_on_c, 0, 79, 76
1, 1704, Note_on_c, 0, 75, 76
1, 1727, Note_on_c, 0, 79, 0
1, 1727, Note_on_c, 0, 75, 0
1, 1728, Note_on_c, 0, 77, 74
1, 1728, Note_on_c, 0, 74, 74
1, 1751, Note_on_c, 0, 77, 0
1, 1751, Note_on_c, 0, 74, 0
1, 1752, Note_on_c, 0, 75, 73
1, 1752, Note_on_c, 0, 72, 73
1, 1775, Note_on_c, 0, 75, 0
1, 1775, Note_on_c, 0, 72, 0
1, 1776, Note_on_c, 0, 74, 72
1, 1776, Note_on_c, 0, 70, 72
1, 1799, Note_on_c, 0, 74, 0
1, 1799, Note_on_c, 0, 70, 0
1, 1800, Note_on_c, 0, 72, 70
1, 1800, Note_on_c, 0, 68, 70
1, 1823, Note_on_c, 0, 72, 0
1, 1823, Note_on_c, 0, 68, 0
1, 1824, Note_on_c, 0, 70, 69
1, 1824, Note_on_c, 0, 67, 69
1, 1847, Note_on_c, 0, 70, 0
1, 1847, Note_on_c, 0, 67, 0
1, 1848, Note_on_c, 0, 68, 68
1, 1848, Note_on_c, 0, 65, 68
1, 1871, Note_on_c, 0, 68, 0
1, 1871, Note_on_c, 0, 65, 0
1, 1872, Note_on_c, 0, 67, 66
1, 1872, Note_on_c, 0, 63, 66
1, 1895, Note_on_c, 0, 67, 0
1, 1895, Note_on_c, 0, 63, 0
1, 1896, Note_on_c, 0, 65, 65
1, 1896, Note_on_c, 0, 62, 65
1, 1919, Note_on_c, 0, 65, 0
1, 1919, Note_on_c, 0, 62, 0
1, 1920, Note_on_c, 0, 63, 86
1, 1920, Note_on_c, 1, 48, 64
1, 1944, Note_on_c, 1, 48, 0
1, 1944, Note_on_c, 1, 56, 64
1, 1967, Note_on_c, 1, 56, 0
1, 1968, Note_on_c, 1, 48, 64
1, 1992, Note_on_c, 1, 48, 0
1, 1992, Note_on_c, 1, 56, 64
1, 2015, Note_on_c, 1, 56, 0
1, 2016, Note_on_c, 1, 48, 64
1, 2040, Note_on_c, 1, 48, 0
1, 2040, Note_on_c, 1, 56, 64
1, 2063, Note_on_c, 1, 56, 0
1, 2064, Note_on_c, 1, 48, 64
1, 2083, Note_on_c, 0, 63, 0
1, 2088, Note_on_c, 0, 65, 70
1, 2088, Note_on_c, 1, 48, 0
1, 2088, Note_on_c, 1, 56, 64
1, 2100, Note_on_c, 0, 65, 0
1, 2100, Note_on_c, 0, 63, 70
1, 2111, Note_on_c, 1, 56, 0
1, 2112, Note_on_c, 0, 63, 0
1, 2112, Note_on_c, 0, 62, 70
1, 2112, Note_on_c, 1, 46, 64
1, 2136, Note_on_c, 1, 46, 0
1, 2136, Note_on_c, 1, 56, 64
1, 2159, Note_on_c, 1, 56, 0
1, 2160, Note_on_c, 1, 46, 64
1, 2184, Note_on_c, 1, 46, 0
1, 2184, Note_on_c, 1, 56, 64
1, 2207, Note_on_c, 1, 56, 0
1, 2208, Note_on_c, 0, 62, 0
1, 2208, Note_on_c, 0, 61, 86
1, 2208, Note_on_c, 1, 46, 64
1, 2232, Note_on_c, 1, 46, 0
1, 2232, Note_on_c, 1, 55, 64
1, 2255, Note_on_c, 1, 55, 0
1, 2256, Note_on_c, 1, 46, 64
1, 2280, Note_on_c, 1, 46, 0
1, 2280, Note_on_c, 1, 55, 64
1, 2303, Note_on_c, 1, 55, 0
1, 2304, Note_on_c, 0, 61, 0
1, 2304, Note_on_c, 0, 60, 86
1, 2304, Note_on_c, 1, 44, 64
1, 2328, Note_on_c, 1, 44, 0
1, 2328, Note_on_c, 1, 55, 64
1, 2351, Note_on_c, 1, 55, 0
1, 2352, Note_on_c, 1, 44, 64
1, 2376, Note_on_c, 1, 44, 0
1, 2376, Note_on_c, 1, 55, 64
1, 2399, Note_on_c, 1, 55, 0
1, 2400, Note_on_c, 1, 44, 64
1, 2424, Note_on_c, 1, 44, 0
1, 2424, Note_on_c, 1, 53, 64
1, 2447, Note_on_c, 1, 53, 0
1, 2448, Note_on_c, 1, 44, 64
1, 2467, Note_on_c, 0, 60, 0
1, 2472, Note_on_c, 0, 62, 70
1, 2472, Note_on_c, 1, 44, 0
1, 2472, Note_on_c, 1, 53, 64
1, 2484, Note_on_c, 0, 62, 0
1, 2484, Note_on_c, 0, 60, 70
1, 2495, Note_on_c, 1, 53, 0
1, 2496, Note_on_c, 0, 60, 0
1, 2496, Note_on_c, 0, 58, 86
1, 2496, Note_on_c, 1, 43, 64
1, 2520, Note_on_c, 1, 43, 0
1, 2520, Note_on_c, 1, 53, 64
1, 2543, Note_on_c, 1, 53, 0
1, 2544, Note_on_c, 1, 43, 64
1, 2568, Note_on_c, 0, 58, 0
1, 2568, Note_on_c, 0, 60, 70
1, 2568, Note_on_c, 1, 43, 0
1, 2568, Note_on_c, 1, 53, 64
1, 2580, Note_on_c, 0, 60, 0
1, 2580, Note_on_c, 0, 62, 70
1, 2591, Note_on_c, 1, 53, 0
1, 2592, Note_on_c, 0, 62, 0
1, 2592, Note_on_c, 0, 63, 70
1, 2592, Note_on_c, 1, 43, 64
1, 2616, Note_on_c, 1, 43, 0
1, 2616, Note_on_c, 1, 51, 64
1, 2639, Note_on_c, 1, 51, 0
1, 2640, Note_on_c, 1, 43, 64
1, 2659, Note_on_c, 0, 63, 0
1, 2664, Note_on_c, 0, 65, 70
1, 2664, Note_on_c, 1, 43, 0
1, 2664, Note_on_c, 1, 51, 64
1, 2676, Note_on_c, 0, 65, 0
1, 2676, Note_on_c, 0, 67, 70
1, 2687, Note_on_c, 1, 51, 0
1, 2688, Note_on_c, 0, 67, 0
1, 2688, Note_on_c, 0, 68, 86
1, 2688, Note_on_c, 1, 41, 64
1, 2712, Note_on_c, 1, 41, 0
1, 2712, Note_on_c, 1, 50, 64
1, 2735, Note_on_c, 1, 50, 0
1, 2736, Note_on_c, 1, 41, 64
1, 2760, Note_on_c, 1, 41, 0
1, 2760, Note_on_c, 1, 50, 64
1, 2783, Note_on_c, 1, 50, 0
1, 2784, Note_on_c, 0, 68, 0
1, 2784, Note_on_c, 0, 67, 70
1, 2784, Note_on_c, 1, 39, 64
1, 2807, Note_on_c, 1, 39, 0
1, 2808, Note_on_c, 1, 43, 64
1, 2831, Note_on_c, 1, 43, 0
1, 2832, Note_on_c, 1, 46, 64
1, 2855, Note_on_c, 1, 46, 0
1, 2856, Note_on_c, 1, 51, 64
1, 2873, Note_on_c, 0, 67, 0
1, 2879, Note_on_c, 1, 51, 0
1, 2880, Note_on_c, 0, 65, 70
1, 2880, Note_on_c, 0, 60, 70
1, 2880, Note_on_c, 1, 56, 64
1, 2880, Note_on_c, 1, 44, 64
1, 2900, Note_on_c, 0, 65, 0
1, 2900, Note_on_c, 0, 60, 0
1, 2925, Note_on_c, 1, 56, 0
1, 2925, Note_on_c, 1, 44, 0
1, 2976, Note_on_c, 0, 62, 70
1, 2976, Note_on_c, 0, 56, 70
1, 2976, Note_on_c, 1, 53, 64
1, 2976, Note_on_c, 1, 46, 64
1, 2996, Note_on_c, 0, 62, 0
1, 2996, Note_on_c, 0, 56, 0
1, 3021, Note_on_c, 1, 53, 0
1, 3021, Note_on_c, 1, 46, 0
1, 3072, Note_on_c, 0, 55, 80
1, 3072, Note_on_c, 1, 39, 80
1, 3078, Note_on_c, 1, 43, 80
1, 3080, Note_on_c, 0, 58, 80
1, 3084, Note_on_c, 1, 46, 80
1, 3088, Note_on_c, 0, 63, 80
1, 3090, Note_on_c, 1, 51, 80
1, 3165, Note_on_c, 0, 63, 0
1, 3165, Note_on_c, 0, 58, 0
1, 3165, Note_on_c, 0, 55, 0
1, 3165, Note_on_c, 1, 51, 0
1, 3165, Note_on_c, 1, 46, 0
1, 3165, Note_on_c, 1, 43, 0
1, 3165, Note_on_c, 1, 39, 0
1, 3168, Note_on_c, 0, 67, 80
1, 3168, Note_on_c, 0, 63, 80
1, 3168, Note_on_c, 0, 61, 80
1, 3168, Note_on_c, 1, 49, 80
1, 3168, Note_on_c, 1, 46, 80
1, 3168, Note_on_c, 1, 43, 80
1, 3168, Note_on_c, 1, 39, 80
1, 3235, Note_on_c, 0, 67, 0
1, 3235, Note_on_c, 0, 63, 0
1, 3235, Note_on_c, 0, 61, 0
1, 3235, Note_on_c, 1, 49, 0
1, 3235, Note_on_c, 1, 46, 0
1, 3235, Note_on_c, 1, 43, 0
1, 3235, Note_on_c, 1, 39, 0
1, 3240, Note_on_c, 0, 67, 80
1, 3240, Note_on_c, 0, 63, 80
1, 3240, Note_on_c, 0, 61, 80
1, 3240, Note_on_c, 1, 49, 80
1, 3240, Note_on_c, 1, 46, 80
1, 3240, Note_on_c, 1, 43, 80
1, 3240, Note_on_c, 1, 39, 80
1, 3263, Note_on_c, 0, 67, 0
1, 3263, Note_on_c, 0, 63, 0
1, 3263, Note_on_c, 0, 61, 0
1, 3263, Note_on_c, 1, 49, 0
1, 3263, Note_on_c, 1, 46, 0
1, 3263, Note_on_c, 1, 43, 0
1, 3263, Note_on_c, 1, 39, 0
1, 3264, Note_on_c, 0, 56, 80
1, 3264, Note_on_c, 1, 39, 80
1, 3270, Note_on_c, 0, 60, 80
1, 3270, Note_on_c, 1, 44, 80
1, 3276, Note_on_c, 0, 63, 80
1, 3276, Note_on_c, 1, 48, 80
1, 3282, Note_on_c, 0, 68, 80
1, 3282, Note_on_c, 1, 51, 80
1, 3357, Note_on_c, 0, 68, 0
1, 3357, Note_on_c, 0, 63, 0
1, 3357, Note_on_c, 0, 60, 0
1, 3357, Note_on_c, 0, 56, 0
1, 3360, Note_on_c, 0, 84, 80
1, 3372, Note_on_c, 0, 84, 0
1, 3372, Note_on_c, 0, 82, 80
1, 3384, Note_on_c, 0, 82, 0
1, 3384, Note_on_c, 0, 80, 80
1, 3396, Note_on_c, 0, 80, 0
1, 3396, Note_on_c, 0, 79, 80
1, 3408, Note_on_c, 0, 79, 0
1, 3408, Note_on_c, 0, 77, 80
1, 3420, Note_on_c, 0, 77, 0
1, 3420, Note_on_c, 0, 75, 80
1, 3432, Note_on_c, 0, 75, 0
1, 3432, Note_on_c, 0, 74, 80
1, 3444, Note_on_c, 0, 74, 0
1, 3444, Note_on_c, 0, 72, 80
1, 3445, Note_on_c, 1, 51, 0
1, 3445, Note_on_c, 1, 48, 0
1, 3445, Note_on_c, 1, 44, 0
1, 3445, Note_on_c, 1, 39, 0
1, 3456, Note_on_c, 0, 72, 0
1, 3456, Note_on_c, 0, 70, 80
1, 3456, Note_on_c, 1, 51, 80
1, 3456, Note_on_c, 1, 53, 80
1, 3456, Note_on_c, 1, 56, 80
1, 3456, Note_on_c, 1, 58, 80
1, 3456, Note_on_c, 1, 62, 80
1, 3468, Note_on_c, 0, 70, 0
1, 3468, Note_on_c, 0, 68, 80
1, 3480, Note_on_c, 0, 68, 0
1, 3480, Note_on_c, 0, 67, 80
1, 3492, Note_on_c, 0, 67, 0
1, 3492, Note_on_c, 0, 65, 80
1, 3504, Note_on_c, 0, 65, 0
1, 3504, Note_on_c, 0, 63, 80
1, 3516, Note_on_c, 0, 63, 0
1, 3516, Note_on_c, 0, 62, 80
1, 3528, Note_on_c, 0, 62, 0
1, 3528, Note_on_c, 0, 60, 80
1, 3540, Note_on_c, 0, 60, 0
1, 3540, Note_on_c, 0, 58, 80
1, 3552, Note_on_c, 0, 58, 0
1, 3552, Note_on_c, 0, 56, 80
1, 3562, Note_on_c, 0, 56, 0
1, 3562, Note_on_c, 0, 55, 80
1, 3572, Note_on_c, 0, 55, 0
1, 3572, Note_on_c, 0, 53, 80
1, 3582, Note_on_c, 0, 53, 0
1, 3582, Note_on_c, 0, 51, 80
1, 3592, Note_on_c, 0, 51, 0
1, 3592, Note_on_c, 0, 50, 80
1, 3596, Note_on_c, 1, 62, 0
1, 3596, Note_on_c, 1, 58, 0
1, 3596, Note_on_c, 1, 56, 0
1, 3596, Note_on_c, 1, 53, 0
1, 3596, Note_on_c, 1, 51, 0
1, 3602, Note_on_c, 0, 50, 0
1, 3602, Note_on_c, 0, 48, 80
1, 3612, Note_on_c, 0, 48, 0
1, 3612, Note_on_c, 0, 46, 80
1, 3621, Note_on_c, 0, 46, 0
1, 3621, Note_on_c, 0, 44, 80
1, 3630, Note_on_c, 0, 44, 0
1, 3630, Note_on_c, 0, 43, 80
1, 3639, Note_on_c, 0, 43, 0
1, 3639, Note_on_c, 0, 41, 80
1, 3648, Tempo, 1200000
1, 3648, Note_on_c, 0, 41, 0
1, 3648, Note_on_c, 1, 39, 80
1, 3730, Note_on_c, 1, 39, 0
1, 3744, Tempo, 714285
1, 3744, Note_on_c, 0, 84, 64
1, 3744, Note_on_c, 1, 75, 70
1, 3767, Note_on_c, 0, 84, 0
1, 3768, Note_on_c, 0, 79, 64
1, 3791, Note_on_c, 0, 79, 0
1, 3792, Note_on_c, 0, 84, 64
1, 3811, Note_on_c, 1, 75, 0
1, 3815, Note_on_c, 0, 84, 0
1, 3816, Note_on_c, 0, 79, 64
1, 3816, Note_on_c, 1, 77, 70
1, 3828, Note_on_c, 1, 77, 0
1, 3828, Note_on_c, 1, 75, 70
1, 3839, Note_on_c, 0, 79, 0
1, 3840, Note_on_c, 0, 84, 64
1, 3840, Note_on_c, 1, 75, 0
1, 3840, Note_on_c, 1, 74, 70
1, 3863, Note_on_c, 0, 84, 0
1, 3864, Note_on_c, 0, 77, 64
1, 3887, Note_on_c, 0, 77, 0
1, 3888, Note_on_c, 0, 84, 64
1, 3911, Note_on_c, 0, 84, 0
1, 3912, Note_on_c, 0, 77, 64
1, 3935, Note_on_c, 0, 77, 0
1, 3936, Note_on_c, 0, 82, 64
1, 3936, Note_on_c, 1, 74, 0
1, 3936, Note_on_c, 1, 73, 86
1, 3959, Note_on_c, 0, 82, 0
1, 3960, Note_on_c, 0, 77, 64
1, 3983, Note_on_c, 0, 77, 0
1, 3984, Note_on_c, 0, 82, 64
1, 4007, Note_on_c, 0, 82, 0
1, 4008, Note_on_c, 0, 77, 64
1, 4031, Note_on_c, 0, 77, 0
1, 4032, Note_on_c, 0, 82, 64
1, 4032, Note_on_c, 1, 73, 0
1, 4032, Note_on_c, 1, 72, 70
1, 4055, Note_on_c, 0, 82, 0
1, 4056, Note_on_c, 0, 76, 64
1, 4079, Note_on_c, 0, 76, 0
1, 4080, Note_on_c, 0, 82, 64
1, 4103, Note_on_c, 0, 82, 0
1, 4104, Note_on_c, 0, 76, 64
1, 4127, Note_on_c, 0, 76, 0
1, 4128, Note_on_c, 0, 80, 64
1, 4151, Note_on_c, 0, 80, 0
1, 4152, Note_on_c, 0, 75, 64
1, 4175, Note_on_c, 0, 75, 0
1, 4176, Note_on_c, 0, 80, 64
1, 4195, Note_on_c, 1, 72, 0
1, 4199, Note_on_c, 0, 80, 0
1, 4200, Note_on_c, 0, 75, 64
1, 4200, Note_on_c, 1, 74, 70
1, 4212, Note_on_c, 1, 74, 0
1, 4212, Note_on_c, 1, 72, 70
1, 4223, Note_on_c, 0, 75, 0
1, 4224, Note_on_c, 0, 80, 64
1, 4224, Note_on_c, 1, 72, 0
1, 4224, Note_on_c, 1, 70, 86
1, 4247, Note_on_c, 0, 80, 0
1, 4248, Note_on_c, 0, 74, 64
1, 4271, Note_on_c, 0, 74, 0
1, 4272, Note_on_c, 0, 80, 64
1, 4295, Note_on_c, 0, 80, 0
1, 4296, Note_on_c, 0, 74, 64
1, 4319, Note_on_c, 0, 74, 0
1, 4320, Note_on_c, 0, 79, 64
1, 4343, Note_on_c, 0, 79, 0
1, 4344, Note_on_c, 0, 73, 64
1, 4367, Note_on_c, 0, 73, 0
1, 4368, Note_on_c, 0, 79, 64
1, 4387, Note_on_c, 1, 70, 0
1, 4391, Note_on_c, 0, 79, 0
1, 4392, Note_on_c, 0, 73, 64
1, 4392, Note_on_c, 1, 72, 70
1, 4404, Note_on_c, 1, 72, 0
1, 4404, Note_on_c, 1, 70, 70
1, 4415, Note_on_c, 0, 73, 0
1, 4416, Note_on_c, 0, 79, 64
1, 4416, Note_on_c, 1, 70, 0
1, 4416, Note_on_c, 1, 69, 70
1, 4439, Note_on_c, 0, 79, 0
1, 4440, Note_on_c, 0, 72, 64
1, 4463, Note_on_c, 0, 72, 0
1, 4464, Note_on_c, 0, 79, 64
1, 4487, Note_on_c, 0, 79, 0
1, 4488, Note_on_c, 0, 72, 64
1, 4505, Note_on_c, 1, 69, 0
1, 4511, Note_on_c, 0, 72, 0
1, 4512, Note_on_c, 0, 77, 64
1, 4512, Note_on_c, 1, 68, 86
1, 4535, Note_on_c, 0, 77, 0
1, 4536, Note_on_c, 0, 72, 64
1, 4559, Note_on_c, 0, 72, 0
1, 4560, Note_on_c, 0, 77, 64
1, 4583, Note_on_c, 0, 77, 0
1, 4584, Note_on_c, 0, 72, 64
1, 4584, Note_on_c, 1, 68, 0
1, 4584, Note_on_c, 1, 70, 70
1, 4596, Note_on_c, 1, 70, 0
1, 4596, Note_on_c, 1, 68, 70
1, 4607, Note_on_c, 0, 72, 0
1, 4608, Note_on_c, 0, 77, 64
1, 4608, Note_on_c, 1, 68, 0
1, 4608, Note_on_c, 1, 67, 70
1, 4631, Note_on_c, 0, 77, 0
1, 4632, Note_on_c, 0, 70, 64
1, 4655, Note_on_c, 0, 70, 0
1, 4656, Note_on_c, 0, 77, 64
1, 4679, Note_on_c, 0, 77, 0
1, 4680, Note_on_c, 0, 70, 64
1, 4697, Note_on_c, 1, 67, 0
1, 4703, Note_on_c, 0, 70, 0
1, 4704, Note_on_c, 0, 75, 64
1, 4704, Note_on_c, 1, 66, 86
1, 4727, Note_on_c, 0, 75, 0
1, 4728, Note_on_c, 0, 70, 64
1, 4751, Note_on_c, 0, 70, 0
1, 4752, Note_on_c, 0, 75, 64
1, 4775, Note_on_c, 0, 75, 0
1, 4776, Note_on_c, 0, 70, 64
1, 4799, Note_on_c, 0, 70, 0
1, 4800, Note_on_c, 0, 75, 64
1, 4800, Note_on_c, 1, 66, 0
1, 4800, Note_on_c, 1, 65, 70
1, 4823, Note_on_c, 0, 75, 0
1, 4824, Note_on_c, 0, 69, 64
1, 4847, Note_on_c, 0, 69, 0
1, 4848, Note_on_c, 0, 75, 64
1, 4871, Note_on_c, 0, 75, 0
1, 4872, Note_on_c, 0, 69, 64
1, 4889, Note_on_c, 1, 65, 0
1, 4895, Note_on_c, 0, 69, 0
1, 4896, Note_on_c, 0, 73, 64
1, 4896, Note_on_c, 1, 64, 86
1, 4919, Note_on_c, 0, 73, 0
1, 4920, Note_on_c, 0, 70, 64
1, 4943, Note_on_c, 0, 70, 0
1, 4944, Note_on_c, 0, 73, 64
1, 4967, Note_on_c, 0, 73, 0
1, 4968, Note_on_c, 0, 70, 64
1, 4991, Note_on_c, 0, 70, 0
1, 4992, Note_on_c, 0, 69, 64
1, 4992, Note_on_c, 1, 64, 0
1, 4992, Note_on_c, 1, 65, 70
1, 4992, Note_on_c, 1, 53, 64
1, 5015, Note_on_c, 0, 69, 0
1, 5016, Note_on_c, 0, 72, 64
1, 5039, Note_on_c, 0, 72, 0
1, 5040, Note_on_c, 0, 77, 64
1, 5063, Note_on_c, 0, 77, 0
1, 5064, Note_on_c, 0, 72, 64
1, 5081, Note_on_c, 1, 65, 0
1, 5087, Note_on_c, 0, 72, 0
1, 5088, Note_on_c, 0, 78, 64
1, 5088, Note_on_c, 1, 63, 83
1, 5111, Note_on_c, 0, 78, 0
1, 5112, Note_on_c, 0, 69, 64
1, 5135, Note_on_c, 0, 69, 0
1, 5136, Note_on_c, 0, 81, 64
1, 5155, Note_on_c, 1, 63, 0
1, 5159, Note_on_c, 0, 81, 0
1, 5160, Note_on_c, 0, 72, 64
1, 5160, Note_on_c, 1, 65, 70
1, 5172, Note_on_c, 1, 65, 0
1, 5172, Note_on_c, 1, 63, 70
1, 5183, Note_on_c, 0, 72, 0
1, 5184, Note_on_c, 0, 82, 64
1, 5184, Note_on_c, 1, 63, 0
1, 5184, Note_on_c, 1, 61, 70
1, 5207, Note_on_c, 0, 82, 0
1, 5208, Note_on_c, 0, 70, 64
1, 5229, Note_on_c, 1, 61, 0
1, 5231, Note_on_c, 0, 70, 0
1, 5232, Note_on_c, 0, 78, 64
1, 5232, Note_on_c, 1, 58, 70
1, 5255, Note_on_c, 0, 78, 0
1, 5256, Note_on_c, 0, 70, 64
1, 5277, Note_on_c, 1, 58, 0
1, 5279, Note_on_c, 0, 70, 0
1, 5280, Note_on_c, 0, 77, 64
1, 5280, Note_on_c, 1, 60, 70
1, 5303, Note_on_c, 0, 77, 0
1, 5304, Note_on_c, 0, 70, 64
1, 5325, Note_on_c, 1, 60, 0
1, 5327, Note_on_c, 0, 70, 0
1, 5328, Note_on_c, 0, 76, 64
1, 5328, Note_on_c, 1, 61, 70
1, 5346, Note_on_c, 1, 53, 0
1, 5351, Note_on_c, 0, 76, 0
1, 5352, Note_on_c, 0, 70, 64
1, 5373, Note_on_c, 1, 61, 0
1, 5375, Note_on_c, 0, 70, 0
1, 5376, Note_on_c, 0, 69, 64
1, 5376, Note_on_c, 1, 60, 70
1, 5376, Note_on_c, 1, 53, 64
1, 5399, Note_on_c, 0, 69, 0
1, 5400, Note_on_c, 0, 72, 64
1, 5423, Note_on_c, 0, 72, 0
1, 5424, Note_on_c, 0, 77, 64
1, 5447, Note_on_c, 0, 77, 0
1, 5448, Note_on_c, 0, 72, 64
1, 5465, Note_on_c, 1, 60, 0
1, 5471, Note_on_c, 0, 72, 0
1, 5472, Note_on_c, 0, 78, 64
1, 5472, Note_on_c, 1, 63, 83
1, 5495, Note_on_c, 0, 78, 0
1, 5496, Note_on_c, 0, 69, 64
1, 5519, Note_on_c, 0, 69, 0
1, 5520, Note_on_c, 0, 81, 64
1, 5539, Note_on_c, 1, 63, 0
1, 5543, Note_on_c, 0, 81, 0
1, 5544, Note_on_c, 0, 72, 64
1, 5544, Note_on_c, 1, 65, 70
1, 5556, Note_on_c, 1, 65, 0
1, 5556, Note_on_c, 1, 63, 70
1, 5567, Note_on_c, 0, 72, 0
1, 5568, Note_on_c, 0, 82, 64
1, 5568, Note_on_c, 1, 63, 0
1, 5568, Note_on_c, 1, 61, 70
1, 5591, Note_on_c, 0, 82, 0
1, 5592, Note_on_c, 0, 70, 64
1, 5613, Note_on_c, 1, 61, 0
1, 5615, Note_on_c, 0, 70, 0
1, 5616, Note_on_c, 0, 78, 64
1, 5616, Note_on_c, 1, 58, 70
1, 5639, Note_on_c, 0, 78, 0
1, 5640, Note_on_c, 0, 70, 64
1, 5661, Note_on_c, 1, 58, 0
1, 5663, Note_on_c, 0, 70, 0
1, 5664, Note_on_c, 0, 77, 64
1, 5664, Note_on_c, 1, 60, 70
1, 5687, Note_on_c, 0, 77, 0
1, 5688, Note_on_c, 0, 70, 64
1, 5709, Note_on_c, 1, 60, 0
1, 5711, Note_on_c, 0, 70, 0
1, 5712, Note_on_c, 0, 76, 64
1, 5712, Note_on_c, 1, 61, 70
1, 5730, Note_on_c, 1, 53, 0
1, 5735, Note_on_c, 0, 76, 0
1, 5736, Note_on_c, 0, 70, 64
1, 5757, Note_on_c, 1, 61, 0
1, 5759, Note_on_c, 0, 70, 0
1, 5760, Note_on_c, 0, 77, 64
1, 5760, Note_on_c, 1, 60, 64
1, 5760, Note_on_c, 1, 53, 64
1, 5783, Note_on_c, 0, 77, 0
1, 5784, Note_on_c, 0, 69, 65
1, 5807, Note_on_c, 0, 69, 0
1, 5808, Note_on_c, 0, 72, 66
1, 5831, Note_on_c, 0, 72, 0
1, 5832, Note_on_c, 0, 69, 67
1, 5849, Note_on_c, 1, 60, 0
1, 5855, Note_on_c, 0, 69, 0
1, 5856, Note_on_c, 0, 77, 68
1, 5856, Note_on_c, 1, 60, 68
1, 5856, Note_on_c, 1, 57, 68
1, 5871, Note_on_c, 0, 77, 0
1, 5872, Note_on_c, 0, 72, 68
1, 5887, Note_on_c, 0, 72, 0
1, 5888, Note_on_c, 0, 69, 69
1, 5903, Note_on_c, 0, 69, 0
1, 5904, Note_on_c, 0, 77, 69
1, 5919, Note_on_c, 0, 77, 0
1, 5920, Note_on_c, 0, 72, 70
1, 5935, Note_on_c, 0, 72, 0
1, 5936, Note_on_c, 0, 69, 70
1, 5945, Note_on_c, 1, 60, 0
1, 5945, Note_on_c, 1, 57, 0
1, 5951, Note_on_c, 0, 69, 0
1, 5952, Note_on_c, 0, 76, 71
1, 5952, Note_on_c, 1, 61, 72
1, 5952, Note_on_c, 1, 58, 72
1, 5967, Note_on_c, 0, 76, 0
1, 5968, Note_on_c, 0, 70, 71
1, 5983, Note_on_c, 0, 70, 0
1, 5984, Note_on_c, 0, 67, 72
1, 5999, Note_on_c, 0, 67, 0
1, 6000, Note_on_c, 0, 76, 72
1, 6015, Note_on_c, 0, 76, 0
1, 6016, Note_on_c, 0, 70, 73
1, 6031, Note_on_c, 0, 70, 0
1, 6032, Note_on_c, 0, 67, 73
1, 6041, Note_on_c, 1, 61, 0
1, 6041, Note_on_c, 1, 58, 0
1, 6047, Note_on_c, 0, 67, 0
1, 6048, Note_on_c, 0, 75, 74
1, 6048, Note_on_c, 1, 60, 76
1, 6048, Note_on_c, 1, 57, 76
1, 6063, Note_on_c, 0, 75, 0
1, 6064, Note_on_c, 0, 72, 74
1, 6079, Note_on_c, 0, 72, 0
1, 6080, Note_on_c, 0, 65, 75
1, 6095, Note_on_c, 0, 65, 0
1, 6096, Note_on_c, 0, 75, 75
1, 6111, Note_on_c, 0, 75, 0
1, 6112, Note_on_c, 0, 72, 76
1, 6114, Note_on_c, 1, 53, 0
1, 6127, Note_on_c, 0, 72, 0
1, 6128, Note_on_c, 0, 65, 76
1, 6137, Note_on_c, 1, 60, 0
1, 6137, Note_on_c, 1, 57, 0
1, 6143, Note_on_c, 0, 65, 0
1, 6144, Note_on_c, 0, 62, 80
1, 6144, Note_on_c, 1, 46, 80
1, 6150, Note_on_c, 1, 50, 80
1, 6152, Note_on_c, 0, 65, 80
1, 6156, Note_on_c, 1, 53, 80
1, 6160, Note_on_c, 0, 70, 80
1, 6162, Note_on_c, 1, 58, 80
1, 6237, Note_on_c, 0, 70, 0
1, 6237, Note_on_c, 0, 65, 0
1, 6237, Note_on_c, 0, 62, 0
1, 6237, Note_on_c, 1, 58, 0
1, 6237, Note_on_c, 1, 53, 0
1, 6237, Note_on_c, 1, 50, 0
1, 6237, Note_on_c, 1, 46, 0
1, 6240, Note_on_c, 0, 74, 80
1, 6240, Note_on_c, 0, 70, 80
1, 6240, Note_on_c, 0, 68, 80
1, 6240, Note_on_c, 1, 46, 80
1, 6240, Note_on_c, 1, 50, 80
1, 6240, Note_on_c, 1, 53, 80
1, 6240, Note_on_c, 1, 56, 80
1, 6307, Note_on_c, 0, 74, 0
1, 6307, Note_on_c, 0, 70, 0
1, 6307, Note_on_c, 0, 68, 0
1, 6312, Note_on_c, 0, 74, 80
1, 6312, Note_on_c, 0, 70, 80
1, 6312, Note_on_c, 0, 68, 80
1, 6329, Note_on_c, 1, 56, 0
1, 6329, Note_on_c, 1, 53, 0
1, 6329, Note_on_c, 1, 50, 0
1, 6329, Note_on_c, 1, 46, 0
1, 6335, Note_on_c, 0, 74, 0
1, 6335, Note_on_c, 0, 70, 0
1, 6335, Note_on_c, 0, 68, 0
1, 6336, Note_on_c, 0, 63, 80
1, 6336, Note_on_c, 1, 46, 80
1, 6342, Note_on_c, 0, 67, 80
1, 6342, Note_on_c, 1, 51, 80
1, 6348, Note_on_c, 0, 70, 80
1, 6348, Note_on_c, 1, 55, 80
1, 6354, Note_on_c, 0, 75, 80
1, 6354, Note_on_c, 1, 58, 80
1, 6451, Note_on_c, 0, 75, 0
1, 6451, Note_on_c, 0, 70, 0
1, 6451, Note_on_c, 0, 67, 0
1, 6451, Note_on_c, 0, 63, 0
1, 6456, Note_on_c, 0, 79, 80
1, 6468, Note_on_c, 0, 79, 0
1, 6468, Note_on_c, 0, 77, 80
1, 6480, Note_on_c, 0, 77, 0
1, 6480, Note_on_c, 0, 75, 80
1, 6492, Note_on_c, 0, 75, 0
1, 6492, Note_on_c, 0, 74, 80
1, 6504, Note_on_c, 0, 74, 0
1, 6504, Note_on_c, 0, 72, 80
1, 6516, Note_on_c, 0, 72, 0
1, 6516, Note_on_c, 0, 70, 80
1, 6517, Note_on_c, 1, 58, 0
1, 6517, Note_on_c, 1, 55, 0
1, 6517, Note_on_c, 1, 51, 0
1, 6517, Note_on_c, 1, 46, 0
1, 6528, Note_on_c, 0, 70, 0
1, 6528, Note_on_c, 0, 69, 80
1, 6528, Note_on_c, 1, 57, 80
1, 6528, Note_on_c, 1, 51, 80
1, 6528, Note_on_c, 1, 48, 80
1, 6528, Note_on_c, 1, 46, 80
1, 6540, Note_on_c, 0, 69, 0
1, 6540, Note_on_c, 0, 70, 80
1, 6552, Note_on_c, 0, 70, 0
1, 6552, Note_on_c, 0, 72, 80
1, 6564, Note_on_c, 0, 72, 0
1, 6564, Note_on_c, 0, 74, 80
1, 6576, Note_on_c, 0, 74, 0
1, 6576, Note_on_c, 0, 75, 80
1, 6588, Note_on_c, 0, 75, 0
1, 6588, Note_on_c, 0, 77, 80
1, 6600, Note_on_c, 0, 77, 0
1, 6600, Note_on_c, 0, 79, 80
1, 6612, Note_on_c, 0, 79, 0
1, 6612, Note_on_c, 0, 81, 80
1, 6624, Note_on_c, 0, 81, 0
1, 6624, Note_on_c, 0, 82, 80
1, 6636, Note_on_c, 0, 82, 0
1, 6636, Note_on_c, 0, 84, 80
1, 6648, Note_on_c, 0, 84, 0
1, 6648, Note_on_c, 0, 86, 80
1, 6660, Note_on_c, 0, 86, 0
1, 6660, Note_on_c, 0, 87, 80
1, 6672, Note_on_c, 0, 87, 0
1, 6672, Note_on_c, 0, 89, 80
1, 6682, Note_on_c, 0, 89, 0
1, 6696, Note_on_c, 0, 87, 80
1, 6705, Note_on_c, 1, 57, 0
1, 6705, Note_on_c, 1, 51, 0
1, 6705, Note_on_c, 1, 48, 0
1, 6705, Note_on_c, 1, 46, 0
1, 6706, Note_on_c, 0, 87, 0
1, 6720, Note_on_c, 0, 86, 80
1, 6720, Note_on_c, 1, 58, 80
1, 6720, Note_on_c, 1, 53, 80
1, 6720, Note_on_c, 1, 50, 80
1, 6720, Note_on_c, 1, 46, 80
1, 6730, Note_on_c, 0, 86, 0
1, 6744, Note_on_c, 0, 84, 80
1, 6754, Note_on_c, 0, 84, 0
1, 6768, Note_on_c, 0, 82, 80
1, 6778, Note_on_c, 0, 82, 0
1, 6792, Note_on_c, 0, 81, 80
1, 6802, Note_on_c, 0, 81, 0
1, 6809, Note_on_c, 1, 58, 0
1, 6809, Note_on_c, 1, 53, 0
1, 6809, Note_on_c, 1, 50, 0
1, 6809, Note_on_c, 1, 46, 0
1, 6816, Note_on_c, 0, 79, 80
1, 6826, Note_on_c, 0, 79, 0
1, 6840, Note_on_c, 0, 77, 80
1, 6850, Note_on_c, 0, 77, 0
1, 6864, Note_on_c, 0, 75, 80
1, 6874, Note_on_c, 0, 75, 0
1, 6888, Note_on_c, 0, 74, 80
1, 6898, Note_on_c, 0, 74, 0
1, 6912, Note_on_c, 0, 72, 80
1, 6912, Note_on_c, 1, 57, 80
1, 6912, Note_on_c, 1, 51, 80
1, 6912, Note_on_c, 1, 48, 80
1, 6912, Note_on_c, 1, 46, 80
1, 6922, Note_on_c, 0, 72, 0
1, 6922, Note_on_c, 0, 70, 80
1, 6932, Note_on_c, 0, 70, 0
1, 6932, Note_on_c, 0, 69, 80
1, 6942, Note_on_c, 0, 69, 0
1, 6942, Note_on_c, 0, 70, 80
1, 6952, Note_on_c, 0, 70, 0
1, 6952, Note_on_c, 0, 72, 80
1, 6962, Note_on_c, 0, 72, 0
1, 6962, Note_on_c, 0, 74, 80
1, 6972, Note_on_c, 0, 74, 0
1, 6972, Note_on_c, 0, 75, 80
1, 6981, Note_on_c, 0, 75, 0
1, 6981, Note_on_c, 0, 77, 80
1, 6990, Note_on_c, 0, 77, 0
1, 6990, Note_on_c, 0, 79, 80
1, 6999, Note_on_c, 0, 79, 0
1, 6999, Note_on_c, 0, 81, 80
1, 7008, Note_on_c, 0, 81, 0
1, 7008, Note_on_c, 0, 82, 80
1, 7020, Note_on_c, 0, 82, 0
1, 7020, Note_on_c, 0, 84, 80
1, 7032, Note_on_c, 0, 84, 0
1, 7032, Note_on_c, 0, 86, 80
1, 7044, Note_on_c, 0, 86, 0
1, 7044, Note_on_c, 0, 87, 80
1, 7056, Note_on_c, 0, 87, 0
1, 7056, Note_on_c, 0, 89, 80
1, 7079, Note_on_c, 0, 89, 0
1, 7080, Note_on_c, 0, 87, 79
1, 7089, Note_on_c, 1, 57, 0
1, 7089, Note_on_c, 1, 51, 0
1, 7089, Note_on_c, 1, 48, 0
1, 7089, Note_on_c, 1, 46, 0
1, 7103, Note_on_c, 0, 87, 0
1, 7104, Note_on_c, 0, 86, 79
1, 7104, Note_on_c, 1, 58, 80
1, 7104, Note_on_c, 1, 53, 80
1, 7104, Note_on_c, 1, 50, 80
1, 7104, Note_on_c, 1, 46, 80
1, 7110, Note_on_c, 0, 86, 0
1, 7110, Note_on_c, 0, 87, 79
1, 7116, Note_on_c, 0, 87, 0
1, 7116, Note_on_c, 0, 86, 79
1, 7127, Note_on_c, 0, 86, 0
1, 7128, Note_on_c, 0, 84, 78
1, 7151, Note_on_c, 0, 84, 0
1, 7152, Note_on_c, 0, 82, 78
1, 7158, Note_on_c, 0, 82, 0
1, 7158, Note_on_c, 0, 84, 78
1, 7164, Note_on_c, 0, 84, 0
1, 7164, Note_on_c, 0, 82, 78
1, 7175, Note_on_c, 0, 82, 0
1, 7176, Note_on_c, 0, 81, 77
1, 7193, Note_on_c, 1, 58, 0
1, 7193, Note_on_c, 1, 53, 0
1, 7193, Note_on_c, 1, 50, 0
1, 7193, Note_on_c, 1, 46, 0
1, 7199, Note_on_c, 0, 81, 0
1, 7200, Note_on_c, 0, 79, 77
1, 7206, Note_on_c, 0, 79, 0
1, 7206, Note_on_c, 0, 81, 77
1, 7212, Note_on_c, 0, 81, 0
1, 7212, Note_on_c, 0, 79, 77
1, 7223, Note_on_c, 0, 79, 0
1, 7224, Note_on_c, 0, 77, 76
1, 7247, Note_on_c, 0, 77, 0
1, 7248, Note_on_c, 0, 75, 76
1, 7254, Note_on_c, 0, 75, 0
1, 7254, Note_on_c, 0, 77, 76
1, 7260, Note_on_c, 0, 77, 0
1, 7260, Note_on_c, 0, 75, 76
1, 7271, Note_on_c, 0, 75, 0
1, 7272, Note_on_c, 0, 74, 75
1, 7295, Note_on_c, 0, 74, 0
1, 7296, Note_on_c, 0, 79, 75
1, 7296, Note_on_c, 0, 74, 75
1, 7296, Note_on_c, 1, 51, 75
1, 7319, Note_on_c, 0, 74, 0
1, 7319, Note_on_c, 1, 51, 0
1, 7320, Note_on_c, 0, 77, 75
1, 7320, Note_on_c, 1, 55, 75
1, 7343, Note_on_c, 0, 77, 0
1, 7343, Note_on_c, 1, 55, 0
1, 7344, Note_on_c, 0, 75, 75
1, 7344, Note_on_c, 1, 57, 75
1, 7367, Note_on_c, 0, 75, 0
1, 7367, Note_on_c, 1, 57, 0
1, 7368, Note_on_c, 0, 74, 75
1, 7368, Note_on_c, 1, 59, 75
1, 7391, Note_on_c, 0, 74, 0
1, 7391, Note_on_c, 1, 59, 0
1, 7392, Note_on_c, 0, 75, 75
1, 7392, Note_on_c, 1, 60, 75
1, 7415, Note_on_c, 0, 79, 0
1, 7416, Note_on_c, 0, 82, 75
1, 7439, Note_on_c, 0, 82, 0
1, 7440, Note_on_c, 0, 81, 75
1, 7459, Note_on_c, 1, 60, 0
1, 7463, Note_on_c, 0, 81, 0
1, 7464, Note_on_c, 0, 79, 75
1, 7464, Note_on_c, 1, 58, 75
1, 7487, Note_on_c, 0, 79, 0
1, 7487, Note_on_c, 1, 58, 0
1, 7488, Note_on_c, 0, 77, 75
1, 7488, Note_on_c, 1, 57, 75
1, 7511, Note_on_c, 0, 75, 0
1, 7511, Note_on_c, 1, 57, 0
1, 7512, Note_on_c, 0, 74, 75
1, 7512, Note_on_c, 1, 65, 75
1, 7535, Note_on_c, 0, 74, 0
1, 7535, Note_on_c, 1, 65, 0
1, 7536, Note_on_c, 0, 75, 75
1, 7536, Note_on_c, 1, 67, 75
1, 7559, Note_on_c, 0, 75, 0
1, 7559, Note_on_c, 1, 67, 0
1, 7560, Note_on_c, 0, 72, 75
1, 7560, Note_on_c, 1, 69, 75
1, 7583, Note_on_c, 0, 72, 0
1, 7583, Note_on_c, 1, 69, 0
1, 7584, Note_on_c, 0, 74, 75
1, 7584, Note_on_c, 1, 70, 75
1, 7607, Note_on_c, 0, 77, 0
1, 7608, Note_on_c, 0, 82, 75
1, 7631, Note_on_c, 0, 82, 0
1, 7632, Note_on_c, 0, 81, 75
1, 7655, Note_on_c, 0, 81, 0
1, 7656, Note_on_c, 0, 79, 75
1, 7673, Note_on_c, 0, 74, 0
1, 7673, Note_on_c, 1, 70, 0
1, 7679, Note_on_c, 0, 79, 0
1, 7680, Note_on_c, 0, 77, 75
1, 7680, Note_on_c, 1, 72, 75
1, 7680, Note_on_c, 1, 70, 75
1, 7680, Note_on_c, 1, 67, 75
1, 7703, Note_on_c, 0, 77, 0
1, 7704, Note_on_c, 0, 76, 74
1, 7727, Note_on_c, 0, 76, 0
1, 7728, Note_on_c, 0, 79, 73
1, 7751, Note_on_c, 0, 79, 0
1, 7752, Note_on_c, 0, 77, 73
1, 7775, Note_on_c, 0, 77, 0
1, 7776, Note_on_c, 0, 76, 72
1, 7799, Note_on_c, 0, 76, 0
1, 7800, Note_on_c, 0, 82, 72
1, 7823, Note_on_c, 0, 82, 0
1, 7824, Note_on_c, 0, 81, 71
1, 7847, Note_on_c, 0, 81, 0
1, 7848, Note_on_c, 0, 79, 71
1, 7857, Note_on_c, 1, 72, 0
1, 7857, Note_on_c, 1, 70, 0
1, 7857, Note_on_c, 1, 67, 0
1, 7871, Note_on_c, 0, 79, 0
1, 7872, Note_on_c, 0, 77, 70
1, 7872, Note_on_c, 1, 73, 70
1, 7872, Note_on_c, 1, 67, 70
1, 7895, Note_on_c, 0, 77, 0
1, 7896, Note_on_c, 0, 76, 70
1, 7919, Note_on_c, 0, 76, 0
1, 7920, Note_on_c, 0, 79, 70
1, 7943, Note_on_c, 0, 79, 0
1, 7944, Note_on_c, 0, 77, 70
1, 7967, Note_on_c, 0, 77, 0
1, 7968, Note_on_c, 0, 76, 70
1, 7991, Note_on_c, 0, 76, 0
1, 7992, Note_on_c, 0, 82, 70
1, 8015, Note_on_c, 0, 82, 0
1, 8016, Note_on_c, 0, 81, 70
1, 8039, Note_on_c, 0, 81, 0
1, 8040, Note_on_c, 0, 79, 70
1, 8063, Note_on_c, 0, 79, 0
1, 8064, Note_on_c, 0, 77, 64
1, 8064, Note_on_c, 1, 73, 0
1, 8064, Note_on_c, 1, 72, 86
1, 8087, Note_on_c, 0, 77, 0
1, 8088, Note_on_c, 0, 76, 64
1, 8111, Note_on_c, 0, 76, 0
1, 8112, Note_on_c, 0, 79, 64
1, 8135, Note_on_c, 0, 79, 0
1, 8136, Note_on_c, 0, 77, 64
1, 8159, Note_on_c, 0, 77, 0
1, 8160, Note_on_c, 0, 76, 64
1, 8160, Note_on_c, 1, 72, 0
1, 8160, Note_on_c, 1, 70, 70
1, 8183, Note_on_c, 0, 76, 0
1, 8184, Note_on_c, 0, 82, 64
1, 8207, Note_on_c, 0, 82, 0
1, 8208, Note_on_c, 0, 79, 64
1, 8231, Note_on_c, 0, 79, 0
1, 8232, Note_on_c, 0, 76, 64
1, 8241, Note_on_c, 1, 67, 0
1, 8249, Note_on_c, 1, 70, 0
1, 8255, Note_on_c, 0, 76, 0
1, 8256, Note_on_c, 0, 79, 64
1, 8256, Note_on_c, 1, 69, 70
1, 8256, Note_on_c, 1, 65, 70
1, 8279, Note_on_c, 0, 79, 0
1, 8280, Note_on_c, 0, 77, 64
1, 8303, Note_on_c, 0, 77, 0
1, 8304, Note_on_c, 0, 76, 64
1, 8327, Note_on_c, 0, 76, 0
1, 8328, Note_on_c, 0, 77, 64
1, 8351, Note_on_c, 0, 77, 0
1, 8352, Note_on_c, 0, 76, 64
1, 8375, Note_on_c, 0, 76, 0
1, 8376, Note_on_c, 0, 77, 64
1, 8389, Note_on_c, 1, 69, 0
1, 8389, Note_on_c, 1, 65, 0
1, 8399, Note_on_c, 0, 77, 0
1, 8400, Note_on_c, 0, 82, 77
1, 8400, Note_on_c, 0, 79, 77
1, 8400, Note_on_c, 0, 75, 77
1, 8400, Note_on_c, 0, 70, 77
1, 8400, Note_on_c, 1, 67, 83
1, 8400, Note_on_c, 1, 63, 83
1, 8400, Note_on_c, 1, 58, 83
1, 8400, Note_on_c, 1, 55, 83
1, 8423, Note_on_c, 0, 82, 0
1, 8423, Note_on_c, 0, 79, 0
1, 8423, Note_on_c, 0, 75, 0
1, 8423, Note_on_c, 0, 70, 0
1, 8424, Note_on_c, 0, 75, 80
1, 8445, Note_on_c, 1, 67, 0
1, 8445, Note_on_c, 1, 63, 0
1, 8445, Note_on_c, 1, 58, 0
1, 8445, Note_on_c, 1, 55, 0
1, 8448, Note_on_c, 0, 75, 0
1, 8448, Note_on_c, 0, 75, 80
1, 8448, Note_on_c, 1, 69, 80
1, 8448, Note_on_c, 1, 65, 80
1, 8472, Note_on_c, 0, 75, 0
1, 8472, Note_on_c, 0, 74, 64
1, 8495, Note_on_c, 0, 74, 0
1, 8496, Note_on_c, 0, 73, 65
1, 8519, Note_on_c, 0, 73, 0
1, 8520, Note_on_c, 0, 74, 66
1, 8543, Note_on_c, 0, 74, 0
1, 8544, Note_on_c, 0, 73, 67
1, 8567, Note_on_c, 0, 73, 0
1, 8568, Note_on_c, 0, 74, 68
1, 8591, Note_on_c, 0, 74, 0
1, 8592, Note_on_c, 0, 79, 82
1, 8592, Note_on_c, 0, 75, 82
1, 8592, Note_on_c, 0, 72, 82
1, 8592, Note_on_c, 0, 67, 82
1, 8592, Note_on_c, 1, 69, 0
1, 8592, Note_on_c, 1, 65, 0
1, 8592, Note_on_c, 1, 60, 82
1, 8592, Note_on_c, 1, 55, 82
1, 8592, Note_on_c, 1, 51, 82
1, 8615, Note_on_c, 0, 79, 0
1, 8615, Note_on_c, 0, 75, 0
1, 8615, Note_on_c, 0, 72, 0
1, 8615, Note_on_c, 0, 67, 0
1, 8616, Note_on_c, 0, 72, 86
1, 8637, Note_on_c, 1, 60, 0
1, 8637, Note_on_c, 1, 55, 0
1, 8637, Note_on_c, 1, 51, 0
1, 8640, Note_on_c, 0, 72, 0
1, 8640, Note_on_c, 0, 72, 87
1, 8640, Note_on_c, 1, 65, 87
1, 8640, Note_on_c, 1, 62, 87
1, 8664, Note_on_c, 0, 72, 0
1, 8664, Note_on_c, 0, 70, 72
1, 8687, Note_on_c, 0, 70, 0
1, 8688, Note_on_c, 0, 69, 73
1, 8711, Note_on_c, 0, 69, 0
1, 8712, Note_on_c, 0, 70, 74
1, 8735, Note_on_c, 0, 70, 0
1, 8736, Note_on_c, 0, 69, 75
1, 8759, Note_on_c, 0, 69, 0
1, 8760, Note_on_c, 0, 70, 76
1, 8783, Note_on_c, 0, 70, 0
1, 8784, Note_on_c, 0, 77, 90
1, 8784, Note_on_c, 0, 74, 90
1, 8784, Note_on_c, 0, 70, 90
1, 8784, Note_on_c, 0, 65, 90
1, 8784, Note_on_c, 1, 65, 0
1, 8784, Note_on_c, 1, 62, 0
1, 8784, Note_on_c, 1, 62, 89
1, 8784, Note_on_c, 1, 58, 89
1, 8784, Note_on_c, 1, 53, 89
1, 8784, Note_on_c, 1, 50, 89
1, 8807, Note_on_c, 0, 77, 0
1, 8807, Note_on_c, 0, 74, 0
1, 8807, Note_on_c, 0, 70, 0
1, 8807, Note_on_c, 0, 65, 0
1, 8808, Note_on_c, 0, 70, 94
1, 8829, Note_on_c, 1, 62, 0
1, 8829, Note_on_c, 1, 58, 0
1, 8829, Note_on_c, 1, 53, 0
1, 8829, Note_on_c, 1, 50, 0
1, 8832, Note_on_c, 0, 70, 0
1, 8832, Note_on_c, 0, 69, 95
1, 8832, Note_on_c, 1, 60, 78
1, 8832, Note_on_c, 1, 57, 78
1, 8832, Note_on_c, 1, 53, 78
1, 8832, Note_on_c, 1, 51, 78
1, 8844, Note_on_c, 0, 69, 0
1, 8844, Note_on_c, 0, 79, 80
1, 8856, Note_on_c, 0, 79, 0
1, 8856, Note_on_c, 0, 77, 80
1, 8868, Note_on_c, 0, 77, 0
1, 8868, Note_on_c, 0, 75, 80
1, 8877, Note_on_c, 1, 60, 0
1, 8877, Note_on_c, 1, 57, 0
1, 8877, Note_on_c, 1, 53, 0
1, 8877, Note_on_c, 1, 51, 0
1, 8880, Note_on_c, 0, 75, 0
1, 8880, Note_on_c, 0, 74, 80
1, 8892, Note_on_c, 0, 74, 0
1, 8892, Note_on_c, 0, 72, 80
1, 8904, Note_on_c, 0, 72, 0
1, 8904, Note_on_c, 0, 70, 80
1, 8916, Note_on_c, 0, 70, 0
1, 8916, Note_on_c, 0, 69, 80
1, 8928, Note_on_c, 0, 69, 0
1, 8928, Note_on_c, 0, 70, 80
1, 8928, Note_on_c, 1, 62, 75
1, 8928, Note_on_c, 1, 58, 75
1, 8928, Note_on_c, 1, 53, 75
1, 8928, Note_on_c, 1, 50, 75
1, 8940, Note_on_c, 0, 70, 0
1, 8940, Note_on_c, 0, 77, 78
1, 8952, Note_on_c, 0, 77, 0
1, 8952, Note_on_c, 0, 79, 77
1, 8964, Note_on_c, 0, 79, 0
1, 8964, Note_on_c, 0, 77, 76
1, 8973, Note_on_c, 1, 62, 0
1, 8973, Note_on_c, 1, 58, 0
1, 8973, Note_on_c, 1, 53, 0
1, 8973, Note_on_c, 1, 50, 0
1, 8976, Note_on_c, 0, 77, 0
1, 8976, Note_on_c, 0, 75, 75
1, 8988, Note_on_c, 0, 75, 0
1, 8988, Note_on_c, 0, 74, 73
1, 9000, Note_on_c, 0, 74, 0
1, 9000, Note_on_c, 0, 72, 72
1, 9012, Note_on_c, 0, 72, 0
1, 9012, Note_on_c, 0, 70, 71
1, 9024, Note_on_c, 0, 70, 0
1, 9024, Note_on_c, 0, 69, 70
1, 9024, Note_on_c, 1, 60, 70
1, 9024, Note_on_c, 1, 57, 70
1, 9024, Note_on_c, 1, 53, 70
1, 9024, Note_on_c, 1, 51, 70
1, 9036, Note_on_c, 0, 69, 0
1, 9036, Note_on_c, 0, 79, 70
1, 9048, Note_on_c, 0, 79, 0
1, 9048, Note_on_c, 0, 77, 70
1, 9060, Note_on_c, 0, 77, 0
1, 9060, Note_on_c, 0, 75, 70
1, 9069, Note_on_c, 1, 60, 0
1, 9069, Note_on_c, 1, 57, 0
1, 9069, Note_on_c, 1, 53, 0
1, 9069, Note_on_c, 1, 51, 0
1, 9072, Note_on_c, 0, 75, 0
1, 9072, Note_on_c, 0, 74, 70
1, 9084, Note_on_c, 0, 74, 0
1, 9084, Note_on_c, 0, 72, 70
1, 9096, Note_on_c, 0, 72, 0
1, 9096, Note_on_c, 0, 70, 70
1, 9108, Note_on_c, 0, 70, 0
1, 9108, Note_on_c, 0, 69, 70
1, 9120, Note_on_c, 0, 69, 0
1, 9120, Note_on_c, 0, 70, 70
1, 9120, Note_on_c, 1, 62, 75
1, 9120, Note_on_c, 1, 58, 75
1, 9120, Note_on_c, 1, 53, 75
1, 9120, Note_on_c, 1, 50, 75
1, 9132, Note_on_c, 0, 70, 0
1, 9132, Note_on_c, 0, 72, 71
1, 9144, Note_on_c, 0, 72, 0
1, 9144, Note_on_c, 0, 74, 72
1, 9156, Note_on_c, 0, 74, 0
1, 9156, Note_on_c, 0, 75, 73
1, 9165, Note_on_c, 1, 62, 0
1, 9165, Note_on_c, 1, 58, 0
1, 9165, Note_on_c, 1, 53, 0
1, 9165, Note_on_c, 1, 50, 0
1, 9168, Note_on_c, 0, 75, 0
1, 9168, Note_on_c, 0, 77, 75
1, 9180, Note_on_c, 0, 77, 0
1, 9180, Note_on_c, 0, 79, 76
1, 9192, Note_on_c, 0, 79, 0
1, 9192, Note_on_c, 0, 80, 77
1, 9204, Note_on_c, 0, 80, 0
1, 9204, Note_on_c, 0, 82, 78
1, 9216, Note_on_c, 0, 82, 0
1, 9216, Note_on_c, 0, 80, 80
1, 9216, Note_on_c, 1, 62, 80
1, 9216, Note_on_c, 1, 58, 80
1, 9216, Note_on_c, 1, 56, 80
1, 9216, Note_on_c, 1, 53, 80
1, 9216, Note_on_c, 1, 50, 80
1, 9228, Note_on_c, 0, 80, 0
1, 9228, Note_on_c, 0, 82, 80
1, 9240, Note_on_c, 0, 82, 0
1, 9240, Note_on_c, 0, 84, 80
1, 9252, Note_on_c, 0, 84, 0
1, 9252, Note_on_c, 0, 82, 80
1, 9264, Note_on_c, 0, 82, 0
1, 9264, Note_on_c, 0, 80, 80
1, 9276, Note_on_c, 0, 80, 0
1, 9276, Note_on_c, 0, 79, 80
1, 9288, Note_on_c, 0, 79, 0
1, 9288, Note_on_c, 0, 77, 80
1, 9300, Note_on_c, 0, 77, 0
1, 9300, Note_on_c, 0, 75, 80
1, 9312, Note_on_c, 0, 75, 0
1, 9312, Note_on_c, 0, 74, 80
1, 9324, Note_on_c, 0, 74, 0
1, 9324, Note_on_c, 0, 75, 80
1, 9336, Note_on_c, 0, 75, 0
1, 9336, Note_on_c, 0, 77, 80
1, 9348, Note_on_c, 0, 77, 0
1, 9348, Note_on_c, 0, 75, 80
1, 9360, Note_on_c, 0, 75, 0
1, 9360, Note_on_c, 0, 74, 80
1, 9372, Note_on_c, 0, 74, 0
1, 9372, Note_on_c, 0, 72, 80
1, 9384, Note_on_c, 0, 72, 0
1, 9384, Note_on_c, 0, 70, 80
1, 9393, Note_on_c, 1, 62, 0
1, 9393, Note_on_c, 1, 58, 0
1, 9393, Note_on_c, 1, 56, 0
1, 9393, Note_on_c, 1, 53, 0
1, 9393, Note_on_c, 1, 50, 0
1, 9396, Note_on_c, 0, 70, 0
1, 9396, Note_on_c, 0, 68, 80
1, 9408, Note_on_c, 0, 68, 0
1, 9408, Note_on_c, 0, 67, 80
1, 9408, Note_on_c, 1, 63, 80
1, 9408, Note_on_c, 1, 58, 80
1, 9408, Note_on_c, 1, 55, 80
1, 9408, Note_on_c, 1, 51, 80
1, 9431, Note_on_c, 0, 67, 0
1, 9432, Note_on_c, 0, 79, 64
1, 9442, Note_on_c, 0, 79, 0
1, 9456, Note_on_c, 0, 78, 64
1, 9466, Note_on_c, 0, 78, 0
1, 9480, Note_on_c, 0, 81, 64
1, 9490, Note_on_c, 0, 81, 0
1, 9497, Note_on_c, 1, 63, 0
1, 9497, Note_on_c, 1, 58, 0
1, 9497, Note_on_c, 1, 55, 0
1, 9497, Note_on_c, 1, 51, 0
1, 9504, Note_on_c, 0, 79, 64
1, 9514, Note_on_c, 0, 79, 0
1, 9528, Note_on_c, 0, 82, 64
1, 9538, Note_on_c, 0, 82, 0
1, 9552, Note_on_c, 0, 78, 64
1, 9562, Note_on_c, 0, 78, 0
1, 9576, Note_on_c, 0, 81, 64
1, 9586, Note_on_c, 0, 81, 0
1, 9600, Note_on_c, 0, 79, 64
1, 9610, Note_on_c, 0, 79, 0
1, 9624, Note_on_c, 0, 82, 67
1, 9634, Note_on_c, 0, 82, 0
1, 9648, Note_on_c, 0, 78, 70
1, 9648, Note_on_c, 1, 66, 70
1, 9658, Note_on_c, 0, 78, 0
1, 9658, Note_on_c, 1, 66, 0
1, 9672, Note_on_c, 0, 81, 73
1, 9672, Note_on_c, 1, 69, 73
1, 9682, Note_on_c, 0, 81, 0
1, 9682, Note_on_c, 1, 69, 0
1, 9696, Note_on_c, 0, 79, 76
1, 9696, Note_on_c, 1, 67, 76
1, 9706, Note_on_c, 0, 79, 0
1, 9706, Note_on_c, 1, 67, 0
1, 9720, Note_on_c, 0, 82, 80
1, 9720, Note_on_c, 1, 70, 80
1, 9730, Note_on_c, 0, 82, 0
1, 9730, Note_on_c, 1, 70, 0
1, 9744, Note_on_c, 0, 79, 80
1, 9744, Note_on_c, 1, 67, 80
1, 9759, Note_on_c, 0, 79, 0
1, 9759, Note_on_c, 1, 67, 0
1, 9760, Note_on_c, 0, 75, 80
1, 9760, Note_on_c, 1, 63, 80
1, 9775, Note_on_c, 0, 75, 0
1, 9775, Note_on_c, 1, 63, 0
1, 9776, Note_on_c, 0, 72, 80
1, 9776, Note_on_c, 1, 60, 80
1, 9791, Note_on_c, 0, 72, 0
1, 9791, Note_on_c, 1, 60, 0
1, 9792, Note_on_c, 0, 70, 80
1, 9792, Note_on_c, 1, 62, 80
1, 9792, Note_on_c, 1, 53, 80
1, 9859, Note_on_c, 0, 70, 0
1, 9864, Note_on_c, 0, 72, 80
1, 9870, Note_on_c, 0, 72, 0
1, 9870, Note_on_c, 0, 70, 80
1, 9876, Note_on_c, 0, 70, 0
1, 9876, Note_on_c, 0, 69, 80
1, 9881, Note_on_c, 1, 62, 0
1, 9882, Note_on_c, 0, 69, 0
1, 9882, Note_on_c, 0, 70, 80
1, 9888, Note_on_c, 0, 70, 0
1, 9888, Note_on_c, 0, 74, 80
1, 9888, Note_on_c, 0, 69, 75
1, 9888, Note_on_c, 1, 63, 80
1, 9955, Note_on_c, 0, 74, 0
1, 9960, Note_on_c, 0, 72, 80
1, 9969, Note_on_c, 1, 53, 0
1, 9977, Note_on_c, 0, 69, 0
1, 9977, Note_on_c, 1, 63, 0
1, 9983, Note_on_c, 0, 72, 0
1, 9984, Note_on_c, 0, 70, 80
1, 9984, Note_on_c, 1, 62, 80
1, 9984, Note_on_c, 1, 58, 80
1, 10029, Note_on_c, 0, 70, 0
1, 10029, Note_on_c, 1, 62, 0
1, 10029, Note_on_c, 1, 58, 0
1, 10068, Note_on_c, 0, 89, 64
1, 10080, Note_on_c, 0, 89, 0
1, 10080, Note_on_c, 0, 86, 64
1, 10080, Note_on_c, 1, 74, 64
1, 10080, Note_on_c, 1, 70, 64
1, 10090, Note_on_c, 0, 86, 0
1, 10100, Note_on_c, 1, 74, 0
1, 10100, Note_on_c, 1, 70, 0
1, 10116, Note_on_c, 0, 89, 64
1, 10128, Note_on_c, 0, 89, 0
1, 10128, Note_on_c, 0, 84, 64
1, 10128, Note_on_c, 1, 72, 64
1, 10128, Note_on_c, 1, 65, 64
1, 10138, Note_on_c, 0, 84, 0
1, 10148, Note_on_c, 1, 72, 0
1, 10148, Note_on_c, 1, 65, 0
1, 10164, Note_on_c, 0, 89, 64
1, 10176, Note_on_c, 0, 89, 0
1, 10176, Note_on_c, 0, 82, 64
1, 10176, Note_on_c, 1, 70, 64
1, 10176, Note_on_c, 1, 62, 64
1, 10186, Note_on_c, 0, 82, 0
1, 10212, Note_on_c, 0, 89, 64
1, 10221, Note_on_c, 1, 70, 0
1, 10221, Note_on_c, 1, 62, 0
1, 10224, Note_on_c, 0, 89, 0
1, 10224, Note_on_c, 0, 77, 64
1, 10234, Note_on_c, 0, 77, 0
1, 10260, Note_on_c, 0, 89, 58
1, 10272, Note_on_c, 0, 89, 0
1, 10272, Note_on_c, 0, 86, 58
1, 10272, Note_on_c, 1, 74, 58
1, 10272, Note_on_c, 1, 70, 58
1, 10282, Note_on_c, 0, 86, 0
1, 10292, Note_on_c, 1, 74, 0
1, 10292, Note_on_c, 1, 70, 0
1, 10308, Note_on_c, 0, 89, 58
1, 10320, Note_on_c, 0, 89, 0
1, 10320, Note_on_c, 0, 84, 58
1, 10320, Note_on_c, 1, 72, 58
1, 10320, Note_on_c, 1, 65, 58
1, 10330, Note_on_c, 0, 84, 0
1, 10340, Note_on_c, 1, 72, 0
1, 10340, Note_on_c, 1, 65, 0
1, 10356, Note_on_c, 0, 89, 58
1, 10368, Note_on_c, 0, 89, 0
1, 10368, Note_on_c, 0, 82, 58
1, 10368, Note_on_c, 1, 70, 58
1, 10368, Note_on_c, 1, 62, 58
1, 10378, Note_on_c, 0, 82, 0
1, 10404, Note_on_c, 0, 89, 58
1, 10413, Note_on_c, 1, 70, 0
1, 10413, Note_on_c, 1, 62, 0
1, 10416, Note_on_c, 0, 89, 0
1, 10416, Note_on_c, 0, 77, 58
1, 10426, Note_on_c, 0, 77, 0
1, 10452, Note_on_c, 0, 89, 58
1, 10464, Note_on_c, 0, 89, 0
1, 10464, Note_on_c, 0, 80, 58
1, 10464, Note_on_c, 1, 70, 58
1, 10464, Note_on_c, 1, 62, 58
1, 10474, Note_on_c, 0, 80, 0
1, 10500, Note_on_c, 0, 89, 64
1, 10509, Note_on_c, 1, 70, 0
1, 10509, Note_on_c, 1, 62, 0
1, 10512, Note_on_c, 0, 89, 0
1, 10512, Note_on_c, 0, 78, 64
1, 10512, Note_on_c, 1, 70, 64
1, 10512, Note_on_c, 1, 62, 64
1, 10522, Note_on_c, 0, 78, 0
1, 10548, Note_on_c, 0, 89, 64
1, 10557, Note_on_c, 1, 70, 0
1, 10557, Note_on_c, 1, 62, 0
1, 10560, Note_on_c, 0, 89, 0
1, 10560, Note_on_c, 0, 79, 64
1, 10560, Note_on_c, 1, 70, 64
1, 10560, Note_on_c, 1, 63, 80
1, 10570, Note_on_c, 0, 79, 0
1, 10596, Note_on_c, 0, 83, 65
1, 10605, Note_on_c, 1, 70, 0
1, 10608, Note_on_c, 0, 83, 0
1, 10608, Note_on_c, 0, 84, 65
1, 10608, Note_on_c, 1, 67, 65
1, 10618, Note_on_c, 0, 84, 0
1, 10644, Note_on_c, 0, 86, 67
1, 10653, Note_on_c, 1, 67, 0
1, 10656, Note_on_c, 0, 86, 0
1, 10656, Note_on_c, 0, 87, 67
1, 10656, Note_on_c, 1, 72, 67
1, 10666, Note_on_c, 0, 87, 0
1, 10692, Note_on_c, 0, 86, 69
1, 10693, Note_on_c, 1, 63, 0
1, 10704, Note_on_c, 0, 86, 0
1, 10704, Note_on_c, 0, 84, 69
1, 10704, Note_on_c, 1, 64, 80
1, 10714, Note_on_c, 0, 84, 0
1, 10740, Note_on_c, 0, 82, 71
1, 10749, Note_on_c, 1, 64, 0
1, 10752, Note_on_c, 0, 82, 0
1, 10752, Note_on_c, 0, 81, 71
1, 10752, Note_on_c, 1, 65, 80
1, 10762, Note_on_c, 0, 81, 0
1, 10788, Note_on_c, 0, 79, 73
1, 10797, Note_on_c, 1, 65, 0
1, 10800, Note_on_c, 0, 79, 0
1, 10800, Note_on_c, 0, 77, 73
1, 10800, Note_on_c, 1, 67, 80
1, 10810, Note_on_c, 0, 77, 0
1, 10836, Note_on_c, 0, 76, 75
1, 10845, Note_on_c, 1, 67, 0
1, 10848, Note_on_c, 0, 76, 0
1, 10848, Note_on_c, 0, 77, 75
1, 10848, Note_on_c, 1, 69, 80
1, 10858, Note_on_c, 0, 77, 0
1, 10884, Note_on_c, 0, 79, 77
1, 10885, Note_on_c, 1, 72, 0
1, 10893, Note_on_c, 1, 69, 0
1, 10896, Note_on_c, 0, 79, 0
1, 10896, Note_on_c, 0, 77, 77
1, 10896, Note_on_c, 1, 65, 77
1, 10896, Note_on_c, 1, 57, 80
1, 10906, Note_on_c, 0, 77, 0
1, 10932, Note_on_c, 0, 75, 79
1, 10941, Note_on_c, 1, 65, 0
1, 10941, Note_on_c, 1, 57, 0
1, 10944, Note_on_c, 0, 75, 0
1, 10944, Note_on_c, 0, 73, 79
1, 10944, Note_on_c, 1, 61, 79
1, 10944, Note_on_c, 1, 58, 79
1, 10956, Note_on_c, 0, 73, 0
1, 10956, Note_on_c, 0, 75, 80
1, 10967, Note_on_c, 1, 61, 0
1, 10967, Note_on_c, 1, 58, 0
1, 10968, Note_on_c, 0, 75, 0
1, 10968, Note_on_c, 0, 73, 80
1, 10968, Note_on_c, 1, 65, 80
1, 10980, Note_on_c, 0, 73, 0
1, 10980, Note_on_c, 0, 72, 80
1, 10991, Note_on_c, 1, 65, 0
1, 10992, Note_on_c, 0, 72, 0
1, 10992, Note_on_c, 0, 70, 80
1, 10992, Note_on_c, 1, 61, 80
1, 10992, Note_on_c, 1, 58, 80
1, 11002, Note_on_c, 0, 70, 0
1, 11015, Note_on_c, 1, 61, 0
1, 11015, Note_on_c, 1, 58, 0
1, 11016, Note_on_c, 0, 70, 80
1, 11016, Note_on_c, 1, 65, 80
1, 11026, Note_on_c, 0, 70, 0
1, 11039, Note_on_c, 1, 65, 0
1, 11040, Note_on_c, 0, 75, 80
1, 11040, Note_on_c, 1, 60, 80
1, 11040, Note_on_c, 1, 57, 80
1, 11052, Note_on_c, 0, 75, 0
1, 11052, Note_on_c, 0, 77, 80
1, 11063, Note_on_c, 1, 60, 0
1, 11063, Note_on_c, 1, 57, 0
1, 11064, Note_on_c, 0, 77, 0
1, 11064, Note_on_c, 0, 75, 80
1, 11064, Note_on_c, 1, 65, 76
1, 11076, Note_on_c, 0, 75, 0
1, 11076, Note_on_c, 0, 73, 80
1, 11087, Note_on_c, 1, 65, 0
1, 11088, Note_on_c, 0, 73, 0
1, 11088, Note_on_c, 0, 72, 78
1, 11088, Note_on_c, 1, 60, 72
1, 11088, Note_on_c, 1, 57, 72
1, 11098, Note_on_c, 0, 72, 0
1, 11111, Note_on_c, 1, 60, 0
1, 11111, Note_on_c, 1, 57, 0
1, 11112, Note_on_c, 0, 72, 74
1, 11112, Note_on_c, 1, 65, 68
1, 11122, Note_on_c, 0, 72, 0
1, 11135, Note_on_c, 1, 65, 0
1, 11136, Note_on_c, 0, 73, 70
1, 11136, Note_on_c, 1, 61, 70
1, 11136, Note_on_c, 1, 58, 70
1, 11148, Note_on_c, 0, 73, 0
1, 11148, Note_on_c, 0, 75, 70
1, 11159, Note_on_c, 1, 61, 0
1, 11159, Note_on_c, 1, 58, 0
1, 11160, Note_on_c, 0, 75, 0
1, 11160, Note_on_c, 0, 73, 70
1, 11160, Note_on_c, 1, 65, 70
1, 11172, Note_on_c, 0, 73, 0
1, 11172, Note_on_c, 0, 72, 70
1, 11183, Note_on_c, 1, 65, 0
1, 11184, Note_on_c, 0, 72, 0
1, 11184, Note_on_c, 0, 70, 70
1, 11184, Note_on_c, 1, 61, 70
1, 11184, Note_on_c, 1, 58, 70
1, 11194, Note_on_c, 0, 70, 0
1, 11207, Note_on_c, 1, 61, 0
1, 11207, Note_on_c, 1, 58, 0
1, 11208, Note_on_c, 0, 70, 70
1, 11208, Note_on_c, 1, 65, 70
1, 11218, Note_on_c, 0, 70, 0
1, 11231, Note_on_c, 1, 65, 0
1, 11232, Note_on_c, 0, 75, 70
1, 11232, Note_on_c, 1, 60, 70
1, 11232, Note_on_c, 1, 57, 70
1, 11244, Note_on_c, 0, 75, 0
1, 11244, Note_on_c, 0, 77, 70
1, 11255, Note_on_c, 1, 60, 0
1, 11255, Note_on_c, 1, 57, 0
1, 11256, Note_on_c, 0, 77, 0
1, 11256, Note_on_c, 0, 75, 70
1, 11256, Note_on_c, 1, 65, 72
1, 11268, Note_on_c, 0, 75, 0
1, 11268, Note_on_c, 0, 73, 71
1, 11279, Note_on_c, 1, 65, 0
1, 11280, Note_on_c, 0, 73, 0
1, 11280, Note_on_c, 0, 72, 73
1, 11280, Note_on_c, 1, 60, 75
1, 11280, Note_on_c, 1, 57, 75
1, 11290, Note_on_c, 0, 72, 0
1, 11303, Note_on_c, 1, 60, 0
1, 11303, Note_on_c, 1, 57, 0
1, 11304, Note_on_c, 0, 72, 76
1, 11304, Note_on_c, 1, 65, 77
1, 11314, Note_on_c, 0, 72, 0
1, 11327, Note_on_c, 1, 65, 0
1, 11328, Note_on_c, 0, 73, 80
1, 11328, Note_on_c, 1, 61, 80
1, 11328, Note_on_c, 1, 49, 80
1, 11340, Note_on_c, 0, 73, 0
1, 11340, Note_on_c, 0, 75, 80
1, 11352, Note_on_c, 0, 75, 0
1, 11352, Note_on_c, 0, 73, 80
1, 11364, Note_on_c, 0, 73, 0
1, 11364, Note_on_c, 0, 72, 80
1, 11373, Note_on_c, 1, 61, 0
1, 11373, Note_on_c, 1, 49, 0
1, 11376, Note_on_c, 0, 72, 0
1, 11376, Note_on_c, 0, 70, 80
1, 11376, Note_on_c, 1, 58, 80
1, 11376, Note_on_c, 1, 46, 80
1, 11388, Note_on_c, 0, 70, 0
1, 11388, Note_on_c, 0, 72, 80
1, 11400, Note_on_c, 0, 72, 0
1, 11400, Note_on_c, 0, 70, 80
1, 11412, Note_on_c, 0, 70, 0
1, 11412, Note_on_c, 0, 68, 80
1, 11421, Note_on_c, 1, 58, 0
1, 11421, Note_on_c, 1, 46, 0
1, 11424, Note_on_c, 0, 68, 0
1, 11424, Note_on_c, 0, 66, 80
1, 11424, Note_on_c, 1, 54, 80
1, 11424, Note_on_c, 1, 42, 80
1, 11436, Note_on_c, 0, 66, 0
1, 11436, Note_on_c, 0, 68, 80
1, 11448, Note_on_c, 0, 68, 0
1, 11448, Note_on_c, 0, 66, 80
1, 11460, Note_on_c, 0, 66, 0
1, 11460, Note_on_c, 0, 65, 80
1, 11469, Note_on_c, 1, 54, 0
1, 11469, Note_on_c, 1, 42, 0
1, 11472, Note_on_c, 0, 65, 0
1, 11472, Note_on_c, 0, 63, 80
1, 11472, Note_on_c, 1, 51, 80
1, 11472, Note_on_c, 1, 39, 80
1, 11484, Note_on_c, 0, 63, 0
1, 11484, Note_on_c, 0, 65, 80
1, 11496, Note_on_c, 0, 65, 0
1, 11496, Note_on_c, 0, 63, 80
1, 11508, Note_on_c, 0, 63, 0
1, 11508, Note_on_c, 0, 61, 80
1, 11517, Note_on_c, 1, 51, 0
1, 11517, Note_on_c, 1, 39, 0
1, 11520, Note_on_c, 0, 61, 0
1, 11520, Note_on_c, 0, 60, 80
1, 11520, Note_on_c, 1, 48, 80
1, 11520, Note_on_c, 1, 36, 80
1, 11532, Note_on_c, 0, 60, 0
1, 11532, Note_on_c, 0, 61, 80
1, 11544, Note_on_c, 0, 61, 0
1, 11544, Note_on_c, 0, 63, 80
1, 11556, Note_on_c, 0, 63, 0
1, 11556, Note_on_c, 0, 61, 80
1, 11568, Note_on_c, 0, 61, 0
1, 11568, Note_on_c, 0, 60, 80
1, 11580, Note_on_c, 0, 60, 0
1, 11580, Note_on_c, 0, 61, 80
1, 11592, Note_on_c, 0, 61, 0
1, 11592, Note_on_c, 0, 63, 80
1, 11604, Note_on_c, 0, 63, 0
1, 11604, Note_on_c, 0, 61, 80
1, 11609, Note_on_c, 1, 48, 0
1, 11609, Note_on_c, 1, 36, 0
1, 11616, Note_on_c, 0, 61, 0
1, 11616, Note_on_c, 0, 60, 80
1, 11616, Note_on_c, 1, 46, 80
1, 11616, Note_on_c, 1, 34, 80
1, 11628, Note_on_c, 0, 60, 0
1, 11628, Note_on_c, 0, 61, 80
1, 11640, Note_on_c, 0, 61, 0
1, 11640, Note_on_c, 0, 63, 80
1, 11652, Note_on_c, 0, 63, 0
1, 11652, Note_on_c, 0, 61, 80
1, 11664, Note_on_c, 0, 61, 0
1, 11664, Note_on_c, 0, 60, 80
1, 11676, Note_on_c, 0, 60, 0
1, 11676, Note_on_c, 0, 61, 80
1, 11688, Note_on_c, 0, 61, 0
1, 11688, Note_on_c, 0, 63, 80
1, 11700, Note_on_c, 0, 63, 0
1, 11700, Note_on_c, 0, 61, 80
1, 11705, Note_on_c, 1, 46, 0
1, 11705, Note_on_c, 1, 34, 0
1, 11712, Note_on_c, 0, 61, 0
1, 11712, Note_on_c, 0, 60, 80
1, 11712, Note_on_c, 1, 45, 80
1, 11712, Note_on_c, 1, 33, 80
1, 11724, Note_on_c, 0, 60, 0
1, 11724, Note_on_c, 0, 61, 79
1, 11736, Note_on_c, 0, 61, 0
1, 11736, Note_on_c, 0, 63, 78
1, 11748, Note_on_c, 0, 63, 0
1, 11748, Note_on_c, 0, 61, 77
1, 11760, Note_on_c, 0, 61, 0
1, 11760, Note_on_c, 0, 60, 76
1, 11772, Note_on_c, 0, 60, 0
1, 11772, Note_on_c, 0, 61, 75
1, 11784, Note_on_c, 0, 61, 0
1, 11784, Note_on_c, 0, 63, 74
1, 11796, Note_on_c, 0, 63, 0
1, 11796, Note_on_c, 0, 61, 73
1, 11801, Note_on_c, 1, 45, 0
1, 11801, Note_on_c, 1, 33, 0
1, 11808, Note_on_c, 0, 61, 0
1, 11808, Note_on_c, 0, 60, 72
1, 11808, Note_on_c, 1, 42, 75
1, 11808, Note_on_c, 1, 30, 75
1, 11820, Note_on_c, 0, 60, 0
1, 11820, Note_on_c, 0, 61, 71
1, 11832, Note_on_c, 0, 61, 0
1, 11832, Note_on_c, 0, 63, 70
1, 11844, Note_on_c, 0, 63, 0
1, 11844, Note_on_c, 0, 61, 69
1, 11856, Note_on_c, 0, 61, 0
1, 11856, Note_on_c, 0, 60, 68
1, 11868, Note_on_c, 0, 60, 0
1, 11868, Note_on_c, 0, 61, 67
1, 11880, Note_on_c, 0, 61, 0
1, 11880, Note_on_c, 0, 63, 66
1, 11892, Note_on_c, 0, 63, 0
1, 11892, Note_on_c, 0, 61, 65
1, 11897, Note_on_c, 1, 42, 0
1, 11897, Note_on_c, 1, 30, 0
1, 11904, Note_on_c, 0, 61, 0
1, 11904, Note_on_c, 0, 60, 70
1, 11904, Note_on_c, 1, 41, 70
1, 11904, Note_on_c, 1, 29, 70
1, 11916, Note_on_c, 0, 60, 0
1, 11916, Note_on_c, 0, 61, 70
1, 11928, Note_on_c, 0, 61, 0
1, 11928, Note_on_c, 0, 63, 70
1, 11940, Note_on_c, 0, 63, 0
1, 11940, Note_on_c, 0, 61, 70
1, 11952, Note_on_c, 0, 61, 0
1, 11952, Note_on_c, 0, 60, 70
1, 11964, Note_on_c, 0, 60, 0
1, 11964, Note_on_c, 0, 61, 70
1, 11976, Note_on_c, 0, 61, 0
1, 11976, Note_on_c, 0, 63, 70
1, 11988, Note_on_c, 0, 63, 0
1, 11988, Note_on_c, 0, 61, 70
1, 12000, Note_on_c, 0, 61, 0
1, 12000, Note_on_c, 0, 60, 70
1, 12012, Note_on_c, 0, 60, 0
1, 12012, Note_on_c, 0, 61, 70
1, 12024, Note_on_c, 0, 61, 0
1, 12024, Note_on_c, 0, 63, 70
1, 12036, Note_on_c, 0, 63, 0
1, 12036, Note_on_c, 0, 61, 70
1, 12048, Note_on_c, 0, 61, 0
1, 12048, Note_on_c, 0, 60, 70
1, 12060, Note_on_c, 0, 60, 0
1, 12060, Note_on_c, 0, 61, 70
1, 12072, Note_on_c, 0, 61, 0
1, 12072, Note_on_c, 0, 63, 70
1, 12084, Note_on_c, 0, 63, 0
1, 12084, Note_on_c, 0, 61, 70
1, 12096, Note_on_c, 0, 61, 0
1, 12096, Note_on_c, 0, 60, 64
1, 12108, Note_on_c, 0, 60, 0
1, 12108, Note_on_c, 0, 62, 65
1, 12120, Note_on_c, 0, 62, 0
1, 12120, Note_on_c, 0, 63, 67
1, 12132, Note_on_c, 0, 63, 0
1, 12132, Note_on_c, 0, 62, 69
1, 12144, Note_on_c, 0, 62, 0
1, 12144, Note_on_c, 0, 60, 71
1, 12156, Note_on_c, 0, 60, 0
1, 12156, Note_on_c, 0, 62, 72
1, 12168, Note_on_c, 0, 62, 0
1, 12168, Note_on_c, 0, 63, 74
1, 12180, Note_on_c, 0, 63, 0
1, 12180, Note_on_c, 0, 62, 76
1, 12192, Note_on_c, 0, 62, 0
1, 12192, Note_on_c, 0, 60, 78
1, 12204, Note_on_c, 0, 60, 0
1, 12204, Note_on_c, 0, 62, 80
1, 12216, Note_on_c, 0, 62, 0
1, 12216, Note_on_c, 0, 63, 80
1, 12228, Note_on_c, 0, 63, 0
1, 12228, Note_on_c, 0, 65, 80
1, 12240, Note_on_c, 0, 65, 0
1, 12240, Note_on_c, 0, 67, 80
1, 12252, Note_on_c, 0, 67, 0
1, 12252, Note_on_c, 0, 69, 80
1, 12258, Note_on_c, 1, 41, 0
1, 12258, Note_on_c, 1, 29, 0
1, 12264, Note_on_c, 0, 69, 0
1, 12264, Note_on_c, 0, 70, 80
1, 12276, Note_on_c, 0, 70, 0
1, 12276, Note_on_c, 0, 72, 80
1, 12288, Note_on_c, 0, 72, 0
1, 12288, Note_on_c, 0, 74, 80
1, 12288, Note_on_c, 0, 70, 80
1, 12288, Note_on_c, 1, 65, 80
1, 12288, Note_on_c, 1, 62, 80
1, 12288, Note_on_c, 1, 58, 80
1, 12377, Note_on_c, 0, 74, 0
1, 12377, Note_on_c, 0, 70, 0
1, 12377, Note_on_c, 1, 65, 0
1, 12377, Note_on_c, 1, 62, 0
1, 12377, Note_on_c, 1, 58, 0
1, 12384, Note_on_c, 0, 72, 80
1, 12384, Note_on_c, 1, 57, 80
1, 12392, Note_on_c, 1, 60, 80
1, 12396, Note_on_c, 0, 77, 80
1, 12400, Note_on_c, 1, 65, 80
1, 12477, Note_on_c, 0, 77, 0
1, 12477, Note_on_c, 0, 72, 0
1, 12477, Note_on_c, 1, 65, 0
1, 12477, Note_on_c, 1, 60, 0
1, 12477, Note_on_c, 1, 57, 0
1, 12480, Note_on_c, 0, 70, 80
1, 12480, Note_on_c, 1, 55, 80
1, 12488, Note_on_c, 0, 75, 80
1, 12488, Note_on_c, 1, 58, 80
1, 12496, Note_on_c, 0, 82, 80
1, 12496, Note_on_c, 1, 63, 80
1, 12624, Note_on_c, 0, 75, 0
1, 12624, Note_on_c, 0, 70, 0
1, 12647, Note_on_c, 0, 82, 0
1, 12648, Note_on_c, 0, 81, 80
1, 12656, Note_on_c, 0, 81, 0
1, 12656, Note_on_c, 0, 79, 80
1, 12661, Note_on_c, 1, 63, 0
1, 12661, Note_on_c, 1, 58, 0
1, 12661, Note_on_c, 1, 55, 0
1, 12664, Note_on_c, 0, 79, 0
1, 12664, Note_on_c, 0, 77, 80
1, 12672, Note_on_c, 0, 77, 0
1, 12672, Note_on_c, 0, 75, 80
1, 12672, Note_on_c, 1, 70, 80
1, 12672, Note_on_c, 1, 67, 80
1, 12692, Note_on_c, 0, 75, 0
1, 12692, Note_on_c, 1, 70, 0
1, 12692, Note_on_c, 1, 67, 0
1, 12744, Note_on_c, 0, 74, 80
1, 12744, Note_on_c, 1, 70, 80
1, 12744, Note_on_c, 1, 65, 80
1, 12767, Note_on_c, 0, 74, 0
1, 12767, Note_on_c, 1, 70, 0
1, 12767, Note_on_c, 1, 65, 0
1, 12768, Note_on_c, 0, 79, 80
1, 12768, Note_on_c, 1, 70, 80
1, 12768, Note_on_c, 1, 63, 80
1, 12788, Note_on_c, 0, 79, 0
1, 12788, Note_on_c, 1, 70, 0
1, 12788, Note_on_c, 1, 63, 0
1, 12840, Note_on_c, 0, 77, 80
1, 12840, Note_on_c, 0, 70, 80
1, 12840, Note_on_c, 1, 65, 80
1, 12840, Note_on_c, 1, 61, 80
1, 12863, Note_on_c, 0, 77, 0
1, 12863, Note_on_c, 0, 70, 0
1, 12863, Note_on_c, 1, 65, 0
1, 12863, Note_on_c, 1, 61, 0
1, 12864, Note_on_c, 0, 76, 80
1, 12864, Note_on_c, 0, 70, 80
1, 12864, Note_on_c, 1, 67, 80
1, 12864, Note_on_c, 1, 60, 80
1, 12903, Note_on_c, 0, 76, 0
1, 12903, Note_on_c, 0, 70, 0
1, 12903, Note_on_c, 1, 67, 0
1, 12903, Note_on_c, 1, 60, 0
1, 12984, Note_on_c, 0, 79, 64
1, 12984, Note_on_c, 0, 75, 64
1, 13007, Note_on_c, 0, 79, 0
1, 13007, Note_on_c, 0, 75, 0
1, 13008, Note_on_c, 0, 77, 64
1, 13008, Note_on_c, 0, 74, 64
1, 13031, Note_on_c, 0, 77, 0
1, 13031, Note_on_c, 0, 74, 0
1, 13032, Note_on_c, 0, 75, 64
1, 13032, Note_on_c, 0, 72, 64
1, 13055, Note_on_c, 0, 75, 0
1, 13055, Note_on_c, 0, 72, 0
1, 13056, Note_on_c, 0, 74, 64
1, 13056, Note_on_c, 0, 70, 64
1, 13080, Note_on_c, 1, 65, 64
1, 13080, Note_on_c, 1, 62, 64
1, 13095, Note_on_c, 0, 74, 0
1, 13095, Note_on_c, 0, 70, 0
1, 13104, Note_on_c, 1, 65, 0
1, 13104, Note_on_c, 1, 62, 0
1, 13104, Note_on_c, 1, 63, 64
1, 13104, Note_on_c, 1, 60, 64
1, 13127, Note_on_c, 1, 63, 0
1, 13127, Note_on_c, 1, 60, 0
1, 13128, Note_on_c, 1, 62, 64
1, 13128, Note_on_c, 1, 58, 64
1, 13151, Note_on_c, 1, 62, 0
1, 13151, Note_on_c, 1, 58, 0
1, 13152, Note_on_c, 1, 60, 64
1, 13152, Note_on_c, 1, 57, 64
1, 13176, Note_on_c, 0, 79, 64
1, 13176, Note_on_c, 0, 75, 64
1, 13191, Note_on_c, 1, 60, 0
1, 13191, Note_on_c, 1, 57, 0
1, 13199, Note_on_c, 0, 79, 0
1, 13199, Note_on_c, 0, 75, 0
1, 13200, Note_on_c, 0, 77, 64
1, 13200, Note_on_c, 0, 74, 64
1, 13223, Note_on_c, 0, 77, 0
1, 13223, Note_on_c, 0, 74, 0
1, 13224, Note_on_c, 0, 75, 64
1, 13224, Note_on_c, 0, 72, 64
1, 13247, Note_on_c, 0, 75, 0
1, 13247, Note_on_c, 0, 72, 0
1, 13248, Note_on_c, 0, 74, 64
1, 13248, Note_on_c, 0, 70, 64
1, 13272, Note_on_c, 1, 65, 64
1, 13272, Note_on_c, 1, 62, 64
1, 13287, Note_on_c, 0, 74, 0
1, 13287, Note_on_c, 0, 70, 0
1, 13295, Note_on_c, 1, 65, 0
1, 13295, Note_on_c, 1, 62, 0
1, 13296, Note_on_c, 1, 63, 64
1, 13296, Note_on_c, 1, 60, 64
1, 13319, Note_on_c, 1, 63, 0
1, 13319, Note_on_c, 1, 60, 0
1, 13320, Note_on_c, 1, 62, 64
1, 13320, Note_on_c, 1, 58, 64
1, 13343, Note_on_c, 1, 62, 0
1, 13343, Note_on_c, 1, 58, 0
1, 13344, Note_on_c, 1, 60, 64
1, 13344, Note_on_c, 1, 57, 64
1, 13354, Note_on_c, 1, 60, 0
1, 13354, Note_on_c, 1, 57, 0
1, 13368, Note_on_c, 0, 79, 64
1, 13368, Note_on_c, 0, 75, 64
1, 13368, Note_on_c, 1, 65, 64
1, 13391, Note_on_c, 0, 79, 0
1, 13391, Note_on_c, 0, 75, 0
1, 13391, Note_on_c, 1, 65, 0
1, 13392, Note_on_c, 0, 77, 69
1, 13392, Note_on_c, 0, 74, 69
1, 13392, Note_on_c, 1, 67, 69
1, 13415, Note_on_c, 0, 77, 0
1, 13415, Note_on_c, 0, 74, 0
1, 13415, Note_on_c, 1, 67, 0
1, 13416, Note_on_c, 0, 75, 74
1, 13416, Note_on_c, 0, 72, 74
1, 13416, Note_on_c, 1, 69, 74
1, 13439, Note_on_c, 0, 75, 0
1, 13439, Note_on_c, 0, 72, 0
1, 13439, Note_on_c, 1, 69, 0
1, 13440, Note_on_c, 0, 74, 80
1, 13440, Note_on_c, 0, 70, 80
1, 13440, Note_on_c, 1, 70, 80
1, 13450, Note_on_c, 0, 74, 0
1, 13450, Note_on_c, 0, 70, 0
1, 13450, Note_on_c, 1, 70, 0
1, 13464, Note_on_c, 0, 82, 80
1, 13464, Note_on_c, 0, 77, 80
1, 13464, Note_on_c, 1, 74, 80
1, 13487, Note_on_c, 0, 82, 0
1, 13487, Note_on_c, 0, 77, 0
1, 13487, Note_on_c, 1, 74, 0
1, 13488, Note_on_c, 0, 81, 80
1, 13488, Note_on_c, 0, 75, 80
1, 13488, Note_on_c, 1, 72, 80
1, 13511, Note_on_c, 0, 81, 0
1, 13511, Note_on_c, 0, 75, 0
1, 13511, Note_on_c, 1, 72, 0
1, 13512, Note_on_c, 0, 79, 80
1, 13512, Note_on_c, 0, 74, 80
1, 13512, Note_on_c, 1, 70, 80
1, 13535, Note_on_c, 0, 79, 0
1, 13535, Note_on_c, 0, 74, 0
1, 13535, Note_on_c, 1, 70, 0
1, 13536, Note_on_c, 0, 77, 80
1, 13536, Note_on_c, 0, 72, 80
1, 13536, Note_on_c, 1, 69, 80
1, 13559, Note_on_c, 0, 77, 0
1, 13559, Note_on_c, 0, 72, 0
1, 13559, Note_on_c, 1, 69, 0
1, 13560, Note_on_c, 0, 75, 80
1, 13560, Note_on_c, 1, 70, 80
1, 13560, Note_on_c, 1, 67, 80
1, 13583, Note_on_c, 0, 75, 0
1, 13583, Note_on_c, 1, 70, 0
1, 13583, Note_on_c, 1, 67, 0
1, 13584, Note_on_c, 0, 74, 80
1, 13584, Note_on_c, 1, 69, 80
1, 13584, Note_on_c, 1, 65, 80
1, 13607, Note_on_c, 0, 74, 0
1, 13607, Note_on_c, 1, 69, 0
1, 13607, Note_on_c, 1, 65, 0
1, 13608, Note_on_c, 0, 72, 80
1, 13608, Note_on_c, 1, 67, 80
1, 13608, Note_on_c, 1, 63, 80
1, 13631, Note_on_c, 0, 72, 0
1, 13631, Note_on_c, 1, 67, 0
1, 13631, Note_on_c, 1, 63, 0
1, 13632, Note_on_c, 0, 71, 96
1, 13632, Note_on_c, 1, 65, 96
1, 13632, Note_on_c, 1, 62, 96
1, 13728, Note_on_c, 0, 71, 0
1, 13728, Note_on_c, 0, 72, 70
1, 13728, Note_on_c, 1, 65, 0
1, 13728, Note_on_c, 1, 62, 0
1, 13728, Note_on_c, 1, 67, 70
1, 13728, Note_on_c, 1, 63, 70
1, 13748, Note_on_c, 0, 72, 0
1, 13748, Note_on_c, 1, 67, 0
1, 13748, Note_on_c, 1, 63, 0
1, 13824, Note_on_c, 0, 69, 96
1, 13824, Note_on_c, 0, 65, 96
1, 13824, Note_on_c, 1, 63, 96
1, 13824, Note_on_c, 1, 60, 96
1, 13920, Note_on_c, 0, 69, 0
1, 13920, Note_on_c, 0, 70, 70
1, 13920, Note_on_c, 1, 63, 0
1, 13920, Note_on_c, 1, 60, 0
1, 13920, Note_on_c, 1, 62, 70
1, 13940, Note_on_c, 0, 70, 0
1, 13940, Note_on_c, 0, 65, 0
1, 13940, Note_on_c, 1, 62, 0
1, 14208, Note_on_c, 0, 67, 64
1, 14208, Note_on_c, 0, 55, 64
1, 14400, Note_on_c, 0, 67, 0
1, 14400, Note_on_c, 0, 55, 0
1, 14400, Note_on_c, 0, 66, 70
1, 14400, Note_on_c, 0, 54, 70
1, 14400, Note_on_c, 1, 42, 75
1, 14400, Note_on_c, 1, 30, 75
1, 14577, Note_on_c, 0, 66, 0
1, 14577, Note_on_c, 0, 54, 0
1, 14577, Note_on_c, 1, 42, 0
1, 14577, Note_on_c, 1, 30, 0
1, 14592, Note_on_c, 0, 65, 80
1, 14592, Note_on_c, 0, 53, 80
1, 14592, Note_on_c, 1, 29, 80
1, 14604, Note_on_c, 1, 29, 0
1, 14604, Note_on_c, 1, 41, 80
1, 14612, Note_on_c, 0, 65, 0
1, 14612, Note_on_c, 0, 53, 0
1, 14616, Note_on_c, 1, 41, 0
1, 14616, Note_on_c, 1, 29, 80
1, 14628, Note_on_c, 1, 29, 0
1, 14628, Note_on_c, 1, 41, 80
1, 14640, Note_on_c, 0, 77, 80
1, 14640, Note_on_c, 0, 74, 80
1, 14640, Note_on_c, 0, 70, 80
1, 14640, Note_on_c, 0, 65, 80
1, 14640, Note_on_c, 1, 41, 0
1, 14640, Note_on_c, 1, 29, 80
1, 14652, Note_on_c, 1, 29, 0
1, 14652, Note_on_c, 1, 41, 80
1, 14664, Note_on_c, 1, 41, 0
1, 14664, Note_on_c, 1, 29, 80
1, 14676, Note_on_c, 1, 29, 0
1, 14676, Note_on_c, 1, 41, 80
1, 14685, Note_on_c, 0, 77, 0
1, 14685, Note_on_c, 0, 74, 0
1, 14685, Note_on_c, 0, 70, 0
1, 14685, Note_on_c, 0, 65, 0
1, 14688, Note_on_c, 0, 82, 80
1, 14688, Note_on_c, 0, 77, 80
1, 14688, Note_on_c, 0, 74, 80
1, 14688, Note_on_c, 1, 41, 0
1, 14688, Note_on_c, 1, 29, 80
1, 14700, Note_on_c, 1, 29, 0
1, 14700, Note_on_c, 1, 41, 80
1, 14712, Note_on_c, 1, 41, 0
1, 14712, Note_on_c, 1, 29, 80
1, 14724, Note_on_c, 1, 29, 0
1, 14724, Note_on_c, 1, 41, 80
1, 14733, Note_on_c, 0, 82, 0
1, 14733, Note_on_c, 0, 77, 0
1, 14733, Note_on_c, 0, 74, 0
1, 14736, Note_on_c, 0, 86, 80
1, 14736, Note_on_c, 0, 82, 80
1, 14736, Note_on_c, 0, 77, 80
1, 14736, Note_on_c, 1, 41, 0
1, 14736, Note_on_c, 1, 29, 80
1, 14748, Note_on_c, 1, 29, 0
1, 14748, Note_on_c, 1, 41, 80
1, 14760, Note_on_c, 1, 41, 0
1, 14760, Note_on_c, 1, 29, 80
1, 14772, Note_on_c, 1, 29, 0
1, 14772, Note_on_c, 1, 41, 80
1, 14781, Note_on_c, 0, 86, 0
1, 14781, Note_on_c, 0, 82, 0
1, 14781, Note_on_c, 0, 77, 0
1, 14784, Note_on_c, 0, 89, 80
1, 14784, Note_on_c, 0, 86, 80
1, 14784, Note_on_c, 0, 82, 80
1, 14784, Note_on_c, 0, 77, 80
1, 14784, Note_on_c, 1, 41, 0
1, 14784, Note_on_c, 1, 29, 80
1, 14829, Note_on_c, 0, 89, 0
1, 14829, Note_on_c, 0, 86, 0
1, 14829, Note_on_c, 0, 82, 0
1, 14829, Note_on_c, 0, 77, 0
1, 14829, Note_on_c, 1, 29, 0
1, 14880, Note_on_c, 0, 81, 80
1, 14880, Note_on_c, 0, 77, 80
1, 14880, Note_on_c, 0, 75, 80
1, 14880, Note_on_c, 0, 72, 80
1, 14880, Note_on_c, 1, 63, 80
1, 14880, Note_on_c, 1, 60, 80
1, 14880, Note_on_c, 1, 57, 80
1, 14880, Note_on_c, 1, 53, 80
1, 14925, Note_on_c, 0, 81, 0
1, 14925, Note_on_c, 0, 77, 0
1, 14925, Note_on_c, 0, 75, 0
1, 14925, Note_on_c, 0, 72, 0
1, 14925, Note_on_c, 1, 63, 0
1, 14925, Note_on_c, 1, 60, 0
1, 14925, Note_on_c, 1, 57, 0
1, 14925, Note_on_c, 1, 53, 0
1, 14976, Note_on_c, 0, 82, 80
1, 14976, Note_on_c, 1, 58, 80
1, 14976, Note_on_c, 1, 53, 80
1, 14976, Note_on_c, 1, 50, 80
1, 14976, Note_on_c, 1, 46, 80
1, 14988, Note_on_c, 0, 82, 0
1, 14988, Note_on_c, 0, 86, 80
1, 15000, Note_on_c, 0, 86, 0
1, 15000, Note_on_c, 0, 84, 80
1, 15012, Note_on_c, 0, 84, 0
1, 15012, Note_on_c, 0, 82, 80
1, 15021, Note_on_c, 1, 58, 0
1, 15021, Note_on_c, 1, 53, 0
1, 15021, Note_on_c, 1, 50, 0
1, 15021, Note_on_c, 1, 46, 0
1, 15024, Note_on_c, 0, 82, 0
1, 15024, Note_on_c, 0, 81, 80
1, 15036, Note_on_c, 0, 81, 0
1, 15036, Note_on_c, 0, 79, 80
1, 15048, Note_on_c, 0, 79, 0
1, 15048, Note_on_c, 0, 77, 80
1, 15060, Note_on_c, 0, 77, 0
1, 15060, Note_on_c, 0, 76, 80
1, 15072, Note_on_c, 0, 76, 0
1, 15072, Note_on_c, 0, 75, 80
1, 15072, Note_on_c, 1, 57, 75
1, 15072, Note_on_c, 1, 51, 75
1, 15072, Note_on_c, 1, 48, 75
1, 15072, Note_on_c, 1, 46, 75
1, 15084, Note_on_c, 0, 75, 0
1, 15084, Note_on_c, 0, 79, 78
1, 15096, Note_on_c, 0, 79, 0
1, 15096, Note_on_c, 0, 77, 77
1, 15108, Note_on_c, 0, 77, 0
1, 15108, Note_on_c, 0, 75, 76
1, 15117, Note_on_c, 1, 57, 0
1, 15117, Note_on_c, 1, 51, 0
1, 15117, Note_on_c, 1, 48, 0
1, 15117, Note_on_c, 1, 46, 0
1, 15120, Note_on_c, 0, 75, 0
1, 15120, Note_on_c, 0, 74, 75
1, 15132, Note_on_c, 0, 74, 0
1, 15132, Note_on_c, 0, 72, 73
1, 15144, Note_on_c, 0, 72, 0
1, 15144, Note_on_c, 0, 70, 72
1, 15156, Note_on_c, 0, 70, 0
1, 15156, Note_on_c, 0, 69, 71
1, 15168, Note_on_c, 0, 69, 0
1, 15168, Note_on_c, 0, 70, 70
1, 15168, Note_on_c, 1, 58, 70
1, 15168, Note_on_c, 1, 53, 70
1, 15168, Note_on_c, 1, 50, 70
1, 15168, Note_on_c, 1, 46, 70
1, 15180, Note_on_c, 0, 70, 0
1, 15180, Note_on_c, 0, 74, 70
1, 15192, Note_on_c, 0, 74, 0
1, 15192, Note_on_c, 0, 72, 70
1, 15204, Note_on_c, 0, 72, 0
1, 15204, Note_on_c, 0, 70, 70
1, 15213, Note_on_c, 1, 58, 0
1, 15213, Note_on_c, 1, 53, 0
1, 15213, Note_on_c, 1, 50, 0
1, 15213, Note_on_c, 1, 46, 0
1, 15216, Note_on_c, 0, 70, 0
1, 15216, Note_on_c, 0, 69, 70
1, 15228, Note_on_c, 0, 69, 0
1, 15228, Note_on_c, 0, 67, 70
1, 15240, Note_on_c, 0, 67, 0
1, 15240, Note_on_c, 0, 65, 70
1, 15252, Note_on_c, 0, 65, 0
1, 15252, Note_on_c, 0, 64, 70
1, 15264, Note_on_c, 0, 64, 0
1, 15264, Note_on_c, 0, 63, 70
1, 15264, Note_on_c, 1, 57, 70
1, 15264, Note_on_c, 1, 51, 70
1, 15264, Note_on_c, 1, 48, 70
1, 15264, Note_on_c, 1, 46, 70
1, 15276, Note_on_c, 0, 63, 0
1, 15276, Note_on_c, 0, 67, 70
1, 15288, Note_on_c, 0, 67, 0
1, 15288, Note_on_c, 0, 65, 70
1, 15300, Note_on_c, 0, 65, 0
1, 15300, Note_on_c, 0, 63, 70
1, 15309, Note_on_c, 1, 57, 0
1, 15309, Note_on_c, 1, 51, 0
1, 15309, Note_on_c, 1, 48, 0
1, 15309, Note_on_c, 1, 46, 0
1, 15312, Note_on_c, 0, 63, 0
1, 15312, Note_on_c, 0, 62, 70
1, 15324, Note_on_c, 0, 62, 0
1, 15324, Note_on_c, 0, 60, 70
1, 15336, Note_on_c, 0, 60, 0
1, 15336, Note_on_c, 0, 58, 70
1, 15348, Note_on_c, 0, 58, 0
1, 15348, Note_on_c, 0, 57, 70
1, 15360, Note_on_c, 0, 57, 0
1, 15360, Note_on_c, 0, 58, 70
1, 15360, Note_on_c, 1, 46, 70
1, 15360, Note_on_c, 1, 34, 70
1, 15372, Note_on_c, 0, 58, 0
1, 15372, Note_on_c, 0, 57, 70
1, 15384, Note_on_c, 0, 57, 0
1, 15384, Note_on_c, 0, 58, 70
1, 15396, Note_on_c, 0, 58, 0
1, 15396, Note_on_c, 0, 53, 70
1, 15405, Note_on_c, 1, 46, 0
1, 15405, Note_on_c, 1, 34, 0
1, 15408, Note_on_c, 0, 53, 0
1, 15408, Note_on_c, 0, 62, 70
1, 15408, Note_on_c, 1, 50, 70
1, 15408, Note_on_c, 1, 38, 70
1, 15420, Note_on_c, 0, 62, 0
1, 15420, Note_on_c, 0, 61, 70
1, 15432, Note_on_c, 0, 61, 0
1, 15432, Note_on_c, 0, 62, 70
1, 15444, Note_on_c, 0, 62, 0
1, 15444, Note_on_c, 0, 58, 71
1, 15453, Note_on_c, 1, 50, 0
1, 15453, Note_on_c, 1, 38, 0
1, 15456, Note_on_c, 0, 58, 0
1, 15456, Note_on_c, 0, 65, 71
1, 15456, Note_on_c, 1, 53, 71
1, 15456, Note_on_c, 1, 41, 71
1, 15468, Note_on_c, 0, 65, 0
1, 15468, Note_on_c, 0, 64, 71
1, 15480, Note_on_c, 0, 64, 0
1, 15480, Note_on_c, 0, 65, 72
1, 15492, Note_on_c, 0, 65, 0
1, 15492, Note_on_c, 0, 62, 72
1, 15501, Note_on_c, 1, 53, 0
1, 15501, Note_on_c, 1, 41, 0
1, 15504, Note_on_c, 0, 62, 0
1, 15504, Note_on_c, 0, 70, 72
1, 15504, Note_on_c, 1, 58, 72
1, 15504, Note_on_c, 1, 46, 72
1, 15516, Note_on_c, 0, 70, 0
1, 15516, Note_on_c, 0, 69, 73
1, 15528, Note_on_c, 0, 69, 0
1, 15528, Note_on_c, 0, 70, 73
1, 15540, Note_on_c, 0, 70, 0
1, 15540, Note_on_c, 0, 65, 73
1, 15549, Note_on_c, 1, 58, 0
1, 15549, Note_on_c, 1, 46, 0
1, 15552, Note_on_c, 0, 65, 0
1, 15552, Note_on_c, 0, 74, 74
1, 15552, Note_on_c, 1, 62, 73
1, 15552, Note_on_c, 1, 50, 73
1, 15564, Note_on_c, 0, 74, 0
1, 15564, Note_on_c, 0, 73, 74
1, 15576, Note_on_c, 0, 73, 0
1, 15576, Note_on_c, 0, 74, 74
1, 15588, Note_on_c, 0, 74, 0
1, 15588, Note_on_c, 0, 70, 75
1, 15597, Note_on_c, 1, 62, 0
1, 15597, Note_on_c, 1, 50, 0
1, 15600, Note_on_c, 0, 70, 0
1, 15600, Note_on_c, 0, 77, 75
1, 15600, Note_on_c, 1, 65, 75
1, 15600, Note_on_c, 1, 53, 75
1, 15612, Note_on_c, 0, 77, 0
1, 15612, Note_on_c, 0, 76, 75
1, 15624, Note_on_c, 0, 76, 0
1, 15624, Note_on_c, 0, 77, 76
1, 15636, Note_on_c, 0, 77, 0
1, 15636, Note_on_c, 0, 74, 76
1, 15645, Note_on_c, 1, 65, 0
1, 15645, Note_on_c, 1, 53, 0
1, 15648, Note_on_c, 0, 74, 0
1, 15648, Note_on_c, 0, 82, 76
1, 15648, Note_on_c, 1, 70, 76
1, 15648, Note_on_c, 1, 58, 76
1, 15660, Note_on_c, 0, 82, 0
1, 15660, Note_on_c, 0, 81, 77
1, 15672, Note_on_c, 0, 81, 0
1, 15672, Note_on_c, 0, 82, 77
1, 15684, Note_on_c, 0, 82, 0
1, 15684, Note_on_c, 0, 77, 77
1, 15693, Note_on_c, 1, 70, 0
1, 15693, Note_on_c, 1, 58, 0
1, 15696, Note_on_c, 0, 77, 0
1, 15696, Note_on_c, 0, 84, 78
1, 15696, Note_on_c, 1, 75, 77
1, 15696, Note_on_c, 1, 65, 77
1, 15708, Note_on_c, 0, 84, 0
1, 15708, Note_on_c, 0, 83, 78
1, 15720, Note_on_c, 0, 83, 0
1, 15720, Note_on_c, 0, 84, 78
1, 15732, Note_on_c, 0, 84, 0
1, 15732, Note_on_c, 0, 77, 79
1, 15741, Note_on_c, 1, 75, 0
1, 15741, Note_on_c, 1, 65, 0
1, 15744, Note_on_c, 0, 77, 0
1, 15744, Note_on_c, 0, 82, 79
1, 15744, Note_on_c, 1, 74, 78
1, 15744, Note_on_c, 1, 70, 78
1, 15756, Note_on_c, 0, 82, 0
1, 15756, Note_on_c, 0, 81, 80
1, 15768, Note_on_c, 0, 81, 0
1, 15768, Note_on_c, 0, 82, 80
1, 15780, Note_on_c, 0, 82, 0
1, 15780, Note_on_c, 0, 77, 80
1, 15789, Note_on_c, 1, 74, 0
1, 15789, Note_on_c, 1, 70, 0
1, 15792, Note_on_c, 0, 77, 0
1, 15792, Note_on_c, 0, 84, 80
1, 15792, Note_on_c, 1, 75, 80
1, 15792, Note_on_c, 1, 65, 80
1, 15804, Note_on_c, 0, 84, 0
1, 15804, Note_on_c, 0, 83, 80
1, 15816, Note_on_c, 0, 83, 0
1, 15816, Note_on_c, 0, 84, 80
1, 15828, Note_on_c, 0, 84, 0
1, 15828, Note_on_c, 0, 77, 80
1, 15837, Note_on_c, 1, 75, 0
1, 15837, Note_on_c, 1, 65, 0
1, 15840, Note_on_c, 0, 77, 0
1, 15840, Note_on_c, 0, 82, 80
1, 15840, Note_on_c, 1, 74, 80
1, 15840, Note_on_c, 1, 70, 80
1, 15852, Note_on_c, 0, 82, 0
1, 15852, Note_on_c, 0, 81, 80
1, 15864, Note_on_c, 0, 81, 0
1, 15864, Note_on_c, 0, 82, 80
1, 15876, Note_on_c, 0, 82, 0
1, 15876, Note_on_c, 0, 77, 80
1, 15885, Note_on_c, 1, 74, 0
1, 15885, Note_on_c, 1, 70, 0
1, 15888, Note_on_c, 0, 77, 0
1, 15888, Note_on_c, 0, 84, 80
1, 15888, Note_on_c, 1, 75, 80
1, 15888, Note_on_c, 1, 65, 80
1, 15900, Note_on_c, 0, 84, 0
1, 15900, Note_on_c, 0, 83, 80
1, 15912, Note_on_c, 0, 83, 0
1, 15912, Note_on_c, 0, 84, 80
1, 15924, Note_on_c, 0, 84, 0
1, 15924, Note_on_c, 0, 77, 80
1, 15933, Note_on_c, 1, 75, 0
1, 15933, Note_on_c, 1, 65, 0
1, 15936, Note_on_c, 0, 77, 0
1, 15936, Note_on_c, 0, 82, 80
1, 15936, Note_on_c, 1, 70, 80
1, 15948, Note_on_c, 1, 70, 0
1, 15948, Note_on_c, 1, 74, 79
1, 15960, Note_on_c, 1, 74, 0
1, 15960, Note_on_c, 1, 70, 78
1, 15972, Note_on_c, 1, 70, 0
1, 15972, Note_on_c, 1, 74, 77
1, 15981, Note_on_c, 0, 82, 0
1, 15984, Note_on_c, 0, 86, 76
1, 15984, Note_on_c, 0, 82, 76
1, 15984, Note_on_c, 1, 74, 0
1, 15984, Note_on_c, 1, 70, 76
1, 15996, Note_on_c, 1, 70, 0
1, 15996, Note_on_c, 1, 74, 76
1, 16008, Note_on_c, 1, 74, 0
1, 16008, Note_on_c, 1, 70, 75
1, 16020, Note_on_c, 1, 70, 0
1, 16020, Note_on_c, 1, 74, 74
1, 16029, Note_on_c, 0, 86, 0
1, 16029, Note_on_c, 0, 82, 0
1, 16032, Note_on_c, 0, 89, 73
1, 16032, Note_on_c, 0, 86, 73
1, 16032, Note_on_c, 1, 74, 0
1, 16032, Note_on_c, 1, 70, 73
1, 16044, Note_on_c, 1, 70, 0
1, 16044, Note_on_c, 1, 74, 72
1, 16056, Note_on_c, 1, 74, 0
1, 16056, Note_on_c, 1, 70, 72
1, 16068, Note_on_c, 1, 70, 0
1, 16068, Note_on_c, 1, 74, 71
1, 16077, Note_on_c, 0, 89, 0
1, 16077, Note_on_c, 0, 86, 0
1, 16080, Note_on_c, 0, 86, 70
1, 16080, Note_on_c, 0, 82, 70
1, 16080, Note_on_c, 1, 74, 0
1, 16080, Note_on_c, 1, 70, 70
1, 16092, Note_on_c, 1, 70, 0
1, 16092, Note_on_c, 1, 74, 69
1, 16104, Note_on_c, 1, 74, 0
1, 16104, Note_on_c, 1, 70, 68
1, 16116, Note_on_c, 1, 70, 0
1, 16116, Note_on_c, 1, 74, 68
1, 16125, Note_on_c, 0, 86, 0
1, 16125, Note_on_c, 0, 82, 0
1, 16128, Note_on_c, 0, 89, 67
1, 16128, Note_on_c, 0, 86, 67
1, 16128, Note_on_c, 1, 74, 0
1, 16128, Note_on_c, 1, 70, 67
1, 16173, Note_on_c, 0, 89, 0
1, 16173, Note_on_c, 0, 86, 0
1, 16173, Note_on_c, 1, 70, 0
1, 16224, Note_on_c, 0, 86, 64
1, 16224, Note_on_c, 0, 82, 64
1, 16224, Note_on_c, 1, 74, 64
1, 16224, Note_on_c, 1, 70, 64
1, 16269, Note_on_c, 0, 86, 0
1, 16269, Note_on_c, 0, 82, 0
1, 16269, Note_on_c, 1, 74, 0
1, 16269, Note_on_c, 1, 70, 0
1, 16320, Note_on_c, 0, 82, 64
1, 16320, Note_on_c, 0, 77, 64
1, 16320, Note_on_c, 1, 74, 64
1, 16320, Note_on_c, 1, 70, 64
1, 16365, Note_on_c, 0, 82, 0
1, 16365, Note_on_c, 0, 77, 0
1, 16365, Note_on_c, 1, 74, 0
1, 16365, Note_on_c, 1, 70, 0
1, 16512, Note_on_c, 0, 55, 80
1, 16512, Note_on_c, 1, 39, 80
1, 16518, Note_on_c, 1, 43, 80
1, 16520, Note_on_c, 0, 58, 80
1, 16524, Note_on_c, 1, 46, 80
1, 16528, Note_on_c, 0, 63, 80
1, 16530, Note_on_c, 1, 51, 80
1, 16605, Note_on_c, 0, 63, 0
1, 16605, Note_on_c, 0, 58, 0
1, 16605, Note_on_c, 0, 55, 0
1, 16605, Note_on_c, 1, 51, 0
1, 16605, Note_on_c, 1, 46, 0
1, 16605, Note_on_c, 1, 43, 0
1, 16605, Note_on_c, 1, 39, 0
1, 16608, Note_on_c, 0, 67, 80
1, 16608, Note_on_c, 0, 63, 80
1, 16608, Note_on_c, 0, 61, 80
1, 16608, Note_on_c, 1, 49, 80
1, 16608, Note_on_c, 1, 46, 80
1, 16608, Note_on_c, 1, 43, 80
1, 16608, Note_on_c, 1, 39, 80
1, 16675, Note_on_c, 0, 67, 0
1, 16675, Note_on_c, 0, 63, 0
1, 16675, Note_on_c, 0, 61, 0
1, 16675, Note_on_c, 1, 49, 0
1, 16675, Note_on_c, 1, 46, 0
1, 16675, Note_on_c, 1, 43, 0
1, 16675, Note_on_c, 1, 39, 0
1, 16680, Note_on_c, 0, 67, 80
1, 16680, Note_on_c, 0, 63, 80
1, 16680, Note_on_c, 0, 61, 80
1, 16680, Note_on_c, 1, 49, 80
1, 16680, Note_on_c, 1, 46, 80
1, 16680, Note_on_c, 1, 43, 80
1, 16680, Note_on_c, 1, 39, 80
1, 16703, Note_on_c, 0, 67, 0
1, 16703, Note_on_c, 0, 63, 0
1, 16703, Note_on_c, 0, 61, 0
1, 16703, Note_on_c, 1, 49, 0
1, 16703, Note_on_c, 1, 46, 0
1, 16703, Note_on_c, 1, 43, 0
1, 16703, Note_on_c, 1, 39, 0
1, 16704, Note_on_c, 0, 56, 80
1, 16704, Note_on_c, 1, 39, 80
1, 16710, Note_on_c, 0, 60, 80
1, 16710, Note_on_c, 1, 44, 80
1, 16716, Note_on_c, 0, 63, 80
1, 16716, Note_on_c, 1, 48, 80
1, 16722, Note_on_c, 0, 68, 80
1, 16722, Note_on_c, 1, 51, 80
1, 16848, Note_on_c, 0, 63, 0
1, 16848, Note_on_c, 0, 60, 0
1, 16848, Note_on_c, 0, 56, 0
1, 16860, Note_on_c, 0, 68, 0
1, 16860, Note_on_c, 0, 67, 80
1, 16872, Note_on_c, 0, 67, 0
1, 16872, Note_on_c, 0, 65, 80
1, 16884, Note_on_c, 0, 65, 0
1, 16884, Note_on_c, 0, 63, 80
1, 16885, Note_on_c, 1, 51, 0
1, 16885, Note_on_c, 1, 48, 0
1, 16885, Note_on_c, 1, 44, 0
1, 16885, Note_on_c, 1, 39, 0
1, 16896, Note_on_c, 0, 63, 0
1, 16896, Note_on_c, 0, 56, 80
1, 16896, Note_on_c, 0, 58, 80
1, 16896, Note_on_c, 0, 62, 80
1, 16896, Note_on_c, 1, 39, 80
1, 16902, Note_on_c, 1, 41, 80
1, 16908, Note_on_c, 1, 44, 80
1, 16914, Note_on_c, 1, 50, 80
1, 16963, Note_on_c, 0, 62, 0
1, 16963, Note_on_c, 0, 58, 0
1, 16963, Note_on_c, 0, 56, 0
1, 16968, Note_on_c, 0, 65, 80
1, 16989, Note_on_c, 1, 50, 0
1, 16989, Note_on_c, 1, 44, 0
1, 16989, Note_on_c, 1, 41, 0
1, 16989, Note_on_c, 1, 39, 0
1, 16991, Note_on_c, 0, 65, 0
1, 16992, Note_on_c, 0, 62, 80
1, 16992, Note_on_c, 1, 39, 80
1, 16998, Note_on_c, 1, 41, 80
1, 17000, Note_on_c, 0, 65, 80
1, 17004, Note_on_c, 1, 44, 80
1, 17008, Note_on_c, 0, 70, 80
1, 17010, Note_on_c, 1, 50, 80
1, 17063, Note_on_c, 0, 70, 0
1, 17063, Note_on_c, 0, 65, 0
1, 17063, Note_on_c, 0, 62, 0
1, 17064, Note_on_c, 0, 68, 80
1, 17085, Note_on_c, 1, 50, 0
1, 17085, Note_on_c, 1, 44, 0
1, 17085, Note_on_c, 1, 41, 0
1, 17085, Note_on_c, 1, 39, 0
1, 17087, Note_on_c, 0, 68, 0
1, 17088, Note_on_c, 0, 58, 80
1, 17088, Note_on_c, 1, 39, 80
1, 17094, Note_on_c, 1, 43, 80
1, 17096, Note_on_c, 0, 63, 80
1, 17100, Note_on_c, 1, 46, 80
1, 17104, Note_on_c, 0, 67, 80
1, 17106, Note_on_c, 1, 51, 80
1, 17203, Note_on_c, 0, 67, 0
1, 17203, Note_on_c, 0, 63, 0
1, 17203, Note_on_c, 0, 58, 0
1, 17203, Note_on_c, 1, 51, 0
1, 17203, Note_on_c, 1, 46, 0
1, 17203, Note_on_c, 1, 43, 0
1, 17203, Note_on_c, 1, 39, 0
1, 17280, Note_on_c, 0, 74, 64
1, 17280, Note_on_c, 1, 68, 64
1, 17280, Note_on_c, 1, 65, 64
1, 17280, Note_on_c, 1, 58, 64
1, 17327, Note_on_c, 1, 68, 0
1, 17327, Note_on_c, 1, 65, 0
1, 17327, Note_on_c, 1, 58, 0
1, 17347, Note_on_c, 0, 74, 0
1, 17352, Note_on_c, 0, 77, 64
1, 17375, Note_on_c, 0, 77, 0
1, 17376, Note_on_c, 0, 82, 64
1, 17376, Note_on_c, 1, 68, 64
1, 17376, Note_on_c, 1, 65, 64
1, 17376, Note_on_c, 1, 58, 64
1, 17423, Note_on_c, 1, 68, 0
1, 17423, Note_on_c, 1, 65, 0
1, 17423, Note_on_c, 1, 58, 0
1, 17443, Note_on_c, 0, 82, 0
1, 17448, Note_on_c, 0, 80, 64
1, 17448, Note_on_c, 1, 62, 64
1, 17471, Note_on_c, 0, 80, 0
1, 17472, Note_on_c, 0, 79, 64
1, 17472, Note_on_c, 1, 62, 0
1, 17472, Note_on_c, 1, 63, 64
1, 17517, Note_on_c, 0, 79, 0
1, 17517, Note_on_c, 1, 63, 0
1, 17592, Note_on_c, 0, 84, 64
1, 17592, Note_on_c, 0, 80, 64
1, 17592, Note_on_c, 1, 58, 64
1, 17615, Note_on_c, 0, 84, 0
1, 17615, Note_on_c, 0, 80, 0
1, 17615, Note_on_c, 1, 58, 0
1, 17616, Note_on_c, 0, 82, 64
1, 17616, Note_on_c, 0, 79, 64
1, 17616, Note_on_c, 1, 60, 64
1, 17639, Note_on_c, 0, 82, 0
1, 17639, Note_on_c, 0, 79, 0
1, 17639, Note_on_c, 1, 60, 0
1, 17640, Note_on_c, 0, 80, 64
1, 17640, Note_on_c, 0, 77, 64
1, 17640, Note_on_c, 1, 62, 64
1, 17663, Note_on_c, 0, 80, 0
1, 17663, Note_on_c, 0, 77, 0
1, 17663, Note_on_c, 1, 62, 0
1, 17664, Note_on_c, 0, 79, 64
1, 17664, Note_on_c, 0, 75, 64
1, 17664, Note_on_c, 1, 63, 64
1, 17684, Note_on_c, 0, 79, 0
1, 17684, Note_on_c, 0, 75, 0
1, 17684, Note_on_c, 1, 63, 0
1, 17784, Note_on_c, 0, 84, 75
1, 17784, Note_on_c, 0, 80, 75
1, 17784, Note_on_c, 1, 58, 75
1, 17807, Note_on_c, 0, 84, 0
1, 17807, Note_on_c, 0, 80, 0
1, 17807, Note_on_c, 1, 58, 0
1, 17808, Note_on_c, 0, 82, 75
1, 17808, Note_on_c, 0, 79, 75
1, 17808, Note_on_c, 1, 60, 75
1, 17831, Note_on_c, 0, 82, 0
1, 17831, Note_on_c, 0, 79, 0
1, 17831, Note_on_c, 1, 60, 0
1, 17832, Note_on_c, 0, 80, 75
1, 17832, Note_on_c, 0, 77, 75
1, 17832, Note_on_c, 1, 62, 75
1, 17855, Note_on_c, 0, 80, 0
1, 17855, Note_on_c, 0, 77, 0
1, 17855, Note_on_c, 1, 62, 0
1, 17856, Note_on_c, 0, 79, 75
1, 17856, Note_on_c, 0, 75, 75
1, 17856, Note_on_c, 1, 63, 75
1, 17876, Note_on_c, 0, 79, 0
1, 17876, Note_on_c, 0, 75, 0
1, 17876, Note_on_c, 1, 63, 0
1, 17976, Note_on_c, 0, 84, 80
1, 17976, Note_on_c, 0, 80, 80
1, 17999, Note_on_c, 0, 84, 0
1, 17999, Note_on_c, 0, 80, 0
1, 18000, Note_on_c, 0, 82, 80
1, 18000, Note_on_c, 0, 79, 80
1, 18023, Note_on_c, 0, 82, 0
1, 18023, Note_on_c, 0, 79, 0
1, 18024, Note_on_c, 0, 80, 80
1, 18024, Note_on_c, 0, 77, 80
1, 18047, Note_on_c, 0, 80, 0
1, 18047, Note_on_c, 0, 77, 0
1, 18048, Note_on_c, 0, 79, 80
1, 18048, Note_on_c, 0, 75, 80
1, 18058, Note_on_c, 0, 79, 0
1, 18058, Note_on_c, 0, 75, 0
1, 18072, Note_on_c, 0, 84, 80
1, 18072, Note_on_c, 0, 80, 80
1, 18095, Note_on_c, 0, 84, 0
1, 18095, Note_on_c, 0, 80, 0
1, 18096, Note_on_c, 0, 82, 80
1, 18096, Note_on_c, 0, 79, 80
1, 18119, Note_on_c, 0, 82, 0
1, 18119, Note_on_c, 0, 79, 0
1, 18120, Note_on_c, 0, 80, 80
1, 18120, Note_on_c, 0, 77, 80
1, 18143, Note_on_c, 0, 80, 0
1, 18143, Note_on_c, 0, 77, 0
1, 18144, Note_on_c, 0, 79, 80
1, 18144, Note_on_c, 0, 75, 80
1, 18154, Note_on_c, 0, 79, 0
1, 18154, Note_on_c, 0, 75, 0
1, 18168, Note_on_c, 0, 82, 78
1, 18168, Note_on_c, 0, 79, 78
1, 18191, Note_on_c, 0, 82, 0
1, 18191, Note_on_c, 0, 79, 0
1, 18192, Note_on_c, 0, 80, 77
1, 18192, Note_on_c, 0, 77, 77
1, 18215, Note_on_c, 0, 80, 0
1, 18215, Note_on_c, 0, 77, 0
1, 18216, Note_on_c, 0, 79, 76
1, 18216, Note_on_c, 0, 75, 76
1, 18239, Note_on_c, 0, 79, 0
1, 18239, Note_on_c, 0, 75, 0
1, 18240, Note_on_c, 0, 77, 74
1, 18240, Note_on_c, 0, 74, 74
1, 18263, Note_on_c, 0, 77, 0
1, 18263, Note_on_c, 0, 74, 0
1, 18264, Note_on_c, 0, 75, 73
1, 18264, Note_on_c, 0, 72, 73
1, 18287, Note_on_c, 0, 75, 0
1, 18287, Note_on_c, 0, 72, 0
1, 18288, Note_on_c, 0, 74, 72
1, 18288, Note_on_c, 0, 70, 72
1, 18311, Note_on_c, 0, 74, 0
1, 18311, Note_on_c, 0, 70, 0
1, 18312, Note_on_c, 0, 72, 70
1, 18312, Note_on_c, 0, 68, 70
1, 18335, Note_on_c, 0, 72, 0
1, 18335, Note_on_c, 0, 68, 0
1, 18336, Note_on_c, 0, 70, 69
1, 18336, Note_on_c, 0, 67, 69
1, 18359, Note_on_c, 0, 70, 0
1, 18359, Note_on_c, 0, 67, 0
1, 18360, Note_on_c, 0, 68, 68
1, 18360, Note_on_c, 0, 65, 68
1, 18383, Note_on_c, 0, 68, 0
1, 18383, Note_on_c, 0, 65, 0
1, 18384, Note_on_c, 0, 67, 66
1, 18384, Note_on_c, 0, 63, 66
1, 18407, Note_on_c, 0, 67, 0
1, 18407, Note_on_c, 0, 63, 0
1, 18408, Note_on_c, 0, 65, 65
1, 18408, Note_on_c, 0, 62, 65
1, 18431, Note_on_c, 0, 65, 0
1, 18431, Note_on_c, 0, 62, 0
1, 18432, Note_on_c, 0, 63, 86
1, 18432, Note_on_c, 1, 48, 64
1, 18456, Note_on_c, 1, 48, 0
1, 18456, Note_on_c, 1, 56, 64
1, 18479, Note_on_c, 1, 56, 0
1, 18480, Note_on_c, 1, 48, 64
1, 18504, Note_on_c, 1, 48, 0
1, 18504, Note_on_c, 1, 56, 64
1, 18527, Note_on_c, 1, 56, 0
1, 18528, Note_on_c, 1, 48, 64
1, 18552, Note_on_c, 1, 48, 0
1, 18552, Note_on_c, 1, 56, 64
1, 18575, Note_on_c, 1, 56, 0
1, 18576, Note_on_c, 1, 48, 64
1, 18595, Note_on_c, 0, 63, 0
1, 18600, Note_on_c, 0, 65, 70
1, 18600, Note_on_c, 1, 48, 0
1, 18600, Note_on_c, 1, 56, 64
1, 18612, Note_on_c, 0, 65, 0
1, 18612, Note_on_c, 0, 63, 70
1, 18623, Note_on_c, 1, 56, 0
1, 18624, Note_on_c, 0, 63, 0
1, 18624, Note_on_c, 0, 62, 70
1, 18624, Note_on_c, 1, 46, 64
1, 18648, Note_on_c, 1, 46, 0
1, 18648, Note_on_c, 1, 56, 64
1, 18671, Note_on_c, 1, 56, 0
1, 18672, Note_on_c, 1, 46, 64
1, 18696, Note_on_c, 1, 46, 0
1, 18696, Note_on_c, 1, 56, 64
1, 18719, Note_on_c, 1, 56, 0
1, 18720, Note_on_c, 0, 62, 0
1, 18720, Note_on_c, 0, 61, 86
1, 18720, Note_on_c, 1, 46, 64
1, 18744, Note_on_c, 1, 46, 0
1, 18744, Note_on_c, 1, 55, 64
1, 18767, Note_on_c, 1, 55, 0
1, 18768, Note_on_c, 1, 46, 64
1, 18792, Note_on_c, 1, 46, 0
1, 18792, Note_on_c, 1, 55, 64
1, 18815, Note_on_c, 1, 55, 0
1, 18816, Note_on_c, 0, 61, 0
1, 18816, Note_on_c, 0, 60, 86
1, 18816, Note_on_c, 1, 44, 64
1, 18840, Note_on_c, 1, 44, 0
1, 18840, Note_on_c, 1, 55, 64
1, 18863, Note_on_c, 1, 55, 0
1, 18864, Note_on_c, 1, 44, 64
1, 18888, Note_on_c, 1, 44, 0
1, 18888, Note_on_c, 1, 55, 64
1, 18911, Note_on_c, 1, 55, 0
1, 18912, Note_on_c, 1, 44, 64
1, 18936, Note_on_c, 1, 44, 0
1, 18936, Note_on_c, 1, 53, 64
1, 18959, Note_on_c, 1, 53, 0
1, 18960, Note_on_c, 1, 44, 64
1, 18979, Note_on_c, 0, 60, 0
1, 18984, Note_on_c, 0, 62, 70
1, 18984, Note_on_c, 1, 44, 0
1, 18984, Note_on_c, 1, 53, 64
1, 18996, Note_on_c, 0, 62, 0
1, 18996, Note_on_c, 0, 60, 70
1, 19007, Note_on_c, 1, 53, 0
1, 19008, Note_on_c, 0, 60, 0
1, 19008, Note_on_c, 0, 58, 86
1, 19008, Note_on_c, 1, 43, 64
1, 19032, Note_on_c, 1, 43, 0
1, 19032, Note_on_c, 1, 53, 64
1, 19055, Note_on_c, 1, 53, 0
1, 19056, Note_on_c, 1, 43, 64
1, 19080, Note_on_c, 0, 58, 0
1, 19080, Note_on_c, 0, 60, 70
1, 19080, Note_on_c, 1, 43, 0
1, 19080, Note_on_c, 1, 53, 64
1, 19092, Note_on_c, 0, 60, 0
1, 19092, Note_on_c, 0, 62, 70
1, 19103, Note_on_c, 1, 53, 0
1, 19104, Note_on_c, 0, 62, 0
1, 19104, Note_on_c, 0, 63, 70
1, 19104, Note_on_c, 1, 43, 64
1, 19128, Note_on_c, 1, 43, 0
1, 19128, Note_on_c, 1, 51, 64
1, 19151, Note_on_c, 1, 51, 0
1, 19152, Note_on_c, 1, 43, 64
1, 19171, Note_on_c, 0, 63, 0
1, 19176, Note_on_c, 0, 65, 70
1, 19176, Note_on_c, 1, 43, 0
1, 19176, Note_on_c, 1, 51, 64
1, 19188, Note_on_c, 0, 65, 0
1, 19188, Note_on_c, 0, 67, 70
1, 19199, Note_on_c, 1, 51, 0
1, 19200, Note_on_c, 0, 67, 0
1, 19200, Note_on_c, 0, 68, 86
1, 19200, Note_on_c, 1, 41, 64
1, 19224, Note_on_c, 1, 41, 0
1, 19224, Note_on_c, 1, 50, 64
1, 19247, Note_on_c, 1, 50, 0
1, 19248, Note_on_c, 1, 41, 64
1, 19272, Note_on_c, 1, 41, 0
1, 19272, Note_on_c, 1, 50, 64
1, 19295, Note_on_c, 1, 50, 0
1, 19296, Note_on_c, 0, 68, 0
1, 19296, Note_on_c, 0, 67, 70
1, 19296, Note_on_c, 1, 39, 64
1, 19319, Note_on_c, 1, 39, 0
1, 19320, Note_on_c, 1, 43, 64
1, 19343, Note_on_c, 1, 43, 0
1, 19344, Note_on_c, 1, 46, 64
1, 19367, Note_on_c, 1, 46, 0
1, 19368, Note_on_c, 1, 51, 64
1, 19385, Note_on_c, 0, 67, 0
1, 19391, Note_on_c, 1, 51, 0
1, 19392, Note_on_c, 0, 65, 70
1, 19392, Note_on_c, 0, 60, 70
1, 19392, Note_on_c, 1, 56, 64
1, 19392, Note_on_c, 1, 44, 64
1, 19412, Note_on_c, 0, 65, 0
1, 19412, Note_on_c, 0, 60, 0
1, 19437, Note_on_c, 1, 56, 0
1, 19437, Note_on_c, 1, 44, 0
1, 19488, Note_on_c, 0, 62, 70
1, 19488, Note_on_c, 0, 56, 70
1, 19488, Note_on_c, 1, 53, 64
1, 19488, Note_on_c, 1, 46, 64
1, 19508, Note_on_c, 0, 62, 0
1, 19508, Note_on_c, 0, 56, 0
1, 19533, Note_on_c, 1, 53, 0
1, 19533, Note_on_c, 1, 46, 0
1, 19584, Note_on_c, 0, 55, 80
1, 19584, Note_on_c, 1, 39, 80
1, 19590, Note_on_c, 1, 43, 80
1, 19592, Note_on_c, 0, 58, 80
1, 19596, Note_on_c, 1, 46, 80
1, 19600, Note_on_c, 0, 63, 80
1, 19602, Note_on_c, 1, 51, 80
1, 19677, Note_on_c, 0, 63, 0
1, 19677, Note_on_c, 0, 58, 0
1, 19677, Note_on_c, 0, 55, 0
1, 19677, Note_on_c, 1, 51, 0
1, 19677, Note_on_c, 1, 46, 0
1, 19677, Note_on_c, 1, 43, 0
1, 19677, Note_on_c, 1, 39, 0
1, 19680, Note_on_c, 0, 67, 80
1, 19680, Note_on_c, 0, 63, 80
1, 19680, Note_on_c, 0, 61, 80
1, 19680, Note_on_c, 1, 49, 80
1, 19680, Note_on_c, 1, 46, 80
1, 19680, Note_on_c, 1, 43, 80
1, 19680, Note_on_c, 1, 39, 80
1, 19747, Note_on_c, 0, 67, 0
1, 19747, Note_on_c, 0, 63, 0
1, 19747, Note_on_c, 0, 61, 0
1, 19747, Note_on_c, 1, 49, 0
1, 19747, Note_on_c, 1, 46, 0
1, 19747, Note_on_c, 1, 43, 0
1, 19747, Note_on_c, 1, 39, 0
1, 19752, Note_on_c, 0, 67, 80
1, 19752, Note_on_c, 0, 63, 80
1, 19752, Note_on_c, 0, 61, 80
1, 19752, Note_on_c, 1, 49, 80
1, 19752, Note_on_c, 1, 46, 80
1, 19752, Note_on_c, 1, 43, 80
1, 19752, Note_on_c, 1, 39, 80
1, 19775, Note_on_c, 0, 67, 0
1, 19775, Note_on_c, 0, 63, 0
1, 19775, Note_on_c, 0, 61, 0
1, 19775, Note_on_c, 1, 49, 0
1, 19775, Note_on_c, 1, 46, 0
1, 19775, Note_on_c, 1, 43, 0
1, 19775, Note_on_c, 1, 39, 0
1, 19776, Note_on_c, 0, 56, 80
1, 19776, Note_on_c, 1, 39, 80
1, 19782, Note_on_c, 0, 60, 80
1, 19782, Note_on_c, 1, 44, 80
1, 19788, Note_on_c, 0, 63, 80
1, 19788, Note_on_c, 1, 48, 80
1, 19794, Note_on_c, 0, 68, 80
1, 19794, Note_on_c, 1, 51, 80
1, 19869, Note_on_c, 0, 68, 0
1, 19869, Note_on_c, 0, 63, 0
1, 19869, Note_on_c, 0, 60, 0
1, 19869, Note_on_c, 0, 56, 0
1, 19872, Note_on_c, 0, 84, 80
1, 19884, Note_on_c, 0, 84, 0
1, 19884, Note_on_c, 0, 82, 80
1, 19896, Note_on_c, 0, 82, 0
1, 19896, Note_on_c, 0, 80, 80
1, 19908, Note_on_c, 0, 80, 0
1, 19908, Note_on_c, 0, 79, 80
1, 19920, Note_on_c, 0, 79, 0
1, 19920, Note_on_c, 0, 77, 80
1, 19932, Note_on_c, 0, 77, 0
1, 19932, Note_on_c, 0, 75, 80
1, 19944, Note_on_c, 0, 75, 0
1, 19944, Note_on_c, 0, 74, 80
1, 19956, Note_on_c, 0, 74, 0
1, 19956, Note_on_c, 0, 72, 80
1, 19957, Note_on_c, 1, 51, 0
1, 19957, Note_on_c, 1, 48, 0
1, 19957, Note_on_c, 1, 44, 0
1, 19957, Note_on_c, 1, 39, 0
1, 19968, Note_on_c, 0, 72, 0
1, 19968, Note_on_c, 0, 70, 80
1, 19968, Note_on_c, 1, 51, 80
1, 19968, Note_on_c, 1, 53, 80
1, 19968, Note_on_c, 1, 56, 80
1, 19968, Note_on_c, 1, 58, 80
1, 19968, Note_on_c, 1, 62, 80
1, 19980, Note_on_c, 0, 70, 0
1, 19980, Note_on_c, 0, 68, 80
1, 19992, Note_on_c, 0, 68, 0
1, 19992, Note_on_c, 0, 67, 80
1, 20004, Note_on_c, 0, 67, 0
1, 20004, Note_on_c, 0, 65, 80
1, 20016, Note_on_c, 0, 65, 0
1, 20016, Note_on_c, 0, 63, 80
1, 20028, Note_on_c, 0, 63, 0
1, 20028, Note_on_c, 0, 62, 80
1, 20040, Note_on_c, 0, 62, 0
1, 20040, Note_on_c, 0, 60, 80
1, 20052, Note_on_c, 0, 60, 0
1, 20052, Note_on_c, 0, 58, 80
1, 20064, Note_on_c, 0, 58, 0
1, 20064, Note_on_c, 0, 56, 80
1, 20074, Note_on_c, 0, 56, 0
1, 20074, Note_on_c, 0, 55, 80
1, 20084, Note_on_c, 0, 55, 0
1, 20084, Note_on_c, 0, 53, 80
1, 20094, Note_on_c, 0, 53, 0
1, 20094, Note_on_c, 0, 51, 80
1, 20104, Note_on_c, 0, 51, 0
1, 20104, Note_on_c, 0, 50, 80
1, 20108, Note_on_c, 1, 62, 0
1, 20108, Note_on_c, 1, 58, 0
1, 20108, Note_on_c, 1, 56, 0
1, 20108, Note_on_c, 1, 53, 0
1, 20108, Note_on_c, 1, 51, 0
1, 20114, Note_on_c, 0, 50, 0
1, 20114, Note_on_c, 0, 48, 80
1, 20124, Note_on_c, 0, 48, 0
1, 20124, Note_on_c, 0, 46, 80
1, 20133, Note_on_c, 0, 46, 0
1, 20133, Note_on_c, 0, 44, 80
1, 20142, Note_on_c, 0, 44, 0
1, 20142, Note_on_c, 0, 43, 80
1, 20151, Note_on_c, 0, 43, 0
1, 20151, Note_on_c, 0, 41, 80
1, 20160, Tempo, 1200000
1, 20160, Note_on_c, 0, 41, 0
1, 20160, Note_on_c, 1, 39, 80
1, 20242, Note_on_c, 1, 39, 0
1, 20256, Tempo, 714285
1, 20256, Note_on_c, 0, 84, 64
1, 20256, Note_on_c, 1, 75, 70
1, 20279, Note_on_c, 0, 84, 0
1, 20280, Note_on_c, 0, 79, 64
1, 20303, Note_on_c, 0, 79, 0
1, 20304, Note_on_c, 0, 84, 64
1, 20323, Note_on_c, 1, 75, 0
1, 20327, Note_on_c, 0, 84, 0
1, 20328, Note_on_c, 0, 79, 64
1, 20328, Note_on_c, 1, 77, 70
1, 20340, Note_on_c, 1, 77, 0
1, 20340, Note_on_c, 1, 75, 70
1, 20351, Note_on_c, 0, 79, 0
1, 20352, Note_on_c, 0, 84, 64
1, 20352, Note_on_c, 1, 75, 0
1, 20352, Note_on_c, 1, 74, 70
1, 20375, Note_on_c, 0, 84, 0
1, 20376, Note_on_c, 0, 77, 64
1, 20399, Note_on_c, 0, 77, 0
1, 20400, Note_on_c, 0, 84, 64
1, 20423, Note_on_c, 0, 84, 0
1, 20424, Note_on_c, 0, 77, 64
1, 20447, Note_on_c, 0, 77, 0
1, 20448, Note_on_c, 0, 82, 64
1, 20448, Note_on_c, 1, 74, 0
1, 20448, Note_on_c, 1, 73, 86
1, 20471, Note_on_c, 0, 82, 0
1, 20472, Note_on_c, 0, 77, 64
1, 20495, Note_on_c, 0, 77, 0
1, 20496, Note_on_c, 0, 82, 64
1, 20519, Note_on_c, 0, 82, 0
1, 20520, Note_on_c, 0, 77, 64
1, 20543, Note_on_c, 0, 77, 0
1, 20544, Note_on_c, 0, 82, 64
1, 20544, Note_on_c, 1, 73, 0
1, 20544, Note_on_c, 1, 72, 70
1, 20567, Note_on_c, 0, 82, 0
1, 20568, Note_on_c, 0, 76, 64
1, 20591, Note_on_c, 0, 76, 0
1, 20592, Note_on_c, 0, 82, 64
1, 20615, Note_on_c, 0, 82, 0
1, 20616, Note_on_c, 0, 76, 64
1, 20639, Note_on_c, 0, 76, 0
1, 20640, Note_on_c, 0, 80, 64
1, 20663, Note_on_c, 0, 80, 0
1, 20664, Note_on_c, 0, 75, 64
1, 20687, Note_on_c, 0, 75, 0
1, 20688, Note_on_c, 0, 80, 64
1, 20707, Note_on_c, 1, 72, 0
1, 20711, Note_on_c, 0, 80, 0
1, 20712, Note_on_c, 0, 75, 64
1, 20712, Note_on_c, 1, 74, 70
1, 20724, Note_on_c, 1, 74, 0
1, 20724, Note_on_c, 1, 72, 70
1, 20735, Note_on_c, 0, 75, 0
1, 20736, Note_on_c, 0, 80, 64
1, 20736, Note_on_c, 1, 72, 0
1, 20736, Note_on_c, 1, 70, 86
1, 20759, Note_on_c, 0, 80, 0
1, 20760, Note_on_c, 0, 74, 64
1, 20783, Note_on_c, 0, 74, 0
1, 20784, Note_on_c, 0, 80, 64
1, 20807, Note_on_c, 0, 80, 0
1, 20808, Note_on_c, 0, 74, 64
1, 20831, Note_on_c, 0, 74, 0
1, 20832, Note_on_c, 0, 79, 64
1, 20855, Note_on_c, 0, 79, 0
1, 20856, Note_on_c, 0, 73, 64
1, 20879, Note_on_c, 0, 73, 0
1, 20880, Note_on_c, 0, 79, 64
1, 20899, Note_on_c, 1, 70, 0
1, 20903, Note_on_c, 0, 79, 0
1, 20904, Note_on_c, 0, 73, 64
1, 20904, Note_on_c, 1, 72, 70
1, 20916, Note_on_c, 1, 72, 0
1, 20916, Note_on_c, 1, 70, 70
1, 20927, Note_on_c, 0, 73, 0
1, 20928, Note_on_c, 0, 79, 64
1, 20928, Note_on_c, 1, 70, 0
1, 20928, Note_on_c, 1, 69, 70
1, 20951, Note_on_c, 0, 79, 0
1, 20952, Note_on_c, 0, 72, 64
1, 20975, Note_on_c, 0, 72, 0
1, 20976, Note_on_c, 0, 79, 64
1, 20999, Note_on_c, 0, 79, 0
1, 21000, Note_on_c, 0, 72, 64
1, 21017, Note_on_c, 1, 69, 0
1, 21023, Note_on_c, 0, 72, 0
1, 21024, Note_on_c, 0, 77, 64
1, 21024, Note_on_c, 1, 68, 86
1, 21047, Note_on_c, 0, 77, 0
1, 21048, Note_on_c, 0, 72, 64
1, 21071, Note_on_c, 0, 72, 0
1, 21072, Note_on_c, 0, 77, 64
1, 21095, Note_on_c, 0, 77, 0
1, 21096, Note_on_c, 0, 72, 64
1, 21096, Note_on_c, 1, 68, 0
1, 21096, Note_on_c, 1, 70, 70
1, 21108, Note_on_c, 1, 70, 0
1, 21108, Note_on_c, 1, 68, 70
1, 21119, Note_on_c, 0, 72, 0
1, 21120, Note_on_c, 0, 77, 64
1, 21120, Note_on_c, 1, 68, 0
1, 21120, Note_on_c, 1, 67, 70
1, 21143, Note_on_c, 0, 77, 0
1, 21144, Note_on_c, 0, 70, 64
1, 21167, Note_on_c, 0, 70, 0
1, 21168, Note_on_c, 0, 77, 64
1, 21191, Note_on_c, 0, 77, 0
1, 21192, Note_on_c, 0, 70, 64
1, 21209, Note_on_c, 1, 67, 0
1, 21215, Note_on_c, 0, 70, 0
1, 21216, Note_on_c, 0, 75, 64
1, 21216, Note_on_c, 1, 66, 86
1, 21239, Note_on_c, 0, 75, 0
1, 21240, Note_on_c, 0, 70, 64
1, 21263, Note_on_c, 0, 70, 0
1, 21264, Note_on_c, 0, 75, 64
1, 21287, Note_on_c, 0, 75, 0
1, 21288, Note_on_c, 0, 70, 64
1, 21311, Note_on_c, 0, 70, 0
1, 21312, Note_on_c, 0, 75, 64
1, 21312, Note_on_c, 1, 66, 0
1, 21312, Note_on_c, 1, 65, 70
1, 21335, Note_on_c, 0, 75, 0
1, 21336, Note_on_c, 0, 69, 64
1, 21359, Note_on_c, 0, 69, 0
1, 21360, Note_on_c, 0, 75, 64
1, 21383, Note_on_c, 0, 75, 0
1, 21384, Note_on_c, 0, 69, 64
1, 21401, Note_on_c, 1, 65, 0
1, 21407, Note_on_c, 0, 69, 0
1, 21408, Note_on_c, 0, 73, 64
1, 21408, Note_on_c, 1, 64, 86
1, 21431, Note_on_c, 0, 73, 0
1, 21432, Note_on_c, 0, 70, 64
1, 21455, Note_on_c, 0, 70, 0
1, 21456, Note_on_c, 0, 73, 64
1, 21479, Note_on_c, 0, 73, 0
1, 21480, Note_on_c, 0, 70, 64
1, 21503, Note_on_c, 0, 70, 0
1, 21504, Note_on_c, 0, 69, 64
1, 21504, Note_on_c, 1, 64, 0
1, 21504, Note_on_c, 1, 65, 70
1, 21504, Note_on_c, 1, 53, 64
1, 21527, Note_on_c, 0, 69, 0
1, 21528, Note_on_c, 0, 72, 64
1, 21551, Note_on_c, 0, 72, 0
1, 21552, Note_on_c, 0, 77, 64
1, 21575, Note_on_c, 0, 77, 0
1, 21576, Note_on_c, 0, 72, 64
1, 21593, Note_on_c, 1, 65, 0
1, 21599, Note_on_c, 0, 72, 0
1, 21600, Note_on_c, 0, 78, 64
1, 21600, Note_on_c, 1, 63, 83
1, 21623, Note_on_c, 0, 78, 0
1, 21624, Note_on_c, 0, 69, 64
1, 21647, Note_on_c, 0, 69, 0
1, 21648, Note_on_c, 0, 81, 64
1, 21667, Note_on_c, 1, 63, 0
1, 21671, Note_on_c, 0, 81, 0
1, 21672, Note_on_c, 0, 72, 64
1, 21672, Note_on_c, 1, 65, 70
1, 21684, Note_on_c, 1, 65, 0
1, 21684, Note_on_c, 1, 63, 70
1, 21695, Note_on_c, 0, 72, 0
1, 21696, Note_on_c, 0, 82, 64
1, 21696, Note_on_c, 1, 63, 0
1, 21696, Note_on_c, 1, 61, 70
1, 21719, Note_on_c, 0, 82, 0
1, 21720, Note_on_c, 0, 70, 64
1, 21741, Note_on_c, 1, 61, 0
1, 21743, Note_on_c, 0, 70, 0
1, 21744, Note_on_c, 0, 78, 64
1, 21744, Note_on_c, 1, 58, 70
1, 21767, Note_on_c, 0, 78, 0
1, 21768, Note_on_c, 0, 70, 64
1, 21789, Note_on_c, 1, 58, 0
1, 21791, Note_on_c, 0, 70, 0
1, 21792, Note_on_c, 0, 77, 64
1, 21792, Note_on_c, 1, 60, 70
1, 21815, Note_on_c, 0, 77, 0
1, 21816, Note_on_c, 0, 70, 64
1, 21837, Note_on_c, 1, 60, 0
1, 21839, Note_on_c, 0, 70, 0
1, 21840, Note_on_c, 0, 76, 64
1, 21840, Note_on_c, 1, 61, 70
1, 21858, Note_on_c, 1, 53, 0
1, 21863, Note_on_c, 0, 76, 0
1, 21864, Note_on_c, 0, 70, 64
1, 21885, Note_on_c, 1, 61, 0
1, 21887, Note_on_c, 0, 70, 0
1, 21888, Note_on_c, 0, 69, 64
1, 21888, Note_on_c, 1, 60, 70
1, 21888, Note_on_c, 1, 53, 64
1, 21911, Note_on_c, 0, 69, 0
1, 21912, Note_on_c, 0, 72, 64
1, 21935, Note_on_c, 0, 72, 0
1, 21936, Note_on_c, 0, 77, 64
1, 21959, Note_on_c, 0, 77, 0
1, 21960, Note_on_c, 0, 72, 64
1, 21977, Note_on_c, 1, 60, 0
1, 21983, Note_on_c, 0, 72, 0
1, 21984, Note_on_c, 0, 78, 64
1, 21984, Note_on_c, 1, 63, 83
1, 22007, Note_on_c, 0, 78, 0
1, 22008, Note_on_c, 0, 69, 64
1, 22031, Note_on_c, 0, 69, 0
1, 22032, Note_on_c, 0, 81, 64
1, 22051, Note_on_c, 1, 63, 0
1, 22055, Note_on_c, 0, 81, 0
1, 22056, Note_on_c, 0, 72, 64
1, 22056, Note_on_c, 1, 65, 70
1, 22068, Note_on_c, 1, 65, 0
1, 22068, Note_on_c, 1, 63, 70
1, 22079, Note_on_c, 0, 72, 0
1, 22080, Note_on_c, 0, 82, 64
1, 22080, Note_on_c, 1, 63, 0
1, 22080, Note_on_c, 1, 61, 70
1, 22103, Note_on_c, 0, 82, 0
1, 22104, Note_on_c, 0, 70, 64
1, 22125, Note_on_c, 1, 61, 0
1, 22127, Note_on_c, 0, 70, 0
1, 22128, Note_on_c, 0, 78, 64
1, 22128, Note_on_c, 1, 58, 70
1, 22151, Note_on_c, 0, 78, 0
1, 22152, Note_on_c, 0, 70, 64
1, 22173, Note_on_c, 1, 58, 0
1, 22175, Note_on_c, 0, 70, 0
1, 22176, Note_on_c, 0, 77, 64
1, 22176, Note_on_c, 1, 60, 70
1, 22199, Note_on_c, 0, 77, 0
1, 22200, Note_on_c, 0, 70, 64
1, 22221, Note_on_c, 1, 60, 0
1, 22223, Note_on_c, 0, 70, 0
1, 22224, Note_on_c, 0, 76, 64
1, 22224, Note_on_c, 1, 61, 70
1, 22242, Note_on_c, 1, 53, 0
1, 22247, Note_on_c, 0, 76, 0
1, 22248, Note_on_c, 0, 70, 64
1, 22269, Note_on_c, 1, 61, 0
1, 22271, Note_on_c, 0, 70, 0
1, 22272, Note_on_c, 0, 77, 64
1, 22272, Note_on_c, 1, 60, 64
1, 22272, Note_on_c, 1, 53, 64
1, 22295, Note_on_c, 0, 77, 0
1, 22296, Note_on_c, 0, 69, 65
1, 22319, Note_on_c, 0, 69, 0
1, 22320, Note_on_c, 0, 72, 66
1, 22343, Note_on_c, 0, 72, 0
1, 22344, Note_on_c, 0, 69, 67
1, 22361, Note_on_c, 1, 60, 0
1, 22367, Note_on_c, 0, 69, 0
1, 22368, Note_on_c, 0, 77, 68
1, 22368, Note_on_c, 1, 60, 68
1, 22368, Note_on_c, 1, 57, 68
1, 22383, Note_on_c, 0, 77, 0
1, 22384, Note_on_c, 0, 72, 68
1, 22399, Note_on_c, 0, 72, 0
1, 22400, Note_on_c, 0, 69, 69
1, 22415, Note_on_c, 0, 69, 0
1, 22416, Note_on_c, 0, 77, 69
1, 22431, Note_on_c, 0, 77, 0
1, 22432, Note_on_c, 0, 72, 70
1, 22447, Note_on_c, 0, 72, 0
1, 22448, Note_on_c, 0, 69, 70
1, 22457, Note_on_c, 1, 60, 0
1, 22457, Note_on_c, 1, 57, 0
1, 22463, Note_on_c, 0, 69, 0
1, 22464, Note_on_c, 0, 76, 71
1, 22464, Note_on_c, 1, 61, 72
1, 22464, Note_on_c, 1, 58, 72
1, 22479, Note_on_c, 0, 76, 0
1, 22480, Note_on_c, 0, 70, 71
1, 22495, Note_on_c, 0, 70, 0
1, 22496, Note_on_c, 0, 67, 72
1, 22511, Note_on_c, 0, 67, 0
1, 22512, Note_on_c, 0, 76, 72
1, 22527, Note_on_c, 0, 76, 0
1, 22528, Note_on_c, 0, 70, 73
1, 22543, Note_on_c, 0, 70, 0
1, 22544, Note_on_c, 0, 67, 73
1, 22553, Note_on_c, 1, 61, 0
1, 22553, Note_on_c, 1, 58, 0
1, 22559, Note_on_c, 0, 67, 0
1, 22560, Note_on_c, 0, 75, 74
1, 22560, Note_on_c, 1, 60, 76
1, 22560, Note_on_c, 1, 57, 76
1, 22575, Note_on_c, 0, 75, 0
1, 22576, Note_on_c, 0, 72, 74
1, 22591, Note_on_c, 0, 72, 0
1, 22592, Note_on_c, 0, 65, 75
1, 22607, Note_on_c, 0, 65, 0
1, 22608, Note_on_c, 0, 75, 75
1, 22623, Note_on_c, 0, 75, 0
1, 22624, Note_on_c, 0, 72, 76
1, 22626, Note_on_c, 1, 53, 0
1, 22639, Note_on_c, 0, 72, 0
1, 22640, Note_on_c, 0, 65, 76
1, 22649, Note_on_c, 1, 60, 0
1, 22649, Note_on_c, 1, 57, 0
1, 22655, Note_on_c, 0, 65, 0
1, 22656, Note_on_c, 0, 62, 80
1, 22656, Note_on_c, 1, 46, 80
1, 22662, Note_on_c, 1, 50, 80
1, 22664, Note_on_c, 0, 65, 80
1, 22668, Note_on_c, 1, 53, 80
1, 22672, Note_on_c, 0, 70, 80
1, 22674, Note_on_c, 1, 58, 80
1, 22749, Note_on_c, 0, 70, 0
1, 22749, Note_on_c, 0, 65, 0
1, 22749, Note_on_c, 0, 62, 0
1, 22749, Note_on_c, 1, 58, 0
1, 22749, Note_on_c, 1, 53, 0
1, 22749, Note_on_c, 1, 50, 0
1, 22749, Note_on_c, 1, 46, 0
1, 22752, Note_on_c, 0, 74, 80
1, 22752, Note_on_c, 0, 70, 80
1, 22752, Note_on_c, 0, 68, 80
1, 22752, Note_on_c, 1, 46, 80
1, 22752, Note_on_c, 1, 50, 80
1, 22752, Note_on_c, 1, 53, 80
1, 22752, Note_on_c, 1, 56, 80
1, 22819, Note_on_c, 0, 74, 0
1, 22819, Note_on_c, 0, 70, 0
1, 22819, Note_on_c, 0, 68, 0
1, 22824, Note_on_c, 0, 74, 80
1, 22824, Note_on_c, 0, 70, 80
1, 22824, Note_on_c, 0, 68, 80
1, 22841, Note_on_c, 1, 56, 0
1, 22841, Note_on_c, 1, 53, 0
1, 22841, Note_on_c, 1, 50, 0
1, 22841, Note_on_c, 1, 46, 0
1, 22847, Note_on_c, 0, 74, 0
1, 22847, Note_on_c, 0, 70, 0
1, 22847, Note_on_c, 0, 68, 0
1, 22848, Note_on_c, 0, 63, 80
1, 22848, Note_on_c, 1, 46, 80
1, 22854, Note_on_c, 0, 67, 80
1, 22854, Note_on_c, 1, 51, 80
1, 22860, Note_on_c, 0, 70, 80
1, 22860, Note_on_c, 1, 55, 80
1, 22866, Note_on_c, 0, 75, 80
1, 22866, Note_on_c, 1, 58, 80
1, 22963, Note_on_c, 0, 75, 0
1, 22963, Note_on_c, 0, 70, 0
1, 22963, Note_on_c, 0, 67, 0
1, 22963, Note_on_c, 0, 63, 0
1, 22968, Note_on_c, 0, 79, 80
1, 22980, Note_on_c, 0, 79, 0
1, 22980, Note_on_c, 0, 77, 80
1, 22992, Note_on_c, 0, 77, 0
1, 22992, Note_on_c, 0, 75, 80
1, 23004, Note_on_c, 0, 75, 0
1, 23004, Note_on_c, 0, 74, 80
1, 23016, Note_on_c, 0, 74, 0
1, 23016, Note_on_c, 0, 72, 80
1, 23028, Note_on_c, 0, 72, 0
1, 23028, Note_on_c, 0, 70, 80
1, 23029, Note_on_c, 1, 58, 0
1, 23029, Note_on_c, 1, 55, 0
1, 23029, Note_on_c, 1, 51, 0
1, 23029, Note_on_c, 1, 46, 0
1, 23040, Note_on_c, 0, 70, 0
1, 23040, Note_on_c, 0, 69, 80
1, 23040, Note_on_c, 1, 57, 80
1, 23040, Note_on_c, 1, 51, 80
1, 23040, Note_on_c, 1, 48, 80
1, 23040, Note_on_c, 1, 46, 80
1, 23052, Note_on_c, 0, 69, 0
1, 23052, Note_on_c, 0, 70, 80
1, 23064, Note_on_c, 0, 70, 0
1, 23064, Note_on_c, 0, 72, 80
1, 23076, Note_on_c, 0, 72, 0
1, 23076, Note_on_c, 0, 74, 80
1, 23088, Note_on_c, 0, 74, 0
1, 23088, Note_on_c, 0, 75, 80
1, 23100, Note_on_c, 0, 75, 0
1, 23100, Note_on_c, 0, 77, 80
1, 23112, Note_on_c, 0, 77, 0
1, 23112, Note_on_c, 0, 79, 80
1, 23124, Note_on_c, 0, 79, 0
1, 23124, Note_on_c, 0, 81, 80
1, 23136, Note_on_c, 0, 81, 0
1, 23136, Note_on_c, 0, 82, 80
1, 23148, Note_on_c, 0, 82, 0
1, 23148, Note_on_c, 0, 84, 80
1, 23160, Note_on_c, 0, 84, 0
1, 23160, Note_on_c, 0, 86, 80
1, 23172, Note_on_c, 0, 86, 0
1, 23172, Note_on_c, 0, 87, 80
1, 23184, Note_on_c, 0, 87, 0
1, 23184, Note_on_c, 0, 89, 80
1, 23194, Note_on_c, 0, 89, 0
1, 23208, Note_on_c, 0, 87, 80
1, 23217, Note_on_c, 1, 57, 0
1, 23217, Note_on_c, 1, 51, 0
1, 23217, Note_on_c, 1, 48, 0
1, 23217, Note_on_c, 1, 46, 0
1, 23218, Note_on_c, 0, 87, 0
1, 23232, Note_on_c, 0, 86, 80
1, 23232, Note_on_c, 1, 58, 80
1, 23232, Note_on_c, 1, 53, 80
1, 23232, Note_on_c, 1, 50, 80
1, 23232, Note_on_c, 1, 46, 80
1, 23242, Note_on_c, 0, 86, 0
1, 23256, Note_on_c, 0, 84, 80
1, 23266, Note_on_c, 0, 84, 0
1, 23280, Note_on_c, 0, 82, 80
1, 23290, Note_on_c, 0, 82, 0
1, 23304, Note_on_c, 0, 81, 80
1, 23314, Note_on_c, 0, 81, 0
1, 23321, Note_on_c, 1, 58, 0
1, 23321, Note_on_c, 1, 53, 0
1, 23321, Note_on_c, 1, 50, 0
1, 23321, Note_on_c, 1, 46, 0
1, 23328, Note_on_c, 0, 79, 80
1, 23338, Note_on_c, 0, 79, 0
1, 23352, Note_on_c, 0, 77, 80
1, 23362, Note_on_c, 0, 77, 0
1, 23376, Note_on_c, 0, 75, 80
1, 23386, Note_on_c, 0, 75, 0
1, 23400, Note_on_c, 0, 74, 80
1, 23410, Note_on_c, 0, 74, 0
1, 23424, Note_on_c, 0, 72, 80
1, 23424, Note_on_c, 1, 57, 80
1, 23424, Note_on_c, 1, 51, 80
1, 23424, Note_on_c, 1, 48, 80
1, 23424, Note_on_c, 1, 46, 80
1, 23434, Note_on_c, 0, 72, 0
1, 23434, Note_on_c, 0, 70, 80
1, 23444, Note_on_c, 0, 70, 0
1, 23444, Note_on_c, 0, 69, 80
1, 23454, Note_on_c, 0, 69, 0
1, 23454, Note_on_c, 0, 70, 80
1, 23464, Note_on_c, 0, 70, 0
1, 23464, Note_on_c, 0, 72, 80
1, 23474, Note_on_c, 0, 72, 0
1, 23474, Note_on_c, 0, 74, 80
1, 23484, Note_on_c, 0, 74, 0
1, 23484, Note_on_c, 0, 75, 80
1, 23493, Note_on_c, 0, 75, 0
1, 23493, Note_on_c, 0, 77, 80
1, 23502, Note_on_c, 0, 77, 0
1, 23502, Note_on_c, 0, 79, 80
1, 23511, Note_on_c, 0, 79, 0
1, 23511, Note_on_c, 0, 81, 80
1, 23520, Note_on_c, 0, 81, 0
1, 23520, Note_on_c, 0, 82, 80
1, 23532, Note_on_c, 0, 82, 0
1, 23532, Note_on_c, 0, 84, 80
1, 23544, Note_on_c, 0, 84, 0
1, 23544, Note_on_c, 0, 86, 80
1, 23556, Note_on_c, 0, 86, 0
1, 23556, Note_on_c, 0, 87, 80
1, 23568, Note_on_c, 0, 87, 0
1, 23568, Note_on_c, 0, 89, 80
1, 23591, Note_on_c, 0, 89, 0
1, 23592, Note_on_c, 0, 87, 79
1, 23601, Note_on_c, 1, 57, 0
1, 23601, Note_on_c, 1, 51, 0
1, 23601, Note_on_c, 1, 48, 0
1, 23601, Note_on_c, 1, 46, 0
1, 23615, Note_on_c, 0, 87, 0
1, 23616, Note_on_c, 0, 86, 79
1, 23616, Note_on_c, 1, 58, 80
1, 23616, Note_on_c, 1, 53, 80
1, 23616, Note_on_c, 1, 50, 80
1, 23616, Note_on_c, 1, 46, 80
1, 23622, Note_on_c, 0, 86, 0
1, 23622, Note_on_c, 0, 87, 79
1, 23628, Note_on_c, 0, 87, 0
1, 23628, Note_on_c, 0, 86, 79
1, 23639, Note_on_c, 0, 86, 0
1, 23640, Note_on_c, 0, 84, 78
1, 23663, Note_on_c, 0, 84, 0
1, 23664, Note_on_c, 0, 82, 78
1, 23670, Note_on_c, 0, 82, 0
1, 23670, Note_on_c, 0, 84, 78
1, 23676, Note_on_c, 0, 84, 0
1, 23676, Note_on_c, 0, 82, 78
1, 23687, Note_on_c, 0, 82, 0
1, 23688, Note_on_c, 0, 81, 77
1, 23705, Note_on_c, 1, 58, 0
1, 23705, Note_on_c, 1, 53, 0
1, 23705, Note_on_c, 1, 50, 0
1, 23705, Note_on_c, 1, 46, 0
1, 23711, Note_on_c, 0, 81, 0
1, 23712, Note_on_c, 0, 79, 77
1, 23718, Note_on_c, 0, 79, 0
1, 23718, Note_on_c, 0, 81, 77
1, 23724, Note_on_c, 0, 81, 0
1, 23724, Note_on_c, 0, 79, 77
1, 23735, Note_on_c, 0, 79, 0
1, 23736, Note_on_c, 0, 77, 76
1, 23759, Note_on_c, 0, 77, 0
1, 23760, Note_on_c, 0, 75, 76
1, 23766, Note_on_c, 0, 75, 0
1, 23766, Note_on_c, 0, 77, 76
1, 23772, Note_on_c, 0, 77, 0
1, 23772, Note_on_c, 0, 75, 76
1, 23783, Note_on_c, 0, 75, 0
1, 23784, Note_on_c, 0, 74, 75
1, 23807, Note_on_c, 0, 74, 0
1, 23808, Note_on_c, 0, 79, 75
1, 23808, Note_on_c, 0, 74, 75
1, 23808, Note_on_c, 1, 51, 75
1, 23831, Note_on_c, 0, 74, 0
1, 23831, Note_on_c, 1, 51, 0
1, 23832, Note_on_c, 0, 77, 75
1, 23832, Note_on_c, 1, 55, 75
1, 23855, Note_on_c, 0, 77, 0
1, 23855, Note_on_c, 1, 55, 0
1, 23856, Note_on_c, 0, 75, 75
1, 23856, Note_on_c, 1, 57, 75
1, 23879, Note_on_c, 0, 75, 0
1, 23879, Note_on_c, 1, 57, 0
1, 23880, Note_on_c, 0, 74, 75
1, 23880, Note_on_c, 1, 59, 75
1, 23903, Note_on_c, 0, 74, 0
1, 23903, Note_on_c, 1, 59, 0
1, 23904, Note_on_c, 0, 75, 75
1, 23904, Note_on_c, 1, 60, 75
1, 23927, Note_on_c, 0, 79, 0
1, 23928, Note_on_c, 0, 82, 75
1, 23951, Note_on_c, 0, 82, 0
1, 23952, Note_on_c, 0, 81, 75
1, 23971, Note_on_c, 1, 60, 0
1, 23975, Note_on_c, 0, 81, 0
1, 23976, Note_on_c, 0, 79, 75
1, 23976, Note_on_c, 1, 58, 75
1, 23999, Note_on_c, 0, 79, 0
1, 23999, Note_on_c, 1, 58, 0
1, 24000, Note_on_c, 0, 77, 75
1, 24000, Note_on_c, 1, 57, 75
1, 24023, Note_on_c, 0, 75, 0
1, 24023, Note_on_c, 1, 57, 0
1, 24024, Note_on_c, 0, 74, 75
1, 24024, Note_on_c, 1, 65, 75
1, 24047, Note_on_c, 0, 74, 0
1, 24047, Note_on_c, 1, 65, 0
1, 24048, Note_on_c, 0, 75, 75
1, 24048, Note_on_c, 1, 67, 75
1, 24071, Note_on_c, 0, 75, 0
1, 24071, Note_on_c, 1, 67, 0
1, 24072, Note_on_c, 0, 72, 75
1, 24072, Note_on_c, 1, 69, 75
1, 24095, Note_on_c, 0, 72, 0
1, 24095, Note_on_c, 1, 69, 0
1, 24096, Note_on_c, 0, 74, 75
1, 24096, Note_on_c, 1, 70, 75
1, 24119, Note_on_c, 0, 77, 0
1, 24120, Note_on_c, 0, 82, 75
1, 24143, Note_on_c, 0, 82, 0
1, 24144, Note_on_c, 0, 81, 75
1, 24167, Note_on_c, 0, 81, 0
1, 24168, Note_on_c, 0, 79, 75
1, 24185, Note_on_c, 0, 74, 0
1, 24185, Note_on_c, 1, 70, 0
1, 24191, Note_on_c, 0, 79, 0
1, 24192, Note_on_c, 0, 77, 75
1, 24192, Note_on_c, 1, 72, 75
1, 24192, Note_on_c, 1, 70, 75
1, 24192, Note_on_c, 1, 67, 75
1, 24215, Note_on_c, 0, 77, 0
1, 24216, Note_on_c, 0, 76, 74
1, 24239, Note_on_c, 0, 76, 0
1, 24240, Note_on_c, 0, 79, 73
1, 24263, Note_on_c, 0, 79, 0
1, 24264, Note_on_c, 0, 77, 73
1, 24287, Note_on_c, 0, 77, 0
1, 24288, Note_on_c, 0, 76, 72
1, 24311, Note_on_c, 0, 76, 0
1, 24312, Note_on_c, 0, 82, 72
1, 24335, Note_on_c, 0, 82, 0
1, 24336, Note_on_c, 0, 81, 71
1, 24359, Note_on_c, 0, 81, 0
1, 24360, Note_on_c, 0, 79, 71
1, 24369, Note_on_c, 1, 72, 0
1, 24369, Note_on_c, 1, 70, 0
1, 24369, Note_on_c, 1, 67, 0
1, 24383, Note_on_c, 0, 79, 0
1, 24384, Note_on_c, 0, 77, 70
1, 24384, Note_on_c, 1, 73, 70
1, 24384, Note_on_c, 1, 67, 70
1, 24407, Note_on_c, 0, 77, 0
1, 24408, Note_on_c, 0, 76, 70
1, 24431, Note_on_c, 0, 76, 0
1, 24432, Note_on_c, 0, 79, 70
1, 24455, Note_on_c, 0, 79, 0
1, 24456, Note_on_c, 0, 77, 70
1, 24479, Note_on_c, 0, 77, 0
1, 24480, Note_on_c, 0, 76, 70
1, 24503, Note_on_c, 0, 76, 0
1, 24504, Note_on_c, 0, 82, 70
1, 24527, Note_on_c, 0, 82, 0
1, 24528, Note_on_c, 0, 81, 70
1, 24551, Note_on_c, 0, 81, 0
1, 24552, Note_on_c, 0, 79, 70
1, 24575, Note_on_c, 0, 79, 0
1, 24576, Note_on_c, 0, 77, 64
1, 24576, Note_on_c, 1, 73, 0
1, 24576, Note_on_c, 1, 72, 86
1, 24599, Note_on_c, 0, 77, 0
1, 24600, Note_on_c, 0, 76, 64
1, 24623, Note_on_c, 0, 76, 0
1, 24624, Note_on_c, 0, 79, 64
1, 24647, Note_on_c, 0, 79, 0
1, 24648, Note_on_c, 0, 77, 64
1, 24671, Note_on_c, 0, 77, 0
1, 24672, Note_on_c, 0, 76, 64
1, 24672, Note_on_c, 1, 72, 0
1, 24672, Note_on_c, 1, 70, 70
1, 24695, Note_on_c, 0, 76, 0
1, 24696, Note_on_c, 0, 82, 64
1, 24719, Note_on_c, 0, 82, 0
1, 24720, Note_on_c, 0, 79, 64
1, 24743, Note_on_c, 0, 79, 0
1, 24744, Note_on_c, 0, 76, 64
1, 24753, Note_on_c, 1, 67, 0
1, 24761, Note_on_c, 1, 70, 0
1, 24767, Note_on_c, 0, 76, 0
1, 24768, Note_on_c, 0, 79, 64
1, 24768, Note_on_c, 1, 69, 70
1, 24768, Note_on_c, 1, 65, 70
1, 24791, Note_on_c, 0, 79, 0
1, 24792, Note_on_c, 0, 77, 64
1, 24815, Note_on_c, 0, 77, 0
1, 24816, Note_on_c, 0, 76, 64
1, 24839, Note_on_c, 0, 76, 0
1, 24840, Note_on_c, 0, 77, 64
1, 24863, Note_on_c, 0, 77, 0
1, 24864, Note_on_c, 0, 76, 64
1, 24887, Note_on_c, 0, 76, 0
1, 24888, Note_on_c, 0, 77, 64
1, 24901, Note_on_c, 1, 69, 0
1, 24901, Note_on_c, 1, 65, 0
1, 24911, Note_on_c, 0, 77, 0
1, 24912, Note_on_c, 0, 82, 77
1, 24912, Note_on_c, 0, 79, 77
1, 24912, Note_on_c, 0, 75, 77
1, 24912, Note_on_c, 0, 70, 77
1, 24912, Note_on_c, 1, 67, 83
1, 24912, Note_on_c, 1, 63, 83
1, 24912, Note_on_c, 1, 58, 83
1, 24912, Note_on_c, 1, 55, 83
1, 24935, Note_on_c, 0, 82, 0
1, 24935, Note_on_c, 0, 79, 0
1, 24935, Note_on_c, 0, 75, 0
1, 24935, Note_on_c, 0, 70, 0
1, 24936, Note_on_c, 0, 75, 80
1, 24957, Note_on_c, 1, 67, 0
1, 24957, Note_on_c, 1, 63, 0
1, 24957, Note_on_c, 1, 58, 0
1, 24957, Note_on_c, 1, 55, 0
1, 24960, Note_on_c, 0, 75, 0
1, 24960, Note_on_c, 0, 75, 80
1, 24960, Note_on_c, 1, 69, 80
1, 24960, Note_on_c, 1, 65, 80
1, 24984, Note_on_c, 0, 75, 0
1, 24984, Note_on_c, 0, 74, 64
1, 25007, Note_on_c, 0, 74, 0
1, 25008, Note_on_c, 0, 73, 65
1, 25031, Note_on_c, 0, 73, 0
1, 25032, Note_on_c, 0, 74, 66
1, 25055, Note_on_c, 0, 74, 0
1, 25056, Note_on_c, 0, 73, 67
1, 25079, Note_on_c, 0, 73, 0
1, 25080, Note_on_c, 0, 74, 68
1, 25103, Note_on_c, 0, 74, 0
1, 25104, Note_on_c, 0, 79, 82
1, 25104, Note_on_c, 0, 75, 82
1, 25104, Note_on_c, 0, 72, 82
1, 25104, Note_on_c, 0, 67, 82
1, 25104, Note_on_c, 1, 69, 0
1, 25104, Note_on_c, 1, 65, 0
1, 25104, Note_on_c, 1, 60, 82
1, 25104, Note_on_c, 1, 55, 82
1, 25104, Note_on_c, 1, 51, 82
1, 25127, Note_on_c, 0, 79, 0
1, 25127, Note_on_c, 0, 75, 0
1, 25127, Note_on_c, 0, 72, 0
1, 25127, Note_on_c, 0, 67, 0
1, 25128, Note_on_c, 0, 72, 86
1, 25149, Note_on_c, 1, 60, 0
1, 25149, Note_on_c, 1, 55, 0
1, 25149, Note_on_c, 1, 51, 0
1, 25152, Note_on_c, 0, 72, 0
1, 25152, Note_on_c, 0, 72, 87
1, 25152, Note_on_c, 1, 65, 87
1, 25152, Note_on_c, 1, 62, 87
1, 25176, Note_on_c, 0, 72, 0
1, 25176, Note_on_c, 0, 70, 72
1, 25199, Note_on_c, 0, 70, 0
1, 25200, Note_on_c, 0, 69, 73
1, 25223, Note_on_c, 0, 69, 0
1, 25224, Note_on_c, 0, 70, 74
1, 25247, Note_on_c, 0, 70, 0
1, 25248, Note_on_c, 0, 69, 75
1, 25271, Note_on_c, 0, 69, 0
1, 25272, Note_on_c, 0, 70, 76
1, 25295, Note_on_c, 0, 70, 0
1, 25296, Note_on_c, 0, 77, 90
1, 25296, Note_on_c, 0, 74, 90
1, 25296, Note_on_c, 0, 70, 90
1, 25296, Note_on_c, 0, 65, 90
1, 25296, Note_on_c, 1, 65, 0
1, 25296, Note_on_c, 1, 62, 0
1, 25296, Note_on_c, 1, 62, 89
1, 25296, Note_on_c, 1, 58, 89
1, 25296, Note_on_c, 1, 53, 89
1, 25296, Note_on_c, 1, 50, 89
1, 25319, Note_on_c, 0, 77, 0
1, 25319, Note_on_c, 0, 74, 0
1, 25319, Note_on_c, 0, 70, 0
1, 25319, Note_on_c, 0, 65, 0
1, 25320, Note_on_c, 0, 70, 94
1, 25341, Note_on_c, 1, 62, 0
1, 25341, Note_on_c, 1, 58, 0
1, 25341, Note_on_c, 1, 53, 0
1, 25341, Note_on_c, 1, 50, 0
1, 25344, Note_on_c, 0, 70, 0
1, 25344, Note_on_c, 0, 69, 95
1, 25344, Note_on_c, 1, 60, 78
1, 25344, Note_on_c, 1, 57, 78
1, 25344, Note_on_c, 1, 53, 78
1, 25344, Note_on_c, 1, 51, 78
1, 25356, Note_on_c, 0, 69, 0
1, 25356, Note_on_c, 0, 79, 80
1, 25368, Note_on_c, 0, 79, 0
1, 25368, Note_on_c, 0, 77, 80
1, 25380, Note_on_c, 0, 77, 0
1, 25380, Note_on_c, 0, 75, 80
1, 25389, Note_on_c, 1, 60, 0
1, 25389, Note_on_c, 1, 57, 0
1, 25389, Note_on_c, 1, 53, 0
1, 25389, Note_on_c, 1, 51, 0
1, 25392, Note_on_c, 0, 75, 0
1, 25392, Note_on_c, 0, 74, 80
1, 25404, Note_on_c, 0, 74, 0
1, 25404, Note_on_c, 0, 72, 80
1, 25416, Note_on_c, 0, 72, 0
1, 25416, Note_on_c, 0, 70, 80
1, 25428, Note_on_c, 0, 70, 0
1, 25428, Note_on_c, 0, 69, 80
1, 25440, Note_on_c, 0, 69, 0
1, 25440, Note_on_c, 0, 70, 80
1, 25440, Note_on_c, 1, 62, 75
1, 25440, Note_on_c, 1, 58, 75
1, 25440, Note_on_c, 1, 53, 75
1, 25440, Note_on_c, 1, 50, 75
1, 25452, Note_on_c, 0, 70, 0
1, 25452, Note_on_c, 0, 77, 78
1, 25464, Note_on_c, 0, 77, 0
1, 25464, Note_on_c, 0, 79, 77
1, 25476, Note_on_c, 0, 79, 0
1, 25476, Note_on_c, 0, 77, 76
1, 25485, Note_on_c, 1, 62, 0
1, 25485, Note_on_c, 1, 58, 0
1, 25485, Note_on_c, 1, 53, 0
1, 25485, Note_on_c, 1, 50, 0
1, 25488, Note_on_c, 0, 77, 0
1, 25488, Note_on_c, 0, 75, 75
1, 25500, Note_on_c, 0, 75, 0
1, 25500, Note_on_c, 0, 74, 73
1, 25512, Note_on_c, 0, 74, 0
1, 25512, Note_on_c, 0, 72, 72
1, 25524, Note_on_c, 0, 72, 0
1, 25524, Note_on_c, 0, 70, 71
1, 25536, Note_on_c, 0, 70, 0
1, 25536, Note_on_c, 0, 69, 70
1, 25536, Note_on_c, 1, 60, 70
1, 25536, Note_on_c, 1, 57, 70
1, 25536, Note_on_c, 1, 53, 70
1, 25536, Note_on_c, 1, 51, 70
1, 25548, Note_on_c, 0, 69, 0
1, 25548, Note_on_c, 0, 79, 70
1, 25560, Note_on_c, 0, 79, 0
1, 25560, Note_on_c, 0, 77, 70
1, 25572, Note_on_c, 0, 77, 0
1, 25572, Note_on_c, 0, 75, 70
1, 25581, Note_on_c, 1, 60, 0
1, 25581, Note_on_c, 1, 57, 0
1, 25581, Note_on_c, 1, 53, 0
1, 25581, Note_on_c, 1, 51, 0
1, 25584, Note_on_c, 0, 75, 0
1, 25584, Note_on_c, 0, 74, 70
1, 25596, Note_on_c, 0, 74, 0
1, 25596, Note_on_c, 0, 72, 70
1, 25608, Note_on_c, 0, 72, 0
1, 25608, Note_on_c, 0, 70, 70
1, 25620, Note_on_c, 0, 70, 0
1, 25620, Note_on_c, 0, 69, 70
1, 25632, Note_on_c, 0, 69, 0
1, 25632, Note_on_c, 0, 70, 70
1, 25632, Note_on_c, 1, 62, 75
1, 25632, Note_on_c, 1, 58, 75
1, 25632, Note_on_c, 1, 53, 75
1, 25632, Note_on_c, 1, 50, 75
1, 25644, Note_on_c, 0, 70, 0
1, 25644, Note_on_c, 0, 72, 71
1, 25656, Note_on_c, 0, 72, 0
1, 25656, Note_on_c, 0, 74, 72
1, 25668, Note_on_c, 0, 74, 0
1, 25668, Note_on_c, 0, 75, 73
1, 25677, Note_on_c, 1, 62, 0
1, 25677, Note_on_c, 1, 58, 0
1, 25677, Note_on_c, 1, 53, 0
1, 25677, Note_on_c, 1, 50, 0
1, 25680, Note_on_c, 0, 75, 0
1, 25680, Note_on_c, 0, 77, 75
1, 25692, Note_on_c, 0, 77, 0
1, 25692, Note_on_c, 0, 79, 76
1, 25704, Note_on_c, 0, 79, 0
1, 25704, Note_on_c, 0, 80, 77
1, 25716, Note_on_c, 0, 80, 0
1, 25716, Note_on_c, 0, 82, 78
1, 25728, Note_on_c, 0, 82, 0
1, 25728, Note_on_c, 0, 80, 80
1, 25728, Note_on_c, 1, 62, 80
1, 25728, Note_on_c, 1, 58, 80
1, 25728, Note_on_c, 1, 56, 80
1, 25728, Note_on_c, 1, 53, 80
1, 25728, Note_on_c, 1, 50, 80
1, 25740, Note_on_c, 0, 80, 0
1, 25740, Note_on_c, 0, 82, 80
1, 25752, Note_on_c, 0, 82, 0
1, 25752, Note_on_c, 0, 84, 80
1, 25764, Note_on_c, 0, 84, 0
1, 25764, Note_on_c, 0, 82, 80
1, 25776, Note_on_c, 0, 82, 0
1, 25776, Note_on_c, 0, 80, 80
1, 25788, Note_on_c, 0, 80, 0
1, 25788, Note_on_c, 0, 79, 80
1, 25800, Note_on_c, 0, 79, 0
1, 25800, Note_on_c, 0, 77, 80
1, 25812, Note_on_c, 0, 77, 0
1, 25812, Note_on_c, 0, 75, 80
1, 25824, Note_on_c, 0, 75, 0
1, 25824, Note_on_c, 0, 74, 80
1, 25836, Note_on_c, 0, 74, 0
1, 25836, Note_on_c, 0, 75, 80
1, 25848, Note_on_c, 0, 75, 0
1, 25848, Note_on_c, 0, 77, 80
1, 25860, Note_on_c, 0, 77, 0
1, 25860, Note_on_c, 0, 75, 80
1, 25872, Note_on_c, 0, 75, 0
1, 25872, Note_on_c, 0, 74, 80
1, 25884, Note_on_c, 0, 74, 0
1, 25884, Note_on_c, 0, 72, 80
1, 25896, Note_on_c, 0, 72, 0
1, 25896, Note_on_c, 0, 70, 80
1, 25905, Note_on_c, 1, 62, 0
1, 25905, Note_on_c, 1, 58, 0
1, 25905, Note_on_c, 1, 56, 0
1, 25905, Note_on_c, 1, 53, 0
1, 25905, Note_on_c, 1, 50, 0
1, 25908, Note_on_c, 0, 70, 0
1, 25908, Note_on_c, 0, 68, 80
1, 25920, Note_on_c, 0, 68, 0
1, 25920, Note_on_c, 0, 67, 80
1, 25920, Note_on_c, 1, 63, 80
1, 25920, Note_on_c, 1, 58, 80
1, 25920, Note_on_c, 1, 55, 80
1, 25920, Note_on_c, 1, 51, 80
1, 25943, Note_on_c, 0, 67, 0
1, 25944, Note_on_c, 0, 79, 64
1, 25954, Note_on_c, 0, 79, 0
1, 25968, Note_on_c, 0, 78, 64
1, 25978, Note_on_c, 0, 78, 0
1, 25992, Note_on_c, 0, 81, 64
1, 26002, Note_on_c, 0, 81, 0
1, 26009, Note_on_c, 1, 63, 0
1, 26009, Note_on_c, 1, 58, 0
1, 26009, Note_on_c, 1, 55, 0
1, 26009, Note_on_c, 1, 51, 0
1, 26016, Note_on_c, 0, 79, 64
1, 26026, Note_on_c, 0, 79, 0
1, 26040, Note_on_c, 0, 82, 64
1, 26050, Note_on_c, 0, 82, 0
1, 26064, Note_on_c, 0, 78, 64
1, 26074, Note_on_c, 0, 78, 0
1, 26088, Note_on_c, 0, 81, 64
1, 26098, Note_on_c, 0, 81, 0
1, 26112, Note_on_c, 0, 79, 64
1, 26122, Note_on_c, 0, 79, 0
1, 26136, Note_on_c, 0, 82, 67
1, 26146, Note_on_c, 0, 82, 0
1, 26160, Note_on_c, 0, 78, 70
1, 26160, Note_on_c, 1, 66, 70
1, 26170, Note_on_c, 0, 78, 0
1, 26170, Note_on_c, 1, 66, 0
1, 26184, Note_on_c, 0, 81, 73
1, 26184, Note_on_c, 1, 69, 73
1, 26194, Note_on_c, 0, 81, 0
1, 26194, Note_on_c, 1, 69, 0
1, 26208, Note_on_c, 0, 79, 76
1, 26208, Note_on_c, 1, 67, 76
1, 26218, Note_on_c, 0, 79, 0
1, 26218, Note_on_c, 1, 67, 0
1, 26232, Note_on_c, 0, 82, 80
1, 26232, Note_on_c, 1, 70, 80
1, 26242, Note_on_c, 0, 82, 0
1, 26242, Note_on_c, 1, 70, 0
1, 26256, Note_on_c, 0, 79, 80
1, 26256, Note_on_c, 1, 67, 80
1, 26271, Note_on_c, 0, 79, 0
1, 26271, Note_on_c, 1, 67, 0
1, 26272, Note_on_c, 0, 75, 80
1, 26272, Note_on_c, 1, 63, 80
1, 26287, Note_on_c, 0, 75, 0
1, 26287, Note_on_c, 1, 63, 0
1, 26288, Note_on_c, 0, 72, 80
1, 26288, Note_on_c, 1, 60, 80
1, 26303, Note_on_c, 0, 72, 0
1, 26303, Note_on_c, 1, 60, 0
1, 26304, Note_on_c, 0, 70, 80
1, 26304, Note_on_c, 1, 62, 80
1, 26304, Note_on_c, 1, 53, 80
1, 26371, Note_on_c, 0, 70, 0
1, 26376, Note_on_c, 0, 72, 80
1, 26382, Note_on_c, 0, 72, 0
1, 26382, Note_on_c, 0, 70, 80
1, 26388, Note_on_c, 0, 70, 0
1, 26388, Note_on_c, 0, 69, 80
1, 26393, Note_on_c, 1, 62, 0
1, 26394, Note_on_c, 0, 69, 0
1, 26394, Note_on_c, 0, 70, 80
1, 26400, Note_on_c, 0, 70, 0
1, 26400, Note_on_c, 0, 74, 80
1, 26400, Note_on_c, 0, 69, 75
1, 26400, Note_on_c, 1, 63, 80
1, 26467, Note_on_c, 0, 74, 0
1, 26472, Note_on_c, 0, 72, 80
1, 26481, Note_on_c, 1, 53, 0
1, 26489, Note_on_c, 0, 69, 0
1, 26489, Note_on_c, 1, 63, 0
1, 26495, Note_on_c, 0, 72, 0
1, 26496, Note_on_c, 0, 70, 80
1, 26496, Note_on_c, 1, 62, 80
1, 26496, Note_on_c, 1, 58, 80
1, 26541, Note_on_c, 0, 70, 0
1, 26541, Note_on_c, 1, 62, 0
1, 26541, Note_on_c, 1, 58, 0
1, 26580, Note_on_c, 0, 89, 64
1, 26592, Note_on_c, 0, 89, 0
1, 26592, Note_on_c, 0, 86, 64
1, 26592, Note_on_c, 1, 74, 64
1, 26592, Note_on_c, 1, 70, 64
1, 26602, Note_on_c, 0, 86, 0
1, 26612, Note_on_c, 1, 74, 0
1, 26612, Note_on_c, 1, 70, 0
1, 26628, Note_on_c, 0, 89, 64
1, 26640, Note_on_c, 0, 89, 0
1, 26640, Note_on_c, 0, 84, 64
1, 26640, Note_on_c, 1, 72, 64
1, 26640, Note_on_c, 1, 65, 64
1, 26650, Note_on_c, 0, 84, 0
1, 26660, Note_on_c, 1, 72, 0
1, 26660, Note_on_c, 1, 65, 0
1, 26676, Note_on_c, 0, 89, 64
1, 26688, Note_on_c, 0, 89, 0
1, 26688, Note_on_c, 0, 82, 64
1, 26688, Note_on_c, 1, 70, 64
1, 26688, Note_on_c, 1, 62, 64
1, 26698, Note_on_c, 0, 82, 0
1, 26724, Note_on_c, 0, 89, 64
1, 26733, Note_on_c, 1, 70, 0
1, 26733, Note_on_c, 1, 62, 0
1, 26736, Note_on_c, 0, 89, 0
1, 26736, Note_on_c, 0, 77, 64
1, 26746, Note_on_c, 0, 77, 0
1, 26772, Note_on_c, 0, 89, 58
1, 26784, Note_on_c, 0, 89, 0
1, 26784, Note_on_c, 0, 86, 58
1, 26784, Note_on_c, 1, 74, 58
1, 26784, Note_on_c, 1, 70, 58
1, 26794, Note_on_c, 0, 86, 0
1, 26804, Note_on_c, 1, 74, 0
1, 26804, Note_on_c, 1, 70, 0
1, 26820, Note_on_c, 0, 89, 58
1, 26832, Note_on_c, 0, 89, 0
1, 26832, Note_on_c, 0, 84, 58
1, 26832, Note_on_c, 1, 72, 58
1, 26832, Note_on_c, 1, 65, 58
1, 26842, Note_on_c, 0, 84, 0
1, 26852, Note_on_c, 1, 72, 0
1, 26852, Note_on_c, 1, 65, 0
1, 26868, Note_on_c, 0, 89, 58
1, 26880, Note_on_c, 0, 89, 0
1, 26880, Note_on_c, 0, 82, 58
1, 26880, Note_on_c, 1, 70, 58
1, 26880, Note_on_c, 1, 62, 58
1, 26890, Note_on_c, 0, 82, 0
1, 26916, Note_on_c, 0, 89, 58
1, 26925, Note_on_c, 1, 70, 0
1, 26925, Note_on_c, 1, 62, 0
1, 26928, Note_on_c, 0, 89, 0
1, 26928, Note_on_c, 0, 77, 58
1, 26938, Note_on_c, 0, 77, 0
1, 26964, Note_on_c, 0, 89, 58
1, 26976, Note_on_c, 0, 89, 0
1, 26976, Note_on_c, 0, 80, 58
1, 26976, Note_on_c, 1, 70, 58
1, 26976, Note_on_c, 1, 62, 58
1, 26986, Note_on_c, 0, 80, 0
1, 27012, Note_on_c, 0, 89, 64
1, 27021, Note_on_c, 1, 70, 0
1, 27021, Note_on_c, 1, 62, 0
1, 27024, Note_on_c, 0, 89, 0
1, 27024, Note_on_c, 0, 78, 64
1, 27024, Note_on_c, 1, 70, 64
1, 27024, Note_on_c, 1, 62, 64
1, 27034, Note_on_c, 0, 78, 0
1, 27060, Note_on_c, 0, 89, 64
1, 27069, Note_on_c, 1, 70, 0
1, 27069, Note_on_c, 1, 62, 0
1, 27072, Note_on_c, 0, 89, 0
1, 27072, Note_on_c, 0, 79, 64
1, 27072, Note_on_c, 1, 70, 64
1, 27072, Note_on_c, 1, 63, 80
1, 27082, Note_on_c, 0, 79, 0
1, 27108, Note_on_c, 0, 83, 65
1, 27117, Note_on_c, 1, 70, 0
1, 27120, Note_on_c, 0, 83, 0
1, 27120, Note_on_c, 0, 84, 65
1, 27120, Note_on_c, 1, 67, 65
1, 27130, Note_on_c, 0, 84, 0
1, 27156, Note_on_c, 0, 86, 67
1, 27165, Note_on_c, 1, 67, 0
1, 27168, Note_on_c, 0, 86, 0
1, 27168, Note_on_c, 0, 87, 67
1, 27168, Note_on_c, 1, 72, 67
1, 27178, Note_on_c, 0, 87, 0
1, 27204, Note_on_c, 0, 86, 69
1, 27205, Note_on_c, 1, 63, 0
1, 27216, Note_on_c, 0, 86, 0
1, 27216, Note_on_c, 0, 84, 69
1, 27216, Note_on_c, 1, 64, 80
1, 27226, Note_on_c, 0, 84, 0
1, 27252, Note_on_c, 0, 82, 71
1, 27261, Note_on_c, 1, 64, 0
1, 27264, Note_on_c, 0, 82, 0
1, 27264, Note_on_c, 0, 81, 71
1, 27264, Note_on_c, 1, 65, 80
1, 27274, Note_on_c, 0, 81, 0
1, 27300, Note_on_c, 0, 79, 73
1, 27309, Note_on_c, 1, 65, 0
1, 27312, Note_on_c, 0, 79, 0
1, 27312, Note_on_c, 0, 77, 73
1, 27312, Note_on_c, 1, 67, 80
1, 27322, Note_on_c, 0, 77, 0
1, 27348, Note_on_c, 0, 76, 75
1, 27357, Note_on_c, 1, 67, 0
1, 27360, Note_on_c, 0, 76, 0
1, 27360, Note_on_c, 0, 77, 75
1, 27360, Note_on_c, 1, 69, 80
1, 27370, Note_on_c, 0, 77, 0
1, 27396, Note_on_c, 0, 79, 77
1, 27397, Note_on_c, 1, 72, 0
1, 27405, Note_on_c, 1, 69, 0
1, 27408, Note_on_c, 0, 79, 0
1, 27408, Note_on_c, 0, 77, 77
1, 27408, Note_on_c, 1, 65, 77
1, 27408, Note_on_c, 1, 57, 80
1, 27418, Note_on_c, 0, 77, 0
1, 27444, Note_on_c, 0, 75, 79
1, 27453, Note_on_c, 1, 65, 0
1, 27453, Note_on_c, 1, 57, 0
1, 27456, Note_on_c, 0, 75, 0
1, 27456, Note_on_c, 0, 73, 79
1, 27456, Note_on_c, 1, 61, 79
1, 27456, Note_on_c, 1, 58, 79
1, 27468, Note_on_c, 0, 73, 0
1, 27468, Note_on_c, 0, 75, 80
1, 27479, Note_on_c, 1, 61, 0
1, 27479, Note_on_c, 1, 58, 0
1, 27480, Note_on_c, 0, 75, 0
1, 27480, Note_on_c, 0, 73, 80
1, 27480, Note_on_c, 1, 65, 80
1, 27492, Note_on_c, 0, 73, 0
1, 27492, Note_on_c, 0, 72, 80
1, 27503, Note_on_c, 1, 65, 0
1, 27504, Note_on_c, 0, 72, 0
1, 27504, Note_on_c, 0, 70, 80
1, 27504, Note_on_c, 1, 61, 80
1, 27504, Note_on_c, 1, 58, 80
1, 27514, Note_on_c, 0, 70, 0
1, 27527, Note_on_c, 1, 61, 0
1, 27527, Note_on_c, 1, 58, 0
1, 27528, Note_on_c, 0, 70, 80
1, 27528, Note_on_c, 1, 65, 80
1, 27538, Note_on_c, 0, 70, 0
1, 27551, Note_on_c, 1, 65, 0
1, 27552, Note_on_c, 0, 75, 80
1, 27552, Note_on_c, 1, 60, 80
1, 27552, Note_on_c, 1, 57, 80
1, 27564, Note_on_c, 0, 75, 0
1, 27564, Note_on_c, 0, 77, 80
1, 27575, Note_on_c, 1, 60, 0
1, 27575, Note_on_c, 1, 57, 0
1, 27576, Note_on_c, 0, 77, 0
1, 27576, Note_on_c, 0, 75, 80
1, 27576, Note_on_c, 1, 65, 76
1, 27588, Note_on_c, 0, 75, 0
1, 27588, Note_on_c, 0, 73, 80
1, 27599, Note_on_c, 1, 65, 0
1, 27600, Note_on_c, 0, 73, 0
1, 27600, Note_on_c, 0, 72, 78
1, 27600, Note_on_c, 1, 60, 72
1, 27600, Note_on_c, 1, 57, 72
1, 27610, Note_on_c, 0, 72, 0
1, 27623, Note_on_c, 1, 60, 0
1, 27623, Note_on_c, 1, 57, 0
1, 27624, Note_on_c, 0, 72, 74
1, 27624, Note_on_c, 1, 65, 68
1, 27634, Note_on_c, 0, 72, 0
1, 27647, Note_on_c, 1, 65, 0
1, 27648, Note_on_c, 0, 73, 70
1, 27648, Note_on_c, 1, 61, 70
1, 27648, Note_on_c, 1, 58, 70
1, 27660, Note_on_c, 0, 73, 0
1, 27660, Note_on_c, 0, 75, 70
1, 27671, Note_on_c, 1, 61, 0
1, 27671, Note_on_c, 1, 58, 0
1, 27672, Note_on_c, 0, 75, 0
1, 27672, Note_on_c, 0, 73, 70
1, 27672, Note_on_c, 1, 65, 70
1, 27684, Note_on_c, 0, 73, 0
1, 27684, Note_on_c, 0, 72, 70
1, 27695, Note_on_c, 1, 65, 0
1, 27696, Note_on_c, 0, 72, 0
1, 27696, Note_on_c, 0, 70, 70
1, 27696, Note_on_c, 1, 61, 70
1, 27696, Note_on_c, 1, 58, 70
1, 27706, Note_on_c, 0, 70, 0
1, 27719, Note_on_c, 1, 61, 0
1, 27719, Note_on_c, 1, 58, 0
1, 27720, Note_on_c, 0, 70, 70
1, 27720, Note_on_c, 1, 65, 70
1, 27730, Note_on_c, 0, 70, 0
1, 27743, Note_on_c, 1, 65, 0
1, 27744, Note_on_c, 0, 75, 70
1, 27744, Note_on_c, 1, 60, 70
1, 27744, Note_on_c, 1, 57, 70
1, 27756, Note_on_c, 0, 75, 0
1, 27756, Note_on_c, 0, 77, 70
1, 27767, Note_on_c, 1, 60, 0
1, 27767, Note_on_c, 1, 57, 0
1, 27768, Note_on_c, 0, 77, 0
1, 27768, Note_on_c, 0, 75, 70
1, 27768, Note_on_c, 1, 65, 72
1, 27780, Note_on_c, 0, 75, 0
1, 27780, Note_on_c, 0, 73, 71
1, 27791, Note_on_c, 1, 65, 0
1, 27792, Note_on_c, 0, 73, 0
1, 27792, Note_on_c, 0, 72, 73
1, 27792, Note_on_c, 1, 60, 75
1, 27792, Note_on_c, 1, 57, 75
1, 27802, Note_on_c, 0, 72, 0
1, 27815, Note_on_c, 1, 60, 0
1, 27815, Note_on_c, 1, 57, 0
1, 27816, Note_on_c, 0, 72, 76
1, 27816, Note_on_c, 1, 65, 77
1, 27826, Note_on_c, 0, 72, 0
1, 27839, Note_on_c, 1, 65, 0
1, 27840, Note_on_c, 0, 73, 80
1, 27840, Note_on_c, 1, 61, 80
1, 27840, Note_on_c, 1, 49, 80
1, 27852, Note_on_c, 0, 73, 0
1, 27852, Note_on_c, 0, 75, 80
1, 27864, Note_on_c, 0, 75, 0
1, 27864, Note_on_c, 0, 73, 80
1, 27876, Note_on_c, 0, 73, 0
1, 27876, Note_on_c, 0, 72, 80
1, 27885, Note_on_c, 1, 61, 0
1, 27885, Note_on_c, 1, 49, 0
1, 27888, Note_on_c, 0, 72, 0
1, 27888, Note_on_c, 0, 70, 80
1, 27888, Note_on_c, 1, 58, 80
1, 27888, Note_on_c, 1, 46, 80
1, 27900, Note_on_c, 0, 70, 0
1, 27900, Note_on_c, 0, 72, 80
1, 27912, Note_on_c, 0, 72, 0
1, 27912, Note_on_c, 0, 70, 80
1, 27924, Note_on_c, 0, 70, 0
1, 27924, Note_on_c, 0, 68, 80
1, 27933, Note_on_c, 1, 58, 0
1, 27933, Note_on_c, 1, 46, 0
1, 27936, Note_on_c, 0, 68, 0
1, 27936, Note_on_c, 0, 66, 80
1, 27936, Note_on_c, 1, 54, 80
1, 27936, Note_on_c, 1, 42, 80
1, 27948, Note_on_c, 0, 66, 0
1, 27948, Note_on_c, 0, 68, 80
1, 27960, Note_on_c, 0, 68, 0
1, 27960, Note_on_c, 0, 66, 80
1, 27972, Note_on_c, 0, 66, 0
1, 27972, Note_on_c, 0, 65, 80
1, 27981, Note_on_c, 1, 54, 0
1, 27981, Note_on_c, 1, 42, 0
1, 27984, Note_on_c, 0, 65, 0
1, 27984, Note_on_c, 0, 63, 80
1, 27984, Note_on_c, 1, 51, 80
1, 27984, Note_on_c, 1, 39, 80
1, 27996, Note_on_c, 0, 63, 0
1, 27996, Note_on_c, 0, 65, 80
1, 28008, Note_on_c, 0, 65, 0
1, 28008, Note_on_c, 0, 63, 80
1, 28020, Note_on_c, 0, 63, 0
1, 28020, Note_on_c, 0, 61, 80
1, 28029, Note_on_c, 1, 51, 0
1, 28029, Note_on_c, 1, 39, 0
1, 28032, Note_on_c, 0, 61, 0
1, 28032, Note_on_c, 0, 60, 80
1, 28032, Note_on_c, 1, 48, 80
1, 28032, Note_on_c, 1, 36, 80
1, 28044, Note_on_c, 0, 60, 0
1, 28044, Note_on_c, 0, 61, 80
1, 28056, Note_on_c, 0, 61, 0
1, 28056, Note_on_c, 0, 63, 80
1, 28068, Note_on_c, 0, 63, 0
1, 28068, Note_on_c, 0, 61, 80
1, 28080, Note_on_c, 0, 61, 0
1, 28080, Note_on_c, 0, 60, 80
1, 28092, Note_on_c, 0, 60, 0
1, 28092, Note_on_c, 0, 61, 80
1, 28104, Note_on_c, 0, 61, 0
1, 28104, Note_on_c, 0, 63, 80
1, 28116, Note_on_c, 0, 63, 0
1, 28116, Note_on_c, 0, 61, 80
1, 28121, Note_on_c, 1, 48, 0
1, 28121, Note_on_c, 1, 36, 0
1, 28128, Note_on_c, 0, 61, 0
1, 28128, Note_on_c, 0, 60, 80
1, 28128, Note_on_c, 1, 46, 80
1, 28128, Note_on_c, 1, 34, 80
1, 28140, Note_on_c, 0, 60, 0
1, 28140, Note_on_c, 0, 61, 80
1, 28152, Note_on_c, 0, 61, 0
1, 28152, Note_on_c, 0, 63, 80
1, 28164, Note_on_c, 0, 63, 0
1, 28164, Note_on_c, 0, 61, 80
1, 28176, Note_on_c, 0, 61, 0
1, 28176, Note_on_c, 0, 60, 80
1, 28188, Note_on_c, 0, 60, 0
1, 28188, Note_on_c, 0, 61, 80
1, 28200, Note_on_c, 0, 61, 0
1, 28200, Note_on_c, 0, 63, 80
1, 28212, Note_on_c, 0, 63, 0
1, 28212, Note_on_c, 0, 61, 80
1, 28217, Note_on_c, 1, 46, 0
1, 28217, Note_on_c, 1, 34, 0
1, 28224, Note_on_c, 0, 61, 0
1, 28224, Note_on_c, 0, 60, 80
1, 28224, Note_on_c, 1, 45, 80
1, 28224, Note_on_c, 1, 33, 80
1, 28236, Note_on_c, 0, 60, 0
1, 28236, Note_on_c, 0, 61, 79
1, 28248, Note_on_c, 0, 61, 0
1, 28248, Note_on_c, 0, 63, 78
1, 28260, Note_on_c, 0, 63, 0
1, 28260, Note_on_c, 0, 61, 77
1, 28272, Note_on_c, 0, 61, 0
1, 28272, Note_on_c, 0, 60, 76
1, 28284, Note_on_c, 0, 60, 0
1, 28284, Note_on_c, 0, 61, 75
1, 28296, Note_on_c, 0, 61, 0
1, 28296, Note_on_c, 0, 63, 74
1, 28308, Note_on_c, 0, 63, 0
1, 28308, Note_on_c, 0, 61, 73
1, 28313, Note_on_c, 1, 45, 0
1, 28313, Note_on_c, 1, 33, 0
1, 28320, Note_on_c, 0, 61, 0
1, 28320, Note_on_c, 0, 60, 72
1, 28320, Note_on_c, 1, 42, 75
1, 28320, Note_on_c, 1, 30, 75
1, 28332, Note_on_c, 0, 60, 0
1, 28332, Note_on_c, 0, 61, 71
1, 28344, Note_on_c, 0, 61, 0
1, 28344, Note_on_c, 0, 63, 70
1, 28356, Note_on_c, 0, 63, 0
1, 28356, Note_on_c, 0, 61, 69
1, 28368, Note_on_c, 0, 61, 0
1, 28368, Note_on_c, 0, 60, 68
1, 28380, Note_on_c, 0, 60, 0
1, 28380, Note_on_c, 0, 61, 67
1, 28392, Note_on_c, 0, 61, 0
1, 28392, Note_on_c, 0, 63, 66
1, 28404, Note_on_c, 0, 63, 0
1, 28404, Note_on_c, 0, 61, 65
1, 28409, Note_on_c, 1, 42, 0
1, 28409, Note_on_c, 1, 30, 0
1, 28416, Note_on_c, 0, 61, 0
1, 28416, Note_on_c, 0, 60, 70
1, 28416, Note_on_c, 1, 41, 70
1, 28416, Note_on_c, 1, 29, 70
1, 28428, Note_on_c, 0, 60, 0
1, 28428, Note_on_c, 0, 61, 70
1, 28440, Note_on_c, 0, 61, 0
1, 28440, Note_on_c, 0, 63, 70
1, 28452, Note_on_c, 0, 63, 0
1, 28452, Note_on_c, 0, 61, 70
1, 28464, Note_on_c, 0, 61, 0
1, 28464, Note_on_c, 0, 60, 70
1, 28476, Note_on_c, 0, 60, 0
1, 28476, Note_on_c, 0, 61, 70
1, 28488, Note_on_c, 0, 61, 0
1, 28488, Note_on_c, 0, 63, 70
1, 28500, Note_on_c, 0, 63, 0
1, 28500, Note_on_c, 0, 61, 70
1, 28512, Note_on_c, 0, 61, 0
1, 28512, Note_on_c, 0, 60, 70
1, 28524, Note_on_c, 0, 60, 0
1, 28524, Note_on_c, 0, 61, 70
1, 28536, Note_on_c, 0, 61, 0
1, 28536, Note_on_c, 0, 63, 70
1, 28548, Note_on_c, 0, 63, 0
1, 28548, Note_on_c, 0, 61, 70
1, 28560, Note_on_c, 0, 61, 0
1, 28560, Note_on_c, 0, 60, 70
1, 28572, Note_on_c, 0, 60, 0
1, 28572, Note_on_c, 0, 61, 70
1, 28584, Note_on_c, 0, 61, 0
1, 28584, Note_on_c, 0, 63, 70
1, 28596, Note_on_c, 0, 63, 0
1, 28596, Note_on_c, 0, 61, 70
1, 28608, Note_on_c, 0, 61, 0
1, 28608, Note_on_c, 0, 60, 64
1, 28620, Note_on_c, 0, 60, 0
1, 28620, Note_on_c, 0, 62, 65
1, 28632, Note_on_c, 0, 62, 0
1, 28632, Note_on_c, 0, 63, 67
1, 28644, Note_on_c, 0, 63, 0
1, 28644, Note_on_c, 0, 62, 69
1, 28656, Note_on_c, 0, 62, 0
1, 28656, Note_on_c, 0, 60, 71
1, 28668, Note_on_c, 0, 60, 0
1, 28668, Note_on_c, 0, 62, 72
1, 28680, Note_on_c, 0, 62, 0
1, 28680, Note_on_c, 0, 63, 74
1, 28692, Note_on_c, 0, 63, 0
1, 28692, Note_on_c, 0, 62, 76
1, 28704, Note_on_c, 0, 62, 0
1, 28704, Note_on_c, 0, 60, 78
1, 28716, Note_on_c, 0, 60, 0
1, 28716, Note_on_c, 0, 62, 80
1, 28728, Note_on_c, 0, 62, 0
1, 28728, Note_on_c, 0, 63, 80
1, 28740, Note_on_c, 0, 63, 0
1, 28740, Note_on_c, 0, 65, 80
1, 28752, Note_on_c, 0, 65, 0
1, 28752, Note_on_c, 0, 67, 80
1, 28764, Note_on_c, 0, 67, 0
1, 28764, Note_on_c, 0, 69, 80
1, 28770, Note_on_c, 1, 41, 0
1, 28770, Note_on_c, 1, 29, 0
1, 28776, Note_on_c, 0, 69, 0
1, 28776, Note_on_c, 0, 70, 80
1, 28788, Note_on_c, 0, 70, 0
1, 28788, Note_on_c, 0, 72, 80
1, 28800, Note_on_c, 0, 72, 0
1, 28800, Note_on_c, 0, 74, 80
1, 28800, Note_on_c, 0, 70, 80
1, 28800, Note_on_c, 1, 65, 80
1, 28800, Note_on_c, 1, 62, 80
1, 28800, Note_on_c, 1, 58, 80
1, 28889, Note_on_c, 0, 74, 0
1, 28889, Note_on_c, 0, 70, 0
1, 28889, Note_on_c, 1, 65, 0
1, 28889, Note_on_c, 1, 62, 0
1, 28889, Note_on_c, 1, 58, 0
1, 28896, Note_on_c, 0, 72, 80
1, 28896, Note_on_c, 1, 57, 80
1, 28904, Note_on_c, 1, 60, 80
1, 28908, Note_on_c, 0, 77, 80
1, 28912, Note_on_c, 1, 65, 80
1, 28989, Note_on_c, 0, 77, 0
1, 28989, Note_on_c, 0, 72, 0
1, 28989, Note_on_c, 1, 65, 0
1, 28989, Note_on_c, 1, 60, 0
1, 28989, Note_on_c, 1, 57, 0
1, 28992, Note_on_c, 0, 70, 80
1, 28992, Note_on_c, 1, 55, 80
1, 29000, Note_on_c, 0, 75, 80
1, 29000, Note_on_c, 1, 58, 80
1, 29008, Note_on_c, 0, 82, 80
1, 29008, Note_on_c, 1, 63, 80
1, 29136, Note_on_c, 0, 75, 0
1, 29136, Note_on_c, 0, 70, 0
1, 29159, Note_on_c, 0, 82, 0
1, 29160, Note_on_c, 0, 81, 80
1, 29168, Note_on_c, 0, 81, 0
1, 29168, Note_on_c, 0, 79, 80
1, 29173, Note_on_c, 1, 63, 0
1, 29173, Note_on_c, 1, 58, 0
1, 29173, Note_on_c, 1, 55, 0
1, 29176, Note_on_c, 0, 79, 0
1, 29176, Note_on_c, 0, 77, 80
1, 29184, Note_on_c, 0, 77, 0
1, 29184, Note_on_c, 0, 75, 80
1, 29184, Note_on_c, 1, 70, 80
1, 29184, Note_on_c, 1, 67, 80
1, 29204, Note_on_c, 0, 75, 0
1, 29204, Note_on_c, 1, 70, 0
1, 29204, Note_on_c, 1, 67, 0
1, 29256, Note_on_c, 0, 74, 80
1, 29256, Note_on_c, 1, 70, 80
1, 29256, Note_on_c, 1, 65, 80
1, 29279, Note_on_c, 0, 74, 0
1, 29279, Note_on_c, 1, 70, 0
1, 29279, Note_on_c, 1, 65, 0
1, 29280, Note_on_c, 0, 79, 80
1, 29280, Note_on_c, 1, 70, 80
1, 29280, Note_on_c, 1, 63, 80
1, 29300, Note_on_c, 0, 79, 0
1, 29300, Note_on_c, 1, 70, 0
1, 29300, Note_on_c, 1, 63, 0
1, 29352, Note_on_c, 0, 77, 80
1, 29352, Note_on_c, 0, 70, 80
1, 29352, Note_on_c, 1, 65, 80
1, 29352, Note_on_c, 1, 61, 80
1, 29375, Note_on_c, 0, 77, 0
1, 29375, Note_on_c, 0, 70, 0
1, 29375, Note_on_c, 1, 65, 0
1, 29375, Note_on_c, 1, 61, 0
1, 29376, Note_on_c, 0, 76, 80
1, 29376, Note_on_c, 0, 70, 80
1, 29376, Note_on_c, 1, 67, 80
1, 29376, Note_on_c, 1, 60, 80
1, 29415, Note_on_c, 0, 76, 0
1, 29415, Note_on_c, 0, 70, 0
1, 29415, Note_on_c, 1, 67, 0
1, 29415, Note_on_c, 1, 60, 0
1, 29496, Note_on_c, 0, 79, 64
1, 29496, Note_on_c, 0, 75, 64
1, 29519, Note_on_c, 0, 79, 0
1, 29519, Note_on_c, 0, 75, 0
1, 29520, Note_on_c, 0, 77, 64
1, 29520, Note_on_c, 0, 74, 64
1, 29543, Note_on_c, 0, 77, 0
1, 29543, Note_on_c, 0, 74, 0
1, 29544, Note_on_c, 0, 75, 64
1, 29544, Note_on_c, 0, 72, 64
1, 29567, Note_on_c, 0, 75, 0
1, 29567, Note_on_c, 0, 72, 0
1, 29568, Note_on_c, 0, 74, 64
1, 29568, Note_on_c, 0, 70, 64
1, 29592, Note_on_c, 1, 65, 64
1, 29592, Note_on_c, 1, 62, 64
1, 29607, Note_on_c, 0, 74, 0
1, 29607, Note_on_c, 0, 70, 0
1, 29616, Note_on_c, 1, 65, 0
1, 29616, Note_on_c, 1, 62, 0
1, 29616, Note_on_c, 1, 63, 64
1, 29616, Note_on_c, 1, 60, 64
1, 29639, Note_on_c, 1, 63, 0
1, 29639, Note_on_c, 1, 60, 0
1, 29640, Note_on_c, 1, 62, 64
1, 29640, Note_on_c, 1, 58, 64
1, 29663, Note_on_c, 1, 62, 0
1, 29663, Note_on_c, 1, 58, 0
1, 29664, Note_on_c, 1, 60, 64
1, 29664, Note_on_c, 1, 57, 64
1, 29688, Note_on_c, 0, 79, 64
1, 29688, Note_on_c, 0, 75, 64
1, 29703, Note_on_c, 1, 60, 0
1, 29703, Note_on_c, 1, 57, 0
1, 29711, Note_on_c, 0, 79, 0
1, 29711, Note_on_c, 0, 75, 0
1, 29712, Note_on_c, 0, 77, 64
1, 29712, Note_on_c, 0, 74, 64
1, 29735, Note_on_c, 0, 77, 0
1, 29735, Note_on_c, 0, 74, 0
1, 29736, Note_on_c, 0, 75, 64
1, 29736, Note_on_c, 0, 72, 64
1, 29759, Note_on_c, 0, 75, 0
1, 29759, Note_on_c, 0, 72, 0
1, 29760, Note_on_c, 0, 74, 64
1, 29760, Note_on_c, 0, 70, 64
1, 29784, Note_on_c, 1, 65, 64
1, 29784, Note_on_c, 1, 62, 64
1, 29799, Note_on_c, 0, 74, 0
1, 29799, Note_on_c, 0, 70, 0
1, 29807, Note_on_c, 1, 65, 0
1, 29807, Note_on_c, 1, 62, 0
1, 29808, Note_on_c, 1, 63, 64
1, 29808, Note_on_c, 1, 60, 64
1, 29831, Note_on_c, 1, 63, 0
1, 29831, Note_on_c, 1, 60, 0
1, 29832, Note_on_c, 1, 62, 64
1, 29832, Note_on_c, 1, 58, 64
1, 29855, Note_on_c, 1, 62, 0
1, 29855, Note_on_c, 1, 58, 0
1, 29856, Note_on_c, 1, 60, 64
1, 29856, Note_on_c, 1, 57, 64
1, 29866, Note_on_c, 1, 60, 0
1, 29866, Note_on_c, 1, 57, 0
1, 29880, Note_on_c, 0, 79, 64
1, 29880, Note_on_c, 0, 75, 64
1, 29880, Note_on_c, 1, 65, 64
1, 29903, Note_on_c, 0, 79, 0
1, 29903, Note_on_c, 0, 75, 0
1, 29903, Note_on_c, 1, 65, 0
1, 29904, Note_on_c, 0, 77, 69
1, 29904, Note_on_c, 0, 74, 69
1, 29904, Note_on_c, 1, 67, 69
1, 29927, Note_on_c, 0, 77, 0
1, 29927, Note_on_c, 0, 74, 0
1, 29927, Note_on_c, 1, 67, 0
1, 29928, Note_on_c, 0, 75, 74
1, 29928, Note_on_c, 0, 72, 74
1, 29928, Note_on_c, 1, 69, 74
1, 29951, Note_on_c, 0, 75, 0
1, 29951, Note_on_c, 0, 72, 0
1, 29951, Note_on_c, 1, 69, 0
1, 29952, Note_on_c, 0, 74, 80
1, 29952, Note_on_c, 0, 70, 80
1, 29952, Note_on_c, 1, 70, 80
1, 29962, Note_on_c, 0, 74, 0
1, 29962, Note_on_c, 0, 70, 0
1, 29962, Note_on_c, 1, 70, 0
1, 29976, Note_on_c, 0, 82, 80
1, 29976, Note_on_c, 0, 77, 80
1, 29976, Note_on_c, 1, 74, 80
1, 29999, Note_on_c, 0, 82, 0
1, 29999, Note_on_c, 0, 77, 0
1, 29999, Note_on_c, 1, 74, 0
1, 30000, Note_on_c, 0, 81, 80
1, 30000, Note_on_c, 0, 75, 80
1, 30000, Note_on_c, 1, 72, 80
1, 30023, Note_on_c, 0, 81, 0
1, 30023, Note_on_c, 0, 75, 0
1, 30023, Note_on_c, 1, 72, 0
1, 30024, Note_on_c, 0, 79, 80
1, 30024, Note_on_c, 0, 74, 80
1, 30024, Note_on_c, 1, 70, 80
1, 30047, Note_on_c, 0, 79, 0
1, 30047, Note_on_c, 0, 74, 0
1, 30047, Note_on_c, 1, 70, 0
1, 30048, Note_on_c, 0, 77, 80
1, 30048, Note_on_c, 0, 72, 80
1, 30048, Note_on_c, 1, 69, 80
1, 30071, Note_on_c, 0, 77, 0
1, 30071, Note_on_c, 0, 72, 0
1, 30071, Note_on_c, 1, 69, 0
1, 30072, Note_on_c, 0, 75, 80
1, 30072, Note_on_c, 1, 70, 80
1, 30072, Note_on_c, 1, 67, 80
1, 30095, Note_on_c, 0, 75, 0
1, 30095, Note_on_c, 1, 70, 0
1, 30095, Note_on_c, 1, 67, 0
1, 30096, Note_on_c, 0, 74, 80
1, 30096, Note_on_c, 1, 69, 80
1, 30096, Note_on_c, 1, 65, 80
1, 30119, Note_on_c, 0, 74, 0
1, 30119, Note_on_c, 1, 69, 0
1, 30119, Note_on_c, 1, 65, 0
1, 30120, Note_on_c, 0, 72, 80
1, 30120, Note_on_c, 1, 67, 80
1, 30120, Note_on_c, 1, 63, 80
1, 30143, Note_on_c, 0, 72, 0
1, 30143, Note_on_c, 1, 67, 0
1, 30143, Note_on_c, 1, 63, 0
1, 30144, Note_on_c, 0, 71, 96
1, 30144, Note_on_c, 1, 65, 96
1, 30144, Note_on_c, 1, 62, 96
1, 30240, Note_on_c, 0, 71, 0
1, 30240, Note_on_c, 0, 72, 70
1, 30240, Note_on_c, 1, 65, 0
1, 30240, Note_on_c, 1, 62, 0
1, 30240, Note_on_c, 1, 67, 70
1, 30240, Note_on_c, 1, 63, 70
1, 30260, Note_on_c, 0, 72, 0
1, 30260, Note_on_c, 1, 67, 0
1, 30260, Note_on_c, 1, 63, 0
1, 30336, Note_on_c, 0, 69, 96
1, 30336, Note_on_c, 0, 65, 96
1, 30336, Note_on_c, 1, 63, 96
1, 30336, Note_on_c, 1, 60, 96
1, 30432, Note_on_c, 0, 69, 0
1, 30432, Note_on_c, 0, 70, 70
1, 30432, Note_on_c, 1, 63, 0
1, 30432, Note_on_c, 1, 60, 0
1, 30432, Note_on_c, 1, 62, 70
1, 30452, Note_on_c, 0, 70, 0
1, 30452, Note_on_c, 0, 65, 0
1, 30452, Note_on_c, 1, 62, 0
1, 30720, Note_on_c, 0, 67, 64
1, 30720, Note_on_c, 0, 55, 64
1, 30912, Note_on_c, 0, 67, 0
1, 30912, Note_on_c, 0, 55, 0
1, 30912, Note_on_c, 0, 66, 70
1, 30912, Note_on_c, 0, 54, 70
1, 30912, Note_on_c, 1, 42, 75
1, 30912, Note_on_c, 1, 30, 75
1, 31089, Note_on_c, 0, 66, 0
1, 31089, Note_on_c, 0, 54, 0
1, 31089, Note_on_c, 1, 42, 0
1, 31089, Note_on_c, 1, 30, 0
1, 31104, Note_on_c, 0, 65, 80
1, 31104, Note_on_c, 0, 53, 80
1, 31104, Note_on_c, 1, 29, 80
1, 31116, Note_on_c, 1, 29, 0
1, 31116, Note_on_c, 1, 41, 80
1, 31124, Note_on_c, 0, 65, 0
1, 31124, Note_on_c, 0, 53, 0
1, 31128, Note_on_c, 1, 41, 0
1, 31128, Note_on_c, 1, 29, 80
1, 31140, Note_on_c, 1, 29, 0
1, 31140, Note_on_c, 1, 41, 80
1, 31152, Note_on_c, 0, 77, 80
1, 31152, Note_on_c, 0, 74, 80
1, 31152, Note_on_c, 0, 70, 80
1, 31152, Note_on_c, 0, 65, 80
1, 31152, Note_on_c, 1, 41, 0
1, 31152, Note_on_c, 1, 29, 80
1, 31164, Note_on_c, 1, 29, 0
1, 31164, Note_on_c, 1, 41, 80
1, 31176, Note_on_c, 1, 41, 0
1, 31176, Note_on_c, 1, 29, 80
1, 31188, Note_on_c, 1, 29, 0
1, 31188, Note_on_c, 1, 41, 80
1, 31197, Note_on_c, 0, 77, 0
1, 31197, Note_on_c, 0, 74, 0
1, 31197, Note_on_c, 0, 70, 0
1, 31197, Note_on_c, 0, 65, 0
1, 31200, Note_on_c, 0, 82, 80
1, 31200, Note_on_c, 0, 77, 80
1, 31200, Note_on_c, 0, 74, 80
1, 31200, Note_on_c, 1, 41, 0
1, 31200, Note_on_c, 1, 29, 80
1, 31212, Note_on_c, 1, 29, 0
1, 31212, Note_on_c, 1, 41, 80
1, 31224, Note_on_c, 1, 41, 0
1, 31224, Note_on_c, 1, 29, 80
1, 31236, Note_on_c, 1, 29, 0
1, 31236, Note_on_c, 1, 41, 80
1, 31245, Note_on_c, 0, 82, 0
1, 31245, Note_on_c, 0, 77, 0
1, 31245, Note_on_c, 0, 74, 0
1, 31248, Note_on_c, 0, 86, 80
1, 31248, Note_on_c, 0, 82, 80
1, 31248, Note_on_c, 0, 77, 80
1, 31248, Note_on_c, 1, 41, 0
1, 31248, Note_on_c, 1, 29, 80
1, 31260, Note_on_c, 1, 29, 0
1, 31260, Note_on_c, 1, 41, 80
1, 31272, Note_on_c, 1, 41, 0
1, 31272, Note_on_c, 1, 29, 80
1, 31284, Note_on_c, 1, 29, 0
1, 31284, Note_on_c, 1, 41, 80
1, 31293, Note_on_c, 0, 86, 0
1, 31293, Note_on_c, 0, 82, 0
1, 31293, Note_on_c, 0, 77, 0
1, 31296, Note_on_c, 0, 89, 80
1, 31296, Note_on_c, 0, 86, 80
1, 31296, Note_on_c, 0, 82, 80
1, 31296, Note_on_c, 0, 77, 80
1, 31296, Note_on_c, 1, 41, 0
1, 31296, Note_on_c, 1, 29, 80
1, 31341, Note_on_c, 0, 89, 0
1, 31341, Note_on_c, 0, 86, 0
1, 31341, Note_on_c, 0, 82, 0
1, 31341, Note_on_c, 0, 77, 0
1, 31341, Note_on_c, 1, 29, 0
1, 31392, Note_on_c, 0, 81, 80
1, 31392, Note_on_c, 0, 77, 80
1, 31392, Note_on_c, 0, 75, 80
1, 31392, Note_on_c, 0, 72, 80
1, 31392, Note_on_c, 1, 63, 80
1, 31392, Note_on_c, 1, 60, 80
1, 31392, Note_on_c, 1, 57, 80
1, 31392, Note_on_c, 1, 53, 80
1, 31437, Note_on_c, 0, 81, 0
1, 31437, Note_on_c, 0, 77, 0
1, 31437, Note_on_c, 0, 75, 0
1, 31437, Note_on_c, 0, 72, 0
1, 31437, Note_on_c, 1, 63, 0
1, 31437, Note_on_c, 1, 60, 0
1, 31437, Note_on_c, 1, 57, 0
1, 31437, Note_on_c, 1, 53, 0
1, 31488, Note_on_c, 0, 82, 80
1, 31488, Note_on_c, 1, 58, 80
1, 31488, Note_on_c, 1, 53, 80
1, 31488, Note_on_c, 1, 50, 80
1, 31488, Note_on_c, 1, 46, 80
1, 31500, Note_on_c, 0, 82, 0
1, 31500, Note_on_c, 0, 86, 80
1, 31512, Note_on_c, 0, 86, 0
1, 31512, Note_on_c, 0, 84, 80
1, 31524, Note_on_c, 0, 84, 0
1, 31524, Note_on_c, 0, 82, 80
1, 31533, Note_on_c, 1, 58, 0
1, 31533, Note_on_c, 1, 53, 0
1, 31533, Note_on_c, 1, 50, 0
1, 31533, Note_on_c, 1, 46, 0
1, 31536, Note_on_c, 0, 82, 0
1, 31536, Note_on_c, 0, 81, 80
1, 31548, Note_on_c, 0, 81, 0
1, 31548, Note_on_c, 0, 79, 80
1, 31560, Note_on_c, 0, 79, 0
1, 31560, Note_on_c, 0, 77, 80
1, 31572, Note_on_c, 0, 77, 0
1, 31572, Note_on_c, 0, 76, 80
1, 31584, Note_on_c, 0, 76, 0
1, 31584, Note_on_c, 0, 75, 80
1, 31584, Note_on_c, 1, 57, 75
1, 31584, Note_on_c, 1, 51, 75
1, 31584, Note_on_c, 1, 48, 75
1, 31584, Note_on_c, 1, 46, 75
1, 31596, Note_on_c, 0, 75, 0
1, 31596, Note_on_c, 0, 79, 78
1, 31608, Note_on_c, 0, 79, 0
1, 31608, Note_on_c, 0, 77, 77
1, 31620, Note_on_c, 0, 77, 0
1, 31620, Note_on_c, 0, 75, 76
1, 31629, Note_on_c, 1, 57, 0
1, 31629, Note_on_c, 1, 51, 0
1, 31629, Note_on_c, 1, 48, 0
1, 31629, Note_on_c, 1, 46, 0
1, 31632, Note_on_c, 0, 75, 0
1, 31632, Note_on_c, 0, 74, 75
1, 31644, Note_on_c, 0, 74, 0
1, 31644, Note_on_c, 0, 72, 73
1, 31656, Note_on_c, 0, 72, 0
1, 31656, Note_on_c, 0, 70, 72
1, 31668, Note_on_c, 0, 70, 0
1, 31668, Note_on_c, 0, 69, 71
1, 31680, Note_on_c, 0, 69, 0
1, 31680, Note_on_c, 0, 70, 70
1, 31680, Note_on_c, 1, 58, 70
1, 31680, Note_on_c, 1, 53, 70
1, 31680, Note_on_c, 1, 50, 70
1, 31680, Note_on_c, 1, 46, 70
1, 31692, Note_on_c, 0, 70, 0
1, 31692, Note_on_c, 0, 74, 70
1, 31704, Note_on_c, 0, 74, 0
1, 31704, Note_on_c, 0, 72, 70
1, 31716, Note_on_c, 0, 72, 0
1, 31716, Note_on_c, 0, 70, 70
1, 31725, Note_on_c, 1, 58, 0
1, 31725, Note_on_c, 1, 53, 0
1, 31725, Note_on_c, 1, 50, 0
1, 31725, Note_on_c, 1, 46, 0
1, 31728, Note_on_c, 0, 70, 0
1, 31728, Note_on_c, 0, 69, 70
1, 31740, Note_on_c, 0, 69, 0
1, 31740, Note_on_c, 0, 67, 70
1, 31752, Note_on_c, 0, 67, 0
1, 31752, Note_on_c, 0, 65, 70
1, 31764, Note_on_c, 0, 65, 0
1, 31764, Note_on_c, 0, 64, 70
1, 31776, Note_on_c, 0, 64, 0
1, 31776, Note_on_c, 0, 63, 70
1, 31776, Note_on_c, 1, 57, 70
1, 31776, Note_on_c, 1, 51, 70
1, 31776, Note_on_c, 1, 48, 70
1, 31776, Note_on_c, 1, 46, 70
1, 31788, Note_on_c, 0, 63, 0
1, 31788, Note_on_c, 0, 67, 70
1, 31800, Note_on_c, 0, 67, 0
1, 31800, Note_on_c, 0, 65, 70
1, 31812, Note_on_c, 0, 65, 0
1, 31812, Note_on_c, 0, 63, 70
1, 31821, Note_on_c, 1, 57, 0
1, 31821, Note_on_c, 1, 51, 0
1, 31821, Note_on_c, 1, 48, 0
1, 31821, Note_on_c, 1, 46, 0
1, 31824, Note_on_c, 0, 63, 0
1, 31824, Note_on_c, 0, 62, 70
1, 31836, Note_on_c, 0, 62, 0
1, 31836, Note_on_c, 0, 60, 70
1, 31848, Note_on_c, 0, 60, 0
1, 31848, Note_on_c, 0, 58, 70
1, 31860, Note_on_c, 0, 58, 0
1, 31860, Note_on_c, 0, 57, 70
1, 31872, Note_on_c, 0, 57, 0
1, 31872, Note_on_c, 0, 58, 70
1, 31872, Note_on_c, 1, 46, 70
1, 31872, Note_on_c, 1, 34, 70
1, 31884, Note_on_c, 0, 58, 0
1, 31884, Note_on_c, 0, 57, 70
1, 31896, Note_on_c, 0, 57, 0
1, 31896, Note_on_c, 0, 58, 70
1, 31908, Note_on_c, 0, 58, 0
1, 31908, Note_on_c, 0, 53, 70
1, 31917, Note_on_c, 1, 46, 0
1, 31917, Note_on_c, 1, 34, 0
1, 31920, Note_on_c, 0, 53, 0
1, 31920, Note_on_c, 0, 62, 70
1, 31920, Note_on_c, 1, 50, 70
1, 31920, Note_on_c, 1, 38, 70
1, 31932, Note_on_c, 0, 62, 0
1, 31932, Note_on_c, 0, 61, 70
1, 31944, Note_on_c, 0, 61, 0
1, 31944, Note_on_c, 0, 62, 70
1, 31956, Note_on_c, 0, 62, 0
1, 31956, Note_on_c, 0, 58, 71
1, 31965, Note_on_c, 1, 50, 0
1, 31965, Note_on_c, 1, 38, 0
1, 31968, Note_on_c, 0, 58, 0
1, 31968, Note_on_c, 0, 65, 71
1, 31968, Note_on_c, 1, 53, 71
1, 31968, Note_on_c, 1, 41, 71
1, 31980, Note_on_c, 0, 65, 0
1, 31980, Note_on_c, 0, 64, 71
1, 31992, Note_on_c, 0, 64, 0
1, 31992, Note_on_c, 0, 65, 72
1, 32004, Note_on_c, 0, 65, 0
1, 32004, Note_on_c, 0, 62, 72
1, 32013, Note_on_c, 1, 53, 0
1, 32013, Note_on_c, 1, 41, 0
1, 32016, Note_on_c, 0, 62, 0
1, 32016, Note_on_c, 0, 70, 72
1, 32016, Note_on_c, 1, 58, 72
1, 32016, Note_on_c, 1, 46, 72
1, 32028, Note_on_c, 0, 70, 0
1, 32028, Note_on_c, 0, 69, 73
1, 32040, Note_on_c, 0, 69, 0
1, 32040, Note_on_c, 0, 70, 73
1, 32052, Note_on_c, 0, 70, 0
1, 32052, Note_on_c, 0, 65, 73
1, 32061, Note_on_c, 1, 58, 0
1, 32061, Note_on_c, 1, 46, 0
1, 32064, Note_on_c, 0, 65, 0
1, 32064, Note_on_c, 0, 74, 74
1, 32064, Note_on_c, 1, 62, 73
1, 32064, Note_on_c, 1, 50, 73
1, 32076, Note_on_c, 0, 74, 0
1, 32076, Note_on_c, 0, 73, 74
1, 32088, Note_on_c, 0, 73, 0
1, 32088, Note_on_c, 0, 74, 74
1, 32100, Note_on_c, 0, 74, 0
1, 32100, Note_on_c, 0, 70, 75
1, 32109, Note_on_c, 1, 62, 0
1, 32109, Note_on_c, 1, 50, 0
1, 32112, Note_on_c, 0, 70, 0
1, 32112, Note_on_c, 0, 77, 75
1, 32112, Note_on_c, 1, 65, 75
1, 32112, Note_on_c, 1, 53, 75
1, 32124, Note_on_c, 0, 77, 0
1, 32124, Note_on_c, 0, 76, 75
1, 32136, Note_on_c, 0, 76, 0
1, 32136, Note_on_c, 0, 77, 76
1, 32148, Note_on_c, 0, 77, 0
1, 32148, Note_on_c, 0, 74, 76
1, 32157, Note_on_c, 1, 65, 0
1, 32157, Note_on_c, 1, 53, 0
1, 32160, Note_on_c, 0, 74, 0
1, 32160, Note_on_c, 0, 82, 76
1, 32160, Note_on_c, 1, 70, 76
1, 32160, Note_on_c, 1, 58, 76
1, 32172, Note_on_c, 0, 82, 0
1, 32172, Note_on_c, 0, 81, 77
1, 32184, Note_on_c, 0, 81, 0
1, 32184, Note_on_c, 0, 82, 77
1, 32196, Note_on_c, 0, 82, 0
1, 32196, Note_on_c, 0, 77, 77
1, 32205, Note_on_c, 1, 70, 0
1, 32205, Note_on_c, 1, 58, 0
1, 32208, Note_on_c, 0, 77, 0
1, 32208, Note_on_c, 0, 84, 78
1, 32208, Note_on_c, 1, 75, 77
1, 32208, Note_on_c, 1, 65, 77
1, 32220, Note_on_c, 0, 84, 0
1, 32220, Note_on_c, 0, 83, 78
1, 32232, Note_on_c, 0, 83, 0
1, 32232, Note_on_c, 0, 84, 78
1, 32244, Note_on_c, 0, 84, 0
1, 32244, Note_on_c, 0, 77, 79
1, 32253, Note_on_c, 1, 75, 0
1, 32253, Note_on_c, 1, 65, 0
1, 32256, Note_on_c, 0, 77, 0
1, 32256, Note_on_c, 0, 82, 79
1, 32256, Note_on_c, 1, 74, 78
1, 32256, Note_on_c, 1, 70, 78
1, 32268, Note_on_c, 0, 82, 0
1, 32268, Note_on_c, 0, 81, 80
1, 32280, Note_on_c, 0, 81, 0
1, 32280, Note_on_c, 0, 82, 80
1, 32292, Note_on_c, 0, 82, 0
1, 32292, Note_on_c, 0, 77, 80
1, 32301, Note_on_c, 1, 74, 0
1, 32301, Note_on_c, 1, 70, 0
1, 32304, Note_on_c, 0, 77, 0
1, 32304, Note_on_c, 0, 84, 80
1, 32304, Note_on_c, 1, 75, 80
1, 32304, Note_on_c, 1, 65, 80
1, 32316, Note_on_c, 0, 84, 0
1, 32316, Note_on_c, 0, 83, 80
1, 32328, Note_on_c, 0, 83, 0
1, 32328, Note_on_c, 0, 84, 80
1, 32340, Note_on_c, 0, 84, 0
1, 32340, Note_on_c, 0, 77, 80
1, 32349, Note_on_c, 1, 75, 0
1, 32349, Note_on_c, 1, 65, 0
1, 32352, Note_on_c, 0, 77, 0
1, 32352, Note_on_c, 0, 82, 80
1, 32352, Note_on_c, 1, 74, 80
1, 32352, Note_on_c, 1, 70, 80
1, 32364, Note_on_c, 0, 82, 0
1, 32364, Note_on_c, 0, 81, 80
1, 32376, Note_on_c, 0, 81, 0
1, 32376, Note_on_c, 0, 82, 80
1, 32388, Note_on_c, 0, 82, 0
1, 32388, Note_on_c, 0, 77, 80
1, 32397, Note_on_c, 1, 74, 0
1, 32397, Note_on_c, 1, 70, 0
1, 32400, Note_on_c, 0, 77, 0
1, 32400, Note_on_c, 0, 84, 80
1, 32400, Note_on_c, 1, 75, 80
1, 32400, Note_on_c, 1, 65, 80
1, 32412, Note_on_c, 0, 84, 0
1, 32412, Note_on_c, 0, 83, 80
1, 32424, Note_on_c, 0, 83, 0
1, 32424, Note_on_c, 0, 84, 80
1, 32436, Note_on_c, 0, 84, 0
1, 32436, Note_on_c, 0, 77, 80
1, 32445, Note_on_c, 1, 75, 0
1, 32445, Note_on_c, 1, 65, 0
1, 32448, Note_on_c, 0, 77, 0
1, 32448, Note_on_c, 0, 82, 80
1, 32448, Note_on_c, 1, 70, 80
1, 32460, Note_on_c, 1, 70, 0
1, 32460, Note_on_c, 1, 74, 79
1, 32472, Note_on_c, 1, 74, 0
1, 32472, Note_on_c, 1, 70, 78
1, 32484, Note_on_c, 1, 70, 0
1, 32484, Note_on_c, 1, 74, 77
1, 32493, Note_on_c, 0, 82, 0
1, 32496, Note_on_c, 0, 86, 76
1, 32496, Note_on_c, 0, 82, 76
1, 32496, Note_on_c, 1, 74, 0
1, 32496, Note_on_c, 1, 70, 76
1, 32508, Note_on_c, 1, 70, 0
1, 32508, Note_on_c, 1, 74, 76
1, 32520, Note_on_c, 1, 74, 0
1, 32520, Note_on_c, 1, 70, 75
1, 32532, Note_on_c, 1, 70, 0
1, 32532, Note_on_c, 1, 74, 74
1, 32541, Note_on_c, 0, 86, 0
1, 32541, Note_on_c, 0, 82, 0
1, 32544, Note_on_c, 0, 89, 73
1, 32544, Note_on_c, 0, 86, 73
1, 32544, Note_on_c, 1, 74, 0
1, 32544, Note_on_c, 1, 70, 73
1, 32556, Note_on_c, 1, 70, 0
1, 32556, Note_on_c, 1, 74, 72
1, 32568, Note_on_c, 1, 74, 0
1, 32568, Note_on_c, 1, 70, 72
1, 32580, Note_on_c, 1, 70, 0
1, 32580, Note_on_c, 1, 74, 71
1, 32589, Note_on_c, 0, 89, 0
1, 32589, Note_on_c, 0, 86, 0
1, 32592, Note_on_c, 0, 86, 70
1, 32592, Note_on_c, 0, 82, 70
1, 32592, Note_on_c, 1, 74, 0
1, 32592, Note_on_c, 1, 70, 70
1, 32604, Note_on_c, 1, 70, 0
1, 32604, Note_on_c, 1, 74, 69
1, 32616, Note_on_c, 1, 74, 0
1, 32616, Note_on_c, 1, 70, 68
1, 32628, Note_on_c, 1, 70, 0
1, 32628, Note_on_c, 1, 74, 68
1, 32637, Note_on_c, 0, 86, 0
1, 32637, Note_on_c, 0, 82, 0
1, 32640, Note_on_c, 0, 89, 67
1, 32640, Note_on_c, 0, 86, 67
1, 32640, Note_on_c, 1, 74, 0
1, 32640, Note_on_c, 1, 70, 67
1, 32685, Note_on_c, 0, 89, 0
1, 32685, Note_on_c, 0, 86, 0
1, 32685, Note_on_c, 1, 70, 0
1, 32736, Note_on_c, 0, 86, 64
1, 32736, Note_on_c, 0, 82, 64
1, 32736, Note_on_c, 1, 74, 64
1, 32736, Note_on_c, 1, 70, 64
1, 32781, Note_on_c, 0, 86, 0
1, 32781, Note_on_c, 0, 82, 0
1, 32781, Note_on_c, 1, 74, 0
1, 32781, Note_on_c, 1, 70, 0
1, 32832, Note_on_c, 0, 82, 64
1, 32832, Note_on_c, 0, 77, 64
1, 32832, Note_on_c, 1, 74, 64
1, 32832, Note_on_c, 1, 70, 64
1, 32877, Note_on_c, 0, 82, 0
1, 32877, Note_on_c, 0, 77, 0
1, 32877, Note_on_c, 1, 74, 0
1, 32877, Note_on_c, 1, 70, 0
1, 33024, Note_on_c, 0, 65, 64
1, 33024, Note_on_c, 0, 62, 64
1, 33024, Note_on_c, 1, 46, 64
1, 33024, Note_on_c, 1, 34, 64
1, 33216, Note_on_c, 0, 65, 0
1, 33216, Note_on_c, 0, 62, 0
1, 33216, Note_on_c, 0, 66, 66
1, 33216, Note_on_c, 0, 60, 66
1, 33216, Note_on_c, 1, 46, 0
1, 33216, Note_on_c, 1, 34, 0
1, 33216, Note_on_c, 1, 44, 66
1, 33216, Note_on_c, 1, 32, 66
1, 33393, Note_on_c, 0, 66, 0
1, 33393, Note_on_c, 0, 60, 0
1, 33393, Note_on_c, 1, 44, 0
1, 33393, Note_on_c, 1, 32, 0
1, 33408, Note_on_c, 0, 67, 69
1, 33408, Note_on_c, 0, 59, 69
1, 33408, Note_on_c, 1, 43, 69
1, 33408, Note_on_c, 1, 31, 69
1, 33762, Note_on_c, 0, 67, 0
1, 33762, Note_on_c, 0, 59, 0
1, 33762, Note_on_c, 1, 43, 0
1, 33762, Note_on_c, 1, 31, 0
1, 33876, Note_on_c, 0, 79, 70
1, 33888, Note_on_c, 0, 79, 0
1, 33888, Note_on_c, 0, 76, 70
1, 33888, Note_on_c, 1, 64, 70
1, 33888, Note_on_c, 1, 60, 70
1, 33898, Note_on_c, 0, 76, 0
1, 33908, Note_on_c, 1, 64, 0
1, 33908, Note_on_c, 1, 60, 0
1, 33924, Note_on_c, 0, 79, 70
1, 33936, Note_on_c, 0, 79, 0
1, 33936, Note_on_c, 0, 74, 70
1, 33936, Note_on_c, 1, 62, 70
1, 33936, Note_on_c, 1, 55, 70
1, 33946, Note_on_c, 0, 74, 0
1, 33956, Note_on_c, 1, 62, 0
1, 33956, Note_on_c, 1, 55, 0
1, 33972, Note_on_c, 0, 79, 70
1, 33984, Note_on_c, 0, 79, 0
1, 33984, Note_on_c, 0, 72, 70
1, 33984, Note_on_c, 1, 60, 70
1, 33984, Note_on_c, 1, 52, 70
1, 33994, Note_on_c, 0, 72, 0
1, 34020, Note_on_c, 0, 79, 68
1, 34029, Note_on_c, 1, 60, 0
1, 34029, Note_on_c, 1, 52, 0
1, 34032, Note_on_c, 0, 79, 0
1, 34032, Note_on_c, 0, 67, 67
1, 34042, Note_on_c, 0, 67, 0
1, 34068, Note_on_c, 0, 79, 65
1, 34080, Note_on_c, 0, 79, 0
1, 34080, Note_on_c, 0, 76, 65
1, 34080, Note_on_c, 1, 64, 64
1, 34080, Note_on_c, 1, 60, 64
1, 34090, Note_on_c, 0, 76, 0
1, 34100, Note_on_c, 1, 64, 0
1, 34100, Note_on_c, 1, 60, 0
1, 34116, Note_on_c, 0, 79, 64
1, 34128, Note_on_c, 0, 79, 0
1, 34128, Note_on_c, 0, 74, 64
1, 34128, Note_on_c, 1, 62, 64
1, 34128, Note_on_c, 1, 55, 64
1, 34138, Note_on_c, 0, 74, 0
1, 34148, Note_on_c, 1, 62, 0
1, 34148, Note_on_c, 1, 55, 0
1, 34164, Note_on_c, 0, 79, 64
1, 34176, Note_on_c, 0, 79, 0
1, 34176, Note_on_c, 0, 72, 64
1, 34176, Note_on_c, 1, 60, 64
1, 34176, Note_on_c, 1, 52, 64
1, 34186, Note_on_c, 0, 72, 0
1, 34212, Note_on_c, 0, 79, 70
1, 34221, Note_on_c, 1, 60, 0
1, 34221, Note_on_c, 1, 52, 0
1, 34224, Note_on_c, 0, 79, 0
1, 34224, Note_on_c, 0, 67, 71
1, 34234, Note_on_c, 0, 67, 0
1, 34260, Note_on_c, 0, 84, 75
1, 34260, Note_on_c, 1, 60, 75
1, 34272, Note_on_c, 0, 84, 0
1, 34272, Note_on_c, 0, 79, 75
1, 34272, Note_on_c, 1, 60, 0
1, 34272, Note_on_c, 1, 64, 75
1, 34282, Note_on_c, 0, 79, 0
1, 34282, Note_on_c, 1, 64, 0
1, 34308, Note_on_c, 0, 84, 75
1, 34308, Note_on_c, 1, 60, 75
1, 34320, Note_on_c, 0, 84, 0
1, 34320, Note_on_c, 0, 81, 75
1, 34320, Note_on_c, 1, 60, 0
1, 34320, Note_on_c, 1, 65, 75
1, 34330, Note_on_c, 0, 81, 0
1, 34330, Note_on_c, 1, 65, 0
1, 34356, Note_on_c, 0, 84, 75
1, 34356, Note_on_c, 1, 60, 75
1, 34368, Note_on_c, 0, 84, 0
1, 34368, Note_on_c, 0, 82, 75
1, 34368, Note_on_c, 1, 60, 0
1, 34368, Note_on_c, 1, 67, 75
1, 34378, Note_on_c, 0, 82, 0
1, 34378, Note_on_c, 1, 67, 0
1, 34404, Note_on_c, 0, 84, 75
1, 34404, Note_on_c, 1, 60, 75
1, 34416, Note_on_c, 0, 84, 0
1, 34416, Note_on_c, 0, 81, 75
1, 34416, Note_on_c, 1, 60, 0
1, 34416, Note_on_c, 1, 69, 75
1, 34426, Note_on_c, 0, 81, 0
1, 34426, Note_on_c, 1, 69, 0
1, 34452, Note_on_c, 0, 84, 75
1, 34452, Note_on_c, 1, 60, 75
1, 34464, Note_on_c, 0, 84, 0
1, 34464, Note_on_c, 0, 79, 75
1, 34464, Note_on_c, 1, 60, 0
1, 34464, Note_on_c, 1, 70, 75
1, 34474, Note_on_c, 0, 79, 0
1, 34474, Note_on_c, 1, 70, 0
1, 34500, Note_on_c, 0, 84, 76
1, 34500, Note_on_c, 1, 60, 75
1, 34512, Note_on_c, 0, 84, 0
1, 34512, Note_on_c, 0, 76, 77
1, 34512, Note_on_c, 1, 60, 0
1, 34512, Note_on_c, 1, 70, 75
1, 34522, Note_on_c, 0, 76, 0
1, 34522, Note_on_c, 1, 70, 0
1, 34548, Note_on_c, 0, 84, 78
1, 34548, Note_on_c, 1, 60, 75
1, 34560, Note_on_c, 0, 84, 0
1, 34560, Note_on_c, 0, 77, 79
1, 34560, Note_on_c, 1, 60, 0
1, 34560, Note_on_c, 1, 69, 80
1, 34560, Note_on_c, 1, 65, 80
1, 34572, Note_on_c, 0, 77, 0
1, 34572, Note_on_c, 0, 84, 80
1, 34584, Note_on_c, 0, 84, 0
1, 34584, Note_on_c, 0, 86, 80
1, 34596, Note_on_c, 0, 86, 0
1, 34596, Note_on_c, 0, 84, 80
1, 34605, Note_on_c, 1, 69, 0
1, 34605, Note_on_c, 1, 65, 0
1, 34608, Note_on_c, 0, 84, 0
1, 34608, Note_on_c, 0, 82, 80
1, 34620, Note_on_c, 0, 82, 0
1, 34620, Note_on_c, 0, 81, 80
1, 34632, Note_on_c, 0, 81, 0
1, 34632, Note_on_c, 0, 79, 80
1, 34644, Note_on_c, 0, 79, 0
1, 34644, Note_on_c, 0, 77, 80
1, 34656, Note_on_c, 0, 77, 0
1, 34656, Note_on_c, 0, 76, 80
1, 34656, Note_on_c, 1, 70, 80
1, 34656, Note_on_c, 1, 60, 80
1, 34668, Note_on_c, 0, 76, 0
1, 34668, Note_on_c, 0, 79, 80
1, 34680, Note_on_c, 0, 79, 0
1, 34680, Note_on_c, 0, 82, 80
1, 34692, Note_on_c, 0, 82, 0
1, 34692, Note_on_c, 0, 86, 80
1, 34701, Note_on_c, 1, 70, 0
1, 34701, Note_on_c, 1, 60, 0
1, 34704, Note_on_c, 0, 86, 0
1, 34704, Note_on_c, 0, 84, 80
1, 34716, Note_on_c, 0, 84, 0
1, 34716, Note_on_c, 0, 82, 80
1, 34728, Note_on_c, 0, 82, 0
1, 34728, Note_on_c, 0, 81, 80
1, 34740, Note_on_c, 0, 81, 0
1, 34740, Note_on_c, 0, 79, 80
1, 34752, Note_on_c, 0, 79, 0
1, 34752, Note_on_c, 0, 77, 80
1, 34752, Note_on_c, 1, 69, 80
1, 34752, Note_on_c, 1, 62, 80
1, 34764, Note_on_c, 0, 77, 0
1, 34764, Note_on_c, 0, 76, 80
1, 34776, Note_on_c, 0, 76, 0
1, 34776, Note_on_c, 0, 77, 80
1, 34788, Note_on_c, 0, 77, 0
1, 34788, Note_on_c, 0, 79, 80
1, 34797, Note_on_c, 1, 69, 0
1, 34797, Note_on_c, 1, 62, 0
1, 34800, Note_on_c, 0, 79, 0
1, 34800, Note_on_c, 0, 81, 80
1, 34812, Note_on_c, 0, 81, 0
1, 34812, Note_on_c, 0, 77, 80
1, 34824, Note_on_c, 0, 77, 0
1, 34824, Note_on_c, 0, 76, 80
1, 34836, Note_on_c, 0, 76, 0
1, 34836, Note_on_c, 0, 74, 80
1, 34848, Note_on_c, 0, 74, 0
1, 34848, Note_on_c, 0, 73, 80
1, 34848, Note_on_c, 1, 67, 80
1, 34848, Note_on_c, 1, 57, 80
1, 34860, Note_on_c, 0, 73, 0
1, 34860, Note_on_c, 0, 76, 80
1, 34872, Note_on_c, 0, 76, 0
1, 34872, Note_on_c, 0, 79, 80
1, 34884, Note_on_c, 0, 79, 0
1, 34884, Note_on_c, 0, 82, 80
1, 34893, Note_on_c, 1, 67, 0
1, 34893, Note_on_c, 1, 57, 0
1, 34896, Note_on_c, 0, 82, 0
1, 34896, Note_on_c, 0, 81, 80
1, 34908, Note_on_c, 0, 81, 0
1, 34908, Note_on_c, 0, 79, 80
1, 34920, Note_on_c, 0, 79, 0
1, 34920, Note_on_c, 0, 77, 80
1, 34932, Note_on_c, 0, 77, 0
1, 34932, Note_on_c, 0, 76, 80
1, 34944, Note_on_c, 0, 76, 0
1, 34944, Note_on_c, 0, 74, 80
1, 34944, Note_on_c, 1, 65, 80
1, 34944, Note_on_c, 1, 58, 80
1, 34956, Note_on_c, 0, 74, 0
1, 34956, Note_on_c, 0, 76, 80
1, 34968, Note_on_c, 0, 76, 0
1, 34968, Note_on_c, 0, 77, 80
1, 34980, Note_on_c, 0, 77, 0
1, 34980, Note_on_c, 0, 79, 80
1, 34989, Note_on_c, 1, 65, 0
1, 34989, Note_on_c, 1, 58, 0
1, 34992, Note_on_c, 0, 79, 0
1, 34992, Note_on_c, 0, 77, 80
1, 35004, Note_on_c, 0, 77, 0
1, 35004, Note_on_c, 0, 74, 80
1, 35016, Note_on_c, 0, 74, 0
1, 35016, Note_on_c, 0, 72, 80
1, 35028, Note_on_c, 0, 72, 0
1, 35028, Note_on_c, 0, 70, 80
1, 35040, Note_on_c, 0, 70, 0
1, 35040, Note_on_c, 0, 69, 80
1, 35040, Note_on_c, 1, 63, 80
1, 35040, Note_on_c, 1, 53, 80
1, 35052, Note_on_c, 0, 69, 0
1, 35052, Note_on_c, 0, 72, 80
1, 35064, Note_on_c, 0, 72, 0
1, 35064, Note_on_c, 0, 75, 80
1, 35076, Note_on_c, 0, 75, 0
1, 35076, Note_on_c, 0, 79, 80
1, 35085, Note_on_c, 1, 63, 0
1, 35085, Note_on_c, 1, 53, 0
1, 35088, Note_on_c, 0, 79, 0
1, 35088, Note_on_c, 0, 77, 80
1, 35100, Note_on_c, 0, 77, 0
1, 35100, Note_on_c, 0, 75, 80
1, 35112, Note_on_c, 0, 75, 0
1, 35112, Note_on_c, 0, 74, 80
1, 35124, Note_on_c, 0, 74, 0
1, 35124, Note_on_c, 0, 72, 80
1, 35136, Note_on_c, 0, 72, 0
1, 35136, Note_on_c, 0, 70, 80
1, 35136, Note_on_c, 1, 62, 80
1, 35136, Note_on_c, 1, 55, 80
1, 35148, Note_on_c, 0, 70, 0
1, 35148, Note_on_c, 0, 69, 80
1, 35160, Note_on_c, 0, 69, 0
1, 35160, Note_on_c, 0, 70, 80
1, 35172, Note_on_c, 0, 70, 0
1, 35172, Note_on_c, 0, 72, 80
1, 35181, Note_on_c, 1, 62, 0
1, 35181, Note_on_c, 1, 55, 0
1, 35184, Note_on_c, 0, 72, 0
1, 35184, Note_on_c, 0, 74, 80
1, 35196, Note_on_c, 0, 74, 0
1, 35196, Note_on_c, 0, 70, 80
1, 35208, Note_on_c, 0, 70, 0
1, 35208, Note_on_c, 0, 69, 80
1, 35220, Note_on_c, 0, 69, 0
1, 35220, Note_on_c, 0, 67, 80
1, 35232, Note_on_c, 0, 67, 0
1, 35232, Note_on_c, 0, 66, 80
1, 35232, Note_on_c, 1, 60, 80
1, 35232, Note_on_c, 1, 50, 80
1, 35244, Note_on_c, 0, 66, 0
1, 35244, Note_on_c, 0, 69, 80
1, 35256, Note_on_c, 0, 69, 0
1, 35256, Note_on_c, 0, 72, 80
1, 35268, Note_on_c, 0, 72, 0
1, 35268, Note_on_c, 0, 75, 80
1, 35277, Note_on_c, 1, 60, 0
1, 35277, Note_on_c, 1, 50, 0
1, 35280, Note_on_c, 0, 75, 0
1, 35280, Note_on_c, 0, 74, 80
1, 35292, Note_on_c, 0, 74, 0
1, 35292, Note_on_c, 0, 72, 80
1, 35304, Note_on_c, 0, 72, 0
1, 35304, Note_on_c, 0, 70, 80
1, 35316, Note_on_c, 0, 70, 0
1, 35316, Note_on_c, 0, 69, 80
1, 35328, Note_on_c, 0, 69, 0
1, 35328, Note_on_c, 0, 67, 80
1, 35328, Note_on_c, 1, 51, 80
1, 35340, Note_on_c, 1, 51, 0
1, 35340, Note_on_c, 1, 55, 80
1, 35352, Note_on_c, 1, 55, 0
1, 35352, Note_on_c, 1, 51, 80
1, 35364, Note_on_c, 1, 51, 0
1, 35364, Note_on_c, 1, 55, 80
1, 35373, Note_on_c, 0, 67, 0
1, 35376, Note_on_c, 0, 82, 96
1, 35376, Note_on_c, 0, 70, 96
1, 35376, Note_on_c, 1, 55, 0
1, 35376, Note_on_c, 1, 51, 80
1, 35388, Note_on_c, 1, 51, 0
1, 35388, Note_on_c, 1, 55, 80
1, 35400, Note_on_c, 1, 55, 0
1, 35400, Note_on_c, 1, 51, 80
1, 35412, Note_on_c, 1, 51, 0
1, 35412, Note_on_c, 1, 55, 80
1, 35424, Note_on_c, 1, 55, 0
1, 35424, Note_on_c, 1, 51, 80
1, 35436, Note_on_c, 1, 51, 0
1, 35436, Note_on_c, 1, 55, 80
1, 35448, Note_on_c, 1, 55, 0
1, 35448, Note_on_c, 1, 51, 80
1, 35460, Note_on_c, 1, 51, 0
1, 35460, Note_on_c, 1, 55, 80
1, 35472, Note_on_c, 0, 82, 0
1, 35472, Note_on_c, 0, 70, 0
1, 35472, Note_on_c, 0, 81, 80
1, 35472, Note_on_c, 0, 69, 80
1, 35472, Note_on_c, 1, 55, 0
1, 35472, Note_on_c, 1, 51, 80
1, 35484, Note_on_c, 1, 51, 0
1, 35484, Note_on_c, 1, 55, 80
1, 35496, Note_on_c, 1, 55, 0
1, 35496, Note_on_c, 1, 51, 80
1, 35508, Note_on_c, 1, 51, 0
1, 35508, Note_on_c, 1, 55, 80
1, 35517, Note_on_c, 0, 81, 0
1, 35517, Note_on_c, 0, 69, 0
1, 35520, Note_on_c, 0, 79, 80
1, 35520, Note_on_c, 0, 67, 80
1, 35520, Note_on_c, 1, 55, 0
1, 35520, Note_on_c, 1, 51, 80
1, 35532, Note_on_c, 1, 51, 0
1, 35532, Note_on_c, 1, 55, 80
1, 35544, Note_on_c, 1, 55, 0
1, 35544, Note_on_c, 1, 51, 80
1, 35556, Note_on_c, 1, 51, 0
1, 35556, Note_on_c, 1, 55, 80
1, 35565, Note_on_c, 0, 79, 0
1, 35565, Note_on_c, 0, 67, 0
1, 35568, Note_on_c, 0, 75, 80
1, 35568, Note_on_c, 0, 63, 80
1, 35568, Note_on_c, 1, 55, 0
1, 35568, Note_on_c, 1, 51, 80
1, 35580, Note_on_c, 1, 51, 0
1, 35580, Note_on_c, 1, 55, 79
1, 35592, Note_on_c, 1, 55, 0
1, 35592, Note_on_c, 1, 51, 79
1, 35604, Note_on_c, 1, 51, 0
1, 35604, Note_on_c, 1, 55, 79
1, 35613, Note_on_c, 0, 75, 0
1, 35613, Note_on_c, 0, 63, 0
1, 35616, Note_on_c, 0, 74, 78
1, 35616, Note_on_c, 0, 62, 78
1, 35616, Note_on_c, 1, 55, 0
1, 35616, Note_on_c, 1, 51, 79
1, 35628, Note_on_c, 1, 51, 0
1, 35628, Note_on_c, 1, 55, 78
1, 35640, Note_on_c, 1, 55, 0
1, 35640, Note_on_c, 1, 51, 78
1, 35652, Note_on_c, 1, 51, 0
1, 35652, Note_on_c, 1, 55, 78
1, 35661, Note_on_c, 0, 74, 0
1, 35661, Note_on_c, 0, 62, 0
1, 35664, Note_on_c, 0, 73, 77
1, 35664, Note_on_c, 0, 61, 77
1, 35664, Note_on_c, 1, 55, 0
1, 35664, Note_on_c, 1, 51, 78
1, 35676, Note_on_c, 1, 51, 0
1, 35676, Note_on_c, 1, 55, 77
1, 35688, Note_on_c, 1, 55, 0
1, 35688, Note_on_c, 1, 51, 77
1, 35700, Note_on_c, 1, 51, 0
1, 35700, Note_on_c, 1, 55, 77
1, 35709, Note_on_c, 0, 73, 0
1, 35709, Note_on_c, 0, 61, 0
1, 35712, Note_on_c, 0, 74, 75
1, 35712, Note_on_c, 0, 62, 75
1, 35712, Note_on_c, 1, 55, 0
1, 35712, Note_on_c, 1, 54, 77
1, 35712, Note_on_c, 1, 50, 75
1, 35735, Note_on_c, 0, 74, 0
1, 35735, Note_on_c, 0, 62, 0
1, 35736, Note_on_c, 0, 86, 75
1, 35759, Note_on_c, 0, 86, 0
1, 35760, Note_on_c, 0, 85, 75
1, 35783, Note_on_c, 0, 85, 0
1, 35784, Note_on_c, 0, 88, 75
1, 35801, Note_on_c, 1, 54, 0
1, 35807, Note_on_c, 0, 88, 0
1, 35808, Note_on_c, 0, 86, 75
1, 35831, Note_on_c, 0, 86, 0
1, 35832, Note_on_c, 0, 82, 75
1, 35832, Note_on_c, 1, 55, 75
1, 35855, Note_on_c, 0, 82, 0
1, 35855, Note_on_c, 1, 55, 0
1, 35856, Note_on_c, 0, 81, 75
1, 35856, Note_on_c, 1, 54, 75
1, 35879, Note_on_c, 0, 81, 0
1, 35879, Note_on_c, 1, 54, 0
1, 35880, Note_on_c, 0, 84, 75
1, 35880, Note_on_c, 1, 57, 75
1, 35903, Note_on_c, 0, 84, 0
1, 35903, Note_on_c, 1, 57, 0
1, 35904, Note_on_c, 0, 82, 75
1, 35904, Note_on_c, 1, 55, 75
1, 35927, Note_on_c, 0, 82, 0
1, 35927, Note_on_c, 1, 55, 0
1, 35928, Note_on_c, 0, 79, 75
1, 35928, Note_on_c, 1, 58, 75
1, 35951, Note_on_c, 0, 79, 0
1, 35951, Note_on_c, 1, 58, 0
1, 35952, Note_on_c, 0, 78, 75
1, 35952, Note_on_c, 1, 57, 75
1, 35975, Note_on_c, 0, 78, 0
1, 35975, Note_on_c, 1, 57, 0
1, 35976, Note_on_c, 0, 81, 75
1, 35976, Note_on_c, 1, 60, 75
1, 35999, Note_on_c, 0, 81, 0
1, 35999, Note_on_c, 1, 60, 0
1, 36000, Note_on_c, 0, 79, 75
1, 36000, Note_on_c, 1, 58, 75
1, 36023, Note_on_c, 0, 79, 0
1, 36024, Note_on_c, 0, 75, 75
1, 36045, Note_on_c, 1, 58, 0
1, 36047, Note_on_c, 0, 75, 0
1, 36048, Note_on_c, 0, 74, 75
1, 36048, Note_on_c, 1, 55, 75
1, 36066, Note_on_c, 1, 50, 0
1, 36071, Note_on_c, 0, 74, 0
1, 36072, Note_on_c, 0, 73, 75
1, 36093, Note_on_c, 1, 55, 0
1, 36095, Note_on_c, 0, 73, 0
1, 36096, Note_on_c, 0, 74, 75
1, 36096, Note_on_c, 1, 54, 75
1, 36096, Note_on_c, 1, 50, 75
1, 36119, Note_on_c, 0, 74, 0
1, 36120, Note_on_c, 0, 86, 75
1, 36143, Note_on_c, 0, 86, 0
1, 36144, Note_on_c, 0, 85, 75
1, 36167, Note_on_c, 0, 85, 0
1, 36168, Note_on_c, 0, 88, 75
1, 36185, Note_on_c, 1, 54, 0
1, 36185, Note_on_c, 1, 50, 0
1, 36191, Note_on_c, 0, 88, 0
1, 36192, Note_on_c, 0, 86, 75
1, 36215, Note_on_c, 0, 86, 0
1, 36216, Note_on_c, 0, 82, 76
1, 36216, Note_on_c, 1, 67, 75
1, 36239, Note_on_c, 0, 82, 0
1, 36239, Note_on_c, 1, 67, 0
1, 36240, Note_on_c, 0, 81, 76
1, 36240, Note_on_c, 1, 66, 75
1, 36263, Note_on_c, 0, 81, 0
1, 36263, Note_on_c, 1, 66, 0
1, 36264, Note_on_c, 0, 84, 76
1, 36264, Note_on_c, 1, 69, 76
1, 36287, Note_on_c, 0, 84, 0
1, 36287, Note_on_c, 1, 69, 0
1, 36288, Note_on_c, 0, 82, 77
1, 36288, Note_on_c, 1, 67, 76
1, 36311, Note_on_c, 0, 82, 0
1, 36311, Note_on_c, 1, 67, 0
1, 36312, Note_on_c, 0, 79, 77
1, 36312, Note_on_c, 1, 70, 76
1, 36335, Note_on_c, 0, 79, 0
1, 36335, Note_on_c, 1, 70, 0
1, 36336, Note_on_c, 0, 78, 77
1, 36336, Note_on_c, 1, 69, 77
1, 36359, Note_on_c, 0, 78, 0
1, 36359, Note_on_c, 1, 69, 0
1, 36360, Note_on_c, 0, 81, 78
1, 36360, Note_on_c, 1, 72, 77
1, 36383, Note_on_c, 0, 81, 0
1, 36383, Note_on_c, 1, 72, 0
1, 36384, Note_on_c, 0, 79, 78
1, 36384, Note_on_c, 1, 70, 78
1, 36407, Note_on_c, 0, 79, 0
1, 36407, Note_on_c, 1, 70, 0
1, 36408, Note_on_c, 0, 87, 78
1, 36408, Note_on_c, 1, 67, 78
1, 36431, Note_on_c, 0, 87, 0
1, 36431, Note_on_c, 1, 67, 0
1, 36432, Note_on_c, 0, 86, 79
1, 36432, Note_on_c, 1, 66, 78
1, 36455, Note_on_c, 0, 86, 0
1, 36455, Note_on_c, 1, 66, 0
1, 36456, Note_on_c, 0, 84, 79
1, 36456, Note_on_c, 1, 69, 79
1, 36479, Note_on_c, 0, 84, 0
1, 36479, Note_on_c, 1, 69, 0
1, 36480, Note_on_c, 0, 82, 79
1, 36480, Note_on_c, 1, 67, 79
1, 36503, Note_on_c, 0, 82, 0
1, 36503, Note_on_c, 1, 67, 0
1, 36504, Note_on_c, 0, 79, 80
1, 36504, Note_on_c, 1, 75, 80
1, 36527, Note_on_c, 0, 79, 0
1, 36527, Note_on_c, 1, 75, 0
1, 36528, Note_on_c, 0, 78, 80
1, 36528, Note_on_c, 1, 74, 80
1, 36551, Note_on_c, 0, 78, 0
1, 36551, Note_on_c, 1, 74, 0
1, 36552, Note_on_c, 0, 81, 80
1, 36552, Note_on_c, 1, 72, 80
1, 36575, Note_on_c, 0, 81, 0
1, 36575, Note_on_c, 1, 72, 0
1, 36576, Note_on_c, 0, 79, 80
1, 36576, Note_on_c, 1, 70, 80
1, 36599, Note_on_c, 0, 79, 0
1, 36599, Note_on_c, 1, 70, 0
1, 36600, Note_on_c, 0, 87, 80
1, 36600, Note_on_c, 1, 67, 80
1, 36623, Note_on_c, 0, 87, 0
1, 36623, Note_on_c, 1, 67, 0
1, 36624, Note_on_c, 0, 86, 80
1, 36624, Note_on_c, 1, 66, 80
1, 36647, Note_on_c, 0, 86, 0
1, 36647, Note_on_c, 1, 66, 0
1, 36648, Note_on_c, 0, 84, 80
1, 36648, Note_on_c, 1, 69, 80
1, 36671, Note_on_c, 0, 84, 0
1, 36671, Note_on_c, 1, 69, 0
1, 36672, Note_on_c, 0, 82, 80
1, 36672, Note_on_c, 1, 67, 80
1, 36695, Note_on_c, 0, 82, 0
1, 36695, Note_on_c, 1, 67, 0
1, 36696, Note_on_c, 0, 79, 80
1, 36696, Note_on_c, 1, 75, 80
1, 36719, Note_on_c, 0, 79, 0
1, 36719, Note_on_c, 1, 75, 0
1, 36720, Note_on_c, 0, 78, 80
1, 36720, Note_on_c, 1, 74, 80
1, 36743, Note_on_c, 0, 78, 0
1, 36743, Note_on_c, 1, 74, 0
1, 36744, Note_on_c, 0, 81, 80
1, 36744, Note_on_c, 1, 72, 80
1, 36767, Note_on_c, 0, 81, 0
1, 36767, Note_on_c, 1, 72, 0
1, 36768, Note_on_c, 0, 79, 80
1, 36768, Note_on_c, 1, 70, 80
1, 36791, Note_on_c, 0, 79, 0
1, 36791, Note_on_c, 1, 70, 0
1, 36792, Note_on_c, 0, 82, 80
1, 36792, Note_on_c, 1, 67, 80
1, 36815, Note_on_c, 0, 82, 0
1, 36815, Note_on_c, 1, 67, 0
1, 36816, Note_on_c, 0, 76, 80
1, 36816, Note_on_c, 1, 72, 80
1, 36839, Note_on_c, 0, 76, 0
1, 36839, Note_on_c, 1, 72, 0
1, 36840, Note_on_c, 0, 79, 80
1, 36840, Note_on_c, 1, 70, 80
1, 36863, Note_on_c, 0, 79, 0
1, 36863, Note_on_c, 1, 70, 0
1, 36864, Note_on_c, 0, 77, 80
1, 36864, Note_on_c, 1, 68, 80
1, 36887, Note_on_c, 0, 77, 0
1, 36887, Note_on_c, 1, 68, 0
1, 36888, Note_on_c, 0, 80, 79
1, 36888, Note_on_c, 1, 65, 79
1, 36911, Note_on_c, 0, 80, 0
1, 36911, Note_on_c, 1, 65, 0
1, 36912, Note_on_c, 0, 74, 79
1, 36912, Note_on_c, 1, 70, 79
1, 36935, Note_on_c, 0, 74, 0
1, 36935, Note_on_c, 1, 70, 0
1, 36936, Note_on_c, 0, 77, 79
1, 36936, Note_on_c, 1, 68, 79
1, 36959, Note_on_c, 0, 77, 0
1, 36959, Note_on_c, 1, 68, 0
1, 36960, Note_on_c, 0, 75, 78
1, 36960, Note_on_c, 1, 67, 78
1, 36983, Note_on_c, 0, 75, 0
1, 36983, Note_on_c, 1, 67, 0
1, 36984, Note_on_c, 0, 79, 78
1, 36984, Note_on_c, 1, 63, 78
1, 37007, Note_on_c, 0, 79, 0
1, 37007, Note_on_c, 1, 63, 0
1, 37008, Note_on_c, 0, 72, 78
1, 37008, Note_on_c, 1, 68, 78
1, 37031, Note_on_c, 0, 72, 0
1, 37031, Note_on_c, 1, 68, 0
1, 37032, Note_on_c, 0, 75, 77
1, 37032, Note_on_c, 1, 67, 77
1, 37055, Note_on_c, 0, 75, 0
1, 37055, Note_on_c, 1, 67, 0
1, 37056, Note_on_c, 0, 74, 77
1, 37056, Note_on_c, 1, 65, 77
1, 37079, Note_on_c, 0, 74, 0
1, 37079, Note_on_c, 1, 65, 0
1, 37080, Note_on_c, 0, 77, 77
1, 37080, Note_on_c, 1, 62, 77
1, 37103, Note_on_c, 0, 77, 0
1, 37103, Note_on_c, 1, 62, 0
1, 37104, Note_on_c, 0, 71, 77
1, 37104, Note_on_c, 1, 67, 77
1, 37127, Note_on_c, 0, 71, 0
1, 37127, Note_on_c, 1, 67, 0
1, 37128, Note_on_c, 0, 74, 76
1, 37128, Note_on_c, 1, 65, 76
1, 37151, Note_on_c, 0, 74, 0
1, 37151, Note_on_c, 1, 65, 0
1, 37152, Note_on_c, 0, 72, 76
1, 37152, Note_on_c, 1, 63, 76
1, 37175, Note_on_c, 0, 72, 0
1, 37175, Note_on_c, 1, 63, 0
1, 37176, Note_on_c, 0, 80, 76
1, 37176, Note_on_c, 1, 60, 76
1, 37199, Note_on_c, 0, 80, 0
1, 37199, Note_on_c, 1, 60, 0
1, 37200, Note_on_c, 0, 79, 75
1, 37200, Note_on_c, 1, 59, 75
1, 37223, Note_on_c, 0, 79, 0
1, 37223, Note_on_c, 1, 59, 0
1, 37224, Note_on_c, 0, 77, 75
1, 37224, Note_on_c, 1, 62, 75
1, 37247, Note_on_c, 0, 77, 0
1, 37247, Note_on_c, 1, 62, 0
1, 37248, Note_on_c, 0, 75, 75
1, 37248, Note_on_c, 1, 60, 75
1, 37271, Note_on_c, 0, 75, 0
1, 37271, Note_on_c, 1, 60, 0
1, 37272, Note_on_c, 0, 72, 75
1, 37272, Note_on_c, 1, 68, 75
1, 37295, Note_on_c, 0, 72, 0
1, 37295, Note_on_c, 1, 68, 0
1, 37296, Note_on_c, 0, 71, 75
1, 37296, Note_on_c, 1, 67, 75
1, 37319, Note_on_c, 0, 71, 0
1, 37319, Note_on_c, 1, 67, 0
1, 37320, Note_on_c, 0, 74, 75
1, 37320, Note_on_c, 1, 65, 75
1, 37343, Note_on_c, 0, 74, 0
1, 37343, Note_on_c, 1, 65, 0
1, 37344, Note_on_c, 0, 72, 75
1, 37344, Note_on_c, 1, 63, 75
1, 37367, Note_on_c, 0, 72, 0
1, 37367, Note_on_c, 1, 63, 0
1, 37368, Note_on_c, 0, 80, 75
1, 37368, Note_on_c, 1, 60, 75
1, 37391, Note_on_c, 0, 80, 0
1, 37391, Note_on_c, 1, 60, 0
1, 37392, Note_on_c, 0, 79, 75
1, 37392, Note_on_c, 1, 59, 75
1, 37415, Note_on_c, 0, 79, 0
1, 37415, Note_on_c, 1, 59, 0
1, 37416, Note_on_c, 0, 77, 75
1, 37416, Note_on_c, 1, 62, 75
1, 37439, Note_on_c, 0, 77, 0
1, 37439, Note_on_c, 1, 62, 0
1, 37440, Note_on_c, 0, 75, 75
1, 37440, Note_on_c, 1, 60, 75
1, 37463, Note_on_c, 0, 75, 0
1, 37463, Note_on_c, 1, 60, 0
1, 37464, Note_on_c, 0, 72, 75
1, 37464, Note_on_c, 1, 68, 75
1, 37487, Note_on_c, 0, 72, 0
1, 37487, Note_on_c, 1, 68, 0
1, 37488, Note_on_c, 0, 71, 75
1, 37488, Note_on_c, 1, 67, 75
1, 37511, Note_on_c, 0, 71, 0
1, 37511, Note_on_c, 1, 67, 0
1, 37512, Note_on_c, 0, 74, 75
1, 37512, Note_on_c, 1, 65, 75
1, 37535, Note_on_c, 0, 74, 0
1, 37535, Note_on_c, 1, 65, 0
1, 37536, Note_on_c, 0, 72, 75
1, 37536, Note_on_c, 1, 63, 75
1, 37559, Note_on_c, 0, 72, 0
1, 37560, Note_on_c, 0, 79, 75
1, 37581, Note_on_c, 1, 63, 0
1, 37583, Note_on_c, 0, 79, 0
1, 37584, Note_on_c, 0, 71, 76
1, 37607, Note_on_c, 0, 71, 0
1, 37608, Note_on_c, 0, 74, 77
1, 37608, Note_on_c, 1, 68, 77
1, 37608, Note_on_c, 1, 65, 77
1, 37631, Note_on_c, 0, 74, 0
1, 37632, Note_on_c, 0, 72, 77
1, 37632, Note_on_c, 1, 68, 0
1, 37632, Note_on_c, 1, 65, 0
1, 37632, Note_on_c, 1, 67, 77
1, 37632, Note_on_c, 1, 63, 77
1, 37655, Note_on_c, 0, 72, 0
1, 37656, Note_on_c, 0, 79, 78
1, 37677, Note_on_c, 1, 67, 0
1, 37677, Note_on_c, 1, 63, 0
1, 37679, Note_on_c, 0, 79, 0
1, 37680, Note_on_c, 0, 71, 79
1, 37703, Note_on_c, 0, 71, 0
1, 37704, Note_on_c, 0, 74, 80
1, 37704, Note_on_c, 1, 68, 80
1, 37704, Note_on_c, 1, 65, 80
1, 37727, Note_on_c, 0, 74, 0
1, 37728, Note_on_c, 0, 72, 75
1, 37728, Note_on_c, 1, 68, 0
1, 37728, Note_on_c, 1, 65, 0
1, 37728, Note_on_c, 1, 67, 80
1, 37728, Note_on_c, 1, 63, 80
1, 37751, Note_on_c, 0, 72, 0
1, 37752, Note_on_c, 0, 79, 74
1, 37773, Note_on_c, 1, 67, 0
1, 37773, Note_on_c, 1, 63, 0
1, 37775, Note_on_c, 0, 79, 0
1, 37776, Note_on_c, 0, 71, 73
1, 37799, Note_on_c, 0, 71, 0
1, 37800, Note_on_c, 0, 74, 72
1, 37800, Note_on_c, 1, 68, 80
1, 37800, Note_on_c, 1, 65, 80
1, 37823, Note_on_c, 0, 74, 0
1, 37824, Note_on_c, 0, 72, 71
1, 37824, Note_on_c, 1, 68, 0
1, 37824, Note_on_c, 1, 65, 0
1, 37824, Note_on_c, 1, 67, 80
1, 37824, Note_on_c, 1, 63, 80
1, 37848, Note_on_c, 0, 72, 0
1, 37848, Note_on_c, 0, 79, 70
1, 37871, Note_on_c, 0, 79, 0
1, 37872, Note_on_c, 0, 72, 69
1, 37896, Note_on_c, 0, 72, 0
1, 37896, Note_on_c, 0, 79, 68
1, 37919, Note_on_c, 0, 79, 0
1, 37920, Note_on_c, 0, 72, 67
1, 37944, Note_on_c, 0, 72, 0
1, 37944, Note_on_c, 0, 79, 66
1, 37967, Note_on_c, 0, 79, 0
1, 37968, Note_on_c, 0, 72, 65
1, 37992, Note_on_c, 0, 72, 0
1, 37992, Note_on_c, 0, 79, 64
1, 38001, Note_on_c, 1, 67, 0
1, 38001, Note_on_c, 1, 63, 0
1, 38015, Note_on_c, 0, 79, 0
1, 38016, Note_on_c, 0, 72, 64
1, 38016, Note_on_c, 1, 67, 64
1, 38016, Note_on_c, 1, 63, 64
1, 38039, Note_on_c, 0, 72, 0
1, 38039, Note_on_c, 1, 63, 0
1, 38040, Note_on_c, 0, 84, 66
1, 38040, Note_on_c, 0, 79, 66
1, 38040, Note_on_c, 1, 60, 65
1, 38061, Note_on_c, 1, 67, 0
1, 38063, Note_on_c, 0, 84, 0
1, 38063, Note_on_c, 0, 79, 0
1, 38063, Note_on_c, 1, 60, 0
1, 38064, Note_on_c, 0, 72, 68
1, 38064, Note_on_c, 1, 67, 67
1, 38064, Note_on_c, 1, 63, 66
1, 38087, Note_on_c, 0, 72, 0
1, 38087, Note_on_c, 1, 63, 0
1, 38088, Note_on_c, 0, 84, 70
1, 38088, Note_on_c, 0, 79, 70
1, 38088, Note_on_c, 1, 60, 67
1, 38109, Note_on_c, 1, 67, 0
1, 38111, Note_on_c, 0, 84, 0
1, 38111, Note_on_c, 0, 79, 0
1, 38111, Note_on_c, 1, 60, 0
1, 38112, Note_on_c, 0, 72, 72
1, 38112, Note_on_c, 1, 67, 71
1, 38112, Note_on_c, 1, 63, 68
1, 38135, Note_on_c, 0, 72, 0
1, 38135, Note_on_c, 1, 63, 0
1, 38136, Note_on_c, 0, 84, 74
1, 38136, Note_on_c, 0, 79, 74
1, 38136, Note_on_c, 1, 60, 69
1, 38157, Note_on_c, 1, 67, 0
1, 38159, Note_on_c, 0, 84, 0
1, 38159, Note_on_c, 0, 79, 0
1, 38159, Note_on_c, 1, 60, 0
1, 38160, Note_on_c, 0, 72, 76
1, 38160, Note_on_c, 1, 67, 74
1, 38160, Note_on_c, 1, 63, 70
1, 38183, Note_on_c, 0, 72, 0
1, 38183, Note_on_c, 1, 63, 0
1, 38184, Note_on_c, 0, 84, 78
1, 38184, Note_on_c, 0, 79, 78
1, 38184, Note_on_c, 1, 60, 71
1, 38205, Note_on_c, 1, 67, 0
1, 38207, Note_on_c, 0, 84, 0
1, 38207, Note_on_c, 0, 79, 0
1, 38207, Note_on_c, 1, 60, 0
1, 38208, Note_on_c, 0, 79, 93
1, 38208, Note_on_c, 0, 84, 104
1, 38208, Note_on_c, 1, 68, 78
1, 38231, Note_on_c, 1, 68, 0
1, 38232, Note_on_c, 1, 72, 80
1, 38255, Note_on_c, 1, 72, 0
1, 38256, Note_on_c, 1, 68, 80
1, 38275, Note_on_c, 0, 79, 0
1, 38279, Note_on_c, 1, 68, 0
1, 38280, Note_on_c, 0, 80, 80
1, 38280, Note_on_c, 1, 72, 80
1, 38292, Note_on_c, 0, 80, 0
1, 38292, Note_on_c, 0, 79, 80
1, 38303, Note_on_c, 1, 72, 0
1, 38304, Note_on_c, 0, 79, 0
1, 38304, Note_on_c, 0, 77, 80
1, 38304, Note_on_c, 1, 68, 80
1, 38327, Note_on_c, 1, 68, 0
1, 38328, Note_on_c, 1, 72, 80
1, 38349, Note_on_c, 0, 77, 0
1, 38351, Note_on_c, 1, 72, 0
1, 38352, Note_on_c, 0, 77, 80
1, 38352, Note_on_c, 1, 68, 80
1, 38375, Note_on_c, 1, 68, 0
1, 38376, Note_on_c, 1, 72, 80
1, 38397, Note_on_c, 0, 77, 0
1, 38399, Note_on_c, 1, 72, 0
1, 38400, Note_on_c, 0, 77, 93
1, 38400, Note_on_c, 0, 84, 0
1, 38400, Note_on_c, 0, 85, 104
1, 38400, Note_on_c, 1, 67, 80
1, 38423, Note_on_c, 1, 67, 0
1, 38424, Note_on_c, 1, 70, 80
1, 38447, Note_on_c, 1, 70, 0
1, 38448, Note_on_c, 1, 67, 80
1, 38467, Note_on_c, 0, 77, 0
1, 38471, Note_on_c, 1, 67, 0
1, 38472, Note_on_c, 0, 79, 80
1, 38472, Note_on_c, 1, 70, 80
1, 38484, Note_on_c, 0, 79, 0
1, 38484, Note_on_c, 0, 77, 80
1, 38495, Note_on_c, 1, 70, 0
1, 38496, Note_on_c, 0, 77, 0
1, 38496, Note_on_c, 0, 76, 80
1, 38496, Note_on_c, 1, 60, 80
1, 38519, Note_on_c, 1, 60, 0
1, 38520, Note_on_c, 1, 70, 80
1, 38541, Note_on_c, 0, 76, 0
1, 38543, Note_on_c, 1, 70, 0
1, 38544, Note_on_c, 0, 76, 76
1, 38544, Note_on_c, 0, 85, 0
1, 38544, Note_on_c, 0, 82, 75
1, 38544, Note_on_c, 1, 60, 80
1, 38567, Note_on_c, 0, 82, 0
1, 38567, Note_on_c, 1, 60, 0
1, 38568, Note_on_c, 0, 79, 75
1, 38568, Note_on_c, 1, 70, 80
1, 38589, Note_on_c, 0, 76, 0
1, 38591, Note_on_c, 0, 79, 0
1, 38591, Note_on_c, 1, 70, 0
1, 38592, Note_on_c, 0, 80, 72
1, 38592, Note_on_c, 1, 65, 80
1, 38615, Note_on_c, 0, 80, 0
1, 38616, Note_on_c, 0, 72, 70
1, 38639, Note_on_c, 0, 72, 0
1, 38640, Note_on_c, 0, 80, 68
1, 38663, Note_on_c, 0, 80, 0
1, 38664, Note_on_c, 0, 72, 66
1, 38681, Note_on_c, 1, 65, 0
1, 38687, Note_on_c, 0, 72, 0
1, 38688, Note_on_c, 0, 80, 64
1, 38688, Note_on_c, 1, 41, 75
1, 38711, Note_on_c, 0, 80, 0
1, 38712, Note_on_c, 0, 73, 64
1, 38735, Note_on_c, 0, 73, 0
1, 38736, Note_on_c, 0, 80, 64
1, 38755, Note_on_c, 1, 41, 0
1, 38759, Note_on_c, 0, 80, 0
1, 38760, Note_on_c, 0, 73, 64
1, 38760, Note_on_c, 1, 43, 75
1, 38772, Note_on_c, 1, 43, 0
1, 38772, Note_on_c, 1, 41, 75
1, 38783, Note_on_c, 0, 73, 0
1, 38784, Note_on_c, 0, 79, 64
1, 38784, Note_on_c, 1, 41, 0
1, 38784, Note_on_c, 1, 40, 75
1, 38807, Note_on_c, 0, 79, 0
1, 38808, Note_on_c, 0, 73, 64
1, 38829, Note_on_c, 1, 40, 0
1, 38831, Note_on_c, 0, 73, 0
1, 38832, Note_on_c, 0, 79, 64
1, 38855, Note_on_c, 0, 79, 0
1, 38856, Note_on_c, 0, 73, 64
1, 38879, Note_on_c, 0, 73, 0
1, 38880, Note_on_c, 0, 79, 64
1, 38880, Note_on_c, 1, 63, 75
1, 38903, Note_on_c, 0, 79, 0
1, 38904, Note_on_c, 0, 72, 64
1, 38927, Note_on_c, 0, 72, 0
1, 38928, Note_on_c, 0, 79, 64
1, 38947, Note_on_c, 1, 63, 0
1, 38951, Note_on_c, 0, 79, 0
1, 38952, Note_on_c, 0, 72, 64
1, 38952, Note_on_c, 1, 65, 70
1, 38964, Note_on_c, 1, 65, 0
1, 38964, Note_on_c, 1, 63, 70
1, 38975, Note_on_c, 0, 72, 0
1, 38976, Note_on_c, 0, 77, 64
1, 38976, Note_on_c, 1, 63, 0
1, 38976, Note_on_c, 1, 62, 70
1, 38999, Note_on_c, 0, 77, 0
1, 39000, Note_on_c, 0, 72, 64
1, 39021, Note_on_c, 1, 62, 0
1, 39023, Note_on_c, 0, 72, 0
1, 39024, Note_on_c, 0, 77, 64
1, 39047, Note_on_c, 0, 77, 0
1, 39048, Note_on_c, 0, 72, 64
1, 39071, Note_on_c, 0, 72, 0
1, 39072, Note_on_c, 0, 77, 64
1, 39072, Note_on_c, 1, 37, 75
1, 39095, Note_on_c, 0, 77, 0
1, 39096, Note_on_c, 0, 70, 64
1, 39119, Note_on_c, 0, 70, 0
1, 39120, Note_on_c, 0, 77, 64
1, 39139, Note_on_c, 1, 37, 0
1, 39143, Note_on_c, 0, 77, 0
1, 39144, Note_on_c, 0, 70, 64
1, 39144, Note_on_c, 1, 39, 75
1, 39156, Note_on_c, 1, 39, 0
1, 39156, Note_on_c, 1, 37, 75
1, 39167, Note_on_c, 0, 70, 0
1, 39168, Note_on_c, 0, 75, 64
1, 39168, Note_on_c, 1, 37, 0
1, 39168, Note_on_c, 1, 36, 75
1, 39191, Note_on_c, 0, 75, 0
1, 39192, Note_on_c, 0, 70, 64
1, 39213, Note_on_c, 1, 36, 0
1, 39215, Note_on_c, 0, 70, 0
1, 39216, Note_on_c, 0, 75, 64
1, 39239, Note_on_c, 0, 75, 0
1, 39240, Note_on_c, 0, 70, 64
1, 39263, Note_on_c, 0, 70, 0
1, 39264, Note_on_c, 0, 75, 64
1, 39264, Note_on_c, 1, 60, 70
1, 39287, Note_on_c, 0, 75, 0
1, 39288, Note_on_c, 0, 68, 64
1, 39311, Note_on_c, 0, 68, 0
1, 39312, Note_on_c, 0, 75, 64
1, 39331, Note_on_c, 1, 60, 0
1, 39335, Note_on_c, 0, 75, 0
1, 39336, Note_on_c, 0, 68, 64
1, 39336, Note_on_c, 1, 61, 70
1, 39348, Note_on_c, 1, 61, 0
1, 39348, Note_on_c, 1, 60, 70
1, 39359, Note_on_c, 0, 68, 0
1, 39360, Note_on_c, 0, 73, 64
1, 39360, Note_on_c, 1, 60, 0
1, 39360, Note_on_c, 1, 58, 70
1, 39383, Note_on_c, 0, 73, 0
1, 39384, Note_on_c, 0, 68, 64
1, 39405, Note_on_c, 1, 58, 0
1, 39407, Note_on_c, 0, 68, 0
1, 39408, Note_on_c, 0, 73, 64
1, 39431, Note_on_c, 0, 73, 0
1, 39432, Note_on_c, 0, 68, 64
1, 39455, Note_on_c, 0, 68, 0
1, 39456, Note_on_c, 0, 73, 64
1, 39456, Note_on_c, 1, 34, 75
1, 39479, Note_on_c, 0, 73, 0
1, 39480, Note_on_c, 0, 67, 66
1, 39503, Note_on_c, 0, 67, 0
1, 39504, Note_on_c, 0, 73, 69
1, 39523, Note_on_c, 1, 34, 0
1, 39527, Note_on_c, 0, 73, 0
1, 39528, Note_on_c, 0, 67, 72
1, 39528, Note_on_c, 1, 36, 75
1, 39540, Note_on_c, 1, 36, 0
1, 39540, Note_on_c, 1, 34, 75
1, 39551, Note_on_c, 0, 67, 0
1, 39552, Note_on_c, 0, 72, 80
1, 39552, Note_on_c, 1, 34, 0
1, 39552, Note_on_c, 1, 32, 80
1, 39564, Note_on_c, 0, 72, 0
1, 39564, Note_on_c, 0, 75, 80
1, 39576, Note_on_c, 0, 75, 0
1, 39576, Note_on_c, 0, 77, 80
1, 39588, Note_on_c, 0, 77, 0
1, 39588, Note_on_c, 0, 75, 80
1, 39600, Note_on_c, 0, 75, 0
1, 39600, Note_on_c, 0, 73, 80
1, 39612, Note_on_c, 0, 73, 0
1, 39612, Note_on_c, 0, 72, 80
1, 39624, Note_on_c, 0, 72, 0
1, 39624, Note_on_c, 0, 70, 80
1, 39636, Note_on_c, 0, 70, 0
1, 39636, Note_on_c, 0, 68, 80
1, 39641, Note_on_c, 1, 32, 0
1, 39648, Note_on_c, 0, 68, 0
1, 39648, Note_on_c, 0, 67, 80
1, 39648, Note_on_c, 1, 61, 80
1, 39648, Note_on_c, 1, 58, 80
1, 39648, Note_on_c, 1, 51, 80
1, 39660, Note_on_c, 0, 67, 0
1, 39660, Note_on_c, 0, 77, 80
1, 39672, Note_on_c, 0, 77, 0
1, 39672, Note_on_c, 0, 75, 80
1, 39684, Note_on_c, 0, 75, 0
1, 39684, Note_on_c, 0, 73, 80
1, 39696, Note_on_c, 0, 73, 0
1, 39696, Note_on_c, 0, 72, 80
1, 39708, Note_on_c, 0, 72, 0
1, 39708, Note_on_c, 0, 70, 80
1, 39720, Note_on_c, 0, 70, 0
1, 39720, Note_on_c, 0, 68, 80
1, 39732, Note_on_c, 0, 68, 0
1, 39732, Note_on_c, 0, 67, 80
1, 39737, Note_on_c, 1, 61, 0
1, 39737, Note_on_c, 1, 58, 0
1, 39737, Note_on_c, 1, 51, 0
1, 39744, Note_on_c, 0, 67, 0
1, 39744, Note_on_c, 0, 68, 80
1, 39744, Note_on_c, 1, 60, 80
1, 39744, Note_on_c, 1, 56, 80
1, 39756, Note_on_c, 0, 68, 0
1, 39756, Note_on_c, 0, 70, 80
1, 39768, Note_on_c, 0, 70, 0
1, 39768, Note_on_c, 0, 72, 81
1, 39780, Note_on_c, 0, 72, 0
1, 39780, Note_on_c, 0, 73, 81
1, 39792, Note_on_c, 0, 73, 0
1, 39792, Note_on_c, 0, 75, 82
1, 39804, Note_on_c, 0, 75, 0
1, 39804, Note_on_c, 0, 77, 83
1, 39816, Note_on_c, 0, 77, 0
1, 39816, Note_on_c, 0, 79, 83
1, 39828, Note_on_c, 0, 79, 0
1, 39828, Note_on_c, 0, 80, 84
1, 39833, Note_on_c, 1, 60, 0
1, 39833, Note_on_c, 1, 56, 0
1, 39840, Note_on_c, 0, 80, 0
1, 39840, Note_on_c, 0, 82, 84
1, 39840, Note_on_c, 1, 63, 75
1, 39840, Note_on_c, 1, 58, 75
1, 39840, Note_on_c, 1, 55, 75
1, 39852, Note_on_c, 0, 82, 0
1, 39852, Note_on_c, 0, 84, 85
1, 39864, Note_on_c, 0, 84, 0
1, 39864, Note_on_c, 0, 82, 86
1, 39876, Note_on_c, 0, 82, 0
1, 39876, Note_on_c, 0, 80, 85
1, 39888, Note_on_c, 0, 80, 0
1, 39888, Note_on_c, 0, 79, 84
1, 39900, Note_on_c, 0, 79, 0
1, 39900, Note_on_c, 0, 77, 83
1, 39912, Note_on_c, 0, 77, 0
1, 39912, Note_on_c, 0, 75, 82
1, 39924, Note_on_c, 0, 75, 0
1, 39924, Note_on_c, 0, 73, 81
1, 39929, Note_on_c, 1, 63, 0
1, 39929, Note_on_c, 1, 58, 0
1, 39929, Note_on_c, 1, 55, 0
1, 39936, Note_on_c, 0, 73, 0
1, 39936, Note_on_c, 0, 72, 70
1, 39936, Note_on_c, 1, 63, 70
1, 39936, Note_on_c, 1, 60, 70
1, 39936, Note_on_c, 1, 56, 70
1, 39948, Note_on_c, 0, 72, 0
1, 39948, Note_on_c, 0, 75, 70
1, 39960, Note_on_c, 0, 75, 0
1, 39960, Note_on_c, 0, 77, 70
1, 39972, Note_on_c, 0, 77, 0
1, 39972, Note_on_c, 0, 75, 70
1, 39984, Note_on_c, 0, 75, 0
1, 39984, Note_on_c, 0, 73, 70
1, 39996, Note_on_c, 0, 73, 0
1, 39996, Note_on_c, 0, 72, 70
1, 40008, Note_on_c, 0, 72, 0
1, 40008, Note_on_c, 0, 70, 70
1, 40020, Note_on_c, 0, 70, 0
1, 40020, Note_on_c, 0, 68, 70
1, 40025, Note_on_c, 1, 63, 0
1, 40025, Note_on_c, 1, 60, 0
1, 40025, Note_on_c, 1, 56, 0
1, 40032, Note_on_c, 0, 68, 0
1, 40032, Note_on_c, 0, 67, 70
1, 40032, Note_on_c, 1, 63, 70
1, 40032, Note_on_c, 1, 61, 70
1, 40032, Note_on_c, 1, 58, 70
1, 40044, Note_on_c, 0, 67, 0
1, 40044, Note_on_c, 0, 77, 70
1, 40056, Note_on_c, 0, 77, 0
1, 40056, Note_on_c, 0, 75, 70
1, 40068, Note_on_c, 0, 75, 0
1, 40068, Note_on_c, 0, 73, 70
1, 40080, Note_on_c, 0, 73, 0
1, 40080, Note_on_c, 0, 72, 70
1, 40092, Note_on_c, 0, 72, 0
1, 40092, Note_on_c, 0, 70, 70
1, 40104, Note_on_c, 0, 70, 0
1, 40104, Note_on_c, 0, 68, 70
1, 40116, Note_on_c, 0, 68, 0
1, 40116, Note_on_c, 0, 67, 70
1, 40121, Note_on_c, 1, 63, 0
1, 40121, Note_on_c, 1, 61, 0
1, 40121, Note_on_c, 1, 58, 0
1, 40128, Note_on_c, 0, 67, 0
1, 40128, Note_on_c, 0, 68, 70
1, 40128, Note_on_c, 1, 63, 70
1, 40128, Note_on_c, 1, 60, 70
1, 40140, Note_on_c, 0, 68, 0
1, 40140, Note_on_c, 0, 70, 70
1, 40152, Note_on_c, 0, 70, 0
1, 40152, Note_on_c, 0, 72, 71
1, 40164, Note_on_c, 0, 72, 0
1, 40164, Note_on_c, 0, 73, 71
1, 40176, Note_on_c, 0, 73, 0
1, 40176, Note_on_c, 0, 75, 72
1, 40188, Note_on_c, 0, 75, 0
1, 40188, Note_on_c, 0, 77, 72
1, 40200, Note_on_c, 0, 77, 0
1, 40200, Note_on_c, 0, 79, 73
1, 40212, Note_on_c, 0, 79, 0
1, 40212, Note_on_c, 0, 80, 73
1, 40217, Note_on_c, 1, 63, 0
1, 40217, Note_on_c, 1, 60, 0
1, 40224, Note_on_c, 0, 80, 0
1, 40224, Note_on_c, 0, 82, 74
1, 40224, Note_on_c, 1, 63, 67
1, 40224, Note_on_c, 1, 58, 67
1, 40224, Note_on_c, 1, 55, 67
1, 40236, Note_on_c, 0, 82, 0
1, 40236, Note_on_c, 0, 84, 74
1, 40248, Note_on_c, 0, 84, 0
1, 40248, Note_on_c, 0, 82, 75
1, 40260, Note_on_c, 0, 82, 0
1, 40260, Note_on_c, 0, 80, 73
1, 40272, Note_on_c, 0, 80, 0
1, 40272, Note_on_c, 0, 79, 71
1, 40284, Note_on_c, 0, 79, 0
1, 40284, Note_on_c, 0, 77, 69
1, 40296, Note_on_c, 0, 77, 0
1, 40296, Note_on_c, 0, 75, 67
1, 40308, Note_on_c, 0, 75, 0
1, 40308, Note_on_c, 0, 73, 65
1, 40313, Note_on_c, 1, 63, 0
1, 40313, Note_on_c, 1, 58, 0
1, 40313, Note_on_c, 1, 55, 0
1, 40320, Note_on_c, 0, 73, 0
1, 40320, Note_on_c, 0, 72, 64
1, 40320, Note_on_c, 1, 68, 64
1, 40332, Note_on_c, 0, 72, 0
1, 40332, Note_on_c, 0, 73, 64
1, 40344, Note_on_c, 0, 73, 0
1, 40344, Note_on_c, 0, 75, 64
1, 40356, Note_on_c, 0, 75, 0
1, 40356, Note_on_c, 0, 73, 64
1, 40365, Note_on_c, 1, 68, 0
1, 40368, Note_on_c, 0, 73, 0
1, 40368, Note_on_c, 0, 72, 64
1, 40368, Note_on_c, 1, 63, 64
1, 40380, Note_on_c, 0, 72, 0
1, 40380, Note_on_c, 0, 73, 64
1, 40392, Note_on_c, 0, 73, 0
1, 40392, Note_on_c, 0, 75, 64
1, 40404, Note_on_c, 0, 75, 0
1, 40404, Note_on_c, 0, 73, 64
1, 40413, Note_on_c, 1, 63, 0
1, 40416, Note_on_c, 0, 73, 0
1, 40416, Note_on_c, 0, 72, 64
1, 40416, Note_on_c, 1, 60, 64
1, 40428, Note_on_c, 0, 72, 0
1, 40428, Note_on_c, 0, 73, 64
1, 40440, Note_on_c, 0, 73, 0
1, 40440, Note_on_c, 0, 75, 64
1, 40452, Note_on_c, 0, 75, 0
1, 40452, Note_on_c, 0, 73, 64
1, 40461, Note_on_c, 1, 60, 0
1, 40464, Note_on_c, 0, 73, 0
1, 40464, Note_on_c, 0, 72, 64
1, 40464, Note_on_c, 1, 56, 64
1, 40476, Note_on_c, 0, 72, 0
1, 40476, Note_on_c, 0, 73, 64
1, 40488, Note_on_c, 0, 73, 0
1, 40488, Note_on_c, 0, 75, 65
1, 40500, Note_on_c, 0, 75, 0
1, 40500, Note_on_c, 0, 73, 66
1, 40509, Note_on_c, 1, 56, 0
1, 40512, Note_on_c, 0, 73, 0
1, 40512, Note_on_c, 0, 72, 66
1, 40512, Note_on_c, 1, 66, 66
1, 40524, Note_on_c, 0, 72, 0
1, 40524, Note_on_c, 0, 73, 67
1, 40536, Note_on_c, 0, 73, 0
1, 40536, Note_on_c, 0, 75, 68
1, 40548, Note_on_c, 0, 75, 0
1, 40548, Note_on_c, 0, 73, 69
1, 40557, Note_on_c, 1, 66, 0
1, 40560, Note_on_c, 0, 73, 0
1, 40560, Note_on_c, 0, 72, 69
1, 40560, Note_on_c, 1, 63, 68
1, 40572, Note_on_c, 0, 72, 0
1, 40572, Note_on_c, 0, 73, 70
1, 40584, Note_on_c, 0, 73, 0
1, 40584, Note_on_c, 0, 75, 71
1, 40596, Note_on_c, 0, 75, 0
1, 40596, Note_on_c, 0, 73, 72
1, 40605, Note_on_c, 1, 63, 0
1, 40608, Note_on_c, 0, 73, 0
1, 40608, Note_on_c, 0, 72, 72
1, 40608, Note_on_c, 1, 60, 71
1, 40620, Note_on_c, 0, 72, 0
1, 40620, Note_on_c, 0, 73, 73
1, 40632, Note_on_c, 0, 73, 0
1, 40632, Note_on_c, 0, 75, 74
1, 40644, Note_on_c, 0, 75, 0
1, 40644, Note_on_c, 0, 73, 74
1, 40653, Note_on_c, 1, 60, 0
1, 40656, Note_on_c, 0, 73, 0
1, 40656, Note_on_c, 0, 72, 75
1, 40656, Note_on_c, 1, 54, 73
1, 40668, Note_on_c, 0, 72, 0
1, 40668, Note_on_c, 0, 73, 76
1, 40680, Note_on_c, 0, 73, 0
1, 40680, Note_on_c, 0, 75, 77
1, 40692, Note_on_c, 0, 75, 0
1, 40692, Note_on_c, 0, 73, 77
1, 40701, Note_on_c, 1, 54, 0
1, 40704, Note_on_c, 0, 73, 0
1, 40704, Note_on_c, 0, 72, 78
1, 40704, Note_on_c, 1, 42, 92
1, 40704, Note_on_c, 1, 30, 92
1, 40716, Note_on_c, 0, 72, 0
1, 40716, Note_on_c, 0, 74, 79
1, 40728, Note_on_c, 0, 74, 0
1, 40728, Note_on_c, 0, 75, 80
1, 40740, Note_on_c, 0, 75, 0
1, 40740, Note_on_c, 0, 74, 80
1, 40752, Note_on_c, 0, 74, 0
1, 40752, Note_on_c, 0, 72, 80
1, 40764, Note_on_c, 0, 72, 0
1, 40764, Note_on_c, 0, 74, 80
1, 40776, Note_on_c, 0, 74, 0
1, 40776, Note_on_c, 0, 75, 80
1, 40788, Note_on_c, 0, 75, 0
1, 40788, Note_on_c, 0, 74, 80
1, 40800, Note_on_c, 0, 74, 0
1, 40800, Note_on_c, 0, 72, 80
1, 40812, Note_on_c, 0, 72, 0
1, 40812, Note_on_c, 0, 74, 80
1, 40824, Note_on_c, 0, 74, 0
1, 40824, Note_on_c, 0, 75, 80
1, 40836, Note_on_c, 0, 75, 0
1, 40836, Note_on_c, 0, 74, 80
1, 40848, Note_on_c, 0, 74, 0
1, 40848, Note_on_c, 0, 72, 80
1, 40860, Note_on_c, 0, 72, 0
1, 40860, Note_on_c, 0, 75, 80
1, 40872, Note_on_c, 0, 75, 0
1, 40872, Note_on_c, 0, 74, 80
1, 40884, Note_on_c, 0, 74, 0
1, 40884, Note_on_c, 0, 72, 80
1, 40896, Note_on_c, 0, 72, 0
1, 40896, Note_on_c, 0, 71, 80
1, 40896, Note_on_c, 1, 42, 0
1, 40896, Note_on_c, 1, 30, 0
1, 40896, Note_on_c, 1, 43, 86
1, 40896, Note_on_c, 1, 31, 86
1, 40908, Note_on_c, 0, 71, 0
1, 40908, Note_on_c, 0, 67, 80
1, 40920, Note_on_c, 0, 67, 0
1, 40920, Note_on_c, 0, 71, 80
1, 40932, Note_on_c, 0, 71, 0
1, 40932, Note_on_c, 0, 74, 80
1, 40941, Note_on_c, 1, 43, 0
1, 40941, Note_on_c, 1, 31, 0
1, 40944, Note_on_c, 0, 74, 0
1, 40944, Note_on_c, 0, 79, 80
1, 40956, Note_on_c, 0, 79, 0
1, 40956, Note_on_c, 0, 74, 80
1, 40968, Note_on_c, 0, 74, 0
1, 40968, Note_on_c, 0, 71, 80
1, 40980, Note_on_c, 0, 71, 0
1, 40980, Note_on_c, 0, 67, 80
1, 40992, Note_on_c, 0, 67, 0
1, 40992, Note_on_c, 0, 66, 80
1, 40992, Note_on_c, 1, 55, 80
1, 40992, Note_on_c, 1, 51, 80
1, 40992, Note_on_c, 1, 48, 80
1, 40992, Note_on_c, 1, 43, 80
1, 41004, Note_on_c, 0, 66, 0
1, 41004, Note_on_c, 0, 67, 80
1, 41016, Note_on_c, 0, 67, 0
1, 41016, Note_on_c, 0, 72, 80
1, 41028, Note_on_c, 0, 72, 0
1, 41028, Note_on_c, 0, 75, 80
1, 41040, Note_on_c, 0, 75, 0
1, 41040, Note_on_c, 0, 79, 80
1, 41052, Note_on_c, 0, 79, 0
1, 41052, Note_on_c, 0, 75, 80
1, 41059, Note_on_c, 1, 55, 0
1, 41059, Note_on_c, 1, 51, 0
1, 41059, Note_on_c, 1, 48, 0
1, 41059, Note_on_c, 1, 43, 0
1, 41064, Note_on_c, 0, 75, 0
1, 41064, Note_on_c, 0, 72, 80
1, 41076, Note_on_c, 0, 72, 0
1, 41076, Note_on_c, 0, 67, 80
1, 41088, Note_on_c, 0, 67, 0
1, 41088, Note_on_c, 0, 66, 80
1, 41088, Note_on_c, 1, 55, 80
1, 41088, Note_on_c, 1, 50, 80
1, 41088, Note_on_c, 1, 47, 80
1, 41088, Note_on_c, 1, 43, 80
1, 41100, Note_on_c, 0, 66, 0
1, 41100, Note_on_c, 0, 67, 80
1, 41112, Note_on_c, 0, 67, 0
1, 41112, Note_on_c, 0, 71, 80
1, 41124, Note_on_c, 0, 71, 0
1, 41124, Note_on_c, 0, 74, 80
1, 41133, Note_on_c, 1, 55, 0
1, 41133, Note_on_c, 1, 50, 0
1, 41133, Note_on_c, 1, 47, 0
1, 41133, Note_on_c, 1, 43, 0
1, 41136, Note_on_c, 0, 74, 0
1, 41136, Note_on_c, 0, 79, 80
1, 41148, Note_on_c, 0, 79, 0
1, 41148, Note_on_c, 0, 74, 80
1, 41160, Note_on_c, 0, 74, 0
1, 41160, Note_on_c, 0, 71, 80
1, 41172, Note_on_c, 0, 71, 0
1, 41172, Note_on_c, 0, 67, 80
1, 41184, Note_on_c, 0, 67, 0
1, 41184, Note_on_c, 0, 66, 80
1, 41184, Note_on_c, 1, 55, 80
1, 41184, Note_on_c, 1, 51, 80
1, 41184, Note_on_c, 1, 48, 80
1, 41184, Note_on_c, 1, 43, 80
1, 41196, Note_on_c, 0, 66, 0
1, 41196, Note_on_c, 0, 67, 80
1, 41208, Note_on_c, 0, 67, 0
1, 41208, Note_on_c, 0, 72, 80
1, 41220, Note_on_c, 0, 72, 0
1, 41220, Note_on_c, 0, 75, 80
1, 41232, Note_on_c, 0, 75, 0
1, 41232, Note_on_c, 0, 79, 80
1, 41244, Note_on_c, 0, 79, 0
1, 41244, Note_on_c, 0, 75, 80
1, 41251, Note_on_c, 1, 55, 0
1, 41251, Note_on_c, 1, 51, 0
1, 41251, Note_on_c, 1, 48, 0
1, 41251, Note_on_c, 1, 43, 0
1, 41256, Note_on_c, 0, 75, 0
1, 41256, Note_on_c, 0, 72, 80
1, 41268, Note_on_c, 0, 72, 0
1, 41268, Note_on_c, 0, 67, 80
1, 41280, Note_on_c, 0, 67, 0
1, 41280, Note_on_c, 0, 79, 80
1, 41280, Note_on_c, 1, 43, 80
1, 41292, Note_on_c, 1, 43, 0
1, 41292, Note_on_c, 1, 47, 80
1, 41304, Note_on_c, 1, 47, 0
1, 41304, Note_on_c, 1, 50, 80
1, 41316, Note_on_c, 1, 50, 0
1, 41316, Note_on_c, 1, 55, 80
1, 41325, Note_on_c, 0, 79, 0
1, 41328, Note_on_c, 1, 55, 0
1, 41328, Note_on_c, 1, 56, 80
1, 41340, Note_on_c, 1, 56, 0
1, 41340, Note_on_c, 1, 55, 80
1, 41352, Note_on_c, 1, 55, 0
1, 41352, Note_on_c, 1, 50, 80
1, 41364, Note_on_c, 1, 50, 0
1, 41364, Note_on_c, 1, 47, 80
1, 41376, Note_on_c, 0, 67, 80
1, 41376, Note_on_c, 1, 47, 0
1, 41376, Note_on_c, 1, 43, 80
1, 41382, Note_on_c, 0, 72, 80
1, 41388, Note_on_c, 0, 75, 80
1, 41388, Note_on_c, 1, 43, 0
1, 41388, Note_on_c, 1, 48, 80
1, 41394, Note_on_c, 0, 79, 80
1, 41400, Note_on_c, 1, 48, 0
1, 41400, Note_on_c, 1, 51, 80
1, 41412, Note_on_c, 1, 51, 0
1, 41412, Note_on_c, 1, 55, 80
1, 41424, Note_on_c, 1, 55, 0
1, 41424, Note_on_c, 1, 56, 80
1, 41436, Note_on_c, 1, 56, 0
1, 41436, Note_on_c, 1, 55, 80
1, 41447, Note_on_c, 0, 79, 0
1, 41447, Note_on_c, 0, 75, 0
1, 41447, Note_on_c, 0, 72, 0
1, 41447, Note_on_c, 0, 67, 0
1, 41448, Note_on_c, 1, 55, 0
1, 41448, Note_on_c, 1, 51, 80
1, 41460, Note_on_c, 1, 51, 0
1, 41460, Note_on_c, 1, 48, 80
1, 41472, Note_on_c, 0, 67, 80
1, 41472, Note_on_c, 1, 48, 0
1, 41472, Note_on_c, 1, 43, 80
1, 41478, Note_on_c, 0, 71, 80
1, 41484, Note_on_c, 0, 74, 80
1, 41484, Note_on_c, 1, 43, 0
1, 41484, Note_on_c, 1, 47, 80
1, 41490, Note_on_c, 0, 79, 80
1, 41496, Note_on_c, 1, 47, 0
1, 41496, Note_on_c, 1, 50, 80
1, 41508, Note_on_c, 1, 50, 0
1, 41508, Note_on_c, 1, 55, 80
1, 41520, Note_on_c, 1, 55, 0
1, 41520, Note_on_c, 1, 56, 80
1, 41532, Note_on_c, 1, 56, 0
1, 41532, Note_on_c, 1, 55, 80
1, 41543, Note_on_c, 0, 79, 0
1, 41543, Note_on_c, 0, 74, 0
1, 41543, Note_on_c, 0, 71, 0
1, 41543, Note_on_c, 0, 67, 0
1, 41544, Note_on_c, 1, 55, 0
1, 41544, Note_on_c, 1, 50, 80
1, 41556, Note_on_c, 1, 50, 0
1, 41556, Note_on_c, 1, 47, 80
1, 41568, Note_on_c, 0, 67, 80
1, 41568, Note_on_c, 1, 47, 0
1, 41568, Note_on_c, 1, 43, 80
1, 41574, Note_on_c, 0, 72, 80
1, 41580, Note_on_c, 0, 75, 80
1, 41580, Note_on_c, 1, 43, 0
1, 41580, Note_on_c, 1, 48, 80
1, 41586, Note_on_c, 0, 79, 80
1, 41592, Note_on_c, 1, 48, 0
1, 41592, Note_on_c, 1, 51, 80
1, 41604, Note_on_c, 1, 51, 0
1, 41604, Note_on_c, 1, 55, 80
1, 41616, Note_on_c, 1, 55, 0
1, 41616, Note_on_c, 1, 56, 80
1, 41628, Note_on_c, 1, 56, 0
1, 41628, Note_on_c, 1, 55, 80
1, 41639, Note_on_c, 0, 79, 0
1, 41639, Note_on_c, 0, 75, 0
1, 41639, Note_on_c, 0, 72, 0
1, 41639, Note_on_c, 0, 67, 0
1, 41640, Note_on_c, 1, 55, 0
1, 41640, Note_on_c, 1, 51, 80
1, 41652, Note_on_c, 1, 51, 0
1, 41652, Note_on_c, 1, 48, 80
1, 41664, Note_on_c, 0, 79, 80
1, 41664, Note_on_c, 0, 74, 80
1, 41664, Note_on_c, 0, 71, 80
1, 41664, Note_on_c, 0, 67, 80
1, 41664, Note_on_c, 1, 48, 0
1, 41664, Note_on_c, 1, 43, 80
1, 41709, Note_on_c, 0, 79, 0
1, 41709, Note_on_c, 0, 74, 0
1, 41709, Note_on_c, 0, 71, 0
1, 41709, Note_on_c, 0, 67, 0
1, 41709, Note_on_c, 1, 43, 0
1, 41760, Note_on_c, 0, 83, 80
1, 41760, Note_on_c, 0, 79, 80
1, 41760, Note_on_c, 0, 74, 80
1, 41760, Note_on_c, 1, 55, 80
1, 41760, Note_on_c, 1, 50, 80
1, 41760, Note_on_c, 1, 47, 80
1, 41760, Note_on_c, 1, 43, 80
1, 41805, Note_on_c, 0, 83, 0
1, 41805, Note_on_c, 0, 79, 0
1, 41805, Note_on_c, 0, 74, 0
1, 41805, Note_on_c, 1, 55, 0
1, 41805, Note_on_c, 1, 50, 0
1, 41805, Note_on_c, 1, 47, 0
1, 41805, Note_on_c, 1, 43, 0
1, 41856, Note_on_c, 0, 55, 80
1, 41856, Note_on_c, 0, 50, 80
1, 41856, Note_on_c, 0, 47, 80
1, 41856, Note_on_c, 1, 43, 80
1, 41856, Note_on_c, 1, 31, 80
1, 42210, Note_on_c, 0, 55, 0
1, 42210, Note_on_c, 0, 50, 0
1, 42210, Note_on_c, 0, 47, 0
1, 42210, Note_on_c, 1, 43, 0
1, 42210, Note_on_c, 1, 31, 0
1, 42324, Note_on_c, 0, 83, 64
1, 42336, Note_on_c, 0, 83, 0
1, 42336, Note_on_c, 0, 80, 64
1, 42336, Note_on_c, 1, 68, 64
1, 42336, Note_on_c, 1, 64, 64
1, 42346, Note_on_c, 0, 80, 0
1, 42356, Note_on_c, 1, 68, 0
1, 42356, Note_on_c, 1, 64, 0
1, 42372, Note_on_c, 0, 83, 64
1, 42384, Note_on_c, 0, 83, 0
1, 42384, Note_on_c, 0, 78, 64
1, 42384, Note_on_c, 1, 66, 64
1, 42384, Note_on_c, 1, 59, 64
1, 42394, Note_on_c, 0, 78, 0
1, 42404, Note_on_c, 1, 66, 0
1, 42404, Note_on_c, 1, 59, 0
1, 42420, Note_on_c, 0, 83, 64
1, 42432, Note_on_c, 0, 83, 0
1, 42432, Note_on_c, 0, 76, 64
1, 42432, Note_on_c, 1, 64, 64
1, 42432, Note_on_c, 1, 56, 64
1, 42442, Note_on_c, 0, 76, 0
1, 42468, Note_on_c, 0, 83, 64
1, 42477, Note_on_c, 1, 64, 0
1, 42477, Note_on_c, 1, 56, 0
1, 42480, Note_on_c, 0, 83, 0
1, 42480, Note_on_c, 0, 71, 64
1, 42490, Note_on_c, 0, 71, 0
1, 42516, Note_on_c, 0, 83, 58
1, 42528, Note_on_c, 0, 83, 0
1, 42528, Note_on_c, 0, 80, 58
1, 42528, Note_on_c, 1, 68, 58
1, 42528, Note_on_c, 1, 64, 58
1, 42538, Note_on_c, 0, 80, 0
1, 42548, Note_on_c, 1, 68, 0
1, 42548, Note_on_c, 1, 64, 0
1, 42564, Note_on_c, 0, 83, 58
1, 42576, Note_on_c, 0, 83, 0
1, 42576, Note_on_c, 0, 78, 58
1, 42576, Note_on_c, 1, 66, 58
1, 42576, Note_on_c, 1, 59, 58
1, 42586, Note_on_c, 0, 78, 0
1, 42596, Note_on_c, 1, 66, 0
1, 42596, Note_on_c, 1, 59, 0
1, 42612, Note_on_c, 0, 83, 58
1, 42624, Note_on_c, 0, 83, 0
1, 42624, Note_on_c, 0, 76, 58
1, 42624, Note_on_c, 1, 64, 58
1, 42624, Note_on_c, 1, 56, 58
1, 42634, Note_on_c, 0, 76, 0
1, 42660, Note_on_c, 0, 83, 58
1, 42669, Note_on_c, 1, 64, 0
1, 42669, Note_on_c, 1, 56, 0
1, 42672, Note_on_c, 0, 83, 0
1, 42672, Note_on_c, 0, 71, 58
1, 42682, Note_on_c, 0, 71, 0
1, 42708, Note_on_c, 0, 88, 64
1, 42708, Note_on_c, 1, 64, 64
1, 42720, Note_on_c, 0, 88, 0
1, 42720, Note_on_c, 0, 83, 64
1, 42720, Note_on_c, 1, 64, 0
1, 42720, Note_on_c, 1, 68, 64
1, 42730, Note_on_c, 0, 83, 0
1, 42730, Note_on_c, 1, 68, 0
1, 42756, Note_on_c, 0, 88, 64
1, 42756, Note_on_c, 1, 64, 64
1, 42768, Note_on_c, 0, 88, 0
1, 42768, Note_on_c, 0, 85, 64
1, 42768, Note_on_c, 1, 64, 0
1, 42768, Note_on_c, 1, 69, 64
1, 42778, Note_on_c, 0, 85, 0
1, 42778, Note_on_c, 1, 69, 0
1, 42804, Note_on_c, 0, 88, 64
1, 42804, Note_on_c, 1, 64, 64
1, 42816, Note_on_c, 0, 88, 0
1, 42816, Note_on_c, 0, 86, 64
1, 42816, Note_on_c, 1, 64, 0
1, 42816, Note_on_c, 1, 71, 64
1, 42826, Note_on_c, 0, 86, 0
1, 42826, Note_on_c, 1, 71, 0
1, 42852, Note_on_c, 0, 88, 64
1, 42852, Note_on_c, 1, 64, 64
1, 42864, Note_on_c, 0, 88, 0
1, 42864, Note_on_c, 0, 85, 64
1, 42864, Note_on_c, 1, 64, 0
1, 42864, Note_on_c, 1, 73, 64
1, 42874, Note_on_c, 0, 85, 0
1, 42874, Note_on_c, 1, 73, 0
1, 42900, Note_on_c, 0, 88, 66
1, 42900, Note_on_c, 1, 64, 66
1, 42912, Note_on_c, 0, 88, 0
1, 42912, Note_on_c, 0, 83, 67
1, 42912, Note_on_c, 1, 64, 0
1, 42912, Note_on_c, 1, 74, 67
1, 42922, Note_on_c, 0, 83, 0
1, 42922, Note_on_c, 1, 74, 0
1, 42948, Note_on_c, 0, 88, 69
1, 42948, Note_on_c, 1, 64, 69
1, 42960, Note_on_c, 0, 88, 0
1, 42960, Note_on_c, 0, 80, 70
1, 42960, Note_on_c, 1, 64, 0
1, 42960, Note_on_c, 1, 74, 70
1, 42970, Note_on_c, 0, 80, 0
1, 42970, Note_on_c, 1, 74, 0
1, 42996, Note_on_c, 0, 88, 70
1, 42996, Note_on_c, 1, 64, 70
1, 43008, Note_on_c, 0, 88, 0
1, 43008, Note_on_c, 0, 81, 70
1, 43008, Note_on_c, 1, 64, 0
1, 43008, Note_on_c, 1, 73, 70
1, 43018, Note_on_c, 0, 81, 0
1, 43044, Note_on_c, 0, 85, 70
1, 43053, Note_on_c, 1, 73, 0
1, 43056, Note_on_c, 0, 85, 0
1, 43056, Note_on_c, 0, 76, 70
1, 43066, Note_on_c, 0, 76, 0
1, 43092, Note_on_c, 0, 76, 70
1, 43104, Note_on_c, 0, 76, 0
1, 43104, Note_on_c, 0, 73, 70
1, 43104, Note_on_c, 1, 61, 70
1, 43104, Note_on_c, 1, 57, 70
1, 43114, Note_on_c, 0, 73, 0
1, 43124, Note_on_c, 1, 61, 0
1, 43124, Note_on_c, 1, 57, 0
1, 43140, Note_on_c, 0, 76, 70
1, 43152, Note_on_c, 0, 76, 0
1, 43152, Note_on_c, 0, 71, 70
1, 43152, Note_on_c, 1, 59, 70
1, 43152, Note_on_c, 1, 52, 70
1, 43162, Note_on_c, 0, 71, 0
1, 43172, Note_on_c, 1, 59, 0
1, 43172, Note_on_c, 1, 52, 0
1, 43188, Note_on_c, 0, 76, 70
1, 43200, Note_on_c, 0, 76, 0
1, 43200, Note_on_c, 0, 69, 70
1, 43200, Note_on_c, 1, 57, 70
1, 43200, Note_on_c, 1, 49, 70
1, 43210, Note_on_c, 0, 69, 0
1, 43236, Note_on_c, 0, 76, 70
1, 43245, Note_on_c, 1, 57, 0
1, 43245, Note_on_c, 1, 49, 0
1, 43248, Note_on_c, 0, 76, 0
1, 43248, Note_on_c, 0, 64, 70
1, 43258, Note_on_c, 0, 64, 0
1, 43284, Note_on_c, 0, 76, 64
1, 43296, Note_on_c, 0, 76, 0
1, 43296, Note_on_c, 0, 73, 64
1, 43296, Note_on_c, 1, 61, 64
1, 43296, Note_on_c, 1, 57, 64
1, 43306, Note_on_c, 0, 73, 0
1, 43316, Note_on_c, 1, 61, 0
1, 43316, Note_on_c, 1, 57, 0
1, 43332, Note_on_c, 0, 76, 64
1, 43344, Note_on_c, 0, 76, 0
1, 43344, Note_on_c, 0, 71, 64
1, 43344, Note_on_c, 1, 59, 64
1, 43344, Note_on_c, 1, 52, 64
1, 43354, Note_on_c, 0, 71, 0
1, 43364, Note_on_c, 1, 59, 0
1, 43364, Note_on_c, 1, 52, 0
1, 43380, Note_on_c, 0, 76, 64
1, 43392, Note_on_c, 0, 76, 0
1, 43392, Note_on_c, 0, 69, 64
1, 43392, Note_on_c, 1, 57, 64
1, 43392, Note_on_c, 1, 49, 64
1, 43402, Note_on_c, 0, 69, 0
1, 43428, Note_on_c, 0, 76, 64
1, 43437, Note_on_c, 1, 57, 0
1, 43437, Note_on_c, 1, 49, 0
1, 43440, Note_on_c, 0, 76, 0
1, 43440, Note_on_c, 0, 64, 64
1, 43450, Note_on_c, 0, 64, 0
1, 43476, Note_on_c, 0, 81, 70
1, 43488, Note_on_c, 0, 81, 0
1, 43488, Note_on_c, 0, 69, 70
1, 43498, Note_on_c, 0, 69, 0
1, 43524, Note_on_c, 0, 85, 70
1, 43536, Note_on_c, 0, 85, 0
1, 43536, Note_on_c, 0, 73, 70
1, 43546, Note_on_c, 0, 73, 0
1, 43572, Note_on_c, 0, 88, 70
1, 43584, Note_on_c, 0, 88, 0
1, 43584, Note_on_c, 0, 79, 70
1, 43584, Note_on_c, 1, 76, 70
1, 43584, Note_on_c, 1, 73, 70
1, 43594, Note_on_c, 0, 79, 0
1, 43620, Note_on_c, 0, 88, 70
1, 43632, Note_on_c, 0, 88, 0
1, 43632, Note_on_c, 0, 79, 70
1, 43642, Note_on_c, 0, 79, 0
1, 43668, Note_on_c, 0, 87, 70
1, 43680, Note_on_c, 0, 87, 0
1, 43680, Note_on_c, 0, 79, 70
1, 43680, Note_on_c, 1, 76, 0
1, 43680, Note_on_c, 1, 73, 0
1, 43680, Note_on_c, 1, 74, 70
1, 43680, Note_on_c, 1, 71, 70
1, 43690, Note_on_c, 0, 79, 0
1, 43716, Note_on_c, 0, 87, 70
1, 43728, Note_on_c, 0, 87, 0
1, 43728, Note_on_c, 0, 79, 70
1, 43738, Note_on_c, 0, 79, 0
1, 43764, Note_on_c, 0, 87, 70
1, 43769, Note_on_c, 1, 74, 0
1, 43769, Note_on_c, 1, 71, 0
1, 43776, Note_on_c, 0, 87, 0
1, 43776, Note_on_c, 0, 78, 70
1, 43776, Note_on_c, 1, 73, 70
1, 43776, Note_on_c, 1, 70, 70
1, 43786, Note_on_c, 0, 78, 0
1, 43812, Note_on_c, 0, 88, 71
1, 43821, Note_on_c, 1, 73, 0
1, 43821, Note_on_c, 1, 70, 0
1, 43824, Note_on_c, 0, 88, 0
1, 43824, Note_on_c, 0, 79, 71
1, 43824, Note_on_c, 1, 74, 72
1, 43824, Note_on_c, 1, 71, 72
1, 43834, Note_on_c, 0, 79, 0
1, 43860, Note_on_c, 0, 88, 72
1, 43869, Note_on_c, 1, 74, 0
1, 43869, Note_on_c, 1, 71, 0
1, 43872, Note_on_c, 0, 88, 0
1, 43872, Note_on_c, 0, 78, 73
1, 43872, Note_on_c, 1, 73, 74
1, 43872, Note_on_c, 1, 70, 74
1, 43882, Note_on_c, 0, 78, 0
1, 43908, Note_on_c, 0, 88, 74
1, 43917, Note_on_c, 1, 73, 0
1, 43917, Note_on_c, 1, 70, 0
1, 43920, Note_on_c, 0, 88, 0
1, 43920, Note_on_c, 0, 85, 75
1, 43920, Note_on_c, 1, 70, 76
1, 43920, Note_on_c, 1, 66, 76
1, 43955, Note_on_c, 0, 85, 0
1, 43956, Note_on_c, 0, 88, 76
1, 43965, Note_on_c, 1, 70, 0
1, 43965, Note_on_c, 1, 66, 0
1, 43968, Note_on_c, 0, 88, 0
1, 43968, Note_on_c, 0, 86, 76
1, 43968, Note_on_c, 1, 71, 78
1, 43991, Note_on_c, 1, 71, 0
1, 43992, Note_on_c, 1, 74, 70
1, 44015, Note_on_c, 1, 74, 0
1, 44016, Note_on_c, 1, 71, 70
1, 44039, Note_on_c, 1, 71, 0
1, 44040, Note_on_c, 1, 74, 70
1, 44057, Note_on_c, 0, 86, 0
1, 44063, Note_on_c, 1, 74, 0
1, 44064, Note_on_c, 0, 79, 80
1, 44064, Note_on_c, 1, 71, 70
1, 44087, Note_on_c, 1, 71, 0
1, 44088, Note_on_c, 1, 74, 70
1, 44111, Note_on_c, 1, 74, 0
1, 44112, Note_on_c, 1, 71, 70
1, 44131, Note_on_c, 0, 79, 0
1, 44135, Note_on_c, 1, 71, 0
1, 44136, Note_on_c, 0, 81, 80
1, 44136, Note_on_c, 1, 74, 70
1, 44148, Note_on_c, 0, 81, 0
1, 44148, Note_on_c, 0, 79, 80
1, 44159, Note_on_c, 1, 74, 0
1, 44160, Note_on_c, 0, 79, 0
1, 44160, Note_on_c, 0, 78, 80
1, 44160, Note_on_c, 1, 70, 70
1, 44183, Note_on_c, 1, 70, 0
1, 44184, Note_on_c, 1, 73, 70
1, 44207, Note_on_c, 1, 73, 0
1, 44208, Note_on_c, 1, 70, 70
1, 44231, Note_on_c, 1, 70, 0
1, 44232, Note_on_c, 1, 73, 70
1, 44249, Note_on_c, 0, 78, 0
1, 44255, Note_on_c, 1, 73, 0
1, 44256, Note_on_c, 0, 77, 80
1, 44256, Note_on_c, 1, 71, 70
1, 44279, Note_on_c, 1, 71, 0
1, 44280, Note_on_c, 1, 74, 70
1, 44303, Note_on_c, 1, 74, 0
1, 44304, Note_on_c, 1, 71, 70
1, 44327, Note_on_c, 1, 71, 0
1, 44328, Note_on_c, 1, 74, 70
1, 44345, Note_on_c, 0, 77, 0
1, 44351, Note_on_c, 1, 74, 0
1, 44352, Note_on_c, 0, 78, 80
1, 44352, Note_on_c, 1, 70, 70
1, 44375, Note_on_c, 1, 70, 0
1, 44376, Note_on_c, 1, 73, 70
1, 44399, Note_on_c, 1, 73, 0
1, 44400, Note_on_c, 1, 70, 70
1, 44423, Note_on_c, 1, 70, 0
1, 44424, Note_on_c, 1, 73, 70
1, 44441, Note_on_c, 0, 78, 0
1, 44447, Note_on_c, 1, 73, 0
1, 44448, Note_on_c, 0, 86, 70
1, 44448, Note_on_c, 1, 71, 80
1, 44471, Note_on_c, 0, 86, 0
1, 44472, Note_on_c, 0, 79, 70
1, 44495, Note_on_c, 0, 79, 0
1, 44496, Note_on_c, 0, 86, 70
1, 44515, Note_on_c, 1, 71, 0
1, 44519, Note_on_c, 0, 86, 0
1, 44520, Note_on_c, 0, 79, 70
1, 44520, Note_on_c, 1, 73, 80
1, 44532, Note_on_c, 1, 73, 0
1, 44532, Note_on_c, 1, 71, 80
1, 44543, Note_on_c, 0, 79, 0
1, 44544, Note_on_c, 0, 85, 70
1, 44544, Note_on_c, 1, 71, 0
1, 44544, Note_on_c, 1, 70, 80
1, 44567, Note_on_c, 0, 85, 0
1, 44568, Note_on_c, 0, 79, 70
1, 44591, Note_on_c, 0, 79, 0
1, 44592, Note_on_c, 0, 85, 70
1, 44615, Note_on_c, 0, 85, 0
1, 44616, Note_on_c, 0, 79, 70
1, 44633, Note_on_c, 1, 70, 0
1, 44639, Note_on_c, 0, 79, 0
1, 44640, Note_on_c, 0, 84, 70
1, 44640, Note_on_c, 1, 69, 96
1, 44663, Note_on_c, 0, 84, 0
1, 44664, Note_on_c, 0, 78, 70
1, 44687, Note_on_c, 0, 78, 0
1, 44688, Note_on_c, 0, 84, 70
1, 44711, Note_on_c, 0, 84, 0
1, 44712, Note_on_c, 0, 78, 70
1, 44735, Note_on_c, 0, 78, 0
1, 44736, Note_on_c, 0, 83, 70
1, 44736, Note_on_c, 1, 69, 0
1, 44736, Note_on_c, 1, 68, 80
1, 44759, Note_on_c, 0, 83, 0
1, 44760, Note_on_c, 0, 78, 70
1, 44783, Note_on_c, 0, 78, 0
1, 44784, Note_on_c, 0, 83, 70
1, 44807, Note_on_c, 0, 83, 0
1, 44808, Note_on_c, 0, 78, 70
1, 44825, Note_on_c, 1, 68, 0
1, 44831, Note_on_c, 0, 78, 0
1, 44832, Note_on_c, 0, 83, 70
1, 44832, Note_on_c, 1, 67, 96
1, 44855, Note_on_c, 0, 83, 0
1, 44856, Note_on_c, 0, 76, 70
1, 44879, Note_on_c, 0, 76, 0
1, 44880, Note_on_c, 0, 83, 70
1, 44903, Note_on_c, 0, 83, 0
1, 44904, Note_on_c, 0, 76, 70
1, 44904, Note_on_c, 1, 67, 0
1, 44904, Note_on_c, 1, 69, 80
1, 44916, Note_on_c, 1, 69, 0
1, 44916, Note_on_c, 1, 67, 80
1, 44927, Note_on_c, 0, 76, 0
1, 44928, Note_on_c, 0, 82, 70
1, 44928, Note_on_c, 1, 67, 0
1, 44928, Note_on_c, 1, 66, 80
1, 44951, Note_on_c, 0, 82, 0
1, 44952, Note_on_c, 0, 76, 70
1, 44975, Note_on_c, 0, 76, 0
1, 44976, Note_on_c, 0, 82, 70
1, 44999, Note_on_c, 0, 82, 0
1, 45000, Note_on_c, 0, 76, 70
1, 45023, Note_on_c, 0, 76, 0
1, 45024, Note_on_c, 0, 82, 70
1, 45047, Note_on_c, 0, 82, 0
1, 45048, Note_on_c, 0, 76, 70
1, 45071, Note_on_c, 0, 76, 0
1, 45072, Note_on_c, 0, 83, 86
1, 45072, Note_on_c, 1, 66, 0
1, 45072, Note_on_c, 1, 67, 96
1, 45096, Note_on_c, 0, 83, 0
1, 45096, Note_on_c, 0, 76, 70
1, 45119, Note_on_c, 0, 76, 0
1, 45120, Note_on_c, 0, 82, 70
1, 45120, Note_on_c, 1, 67, 0
1, 45120, Note_on_c, 1, 66, 80
1, 45143, Note_on_c, 0, 82, 0
1, 45144, Note_on_c, 0, 76, 70
1, 45167, Note_on_c, 0, 76, 0
1, 45168, Note_on_c, 0, 82, 70
1, 45191, Note_on_c, 0, 82, 0
1, 45192, Note_on_c, 0, 76, 70
1, 45215, Note_on_c, 0, 76, 0
1, 45216, Note_on_c, 0, 82, 70
1, 45239, Note_on_c, 0, 82, 0
1, 45240, Note_on_c, 0, 76, 70
1, 45263, Note_on_c, 0, 76, 0
1, 45264, Note_on_c, 0, 83, 86
1, 45264, Note_on_c, 1, 66, 0
1, 45264, Note_on_c, 1, 67, 96
1, 45288, Note_on_c, 0, 83, 0
1, 45288, Note_on_c, 0, 76, 70
1, 45311, Note_on_c, 0, 76, 0
1, 45312, Note_on_c, 0, 82, 80
1, 45312, Note_on_c, 1, 67, 0
1, 45312, Note_on_c, 1, 66, 80
1, 45335, Note_on_c, 0, 82, 0
1, 45336, Note_on_c, 0, 76, 78
1, 45359, Note_on_c, 0, 76, 0
1, 45360, Note_on_c, 0, 82, 77
1, 45383, Note_on_c, 0, 82, 0
1, 45384, Note_on_c, 0, 76, 76
1, 45407, Note_on_c, 0, 76, 0
1, 45408, Note_on_c, 0, 82, 75
1, 45431, Note_on_c, 0, 82, 0
1, 45432, Note_on_c, 0, 76, 74
1, 45455, Note_on_c, 0, 76, 0
1, 45456, Note_on_c, 0, 82, 73
1, 45479, Note_on_c, 0, 82, 0
1, 45480, Note_on_c, 0, 76, 72
1, 45503, Note_on_c, 0, 76, 0
1, 45504, Note_on_c, 0, 81, 71
1, 45504, Note_on_c, 1, 66, 0
1, 45504, Note_on_c, 1, 65, 75
1, 45527, Note_on_c, 0, 81, 0
1, 45528, Note_on_c, 0, 75, 70
1, 45551, Note_on_c, 0, 75, 0
1, 45552, Note_on_c, 0, 81, 70
1, 45575, Note_on_c, 0, 81, 0
1, 45576, Note_on_c, 0, 75, 70
1, 45599, Note_on_c, 0, 75, 0
1, 45600, Note_on_c, 0, 81, 70
1, 45623, Note_on_c, 0, 81, 0
1, 45624, Note_on_c, 0, 75, 70
1, 45647, Note_on_c, 0, 75, 0
1, 45648, Note_on_c, 0, 81, 70
1, 45671, Note_on_c, 0, 81, 0
1, 45672, Note_on_c, 0, 75, 70
1, 45681, Note_on_c, 1, 65, 0
1, 45695, Note_on_c, 0, 75, 0
1, 45696, Note_on_c, 0, 80, 70
1, 45696, Note_on_c, 1, 65, 70
1, 45696, Note_on_c, 1, 58, 70
1, 45719, Note_on_c, 0, 80, 0
1, 45720, Note_on_c, 0, 74, 70
1, 45743, Note_on_c, 0, 74, 0
1, 45744, Note_on_c, 0, 80, 70
1, 45767, Note_on_c, 0, 80, 0
1, 45768, Note_on_c, 0, 74, 70
1, 45791, Note_on_c, 0, 74, 0
1, 45792, Note_on_c, 0, 80, 70
1, 45815, Note_on_c, 0, 80, 0
1, 45816, Note_on_c, 0, 74, 70
1, 45839, Note_on_c, 0, 74, 0
1, 45840, Note_on_c, 0, 80, 86
1, 45840, Note_on_c, 1, 58, 0
1, 45840, Note_on_c, 1, 59, 86
1, 45864, Note_on_c, 0, 80, 0
1, 45864, Note_on_c, 0, 75, 70
1, 45873, Note_on_c, 1, 65, 0
1, 45887, Note_on_c, 0, 75, 0
1, 45888, Note_on_c, 0, 80, 70
1, 45888, Note_on_c, 1, 65, 70
1, 45888, Note_on_c, 1, 59, 0
1, 45888, Note_on_c, 1, 58, 70
1, 45911, Note_on_c, 0, 80, 0
1, 45912, Note_on_c, 0, 74, 70
1, 45935, Note_on_c, 0, 74, 0
1, 45936, Note_on_c, 0, 80, 70
1, 45959, Note_on_c, 0, 80, 0
1, 45960, Note_on_c, 0, 74, 70
1, 45983, Note_on_c, 0, 74, 0
1, 45984, Note_on_c, 0, 80, 70
1, 46007, Note_on_c, 0, 80, 0
1, 46008, Note_on_c, 0, 74, 70
1, 46031, Note_on_c, 0, 74, 0
1, 46032, Note_on_c, 0, 80, 86
1, 46032, Note_on_c, 1, 58, 0
1, 46032, Note_on_c, 1, 59, 86
1, 46056, Note_on_c, 0, 80, 0
1, 46056, Note_on_c, 0, 75, 70
1, 46065, Note_on_c, 1, 65, 0
1, 46079, Note_on_c, 0, 75, 0
1, 46080, Note_on_c, 0, 80, 70
1, 46080, Note_on_c, 1, 65, 70
1, 46080, Note_on_c, 1, 62, 70
1, 46080, Note_on_c, 1, 59, 0
1, 46103, Note_on_c, 0, 80, 0
1, 46104, Note_on_c, 0, 74, 70
1, 46127, Note_on_c, 0, 74, 0
1, 46128, Note_on_c, 0, 77, 71
1, 46151, Note_on_c, 0, 77, 0
1, 46152, Note_on_c, 0, 68, 72
1, 46175, Note_on_c, 0, 68, 0
1, 46176, Note_on_c, 0, 72, 73
1, 46199, Note_on_c, 0, 72, 0
1, 46200, Note_on_c, 0, 65, 73
1, 46223, Note_on_c, 0, 65, 0
1, 46224, Note_on_c, 0, 68, 74
1, 46247, Note_on_c, 0, 68, 0
1, 46248, Note_on_c, 0, 62, 75
1, 46257, Note_on_c, 1, 65, 0
1, 46257, Note_on_c, 1, 62, 0
1, 46271, Note_on_c, 0, 62, 0
1, 46272, Note_on_c, 0, 65, 76
1, 46295, Note_on_c, 0, 65, 0
1, 46296, Note_on_c, 0, 56, 76
1, 46319, Note_on_c, 0, 56, 0
1, 46320, Note_on_c, 0, 60, 77
1, 46343, Note_on_c, 0, 60, 0
1, 46344, Note_on_c, 0, 53, 78
1, 46367, Note_on_c, 0, 53, 0
1, 46368, Note_on_c, 0, 56, 79
1, 46391, Note_on_c, 0, 56, 0
1, 46392, Note_on_c, 1, 46, 80
1, 46415, Note_on_c, 1, 46, 0
1, 46416, Note_on_c, 1, 48, 80
1, 46439, Note_on_c, 1, 48, 0
1, 46440, Note_on_c, 1, 50, 80
1, 46463, Note_on_c, 1, 50, 0
1, 46464, Note_on_c, 0, 55, 80
1, 46464, Note_on_c, 1, 39, 80
1, 46470, Note_on_c, 1, 43, 80
1, 46472, Note_on_c, 0, 58, 80
1, 46476, Note_on_c, 1, 46, 80
1, 46480, Note_on_c, 0, 63, 80
1, 46482, Note_on_c, 1, 51, 80
1, 46557, Note_on_c, 0, 63, 0
1, 46557, Note_on_c, 0, 58, 0
1, 46557, Note_on_c, 0, 55, 0
1, 46557, Note_on_c, 1, 51, 0
1, 46557, Note_on_c, 1, 46, 0
1, 46557, Note_on_c, 1, 43, 0
1, 46557, Note_on_c, 1, 39, 0
1, 46560, Note_on_c, 0, 67, 80
1, 46560, Note_on_c, 0, 63, 80
1, 46560, Note_on_c, 0, 61, 80
1, 46560, Note_on_c, 1, 49, 80
1, 46560, Note_on_c, 1, 46, 80
1, 46560, Note_on_c, 1, 43, 80
1, 46560, Note_on_c, 1, 39, 80
1, 46627, Note_on_c, 0, 67, 0
1, 46627, Note_on_c, 0, 63, 0
1, 46627, Note_on_c, 0, 61, 0
1, 46627, Note_on_c, 1, 49, 0
1, 46627, Note_on_c, 1, 46, 0
1, 46627, Note_on_c, 1, 43, 0
1, 46627, Note_on_c, 1, 39, 0
1, 46632, Note_on_c, 0, 67, 80
1, 46632, Note_on_c, 0, 63, 80
1, 46632, Note_on_c, 0, 61, 80
1, 46632, Note_on_c, 1, 49, 80
1, 46632, Note_on_c, 1, 46, 80
1, 46632, Note_on_c, 1, 43, 80
1, 46632, Note_on_c, 1, 39, 80
1, 46655, Note_on_c, 0, 67, 0
1, 46655, Note_on_c, 0, 63, 0
1, 46655, Note_on_c, 0, 61, 0
1, 46655, Note_on_c, 1, 49, 0
1, 46655, Note_on_c, 1, 46, 0
1, 46655, Note_on_c, 1, 43, 0
1, 46655, Note_on_c, 1, 39, 0
1, 46656, Note_on_c, 0, 56, 80
1, 46656, Note_on_c, 1, 39, 80
1, 46662, Note_on_c, 0, 60, 80
1, 46662, Note_on_c, 1, 44, 80
1, 46668, Note_on_c, 0, 63, 80
1, 46668, Note_on_c, 1, 48, 80
1, 46674, Note_on_c, 0, 68, 80
1, 46674, Note_on_c, 1, 51, 80
1, 46793, Note_on_c, 0, 68, 0
1, 46793, Note_on_c, 0, 63, 0
1, 46793, Note_on_c, 0, 60, 0
1, 46793, Note_on_c, 0, 56, 0
1, 46800, Note_on_c, 0, 68, 80
1, 46812, Note_on_c, 0, 68, 0
1, 46812, Note_on_c, 0, 67, 80
1, 46824, Note_on_c, 0, 67, 0
1, 46824, Note_on_c, 0, 65, 80
1, 46836, Note_on_c, 0, 65, 0
1, 46836, Note_on_c, 0, 63, 80
1, 46837, Note_on_c, 1, 51, 0
1, 46837, Note_on_c, 1, 48, 0
1, 46837, Note_on_c, 1, 44, 0
1, 46837, Note_on_c, 1, 39, 0
1, 46848, Note_on_c, 0, 63, 0
1, 46848, Note_on_c, 0, 56, 80
1, 46848, Note_on_c, 0, 58, 80
1, 46848, Note_on_c, 0, 62, 80
1, 46848, Note_on_c, 1, 39, 80
1, 46854, Note_on_c, 1, 41, 80
1, 46860, Note_on_c, 1, 44, 80
1, 46866, Note_on_c, 1, 50, 80
1, 46915, Note_on_c, 0, 62, 0
1, 46915, Note_on_c, 0, 58, 0
1, 46915, Note_on_c, 0, 56, 0
1, 46920, Note_on_c, 0, 65, 80
1, 46941, Note_on_c, 1, 50, 0
1, 46941, Note_on_c, 1, 44, 0
1, 46941, Note_on_c, 1, 41, 0
1, 46941, Note_on_c, 1, 39, 0
1, 46943, Note_on_c, 0, 65, 0
1, 46944, Note_on_c, 0, 62, 80
1, 46944, Note_on_c, 1, 39, 80
1, 46950, Note_on_c, 1, 41, 80
1, 46952, Note_on_c, 0, 65, 80
1, 46956, Note_on_c, 1, 44, 80
1, 46960, Note_on_c, 0, 70, 80
1, 46962, Note_on_c, 1, 50, 80
1, 47015, Note_on_c, 0, 70, 0
1, 47015, Note_on_c, 0, 65, 0
1, 47015, Note_on_c, 0, 62, 0
1, 47016, Note_on_c, 0, 68, 80
1, 47037, Note_on_c, 1, 50, 0
1, 47037, Note_on_c, 1, 44, 0
1, 47037, Note_on_c, 1, 41, 0
1, 47037, Note_on_c, 1, 39, 0
1, 47039, Note_on_c, 0, 68, 0
1, 47040, Note_on_c, 0, 58, 80
1, 47040, Note_on_c, 1, 39, 80
1, 47046, Note_on_c, 1, 43, 80
1, 47048, Note_on_c, 0, 63, 80
1, 47052, Note_on_c, 1, 46, 80
1, 47056, Note_on_c, 0, 67, 80
1, 47058, Note_on_c, 1, 51, 80
1, 47155, Note_on_c, 0, 67, 0
1, 47155, Note_on_c, 0, 63, 0
1, 47155, Note_on_c, 0, 58, 0
1, 47155, Note_on_c, 1, 51, 0
1, 47155, Note_on_c, 1, 46, 0
1, 47155, Note_on_c, 1, 43, 0
1, 47155, Note_on_c, 1, 39, 0
1, 47232, Note_on_c, 0, 74, 64
1, 47232, Note_on_c, 1, 68, 64
1, 47232, Note_on_c, 1, 65, 64
1, 47232, Note_on_c, 1, 58, 64
1, 47279, Note_on_c, 1, 68, 0
1, 47279, Note_on_c, 1, 65, 0
1, 47279, Note_on_c, 1, 58, 0
1, 47299, Note_on_c, 0, 74, 0
1, 47304, Note_on_c, 0, 77, 64
1, 47327, Note_on_c, 0, 77, 0
1, 47328, Note_on_c, 0, 82, 64
1, 47328, Note_on_c, 1, 68, 64
1, 47328, Note_on_c, 1, 65, 64
1, 47328, Note_on_c, 1, 58, 64
1, 47375, Note_on_c, 1, 68, 0
1, 47375, Note_on_c, 1, 65, 0
1, 47375, Note_on_c, 1, 58, 0
1, 47395, Note_on_c, 0, 82, 0
1, 47400, Note_on_c, 0, 80, 64
1, 47400, Note_on_c, 1, 62, 64
1, 47423, Note_on_c, 0, 80, 0
1, 47424, Note_on_c, 0, 79, 64
1, 47424, Note_on_c, 1, 62, 0
1, 47424, Note_on_c, 1, 63, 64
1, 47469, Note_on_c, 0, 79, 0
1, 47469, Note_on_c, 1, 63, 0
1, 47544, Note_on_c, 0, 84, 64
1, 47544, Note_on_c, 0, 80, 64
1, 47544, Note_on_c, 1, 58, 64
1, 47567, Note_on_c, 0, 84, 0
1, 47567, Note_on_c, 0, 80, 0
1, 47567, Note_on_c, 1, 58, 0
1, 47568, Note_on_c, 0, 82, 64
1, 47568, Note_on_c, 0, 79, 64
1, 47568, Note_on_c, 1, 60, 64
1, 47591, Note_on_c, 0, 82, 0
1, 47591, Note_on_c, 0, 79, 0
1, 47591, Note_on_c, 1, 60, 0
1, 47592, Note_on_c, 0, 80, 64
1, 47592, Note_on_c, 0, 77, 64
1, 47592, Note_on_c, 1, 62, 64
1, 47615, Note_on_c, 0, 80, 0
1, 47615, Note_on_c, 0, 77, 0
1, 47615, Note_on_c, 1, 62, 0
1, 47616, Note_on_c, 0, 79, 64
1, 47616, Note_on_c, 0, 75, 64
1, 47616, Note_on_c, 1, 63, 64
1, 47636, Note_on_c, 0, 79, 0
1, 47636, Note_on_c, 0, 75, 0
1, 47636, Note_on_c, 1, 63, 0
1, 47736, Note_on_c, 0, 84, 75
1, 47736, Note_on_c, 0, 80, 75
1, 47736, Note_on_c, 1, 58, 75
1, 47759, Note_on_c, 0, 84, 0
1, 47759, Note_on_c, 0, 80, 0
1, 47759, Note_on_c, 1, 58, 0
1, 47760, Note_on_c, 0, 82, 75
1, 47760, Note_on_c, 0, 79, 75
1, 47760, Note_on_c, 1, 60, 75
1, 47783, Note_on_c, 0, 82, 0
1, 47783, Note_on_c, 0, 79, 0
1, 47783, Note_on_c, 1, 60, 0
1, 47784, Note_on_c, 0, 80, 75
1, 47784, Note_on_c, 0, 77, 75
1, 47784, Note_on_c, 1, 62, 75
1, 47807, Note_on_c, 0, 80, 0
1, 47807, Note_on_c, 0, 77, 0
1, 47807, Note_on_c, 1, 62, 0
1, 47808, Note_on_c, 0, 79, 75
1, 47808, Note_on_c, 0, 75, 75
1, 47808, Note_on_c, 1, 63, 75
1, 47828, Note_on_c, 0, 79, 0
1, 47828, Note_on_c, 0, 75, 0
1, 47828, Note_on_c, 1, 63, 0
1, 47928, Note_on_c, 0, 84, 80
1, 47928, Note_on_c, 0, 80, 80
1, 47951, Note_on_c, 0, 84, 0
1, 47951, Note_on_c, 0, 80, 0
1, 47952, Note_on_c, 0, 82, 80
1, 47952, Note_on_c, 0, 79, 80
1, 47975, Note_on_c, 0, 82, 0
1, 47975, Note_on_c, 0, 79, 0
1, 47976, Note_on_c, 0, 80, 80
1, 47976, Note_on_c, 0, 77, 80
1, 47999, Note_on_c, 0, 80, 0
1, 47999, Note_on_c, 0, 77, 0
1, 48000, Note_on_c, 0, 79, 80
1, 48000, Note_on_c, 0, 75, 80
1, 48010, Note_on_c, 0, 79, 0
1, 48010, Note_on_c, 0, 75, 0
1, 48024, Note_on_c, 0, 84, 80
1, 48024, Note_on_c, 0, 80, 80
1, 48047, Note_on_c, 0, 84, 0
1, 48047, Note_on_c, 0, 80, 0
1, 48048, Note_on_c, 0, 82, 80
1, 48048, Note_on_c, 0, 79, 80
1, 48071, Note_on_c, 0, 82, 0
1, 48071, Note_on_c, 0, 79, 0
1, 48072, Note_on_c, 0, 80, 80
1, 48072, Note_on_c, 0, 77, 80
1, 48095, Note_on_c, 0, 80, 0
1, 48095, Note_on_c, 0, 77, 0
1, 48096, Note_on_c, 0, 79, 80
1, 48096, Note_on_c, 0, 75, 80
1, 48106, Note_on_c, 0, 79, 0
1, 48106, Note_on_c, 0, 75, 0
1, 48120, Note_on_c, 0, 82, 78
1, 48120, Note_on_c, 0, 79, 78
1, 48143, Note_on_c, 0, 82, 0
1, 48143, Note_on_c, 0, 79, 0
1, 48144, Note_on_c, 0, 80, 77
1, 48144, Note_on_c, 0, 77, 77
1, 48167, Note_on_c, 0, 80, 0
1, 48167, Note_on_c, 0, 77, 0
1, 48168, Note_on_c, 0, 79, 76
1, 48168, Note_on_c, 0, 75, 76
1, 48191, Note_on_c, 0, 79, 0
1, 48191, Note_on_c, 0, 75, 0
1, 48192, Note_on_c, 0, 77, 74
1, 48192, Note_on_c, 0, 74, 74
1, 48215, Note_on_c, 0, 77, 0
1, 48215, Note_on_c, 0, 74, 0
1, 48216, Note_on_c, 0, 75, 73
1, 48216, Note_on_c, 0, 72, 73
1, 48239, Note_on_c, 0, 75, 0
1, 48239, Note_on_c, 0, 72, 0
1, 48240, Note_on_c, 0, 74, 72
1, 48240, Note_on_c, 0, 70, 72
1, 48263, Note_on_c, 0, 74, 0
1, 48263, Note_on_c, 0, 70, 0
1, 48264, Note_on_c, 0, 72, 70
1, 48264, Note_on_c, 0, 68, 70
1, 48287, Note_on_c, 0, 72, 0
1, 48287, Note_on_c, 0, 68, 0
1, 48288, Note_on_c, 0, 70, 69
1, 48288, Note_on_c, 0, 67, 69
1, 48311, Note_on_c, 0, 70, 0
1, 48311, Note_on_c, 0, 67, 0
1, 48312, Note_on_c, 0, 68, 68
1, 48312, Note_on_c, 0, 65, 68
1, 48335, Note_on_c, 0, 68, 0
1, 48335, Note_on_c, 0, 65, 0
1, 48336, Note_on_c, 0, 67, 66
1, 48336, Note_on_c, 0, 63, 66
1, 48359, Note_on_c, 0, 67, 0
1, 48359, Note_on_c, 0, 63, 0
1, 48360, Note_on_c, 0, 65, 65
1, 48360, Note_on_c, 0, 62, 65
1, 48383, Note_on_c, 0, 65, 0
1, 48383, Note_on_c, 0, 62, 0
1, 48384, Note_on_c, 0, 63, 86
1, 48384, Note_on_c, 1, 48, 64
1, 48408, Note_on_c, 1, 48, 0
1, 48408, Note_on_c, 1, 56, 64
1, 48431, Note_on_c, 1, 56, 0
1, 48432, Note_on_c, 1, 48, 64
1, 48456, Note_on_c, 1, 48, 0
1, 48456, Note_on_c, 1, 56, 64
1, 48479, Note_on_c, 1, 56, 0
1, 48480, Note_on_c, 1, 48, 64
1, 48504, Note_on_c, 1, 48, 0
1, 48504, Note_on_c, 1, 56, 64
1, 48527, Note_on_c, 1, 56, 0
1, 48528, Note_on_c, 1, 48, 64
1, 48547, Note_on_c, 0, 63, 0
1, 48552, Note_on_c, 0, 65, 70
1, 48552, Note_on_c, 1, 48, 0
1, 48552, Note_on_c, 1, 56, 64
1, 48564, Note_on_c, 0, 65, 0
1, 48564, Note_on_c, 0, 63, 70
1, 48575, Note_on_c, 1, 56, 0
1, 48576, Note_on_c, 0, 63, 0
1, 48576, Note_on_c, 0, 62, 70
1, 48576, Note_on_c, 1, 46, 64
1, 48600, Note_on_c, 1, 46, 0
1, 48600, Note_on_c, 1, 56, 64
1, 48623, Note_on_c, 1, 56, 0
1, 48624, Note_on_c, 1, 46, 64
1, 48648, Note_on_c, 1, 46, 0
1, 48648, Note_on_c, 1, 56, 64
1, 48671, Note_on_c, 1, 56, 0
1, 48672, Note_on_c, 0, 62, 0
1, 48672, Note_on_c, 0, 61, 86
1, 48672, Note_on_c, 1, 46, 64
1, 48696, Note_on_c, 1, 46, 0
1, 48696, Note_on_c, 1, 55, 64
1, 48719, Note_on_c, 1, 55, 0
1, 48720, Note_on_c, 1, 46, 64
1, 48744, Note_on_c, 1, 46, 0
1, 48744, Note_on_c, 1, 55, 64
1, 48767, Note_on_c, 1, 55, 0
1, 48768, Note_on_c, 0, 61, 0
1, 48768, Note_on_c, 0, 60, 86
1, 48768, Note_on_c, 1, 44, 64
1, 48792, Note_on_c, 1, 44, 0
1, 48792, Note_on_c, 1, 55, 64
1, 48815, Note_on_c, 1, 55, 0
1, 48816, Note_on_c, 1, 44, 64
1, 48840, Note_on_c, 1, 44, 0
1, 48840, Note_on_c, 1, 55, 64
1, 48863, Note_on_c, 1, 55, 0
1, 48864, Note_on_c, 1, 44, 64
1, 48888, Note_on_c, 1, 44, 0
1, 48888, Note_on_c, 1, 53, 64
1, 48911, Note_on_c, 1, 53, 0
1, 48912, Note_on_c, 1, 44, 64
1, 48931, Note_on_c, 0, 60, 0
1, 48936, Note_on_c, 0, 62, 70
1, 48936, Note_on_c, 1, 44, 0
1, 48936, Note_on_c, 1, 53, 64
1, 48948, Note_on_c, 0, 62, 0
1, 48948, Note_on_c, 0, 60, 70
1, 48959, Note_on_c, 1, 53, 0
1, 48960, Note_on_c, 0, 60, 0
1, 48960, Note_on_c, 0, 58, 86
1, 48960, Note_on_c, 1, 43, 64
1, 48984, Note_on_c, 1, 43, 0
1, 48984, Note_on_c, 1, 53, 64
1, 49007, Note_on_c, 1, 53, 0
1, 49008, Note_on_c, 1, 43, 64
1, 49032, Note_on_c, 0, 58, 0
1, 49032, Note_on_c, 0, 60, 70
1, 49032, Note_on_c, 1, 43, 0
1, 49032, Note_on_c, 1, 53, 64
1, 49044, Note_on_c, 0, 60, 0
1, 49044, Note_on_c, 0, 62, 70
1, 49055, Note_on_c, 1, 53, 0
1, 49056, Note_on_c, 0, 62, 0
1, 49056, Note_on_c, 0, 63, 70
1, 49056, Note_on_c, 1, 43, 64
1, 49080, Note_on_c, 1, 43, 0
1, 49080, Note_on_c, 1, 51, 64
1, 49103, Note_on_c, 1, 51, 0
1, 49104, Note_on_c, 1, 43, 64
1, 49123, Note_on_c, 0, 63, 0
1, 49128, Note_on_c, 0, 65, 70
1, 49128, Note_on_c, 1, 43, 0
1, 49128, Note_on_c, 1, 51, 64
1, 49140, Note_on_c, 0, 65, 0
1, 49140, Note_on_c, 0, 67, 70
1, 49151, Note_on_c, 1, 51, 0
1, 49152, Note_on_c, 0, 67, 0
1, 49152, Note_on_c, 0, 68, 86
1, 49152, Note_on_c, 1, 41, 64
1, 49176, Note_on_c, 1, 41, 0
1, 49176, Note_on_c, 1, 50, 64
1, 49199, Note_on_c, 1, 50, 0
1, 49200, Note_on_c, 1, 41, 64
1, 49224, Note_on_c, 1, 41, 0
1, 49224, Note_on_c, 1, 50, 64
1, 49247, Note_on_c, 1, 50, 0
1, 49248, Note_on_c, 0, 68, 0
1, 49248, Note_on_c, 0, 67, 70
1, 49248, Note_on_c, 1, 39, 64
1, 49271, Note_on_c, 1, 39, 0
1, 49272, Note_on_c, 1, 43, 64
1, 49295, Note_on_c, 1, 43, 0
1, 49296, Note_on_c, 1, 46, 64
1, 49319, Note_on_c, 1, 46, 0
1, 49320, Note_on_c, 1, 51, 64
1, 49337, Note_on_c, 0, 67, 0
1, 49343, Note_on_c, 1, 51, 0
1, 49344, Note_on_c, 0, 65, 70
1, 49344, Note_on_c, 1, 46, 64
1, 49367, Note_on_c, 0, 65, 0
1, 49368, Note_on_c, 0, 70, 70
1, 49391, Note_on_c, 0, 70, 0
1, 49392, Note_on_c, 0, 69, 70
1, 49415, Note_on_c, 0, 69, 0
1, 49416, Note_on_c, 0, 72, 70
1, 49433, Note_on_c, 1, 46, 0
1, 49439, Note_on_c, 0, 72, 0
1, 49440, Note_on_c, 0, 70, 70
1, 49463, Note_on_c, 0, 70, 0
1, 49464, Note_on_c, 0, 74, 70
1, 49464, Note_on_c, 1, 58, 64
1, 49487, Note_on_c, 0, 74, 0
1, 49487, Note_on_c, 1, 58, 0
1, 49488, Note_on_c, 0, 72, 70
1, 49488, Note_on_c, 1, 57, 64
1, 49511, Note_on_c, 0, 72, 0
1, 49511, Note_on_c, 1, 57, 0
1, 49512, Note_on_c, 0, 75, 70
1, 49512, Note_on_c, 1, 60, 64
1, 49535, Note_on_c, 0, 75, 0
1, 49535, Note_on_c, 1, 60, 0
1, 49536, Note_on_c, 0, 74, 70
1, 49536, Note_on_c, 1, 58, 64
1, 49559, Note_on_c, 0, 74, 0
1, 49559, Note_on_c, 1, 58, 0
1, 49560, Note_on_c, 0, 77, 70
1, 49560, Note_on_c, 1, 62, 64
1, 49583, Note_on_c, 0, 77, 0
1, 49583, Note_on_c, 1, 62, 0
1, 49584, Note_on_c, 0, 76, 70
1, 49584, Note_on_c, 1, 60, 64
1, 49607, Note_on_c, 0, 76, 0
1, 49607, Note_on_c, 1, 60, 0
1, 49608, Note_on_c, 0, 79, 70
1, 49608, Note_on_c, 1, 63, 65
1, 49631, Note_on_c, 0, 79, 0
1, 49631, Note_on_c, 1, 63, 0
1, 49632, Note_on_c, 0, 77, 70
1, 49632, Note_on_c, 1, 62, 65
1, 49655, Note_on_c, 0, 77, 0
1, 49655, Note_on_c, 1, 62, 0
1, 49656, Note_on_c, 0, 80, 71
1, 49656, Note_on_c, 1, 65, 66
1, 49679, Note_on_c, 0, 80, 0
1, 49679, Note_on_c, 1, 65, 0
1, 49680, Note_on_c, 0, 79, 71
1, 49680, Note_on_c, 1, 64, 66
1, 49703, Note_on_c, 0, 79, 0
1, 49703, Note_on_c, 1, 64, 0
1, 49704, Note_on_c, 0, 82, 71
1, 49704, Note_on_c, 1, 67, 67
1, 49727, Note_on_c, 0, 82, 0
1, 49727, Note_on_c, 1, 67, 0
1, 49728, Note_on_c, 0, 80, 71
1, 49728, Note_on_c, 1, 65, 67
1, 49751, Note_on_c, 0, 80, 0
1, 49752, Note_on_c, 0, 79, 72
1, 49775, Note_on_c, 0, 79, 0
1, 49776, Note_on_c, 0, 77, 72
1, 49799, Note_on_c, 0, 77, 0
1, 49800, Note_on_c, 0, 75, 72
1, 49823, Note_on_c, 0, 75, 0
1, 49824, Note_on_c, 0, 74, 72
1, 49847, Note_on_c, 0, 74, 0
1, 49848, Note_on_c, 0, 84, 73
1, 49871, Note_on_c, 0, 84, 0
1, 49872, Note_on_c, 0, 82, 73
1, 49895, Note_on_c, 0, 82, 0
1, 49896, Note_on_c, 0, 80, 73
1, 49905, Note_on_c, 1, 65, 0
1, 49919, Note_on_c, 0, 80, 0
1, 49920, Note_on_c, 0, 79, 73
1, 49920, Note_on_c, 1, 67, 71
1, 49920, Note_on_c, 1, 63, 71
1, 49943, Note_on_c, 0, 79, 0
1, 49944, Note_on_c, 0, 80, 74
1, 49967, Note_on_c, 0, 80, 0
1, 49968, Note_on_c, 0, 82, 74
1, 49991, Note_on_c, 0, 82, 0
1, 49992, Note_on_c, 0, 83, 74
1, 50009, Note_on_c, 1, 67, 0
1, 50009, Note_on_c, 1, 63, 0
1, 50015, Note_on_c, 0, 83, 0
1, 50016, Note_on_c, 0, 84, 74
1, 50016, Note_on_c, 1, 75, 73
1, 50039, Note_on_c, 0, 84, 0
1, 50040, Note_on_c, 0, 79, 70
1, 50063, Note_on_c, 0, 79, 0
1, 50064, Note_on_c, 0, 84, 70
1, 50083, Note_on_c, 1, 75, 0
1, 50087, Note_on_c, 0, 84, 0
1, 50088, Note_on_c, 0, 79, 70
1, 50088, Note_on_c, 1, 77, 75
1, 50100, Note_on_c, 1, 77, 0
1, 50100, Note_on_c, 1, 75, 75
1, 50111, Note_on_c, 0, 79, 0
1, 50112, Note_on_c, 0, 84, 70
1, 50112, Note_on_c, 1, 75, 0
1, 50112, Note_on_c, 1, 74, 75
1, 50135, Note_on_c, 0, 84, 0
1, 50136, Note_on_c, 0, 77, 70
1, 50157, Note_on_c, 1, 74, 0
1, 50159, Note_on_c, 0, 77, 0
1, 50160, Note_on_c, 0, 84, 70
1, 50183, Note_on_c, 0, 84, 0
1, 50184, Note_on_c, 0, 77, 70
1, 50207, Note_on_c, 0, 77, 0
1, 50208, Note_on_c, 0, 82, 70
1, 50208, Note_on_c, 1, 37, 75
1, 50231, Note_on_c, 0, 82, 0
1, 50232, Note_on_c, 0, 77, 70
1, 50255, Note_on_c, 0, 77, 0
1, 50256, Note_on_c, 0, 82, 70
1, 50275, Note_on_c, 1, 37, 0
1, 50279, Note_on_c, 0, 82, 0
1, 50280, Note_on_c, 0, 77, 70
1, 50280, Note_on_c, 1, 39, 75
1, 50292, Note_on_c, 1, 39, 0
1, 50292, Note_on_c, 1, 37, 75
1, 50303, Note_on_c, 0, 77, 0
1, 50304, Note_on_c, 0, 82, 70
1, 50304, Note_on_c, 1, 37, 0
1, 50304, Note_on_c, 1, 36, 75
1, 50327, Note_on_c, 0, 82, 0
1, 50328, Note_on_c, 0, 76, 70
1, 50349, Note_on_c, 1, 36, 0
1, 50351, Note_on_c, 0, 76, 0
1, 50352, Note_on_c, 0, 82, 70
1, 50375, Note_on_c, 0, 82, 0
1, 50376, Note_on_c, 0, 76, 70
1, 50399, Note_on_c, 0, 76, 0
1, 50400, Note_on_c, 0, 80, 70
1, 50400, Note_on_c, 1, 72, 70
1, 50423, Note_on_c, 0, 80, 0
1, 50424, Note_on_c, 0, 75, 69
1, 50447, Note_on_c, 0, 75, 0
1, 50448, Note_on_c, 0, 80, 69
1, 50467, Note_on_c, 1, 72, 0
1, 50471, Note_on_c, 0, 80, 0
1, 50472, Note_on_c, 0, 75, 69
1, 50472, Note_on_c, 1, 73, 70
1, 50484, Note_on_c, 1, 73, 0
1, 50484, Note_on_c, 1, 72, 70
1, 50495, Note_on_c, 0, 75, 0
1, 50496, Note_on_c, 0, 80, 68
1, 50496, Note_on_c, 1, 72, 0
1, 50496, Note_on_c, 1, 70, 70
1, 50519, Note_on_c, 0, 80, 0
1, 50520, Note_on_c, 0, 74, 68
1, 50541, Note_on_c, 1, 70, 0
1, 50543, Note_on_c, 0, 74, 0
1, 50544, Note_on_c, 0, 80, 68
1, 50567, Note_on_c, 0, 80, 0
1, 50568, Note_on_c, 0, 74, 67
1, 50591, Note_on_c, 0, 74, 0
1, 50592, Note_on_c, 0, 79, 67
1, 50592, Note_on_c, 1, 34, 75
1, 50615, Note_on_c, 0, 79, 0
1, 50616, Note_on_c, 0, 73, 67
1, 50639, Note_on_c, 0, 73, 0
1, 50640, Note_on_c, 0, 79, 66
1, 50659, Note_on_c, 1, 34, 0
1, 50663, Note_on_c, 0, 79, 0
1, 50664, Note_on_c, 0, 73, 66
1, 50664, Note_on_c, 1, 36, 75
1, 50676, Note_on_c, 1, 36, 0
1, 50676, Note_on_c, 1, 34, 75
1, 50687, Note_on_c, 0, 73, 0
1, 50688, Note_on_c, 0, 79, 66
1, 50688, Note_on_c, 1, 34, 0
1, 50688, Note_on_c, 1, 32, 75
1, 50711, Note_on_c, 0, 79, 0
1, 50712, Note_on_c, 0, 72, 65
1, 50733, Note_on_c, 1, 32, 0
1, 50735, Note_on_c, 0, 72, 0
1, 50736, Note_on_c, 0, 79, 65
1, 50759, Note_on_c, 0, 79, 0
1, 50760, Note_on_c, 0, 72, 65
1, 50783, Note_on_c, 0, 72, 0
1, 50784, Note_on_c, 0, 77, 64
1, 50784, Note_on_c, 1, 68, 70
1, 50807, Note_on_c, 0, 77, 0
1, 50808, Note_on_c, 0, 72, 64
1, 50831, Note_on_c, 0, 72, 0
1, 50832, Note_on_c, 0, 77, 64
1, 50851, Note_on_c, 1, 68, 0
1, 50855, Note_on_c, 0, 77, 0
1, 50856, Note_on_c, 0, 72, 63
1, 50856, Note_on_c, 1, 70, 70
1, 50868, Note_on_c, 1, 70, 0
1, 50868, Note_on_c, 1, 68, 70
1, 50879, Note_on_c, 0, 72, 0
1, 50880, Note_on_c, 0, 77, 63
1, 50880, Note_on_c, 1, 68, 0
1, 50880, Note_on_c, 1, 67, 70
1, 50903, Note_on_c, 0, 77, 0
1, 50904, Note_on_c, 0, 70, 63
1, 50925, Note_on_c, 1, 67, 0
1, 50927, Note_on_c, 0, 70, 0
1, 50928, Note_on_c, 0, 77, 62
1, 50951, Note_on_c, 0, 77, 0
1, 50952, Note_on_c, 0, 70, 62
1, 50975, Note_on_c, 0, 70, 0
1, 50976, Note_on_c, 0, 75, 62
1, 50976, Note_on_c, 1, 31, 80
1, 50999, Note_on_c, 0, 75, 0
1, 51000, Note_on_c, 0, 70, 61
1, 51023, Note_on_c, 0, 70, 0
1, 51024, Note_on_c, 0, 75, 61
1, 51043, Note_on_c, 1, 31, 0
1, 51047, Note_on_c, 0, 75, 0
1, 51048, Note_on_c, 0, 70, 61
1, 51048, Note_on_c, 1, 32, 80
1, 51060, Note_on_c, 1, 32, 0
1, 51060, Note_on_c, 1, 31, 80
1, 51071, Note_on_c, 0, 70, 0
1, 51072, Note_on_c, 0, 74, 60
1, 51072, Note_on_c, 1, 31, 0
1, 51072, Note_on_c, 1, 29, 80
1, 51095, Note_on_c, 0, 74, 0
1, 51096, Note_on_c, 0, 70, 60
1, 51117, Note_on_c, 1, 29, 0
1, 51119, Note_on_c, 0, 70, 0
1, 51120, Note_on_c, 0, 80, 60
1, 51120, Note_on_c, 1, 38, 64
1, 51143, Note_on_c, 0, 80, 0
1, 51144, Note_on_c, 0, 70, 59
1, 51165, Note_on_c, 1, 38, 0
1, 51167, Note_on_c, 0, 70, 0
1, 51168, Note_on_c, 0, 79, 59
1, 51168, Note_on_c, 1, 39, 64
1, 51191, Note_on_c, 0, 79, 0
1, 51192, Note_on_c, 0, 70, 59
1, 51213, Note_on_c, 1, 39, 0
1, 51215, Note_on_c, 0, 70, 0
1, 51216, Note_on_c, 0, 75, 58
1, 51216, Note_on_c, 1, 43, 64
1, 51239, Note_on_c, 0, 75, 0
1, 51240, Note_on_c, 0, 70, 58
1, 51261, Note_on_c, 1, 43, 0
1, 51263, Note_on_c, 0, 70, 0
1, 51264, Note_on_c, 0, 74, 64
1, 51264, Note_on_c, 1, 46, 64
1, 51284, Note_on_c, 0, 74, 0
1, 51284, Note_on_c, 1, 46, 0
1, 51312, Note_on_c, 0, 82, 64
1, 51312, Note_on_c, 0, 74, 64
1, 51312, Note_on_c, 1, 53, 64
1, 51335, Note_on_c, 1, 53, 0
1, 51336, Note_on_c, 1, 46, 64
1, 51357, Note_on_c, 0, 82, 0
1, 51357, Note_on_c, 0, 74, 0
1, 51359, Note_on_c, 1, 46, 0
1, 51360, Note_on_c, 0, 81, 64
1, 51360, Note_on_c, 0, 75, 64
1, 51360, Note_on_c, 1, 54, 64
1, 51383, Note_on_c, 1, 54, 0
1, 51384, Note_on_c, 1, 46, 64
1, 51405, Note_on_c, 0, 81, 0
1, 51405, Note_on_c, 0, 75, 0
1, 51407, Note_on_c, 1, 46, 0
1, 51408, Note_on_c, 0, 78, 64
1, 51408, Note_on_c, 0, 75, 64
1, 51408, Note_on_c, 1, 57, 64
1, 51431, Note_on_c, 1, 57, 0
1, 51432, Note_on_c, 1, 46, 64
1, 51453, Note_on_c, 0, 78, 0
1, 51453, Note_on_c, 0, 75, 0
1, 51455, Note_on_c, 1, 46, 0
1, 51456, Note_on_c, 0, 77, 64
1, 51456, Note_on_c, 1, 58, 64
1, 51479, Note_on_c, 1, 58, 0
1, 51480, Note_on_c, 1, 46, 64
1, 51501, Note_on_c, 0, 77, 0
1, 51503, Note_on_c, 1, 46, 0
1, 51504, Note_on_c, 0, 82, 64
1, 51504, Note_on_c, 0, 74, 64
1, 51504, Note_on_c, 1, 53, 64
1, 51527, Note_on_c, 1, 53, 0
1, 51528, Note_on_c, 1, 46, 64
1, 51549, Note_on_c, 0, 82, 0
1, 51549, Note_on_c, 0, 74, 0
1, 51551, Note_on_c, 1, 46, 0
1, 51552, Note_on_c, 0, 81, 64
1, 51552, Note_on_c, 0, 75, 64
1, 51552, Note_on_c, 1, 54, 64
1, 51575, Note_on_c, 1, 54, 0
1, 51576, Note_on_c, 1, 46, 65
1, 51597, Note_on_c, 0, 81, 0
1, 51597, Note_on_c, 0, 75, 0
1, 51599, Note_on_c, 1, 46, 0
1, 51600, Note_on_c, 0, 78, 65
1, 51600, Note_on_c, 0, 75, 65
1, 51600, Note_on_c, 1, 57, 66
1, 51623, Note_on_c, 1, 57, 0
1, 51624, Note_on_c, 1, 46, 66
1, 51645, Note_on_c, 0, 78, 0
1, 51645, Note_on_c, 0, 75, 0
1, 51647, Note_on_c, 1, 46, 0
1, 51648, Note_on_c, 0, 77, 66
1, 51648, Note_on_c, 0, 74, 66
1, 51648, Note_on_c, 1, 58, 67
1, 51671, Note_on_c, 1, 58, 0
1, 51672, Note_on_c, 1, 46, 68
1, 51693, Note_on_c, 0, 77, 0
1, 51693, Note_on_c, 0, 74, 0
1, 51695, Note_on_c, 1, 46, 0
1, 51696, Note_on_c, 0, 79, 68
1, 51696, Note_on_c, 0, 76, 68
1, 51696, Note_on_c, 1, 58, 68
1, 51719, Note_on_c, 1, 58, 0
1, 51720, Note_on_c, 1, 46, 69
1, 51741, Note_on_c, 0, 79, 0
1, 51741, Note_on_c, 0, 76, 0
1, 51743, Note_on_c, 1, 46, 0
1, 51744, Note_on_c, 0, 80, 69
1, 51744, Note_on_c, 0, 77, 69
1, 51744, Note_on_c, 1, 58, 70
1, 51767, Note_on_c, 1, 58, 0
1, 51768, Note_on_c, 1, 46, 70
1, 51789, Note_on_c, 0, 80, 0
1, 51789, Note_on_c, 0, 77, 0
1, 51791, Note_on_c, 1, 46, 0
1, 51792, Note_on_c, 0, 79, 71
1, 51792, Note_on_c, 0, 76, 71
1, 51792, Note_on_c, 1, 58, 71
1, 51815, Note_on_c, 1, 58, 0
1, 51816, Note_on_c, 1, 46, 72
1, 51837, Note_on_c, 0, 79, 0
1, 51837, Note_on_c, 0, 76, 0
1, 51839, Note_on_c, 1, 46, 0
1, 51840, Note_on_c, 0, 82, 88
1, 51840, Note_on_c, 0, 79, 88
1, 51840, Note_on_c, 1, 58, 73
1, 51863, Note_on_c, 1, 58, 0
1, 51864, Note_on_c, 1, 46, 73
1, 51887, Note_on_c, 1, 46, 0
1, 51888, Note_on_c, 1, 58, 74
1, 51911, Note_on_c, 1, 58, 0
1, 51912, Note_on_c, 1, 46, 75
1, 51935, Note_on_c, 1, 46, 0
1, 51936, Note_on_c, 0, 82, 0
1, 51936, Note_on_c, 0, 79, 0
1, 51936, Note_on_c, 0, 80, 75
1, 51936, Note_on_c, 0, 77, 75
1, 51936, Note_on_c, 1, 58, 75
1, 51959, Note_on_c, 1, 58, 0
1, 51960, Note_on_c, 1, 46, 76
1, 51981, Note_on_c, 0, 80, 0
1, 51981, Note_on_c, 0, 77, 0
1, 51983, Note_on_c, 1, 46, 0
1, 51984, Note_on_c, 0, 77, 77
1, 51984, Note_on_c, 0, 74, 77
1, 51984, Note_on_c, 1, 58, 77
1, 52007, Note_on_c, 1, 58, 0
1, 52008, Note_on_c, 1, 46, 77
1, 52029, Note_on_c, 0, 77, 0
1, 52029, Note_on_c, 0, 74, 0
1, 52031, Note_on_c, 1, 46, 0
1, 52032, Note_on_c, 0, 63, 78
1, 52032, Note_on_c, 1, 51, 78
1, 52038, Note_on_c, 0, 67, 78
1, 52040, Note_on_c, 1, 55, 78
1, 52044, Note_on_c, 0, 70, 78
1, 52048, Note_on_c, 1, 58, 78
1, 52050, Note_on_c, 0, 75, 78
1, 52125, Note_on_c, 0, 75, 0
1, 52125, Note_on_c, 0, 70, 0
1, 52125, Note_on_c, 0, 67, 0
1, 52125, Note_on_c, 0, 63, 0
1, 52125, Note_on_c, 1, 58, 0
1, 52125, Note_on_c, 1, 55, 0
1, 52125, Note_on_c, 1, 51, 0
1, 52128, Note_on_c, 0, 70, 80
1, 52128, Note_on_c, 1, 51, 80
1, 52131, Note_on_c, 0, 73, 80
1, 52131, Note_on_c, 1, 55, 80
1, 52134, Note_on_c, 0, 75, 80
1, 52134, Note_on_c, 1, 58, 80
1, 52137, Note_on_c, 0, 79, 80
1, 52137, Note_on_c, 1, 61, 80
1, 52197, Note_on_c, 0, 79, 0
1, 52197, Note_on_c, 0, 75, 0
1, 52197, Note_on_c, 0, 73, 0
1, 52197, Note_on_c, 0, 70, 0
1, 52197, Note_on_c, 1, 61, 0
1, 52197, Note_on_c, 1, 58, 0
1, 52197, Note_on_c, 1, 55, 0
1, 52197, Note_on_c, 1, 51, 0
1, 52200, Note_on_c, 0, 79, 80
1, 52200, Note_on_c, 0, 75, 80
1, 52200, Note_on_c, 0, 73, 80
1, 52200, Note_on_c, 0, 70, 80
1, 52200, Note_on_c, 1, 61, 80
1, 52200, Note_on_c, 1, 58, 80
1, 52200, Note_on_c, 1, 55, 80
1, 52200, Note_on_c, 1, 51, 80
1, 52223, Note_on_c, 0, 79, 0
1, 52223, Note_on_c, 0, 75, 0
1, 52223, Note_on_c, 0, 73, 0
1, 52223, Note_on_c, 0, 70, 0
1, 52223, Note_on_c, 1, 61, 0
1, 52223, Note_on_c, 1, 58, 0
1, 52223, Note_on_c, 1, 55, 0
1, 52223, Note_on_c, 1, 51, 0
1, 52224, Note_on_c, 0, 68, 80
1, 52224, Note_on_c, 1, 51, 80
1, 52230, Note_on_c, 0, 72, 80
1, 52230, Note_on_c, 1, 56, 80
1, 52236, Note_on_c, 0, 75, 80
1, 52236, Note_on_c, 1, 60, 80
1, 52242, Note_on_c, 0, 80, 80
1, 52242, Note_on_c, 1, 63, 80
1, 52272, Note_on_c, 0, 68, 0
1, 52317, Note_on_c, 0, 80, 0
1, 52317, Note_on_c, 0, 75, 0
1, 52317, Note_on_c, 0, 72, 0
1, 52320, Note_on_c, 0, 80, 80
1, 52332, Note_on_c, 0, 80, 0
1, 52332, Note_on_c, 0, 82, 80
1, 52344, Note_on_c, 0, 82, 0
1, 52344, Note_on_c, 0, 84, 80
1, 52356, Note_on_c, 0, 84, 0
1, 52356, Note_on_c, 0, 82, 80
1, 52368, Note_on_c, 0, 82, 0
1, 52368, Note_on_c, 0, 80, 80
1, 52380, Note_on_c, 0, 80, 0
1, 52380, Note_on_c, 0, 79, 80
1, 52392, Note_on_c, 0, 79, 0
1, 52392, Note_on_c, 0, 77, 80
1, 52404, Note_on_c, 0, 77, 0
1, 52404, Note_on_c, 0, 75, 80
1, 52409, Note_on_c, 1, 63, 0
1, 52409, Note_on_c, 1, 60, 0
1, 52409, Note_on_c, 1, 56, 0
1, 52409, Note_on_c, 1, 51, 0
1, 52416, Note_on_c, 0, 75, 0
1, 52416, Note_on_c, 0, 74, 80
1, 52416, Note_on_c, 1, 62, 80
1, 52416, Note_on_c, 1, 56, 80
1, 52416, Note_on_c, 1, 53, 80
1, 52416, Note_on_c, 1, 51, 80
1, 52428, Note_on_c, 0, 74, 0
1, 52428, Note_on_c, 0, 75, 80
1, 52440, Note_on_c, 0, 75, 0
1, 52440, Note_on_c, 0, 77, 80
1, 52452, Note_on_c, 0, 77, 0
1, 52452, Note_on_c, 0, 79, 80
1, 52464, Note_on_c, 0, 79, 0
1, 52464, Note_on_c, 0, 80, 80
1, 52476, Note_on_c, 0, 80, 0
1, 52476, Note_on_c, 0, 79, 80
1, 52488, Note_on_c, 0, 79, 0
1, 52488, Note_on_c, 0, 77, 80
1, 52500, Note_on_c, 0, 77, 0
1, 52500, Note_on_c, 0, 75, 80
1, 52512, Note_on_c, 0, 75, 0
1, 52512, Note_on_c, 0, 74, 80
1, 52524, Note_on_c, 0, 74, 0
1, 52524, Note_on_c, 0, 75, 80
1, 52536, Note_on_c, 0, 75, 0
1, 52536, Note_on_c, 0, 77, 80
1, 52548, Note_on_c, 0, 77, 0
1, 52548, Note_on_c, 0, 75, 80
1, 52560, Note_on_c, 0, 75, 0
1, 52560, Note_on_c, 0, 74, 80
1, 52572, Note_on_c, 0, 74, 0
1, 52572, Note_on_c, 0, 72, 80
1, 52584, Note_on_c, 0, 72, 0
1, 52584, Note_on_c, 0, 70, 80
1, 52593, Note_on_c, 1, 62, 0
1, 52593, Note_on_c, 1, 56, 0
1, 52593, Note_on_c, 1, 53, 0
1, 52593, Note_on_c, 1, 51, 0
1, 52596, Note_on_c, 0, 70, 0
1, 52596, Note_on_c, 0, 68, 80
1, 52608, Note_on_c, 0, 68, 0
1, 52608, Note_on_c, 0, 67, 80
1, 52608, Note_on_c, 1, 63, 80
1, 52608, Note_on_c, 1, 58, 80
1, 52608, Note_on_c, 1, 55, 80
1, 52608, Note_on_c, 1, 51, 80
1, 52620, Note_on_c, 0, 67, 0
1, 52620, Note_on_c, 0, 82, 80
1, 52632, Note_on_c, 0, 82, 0
1, 52632, Note_on_c, 0, 84, 80
1, 52644, Note_on_c, 0, 84, 0
1, 52644, Note_on_c, 0, 82, 80
1, 52656, Note_on_c, 0, 82, 0
1, 52656, Note_on_c, 0, 80, 80
1, 52668, Note_on_c, 0, 80, 0
1, 52668, Note_on_c, 0, 79, 80
1, 52680, Note_on_c, 0, 79, 0
1, 52680, Note_on_c, 0, 77, 80
1, 52692, Note_on_c, 0, 77, 0
1, 52692, Note_on_c, 0, 75, 80
1, 52697, Note_on_c, 1, 63, 0
1, 52697, Note_on_c, 1, 58, 0
1, 52697, Note_on_c, 1, 55, 0
1, 52697, Note_on_c, 1, 51, 0
1, 52704, Note_on_c, 0, 75, 0
1, 52704, Note_on_c, 0, 74, 80
1, 52704, Note_on_c, 1, 65, 75
1, 52704, Note_on_c, 1, 58, 75
1, 52704, Note_on_c, 1, 56, 75
1, 52716, Note_on_c, 0, 74, 0
1, 52716, Note_on_c, 0, 84, 80
1, 52728, Note_on_c, 0, 84, 0
1, 52728, Note_on_c, 0, 82, 78
1, 52740, Note_on_c, 0, 82, 0
1, 52740, Note_on_c, 0, 80, 77
1, 52752, Note_on_c, 0, 80, 0
1, 52752, Note_on_c, 0, 79, 76
1, 52764, Note_on_c, 0, 79, 0
1, 52764, Note_on_c, 0, 77, 75
1, 52776, Note_on_c, 0, 77, 0
1, 52776, Note_on_c, 0, 75, 73
1, 52788, Note_on_c, 0, 75, 0
1, 52788, Note_on_c, 0, 74, 72
1, 52793, Note_on_c, 1, 65, 0
1, 52793, Note_on_c, 1, 58, 0
1, 52793, Note_on_c, 1, 56, 0
1, 52800, Note_on_c, 0, 74, 0
1, 52800, Note_on_c, 0, 75, 71
1, 52800, Note_on_c, 1, 63, 64
1, 52800, Note_on_c, 1, 58, 64
1, 52800, Note_on_c, 1, 55, 64
1, 52812, Note_on_c, 0, 75, 0
1, 52812, Note_on_c, 0, 82, 70
1, 52824, Note_on_c, 0, 82, 0
1, 52824, Note_on_c, 0, 84, 70
1, 52836, Note_on_c, 0, 84, 0
1, 52836, Note_on_c, 0, 82, 70
1, 52848, Note_on_c, 0, 82, 0
1, 52848, Note_on_c, 0, 80, 70
1, 52860, Note_on_c, 0, 80, 0
1, 52860, Note_on_c, 0, 79, 70
1, 52872, Note_on_c, 0, 79, 0
1, 52872, Note_on_c, 0, 77, 70
1, 52884, Note_on_c, 0, 77, 0
1, 52884, Note_on_c, 0, 75, 70
1, 52889, Note_on_c, 1, 63, 0
1, 52889, Note_on_c, 1, 58, 0
1, 52889, Note_on_c, 1, 55, 0
1, 52896, Note_on_c, 0, 75, 0
1, 52896, Note_on_c, 0, 74, 70
1, 52896, Note_on_c, 1, 65, 75
1, 52896, Note_on_c, 1, 58, 75
1, 52896, Note_on_c, 1, 56, 75
1, 52908, Note_on_c, 0, 74, 0
1, 52908, Note_on_c, 0, 84, 70
1, 52920, Note_on_c, 0, 84, 0
1, 52920, Note_on_c, 0, 82, 71
1, 52932, Note_on_c, 0, 82, 0
1, 52932, Note_on_c, 0, 80, 72
1, 52944, Note_on_c, 0, 80, 0
1, 52944, Note_on_c, 0, 79, 74
1, 52956, Note_on_c, 0, 79, 0
1, 52956, Note_on_c, 0, 77, 75
1, 52968, Note_on_c, 0, 77, 0
1, 52968, Note_on_c, 0, 75, 77
1, 52980, Note_on_c, 0, 75, 0
1, 52980, Note_on_c, 0, 74, 78
1, 52985, Note_on_c, 1, 65, 0
1, 52985, Note_on_c, 1, 58, 0
1, 52985, Note_on_c, 1, 56, 0
1, 52992, Note_on_c, 0, 74, 0
1, 52992, Note_on_c, 0, 75, 80
1, 52992, Note_on_c, 1, 63, 80
1, 52992, Note_on_c, 1, 58, 80
1, 52992, Note_on_c, 1, 55, 80
1, 53004, Note_on_c, 0, 75, 0
1, 53004, Note_on_c, 0, 77, 80
1, 53016, Note_on_c, 0, 77, 0
1, 53016, Note_on_c, 0, 79, 80
1, 53028, Note_on_c, 0, 79, 0
1, 53028, Note_on_c, 0, 80, 80
1, 53040, Note_on_c, 0, 80, 0
1, 53040, Note_on_c, 0, 82, 80
1, 53052, Note_on_c, 0, 82, 0
1, 53052, Note_on_c, 0, 84, 80
1, 53064, Note_on_c, 0, 84, 0
1, 53064, Note_on_c, 0, 85, 80
1, 53076, Note_on_c, 0, 85, 0
1, 53076, Note_on_c, 0, 87, 80
1, 53088, Note_on_c, 0, 87, 0
1, 53088, Note_on_c, 0, 85, 80
1, 53100, Note_on_c, 0, 85, 0
1, 53100, Note_on_c, 0, 84, 80
1, 53112, Note_on_c, 0, 84, 0
1, 53112, Note_on_c, 0, 82, 80
1, 53124, Note_on_c, 0, 82, 0
1, 53124, Note_on_c, 0, 80, 80
1, 53136, Note_on_c, 0, 80, 0
1, 53136, Note_on_c, 0, 79, 80
1, 53148, Note_on_c, 0, 79, 0
1, 53148, Note_on_c, 0, 77, 80
1, 53160, Note_on_c, 0, 77, 0
1, 53160, Note_on_c, 0, 75, 80
1, 53169, Note_on_c, 1, 63, 0
1, 53169, Note_on_c, 1, 58, 0
1, 53169, Note_on_c, 1, 55, 0
1, 53172, Note_on_c, 0, 75, 0
1, 53172, Note_on_c, 0, 73, 80
1, 53184, Note_on_c, 0, 73, 0
1, 53184, Note_on_c, 0, 72, 80
1, 53184, Note_on_c, 1, 63, 80
1, 53184, Note_on_c, 1, 60, 80
1, 53184, Note_on_c, 1, 56, 80
1, 53207, Note_on_c, 0, 72, 0
1, 53208, Note_on_c, 0, 84, 64
1, 53218, Note_on_c, 0, 84, 0
1, 53232, Note_on_c, 0, 83, 64
1, 53242, Note_on_c, 0, 83, 0
1, 53256, Note_on_c, 0, 86, 64
1, 53266, Note_on_c, 0, 86, 0
1, 53273, Note_on_c, 1, 63, 0
1, 53273, Note_on_c, 1, 60, 0
1, 53273, Note_on_c, 1, 56, 0
1, 53280, Note_on_c, 0, 84, 64
1, 53290, Note_on_c, 0, 84, 0
1, 53304, Note_on_c, 0, 87, 66
1, 53314, Note_on_c, 0, 87, 0
1, 53328, Note_on_c, 0, 83, 68
1, 53338, Note_on_c, 0, 83, 0
1, 53352, Note_on_c, 0, 86, 70
1, 53362, Note_on_c, 0, 86, 0
1, 53376, Note_on_c, 0, 84, 72
1, 53386, Note_on_c, 0, 84, 0
1, 53400, Note_on_c, 0, 87, 74
1, 53410, Note_on_c, 0, 87, 0
1, 53424, Note_on_c, 0, 83, 76
1, 53424, Note_on_c, 1, 71, 76
1, 53434, Note_on_c, 0, 83, 0
1, 53434, Note_on_c, 1, 71, 0
1, 53448, Note_on_c, 0, 86, 78
1, 53448, Note_on_c, 1, 74, 78
1, 53458, Note_on_c, 0, 86, 0
1, 53458, Note_on_c, 1, 74, 0
1, 53472, Note_on_c, 0, 84, 80
1, 53472, Note_on_c, 1, 72, 80
1, 53482, Note_on_c, 0, 84, 0
1, 53482, Note_on_c, 1, 72, 0
1, 53496, Note_on_c, 0, 87, 80
1, 53496, Note_on_c, 1, 75, 80
1, 53506, Note_on_c, 0, 87, 0
1, 53506, Note_on_c, 1, 75, 0
1, 53520, Note_on_c, 0, 84, 80
1, 53520, Note_on_c, 1, 72, 80
1, 53535, Note_on_c, 0, 84, 0
1, 53535, Note_on_c, 1, 72, 0
1, 53536, Note_on_c, 0, 80, 80
1, 53536, Note_on_c, 1, 68, 80
1, 53551, Note_on_c, 0, 80, 0
1, 53551, Note_on_c, 1, 68, 0
1, 53552, Note_on_c, 0, 77, 80
1, 53552, Note_on_c, 1, 65, 80
1, 53567, Note_on_c, 0, 77, 0
1, 53567, Note_on_c, 1, 65, 0
1, 53568, Note_on_c, 0, 75, 80
1, 53568, Note_on_c, 1, 67, 80
1, 53568, Note_on_c, 1, 58, 80
1, 53635, Note_on_c, 0, 75, 0
1, 53640, Note_on_c, 0, 77, 80
1, 53646, Note_on_c, 0, 77, 0
1, 53646, Note_on_c, 0, 75, 80
1, 53652, Note_on_c, 0, 75, 0
1, 53652, Note_on_c, 0, 74, 80
1, 53657, Note_on_c, 1, 67, 0
1, 53658, Note_on_c, 0, 74, 0
1, 53658, Note_on_c, 0, 75, 80
1, 53664, Note_on_c, 0, 75, 0
1, 53664, Note_on_c, 0, 79, 80
1, 53664, Note_on_c, 0, 74, 80
1, 53664, Note_on_c, 1, 68, 80
1, 53731, Note_on_c, 0, 79, 0
1, 53736, Note_on_c, 0, 77, 80
1, 53745, Note_on_c, 1, 58, 0
1, 53753, Note_on_c, 0, 74, 0
1, 53753, Note_on_c, 1, 68, 0
1, 53759, Note_on_c, 0, 77, 0
1, 53760, Note_on_c, 0, 75, 80
1, 53760, Note_on_c, 1, 67, 80
1, 53760, Note_on_c, 1, 63, 80
1, 53805, Note_on_c, 0, 75, 0
1, 53805, Note_on_c, 1, 67, 0
1, 53805, Note_on_c, 1, 63, 0
1, 53844, Note_on_c, 0, 82, 64
1, 53856, Note_on_c, 0, 82, 0
1, 53856, Note_on_c, 0, 79, 64
1, 53856, Note_on_c, 1, 67, 64
1, 53856, Note_on_c, 1, 63, 64
1, 53866, Note_on_c, 0, 79, 0
1, 53876, Note_on_c, 1, 67, 0
1, 53876, Note_on_c, 1, 63, 0
1, 53892, Note_on_c, 0, 82, 64
1, 53904, Note_on_c, 0, 82, 0
1, 53904, Note_on_c, 0, 77, 64
1, 53904, Note_on_c, 1, 65, 64
1, 53904, Note_on_c, 1, 58, 64
1, 53914, Note_on_c, 0, 77, 0
1, 53924, Note_on_c, 1, 65, 0
1, 53924, Note_on_c, 1, 58, 0
1, 53940, Note_on_c, 0, 82, 64
1, 53952, Note_on_c, 0, 82, 0
1, 53952, Note_on_c, 0, 75, 64
1, 53952, Note_on_c, 1, 63, 64
1, 53952, Note_on_c, 1, 55, 64
1, 53962, Note_on_c, 0, 75, 0
1, 53988, Note_on_c, 0, 82, 64
1, 53997, Note_on_c, 1, 63, 0
1, 53997, Note_on_c, 1, 55, 0
1, 54000, Note_on_c, 0, 82, 0
1, 54000, Note_on_c, 0, 70, 64
1, 54010, Note_on_c, 0, 70, 0
1, 54036, Note_on_c, 0, 82, 58
1, 54048, Note_on_c, 0, 82, 0
1, 54048, Note_on_c, 0, 79, 58
1, 54048, Note_on_c, 1, 67, 58
1, 54048, Note_on_c, 1, 63, 58
1, 54058, Note_on_c, 0, 79, 0
1, 54068, Note_on_c, 1, 67, 0
1, 54068, Note_on_c, 1, 63, 0
1, 54084, Note_on_c, 0, 82, 58
1, 54096, Note_on_c, 0, 82, 0
1, 54096, Note_on_c, 0, 77, 58
1, 54096, Note_on_c, 1, 65, 58
1, 54096, Note_on_c, 1, 58, 58
1, 54106, Note_on_c, 0, 77, 0
1, 54116, Note_on_c, 1, 65, 0
1, 54116, Note_on_c, 1, 58, 0
1, 54132, Note_on_c, 0, 82, 58
1, 54144, Note_on_c, 0, 82, 0
1, 54144, Note_on_c, 0, 75, 58
1, 54144, Note_on_c, 1, 63, 58
1, 54144, Note_on_c, 1, 55, 58
1, 54154, Note_on_c, 0, 75, 0
1, 54180, Note_on_c, 0, 82, 58
1, 54189, Note_on_c, 1, 63, 0
1, 54189, Note_on_c, 1, 55, 0
1, 54192, Note_on_c, 0, 82, 0
1, 54192, Note_on_c, 0, 70, 58
1, 54202, Note_on_c, 0, 70, 0
1, 54228, Note_on_c, 0, 82, 58
1, 54240, Note_on_c, 0, 82, 0
1, 54240, Note_on_c, 0, 73, 58
1, 54240, Note_on_c, 1, 63, 58
1, 54240, Note_on_c, 1, 55, 58
1, 54250, Note_on_c, 0, 73, 0
1, 54276, Note_on_c, 0, 82, 64
1, 54285, Note_on_c, 1, 63, 0
1, 54285, Note_on_c, 1, 55, 0
1, 54288, Note_on_c, 0, 82, 0
1, 54288, Note_on_c, 0, 71, 64
1, 54288, Note_on_c, 1, 63, 64
1, 54288, Note_on_c, 1, 55, 64
1, 54298, Note_on_c, 0, 71, 0
1, 54324, Note_on_c, 0, 82, 64
1, 54333, Note_on_c, 1, 63, 0
1, 54333, Note_on_c, 1, 55, 0
1, 54336, Note_on_c, 0, 82, 0
1, 54336, Note_on_c, 0, 72, 64
1, 54336, Note_on_c, 1, 63, 64
1, 54336, Note_on_c, 1, 56, 80
1, 54346, Note_on_c, 0, 72, 0
1, 54372, Note_on_c, 0, 76, 65
1, 54381, Note_on_c, 1, 63, 0
1, 54384, Note_on_c, 0, 76, 0
1, 54384, Note_on_c, 0, 77, 65
1, 54384, Note_on_c, 1, 60, 65
1, 54394, Note_on_c, 0, 77, 0
1, 54420, Note_on_c, 0, 79, 67
1, 54429, Note_on_c, 1, 60, 0
1, 54432, Note_on_c, 0, 79, 0
1, 54432, Note_on_c, 0, 80, 67
1, 54432, Note_on_c, 1, 65, 67
1, 54442, Note_on_c, 0, 80, 0
1, 54468, Note_on_c, 0, 79, 69
1, 54469, Note_on_c, 1, 56, 0
1, 54480, Note_on_c, 0, 79, 0
1, 54480, Note_on_c, 0, 77, 69
1, 54480, Note_on_c, 1, 57, 80
1, 54490, Note_on_c, 0, 77, 0
1, 54516, Note_on_c, 0, 75, 71
1, 54525, Note_on_c, 1, 57, 0
1, 54528, Note_on_c, 0, 75, 0
1, 54528, Note_on_c, 0, 74, 71
1, 54528, Note_on_c, 1, 58, 80
1, 54538, Note_on_c, 0, 74, 0
1, 54564, Note_on_c, 0, 84, 73
1, 54573, Note_on_c, 1, 58, 0
1, 54576, Note_on_c, 0, 84, 0
1, 54576, Note_on_c, 0, 82, 73
1, 54576, Note_on_c, 1, 60, 80
1, 54586, Note_on_c, 0, 82, 0
1, 54612, Note_on_c, 0, 81, 75
1, 54621, Note_on_c, 1, 60, 0
1, 54624, Note_on_c, 0, 81, 0
1, 54624, Note_on_c, 0, 82, 75
1, 54624, Note_on_c, 1, 62, 80
1, 54634, Note_on_c, 0, 82, 0
1, 54660, Note_on_c, 0, 84, 77
1, 54661, Note_on_c, 1, 65, 0
1, 54672, Note_on_c, 0, 84, 0
1, 54672, Note_on_c, 0, 82, 77
1, 54672, Note_on_c, 1, 70, 77
1, 54682, Note_on_c, 0, 82, 0
1, 54708, Note_on_c, 0, 80, 79
1, 54713, Note_on_c, 1, 62, 0
1, 54717, Note_on_c, 1, 70, 0
1, 54720, Note_on_c, 0, 80, 0
1, 54720, Note_on_c, 0, 78, 79
1, 54720, Note_on_c, 1, 66, 79
1, 54720, Note_on_c, 1, 63, 79
1, 54732, Note_on_c, 0, 78, 0
1, 54732, Note_on_c, 0, 80, 80
1, 54743, Note_on_c, 1, 66, 0
1, 54743, Note_on_c, 1, 63, 0
1, 54744, Note_on_c, 0, 80, 0
1, 54744, Note_on_c, 0, 78, 80
1, 54744, Note_on_c, 1, 70, 80
1, 54756, Note_on_c, 0, 78, 0
1, 54756, Note_on_c, 0, 77, 80
1, 54767, Note_on_c, 1, 70, 0
1, 54768, Note_on_c, 0, 77, 0
1, 54768, Note_on_c, 0, 75, 80
1, 54768, Note_on_c, 1, 66, 80
1, 54768, Note_on_c, 1, 63, 80
1, 54778, Note_on_c, 0, 75, 0
1, 54791, Note_on_c, 1, 66, 0
1, 54791, Note_on_c, 1, 63, 0
1, 54792, Note_on_c, 0, 75, 80
1, 54792, Note_on_c, 1, 70, 80
1, 54802, Note_on_c, 0, 75, 0
1, 54815, Note_on_c, 1, 70, 0
1, 54816, Note_on_c, 0, 80, 80
1, 54816, Note_on_c, 1, 65, 80
1, 54816, Note_on_c, 1, 62, 80
1, 54828, Note_on_c, 0, 80, 0
1, 54828, Note_on_c, 0, 82, 80
1, 54839, Note_on_c, 1, 65, 0
1, 54839, Note_on_c, 1, 62, 0
1, 54840, Note_on_c, 0, 82, 0
1, 54840, Note_on_c, 0, 80, 80
1, 54840, Note_on_c, 1, 70, 76
1, 54852, Note_on_c, 0, 80, 0
1, 54852, Note_on_c, 0, 78, 80
1, 54863, Note_on_c, 1, 70, 0
1, 54864, Note_on_c, 0, 78, 0
1, 54864, Note_on_c, 0, 77, 78
1, 54864, Note_on_c, 1, 65, 72
1, 54864, Note_on_c, 1, 62, 72
1, 54874, Note_on_c, 0, 77, 0
1, 54887, Note_on_c, 1, 65, 0
1, 54887, Note_on_c, 1, 62, 0
1, 54888, Note_on_c, 0, 77, 74
1, 54888, Note_on_c, 1, 70, 68
1, 54898, Note_on_c, 0, 77, 0
1, 54911, Note_on_c, 1, 70, 0
1, 54912, Note_on_c, 0, 78, 70
1, 54912, Note_on_c, 1, 66, 70
1, 54912, Note_on_c, 1, 63, 70
1, 54924, Note_on_c, 0, 78, 0
1, 54924, Note_on_c, 0, 80, 70
1, 54935, Note_on_c, 1, 66, 0
1, 54935, Note_on_c, 1, 63, 0
1, 54936, Note_on_c, 0, 80, 0
1, 54936, Note_on_c, 0, 78, 70
1, 54936, Note_on_c, 1, 70, 70
1, 54948, Note_on_c, 0, 78, 0
1, 54948, Note_on_c, 0, 77, 70
1, 54959, Note_on_c, 1, 70, 0
1, 54960, Note_on_c, 0, 77, 0
1, 54960, Note_on_c, 0, 75, 70
1, 54960, Note_on_c, 1, 66, 70
1, 54960, Note_on_c, 1, 63, 70
1, 54970, Note_on_c, 0, 75, 0
1, 54983, Note_on_c, 1, 66, 0
1, 54983, Note_on_c, 1, 63, 0
1, 54984, Note_on_c, 0, 75, 70
1, 54984, Note_on_c, 1, 70, 70
1, 54994, Note_on_c, 0, 75, 0
1, 55007, Note_on_c, 1, 70, 0
1, 55008, Note_on_c, 0, 80, 70
1, 55008, Note_on_c, 1, 65, 70
1, 55008, Note_on_c, 1, 62, 70
1, 55020, Note_on_c, 0, 80, 0
1, 55020, Note_on_c, 0, 82, 70
1, 55031, Note_on_c, 1, 65, 0
1, 55031, Note_on_c, 1, 62, 0
1, 55032, Note_on_c, 0, 82, 0
1, 55032, Note_on_c, 0, 80, 70
1, 55032, Note_on_c, 1, 70, 72
1, 55044, Note_on_c, 0, 80, 0
1, 55044, Note_on_c, 0, 78, 71
1, 55055, Note_on_c, 1, 70, 0
1, 55056, Note_on_c, 0, 78, 0
1, 55056, Note_on_c, 0, 77, 73
1, 55056, Note_on_c, 1, 65, 75
1, 55056, Note_on_c, 1, 62, 75
1, 55066, Note_on_c, 0, 77, 0
1, 55079, Note_on_c, 1, 65, 0
1, 55079, Note_on_c, 1, 62, 0
1, 55080, Note_on_c, 0, 77, 76
1, 55080, Note_on_c, 1, 70, 77
1, 55090, Note_on_c, 0, 77, 0
1, 55103, Note_on_c, 1, 70, 0
1, 55104, Note_on_c, 0, 78, 80
1, 55104, Note_on_c, 1, 66, 80
1, 55104, Note_on_c, 1, 54, 80
1, 55116, Note_on_c, 0, 78, 0
1, 55116, Note_on_c, 0, 80, 80
1, 55128, Note_on_c, 0, 80, 0
1, 55128, Note_on_c, 0, 78, 80
1, 55140, Note_on_c, 0, 78, 0
1, 55140, Note_on_c, 0, 77, 80
1, 55149, Note_on_c, 1, 66, 0
1, 55149, Note_on_c, 1, 54, 0
1, 55152, Note_on_c, 0, 77, 0
1, 55152, Note_on_c, 0, 75, 80
1, 55152, Note_on_c, 1, 63, 80
1, 55152, Note_on_c, 1, 51, 80
1, 55164, Note_on_c, 0, 75, 0
1, 55164, Note_on_c, 0, 77, 80
1, 55176, Note_on_c, 0, 77, 0
1, 55176, Note_on_c, 0, 75, 80
1, 55188, Note_on_c, 0, 75, 0
1, 55188, Note_on_c, 0, 73, 80
1, 55197, Note_on_c, 1, 63, 0
1, 55197, Note_on_c, 1, 51, 0
1, 55200, Note_on_c, 0, 73, 0
1, 55200, Note_on_c, 0, 71, 80
1, 55200, Note_on_c, 1, 59, 80
1, 55200, Note_on_c, 1, 47, 80
1, 55212, Note_on_c, 0, 71, 0
1, 55212, Note_on_c, 0, 73, 80
1, 55224, Note_on_c, 0, 73, 0
1, 55224, Note_on_c, 0, 71, 80
1, 55236, Note_on_c, 0, 71, 0
1, 55236, Note_on_c, 0, 70, 80
1, 55245, Note_on_c, 1, 59, 0
1, 55245, Note_on_c, 1, 47, 0
1, 55248, Note_on_c, 0, 70, 0
1, 55248, Note_on_c, 0, 68, 80
1, 55248, Note_on_c, 1, 56, 80
1, 55248, Note_on_c, 1, 44, 80
1, 55260, Note_on_c, 0, 68, 0
1, 55260, Note_on_c, 0, 70, 80
1, 55272, Note_on_c, 0, 70, 0
1, 55272, Note_on_c, 0, 68, 80
1, 55284, Note_on_c, 0, 68, 0
1, 55284, Note_on_c, 0, 66, 80
1, 55293, Note_on_c, 1, 56, 0
1, 55293, Note_on_c, 1, 44, 0
1, 55296, Note_on_c, 0, 66, 0
1, 55296, Note_on_c, 0, 65, 80
1, 55296, Note_on_c, 1, 53, 80
1, 55296, Note_on_c, 1, 41, 80
1, 55308, Note_on_c, 0, 65, 0
1, 55308, Note_on_c, 0, 66, 80
1, 55320, Note_on_c, 0, 66, 0
1, 55320, Note_on_c, 0, 68, 80
1, 55332, Note_on_c, 0, 68, 0
1, 55332, Note_on_c, 0, 66, 80
1, 55344, Note_on_c, 0, 66, 0
1, 55344, Note_on_c, 0, 65, 80
1, 55356, Note_on_c, 0, 65, 0
1, 55356, Note_on_c, 0, 66, 80
1, 55368, Note_on_c, 0, 66, 0
1, 55368, Note_on_c, 0, 68, 80
1, 55380, Note_on_c, 0, 68, 0
1, 55380, Note_on_c, 0, 66, 80
1, 55385, Note_on_c, 1, 53, 0
1, 55385, Note_on_c, 1, 41, 0
1, 55392, Note_on_c, 0, 66, 0
1, 55392, Note_on_c, 0, 65, 80
1, 55392, Note_on_c, 1, 51, 80
1, 55392, Note_on_c, 1, 39, 80
1, 55404, Note_on_c, 0, 65, 0
1, 55404, Note_on_c, 0, 66, 80
1, 55416, Note_on_c, 0, 66, 0
1, 55416, Note_on_c, 0, 68, 80
1, 55428, Note_on_c, 0, 68, 0
1, 55428, Note_on_c, 0, 66, 80
1, 55440, Note_on_c, 0, 66, 0
1, 55440, Note_on_c, 0, 65, 80
1, 55452, Note_on_c, 0, 65, 0
1, 55452, Note_on_c, 0, 66, 80
1, 55464, Note_on_c, 0, 66, 0
1, 55464, Note_on_c, 0, 68, 80
1, 55476, Note_on_c, 0, 68, 0
1, 55476, Note_on_c, 0, 66, 80
1, 55481, Note_on_c, 1, 51, 0
1, 55481, Note_on_c, 1, 39, 0
1, 55488, Note_on_c, 0, 66, 0
1, 55488, Note_on_c, 0, 65, 80
1, 55488, Note_on_c, 1, 50, 80
1, 55488, Note_on_c, 1, 38, 80
1, 55500, Note_on_c, 0, 65, 0
1, 55500, Note_on_c, 0, 66, 79
1, 55512, Note_on_c, 0, 66, 0
1, 55512, Note_on_c, 0, 68, 78
1, 55524, Note_on_c, 0, 68, 0
1, 55524, Note_on_c, 0, 66, 78
1, 55536, Note_on_c, 0, 66, 0
1, 55536, Note_on_c, 0, 65, 77
1, 55548, Note_on_c, 0, 65, 0
1, 55548, Note_on_c, 0, 66, 76
1, 55560, Note_on_c, 0, 66, 0
1, 55560, Note_on_c, 0, 68, 76
1, 55572, Note_on_c, 0, 68, 0
1, 55572, Note_on_c, 0, 66, 75
1, 55577, Note_on_c, 1, 50, 0
1, 55577, Note_on_c, 1, 38, 0
1, 55584, Note_on_c, 0, 66, 0
1, 55584, Note_on_c, 0, 65, 75
1, 55584, Note_on_c, 1, 47, 80
1, 55584, Note_on_c, 1, 35, 80
1, 55596, Note_on_c, 0, 65, 0
1, 55596, Note_on_c, 0, 66, 74
1, 55608, Note_on_c, 0, 66, 0
1, 55608, Note_on_c, 0, 68, 73
1, 55620, Note_on_c, 0, 68, 0
1, 55620, Note_on_c, 0, 66, 73
1, 55632, Note_on_c, 0, 66, 0
1, 55632, Note_on_c, 0, 65, 72
1, 55644, Note_on_c, 0, 65, 0
1, 55644, Note_on_c, 0, 66, 71
1, 55656, Note_on_c, 0, 66, 0
1, 55656, Note_on_c, 0, 68, 71
1, 55668, Note_on_c, 0, 68, 0
1, 55668, Note_on_c, 0, 66, 70
1, 55673, Note_on_c, 1, 47, 0
1, 55673, Note_on_c, 1, 35, 0
1, 55680, Note_on_c, 0, 66, 0
1, 55680, Note_on_c, 0, 65, 70
1, 55680, Note_on_c, 1, 46, 80
1, 55680, Note_on_c, 1, 34, 80
1, 55692, Note_on_c, 0, 65, 0
1, 55692, Note_on_c, 0, 66, 70
1, 55704, Note_on_c, 0, 66, 0
1, 55704, Note_on_c, 0, 68, 70
1, 55716, Note_on_c, 0, 68, 0
1, 55716, Note_on_c, 0, 66, 70
1, 55728, Note_on_c, 0, 66, 0
1, 55728, Note_on_c, 0, 65, 70
1, 55740, Note_on_c, 0, 65, 0
1, 55740, Note_on_c, 0, 66, 70
1, 55752, Note_on_c, 0, 66, 0
1, 55752, Note_on_c, 0, 68, 70
1, 55764, Note_on_c, 0, 68, 0
1, 55764, Note_on_c, 0, 66, 70
1, 55776, Note_on_c, 0, 66, 0
1, 55776, Note_on_c, 0, 65, 70
1, 55788, Note_on_c, 0, 65, 0
1, 55788, Note_on_c, 0, 66, 70
1, 55800, Note_on_c, 0, 66, 0
1, 55800, Note_on_c, 0, 68, 70
1, 55812, Note_on_c, 0, 68, 0
1, 55812, Note_on_c, 0, 66, 70
1, 55824, Note_on_c, 0, 66, 0
1, 55824, Note_on_c, 0, 65, 70
1, 55836, Note_on_c, 0, 65, 0
1, 55836, Note_on_c, 0, 66, 70
1, 55848, Note_on_c, 0, 66, 0
1, 55848, Note_on_c, 0, 68, 71
1, 55860, Note_on_c, 0, 68, 0
1, 55860, Note_on_c, 0, 66, 72
1, 55872, Note_on_c, 0, 66, 0
1, 55872, Note_on_c, 0, 65, 73
1, 55884, Note_on_c, 0, 65, 0
1, 55884, Note_on_c, 0, 67, 73
1, 55896, Note_on_c, 0, 67, 0
1, 55896, Note_on_c, 0, 68, 74
1, 55908, Note_on_c, 0, 68, 0
1, 55908, Note_on_c, 0, 67, 75
1, 55920, Note_on_c, 0, 67, 0
1, 55920, Note_on_c, 0, 65, 76
1, 55932, Note_on_c, 0, 65, 0
1, 55932, Note_on_c, 0, 67, 76
1, 55944, Note_on_c, 0, 67, 0
1, 55944, Note_on_c, 0, 68, 77
1, 55956, Note_on_c, 0, 68, 0
1, 55956, Note_on_c, 0, 67, 78
1, 55968, Note_on_c, 0, 67, 0
1, 55968, Note_on_c, 0, 65, 79
1, 55980, Note_on_c, 0, 65, 0
1, 55980, Note_on_c, 0, 67, 80
1, 55992, Note_on_c, 0, 67, 0
1, 55992, Note_on_c, 0, 68, 80
1, 56004, Note_on_c, 0, 68, 0
1, 56004, Note_on_c, 0, 70, 80
1, 56016, Note_on_c, 0, 70, 0
1, 56016, Note_on_c, 0, 72, 80
1, 56028, Note_on_c, 0, 72, 0
1, 56028, Note_on_c, 0, 74, 80
1, 56034, Note_on_c, 1, 46, 0
1, 56034, Note_on_c, 1, 34, 0
1, 56040, Note_on_c, 0, 74, 0
1, 56040, Note_on_c, 0, 75, 80
1, 56052, Note_on_c, 0, 75, 0
1, 56052, Note_on_c, 0, 77, 80
1, 56064, Note_on_c, 0, 77, 0
1, 56064, Note_on_c, 0, 79, 80
1, 56064, Note_on_c, 0, 75, 80
1, 56064, Note_on_c, 1, 70, 80
1, 56064, Note_on_c, 1, 67, 80
1, 56064, Note_on_c, 1, 63, 80
1, 56153, Note_on_c, 0, 79, 0
1, 56153, Note_on_c, 0, 75, 0
1, 56153, Note_on_c, 1, 70, 0
1, 56153, Note_on_c, 1, 67, 0
1, 56153, Note_on_c, 1, 63, 0
1, 56160, Note_on_c, 0, 77, 80
1, 56160, Note_on_c, 1, 62, 80
1, 56168, Note_on_c, 1, 65, 80
1, 56172, Note_on_c, 0, 82, 80
1, 56176, Note_on_c, 1, 70, 80
1, 56253, Note_on_c, 0, 82, 0
1, 56253, Note_on_c, 0, 77, 0
1, 56253, Note_on_c, 1, 70, 0
1, 56253, Note_on_c, 1, 65, 0
1, 56253, Note_on_c, 1, 62, 0
1, 56256, Note_on_c, 0, 75, 80
1, 56256, Note_on_c, 1, 60, 80
1, 56264, Note_on_c, 0, 80, 80
1, 56264, Note_on_c, 1, 63, 80
1, 56272, Note_on_c, 0, 87, 80
1, 56272, Note_on_c, 1, 68, 80
1, 56400, Note_on_c, 0, 80, 0
1, 56400, Note_on_c, 0, 75, 0
1, 56423, Note_on_c, 0, 87, 0
1, 56424, Note_on_c, 0, 86, 80
1, 56432, Note_on_c, 0, 86, 0
1, 56432, Note_on_c, 0, 84, 80
1, 56437, Note_on_c, 1, 68, 0
1, 56437, Note_on_c, 1, 63, 0
1, 56437, Note_on_c, 1, 60, 0
1, 56440, Note_on_c, 0, 84, 0
1, 56440, Note_on_c, 0, 82, 80
1, 56448, Note_on_c, 0, 82, 0
1, 56448, Note_on_c, 0, 80, 80
1, 56448, Note_on_c, 1, 75, 80
1, 56448, Note_on_c, 1, 72, 80
1, 56468, Note_on_c, 0, 80, 0
1, 56468, Note_on_c, 1, 75, 0
1, 56468, Note_on_c, 1, 72, 0
1, 56520, Note_on_c, 0, 79, 80
1, 56520, Note_on_c, 1, 75, 80
1, 56520, Note_on_c, 1, 70, 80
1, 56543, Note_on_c, 0, 79, 0
1, 56544, Note_on_c, 0, 84, 80
1, 56544, Note_on_c, 1, 70, 0
1, 56544, Note_on_c, 1, 68, 80
1, 56564, Note_on_c, 0, 84, 0
1, 56564, Note_on_c, 1, 75, 0
1, 56564, Note_on_c, 1, 68, 0
1, 56616, Note_on_c, 0, 82, 80
1, 56616, Note_on_c, 0, 75, 80
1, 56616, Note_on_c, 1, 70, 80
1, 56616, Note_on_c, 1, 66, 80
1, 56639, Note_on_c, 0, 82, 0
1, 56639, Note_on_c, 0, 75, 0
1, 56640, Note_on_c, 0, 81, 80
1, 56640, Note_on_c, 0, 75, 80
1, 56640, Note_on_c, 1, 70, 0
1, 56640, Note_on_c, 1, 66, 0
1, 56640, Note_on_c, 1, 72, 80
1, 56640, Note_on_c, 1, 65, 80
1, 56679, Note_on_c, 0, 81, 0
1, 56679, Note_on_c, 0, 75, 0
1, 56679, Note_on_c, 1, 72, 0
1, 56679, Note_on_c, 1, 65, 0
1, 56760, Note_on_c, 0, 84, 64
1, 56760, Note_on_c, 0, 80, 64
1, 56783, Note_on_c, 0, 84, 0
1, 56783, Note_on_c, 0, 80, 0
1, 56784, Note_on_c, 0, 82, 64
1, 56784, Note_on_c, 0, 79, 64
1, 56807, Note_on_c, 0, 82, 0
1, 56807, Note_on_c, 0, 79, 0
1, 56808, Note_on_c, 0, 80, 64
1, 56808, Note_on_c, 0, 77, 64
1, 56831, Note_on_c, 0, 80, 0
1, 56831, Note_on_c, 0, 77, 0
1, 56832, Note_on_c, 0, 79, 64
1, 56832, Note_on_c, 0, 75, 64
1, 56856, Note_on_c, 1, 70, 64
1, 56856, Note_on_c, 1, 67, 64
1, 56871, Note_on_c, 0, 79, 0
1, 56871, Note_on_c, 0, 75, 0
1, 56879, Note_on_c, 1, 70, 0
1, 56879, Note_on_c, 1, 67, 0
1, 56880, Note_on_c, 1, 68, 64
1, 56880, Note_on_c, 1, 65, 64
1, 56903, Note_on_c, 1, 68, 0
1, 56903, Note_on_c, 1, 65, 0
1, 56904, Note_on_c, 1, 67, 64
1, 56904, Note_on_c, 1, 63, 64
1, 56927, Note_on_c, 1, 67, 0
1, 56927, Note_on_c, 1, 63, 0
1, 56928, Note_on_c, 1, 65, 64
1, 56928, Note_on_c, 1, 62, 64
1, 56952, Note_on_c, 0, 84, 64
1, 56952, Note_on_c, 0, 80, 64
1, 56967, Note_on_c, 1, 65, 0
1, 56967, Note_on_c, 1, 62, 0
1, 56975, Note_on_c, 0, 84, 0
1, 56975, Note_on_c, 0, 80, 0
1, 56976, Note_on_c, 0, 82, 64
1, 56976, Note_on_c, 0, 79, 64
1, 56999, Note_on_c, 0, 82, 0
1, 56999, Note_on_c, 0, 79, 0
1, 57000, Note_on_c, 0, 80, 64
1, 57000, Note_on_c, 0, 77, 64
1, 57023, Note_on_c, 0, 80, 0
1, 57023, Note_on_c, 0, 77, 0
1, 57024, Note_on_c, 0, 79, 64
1, 57024, Note_on_c, 0, 75, 64
1, 57048, Note_on_c, 1, 70, 64
1, 57048, Note_on_c, 1, 67, 64
1, 57063, Note_on_c, 0, 79, 0
1, 57063, Note_on_c, 0, 75, 0
1, 57071, Note_on_c, 1, 70, 0
1, 57071, Note_on_c, 1, 67, 0
1, 57072, Note_on_c, 1, 68, 64
1, 57072, Note_on_c, 1, 65, 64
1, 57095, Note_on_c, 1, 68, 0
1, 57095, Note_on_c, 1, 65, 0
1, 57096, Note_on_c, 1, 67, 64
1, 57096, Note_on_c, 1, 63, 64
1, 57119, Note_on_c, 1, 67, 0
1, 57119, Note_on_c, 1, 63, 0
1, 57120, Note_on_c, 1, 65, 64
1, 57120, Note_on_c, 1, 62, 64
1, 57130, Note_on_c, 1, 65, 0
1, 57130, Note_on_c, 1, 62, 0
1, 57144, Note_on_c, 0, 84, 64
1, 57144, Note_on_c, 0, 80, 64
1, 57144, Note_on_c, 1, 70, 64
1, 57167, Note_on_c, 0, 84, 0
1, 57167, Note_on_c, 0, 80, 0
1, 57167, Note_on_c, 1, 70, 0
1, 57168, Note_on_c, 0, 82, 69
1, 57168, Note_on_c, 0, 79, 69
1, 57168, Note_on_c, 1, 72, 69
1, 57191, Note_on_c, 0, 82, 0
1, 57191, Note_on_c, 0, 79, 0
1, 57191, Note_on_c, 1, 72, 0
1, 57192, Note_on_c, 0, 80, 74
1, 57192, Note_on_c, 0, 77, 74
1, 57192, Note_on_c, 1, 74, 74
1, 57215, Note_on_c, 0, 80, 0
1, 57215, Note_on_c, 0, 77, 0
1, 57215, Note_on_c, 1, 74, 0
1, 57216, Note_on_c, 0, 79, 80
1, 57216, Note_on_c, 0, 75, 80
1, 57216, Note_on_c, 1, 75, 80
1, 57226, Note_on_c, 0, 79, 0
1, 57226, Note_on_c, 0, 75, 0
1, 57226, Note_on_c, 1, 75, 0
1, 57240, Note_on_c, 0, 87, 80
1, 57240, Note_on_c, 0, 82, 80
1, 57240, Note_on_c, 1, 79, 80
1, 57263, Note_on_c, 0, 87, 0
1, 57263, Note_on_c, 0, 82, 0
1, 57263, Note_on_c, 1, 79, 0
1, 57264, Note_on_c, 0, 86, 80
1, 57264, Note_on_c, 0, 80, 80
1, 57264, Note_on_c, 1, 77, 80
1, 57287, Note_on_c, 0, 86, 0
1, 57287, Note_on_c, 0, 80, 0
1, 57287, Note_on_c, 1, 77, 0
1, 57288, Note_on_c, 0, 84, 80
1, 57288, Note_on_c, 0, 79, 80
1, 57288, Note_on_c, 1, 75, 80
1, 57311, Note_on_c, 0, 84, 0
1, 57311, Note_on_c, 0, 79, 0
1, 57311, Note_on_c, 1, 75, 0
1, 57312, Note_on_c, 0, 82, 80
1, 57312, Note_on_c, 0, 77, 80
1, 57312, Note_on_c, 1, 74, 80
1, 57335, Note_on_c, 0, 82, 0
1, 57335, Note_on_c, 0, 77, 0
1, 57335, Note_on_c, 1, 74, 0
1, 57336, Note_on_c, 0, 80, 80
1, 57336, Note_on_c, 1, 75, 80
1, 57336, Note_on_c, 1, 72, 80
1, 57359, Note_on_c, 0, 80, 0
1, 57359, Note_on_c, 1, 75, 0
1, 57359, Note_on_c, 1, 72, 0
1, 57360, Note_on_c, 0, 79, 80
1, 57360, Note_on_c, 1, 74, 80
1, 57360, Note_on_c, 1, 70, 80
1, 57383, Note_on_c, 0, 79, 0
1, 57383, Note_on_c, 1, 74, 0
1, 57383, Note_on_c, 1, 70, 0
1, 57384, Note_on_c, 0, 77, 80
1, 57384, Note_on_c, 1, 72, 80
1, 57384, Note_on_c, 1, 68, 80
1, 57407, Note_on_c, 0, 77, 0
1, 57407, Note_on_c, 1, 72, 0
1, 57407, Note_on_c, 1, 68, 0
1, 57408, Note_on_c, 0, 76, 96
1, 57408, Note_on_c, 1, 70, 96
1, 57408, Note_on_c, 1, 67, 96
1, 57504, Note_on_c, 0, 76, 0
1, 57504, Note_on_c, 0, 77, 70
1, 57504, Note_on_c, 1, 70, 0
1, 57504, Note_on_c, 1, 67, 0
1, 57504, Note_on_c, 1, 72, 70
1, 57504, Note_on_c, 1, 68, 70
1, 57524, Note_on_c, 0, 77, 0
1, 57524, Note_on_c, 1, 72, 0
1, 57524, Note_on_c, 1, 68, 0
1, 57600, Note_on_c, 0, 74, 96
1, 57600, Note_on_c, 0, 70, 96
1, 57600, Note_on_c, 1, 68, 96
1, 57600, Note_on_c, 1, 65, 96
1, 57696, Note_on_c, 0, 74, 0
1, 57696, Note_on_c, 0, 75, 70
1, 57696, Note_on_c, 1, 68, 0
1, 57696, Note_on_c, 1, 65, 0
1, 57696, Note_on_c, 1, 67, 70
1, 57716, Note_on_c, 0, 75, 0
1, 57716, Note_on_c, 0, 70, 0
1, 57716, Note_on_c, 1, 67, 0
1, 57984, Note_on_c, 0, 72, 64
1, 57984, Note_on_c, 0, 60, 64
1, 58161, Note_on_c, 0, 72, 0
1, 58161, Note_on_c, 0, 60, 0
1, 58176, Note_on_c, 0, 71, 68
1, 58176, Note_on_c, 0, 59, 68
1, 58176, Note_on_c, 1, 47, 64
1, 58176, Note_on_c, 1, 35, 64
1, 58353, Note_on_c, 0, 71, 0
1, 58353, Note_on_c, 0, 59, 0
1, 58353, Note_on_c, 1, 47, 0
1, 58353, Note_on_c, 1, 35, 0
1, 58368, Note_on_c, 0, 69, 72
1, 58368, Note_on_c, 0, 57, 72
1, 58368, Note_on_c, 1, 45, 69
1, 58368, Note_on_c, 1, 33, 69
1, 58545, Note_on_c, 0, 69, 0
1, 58545, Note_on_c, 0, 57, 0
1, 58545, Note_on_c, 1, 45, 0
1, 58545, Note_on_c, 1, 33, 0
1, 58560, Note_on_c, 0, 68, 76
1, 58560, Note_on_c, 0, 56, 76
1, 58560, Note_on_c, 1, 44, 74
1, 58560, Note_on_c, 1, 32, 74
1, 58649, Note_on_c, 0, 68, 0
1, 58649, Note_on_c, 0, 56, 0
1, 58649, Note_on_c, 1, 44, 0
1, 58649, Note_on_c, 1, 32, 0
1, 58656, Note_on_c, 0, 69, 78
1, 58656, Note_on_c, 0, 57, 78
1, 58656, Note_on_c, 1, 45, 77
1, 58656, Note_on_c, 1, 33, 77
1, 58745, Note_on_c, 0, 69, 0
1, 58745, Note_on_c, 0, 57, 0
1, 58745, Note_on_c, 1, 45, 0
1, 58745, Note_on_c, 1, 33, 0
1, 58752, Note_on_c, 0, 70, 80
1, 58752, Note_on_c, 0, 67, 80
1, 58752, Note_on_c, 0, 63, 80
1, 58752, Note_on_c, 0, 58, 80
1, 58752, Note_on_c, 1, 34, 80
1, 58764, Note_on_c, 1, 34, 0
1, 58764, Note_on_c, 1, 46, 80
1, 58776, Note_on_c, 1, 46, 0
1, 58776, Note_on_c, 1, 34, 80
1, 58788, Note_on_c, 1, 34, 0
1, 58788, Note_on_c, 1, 46, 80
1, 58800, Note_on_c, 1, 46, 0
1, 58800, Note_on_c, 1, 34, 80
1, 58812, Note_on_c, 1, 34, 0
1, 58812, Note_on_c, 1, 46, 80
1, 58824, Note_on_c, 1, 46, 0
1, 58824, Note_on_c, 1, 34, 80
1, 58836, Note_on_c, 1, 34, 0
1, 58836, Note_on_c, 1, 46, 80
1, 58841, Note_on_c, 0, 70, 0
1, 58841, Note_on_c, 0, 67, 0
1, 58841, Note_on_c, 0, 63, 0
1, 58841, Note_on_c, 0, 58, 0
1, 58848, Note_on_c, 0, 75, 80
1, 58848, Note_on_c, 0, 70, 80
1, 58848, Note_on_c, 0, 67, 80
1, 58848, Note_on_c, 1, 46, 0
1, 58848, Note_on_c, 1, 34, 80
1, 58860, Note_on_c, 1, 34, 0
1, 58860, Note_on_c, 1, 46, 80
1, 58872, Note_on_c, 1, 46, 0
1, 58872, Note_on_c, 1, 34, 80
1, 58884, Note_on_c, 1, 34, 0
1, 58884, Note_on_c, 1, 46, 80
1, 58893, Note_on_c, 0, 75, 0
1, 58893, Note_on_c, 0, 70, 0
1, 58893, Note_on_c, 0, 67, 0
1, 58896, Note_on_c, 0, 79, 80
1, 58896, Note_on_c, 0, 75, 80
1, 58896, Note_on_c, 0, 70, 80
1, 58896, Note_on_c, 1, 46, 0
1, 58896, Note_on_c, 1, 34, 80
1, 58908, Note_on_c, 1, 34, 0
1, 58908, Note_on_c, 1, 46, 80
1, 58920, Note_on_c, 1, 46, 0
1, 58920, Note_on_c, 1, 34, 80
1, 58932, Note_on_c, 1, 34, 0
1, 58932, Note_on_c, 1, 46, 80
1, 58941, Note_on_c, 0, 79, 0
1, 58941, Note_on_c, 0, 75, 0
1, 58941, Note_on_c, 0, 70, 0
1, 58944, Note_on_c, 0, 82, 80
1, 58944, Note_on_c, 0, 79, 80
1, 58944, Note_on_c, 0, 75, 80
1, 58944, Note_on_c, 1, 46, 0
1, 58944, Note_on_c, 1, 34, 80
1, 58989, Note_on_c, 0, 82, 0
1, 58989, Note_on_c, 0, 79, 0
1, 58989, Note_on_c, 0, 75, 0
1, 58989, Note_on_c, 1, 34, 0
1, 59016, Note_on_c, 0, 79, 80
1, 59016, Note_on_c, 0, 75, 80
1, 59016, Note_on_c, 1, 67, 80
1, 59016, Note_on_c, 1, 63, 80
1, 59039, Note_on_c, 0, 79, 0
1, 59039, Note_on_c, 0, 75, 0
1, 59039, Note_on_c, 1, 67, 0
1, 59039, Note_on_c, 1, 63, 0
1, 59040, Note_on_c, 0, 82, 80
1, 59040, Note_on_c, 0, 79, 80
1, 59040, Note_on_c, 1, 70, 80
1, 59040, Note_on_c, 1, 67, 80
1, 59063, Note_on_c, 0, 82, 0
1, 59063, Note_on_c, 0, 79, 0
1, 59063, Note_on_c, 1, 70, 0
1, 59063, Note_on_c, 1, 67, 0
1, 59064, Note_on_c, 0, 79, 80
1, 59064, Note_on_c, 0, 75, 80
1, 59064, Note_on_c, 1, 67, 80
1, 59064, Note_on_c, 1, 63, 80
1, 59087, Note_on_c, 0, 79, 0
1, 59087, Note_on_c, 0, 75, 0
1, 59087, Note_on_c, 1, 67, 0
1, 59087, Note_on_c, 1, 63, 0
1, 59088, Note_on_c, 0, 82, 80
1, 59088, Note_on_c, 0, 79, 80
1, 59088, Note_on_c, 1, 70, 80
1, 59088, Note_on_c, 1, 67, 80
1, 59111, Note_on_c, 0, 82, 0
1, 59111, Note_on_c, 0, 79, 0
1, 59111, Note_on_c, 1, 70, 0
1, 59111, Note_on_c, 1, 67, 0
1, 59112, Note_on_c, 0, 79, 80
1, 59112, Note_on_c, 0, 75, 80
1, 59112, Note_on_c, 1, 67, 80
1, 59112, Note_on_c, 1, 63, 80
1, 59135, Note_on_c, 0, 79, 0
1, 59135, Note_on_c, 0, 75, 0
1, 59135, Note_on_c, 1, 67, 0
1, 59135, Note_on_c, 1, 63, 0
1, 59136, Note_on_c, 0, 82, 80
1, 59136, Note_on_c, 0, 79, 80
1, 59136, Note_on_c, 1, 70, 80
1, 59136, Note_on_c, 1, 67, 80
1, 59181, Note_on_c, 0, 82, 0
1, 59181, Note_on_c, 0, 79, 0
1, 59181, Note_on_c, 1, 70, 0
1, 59181, Note_on_c, 1, 67, 0
1, 59232, Note_on_c, 0, 74, 80
1, 59232, Note_on_c, 0, 70, 80
1, 59232, Note_on_c, 0, 68, 80
1, 59232, Note_on_c, 0, 65, 80
1, 59232, Note_on_c, 1, 58, 80
1, 59232, Note_on_c, 1, 53, 80
1, 59232, Note_on_c, 1, 50, 80
1, 59232, Note_on_c, 1, 46, 80
1, 59277, Note_on_c, 0, 74, 0
1, 59277, Note_on_c, 0, 70, 0
1, 59277, Note_on_c, 0, 68, 0
1, 59277, Note_on_c, 0, 65, 0
1, 59277, Note_on_c, 1, 58, 0
1, 59277, Note_on_c, 1, 53, 0
1, 59277, Note_on_c, 1, 50, 0
1, 59277, Note_on_c, 1, 46, 0
1, 59328, Note_on_c, 0, 75, 80
1, 59328, Note_on_c, 1, 55, 80
1, 59328, Note_on_c, 1, 51, 80
1, 59340, Note_on_c, 0, 75, 0
1, 59340, Note_on_c, 0, 79, 80
1, 59352, Note_on_c, 0, 79, 0
1, 59352, Note_on_c, 0, 77, 80
1, 59364, Note_on_c, 0, 77, 0
1, 59364, Note_on_c, 0, 75, 80
1, 59373, Note_on_c, 1, 55, 0
1, 59373, Note_on_c, 1, 51, 0
1, 59376, Note_on_c, 0, 75, 0
1, 59376, Note_on_c, 0, 74, 80
1, 59388, Note_on_c, 0, 74, 0
1, 59388, Note_on_c, 0, 72, 80
1, 59400, Note_on_c, 0, 72, 0
1, 59400, Note_on_c, 0, 70, 80
1, 59412, Note_on_c, 0, 70, 0
1, 59412, Note_on_c, 0, 69, 80
1, 59424, Note_on_c, 0, 69, 0
1, 59424, Note_on_c, 0, 68, 80
1, 59424, Note_on_c, 1, 53, 80
1, 59424, Note_on_c, 1, 46, 80
1, 59436, Note_on_c, 0, 68, 0
1, 59436, Note_on_c, 0, 72, 80
1, 59448, Note_on_c, 0, 72, 0
1, 59448, Note_on_c, 0, 70, 78
1, 59460, Note_on_c, 0, 70, 0
1, 59460, Note_on_c, 0, 68, 77
1, 59469, Note_on_c, 1, 53, 0
1, 59469, Note_on_c, 1, 46, 0
1, 59472, Note_on_c, 0, 68, 0
1, 59472, Note_on_c, 0, 67, 76
1, 59484, Note_on_c, 0, 67, 0
1, 59484, Note_on_c, 0, 65, 75
1, 59496, Note_on_c, 0, 65, 0
1, 59496, Note_on_c, 0, 63, 73
1, 59508, Note_on_c, 0, 63, 0
1, 59508, Note_on_c, 0, 62, 72
1, 59520, Note_on_c, 0, 62, 0
1, 59520, Note_on_c, 0, 63, 71
1, 59520, Note_on_c, 1, 55, 80
1, 59520, Note_on_c, 1, 51, 80
1, 59532, Note_on_c, 0, 63, 0
1, 59532, Note_on_c, 0, 79, 70
1, 59544, Note_on_c, 0, 79, 0
1, 59544, Note_on_c, 0, 77, 70
1, 59556, Note_on_c, 0, 77, 0
1, 59556, Note_on_c, 0, 75, 70
1, 59565, Note_on_c, 1, 55, 0
1, 59565, Note_on_c, 1, 51, 0
1, 59568, Note_on_c, 0, 75, 0
1, 59568, Note_on_c, 0, 74, 70
1, 59580, Note_on_c, 0, 74, 0
1, 59580, Note_on_c, 0, 72, 70
1, 59592, Note_on_c, 0, 72, 0
1, 59592, Note_on_c, 0, 70, 70
1, 59604, Note_on_c, 0, 70, 0
1, 59604, Note_on_c, 0, 69, 70
1, 59616, Note_on_c, 0, 69, 0
1, 59616, Note_on_c, 0, 68, 70
1, 59616, Note_on_c, 1, 53, 80
1, 59616, Note_on_c, 1, 46, 80
1, 59628, Note_on_c, 0, 68, 0
1, 59628, Note_on_c, 0, 72, 70
1, 59640, Note_on_c, 0, 72, 0
1, 59640, Note_on_c, 0, 70, 70
1, 59652, Note_on_c, 0, 70, 0
1, 59652, Note_on_c, 0, 68, 70
1, 59661, Note_on_c, 1, 53, 0
1, 59661, Note_on_c, 1, 46, 0
1, 59664, Note_on_c, 0, 68, 0
1, 59664, Note_on_c, 0, 67, 70
1, 59676, Note_on_c, 0, 67, 0
1, 59676, Note_on_c, 0, 65, 70
1, 59688, Note_on_c, 0, 65, 0
1, 59688, Note_on_c, 0, 63, 70
1, 59700, Note_on_c, 0, 63, 0
1, 59700, Note_on_c, 0, 62, 70
1, 59712, Note_on_c, 0, 62, 0
1, 59712, Note_on_c, 0, 63, 64
1, 59712, Note_on_c, 1, 51, 64
1, 59712, Note_on_c, 1, 39, 64
1, 59724, Note_on_c, 0, 63, 0
1, 59724, Note_on_c, 0, 62, 64
1, 59736, Note_on_c, 0, 62, 0
1, 59736, Note_on_c, 0, 63, 64
1, 59748, Note_on_c, 0, 63, 0
1, 59748, Note_on_c, 0, 67, 65
1, 59757, Note_on_c, 1, 51, 0
1, 59757, Note_on_c, 1, 39, 0
1, 59760, Note_on_c, 0, 67, 0
1, 59760, Note_on_c, 0, 67, 65
1, 59760, Note_on_c, 1, 55, 65
1, 59760, Note_on_c, 1, 43, 65
1, 59772, Note_on_c, 0, 67, 0
1, 59772, Note_on_c, 0, 66, 66
1, 59784, Note_on_c, 0, 66, 0
1, 59784, Note_on_c, 0, 67, 66
1, 59796, Note_on_c, 0, 67, 0
1, 59796, Note_on_c, 0, 70, 66
1, 59805, Note_on_c, 1, 55, 0
1, 59805, Note_on_c, 1, 43, 0
1, 59808, Note_on_c, 0, 70, 0
1, 59808, Note_on_c, 0, 70, 67
1, 59808, Note_on_c, 1, 58, 67
1, 59808, Note_on_c, 1, 46, 67
1, 59820, Note_on_c, 0, 70, 0
1, 59820, Note_on_c, 0, 69, 67
1, 59832, Note_on_c, 0, 69, 0
1, 59832, Note_on_c, 0, 70, 68
1, 59844, Note_on_c, 0, 70, 0
1, 59844, Note_on_c, 0, 75, 68
1, 59853, Note_on_c, 1, 58, 0
1, 59853, Note_on_c, 1, 46, 0
1, 59856, Note_on_c, 0, 75, 0
1, 59856, Note_on_c, 0, 75, 69
1, 59856, Note_on_c, 1, 63, 69
1, 59856, Note_on_c, 1, 51, 69
1, 59868, Note_on_c, 0, 75, 0
1, 59868, Note_on_c, 0, 74, 69
1, 59880, Note_on_c, 0, 74, 0
1, 59880, Note_on_c, 0, 75, 69
1, 59892, Note_on_c, 0, 75, 0
1, 59892, Note_on_c, 0, 79, 70
1, 59901, Note_on_c, 1, 63, 0
1, 59901, Note_on_c, 1, 51, 0
1, 59904, Note_on_c, 0, 79, 0
1, 59904, Note_on_c, 0, 79, 70
1, 59904, Note_on_c, 1, 67, 71
1, 59904, Note_on_c, 1, 55, 71
1, 59916, Note_on_c, 0, 79, 0
1, 59916, Note_on_c, 0, 78, 71
1, 59928, Note_on_c, 0, 78, 0
1, 59928, Note_on_c, 0, 79, 71
1, 59940, Note_on_c, 0, 79, 0
1, 59940, Note_on_c, 0, 82, 72
1, 59949, Note_on_c, 1, 67, 0
1, 59949, Note_on_c, 1, 55, 0
1, 59952, Note_on_c, 0, 82, 0
1, 59952, Note_on_c, 0, 82, 72
1, 59952, Note_on_c, 1, 70, 72
1, 59952, Note_on_c, 1, 58, 72
1, 59964, Note_on_c, 0, 82, 0
1, 59964, Note_on_c, 0, 81, 72
1, 59976, Note_on_c, 0, 81, 0
1, 59976, Note_on_c, 0, 82, 73
1, 59988, Note_on_c, 0, 82, 0
1, 59988, Note_on_c, 0, 87, 73
1, 59997, Note_on_c, 1, 70, 0
1, 59997, Note_on_c, 1, 58, 0
1, 60000, Note_on_c, 0, 87, 0
1, 60000, Note_on_c, 0, 87, 74
1, 60000, Note_on_c, 1, 75, 74
1, 60000, Note_on_c, 1, 63, 74
1, 60012, Note_on_c, 0, 87, 0
1, 60012, Note_on_c, 0, 82, 74
1, 60024, Note_on_c, 0, 82, 0
1, 60024, Note_on_c, 0, 81, 75
1, 60036, Note_on_c, 0, 81, 0
1, 60036, Note_on_c, 0, 82, 75
1, 60045, Note_on_c, 1, 75, 0
1, 60045, Note_on_c, 1, 63, 0
1, 60048, Note_on_c, 0, 82, 0
1, 60048, Note_on_c, 0, 86, 75
1, 60048, Note_on_c, 1, 68, 76
1, 60048, Note_on_c, 1, 58, 76
1, 60060, Note_on_c, 0, 86, 0
1, 60060, Note_on_c, 0, 82, 76
1, 60072, Note_on_c, 0, 82, 0
1, 60072, Note_on_c, 0, 81, 76
1, 60084, Note_on_c, 0, 81, 0
1, 60084, Note_on_c, 0, 82, 77
1, 60093, Note_on_c, 1, 68, 0
1, 60093, Note_on_c, 1, 58, 0
1, 60096, Note_on_c, 0, 82, 0
1, 60096, Note_on_c, 0, 87, 77
1, 60096, Note_on_c, 1, 67, 78
1, 60096, Note_on_c, 1, 63, 78
1, 60108, Note_on_c, 0, 87, 0
1, 60108, Note_on_c, 0, 82, 77
1, 60120, Note_on_c, 0, 82, 0
1, 60120, Note_on_c, 0, 81, 78
1, 60132, Note_on_c, 0, 81, 0
1, 60132, Note_on_c, 0, 82, 78
1, 60141, Note_on_c, 1, 67, 0
1, 60141, Note_on_c, 1, 63, 0
1, 60144, Note_on_c, 0, 82, 0
1, 60144, Note_on_c, 0, 86, 79
1, 60144, Note_on_c, 1, 68, 80
1, 60144, Note_on_c, 1, 58, 80
1, 60156, Note_on_c, 0, 86, 0
1, 60156, Note_on_c, 0, 82, 79
1, 60168, Note_on_c, 0, 82, 0
1, 60168, Note_on_c, 0, 81, 80
1, 60180, Note_on_c, 0, 81, 0
1, 60180, Note_on_c, 0, 82, 80
1, 60189, Note_on_c, 1, 68, 0
1, 60189, Note_on_c, 1, 58, 0
1, 60192, Note_on_c, 0, 82, 0
1, 60192, Note_on_c, 0, 87, 80
1, 60192, Note_on_c, 1, 67, 81
1, 60192, Note_on_c, 1, 63, 81
1, 60204, Note_on_c, 0, 87, 0
1, 60204, Note_on_c, 0, 82, 81
1, 60216, Note_on_c, 0, 82, 0
1, 60216, Note_on_c, 0, 81, 81
1, 60228, Note_on_c, 0, 81, 0
1, 60228, Note_on_c, 0, 82, 82
1, 60237, Note_on_c, 1, 67, 0
1, 60237, Note_on_c, 1, 63, 0
1, 60240, Note_on_c, 0, 82, 0
1, 60240, Note_on_c, 0, 86, 82
1, 60240, Note_on_c, 1, 68, 83
1, 60240, Note_on_c, 1, 58, 83
1, 60252, Note_on_c, 0, 86, 0
1, 60252, Note_on_c, 0, 82, 83
1, 60264, Note_on_c, 0, 82, 0
1, 60264, Note_on_c, 0, 81, 83
1, 60276, Note_on_c, 0, 81, 0
1, 60276, Note_on_c, 0, 82, 83
1, 60285, Note_on_c, 1, 68, 0
1, 60285, Note_on_c, 1, 58, 0
1, 60288, Note_on_c, 0, 82, 0
1, 60288, Note_on_c, 0, 87, 84
1, 60288, Note_on_c, 1, 63, 85
1, 60300, Note_on_c, 1, 63, 0
1, 60300, Note_on_c, 1, 67, 86
1, 60312, Note_on_c, 1, 67, 0
1, 60312, Note_on_c, 1, 63, 86
1, 60324, Note_on_c, 1, 63, 0
1, 60324, Note_on_c, 1, 67, 86
1, 60333, Note_on_c, 0, 87, 0
1, 60336, Note_on_c, 0, 79, 86
1, 60336, Note_on_c, 0, 75, 86
1, 60336, Note_on_c, 1, 67, 0
1, 60336, Note_on_c, 1, 63, 86
1, 60348, Note_on_c, 1, 63, 0
1, 60348, Note_on_c, 1, 67, 86
1, 60360, Note_on_c, 1, 67, 0
1, 60360, Note_on_c, 1, 63, 86
1, 60372, Note_on_c, 1, 63, 0
1, 60372, Note_on_c, 1, 67, 86
1, 60381, Note_on_c, 0, 79, 0
1, 60381, Note_on_c, 0, 75, 0
1, 60384, Note_on_c, 0, 82, 86
1, 60384, Note_on_c, 0, 79, 86
1, 60384, Note_on_c, 1, 67, 0
1, 60384, Note_on_c, 1, 63, 86
1, 60396, Note_on_c, 1, 63, 0
1, 60396, Note_on_c, 1, 67, 86
1, 60408, Note_on_c, 1, 67, 0
1, 60408, Note_on_c, 1, 63, 86
1, 60420, Note_on_c, 1, 63, 0
1, 60420, Note_on_c, 1, 67, 86
1, 60429, Note_on_c, 0, 82, 0
1, 60429, Note_on_c, 0, 79, 0
1, 60432, Note_on_c, 0, 79, 86
1, 60432, Note_on_c, 0, 75, 86
1, 60432, Note_on_c, 1, 67, 0
1, 60432, Note_on_c, 1, 63, 86
1, 60444, Note_on_c, 1, 63, 0
1, 60444, Note_on_c, 1, 67, 86
1, 60456, Note_on_c, 1, 67, 0
1, 60456, Note_on_c, 1, 63, 86
1, 60468, Note_on_c, 1, 63, 0
1, 60468, Note_on_c, 1, 67, 86
1, 60477, Note_on_c, 0, 79, 0
1, 60477, Note_on_c, 0, 75, 0
1, 60480, Note_on_c, 0, 82, 86
1, 60480, Note_on_c, 0, 79, 86
1, 60480, Note_on_c, 1, 67, 0
1, 60480, Note_on_c, 1, 63, 86
1, 60492, Note_on_c, 1, 63, 0
1, 60492, Note_on_c, 1, 67, 86
1, 60504, Note_on_c, 1, 67, 0
1, 60504, Note_on_c, 1, 63, 86
1, 60516, Note_on_c, 1, 63, 0
1, 60516, Note_on_c, 1, 67, 86
1, 60525, Note_on_c, 0, 82, 0
1, 60525, Note_on_c, 0, 79, 0
1, 60528, Note_on_c, 0, 50, 93
1, 60528, Note_on_c, 1, 67, 0
1, 60528, Note_on_c, 1, 63, 86
1, 60534, Note_on_c, 0, 50, 0
1, 60534, Note_on_c, 0, 51, 109
1, 60540, Note_on_c, 1, 63, 0
1, 60540, Note_on_c, 1, 67, 86
1, 60548, Note_on_c, 0, 51, 0
1, 60552, Note_on_c, 1, 67, 0
1, 60552, Note_on_c, 1, 63, 86
1, 60564, Note_on_c, 1, 63, 0
1, 60564, Note_on_c, 1, 67, 86
1, 60576, Note_on_c, 0, 45, 93
1, 60576, Note_on_c, 1, 67, 0
1, 60576, Note_on_c, 1, 63, 86
1, 60582, Note_on_c, 0, 45, 0
1, 60582, Note_on_c, 0, 46, 109
1, 60588, Note_on_c, 1, 63, 0
1, 60588, Note_on_c, 1, 67, 86
1, 60596, Note_on_c, 0, 46, 0
1, 60600, Note_on_c, 1, 67, 0
1, 60600, Note_on_c, 1, 63, 86
1, 60612, Note_on_c, 1, 63, 0
1, 60612, Note_on_c, 1, 67, 86
1, 60624, Note_on_c, 0, 42, 93
1, 60624, Note_on_c, 1, 67, 0
1, 60624, Note_on_c, 1, 63, 86
1, 60630, Note_on_c, 0, 42, 0
1, 60630, Note_on_c, 0, 43, 109
1, 60636, Note_on_c, 1, 63, 0
1, 60636, Note_on_c, 1, 67, 86
1, 60644, Note_on_c, 0, 43, 0
1, 60648, Note_on_c, 1, 67, 0
1, 60648, Note_on_c, 1, 63, 86
1, 60660, Note_on_c, 1, 63, 0
1, 60660, Note_on_c, 1, 67, 86
1, 60672, Note_on_c, 0, 39, 109
1, 60672, Note_on_c, 1, 67, 0
1, 60672, Note_on_c, 1, 63, 86
1, 60761, Note_on_c, 1, 63, 0
1, 60768, Note_on_c, 0, 39, 0
1, 60768, Note_on_c, 0, 87, 86
1, 60768, Note_on_c, 0, 82, 86
1, 60768, Note_on_c, 0, 79, 86
1, 60768, Note_on_c, 1, 63, 86
1, 60768, Note_on_c, 1, 58, 86
1, 60768, Note_on_c, 1, 55, 86
1, 60768, Note_on_c, 1, 51, 86
1, 60857, Note_on_c, 0, 87, 0
1, 60857, Note_on_c, 0, 82, 0
1, 60857, Note_on_c, 0, 79, 0
1, 60857, Note_on_c, 1, 63, 0
1, 60857, Note_on_c, 1, 58, 0
1, 60857, Note_on_c, 1, 55, 0
1, 60857, Note_on_c, 1, 51, 0
1, 60864, Note_on_c, 0, 63, 86
1, 60864, Note_on_c, 0, 58, 86
1, 60864, Note_on_c, 0, 55, 86
1, 60864, Note_on_c, 1, 51, 86
1, 60864, Note_on_c, 1, 46, 86
1, 60864, Note_on_c, 1, 43, 86
1, 60864, Note_on_c, 1, 39, 86
1, 60997, Note_on_c, 0, 63, 0
1, 60997, Note_on_c, 0, 58, 0
1, 60997, Note_on_c, 0, 55, 0
1, 60997, Note_on_c, 1, 51, 0
1, 60997, Note_on_c, 1, 46, 0
1, 60997, Note_on_c, 1, 43, 0
1, 60997, Note_on_c, 1, 39, 0
1, 61056, Note_on_c, 1, 39, 4
1, 61145, Note_on_c, 1, 39, 0
1, 61155, End_track
0, 0, End_of_file