0, 0, Header, 0, 1, 96
1, 0, Start_track
1, 0, Tempo, 120000
1, 192, Note_on_c, 0, 76, 75
1, 215, Note_on_c, 0, 76, 0
1, 216, Note_on_c, 0, 74, 75
1, 239, Note_on_c, 0, 74, 0
1, 240, Note_on_c, 0, 76, 75
1, 263, Note_on_c, 0, 76, 0
1, 264, Note_on_c, 0, 77, 75
1, 287, Note_on_c, 0, 77, 0
1, 288, Note_on_c, 0, 79, 91
1, 384, Note_on_c, 0, 79, 0
1, 384, Note_on_c, 0, 72, 75
1, 384, Note_on_c, 1, 64, 75
1, 384, Note_on_c, 1, 60, 75
1, 473, Note_on_c, 0, 72, 0
1, 473, Note_on_c, 1, 64, 0
1, 473, Note_on_c, 1, 60, 0
1, 480, Note_on_c, 0, 72, 75
1, 480, Note_on_c, 1, 65, 75
1, 480, Note_on_c, 1, 62, 75
1, 569, Note_on_c, 0, 72, 0
1, 569, Note_on_c, 1, 65, 0
1, 569, Note_on_c, 1, 62, 0
1, 576, Note_on_c, 0, 74, 70
1, 576, Note_on_c, 1, 67, 75
1, 576, Note_on_c, 1, 64, 75
1, 591, Note_on_c, 0, 74, 0
1, 592, Note_on_c, 0, 72, 70
1, 607, Note_on_c, 0, 72, 0
1, 608, Note_on_c, 0, 74, 70
1, 623, Note_on_c, 0, 74, 0
1, 624, Note_on_c, 0, 72, 70
1, 639, Note_on_c, 0, 72, 0
1, 640, Note_on_c, 0, 74, 70
1, 655, Note_on_c, 0, 74, 0
1, 656, Note_on_c, 0, 72, 70
1, 665, Note_on_c, 1, 67, 0
1, 665, Note_on_c, 1, 64, 0
1, 671, Note_on_c, 0, 72, 0
1, 672, Note_on_c, 0, 74, 70
1, 687, Note_on_c, 0, 74, 0
1, 688, Note_on_c, 0, 72, 70
1, 703, Note_on_c, 0, 72, 0
1, 704, Note_on_c, 0, 74, 70
1, 719, Note_on_c, 0, 74, 0
1, 720, Note_on_c, 0, 72, 70
1, 767, Note_on_c, 0, 72, 0
1, 768, Note_on_c, 0, 84, 75
1, 857, Note_on_c, 0, 84, 0
1, 864, Note_on_c, 0, 83, 75
1, 864, Note_on_c, 1, 72, 75
1, 864, Note_on_c, 1, 65, 75
1, 879, Note_on_c, 0, 83, 0
1, 880, Note_on_c, 0, 81, 75
1, 895, Note_on_c, 0, 81, 0
1, 896, Note_on_c, 0, 83, 75
1, 911, Note_on_c, 0, 83, 0
1, 912, Note_on_c, 0, 81, 75
1, 927, Note_on_c, 0, 81, 0
1, 928, Note_on_c, 0, 79, 75
1, 943, Note_on_c, 0, 79, 0
1, 944, Note_on_c, 0, 81, 75
1, 953, Note_on_c, 1, 72, 0
1, 953, Note_on_c, 1, 65, 0
1, 959, Note_on_c, 0, 81, 0
1, 960, Note_on_c, 0, 79, 75
1, 960, Note_on_c, 1, 72, 75
1, 960, Note_on_c, 1, 64, 75
1, 1049, Note_on_c, 0, 79, 0
1, 1049, Note_on_c, 1, 72, 0
1, 1049, Note_on_c, 1, 64, 0
1, 1056, Note_on_c, 0, 84, 75
1, 1145, Note_on_c, 0, 84, 0
1, 1152, Note_on_c, 0, 79, 75
1, 1152, Note_on_c, 1, 67, 75
1, 1152, Note_on_c, 1, 59, 75
1, 1167, Note_on_c, 0, 79, 0
1, 1168, Note_on_c, 0, 77, 75
1, 1183, Note_on_c, 0, 77, 0
1, 1184, Note_on_c, 0, 79, 75
1, 1199, Note_on_c, 0, 79, 0
1, 1200, Note_on_c, 0, 77, 75
1, 1215, Note_on_c, 0, 77, 0
1, 1216, Note_on_c, 0, 76, 75
1, 1231, Note_on_c, 0, 76, 0
1, 1232, Note_on_c, 0, 77, 75
1, 1241, Note_on_c, 1, 67, 0
1, 1241, Note_on_c, 1, 59, 0
1, 1247, Note_on_c, 0, 77, 0
1, 1248, Note_on_c, 0, 76, 75
1, 1248, Note_on_c, 1, 67, 75
1, 1248, Note_on_c, 1, 60, 75
1, 1337, Note_on_c, 0, 76, 0
1, 1337, Note_on_c, 1, 67, 0
1, 1337, Note_on_c, 1, 60, 0
1, 1344, Note_on_c, 0, 76, 75
1, 1344, Note_on_c, 1, 67, 75
1, 1344, Note_on_c, 1, 60, 75
1, 1367, Note_on_c, 0, 76, 0
1, 1368, Note_on_c, 0, 74, 75
1, 1391, Note_on_c, 0, 74, 0
1, 1392, Note_on_c, 0, 76, 75
1, 1415, Note_on_c, 0, 76, 0
1, 1416, Note_on_c, 0, 78, 75
1, 1433, Note_on_c, 1, 67, 0
1, 1433, Note_on_c, 1, 60, 0
1, 1439, Note_on_c, 0, 78, 0
1, 1440, Note_on_c, 0, 79, 91
1, 1440, Note_on_c, 1, 67, 75
1, 1440, Note_on_c, 1, 59, 75
1, 1536, Note_on_c, 0, 79, 0
1, 1536, Note_on_c, 0, 74, 75
1, 1617, Note_on_c, 1, 67, 0
1, 1617, Note_on_c, 1, 59, 0
1, 1625, Note_on_c, 0, 74, 0
1, 1632, Note_on_c, 0, 76, 75
1, 1632, Note_on_c, 1, 67, 75
1, 1632, Note_on_c, 1, 60, 75
1, 1655, Note_on_c, 0, 76, 0
1, 1656, Note_on_c, 0, 74, 75
1, 1679, Note_on_c, 0, 74, 0
1, 1680, Note_on_c, 0, 76, 75
1, 1703, Note_on_c, 0, 76, 0
1, 1704, Note_on_c, 0, 78, 75
1, 1721, Note_on_c, 1, 67, 0
1, 1721, Note_on_c, 1, 60, 0
1, 1727, Note_on_c, 0, 78, 0
1, 1728, Note_on_c, 0, 79, 91
1, 1728, Note_on_c, 1, 67, 75
1, 1728, Note_on_c, 1, 59, 75
1, 1824, Note_on_c, 0, 79, 0
1, 1824, Note_on_c, 0, 83, 75
1, 1854, Note_on_c, 0, 83, 0
1, 1856, Note_on_c, 0, 81, 75
1, 1886, Note_on_c, 0, 81, 0
1, 1888, Note_on_c, 0, 79, 75
1, 1905, Note_on_c, 1, 67, 0
1, 1905, Note_on_c, 1, 59, 0
1, 1918, Note_on_c, 0, 79, 0
1, 1920, Note_on_c, 0, 78, 75
1, 1950, Note_on_c, 0, 78, 0
1, 1952, Note_on_c, 0, 76, 75
1, 1982, Note_on_c, 0, 76, 0
1, 1984, Note_on_c, 0, 74, 75
1, 2014, Note_on_c, 0, 74, 0
1, 2016, Note_on_c, 0, 76, 75
1, 2016, Note_on_c, 1, 60, 75
1, 2046, Note_on_c, 0, 76, 0
1, 2048, Note_on_c, 0, 74, 75
1, 2078, Note_on_c, 0, 74, 0
1, 2080, Note_on_c, 0, 72, 75
1, 2105, Note_on_c, 1, 60, 0
1, 2110, Note_on_c, 0, 72, 0
1, 2112, Note_on_c, 0, 71, 75
1, 2112, Note_on_c, 1, 62, 75
1, 2201, Note_on_c, 0, 71, 0
1, 2201, Note_on_c, 1, 62, 0
1, 2208, Note_on_c, 0, 71, 75
1, 2208, Note_on_c, 1, 50, 75
1, 2223, Note_on_c, 0, 71, 0
1, 2224, Note_on_c, 0, 69, 75
1, 2239, Note_on_c, 0, 69, 0
1, 2240, Note_on_c, 0, 71, 75
1, 2255, Note_on_c, 0, 71, 0
1, 2256, Note_on_c, 0, 69, 75
1, 2271, Note_on_c, 0, 69, 0
1, 2272, Note_on_c, 0, 67, 75
1, 2287, Note_on_c, 0, 67, 0
1, 2288, Note_on_c, 0, 69, 75
1, 2297, Note_on_c, 1, 50, 0
1, 2303, Note_on_c, 0, 69, 0
1, 2304, Note_on_c, 0, 67, 75
1, 2304, Note_on_c, 1, 55, 75
1, 2393, Note_on_c, 1, 55, 0
1, 2400, Note_on_c, 1, 43, 75
1, 2481, Note_on_c, 0, 67, 0
1, 2489, Note_on_c, 1, 43, 0
1, 2496, Note_on_c, 0, 76, 75
1, 2519, Note_on_c, 0, 76, 0
1, 2520, Note_on_c, 0, 74, 75
1, 2543, Note_on_c, 0, 74, 0
1, 2544, Note_on_c, 0, 76, 75
1, 2567, Note_on_c, 0, 76, 0
1, 2568, Note_on_c, 0, 77, 75
1, 2591, Note_on_c, 0, 77, 0
1, 2592, Note_on_c, 0, 79, 91
1, 2688, Note_on_c, 0, 79, 0
1, 2688, Note_on_c, 0, 72, 75
1, 2688, Note_on_c, 1, 64, 75
1, 2688, Note_on_c, 1, 60, 75
1, 2777, Note_on_c, 0, 72, 0
1, 2777, Note_on_c, 1, 64, 0
1, 2777, Note_on_c, 1, 60, 0
1, 2784, Note_on_c, 0, 72, 75
1, 2784, Note_on_c, 1, 65, 75
1, 2784, Note_on_c, 1, 62, 75
1, 2873, Note_on_c, 0, 72, 0
1, 2873, Note_on_c, 1, 65, 0
1, 2873, Note_on_c, 1, 62, 0
1, 2880, Note_on_c, 0, 74, 70
1, 2880, Note_on_c, 1, 67, 75
1, 2880, Note_on_c, 1, 64, 75
1, 2895, Note_on_c, 0, 74, 0
1, 2896, Note_on_c, 0, 72, 70
1, 2911, Note_on_c, 0, 72, 0
1, 2912, Note_on_c, 0, 74, 70
1, 2927, Note_on_c, 0, 74, 0
1, 2928, Note_on_c, 0, 72, 70
1, 2943, Note_on_c, 0, 72, 0
1, 2944, Note_on_c, 0, 74, 70
1, 2959, Note_on_c, 0, 74, 0
1, 2960, Note_on_c, 0, 72, 70
1, 2969, Note_on_c, 1, 67, 0
1, 2969, Note_on_c, 1, 64, 0
1, 2975, Note_on_c, 0, 72, 0
1, 2976, Note_on_c, 0, 74, 70
1, 2991, Note_on_c, 0, 74, 0
1, 2992, Note_on_c, 0, 72, 70
1, 3007, Note_on_c, 0, 72, 0
1, 3008, Note_on_c, 0, 74, 70
1, 3023, Note_on_c, 0, 74, 0
1, 3024, Note_on_c, 0, 72, 70
1, 3071, Note_on_c, 0, 72, 0
1, 3072, Note_on_c, 0, 84, 75
1, 3161, Note_on_c, 0, 84, 0
1, 3168, Note_on_c, 0, 83, 75
1, 3168, Note_on_c, 1, 72, 75
1, 3168, Note_on_c, 1, 65, 75
1, 3183, Note_on_c, 0, 83, 0
1, 3184, Note_on_c, 0, 81, 75
1, 3199, Note_on_c, 0, 81, 0
1, 3200, Note_on_c, 0, 83, 75
1, 3215, Note_on_c, 0, 83, 0
1, 3216, Note_on_c, 0, 81, 75
1, 3231, Note_on_c, 0, 81, 0
1, 3232, Note_on_c, 0, 79, 75
1, 3247, Note_on_c, 0, 79, 0
1, 3248, Note_on_c, 0, 81, 75
1, 3257, Note_on_c, 1, 72, 0
1, 3257, Note_on_c, 1, 65, 0
1, 3263, Note_on_c, 0, 81, 0
1, 3264, Note_on_c, 0, 79, 75
1, 3264, Note_on_c, 1, 72, 75
1, 3264, Note_on_c, 1, 64, 75
1, 3353, Note_on_c, 0, 79, 0
1, 3353, Note_on_c, 1, 72, 0
1, 3353, Note_on_c, 1, 64, 0
1, 3360, Note_on_c, 0, 84, 75
1, 3449, Note_on_c, 0, 84, 0
1, 3456, Note_on_c, 0, 79, 75
1, 3456, Note_on_c, 1, 67, 75
1, 3456, Note_on_c, 1, 59, 75
1, 3471, Note_on_c, 0, 79, 0
1, 3472, Note_on_c, 0, 77, 75
1, 3487, Note_on_c, 0, 77, 0
1, 3488, Note_on_c, 0, 79, 75
1, 3503, Note_on_c, 0, 79, 0
1, 3504, Note_on_c, 0, 77, 75
1, 3519, Note_on_c, 0, 77, 0
1, 3520, Note_on_c, 0, 76, 75
1, 3535, Note_on_c, 0, 76, 0
1, 3536, Note_on_c, 0, 77, 75
1, 3545, Note_on_c, 1, 67, 0
1, 3545, Note_on_c, 1, 59, 0
1, 3551, Note_on_c, 0, 77, 0
1, 3552, Note_on_c, 0, 76, 75
1, 3552, Note_on_c, 1, 67, 75
1, 3552, Note_on_c, 1, 60, 75
1, 3641, Note_on_c, 0, 76, 0
1, 3641, Note_on_c, 1, 67, 0
1, 3641, Note_on_c, 1, 60, 0
1, 3648, Note_on_c, 0, 76, 75
1, 3648, Note_on_c, 1, 67, 75
1, 3648, Note_on_c, 1, 60, 75
1, 3671, Note_on_c, 0, 76, 0
1, 3672, Note_on_c, 0, 74, 75
1, 3695, Note_on_c, 0, 74, 0
1, 3696, Note_on_c, 0, 76, 75
1, 3719, Note_on_c, 0, 76, 0
1, 3720, Note_on_c, 0, 78, 75
1, 3737, Note_on_c, 1, 67, 0
1, 3737, Note_on_c, 1, 60, 0
1, 3743, Note_on_c, 0, 78, 0
1, 3744, Note_on_c, 0, 79, 91
1, 3744, Note_on_c, 1, 67, 75
1, 3744, Note_on_c, 1, 59, 75
1, 3840, Note_on_c, 0, 79, 0
1, 3840, Note_on_c, 0, 74, 75
1, 3921, Note_on_c, 1, 67, 0
1, 3921, Note_on_c, 1, 59, 0
1, 3929, Note_on_c, 0, 74, 0
1, 3936, Note_on_c, 0, 76, 75
1, 3936, Note_on_c, 1, 67, 75
1, 3936, Note_on_c, 1, 60, 75
1, 3959, Note_on_c, 0, 76, 0
1, 3960, Note_on_c, 0, 74, 75
1, 3983, Note_on_c, 0, 74, 0
1, 3984, Note_on_c, 0, 76, 75
1, 4007, Note_on_c, 0, 76, 0
1, 4008, Note_on_c, 0, 78, 75
1, 4025, Note_on_c, 1, 67, 0
1, 4025, Note_on_c, 1, 60, 0
1, 4031, Note_on_c, 0, 78, 0
1, 4032, Note_on_c, 0, 79, 91
1, 4032, Note_on_c, 1, 67, 75
1, 4032, Note_on_c, 1, 59, 75
1, 4128, Note_on_c, 0, 79, 0
1, 4128, Note_on_c, 0, 83, 75
1, 4158, Note_on_c, 0, 83, 0
1, 4160, Note_on_c, 0, 81, 75
1, 4190, Note_on_c, 0, 81, 0
1, 4192, Note_on_c, 0, 79, 75
1, 4209, Note_on_c, 1, 67, 0
1, 4209, Note_on_c, 1, 59, 0
1, 4222, Note_on_c, 0, 79, 0
1, 4224, Note_on_c, 0, 78, 75
1, 4254, Note_on_c, 0, 78, 0
1, 4256, Note_on_c, 0, 76, 75
1, 4286, Note_on_c, 0, 76, 0
1, 4288, Note_on_c, 0, 74, 75
1, 4318, Note_on_c, 0, 74, 0
1, 4320, Note_on_c, 0, 76, 75
1, 4320, Note_on_c, 1, 60, 75
1, 4350, Note_on_c, 0, 76, 0
1, 4352, Note_on_c, 0, 74, 75
1, 4382, Note_on_c, 0, 74, 0
1, 4384, Note_on_c, 0, 72, 75
1, 4409, Note_on_c, 1, 60, 0
1, 4414, Note_on_c, 0, 72, 0
1, 4416, Note_on_c, 0, 71, 75
1, 4416, Note_on_c, 1, 62, 75
1, 4505, Note_on_c, 0, 71, 0
1, 4505, Note_on_c, 1, 62, 0
1, 4512, Note_on_c, 0, 71, 75
1, 4512, Note_on_c, 1, 50, 75
1, 4527, Note_on_c, 0, 71, 0
1, 4528, Note_on_c, 0, 69, 75
1, 4543, Note_on_c, 0, 69, 0
1, 4544, Note_on_c, 0, 71, 75
1, 4559, Note_on_c, 0, 71, 0
1, 4560, Note_on_c, 0, 69, 75
1, 4575, Note_on_c, 0, 69, 0
1, 4576, Note_on_c, 0, 67, 75
1, 4591, Note_on_c, 0, 67, 0
1, 4592, Note_on_c, 0, 69, 75
1, 4601, Note_on_c, 1, 50, 0
1, 4607, Note_on_c, 0, 69, 0
1, 4608, Note_on_c, 0, 67, 75
1, 4608, Note_on_c, 1, 55, 75
1, 4697, Note_on_c, 1, 55, 0
1, 4704, Note_on_c, 1, 43, 75
1, 4785, Note_on_c, 0, 67, 0
1, 4793, Note_on_c, 1, 43, 0
1, 4800, Note_on_c, 0, 79, 70
1, 4823, Note_on_c, 0, 79, 0
1, 4824, Note_on_c, 0, 81, 70
1, 4847, Note_on_c, 0, 81, 0
1, 4848, Note_on_c, 0, 82, 70
1, 4871, Note_on_c, 0, 82, 0
1, 4872, Note_on_c, 0, 84, 70
1, 4895, Note_on_c, 0, 84, 0
1, 4896, Note_on_c, 0, 82, 70
1, 4985, Note_on_c, 0, 82, 0
1, 4992, Note_on_c, 0, 73, 70
1, 4992, Note_on_c, 1, 70, 66
1, 4992, Note_on_c, 1, 67, 66
1, 5081, Note_on_c, 0, 73, 0
1, 5081, Note_on_c, 1, 70, 0
1, 5081, Note_on_c, 1, 67, 0
1, 5088, Note_on_c, 0, 73, 70
1, 5088, Note_on_c, 1, 70, 66
1, 5088, Note_on_c, 1, 67, 66
1, 5177, Note_on_c, 0, 73, 0
1, 5177, Note_on_c, 1, 70, 0
1, 5177, Note_on_c, 1, 67, 0
1, 5184, Note_on_c, 0, 73, 70
1, 5184, Note_on_c, 1, 69, 66
1, 5184, Note_on_c, 1, 65, 66
1, 5280, Note_on_c, 0, 73, 0
1, 5280, Note_on_c, 0, 74, 70
1, 5361, Note_on_c, 1, 69, 0
1, 5361, Note_on_c, 1, 65, 0
1, 5369, Note_on_c, 0, 74, 0
1, 5376, Note_on_c, 0, 77, 70
1, 5399, Note_on_c, 0, 77, 0
1, 5400, Note_on_c, 0, 76, 70
1, 5423, Note_on_c, 0, 76, 0
1, 5424, Note_on_c, 0, 77, 70
1, 5447, Note_on_c, 0, 77, 0
1, 5448, Note_on_c, 0, 79, 70
1, 5471, Note_on_c, 0, 79, 0
1, 5472, Note_on_c, 0, 81, 70
1, 5561, Note_on_c, 0, 81, 0
1, 5568, Note_on_c, 0, 71, 70
1, 5568, Note_on_c, 1, 67, 70
1, 5568, Note_on_c, 1, 65, 70
1, 5657, Note_on_c, 0, 71, 0
1, 5657, Note_on_c, 1, 67, 0
1, 5657, Note_on_c, 1, 65, 0
1, 5664, Note_on_c, 0, 71, 70
1, 5664, Note_on_c, 1, 67, 70
1, 5664, Note_on_c, 1, 65, 70
1, 5753, Note_on_c, 0, 71, 0
1, 5753, Note_on_c, 1, 67, 0
1, 5753, Note_on_c, 1, 65, 0
1, 5760, Note_on_c, 0, 71, 70
1, 5760, Note_on_c, 1, 67, 70
1, 5760, Note_on_c, 1, 64, 70
1, 5856, Note_on_c, 0, 71, 0
1, 5856, Note_on_c, 0, 72, 70
1, 5937, Note_on_c, 1, 67, 0
1, 5937, Note_on_c, 1, 64, 0
1, 5945, Note_on_c, 0, 72, 0
1, 5952, Note_on_c, 0, 67, 70
1, 5975, Note_on_c, 0, 67, 0
1, 5976, Note_on_c, 0, 72, 70
1, 5999, Note_on_c, 0, 72, 0
1, 6000, Note_on_c, 0, 76, 70
1, 6023, Note_on_c, 0, 76, 0
1, 6024, Note_on_c, 0, 79, 70
1, 6047, Note_on_c, 0, 79, 0
1, 6048, Note_on_c, 0, 67, 71
1, 6048, Note_on_c, 1, 64, 71
1, 6048, Note_on_c, 0, 55, 64
1, 6144, Note_on_c, 0, 67, 0
1, 6144, Note_on_c, 0, 65, 72
1, 6144, Note_on_c, 1, 64, 0
1, 6144, Note_on_c, 1, 62, 72
1, 6225, Note_on_c, 0, 55, 0
1, 6233, Note_on_c, 0, 65, 0
1, 6233, Note_on_c, 1, 62, 0
1, 6240, Note_on_c, 0, 65, 73
1, 6263, Note_on_c, 0, 65, 0
1, 6264, Note_on_c, 0, 71, 73
1, 6287, Note_on_c, 0, 71, 0
1, 6288, Note_on_c, 0, 74, 73
1, 6311, Note_on_c, 0, 74, 0
1, 6312, Note_on_c, 0, 77, 74
1, 6335, Note_on_c, 0, 77, 0
1, 6336, Note_on_c, 0, 65, 74
1, 6336, Note_on_c, 1, 62, 74
1, 6336, Note_on_c, 0, 55, 64
1, 6432, Note_on_c, 0, 65, 0
1, 6432, Note_on_c, 0, 64, 75
1, 6432, Note_on_c, 1, 62, 0
1, 6432, Note_on_c, 1, 60, 75
1, 6513, Note_on_c, 0, 55, 0
1, 6521, Note_on_c, 0, 64, 0
1, 6521, Note_on_c, 1, 60, 0
1, 6528, Note_on_c, 0, 67, 76
1, 6551, Note_on_c, 0, 67, 0
1, 6552, Note_on_c, 0, 72, 76
1, 6575, Note_on_c, 0, 72, 0
1, 6576, Note_on_c, 0, 76, 77
1, 6599, Note_on_c, 0, 76, 0
1, 6600, Note_on_c, 0, 79, 77
1, 6623, Note_on_c, 0, 79, 0
1, 6624, Note_on_c, 0, 67, 77
1, 6624, Note_on_c, 1, 64, 77
1, 6624, Note_on_c, 0, 55, 64
1, 6720, Note_on_c, 0, 67, 0
1, 6720, Note_on_c, 0, 65, 78
1, 6720, Note_on_c, 1, 64, 0
1, 6720, Note_on_c, 1, 62, 78
1, 6801, Note_on_c, 0, 55, 0
1, 6809, Note_on_c, 0, 65, 0
1, 6809, Note_on_c, 1, 62, 0
1, 6816, Note_on_c, 0, 64, 79
1, 6816, Note_on_c, 1, 60, 79
1, 6905, Note_on_c, 0, 64, 0
1, 6905, Note_on_c, 1, 60, 0
1, 6912, Note_on_c, 0, 65, 81
1, 6912, Note_on_c, 1, 60, 81
1, 6912, Note_on_c, 0, 55, 64
1, 6927, Note_on_c, 0, 65, 0
1, 6928, Note_on_c, 0, 64, 81
1, 6943, Note_on_c, 0, 64, 0
1, 6944, Note_on_c, 0, 65, 81
1, 6959, Note_on_c, 0, 65, 0
1, 6960, Note_on_c, 0, 64, 81
1, 6975, Note_on_c, 0, 64, 0
1, 6976, Note_on_c, 0, 62, 81
1, 6991, Note_on_c, 0, 62, 0
1, 6992, Note_on_c, 0, 64, 81
1, 7007, Note_on_c, 0, 64, 0
1, 7008, Note_on_c, 0, 62, 81
1, 7008, Note_on_c, 1, 60, 0
1, 7008, Note_on_c, 1, 59, 81
1, 7089, Note_on_c, 0, 55, 0
1, 7097, Note_on_c, 0, 62, 0
1, 7097, Note_on_c, 1, 59, 0
1, 7104, Note_on_c, 0, 76, 75
1, 7127, Note_on_c, 0, 76, 0
1, 7128, Note_on_c, 0, 74, 75
1, 7151, Note_on_c, 0, 74, 0
1, 7152, Note_on_c, 0, 76, 75
1, 7175, Note_on_c, 0, 76, 0
1, 7176, Note_on_c, 0, 77, 75
1, 7199, Note_on_c, 0, 77, 0
1, 7200, Note_on_c, 0, 79, 75
1, 7289, Note_on_c, 0, 79, 0
1, 7296, Note_on_c, 0, 72, 75
1, 7296, Note_on_c, 1, 64, 75
1, 7296, Note_on_c, 1, 60, 75
1, 7385, Note_on_c, 0, 72, 0
1, 7385, Note_on_c, 1, 64, 0
1, 7385, Note_on_c, 1, 60, 0
1, 7392, Note_on_c, 0, 72, 75
1, 7392, Note_on_c, 1, 65, 75
1, 7392, Note_on_c, 1, 62, 75
1, 7481, Note_on_c, 0, 72, 0
1, 7481, Note_on_c, 1, 65, 0
1, 7481, Note_on_c, 1, 62, 0
1, 7488, Note_on_c, 0, 74, 70
1, 7488, Note_on_c, 1, 67, 75
1, 7488, Note_on_c, 1, 64, 75
1, 7503, Note_on_c, 0, 74, 0
1, 7504, Note_on_c, 0, 72, 70
1, 7519, Note_on_c, 0, 72, 0
1, 7520, Note_on_c, 0, 74, 70
1, 7535, Note_on_c, 0, 74, 0
1, 7536, Note_on_c, 0, 72, 70
1, 7551, Note_on_c, 0, 72, 0
1, 7552, Note_on_c, 0, 74, 70
1, 7567, Note_on_c, 0, 74, 0
1, 7568, Note_on_c, 0, 72, 70
1, 7577, Note_on_c, 1, 67, 0
1, 7577, Note_on_c, 1, 64, 0
1, 7583, Note_on_c, 0, 72, 0
1, 7584, Note_on_c, 0, 74, 70
1, 7599, Note_on_c, 0, 74, 0
1, 7600, Note_on_c, 0, 72, 70
1, 7615, Note_on_c, 0, 72, 0
1, 7616, Note_on_c, 0, 74, 70
1, 7631, Note_on_c, 0, 74, 0
1, 7632, Note_on_c, 0, 72, 70
1, 7679, Note_on_c, 0, 72, 0
1, 7680, Note_on_c, 0, 84, 75
1, 7769, Note_on_c, 0, 84, 0
1, 7776, Note_on_c, 0, 83, 75
1, 7776, Note_on_c, 1, 72, 75
1, 7776, Note_on_c, 1, 65, 75
1, 7791, Note_on_c, 0, 83, 0
1, 7792, Note_on_c, 0, 81, 75
1, 7807, Note_on_c, 0, 81, 0
1, 7808, Note_on_c, 0, 83, 75
1, 7823, Note_on_c, 0, 83, 0
1, 7824, Note_on_c, 0, 81, 75
1, 7839, Note_on_c, 0, 81, 0
1, 7840, Note_on_c, 0, 79, 75
1, 7855, Note_on_c, 0, 79, 0
1, 7856, Note_on_c, 0, 81, 75
1, 7865, Note_on_c, 1, 72, 0
1, 7865, Note_on_c, 1, 65, 0
1, 7871, Note_on_c, 0, 81, 0
1, 7872, Note_on_c, 0, 79, 75
1, 7872, Note_on_c, 1, 72, 75
1, 7872, Note_on_c, 1, 64, 75
1, 7961, Note_on_c, 0, 79, 0
1, 7961, Note_on_c, 1, 72, 0
1, 7961, Note_on_c, 1, 64, 0
1, 7968, Note_on_c, 0, 84, 75
1, 8057, Note_on_c, 0, 84, 0
1, 8064, Note_on_c, 0, 79, 75
1, 8064, Note_on_c, 1, 67, 75
1, 8064, Note_on_c, 1, 59, 75
1, 8079, Note_on_c, 0, 79, 0
1, 8080, Note_on_c, 0, 77, 75
1, 8095, Note_on_c, 0, 77, 0
1, 8096, Note_on_c, 0, 79, 75
1, 8111, Note_on_c, 0, 79, 0
1, 8112, Note_on_c, 0, 77, 75
1, 8127, Note_on_c, 0, 77, 0
1, 8128, Note_on_c, 0, 76, 75
1, 8143, Note_on_c, 0, 76, 0
1, 8144, Note_on_c, 0, 77, 75
1, 8153, Note_on_c, 1, 67, 0
1, 8153, Note_on_c, 1, 59, 0
1, 8159, Note_on_c, 0, 77, 0
1, 8160, Note_on_c, 0, 76, 75
1, 8160, Note_on_c, 1, 67, 75
1, 8160, Note_on_c, 1, 60, 75
1, 8249, Note_on_c, 0, 76, 0
1, 8249, Note_on_c, 1, 67, 0
1, 8249, Note_on_c, 1, 60, 0
1, 8256, Note_on_c, 0, 81, 75
1, 8256, Note_on_c, 1, 65, 75
1, 8256, Note_on_c, 1, 60, 75
1, 8279, Note_on_c, 0, 81, 0
1, 8280, Note_on_c, 0, 79, 75
1, 8303, Note_on_c, 0, 79, 0
1, 8304, Note_on_c, 0, 81, 75
1, 8327, Note_on_c, 0, 81, 0
1, 8328, Note_on_c, 0, 83, 75
1, 8345, Note_on_c, 1, 65, 0
1, 8345, Note_on_c, 1, 60, 0
1, 8351, Note_on_c, 0, 83, 0
1, 8352, Note_on_c, 0, 84, 75
1, 8352, Note_on_c, 1, 64, 75
1, 8352, Note_on_c, 1, 60, 75
1, 8441, Note_on_c, 0, 84, 0
1, 8448, Note_on_c, 0, 79, 75
1, 8529, Note_on_c, 1, 64, 0
1, 8529, Note_on_c, 1, 60, 0
1, 8537, Note_on_c, 0, 79, 0
1, 8544, Note_on_c, 0, 81, 75
1, 8544, Note_on_c, 1, 65, 75
1, 8544, Note_on_c, 1, 60, 75
1, 8567, Note_on_c, 0, 81, 0
1, 8568, Note_on_c, 0, 79, 75
1, 8591, Note_on_c, 0, 79, 0
1, 8592, Note_on_c, 0, 81, 75
1, 8615, Note_on_c, 0, 81, 0
1, 8616, Note_on_c, 0, 83, 75
1, 8633, Note_on_c, 1, 65, 0
1, 8633, Note_on_c, 1, 60, 0
1, 8639, Note_on_c, 0, 83, 0
1, 8640, Note_on_c, 0, 84, 75
1, 8640, Note_on_c, 1, 64, 75
1, 8640, Note_on_c, 1, 60, 75
1, 8729, Note_on_c, 0, 84, 0
1, 8736, Note_on_c, 0, 84, 75
1, 8766, Note_on_c, 0, 84, 0
1, 8768, Note_on_c, 0, 83, 75
1, 8798, Note_on_c, 0, 83, 0
1, 8800, Note_on_c, 0, 81, 75
1, 8817, Note_on_c, 1, 64, 0
1, 8817, Note_on_c, 1, 60, 0
1, 8830, Note_on_c, 0, 81, 0
1, 8832, Note_on_c, 0, 79, 75
1, 8862, Note_on_c, 0, 79, 0
1, 8864, Note_on_c, 0, 77, 75
1, 8894, Note_on_c, 0, 77, 0
1, 8896, Note_on_c, 0, 76, 75
1, 8926, Note_on_c, 0, 76, 0
1, 8928, Note_on_c, 0, 74, 75
1, 8928, Note_on_c, 1, 65, 75
1, 8928, Note_on_c, 1, 53, 75
1, 8958, Note_on_c, 0, 74, 0
1, 8960, Note_on_c, 0, 77, 75
1, 8990, Note_on_c, 0, 77, 0
1, 8992, Note_on_c, 0, 81, 75
1, 9017, Note_on_c, 1, 65, 0
1, 9017, Note_on_c, 1, 53, 0
1, 9022, Note_on_c, 0, 81, 0
1, 9024, Note_on_c, 0, 72, 75
1, 9024, Note_on_c, 1, 64, 75
1, 9024, Note_on_c, 1, 55, 75
1, 9113, Note_on_c, 0, 72, 0
1, 9113, Note_on_c, 1, 64, 0
1, 9113, Note_on_c, 1, 55, 0
1, 9120, Note_on_c, 0, 72, 75
1, 9120, Note_on_c, 1, 62, 75
1, 9120, Note_on_c, 1, 55, 75
1, 9135, Note_on_c, 0, 72, 0
1, 9136, Note_on_c, 0, 71, 75
1, 9151, Note_on_c, 0, 71, 0
1, 9152, Note_on_c, 0, 72, 75
1, 9167, Note_on_c, 0, 72, 0
1, 9168, Note_on_c, 0, 71, 75
1, 9183, Note_on_c, 0, 71, 0
1, 9184, Note_on_c, 0, 69, 75
1, 9199, Note_on_c, 0, 69, 0
1, 9200, Note_on_c, 0, 71, 75
1, 9209, Note_on_c, 1, 62, 0
1, 9209, Note_on_c, 1, 55, 0
1, 9215, Note_on_c, 0, 71, 0
1, 9216, Note_on_c, 0, 72, 75
1, 9216, Note_on_c, 1, 60, 75
1, 9305, Note_on_c, 1, 60, 0
1, 9312, Note_on_c, 1, 48, 75
1, 9393, Note_on_c, 0, 72, 0
1, 9401, Note_on_c, 1, 48, 0
1, 9408, Note_on_c, 0, 79, 70
1, 9431, Note_on_c, 0, 79, 0
1, 9432, Note_on_c, 0, 81, 70
1, 9455, Note_on_c, 0, 81, 0
1, 9456, Note_on_c, 0, 82, 70
1, 9479, Note_on_c, 0, 82, 0
1, 9480, Note_on_c, 0, 84, 70
1, 9503, Note_on_c, 0, 84, 0
1, 9504, Note_on_c, 0, 82, 70
1, 9593, Note_on_c, 0, 82, 0
1, 9600, Note_on_c, 0, 73, 70
1, 9600, Note_on_c, 1, 70, 66
1, 9600, Note_on_c, 1, 67, 66
1, 9689, Note_on_c, 0, 73, 0
1, 9689, Note_on_c, 1, 70, 0
1, 9689, Note_on_c, 1, 67, 0
1, 9696, Note_on_c, 0, 73, 70
1, 9696, Note_on_c, 1, 70, 66
1, 9696, Note_on_c, 1, 67, 66
1, 9785, Note_on_c, 0, 73, 0
1, 9785, Note_on_c, 1, 70, 0
1, 9785, Note_on_c, 1, 67, 0
1, 9792, Note_on_c, 0, 73, 70
1, 9792, Note_on_c, 1, 69, 66
1, 9792, Note_on_c, 1, 65, 66
1, 9888, Note_on_c, 0, 73, 0
1, 9888, Note_on_c, 0, 74, 70
1, 9969, Note_on_c, 1, 69, 0
1, 9969, Note_on_c, 1, 65, 0
1, 9977, Note_on_c, 0, 74, 0
1, 9984, Note_on_c, 0, 77, 70
1, 10007, Note_on_c, 0, 77, 0
1, 10008, Note_on_c, 0, 76, 70
1, 10031, Note_on_c, 0, 76, 0
1, 10032, Note_on_c, 0, 77, 70
1, 10055, Note_on_c, 0, 77, 0
1, 10056, Note_on_c, 0, 79, 70
1, 10079, Note_on_c, 0, 79, 0
1, 10080, Note_on_c, 0, 81, 70
1, 10169, Note_on_c, 0, 81, 0
1, 10176, Note_on_c, 0, 71, 70
1, 10176, Note_on_c, 1, 67, 70
1, 10176, Note_on_c, 1, 65, 70
1, 10265, Note_on_c, 0, 71, 0
1, 10265, Note_on_c, 1, 67, 0
1, 10265, Note_on_c, 1, 65, 0
1, 10272, Note_on_c, 0, 71, 70
1, 10272, Note_on_c, 1, 67, 70
1, 10272, Note_on_c, 1, 65, 70
1, 10361, Note_on_c, 0, 71, 0
1, 10361, Note_on_c, 1, 67, 0
1, 10361, Note_on_c, 1, 65, 0
1, 10368, Note_on_c, 0, 71, 70
1, 10368, Note_on_c, 1, 67, 70
1, 10368, Note_on_c, 1, 64, 70
1, 10464, Note_on_c, 0, 71, 0
1, 10464, Note_on_c, 0, 72, 70
1, 10545, Note_on_c, 1, 67, 0
1, 10545, Note_on_c, 1, 64, 0
1, 10553, Note_on_c, 0, 72, 0
1, 10560, Note_on_c, 0, 67, 70
1, 10583, Note_on_c, 0, 67, 0
1, 10584, Note_on_c, 0, 72, 70
1, 10607, Note_on_c, 0, 72, 0
1, 10608, Note_on_c, 0, 76, 70
1, 10631, Note_on_c, 0, 76, 0
1, 10632, Note_on_c, 0, 79, 70
1, 10655, Note_on_c, 0, 79, 0
1, 10656, Note_on_c, 0, 67, 71
1, 10656, Note_on_c, 1, 64, 71
1, 10656, Note_on_c, 0, 55, 64
1, 10752, Note_on_c, 0, 67, 0
1, 10752, Note_on_c, 0, 65, 72
1, 10752, Note_on_c, 1, 64, 0
1, 10752, Note_on_c, 1, 62, 72
1, 10833, Note_on_c, 0, 55, 0
1, 10841, Note_on_c, 0, 65, 0
1, 10841, Note_on_c, 1, 62, 0
1, 10848, Note_on_c, 0, 65, 73
1, 10871, Note_on_c, 0, 65, 0
1, 10872, Note_on_c, 0, 71, 73
1, 10895, Note_on_c, 0, 71, 0
1, 10896, Note_on_c, 0, 74, 73
1, 10919, Note_on_c, 0, 74, 0
1, 10920, Note_on_c, 0, 77, 74
1, 10943, Note_on_c, 0, 77, 0
1, 10944, Note_on_c, 0, 65, 74
1, 10944, Note_on_c, 1, 62, 74
1, 10944, Note_on_c, 0, 55, 64
1, 11040, Note_on_c, 0, 65, 0
1, 11040, Note_on_c, 0, 64, 75
1, 11040, Note_on_c, 1, 62, 0
1, 11040, Note_on_c, 1, 60, 75
1, 11121, Note_on_c, 0, 55, 0
1, 11129, Note_on_c, 0, 64, 0
1, 11129, Note_on_c, 1, 60, 0
1, 11136, Note_on_c, 0, 67, 76
1, 11159, Note_on_c, 0, 67, 0
1, 11160, Note_on_c, 0, 72, 76
1, 11183, Note_on_c, 0, 72, 0
1, 11184, Note_on_c, 0, 76, 77
1, 11207, Note_on_c, 0, 76, 0
1, 11208, Note_on_c, 0, 79, 77
1, 11231, Note_on_c, 0, 79, 0
1, 11232, Note_on_c, 0, 67, 77
1, 11232, Note_on_c, 1, 64, 77
1, 11232, Note_on_c, 0, 55, 64
1, 11328, Note_on_c, 0, 67, 0
1, 11328, Note_on_c, 0, 65, 78
1, 11328, Note_on_c, 1, 64, 0
1, 11328, Note_on_c, 1, 62, 78
1, 11409, Note_on_c, 0, 55, 0
1, 11417, Note_on_c, 0, 65, 0
1, 11417, Note_on_c, 1, 62, 0
1, 11424, Note_on_c, 0, 64, 79
1, 11424, Note_on_c, 1, 60, 79
1, 11513, Note_on_c, 0, 64, 0
1, 11513, Note_on_c, 1, 60, 0
1, 11520, Note_on_c, 0, 65, 81
1, 11520, Note_on_c, 1, 60, 81
1, 11520, Note_on_c, 0, 55, 64
1, 11535, Note_on_c, 0, 65, 0
1, 11536, Note_on_c, 0, 64, 81
1, 11551, Note_on_c, 0, 64, 0
1, 11552, Note_on_c, 0, 65, 81
1, 11567, Note_on_c, 0, 65, 0
1, 11568, Note_on_c, 0, 64, 81
1, 11583, Note_on_c, 0, 64, 0
1, 11584, Note_on_c, 0, 62, 81
1, 11599, Note_on_c, 0, 62, 0
1, 11600, Note_on_c, 0, 64, 81
1, 11615, Note_on_c, 0, 64, 0
1, 11616, Note_on_c, 0, 62, 81
1, 11616, Note_on_c, 1, 60, 0
1, 11616, Note_on_c, 1, 59, 81
1, 11697, Note_on_c, 0, 55, 0
1, 11705, Note_on_c, 0, 62, 0
1, 11705, Note_on_c, 1, 59, 0
1, 11712, Note_on_c, 0, 76, 75
1, 11735, Note_on_c, 0, 76, 0
1, 11736, Note_on_c, 0, 74, 75
1, 11759, Note_on_c, 0, 74, 0
1, 11760, Note_on_c, 0, 76, 75
1, 11783, Note_on_c, 0, 76, 0
1, 11784, Note_on_c, 0, 77, 75
1, 11807, Note_on_c, 0, 77, 0
1, 11808, Note_on_c, 0, 79, 75
1, 11897, Note_on_c, 0, 79, 0
1, 11904, Note_on_c, 0, 72, 75
1, 11904, Note_on_c, 1, 64, 75
1, 11904, Note_on_c, 1, 60, 75
1, 11993, Note_on_c, 0, 72, 0
1, 11993, Note_on_c, 1, 64, 0
1, 11993, Note_on_c, 1, 60, 0
1, 12000, Note_on_c, 0, 72, 75
1, 12000, Note_on_c, 1, 65, 75
1, 12000, Note_on_c, 1, 62, 75
1, 12089, Note_on_c, 0, 72, 0
1, 12089, Note_on_c, 1, 65, 0
1, 12089, Note_on_c, 1, 62, 0
1, 12096, Note_on_c, 0, 74, 70
1, 12096, Note_on_c, 1, 67, 75
1, 12096, Note_on_c, 1, 64, 75
1, 12111, Note_on_c, 0, 74, 0
1, 12112, Note_on_c, 0, 72, 70
1, 12127, Note_on_c, 0, 72, 0
1, 12128, Note_on_c, 0, 74, 70
1, 12143, Note_on_c, 0, 74, 0
1, 12144, Note_on_c, 0, 72, 70
1, 12159, Note_on_c, 0, 72, 0
1, 12160, Note_on_c, 0, 74, 70
1, 12175, Note_on_c, 0, 74, 0
1, 12176, Note_on_c, 0, 72, 70
1, 12185, Note_on_c, 1, 67, 0
1, 12185, Note_on_c, 1, 64, 0
1, 12191, Note_on_c, 0, 72, 0
1, 12192, Note_on_c, 0, 74, 70
1, 12207, Note_on_c, 0, 74, 0
1, 12208, Note_on_c, 0, 72, 70
1, 12223, Note_on_c, 0, 72, 0
1, 12224, Note_on_c, 0, 74, 70
1, 12239, Note_on_c, 0, 74, 0
1, 12240, Note_on_c, 0, 72, 70
1, 12287, Note_on_c, 0, 72, 0
1, 12288, Note_on_c, 0, 84, 75
1, 12377, Note_on_c, 0, 84, 0
1, 12384, Note_on_c, 0, 83, 75
1, 12384, Note_on_c, 1, 72, 75
1, 12384, Note_on_c, 1, 65, 75
1, 12399, Note_on_c, 0, 83, 0
1, 12400, Note_on_c, 0, 81, 75
1, 12415, Note_on_c, 0, 81, 0
1, 12416, Note_on_c, 0, 83, 75
1, 12431, Note_on_c, 0, 83, 0
1, 12432, Note_on_c, 0, 81, 75
1, 12447, Note_on_c, 0, 81, 0
1, 12448, Note_on_c, 0, 79, 75
1, 12463, Note_on_c, 0, 79, 0
1, 12464, Note_on_c, 0, 81, 75
1, 12473, Note_on_c, 1, 72, 0
1, 12473, Note_on_c, 1, 65, 0
1, 12479, Note_on_c, 0, 81, 0
1, 12480, Note_on_c, 0, 79, 75
1, 12480, Note_on_c, 1, 72, 75
1, 12480, Note_on_c, 1, 64, 75
1, 12569, Note_on_c, 0, 79, 0
1, 12569, Note_on_c, 1, 72, 0
1, 12569, Note_on_c, 1, 64, 0
1, 12576, Note_on_c, 0, 84, 75
1, 12665, Note_on_c, 0, 84, 0
1, 12672, Note_on_c, 0, 79, 75
1, 12672, Note_on_c, 1, 67, 75
1, 12672, Note_on_c, 1, 59, 75
1, 12687, Note_on_c, 0, 79, 0
1, 12688, Note_on_c, 0, 77, 75
1, 12703, Note_on_c, 0, 77, 0
1, 12704, Note_on_c, 0, 79, 75
1, 12719, Note_on_c, 0, 79, 0
1, 12720, Note_on_c, 0, 77, 75
1, 12735, Note_on_c, 0, 77, 0
1, 12736, Note_on_c, 0, 76, 75
1, 12751, Note_on_c, 0, 76, 0
1, 12752, Note_on_c, 0, 77, 75
1, 12761, Note_on_c, 1, 67, 0
1, 12761, Note_on_c, 1, 59, 0
1, 12767, Note_on_c, 0, 77, 0
1, 12768, Note_on_c, 0, 76, 75
1, 12768, Note_on_c, 1, 67, 75
1, 12768, Note_on_c, 1, 60, 75
1, 12857, Note_on_c, 0, 76, 0
1, 12857, Note_on_c, 1, 67, 0
1, 12857, Note_on_c, 1, 60, 0
1, 12864, Note_on_c, 0, 81, 75
1, 12864, Note_on_c, 1, 65, 75
1, 12864, Note_on_c, 1, 60, 75
1, 12887, Note_on_c, 0, 81, 0
1, 12888, Note_on_c, 0, 79, 75
1, 12911, Note_on_c, 0, 79, 0
1, 12912, Note_on_c, 0, 81, 75
1, 12935, Note_on_c, 0, 81, 0
1, 12936, Note_on_c, 0, 83, 75
1, 12953, Note_on_c, 1, 65, 0
1, 12953, Note_on_c, 1, 60, 0
1, 12959, Note_on_c, 0, 83, 0
1, 12960, Note_on_c, 0, 84, 75
1, 12960, Note_on_c, 1, 64, 75
1, 12960, Note_on_c, 1, 60, 75
1, 13049, Note_on_c, 0, 84, 0
1, 13056, Note_on_c, 0, 79, 75
1, 13137, Note_on_c, 1, 64, 0
1, 13137, Note_on_c, 1, 60, 0
1, 13145, Note_on_c, 0, 79, 0
1, 13152, Note_on_c, 0, 81, 75
1, 13152, Note_on_c, 1, 65, 75
1, 13152, Note_on_c, 1, 60, 75
1, 13175, Note_on_c, 0, 81, 0
1, 13176, Note_on_c, 0, 79, 75
1, 13199, Note_on_c, 0, 79, 0
1, 13200, Note_on_c, 0, 81, 75
1, 13223, Note_on_c, 0, 81, 0
1, 13224, Note_on_c, 0, 83, 75
1, 13241, Note_on_c, 1, 65, 0
1, 13241, Note_on_c, 1, 60, 0
1, 13247, Note_on_c, 0, 83, 0
1, 13248, Note_on_c, 0, 84, 75
1, 13248, Note_on_c, 1, 64, 75
1, 13248, Note_on_c, 1, 60, 75
1, 13337, Note_on_c, 0, 84, 0
1, 13344, Note_on_c, 0, 84, 75
1, 13374, Note_on_c, 0, 84, 0
1, 13376, Note_on_c, 0, 83, 75
1, 13406, Note_on_c, 0, 83, 0
1, 13408, Note_on_c, 0, 81, 75
1, 13425, Note_on_c, 1, 64, 0
1, 13425, Note_on_c, 1, 60, 0
1, 13438, Note_on_c, 0, 81, 0
1, 13440, Note_on_c, 0, 79, 75
1, 13470, Note_on_c, 0, 79, 0
1, 13472, Note_on_c, 0, 77, 75
1, 13502, Note_on_c, 0, 77, 0
1, 13504, Note_on_c, 0, 76, 75
1, 13534, Note_on_c, 0, 76, 0
1, 13536, Note_on_c, 0, 74, 75
1, 13536, Note_on_c, 1, 65, 75
1, 13536, Note_on_c, 1, 53, 75
1, 13566, Note_on_c, 0, 74, 0
1, 13568, Note_on_c, 0, 77, 75
1, 13598, Note_on_c, 0, 77, 0
1, 13600, Note_on_c, 0, 81, 75
1, 13625, Note_on_c, 1, 65, 0
1, 13625, Note_on_c, 1, 53, 0
1, 13630, Note_on_c, 0, 81, 0
1, 13632, Note_on_c, 0, 72, 75
1, 13632, Note_on_c, 1, 64, 75
1, 13632, Note_on_c, 1, 55, 75
1, 13721, Note_on_c, 0, 72, 0
1, 13721, Note_on_c, 1, 64, 0
1, 13721, Note_on_c, 1, 55, 0
1, 13728, Note_on_c, 0, 72, 75
1, 13728, Note_on_c, 1, 62, 75
1, 13728, Note_on_c, 1, 55, 75
1, 13743, Note_on_c, 0, 72, 0
1, 13744, Note_on_c, 0, 71, 75
1, 13759, Note_on_c, 0, 71, 0
1, 13760, Note_on_c, 0, 72, 75
1, 13775, Note_on_c, 0, 72, 0
1, 13776, Note_on_c, 0, 71, 75
1, 13791, Note_on_c, 0, 71, 0
1, 13792, Note_on_c, 0, 69, 75
1, 13807, Note_on_c, 0, 69, 0
1, 13808, Note_on_c, 0, 71, 75
1, 13817, Note_on_c, 1, 62, 0
1, 13817, Note_on_c, 1, 55, 0
1, 13823, Note_on_c, 0, 71, 0
1, 13824, Note_on_c, 0, 72, 75
1, 13824, Note_on_c, 1, 60, 75
1, 13913, Note_on_c, 1, 60, 0
1, 13920, Note_on_c, 1, 48, 75
1, 14001, Note_on_c, 0, 72, 0
1, 14009, Note_on_c, 1, 48, 0
1, 14016, Note_on_c, 0, 84, 70
1, 14061, Note_on_c, 0, 84, 0
1, 14064, Note_on_c, 0, 79, 70
1, 14109, Note_on_c, 0, 79, 0
1, 14112, Note_on_c, 0, 77, 70
1, 14157, Note_on_c, 0, 77, 0
1, 14160, Note_on_c, 0, 75, 70
1, 14205, Note_on_c, 0, 75, 0
1, 14208, Note_on_c, 0, 74, 70
1, 14253, Note_on_c, 0, 74, 0
1, 14256, Note_on_c, 0, 72, 70
1, 14301, Note_on_c, 0, 72, 0
1, 14304, Note_on_c, 0, 79, 70
1, 14304, Note_on_c, 1, 63, 70
1, 14349, Note_on_c, 0, 79, 0
1, 14352, Note_on_c, 0, 72, 70
1, 14393, Note_on_c, 1, 63, 0
1, 14397, Note_on_c, 0, 72, 0
1, 14400, Note_on_c, 0, 80, 70
1, 14400, Note_on_c, 1, 65, 70
1, 14445, Note_on_c, 0, 80, 0
1, 14448, Note_on_c, 0, 72, 70
1, 14489, Note_on_c, 1, 65, 0
1, 14493, Note_on_c, 0, 72, 0
1, 14496, Note_on_c, 0, 79, 70
1, 14496, Note_on_c, 1, 63, 70
1, 14541, Note_on_c, 0, 79, 0
1, 14544, Note_on_c, 0, 72, 70
1, 14585, Note_on_c, 1, 63, 0
1, 14589, Note_on_c, 0, 72, 0
1, 14592, Note_on_c, 0, 84, 70
1, 14637, Note_on_c, 0, 84, 0
1, 14640, Note_on_c, 0, 79, 70
1, 14685, Note_on_c, 0, 79, 0
1, 14688, Note_on_c, 0, 77, 70
1, 14733, Note_on_c, 0, 77, 0
1, 14736, Note_on_c, 0, 75, 70
1, 14781, Note_on_c, 0, 75, 0
1, 14784, Note_on_c, 0, 74, 70
1, 14829, Note_on_c, 0, 74, 0
1, 14832, Note_on_c, 0, 72, 70
1, 14877, Note_on_c, 0, 72, 0
1, 14880, Note_on_c, 0, 75, 70
1, 14880, Note_on_c, 1, 67, 70
1, 14925, Note_on_c, 0, 75, 0
1, 14928, Note_on_c, 0, 72, 70
1, 14969, Note_on_c, 1, 67, 0
1, 14973, Note_on_c, 0, 72, 0
1, 14976, Note_on_c, 0, 77, 70
1, 14976, Note_on_c, 1, 68, 70
1, 15021, Note_on_c, 0, 77, 0
1, 15024, Note_on_c, 0, 72, 70
1, 15065, Note_on_c, 1, 68, 0
1, 15069, Note_on_c, 0, 72, 0
1, 15072, Note_on_c, 0, 75, 70
1, 15072, Note_on_c, 1, 67, 70
1, 15117, Note_on_c, 0, 75, 0
1, 15120, Note_on_c, 0, 72, 70
1, 15161, Note_on_c, 1, 67, 0
1, 15165, Note_on_c, 0, 72, 0
1, 15168, Note_on_c, 0, 84, 70
1, 15213, Note_on_c, 0, 84, 0
1, 15216, Note_on_c, 0, 79, 70
1, 15261, Note_on_c, 0, 79, 0
1, 15264, Note_on_c, 0, 77, 70
1, 15309, Note_on_c, 0, 77, 0
1, 15312, Note_on_c, 0, 75, 70
1, 15357, Note_on_c, 0, 75, 0
1, 15360, Note_on_c, 0, 74, 70
1, 15405, Note_on_c, 0, 74, 0
1, 15408, Note_on_c, 0, 72, 70
1, 15453, Note_on_c, 0, 72, 0
1, 15456, Note_on_c, 0, 79, 70
1, 15456, Note_on_c, 1, 51, 70
1, 15501, Note_on_c, 0, 79, 0
1, 15504, Note_on_c, 0, 72, 70
1, 15545, Note_on_c, 1, 51, 0
1, 15549, Note_on_c, 0, 72, 0
1, 15552, Note_on_c, 0, 78, 70
1, 15552, Note_on_c, 1, 50, 70
1, 15597, Note_on_c, 0, 78, 0
1, 15600, Note_on_c, 0, 72, 70
1, 15641, Note_on_c, 1, 50, 0
1, 15645, Note_on_c, 0, 72, 0
1, 15648, Note_on_c, 0, 79, 71
1, 15648, Note_on_c, 1, 52, 71
1, 15693, Note_on_c, 0, 79, 0
1, 15696, Note_on_c, 0, 72, 71
1, 15737, Note_on_c, 1, 52, 0
1, 15741, Note_on_c, 0, 72, 0
1, 15744, Note_on_c, 0, 81, 72
1, 15744, Note_on_c, 1, 54, 72
1, 15789, Note_on_c, 0, 81, 0
1, 15792, Note_on_c, 0, 72, 72
1, 15833, Note_on_c, 1, 54, 0
1, 15837, Note_on_c, 0, 72, 0
1, 15840, Note_on_c, 0, 70, 73
1, 15840, Note_on_c, 1, 55, 73
1, 15885, Note_on_c, 0, 70, 0
1, 15888, Note_on_c, 0, 67, 73
1, 15929, Note_on_c, 1, 55, 0
1, 15933, Note_on_c, 0, 67, 0
1, 15936, Note_on_c, 0, 72, 74
1, 15936, Note_on_c, 1, 57, 74
1, 15981, Note_on_c, 0, 72, 0
1, 15984, Note_on_c, 0, 67, 74
1, 16025, Note_on_c, 1, 57, 0
1, 16029, Note_on_c, 0, 67, 0
1, 16032, Note_on_c, 0, 74, 75
1, 16032, Note_on_c, 1, 58, 75
1, 16077, Note_on_c, 0, 74, 0
1, 16080, Note_on_c, 0, 67, 76
1, 16121, Note_on_c, 1, 58, 0
1, 16125, Note_on_c, 0, 67, 0
1, 16128, Note_on_c, 0, 75, 76
1, 16128, Note_on_c, 1, 60, 76
1, 16173, Note_on_c, 0, 75, 0
1, 16176, Note_on_c, 0, 72, 77
1, 16221, Note_on_c, 0, 72, 0
1, 16224, Note_on_c, 0, 70, 77
1, 16269, Note_on_c, 0, 70, 0
1, 16272, Note_on_c, 0, 69, 78
1, 16317, Note_on_c, 0, 69, 0
1, 16320, Note_on_c, 0, 78, 78
1, 16365, Note_on_c, 0, 78, 0
1, 16368, Note_on_c, 0, 74, 79
1, 16393, Note_on_c, 1, 60, 0
1, 16413, Note_on_c, 0, 74, 0
1, 16416, Note_on_c, 0, 79, 79
1, 16416, Note_on_c, 1, 58, 79
1, 16505, Note_on_c, 0, 79, 0
1, 16505, Note_on_c, 1, 58, 0
1, 16512, Note_on_c, 0, 70, 81
1, 16512, Note_on_c, 1, 62, 81
1, 16601, Note_on_c, 0, 70, 0
1, 16601, Note_on_c, 1, 62, 0
1, 16608, Note_on_c, 0, 69, 81
1, 16608, Note_on_c, 1, 50, 81
1, 16621, Note_on_c, 0, 69, 0
1, 16622, Note_on_c, 0, 70, 80
1, 16635, Note_on_c, 0, 70, 0
1, 16636, Note_on_c, 0, 69, 80
1, 16649, Note_on_c, 0, 69, 0
1, 16650, Note_on_c, 0, 70, 80
1, 16663, Note_on_c, 0, 70, 0
1, 16664, Note_on_c, 0, 69, 80
1, 16677, Note_on_c, 0, 69, 0
1, 16678, Note_on_c, 0, 67, 79
1, 16690, Note_on_c, 0, 67, 0
1, 16691, Note_on_c, 0, 69, 79
1, 16697, Note_on_c, 1, 50, 0
1, 16703, Note_on_c, 0, 69, 0
1, 16704, Note_on_c, 0, 67, 79
1, 16704, Note_on_c, 1, 55, 78
1, 16793, Note_on_c, 1, 55, 0
1, 16800, Note_on_c, 1, 43, 70
1, 16881, Note_on_c, 0, 67, 0
1, 16889, Note_on_c, 1, 43, 0
1, 16896, Note_on_c, 0, 84, 70
1, 16941, Note_on_c, 0, 84, 0
1, 16944, Note_on_c, 0, 79, 70
1, 16989, Note_on_c, 0, 79, 0
1, 16992, Note_on_c, 0, 77, 70
1, 17037, Note_on_c, 0, 77, 0
1, 17040, Note_on_c, 0, 75, 70
1, 17085, Note_on_c, 0, 75, 0
1, 17088, Note_on_c, 0, 74, 70
1, 17133, Note_on_c, 0, 74, 0
1, 17136, Note_on_c, 0, 72, 70
1, 17181, Note_on_c, 0, 72, 0
1, 17184, Note_on_c, 0, 79, 70
1, 17184, Note_on_c, 1, 63, 70
1, 17229, Note_on_c, 0, 79, 0
1, 17232, Note_on_c, 0, 72, 70
1, 17273, Note_on_c, 1, 63, 0
1, 17277, Note_on_c, 0, 72, 0
1, 17280, Note_on_c, 0, 80, 70
1, 17280, Note_on_c, 1, 65, 70
1, 17325, Note_on_c, 0, 80, 0
1, 17328, Note_on_c, 0, 72, 70
1, 17369, Note_on_c, 1, 65, 0
1, 17373, Note_on_c, 0, 72, 0
1, 17376, Note_on_c, 0, 79, 70
1, 17376, Note_on_c, 1, 63, 70
1, 17421, Note_on_c, 0, 79, 0
1, 17424, Note_on_c, 0, 72, 70
1, 17465, Note_on_c, 1, 63, 0
1, 17469, Note_on_c, 0, 72, 0
1, 17472, Note_on_c, 0, 84, 70
1, 17517, Note_on_c, 0, 84, 0
1, 17520, Note_on_c, 0, 79, 70
1, 17565, Note_on_c, 0, 79, 0
1, 17568, Note_on_c, 0, 77, 70
1, 17613, Note_on_c, 0, 77, 0
1, 17616, Note_on_c, 0, 75, 70
1, 17661, Note_on_c, 0, 75, 0
1, 17664, Note_on_c, 0, 74, 70
1, 17709, Note_on_c, 0, 74, 0
1, 17712, Note_on_c, 0, 72, 70
1, 17757, Note_on_c, 0, 72, 0
1, 17760, Note_on_c, 0, 75, 70
1, 17760, Note_on_c, 1, 67, 70
1, 17805, Note_on_c, 0, 75, 0
1, 17808, Note_on_c, 0, 72, 70
1, 17849, Note_on_c, 1, 67, 0
1, 17853, Note_on_c, 0, 72, 0
1, 17856, Note_on_c, 0, 77, 70
1, 17856, Note_on_c, 1, 68, 70
1, 17901, Note_on_c, 0, 77, 0
1, 17904, Note_on_c, 0, 72, 70
1, 17945, Note_on_c, 1, 68, 0
1, 17949, Note_on_c, 0, 72, 0
1, 17952, Note_on_c, 0, 75, 70
1, 17952, Note_on_c, 1, 67, 70
1, 17997, Note_on_c, 0, 75, 0
1, 18000, Note_on_c, 0, 72, 70
1, 18041, Note_on_c, 1, 67, 0
1, 18045, Note_on_c, 0, 72, 0
1, 18048, Note_on_c, 0, 84, 70
1, 18093, Note_on_c, 0, 84, 0
1, 18096, Note_on_c, 0, 79, 70
1, 18141, Note_on_c, 0, 79, 0
1, 18144, Note_on_c, 0, 77, 70
1, 18189, Note_on_c, 0, 77, 0
1, 18192, Note_on_c, 0, 75, 70
1, 18237, Note_on_c, 0, 75, 0
1, 18240, Note_on_c, 0, 74, 70
1, 18285, Note_on_c, 0, 74, 0
1, 18288, Note_on_c, 0, 72, 70
1, 18333, Note_on_c, 0, 72, 0
1, 18336, Note_on_c, 0, 79, 70
1, 18336, Note_on_c, 1, 51, 70
1, 18381, Note_on_c, 0, 79, 0
1, 18384, Note_on_c, 0, 72, 70
1, 18425, Note_on_c, 1, 51, 0
1, 18429, Note_on_c, 0, 72, 0
1, 18432, Note_on_c, 0, 78, 70
1, 18432, Note_on_c, 1, 50, 70
1, 18477, Note_on_c, 0, 78, 0
1, 18480, Note_on_c, 0, 72, 70
1, 18521, Note_on_c, 1, 50, 0
1, 18525, Note_on_c, 0, 72, 0
1, 18528, Note_on_c, 0, 79, 71
1, 18528, Note_on_c, 1, 52, 71
1, 18573, Note_on_c, 0, 79, 0
1, 18576, Note_on_c, 0, 72, 71
1, 18617, Note_on_c, 1, 52, 0
1, 18621, Note_on_c, 0, 72, 0
1, 18624, Note_on_c, 0, 81, 72
1, 18624, Note_on_c, 1, 54, 72
1, 18669, Note_on_c, 0, 81, 0
1, 18672, Note_on_c, 0, 72, 72
1, 18713, Note_on_c, 1, 54, 0
1, 18717, Note_on_c, 0, 72, 0
1, 18720, Note_on_c, 0, 70, 73
1, 18720, Note_on_c, 1, 55, 73
1, 18765, Note_on_c, 0, 70, 0
1, 18768, Note_on_c, 0, 67, 73
1, 18809, Note_on_c, 1, 55, 0
1, 18813, Note_on_c, 0, 67, 0
1, 18816, Note_on_c, 0, 72, 74
1, 18816, Note_on_c, 1, 57, 74
1, 18861, Note_on_c, 0, 72, 0
1, 18864, Note_on_c, 0, 67, 74
1, 18905, Note_on_c, 1, 57, 0
1, 18909, Note_on_c, 0, 67, 0
1, 18912, Note_on_c, 0, 74, 75
1, 18912, Note_on_c, 1, 58, 75
1, 18957, Note_on_c, 0, 74, 0
1, 18960, Note_on_c, 0, 67, 76
1, 19001, Note_on_c, 1, 58, 0
1, 19005, Note_on_c, 0, 67, 0
1, 19008, Note_on_c, 0, 75, 76
1, 19008, Note_on_c, 1, 60, 76
1, 19053, Note_on_c, 0, 75, 0
1, 19056, Note_on_c, 0, 72, 77
1, 19101, Note_on_c, 0, 72, 0
1, 19104, Note_on_c, 0, 70, 77
1, 19149, Note_on_c, 0, 70, 0
1, 19152, Note_on_c, 0, 69, 78
1, 19197, Note_on_c, 0, 69, 0
1, 19200, Note_on_c, 0, 78, 78
1, 19245, Note_on_c, 0, 78, 0
1, 19248, Note_on_c, 0, 74, 79
1, 19273, Note_on_c, 1, 60, 0
1, 19293, Note_on_c, 0, 74, 0
1, 19296, Note_on_c, 0, 79, 79
1, 19296, Note_on_c, 1, 58, 79
1, 19385, Note_on_c, 0, 79, 0
1, 19385, Note_on_c, 1, 58, 0
1, 19392, Note_on_c, 0, 70, 81
1, 19392, Note_on_c, 1, 62, 81
1, 19481, Note_on_c, 0, 70, 0
1, 19481, Note_on_c, 1, 62, 0
1, 19488, Note_on_c, 0, 69, 81
1, 19488, Note_on_c, 1, 50, 81
1, 19501, Note_on_c, 0, 69, 0
1, 19502, Note_on_c, 0, 70, 80
1, 19515, Note_on_c, 0, 70, 0
1, 19516, Note_on_c, 0, 69, 80
1, 19529, Note_on_c, 0, 69, 0
1, 19530, Note_on_c, 0, 70, 80
1, 19543, Note_on_c, 0, 70, 0
1, 19544, Note_on_c, 0, 69, 80
1, 19557, Note_on_c, 0, 69, 0
1, 19558, Note_on_c, 0, 67, 79
1, 19570, Note_on_c, 0, 67, 0
1, 19571, Note_on_c, 0, 69, 79
1, 19577, Note_on_c, 1, 50, 0
1, 19583, Note_on_c, 0, 69, 0
1, 19584, Note_on_c, 0, 67, 79
1, 19584, Note_on_c, 1, 55, 78
1, 19673, Note_on_c, 1, 55, 0
1, 19680, Note_on_c, 1, 43, 70
1, 19761, Note_on_c, 0, 67, 0
1, 19769, Note_on_c, 1, 43, 0
1, 19776, Note_on_c, 0, 79, 75
1, 19821, Note_on_c, 0, 79, 0
1, 19824, Note_on_c, 0, 74, 75
1, 19869, Note_on_c, 0, 74, 0
1, 19872, Note_on_c, 0, 72, 75
1, 19872, Note_on_c, 1, 62, 75
1, 19872, Note_on_c, 0, 55, 75
1, 19917, Note_on_c, 0, 72, 0
1, 19920, Note_on_c, 0, 71, 75
1, 19965, Note_on_c, 0, 71, 0
1, 19968, Note_on_c, 0, 69, 75
1, 20013, Note_on_c, 0, 69, 0
1, 20016, Note_on_c, 0, 67, 75
1, 20049, Note_on_c, 1, 62, 0
1, 20061, Note_on_c, 0, 67, 0
1, 20064, Note_on_c, 0, 71, 75
1, 20064, Note_on_c, 1, 65, 75
1, 20109, Note_on_c, 0, 71, 0
1, 20112, Note_on_c, 0, 67, 75
1, 20153, Note_on_c, 1, 65, 0
1, 20157, Note_on_c, 0, 67, 0
1, 20160, Note_on_c, 0, 72, 75
1, 20160, Note_on_c, 1, 63, 75
1, 20205, Note_on_c, 0, 72, 0
1, 20208, Note_on_c, 0, 67, 75
1, 20249, Note_on_c, 1, 63, 0
1, 20253, Note_on_c, 0, 67, 0
1, 20256, Note_on_c, 0, 74, 75
1, 20256, Note_on_c, 1, 62, 75
1, 20301, Note_on_c, 0, 74, 0
1, 20304, Note_on_c, 0, 67, 75
1, 20345, Note_on_c, 1, 62, 0
1, 20349, Note_on_c, 0, 67, 0
1, 20352, Note_on_c, 0, 75, 75
1, 20352, Note_on_c, 1, 60, 75
1, 20397, Note_on_c, 0, 75, 0
1, 20400, Note_on_c, 0, 67, 75
1, 20441, Note_on_c, 1, 60, 0
1, 20445, Note_on_c, 0, 67, 0
1, 20448, Note_on_c, 0, 74, 75
1, 20448, Note_on_c, 1, 59, 75
1, 20493, Note_on_c, 0, 74, 0
1, 20496, Note_on_c, 0, 67, 75
1, 20537, Note_on_c, 1, 59, 0
1, 20541, Note_on_c, 0, 67, 0
1, 20544, Note_on_c, 0, 77, 75
1, 20544, Note_on_c, 1, 62, 75
1, 20589, Note_on_c, 0, 77, 0
1, 20592, Note_on_c, 0, 67, 75
1, 20633, Note_on_c, 1, 62, 0
1, 20637, Note_on_c, 0, 67, 0
1, 20640, Note_on_c, 0, 75, 75
1, 20640, Note_on_c, 1, 60, 75
1, 20685, Note_on_c, 0, 75, 0
1, 20688, Note_on_c, 0, 67, 75
1, 20729, Note_on_c, 1, 60, 0
1, 20733, Note_on_c, 0, 67, 0
1, 20736, Note_on_c, 0, 75, 75
1, 20736, Note_on_c, 1, 59, 75
1, 20751, Note_on_c, 0, 75, 0
1, 20752, Note_on_c, 0, 74, 74
1, 20767, Note_on_c, 0, 74, 0
1, 20768, Note_on_c, 0, 75, 74
1, 20783, Note_on_c, 0, 75, 0
1, 20784, Note_on_c, 0, 74, 73
1, 20799, Note_on_c, 0, 74, 0
1, 20800, Note_on_c, 0, 75, 73
1, 20815, Note_on_c, 0, 75, 0
1, 20816, Note_on_c, 0, 74, 73
1, 20831, Note_on_c, 0, 74, 0
1, 20832, Note_on_c, 0, 75, 72
1, 20847, Note_on_c, 0, 75, 0
1, 20848, Note_on_c, 0, 74, 72
1, 20863, Note_on_c, 0, 74, 0
1, 20864, Note_on_c, 0, 75, 72
1, 20879, Note_on_c, 0, 75, 0
1, 20880, Note_on_c, 0, 74, 71
1, 20913, Note_on_c, 1, 59, 0
1, 20913, Note_on_c, 0, 55, 0
1, 20927, Note_on_c, 0, 74, 0
1, 20928, Note_on_c, 0, 79, 70
1, 20973, Note_on_c, 0, 79, 0
1, 20976, Note_on_c, 0, 74, 69
1, 21021, Note_on_c, 0, 74, 0
1, 21024, Note_on_c, 0, 72, 66
1, 21024, Note_on_c, 1, 62, 66
1, 21024, Note_on_c, 0, 55, 66
1, 21069, Note_on_c, 0, 72, 0
1, 21072, Note_on_c, 0, 71, 66
1, 21117, Note_on_c, 0, 71, 0
1, 21120, Note_on_c, 0, 69, 66
1, 21165, Note_on_c, 0, 69, 0
1, 21168, Note_on_c, 0, 67, 66
1, 21201, Note_on_c, 1, 62, 0
1, 21213, Note_on_c, 0, 67, 0
1, 21216, Note_on_c, 0, 71, 66
1, 21216, Note_on_c, 1, 65, 66
1, 21261, Note_on_c, 0, 71, 0
1, 21264, Note_on_c, 0, 67, 66
1, 21305, Note_on_c, 1, 65, 0
1, 21309, Note_on_c, 0, 67, 0
1, 21312, Note_on_c, 0, 72, 66
1, 21312, Note_on_c, 1, 63, 66
1, 21357, Note_on_c, 0, 72, 0
1, 21360, Note_on_c, 0, 67, 66
1, 21401, Note_on_c, 1, 63, 0
1, 21405, Note_on_c, 0, 67, 0
1, 21408, Note_on_c, 0, 74, 66
1, 21408, Note_on_c, 1, 62, 66
1, 21453, Note_on_c, 0, 74, 0
1, 21456, Note_on_c, 0, 67, 66
1, 21497, Note_on_c, 1, 62, 0
1, 21501, Note_on_c, 0, 67, 0
1, 21504, Note_on_c, 0, 75, 66
1, 21504, Note_on_c, 1, 60, 66
1, 21549, Note_on_c, 0, 75, 0
1, 21552, Note_on_c, 0, 67, 66
1, 21593, Note_on_c, 1, 60, 0
1, 21597, Note_on_c, 0, 67, 0
1, 21600, Note_on_c, 0, 67, 66
1, 21600, Note_on_c, 1, 62, 66
1, 21645, Note_on_c, 0, 67, 0
1, 21648, Note_on_c, 0, 65, 66
1, 21689, Note_on_c, 1, 62, 0
1, 21693, Note_on_c, 0, 65, 0
1, 21696, Note_on_c, 0, 74, 66
1, 21696, Note_on_c, 1, 59, 66
1, 21741, Note_on_c, 0, 74, 0
1, 21744, Note_on_c, 0, 65, 66
1, 21785, Note_on_c, 1, 59, 0
1, 21789, Note_on_c, 0, 65, 0
1, 21792, Note_on_c, 0, 63, 66
1, 21792, Note_on_c, 1, 60, 66
1, 21837, Note_on_c, 0, 63, 0
1, 21840, Note_on_c, 0, 72, 66
1, 21881, Note_on_c, 1, 60, 0
1, 21885, Note_on_c, 0, 72, 0
1, 21888, Note_on_c, 0, 63, 66
1, 21888, Note_on_c, 1, 60, 66
1, 21984, Note_on_c, 0, 63, 0
1, 21984, Note_on_c, 0, 62, 66
1, 21984, Note_on_c, 1, 60, 0
1, 21984, Note_on_c, 1, 59, 66
1, 22065, Note_on_c, 0, 62, 0
1, 22065, Note_on_c, 1, 59, 0
1, 22065, Note_on_c, 0, 55, 0
1, 22080, Note_on_c, 0, 84, 70
1, 22125, Note_on_c, 0, 84, 0
1, 22128, Note_on_c, 0, 79, 70
1, 22173, Note_on_c, 0, 79, 0
1, 22176, Note_on_c, 0, 77, 70
1, 22221, Note_on_c, 0, 77, 0
1, 22224, Note_on_c, 0, 75, 70
1, 22269, Note_on_c, 0, 75, 0
1, 22272, Note_on_c, 0, 74, 70
1, 22317, Note_on_c, 0, 74, 0
1, 22320, Note_on_c, 0, 72, 70
1, 22365, Note_on_c, 0, 72, 0
1, 22368, Note_on_c, 0, 79, 70
1, 22368, Note_on_c, 1, 63, 70
1, 22413, Note_on_c, 0, 79, 0
1, 22416, Note_on_c, 0, 72, 70
1, 22457, Note_on_c, 1, 63, 0
1, 22461, Note_on_c, 0, 72, 0
1, 22464, Note_on_c, 0, 80, 70
1, 22464, Note_on_c, 1, 65, 70
1, 22509, Note_on_c, 0, 80, 0
1, 22512, Note_on_c, 0, 72, 70
1, 22553, Note_on_c, 1, 65, 0
1, 22557, Note_on_c, 0, 72, 0
1, 22560, Note_on_c, 0, 79, 70
1, 22560, Note_on_c, 1, 63, 70
1, 22605, Note_on_c, 0, 79, 0
1, 22608, Note_on_c, 0, 72, 70
1, 22649, Note_on_c, 1, 63, 0
1, 22653, Note_on_c, 0, 72, 0
1, 22656, Note_on_c, 0, 84, 70
1, 22701, Note_on_c, 0, 84, 0
1, 22704, Note_on_c, 0, 79, 70
1, 22749, Note_on_c, 0, 79, 0
1, 22752, Note_on_c, 0, 77, 70
1, 22797, Note_on_c, 0, 77, 0
1, 22800, Note_on_c, 0, 75, 70
1, 22845, Note_on_c, 0, 75, 0
1, 22848, Note_on_c, 0, 74, 70
1, 22893, Note_on_c, 0, 74, 0
1, 22896, Note_on_c, 0, 72, 70
1, 22941, Note_on_c, 0, 72, 0
1, 22944, Note_on_c, 0, 75, 70
1, 22944, Note_on_c, 1, 67, 70
1, 22989, Note_on_c, 0, 75, 0
1, 22992, Note_on_c, 0, 72, 70
1, 23033, Note_on_c, 1, 67, 0
1, 23037, Note_on_c, 0, 72, 0
1, 23040, Note_on_c, 0, 77, 70
1, 23040, Note_on_c, 1, 68, 70
1, 23085, Note_on_c, 0, 77, 0
1, 23088, Note_on_c, 0, 72, 70
1, 23129, Note_on_c, 1, 68, 0
1, 23133, Note_on_c, 0, 72, 0
1, 23136, Note_on_c, 0, 75, 70
1, 23136, Note_on_c, 1, 67, 70
1, 23181, Note_on_c, 0, 75, 0
1, 23184, Note_on_c, 0, 72, 70
1, 23225, Note_on_c, 1, 67, 0
1, 23229, Note_on_c, 0, 72, 0
1, 23232, Note_on_c, 0, 84, 70
1, 23277, Note_on_c, 0, 84, 0
1, 23280, Note_on_c, 0, 79, 70
1, 23325, Note_on_c, 0, 79, 0
1, 23328, Note_on_c, 0, 77, 70
1, 23373, Note_on_c, 0, 77, 0
1, 23376, Note_on_c, 0, 75, 70
1, 23421, Note_on_c, 0, 75, 0
1, 23424, Note_on_c, 0, 74, 70
1, 23469, Note_on_c, 0, 74, 0
1, 23472, Note_on_c, 0, 72, 70
1, 23517, Note_on_c, 0, 72, 0
1, 23520, Note_on_c, 0, 79, 70
1, 23520, Note_on_c, 1, 63, 70
1, 23565, Note_on_c, 0, 79, 0
1, 23568, Note_on_c, 0, 72, 70
1, 23609, Note_on_c, 1, 63, 0
1, 23613, Note_on_c, 0, 72, 0
1, 23616, Note_on_c, 0, 80, 70
1, 23616, Note_on_c, 1, 65, 70
1, 23661, Note_on_c, 0, 80, 0
1, 23664, Note_on_c, 0, 77, 70
1, 23709, Note_on_c, 0, 77, 0
1, 23712, Note_on_c, 0, 75, 70
1, 23757, Note_on_c, 0, 75, 0
1, 23760, Note_on_c, 0, 74, 70
1, 23805, Note_on_c, 0, 74, 0
1, 23808, Note_on_c, 0, 72, 70
1, 23853, Note_on_c, 0, 72, 0
1, 23856, Note_on_c, 0, 71, 70
1, 23881, Note_on_c, 1, 65, 0
1, 23901, Note_on_c, 0, 71, 0
1, 23904, Note_on_c, 0, 72, 70
1, 23904, Note_on_c, 1, 63, 70
1, 23993, Note_on_c, 0, 72, 0
1, 23993, Note_on_c, 1, 63, 0
1, 24000, Note_on_c, 0, 75, 70
1, 24000, Note_on_c, 1, 65, 70
1, 24045, Note_on_c, 0, 75, 0
1, 24048, Note_on_c, 0, 74, 70
1, 24089, Note_on_c, 1, 65, 0
1, 24093, Note_on_c, 0, 74, 0
1, 24096, Note_on_c, 0, 72, 70
1, 24096, Note_on_c, 1, 67, 70
1, 24141, Note_on_c, 0, 72, 0
1, 24144, Note_on_c, 0, 71, 70
1, 24185, Note_on_c, 1, 67, 0
1, 24189, Note_on_c, 0, 71, 0
1, 24192, Note_on_c, 0, 72, 70
1, 24192, Note_on_c, 1, 60, 70
1, 24281, Note_on_c, 0, 72, 0
1, 24281, Note_on_c, 1, 60, 0
1, 24288, Note_on_c, 1, 48, 70
1, 24377, Note_on_c, 1, 48, 0
1, 24384, Note_on_c, 0, 79, 75
1, 24429, Note_on_c, 0, 79, 0
1, 24432, Note_on_c, 0, 74, 75
1, 24477, Note_on_c, 0, 74, 0
1, 24480, Note_on_c, 0, 72, 75
1, 24480, Note_on_c, 1, 62, 75
1, 24480, Note_on_c, 0, 55, 75
1, 24525, Note_on_c, 0, 72, 0
1, 24528, Note_on_c, 0, 71, 75
1, 24573, Note_on_c, 0, 71, 0
1, 24576, Note_on_c, 0, 69, 75
1, 24621, Note_on_c, 0, 69, 0
1, 24624, Note_on_c, 0, 67, 75
1, 24657, Note_on_c, 1, 62, 0
1, 24669, Note_on_c, 0, 67, 0
1, 24672, Note_on_c, 0, 71, 75
1, 24672, Note_on_c, 1, 65, 75
1, 24717, Note_on_c, 0, 71, 0
1, 24720, Note_on_c, 0, 67, 75
1, 24761, Note_on_c, 1, 65, 0
1, 24765, Note_on_c, 0, 67, 0
1, 24768, Note_on_c, 0, 72, 75
1, 24768, Note_on_c, 1, 63, 75
1, 24813, Note_on_c, 0, 72, 0
1, 24816, Note_on_c, 0, 67, 75
1, 24857, Note_on_c, 1, 63, 0
1, 24861, Note_on_c, 0, 67, 0
1, 24864, Note_on_c, 0, 74, 75
1, 24864, Note_on_c, 1, 62, 75
1, 24909, Note_on_c, 0, 74, 0
1, 24912, Note_on_c, 0, 67, 75
1, 24953, Note_on_c, 1, 62, 0
1, 24957, Note_on_c, 0, 67, 0
1, 24960, Note_on_c, 0, 75, 75
1, 24960, Note_on_c, 1, 60, 75
1, 25005, Note_on_c, 0, 75, 0
1, 25008, Note_on_c, 0, 67, 75
1, 25049, Note_on_c, 1, 60, 0
1, 25053, Note_on_c, 0, 67, 0
1, 25056, Note_on_c, 0, 74, 75
1, 25056, Note_on_c, 1, 59, 75
1, 25101, Note_on_c, 0, 74, 0
1, 25104, Note_on_c, 0, 67, 75
1, 25145, Note_on_c, 1, 59, 0
1, 25149, Note_on_c, 0, 67, 0
1, 25152, Note_on_c, 0, 77, 75
1, 25152, Note_on_c, 1, 62, 75
1, 25197, Note_on_c, 0, 77, 0
1, 25200, Note_on_c, 0, 67, 75
1, 25241, Note_on_c, 1, 62, 0
1, 25245, Note_on_c, 0, 67, 0
1, 25248, Note_on_c, 0, 75, 75
1, 25248, Note_on_c, 1, 60, 75
1, 25293, Note_on_c, 0, 75, 0
1, 25296, Note_on_c, 0, 67, 75
1, 25337, Note_on_c, 1, 60, 0
1, 25341, Note_on_c, 0, 67, 0
1, 25344, Note_on_c, 0, 75, 75
1, 25344, Note_on_c, 1, 59, 75
1, 25359, Note_on_c, 0, 75, 0
1, 25360, Note_on_c, 0, 74, 74
1, 25375, Note_on_c, 0, 74, 0
1, 25376, Note_on_c, 0, 75, 74
1, 25391, Note_on_c, 0, 75, 0
1, 25392, Note_on_c, 0, 74, 73
1, 25407, Note_on_c, 0, 74, 0
1, 25408, Note_on_c, 0, 75, 73
1, 25423, Note_on_c, 0, 75, 0
1, 25424, Note_on_c, 0, 74, 73
1, 25439, Note_on_c, 0, 74, 0
1, 25440, Note_on_c, 0, 75, 72
1, 25455, Note_on_c, 0, 75, 0
1, 25456, Note_on_c, 0, 74, 72
1, 25471, Note_on_c, 0, 74, 0
1, 25472, Note_on_c, 0, 75, 72
1, 25487, Note_on_c, 0, 75, 0
1, 25488, Note_on_c, 0, 74, 71
1, 25521, Note_on_c, 1, 59, 0
1, 25521, Note_on_c, 0, 55, 0
1, 25535, Note_on_c, 0, 74, 0
1, 25536, Note_on_c, 0, 79, 70
1, 25581, Note_on_c, 0, 79, 0
1, 25584, Note_on_c, 0, 74, 69
1, 25629, Note_on_c, 0, 74, 0
1, 25632, Note_on_c, 0, 72, 66
1, 25632, Note_on_c, 1, 62, 66
1, 25632, Note_on_c, 0, 55, 66
1, 25677, Note_on_c, 0, 72, 0
1, 25680, Note_on_c, 0, 71, 66
1, 25725, Note_on_c, 0, 71, 0
1, 25728, Note_on_c, 0, 69, 66
1, 25773, Note_on_c, 0, 69, 0
1, 25776, Note_on_c, 0, 67, 66
1, 25809, Note_on_c, 1, 62, 0
1, 25821, Note_on_c, 0, 67, 0
1, 25824, Note_on_c, 0, 71, 66
1, 25824, Note_on_c, 1, 65, 66
1, 25869, Note_on_c, 0, 71, 0
1, 25872, Note_on_c, 0, 67, 66
1, 25913, Note_on_c, 1, 65, 0
1, 25917, Note_on_c, 0, 67, 0
1, 25920, Note_on_c, 0, 72, 66
1, 25920, Note_on_c, 1, 63, 66
1, 25965, Note_on_c, 0, 72, 0
1, 25968, Note_on_c, 0, 67, 66
1, 26009, Note_on_c, 1, 63, 0
1, 26013, Note_on_c, 0, 67, 0
1, 26016, Note_on_c, 0, 74, 66
1, 26016, Note_on_c, 1, 62, 66
1, 26061, Note_on_c, 0, 74, 0
1, 26064, Note_on_c, 0, 67, 66
1, 26105, Note_on_c, 1, 62, 0
1, 26109, Note_on_c, 0, 67, 0
1, 26112, Note_on_c, 0, 75, 66
1, 26112, Note_on_c, 1, 60, 66
1, 26157, Note_on_c, 0, 75, 0
1, 26160, Note_on_c, 0, 67, 66
1, 26201, Note_on_c, 1, 60, 0
1, 26205, Note_on_c, 0, 67, 0
1, 26208, Note_on_c, 0, 67, 66
1, 26208, Note_on_c, 1, 62, 66
1, 26253, Note_on_c, 0, 67, 0
1, 26256, Note_on_c, 0, 65, 66
1, 26297, Note_on_c, 1, 62, 0
1, 26301, Note_on_c, 0, 65, 0
1, 26304, Note_on_c, 0, 74, 66
1, 26304, Note_on_c, 1, 59, 66
1, 26349, Note_on_c, 0, 74, 0
1, 26352, Note_on_c, 0, 65, 66
1, 26393, Note_on_c, 1, 59, 0
1, 26397, Note_on_c, 0, 65, 0
1, 26400, Note_on_c, 0, 63, 66
1, 26400, Note_on_c, 1, 60, 66
1, 26445, Note_on_c, 0, 63, 0
1, 26448, Note_on_c, 0, 72, 66
1, 26489, Note_on_c, 1, 60, 0
1, 26493, Note_on_c, 0, 72, 0
1, 26496, Note_on_c, 0, 63, 66
1, 26496, Note_on_c, 1, 60, 66
1, 26592, Note_on_c, 0, 63, 0
1, 26592, Note_on_c, 0, 62, 66
1, 26592, Note_on_c, 1, 60, 0
1, 26592, Note_on_c, 1, 59, 66
1, 26673, Note_on_c, 0, 62, 0
1, 26673, Note_on_c, 1, 59, 0
1, 26673, Note_on_c, 0, 55, 0
1, 26688, Note_on_c, 0, 84, 70
1, 26733, Note_on_c, 0, 84, 0
1, 26736, Note_on_c, 0, 79, 70
1, 26781, Note_on_c, 0, 79, 0
1, 26784, Note_on_c, 0, 77, 70
1, 26829, Note_on_c, 0, 77, 0
1, 26832, Note_on_c, 0, 75, 70
1, 26877, Note_on_c, 0, 75, 0
1, 26880, Note_on_c, 0, 74, 70
1, 26925, Note_on_c, 0, 74, 0
1, 26928, Note_on_c, 0, 72, 70
1, 26973, Note_on_c, 0, 72, 0
1, 26976, Note_on_c, 0, 79, 70
1, 26976, Note_on_c, 1, 63, 70
1, 27021, Note_on_c, 0, 79, 0
1, 27024, Note_on_c, 0, 72, 70
1, 27065, Note_on_c, 1, 63, 0
1, 27069, Note_on_c, 0, 72, 0
1, 27072, Note_on_c, 0, 80, 70
1, 27072, Note_on_c, 1, 65, 70
1, 27117, Note_on_c, 0, 80, 0
1, 27120, Note_on_c, 0, 72, 70
1, 27161, Note_on_c, 1, 65, 0
1, 27165, Note_on_c, 0, 72, 0
1, 27168, Note_on_c, 0, 79, 70
1, 27168, Note_on_c, 1, 63, 70
1, 27213, Note_on_c, 0, 79, 0
1, 27216, Note_on_c, 0, 72, 70
1, 27257, Note_on_c, 1, 63, 0
1, 27261, Note_on_c, 0, 72, 0
1, 27264, Note_on_c, 0, 84, 70
1, 27309, Note_on_c, 0, 84, 0
1, 27312, Note_on_c, 0, 79, 70
1, 27357, Note_on_c, 0, 79, 0
1, 27360, Note_on_c, 0, 77, 70
1, 27405, Note_on_c, 0, 77, 0
1, 27408, Note_on_c, 0, 75, 70
1, 27453, Note_on_c, 0, 75, 0
1, 27456, Note_on_c, 0, 74, 70
1, 27501, Note_on_c, 0, 74, 0
1, 27504, Note_on_c, 0, 72, 70
1, 27549, Note_on_c, 0, 72, 0
1, 27552, Note_on_c, 0, 75, 70
1, 27552, Note_on_c, 1, 67, 70
1, 27597, Note_on_c, 0, 75, 0
1, 27600, Note_on_c, 0, 72, 70
1, 27641, Note_on_c, 1, 67, 0
1, 27645, Note_on_c, 0, 72, 0
1, 27648, Note_on_c, 0, 77, 70
1, 27648, Note_on_c, 1, 68, 70
1, 27693, Note_on_c, 0, 77, 0
1, 27696, Note_on_c, 0, 72, 70
1, 27737, Note_on_c, 1, 68, 0
1, 27741, Note_on_c, 0, 72, 0
1, 27744, Note_on_c, 0, 75, 70
1, 27744, Note_on_c, 1, 67, 70
1, 27789, Note_on_c, 0, 75, 0
1, 27792, Note_on_c, 0, 72, 70
1, 27833, Note_on_c, 1, 67, 0
1, 27837, Note_on_c, 0, 72, 0
1, 27840, Note_on_c, 0, 84, 70
1, 27885, Note_on_c, 0, 84, 0
1, 27888, Note_on_c, 0, 79, 70
1, 27933, Note_on_c, 0, 79, 0
1, 27936, Note_on_c, 0, 77, 70
1, 27981, Note_on_c, 0, 77, 0
1, 27984, Note_on_c, 0, 75, 70
1, 28029, Note_on_c, 0, 75, 0
1, 28032, Note_on_c, 0, 74, 70
1, 28077, Note_on_c, 0, 74, 0
1, 28080, Note_on_c, 0, 72, 70
1, 28125, Note_on_c, 0, 72, 0
1, 28128, Note_on_c, 0, 79, 70
1, 28128, Note_on_c, 1, 63, 70
1, 28173, Note_on_c, 0, 79, 0
1, 28176, Note_on_c, 0, 72, 70
1, 28217, Note_on_c, 1, 63, 0
1, 28221, Note_on_c, 0, 72, 0
1, 28224, Note_on_c, 0, 80, 70
1, 28224, Note_on_c, 1, 65, 70
1, 28269, Note_on_c, 0, 80, 0
1, 28272, Note_on_c, 0, 77, 70
1, 28317, Note_on_c, 0, 77, 0
1, 28320, Note_on_c, 0, 75, 70
1, 28365, Note_on_c, 0, 75, 0
1, 28368, Note_on_c, 0, 74, 70
1, 28413, Note_on_c, 0, 74, 0
1, 28416, Note_on_c, 0, 72, 70
1, 28461, Note_on_c, 0, 72, 0
1, 28464, Note_on_c, 0, 71, 70
1, 28489, Note_on_c, 1, 65, 0
1, 28509, Note_on_c, 0, 71, 0
1, 28512, Note_on_c, 0, 72, 70
1, 28512, Note_on_c, 1, 63, 70
1, 28601, Note_on_c, 0, 72, 0
1, 28601, Note_on_c, 1, 63, 0
1, 28608, Note_on_c, 0, 75, 70
1, 28608, Note_on_c, 1, 65, 70
1, 28653, Note_on_c, 0, 75, 0
1, 28656, Note_on_c, 0, 74, 70
1, 28697, Note_on_c, 1, 65, 0
1, 28701, Note_on_c, 0, 74, 0
1, 28704, Note_on_c, 0, 72, 70
1, 28704, Note_on_c, 1, 67, 70
1, 28749, Note_on_c, 0, 72, 0
1, 28752, Note_on_c, 0, 71, 70
1, 28793, Note_on_c, 1, 67, 0
1, 28797, Note_on_c, 0, 71, 0
1, 28800, Note_on_c, 0, 72, 70
1, 28800, Note_on_c, 1, 60, 70
1, 28889, Note_on_c, 0, 72, 0
1, 28889, Note_on_c, 1, 60, 0
1, 28896, Note_on_c, 1, 48, 70
1, 28985, Note_on_c, 1, 48, 0
1, 28992, Note_on_c, 0, 76, 75
1, 29015, Note_on_c, 0, 76, 0
1, 29016, Note_on_c, 0, 74, 75
1, 29039, Note_on_c, 0, 74, 0
1, 29040, Note_on_c, 0, 76, 75
1, 29063, Note_on_c, 0, 76, 0
1, 29064, Note_on_c, 0, 77, 75
1, 29087, Note_on_c, 0, 77, 0
1, 29088, Note_on_c, 0, 79, 91
1, 29184, Note_on_c, 0, 79, 0
1, 29184, Note_on_c, 0, 72, 75
1, 29184, Note_on_c, 1, 64, 75
1, 29184, Note_on_c, 1, 60, 75
1, 29273, Note_on_c, 0, 72, 0
1, 29273, Note_on_c, 1, 64, 0
1, 29273, Note_on_c, 1, 60, 0
1, 29280, Note_on_c, 0, 72, 75
1, 29280, Note_on_c, 1, 65, 75
1, 29280, Note_on_c, 1, 62, 75
1, 29369, Note_on_c, 0, 72, 0
1, 29369, Note_on_c, 1, 65, 0
1, 29369, Note_on_c, 1, 62, 0
1, 29376, Note_on_c, 0, 74, 70
1, 29376, Note_on_c, 1, 67, 75
1, 29376, Note_on_c, 1, 64, 75
1, 29391, Note_on_c, 0, 74, 0
1, 29392, Note_on_c, 0, 72, 70
1, 29407, Note_on_c, 0, 72, 0
1, 29408, Note_on_c, 0, 74, 70
1, 29423, Note_on_c, 0, 74, 0
1, 29424, Note_on_c, 0, 72, 70
1, 29439, Note_on_c, 0, 72, 0
1, 29440, Note_on_c, 0, 74, 70
1, 29455, Note_on_c, 0, 74, 0
1, 29456, Note_on_c, 0, 72, 70
1, 29465, Note_on_c, 1, 67, 0
1, 29465, Note_on_c, 1, 64, 0
1, 29471, Note_on_c, 0, 72, 0
1, 29472, Note_on_c, 0, 74, 70
1, 29487, Note_on_c, 0, 74, 0
1, 29488, Note_on_c, 0, 72, 70
1, 29503, Note_on_c, 0, 72, 0
1, 29504, Note_on_c, 0, 74, 70
1, 29519, Note_on_c, 0, 74, 0
1, 29520, Note_on_c, 0, 72, 70
1, 29567, Note_on_c, 0, 72, 0
1, 29568, Note_on_c, 0, 84, 75
1, 29657, Note_on_c, 0, 84, 0
1, 29664, Note_on_c, 0, 83, 75
1, 29664, Note_on_c, 1, 72, 75
1, 29664, Note_on_c, 1, 65, 75
1, 29679, Note_on_c, 0, 83, 0
1, 29680, Note_on_c, 0, 81, 75
1, 29695, Note_on_c, 0, 81, 0
1, 29696, Note_on_c, 0, 83, 75
1, 29711, Note_on_c, 0, 83, 0
1, 29712, Note_on_c, 0, 81, 75
1, 29727, Note_on_c, 0, 81, 0
1, 29728, Note_on_c, 0, 79, 75
1, 29743, Note_on_c, 0, 79, 0
1, 29744, Note_on_c, 0, 81, 75
1, 29753, Note_on_c, 1, 72, 0
1, 29753, Note_on_c, 1, 65, 0
1, 29759, Note_on_c, 0, 81, 0
1, 29760, Note_on_c, 0, 79, 75
1, 29760, Note_on_c, 1, 72, 75
1, 29760, Note_on_c, 1, 64, 75
1, 29849, Note_on_c, 0, 79, 0
1, 29849, Note_on_c, 1, 72, 0
1, 29849, Note_on_c, 1, 64, 0
1, 29856, Note_on_c, 0, 84, 75
1, 29945, Note_on_c, 0, 84, 0
1, 29952, Note_on_c, 0, 79, 75
1, 29952, Note_on_c, 1, 67, 75
1, 29952, Note_on_c, 1, 59, 75
1, 29967, Note_on_c, 0, 79, 0
1, 29968, Note_on_c, 0, 77, 75
1, 29983, Note_on_c, 0, 77, 0
1, 29984, Note_on_c, 0, 79, 75
1, 29999, Note_on_c, 0, 79, 0
1, 30000, Note_on_c, 0, 77, 75
1, 30015, Note_on_c, 0, 77, 0
1, 30016, Note_on_c, 0, 76, 75
1, 30031, Note_on_c, 0, 76, 0
1, 30032, Note_on_c, 0, 77, 75
1, 30041, Note_on_c, 1, 67, 0
1, 30041, Note_on_c, 1, 59, 0
1, 30047, Note_on_c, 0, 77, 0
1, 30048, Note_on_c, 0, 76, 75
1, 30048, Note_on_c, 1, 67, 75
1, 30048, Note_on_c, 1, 60, 75
1, 30137, Note_on_c, 0, 76, 0
1, 30137, Note_on_c, 1, 67, 0
1, 30137, Note_on_c, 1, 60, 0
1, 30144, Note_on_c, 0, 76, 75
1, 30144, Note_on_c, 1, 67, 75
1, 30144, Note_on_c, 1, 60, 75
1, 30167, Note_on_c, 0, 76, 0
1, 30168, Note_on_c, 0, 74, 75
1, 30191, Note_on_c, 0, 74, 0
1, 30192, Note_on_c, 0, 76, 75
1, 30215, Note_on_c, 0, 76, 0
1, 30216, Note_on_c, 0, 78, 75
1, 30233, Note_on_c, 1, 67, 0
1, 30233, Note_on_c, 1, 60, 0
1, 30239, Note_on_c, 0, 78, 0
1, 30240, Note_on_c, 0, 79, 91
1, 30240, Note_on_c, 1, 67, 75
1, 30240, Note_on_c, 1, 59, 75
1, 30336, Note_on_c, 0, 79, 0
1, 30336, Note_on_c, 0, 74, 75
1, 30417, Note_on_c, 1, 67, 0
1, 30417, Note_on_c, 1, 59, 0
1, 30425, Note_on_c, 0, 74, 0
1, 30432, Note_on_c, 0, 76, 75
1, 30432, Note_on_c, 1, 67, 75
1, 30432, Note_on_c, 1, 60, 75
1, 30455, Note_on_c, 0, 76, 0
1, 30456, Note_on_c, 0, 74, 75
1, 30479, Note_on_c, 0, 74, 0
1, 30480, Note_on_c, 0, 76, 75
1, 30503, Note_on_c, 0, 76, 0
1, 30504, Note_on_c, 0, 78, 75
1, 30521, Note_on_c, 1, 67, 0
1, 30521, Note_on_c, 1, 60, 0
1, 30527, Note_on_c, 0, 78, 0
1, 30528, Note_on_c, 0, 79, 91
1, 30528, Note_on_c, 1, 67, 75
1, 30528, Note_on_c, 1, 59, 75
1, 30624, Note_on_c, 0, 79, 0
1, 30624, Note_on_c, 0, 83, 75
1, 30654, Note_on_c, 0, 83, 0
1, 30656, Note_on_c, 0, 81, 75
1, 30686, Note_on_c, 0, 81, 0
1, 30688, Note_on_c, 0, 79, 75
1, 30705, Note_on_c, 1, 67, 0
1, 30705, Note_on_c, 1, 59, 0
1, 30718, Note_on_c, 0, 79, 0
1, 30720, Note_on_c, 0, 78, 75
1, 30750, Note_on_c, 0, 78, 0
1, 30752, Note_on_c, 0, 76, 75
1, 30782, Note_on_c, 0, 76, 0
1, 30784, Note_on_c, 0, 74, 75
1, 30814, Note_on_c, 0, 74, 0
1, 30816, Note_on_c, 0, 76, 75
1, 30816, Note_on_c, 1, 60, 75
1, 30846, Note_on_c, 0, 76, 0
1, 30848, Note_on_c, 0, 74, 75
1, 30878, Note_on_c, 0, 74, 0
1, 30880, Note_on_c, 0, 72, 75
1, 30905, Note_on_c, 1, 60, 0
1, 30910, Note_on_c, 0, 72, 0
1, 30912, Note_on_c, 0, 71, 75
1, 30912, Note_on_c, 1, 62, 75
1, 31001, Note_on_c, 0, 71, 0
1, 31001, Note_on_c, 1, 62, 0
1, 31008, Note_on_c, 0, 71, 75
1, 31008, Note_on_c, 1, 50, 75
1, 31023, Note_on_c, 0, 71, 0
1, 31024, Note_on_c, 0, 69, 75
1, 31039, Note_on_c, 0, 69, 0
1, 31040, Note_on_c, 0, 71, 75
1, 31055, Note_on_c, 0, 71, 0
1, 31056, Note_on_c, 0, 69, 75
1, 31071, Note_on_c, 0, 69, 0
1, 31072, Note_on_c, 0, 67, 75
1, 31087, Note_on_c, 0, 67, 0
1, 31088, Note_on_c, 0, 69, 75
1, 31097, Note_on_c, 1, 50, 0
1, 31103, Note_on_c, 0, 69, 0
1, 31104, Note_on_c, 0, 67, 75
1, 31104, Note_on_c, 1, 55, 75
1, 31193, Note_on_c, 1, 55, 0
1, 31200, Note_on_c, 1, 43, 75
1, 31281, Note_on_c, 0, 67, 0
1, 31289, Note_on_c, 1, 43, 0
1, 31296, Note_on_c, 0, 76, 75
1, 31319, Note_on_c, 0, 76, 0
1, 31320, Note_on_c, 0, 74, 75
1, 31343, Note_on_c, 0, 74, 0
1, 31344, Note_on_c, 0, 76, 75
1, 31367, Note_on_c, 0, 76, 0
1, 31368, Note_on_c, 0, 77, 75
1, 31391, Note_on_c, 0, 77, 0
1, 31392, Note_on_c, 0, 79, 91
1, 31488, Note_on_c, 0, 79, 0
1, 31488, Note_on_c, 0, 72, 75
1, 31488, Note_on_c, 1, 64, 75
1, 31488, Note_on_c, 1, 60, 75
1, 31577, Note_on_c, 0, 72, 0
1, 31577, Note_on_c, 1, 64, 0
1, 31577, Note_on_c, 1, 60, 0
1, 31584, Note_on_c, 0, 72, 75
1, 31584, Note_on_c, 1, 65, 75
1, 31584, Note_on_c, 1, 62, 75
1, 31673, Note_on_c, 0, 72, 0
1, 31673, Note_on_c, 1, 65, 0
1, 31673, Note_on_c, 1, 62, 0
1, 31680, Note_on_c, 0, 74, 70
1, 31680, Note_on_c, 1, 67, 75
1, 31680, Note_on_c, 1, 64, 75
1, 31695, Note_on_c, 0, 74, 0
1, 31696, Note_on_c, 0, 72, 70
1, 31711, Note_on_c, 0, 72, 0
1, 31712, Note_on_c, 0, 74, 70
1, 31727, Note_on_c, 0, 74, 0
1, 31728, Note_on_c, 0, 72, 70
1, 31743, Note_on_c, 0, 72, 0
1, 31744, Note_on_c, 0, 74, 70
1, 31759, Note_on_c, 0, 74, 0
1, 31760, Note_on_c, 0, 72, 70
1, 31769, Note_on_c, 1, 67, 0
1, 31769, Note_on_c, 1, 64, 0
1, 31775, Note_on_c, 0, 72, 0
1, 31776, Note_on_c, 0, 74, 70
1, 31791, Note_on_c, 0, 74, 0
1, 31792, Note_on_c, 0, 72, 70
1, 31807, Note_on_c, 0, 72, 0
1, 31808, Note_on_c, 0, 74, 70
1, 31823, Note_on_c, 0, 74, 0
1, 31824, Note_on_c, 0, 72, 70
1, 31871, Note_on_c, 0, 72, 0
1, 31872, Note_on_c, 0, 84, 75
1, 31961, Note_on_c, 0, 84, 0
1, 31968, Note_on_c, 0, 83, 75
1, 31968, Note_on_c, 1, 72, 75
1, 31968, Note_on_c, 1, 65, 75
1, 31983, Note_on_c, 0, 83, 0
1, 31984, Note_on_c, 0, 81, 75
1, 31999, Note_on_c, 0, 81, 0
1, 32000, Note_on_c, 0, 83, 75
1, 32015, Note_on_c, 0, 83, 0
1, 32016, Note_on_c, 0, 81, 75
1, 32031, Note_on_c, 0, 81, 0
1, 32032, Note_on_c, 0, 79, 75
1, 32047, Note_on_c, 0, 79, 0
1, 32048, Note_on_c, 0, 81, 75
1, 32057, Note_on_c, 1, 72, 0
1, 32057, Note_on_c, 1, 65, 0
1, 32063, Note_on_c, 0, 81, 0
1, 32064, Note_on_c, 0, 79, 75
1, 32064, Note_on_c, 1, 72, 75
1, 32064, Note_on_c, 1, 64, 75
1, 32153, Note_on_c, 0, 79, 0
1, 32153, Note_on_c, 1, 72, 0
1, 32153, Note_on_c, 1, 64, 0
1, 32160, Note_on_c, 0, 84, 75
1, 32249, Note_on_c, 0, 84, 0
1, 32256, Note_on_c, 0, 79, 75
1, 32256, Note_on_c, 1, 67, 75
1, 32256, Note_on_c, 1, 59, 75
1, 32271, Note_on_c, 0, 79, 0
1, 32272, Note_on_c, 0, 77, 75
1, 32287, Note_on_c, 0, 77, 0
1, 32288, Note_on_c, 0, 79, 75
1, 32303, Note_on_c, 0, 79, 0
1, 32304, Note_on_c, 0, 77, 75
1, 32319, Note_on_c, 0, 77, 0
1, 32320, Note_on_c, 0, 76, 75
1, 32335, Note_on_c, 0, 76, 0
1, 32336, Note_on_c, 0, 77, 75
1, 32345, Note_on_c, 1, 67, 0
1, 32345, Note_on_c, 1, 59, 0
1, 32351, Note_on_c, 0, 77, 0
1, 32352, Note_on_c, 0, 76, 75
1, 32352, Note_on_c, 1, 67, 75
1, 32352, Note_on_c, 1, 60, 75
1, 32441, Note_on_c, 0, 76, 0
1, 32441, Note_on_c, 1, 67, 0
1, 32441, Note_on_c, 1, 60, 0
1, 32448, Note_on_c, 0, 76, 75
1, 32448, Note_on_c, 1, 67, 75
1, 32448, Note_on_c, 1, 60, 75
1, 32471, Note_on_c, 0, 76, 0
1, 32472, Note_on_c, 0, 74, 75
1, 32495, Note_on_c, 0, 74, 0
1, 32496, Note_on_c, 0, 76, 75
1, 32519, Note_on_c, 0, 76, 0
1, 32520, Note_on_c, 0, 78, 75
1, 32537, Note_on_c, 1, 67, 0
1, 32537, Note_on_c, 1, 60, 0
1, 32543, Note_on_c, 0, 78, 0
1, 32544, Note_on_c, 0, 79, 91
1, 32544, Note_on_c, 1, 67, 75
1, 32544, Note_on_c, 1, 59, 75
1, 32640, Note_on_c, 0, 79, 0
1, 32640, Note_on_c, 0, 74, 75
1, 32721, Note_on_c, 1, 67, 0
1, 32721, Note_on_c, 1, 59, 0
1, 32729, Note_on_c, 0, 74, 0
1, 32736, Note_on_c, 0, 76, 75
1, 32736, Note_on_c, 1, 67, 75
1, 32736, Note_on_c, 1, 60, 75
1, 32759, Note_on_c, 0, 76, 0
1, 32760, Note_on_c, 0, 74, 75
1, 32783, Note_on_c, 0, 74, 0
1, 32784, Note_on_c, 0, 76, 75
1, 32807, Note_on_c, 0, 76, 0
1, 32808, Note_on_c, 0, 78, 75
1, 32825, Note_on_c, 1, 67, 0
1, 32825, Note_on_c, 1, 60, 0
1, 32831, Note_on_c, 0, 78, 0
1, 32832, Note_on_c, 0, 79, 91
1, 32832, Note_on_c, 1, 67, 75
1, 32832, Note_on_c, 1, 59, 75
1, 32928, Note_on_c, 0, 79, 0
1, 32928, Note_on_c, 0, 83, 75
1, 32958, Note_on_c, 0, 83, 0
1, 32960, Note_on_c, 0, 81, 75
1, 32990, Note_on_c, 0, 81, 0
1, 32992, Note_on_c, 0, 79, 75
1, 33009, Note_on_c, 1, 67, 0
1, 33009, Note_on_c, 1, 59, 0
1, 33022, Note_on_c, 0, 79, 0
1, 33024, Note_on_c, 0, 78, 75
1, 33054, Note_on_c, 0, 78, 0
1, 33056, Note_on_c, 0, 76, 75
1, 33086, Note_on_c, 0, 76, 0
1, 33088, Note_on_c, 0, 74, 75
1, 33118, Note_on_c, 0, 74, 0
1, 33120, Note_on_c, 0, 76, 75
1, 33120, Note_on_c, 1, 60, 75
1, 33150, Note_on_c, 0, 76, 0
1, 33152, Note_on_c, 0, 74, 75
1, 33182, Note_on_c, 0, 74, 0
1, 33184, Note_on_c, 0, 72, 75
1, 33209, Note_on_c, 1, 60, 0
1, 33214, Note_on_c, 0, 72, 0
1, 33216, Note_on_c, 0, 71, 75
1, 33216, Note_on_c, 1, 62, 75
1, 33305, Note_on_c, 0, 71, 0
1, 33305, Note_on_c, 1, 62, 0
1, 33312, Note_on_c, 0, 71, 75
1, 33312, Note_on_c, 1, 50, 75
1, 33327, Note_on_c, 0, 71, 0
1, 33328, Note_on_c, 0, 69, 75
1, 33343, Note_on_c, 0, 69, 0
1, 33344, Note_on_c, 0, 71, 75
1, 33359, Note_on_c, 0, 71, 0
1, 33360, Note_on_c, 0, 69, 75
1, 33375, Note_on_c, 0, 69, 0
1, 33376, Note_on_c, 0, 67, 75
1, 33391, Note_on_c, 0, 67, 0
1, 33392, Note_on_c, 0, 69, 75
1, 33401, Note_on_c, 1, 50, 0
1, 33407, Note_on_c, 0, 69, 0
1, 33408, Note_on_c, 0, 67, 75
1, 33408, Note_on_c, 1, 55, 75
1, 33497, Note_on_c, 1, 55, 0
1, 33504, Note_on_c, 1, 43, 75
1, 33585, Note_on_c, 0, 67, 0
1, 33593, Note_on_c, 1, 43, 0
1, 33600, Note_on_c, 0, 79, 70
1, 33623, Note_on_c, 0, 79, 0
1, 33624, Note_on_c, 0, 81, 70
1, 33647, Note_on_c, 0, 81, 0
1, 33648, Note_on_c, 0, 82, 70
1, 33671, Note_on_c, 0, 82, 0
1, 33672, Note_on_c, 0, 84, 70
1, 33695, Note_on_c, 0, 84, 0
1, 33696, Note_on_c, 0, 82, 70
1, 33785, Note_on_c, 0, 82, 0
1, 33792, Note_on_c, 0, 73, 70
1, 33792, Note_on_c, 1, 70, 66
1, 33792, Note_on_c, 1, 67, 66
1, 33881, Note_on_c, 0, 73, 0
1, 33881, Note_on_c, 1, 70, 0
1, 33881, Note_on_c, 1, 67, 0
1, 33888, Note_on_c, 0, 73, 70
1, 33888, Note_on_c, 1, 70, 66
1, 33888, Note_on_c, 1, 67, 66
1, 33977, Note_on_c, 0, 73, 0
1, 33977, Note_on_c, 1, 70, 0
1, 33977, Note_on_c, 1, 67, 0
1, 33984, Note_on_c, 0, 73, 70
1, 33984, Note_on_c, 1, 69, 66
1, 33984, Note_on_c, 1, 65, 66
1, 34080, Note_on_c, 0, 73, 0
1, 34080, Note_on_c, 0, 74, 70
1, 34161, Note_on_c, 1, 69, 0
1, 34161, Note_on_c, 1, 65, 0
1, 34169, Note_on_c, 0, 74, 0
1, 34176, Note_on_c, 0, 77, 70
1, 34199, Note_on_c, 0, 77, 0
1, 34200, Note_on_c, 0, 76, 70
1, 34223, Note_on_c, 0, 76, 0
1, 34224, Note_on_c, 0, 77, 70
1, 34247, Note_on_c, 0, 77, 0
1, 34248, Note_on_c, 0, 79, 70
1, 34271, Note_on_c, 0, 79, 0
1, 34272, Note_on_c, 0, 81, 70
1, 34361, Note_on_c, 0, 81, 0
1, 34368, Note_on_c, 0, 71, 70
1, 34368, Note_on_c, 1, 67, 70
1, 34368, Note_on_c, 1, 65, 70
1, 34457, Note_on_c, 0, 71, 0
1, 34457, Note_on_c, 1, 67, 0
1, 34457, Note_on_c, 1, 65, 0
1, 34464, Note_on_c, 0, 71, 70
1, 34464, Note_on_c, 1, 67, 70
1, 34464, Note_on_c, 1, 65, 70
1, 34553, Note_on_c, 0, 71, 0
1, 34553, Note_on_c, 1, 67, 0
1, 34553, Note_on_c, 1, 65, 0
1, 34560, Note_on_c, 0, 71, 70
1, 34560, Note_on_c, 1, 67, 70
1, 34560, Note_on_c, 1, 64, 70
1, 34656, Note_on_c, 0, 71, 0
1, 34656, Note_on_c, 0, 72, 70
1, 34737, Note_on_c, 1, 67, 0
1, 34737, Note_on_c, 1, 64, 0
1, 34745, Note_on_c, 0, 72, 0
1, 34752, Note_on_c, 0, 67, 70
1, 34775, Note_on_c, 0, 67, 0
1, 34776, Note_on_c, 0, 72, 70
1, 34799, Note_on_c, 0, 72, 0
1, 34800, Note_on_c, 0, 76, 70
1, 34823, Note_on_c, 0, 76, 0
1, 34824, Note_on_c, 0, 79, 70
1, 34847, Note_on_c, 0, 79, 0
1, 34848, Note_on_c, 0, 67, 71
1, 34848, Note_on_c, 1, 64, 71
1, 34848, Note_on_c, 0, 55, 67
1, 34944, Note_on_c, 0, 67, 0
1, 34944, Note_on_c, 0, 65, 72
1, 34944, Note_on_c, 1, 64, 0
1, 34944, Note_on_c, 1, 62, 72
1, 35025, Note_on_c, 0, 55, 0
1, 35033, Note_on_c, 0, 65, 0
1, 35033, Note_on_c, 1, 62, 0
1, 35040, Note_on_c, 0, 65, 73
1, 35063, Note_on_c, 0, 65, 0
1, 35064, Note_on_c, 0, 71, 73
1, 35087, Note_on_c, 0, 71, 0
1, 35088, Note_on_c, 0, 74, 73
1, 35111, Note_on_c, 0, 74, 0
1, 35112, Note_on_c, 0, 77, 74
1, 35135, Note_on_c, 0, 77, 0
1, 35136, Note_on_c, 0, 65, 74
1, 35136, Note_on_c, 1, 62, 74
1, 35136, Note_on_c, 0, 55, 72
1, 35232, Note_on_c, 0, 65, 0
1, 35232, Note_on_c, 0, 64, 75
1, 35232, Note_on_c, 1, 62, 0
1, 35232, Note_on_c, 1, 60, 75
1, 35313, Note_on_c, 0, 55, 0
1, 35321, Note_on_c, 0, 64, 0
1, 35321, Note_on_c, 1, 60, 0
1, 35328, Note_on_c, 0, 67, 76
1, 35351, Note_on_c, 0, 67, 0
1, 35352, Note_on_c, 0, 72, 76
1, 35375, Note_on_c, 0, 72, 0
1, 35376, Note_on_c, 0, 76, 77
1, 35399, Note_on_c, 0, 76, 0
1, 35400, Note_on_c, 0, 79, 77
1, 35423, Note_on_c, 0, 79, 0
1, 35424, Note_on_c, 0, 67, 77
1, 35424, Note_on_c, 1, 64, 77
1, 35424, Note_on_c, 0, 55, 76
1, 35520, Note_on_c, 0, 67, 0
1, 35520, Note_on_c, 0, 65, 78
1, 35520, Note_on_c, 1, 64, 0
1, 35520, Note_on_c, 1, 62, 78
1, 35601, Note_on_c, 0, 55, 0
1, 35609, Note_on_c, 0, 65, 0
1, 35609, Note_on_c, 1, 62, 0
1, 35616, Note_on_c, 0, 64, 79
1, 35616, Note_on_c, 1, 60, 79
1, 35705, Note_on_c, 0, 64, 0
1, 35705, Note_on_c, 1, 60, 0
1, 35712, Note_on_c, 0, 65, 81
1, 35712, Note_on_c, 1, 60, 81
1, 35712, Note_on_c, 0, 55, 81
1, 35727, Note_on_c, 0, 65, 0
1, 35728, Note_on_c, 0, 64, 81
1, 35743, Note_on_c, 0, 64, 0
1, 35744, Note_on_c, 0, 65, 81
1, 35759, Note_on_c, 0, 65, 0
1, 35760, Note_on_c, 0, 64, 81
1, 35775, Note_on_c, 0, 64, 0
1, 35776, Note_on_c, 0, 62, 81
1, 35791, Note_on_c, 0, 62, 0
1, 35792, Note_on_c, 0, 64, 81
1, 35807, Note_on_c, 0, 64, 0
1, 35808, Note_on_c, 0, 62, 81
1, 35808, Note_on_c, 1, 60, 0
1, 35808, Note_on_c, 1, 59, 81
1, 35889, Note_on_c, 0, 55, 0
1, 35897, Note_on_c, 0, 62, 0
1, 35897, Note_on_c, 1, 59, 0
1, 35904, Note_on_c, 0, 76, 75
1, 35927, Note_on_c, 0, 76, 0
1, 35928, Note_on_c, 0, 74, 75
1, 35951, Note_on_c, 0, 74, 0
1, 35952, Note_on_c, 0, 76, 75
1, 35975, Note_on_c, 0, 76, 0
1, 35976, Note_on_c, 0, 77, 75
1, 35999, Note_on_c, 0, 77, 0
1, 36000, Note_on_c, 0, 79, 75
1, 36089, Note_on_c, 0, 79, 0
1, 36096, Note_on_c, 0, 72, 75
1, 36096, Note_on_c, 1, 64, 75
1, 36096, Note_on_c, 1, 60, 75
1, 36185, Note_on_c, 0, 72, 0
1, 36185, Note_on_c, 1, 64, 0
1, 36185, Note_on_c, 1, 60, 0
1, 36192, Note_on_c, 0, 72, 75
1, 36192, Note_on_c, 1, 65, 75
1, 36192, Note_on_c, 1, 62, 75
1, 36281, Note_on_c, 0, 72, 0
1, 36281, Note_on_c, 1, 65, 0
1, 36281, Note_on_c, 1, 62, 0
1, 36288, Note_on_c, 0, 74, 70
1, 36288, Note_on_c, 1, 67, 75
1, 36288, Note_on_c, 1, 64, 75
1, 36303, Note_on_c, 0, 74, 0
1, 36304, Note_on_c, 0, 72, 70
1, 36319, Note_on_c, 0, 72, 0
1, 36320, Note_on_c, 0, 74, 70
1, 36335, Note_on_c, 0, 74, 0
1, 36336, Note_on_c, 0, 72, 70
1, 36351, Note_on_c, 0, 72, 0
1, 36352, Note_on_c, 0, 74, 70
1, 36367, Note_on_c, 0, 74, 0
1, 36368, Note_on_c, 0, 72, 70
1, 36377, Note_on_c, 1, 67, 0
1, 36377, Note_on_c, 1, 64, 0
1, 36383, Note_on_c, 0, 72, 0
1, 36384, Note_on_c, 0, 74, 70
1, 36399, Note_on_c, 0, 74, 0
1, 36400, Note_on_c, 0, 72, 70
1, 36415, Note_on_c, 0, 72, 0
1, 36416, Note_on_c, 0, 74, 70
1, 36431, Note_on_c, 0, 74, 0
1, 36432, Note_on_c, 0, 72, 70
1, 36479, Note_on_c, 0, 72, 0
1, 36480, Note_on_c, 0, 84, 75
1, 36569, Note_on_c, 0, 84, 0
1, 36576, Note_on_c, 0, 83, 75
1, 36576, Note_on_c, 1, 72, 75
1, 36576, Note_on_c, 1, 65, 75
1, 36591, Note_on_c, 0, 83, 0
1, 36592, Note_on_c, 0, 81, 75
1, 36607, Note_on_c, 0, 81, 0
1, 36608, Note_on_c, 0, 83, 75
1, 36623, Note_on_c, 0, 83, 0
1, 36624, Note_on_c, 0, 81, 75
1, 36639, Note_on_c, 0, 81, 0
1, 36640, Note_on_c, 0, 79, 75
1, 36655, Note_on_c, 0, 79, 0
1, 36656, Note_on_c, 0, 81, 75
1, 36665, Note_on_c, 1, 72, 0
1, 36665, Note_on_c, 1, 65, 0
1, 36671, Note_on_c, 0, 81, 0
1, 36672, Note_on_c, 0, 79, 75
1, 36672, Note_on_c, 1, 72, 75
1, 36672, Note_on_c, 1, 64, 75
1, 36761, Note_on_c, 0, 79, 0
1, 36761, Note_on_c, 1, 72, 0
1, 36761, Note_on_c, 1, 64, 0
1, 36768, Note_on_c, 0, 84, 75
1, 36857, Note_on_c, 0, 84, 0
1, 36864, Note_on_c, 0, 79, 75
1, 36864, Note_on_c, 1, 67, 75
1, 36864, Note_on_c, 1, 59, 75
1, 36879, Note_on_c, 0, 79, 0
1, 36880, Note_on_c, 0, 77, 75
1, 36895, Note_on_c, 0, 77, 0
1, 36896, Note_on_c, 0, 79, 75
1, 36911, Note_on_c, 0, 79, 0
1, 36912, Note_on_c, 0, 77, 75
1, 36927, Note_on_c, 0, 77, 0
1, 36928, Note_on_c, 0, 76, 75
1, 36943, Note_on_c, 0, 76, 0
1, 36944, Note_on_c, 0, 77, 75
1, 36953, Note_on_c, 1, 67, 0
1, 36953, Note_on_c, 1, 59, 0
1, 36959, Note_on_c, 0, 77, 0
1, 36960, Note_on_c, 0, 76, 75
1, 36960, Note_on_c, 1, 67, 75
1, 36960, Note_on_c, 1, 60, 75
1, 37049, Note_on_c, 0, 76, 0
1, 37049, Note_on_c, 1, 67, 0
1, 37049, Note_on_c, 1, 60, 0
1, 37056, Note_on_c, 0, 81, 75
1, 37056, Note_on_c, 1, 65, 75
1, 37056, Note_on_c, 1, 60, 75
1, 37079, Note_on_c, 0, 81, 0
1, 37080, Note_on_c, 0, 79, 75
1, 37103, Note_on_c, 0, 79, 0
1, 37104, Note_on_c, 0, 81, 75
1, 37127, Note_on_c, 0, 81, 0
1, 37128, Note_on_c, 0, 83, 75
1, 37145, Note_on_c, 1, 65, 0
1, 37145, Note_on_c, 1, 60, 0
1, 37151, Note_on_c, 0, 83, 0
1, 37152, Note_on_c, 0, 84, 75
1, 37152, Note_on_c, 1, 64, 75
1, 37152, Note_on_c, 1, 60, 75
1, 37241, Note_on_c, 0, 84, 0
1, 37248, Note_on_c, 0, 79, 75
1, 37329, Note_on_c, 1, 64, 0
1, 37329, Note_on_c, 1, 60, 0
1, 37337, Note_on_c, 0, 79, 0
1, 37344, Note_on_c, 0, 81, 75
1, 37344, Note_on_c, 1, 65, 75
1, 37344, Note_on_c, 1, 60, 75
1, 37367, Note_on_c, 0, 81, 0
1, 37368, Note_on_c, 0, 79, 75
1, 37391, Note_on_c, 0, 79, 0
1, 37392, Note_on_c, 0, 81, 75
1, 37415, Note_on_c, 0, 81, 0
1, 37416, Note_on_c, 0, 83, 75
1, 37433, Note_on_c, 1, 65, 0
1, 37433, Note_on_c, 1, 60, 0
1, 37439, Note_on_c, 0, 83, 0
1, 37440, Note_on_c, 0, 84, 75
1, 37440, Note_on_c, 1, 64, 75
1, 37440, Note_on_c, 1, 60, 75
1, 37529, Note_on_c, 0, 84, 0
1, 37536, Note_on_c, 0, 84, 75
1, 37566, Note_on_c, 0, 84, 0
1, 37568, Note_on_c, 0, 83, 75
1, 37598, Note_on_c, 0, 83, 0
1, 37600, Note_on_c, 0, 81, 75
1, 37617, Note_on_c, 1, 64, 0
1, 37617, Note_on_c, 1, 60, 0
1, 37630, Note_on_c, 0, 81, 0
1, 37632, Note_on_c, 0, 79, 75
1, 37662, Note_on_c, 0, 79, 0
1, 37664, Note_on_c, 0, 77, 75
1, 37694, Note_on_c, 0, 77, 0
1, 37696, Note_on_c, 0, 76, 75
1, 37726, Note_on_c, 0, 76, 0
1, 37728, Note_on_c, 0, 74, 75
1, 37728, Note_on_c, 1, 65, 75
1, 37728, Note_on_c, 1, 53, 75
1, 37758, Note_on_c, 0, 74, 0
1, 37760, Note_on_c, 0, 77, 75
1, 37790, Note_on_c, 0, 77, 0
1, 37792, Note_on_c, 0, 81, 75
1, 37817, Note_on_c, 1, 65, 0
1, 37817, Note_on_c, 1, 53, 0
1, 37822, Note_on_c, 0, 81, 0
1, 37824, Note_on_c, 0, 72, 75
1, 37824, Note_on_c, 1, 64, 75
1, 37824, Note_on_c, 1, 55, 75
1, 37913, Note_on_c, 0, 72, 0
1, 37913, Note_on_c, 1, 64, 0
1, 37913, Note_on_c, 1, 55, 0
1, 37920, Note_on_c, 0, 72, 75
1, 37920, Note_on_c, 1, 62, 75
1, 37920, Note_on_c, 1, 55, 75
1, 37935, Note_on_c, 0, 72, 0
1, 37936, Note_on_c, 0, 71, 75
1, 37951, Note_on_c, 0, 71, 0
1, 37952, Note_on_c, 0, 72, 75
1, 37967, Note_on_c, 0, 72, 0
1, 37968, Note_on_c, 0, 71, 75
1, 37983, Note_on_c, 0, 71, 0
1, 37984, Note_on_c, 0, 69, 75
1, 37999, Note_on_c, 0, 69, 0
1, 38000, Note_on_c, 0, 71, 75
1, 38009, Note_on_c, 1, 62, 0
1, 38009, Note_on_c, 1, 55, 0
1, 38015, Note_on_c, 0, 71, 0
1, 38016, Note_on_c, 0, 72, 75
1, 38016, Note_on_c, 1, 60, 75
1, 38105, Note_on_c, 1, 60, 0
1, 38112, Note_on_c, 1, 48, 75
1, 38193, Note_on_c, 0, 72, 0
1, 38201, Note_on_c, 1, 48, 0
1, 38208, Note_on_c, 0, 79, 70
1, 38231, Note_on_c, 0, 79, 0
1, 38232, Note_on_c, 0, 81, 70
1, 38255, Note_on_c, 0, 81, 0
1, 38256, Note_on_c, 0, 82, 70
1, 38279, Note_on_c, 0, 82, 0
1, 38280, Note_on_c, 0, 84, 70
1, 38303, Note_on_c, 0, 84, 0
1, 38304, Note_on_c, 0, 82, 70
1, 38393, Note_on_c, 0, 82, 0
1, 38400, Note_on_c, 0, 73, 70
1, 38400, Note_on_c, 1, 70, 66
1, 38400, Note_on_c, 1, 67, 66
1, 38489, Note_on_c, 0, 73, 0
1, 38489, Note_on_c, 1, 70, 0
1, 38489, Note_on_c, 1, 67, 0
1, 38496, Note_on_c, 0, 73, 70
1, 38496, Note_on_c, 1, 70, 66
1, 38496, Note_on_c, 1, 67, 66
1, 38585, Note_on_c, 0, 73, 0
1, 38585, Note_on_c, 1, 70, 0
1, 38585, Note_on_c, 1, 67, 0
1, 38592, Note_on_c, 0, 73, 70
1, 38592, Note_on_c, 1, 69, 66
1, 38592, Note_on_c, 1, 65, 66
1, 38688, Note_on_c, 0, 73, 0
1, 38688, Note_on_c, 0, 74, 70
1, 38769, Note_on_c, 1, 69, 0
1, 38769, Note_on_c, 1, 65, 0
1, 38777, Note_on_c, 0, 74, 0
1, 38784, Note_on_c, 0, 77, 70
1, 38807, Note_on_c, 0, 77, 0
1, 38808, Note_on_c, 0, 76, 70
1, 38831, Note_on_c, 0, 76, 0
1, 38832, Note_on_c, 0, 77, 70
1, 38855, Note_on_c, 0, 77, 0
1, 38856, Note_on_c, 0, 79, 70
1, 38879, Note_on_c, 0, 79, 0
1, 38880, Note_on_c, 0, 81, 70
1, 38969, Note_on_c, 0, 81, 0
1, 38976, Note_on_c, 0, 71, 70
1, 38976, Note_on_c, 1, 67, 70
1, 38976, Note_on_c, 1, 65, 70
1, 39065, Note_on_c, 0, 71, 0
1, 39065, Note_on_c, 1, 67, 0
1, 39065, Note_on_c, 1, 65, 0
1, 39072, Note_on_c, 0, 71, 70
1, 39072, Note_on_c, 1, 67, 70
1, 39072, Note_on_c, 1, 65, 70
1, 39161, Note_on_c, 0, 71, 0
1, 39161, Note_on_c, 1, 67, 0
1, 39161, Note_on_c, 1, 65, 0
1, 39168, Note_on_c, 0, 71, 70
1, 39168, Note_on_c, 1, 67, 70
1, 39168, Note_on_c, 1, 64, 70
1, 39264, Note_on_c, 0, 71, 0
1, 39264, Note_on_c, 0, 72, 70
1, 39345, Note_on_c, 1, 67, 0
1, 39345, Note_on_c, 1, 64, 0
1, 39353, Note_on_c, 0, 72, 0
1, 39360, Note_on_c, 0, 67, 70
1, 39383, Note_on_c, 0, 67, 0
1, 39384, Note_on_c, 0, 72, 70
1, 39407, Note_on_c, 0, 72, 0
1, 39408, Note_on_c, 0, 76, 70
1, 39431, Note_on_c, 0, 76, 0
1, 39432, Note_on_c, 0, 79, 70
1, 39455, Note_on_c, 0, 79, 0
1, 39456, Note_on_c, 0, 67, 71
1, 39456, Note_on_c, 1, 64, 71
1, 39456, Note_on_c, 0, 55, 67
1, 39552, Note_on_c, 0, 67, 0
1, 39552, Note_on_c, 0, 65, 72
1, 39552, Note_on_c, 1, 64, 0
1, 39552, Note_on_c, 1, 62, 72
1, 39633, Note_on_c, 0, 55, 0
1, 39641, Note_on_c, 0, 65, 0
1, 39641, Note_on_c, 1, 62, 0
1, 39648, Note_on_c, 0, 65, 73
1, 39671, Note_on_c, 0, 65, 0
1, 39672, Note_on_c, 0, 71, 73
1, 39695, Note_on_c, 0, 71, 0
1, 39696, Note_on_c, 0, 74, 73
1, 39719, Note_on_c, 0, 74, 0
1, 39720, Note_on_c, 0, 77, 74
1, 39743, Note_on_c, 0, 77, 0
1, 39744, Note_on_c, 0, 65, 74
1, 39744, Note_on_c, 1, 62, 74
1, 39744, Note_on_c, 0, 55, 72
1, 39840, Note_on_c, 0, 65, 0
1, 39840, Note_on_c, 0, 64, 75
1, 39840, Note_on_c, 1, 62, 0
1, 39840, Note_on_c, 1, 60, 75
1, 39921, Note_on_c, 0, 55, 0
1, 39929, Note_on_c, 0, 64, 0
1, 39929, Note_on_c, 1, 60, 0
1, 39936, Note_on_c, 0, 67, 76
1, 39959, Note_on_c, 0, 67, 0
1, 39960, Note_on_c, 0, 72, 76
1, 39983, Note_on_c, 0, 72, 0
1, 39984, Note_on_c, 0, 76, 77
1, 40007, Note_on_c, 0, 76, 0
1, 40008, Note_on_c, 0, 79, 77
1, 40031, Note_on_c, 0, 79, 0
1, 40032, Note_on_c, 0, 67, 77
1, 40032, Note_on_c, 1, 64, 77
1, 40032, Note_on_c, 0, 55, 76
1, 40128, Note_on_c, 0, 67, 0
1, 40128, Note_on_c, 0, 65, 78
1, 40128, Note_on_c, 1, 64, 0
1, 40128, Note_on_c, 1, 62, 78
1, 40209, Note_on_c, 0, 55, 0
1, 40217, Note_on_c, 0, 65, 0
1, 40217, Note_on_c, 1, 62, 0
1, 40224, Note_on_c, 0, 64, 79
1, 40224, Note_on_c, 1, 60, 79
1, 40313, Note_on_c, 0, 64, 0
1, 40313, Note_on_c, 1, 60, 0
1, 40320, Note_on_c, 0, 65, 81
1, 40320, Note_on_c, 1, 60, 81
1, 40320, Note_on_c, 0, 55, 81
1, 40335, Note_on_c, 0, 65, 0
1, 40336, Note_on_c, 0, 64, 81
1, 40351, Note_on_c, 0, 64, 0
1, 40352, Note_on_c, 0, 65, 81
1, 40367, Note_on_c, 0, 65, 0
1, 40368, Note_on_c, 0, 64, 81
1, 40383, Note_on_c, 0, 64, 0
1, 40384, Note_on_c, 0, 62, 81
1, 40399, Note_on_c, 0, 62, 0
1, 40400, Note_on_c, 0, 64, 81
1, 40415, Note_on_c, 0, 64, 0
1, 40416, Note_on_c, 0, 62, 81
1, 40416, Note_on_c, 1, 60, 0
1, 40416, Note_on_c, 1, 59, 81
1, 40497, Note_on_c, 0, 55, 0
1, 40505, Note_on_c, 0, 62, 0
1, 40505, Note_on_c, 1, 59, 0
1, 40512, Note_on_c, 0, 76, 75
1, 40535, Note_on_c, 0, 76, 0
1, 40536, Note_on_c, 0, 74, 75
1, 40559, Note_on_c, 0, 74, 0
1, 40560, Note_on_c, 0, 76, 75
1, 40583, Note_on_c, 0, 76, 0
1, 40584, Note_on_c, 0, 77, 75
1, 40607, Note_on_c, 0, 77, 0
1, 40608, Note_on_c, 0, 79, 75
1, 40697, Note_on_c, 0, 79, 0
1, 40704, Note_on_c, 0, 72, 75
1, 40704, Note_on_c, 1, 64, 75
1, 40704, Note_on_c, 1, 60, 75
1, 40793, Note_on_c, 0, 72, 0
1, 40793, Note_on_c, 1, 64, 0
1, 40793, Note_on_c, 1, 60, 0
1, 40800, Note_on_c, 0, 72, 75
1, 40800, Note_on_c, 1, 65, 75
1, 40800, Note_on_c, 1, 62, 75
1, 40889, Note_on_c, 0, 72, 0
1, 40889, Note_on_c, 1, 65, 0
1, 40889, Note_on_c, 1, 62, 0
1, 40896, Note_on_c, 0, 74, 70
1, 40896, Note_on_c, 1, 67, 75
1, 40896, Note_on_c, 1, 64, 75
1, 40911, Note_on_c, 0, 74, 0
1, 40912, Note_on_c, 0, 72, 70
1, 40927, Note_on_c, 0, 72, 0
1, 40928, Note_on_c, 0, 74, 70
1, 40943, Note_on_c, 0, 74, 0
1, 40944, Note_on_c, 0, 72, 70
1, 40959, Note_on_c, 0, 72, 0
1, 40960, Note_on_c, 0, 74, 70
1, 40975, Note_on_c, 0, 74, 0
1, 40976, Note_on_c, 0, 72, 70
1, 40985, Note_on_c, 1, 67, 0
1, 40985, Note_on_c, 1, 64, 0
1, 40991, Note_on_c, 0, 72, 0
1, 40992, Note_on_c, 0, 74, 70
1, 41007, Note_on_c, 0, 74, 0
1, 41008, Note_on_c, 0, 72, 70
1, 41023, Note_on_c, 0, 72, 0
1, 41024, Note_on_c, 0, 74, 70
1, 41039, Note_on_c, 0, 74, 0
1, 41040, Note_on_c, 0, 72, 70
1, 41087, Note_on_c, 0, 72, 0
1, 41088, Note_on_c, 0, 84, 75
1, 41177, Note_on_c, 0, 84, 0
1, 41184, Note_on_c, 0, 83, 75
1, 41184, Note_on_c, 1, 72, 75
1, 41184, Note_on_c, 1, 65, 75
1, 41199, Note_on_c, 0, 83, 0
1, 41200, Note_on_c, 0, 81, 75
1, 41215, Note_on_c, 0, 81, 0
1, 41216, Note_on_c, 0, 83, 75
1, 41231, Note_on_c, 0, 83, 0
1, 41232, Note_on_c, 0, 81, 75
1, 41247, Note_on_c, 0, 81, 0
1, 41248, Note_on_c, 0, 79, 75
1, 41263, Note_on_c, 0, 79, 0
1, 41264, Note_on_c, 0, 81, 75
1, 41273, Note_on_c, 1, 72, 0
1, 41273, Note_on_c, 1, 65, 0
1, 41279, Note_on_c, 0, 81, 0
1, 41280, Note_on_c, 0, 79, 75
1, 41280, Note_on_c, 1, 72, 75
1, 41280, Note_on_c, 1, 64, 75
1, 41369, Note_on_c, 0, 79, 0
1, 41369, Note_on_c, 1, 72, 0
1, 41369, Note_on_c, 1, 64, 0
1, 41376, Note_on_c, 0, 84, 75
1, 41465, Note_on_c, 0, 84, 0
1, 41472, Note_on_c, 0, 79, 75
1, 41472, Note_on_c, 1, 67, 75
1, 41472, Note_on_c, 1, 59, 75
1, 41487, Note_on_c, 0, 79, 0
1, 41488, Note_on_c, 0, 77, 75
1, 41503, Note_on_c, 0, 77, 0
1, 41504, Note_on_c, 0, 79, 75
1, 41519, Note_on_c, 0, 79, 0
1, 41520, Note_on_c, 0, 77, 75
1, 41535, Note_on_c, 0, 77, 0
1, 41536, Note_on_c, 0, 76, 75
1, 41551, Note_on_c, 0, 76, 0
1, 41552, Note_on_c, 0, 77, 75
1, 41561, Note_on_c, 1, 67, 0
1, 41561, Note_on_c, 1, 59, 0
1, 41567, Note_on_c, 0, 77, 0
1, 41568, Note_on_c, 0, 76, 75
1, 41568, Note_on_c, 1, 67, 75
1, 41568, Note_on_c, 1, 60, 75
1, 41657, Note_on_c, 0, 76, 0
1, 41657, Note_on_c, 1, 67, 0
1, 41657, Note_on_c, 1, 60, 0
1, 41664, Note_on_c, 0, 81, 75
1, 41664, Note_on_c, 1, 65, 75
1, 41664, Note_on_c, 1, 60, 75
1, 41687, Note_on_c, 0, 81, 0
1, 41688, Note_on_c, 0, 79, 75
1, 41711, Note_on_c, 0, 79, 0
1, 41712, Note_on_c, 0, 81, 75
1, 41735, Note_on_c, 0, 81, 0
1, 41736, Note_on_c, 0, 83, 75
1, 41753, Note_on_c, 1, 65, 0
1, 41753, Note_on_c, 1, 60, 0
1, 41759, Note_on_c, 0, 83, 0
1, 41760, Note_on_c, 0, 84, 75
1, 41760, Note_on_c, 1, 64, 75
1, 41760, Note_on_c, 1, 60, 75
1, 41849, Note_on_c, 0, 84, 0
1, 41856, Note_on_c, 0, 79, 75
1, 41937, Note_on_c, 1, 64, 0
1, 41937, Note_on_c, 1, 60, 0
1, 41945, Note_on_c, 0, 79, 0
1, 41952, Note_on_c, 0, 81, 75
1, 41952, Note_on_c, 1, 65, 75
1, 41952, Note_on_c, 1, 60, 75
1, 41975, Note_on_c, 0, 81, 0
1, 41976, Note_on_c, 0, 79, 75
1, 41999, Note_on_c, 0, 79, 0
1, 42000, Note_on_c, 0, 81, 75
1, 42023, Note_on_c, 0, 81, 0
1, 42024, Note_on_c, 0, 83, 75
1, 42041, Note_on_c, 1, 65, 0
1, 42041, Note_on_c, 1, 60, 0
1, 42047, Note_on_c, 0, 83, 0
1, 42048, Note_on_c, 0, 84, 75
1, 42048, Note_on_c, 1, 64, 75
1, 42048, Note_on_c, 1, 60, 75
1, 42137, Note_on_c, 0, 84, 0
1, 42144, Note_on_c, 0, 84, 75
1, 42174, Note_on_c, 0, 84, 0
1, 42176, Note_on_c, 0, 83, 75
1, 42206, Note_on_c, 0, 83, 0
1, 42208, Note_on_c, 0, 81, 75
1, 42225, Note_on_c, 1, 64, 0
1, 42225, Note_on_c, 1, 60, 0
1, 42238, Note_on_c, 0, 81, 0
1, 42240, Note_on_c, 0, 79, 75
1, 42270, Note_on_c, 0, 79, 0
1, 42272, Note_on_c, 0, 77, 75
1, 42302, Note_on_c, 0, 77, 0
1, 42304, Note_on_c, 0, 76, 75
1, 42334, Note_on_c, 0, 76, 0
1, 42336, Note_on_c, 0, 74, 75
1, 42336, Note_on_c, 1, 65, 75
1, 42336, Note_on_c, 1, 53, 75
1, 42366, Note_on_c, 0, 74, 0
1, 42368, Note_on_c, 0, 77, 75
1, 42398, Note_on_c, 0, 77, 0
1, 42400, Note_on_c, 0, 81, 75
1, 42425, Note_on_c, 1, 65, 0
1, 42425, Note_on_c, 1, 53, 0
1, 42430, Note_on_c, 0, 81, 0
1, 42432, Note_on_c, 0, 72, 75
1, 42432, Note_on_c, 1, 64, 75
1, 42432, Note_on_c, 1, 55, 75
1, 42521, Note_on_c, 0, 72, 0
1, 42521, Note_on_c, 1, 64, 0
1, 42521, Note_on_c, 1, 55, 0
1, 42528, Note_on_c, 0, 72, 75
1, 42528, Note_on_c, 1, 62, 75
1, 42528, Note_on_c, 1, 55, 75
1, 42543, Note_on_c, 0, 72, 0
1, 42544, Note_on_c, 0, 71, 75
1, 42559, Note_on_c, 0, 71, 0
1, 42560, Note_on_c, 0, 72, 75
1, 42575, Note_on_c, 0, 72, 0
1, 42576, Note_on_c, 0, 71, 75
1, 42591, Note_on_c, 0, 71, 0
1, 42592, Note_on_c, 0, 69, 75
1, 42607, Note_on_c, 0, 69, 0
1, 42608, Note_on_c, 0, 71, 75
1, 42617, Note_on_c, 1, 62, 0
1, 42617, Note_on_c, 1, 55, 0
1, 42623, Note_on_c, 0, 71, 0
1, 42624, Note_on_c, 0, 72, 75
1, 42624, Note_on_c, 1, 60, 75
1, 42713, Note_on_c, 1, 60, 0
1, 42720, Note_on_c, 1, 48, 75
1, 42801, Note_on_c, 0, 72, 0
1, 42809, Note_on_c, 1, 48, 0
1, 42816, Note_on_c, 1, 48, 0
1, 42905, Note_on_c, 1, 48, 0
1, 42915, End_track
0, 0, End_of_file