0, 0, Header, 0, 1, 96
1, 0, Start_track
1, 0, Tempo, 606060
1, 192, Note_on_c, 0, 64, 85
1, 192, Note_on_c, 1, 60, 64
1, 192, Note_on_c, 1, 48, 64
1, 200, Note_on_c, 0, 67, 85
1, 208, Note_on_c, 0, 72, 85
1, 281, Note_on_c, 1, 60, 0
1, 281, Note_on_c, 1, 48, 0
1, 285, Note_on_c, 0, 72, 0
1, 285, Note_on_c, 0, 67, 0
1, 285, Note_on_c, 0, 64, 0
1, 288, Note_on_c, 0, 74, 85
1, 288, Note_on_c, 0, 71, 64
1, 288, Note_on_c, 0, 67, 64
1, 288, Note_on_c, 1, 55, 64
1, 288, Note_on_c, 1, 43, 64
1, 299, Note_on_c, 0, 74, 0
1, 299, Note_on_c, 0, 76, 85
1, 310, Note_on_c, 0, 76, 0
1, 310, Note_on_c, 0, 74, 85
1, 321, Note_on_c, 0, 74, 0
1, 321, Note_on_c, 0, 76, 85
1, 332, Note_on_c, 0, 76, 0
1, 332, Note_on_c, 0, 74, 85
1, 343, Note_on_c, 0, 74, 0
1, 343, Note_on_c, 0, 76, 85
1, 354, Note_on_c, 0, 76, 0
1, 354, Note_on_c, 0, 74, 85
1, 364, Note_on_c, 0, 74, 0
1, 364, Note_on_c, 0, 72, 85
1, 374, Note_on_c, 0, 72, 0
1, 374, Note_on_c, 0, 74, 85
1, 377, Note_on_c, 0, 71, 0
1, 377, Note_on_c, 0, 67, 0
1, 377, Note_on_c, 1, 55, 0
1, 377, Note_on_c, 1, 43, 0
1, 384, Note_on_c, 0, 74, 0
1, 384, Note_on_c, 0, 76, 85
1, 384, Note_on_c, 0, 72, 85
1, 384, Note_on_c, 0, 67, 85
1, 384, Note_on_c, 1, 48, 64
1, 384, Note_on_c, 1, 36, 64
1, 473, Note_on_c, 0, 76, 0
1, 473, Note_on_c, 0, 72, 0
1, 473, Note_on_c, 0, 67, 0
1, 473, Note_on_c, 1, 48, 0
1, 473, Note_on_c, 1, 36, 0
1, 528, Note_on_c, 0, 72, 64
1, 540, Note_on_c, 0, 72, 0
1, 540, Note_on_c, 0, 74, 64
1, 552, Note_on_c, 0, 74, 0
1, 552, Note_on_c, 0, 76, 64
1, 564, Note_on_c, 0, 76, 0
1, 564, Note_on_c, 0, 77, 64
1, 576, Note_on_c, 0, 77, 0
1, 576, Note_on_c, 0, 79, 64
1, 576, Note_on_c, 1, 64, 64
1, 576, Note_on_c, 1, 60, 64
1, 621, Note_on_c, 0, 79, 0
1, 624, Note_on_c, 0, 84, 64
1, 624, Note_on_c, 1, 64, 0
1, 624, Note_on_c, 1, 69, 64
1, 669, Note_on_c, 0, 84, 0
1, 669, Note_on_c, 1, 69, 0
1, 669, Note_on_c, 1, 60, 0
1, 672, Note_on_c, 0, 83, 64
1, 672, Note_on_c, 1, 67, 64
1, 717, Note_on_c, 0, 83, 0
1, 717, Note_on_c, 1, 67, 0
1, 720, Note_on_c, 0, 81, 64
1, 720, Note_on_c, 1, 65, 64
1, 765, Note_on_c, 0, 81, 0
1, 765, Note_on_c, 1, 65, 0
1, 768, Note_on_c, 0, 79, 64
1, 768, Note_on_c, 1, 64, 64
1, 813, Note_on_c, 1, 64, 0
1, 816, Note_on_c, 1, 60, 64
1, 857, Note_on_c, 0, 79, 0
1, 861, Note_on_c, 1, 60, 0
1, 864, Note_on_c, 0, 77, 64
1, 864, Note_on_c, 1, 62, 64
1, 875, Note_on_c, 0, 77, 0
1, 875, Note_on_c, 0, 79, 64
1, 886, Note_on_c, 0, 79, 0
1, 886, Note_on_c, 0, 77, 64
1, 897, Note_on_c, 0, 77, 0
1, 897, Note_on_c, 0, 79, 64
1, 908, Note_on_c, 0, 79, 0
1, 908, Note_on_c, 0, 77, 64
1, 909, Note_on_c, 1, 62, 0
1, 912, Note_on_c, 1, 55, 64
1, 919, Note_on_c, 0, 77, 0
1, 919, Note_on_c, 0, 79, 64
1, 930, Note_on_c, 0, 79, 0
1, 930, Note_on_c, 0, 77, 64
1, 940, Note_on_c, 0, 77, 0
1, 940, Note_on_c, 0, 76, 64
1, 950, Note_on_c, 0, 76, 0
1, 950, Note_on_c, 0, 77, 64
1, 957, Note_on_c, 1, 55, 0
1, 960, Note_on_c, 0, 77, 0
1, 960, Note_on_c, 0, 76, 64
1, 960, Note_on_c, 1, 60, 64
1, 1005, Note_on_c, 1, 60, 0
1, 1008, Note_on_c, 1, 48, 64
1, 1049, Note_on_c, 0, 76, 0
1, 1053, Note_on_c, 1, 48, 0
1, 1056, Note_on_c, 0, 76, 64
1, 1079, Note_on_c, 0, 76, 0
1, 1080, Note_on_c, 0, 72, 64
1, 1103, Note_on_c, 0, 72, 0
1, 1104, Note_on_c, 0, 79, 64
1, 1104, Note_on_c, 1, 60, 64
1, 1127, Note_on_c, 0, 79, 0
1, 1128, Note_on_c, 0, 76, 64
1, 1149, Note_on_c, 1, 60, 0
1, 1151, Note_on_c, 0, 76, 0
1, 1152, Note_on_c, 0, 76, 64
1, 1152, Note_on_c, 1, 59, 64
1, 1175, Note_on_c, 0, 76, 0
1, 1176, Note_on_c, 0, 74, 64
1, 1197, Note_on_c, 1, 59, 0
1, 1199, Note_on_c, 0, 74, 0
1, 1200, Note_on_c, 0, 79, 64
1, 1200, Note_on_c, 1, 55, 64
1, 1223, Note_on_c, 0, 79, 0
1, 1224, Note_on_c, 0, 74, 64
1, 1245, Note_on_c, 1, 55, 0
1, 1247, Note_on_c, 0, 74, 0
1, 1248, Note_on_c, 0, 74, 64
1, 1248, Note_on_c, 1, 57, 64
1, 1271, Note_on_c, 0, 74, 0
1, 1272, Note_on_c, 0, 72, 64
1, 1293, Note_on_c, 1, 57, 0
1, 1295, Note_on_c, 0, 72, 0
1, 1296, Note_on_c, 0, 81, 64
1, 1296, Note_on_c, 1, 50, 64
1, 1319, Note_on_c, 0, 81, 0
1, 1320, Note_on_c, 0, 72, 64
1, 1341, Note_on_c, 1, 50, 0
1, 1343, Note_on_c, 0, 72, 0
1, 1344, Note_on_c, 0, 71, 64
1, 1344, Note_on_c, 1, 55, 64
1, 1367, Note_on_c, 0, 71, 0
1, 1368, Note_on_c, 0, 67, 64
1, 1389, Note_on_c, 1, 55, 0
1, 1391, Note_on_c, 0, 67, 0
1, 1392, Note_on_c, 0, 72, 64
1, 1392, Note_on_c, 1, 57, 64
1, 1415, Note_on_c, 0, 72, 0
1, 1416, Note_on_c, 0, 67, 64
1, 1437, Note_on_c, 1, 57, 0
1, 1439, Note_on_c, 0, 67, 0
1, 1440, Note_on_c, 0, 74, 64
1, 1440, Note_on_c, 1, 59, 64
1, 1463, Note_on_c, 0, 74, 0
1, 1464, Note_on_c, 0, 67, 64
1, 1485, Note_on_c, 1, 59, 0
1, 1487, Note_on_c, 0, 67, 0
1, 1488, Note_on_c, 0, 76, 64
1, 1488, Note_on_c, 1, 60, 64
1, 1511, Note_on_c, 0, 76, 0
1, 1512, Note_on_c, 0, 67, 64
1, 1533, Note_on_c, 1, 60, 0
1, 1535, Note_on_c, 0, 67, 0
1, 1536, Note_on_c, 0, 74, 64
1, 1536, Note_on_c, 1, 59, 64
1, 1560, Note_on_c, 0, 74, 0
1, 1560, Note_on_c, 0, 79, 64
1, 1583, Note_on_c, 0, 79, 0
1, 1584, Note_on_c, 0, 79, 64
1, 1594, Note_on_c, 0, 79, 0
1, 1608, Note_on_c, 0, 79, 64
1, 1618, Note_on_c, 0, 79, 0
1, 1625, Note_on_c, 1, 59, 0
1, 1632, Note_on_c, 0, 78, 64
1, 1632, Note_on_c, 1, 57, 64
1, 1656, Note_on_c, 0, 78, 0
1, 1656, Note_on_c, 0, 84, 64
1, 1677, Note_on_c, 1, 57, 0
1, 1679, Note_on_c, 0, 84, 0
1, 1680, Note_on_c, 0, 84, 64
1, 1680, Note_on_c, 1, 50, 64
1, 1690, Note_on_c, 0, 84, 0
1, 1704, Note_on_c, 0, 84, 64
1, 1714, Note_on_c, 0, 84, 0
1, 1725, Note_on_c, 1, 50, 0
1, 1728, Note_on_c, 0, 84, 64
1, 1728, Note_on_c, 1, 55, 64
1, 1751, Note_on_c, 0, 84, 0
1, 1752, Note_on_c, 0, 83, 64
1, 1773, Note_on_c, 1, 55, 0
1, 1775, Note_on_c, 0, 83, 0
1, 1776, Note_on_c, 0, 81, 64
1, 1776, Note_on_c, 1, 59, 64
1, 1799, Note_on_c, 0, 81, 0
1, 1800, Note_on_c, 0, 79, 64
1, 1821, Note_on_c, 1, 59, 0
1, 1823, Note_on_c, 0, 79, 0
1, 1824, Note_on_c, 0, 81, 64
1, 1824, Note_on_c, 1, 60, 64
1, 1835, Note_on_c, 0, 81, 0
1, 1835, Note_on_c, 0, 83, 64
1, 1846, Note_on_c, 0, 83, 0
1, 1846, Note_on_c, 0, 81, 64
1, 1857, Note_on_c, 0, 81, 0
1, 1857, Note_on_c, 0, 83, 64
1, 1868, Note_on_c, 0, 83, 0
1, 1868, Note_on_c, 0, 81, 64
1, 1869, Note_on_c, 1, 60, 0
1, 1872, Note_on_c, 1, 62, 64
1, 1879, Note_on_c, 0, 81, 0
1, 1879, Note_on_c, 0, 83, 64
1, 1890, Note_on_c, 0, 83, 0
1, 1890, Note_on_c, 0, 81, 64
1, 1900, Note_on_c, 0, 81, 0
1, 1900, Note_on_c, 0, 79, 64
1, 1910, Note_on_c, 0, 79, 0
1, 1910, Note_on_c, 0, 81, 64
1, 1917, Note_on_c, 1, 62, 0
1, 1920, Note_on_c, 0, 81, 0
1, 1920, Note_on_c, 0, 79, 64
1, 1920, Note_on_c, 1, 55, 64
1, 1965, Note_on_c, 1, 55, 0
1, 1968, Note_on_c, 1, 50, 64
1, 2009, Note_on_c, 0, 79, 0
1, 2013, Note_on_c, 1, 50, 0
1, 2016, Note_on_c, 1, 43, 64
1, 2105, Note_on_c, 1, 43, 0
1, 2112, Note_on_c, 0, 64, 85
1, 2112, Note_on_c, 1, 60, 64
1, 2112, Note_on_c, 1, 48, 64
1, 2120, Note_on_c, 0, 67, 85
1, 2128, Note_on_c, 0, 72, 85
1, 2201, Note_on_c, 1, 60, 0
1, 2201, Note_on_c, 1, 48, 0
1, 2205, Note_on_c, 0, 72, 0
1, 2205, Note_on_c, 0, 67, 0
1, 2205, Note_on_c, 0, 64, 0
1, 2208, Note_on_c, 0, 74, 85
1, 2208, Note_on_c, 0, 71, 64
1, 2208, Note_on_c, 0, 67, 64
1, 2208, Note_on_c, 1, 55, 64
1, 2208, Note_on_c, 1, 43, 64
1, 2219, Note_on_c, 0, 74, 0
1, 2219, Note_on_c, 0, 76, 85
1, 2230, Note_on_c, 0, 76, 0
1, 2230, Note_on_c, 0, 74, 85
1, 2241, Note_on_c, 0, 74, 0
1, 2241, Note_on_c, 0, 76, 85
1, 2252, Note_on_c, 0, 76, 0
1, 2252, Note_on_c, 0, 74, 85
1, 2263, Note_on_c, 0, 74, 0
1, 2263, Note_on_c, 0, 76, 85
1, 2274, Note_on_c, 0, 76, 0
1, 2274, Note_on_c, 0, 74, 85
1, 2284, Note_on_c, 0, 74, 0
1, 2284, Note_on_c, 0, 72, 85
1, 2294, Note_on_c, 0, 72, 0
1, 2294, Note_on_c, 0, 74, 85
1, 2297, Note_on_c, 0, 71, 0
1, 2297, Note_on_c, 0, 67, 0
1, 2297, Note_on_c, 1, 55, 0
1, 2297, Note_on_c, 1, 43, 0
1, 2304, Note_on_c, 0, 74, 0
1, 2304, Note_on_c, 0, 76, 85
1, 2304, Note_on_c, 0, 72, 85
1, 2304, Note_on_c, 0, 67, 85
1, 2304, Note_on_c, 1, 48, 64
1, 2304, Note_on_c, 1, 36, 64
1, 2393, Note_on_c, 0, 76, 0
1, 2393, Note_on_c, 0, 72, 0
1, 2393, Note_on_c, 0, 67, 0
1, 2393, Note_on_c, 1, 48, 0
1, 2393, Note_on_c, 1, 36, 0
1, 2448, Note_on_c, 0, 72, 64
1, 2460, Note_on_c, 0, 72, 0
1, 2460, Note_on_c, 0, 74, 64
1, 2472, Note_on_c, 0, 74, 0
1, 2472, Note_on_c, 0, 76, 64
1, 2484, Note_on_c, 0, 76, 0
1, 2484, Note_on_c, 0, 77, 64
1, 2496, Note_on_c, 0, 77, 0
1, 2496, Note_on_c, 0, 79, 64
1, 2496, Note_on_c, 1, 64, 64
1, 2496, Note_on_c, 1, 60, 64
1, 2541, Note_on_c, 0, 79, 0
1, 2544, Note_on_c, 0, 84, 64
1, 2544, Note_on_c, 1, 64, 0
1, 2544, Note_on_c, 1, 69, 64
1, 2589, Note_on_c, 0, 84, 0
1, 2589, Note_on_c, 1, 69, 0
1, 2589, Note_on_c, 1, 60, 0
1, 2592, Note_on_c, 0, 83, 64
1, 2592, Note_on_c, 1, 67, 64
1, 2637, Note_on_c, 0, 83, 0
1, 2637, Note_on_c, 1, 67, 0
1, 2640, Note_on_c, 0, 81, 64
1, 2640, Note_on_c, 1, 65, 64
1, 2685, Note_on_c, 0, 81, 0
1, 2685, Note_on_c, 1, 65, 0
1, 2688, Note_on_c, 0, 79, 64
1, 2688, Note_on_c, 1, 64, 64
1, 2733, Note_on_c, 1, 64, 0
1, 2736, Note_on_c, 1, 60, 64
1, 2777, Note_on_c, 0, 79, 0
1, 2781, Note_on_c, 1, 60, 0
1, 2784, Note_on_c, 0, 77, 64
1, 2784, Note_on_c, 1, 62, 64
1, 2795, Note_on_c, 0, 77, 0
1, 2795, Note_on_c, 0, 79, 64
1, 2806, Note_on_c, 0, 79, 0
1, 2806, Note_on_c, 0, 77, 64
1, 2817, Note_on_c, 0, 77, 0
1, 2817, Note_on_c, 0, 79, 64
1, 2828, Note_on_c, 0, 79, 0
1, 2828, Note_on_c, 0, 77, 64
1, 2829, Note_on_c, 1, 62, 0
1, 2832, Note_on_c, 1, 55, 64
1, 2839, Note_on_c, 0, 77, 0
1, 2839, Note_on_c, 0, 79, 64
1, 2850, Note_on_c, 0, 79, 0
1, 2850, Note_on_c, 0, 77, 64
1, 2860, Note_on_c, 0, 77, 0
1, 2860, Note_on_c, 0, 76, 64
1, 2870, Note_on_c, 0, 76, 0
1, 2870, Note_on_c, 0, 77, 64
1, 2877, Note_on_c, 1, 55, 0
1, 2880, Note_on_c, 0, 77, 0
1, 2880, Note_on_c, 0, 76, 64
1, 2880, Note_on_c, 1, 60, 64
1, 2925, Note_on_c, 1, 60, 0
1, 2928, Note_on_c, 1, 48, 64
1, 2969, Note_on_c, 0, 76, 0
1, 2973, Note_on_c, 1, 48, 0
1, 2976, Note_on_c, 0, 76, 64
1, 2999, Note_on_c, 0, 76, 0
1, 3000, Note_on_c, 0, 72, 64
1, 3023, Note_on_c, 0, 72, 0
1, 3024, Note_on_c, 0, 79, 64
1, 3024, Note_on_c, 1, 60, 64
1, 3047, Note_on_c, 0, 79, 0
1, 3048, Note_on_c, 0, 76, 64
1, 3069, Note_on_c, 1, 60, 0
1, 3071, Note_on_c, 0, 76, 0
1, 3072, Note_on_c, 0, 76, 64
1, 3072, Note_on_c, 1, 59, 64
1, 3095, Note_on_c, 0, 76, 0
1, 3096, Note_on_c, 0, 74, 64
1, 3117, Note_on_c, 1, 59, 0
1, 3119, Note_on_c, 0, 74, 0
1, 3120, Note_on_c, 0, 79, 64
1, 3120, Note_on_c, 1, 55, 64
1, 3143, Note_on_c, 0, 79, 0
1, 3144, Note_on_c, 0, 74, 64
1, 3165, Note_on_c, 1, 55, 0
1, 3167, Note_on_c, 0, 74, 0
1, 3168, Note_on_c, 0, 74, 64
1, 3168, Note_on_c, 1, 57, 64
1, 3191, Note_on_c, 0, 74, 0
1, 3192, Note_on_c, 0, 72, 64
1, 3213, Note_on_c, 1, 57, 0
1, 3215, Note_on_c, 0, 72, 0
1, 3216, Note_on_c, 0, 81, 64
1, 3216, Note_on_c, 1, 50, 64
1, 3239, Note_on_c, 0, 81, 0
1, 3240, Note_on_c, 0, 72, 64
1, 3261, Note_on_c, 1, 50, 0
1, 3263, Note_on_c, 0, 72, 0
1, 3264, Note_on_c, 0, 71, 64
1, 3264, Note_on_c, 1, 55, 64
1, 3287, Note_on_c, 0, 71, 0
1, 3288, Note_on_c, 0, 67, 64
1, 3309, Note_on_c, 1, 55, 0
1, 3311, Note_on_c, 0, 67, 0
1, 3312, Note_on_c, 0, 72, 64
1, 3312, Note_on_c, 1, 57, 64
1, 3335, Note_on_c, 0, 72, 0
1, 3336, Note_on_c, 0, 67, 64
1, 3357, Note_on_c, 1, 57, 0
1, 3359, Note_on_c, 0, 67, 0
1, 3360, Note_on_c, 0, 74, 64
1, 3360, Note_on_c, 1, 59, 64
1, 3383, Note_on_c, 0, 74, 0
1, 3384, Note_on_c, 0, 67, 64
1, 3405, Note_on_c, 1, 59, 0
1, 3407, Note_on_c, 0, 67, 0
1, 3408, Note_on_c, 0, 76, 64
1, 3408, Note_on_c, 1, 60, 64
1, 3431, Note_on_c, 0, 76, 0
1, 3432, Note_on_c, 0, 67, 64
1, 3453, Note_on_c, 1, 60, 0
1, 3455, Note_on_c, 0, 67, 0
1, 3456, Note_on_c, 0, 74, 64
1, 3456, Note_on_c, 1, 59, 64
1, 3480, Note_on_c, 0, 74, 0
1, 3480, Note_on_c, 0, 79, 64
1, 3503, Note_on_c, 0, 79, 0
1, 3504, Note_on_c, 0, 79, 64
1, 3514, Note_on_c, 0, 79, 0
1, 3528, Note_on_c, 0, 79, 64
1, 3538, Note_on_c, 0, 79, 0
1, 3545, Note_on_c, 1, 59, 0
1, 3552, Note_on_c, 0, 78, 64
1, 3552, Note_on_c, 1, 57, 64
1, 3576, Note_on_c, 0, 78, 0
1, 3576, Note_on_c, 0, 84, 64
1, 3597, Note_on_c, 1, 57, 0
1, 3599, Note_on_c, 0, 84, 0
1, 3600, Note_on_c, 0, 84, 64
1, 3600, Note_on_c, 1, 50, 64
1, 3610, Note_on_c, 0, 84, 0
1, 3624, Note_on_c, 0, 84, 64
1, 3634, Note_on_c, 0, 84, 0
1, 3645, Note_on_c, 1, 50, 0
1, 3648, Note_on_c, 0, 84, 64
1, 3648, Note_on_c, 1, 55, 64
1, 3671, Note_on_c, 0, 84, 0
1, 3672, Note_on_c, 0, 83, 64
1, 3693, Note_on_c, 1, 55, 0
1, 3695, Note_on_c, 0, 83, 0
1, 3696, Note_on_c, 0, 81, 64
1, 3696, Note_on_c, 1, 59, 64
1, 3719, Note_on_c, 0, 81, 0
1, 3720, Note_on_c, 0, 79, 64
1, 3741, Note_on_c, 1, 59, 0
1, 3743, Note_on_c, 0, 79, 0
1, 3744, Note_on_c, 0, 81, 64
1, 3744, Note_on_c, 1, 60, 64
1, 3755, Note_on_c, 0, 81, 0
1, 3755, Note_on_c, 0, 83, 64
1, 3766, Note_on_c, 0, 83, 0
1, 3766, Note_on_c, 0, 81, 64
1, 3777, Note_on_c, 0, 81, 0
1, 3777, Note_on_c, 0, 83, 64
1, 3788, Note_on_c, 0, 83, 0
1, 3788, Note_on_c, 0, 81, 64
1, 3789, Note_on_c, 1, 60, 0
1, 3792, Note_on_c, 1, 62, 64
1, 3799, Note_on_c, 0, 81, 0
1, 3799, Note_on_c, 0, 83, 64
1, 3810, Note_on_c, 0, 83, 0
1, 3810, Note_on_c, 0, 81, 64
1, 3820, Note_on_c, 0, 81, 0
1, 3820, Note_on_c, 0, 79, 64
1, 3830, Note_on_c, 0, 79, 0
1, 3830, Note_on_c, 0, 81, 64
1, 3837, Note_on_c, 1, 62, 0
1, 3840, Note_on_c, 0, 81, 0
1, 3840, Note_on_c, 0, 79, 64
1, 3840, Note_on_c, 1, 55, 64
1, 3885, Note_on_c, 1, 55, 0
1, 3888, Note_on_c, 1, 50, 64
1, 3929, Note_on_c, 0, 79, 0
1, 3933, Note_on_c, 1, 50, 0
1, 3936, Note_on_c, 1, 43, 64
1, 4025, Note_on_c, 1, 43, 0
1, 4032, Note_on_c, 0, 71, 85
1, 4032, Note_on_c, 1, 55, 85
1, 4032, Note_on_c, 1, 43, 85
1, 4040, Note_on_c, 0, 74, 85
1, 4048, Note_on_c, 0, 79, 85
1, 4121, Note_on_c, 1, 55, 0
1, 4121, Note_on_c, 1, 43, 0
1, 4125, Note_on_c, 0, 79, 0
1, 4125, Note_on_c, 0, 74, 0
1, 4125, Note_on_c, 0, 71, 0
1, 4128, Note_on_c, 0, 67, 85
1, 4151, Note_on_c, 0, 67, 0
1, 4152, Note_on_c, 0, 69, 85
1, 4164, Note_on_c, 0, 69, 0
1, 4164, Note_on_c, 0, 71, 85
1, 4176, Note_on_c, 0, 71, 0
1, 4176, Note_on_c, 0, 72, 85
1, 4188, Note_on_c, 0, 72, 0
1, 4188, Note_on_c, 0, 74, 85
1, 4200, Note_on_c, 0, 74, 0
1, 4200, Note_on_c, 0, 76, 85
1, 4212, Note_on_c, 0, 76, 0
1, 4212, Note_on_c, 0, 78, 85
1, 4224, Note_on_c, 0, 78, 0
1, 4224, Note_on_c, 0, 79, 85
1, 4224, Note_on_c, 1, 55, 85
1, 4269, Note_on_c, 0, 79, 0
1, 4272, Note_on_c, 0, 84, 64
1, 4272, Note_on_c, 1, 64, 64
1, 4295, Note_on_c, 0, 84, 0
1, 4296, Note_on_c, 0, 79, 64
1, 4319, Note_on_c, 0, 79, 0
1, 4320, Note_on_c, 0, 79, 64
1, 4320, Note_on_c, 1, 64, 0
1, 4320, Note_on_c, 1, 62, 64
1, 4344, Note_on_c, 0, 79, 0
1, 4344, Note_on_c, 0, 77, 64
1, 4367, Note_on_c, 0, 77, 0
1, 4368, Note_on_c, 0, 77, 64
1, 4368, Note_on_c, 1, 62, 0
1, 4368, Note_on_c, 1, 60, 64
1, 4392, Note_on_c, 0, 77, 0
1, 4392, Note_on_c, 0, 76, 64
1, 4413, Note_on_c, 1, 60, 0
1, 4413, Note_on_c, 1, 55, 0
1, 4415, Note_on_c, 0, 76, 0
1, 4416, Note_on_c, 0, 77, 85
1, 4416, Note_on_c, 1, 62, 85
1, 4416, Note_on_c, 1, 55, 85
1, 4505, Note_on_c, 0, 77, 0
1, 4505, Note_on_c, 1, 62, 0
1, 4505, Note_on_c, 1, 55, 0
1, 4512, Note_on_c, 0, 67, 85
1, 4535, Note_on_c, 0, 67, 0
1, 4536, Note_on_c, 0, 69, 85
1, 4548, Note_on_c, 0, 69, 0
1, 4548, Note_on_c, 0, 71, 85
1, 4560, Note_on_c, 0, 71, 0
1, 4560, Note_on_c, 0, 72, 85
1, 4572, Note_on_c, 0, 72, 0
1, 4572, Note_on_c, 0, 74, 85
1, 4584, Note_on_c, 0, 74, 0
1, 4584, Note_on_c, 0, 76, 85
1, 4596, Note_on_c, 0, 76, 0
1, 4596, Note_on_c, 0, 78, 85
1, 4608, Note_on_c, 0, 78, 0
1, 4608, Note_on_c, 0, 79, 85
1, 4653, Note_on_c, 0, 79, 0
1, 4656, Note_on_c, 0, 86, 64
1, 4656, Note_on_c, 1, 55, 64
1, 4679, Note_on_c, 0, 86, 0
1, 4680, Note_on_c, 0, 84, 64
1, 4701, Note_on_c, 1, 55, 0
1, 4703, Note_on_c, 0, 84, 0
1, 4704, Note_on_c, 0, 83, 64
1, 4704, Note_on_c, 1, 57, 64
1, 4727, Note_on_c, 0, 83, 0
1, 4728, Note_on_c, 0, 81, 64
1, 4749, Note_on_c, 1, 57, 0
1, 4751, Note_on_c, 0, 81, 0
1, 4752, Note_on_c, 0, 79, 64
1, 4752, Note_on_c, 1, 59, 64
1, 4775, Note_on_c, 0, 79, 0
1, 4776, Note_on_c, 0, 77, 64
1, 4797, Note_on_c, 1, 59, 0
1, 4799, Note_on_c, 0, 77, 0
1, 4800, Note_on_c, 0, 76, 64
1, 4800, Note_on_c, 1, 60, 64
1, 4823, Note_on_c, 0, 76, 0
1, 4824, Note_on_c, 0, 72, 64
1, 4845, Note_on_c, 1, 60, 0
1, 4847, Note_on_c, 0, 72, 0
1, 4848, Note_on_c, 0, 79, 64
1, 4848, Note_on_c, 1, 52, 64
1, 4871, Note_on_c, 0, 79, 0
1, 4872, Note_on_c, 0, 76, 64
1, 4893, Note_on_c, 1, 52, 0
1, 4895, Note_on_c, 0, 76, 0
1, 4896, Note_on_c, 0, 81, 64
1, 4896, Note_on_c, 1, 53, 64
1, 4919, Note_on_c, 0, 81, 0
1, 4920, Note_on_c, 0, 69, 64
1, 4941, Note_on_c, 1, 53, 0
1, 4943, Note_on_c, 0, 69, 0
1, 4944, Note_on_c, 0, 77, 64
1, 4944, Note_on_c, 1, 50, 64
1, 4967, Note_on_c, 0, 77, 0
1, 4968, Note_on_c, 0, 74, 64
1, 4989, Note_on_c, 1, 50, 0
1, 4991, Note_on_c, 0, 74, 0
1, 4992, Note_on_c, 0, 72, 64
1, 4992, Note_on_c, 1, 55, 64
1, 5037, Note_on_c, 1, 55, 0
1, 5040, Note_on_c, 1, 43, 64
1, 5081, Note_on_c, 0, 72, 0
1, 5085, Note_on_c, 1, 43, 0
1, 5088, Note_on_c, 0, 71, 64
1, 5088, Note_on_c, 1, 55, 64
1, 5111, Note_on_c, 1, 55, 0
1, 5112, Note_on_c, 1, 53, 64
1, 5135, Note_on_c, 1, 53, 0
1, 5136, Note_on_c, 1, 52, 64
1, 5159, Note_on_c, 1, 52, 0
1, 5160, Note_on_c, 1, 50, 64
1, 5177, Note_on_c, 0, 71, 0
1, 5183, Note_on_c, 1, 50, 0
1, 5184, Note_on_c, 0, 64, 85
1, 5184, Note_on_c, 1, 60, 64
1, 5184, Note_on_c, 1, 48, 64
1, 5192, Note_on_c, 0, 67, 85
1, 5200, Note_on_c, 0, 72, 85
1, 5273, Note_on_c, 1, 60, 0
1, 5273, Note_on_c, 1, 48, 0
1, 5277, Note_on_c, 0, 72, 0
1, 5277, Note_on_c, 0, 67, 0
1, 5277, Note_on_c, 0, 64, 0
1, 5280, Note_on_c, 0, 74, 85
1, 5280, Note_on_c, 0, 71, 64
1, 5280, Note_on_c, 0, 67, 64
1, 5280, Note_on_c, 1, 55, 64
1, 5280, Note_on_c, 1, 43, 64
1, 5291, Note_on_c, 0, 74, 0
1, 5291, Note_on_c, 0, 76, 85
1, 5302, Note_on_c, 0, 76, 0
1, 5302, Note_on_c, 0, 74, 85
1, 5313, Note_on_c, 0, 74, 0
1, 5313, Note_on_c, 0, 76, 85
1, 5324, Note_on_c, 0, 76, 0
1, 5324, Note_on_c, 0, 74, 85
1, 5335, Note_on_c, 0, 74, 0
1, 5335, Note_on_c, 0, 76, 85
1, 5346, Note_on_c, 0, 76, 0
1, 5346, Note_on_c, 0, 74, 85
1, 5356, Note_on_c, 0, 74, 0
1, 5356, Note_on_c, 0, 72, 85
1, 5366, Note_on_c, 0, 72, 0
1, 5366, Note_on_c, 0, 74, 85
1, 5369, Note_on_c, 0, 71, 0
1, 5369, Note_on_c, 0, 67, 0
1, 5369, Note_on_c, 1, 55, 0
1, 5369, Note_on_c, 1, 43, 0
1, 5376, Note_on_c, 0, 74, 0
1, 5376, Note_on_c, 0, 76, 85
1, 5376, Note_on_c, 0, 72, 85
1, 5376, Note_on_c, 0, 67, 85
1, 5376, Note_on_c, 1, 48, 64
1, 5376, Note_on_c, 1, 36, 64
1, 5465, Note_on_c, 0, 76, 0
1, 5465, Note_on_c, 0, 72, 0
1, 5465, Note_on_c, 0, 67, 0
1, 5465, Note_on_c, 1, 48, 0
1, 5465, Note_on_c, 1, 36, 0
1, 5520, Note_on_c, 0, 72, 64
1, 5532, Note_on_c, 0, 72, 0
1, 5532, Note_on_c, 0, 74, 64
1, 5544, Note_on_c, 0, 74, 0
1, 5544, Note_on_c, 0, 76, 64
1, 5556, Note_on_c, 0, 76, 0
1, 5556, Note_on_c, 0, 77, 64
1, 5568, Note_on_c, 0, 77, 0
1, 5568, Note_on_c, 0, 79, 64
1, 5568, Note_on_c, 1, 64, 64
1, 5568, Note_on_c, 1, 60, 64
1, 5613, Note_on_c, 0, 79, 0
1, 5616, Note_on_c, 0, 84, 64
1, 5616, Note_on_c, 1, 64, 0
1, 5616, Note_on_c, 1, 69, 64
1, 5661, Note_on_c, 0, 84, 0
1, 5661, Note_on_c, 1, 69, 0
1, 5661, Note_on_c, 1, 60, 0
1, 5664, Note_on_c, 0, 83, 64
1, 5664, Note_on_c, 1, 67, 64
1, 5709, Note_on_c, 0, 83, 0
1, 5709, Note_on_c, 1, 67, 0
1, 5712, Note_on_c, 0, 81, 64
1, 5712, Note_on_c, 1, 65, 64
1, 5757, Note_on_c, 0, 81, 0
1, 5757, Note_on_c, 1, 65, 0
1, 5760, Note_on_c, 0, 79, 64
1, 5760, Note_on_c, 1, 64, 64
1, 5805, Note_on_c, 1, 64, 0
1, 5808, Note_on_c, 1, 60, 64
1, 5849, Note_on_c, 0, 79, 0
1, 5853, Note_on_c, 1, 60, 0
1, 5856, Note_on_c, 0, 77, 64
1, 5856, Note_on_c, 1, 62, 64
1, 5867, Note_on_c, 0, 77, 0
1, 5867, Note_on_c, 0, 79, 64
1, 5878, Note_on_c, 0, 79, 0
1, 5878, Note_on_c, 0, 77, 64
1, 5889, Note_on_c, 0, 77, 0
1, 5889, Note_on_c, 0, 79, 64
1, 5900, Note_on_c, 0, 79, 0
1, 5900, Note_on_c, 0, 77, 64
1, 5901, Note_on_c, 1, 62, 0
1, 5904, Note_on_c, 1, 55, 64
1, 5911, Note_on_c, 0, 77, 0
1, 5911, Note_on_c, 0, 79, 64
1, 5922, Note_on_c, 0, 79, 0
1, 5922, Note_on_c, 0, 77, 64
1, 5932, Note_on_c, 0, 77, 0
1, 5932, Note_on_c, 0, 76, 64
1, 5942, Note_on_c, 0, 76, 0
1, 5942, Note_on_c, 0, 77, 64
1, 5949, Note_on_c, 1, 55, 0
1, 5952, Note_on_c, 0, 77, 0
1, 5952, Note_on_c, 0, 76, 64
1, 5952, Note_on_c, 1, 60, 64
1, 5975, Note_on_c, 0, 76, 0
1, 5976, Note_on_c, 0, 72, 64
1, 5997, Note_on_c, 1, 60, 0
1, 5999, Note_on_c, 0, 72, 0
1, 6000, Note_on_c, 0, 79, 64
1, 6000, Note_on_c, 1, 52, 64
1, 6023, Note_on_c, 0, 79, 0
1, 6024, Note_on_c, 0, 76, 64
1, 6045, Note_on_c, 1, 52, 0
1, 6047, Note_on_c, 0, 76, 0
1, 6048, Note_on_c, 0, 81, 64
1, 6048, Note_on_c, 1, 53, 64
1, 6072, Note_on_c, 0, 81, 0
1, 6072, Note_on_c, 0, 77, 64
1, 6095, Note_on_c, 0, 77, 0
1, 6096, Note_on_c, 0, 76, 64
1, 6106, Note_on_c, 0, 76, 0
1, 6120, Note_on_c, 0, 74, 64
1, 6130, Note_on_c, 0, 74, 0
1, 6137, Note_on_c, 1, 53, 0
1, 6144, Note_on_c, 0, 72, 64
1, 6144, Note_on_c, 1, 52, 64
1, 6189, Note_on_c, 1, 52, 0
1, 6192, Note_on_c, 1, 57, 64
1, 6233, Note_on_c, 0, 72, 0
1, 6237, Note_on_c, 1, 57, 0
1, 6240, Note_on_c, 0, 74, 64
1, 6240, Note_on_c, 1, 53, 64
1, 6251, Note_on_c, 0, 74, 0
1, 6251, Note_on_c, 0, 76, 64
1, 6262, Note_on_c, 0, 76, 0
1, 6262, Note_on_c, 0, 74, 64
1, 6273, Note_on_c, 0, 74, 0
1, 6273, Note_on_c, 0, 76, 64
1, 6284, Note_on_c, 0, 76, 0
1, 6284, Note_on_c, 0, 74, 64
1, 6285, Note_on_c, 1, 53, 0
1, 6288, Note_on_c, 1, 55, 64
1, 6295, Note_on_c, 0, 74, 0
1, 6295, Note_on_c, 0, 76, 64
1, 6306, Note_on_c, 0, 76, 0
1, 6306, Note_on_c, 0, 74, 64
1, 6316, Note_on_c, 0, 74, 0
1, 6316, Note_on_c, 0, 72, 64
1, 6326, Note_on_c, 0, 72, 0
1, 6326, Note_on_c, 0, 74, 64
1, 6333, Note_on_c, 1, 55, 0
1, 6336, Note_on_c, 0, 74, 0
1, 6336, Note_on_c, 0, 72, 64
1, 6336, Note_on_c, 1, 48, 64
1, 6381, Note_on_c, 1, 48, 0
1, 6384, Note_on_c, 1, 43, 64
1, 6425, Note_on_c, 0, 72, 0
1, 6429, Note_on_c, 1, 43, 0
1, 6432, Note_on_c, 1, 36, 64
1, 6521, Note_on_c, 1, 36, 0
1, 6528, Note_on_c, 0, 71, 85
1, 6528, Note_on_c, 1, 55, 85
1, 6528, Note_on_c, 1, 43, 85
1, 6536, Note_on_c, 0, 74, 85
1, 6544, Note_on_c, 0, 79, 85
1, 6617, Note_on_c, 1, 55, 0
1, 6617, Note_on_c, 1, 43, 0
1, 6621, Note_on_c, 0, 79, 0
1, 6621, Note_on_c, 0, 74, 0
1, 6621, Note_on_c, 0, 71, 0
1, 6624, Note_on_c, 0, 67, 85
1, 6647, Note_on_c, 0, 67, 0
1, 6648, Note_on_c, 0, 69, 85
1, 6660, Note_on_c, 0, 69, 0
1, 6660, Note_on_c, 0, 71, 85
1, 6672, Note_on_c, 0, 71, 0
1, 6672, Note_on_c, 0, 72, 85
1, 6684, Note_on_c, 0, 72, 0
1, 6684, Note_on_c, 0, 74, 85
1, 6696, Note_on_c, 0, 74, 0
1, 6696, Note_on_c, 0, 76, 85
1, 6708, Note_on_c, 0, 76, 0
1, 6708, Note_on_c, 0, 78, 85
1, 6720, Note_on_c, 0, 78, 0
1, 6720, Note_on_c, 0, 79, 85
1, 6720, Note_on_c, 1, 55, 85
1, 6765, Note_on_c, 0, 79, 0
1, 6768, Note_on_c, 0, 84, 64
1, 6768, Note_on_c, 1, 64, 64
1, 6791, Note_on_c, 0, 84, 0
1, 6792, Note_on_c, 0, 79, 64
1, 6815, Note_on_c, 0, 79, 0
1, 6816, Note_on_c, 0, 79, 64
1, 6816, Note_on_c, 1, 64, 0
1, 6816, Note_on_c, 1, 62, 64
1, 6840, Note_on_c, 0, 79, 0
1, 6840, Note_on_c, 0, 77, 64
1, 6863, Note_on_c, 0, 77, 0
1, 6864, Note_on_c, 0, 77, 64
1, 6864, Note_on_c, 1, 62, 0
1, 6864, Note_on_c, 1, 60, 64
1, 6888, Note_on_c, 0, 77, 0
1, 6888, Note_on_c, 0, 76, 64
1, 6909, Note_on_c, 1, 60, 0
1, 6909, Note_on_c, 1, 55, 0
1, 6911, Note_on_c, 0, 76, 0
1, 6912, Note_on_c, 0, 77, 85
1, 6912, Note_on_c, 1, 62, 85
1, 6912, Note_on_c, 1, 55, 85
1, 7001, Note_on_c, 0, 77, 0
1, 7001, Note_on_c, 1, 62, 0
1, 7001, Note_on_c, 1, 55, 0
1, 7008, Note_on_c, 0, 67, 85
1, 7031, Note_on_c, 0, 67, 0
1, 7032, Note_on_c, 0, 69, 85
1, 7044, Note_on_c, 0, 69, 0
1, 7044, Note_on_c, 0, 71, 85
1, 7056, Note_on_c, 0, 71, 0
1, 7056, Note_on_c, 0, 72, 85
1, 7068, Note_on_c, 0, 72, 0
1, 7068, Note_on_c, 0, 74, 85
1, 7080, Note_on_c, 0, 74, 0
1, 7080, Note_on_c, 0, 76, 85
1, 7092, Note_on_c, 0, 76, 0
1, 7092, Note_on_c, 0, 78, 85
1, 7104, Note_on_c, 0, 78, 0
1, 7104, Note_on_c, 0, 79, 85
1, 7149, Note_on_c, 0, 79, 0
1, 7152, Note_on_c, 0, 86, 64
1, 7152, Note_on_c, 1, 55, 64
1, 7175, Note_on_c, 0, 86, 0
1, 7176, Note_on_c, 0, 84, 64
1, 7197, Note_on_c, 1, 55, 0
1, 7199, Note_on_c, 0, 84, 0
1, 7200, Note_on_c, 0, 83, 64
1, 7200, Note_on_c, 1, 57, 64
1, 7223, Note_on_c, 0, 83, 0
1, 7224, Note_on_c, 0, 81, 64
1, 7245, Note_on_c, 1, 57, 0
1, 7247, Note_on_c, 0, 81, 0
1, 7248, Note_on_c, 0, 79, 64
1, 7248, Note_on_c, 1, 59, 64
1, 7271, Note_on_c, 0, 79, 0
1, 7272, Note_on_c, 0, 77, 64
1, 7293, Note_on_c, 1, 59, 0
1, 7295, Note_on_c, 0, 77, 0
1, 7296, Note_on_c, 0, 76, 64
1, 7296, Note_on_c, 1, 60, 64
1, 7319, Note_on_c, 0, 76, 0
1, 7320, Note_on_c, 0, 72, 64
1, 7341, Note_on_c, 1, 60, 0
1, 7343, Note_on_c, 0, 72, 0
1, 7344, Note_on_c, 0, 79, 64
1, 7344, Note_on_c, 1, 52, 64
1, 7367, Note_on_c, 0, 79, 0
1, 7368, Note_on_c, 0, 76, 64
1, 7389, Note_on_c, 1, 52, 0
1, 7391, Note_on_c, 0, 76, 0
1, 7392, Note_on_c, 0, 81, 64
1, 7392, Note_on_c, 1, 53, 64
1, 7415, Note_on_c, 0, 81, 0
1, 7416, Note_on_c, 0, 69, 64
1, 7437, Note_on_c, 1, 53, 0
1, 7439, Note_on_c, 0, 69, 0
1, 7440, Note_on_c, 0, 77, 64
1, 7440, Note_on_c, 1, 50, 64
1, 7463, Note_on_c, 0, 77, 0
1, 7464, Note_on_c, 0, 74, 64
1, 7485, Note_on_c, 1, 50, 0
1, 7487, Note_on_c, 0, 74, 0
1, 7488, Note_on_c, 0, 72, 64
1, 7488, Note_on_c, 1, 55, 64
1, 7533, Note_on_c, 1, 55, 0
1, 7536, Note_on_c, 1, 43, 64
1, 7577, Note_on_c, 0, 72, 0
1, 7581, Note_on_c, 1, 43, 0
1, 7584, Note_on_c, 0, 71, 64
1, 7584, Note_on_c, 1, 55, 64
1, 7607, Note_on_c, 1, 55, 0
1, 7608, Note_on_c, 1, 53, 64
1, 7631, Note_on_c, 1, 53, 0
1, 7632, Note_on_c, 1, 52, 64
1, 7655, Note_on_c, 1, 52, 0
1, 7656, Note_on_c, 1, 50, 64
1, 7673, Note_on_c, 0, 71, 0
1, 7679, Note_on_c, 1, 50, 0
1, 7680, Note_on_c, 0, 64, 85
1, 7680, Note_on_c, 1, 60, 64
1, 7680, Note_on_c, 1, 48, 64
1, 7688, Note_on_c, 0, 67, 85
1, 7696, Note_on_c, 0, 72, 85
1, 7769, Note_on_c, 1, 60, 0
1, 7769, Note_on_c, 1, 48, 0
1, 7773, Note_on_c, 0, 72, 0
1, 7773, Note_on_c, 0, 67, 0
1, 7773, Note_on_c, 0, 64, 0
1, 7776, Note_on_c, 0, 74, 85
1, 7776, Note_on_c, 0, 71, 64
1, 7776, Note_on_c, 0, 67, 64
1, 7776, Note_on_c, 1, 55, 64
1, 7776, Note_on_c, 1, 43, 64
1, 7787, Note_on_c, 0, 74, 0
1, 7787, Note_on_c, 0, 76, 85
1, 7798, Note_on_c, 0, 76, 0
1, 7798, Note_on_c, 0, 74, 85
1, 7809, Note_on_c, 0, 74, 0
1, 7809, Note_on_c, 0, 76, 85
1, 7820, Note_on_c, 0, 76, 0
1, 7820, Note_on_c, 0, 74, 85
1, 7831, Note_on_c, 0, 74, 0
1, 7831, Note_on_c, 0, 76, 85
1, 7842, Note_on_c, 0, 76, 0
1, 7842, Note_on_c, 0, 74, 85
1, 7852, Note_on_c, 0, 74, 0
1, 7852, Note_on_c, 0, 72, 85
1, 7862, Note_on_c, 0, 72, 0
1, 7862, Note_on_c, 0, 74, 85
1, 7865, Note_on_c, 0, 71, 0
1, 7865, Note_on_c, 0, 67, 0
1, 7865, Note_on_c, 1, 55, 0
1, 7865, Note_on_c, 1, 43, 0
1, 7872, Note_on_c, 0, 74, 0
1, 7872, Note_on_c, 0, 76, 85
1, 7872, Note_on_c, 0, 72, 85
1, 7872, Note_on_c, 0, 67, 85
1, 7872, Note_on_c, 1, 48, 64
1, 7872, Note_on_c, 1, 36, 64
1, 7961, Note_on_c, 0, 76, 0
1, 7961, Note_on_c, 0, 72, 0
1, 7961, Note_on_c, 0, 67, 0
1, 7961, Note_on_c, 1, 48, 0
1, 7961, Note_on_c, 1, 36, 0
1, 8016, Note_on_c, 0, 72, 64
1, 8028, Note_on_c, 0, 72, 0
1, 8028, Note_on_c, 0, 74, 64
1, 8040, Note_on_c, 0, 74, 0
1, 8040, Note_on_c, 0, 76, 64
1, 8052, Note_on_c, 0, 76, 0
1, 8052, Note_on_c, 0, 77, 64
1, 8064, Note_on_c, 0, 77, 0
1, 8064, Note_on_c, 0, 79, 64
1, 8064, Note_on_c, 1, 64, 64
1, 8064, Note_on_c, 1, 60, 64
1, 8109, Note_on_c, 0, 79, 0
1, 8112, Note_on_c, 0, 84, 64
1, 8112, Note_on_c, 1, 64, 0
1, 8112, Note_on_c, 1, 69, 64
1, 8157, Note_on_c, 0, 84, 0
1, 8157, Note_on_c, 1, 69, 0
1, 8157, Note_on_c, 1, 60, 0
1, 8160, Note_on_c, 0, 83, 64
1, 8160, Note_on_c, 1, 67, 64
1, 8205, Note_on_c, 0, 83, 0
1, 8205, Note_on_c, 1, 67, 0
1, 8208, Note_on_c, 0, 81, 64
1, 8208, Note_on_c, 1, 65, 64
1, 8253, Note_on_c, 0, 81, 0
1, 8253, Note_on_c, 1, 65, 0
1, 8256, Note_on_c, 0, 79, 64
1, 8256, Note_on_c, 1, 64, 64
1, 8301, Note_on_c, 1, 64, 0
1, 8304, Note_on_c, 1, 60, 64
1, 8345, Note_on_c, 0, 79, 0
1, 8349, Note_on_c, 1, 60, 0
1, 8352, Note_on_c, 0, 77, 64
1, 8352, Note_on_c, 1, 62, 64
1, 8363, Note_on_c, 0, 77, 0
1, 8363, Note_on_c, 0, 79, 64
1, 8374, Note_on_c, 0, 79, 0
1, 8374, Note_on_c, 0, 77, 64
1, 8385, Note_on_c, 0, 77, 0
1, 8385, Note_on_c, 0, 79, 64
1, 8396, Note_on_c, 0, 79, 0
1, 8396, Note_on_c, 0, 77, 64
1, 8397, Note_on_c, 1, 62, 0
1, 8400, Note_on_c, 1, 55, 64
1, 8407, Note_on_c, 0, 77, 0
1, 8407, Note_on_c, 0, 79, 64
1, 8418, Note_on_c, 0, 79, 0
1, 8418, Note_on_c, 0, 77, 64
1, 8428, Note_on_c, 0, 77, 0
1, 8428, Note_on_c, 0, 76, 64
1, 8438, Note_on_c, 0, 76, 0
1, 8438, Note_on_c, 0, 77, 64
1, 8445, Note_on_c, 1, 55, 0
1, 8448, Note_on_c, 0, 77, 0
1, 8448, Note_on_c, 0, 76, 64
1, 8448, Note_on_c, 1, 60, 64
1, 8471, Note_on_c, 0, 76, 0
1, 8472, Note_on_c, 0, 72, 64
1, 8493, Note_on_c, 1, 60, 0
1, 8495, Note_on_c, 0, 72, 0
1, 8496, Note_on_c, 0, 79, 64
1, 8496, Note_on_c, 1, 52, 64
1, 8519, Note_on_c, 0, 79, 0
1, 8520, Note_on_c, 0, 76, 64
1, 8541, Note_on_c, 1, 52, 0
1, 8543, Note_on_c, 0, 76, 0
1, 8544, Note_on_c, 0, 81, 64
1, 8544, Note_on_c, 1, 53, 64
1, 8568, Note_on_c, 0, 81, 0
1, 8568, Note_on_c, 0, 77, 64
1, 8591, Note_on_c, 0, 77, 0
1, 8592, Note_on_c, 0, 76, 64
1, 8602, Note_on_c, 0, 76, 0
1, 8616, Note_on_c, 0, 74, 64
1, 8626, Note_on_c, 0, 74, 0
1, 8633, Note_on_c, 1, 53, 0
1, 8640, Note_on_c, 0, 72, 64
1, 8640, Note_on_c, 1, 52, 64
1, 8685, Note_on_c, 1, 52, 0
1, 8688, Note_on_c, 1, 57, 64
1, 8729, Note_on_c, 0, 72, 0
1, 8733, Note_on_c, 1, 57, 0
1, 8736, Note_on_c, 0, 74, 64
1, 8736, Note_on_c, 1, 53, 64
1, 8747, Note_on_c, 0, 74, 0
1, 8747, Note_on_c, 0, 76, 64
1, 8758, Note_on_c, 0, 76, 0
1, 8758, Note_on_c, 0, 74, 64
1, 8769, Note_on_c, 0, 74, 0
1, 8769, Note_on_c, 0, 76, 64
1, 8780, Note_on_c, 0, 76, 0
1, 8780, Note_on_c, 0, 74, 64
1, 8781, Note_on_c, 1, 53, 0
1, 8784, Note_on_c, 1, 55, 64
1, 8791, Note_on_c, 0, 74, 0
1, 8791, Note_on_c, 0, 76, 64
1, 8802, Note_on_c, 0, 76, 0
1, 8802, Note_on_c, 0, 74, 64
1, 8812, Note_on_c, 0, 74, 0
1, 8812, Note_on_c, 0, 72, 64
1, 8822, Note_on_c, 0, 72, 0
1, 8822, Note_on_c, 0, 74, 64
1, 8829, Note_on_c, 1, 55, 0
1, 8832, Note_on_c, 0, 74, 0
1, 8832, Note_on_c, 0, 72, 64
1, 8832, Note_on_c, 1, 48, 64
1, 8877, Note_on_c, 1, 48, 0
1, 8880, Note_on_c, 1, 43, 64
1, 8921, Note_on_c, 0, 72, 0
1, 8925, Note_on_c, 1, 43, 0
1, 8928, Note_on_c, 1, 36, 64
1, 9017, Note_on_c, 1, 36, 0
1, 9024, Note_on_c, 1, 36, 0
1, 9201, Note_on_c, 1, 36, 0
1, 9211, End_track
0, 0, End_of_file