0, 0, Header, 0, 1, 96
1, 0, Start_track
1, 0, Tempo, 521739
1, 0, Note_on_c, 0, 69, 96
1, 0, Note_on_c, 1, 50, 80
1, 0, Note_on_c, 1, 45, 80
1, 0, Note_on_c, 1, 41, 80
1, 0, Note_on_c, 1, 38, 80
1, 24, Note_on_c, 0, 69, 0
1, 24, Note_on_c, 0, 62, 80
1, 47, Note_on_c, 0, 62, 0
1, 48, Note_on_c, 0, 61, 80
1, 71, Note_on_c, 0, 61, 0
1, 72, Note_on_c, 0, 62, 80
1, 95, Note_on_c, 0, 62, 0
1, 96, Note_on_c, 0, 61, 80
1, 119, Note_on_c, 0, 61, 0
1, 120, Note_on_c, 0, 62, 80
1, 133, Note_on_c, 1, 50, 0
1, 133, Note_on_c, 1, 45, 0
1, 133, Note_on_c, 1, 41, 0
1, 133, Note_on_c, 1, 38, 0
1, 143, Note_on_c, 0, 62, 0
1, 144, Note_on_c, 0, 61, 80
1, 144, Note_on_c, 1, 50, 80
1, 164, Note_on_c, 1, 50, 0
1, 167, Note_on_c, 0, 61, 0
1, 168, Note_on_c, 0, 62, 80
1, 191, Note_on_c, 0, 62, 0
1, 192, Note_on_c, 0, 70, 96
1, 192, Note_on_c, 0, 67, 96
1, 192, Note_on_c, 1, 49, 80
1, 212, Note_on_c, 0, 70, 0
1, 212, Note_on_c, 0, 67, 0
1, 212, Note_on_c, 1, 49, 0
1, 240, Note_on_c, 0, 69, 80
1, 240, Note_on_c, 0, 65, 80
1, 240, Note_on_c, 1, 50, 80
1, 260, Note_on_c, 0, 69, 0
1, 260, Note_on_c, 0, 65, 0
1, 260, Note_on_c, 1, 50, 0
1, 336, Note_on_c, 0, 73, 80
1, 381, Note_on_c, 0, 73, 0
1, 384, Note_on_c, 0, 74, 96
1, 384, Note_on_c, 1, 62, 80
1, 384, Note_on_c, 1, 57, 80
1, 384, Note_on_c, 1, 53, 80
1, 384, Note_on_c, 1, 50, 80
1, 408, Note_on_c, 0, 74, 0
1, 408, Note_on_c, 0, 69, 80
1, 431, Note_on_c, 0, 69, 0
1, 432, Note_on_c, 0, 67, 80
1, 455, Note_on_c, 0, 67, 0
1, 456, Note_on_c, 0, 65, 80
1, 473, Note_on_c, 1, 62, 0
1, 473, Note_on_c, 1, 57, 0
1, 473, Note_on_c, 1, 53, 0
1, 473, Note_on_c, 1, 50, 0
1, 479, Note_on_c, 0, 65, 0
1, 480, Note_on_c, 0, 64, 80
1, 503, Note_on_c, 0, 64, 0
1, 504, Note_on_c, 0, 62, 80
1, 527, Note_on_c, 0, 62, 0
1, 528, Note_on_c, 0, 61, 80
1, 528, Note_on_c, 1, 43, 80
1, 551, Note_on_c, 0, 61, 0
1, 552, Note_on_c, 0, 62, 80
1, 573, Note_on_c, 1, 43, 0
1, 575, Note_on_c, 0, 62, 0
1, 576, Note_on_c, 0, 61, 80
1, 576, Note_on_c, 1, 45, 80
1, 599, Note_on_c, 0, 61, 0
1, 600, Note_on_c, 0, 62, 80
1, 623, Note_on_c, 0, 62, 0
1, 624, Note_on_c, 0, 64, 80
1, 647, Note_on_c, 0, 64, 0
1, 648, Note_on_c, 0, 58, 80
1, 665, Note_on_c, 1, 45, 0
1, 671, Note_on_c, 0, 58, 0
1, 672, Note_on_c, 0, 57, 80
1, 695, Note_on_c, 0, 57, 0
1, 696, Note_on_c, 0, 55, 80
1, 719, Note_on_c, 0, 55, 0
1, 720, Note_on_c, 0, 53, 80
1, 720, Note_on_c, 1, 45, 80
1, 743, Note_on_c, 0, 53, 0
1, 744, Note_on_c, 0, 52, 80
1, 765, Note_on_c, 1, 45, 0
1, 767, Note_on_c, 0, 52, 0
1, 768, Note_on_c, 0, 53, 80
1, 768, Note_on_c, 1, 50, 80
1, 792, Note_on_c, 0, 53, 0
1, 792, Note_on_c, 0, 50, 80
1, 815, Note_on_c, 0, 50, 0
1, 816, Note_on_c, 0, 57, 80
1, 840, Note_on_c, 0, 57, 0
1, 840, Note_on_c, 0, 53, 80
1, 857, Note_on_c, 1, 50, 0
1, 863, Note_on_c, 0, 53, 0
1, 864, Note_on_c, 0, 62, 80
1, 888, Note_on_c, 0, 62, 0
1, 888, Note_on_c, 0, 57, 80
1, 911, Note_on_c, 0, 57, 0
1, 912, Note_on_c, 0, 65, 80
1, 936, Note_on_c, 0, 65, 0
1, 936, Note_on_c, 0, 62, 80
1, 959, Note_on_c, 0, 62, 0
1, 960, Note_on_c, 0, 61, 80
1, 960, Note_on_c, 1, 45, 80
1, 960, Note_on_c, 1, 33, 80
1, 984, Note_on_c, 0, 61, 0
1, 984, Note_on_c, 0, 57, 80
1, 1007, Note_on_c, 0, 57, 0
1, 1008, Note_on_c, 0, 64, 80
1, 1032, Note_on_c, 0, 64, 0
1, 1032, Note_on_c, 0, 61, 80
1, 1049, Note_on_c, 1, 45, 0
1, 1049, Note_on_c, 1, 33, 0
1, 1055, Note_on_c, 0, 61, 0
1, 1056, Note_on_c, 0, 67, 80
1, 1080, Note_on_c, 0, 67, 0
1, 1080, Note_on_c, 0, 64, 80
1, 1103, Note_on_c, 0, 64, 0
1, 1104, Note_on_c, 0, 70, 80
1, 1128, Note_on_c, 0, 70, 0
1, 1128, Note_on_c, 0, 67, 80
1, 1151, Note_on_c, 0, 67, 0
1, 1152, Note_on_c, 0, 65, 80
1, 1152, Note_on_c, 1, 53, 80
1, 1176, Note_on_c, 0, 65, 0
1, 1176, Note_on_c, 0, 62, 80
1, 1176, Note_on_c, 1, 53, 0
1, 1176, Note_on_c, 1, 50, 80
1, 1199, Note_on_c, 0, 62, 0
1, 1199, Note_on_c, 1, 50, 0
1, 1200, Note_on_c, 0, 69, 80
1, 1200, Note_on_c, 1, 57, 80
1, 1224, Note_on_c, 0, 69, 0
1, 1224, Note_on_c, 0, 65, 80
1, 1224, Note_on_c, 1, 57, 0
1, 1224, Note_on_c, 1, 53, 80
1, 1247, Note_on_c, 0, 65, 0
1, 1247, Note_on_c, 1, 53, 0
1, 1248, Note_on_c, 0, 74, 80
1, 1248, Note_on_c, 1, 62, 80
1, 1272, Note_on_c, 0, 74, 0
1, 1272, Note_on_c, 0, 69, 80
1, 1272, Note_on_c, 1, 62, 0
1, 1272, Note_on_c, 1, 57, 80
1, 1295, Note_on_c, 0, 69, 0
1, 1295, Note_on_c, 1, 57, 0
1, 1296, Note_on_c, 0, 77, 80
1, 1296, Note_on_c, 1, 65, 80
1, 1320, Note_on_c, 0, 77, 0
1, 1320, Note_on_c, 0, 74, 80
1, 1320, Note_on_c, 1, 65, 0
1, 1320, Note_on_c, 1, 62, 80
1, 1343, Note_on_c, 0, 74, 0
1, 1343, Note_on_c, 1, 62, 0
1, 1344, Note_on_c, 0, 75, 80
1, 1344, Note_on_c, 1, 55, 80
1, 1367, Note_on_c, 0, 75, 0
1, 1368, Note_on_c, 0, 79, 80
1, 1389, Note_on_c, 1, 55, 0
1, 1391, Note_on_c, 0, 79, 0
1, 1392, Note_on_c, 0, 82, 80
1, 1392, Note_on_c, 1, 43, 80
1, 1415, Note_on_c, 0, 82, 0
1, 1416, Note_on_c, 0, 79, 80
1, 1437, Note_on_c, 1, 43, 0
1, 1439, Note_on_c, 0, 79, 0
1, 1440, Note_on_c, 0, 70, 80
1, 1440, Note_on_c, 1, 43, 80
1, 1463, Note_on_c, 0, 70, 0
1, 1464, Note_on_c, 0, 75, 80
1, 1485, Note_on_c, 1, 43, 0
1, 1487, Note_on_c, 0, 75, 0
1, 1488, Note_on_c, 0, 79, 80
1, 1488, Note_on_c, 1, 43, 80
1, 1511, Note_on_c, 0, 79, 0
1, 1512, Note_on_c, 0, 75, 80
1, 1533, Note_on_c, 1, 43, 0
1, 1535, Note_on_c, 0, 75, 0
1, 1536, Note_on_c, 0, 67, 80
1, 1536, Note_on_c, 1, 43, 80
1, 1559, Note_on_c, 0, 67, 0
1, 1559, Note_on_c, 1, 43, 0
1, 1560, Note_on_c, 0, 70, 80
1, 1560, Note_on_c, 1, 58, 80
1, 1583, Note_on_c, 0, 70, 0
1, 1583, Note_on_c, 1, 58, 0
1, 1584, Note_on_c, 0, 75, 80
1, 1584, Note_on_c, 1, 63, 80
1, 1607, Note_on_c, 0, 75, 0
1, 1607, Note_on_c, 1, 63, 0
1, 1608, Note_on_c, 0, 70, 80
1, 1608, Note_on_c, 1, 58, 80
1, 1631, Note_on_c, 0, 70, 0
1, 1631, Note_on_c, 1, 58, 0
1, 1632, Note_on_c, 0, 67, 80
1, 1632, Note_on_c, 1, 55, 80
1, 1655, Note_on_c, 0, 67, 0
1, 1655, Note_on_c, 1, 55, 0
1, 1656, Note_on_c, 0, 70, 80
1, 1656, Note_on_c, 1, 58, 80
1, 1679, Note_on_c, 0, 70, 0
1, 1679, Note_on_c, 1, 58, 0
1, 1680, Note_on_c, 0, 67, 80
1, 1680, Note_on_c, 1, 55, 80
1, 1703, Note_on_c, 0, 67, 0
1, 1703, Note_on_c, 1, 55, 0
1, 1704, Note_on_c, 0, 63, 80
1, 1704, Note_on_c, 1, 51, 80
1, 1727, Note_on_c, 0, 63, 0
1, 1727, Note_on_c, 1, 51, 0
1, 1728, Note_on_c, 0, 61, 96
1, 1728, Note_on_c, 1, 49, 80
1, 1773, Note_on_c, 1, 49, 0
1, 1776, Note_on_c, 0, 61, 0
1, 1776, Note_on_c, 0, 67, 80
1, 1776, Note_on_c, 1, 55, 80
1, 1791, Note_on_c, 0, 67, 0
1, 1791, Note_on_c, 1, 55, 0
1, 1792, Note_on_c, 0, 69, 80
1, 1792, Note_on_c, 1, 57, 80
1, 1807, Note_on_c, 0, 69, 0
1, 1807, Note_on_c, 1, 57, 0
1, 1808, Note_on_c, 0, 70, 80
1, 1808, Note_on_c, 1, 58, 80
1, 1823, Note_on_c, 0, 70, 0
1, 1823, Note_on_c, 1, 58, 0
1, 1824, Note_on_c, 0, 61, 96
1, 1824, Note_on_c, 1, 49, 80
1, 1869, Note_on_c, 1, 49, 0
1, 1872, Note_on_c, 0, 61, 0
1, 1872, Note_on_c, 0, 67, 80
1, 1872, Note_on_c, 1, 55, 80
1, 1887, Note_on_c, 0, 67, 0
1, 1887, Note_on_c, 1, 55, 0
1, 1888, Note_on_c, 0, 69, 80
1, 1888, Note_on_c, 1, 57, 80
1, 1903, Note_on_c, 0, 69, 0
1, 1903, Note_on_c, 1, 57, 0
1, 1904, Note_on_c, 0, 70, 80
1, 1904, Note_on_c, 1, 58, 80
1, 1919, Note_on_c, 0, 70, 0
1, 1919, Note_on_c, 1, 58, 0
1, 1920, Note_on_c, 0, 61, 96
1, 1920, Note_on_c, 1, 49, 80
1, 1932, Note_on_c, 0, 61, 0
1, 1932, Note_on_c, 0, 62, 96
1, 1944, Note_on_c, 0, 62, 0
1, 1944, Note_on_c, 0, 61, 96
1, 2009, Note_on_c, 1, 49, 0
1, 2016, Note_on_c, 0, 61, 0
1, 2064, Note_on_c, 0, 60, 77
1, 2064, Note_on_c, 1, 48, 77
1, 2109, Note_on_c, 0, 60, 0
1, 2109, Note_on_c, 1, 48, 0
1, 2112, Note_on_c, 0, 59, 92
1, 2112, Note_on_c, 1, 47, 76
1, 2157, Note_on_c, 1, 47, 0
1, 2160, Note_on_c, 0, 59, 0
1, 2160, Note_on_c, 0, 65, 75
1, 2160, Note_on_c, 1, 53, 75
1, 2175, Note_on_c, 0, 65, 0
1, 2175, Note_on_c, 1, 53, 0
1, 2176, Note_on_c, 0, 67, 75
1, 2176, Note_on_c, 1, 55, 75
1, 2191, Note_on_c, 0, 67, 0
1, 2191, Note_on_c, 1, 55, 0
1, 2192, Note_on_c, 0, 68, 75
1, 2192, Note_on_c, 1, 56, 75
1, 2207, Note_on_c, 0, 68, 0
1, 2207, Note_on_c, 1, 56, 0
1, 2208, Note_on_c, 0, 59, 91
1, 2208, Note_on_c, 1, 47, 75
1, 2253, Note_on_c, 1, 47, 0
1, 2256, Note_on_c, 0, 59, 0
1, 2256, Note_on_c, 0, 65, 75
1, 2256, Note_on_c, 1, 53, 75
1, 2271, Note_on_c, 0, 65, 0
1, 2271, Note_on_c, 1, 53, 0
1, 2272, Note_on_c, 0, 67, 75
1, 2272, Note_on_c, 1, 55, 75
1, 2287, Note_on_c, 0, 67, 0
1, 2287, Note_on_c, 1, 55, 0
1, 2288, Note_on_c, 0, 68, 75
1, 2288, Note_on_c, 1, 56, 75
1, 2303, Note_on_c, 0, 68, 0
1, 2303, Note_on_c, 1, 56, 0
1, 2304, Note_on_c, 0, 59, 75
1, 2304, Note_on_c, 1, 47, 75
1, 2316, Note_on_c, 0, 59, 0
1, 2316, Note_on_c, 0, 60, 75
1, 2328, Note_on_c, 0, 60, 0
1, 2328, Note_on_c, 0, 59, 75
1, 2393, Note_on_c, 0, 59, 0
1, 2393, Note_on_c, 1, 47, 0
1, 2448, Note_on_c, 0, 58, 77
1, 2448, Note_on_c, 1, 46, 76
1, 2493, Note_on_c, 0, 58, 0
1, 2493, Note_on_c, 1, 46, 0
1, 2496, Note_on_c, 0, 57, 79
1, 2496, Note_on_c, 1, 45, 77
1, 2519, Note_on_c, 0, 57, 0
1, 2520, Note_on_c, 0, 60, 80
1, 2543, Note_on_c, 0, 60, 0
1, 2544, Note_on_c, 0, 66, 80
1, 2567, Note_on_c, 0, 66, 0
1, 2568, Note_on_c, 0, 69, 80
1, 2585, Note_on_c, 1, 45, 0
1, 2591, Note_on_c, 0, 69, 0
1, 2592, Note_on_c, 0, 57, 80
1, 2592, Note_on_c, 1, 57, 80
1, 2592, Note_on_c, 1, 54, 80
1, 2592, Note_on_c, 1, 51, 80
1, 2592, Note_on_c, 1, 48, 80
1, 2615, Note_on_c, 0, 57, 0
1, 2616, Note_on_c, 0, 60, 80
1, 2639, Note_on_c, 0, 60, 0
1, 2640, Note_on_c, 0, 66, 80
1, 2663, Note_on_c, 0, 66, 0
1, 2664, Note_on_c, 0, 69, 80
1, 2681, Note_on_c, 1, 57, 0
1, 2681, Note_on_c, 1, 54, 0
1, 2681, Note_on_c, 1, 51, 0
1, 2681, Note_on_c, 1, 48, 0
1, 2687, Note_on_c, 0, 69, 0
1, 2688, Note_on_c, 0, 58, 80
1, 2711, Note_on_c, 0, 58, 0
1, 2712, Note_on_c, 0, 62, 80
1, 2735, Note_on_c, 0, 62, 0
1, 2736, Note_on_c, 0, 67, 80
1, 2736, Note_on_c, 1, 55, 96
1, 2736, Note_on_c, 1, 50, 96
1, 2736, Note_on_c, 1, 46, 96
1, 2759, Note_on_c, 0, 67, 0
1, 2760, Note_on_c, 0, 70, 80
1, 2783, Note_on_c, 0, 70, 0
1, 2784, Note_on_c, 0, 58, 80
1, 2807, Note_on_c, 0, 58, 0
1, 2808, Note_on_c, 0, 62, 80
1, 2831, Note_on_c, 0, 62, 0
1, 2832, Note_on_c, 0, 67, 80
1, 2832, Note_on_c, 1, 55, 0
1, 2832, Note_on_c, 1, 50, 0
1, 2832, Note_on_c, 1, 46, 0
1, 2832, Note_on_c, 1, 55, 96
1, 2832, Note_on_c, 1, 50, 96
1, 2832, Note_on_c, 1, 46, 96
1, 2855, Note_on_c, 0, 67, 0
1, 2856, Note_on_c, 0, 70, 80
1, 2879, Note_on_c, 0, 70, 0
1, 2880, Note_on_c, 0, 55, 80
1, 2880, Note_on_c, 1, 55, 0
1, 2880, Note_on_c, 1, 50, 0
1, 2880, Note_on_c, 1, 46, 0
1, 2880, Note_on_c, 1, 52, 80
1, 2880, Note_on_c, 1, 46, 80
1, 2880, Note_on_c, 1, 43, 80
1, 2903, Note_on_c, 0, 55, 0
1, 2904, Note_on_c, 0, 58, 80
1, 2927, Note_on_c, 0, 58, 0
1, 2928, Note_on_c, 0, 64, 80
1, 2951, Note_on_c, 0, 64, 0
1, 2952, Note_on_c, 0, 67, 80
1, 2969, Note_on_c, 1, 52, 0
1, 2969, Note_on_c, 1, 46, 0
1, 2969, Note_on_c, 1, 43, 0
1, 2975, Note_on_c, 0, 67, 0
1, 2976, Note_on_c, 0, 55, 80
1, 2976, Note_on_c, 1, 52, 96
1, 2976, Note_on_c, 1, 46, 96
1, 2976, Note_on_c, 1, 43, 96
1, 2999, Note_on_c, 0, 55, 0
1, 3000, Note_on_c, 0, 58, 80
1, 3023, Note_on_c, 0, 58, 0
1, 3024, Note_on_c, 0, 64, 80
1, 3047, Note_on_c, 0, 64, 0
1, 3048, Note_on_c, 0, 67, 80
1, 3071, Note_on_c, 0, 67, 0
1, 3072, Note_on_c, 0, 57, 80
1, 3072, Note_on_c, 1, 52, 0
1, 3072, Note_on_c, 1, 46, 0
1, 3072, Note_on_c, 1, 43, 0
1, 3095, Note_on_c, 0, 57, 0
1, 3096, Note_on_c, 0, 60, 80
1, 3119, Note_on_c, 0, 60, 0
1, 3120, Note_on_c, 0, 64, 80
1, 3120, Note_on_c, 1, 53, 96
1, 3120, Note_on_c, 1, 48, 96
1, 3120, Note_on_c, 1, 45, 96
1, 3143, Note_on_c, 0, 64, 0
1, 3144, Note_on_c, 0, 65, 80
1, 3167, Note_on_c, 0, 65, 0
1, 3168, Note_on_c, 0, 57, 80
1, 3191, Note_on_c, 0, 57, 0
1, 3192, Note_on_c, 0, 60, 80
1, 3215, Note_on_c, 0, 60, 0
1, 3216, Note_on_c, 0, 64, 80
1, 3216, Note_on_c, 1, 53, 0
1, 3216, Note_on_c, 1, 48, 0
1, 3216, Note_on_c, 1, 45, 0
1, 3216, Note_on_c, 1, 53, 96
1, 3216, Note_on_c, 1, 48, 96
1, 3216, Note_on_c, 1, 45, 96
1, 3239, Note_on_c, 0, 64, 0
1, 3240, Note_on_c, 0, 65, 80
1, 3263, Note_on_c, 0, 65, 0
1, 3264, Note_on_c, 0, 57, 80
1, 3264, Note_on_c, 1, 53, 0
1, 3264, Note_on_c, 1, 48, 0
1, 3264, Note_on_c, 1, 45, 0
1, 3264, Note_on_c, 1, 54, 80
1, 3264, Note_on_c, 1, 50, 80
1, 3287, Note_on_c, 0, 57, 0
1, 3288, Note_on_c, 0, 60, 80
1, 3309, Note_on_c, 1, 54, 0
1, 3309, Note_on_c, 1, 50, 0
1, 3311, Note_on_c, 0, 60, 0
1, 3312, Note_on_c, 0, 66, 80
1, 3312, Note_on_c, 1, 57, 80
1, 3335, Note_on_c, 0, 66, 0
1, 3336, Note_on_c, 0, 69, 80
1, 3357, Note_on_c, 1, 57, 0
1, 3359, Note_on_c, 0, 69, 0
1, 3360, Note_on_c, 0, 57, 80
1, 3360, Note_on_c, 1, 54, 80
1, 3360, Note_on_c, 1, 50, 80
1, 3383, Note_on_c, 0, 57, 0
1, 3384, Note_on_c, 0, 60, 80
1, 3405, Note_on_c, 1, 54, 0
1, 3405, Note_on_c, 1, 50, 0
1, 3407, Note_on_c, 0, 60, 0
1, 3408, Note_on_c, 0, 66, 80
1, 3408, Note_on_c, 1, 57, 80
1, 3431, Note_on_c, 0, 66, 0
1, 3432, Note_on_c, 0, 69, 80
1, 3453, Note_on_c, 1, 57, 0
1, 3455, Note_on_c, 0, 69, 0
1, 3456, Note_on_c, 0, 67, 80
1, 3456, Note_on_c, 1, 51, 80
1, 3456, Note_on_c, 1, 39, 80
1, 3479, Note_on_c, 0, 67, 0
1, 3480, Note_on_c, 0, 65, 80
1, 3503, Note_on_c, 0, 65, 0
1, 3504, Note_on_c, 0, 63, 80
1, 3527, Note_on_c, 0, 63, 0
1, 3528, Note_on_c, 0, 62, 80
1, 3551, Note_on_c, 0, 62, 0
1, 3552, Note_on_c, 0, 60, 80
1, 3575, Note_on_c, 0, 60, 0
1, 3576, Note_on_c, 0, 58, 80
1, 3599, Note_on_c, 0, 58, 0
1, 3600, Note_on_c, 0, 57, 80
1, 3623, Note_on_c, 0, 57, 0
1, 3624, Note_on_c, 0, 55, 80
1, 3647, Note_on_c, 0, 55, 0
1, 3648, Note_on_c, 0, 70, 80
1, 3648, Note_on_c, 1, 51, 0
1, 3648, Note_on_c, 1, 39, 0
1, 3648, Note_on_c, 1, 49, 80
1, 3648, Note_on_c, 1, 37, 80
1, 3671, Note_on_c, 0, 70, 0
1, 3672, Note_on_c, 0, 67, 80
1, 3695, Note_on_c, 0, 67, 0
1, 3696, Note_on_c, 0, 69, 80
1, 3737, Note_on_c, 1, 49, 0
1, 3737, Note_on_c, 1, 37, 0
1, 3785, Note_on_c, 0, 69, 0
1, 3792, Note_on_c, 0, 82, 80
1, 3792, Note_on_c, 0, 79, 80
1, 3807, Note_on_c, 0, 82, 0
1, 3807, Note_on_c, 0, 79, 0
1, 3808, Note_on_c, 0, 81, 80
1, 3808, Note_on_c, 0, 77, 80
1, 3823, Note_on_c, 0, 81, 0
1, 3823, Note_on_c, 0, 77, 0
1, 3824, Note_on_c, 0, 79, 80
1, 3824, Note_on_c, 0, 76, 80
1, 3839, Note_on_c, 0, 79, 0
1, 3839, Note_on_c, 0, 76, 0
1, 3840, Note_on_c, 0, 77, 96
1, 3840, Note_on_c, 0, 74, 96
1, 3888, Note_on_c, 0, 77, 0
1, 3888, Note_on_c, 0, 74, 0
1, 3888, Note_on_c, 0, 81, 80
1, 3888, Note_on_c, 0, 77, 80
1, 3903, Note_on_c, 0, 81, 0
1, 3903, Note_on_c, 0, 77, 0
1, 3904, Note_on_c, 0, 79, 80
1, 3904, Note_on_c, 0, 76, 80
1, 3919, Note_on_c, 0, 79, 0
1, 3919, Note_on_c, 0, 76, 0
1, 3920, Note_on_c, 0, 77, 80
1, 3920, Note_on_c, 0, 74, 80
1, 3935, Note_on_c, 0, 77, 0
1, 3935, Note_on_c, 0, 74, 0
1, 3936, Note_on_c, 0, 76, 96
1, 3936, Note_on_c, 0, 73, 96
1, 3984, Note_on_c, 0, 76, 0
1, 3984, Note_on_c, 0, 73, 0
1, 3984, Note_on_c, 0, 79, 80
1, 3984, Note_on_c, 0, 76, 80
1, 3999, Note_on_c, 0, 79, 0
1, 3999, Note_on_c, 0, 76, 0
1, 4000, Note_on_c, 0, 77, 80
1, 4000, Note_on_c, 0, 74, 80
1, 4015, Note_on_c, 0, 77, 0
1, 4015, Note_on_c, 0, 74, 0
1, 4016, Note_on_c, 0, 76, 80
1, 4016, Note_on_c, 0, 73, 80
1, 4031, Note_on_c, 0, 76, 0
1, 4031, Note_on_c, 0, 73, 0
1, 4032, Note_on_c, 0, 74, 96
1, 4032, Note_on_c, 0, 70, 96
1, 4032, Note_on_c, 1, 58, 80
1, 4032, Note_on_c, 1, 46, 80
1, 4056, Note_on_c, 0, 74, 0
1, 4056, Note_on_c, 0, 70, 0
1, 4056, Note_on_c, 0, 77, 80
1, 4079, Note_on_c, 0, 77, 0
1, 4080, Note_on_c, 0, 76, 80
1, 4103, Note_on_c, 0, 76, 0
1, 4104, Note_on_c, 0, 74, 80
1, 4126, Note_on_c, 1, 58, 0
1, 4126, Note_on_c, 1, 46, 0
1, 4127, Note_on_c, 0, 74, 0
1, 4128, Note_on_c, 0, 72, 80
1, 4151, Note_on_c, 0, 72, 0
1, 4152, Note_on_c, 0, 70, 80
1, 4175, Note_on_c, 0, 70, 0
1, 4176, Note_on_c, 0, 69, 80
1, 4176, Note_on_c, 1, 49, 80
1, 4188, Note_on_c, 1, 49, 0
1, 4188, Note_on_c, 1, 50, 80
1, 4199, Note_on_c, 0, 69, 0
1, 4200, Note_on_c, 0, 67, 80
1, 4200, Note_on_c, 1, 50, 0
1, 4200, Note_on_c, 1, 49, 80
1, 4221, Note_on_c, 1, 49, 0
1, 4223, Note_on_c, 0, 67, 0
1, 4224, Note_on_c, 0, 65, 80
1, 4224, Note_on_c, 1, 50, 80
1, 4269, Note_on_c, 0, 65, 0
1, 4269, Note_on_c, 1, 50, 0
1, 4272, Note_on_c, 0, 67, 80
1, 4272, Note_on_c, 1, 48, 80
1, 4280, Note_on_c, 0, 67, 0
1, 4280, Note_on_c, 0, 66, 80
1, 4288, Note_on_c, 0, 66, 0
1, 4288, Note_on_c, 0, 67, 80
1, 4296, Note_on_c, 0, 67, 0
1, 4296, Note_on_c, 0, 66, 80
1, 4304, Note_on_c, 0, 66, 0
1, 4304, Note_on_c, 0, 64, 81
1, 4312, Note_on_c, 0, 64, 0
1, 4312, Note_on_c, 0, 66, 81
1, 4317, Note_on_c, 1, 48, 0
1, 4320, Note_on_c, 0, 66, 0
1, 4320, Note_on_c, 0, 67, 81
1, 4320, Note_on_c, 1, 46, 80
1, 4340, Note_on_c, 1, 46, 0
1, 4365, Note_on_c, 0, 67, 0
1, 4368, Note_on_c, 0, 69, 83
1, 4368, Note_on_c, 1, 46, 80
1, 4376, Note_on_c, 0, 69, 0
1, 4376, Note_on_c, 0, 68, 83
1, 4384, Note_on_c, 0, 68, 0
1, 4384, Note_on_c, 0, 69, 84
1, 4388, Note_on_c, 1, 46, 0
1, 4392, Note_on_c, 0, 69, 0
1, 4392, Note_on_c, 0, 68, 84
1, 4400, Note_on_c, 0, 68, 0
1, 4400, Note_on_c, 0, 66, 84
1, 4408, Note_on_c, 0, 66, 0
1, 4408, Note_on_c, 0, 68, 84
1, 4416, Note_on_c, 0, 68, 0
1, 4416, Note_on_c, 0, 69, 86
1, 4416, Note_on_c, 1, 45, 80
1, 4461, Note_on_c, 0, 69, 0
1, 4464, Note_on_c, 0, 57, 83
1, 4505, Note_on_c, 1, 45, 0
1, 4509, Note_on_c, 0, 57, 0
1, 4608, Note_on_c, 0, 69, 96
1, 4608, Note_on_c, 1, 50, 80
1, 4608, Note_on_c, 1, 45, 80
1, 4608, Note_on_c, 1, 41, 80
1, 4608, Note_on_c, 1, 38, 80
1, 4632, Note_on_c, 0, 69, 0
1, 4632, Note_on_c, 0, 62, 80
1, 4655, Note_on_c, 0, 62, 0
1, 4656, Note_on_c, 0, 61, 80
1, 4679, Note_on_c, 0, 61, 0
1, 4680, Note_on_c, 0, 62, 80
1, 4703, Note_on_c, 0, 62, 0
1, 4704, Note_on_c, 0, 61, 80
1, 4727, Note_on_c, 0, 61, 0
1, 4728, Note_on_c, 0, 62, 80
1, 4741, Note_on_c, 1, 50, 0
1, 4741, Note_on_c, 1, 45, 0
1, 4741, Note_on_c, 1, 41, 0
1, 4741, Note_on_c, 1, 38, 0
1, 4751, Note_on_c, 0, 62, 0
1, 4752, Note_on_c, 0, 61, 80
1, 4752, Note_on_c, 1, 50, 80
1, 4772, Note_on_c, 1, 50, 0
1, 4775, Note_on_c, 0, 61, 0
1, 4776, Note_on_c, 0, 62, 80
1, 4799, Note_on_c, 0, 62, 0
1, 4800, Note_on_c, 0, 70, 96
1, 4800, Note_on_c, 0, 67, 96
1, 4800, Note_on_c, 1, 49, 80
1, 4820, Note_on_c, 0, 70, 0
1, 4820, Note_on_c, 0, 67, 0
1, 4820, Note_on_c, 1, 49, 0
1, 4848, Note_on_c, 0, 69, 80
1, 4848, Note_on_c, 0, 65, 80
1, 4848, Note_on_c, 1, 50, 80
1, 4868, Note_on_c, 0, 69, 0
1, 4868, Note_on_c, 0, 65, 0
1, 4868, Note_on_c, 1, 50, 0
1, 4944, Note_on_c, 0, 73, 80
1, 4989, Note_on_c, 0, 73, 0
1, 4992, Note_on_c, 0, 74, 96
1, 4992, Note_on_c, 1, 62, 80
1, 4992, Note_on_c, 1, 57, 80
1, 4992, Note_on_c, 1, 53, 80
1, 4992, Note_on_c, 1, 50, 80
1, 5016, Note_on_c, 0, 74, 0
1, 5016, Note_on_c, 0, 69, 80
1, 5039, Note_on_c, 0, 69, 0
1, 5040, Note_on_c, 0, 67, 80
1, 5063, Note_on_c, 0, 67, 0
1, 5064, Note_on_c, 0, 65, 80
1, 5081, Note_on_c, 1, 62, 0
1, 5081, Note_on_c, 1, 57, 0
1, 5081, Note_on_c, 1, 53, 0
1, 5081, Note_on_c, 1, 50, 0
1, 5087, Note_on_c, 0, 65, 0
1, 5088, Note_on_c, 0, 64, 80
1, 5111, Note_on_c, 0, 64, 0
1, 5112, Note_on_c, 0, 62, 80
1, 5135, Note_on_c, 0, 62, 0
1, 5136, Note_on_c, 0, 61, 80
1, 5136, Note_on_c, 1, 43, 80
1, 5159, Note_on_c, 0, 61, 0
1, 5160, Note_on_c, 0, 62, 80
1, 5181, Note_on_c, 1, 43, 0
1, 5183, Note_on_c, 0, 62, 0
1, 5184, Note_on_c, 0, 61, 80
1, 5184, Note_on_c, 1, 45, 80
1, 5207, Note_on_c, 0, 61, 0
1, 5208, Note_on_c, 0, 62, 80
1, 5231, Note_on_c, 0, 62, 0
1, 5232, Note_on_c, 0, 64, 80
1, 5255, Note_on_c, 0, 64, 0
1, 5256, Note_on_c, 0, 58, 80
1, 5273, Note_on_c, 1, 45, 0
1, 5279, Note_on_c, 0, 58, 0
1, 5280, Note_on_c, 0, 57, 80
1, 5303, Note_on_c, 0, 57, 0
1, 5304, Note_on_c, 0, 55, 80
1, 5327, Note_on_c, 0, 55, 0
1, 5328, Note_on_c, 0, 53, 80
1, 5328, Note_on_c, 1, 45, 80
1, 5351, Note_on_c, 0, 53, 0
1, 5352, Note_on_c, 0, 52, 80
1, 5373, Note_on_c, 1, 45, 0
1, 5375, Note_on_c, 0, 52, 0
1, 5376, Note_on_c, 0, 53, 80
1, 5376, Note_on_c, 1, 50, 80
1, 5400, Note_on_c, 0, 53, 0
1, 5400, Note_on_c, 0, 50, 80
1, 5423, Note_on_c, 0, 50, 0
1, 5424, Note_on_c, 0, 57, 80
1, 5448, Note_on_c, 0, 57, 0
1, 5448, Note_on_c, 0, 53, 80
1, 5465, Note_on_c, 1, 50, 0
1, 5471, Note_on_c, 0, 53, 0
1, 5472, Note_on_c, 0, 62, 80
1, 5496, Note_on_c, 0, 62, 0
1, 5496, Note_on_c, 0, 57, 80
1, 5519, Note_on_c, 0, 57, 0
1, 5520, Note_on_c, 0, 65, 80
1, 5544, Note_on_c, 0, 65, 0
1, 5544, Note_on_c, 0, 62, 80
1, 5567, Note_on_c, 0, 62, 0
1, 5568, Note_on_c, 0, 61, 80
1, 5568, Note_on_c, 1, 45, 80
1, 5568, Note_on_c, 1, 33, 80
1, 5592, Note_on_c, 0, 61, 0
1, 5592, Note_on_c, 0, 57, 80
1, 5615, Note_on_c, 0, 57, 0
1, 5616, Note_on_c, 0, 64, 80
1, 5640, Note_on_c, 0, 64, 0
1, 5640, Note_on_c, 0, 61, 80
1, 5657, Note_on_c, 1, 45, 0
1, 5657, Note_on_c, 1, 33, 0
1, 5663, Note_on_c, 0, 61, 0
1, 5664, Note_on_c, 0, 67, 80
1, 5688, Note_on_c, 0, 67, 0
1, 5688, Note_on_c, 0, 64, 80
1, 5711, Note_on_c, 0, 64, 0
1, 5712, Note_on_c, 0, 70, 80
1, 5736, Note_on_c, 0, 70, 0
1, 5736, Note_on_c, 0, 67, 80
1, 5759, Note_on_c, 0, 67, 0
1, 5760, Note_on_c, 0, 65, 80
1, 5760, Note_on_c, 1, 53, 80
1, 5784, Note_on_c, 0, 65, 0
1, 5784, Note_on_c, 0, 62, 80
1, 5784, Note_on_c, 1, 53, 0
1, 5784, Note_on_c, 1, 50, 80
1, 5807, Note_on_c, 0, 62, 0
1, 5807, Note_on_c, 1, 50, 0
1, 5808, Note_on_c, 0, 69, 80
1, 5808, Note_on_c, 1, 57, 80
1, 5832, Note_on_c, 0, 69, 0
1, 5832, Note_on_c, 0, 65, 80
1, 5832, Note_on_c, 1, 57, 0
1, 5832, Note_on_c, 1, 53, 80
1, 5855, Note_on_c, 0, 65, 0
1, 5855, Note_on_c, 1, 53, 0
1, 5856, Note_on_c, 0, 74, 80
1, 5856, Note_on_c, 1, 62, 80
1, 5880, Note_on_c, 0, 74, 0
1, 5880, Note_on_c, 0, 69, 80
1, 5880, Note_on_c, 1, 62, 0
1, 5880, Note_on_c, 1, 57, 80
1, 5903, Note_on_c, 0, 69, 0
1, 5903, Note_on_c, 1, 57, 0
1, 5904, Note_on_c, 0, 77, 80
1, 5904, Note_on_c, 1, 65, 80
1, 5928, Note_on_c, 0, 77, 0
1, 5928, Note_on_c, 0, 74, 80
1, 5928, Note_on_c, 1, 65, 0
1, 5928, Note_on_c, 1, 62, 80
1, 5951, Note_on_c, 0, 74, 0
1, 5951, Note_on_c, 1, 62, 0
1, 5952, Note_on_c, 0, 75, 80
1, 5952, Note_on_c, 1, 55, 80
1, 5975, Note_on_c, 0, 75, 0
1, 5976, Note_on_c, 0, 79, 80
1, 5997, Note_on_c, 1, 55, 0
1, 5999, Note_on_c, 0, 79, 0
1, 6000, Note_on_c, 0, 82, 80
1, 6000, Note_on_c, 1, 43, 80
1, 6023, Note_on_c, 0, 82, 0
1, 6024, Note_on_c, 0, 79, 80
1, 6045, Note_on_c, 1, 43, 0
1, 6047, Note_on_c, 0, 79, 0
1, 6048, Note_on_c, 0, 70, 80
1, 6048, Note_on_c, 1, 43, 80
1, 6071, Note_on_c, 0, 70, 0
1, 6072, Note_on_c, 0, 75, 80
1, 6093, Note_on_c, 1, 43, 0
1, 6095, Note_on_c, 0, 75, 0
1, 6096, Note_on_c, 0, 79, 80
1, 6096, Note_on_c, 1, 43, 80
1, 6119, Note_on_c, 0, 79, 0
1, 6120, Note_on_c, 0, 75, 80
1, 6141, Note_on_c, 1, 43, 0
1, 6143, Note_on_c, 0, 75, 0
1, 6144, Note_on_c, 0, 67, 80
1, 6144, Note_on_c, 1, 43, 80
1, 6167, Note_on_c, 0, 67, 0
1, 6167, Note_on_c, 1, 43, 0
1, 6168, Note_on_c, 0, 70, 80
1, 6168, Note_on_c, 1, 58, 80
1, 6191, Note_on_c, 0, 70, 0
1, 6191, Note_on_c, 1, 58, 0
1, 6192, Note_on_c, 0, 75, 80
1, 6192, Note_on_c, 1, 63, 80
1, 6215, Note_on_c, 0, 75, 0
1, 6215, Note_on_c, 1, 63, 0
1, 6216, Note_on_c, 0, 70, 80
1, 6216, Note_on_c, 1, 58, 80
1, 6239, Note_on_c, 0, 70, 0
1, 6239, Note_on_c, 1, 58, 0
1, 6240, Note_on_c, 0, 67, 80
1, 6240, Note_on_c, 1, 55, 80
1, 6263, Note_on_c, 0, 67, 0
1, 6263, Note_on_c, 1, 55, 0
1, 6264, Note_on_c, 0, 70, 80
1, 6264, Note_on_c, 1, 58, 80
1, 6287, Note_on_c, 0, 70, 0
1, 6287, Note_on_c, 1, 58, 0
1, 6288, Note_on_c, 0, 67, 80
1, 6288, Note_on_c, 1, 55, 80
1, 6311, Note_on_c, 0, 67, 0
1, 6311, Note_on_c, 1, 55, 0
1, 6312, Note_on_c, 0, 63, 80
1, 6312, Note_on_c, 1, 51, 80
1, 6335, Note_on_c, 0, 63, 0
1, 6335, Note_on_c, 1, 51, 0
1, 6336, Note_on_c, 0, 61, 96
1, 6336, Note_on_c, 1, 49, 80
1, 6381, Note_on_c, 1, 49, 0
1, 6384, Note_on_c, 0, 61, 0
1, 6384, Note_on_c, 0, 67, 80
1, 6384, Note_on_c, 1, 55, 80
1, 6399, Note_on_c, 0, 67, 0
1, 6399, Note_on_c, 1, 55, 0
1, 6400, Note_on_c, 0, 69, 80
1, 6400, Note_on_c, 1, 57, 80
1, 6415, Note_on_c, 0, 69, 0
1, 6415, Note_on_c, 1, 57, 0
1, 6416, Note_on_c, 0, 70, 80
1, 6416, Note_on_c, 1, 58, 80
1, 6431, Note_on_c, 0, 70, 0
1, 6431, Note_on_c, 1, 58, 0
1, 6432, Note_on_c, 0, 61, 96
1, 6432, Note_on_c, 1, 49, 80
1, 6477, Note_on_c, 1, 49, 0
1, 6480, Note_on_c, 0, 61, 0
1, 6480, Note_on_c, 0, 67, 80
1, 6480, Note_on_c, 1, 55, 80
1, 6495, Note_on_c, 0, 67, 0
1, 6495, Note_on_c, 1, 55, 0
1, 6496, Note_on_c, 0, 69, 80
1, 6496, Note_on_c, 1, 57, 80
1, 6511, Note_on_c, 0, 69, 0
1, 6511, Note_on_c, 1, 57, 0
1, 6512, Note_on_c, 0, 70, 80
1, 6512, Note_on_c, 1, 58, 80
1, 6527, Note_on_c, 0, 70, 0
1, 6527, Note_on_c, 1, 58, 0
1, 6528, Note_on_c, 0, 61, 96
1, 6528, Note_on_c, 1, 49, 80
1, 6540, Note_on_c, 0, 61, 0
1, 6540, Note_on_c, 0, 62, 96
1, 6552, Note_on_c, 0, 62, 0
1, 6552, Note_on_c, 0, 61, 96
1, 6617, Note_on_c, 1, 49, 0
1, 6624, Note_on_c, 0, 61, 0
1, 6672, Note_on_c, 0, 60, 77
1, 6672, Note_on_c, 1, 48, 77
1, 6717, Note_on_c, 0, 60, 0
1, 6717, Note_on_c, 1, 48, 0
1, 6720, Note_on_c, 0, 59, 92
1, 6720, Note_on_c, 1, 47, 76
1, 6765, Note_on_c, 1, 47, 0
1, 6768, Note_on_c, 0, 59, 0
1, 6768, Note_on_c, 0, 65, 75
1, 6768, Note_on_c, 1, 53, 75
1, 6783, Note_on_c, 0, 65, 0
1, 6783, Note_on_c, 1, 53, 0
1, 6784, Note_on_c, 0, 67, 75
1, 6784, Note_on_c, 1, 55, 75
1, 6799, Note_on_c, 0, 67, 0
1, 6799, Note_on_c, 1, 55, 0
1, 6800, Note_on_c, 0, 68, 75
1, 6800, Note_on_c, 1, 56, 75
1, 6815, Note_on_c, 0, 68, 0
1, 6815, Note_on_c, 1, 56, 0
1, 6816, Note_on_c, 0, 59, 91
1, 6816, Note_on_c, 1, 47, 75
1, 6861, Note_on_c, 1, 47, 0
1, 6864, Note_on_c, 0, 59, 0
1, 6864, Note_on_c, 0, 65, 75
1, 6864, Note_on_c, 1, 53, 75
1, 6879, Note_on_c, 0, 65, 0
1, 6879, Note_on_c, 1, 53, 0
1, 6880, Note_on_c, 0, 67, 75
1, 6880, Note_on_c, 1, 55, 75
1, 6895, Note_on_c, 0, 67, 0
1, 6895, Note_on_c, 1, 55, 0
1, 6896, Note_on_c, 0, 68, 75
1, 6896, Note_on_c, 1, 56, 75
1, 6911, Note_on_c, 0, 68, 0
1, 6911, Note_on_c, 1, 56, 0
1, 6912, Note_on_c, 0, 59, 75
1, 6912, Note_on_c, 1, 47, 75
1, 6924, Note_on_c, 0, 59, 0
1, 6924, Note_on_c, 0, 60, 75
1, 6936, Note_on_c, 0, 60, 0
1, 6936, Note_on_c, 0, 59, 75
1, 7001, Note_on_c, 0, 59, 0
1, 7001, Note_on_c, 1, 47, 0
1, 7056, Note_on_c, 0, 58, 77
1, 7056, Note_on_c, 1, 46, 76
1, 7101, Note_on_c, 0, 58, 0
1, 7101, Note_on_c, 1, 46, 0
1, 7104, Note_on_c, 0, 57, 79
1, 7104, Note_on_c, 1, 45, 77
1, 7127, Note_on_c, 0, 57, 0
1, 7128, Note_on_c, 0, 60, 80
1, 7151, Note_on_c, 0, 60, 0
1, 7152, Note_on_c, 0, 66, 80
1, 7175, Note_on_c, 0, 66, 0
1, 7176, Note_on_c, 0, 69, 80
1, 7193, Note_on_c, 1, 45, 0
1, 7199, Note_on_c, 0, 69, 0
1, 7200, Note_on_c, 0, 57, 80
1, 7200, Note_on_c, 1, 57, 80
1, 7200, Note_on_c, 1, 54, 80
1, 7200, Note_on_c, 1, 51, 80
1, 7200, Note_on_c, 1, 48, 80
1, 7223, Note_on_c, 0, 57, 0
1, 7224, Note_on_c, 0, 60, 80
1, 7247, Note_on_c, 0, 60, 0
1, 7248, Note_on_c, 0, 66, 80
1, 7271, Note_on_c, 0, 66, 0
1, 7272, Note_on_c, 0, 69, 80
1, 7289, Note_on_c, 1, 57, 0
1, 7289, Note_on_c, 1, 54, 0
1, 7289, Note_on_c, 1, 51, 0
1, 7289, Note_on_c, 1, 48, 0
1, 7295, Note_on_c, 0, 69, 0
1, 7296, Note_on_c, 0, 58, 80
1, 7319, Note_on_c, 0, 58, 0
1, 7320, Note_on_c, 0, 62, 80
1, 7343, Note_on_c, 0, 62, 0
1, 7344, Note_on_c, 0, 67, 80
1, 7344, Note_on_c, 1, 55, 96
1, 7344, Note_on_c, 1, 50, 96
1, 7344, Note_on_c, 1, 46, 96
1, 7367, Note_on_c, 0, 67, 0
1, 7368, Note_on_c, 0, 70, 80
1, 7391, Note_on_c, 0, 70, 0
1, 7392, Note_on_c, 0, 58, 80
1, 7415, Note_on_c, 0, 58, 0
1, 7416, Note_on_c, 0, 62, 80
1, 7439, Note_on_c, 0, 62, 0
1, 7440, Note_on_c, 0, 67, 80
1, 7440, Note_on_c, 1, 55, 0
1, 7440, Note_on_c, 1, 50, 0
1, 7440, Note_on_c, 1, 46, 0
1, 7440, Note_on_c, 1, 55, 96
1, 7440, Note_on_c, 1, 50, 96
1, 7440, Note_on_c, 1, 46, 96
1, 7463, Note_on_c, 0, 67, 0
1, 7464, Note_on_c, 0, 70, 80
1, 7487, Note_on_c, 0, 70, 0
1, 7488, Note_on_c, 0, 55, 80
1, 7488, Note_on_c, 1, 55, 0
1, 7488, Note_on_c, 1, 50, 0
1, 7488, Note_on_c, 1, 46, 0
1, 7488, Note_on_c, 1, 52, 80
1, 7488, Note_on_c, 1, 46, 80
1, 7488, Note_on_c, 1, 43, 80
1, 7511, Note_on_c, 0, 55, 0
1, 7512, Note_on_c, 0, 58, 80
1, 7535, Note_on_c, 0, 58, 0
1, 7536, Note_on_c, 0, 64, 80
1, 7559, Note_on_c, 0, 64, 0
1, 7560, Note_on_c, 0, 67, 80
1, 7577, Note_on_c, 1, 52, 0
1, 7577, Note_on_c, 1, 46, 0
1, 7577, Note_on_c, 1, 43, 0
1, 7583, Note_on_c, 0, 67, 0
1, 7584, Note_on_c, 0, 55, 80
1, 7584, Note_on_c, 1, 52, 96
1, 7584, Note_on_c, 1, 46, 96
1, 7584, Note_on_c, 1, 43, 96
1, 7607, Note_on_c, 0, 55, 0
1, 7608, Note_on_c, 0, 58, 80
1, 7631, Note_on_c, 0, 58, 0
1, 7632, Note_on_c, 0, 64, 80
1, 7655, Note_on_c, 0, 64, 0
1, 7656, Note_on_c, 0, 67, 80
1, 7679, Note_on_c, 0, 67, 0
1, 7680, Note_on_c, 0, 57, 80
1, 7680, Note_on_c, 1, 52, 0
1, 7680, Note_on_c, 1, 46, 0
1, 7680, Note_on_c, 1, 43, 0
1, 7703, Note_on_c, 0, 57, 0
1, 7704, Note_on_c, 0, 60, 80
1, 7727, Note_on_c, 0, 60, 0
1, 7728, Note_on_c, 0, 64, 80
1, 7728, Note_on_c, 1, 53, 96
1, 7728, Note_on_c, 1, 48, 96
1, 7728, Note_on_c, 1, 45, 96
1, 7751, Note_on_c, 0, 64, 0
1, 7752, Note_on_c, 0, 65, 80
1, 7775, Note_on_c, 0, 65, 0
1, 7776, Note_on_c, 0, 57, 80
1, 7799, Note_on_c, 0, 57, 0
1, 7800, Note_on_c, 0, 60, 80
1, 7823, Note_on_c, 0, 60, 0
1, 7824, Note_on_c, 0, 64, 80
1, 7824, Note_on_c, 1, 53, 0
1, 7824, Note_on_c, 1, 48, 0
1, 7824, Note_on_c, 1, 45, 0
1, 7824, Note_on_c, 1, 53, 96
1, 7824, Note_on_c, 1, 48, 96
1, 7824, Note_on_c, 1, 45, 96
1, 7847, Note_on_c, 0, 64, 0
1, 7848, Note_on_c, 0, 65, 80
1, 7871, Note_on_c, 0, 65, 0
1, 7872, Note_on_c, 0, 57, 80
1, 7872, Note_on_c, 1, 53, 0
1, 7872, Note_on_c, 1, 48, 0
1, 7872, Note_on_c, 1, 45, 0
1, 7872, Note_on_c, 1, 54, 80
1, 7872, Note_on_c, 1, 50, 80
1, 7895, Note_on_c, 0, 57, 0
1, 7896, Note_on_c, 0, 60, 80
1, 7917, Note_on_c, 1, 54, 0
1, 7917, Note_on_c, 1, 50, 0
1, 7919, Note_on_c, 0, 60, 0
1, 7920, Note_on_c, 0, 66, 80
1, 7920, Note_on_c, 1, 57, 80
1, 7943, Note_on_c, 0, 66, 0
1, 7944, Note_on_c, 0, 69, 80
1, 7965, Note_on_c, 1, 57, 0
1, 7967, Note_on_c, 0, 69, 0
1, 7968, Note_on_c, 0, 57, 80
1, 7968, Note_on_c, 1, 54, 80
1, 7968, Note_on_c, 1, 50, 80
1, 7991, Note_on_c, 0, 57, 0
1, 7992, Note_on_c, 0, 60, 80
1, 8013, Note_on_c, 1, 54, 0
1, 8013, Note_on_c, 1, 50, 0
1, 8015, Note_on_c, 0, 60, 0
1, 8016, Note_on_c, 0, 66, 80
1, 8016, Note_on_c, 1, 57, 80
1, 8039, Note_on_c, 0, 66, 0
1, 8040, Note_on_c, 0, 69, 80
1, 8061, Note_on_c, 1, 57, 0
1, 8063, Note_on_c, 0, 69, 0
1, 8064, Note_on_c, 0, 67, 80
1, 8064, Note_on_c, 1, 51, 80
1, 8064, Note_on_c, 1, 39, 80
1, 8087, Note_on_c, 0, 67, 0
1, 8088, Note_on_c, 0, 65, 80
1, 8111, Note_on_c, 0, 65, 0
1, 8112, Note_on_c, 0, 63, 80
1, 8135, Note_on_c, 0, 63, 0
1, 8136, Note_on_c, 0, 62, 80
1, 8159, Note_on_c, 0, 62, 0
1, 8160, Note_on_c, 0, 60, 80
1, 8183, Note_on_c, 0, 60, 0
1, 8184, Note_on_c, 0, 58, 80
1, 8207, Note_on_c, 0, 58, 0
1, 8208, Note_on_c, 0, 57, 80
1, 8231, Note_on_c, 0, 57, 0
1, 8232, Note_on_c, 0, 55, 80
1, 8255, Note_on_c, 0, 55, 0
1, 8256, Note_on_c, 0, 70, 80
1, 8256, Note_on_c, 1, 51, 0
1, 8256, Note_on_c, 1, 39, 0
1, 8256, Note_on_c, 1, 49, 80
1, 8256, Note_on_c, 1, 37, 80
1, 8279, Note_on_c, 0, 70, 0
1, 8280, Note_on_c, 0, 67, 80
1, 8303, Note_on_c, 0, 67, 0
1, 8304, Note_on_c, 0, 69, 80
1, 8345, Note_on_c, 1, 49, 0
1, 8345, Note_on_c, 1, 37, 0
1, 8393, Note_on_c, 0, 69, 0
1, 8400, Note_on_c, 0, 82, 80
1, 8400, Note_on_c, 0, 79, 80
1, 8415, Note_on_c, 0, 82, 0
1, 8415, Note_on_c, 0, 79, 0
1, 8416, Note_on_c, 0, 81, 80
1, 8416, Note_on_c, 0, 77, 80
1, 8431, Note_on_c, 0, 81, 0
1, 8431, Note_on_c, 0, 77, 0
1, 8432, Note_on_c, 0, 79, 80
1, 8432, Note_on_c, 0, 76, 80
1, 8447, Note_on_c, 0, 79, 0
1, 8447, Note_on_c, 0, 76, 0
1, 8448, Note_on_c, 0, 77, 96
1, 8448, Note_on_c, 0, 74, 96
1, 8496, Note_on_c, 0, 77, 0
1, 8496, Note_on_c, 0, 74, 0
1, 8496, Note_on_c, 0, 81, 80
1, 8496, Note_on_c, 0, 77, 80
1, 8511, Note_on_c, 0, 81, 0
1, 8511, Note_on_c, 0, 77, 0
1, 8512, Note_on_c, 0, 79, 80
1, 8512, Note_on_c, 0, 76, 80
1, 8527, Note_on_c, 0, 79, 0
1, 8527, Note_on_c, 0, 76, 0
1, 8528, Note_on_c, 0, 77, 80
1, 8528, Note_on_c, 0, 74, 80
1, 8543, Note_on_c, 0, 77, 0
1, 8543, Note_on_c, 0, 74, 0
1, 8544, Note_on_c, 0, 76, 96
1, 8544, Note_on_c, 0, 73, 96
1, 8592, Note_on_c, 0, 76, 0
1, 8592, Note_on_c, 0, 73, 0
1, 8592, Note_on_c, 0, 79, 80
1, 8592, Note_on_c, 0, 76, 80
1, 8607, Note_on_c, 0, 79, 0
1, 8607, Note_on_c, 0, 76, 0
1, 8608, Note_on_c, 0, 77, 80
1, 8608, Note_on_c, 0, 74, 80
1, 8623, Note_on_c, 0, 77, 0
1, 8623, Note_on_c, 0, 74, 0
1, 8624, Note_on_c, 0, 76, 80
1, 8624, Note_on_c, 0, 73, 80
1, 8639, Note_on_c, 0, 76, 0
1, 8639, Note_on_c, 0, 73, 0
1, 8640, Note_on_c, 0, 74, 96
1, 8640, Note_on_c, 0, 70, 96
1, 8640, Note_on_c, 1, 58, 80
1, 8640, Note_on_c, 1, 46, 80
1, 8664, Note_on_c, 0, 74, 0
1, 8664, Note_on_c, 0, 70, 0
1, 8664, Note_on_c, 0, 77, 80
1, 8687, Note_on_c, 0, 77, 0
1, 8688, Note_on_c, 0, 76, 80
1, 8711, Note_on_c, 0, 76, 0
1, 8712, Note_on_c, 0, 74, 80
1, 8734, Note_on_c, 1, 58, 0
1, 8734, Note_on_c, 1, 46, 0
1, 8735, Note_on_c, 0, 74, 0
1, 8736, Note_on_c, 0, 72, 80
1, 8759, Note_on_c, 0, 72, 0
1, 8760, Note_on_c, 0, 70, 80
1, 8783, Note_on_c, 0, 70, 0
1, 8784, Note_on_c, 0, 69, 80
1, 8784, Note_on_c, 1, 49, 80
1, 8796, Note_on_c, 1, 49, 0
1, 8796, Note_on_c, 1, 50, 80
1, 8807, Note_on_c, 0, 69, 0
1, 8808, Note_on_c, 0, 67, 80
1, 8808, Note_on_c, 1, 50, 0
1, 8808, Note_on_c, 1, 49, 80
1, 8829, Note_on_c, 1, 49, 0
1, 8831, Note_on_c, 0, 67, 0
1, 8832, Note_on_c, 0, 65, 80
1, 8832, Note_on_c, 1, 50, 80
1, 8877, Note_on_c, 0, 65, 0
1, 8877, Note_on_c, 1, 50, 0
1, 8880, Note_on_c, 0, 67, 80
1, 8880, Note_on_c, 1, 48, 80
1, 8888, Note_on_c, 0, 67, 0
1, 8888, Note_on_c, 0, 66, 80
1, 8896, Note_on_c, 0, 66, 0
1, 8896, Note_on_c, 0, 67, 80
1, 8904, Note_on_c, 0, 67, 0
1, 8904, Note_on_c, 0, 66, 80
1, 8912, Note_on_c, 0, 66, 0
1, 8912, Note_on_c, 0, 64, 81
1, 8920, Note_on_c, 0, 64, 0
1, 8920, Note_on_c, 0, 66, 81
1, 8925, Note_on_c, 1, 48, 0
1, 8928, Note_on_c, 0, 66, 0
1, 8928, Note_on_c, 0, 67, 81
1, 8928, Note_on_c, 1, 46, 80
1, 8948, Note_on_c, 1, 46, 0
1, 8973, Note_on_c, 0, 67, 0
1, 8976, Note_on_c, 0, 69, 83
1, 8976, Note_on_c, 1, 46, 80
1, 8984, Note_on_c, 0, 69, 0
1, 8984, Note_on_c, 0, 68, 83
1, 8992, Note_on_c, 0, 68, 0
1, 8992, Note_on_c, 0, 69, 84
1, 8996, Note_on_c, 1, 46, 0
1, 9000, Note_on_c, 0, 69, 0
1, 9000, Note_on_c, 0, 68, 84
1, 9008, Note_on_c, 0, 68, 0
1, 9008, Note_on_c, 0, 66, 84
1, 9016, Note_on_c, 0, 66, 0
1, 9016, Note_on_c, 0, 68, 84
1, 9024, Note_on_c, 0, 68, 0
1, 9024, Note_on_c, 0, 69, 86
1, 9024, Note_on_c, 1, 45, 80
1, 9069, Note_on_c, 0, 69, 0
1, 9072, Note_on_c, 0, 57, 83
1, 9113, Note_on_c, 1, 45, 0
1, 9117, Note_on_c, 0, 57, 0
1, 9216, Note_on_c, 0, 79, 75
1, 9216, Note_on_c, 0, 76, 75
1, 9216, Note_on_c, 1, 61, 75
1, 9216, Note_on_c, 1, 49, 75
1, 9264, Note_on_c, 0, 79, 0
1, 9264, Note_on_c, 0, 76, 0
1, 9264, Note_on_c, 0, 78, 75
1, 9264, Note_on_c, 0, 74, 75
1, 9264, Note_on_c, 1, 61, 0
1, 9264, Note_on_c, 1, 49, 0
1, 9264, Note_on_c, 1, 62, 75
1, 9264, Note_on_c, 1, 50, 75
1, 9284, Note_on_c, 0, 78, 0
1, 9284, Note_on_c, 0, 74, 0
1, 9309, Note_on_c, 1, 62, 0
1, 9309, Note_on_c, 1, 50, 0
1, 9312, Note_on_c, 0, 84, 75
1, 9312, Note_on_c, 0, 81, 75
1, 9312, Note_on_c, 1, 54, 75
1, 9312, Note_on_c, 1, 42, 75
1, 9360, Note_on_c, 0, 84, 0
1, 9360, Note_on_c, 0, 81, 0
1, 9360, Note_on_c, 0, 82, 75
1, 9360, Note_on_c, 0, 79, 75
1, 9360, Note_on_c, 1, 54, 0
1, 9360, Note_on_c, 1, 42, 0
1, 9360, Note_on_c, 1, 55, 75
1, 9360, Note_on_c, 1, 43, 75
1, 9380, Note_on_c, 0, 82, 0
1, 9380, Note_on_c, 0, 79, 0
1, 9405, Note_on_c, 1, 55, 0
1, 9405, Note_on_c, 1, 43, 0
1, 9408, Note_on_c, 0, 75, 75
1, 9408, Note_on_c, 0, 72, 75
1, 9456, Note_on_c, 0, 75, 0
1, 9456, Note_on_c, 0, 72, 0
1, 9456, Note_on_c, 0, 74, 75
1, 9456, Note_on_c, 0, 70, 75
1, 9476, Note_on_c, 0, 74, 0
1, 9476, Note_on_c, 0, 70, 0
1, 9600, Note_on_c, 0, 66, 70
1, 9615, Note_on_c, 0, 66, 0
1, 9616, Note_on_c, 0, 69, 70
1, 9631, Note_on_c, 0, 69, 0
1, 9632, Note_on_c, 0, 72, 70
1, 9647, Note_on_c, 0, 72, 0
1, 9648, Note_on_c, 0, 75, 70
1, 9648, Note_on_c, 1, 42, 80
1, 9663, Note_on_c, 0, 75, 0
1, 9664, Note_on_c, 0, 72, 70
1, 9679, Note_on_c, 0, 72, 0
1, 9680, Note_on_c, 0, 69, 70
1, 9693, Note_on_c, 1, 42, 0
1, 9695, Note_on_c, 0, 69, 0
1, 9696, Note_on_c, 0, 66, 70
1, 9711, Note_on_c, 0, 66, 0
1, 9712, Note_on_c, 0, 69, 70
1, 9727, Note_on_c, 0, 69, 0
1, 9728, Note_on_c, 0, 72, 70
1, 9743, Note_on_c, 0, 72, 0
1, 9744, Note_on_c, 0, 75, 70
1, 9744, Note_on_c, 1, 81, 96
1, 9759, Note_on_c, 0, 75, 0
1, 9760, Note_on_c, 0, 72, 70
1, 9775, Note_on_c, 0, 72, 0
1, 9776, Note_on_c, 0, 69, 70
1, 9791, Note_on_c, 0, 69, 0
1, 9792, Note_on_c, 0, 67, 70
1, 9792, Note_on_c, 1, 81, 0
1, 9807, Note_on_c, 0, 67, 0
1, 9808, Note_on_c, 0, 70, 70
1, 9823, Note_on_c, 0, 70, 0
1, 9824, Note_on_c, 0, 74, 70
1, 9839, Note_on_c, 0, 74, 0
1, 9840, Note_on_c, 0, 79, 70
1, 9840, Note_on_c, 1, 43, 80
1, 9855, Note_on_c, 0, 79, 0
1, 9856, Note_on_c, 0, 74, 70
1, 9871, Note_on_c, 0, 74, 0
1, 9872, Note_on_c, 0, 70, 70
1, 9885, Note_on_c, 1, 43, 0
1, 9887, Note_on_c, 0, 70, 0
1, 9888, Note_on_c, 0, 67, 70
1, 9903, Note_on_c, 0, 67, 0
1, 9904, Note_on_c, 0, 70, 70
1, 9919, Note_on_c, 0, 70, 0
1, 9920, Note_on_c, 0, 74, 70
1, 9935, Note_on_c, 0, 74, 0
1, 9936, Note_on_c, 0, 79, 70
1, 9936, Note_on_c, 1, 82, 96
1, 9951, Note_on_c, 0, 79, 0
1, 9952, Note_on_c, 0, 74, 70
1, 9967, Note_on_c, 0, 74, 0
1, 9968, Note_on_c, 0, 70, 70
1, 9983, Note_on_c, 0, 70, 0
1, 9984, Note_on_c, 0, 64, 70
1, 9984, Note_on_c, 1, 82, 0
1, 9999, Note_on_c, 0, 64, 0
1, 10000, Note_on_c, 0, 67, 70
1, 10015, Note_on_c, 0, 67, 0
1, 10016, Note_on_c, 0, 70, 70
1, 10031, Note_on_c, 0, 70, 0
1, 10032, Note_on_c, 0, 73, 70
1, 10032, Note_on_c, 1, 40, 80
1, 10047, Note_on_c, 0, 73, 0
1, 10048, Note_on_c, 0, 70, 70
1, 10063, Note_on_c, 0, 70, 0
1, 10064, Note_on_c, 0, 67, 70
1, 10077, Note_on_c, 1, 40, 0
1, 10079, Note_on_c, 0, 67, 0
1, 10080, Note_on_c, 0, 64, 70
1, 10095, Note_on_c, 0, 64, 0
1, 10096, Note_on_c, 0, 67, 70
1, 10111, Note_on_c, 0, 67, 0
1, 10112, Note_on_c, 0, 70, 70
1, 10127, Note_on_c, 0, 70, 0
1, 10128, Note_on_c, 0, 73, 70
1, 10128, Note_on_c, 1, 79, 96
1, 10143, Note_on_c, 0, 73, 0
1, 10144, Note_on_c, 0, 70, 70
1, 10159, Note_on_c, 0, 70, 0
1, 10160, Note_on_c, 0, 67, 70
1, 10175, Note_on_c, 0, 67, 0
1, 10176, Note_on_c, 0, 65, 70
1, 10176, Note_on_c, 1, 79, 0
1, 10191, Note_on_c, 0, 65, 0
1, 10192, Note_on_c, 0, 68, 70
1, 10207, Note_on_c, 0, 68, 0
1, 10208, Note_on_c, 0, 72, 70
1, 10223, Note_on_c, 0, 72, 0
1, 10224, Note_on_c, 0, 77, 70
1, 10224, Note_on_c, 1, 77, 80
1, 10239, Note_on_c, 0, 77, 0
1, 10240, Note_on_c, 0, 72, 70
1, 10255, Note_on_c, 0, 72, 0
1, 10256, Note_on_c, 0, 68, 70
1, 10269, Note_on_c, 1, 77, 0
1, 10271, Note_on_c, 0, 68, 0
1, 10272, Note_on_c, 0, 65, 70
1, 10287, Note_on_c, 0, 65, 0
1, 10288, Note_on_c, 0, 68, 70
1, 10303, Note_on_c, 0, 68, 0
1, 10304, Note_on_c, 0, 72, 70
1, 10319, Note_on_c, 0, 72, 0
1, 10320, Note_on_c, 0, 77, 70
1, 10320, Note_on_c, 1, 77, 80
1, 10326, Note_on_c, 1, 77, 0
1, 10326, Note_on_c, 1, 80, 96
1, 10335, Note_on_c, 0, 77, 0
1, 10336, Note_on_c, 0, 72, 70
1, 10351, Note_on_c, 0, 72, 0
1, 10352, Note_on_c, 0, 68, 70
1, 10367, Note_on_c, 0, 68, 0
1, 10368, Note_on_c, 0, 62, 86
1, 10368, Note_on_c, 1, 80, 0
1, 10382, Note_on_c, 0, 62, 0
1, 10382, Note_on_c, 0, 64, 70
1, 10395, Note_on_c, 0, 64, 0
1, 10396, Note_on_c, 0, 62, 70
1, 10409, Note_on_c, 0, 62, 0
1, 10410, Note_on_c, 0, 64, 70
1, 10416, Note_on_c, 1, 56, 80
1, 10423, Note_on_c, 0, 64, 0
1, 10424, Note_on_c, 0, 62, 70
1, 10428, Note_on_c, 1, 56, 0
1, 10428, Note_on_c, 1, 55, 80
1, 10437, Note_on_c, 0, 62, 0
1, 10438, Note_on_c, 0, 64, 70
1, 10440, Note_on_c, 1, 55, 0
1, 10440, Note_on_c, 1, 56, 96
1, 10450, Note_on_c, 0, 64, 0
1, 10451, Note_on_c, 0, 62, 70
1, 10463, Note_on_c, 0, 62, 0
1, 10464, Note_on_c, 0, 64, 86
1, 10464, Note_on_c, 1, 56, 0
1, 10478, Note_on_c, 0, 64, 0
1, 10478, Note_on_c, 0, 63, 70
1, 10491, Note_on_c, 0, 63, 0
1, 10492, Note_on_c, 0, 64, 70
1, 10505, Note_on_c, 0, 64, 0
1, 10506, Note_on_c, 0, 63, 70
1, 10512, Note_on_c, 1, 55, 80
1, 10519, Note_on_c, 0, 63, 0
1, 10520, Note_on_c, 0, 64, 70
1, 10524, Note_on_c, 1, 55, 0
1, 10524, Note_on_c, 1, 54, 80
1, 10533, Note_on_c, 0, 64, 0
1, 10534, Note_on_c, 0, 63, 70
1, 10536, Note_on_c, 1, 54, 0
1, 10536, Note_on_c, 1, 55, 96
1, 10546, Note_on_c, 0, 63, 0
1, 10547, Note_on_c, 0, 64, 70
1, 10559, Note_on_c, 0, 64, 0
1, 10560, Note_on_c, 0, 65, 86
1, 10560, Note_on_c, 1, 55, 0
1, 10574, Note_on_c, 0, 65, 0
1, 10574, Note_on_c, 0, 64, 70
1, 10587, Note_on_c, 0, 64, 0
1, 10588, Note_on_c, 0, 65, 70
1, 10601, Note_on_c, 0, 65, 0
1, 10602, Note_on_c, 0, 64, 70
1, 10608, Note_on_c, 1, 58, 80
1, 10615, Note_on_c, 0, 64, 0
1, 10616, Note_on_c, 0, 65, 70
1, 10620, Note_on_c, 1, 58, 0
1, 10620, Note_on_c, 1, 57, 80
1, 10629, Note_on_c, 0, 65, 0
1, 10630, Note_on_c, 0, 64, 70
1, 10632, Note_on_c, 1, 57, 0
1, 10632, Note_on_c, 1, 58, 96
1, 10642, Note_on_c, 0, 64, 0
1, 10643, Note_on_c, 0, 65, 70
1, 10655, Note_on_c, 0, 65, 0
1, 10656, Note_on_c, 0, 67, 86
1, 10656, Note_on_c, 1, 58, 0
1, 10670, Note_on_c, 0, 67, 0
1, 10670, Note_on_c, 0, 65, 70
1, 10683, Note_on_c, 0, 65, 0
1, 10684, Note_on_c, 0, 67, 70
1, 10697, Note_on_c, 0, 67, 0
1, 10698, Note_on_c, 0, 65, 70
1, 10704, Note_on_c, 1, 57, 80
1, 10711, Note_on_c, 0, 65, 0
1, 10712, Note_on_c, 0, 67, 70
1, 10716, Note_on_c, 1, 57, 0
1, 10716, Note_on_c, 1, 56, 80
1, 10725, Note_on_c, 0, 67, 0
1, 10726, Note_on_c, 0, 65, 70
1, 10728, Note_on_c, 1, 56, 0
1, 10728, Note_on_c, 1, 57, 96
1, 10738, Note_on_c, 0, 65, 0
1, 10739, Note_on_c, 0, 67, 70
1, 10751, Note_on_c, 0, 67, 0
1, 10752, Note_on_c, 0, 66, 86
1, 10752, Note_on_c, 1, 57, 0
1, 10766, Note_on_c, 0, 66, 0
1, 10766, Note_on_c, 0, 67, 70
1, 10776, Note_on_c, 1, 63, 96
1, 10779, Note_on_c, 0, 67, 0
1, 10780, Note_on_c, 0, 66, 70
1, 10793, Note_on_c, 0, 66, 0
1, 10794, Note_on_c, 0, 67, 70
1, 10800, Note_on_c, 1, 63, 0
1, 10800, Note_on_c, 1, 62, 80
1, 10807, Note_on_c, 0, 67, 0
1, 10808, Note_on_c, 0, 66, 71
1, 10821, Note_on_c, 0, 66, 0
1, 10822, Note_on_c, 0, 67, 71
1, 10823, Note_on_c, 1, 62, 0
1, 10824, Note_on_c, 1, 60, 80
1, 10834, Note_on_c, 0, 67, 0
1, 10835, Note_on_c, 0, 66, 71
1, 10847, Note_on_c, 0, 66, 0
1, 10847, Note_on_c, 1, 60, 0
1, 10848, Note_on_c, 0, 67, 88
1, 10848, Note_on_c, 1, 58, 80
1, 10862, Note_on_c, 0, 67, 0
1, 10862, Note_on_c, 0, 69, 72
1, 10871, Note_on_c, 1, 58, 0
1, 10872, Note_on_c, 1, 57, 80
1, 10875, Note_on_c, 0, 69, 0
1, 10876, Note_on_c, 0, 67, 72
1, 10889, Note_on_c, 0, 67, 0
1, 10890, Note_on_c, 0, 69, 73
1, 10895, Note_on_c, 1, 57, 0
1, 10896, Note_on_c, 1, 55, 80
1, 10903, Note_on_c, 0, 69, 0
1, 10904, Note_on_c, 0, 67, 73
1, 10917, Note_on_c, 0, 67, 0
1, 10918, Note_on_c, 0, 69, 73
1, 10919, Note_on_c, 1, 55, 0
1, 10920, Note_on_c, 1, 53, 80
1, 10930, Note_on_c, 0, 69, 0
1, 10931, Note_on_c, 0, 67, 74
1, 10943, Note_on_c, 0, 67, 0
1, 10943, Note_on_c, 1, 53, 0
1, 10944, Note_on_c, 0, 69, 90
1, 10944, Note_on_c, 1, 52, 80
1, 10958, Note_on_c, 0, 69, 0
1, 10958, Note_on_c, 0, 68, 74
1, 10967, Note_on_c, 1, 52, 0
1, 10968, Note_on_c, 1, 50, 80
1, 10971, Note_on_c, 0, 68, 0
1, 10972, Note_on_c, 0, 69, 75
1, 10985, Note_on_c, 0, 69, 0
1, 10986, Note_on_c, 0, 68, 75
1, 10991, Note_on_c, 1, 50, 0
1, 10992, Note_on_c, 1, 48, 80
1, 10999, Note_on_c, 0, 68, 0
1, 11000, Note_on_c, 0, 69, 75
1, 11013, Note_on_c, 0, 69, 0
1, 11014, Note_on_c, 0, 68, 75
1, 11015, Note_on_c, 1, 48, 0
1, 11016, Note_on_c, 1, 47, 80
1, 11026, Note_on_c, 0, 68, 0
1, 11027, Note_on_c, 0, 69, 76
1, 11039, Note_on_c, 0, 69, 0
1, 11039, Note_on_c, 1, 47, 0
1, 11040, Note_on_c, 0, 71, 92
1, 11040, Note_on_c, 1, 45, 80
1, 11054, Note_on_c, 0, 71, 0
1, 11054, Note_on_c, 0, 69, 76
1, 11063, Note_on_c, 1, 45, 0
1, 11064, Note_on_c, 1, 47, 80
1, 11067, Note_on_c, 0, 69, 0
1, 11068, Note_on_c, 0, 71, 77
1, 11081, Note_on_c, 0, 71, 0
1, 11082, Note_on_c, 0, 69, 77
1, 11087, Note_on_c, 1, 47, 0
1, 11088, Note_on_c, 1, 49, 80
1, 11095, Note_on_c, 0, 69, 0
1, 11096, Note_on_c, 0, 71, 77
1, 11109, Note_on_c, 0, 71, 0
1, 11110, Note_on_c, 0, 69, 78
1, 11111, Note_on_c, 1, 49, 0
1, 11112, Note_on_c, 1, 45, 80
1, 11122, Note_on_c, 0, 69, 0
1, 11123, Note_on_c, 0, 71, 78
1, 11135, Note_on_c, 0, 71, 0
1, 11135, Note_on_c, 1, 45, 0
1, 11136, Note_on_c, 0, 70, 80
1, 11136, Note_on_c, 0, 58, 80
1, 11136, Note_on_c, 1, 50, 80
1, 11159, Note_on_c, 1, 50, 0
1, 11160, Note_on_c, 1, 52, 80
1, 11183, Note_on_c, 1, 52, 0
1, 11184, Note_on_c, 1, 53, 80
1, 11207, Note_on_c, 1, 53, 0
1, 11208, Note_on_c, 1, 50, 80
1, 11231, Note_on_c, 1, 50, 0
1, 11232, Note_on_c, 0, 70, 0
1, 11232, Note_on_c, 0, 58, 0
1, 11232, Note_on_c, 0, 69, 80
1, 11232, Note_on_c, 0, 57, 80
1, 11232, Note_on_c, 1, 49, 80
1, 11255, Note_on_c, 1, 49, 0
1, 11256, Note_on_c, 1, 47, 80
1, 11279, Note_on_c, 1, 47, 0
1, 11280, Note_on_c, 1, 49, 80
1, 11303, Note_on_c, 1, 49, 0
1, 11304, Note_on_c, 1, 45, 80
1, 11321, Note_on_c, 0, 69, 0
1, 11321, Note_on_c, 0, 57, 0
1, 11327, Note_on_c, 1, 45, 0
1, 11328, Note_on_c, 0, 68, 80
1, 11328, Note_on_c, 0, 56, 80
1, 11328, Note_on_c, 1, 74, 80
1, 11351, Note_on_c, 1, 74, 0
1, 11352, Note_on_c, 1, 76, 80
1, 11375, Note_on_c, 1, 76, 0
1, 11376, Note_on_c, 1, 77, 80
1, 11399, Note_on_c, 1, 77, 0
1, 11400, Note_on_c, 1, 74, 80
1, 11423, Note_on_c, 1, 74, 0
1, 11424, Note_on_c, 0, 68, 0
1, 11424, Note_on_c, 0, 56, 0
1, 11424, Note_on_c, 0, 69, 80
1, 11424, Note_on_c, 0, 57, 80
1, 11424, Note_on_c, 1, 73, 80
1, 11447, Note_on_c, 1, 73, 0
1, 11448, Note_on_c, 1, 74, 80
1, 11471, Note_on_c, 1, 74, 0
1, 11472, Note_on_c, 1, 76, 80
1, 11495, Note_on_c, 1, 76, 0
1, 11496, Note_on_c, 1, 73, 80
1, 11513, Note_on_c, 0, 69, 0
1, 11513, Note_on_c, 0, 57, 0
1, 11519, Note_on_c, 1, 73, 0
1, 11520, Note_on_c, 1, 50, 80
1, 11543, Note_on_c, 1, 50, 0
1, 11544, Note_on_c, 1, 52, 80
1, 11567, Note_on_c, 1, 52, 0
1, 11568, Note_on_c, 0, 70, 80
1, 11568, Note_on_c, 0, 58, 80
1, 11568, Note_on_c, 1, 53, 80
1, 11591, Note_on_c, 1, 53, 0
1, 11592, Note_on_c, 1, 50, 80
1, 11615, Note_on_c, 1, 50, 0
1, 11616, Note_on_c, 1, 49, 80
1, 11639, Note_on_c, 1, 49, 0
1, 11640, Note_on_c, 1, 47, 80
1, 11663, Note_on_c, 1, 47, 0
1, 11664, Note_on_c, 0, 70, 0
1, 11664, Note_on_c, 0, 58, 0
1, 11664, Note_on_c, 0, 69, 80
1, 11664, Note_on_c, 0, 57, 80
1, 11664, Note_on_c, 1, 49, 80
1, 11687, Note_on_c, 1, 49, 0
1, 11688, Note_on_c, 1, 45, 80
1, 11709, Note_on_c, 0, 69, 0
1, 11709, Note_on_c, 0, 57, 0
1, 11711, Note_on_c, 1, 45, 0
1, 11712, Note_on_c, 0, 68, 80
1, 11712, Note_on_c, 0, 56, 80
1, 11712, Note_on_c, 1, 74, 80
1, 11735, Note_on_c, 1, 74, 0
1, 11736, Note_on_c, 1, 76, 80
1, 11759, Note_on_c, 1, 76, 0
1, 11760, Note_on_c, 1, 77, 80
1, 11783, Note_on_c, 1, 77, 0
1, 11784, Note_on_c, 1, 74, 80
1, 11807, Note_on_c, 1, 74, 0
1, 11808, Note_on_c, 0, 68, 0
1, 11808, Note_on_c, 0, 56, 0
1, 11808, Note_on_c, 0, 69, 80
1, 11808, Note_on_c, 0, 57, 80
1, 11808, Note_on_c, 1, 73, 80
1, 11831, Note_on_c, 1, 73, 0
1, 11832, Note_on_c, 1, 74, 80
1, 11855, Note_on_c, 1, 74, 0
1, 11856, Note_on_c, 1, 76, 80
1, 11879, Note_on_c, 1, 76, 0
1, 11880, Note_on_c, 1, 73, 80
1, 11897, Note_on_c, 0, 69, 0
1, 11897, Note_on_c, 0, 57, 0
1, 11903, Note_on_c, 1, 73, 0
1, 11904, Note_on_c, 0, 68, 80
1, 11904, Note_on_c, 1, 47, 75
1, 11916, Note_on_c, 0, 68, 0
1, 11916, Note_on_c, 0, 69, 80
1, 11927, Note_on_c, 1, 47, 0
1, 11928, Note_on_c, 0, 69, 0
1, 11928, Note_on_c, 0, 68, 80
1, 11928, Note_on_c, 1, 50, 74
1, 11949, Note_on_c, 0, 68, 0
1, 11951, Note_on_c, 1, 50, 0
1, 11952, Note_on_c, 0, 69, 80
1, 11952, Note_on_c, 1, 49, 73
1, 11997, Note_on_c, 0, 69, 0
1, 11997, Note_on_c, 1, 49, 0
1, 12000, Note_on_c, 0, 68, 79
1, 12000, Note_on_c, 1, 47, 72
1, 12012, Note_on_c, 0, 68, 0
1, 12012, Note_on_c, 0, 69, 79
1, 12023, Note_on_c, 1, 47, 0
1, 12024, Note_on_c, 0, 69, 0
1, 12024, Note_on_c, 0, 68, 79
1, 12024, Note_on_c, 1, 50, 71
1, 12045, Note_on_c, 0, 68, 0
1, 12047, Note_on_c, 1, 50, 0
1, 12048, Note_on_c, 0, 69, 78
1, 12048, Note_on_c, 1, 49, 70
1, 12093, Note_on_c, 0, 69, 0
1, 12093, Note_on_c, 1, 49, 0
1, 12096, Note_on_c, 0, 56, 77
1, 12096, Note_on_c, 1, 47, 69
1, 12108, Note_on_c, 0, 56, 0
1, 12108, Note_on_c, 0, 57, 77
1, 12119, Note_on_c, 1, 47, 0
1, 12120, Note_on_c, 0, 57, 0
1, 12120, Note_on_c, 0, 56, 77
1, 12120, Note_on_c, 1, 50, 68
1, 12141, Note_on_c, 0, 56, 0
1, 12143, Note_on_c, 1, 50, 0
1, 12144, Note_on_c, 0, 57, 76
1, 12144, Note_on_c, 1, 49, 68
1, 12189, Note_on_c, 0, 57, 0
1, 12189, Note_on_c, 1, 49, 0
1, 12192, Note_on_c, 0, 56, 76
1, 12192, Note_on_c, 1, 47, 66
1, 12204, Note_on_c, 0, 56, 0
1, 12204, Note_on_c, 0, 57, 76
1, 12215, Note_on_c, 1, 47, 0
1, 12216, Note_on_c, 0, 57, 0
1, 12216, Note_on_c, 0, 56, 76
1, 12216, Note_on_c, 1, 50, 66
1, 12237, Note_on_c, 0, 56, 0
1, 12239, Note_on_c, 1, 50, 0
1, 12240, Note_on_c, 0, 57, 75
1, 12240, Note_on_c, 1, 49, 65
1, 12288, Note_on_c, 0, 52, 74
1, 12288, Note_on_c, 0, 49, 74
1, 12288, Note_on_c, 1, 49, 0
1, 12288, Note_on_c, 1, 45, 64
1, 12288, Note_on_c, 1, 33, 64
1, 12568, Note_on_c, 0, 57, 0
1, 12568, Note_on_c, 0, 52, 0
1, 12568, Note_on_c, 0, 49, 0
1, 12568, Note_on_c, 1, 45, 0
1, 12568, Note_on_c, 1, 33, 0
1, 12672, Note_on_c, 0, 81, 96
1, 12672, Note_on_c, 1, 62, 80
1, 12672, Note_on_c, 1, 57, 80
1, 12672, Note_on_c, 1, 53, 80
1, 12672, Note_on_c, 1, 50, 80
1, 12696, Note_on_c, 0, 81, 0
1, 12696, Note_on_c, 0, 74, 80
1, 12719, Note_on_c, 0, 74, 0
1, 12720, Note_on_c, 0, 73, 80
1, 12743, Note_on_c, 0, 73, 0
1, 12744, Note_on_c, 0, 74, 80
1, 12767, Note_on_c, 0, 74, 0
1, 12768, Note_on_c, 0, 69, 80
1, 12791, Note_on_c, 0, 69, 0
1, 12792, Note_on_c, 0, 74, 80
1, 12805, Note_on_c, 1, 62, 0
1, 12805, Note_on_c, 1, 57, 0
1, 12805, Note_on_c, 1, 53, 0
1, 12805, Note_on_c, 1, 50, 0
1, 12815, Note_on_c, 0, 74, 0
1, 12816, Note_on_c, 0, 73, 80
1, 12816, Note_on_c, 1, 62, 80
1, 12836, Note_on_c, 1, 62, 0
1, 12839, Note_on_c, 0, 73, 0
1, 12840, Note_on_c, 0, 74, 80
1, 12863, Note_on_c, 0, 74, 0
1, 12864, Note_on_c, 0, 82, 96
1, 12864, Note_on_c, 0, 79, 96
1, 12864, Note_on_c, 1, 61, 80
1, 12884, Note_on_c, 0, 82, 0
1, 12884, Note_on_c, 0, 79, 0
1, 12884, Note_on_c, 1, 61, 0
1, 12912, Note_on_c, 0, 81, 80
1, 12912, Note_on_c, 0, 77, 80
1, 12912, Note_on_c, 1, 62, 80
1, 12932, Note_on_c, 0, 81, 0
1, 12932, Note_on_c, 0, 77, 0
1, 12932, Note_on_c, 1, 62, 0
1, 13008, Note_on_c, 0, 78, 80
1, 13008, Note_on_c, 1, 48, 80
1, 13053, Note_on_c, 0, 78, 0
1, 13053, Note_on_c, 1, 48, 0
1, 13056, Note_on_c, 0, 79, 80
1, 13056, Note_on_c, 1, 46, 80
1, 13079, Note_on_c, 0, 79, 0
1, 13080, Note_on_c, 0, 74, 80
1, 13103, Note_on_c, 0, 74, 0
1, 13104, Note_on_c, 0, 72, 80
1, 13127, Note_on_c, 0, 72, 0
1, 13128, Note_on_c, 0, 70, 80
1, 13145, Note_on_c, 1, 46, 0
1, 13151, Note_on_c, 0, 70, 0
1, 13152, Note_on_c, 0, 69, 80
1, 13175, Note_on_c, 0, 69, 0
1, 13176, Note_on_c, 0, 67, 80
1, 13199, Note_on_c, 0, 67, 0
1, 13200, Note_on_c, 0, 66, 80
1, 13200, Note_on_c, 1, 48, 96
1, 13223, Note_on_c, 0, 66, 0
1, 13224, Note_on_c, 0, 67, 80
1, 13247, Note_on_c, 0, 67, 0
1, 13248, Note_on_c, 0, 66, 80
1, 13248, Note_on_c, 1, 48, 0
1, 13248, Note_on_c, 1, 50, 80
1, 13268, Note_on_c, 1, 50, 0
1, 13271, Note_on_c, 0, 66, 0
1, 13272, Note_on_c, 0, 67, 80
1, 13295, Note_on_c, 0, 67, 0
1, 13296, Note_on_c, 0, 69, 80
1, 13296, Note_on_c, 1, 38, 80
1, 13316, Note_on_c, 1, 38, 0
1, 13319, Note_on_c, 0, 69, 0
1, 13320, Note_on_c, 0, 63, 80
1, 13343, Note_on_c, 0, 63, 0
1, 13344, Note_on_c, 0, 62, 80
1, 13367, Note_on_c, 0, 62, 0
1, 13368, Note_on_c, 0, 60, 80
1, 13391, Note_on_c, 0, 60, 0
1, 13392, Note_on_c, 0, 58, 80
1, 13392, Note_on_c, 1, 42, 96
1, 13415, Note_on_c, 0, 58, 0
1, 13416, Note_on_c, 0, 57, 80
1, 13439, Note_on_c, 0, 57, 0
1, 13440, Note_on_c, 0, 58, 80
1, 13440, Note_on_c, 1, 42, 0
1, 13440, Note_on_c, 1, 43, 80
1, 13460, Note_on_c, 1, 43, 0
1, 13463, Note_on_c, 0, 58, 0
1, 13464, Note_on_c, 0, 55, 80
1, 13487, Note_on_c, 0, 55, 0
1, 13488, Note_on_c, 0, 54, 80
1, 13488, Note_on_c, 1, 43, 80
1, 13508, Note_on_c, 1, 43, 0
1, 13511, Note_on_c, 0, 54, 0
1, 13512, Note_on_c, 0, 55, 80
1, 13535, Note_on_c, 0, 55, 0
1, 13536, Note_on_c, 0, 62, 80
1, 13559, Note_on_c, 0, 62, 0
1, 13560, Note_on_c, 0, 58, 80
1, 13583, Note_on_c, 0, 58, 0
1, 13584, Note_on_c, 0, 70, 80
1, 13584, Note_on_c, 1, 43, 96
1, 13607, Note_on_c, 0, 70, 0
1, 13608, Note_on_c, 0, 67, 80
1, 13631, Note_on_c, 0, 67, 0
1, 13632, Note_on_c, 0, 66, 80
1, 13632, Note_on_c, 1, 43, 0
1, 13632, Note_on_c, 1, 38, 80
1, 13652, Note_on_c, 1, 38, 0
1, 13655, Note_on_c, 0, 66, 0
1, 13656, Note_on_c, 0, 62, 80
1, 13679, Note_on_c, 0, 62, 0
1, 13680, Note_on_c, 0, 61, 80
1, 13680, Note_on_c, 1, 62, 80
1, 13692, Note_on_c, 1, 62, 0
1, 13692, Note_on_c, 1, 64, 80
1, 13703, Note_on_c, 0, 61, 0
1, 13704, Note_on_c, 0, 62, 80
1, 13704, Note_on_c, 1, 64, 0
1, 13704, Note_on_c, 1, 62, 80
1, 13725, Note_on_c, 1, 62, 0
1, 13727, Note_on_c, 0, 62, 0
1, 13728, Note_on_c, 0, 69, 80
1, 13751, Note_on_c, 0, 69, 0
1, 13752, Note_on_c, 0, 66, 80
1, 13775, Note_on_c, 0, 66, 0
1, 13776, Note_on_c, 0, 75, 80
1, 13776, Note_on_c, 1, 42, 96
1, 13799, Note_on_c, 0, 75, 0
1, 13800, Note_on_c, 0, 72, 80
1, 13823, Note_on_c, 0, 72, 0
1, 13824, Note_on_c, 0, 71, 80
1, 13824, Note_on_c, 1, 42, 0
1, 13824, Note_on_c, 1, 41, 80
1, 13844, Note_on_c, 1, 41, 0
1, 13847, Note_on_c, 0, 71, 0
1, 13848, Note_on_c, 0, 67, 80
1, 13871, Note_on_c, 0, 67, 0
1, 13872, Note_on_c, 0, 66, 80
1, 13872, Note_on_c, 1, 65, 80
1, 13884, Note_on_c, 1, 65, 0
1, 13884, Note_on_c, 1, 67, 80
1, 13895, Note_on_c, 0, 66, 0
1, 13896, Note_on_c, 0, 67, 80
1, 13896, Note_on_c, 1, 67, 0
1, 13896, Note_on_c, 1, 65, 80
1, 13917, Note_on_c, 1, 65, 0
1, 13919, Note_on_c, 0, 67, 0
1, 13920, Note_on_c, 0, 74, 80
1, 13943, Note_on_c, 0, 74, 0
1, 13944, Note_on_c, 0, 71, 80
1, 13967, Note_on_c, 0, 71, 0
1, 13968, Note_on_c, 0, 77, 80
1, 13968, Note_on_c, 1, 47, 80
1, 13991, Note_on_c, 0, 77, 0
1, 13992, Note_on_c, 0, 74, 80
1, 14015, Note_on_c, 0, 74, 0
1, 14016, Note_on_c, 0, 76, 80
1, 14016, Note_on_c, 1, 47, 0
1, 14016, Note_on_c, 1, 46, 80
1, 14036, Note_on_c, 1, 46, 0
1, 14039, Note_on_c, 0, 76, 0
1, 14040, Note_on_c, 0, 72, 80
1, 14063, Note_on_c, 0, 72, 0
1, 14064, Note_on_c, 0, 71, 80
1, 14064, Note_on_c, 1, 58, 80
1, 14076, Note_on_c, 1, 58, 0
1, 14076, Note_on_c, 1, 60, 80
1, 14087, Note_on_c, 0, 71, 0
1, 14088, Note_on_c, 0, 72, 80
1, 14088, Note_on_c, 1, 60, 0
1, 14088, Note_on_c, 1, 58, 80
1, 14109, Note_on_c, 1, 58, 0
1, 14111, Note_on_c, 0, 72, 0
1, 14112, Note_on_c, 0, 84, 80
1, 14135, Note_on_c, 0, 84, 0
1, 14136, Note_on_c, 0, 82, 80
1, 14159, Note_on_c, 0, 82, 0
1, 14160, Note_on_c, 0, 81, 80
1, 14160, Note_on_c, 1, 49, 80
1, 14183, Note_on_c, 0, 81, 0
1, 14184, Note_on_c, 0, 79, 80
1, 14207, Note_on_c, 0, 79, 0
1, 14208, Note_on_c, 0, 78, 80
1, 14208, Note_on_c, 1, 49, 0
1, 14208, Note_on_c, 1, 50, 80
1, 14228, Note_on_c, 0, 78, 0
1, 14228, Note_on_c, 1, 50, 0
1, 14256, Note_on_c, 0, 81, 80
1, 14256, Note_on_c, 1, 57, 80
1, 14271, Note_on_c, 0, 81, 0
1, 14271, Note_on_c, 1, 57, 0
1, 14272, Note_on_c, 0, 82, 80
1, 14272, Note_on_c, 1, 58, 80
1, 14287, Note_on_c, 0, 82, 0
1, 14287, Note_on_c, 1, 58, 0
1, 14288, Note_on_c, 0, 84, 80
1, 14288, Note_on_c, 1, 60, 80
1, 14303, Note_on_c, 0, 84, 0
1, 14303, Note_on_c, 1, 60, 0
1, 14304, Note_on_c, 0, 78, 80
1, 14304, Note_on_c, 1, 54, 80
1, 14324, Note_on_c, 0, 78, 0
1, 14324, Note_on_c, 1, 54, 0
1, 14352, Note_on_c, 0, 69, 80
1, 14352, Note_on_c, 1, 45, 80
1, 14367, Note_on_c, 0, 69, 0
1, 14367, Note_on_c, 1, 45, 0
1, 14368, Note_on_c, 0, 70, 80
1, 14368, Note_on_c, 1, 46, 80
1, 14383, Note_on_c, 0, 70, 0
1, 14383, Note_on_c, 1, 46, 0
1, 14384, Note_on_c, 0, 72, 80
1, 14384, Note_on_c, 1, 48, 80
1, 14399, Note_on_c, 0, 72, 0
1, 14399, Note_on_c, 1, 48, 0
1, 14400, Note_on_c, 0, 66, 80
1, 14400, Note_on_c, 1, 42, 80
1, 14412, Note_on_c, 0, 66, 0
1, 14412, Note_on_c, 0, 67, 80
1, 14424, Note_on_c, 0, 67, 0
1, 14424, Note_on_c, 0, 66, 80
1, 14494, Note_on_c, 0, 66, 0
1, 14494, Note_on_c, 1, 42, 0
1, 14592, Note_on_c, 0, 72, 70
1, 14592, Note_on_c, 1, 48, 86
1, 14592, Note_on_c, 1, 36, 86
1, 14612, Note_on_c, 1, 48, 0
1, 14612, Note_on_c, 1, 36, 0
1, 14615, Note_on_c, 0, 72, 0
1, 14616, Note_on_c, 0, 74, 70
1, 14639, Note_on_c, 0, 74, 0
1, 14640, Note_on_c, 0, 75, 70
1, 14640, Note_on_c, 1, 48, 70
1, 14640, Note_on_c, 1, 36, 70
1, 14660, Note_on_c, 1, 48, 0
1, 14660, Note_on_c, 1, 36, 0
1, 14663, Note_on_c, 0, 75, 0
1, 14664, Note_on_c, 0, 72, 71
1, 14687, Note_on_c, 0, 72, 0
1, 14688, Note_on_c, 0, 72, 71
1, 14711, Note_on_c, 0, 72, 0
1, 14712, Note_on_c, 0, 74, 72
1, 14735, Note_on_c, 0, 74, 0
1, 14736, Note_on_c, 0, 75, 72
1, 14736, Note_on_c, 1, 48, 72
1, 14736, Note_on_c, 1, 36, 72
1, 14756, Note_on_c, 1, 48, 0
1, 14756, Note_on_c, 1, 36, 0
1, 14759, Note_on_c, 0, 75, 0
1, 14760, Note_on_c, 0, 72, 72
1, 14783, Note_on_c, 0, 72, 0
1, 14784, Note_on_c, 0, 78, 73
1, 14784, Note_on_c, 1, 42, 89
1, 14784, Note_on_c, 1, 30, 89
1, 14804, Note_on_c, 1, 42, 0
1, 14804, Note_on_c, 1, 30, 0
1, 14807, Note_on_c, 0, 78, 0
1, 14808, Note_on_c, 0, 79, 73
1, 14831, Note_on_c, 0, 79, 0
1, 14832, Note_on_c, 0, 81, 74
1, 14832, Note_on_c, 1, 42, 74
1, 14832, Note_on_c, 1, 30, 74
1, 14852, Note_on_c, 1, 42, 0
1, 14852, Note_on_c, 1, 30, 0
1, 14855, Note_on_c, 0, 81, 0
1, 14856, Note_on_c, 0, 78, 74
1, 14879, Note_on_c, 0, 78, 0
1, 14880, Note_on_c, 0, 78, 75
1, 14903, Note_on_c, 0, 78, 0
1, 14904, Note_on_c, 0, 79, 75
1, 14927, Note_on_c, 0, 79, 0
1, 14928, Note_on_c, 0, 81, 75
1, 14928, Note_on_c, 1, 42, 75
1, 14928, Note_on_c, 1, 30, 75
1, 14948, Note_on_c, 1, 42, 0
1, 14948, Note_on_c, 1, 30, 0
1, 14951, Note_on_c, 0, 81, 0
1, 14952, Note_on_c, 0, 78, 76
1, 14975, Note_on_c, 0, 78, 0
1, 14976, Note_on_c, 0, 80, 76
1, 14976, Note_on_c, 0, 76, 76
1, 14976, Note_on_c, 1, 50, 92
1, 14976, Note_on_c, 1, 38, 92
1, 14996, Note_on_c, 1, 50, 0
1, 14996, Note_on_c, 1, 38, 0
1, 14999, Note_on_c, 0, 80, 0
1, 14999, Note_on_c, 0, 76, 0
1, 15000, Note_on_c, 0, 81, 77
1, 15023, Note_on_c, 0, 81, 0
1, 15024, Note_on_c, 0, 83, 77
1, 15024, Note_on_c, 1, 50, 77
1, 15024, Note_on_c, 1, 38, 77
1, 15044, Note_on_c, 1, 50, 0
1, 15044, Note_on_c, 1, 38, 0
1, 15047, Note_on_c, 0, 83, 0
1, 15048, Note_on_c, 0, 80, 77
1, 15071, Note_on_c, 0, 80, 0
1, 15072, Note_on_c, 0, 80, 78
1, 15072, Note_on_c, 0, 76, 78
1, 15095, Note_on_c, 0, 80, 0
1, 15095, Note_on_c, 0, 76, 0
1, 15096, Note_on_c, 0, 81, 78
1, 15119, Note_on_c, 0, 81, 0
1, 15120, Note_on_c, 0, 83, 79
1, 15120, Note_on_c, 1, 50, 79
1, 15120, Note_on_c, 1, 38, 79
1, 15140, Note_on_c, 1, 50, 0
1, 15140, Note_on_c, 1, 38, 0
1, 15143, Note_on_c, 0, 83, 0
1, 15144, Note_on_c, 0, 80, 79
1, 15168, Note_on_c, 0, 80, 0
1, 15168, Note_on_c, 0, 81, 80
1, 15168, Note_on_c, 1, 49, 80
1, 15168, Note_on_c, 1, 37, 80
1, 15191, Note_on_c, 0, 81, 0
1, 15192, Note_on_c, 0, 76, 80
1, 15216, Note_on_c, 0, 76, 0
1, 15216, Note_on_c, 0, 77, 80
1, 15239, Note_on_c, 0, 77, 0
1, 15240, Note_on_c, 0, 73, 80
1, 15257, Note_on_c, 1, 49, 0
1, 15257, Note_on_c, 1, 37, 0
1, 15264, Note_on_c, 0, 73, 0
1, 15264, Note_on_c, 0, 74, 80
1, 15287, Note_on_c, 0, 74, 0
1, 15288, Note_on_c, 0, 69, 80
1, 15312, Note_on_c, 0, 69, 0
1, 15312, Note_on_c, 0, 70, 80
1, 15335, Note_on_c, 0, 70, 0
1, 15336, Note_on_c, 0, 68, 80
1, 15360, Note_on_c, 0, 68, 0
1, 15360, Note_on_c, 0, 69, 80
1, 15360, Note_on_c, 1, 57, 80
1, 15383, Note_on_c, 0, 69, 0
1, 15383, Note_on_c, 1, 57, 0
1, 15384, Note_on_c, 0, 64, 80
1, 15384, Note_on_c, 1, 52, 80
1, 15408, Note_on_c, 0, 64, 0
1, 15408, Note_on_c, 0, 65, 80
1, 15408, Note_on_c, 1, 52, 0
1, 15408, Note_on_c, 1, 53, 80
1, 15431, Note_on_c, 0, 65, 0
1, 15431, Note_on_c, 1, 53, 0
1, 15432, Note_on_c, 0, 61, 80
1, 15432, Note_on_c, 1, 49, 80
1, 15456, Note_on_c, 0, 61, 0
1, 15456, Note_on_c, 0, 62, 80
1, 15456, Note_on_c, 1, 49, 0
1, 15456, Note_on_c, 1, 50, 80
1, 15479, Note_on_c, 0, 62, 0
1, 15479, Note_on_c, 1, 50, 0
1, 15480, Note_on_c, 0, 57, 80
1, 15480, Note_on_c, 1, 45, 80
1, 15504, Note_on_c, 0, 57, 0
1, 15504, Note_on_c, 0, 58, 80
1, 15504, Note_on_c, 1, 45, 0
1, 15504, Note_on_c, 1, 46, 80
1, 15527, Note_on_c, 0, 58, 0
1, 15527, Note_on_c, 1, 46, 0
1, 15528, Note_on_c, 0, 56, 80
1, 15528, Note_on_c, 1, 44, 80
1, 15551, Note_on_c, 0, 56, 0
1, 15551, Note_on_c, 1, 44, 0
1, 15552, Note_on_c, 0, 57, 80
1, 15552, Note_on_c, 1, 45, 80
1, 15591, Note_on_c, 0, 57, 0
1, 15591, Note_on_c, 1, 45, 0
1, 15648, Note_on_c, 0, 65, 80
1, 15648, Note_on_c, 1, 53, 80
1, 15648, Note_on_c, 1, 50, 80
1, 15648, Note_on_c, 1, 45, 80
1, 15687, Note_on_c, 0, 65, 0
1, 15687, Note_on_c, 1, 53, 0
1, 15687, Note_on_c, 1, 50, 0
1, 15687, Note_on_c, 1, 45, 0
1, 15744, Note_on_c, 0, 64, 78
1, 15744, Note_on_c, 1, 52, 76
1, 15744, Note_on_c, 1, 46, 76
1, 15744, Note_on_c, 1, 43, 76
1, 15783, Note_on_c, 0, 64, 0
1, 15783, Note_on_c, 1, 52, 0
1, 15783, Note_on_c, 1, 46, 0
1, 15783, Note_on_c, 1, 43, 0
1, 15840, Note_on_c, 0, 70, 76
1, 15840, Note_on_c, 1, 55, 73
1, 15840, Note_on_c, 1, 51, 73
1, 15840, Note_on_c, 1, 46, 73
1, 15879, Note_on_c, 0, 70, 0
1, 15879, Note_on_c, 1, 55, 0
1, 15879, Note_on_c, 1, 51, 0
1, 15879, Note_on_c, 1, 46, 0
1, 15936, Note_on_c, 0, 61, 74
1, 15936, Note_on_c, 1, 55, 70
1, 15936, Note_on_c, 1, 52, 70
1, 15936, Note_on_c, 1, 45, 70
1, 16123, Note_on_c, 0, 61, 0
1, 16123, Note_on_c, 1, 55, 0
1, 16123, Note_on_c, 1, 52, 0
1, 16123, Note_on_c, 1, 45, 0
1, 16128, Note_on_c, 1, 50, 86
1, 16128, Note_on_c, 1, 45, 86
1, 16128, Note_on_c, 1, 41, 86
1, 16152, Note_on_c, 0, 64, 70
1, 16175, Note_on_c, 0, 64, 0
1, 16176, Note_on_c, 0, 65, 70
1, 16199, Note_on_c, 0, 65, 0
1, 16200, Note_on_c, 0, 64, 70
1, 16223, Note_on_c, 0, 64, 0
1, 16224, Note_on_c, 0, 65, 70
1, 16224, Note_on_c, 1, 50, 0
1, 16224, Note_on_c, 1, 45, 0
1, 16224, Note_on_c, 1, 41, 0
1, 16247, Note_on_c, 0, 65, 0
1, 16248, Note_on_c, 0, 73, 70
1, 16271, Note_on_c, 0, 73, 0
1, 16272, Note_on_c, 0, 74, 71
1, 16295, Note_on_c, 0, 74, 0
1, 16296, Note_on_c, 0, 73, 71
1, 16319, Note_on_c, 0, 73, 0
1, 16320, Note_on_c, 0, 74, 71
1, 16320, Note_on_c, 1, 50, 87
1, 16320, Note_on_c, 1, 45, 87
1, 16320, Note_on_c, 1, 41, 87
1, 16343, Note_on_c, 0, 74, 0
1, 16344, Note_on_c, 0, 76, 72
1, 16367, Note_on_c, 0, 76, 0
1, 16368, Note_on_c, 0, 77, 72
1, 16391, Note_on_c, 0, 77, 0
1, 16392, Note_on_c, 0, 76, 72
1, 16415, Note_on_c, 0, 76, 0
1, 16416, Note_on_c, 0, 77, 73
1, 16416, Note_on_c, 1, 50, 0
1, 16416, Note_on_c, 1, 45, 0
1, 16416, Note_on_c, 1, 41, 0
1, 16439, Note_on_c, 0, 77, 0
1, 16440, Note_on_c, 0, 74, 73
1, 16463, Note_on_c, 0, 74, 0
1, 16464, Note_on_c, 0, 73, 73
1, 16487, Note_on_c, 0, 73, 0
1, 16488, Note_on_c, 0, 74, 74
1, 16511, Note_on_c, 0, 74, 0
1, 16512, Note_on_c, 0, 83, 74
1, 16512, Note_on_c, 1, 44, 73
1, 16512, Note_on_c, 1, 32, 73
1, 16557, Note_on_c, 0, 83, 0
1, 16560, Note_on_c, 0, 77, 75
1, 16605, Note_on_c, 0, 77, 0
1, 16608, Note_on_c, 0, 76, 75
1, 16620, Note_on_c, 0, 76, 0
1, 16620, Note_on_c, 0, 77, 75
1, 16632, Note_on_c, 0, 77, 0
1, 16632, Note_on_c, 0, 76, 75
1, 16653, Note_on_c, 0, 76, 0
1, 16656, Note_on_c, 0, 74, 75
1, 16701, Note_on_c, 0, 74, 0
1, 16701, Note_on_c, 1, 44, 0
1, 16701, Note_on_c, 1, 32, 0
1, 16704, Note_on_c, 0, 81, 75
1, 16704, Note_on_c, 1, 45, 75
1, 16704, Note_on_c, 1, 33, 75
1, 16793, Note_on_c, 0, 81, 0
1, 16793, Note_on_c, 1, 45, 0
1, 16793, Note_on_c, 1, 33, 0
1, 16848, Note_on_c, 0, 85, 80
1, 16848, Note_on_c, 0, 81, 80
1, 16848, Note_on_c, 0, 79, 80
1, 16848, Note_on_c, 0, 76, 80
1, 16848, Note_on_c, 1, 45, 80
1, 16848, Note_on_c, 1, 33, 80
1, 16868, Note_on_c, 0, 85, 0
1, 16868, Note_on_c, 0, 81, 0
1, 16868, Note_on_c, 0, 79, 0
1, 16868, Note_on_c, 0, 76, 0
1, 16868, Note_on_c, 1, 45, 0
1, 16868, Note_on_c, 1, 33, 0
1, 16896, Note_on_c, 0, 86, 96
1, 16896, Note_on_c, 0, 81, 96
1, 16896, Note_on_c, 0, 77, 96
1, 16896, Note_on_c, 0, 74, 96
1, 16896, Note_on_c, 1, 50, 80
1, 16896, Note_on_c, 1, 38, 80
1, 16985, Note_on_c, 1, 50, 0
1, 16985, Note_on_c, 1, 38, 0
1, 16990, Note_on_c, 0, 86, 0
1, 16990, Note_on_c, 0, 81, 0
1, 16990, Note_on_c, 0, 77, 0
1, 16990, Note_on_c, 0, 74, 0
1, 16992, Note_on_c, 0, 62, 80
1, 16992, Note_on_c, 1, 57, 80
1, 16992, Note_on_c, 1, 53, 80
1, 16992, Note_on_c, 1, 50, 80
1, 17169, Note_on_c, 0, 62, 0
1, 17169, Note_on_c, 1, 57, 0
1, 17169, Note_on_c, 1, 53, 0
1, 17169, Note_on_c, 1, 50, 0
1, 17280, Note_on_c, 1, 50, 0
1, 17457, Note_on_c, 1, 50, 0
1, 17467, End_track
0, 0, End_of_file