0, 0, Header, 0, 1, 96
1, 0, Start_track
1, 0, Tempo, 571428
1, 0, Note_on_c, 0, 70, 79
1, 48, Note_on_c, 1, 39, 79
1, 93, Note_on_c, 1, 39, 0
1, 96, Note_on_c, 1, 43, 79
1, 119, Note_on_c, 0, 70, 0
1, 120, Note_on_c, 0, 67, 79
1, 141, Note_on_c, 1, 43, 0
1, 143, Note_on_c, 0, 67, 0
1, 144, Note_on_c, 0, 68, 79
1, 144, Note_on_c, 1, 46, 79
1, 167, Note_on_c, 0, 68, 0
1, 168, Note_on_c, 0, 65, 79
1, 189, Note_on_c, 1, 46, 0
1, 191, Note_on_c, 0, 65, 0
1, 192, Note_on_c, 0, 67, 79
1, 192, Note_on_c, 1, 51, 79
1, 215, Note_on_c, 0, 67, 0
1, 216, Note_on_c, 0, 63, 79
1, 237, Note_on_c, 1, 51, 0
1, 239, Note_on_c, 0, 63, 0
1, 240, Note_on_c, 0, 65, 79
1, 240, Note_on_c, 1, 56, 79
1, 263, Note_on_c, 0, 65, 0
1, 264, Note_on_c, 0, 62, 79
1, 285, Note_on_c, 1, 56, 0
1, 287, Note_on_c, 0, 62, 0
1, 288, Note_on_c, 0, 63, 79
1, 288, Note_on_c, 1, 55, 79
1, 308, Note_on_c, 0, 63, 0
1, 336, Note_on_c, 0, 58, 81
1, 356, Note_on_c, 0, 58, 0
1, 377, Note_on_c, 1, 55, 0
1, 384, Note_on_c, 0, 55, 83
1, 404, Note_on_c, 0, 55, 0
1, 432, Note_on_c, 0, 58, 85
1, 452, Note_on_c, 0, 58, 0
1, 480, Note_on_c, 0, 63, 83
1, 500, Note_on_c, 0, 63, 0
1, 528, Note_on_c, 0, 67, 81
1, 548, Note_on_c, 0, 67, 0
1, 576, Note_on_c, 0, 70, 79
1, 624, Note_on_c, 1, 39, 79
1, 669, Note_on_c, 1, 39, 0
1, 672, Note_on_c, 1, 43, 79
1, 695, Note_on_c, 0, 70, 0
1, 696, Note_on_c, 0, 67, 79
1, 717, Note_on_c, 1, 43, 0
1, 719, Note_on_c, 0, 67, 0
1, 720, Note_on_c, 0, 68, 79
1, 720, Note_on_c, 1, 46, 79
1, 743, Note_on_c, 0, 68, 0
1, 744, Note_on_c, 0, 65, 79
1, 765, Note_on_c, 1, 46, 0
1, 767, Note_on_c, 0, 65, 0
1, 768, Note_on_c, 0, 67, 79
1, 768, Note_on_c, 1, 51, 79
1, 791, Note_on_c, 0, 67, 0
1, 792, Note_on_c, 0, 63, 79
1, 813, Note_on_c, 1, 51, 0
1, 815, Note_on_c, 0, 63, 0
1, 816, Note_on_c, 0, 65, 79
1, 816, Note_on_c, 1, 56, 79
1, 839, Note_on_c, 0, 65, 0
1, 840, Note_on_c, 0, 62, 79
1, 861, Note_on_c, 1, 56, 0
1, 863, Note_on_c, 0, 62, 0
1, 864, Note_on_c, 0, 63, 79
1, 864, Note_on_c, 1, 55, 79
1, 909, Note_on_c, 0, 63, 0
1, 912, Note_on_c, 0, 75, 79
1, 912, Note_on_c, 0, 67, 79
1, 932, Note_on_c, 0, 75, 0
1, 932, Note_on_c, 0, 67, 0
1, 953, Note_on_c, 1, 55, 0
1, 960, Note_on_c, 0, 75, 79
1, 960, Note_on_c, 0, 67, 79
1, 980, Note_on_c, 0, 75, 0
1, 980, Note_on_c, 0, 67, 0
1, 1008, Note_on_c, 0, 75, 79
1, 1008, Note_on_c, 0, 67, 79
1, 1028, Note_on_c, 0, 75, 0
1, 1028, Note_on_c, 0, 67, 0
1, 1056, Note_on_c, 0, 75, 79
1, 1056, Note_on_c, 0, 67, 79
1, 1076, Note_on_c, 0, 75, 0
1, 1076, Note_on_c, 0, 67, 0
1, 1104, Note_on_c, 0, 75, 79
1, 1104, Note_on_c, 0, 67, 79
1, 1124, Note_on_c, 0, 75, 0
1, 1124, Note_on_c, 0, 67, 0
1, 1152, Note_on_c, 0, 75, 95
1, 1152, Note_on_c, 0, 65, 64
1, 1200, Note_on_c, 1, 70, 79
1, 1200, Note_on_c, 1, 68, 79
1, 1220, Note_on_c, 1, 70, 0
1, 1220, Note_on_c, 1, 68, 0
1, 1248, Note_on_c, 1, 70, 79
1, 1248, Note_on_c, 1, 68, 79
1, 1268, Note_on_c, 1, 70, 0
1, 1268, Note_on_c, 1, 68, 0
1, 1296, Note_on_c, 1, 70, 79
1, 1296, Note_on_c, 1, 68, 79
1, 1316, Note_on_c, 1, 70, 0
1, 1316, Note_on_c, 1, 68, 0
1, 1344, Note_on_c, 0, 75, 0
1, 1344, Note_on_c, 0, 74, 79
1, 1344, Note_on_c, 1, 70, 79
1, 1344, Note_on_c, 1, 68, 79
1, 1364, Note_on_c, 1, 70, 0
1, 1364, Note_on_c, 1, 68, 0
1, 1392, Note_on_c, 1, 70, 79
1, 1392, Note_on_c, 1, 68, 79
1, 1412, Note_on_c, 1, 70, 0
1, 1412, Note_on_c, 1, 68, 0
1, 1417, Note_on_c, 0, 65, 0
1, 1433, Note_on_c, 0, 74, 0
1, 1440, Note_on_c, 1, 70, 79
1, 1440, Note_on_c, 1, 68, 64
1, 1488, Note_on_c, 0, 82, 79
1, 1488, Note_on_c, 0, 73, 79
1, 1508, Note_on_c, 0, 82, 0
1, 1508, Note_on_c, 0, 73, 0
1, 1536, Note_on_c, 0, 82, 79
1, 1536, Note_on_c, 0, 73, 79
1, 1556, Note_on_c, 0, 82, 0
1, 1556, Note_on_c, 0, 73, 0
1, 1584, Note_on_c, 0, 82, 79
1, 1584, Note_on_c, 0, 73, 79
1, 1604, Note_on_c, 0, 82, 0
1, 1604, Note_on_c, 0, 73, 0
1, 1632, Note_on_c, 0, 82, 79
1, 1632, Note_on_c, 0, 73, 79
1, 1632, Note_on_c, 1, 68, 0
1, 1632, Note_on_c, 1, 67, 64
1, 1652, Note_on_c, 0, 82, 0
1, 1652, Note_on_c, 0, 73, 0
1, 1680, Note_on_c, 0, 82, 79
1, 1680, Note_on_c, 0, 73, 79
1, 1700, Note_on_c, 0, 82, 0
1, 1700, Note_on_c, 0, 73, 0
1, 1705, Note_on_c, 1, 70, 0
1, 1721, Note_on_c, 1, 67, 0
1, 1728, Note_on_c, 0, 82, 79
1, 1728, Note_on_c, 0, 73, 79
1, 1776, Note_on_c, 1, 56, 79
1, 1796, Note_on_c, 1, 56, 0
1, 1824, Note_on_c, 0, 82, 0
1, 1824, Note_on_c, 0, 73, 0
1, 1824, Note_on_c, 0, 80, 79
1, 1824, Note_on_c, 0, 72, 79
1, 1824, Note_on_c, 1, 56, 79
1, 1844, Note_on_c, 1, 56, 0
1, 1869, Note_on_c, 0, 80, 0
1, 1869, Note_on_c, 0, 72, 0
1, 1872, Note_on_c, 0, 70, 79
1, 1872, Note_on_c, 1, 56, 79
1, 1884, Note_on_c, 0, 70, 0
1, 1884, Note_on_c, 0, 79, 95
1, 1892, Note_on_c, 1, 56, 0
1, 1920, Note_on_c, 0, 79, 0
1, 1920, Note_on_c, 0, 68, 79
1, 1920, Note_on_c, 1, 58, 79
1, 1932, Note_on_c, 0, 68, 0
1, 1932, Note_on_c, 0, 77, 95
1, 1940, Note_on_c, 1, 58, 0
1, 1968, Note_on_c, 0, 77, 0
1, 1968, Note_on_c, 0, 65, 79
1, 1968, Note_on_c, 1, 58, 79
1, 1980, Note_on_c, 0, 65, 0
1, 1980, Note_on_c, 0, 74, 95
1, 1988, Note_on_c, 1, 58, 0
1, 2016, Note_on_c, 0, 74, 0
1, 2016, Note_on_c, 0, 67, 79
1, 2016, Note_on_c, 1, 51, 79
1, 2028, Note_on_c, 0, 67, 0
1, 2028, Note_on_c, 0, 75, 95
1, 2064, Note_on_c, 0, 75, 0
1, 2105, Note_on_c, 1, 51, 0
1, 2112, Note_on_c, 1, 39, 79
1, 2201, Note_on_c, 1, 39, 0
1, 2304, Note_on_c, 0, 70, 79
1, 2352, Note_on_c, 1, 39, 79
1, 2397, Note_on_c, 1, 39, 0
1, 2400, Note_on_c, 1, 43, 79
1, 2423, Note_on_c, 0, 70, 0
1, 2424, Note_on_c, 0, 67, 79
1, 2445, Note_on_c, 1, 43, 0
1, 2447, Note_on_c, 0, 67, 0
1, 2448, Note_on_c, 0, 68, 79
1, 2448, Note_on_c, 1, 46, 79
1, 2471, Note_on_c, 0, 68, 0
1, 2472, Note_on_c, 0, 65, 79
1, 2493, Note_on_c, 1, 46, 0
1, 2495, Note_on_c, 0, 65, 0
1, 2496, Note_on_c, 0, 67, 79
1, 2496, Note_on_c, 1, 51, 79
1, 2519, Note_on_c, 0, 67, 0
1, 2520, Note_on_c, 0, 63, 79
1, 2541, Note_on_c, 1, 51, 0
1, 2543, Note_on_c, 0, 63, 0
1, 2544, Note_on_c, 0, 65, 79
1, 2544, Note_on_c, 1, 56, 79
1, 2567, Note_on_c, 0, 65, 0
1, 2568, Note_on_c, 0, 62, 79
1, 2589, Note_on_c, 1, 56, 0
1, 2591, Note_on_c, 0, 62, 0
1, 2592, Note_on_c, 0, 63, 79
1, 2592, Note_on_c, 1, 55, 79
1, 2612, Note_on_c, 0, 63, 0
1, 2640, Note_on_c, 0, 67, 79
1, 2660, Note_on_c, 0, 67, 0
1, 2681, Note_on_c, 1, 55, 0
1, 2688, Note_on_c, 0, 70, 79
1, 2708, Note_on_c, 0, 70, 0
1, 2736, Note_on_c, 0, 75, 79
1, 2756, Note_on_c, 0, 75, 0
1, 2784, Note_on_c, 0, 79, 79
1, 2807, Note_on_c, 0, 79, 0
1, 2808, Note_on_c, 0, 75, 79
1, 2831, Note_on_c, 0, 75, 0
1, 2832, Note_on_c, 0, 75, 79
1, 2844, Note_on_c, 0, 75, 0
1, 2844, Note_on_c, 0, 77, 79
1, 2856, Note_on_c, 0, 77, 0
1, 2856, Note_on_c, 0, 75, 79
1, 2868, Note_on_c, 0, 75, 0
1, 2868, Note_on_c, 0, 77, 79
1, 2877, Note_on_c, 0, 77, 0
1, 2880, Note_on_c, 0, 80, 79
1, 2880, Note_on_c, 1, 72, 79
1, 2903, Note_on_c, 0, 80, 0
1, 2904, Note_on_c, 0, 75, 79
1, 2927, Note_on_c, 0, 75, 0
1, 2928, Note_on_c, 0, 75, 79
1, 2940, Note_on_c, 0, 75, 0
1, 2940, Note_on_c, 0, 77, 79
1, 2952, Note_on_c, 0, 77, 0
1, 2952, Note_on_c, 0, 75, 79
1, 2964, Note_on_c, 0, 75, 0
1, 2964, Note_on_c, 0, 77, 79
1, 2969, Note_on_c, 1, 72, 0
1, 2973, Note_on_c, 0, 77, 0
1, 2976, Note_on_c, 0, 79, 79
1, 2976, Note_on_c, 1, 70, 79
1, 2999, Note_on_c, 0, 79, 0
1, 3000, Note_on_c, 0, 75, 79
1, 3023, Note_on_c, 0, 75, 0
1, 3024, Note_on_c, 0, 75, 79
1, 3036, Note_on_c, 0, 75, 0
1, 3036, Note_on_c, 0, 77, 79
1, 3048, Note_on_c, 0, 77, 0
1, 3048, Note_on_c, 0, 75, 79
1, 3060, Note_on_c, 0, 75, 0
1, 3060, Note_on_c, 0, 77, 79
1, 3065, Note_on_c, 1, 70, 0
1, 3069, Note_on_c, 0, 77, 0
1, 3072, Note_on_c, 0, 84, 79
1, 3072, Note_on_c, 1, 68, 79
1, 3095, Note_on_c, 0, 84, 0
1, 3096, Note_on_c, 0, 75, 79
1, 3119, Note_on_c, 0, 75, 0
1, 3120, Note_on_c, 0, 75, 79
1, 3132, Note_on_c, 0, 75, 0
1, 3132, Note_on_c, 0, 77, 79
1, 3144, Note_on_c, 0, 77, 0
1, 3144, Note_on_c, 0, 75, 79
1, 3156, Note_on_c, 0, 75, 0
1, 3156, Note_on_c, 0, 77, 79
1, 3161, Note_on_c, 1, 68, 0
1, 3165, Note_on_c, 0, 77, 0
1, 3168, Note_on_c, 0, 82, 79
1, 3168, Note_on_c, 1, 67, 64
1, 3264, Note_on_c, 1, 75, 79
1, 3301, Note_on_c, 0, 82, 0
1, 3312, Note_on_c, 0, 84, 79
1, 3335, Note_on_c, 0, 84, 0
1, 3336, Note_on_c, 0, 82, 79
1, 3345, Note_on_c, 1, 67, 0
1, 3353, Note_on_c, 1, 75, 0
1, 3359, Note_on_c, 0, 82, 0
1, 3360, Note_on_c, 0, 80, 79
1, 3383, Note_on_c, 0, 80, 0
1, 3384, Note_on_c, 0, 79, 79
1, 3407, Note_on_c, 0, 79, 0
1, 3408, Note_on_c, 0, 77, 79
1, 3431, Note_on_c, 0, 77, 0
1, 3432, Note_on_c, 0, 75, 79
1, 3455, Note_on_c, 0, 75, 0
1, 3456, Note_on_c, 0, 75, 79
1, 3504, Note_on_c, 1, 68, 79
1, 3504, Note_on_c, 1, 65, 79
1, 3524, Note_on_c, 1, 68, 0
1, 3524, Note_on_c, 1, 65, 0
1, 3552, Note_on_c, 0, 75, 0
1, 3552, Note_on_c, 0, 74, 79
1, 3552, Note_on_c, 1, 68, 79
1, 3552, Note_on_c, 1, 65, 79
1, 3597, Note_on_c, 0, 74, 0
1, 3599, Note_on_c, 1, 68, 0
1, 3599, Note_on_c, 1, 65, 0
1, 3600, Note_on_c, 0, 79, 79
1, 3623, Note_on_c, 0, 79, 0
1, 3624, Note_on_c, 0, 77, 79
1, 3647, Note_on_c, 0, 77, 0
1, 3648, Note_on_c, 0, 75, 79
1, 3671, Note_on_c, 0, 75, 0
1, 3672, Note_on_c, 0, 74, 79
1, 3695, Note_on_c, 0, 74, 0
1, 3696, Note_on_c, 0, 72, 79
1, 3719, Note_on_c, 0, 72, 0
1, 3720, Note_on_c, 0, 70, 79
1, 3743, Note_on_c, 0, 70, 0
1, 3744, Note_on_c, 0, 70, 79
1, 3792, Note_on_c, 1, 63, 79
1, 3792, Note_on_c, 1, 60, 79
1, 3812, Note_on_c, 1, 63, 0
1, 3812, Note_on_c, 1, 60, 0
1, 3840, Note_on_c, 0, 70, 0
1, 3840, Note_on_c, 0, 68, 79
1, 3840, Note_on_c, 1, 63, 79
1, 3840, Note_on_c, 1, 60, 79
1, 3885, Note_on_c, 0, 68, 0
1, 3887, Note_on_c, 1, 63, 0
1, 3887, Note_on_c, 1, 60, 0
1, 3888, Note_on_c, 0, 75, 79
1, 3911, Note_on_c, 0, 75, 0
1, 3912, Note_on_c, 0, 74, 79
1, 3935, Note_on_c, 0, 74, 0
1, 3936, Note_on_c, 0, 72, 79
1, 3959, Note_on_c, 0, 72, 0
1, 3960, Note_on_c, 0, 70, 79
1, 3983, Note_on_c, 0, 70, 0
1, 3984, Note_on_c, 0, 68, 79
1, 4007, Note_on_c, 0, 68, 0
1, 4008, Note_on_c, 0, 67, 79
1, 4031, Note_on_c, 0, 67, 0
1, 4032, Note_on_c, 0, 67, 79
1, 4080, Note_on_c, 1, 60, 79
1, 4080, Note_on_c, 1, 56, 79
1, 4100, Note_on_c, 1, 60, 0
1, 4100, Note_on_c, 1, 56, 0
1, 4128, Note_on_c, 0, 67, 0
1, 4128, Note_on_c, 0, 65, 79
1, 4128, Note_on_c, 1, 60, 79
1, 4128, Note_on_c, 1, 56, 79
1, 4173, Note_on_c, 0, 65, 0
1, 4175, Note_on_c, 1, 60, 0
1, 4175, Note_on_c, 1, 56, 0
1, 4176, Note_on_c, 0, 72, 79
1, 4199, Note_on_c, 0, 72, 0
1, 4200, Note_on_c, 0, 70, 79
1, 4223, Note_on_c, 0, 70, 0
1, 4224, Note_on_c, 0, 68, 79
1, 4247, Note_on_c, 0, 68, 0
1, 4248, Note_on_c, 0, 67, 79
1, 4271, Note_on_c, 0, 67, 0
1, 4272, Note_on_c, 0, 65, 79
1, 4295, Note_on_c, 0, 65, 0
1, 4296, Note_on_c, 0, 63, 79
1, 4319, Note_on_c, 0, 63, 0
1, 4320, Note_on_c, 0, 62, 79
1, 4320, Note_on_c, 1, 56, 79
1, 4320, Note_on_c, 1, 46, 79
1, 4387, Note_on_c, 0, 62, 0
1, 4392, Note_on_c, 0, 63, 73
1, 4404, Note_on_c, 0, 63, 0
1, 4404, Note_on_c, 0, 65, 72
1, 4416, Note_on_c, 0, 65, 0
1, 4416, Note_on_c, 0, 63, 72
1, 4416, Note_on_c, 1, 56, 0
1, 4416, Note_on_c, 1, 46, 0
1, 4416, Note_on_c, 1, 55, 72
1, 4416, Note_on_c, 1, 51, 72
1, 4455, Note_on_c, 0, 63, 0
1, 4505, Note_on_c, 1, 55, 0
1, 4505, Note_on_c, 1, 51, 0
1, 4608, Note_on_c, 0, 79, 72
1, 4656, Note_on_c, 1, 62, 65
1, 4656, Note_on_c, 1, 59, 65
1, 4704, Note_on_c, 1, 62, 0
1, 4704, Note_on_c, 1, 59, 0
1, 4704, Note_on_c, 1, 63, 65
1, 4704, Note_on_c, 1, 60, 65
1, 4727, Note_on_c, 0, 79, 0
1, 4728, Note_on_c, 0, 83, 71
1, 4751, Note_on_c, 0, 83, 0
1, 4752, Note_on_c, 0, 84, 71
1, 4775, Note_on_c, 0, 84, 0
1, 4776, Note_on_c, 0, 80, 70
1, 4793, Note_on_c, 1, 63, 0
1, 4793, Note_on_c, 1, 60, 0
1, 4799, Note_on_c, 0, 80, 0
1, 4800, Note_on_c, 0, 79, 70
1, 4823, Note_on_c, 0, 79, 0
1, 4824, Note_on_c, 0, 77, 70
1, 4847, Note_on_c, 0, 77, 0
1, 4848, Note_on_c, 0, 75, 69
1, 4871, Note_on_c, 0, 75, 0
1, 4872, Note_on_c, 0, 74, 69
1, 4895, Note_on_c, 0, 74, 0
1, 4896, Note_on_c, 0, 72, 69
1, 4919, Note_on_c, 0, 72, 0
1, 4920, Note_on_c, 0, 71, 68
1, 4943, Note_on_c, 0, 71, 0
1, 4944, Note_on_c, 0, 74, 68
1, 4967, Note_on_c, 0, 74, 0
1, 4968, Note_on_c, 0, 72, 68
1, 4991, Note_on_c, 0, 72, 0
1, 4992, Note_on_c, 0, 75, 67
1, 5015, Note_on_c, 0, 75, 0
1, 5016, Note_on_c, 0, 74, 67
1, 5039, Note_on_c, 0, 74, 0
1, 5040, Note_on_c, 0, 77, 67
1, 5063, Note_on_c, 0, 77, 0
1, 5064, Note_on_c, 0, 75, 66
1, 5087, Note_on_c, 0, 75, 0
1, 5088, Note_on_c, 0, 79, 66
1, 5108, Note_on_c, 0, 79, 0
1, 5184, Note_on_c, 0, 77, 79
1, 5232, Note_on_c, 1, 60, 72
1, 5232, Note_on_c, 1, 57, 72
1, 5280, Note_on_c, 1, 60, 0
1, 5280, Note_on_c, 1, 57, 0
1, 5280, Note_on_c, 1, 62, 72
1, 5280, Note_on_c, 1, 58, 72
1, 5303, Note_on_c, 0, 77, 0
1, 5304, Note_on_c, 0, 81, 78
1, 5327, Note_on_c, 0, 81, 0
1, 5328, Note_on_c, 0, 82, 78
1, 5351, Note_on_c, 0, 82, 0
1, 5352, Note_on_c, 0, 79, 77
1, 5369, Note_on_c, 1, 62, 0
1, 5369, Note_on_c, 1, 58, 0
1, 5375, Note_on_c, 0, 79, 0
1, 5376, Note_on_c, 0, 77, 77
1, 5399, Note_on_c, 0, 77, 0
1, 5400, Note_on_c, 0, 75, 77
1, 5423, Note_on_c, 0, 75, 0
1, 5424, Note_on_c, 0, 74, 76
1, 5447, Note_on_c, 0, 74, 0
1, 5448, Note_on_c, 0, 72, 76
1, 5471, Note_on_c, 0, 72, 0
1, 5472, Note_on_c, 0, 70, 76
1, 5495, Note_on_c, 0, 70, 0
1, 5496, Note_on_c, 0, 69, 75
1, 5519, Note_on_c, 0, 69, 0
1, 5520, Note_on_c, 0, 72, 75
1, 5543, Note_on_c, 0, 72, 0
1, 5544, Note_on_c, 0, 70, 75
1, 5567, Note_on_c, 0, 70, 0
1, 5568, Note_on_c, 0, 74, 74
1, 5591, Note_on_c, 0, 74, 0
1, 5592, Note_on_c, 0, 72, 74
1, 5615, Note_on_c, 0, 72, 0
1, 5616, Note_on_c, 0, 75, 74
1, 5639, Note_on_c, 0, 75, 0
1, 5640, Note_on_c, 0, 74, 73
1, 5663, Note_on_c, 0, 74, 0
1, 5664, Note_on_c, 0, 77, 73
1, 5684, Note_on_c, 0, 77, 0
1, 5712, Note_on_c, 1, 62, 72
1, 5712, Note_on_c, 1, 58, 72
1, 5760, Note_on_c, 0, 72, 79
1, 5760, Note_on_c, 1, 62, 0
1, 5760, Note_on_c, 1, 58, 0
1, 5760, Note_on_c, 1, 67, 72
1, 5760, Note_on_c, 1, 63, 72
1, 5783, Note_on_c, 0, 72, 0
1, 5784, Note_on_c, 0, 71, 79
1, 5807, Note_on_c, 0, 71, 0
1, 5808, Note_on_c, 0, 74, 79
1, 5831, Note_on_c, 0, 74, 0
1, 5832, Note_on_c, 0, 72, 79
1, 5849, Note_on_c, 1, 67, 0
1, 5849, Note_on_c, 1, 63, 0
1, 5855, Note_on_c, 0, 72, 0
1, 5856, Note_on_c, 0, 75, 79
1, 5879, Note_on_c, 0, 75, 0
1, 5880, Note_on_c, 0, 74, 79
1, 5903, Note_on_c, 0, 74, 0
1, 5904, Note_on_c, 0, 77, 79
1, 5927, Note_on_c, 0, 77, 0
1, 5928, Note_on_c, 0, 75, 79
1, 5951, Note_on_c, 0, 75, 0
1, 5952, Note_on_c, 0, 79, 79
1, 5972, Note_on_c, 0, 79, 0
1, 6000, Note_on_c, 1, 65, 72
1, 6000, Note_on_c, 1, 62, 72
1, 6048, Note_on_c, 0, 71, 79
1, 6048, Note_on_c, 1, 65, 0
1, 6048, Note_on_c, 1, 62, 0
1, 6048, Note_on_c, 1, 67, 72
1, 6048, Note_on_c, 1, 63, 72
1, 6071, Note_on_c, 0, 71, 0
1, 6072, Note_on_c, 0, 72, 79
1, 6095, Note_on_c, 0, 72, 0
1, 6096, Note_on_c, 0, 73, 80
1, 6119, Note_on_c, 0, 73, 0
1, 6120, Note_on_c, 0, 74, 80
1, 6137, Note_on_c, 1, 67, 0
1, 6137, Note_on_c, 1, 63, 0
1, 6143, Note_on_c, 0, 74, 0
1, 6144, Note_on_c, 0, 75, 81
1, 6167, Note_on_c, 0, 75, 0
1, 6168, Note_on_c, 0, 76, 81
1, 6191, Note_on_c, 0, 76, 0
1, 6192, Note_on_c, 0, 77, 82
1, 6215, Note_on_c, 0, 77, 0
1, 6216, Note_on_c, 0, 78, 82
1, 6239, Note_on_c, 0, 78, 0
1, 6240, Note_on_c, 0, 79, 83
1, 6285, Note_on_c, 0, 79, 0
1, 6288, Note_on_c, 0, 81, 84
1, 6298, Note_on_c, 0, 81, 0
1, 6298, Note_on_c, 0, 79, 84
1, 6308, Note_on_c, 0, 79, 0
1, 6308, Note_on_c, 0, 78, 84
1, 6318, Note_on_c, 0, 78, 0
1, 6318, Note_on_c, 0, 79, 84
1, 6327, Note_on_c, 0, 79, 0
1, 6327, Note_on_c, 0, 81, 84
1, 6336, Note_on_c, 0, 81, 0
1, 6336, Note_on_c, 0, 82, 79
1, 6336, Note_on_c, 1, 67, 72
1, 6336, Note_on_c, 1, 63, 72
1, 6356, Note_on_c, 0, 82, 0
1, 6408, Note_on_c, 0, 81, 77
1, 6425, Note_on_c, 1, 67, 0
1, 6425, Note_on_c, 1, 63, 0
1, 6432, Note_on_c, 0, 81, 0
1, 6432, Note_on_c, 0, 79, 77
1, 6452, Note_on_c, 0, 79, 0
1, 6504, Note_on_c, 0, 77, 75
1, 6528, Note_on_c, 0, 77, 0
1, 6528, Note_on_c, 0, 75, 75
1, 6548, Note_on_c, 0, 75, 0
1, 6600, Note_on_c, 0, 74, 74
1, 6600, Note_on_c, 1, 70, 72
1, 6600, Note_on_c, 1, 64, 72
1, 6623, Note_on_c, 0, 74, 0
1, 6623, Note_on_c, 1, 70, 0
1, 6623, Note_on_c, 1, 64, 0
1, 6624, Note_on_c, 0, 75, 73
1, 6624, Note_on_c, 1, 70, 72
1, 6624, Note_on_c, 1, 65, 64
1, 6636, Note_on_c, 0, 75, 0
1, 6636, Note_on_c, 0, 74, 73
1, 6648, Note_on_c, 0, 74, 0
1, 6648, Note_on_c, 0, 75, 73
1, 6660, Note_on_c, 0, 75, 0
1, 6660, Note_on_c, 0, 74, 73
1, 6672, Note_on_c, 0, 74, 0
1, 6672, Note_on_c, 0, 75, 72
1, 6684, Note_on_c, 0, 75, 0
1, 6684, Note_on_c, 0, 74, 72
1, 6696, Note_on_c, 0, 74, 0
1, 6696, Note_on_c, 0, 72, 72
1, 6708, Note_on_c, 0, 72, 0
1, 6708, Note_on_c, 0, 74, 72
1, 6713, Note_on_c, 1, 70, 0
1, 6720, Note_on_c, 0, 74, 0
1, 6720, Note_on_c, 0, 72, 72
1, 6720, Note_on_c, 1, 69, 72
1, 6801, Note_on_c, 1, 65, 0
1, 6809, Note_on_c, 0, 72, 0
1, 6809, Note_on_c, 1, 69, 0
1, 6912, Note_on_c, 0, 77, 72
1, 6912, Note_on_c, 0, 74, 64
1, 6960, Note_on_c, 1, 34, 72
1, 7005, Note_on_c, 1, 34, 0
1, 7008, Note_on_c, 1, 46, 72
1, 7045, Note_on_c, 0, 77, 0
1, 7045, Note_on_c, 0, 74, 0
1, 7056, Note_on_c, 0, 79, 72
1, 7056, Note_on_c, 0, 75, 64
1, 7079, Note_on_c, 0, 79, 0
1, 7079, Note_on_c, 0, 75, 0
1, 7080, Note_on_c, 0, 75, 72
1, 7080, Note_on_c, 0, 72, 64
1, 7097, Note_on_c, 1, 46, 0
1, 7103, Note_on_c, 0, 75, 0
1, 7103, Note_on_c, 0, 72, 0
1, 7104, Note_on_c, 0, 74, 72
1, 7104, Note_on_c, 0, 70, 64
1, 7149, Note_on_c, 0, 74, 0
1, 7149, Note_on_c, 0, 70, 0
1, 7152, Note_on_c, 0, 77, 72
1, 7152, Note_on_c, 0, 72, 64
1, 7164, Note_on_c, 0, 77, 0
1, 7164, Note_on_c, 0, 75, 72
1, 7176, Note_on_c, 0, 75, 0
1, 7176, Note_on_c, 0, 74, 72
1, 7188, Note_on_c, 0, 74, 0
1, 7188, Note_on_c, 0, 75, 72
1, 7197, Note_on_c, 0, 72, 0
1, 7200, Note_on_c, 0, 75, 0
1, 7200, Note_on_c, 0, 77, 72
1, 7200, Note_on_c, 0, 74, 64
1, 7200, Note_on_c, 1, 70, 72
1, 7245, Note_on_c, 0, 77, 0
1, 7245, Note_on_c, 0, 74, 0
1, 7245, Note_on_c, 1, 70, 0
1, 7248, Note_on_c, 0, 82, 72
1, 7293, Note_on_c, 0, 82, 0
1, 7296, Note_on_c, 1, 70, 72
1, 7341, Note_on_c, 1, 70, 0
1, 7344, Note_on_c, 0, 81, 72
1, 7344, Note_on_c, 0, 77, 64
1, 7389, Note_on_c, 0, 81, 0
1, 7389, Note_on_c, 0, 77, 0
1, 7392, Note_on_c, 1, 70, 72
1, 7437, Note_on_c, 1, 70, 0
1, 7440, Note_on_c, 0, 79, 72
1, 7440, Note_on_c, 0, 75, 64
1, 7485, Note_on_c, 0, 79, 0
1, 7485, Note_on_c, 0, 75, 0
1, 7488, Note_on_c, 0, 77, 72
1, 7488, Note_on_c, 0, 74, 64
1, 7536, Note_on_c, 1, 34, 72
1, 7581, Note_on_c, 1, 34, 0
1, 7584, Note_on_c, 1, 46, 72
1, 7621, Note_on_c, 0, 77, 0
1, 7621, Note_on_c, 0, 74, 0
1, 7632, Note_on_c, 0, 79, 72
1, 7632, Note_on_c, 0, 75, 64
1, 7655, Note_on_c, 0, 79, 0
1, 7655, Note_on_c, 0, 75, 0
1, 7656, Note_on_c, 0, 75, 72
1, 7656, Note_on_c, 0, 72, 64
1, 7673, Note_on_c, 1, 46, 0
1, 7679, Note_on_c, 0, 75, 0
1, 7679, Note_on_c, 0, 72, 0
1, 7680, Note_on_c, 0, 74, 72
1, 7680, Note_on_c, 0, 70, 64
1, 7725, Note_on_c, 0, 74, 0
1, 7725, Note_on_c, 0, 70, 0
1, 7728, Note_on_c, 0, 77, 72
1, 7728, Note_on_c, 0, 72, 64
1, 7740, Note_on_c, 0, 77, 0
1, 7740, Note_on_c, 0, 75, 72
1, 7752, Note_on_c, 0, 75, 0
1, 7752, Note_on_c, 0, 74, 72
1, 7764, Note_on_c, 0, 74, 0
1, 7764, Note_on_c, 0, 75, 72
1, 7773, Note_on_c, 0, 72, 0
1, 7776, Note_on_c, 0, 75, 0
1, 7776, Note_on_c, 0, 77, 72
1, 7776, Note_on_c, 0, 74, 64
1, 7776, Note_on_c, 1, 70, 72
1, 7821, Note_on_c, 0, 77, 0
1, 7821, Note_on_c, 0, 74, 0
1, 7821, Note_on_c, 1, 70, 0
1, 7824, Note_on_c, 0, 86, 72
1, 7824, Note_on_c, 0, 82, 64
1, 7869, Note_on_c, 0, 86, 0
1, 7869, Note_on_c, 0, 82, 0
1, 7872, Note_on_c, 1, 70, 72
1, 7917, Note_on_c, 1, 70, 0
1, 7920, Note_on_c, 0, 82, 72
1, 7920, Note_on_c, 0, 79, 64
1, 7965, Note_on_c, 0, 82, 0
1, 7965, Note_on_c, 0, 79, 0
1, 7968, Note_on_c, 1, 70, 72
1, 8013, Note_on_c, 1, 70, 0
1, 8016, Note_on_c, 0, 79, 72
1, 8016, Note_on_c, 0, 75, 64
1, 8061, Note_on_c, 0, 79, 0
1, 8061, Note_on_c, 0, 75, 0
1, 8064, Note_on_c, 0, 74, 72
1, 8082, Note_on_c, 0, 74, 0
1, 8082, Note_on_c, 0, 77, 88
1, 8112, Note_on_c, 1, 74, 65
1, 8112, Note_on_c, 1, 70, 65
1, 8157, Note_on_c, 1, 74, 0
1, 8157, Note_on_c, 1, 70, 0
1, 8160, Note_on_c, 1, 74, 65
1, 8160, Note_on_c, 1, 70, 65
1, 8205, Note_on_c, 1, 74, 0
1, 8205, Note_on_c, 1, 70, 0
1, 8208, Note_on_c, 1, 74, 65
1, 8208, Note_on_c, 1, 70, 65
1, 8253, Note_on_c, 1, 74, 0
1, 8253, Note_on_c, 1, 70, 0
1, 8256, Note_on_c, 0, 77, 0
1, 8256, Note_on_c, 0, 76, 72
1, 8256, Note_on_c, 1, 74, 65
1, 8256, Note_on_c, 1, 70, 65
1, 8279, Note_on_c, 0, 76, 0
1, 8280, Note_on_c, 0, 77, 72
1, 8301, Note_on_c, 1, 74, 0
1, 8301, Note_on_c, 1, 70, 0
1, 8303, Note_on_c, 0, 77, 0
1, 8304, Note_on_c, 0, 79, 72
1, 8304, Note_on_c, 1, 74, 65
1, 8304, Note_on_c, 1, 70, 65
1, 8327, Note_on_c, 0, 79, 0
1, 8328, Note_on_c, 0, 77, 72
1, 8349, Note_on_c, 1, 74, 0
1, 8349, Note_on_c, 1, 70, 0
1, 8351, Note_on_c, 0, 77, 0
1, 8352, Note_on_c, 0, 77, 88
1, 8400, Note_on_c, 1, 72, 65
1, 8400, Note_on_c, 1, 69, 65
1, 8445, Note_on_c, 1, 72, 0
1, 8445, Note_on_c, 1, 69, 0
1, 8448, Note_on_c, 1, 72, 65
1, 8448, Note_on_c, 1, 69, 65
1, 8493, Note_on_c, 1, 72, 0
1, 8493, Note_on_c, 1, 69, 0
1, 8496, Note_on_c, 1, 72, 65
1, 8496, Note_on_c, 1, 69, 65
1, 8541, Note_on_c, 1, 72, 0
1, 8541, Note_on_c, 1, 69, 0
1, 8544, Note_on_c, 0, 77, 0
1, 8544, Note_on_c, 0, 76, 72
1, 8544, Note_on_c, 1, 72, 65
1, 8544, Note_on_c, 1, 69, 65
1, 8567, Note_on_c, 0, 76, 0
1, 8568, Note_on_c, 0, 77, 72
1, 8589, Note_on_c, 1, 72, 0
1, 8589, Note_on_c, 1, 69, 0
1, 8591, Note_on_c, 0, 77, 0
1, 8592, Note_on_c, 0, 79, 72
1, 8592, Note_on_c, 1, 72, 65
1, 8592, Note_on_c, 1, 69, 65
1, 8615, Note_on_c, 0, 79, 0
1, 8616, Note_on_c, 0, 77, 72
1, 8637, Note_on_c, 1, 72, 0
1, 8637, Note_on_c, 1, 69, 0
1, 8639, Note_on_c, 0, 77, 0
1, 8640, Note_on_c, 0, 82, 88
1, 8688, Note_on_c, 1, 70, 65
1, 8688, Note_on_c, 1, 67, 65
1, 8733, Note_on_c, 1, 70, 0
1, 8733, Note_on_c, 1, 67, 0
1, 8736, Note_on_c, 1, 70, 65
1, 8736, Note_on_c, 1, 67, 65
1, 8781, Note_on_c, 1, 70, 0
1, 8781, Note_on_c, 1, 67, 0
1, 8784, Note_on_c, 1, 70, 65
1, 8784, Note_on_c, 1, 67, 65
1, 8829, Note_on_c, 1, 70, 0
1, 8829, Note_on_c, 1, 67, 0
1, 8832, Note_on_c, 0, 82, 0
1, 8832, Note_on_c, 0, 76, 72
1, 8832, Note_on_c, 1, 70, 65
1, 8832, Note_on_c, 1, 67, 65
1, 8855, Note_on_c, 0, 76, 0
1, 8856, Note_on_c, 0, 77, 72
1, 8877, Note_on_c, 1, 70, 0
1, 8877, Note_on_c, 1, 67, 0
1, 8879, Note_on_c, 0, 77, 0
1, 8880, Note_on_c, 0, 79, 72
1, 8880, Note_on_c, 1, 70, 65
1, 8880, Note_on_c, 1, 67, 65
1, 8903, Note_on_c, 0, 79, 0
1, 8904, Note_on_c, 0, 77, 72
1, 8925, Note_on_c, 1, 70, 0
1, 8925, Note_on_c, 1, 67, 0
1, 8927, Note_on_c, 0, 77, 0
1, 8928, Note_on_c, 0, 77, 88
1, 8976, Note_on_c, 1, 69, 65
1, 8976, Note_on_c, 1, 65, 65
1, 9021, Note_on_c, 1, 69, 0
1, 9021, Note_on_c, 1, 65, 0
1, 9024, Note_on_c, 1, 69, 65
1, 9024, Note_on_c, 1, 65, 65
1, 9069, Note_on_c, 1, 69, 0
1, 9069, Note_on_c, 1, 65, 0
1, 9072, Note_on_c, 1, 69, 66
1, 9072, Note_on_c, 1, 65, 66
1, 9117, Note_on_c, 1, 69, 0
1, 9117, Note_on_c, 1, 65, 0
1, 9120, Note_on_c, 0, 77, 0
1, 9120, Note_on_c, 0, 78, 72
1, 9120, Note_on_c, 1, 70, 66
1, 9120, Note_on_c, 1, 65, 66
1, 9143, Note_on_c, 0, 78, 0
1, 9144, Note_on_c, 0, 79, 72
1, 9165, Note_on_c, 1, 70, 0
1, 9165, Note_on_c, 1, 65, 0
1, 9167, Note_on_c, 0, 79, 0
1, 9168, Note_on_c, 0, 81, 72
1, 9168, Note_on_c, 1, 70, 67
1, 9168, Note_on_c, 1, 65, 67
1, 9191, Note_on_c, 0, 81, 0
1, 9192, Note_on_c, 0, 79, 73
1, 9213, Note_on_c, 1, 70, 0
1, 9213, Note_on_c, 1, 65, 0
1, 9215, Note_on_c, 0, 79, 0
1, 9216, Note_on_c, 0, 79, 89
1, 9264, Note_on_c, 1, 70, 68
1, 9264, Note_on_c, 1, 63, 68
1, 9309, Note_on_c, 1, 70, 0
1, 9309, Note_on_c, 1, 63, 0
1, 9312, Note_on_c, 1, 70, 69
1, 9312, Note_on_c, 1, 63, 69
1, 9357, Note_on_c, 1, 70, 0
1, 9357, Note_on_c, 1, 63, 0
1, 9360, Note_on_c, 1, 70, 70
1, 9360, Note_on_c, 1, 63, 70
1, 9405, Note_on_c, 1, 70, 0
1, 9405, Note_on_c, 1, 63, 0
1, 9408, Note_on_c, 0, 79, 0
1, 9408, Note_on_c, 0, 81, 77
1, 9408, Note_on_c, 1, 72, 70
1, 9408, Note_on_c, 1, 63, 70
1, 9431, Note_on_c, 0, 81, 0
1, 9432, Note_on_c, 0, 82, 77
1, 9453, Note_on_c, 1, 72, 0
1, 9453, Note_on_c, 1, 63, 0
1, 9455, Note_on_c, 0, 82, 0
1, 9456, Note_on_c, 0, 84, 78
1, 9456, Note_on_c, 1, 72, 71
1, 9456, Note_on_c, 1, 63, 71
1, 9479, Note_on_c, 0, 84, 0
1, 9480, Note_on_c, 0, 82, 78
1, 9501, Note_on_c, 1, 72, 0
1, 9501, Note_on_c, 1, 63, 0
1, 9503, Note_on_c, 0, 82, 0
1, 9504, Note_on_c, 0, 82, 95
1, 9552, Note_on_c, 1, 65, 72
1, 9552, Note_on_c, 1, 62, 72
1, 9597, Note_on_c, 1, 65, 0
1, 9597, Note_on_c, 1, 62, 0
1, 9600, Note_on_c, 1, 65, 72
1, 9600, Note_on_c, 1, 62, 72
1, 9645, Note_on_c, 0, 82, 0
1, 9645, Note_on_c, 1, 65, 0
1, 9645, Note_on_c, 1, 62, 0
1, 9648, Note_on_c, 0, 86, 79
1, 9648, Note_on_c, 1, 65, 72
1, 9648, Note_on_c, 1, 62, 72
1, 9671, Note_on_c, 0, 86, 0
1, 9672, Note_on_c, 0, 84, 79
1, 9693, Note_on_c, 1, 65, 0
1, 9693, Note_on_c, 1, 62, 0
1, 9695, Note_on_c, 0, 84, 0
1, 9696, Note_on_c, 0, 82, 79
1, 9696, Note_on_c, 1, 70, 72
1, 9696, Note_on_c, 1, 62, 72
1, 9719, Note_on_c, 0, 82, 0
1, 9720, Note_on_c, 0, 81, 79
1, 9741, Note_on_c, 1, 70, 0
1, 9741, Note_on_c, 1, 62, 0
1, 9743, Note_on_c, 0, 81, 0
1, 9744, Note_on_c, 0, 79, 79
1, 9744, Note_on_c, 1, 70, 72
1, 9744, Note_on_c, 1, 62, 72
1, 9767, Note_on_c, 0, 79, 0
1, 9768, Note_on_c, 0, 77, 79
1, 9789, Note_on_c, 1, 70, 0
1, 9789, Note_on_c, 1, 62, 0
1, 9791, Note_on_c, 0, 77, 0
1, 9792, Note_on_c, 0, 79, 79
1, 9792, Note_on_c, 1, 70, 72
1, 9792, Note_on_c, 1, 63, 72
1, 9804, Note_on_c, 0, 79, 0
1, 9804, Note_on_c, 0, 77, 79
1, 9816, Note_on_c, 0, 77, 0
1, 9816, Note_on_c, 0, 75, 79
1, 9828, Note_on_c, 0, 75, 0
1, 9828, Note_on_c, 0, 77, 79
1, 9837, Note_on_c, 1, 70, 0
1, 9837, Note_on_c, 1, 63, 0
1, 9840, Note_on_c, 0, 77, 0
1, 9840, Note_on_c, 0, 79, 77
1, 9840, Note_on_c, 1, 70, 70
1, 9840, Note_on_c, 1, 63, 70
1, 9863, Note_on_c, 0, 79, 0
1, 9864, Note_on_c, 0, 75, 77
1, 9885, Note_on_c, 1, 70, 0
1, 9885, Note_on_c, 1, 63, 0
1, 9887, Note_on_c, 0, 75, 0
1, 9888, Note_on_c, 0, 74, 76
1, 9888, Note_on_c, 1, 70, 69
1, 9888, Note_on_c, 1, 65, 69
1, 9933, Note_on_c, 1, 70, 0
1, 9933, Note_on_c, 1, 65, 0
1, 9936, Note_on_c, 1, 70, 68
1, 9936, Note_on_c, 1, 65, 68
1, 9977, Note_on_c, 0, 74, 0
1, 9981, Note_on_c, 1, 70, 0
1, 9981, Note_on_c, 1, 65, 0
1, 9984, Note_on_c, 0, 74, 74
1, 9984, Note_on_c, 1, 69, 67
1, 9984, Note_on_c, 1, 65, 67
1, 9996, Note_on_c, 0, 74, 0
1, 9996, Note_on_c, 0, 72, 74
1, 10008, Note_on_c, 0, 72, 0
1, 10008, Note_on_c, 0, 74, 73
1, 10020, Note_on_c, 0, 74, 0
1, 10020, Note_on_c, 0, 72, 73
1, 10029, Note_on_c, 1, 69, 0
1, 10029, Note_on_c, 1, 65, 0
1, 10032, Note_on_c, 0, 72, 0
1, 10032, Note_on_c, 0, 74, 73
1, 10032, Note_on_c, 1, 69, 66
1, 10032, Note_on_c, 1, 65, 66
1, 10044, Note_on_c, 0, 74, 0
1, 10044, Note_on_c, 0, 72, 72
1, 10056, Note_on_c, 0, 72, 0
1, 10056, Note_on_c, 0, 70, 72
1, 10068, Note_on_c, 0, 70, 0
1, 10068, Note_on_c, 0, 72, 72
1, 10077, Note_on_c, 1, 69, 0
1, 10077, Note_on_c, 1, 65, 0
1, 10080, Note_on_c, 0, 72, 0
1, 10080, Note_on_c, 0, 70, 72
1, 10080, Note_on_c, 1, 67, 72
1, 10080, Note_on_c, 1, 67, 64
1, 10125, Note_on_c, 0, 70, 0
1, 10128, Note_on_c, 0, 82, 72
1, 10173, Note_on_c, 0, 82, 0
1, 10176, Note_on_c, 0, 81, 72
1, 10188, Note_on_c, 0, 81, 0
1, 10188, Note_on_c, 0, 82, 72
1, 10200, Note_on_c, 0, 82, 0
1, 10200, Note_on_c, 0, 81, 72
1, 10212, Note_on_c, 0, 81, 0
1, 10212, Note_on_c, 0, 82, 72
1, 10221, Note_on_c, 0, 82, 0
1, 10224, Note_on_c, 0, 79, 72
1, 10257, Note_on_c, 1, 67, 0
1, 10269, Note_on_c, 0, 79, 0
1, 10272, Note_on_c, 0, 77, 72
1, 10272, Note_on_c, 1, 70, 72
1, 10317, Note_on_c, 0, 77, 0
1, 10320, Note_on_c, 0, 76, 72
1, 10345, Note_on_c, 1, 67, 0
1, 10365, Note_on_c, 0, 76, 0
1, 10368, Tempo, 857142
1, 10368, Note_on_c, 0, 76, 72
1, 10368, Note_on_c, 1, 65, 64
1, 10545, Note_on_c, 1, 70, 0
1, 10560, Note_on_c, 1, 69, 72
1, 10583, Note_on_c, 0, 76, 0
1, 10584, Note_on_c, 0, 77, 72
1, 10607, Note_on_c, 0, 77, 0
1, 10608, Note_on_c, 0, 79, 72
1, 10631, Note_on_c, 0, 79, 0
1, 10632, Note_on_c, 0, 77, 72
1, 10655, Note_on_c, 0, 77, 0
1, 10656, Note_on_c, 0, 77, 72
1, 10811, Note_on_c, 0, 77, 0
1, 10811, Note_on_c, 1, 69, 0
1, 10811, Note_on_c, 1, 65, 0
1, 10848, Tempo, 571428
1, 10848, Note_on_c, 0, 76, 64
1, 10872, Note_on_c, 0, 76, 0
1, 10872, Note_on_c, 0, 77, 64
1, 10895, Note_on_c, 0, 77, 0
1, 10896, Note_on_c, 0, 79, 72
1, 10920, Note_on_c, 0, 79, 0
1, 10920, Note_on_c, 0, 77, 72
1, 10943, Note_on_c, 0, 77, 0
1, 10944, Note_on_c, 0, 74, 72
1, 10968, Note_on_c, 0, 74, 0
1, 10968, Note_on_c, 0, 75, 72
1, 10991, Note_on_c, 0, 75, 0
1, 10992, Note_on_c, 0, 77, 73
1, 11016, Note_on_c, 0, 77, 0
1, 11016, Note_on_c, 0, 75, 73
1, 11039, Note_on_c, 0, 75, 0
1, 11040, Note_on_c, 0, 72, 74
1, 11064, Note_on_c, 0, 72, 0
1, 11064, Note_on_c, 0, 74, 74
1, 11087, Note_on_c, 0, 74, 0
1, 11088, Note_on_c, 0, 75, 75
1, 11112, Note_on_c, 0, 75, 0
1, 11112, Note_on_c, 0, 74, 76
1, 11135, Note_on_c, 0, 74, 0
1, 11136, Note_on_c, 0, 71, 76
1, 11160, Note_on_c, 0, 71, 0
1, 11160, Note_on_c, 0, 72, 77
1, 11183, Note_on_c, 0, 72, 0
1, 11184, Note_on_c, 0, 74, 77
1, 11208, Note_on_c, 0, 74, 0
1, 11208, Note_on_c, 0, 72, 78
1, 11231, Note_on_c, 0, 72, 0
1, 11232, Note_on_c, 0, 72, 95
1, 11280, Note_on_c, 1, 63, 65
1, 11280, Note_on_c, 1, 57, 65
1, 11280, Note_on_c, 1, 53, 65
1, 11325, Note_on_c, 1, 63, 0
1, 11325, Note_on_c, 1, 57, 0
1, 11325, Note_on_c, 1, 53, 0
1, 11328, Note_on_c, 1, 63, 65
1, 11328, Note_on_c, 1, 57, 65
1, 11328, Note_on_c, 1, 53, 65
1, 11373, Note_on_c, 1, 63, 0
1, 11373, Note_on_c, 1, 57, 0
1, 11373, Note_on_c, 1, 53, 0
1, 11376, Note_on_c, 1, 63, 65
1, 11376, Note_on_c, 1, 57, 65
1, 11376, Note_on_c, 1, 53, 65
1, 11421, Note_on_c, 1, 63, 0
1, 11421, Note_on_c, 1, 57, 0
1, 11421, Note_on_c, 1, 53, 0
1, 11424, Note_on_c, 0, 72, 0
1, 11424, Note_on_c, 0, 72, 79
1, 11448, Note_on_c, 0, 72, 0
1, 11448, Note_on_c, 0, 74, 79
1, 11471, Note_on_c, 0, 74, 0
1, 11472, Note_on_c, 0, 75, 79
1, 11496, Note_on_c, 0, 75, 0
1, 11496, Note_on_c, 0, 74, 79
1, 11519, Note_on_c, 0, 74, 0
1, 11520, Note_on_c, 0, 74, 95
1, 11568, Note_on_c, 1, 62, 65
1, 11568, Note_on_c, 1, 58, 65
1, 11568, Note_on_c, 1, 53, 65
1, 11613, Note_on_c, 1, 62, 0
1, 11613, Note_on_c, 1, 58, 0
1, 11613, Note_on_c, 1, 53, 0
1, 11616, Note_on_c, 1, 62, 65
1, 11616, Note_on_c, 1, 58, 65
1, 11616, Note_on_c, 1, 53, 65
1, 11661, Note_on_c, 1, 62, 0
1, 11661, Note_on_c, 1, 58, 0
1, 11661, Note_on_c, 1, 53, 0
1, 11664, Note_on_c, 1, 62, 65
1, 11664, Note_on_c, 1, 58, 65
1, 11664, Note_on_c, 1, 53, 65
1, 11709, Note_on_c, 1, 62, 0
1, 11709, Note_on_c, 1, 58, 0
1, 11709, Note_on_c, 1, 53, 0
1, 11712, Note_on_c, 0, 74, 0
1, 11712, Note_on_c, 0, 74, 79
1, 11736, Note_on_c, 0, 74, 0
1, 11736, Note_on_c, 0, 75, 79
1, 11759, Note_on_c, 0, 75, 0
1, 11760, Note_on_c, 0, 77, 79
1, 11784, Note_on_c, 0, 77, 0
1, 11784, Note_on_c, 0, 75, 79
1, 11807, Note_on_c, 0, 75, 0
1, 11808, Note_on_c, 0, 75, 95
1, 11856, Note_on_c, 1, 60, 65
1, 11856, Note_on_c, 1, 57, 65
1, 11856, Note_on_c, 1, 53, 65
1, 11901, Note_on_c, 1, 60, 0
1, 11901, Note_on_c, 1, 57, 0
1, 11901, Note_on_c, 1, 53, 0
1, 11904, Note_on_c, 1, 60, 65
1, 11904, Note_on_c, 1, 57, 65
1, 11904, Note_on_c, 1, 53, 65
1, 11949, Note_on_c, 1, 60, 0
1, 11949, Note_on_c, 1, 57, 0
1, 11949, Note_on_c, 1, 53, 0
1, 11952, Note_on_c, 1, 60, 65
1, 11952, Note_on_c, 1, 57, 65
1, 11952, Note_on_c, 1, 53, 65
1, 11997, Note_on_c, 1, 60, 0
1, 11997, Note_on_c, 1, 57, 0
1, 11997, Note_on_c, 1, 53, 0
1, 12000, Note_on_c, 0, 75, 0
1, 12000, Note_on_c, 0, 65, 79
1, 12015, Note_on_c, 0, 65, 0
1, 12016, Note_on_c, 0, 69, 79
1, 12031, Note_on_c, 0, 69, 0
1, 12032, Note_on_c, 0, 72, 79
1, 12047, Note_on_c, 0, 72, 0
1, 12048, Note_on_c, 0, 75, 79
1, 12063, Note_on_c, 0, 75, 0
1, 12064, Note_on_c, 0, 77, 79
1, 12079, Note_on_c, 0, 77, 0
1, 12080, Note_on_c, 0, 81, 79
1, 12095, Note_on_c, 0, 81, 0
1, 12096, Note_on_c, 0, 82, 95
1, 12144, Note_on_c, 1, 53, 79
1, 12144, Note_on_c, 1, 50, 79
1, 12189, Note_on_c, 1, 53, 0
1, 12189, Note_on_c, 1, 50, 0
1, 12192, Note_on_c, 1, 58, 79
1, 12215, Note_on_c, 0, 82, 0
1, 12216, Note_on_c, 0, 81, 79
1, 12239, Note_on_c, 0, 81, 0
1, 12240, Note_on_c, 0, 79, 79
1, 12263, Note_on_c, 0, 79, 0
1, 12264, Note_on_c, 0, 77, 79
1, 12281, Note_on_c, 1, 58, 0
1, 12287, Note_on_c, 0, 77, 0
1, 12288, Note_on_c, 0, 75, 79
1, 12311, Note_on_c, 0, 75, 0
1, 12312, Note_on_c, 0, 74, 79
1, 12335, Note_on_c, 0, 74, 0
1, 12336, Note_on_c, 0, 72, 79
1, 12359, Note_on_c, 0, 72, 0
1, 12360, Note_on_c, 0, 70, 79
1, 12383, Note_on_c, 0, 70, 0
1, 12384, Note_on_c, 0, 71, 79
1, 12384, Note_on_c, 1, 51, 64
1, 12407, Note_on_c, 0, 71, 0
1, 12408, Note_on_c, 0, 72, 79
1, 12431, Note_on_c, 0, 72, 0
1, 12432, Note_on_c, 0, 75, 78
1, 12432, Note_on_c, 1, 63, 79
1, 12455, Note_on_c, 0, 75, 0
1, 12456, Note_on_c, 0, 72, 77
1, 12473, Note_on_c, 1, 51, 0
1, 12477, Note_on_c, 1, 63, 0
1, 12479, Note_on_c, 0, 72, 0
1, 12480, Note_on_c, 0, 70, 77
1, 12480, Note_on_c, 1, 62, 79
1, 12480, Note_on_c, 1, 53, 64
1, 12569, Note_on_c, 0, 70, 0
1, 12569, Note_on_c, 1, 62, 0
1, 12569, Note_on_c, 1, 53, 0
1, 12576, Note_on_c, 0, 70, 74
1, 12576, Note_on_c, 1, 60, 79
1, 12576, Note_on_c, 1, 53, 64
1, 12588, Note_on_c, 0, 70, 0
1, 12588, Note_on_c, 0, 69, 74
1, 12600, Note_on_c, 0, 69, 0
1, 12600, Note_on_c, 0, 70, 73
1, 12612, Note_on_c, 0, 70, 0
1, 12612, Note_on_c, 0, 69, 73
1, 12624, Note_on_c, 0, 69, 0
1, 12624, Note_on_c, 0, 70, 73
1, 12636, Note_on_c, 0, 70, 0
1, 12636, Note_on_c, 0, 69, 72
1, 12648, Note_on_c, 0, 69, 0
1, 12648, Note_on_c, 0, 67, 72
1, 12660, Note_on_c, 0, 67, 0
1, 12660, Note_on_c, 0, 69, 72
1, 12665, Note_on_c, 1, 60, 0
1, 12665, Note_on_c, 1, 53, 0
1, 12672, Note_on_c, 0, 69, 0
1, 12672, Note_on_c, 0, 70, 72
1, 12672, Note_on_c, 1, 58, 79
1, 12695, Note_on_c, 0, 70, 0
1, 12696, Note_on_c, 0, 70, 72
1, 12719, Note_on_c, 0, 70, 0
1, 12720, Note_on_c, 0, 70, 72
1, 12732, Note_on_c, 0, 70, 0
1, 12732, Note_on_c, 0, 72, 72
1, 12744, Note_on_c, 0, 72, 0
1, 12744, Note_on_c, 0, 70, 72
1, 12756, Note_on_c, 0, 70, 0
1, 12756, Note_on_c, 0, 72, 72
1, 12761, Note_on_c, 1, 58, 0
1, 12765, Note_on_c, 0, 72, 0
1, 12768, Note_on_c, 0, 75, 73
1, 12768, Note_on_c, 1, 67, 79
1, 12791, Note_on_c, 0, 75, 0
1, 12792, Note_on_c, 0, 70, 74
1, 12807, Note_on_c, 1, 67, 0
1, 12815, Note_on_c, 0, 70, 0
1, 12816, Note_on_c, 0, 70, 74
1, 12828, Note_on_c, 0, 70, 0
1, 12828, Note_on_c, 0, 72, 74
1, 12840, Note_on_c, 0, 72, 0
1, 12840, Note_on_c, 0, 70, 74
1, 12852, Note_on_c, 0, 70, 0
1, 12852, Note_on_c, 0, 72, 74
1, 12861, Note_on_c, 0, 72, 0
1, 12864, Note_on_c, 0, 74, 75
1, 12864, Note_on_c, 1, 65, 79
1, 12887, Note_on_c, 0, 74, 0
1, 12888, Note_on_c, 0, 70, 75
1, 12903, Note_on_c, 1, 65, 0
1, 12911, Note_on_c, 0, 70, 0
1, 12912, Note_on_c, 0, 70, 76
1, 12924, Note_on_c, 0, 70, 0
1, 12924, Note_on_c, 0, 72, 76
1, 12936, Note_on_c, 0, 72, 0
1, 12936, Note_on_c, 0, 70, 76
1, 12948, Note_on_c, 0, 70, 0
1, 12948, Note_on_c, 0, 72, 76
1, 12957, Note_on_c, 0, 72, 0
1, 12960, Note_on_c, 0, 79, 77
1, 12960, Note_on_c, 1, 63, 79
1, 12983, Note_on_c, 0, 79, 0
1, 12984, Note_on_c, 0, 70, 77
1, 12999, Note_on_c, 1, 63, 0
1, 13007, Note_on_c, 0, 70, 0
1, 13008, Note_on_c, 0, 70, 78
1, 13020, Note_on_c, 0, 70, 0
1, 13020, Note_on_c, 0, 72, 78
1, 13032, Note_on_c, 0, 72, 0
1, 13032, Note_on_c, 0, 70, 78
1, 13044, Note_on_c, 0, 70, 0
1, 13044, Note_on_c, 0, 72, 78
1, 13053, Note_on_c, 0, 72, 0
1, 13056, Note_on_c, 0, 82, 95
1, 13056, Note_on_c, 1, 62, 64
1, 13152, Note_on_c, 1, 74, 79
1, 13152, Note_on_c, 1, 70, 79
1, 13167, Note_on_c, 0, 82, 0
1, 13168, Note_on_c, 0, 81, 79
1, 13183, Note_on_c, 0, 81, 0
1, 13184, Note_on_c, 0, 79, 79
1, 13199, Note_on_c, 0, 79, 0
1, 13200, Note_on_c, 0, 77, 79
1, 13215, Note_on_c, 0, 77, 0
1, 13216, Note_on_c, 0, 75, 79
1, 13231, Note_on_c, 0, 75, 0
1, 13232, Note_on_c, 0, 74, 79
1, 13233, Note_on_c, 1, 62, 0
1, 13241, Note_on_c, 1, 74, 0
1, 13241, Note_on_c, 1, 70, 0
1, 13247, Note_on_c, 0, 74, 0
1, 13248, Note_on_c, 0, 72, 79
1, 13248, Note_on_c, 1, 67, 79
1, 13248, Note_on_c, 1, 63, 79
1, 13263, Note_on_c, 0, 72, 0
1, 13264, Note_on_c, 0, 79, 78
1, 13279, Note_on_c, 0, 79, 0
1, 13280, Note_on_c, 0, 77, 78
1, 13295, Note_on_c, 0, 77, 0
1, 13296, Note_on_c, 0, 75, 78
1, 13311, Note_on_c, 0, 75, 0
1, 13312, Note_on_c, 0, 74, 77
1, 13327, Note_on_c, 0, 74, 0
1, 13328, Note_on_c, 0, 72, 77
1, 13337, Note_on_c, 1, 67, 0
1, 13337, Note_on_c, 1, 63, 0
1, 13343, Note_on_c, 0, 72, 0
1, 13344, Note_on_c, 0, 70, 77
1, 13344, Note_on_c, 1, 65, 79
1, 13359, Note_on_c, 0, 70, 0
1, 13360, Note_on_c, 0, 77, 76
1, 13375, Note_on_c, 0, 77, 0
1, 13376, Note_on_c, 0, 75, 76
1, 13391, Note_on_c, 0, 75, 0
1, 13392, Note_on_c, 0, 74, 76
1, 13407, Note_on_c, 0, 74, 0
1, 13408, Note_on_c, 0, 72, 76
1, 13423, Note_on_c, 0, 72, 0
1, 13424, Note_on_c, 0, 70, 75
1, 13433, Note_on_c, 1, 65, 0
1, 13439, Note_on_c, 0, 70, 0
1, 13440, Note_on_c, 0, 69, 75
1, 13440, Note_on_c, 1, 53, 79
1, 13455, Note_on_c, 0, 69, 0
1, 13456, Note_on_c, 0, 67, 75
1, 13471, Note_on_c, 0, 67, 0
1, 13472, Note_on_c, 0, 65, 74
1, 13487, Note_on_c, 0, 65, 0
1, 13488, Note_on_c, 0, 63, 74
1, 13503, Note_on_c, 0, 63, 0
1, 13504, Note_on_c, 0, 62, 74
1, 13519, Note_on_c, 0, 62, 0
1, 13520, Note_on_c, 0, 60, 74
1, 13529, Note_on_c, 1, 53, 0
1, 13535, Note_on_c, 0, 60, 0
1, 13536, Note_on_c, 0, 58, 72
1, 13536, Note_on_c, 1, 34, 79
1, 13559, Note_on_c, 0, 58, 0
1, 13560, Note_on_c, 0, 70, 72
1, 13583, Note_on_c, 0, 70, 0
1, 13584, Note_on_c, 0, 70, 72
1, 13596, Note_on_c, 0, 70, 0
1, 13596, Note_on_c, 0, 72, 72
1, 13608, Note_on_c, 0, 72, 0
1, 13608, Note_on_c, 0, 70, 72
1, 13620, Note_on_c, 0, 70, 0
1, 13620, Note_on_c, 0, 72, 72
1, 13625, Note_on_c, 1, 34, 0
1, 13629, Note_on_c, 0, 72, 0
1, 13632, Note_on_c, 0, 75, 73
1, 13632, Note_on_c, 1, 67, 79
1, 13655, Note_on_c, 0, 75, 0
1, 13656, Note_on_c, 0, 70, 74
1, 13671, Note_on_c, 1, 67, 0
1, 13679, Note_on_c, 0, 70, 0
1, 13680, Note_on_c, 0, 70, 74
1, 13692, Note_on_c, 0, 70, 0
1, 13692, Note_on_c, 0, 72, 74
1, 13704, Note_on_c, 0, 72, 0
1, 13704, Note_on_c, 0, 70, 74
1, 13716, Note_on_c, 0, 70, 0
1, 13716, Note_on_c, 0, 72, 74
1, 13725, Note_on_c, 0, 72, 0
1, 13728, Note_on_c, 0, 74, 75
1, 13728, Note_on_c, 1, 65, 79
1, 13751, Note_on_c, 0, 74, 0
1, 13752, Note_on_c, 0, 70, 75
1, 13767, Note_on_c, 1, 65, 0
1, 13775, Note_on_c, 0, 70, 0
1, 13776, Note_on_c, 0, 70, 76
1, 13788, Note_on_c, 0, 70, 0
1, 13788, Note_on_c, 0, 72, 76
1, 13800, Note_on_c, 0, 72, 0
1, 13800, Note_on_c, 0, 70, 76
1, 13812, Note_on_c, 0, 70, 0
1, 13812, Note_on_c, 0, 72, 76
1, 13821, Note_on_c, 0, 72, 0
1, 13824, Note_on_c, 0, 79, 77
1, 13824, Note_on_c, 1, 63, 79
1, 13847, Note_on_c, 0, 79, 0
1, 13848, Note_on_c, 0, 70, 77
1, 13863, Note_on_c, 1, 63, 0
1, 13871, Note_on_c, 0, 70, 0
1, 13872, Note_on_c, 0, 70, 78
1, 13884, Note_on_c, 0, 70, 0
1, 13884, Note_on_c, 0, 72, 78
1, 13896, Note_on_c, 0, 72, 0
1, 13896, Note_on_c, 0, 70, 78
1, 13908, Note_on_c, 0, 70, 0
1, 13908, Note_on_c, 0, 72, 78
1, 13917, Note_on_c, 0, 72, 0
1, 13920, Note_on_c, 0, 82, 95
1, 13920, Note_on_c, 1, 62, 64
1, 14016, Note_on_c, 1, 74, 79
1, 14016, Note_on_c, 1, 70, 79
1, 14031, Note_on_c, 0, 82, 0
1, 14032, Note_on_c, 0, 81, 79
1, 14047, Note_on_c, 0, 81, 0
1, 14048, Note_on_c, 0, 79, 79
1, 14063, Note_on_c, 0, 79, 0
1, 14064, Note_on_c, 0, 77, 79
1, 14079, Note_on_c, 0, 77, 0
1, 14080, Note_on_c, 0, 75, 79
1, 14095, Note_on_c, 0, 75, 0
1, 14096, Note_on_c, 0, 74, 79
1, 14097, Note_on_c, 1, 62, 0
1, 14105, Note_on_c, 1, 74, 0
1, 14105, Note_on_c, 1, 70, 0
1, 14111, Note_on_c, 0, 74, 0
1, 14112, Note_on_c, 0, 72, 79
1, 14112, Note_on_c, 1, 67, 79
1, 14112, Note_on_c, 1, 63, 79
1, 14127, Note_on_c, 0, 72, 0
1, 14128, Note_on_c, 0, 79, 78
1, 14143, Note_on_c, 0, 79, 0
1, 14144, Note_on_c, 0, 77, 78
1, 14159, Note_on_c, 0, 77, 0
1, 14160, Note_on_c, 0, 75, 78
1, 14175, Note_on_c, 0, 75, 0
1, 14176, Note_on_c, 0, 74, 77
1, 14191, Note_on_c, 0, 74, 0
1, 14192, Note_on_c, 0, 72, 77
1, 14201, Note_on_c, 1, 67, 0
1, 14201, Note_on_c, 1, 63, 0
1, 14207, Note_on_c, 0, 72, 0
1, 14208, Note_on_c, 0, 70, 77
1, 14208, Note_on_c, 1, 65, 79
1, 14223, Note_on_c, 0, 70, 0
1, 14224, Note_on_c, 0, 77, 76
1, 14239, Note_on_c, 0, 77, 0
1, 14240, Note_on_c, 0, 75, 76
1, 14255, Note_on_c, 0, 75, 0
1, 14256, Note_on_c, 0, 74, 76
1, 14271, Note_on_c, 0, 74, 0
1, 14272, Note_on_c, 0, 72, 76
1, 14287, Note_on_c, 0, 72, 0
1, 14288, Note_on_c, 0, 70, 75
1, 14297, Note_on_c, 1, 65, 0
1, 14303, Note_on_c, 0, 70, 0
1, 14304, Note_on_c, 0, 69, 75
1, 14304, Note_on_c, 1, 53, 79
1, 14319, Note_on_c, 0, 69, 0
1, 14320, Note_on_c, 0, 67, 75
1, 14335, Note_on_c, 0, 67, 0
1, 14336, Note_on_c, 0, 65, 74
1, 14351, Note_on_c, 0, 65, 0
1, 14352, Note_on_c, 0, 63, 74
1, 14367, Note_on_c, 0, 63, 0
1, 14368, Note_on_c, 0, 62, 74
1, 14383, Note_on_c, 0, 62, 0
1, 14384, Note_on_c, 0, 60, 74
1, 14393, Note_on_c, 1, 53, 0
1, 14399, Note_on_c, 0, 60, 0
1, 14400, Note_on_c, 0, 58, 72
1, 14448, Note_on_c, 1, 34, 79
1, 14493, Note_on_c, 1, 34, 0
1, 14496, Note_on_c, 1, 46, 79
1, 14533, Note_on_c, 0, 58, 0
1, 14544, Note_on_c, 0, 57, 72
1, 14585, Note_on_c, 1, 46, 0
1, 14589, Note_on_c, 0, 57, 0
1, 14592, Note_on_c, 0, 63, 72
1, 14592, Note_on_c, 0, 60, 72
1, 14637, Note_on_c, 0, 63, 0
1, 14637, Note_on_c, 0, 60, 0
1, 14640, Note_on_c, 0, 60, 72
1, 14640, Note_on_c, 0, 57, 72
1, 14685, Note_on_c, 0, 60, 0
1, 14685, Note_on_c, 0, 57, 0
1, 14688, Note_on_c, 0, 62, 72
1, 14688, Note_on_c, 0, 58, 72
1, 14736, Note_on_c, 1, 34, 79
1, 14781, Note_on_c, 1, 34, 0
1, 14784, Note_on_c, 1, 46, 79
1, 14821, Note_on_c, 0, 62, 0
1, 14821, Note_on_c, 0, 58, 0
1, 14832, Note_on_c, 0, 60, 72
1, 14832, Note_on_c, 0, 57, 72
1, 14873, Note_on_c, 1, 46, 0
1, 14877, Note_on_c, 0, 60, 0
1, 14877, Note_on_c, 0, 57, 0
1, 14880, Note_on_c, 0, 67, 72
1, 14880, Note_on_c, 0, 63, 72
1, 14925, Note_on_c, 0, 67, 0
1, 14925, Note_on_c, 0, 63, 0
1, 14928, Note_on_c, 0, 63, 72
1, 14928, Note_on_c, 0, 60, 72
1, 14973, Note_on_c, 0, 63, 0
1, 14973, Note_on_c, 0, 60, 0
1, 14976, Note_on_c, 0, 65, 72
1, 14976, Note_on_c, 0, 62, 72
1, 15024, Note_on_c, 1, 34, 79
1, 15069, Note_on_c, 1, 34, 0
1, 15072, Note_on_c, 1, 46, 79
1, 15109, Note_on_c, 0, 65, 0
1, 15109, Note_on_c, 0, 62, 0
1, 15120, Note_on_c, 0, 70, 72
1, 15132, Note_on_c, 0, 70, 0
1, 15132, Note_on_c, 0, 67, 72
1, 15161, Note_on_c, 1, 46, 0
1, 15166, Note_on_c, 0, 67, 0
1, 15168, Note_on_c, 0, 69, 72
1, 15180, Note_on_c, 0, 69, 0
1, 15180, Note_on_c, 0, 65, 72
1, 15214, Note_on_c, 0, 65, 0
1, 15216, Note_on_c, 0, 67, 72
1, 15228, Note_on_c, 0, 67, 0
1, 15228, Note_on_c, 0, 63, 72
1, 15262, Note_on_c, 0, 63, 0
1, 15264, Note_on_c, 0, 65, 72
1, 15264, Note_on_c, 0, 62, 72
1, 15312, Note_on_c, 1, 34, 79
1, 15357, Note_on_c, 1, 34, 0
1, 15360, Note_on_c, 1, 46, 79
1, 15397, Note_on_c, 0, 65, 0
1, 15397, Note_on_c, 0, 62, 0
1, 15408, Note_on_c, 0, 70, 72
1, 15420, Note_on_c, 0, 70, 0
1, 15420, Note_on_c, 0, 67, 72
1, 15449, Note_on_c, 1, 46, 0
1, 15454, Note_on_c, 0, 67, 0
1, 15456, Note_on_c, 0, 69, 72
1, 15468, Note_on_c, 0, 69, 0
1, 15468, Note_on_c, 0, 65, 72
1, 15502, Note_on_c, 0, 65, 0
1, 15504, Note_on_c, 0, 67, 72
1, 15516, Note_on_c, 0, 67, 0
1, 15516, Note_on_c, 0, 63, 72
1, 15550, Note_on_c, 0, 63, 0
1, 15552, Note_on_c, 0, 65, 72
1, 15552, Note_on_c, 0, 62, 72
1, 15600, Note_on_c, 1, 34, 79
1, 15645, Note_on_c, 1, 34, 0
1, 15648, Note_on_c, 1, 46, 80
1, 15668, Note_on_c, 1, 46, 0
1, 15685, Note_on_c, 0, 65, 0
1, 15685, Note_on_c, 0, 62, 0
1, 15696, Note_on_c, 0, 65, 74
1, 15696, Note_on_c, 1, 62, 81
1, 15702, Note_on_c, 0, 65, 0
1, 15702, Note_on_c, 0, 77, 74
1, 15716, Note_on_c, 0, 77, 0
1, 15716, Note_on_c, 1, 62, 0
1, 15744, Note_on_c, 0, 67, 75
1, 15744, Note_on_c, 1, 63, 81
1, 15750, Note_on_c, 0, 67, 0
1, 15750, Note_on_c, 0, 79, 75
1, 15764, Note_on_c, 0, 79, 0
1, 15764, Note_on_c, 1, 63, 0
1, 15792, Note_on_c, 0, 69, 75
1, 15792, Note_on_c, 1, 60, 82
1, 15798, Note_on_c, 0, 69, 0
1, 15798, Note_on_c, 0, 81, 75
1, 15812, Note_on_c, 0, 81, 0
1, 15812, Note_on_c, 1, 60, 0
1, 15840, Note_on_c, 0, 70, 76
1, 15840, Note_on_c, 1, 62, 83
1, 15846, Note_on_c, 0, 70, 0
1, 15846, Note_on_c, 0, 82, 76
1, 15860, Note_on_c, 0, 82, 0
1, 15860, Note_on_c, 1, 62, 0
1, 15888, Note_on_c, 0, 72, 77
1, 15888, Note_on_c, 1, 57, 83
1, 15894, Note_on_c, 0, 72, 0
1, 15894, Note_on_c, 0, 84, 77
1, 15908, Note_on_c, 0, 84, 0
1, 15908, Note_on_c, 1, 57, 0
1, 15936, Note_on_c, 0, 74, 78
1, 15936, Note_on_c, 1, 58, 84
1, 15942, Note_on_c, 0, 74, 0
1, 15942, Note_on_c, 0, 86, 78
1, 15956, Note_on_c, 0, 86, 0
1, 15956, Note_on_c, 1, 58, 0
1, 16128, Note_on_c, 1, 39, 72
1, 16176, Note_on_c, 0, 55, 72
1, 16217, Note_on_c, 1, 39, 0
1, 16221, Note_on_c, 0, 55, 0
1, 16224, Note_on_c, 0, 63, 72
1, 16269, Note_on_c, 0, 63, 0
1, 16272, Note_on_c, 0, 67, 72
1, 16317, Note_on_c, 0, 67, 0
1, 16320, Note_on_c, 0, 60, 72
1, 16320, Note_on_c, 1, 51, 72
1, 16320, Note_on_c, 1, 41, 72
1, 16387, Note_on_c, 0, 60, 0
1, 16392, Note_on_c, 0, 57, 70
1, 16415, Note_on_c, 0, 57, 0
1, 16416, Note_on_c, 0, 57, 69
1, 16416, Note_on_c, 1, 41, 0
1, 16416, Note_on_c, 1, 46, 64
1, 16505, Note_on_c, 1, 51, 0
1, 16512, Note_on_c, 0, 57, 0
1, 16512, Note_on_c, 0, 58, 67
1, 16512, Note_on_c, 1, 50, 67
1, 16593, Note_on_c, 1, 46, 0
1, 16601, Note_on_c, 0, 58, 0
1, 16601, Note_on_c, 1, 50, 0
1, 16704, Note_on_c, 0, 70, 79
1, 16752, Note_on_c, 1, 39, 79
1, 16797, Note_on_c, 1, 39, 0
1, 16800, Note_on_c, 1, 43, 79
1, 16823, Note_on_c, 0, 70, 0
1, 16824, Note_on_c, 0, 67, 79
1, 16845, Note_on_c, 1, 43, 0
1, 16847, Note_on_c, 0, 67, 0
1, 16848, Note_on_c, 0, 68, 79
1, 16848, Note_on_c, 1, 46, 79
1, 16871, Note_on_c, 0, 68, 0
1, 16872, Note_on_c, 0, 65, 79
1, 16893, Note_on_c, 1, 46, 0
1, 16895, Note_on_c, 0, 65, 0
1, 16896, Note_on_c, 0, 67, 79
1, 16896, Note_on_c, 1, 51, 79
1, 16919, Note_on_c, 0, 67, 0
1, 16920, Note_on_c, 0, 63, 79
1, 16941, Note_on_c, 1, 51, 0
1, 16943, Note_on_c, 0, 63, 0
1, 16944, Note_on_c, 0, 65, 79
1, 16944, Note_on_c, 1, 56, 79
1, 16967, Note_on_c, 0, 65, 0
1, 16968, Note_on_c, 0, 62, 79
1, 16989, Note_on_c, 1, 56, 0
1, 16991, Note_on_c, 0, 62, 0
1, 16992, Note_on_c, 0, 63, 79
1, 16992, Note_on_c, 1, 55, 79
1, 17012, Note_on_c, 0, 63, 0
1, 17040, Note_on_c, 0, 58, 81
1, 17060, Note_on_c, 0, 58, 0
1, 17081, Note_on_c, 1, 55, 0
1, 17088, Note_on_c, 0, 55, 83
1, 17108, Note_on_c, 0, 55, 0
1, 17136, Note_on_c, 0, 58, 85
1, 17156, Note_on_c, 0, 58, 0
1, 17184, Note_on_c, 0, 63, 83
1, 17204, Note_on_c, 0, 63, 0
1, 17232, Note_on_c, 0, 67, 81
1, 17252, Note_on_c, 0, 67, 0
1, 17280, Note_on_c, 0, 70, 79
1, 17328, Note_on_c, 1, 39, 79
1, 17373, Note_on_c, 1, 39, 0
1, 17376, Note_on_c, 1, 43, 79
1, 17399, Note_on_c, 0, 70, 0
1, 17400, Note_on_c, 0, 67, 79
1, 17421, Note_on_c, 1, 43, 0
1, 17423, Note_on_c, 0, 67, 0
1, 17424, Note_on_c, 0, 68, 79
1, 17424, Note_on_c, 1, 46, 79
1, 17447, Note_on_c, 0, 68, 0
1, 17448, Note_on_c, 0, 65, 79
1, 17469, Note_on_c, 1, 46, 0
1, 17471, Note_on_c, 0, 65, 0
1, 17472, Note_on_c, 0, 67, 79
1, 17472, Note_on_c, 1, 51, 79
1, 17495, Note_on_c, 0, 67, 0
1, 17496, Note_on_c, 0, 63, 79
1, 17517, Note_on_c, 1, 51, 0
1, 17519, Note_on_c, 0, 63, 0
1, 17520, Note_on_c, 0, 65, 79
1, 17520, Note_on_c, 1, 56, 79
1, 17543, Note_on_c, 0, 65, 0
1, 17544, Note_on_c, 0, 62, 79
1, 17565, Note_on_c, 1, 56, 0
1, 17567, Note_on_c, 0, 62, 0
1, 17568, Note_on_c, 0, 63, 79
1, 17568, Note_on_c, 1, 55, 79
1, 17613, Note_on_c, 0, 63, 0
1, 17616, Note_on_c, 0, 75, 79
1, 17616, Note_on_c, 0, 67, 79
1, 17636, Note_on_c, 0, 75, 0
1, 17636, Note_on_c, 0, 67, 0
1, 17657, Note_on_c, 1, 55, 0
1, 17664, Note_on_c, 0, 75, 79
1, 17664, Note_on_c, 0, 67, 79
1, 17684, Note_on_c, 0, 75, 0
1, 17684, Note_on_c, 0, 67, 0
1, 17712, Note_on_c, 0, 75, 79
1, 17712, Note_on_c, 0, 67, 79
1, 17732, Note_on_c, 0, 75, 0
1, 17732, Note_on_c, 0, 67, 0
1, 17760, Note_on_c, 0, 75, 79
1, 17760, Note_on_c, 0, 67, 79
1, 17780, Note_on_c, 0, 75, 0
1, 17780, Note_on_c, 0, 67, 0
1, 17808, Note_on_c, 0, 75, 79
1, 17808, Note_on_c, 0, 67, 79
1, 17828, Note_on_c, 0, 75, 0
1, 17828, Note_on_c, 0, 67, 0
1, 17856, Note_on_c, 0, 75, 95
1, 17856, Note_on_c, 0, 65, 64
1, 17904, Note_on_c, 1, 70, 79
1, 17904, Note_on_c, 1, 68, 79
1, 17924, Note_on_c, 1, 70, 0
1, 17924, Note_on_c, 1, 68, 0
1, 17952, Note_on_c, 1, 70, 79
1, 17952, Note_on_c, 1, 68, 79
1, 17972, Note_on_c, 1, 70, 0
1, 17972, Note_on_c, 1, 68, 0
1, 18000, Note_on_c, 1, 70, 79
1, 18000, Note_on_c, 1, 68, 79
1, 18020, Note_on_c, 1, 70, 0
1, 18020, Note_on_c, 1, 68, 0
1, 18048, Note_on_c, 0, 75, 0
1, 18048, Note_on_c, 0, 74, 79
1, 18048, Note_on_c, 1, 70, 79
1, 18048, Note_on_c, 1, 68, 79
1, 18068, Note_on_c, 1, 70, 0
1, 18068, Note_on_c, 1, 68, 0
1, 18096, Note_on_c, 1, 70, 79
1, 18096, Note_on_c, 1, 68, 79
1, 18116, Note_on_c, 1, 70, 0
1, 18116, Note_on_c, 1, 68, 0
1, 18121, Note_on_c, 0, 65, 0
1, 18137, Note_on_c, 0, 74, 0
1, 18144, Note_on_c, 1, 70, 79
1, 18144, Note_on_c, 1, 68, 64
1, 18192, Note_on_c, 0, 82, 79
1, 18192, Note_on_c, 0, 73, 79
1, 18212, Note_on_c, 0, 82, 0
1, 18212, Note_on_c, 0, 73, 0
1, 18240, Note_on_c, 0, 82, 79
1, 18240, Note_on_c, 0, 73, 79
1, 18260, Note_on_c, 0, 82, 0
1, 18260, Note_on_c, 0, 73, 0
1, 18288, Note_on_c, 0, 82, 79
1, 18288, Note_on_c, 0, 73, 79
1, 18308, Note_on_c, 0, 82, 0
1, 18308, Note_on_c, 0, 73, 0
1, 18336, Note_on_c, 0, 82, 79
1, 18336, Note_on_c, 0, 73, 79
1, 18336, Note_on_c, 1, 68, 0
1, 18336, Note_on_c, 1, 67, 64
1, 18356, Note_on_c, 0, 82, 0
1, 18356, Note_on_c, 0, 73, 0
1, 18384, Note_on_c, 0, 82, 79
1, 18384, Note_on_c, 0, 73, 79
1, 18404, Note_on_c, 0, 82, 0
1, 18404, Note_on_c, 0, 73, 0
1, 18409, Note_on_c, 1, 70, 0
1, 18425, Note_on_c, 1, 67, 0
1, 18432, Note_on_c, 0, 82, 79
1, 18432, Note_on_c, 0, 73, 79
1, 18480, Note_on_c, 1, 56, 79
1, 18500, Note_on_c, 1, 56, 0
1, 18528, Note_on_c, 0, 82, 0
1, 18528, Note_on_c, 0, 73, 0
1, 18528, Note_on_c, 0, 80, 79
1, 18528, Note_on_c, 0, 72, 79
1, 18528, Note_on_c, 1, 56, 79
1, 18548, Note_on_c, 1, 56, 0
1, 18573, Note_on_c, 0, 80, 0
1, 18573, Note_on_c, 0, 72, 0
1, 18576, Note_on_c, 0, 70, 79
1, 18576, Note_on_c, 1, 56, 79
1, 18588, Note_on_c, 0, 70, 0
1, 18588, Note_on_c, 0, 79, 95
1, 18596, Note_on_c, 1, 56, 0
1, 18624, Note_on_c, 0, 79, 0
1, 18624, Note_on_c, 0, 68, 79
1, 18624, Note_on_c, 1, 58, 79
1, 18636, Note_on_c, 0, 68, 0
1, 18636, Note_on_c, 0, 77, 95
1, 18644, Note_on_c, 1, 58, 0
1, 18672, Note_on_c, 0, 77, 0
1, 18672, Note_on_c, 0, 65, 79
1, 18672, Note_on_c, 1, 58, 79
1, 18684, Note_on_c, 0, 65, 0
1, 18684, Note_on_c, 0, 74, 95
1, 18692, Note_on_c, 1, 58, 0
1, 18720, Note_on_c, 0, 74, 0
1, 18720, Note_on_c, 0, 67, 79
1, 18720, Note_on_c, 1, 51, 79
1, 18732, Note_on_c, 0, 67, 0
1, 18732, Note_on_c, 0, 75, 95
1, 18768, Note_on_c, 0, 75, 0
1, 18809, Note_on_c, 1, 51, 0
1, 18816, Note_on_c, 1, 39, 79
1, 18905, Note_on_c, 1, 39, 0
1, 19008, Note_on_c, 0, 70, 79
1, 19056, Note_on_c, 1, 39, 79
1, 19101, Note_on_c, 1, 39, 0
1, 19104, Note_on_c, 1, 43, 79
1, 19127, Note_on_c, 0, 70, 0
1, 19128, Note_on_c, 0, 67, 79
1, 19149, Note_on_c, 1, 43, 0
1, 19151, Note_on_c, 0, 67, 0
1, 19152, Note_on_c, 0, 68, 79
1, 19152, Note_on_c, 1, 46, 79
1, 19175, Note_on_c, 0, 68, 0
1, 19176, Note_on_c, 0, 65, 79
1, 19197, Note_on_c, 1, 46, 0
1, 19199, Note_on_c, 0, 65, 0
1, 19200, Note_on_c, 0, 67, 79
1, 19200, Note_on_c, 1, 51, 79
1, 19223, Note_on_c, 0, 67, 0
1, 19224, Note_on_c, 0, 63, 79
1, 19245, Note_on_c, 1, 51, 0
1, 19247, Note_on_c, 0, 63, 0
1, 19248, Note_on_c, 0, 65, 79
1, 19248, Note_on_c, 1, 56, 79
1, 19271, Note_on_c, 0, 65, 0
1, 19272, Note_on_c, 0, 62, 79
1, 19293, Note_on_c, 1, 56, 0
1, 19295, Note_on_c, 0, 62, 0
1, 19296, Note_on_c, 0, 63, 79
1, 19296, Note_on_c, 1, 55, 79
1, 19316, Note_on_c, 0, 63, 0
1, 19344, Note_on_c, 0, 67, 79
1, 19364, Note_on_c, 0, 67, 0
1, 19385, Note_on_c, 1, 55, 0
1, 19392, Note_on_c, 0, 70, 79
1, 19412, Note_on_c, 0, 70, 0
1, 19440, Note_on_c, 0, 75, 79
1, 19460, Note_on_c, 0, 75, 0
1, 19488, Note_on_c, 0, 79, 79
1, 19511, Note_on_c, 0, 79, 0
1, 19512, Note_on_c, 0, 75, 79
1, 19535, Note_on_c, 0, 75, 0
1, 19536, Note_on_c, 0, 75, 79
1, 19548, Note_on_c, 0, 75, 0
1, 19548, Note_on_c, 0, 77, 79
1, 19560, Note_on_c, 0, 77, 0
1, 19560, Note_on_c, 0, 75, 79
1, 19572, Note_on_c, 0, 75, 0
1, 19572, Note_on_c, 0, 77, 79
1, 19581, Note_on_c, 0, 77, 0
1, 19584, Note_on_c, 0, 80, 79
1, 19584, Note_on_c, 1, 72, 79
1, 19607, Note_on_c, 0, 80, 0
1, 19608, Note_on_c, 0, 75, 79
1, 19631, Note_on_c, 0, 75, 0
1, 19632, Note_on_c, 0, 75, 79
1, 19644, Note_on_c, 0, 75, 0
1, 19644, Note_on_c, 0, 77, 79
1, 19656, Note_on_c, 0, 77, 0
1, 19656, Note_on_c, 0, 75, 79
1, 19668, Note_on_c, 0, 75, 0
1, 19668, Note_on_c, 0, 77, 79
1, 19673, Note_on_c, 1, 72, 0
1, 19677, Note_on_c, 0, 77, 0
1, 19680, Note_on_c, 0, 79, 79
1, 19680, Note_on_c, 1, 70, 79
1, 19703, Note_on_c, 0, 79, 0
1, 19704, Note_on_c, 0, 75, 79
1, 19727, Note_on_c, 0, 75, 0
1, 19728, Note_on_c, 0, 75, 79
1, 19740, Note_on_c, 0, 75, 0
1, 19740, Note_on_c, 0, 77, 79
1, 19752, Note_on_c, 0, 77, 0
1, 19752, Note_on_c, 0, 75, 79
1, 19764, Note_on_c, 0, 75, 0
1, 19764, Note_on_c, 0, 77, 79
1, 19769, Note_on_c, 1, 70, 0
1, 19773, Note_on_c, 0, 77, 0
1, 19776, Note_on_c, 0, 84, 79
1, 19776, Note_on_c, 1, 68, 79
1, 19799, Note_on_c, 0, 84, 0
1, 19800, Note_on_c, 0, 75, 79
1, 19823, Note_on_c, 0, 75, 0
1, 19824, Note_on_c, 0, 75, 79
1, 19836, Note_on_c, 0, 75, 0
1, 19836, Note_on_c, 0, 77, 79
1, 19848, Note_on_c, 0, 77, 0
1, 19848, Note_on_c, 0, 75, 79
1, 19860, Note_on_c, 0, 75, 0
1, 19860, Note_on_c, 0, 77, 79
1, 19865, Note_on_c, 1, 68, 0
1, 19869, Note_on_c, 0, 77, 0
1, 19872, Note_on_c, 0, 82, 79
1, 19872, Note_on_c, 1, 67, 64
1, 19968, Note_on_c, 1, 75, 79
1, 20005, Note_on_c, 0, 82, 0
1, 20016, Note_on_c, 0, 84, 79
1, 20039, Note_on_c, 0, 84, 0
1, 20040, Note_on_c, 0, 82, 79
1, 20049, Note_on_c, 1, 67, 0
1, 20057, Note_on_c, 1, 75, 0
1, 20063, Note_on_c, 0, 82, 0
1, 20064, Note_on_c, 0, 80, 79
1, 20087, Note_on_c, 0, 80, 0
1, 20088, Note_on_c, 0, 79, 79
1, 20111, Note_on_c, 0, 79, 0
1, 20112, Note_on_c, 0, 77, 79
1, 20135, Note_on_c, 0, 77, 0
1, 20136, Note_on_c, 0, 75, 79
1, 20159, Note_on_c, 0, 75, 0
1, 20160, Note_on_c, 0, 75, 79
1, 20208, Note_on_c, 1, 68, 79
1, 20208, Note_on_c, 1, 65, 79
1, 20228, Note_on_c, 1, 68, 0
1, 20228, Note_on_c, 1, 65, 0
1, 20256, Note_on_c, 0, 75, 0
1, 20256, Note_on_c, 0, 74, 79
1, 20256, Note_on_c, 1, 68, 79
1, 20256, Note_on_c, 1, 65, 79
1, 20301, Note_on_c, 0, 74, 0
1, 20303, Note_on_c, 1, 68, 0
1, 20303, Note_on_c, 1, 65, 0
1, 20304, Note_on_c, 0, 79, 79
1, 20327, Note_on_c, 0, 79, 0
1, 20328, Note_on_c, 0, 77, 79
1, 20351, Note_on_c, 0, 77, 0
1, 20352, Note_on_c, 0, 75, 79
1, 20375, Note_on_c, 0, 75, 0
1, 20376, Note_on_c, 0, 74, 79
1, 20399, Note_on_c, 0, 74, 0
1, 20400, Note_on_c, 0, 72, 79
1, 20423, Note_on_c, 0, 72, 0
1, 20424, Note_on_c, 0, 70, 79
1, 20447, Note_on_c, 0, 70, 0
1, 20448, Note_on_c, 0, 70, 79
1, 20496, Note_on_c, 1, 63, 79
1, 20496, Note_on_c, 1, 60, 79
1, 20516, Note_on_c, 1, 63, 0
1, 20516, Note_on_c, 1, 60, 0
1, 20544, Note_on_c, 0, 70, 0
1, 20544, Note_on_c, 0, 68, 79
1, 20544, Note_on_c, 1, 63, 79
1, 20544, Note_on_c, 1, 60, 79
1, 20589, Note_on_c, 0, 68, 0
1, 20591, Note_on_c, 1, 63, 0
1, 20591, Note_on_c, 1, 60, 0
1, 20592, Note_on_c, 0, 75, 79
1, 20615, Note_on_c, 0, 75, 0
1, 20616, Note_on_c, 0, 74, 79
1, 20639, Note_on_c, 0, 74, 0
1, 20640, Note_on_c, 0, 72, 79
1, 20663, Note_on_c, 0, 72, 0
1, 20664, Note_on_c, 0, 70, 79
1, 20687, Note_on_c, 0, 70, 0
1, 20688, Note_on_c, 0, 68, 79
1, 20711, Note_on_c, 0, 68, 0
1, 20712, Note_on_c, 0, 67, 79
1, 20735, Note_on_c, 0, 67, 0
1, 20736, Note_on_c, 0, 67, 79
1, 20784, Note_on_c, 1, 60, 79
1, 20784, Note_on_c, 1, 56, 79
1, 20804, Note_on_c, 1, 60, 0
1, 20804, Note_on_c, 1, 56, 0
1, 20832, Note_on_c, 0, 67, 0
1, 20832, Note_on_c, 0, 65, 79
1, 20832, Note_on_c, 1, 60, 79
1, 20832, Note_on_c, 1, 56, 79
1, 20877, Note_on_c, 0, 65, 0
1, 20879, Note_on_c, 1, 60, 0
1, 20879, Note_on_c, 1, 56, 0
1, 20880, Note_on_c, 0, 72, 79
1, 20903, Note_on_c, 0, 72, 0
1, 20904, Note_on_c, 0, 70, 79
1, 20927, Note_on_c, 0, 70, 0
1, 20928, Note_on_c, 0, 68, 79
1, 20951, Note_on_c, 0, 68, 0
1, 20952, Note_on_c, 0, 67, 79
1, 20975, Note_on_c, 0, 67, 0
1, 20976, Note_on_c, 0, 65, 79
1, 20999, Note_on_c, 0, 65, 0
1, 21000, Note_on_c, 0, 63, 79
1, 21023, Note_on_c, 0, 63, 0
1, 21024, Note_on_c, 0, 62, 79
1, 21024, Note_on_c, 1, 56, 79
1, 21024, Note_on_c, 1, 46, 79
1, 21091, Note_on_c, 0, 62, 0
1, 21096, Note_on_c, 0, 63, 73
1, 21108, Note_on_c, 0, 63, 0
1, 21108, Note_on_c, 0, 65, 72
1, 21120, Note_on_c, 0, 65, 0
1, 21120, Note_on_c, 0, 63, 72
1, 21120, Note_on_c, 1, 56, 0
1, 21120, Note_on_c, 1, 46, 0
1, 21120, Note_on_c, 1, 55, 72
1, 21120, Note_on_c, 1, 51, 72
1, 21159, Note_on_c, 0, 63, 0
1, 21209, Note_on_c, 1, 55, 0
1, 21209, Note_on_c, 1, 51, 0
1, 21312, Note_on_c, 0, 79, 72
1, 21360, Note_on_c, 1, 62, 65
1, 21360, Note_on_c, 1, 59, 65
1, 21408, Note_on_c, 1, 62, 0
1, 21408, Note_on_c, 1, 59, 0
1, 21408, Note_on_c, 1, 63, 65
1, 21408, Note_on_c, 1, 60, 65
1, 21431, Note_on_c, 0, 79, 0
1, 21432, Note_on_c, 0, 83, 71
1, 21455, Note_on_c, 0, 83, 0
1, 21456, Note_on_c, 0, 84, 71
1, 21479, Note_on_c, 0, 84, 0
1, 21480, Note_on_c, 0, 80, 70
1, 21497, Note_on_c, 1, 63, 0
1, 21497, Note_on_c, 1, 60, 0
1, 21503, Note_on_c, 0, 80, 0
1, 21504, Note_on_c, 0, 79, 70
1, 21527, Note_on_c, 0, 79, 0
1, 21528, Note_on_c, 0, 77, 70
1, 21551, Note_on_c, 0, 77, 0
1, 21552, Note_on_c, 0, 75, 69
1, 21575, Note_on_c, 0, 75, 0
1, 21576, Note_on_c, 0, 74, 69
1, 21599, Note_on_c, 0, 74, 0
1, 21600, Note_on_c, 0, 72, 69
1, 21623, Note_on_c, 0, 72, 0
1, 21624, Note_on_c, 0, 71, 68
1, 21647, Note_on_c, 0, 71, 0
1, 21648, Note_on_c, 0, 74, 68
1, 21671, Note_on_c, 0, 74, 0
1, 21672, Note_on_c, 0, 72, 68
1, 21695, Note_on_c, 0, 72, 0
1, 21696, Note_on_c, 0, 75, 67
1, 21719, Note_on_c, 0, 75, 0
1, 21720, Note_on_c, 0, 74, 67
1, 21743, Note_on_c, 0, 74, 0
1, 21744, Note_on_c, 0, 77, 67
1, 21767, Note_on_c, 0, 77, 0
1, 21768, Note_on_c, 0, 75, 66
1, 21791, Note_on_c, 0, 75, 0
1, 21792, Note_on_c, 0, 79, 66
1, 21812, Note_on_c, 0, 79, 0
1, 21888, Note_on_c, 0, 77, 79
1, 21936, Note_on_c, 1, 60, 72
1, 21936, Note_on_c, 1, 57, 72
1, 21984, Note_on_c, 1, 60, 0
1, 21984, Note_on_c, 1, 57, 0
1, 21984, Note_on_c, 1, 62, 72
1, 21984, Note_on_c, 1, 58, 72
1, 22007, Note_on_c, 0, 77, 0
1, 22008, Note_on_c, 0, 81, 78
1, 22031, Note_on_c, 0, 81, 0
1, 22032, Note_on_c, 0, 82, 78
1, 22055, Note_on_c, 0, 82, 0
1, 22056, Note_on_c, 0, 79, 77
1, 22073, Note_on_c, 1, 62, 0
1, 22073, Note_on_c, 1, 58, 0
1, 22079, Note_on_c, 0, 79, 0
1, 22080, Note_on_c, 0, 77, 77
1, 22103, Note_on_c, 0, 77, 0
1, 22104, Note_on_c, 0, 75, 77
1, 22127, Note_on_c, 0, 75, 0
1, 22128, Note_on_c, 0, 74, 76
1, 22151, Note_on_c, 0, 74, 0
1, 22152, Note_on_c, 0, 72, 76
1, 22175, Note_on_c, 0, 72, 0
1, 22176, Note_on_c, 0, 70, 76
1, 22199, Note_on_c, 0, 70, 0
1, 22200, Note_on_c, 0, 69, 75
1, 22223, Note_on_c, 0, 69, 0
1, 22224, Note_on_c, 0, 72, 75
1, 22247, Note_on_c, 0, 72, 0
1, 22248, Note_on_c, 0, 70, 75
1, 22271, Note_on_c, 0, 70, 0
1, 22272, Note_on_c, 0, 74, 74
1, 22295, Note_on_c, 0, 74, 0
1, 22296, Note_on_c, 0, 72, 74
1, 22319, Note_on_c, 0, 72, 0
1, 22320, Note_on_c, 0, 75, 74
1, 22343, Note_on_c, 0, 75, 0
1, 22344, Note_on_c, 0, 74, 73
1, 22367, Note_on_c, 0, 74, 0
1, 22368, Note_on_c, 0, 77, 73
1, 22388, Note_on_c, 0, 77, 0
1, 22416, Note_on_c, 1, 62, 72
1, 22416, Note_on_c, 1, 58, 72
1, 22464, Note_on_c, 0, 72, 79
1, 22464, Note_on_c, 1, 62, 0
1, 22464, Note_on_c, 1, 58, 0
1, 22464, Note_on_c, 1, 67, 72
1, 22464, Note_on_c, 1, 63, 72
1, 22487, Note_on_c, 0, 72, 0
1, 22488, Note_on_c, 0, 71, 79
1, 22511, Note_on_c, 0, 71, 0
1, 22512, Note_on_c, 0, 74, 79
1, 22535, Note_on_c, 0, 74, 0
1, 22536, Note_on_c, 0, 72, 79
1, 22553, Note_on_c, 1, 67, 0
1, 22553, Note_on_c, 1, 63, 0
1, 22559, Note_on_c, 0, 72, 0
1, 22560, Note_on_c, 0, 75, 79
1, 22583, Note_on_c, 0, 75, 0
1, 22584, Note_on_c, 0, 74, 79
1, 22607, Note_on_c, 0, 74, 0
1, 22608, Note_on_c, 0, 77, 79
1, 22631, Note_on_c, 0, 77, 0
1, 22632, Note_on_c, 0, 75, 79
1, 22655, Note_on_c, 0, 75, 0
1, 22656, Note_on_c, 0, 79, 79
1, 22676, Note_on_c, 0, 79, 0
1, 22704, Note_on_c, 1, 65, 72
1, 22704, Note_on_c, 1, 62, 72
1, 22752, Note_on_c, 0, 71, 79
1, 22752, Note_on_c, 1, 65, 0
1, 22752, Note_on_c, 1, 62, 0
1, 22752, Note_on_c, 1, 67, 72
1, 22752, Note_on_c, 1, 63, 72
1, 22775, Note_on_c, 0, 71, 0
1, 22776, Note_on_c, 0, 72, 79
1, 22799, Note_on_c, 0, 72, 0
1, 22800, Note_on_c, 0, 73, 80
1, 22823, Note_on_c, 0, 73, 0
1, 22824, Note_on_c, 0, 74, 80
1, 22841, Note_on_c, 1, 67, 0
1, 22841, Note_on_c, 1, 63, 0
1, 22847, Note_on_c, 0, 74, 0
1, 22848, Note_on_c, 0, 75, 81
1, 22871, Note_on_c, 0, 75, 0
1, 22872, Note_on_c, 0, 76, 81
1, 22895, Note_on_c, 0, 76, 0
1, 22896, Note_on_c, 0, 77, 82
1, 22919, Note_on_c, 0, 77, 0
1, 22920, Note_on_c, 0, 78, 82
1, 22943, Note_on_c, 0, 78, 0
1, 22944, Note_on_c, 0, 79, 83
1, 22989, Note_on_c, 0, 79, 0
1, 22992, Note_on_c, 0, 81, 84
1, 23002, Note_on_c, 0, 81, 0
1, 23002, Note_on_c, 0, 79, 84
1, 23012, Note_on_c, 0, 79, 0
1, 23012, Note_on_c, 0, 78, 84
1, 23022, Note_on_c, 0, 78, 0
1, 23022, Note_on_c, 0, 79, 84
1, 23031, Note_on_c, 0, 79, 0
1, 23031, Note_on_c, 0, 81, 84
1, 23040, Note_on_c, 0, 81, 0
1, 23040, Note_on_c, 0, 82, 79
1, 23040, Note_on_c, 1, 67, 72
1, 23040, Note_on_c, 1, 63, 72
1, 23060, Note_on_c, 0, 82, 0
1, 23112, Note_on_c, 0, 81, 77
1, 23129, Note_on_c, 1, 67, 0
1, 23129, Note_on_c, 1, 63, 0
1, 23136, Note_on_c, 0, 81, 0
1, 23136, Note_on_c, 0, 79, 77
1, 23156, Note_on_c, 0, 79, 0
1, 23208, Note_on_c, 0, 77, 75
1, 23232, Note_on_c, 0, 77, 0
1, 23232, Note_on_c, 0, 75, 75
1, 23252, Note_on_c, 0, 75, 0
1, 23304, Note_on_c, 0, 74, 74
1, 23304, Note_on_c, 1, 70, 72
1, 23304, Note_on_c, 1, 64, 72
1, 23327, Note_on_c, 0, 74, 0
1, 23327, Note_on_c, 1, 70, 0
1, 23327, Note_on_c, 1, 64, 0
1, 23328, Note_on_c, 0, 75, 73
1, 23328, Note_on_c, 1, 70, 72
1, 23328, Note_on_c, 1, 65, 64
1, 23340, Note_on_c, 0, 75, 0
1, 23340, Note_on_c, 0, 74, 73
1, 23352, Note_on_c, 0, 74, 0
1, 23352, Note_on_c, 0, 75, 73
1, 23364, Note_on_c, 0, 75, 0
1, 23364, Note_on_c, 0, 74, 73
1, 23376, Note_on_c, 0, 74, 0
1, 23376, Note_on_c, 0, 75, 72
1, 23388, Note_on_c, 0, 75, 0
1, 23388, Note_on_c, 0, 74, 72
1, 23400, Note_on_c, 0, 74, 0
1, 23400, Note_on_c, 0, 72, 72
1, 23412, Note_on_c, 0, 72, 0
1, 23412, Note_on_c, 0, 74, 72
1, 23417, Note_on_c, 1, 70, 0
1, 23424, Note_on_c, 0, 74, 0
1, 23424, Note_on_c, 0, 72, 72
1, 23424, Note_on_c, 1, 69, 72
1, 23505, Note_on_c, 1, 65, 0
1, 23513, Note_on_c, 0, 72, 0
1, 23513, Note_on_c, 1, 69, 0
1, 23616, Note_on_c, 0, 77, 72
1, 23616, Note_on_c, 0, 74, 64
1, 23664, Note_on_c, 1, 34, 72
1, 23709, Note_on_c, 1, 34, 0
1, 23712, Note_on_c, 1, 46, 72
1, 23749, Note_on_c, 0, 77, 0
1, 23749, Note_on_c, 0, 74, 0
1, 23760, Note_on_c, 0, 79, 72
1, 23760, Note_on_c, 0, 75, 64
1, 23783, Note_on_c, 0, 79, 0
1, 23783, Note_on_c, 0, 75, 0
1, 23784, Note_on_c, 0, 75, 72
1, 23784, Note_on_c, 0, 72, 64
1, 23801, Note_on_c, 1, 46, 0
1, 23807, Note_on_c, 0, 75, 0
1, 23807, Note_on_c, 0, 72, 0
1, 23808, Note_on_c, 0, 74, 72
1, 23808, Note_on_c, 0, 70, 64
1, 23853, Note_on_c, 0, 74, 0
1, 23853, Note_on_c, 0, 70, 0
1, 23856, Note_on_c, 0, 77, 72
1, 23856, Note_on_c, 0, 72, 64
1, 23868, Note_on_c, 0, 77, 0
1, 23868, Note_on_c, 0, 75, 72
1, 23880, Note_on_c, 0, 75, 0
1, 23880, Note_on_c, 0, 74, 72
1, 23892, Note_on_c, 0, 74, 0
1, 23892, Note_on_c, 0, 75, 72
1, 23901, Note_on_c, 0, 72, 0
1, 23904, Note_on_c, 0, 75, 0
1, 23904, Note_on_c, 0, 77, 72
1, 23904, Note_on_c, 0, 74, 64
1, 23904, Note_on_c, 1, 70, 72
1, 23949, Note_on_c, 0, 77, 0
1, 23949, Note_on_c, 0, 74, 0
1, 23949, Note_on_c, 1, 70, 0
1, 23952, Note_on_c, 0, 82, 72
1, 23997, Note_on_c, 0, 82, 0
1, 24000, Note_on_c, 1, 70, 72
1, 24045, Note_on_c, 1, 70, 0
1, 24048, Note_on_c, 0, 81, 72
1, 24048, Note_on_c, 0, 77, 64
1, 24093, Note_on_c, 0, 81, 0
1, 24093, Note_on_c, 0, 77, 0
1, 24096, Note_on_c, 1, 70, 72
1, 24141, Note_on_c, 1, 70, 0
1, 24144, Note_on_c, 0, 79, 72
1, 24144, Note_on_c, 0, 75, 64
1, 24189, Note_on_c, 0, 79, 0
1, 24189, Note_on_c, 0, 75, 0
1, 24192, Note_on_c, 0, 77, 72
1, 24192, Note_on_c, 0, 74, 64
1, 24240, Note_on_c, 1, 34, 72
1, 24285, Note_on_c, 1, 34, 0
1, 24288, Note_on_c, 1, 46, 72
1, 24325, Note_on_c, 0, 77, 0
1, 24325, Note_on_c, 0, 74, 0
1, 24336, Note_on_c, 0, 79, 72
1, 24336, Note_on_c, 0, 75, 64
1, 24359, Note_on_c, 0, 79, 0
1, 24359, Note_on_c, 0, 75, 0
1, 24360, Note_on_c, 0, 75, 72
1, 24360, Note_on_c, 0, 72, 64
1, 24377, Note_on_c, 1, 46, 0
1, 24383, Note_on_c, 0, 75, 0
1, 24383, Note_on_c, 0, 72, 0
1, 24384, Note_on_c, 0, 74, 72
1, 24384, Note_on_c, 0, 70, 64
1, 24429, Note_on_c, 0, 74, 0
1, 24429, Note_on_c, 0, 70, 0
1, 24432, Note_on_c, 0, 77, 72
1, 24432, Note_on_c, 0, 72, 64
1, 24444, Note_on_c, 0, 77, 0
1, 24444, Note_on_c, 0, 75, 72
1, 24456, Note_on_c, 0, 75, 0
1, 24456, Note_on_c, 0, 74, 72
1, 24468, Note_on_c, 0, 74, 0
1, 24468, Note_on_c, 0, 75, 72
1, 24477, Note_on_c, 0, 72, 0
1, 24480, Note_on_c, 0, 75, 0
1, 24480, Note_on_c, 0, 77, 72
1, 24480, Note_on_c, 0, 74, 64
1, 24480, Note_on_c, 1, 70, 72
1, 24525, Note_on_c, 0, 77, 0
1, 24525, Note_on_c, 0, 74, 0
1, 24525, Note_on_c, 1, 70, 0
1, 24528, Note_on_c, 0, 86, 72
1, 24528, Note_on_c, 0, 82, 64
1, 24573, Note_on_c, 0, 86, 0
1, 24573, Note_on_c, 0, 82, 0
1, 24576, Note_on_c, 1, 70, 72
1, 24621, Note_on_c, 1, 70, 0
1, 24624, Note_on_c, 0, 82, 72
1, 24624, Note_on_c, 0, 79, 64
1, 24669, Note_on_c, 0, 82, 0
1, 24669, Note_on_c, 0, 79, 0
1, 24672, Note_on_c, 1, 70, 72
1, 24717, Note_on_c, 1, 70, 0
1, 24720, Note_on_c, 0, 79, 72
1, 24720, Note_on_c, 0, 75, 64
1, 24765, Note_on_c, 0, 79, 0
1, 24765, Note_on_c, 0, 75, 0
1, 24768, Note_on_c, 0, 74, 72
1, 24786, Note_on_c, 0, 74, 0
1, 24786, Note_on_c, 0, 77, 88
1, 24816, Note_on_c, 1, 74, 65
1, 24816, Note_on_c, 1, 70, 65
1, 24861, Note_on_c, 1, 74, 0
1, 24861, Note_on_c, 1, 70, 0
1, 24864, Note_on_c, 1, 74, 65
1, 24864, Note_on_c, 1, 70, 65
1, 24909, Note_on_c, 1, 74, 0
1, 24909, Note_on_c, 1, 70, 0
1, 24912, Note_on_c, 1, 74, 65
1, 24912, Note_on_c, 1, 70, 65
1, 24957, Note_on_c, 1, 74, 0
1, 24957, Note_on_c, 1, 70, 0
1, 24960, Note_on_c, 0, 77, 0
1, 24960, Note_on_c, 0, 76, 72
1, 24960, Note_on_c, 1, 74, 65
1, 24960, Note_on_c, 1, 70, 65
1, 24983, Note_on_c, 0, 76, 0
1, 24984, Note_on_c, 0, 77, 72
1, 25005, Note_on_c, 1, 74, 0
1, 25005, Note_on_c, 1, 70, 0
1, 25007, Note_on_c, 0, 77, 0
1, 25008, Note_on_c, 0, 79, 72
1, 25008, Note_on_c, 1, 74, 65
1, 25008, Note_on_c, 1, 70, 65
1, 25031, Note_on_c, 0, 79, 0
1, 25032, Note_on_c, 0, 77, 72
1, 25053, Note_on_c, 1, 74, 0
1, 25053, Note_on_c, 1, 70, 0
1, 25055, Note_on_c, 0, 77, 0
1, 25056, Note_on_c, 0, 77, 88
1, 25104, Note_on_c, 1, 72, 65
1, 25104, Note_on_c, 1, 69, 65
1, 25149, Note_on_c, 1, 72, 0
1, 25149, Note_on_c, 1, 69, 0
1, 25152, Note_on_c, 1, 72, 65
1, 25152, Note_on_c, 1, 69, 65
1, 25197, Note_on_c, 1, 72, 0
1, 25197, Note_on_c, 1, 69, 0
1, 25200, Note_on_c, 1, 72, 65
1, 25200, Note_on_c, 1, 69, 65
1, 25245, Note_on_c, 1, 72, 0
1, 25245, Note_on_c, 1, 69, 0
1, 25248, Note_on_c, 0, 77, 0
1, 25248, Note_on_c, 0, 76, 72
1, 25248, Note_on_c, 1, 72, 65
1, 25248, Note_on_c, 1, 69, 65
1, 25271, Note_on_c, 0, 76, 0
1, 25272, Note_on_c, 0, 77, 72
1, 25293, Note_on_c, 1, 72, 0
1, 25293, Note_on_c, 1, 69, 0
1, 25295, Note_on_c, 0, 77, 0
1, 25296, Note_on_c, 0, 79, 72
1, 25296, Note_on_c, 1, 72, 65
1, 25296, Note_on_c, 1, 69, 65
1, 25319, Note_on_c, 0, 79, 0
1, 25320, Note_on_c, 0, 77, 72
1, 25341, Note_on_c, 1, 72, 0
1, 25341, Note_on_c, 1, 69, 0
1, 25343, Note_on_c, 0, 77, 0
1, 25344, Note_on_c, 0, 82, 88
1, 25392, Note_on_c, 1, 70, 65
1, 25392, Note_on_c, 1, 67, 65
1, 25437, Note_on_c, 1, 70, 0
1, 25437, Note_on_c, 1, 67, 0
1, 25440, Note_on_c, 1, 70, 65
1, 25440, Note_on_c, 1, 67, 65
1, 25485, Note_on_c, 1, 70, 0
1, 25485, Note_on_c, 1, 67, 0
1, 25488, Note_on_c, 1, 70, 65
1, 25488, Note_on_c, 1, 67, 65
1, 25533, Note_on_c, 1, 70, 0
1, 25533, Note_on_c, 1, 67, 0
1, 25536, Note_on_c, 0, 82, 0
1, 25536, Note_on_c, 0, 76, 72
1, 25536, Note_on_c, 1, 70, 65
1, 25536, Note_on_c, 1, 67, 65
1, 25559, Note_on_c, 0, 76, 0
1, 25560, Note_on_c, 0, 77, 72
1, 25581, Note_on_c, 1, 70, 0
1, 25581, Note_on_c, 1, 67, 0
1, 25583, Note_on_c, 0, 77, 0
1, 25584, Note_on_c, 0, 79, 72
1, 25584, Note_on_c, 1, 70, 65
1, 25584, Note_on_c, 1, 67, 65
1, 25607, Note_on_c, 0, 79, 0
1, 25608, Note_on_c, 0, 77, 72
1, 25629, Note_on_c, 1, 70, 0
1, 25629, Note_on_c, 1, 67, 0
1, 25631, Note_on_c, 0, 77, 0
1, 25632, Note_on_c, 0, 77, 88
1, 25680, Note_on_c, 1, 69, 65
1, 25680, Note_on_c, 1, 65, 65
1, 25725, Note_on_c, 1, 69, 0
1, 25725, Note_on_c, 1, 65, 0
1, 25728, Note_on_c, 1, 69, 65
1, 25728, Note_on_c, 1, 65, 65
1, 25773, Note_on_c, 1, 69, 0
1, 25773, Note_on_c, 1, 65, 0
1, 25776, Note_on_c, 1, 69, 66
1, 25776, Note_on_c, 1, 65, 66
1, 25821, Note_on_c, 1, 69, 0
1, 25821, Note_on_c, 1, 65, 0
1, 25824, Note_on_c, 0, 77, 0
1, 25824, Note_on_c, 0, 78, 72
1, 25824, Note_on_c, 1, 70, 66
1, 25824, Note_on_c, 1, 65, 66
1, 25847, Note_on_c, 0, 78, 0
1, 25848, Note_on_c, 0, 79, 72
1, 25869, Note_on_c, 1, 70, 0
1, 25869, Note_on_c, 1, 65, 0
1, 25871, Note_on_c, 0, 79, 0
1, 25872, Note_on_c, 0, 81, 72
1, 25872, Note_on_c, 1, 70, 67
1, 25872, Note_on_c, 1, 65, 67
1, 25895, Note_on_c, 0, 81, 0
1, 25896, Note_on_c, 0, 79, 73
1, 25917, Note_on_c, 1, 70, 0
1, 25917, Note_on_c, 1, 65, 0
1, 25919, Note_on_c, 0, 79, 0
1, 25920, Note_on_c, 0, 79, 89
1, 25968, Note_on_c, 1, 70, 68
1, 25968, Note_on_c, 1, 63, 68
1, 26013, Note_on_c, 1, 70, 0
1, 26013, Note_on_c, 1, 63, 0
1, 26016, Note_on_c, 1, 70, 69
1, 26016, Note_on_c, 1, 63, 69
1, 26061, Note_on_c, 1, 70, 0
1, 26061, Note_on_c, 1, 63, 0
1, 26064, Note_on_c, 1, 70, 70
1, 26064, Note_on_c, 1, 63, 70
1, 26109, Note_on_c, 1, 70, 0
1, 26109, Note_on_c, 1, 63, 0
1, 26112, Note_on_c, 0, 79, 0
1, 26112, Note_on_c, 0, 81, 77
1, 26112, Note_on_c, 1, 72, 70
1, 26112, Note_on_c, 1, 63, 70
1, 26135, Note_on_c, 0, 81, 0
1, 26136, Note_on_c, 0, 82, 77
1, 26157, Note_on_c, 1, 72, 0
1, 26157, Note_on_c, 1, 63, 0
1, 26159, Note_on_c, 0, 82, 0
1, 26160, Note_on_c, 0, 84, 78
1, 26160, Note_on_c, 1, 72, 71
1, 26160, Note_on_c, 1, 63, 71
1, 26183, Note_on_c, 0, 84, 0
1, 26184, Note_on_c, 0, 82, 78
1, 26205, Note_on_c, 1, 72, 0
1, 26205, Note_on_c, 1, 63, 0
1, 26207, Note_on_c, 0, 82, 0
1, 26208, Note_on_c, 0, 82, 95
1, 26256, Note_on_c, 1, 65, 72
1, 26256, Note_on_c, 1, 62, 72
1, 26301, Note_on_c, 1, 65, 0
1, 26301, Note_on_c, 1, 62, 0
1, 26304, Note_on_c, 1, 65, 72
1, 26304, Note_on_c, 1, 62, 72
1, 26349, Note_on_c, 0, 82, 0
1, 26349, Note_on_c, 1, 65, 0
1, 26349, Note_on_c, 1, 62, 0
1, 26352, Note_on_c, 0, 86, 79
1, 26352, Note_on_c, 1, 65, 72
1, 26352, Note_on_c, 1, 62, 72
1, 26375, Note_on_c, 0, 86, 0
1, 26376, Note_on_c, 0, 84, 79
1, 26397, Note_on_c, 1, 65, 0
1, 26397, Note_on_c, 1, 62, 0
1, 26399, Note_on_c, 0, 84, 0
1, 26400, Note_on_c, 0, 82, 79
1, 26400, Note_on_c, 1, 70, 72
1, 26400, Note_on_c, 1, 62, 72
1, 26423, Note_on_c, 0, 82, 0
1, 26424, Note_on_c, 0, 81, 79
1, 26445, Note_on_c, 1, 70, 0
1, 26445, Note_on_c, 1, 62, 0
1, 26447, Note_on_c, 0, 81, 0
1, 26448, Note_on_c, 0, 79, 79
1, 26448, Note_on_c, 1, 70, 72
1, 26448, Note_on_c, 1, 62, 72
1, 26471, Note_on_c, 0, 79, 0
1, 26472, Note_on_c, 0, 77, 79
1, 26493, Note_on_c, 1, 70, 0
1, 26493, Note_on_c, 1, 62, 0
1, 26495, Note_on_c, 0, 77, 0
1, 26496, Note_on_c, 0, 79, 79
1, 26496, Note_on_c, 1, 70, 72
1, 26496, Note_on_c, 1, 63, 72
1, 26508, Note_on_c, 0, 79, 0
1, 26508, Note_on_c, 0, 77, 79
1, 26520, Note_on_c, 0, 77, 0
1, 26520, Note_on_c, 0, 75, 79
1, 26532, Note_on_c, 0, 75, 0
1, 26532, Note_on_c, 0, 77, 79
1, 26541, Note_on_c, 1, 70, 0
1, 26541, Note_on_c, 1, 63, 0
1, 26544, Note_on_c, 0, 77, 0
1, 26544, Note_on_c, 0, 79, 77
1, 26544, Note_on_c, 1, 70, 70
1, 26544, Note_on_c, 1, 63, 70
1, 26567, Note_on_c, 0, 79, 0
1, 26568, Note_on_c, 0, 75, 77
1, 26589, Note_on_c, 1, 70, 0
1, 26589, Note_on_c, 1, 63, 0
1, 26591, Note_on_c, 0, 75, 0
1, 26592, Note_on_c, 0, 74, 76
1, 26592, Note_on_c, 1, 70, 69
1, 26592, Note_on_c, 1, 65, 69
1, 26637, Note_on_c, 1, 70, 0
1, 26637, Note_on_c, 1, 65, 0
1, 26640, Note_on_c, 1, 70, 68
1, 26640, Note_on_c, 1, 65, 68
1, 26681, Note_on_c, 0, 74, 0
1, 26685, Note_on_c, 1, 70, 0
1, 26685, Note_on_c, 1, 65, 0
1, 26688, Note_on_c, 0, 74, 74
1, 26688, Note_on_c, 1, 69, 67
1, 26688, Note_on_c, 1, 65, 67
1, 26700, Note_on_c, 0, 74, 0
1, 26700, Note_on_c, 0, 72, 74
1, 26712, Note_on_c, 0, 72, 0
1, 26712, Note_on_c, 0, 74, 73
1, 26724, Note_on_c, 0, 74, 0
1, 26724, Note_on_c, 0, 72, 73
1, 26733, Note_on_c, 1, 69, 0
1, 26733, Note_on_c, 1, 65, 0
1, 26736, Note_on_c, 0, 72, 0
1, 26736, Note_on_c, 0, 74, 73
1, 26736, Note_on_c, 1, 69, 66
1, 26736, Note_on_c, 1, 65, 66
1, 26748, Note_on_c, 0, 74, 0
1, 26748, Note_on_c, 0, 72, 72
1, 26760, Note_on_c, 0, 72, 0
1, 26760, Note_on_c, 0, 70, 72
1, 26772, Note_on_c, 0, 70, 0
1, 26772, Note_on_c, 0, 72, 72
1, 26781, Note_on_c, 1, 69, 0
1, 26781, Note_on_c, 1, 65, 0
1, 26784, Note_on_c, 0, 72, 0
1, 26784, Note_on_c, 0, 70, 72
1, 26784, Note_on_c, 1, 67, 72
1, 26784, Note_on_c, 1, 67, 64
1, 26829, Note_on_c, 0, 70, 0
1, 26832, Note_on_c, 0, 82, 72
1, 26877, Note_on_c, 0, 82, 0
1, 26880, Note_on_c, 0, 81, 72
1, 26892, Note_on_c, 0, 81, 0
1, 26892, Note_on_c, 0, 82, 72
1, 26904, Note_on_c, 0, 82, 0
1, 26904, Note_on_c, 0, 81, 72
1, 26916, Note_on_c, 0, 81, 0
1, 26916, Note_on_c, 0, 82, 72
1, 26925, Note_on_c, 0, 82, 0
1, 26928, Note_on_c, 0, 79, 72
1, 26961, Note_on_c, 1, 67, 0
1, 26973, Note_on_c, 0, 79, 0
1, 26976, Note_on_c, 0, 77, 72
1, 26976, Note_on_c, 1, 70, 72
1, 27021, Note_on_c, 0, 77, 0
1, 27024, Note_on_c, 0, 76, 72
1, 27049, Note_on_c, 1, 67, 0
1, 27069, Note_on_c, 0, 76, 0
1, 27072, Tempo, 857142
1, 27072, Note_on_c, 0, 76, 72
1, 27072, Note_on_c, 1, 65, 64
1, 27249, Note_on_c, 1, 70, 0
1, 27264, Note_on_c, 1, 69, 72
1, 27287, Note_on_c, 0, 76, 0
1, 27288, Note_on_c, 0, 77, 72
1, 27311, Note_on_c, 0, 77, 0
1, 27312, Note_on_c, 0, 79, 72
1, 27335, Note_on_c, 0, 79, 0
1, 27336, Note_on_c, 0, 77, 72
1, 27359, Note_on_c, 0, 77, 0
1, 27360, Note_on_c, 0, 77, 72
1, 27515, Note_on_c, 0, 77, 0
1, 27515, Note_on_c, 1, 69, 0
1, 27515, Note_on_c, 1, 65, 0
1, 27552, Tempo, 571428
1, 27552, Note_on_c, 0, 76, 64
1, 27576, Note_on_c, 0, 76, 0
1, 27576, Note_on_c, 0, 77, 64
1, 27599, Note_on_c, 0, 77, 0
1, 27600, Note_on_c, 0, 79, 72
1, 27624, Note_on_c, 0, 79, 0
1, 27624, Note_on_c, 0, 77, 72
1, 27647, Note_on_c, 0, 77, 0
1, 27648, Note_on_c, 0, 74, 72
1, 27672, Note_on_c, 0, 74, 0
1, 27672, Note_on_c, 0, 75, 72
1, 27695, Note_on_c, 0, 75, 0
1, 27696, Note_on_c, 0, 77, 73
1, 27720, Note_on_c, 0, 77, 0
1, 27720, Note_on_c, 0, 75, 73
1, 27743, Note_on_c, 0, 75, 0
1, 27744, Note_on_c, 0, 72, 74
1, 27768, Note_on_c, 0, 72, 0
1, 27768, Note_on_c, 0, 74, 74
1, 27791, Note_on_c, 0, 74, 0
1, 27792, Note_on_c, 0, 75, 75
1, 27816, Note_on_c, 0, 75, 0
1, 27816, Note_on_c, 0, 74, 76
1, 27839, Note_on_c, 0, 74, 0
1, 27840, Note_on_c, 0, 71, 76
1, 27864, Note_on_c, 0, 71, 0
1, 27864, Note_on_c, 0, 72, 77
1, 27887, Note_on_c, 0, 72, 0
1, 27888, Note_on_c, 0, 74, 77
1, 27912, Note_on_c, 0, 74, 0
1, 27912, Note_on_c, 0, 72, 78
1, 27935, Note_on_c, 0, 72, 0
1, 27936, Note_on_c, 0, 72, 95
1, 27984, Note_on_c, 1, 63, 65
1, 27984, Note_on_c, 1, 57, 65
1, 27984, Note_on_c, 1, 53, 65
1, 28029, Note_on_c, 1, 63, 0
1, 28029, Note_on_c, 1, 57, 0
1, 28029, Note_on_c, 1, 53, 0
1, 28032, Note_on_c, 1, 63, 65
1, 28032, Note_on_c, 1, 57, 65
1, 28032, Note_on_c, 1, 53, 65
1, 28077, Note_on_c, 1, 63, 0
1, 28077, Note_on_c, 1, 57, 0
1, 28077, Note_on_c, 1, 53, 0
1, 28080, Note_on_c, 1, 63, 65
1, 28080, Note_on_c, 1, 57, 65
1, 28080, Note_on_c, 1, 53, 65
1, 28125, Note_on_c, 1, 63, 0
1, 28125, Note_on_c, 1, 57, 0
1, 28125, Note_on_c, 1, 53, 0
1, 28128, Note_on_c, 0, 72, 0
1, 28128, Note_on_c, 0, 72, 79
1, 28152, Note_on_c, 0, 72, 0
1, 28152, Note_on_c, 0, 74, 79
1, 28175, Note_on_c, 0, 74, 0
1, 28176, Note_on_c, 0, 75, 79
1, 28200, Note_on_c, 0, 75, 0
1, 28200, Note_on_c, 0, 74, 79
1, 28223, Note_on_c, 0, 74, 0
1, 28224, Note_on_c, 0, 74, 95
1, 28272, Note_on_c, 1, 62, 65
1, 28272, Note_on_c, 1, 58, 65
1, 28272, Note_on_c, 1, 53, 65
1, 28317, Note_on_c, 1, 62, 0
1, 28317, Note_on_c, 1, 58, 0
1, 28317, Note_on_c, 1, 53, 0
1, 28320, Note_on_c, 1, 62, 65
1, 28320, Note_on_c, 1, 58, 65
1, 28320, Note_on_c, 1, 53, 65
1, 28365, Note_on_c, 1, 62, 0
1, 28365, Note_on_c, 1, 58, 0
1, 28365, Note_on_c, 1, 53, 0
1, 28368, Note_on_c, 1, 62, 65
1, 28368, Note_on_c, 1, 58, 65
1, 28368, Note_on_c, 1, 53, 65
1, 28413, Note_on_c, 1, 62, 0
1, 28413, Note_on_c, 1, 58, 0
1, 28413, Note_on_c, 1, 53, 0
1, 28416, Note_on_c, 0, 74, 0
1, 28416, Note_on_c, 0, 74, 79
1, 28440, Note_on_c, 0, 74, 0
1, 28440, Note_on_c, 0, 75, 79
1, 28463, Note_on_c, 0, 75, 0
1, 28464, Note_on_c, 0, 77, 79
1, 28488, Note_on_c, 0, 77, 0
1, 28488, Note_on_c, 0, 75, 79
1, 28511, Note_on_c, 0, 75, 0
1, 28512, Note_on_c, 0, 75, 95
1, 28560, Note_on_c, 1, 60, 65
1, 28560, Note_on_c, 1, 57, 65
1, 28560, Note_on_c, 1, 53, 65
1, 28605, Note_on_c, 1, 60, 0
1, 28605, Note_on_c, 1, 57, 0
1, 28605, Note_on_c, 1, 53, 0
1, 28608, Note_on_c, 1, 60, 65
1, 28608, Note_on_c, 1, 57, 65
1, 28608, Note_on_c, 1, 53, 65
1, 28653, Note_on_c, 1, 60, 0
1, 28653, Note_on_c, 1, 57, 0
1, 28653, Note_on_c, 1, 53, 0
1, 28656, Note_on_c, 1, 60, 65
1, 28656, Note_on_c, 1, 57, 65
1, 28656, Note_on_c, 1, 53, 65
1, 28701, Note_on_c, 1, 60, 0
1, 28701, Note_on_c, 1, 57, 0
1, 28701, Note_on_c, 1, 53, 0
1, 28704, Note_on_c, 0, 75, 0
1, 28704, Note_on_c, 0, 65, 79
1, 28719, Note_on_c, 0, 65, 0
1, 28720, Note_on_c, 0, 69, 79
1, 28735, Note_on_c, 0, 69, 0
1, 28736, Note_on_c, 0, 72, 79
1, 28751, Note_on_c, 0, 72, 0
1, 28752, Note_on_c, 0, 75, 79
1, 28767, Note_on_c, 0, 75, 0
1, 28768, Note_on_c, 0, 77, 79
1, 28783, Note_on_c, 0, 77, 0
1, 28784, Note_on_c, 0, 81, 79
1, 28799, Note_on_c, 0, 81, 0
1, 28800, Note_on_c, 0, 82, 95
1, 28848, Note_on_c, 1, 53, 79
1, 28848, Note_on_c, 1, 50, 79
1, 28893, Note_on_c, 1, 53, 0
1, 28893, Note_on_c, 1, 50, 0
1, 28896, Note_on_c, 1, 58, 79
1, 28919, Note_on_c, 0, 82, 0
1, 28920, Note_on_c, 0, 81, 79
1, 28943, Note_on_c, 0, 81, 0
1, 28944, Note_on_c, 0, 79, 79
1, 28967, Note_on_c, 0, 79, 0
1, 28968, Note_on_c, 0, 77, 79
1, 28985, Note_on_c, 1, 58, 0
1, 28991, Note_on_c, 0, 77, 0
1, 28992, Note_on_c, 0, 75, 79
1, 29015, Note_on_c, 0, 75, 0
1, 29016, Note_on_c, 0, 74, 79
1, 29039, Note_on_c, 0, 74, 0
1, 29040, Note_on_c, 0, 72, 79
1, 29063, Note_on_c, 0, 72, 0
1, 29064, Note_on_c, 0, 70, 79
1, 29087, Note_on_c, 0, 70, 0
1, 29088, Note_on_c, 0, 71, 79
1, 29088, Note_on_c, 1, 51, 64
1, 29111, Note_on_c, 0, 71, 0
1, 29112, Note_on_c, 0, 72, 79
1, 29135, Note_on_c, 0, 72, 0
1, 29136, Note_on_c, 0, 75, 78
1, 29136, Note_on_c, 1, 63, 79
1, 29159, Note_on_c, 0, 75, 0
1, 29160, Note_on_c, 0, 72, 77
1, 29177, Note_on_c, 1, 51, 0
1, 29181, Note_on_c, 1, 63, 0
1, 29183, Note_on_c, 0, 72, 0
1, 29184, Note_on_c, 0, 70, 77
1, 29184, Note_on_c, 1, 62, 79
1, 29184, Note_on_c, 1, 53, 64
1, 29273, Note_on_c, 0, 70, 0
1, 29273, Note_on_c, 1, 62, 0
1, 29273, Note_on_c, 1, 53, 0
1, 29280, Note_on_c, 0, 70, 74
1, 29280, Note_on_c, 1, 60, 79
1, 29280, Note_on_c, 1, 53, 64
1, 29292, Note_on_c, 0, 70, 0
1, 29292, Note_on_c, 0, 69, 74
1, 29304, Note_on_c, 0, 69, 0
1, 29304, Note_on_c, 0, 70, 73
1, 29316, Note_on_c, 0, 70, 0
1, 29316, Note_on_c, 0, 69, 73
1, 29328, Note_on_c, 0, 69, 0
1, 29328, Note_on_c, 0, 70, 73
1, 29340, Note_on_c, 0, 70, 0
1, 29340, Note_on_c, 0, 69, 72
1, 29352, Note_on_c, 0, 69, 0
1, 29352, Note_on_c, 0, 67, 72
1, 29364, Note_on_c, 0, 67, 0
1, 29364, Note_on_c, 0, 69, 72
1, 29369, Note_on_c, 1, 60, 0
1, 29369, Note_on_c, 1, 53, 0
1, 29376, Note_on_c, 0, 69, 0
1, 29376, Note_on_c, 0, 70, 72
1, 29376, Note_on_c, 1, 58, 79
1, 29399, Note_on_c, 0, 70, 0
1, 29400, Note_on_c, 0, 70, 72
1, 29423, Note_on_c, 0, 70, 0
1, 29424, Note_on_c, 0, 70, 72
1, 29436, Note_on_c, 0, 70, 0
1, 29436, Note_on_c, 0, 72, 72
1, 29448, Note_on_c, 0, 72, 0
1, 29448, Note_on_c, 0, 70, 72
1, 29460, Note_on_c, 0, 70, 0
1, 29460, Note_on_c, 0, 72, 72
1, 29465, Note_on_c, 1, 58, 0
1, 29469, Note_on_c, 0, 72, 0
1, 29472, Note_on_c, 0, 75, 73
1, 29472, Note_on_c, 1, 67, 79
1, 29495, Note_on_c, 0, 75, 0
1, 29496, Note_on_c, 0, 70, 74
1, 29511, Note_on_c, 1, 67, 0
1, 29519, Note_on_c, 0, 70, 0
1, 29520, Note_on_c, 0, 70, 74
1, 29532, Note_on_c, 0, 70, 0
1, 29532, Note_on_c, 0, 72, 74
1, 29544, Note_on_c, 0, 72, 0
1, 29544, Note_on_c, 0, 70, 74
1, 29556, Note_on_c, 0, 70, 0
1, 29556, Note_on_c, 0, 72, 74
1, 29565, Note_on_c, 0, 72, 0
1, 29568, Note_on_c, 0, 74, 75
1, 29568, Note_on_c, 1, 65, 79
1, 29591, Note_on_c, 0, 74, 0
1, 29592, Note_on_c, 0, 70, 75
1, 29607, Note_on_c, 1, 65, 0
1, 29615, Note_on_c, 0, 70, 0
1, 29616, Note_on_c, 0, 70, 76
1, 29628, Note_on_c, 0, 70, 0
1, 29628, Note_on_c, 0, 72, 76
1, 29640, Note_on_c, 0, 72, 0
1, 29640, Note_on_c, 0, 70, 76
1, 29652, Note_on_c, 0, 70, 0
1, 29652, Note_on_c, 0, 72, 76
1, 29661, Note_on_c, 0, 72, 0
1, 29664, Note_on_c, 0, 79, 77
1, 29664, Note_on_c, 1, 63, 79
1, 29687, Note_on_c, 0, 79, 0
1, 29688, Note_on_c, 0, 70, 77
1, 29703, Note_on_c, 1, 63, 0
1, 29711, Note_on_c, 0, 70, 0
1, 29712, Note_on_c, 0, 70, 78
1, 29724, Note_on_c, 0, 70, 0
1, 29724, Note_on_c, 0, 72, 78
1, 29736, Note_on_c, 0, 72, 0
1, 29736, Note_on_c, 0, 70, 78
1, 29748, Note_on_c, 0, 70, 0
1, 29748, Note_on_c, 0, 72, 78
1, 29757, Note_on_c, 0, 72, 0
1, 29760, Note_on_c, 0, 82, 95
1, 29760, Note_on_c, 1, 62, 64
1, 29856, Note_on_c, 1, 74, 79
1, 29856, Note_on_c, 1, 70, 79
1, 29871, Note_on_c, 0, 82, 0
1, 29872, Note_on_c, 0, 81, 79
1, 29887, Note_on_c, 0, 81, 0
1, 29888, Note_on_c, 0, 79, 79
1, 29903, Note_on_c, 0, 79, 0
1, 29904, Note_on_c, 0, 77, 79
1, 29919, Note_on_c, 0, 77, 0
1, 29920, Note_on_c, 0, 75, 79
1, 29935, Note_on_c, 0, 75, 0
1, 29936, Note_on_c, 0, 74, 79
1, 29937, Note_on_c, 1, 62, 0
1, 29945, Note_on_c, 1, 74, 0
1, 29945, Note_on_c, 1, 70, 0
1, 29951, Note_on_c, 0, 74, 0
1, 29952, Note_on_c, 0, 72, 79
1, 29952, Note_on_c, 1, 67, 79
1, 29952, Note_on_c, 1, 63, 79
1, 29967, Note_on_c, 0, 72, 0
1, 29968, Note_on_c, 0, 79, 78
1, 29983, Note_on_c, 0, 79, 0
1, 29984, Note_on_c, 0, 77, 78
1, 29999, Note_on_c, 0, 77, 0
1, 30000, Note_on_c, 0, 75, 78
1, 30015, Note_on_c, 0, 75, 0
1, 30016, Note_on_c, 0, 74, 77
1, 30031, Note_on_c, 0, 74, 0
1, 30032, Note_on_c, 0, 72, 77
1, 30041, Note_on_c, 1, 67, 0
1, 30041, Note_on_c, 1, 63, 0
1, 30047, Note_on_c, 0, 72, 0
1, 30048, Note_on_c, 0, 70, 77
1, 30048, Note_on_c, 1, 65, 79
1, 30063, Note_on_c, 0, 70, 0
1, 30064, Note_on_c, 0, 77, 76
1, 30079, Note_on_c, 0, 77, 0
1, 30080, Note_on_c, 0, 75, 76
1, 30095, Note_on_c, 0, 75, 0
1, 30096, Note_on_c, 0, 74, 76
1, 30111, Note_on_c, 0, 74, 0
1, 30112, Note_on_c, 0, 72, 76
1, 30127, Note_on_c, 0, 72, 0
1, 30128, Note_on_c, 0, 70, 75
1, 30137, Note_on_c, 1, 65, 0
1, 30143, Note_on_c, 0, 70, 0
1, 30144, Note_on_c, 0, 69, 75
1, 30144, Note_on_c, 1, 53, 79
1, 30159, Note_on_c, 0, 69, 0
1, 30160, Note_on_c, 0, 67, 75
1, 30175, Note_on_c, 0, 67, 0
1, 30176, Note_on_c, 0, 65, 74
1, 30191, Note_on_c, 0, 65, 0
1, 30192, Note_on_c, 0, 63, 74
1, 30207, Note_on_c, 0, 63, 0
1, 30208, Note_on_c, 0, 62, 74
1, 30223, Note_on_c, 0, 62, 0
1, 30224, Note_on_c, 0, 60, 74
1, 30233, Note_on_c, 1, 53, 0
1, 30239, Note_on_c, 0, 60, 0
1, 30240, Note_on_c, 0, 58, 72
1, 30240, Note_on_c, 1, 34, 79
1, 30263, Note_on_c, 0, 58, 0
1, 30264, Note_on_c, 0, 70, 72
1, 30287, Note_on_c, 0, 70, 0
1, 30288, Note_on_c, 0, 70, 72
1, 30300, Note_on_c, 0, 70, 0
1, 30300, Note_on_c, 0, 72, 72
1, 30312, Note_on_c, 0, 72, 0
1, 30312, Note_on_c, 0, 70, 72
1, 30324, Note_on_c, 0, 70, 0
1, 30324, Note_on_c, 0, 72, 72
1, 30329, Note_on_c, 1, 34, 0
1, 30333, Note_on_c, 0, 72, 0
1, 30336, Note_on_c, 0, 75, 73
1, 30336, Note_on_c, 1, 67, 79
1, 30359, Note_on_c, 0, 75, 0
1, 30360, Note_on_c, 0, 70, 74
1, 30375, Note_on_c, 1, 67, 0
1, 30383, Note_on_c, 0, 70, 0
1, 30384, Note_on_c, 0, 70, 74
1, 30396, Note_on_c, 0, 70, 0
1, 30396, Note_on_c, 0, 72, 74
1, 30408, Note_on_c, 0, 72, 0
1, 30408, Note_on_c, 0, 70, 74
1, 30420, Note_on_c, 0, 70, 0
1, 30420, Note_on_c, 0, 72, 74
1, 30429, Note_on_c, 0, 72, 0
1, 30432, Note_on_c, 0, 74, 75
1, 30432, Note_on_c, 1, 65, 79
1, 30455, Note_on_c, 0, 74, 0
1, 30456, Note_on_c, 0, 70, 75
1, 30471, Note_on_c, 1, 65, 0
1, 30479, Note_on_c, 0, 70, 0
1, 30480, Note_on_c, 0, 70, 76
1, 30492, Note_on_c, 0, 70, 0
1, 30492, Note_on_c, 0, 72, 76
1, 30504, Note_on_c, 0, 72, 0
1, 30504, Note_on_c, 0, 70, 76
1, 30516, Note_on_c, 0, 70, 0
1, 30516, Note_on_c, 0, 72, 76
1, 30525, Note_on_c, 0, 72, 0
1, 30528, Note_on_c, 0, 79, 77
1, 30528, Note_on_c, 1, 63, 79
1, 30551, Note_on_c, 0, 79, 0
1, 30552, Note_on_c, 0, 70, 77
1, 30567, Note_on_c, 1, 63, 0
1, 30575, Note_on_c, 0, 70, 0
1, 30576, Note_on_c, 0, 70, 78
1, 30588, Note_on_c, 0, 70, 0
1, 30588, Note_on_c, 0, 72, 78
1, 30600, Note_on_c, 0, 72, 0
1, 30600, Note_on_c, 0, 70, 78
1, 30612, Note_on_c, 0, 70, 0
1, 30612, Note_on_c, 0, 72, 78
1, 30621, Note_on_c, 0, 72, 0
1, 30624, Note_on_c, 0, 82, 95
1, 30624, Note_on_c, 1, 62, 64
1, 30720, Note_on_c, 1, 74, 79
1, 30720, Note_on_c, 1, 70, 79
1, 30735, Note_on_c, 0, 82, 0
1, 30736, Note_on_c, 0, 81, 79
1, 30751, Note_on_c, 0, 81, 0
1, 30752, Note_on_c, 0, 79, 79
1, 30767, Note_on_c, 0, 79, 0
1, 30768, Note_on_c, 0, 77, 79
1, 30783, Note_on_c, 0, 77, 0
1, 30784, Note_on_c, 0, 75, 79
1, 30799, Note_on_c, 0, 75, 0
1, 30800, Note_on_c, 0, 74, 79
1, 30801, Note_on_c, 1, 62, 0
1, 30809, Note_on_c, 1, 74, 0
1, 30809, Note_on_c, 1, 70, 0
1, 30815, Note_on_c, 0, 74, 0
1, 30816, Note_on_c, 0, 72, 79
1, 30816, Note_on_c, 1, 67, 79
1, 30816, Note_on_c, 1, 63, 79
1, 30831, Note_on_c, 0, 72, 0
1, 30832, Note_on_c, 0, 79, 78
1, 30847, Note_on_c, 0, 79, 0
1, 30848, Note_on_c, 0, 77, 78
1, 30863, Note_on_c, 0, 77, 0
1, 30864, Note_on_c, 0, 75, 78
1, 30879, Note_on_c, 0, 75, 0
1, 30880, Note_on_c, 0, 74, 77
1, 30895, Note_on_c, 0, 74, 0
1, 30896, Note_on_c, 0, 72, 77
1, 30905, Note_on_c, 1, 67, 0
1, 30905, Note_on_c, 1, 63, 0
1, 30911, Note_on_c, 0, 72, 0
1, 30912, Note_on_c, 0, 70, 77
1, 30912, Note_on_c, 1, 65, 79
1, 30927, Note_on_c, 0, 70, 0
1, 30928, Note_on_c, 0, 77, 76
1, 30943, Note_on_c, 0, 77, 0
1, 30944, Note_on_c, 0, 75, 76
1, 30959, Note_on_c, 0, 75, 0
1, 30960, Note_on_c, 0, 74, 76
1, 30975, Note_on_c, 0, 74, 0
1, 30976, Note_on_c, 0, 72, 76
1, 30991, Note_on_c, 0, 72, 0
1, 30992, Note_on_c, 0, 70, 75
1, 31001, Note_on_c, 1, 65, 0
1, 31007, Note_on_c, 0, 70, 0
1, 31008, Note_on_c, 0, 69, 75
1, 31008, Note_on_c, 1, 53, 79
1, 31023, Note_on_c, 0, 69, 0
1, 31024, Note_on_c, 0, 67, 75
1, 31039, Note_on_c, 0, 67, 0
1, 31040, Note_on_c, 0, 65, 74
1, 31055, Note_on_c, 0, 65, 0
1, 31056, Note_on_c, 0, 63, 74
1, 31071, Note_on_c, 0, 63, 0
1, 31072, Note_on_c, 0, 62, 74
1, 31087, Note_on_c, 0, 62, 0
1, 31088, Note_on_c, 0, 60, 74
1, 31097, Note_on_c, 1, 53, 0
1, 31103, Note_on_c, 0, 60, 0
1, 31104, Note_on_c, 0, 58, 72
1, 31152, Note_on_c, 1, 34, 79
1, 31197, Note_on_c, 1, 34, 0
1, 31200, Note_on_c, 1, 46, 79
1, 31237, Note_on_c, 0, 58, 0
1, 31248, Note_on_c, 0, 57, 72
1, 31289, Note_on_c, 1, 46, 0
1, 31293, Note_on_c, 0, 57, 0
1, 31296, Note_on_c, 0, 63, 72
1, 31296, Note_on_c, 0, 60, 72
1, 31341, Note_on_c, 0, 63, 0
1, 31341, Note_on_c, 0, 60, 0
1, 31344, Note_on_c, 0, 60, 72
1, 31344, Note_on_c, 0, 57, 72
1, 31389, Note_on_c, 0, 60, 0
1, 31389, Note_on_c, 0, 57, 0
1, 31392, Note_on_c, 0, 62, 72
1, 31392, Note_on_c, 0, 58, 72
1, 31440, Note_on_c, 1, 34, 79
1, 31485, Note_on_c, 1, 34, 0
1, 31488, Note_on_c, 1, 46, 79
1, 31525, Note_on_c, 0, 62, 0
1, 31525, Note_on_c, 0, 58, 0
1, 31536, Note_on_c, 0, 60, 72
1, 31536, Note_on_c, 0, 57, 72
1, 31577, Note_on_c, 1, 46, 0
1, 31581, Note_on_c, 0, 60, 0
1, 31581, Note_on_c, 0, 57, 0
1, 31584, Note_on_c, 0, 67, 72
1, 31584, Note_on_c, 0, 63, 72
1, 31629, Note_on_c, 0, 67, 0
1, 31629, Note_on_c, 0, 63, 0
1, 31632, Note_on_c, 0, 63, 72
1, 31632, Note_on_c, 0, 60, 72
1, 31677, Note_on_c, 0, 63, 0
1, 31677, Note_on_c, 0, 60, 0
1, 31680, Note_on_c, 0, 65, 72
1, 31680, Note_on_c, 0, 62, 72
1, 31728, Note_on_c, 1, 34, 79
1, 31773, Note_on_c, 1, 34, 0
1, 31776, Note_on_c, 1, 46, 79
1, 31813, Note_on_c, 0, 65, 0
1, 31813, Note_on_c, 0, 62, 0
1, 31824, Note_on_c, 0, 70, 72
1, 31836, Note_on_c, 0, 70, 0
1, 31836, Note_on_c, 0, 67, 72
1, 31865, Note_on_c, 1, 46, 0
1, 31870, Note_on_c, 0, 67, 0
1, 31872, Note_on_c, 0, 69, 72
1, 31884, Note_on_c, 0, 69, 0
1, 31884, Note_on_c, 0, 65, 72
1, 31918, Note_on_c, 0, 65, 0
1, 31920, Note_on_c, 0, 67, 72
1, 31932, Note_on_c, 0, 67, 0
1, 31932, Note_on_c, 0, 63, 72
1, 31966, Note_on_c, 0, 63, 0
1, 31968, Note_on_c, 0, 65, 72
1, 31968, Note_on_c, 0, 62, 72
1, 32016, Note_on_c, 1, 34, 79
1, 32061, Note_on_c, 1, 34, 0
1, 32064, Note_on_c, 1, 46, 79
1, 32101, Note_on_c, 0, 65, 0
1, 32101, Note_on_c, 0, 62, 0
1, 32112, Note_on_c, 0, 70, 72
1, 32124, Note_on_c, 0, 70, 0
1, 32124, Note_on_c, 0, 67, 72
1, 32153, Note_on_c, 1, 46, 0
1, 32158, Note_on_c, 0, 67, 0
1, 32160, Note_on_c, 0, 69, 72
1, 32172, Note_on_c, 0, 69, 0
1, 32172, Note_on_c, 0, 65, 72
1, 32206, Note_on_c, 0, 65, 0
1, 32208, Note_on_c, 0, 67, 72
1, 32220, Note_on_c, 0, 67, 0
1, 32220, Note_on_c, 0, 63, 72
1, 32254, Note_on_c, 0, 63, 0
1, 32256, Note_on_c, 0, 65, 72
1, 32256, Note_on_c, 0, 62, 72
1, 32304, Note_on_c, 1, 34, 79
1, 32349, Note_on_c, 1, 34, 0
1, 32352, Note_on_c, 1, 46, 80
1, 32372, Note_on_c, 1, 46, 0
1, 32389, Note_on_c, 0, 65, 0
1, 32389, Note_on_c, 0, 62, 0
1, 32400, Note_on_c, 0, 65, 74
1, 32400, Note_on_c, 1, 62, 81
1, 32406, Note_on_c, 0, 65, 0
1, 32406, Note_on_c, 0, 77, 74
1, 32420, Note_on_c, 0, 77, 0
1, 32420, Note_on_c, 1, 62, 0
1, 32448, Note_on_c, 0, 67, 75
1, 32448, Note_on_c, 1, 63, 81
1, 32454, Note_on_c, 0, 67, 0
1, 32454, Note_on_c, 0, 79, 75
1, 32468, Note_on_c, 0, 79, 0
1, 32468, Note_on_c, 1, 63, 0
1, 32496, Note_on_c, 0, 69, 75
1, 32496, Note_on_c, 1, 60, 82
1, 32502, Note_on_c, 0, 69, 0
1, 32502, Note_on_c, 0, 81, 75
1, 32516, Note_on_c, 0, 81, 0
1, 32516, Note_on_c, 1, 60, 0
1, 32544, Note_on_c, 0, 70, 76
1, 32544, Note_on_c, 1, 62, 83
1, 32550, Note_on_c, 0, 70, 0
1, 32550, Note_on_c, 0, 82, 76
1, 32564, Note_on_c, 0, 82, 0
1, 32564, Note_on_c, 1, 62, 0
1, 32592, Note_on_c, 0, 72, 77
1, 32592, Note_on_c, 1, 57, 83
1, 32598, Note_on_c, 0, 72, 0
1, 32598, Note_on_c, 0, 84, 77
1, 32612, Note_on_c, 0, 84, 0
1, 32612, Note_on_c, 1, 57, 0
1, 32640, Note_on_c, 0, 74, 78
1, 32640, Note_on_c, 1, 58, 84
1, 32646, Note_on_c, 0, 74, 0
1, 32646, Note_on_c, 0, 86, 78
1, 32660, Note_on_c, 0, 86, 0
1, 32660, Note_on_c, 1, 58, 0
1, 32832, Note_on_c, 1, 39, 72
1, 32880, Note_on_c, 0, 55, 72
1, 32921, Note_on_c, 1, 39, 0
1, 32925, Note_on_c, 0, 55, 0
1, 32928, Note_on_c, 0, 63, 72
1, 32973, Note_on_c, 0, 63, 0
1, 32976, Note_on_c, 0, 67, 72
1, 33021, Note_on_c, 0, 67, 0
1, 33024, Note_on_c, 0, 60, 72
1, 33024, Note_on_c, 1, 51, 72
1, 33024, Note_on_c, 1, 41, 72
1, 33091, Note_on_c, 0, 60, 0
1, 33096, Note_on_c, 0, 57, 70
1, 33119, Note_on_c, 0, 57, 0
1, 33120, Note_on_c, 0, 57, 69
1, 33120, Note_on_c, 1, 41, 0
1, 33120, Note_on_c, 1, 46, 64
1, 33209, Note_on_c, 1, 51, 0
1, 33216, Note_on_c, 0, 57, 0
1, 33216, Note_on_c, 0, 58, 67
1, 33216, Note_on_c, 1, 50, 67
1, 33297, Note_on_c, 1, 46, 0
1, 33305, Note_on_c, 0, 58, 0
1, 33305, Note_on_c, 1, 50, 0
1, 33408, Note_on_c, 0, 77, 79
1, 33456, Note_on_c, 1, 46, 64
1, 33501, Note_on_c, 1, 46, 0
1, 33504, Note_on_c, 1, 50, 64
1, 33527, Note_on_c, 0, 77, 0
1, 33528, Note_on_c, 0, 74, 79
1, 33549, Note_on_c, 1, 50, 0
1, 33551, Note_on_c, 0, 74, 0
1, 33552, Note_on_c, 0, 75, 79
1, 33552, Note_on_c, 1, 53, 64
1, 33575, Note_on_c, 0, 75, 0
1, 33576, Note_on_c, 0, 72, 79
1, 33597, Note_on_c, 1, 53, 0
1, 33599, Note_on_c, 0, 72, 0
1, 33600, Note_on_c, 0, 74, 79
1, 33600, Note_on_c, 1, 58, 64
1, 33623, Note_on_c, 0, 74, 0
1, 33624, Note_on_c, 0, 70, 79
1, 33645, Note_on_c, 1, 58, 0
1, 33647, Note_on_c, 0, 70, 0
1, 33648, Note_on_c, 0, 72, 79
1, 33648, Note_on_c, 1, 63, 64
1, 33671, Note_on_c, 0, 72, 0
1, 33672, Note_on_c, 0, 69, 79
1, 33693, Note_on_c, 1, 63, 0
1, 33695, Note_on_c, 0, 69, 0
1, 33696, Note_on_c, 0, 70, 79
1, 33696, Note_on_c, 1, 62, 64
1, 33716, Note_on_c, 0, 70, 0
1, 33744, Note_on_c, 0, 65, 81
1, 33764, Note_on_c, 0, 65, 0
1, 33785, Note_on_c, 1, 62, 0
1, 33792, Note_on_c, 0, 62, 83
1, 33812, Note_on_c, 0, 62, 0
1, 33840, Note_on_c, 0, 65, 85
1, 33860, Note_on_c, 0, 65, 0
1, 33888, Note_on_c, 0, 70, 83
1, 33908, Note_on_c, 0, 70, 0
1, 33936, Note_on_c, 0, 74, 81
1, 33956, Note_on_c, 0, 74, 0
1, 33984, Note_on_c, 0, 80, 79
1, 33984, Note_on_c, 0, 77, 79
1, 34032, Note_on_c, 1, 58, 64
1, 34080, Note_on_c, 1, 62, 79
1, 34125, Note_on_c, 0, 80, 0
1, 34125, Note_on_c, 0, 77, 0
1, 34125, Note_on_c, 1, 62, 0
1, 34128, Note_on_c, 0, 79, 79
1, 34128, Note_on_c, 0, 75, 79
1, 34128, Note_on_c, 1, 63, 79
1, 34173, Note_on_c, 0, 79, 0
1, 34173, Note_on_c, 0, 75, 0
1, 34173, Note_on_c, 1, 63, 0
1, 34176, Note_on_c, 0, 77, 79
1, 34176, Note_on_c, 0, 74, 79
1, 34176, Note_on_c, 1, 65, 79
1, 34221, Note_on_c, 0, 77, 0
1, 34221, Note_on_c, 0, 74, 0
1, 34221, Note_on_c, 1, 65, 0
1, 34224, Note_on_c, 0, 75, 79
1, 34224, Note_on_c, 0, 72, 79
1, 34224, Note_on_c, 1, 67, 79
1, 34269, Note_on_c, 0, 75, 0
1, 34269, Note_on_c, 0, 72, 0
1, 34269, Note_on_c, 1, 67, 0
1, 34272, Note_on_c, 0, 74, 79
1, 34272, Note_on_c, 0, 70, 79
1, 34272, Note_on_c, 1, 68, 79
1, 34317, Note_on_c, 0, 74, 0
1, 34317, Note_on_c, 0, 70, 0
1, 34320, Note_on_c, 0, 72, 79
1, 34332, Note_on_c, 0, 72, 0
1, 34332, Note_on_c, 0, 75, 78
1, 34366, Note_on_c, 0, 75, 0
1, 34368, Note_on_c, 0, 74, 77
1, 34380, Note_on_c, 0, 74, 0
1, 34380, Note_on_c, 0, 77, 77
1, 34414, Note_on_c, 0, 77, 0
1, 34416, Note_on_c, 0, 75, 76
1, 34428, Note_on_c, 0, 75, 0
1, 34428, Note_on_c, 0, 79, 75
1, 34462, Note_on_c, 0, 79, 0
1, 34464, Note_on_c, 0, 77, 74
1, 34476, Note_on_c, 0, 77, 0
1, 34476, Note_on_c, 0, 80, 74
1, 34510, Note_on_c, 0, 80, 0
1, 34512, Note_on_c, 0, 79, 73
1, 34524, Note_on_c, 0, 79, 0
1, 34524, Note_on_c, 0, 82, 73
1, 34558, Note_on_c, 0, 82, 0
1, 34560, Note_on_c, 0, 80, 72
1, 34578, Note_on_c, 0, 80, 0
1, 34578, Note_on_c, 0, 84, 72
1, 34649, Note_on_c, 1, 68, 0
1, 34656, Note_on_c, 1, 67, 69
1, 34701, Note_on_c, 0, 84, 0
1, 34704, Note_on_c, 0, 82, 68
1, 34737, Note_on_c, 1, 58, 0
1, 34750, Note_on_c, 1, 67, 0
1, 34752, Note_on_c, 1, 65, 67
1, 34752, Note_on_c, 1, 59, 74
1, 34793, Note_on_c, 0, 82, 0
1, 34800, Note_on_c, 0, 80, 66
1, 34841, Note_on_c, 1, 65, 0
1, 34841, Note_on_c, 1, 59, 0
1, 34845, Note_on_c, 0, 80, 0
1, 34848, Note_on_c, 0, 79, 65
1, 34848, Note_on_c, 1, 63, 65
1, 34848, Note_on_c, 1, 60, 72
1, 34893, Note_on_c, 1, 63, 0
1, 34893, Note_on_c, 1, 60, 0
1, 34896, Note_on_c, 1, 48, 65
1, 34941, Note_on_c, 1, 48, 0
1, 34944, Note_on_c, 1, 51, 65
1, 34967, Note_on_c, 0, 79, 0
1, 34968, Note_on_c, 0, 75, 65
1, 34989, Note_on_c, 1, 51, 0
1, 34991, Note_on_c, 0, 75, 0
1, 34992, Note_on_c, 0, 77, 65
1, 34992, Note_on_c, 1, 55, 65
1, 35015, Note_on_c, 0, 77, 0
1, 35016, Note_on_c, 0, 74, 65
1, 35037, Note_on_c, 1, 55, 0
1, 35039, Note_on_c, 0, 74, 0
1, 35040, Note_on_c, 0, 75, 65
1, 35040, Note_on_c, 1, 60, 65
1, 35063, Note_on_c, 0, 75, 0
1, 35064, Note_on_c, 0, 72, 65
1, 35085, Note_on_c, 1, 60, 0
1, 35087, Note_on_c, 0, 72, 0
1, 35088, Note_on_c, 0, 74, 65
1, 35088, Note_on_c, 1, 65, 65
1, 35111, Note_on_c, 0, 74, 0
1, 35112, Note_on_c, 0, 71, 65
1, 35133, Note_on_c, 1, 65, 0
1, 35135, Note_on_c, 0, 71, 0
1, 35136, Note_on_c, 0, 72, 79
1, 35136, Note_on_c, 1, 63, 65
1, 35156, Note_on_c, 0, 72, 0
1, 35184, Note_on_c, 0, 67, 81
1, 35204, Note_on_c, 0, 67, 0
1, 35225, Note_on_c, 1, 63, 0
1, 35232, Note_on_c, 0, 63, 83
1, 35252, Note_on_c, 0, 63, 0
1, 35280, Note_on_c, 0, 67, 85
1, 35300, Note_on_c, 0, 67, 0
1, 35328, Note_on_c, 0, 72, 83
1, 35348, Note_on_c, 0, 72, 0
1, 35376, Note_on_c, 0, 75, 81
1, 35396, Note_on_c, 0, 75, 0
1, 35424, Note_on_c, 0, 79, 79
1, 35472, Note_on_c, 1, 48, 65
1, 35517, Note_on_c, 1, 48, 0
1, 35520, Note_on_c, 1, 51, 65
1, 35543, Note_on_c, 0, 79, 0
1, 35544, Note_on_c, 0, 75, 79
1, 35565, Note_on_c, 1, 51, 0
1, 35567, Note_on_c, 0, 75, 0
1, 35568, Note_on_c, 0, 77, 79
1, 35568, Note_on_c, 1, 55, 65
1, 35591, Note_on_c, 0, 77, 0
1, 35592, Note_on_c, 0, 74, 79
1, 35613, Note_on_c, 1, 55, 0
1, 35615, Note_on_c, 0, 74, 0
1, 35616, Note_on_c, 0, 75, 79
1, 35616, Note_on_c, 1, 60, 65
1, 35639, Note_on_c, 0, 75, 0
1, 35640, Note_on_c, 0, 72, 79
1, 35661, Note_on_c, 1, 60, 0
1, 35663, Note_on_c, 0, 72, 0
1, 35664, Note_on_c, 0, 74, 79
1, 35664, Note_on_c, 1, 65, 65
1, 35687, Note_on_c, 0, 74, 0
1, 35688, Note_on_c, 0, 71, 79
1, 35709, Note_on_c, 1, 65, 0
1, 35711, Note_on_c, 0, 71, 0
1, 35712, Note_on_c, 0, 72, 79
1, 35712, Note_on_c, 1, 63, 65
1, 35757, Note_on_c, 0, 72, 0
1, 35757, Note_on_c, 1, 63, 0
1, 35760, Note_on_c, 0, 75, 79
1, 35760, Note_on_c, 0, 67, 79
1, 35780, Note_on_c, 0, 75, 0
1, 35780, Note_on_c, 0, 67, 0
1, 35808, Note_on_c, 0, 75, 79
1, 35808, Note_on_c, 0, 67, 79
1, 35828, Note_on_c, 0, 75, 0
1, 35828, Note_on_c, 0, 67, 0
1, 35856, Note_on_c, 0, 75, 79
1, 35856, Note_on_c, 0, 67, 79
1, 35876, Note_on_c, 0, 75, 0
1, 35876, Note_on_c, 0, 67, 0
1, 35904, Note_on_c, 0, 75, 79
1, 35904, Note_on_c, 0, 67, 79
1, 35924, Note_on_c, 0, 75, 0
1, 35924, Note_on_c, 0, 67, 0
1, 35952, Note_on_c, 0, 75, 79
1, 35952, Note_on_c, 0, 67, 79
1, 35972, Note_on_c, 0, 75, 0
1, 35972, Note_on_c, 0, 67, 0
1, 36000, Note_on_c, 0, 75, 95
1, 36000, Note_on_c, 0, 66, 79
1, 36048, Note_on_c, 1, 72, 65
1, 36048, Note_on_c, 1, 69, 65
1, 36068, Note_on_c, 1, 72, 0
1, 36068, Note_on_c, 1, 69, 0
1, 36096, Note_on_c, 1, 72, 65
1, 36096, Note_on_c, 1, 69, 65
1, 36116, Note_on_c, 1, 72, 0
1, 36116, Note_on_c, 1, 69, 0
1, 36144, Note_on_c, 1, 72, 65
1, 36144, Note_on_c, 1, 69, 65
1, 36164, Note_on_c, 1, 72, 0
1, 36164, Note_on_c, 1, 69, 0
1, 36192, Note_on_c, 0, 75, 0
1, 36192, Note_on_c, 0, 74, 79
1, 36192, Note_on_c, 1, 72, 65
1, 36192, Note_on_c, 1, 69, 65
1, 36212, Note_on_c, 1, 72, 0
1, 36212, Note_on_c, 1, 69, 0
1, 36240, Note_on_c, 1, 72, 65
1, 36240, Note_on_c, 1, 69, 65
1, 36260, Note_on_c, 1, 72, 0
1, 36260, Note_on_c, 1, 69, 0
1, 36265, Note_on_c, 0, 66, 0
1, 36281, Note_on_c, 0, 74, 0
1, 36288, Note_on_c, 1, 72, 65
1, 36288, Note_on_c, 1, 69, 65
1, 36336, Note_on_c, 0, 86, 79
1, 36336, Note_on_c, 0, 74, 79
1, 36356, Note_on_c, 0, 86, 0
1, 36381, Note_on_c, 0, 74, 0
1, 36384, Note_on_c, 0, 86, 79
1, 36384, Note_on_c, 0, 74, 79
1, 36404, Note_on_c, 0, 86, 0
1, 36429, Note_on_c, 0, 74, 0
1, 36432, Note_on_c, 0, 86, 79
1, 36432, Note_on_c, 0, 74, 79
1, 36452, Note_on_c, 0, 86, 0
1, 36477, Note_on_c, 0, 74, 0
1, 36480, Note_on_c, 0, 86, 79
1, 36480, Note_on_c, 0, 74, 79
1, 36480, Note_on_c, 1, 72, 0
1, 36480, Note_on_c, 1, 69, 0
1, 36480, Note_on_c, 1, 70, 65
1, 36480, Note_on_c, 1, 67, 65
1, 36500, Note_on_c, 0, 86, 0
1, 36525, Note_on_c, 0, 74, 0
1, 36528, Note_on_c, 0, 86, 79
1, 36528, Note_on_c, 0, 74, 79
1, 36548, Note_on_c, 0, 86, 0
1, 36569, Note_on_c, 1, 70, 0
1, 36569, Note_on_c, 1, 67, 0
1, 36573, Note_on_c, 0, 74, 0
1, 36576, Note_on_c, 0, 86, 95
1, 36576, Note_on_c, 0, 75, 79
1, 36624, Note_on_c, 1, 82, 65
1, 36624, Note_on_c, 1, 79, 65
1, 36644, Note_on_c, 1, 82, 0
1, 36644, Note_on_c, 1, 79, 0
1, 36672, Note_on_c, 1, 82, 65
1, 36672, Note_on_c, 1, 79, 65
1, 36692, Note_on_c, 1, 82, 0
1, 36692, Note_on_c, 1, 79, 0
1, 36720, Note_on_c, 1, 82, 65
1, 36720, Note_on_c, 1, 79, 65
1, 36740, Note_on_c, 1, 82, 0
1, 36740, Note_on_c, 1, 79, 0
1, 36768, Note_on_c, 0, 86, 0
1, 36768, Note_on_c, 0, 84, 79
1, 36768, Note_on_c, 1, 81, 65
1, 36788, Note_on_c, 1, 81, 0
1, 36816, Note_on_c, 1, 81, 65
1, 36836, Note_on_c, 1, 81, 0
1, 36841, Note_on_c, 0, 75, 0
1, 36857, Note_on_c, 0, 84, 0
1, 36864, Note_on_c, 0, 84, 95
1, 36864, Note_on_c, 0, 74, 79
1, 36912, Note_on_c, 1, 81, 65
1, 36912, Note_on_c, 1, 78, 65
1, 36932, Note_on_c, 1, 81, 0
1, 36932, Note_on_c, 1, 78, 0
1, 36960, Note_on_c, 1, 81, 65
1, 36960, Note_on_c, 1, 78, 65
1, 36980, Note_on_c, 1, 81, 0
1, 36980, Note_on_c, 1, 78, 0
1, 37008, Note_on_c, 1, 81, 65
1, 37008, Note_on_c, 1, 78, 65
1, 37028, Note_on_c, 1, 81, 0
1, 37028, Note_on_c, 1, 78, 0
1, 37056, Note_on_c, 0, 84, 0
1, 37056, Note_on_c, 0, 82, 79
1, 37056, Note_on_c, 1, 79, 65
1, 37076, Note_on_c, 1, 79, 0
1, 37104, Note_on_c, 1, 79, 65
1, 37124, Note_on_c, 1, 79, 0
1, 37129, Note_on_c, 0, 74, 0
1, 37145, Note_on_c, 0, 82, 0
1, 37152, Note_on_c, 0, 82, 95
1, 37152, Note_on_c, 0, 72, 79
1, 37200, Note_on_c, 1, 79, 65
1, 37200, Note_on_c, 1, 76, 65
1, 37220, Note_on_c, 1, 79, 0
1, 37220, Note_on_c, 1, 76, 0
1, 37248, Note_on_c, 1, 79, 65
1, 37248, Note_on_c, 1, 76, 65
1, 37268, Note_on_c, 1, 79, 0
1, 37268, Note_on_c, 1, 76, 0
1, 37296, Note_on_c, 1, 79, 65
1, 37296, Note_on_c, 1, 76, 65
1, 37316, Note_on_c, 1, 79, 0
1, 37316, Note_on_c, 1, 76, 0
1, 37344, Note_on_c, 0, 82, 0
1, 37344, Note_on_c, 0, 80, 79
1, 37344, Note_on_c, 1, 77, 65
1, 37364, Note_on_c, 1, 77, 0
1, 37392, Note_on_c, 1, 77, 65
1, 37412, Note_on_c, 1, 77, 0
1, 37417, Note_on_c, 0, 72, 0
1, 37433, Note_on_c, 0, 80, 0
1, 37440, Note_on_c, 0, 80, 95
1, 37440, Note_on_c, 0, 70, 79
1, 37488, Note_on_c, 1, 77, 65
1, 37488, Note_on_c, 1, 74, 65
1, 37508, Note_on_c, 1, 77, 0
1, 37508, Note_on_c, 1, 74, 0
1, 37536, Note_on_c, 1, 77, 65
1, 37536, Note_on_c, 1, 74, 65
1, 37556, Note_on_c, 1, 77, 0
1, 37556, Note_on_c, 1, 74, 0
1, 37584, Note_on_c, 1, 77, 65
1, 37584, Note_on_c, 1, 74, 65
1, 37604, Note_on_c, 1, 77, 0
1, 37604, Note_on_c, 1, 74, 0
1, 37632, Note_on_c, 0, 80, 0
1, 37632, Note_on_c, 0, 79, 79
1, 37632, Note_on_c, 1, 75, 65
1, 37652, Note_on_c, 1, 75, 0
1, 37680, Note_on_c, 1, 75, 65
1, 37700, Note_on_c, 1, 75, 0
1, 37705, Note_on_c, 0, 70, 0
1, 37721, Note_on_c, 0, 79, 0
1, 37728, Note_on_c, 0, 79, 95
1, 37728, Note_on_c, 0, 68, 79
1, 37776, Note_on_c, 1, 75, 65
1, 37776, Note_on_c, 1, 72, 65
1, 37796, Note_on_c, 1, 75, 0
1, 37796, Note_on_c, 1, 72, 0
1, 37824, Note_on_c, 1, 75, 65
1, 37824, Note_on_c, 1, 72, 65
1, 37844, Note_on_c, 1, 75, 0
1, 37844, Note_on_c, 1, 72, 0
1, 37872, Note_on_c, 1, 75, 65
1, 37872, Note_on_c, 1, 72, 65
1, 37892, Note_on_c, 1, 75, 0
1, 37892, Note_on_c, 1, 72, 0
1, 37920, Note_on_c, 0, 79, 0
1, 37920, Note_on_c, 0, 78, 79
1, 37920, Note_on_c, 1, 75, 65
1, 37920, Note_on_c, 1, 72, 65
1, 37940, Note_on_c, 1, 75, 0
1, 37940, Note_on_c, 1, 72, 0
1, 37968, Note_on_c, 1, 75, 65
1, 37968, Note_on_c, 1, 72, 65
1, 37988, Note_on_c, 1, 75, 0
1, 37988, Note_on_c, 1, 72, 0
1, 37993, Note_on_c, 0, 68, 0
1, 38009, Note_on_c, 0, 78, 0
1, 38016, Note_on_c, 0, 79, 95
1, 38016, Note_on_c, 0, 67, 79
1, 38016, Note_on_c, 1, 75, 65
1, 38016, Note_on_c, 1, 72, 65
1, 38112, Note_on_c, 1, 75, 0
1, 38112, Note_on_c, 1, 72, 0
1, 38112, Note_on_c, 1, 74, 65
1, 38112, Note_on_c, 1, 71, 65
1, 38157, Note_on_c, 0, 79, 0
1, 38157, Note_on_c, 0, 67, 0
1, 38160, Note_on_c, 0, 67, 79
1, 38183, Note_on_c, 0, 67, 0
1, 38184, Note_on_c, 0, 79, 79
1, 38201, Note_on_c, 1, 74, 0
1, 38201, Note_on_c, 1, 71, 0
1, 38207, Note_on_c, 0, 79, 0
1, 38208, Note_on_c, 0, 67, 79
1, 38231, Note_on_c, 0, 67, 0
1, 38232, Note_on_c, 0, 79, 79
1, 38255, Note_on_c, 0, 79, 0
1, 38256, Note_on_c, 0, 67, 79
1, 38279, Note_on_c, 0, 67, 0
1, 38280, Note_on_c, 0, 79, 79
1, 38303, Note_on_c, 0, 79, 0
1, 38304, Note_on_c, 0, 78, 79
1, 38304, Note_on_c, 0, 68, 79
1, 38352, Note_on_c, 1, 72, 65
1, 38375, Note_on_c, 1, 72, 0
1, 38376, Note_on_c, 1, 75, 65
1, 38399, Note_on_c, 1, 75, 0
1, 38400, Note_on_c, 1, 72, 65
1, 38423, Note_on_c, 1, 72, 0
1, 38424, Note_on_c, 1, 75, 65
1, 38447, Note_on_c, 1, 75, 0
1, 38448, Note_on_c, 1, 72, 65
1, 38471, Note_on_c, 1, 72, 0
1, 38472, Note_on_c, 1, 75, 65
1, 38495, Note_on_c, 1, 75, 0
1, 38496, Note_on_c, 1, 72, 65
1, 38519, Note_on_c, 1, 72, 0
1, 38520, Note_on_c, 1, 75, 65
1, 38543, Note_on_c, 1, 75, 0
1, 38544, Note_on_c, 1, 72, 65
1, 38567, Note_on_c, 1, 72, 0
1, 38568, Note_on_c, 1, 75, 65
1, 38569, Note_on_c, 0, 78, 0
1, 38569, Note_on_c, 0, 68, 0
1, 38591, Note_on_c, 1, 75, 0
1, 38592, Tempo, 750000
1, 38592, Note_on_c, 0, 79, 79
1, 38592, Note_on_c, 0, 67, 79
1, 38592, Note_on_c, 1, 75, 65
1, 38592, Note_on_c, 1, 72, 65
1, 38592, Note_on_c, 1, 75, 72
1, 38592, Note_on_c, 1, 72, 72
1, 38688, Tempo, 1200000
1, 38688, Note_on_c, 1, 75, 0
1, 38688, Note_on_c, 1, 72, 0
1, 38688, Note_on_c, 1, 74, 65
1, 38688, Note_on_c, 1, 71, 65
1, 38688, Note_on_c, 1, 75, 0
1, 38688, Note_on_c, 1, 72, 0
1, 38688, Note_on_c, 1, 74, 72
1, 38688, Note_on_c, 1, 71, 72
1, 38755, Note_on_c, 0, 79, 0
1, 38755, Note_on_c, 1, 74, 0
1, 38755, Note_on_c, 1, 71, 0
1, 38777, Note_on_c, 0, 67, 0
1, 38777, Note_on_c, 1, 74, 0
1, 38777, Note_on_c, 1, 71, 0
1, 38784, Tempo, 571428
1, 38784, Note_on_c, 0, 78, 79
1, 38808, Note_on_c, 0, 78, 0
1, 38808, Note_on_c, 0, 79, 79
1, 38831, Note_on_c, 0, 79, 0
1, 38832, Note_on_c, 0, 80, 79
1, 38856, Note_on_c, 0, 80, 0
1, 38856, Note_on_c, 0, 79, 79
1, 38879, Note_on_c, 0, 79, 0
1, 38880, Note_on_c, 0, 76, 79
1, 38904, Note_on_c, 0, 76, 0
1, 38904, Note_on_c, 0, 77, 78
1, 38927, Note_on_c, 0, 77, 0
1, 38928, Note_on_c, 0, 79, 77
1, 38952, Note_on_c, 0, 79, 0
1, 38952, Note_on_c, 0, 77, 77
1, 38975, Note_on_c, 0, 77, 0
1, 38976, Note_on_c, 0, 74, 76
1, 39000, Note_on_c, 0, 74, 0
1, 39000, Note_on_c, 0, 75, 76
1, 39023, Note_on_c, 0, 75, 0
1, 39024, Note_on_c, 0, 77, 75
1, 39048, Note_on_c, 0, 77, 0
1, 39048, Note_on_c, 0, 75, 74
1, 39071, Note_on_c, 0, 75, 0
1, 39072, Note_on_c, 0, 72, 74
1, 39096, Note_on_c, 0, 72, 0
1, 39096, Note_on_c, 0, 74, 73
1, 39119, Note_on_c, 0, 74, 0
1, 39120, Note_on_c, 0, 75, 73
1, 39144, Note_on_c, 0, 75, 0
1, 39144, Note_on_c, 0, 74, 72
1, 39167, Note_on_c, 0, 74, 0
1, 39168, Note_on_c, 0, 74, 72
1, 39216, Note_on_c, 1, 62, 65
1, 39216, Note_on_c, 1, 59, 65
1, 39216, Note_on_c, 1, 55, 65
1, 39261, Note_on_c, 1, 62, 0
1, 39261, Note_on_c, 1, 59, 0
1, 39261, Note_on_c, 1, 55, 0
1, 39264, Note_on_c, 1, 62, 65
1, 39264, Note_on_c, 1, 59, 65
1, 39264, Note_on_c, 1, 55, 65
1, 39309, Note_on_c, 1, 62, 0
1, 39309, Note_on_c, 1, 59, 0
1, 39309, Note_on_c, 1, 55, 0
1, 39312, Note_on_c, 1, 62, 65
1, 39312, Note_on_c, 1, 59, 65
1, 39312, Note_on_c, 1, 55, 65
1, 39345, Note_on_c, 0, 74, 0
1, 39357, Note_on_c, 1, 62, 0
1, 39357, Note_on_c, 1, 59, 0
1, 39357, Note_on_c, 1, 55, 0
1, 39360, Note_on_c, 0, 74, 73
1, 39384, Note_on_c, 0, 74, 0
1, 39384, Note_on_c, 0, 75, 73
1, 39407, Note_on_c, 0, 75, 0
1, 39408, Note_on_c, 0, 77, 72
1, 39432, Note_on_c, 0, 77, 0
1, 39432, Note_on_c, 0, 75, 72
1, 39455, Note_on_c, 0, 75, 0
1, 39456, Note_on_c, 0, 75, 74
1, 39504, Note_on_c, 1, 63, 65
1, 39504, Note_on_c, 1, 60, 65
1, 39504, Note_on_c, 1, 55, 65
1, 39549, Note_on_c, 1, 63, 0
1, 39549, Note_on_c, 1, 60, 0
1, 39549, Note_on_c, 1, 55, 0
1, 39552, Note_on_c, 1, 63, 65
1, 39552, Note_on_c, 1, 60, 65
1, 39552, Note_on_c, 1, 55, 65
1, 39597, Note_on_c, 1, 63, 0
1, 39597, Note_on_c, 1, 60, 0
1, 39597, Note_on_c, 1, 55, 0
1, 39600, Note_on_c, 1, 63, 65
1, 39600, Note_on_c, 1, 60, 65
1, 39600, Note_on_c, 1, 55, 65
1, 39633, Note_on_c, 0, 75, 0
1, 39645, Note_on_c, 1, 63, 0
1, 39645, Note_on_c, 1, 60, 0
1, 39645, Note_on_c, 1, 55, 0
1, 39648, Note_on_c, 0, 75, 75
1, 39672, Note_on_c, 0, 75, 0
1, 39672, Note_on_c, 0, 77, 76
1, 39695, Note_on_c, 0, 77, 0
1, 39696, Note_on_c, 0, 79, 72
1, 39720, Note_on_c, 0, 79, 0
1, 39720, Note_on_c, 0, 77, 72
1, 39743, Note_on_c, 0, 77, 0
1, 39744, Note_on_c, 0, 77, 72
1, 39792, Note_on_c, 1, 62, 65
1, 39792, Note_on_c, 1, 59, 65
1, 39792, Note_on_c, 1, 55, 65
1, 39837, Note_on_c, 1, 62, 0
1, 39837, Note_on_c, 1, 59, 0
1, 39837, Note_on_c, 1, 55, 0
1, 39840, Note_on_c, 1, 62, 65
1, 39840, Note_on_c, 1, 59, 65
1, 39840, Note_on_c, 1, 55, 65
1, 39885, Note_on_c, 1, 62, 0
1, 39885, Note_on_c, 1, 59, 0
1, 39885, Note_on_c, 1, 55, 0
1, 39888, Note_on_c, 1, 62, 65
1, 39888, Note_on_c, 1, 59, 65
1, 39888, Note_on_c, 1, 55, 65
1, 39921, Note_on_c, 0, 77, 0
1, 39933, Note_on_c, 1, 62, 0
1, 39933, Note_on_c, 1, 59, 0
1, 39933, Note_on_c, 1, 55, 0
1, 39936, Note_on_c, 0, 65, 72
1, 39948, Note_on_c, 0, 65, 0
1, 39948, Note_on_c, 0, 68, 72
1, 39960, Note_on_c, 0, 68, 0
1, 39960, Note_on_c, 0, 71, 72
1, 39972, Note_on_c, 0, 71, 0
1, 39972, Note_on_c, 0, 74, 72
1, 39984, Note_on_c, 0, 74, 0
1, 39984, Note_on_c, 0, 77, 72
1, 39999, Note_on_c, 0, 77, 0
1, 40000, Note_on_c, 0, 80, 72
1, 40015, Note_on_c, 0, 80, 0
1, 40016, Note_on_c, 0, 83, 72
1, 40031, Note_on_c, 0, 83, 0
1, 40032, Note_on_c, 0, 84, 88
1, 40080, Note_on_c, 1, 51, 65
1, 40125, Note_on_c, 1, 51, 0
1, 40128, Note_on_c, 1, 60, 65
1, 40151, Note_on_c, 0, 84, 0
1, 40152, Note_on_c, 0, 82, 72
1, 40175, Note_on_c, 0, 82, 0
1, 40176, Note_on_c, 0, 80, 72
1, 40199, Note_on_c, 0, 80, 0
1, 40200, Note_on_c, 0, 79, 72
1, 40217, Note_on_c, 1, 60, 0
1, 40223, Note_on_c, 0, 79, 0
1, 40224, Note_on_c, 0, 77, 72
1, 40247, Note_on_c, 0, 77, 0
1, 40248, Note_on_c, 0, 75, 72
1, 40271, Note_on_c, 0, 75, 0
1, 40272, Note_on_c, 0, 74, 72
1, 40295, Note_on_c, 0, 74, 0
1, 40296, Note_on_c, 0, 72, 72
1, 40319, Note_on_c, 0, 72, 0
1, 40320, Note_on_c, 0, 75, 72
1, 40320, Note_on_c, 1, 53, 72
1, 40344, Note_on_c, 0, 75, 0
1, 40344, Note_on_c, 0, 74, 72
1, 40367, Note_on_c, 0, 74, 0
1, 40368, Note_on_c, 0, 77, 72
1, 40368, Note_on_c, 1, 65, 65
1, 40392, Note_on_c, 0, 77, 0
1, 40392, Note_on_c, 0, 74, 72
1, 40409, Note_on_c, 1, 53, 0
1, 40413, Note_on_c, 1, 65, 0
1, 40415, Note_on_c, 0, 74, 0
1, 40416, Note_on_c, 0, 72, 72
1, 40416, Note_on_c, 1, 63, 65
1, 40416, Note_on_c, 1, 55, 72
1, 40505, Note_on_c, 0, 72, 0
1, 40505, Note_on_c, 1, 63, 0
1, 40512, Note_on_c, 0, 71, 72
1, 40512, Note_on_c, 1, 62, 65
1, 40593, Note_on_c, 1, 55, 0
1, 40601, Note_on_c, 0, 71, 0
1, 40601, Note_on_c, 1, 62, 0
1, 40608, Note_on_c, 0, 80, 85
1, 40608, Note_on_c, 1, 53, 85
1, 40608, Note_on_c, 1, 49, 85
1, 40608, Note_on_c, 1, 44, 85
1, 40608, Note_on_c, 1, 41, 85
1, 40631, Note_on_c, 0, 80, 0
1, 40632, Note_on_c, 0, 73, 85
1, 40655, Note_on_c, 0, 73, 0
1, 40656, Note_on_c, 0, 73, 85
1, 40668, Note_on_c, 0, 73, 0
1, 40668, Note_on_c, 0, 75, 85
1, 40680, Note_on_c, 0, 75, 0
1, 40680, Note_on_c, 0, 73, 85
1, 40692, Note_on_c, 0, 73, 0
1, 40692, Note_on_c, 0, 75, 85
1, 40701, Note_on_c, 0, 75, 0
1, 40704, Note_on_c, 0, 77, 85
1, 40727, Note_on_c, 0, 77, 0
1, 40728, Note_on_c, 0, 68, 85
1, 40751, Note_on_c, 0, 68, 0
1, 40752, Note_on_c, 0, 68, 85
1, 40764, Note_on_c, 0, 68, 0
1, 40764, Note_on_c, 0, 70, 85
1, 40776, Note_on_c, 0, 70, 0
1, 40776, Note_on_c, 0, 68, 85
1, 40788, Note_on_c, 0, 68, 0
1, 40788, Note_on_c, 0, 70, 85
1, 40797, Note_on_c, 0, 70, 0
1, 40800, Note_on_c, 0, 73, 85
1, 40823, Note_on_c, 0, 73, 0
1, 40824, Note_on_c, 0, 65, 85
1, 40847, Note_on_c, 0, 65, 0
1, 40848, Note_on_c, 0, 65, 85
1, 40860, Note_on_c, 0, 65, 0
1, 40860, Note_on_c, 0, 67, 85
1, 40872, Note_on_c, 0, 67, 0
1, 40872, Note_on_c, 0, 65, 85
1, 40884, Note_on_c, 0, 65, 0
1, 40884, Note_on_c, 0, 67, 85
1, 40893, Note_on_c, 0, 67, 0
1, 40896, Note_on_c, 0, 68, 85
1, 40919, Note_on_c, 0, 68, 0
1, 40920, Note_on_c, 0, 61, 85
1, 40943, Note_on_c, 0, 61, 0
1, 40944, Note_on_c, 0, 61, 85
1, 40956, Note_on_c, 0, 61, 0
1, 40956, Note_on_c, 0, 63, 85
1, 40968, Note_on_c, 0, 63, 0
1, 40968, Note_on_c, 0, 61, 85
1, 40980, Note_on_c, 0, 61, 0
1, 40980, Note_on_c, 0, 63, 85
1, 40989, Note_on_c, 0, 63, 0
1, 40992, Note_on_c, 0, 65, 85
1, 41015, Note_on_c, 0, 65, 0
1, 41016, Note_on_c, 0, 56, 85
1, 41039, Note_on_c, 0, 56, 0
1, 41040, Note_on_c, 0, 56, 85
1, 41052, Note_on_c, 0, 56, 0
1, 41052, Note_on_c, 0, 58, 85
1, 41064, Note_on_c, 0, 58, 0
1, 41064, Note_on_c, 0, 56, 85
1, 41076, Note_on_c, 0, 56, 0
1, 41076, Note_on_c, 0, 58, 85
1, 41085, Note_on_c, 0, 58, 0
1, 41088, Note_on_c, 0, 61, 85
1, 41133, Note_on_c, 0, 61, 0
1, 41136, Note_on_c, 0, 60, 85
1, 41161, Note_on_c, 1, 53, 0
1, 41161, Note_on_c, 1, 49, 0
1, 41161, Note_on_c, 1, 44, 0
1, 41161, Note_on_c, 1, 41, 0
1, 41181, Note_on_c, 0, 60, 0
1, 41184, Note_on_c, 0, 59, 85
1, 41184, Note_on_c, 1, 53, 85
1, 41184, Note_on_c, 1, 50, 85
1, 41184, Note_on_c, 1, 43, 85
1, 41199, Note_on_c, 0, 59, 0
1, 41200, Note_on_c, 0, 57, 85
1, 41215, Note_on_c, 0, 57, 0
1, 41216, Note_on_c, 0, 55, 85
1, 41231, Note_on_c, 0, 55, 0
1, 41232, Note_on_c, 0, 62, 85
1, 41247, Note_on_c, 0, 62, 0
1, 41248, Note_on_c, 0, 60, 85
1, 41263, Note_on_c, 0, 60, 0
1, 41264, Note_on_c, 0, 59, 85
1, 41279, Note_on_c, 0, 59, 0
1, 41280, Note_on_c, 0, 65, 85
1, 41295, Note_on_c, 0, 65, 0
1, 41296, Note_on_c, 0, 63, 85
1, 41311, Note_on_c, 0, 63, 0
1, 41312, Note_on_c, 0, 62, 85
1, 41327, Note_on_c, 0, 62, 0
1, 41328, Note_on_c, 0, 68, 85
1, 41343, Note_on_c, 0, 68, 0
1, 41344, Note_on_c, 0, 67, 85
1, 41359, Note_on_c, 0, 67, 0
1, 41360, Note_on_c, 0, 65, 85
1, 41361, Note_on_c, 1, 53, 0
1, 41361, Note_on_c, 1, 50, 0
1, 41361, Note_on_c, 1, 43, 0
1, 41375, Note_on_c, 0, 65, 0
1, 41376, Note_on_c, 0, 74, 85
1, 41376, Note_on_c, 1, 47, 85
1, 41391, Note_on_c, 0, 74, 0
1, 41392, Note_on_c, 0, 72, 85
1, 41407, Note_on_c, 0, 72, 0
1, 41408, Note_on_c, 0, 71, 85
1, 41423, Note_on_c, 0, 71, 0
1, 41424, Note_on_c, 0, 68, 85
1, 41439, Note_on_c, 0, 68, 0
1, 41440, Note_on_c, 0, 67, 85
1, 41455, Note_on_c, 0, 67, 0
1, 41456, Note_on_c, 0, 65, 85
1, 41465, Note_on_c, 1, 47, 0
1, 41471, Note_on_c, 0, 65, 0
1, 41472, Note_on_c, 0, 63, 85
1, 41472, Note_on_c, 1, 48, 85
1, 41487, Note_on_c, 0, 63, 0
1, 41488, Note_on_c, 0, 67, 85
1, 41503, Note_on_c, 0, 67, 0
1, 41504, Note_on_c, 0, 65, 86
1, 41511, Note_on_c, 1, 48, 0
1, 41519, Note_on_c, 0, 65, 0
1, 41520, Note_on_c, 0, 63, 87
1, 41535, Note_on_c, 0, 63, 0
1, 41536, Note_on_c, 0, 62, 87
1, 41551, Note_on_c, 0, 62, 0
1, 41552, Note_on_c, 0, 60, 88
1, 41567, Note_on_c, 0, 60, 0
1, 41568, Note_on_c, 0, 68, 89
1, 41568, Note_on_c, 1, 41, 85
1, 41583, Note_on_c, 0, 68, 0
1, 41584, Note_on_c, 0, 72, 89
1, 41599, Note_on_c, 0, 72, 0
1, 41600, Note_on_c, 0, 70, 90
1, 41607, Note_on_c, 1, 41, 0
1, 41615, Note_on_c, 0, 70, 0
1, 41616, Note_on_c, 0, 68, 91
1, 41631, Note_on_c, 0, 68, 0
1, 41632, Note_on_c, 0, 67, 91
1, 41647, Note_on_c, 0, 67, 0
1, 41648, Note_on_c, 0, 65, 92
1, 41663, Note_on_c, 0, 65, 0
1, 41664, Note_on_c, 0, 63, 93
1, 41664, Note_on_c, 1, 43, 85
1, 41679, Note_on_c, 0, 63, 0
1, 41680, Note_on_c, 0, 62, 92
1, 41695, Note_on_c, 0, 62, 0
1, 41696, Note_on_c, 0, 60, 91
1, 41703, Note_on_c, 1, 43, 0
1, 41711, Note_on_c, 0, 60, 0
1, 41712, Note_on_c, 0, 59, 91
1, 41727, Note_on_c, 0, 59, 0
1, 41728, Note_on_c, 0, 60, 90
1, 41743, Note_on_c, 0, 60, 0
1, 41744, Note_on_c, 0, 62, 89
1, 41759, Note_on_c, 0, 62, 0
1, 41760, Note_on_c, 0, 63, 85
1, 41760, Note_on_c, 1, 48, 85
1, 41775, Note_on_c, 0, 63, 0
1, 41776, Note_on_c, 0, 67, 85
1, 41791, Note_on_c, 0, 67, 0
1, 41792, Note_on_c, 0, 65, 86
1, 41799, Note_on_c, 1, 48, 0
1, 41807, Note_on_c, 0, 65, 0
1, 41808, Note_on_c, 0, 63, 87
1, 41823, Note_on_c, 0, 63, 0
1, 41824, Note_on_c, 0, 62, 87
1, 41839, Note_on_c, 0, 62, 0
1, 41840, Note_on_c, 0, 60, 88
1, 41855, Note_on_c, 0, 60, 0
1, 41856, Note_on_c, 0, 68, 89
1, 41856, Note_on_c, 1, 41, 85
1, 41871, Note_on_c, 0, 68, 0
1, 41872, Note_on_c, 0, 72, 89
1, 41887, Note_on_c, 0, 72, 0
1, 41888, Note_on_c, 0, 70, 90
1, 41895, Note_on_c, 1, 41, 0
1, 41903, Note_on_c, 0, 70, 0
1, 41904, Note_on_c, 0, 68, 91
1, 41919, Note_on_c, 0, 68, 0
1, 41920, Note_on_c, 0, 67, 91
1, 41935, Note_on_c, 0, 67, 0
1, 41936, Note_on_c, 0, 65, 92
1, 41951, Note_on_c, 0, 65, 0
1, 41952, Note_on_c, 0, 63, 93
1, 41952, Note_on_c, 1, 43, 85
1, 41967, Note_on_c, 0, 63, 0
1, 41968, Note_on_c, 0, 62, 92
1, 41983, Note_on_c, 0, 62, 0
1, 41984, Note_on_c, 0, 60, 91
1, 41991, Note_on_c, 1, 43, 0
1, 41999, Note_on_c, 0, 60, 0
1, 42000, Note_on_c, 0, 59, 91
1, 42015, Note_on_c, 0, 59, 0
1, 42016, Note_on_c, 0, 60, 90
1, 42031, Note_on_c, 0, 60, 0
1, 42032, Note_on_c, 0, 62, 89
1, 42047, Note_on_c, 0, 62, 0
1, 42048, Note_on_c, 0, 60, 85
1, 42096, Note_on_c, 1, 36, 72
1, 42141, Note_on_c, 1, 36, 0
1, 42144, Note_on_c, 1, 48, 72
1, 42181, Note_on_c, 0, 60, 0
1, 42192, Note_on_c, 0, 59, 75
1, 42233, Note_on_c, 1, 48, 0
1, 42237, Note_on_c, 0, 59, 0
1, 42240, Note_on_c, 0, 65, 72
1, 42240, Note_on_c, 0, 62, 72
1, 42285, Note_on_c, 0, 65, 0
1, 42285, Note_on_c, 0, 62, 0
1, 42288, Note_on_c, 0, 62, 72
1, 42288, Note_on_c, 0, 59, 72
1, 42333, Note_on_c, 0, 62, 0
1, 42333, Note_on_c, 0, 59, 0
1, 42336, Note_on_c, 0, 63, 72
1, 42336, Note_on_c, 0, 60, 72
1, 42384, Note_on_c, 1, 36, 72
1, 42429, Note_on_c, 1, 36, 0
1, 42432, Note_on_c, 1, 48, 72
1, 42469, Note_on_c, 0, 63, 0
1, 42469, Note_on_c, 0, 60, 0
1, 42480, Note_on_c, 0, 62, 72
1, 42480, Note_on_c, 0, 59, 72
1, 42521, Note_on_c, 1, 48, 0
1, 42525, Note_on_c, 0, 62, 0
1, 42525, Note_on_c, 0, 59, 0
1, 42528, Note_on_c, 0, 68, 72
1, 42528, Note_on_c, 0, 65, 72
1, 42573, Note_on_c, 0, 68, 0
1, 42573, Note_on_c, 0, 65, 0
1, 42576, Note_on_c, 0, 65, 72
1, 42576, Note_on_c, 0, 62, 72
1, 42621, Note_on_c, 0, 65, 0
1, 42621, Note_on_c, 0, 62, 0
1, 42624, Note_on_c, 0, 67, 72
1, 42624, Note_on_c, 0, 63, 72
1, 42672, Note_on_c, 1, 36, 72
1, 42717, Note_on_c, 1, 36, 0
1, 42720, Note_on_c, 1, 48, 72
1, 42757, Note_on_c, 0, 67, 0
1, 42757, Note_on_c, 0, 63, 0
1, 42768, Note_on_c, 0, 72, 72
1, 42780, Note_on_c, 0, 72, 0
1, 42780, Note_on_c, 0, 68, 72
1, 42809, Note_on_c, 1, 48, 0
1, 42814, Note_on_c, 0, 68, 0
1, 42816, Note_on_c, 0, 70, 72
1, 42828, Note_on_c, 0, 70, 0
1, 42828, Note_on_c, 0, 67, 72
1, 42862, Note_on_c, 0, 67, 0
1, 42864, Note_on_c, 0, 68, 72
1, 42876, Note_on_c, 0, 68, 0
1, 42876, Note_on_c, 0, 65, 73
1, 42910, Note_on_c, 0, 65, 0
1, 42912, Note_on_c, 0, 67, 73
1, 42912, Note_on_c, 0, 63, 73
1, 42960, Note_on_c, 1, 36, 73
1, 43005, Note_on_c, 1, 36, 0
1, 43008, Note_on_c, 1, 48, 73
1, 43045, Note_on_c, 0, 67, 0
1, 43045, Note_on_c, 0, 63, 0
1, 43056, Note_on_c, 0, 72, 74
1, 43068, Note_on_c, 0, 72, 0
1, 43068, Note_on_c, 0, 68, 75
1, 43097, Note_on_c, 1, 48, 0
1, 43102, Note_on_c, 0, 68, 0
1, 43104, Note_on_c, 0, 70, 75
1, 43116, Note_on_c, 0, 70, 0
1, 43116, Note_on_c, 0, 67, 75
1, 43150, Note_on_c, 0, 67, 0
1, 43152, Note_on_c, 0, 68, 75
1, 43164, Note_on_c, 0, 68, 0
1, 43164, Note_on_c, 0, 65, 75
1, 43198, Note_on_c, 0, 65, 0
1, 43200, Note_on_c, 0, 67, 76
1, 43200, Note_on_c, 0, 64, 76
1, 43248, Note_on_c, 1, 36, 75
1, 43293, Note_on_c, 1, 36, 0
1, 43296, Note_on_c, 1, 48, 76
1, 43333, Note_on_c, 0, 67, 0
1, 43333, Note_on_c, 0, 64, 0
1, 43344, Note_on_c, 0, 73, 77
1, 43356, Note_on_c, 0, 73, 0
1, 43356, Note_on_c, 0, 70, 77
1, 43385, Note_on_c, 1, 48, 0
1, 43390, Note_on_c, 0, 70, 0
1, 43392, Note_on_c, 0, 72, 78
1, 43404, Note_on_c, 0, 72, 0
1, 43404, Note_on_c, 0, 68, 78
1, 43438, Note_on_c, 0, 68, 0
1, 43440, Note_on_c, 0, 70, 78
1, 43452, Note_on_c, 0, 70, 0
1, 43452, Note_on_c, 0, 67, 78
1, 43486, Note_on_c, 0, 67, 0
1, 43488, Note_on_c, 0, 68, 79
1, 43488, Note_on_c, 1, 53, 77
1, 43488, Note_on_c, 1, 41, 77
1, 43500, Note_on_c, 0, 68, 0
1, 43500, Note_on_c, 0, 65, 79
1, 43533, Note_on_c, 1, 53, 0
1, 43533, Note_on_c, 1, 41, 0
1, 43534, Note_on_c, 0, 65, 0
1, 43536, Note_on_c, 0, 67, 79
1, 43536, Note_on_c, 1, 51, 78
1, 43536, Note_on_c, 1, 39, 78
1, 43548, Note_on_c, 0, 67, 0
1, 43548, Note_on_c, 0, 63, 79
1, 43581, Note_on_c, 1, 51, 0
1, 43581, Note_on_c, 1, 39, 0
1, 43582, Note_on_c, 0, 63, 0
1, 43584, Note_on_c, 0, 65, 80
1, 43584, Note_on_c, 1, 50, 78
1, 43584, Note_on_c, 1, 38, 78
1, 43596, Note_on_c, 0, 65, 0
1, 43596, Note_on_c, 0, 62, 80
1, 43629, Note_on_c, 1, 50, 0
1, 43629, Note_on_c, 1, 38, 0
1, 43630, Note_on_c, 0, 62, 0
1, 43632, Note_on_c, 0, 63, 80
1, 43632, Note_on_c, 1, 48, 78
1, 43632, Note_on_c, 1, 36, 78
1, 43644, Note_on_c, 0, 63, 0
1, 43644, Note_on_c, 0, 60, 80
1, 43677, Note_on_c, 1, 48, 0
1, 43677, Note_on_c, 1, 36, 0
1, 43678, Note_on_c, 0, 60, 0
1, 43680, Note_on_c, 0, 62, 81
1, 43680, Note_on_c, 1, 46, 79
1, 43680, Note_on_c, 1, 34, 79
1, 43692, Note_on_c, 0, 62, 0
1, 43692, Note_on_c, 0, 58, 81
1, 43725, Note_on_c, 1, 46, 0
1, 43725, Note_on_c, 1, 34, 0
1, 43726, Note_on_c, 0, 58, 0
1, 43728, Note_on_c, 0, 60, 81
1, 43728, Note_on_c, 1, 45, 79
1, 43728, Note_on_c, 1, 33, 79
1, 43740, Note_on_c, 0, 60, 0
1, 43740, Note_on_c, 0, 57, 81
1, 43773, Note_on_c, 1, 45, 0
1, 43773, Note_on_c, 1, 33, 0
1, 43774, Note_on_c, 0, 57, 0
1, 43776, Note_on_c, 0, 58, 82
1, 43776, Note_on_c, 1, 46, 80
1, 43776, Note_on_c, 1, 34, 80
1, 43821, Note_on_c, 0, 58, 0
1, 43824, Note_on_c, 0, 56, 82
1, 43836, Note_on_c, 0, 56, 0
1, 43836, Note_on_c, 0, 68, 82
1, 43869, Note_on_c, 0, 68, 0
1, 43872, Note_on_c, 0, 58, 83
1, 43884, Note_on_c, 0, 58, 0
1, 43884, Note_on_c, 0, 70, 83
1, 43917, Note_on_c, 0, 70, 0
1, 43920, Note_on_c, 0, 62, 83
1, 43932, Note_on_c, 0, 62, 0
1, 43932, Note_on_c, 0, 74, 83
1, 43965, Note_on_c, 0, 74, 0
1, 43968, Note_on_c, 0, 65, 84
1, 43980, Note_on_c, 0, 65, 0
1, 43980, Note_on_c, 0, 77, 84
1, 44013, Note_on_c, 0, 77, 0
1, 44016, Note_on_c, 0, 67, 84
1, 44028, Note_on_c, 0, 67, 0
1, 44028, Note_on_c, 0, 79, 84
1, 44041, Note_on_c, 1, 46, 0
1, 44041, Note_on_c, 1, 34, 0
1, 44061, Note_on_c, 0, 79, 0
1, 44064, Note_on_c, 0, 68, 85
1, 44064, Note_on_c, 1, 56, 82
1, 44064, Note_on_c, 1, 53, 82
1, 44064, Note_on_c, 1, 50, 82
1, 44064, Note_on_c, 1, 46, 82
1, 44082, Note_on_c, 0, 68, 0
1, 44082, Note_on_c, 0, 80, 85
1, 44375, Note_on_c, 0, 80, 0
1, 44376, Note_on_c, 0, 79, 85
1, 44399, Note_on_c, 0, 79, 0
1, 44400, Note_on_c, 0, 82, 85
1, 44423, Note_on_c, 0, 82, 0
1, 44424, Note_on_c, 0, 80, 85
1, 44447, Note_on_c, 0, 80, 0
1, 44448, Note_on_c, 0, 84, 85
1, 44471, Note_on_c, 0, 84, 0
1, 44472, Note_on_c, 0, 82, 84
1, 44495, Note_on_c, 0, 82, 0
1, 44496, Note_on_c, 0, 80, 83
1, 44519, Note_on_c, 0, 80, 0
1, 44520, Note_on_c, 0, 79, 82
1, 44543, Note_on_c, 0, 79, 0
1, 44544, Note_on_c, 0, 77, 82
1, 44567, Note_on_c, 0, 77, 0
1, 44568, Note_on_c, 0, 75, 81
1, 44591, Note_on_c, 0, 75, 0
1, 44592, Note_on_c, 0, 74, 80
1, 44615, Note_on_c, 0, 74, 0
1, 44616, Note_on_c, 0, 72, 79
1, 44617, Note_on_c, 1, 56, 0
1, 44617, Note_on_c, 1, 53, 0
1, 44617, Note_on_c, 1, 50, 0
1, 44617, Note_on_c, 1, 46, 0
1, 44639, Note_on_c, 0, 72, 0
1, 44640, Note_on_c, 0, 70, 79
1, 44688, Note_on_c, 1, 39, 79
1, 44733, Note_on_c, 1, 39, 0
1, 44736, Note_on_c, 1, 43, 79
1, 44759, Note_on_c, 0, 70, 0
1, 44760, Note_on_c, 0, 67, 79
1, 44781, Note_on_c, 1, 43, 0
1, 44783, Note_on_c, 0, 67, 0
1, 44784, Note_on_c, 0, 68, 79
1, 44784, Note_on_c, 1, 46, 79
1, 44807, Note_on_c, 0, 68, 0
1, 44808, Note_on_c, 0, 65, 79
1, 44829, Note_on_c, 1, 46, 0
1, 44831, Note_on_c, 0, 65, 0
1, 44832, Note_on_c, 0, 67, 79
1, 44832, Note_on_c, 1, 51, 79
1, 44855, Note_on_c, 0, 67, 0
1, 44856, Note_on_c, 0, 63, 79
1, 44877, Note_on_c, 1, 51, 0
1, 44879, Note_on_c, 0, 63, 0
1, 44880, Note_on_c, 0, 65, 79
1, 44880, Note_on_c, 1, 56, 79
1, 44903, Note_on_c, 0, 65, 0
1, 44904, Note_on_c, 0, 62, 79
1, 44925, Note_on_c, 1, 56, 0
1, 44927, Note_on_c, 0, 62, 0
1, 44928, Note_on_c, 0, 63, 79
1, 44928, Note_on_c, 1, 55, 79
1, 44948, Note_on_c, 0, 63, 0
1, 44976, Note_on_c, 0, 58, 81
1, 44996, Note_on_c, 0, 58, 0
1, 45017, Note_on_c, 1, 55, 0
1, 45024, Note_on_c, 0, 55, 83
1, 45044, Note_on_c, 0, 55, 0
1, 45072, Note_on_c, 0, 58, 85
1, 45092, Note_on_c, 0, 58, 0
1, 45120, Note_on_c, 0, 63, 83
1, 45140, Note_on_c, 0, 63, 0
1, 45168, Note_on_c, 0, 67, 81
1, 45188, Note_on_c, 0, 67, 0
1, 45216, Note_on_c, 0, 70, 79
1, 45264, Note_on_c, 1, 39, 79
1, 45309, Note_on_c, 1, 39, 0
1, 45312, Note_on_c, 1, 43, 79
1, 45335, Note_on_c, 0, 70, 0
1, 45336, Note_on_c, 0, 67, 79
1, 45357, Note_on_c, 1, 43, 0
1, 45359, Note_on_c, 0, 67, 0
1, 45360, Note_on_c, 0, 68, 79
1, 45360, Note_on_c, 1, 46, 79
1, 45383, Note_on_c, 0, 68, 0
1, 45384, Note_on_c, 0, 65, 79
1, 45405, Note_on_c, 1, 46, 0
1, 45407, Note_on_c, 0, 65, 0
1, 45408, Note_on_c, 0, 67, 79
1, 45408, Note_on_c, 1, 51, 79
1, 45431, Note_on_c, 0, 67, 0
1, 45432, Note_on_c, 0, 63, 79
1, 45453, Note_on_c, 1, 51, 0
1, 45455, Note_on_c, 0, 63, 0
1, 45456, Note_on_c, 0, 65, 79
1, 45456, Note_on_c, 1, 56, 79
1, 45479, Note_on_c, 0, 65, 0
1, 45480, Note_on_c, 0, 62, 79
1, 45501, Note_on_c, 1, 56, 0
1, 45503, Note_on_c, 0, 62, 0
1, 45504, Note_on_c, 0, 63, 79
1, 45504, Note_on_c, 1, 55, 79
1, 45549, Note_on_c, 0, 63, 0
1, 45552, Note_on_c, 0, 67, 79
1, 45576, Note_on_c, 0, 67, 0
1, 45576, Note_on_c, 0, 75, 79
1, 45593, Note_on_c, 1, 55, 0
1, 45599, Note_on_c, 0, 75, 0
1, 45600, Note_on_c, 0, 67, 79
1, 45624, Note_on_c, 0, 67, 0
1, 45624, Note_on_c, 0, 75, 79
1, 45647, Note_on_c, 0, 75, 0
1, 45648, Note_on_c, 0, 67, 79
1, 45672, Note_on_c, 0, 67, 0
1, 45672, Note_on_c, 0, 75, 79
1, 45695, Note_on_c, 0, 75, 0
1, 45696, Note_on_c, 0, 67, 79
1, 45720, Note_on_c, 0, 67, 0
1, 45720, Note_on_c, 0, 75, 79
1, 45743, Note_on_c, 0, 75, 0
1, 45744, Note_on_c, 0, 67, 79
1, 45768, Note_on_c, 0, 67, 0
1, 45768, Note_on_c, 0, 75, 79
1, 45791, Note_on_c, 0, 75, 0
1, 45792, Note_on_c, 0, 75, 95
1, 45792, Note_on_c, 0, 65, 79
1, 45840, Note_on_c, 1, 68, 79
1, 45864, Note_on_c, 1, 68, 0
1, 45864, Note_on_c, 1, 70, 79
1, 45887, Note_on_c, 1, 70, 0
1, 45888, Note_on_c, 1, 68, 79
1, 45912, Note_on_c, 1, 68, 0
1, 45912, Note_on_c, 1, 70, 79
1, 45935, Note_on_c, 1, 70, 0
1, 45936, Note_on_c, 1, 68, 79
1, 45960, Note_on_c, 1, 68, 0
1, 45960, Note_on_c, 1, 70, 79
1, 45983, Note_on_c, 1, 70, 0
1, 45984, Note_on_c, 0, 75, 0
1, 45984, Note_on_c, 0, 74, 79
1, 45984, Note_on_c, 1, 68, 79
1, 46008, Note_on_c, 1, 68, 0
1, 46008, Note_on_c, 1, 70, 79
1, 46031, Note_on_c, 1, 70, 0
1, 46032, Note_on_c, 1, 68, 79
1, 46056, Note_on_c, 1, 68, 0
1, 46056, Note_on_c, 1, 70, 79
1, 46057, Note_on_c, 0, 65, 0
1, 46073, Note_on_c, 0, 74, 0
1, 46079, Note_on_c, 1, 70, 0
1, 46080, Note_on_c, 1, 70, 79
1, 46080, Note_on_c, 1, 68, 72
1, 46128, Note_on_c, 0, 73, 79
1, 46152, Note_on_c, 0, 73, 0
1, 46152, Note_on_c, 0, 82, 79
1, 46175, Note_on_c, 0, 82, 0
1, 46176, Note_on_c, 0, 73, 79
1, 46200, Note_on_c, 0, 73, 0
1, 46200, Note_on_c, 0, 82, 79
1, 46223, Note_on_c, 0, 82, 0
1, 46224, Note_on_c, 0, 73, 79
1, 46248, Note_on_c, 0, 73, 0
1, 46248, Note_on_c, 0, 82, 79
1, 46271, Note_on_c, 0, 82, 0
1, 46272, Note_on_c, 0, 73, 79
1, 46272, Note_on_c, 1, 68, 0
1, 46272, Note_on_c, 1, 67, 72
1, 46296, Note_on_c, 0, 73, 0
1, 46296, Note_on_c, 0, 82, 79
1, 46319, Note_on_c, 0, 82, 0
1, 46320, Note_on_c, 0, 73, 79
1, 46344, Note_on_c, 0, 73, 0
1, 46344, Note_on_c, 0, 82, 79
1, 46345, Note_on_c, 1, 70, 0
1, 46361, Note_on_c, 1, 67, 0
1, 46367, Note_on_c, 0, 82, 0
1, 46368, Note_on_c, 0, 82, 79
1, 46368, Note_on_c, 0, 73, 79
1, 46416, Note_on_c, 1, 44, 79
1, 46440, Note_on_c, 1, 44, 0
1, 46440, Note_on_c, 1, 56, 79
1, 46457, Note_on_c, 0, 82, 0
1, 46457, Note_on_c, 0, 73, 0
1, 46463, Note_on_c, 1, 56, 0
1, 46464, Note_on_c, 0, 80, 79
1, 46464, Note_on_c, 0, 72, 79
1, 46464, Note_on_c, 1, 44, 79
1, 46488, Note_on_c, 1, 44, 0
1, 46488, Note_on_c, 1, 56, 79
1, 46509, Note_on_c, 0, 80, 0
1, 46509, Note_on_c, 0, 72, 0
1, 46511, Note_on_c, 1, 56, 0
1, 46512, Note_on_c, 0, 79, 79
1, 46512, Note_on_c, 0, 70, 79
1, 46512, Note_on_c, 1, 44, 79
1, 46536, Note_on_c, 1, 44, 0
1, 46536, Note_on_c, 1, 56, 79
1, 46557, Note_on_c, 0, 79, 0
1, 46557, Note_on_c, 0, 70, 0
1, 46559, Note_on_c, 1, 56, 0
1, 46560, Note_on_c, 0, 77, 79
1, 46560, Note_on_c, 0, 68, 79
1, 46560, Note_on_c, 1, 46, 79
1, 46584, Note_on_c, 1, 46, 0
1, 46584, Note_on_c, 1, 58, 79
1, 46605, Note_on_c, 0, 77, 0
1, 46605, Note_on_c, 0, 68, 0
1, 46607, Note_on_c, 1, 58, 0
1, 46608, Note_on_c, 0, 74, 79
1, 46608, Note_on_c, 0, 65, 79
1, 46608, Note_on_c, 1, 46, 79
1, 46632, Note_on_c, 1, 46, 0
1, 46632, Note_on_c, 1, 58, 79
1, 46653, Note_on_c, 0, 74, 0
1, 46653, Note_on_c, 0, 65, 0
1, 46655, Note_on_c, 1, 58, 0
1, 46656, Note_on_c, 0, 75, 79
1, 46656, Note_on_c, 0, 67, 79
1, 46656, Note_on_c, 1, 39, 79
1, 46701, Note_on_c, 1, 39, 0
1, 46704, Note_on_c, 1, 67, 79
1, 46704, Note_on_c, 1, 63, 79
1, 46724, Note_on_c, 1, 67, 0
1, 46724, Note_on_c, 1, 63, 0
1, 46745, Note_on_c, 0, 75, 0
1, 46745, Note_on_c, 0, 67, 0
1, 46752, Note_on_c, 1, 67, 79
1, 46752, Note_on_c, 1, 63, 79
1, 46772, Note_on_c, 1, 67, 0
1, 46772, Note_on_c, 1, 63, 0
1, 46800, Note_on_c, 1, 67, 79
1, 46800, Note_on_c, 1, 63, 79
1, 46820, Note_on_c, 1, 67, 0
1, 46820, Note_on_c, 1, 63, 0
1, 46848, Note_on_c, 1, 67, 79
1, 46848, Note_on_c, 1, 63, 79
1, 46868, Note_on_c, 1, 67, 0
1, 46868, Note_on_c, 1, 63, 0
1, 46896, Note_on_c, 1, 67, 79
1, 46896, Note_on_c, 1, 63, 79
1, 46916, Note_on_c, 1, 67, 0
1, 46916, Note_on_c, 1, 63, 0
1, 46944, Note_on_c, 1, 65, 79
1, 46944, Note_on_c, 1, 63, 88
1, 46992, Note_on_c, 0, 70, 79
1, 46992, Note_on_c, 0, 68, 79
1, 47012, Note_on_c, 0, 70, 0
1, 47012, Note_on_c, 0, 68, 0
1, 47040, Note_on_c, 0, 70, 79
1, 47040, Note_on_c, 0, 68, 79
1, 47060, Note_on_c, 0, 70, 0
1, 47060, Note_on_c, 0, 68, 0
1, 47088, Note_on_c, 0, 70, 79
1, 47088, Note_on_c, 0, 68, 79
1, 47108, Note_on_c, 0, 70, 0
1, 47108, Note_on_c, 0, 68, 0
1, 47136, Note_on_c, 0, 70, 79
1, 47136, Note_on_c, 0, 68, 79
1, 47136, Note_on_c, 1, 63, 0
1, 47136, Note_on_c, 1, 62, 72
1, 47156, Note_on_c, 0, 70, 0
1, 47156, Note_on_c, 0, 68, 0
1, 47184, Note_on_c, 0, 70, 79
1, 47184, Note_on_c, 0, 68, 79
1, 47204, Note_on_c, 0, 70, 0
1, 47204, Note_on_c, 0, 68, 0
1, 47209, Note_on_c, 1, 65, 0
1, 47225, Note_on_c, 1, 62, 0
1, 47232, Note_on_c, 0, 70, 79
1, 47232, Note_on_c, 0, 68, 95
1, 47280, Note_on_c, 1, 73, 79
1, 47280, Note_on_c, 1, 63, 79
1, 47300, Note_on_c, 1, 73, 0
1, 47300, Note_on_c, 1, 63, 0
1, 47328, Note_on_c, 1, 73, 79
1, 47328, Note_on_c, 1, 63, 79
1, 47348, Note_on_c, 1, 73, 0
1, 47348, Note_on_c, 1, 63, 0
1, 47376, Note_on_c, 1, 73, 79
1, 47376, Note_on_c, 1, 63, 79
1, 47396, Note_on_c, 1, 73, 0
1, 47396, Note_on_c, 1, 63, 0
1, 47424, Note_on_c, 0, 68, 0
1, 47424, Note_on_c, 0, 67, 79
1, 47424, Note_on_c, 1, 73, 79
1, 47424, Note_on_c, 1, 63, 79
1, 47444, Note_on_c, 1, 73, 0
1, 47444, Note_on_c, 1, 63, 0
1, 47472, Note_on_c, 1, 73, 79
1, 47472, Note_on_c, 1, 63, 79
1, 47492, Note_on_c, 1, 73, 0
1, 47492, Note_on_c, 1, 63, 0
1, 47497, Note_on_c, 0, 70, 0
1, 47513, Note_on_c, 0, 67, 0
1, 47520, Note_on_c, 1, 73, 95
1, 47520, Note_on_c, 1, 63, 95
1, 47568, Note_on_c, 0, 79, 79
1, 47568, Note_on_c, 0, 70, 79
1, 47588, Note_on_c, 0, 79, 0
1, 47588, Note_on_c, 0, 70, 0
1, 47616, Note_on_c, 0, 79, 79
1, 47616, Note_on_c, 0, 70, 79
1, 47636, Note_on_c, 0, 79, 0
1, 47636, Note_on_c, 0, 70, 0
1, 47664, Note_on_c, 0, 79, 79
1, 47664, Note_on_c, 0, 70, 79
1, 47684, Note_on_c, 0, 79, 0
1, 47684, Note_on_c, 0, 70, 0
1, 47712, Note_on_c, 0, 79, 79
1, 47712, Note_on_c, 0, 70, 79
1, 47712, Note_on_c, 1, 73, 0
1, 47712, Note_on_c, 1, 63, 0
1, 47712, Note_on_c, 1, 72, 79
1, 47712, Note_on_c, 1, 64, 79
1, 47732, Note_on_c, 0, 79, 0
1, 47732, Note_on_c, 0, 70, 0
1, 47760, Note_on_c, 0, 79, 79
1, 47760, Note_on_c, 0, 70, 79
1, 47780, Note_on_c, 0, 79, 0
1, 47780, Note_on_c, 0, 70, 0
1, 47801, Note_on_c, 1, 72, 0
1, 47801, Note_on_c, 1, 64, 0
1, 47808, Note_on_c, 0, 79, 95
1, 47808, Note_on_c, 0, 70, 95
1, 47856, Note_on_c, 1, 72, 79
1, 47856, Note_on_c, 1, 65, 79
1, 47876, Note_on_c, 1, 72, 0
1, 47876, Note_on_c, 1, 65, 0
1, 47904, Note_on_c, 1, 72, 79
1, 47904, Note_on_c, 1, 65, 79
1, 47924, Note_on_c, 1, 72, 0
1, 47924, Note_on_c, 1, 65, 0
1, 47952, Note_on_c, 1, 72, 79
1, 47952, Note_on_c, 1, 65, 79
1, 47972, Note_on_c, 1, 72, 0
1, 47972, Note_on_c, 1, 65, 0
1, 48000, Note_on_c, 0, 79, 0
1, 48000, Note_on_c, 0, 70, 0
1, 48000, Note_on_c, 0, 77, 79
1, 48000, Note_on_c, 0, 68, 79
1, 48000, Note_on_c, 1, 72, 79
1, 48000, Note_on_c, 1, 65, 79
1, 48020, Note_on_c, 1, 72, 0
1, 48020, Note_on_c, 1, 65, 0
1, 48048, Note_on_c, 1, 72, 79
1, 48048, Note_on_c, 1, 65, 79
1, 48067, Note_on_c, 0, 77, 0
1, 48067, Note_on_c, 0, 68, 0
1, 48068, Note_on_c, 1, 72, 0
1, 48068, Note_on_c, 1, 65, 0
1, 48072, Note_on_c, 0, 80, 79
1, 48072, Note_on_c, 0, 72, 79
1, 48095, Note_on_c, 0, 80, 0
1, 48095, Note_on_c, 0, 72, 0
1, 48096, Note_on_c, 0, 80, 95
1, 48096, Note_on_c, 0, 72, 95
1, 48144, Note_on_c, 1, 65, 79
1, 48144, Note_on_c, 1, 62, 79
1, 48164, Note_on_c, 1, 65, 0
1, 48164, Note_on_c, 1, 62, 0
1, 48192, Note_on_c, 1, 65, 79
1, 48192, Note_on_c, 1, 62, 79
1, 48212, Note_on_c, 1, 65, 0
1, 48212, Note_on_c, 1, 62, 0
1, 48240, Note_on_c, 1, 65, 79
1, 48240, Note_on_c, 1, 62, 79
1, 48260, Note_on_c, 1, 65, 0
1, 48260, Note_on_c, 1, 62, 0
1, 48288, Note_on_c, 0, 80, 0
1, 48288, Note_on_c, 0, 72, 0
1, 48288, Note_on_c, 0, 79, 79
1, 48288, Note_on_c, 0, 70, 79
1, 48288, Note_on_c, 1, 67, 79
1, 48288, Note_on_c, 1, 63, 79
1, 48308, Note_on_c, 1, 67, 0
1, 48308, Note_on_c, 1, 63, 0
1, 48336, Note_on_c, 1, 67, 79
1, 48336, Note_on_c, 1, 63, 79
1, 48356, Note_on_c, 1, 67, 0
1, 48356, Note_on_c, 1, 63, 0
1, 48377, Note_on_c, 0, 79, 0
1, 48377, Note_on_c, 0, 70, 0
1, 48384, Note_on_c, 0, 77, 79
1, 48384, Note_on_c, 1, 65, 79
1, 48384, Note_on_c, 1, 60, 79
1, 48384, Note_on_c, 1, 56, 79
1, 48407, Note_on_c, 0, 77, 0
1, 48408, Note_on_c, 0, 76, 79
1, 48431, Note_on_c, 0, 76, 0
1, 48432, Note_on_c, 0, 79, 80
1, 48455, Note_on_c, 0, 79, 0
1, 48456, Note_on_c, 0, 77, 81
1, 48479, Note_on_c, 0, 77, 0
1, 48480, Note_on_c, 0, 80, 82
1, 48503, Note_on_c, 0, 80, 0
1, 48504, Note_on_c, 0, 79, 82
1, 48527, Note_on_c, 0, 79, 0
1, 48528, Note_on_c, 0, 82, 83
1, 48551, Note_on_c, 0, 82, 0
1, 48552, Note_on_c, 0, 80, 84
1, 48561, Note_on_c, 1, 65, 0
1, 48561, Note_on_c, 1, 60, 0
1, 48561, Note_on_c, 1, 56, 0
1, 48575, Note_on_c, 0, 80, 0
1, 48576, Note_on_c, 0, 84, 101
1, 48576, Note_on_c, 1, 65, 79
1, 48576, Note_on_c, 1, 57, 79
1, 48648, Note_on_c, 0, 84, 0
1, 48648, Note_on_c, 0, 75, 83
1, 48671, Note_on_c, 0, 75, 0
1, 48672, Note_on_c, 0, 75, 83
1, 48672, Note_on_c, 1, 57, 0
1, 48672, Note_on_c, 1, 58, 79
1, 48761, Note_on_c, 1, 65, 0
1, 48761, Note_on_c, 1, 58, 0
1, 48768, Note_on_c, 1, 70, 79
1, 48849, Note_on_c, 0, 75, 0
1, 48862, Note_on_c, 1, 70, 0
1, 48864, Note_on_c, 0, 74, 79
1, 48912, Note_on_c, 0, 74, 0
1, 48912, Note_on_c, 0, 73, 79
1, 48957, Note_on_c, 0, 73, 0
1, 48960, Note_on_c, 0, 72, 79
1, 49008, Note_on_c, 1, 67, 65
1, 49008, Note_on_c, 1, 64, 65
1, 49056, Note_on_c, 1, 67, 0
1, 49056, Note_on_c, 1, 64, 0
1, 49056, Note_on_c, 1, 68, 65
1, 49056, Note_on_c, 1, 65, 65
1, 49079, Note_on_c, 0, 72, 0
1, 49080, Note_on_c, 0, 76, 79
1, 49103, Note_on_c, 0, 76, 0
1, 49104, Note_on_c, 0, 77, 79
1, 49127, Note_on_c, 0, 77, 0
1, 49128, Note_on_c, 0, 73, 79
1, 49145, Note_on_c, 1, 68, 0
1, 49145, Note_on_c, 1, 65, 0
1, 49151, Note_on_c, 0, 73, 0
1, 49152, Note_on_c, 0, 72, 79
1, 49175, Note_on_c, 0, 72, 0
1, 49176, Note_on_c, 0, 70, 79
1, 49199, Note_on_c, 0, 70, 0
1, 49200, Note_on_c, 0, 68, 79
1, 49223, Note_on_c, 0, 68, 0
1, 49224, Note_on_c, 0, 67, 79
1, 49247, Note_on_c, 0, 67, 0
1, 49248, Note_on_c, 0, 65, 79
1, 49271, Note_on_c, 0, 65, 0
1, 49272, Note_on_c, 0, 64, 79
1, 49295, Note_on_c, 0, 64, 0
1, 49296, Note_on_c, 0, 67, 79
1, 49319, Note_on_c, 0, 67, 0
1, 49320, Note_on_c, 0, 65, 79
1, 49343, Note_on_c, 0, 65, 0
1, 49344, Note_on_c, 0, 68, 79
1, 49367, Note_on_c, 0, 68, 0
1, 49368, Note_on_c, 0, 67, 79
1, 49391, Note_on_c, 0, 67, 0
1, 49392, Note_on_c, 0, 70, 79
1, 49415, Note_on_c, 0, 70, 0
1, 49416, Note_on_c, 0, 68, 79
1, 49439, Note_on_c, 0, 68, 0
1, 49440, Note_on_c, 0, 72, 79
1, 49485, Note_on_c, 0, 72, 0
1, 49536, Note_on_c, 0, 70, 79
1, 49584, Note_on_c, 1, 65, 72
1, 49584, Note_on_c, 1, 62, 72
1, 49632, Note_on_c, 1, 65, 0
1, 49632, Note_on_c, 1, 62, 0
1, 49632, Note_on_c, 1, 67, 72
1, 49632, Note_on_c, 1, 63, 72
1, 49655, Note_on_c, 0, 70, 0
1, 49656, Note_on_c, 0, 74, 79
1, 49679, Note_on_c, 0, 74, 0
1, 49680, Note_on_c, 0, 75, 79
1, 49703, Note_on_c, 0, 75, 0
1, 49704, Note_on_c, 0, 72, 79
1, 49721, Note_on_c, 1, 67, 0
1, 49721, Note_on_c, 1, 63, 0
1, 49727, Note_on_c, 0, 72, 0
1, 49728, Note_on_c, 0, 70, 79
1, 49751, Note_on_c, 0, 70, 0
1, 49752, Note_on_c, 0, 68, 79
1, 49775, Note_on_c, 0, 68, 0
1, 49776, Note_on_c, 0, 67, 79
1, 49799, Note_on_c, 0, 67, 0
1, 49800, Note_on_c, 0, 65, 79
1, 49823, Note_on_c, 0, 65, 0
1, 49824, Note_on_c, 0, 63, 79
1, 49847, Note_on_c, 0, 63, 0
1, 49848, Note_on_c, 0, 62, 79
1, 49871, Note_on_c, 0, 62, 0
1, 49872, Note_on_c, 0, 65, 79
1, 49895, Note_on_c, 0, 65, 0
1, 49896, Note_on_c, 0, 63, 79
1, 49919, Note_on_c, 0, 63, 0
1, 49920, Note_on_c, 0, 67, 79
1, 49943, Note_on_c, 0, 67, 0
1, 49944, Note_on_c, 0, 65, 79
1, 49967, Note_on_c, 0, 65, 0
1, 49968, Note_on_c, 0, 68, 79
1, 49991, Note_on_c, 0, 68, 0
1, 49992, Note_on_c, 0, 67, 79
1, 50015, Note_on_c, 0, 67, 0
1, 50016, Note_on_c, 0, 70, 79
1, 50061, Note_on_c, 0, 70, 0
1, 50064, Note_on_c, 1, 55, 72
1, 50064, Note_on_c, 1, 51, 72
1, 50112, Note_on_c, 0, 65, 79
1, 50112, Note_on_c, 1, 55, 0
1, 50112, Note_on_c, 1, 51, 0
1, 50112, Note_on_c, 1, 60, 72
1, 50112, Note_on_c, 1, 56, 72
1, 50135, Note_on_c, 0, 65, 0
1, 50136, Note_on_c, 0, 64, 79
1, 50159, Note_on_c, 0, 64, 0
1, 50160, Note_on_c, 0, 67, 79
1, 50183, Note_on_c, 0, 67, 0
1, 50184, Note_on_c, 0, 65, 79
1, 50201, Note_on_c, 1, 60, 0
1, 50201, Note_on_c, 1, 56, 0
1, 50207, Note_on_c, 0, 65, 0
1, 50208, Note_on_c, 0, 68, 79
1, 50231, Note_on_c, 0, 68, 0
1, 50232, Note_on_c, 0, 67, 79
1, 50255, Note_on_c, 0, 67, 0
1, 50256, Note_on_c, 0, 70, 79
1, 50279, Note_on_c, 0, 70, 0
1, 50280, Note_on_c, 0, 68, 79
1, 50303, Note_on_c, 0, 68, 0
1, 50304, Note_on_c, 0, 72, 79
1, 50349, Note_on_c, 0, 72, 0
1, 50352, Note_on_c, 1, 58, 72
1, 50352, Note_on_c, 1, 55, 72
1, 50400, Note_on_c, 0, 64, 79
1, 50400, Note_on_c, 1, 58, 0
1, 50400, Note_on_c, 1, 55, 0
1, 50400, Note_on_c, 1, 60, 72
1, 50400, Note_on_c, 1, 56, 72
1, 50423, Note_on_c, 0, 64, 0
1, 50424, Note_on_c, 0, 65, 79
1, 50447, Note_on_c, 0, 65, 0
1, 50448, Note_on_c, 0, 66, 79
1, 50471, Note_on_c, 0, 66, 0
1, 50472, Note_on_c, 0, 67, 80
1, 50489, Note_on_c, 1, 60, 0
1, 50489, Note_on_c, 1, 56, 0
1, 50495, Note_on_c, 0, 67, 0
1, 50496, Note_on_c, 0, 68, 80
1, 50519, Note_on_c, 0, 68, 0
1, 50520, Note_on_c, 0, 69, 81
1, 50543, Note_on_c, 0, 69, 0
1, 50544, Note_on_c, 0, 70, 81
1, 50567, Note_on_c, 0, 70, 0
1, 50568, Note_on_c, 0, 71, 82
1, 50591, Note_on_c, 0, 71, 0
1, 50592, Note_on_c, 0, 72, 82
1, 50637, Note_on_c, 0, 72, 0
1, 50640, Note_on_c, 0, 74, 83
1, 50650, Note_on_c, 0, 74, 0
1, 50650, Note_on_c, 0, 72, 84
1, 50660, Note_on_c, 0, 72, 0
1, 50660, Note_on_c, 0, 70, 84
1, 50670, Note_on_c, 0, 70, 0
1, 50670, Note_on_c, 0, 72, 84
1, 50679, Note_on_c, 0, 72, 0
1, 50679, Note_on_c, 0, 74, 84
1, 50688, Note_on_c, 0, 74, 0
1, 50688, Note_on_c, 0, 75, 85
1, 50688, Note_on_c, 1, 60, 72
1, 50688, Note_on_c, 1, 56, 72
1, 50708, Note_on_c, 0, 75, 0
1, 50760, Note_on_c, 0, 74, 85
1, 50777, Note_on_c, 1, 60, 0
1, 50777, Note_on_c, 1, 56, 0
1, 50784, Note_on_c, 0, 74, 0
1, 50784, Note_on_c, 0, 72, 85
1, 50804, Note_on_c, 0, 72, 0
1, 50856, Note_on_c, 0, 70, 85
1, 50880, Note_on_c, 0, 70, 0
1, 50880, Note_on_c, 0, 68, 85
1, 50900, Note_on_c, 0, 68, 0
1, 50952, Note_on_c, 0, 67, 85
1, 50952, Note_on_c, 1, 63, 72
1, 50952, Note_on_c, 1, 57, 72
1, 50975, Note_on_c, 0, 67, 0
1, 50975, Note_on_c, 1, 63, 0
1, 50975, Note_on_c, 1, 57, 0
1, 50976, Note_on_c, 0, 68, 84
1, 50976, Note_on_c, 1, 63, 72
1, 50976, Note_on_c, 1, 58, 72
1, 50988, Note_on_c, 0, 68, 0
1, 50988, Note_on_c, 0, 67, 84
1, 51000, Note_on_c, 0, 67, 0
1, 51000, Note_on_c, 0, 68, 83
1, 51012, Note_on_c, 0, 68, 0
1, 51012, Note_on_c, 0, 67, 83
1, 51024, Note_on_c, 0, 67, 0
1, 51024, Note_on_c, 0, 68, 83
1, 51036, Note_on_c, 0, 68, 0
1, 51036, Note_on_c, 0, 67, 82
1, 51048, Note_on_c, 0, 67, 0
1, 51048, Note_on_c, 0, 65, 82
1, 51060, Note_on_c, 0, 65, 0
1, 51060, Note_on_c, 0, 67, 82
1, 51065, Note_on_c, 1, 63, 0
1, 51072, Note_on_c, 0, 67, 0
1, 51072, Note_on_c, 0, 65, 81
1, 51072, Note_on_c, 1, 62, 72
1, 51153, Note_on_c, 1, 58, 0
1, 51161, Note_on_c, 0, 65, 0
1, 51161, Note_on_c, 1, 62, 0
1, 51264, Note_on_c, 0, 70, 79
1, 51264, Note_on_c, 0, 67, 79
1, 51312, Note_on_c, 1, 39, 72
1, 51357, Note_on_c, 1, 39, 0
1, 51360, Note_on_c, 1, 51, 72
1, 51397, Note_on_c, 0, 70, 0
1, 51397, Note_on_c, 0, 67, 0
1, 51408, Note_on_c, 0, 72, 79
1, 51408, Note_on_c, 0, 68, 79
1, 51431, Note_on_c, 0, 72, 0
1, 51431, Note_on_c, 0, 68, 0
1, 51432, Note_on_c, 0, 68, 79
1, 51432, Note_on_c, 0, 65, 79
1, 51449, Note_on_c, 1, 51, 0
1, 51455, Note_on_c, 0, 68, 0
1, 51455, Note_on_c, 0, 65, 0
1, 51456, Note_on_c, 0, 67, 79
1, 51456, Note_on_c, 0, 63, 79
1, 51501, Note_on_c, 0, 67, 0
1, 51501, Note_on_c, 0, 63, 0
1, 51504, Note_on_c, 0, 70, 79
1, 51504, Note_on_c, 0, 65, 79
1, 51516, Note_on_c, 0, 70, 0
1, 51516, Note_on_c, 0, 68, 79
1, 51528, Note_on_c, 0, 68, 0
1, 51528, Note_on_c, 0, 67, 79
1, 51540, Note_on_c, 0, 67, 0
1, 51540, Note_on_c, 0, 68, 79
1, 51549, Note_on_c, 0, 65, 0
1, 51552, Note_on_c, 0, 68, 0
1, 51552, Note_on_c, 0, 70, 79
1, 51552, Note_on_c, 0, 67, 79
1, 51552, Note_on_c, 1, 63, 72
1, 51597, Note_on_c, 0, 70, 0
1, 51597, Note_on_c, 0, 67, 0
1, 51597, Note_on_c, 1, 63, 0
1, 51600, Note_on_c, 0, 75, 79
1, 51645, Note_on_c, 0, 75, 0
1, 51648, Note_on_c, 1, 63, 72
1, 51693, Note_on_c, 1, 63, 0
1, 51696, Note_on_c, 0, 74, 79
1, 51696, Note_on_c, 0, 70, 79
1, 51741, Note_on_c, 0, 74, 0
1, 51741, Note_on_c, 0, 70, 0
1, 51744, Note_on_c, 1, 63, 72
1, 51789, Note_on_c, 1, 63, 0
1, 51792, Note_on_c, 0, 72, 79
1, 51792, Note_on_c, 0, 68, 79
1, 51837, Note_on_c, 0, 72, 0
1, 51837, Note_on_c, 0, 68, 0
1, 51840, Note_on_c, 0, 70, 79
1, 51840, Note_on_c, 0, 67, 79
1, 51888, Note_on_c, 1, 39, 72
1, 51933, Note_on_c, 1, 39, 0
1, 51936, Note_on_c, 1, 51, 72
1, 51973, Note_on_c, 0, 70, 0
1, 51973, Note_on_c, 0, 67, 0
1, 51984, Note_on_c, 0, 72, 79
1, 51984, Note_on_c, 0, 68, 79
1, 52007, Note_on_c, 0, 72, 0
1, 52007, Note_on_c, 0, 68, 0
1, 52008, Note_on_c, 0, 68, 79
1, 52008, Note_on_c, 0, 65, 79
1, 52025, Note_on_c, 1, 51, 0
1, 52031, Note_on_c, 0, 68, 0
1, 52031, Note_on_c, 0, 65, 0
1, 52032, Note_on_c, 0, 67, 79
1, 52032, Note_on_c, 0, 63, 79
1, 52077, Note_on_c, 0, 67, 0
1, 52077, Note_on_c, 0, 63, 0
1, 52080, Note_on_c, 0, 70, 79
1, 52080, Note_on_c, 0, 65, 79
1, 52092, Note_on_c, 0, 70, 0
1, 52092, Note_on_c, 0, 68, 79
1, 52104, Note_on_c, 0, 68, 0
1, 52104, Note_on_c, 0, 67, 79
1, 52116, Note_on_c, 0, 67, 0
1, 52116, Note_on_c, 0, 68, 79
1, 52125, Note_on_c, 0, 65, 0
1, 52128, Note_on_c, 0, 68, 0
1, 52128, Note_on_c, 0, 70, 79
1, 52128, Note_on_c, 0, 67, 79
1, 52128, Note_on_c, 1, 63, 72
1, 52173, Note_on_c, 0, 70, 0
1, 52173, Note_on_c, 0, 67, 0
1, 52173, Note_on_c, 1, 63, 0
1, 52176, Note_on_c, 0, 79, 79
1, 52176, Note_on_c, 0, 75, 79
1, 52221, Note_on_c, 0, 79, 0
1, 52221, Note_on_c, 0, 75, 0
1, 52224, Note_on_c, 1, 63, 72
1, 52269, Note_on_c, 1, 63, 0
1, 52272, Note_on_c, 0, 75, 79
1, 52272, Note_on_c, 0, 72, 79
1, 52317, Note_on_c, 0, 75, 0
1, 52317, Note_on_c, 0, 72, 0
1, 52320, Note_on_c, 1, 63, 72
1, 52365, Note_on_c, 1, 63, 0
1, 52368, Note_on_c, 0, 72, 79
1, 52368, Note_on_c, 0, 68, 79
1, 52413, Note_on_c, 0, 72, 0
1, 52413, Note_on_c, 0, 68, 0
1, 52416, Note_on_c, 0, 67, 79
1, 52434, Note_on_c, 0, 67, 0
1, 52434, Note_on_c, 0, 70, 95
1, 52464, Note_on_c, 1, 67, 65
1, 52464, Note_on_c, 1, 63, 65
1, 52509, Note_on_c, 1, 67, 0
1, 52509, Note_on_c, 1, 63, 0
1, 52512, Note_on_c, 1, 67, 65
1, 52512, Note_on_c, 1, 63, 65
1, 52557, Note_on_c, 1, 67, 0
1, 52557, Note_on_c, 1, 63, 0
1, 52560, Note_on_c, 1, 67, 65
1, 52560, Note_on_c, 1, 63, 65
1, 52605, Note_on_c, 1, 67, 0
1, 52605, Note_on_c, 1, 63, 0
1, 52608, Note_on_c, 0, 70, 0
1, 52608, Note_on_c, 0, 69, 79
1, 52608, Note_on_c, 1, 67, 65
1, 52608, Note_on_c, 1, 63, 65
1, 52631, Note_on_c, 0, 69, 0
1, 52632, Note_on_c, 0, 70, 79
1, 52653, Note_on_c, 1, 67, 0
1, 52653, Note_on_c, 1, 63, 0
1, 52655, Note_on_c, 0, 70, 0
1, 52656, Note_on_c, 0, 72, 79
1, 52656, Note_on_c, 1, 67, 65
1, 52656, Note_on_c, 1, 63, 65
1, 52679, Note_on_c, 0, 72, 0
1, 52680, Note_on_c, 0, 70, 79
1, 52701, Note_on_c, 1, 67, 0
1, 52701, Note_on_c, 1, 63, 0
1, 52703, Note_on_c, 0, 70, 0
1, 52704, Note_on_c, 0, 70, 95
1, 52752, Note_on_c, 1, 65, 65
1, 52752, Note_on_c, 1, 62, 65
1, 52797, Note_on_c, 1, 65, 0
1, 52797, Note_on_c, 1, 62, 0
1, 52800, Note_on_c, 1, 65, 65
1, 52800, Note_on_c, 1, 62, 65
1, 52845, Note_on_c, 1, 65, 0
1, 52845, Note_on_c, 1, 62, 0
1, 52848, Note_on_c, 1, 65, 65
1, 52848, Note_on_c, 1, 62, 65
1, 52893, Note_on_c, 1, 65, 0
1, 52893, Note_on_c, 1, 62, 0
1, 52896, Note_on_c, 0, 70, 0
1, 52896, Note_on_c, 0, 69, 79
1, 52896, Note_on_c, 1, 65, 65
1, 52896, Note_on_c, 1, 62, 65
1, 52919, Note_on_c, 0, 69, 0
1, 52920, Note_on_c, 0, 70, 79
1, 52941, Note_on_c, 1, 65, 0
1, 52941, Note_on_c, 1, 62, 0
1, 52943, Note_on_c, 0, 70, 0
1, 52944, Note_on_c, 0, 72, 79
1, 52944, Note_on_c, 1, 65, 65
1, 52944, Note_on_c, 1, 62, 65
1, 52967, Note_on_c, 0, 72, 0
1, 52968, Note_on_c, 0, 70, 79
1, 52989, Note_on_c, 1, 65, 0
1, 52989, Note_on_c, 1, 62, 0
1, 52991, Note_on_c, 0, 70, 0
1, 52992, Note_on_c, 0, 75, 95
1, 53040, Note_on_c, 1, 63, 65
1, 53040, Note_on_c, 1, 60, 65
1, 53085, Note_on_c, 1, 63, 0
1, 53085, Note_on_c, 1, 60, 0
1, 53088, Note_on_c, 1, 63, 65
1, 53088, Note_on_c, 1, 60, 65
1, 53133, Note_on_c, 1, 63, 0
1, 53133, Note_on_c, 1, 60, 0
1, 53136, Note_on_c, 1, 63, 65
1, 53136, Note_on_c, 1, 60, 65
1, 53181, Note_on_c, 1, 63, 0
1, 53181, Note_on_c, 1, 60, 0
1, 53184, Note_on_c, 0, 75, 0
1, 53184, Note_on_c, 0, 69, 79
1, 53184, Note_on_c, 1, 63, 65
1, 53184, Note_on_c, 1, 60, 65
1, 53207, Note_on_c, 0, 69, 0
1, 53208, Note_on_c, 0, 70, 79
1, 53229, Note_on_c, 1, 63, 0
1, 53229, Note_on_c, 1, 60, 0
1, 53231, Note_on_c, 0, 70, 0
1, 53232, Note_on_c, 0, 72, 79
1, 53232, Note_on_c, 1, 63, 65
1, 53232, Note_on_c, 1, 60, 65
1, 53255, Note_on_c, 0, 72, 0
1, 53256, Note_on_c, 0, 70, 79
1, 53277, Note_on_c, 1, 63, 0
1, 53277, Note_on_c, 1, 60, 0
1, 53279, Note_on_c, 0, 70, 0
1, 53280, Note_on_c, 0, 70, 95
1, 53328, Note_on_c, 1, 62, 66
1, 53328, Note_on_c, 1, 58, 66
1, 53373, Note_on_c, 1, 62, 0
1, 53373, Note_on_c, 1, 58, 0
1, 53376, Note_on_c, 1, 62, 66
1, 53376, Note_on_c, 1, 58, 66
1, 53421, Note_on_c, 1, 62, 0
1, 53421, Note_on_c, 1, 58, 0
1, 53424, Note_on_c, 1, 62, 67
1, 53424, Note_on_c, 1, 58, 67
1, 53469, Note_on_c, 1, 62, 0
1, 53469, Note_on_c, 1, 58, 0
1, 53472, Note_on_c, 0, 70, 0
1, 53472, Note_on_c, 0, 71, 81
1, 53472, Note_on_c, 1, 63, 67
1, 53472, Note_on_c, 1, 58, 67
1, 53495, Note_on_c, 0, 71, 0
1, 53496, Note_on_c, 0, 72, 81
1, 53517, Note_on_c, 1, 63, 0
1, 53517, Note_on_c, 1, 58, 0
1, 53519, Note_on_c, 0, 72, 0
1, 53520, Note_on_c, 0, 74, 81
1, 53520, Note_on_c, 1, 63, 68
1, 53520, Note_on_c, 1, 58, 68
1, 53543, Note_on_c, 0, 74, 0
1, 53544, Note_on_c, 0, 72, 81
1, 53565, Note_on_c, 1, 63, 0
1, 53565, Note_on_c, 1, 58, 0
1, 53567, Note_on_c, 0, 72, 0
1, 53568, Note_on_c, 0, 72, 98
1, 53616, Note_on_c, 1, 63, 69
1, 53616, Note_on_c, 1, 56, 69
1, 53661, Note_on_c, 1, 63, 0
1, 53661, Note_on_c, 1, 56, 0
1, 53664, Note_on_c, 1, 63, 69
1, 53664, Note_on_c, 1, 56, 69
1, 53709, Note_on_c, 1, 63, 0
1, 53709, Note_on_c, 1, 56, 0
1, 53712, Note_on_c, 1, 63, 70
1, 53712, Note_on_c, 1, 56, 70
1, 53757, Note_on_c, 1, 63, 0
1, 53757, Note_on_c, 1, 56, 0
1, 53760, Note_on_c, 0, 72, 0
1, 53760, Note_on_c, 0, 74, 83
1, 53760, Note_on_c, 1, 65, 70
1, 53760, Note_on_c, 1, 56, 70
1, 53783, Note_on_c, 0, 74, 0
1, 53784, Note_on_c, 0, 75, 83
1, 53805, Note_on_c, 1, 65, 0
1, 53805, Note_on_c, 1, 56, 0
1, 53807, Note_on_c, 0, 75, 0
1, 53808, Note_on_c, 0, 77, 83
1, 53808, Note_on_c, 1, 65, 71
1, 53808, Note_on_c, 1, 56, 71
1, 53831, Note_on_c, 0, 77, 0
1, 53832, Note_on_c, 0, 75, 84
1, 53853, Note_on_c, 1, 65, 0
1, 53853, Note_on_c, 1, 56, 0
1, 53855, Note_on_c, 0, 75, 0
1, 53856, Note_on_c, 0, 75, 84
1, 53904, Note_on_c, 1, 58, 72
1, 53904, Note_on_c, 1, 55, 72
1, 53949, Note_on_c, 1, 58, 0
1, 53949, Note_on_c, 1, 55, 0
1, 53952, Note_on_c, 1, 58, 72
1, 53952, Note_on_c, 1, 55, 72
1, 53997, Note_on_c, 0, 75, 0
1, 53997, Note_on_c, 1, 58, 0
1, 53997, Note_on_c, 1, 55, 0
1, 54000, Note_on_c, 0, 79, 85
1, 54000, Note_on_c, 1, 58, 72
1, 54000, Note_on_c, 1, 55, 72
1, 54023, Note_on_c, 0, 79, 0
1, 54024, Note_on_c, 0, 77, 85
1, 54045, Note_on_c, 1, 58, 0
1, 54045, Note_on_c, 1, 55, 0
1, 54047, Note_on_c, 0, 77, 0
1, 54048, Note_on_c, 0, 75, 85
1, 54048, Note_on_c, 1, 63, 72
1, 54048, Note_on_c, 1, 55, 72
1, 54071, Note_on_c, 0, 75, 0
1, 54072, Note_on_c, 0, 74, 85
1, 54093, Note_on_c, 1, 63, 0
1, 54093, Note_on_c, 1, 55, 0
1, 54095, Note_on_c, 0, 74, 0
1, 54096, Note_on_c, 0, 72, 85
1, 54096, Note_on_c, 1, 63, 72
1, 54096, Note_on_c, 1, 55, 72
1, 54119, Note_on_c, 0, 72, 0
1, 54120, Note_on_c, 0, 70, 85
1, 54141, Note_on_c, 1, 63, 0
1, 54141, Note_on_c, 1, 55, 0
1, 54143, Note_on_c, 0, 70, 0
1, 54144, Note_on_c, 0, 72, 85
1, 54144, Note_on_c, 1, 63, 72
1, 54144, Note_on_c, 1, 56, 72
1, 54156, Note_on_c, 0, 72, 0
1, 54156, Note_on_c, 0, 70, 85
1, 54168, Note_on_c, 0, 70, 0
1, 54168, Note_on_c, 0, 68, 85
1, 54180, Note_on_c, 0, 68, 0
1, 54180, Note_on_c, 0, 70, 85
1, 54189, Note_on_c, 1, 63, 0
1, 54189, Note_on_c, 1, 56, 0
1, 54192, Note_on_c, 0, 70, 0
1, 54192, Note_on_c, 0, 72, 82
1, 54192, Note_on_c, 1, 63, 70
1, 54192, Note_on_c, 1, 56, 70
1, 54215, Note_on_c, 0, 72, 0
1, 54216, Note_on_c, 0, 68, 81
1, 54237, Note_on_c, 1, 63, 0
1, 54237, Note_on_c, 1, 56, 0
1, 54239, Note_on_c, 0, 68, 0
1, 54240, Note_on_c, 0, 67, 80
1, 54240, Note_on_c, 1, 63, 69
1, 54240, Note_on_c, 1, 58, 69
1, 54285, Note_on_c, 1, 63, 0
1, 54285, Note_on_c, 1, 58, 0
1, 54288, Note_on_c, 1, 63, 68
1, 54288, Note_on_c, 1, 58, 68
1, 54329, Note_on_c, 0, 67, 0
1, 54333, Note_on_c, 1, 63, 0
1, 54333, Note_on_c, 1, 58, 0
1, 54336, Note_on_c, 0, 67, 76
1, 54336, Note_on_c, 1, 62, 67
1, 54336, Note_on_c, 1, 58, 67
1, 54348, Note_on_c, 0, 67, 0
1, 54348, Note_on_c, 0, 65, 75
1, 54360, Note_on_c, 0, 65, 0
1, 54360, Note_on_c, 0, 67, 75
1, 54372, Note_on_c, 0, 67, 0
1, 54372, Note_on_c, 0, 65, 74
1, 54381, Note_on_c, 1, 62, 0
1, 54381, Note_on_c, 1, 58, 0
1, 54384, Note_on_c, 0, 65, 0
1, 54384, Note_on_c, 0, 67, 74
1, 54384, Note_on_c, 1, 62, 66
1, 54384, Note_on_c, 1, 58, 66
1, 54396, Note_on_c, 0, 67, 0
1, 54396, Note_on_c, 0, 65, 73
1, 54408, Note_on_c, 0, 65, 0
1, 54408, Note_on_c, 0, 63, 73
1, 54420, Note_on_c, 0, 63, 0
1, 54420, Note_on_c, 0, 65, 72
1, 54429, Note_on_c, 1, 62, 0
1, 54429, Note_on_c, 1, 58, 0
1, 54432, Note_on_c, 0, 65, 0
1, 54432, Note_on_c, 0, 63, 72
1, 54432, Note_on_c, 1, 60, 65
1, 54432, Note_on_c, 1, 60, 72
1, 54477, Note_on_c, 0, 63, 0
1, 54480, Note_on_c, 0, 75, 72
1, 54525, Note_on_c, 0, 75, 0
1, 54528, Note_on_c, 0, 74, 72
1, 54540, Note_on_c, 0, 74, 0
1, 54540, Note_on_c, 0, 75, 72
1, 54552, Note_on_c, 0, 75, 0
1, 54552, Note_on_c, 0, 74, 72
1, 54564, Note_on_c, 0, 74, 0
1, 54564, Note_on_c, 0, 75, 72
1, 54573, Note_on_c, 0, 75, 0
1, 54576, Note_on_c, 0, 72, 72
1, 54609, Note_on_c, 1, 60, 0
1, 54621, Note_on_c, 0, 72, 0
1, 54624, Note_on_c, 0, 70, 72
1, 54624, Note_on_c, 1, 63, 65
1, 54669, Note_on_c, 0, 70, 0
1, 54672, Note_on_c, 0, 69, 72
1, 54697, Note_on_c, 1, 60, 0
1, 54717, Note_on_c, 0, 69, 0
1, 54720, Tempo, 857142
1, 54720, Note_on_c, 0, 69, 72
1, 54720, Note_on_c, 1, 58, 72
1, 54897, Note_on_c, 1, 63, 0
1, 54912, Note_on_c, 1, 62, 65
1, 54935, Note_on_c, 0, 69, 0
1, 54936, Note_on_c, 0, 70, 72
1, 54959, Note_on_c, 0, 70, 0
1, 54960, Note_on_c, 0, 72, 72
1, 54983, Note_on_c, 0, 72, 0
1, 54984, Note_on_c, 0, 70, 72
1, 55007, Note_on_c, 0, 70, 0
1, 55008, Note_on_c, 0, 70, 72
1, 55163, Note_on_c, 0, 70, 0
1, 55163, Note_on_c, 1, 62, 0
1, 55163, Note_on_c, 1, 58, 0
1, 55200, Tempo, 571428
1, 55200, Note_on_c, 0, 69, 79
1, 55224, Note_on_c, 0, 69, 0
1, 55224, Note_on_c, 0, 70, 78
1, 55247, Note_on_c, 0, 70, 0
1, 55248, Note_on_c, 0, 72, 78
1, 55272, Note_on_c, 0, 72, 0
1, 55272, Note_on_c, 0, 70, 77
1, 55295, Note_on_c, 0, 70, 0
1, 55296, Note_on_c, 0, 67, 77
1, 55320, Note_on_c, 0, 67, 0
1, 55320, Note_on_c, 0, 68, 76
1, 55343, Note_on_c, 0, 68, 0
1, 55344, Note_on_c, 0, 70, 76
1, 55368, Note_on_c, 0, 70, 0
1, 55368, Note_on_c, 0, 68, 75
1, 55391, Note_on_c, 0, 68, 0
1, 55392, Note_on_c, 0, 65, 75
1, 55416, Note_on_c, 0, 65, 0
1, 55416, Note_on_c, 0, 67, 75
1, 55439, Note_on_c, 0, 67, 0
1, 55440, Note_on_c, 0, 68, 74
1, 55464, Note_on_c, 0, 68, 0
1, 55464, Note_on_c, 0, 67, 74
1, 55487, Note_on_c, 0, 67, 0
1, 55488, Note_on_c, 0, 64, 73
1, 55512, Note_on_c, 0, 64, 0
1, 55512, Note_on_c, 0, 65, 73
1, 55535, Note_on_c, 0, 65, 0
1, 55536, Note_on_c, 0, 67, 72
1, 55560, Note_on_c, 0, 67, 0
1, 55560, Note_on_c, 0, 65, 72
1, 55583, Note_on_c, 0, 65, 0
1, 55584, Note_on_c, 0, 65, 72
1, 55632, Note_on_c, 1, 56, 65
1, 55632, Note_on_c, 1, 50, 65
1, 55632, Note_on_c, 1, 46, 65
1, 55677, Note_on_c, 1, 56, 0
1, 55677, Note_on_c, 1, 50, 0
1, 55677, Note_on_c, 1, 46, 0
1, 55680, Note_on_c, 1, 56, 65
1, 55680, Note_on_c, 1, 50, 65
1, 55680, Note_on_c, 1, 46, 65
1, 55725, Note_on_c, 1, 56, 0
1, 55725, Note_on_c, 1, 50, 0
1, 55725, Note_on_c, 1, 46, 0
1, 55728, Note_on_c, 1, 56, 65
1, 55728, Note_on_c, 1, 50, 65
1, 55728, Note_on_c, 1, 46, 65
1, 55761, Note_on_c, 0, 65, 0
1, 55773, Note_on_c, 1, 56, 0
1, 55773, Note_on_c, 1, 50, 0
1, 55773, Note_on_c, 1, 46, 0
1, 55776, Note_on_c, 0, 65, 72
1, 55800, Note_on_c, 0, 65, 0
1, 55800, Note_on_c, 0, 67, 72
1, 55823, Note_on_c, 0, 67, 0
1, 55824, Note_on_c, 0, 68, 72
1, 55848, Note_on_c, 0, 68, 0
1, 55848, Note_on_c, 0, 67, 72
1, 55871, Note_on_c, 0, 67, 0
1, 55872, Note_on_c, 0, 67, 72
1, 55920, Note_on_c, 1, 55, 65
1, 55920, Note_on_c, 1, 51, 65
1, 55920, Note_on_c, 1, 46, 65
1, 55965, Note_on_c, 1, 55, 0
1, 55965, Note_on_c, 1, 51, 0
1, 55965, Note_on_c, 1, 46, 0
1, 55968, Note_on_c, 1, 55, 65
1, 55968, Note_on_c, 1, 51, 65
1, 55968, Note_on_c, 1, 46, 65
1, 56013, Note_on_c, 1, 55, 0
1, 56013, Note_on_c, 1, 51, 0
1, 56013, Note_on_c, 1, 46, 0
1, 56016, Note_on_c, 1, 55, 65
1, 56016, Note_on_c, 1, 51, 65
1, 56016, Note_on_c, 1, 46, 65
1, 56049, Note_on_c, 0, 67, 0
1, 56061, Note_on_c, 1, 55, 0
1, 56061, Note_on_c, 1, 51, 0
1, 56061, Note_on_c, 1, 46, 0
1, 56064, Note_on_c, 0, 67, 72
1, 56088, Note_on_c, 0, 67, 0
1, 56088, Note_on_c, 0, 68, 72
1, 56111, Note_on_c, 0, 68, 0
1, 56112, Note_on_c, 0, 70, 74
1, 56136, Note_on_c, 0, 70, 0
1, 56136, Note_on_c, 0, 68, 75
1, 56159, Note_on_c, 0, 68, 0
1, 56160, Note_on_c, 0, 68, 75
1, 56208, Note_on_c, 1, 53, 65
1, 56208, Note_on_c, 1, 50, 65
1, 56208, Note_on_c, 1, 46, 65
1, 56253, Note_on_c, 1, 53, 0
1, 56253, Note_on_c, 1, 50, 0
1, 56253, Note_on_c, 1, 46, 0
1, 56256, Note_on_c, 1, 53, 65
1, 56256, Note_on_c, 1, 50, 65
1, 56256, Note_on_c, 1, 46, 65
1, 56301, Note_on_c, 1, 53, 0
1, 56301, Note_on_c, 1, 50, 0
1, 56301, Note_on_c, 1, 46, 0
1, 56304, Note_on_c, 1, 53, 65
1, 56304, Note_on_c, 1, 50, 65
1, 56304, Note_on_c, 1, 46, 65
1, 56337, Note_on_c, 0, 68, 0
1, 56349, Note_on_c, 1, 53, 0
1, 56349, Note_on_c, 1, 50, 0
1, 56349, Note_on_c, 1, 46, 0
1, 56352, Note_on_c, 0, 58, 77
1, 56364, Note_on_c, 0, 58, 0
1, 56364, Note_on_c, 0, 62, 77
1, 56376, Note_on_c, 0, 62, 0
1, 56376, Note_on_c, 0, 65, 78
1, 56388, Note_on_c, 0, 65, 0
1, 56388, Note_on_c, 0, 68, 78
1, 56400, Note_on_c, 0, 68, 0
1, 56400, Note_on_c, 0, 74, 78
1, 56415, Note_on_c, 0, 74, 0
1, 56416, Note_on_c, 0, 77, 78
1, 56431, Note_on_c, 0, 77, 0
1, 56432, Note_on_c, 0, 80, 78
1, 56447, Note_on_c, 0, 80, 0
1, 56448, Note_on_c, 0, 84, 95
1, 56520, Note_on_c, 0, 84, 0
1, 56520, Note_on_c, 0, 82, 79
1, 56543, Note_on_c, 0, 82, 0
1, 56544, Note_on_c, 0, 80, 79
1, 56567, Note_on_c, 0, 80, 0
1, 56568, Note_on_c, 0, 79, 79
1, 56591, Note_on_c, 0, 79, 0
1, 56592, Note_on_c, 0, 77, 79
1, 56615, Note_on_c, 0, 77, 0
1, 56616, Note_on_c, 0, 75, 79
1, 56639, Note_on_c, 0, 75, 0
1, 56640, Note_on_c, 0, 74, 79
1, 56663, Note_on_c, 0, 74, 0
1, 56664, Note_on_c, 0, 72, 79
1, 56687, Note_on_c, 0, 72, 0
1, 56688, Note_on_c, 0, 70, 79
1, 56688, Note_on_c, 1, 62, 65
1, 56711, Note_on_c, 0, 70, 0
1, 56712, Note_on_c, 0, 68, 79
1, 56733, Note_on_c, 1, 62, 0
1, 56735, Note_on_c, 0, 68, 0
1, 56736, Note_on_c, 0, 63, 79
1, 56781, Note_on_c, 0, 63, 0
1, 56784, Note_on_c, 0, 63, 80
1, 56792, Note_on_c, 0, 63, 0
1, 56792, Note_on_c, 0, 67, 80
1, 56800, Note_on_c, 0, 67, 0
1, 56800, Note_on_c, 0, 70, 80
1, 56808, Note_on_c, 0, 70, 0
1, 56808, Note_on_c, 0, 74, 81
1, 56816, Note_on_c, 0, 74, 0
1, 56816, Note_on_c, 0, 75, 81
1, 56824, Note_on_c, 0, 75, 0
1, 56824, Note_on_c, 0, 79, 81
1, 56832, Note_on_c, 0, 79, 0
1, 56832, Note_on_c, 0, 82, 81
1, 56832, Note_on_c, 0, 70, 81
1, 56921, Note_on_c, 0, 82, 0
1, 56921, Note_on_c, 0, 70, 0
1, 57024, Note_on_c, 0, 64, 85
1, 57024, Note_on_c, 1, 44, 72
1, 57047, Note_on_c, 0, 64, 0
1, 57048, Note_on_c, 0, 65, 84
1, 57071, Note_on_c, 0, 65, 0
1, 57072, Note_on_c, 0, 68, 83
1, 57072, Note_on_c, 1, 56, 65
1, 57095, Note_on_c, 0, 68, 0
1, 57096, Note_on_c, 0, 65, 82
1, 57113, Note_on_c, 1, 44, 0
1, 57117, Note_on_c, 1, 56, 0
1, 57119, Note_on_c, 0, 65, 0
1, 57120, Note_on_c, 0, 63, 82
1, 57120, Note_on_c, 1, 55, 65
1, 57120, Note_on_c, 1, 46, 72
1, 57209, Note_on_c, 0, 63, 0
1, 57209, Note_on_c, 1, 55, 0
1, 57209, Note_on_c, 1, 46, 0
1, 57216, Note_on_c, 0, 62, 79
1, 57216, Note_on_c, 1, 53, 65
1, 57216, Note_on_c, 1, 46, 72
1, 57228, Note_on_c, 0, 62, 0
1, 57228, Note_on_c, 0, 63, 79
1, 57240, Note_on_c, 0, 63, 0
1, 57240, Note_on_c, 0, 62, 79
1, 57252, Note_on_c, 0, 62, 0
1, 57252, Note_on_c, 0, 63, 79
1, 57264, Note_on_c, 0, 63, 0
1, 57264, Note_on_c, 0, 62, 79
1, 57276, Note_on_c, 0, 62, 0
1, 57276, Note_on_c, 0, 63, 79
1, 57288, Note_on_c, 0, 63, 0
1, 57288, Note_on_c, 0, 62, 79
1, 57300, Note_on_c, 0, 62, 0
1, 57300, Note_on_c, 0, 63, 79
1, 57305, Note_on_c, 0, 63, 0
1, 57305, Note_on_c, 1, 53, 0
1, 57305, Note_on_c, 1, 46, 0
1, 57312, Note_on_c, 0, 63, 79
1, 57312, Note_on_c, 1, 51, 79
1, 57335, Note_on_c, 0, 63, 0
1, 57336, Note_on_c, 0, 63, 79
1, 57359, Note_on_c, 0, 63, 0
1, 57360, Note_on_c, 0, 63, 79
1, 57372, Note_on_c, 0, 63, 0
1, 57372, Note_on_c, 0, 65, 79
1, 57384, Note_on_c, 0, 65, 0
1, 57384, Note_on_c, 0, 63, 79
1, 57396, Note_on_c, 0, 63, 0
1, 57396, Note_on_c, 0, 65, 79
1, 57405, Note_on_c, 0, 65, 0
1, 57406, Note_on_c, 1, 51, 0
1, 57408, Note_on_c, 0, 68, 79
1, 57408, Note_on_c, 1, 60, 79
1, 57431, Note_on_c, 0, 68, 0
1, 57432, Note_on_c, 0, 63, 79
1, 57455, Note_on_c, 0, 63, 0
1, 57456, Note_on_c, 0, 63, 79
1, 57468, Note_on_c, 0, 63, 0
1, 57468, Note_on_c, 0, 65, 79
1, 57480, Note_on_c, 0, 65, 0
1, 57480, Note_on_c, 0, 63, 79
1, 57492, Note_on_c, 0, 63, 0
1, 57492, Note_on_c, 0, 65, 79
1, 57501, Note_on_c, 0, 65, 0
1, 57502, Note_on_c, 1, 60, 0
1, 57504, Note_on_c, 0, 67, 79
1, 57504, Note_on_c, 1, 58, 79
1, 57527, Note_on_c, 0, 67, 0
1, 57528, Note_on_c, 0, 63, 79
1, 57551, Note_on_c, 0, 63, 0
1, 57552, Note_on_c, 0, 63, 79
1, 57564, Note_on_c, 0, 63, 0
1, 57564, Note_on_c, 0, 65, 79
1, 57576, Note_on_c, 0, 65, 0
1, 57576, Note_on_c, 0, 63, 79
1, 57588, Note_on_c, 0, 63, 0
1, 57588, Note_on_c, 0, 65, 79
1, 57597, Note_on_c, 0, 65, 0
1, 57598, Note_on_c, 1, 58, 0
1, 57600, Note_on_c, 0, 72, 79
1, 57600, Note_on_c, 1, 56, 79
1, 57623, Note_on_c, 0, 72, 0
1, 57624, Note_on_c, 0, 63, 79
1, 57647, Note_on_c, 0, 63, 0
1, 57648, Note_on_c, 0, 63, 79
1, 57660, Note_on_c, 0, 63, 0
1, 57660, Note_on_c, 0, 65, 79
1, 57672, Note_on_c, 0, 65, 0
1, 57672, Note_on_c, 0, 63, 79
1, 57684, Note_on_c, 0, 63, 0
1, 57684, Note_on_c, 0, 65, 79
1, 57689, Note_on_c, 1, 56, 0
1, 57693, Note_on_c, 0, 65, 0
1, 57696, Note_on_c, 0, 75, 79
1, 57696, Note_on_c, 1, 55, 79
1, 57792, Note_on_c, 1, 67, 72
1, 57792, Note_on_c, 1, 63, 72
1, 57807, Note_on_c, 0, 75, 0
1, 57808, Note_on_c, 0, 74, 79
1, 57823, Note_on_c, 0, 74, 0
1, 57824, Note_on_c, 0, 72, 79
1, 57839, Note_on_c, 0, 72, 0
1, 57840, Note_on_c, 0, 70, 79
1, 57855, Note_on_c, 0, 70, 0
1, 57856, Note_on_c, 0, 68, 79
1, 57871, Note_on_c, 0, 68, 0
1, 57872, Note_on_c, 0, 67, 79
1, 57873, Note_on_c, 1, 55, 0
1, 57881, Note_on_c, 1, 67, 0
1, 57881, Note_on_c, 1, 63, 0
1, 57887, Note_on_c, 0, 67, 0
1, 57888, Note_on_c, 0, 65, 79
1, 57888, Note_on_c, 1, 56, 79
1, 57903, Note_on_c, 0, 65, 0
1, 57904, Note_on_c, 0, 72, 79
1, 57919, Note_on_c, 0, 72, 0
1, 57920, Note_on_c, 0, 70, 79
1, 57935, Note_on_c, 0, 70, 0
1, 57936, Note_on_c, 0, 68, 79
1, 57951, Note_on_c, 0, 68, 0
1, 57952, Note_on_c, 0, 67, 79
1, 57967, Note_on_c, 0, 67, 0
1, 57968, Note_on_c, 0, 65, 79
1, 57977, Note_on_c, 1, 56, 0
1, 57983, Note_on_c, 0, 65, 0
1, 57984, Note_on_c, 0, 67, 79
1, 57984, Note_on_c, 1, 58, 79
1, 57999, Note_on_c, 0, 67, 0
1, 58000, Note_on_c, 0, 70, 79
1, 58015, Note_on_c, 0, 70, 0
1, 58016, Note_on_c, 0, 68, 79
1, 58031, Note_on_c, 0, 68, 0
1, 58032, Note_on_c, 0, 67, 79
1, 58047, Note_on_c, 0, 67, 0
1, 58048, Note_on_c, 0, 65, 79
1, 58063, Note_on_c, 0, 65, 0
1, 58064, Note_on_c, 0, 63, 79
1, 58073, Note_on_c, 1, 58, 0
1, 58079, Note_on_c, 0, 63, 0
1, 58080, Note_on_c, 0, 62, 79
1, 58080, Note_on_c, 1, 46, 79
1, 58095, Note_on_c, 0, 62, 0
1, 58096, Note_on_c, 0, 60, 79
1, 58111, Note_on_c, 0, 60, 0
1, 58112, Note_on_c, 0, 58, 79
1, 58127, Note_on_c, 0, 58, 0
1, 58128, Note_on_c, 0, 56, 79
1, 58143, Note_on_c, 0, 56, 0
1, 58144, Note_on_c, 0, 55, 79
1, 58159, Note_on_c, 0, 55, 0
1, 58160, Note_on_c, 0, 53, 79
1, 58169, Note_on_c, 1, 46, 0
1, 58175, Note_on_c, 0, 53, 0
1, 58176, Note_on_c, 0, 51, 79
1, 58176, Note_on_c, 1, 39, 79
1, 58199, Note_on_c, 0, 51, 0
1, 58200, Note_on_c, 0, 75, 79
1, 58223, Note_on_c, 0, 75, 0
1, 58224, Note_on_c, 0, 75, 79
1, 58236, Note_on_c, 0, 75, 0
1, 58236, Note_on_c, 0, 77, 79
1, 58248, Note_on_c, 0, 77, 0
1, 58248, Note_on_c, 0, 75, 79
1, 58260, Note_on_c, 0, 75, 0
1, 58260, Note_on_c, 0, 77, 79
1, 58265, Note_on_c, 1, 39, 0
1, 58269, Note_on_c, 0, 77, 0
1, 58272, Note_on_c, 0, 80, 79
1, 58272, Note_on_c, 1, 72, 79
1, 58295, Note_on_c, 0, 80, 0
1, 58296, Note_on_c, 0, 75, 79
1, 58319, Note_on_c, 0, 75, 0
1, 58320, Note_on_c, 0, 75, 79
1, 58332, Note_on_c, 0, 75, 0
1, 58332, Note_on_c, 0, 77, 79
1, 58344, Note_on_c, 0, 77, 0
1, 58344, Note_on_c, 0, 75, 79
1, 58356, Note_on_c, 0, 75, 0
1, 58356, Note_on_c, 0, 77, 79
1, 58361, Note_on_c, 1, 72, 0
1, 58365, Note_on_c, 0, 77, 0
1, 58368, Note_on_c, 0, 79, 79
1, 58368, Note_on_c, 1, 70, 79
1, 58391, Note_on_c, 0, 79, 0
1, 58392, Note_on_c, 0, 75, 79
1, 58415, Note_on_c, 0, 75, 0
1, 58416, Note_on_c, 0, 75, 79
1, 58428, Note_on_c, 0, 75, 0
1, 58428, Note_on_c, 0, 77, 79
1, 58440, Note_on_c, 0, 77, 0
1, 58440, Note_on_c, 0, 75, 79
1, 58452, Note_on_c, 0, 75, 0
1, 58452, Note_on_c, 0, 77, 79
1, 58457, Note_on_c, 1, 70, 0
1, 58461, Note_on_c, 0, 77, 0
1, 58464, Note_on_c, 0, 84, 79
1, 58464, Note_on_c, 1, 68, 79
1, 58487, Note_on_c, 0, 84, 0
1, 58488, Note_on_c, 0, 75, 79
1, 58511, Note_on_c, 0, 75, 0
1, 58512, Note_on_c, 0, 75, 79
1, 58524, Note_on_c, 0, 75, 0
1, 58524, Note_on_c, 0, 77, 79
1, 58536, Note_on_c, 0, 77, 0
1, 58536, Note_on_c, 0, 75, 79
1, 58548, Note_on_c, 0, 75, 0
1, 58548, Note_on_c, 0, 77, 79
1, 58553, Note_on_c, 1, 68, 0
1, 58557, Note_on_c, 0, 77, 0
1, 58560, Note_on_c, 0, 87, 79
1, 58560, Note_on_c, 1, 67, 79
1, 58656, Note_on_c, 1, 79, 72
1, 58656, Note_on_c, 1, 75, 72
1, 58671, Note_on_c, 0, 87, 0
1, 58672, Note_on_c, 0, 86, 79
1, 58687, Note_on_c, 0, 86, 0
1, 58688, Note_on_c, 0, 84, 79
1, 58703, Note_on_c, 0, 84, 0
1, 58704, Note_on_c, 0, 82, 79
1, 58719, Note_on_c, 0, 82, 0
1, 58720, Note_on_c, 0, 80, 79
1, 58735, Note_on_c, 0, 80, 0
1, 58736, Note_on_c, 0, 79, 79
1, 58737, Note_on_c, 1, 67, 0
1, 58745, Note_on_c, 1, 79, 0
1, 58745, Note_on_c, 1, 75, 0
1, 58751, Note_on_c, 0, 79, 0
1, 58752, Note_on_c, 0, 77, 79
1, 58752, Note_on_c, 1, 68, 79
1, 58767, Note_on_c, 0, 77, 0
1, 58768, Note_on_c, 0, 84, 79
1, 58783, Note_on_c, 0, 84, 0
1, 58784, Note_on_c, 0, 82, 79
1, 58799, Note_on_c, 0, 82, 0
1, 58800, Note_on_c, 0, 80, 79
1, 58815, Note_on_c, 0, 80, 0
1, 58816, Note_on_c, 0, 79, 79
1, 58831, Note_on_c, 0, 79, 0
1, 58832, Note_on_c, 0, 77, 79
1, 58841, Note_on_c, 1, 68, 0
1, 58847, Note_on_c, 0, 77, 0
1, 58848, Note_on_c, 0, 79, 79
1, 58848, Note_on_c, 1, 70, 79
1, 58863, Note_on_c, 0, 79, 0
1, 58864, Note_on_c, 0, 82, 79
1, 58879, Note_on_c, 0, 82, 0
1, 58880, Note_on_c, 0, 80, 79
1, 58895, Note_on_c, 0, 80, 0
1, 58896, Note_on_c, 0, 79, 79
1, 58911, Note_on_c, 0, 79, 0
1, 58912, Note_on_c, 0, 77, 79
1, 58927, Note_on_c, 0, 77, 0
1, 58928, Note_on_c, 0, 75, 79
1, 58937, Note_on_c, 1, 70, 0
1, 58943, Note_on_c, 0, 75, 0
1, 58944, Note_on_c, 0, 74, 79
1, 58944, Note_on_c, 1, 58, 79
1, 58959, Note_on_c, 0, 74, 0
1, 58960, Note_on_c, 0, 72, 79
1, 58975, Note_on_c, 0, 72, 0
1, 58976, Note_on_c, 0, 70, 79
1, 58991, Note_on_c, 0, 70, 0
1, 58992, Note_on_c, 0, 68, 79
1, 59007, Note_on_c, 0, 68, 0
1, 59008, Note_on_c, 0, 67, 79
1, 59023, Note_on_c, 0, 67, 0
1, 59024, Note_on_c, 0, 65, 79
1, 59033, Note_on_c, 1, 58, 0
1, 59039, Note_on_c, 0, 65, 0
1, 59040, Note_on_c, 0, 63, 79
1, 59088, Note_on_c, 1, 39, 72
1, 59133, Note_on_c, 1, 39, 0
1, 59136, Note_on_c, 1, 51, 72
1, 59173, Note_on_c, 0, 63, 0
1, 59184, Note_on_c, 0, 62, 73
1, 59225, Note_on_c, 1, 51, 0
1, 59229, Note_on_c, 0, 62, 0
1, 59232, Note_on_c, 0, 68, 72
1, 59232, Note_on_c, 0, 65, 72
1, 59277, Note_on_c, 0, 68, 0
1, 59277, Note_on_c, 0, 65, 0
1, 59280, Note_on_c, 0, 65, 72
1, 59280, Note_on_c, 0, 62, 72
1, 59325, Note_on_c, 0, 65, 0
1, 59325, Note_on_c, 0, 62, 0
1, 59328, Note_on_c, 0, 67, 72
1, 59328, Note_on_c, 0, 63, 72
1, 59376, Note_on_c, 1, 39, 72
1, 59421, Note_on_c, 1, 39, 0
1, 59424, Note_on_c, 1, 51, 72
1, 59461, Note_on_c, 0, 67, 0
1, 59461, Note_on_c, 0, 63, 0
1, 59472, Note_on_c, 0, 65, 72
1, 59472, Note_on_c, 0, 62, 72
1, 59513, Note_on_c, 1, 51, 0
1, 59517, Note_on_c, 0, 65, 0
1, 59517, Note_on_c, 0, 62, 0
1, 59520, Note_on_c, 0, 72, 72
1, 59520, Note_on_c, 0, 68, 72
1, 59565, Note_on_c, 0, 72, 0
1, 59565, Note_on_c, 0, 68, 0
1, 59568, Note_on_c, 0, 68, 72
1, 59568, Note_on_c, 0, 65, 72
1, 59613, Note_on_c, 0, 68, 0
1, 59613, Note_on_c, 0, 65, 0
1, 59616, Note_on_c, 0, 70, 72
1, 59616, Note_on_c, 0, 67, 72
1, 59664, Note_on_c, 1, 39, 72
1, 59709, Note_on_c, 1, 39, 0
1, 59712, Note_on_c, 1, 51, 72
1, 59749, Note_on_c, 0, 70, 0
1, 59749, Note_on_c, 0, 67, 0
1, 59760, Note_on_c, 0, 75, 72
1, 59772, Note_on_c, 0, 75, 0
1, 59772, Note_on_c, 0, 72, 72
1, 59801, Note_on_c, 1, 51, 0
1, 59806, Note_on_c, 0, 72, 0
1, 59808, Note_on_c, 0, 74, 72
1, 59820, Note_on_c, 0, 74, 0
1, 59820, Note_on_c, 0, 70, 72
1, 59854, Note_on_c, 0, 70, 0
1, 59856, Note_on_c, 0, 72, 72
1, 59868, Note_on_c, 0, 72, 0
1, 59868, Note_on_c, 0, 68, 72
1, 59902, Note_on_c, 0, 68, 0
1, 59904, Note_on_c, 0, 70, 72
1, 59904, Note_on_c, 0, 67, 72
1, 59952, Note_on_c, 1, 39, 72
1, 59997, Note_on_c, 1, 39, 0
1, 60000, Note_on_c, 1, 51, 72
1, 60037, Note_on_c, 0, 70, 0
1, 60037, Note_on_c, 0, 67, 0
1, 60048, Note_on_c, 0, 63, 72
1, 60060, Note_on_c, 0, 63, 0
1, 60060, Note_on_c, 0, 60, 72
1, 60089, Note_on_c, 1, 51, 0
1, 60094, Note_on_c, 0, 60, 0
1, 60096, Note_on_c, 0, 62, 73
1, 60108, Note_on_c, 0, 62, 0
1, 60108, Note_on_c, 0, 58, 73
1, 60142, Note_on_c, 0, 58, 0
1, 60144, Note_on_c, 0, 60, 74
1, 60156, Note_on_c, 0, 60, 0
1, 60156, Note_on_c, 0, 56, 74
1, 60190, Note_on_c, 0, 56, 0
1, 60192, Note_on_c, 0, 58, 75
1, 60240, Note_on_c, 1, 39, 75
1, 60285, Note_on_c, 1, 39, 0
1, 60288, Note_on_c, 1, 51, 76
1, 60308, Note_on_c, 1, 51, 0
1, 60325, Note_on_c, 0, 58, 0
1, 60336, Note_on_c, 0, 58, 78
1, 60336, Note_on_c, 1, 55, 77
1, 60342, Note_on_c, 0, 58, 0
1, 60342, Note_on_c, 0, 70, 78
1, 60356, Note_on_c, 0, 70, 0
1, 60356, Note_on_c, 1, 55, 0
1, 60384, Note_on_c, 0, 60, 79
1, 60384, Note_on_c, 1, 56, 78
1, 60390, Note_on_c, 0, 60, 0
1, 60390, Note_on_c, 0, 72, 79
1, 60404, Note_on_c, 0, 72, 0
1, 60404, Note_on_c, 1, 56, 0
1, 60432, Note_on_c, 0, 62, 80
1, 60432, Note_on_c, 1, 53, 79
1, 60438, Note_on_c, 0, 62, 0
1, 60438, Note_on_c, 0, 74, 80
1, 60452, Note_on_c, 0, 74, 0
1, 60452, Note_on_c, 1, 53, 0
1, 60480, Note_on_c, 0, 63, 81
1, 60480, Note_on_c, 1, 55, 80
1, 60486, Note_on_c, 0, 63, 0
1, 60486, Note_on_c, 0, 75, 81
1, 60500, Note_on_c, 0, 75, 0
1, 60500, Note_on_c, 1, 55, 0
1, 60528, Note_on_c, 0, 65, 82
1, 60528, Note_on_c, 1, 50, 81
1, 60534, Note_on_c, 0, 65, 0
1, 60534, Note_on_c, 0, 77, 82
1, 60548, Note_on_c, 0, 77, 0
1, 60548, Note_on_c, 1, 50, 0
1, 60576, Note_on_c, 0, 67, 83
1, 60576, Note_on_c, 1, 51, 82
1, 60582, Note_on_c, 0, 67, 0
1, 60582, Note_on_c, 0, 79, 83
1, 60615, Note_on_c, 0, 79, 0
1, 60615, Note_on_c, 1, 51, 0
1, 60768, Note_on_c, 1, 44, 85
1, 60816, Note_on_c, 0, 60, 85
1, 60857, Note_on_c, 1, 44, 0
1, 60861, Note_on_c, 0, 60, 0
1, 60864, Note_on_c, 0, 68, 79
1, 60912, Note_on_c, 0, 68, 0
1, 60912, Note_on_c, 0, 72, 77
1, 60957, Note_on_c, 0, 72, 0
1, 60960, Note_on_c, 0, 65, 75
1, 60960, Note_on_c, 1, 56, 75
1, 60960, Note_on_c, 1, 46, 75
1, 61027, Note_on_c, 0, 65, 0
1, 61032, Note_on_c, 0, 62, 72
1, 61055, Note_on_c, 0, 62, 0
1, 61056, Note_on_c, 0, 62, 72
1, 61056, Note_on_c, 1, 46, 0
1, 61056, Note_on_c, 1, 51, 72
1, 61145, Note_on_c, 1, 56, 0
1, 61152, Note_on_c, 0, 62, 0
1, 61152, Note_on_c, 0, 63, 68
1, 61152, Note_on_c, 1, 55, 68
1, 61233, Note_on_c, 1, 51, 0
1, 61241, Note_on_c, 0, 63, 0
1, 61241, Note_on_c, 1, 55, 0
1, 61344, Note_on_c, 0, 77, 79
1, 61392, Note_on_c, 1, 46, 64
1, 61437, Note_on_c, 1, 46, 0
1, 61440, Note_on_c, 1, 50, 64
1, 61463, Note_on_c, 0, 77, 0
1, 61464, Note_on_c, 0, 74, 79
1, 61485, Note_on_c, 1, 50, 0
1, 61487, Note_on_c, 0, 74, 0
1, 61488, Note_on_c, 0, 75, 79
1, 61488, Note_on_c, 1, 53, 64
1, 61511, Note_on_c, 0, 75, 0
1, 61512, Note_on_c, 0, 72, 79
1, 61533, Note_on_c, 1, 53, 0
1, 61535, Note_on_c, 0, 72, 0
1, 61536, Note_on_c, 0, 74, 79
1, 61536, Note_on_c, 1, 58, 64
1, 61559, Note_on_c, 0, 74, 0
1, 61560, Note_on_c, 0, 70, 79
1, 61581, Note_on_c, 1, 58, 0
1, 61583, Note_on_c, 0, 70, 0
1, 61584, Note_on_c, 0, 72, 79
1, 61584, Note_on_c, 1, 63, 64
1, 61607, Note_on_c, 0, 72, 0
1, 61608, Note_on_c, 0, 69, 79
1, 61629, Note_on_c, 1, 63, 0
1, 61631, Note_on_c, 0, 69, 0
1, 61632, Note_on_c, 0, 70, 79
1, 61632, Note_on_c, 1, 62, 64
1, 61652, Note_on_c, 0, 70, 0
1, 61680, Note_on_c, 0, 65, 81
1, 61700, Note_on_c, 0, 65, 0
1, 61721, Note_on_c, 1, 62, 0
1, 61728, Note_on_c, 0, 62, 83
1, 61748, Note_on_c, 0, 62, 0
1, 61776, Note_on_c, 0, 65, 85
1, 61796, Note_on_c, 0, 65, 0
1, 61824, Note_on_c, 0, 70, 83
1, 61844, Note_on_c, 0, 70, 0
1, 61872, Note_on_c, 0, 74, 81
1, 61892, Note_on_c, 0, 74, 0
1, 61920, Note_on_c, 0, 80, 79
1, 61920, Note_on_c, 0, 77, 79
1, 61968, Note_on_c, 1, 58, 64
1, 62016, Note_on_c, 1, 62, 79
1, 62061, Note_on_c, 0, 80, 0
1, 62061, Note_on_c, 0, 77, 0
1, 62061, Note_on_c, 1, 62, 0
1, 62064, Note_on_c, 0, 79, 79
1, 62064, Note_on_c, 0, 75, 79
1, 62064, Note_on_c, 1, 63, 79
1, 62109, Note_on_c, 0, 79, 0
1, 62109, Note_on_c, 0, 75, 0
1, 62109, Note_on_c, 1, 63, 0
1, 62112, Note_on_c, 0, 77, 79
1, 62112, Note_on_c, 0, 74, 79
1, 62112, Note_on_c, 1, 65, 79
1, 62157, Note_on_c, 0, 77, 0
1, 62157, Note_on_c, 0, 74, 0
1, 62157, Note_on_c, 1, 65, 0
1, 62160, Note_on_c, 0, 75, 79
1, 62160, Note_on_c, 0, 72, 79
1, 62160, Note_on_c, 1, 67, 79
1, 62205, Note_on_c, 0, 75, 0
1, 62205, Note_on_c, 0, 72, 0
1, 62205, Note_on_c, 1, 67, 0
1, 62208, Note_on_c, 0, 74, 79
1, 62208, Note_on_c, 0, 70, 79
1, 62208, Note_on_c, 1, 68, 79
1, 62253, Note_on_c, 0, 74, 0
1, 62253, Note_on_c, 0, 70, 0
1, 62256, Note_on_c, 0, 72, 79
1, 62268, Note_on_c, 0, 72, 0
1, 62268, Note_on_c, 0, 75, 78
1, 62302, Note_on_c, 0, 75, 0
1, 62304, Note_on_c, 0, 74, 77
1, 62316, Note_on_c, 0, 74, 0
1, 62316, Note_on_c, 0, 77, 77
1, 62350, Note_on_c, 0, 77, 0
1, 62352, Note_on_c, 0, 75, 76
1, 62364, Note_on_c, 0, 75, 0
1, 62364, Note_on_c, 0, 79, 75
1, 62398, Note_on_c, 0, 79, 0
1, 62400, Note_on_c, 0, 77, 74
1, 62412, Note_on_c, 0, 77, 0
1, 62412, Note_on_c, 0, 80, 74
1, 62446, Note_on_c, 0, 80, 0
1, 62448, Note_on_c, 0, 79, 73
1, 62460, Note_on_c, 0, 79, 0
1, 62460, Note_on_c, 0, 82, 73
1, 62494, Note_on_c, 0, 82, 0
1, 62496, Note_on_c, 0, 80, 72
1, 62514, Note_on_c, 0, 80, 0
1, 62514, Note_on_c, 0, 84, 72
1, 62585, Note_on_c, 1, 68, 0
1, 62592, Note_on_c, 1, 67, 69
1, 62637, Note_on_c, 0, 84, 0
1, 62640, Note_on_c, 0, 82, 68
1, 62673, Note_on_c, 1, 58, 0
1, 62686, Note_on_c, 1, 67, 0
1, 62688, Note_on_c, 1, 65, 67
1, 62688, Note_on_c, 1, 59, 74
1, 62729, Note_on_c, 0, 82, 0
1, 62736, Note_on_c, 0, 80, 66
1, 62777, Note_on_c, 1, 65, 0
1, 62777, Note_on_c, 1, 59, 0
1, 62781, Note_on_c, 0, 80, 0
1, 62784, Note_on_c, 0, 79, 65
1, 62784, Note_on_c, 1, 63, 65
1, 62784, Note_on_c, 1, 60, 72
1, 62829, Note_on_c, 1, 63, 0
1, 62829, Note_on_c, 1, 60, 0
1, 62832, Note_on_c, 1, 48, 65
1, 62877, Note_on_c, 1, 48, 0
1, 62880, Note_on_c, 1, 51, 65
1, 62903, Note_on_c, 0, 79, 0
1, 62904, Note_on_c, 0, 75, 65
1, 62925, Note_on_c, 1, 51, 0
1, 62927, Note_on_c, 0, 75, 0
1, 62928, Note_on_c, 0, 77, 65
1, 62928, Note_on_c, 1, 55, 65
1, 62951, Note_on_c, 0, 77, 0
1, 62952, Note_on_c, 0, 74, 65
1, 62973, Note_on_c, 1, 55, 0
1, 62975, Note_on_c, 0, 74, 0
1, 62976, Note_on_c, 0, 75, 65
1, 62976, Note_on_c, 1, 60, 65
1, 62999, Note_on_c, 0, 75, 0
1, 63000, Note_on_c, 0, 72, 65
1, 63021, Note_on_c, 1, 60, 0
1, 63023, Note_on_c, 0, 72, 0
1, 63024, Note_on_c, 0, 74, 65
1, 63024, Note_on_c, 1, 65, 65
1, 63047, Note_on_c, 0, 74, 0
1, 63048, Note_on_c, 0, 71, 65
1, 63069, Note_on_c, 1, 65, 0
1, 63071, Note_on_c, 0, 71, 0
1, 63072, Note_on_c, 0, 72, 79
1, 63072, Note_on_c, 1, 63, 65
1, 63092, Note_on_c, 0, 72, 0
1, 63120, Note_on_c, 0, 67, 81
1, 63140, Note_on_c, 0, 67, 0
1, 63161, Note_on_c, 1, 63, 0
1, 63168, Note_on_c, 0, 63, 83
1, 63188, Note_on_c, 0, 63, 0
1, 63216, Note_on_c, 0, 67, 85
1, 63236, Note_on_c, 0, 67, 0
1, 63264, Note_on_c, 0, 72, 83
1, 63284, Note_on_c, 0, 72, 0
1, 63312, Note_on_c, 0, 75, 81
1, 63332, Note_on_c, 0, 75, 0
1, 63360, Note_on_c, 0, 79, 79
1, 63408, Note_on_c, 1, 48, 65
1, 63453, Note_on_c, 1, 48, 0
1, 63456, Note_on_c, 1, 51, 65
1, 63479, Note_on_c, 0, 79, 0
1, 63480, Note_on_c, 0, 75, 79
1, 63501, Note_on_c, 1, 51, 0
1, 63503, Note_on_c, 0, 75, 0
1, 63504, Note_on_c, 0, 77, 79
1, 63504, Note_on_c, 1, 55, 65
1, 63527, Note_on_c, 0, 77, 0
1, 63528, Note_on_c, 0, 74, 79
1, 63549, Note_on_c, 1, 55, 0
1, 63551, Note_on_c, 0, 74, 0
1, 63552, Note_on_c, 0, 75, 79
1, 63552, Note_on_c, 1, 60, 65
1, 63575, Note_on_c, 0, 75, 0
1, 63576, Note_on_c, 0, 72, 79
1, 63597, Note_on_c, 1, 60, 0
1, 63599, Note_on_c, 0, 72, 0
1, 63600, Note_on_c, 0, 74, 79
1, 63600, Note_on_c, 1, 65, 65
1, 63623, Note_on_c, 0, 74, 0
1, 63624, Note_on_c, 0, 71, 79
1, 63645, Note_on_c, 1, 65, 0
1, 63647, Note_on_c, 0, 71, 0
1, 63648, Note_on_c, 0, 72, 79
1, 63648, Note_on_c, 1, 63, 65
1, 63693, Note_on_c, 0, 72, 0
1, 63693, Note_on_c, 1, 63, 0
1, 63696, Note_on_c, 0, 75, 79
1, 63696, Note_on_c, 0, 67, 79
1, 63716, Note_on_c, 0, 75, 0
1, 63716, Note_on_c, 0, 67, 0
1, 63744, Note_on_c, 0, 75, 79
1, 63744, Note_on_c, 0, 67, 79
1, 63764, Note_on_c, 0, 75, 0
1, 63764, Note_on_c, 0, 67, 0
1, 63792, Note_on_c, 0, 75, 79
1, 63792, Note_on_c, 0, 67, 79
1, 63812, Note_on_c, 0, 75, 0
1, 63812, Note_on_c, 0, 67, 0
1, 63840, Note_on_c, 0, 75, 79
1, 63840, Note_on_c, 0, 67, 79
1, 63860, Note_on_c, 0, 75, 0
1, 63860, Note_on_c, 0, 67, 0
1, 63888, Note_on_c, 0, 75, 79
1, 63888, Note_on_c, 0, 67, 79
1, 63908, Note_on_c, 0, 75, 0
1, 63908, Note_on_c, 0, 67, 0
1, 63936, Note_on_c, 0, 75, 95
1, 63936, Note_on_c, 0, 66, 79
1, 63984, Note_on_c, 1, 72, 65
1, 63984, Note_on_c, 1, 69, 65
1, 64004, Note_on_c, 1, 72, 0
1, 64004, Note_on_c, 1, 69, 0
1, 64032, Note_on_c, 1, 72, 65
1, 64032, Note_on_c, 1, 69, 65
1, 64052, Note_on_c, 1, 72, 0
1, 64052, Note_on_c, 1, 69, 0
1, 64080, Note_on_c, 1, 72, 65
1, 64080, Note_on_c, 1, 69, 65
1, 64100, Note_on_c, 1, 72, 0
1, 64100, Note_on_c, 1, 69, 0
1, 64128, Note_on_c, 0, 75, 0
1, 64128, Note_on_c, 0, 74, 79
1, 64128, Note_on_c, 1, 72, 65
1, 64128, Note_on_c, 1, 69, 65
1, 64148, Note_on_c, 1, 72, 0
1, 64148, Note_on_c, 1, 69, 0
1, 64176, Note_on_c, 1, 72, 65
1, 64176, Note_on_c, 1, 69, 65
1, 64196, Note_on_c, 1, 72, 0
1, 64196, Note_on_c, 1, 69, 0
1, 64201, Note_on_c, 0, 66, 0
1, 64217, Note_on_c, 0, 74, 0
1, 64224, Note_on_c, 1, 72, 65
1, 64224, Note_on_c, 1, 69, 65
1, 64272, Note_on_c, 0, 86, 79
1, 64272, Note_on_c, 0, 74, 79
1, 64292, Note_on_c, 0, 86, 0
1, 64317, Note_on_c, 0, 74, 0
1, 64320, Note_on_c, 0, 86, 79
1, 64320, Note_on_c, 0, 74, 79
1, 64340, Note_on_c, 0, 86, 0
1, 64365, Note_on_c, 0, 74, 0
1, 64368, Note_on_c, 0, 86, 79
1, 64368, Note_on_c, 0, 74, 79
1, 64388, Note_on_c, 0, 86, 0
1, 64413, Note_on_c, 0, 74, 0
1, 64416, Note_on_c, 0, 86, 79
1, 64416, Note_on_c, 0, 74, 79
1, 64416, Note_on_c, 1, 72, 0
1, 64416, Note_on_c, 1, 69, 0
1, 64416, Note_on_c, 1, 70, 65
1, 64416, Note_on_c, 1, 67, 65
1, 64436, Note_on_c, 0, 86, 0
1, 64461, Note_on_c, 0, 74, 0
1, 64464, Note_on_c, 0, 86, 79
1, 64464, Note_on_c, 0, 74, 79
1, 64484, Note_on_c, 0, 86, 0
1, 64505, Note_on_c, 1, 70, 0
1, 64505, Note_on_c, 1, 67, 0
1, 64509, Note_on_c, 0, 74, 0
1, 64512, Note_on_c, 0, 86, 95
1, 64512, Note_on_c, 0, 75, 79
1, 64560, Note_on_c, 1, 82, 65
1, 64560, Note_on_c, 1, 79, 65
1, 64580, Note_on_c, 1, 82, 0
1, 64580, Note_on_c, 1, 79, 0
1, 64608, Note_on_c, 1, 82, 65
1, 64608, Note_on_c, 1, 79, 65
1, 64628, Note_on_c, 1, 82, 0
1, 64628, Note_on_c, 1, 79, 0
1, 64656, Note_on_c, 1, 82, 65
1, 64656, Note_on_c, 1, 79, 65
1, 64676, Note_on_c, 1, 82, 0
1, 64676, Note_on_c, 1, 79, 0
1, 64704, Note_on_c, 0, 86, 0
1, 64704, Note_on_c, 0, 84, 79
1, 64704, Note_on_c, 1, 81, 65
1, 64724, Note_on_c, 1, 81, 0
1, 64752, Note_on_c, 1, 81, 65
1, 64772, Note_on_c, 1, 81, 0
1, 64777, Note_on_c, 0, 75, 0
1, 64793, Note_on_c, 0, 84, 0
1, 64800, Note_on_c, 0, 84, 95
1, 64800, Note_on_c, 0, 74, 79
1, 64848, Note_on_c, 1, 81, 65
1, 64848, Note_on_c, 1, 78, 65
1, 64868, Note_on_c, 1, 81, 0
1, 64868, Note_on_c, 1, 78, 0
1, 64896, Note_on_c, 1, 81, 65
1, 64896, Note_on_c, 1, 78, 65
1, 64916, Note_on_c, 1, 81, 0
1, 64916, Note_on_c, 1, 78, 0
1, 64944, Note_on_c, 1, 81, 65
1, 64944, Note_on_c, 1, 78, 65
1, 64964, Note_on_c, 1, 81, 0
1, 64964, Note_on_c, 1, 78, 0
1, 64992, Note_on_c, 0, 84, 0
1, 64992, Note_on_c, 0, 82, 79
1, 64992, Note_on_c, 1, 79, 65
1, 65012, Note_on_c, 1, 79, 0
1, 65040, Note_on_c, 1, 79, 65
1, 65060, Note_on_c, 1, 79, 0
1, 65065, Note_on_c, 0, 74, 0
1, 65081, Note_on_c, 0, 82, 0
1, 65088, Note_on_c, 0, 82, 95
1, 65088, Note_on_c, 0, 72, 79
1, 65136, Note_on_c, 1, 79, 65
1, 65136, Note_on_c, 1, 76, 65
1, 65156, Note_on_c, 1, 79, 0
1, 65156, Note_on_c, 1, 76, 0
1, 65184, Note_on_c, 1, 79, 65
1, 65184, Note_on_c, 1, 76, 65
1, 65204, Note_on_c, 1, 79, 0
1, 65204, Note_on_c, 1, 76, 0
1, 65232, Note_on_c, 1, 79, 65
1, 65232, Note_on_c, 1, 76, 65
1, 65252, Note_on_c, 1, 79, 0
1, 65252, Note_on_c, 1, 76, 0
1, 65280, Note_on_c, 0, 82, 0
1, 65280, Note_on_c, 0, 80, 79
1, 65280, Note_on_c, 1, 77, 65
1, 65300, Note_on_c, 1, 77, 0
1, 65328, Note_on_c, 1, 77, 65
1, 65348, Note_on_c, 1, 77, 0
1, 65353, Note_on_c, 0, 72, 0
1, 65369, Note_on_c, 0, 80, 0
1, 65376, Note_on_c, 0, 80, 95
1, 65376, Note_on_c, 0, 70, 79
1, 65424, Note_on_c, 1, 77, 65
1, 65424, Note_on_c, 1, 74, 65
1, 65444, Note_on_c, 1, 77, 0
1, 65444, Note_on_c, 1, 74, 0
1, 65472, Note_on_c, 1, 77, 65
1, 65472, Note_on_c, 1, 74, 65
1, 65492, Note_on_c, 1, 77, 0
1, 65492, Note_on_c, 1, 74, 0
1, 65520, Note_on_c, 1, 77, 65
1, 65520, Note_on_c, 1, 74, 65
1, 65540, Note_on_c, 1, 77, 0
1, 65540, Note_on_c, 1, 74, 0
1, 65568, Note_on_c, 0, 80, 0
1, 65568, Note_on_c, 0, 79, 79
1, 65568, Note_on_c, 1, 75, 65
1, 65588, Note_on_c, 1, 75, 0
1, 65616, Note_on_c, 1, 75, 65
1, 65636, Note_on_c, 1, 75, 0
1, 65641, Note_on_c, 0, 70, 0
1, 65657, Note_on_c, 0, 79, 0
1, 65664, Note_on_c, 0, 79, 95
1, 65664, Note_on_c, 0, 68, 79
1, 65712, Note_on_c, 1, 75, 65
1, 65712, Note_on_c, 1, 72, 65
1, 65732, Note_on_c, 1, 75, 0
1, 65732, Note_on_c, 1, 72, 0
1, 65760, Note_on_c, 1, 75, 65
1, 65760, Note_on_c, 1, 72, 65
1, 65780, Note_on_c, 1, 75, 0
1, 65780, Note_on_c, 1, 72, 0
1, 65808, Note_on_c, 1, 75, 65
1, 65808, Note_on_c, 1, 72, 65
1, 65828, Note_on_c, 1, 75, 0
1, 65828, Note_on_c, 1, 72, 0
1, 65856, Note_on_c, 0, 79, 0
1, 65856, Note_on_c, 0, 78, 79
1, 65856, Note_on_c, 1, 75, 65
1, 65856, Note_on_c, 1, 72, 65
1, 65876, Note_on_c, 1, 75, 0
1, 65876, Note_on_c, 1, 72, 0
1, 65904, Note_on_c, 1, 75, 65
1, 65904, Note_on_c, 1, 72, 65
1, 65924, Note_on_c, 1, 75, 0
1, 65924, Note_on_c, 1, 72, 0
1, 65929, Note_on_c, 0, 68, 0
1, 65945, Note_on_c, 0, 78, 0
1, 65952, Note_on_c, 0, 79, 95
1, 65952, Note_on_c, 0, 67, 79
1, 65952, Note_on_c, 1, 75, 65
1, 65952, Note_on_c, 1, 72, 65
1, 66048, Note_on_c, 1, 75, 0
1, 66048, Note_on_c, 1, 72, 0
1, 66048, Note_on_c, 1, 74, 65
1, 66048, Note_on_c, 1, 71, 65
1, 66093, Note_on_c, 0, 79, 0
1, 66093, Note_on_c, 0, 67, 0
1, 66096, Note_on_c, 0, 67, 79
1, 66119, Note_on_c, 0, 67, 0
1, 66120, Note_on_c, 0, 79, 79
1, 66137, Note_on_c, 1, 74, 0
1, 66137, Note_on_c, 1, 71, 0
1, 66143, Note_on_c, 0, 79, 0
1, 66144, Note_on_c, 0, 67, 79
1, 66167, Note_on_c, 0, 67, 0
1, 66168, Note_on_c, 0, 79, 79
1, 66191, Note_on_c, 0, 79, 0
1, 66192, Note_on_c, 0, 67, 79
1, 66215, Note_on_c, 0, 67, 0
1, 66216, Note_on_c, 0, 79, 79
1, 66239, Note_on_c, 0, 79, 0
1, 66240, Note_on_c, 0, 78, 79
1, 66240, Note_on_c, 0, 68, 79
1, 66288, Note_on_c, 1, 72, 65
1, 66311, Note_on_c, 1, 72, 0
1, 66312, Note_on_c, 1, 75, 65
1, 66335, Note_on_c, 1, 75, 0
1, 66336, Note_on_c, 1, 72, 65
1, 66359, Note_on_c, 1, 72, 0
1, 66360, Note_on_c, 1, 75, 65
1, 66383, Note_on_c, 1, 75, 0
1, 66384, Note_on_c, 1, 72, 65
1, 66407, Note_on_c, 1, 72, 0
1, 66408, Note_on_c, 1, 75, 65
1, 66431, Note_on_c, 1, 75, 0
1, 66432, Note_on_c, 1, 72, 65
1, 66455, Note_on_c, 1, 72, 0
1, 66456, Note_on_c, 1, 75, 65
1, 66479, Note_on_c, 1, 75, 0
1, 66480, Note_on_c, 1, 72, 65
1, 66503, Note_on_c, 1, 72, 0
1, 66504, Note_on_c, 1, 75, 65
1, 66505, Note_on_c, 0, 78, 0
1, 66505, Note_on_c, 0, 68, 0
1, 66527, Note_on_c, 1, 75, 0
1, 66528, Tempo, 750000
1, 66528, Note_on_c, 0, 79, 79
1, 66528, Note_on_c, 0, 67, 79
1, 66528, Note_on_c, 1, 75, 65
1, 66528, Note_on_c, 1, 72, 65
1, 66528, Note_on_c, 1, 75, 72
1, 66528, Note_on_c, 1, 72, 72
1, 66624, Tempo, 1200000
1, 66624, Note_on_c, 1, 75, 0
1, 66624, Note_on_c, 1, 72, 0
1, 66624, Note_on_c, 1, 74, 65
1, 66624, Note_on_c, 1, 71, 65
1, 66624, Note_on_c, 1, 75, 0
1, 66624, Note_on_c, 1, 72, 0
1, 66624, Note_on_c, 1, 74, 72
1, 66624, Note_on_c, 1, 71, 72
1, 66691, Note_on_c, 0, 79, 0
1, 66691, Note_on_c, 1, 74, 0
1, 66691, Note_on_c, 1, 71, 0
1, 66713, Note_on_c, 0, 67, 0
1, 66713, Note_on_c, 1, 74, 0
1, 66713, Note_on_c, 1, 71, 0
1, 66720, Tempo, 571428
1, 66720, Note_on_c, 0, 78, 79
1, 66744, Note_on_c, 0, 78, 0
1, 66744, Note_on_c, 0, 79, 79
1, 66767, Note_on_c, 0, 79, 0
1, 66768, Note_on_c, 0, 80, 79
1, 66792, Note_on_c, 0, 80, 0
1, 66792, Note_on_c, 0, 79, 79
1, 66815, Note_on_c, 0, 79, 0
1, 66816, Note_on_c, 0, 76, 79
1, 66840, Note_on_c, 0, 76, 0
1, 66840, Note_on_c, 0, 77, 78
1, 66863, Note_on_c, 0, 77, 0
1, 66864, Note_on_c, 0, 79, 77
1, 66888, Note_on_c, 0, 79, 0
1, 66888, Note_on_c, 0, 77, 77
1, 66911, Note_on_c, 0, 77, 0
1, 66912, Note_on_c, 0, 74, 76
1, 66936, Note_on_c, 0, 74, 0
1, 66936, Note_on_c, 0, 75, 76
1, 66959, Note_on_c, 0, 75, 0
1, 66960, Note_on_c, 0, 77, 75
1, 66984, Note_on_c, 0, 77, 0
1, 66984, Note_on_c, 0, 75, 74
1, 67007, Note_on_c, 0, 75, 0
1, 67008, Note_on_c, 0, 72, 74
1, 67032, Note_on_c, 0, 72, 0
1, 67032, Note_on_c, 0, 74, 73
1, 67055, Note_on_c, 0, 74, 0
1, 67056, Note_on_c, 0, 75, 73
1, 67080, Note_on_c, 0, 75, 0
1, 67080, Note_on_c, 0, 74, 72
1, 67103, Note_on_c, 0, 74, 0
1, 67104, Note_on_c, 0, 74, 72
1, 67152, Note_on_c, 1, 62, 65
1, 67152, Note_on_c, 1, 59, 65
1, 67152, Note_on_c, 1, 55, 65
1, 67197, Note_on_c, 1, 62, 0
1, 67197, Note_on_c, 1, 59, 0
1, 67197, Note_on_c, 1, 55, 0
1, 67200, Note_on_c, 1, 62, 65
1, 67200, Note_on_c, 1, 59, 65
1, 67200, Note_on_c, 1, 55, 65
1, 67245, Note_on_c, 1, 62, 0
1, 67245, Note_on_c, 1, 59, 0
1, 67245, Note_on_c, 1, 55, 0
1, 67248, Note_on_c, 1, 62, 65
1, 67248, Note_on_c, 1, 59, 65
1, 67248, Note_on_c, 1, 55, 65
1, 67281, Note_on_c, 0, 74, 0
1, 67293, Note_on_c, 1, 62, 0
1, 67293, Note_on_c, 1, 59, 0
1, 67293, Note_on_c, 1, 55, 0
1, 67296, Note_on_c, 0, 74, 73
1, 67320, Note_on_c, 0, 74, 0
1, 67320, Note_on_c, 0, 75, 73
1, 67343, Note_on_c, 0, 75, 0
1, 67344, Note_on_c, 0, 77, 72
1, 67368, Note_on_c, 0, 77, 0
1, 67368, Note_on_c, 0, 75, 72
1, 67391, Note_on_c, 0, 75, 0
1, 67392, Note_on_c, 0, 75, 74
1, 67440, Note_on_c, 1, 63, 65
1, 67440, Note_on_c, 1, 60, 65
1, 67440, Note_on_c, 1, 55, 65
1, 67485, Note_on_c, 1, 63, 0
1, 67485, Note_on_c, 1, 60, 0
1, 67485, Note_on_c, 1, 55, 0
1, 67488, Note_on_c, 1, 63, 65
1, 67488, Note_on_c, 1, 60, 65
1, 67488, Note_on_c, 1, 55, 65
1, 67533, Note_on_c, 1, 63, 0
1, 67533, Note_on_c, 1, 60, 0
1, 67533, Note_on_c, 1, 55, 0
1, 67536, Note_on_c, 1, 63, 65
1, 67536, Note_on_c, 1, 60, 65
1, 67536, Note_on_c, 1, 55, 65
1, 67569, Note_on_c, 0, 75, 0
1, 67581, Note_on_c, 1, 63, 0
1, 67581, Note_on_c, 1, 60, 0
1, 67581, Note_on_c, 1, 55, 0
1, 67584, Note_on_c, 0, 75, 75
1, 67608, Note_on_c, 0, 75, 0
1, 67608, Note_on_c, 0, 77, 76
1, 67631, Note_on_c, 0, 77, 0
1, 67632, Note_on_c, 0, 79, 72
1, 67656, Note_on_c, 0, 79, 0
1, 67656, Note_on_c, 0, 77, 72
1, 67679, Note_on_c, 0, 77, 0
1, 67680, Note_on_c, 0, 77, 72
1, 67728, Note_on_c, 1, 62, 65
1, 67728, Note_on_c, 1, 59, 65
1, 67728, Note_on_c, 1, 55, 65
1, 67773, Note_on_c, 1, 62, 0
1, 67773, Note_on_c, 1, 59, 0
1, 67773, Note_on_c, 1, 55, 0
1, 67776, Note_on_c, 1, 62, 65
1, 67776, Note_on_c, 1, 59, 65
1, 67776, Note_on_c, 1, 55, 65
1, 67821, Note_on_c, 1, 62, 0
1, 67821, Note_on_c, 1, 59, 0
1, 67821, Note_on_c, 1, 55, 0
1, 67824, Note_on_c, 1, 62, 65
1, 67824, Note_on_c, 1, 59, 65
1, 67824, Note_on_c, 1, 55, 65
1, 67857, Note_on_c, 0, 77, 0
1, 67869, Note_on_c, 1, 62, 0
1, 67869, Note_on_c, 1, 59, 0
1, 67869, Note_on_c, 1, 55, 0
1, 67872, Note_on_c, 0, 65, 72
1, 67884, Note_on_c, 0, 65, 0
1, 67884, Note_on_c, 0, 68, 72
1, 67896, Note_on_c, 0, 68, 0
1, 67896, Note_on_c, 0, 71, 72
1, 67908, Note_on_c, 0, 71, 0
1, 67908, Note_on_c, 0, 74, 72
1, 67920, Note_on_c, 0, 74, 0
1, 67920, Note_on_c, 0, 77, 72
1, 67935, Note_on_c, 0, 77, 0
1, 67936, Note_on_c, 0, 80, 72
1, 67951, Note_on_c, 0, 80, 0
1, 67952, Note_on_c, 0, 83, 72
1, 67967, Note_on_c, 0, 83, 0
1, 67968, Note_on_c, 0, 84, 88
1, 68016, Note_on_c, 1, 51, 65
1, 68061, Note_on_c, 1, 51, 0
1, 68064, Note_on_c, 1, 60, 65
1, 68087, Note_on_c, 0, 84, 0
1, 68088, Note_on_c, 0, 82, 72
1, 68111, Note_on_c, 0, 82, 0
1, 68112, Note_on_c, 0, 80, 72
1, 68135, Note_on_c, 0, 80, 0
1, 68136, Note_on_c, 0, 79, 72
1, 68153, Note_on_c, 1, 60, 0
1, 68159, Note_on_c, 0, 79, 0
1, 68160, Note_on_c, 0, 77, 72
1, 68183, Note_on_c, 0, 77, 0
1, 68184, Note_on_c, 0, 75, 72
1, 68207, Note_on_c, 0, 75, 0
1, 68208, Note_on_c, 0, 74, 72
1, 68231, Note_on_c, 0, 74, 0
1, 68232, Note_on_c, 0, 72, 72
1, 68255, Note_on_c, 0, 72, 0
1, 68256, Note_on_c, 0, 75, 72
1, 68256, Note_on_c, 1, 53, 72
1, 68280, Note_on_c, 0, 75, 0
1, 68280, Note_on_c, 0, 74, 72
1, 68303, Note_on_c, 0, 74, 0
1, 68304, Note_on_c, 0, 77, 72
1, 68304, Note_on_c, 1, 65, 65
1, 68328, Note_on_c, 0, 77, 0
1, 68328, Note_on_c, 0, 74, 72
1, 68345, Note_on_c, 1, 53, 0
1, 68349, Note_on_c, 1, 65, 0
1, 68351, Note_on_c, 0, 74, 0
1, 68352, Note_on_c, 0, 72, 72
1, 68352, Note_on_c, 1, 63, 65
1, 68352, Note_on_c, 1, 55, 72
1, 68441, Note_on_c, 0, 72, 0
1, 68441, Note_on_c, 1, 63, 0
1, 68448, Note_on_c, 0, 71, 72
1, 68448, Note_on_c, 1, 62, 65
1, 68529, Note_on_c, 1, 55, 0
1, 68537, Note_on_c, 0, 71, 0
1, 68537, Note_on_c, 1, 62, 0
1, 68544, Note_on_c, 0, 80, 85
1, 68544, Note_on_c, 1, 53, 85
1, 68544, Note_on_c, 1, 49, 85
1, 68544, Note_on_c, 1, 44, 85
1, 68544, Note_on_c, 1, 41, 85
1, 68567, Note_on_c, 0, 80, 0
1, 68568, Note_on_c, 0, 73, 85
1, 68591, Note_on_c, 0, 73, 0
1, 68592, Note_on_c, 0, 73, 85
1, 68604, Note_on_c, 0, 73, 0
1, 68604, Note_on_c, 0, 75, 85
1, 68616, Note_on_c, 0, 75, 0
1, 68616, Note_on_c, 0, 73, 85
1, 68628, Note_on_c, 0, 73, 0
1, 68628, Note_on_c, 0, 75, 85
1, 68637, Note_on_c, 0, 75, 0
1, 68640, Note_on_c, 0, 77, 85
1, 68663, Note_on_c, 0, 77, 0
1, 68664, Note_on_c, 0, 68, 85
1, 68687, Note_on_c, 0, 68, 0
1, 68688, Note_on_c, 0, 68, 85
1, 68700, Note_on_c, 0, 68, 0
1, 68700, Note_on_c, 0, 70, 85
1, 68712, Note_on_c, 0, 70, 0
1, 68712, Note_on_c, 0, 68, 85
1, 68724, Note_on_c, 0, 68, 0
1, 68724, Note_on_c, 0, 70, 85
1, 68733, Note_on_c, 0, 70, 0
1, 68736, Note_on_c, 0, 73, 85
1, 68759, Note_on_c, 0, 73, 0
1, 68760, Note_on_c, 0, 65, 85
1, 68783, Note_on_c, 0, 65, 0
1, 68784, Note_on_c, 0, 65, 85
1, 68796, Note_on_c, 0, 65, 0
1, 68796, Note_on_c, 0, 67, 85
1, 68808, Note_on_c, 0, 67, 0
1, 68808, Note_on_c, 0, 65, 85
1, 68820, Note_on_c, 0, 65, 0
1, 68820, Note_on_c, 0, 67, 85
1, 68829, Note_on_c, 0, 67, 0
1, 68832, Note_on_c, 0, 68, 85
1, 68855, Note_on_c, 0, 68, 0
1, 68856, Note_on_c, 0, 61, 85
1, 68879, Note_on_c, 0, 61, 0
1, 68880, Note_on_c, 0, 61, 85
1, 68892, Note_on_c, 0, 61, 0
1, 68892, Note_on_c, 0, 63, 85
1, 68904, Note_on_c, 0, 63, 0
1, 68904, Note_on_c, 0, 61, 85
1, 68916, Note_on_c, 0, 61, 0
1, 68916, Note_on_c, 0, 63, 85
1, 68925, Note_on_c, 0, 63, 0
1, 68928, Note_on_c, 0, 65, 85
1, 68951, Note_on_c, 0, 65, 0
1, 68952, Note_on_c, 0, 56, 85
1, 68975, Note_on_c, 0, 56, 0
1, 68976, Note_on_c, 0, 56, 85
1, 68988, Note_on_c, 0, 56, 0
1, 68988, Note_on_c, 0, 58, 85
1, 69000, Note_on_c, 0, 58, 0
1, 69000, Note_on_c, 0, 56, 85
1, 69012, Note_on_c, 0, 56, 0
1, 69012, Note_on_c, 0, 58, 85
1, 69021, Note_on_c, 0, 58, 0
1, 69024, Note_on_c, 0, 61, 85
1, 69069, Note_on_c, 0, 61, 0
1, 69072, Note_on_c, 0, 60, 85
1, 69097, Note_on_c, 1, 53, 0
1, 69097, Note_on_c, 1, 49, 0
1, 69097, Note_on_c, 1, 44, 0
1, 69097, Note_on_c, 1, 41, 0
1, 69117, Note_on_c, 0, 60, 0
1, 69120, Note_on_c, 0, 59, 85
1, 69120, Note_on_c, 1, 53, 85
1, 69120, Note_on_c, 1, 50, 85
1, 69120, Note_on_c, 1, 43, 85
1, 69135, Note_on_c, 0, 59, 0
1, 69136, Note_on_c, 0, 57, 85
1, 69151, Note_on_c, 0, 57, 0
1, 69152, Note_on_c, 0, 55, 85
1, 69167, Note_on_c, 0, 55, 0
1, 69168, Note_on_c, 0, 62, 85
1, 69183, Note_on_c, 0, 62, 0
1, 69184, Note_on_c, 0, 60, 85
1, 69199, Note_on_c, 0, 60, 0
1, 69200, Note_on_c, 0, 59, 85
1, 69215, Note_on_c, 0, 59, 0
1, 69216, Note_on_c, 0, 65, 85
1, 69231, Note_on_c, 0, 65, 0
1, 69232, Note_on_c, 0, 63, 85
1, 69247, Note_on_c, 0, 63, 0
1, 69248, Note_on_c, 0, 62, 85
1, 69263, Note_on_c, 0, 62, 0
1, 69264, Note_on_c, 0, 68, 85
1, 69279, Note_on_c, 0, 68, 0
1, 69280, Note_on_c, 0, 67, 85
1, 69295, Note_on_c, 0, 67, 0
1, 69296, Note_on_c, 0, 65, 85
1, 69297, Note_on_c, 1, 53, 0
1, 69297, Note_on_c, 1, 50, 0
1, 69297, Note_on_c, 1, 43, 0
1, 69311, Note_on_c, 0, 65, 0
1, 69312, Note_on_c, 0, 74, 85
1, 69312, Note_on_c, 1, 47, 85
1, 69327, Note_on_c, 0, 74, 0
1, 69328, Note_on_c, 0, 72, 85
1, 69343, Note_on_c, 0, 72, 0
1, 69344, Note_on_c, 0, 71, 85
1, 69359, Note_on_c, 0, 71, 0
1, 69360, Note_on_c, 0, 68, 85
1, 69375, Note_on_c, 0, 68, 0
1, 69376, Note_on_c, 0, 67, 85
1, 69391, Note_on_c, 0, 67, 0
1, 69392, Note_on_c, 0, 65, 85
1, 69401, Note_on_c, 1, 47, 0
1, 69407, Note_on_c, 0, 65, 0
1, 69408, Note_on_c, 0, 63, 85
1, 69408, Note_on_c, 1, 48, 85
1, 69423, Note_on_c, 0, 63, 0
1, 69424, Note_on_c, 0, 67, 85
1, 69439, Note_on_c, 0, 67, 0
1, 69440, Note_on_c, 0, 65, 86
1, 69447, Note_on_c, 1, 48, 0
1, 69455, Note_on_c, 0, 65, 0
1, 69456, Note_on_c, 0, 63, 87
1, 69471, Note_on_c, 0, 63, 0
1, 69472, Note_on_c, 0, 62, 87
1, 69487, Note_on_c, 0, 62, 0
1, 69488, Note_on_c, 0, 60, 88
1, 69503, Note_on_c, 0, 60, 0
1, 69504, Note_on_c, 0, 68, 89
1, 69504, Note_on_c, 1, 41, 85
1, 69519, Note_on_c, 0, 68, 0
1, 69520, Note_on_c, 0, 72, 89
1, 69535, Note_on_c, 0, 72, 0
1, 69536, Note_on_c, 0, 70, 90
1, 69543, Note_on_c, 1, 41, 0
1, 69551, Note_on_c, 0, 70, 0
1, 69552, Note_on_c, 0, 68, 91
1, 69567, Note_on_c, 0, 68, 0
1, 69568, Note_on_c, 0, 67, 91
1, 69583, Note_on_c, 0, 67, 0
1, 69584, Note_on_c, 0, 65, 92
1, 69599, Note_on_c, 0, 65, 0
1, 69600, Note_on_c, 0, 63, 93
1, 69600, Note_on_c, 1, 43, 85
1, 69615, Note_on_c, 0, 63, 0
1, 69616, Note_on_c, 0, 62, 92
1, 69631, Note_on_c, 0, 62, 0
1, 69632, Note_on_c, 0, 60, 91
1, 69639, Note_on_c, 1, 43, 0
1, 69647, Note_on_c, 0, 60, 0
1, 69648, Note_on_c, 0, 59, 91
1, 69663, Note_on_c, 0, 59, 0
1, 69664, Note_on_c, 0, 60, 90
1, 69679, Note_on_c, 0, 60, 0
1, 69680, Note_on_c, 0, 62, 89
1, 69695, Note_on_c, 0, 62, 0
1, 69696, Note_on_c, 0, 63, 85
1, 69696, Note_on_c, 1, 48, 85
1, 69711, Note_on_c, 0, 63, 0
1, 69712, Note_on_c, 0, 67, 85
1, 69727, Note_on_c, 0, 67, 0
1, 69728, Note_on_c, 0, 65, 86
1, 69735, Note_on_c, 1, 48, 0
1, 69743, Note_on_c, 0, 65, 0
1, 69744, Note_on_c, 0, 63, 87
1, 69759, Note_on_c, 0, 63, 0
1, 69760, Note_on_c, 0, 62, 87
1, 69775, Note_on_c, 0, 62, 0
1, 69776, Note_on_c, 0, 60, 88
1, 69791, Note_on_c, 0, 60, 0
1, 69792, Note_on_c, 0, 68, 89
1, 69792, Note_on_c, 1, 41, 85
1, 69807, Note_on_c, 0, 68, 0
1, 69808, Note_on_c, 0, 72, 89
1, 69823, Note_on_c, 0, 72, 0
1, 69824, Note_on_c, 0, 70, 90
1, 69831, Note_on_c, 1, 41, 0
1, 69839, Note_on_c, 0, 70, 0
1, 69840, Note_on_c, 0, 68, 91
1, 69855, Note_on_c, 0, 68, 0
1, 69856, Note_on_c, 0, 67, 91
1, 69871, Note_on_c, 0, 67, 0
1, 69872, Note_on_c, 0, 65, 92
1, 69887, Note_on_c, 0, 65, 0
1, 69888, Note_on_c, 0, 63, 93
1, 69888, Note_on_c, 1, 43, 85
1, 69903, Note_on_c, 0, 63, 0
1, 69904, Note_on_c, 0, 62, 92
1, 69919, Note_on_c, 0, 62, 0
1, 69920, Note_on_c, 0, 60, 91
1, 69927, Note_on_c, 1, 43, 0
1, 69935, Note_on_c, 0, 60, 0
1, 69936, Note_on_c, 0, 59, 91
1, 69951, Note_on_c, 0, 59, 0
1, 69952, Note_on_c, 0, 60, 90
1, 69967, Note_on_c, 0, 60, 0
1, 69968, Note_on_c, 0, 62, 89
1, 69983, Note_on_c, 0, 62, 0
1, 69984, Note_on_c, 0, 60, 85
1, 70032, Note_on_c, 1, 36, 72
1, 70077, Note_on_c, 1, 36, 0
1, 70080, Note_on_c, 1, 48, 72
1, 70117, Note_on_c, 0, 60, 0
1, 70128, Note_on_c, 0, 59, 75
1, 70169, Note_on_c, 1, 48, 0
1, 70173, Note_on_c, 0, 59, 0
1, 70176, Note_on_c, 0, 65, 72
1, 70176, Note_on_c, 0, 62, 72
1, 70221, Note_on_c, 0, 65, 0
1, 70221, Note_on_c, 0, 62, 0
1, 70224, Note_on_c, 0, 62, 72
1, 70224, Note_on_c, 0, 59, 72
1, 70269, Note_on_c, 0, 62, 0
1, 70269, Note_on_c, 0, 59, 0
1, 70272, Note_on_c, 0, 63, 72
1, 70272, Note_on_c, 0, 60, 72
1, 70320, Note_on_c, 1, 36, 72
1, 70365, Note_on_c, 1, 36, 0
1, 70368, Note_on_c, 1, 48, 72
1, 70405, Note_on_c, 0, 63, 0
1, 70405, Note_on_c, 0, 60, 0
1, 70416, Note_on_c, 0, 62, 72
1, 70416, Note_on_c, 0, 59, 72
1, 70457, Note_on_c, 1, 48, 0
1, 70461, Note_on_c, 0, 62, 0
1, 70461, Note_on_c, 0, 59, 0
1, 70464, Note_on_c, 0, 68, 72
1, 70464, Note_on_c, 0, 65, 72
1, 70509, Note_on_c, 0, 68, 0
1, 70509, Note_on_c, 0, 65, 0
1, 70512, Note_on_c, 0, 65, 72
1, 70512, Note_on_c, 0, 62, 72
1, 70557, Note_on_c, 0, 65, 0
1, 70557, Note_on_c, 0, 62, 0
1, 70560, Note_on_c, 0, 67, 72
1, 70560, Note_on_c, 0, 63, 72
1, 70608, Note_on_c, 1, 36, 72
1, 70653, Note_on_c, 1, 36, 0
1, 70656, Note_on_c, 1, 48, 72
1, 70693, Note_on_c, 0, 67, 0
1, 70693, Note_on_c, 0, 63, 0
1, 70704, Note_on_c, 0, 72, 72
1, 70716, Note_on_c, 0, 72, 0
1, 70716, Note_on_c, 0, 68, 72
1, 70745, Note_on_c, 1, 48, 0
1, 70750, Note_on_c, 0, 68, 0
1, 70752, Note_on_c, 0, 70, 72
1, 70764, Note_on_c, 0, 70, 0
1, 70764, Note_on_c, 0, 67, 72
1, 70798, Note_on_c, 0, 67, 0
1, 70800, Note_on_c, 0, 68, 72
1, 70812, Note_on_c, 0, 68, 0
1, 70812, Note_on_c, 0, 65, 73
1, 70846, Note_on_c, 0, 65, 0
1, 70848, Note_on_c, 0, 67, 73
1, 70848, Note_on_c, 0, 63, 73
1, 70896, Note_on_c, 1, 36, 73
1, 70941, Note_on_c, 1, 36, 0
1, 70944, Note_on_c, 1, 48, 73
1, 70981, Note_on_c, 0, 67, 0
1, 70981, Note_on_c, 0, 63, 0
1, 70992, Note_on_c, 0, 72, 74
1, 71004, Note_on_c, 0, 72, 0
1, 71004, Note_on_c, 0, 68, 75
1, 71033, Note_on_c, 1, 48, 0
1, 71038, Note_on_c, 0, 68, 0
1, 71040, Note_on_c, 0, 70, 75
1, 71052, Note_on_c, 0, 70, 0
1, 71052, Note_on_c, 0, 67, 75
1, 71086, Note_on_c, 0, 67, 0
1, 71088, Note_on_c, 0, 68, 75
1, 71100, Note_on_c, 0, 68, 0
1, 71100, Note_on_c, 0, 65, 75
1, 71134, Note_on_c, 0, 65, 0
1, 71136, Note_on_c, 0, 67, 76
1, 71136, Note_on_c, 0, 64, 76
1, 71184, Note_on_c, 1, 36, 75
1, 71229, Note_on_c, 1, 36, 0
1, 71232, Note_on_c, 1, 48, 76
1, 71269, Note_on_c, 0, 67, 0
1, 71269, Note_on_c, 0, 64, 0
1, 71280, Note_on_c, 0, 73, 77
1, 71292, Note_on_c, 0, 73, 0
1, 71292, Note_on_c, 0, 70, 77
1, 71321, Note_on_c, 1, 48, 0
1, 71326, Note_on_c, 0, 70, 0
1, 71328, Note_on_c, 0, 72, 78
1, 71340, Note_on_c, 0, 72, 0
1, 71340, Note_on_c, 0, 68, 78
1, 71374, Note_on_c, 0, 68, 0
1, 71376, Note_on_c, 0, 70, 78
1, 71388, Note_on_c, 0, 70, 0
1, 71388, Note_on_c, 0, 67, 78
1, 71422, Note_on_c, 0, 67, 0
1, 71424, Note_on_c, 0, 68, 79
1, 71424, Note_on_c, 1, 53, 77
1, 71424, Note_on_c, 1, 41, 77
1, 71436, Note_on_c, 0, 68, 0
1, 71436, Note_on_c, 0, 65, 79
1, 71469, Note_on_c, 1, 53, 0
1, 71469, Note_on_c, 1, 41, 0
1, 71470, Note_on_c, 0, 65, 0
1, 71472, Note_on_c, 0, 67, 79
1, 71472, Note_on_c, 1, 51, 78
1, 71472, Note_on_c, 1, 39, 78
1, 71484, Note_on_c, 0, 67, 0
1, 71484, Note_on_c, 0, 63, 79
1, 71517, Note_on_c, 1, 51, 0
1, 71517, Note_on_c, 1, 39, 0
1, 71518, Note_on_c, 0, 63, 0
1, 71520, Note_on_c, 0, 65, 80
1, 71520, Note_on_c, 1, 50, 78
1, 71520, Note_on_c, 1, 38, 78
1, 71532, Note_on_c, 0, 65, 0
1, 71532, Note_on_c, 0, 62, 80
1, 71565, Note_on_c, 1, 50, 0
1, 71565, Note_on_c, 1, 38, 0
1, 71566, Note_on_c, 0, 62, 0
1, 71568, Note_on_c, 0, 63, 80
1, 71568, Note_on_c, 1, 48, 78
1, 71568, Note_on_c, 1, 36, 78
1, 71580, Note_on_c, 0, 63, 0
1, 71580, Note_on_c, 0, 60, 80
1, 71613, Note_on_c, 1, 48, 0
1, 71613, Note_on_c, 1, 36, 0
1, 71614, Note_on_c, 0, 60, 0
1, 71616, Note_on_c, 0, 62, 81
1, 71616, Note_on_c, 1, 46, 79
1, 71616, Note_on_c, 1, 34, 79
1, 71628, Note_on_c, 0, 62, 0
1, 71628, Note_on_c, 0, 58, 81
1, 71661, Note_on_c, 1, 46, 0
1, 71661, Note_on_c, 1, 34, 0
1, 71662, Note_on_c, 0, 58, 0
1, 71664, Note_on_c, 0, 60, 81
1, 71664, Note_on_c, 1, 45, 79
1, 71664, Note_on_c, 1, 33, 79
1, 71676, Note_on_c, 0, 60, 0
1, 71676, Note_on_c, 0, 57, 81
1, 71709, Note_on_c, 1, 45, 0
1, 71709, Note_on_c, 1, 33, 0
1, 71710, Note_on_c, 0, 57, 0
1, 71712, Note_on_c, 0, 58, 82
1, 71712, Note_on_c, 1, 46, 80
1, 71712, Note_on_c, 1, 34, 80
1, 71757, Note_on_c, 0, 58, 0
1, 71760, Note_on_c, 0, 56, 82
1, 71772, Note_on_c, 0, 56, 0
1, 71772, Note_on_c, 0, 68, 82
1, 71805, Note_on_c, 0, 68, 0
1, 71808, Note_on_c, 0, 58, 83
1, 71820, Note_on_c, 0, 58, 0
1, 71820, Note_on_c, 0, 70, 83
1, 71853, Note_on_c, 0, 70, 0
1, 71856, Note_on_c, 0, 62, 83
1, 71868, Note_on_c, 0, 62, 0
1, 71868, Note_on_c, 0, 74, 83
1, 71901, Note_on_c, 0, 74, 0
1, 71904, Note_on_c, 0, 65, 84
1, 71916, Note_on_c, 0, 65, 0
1, 71916, Note_on_c, 0, 77, 84
1, 71949, Note_on_c, 0, 77, 0
1, 71952, Note_on_c, 0, 67, 84
1, 71964, Note_on_c, 0, 67, 0
1, 71964, Note_on_c, 0, 79, 84
1, 71977, Note_on_c, 1, 46, 0
1, 71977, Note_on_c, 1, 34, 0
1, 71997, Note_on_c, 0, 79, 0
1, 72000, Note_on_c, 0, 68, 85
1, 72000, Note_on_c, 1, 56, 82
1, 72000, Note_on_c, 1, 53, 82
1, 72000, Note_on_c, 1, 50, 82
1, 72000, Note_on_c, 1, 46, 82
1, 72018, Note_on_c, 0, 68, 0
1, 72018, Note_on_c, 0, 80, 85
1, 72311, Note_on_c, 0, 80, 0
1, 72312, Note_on_c, 0, 79, 85
1, 72335, Note_on_c, 0, 79, 0
1, 72336, Note_on_c, 0, 82, 85
1, 72359, Note_on_c, 0, 82, 0
1, 72360, Note_on_c, 0, 80, 85
1, 72383, Note_on_c, 0, 80, 0
1, 72384, Note_on_c, 0, 84, 85
1, 72407, Note_on_c, 0, 84, 0
1, 72408, Note_on_c, 0, 82, 84
1, 72431, Note_on_c, 0, 82, 0
1, 72432, Note_on_c, 0, 80, 83
1, 72455, Note_on_c, 0, 80, 0
1, 72456, Note_on_c, 0, 79, 82
1, 72479, Note_on_c, 0, 79, 0
1, 72480, Note_on_c, 0, 77, 82
1, 72503, Note_on_c, 0, 77, 0
1, 72504, Note_on_c, 0, 75, 81
1, 72527, Note_on_c, 0, 75, 0
1, 72528, Note_on_c, 0, 74, 80
1, 72551, Note_on_c, 0, 74, 0
1, 72552, Note_on_c, 0, 72, 79
1, 72553, Note_on_c, 1, 56, 0
1, 72553, Note_on_c, 1, 53, 0
1, 72553, Note_on_c, 1, 50, 0
1, 72553, Note_on_c, 1, 46, 0
1, 72575, Note_on_c, 0, 72, 0
1, 72576, Note_on_c, 0, 70, 79
1, 72624, Note_on_c, 1, 39, 79
1, 72669, Note_on_c, 1, 39, 0
1, 72672, Note_on_c, 1, 43, 79
1, 72695, Note_on_c, 0, 70, 0
1, 72696, Note_on_c, 0, 67, 79
1, 72717, Note_on_c, 1, 43, 0
1, 72719, Note_on_c, 0, 67, 0
1, 72720, Note_on_c, 0, 68, 79
1, 72720, Note_on_c, 1, 46, 79
1, 72743, Note_on_c, 0, 68, 0
1, 72744, Note_on_c, 0, 65, 79
1, 72765, Note_on_c, 1, 46, 0
1, 72767, Note_on_c, 0, 65, 0
1, 72768, Note_on_c, 0, 67, 79
1, 72768, Note_on_c, 1, 51, 79
1, 72791, Note_on_c, 0, 67, 0
1, 72792, Note_on_c, 0, 63, 79
1, 72813, Note_on_c, 1, 51, 0
1, 72815, Note_on_c, 0, 63, 0
1, 72816, Note_on_c, 0, 65, 79
1, 72816, Note_on_c, 1, 56, 79
1, 72839, Note_on_c, 0, 65, 0
1, 72840, Note_on_c, 0, 62, 79
1, 72861, Note_on_c, 1, 56, 0
1, 72863, Note_on_c, 0, 62, 0
1, 72864, Note_on_c, 0, 63, 79
1, 72864, Note_on_c, 1, 55, 79
1, 72884, Note_on_c, 0, 63, 0
1, 72912, Note_on_c, 0, 58, 81
1, 72932, Note_on_c, 0, 58, 0
1, 72953, Note_on_c, 1, 55, 0
1, 72960, Note_on_c, 0, 55, 83
1, 72980, Note_on_c, 0, 55, 0
1, 73008, Note_on_c, 0, 58, 85
1, 73028, Note_on_c, 0, 58, 0
1, 73056, Note_on_c, 0, 63, 83
1, 73076, Note_on_c, 0, 63, 0
1, 73104, Note_on_c, 0, 67, 81
1, 73124, Note_on_c, 0, 67, 0
1, 73152, Note_on_c, 0, 70, 79
1, 73200, Note_on_c, 1, 39, 79
1, 73245, Note_on_c, 1, 39, 0
1, 73248, Note_on_c, 1, 43, 79
1, 73271, Note_on_c, 0, 70, 0
1, 73272, Note_on_c, 0, 67, 79
1, 73293, Note_on_c, 1, 43, 0
1, 73295, Note_on_c, 0, 67, 0
1, 73296, Note_on_c, 0, 68, 79
1, 73296, Note_on_c, 1, 46, 79
1, 73319, Note_on_c, 0, 68, 0
1, 73320, Note_on_c, 0, 65, 79
1, 73341, Note_on_c, 1, 46, 0
1, 73343, Note_on_c, 0, 65, 0
1, 73344, Note_on_c, 0, 67, 79
1, 73344, Note_on_c, 1, 51, 79
1, 73367, Note_on_c, 0, 67, 0
1, 73368, Note_on_c, 0, 63, 79
1, 73389, Note_on_c, 1, 51, 0
1, 73391, Note_on_c, 0, 63, 0
1, 73392, Note_on_c, 0, 65, 79
1, 73392, Note_on_c, 1, 56, 79
1, 73415, Note_on_c, 0, 65, 0
1, 73416, Note_on_c, 0, 62, 79
1, 73437, Note_on_c, 1, 56, 0
1, 73439, Note_on_c, 0, 62, 0
1, 73440, Note_on_c, 0, 63, 79
1, 73440, Note_on_c, 1, 55, 79
1, 73485, Note_on_c, 0, 63, 0
1, 73488, Note_on_c, 0, 67, 79
1, 73512, Note_on_c, 0, 67, 0
1, 73512, Note_on_c, 0, 75, 79
1, 73529, Note_on_c, 1, 55, 0
1, 73535, Note_on_c, 0, 75, 0
1, 73536, Note_on_c, 0, 67, 79
1, 73560, Note_on_c, 0, 67, 0
1, 73560, Note_on_c, 0, 75, 79
1, 73583, Note_on_c, 0, 75, 0
1, 73584, Note_on_c, 0, 67, 79
1, 73608, Note_on_c, 0, 67, 0
1, 73608, Note_on_c, 0, 75, 79
1, 73631, Note_on_c, 0, 75, 0
1, 73632, Note_on_c, 0, 67, 79
1, 73656, Note_on_c, 0, 67, 0
1, 73656, Note_on_c, 0, 75, 79
1, 73679, Note_on_c, 0, 75, 0
1, 73680, Note_on_c, 0, 67, 79
1, 73704, Note_on_c, 0, 67, 0
1, 73704, Note_on_c, 0, 75, 79
1, 73727, Note_on_c, 0, 75, 0
1, 73728, Note_on_c, 0, 75, 95
1, 73728, Note_on_c, 0, 65, 79
1, 73776, Note_on_c, 1, 68, 79
1, 73800, Note_on_c, 1, 68, 0
1, 73800, Note_on_c, 1, 70, 79
1, 73823, Note_on_c, 1, 70, 0
1, 73824, Note_on_c, 1, 68, 79
1, 73848, Note_on_c, 1, 68, 0
1, 73848, Note_on_c, 1, 70, 79
1, 73871, Note_on_c, 1, 70, 0
1, 73872, Note_on_c, 1, 68, 79
1, 73896, Note_on_c, 1, 68, 0
1, 73896, Note_on_c, 1, 70, 79
1, 73919, Note_on_c, 1, 70, 0
1, 73920, Note_on_c, 0, 75, 0
1, 73920, Note_on_c, 0, 74, 79
1, 73920, Note_on_c, 1, 68, 79
1, 73944, Note_on_c, 1, 68, 0
1, 73944, Note_on_c, 1, 70, 79
1, 73967, Note_on_c, 1, 70, 0
1, 73968, Note_on_c, 1, 68, 79
1, 73992, Note_on_c, 1, 68, 0
1, 73992, Note_on_c, 1, 70, 79
1, 73993, Note_on_c, 0, 65, 0
1, 74009, Note_on_c, 0, 74, 0
1, 74015, Note_on_c, 1, 70, 0
1, 74016, Note_on_c, 1, 70, 79
1, 74016, Note_on_c, 1, 68, 72
1, 74064, Note_on_c, 0, 73, 79
1, 74088, Note_on_c, 0, 73, 0
1, 74088, Note_on_c, 0, 82, 79
1, 74111, Note_on_c, 0, 82, 0
1, 74112, Note_on_c, 0, 73, 79
1, 74136, Note_on_c, 0, 73, 0
1, 74136, Note_on_c, 0, 82, 79
1, 74159, Note_on_c, 0, 82, 0
1, 74160, Note_on_c, 0, 73, 79
1, 74184, Note_on_c, 0, 73, 0
1, 74184, Note_on_c, 0, 82, 79
1, 74207, Note_on_c, 0, 82, 0
1, 74208, Note_on_c, 0, 73, 79
1, 74208, Note_on_c, 1, 68, 0
1, 74208, Note_on_c, 1, 67, 72
1, 74232, Note_on_c, 0, 73, 0
1, 74232, Note_on_c, 0, 82, 79
1, 74255, Note_on_c, 0, 82, 0
1, 74256, Note_on_c, 0, 73, 79
1, 74280, Note_on_c, 0, 73, 0
1, 74280, Note_on_c, 0, 82, 79
1, 74281, Note_on_c, 1, 70, 0
1, 74297, Note_on_c, 1, 67, 0
1, 74303, Note_on_c, 0, 82, 0
1, 74304, Note_on_c, 0, 82, 79
1, 74304, Note_on_c, 0, 73, 79
1, 74352, Note_on_c, 1, 44, 79
1, 74376, Note_on_c, 1, 44, 0
1, 74376, Note_on_c, 1, 56, 79
1, 74393, Note_on_c, 0, 82, 0
1, 74393, Note_on_c, 0, 73, 0
1, 74399, Note_on_c, 1, 56, 0
1, 74400, Note_on_c, 0, 80, 79
1, 74400, Note_on_c, 0, 72, 79
1, 74400, Note_on_c, 1, 44, 79
1, 74424, Note_on_c, 1, 44, 0
1, 74424, Note_on_c, 1, 56, 79
1, 74445, Note_on_c, 0, 80, 0
1, 74445, Note_on_c, 0, 72, 0
1, 74447, Note_on_c, 1, 56, 0
1, 74448, Note_on_c, 0, 79, 79
1, 74448, Note_on_c, 0, 70, 79
1, 74448, Note_on_c, 1, 44, 79
1, 74472, Note_on_c, 1, 44, 0
1, 74472, Note_on_c, 1, 56, 79
1, 74493, Note_on_c, 0, 79, 0
1, 74493, Note_on_c, 0, 70, 0
1, 74495, Note_on_c, 1, 56, 0
1, 74496, Note_on_c, 0, 77, 79
1, 74496, Note_on_c, 0, 68, 79
1, 74496, Note_on_c, 1, 46, 79
1, 74520, Note_on_c, 1, 46, 0
1, 74520, Note_on_c, 1, 58, 79
1, 74541, Note_on_c, 0, 77, 0
1, 74541, Note_on_c, 0, 68, 0
1, 74543, Note_on_c, 1, 58, 0
1, 74544, Note_on_c, 0, 74, 79
1, 74544, Note_on_c, 0, 65, 79
1, 74544, Note_on_c, 1, 46, 79
1, 74568, Note_on_c, 1, 46, 0
1, 74568, Note_on_c, 1, 58, 79
1, 74589, Note_on_c, 0, 74, 0
1, 74589, Note_on_c, 0, 65, 0
1, 74591, Note_on_c, 1, 58, 0
1, 74592, Note_on_c, 0, 75, 79
1, 74592, Note_on_c, 0, 67, 79
1, 74592, Note_on_c, 1, 39, 79
1, 74637, Note_on_c, 1, 39, 0
1, 74640, Note_on_c, 1, 67, 79
1, 74640, Note_on_c, 1, 63, 79
1, 74660, Note_on_c, 1, 67, 0
1, 74660, Note_on_c, 1, 63, 0
1, 74681, Note_on_c, 0, 75, 0
1, 74681, Note_on_c, 0, 67, 0
1, 74688, Note_on_c, 1, 67, 79
1, 74688, Note_on_c, 1, 63, 79
1, 74708, Note_on_c, 1, 67, 0
1, 74708, Note_on_c, 1, 63, 0
1, 74736, Note_on_c, 1, 67, 79
1, 74736, Note_on_c, 1, 63, 79
1, 74756, Note_on_c, 1, 67, 0
1, 74756, Note_on_c, 1, 63, 0
1, 74784, Note_on_c, 1, 67, 79
1, 74784, Note_on_c, 1, 63, 79
1, 74804, Note_on_c, 1, 67, 0
1, 74804, Note_on_c, 1, 63, 0
1, 74832, Note_on_c, 1, 67, 79
1, 74832, Note_on_c, 1, 63, 79
1, 74852, Note_on_c, 1, 67, 0
1, 74852, Note_on_c, 1, 63, 0
1, 74880, Note_on_c, 1, 65, 79
1, 74880, Note_on_c, 1, 63, 88
1, 74928, Note_on_c, 0, 70, 79
1, 74928, Note_on_c, 0, 68, 79
1, 74948, Note_on_c, 0, 70, 0
1, 74948, Note_on_c, 0, 68, 0
1, 74976, Note_on_c, 0, 70, 79
1, 74976, Note_on_c, 0, 68, 79
1, 74996, Note_on_c, 0, 70, 0
1, 74996, Note_on_c, 0, 68, 0
1, 75024, Note_on_c, 0, 70, 79
1, 75024, Note_on_c, 0, 68, 79
1, 75044, Note_on_c, 0, 70, 0
1, 75044, Note_on_c, 0, 68, 0
1, 75072, Note_on_c, 0, 70, 79
1, 75072, Note_on_c, 0, 68, 79
1, 75072, Note_on_c, 1, 63, 0
1, 75072, Note_on_c, 1, 62, 72
1, 75092, Note_on_c, 0, 70, 0
1, 75092, Note_on_c, 0, 68, 0
1, 75120, Note_on_c, 0, 70, 79
1, 75120, Note_on_c, 0, 68, 79
1, 75140, Note_on_c, 0, 70, 0
1, 75140, Note_on_c, 0, 68, 0
1, 75145, Note_on_c, 1, 65, 0
1, 75161, Note_on_c, 1, 62, 0
1, 75168, Note_on_c, 0, 70, 79
1, 75168, Note_on_c, 0, 68, 95
1, 75216, Note_on_c, 1, 73, 79
1, 75216, Note_on_c, 1, 63, 79
1, 75236, Note_on_c, 1, 73, 0
1, 75236, Note_on_c, 1, 63, 0
1, 75264, Note_on_c, 1, 73, 79
1, 75264, Note_on_c, 1, 63, 79
1, 75284, Note_on_c, 1, 73, 0
1, 75284, Note_on_c, 1, 63, 0
1, 75312, Note_on_c, 1, 73, 79
1, 75312, Note_on_c, 1, 63, 79
1, 75332, Note_on_c, 1, 73, 0
1, 75332, Note_on_c, 1, 63, 0
1, 75360, Note_on_c, 0, 68, 0
1, 75360, Note_on_c, 0, 67, 79
1, 75360, Note_on_c, 1, 73, 79
1, 75360, Note_on_c, 1, 63, 79
1, 75380, Note_on_c, 1, 73, 0
1, 75380, Note_on_c, 1, 63, 0
1, 75408, Note_on_c, 1, 73, 79
1, 75408, Note_on_c, 1, 63, 79
1, 75428, Note_on_c, 1, 73, 0
1, 75428, Note_on_c, 1, 63, 0
1, 75433, Note_on_c, 0, 70, 0
1, 75449, Note_on_c, 0, 67, 0
1, 75456, Note_on_c, 1, 73, 95
1, 75456, Note_on_c, 1, 63, 95
1, 75504, Note_on_c, 0, 79, 79
1, 75504, Note_on_c, 0, 70, 79
1, 75524, Note_on_c, 0, 79, 0
1, 75524, Note_on_c, 0, 70, 0
1, 75552, Note_on_c, 0, 79, 79
1, 75552, Note_on_c, 0, 70, 79
1, 75572, Note_on_c, 0, 79, 0
1, 75572, Note_on_c, 0, 70, 0
1, 75600, Note_on_c, 0, 79, 79
1, 75600, Note_on_c, 0, 70, 79
1, 75620, Note_on_c, 0, 79, 0
1, 75620, Note_on_c, 0, 70, 0
1, 75648, Note_on_c, 0, 79, 79
1, 75648, Note_on_c, 0, 70, 79
1, 75648, Note_on_c, 1, 73, 0
1, 75648, Note_on_c, 1, 63, 0
1, 75648, Note_on_c, 1, 72, 79
1, 75648, Note_on_c, 1, 64, 79
1, 75668, Note_on_c, 0, 79, 0
1, 75668, Note_on_c, 0, 70, 0
1, 75696, Note_on_c, 0, 79, 79
1, 75696, Note_on_c, 0, 70, 79
1, 75716, Note_on_c, 0, 79, 0
1, 75716, Note_on_c, 0, 70, 0
1, 75737, Note_on_c, 1, 72, 0
1, 75737, Note_on_c, 1, 64, 0
1, 75744, Note_on_c, 0, 79, 95
1, 75744, Note_on_c, 0, 70, 95
1, 75792, Note_on_c, 1, 72, 79
1, 75792, Note_on_c, 1, 65, 79
1, 75812, Note_on_c, 1, 72, 0
1, 75812, Note_on_c, 1, 65, 0
1, 75840, Note_on_c, 1, 72, 79
1, 75840, Note_on_c, 1, 65, 79
1, 75860, Note_on_c, 1, 72, 0
1, 75860, Note_on_c, 1, 65, 0
1, 75888, Note_on_c, 1, 72, 79
1, 75888, Note_on_c, 1, 65, 79
1, 75908, Note_on_c, 1, 72, 0
1, 75908, Note_on_c, 1, 65, 0
1, 75936, Note_on_c, 0, 79, 0
1, 75936, Note_on_c, 0, 70, 0
1, 75936, Note_on_c, 0, 77, 79
1, 75936, Note_on_c, 0, 68, 79
1, 75936, Note_on_c, 1, 72, 79
1, 75936, Note_on_c, 1, 65, 79
1, 75956, Note_on_c, 1, 72, 0
1, 75956, Note_on_c, 1, 65, 0
1, 75984, Note_on_c, 1, 72, 79
1, 75984, Note_on_c, 1, 65, 79
1, 76003, Note_on_c, 0, 77, 0
1, 76003, Note_on_c, 0, 68, 0
1, 76004, Note_on_c, 1, 72, 0
1, 76004, Note_on_c, 1, 65, 0
1, 76008, Note_on_c, 0, 80, 79
1, 76008, Note_on_c, 0, 72, 79
1, 76031, Note_on_c, 0, 80, 0
1, 76031, Note_on_c, 0, 72, 0
1, 76032, Note_on_c, 0, 80, 95
1, 76032, Note_on_c, 0, 72, 95
1, 76080, Note_on_c, 1, 65, 79
1, 76080, Note_on_c, 1, 62, 79
1, 76100, Note_on_c, 1, 65, 0
1, 76100, Note_on_c, 1, 62, 0
1, 76128, Note_on_c, 1, 65, 79
1, 76128, Note_on_c, 1, 62, 79
1, 76148, Note_on_c, 1, 65, 0
1, 76148, Note_on_c, 1, 62, 0
1, 76176, Note_on_c, 1, 65, 79
1, 76176, Note_on_c, 1, 62, 79
1, 76196, Note_on_c, 1, 65, 0
1, 76196, Note_on_c, 1, 62, 0
1, 76224, Note_on_c, 0, 80, 0
1, 76224, Note_on_c, 0, 72, 0
1, 76224, Note_on_c, 0, 79, 79
1, 76224, Note_on_c, 0, 70, 79
1, 76224, Note_on_c, 1, 67, 79
1, 76224, Note_on_c, 1, 63, 79
1, 76244, Note_on_c, 1, 67, 0
1, 76244, Note_on_c, 1, 63, 0
1, 76272, Note_on_c, 1, 67, 79
1, 76272, Note_on_c, 1, 63, 79
1, 76292, Note_on_c, 1, 67, 0
1, 76292, Note_on_c, 1, 63, 0
1, 76313, Note_on_c, 0, 79, 0
1, 76313, Note_on_c, 0, 70, 0
1, 76320, Note_on_c, 0, 77, 79
1, 76320, Note_on_c, 1, 65, 79
1, 76320, Note_on_c, 1, 60, 79
1, 76320, Note_on_c, 1, 56, 79
1, 76343, Note_on_c, 0, 77, 0
1, 76344, Note_on_c, 0, 76, 79
1, 76367, Note_on_c, 0, 76, 0
1, 76368, Note_on_c, 0, 79, 80
1, 76391, Note_on_c, 0, 79, 0
1, 76392, Note_on_c, 0, 77, 81
1, 76415, Note_on_c, 0, 77, 0
1, 76416, Note_on_c, 0, 80, 82
1, 76439, Note_on_c, 0, 80, 0
1, 76440, Note_on_c, 0, 79, 82
1, 76463, Note_on_c, 0, 79, 0
1, 76464, Note_on_c, 0, 82, 83
1, 76487, Note_on_c, 0, 82, 0
1, 76488, Note_on_c, 0, 80, 84
1, 76497, Note_on_c, 1, 65, 0
1, 76497, Note_on_c, 1, 60, 0
1, 76497, Note_on_c, 1, 56, 0
1, 76511, Note_on_c, 0, 80, 0
1, 76512, Note_on_c, 0, 84, 101
1, 76512, Note_on_c, 1, 65, 79
1, 76512, Note_on_c, 1, 57, 79
1, 76584, Note_on_c, 0, 84, 0
1, 76584, Note_on_c, 0, 75, 83
1, 76607, Note_on_c, 0, 75, 0
1, 76608, Note_on_c, 0, 75, 83
1, 76608, Note_on_c, 1, 57, 0
1, 76608, Note_on_c, 1, 58, 79
1, 76697, Note_on_c, 1, 65, 0
1, 76697, Note_on_c, 1, 58, 0
1, 76704, Note_on_c, 1, 70, 79
1, 76785, Note_on_c, 0, 75, 0
1, 76798, Note_on_c, 1, 70, 0
1, 76800, Note_on_c, 0, 74, 79
1, 76848, Note_on_c, 0, 74, 0
1, 76848, Note_on_c, 0, 73, 79
1, 76893, Note_on_c, 0, 73, 0
1, 76896, Note_on_c, 0, 72, 79
1, 76944, Note_on_c, 1, 67, 65
1, 76944, Note_on_c, 1, 64, 65
1, 76992, Note_on_c, 1, 67, 0
1, 76992, Note_on_c, 1, 64, 0
1, 76992, Note_on_c, 1, 68, 65
1, 76992, Note_on_c, 1, 65, 65
1, 77015, Note_on_c, 0, 72, 0
1, 77016, Note_on_c, 0, 76, 79
1, 77039, Note_on_c, 0, 76, 0
1, 77040, Note_on_c, 0, 77, 79
1, 77063, Note_on_c, 0, 77, 0
1, 77064, Note_on_c, 0, 73, 79
1, 77081, Note_on_c, 1, 68, 0
1, 77081, Note_on_c, 1, 65, 0
1, 77087, Note_on_c, 0, 73, 0
1, 77088, Note_on_c, 0, 72, 79
1, 77111, Note_on_c, 0, 72, 0
1, 77112, Note_on_c, 0, 70, 79
1, 77135, Note_on_c, 0, 70, 0
1, 77136, Note_on_c, 0, 68, 79
1, 77159, Note_on_c, 0, 68, 0
1, 77160, Note_on_c, 0, 67, 79
1, 77183, Note_on_c, 0, 67, 0
1, 77184, Note_on_c, 0, 65, 79
1, 77207, Note_on_c, 0, 65, 0
1, 77208, Note_on_c, 0, 64, 79
1, 77231, Note_on_c, 0, 64, 0
1, 77232, Note_on_c, 0, 67, 79
1, 77255, Note_on_c, 0, 67, 0
1, 77256, Note_on_c, 0, 65, 79
1, 77279, Note_on_c, 0, 65, 0
1, 77280, Note_on_c, 0, 68, 79
1, 77303, Note_on_c, 0, 68, 0
1, 77304, Note_on_c, 0, 67, 79
1, 77327, Note_on_c, 0, 67, 0
1, 77328, Note_on_c, 0, 70, 79
1, 77351, Note_on_c, 0, 70, 0
1, 77352, Note_on_c, 0, 68, 79
1, 77375, Note_on_c, 0, 68, 0
1, 77376, Note_on_c, 0, 72, 79
1, 77421, Note_on_c, 0, 72, 0
1, 77472, Note_on_c, 0, 70, 79
1, 77520, Note_on_c, 1, 65, 72
1, 77520, Note_on_c, 1, 62, 72
1, 77568, Note_on_c, 1, 65, 0
1, 77568, Note_on_c, 1, 62, 0
1, 77568, Note_on_c, 1, 67, 72
1, 77568, Note_on_c, 1, 63, 72
1, 77591, Note_on_c, 0, 70, 0
1, 77592, Note_on_c, 0, 74, 79
1, 77615, Note_on_c, 0, 74, 0
1, 77616, Note_on_c, 0, 75, 79
1, 77639, Note_on_c, 0, 75, 0
1, 77640, Note_on_c, 0, 72, 79
1, 77657, Note_on_c, 1, 67, 0
1, 77657, Note_on_c, 1, 63, 0
1, 77663, Note_on_c, 0, 72, 0
1, 77664, Note_on_c, 0, 70, 79
1, 77687, Note_on_c, 0, 70, 0
1, 77688, Note_on_c, 0, 68, 79
1, 77711, Note_on_c, 0, 68, 0
1, 77712, Note_on_c, 0, 67, 79
1, 77735, Note_on_c, 0, 67, 0
1, 77736, Note_on_c, 0, 65, 79
1, 77759, Note_on_c, 0, 65, 0
1, 77760, Note_on_c, 0, 63, 79
1, 77783, Note_on_c, 0, 63, 0
1, 77784, Note_on_c, 0, 62, 79
1, 77807, Note_on_c, 0, 62, 0
1, 77808, Note_on_c, 0, 65, 79
1, 77831, Note_on_c, 0, 65, 0
1, 77832, Note_on_c, 0, 63, 79
1, 77855, Note_on_c, 0, 63, 0
1, 77856, Note_on_c, 0, 67, 79
1, 77879, Note_on_c, 0, 67, 0
1, 77880, Note_on_c, 0, 65, 79
1, 77903, Note_on_c, 0, 65, 0
1, 77904, Note_on_c, 0, 68, 79
1, 77927, Note_on_c, 0, 68, 0
1, 77928, Note_on_c, 0, 67, 79
1, 77951, Note_on_c, 0, 67, 0
1, 77952, Note_on_c, 0, 70, 79
1, 77997, Note_on_c, 0, 70, 0
1, 78000, Note_on_c, 1, 55, 72
1, 78000, Note_on_c, 1, 51, 72
1, 78048, Note_on_c, 0, 65, 79
1, 78048, Note_on_c, 1, 55, 0
1, 78048, Note_on_c, 1, 51, 0
1, 78048, Note_on_c, 1, 60, 72
1, 78048, Note_on_c, 1, 56, 72
1, 78071, Note_on_c, 0, 65, 0
1, 78072, Note_on_c, 0, 64, 79
1, 78095, Note_on_c, 0, 64, 0
1, 78096, Note_on_c, 0, 67, 79
1, 78119, Note_on_c, 0, 67, 0
1, 78120, Note_on_c, 0, 65, 79
1, 78137, Note_on_c, 1, 60, 0
1, 78137, Note_on_c, 1, 56, 0
1, 78143, Note_on_c, 0, 65, 0
1, 78144, Note_on_c, 0, 68, 79
1, 78167, Note_on_c, 0, 68, 0
1, 78168, Note_on_c, 0, 67, 79
1, 78191, Note_on_c, 0, 67, 0
1, 78192, Note_on_c, 0, 70, 79
1, 78215, Note_on_c, 0, 70, 0
1, 78216, Note_on_c, 0, 68, 79
1, 78239, Note_on_c, 0, 68, 0
1, 78240, Note_on_c, 0, 72, 79
1, 78285, Note_on_c, 0, 72, 0
1, 78288, Note_on_c, 1, 58, 72
1, 78288, Note_on_c, 1, 55, 72
1, 78336, Note_on_c, 0, 64, 79
1, 78336, Note_on_c, 1, 58, 0
1, 78336, Note_on_c, 1, 55, 0
1, 78336, Note_on_c, 1, 60, 72
1, 78336, Note_on_c, 1, 56, 72
1, 78359, Note_on_c, 0, 64, 0
1, 78360, Note_on_c, 0, 65, 79
1, 78383, Note_on_c, 0, 65, 0
1, 78384, Note_on_c, 0, 66, 79
1, 78407, Note_on_c, 0, 66, 0
1, 78408, Note_on_c, 0, 67, 80
1, 78425, Note_on_c, 1, 60, 0
1, 78425, Note_on_c, 1, 56, 0
1, 78431, Note_on_c, 0, 67, 0
1, 78432, Note_on_c, 0, 68, 80
1, 78455, Note_on_c, 0, 68, 0
1, 78456, Note_on_c, 0, 69, 81
1, 78479, Note_on_c, 0, 69, 0
1, 78480, Note_on_c, 0, 70, 81
1, 78503, Note_on_c, 0, 70, 0
1, 78504, Note_on_c, 0, 71, 82
1, 78527, Note_on_c, 0, 71, 0
1, 78528, Note_on_c, 0, 72, 82
1, 78573, Note_on_c, 0, 72, 0
1, 78576, Note_on_c, 0, 74, 83
1, 78586, Note_on_c, 0, 74, 0
1, 78586, Note_on_c, 0, 72, 84
1, 78596, Note_on_c, 0, 72, 0
1, 78596, Note_on_c, 0, 70, 84
1, 78606, Note_on_c, 0, 70, 0
1, 78606, Note_on_c, 0, 72, 84
1, 78615, Note_on_c, 0, 72, 0
1, 78615, Note_on_c, 0, 74, 84
1, 78624, Note_on_c, 0, 74, 0
1, 78624, Note_on_c, 0, 75, 85
1, 78624, Note_on_c, 1, 60, 72
1, 78624, Note_on_c, 1, 56, 72
1, 78644, Note_on_c, 0, 75, 0
1, 78696, Note_on_c, 0, 74, 85
1, 78713, Note_on_c, 1, 60, 0
1, 78713, Note_on_c, 1, 56, 0
1, 78720, Note_on_c, 0, 74, 0
1, 78720, Note_on_c, 0, 72, 85
1, 78740, Note_on_c, 0, 72, 0
1, 78792, Note_on_c, 0, 70, 85
1, 78816, Note_on_c, 0, 70, 0
1, 78816, Note_on_c, 0, 68, 85
1, 78836, Note_on_c, 0, 68, 0
1, 78888, Note_on_c, 0, 67, 85
1, 78888, Note_on_c, 1, 63, 72
1, 78888, Note_on_c, 1, 57, 72
1, 78911, Note_on_c, 0, 67, 0
1, 78911, Note_on_c, 1, 63, 0
1, 78911, Note_on_c, 1, 57, 0
1, 78912, Note_on_c, 0, 68, 84
1, 78912, Note_on_c, 1, 63, 72
1, 78912, Note_on_c, 1, 58, 72
1, 78924, Note_on_c, 0, 68, 0
1, 78924, Note_on_c, 0, 67, 84
1, 78936, Note_on_c, 0, 67, 0
1, 78936, Note_on_c, 0, 68, 83
1, 78948, Note_on_c, 0, 68, 0
1, 78948, Note_on_c, 0, 67, 83
1, 78960, Note_on_c, 0, 67, 0
1, 78960, Note_on_c, 0, 68, 83
1, 78972, Note_on_c, 0, 68, 0
1, 78972, Note_on_c, 0, 67, 82
1, 78984, Note_on_c, 0, 67, 0
1, 78984, Note_on_c, 0, 65, 82
1, 78996, Note_on_c, 0, 65, 0
1, 78996, Note_on_c, 0, 67, 82
1, 79001, Note_on_c, 1, 63, 0
1, 79008, Note_on_c, 0, 67, 0
1, 79008, Note_on_c, 0, 65, 81
1, 79008, Note_on_c, 1, 62, 72
1, 79089, Note_on_c, 1, 58, 0
1, 79097, Note_on_c, 0, 65, 0
1, 79097, Note_on_c, 1, 62, 0
1, 79200, Note_on_c, 0, 70, 79
1, 79200, Note_on_c, 0, 67, 79
1, 79248, Note_on_c, 1, 39, 72
1, 79293, Note_on_c, 1, 39, 0
1, 79296, Note_on_c, 1, 51, 72
1, 79333, Note_on_c, 0, 70, 0
1, 79333, Note_on_c, 0, 67, 0
1, 79344, Note_on_c, 0, 72, 79
1, 79344, Note_on_c, 0, 68, 79
1, 79367, Note_on_c, 0, 72, 0
1, 79367, Note_on_c, 0, 68, 0
1, 79368, Note_on_c, 0, 68, 79
1, 79368, Note_on_c, 0, 65, 79
1, 79385, Note_on_c, 1, 51, 0
1, 79391, Note_on_c, 0, 68, 0
1, 79391, Note_on_c, 0, 65, 0
1, 79392, Note_on_c, 0, 67, 79
1, 79392, Note_on_c, 0, 63, 79
1, 79437, Note_on_c, 0, 67, 0
1, 79437, Note_on_c, 0, 63, 0
1, 79440, Note_on_c, 0, 70, 79
1, 79440, Note_on_c, 0, 65, 79
1, 79452, Note_on_c, 0, 70, 0
1, 79452, Note_on_c, 0, 68, 79
1, 79464, Note_on_c, 0, 68, 0
1, 79464, Note_on_c, 0, 67, 79
1, 79476, Note_on_c, 0, 67, 0
1, 79476, Note_on_c, 0, 68, 79
1, 79485, Note_on_c, 0, 65, 0
1, 79488, Note_on_c, 0, 68, 0
1, 79488, Note_on_c, 0, 70, 79
1, 79488, Note_on_c, 0, 67, 79
1, 79488, Note_on_c, 1, 63, 72
1, 79533, Note_on_c, 0, 70, 0
1, 79533, Note_on_c, 0, 67, 0
1, 79533, Note_on_c, 1, 63, 0
1, 79536, Note_on_c, 0, 75, 79
1, 79581, Note_on_c, 0, 75, 0
1, 79584, Note_on_c, 1, 63, 72
1, 79629, Note_on_c, 1, 63, 0
1, 79632, Note_on_c, 0, 74, 79
1, 79632, Note_on_c, 0, 70, 79
1, 79677, Note_on_c, 0, 74, 0
1, 79677, Note_on_c, 0, 70, 0
1, 79680, Note_on_c, 1, 63, 72
1, 79725, Note_on_c, 1, 63, 0
1, 79728, Note_on_c, 0, 72, 79
1, 79728, Note_on_c, 0, 68, 79
1, 79773, Note_on_c, 0, 72, 0
1, 79773, Note_on_c, 0, 68, 0
1, 79776, Note_on_c, 0, 70, 79
1, 79776, Note_on_c, 0, 67, 79
1, 79824, Note_on_c, 1, 39, 72
1, 79869, Note_on_c, 1, 39, 0
1, 79872, Note_on_c, 1, 51, 72
1, 79909, Note_on_c, 0, 70, 0
1, 79909, Note_on_c, 0, 67, 0
1, 79920, Note_on_c, 0, 72, 79
1, 79920, Note_on_c, 0, 68, 79
1, 79943, Note_on_c, 0, 72, 0
1, 79943, Note_on_c, 0, 68, 0
1, 79944, Note_on_c, 0, 68, 79
1, 79944, Note_on_c, 0, 65, 79
1, 79961, Note_on_c, 1, 51, 0
1, 79967, Note_on_c, 0, 68, 0
1, 79967, Note_on_c, 0, 65, 0
1, 79968, Note_on_c, 0, 67, 79
1, 79968, Note_on_c, 0, 63, 79
1, 80013, Note_on_c, 0, 67, 0
1, 80013, Note_on_c, 0, 63, 0
1, 80016, Note_on_c, 0, 70, 79
1, 80016, Note_on_c, 0, 65, 79
1, 80028, Note_on_c, 0, 70, 0
1, 80028, Note_on_c, 0, 68, 79
1, 80040, Note_on_c, 0, 68, 0
1, 80040, Note_on_c, 0, 67, 79
1, 80052, Note_on_c, 0, 67, 0
1, 80052, Note_on_c, 0, 68, 79
1, 80061, Note_on_c, 0, 65, 0
1, 80064, Note_on_c, 0, 68, 0
1, 80064, Note_on_c, 0, 70, 79
1, 80064, Note_on_c, 0, 67, 79
1, 80064, Note_on_c, 1, 63, 72
1, 80109, Note_on_c, 0, 70, 0
1, 80109, Note_on_c, 0, 67, 0
1, 80109, Note_on_c, 1, 63, 0
1, 80112, Note_on_c, 0, 79, 79
1, 80112, Note_on_c, 0, 75, 79
1, 80157, Note_on_c, 0, 79, 0
1, 80157, Note_on_c, 0, 75, 0
1, 80160, Note_on_c, 1, 63, 72
1, 80205, Note_on_c, 1, 63, 0
1, 80208, Note_on_c, 0, 75, 79
1, 80208, Note_on_c, 0, 72, 79
1, 80253, Note_on_c, 0, 75, 0
1, 80253, Note_on_c, 0, 72, 0
1, 80256, Note_on_c, 1, 63, 72
1, 80301, Note_on_c, 1, 63, 0
1, 80304, Note_on_c, 0, 72, 79
1, 80304, Note_on_c, 0, 68, 79
1, 80349, Note_on_c, 0, 72, 0
1, 80349, Note_on_c, 0, 68, 0
1, 80352, Note_on_c, 0, 67, 79
1, 80370, Note_on_c, 0, 67, 0
1, 80370, Note_on_c, 0, 70, 95
1, 80400, Note_on_c, 1, 67, 65
1, 80400, Note_on_c, 1, 63, 65
1, 80445, Note_on_c, 1, 67, 0
1, 80445, Note_on_c, 1, 63, 0
1, 80448, Note_on_c, 1, 67, 65
1, 80448, Note_on_c, 1, 63, 65
1, 80493, Note_on_c, 1, 67, 0
1, 80493, Note_on_c, 1, 63, 0
1, 80496, Note_on_c, 1, 67, 65
1, 80496, Note_on_c, 1, 63, 65
1, 80541, Note_on_c, 1, 67, 0
1, 80541, Note_on_c, 1, 63, 0
1, 80544, Note_on_c, 0, 70, 0
1, 80544, Note_on_c, 0, 69, 79
1, 80544, Note_on_c, 1, 67, 65
1, 80544, Note_on_c, 1, 63, 65
1, 80567, Note_on_c, 0, 69, 0
1, 80568, Note_on_c, 0, 70, 79
1, 80589, Note_on_c, 1, 67, 0
1, 80589, Note_on_c, 1, 63, 0
1, 80591, Note_on_c, 0, 70, 0
1, 80592, Note_on_c, 0, 72, 79
1, 80592, Note_on_c, 1, 67, 65
1, 80592, Note_on_c, 1, 63, 65
1, 80615, Note_on_c, 0, 72, 0
1, 80616, Note_on_c, 0, 70, 79
1, 80637, Note_on_c, 1, 67, 0
1, 80637, Note_on_c, 1, 63, 0
1, 80639, Note_on_c, 0, 70, 0
1, 80640, Note_on_c, 0, 70, 95
1, 80688, Note_on_c, 1, 65, 65
1, 80688, Note_on_c, 1, 62, 65
1, 80733, Note_on_c, 1, 65, 0
1, 80733, Note_on_c, 1, 62, 0
1, 80736, Note_on_c, 1, 65, 65
1, 80736, Note_on_c, 1, 62, 65
1, 80781, Note_on_c, 1, 65, 0
1, 80781, Note_on_c, 1, 62, 0
1, 80784, Note_on_c, 1, 65, 65
1, 80784, Note_on_c, 1, 62, 65
1, 80829, Note_on_c, 1, 65, 0
1, 80829, Note_on_c, 1, 62, 0
1, 80832, Note_on_c, 0, 70, 0
1, 80832, Note_on_c, 0, 69, 79
1, 80832, Note_on_c, 1, 65, 65
1, 80832, Note_on_c, 1, 62, 65
1, 80855, Note_on_c, 0, 69, 0
1, 80856, Note_on_c, 0, 70, 79
1, 80877, Note_on_c, 1, 65, 0
1, 80877, Note_on_c, 1, 62, 0
1, 80879, Note_on_c, 0, 70, 0
1, 80880, Note_on_c, 0, 72, 79
1, 80880, Note_on_c, 1, 65, 65
1, 80880, Note_on_c, 1, 62, 65
1, 80903, Note_on_c, 0, 72, 0
1, 80904, Note_on_c, 0, 70, 79
1, 80925, Note_on_c, 1, 65, 0
1, 80925, Note_on_c, 1, 62, 0
1, 80927, Note_on_c, 0, 70, 0
1, 80928, Note_on_c, 0, 75, 95
1, 80976, Note_on_c, 1, 63, 65
1, 80976, Note_on_c, 1, 60, 65
1, 81021, Note_on_c, 1, 63, 0
1, 81021, Note_on_c, 1, 60, 0
1, 81024, Note_on_c, 1, 63, 65
1, 81024, Note_on_c, 1, 60, 65
1, 81069, Note_on_c, 1, 63, 0
1, 81069, Note_on_c, 1, 60, 0
1, 81072, Note_on_c, 1, 63, 65
1, 81072, Note_on_c, 1, 60, 65
1, 81117, Note_on_c, 1, 63, 0
1, 81117, Note_on_c, 1, 60, 0
1, 81120, Note_on_c, 0, 75, 0
1, 81120, Note_on_c, 0, 69, 79
1, 81120, Note_on_c, 1, 63, 65
1, 81120, Note_on_c, 1, 60, 65
1, 81143, Note_on_c, 0, 69, 0
1, 81144, Note_on_c, 0, 70, 79
1, 81165, Note_on_c, 1, 63, 0
1, 81165, Note_on_c, 1, 60, 0
1, 81167, Note_on_c, 0, 70, 0
1, 81168, Note_on_c, 0, 72, 79
1, 81168, Note_on_c, 1, 63, 65
1, 81168, Note_on_c, 1, 60, 65
1, 81191, Note_on_c, 0, 72, 0
1, 81192, Note_on_c, 0, 70, 79
1, 81213, Note_on_c, 1, 63, 0
1, 81213, Note_on_c, 1, 60, 0
1, 81215, Note_on_c, 0, 70, 0
1, 81216, Note_on_c, 0, 70, 95
1, 81264, Note_on_c, 1, 62, 66
1, 81264, Note_on_c, 1, 58, 66
1, 81309, Note_on_c, 1, 62, 0
1, 81309, Note_on_c, 1, 58, 0
1, 81312, Note_on_c, 1, 62, 66
1, 81312, Note_on_c, 1, 58, 66
1, 81357, Note_on_c, 1, 62, 0
1, 81357, Note_on_c, 1, 58, 0
1, 81360, Note_on_c, 1, 62, 67
1, 81360, Note_on_c, 1, 58, 67
1, 81405, Note_on_c, 1, 62, 0
1, 81405, Note_on_c, 1, 58, 0
1, 81408, Note_on_c, 0, 70, 0
1, 81408, Note_on_c, 0, 71, 81
1, 81408, Note_on_c, 1, 63, 67
1, 81408, Note_on_c, 1, 58, 67
1, 81431, Note_on_c, 0, 71, 0
1, 81432, Note_on_c, 0, 72, 81
1, 81453, Note_on_c, 1, 63, 0
1, 81453, Note_on_c, 1, 58, 0
1, 81455, Note_on_c, 0, 72, 0
1, 81456, Note_on_c, 0, 74, 81
1, 81456, Note_on_c, 1, 63, 68
1, 81456, Note_on_c, 1, 58, 68
1, 81479, Note_on_c, 0, 74, 0
1, 81480, Note_on_c, 0, 72, 81
1, 81501, Note_on_c, 1, 63, 0
1, 81501, Note_on_c, 1, 58, 0
1, 81503, Note_on_c, 0, 72, 0
1, 81504, Note_on_c, 0, 72, 98
1, 81552, Note_on_c, 1, 63, 69
1, 81552, Note_on_c, 1, 56, 69
1, 81597, Note_on_c, 1, 63, 0
1, 81597, Note_on_c, 1, 56, 0
1, 81600, Note_on_c, 1, 63, 69
1, 81600, Note_on_c, 1, 56, 69
1, 81645, Note_on_c, 1, 63, 0
1, 81645, Note_on_c, 1, 56, 0
1, 81648, Note_on_c, 1, 63, 70
1, 81648, Note_on_c, 1, 56, 70
1, 81693, Note_on_c, 1, 63, 0
1, 81693, Note_on_c, 1, 56, 0
1, 81696, Note_on_c, 0, 72, 0
1, 81696, Note_on_c, 0, 74, 83
1, 81696, Note_on_c, 1, 65, 70
1, 81696, Note_on_c, 1, 56, 70
1, 81719, Note_on_c, 0, 74, 0
1, 81720, Note_on_c, 0, 75, 83
1, 81741, Note_on_c, 1, 65, 0
1, 81741, Note_on_c, 1, 56, 0
1, 81743, Note_on_c, 0, 75, 0
1, 81744, Note_on_c, 0, 77, 83
1, 81744, Note_on_c, 1, 65, 71
1, 81744, Note_on_c, 1, 56, 71
1, 81767, Note_on_c, 0, 77, 0
1, 81768, Note_on_c, 0, 75, 84
1, 81789, Note_on_c, 1, 65, 0
1, 81789, Note_on_c, 1, 56, 0
1, 81791, Note_on_c, 0, 75, 0
1, 81792, Note_on_c, 0, 75, 84
1, 81840, Note_on_c, 1, 58, 72
1, 81840, Note_on_c, 1, 55, 72
1, 81885, Note_on_c, 1, 58, 0
1, 81885, Note_on_c, 1, 55, 0
1, 81888, Note_on_c, 1, 58, 72
1, 81888, Note_on_c, 1, 55, 72
1, 81933, Note_on_c, 0, 75, 0
1, 81933, Note_on_c, 1, 58, 0
1, 81933, Note_on_c, 1, 55, 0
1, 81936, Note_on_c, 0, 79, 85
1, 81936, Note_on_c, 1, 58, 72
1, 81936, Note_on_c, 1, 55, 72
1, 81959, Note_on_c, 0, 79, 0
1, 81960, Note_on_c, 0, 77, 85
1, 81981, Note_on_c, 1, 58, 0
1, 81981, Note_on_c, 1, 55, 0
1, 81983, Note_on_c, 0, 77, 0
1, 81984, Note_on_c, 0, 75, 85
1, 81984, Note_on_c, 1, 63, 72
1, 81984, Note_on_c, 1, 55, 72
1, 82007, Note_on_c, 0, 75, 0
1, 82008, Note_on_c, 0, 74, 85
1, 82029, Note_on_c, 1, 63, 0
1, 82029, Note_on_c, 1, 55, 0
1, 82031, Note_on_c, 0, 74, 0
1, 82032, Note_on_c, 0, 72, 85
1, 82032, Note_on_c, 1, 63, 72
1, 82032, Note_on_c, 1, 55, 72
1, 82055, Note_on_c, 0, 72, 0
1, 82056, Note_on_c, 0, 70, 85
1, 82077, Note_on_c, 1, 63, 0
1, 82077, Note_on_c, 1, 55, 0
1, 82079, Note_on_c, 0, 70, 0
1, 82080, Note_on_c, 0, 72, 85
1, 82080, Note_on_c, 1, 63, 72
1, 82080, Note_on_c, 1, 56, 72
1, 82092, Note_on_c, 0, 72, 0
1, 82092, Note_on_c, 0, 70, 85
1, 82104, Note_on_c, 0, 70, 0
1, 82104, Note_on_c, 0, 68, 85
1, 82116, Note_on_c, 0, 68, 0
1, 82116, Note_on_c, 0, 70, 85
1, 82125, Note_on_c, 1, 63, 0
1, 82125, Note_on_c, 1, 56, 0
1, 82128, Note_on_c, 0, 70, 0
1, 82128, Note_on_c, 0, 72, 82
1, 82128, Note_on_c, 1, 63, 70
1, 82128, Note_on_c, 1, 56, 70
1, 82151, Note_on_c, 0, 72, 0
1, 82152, Note_on_c, 0, 68, 81
1, 82173, Note_on_c, 1, 63, 0
1, 82173, Note_on_c, 1, 56, 0
1, 82175, Note_on_c, 0, 68, 0
1, 82176, Note_on_c, 0, 67, 80
1, 82176, Note_on_c, 1, 63, 69
1, 82176, Note_on_c, 1, 58, 69
1, 82221, Note_on_c, 1, 63, 0
1, 82221, Note_on_c, 1, 58, 0
1, 82224, Note_on_c, 1, 63, 68
1, 82224, Note_on_c, 1, 58, 68
1, 82265, Note_on_c, 0, 67, 0
1, 82269, Note_on_c, 1, 63, 0
1, 82269, Note_on_c, 1, 58, 0
1, 82272, Note_on_c, 0, 67, 76
1, 82272, Note_on_c, 1, 62, 67
1, 82272, Note_on_c, 1, 58, 67
1, 82284, Note_on_c, 0, 67, 0
1, 82284, Note_on_c, 0, 65, 75
1, 82296, Note_on_c, 0, 65, 0
1, 82296, Note_on_c, 0, 67, 75
1, 82308, Note_on_c, 0, 67, 0
1, 82308, Note_on_c, 0, 65, 74
1, 82317, Note_on_c, 1, 62, 0
1, 82317, Note_on_c, 1, 58, 0
1, 82320, Note_on_c, 0, 65, 0
1, 82320, Note_on_c, 0, 67, 74
1, 82320, Note_on_c, 1, 62, 66
1, 82320, Note_on_c, 1, 58, 66
1, 82332, Note_on_c, 0, 67, 0
1, 82332, Note_on_c, 0, 65, 73
1, 82344, Note_on_c, 0, 65, 0
1, 82344, Note_on_c, 0, 63, 73
1, 82356, Note_on_c, 0, 63, 0
1, 82356, Note_on_c, 0, 65, 72
1, 82365, Note_on_c, 1, 62, 0
1, 82365, Note_on_c, 1, 58, 0
1, 82368, Note_on_c, 0, 65, 0
1, 82368, Note_on_c, 0, 63, 72
1, 82368, Note_on_c, 1, 60, 65
1, 82368, Note_on_c, 1, 60, 72
1, 82413, Note_on_c, 0, 63, 0
1, 82416, Note_on_c, 0, 75, 72
1, 82461, Note_on_c, 0, 75, 0
1, 82464, Note_on_c, 0, 74, 72
1, 82476, Note_on_c, 0, 74, 0
1, 82476, Note_on_c, 0, 75, 72
1, 82488, Note_on_c, 0, 75, 0
1, 82488, Note_on_c, 0, 74, 72
1, 82500, Note_on_c, 0, 74, 0
1, 82500, Note_on_c, 0, 75, 72
1, 82509, Note_on_c, 0, 75, 0
1, 82512, Note_on_c, 0, 72, 72
1, 82545, Note_on_c, 1, 60, 0
1, 82557, Note_on_c, 0, 72, 0
1, 82560, Note_on_c, 0, 70, 72
1, 82560, Note_on_c, 1, 63, 65
1, 82605, Note_on_c, 0, 70, 0
1, 82608, Note_on_c, 0, 69, 72
1, 82633, Note_on_c, 1, 60, 0
1, 82653, Note_on_c, 0, 69, 0
1, 82656, Tempo, 857142
1, 82656, Note_on_c, 0, 69, 72
1, 82656, Note_on_c, 1, 58, 72
1, 82833, Note_on_c, 1, 63, 0
1, 82848, Note_on_c, 1, 62, 65
1, 82871, Note_on_c, 0, 69, 0
1, 82872, Note_on_c, 0, 70, 72
1, 82895, Note_on_c, 0, 70, 0
1, 82896, Note_on_c, 0, 72, 72
1, 82919, Note_on_c, 0, 72, 0
1, 82920, Note_on_c, 0, 70, 72
1, 82943, Note_on_c, 0, 70, 0
1, 82944, Note_on_c, 0, 70, 72
1, 83099, Note_on_c, 0, 70, 0
1, 83099, Note_on_c, 1, 62, 0
1, 83099, Note_on_c, 1, 58, 0
1, 83136, Tempo, 571428
1, 83136, Note_on_c, 0, 69, 79
1, 83160, Note_on_c, 0, 69, 0
1, 83160, Note_on_c, 0, 70, 78
1, 83183, Note_on_c, 0, 70, 0
1, 83184, Note_on_c, 0, 72, 78
1, 83208, Note_on_c, 0, 72, 0
1, 83208, Note_on_c, 0, 70, 77
1, 83231, Note_on_c, 0, 70, 0
1, 83232, Note_on_c, 0, 67, 77
1, 83256, Note_on_c, 0, 67, 0
1, 83256, Note_on_c, 0, 68, 76
1, 83279, Note_on_c, 0, 68, 0
1, 83280, Note_on_c, 0, 70, 76
1, 83304, Note_on_c, 0, 70, 0
1, 83304, Note_on_c, 0, 68, 75
1, 83327, Note_on_c, 0, 68, 0
1, 83328, Note_on_c, 0, 65, 75
1, 83352, Note_on_c, 0, 65, 0
1, 83352, Note_on_c, 0, 67, 75
1, 83375, Note_on_c, 0, 67, 0
1, 83376, Note_on_c, 0, 68, 74
1, 83400, Note_on_c, 0, 68, 0
1, 83400, Note_on_c, 0, 67, 74
1, 83423, Note_on_c, 0, 67, 0
1, 83424, Note_on_c, 0, 64, 73
1, 83448, Note_on_c, 0, 64, 0
1, 83448, Note_on_c, 0, 65, 73
1, 83471, Note_on_c, 0, 65, 0
1, 83472, Note_on_c, 0, 67, 72
1, 83496, Note_on_c, 0, 67, 0
1, 83496, Note_on_c, 0, 65, 72
1, 83519, Note_on_c, 0, 65, 0
1, 83520, Note_on_c, 0, 65, 72
1, 83568, Note_on_c, 1, 56, 65
1, 83568, Note_on_c, 1, 50, 65
1, 83568, Note_on_c, 1, 46, 65
1, 83613, Note_on_c, 1, 56, 0
1, 83613, Note_on_c, 1, 50, 0
1, 83613, Note_on_c, 1, 46, 0
1, 83616, Note_on_c, 1, 56, 65
1, 83616, Note_on_c, 1, 50, 65
1, 83616, Note_on_c, 1, 46, 65
1, 83661, Note_on_c, 1, 56, 0
1, 83661, Note_on_c, 1, 50, 0
1, 83661, Note_on_c, 1, 46, 0
1, 83664, Note_on_c, 1, 56, 65
1, 83664, Note_on_c, 1, 50, 65
1, 83664, Note_on_c, 1, 46, 65
1, 83697, Note_on_c, 0, 65, 0
1, 83709, Note_on_c, 1, 56, 0
1, 83709, Note_on_c, 1, 50, 0
1, 83709, Note_on_c, 1, 46, 0
1, 83712, Note_on_c, 0, 65, 72
1, 83736, Note_on_c, 0, 65, 0
1, 83736, Note_on_c, 0, 67, 72
1, 83759, Note_on_c, 0, 67, 0
1, 83760, Note_on_c, 0, 68, 72
1, 83784, Note_on_c, 0, 68, 0
1, 83784, Note_on_c, 0, 67, 72
1, 83807, Note_on_c, 0, 67, 0
1, 83808, Note_on_c, 0, 67, 72
1, 83856, Note_on_c, 1, 55, 65
1, 83856, Note_on_c, 1, 51, 65
1, 83856, Note_on_c, 1, 46, 65
1, 83901, Note_on_c, 1, 55, 0
1, 83901, Note_on_c, 1, 51, 0
1, 83901, Note_on_c, 1, 46, 0
1, 83904, Note_on_c, 1, 55, 65
1, 83904, Note_on_c, 1, 51, 65
1, 83904, Note_on_c, 1, 46, 65
1, 83949, Note_on_c, 1, 55, 0
1, 83949, Note_on_c, 1, 51, 0
1, 83949, Note_on_c, 1, 46, 0
1, 83952, Note_on_c, 1, 55, 65
1, 83952, Note_on_c, 1, 51, 65
1, 83952, Note_on_c, 1, 46, 65
1, 83985, Note_on_c, 0, 67, 0
1, 83997, Note_on_c, 1, 55, 0
1, 83997, Note_on_c, 1, 51, 0
1, 83997, Note_on_c, 1, 46, 0
1, 84000, Note_on_c, 0, 67, 72
1, 84024, Note_on_c, 0, 67, 0
1, 84024, Note_on_c, 0, 68, 72
1, 84047, Note_on_c, 0, 68, 0
1, 84048, Note_on_c, 0, 70, 74
1, 84072, Note_on_c, 0, 70, 0
1, 84072, Note_on_c, 0, 68, 75
1, 84095, Note_on_c, 0, 68, 0
1, 84096, Note_on_c, 0, 68, 75
1, 84144, Note_on_c, 1, 53, 65
1, 84144, Note_on_c, 1, 50, 65
1, 84144, Note_on_c, 1, 46, 65
1, 84189, Note_on_c, 1, 53, 0
1, 84189, Note_on_c, 1, 50, 0
1, 84189, Note_on_c, 1, 46, 0
1, 84192, Note_on_c, 1, 53, 65
1, 84192, Note_on_c, 1, 50, 65
1, 84192, Note_on_c, 1, 46, 65
1, 84237, Note_on_c, 1, 53, 0
1, 84237, Note_on_c, 1, 50, 0
1, 84237, Note_on_c, 1, 46, 0
1, 84240, Note_on_c, 1, 53, 65
1, 84240, Note_on_c, 1, 50, 65
1, 84240, Note_on_c, 1, 46, 65
1, 84273, Note_on_c, 0, 68, 0
1, 84285, Note_on_c, 1, 53, 0
1, 84285, Note_on_c, 1, 50, 0
1, 84285, Note_on_c, 1, 46, 0
1, 84288, Note_on_c, 0, 58, 77
1, 84300, Note_on_c, 0, 58, 0
1, 84300, Note_on_c, 0, 62, 77
1, 84312, Note_on_c, 0, 62, 0
1, 84312, Note_on_c, 0, 65, 78
1, 84324, Note_on_c, 0, 65, 0
1, 84324, Note_on_c, 0, 68, 78
1, 84336, Note_on_c, 0, 68, 0
1, 84336, Note_on_c, 0, 74, 78
1, 84351, Note_on_c, 0, 74, 0
1, 84352, Note_on_c, 0, 77, 78
1, 84367, Note_on_c, 0, 77, 0
1, 84368, Note_on_c, 0, 80, 78
1, 84383, Note_on_c, 0, 80, 0
1, 84384, Note_on_c, 0, 84, 95
1, 84456, Note_on_c, 0, 84, 0
1, 84456, Note_on_c, 0, 82, 79
1, 84479, Note_on_c, 0, 82, 0
1, 84480, Note_on_c, 0, 80, 79
1, 84503, Note_on_c, 0, 80, 0
1, 84504, Note_on_c, 0, 79, 79
1, 84527, Note_on_c, 0, 79, 0
1, 84528, Note_on_c, 0, 77, 79
1, 84551, Note_on_c, 0, 77, 0
1, 84552, Note_on_c, 0, 75, 79
1, 84575, Note_on_c, 0, 75, 0
1, 84576, Note_on_c, 0, 74, 79
1, 84599, Note_on_c, 0, 74, 0
1, 84600, Note_on_c, 0, 72, 79
1, 84623, Note_on_c, 0, 72, 0
1, 84624, Note_on_c, 0, 70, 79
1, 84624, Note_on_c, 1, 62, 65
1, 84647, Note_on_c, 0, 70, 0
1, 84648, Note_on_c, 0, 68, 79
1, 84669, Note_on_c, 1, 62, 0
1, 84671, Note_on_c, 0, 68, 0
1, 84672, Note_on_c, 0, 63, 79
1, 84717, Note_on_c, 0, 63, 0
1, 84720, Note_on_c, 0, 63, 80
1, 84728, Note_on_c, 0, 63, 0
1, 84728, Note_on_c, 0, 67, 80
1, 84736, Note_on_c, 0, 67, 0
1, 84736, Note_on_c, 0, 70, 80
1, 84744, Note_on_c, 0, 70, 0
1, 84744, Note_on_c, 0, 74, 81
1, 84752, Note_on_c, 0, 74, 0
1, 84752, Note_on_c, 0, 75, 81
1, 84760, Note_on_c, 0, 75, 0
1, 84760, Note_on_c, 0, 79, 81
1, 84768, Note_on_c, 0, 79, 0
1, 84768, Note_on_c, 0, 82, 81
1, 84768, Note_on_c, 0, 70, 81
1, 84857, Note_on_c, 0, 82, 0
1, 84857, Note_on_c, 0, 70, 0
1, 84960, Note_on_c, 0, 64, 85
1, 84960, Note_on_c, 1, 44, 72
1, 84983, Note_on_c, 0, 64, 0
1, 84984, Note_on_c, 0, 65, 84
1, 85007, Note_on_c, 0, 65, 0
1, 85008, Note_on_c, 0, 68, 83
1, 85008, Note_on_c, 1, 56, 65
1, 85031, Note_on_c, 0, 68, 0
1, 85032, Note_on_c, 0, 65, 82
1, 85049, Note_on_c, 1, 44, 0
1, 85053, Note_on_c, 1, 56, 0
1, 85055, Note_on_c, 0, 65, 0
1, 85056, Note_on_c, 0, 63, 82
1, 85056, Note_on_c, 1, 55, 65
1, 85056, Note_on_c, 1, 46, 72
1, 85145, Note_on_c, 0, 63, 0
1, 85145, Note_on_c, 1, 55, 0
1, 85145, Note_on_c, 1, 46, 0
1, 85152, Note_on_c, 0, 62, 79
1, 85152, Note_on_c, 1, 53, 65
1, 85152, Note_on_c, 1, 46, 72
1, 85164, Note_on_c, 0, 62, 0
1, 85164, Note_on_c, 0, 63, 79
1, 85176, Note_on_c, 0, 63, 0
1, 85176, Note_on_c, 0, 62, 79
1, 85188, Note_on_c, 0, 62, 0
1, 85188, Note_on_c, 0, 63, 79
1, 85200, Note_on_c, 0, 63, 0
1, 85200, Note_on_c, 0, 62, 79
1, 85212, Note_on_c, 0, 62, 0
1, 85212, Note_on_c, 0, 63, 79
1, 85224, Note_on_c, 0, 63, 0
1, 85224, Note_on_c, 0, 62, 79
1, 85236, Note_on_c, 0, 62, 0
1, 85236, Note_on_c, 0, 63, 79
1, 85241, Note_on_c, 0, 63, 0
1, 85241, Note_on_c, 1, 53, 0
1, 85241, Note_on_c, 1, 46, 0
1, 85248, Note_on_c, 0, 63, 79
1, 85248, Note_on_c, 1, 51, 79
1, 85271, Note_on_c, 0, 63, 0
1, 85272, Note_on_c, 0, 63, 79
1, 85295, Note_on_c, 0, 63, 0
1, 85296, Note_on_c, 0, 63, 79
1, 85308, Note_on_c, 0, 63, 0
1, 85308, Note_on_c, 0, 65, 79
1, 85320, Note_on_c, 0, 65, 0
1, 85320, Note_on_c, 0, 63, 79
1, 85332, Note_on_c, 0, 63, 0
1, 85332, Note_on_c, 0, 65, 79
1, 85341, Note_on_c, 0, 65, 0
1, 85342, Note_on_c, 1, 51, 0
1, 85344, Note_on_c, 0, 68, 79
1, 85344, Note_on_c, 1, 60, 79
1, 85367, Note_on_c, 0, 68, 0
1, 85368, Note_on_c, 0, 63, 79
1, 85391, Note_on_c, 0, 63, 0
1, 85392, Note_on_c, 0, 63, 79
1, 85404, Note_on_c, 0, 63, 0
1, 85404, Note_on_c, 0, 65, 79
1, 85416, Note_on_c, 0, 65, 0
1, 85416, Note_on_c, 0, 63, 79
1, 85428, Note_on_c, 0, 63, 0
1, 85428, Note_on_c, 0, 65, 79
1, 85437, Note_on_c, 0, 65, 0
1, 85438, Note_on_c, 1, 60, 0
1, 85440, Note_on_c, 0, 67, 79
1, 85440, Note_on_c, 1, 58, 79
1, 85463, Note_on_c, 0, 67, 0
1, 85464, Note_on_c, 0, 63, 79
1, 85487, Note_on_c, 0, 63, 0
1, 85488, Note_on_c, 0, 63, 79
1, 85500, Note_on_c, 0, 63, 0
1, 85500, Note_on_c, 0, 65, 79
1, 85512, Note_on_c, 0, 65, 0
1, 85512, Note_on_c, 0, 63, 79
1, 85524, Note_on_c, 0, 63, 0
1, 85524, Note_on_c, 0, 65, 79
1, 85533, Note_on_c, 0, 65, 0
1, 85534, Note_on_c, 1, 58, 0
1, 85536, Note_on_c, 0, 72, 79
1, 85536, Note_on_c, 1, 56, 79
1, 85559, Note_on_c, 0, 72, 0
1, 85560, Note_on_c, 0, 63, 79
1, 85583, Note_on_c, 0, 63, 0
1, 85584, Note_on_c, 0, 63, 79
1, 85596, Note_on_c, 0, 63, 0
1, 85596, Note_on_c, 0, 65, 79
1, 85608, Note_on_c, 0, 65, 0
1, 85608, Note_on_c, 0, 63, 79
1, 85620, Note_on_c, 0, 63, 0
1, 85620, Note_on_c, 0, 65, 79
1, 85625, Note_on_c, 1, 56, 0
1, 85629, Note_on_c, 0, 65, 0
1, 85632, Note_on_c, 0, 75, 79
1, 85632, Note_on_c, 1, 55, 79
1, 85728, Note_on_c, 1, 67, 72
1, 85728, Note_on_c, 1, 63, 72
1, 85743, Note_on_c, 0, 75, 0
1, 85744, Note_on_c, 0, 74, 79
1, 85759, Note_on_c, 0, 74, 0
1, 85760, Note_on_c, 0, 72, 79
1, 85775, Note_on_c, 0, 72, 0
1, 85776, Note_on_c, 0, 70, 79
1, 85791, Note_on_c, 0, 70, 0
1, 85792, Note_on_c, 0, 68, 79
1, 85807, Note_on_c, 0, 68, 0
1, 85808, Note_on_c, 0, 67, 79
1, 85809, Note_on_c, 1, 55, 0
1, 85817, Note_on_c, 1, 67, 0
1, 85817, Note_on_c, 1, 63, 0
1, 85823, Note_on_c, 0, 67, 0
1, 85824, Note_on_c, 0, 65, 79
1, 85824, Note_on_c, 1, 56, 79
1, 85839, Note_on_c, 0, 65, 0
1, 85840, Note_on_c, 0, 72, 79
1, 85855, Note_on_c, 0, 72, 0
1, 85856, Note_on_c, 0, 70, 79
1, 85871, Note_on_c, 0, 70, 0
1, 85872, Note_on_c, 0, 68, 79
1, 85887, Note_on_c, 0, 68, 0
1, 85888, Note_on_c, 0, 67, 79
1, 85903, Note_on_c, 0, 67, 0
1, 85904, Note_on_c, 0, 65, 79
1, 85913, Note_on_c, 1, 56, 0
1, 85919, Note_on_c, 0, 65, 0
1, 85920, Note_on_c, 0, 67, 79
1, 85920, Note_on_c, 1, 58, 79
1, 85935, Note_on_c, 0, 67, 0
1, 85936, Note_on_c, 0, 70, 79
1, 85951, Note_on_c, 0, 70, 0
1, 85952, Note_on_c, 0, 68, 79
1, 85967, Note_on_c, 0, 68, 0
1, 85968, Note_on_c, 0, 67, 79
1, 85983, Note_on_c, 0, 67, 0
1, 85984, Note_on_c, 0, 65, 79
1, 85999, Note_on_c, 0, 65, 0
1, 86000, Note_on_c, 0, 63, 79
1, 86009, Note_on_c, 1, 58, 0
1, 86015, Note_on_c, 0, 63, 0
1, 86016, Note_on_c, 0, 62, 79
1, 86016, Note_on_c, 1, 46, 79
1, 86031, Note_on_c, 0, 62, 0
1, 86032, Note_on_c, 0, 60, 79
1, 86047, Note_on_c, 0, 60, 0
1, 86048, Note_on_c, 0, 58, 79
1, 86063, Note_on_c, 0, 58, 0
1, 86064, Note_on_c, 0, 56, 79
1, 86079, Note_on_c, 0, 56, 0
1, 86080, Note_on_c, 0, 55, 79
1, 86095, Note_on_c, 0, 55, 0
1, 86096, Note_on_c, 0, 53, 79
1, 86105, Note_on_c, 1, 46, 0
1, 86111, Note_on_c, 0, 53, 0
1, 86112, Note_on_c, 0, 51, 79
1, 86112, Note_on_c, 1, 39, 79
1, 86135, Note_on_c, 0, 51, 0
1, 86136, Note_on_c, 0, 75, 79
1, 86159, Note_on_c, 0, 75, 0
1, 86160, Note_on_c, 0, 75, 79
1, 86172, Note_on_c, 0, 75, 0
1, 86172, Note_on_c, 0, 77, 79
1, 86184, Note_on_c, 0, 77, 0
1, 86184, Note_on_c, 0, 75, 79
1, 86196, Note_on_c, 0, 75, 0
1, 86196, Note_on_c, 0, 77, 79
1, 86201, Note_on_c, 1, 39, 0
1, 86205, Note_on_c, 0, 77, 0
1, 86208, Note_on_c, 0, 80, 79
1, 86208, Note_on_c, 1, 72, 79
1, 86231, Note_on_c, 0, 80, 0
1, 86232, Note_on_c, 0, 75, 79
1, 86255, Note_on_c, 0, 75, 0
1, 86256, Note_on_c, 0, 75, 79
1, 86268, Note_on_c, 0, 75, 0
1, 86268, Note_on_c, 0, 77, 79
1, 86280, Note_on_c, 0, 77, 0
1, 86280, Note_on_c, 0, 75, 79
1, 86292, Note_on_c, 0, 75, 0
1, 86292, Note_on_c, 0, 77, 79
1, 86297, Note_on_c, 1, 72, 0
1, 86301, Note_on_c, 0, 77, 0
1, 86304, Note_on_c, 0, 79, 79
1, 86304, Note_on_c, 1, 70, 79
1, 86327, Note_on_c, 0, 79, 0
1, 86328, Note_on_c, 0, 75, 79
1, 86351, Note_on_c, 0, 75, 0
1, 86352, Note_on_c, 0, 75, 79
1, 86364, Note_on_c, 0, 75, 0
1, 86364, Note_on_c, 0, 77, 79
1, 86376, Note_on_c, 0, 77, 0
1, 86376, Note_on_c, 0, 75, 79
1, 86388, Note_on_c, 0, 75, 0
1, 86388, Note_on_c, 0, 77, 79
1, 86393, Note_on_c, 1, 70, 0
1, 86397, Note_on_c, 0, 77, 0
1, 86400, Note_on_c, 0, 84, 79
1, 86400, Note_on_c, 1, 68, 79
1, 86423, Note_on_c, 0, 84, 0
1, 86424, Note_on_c, 0, 75, 79
1, 86447, Note_on_c, 0, 75, 0
1, 86448, Note_on_c, 0, 75, 79
1, 86460, Note_on_c, 0, 75, 0
1, 86460, Note_on_c, 0, 77, 79
1, 86472, Note_on_c, 0, 77, 0
1, 86472, Note_on_c, 0, 75, 79
1, 86484, Note_on_c, 0, 75, 0
1, 86484, Note_on_c, 0, 77, 79
1, 86489, Note_on_c, 1, 68, 0
1, 86493, Note_on_c, 0, 77, 0
1, 86496, Note_on_c, 0, 87, 79
1, 86496, Note_on_c, 1, 67, 79
1, 86592, Note_on_c, 1, 79, 72
1, 86592, Note_on_c, 1, 75, 72
1, 86607, Note_on_c, 0, 87, 0
1, 86608, Note_on_c, 0, 86, 79
1, 86623, Note_on_c, 0, 86, 0
1, 86624, Note_on_c, 0, 84, 79
1, 86639, Note_on_c, 0, 84, 0
1, 86640, Note_on_c, 0, 82, 79
1, 86655, Note_on_c, 0, 82, 0
1, 86656, Note_on_c, 0, 80, 79
1, 86671, Note_on_c, 0, 80, 0
1, 86672, Note_on_c, 0, 79, 79
1, 86673, Note_on_c, 1, 67, 0
1, 86681, Note_on_c, 1, 79, 0
1, 86681, Note_on_c, 1, 75, 0
1, 86687, Note_on_c, 0, 79, 0
1, 86688, Note_on_c, 0, 77, 79
1, 86688, Note_on_c, 1, 68, 79
1, 86703, Note_on_c, 0, 77, 0
1, 86704, Note_on_c, 0, 84, 79
1, 86719, Note_on_c, 0, 84, 0
1, 86720, Note_on_c, 0, 82, 79
1, 86735, Note_on_c, 0, 82, 0
1, 86736, Note_on_c, 0, 80, 79
1, 86751, Note_on_c, 0, 80, 0
1, 86752, Note_on_c, 0, 79, 79
1, 86767, Note_on_c, 0, 79, 0
1, 86768, Note_on_c, 0, 77, 79
1, 86777, Note_on_c, 1, 68, 0
1, 86783, Note_on_c, 0, 77, 0
1, 86784, Note_on_c, 0, 79, 79
1, 86784, Note_on_c, 1, 70, 79
1, 86799, Note_on_c, 0, 79, 0
1, 86800, Note_on_c, 0, 82, 79
1, 86815, Note_on_c, 0, 82, 0
1, 86816, Note_on_c, 0, 80, 79
1, 86831, Note_on_c, 0, 80, 0
1, 86832, Note_on_c, 0, 79, 79
1, 86847, Note_on_c, 0, 79, 0
1, 86848, Note_on_c, 0, 77, 79
1, 86863, Note_on_c, 0, 77, 0
1, 86864, Note_on_c, 0, 75, 79
1, 86873, Note_on_c, 1, 70, 0
1, 86879, Note_on_c, 0, 75, 0
1, 86880, Note_on_c, 0, 74, 79
1, 86880, Note_on_c, 1, 58, 79
1, 86895, Note_on_c, 0, 74, 0
1, 86896, Note_on_c, 0, 72, 79
1, 86911, Note_on_c, 0, 72, 0
1, 86912, Note_on_c, 0, 70, 79
1, 86927, Note_on_c, 0, 70, 0
1, 86928, Note_on_c, 0, 68, 79
1, 86943, Note_on_c, 0, 68, 0
1, 86944, Note_on_c, 0, 67, 79
1, 86959, Note_on_c, 0, 67, 0
1, 86960, Note_on_c, 0, 65, 79
1, 86969, Note_on_c, 1, 58, 0
1, 86975, Note_on_c, 0, 65, 0
1, 86976, Note_on_c, 0, 63, 79
1, 87024, Note_on_c, 1, 39, 72
1, 87069, Note_on_c, 1, 39, 0
1, 87072, Note_on_c, 1, 51, 72
1, 87109, Note_on_c, 0, 63, 0
1, 87120, Note_on_c, 0, 62, 73
1, 87161, Note_on_c, 1, 51, 0
1, 87165, Note_on_c, 0, 62, 0
1, 87168, Note_on_c, 0, 68, 72
1, 87168, Note_on_c, 0, 65, 72
1, 87213, Note_on_c, 0, 68, 0
1, 87213, Note_on_c, 0, 65, 0
1, 87216, Note_on_c, 0, 65, 72
1, 87216, Note_on_c, 0, 62, 72
1, 87261, Note_on_c, 0, 65, 0
1, 87261, Note_on_c, 0, 62, 0
1, 87264, Note_on_c, 0, 67, 72
1, 87264, Note_on_c, 0, 63, 72
1, 87312, Note_on_c, 1, 39, 72
1, 87357, Note_on_c, 1, 39, 0
1, 87360, Note_on_c, 1, 51, 72
1, 87397, Note_on_c, 0, 67, 0
1, 87397, Note_on_c, 0, 63, 0
1, 87408, Note_on_c, 0, 65, 72
1, 87408, Note_on_c, 0, 62, 72
1, 87449, Note_on_c, 1, 51, 0
1, 87453, Note_on_c, 0, 65, 0
1, 87453, Note_on_c, 0, 62, 0
1, 87456, Note_on_c, 0, 72, 72
1, 87456, Note_on_c, 0, 68, 72
1, 87501, Note_on_c, 0, 72, 0
1, 87501, Note_on_c, 0, 68, 0
1, 87504, Note_on_c, 0, 68, 72
1, 87504, Note_on_c, 0, 65, 72
1, 87549, Note_on_c, 0, 68, 0
1, 87549, Note_on_c, 0, 65, 0
1, 87552, Note_on_c, 0, 70, 72
1, 87552, Note_on_c, 0, 67, 72
1, 87600, Note_on_c, 1, 39, 72
1, 87645, Note_on_c, 1, 39, 0
1, 87648, Note_on_c, 1, 51, 72
1, 87685, Note_on_c, 0, 70, 0
1, 87685, Note_on_c, 0, 67, 0
1, 87696, Note_on_c, 0, 75, 72
1, 87708, Note_on_c, 0, 75, 0
1, 87708, Note_on_c, 0, 72, 72
1, 87737, Note_on_c, 1, 51, 0
1, 87742, Note_on_c, 0, 72, 0
1, 87744, Note_on_c, 0, 74, 72
1, 87756, Note_on_c, 0, 74, 0
1, 87756, Note_on_c, 0, 70, 72
1, 87790, Note_on_c, 0, 70, 0
1, 87792, Note_on_c, 0, 72, 72
1, 87804, Note_on_c, 0, 72, 0
1, 87804, Note_on_c, 0, 68, 72
1, 87838, Note_on_c, 0, 68, 0
1, 87840, Note_on_c, 0, 70, 72
1, 87840, Note_on_c, 0, 67, 72
1, 87888, Note_on_c, 1, 39, 72
1, 87933, Note_on_c, 1, 39, 0
1, 87936, Note_on_c, 1, 51, 72
1, 87973, Note_on_c, 0, 70, 0
1, 87973, Note_on_c, 0, 67, 0
1, 87984, Note_on_c, 0, 63, 72
1, 87996, Note_on_c, 0, 63, 0
1, 87996, Note_on_c, 0, 60, 72
1, 88025, Note_on_c, 1, 51, 0
1, 88030, Note_on_c, 0, 60, 0
1, 88032, Note_on_c, 0, 62, 73
1, 88044, Note_on_c, 0, 62, 0
1, 88044, Note_on_c, 0, 58, 73
1, 88078, Note_on_c, 0, 58, 0
1, 88080, Note_on_c, 0, 60, 74
1, 88092, Note_on_c, 0, 60, 0
1, 88092, Note_on_c, 0, 56, 74
1, 88126, Note_on_c, 0, 56, 0
1, 88128, Note_on_c, 0, 58, 75
1, 88176, Note_on_c, 1, 39, 75
1, 88221, Note_on_c, 1, 39, 0
1, 88224, Note_on_c, 1, 51, 76
1, 88244, Note_on_c, 1, 51, 0
1, 88261, Note_on_c, 0, 58, 0
1, 88272, Note_on_c, 0, 58, 78
1, 88272, Note_on_c, 1, 55, 77
1, 88278, Note_on_c, 0, 58, 0
1, 88278, Note_on_c, 0, 70, 78
1, 88292, Note_on_c, 0, 70, 0
1, 88292, Note_on_c, 1, 55, 0
1, 88320, Note_on_c, 0, 60, 79
1, 88320, Note_on_c, 1, 56, 78
1, 88326, Note_on_c, 0, 60, 0
1, 88326, Note_on_c, 0, 72, 79
1, 88340, Note_on_c, 0, 72, 0
1, 88340, Note_on_c, 1, 56, 0
1, 88368, Note_on_c, 0, 62, 80
1, 88368, Note_on_c, 1, 53, 79
1, 88374, Note_on_c, 0, 62, 0
1, 88374, Note_on_c, 0, 74, 80
1, 88388, Note_on_c, 0, 74, 0
1, 88388, Note_on_c, 1, 53, 0
1, 88416, Note_on_c, 0, 63, 81
1, 88416, Note_on_c, 1, 55, 80
1, 88422, Note_on_c, 0, 63, 0
1, 88422, Note_on_c, 0, 75, 81
1, 88436, Note_on_c, 0, 75, 0
1, 88436, Note_on_c, 1, 55, 0
1, 88464, Note_on_c, 0, 65, 82
1, 88464, Note_on_c, 1, 50, 81
1, 88470, Note_on_c, 0, 65, 0
1, 88470, Note_on_c, 0, 77, 82
1, 88484, Note_on_c, 0, 77, 0
1, 88484, Note_on_c, 1, 50, 0
1, 88512, Note_on_c, 0, 67, 83
1, 88512, Note_on_c, 1, 51, 82
1, 88518, Note_on_c, 0, 67, 0
1, 88518, Note_on_c, 0, 79, 83
1, 88551, Note_on_c, 0, 79, 0
1, 88551, Note_on_c, 1, 51, 0
1, 88704, Note_on_c, 1, 44, 85
1, 88752, Note_on_c, 0, 60, 85
1, 88793, Note_on_c, 1, 44, 0
1, 88797, Note_on_c, 0, 60, 0
1, 88800, Note_on_c, 0, 68, 79
1, 88848, Note_on_c, 0, 68, 0
1, 88848, Note_on_c, 0, 72, 77
1, 88893, Note_on_c, 0, 72, 0
1, 88896, Note_on_c, 0, 65, 75
1, 88896, Note_on_c, 1, 56, 75
1, 88896, Note_on_c, 1, 46, 75
1, 88963, Note_on_c, 0, 65, 0
1, 88968, Note_on_c, 0, 62, 72
1, 88991, Note_on_c, 0, 62, 0
1, 88992, Note_on_c, 0, 62, 72
1, 88992, Note_on_c, 1, 46, 0
1, 88992, Note_on_c, 1, 51, 72
1, 89081, Note_on_c, 1, 56, 0
1, 89088, Note_on_c, 0, 62, 0
1, 89088, Note_on_c, 0, 63, 68
1, 89088, Note_on_c, 1, 55, 68
1, 89169, Note_on_c, 1, 51, 0
1, 89177, Note_on_c, 0, 63, 0
1, 89177, Note_on_c, 1, 55, 0
1, 89280, Note_on_c, 1, 51, 0
1, 89457, Note_on_c, 1, 51, 0
1, 89467, End_track
0, 0, End_of_file