0, 0, Header, 0, 1, 96
1, 0, Start_track
1, 0, Tempo, 1090909
1, 0, Note_on_c, 0, 74, 77
1, 0, Note_on_c, 1, 65, 55
1, 0, Note_on_c, 1, 62, 55
1, 39, Note_on_c, 1, 65, 0
1, 39, Note_on_c, 1, 62, 0
1, 72, Note_on_c, 0, 74, 0
1, 72, Note_on_c, 0, 77, 61
1, 84, Note_on_c, 0, 77, 0
1, 84, Note_on_c, 0, 76, 61
1, 96, Note_on_c, 0, 76, 0
1, 96, Note_on_c, 0, 74, 61
1, 96, Note_on_c, 1, 65, 55
1, 96, Note_on_c, 1, 62, 55
1, 116, Note_on_c, 0, 74, 0
1, 135, Note_on_c, 1, 65, 0
1, 135, Note_on_c, 1, 62, 0
1, 144, Note_on_c, 0, 74, 61
1, 164, Note_on_c, 0, 74, 0
1, 192, Note_on_c, 1, 65, 55
1, 192, Note_on_c, 1, 62, 55
1, 231, Note_on_c, 1, 65, 0
1, 231, Note_on_c, 1, 62, 0
1, 240, Note_on_c, 0, 81, 61
1, 260, Note_on_c, 0, 81, 0
1, 288, Note_on_c, 1, 65, 55
1, 288, Note_on_c, 1, 62, 55
1, 327, Note_on_c, 1, 65, 0
1, 327, Note_on_c, 1, 62, 0
1, 336, Note_on_c, 0, 74, 61
1, 384, Note_on_c, 0, 74, 0
1, 384, Note_on_c, 0, 73, 77
1, 384, Note_on_c, 1, 67, 55
1, 384, Note_on_c, 1, 64, 55
1, 423, Note_on_c, 1, 67, 0
1, 423, Note_on_c, 1, 64, 0
1, 456, Note_on_c, 0, 73, 0
1, 456, Note_on_c, 0, 76, 61
1, 468, Note_on_c, 0, 76, 0
1, 468, Note_on_c, 0, 74, 61
1, 480, Note_on_c, 0, 74, 0
1, 480, Note_on_c, 0, 73, 61
1, 480, Note_on_c, 1, 67, 55
1, 480, Note_on_c, 1, 64, 55
1, 500, Note_on_c, 0, 73, 0
1, 519, Note_on_c, 1, 67, 0
1, 519, Note_on_c, 1, 64, 0
1, 528, Note_on_c, 0, 73, 61
1, 548, Note_on_c, 0, 73, 0
1, 576, Note_on_c, 1, 67, 55
1, 576, Note_on_c, 1, 64, 55
1, 615, Note_on_c, 1, 67, 0
1, 615, Note_on_c, 1, 64, 0
1, 624, Note_on_c, 0, 81, 61
1, 630, Note_on_c, 0, 81, 0
1, 630, Note_on_c, 0, 82, 77
1, 672, Note_on_c, 0, 82, 0
1, 672, Note_on_c, 1, 67, 55
1, 672, Note_on_c, 1, 64, 55
1, 711, Note_on_c, 1, 67, 0
1, 711, Note_on_c, 1, 64, 0
1, 720, Note_on_c, 0, 73, 61
1, 768, Note_on_c, 0, 73, 0
1, 768, Note_on_c, 0, 74, 77
1, 768, Note_on_c, 1, 69, 55
1, 768, Note_on_c, 1, 65, 55
1, 807, Note_on_c, 1, 69, 0
1, 807, Note_on_c, 1, 65, 0
1, 840, Note_on_c, 0, 74, 0
1, 840, Note_on_c, 0, 77, 61
1, 852, Note_on_c, 0, 77, 0
1, 852, Note_on_c, 0, 76, 61
1, 864, Note_on_c, 0, 76, 0
1, 864, Note_on_c, 0, 74, 61
1, 864, Note_on_c, 1, 69, 55
1, 864, Note_on_c, 1, 65, 55
1, 884, Note_on_c, 0, 74, 0
1, 903, Note_on_c, 1, 69, 0
1, 903, Note_on_c, 1, 65, 0
1, 912, Note_on_c, 0, 74, 61
1, 932, Note_on_c, 0, 74, 0
1, 960, Note_on_c, 1, 69, 55
1, 960, Note_on_c, 1, 65, 55
1, 999, Note_on_c, 1, 69, 0
1, 999, Note_on_c, 1, 65, 0
1, 1008, Note_on_c, 0, 85, 61
1, 1014, Note_on_c, 0, 85, 0
1, 1014, Note_on_c, 0, 86, 77
1, 1056, Note_on_c, 0, 86, 0
1, 1056, Note_on_c, 1, 69, 55
1, 1056, Note_on_c, 1, 65, 55
1, 1095, Note_on_c, 1, 69, 0
1, 1095, Note_on_c, 1, 65, 0
1, 1104, Note_on_c, 0, 77, 61
1, 1152, Note_on_c, 0, 77, 0
1, 1152, Note_on_c, 0, 76, 77
1, 1152, Note_on_c, 1, 70, 55
1, 1152, Note_on_c, 1, 67, 55
1, 1191, Note_on_c, 1, 70, 0
1, 1191, Note_on_c, 1, 67, 0
1, 1224, Note_on_c, 0, 76, 0
1, 1224, Note_on_c, 0, 79, 61
1, 1236, Note_on_c, 0, 79, 0
1, 1236, Note_on_c, 0, 77, 61
1, 1248, Note_on_c, 0, 77, 0
1, 1248, Note_on_c, 0, 76, 61
1, 1248, Note_on_c, 1, 70, 55
1, 1248, Note_on_c, 1, 67, 55
1, 1268, Note_on_c, 0, 76, 0
1, 1287, Note_on_c, 1, 70, 0
1, 1287, Note_on_c, 1, 67, 0
1, 1296, Note_on_c, 0, 82, 61
1, 1296, Note_on_c, 0, 79, 61
1, 1316, Note_on_c, 0, 82, 0
1, 1316, Note_on_c, 0, 79, 0
1, 1344, Note_on_c, 1, 69, 55
1, 1383, Note_on_c, 1, 69, 0
1, 1392, Note_on_c, 0, 81, 61
1, 1392, Note_on_c, 0, 77, 61
1, 1412, Note_on_c, 0, 81, 0
1, 1412, Note_on_c, 0, 77, 0
1, 1440, Note_on_c, 1, 69, 55
1, 1464, Note_on_c, 0, 73, 61
1, 1479, Note_on_c, 1, 69, 0
1, 1487, Note_on_c, 0, 73, 0
1, 1488, Note_on_c, 0, 76, 61
1, 1511, Note_on_c, 0, 76, 0
1, 1512, Note_on_c, 0, 79, 61
1, 1535, Note_on_c, 0, 79, 0
1, 1536, Note_on_c, 0, 79, 61
1, 1536, Note_on_c, 1, 65, 55
1, 1536, Note_on_c, 1, 62, 55
1, 1559, Note_on_c, 0, 79, 0
1, 1560, Note_on_c, 0, 77, 61
1, 1575, Note_on_c, 1, 65, 0
1, 1575, Note_on_c, 1, 62, 0
1, 1583, Note_on_c, 0, 77, 0
1, 1584, Note_on_c, 0, 76, 61
1, 1607, Note_on_c, 0, 76, 0
1, 1608, Note_on_c, 0, 74, 61
1, 1631, Note_on_c, 0, 74, 0
1, 1632, Note_on_c, 0, 74, 61
1, 1632, Note_on_c, 1, 65, 55
1, 1632, Note_on_c, 1, 62, 55
1, 1652, Note_on_c, 0, 74, 0
1, 1671, Note_on_c, 1, 65, 0
1, 1671, Note_on_c, 1, 62, 0
1, 1680, Note_on_c, 0, 74, 61
1, 1700, Note_on_c, 0, 74, 0
1, 1728, Note_on_c, 1, 69, 55
1, 1728, Note_on_c, 1, 65, 55
1, 1767, Note_on_c, 1, 69, 0
1, 1767, Note_on_c, 1, 65, 0
1, 1776, Note_on_c, 0, 85, 61
1, 1782, Note_on_c, 0, 85, 0
1, 1782, Note_on_c, 0, 86, 61
1, 1788, Note_on_c, 0, 86, 0
1, 1788, Note_on_c, 0, 88, 61
1, 1794, Note_on_c, 0, 88, 0
1, 1794, Note_on_c, 0, 86, 77
1, 1824, Note_on_c, 0, 86, 0
1, 1824, Note_on_c, 1, 69, 55
1, 1824, Note_on_c, 1, 65, 55
1, 1863, Note_on_c, 1, 69, 0
1, 1863, Note_on_c, 1, 65, 0
1, 1872, Note_on_c, 0, 77, 61
1, 1917, Note_on_c, 0, 77, 0
1, 1920, Note_on_c, 0, 76, 77
1, 1920, Note_on_c, 1, 70, 55
1, 1920, Note_on_c, 1, 67, 55
1, 1959, Note_on_c, 1, 70, 0
1, 1959, Note_on_c, 1, 67, 0
1, 1992, Note_on_c, 0, 76, 0
1, 1992, Note_on_c, 0, 79, 61
1, 2004, Note_on_c, 0, 79, 0
1, 2004, Note_on_c, 0, 77, 61
1, 2016, Note_on_c, 0, 77, 0
1, 2016, Note_on_c, 0, 76, 61
1, 2016, Note_on_c, 1, 70, 55
1, 2016, Note_on_c, 1, 67, 55
1, 2055, Note_on_c, 1, 70, 0
1, 2055, Note_on_c, 1, 67, 0
1, 2061, Note_on_c, 0, 76, 0
1, 2064, Note_on_c, 0, 82, 61
1, 2064, Note_on_c, 0, 79, 61
1, 2084, Note_on_c, 0, 82, 0
1, 2084, Note_on_c, 0, 79, 0
1, 2112, Note_on_c, 1, 69, 55
1, 2151, Note_on_c, 1, 69, 0
1, 2160, Note_on_c, 0, 81, 61
1, 2160, Note_on_c, 0, 77, 61
1, 2180, Note_on_c, 0, 81, 0
1, 2180, Note_on_c, 0, 77, 0
1, 2208, Note_on_c, 1, 69, 55
1, 2232, Note_on_c, 0, 73, 61
1, 2247, Note_on_c, 1, 69, 0
1, 2255, Note_on_c, 0, 73, 0
1, 2256, Note_on_c, 0, 76, 61
1, 2279, Note_on_c, 0, 76, 0
1, 2280, Note_on_c, 0, 79, 61
1, 2303, Note_on_c, 0, 79, 0
1, 2304, Note_on_c, 0, 79, 61
1, 2304, Note_on_c, 1, 74, 55
1, 2327, Note_on_c, 0, 79, 0
1, 2328, Note_on_c, 0, 77, 61
1, 2343, Note_on_c, 1, 74, 0
1, 2351, Note_on_c, 0, 77, 0
1, 2352, Note_on_c, 0, 76, 61
1, 2375, Note_on_c, 0, 76, 0
1, 2376, Note_on_c, 0, 77, 61
1, 2399, Note_on_c, 0, 77, 0
1, 2400, Note_on_c, 1, 74, 55
1, 2400, Note_on_c, 1, 70, 55
1, 2439, Note_on_c, 1, 74, 0
1, 2439, Note_on_c, 1, 70, 0
1, 2448, Note_on_c, 0, 86, 61
1, 2448, Note_on_c, 0, 77, 61
1, 2493, Note_on_c, 0, 86, 0
1, 2493, Note_on_c, 0, 77, 0
1, 2496, Note_on_c, 1, 74, 55
1, 2496, Note_on_c, 1, 69, 55
1, 2535, Note_on_c, 1, 74, 0
1, 2535, Note_on_c, 1, 69, 0
1, 2544, Note_on_c, 0, 86, 61
1, 2544, Note_on_c, 0, 77, 61
1, 2589, Note_on_c, 0, 86, 0
1, 2589, Note_on_c, 0, 77, 0
1, 2592, Note_on_c, 1, 74, 55
1, 2592, Note_on_c, 1, 68, 55
1, 2631, Note_on_c, 1, 74, 0
1, 2631, Note_on_c, 1, 68, 0
1, 2640, Note_on_c, 0, 77, 61
1, 2685, Note_on_c, 0, 77, 0
1, 2688, Note_on_c, 0, 79, 61
1, 2688, Note_on_c, 1, 74, 55
1, 2688, Note_on_c, 1, 69, 64
1, 2733, Note_on_c, 0, 79, 0
1, 2736, Note_on_c, 0, 77, 61
1, 2743, Note_on_c, 0, 77, 0
1, 2743, Note_on_c, 0, 79, 61
1, 2750, Note_on_c, 0, 79, 0
1, 2750, Note_on_c, 0, 77, 61
1, 2757, Note_on_c, 0, 77, 0
1, 2757, Note_on_c, 0, 79, 61
1, 2764, Note_on_c, 0, 79, 0
1, 2764, Note_on_c, 0, 77, 61
1, 2771, Note_on_c, 0, 77, 0
1, 2771, Note_on_c, 0, 76, 61
1, 2778, Note_on_c, 0, 76, 0
1, 2778, Note_on_c, 0, 77, 61
1, 2784, Note_on_c, 0, 77, 0
1, 2784, Note_on_c, 0, 76, 61
1, 2784, Note_on_c, 1, 74, 0
1, 2784, Note_on_c, 1, 73, 55
1, 2823, Note_on_c, 0, 76, 0
1, 2823, Note_on_c, 1, 73, 0
1, 2865, Note_on_c, 1, 69, 0
1, 3072, Note_on_c, 0, 72, 67
1, 3072, Note_on_c, 1, 57, 55
1, 3072, Note_on_c, 1, 53, 61
1, 3120, Note_on_c, 1, 57, 0
1, 3120, Note_on_c, 1, 60, 55
1, 3139, Note_on_c, 0, 72, 0
1, 3144, Note_on_c, 0, 76, 67
1, 3156, Note_on_c, 0, 76, 0
1, 3156, Note_on_c, 0, 77, 67
1, 3161, Note_on_c, 1, 53, 0
1, 3165, Note_on_c, 1, 60, 0
1, 3168, Note_on_c, 0, 77, 0
1, 3168, Note_on_c, 0, 72, 67
1, 3168, Note_on_c, 1, 57, 55
1, 3168, Note_on_c, 1, 53, 61
1, 3188, Note_on_c, 0, 72, 0
1, 3216, Note_on_c, 0, 72, 67
1, 3216, Note_on_c, 1, 57, 0
1, 3216, Note_on_c, 1, 60, 55
1, 3236, Note_on_c, 0, 72, 0
1, 3257, Note_on_c, 1, 53, 0
1, 3261, Note_on_c, 1, 60, 0
1, 3264, Note_on_c, 1, 57, 55
1, 3264, Note_on_c, 1, 53, 61
1, 3288, Note_on_c, 0, 84, 67
1, 3311, Note_on_c, 0, 84, 0
1, 3312, Note_on_c, 0, 82, 67
1, 3312, Note_on_c, 1, 57, 0
1, 3312, Note_on_c, 1, 60, 55
1, 3335, Note_on_c, 0, 82, 0
1, 3336, Note_on_c, 0, 81, 67
1, 3353, Note_on_c, 1, 53, 0
1, 3357, Note_on_c, 1, 60, 0
1, 3359, Note_on_c, 0, 81, 0
1, 3360, Note_on_c, 0, 79, 67
1, 3360, Note_on_c, 1, 57, 55
1, 3360, Note_on_c, 1, 53, 61
1, 3383, Note_on_c, 0, 79, 0
1, 3384, Note_on_c, 0, 77, 67
1, 3407, Note_on_c, 0, 77, 0
1, 3408, Note_on_c, 0, 76, 67
1, 3408, Note_on_c, 1, 57, 0
1, 3408, Note_on_c, 1, 60, 55
1, 3431, Note_on_c, 0, 76, 0
1, 3432, Note_on_c, 0, 77, 67
1, 3449, Note_on_c, 1, 53, 0
1, 3453, Note_on_c, 1, 60, 0
1, 3455, Note_on_c, 0, 77, 0
1, 3456, Note_on_c, 0, 76, 67
1, 3456, Note_on_c, 1, 58, 55
1, 3456, Note_on_c, 1, 55, 61
1, 3462, Note_on_c, 0, 76, 0
1, 3462, Note_on_c, 0, 77, 67
1, 3468, Note_on_c, 0, 77, 0
1, 3468, Note_on_c, 0, 79, 67
1, 3474, Note_on_c, 0, 79, 0
1, 3474, Note_on_c, 0, 77, 67
1, 3504, Note_on_c, 1, 58, 0
1, 3504, Note_on_c, 1, 60, 55
1, 3523, Note_on_c, 0, 77, 0
1, 3528, Note_on_c, 0, 76, 67
1, 3540, Note_on_c, 0, 76, 0
1, 3540, Note_on_c, 0, 77, 67
1, 3545, Note_on_c, 1, 55, 0
1, 3549, Note_on_c, 1, 60, 0
1, 3552, Note_on_c, 0, 77, 0
1, 3552, Note_on_c, 0, 76, 67
1, 3552, Note_on_c, 1, 58, 55
1, 3552, Note_on_c, 1, 55, 61
1, 3572, Note_on_c, 0, 76, 0
1, 3600, Note_on_c, 0, 76, 67
1, 3600, Note_on_c, 1, 58, 0
1, 3600, Note_on_c, 1, 60, 55
1, 3620, Note_on_c, 0, 76, 0
1, 3641, Note_on_c, 1, 55, 0
1, 3645, Note_on_c, 1, 60, 0
1, 3648, Note_on_c, 1, 58, 55
1, 3648, Note_on_c, 1, 55, 61
1, 3696, Note_on_c, 1, 58, 0
1, 3696, Note_on_c, 1, 60, 55
1, 3737, Note_on_c, 1, 55, 0
1, 3741, Note_on_c, 1, 60, 0
1, 3744, Note_on_c, 1, 58, 55
1, 3744, Note_on_c, 1, 55, 61
1, 3792, Note_on_c, 0, 67, 67
1, 3792, Note_on_c, 1, 58, 0
1, 3792, Note_on_c, 1, 60, 55
1, 3815, Note_on_c, 0, 67, 0
1, 3816, Note_on_c, 0, 69, 67
1, 3833, Note_on_c, 1, 55, 0
1, 3837, Note_on_c, 1, 60, 0
1, 3839, Note_on_c, 0, 69, 0
1, 3840, Note_on_c, 0, 72, 67
1, 3840, Note_on_c, 1, 55, 55
1, 3840, Note_on_c, 1, 52, 61
1, 3852, Note_on_c, 0, 72, 0
1, 3852, Note_on_c, 0, 70, 67
1, 3864, Note_on_c, 0, 70, 0
1, 3864, Note_on_c, 0, 69, 67
1, 3876, Note_on_c, 0, 69, 0
1, 3876, Note_on_c, 0, 67, 68
1, 3888, Note_on_c, 0, 67, 0
1, 3888, Note_on_c, 0, 77, 68
1, 3888, Note_on_c, 1, 55, 0
1, 3888, Note_on_c, 1, 60, 55
1, 3900, Note_on_c, 0, 77, 0
1, 3900, Note_on_c, 0, 76, 68
1, 3912, Note_on_c, 0, 76, 0
1, 3912, Note_on_c, 0, 74, 69
1, 3924, Note_on_c, 0, 74, 0
1, 3924, Note_on_c, 0, 72, 69
1, 3929, Note_on_c, 1, 52, 0
1, 3933, Note_on_c, 1, 60, 0
1, 3936, Note_on_c, 0, 72, 0
1, 3936, Note_on_c, 0, 81, 69
1, 3936, Note_on_c, 1, 55, 55
1, 3936, Note_on_c, 1, 52, 61
1, 3948, Note_on_c, 0, 81, 0
1, 3948, Note_on_c, 0, 79, 70
1, 3960, Note_on_c, 0, 79, 0
1, 3960, Note_on_c, 0, 77, 70
1, 3972, Note_on_c, 0, 77, 0
1, 3972, Note_on_c, 0, 76, 70
1, 3984, Note_on_c, 0, 76, 0
1, 3984, Note_on_c, 0, 84, 71
1, 3984, Note_on_c, 1, 55, 0
1, 3984, Note_on_c, 1, 60, 55
1, 3996, Note_on_c, 0, 84, 0
1, 3996, Note_on_c, 0, 82, 71
1, 4008, Note_on_c, 0, 82, 0
1, 4008, Note_on_c, 0, 81, 71
1, 4020, Note_on_c, 0, 81, 0
1, 4020, Note_on_c, 0, 79, 72
1, 4025, Note_on_c, 1, 52, 0
1, 4029, Note_on_c, 1, 60, 0
1, 4032, Note_on_c, 0, 79, 0
1, 4032, Note_on_c, 0, 88, 72
1, 4032, Note_on_c, 1, 55, 55
1, 4032, Note_on_c, 1, 52, 61
1, 4055, Note_on_c, 0, 88, 0
1, 4056, Note_on_c, 0, 86, 73
1, 4079, Note_on_c, 0, 86, 0
1, 4080, Note_on_c, 0, 84, 73
1, 4080, Note_on_c, 1, 55, 0
1, 4080, Note_on_c, 1, 60, 55
1, 4121, Note_on_c, 1, 52, 0
1, 4125, Note_on_c, 1, 60, 0
1, 4128, Note_on_c, 1, 55, 55
1, 4128, Note_on_c, 1, 52, 61
1, 4151, Note_on_c, 0, 84, 0
1, 4152, Note_on_c, 0, 82, 73
1, 4164, Note_on_c, 0, 82, 0
1, 4164, Note_on_c, 0, 84, 73
1, 4176, Note_on_c, 0, 84, 0
1, 4176, Note_on_c, 0, 88, 73
1, 4176, Note_on_c, 1, 55, 0
1, 4176, Note_on_c, 1, 60, 55
1, 4188, Note_on_c, 0, 88, 0
1, 4188, Note_on_c, 0, 86, 72
1, 4200, Note_on_c, 0, 86, 0
1, 4200, Note_on_c, 0, 84, 72
1, 4212, Note_on_c, 0, 84, 0
1, 4212, Note_on_c, 0, 82, 72
1, 4217, Note_on_c, 1, 52, 0
1, 4221, Note_on_c, 1, 60, 0
1, 4224, Note_on_c, 0, 82, 0
1, 4224, Note_on_c, 0, 82, 71
1, 4224, Note_on_c, 1, 57, 55
1, 4224, Note_on_c, 1, 53, 61
1, 4247, Note_on_c, 0, 82, 0
1, 4248, Note_on_c, 0, 81, 71
1, 4271, Note_on_c, 0, 81, 0
1, 4272, Note_on_c, 0, 80, 70
1, 4272, Note_on_c, 1, 57, 0
1, 4272, Note_on_c, 1, 60, 55
1, 4295, Note_on_c, 0, 80, 0
1, 4296, Note_on_c, 0, 81, 69
1, 4313, Note_on_c, 1, 53, 0
1, 4317, Note_on_c, 1, 60, 0
1, 4319, Note_on_c, 0, 81, 0
1, 4320, Note_on_c, 0, 80, 69
1, 4320, Note_on_c, 1, 57, 55
1, 4320, Note_on_c, 1, 53, 61
1, 4343, Note_on_c, 0, 80, 0
1, 4344, Note_on_c, 0, 81, 68
1, 4367, Note_on_c, 0, 81, 0
1, 4368, Note_on_c, 0, 80, 67
1, 4368, Note_on_c, 1, 57, 0
1, 4368, Note_on_c, 1, 60, 55
1, 4391, Note_on_c, 0, 80, 0
1, 4392, Note_on_c, 0, 81, 67
1, 4409, Note_on_c, 1, 53, 0
1, 4413, Note_on_c, 1, 60, 0
1, 4415, Note_on_c, 0, 81, 0
1, 4416, Note_on_c, 0, 81, 67
1, 4416, Note_on_c, 1, 57, 55
1, 4416, Note_on_c, 1, 53, 61
1, 4436, Note_on_c, 0, 81, 0
1, 4464, Note_on_c, 1, 57, 0
1, 4464, Note_on_c, 1, 60, 55
1, 4505, Note_on_c, 1, 53, 0
1, 4509, Note_on_c, 1, 60, 0
1, 4512, Note_on_c, 1, 57, 55
1, 4512, Note_on_c, 1, 53, 61
1, 4560, Note_on_c, 1, 57, 0
1, 4560, Note_on_c, 1, 60, 55
1, 4601, Note_on_c, 1, 53, 0
1, 4605, Note_on_c, 1, 60, 0
1, 4608, Note_on_c, 0, 73, 67
1, 4608, Note_on_c, 1, 58, 55
1, 4608, Note_on_c, 1, 53, 61
1, 4632, Note_on_c, 0, 73, 0
1, 4632, Note_on_c, 0, 74, 67
1, 4655, Note_on_c, 0, 74, 0
1, 4656, Note_on_c, 0, 74, 68
1, 4656, Note_on_c, 1, 58, 0
1, 4656, Note_on_c, 1, 62, 55
1, 4697, Note_on_c, 1, 53, 0
1, 4701, Note_on_c, 1, 62, 0
1, 4704, Note_on_c, 1, 58, 55
1, 4704, Note_on_c, 1, 53, 61
1, 4727, Note_on_c, 0, 74, 0
1, 4728, Note_on_c, 0, 75, 69
1, 4738, Note_on_c, 0, 75, 0
1, 4752, Note_on_c, 0, 76, 70
1, 4752, Note_on_c, 1, 58, 0
1, 4752, Note_on_c, 1, 62, 55
1, 4762, Note_on_c, 0, 76, 0
1, 4776, Note_on_c, 0, 77, 70
1, 4786, Note_on_c, 0, 77, 0
1, 4793, Note_on_c, 1, 53, 0
1, 4797, Note_on_c, 1, 62, 0
1, 4800, Note_on_c, 0, 78, 71
1, 4800, Note_on_c, 1, 58, 55
1, 4800, Note_on_c, 1, 53, 61
1, 4810, Note_on_c, 0, 78, 0
1, 4824, Note_on_c, 0, 79, 71
1, 4834, Note_on_c, 0, 79, 0
1, 4848, Note_on_c, 0, 80, 72
1, 4848, Note_on_c, 1, 58, 0
1, 4848, Note_on_c, 1, 62, 55
1, 4858, Note_on_c, 0, 80, 0
1, 4872, Note_on_c, 0, 81, 72
1, 4882, Note_on_c, 0, 81, 0
1, 4889, Note_on_c, 1, 53, 0
1, 4893, Note_on_c, 1, 62, 0
1, 4896, Note_on_c, 0, 84, 73
1, 4896, Note_on_c, 1, 58, 55
1, 4896, Note_on_c, 1, 53, 61
1, 4920, Note_on_c, 0, 84, 0
1, 4920, Note_on_c, 0, 82, 73
1, 4943, Note_on_c, 0, 82, 0
1, 4944, Note_on_c, 1, 58, 0
1, 4944, Note_on_c, 1, 62, 55
1, 4968, Note_on_c, 0, 74, 67
1, 4985, Note_on_c, 1, 53, 0
1, 4989, Note_on_c, 1, 62, 0
1, 4991, Note_on_c, 0, 74, 0
1, 4992, Note_on_c, 0, 74, 67
1, 4992, Note_on_c, 1, 57, 55
1, 4992, Note_on_c, 1, 53, 61
1, 5015, Note_on_c, 0, 74, 0
1, 5016, Note_on_c, 0, 72, 68
1, 5039, Note_on_c, 0, 72, 0
1, 5040, Note_on_c, 0, 71, 68
1, 5040, Note_on_c, 1, 57, 0
1, 5040, Note_on_c, 1, 60, 55
1, 5063, Note_on_c, 0, 71, 0
1, 5064, Note_on_c, 0, 72, 69
1, 5081, Note_on_c, 1, 53, 0
1, 5085, Note_on_c, 1, 60, 0
1, 5087, Note_on_c, 0, 72, 0
1, 5088, Note_on_c, 0, 72, 69
1, 5088, Note_on_c, 1, 57, 55
1, 5088, Note_on_c, 1, 53, 61
1, 5136, Note_on_c, 1, 57, 0
1, 5136, Note_on_c, 1, 60, 55
1, 5177, Note_on_c, 1, 53, 0
1, 5181, Note_on_c, 1, 60, 0
1, 5184, Note_on_c, 1, 57, 55
1, 5184, Note_on_c, 1, 53, 61
1, 5207, Note_on_c, 0, 72, 0
1, 5208, Note_on_c, 0, 84, 72
1, 5218, Note_on_c, 0, 84, 0
1, 5232, Note_on_c, 1, 57, 0
1, 5232, Note_on_c, 1, 60, 55
1, 5256, Note_on_c, 0, 81, 73
1, 5266, Note_on_c, 0, 81, 0
1, 5273, Note_on_c, 1, 53, 0
1, 5277, Note_on_c, 1, 60, 0
1, 5280, Note_on_c, 1, 57, 55
1, 5280, Note_on_c, 1, 53, 61
1, 5304, Note_on_c, 0, 77, 73
1, 5314, Note_on_c, 0, 77, 0
1, 5328, Note_on_c, 1, 57, 0
1, 5328, Note_on_c, 1, 60, 55
1, 5352, Note_on_c, 0, 72, 73
1, 5362, Note_on_c, 0, 72, 0
1, 5369, Note_on_c, 1, 53, 0
1, 5373, Note_on_c, 1, 60, 0
1, 5376, Note_on_c, 0, 72, 73
1, 5376, Note_on_c, 1, 55, 55
1, 5376, Note_on_c, 1, 52, 61
1, 5399, Note_on_c, 0, 72, 0
1, 5400, Note_on_c, 0, 70, 73
1, 5423, Note_on_c, 0, 70, 0
1, 5424, Note_on_c, 0, 69, 73
1, 5424, Note_on_c, 1, 55, 0
1, 5424, Note_on_c, 1, 60, 55
1, 5447, Note_on_c, 0, 69, 0
1, 5448, Note_on_c, 0, 70, 74
1, 5465, Note_on_c, 1, 52, 0
1, 5469, Note_on_c, 1, 60, 0
1, 5471, Note_on_c, 0, 70, 0
1, 5472, Note_on_c, 0, 79, 74
1, 5472, Note_on_c, 1, 55, 55
1, 5472, Note_on_c, 1, 52, 61
1, 5520, Note_on_c, 1, 55, 0
1, 5520, Note_on_c, 1, 60, 55
1, 5539, Note_on_c, 0, 79, 0
1, 5544, Note_on_c, 0, 70, 75
1, 5561, Note_on_c, 1, 52, 0
1, 5565, Note_on_c, 1, 60, 0
1, 5567, Note_on_c, 0, 70, 0
1, 5568, Note_on_c, 0, 69, 75
1, 5568, Note_on_c, 1, 57, 55
1, 5568, Note_on_c, 1, 53, 61
1, 5580, Note_on_c, 0, 69, 0
1, 5580, Note_on_c, 0, 72, 75
1, 5592, Note_on_c, 0, 72, 0
1, 5592, Note_on_c, 0, 70, 76
1, 5604, Note_on_c, 0, 70, 0
1, 5604, Note_on_c, 0, 69, 76
1, 5616, Note_on_c, 0, 69, 0
1, 5616, Note_on_c, 0, 70, 76
1, 5616, Note_on_c, 1, 57, 0
1, 5616, Note_on_c, 1, 60, 55
1, 5628, Note_on_c, 0, 70, 0
1, 5628, Note_on_c, 0, 72, 76
1, 5640, Note_on_c, 0, 72, 0
1, 5640, Note_on_c, 0, 74, 76
1, 5646, Note_on_c, 0, 74, 0
1, 5646, Note_on_c, 0, 76, 76
1, 5652, Note_on_c, 0, 76, 0
1, 5652, Note_on_c, 0, 77, 76
1, 5657, Note_on_c, 1, 53, 0
1, 5658, Note_on_c, 0, 77, 0
1, 5658, Note_on_c, 0, 79, 76
1, 5661, Note_on_c, 1, 60, 0
1, 5664, Note_on_c, 0, 79, 0
1, 5664, Note_on_c, 0, 81, 93
1, 5664, Note_on_c, 1, 59, 78
1, 5664, Note_on_c, 1, 53, 78
1, 5664, Note_on_c, 1, 50, 78
1, 5736, Note_on_c, 0, 81, 0
1, 5736, Note_on_c, 0, 69, 78
1, 5736, Note_on_c, 0, 65, 78
1, 5753, Note_on_c, 1, 59, 0
1, 5753, Note_on_c, 1, 53, 0
1, 5753, Note_on_c, 1, 50, 0
1, 5759, Note_on_c, 0, 69, 0
1, 5759, Note_on_c, 0, 65, 0
1, 5760, Note_on_c, 0, 72, 78
1, 5760, Note_on_c, 0, 69, 78
1, 5760, Note_on_c, 1, 60, 78
1, 5760, Note_on_c, 1, 48, 78
1, 5799, Note_on_c, 1, 60, 0
1, 5799, Note_on_c, 1, 48, 0
1, 5856, Note_on_c, 1, 36, 78
1, 5895, Note_on_c, 1, 36, 0
1, 5923, Note_on_c, 0, 72, 0
1, 5923, Note_on_c, 0, 69, 0
1, 5928, Note_on_c, 0, 70, 66
1, 5928, Note_on_c, 0, 67, 66
1, 5940, Note_on_c, 0, 70, 0
1, 5940, Note_on_c, 0, 67, 0
1, 5940, Note_on_c, 0, 69, 65
1, 5940, Note_on_c, 0, 65, 65
1, 5952, Note_on_c, 0, 69, 0
1, 5952, Note_on_c, 0, 65, 0
1, 5952, Note_on_c, 0, 67, 64
1, 5952, Note_on_c, 0, 64, 64
1, 5999, Note_on_c, 0, 67, 0
1, 5999, Note_on_c, 0, 64, 0
1, 6144, Note_on_c, 0, 81, 73
1, 6144, Note_on_c, 1, 64, 61
1, 6144, Note_on_c, 1, 60, 61
1, 6144, Note_on_c, 1, 58, 61
1, 6168, Note_on_c, 0, 81, 0
1, 6168, Note_on_c, 0, 79, 73
1, 6189, Note_on_c, 1, 64, 0
1, 6189, Note_on_c, 1, 60, 0
1, 6191, Note_on_c, 0, 79, 0
1, 6192, Note_on_c, 0, 79, 73
1, 6192, Note_on_c, 1, 67, 61
1, 6233, Note_on_c, 1, 58, 0
1, 6237, Note_on_c, 0, 79, 0
1, 6237, Note_on_c, 1, 67, 0
1, 6240, Note_on_c, 1, 64, 61
1, 6240, Note_on_c, 1, 60, 61
1, 6240, Note_on_c, 1, 58, 61
1, 6285, Note_on_c, 1, 64, 0
1, 6285, Note_on_c, 1, 60, 0
1, 6288, Note_on_c, 0, 77, 73
1, 6288, Note_on_c, 1, 67, 61
1, 6300, Note_on_c, 0, 77, 0
1, 6300, Note_on_c, 0, 76, 73
1, 6312, Note_on_c, 0, 76, 0
1, 6312, Note_on_c, 0, 74, 73
1, 6324, Note_on_c, 0, 74, 0
1, 6324, Note_on_c, 0, 72, 73
1, 6329, Note_on_c, 1, 58, 0
1, 6333, Note_on_c, 1, 67, 0
1, 6336, Note_on_c, 0, 72, 0
1, 6336, Note_on_c, 0, 84, 73
1, 6336, Note_on_c, 1, 60, 61
1, 6336, Note_on_c, 1, 57, 61
1, 6356, Note_on_c, 0, 84, 0
1, 6381, Note_on_c, 1, 60, 0
1, 6384, Note_on_c, 0, 84, 73
1, 6384, Note_on_c, 1, 65, 61
1, 6404, Note_on_c, 0, 84, 0
1, 6425, Note_on_c, 1, 57, 0
1, 6429, Note_on_c, 1, 65, 0
1, 6432, Note_on_c, 1, 60, 61
1, 6432, Note_on_c, 1, 57, 61
1, 6456, Note_on_c, 0, 86, 73
1, 6468, Note_on_c, 0, 86, 0
1, 6468, Note_on_c, 0, 84, 73
1, 6477, Note_on_c, 1, 60, 0
1, 6480, Note_on_c, 0, 84, 0
1, 6480, Note_on_c, 0, 82, 73
1, 6480, Note_on_c, 1, 65, 61
1, 6492, Note_on_c, 0, 82, 0
1, 6492, Note_on_c, 0, 81, 73
1, 6504, Note_on_c, 0, 81, 0
1, 6504, Note_on_c, 0, 79, 73
1, 6516, Note_on_c, 0, 79, 0
1, 6516, Note_on_c, 0, 77, 73
1, 6521, Note_on_c, 1, 57, 0
1, 6525, Note_on_c, 1, 65, 0
1, 6528, Note_on_c, 0, 77, 0
1, 6528, Note_on_c, 0, 76, 73
1, 6528, Note_on_c, 1, 64, 61
1, 6528, Note_on_c, 1, 60, 61
1, 6528, Note_on_c, 1, 58, 61
1, 6540, Note_on_c, 0, 76, 0
1, 6540, Note_on_c, 0, 77, 73
1, 6552, Note_on_c, 0, 77, 0
1, 6552, Note_on_c, 0, 79, 73
1, 6564, Note_on_c, 0, 79, 0
1, 6564, Note_on_c, 0, 81, 73
1, 6573, Note_on_c, 1, 64, 0
1, 6573, Note_on_c, 1, 60, 0
1, 6576, Note_on_c, 0, 81, 0
1, 6576, Note_on_c, 0, 79, 73
1, 6576, Note_on_c, 1, 67, 61
1, 6596, Note_on_c, 0, 79, 0
1, 6617, Note_on_c, 1, 58, 0
1, 6621, Note_on_c, 1, 67, 0
1, 6624, Note_on_c, 1, 64, 61
1, 6624, Note_on_c, 1, 60, 61
1, 6624, Note_on_c, 1, 58, 61
1, 6669, Note_on_c, 1, 64, 0
1, 6669, Note_on_c, 1, 60, 0
1, 6672, Note_on_c, 0, 77, 73
1, 6672, Note_on_c, 1, 67, 61
1, 6684, Note_on_c, 0, 77, 0
1, 6684, Note_on_c, 0, 76, 73
1, 6696, Note_on_c, 0, 76, 0
1, 6696, Note_on_c, 0, 74, 73
1, 6708, Note_on_c, 0, 74, 0
1, 6708, Note_on_c, 0, 72, 73
1, 6713, Note_on_c, 1, 58, 0
1, 6717, Note_on_c, 1, 67, 0
1, 6720, Note_on_c, 0, 72, 0
1, 6720, Note_on_c, 0, 84, 73
1, 6720, Note_on_c, 1, 60, 61
1, 6720, Note_on_c, 1, 57, 61
1, 6740, Note_on_c, 0, 84, 0
1, 6765, Note_on_c, 1, 60, 0
1, 6768, Note_on_c, 0, 84, 73
1, 6768, Note_on_c, 1, 65, 61
1, 6791, Note_on_c, 0, 84, 0
1, 6792, Note_on_c, 0, 86, 73
1, 6804, Note_on_c, 0, 86, 0
1, 6804, Note_on_c, 0, 88, 73
1, 6809, Note_on_c, 1, 57, 0
1, 6813, Note_on_c, 1, 65, 0
1, 6816, Note_on_c, 0, 88, 0
1, 6816, Note_on_c, 0, 89, 73
1, 6816, Note_on_c, 1, 60, 61
1, 6816, Note_on_c, 1, 57, 61
1, 6828, Note_on_c, 0, 89, 0
1, 6828, Note_on_c, 0, 88, 73
1, 6840, Note_on_c, 0, 88, 0
1, 6840, Note_on_c, 0, 86, 73
1, 6852, Note_on_c, 0, 86, 0
1, 6852, Note_on_c, 0, 84, 73
1, 6861, Note_on_c, 1, 60, 0
1, 6864, Note_on_c, 0, 84, 0
1, 6864, Note_on_c, 0, 82, 73
1, 6864, Note_on_c, 1, 65, 61
1, 6876, Note_on_c, 0, 82, 0
1, 6876, Note_on_c, 0, 81, 73
1, 6888, Note_on_c, 0, 81, 0
1, 6888, Note_on_c, 0, 79, 73
1, 6900, Note_on_c, 0, 79, 0
1, 6900, Note_on_c, 0, 77, 73
1, 6905, Note_on_c, 1, 57, 0
1, 6909, Note_on_c, 1, 65, 0
1, 6912, Note_on_c, 0, 77, 0
1, 6912, Note_on_c, 0, 76, 73
1, 6912, Note_on_c, 1, 60, 61
1, 6912, Note_on_c, 1, 58, 61
1, 6924, Note_on_c, 0, 76, 0
1, 6924, Note_on_c, 0, 77, 73
1, 6936, Note_on_c, 0, 77, 0
1, 6936, Note_on_c, 0, 79, 73
1, 6948, Note_on_c, 0, 79, 0
1, 6948, Note_on_c, 0, 81, 73
1, 6957, Note_on_c, 1, 60, 0
1, 6960, Note_on_c, 0, 81, 0
1, 6960, Note_on_c, 0, 79, 73
1, 6960, Note_on_c, 1, 64, 61
1, 6980, Note_on_c, 0, 79, 0
1, 7001, Note_on_c, 1, 58, 0
1, 7005, Note_on_c, 1, 64, 0
1, 7008, Note_on_c, 1, 60, 61
1, 7008, Note_on_c, 1, 58, 61
1, 7053, Note_on_c, 1, 60, 0
1, 7056, Note_on_c, 0, 77, 73
1, 7056, Note_on_c, 1, 67, 61
1, 7068, Note_on_c, 0, 77, 0
1, 7068, Note_on_c, 0, 76, 73
1, 7080, Note_on_c, 0, 76, 0
1, 7080, Note_on_c, 0, 74, 73
1, 7092, Note_on_c, 0, 74, 0
1, 7092, Note_on_c, 0, 72, 73
1, 7097, Note_on_c, 1, 58, 0
1, 7101, Note_on_c, 1, 67, 0
1, 7104, Note_on_c, 0, 72, 0
1, 7104, Note_on_c, 0, 84, 73
1, 7104, Note_on_c, 1, 60, 61
1, 7104, Note_on_c, 1, 57, 61
1, 7124, Note_on_c, 0, 84, 0
1, 7149, Note_on_c, 1, 60, 0
1, 7152, Note_on_c, 0, 84, 73
1, 7152, Note_on_c, 1, 65, 61
1, 7193, Note_on_c, 1, 57, 0
1, 7197, Note_on_c, 1, 65, 0
1, 7200, Note_on_c, 1, 60, 61
1, 7200, Note_on_c, 1, 57, 61
1, 7215, Note_on_c, 0, 84, 0
1, 7216, Note_on_c, 0, 82, 73
1, 7231, Note_on_c, 0, 82, 0
1, 7232, Note_on_c, 0, 81, 73
1, 7245, Note_on_c, 1, 60, 0
1, 7247, Note_on_c, 0, 81, 0
1, 7248, Note_on_c, 0, 79, 73
1, 7248, Note_on_c, 1, 65, 61
1, 7263, Note_on_c, 0, 79, 0
1, 7264, Note_on_c, 0, 77, 73
1, 7279, Note_on_c, 0, 77, 0
1, 7280, Note_on_c, 0, 75, 73
1, 7289, Note_on_c, 1, 57, 0
1, 7293, Note_on_c, 1, 65, 0
1, 7295, Note_on_c, 0, 75, 0
1, 7296, Note_on_c, 0, 75, 73
1, 7296, Note_on_c, 1, 62, 61
1, 7296, Note_on_c, 1, 58, 61
1, 7302, Note_on_c, 0, 75, 0
1, 7302, Note_on_c, 0, 74, 73
1, 7319, Note_on_c, 0, 74, 0
1, 7320, Note_on_c, 0, 73, 73
1, 7341, Note_on_c, 1, 62, 0
1, 7343, Note_on_c, 0, 73, 0
1, 7344, Note_on_c, 0, 74, 73
1, 7344, Note_on_c, 1, 67, 61
1, 7367, Note_on_c, 0, 74, 0
1, 7368, Note_on_c, 0, 78, 73
1, 7385, Note_on_c, 1, 58, 0
1, 7389, Note_on_c, 1, 67, 0
1, 7391, Note_on_c, 0, 78, 0
1, 7392, Note_on_c, 0, 79, 73
1, 7392, Note_on_c, 1, 62, 61
1, 7392, Note_on_c, 1, 58, 61
1, 7415, Note_on_c, 0, 79, 0
1, 7416, Note_on_c, 0, 81, 73
1, 7437, Note_on_c, 1, 62, 0
1, 7439, Note_on_c, 0, 81, 0
1, 7440, Note_on_c, 0, 82, 73
1, 7440, Note_on_c, 1, 67, 61
1, 7446, Note_on_c, 0, 82, 0
1, 7446, Note_on_c, 0, 81, 73
1, 7452, Note_on_c, 0, 81, 0
1, 7452, Note_on_c, 0, 82, 73
1, 7463, Note_on_c, 0, 82, 0
1, 7464, Note_on_c, 0, 84, 73
1, 7481, Note_on_c, 1, 58, 0
1, 7485, Note_on_c, 1, 67, 0
1, 7487, Note_on_c, 0, 84, 0
1, 7488, Note_on_c, 0, 85, 73
1, 7488, Note_on_c, 1, 62, 61
1, 7488, Note_on_c, 1, 58, 61
1, 7511, Note_on_c, 0, 85, 0
1, 7512, Note_on_c, 0, 87, 73
1, 7518, Note_on_c, 0, 87, 0
1, 7518, Note_on_c, 0, 86, 73
1, 7533, Note_on_c, 1, 62, 0
1, 7535, Note_on_c, 0, 86, 0
1, 7536, Note_on_c, 0, 84, 73
1, 7536, Note_on_c, 1, 67, 61
1, 7559, Note_on_c, 0, 84, 0
1, 7560, Note_on_c, 0, 82, 73
1, 7577, Note_on_c, 1, 58, 0
1, 7581, Note_on_c, 1, 67, 0
1, 7583, Note_on_c, 0, 82, 0
1, 7584, Note_on_c, 0, 81, 73
1, 7584, Note_on_c, 1, 62, 61
1, 7584, Note_on_c, 1, 58, 61
1, 7607, Note_on_c, 0, 81, 0
1, 7608, Note_on_c, 0, 79, 73
1, 7629, Note_on_c, 1, 62, 0
1, 7631, Note_on_c, 0, 79, 0
1, 7632, Note_on_c, 0, 82, 73
1, 7632, Note_on_c, 1, 67, 61
1, 7655, Note_on_c, 0, 82, 0
1, 7656, Note_on_c, 0, 79, 73
1, 7673, Note_on_c, 1, 58, 0
1, 7677, Note_on_c, 1, 67, 0
1, 7679, Note_on_c, 0, 79, 0
1, 7680, Note_on_c, 0, 89, 78
1, 7680, Note_on_c, 1, 65, 61
1, 7680, Note_on_c, 1, 60, 61
1, 7725, Note_on_c, 1, 65, 0
1, 7728, Note_on_c, 1, 69, 61
1, 7761, Note_on_c, 0, 89, 0
1, 7769, Note_on_c, 1, 60, 0
1, 7773, Note_on_c, 1, 69, 0
1, 7776, Note_on_c, 0, 89, 78
1, 7776, Note_on_c, 1, 65, 61
1, 7776, Note_on_c, 1, 60, 61
1, 7782, Note_on_c, 0, 89, 0
1, 7782, Note_on_c, 0, 88, 78
1, 7788, Note_on_c, 0, 88, 0
1, 7788, Note_on_c, 0, 86, 78
1, 7794, Note_on_c, 0, 86, 0
1, 7794, Note_on_c, 0, 84, 78
1, 7800, Note_on_c, 0, 84, 0
1, 7800, Note_on_c, 0, 82, 78
1, 7806, Note_on_c, 0, 82, 0
1, 7806, Note_on_c, 0, 81, 78
1, 7812, Note_on_c, 0, 81, 0
1, 7812, Note_on_c, 0, 79, 78
1, 7818, Note_on_c, 0, 79, 0
1, 7818, Note_on_c, 0, 77, 78
1, 7821, Note_on_c, 1, 65, 0
1, 7824, Note_on_c, 0, 77, 0
1, 7824, Note_on_c, 0, 76, 78
1, 7824, Note_on_c, 1, 69, 61
1, 7830, Note_on_c, 0, 76, 0
1, 7830, Note_on_c, 0, 74, 78
1, 7836, Note_on_c, 0, 74, 0
1, 7836, Note_on_c, 0, 72, 78
1, 7842, Note_on_c, 0, 72, 0
1, 7842, Note_on_c, 0, 71, 78
1, 7848, Note_on_c, 0, 71, 0
1, 7848, Note_on_c, 0, 72, 78
1, 7854, Note_on_c, 0, 72, 0
1, 7854, Note_on_c, 0, 74, 78
1, 7860, Note_on_c, 0, 74, 0
1, 7860, Note_on_c, 0, 76, 78
1, 7865, Note_on_c, 1, 60, 0
1, 7866, Note_on_c, 0, 76, 0
1, 7866, Note_on_c, 0, 77, 78
1, 7869, Note_on_c, 1, 69, 0
1, 7872, Note_on_c, 0, 77, 0
1, 7872, Note_on_c, 0, 79, 78
1, 7872, Note_on_c, 1, 64, 61
1, 7872, Note_on_c, 1, 60, 61
1, 7879, Note_on_c, 0, 79, 0
1, 7879, Note_on_c, 0, 81, 78
1, 7886, Note_on_c, 0, 81, 0
1, 7886, Note_on_c, 0, 79, 78
1, 7893, Note_on_c, 0, 79, 0
1, 7893, Note_on_c, 0, 81, 78
1, 7900, Note_on_c, 0, 81, 0
1, 7900, Note_on_c, 0, 79, 78
1, 7907, Note_on_c, 0, 79, 0
1, 7907, Note_on_c, 0, 81, 78
1, 7914, Note_on_c, 0, 81, 0
1, 7914, Note_on_c, 0, 79, 78
1, 7917, Note_on_c, 1, 64, 0
1, 7920, Note_on_c, 1, 70, 61
1, 7921, Note_on_c, 0, 79, 0
1, 7921, Note_on_c, 0, 81, 78
1, 7928, Note_on_c, 0, 81, 0
1, 7928, Note_on_c, 0, 79, 78
1, 7935, Note_on_c, 0, 79, 0
1, 7935, Note_on_c, 0, 81, 78
1, 7942, Note_on_c, 0, 81, 0
1, 7942, Note_on_c, 0, 79, 78
1, 7949, Note_on_c, 0, 79, 0
1, 7949, Note_on_c, 0, 81, 78
1, 7956, Note_on_c, 0, 81, 0
1, 7956, Note_on_c, 0, 79, 78
1, 7961, Note_on_c, 1, 60, 0
1, 7963, Note_on_c, 0, 79, 0
1, 7963, Note_on_c, 0, 81, 78
1, 7965, Note_on_c, 1, 70, 0
1, 7968, Note_on_c, 1, 64, 61
1, 7968, Note_on_c, 1, 60, 61
1, 7970, Note_on_c, 0, 81, 0
1, 7970, Note_on_c, 0, 79, 78
1, 7977, Note_on_c, 0, 79, 0
1, 7977, Note_on_c, 0, 81, 78
1, 7984, Note_on_c, 0, 81, 0
1, 7984, Note_on_c, 0, 79, 78
1, 7991, Note_on_c, 0, 79, 0
1, 7991, Note_on_c, 0, 81, 78
1, 7998, Note_on_c, 0, 81, 0
1, 7998, Note_on_c, 0, 79, 78
1, 8004, Note_on_c, 0, 79, 0
1, 8004, Note_on_c, 0, 81, 78
1, 8010, Note_on_c, 0, 81, 0
1, 8010, Note_on_c, 0, 79, 78
1, 8013, Note_on_c, 1, 64, 0
1, 8016, Note_on_c, 0, 79, 0
1, 8016, Note_on_c, 0, 81, 78
1, 8016, Note_on_c, 1, 70, 61
1, 8022, Note_on_c, 0, 81, 0
1, 8022, Note_on_c, 0, 79, 78
1, 8028, Note_on_c, 0, 79, 0
1, 8028, Note_on_c, 0, 81, 78
1, 8034, Note_on_c, 0, 81, 0
1, 8034, Note_on_c, 0, 79, 78
1, 8040, Note_on_c, 0, 79, 0
1, 8040, Note_on_c, 0, 77, 78
1, 8052, Note_on_c, 0, 77, 0
1, 8053, Note_on_c, 0, 79, 78
1, 8057, Note_on_c, 1, 60, 0
1, 8061, Note_on_c, 1, 70, 0
1, 8064, Note_on_c, 1, 69, 61
1, 8064, Note_on_c, 1, 62, 61
1, 8065, Note_on_c, 0, 79, 0
1, 8066, Note_on_c, 0, 77, 78
1, 8204, Note_on_c, 1, 69, 0
1, 8204, Note_on_c, 1, 62, 0
1, 8206, Note_on_c, 0, 77, 0
1, 8256, Note_on_c, 1, 48, 61
1, 8256, Note_on_c, 1, 45, 61
1, 8258, Note_on_c, 0, 72, 78
1, 8258, Note_on_c, 0, 63, 78
1, 8304, Note_on_c, 1, 48, 0
1, 8304, Note_on_c, 1, 53, 61
1, 8345, Note_on_c, 1, 45, 0
1, 8349, Note_on_c, 1, 53, 0
1, 8352, Note_on_c, 1, 48, 61
1, 8352, Note_on_c, 1, 45, 61
1, 8391, Note_on_c, 0, 72, 0
1, 8391, Note_on_c, 0, 63, 0
1, 8400, Note_on_c, 1, 48, 0
1, 8400, Note_on_c, 1, 53, 61
1, 8402, Note_on_c, 0, 63, 78
1, 8402, Note_on_c, 0, 60, 78
1, 8441, Note_on_c, 1, 45, 0
1, 8445, Note_on_c, 1, 53, 0
1, 8447, Note_on_c, 0, 63, 0
1, 8447, Note_on_c, 0, 60, 0
1, 8448, Note_on_c, 1, 46, 73
1, 8450, Note_on_c, 0, 62, 78
1, 8450, Note_on_c, 0, 58, 78
1, 8495, Note_on_c, 0, 62, 0
1, 8495, Note_on_c, 0, 58, 0
1, 8498, Note_on_c, 0, 74, 78
1, 8498, Note_on_c, 0, 70, 78
1, 8537, Note_on_c, 1, 46, 0
1, 8543, Note_on_c, 0, 74, 0
1, 8543, Note_on_c, 0, 70, 0
1, 8544, Note_on_c, 1, 34, 73
1, 8594, Note_on_c, 0, 70, 78
1, 8594, Note_on_c, 0, 67, 78
1, 8633, Note_on_c, 1, 34, 0
1, 8639, Note_on_c, 0, 70, 0
1, 8639, Note_on_c, 0, 67, 0
1, 8640, Note_on_c, 1, 48, 73
1, 8642, Note_on_c, 0, 69, 78
1, 8642, Note_on_c, 0, 65, 78
1, 8687, Note_on_c, 0, 69, 0
1, 8687, Note_on_c, 0, 65, 0
1, 8690, Note_on_c, 0, 72, 78
1, 8690, Note_on_c, 0, 69, 78
1, 8729, Note_on_c, 1, 48, 0
1, 8735, Note_on_c, 0, 72, 0
1, 8735, Note_on_c, 0, 69, 0
1, 8736, Note_on_c, 1, 36, 73
1, 8786, Note_on_c, 0, 64, 78
1, 8786, Note_on_c, 0, 58, 78
1, 8825, Note_on_c, 1, 36, 0
1, 8831, Note_on_c, 0, 64, 0
1, 8831, Note_on_c, 0, 58, 0
1, 8832, Note_on_c, 1, 41, 73
1, 8834, Note_on_c, 0, 65, 78
1, 8834, Note_on_c, 0, 57, 78
1, 8879, Note_on_c, 0, 65, 0
1, 8879, Note_on_c, 0, 57, 0
1, 8882, Note_on_c, 0, 72, 55
1, 8882, Note_on_c, 0, 69, 55
1, 8902, Note_on_c, 0, 72, 0
1, 8902, Note_on_c, 0, 69, 0
1, 8921, Note_on_c, 1, 41, 0
1, 8930, Note_on_c, 0, 69, 55
1, 8930, Note_on_c, 0, 65, 55
1, 8950, Note_on_c, 0, 69, 0
1, 8950, Note_on_c, 0, 65, 0
1, 8976, Note_on_c, 1, 48, 55
1, 8976, Note_on_c, 1, 45, 55
1, 8996, Note_on_c, 1, 48, 0
1, 8996, Note_on_c, 1, 45, 0
1, 9024, Note_on_c, 1, 45, 55
1, 9024, Note_on_c, 1, 41, 55
1, 9063, Note_on_c, 1, 45, 0
1, 9063, Note_on_c, 1, 41, 0
1, 9216, Note_on_c, 1, 65, 55
1, 9216, Note_on_c, 1, 62, 61
1, 9218, Note_on_c, 0, 74, 61
1, 9264, Note_on_c, 1, 65, 0
1, 9264, Note_on_c, 1, 69, 55
1, 9285, Note_on_c, 0, 74, 0
1, 9290, Note_on_c, 0, 77, 61
1, 9302, Note_on_c, 0, 77, 0
1, 9302, Note_on_c, 0, 76, 61
1, 9305, Note_on_c, 1, 62, 0
1, 9309, Note_on_c, 1, 69, 0
1, 9312, Note_on_c, 1, 65, 55
1, 9312, Note_on_c, 1, 62, 61
1, 9314, Note_on_c, 0, 76, 0
1, 9314, Note_on_c, 0, 74, 61
1, 9334, Note_on_c, 0, 74, 0
1, 9360, Note_on_c, 1, 65, 0
1, 9360, Note_on_c, 1, 69, 55
1, 9362, Note_on_c, 0, 74, 61
1, 9382, Note_on_c, 0, 74, 0
1, 9401, Note_on_c, 1, 62, 0
1, 9405, Note_on_c, 1, 69, 0
1, 9408, Note_on_c, 1, 65, 55
1, 9408, Note_on_c, 1, 62, 61
1, 9434, Note_on_c, 0, 81, 61
1, 9456, Note_on_c, 1, 65, 0
1, 9456, Note_on_c, 1, 69, 55
1, 9457, Note_on_c, 0, 81, 0
1, 9458, Note_on_c, 0, 79, 61
1, 9481, Note_on_c, 0, 79, 0
1, 9482, Note_on_c, 0, 77, 61
1, 9497, Note_on_c, 1, 62, 0
1, 9501, Note_on_c, 1, 69, 0
1, 9504, Note_on_c, 1, 65, 55
1, 9504, Note_on_c, 1, 62, 61
1, 9505, Note_on_c, 0, 77, 0
1, 9506, Note_on_c, 0, 76, 61
1, 9529, Note_on_c, 0, 76, 0
1, 9530, Note_on_c, 0, 74, 61
1, 9552, Note_on_c, 1, 65, 0
1, 9552, Note_on_c, 1, 69, 55
1, 9553, Note_on_c, 0, 74, 0
1, 9554, Note_on_c, 0, 73, 61
1, 9577, Note_on_c, 0, 73, 0
1, 9578, Note_on_c, 0, 74, 61
1, 9593, Note_on_c, 1, 62, 0
1, 9597, Note_on_c, 1, 69, 0
1, 9600, Note_on_c, 1, 66, 55
1, 9600, Note_on_c, 1, 62, 61
1, 9601, Note_on_c, 0, 74, 0
1, 9602, Note_on_c, 0, 72, 67
1, 9648, Note_on_c, 1, 66, 0
1, 9648, Note_on_c, 1, 69, 55
1, 9669, Note_on_c, 0, 72, 0
1, 9674, Note_on_c, 0, 75, 67
1, 9686, Note_on_c, 0, 75, 0
1, 9686, Note_on_c, 0, 74, 67
1, 9689, Note_on_c, 1, 62, 0
1, 9693, Note_on_c, 1, 69, 0
1, 9696, Note_on_c, 1, 66, 55
1, 9696, Note_on_c, 1, 62, 61
1, 9698, Note_on_c, 0, 74, 0
1, 9698, Note_on_c, 0, 72, 67
1, 9708, Note_on_c, 0, 72, 0
1, 9722, Note_on_c, 0, 84, 67
1, 9744, Note_on_c, 1, 66, 0
1, 9744, Note_on_c, 1, 69, 55
1, 9767, Note_on_c, 0, 84, 0
1, 9770, Note_on_c, 0, 82, 67
1, 9785, Note_on_c, 1, 62, 0
1, 9789, Note_on_c, 1, 69, 0
1, 9792, Note_on_c, 1, 66, 55
1, 9792, Note_on_c, 1, 60, 61
1, 9815, Note_on_c, 0, 82, 0
1, 9818, Note_on_c, 0, 81, 67
1, 9840, Note_on_c, 1, 66, 0
1, 9840, Note_on_c, 1, 69, 55
1, 9863, Note_on_c, 0, 81, 0
1, 9866, Note_on_c, 0, 79, 67
1, 9881, Note_on_c, 1, 60, 0
1, 9885, Note_on_c, 1, 69, 0
1, 9888, Note_on_c, 1, 62, 55
1, 9888, Note_on_c, 1, 60, 61
1, 9911, Note_on_c, 0, 79, 0
1, 9914, Note_on_c, 0, 78, 67
1, 9936, Note_on_c, 1, 62, 0
1, 9936, Note_on_c, 1, 66, 55
1, 9959, Note_on_c, 0, 78, 0
1, 9962, Note_on_c, 0, 81, 67
1, 9977, Note_on_c, 1, 60, 0
1, 9981, Note_on_c, 1, 66, 0
1, 9984, Note_on_c, 1, 62, 55
1, 9984, Note_on_c, 1, 58, 61
1, 9985, Note_on_c, 0, 81, 0
1, 9986, Note_on_c, 0, 79, 83
1, 10032, Note_on_c, 1, 62, 0
1, 10032, Note_on_c, 1, 67, 55
1, 10058, Note_on_c, 0, 79, 0
1, 10058, Note_on_c, 0, 82, 67
1, 10070, Note_on_c, 0, 82, 0
1, 10070, Note_on_c, 0, 81, 67
1, 10073, Note_on_c, 1, 58, 0
1, 10077, Note_on_c, 1, 67, 0
1, 10080, Note_on_c, 1, 62, 55
1, 10080, Note_on_c, 1, 58, 61
1, 10082, Note_on_c, 0, 81, 0
1, 10082, Note_on_c, 0, 79, 67
1, 10102, Note_on_c, 0, 79, 0
1, 10128, Note_on_c, 1, 62, 0
1, 10128, Note_on_c, 1, 67, 55
1, 10130, Note_on_c, 0, 79, 67
1, 10150, Note_on_c, 0, 79, 0
1, 10169, Note_on_c, 1, 58, 0
1, 10173, Note_on_c, 1, 67, 0
1, 10176, Note_on_c, 1, 62, 55
1, 10176, Note_on_c, 1, 58, 61
1, 10202, Note_on_c, 0, 86, 67
1, 10224, Note_on_c, 1, 62, 0
1, 10224, Note_on_c, 1, 67, 55
1, 10225, Note_on_c, 0, 86, 0
1, 10226, Note_on_c, 0, 84, 67
1, 10249, Note_on_c, 0, 84, 0
1, 10250, Note_on_c, 0, 82, 67
1, 10265, Note_on_c, 1, 58, 0
1, 10269, Note_on_c, 1, 67, 0
1, 10272, Note_on_c, 1, 62, 55
1, 10272, Note_on_c, 1, 58, 61
1, 10273, Note_on_c, 0, 82, 0
1, 10274, Note_on_c, 0, 81, 67
1, 10297, Note_on_c, 0, 81, 0
1, 10298, Note_on_c, 0, 79, 67
1, 10320, Note_on_c, 1, 62, 0
1, 10320, Note_on_c, 1, 67, 55
1, 10321, Note_on_c, 0, 79, 0
1, 10322, Note_on_c, 0, 84, 67
1, 10334, Note_on_c, 0, 84, 0
1, 10334, Note_on_c, 0, 82, 67
1, 10346, Note_on_c, 0, 82, 0
1, 10346, Note_on_c, 0, 81, 67
1, 10358, Note_on_c, 0, 81, 0
1, 10358, Note_on_c, 0, 79, 67
1, 10361, Note_on_c, 1, 58, 0
1, 10365, Note_on_c, 1, 67, 0
1, 10368, Note_on_c, 1, 60, 55
1, 10368, Note_on_c, 1, 58, 61
1, 10370, Note_on_c, 0, 79, 0
1, 10370, Note_on_c, 0, 77, 73
1, 10415, Note_on_c, 0, 77, 0
1, 10416, Note_on_c, 1, 60, 0
1, 10416, Note_on_c, 1, 67, 55
1, 10418, Note_on_c, 0, 76, 73
1, 10430, Note_on_c, 0, 76, 0
1, 10430, Note_on_c, 0, 77, 73
1, 10442, Note_on_c, 0, 77, 0
1, 10442, Note_on_c, 0, 79, 73
1, 10454, Note_on_c, 0, 79, 0
1, 10454, Note_on_c, 0, 77, 73
1, 10457, Note_on_c, 1, 58, 0
1, 10461, Note_on_c, 1, 67, 0
1, 10464, Note_on_c, 1, 60, 55
1, 10464, Note_on_c, 1, 58, 61
1, 10466, Note_on_c, 0, 77, 0
1, 10466, Note_on_c, 0, 76, 73
1, 10486, Note_on_c, 0, 76, 0
1, 10512, Note_on_c, 1, 60, 0
1, 10512, Note_on_c, 1, 67, 55
1, 10538, Note_on_c, 0, 72, 73
1, 10550, Note_on_c, 0, 72, 0
1, 10550, Note_on_c, 0, 74, 73
1, 10553, Note_on_c, 1, 58, 0
1, 10557, Note_on_c, 1, 67, 0
1, 10560, Note_on_c, 1, 60, 55
1, 10560, Note_on_c, 1, 58, 61
1, 10562, Note_on_c, 0, 74, 0
1, 10562, Note_on_c, 0, 77, 73
1, 10574, Note_on_c, 0, 77, 0
1, 10574, Note_on_c, 0, 76, 73
1, 10586, Note_on_c, 0, 76, 0
1, 10586, Note_on_c, 0, 74, 74
1, 10598, Note_on_c, 0, 74, 0
1, 10598, Note_on_c, 0, 72, 75
1, 10608, Note_on_c, 1, 60, 0
1, 10608, Note_on_c, 1, 67, 55
1, 10610, Note_on_c, 0, 72, 0
1, 10610, Note_on_c, 0, 81, 75
1, 10622, Note_on_c, 0, 81, 0
1, 10622, Note_on_c, 0, 79, 76
1, 10634, Note_on_c, 0, 79, 0
1, 10634, Note_on_c, 0, 77, 77
1, 10646, Note_on_c, 0, 77, 0
1, 10646, Note_on_c, 0, 76, 78
1, 10649, Note_on_c, 1, 58, 0
1, 10653, Note_on_c, 1, 67, 0
1, 10656, Note_on_c, 1, 60, 55
1, 10656, Note_on_c, 1, 58, 61
1, 10658, Note_on_c, 0, 76, 0
1, 10658, Note_on_c, 0, 88, 77
1, 10670, Note_on_c, 0, 88, 0
1, 10670, Note_on_c, 0, 86, 76
1, 10682, Note_on_c, 0, 86, 0
1, 10682, Note_on_c, 0, 84, 76
1, 10694, Note_on_c, 0, 84, 0
1, 10694, Note_on_c, 0, 82, 75
1, 10704, Note_on_c, 1, 60, 0
1, 10704, Note_on_c, 1, 67, 55
1, 10706, Note_on_c, 0, 82, 0
1, 10706, Note_on_c, 0, 81, 75
1, 10718, Note_on_c, 0, 81, 0
1, 10718, Note_on_c, 0, 79, 74
1, 10730, Note_on_c, 0, 79, 0
1, 10730, Note_on_c, 0, 77, 74
1, 10742, Note_on_c, 0, 77, 0
1, 10742, Note_on_c, 0, 76, 73
1, 10745, Note_on_c, 1, 58, 0
1, 10749, Note_on_c, 1, 67, 0
1, 10752, Note_on_c, 1, 60, 55
1, 10752, Note_on_c, 1, 57, 61
1, 10754, Note_on_c, 0, 76, 0
1, 10754, Note_on_c, 0, 77, 89
1, 10800, Note_on_c, 1, 60, 0
1, 10800, Note_on_c, 1, 65, 55
1, 10826, Note_on_c, 0, 77, 0
1, 10826, Note_on_c, 0, 81, 73
1, 10838, Note_on_c, 0, 81, 0
1, 10838, Note_on_c, 0, 79, 73
1, 10841, Note_on_c, 1, 57, 0
1, 10845, Note_on_c, 1, 65, 0
1, 10848, Note_on_c, 1, 60, 55
1, 10848, Note_on_c, 1, 57, 61
1, 10850, Note_on_c, 0, 79, 0
1, 10850, Note_on_c, 0, 77, 73
1, 10860, Note_on_c, 0, 77, 0
1, 10874, Note_on_c, 0, 84, 73
1, 10896, Note_on_c, 1, 60, 0
1, 10896, Note_on_c, 1, 65, 55
1, 10919, Note_on_c, 0, 84, 0
1, 10922, Note_on_c, 0, 82, 73
1, 10937, Note_on_c, 1, 57, 0
1, 10941, Note_on_c, 1, 65, 0
1, 10944, Note_on_c, 1, 60, 55
1, 10944, Note_on_c, 1, 57, 61
1, 10967, Note_on_c, 0, 82, 0
1, 10970, Note_on_c, 0, 81, 73
1, 10992, Note_on_c, 1, 60, 0
1, 10992, Note_on_c, 1, 65, 55
1, 11015, Note_on_c, 0, 81, 0
1, 11018, Note_on_c, 0, 79, 73
1, 11033, Note_on_c, 1, 57, 0
1, 11037, Note_on_c, 1, 65, 0
1, 11040, Note_on_c, 1, 60, 55
1, 11040, Note_on_c, 1, 57, 61
1, 11063, Note_on_c, 0, 79, 0
1, 11066, Note_on_c, 0, 77, 73
1, 11088, Note_on_c, 1, 60, 0
1, 11088, Note_on_c, 1, 65, 55
1, 11111, Note_on_c, 0, 77, 0
1, 11114, Note_on_c, 0, 76, 73
1, 11129, Note_on_c, 1, 57, 0
1, 11133, Note_on_c, 1, 65, 0
1, 11136, Note_on_c, 1, 58, 55
1, 11136, Note_on_c, 1, 57, 61
1, 11137, Note_on_c, 0, 76, 0
1, 11138, Note_on_c, 0, 74, 73
1, 11184, Note_on_c, 1, 58, 0
1, 11184, Note_on_c, 1, 65, 55
1, 11205, Note_on_c, 0, 74, 0
1, 11210, Note_on_c, 0, 77, 73
1, 11222, Note_on_c, 0, 77, 0
1, 11222, Note_on_c, 0, 76, 73
1, 11225, Note_on_c, 1, 57, 0
1, 11229, Note_on_c, 1, 65, 0
1, 11232, Note_on_c, 1, 58, 55
1, 11232, Note_on_c, 1, 57, 61
1, 11234, Note_on_c, 0, 76, 0
1, 11234, Note_on_c, 0, 74, 73
1, 11257, Note_on_c, 0, 74, 0
1, 11258, Note_on_c, 0, 75, 73
1, 11268, Note_on_c, 0, 75, 0
1, 11280, Note_on_c, 1, 58, 0
1, 11280, Note_on_c, 1, 65, 55
1, 11282, Note_on_c, 0, 76, 74
1, 11292, Note_on_c, 0, 76, 0
1, 11306, Note_on_c, 0, 77, 75
1, 11316, Note_on_c, 0, 77, 0
1, 11321, Note_on_c, 1, 57, 0
1, 11325, Note_on_c, 1, 65, 0
1, 11328, Note_on_c, 1, 58, 55
1, 11328, Note_on_c, 1, 55, 61
1, 11330, Note_on_c, 0, 78, 75
1, 11340, Note_on_c, 0, 78, 0
1, 11354, Note_on_c, 0, 79, 76
1, 11364, Note_on_c, 0, 79, 0
1, 11376, Note_on_c, 1, 58, 0
1, 11376, Note_on_c, 1, 64, 55
1, 11378, Note_on_c, 0, 80, 77
1, 11388, Note_on_c, 0, 80, 0
1, 11402, Note_on_c, 0, 81, 78
1, 11412, Note_on_c, 0, 81, 0
1, 11417, Note_on_c, 1, 55, 0
1, 11421, Note_on_c, 1, 64, 0
1, 11424, Note_on_c, 1, 58, 55
1, 11424, Note_on_c, 1, 55, 61
1, 11426, Note_on_c, 0, 84, 77
1, 11438, Note_on_c, 0, 84, 0
1, 11438, Note_on_c, 0, 82, 76
1, 11450, Note_on_c, 0, 82, 0
1, 11450, Note_on_c, 0, 81, 76
1, 11462, Note_on_c, 0, 81, 0
1, 11462, Note_on_c, 0, 79, 75
1, 11472, Note_on_c, 1, 58, 0
1, 11472, Note_on_c, 1, 64, 55
1, 11474, Note_on_c, 0, 79, 0
1, 11474, Note_on_c, 0, 79, 75
1, 11486, Note_on_c, 0, 79, 0
1, 11486, Note_on_c, 0, 77, 74
1, 11498, Note_on_c, 0, 77, 0
1, 11498, Note_on_c, 0, 76, 74
1, 11510, Note_on_c, 0, 76, 0
1, 11510, Note_on_c, 0, 74, 73
1, 11513, Note_on_c, 1, 55, 0
1, 11517, Note_on_c, 1, 64, 0
1, 11520, Note_on_c, 1, 57, 55
1, 11520, Note_on_c, 1, 55, 61
1, 11522, Note_on_c, 0, 74, 0
1, 11522, Note_on_c, 0, 73, 73
1, 11534, Note_on_c, 0, 73, 0
1, 11534, Note_on_c, 0, 74, 73
1, 11546, Note_on_c, 0, 74, 0
1, 11546, Note_on_c, 0, 76, 73
1, 11558, Note_on_c, 0, 76, 0
1, 11558, Note_on_c, 0, 77, 73
1, 11568, Note_on_c, 1, 57, 0
1, 11568, Note_on_c, 1, 61, 55
1, 11570, Note_on_c, 0, 77, 0
1, 11570, Note_on_c, 0, 76, 73
1, 11590, Note_on_c, 0, 76, 0
1, 11609, Note_on_c, 1, 55, 0
1, 11613, Note_on_c, 1, 61, 0
1, 11616, Note_on_c, 1, 57, 55
1, 11616, Note_on_c, 1, 55, 61
1, 11664, Note_on_c, 1, 57, 0
1, 11664, Note_on_c, 1, 64, 55
1, 11666, Note_on_c, 0, 74, 73
1, 11678, Note_on_c, 0, 74, 0
1, 11678, Note_on_c, 0, 73, 73
1, 11690, Note_on_c, 0, 73, 0
1, 11690, Note_on_c, 0, 71, 73
1, 11702, Note_on_c, 0, 71, 0
1, 11702, Note_on_c, 0, 69, 73
1, 11705, Note_on_c, 1, 55, 0
1, 11709, Note_on_c, 1, 64, 0
1, 11712, Note_on_c, 1, 57, 55
1, 11712, Note_on_c, 1, 53, 61
1, 11714, Note_on_c, 0, 69, 0
1, 11714, Note_on_c, 0, 81, 73
1, 11734, Note_on_c, 0, 81, 0
1, 11760, Note_on_c, 1, 57, 0
1, 11760, Note_on_c, 1, 62, 55
1, 11762, Note_on_c, 0, 81, 73
1, 11782, Note_on_c, 0, 81, 0
1, 11801, Note_on_c, 1, 53, 0
1, 11805, Note_on_c, 1, 62, 0
1, 11808, Note_on_c, 1, 57, 55
1, 11808, Note_on_c, 1, 53, 61
1, 11834, Note_on_c, 0, 82, 73
1, 11846, Note_on_c, 0, 82, 0
1, 11846, Note_on_c, 0, 81, 73
1, 11856, Note_on_c, 1, 57, 0
1, 11856, Note_on_c, 1, 62, 55
1, 11858, Note_on_c, 0, 81, 0
1, 11858, Note_on_c, 0, 79, 73
1, 11870, Note_on_c, 0, 79, 0
1, 11870, Note_on_c, 0, 77, 73
1, 11882, Note_on_c, 0, 77, 0
1, 11882, Note_on_c, 0, 76, 73
1, 11894, Note_on_c, 0, 76, 0
1, 11894, Note_on_c, 0, 74, 73
1, 11897, Note_on_c, 1, 53, 0
1, 11901, Note_on_c, 1, 62, 0
1, 11904, Note_on_c, 1, 57, 55
1, 11904, Note_on_c, 1, 55, 61
1, 11906, Note_on_c, 0, 74, 0
1, 11906, Note_on_c, 0, 73, 73
1, 11918, Note_on_c, 0, 73, 0
1, 11918, Note_on_c, 0, 74, 73
1, 11930, Note_on_c, 0, 74, 0
1, 11930, Note_on_c, 0, 76, 73
1, 11942, Note_on_c, 0, 76, 0
1, 11942, Note_on_c, 0, 77, 73
1, 11952, Note_on_c, 1, 57, 0
1, 11952, Note_on_c, 1, 61, 55
1, 11954, Note_on_c, 0, 77, 0
1, 11954, Note_on_c, 0, 76, 73
1, 11974, Note_on_c, 0, 76, 0
1, 11993, Note_on_c, 1, 55, 0
1, 11997, Note_on_c, 1, 61, 0
1, 12000, Note_on_c, 1, 57, 55
1, 12000, Note_on_c, 1, 55, 61
1, 12048, Note_on_c, 1, 57, 0
1, 12048, Note_on_c, 1, 64, 55
1, 12050, Note_on_c, 0, 74, 73
1, 12062, Note_on_c, 0, 74, 0
1, 12062, Note_on_c, 0, 73, 73
1, 12074, Note_on_c, 0, 73, 0
1, 12074, Note_on_c, 0, 71, 73
1, 12086, Note_on_c, 0, 71, 0
1, 12086, Note_on_c, 0, 69, 73
1, 12089, Note_on_c, 1, 55, 0
1, 12093, Note_on_c, 1, 64, 0
1, 12096, Note_on_c, 1, 57, 55
1, 12096, Note_on_c, 1, 53, 61
1, 12098, Note_on_c, 0, 69, 0
1, 12098, Note_on_c, 0, 81, 73
1, 12118, Note_on_c, 0, 81, 0
1, 12144, Note_on_c, 1, 57, 0
1, 12144, Note_on_c, 1, 62, 55
1, 12146, Note_on_c, 0, 81, 73
1, 12156, Note_on_c, 0, 81, 0
1, 12170, Note_on_c, 0, 89, 73
1, 12182, Note_on_c, 0, 89, 0
1, 12182, Note_on_c, 0, 88, 73
1, 12185, Note_on_c, 1, 53, 0
1, 12189, Note_on_c, 1, 62, 0
1, 12192, Note_on_c, 1, 57, 55
1, 12192, Note_on_c, 1, 53, 61
1, 12194, Note_on_c, 0, 88, 0
1, 12194, Note_on_c, 0, 86, 73
1, 12206, Note_on_c, 0, 86, 0
1, 12206, Note_on_c, 0, 84, 73
1, 12218, Note_on_c, 0, 84, 0
1, 12218, Note_on_c, 0, 82, 73
1, 12230, Note_on_c, 0, 82, 0
1, 12230, Note_on_c, 0, 81, 73
1, 12240, Note_on_c, 1, 57, 0
1, 12240, Note_on_c, 1, 62, 55
1, 12242, Note_on_c, 0, 81, 0
1, 12242, Note_on_c, 0, 79, 73
1, 12254, Note_on_c, 0, 79, 0
1, 12254, Note_on_c, 0, 77, 73
1, 12266, Note_on_c, 0, 77, 0
1, 12266, Note_on_c, 0, 76, 73
1, 12278, Note_on_c, 0, 76, 0
1, 12278, Note_on_c, 0, 74, 73
1, 12281, Note_on_c, 1, 53, 0
1, 12285, Note_on_c, 1, 62, 0
1, 12288, Note_on_c, 1, 57, 55
1, 12288, Note_on_c, 1, 55, 61
1, 12290, Note_on_c, 0, 74, 0
1, 12290, Note_on_c, 0, 73, 73
1, 12302, Note_on_c, 0, 73, 0
1, 12302, Note_on_c, 0, 74, 73
1, 12314, Note_on_c, 0, 74, 0
1, 12314, Note_on_c, 0, 76, 73
1, 12326, Note_on_c, 0, 76, 0
1, 12326, Note_on_c, 0, 77, 73
1, 12336, Note_on_c, 1, 57, 0
1, 12336, Note_on_c, 1, 61, 55
1, 12338, Note_on_c, 0, 77, 0
1, 12338, Note_on_c, 0, 76, 73
1, 12358, Note_on_c, 0, 76, 0
1, 12377, Note_on_c, 1, 55, 0
1, 12381, Note_on_c, 1, 61, 0
1, 12384, Note_on_c, 1, 57, 55
1, 12384, Note_on_c, 1, 55, 61
1, 12432, Note_on_c, 1, 57, 0
1, 12432, Note_on_c, 1, 64, 55
1, 12434, Note_on_c, 0, 74, 73
1, 12446, Note_on_c, 0, 74, 0
1, 12446, Note_on_c, 0, 73, 73
1, 12458, Note_on_c, 0, 73, 0
1, 12458, Note_on_c, 0, 71, 73
1, 12470, Note_on_c, 0, 71, 0
1, 12470, Note_on_c, 0, 69, 73
1, 12473, Note_on_c, 1, 55, 0
1, 12477, Note_on_c, 1, 64, 0
1, 12480, Note_on_c, 1, 57, 55
1, 12480, Note_on_c, 1, 53, 61
1, 12482, Note_on_c, 0, 69, 0
1, 12482, Note_on_c, 0, 81, 73
1, 12502, Note_on_c, 0, 81, 0
1, 12528, Note_on_c, 1, 57, 0
1, 12528, Note_on_c, 1, 62, 55
1, 12530, Note_on_c, 0, 81, 73
1, 12550, Note_on_c, 0, 81, 0
1, 12569, Note_on_c, 1, 53, 0
1, 12573, Note_on_c, 1, 62, 0
1, 12576, Note_on_c, 1, 57, 55
1, 12576, Note_on_c, 1, 53, 61
1, 12624, Note_on_c, 1, 57, 0
1, 12624, Note_on_c, 1, 62, 55
1, 12626, Note_on_c, 0, 79, 73
1, 12638, Note_on_c, 0, 79, 0
1, 12638, Note_on_c, 0, 77, 73
1, 12650, Note_on_c, 0, 77, 0
1, 12650, Note_on_c, 0, 76, 73
1, 12662, Note_on_c, 0, 76, 0
1, 12662, Note_on_c, 0, 74, 73
1, 12665, Note_on_c, 1, 53, 0
1, 12669, Note_on_c, 1, 62, 0
1, 12672, Note_on_c, 1, 58, 55
1, 12672, Note_on_c, 1, 55, 61
1, 12674, Note_on_c, 0, 74, 0
1, 12674, Note_on_c, 0, 75, 67
1, 12684, Note_on_c, 0, 75, 0
1, 12698, Note_on_c, 0, 79, 67
1, 12720, Note_on_c, 1, 58, 0
1, 12720, Note_on_c, 1, 63, 57
1, 12743, Note_on_c, 0, 79, 0
1, 12746, Note_on_c, 0, 81, 69
1, 12761, Note_on_c, 1, 55, 0
1, 12765, Note_on_c, 1, 63, 0
1, 12768, Note_on_c, 1, 58, 60
1, 12768, Note_on_c, 1, 55, 65
1, 12791, Note_on_c, 0, 81, 0
1, 12794, Note_on_c, 0, 82, 70
1, 12816, Note_on_c, 1, 58, 0
1, 12816, Note_on_c, 1, 63, 63
1, 12839, Note_on_c, 0, 82, 0
1, 12842, Note_on_c, 0, 81, 71
1, 12857, Note_on_c, 1, 55, 0
1, 12861, Note_on_c, 1, 63, 0
1, 12864, Note_on_c, 1, 59, 66
1, 12864, Note_on_c, 1, 56, 69
1, 12887, Note_on_c, 0, 81, 0
1, 12890, Note_on_c, 0, 79, 73
1, 12912, Note_on_c, 1, 59, 0
1, 12912, Note_on_c, 1, 62, 69
1, 12935, Note_on_c, 0, 79, 0
1, 12938, Note_on_c, 0, 77, 74
1, 12953, Note_on_c, 1, 56, 0
1, 12957, Note_on_c, 1, 62, 0
1, 12960, Note_on_c, 1, 59, 72
1, 12960, Note_on_c, 1, 56, 73
1, 12983, Note_on_c, 0, 77, 0
1, 12986, Note_on_c, 0, 76, 75
1, 13008, Note_on_c, 1, 59, 0
1, 13008, Note_on_c, 1, 65, 75
1, 13031, Note_on_c, 0, 76, 0
1, 13034, Note_on_c, 0, 74, 77
1, 13049, Note_on_c, 1, 56, 0
1, 13053, Note_on_c, 1, 65, 0
1, 13056, Note_on_c, 1, 64, 78
1, 13056, Note_on_c, 1, 57, 78
1, 13057, Note_on_c, 0, 74, 0
1, 13058, Note_on_c, 0, 73, 77
1, 13070, Note_on_c, 0, 73, 0
1, 13070, Note_on_c, 0, 74, 78
1, 13082, Note_on_c, 0, 74, 0
1, 13082, Note_on_c, 0, 76, 78
1, 13094, Note_on_c, 0, 76, 0
1, 13094, Note_on_c, 0, 77, 78
1, 13104, Note_on_c, 1, 64, 0
1, 13104, Note_on_c, 1, 61, 78
1, 13106, Note_on_c, 0, 77, 0
1, 13106, Note_on_c, 0, 76, 78
1, 13126, Note_on_c, 0, 76, 0
1, 13145, Note_on_c, 1, 57, 0
1, 13149, Note_on_c, 1, 61, 0
1, 13152, Note_on_c, 1, 61, 78
1, 13152, Note_on_c, 1, 57, 78
1, 13178, Note_on_c, 0, 76, 78
1, 13190, Note_on_c, 0, 76, 0
1, 13190, Note_on_c, 0, 77, 78
1, 13200, Note_on_c, 1, 61, 0
1, 13200, Note_on_c, 1, 64, 78
1, 13202, Note_on_c, 0, 77, 0
1, 13202, Note_on_c, 0, 81, 78
1, 13214, Note_on_c, 0, 81, 0
1, 13214, Note_on_c, 0, 79, 78
1, 13226, Note_on_c, 0, 79, 0
1, 13226, Note_on_c, 0, 77, 78
1, 13238, Note_on_c, 0, 77, 0
1, 13238, Note_on_c, 0, 76, 78
1, 13241, Note_on_c, 1, 57, 0
1, 13245, Note_on_c, 1, 64, 0
1, 13248, Note_on_c, 1, 62, 78
1, 13248, Note_on_c, 1, 57, 78
1, 13250, Note_on_c, 0, 76, 0
1, 13250, Note_on_c, 0, 77, 78
1, 13296, Note_on_c, 1, 62, 0
1, 13296, Note_on_c, 1, 65, 78
1, 13298, Note_on_c, 0, 77, 0
1, 13298, Note_on_c, 0, 86, 78
1, 13318, Note_on_c, 0, 86, 0
1, 13337, Note_on_c, 1, 57, 0
1, 13341, Note_on_c, 1, 65, 0
1, 13344, Note_on_c, 1, 59, 78
1, 13344, Note_on_c, 1, 57, 78
1, 13370, Note_on_c, 0, 74, 78
1, 13382, Note_on_c, 0, 74, 0
1, 13382, Note_on_c, 0, 76, 78
1, 13392, Note_on_c, 1, 59, 0
1, 13392, Note_on_c, 1, 68, 78
1, 13394, Note_on_c, 0, 76, 0
1, 13394, Note_on_c, 0, 79, 78
1, 13406, Note_on_c, 0, 79, 0
1, 13406, Note_on_c, 0, 77, 78
1, 13418, Note_on_c, 0, 77, 0
1, 13418, Note_on_c, 0, 76, 78
1, 13430, Note_on_c, 0, 76, 0
1, 13430, Note_on_c, 0, 74, 78
1, 13433, Note_on_c, 1, 57, 0
1, 13437, Note_on_c, 1, 68, 0
1, 13440, Note_on_c, 1, 64, 78
1, 13440, Note_on_c, 1, 57, 78
1, 13442, Note_on_c, 0, 74, 0
1, 13442, Note_on_c, 0, 73, 78
1, 13488, Note_on_c, 1, 64, 0
1, 13488, Note_on_c, 1, 61, 78
1, 13490, Note_on_c, 0, 73, 0
1, 13490, Note_on_c, 0, 81, 78
1, 13510, Note_on_c, 0, 81, 0
1, 13529, Note_on_c, 1, 57, 0
1, 13533, Note_on_c, 1, 61, 0
1, 13536, Note_on_c, 1, 49, 78
1, 13536, Note_on_c, 1, 45, 78
1, 13562, Note_on_c, 0, 64, 78
1, 13574, Note_on_c, 0, 64, 0
1, 13574, Note_on_c, 0, 65, 78
1, 13584, Note_on_c, 1, 49, 0
1, 13584, Note_on_c, 1, 52, 78
1, 13586, Note_on_c, 0, 65, 0
1, 13586, Note_on_c, 0, 69, 78
1, 13598, Note_on_c, 0, 69, 0
1, 13598, Note_on_c, 0, 67, 78
1, 13610, Note_on_c, 0, 67, 0
1, 13610, Note_on_c, 0, 65, 78
1, 13622, Note_on_c, 0, 65, 0
1, 13622, Note_on_c, 0, 64, 78
1, 13625, Note_on_c, 1, 45, 0
1, 13629, Note_on_c, 1, 52, 0
1, 13632, Note_on_c, 1, 50, 78
1, 13632, Note_on_c, 1, 45, 78
1, 13634, Note_on_c, 0, 64, 0
1, 13634, Note_on_c, 0, 65, 78
1, 13680, Note_on_c, 1, 50, 0
1, 13680, Note_on_c, 1, 53, 78
1, 13682, Note_on_c, 0, 65, 0
1, 13682, Note_on_c, 0, 74, 78
1, 13702, Note_on_c, 0, 74, 0
1, 13721, Note_on_c, 1, 45, 0
1, 13725, Note_on_c, 1, 53, 0
1, 13728, Note_on_c, 1, 47, 78
1, 13728, Note_on_c, 1, 45, 78
1, 13754, Note_on_c, 0, 62, 78
1, 13766, Note_on_c, 0, 62, 0
1, 13766, Note_on_c, 0, 64, 78
1, 13776, Note_on_c, 1, 47, 0
1, 13776, Note_on_c, 1, 56, 78
1, 13778, Note_on_c, 0, 64, 0
1, 13778, Note_on_c, 0, 67, 78
1, 13790, Note_on_c, 0, 67, 0
1, 13790, Note_on_c, 0, 65, 78
1, 13802, Note_on_c, 0, 65, 0
1, 13802, Note_on_c, 0, 64, 78
1, 13814, Note_on_c, 0, 64, 0
1, 13814, Note_on_c, 0, 62, 78
1, 13817, Note_on_c, 1, 45, 0
1, 13821, Note_on_c, 1, 56, 0
1, 13824, Note_on_c, 1, 57, 78
1, 13824, Note_on_c, 1, 45, 78
1, 13826, Note_on_c, 0, 62, 0
1, 13826, Note_on_c, 0, 61, 78
1, 13849, Note_on_c, 0, 61, 0
1, 13850, Note_on_c, 0, 69, 78
1, 13860, Note_on_c, 0, 69, 0
1, 13874, Note_on_c, 0, 64, 78
1, 13884, Note_on_c, 0, 64, 0
1, 13898, Note_on_c, 0, 61, 78
1, 13908, Note_on_c, 0, 61, 0
1, 13913, Note_on_c, 1, 57, 0
1, 13913, Note_on_c, 1, 45, 0
1, 13920, Note_on_c, 1, 57, 78
1, 13930, Note_on_c, 1, 57, 0
1, 13944, Note_on_c, 1, 52, 78
1, 13954, Note_on_c, 1, 52, 0
1, 13968, Note_on_c, 1, 49, 78
1, 13978, Note_on_c, 1, 49, 0
1, 13992, Note_on_c, 1, 45, 78
1, 14015, Note_on_c, 1, 45, 0
1, 14016, Note_on_c, 1, 33, 78
1, 14297, Note_on_c, 1, 33, 0
1, 14306, Tempo, 300000
1, 14402, Note_on_c, 0, 69, 73
1, 14402, Note_on_c, 0, 66, 73
1, 14496, Note_on_c, 1, 50, 73
1, 14587, Note_on_c, 0, 69, 0
1, 14587, Note_on_c, 0, 66, 0
1, 14594, Note_on_c, 0, 67, 74
1, 14594, Note_on_c, 0, 64, 74
1, 14683, Note_on_c, 0, 67, 0
1, 14683, Note_on_c, 0, 64, 0
1, 14690, Note_on_c, 0, 66, 75
1, 14690, Note_on_c, 0, 62, 75
1, 14761, Note_on_c, 1, 50, 0
1, 14779, Note_on_c, 0, 66, 0
1, 14779, Note_on_c, 0, 62, 0
1, 14784, Note_on_c, 1, 43, 73
1, 14786, Note_on_c, 0, 71, 76
1, 14786, Note_on_c, 0, 67, 76
1, 14823, Note_on_c, 1, 43, 0
1, 14875, Note_on_c, 0, 71, 0
1, 14875, Note_on_c, 0, 67, 0
1, 14978, Note_on_c, 0, 76, 78
1, 14978, Note_on_c, 0, 67, 78
1, 15067, Note_on_c, 0, 76, 0
1, 15067, Note_on_c, 0, 67, 0
1, 15072, Note_on_c, 1, 57, 73
1, 15074, Note_on_c, 0, 74, 77
1, 15074, Note_on_c, 0, 66, 77
1, 15163, Note_on_c, 0, 74, 0
1, 15163, Note_on_c, 0, 66, 0
1, 15170, Note_on_c, 0, 73, 76
1, 15170, Note_on_c, 0, 64, 76
1, 15249, Note_on_c, 1, 57, 0
1, 15259, Note_on_c, 0, 73, 0
1, 15259, Note_on_c, 0, 64, 0
1, 15264, Note_on_c, 1, 59, 73
1, 15266, Note_on_c, 0, 71, 75
1, 15266, Note_on_c, 0, 62, 75
1, 15353, Note_on_c, 1, 59, 0
1, 15355, Note_on_c, 0, 71, 0
1, 15355, Note_on_c, 0, 62, 0
1, 15360, Note_on_c, 1, 61, 73
1, 15362, Note_on_c, 0, 69, 74
1, 15362, Note_on_c, 0, 64, 74
1, 15449, Note_on_c, 1, 61, 0
1, 15451, Note_on_c, 0, 69, 0
1, 15451, Note_on_c, 0, 64, 0
1, 15554, Note_on_c, 0, 69, 73
1, 15554, Note_on_c, 0, 66, 73
1, 15648, Note_on_c, 1, 50, 73
1, 15739, Note_on_c, 0, 69, 0
1, 15739, Note_on_c, 0, 66, 0
1, 15746, Note_on_c, 0, 67, 74
1, 15746, Note_on_c, 0, 64, 74
1, 15835, Note_on_c, 0, 67, 0
1, 15835, Note_on_c, 0, 64, 0
1, 15842, Note_on_c, 0, 66, 75
1, 15842, Note_on_c, 0, 62, 75
1, 15913, Note_on_c, 1, 50, 0
1, 15931, Note_on_c, 0, 66, 0
1, 15931, Note_on_c, 0, 62, 0
1, 15936, Note_on_c, 1, 43, 73
1, 15938, Note_on_c, 0, 71, 76
1, 15938, Note_on_c, 0, 67, 76
1, 15975, Note_on_c, 1, 43, 0
1, 16027, Note_on_c, 0, 71, 0
1, 16027, Note_on_c, 0, 67, 0
1, 16130, Note_on_c, 0, 67, 77
1, 16130, Note_on_c, 0, 64, 77
1, 16224, Note_on_c, 1, 45, 73
1, 16315, Note_on_c, 0, 67, 0
1, 16315, Note_on_c, 0, 64, 0
1, 16322, Note_on_c, 0, 66, 75
1, 16322, Note_on_c, 0, 62, 75
1, 16411, Note_on_c, 0, 66, 0
1, 16411, Note_on_c, 0, 62, 0
1, 16418, Note_on_c, 0, 64, 74
1, 16418, Note_on_c, 0, 61, 74
1, 16489, Note_on_c, 1, 45, 0
1, 16507, Note_on_c, 0, 64, 0
1, 16507, Note_on_c, 0, 61, 0
1, 16512, Note_on_c, 1, 38, 73
1, 16514, Note_on_c, 0, 62, 73
1, 16551, Note_on_c, 1, 38, 0
1, 16603, Note_on_c, 0, 62, 0
1, 16706, Note_on_c, 0, 81, 73
1, 16706, Note_on_c, 0, 78, 73
1, 16800, Note_on_c, 1, 66, 73
1, 16800, Note_on_c, 1, 62, 73
1, 16800, Note_on_c, 1, 62, 73
1, 16889, Note_on_c, 1, 66, 0
1, 16889, Note_on_c, 1, 62, 0
1, 16891, Note_on_c, 0, 81, 0
1, 16891, Note_on_c, 0, 78, 0
1, 16896, Note_on_c, 1, 67, 73
1, 16896, Note_on_c, 1, 64, 73
1, 16898, Note_on_c, 0, 79, 73
1, 16898, Note_on_c, 0, 76, 73
1, 16985, Note_on_c, 1, 67, 0
1, 16985, Note_on_c, 1, 64, 0
1, 16987, Note_on_c, 0, 79, 0
1, 16987, Note_on_c, 0, 76, 0
1, 16992, Note_on_c, 1, 69, 73
1, 16992, Note_on_c, 1, 66, 73
1, 16994, Note_on_c, 0, 78, 73
1, 16994, Note_on_c, 0, 74, 73
1, 17065, Note_on_c, 1, 62, 0
1, 17081, Note_on_c, 1, 69, 0
1, 17081, Note_on_c, 1, 66, 0
1, 17083, Note_on_c, 0, 78, 0
1, 17083, Note_on_c, 0, 74, 0
1, 17088, Note_on_c, 0, 74, 73
1, 17088, Note_on_c, 1, 71, 67
1, 17088, Note_on_c, 1, 67, 67
1, 17088, Note_on_c, 1, 62, 67
1, 17090, Note_on_c, 0, 76, 73
1, 17179, Note_on_c, 0, 76, 0
1, 17186, Note_on_c, 0, 81, 73
1, 17231, Note_on_c, 0, 81, 0
1, 17234, Note_on_c, 0, 79, 73
1, 17279, Note_on_c, 0, 79, 0
1, 17282, Note_on_c, 0, 78, 73
1, 17327, Note_on_c, 0, 78, 0
1, 17330, Note_on_c, 0, 76, 73
1, 17353, Note_on_c, 0, 74, 0
1, 17353, Note_on_c, 1, 71, 0
1, 17353, Note_on_c, 1, 67, 0
1, 17353, Note_on_c, 1, 62, 0
1, 17375, Note_on_c, 0, 76, 0
1, 17376, Note_on_c, 0, 74, 73
1, 17376, Note_on_c, 1, 69, 67
1, 17376, Note_on_c, 1, 66, 67
1, 17376, Note_on_c, 1, 62, 67
1, 17378, Note_on_c, 0, 74, 73
1, 17465, Note_on_c, 0, 74, 0
1, 17467, Note_on_c, 0, 74, 0
1, 17474, Note_on_c, 0, 86, 73
1, 17519, Note_on_c, 0, 86, 0
1, 17522, Note_on_c, 0, 81, 73
1, 17567, Note_on_c, 0, 81, 0
1, 17570, Note_on_c, 0, 78, 73
1, 17615, Note_on_c, 0, 78, 0
1, 17618, Note_on_c, 0, 74, 73
1, 17641, Note_on_c, 1, 69, 0
1, 17641, Note_on_c, 1, 66, 0
1, 17641, Note_on_c, 1, 62, 0
1, 17663, Note_on_c, 0, 74, 0
1, 17664, Note_on_c, 0, 74, 73
1, 17664, Note_on_c, 1, 71, 67
1, 17664, Note_on_c, 1, 67, 67
1, 17664, Note_on_c, 1, 62, 67
1, 17666, Note_on_c, 0, 76, 73
1, 17755, Note_on_c, 0, 76, 0
1, 17762, Note_on_c, 0, 81, 73
1, 17807, Note_on_c, 0, 81, 0
1, 17810, Note_on_c, 0, 79, 73
1, 17855, Note_on_c, 0, 79, 0
1, 17858, Note_on_c, 0, 78, 73
1, 17903, Note_on_c, 0, 78, 0
1, 17906, Note_on_c, 0, 76, 73
1, 17929, Note_on_c, 0, 74, 0
1, 17929, Note_on_c, 1, 71, 0
1, 17929, Note_on_c, 1, 67, 0
1, 17929, Note_on_c, 1, 62, 0
1, 17951, Note_on_c, 0, 76, 0
1, 17952, Note_on_c, 0, 74, 73
1, 17952, Note_on_c, 1, 69, 67
1, 17952, Note_on_c, 1, 66, 67
1, 17952, Note_on_c, 1, 62, 67
1, 17954, Note_on_c, 0, 74, 73
1, 18041, Note_on_c, 0, 74, 0
1, 18041, Note_on_c, 1, 69, 0
1, 18041, Note_on_c, 1, 66, 0
1, 18041, Note_on_c, 1, 62, 0
1, 18043, Note_on_c, 0, 74, 0
1, 18144, Note_on_c, 1, 62, 73
1, 18146, Note_on_c, 0, 78, 73
1, 18191, Note_on_c, 0, 78, 0
1, 18194, Note_on_c, 0, 69, 73
1, 18233, Note_on_c, 1, 62, 0
1, 18239, Note_on_c, 0, 69, 0
1, 18240, Note_on_c, 1, 64, 73
1, 18242, Note_on_c, 0, 69, 73
1, 18287, Note_on_c, 0, 69, 0
1, 18290, Note_on_c, 0, 68, 73
1, 18329, Note_on_c, 1, 64, 0
1, 18335, Note_on_c, 0, 68, 0
1, 18336, Note_on_c, 1, 61, 73
1, 18338, Note_on_c, 0, 76, 73
1, 18383, Note_on_c, 0, 76, 0
1, 18386, Note_on_c, 0, 67, 73
1, 18425, Note_on_c, 1, 61, 0
1, 18431, Note_on_c, 0, 67, 0
1, 18432, Note_on_c, 1, 62, 73
1, 18434, Note_on_c, 0, 67, 73
1, 18479, Note_on_c, 0, 67, 0
1, 18482, Note_on_c, 0, 66, 73
1, 18521, Note_on_c, 1, 62, 0
1, 18527, Note_on_c, 0, 66, 0
1, 18528, Note_on_c, 1, 55, 73
1, 18530, Note_on_c, 0, 71, 73
1, 18575, Note_on_c, 0, 71, 0
1, 18578, Note_on_c, 0, 63, 73
1, 18623, Note_on_c, 0, 63, 0
1, 18626, Note_on_c, 0, 64, 73
1, 18671, Note_on_c, 0, 64, 0
1, 18674, Note_on_c, 0, 66, 73
1, 18719, Note_on_c, 0, 66, 0
1, 18722, Note_on_c, 0, 67, 73
1, 18767, Note_on_c, 0, 67, 0
1, 18770, Note_on_c, 0, 64, 73
1, 18793, Note_on_c, 1, 55, 0
1, 18815, Note_on_c, 0, 64, 0
1, 18816, Note_on_c, 1, 57, 73
1, 18818, Note_on_c, 0, 62, 73
1, 18914, Note_on_c, 0, 62, 0
1, 18914, Note_on_c, 0, 61, 73
1, 18993, Note_on_c, 1, 57, 0
1, 19003, Note_on_c, 0, 61, 0
1, 19010, Note_on_c, 0, 81, 73
1, 19010, Note_on_c, 0, 78, 73
1, 19104, Note_on_c, 1, 66, 73
1, 19104, Note_on_c, 1, 62, 73
1, 19193, Note_on_c, 1, 66, 0
1, 19193, Note_on_c, 1, 62, 0
1, 19195, Note_on_c, 0, 81, 0
1, 19195, Note_on_c, 0, 78, 0
1, 19200, Note_on_c, 1, 67, 73
1, 19200, Note_on_c, 1, 64, 73
1, 19202, Note_on_c, 0, 79, 73
1, 19202, Note_on_c, 0, 76, 73
1, 19289, Note_on_c, 1, 67, 0
1, 19289, Note_on_c, 1, 64, 0
1, 19291, Note_on_c, 0, 79, 0
1, 19291, Note_on_c, 0, 76, 0
1, 19296, Note_on_c, 1, 69, 73
1, 19296, Note_on_c, 1, 66, 73
1, 19298, Note_on_c, 0, 78, 73
1, 19298, Note_on_c, 0, 74, 73
1, 19385, Note_on_c, 1, 69, 0
1, 19385, Note_on_c, 1, 66, 0
1, 19387, Note_on_c, 0, 78, 0
1, 19387, Note_on_c, 0, 74, 0
1, 19392, Note_on_c, 1, 73, 73
1, 19392, Note_on_c, 1, 69, 73
1, 19392, Note_on_c, 1, 67, 73
1, 19394, Note_on_c, 0, 76, 73
1, 19483, Note_on_c, 0, 76, 0
1, 19490, Note_on_c, 0, 81, 73
1, 19535, Note_on_c, 0, 81, 0
1, 19538, Note_on_c, 0, 79, 73
1, 19583, Note_on_c, 0, 79, 0
1, 19586, Note_on_c, 0, 78, 73
1, 19631, Note_on_c, 0, 78, 0
1, 19634, Note_on_c, 0, 76, 73
1, 19657, Note_on_c, 1, 73, 0
1, 19657, Note_on_c, 1, 69, 0
1, 19657, Note_on_c, 1, 67, 0
1, 19679, Note_on_c, 0, 76, 0
1, 19680, Note_on_c, 1, 74, 73
1, 19680, Note_on_c, 1, 69, 73
1, 19680, Note_on_c, 1, 66, 73
1, 19682, Note_on_c, 0, 74, 73
1, 19771, Note_on_c, 0, 74, 0
1, 19778, Note_on_c, 0, 86, 73
1, 19823, Note_on_c, 0, 86, 0
1, 19826, Note_on_c, 0, 81, 73
1, 19871, Note_on_c, 0, 81, 0
1, 19874, Note_on_c, 0, 78, 73
1, 19919, Note_on_c, 0, 78, 0
1, 19922, Note_on_c, 0, 74, 73
1, 19945, Note_on_c, 1, 74, 0
1, 19945, Note_on_c, 1, 69, 0
1, 19945, Note_on_c, 1, 66, 0
1, 19967, Note_on_c, 0, 74, 0
1, 19968, Note_on_c, 1, 73, 73
1, 19968, Note_on_c, 1, 69, 73
1, 19968, Note_on_c, 1, 67, 73
1, 19970, Note_on_c, 0, 76, 73
1, 20059, Note_on_c, 0, 76, 0
1, 20066, Note_on_c, 0, 81, 73
1, 20111, Note_on_c, 0, 81, 0
1, 20114, Note_on_c, 0, 79, 73
1, 20159, Note_on_c, 0, 79, 0
1, 20162, Note_on_c, 0, 78, 73
1, 20207, Note_on_c, 0, 78, 0
1, 20210, Note_on_c, 0, 76, 73
1, 20233, Note_on_c, 1, 73, 0
1, 20233, Note_on_c, 1, 69, 0
1, 20233, Note_on_c, 1, 67, 0
1, 20255, Note_on_c, 0, 76, 0
1, 20256, Note_on_c, 1, 74, 73
1, 20256, Note_on_c, 1, 69, 73
1, 20256, Note_on_c, 1, 66, 73
1, 20258, Note_on_c, 0, 74, 73
1, 20347, Note_on_c, 0, 74, 0
1, 20354, Note_on_c, 0, 86, 73
1, 20399, Note_on_c, 0, 86, 0
1, 20402, Note_on_c, 0, 85, 73
1, 20447, Note_on_c, 0, 85, 0
1, 20450, Note_on_c, 0, 83, 73
1, 20495, Note_on_c, 0, 83, 0
1, 20498, Note_on_c, 0, 81, 73
1, 20521, Note_on_c, 1, 74, 0
1, 20521, Note_on_c, 1, 69, 0
1, 20521, Note_on_c, 1, 66, 0
1, 20543, Note_on_c, 0, 81, 0
1, 20544, Note_on_c, 1, 64, 73
1, 20546, Note_on_c, 0, 81, 73
1, 20591, Note_on_c, 0, 81, 0
1, 20594, Note_on_c, 0, 80, 73
1, 20633, Note_on_c, 1, 64, 0
1, 20639, Note_on_c, 0, 80, 0
1, 20640, Note_on_c, 1, 68, 73
1, 20642, Note_on_c, 0, 83, 73
1, 20687, Note_on_c, 0, 83, 0
1, 20690, Note_on_c, 0, 74, 73
1, 20729, Note_on_c, 1, 68, 0
1, 20735, Note_on_c, 0, 74, 0
1, 20736, Note_on_c, 1, 69, 73
1, 20738, Note_on_c, 0, 74, 73
1, 20783, Note_on_c, 0, 74, 0
1, 20786, Note_on_c, 0, 73, 73
1, 20825, Note_on_c, 1, 69, 0
1, 20831, Note_on_c, 0, 73, 0
1, 20832, Note_on_c, 1, 62, 73
1, 20834, Note_on_c, 0, 71, 73
1, 20879, Note_on_c, 0, 71, 0
1, 20882, Note_on_c, 0, 74, 73
1, 20927, Note_on_c, 0, 74, 0
1, 20930, Note_on_c, 0, 78, 73
1, 20975, Note_on_c, 0, 78, 0
1, 20978, Note_on_c, 0, 74, 73
1, 21009, Note_on_c, 1, 62, 0
1, 21023, Note_on_c, 0, 74, 0
1, 21024, Note_on_c, 1, 64, 73
1, 21026, Note_on_c, 0, 71, 73
1, 21071, Note_on_c, 0, 71, 0
1, 21074, Note_on_c, 0, 68, 73
1, 21113, Note_on_c, 1, 64, 0
1, 21119, Note_on_c, 0, 68, 0
1, 21120, Note_on_c, 1, 57, 73
1, 21122, Note_on_c, 0, 69, 73
1, 21209, Note_on_c, 1, 57, 0
1, 21211, Note_on_c, 0, 69, 0
1, 21314, Note_on_c, 0, 69, 73
1, 21314, Note_on_c, 0, 66, 73
1, 21408, Note_on_c, 1, 50, 73
1, 21499, Note_on_c, 0, 69, 0
1, 21499, Note_on_c, 0, 66, 0
1, 21506, Note_on_c, 0, 67, 74
1, 21506, Note_on_c, 0, 64, 74
1, 21595, Note_on_c, 0, 67, 0
1, 21595, Note_on_c, 0, 64, 0
1, 21602, Note_on_c, 0, 66, 75
1, 21602, Note_on_c, 0, 62, 75
1, 21673, Note_on_c, 1, 50, 0
1, 21691, Note_on_c, 0, 66, 0
1, 21691, Note_on_c, 0, 62, 0
1, 21696, Note_on_c, 1, 43, 73
1, 21698, Note_on_c, 0, 71, 76
1, 21698, Note_on_c, 0, 67, 76
1, 21735, Note_on_c, 1, 43, 0
1, 21787, Note_on_c, 0, 71, 0
1, 21787, Note_on_c, 0, 67, 0
1, 21890, Note_on_c, 0, 76, 78
1, 21890, Note_on_c, 0, 67, 78
1, 21979, Note_on_c, 0, 76, 0
1, 21979, Note_on_c, 0, 67, 0
1, 21984, Note_on_c, 1, 57, 73
1, 21986, Note_on_c, 0, 74, 77
1, 21986, Note_on_c, 0, 66, 77
1, 22075, Note_on_c, 0, 74, 0
1, 22075, Note_on_c, 0, 66, 0
1, 22082, Note_on_c, 0, 73, 76
1, 22082, Note_on_c, 0, 64, 76
1, 22161, Note_on_c, 1, 57, 0
1, 22171, Note_on_c, 0, 73, 0
1, 22171, Note_on_c, 0, 64, 0
1, 22176, Note_on_c, 1, 59, 73
1, 22178, Note_on_c, 0, 71, 75
1, 22178, Note_on_c, 0, 62, 75
1, 22265, Note_on_c, 1, 59, 0
1, 22267, Note_on_c, 0, 71, 0
1, 22267, Note_on_c, 0, 62, 0
1, 22272, Note_on_c, 1, 61, 73
1, 22274, Note_on_c, 0, 69, 74
1, 22274, Note_on_c, 0, 64, 74
1, 22361, Note_on_c, 1, 61, 0
1, 22363, Note_on_c, 0, 69, 0
1, 22363, Note_on_c, 0, 64, 0
1, 22466, Note_on_c, 0, 69, 73
1, 22466, Note_on_c, 0, 66, 73
1, 22560, Note_on_c, 1, 50, 73
1, 22651, Note_on_c, 0, 69, 0
1, 22651, Note_on_c, 0, 66, 0
1, 22658, Note_on_c, 0, 67, 74
1, 22658, Note_on_c, 0, 64, 74
1, 22747, Note_on_c, 0, 67, 0
1, 22747, Note_on_c, 0, 64, 0
1, 22754, Note_on_c, 0, 66, 75
1, 22754, Note_on_c, 0, 62, 75
1, 22825, Note_on_c, 1, 50, 0
1, 22843, Note_on_c, 0, 66, 0
1, 22843, Note_on_c, 0, 62, 0
1, 22848, Note_on_c, 1, 43, 73
1, 22850, Note_on_c, 0, 71, 76
1, 22850, Note_on_c, 0, 67, 76
1, 22887, Note_on_c, 1, 43, 0
1, 22939, Note_on_c, 0, 71, 0
1, 22939, Note_on_c, 0, 67, 0
1, 23042, Note_on_c, 0, 67, 77
1, 23042, Note_on_c, 0, 64, 77
1, 23136, Note_on_c, 1, 45, 73
1, 23227, Note_on_c, 0, 67, 0
1, 23227, Note_on_c, 0, 64, 0
1, 23234, Note_on_c, 0, 66, 75
1, 23234, Note_on_c, 0, 62, 75
1, 23323, Note_on_c, 0, 66, 0
1, 23323, Note_on_c, 0, 62, 0
1, 23330, Note_on_c, 0, 64, 74
1, 23330, Note_on_c, 0, 61, 74
1, 23401, Note_on_c, 1, 45, 0
1, 23419, Note_on_c, 0, 64, 0
1, 23419, Note_on_c, 0, 61, 0
1, 23424, Note_on_c, 1, 38, 73
1, 23426, Note_on_c, 0, 62, 73
1, 23463, Note_on_c, 1, 38, 0
1, 23515, Note_on_c, 0, 62, 0
1, 23618, Note_on_c, 0, 81, 73
1, 23618, Note_on_c, 0, 78, 73
1, 23712, Note_on_c, 1, 66, 73
1, 23712, Note_on_c, 1, 62, 73
1, 23712, Note_on_c, 1, 62, 73
1, 23801, Note_on_c, 1, 66, 0
1, 23801, Note_on_c, 1, 62, 0
1, 23803, Note_on_c, 0, 81, 0
1, 23803, Note_on_c, 0, 78, 0
1, 23808, Note_on_c, 1, 67, 73
1, 23808, Note_on_c, 1, 64, 73
1, 23810, Note_on_c, 0, 79, 73
1, 23810, Note_on_c, 0, 76, 73
1, 23897, Note_on_c, 1, 67, 0
1, 23897, Note_on_c, 1, 64, 0
1, 23899, Note_on_c, 0, 79, 0
1, 23899, Note_on_c, 0, 76, 0
1, 23904, Note_on_c, 1, 69, 73
1, 23904, Note_on_c, 1, 66, 73
1, 23906, Note_on_c, 0, 78, 73
1, 23906, Note_on_c, 0, 74, 73
1, 23977, Note_on_c, 1, 62, 0
1, 23993, Note_on_c, 1, 69, 0
1, 23993, Note_on_c, 1, 66, 0
1, 23995, Note_on_c, 0, 78, 0
1, 23995, Note_on_c, 0, 74, 0
1, 24000, Note_on_c, 0, 74, 73
1, 24000, Note_on_c, 1, 71, 67
1, 24000, Note_on_c, 1, 67, 67
1, 24000, Note_on_c, 1, 62, 67
1, 24002, Note_on_c, 0, 76, 73
1, 24091, Note_on_c, 0, 76, 0
1, 24098, Note_on_c, 0, 81, 73
1, 24143, Note_on_c, 0, 81, 0
1, 24146, Note_on_c, 0, 79, 73
1, 24191, Note_on_c, 0, 79, 0
1, 24194, Note_on_c, 0, 78, 73
1, 24239, Note_on_c, 0, 78, 0
1, 24242, Note_on_c, 0, 76, 73
1, 24265, Note_on_c, 0, 74, 0
1, 24265, Note_on_c, 1, 71, 0
1, 24265, Note_on_c, 1, 67, 0
1, 24265, Note_on_c, 1, 62, 0
1, 24287, Note_on_c, 0, 76, 0
1, 24288, Note_on_c, 0, 74, 73
1, 24288, Note_on_c, 1, 69, 67
1, 24288, Note_on_c, 1, 66, 67
1, 24288, Note_on_c, 1, 62, 67
1, 24290, Note_on_c, 0, 74, 73
1, 24377, Note_on_c, 0, 74, 0
1, 24379, Note_on_c, 0, 74, 0
1, 24386, Note_on_c, 0, 86, 73
1, 24431, Note_on_c, 0, 86, 0
1, 24434, Note_on_c, 0, 81, 73
1, 24479, Note_on_c, 0, 81, 0
1, 24482, Note_on_c, 0, 78, 73
1, 24527, Note_on_c, 0, 78, 0
1, 24530, Note_on_c, 0, 74, 73
1, 24553, Note_on_c, 1, 69, 0
1, 24553, Note_on_c, 1, 66, 0
1, 24553, Note_on_c, 1, 62, 0
1, 24575, Note_on_c, 0, 74, 0
1, 24576, Note_on_c, 0, 74, 73
1, 24576, Note_on_c, 1, 71, 67
1, 24576, Note_on_c, 1, 67, 67
1, 24576, Note_on_c, 1, 62, 67
1, 24578, Note_on_c, 0, 76, 73
1, 24667, Note_on_c, 0, 76, 0
1, 24674, Note_on_c, 0, 81, 73
1, 24719, Note_on_c, 0, 81, 0
1, 24722, Note_on_c, 0, 79, 73
1, 24767, Note_on_c, 0, 79, 0
1, 24770, Note_on_c, 0, 78, 73
1, 24815, Note_on_c, 0, 78, 0
1, 24818, Note_on_c, 0, 76, 73
1, 24841, Note_on_c, 0, 74, 0
1, 24841, Note_on_c, 1, 71, 0
1, 24841, Note_on_c, 1, 67, 0
1, 24841, Note_on_c, 1, 62, 0
1, 24863, Note_on_c, 0, 76, 0
1, 24864, Note_on_c, 0, 74, 73
1, 24864, Note_on_c, 1, 69, 67
1, 24864, Note_on_c, 1, 66, 67
1, 24864, Note_on_c, 1, 62, 67
1, 24866, Note_on_c, 0, 74, 73
1, 24953, Note_on_c, 0, 74, 0
1, 24953, Note_on_c, 1, 69, 0
1, 24953, Note_on_c, 1, 66, 0
1, 24953, Note_on_c, 1, 62, 0
1, 24955, Note_on_c, 0, 74, 0
1, 25056, Note_on_c, 1, 62, 73
1, 25058, Note_on_c, 0, 78, 73
1, 25103, Note_on_c, 0, 78, 0
1, 25106, Note_on_c, 0, 69, 73
1, 25145, Note_on_c, 1, 62, 0
1, 25151, Note_on_c, 0, 69, 0
1, 25152, Note_on_c, 1, 64, 73
1, 25154, Note_on_c, 0, 69, 73
1, 25199, Note_on_c, 0, 69, 0
1, 25202, Note_on_c, 0, 68, 73
1, 25241, Note_on_c, 1, 64, 0
1, 25247, Note_on_c, 0, 68, 0
1, 25248, Note_on_c, 1, 61, 73
1, 25250, Note_on_c, 0, 76, 73
1, 25295, Note_on_c, 0, 76, 0
1, 25298, Note_on_c, 0, 67, 73
1, 25337, Note_on_c, 1, 61, 0
1, 25343, Note_on_c, 0, 67, 0
1, 25344, Note_on_c, 1, 62, 73
1, 25346, Note_on_c, 0, 67, 73
1, 25391, Note_on_c, 0, 67, 0
1, 25394, Note_on_c, 0, 66, 73
1, 25433, Note_on_c, 1, 62, 0
1, 25439, Note_on_c, 0, 66, 0
1, 25440, Note_on_c, 1, 55, 73
1, 25442, Note_on_c, 0, 71, 73
1, 25487, Note_on_c, 0, 71, 0
1, 25490, Note_on_c, 0, 63, 73
1, 25535, Note_on_c, 0, 63, 0
1, 25538, Note_on_c, 0, 64, 73
1, 25583, Note_on_c, 0, 64, 0
1, 25586, Note_on_c, 0, 66, 73
1, 25631, Note_on_c, 0, 66, 0
1, 25634, Note_on_c, 0, 67, 73
1, 25679, Note_on_c, 0, 67, 0
1, 25682, Note_on_c, 0, 64, 73
1, 25705, Note_on_c, 1, 55, 0
1, 25727, Note_on_c, 0, 64, 0
1, 25728, Note_on_c, 1, 57, 73
1, 25730, Note_on_c, 0, 62, 73
1, 25826, Note_on_c, 0, 62, 0
1, 25826, Note_on_c, 0, 61, 73
1, 25905, Note_on_c, 1, 57, 0
1, 25915, Note_on_c, 0, 61, 0
1, 25922, Note_on_c, 0, 81, 73
1, 25922, Note_on_c, 0, 78, 73
1, 26016, Note_on_c, 1, 66, 73
1, 26016, Note_on_c, 1, 62, 73
1, 26105, Note_on_c, 1, 66, 0
1, 26105, Note_on_c, 1, 62, 0
1, 26107, Note_on_c, 0, 81, 0
1, 26107, Note_on_c, 0, 78, 0
1, 26112, Note_on_c, 1, 67, 73
1, 26112, Note_on_c, 1, 64, 73
1, 26114, Note_on_c, 0, 79, 73
1, 26114, Note_on_c, 0, 76, 73
1, 26201, Note_on_c, 1, 67, 0
1, 26201, Note_on_c, 1, 64, 0
1, 26203, Note_on_c, 0, 79, 0
1, 26203, Note_on_c, 0, 76, 0
1, 26208, Note_on_c, 1, 69, 73
1, 26208, Note_on_c, 1, 66, 73
1, 26210, Note_on_c, 0, 78, 73
1, 26210, Note_on_c, 0, 74, 73
1, 26297, Note_on_c, 1, 69, 0
1, 26297, Note_on_c, 1, 66, 0
1, 26299, Note_on_c, 0, 78, 0
1, 26299, Note_on_c, 0, 74, 0
1, 26304, Note_on_c, 1, 73, 73
1, 26304, Note_on_c, 1, 69, 73
1, 26304, Note_on_c, 1, 67, 73
1, 26306, Note_on_c, 0, 76, 73
1, 26395, Note_on_c, 0, 76, 0
1, 26402, Note_on_c, 0, 81, 73
1, 26447, Note_on_c, 0, 81, 0
1, 26450, Note_on_c, 0, 79, 73
1, 26495, Note_on_c, 0, 79, 0
1, 26498, Note_on_c, 0, 78, 73
1, 26543, Note_on_c, 0, 78, 0
1, 26546, Note_on_c, 0, 76, 73
1, 26569, Note_on_c, 1, 73, 0
1, 26569, Note_on_c, 1, 69, 0
1, 26569, Note_on_c, 1, 67, 0
1, 26591, Note_on_c, 0, 76, 0
1, 26592, Note_on_c, 1, 74, 73
1, 26592, Note_on_c, 1, 69, 73
1, 26592, Note_on_c, 1, 66, 73
1, 26594, Note_on_c, 0, 74, 73
1, 26683, Note_on_c, 0, 74, 0
1, 26690, Note_on_c, 0, 86, 73
1, 26735, Note_on_c, 0, 86, 0
1, 26738, Note_on_c, 0, 81, 73
1, 26783, Note_on_c, 0, 81, 0
1, 26786, Note_on_c, 0, 78, 73
1, 26831, Note_on_c, 0, 78, 0
1, 26834, Note_on_c, 0, 74, 73
1, 26857, Note_on_c, 1, 74, 0
1, 26857, Note_on_c, 1, 69, 0
1, 26857, Note_on_c, 1, 66, 0
1, 26879, Note_on_c, 0, 74, 0
1, 26880, Note_on_c, 1, 73, 73
1, 26880, Note_on_c, 1, 69, 73
1, 26880, Note_on_c, 1, 67, 73
1, 26882, Note_on_c, 0, 76, 73
1, 26971, Note_on_c, 0, 76, 0
1, 26978, Note_on_c, 0, 81, 73
1, 27023, Note_on_c, 0, 81, 0
1, 27026, Note_on_c, 0, 79, 73
1, 27071, Note_on_c, 0, 79, 0
1, 27074, Note_on_c, 0, 78, 73
1, 27119, Note_on_c, 0, 78, 0
1, 27122, Note_on_c, 0, 76, 73
1, 27145, Note_on_c, 1, 73, 0
1, 27145, Note_on_c, 1, 69, 0
1, 27145, Note_on_c, 1, 67, 0
1, 27167, Note_on_c, 0, 76, 0
1, 27168, Note_on_c, 1, 74, 73
1, 27168, Note_on_c, 1, 69, 73
1, 27168, Note_on_c, 1, 66, 73
1, 27170, Note_on_c, 0, 74, 73
1, 27259, Note_on_c, 0, 74, 0
1, 27266, Note_on_c, 0, 86, 73
1, 27311, Note_on_c, 0, 86, 0
1, 27314, Note_on_c, 0, 85, 73
1, 27359, Note_on_c, 0, 85, 0
1, 27362, Note_on_c, 0, 83, 73
1, 27407, Note_on_c, 0, 83, 0
1, 27410, Note_on_c, 0, 81, 73
1, 27433, Note_on_c, 1, 74, 0
1, 27433, Note_on_c, 1, 69, 0
1, 27433, Note_on_c, 1, 66, 0
1, 27455, Note_on_c, 0, 81, 0
1, 27456, Note_on_c, 1, 64, 73
1, 27458, Note_on_c, 0, 81, 73
1, 27503, Note_on_c, 0, 81, 0
1, 27506, Note_on_c, 0, 80, 73
1, 27545, Note_on_c, 1, 64, 0
1, 27551, Note_on_c, 0, 80, 0
1, 27552, Note_on_c, 1, 68, 73
1, 27554, Note_on_c, 0, 83, 73
1, 27599, Note_on_c, 0, 83, 0
1, 27602, Note_on_c, 0, 74, 73
1, 27641, Note_on_c, 1, 68, 0
1, 27647, Note_on_c, 0, 74, 0
1, 27648, Note_on_c, 1, 69, 73
1, 27650, Note_on_c, 0, 74, 73
1, 27695, Note_on_c, 0, 74, 0
1, 27698, Note_on_c, 0, 73, 73
1, 27737, Note_on_c, 1, 69, 0
1, 27743, Note_on_c, 0, 73, 0
1, 27744, Note_on_c, 1, 62, 73
1, 27746, Note_on_c, 0, 71, 73
1, 27791, Note_on_c, 0, 71, 0
1, 27794, Note_on_c, 0, 74, 73
1, 27839, Note_on_c, 0, 74, 0
1, 27842, Note_on_c, 0, 78, 73
1, 27887, Note_on_c, 0, 78, 0
1, 27890, Note_on_c, 0, 74, 73
1, 27921, Note_on_c, 1, 62, 0
1, 27935, Note_on_c, 0, 74, 0
1, 27936, Note_on_c, 1, 64, 73
1, 27938, Note_on_c, 0, 71, 73
1, 27983, Note_on_c, 0, 71, 0
1, 27986, Note_on_c, 0, 68, 73
1, 28025, Note_on_c, 1, 64, 0
1, 28031, Note_on_c, 0, 68, 0
1, 28032, Note_on_c, 1, 57, 73
1, 28034, Note_on_c, 0, 69, 73
1, 28121, Note_on_c, 1, 57, 0
1, 28123, Note_on_c, 0, 69, 0
1, 28224, Note_on_c, 1, 72, 73
1, 28224, Note_on_c, 1, 69, 73
1, 28322, Note_on_c, 0, 75, 73
1, 28409, Note_on_c, 1, 72, 0
1, 28409, Note_on_c, 1, 69, 0
1, 28416, Note_on_c, 1, 71, 73
1, 28416, Note_on_c, 1, 67, 73
1, 28418, Note_on_c, 0, 75, 0
1, 28418, Note_on_c, 0, 76, 73
1, 28505, Note_on_c, 1, 71, 0
1, 28505, Note_on_c, 1, 67, 0
1, 28507, Note_on_c, 0, 76, 0
1, 28512, Note_on_c, 1, 69, 73
1, 28512, Note_on_c, 1, 66, 73
1, 28610, Note_on_c, 0, 78, 73
1, 28697, Note_on_c, 1, 69, 0
1, 28697, Note_on_c, 1, 66, 0
1, 28704, Note_on_c, 1, 67, 73
1, 28704, Note_on_c, 1, 64, 73
1, 28706, Note_on_c, 0, 78, 0
1, 28706, Note_on_c, 0, 79, 73
1, 28793, Note_on_c, 1, 67, 0
1, 28793, Note_on_c, 1, 64, 0
1, 28795, Note_on_c, 0, 79, 0
1, 28800, Note_on_c, 1, 70, 73
1, 28800, Note_on_c, 1, 67, 73
1, 28898, Note_on_c, 0, 73, 73
1, 28985, Note_on_c, 1, 70, 0
1, 28985, Note_on_c, 1, 67, 0
1, 28992, Note_on_c, 1, 69, 73
1, 28992, Note_on_c, 1, 66, 73
1, 28994, Note_on_c, 0, 73, 0
1, 28994, Note_on_c, 0, 74, 73
1, 29081, Note_on_c, 1, 69, 0
1, 29081, Note_on_c, 1, 66, 0
1, 29083, Note_on_c, 0, 74, 0
1, 29088, Note_on_c, 1, 67, 73
1, 29088, Note_on_c, 1, 64, 73
1, 29186, Note_on_c, 0, 76, 73
1, 29273, Note_on_c, 1, 67, 0
1, 29273, Note_on_c, 1, 64, 0
1, 29280, Note_on_c, 1, 66, 73
1, 29280, Note_on_c, 1, 62, 73
1, 29282, Note_on_c, 0, 76, 0
1, 29282, Note_on_c, 0, 78, 73
1, 29369, Note_on_c, 1, 66, 0
1, 29369, Note_on_c, 1, 62, 0
1, 29371, Note_on_c, 0, 78, 0
1, 29376, Note_on_c, 1, 45, 73
1, 29378, Note_on_c, 0, 81, 73
1, 29378, Note_on_c, 0, 78, 73
1, 29465, Note_on_c, 1, 45, 0
1, 29472, Note_on_c, 1, 57, 73
1, 29563, Note_on_c, 0, 81, 0
1, 29563, Note_on_c, 0, 78, 0
1, 29570, Note_on_c, 0, 78, 73
1, 29570, Note_on_c, 0, 75, 73
1, 29649, Note_on_c, 1, 57, 0
1, 29659, Note_on_c, 0, 78, 0
1, 29659, Note_on_c, 0, 75, 0
1, 29664, Note_on_c, 1, 45, 74
1, 29666, Note_on_c, 0, 79, 74
1, 29666, Note_on_c, 0, 76, 74
1, 29753, Note_on_c, 1, 45, 0
1, 29760, Note_on_c, 1, 57, 74
1, 29851, Note_on_c, 0, 79, 0
1, 29851, Note_on_c, 0, 76, 0
1, 29858, Note_on_c, 0, 76, 75
1, 29858, Note_on_c, 0, 73, 75
1, 29937, Note_on_c, 1, 57, 0
1, 29947, Note_on_c, 0, 76, 0
1, 29947, Note_on_c, 0, 73, 0
1, 29952, Note_on_c, 1, 45, 75
1, 29954, Note_on_c, 0, 78, 75
1, 29954, Note_on_c, 0, 74, 75
1, 30041, Note_on_c, 1, 45, 0
1, 30043, Note_on_c, 0, 78, 0
1, 30043, Note_on_c, 0, 74, 0
1, 30048, Note_on_c, 1, 57, 76
1, 30050, Note_on_c, 0, 73, 76
1, 30050, Note_on_c, 0, 67, 76
1, 30137, Note_on_c, 1, 57, 0
1, 30144, Note_on_c, 1, 45, 76
1, 30146, Note_on_c, 0, 73, 0
1, 30146, Note_on_c, 0, 67, 0
1, 30146, Note_on_c, 0, 74, 76
1, 30146, Note_on_c, 0, 66, 76
1, 30233, Note_on_c, 1, 45, 0
1, 30235, Note_on_c, 0, 74, 0
1, 30235, Note_on_c, 0, 66, 0
1, 30240, Note_on_c, 1, 57, 77
1, 30242, Note_on_c, 0, 68, 77
1, 30242, Note_on_c, 0, 62, 77
1, 30329, Note_on_c, 1, 57, 0
1, 30331, Note_on_c, 0, 68, 0
1, 30331, Note_on_c, 0, 62, 0
1, 30336, Note_on_c, 1, 45, 77
1, 30338, Note_on_c, 0, 69, 77
1, 30338, Note_on_c, 0, 61, 77
1, 30425, Note_on_c, 1, 45, 0
1, 30427, Note_on_c, 0, 69, 0
1, 30427, Note_on_c, 0, 61, 0
1, 30530, Note_on_c, 0, 69, 73
1, 30530, Note_on_c, 0, 66, 73
1, 30624, Note_on_c, 1, 50, 73
1, 30715, Note_on_c, 0, 69, 0
1, 30715, Note_on_c, 0, 66, 0
1, 30722, Note_on_c, 0, 67, 74
1, 30722, Note_on_c, 0, 64, 74
1, 30811, Note_on_c, 0, 67, 0
1, 30811, Note_on_c, 0, 64, 0
1, 30818, Note_on_c, 0, 66, 75
1, 30818, Note_on_c, 0, 62, 75
1, 30889, Note_on_c, 1, 50, 0
1, 30907, Note_on_c, 0, 66, 0
1, 30907, Note_on_c, 0, 62, 0
1, 30912, Note_on_c, 1, 43, 73
1, 30914, Note_on_c, 0, 71, 76
1, 30914, Note_on_c, 0, 67, 76
1, 30951, Note_on_c, 1, 43, 0
1, 31003, Note_on_c, 0, 71, 0
1, 31003, Note_on_c, 0, 67, 0
1, 31106, Note_on_c, 0, 76, 78
1, 31106, Note_on_c, 0, 67, 78
1, 31195, Note_on_c, 0, 76, 0
1, 31195, Note_on_c, 0, 67, 0
1, 31200, Note_on_c, 1, 57, 73
1, 31202, Note_on_c, 0, 74, 77
1, 31202, Note_on_c, 0, 66, 77
1, 31291, Note_on_c, 0, 74, 0
1, 31291, Note_on_c, 0, 66, 0
1, 31298, Note_on_c, 0, 73, 76
1, 31298, Note_on_c, 0, 64, 76
1, 31377, Note_on_c, 1, 57, 0
1, 31387, Note_on_c, 0, 73, 0
1, 31387, Note_on_c, 0, 64, 0
1, 31392, Note_on_c, 1, 59, 73
1, 31394, Note_on_c, 0, 71, 75
1, 31394, Note_on_c, 0, 62, 75
1, 31481, Note_on_c, 1, 59, 0
1, 31483, Note_on_c, 0, 71, 0
1, 31483, Note_on_c, 0, 62, 0
1, 31488, Note_on_c, 1, 61, 73
1, 31490, Note_on_c, 0, 69, 74
1, 31490, Note_on_c, 0, 64, 74
1, 31577, Note_on_c, 1, 61, 0
1, 31579, Note_on_c, 0, 69, 0
1, 31579, Note_on_c, 0, 64, 0
1, 31682, Note_on_c, 0, 69, 73
1, 31682, Note_on_c, 0, 66, 73
1, 31776, Note_on_c, 1, 50, 73
1, 31867, Note_on_c, 0, 69, 0
1, 31867, Note_on_c, 0, 66, 0
1, 31874, Note_on_c, 0, 67, 74
1, 31874, Note_on_c, 0, 64, 74
1, 31963, Note_on_c, 0, 67, 0
1, 31963, Note_on_c, 0, 64, 0
1, 31970, Note_on_c, 0, 66, 75
1, 31970, Note_on_c, 0, 62, 75
1, 32041, Note_on_c, 1, 50, 0
1, 32059, Note_on_c, 0, 66, 0
1, 32059, Note_on_c, 0, 62, 0
1, 32064, Note_on_c, 1, 43, 73
1, 32066, Note_on_c, 0, 71, 76
1, 32066, Note_on_c, 0, 67, 76
1, 32103, Note_on_c, 1, 43, 0
1, 32155, Note_on_c, 0, 71, 0
1, 32155, Note_on_c, 0, 67, 0
1, 32258, Note_on_c, 0, 67, 77
1, 32258, Note_on_c, 0, 64, 77
1, 32352, Note_on_c, 1, 45, 73
1, 32443, Note_on_c, 0, 67, 0
1, 32443, Note_on_c, 0, 64, 0
1, 32450, Note_on_c, 0, 66, 75
1, 32450, Note_on_c, 0, 62, 75
1, 32539, Note_on_c, 0, 66, 0
1, 32539, Note_on_c, 0, 62, 0
1, 32546, Note_on_c, 0, 64, 74
1, 32546, Note_on_c, 0, 61, 74
1, 32617, Note_on_c, 1, 45, 0
1, 32635, Note_on_c, 0, 64, 0
1, 32635, Note_on_c, 0, 61, 0
1, 32640, Note_on_c, 0, 62, 73
1, 32640, Note_on_c, 1, 38, 73
1, 32642, Note_on_c, 0, 62, 73
1, 32729, Note_on_c, 0, 62, 0
1, 32729, Note_on_c, 1, 38, 0
1, 32731, Note_on_c, 0, 62, 0
1, 32832, Note_on_c, 1, 72, 73
1, 32832, Note_on_c, 1, 69, 73
1, 32930, Note_on_c, 0, 75, 73
1, 33017, Note_on_c, 1, 72, 0
1, 33017, Note_on_c, 1, 69, 0
1, 33024, Note_on_c, 1, 71, 73
1, 33024, Note_on_c, 1, 67, 73
1, 33026, Note_on_c, 0, 75, 0
1, 33026, Note_on_c, 0, 76, 73
1, 33113, Note_on_c, 1, 71, 0
1, 33113, Note_on_c, 1, 67, 0
1, 33115, Note_on_c, 0, 76, 0
1, 33120, Note_on_c, 1, 69, 73
1, 33120, Note_on_c, 1, 66, 73
1, 33218, Note_on_c, 0, 78, 73
1, 33305, Note_on_c, 1, 69, 0
1, 33305, Note_on_c, 1, 66, 0
1, 33312, Note_on_c, 1, 67, 73
1, 33312, Note_on_c, 1, 64, 73
1, 33314, Note_on_c, 0, 78, 0
1, 33314, Note_on_c, 0, 79, 73
1, 33401, Note_on_c, 1, 67, 0
1, 33401, Note_on_c, 1, 64, 0
1, 33403, Note_on_c, 0, 79, 0
1, 33408, Note_on_c, 1, 70, 73
1, 33408, Note_on_c, 1, 67, 73
1, 33506, Note_on_c, 0, 73, 73
1, 33593, Note_on_c, 1, 70, 0
1, 33593, Note_on_c, 1, 67, 0
1, 33600, Note_on_c, 1, 69, 73
1, 33600, Note_on_c, 1, 66, 73
1, 33602, Note_on_c, 0, 73, 0
1, 33602, Note_on_c, 0, 74, 73
1, 33689, Note_on_c, 1, 69, 0
1, 33689, Note_on_c, 1, 66, 0
1, 33691, Note_on_c, 0, 74, 0
1, 33696, Note_on_c, 1, 67, 73
1, 33696, Note_on_c, 1, 64, 73
1, 33794, Note_on_c, 0, 76, 73
1, 33881, Note_on_c, 1, 67, 0
1, 33881, Note_on_c, 1, 64, 0
1, 33888, Note_on_c, 1, 66, 73
1, 33888, Note_on_c, 1, 62, 73
1, 33890, Note_on_c, 0, 76, 0
1, 33890, Note_on_c, 0, 78, 73
1, 33977, Note_on_c, 1, 66, 0
1, 33977, Note_on_c, 1, 62, 0
1, 33979, Note_on_c, 0, 78, 0
1, 33984, Note_on_c, 1, 45, 73
1, 33986, Note_on_c, 0, 81, 73
1, 33986, Note_on_c, 0, 78, 73
1, 34073, Note_on_c, 1, 45, 0
1, 34080, Note_on_c, 1, 57, 73
1, 34171, Note_on_c, 0, 81, 0
1, 34171, Note_on_c, 0, 78, 0
1, 34178, Note_on_c, 0, 78, 74
1, 34178, Note_on_c, 0, 75, 74
1, 34257, Note_on_c, 1, 57, 0
1, 34267, Note_on_c, 0, 78, 0
1, 34267, Note_on_c, 0, 75, 0
1, 34272, Note_on_c, 1, 45, 74
1, 34274, Note_on_c, 0, 79, 74
1, 34274, Note_on_c, 0, 76, 74
1, 34361, Note_on_c, 1, 45, 0
1, 34368, Note_on_c, 1, 57, 75
1, 34459, Note_on_c, 0, 79, 0
1, 34459, Note_on_c, 0, 76, 0
1, 34466, Note_on_c, 0, 76, 75
1, 34466, Note_on_c, 0, 73, 75
1, 34545, Note_on_c, 1, 57, 0
1, 34555, Note_on_c, 0, 76, 0
1, 34555, Note_on_c, 0, 73, 0
1, 34560, Note_on_c, 1, 45, 76
1, 34562, Note_on_c, 0, 78, 76
1, 34562, Note_on_c, 0, 74, 76
1, 34649, Note_on_c, 1, 45, 0
1, 34651, Note_on_c, 0, 78, 0
1, 34651, Note_on_c, 0, 74, 0
1, 34656, Note_on_c, 1, 57, 76
1, 34658, Note_on_c, 0, 73, 76
1, 34658, Note_on_c, 0, 67, 76
1, 34745, Note_on_c, 1, 57, 0
1, 34752, Note_on_c, 1, 45, 77
1, 34754, Note_on_c, 0, 73, 0
1, 34754, Note_on_c, 0, 67, 0
1, 34754, Note_on_c, 0, 74, 77
1, 34754, Note_on_c, 0, 66, 77
1, 34841, Note_on_c, 1, 45, 0
1, 34843, Note_on_c, 0, 74, 0
1, 34843, Note_on_c, 0, 66, 0
1, 34848, Note_on_c, 1, 57, 77
1, 34850, Note_on_c, 0, 68, 77
1, 34850, Note_on_c, 0, 62, 77
1, 34937, Note_on_c, 1, 57, 0
1, 34939, Note_on_c, 0, 68, 0
1, 34939, Note_on_c, 0, 62, 0
1, 34944, Note_on_c, 1, 45, 78
1, 34946, Note_on_c, 0, 69, 78
1, 34946, Note_on_c, 0, 61, 78
1, 35033, Note_on_c, 1, 45, 0
1, 35035, Note_on_c, 0, 69, 0
1, 35035, Note_on_c, 0, 61, 0
1, 35138, Note_on_c, 0, 69, 73
1, 35138, Note_on_c, 0, 66, 73
1, 35232, Note_on_c, 1, 50, 73
1, 35323, Note_on_c, 0, 69, 0
1, 35323, Note_on_c, 0, 66, 0
1, 35330, Note_on_c, 0, 67, 73
1, 35330, Note_on_c, 0, 64, 73
1, 35419, Note_on_c, 0, 67, 0
1, 35419, Note_on_c, 0, 64, 0
1, 35426, Note_on_c, 0, 66, 73
1, 35426, Note_on_c, 0, 62, 73
1, 35497, Note_on_c, 1, 50, 0
1, 35515, Note_on_c, 0, 66, 0
1, 35515, Note_on_c, 0, 62, 0
1, 35520, Note_on_c, 1, 43, 73
1, 35522, Note_on_c, 0, 71, 73
1, 35522, Note_on_c, 0, 67, 73
1, 35559, Note_on_c, 1, 43, 0
1, 35611, Note_on_c, 0, 71, 0
1, 35611, Note_on_c, 0, 67, 0
1, 35714, Note_on_c, 0, 76, 73
1, 35714, Note_on_c, 0, 67, 73
1, 35803, Note_on_c, 0, 76, 0
1, 35803, Note_on_c, 0, 67, 0
1, 35808, Note_on_c, 1, 57, 73
1, 35810, Note_on_c, 0, 74, 73
1, 35810, Note_on_c, 0, 66, 73
1, 35899, Note_on_c, 0, 74, 0
1, 35899, Note_on_c, 0, 66, 0
1, 35906, Note_on_c, 0, 73, 73
1, 35906, Note_on_c, 0, 64, 73
1, 35985, Note_on_c, 1, 57, 0
1, 35995, Note_on_c, 0, 73, 0
1, 35995, Note_on_c, 0, 64, 0
1, 36000, Note_on_c, 1, 59, 73
1, 36002, Note_on_c, 0, 71, 73
1, 36002, Note_on_c, 0, 62, 73
1, 36089, Note_on_c, 1, 59, 0
1, 36091, Note_on_c, 0, 71, 0
1, 36091, Note_on_c, 0, 62, 0
1, 36096, Note_on_c, 1, 61, 73
1, 36098, Note_on_c, 0, 69, 73
1, 36098, Note_on_c, 0, 64, 73
1, 36185, Note_on_c, 1, 61, 0
1, 36187, Note_on_c, 0, 69, 0
1, 36187, Note_on_c, 0, 64, 0
1, 36290, Note_on_c, 0, 69, 73
1, 36290, Note_on_c, 0, 66, 73
1, 36384, Note_on_c, 1, 50, 73
1, 36475, Note_on_c, 0, 69, 0
1, 36475, Note_on_c, 0, 66, 0
1, 36482, Note_on_c, 0, 67, 73
1, 36482, Note_on_c, 0, 64, 73
1, 36571, Note_on_c, 0, 67, 0
1, 36571, Note_on_c, 0, 64, 0
1, 36578, Note_on_c, 0, 66, 73
1, 36578, Note_on_c, 0, 62, 73
1, 36649, Note_on_c, 1, 50, 0
1, 36667, Note_on_c, 0, 66, 0
1, 36667, Note_on_c, 0, 62, 0
1, 36672, Note_on_c, 1, 43, 73
1, 36674, Note_on_c, 0, 71, 73
1, 36674, Note_on_c, 0, 67, 73
1, 36711, Note_on_c, 1, 43, 0
1, 36763, Note_on_c, 0, 71, 0
1, 36763, Note_on_c, 0, 67, 0
1, 36866, Note_on_c, 0, 67, 73
1, 36866, Note_on_c, 0, 64, 73
1, 36960, Note_on_c, 1, 45, 73
1, 37051, Note_on_c, 0, 67, 0
1, 37051, Note_on_c, 0, 64, 0
1, 37058, Note_on_c, 0, 66, 73
1, 37058, Note_on_c, 0, 62, 73
1, 37147, Note_on_c, 0, 66, 0
1, 37147, Note_on_c, 0, 62, 0
1, 37154, Note_on_c, 0, 64, 73
1, 37154, Note_on_c, 0, 61, 73
1, 37225, Note_on_c, 1, 45, 0
1, 37243, Note_on_c, 0, 64, 0
1, 37243, Note_on_c, 0, 61, 0
1, 37248, Note_on_c, 0, 62, 73
1, 37248, Note_on_c, 1, 38, 73
1, 37250, Note_on_c, 0, 62, 73
1, 37337, Note_on_c, 0, 62, 0
1, 37337, Note_on_c, 1, 38, 0
1, 37339, Note_on_c, 0, 62, 0
1, 37394, Note_on_c, 0, 69, 73
1, 37439, Note_on_c, 0, 69, 0
1, 37442, Note_on_c, 0, 74, 73
1, 37487, Note_on_c, 0, 74, 0
1, 37490, Note_on_c, 0, 78, 73
1, 37535, Note_on_c, 0, 78, 0
1, 37536, Note_on_c, 1, 66, 73
1, 37575, Note_on_c, 1, 66, 0
1, 37586, Note_on_c, 0, 69, 73
1, 37631, Note_on_c, 0, 69, 0
1, 37632, Note_on_c, 1, 64, 73
1, 37671, Note_on_c, 1, 64, 0
1, 37682, Note_on_c, 0, 67, 73
1, 37727, Note_on_c, 0, 67, 0
1, 37728, Note_on_c, 1, 62, 73
1, 37767, Note_on_c, 1, 62, 0
1, 37778, Note_on_c, 0, 66, 73
1, 37823, Note_on_c, 0, 66, 0
1, 37824, Note_on_c, 1, 59, 73
1, 37824, Note_on_c, 1, 55, 73
1, 37874, Note_on_c, 0, 64, 73
1, 37913, Note_on_c, 1, 59, 0
1, 37913, Note_on_c, 1, 55, 0
1, 37919, Note_on_c, 0, 64, 0
1, 37922, Note_on_c, 0, 63, 73
1, 37967, Note_on_c, 0, 63, 0
1, 37970, Note_on_c, 0, 64, 73
1, 38015, Note_on_c, 0, 64, 0
1, 38018, Note_on_c, 0, 67, 73
1, 38063, Note_on_c, 0, 67, 0
1, 38066, Note_on_c, 0, 71, 73
1, 38111, Note_on_c, 0, 71, 0
1, 38114, Note_on_c, 0, 76, 73
1, 38159, Note_on_c, 0, 76, 0
1, 38162, Note_on_c, 0, 79, 73
1, 38207, Note_on_c, 0, 79, 0
1, 38208, Note_on_c, 1, 67, 74
1, 38247, Note_on_c, 1, 67, 0
1, 38258, Note_on_c, 0, 76, 75
1, 38303, Note_on_c, 0, 76, 0
1, 38304, Note_on_c, 1, 68, 76
1, 38343, Note_on_c, 1, 68, 0
1, 38354, Note_on_c, 0, 74, 77
1, 38399, Note_on_c, 0, 74, 0
1, 38400, Note_on_c, 1, 69, 78
1, 38450, Note_on_c, 0, 73, 78
1, 38489, Note_on_c, 1, 69, 0
1, 38495, Note_on_c, 0, 73, 0
1, 38498, Note_on_c, 0, 76, 77
1, 38543, Note_on_c, 0, 76, 0
1, 38546, Note_on_c, 0, 69, 76
1, 38591, Note_on_c, 0, 69, 0
1, 38594, Note_on_c, 0, 74, 75
1, 38639, Note_on_c, 0, 74, 0
1, 38642, Note_on_c, 0, 78, 74
1, 38687, Note_on_c, 0, 78, 0
1, 38688, Note_on_c, 1, 66, 73
1, 38727, Note_on_c, 1, 66, 0
1, 38738, Note_on_c, 0, 69, 73
1, 38783, Note_on_c, 0, 69, 0
1, 38784, Note_on_c, 1, 64, 73
1, 38823, Note_on_c, 1, 64, 0
1, 38834, Note_on_c, 0, 67, 73
1, 38879, Note_on_c, 0, 67, 0
1, 38880, Note_on_c, 1, 62, 73
1, 38919, Note_on_c, 1, 62, 0
1, 38930, Note_on_c, 0, 66, 73
1, 38975, Note_on_c, 0, 66, 0
1, 38976, Note_on_c, 1, 59, 73
1, 38976, Note_on_c, 1, 55, 73
1, 39026, Note_on_c, 0, 64, 73
1, 39065, Note_on_c, 1, 59, 0
1, 39065, Note_on_c, 1, 55, 0
1, 39071, Note_on_c, 0, 64, 0
1, 39074, Note_on_c, 0, 63, 73
1, 39119, Note_on_c, 0, 63, 0
1, 39122, Note_on_c, 0, 64, 73
1, 39167, Note_on_c, 0, 64, 0
1, 39170, Note_on_c, 0, 67, 73
1, 39215, Note_on_c, 0, 67, 0
1, 39218, Note_on_c, 0, 71, 73
1, 39263, Note_on_c, 0, 71, 0
1, 39266, Note_on_c, 0, 69, 73
1, 39311, Note_on_c, 0, 69, 0
1, 39314, Note_on_c, 0, 66, 73
1, 39359, Note_on_c, 0, 66, 0
1, 39360, Note_on_c, 1, 54, 73
1, 39360, Note_on_c, 1, 45, 73
1, 39399, Note_on_c, 1, 54, 0
1, 39399, Note_on_c, 1, 45, 0
1, 39410, Note_on_c, 0, 62, 73
1, 39455, Note_on_c, 0, 62, 0
1, 39456, Note_on_c, 1, 52, 73
1, 39456, Note_on_c, 1, 45, 73
1, 39495, Note_on_c, 1, 52, 0
1, 39495, Note_on_c, 1, 45, 0
1, 39506, Note_on_c, 0, 61, 73
1, 39551, Note_on_c, 0, 61, 0
1, 39552, Note_on_c, 1, 50, 73
1, 39602, Note_on_c, 0, 62, 73
1, 39641, Note_on_c, 1, 50, 0
1, 39647, Note_on_c, 0, 62, 0
1, 39648, Note_on_c, 1, 38, 73
1, 39698, Note_on_c, 0, 69, 73
1, 39737, Note_on_c, 1, 38, 0
1, 39743, Note_on_c, 0, 69, 0
1, 39746, Note_on_c, 0, 74, 73
1, 39791, Note_on_c, 0, 74, 0
1, 39794, Note_on_c, 0, 78, 73
1, 39839, Note_on_c, 0, 78, 0
1, 39840, Note_on_c, 1, 66, 73
1, 39879, Note_on_c, 1, 66, 0
1, 39890, Note_on_c, 0, 69, 73
1, 39935, Note_on_c, 0, 69, 0
1, 39936, Note_on_c, 1, 64, 73
1, 39975, Note_on_c, 1, 64, 0
1, 39986, Note_on_c, 0, 67, 73
1, 40031, Note_on_c, 0, 67, 0
1, 40032, Note_on_c, 1, 62, 73
1, 40071, Note_on_c, 1, 62, 0
1, 40082, Note_on_c, 0, 66, 73
1, 40127, Note_on_c, 0, 66, 0
1, 40128, Note_on_c, 1, 74, 67
1, 40128, Note_on_c, 1, 71, 67
1, 40128, Note_on_c, 1, 67, 67
1, 40178, Note_on_c, 0, 76, 73
1, 40223, Note_on_c, 0, 76, 0
1, 40226, Note_on_c, 0, 81, 73
1, 40271, Note_on_c, 0, 81, 0
1, 40274, Note_on_c, 0, 79, 73
1, 40319, Note_on_c, 0, 79, 0
1, 40322, Note_on_c, 0, 78, 73
1, 40367, Note_on_c, 0, 78, 0
1, 40370, Note_on_c, 0, 76, 73
1, 40393, Note_on_c, 1, 74, 0
1, 40393, Note_on_c, 1, 71, 0
1, 40393, Note_on_c, 1, 67, 0
1, 40415, Note_on_c, 0, 76, 0
1, 40416, Note_on_c, 1, 69, 67
1, 40416, Note_on_c, 1, 66, 67
1, 40466, Note_on_c, 0, 74, 73
1, 40511, Note_on_c, 0, 74, 0
1, 40514, Note_on_c, 0, 86, 73
1, 40559, Note_on_c, 0, 86, 0
1, 40562, Note_on_c, 0, 81, 73
1, 40607, Note_on_c, 0, 81, 0
1, 40610, Note_on_c, 0, 78, 73
1, 40655, Note_on_c, 0, 78, 0
1, 40658, Note_on_c, 0, 74, 73
1, 40681, Note_on_c, 1, 69, 0
1, 40681, Note_on_c, 1, 66, 0
1, 40703, Note_on_c, 0, 74, 0
1, 40704, Note_on_c, 1, 74, 67
1, 40704, Note_on_c, 1, 71, 67
1, 40704, Note_on_c, 1, 67, 67
1, 40754, Note_on_c, 0, 76, 73
1, 40799, Note_on_c, 0, 76, 0
1, 40802, Note_on_c, 0, 81, 73
1, 40847, Note_on_c, 0, 81, 0
1, 40850, Note_on_c, 0, 79, 73
1, 40895, Note_on_c, 0, 79, 0
1, 40898, Note_on_c, 0, 78, 73
1, 40943, Note_on_c, 0, 78, 0
1, 40946, Note_on_c, 0, 76, 73
1, 40969, Note_on_c, 1, 74, 0
1, 40969, Note_on_c, 1, 71, 0
1, 40969, Note_on_c, 1, 67, 0
1, 40991, Note_on_c, 0, 76, 0
1, 40992, Note_on_c, 1, 69, 67
1, 40992, Note_on_c, 1, 66, 67
1, 41042, Note_on_c, 0, 74, 73
1, 41081, Note_on_c, 1, 69, 0
1, 41081, Note_on_c, 1, 66, 0
1, 41087, Note_on_c, 0, 74, 0
1, 41090, Note_on_c, 0, 78, 73
1, 41135, Note_on_c, 0, 78, 0
1, 41138, Note_on_c, 0, 69, 73
1, 41183, Note_on_c, 0, 69, 0
1, 41184, Note_on_c, 1, 62, 73
1, 41223, Note_on_c, 1, 62, 0
1, 41234, Note_on_c, 0, 66, 73
1, 41279, Note_on_c, 0, 66, 0
1, 41280, Note_on_c, 1, 64, 73
1, 41319, Note_on_c, 1, 64, 0
1, 41330, Note_on_c, 0, 67, 73
1, 41375, Note_on_c, 0, 67, 0
1, 41376, Note_on_c, 1, 61, 73
1, 41415, Note_on_c, 1, 61, 0
1, 41426, Note_on_c, 0, 64, 73
1, 41471, Note_on_c, 0, 64, 0
1, 41472, Note_on_c, 1, 62, 73
1, 41511, Note_on_c, 1, 62, 0
1, 41522, Note_on_c, 0, 66, 73
1, 41567, Note_on_c, 0, 66, 0
1, 41568, Note_on_c, 1, 55, 73
1, 41618, Note_on_c, 0, 71, 73
1, 41663, Note_on_c, 0, 71, 0
1, 41666, Note_on_c, 0, 67, 73
1, 41711, Note_on_c, 0, 67, 0
1, 41714, Note_on_c, 0, 66, 73
1, 41759, Note_on_c, 0, 66, 0
1, 41760, Note_on_c, 1, 55, 0
1, 41760, Note_on_c, 1, 56, 73
1, 41762, Note_on_c, 0, 64, 73
1, 41807, Note_on_c, 0, 64, 0
1, 41810, Note_on_c, 0, 62, 73
1, 41849, Note_on_c, 1, 56, 0
1, 41855, Note_on_c, 0, 62, 0
1, 41856, Note_on_c, 1, 57, 73
1, 41858, Note_on_c, 0, 61, 73
1, 41903, Note_on_c, 0, 61, 0
1, 41906, Note_on_c, 0, 64, 73
1, 41945, Note_on_c, 1, 57, 0
1, 41951, Note_on_c, 0, 64, 0
1, 41952, Note_on_c, 1, 45, 73
1, 42002, Note_on_c, 0, 69, 73
1, 42041, Note_on_c, 1, 45, 0
1, 42047, Note_on_c, 0, 69, 0
1, 42050, Note_on_c, 0, 74, 73
1, 42095, Note_on_c, 0, 74, 0
1, 42098, Note_on_c, 0, 78, 73
1, 42143, Note_on_c, 0, 78, 0
1, 42144, Note_on_c, 1, 66, 73
1, 42183, Note_on_c, 1, 66, 0
1, 42194, Note_on_c, 0, 69, 73
1, 42239, Note_on_c, 0, 69, 0
1, 42240, Note_on_c, 1, 64, 73
1, 42279, Note_on_c, 1, 64, 0
1, 42290, Note_on_c, 0, 67, 73
1, 42335, Note_on_c, 0, 67, 0
1, 42336, Note_on_c, 1, 62, 73
1, 42375, Note_on_c, 1, 62, 0
1, 42386, Note_on_c, 0, 66, 73
1, 42431, Note_on_c, 0, 66, 0
1, 42432, Note_on_c, 1, 73, 73
1, 42432, Note_on_c, 1, 69, 73
1, 42432, Note_on_c, 1, 67, 73
1, 42482, Note_on_c, 0, 76, 73
1, 42527, Note_on_c, 0, 76, 0
1, 42530, Note_on_c, 0, 81, 73
1, 42575, Note_on_c, 0, 81, 0
1, 42578, Note_on_c, 0, 79, 73
1, 42623, Note_on_c, 0, 79, 0
1, 42626, Note_on_c, 0, 78, 73
1, 42671, Note_on_c, 0, 78, 0
1, 42674, Note_on_c, 0, 76, 73
1, 42697, Note_on_c, 1, 73, 0
1, 42697, Note_on_c, 1, 69, 0
1, 42697, Note_on_c, 1, 67, 0
1, 42719, Note_on_c, 0, 76, 0
1, 42720, Note_on_c, 1, 69, 73
1, 42720, Note_on_c, 1, 66, 73
1, 42770, Note_on_c, 0, 74, 73
1, 42809, Note_on_c, 1, 69, 0
1, 42809, Note_on_c, 1, 66, 0
1, 42815, Note_on_c, 0, 74, 0
1, 42816, Note_on_c, 1, 67, 73
1, 42816, Note_on_c, 1, 64, 73
1, 42866, Note_on_c, 0, 85, 73
1, 42905, Note_on_c, 1, 67, 0
1, 42905, Note_on_c, 1, 64, 0
1, 42911, Note_on_c, 0, 85, 0
1, 42912, Note_on_c, 1, 66, 73
1, 42912, Note_on_c, 1, 62, 73
1, 42962, Note_on_c, 0, 86, 73
1, 43001, Note_on_c, 1, 66, 0
1, 43001, Note_on_c, 1, 62, 0
1, 43007, Note_on_c, 0, 86, 0
1, 43008, Note_on_c, 1, 73, 73
1, 43008, Note_on_c, 1, 69, 73
1, 43008, Note_on_c, 1, 67, 73
1, 43058, Note_on_c, 0, 76, 73
1, 43103, Note_on_c, 0, 76, 0
1, 43106, Note_on_c, 0, 81, 73
1, 43151, Note_on_c, 0, 81, 0
1, 43154, Note_on_c, 0, 79, 73
1, 43199, Note_on_c, 0, 79, 0
1, 43202, Note_on_c, 0, 78, 73
1, 43247, Note_on_c, 0, 78, 0
1, 43250, Note_on_c, 0, 76, 73
1, 43273, Note_on_c, 1, 73, 0
1, 43273, Note_on_c, 1, 69, 0
1, 43273, Note_on_c, 1, 67, 0
1, 43295, Note_on_c, 0, 76, 0
1, 43296, Note_on_c, 1, 69, 73
1, 43296, Note_on_c, 1, 66, 73
1, 43346, Note_on_c, 0, 74, 73
1, 43391, Note_on_c, 0, 74, 0
1, 43394, Note_on_c, 0, 86, 73
1, 43439, Note_on_c, 0, 86, 0
1, 43442, Note_on_c, 0, 85, 73
1, 43487, Note_on_c, 0, 85, 0
1, 43490, Note_on_c, 0, 83, 73
1, 43535, Note_on_c, 0, 83, 0
1, 43538, Note_on_c, 0, 81, 73
1, 43561, Note_on_c, 1, 69, 0
1, 43561, Note_on_c, 1, 66, 0
1, 43583, Note_on_c, 0, 81, 0
1, 43586, Note_on_c, 0, 80, 73
1, 43631, Note_on_c, 0, 80, 0
1, 43632, Note_on_c, 1, 64, 73
1, 43677, Note_on_c, 1, 64, 0
1, 43682, Note_on_c, 0, 74, 73
1, 43727, Note_on_c, 0, 74, 0
1, 43728, Note_on_c, 1, 68, 73
1, 43773, Note_on_c, 1, 68, 0
1, 43778, Note_on_c, 0, 73, 73
1, 43823, Note_on_c, 0, 73, 0
1, 43824, Note_on_c, 1, 69, 73
1, 43869, Note_on_c, 1, 69, 0
1, 43872, Note_on_c, 1, 62, 73
1, 43922, Note_on_c, 0, 71, 73
1, 43967, Note_on_c, 0, 71, 0
1, 43970, Note_on_c, 0, 78, 73
1, 44015, Note_on_c, 0, 78, 0
1, 44018, Note_on_c, 0, 74, 73
1, 44063, Note_on_c, 0, 74, 0
1, 44064, Note_on_c, 1, 62, 0
1, 44064, Note_on_c, 1, 64, 73
1, 44066, Note_on_c, 0, 71, 73
1, 44111, Note_on_c, 0, 71, 0
1, 44114, Note_on_c, 0, 68, 73
1, 44153, Note_on_c, 1, 64, 0
1, 44159, Note_on_c, 0, 68, 0
1, 44160, Note_on_c, 1, 57, 73
1, 44162, Note_on_c, 0, 69, 73
1, 44249, Note_on_c, 1, 57, 0
1, 44251, Note_on_c, 0, 69, 0
1, 44306, Note_on_c, 0, 69, 73
1, 44351, Note_on_c, 0, 69, 0
1, 44354, Note_on_c, 0, 74, 73
1, 44399, Note_on_c, 0, 74, 0
1, 44402, Note_on_c, 0, 78, 73
1, 44447, Note_on_c, 0, 78, 0
1, 44448, Note_on_c, 1, 66, 73
1, 44487, Note_on_c, 1, 66, 0
1, 44498, Note_on_c, 0, 69, 73
1, 44543, Note_on_c, 0, 69, 0
1, 44544, Note_on_c, 1, 64, 73
1, 44583, Note_on_c, 1, 64, 0
1, 44594, Note_on_c, 0, 67, 73
1, 44639, Note_on_c, 0, 67, 0
1, 44640, Note_on_c, 1, 62, 73
1, 44679, Note_on_c, 1, 62, 0
1, 44690, Note_on_c, 0, 66, 73
1, 44735, Note_on_c, 0, 66, 0
1, 44736, Note_on_c, 1, 59, 73
1, 44736, Note_on_c, 1, 55, 73
1, 44786, Note_on_c, 0, 64, 73
1, 44825, Note_on_c, 1, 59, 0
1, 44825, Note_on_c, 1, 55, 0
1, 44831, Note_on_c, 0, 64, 0
1, 44834, Note_on_c, 0, 63, 73
1, 44879, Note_on_c, 0, 63, 0
1, 44882, Note_on_c, 0, 64, 73
1, 44927, Note_on_c, 0, 64, 0
1, 44930, Note_on_c, 0, 67, 73
1, 44975, Note_on_c, 0, 67, 0
1, 44978, Note_on_c, 0, 71, 73
1, 45023, Note_on_c, 0, 71, 0
1, 45026, Note_on_c, 0, 76, 73
1, 45071, Note_on_c, 0, 76, 0
1, 45074, Note_on_c, 0, 79, 73
1, 45119, Note_on_c, 0, 79, 0
1, 45120, Note_on_c, 1, 67, 74
1, 45159, Note_on_c, 1, 67, 0
1, 45170, Note_on_c, 0, 76, 75
1, 45215, Note_on_c, 0, 76, 0
1, 45216, Note_on_c, 1, 68, 76
1, 45255, Note_on_c, 1, 68, 0
1, 45266, Note_on_c, 0, 74, 77
1, 45311, Note_on_c, 0, 74, 0
1, 45312, Note_on_c, 1, 69, 78
1, 45362, Note_on_c, 0, 73, 77
1, 45401, Note_on_c, 1, 69, 0
1, 45407, Note_on_c, 0, 73, 0
1, 45410, Note_on_c, 0, 76, 76
1, 45455, Note_on_c, 0, 76, 0
1, 45458, Note_on_c, 0, 69, 75
1, 45503, Note_on_c, 0, 69, 0
1, 45506, Note_on_c, 0, 74, 74
1, 45551, Note_on_c, 0, 74, 0
1, 45554, Note_on_c, 0, 78, 73
1, 45599, Note_on_c, 0, 78, 0
1, 45600, Note_on_c, 1, 66, 73
1, 45639, Note_on_c, 1, 66, 0
1, 45650, Note_on_c, 0, 69, 73
1, 45695, Note_on_c, 0, 69, 0
1, 45696, Note_on_c, 1, 64, 73
1, 45735, Note_on_c, 1, 64, 0
1, 45746, Note_on_c, 0, 67, 73
1, 45791, Note_on_c, 0, 67, 0
1, 45792, Note_on_c, 1, 62, 73
1, 45831, Note_on_c, 1, 62, 0
1, 45842, Note_on_c, 0, 66, 73
1, 45887, Note_on_c, 0, 66, 0
1, 45888, Note_on_c, 1, 59, 73
1, 45888, Note_on_c, 1, 55, 73
1, 45938, Note_on_c, 0, 64, 73
1, 45977, Note_on_c, 1, 59, 0
1, 45977, Note_on_c, 1, 55, 0
1, 45983, Note_on_c, 0, 64, 0
1, 45986, Note_on_c, 0, 63, 73
1, 46031, Note_on_c, 0, 63, 0
1, 46034, Note_on_c, 0, 64, 73
1, 46079, Note_on_c, 0, 64, 0
1, 46082, Note_on_c, 0, 67, 73
1, 46127, Note_on_c, 0, 67, 0
1, 46130, Note_on_c, 0, 71, 73
1, 46175, Note_on_c, 0, 71, 0
1, 46178, Note_on_c, 0, 69, 73
1, 46223, Note_on_c, 0, 69, 0
1, 46226, Note_on_c, 0, 66, 73
1, 46271, Note_on_c, 0, 66, 0
1, 46272, Note_on_c, 1, 54, 73
1, 46272, Note_on_c, 1, 45, 73
1, 46311, Note_on_c, 1, 54, 0
1, 46311, Note_on_c, 1, 45, 0
1, 46322, Note_on_c, 0, 62, 73
1, 46367, Note_on_c, 0, 62, 0
1, 46368, Note_on_c, 1, 52, 73
1, 46368, Note_on_c, 1, 45, 73
1, 46407, Note_on_c, 1, 52, 0
1, 46407, Note_on_c, 1, 45, 0
1, 46418, Note_on_c, 0, 61, 73
1, 46463, Note_on_c, 0, 61, 0
1, 46464, Note_on_c, 1, 50, 73
1, 46514, Note_on_c, 0, 62, 73
1, 46553, Note_on_c, 1, 50, 0
1, 46559, Note_on_c, 0, 62, 0
1, 46560, Note_on_c, 1, 38, 73
1, 46610, Note_on_c, 0, 69, 73
1, 46649, Note_on_c, 1, 38, 0
1, 46655, Note_on_c, 0, 69, 0
1, 46658, Note_on_c, 0, 74, 73
1, 46703, Note_on_c, 0, 74, 0
1, 46706, Note_on_c, 0, 78, 73
1, 46751, Note_on_c, 0, 78, 0
1, 46752, Note_on_c, 1, 66, 73
1, 46791, Note_on_c, 1, 66, 0
1, 46802, Note_on_c, 0, 69, 73
1, 46847, Note_on_c, 0, 69, 0
1, 46848, Note_on_c, 1, 64, 73
1, 46887, Note_on_c, 1, 64, 0
1, 46898, Note_on_c, 0, 67, 73
1, 46943, Note_on_c, 0, 67, 0
1, 46944, Note_on_c, 1, 62, 73
1, 46983, Note_on_c, 1, 62, 0
1, 46994, Note_on_c, 0, 66, 73
1, 47039, Note_on_c, 0, 66, 0
1, 47040, Note_on_c, 1, 74, 73
1, 47040, Note_on_c, 1, 71, 73
1, 47040, Note_on_c, 1, 67, 73
1, 47090, Note_on_c, 0, 76, 73
1, 47135, Note_on_c, 0, 76, 0
1, 47138, Note_on_c, 0, 81, 73
1, 47183, Note_on_c, 0, 81, 0
1, 47186, Note_on_c, 0, 79, 73
1, 47231, Note_on_c, 0, 79, 0
1, 47234, Note_on_c, 0, 78, 73
1, 47279, Note_on_c, 0, 78, 0
1, 47282, Note_on_c, 0, 76, 73
1, 47305, Note_on_c, 1, 74, 0
1, 47305, Note_on_c, 1, 71, 0
1, 47305, Note_on_c, 1, 67, 0
1, 47327, Note_on_c, 0, 76, 0
1, 47328, Note_on_c, 1, 69, 73
1, 47328, Note_on_c, 1, 66, 73
1, 47378, Note_on_c, 0, 74, 73
1, 47423, Note_on_c, 0, 74, 0
1, 47426, Note_on_c, 0, 86, 73
1, 47471, Note_on_c, 0, 86, 0
1, 47474, Note_on_c, 0, 81, 73
1, 47519, Note_on_c, 0, 81, 0
1, 47522, Note_on_c, 0, 78, 73
1, 47567, Note_on_c, 0, 78, 0
1, 47570, Note_on_c, 0, 74, 73
1, 47593, Note_on_c, 1, 69, 0
1, 47593, Note_on_c, 1, 66, 0
1, 47615, Note_on_c, 0, 74, 0
1, 47616, Note_on_c, 1, 74, 73
1, 47616, Note_on_c, 1, 71, 73
1, 47616, Note_on_c, 1, 67, 73
1, 47666, Note_on_c, 0, 76, 73
1, 47711, Note_on_c, 0, 76, 0
1, 47714, Note_on_c, 0, 81, 73
1, 47759, Note_on_c, 0, 81, 0
1, 47762, Note_on_c, 0, 79, 73
1, 47807, Note_on_c, 0, 79, 0
1, 47810, Note_on_c, 0, 78, 73
1, 47855, Note_on_c, 0, 78, 0
1, 47858, Note_on_c, 0, 76, 73
1, 47881, Note_on_c, 1, 74, 0
1, 47881, Note_on_c, 1, 71, 0
1, 47881, Note_on_c, 1, 67, 0
1, 47903, Note_on_c, 0, 76, 0
1, 47904, Note_on_c, 1, 69, 73
1, 47904, Note_on_c, 1, 66, 73
1, 47954, Note_on_c, 0, 74, 73
1, 47993, Note_on_c, 1, 69, 0
1, 47993, Note_on_c, 1, 66, 0
1, 47999, Note_on_c, 0, 74, 0
1, 48002, Note_on_c, 0, 78, 73
1, 48047, Note_on_c, 0, 78, 0
1, 48050, Note_on_c, 0, 69, 73
1, 48095, Note_on_c, 0, 69, 0
1, 48096, Note_on_c, 1, 62, 73
1, 48135, Note_on_c, 1, 62, 0
1, 48146, Note_on_c, 0, 66, 73
1, 48191, Note_on_c, 0, 66, 0
1, 48192, Note_on_c, 1, 64, 73
1, 48231, Note_on_c, 1, 64, 0
1, 48242, Note_on_c, 0, 67, 73
1, 48287, Note_on_c, 0, 67, 0
1, 48288, Note_on_c, 1, 61, 73
1, 48327, Note_on_c, 1, 61, 0
1, 48338, Note_on_c, 0, 64, 73
1, 48383, Note_on_c, 0, 64, 0
1, 48384, Note_on_c, 1, 62, 73
1, 48423, Note_on_c, 1, 62, 0
1, 48434, Note_on_c, 0, 66, 73
1, 48479, Note_on_c, 0, 66, 0
1, 48480, Note_on_c, 1, 55, 73
1, 48530, Note_on_c, 0, 71, 73
1, 48575, Note_on_c, 0, 71, 0
1, 48578, Note_on_c, 0, 67, 74
1, 48623, Note_on_c, 0, 67, 0
1, 48626, Note_on_c, 0, 66, 75
1, 48671, Note_on_c, 0, 66, 0
1, 48672, Note_on_c, 1, 55, 0
1, 48672, Note_on_c, 1, 56, 73
1, 48674, Note_on_c, 0, 64, 76
1, 48719, Note_on_c, 0, 64, 0
1, 48722, Note_on_c, 0, 62, 78
1, 48761, Note_on_c, 1, 56, 0
1, 48767, Note_on_c, 0, 62, 0
1, 48768, Note_on_c, 1, 57, 78
1, 48770, Note_on_c, 0, 61, 76
1, 48815, Note_on_c, 0, 61, 0
1, 48818, Note_on_c, 0, 64, 75
1, 48857, Note_on_c, 1, 57, 0
1, 48863, Note_on_c, 0, 64, 0
1, 48864, Note_on_c, 1, 45, 75
1, 48914, Note_on_c, 0, 69, 73
1, 48953, Note_on_c, 1, 45, 0
1, 48959, Note_on_c, 0, 69, 0
1, 48962, Note_on_c, 0, 74, 73
1, 49007, Note_on_c, 0, 74, 0
1, 49010, Note_on_c, 0, 78, 73
1, 49055, Note_on_c, 0, 78, 0
1, 49056, Note_on_c, 1, 66, 73
1, 49095, Note_on_c, 1, 66, 0
1, 49106, Note_on_c, 0, 69, 73
1, 49151, Note_on_c, 0, 69, 0
1, 49152, Note_on_c, 1, 64, 73
1, 49191, Note_on_c, 1, 64, 0
1, 49202, Note_on_c, 0, 67, 73
1, 49247, Note_on_c, 0, 67, 0
1, 49248, Note_on_c, 1, 62, 73
1, 49287, Note_on_c, 1, 62, 0
1, 49298, Note_on_c, 0, 66, 73
1, 49343, Note_on_c, 0, 66, 0
1, 49344, Note_on_c, 1, 73, 73
1, 49344, Note_on_c, 1, 69, 73
1, 49344, Note_on_c, 1, 67, 73
1, 49394, Note_on_c, 0, 76, 73
1, 49439, Note_on_c, 0, 76, 0
1, 49442, Note_on_c, 0, 81, 73
1, 49487, Note_on_c, 0, 81, 0
1, 49490, Note_on_c, 0, 79, 73
1, 49535, Note_on_c, 0, 79, 0
1, 49538, Note_on_c, 0, 78, 73
1, 49583, Note_on_c, 0, 78, 0
1, 49586, Note_on_c, 0, 76, 73
1, 49609, Note_on_c, 1, 73, 0
1, 49609, Note_on_c, 1, 69, 0
1, 49609, Note_on_c, 1, 67, 0
1, 49631, Note_on_c, 0, 76, 0
1, 49632, Note_on_c, 1, 69, 73
1, 49632, Note_on_c, 1, 66, 73
1, 49682, Note_on_c, 0, 74, 73
1, 49721, Note_on_c, 1, 69, 0
1, 49721, Note_on_c, 1, 66, 0
1, 49727, Note_on_c, 0, 74, 0
1, 49728, Note_on_c, 1, 67, 73
1, 49728, Note_on_c, 1, 64, 73
1, 49778, Note_on_c, 0, 85, 73
1, 49817, Note_on_c, 1, 67, 0
1, 49817, Note_on_c, 1, 64, 0
1, 49823, Note_on_c, 0, 85, 0
1, 49824, Note_on_c, 1, 66, 73
1, 49824, Note_on_c, 1, 62, 73
1, 49874, Note_on_c, 0, 86, 73
1, 49913, Note_on_c, 1, 66, 0
1, 49913, Note_on_c, 1, 62, 0
1, 49919, Note_on_c, 0, 86, 0
1, 49920, Note_on_c, 1, 73, 73
1, 49920, Note_on_c, 1, 69, 73
1, 49920, Note_on_c, 1, 67, 73
1, 49970, Note_on_c, 0, 76, 73
1, 50015, Note_on_c, 0, 76, 0
1, 50018, Note_on_c, 0, 81, 73
1, 50063, Note_on_c, 0, 81, 0
1, 50066, Note_on_c, 0, 79, 73
1, 50111, Note_on_c, 0, 79, 0
1, 50114, Note_on_c, 0, 78, 73
1, 50159, Note_on_c, 0, 78, 0
1, 50162, Note_on_c, 0, 76, 73
1, 50185, Note_on_c, 1, 73, 0
1, 50185, Note_on_c, 1, 69, 0
1, 50185, Note_on_c, 1, 67, 0
1, 50207, Note_on_c, 0, 76, 0
1, 50208, Note_on_c, 1, 69, 73
1, 50208, Note_on_c, 1, 66, 73
1, 50258, Note_on_c, 0, 74, 73
1, 50303, Note_on_c, 0, 74, 0
1, 50306, Note_on_c, 0, 86, 73
1, 50351, Note_on_c, 0, 86, 0
1, 50354, Note_on_c, 0, 85, 73
1, 50399, Note_on_c, 0, 85, 0
1, 50402, Note_on_c, 0, 83, 73
1, 50447, Note_on_c, 0, 83, 0
1, 50450, Note_on_c, 0, 81, 73
1, 50473, Note_on_c, 1, 69, 0
1, 50473, Note_on_c, 1, 66, 0
1, 50495, Note_on_c, 0, 81, 0
1, 50498, Note_on_c, 0, 80, 73
1, 50543, Note_on_c, 0, 80, 0
1, 50544, Note_on_c, 1, 64, 73
1, 50589, Note_on_c, 1, 64, 0
1, 50594, Note_on_c, 0, 74, 73
1, 50639, Note_on_c, 0, 74, 0
1, 50640, Note_on_c, 1, 68, 73
1, 50685, Note_on_c, 1, 68, 0
1, 50690, Note_on_c, 0, 73, 73
1, 50735, Note_on_c, 0, 73, 0
1, 50736, Note_on_c, 1, 69, 73
1, 50781, Note_on_c, 1, 69, 0
1, 50784, Note_on_c, 1, 62, 73
1, 50834, Note_on_c, 0, 71, 73
1, 50879, Note_on_c, 0, 71, 0
1, 50882, Note_on_c, 0, 78, 73
1, 50927, Note_on_c, 0, 78, 0
1, 50930, Note_on_c, 0, 74, 73
1, 50975, Note_on_c, 0, 74, 0
1, 50976, Note_on_c, 1, 62, 0
1, 50976, Note_on_c, 1, 64, 73
1, 50978, Note_on_c, 0, 71, 73
1, 51023, Note_on_c, 0, 71, 0
1, 51026, Note_on_c, 0, 68, 73
1, 51065, Note_on_c, 1, 64, 0
1, 51071, Note_on_c, 0, 68, 0
1, 51072, Note_on_c, 1, 57, 73
1, 51074, Note_on_c, 0, 69, 73
1, 51161, Note_on_c, 1, 57, 0
1, 51163, Note_on_c, 0, 69, 0
1, 51264, Note_on_c, 1, 69, 73
1, 51309, Note_on_c, 1, 69, 0
1, 51312, Note_on_c, 1, 72, 73
1, 51357, Note_on_c, 1, 72, 0
1, 51362, Note_on_c, 0, 75, 73
1, 51407, Note_on_c, 0, 75, 0
1, 51410, Note_on_c, 0, 78, 73
1, 51455, Note_on_c, 0, 78, 0
1, 51456, Note_on_c, 1, 67, 73
1, 51501, Note_on_c, 1, 67, 0
1, 51506, Note_on_c, 0, 76, 73
1, 51551, Note_on_c, 0, 76, 0
1, 51552, Note_on_c, 1, 66, 73
1, 51597, Note_on_c, 1, 66, 0
1, 51602, Note_on_c, 0, 81, 73
1, 51647, Note_on_c, 0, 81, 0
1, 51648, Note_on_c, 1, 64, 73
1, 51698, Note_on_c, 0, 79, 73
1, 51737, Note_on_c, 1, 64, 0
1, 51743, Note_on_c, 0, 79, 0
1, 51746, Note_on_c, 0, 83, 73
1, 51791, Note_on_c, 0, 83, 0
1, 51794, Note_on_c, 0, 76, 73
1, 51839, Note_on_c, 0, 76, 0
1, 51840, Note_on_c, 1, 67, 73
1, 51885, Note_on_c, 1, 67, 0
1, 51888, Note_on_c, 1, 70, 73
1, 51933, Note_on_c, 1, 70, 0
1, 51938, Note_on_c, 0, 73, 73
1, 51983, Note_on_c, 0, 73, 0
1, 51986, Note_on_c, 0, 76, 73
1, 52031, Note_on_c, 0, 76, 0
1, 52032, Note_on_c, 1, 66, 73
1, 52077, Note_on_c, 1, 66, 0
1, 52082, Note_on_c, 0, 74, 73
1, 52127, Note_on_c, 0, 74, 0
1, 52128, Note_on_c, 1, 64, 73
1, 52173, Note_on_c, 1, 64, 0
1, 52178, Note_on_c, 0, 79, 73
1, 52223, Note_on_c, 0, 79, 0
1, 52224, Note_on_c, 1, 62, 73
1, 52274, Note_on_c, 0, 78, 73
1, 52313, Note_on_c, 1, 62, 0
1, 52319, Note_on_c, 0, 78, 0
1, 52322, Note_on_c, 0, 81, 73
1, 52367, Note_on_c, 0, 81, 0
1, 52370, Note_on_c, 0, 74, 73
1, 52415, Note_on_c, 0, 74, 0
1, 52416, Note_on_c, 1, 66, 73
1, 52416, Note_on_c, 1, 57, 78
1, 52466, Note_on_c, 0, 81, 73
1, 52505, Note_on_c, 1, 66, 0
1, 52511, Note_on_c, 0, 81, 0
1, 52512, Note_on_c, 1, 63, 73
1, 52562, Note_on_c, 0, 78, 73
1, 52601, Note_on_c, 1, 63, 0
1, 52607, Note_on_c, 0, 78, 0
1, 52608, Note_on_c, 1, 64, 73
1, 52658, Note_on_c, 0, 79, 73
1, 52697, Note_on_c, 1, 64, 0
1, 52703, Note_on_c, 0, 79, 0
1, 52704, Note_on_c, 1, 61, 73
1, 52754, Note_on_c, 0, 76, 74
1, 52793, Note_on_c, 1, 61, 0
1, 52799, Note_on_c, 0, 76, 0
1, 52800, Note_on_c, 1, 69, 74
1, 52850, Note_on_c, 0, 78, 74
1, 52889, Note_on_c, 1, 69, 0
1, 52895, Note_on_c, 0, 78, 0
1, 52896, Note_on_c, 1, 66, 74
1, 52946, Note_on_c, 0, 75, 75
1, 52985, Note_on_c, 1, 66, 0
1, 52991, Note_on_c, 0, 75, 0
1, 52992, Note_on_c, 1, 67, 75
1, 53042, Note_on_c, 0, 76, 75
1, 53081, Note_on_c, 1, 67, 0
1, 53087, Note_on_c, 0, 76, 0
1, 53088, Note_on_c, 1, 64, 76
1, 53138, Note_on_c, 0, 73, 76
1, 53177, Note_on_c, 1, 64, 0
1, 53183, Note_on_c, 0, 73, 0
1, 53184, Note_on_c, 1, 66, 76
1, 53234, Note_on_c, 0, 74, 77
1, 53273, Note_on_c, 1, 66, 0
1, 53279, Note_on_c, 0, 74, 0
1, 53280, Note_on_c, 1, 62, 77
1, 53330, Note_on_c, 0, 68, 77
1, 53369, Note_on_c, 1, 62, 0
1, 53375, Note_on_c, 0, 68, 0
1, 53376, Note_on_c, 1, 61, 78
1, 53426, Note_on_c, 0, 69, 78
1, 53465, Note_on_c, 1, 61, 0
1, 53465, Note_on_c, 1, 57, 0
1, 53471, Note_on_c, 0, 69, 0
1, 53472, Note_on_c, 1, 57, 78
1, 53522, Note_on_c, 0, 69, 73
1, 53561, Note_on_c, 1, 57, 0
1, 53567, Note_on_c, 0, 69, 0
1, 53570, Note_on_c, 0, 74, 73
1, 53615, Note_on_c, 0, 74, 0
1, 53618, Note_on_c, 0, 78, 73
1, 53663, Note_on_c, 0, 78, 0
1, 53664, Note_on_c, 1, 66, 73
1, 53703, Note_on_c, 1, 66, 0
1, 53714, Note_on_c, 0, 69, 73
1, 53759, Note_on_c, 0, 69, 0
1, 53760, Note_on_c, 1, 64, 73
1, 53799, Note_on_c, 1, 64, 0
1, 53810, Note_on_c, 0, 67, 73
1, 53855, Note_on_c, 0, 67, 0
1, 53856, Note_on_c, 1, 62, 73
1, 53895, Note_on_c, 1, 62, 0
1, 53906, Note_on_c, 0, 66, 73
1, 53951, Note_on_c, 0, 66, 0
1, 53952, Note_on_c, 1, 59, 73
1, 53952, Note_on_c, 1, 55, 73
1, 54002, Note_on_c, 0, 64, 73
1, 54041, Note_on_c, 1, 59, 0
1, 54041, Note_on_c, 1, 55, 0
1, 54047, Note_on_c, 0, 64, 0
1, 54050, Note_on_c, 0, 63, 73
1, 54095, Note_on_c, 0, 63, 0
1, 54098, Note_on_c, 0, 64, 73
1, 54143, Note_on_c, 0, 64, 0
1, 54146, Note_on_c, 0, 67, 73
1, 54191, Note_on_c, 0, 67, 0
1, 54194, Note_on_c, 0, 71, 73
1, 54239, Note_on_c, 0, 71, 0
1, 54242, Note_on_c, 0, 76, 73
1, 54287, Note_on_c, 0, 76, 0
1, 54290, Note_on_c, 0, 79, 73
1, 54335, Note_on_c, 0, 79, 0
1, 54336, Note_on_c, 1, 67, 74
1, 54375, Note_on_c, 1, 67, 0
1, 54386, Note_on_c, 0, 76, 75
1, 54431, Note_on_c, 0, 76, 0
1, 54432, Note_on_c, 1, 68, 75
1, 54471, Note_on_c, 1, 68, 0
1, 54482, Note_on_c, 0, 74, 76
1, 54527, Note_on_c, 0, 74, 0
1, 54528, Note_on_c, 1, 69, 76
1, 54578, Note_on_c, 0, 73, 78
1, 54617, Note_on_c, 1, 69, 0
1, 54623, Note_on_c, 0, 73, 0
1, 54626, Note_on_c, 0, 76, 77
1, 54671, Note_on_c, 0, 76, 0
1, 54674, Note_on_c, 0, 69, 76
1, 54719, Note_on_c, 0, 69, 0
1, 54722, Note_on_c, 0, 74, 75
1, 54767, Note_on_c, 0, 74, 0
1, 54770, Note_on_c, 0, 78, 74
1, 54815, Note_on_c, 0, 78, 0
1, 54816, Note_on_c, 1, 66, 73
1, 54855, Note_on_c, 1, 66, 0
1, 54866, Note_on_c, 0, 69, 73
1, 54911, Note_on_c, 0, 69, 0
1, 54912, Note_on_c, 1, 64, 73
1, 54951, Note_on_c, 1, 64, 0
1, 54962, Note_on_c, 0, 67, 73
1, 55007, Note_on_c, 0, 67, 0
1, 55008, Note_on_c, 1, 62, 73
1, 55047, Note_on_c, 1, 62, 0
1, 55058, Note_on_c, 0, 66, 73
1, 55103, Note_on_c, 0, 66, 0
1, 55104, Note_on_c, 1, 59, 73
1, 55104, Note_on_c, 1, 55, 73
1, 55154, Note_on_c, 0, 64, 73
1, 55193, Note_on_c, 1, 59, 0
1, 55193, Note_on_c, 1, 55, 0
1, 55199, Note_on_c, 0, 64, 0
1, 55202, Note_on_c, 0, 63, 73
1, 55247, Note_on_c, 0, 63, 0
1, 55250, Note_on_c, 0, 64, 73
1, 55295, Note_on_c, 0, 64, 0
1, 55298, Note_on_c, 0, 67, 73
1, 55343, Note_on_c, 0, 67, 0
1, 55346, Note_on_c, 0, 71, 73
1, 55391, Note_on_c, 0, 71, 0
1, 55394, Note_on_c, 0, 69, 73
1, 55439, Note_on_c, 0, 69, 0
1, 55442, Note_on_c, 0, 66, 73
1, 55487, Note_on_c, 0, 66, 0
1, 55488, Note_on_c, 1, 54, 73
1, 55488, Note_on_c, 1, 45, 73
1, 55527, Note_on_c, 1, 54, 0
1, 55527, Note_on_c, 1, 45, 0
1, 55538, Note_on_c, 0, 62, 73
1, 55583, Note_on_c, 0, 62, 0
1, 55584, Note_on_c, 1, 52, 73
1, 55584, Note_on_c, 1, 45, 73
1, 55623, Note_on_c, 1, 52, 0
1, 55623, Note_on_c, 1, 45, 0
1, 55634, Note_on_c, 0, 61, 73
1, 55679, Note_on_c, 0, 61, 0
1, 55680, Note_on_c, 1, 50, 73
1, 55730, Note_on_c, 0, 62, 73
1, 55769, Note_on_c, 1, 50, 0
1, 55775, Note_on_c, 0, 62, 0
1, 55776, Note_on_c, 1, 38, 73
1, 55865, Note_on_c, 1, 38, 0
1, 55872, Note_on_c, 1, 69, 73
1, 55917, Note_on_c, 1, 69, 0
1, 55920, Note_on_c, 1, 72, 73
1, 55965, Note_on_c, 1, 72, 0
1, 55970, Note_on_c, 0, 75, 73
1, 56015, Note_on_c, 0, 75, 0
1, 56018, Note_on_c, 0, 78, 73
1, 56063, Note_on_c, 0, 78, 0
1, 56064, Note_on_c, 1, 67, 73
1, 56109, Note_on_c, 1, 67, 0
1, 56114, Note_on_c, 0, 76, 73
1, 56159, Note_on_c, 0, 76, 0
1, 56160, Note_on_c, 1, 66, 73
1, 56205, Note_on_c, 1, 66, 0
1, 56210, Note_on_c, 0, 81, 73
1, 56255, Note_on_c, 0, 81, 0
1, 56256, Note_on_c, 1, 64, 73
1, 56306, Note_on_c, 0, 79, 73
1, 56345, Note_on_c, 1, 64, 0
1, 56351, Note_on_c, 0, 79, 0
1, 56354, Note_on_c, 0, 83, 73
1, 56399, Note_on_c, 0, 83, 0
1, 56402, Note_on_c, 0, 76, 73
1, 56447, Note_on_c, 0, 76, 0
1, 56448, Note_on_c, 1, 67, 73
1, 56493, Note_on_c, 1, 67, 0
1, 56496, Note_on_c, 1, 70, 73
1, 56541, Note_on_c, 1, 70, 0
1, 56546, Note_on_c, 0, 73, 73
1, 56591, Note_on_c, 0, 73, 0
1, 56594, Note_on_c, 0, 76, 73
1, 56639, Note_on_c, 0, 76, 0
1, 56640, Note_on_c, 1, 66, 73
1, 56685, Note_on_c, 1, 66, 0
1, 56690, Note_on_c, 0, 74, 73
1, 56735, Note_on_c, 0, 74, 0
1, 56736, Note_on_c, 1, 64, 73
1, 56781, Note_on_c, 1, 64, 0
1, 56786, Note_on_c, 0, 79, 73
1, 56831, Note_on_c, 0, 79, 0
1, 56832, Note_on_c, 1, 62, 73
1, 56882, Note_on_c, 0, 78, 73
1, 56921, Note_on_c, 1, 62, 0
1, 56927, Note_on_c, 0, 78, 0
1, 56930, Note_on_c, 0, 81, 73
1, 56975, Note_on_c, 0, 81, 0
1, 56978, Note_on_c, 0, 74, 73
1, 57023, Note_on_c, 0, 74, 0
1, 57024, Note_on_c, 1, 66, 73
1, 57024, Note_on_c, 1, 57, 78
1, 57074, Note_on_c, 0, 81, 73
1, 57113, Note_on_c, 1, 66, 0
1, 57119, Note_on_c, 0, 81, 0
1, 57120, Note_on_c, 1, 63, 73
1, 57170, Note_on_c, 0, 78, 73
1, 57209, Note_on_c, 1, 63, 0
1, 57215, Note_on_c, 0, 78, 0
1, 57216, Note_on_c, 1, 64, 73
1, 57266, Note_on_c, 0, 79, 73
1, 57305, Note_on_c, 1, 64, 0
1, 57311, Note_on_c, 0, 79, 0
1, 57312, Note_on_c, 1, 61, 73
1, 57362, Note_on_c, 0, 76, 74
1, 57401, Note_on_c, 1, 61, 0
1, 57407, Note_on_c, 0, 76, 0
1, 57408, Note_on_c, 1, 69, 74
1, 57458, Note_on_c, 0, 78, 74
1, 57497, Note_on_c, 1, 69, 0
1, 57503, Note_on_c, 0, 78, 0
1, 57504, Note_on_c, 1, 66, 74
1, 57554, Note_on_c, 0, 75, 75
1, 57593, Note_on_c, 1, 66, 0
1, 57599, Note_on_c, 0, 75, 0
1, 57600, Note_on_c, 1, 67, 75
1, 57650, Note_on_c, 0, 76, 75
1, 57689, Note_on_c, 1, 67, 0
1, 57695, Note_on_c, 0, 76, 0
1, 57696, Note_on_c, 1, 64, 76
1, 57746, Note_on_c, 0, 73, 76
1, 57785, Note_on_c, 1, 64, 0
1, 57791, Note_on_c, 0, 73, 0
1, 57792, Note_on_c, 1, 66, 76
1, 57842, Note_on_c, 0, 74, 77
1, 57881, Note_on_c, 1, 66, 0
1, 57887, Note_on_c, 0, 74, 0
1, 57888, Note_on_c, 1, 62, 77
1, 57938, Note_on_c, 0, 68, 77
1, 57977, Note_on_c, 1, 62, 0
1, 57983, Note_on_c, 0, 68, 0
1, 57984, Note_on_c, 1, 61, 78
1, 58034, Note_on_c, 0, 69, 78
1, 58073, Note_on_c, 1, 61, 0
1, 58073, Note_on_c, 1, 57, 0
1, 58079, Note_on_c, 0, 69, 0
1, 58080, Note_on_c, 1, 57, 78
1, 58130, Note_on_c, 0, 69, 73
1, 58169, Note_on_c, 1, 57, 0
1, 58175, Note_on_c, 0, 69, 0
1, 58178, Note_on_c, 0, 74, 73
1, 58223, Note_on_c, 0, 74, 0
1, 58226, Note_on_c, 0, 78, 73
1, 58271, Note_on_c, 0, 78, 0
1, 58272, Note_on_c, 1, 66, 73
1, 58311, Note_on_c, 1, 66, 0
1, 58322, Note_on_c, 0, 69, 73
1, 58367, Note_on_c, 0, 69, 0
1, 58368, Note_on_c, 1, 64, 73
1, 58407, Note_on_c, 1, 64, 0
1, 58418, Note_on_c, 0, 67, 73
1, 58463, Note_on_c, 0, 67, 0
1, 58464, Note_on_c, 1, 62, 73
1, 58503, Note_on_c, 1, 62, 0
1, 58514, Note_on_c, 0, 66, 73
1, 58559, Note_on_c, 0, 66, 0
1, 58560, Note_on_c, 1, 59, 73
1, 58560, Note_on_c, 1, 55, 73
1, 58610, Note_on_c, 0, 64, 73
1, 58649, Note_on_c, 1, 59, 0
1, 58649, Note_on_c, 1, 55, 0
1, 58655, Note_on_c, 0, 64, 0
1, 58658, Note_on_c, 0, 63, 73
1, 58703, Note_on_c, 0, 63, 0
1, 58706, Note_on_c, 0, 64, 73
1, 58751, Note_on_c, 0, 64, 0
1, 58754, Note_on_c, 0, 67, 73
1, 58799, Note_on_c, 0, 67, 0
1, 58802, Note_on_c, 0, 71, 73
1, 58847, Note_on_c, 0, 71, 0
1, 58850, Note_on_c, 0, 76, 73
1, 58895, Note_on_c, 0, 76, 0
1, 58898, Note_on_c, 0, 79, 73
1, 58943, Note_on_c, 0, 79, 0
1, 58944, Note_on_c, 1, 67, 74
1, 58983, Note_on_c, 1, 67, 0
1, 58994, Note_on_c, 0, 76, 75
1, 59039, Note_on_c, 0, 76, 0
1, 59040, Note_on_c, 1, 68, 75
1, 59079, Note_on_c, 1, 68, 0
1, 59090, Note_on_c, 0, 74, 76
1, 59135, Note_on_c, 0, 74, 0
1, 59136, Note_on_c, 1, 69, 76
1, 59186, Note_on_c, 0, 73, 78
1, 59225, Note_on_c, 1, 69, 0
1, 59231, Note_on_c, 0, 73, 0
1, 59234, Note_on_c, 0, 76, 77
1, 59279, Note_on_c, 0, 76, 0
1, 59282, Note_on_c, 0, 69, 76
1, 59327, Note_on_c, 0, 69, 0
1, 59330, Note_on_c, 0, 74, 75
1, 59375, Note_on_c, 0, 74, 0
1, 59378, Note_on_c, 0, 78, 74
1, 59423, Note_on_c, 0, 78, 0
1, 59424, Note_on_c, 1, 66, 73
1, 59463, Note_on_c, 1, 66, 0
1, 59474, Note_on_c, 0, 69, 73
1, 59519, Note_on_c, 0, 69, 0
1, 59520, Note_on_c, 1, 64, 73
1, 59559, Note_on_c, 1, 64, 0
1, 59570, Note_on_c, 0, 67, 73
1, 59615, Note_on_c, 0, 67, 0
1, 59616, Note_on_c, 1, 62, 73
1, 59655, Note_on_c, 1, 62, 0
1, 59666, Note_on_c, 0, 66, 73
1, 59711, Note_on_c, 0, 66, 0
1, 59712, Note_on_c, 1, 59, 73
1, 59712, Note_on_c, 1, 55, 73
1, 59762, Note_on_c, 0, 64, 73
1, 59801, Note_on_c, 1, 59, 0
1, 59801, Note_on_c, 1, 55, 0
1, 59807, Note_on_c, 0, 64, 0
1, 59810, Note_on_c, 0, 63, 73
1, 59855, Note_on_c, 0, 63, 0
1, 59858, Note_on_c, 0, 64, 73
1, 59903, Note_on_c, 0, 64, 0
1, 59906, Note_on_c, 0, 67, 73
1, 59951, Note_on_c, 0, 67, 0
1, 59954, Note_on_c, 0, 71, 73
1, 59999, Note_on_c, 0, 71, 0
1, 60002, Note_on_c, 0, 69, 73
1, 60047, Note_on_c, 0, 69, 0
1, 60050, Note_on_c, 0, 66, 73
1, 60095, Note_on_c, 0, 66, 0
1, 60096, Note_on_c, 1, 54, 73
1, 60096, Note_on_c, 1, 45, 73
1, 60135, Note_on_c, 1, 54, 0
1, 60135, Note_on_c, 1, 45, 0
1, 60146, Note_on_c, 0, 62, 73
1, 60191, Note_on_c, 0, 62, 0
1, 60192, Note_on_c, 1, 52, 73
1, 60192, Note_on_c, 1, 45, 73
1, 60231, Note_on_c, 1, 52, 0
1, 60231, Note_on_c, 1, 45, 0
1, 60242, Note_on_c, 0, 61, 73
1, 60287, Note_on_c, 0, 61, 0
1, 60288, Note_on_c, 1, 50, 73
1, 60338, Note_on_c, 0, 62, 73
1, 60377, Note_on_c, 1, 50, 0
1, 60383, Note_on_c, 0, 62, 0
1, 60384, Note_on_c, 1, 38, 73
1, 60473, Note_on_c, 1, 38, 0
1, 60482, Note_on_c, 0, 69, 73
1, 60482, Note_on_c, 0, 66, 73
1, 60576, Note_on_c, 1, 50, 73
1, 60667, Note_on_c, 0, 69, 0
1, 60667, Note_on_c, 0, 66, 0
1, 60674, Note_on_c, 0, 67, 74
1, 60674, Note_on_c, 0, 64, 74
1, 60763, Note_on_c, 0, 67, 0
1, 60763, Note_on_c, 0, 64, 0
1, 60770, Note_on_c, 0, 66, 75
1, 60770, Note_on_c, 0, 62, 75
1, 60841, Note_on_c, 1, 50, 0
1, 60859, Note_on_c, 0, 66, 0
1, 60859, Note_on_c, 0, 62, 0
1, 60864, Note_on_c, 1, 43, 73
1, 60866, Note_on_c, 0, 71, 76
1, 60866, Note_on_c, 0, 67, 76
1, 60903, Note_on_c, 1, 43, 0
1, 60955, Note_on_c, 0, 71, 0
1, 60955, Note_on_c, 0, 67, 0
1, 61058, Note_on_c, 0, 76, 78
1, 61058, Note_on_c, 0, 67, 78
1, 61147, Note_on_c, 0, 76, 0
1, 61147, Note_on_c, 0, 67, 0
1, 61152, Note_on_c, 1, 57, 73
1, 61154, Note_on_c, 0, 74, 77
1, 61154, Note_on_c, 0, 66, 77
1, 61243, Note_on_c, 0, 74, 0
1, 61243, Note_on_c, 0, 66, 0
1, 61250, Note_on_c, 0, 73, 76
1, 61250, Note_on_c, 0, 64, 76
1, 61339, Note_on_c, 0, 73, 0
1, 61339, Note_on_c, 0, 64, 0
1, 61344, Note_on_c, 1, 57, 0
1, 61344, Note_on_c, 1, 59, 73
1, 61346, Note_on_c, 0, 71, 75
1, 61346, Note_on_c, 0, 62, 75
1, 61433, Note_on_c, 1, 59, 0
1, 61435, Note_on_c, 0, 71, 0
1, 61435, Note_on_c, 0, 62, 0
1, 61440, Note_on_c, 1, 61, 73
1, 61442, Note_on_c, 0, 69, 74
1, 61442, Note_on_c, 0, 64, 74
1, 61529, Note_on_c, 1, 61, 0
1, 61531, Note_on_c, 0, 69, 0
1, 61531, Note_on_c, 0, 64, 0
1, 61634, Note_on_c, 0, 69, 73
1, 61634, Note_on_c, 0, 66, 73
1, 61728, Note_on_c, 1, 50, 73
1, 61819, Note_on_c, 0, 69, 0
1, 61819, Note_on_c, 0, 66, 0
1, 61826, Note_on_c, 0, 67, 74
1, 61826, Note_on_c, 0, 64, 74
1, 61915, Note_on_c, 0, 67, 0
1, 61915, Note_on_c, 0, 64, 0
1, 61922, Note_on_c, 0, 66, 75
1, 61922, Note_on_c, 0, 62, 75
1, 61993, Note_on_c, 1, 50, 0
1, 62011, Note_on_c, 0, 66, 0
1, 62011, Note_on_c, 0, 62, 0
1, 62016, Note_on_c, 1, 43, 73
1, 62018, Note_on_c, 0, 71, 76
1, 62018, Note_on_c, 0, 67, 76
1, 62055, Note_on_c, 1, 43, 0
1, 62107, Note_on_c, 0, 71, 0
1, 62107, Note_on_c, 0, 67, 0
1, 62210, Note_on_c, 0, 67, 76
1, 62210, Note_on_c, 0, 64, 76
1, 62304, Note_on_c, 1, 45, 73
1, 62395, Note_on_c, 0, 67, 0
1, 62395, Note_on_c, 0, 64, 0
1, 62402, Note_on_c, 0, 66, 74
1, 62402, Note_on_c, 0, 62, 74
1, 62491, Note_on_c, 0, 66, 0
1, 62491, Note_on_c, 0, 62, 0
1, 62498, Note_on_c, 0, 64, 73
1, 62498, Note_on_c, 0, 61, 73
1, 62498, Note_on_c, 0, 55, 73
1, 62569, Note_on_c, 1, 45, 0
1, 62587, Note_on_c, 0, 64, 0
1, 62587, Note_on_c, 0, 61, 0
1, 62587, Note_on_c, 0, 55, 0
1, 62592, Note_on_c, 1, 47, 73
1, 62592, Note_on_c, 1, 35, 73
1, 62594, Tempo, 400000
1, 62594, Note_on_c, 0, 62, 73
1, 62594, Note_on_c, 0, 56, 73
1, 62594, Note_on_c, 0, 53, 73
1, 63057, Note_on_c, 1, 47, 0
1, 63057, Note_on_c, 1, 35, 0
1, 63059, Note_on_c, 0, 62, 0
1, 63059, Note_on_c, 0, 56, 0
1, 63059, Note_on_c, 0, 53, 0
1, 63072, Note_on_c, 1, 33, 73
1, 63074, Tempo, 300000
1, 63074, Note_on_c, 0, 61, 73
1, 63074, Note_on_c, 0, 55, 73
1, 63161, Note_on_c, 1, 33, 0
1, 63168, Note_on_c, 1, 45, 73
1, 63259, Note_on_c, 0, 61, 0
1, 63259, Note_on_c, 0, 55, 0
1, 63266, Note_on_c, 0, 62, 74
1, 63266, Note_on_c, 0, 54, 74
1, 63345, Note_on_c, 1, 45, 0
1, 63355, Note_on_c, 0, 62, 0
1, 63355, Note_on_c, 0, 54, 0
1, 63360, Note_on_c, 1, 33, 75
1, 63362, Note_on_c, 0, 67, 75
1, 63362, Note_on_c, 0, 61, 75
1, 63449, Note_on_c, 1, 33, 0
1, 63456, Note_on_c, 1, 45, 76
1, 63547, Note_on_c, 0, 67, 0
1, 63547, Note_on_c, 0, 61, 0
1, 63554, Note_on_c, 0, 66, 77
1, 63554, Note_on_c, 0, 62, 77
1, 63633, Note_on_c, 1, 45, 0
1, 63643, Note_on_c, 0, 66, 0
1, 63643, Note_on_c, 0, 62, 0
1, 63648, Note_on_c, 1, 33, 78
1, 63650, Note_on_c, 0, 73, 78
1, 63650, Note_on_c, 0, 67, 78
1, 63737, Note_on_c, 1, 33, 0
1, 63744, Note_on_c, 1, 45, 79
1, 63835, Note_on_c, 0, 73, 0
1, 63835, Note_on_c, 0, 67, 0
1, 63842, Note_on_c, 0, 74, 80
1, 63842, Note_on_c, 0, 66, 80
1, 63921, Note_on_c, 1, 45, 0
1, 63931, Note_on_c, 0, 74, 0
1, 63931, Note_on_c, 0, 66, 0
1, 63936, Note_on_c, 1, 33, 81
1, 63938, Note_on_c, 0, 79, 81
1, 63938, Note_on_c, 0, 73, 81
1, 64025, Note_on_c, 1, 33, 0
1, 64032, Note_on_c, 1, 35, 82
1, 64034, Note_on_c, 0, 73, 0
1, 64034, Note_on_c, 0, 76, 82
1, 64123, Note_on_c, 0, 79, 0
1, 64123, Note_on_c, 0, 76, 0
1, 64128, Note_on_c, 1, 47, 78
1, 64130, Note_on_c, 0, 78, 83
1, 64130, Note_on_c, 0, 74, 83
1, 64217, Note_on_c, 1, 47, 0
1, 64219, Note_on_c, 0, 78, 0
1, 64219, Note_on_c, 0, 74, 0
1, 64224, Note_on_c, 1, 47, 78
1, 64226, Note_on_c, 0, 78, 84
1, 64226, Note_on_c, 0, 74, 84
1, 64297, Note_on_c, 1, 35, 0
1, 64313, Note_on_c, 1, 47, 0
1, 64315, Note_on_c, 0, 78, 0
1, 64315, Note_on_c, 0, 74, 0
1, 64320, Note_on_c, 1, 47, 86
1, 64320, Note_on_c, 1, 35, 86
1, 64322, Tempo, 387096
1, 64322, Note_on_c, 0, 86, 86
1, 64322, Note_on_c, 0, 78, 86
1, 64322, Note_on_c, 0, 74, 86
1, 64785, Note_on_c, 1, 47, 0
1, 64785, Note_on_c, 1, 35, 0
1, 64787, Note_on_c, 0, 86, 0
1, 64787, Note_on_c, 0, 78, 0
1, 64787, Note_on_c, 0, 74, 0
1, 64800, Note_on_c, 1, 66, 73
1, 64802, Tempo, 300000
1, 64802, Note_on_c, 0, 84, 73
1, 64802, Note_on_c, 0, 81, 73
1, 64889, Note_on_c, 1, 66, 0
1, 64896, Note_on_c, 1, 67, 73
1, 64987, Note_on_c, 0, 84, 0
1, 64987, Note_on_c, 0, 81, 0
1, 64994, Note_on_c, 0, 83, 73
1, 64994, Note_on_c, 0, 79, 73
1, 65073, Note_on_c, 1, 67, 0
1, 65083, Note_on_c, 0, 83, 0
1, 65083, Note_on_c, 0, 79, 0
1, 65088, Note_on_c, 1, 63, 73
1, 65090, Note_on_c, 0, 81, 73
1, 65090, Note_on_c, 0, 78, 73
1, 65177, Note_on_c, 1, 63, 0
1, 65184, Note_on_c, 1, 64, 73
1, 65273, Note_on_c, 1, 64, 0
1, 65275, Note_on_c, 0, 81, 0
1, 65275, Note_on_c, 0, 78, 0
1, 65280, Note_on_c, 1, 61, 73
1, 65282, Note_on_c, 0, 79, 73
1, 65282, Note_on_c, 0, 76, 73
1, 65369, Note_on_c, 1, 61, 0
1, 65371, Note_on_c, 0, 79, 0
1, 65371, Note_on_c, 0, 76, 0
1, 65376, Note_on_c, 1, 62, 73
1, 65378, Note_on_c, 0, 78, 73
1, 65378, Note_on_c, 0, 74, 73
1, 65465, Note_on_c, 1, 62, 0
1, 65467, Note_on_c, 0, 78, 0
1, 65467, Note_on_c, 0, 74, 0
1, 65472, Note_on_c, 1, 67, 73
1, 65472, Note_on_c, 1, 55, 73
1, 65474, Note_on_c, 0, 76, 73
1, 65486, Note_on_c, 0, 76, 0
1, 65486, Note_on_c, 0, 78, 73
1, 65498, Note_on_c, 0, 78, 0
1, 65498, Note_on_c, 0, 76, 73
1, 65561, Note_on_c, 1, 67, 0
1, 65561, Note_on_c, 1, 55, 0
1, 65563, Note_on_c, 0, 76, 0
1, 65568, Note_on_c, 1, 66, 73
1, 65568, Note_on_c, 1, 57, 73
1, 65570, Note_on_c, 0, 74, 73
1, 65657, Note_on_c, 1, 66, 0
1, 65657, Note_on_c, 1, 57, 0
1, 65659, Note_on_c, 0, 74, 0
1, 65664, Note_on_c, 1, 64, 73
1, 65664, Note_on_c, 1, 57, 73
1, 65666, Note_on_c, 0, 73, 73
1, 65666, Note_on_c, 0, 67, 73
1, 65753, Note_on_c, 1, 64, 0
1, 65753, Note_on_c, 1, 57, 0
1, 65755, Note_on_c, 0, 73, 0
1, 65755, Note_on_c, 0, 67, 0
1, 65760, Note_on_c, 1, 62, 73
1, 65760, Note_on_c, 1, 59, 73
1, 65762, Note_on_c, 0, 74, 73
1, 65762, Note_on_c, 0, 66, 73
1, 65854, Note_on_c, 1, 62, 0
1, 65854, Note_on_c, 1, 59, 0
1, 65856, Note_on_c, 0, 74, 0
1, 65856, Note_on_c, 0, 66, 0
1, 65858, Tempo, 545454
1, 65952, Note_on_c, 1, 56, 73
1, 65952, Note_on_c, 1, 50, 73
1, 65954, Tempo, 300000
1, 66050, Note_on_c, 0, 77, 71
1, 66137, Note_on_c, 1, 56, 0
1, 66137, Note_on_c, 1, 50, 0
1, 66144, Note_on_c, 1, 57, 70
1, 66144, Note_on_c, 1, 49, 70
1, 66146, Note_on_c, 0, 77, 0
1, 66146, Note_on_c, 0, 76, 70
1, 66233, Note_on_c, 1, 57, 0
1, 66233, Note_on_c, 1, 49, 0
1, 66235, Note_on_c, 0, 76, 0
1, 66240, Note_on_c, 1, 62, 68
1, 66240, Note_on_c, 1, 56, 68
1, 66338, Note_on_c, 0, 77, 67
1, 66425, Note_on_c, 1, 62, 0
1, 66425, Note_on_c, 1, 56, 0
1, 66432, Note_on_c, 1, 61, 65
1, 66432, Note_on_c, 1, 57, 65
1, 66434, Note_on_c, 0, 77, 0
1, 66434, Note_on_c, 0, 76, 65
1, 66521, Note_on_c, 1, 61, 0
1, 66521, Note_on_c, 1, 57, 0
1, 66523, Note_on_c, 0, 76, 0
1, 66528, Note_on_c, 1, 68, 64
1, 66528, Note_on_c, 1, 62, 64
1, 66626, Note_on_c, 0, 77, 62
1, 66713, Note_on_c, 1, 68, 0
1, 66713, Note_on_c, 1, 62, 0
1, 66720, Note_on_c, 1, 69, 61
1, 66720, Note_on_c, 1, 61, 61
1, 66722, Note_on_c, 0, 77, 0
1, 66722, Note_on_c, 0, 76, 61
1, 66809, Note_on_c, 1, 69, 0
1, 66809, Note_on_c, 1, 61, 0
1, 66811, Note_on_c, 0, 76, 0
1, 66816, Note_on_c, 1, 74, 59
1, 66816, Note_on_c, 1, 68, 59
1, 66914, Note_on_c, 0, 77, 58
1, 67001, Note_on_c, 1, 74, 0
1, 67001, Note_on_c, 1, 68, 0
1, 67008, Note_on_c, 1, 73, 56
1, 67008, Note_on_c, 1, 69, 56
1, 67010, Note_on_c, 0, 77, 0
1, 67010, Note_on_c, 0, 76, 56
1, 67097, Note_on_c, 1, 73, 0
1, 67097, Note_on_c, 1, 69, 0
1, 67099, Note_on_c, 0, 76, 0
1, 67394, Note_on_c, 0, 69, 78
1, 67424, Note_on_c, 0, 69, 0
1, 67426, Note_on_c, 0, 74, 78
1, 67456, Note_on_c, 0, 74, 0
1, 67458, Note_on_c, 0, 78, 78
1, 67488, Note_on_c, 0, 78, 0
1, 67488, Note_on_c, 1, 62, 78
1, 67488, Note_on_c, 1, 54, 78
1, 67490, Note_on_c, 0, 81, 78
1, 67577, Note_on_c, 1, 62, 0
1, 67577, Note_on_c, 1, 54, 0
1, 67579, Note_on_c, 0, 81, 0
1, 67584, Note_on_c, 1, 61, 78
1, 67584, Note_on_c, 1, 52, 78
1, 67586, Note_on_c, 0, 69, 78
1, 67598, Note_on_c, 0, 73, 78
1, 67610, Note_on_c, 0, 76, 78
1, 67622, Note_on_c, 0, 79, 78
1, 67673, Note_on_c, 1, 61, 0
1, 67673, Note_on_c, 1, 52, 0
1, 67675, Note_on_c, 0, 79, 0
1, 67675, Note_on_c, 0, 76, 0
1, 67675, Note_on_c, 0, 73, 0
1, 67675, Note_on_c, 0, 69, 0
1, 67680, Note_on_c, 1, 62, 78
1, 67680, Note_on_c, 1, 50, 78
1, 67682, Note_on_c, 0, 69, 78
1, 67698, Note_on_c, 0, 74, 78
1, 67714, Note_on_c, 0, 78, 78
1, 67769, Note_on_c, 1, 62, 0
1, 67769, Note_on_c, 1, 50, 0
1, 67771, Note_on_c, 0, 78, 0
1, 67771, Note_on_c, 0, 74, 0
1, 67771, Note_on_c, 0, 69, 0
1, 67776, Note_on_c, 1, 55, 78
1, 67778, Note_on_c, 0, 71, 78
1, 67788, Note_on_c, 1, 59, 78
1, 67794, Note_on_c, 0, 79, 78
1, 67800, Note_on_c, 1, 62, 78
1, 67810, Note_on_c, 0, 83, 78
1, 67812, Note_on_c, 1, 67, 78
1, 67865, Note_on_c, 1, 67, 0
1, 67865, Note_on_c, 1, 62, 0
1, 67865, Note_on_c, 1, 59, 0
1, 67865, Note_on_c, 1, 55, 0
1, 67867, Note_on_c, 0, 83, 0
1, 67867, Note_on_c, 0, 79, 0
1, 67867, Note_on_c, 0, 71, 0
1, 67874, Tempo, 461538
1, 67970, Tempo, 300000
1, 67970, Note_on_c, 0, 76, 73
1, 67970, Note_on_c, 0, 67, 73
1, 68059, Note_on_c, 0, 76, 0
1, 68059, Note_on_c, 0, 67, 0
1, 68064, Note_on_c, 1, 57, 73
1, 68066, Note_on_c, 0, 74, 73
1, 68066, Note_on_c, 0, 66, 73
1, 68155, Note_on_c, 0, 74, 0
1, 68155, Note_on_c, 0, 66, 0
1, 68162, Note_on_c, 0, 73, 73
1, 68162, Note_on_c, 0, 64, 73
1, 68241, Note_on_c, 1, 57, 0
1, 68251, Note_on_c, 0, 73, 0
1, 68251, Note_on_c, 0, 64, 0
1, 68256, Note_on_c, 1, 59, 73
1, 68258, Note_on_c, 0, 71, 73
1, 68258, Note_on_c, 0, 62, 73
1, 68345, Note_on_c, 1, 59, 0
1, 68347, Note_on_c, 0, 71, 0
1, 68347, Note_on_c, 0, 62, 0
1, 68352, Note_on_c, 1, 61, 73
1, 68354, Note_on_c, 0, 69, 73
1, 68354, Note_on_c, 0, 64, 73
1, 68441, Note_on_c, 1, 61, 0
1, 68443, Note_on_c, 0, 69, 0
1, 68443, Note_on_c, 0, 64, 0
1, 68498, Note_on_c, 0, 69, 67
1, 68543, Note_on_c, 0, 69, 0
1, 68546, Note_on_c, 0, 74, 66
1, 68591, Note_on_c, 0, 74, 0
1, 68594, Note_on_c, 0, 78, 65
1, 68639, Note_on_c, 0, 78, 0
1, 68640, Note_on_c, 1, 66, 65
1, 68679, Note_on_c, 1, 66, 0
1, 68690, Note_on_c, 0, 69, 64
1, 68735, Note_on_c, 0, 69, 0
1, 68736, Note_on_c, 1, 64, 64
1, 68775, Note_on_c, 1, 64, 0
1, 68786, Note_on_c, 0, 67, 62
1, 68831, Note_on_c, 0, 67, 0
1, 68832, Note_on_c, 1, 62, 62
1, 68871, Note_on_c, 1, 62, 0
1, 68882, Note_on_c, 0, 66, 61
1, 68927, Note_on_c, 0, 66, 0
1, 68928, Note_on_c, 1, 59, 61
1, 68928, Note_on_c, 1, 55, 61
1, 68978, Note_on_c, 0, 64, 59
1, 69017, Note_on_c, 1, 59, 0
1, 69017, Note_on_c, 1, 55, 0
1, 69023, Note_on_c, 0, 64, 0
1, 69026, Note_on_c, 0, 63, 59
1, 69071, Note_on_c, 0, 63, 0
1, 69074, Note_on_c, 0, 64, 58
1, 69119, Note_on_c, 0, 64, 0
1, 69122, Note_on_c, 0, 67, 57
1, 69167, Note_on_c, 0, 67, 0
1, 69170, Note_on_c, 0, 71, 57
1, 69215, Note_on_c, 0, 71, 0
1, 69218, Note_on_c, 0, 69, 56
1, 69218, Note_on_c, 0, 66, 56
1, 69307, Note_on_c, 0, 69, 0
1, 69307, Note_on_c, 0, 66, 0
1, 69408, Note_on_c, 1, 55, 78
1, 69408, Note_on_c, 1, 52, 78
1, 69408, Note_on_c, 1, 45, 78
1, 69410, Note_on_c, 0, 61, 78
1, 69410, Note_on_c, 0, 57, 78
1, 69447, Note_on_c, 1, 55, 0
1, 69447, Note_on_c, 1, 52, 0
1, 69447, Note_on_c, 1, 45, 0
1, 69449, Note_on_c, 0, 61, 0
1, 69449, Note_on_c, 0, 57, 0
1, 69504, Note_on_c, 1, 54, 78
1, 69504, Note_on_c, 1, 50, 78
1, 69504, Note_on_c, 1, 38, 78
1, 69506, Note_on_c, 0, 62, 78
1, 69506, Note_on_c, 0, 57, 78
1, 69593, Note_on_c, 1, 54, 0
1, 69593, Note_on_c, 1, 50, 0
1, 69593, Note_on_c, 1, 38, 0
1, 69595, Note_on_c, 0, 62, 0
1, 69595, Note_on_c, 0, 57, 0
1, 69792, Note_on_c, 1, 38, 0
1, 69881, Note_on_c, 1, 38, 0
1, 69891, End_track
0, 0, End_of_file