0, 0, Header, 0, 1, 96
1, 0, Start_track
1, 0, Tempo, 1000000
1, 0, Note_on_c, 1, 61, 61
1, 0, Note_on_c, 1, 61, 61
1, 45, Note_on_c, 1, 61, 0
1, 48, Note_on_c, 1, 65, 61
1, 93, Note_on_c, 1, 65, 0
1, 96, Note_on_c, 1, 68, 61
1, 141, Note_on_c, 1, 68, 0
1, 144, Note_on_c, 1, 73, 61
1, 189, Note_on_c, 1, 73, 0
1, 192, Note_on_c, 1, 72, 61
1, 237, Note_on_c, 1, 72, 0
1, 240, Note_on_c, 1, 70, 61
1, 265, Note_on_c, 1, 61, 0
1, 288, Note_on_c, 1, 60, 61
1, 333, Note_on_c, 1, 70, 0
1, 336, Note_on_c, 1, 67, 61
1, 381, Note_on_c, 1, 67, 0
1, 384, Note_on_c, 1, 68, 61
1, 429, Note_on_c, 1, 68, 0
1, 432, Note_on_c, 1, 63, 61
1, 477, Note_on_c, 1, 63, 0
1, 480, Note_on_c, 1, 65, 61
1, 525, Note_on_c, 1, 65, 0
1, 528, Note_on_c, 1, 66, 61
1, 553, Note_on_c, 1, 60, 0
1, 576, Note_on_c, 1, 61, 61
1, 621, Note_on_c, 1, 66, 0
1, 624, Note_on_c, 1, 65, 61
1, 665, Note_on_c, 1, 61, 0
1, 672, Note_on_c, 1, 54, 61
1, 713, Note_on_c, 1, 65, 0
1, 720, Note_on_c, 1, 63, 61
1, 761, Note_on_c, 1, 54, 0
1, 765, Note_on_c, 1, 63, 0
1, 768, Note_on_c, 1, 61, 61
1, 768, Note_on_c, 1, 56, 61
1, 774, Note_on_c, 1, 61, 0
1, 774, Note_on_c, 1, 63, 61
1, 780, Note_on_c, 1, 63, 0
1, 780, Note_on_c, 1, 61, 61
1, 815, Note_on_c, 1, 61, 0
1, 816, Note_on_c, 1, 60, 61
1, 857, Note_on_c, 1, 56, 0
1, 861, Note_on_c, 1, 60, 0
1, 864, Note_on_c, 1, 61, 61
1, 864, Note_on_c, 1, 61, 61
1, 909, Note_on_c, 1, 61, 0
1, 912, Note_on_c, 1, 49, 61
1, 957, Note_on_c, 1, 49, 0
1, 960, Note_on_c, 1, 53, 61
1, 1005, Note_on_c, 1, 53, 0
1, 1008, Note_on_c, 1, 56, 61
1, 1053, Note_on_c, 1, 56, 0
1, 1056, Note_on_c, 1, 49, 61
1, 1129, Note_on_c, 1, 61, 0
1, 1145, Note_on_c, 1, 49, 0
1, 1152, Note_on_c, 1, 61, 61
1, 1152, Note_on_c, 1, 61, 61
1, 1197, Note_on_c, 1, 61, 0
1, 1200, Note_on_c, 1, 65, 61
1, 1245, Note_on_c, 1, 65, 0
1, 1248, Note_on_c, 1, 68, 61
1, 1293, Note_on_c, 1, 68, 0
1, 1296, Note_on_c, 0, 82, 61
1, 1296, Note_on_c, 1, 73, 61
1, 1329, Note_on_c, 1, 61, 0
1, 1341, Note_on_c, 0, 82, 0
1, 1341, Note_on_c, 1, 73, 0
1, 1344, Note_on_c, 0, 80, 61
1, 1344, Note_on_c, 1, 72, 61
1, 1344, Note_on_c, 1, 63, 61
1, 1350, Note_on_c, 0, 80, 0
1, 1350, Note_on_c, 0, 82, 61
1, 1356, Note_on_c, 0, 82, 0
1, 1356, Note_on_c, 0, 80, 61
1, 1389, Note_on_c, 1, 72, 0
1, 1391, Note_on_c, 0, 80, 0
1, 1392, Note_on_c, 0, 79, 61
1, 1392, Note_on_c, 1, 70, 61
1, 1433, Note_on_c, 1, 63, 0
1, 1440, Note_on_c, 1, 60, 61
1, 1485, Note_on_c, 0, 79, 0
1, 1485, Note_on_c, 1, 70, 0
1, 1488, Note_on_c, 0, 82, 61
1, 1488, Note_on_c, 1, 67, 61
1, 1533, Note_on_c, 0, 82, 0
1, 1533, Note_on_c, 1, 67, 0
1, 1536, Note_on_c, 0, 80, 61
1, 1536, Note_on_c, 1, 68, 61
1, 1581, Note_on_c, 1, 68, 0
1, 1584, Note_on_c, 1, 63, 61
1, 1625, Note_on_c, 0, 80, 0
1, 1629, Note_on_c, 1, 63, 0
1, 1632, Note_on_c, 0, 75, 61
1, 1632, Note_on_c, 1, 65, 61
1, 1677, Note_on_c, 1, 65, 0
1, 1680, Note_on_c, 1, 66, 61
1, 1705, Note_on_c, 1, 60, 0
1, 1728, Note_on_c, 1, 61, 61
1, 1773, Note_on_c, 0, 75, 0
1, 1773, Note_on_c, 1, 66, 0
1, 1776, Note_on_c, 0, 73, 61
1, 1776, Note_on_c, 1, 65, 61
1, 1817, Note_on_c, 1, 61, 0
1, 1821, Note_on_c, 0, 73, 0
1, 1824, Note_on_c, 0, 82, 77
1, 1824, Note_on_c, 1, 54, 61
1, 1865, Note_on_c, 1, 65, 0
1, 1872, Note_on_c, 1, 63, 61
1, 1896, Note_on_c, 0, 82, 0
1, 1896, Note_on_c, 0, 80, 61
1, 1908, Note_on_c, 0, 80, 0
1, 1908, Note_on_c, 0, 78, 61
1, 1913, Note_on_c, 1, 54, 0
1, 1917, Note_on_c, 1, 63, 0
1, 1920, Note_on_c, 0, 78, 0
1, 1920, Note_on_c, 0, 77, 61
1, 1920, Note_on_c, 1, 61, 61
1, 1920, Note_on_c, 1, 56, 61
1, 1965, Note_on_c, 0, 77, 0
1, 1965, Note_on_c, 1, 61, 0
1, 1968, Note_on_c, 0, 80, 61
1, 1968, Note_on_c, 1, 60, 61
1, 1983, Note_on_c, 0, 80, 0
1, 1984, Note_on_c, 0, 78, 61
1, 1999, Note_on_c, 0, 78, 0
1, 2000, Note_on_c, 0, 75, 61
1, 2009, Note_on_c, 1, 56, 0
1, 2013, Note_on_c, 1, 60, 0
1, 2015, Note_on_c, 0, 75, 0
1, 2016, Note_on_c, 0, 75, 61
1, 2016, Note_on_c, 0, 72, 64
1, 2016, Note_on_c, 1, 61, 61
1, 2016, Note_on_c, 1, 61, 61
1, 2064, Note_on_c, 0, 75, 0
1, 2064, Note_on_c, 0, 76, 57
1, 2105, Note_on_c, 0, 72, 0
1, 2109, Note_on_c, 0, 76, 0
1, 2112, Note_on_c, 0, 77, 53
1, 2112, Note_on_c, 0, 73, 53
1, 2149, Note_on_c, 1, 61, 0
1, 2149, Note_on_c, 1, 61, 0
1, 2160, Note_on_c, 1, 49, 61
1, 2201, Note_on_c, 0, 77, 0
1, 2201, Note_on_c, 0, 73, 0
1, 2205, Note_on_c, 1, 49, 0
1, 2208, Note_on_c, 1, 53, 63
1, 2253, Note_on_c, 1, 53, 0
1, 2256, Note_on_c, 1, 56, 66
1, 2301, Note_on_c, 1, 56, 0
1, 2304, Note_on_c, 1, 61, 61
1, 2352, Note_on_c, 0, 89, 61
1, 2352, Note_on_c, 1, 65, 61
1, 2397, Note_on_c, 0, 89, 0
1, 2397, Note_on_c, 1, 65, 0
1, 2400, Note_on_c, 0, 85, 63
1, 2400, Note_on_c, 1, 69, 63
1, 2406, Note_on_c, 0, 85, 0
1, 2406, Note_on_c, 0, 84, 63
1, 2412, Note_on_c, 0, 84, 0
1, 2412, Note_on_c, 0, 82, 63
1, 2418, Note_on_c, 0, 82, 0
1, 2418, Note_on_c, 0, 84, 63
1, 2445, Note_on_c, 0, 84, 0
1, 2445, Note_on_c, 1, 69, 0
1, 2448, Note_on_c, 0, 85, 66
1, 2448, Note_on_c, 1, 70, 66
1, 2493, Note_on_c, 0, 85, 0
1, 2493, Note_on_c, 1, 70, 0
1, 2496, Note_on_c, 0, 82, 69
1, 2496, Note_on_c, 1, 72, 69
1, 2502, Note_on_c, 0, 82, 0
1, 2502, Note_on_c, 0, 81, 69
1, 2508, Note_on_c, 0, 81, 0
1, 2508, Note_on_c, 0, 79, 69
1, 2514, Note_on_c, 0, 79, 0
1, 2514, Note_on_c, 0, 81, 69
1, 2541, Note_on_c, 0, 81, 0
1, 2541, Note_on_c, 1, 72, 0
1, 2544, Note_on_c, 0, 82, 72
1, 2544, Note_on_c, 1, 73, 72
1, 2569, Note_on_c, 1, 61, 0
1, 2589, Note_on_c, 0, 82, 0
1, 2589, Note_on_c, 1, 73, 0
1, 2592, Note_on_c, 1, 60, 61
1, 2640, Note_on_c, 0, 87, 61
1, 2640, Note_on_c, 1, 63, 63
1, 2685, Note_on_c, 0, 87, 0
1, 2685, Note_on_c, 1, 63, 0
1, 2688, Note_on_c, 0, 84, 63
1, 2688, Note_on_c, 1, 67, 65
1, 2694, Note_on_c, 0, 84, 0
1, 2694, Note_on_c, 0, 82, 63
1, 2700, Note_on_c, 0, 82, 0
1, 2700, Note_on_c, 0, 80, 63
1, 2706, Note_on_c, 0, 80, 0
1, 2706, Note_on_c, 0, 82, 63
1, 2733, Note_on_c, 0, 82, 0
1, 2733, Note_on_c, 1, 67, 0
1, 2736, Note_on_c, 0, 84, 66
1, 2736, Note_on_c, 1, 68, 68
1, 2781, Note_on_c, 0, 84, 0
1, 2781, Note_on_c, 1, 68, 0
1, 2784, Note_on_c, 0, 80, 69
1, 2784, Note_on_c, 1, 70, 70
1, 2790, Note_on_c, 0, 80, 0
1, 2790, Note_on_c, 0, 79, 69
1, 2796, Note_on_c, 0, 79, 0
1, 2796, Note_on_c, 0, 77, 69
1, 2802, Note_on_c, 0, 77, 0
1, 2802, Note_on_c, 0, 79, 69
1, 2829, Note_on_c, 0, 79, 0
1, 2829, Note_on_c, 1, 70, 0
1, 2832, Note_on_c, 0, 80, 72
1, 2832, Note_on_c, 1, 72, 72
1, 2857, Note_on_c, 1, 60, 0
1, 2877, Note_on_c, 0, 80, 0
1, 2877, Note_on_c, 1, 72, 0
1, 2880, Note_on_c, 1, 58, 61
1, 2928, Note_on_c, 0, 85, 75
1, 2928, Note_on_c, 1, 61, 75
1, 2973, Note_on_c, 1, 61, 0
1, 2976, Note_on_c, 1, 65, 76
1, 3017, Note_on_c, 0, 85, 0
1, 3021, Note_on_c, 1, 65, 0
1, 3024, Note_on_c, 0, 84, 71
1, 3024, Note_on_c, 1, 69, 77
1, 3057, Note_on_c, 1, 58, 0
1, 3069, Note_on_c, 0, 84, 0
1, 3069, Note_on_c, 1, 69, 0
1, 3072, Note_on_c, 0, 82, 70
1, 3072, Note_on_c, 1, 70, 78
1, 3072, Note_on_c, 1, 61, 61
1, 3117, Note_on_c, 0, 82, 0
1, 3117, Note_on_c, 1, 61, 0
1, 3120, Note_on_c, 0, 80, 68
1, 3120, Note_on_c, 1, 62, 61
1, 3126, Note_on_c, 0, 80, 0
1, 3126, Note_on_c, 0, 82, 68
1, 3132, Note_on_c, 0, 82, 0
1, 3132, Note_on_c, 0, 80, 68
1, 3165, Note_on_c, 1, 62, 0
1, 3167, Note_on_c, 0, 80, 0
1, 3168, Note_on_c, 0, 79, 67
1, 3168, Note_on_c, 1, 63, 61
1, 3213, Note_on_c, 0, 79, 0
1, 3213, Note_on_c, 1, 70, 0
1, 3216, Note_on_c, 0, 77, 65
1, 3216, Note_on_c, 1, 68, 82
1, 3223, Note_on_c, 0, 77, 0
1, 3223, Note_on_c, 0, 79, 65
1, 3230, Note_on_c, 0, 79, 0
1, 3230, Note_on_c, 0, 77, 65
1, 3237, Note_on_c, 0, 77, 0
1, 3237, Note_on_c, 0, 79, 65
1, 3244, Note_on_c, 0, 79, 0
1, 3244, Note_on_c, 0, 77, 64
1, 3251, Note_on_c, 0, 77, 0
1, 3251, Note_on_c, 0, 75, 64
1, 3258, Note_on_c, 0, 75, 0
1, 3258, Note_on_c, 0, 77, 64
1, 3261, Note_on_c, 1, 68, 0
1, 3264, Note_on_c, 0, 77, 0
1, 3264, Note_on_c, 0, 75, 64
1, 3264, Note_on_c, 1, 67, 84
1, 3301, Note_on_c, 1, 63, 0
1, 3309, Note_on_c, 1, 67, 0
1, 3312, Note_on_c, 1, 65, 78
1, 3312, Note_on_c, 1, 61, 78
1, 3353, Note_on_c, 0, 75, 0
1, 3357, Note_on_c, 1, 65, 0
1, 3357, Note_on_c, 1, 61, 0
1, 3360, Note_on_c, 1, 63, 72
1, 3360, Note_on_c, 1, 60, 72
1, 3405, Note_on_c, 1, 63, 0
1, 3405, Note_on_c, 1, 60, 0
1, 3408, Note_on_c, 1, 61, 66
1, 3408, Note_on_c, 1, 58, 66
1, 3453, Note_on_c, 1, 61, 0
1, 3453, Note_on_c, 1, 58, 0
1, 3456, Note_on_c, 1, 60, 61
1, 3456, Note_on_c, 1, 56, 61
1, 3480, Note_on_c, 0, 75, 61
1, 3490, Note_on_c, 0, 75, 0
1, 3504, Note_on_c, 0, 77, 61
1, 3511, Note_on_c, 0, 77, 0
1, 3511, Note_on_c, 0, 75, 61
1, 3518, Note_on_c, 0, 75, 0
1, 3518, Note_on_c, 0, 77, 61
1, 3525, Note_on_c, 0, 77, 0
1, 3525, Note_on_c, 0, 75, 61
1, 3532, Note_on_c, 0, 75, 0
1, 3532, Note_on_c, 0, 74, 61
1, 3539, Note_on_c, 0, 74, 0
1, 3539, Note_on_c, 0, 75, 61
1, 3545, Note_on_c, 1, 60, 0
1, 3545, Note_on_c, 1, 56, 0
1, 3552, Note_on_c, 0, 75, 0
1, 3552, Note_on_c, 1, 68, 61
1, 3552, Note_on_c, 1, 60, 61
1, 3576, Note_on_c, 0, 75, 61
1, 3586, Note_on_c, 0, 75, 0
1, 3600, Note_on_c, 0, 77, 61
1, 3607, Note_on_c, 0, 77, 0
1, 3607, Note_on_c, 0, 75, 61
1, 3614, Note_on_c, 0, 75, 0
1, 3614, Note_on_c, 0, 77, 61
1, 3621, Note_on_c, 0, 77, 0
1, 3621, Note_on_c, 0, 75, 61
1, 3628, Note_on_c, 0, 75, 0
1, 3628, Note_on_c, 0, 74, 61
1, 3635, Note_on_c, 0, 74, 0
1, 3635, Note_on_c, 0, 75, 61
1, 3641, Note_on_c, 1, 68, 0
1, 3641, Note_on_c, 1, 60, 0
1, 3648, Note_on_c, 0, 75, 0
1, 3648, Note_on_c, 0, 84, 61
1, 3648, Note_on_c, 1, 60, 61
1, 3648, Note_on_c, 1, 56, 61
1, 3663, Note_on_c, 0, 84, 0
1, 3664, Note_on_c, 0, 82, 61
1, 3679, Note_on_c, 0, 82, 0
1, 3680, Note_on_c, 0, 80, 61
1, 3695, Note_on_c, 0, 80, 0
1, 3696, Note_on_c, 0, 79, 61
1, 3711, Note_on_c, 0, 79, 0
1, 3712, Note_on_c, 0, 77, 61
1, 3727, Note_on_c, 0, 77, 0
1, 3728, Note_on_c, 0, 75, 61
1, 3737, Note_on_c, 1, 60, 0
1, 3737, Note_on_c, 1, 56, 0
1, 3743, Note_on_c, 0, 75, 0
1, 3744, Note_on_c, 0, 75, 61
1, 3744, Note_on_c, 1, 58, 61
1, 3744, Note_on_c, 1, 58, 61
1, 3768, Note_on_c, 0, 68, 61
1, 3778, Note_on_c, 0, 68, 0
1, 3792, Note_on_c, 0, 70, 61
1, 3799, Note_on_c, 0, 70, 0
1, 3799, Note_on_c, 0, 68, 61
1, 3806, Note_on_c, 0, 68, 0
1, 3806, Note_on_c, 0, 70, 61
1, 3813, Note_on_c, 0, 70, 0
1, 3813, Note_on_c, 0, 68, 61
1, 3820, Note_on_c, 0, 68, 0
1, 3820, Note_on_c, 0, 67, 61
1, 3827, Note_on_c, 0, 67, 0
1, 3827, Note_on_c, 0, 68, 61
1, 3833, Note_on_c, 1, 58, 0
1, 3840, Note_on_c, 0, 75, 0
1, 3840, Note_on_c, 0, 74, 61
1, 3840, Note_on_c, 0, 68, 0
1, 3840, Note_on_c, 1, 65, 61
1, 3864, Note_on_c, 0, 68, 61
1, 3874, Note_on_c, 0, 68, 0
1, 3888, Note_on_c, 0, 70, 61
1, 3895, Note_on_c, 0, 70, 0
1, 3895, Note_on_c, 0, 68, 61
1, 3902, Note_on_c, 0, 68, 0
1, 3902, Note_on_c, 0, 70, 61
1, 3909, Note_on_c, 0, 70, 0
1, 3909, Note_on_c, 0, 68, 61
1, 3916, Note_on_c, 0, 68, 0
1, 3916, Note_on_c, 0, 67, 61
1, 3921, Note_on_c, 1, 58, 0
1, 3923, Note_on_c, 0, 67, 0
1, 3923, Note_on_c, 0, 68, 61
1, 3929, Note_on_c, 0, 74, 0
1, 3929, Note_on_c, 1, 65, 0
1, 3936, Note_on_c, 0, 68, 0
1, 3936, Note_on_c, 0, 77, 61
1, 3936, Note_on_c, 1, 58, 61
1, 3936, Note_on_c, 1, 50, 61
1, 3951, Note_on_c, 0, 77, 0
1, 3952, Note_on_c, 0, 75, 61
1, 3967, Note_on_c, 0, 75, 0
1, 3968, Note_on_c, 0, 74, 61
1, 3983, Note_on_c, 0, 74, 0
1, 3984, Note_on_c, 0, 72, 61
1, 3999, Note_on_c, 0, 72, 0
1, 4000, Note_on_c, 0, 70, 61
1, 4015, Note_on_c, 0, 70, 0
1, 4016, Note_on_c, 0, 68, 61
1, 4025, Note_on_c, 1, 50, 0
1, 4031, Note_on_c, 0, 68, 0
1, 4032, Note_on_c, 0, 68, 61
1, 4032, Note_on_c, 1, 51, 61
1, 4056, Note_on_c, 0, 73, 61
1, 4066, Note_on_c, 0, 73, 0
1, 4080, Note_on_c, 0, 75, 61
1, 4087, Note_on_c, 0, 75, 0
1, 4087, Note_on_c, 0, 73, 61
1, 4094, Note_on_c, 0, 73, 0
1, 4094, Note_on_c, 0, 75, 61
1, 4101, Note_on_c, 0, 75, 0
1, 4101, Note_on_c, 0, 73, 61
1, 4108, Note_on_c, 0, 73, 0
1, 4108, Note_on_c, 0, 72, 61
1, 4115, Note_on_c, 0, 72, 0
1, 4115, Note_on_c, 0, 73, 61
1, 4121, Note_on_c, 1, 58, 0
1, 4128, Note_on_c, 0, 73, 0
1, 4128, Note_on_c, 0, 68, 0
1, 4128, Note_on_c, 0, 67, 61
1, 4128, Note_on_c, 1, 63, 61
1, 4152, Note_on_c, 0, 73, 61
1, 4162, Note_on_c, 0, 73, 0
1, 4176, Note_on_c, 0, 75, 61
1, 4183, Note_on_c, 0, 75, 0
1, 4183, Note_on_c, 0, 73, 61
1, 4190, Note_on_c, 0, 73, 0
1, 4190, Note_on_c, 0, 75, 61
1, 4197, Note_on_c, 0, 75, 0
1, 4197, Note_on_c, 0, 73, 61
1, 4204, Note_on_c, 0, 73, 0
1, 4204, Note_on_c, 0, 72, 61
1, 4209, Note_on_c, 1, 51, 0
1, 4211, Note_on_c, 0, 72, 0
1, 4211, Note_on_c, 0, 73, 61
1, 4217, Note_on_c, 0, 67, 0
1, 4224, Note_on_c, 0, 73, 0
1, 4224, Note_on_c, 0, 82, 61
1, 4224, Note_on_c, 1, 55, 61
1, 4239, Note_on_c, 0, 82, 0
1, 4240, Note_on_c, 0, 80, 61
1, 4255, Note_on_c, 0, 80, 0
1, 4256, Note_on_c, 0, 79, 61
1, 4271, Note_on_c, 0, 79, 0
1, 4272, Note_on_c, 0, 77, 61
1, 4287, Note_on_c, 0, 77, 0
1, 4288, Note_on_c, 0, 75, 61
1, 4303, Note_on_c, 0, 75, 0
1, 4304, Note_on_c, 0, 73, 61
1, 4313, Note_on_c, 1, 55, 0
1, 4319, Note_on_c, 0, 73, 0
1, 4320, Note_on_c, 0, 73, 61
1, 4320, Note_on_c, 1, 56, 61
1, 4344, Note_on_c, 0, 66, 61
1, 4354, Note_on_c, 0, 66, 0
1, 4368, Note_on_c, 0, 68, 61
1, 4375, Note_on_c, 0, 68, 0
1, 4375, Note_on_c, 0, 66, 61
1, 4382, Note_on_c, 0, 66, 0
1, 4382, Note_on_c, 0, 68, 61
1, 4389, Note_on_c, 0, 68, 0
1, 4389, Note_on_c, 0, 66, 61
1, 4396, Note_on_c, 0, 66, 0
1, 4396, Note_on_c, 0, 65, 61
1, 4403, Note_on_c, 0, 65, 0
1, 4403, Note_on_c, 0, 66, 61
1, 4409, Note_on_c, 1, 63, 0
1, 4416, Note_on_c, 0, 73, 0
1, 4416, Note_on_c, 0, 72, 61
1, 4416, Note_on_c, 0, 66, 0
1, 4416, Note_on_c, 1, 63, 61
1, 4440, Note_on_c, 0, 66, 61
1, 4450, Note_on_c, 0, 66, 0
1, 4464, Note_on_c, 0, 68, 61
1, 4471, Note_on_c, 0, 68, 0
1, 4471, Note_on_c, 0, 66, 61
1, 4478, Note_on_c, 0, 66, 0
1, 4478, Note_on_c, 0, 68, 61
1, 4485, Note_on_c, 0, 68, 0
1, 4485, Note_on_c, 0, 66, 61
1, 4492, Note_on_c, 0, 66, 0
1, 4492, Note_on_c, 0, 65, 61
1, 4497, Note_on_c, 1, 56, 0
1, 4499, Note_on_c, 0, 65, 0
1, 4499, Note_on_c, 0, 66, 61
1, 4505, Note_on_c, 0, 72, 0
1, 4505, Note_on_c, 1, 63, 0
1, 4512, Note_on_c, 0, 75, 61
1, 4512, Note_on_c, 0, 66, 0
1, 4512, Note_on_c, 0, 75, 61
1, 4512, Note_on_c, 1, 56, 61
1, 4512, Note_on_c, 1, 48, 61
1, 4527, Note_on_c, 0, 75, 0
1, 4528, Note_on_c, 0, 73, 61
1, 4543, Note_on_c, 0, 73, 0
1, 4544, Note_on_c, 0, 72, 61
1, 4559, Note_on_c, 0, 72, 0
1, 4560, Note_on_c, 0, 70, 61
1, 4575, Note_on_c, 0, 70, 0
1, 4576, Note_on_c, 0, 68, 61
1, 4591, Note_on_c, 0, 68, 0
1, 4592, Note_on_c, 0, 66, 61
1, 4601, Note_on_c, 1, 48, 0
1, 4607, Note_on_c, 0, 66, 0
1, 4608, Note_on_c, 0, 65, 61
1, 4608, Note_on_c, 1, 49, 61
1, 4631, Note_on_c, 0, 75, 0
1, 4632, Note_on_c, 0, 68, 61
1, 4642, Note_on_c, 0, 68, 0
1, 4656, Note_on_c, 0, 70, 61
1, 4663, Note_on_c, 0, 70, 0
1, 4663, Note_on_c, 0, 68, 61
1, 4670, Note_on_c, 0, 68, 0
1, 4670, Note_on_c, 0, 70, 61
1, 4677, Note_on_c, 0, 70, 0
1, 4677, Note_on_c, 0, 68, 61
1, 4684, Note_on_c, 0, 68, 0
1, 4684, Note_on_c, 0, 67, 61
1, 4691, Note_on_c, 0, 67, 0
1, 4691, Note_on_c, 0, 68, 61
1, 4697, Note_on_c, 0, 65, 0
1, 4697, Note_on_c, 1, 56, 0
1, 4704, Note_on_c, 0, 68, 0
1, 4704, Note_on_c, 0, 73, 61
1, 4704, Note_on_c, 1, 53, 61
1, 4727, Note_on_c, 0, 73, 0
1, 4728, Note_on_c, 0, 68, 61
1, 4738, Note_on_c, 0, 68, 0
1, 4752, Note_on_c, 0, 70, 61
1, 4759, Note_on_c, 0, 70, 0
1, 4759, Note_on_c, 0, 68, 61
1, 4766, Note_on_c, 0, 68, 0
1, 4766, Note_on_c, 0, 70, 61
1, 4773, Note_on_c, 0, 70, 0
1, 4773, Note_on_c, 0, 68, 61
1, 4780, Note_on_c, 0, 68, 0
1, 4780, Note_on_c, 0, 67, 61
1, 4787, Note_on_c, 0, 67, 0
1, 4787, Note_on_c, 0, 68, 61
1, 4793, Note_on_c, 1, 53, 0
1, 4800, Note_on_c, 0, 68, 0
1, 4800, Note_on_c, 0, 77, 61
1, 4800, Note_on_c, 1, 58, 61
1, 4815, Note_on_c, 0, 77, 0
1, 4816, Note_on_c, 0, 75, 61
1, 4831, Note_on_c, 0, 75, 0
1, 4832, Note_on_c, 0, 73, 61
1, 4847, Note_on_c, 0, 73, 0
1, 4848, Note_on_c, 0, 72, 61
1, 4863, Note_on_c, 0, 72, 0
1, 4864, Note_on_c, 0, 70, 61
1, 4873, Note_on_c, 1, 49, 0
1, 4879, Note_on_c, 0, 70, 0
1, 4880, Note_on_c, 0, 68, 61
1, 4895, Note_on_c, 0, 68, 0
1, 4896, Note_on_c, 0, 67, 61
1, 4896, Note_on_c, 1, 51, 61
1, 4920, Note_on_c, 0, 63, 61
1, 4930, Note_on_c, 0, 63, 0
1, 4941, Note_on_c, 1, 58, 0
1, 4944, Note_on_c, 0, 65, 61
1, 4944, Note_on_c, 1, 61, 61
1, 4951, Note_on_c, 0, 65, 0
1, 4951, Note_on_c, 0, 63, 61
1, 4958, Note_on_c, 0, 63, 0
1, 4958, Note_on_c, 0, 65, 61
1, 4965, Note_on_c, 0, 65, 0
1, 4965, Note_on_c, 0, 63, 61
1, 4972, Note_on_c, 0, 63, 0
1, 4972, Note_on_c, 0, 62, 61
1, 4979, Note_on_c, 0, 62, 0
1, 4979, Note_on_c, 0, 63, 61
1, 4985, Note_on_c, 0, 67, 0
1, 4989, Note_on_c, 1, 61, 0
1, 4992, Note_on_c, 0, 68, 61
1, 4992, Note_on_c, 0, 63, 0
1, 4992, Note_on_c, 1, 60, 61
1, 5016, Note_on_c, 0, 63, 61
1, 5026, Note_on_c, 0, 63, 0
1, 5037, Note_on_c, 1, 60, 0
1, 5040, Note_on_c, 0, 65, 61
1, 5040, Note_on_c, 1, 56, 61
1, 5047, Note_on_c, 0, 65, 0
1, 5047, Note_on_c, 0, 63, 61
1, 5054, Note_on_c, 0, 63, 0
1, 5054, Note_on_c, 0, 65, 61
1, 5061, Note_on_c, 0, 65, 0
1, 5061, Note_on_c, 0, 63, 61
1, 5068, Note_on_c, 0, 63, 0
1, 5068, Note_on_c, 0, 62, 61
1, 5075, Note_on_c, 0, 62, 0
1, 5075, Note_on_c, 0, 63, 61
1, 5081, Note_on_c, 0, 68, 0
1, 5085, Note_on_c, 1, 56, 0
1, 5088, Note_on_c, 0, 70, 61
1, 5088, Note_on_c, 0, 63, 0
1, 5088, Note_on_c, 1, 55, 61
1, 5112, Note_on_c, 0, 63, 61
1, 5122, Note_on_c, 0, 63, 0
1, 5136, Note_on_c, 0, 65, 61
1, 5143, Note_on_c, 0, 65, 0
1, 5143, Note_on_c, 0, 63, 61
1, 5150, Note_on_c, 0, 63, 0
1, 5150, Note_on_c, 0, 65, 61
1, 5157, Note_on_c, 0, 65, 0
1, 5157, Note_on_c, 0, 63, 61
1, 5164, Note_on_c, 0, 63, 0
1, 5164, Note_on_c, 0, 62, 61
1, 5171, Note_on_c, 0, 62, 0
1, 5171, Note_on_c, 0, 63, 61
1, 5177, Note_on_c, 0, 70, 0
1, 5177, Note_on_c, 1, 55, 0
1, 5184, Note_on_c, 0, 72, 61
1, 5184, Note_on_c, 0, 63, 0
1, 5184, Note_on_c, 1, 56, 61
1, 5208, Note_on_c, 0, 63, 61
1, 5218, Note_on_c, 0, 63, 0
1, 5229, Note_on_c, 0, 72, 0
1, 5232, Note_on_c, 0, 65, 61
1, 5239, Note_on_c, 0, 65, 0
1, 5239, Note_on_c, 0, 63, 61
1, 5246, Note_on_c, 0, 63, 0
1, 5246, Note_on_c, 0, 65, 61
1, 5253, Note_on_c, 0, 65, 0
1, 5253, Note_on_c, 0, 63, 61
1, 5260, Note_on_c, 0, 63, 0
1, 5260, Note_on_c, 0, 62, 61
1, 5267, Note_on_c, 0, 62, 0
1, 5267, Note_on_c, 0, 63, 61
1, 5273, Note_on_c, 1, 56, 0
1, 5280, Note_on_c, 0, 74, 61
1, 5280, Note_on_c, 0, 63, 0
1, 5280, Note_on_c, 1, 53, 61
1, 5304, Note_on_c, 0, 68, 63
1, 5314, Note_on_c, 0, 68, 0
1, 5328, Note_on_c, 0, 70, 66
1, 5335, Note_on_c, 0, 70, 0
1, 5335, Note_on_c, 0, 68, 67
1, 5342, Note_on_c, 0, 68, 0
1, 5342, Note_on_c, 0, 70, 68
1, 5349, Note_on_c, 0, 70, 0
1, 5349, Note_on_c, 0, 68, 68
1, 5356, Note_on_c, 0, 68, 0
1, 5356, Note_on_c, 0, 67, 69
1, 5363, Note_on_c, 0, 67, 0
1, 5363, Note_on_c, 0, 68, 70
1, 5369, Note_on_c, 0, 74, 0
1, 5376, Note_on_c, 0, 80, 72
1, 5376, Note_on_c, 0, 68, 0
1, 5400, Note_on_c, 0, 74, 74
1, 5410, Note_on_c, 0, 74, 0
1, 5424, Note_on_c, 0, 75, 77
1, 5431, Note_on_c, 0, 75, 0
1, 5431, Note_on_c, 0, 74, 78
1, 5438, Note_on_c, 0, 74, 0
1, 5438, Note_on_c, 0, 75, 78
1, 5445, Note_on_c, 0, 75, 0
1, 5445, Note_on_c, 0, 74, 79
1, 5452, Note_on_c, 0, 74, 0
1, 5452, Note_on_c, 0, 72, 80
1, 5459, Note_on_c, 0, 72, 0
1, 5459, Note_on_c, 0, 74, 81
1, 5465, Note_on_c, 0, 80, 0
1, 5472, Note_on_c, 0, 80, 84
1, 5472, Note_on_c, 0, 74, 84
1, 5472, Note_on_c, 0, 74, 0
1, 5561, Note_on_c, 0, 80, 0
1, 5561, Note_on_c, 0, 74, 0
1, 5561, Note_on_c, 1, 53, 0
1, 5561, Note_on_c, 1, 51, 0
1, 5568, Note_on_c, 0, 67, 84
1, 5568, Note_on_c, 1, 51, 84
1, 5574, Note_on_c, 1, 55, 84
1, 5580, Note_on_c, 0, 67, 0
1, 5580, Note_on_c, 0, 70, 84
1, 5580, Note_on_c, 1, 58, 84
1, 5586, Note_on_c, 1, 63, 84
1, 5592, Note_on_c, 0, 70, 0
1, 5592, Note_on_c, 0, 79, 84
1, 5592, Note_on_c, 0, 75, 84
1, 5664, Tempo, 1500000
1, 5753, Note_on_c, 1, 63, 0
1, 5753, Note_on_c, 1, 58, 0
1, 5753, Note_on_c, 1, 55, 0
1, 5753, Note_on_c, 1, 51, 0
1, 5760, Tempo, 1000000
1, 5760, Note_on_c, 0, 79, 0
1, 5760, Note_on_c, 0, 75, 0
1, 5760, Note_on_c, 0, 78, 61
1, 5784, Note_on_c, 0, 78, 0
1, 5784, Note_on_c, 0, 80, 61
1, 5807, Note_on_c, 0, 80, 0
1, 5808, Note_on_c, 0, 79, 77
1, 5832, Note_on_c, 0, 79, 0
1, 5832, Note_on_c, 0, 75, 61
1, 5855, Note_on_c, 0, 75, 0
1, 5856, Note_on_c, 0, 74, 61
1, 5880, Note_on_c, 0, 74, 0
1, 5880, Note_on_c, 0, 77, 61
1, 5903, Note_on_c, 0, 77, 0
1, 5904, Note_on_c, 0, 75, 77
1, 5928, Note_on_c, 0, 75, 0
1, 5928, Note_on_c, 0, 70, 61
1, 5951, Note_on_c, 0, 70, 0
1, 5952, Note_on_c, 0, 69, 61
1, 5976, Note_on_c, 0, 69, 0
1, 5976, Note_on_c, 0, 72, 61
1, 5999, Note_on_c, 0, 72, 0
1, 6000, Note_on_c, 0, 70, 77
1, 6024, Note_on_c, 0, 70, 0
1, 6024, Note_on_c, 0, 67, 61
1, 6047, Note_on_c, 0, 67, 0
1, 6048, Note_on_c, 0, 66, 61
1, 6072, Note_on_c, 0, 66, 0
1, 6072, Note_on_c, 0, 68, 61
1, 6095, Note_on_c, 0, 68, 0
1, 6096, Note_on_c, 0, 67, 77
1, 6120, Note_on_c, 0, 67, 0
1, 6120, Note_on_c, 0, 63, 61
1, 6143, Note_on_c, 0, 63, 0
1, 6144, Note_on_c, 0, 62, 61
1, 6167, Note_on_c, 0, 62, 0
1, 6168, Note_on_c, 0, 65, 61
1, 6191, Note_on_c, 0, 65, 0
1, 6192, Note_on_c, 0, 65, 77
1, 6216, Note_on_c, 0, 65, 0
1, 6216, Note_on_c, 0, 63, 63
1, 6239, Note_on_c, 0, 63, 0
1, 6240, Note_on_c, 0, 63, 65
1, 6250, Note_on_c, 0, 63, 0
1, 6264, Note_on_c, 0, 63, 67
1, 6274, Note_on_c, 0, 63, 0
1, 6288, Note_on_c, 0, 63, 70
1, 6298, Note_on_c, 0, 63, 0
1, 6312, Note_on_c, 0, 63, 72
1, 6322, Note_on_c, 0, 63, 0
1, 6336, Note_on_c, 0, 63, 74
1, 6346, Note_on_c, 0, 63, 0
1, 6360, Note_on_c, 0, 63, 77
1, 6370, Note_on_c, 0, 63, 0
1, 6384, Note_on_c, 0, 63, 79
1, 6429, Note_on_c, 0, 63, 0
1, 6432, Note_on_c, 0, 73, 100
1, 6432, Note_on_c, 0, 67, 100
1, 6432, Note_on_c, 1, 58, 84
1, 6432, Note_on_c, 1, 51, 84
1, 6565, Note_on_c, 1, 58, 0
1, 6565, Note_on_c, 1, 51, 0
1, 6576, Note_on_c, 0, 73, 0
1, 6576, Note_on_c, 0, 67, 0
1, 6624, Note_on_c, 0, 84, 84
1, 6624, Note_on_c, 0, 80, 84
1, 6672, Note_on_c, 1, 56, 84
1, 6672, Note_on_c, 1, 44, 84
1, 6692, Note_on_c, 1, 56, 0
1, 6692, Note_on_c, 1, 44, 0
1, 6720, Note_on_c, 1, 56, 84
1, 6720, Note_on_c, 1, 44, 84
1, 6735, Note_on_c, 0, 84, 0
1, 6735, Note_on_c, 0, 80, 0
1, 6736, Note_on_c, 0, 82, 84
1, 6736, Note_on_c, 0, 79, 84
1, 6751, Note_on_c, 0, 82, 0
1, 6751, Note_on_c, 0, 79, 0
1, 6752, Note_on_c, 0, 80, 84
1, 6752, Note_on_c, 0, 77, 84
1, 6767, Note_on_c, 0, 80, 0
1, 6767, Note_on_c, 0, 77, 0
1, 6768, Note_on_c, 0, 79, 84
1, 6768, Note_on_c, 0, 75, 84
1, 6783, Note_on_c, 0, 79, 0
1, 6783, Note_on_c, 0, 75, 0
1, 6784, Note_on_c, 0, 77, 82
1, 6784, Note_on_c, 0, 73, 82
1, 6799, Note_on_c, 0, 77, 0
1, 6799, Note_on_c, 0, 73, 0
1, 6800, Note_on_c, 0, 75, 80
1, 6800, Note_on_c, 0, 72, 80
1, 6809, Note_on_c, 1, 56, 0
1, 6809, Note_on_c, 1, 44, 0
1, 6815, Note_on_c, 0, 75, 0
1, 6815, Note_on_c, 0, 72, 0
1, 6816, Note_on_c, 0, 73, 78
1, 6816, Note_on_c, 0, 70, 78
1, 6861, Note_on_c, 0, 73, 0
1, 6861, Note_on_c, 0, 70, 0
1, 6864, Note_on_c, 0, 72, 70
1, 6864, Note_on_c, 0, 68, 70
1, 6909, Note_on_c, 0, 72, 0
1, 6909, Note_on_c, 0, 68, 0
1, 6912, Note_on_c, 1, 61, 61
1, 6960, Note_on_c, 0, 77, 61
1, 6960, Note_on_c, 0, 73, 61
1, 7001, Note_on_c, 1, 61, 0
1, 7005, Note_on_c, 0, 77, 0
1, 7005, Note_on_c, 0, 73, 0
1, 7008, Note_on_c, 0, 75, 61
1, 7008, Note_on_c, 0, 72, 61
1, 7008, Note_on_c, 1, 63, 61
1, 7053, Note_on_c, 0, 75, 0
1, 7053, Note_on_c, 0, 72, 0
1, 7053, Note_on_c, 1, 63, 0
1, 7056, Note_on_c, 0, 73, 61
1, 7056, Note_on_c, 0, 70, 61
1, 7056, Note_on_c, 1, 64, 61
1, 7101, Note_on_c, 1, 64, 0
1, 7104, Note_on_c, 1, 65, 61
1, 7145, Note_on_c, 0, 73, 0
1, 7145, Note_on_c, 0, 70, 0
1, 7152, Note_on_c, 0, 72, 61
1, 7152, Note_on_c, 0, 68, 61
1, 7193, Note_on_c, 1, 65, 0
1, 7197, Note_on_c, 0, 72, 0
1, 7197, Note_on_c, 0, 68, 0
1, 7200, Note_on_c, 1, 58, 61
1, 7248, Note_on_c, 0, 73, 61
1, 7248, Note_on_c, 0, 70, 61
1, 7289, Note_on_c, 1, 58, 0
1, 7296, Note_on_c, 1, 63, 61
1, 7337, Note_on_c, 0, 73, 0
1, 7337, Note_on_c, 0, 70, 0
1, 7344, Note_on_c, 0, 72, 61
1, 7344, Note_on_c, 0, 68, 61
1, 7385, Note_on_c, 1, 63, 0
1, 7392, Note_on_c, 1, 51, 61
1, 7433, Note_on_c, 0, 72, 0
1, 7433, Note_on_c, 0, 68, 0
1, 7440, Note_on_c, 0, 70, 61
1, 7440, Note_on_c, 0, 67, 61
1, 7481, Note_on_c, 1, 51, 0
1, 7488, Note_on_c, 1, 56, 61
1, 7536, Note_on_c, 0, 70, 0
1, 7536, Note_on_c, 0, 71, 61
1, 7581, Note_on_c, 0, 71, 0
1, 7581, Note_on_c, 0, 67, 0
1, 7584, Note_on_c, 0, 72, 61
1, 7584, Note_on_c, 0, 68, 61
1, 7665, Note_on_c, 1, 56, 0
1, 7673, Note_on_c, 0, 72, 0
1, 7673, Note_on_c, 0, 68, 0
1, 7696, Note_on_c, 0, 75, 61
1, 7696, Note_on_c, 0, 72, 61
1, 7703, Note_on_c, 0, 75, 0
1, 7703, Note_on_c, 0, 72, 0
1, 7712, Note_on_c, 0, 77, 64
1, 7712, Note_on_c, 0, 73, 64
1, 7719, Note_on_c, 0, 77, 0
1, 7719, Note_on_c, 0, 73, 0
1, 7728, Note_on_c, 0, 79, 67
1, 7728, Note_on_c, 0, 75, 67
1, 7735, Note_on_c, 0, 79, 0
1, 7735, Note_on_c, 0, 75, 0
1, 7744, Note_on_c, 0, 80, 70
1, 7744, Note_on_c, 0, 77, 70
1, 7751, Note_on_c, 0, 80, 0
1, 7751, Note_on_c, 0, 77, 0
1, 7760, Note_on_c, 0, 82, 74
1, 7760, Note_on_c, 0, 79, 74
1, 7767, Note_on_c, 0, 82, 0
1, 7767, Note_on_c, 0, 79, 0
1, 7776, Note_on_c, 0, 84, 100
1, 7776, Note_on_c, 0, 80, 100
1, 7824, Note_on_c, 1, 56, 84
1, 7824, Note_on_c, 1, 44, 84
1, 7844, Note_on_c, 1, 56, 0
1, 7844, Note_on_c, 1, 44, 0
1, 7872, Note_on_c, 1, 56, 84
1, 7872, Note_on_c, 1, 44, 84
1, 7887, Note_on_c, 0, 84, 0
1, 7887, Note_on_c, 0, 80, 0
1, 7888, Note_on_c, 0, 82, 84
1, 7888, Note_on_c, 0, 79, 84
1, 7903, Note_on_c, 0, 82, 0
1, 7903, Note_on_c, 0, 79, 0
1, 7904, Note_on_c, 0, 80, 84
1, 7904, Note_on_c, 0, 77, 84
1, 7919, Note_on_c, 0, 80, 0
1, 7919, Note_on_c, 0, 77, 0
1, 7920, Note_on_c, 0, 79, 84
1, 7920, Note_on_c, 0, 75, 84
1, 7935, Note_on_c, 0, 79, 0
1, 7935, Note_on_c, 0, 75, 0
1, 7936, Note_on_c, 0, 77, 82
1, 7936, Note_on_c, 0, 73, 82
1, 7951, Note_on_c, 0, 77, 0
1, 7951, Note_on_c, 0, 73, 0
1, 7952, Note_on_c, 0, 75, 80
1, 7952, Note_on_c, 0, 72, 80
1, 7961, Note_on_c, 1, 56, 0
1, 7961, Note_on_c, 1, 44, 0
1, 7967, Note_on_c, 0, 75, 0
1, 7967, Note_on_c, 0, 72, 0
1, 7968, Note_on_c, 0, 73, 78
1, 7968, Note_on_c, 0, 70, 78
1, 8013, Note_on_c, 0, 73, 0
1, 8013, Note_on_c, 0, 70, 0
1, 8016, Note_on_c, 0, 72, 70
1, 8016, Note_on_c, 0, 68, 70
1, 8061, Note_on_c, 0, 72, 0
1, 8061, Note_on_c, 0, 68, 0
1, 8064, Note_on_c, 1, 61, 61
1, 8112, Note_on_c, 0, 77, 61
1, 8112, Note_on_c, 0, 73, 61
1, 8153, Note_on_c, 1, 61, 0
1, 8157, Note_on_c, 0, 77, 0
1, 8157, Note_on_c, 0, 73, 0
1, 8160, Note_on_c, 0, 75, 61
1, 8160, Note_on_c, 0, 72, 61
1, 8160, Note_on_c, 1, 63, 61
1, 8205, Note_on_c, 0, 75, 0
1, 8205, Note_on_c, 0, 72, 0
1, 8205, Note_on_c, 1, 63, 0
1, 8208, Note_on_c, 0, 73, 61
1, 8208, Note_on_c, 0, 70, 61
1, 8208, Note_on_c, 1, 64, 61
1, 8253, Note_on_c, 1, 64, 0
1, 8256, Note_on_c, 1, 65, 61
1, 8297, Note_on_c, 0, 73, 0
1, 8297, Note_on_c, 0, 70, 0
1, 8304, Note_on_c, 0, 72, 61
1, 8304, Note_on_c, 0, 68, 61
1, 8345, Note_on_c, 1, 65, 0
1, 8352, Note_on_c, 1, 62, 61
1, 8397, Note_on_c, 0, 72, 0
1, 8397, Note_on_c, 0, 68, 0
1, 8400, Note_on_c, 0, 70, 61
1, 8400, Note_on_c, 0, 68, 61
1, 8441, Note_on_c, 1, 62, 0
1, 8445, Note_on_c, 0, 68, 0
1, 8448, Note_on_c, 0, 67, 61
1, 8448, Note_on_c, 1, 63, 61
1, 8489, Note_on_c, 0, 70, 0
1, 8493, Note_on_c, 0, 67, 0
1, 8496, Note_on_c, 0, 77, 61
1, 8537, Note_on_c, 1, 63, 0
1, 8541, Note_on_c, 0, 77, 0
1, 8544, Note_on_c, 0, 75, 61
1, 8544, Note_on_c, 1, 51, 61
1, 8589, Note_on_c, 0, 75, 0
1, 8592, Note_on_c, 0, 67, 61
1, 8592, Note_on_c, 0, 61, 61
1, 8592, Note_on_c, 0, 58, 61
1, 8633, Note_on_c, 1, 51, 0
1, 8637, Note_on_c, 0, 67, 0
1, 8637, Note_on_c, 0, 61, 0
1, 8637, Note_on_c, 0, 58, 0
1, 8640, Note_on_c, 0, 67, 61
1, 8640, Note_on_c, 0, 61, 61
1, 8640, Note_on_c, 0, 58, 61
1, 8640, Note_on_c, 1, 56, 61
1, 8640, Note_on_c, 1, 44, 61
1, 8729, Note_on_c, 0, 67, 0
1, 8729, Note_on_c, 0, 61, 0
1, 8729, Note_on_c, 0, 58, 0
1, 8736, Note_on_c, 0, 60, 61
1, 8744, Note_on_c, 0, 63, 61
1, 8752, Note_on_c, 0, 68, 61
1, 8817, Note_on_c, 1, 56, 0
1, 8817, Note_on_c, 1, 44, 0
1, 8829, Note_on_c, 0, 68, 0
1, 8829, Note_on_c, 0, 63, 0
1, 8829, Note_on_c, 0, 60, 0
1, 8928, Note_on_c, 1, 61, 61
1, 8928, Note_on_c, 1, 61, 61
1, 8973, Note_on_c, 1, 61, 0
1, 8976, Note_on_c, 1, 65, 61
1, 9021, Note_on_c, 1, 65, 0
1, 9024, Note_on_c, 1, 68, 61
1, 9069, Note_on_c, 1, 68, 0
1, 9072, Note_on_c, 1, 73, 61
1, 9117, Note_on_c, 1, 73, 0
1, 9120, Note_on_c, 1, 72, 61
1, 9165, Note_on_c, 1, 72, 0
1, 9168, Note_on_c, 1, 70, 61
1, 9193, Note_on_c, 1, 61, 0
1, 9216, Note_on_c, 1, 60, 61
1, 9261, Note_on_c, 1, 70, 0
1, 9264, Note_on_c, 1, 67, 61
1, 9309, Note_on_c, 1, 67, 0
1, 9312, Note_on_c, 1, 68, 61
1, 9357, Note_on_c, 1, 68, 0
1, 9360, Note_on_c, 1, 63, 61
1, 9405, Note_on_c, 1, 63, 0
1, 9408, Note_on_c, 1, 65, 61
1, 9453, Note_on_c, 1, 65, 0
1, 9456, Note_on_c, 1, 66, 61
1, 9481, Note_on_c, 1, 60, 0
1, 9504, Note_on_c, 1, 61, 61
1, 9549, Note_on_c, 1, 66, 0
1, 9552, Note_on_c, 1, 65, 61
1, 9593, Note_on_c, 1, 61, 0
1, 9600, Note_on_c, 1, 54, 61
1, 9641, Note_on_c, 1, 65, 0
1, 9648, Note_on_c, 1, 63, 61
1, 9689, Note_on_c, 1, 54, 0
1, 9693, Note_on_c, 1, 63, 0
1, 9696, Note_on_c, 1, 61, 61
1, 9696, Note_on_c, 1, 56, 61
1, 9702, Note_on_c, 1, 61, 0
1, 9702, Note_on_c, 1, 63, 61
1, 9708, Note_on_c, 1, 63, 0
1, 9708, Note_on_c, 1, 61, 61
1, 9743, Note_on_c, 1, 61, 0
1, 9744, Note_on_c, 1, 60, 61
1, 9785, Note_on_c, 1, 56, 0
1, 9789, Note_on_c, 1, 60, 0
1, 9792, Note_on_c, 1, 61, 61
1, 9792, Note_on_c, 1, 61, 61
1, 9837, Note_on_c, 1, 61, 0
1, 9840, Note_on_c, 1, 49, 61
1, 9885, Note_on_c, 1, 49, 0
1, 9888, Note_on_c, 1, 53, 61
1, 9933, Note_on_c, 1, 53, 0
1, 9936, Note_on_c, 1, 56, 61
1, 9981, Note_on_c, 1, 56, 0
1, 9984, Note_on_c, 1, 49, 61
1, 10057, Note_on_c, 1, 61, 0
1, 10073, Note_on_c, 1, 49, 0
1, 10080, Note_on_c, 1, 61, 61
1, 10080, Note_on_c, 1, 61, 61
1, 10125, Note_on_c, 1, 61, 0
1, 10128, Note_on_c, 1, 65, 61
1, 10173, Note_on_c, 1, 65, 0
1, 10176, Note_on_c, 1, 68, 61
1, 10221, Note_on_c, 1, 68, 0
1, 10224, Note_on_c, 0, 82, 61
1, 10224, Note_on_c, 1, 73, 61
1, 10257, Note_on_c, 1, 61, 0
1, 10269, Note_on_c, 0, 82, 0
1, 10269, Note_on_c, 1, 73, 0
1, 10272, Note_on_c, 0, 80, 61
1, 10272, Note_on_c, 1, 72, 61
1, 10272, Note_on_c, 1, 63, 61
1, 10278, Note_on_c, 0, 80, 0
1, 10278, Note_on_c, 0, 82, 61
1, 10284, Note_on_c, 0, 82, 0
1, 10284, Note_on_c, 0, 80, 61
1, 10317, Note_on_c, 1, 72, 0
1, 10319, Note_on_c, 0, 80, 0
1, 10320, Note_on_c, 0, 79, 61
1, 10320, Note_on_c, 1, 70, 61
1, 10361, Note_on_c, 1, 63, 0
1, 10368, Note_on_c, 1, 60, 61
1, 10413, Note_on_c, 0, 79, 0
1, 10413, Note_on_c, 1, 70, 0
1, 10416, Note_on_c, 0, 82, 61
1, 10416, Note_on_c, 1, 67, 61
1, 10461, Note_on_c, 0, 82, 0
1, 10461, Note_on_c, 1, 67, 0
1, 10464, Note_on_c, 0, 80, 61
1, 10464, Note_on_c, 1, 68, 61
1, 10509, Note_on_c, 1, 68, 0
1, 10512, Note_on_c, 1, 63, 61
1, 10553, Note_on_c, 0, 80, 0
1, 10557, Note_on_c, 1, 63, 0
1, 10560, Note_on_c, 0, 75, 61
1, 10560, Note_on_c, 1, 65, 61
1, 10605, Note_on_c, 1, 65, 0
1, 10608, Note_on_c, 1, 66, 61
1, 10633, Note_on_c, 1, 60, 0
1, 10656, Note_on_c, 1, 61, 61
1, 10701, Note_on_c, 0, 75, 0
1, 10701, Note_on_c, 1, 66, 0
1, 10704, Note_on_c, 0, 73, 61
1, 10704, Note_on_c, 1, 65, 61
1, 10745, Note_on_c, 1, 61, 0
1, 10749, Note_on_c, 0, 73, 0
1, 10752, Note_on_c, 0, 82, 77
1, 10752, Note_on_c, 1, 54, 61
1, 10793, Note_on_c, 1, 65, 0
1, 10800, Note_on_c, 1, 63, 61
1, 10824, Note_on_c, 0, 82, 0
1, 10824, Note_on_c, 0, 80, 61
1, 10836, Note_on_c, 0, 80, 0
1, 10836, Note_on_c, 0, 78, 61
1, 10841, Note_on_c, 1, 54, 0
1, 10845, Note_on_c, 1, 63, 0
1, 10848, Note_on_c, 0, 78, 0
1, 10848, Note_on_c, 0, 77, 61
1, 10848, Note_on_c, 1, 61, 61
1, 10848, Note_on_c, 1, 56, 61
1, 10893, Note_on_c, 0, 77, 0
1, 10893, Note_on_c, 1, 61, 0
1, 10896, Note_on_c, 0, 80, 61
1, 10896, Note_on_c, 1, 60, 61
1, 10911, Note_on_c, 0, 80, 0
1, 10912, Note_on_c, 0, 78, 61
1, 10927, Note_on_c, 0, 78, 0
1, 10928, Note_on_c, 0, 75, 61
1, 10937, Note_on_c, 1, 56, 0
1, 10941, Note_on_c, 1, 60, 0
1, 10943, Note_on_c, 0, 75, 0
1, 10944, Note_on_c, 0, 75, 61
1, 10944, Note_on_c, 0, 72, 64
1, 10944, Note_on_c, 1, 61, 61
1, 10944, Note_on_c, 1, 61, 61
1, 10992, Note_on_c, 0, 75, 0
1, 10992, Note_on_c, 0, 76, 57
1, 11033, Note_on_c, 0, 72, 0
1, 11037, Note_on_c, 0, 76, 0
1, 11040, Note_on_c, 0, 77, 53
1, 11040, Note_on_c, 0, 73, 53
1, 11077, Note_on_c, 1, 61, 0
1, 11077, Note_on_c, 1, 61, 0
1, 11088, Note_on_c, 1, 49, 61
1, 11129, Note_on_c, 0, 77, 0
1, 11129, Note_on_c, 0, 73, 0
1, 11133, Note_on_c, 1, 49, 0
1, 11136, Note_on_c, 1, 53, 63
1, 11181, Note_on_c, 1, 53, 0
1, 11184, Note_on_c, 1, 56, 66
1, 11229, Note_on_c, 1, 56, 0
1, 11232, Note_on_c, 1, 61, 61
1, 11280, Note_on_c, 0, 89, 61
1, 11280, Note_on_c, 1, 65, 61
1, 11325, Note_on_c, 0, 89, 0
1, 11325, Note_on_c, 1, 65, 0
1, 11328, Note_on_c, 0, 85, 63
1, 11328, Note_on_c, 1, 69, 63
1, 11334, Note_on_c, 0, 85, 0
1, 11334, Note_on_c, 0, 84, 63
1, 11340, Note_on_c, 0, 84, 0
1, 11340, Note_on_c, 0, 82, 63
1, 11346, Note_on_c, 0, 82, 0
1, 11346, Note_on_c, 0, 84, 63
1, 11373, Note_on_c, 0, 84, 0
1, 11373, Note_on_c, 1, 69, 0
1, 11376, Note_on_c, 0, 85, 66
1, 11376, Note_on_c, 1, 70, 66
1, 11421, Note_on_c, 0, 85, 0
1, 11421, Note_on_c, 1, 70, 0
1, 11424, Note_on_c, 0, 82, 69
1, 11424, Note_on_c, 1, 72, 69
1, 11430, Note_on_c, 0, 82, 0
1, 11430, Note_on_c, 0, 81, 69
1, 11436, Note_on_c, 0, 81, 0
1, 11436, Note_on_c, 0, 79, 69
1, 11442, Note_on_c, 0, 79, 0
1, 11442, Note_on_c, 0, 81, 69
1, 11469, Note_on_c, 0, 81, 0
1, 11469, Note_on_c, 1, 72, 0
1, 11472, Note_on_c, 0, 82, 72
1, 11472, Note_on_c, 1, 73, 72
1, 11497, Note_on_c, 1, 61, 0
1, 11517, Note_on_c, 0, 82, 0
1, 11517, Note_on_c, 1, 73, 0
1, 11520, Note_on_c, 1, 60, 61
1, 11568, Note_on_c, 0, 87, 61
1, 11568, Note_on_c, 1, 63, 63
1, 11613, Note_on_c, 0, 87, 0
1, 11613, Note_on_c, 1, 63, 0
1, 11616, Note_on_c, 0, 84, 63
1, 11616, Note_on_c, 1, 67, 65
1, 11622, Note_on_c, 0, 84, 0
1, 11622, Note_on_c, 0, 82, 63
1, 11628, Note_on_c, 0, 82, 0
1, 11628, Note_on_c, 0, 80, 63
1, 11634, Note_on_c, 0, 80, 0
1, 11634, Note_on_c, 0, 82, 63
1, 11661, Note_on_c, 0, 82, 0
1, 11661, Note_on_c, 1, 67, 0
1, 11664, Note_on_c, 0, 84, 66
1, 11664, Note_on_c, 1, 68, 68
1, 11709, Note_on_c, 0, 84, 0
1, 11709, Note_on_c, 1, 68, 0
1, 11712, Note_on_c, 0, 80, 69
1, 11712, Note_on_c, 1, 70, 70
1, 11718, Note_on_c, 0, 80, 0
1, 11718, Note_on_c, 0, 79, 69
1, 11724, Note_on_c, 0, 79, 0
1, 11724, Note_on_c, 0, 77, 69
1, 11730, Note_on_c, 0, 77, 0
1, 11730, Note_on_c, 0, 79, 69
1, 11757, Note_on_c, 0, 79, 0
1, 11757, Note_on_c, 1, 70, 0
1, 11760, Note_on_c, 0, 80, 72
1, 11760, Note_on_c, 1, 72, 72
1, 11785, Note_on_c, 1, 60, 0
1, 11805, Note_on_c, 0, 80, 0
1, 11805, Note_on_c, 1, 72, 0
1, 11808, Note_on_c, 1, 58, 61
1, 11856, Note_on_c, 0, 85, 75
1, 11856, Note_on_c, 1, 61, 75
1, 11901, Note_on_c, 1, 61, 0
1, 11904, Note_on_c, 1, 65, 76
1, 11945, Note_on_c, 0, 85, 0
1, 11949, Note_on_c, 1, 65, 0
1, 11952, Note_on_c, 0, 84, 71
1, 11952, Note_on_c, 1, 69, 77
1, 11985, Note_on_c, 1, 58, 0
1, 11997, Note_on_c, 0, 84, 0
1, 11997, Note_on_c, 1, 69, 0
1, 12000, Note_on_c, 0, 82, 70
1, 12000, Note_on_c, 1, 70, 78
1, 12000, Note_on_c, 1, 61, 61
1, 12045, Note_on_c, 0, 82, 0
1, 12045, Note_on_c, 1, 61, 0
1, 12048, Note_on_c, 0, 80, 68
1, 12048, Note_on_c, 1, 62, 61
1, 12054, Note_on_c, 0, 80, 0
1, 12054, Note_on_c, 0, 82, 68
1, 12060, Note_on_c, 0, 82, 0
1, 12060, Note_on_c, 0, 80, 68
1, 12093, Note_on_c, 1, 62, 0
1, 12095, Note_on_c, 0, 80, 0
1, 12096, Note_on_c, 0, 79, 67
1, 12096, Note_on_c, 1, 63, 61
1, 12141, Note_on_c, 0, 79, 0
1, 12141, Note_on_c, 1, 70, 0
1, 12144, Note_on_c, 0, 77, 65
1, 12144, Note_on_c, 1, 68, 82
1, 12151, Note_on_c, 0, 77, 0
1, 12151, Note_on_c, 0, 79, 65
1, 12158, Note_on_c, 0, 79, 0
1, 12158, Note_on_c, 0, 77, 65
1, 12165, Note_on_c, 0, 77, 0
1, 12165, Note_on_c, 0, 79, 65
1, 12172, Note_on_c, 0, 79, 0
1, 12172, Note_on_c, 0, 77, 64
1, 12179, Note_on_c, 0, 77, 0
1, 12179, Note_on_c, 0, 75, 64
1, 12186, Note_on_c, 0, 75, 0
1, 12186, Note_on_c, 0, 77, 64
1, 12189, Note_on_c, 1, 68, 0
1, 12192, Note_on_c, 0, 77, 0
1, 12192, Note_on_c, 0, 75, 64
1, 12192, Note_on_c, 1, 67, 84
1, 12229, Note_on_c, 1, 63, 0
1, 12237, Note_on_c, 1, 67, 0
1, 12240, Note_on_c, 1, 65, 78
1, 12240, Note_on_c, 1, 61, 78
1, 12281, Note_on_c, 0, 75, 0
1, 12285, Note_on_c, 1, 65, 0
1, 12285, Note_on_c, 1, 61, 0
1, 12288, Note_on_c, 1, 63, 72
1, 12288, Note_on_c, 1, 60, 72
1, 12333, Note_on_c, 1, 63, 0
1, 12333, Note_on_c, 1, 60, 0
1, 12336, Note_on_c, 1, 61, 66
1, 12336, Note_on_c, 1, 58, 66
1, 12381, Note_on_c, 1, 61, 0
1, 12381, Note_on_c, 1, 58, 0
1, 12384, Note_on_c, 1, 60, 61
1, 12384, Note_on_c, 1, 56, 61
1, 12408, Note_on_c, 0, 75, 61
1, 12418, Note_on_c, 0, 75, 0
1, 12432, Note_on_c, 0, 77, 61
1, 12439, Note_on_c, 0, 77, 0
1, 12439, Note_on_c, 0, 75, 61
1, 12446, Note_on_c, 0, 75, 0
1, 12446, Note_on_c, 0, 77, 61
1, 12453, Note_on_c, 0, 77, 0
1, 12453, Note_on_c, 0, 75, 61
1, 12460, Note_on_c, 0, 75, 0
1, 12460, Note_on_c, 0, 74, 61
1, 12467, Note_on_c, 0, 74, 0
1, 12467, Note_on_c, 0, 75, 61
1, 12473, Note_on_c, 1, 60, 0
1, 12473, Note_on_c, 1, 56, 0
1, 12480, Note_on_c, 0, 75, 0
1, 12480, Note_on_c, 1, 68, 61
1, 12480, Note_on_c, 1, 60, 61
1, 12504, Note_on_c, 0, 75, 61
1, 12514, Note_on_c, 0, 75, 0
1, 12528, Note_on_c, 0, 77, 61
1, 12535, Note_on_c, 0, 77, 0
1, 12535, Note_on_c, 0, 75, 61
1, 12542, Note_on_c, 0, 75, 0
1, 12542, Note_on_c, 0, 77, 61
1, 12549, Note_on_c, 0, 77, 0
1, 12549, Note_on_c, 0, 75, 61
1, 12556, Note_on_c, 0, 75, 0
1, 12556, Note_on_c, 0, 74, 61
1, 12563, Note_on_c, 0, 74, 0
1, 12563, Note_on_c, 0, 75, 61
1, 12569, Note_on_c, 1, 68, 0
1, 12569, Note_on_c, 1, 60, 0
1, 12576, Note_on_c, 0, 75, 0
1, 12576, Note_on_c, 0, 84, 61
1, 12576, Note_on_c, 1, 60, 61
1, 12576, Note_on_c, 1, 56, 61
1, 12591, Note_on_c, 0, 84, 0
1, 12592, Note_on_c, 0, 82, 61
1, 12607, Note_on_c, 0, 82, 0
1, 12608, Note_on_c, 0, 80, 61
1, 12623, Note_on_c, 0, 80, 0
1, 12624, Note_on_c, 0, 79, 61
1, 12639, Note_on_c, 0, 79, 0
1, 12640, Note_on_c, 0, 77, 61
1, 12655, Note_on_c, 0, 77, 0
1, 12656, Note_on_c, 0, 75, 61
1, 12665, Note_on_c, 1, 60, 0
1, 12665, Note_on_c, 1, 56, 0
1, 12671, Note_on_c, 0, 75, 0
1, 12672, Note_on_c, 0, 75, 61
1, 12672, Note_on_c, 1, 58, 61
1, 12672, Note_on_c, 1, 58, 61
1, 12696, Note_on_c, 0, 68, 61
1, 12706, Note_on_c, 0, 68, 0
1, 12720, Note_on_c, 0, 70, 61
1, 12727, Note_on_c, 0, 70, 0
1, 12727, Note_on_c, 0, 68, 61
1, 12734, Note_on_c, 0, 68, 0
1, 12734, Note_on_c, 0, 70, 61
1, 12741, Note_on_c, 0, 70, 0
1, 12741, Note_on_c, 0, 68, 61
1, 12748, Note_on_c, 0, 68, 0
1, 12748, Note_on_c, 0, 67, 61
1, 12755, Note_on_c, 0, 67, 0
1, 12755, Note_on_c, 0, 68, 61
1, 12761, Note_on_c, 1, 58, 0
1, 12768, Note_on_c, 0, 75, 0
1, 12768, Note_on_c, 0, 74, 61
1, 12768, Note_on_c, 0, 68, 0
1, 12768, Note_on_c, 1, 65, 61
1, 12792, Note_on_c, 0, 68, 61
1, 12802, Note_on_c, 0, 68, 0
1, 12816, Note_on_c, 0, 70, 61
1, 12823, Note_on_c, 0, 70, 0
1, 12823, Note_on_c, 0, 68, 61
1, 12830, Note_on_c, 0, 68, 0
1, 12830, Note_on_c, 0, 70, 61
1, 12837, Note_on_c, 0, 70, 0
1, 12837, Note_on_c, 0, 68, 61
1, 12844, Note_on_c, 0, 68, 0
1, 12844, Note_on_c, 0, 67, 61
1, 12849, Note_on_c, 1, 58, 0
1, 12851, Note_on_c, 0, 67, 0
1, 12851, Note_on_c, 0, 68, 61
1, 12857, Note_on_c, 0, 74, 0
1, 12857, Note_on_c, 1, 65, 0
1, 12864, Note_on_c, 0, 68, 0
1, 12864, Note_on_c, 0, 77, 61
1, 12864, Note_on_c, 1, 58, 61
1, 12864, Note_on_c, 1, 50, 61
1, 12879, Note_on_c, 0, 77, 0
1, 12880, Note_on_c, 0, 75, 61
1, 12895, Note_on_c, 0, 75, 0
1, 12896, Note_on_c, 0, 74, 61
1, 12911, Note_on_c, 0, 74, 0
1, 12912, Note_on_c, 0, 72, 61
1, 12927, Note_on_c, 0, 72, 0
1, 12928, Note_on_c, 0, 70, 61
1, 12943, Note_on_c, 0, 70, 0
1, 12944, Note_on_c, 0, 68, 61
1, 12953, Note_on_c, 1, 50, 0
1, 12959, Note_on_c, 0, 68, 0
1, 12960, Note_on_c, 0, 68, 61
1, 12960, Note_on_c, 1, 51, 61
1, 12984, Note_on_c, 0, 73, 61
1, 12994, Note_on_c, 0, 73, 0
1, 13008, Note_on_c, 0, 75, 61
1, 13015, Note_on_c, 0, 75, 0
1, 13015, Note_on_c, 0, 73, 61
1, 13022, Note_on_c, 0, 73, 0
1, 13022, Note_on_c, 0, 75, 61
1, 13029, Note_on_c, 0, 75, 0
1, 13029, Note_on_c, 0, 73, 61
1, 13036, Note_on_c, 0, 73, 0
1, 13036, Note_on_c, 0, 72, 61
1, 13043, Note_on_c, 0, 72, 0
1, 13043, Note_on_c, 0, 73, 61
1, 13049, Note_on_c, 1, 58, 0
1, 13056, Note_on_c, 0, 73, 0
1, 13056, Note_on_c, 0, 68, 0
1, 13056, Note_on_c, 0, 67, 61
1, 13056, Note_on_c, 1, 63, 61
1, 13080, Note_on_c, 0, 73, 61
1, 13090, Note_on_c, 0, 73, 0
1, 13104, Note_on_c, 0, 75, 61
1, 13111, Note_on_c, 0, 75, 0
1, 13111, Note_on_c, 0, 73, 61
1, 13118, Note_on_c, 0, 73, 0
1, 13118, Note_on_c, 0, 75, 61
1, 13125, Note_on_c, 0, 75, 0
1, 13125, Note_on_c, 0, 73, 61
1, 13132, Note_on_c, 0, 73, 0
1, 13132, Note_on_c, 0, 72, 61
1, 13137, Note_on_c, 1, 51, 0
1, 13139, Note_on_c, 0, 72, 0
1, 13139, Note_on_c, 0, 73, 61
1, 13145, Note_on_c, 0, 67, 0
1, 13152, Note_on_c, 0, 73, 0
1, 13152, Note_on_c, 0, 82, 61
1, 13152, Note_on_c, 1, 55, 61
1, 13167, Note_on_c, 0, 82, 0
1, 13168, Note_on_c, 0, 80, 61
1, 13183, Note_on_c, 0, 80, 0
1, 13184, Note_on_c, 0, 79, 61
1, 13199, Note_on_c, 0, 79, 0
1, 13200, Note_on_c, 0, 77, 61
1, 13215, Note_on_c, 0, 77, 0
1, 13216, Note_on_c, 0, 75, 61
1, 13231, Note_on_c, 0, 75, 0
1, 13232, Note_on_c, 0, 73, 61
1, 13241, Note_on_c, 1, 55, 0
1, 13247, Note_on_c, 0, 73, 0
1, 13248, Note_on_c, 0, 73, 61
1, 13248, Note_on_c, 1, 56, 61
1, 13272, Note_on_c, 0, 66, 61
1, 13282, Note_on_c, 0, 66, 0
1, 13296, Note_on_c, 0, 68, 61
1, 13303, Note_on_c, 0, 68, 0
1, 13303, Note_on_c, 0, 66, 61
1, 13310, Note_on_c, 0, 66, 0
1, 13310, Note_on_c, 0, 68, 61
1, 13317, Note_on_c, 0, 68, 0
1, 13317, Note_on_c, 0, 66, 61
1, 13324, Note_on_c, 0, 66, 0
1, 13324, Note_on_c, 0, 65, 61
1, 13331, Note_on_c, 0, 65, 0
1, 13331, Note_on_c, 0, 66, 61
1, 13337, Note_on_c, 1, 63, 0
1, 13344, Note_on_c, 0, 73, 0
1, 13344, Note_on_c, 0, 72, 61
1, 13344, Note_on_c, 0, 66, 0
1, 13344, Note_on_c, 1, 63, 61
1, 13368, Note_on_c, 0, 66, 61
1, 13378, Note_on_c, 0, 66, 0
1, 13392, Note_on_c, 0, 68, 61
1, 13399, Note_on_c, 0, 68, 0
1, 13399, Note_on_c, 0, 66, 61
1, 13406, Note_on_c, 0, 66, 0
1, 13406, Note_on_c, 0, 68, 61
1, 13413, Note_on_c, 0, 68, 0
1, 13413, Note_on_c, 0, 66, 61
1, 13420, Note_on_c, 0, 66, 0
1, 13420, Note_on_c, 0, 65, 61
1, 13425, Note_on_c, 1, 56, 0
1, 13427, Note_on_c, 0, 65, 0
1, 13427, Note_on_c, 0, 66, 61
1, 13433, Note_on_c, 0, 72, 0
1, 13433, Note_on_c, 1, 63, 0
1, 13440, Note_on_c, 0, 75, 61
1, 13440, Note_on_c, 0, 66, 0
1, 13440, Note_on_c, 0, 75, 61
1, 13440, Note_on_c, 1, 56, 61
1, 13440, Note_on_c, 1, 48, 61
1, 13455, Note_on_c, 0, 75, 0
1, 13456, Note_on_c, 0, 73, 61
1, 13471, Note_on_c, 0, 73, 0
1, 13472, Note_on_c, 0, 72, 61
1, 13487, Note_on_c, 0, 72, 0
1, 13488, Note_on_c, 0, 70, 61
1, 13503, Note_on_c, 0, 70, 0
1, 13504, Note_on_c, 0, 68, 61
1, 13519, Note_on_c, 0, 68, 0
1, 13520, Note_on_c, 0, 66, 61
1, 13529, Note_on_c, 1, 48, 0
1, 13535, Note_on_c, 0, 66, 0
1, 13536, Note_on_c, 0, 65, 61
1, 13536, Note_on_c, 1, 49, 61
1, 13559, Note_on_c, 0, 75, 0
1, 13560, Note_on_c, 0, 68, 61
1, 13570, Note_on_c, 0, 68, 0
1, 13584, Note_on_c, 0, 70, 61
1, 13591, Note_on_c, 0, 70, 0
1, 13591, Note_on_c, 0, 68, 61
1, 13598, Note_on_c, 0, 68, 0
1, 13598, Note_on_c, 0, 70, 61
1, 13605, Note_on_c, 0, 70, 0
1, 13605, Note_on_c, 0, 68, 61
1, 13612, Note_on_c, 0, 68, 0
1, 13612, Note_on_c, 0, 67, 61
1, 13619, Note_on_c, 0, 67, 0
1, 13619, Note_on_c, 0, 68, 61
1, 13625, Note_on_c, 0, 65, 0
1, 13625, Note_on_c, 1, 56, 0
1, 13632, Note_on_c, 0, 68, 0
1, 13632, Note_on_c, 0, 73, 61
1, 13632, Note_on_c, 1, 53, 61
1, 13655, Note_on_c, 0, 73, 0
1, 13656, Note_on_c, 0, 68, 61
1, 13666, Note_on_c, 0, 68, 0
1, 13680, Note_on_c, 0, 70, 61
1, 13687, Note_on_c, 0, 70, 0
1, 13687, Note_on_c, 0, 68, 61
1, 13694, Note_on_c, 0, 68, 0
1, 13694, Note_on_c, 0, 70, 61
1, 13701, Note_on_c, 0, 70, 0
1, 13701, Note_on_c, 0, 68, 61
1, 13708, Note_on_c, 0, 68, 0
1, 13708, Note_on_c, 0, 67, 61
1, 13715, Note_on_c, 0, 67, 0
1, 13715, Note_on_c, 0, 68, 61
1, 13721, Note_on_c, 1, 53, 0
1, 13728, Note_on_c, 0, 68, 0
1, 13728, Note_on_c, 0, 77, 61
1, 13728, Note_on_c, 1, 58, 61
1, 13743, Note_on_c, 0, 77, 0
1, 13744, Note_on_c, 0, 75, 61
1, 13759, Note_on_c, 0, 75, 0
1, 13760, Note_on_c, 0, 73, 61
1, 13775, Note_on_c, 0, 73, 0
1, 13776, Note_on_c, 0, 72, 61
1, 13791, Note_on_c, 0, 72, 0
1, 13792, Note_on_c, 0, 70, 61
1, 13801, Note_on_c, 1, 49, 0
1, 13807, Note_on_c, 0, 70, 0
1, 13808, Note_on_c, 0, 68, 61
1, 13823, Note_on_c, 0, 68, 0
1, 13824, Note_on_c, 0, 67, 61
1, 13824, Note_on_c, 1, 51, 61
1, 13848, Note_on_c, 0, 63, 61
1, 13858, Note_on_c, 0, 63, 0
1, 13869, Note_on_c, 1, 58, 0
1, 13872, Note_on_c, 0, 65, 61
1, 13872, Note_on_c, 1, 61, 61
1, 13879, Note_on_c, 0, 65, 0
1, 13879, Note_on_c, 0, 63, 61
1, 13886, Note_on_c, 0, 63, 0
1, 13886, Note_on_c, 0, 65, 61
1, 13893, Note_on_c, 0, 65, 0
1, 13893, Note_on_c, 0, 63, 61
1, 13900, Note_on_c, 0, 63, 0
1, 13900, Note_on_c, 0, 62, 61
1, 13907, Note_on_c, 0, 62, 0
1, 13907, Note_on_c, 0, 63, 61
1, 13913, Note_on_c, 0, 67, 0
1, 13917, Note_on_c, 1, 61, 0
1, 13920, Note_on_c, 0, 68, 61
1, 13920, Note_on_c, 0, 63, 0
1, 13920, Note_on_c, 1, 60, 61
1, 13944, Note_on_c, 0, 63, 61
1, 13954, Note_on_c, 0, 63, 0
1, 13965, Note_on_c, 1, 60, 0
1, 13968, Note_on_c, 0, 65, 61
1, 13968, Note_on_c, 1, 56, 61
1, 13975, Note_on_c, 0, 65, 0
1, 13975, Note_on_c, 0, 63, 61
1, 13982, Note_on_c, 0, 63, 0
1, 13982, Note_on_c, 0, 65, 61
1, 13989, Note_on_c, 0, 65, 0
1, 13989, Note_on_c, 0, 63, 61
1, 13996, Note_on_c, 0, 63, 0
1, 13996, Note_on_c, 0, 62, 61
1, 14003, Note_on_c, 0, 62, 0
1, 14003, Note_on_c, 0, 63, 61
1, 14009, Note_on_c, 0, 68, 0
1, 14013, Note_on_c, 1, 56, 0
1, 14016, Note_on_c, 0, 70, 61
1, 14016, Note_on_c, 0, 63, 0
1, 14016, Note_on_c, 1, 55, 61
1, 14040, Note_on_c, 0, 63, 61
1, 14050, Note_on_c, 0, 63, 0
1, 14064, Note_on_c, 0, 65, 61
1, 14071, Note_on_c, 0, 65, 0
1, 14071, Note_on_c, 0, 63, 61
1, 14078, Note_on_c, 0, 63, 0
1, 14078, Note_on_c, 0, 65, 61
1, 14085, Note_on_c, 0, 65, 0
1, 14085, Note_on_c, 0, 63, 61
1, 14092, Note_on_c, 0, 63, 0
1, 14092, Note_on_c, 0, 62, 61
1, 14099, Note_on_c, 0, 62, 0
1, 14099, Note_on_c, 0, 63, 61
1, 14105, Note_on_c, 0, 70, 0
1, 14105, Note_on_c, 1, 55, 0
1, 14112, Note_on_c, 0, 72, 61
1, 14112, Note_on_c, 0, 63, 0
1, 14112, Note_on_c, 1, 56, 61
1, 14136, Note_on_c, 0, 63, 61
1, 14146, Note_on_c, 0, 63, 0
1, 14157, Note_on_c, 0, 72, 0
1, 14160, Note_on_c, 0, 65, 61
1, 14167, Note_on_c, 0, 65, 0
1, 14167, Note_on_c, 0, 63, 61
1, 14174, Note_on_c, 0, 63, 0
1, 14174, Note_on_c, 0, 65, 61
1, 14181, Note_on_c, 0, 65, 0
1, 14181, Note_on_c, 0, 63, 61
1, 14188, Note_on_c, 0, 63, 0
1, 14188, Note_on_c, 0, 62, 61
1, 14195, Note_on_c, 0, 62, 0
1, 14195, Note_on_c, 0, 63, 61
1, 14201, Note_on_c, 1, 56, 0
1, 14208, Note_on_c, 0, 74, 61
1, 14208, Note_on_c, 0, 63, 0
1, 14208, Note_on_c, 1, 53, 61
1, 14232, Note_on_c, 0, 68, 63
1, 14242, Note_on_c, 0, 68, 0
1, 14256, Note_on_c, 0, 70, 66
1, 14263, Note_on_c, 0, 70, 0
1, 14263, Note_on_c, 0, 68, 67
1, 14270, Note_on_c, 0, 68, 0
1, 14270, Note_on_c, 0, 70, 68
1, 14277, Note_on_c, 0, 70, 0
1, 14277, Note_on_c, 0, 68, 68
1, 14284, Note_on_c, 0, 68, 0
1, 14284, Note_on_c, 0, 67, 69
1, 14291, Note_on_c, 0, 67, 0
1, 14291, Note_on_c, 0, 68, 70
1, 14297, Note_on_c, 0, 74, 0
1, 14304, Note_on_c, 0, 80, 72
1, 14304, Note_on_c, 0, 68, 0
1, 14328, Note_on_c, 0, 74, 74
1, 14338, Note_on_c, 0, 74, 0
1, 14352, Note_on_c, 0, 75, 77
1, 14359, Note_on_c, 0, 75, 0
1, 14359, Note_on_c, 0, 74, 78
1, 14366, Note_on_c, 0, 74, 0
1, 14366, Note_on_c, 0, 75, 78
1, 14373, Note_on_c, 0, 75, 0
1, 14373, Note_on_c, 0, 74, 79
1, 14380, Note_on_c, 0, 74, 0
1, 14380, Note_on_c, 0, 72, 80
1, 14387, Note_on_c, 0, 72, 0
1, 14387, Note_on_c, 0, 74, 81
1, 14393, Note_on_c, 0, 80, 0
1, 14400, Note_on_c, 0, 80, 84
1, 14400, Note_on_c, 0, 74, 84
1, 14400, Note_on_c, 0, 74, 0
1, 14489, Note_on_c, 0, 80, 0
1, 14489, Note_on_c, 0, 74, 0
1, 14489, Note_on_c, 1, 53, 0
1, 14489, Note_on_c, 1, 51, 0
1, 14496, Note_on_c, 0, 67, 84
1, 14496, Note_on_c, 1, 51, 84
1, 14502, Note_on_c, 1, 55, 84
1, 14508, Note_on_c, 0, 67, 0
1, 14508, Note_on_c, 0, 70, 84
1, 14508, Note_on_c, 1, 58, 84
1, 14514, Note_on_c, 1, 63, 84
1, 14520, Note_on_c, 0, 70, 0
1, 14520, Note_on_c, 0, 79, 84
1, 14520, Note_on_c, 0, 75, 84
1, 14592, Tempo, 1500000
1, 14681, Note_on_c, 1, 63, 0
1, 14681, Note_on_c, 1, 58, 0
1, 14681, Note_on_c, 1, 55, 0
1, 14681, Note_on_c, 1, 51, 0
1, 14688, Tempo, 1000000
1, 14688, Note_on_c, 0, 79, 0
1, 14688, Note_on_c, 0, 75, 0
1, 14688, Note_on_c, 0, 78, 61
1, 14712, Note_on_c, 0, 78, 0
1, 14712, Note_on_c, 0, 80, 61
1, 14735, Note_on_c, 0, 80, 0
1, 14736, Note_on_c, 0, 79, 77
1, 14760, Note_on_c, 0, 79, 0
1, 14760, Note_on_c, 0, 75, 61
1, 14783, Note_on_c, 0, 75, 0
1, 14784, Note_on_c, 0, 74, 61
1, 14808, Note_on_c, 0, 74, 0
1, 14808, Note_on_c, 0, 77, 61
1, 14831, Note_on_c, 0, 77, 0
1, 14832, Note_on_c, 0, 75, 77
1, 14856, Note_on_c, 0, 75, 0
1, 14856, Note_on_c, 0, 70, 61
1, 14879, Note_on_c, 0, 70, 0
1, 14880, Note_on_c, 0, 69, 61
1, 14904, Note_on_c, 0, 69, 0
1, 14904, Note_on_c, 0, 72, 61
1, 14927, Note_on_c, 0, 72, 0
1, 14928, Note_on_c, 0, 70, 77
1, 14952, Note_on_c, 0, 70, 0
1, 14952, Note_on_c, 0, 67, 61
1, 14975, Note_on_c, 0, 67, 0
1, 14976, Note_on_c, 0, 66, 61
1, 15000, Note_on_c, 0, 66, 0
1, 15000, Note_on_c, 0, 68, 61
1, 15023, Note_on_c, 0, 68, 0
1, 15024, Note_on_c, 0, 67, 77
1, 15048, Note_on_c, 0, 67, 0
1, 15048, Note_on_c, 0, 63, 61
1, 15071, Note_on_c, 0, 63, 0
1, 15072, Note_on_c, 0, 62, 61
1, 15095, Note_on_c, 0, 62, 0
1, 15096, Note_on_c, 0, 65, 61
1, 15119, Note_on_c, 0, 65, 0
1, 15120, Note_on_c, 0, 65, 77
1, 15144, Note_on_c, 0, 65, 0
1, 15144, Note_on_c, 0, 63, 63
1, 15167, Note_on_c, 0, 63, 0
1, 15168, Note_on_c, 0, 63, 65
1, 15178, Note_on_c, 0, 63, 0
1, 15192, Note_on_c, 0, 63, 67
1, 15202, Note_on_c, 0, 63, 0
1, 15216, Note_on_c, 0, 63, 70
1, 15226, Note_on_c, 0, 63, 0
1, 15240, Note_on_c, 0, 63, 72
1, 15250, Note_on_c, 0, 63, 0
1, 15264, Note_on_c, 0, 63, 74
1, 15274, Note_on_c, 0, 63, 0
1, 15288, Note_on_c, 0, 63, 77
1, 15298, Note_on_c, 0, 63, 0
1, 15312, Note_on_c, 0, 63, 79
1, 15357, Note_on_c, 0, 63, 0
1, 15360, Note_on_c, 0, 73, 100
1, 15360, Note_on_c, 0, 67, 100
1, 15360, Note_on_c, 1, 58, 84
1, 15360, Note_on_c, 1, 51, 84
1, 15493, Note_on_c, 1, 58, 0
1, 15493, Note_on_c, 1, 51, 0
1, 15504, Note_on_c, 0, 73, 0
1, 15504, Note_on_c, 0, 67, 0
1, 15552, Note_on_c, 0, 84, 84
1, 15552, Note_on_c, 0, 80, 84
1, 15600, Note_on_c, 1, 56, 84
1, 15600, Note_on_c, 1, 44, 84
1, 15620, Note_on_c, 1, 56, 0
1, 15620, Note_on_c, 1, 44, 0
1, 15648, Note_on_c, 1, 56, 84
1, 15648, Note_on_c, 1, 44, 84
1, 15663, Note_on_c, 0, 84, 0
1, 15663, Note_on_c, 0, 80, 0
1, 15664, Note_on_c, 0, 82, 84
1, 15664, Note_on_c, 0, 79, 84
1, 15679, Note_on_c, 0, 82, 0
1, 15679, Note_on_c, 0, 79, 0
1, 15680, Note_on_c, 0, 80, 84
1, 15680, Note_on_c, 0, 77, 84
1, 15695, Note_on_c, 0, 80, 0
1, 15695, Note_on_c, 0, 77, 0
1, 15696, Note_on_c, 0, 79, 84
1, 15696, Note_on_c, 0, 75, 84
1, 15711, Note_on_c, 0, 79, 0
1, 15711, Note_on_c, 0, 75, 0
1, 15712, Note_on_c, 0, 77, 82
1, 15712, Note_on_c, 0, 73, 82
1, 15727, Note_on_c, 0, 77, 0
1, 15727, Note_on_c, 0, 73, 0
1, 15728, Note_on_c, 0, 75, 80
1, 15728, Note_on_c, 0, 72, 80
1, 15737, Note_on_c, 1, 56, 0
1, 15737, Note_on_c, 1, 44, 0
1, 15743, Note_on_c, 0, 75, 0
1, 15743, Note_on_c, 0, 72, 0
1, 15744, Note_on_c, 0, 73, 78
1, 15744, Note_on_c, 0, 70, 78
1, 15789, Note_on_c, 0, 73, 0
1, 15789, Note_on_c, 0, 70, 0
1, 15792, Note_on_c, 0, 72, 70
1, 15792, Note_on_c, 0, 68, 70
1, 15837, Note_on_c, 0, 72, 0
1, 15837, Note_on_c, 0, 68, 0
1, 15840, Note_on_c, 1, 61, 61
1, 15888, Note_on_c, 0, 77, 61
1, 15888, Note_on_c, 0, 73, 61
1, 15929, Note_on_c, 1, 61, 0
1, 15933, Note_on_c, 0, 77, 0
1, 15933, Note_on_c, 0, 73, 0
1, 15936, Note_on_c, 0, 75, 61
1, 15936, Note_on_c, 0, 72, 61
1, 15936, Note_on_c, 1, 63, 61
1, 15981, Note_on_c, 0, 75, 0
1, 15981, Note_on_c, 0, 72, 0
1, 15981, Note_on_c, 1, 63, 0
1, 15984, Note_on_c, 0, 73, 61
1, 15984, Note_on_c, 0, 70, 61
1, 15984, Note_on_c, 1, 64, 61
1, 16029, Note_on_c, 1, 64, 0
1, 16032, Note_on_c, 1, 65, 61
1, 16073, Note_on_c, 0, 73, 0
1, 16073, Note_on_c, 0, 70, 0
1, 16080, Note_on_c, 0, 72, 61
1, 16080, Note_on_c, 0, 68, 61
1, 16121, Note_on_c, 1, 65, 0
1, 16125, Note_on_c, 0, 72, 0
1, 16125, Note_on_c, 0, 68, 0
1, 16128, Note_on_c, 1, 58, 61
1, 16176, Note_on_c, 0, 73, 61
1, 16176, Note_on_c, 0, 70, 61
1, 16217, Note_on_c, 1, 58, 0
1, 16224, Note_on_c, 1, 63, 61
1, 16265, Note_on_c, 0, 73, 0
1, 16265, Note_on_c, 0, 70, 0
1, 16272, Note_on_c, 0, 72, 61
1, 16272, Note_on_c, 0, 68, 61
1, 16313, Note_on_c, 1, 63, 0
1, 16320, Note_on_c, 1, 51, 61
1, 16361, Note_on_c, 0, 72, 0
1, 16361, Note_on_c, 0, 68, 0
1, 16368, Note_on_c, 0, 70, 61
1, 16368, Note_on_c, 0, 67, 61
1, 16409, Note_on_c, 1, 51, 0
1, 16416, Note_on_c, 1, 56, 61
1, 16464, Note_on_c, 0, 70, 0
1, 16464, Note_on_c, 0, 71, 61
1, 16509, Note_on_c, 0, 71, 0
1, 16509, Note_on_c, 0, 67, 0
1, 16512, Note_on_c, 0, 72, 61
1, 16512, Note_on_c, 0, 68, 61
1, 16593, Note_on_c, 1, 56, 0
1, 16601, Note_on_c, 0, 72, 0
1, 16601, Note_on_c, 0, 68, 0
1, 16624, Note_on_c, 0, 75, 61
1, 16624, Note_on_c, 0, 72, 61
1, 16631, Note_on_c, 0, 75, 0
1, 16631, Note_on_c, 0, 72, 0
1, 16640, Note_on_c, 0, 77, 64
1, 16640, Note_on_c, 0, 73, 64
1, 16647, Note_on_c, 0, 77, 0
1, 16647, Note_on_c, 0, 73, 0
1, 16656, Note_on_c, 0, 79, 67
1, 16656, Note_on_c, 0, 75, 67
1, 16663, Note_on_c, 0, 79, 0
1, 16663, Note_on_c, 0, 75, 0
1, 16672, Note_on_c, 0, 80, 70
1, 16672, Note_on_c, 0, 77, 70
1, 16679, Note_on_c, 0, 80, 0
1, 16679, Note_on_c, 0, 77, 0
1, 16688, Note_on_c, 0, 82, 74
1, 16688, Note_on_c, 0, 79, 74
1, 16695, Note_on_c, 0, 82, 0
1, 16695, Note_on_c, 0, 79, 0
1, 16704, Note_on_c, 0, 84, 100
1, 16704, Note_on_c, 0, 80, 100
1, 16752, Note_on_c, 1, 56, 84
1, 16752, Note_on_c, 1, 44, 84
1, 16772, Note_on_c, 1, 56, 0
1, 16772, Note_on_c, 1, 44, 0
1, 16800, Note_on_c, 1, 56, 84
1, 16800, Note_on_c, 1, 44, 84
1, 16815, Note_on_c, 0, 84, 0
1, 16815, Note_on_c, 0, 80, 0
1, 16816, Note_on_c, 0, 82, 84
1, 16816, Note_on_c, 0, 79, 84
1, 16831, Note_on_c, 0, 82, 0
1, 16831, Note_on_c, 0, 79, 0
1, 16832, Note_on_c, 0, 80, 84
1, 16832, Note_on_c, 0, 77, 84
1, 16847, Note_on_c, 0, 80, 0
1, 16847, Note_on_c, 0, 77, 0
1, 16848, Note_on_c, 0, 79, 84
1, 16848, Note_on_c, 0, 75, 84
1, 16863, Note_on_c, 0, 79, 0
1, 16863, Note_on_c, 0, 75, 0
1, 16864, Note_on_c, 0, 77, 82
1, 16864, Note_on_c, 0, 73, 82
1, 16879, Note_on_c, 0, 77, 0
1, 16879, Note_on_c, 0, 73, 0
1, 16880, Note_on_c, 0, 75, 80
1, 16880, Note_on_c, 0, 72, 80
1, 16889, Note_on_c, 1, 56, 0
1, 16889, Note_on_c, 1, 44, 0
1, 16895, Note_on_c, 0, 75, 0
1, 16895, Note_on_c, 0, 72, 0
1, 16896, Note_on_c, 0, 73, 78
1, 16896, Note_on_c, 0, 70, 78
1, 16941, Note_on_c, 0, 73, 0
1, 16941, Note_on_c, 0, 70, 0
1, 16944, Note_on_c, 0, 72, 70
1, 16944, Note_on_c, 0, 68, 70
1, 16989, Note_on_c, 0, 72, 0
1, 16989, Note_on_c, 0, 68, 0
1, 16992, Note_on_c, 1, 61, 61
1, 17040, Note_on_c, 0, 77, 61
1, 17040, Note_on_c, 0, 73, 61
1, 17081, Note_on_c, 1, 61, 0
1, 17085, Note_on_c, 0, 77, 0
1, 17085, Note_on_c, 0, 73, 0
1, 17088, Note_on_c, 0, 75, 61
1, 17088, Note_on_c, 0, 72, 61
1, 17088, Note_on_c, 1, 63, 61
1, 17133, Note_on_c, 0, 75, 0
1, 17133, Note_on_c, 0, 72, 0
1, 17133, Note_on_c, 1, 63, 0
1, 17136, Note_on_c, 0, 73, 61
1, 17136, Note_on_c, 0, 70, 61
1, 17136, Note_on_c, 1, 64, 61
1, 17181, Note_on_c, 1, 64, 0
1, 17184, Note_on_c, 1, 65, 61
1, 17225, Note_on_c, 0, 73, 0
1, 17225, Note_on_c, 0, 70, 0
1, 17232, Note_on_c, 0, 72, 61
1, 17232, Note_on_c, 0, 68, 61
1, 17273, Note_on_c, 1, 65, 0
1, 17280, Note_on_c, 1, 62, 61
1, 17325, Note_on_c, 0, 72, 0
1, 17325, Note_on_c, 0, 68, 0
1, 17328, Note_on_c, 0, 70, 61
1, 17328, Note_on_c, 0, 68, 61
1, 17369, Note_on_c, 1, 62, 0
1, 17373, Note_on_c, 0, 68, 0
1, 17376, Note_on_c, 0, 67, 61
1, 17376, Note_on_c, 1, 63, 61
1, 17417, Note_on_c, 0, 70, 0
1, 17421, Note_on_c, 0, 67, 0
1, 17424, Note_on_c, 0, 77, 61
1, 17465, Note_on_c, 1, 63, 0
1, 17469, Note_on_c, 0, 77, 0
1, 17472, Note_on_c, 0, 75, 61
1, 17472, Note_on_c, 1, 51, 61
1, 17517, Note_on_c, 0, 75, 0
1, 17520, Note_on_c, 0, 67, 61
1, 17520, Note_on_c, 0, 61, 61
1, 17520, Note_on_c, 0, 58, 61
1, 17561, Note_on_c, 1, 51, 0
1, 17565, Note_on_c, 0, 67, 0
1, 17565, Note_on_c, 0, 61, 0
1, 17565, Note_on_c, 0, 58, 0
1, 17568, Note_on_c, 0, 67, 61
1, 17568, Note_on_c, 0, 61, 61
1, 17568, Note_on_c, 0, 58, 61
1, 17568, Note_on_c, 1, 56, 61
1, 17568, Note_on_c, 1, 44, 61
1, 17657, Note_on_c, 0, 67, 0
1, 17657, Note_on_c, 0, 61, 0
1, 17657, Note_on_c, 0, 58, 0
1, 17664, Note_on_c, 0, 60, 61
1, 17672, Note_on_c, 0, 63, 61
1, 17680, Note_on_c, 0, 68, 61
1, 17745, Note_on_c, 1, 56, 0
1, 17745, Note_on_c, 1, 44, 0
1, 17757, Note_on_c, 0, 68, 0
1, 17757, Note_on_c, 0, 63, 0
1, 17757, Note_on_c, 0, 60, 0
1, 17856, Note_on_c, 1, 56, 61
1, 17856, Note_on_c, 1, 56, 61
1, 17901, Note_on_c, 1, 56, 0
1, 17904, Note_on_c, 1, 60, 61
1, 17949, Note_on_c, 1, 60, 0
1, 17952, Note_on_c, 1, 63, 61
1, 17997, Note_on_c, 1, 63, 0
1, 18000, Note_on_c, 0, 77, 61
1, 18000, Note_on_c, 1, 68, 61
1, 18033, Note_on_c, 1, 56, 0
1, 18045, Note_on_c, 0, 77, 0
1, 18045, Note_on_c, 1, 68, 0
1, 18048, Note_on_c, 0, 75, 61
1, 18048, Note_on_c, 1, 67, 61
1, 18048, Note_on_c, 1, 58, 61
1, 18054, Note_on_c, 0, 75, 0
1, 18054, Note_on_c, 0, 77, 61
1, 18060, Note_on_c, 0, 77, 0
1, 18060, Note_on_c, 0, 75, 61
1, 18093, Note_on_c, 1, 67, 0
1, 18095, Note_on_c, 0, 75, 0
1, 18096, Note_on_c, 0, 74, 61
1, 18096, Note_on_c, 1, 65, 61
1, 18137, Note_on_c, 1, 58, 0
1, 18144, Note_on_c, 1, 55, 61
1, 18189, Note_on_c, 0, 74, 0
1, 18189, Note_on_c, 1, 65, 0
1, 18192, Note_on_c, 0, 77, 61
1, 18192, Note_on_c, 1, 62, 61
1, 18237, Note_on_c, 0, 77, 0
1, 18237, Note_on_c, 1, 62, 0
1, 18240, Note_on_c, 0, 75, 61
1, 18240, Note_on_c, 1, 63, 61
1, 18285, Note_on_c, 1, 63, 0
1, 18288, Note_on_c, 1, 58, 61
1, 18321, Note_on_c, 1, 55, 0
1, 18329, Note_on_c, 0, 75, 0
1, 18333, Note_on_c, 1, 58, 0
1, 18336, Note_on_c, 0, 70, 61
1, 18336, Note_on_c, 1, 60, 61
1, 18336, Note_on_c, 1, 55, 61
1, 18381, Note_on_c, 1, 60, 0
1, 18384, Note_on_c, 1, 61, 61
1, 18425, Note_on_c, 1, 55, 0
1, 18432, Note_on_c, 1, 56, 61
1, 18477, Note_on_c, 0, 70, 0
1, 18477, Note_on_c, 1, 61, 0
1, 18480, Note_on_c, 0, 67, 61
1, 18480, Note_on_c, 1, 58, 61
1, 18525, Note_on_c, 0, 67, 0
1, 18525, Note_on_c, 1, 58, 0
1, 18528, Note_on_c, 0, 68, 77
1, 18528, Note_on_c, 1, 60, 61
1, 18565, Note_on_c, 1, 56, 0
1, 18576, Note_on_c, 1, 54, 61
1, 18617, Note_on_c, 1, 60, 0
1, 18621, Note_on_c, 1, 54, 0
1, 18624, Note_on_c, 0, 68, 0
1, 18624, Note_on_c, 0, 68, 61
1, 18624, Note_on_c, 1, 59, 61
1, 18624, Note_on_c, 1, 53, 61
1, 18669, Note_on_c, 1, 53, 0
1, 18672, Note_on_c, 1, 51, 61
1, 18717, Note_on_c, 1, 51, 0
1, 18720, Note_on_c, 1, 50, 61
1, 18765, Note_on_c, 0, 68, 0
1, 18768, Note_on_c, 0, 71, 61
1, 18809, Note_on_c, 1, 59, 0
1, 18813, Note_on_c, 0, 71, 0
1, 18816, Note_on_c, 0, 70, 61
1, 18816, Note_on_c, 1, 53, 61
1, 18861, Note_on_c, 0, 70, 0
1, 18864, Note_on_c, 0, 68, 61
1, 18905, Note_on_c, 1, 53, 0
1, 18909, Note_on_c, 0, 68, 0
1, 18912, Note_on_c, 0, 66, 61
1, 18912, Note_on_c, 1, 58, 61
1, 18918, Note_on_c, 0, 66, 0
1, 18918, Note_on_c, 0, 68, 61
1, 18924, Note_on_c, 0, 68, 0
1, 18924, Note_on_c, 0, 66, 61
1, 18959, Note_on_c, 0, 66, 0
1, 18960, Note_on_c, 0, 65, 61
1, 18985, Note_on_c, 1, 50, 0
1, 19005, Note_on_c, 0, 65, 0
1, 19008, Note_on_c, 0, 66, 61
1, 19008, Note_on_c, 0, 63, 61
1, 19008, Note_on_c, 1, 51, 61
1, 19053, Note_on_c, 1, 58, 0
1, 19053, Note_on_c, 1, 51, 0
1, 19056, Note_on_c, 1, 54, 61
1, 19101, Note_on_c, 1, 54, 0
1, 19104, Note_on_c, 1, 58, 61
1, 19141, Note_on_c, 0, 66, 0
1, 19141, Note_on_c, 0, 63, 0
1, 19149, Note_on_c, 1, 58, 0
1, 19152, Note_on_c, 0, 71, 61
1, 19152, Note_on_c, 0, 66, 61
1, 19152, Note_on_c, 1, 63, 61
1, 19197, Note_on_c, 0, 71, 0
1, 19197, Note_on_c, 0, 66, 0
1, 19197, Note_on_c, 1, 63, 0
1, 19200, Note_on_c, 0, 70, 61
1, 19200, Note_on_c, 0, 65, 61
1, 19200, Note_on_c, 1, 61, 61
1, 19245, Note_on_c, 0, 70, 0
1, 19245, Note_on_c, 0, 65, 0
1, 19245, Note_on_c, 1, 61, 0
1, 19248, Note_on_c, 0, 69, 61
1, 19248, Note_on_c, 0, 63, 61
1, 19248, Note_on_c, 1, 59, 61
1, 19282, Note_on_c, 0, 69, 0
1, 19284, Note_on_c, 0, 75, 61
1, 19296, Note_on_c, 0, 75, 0
1, 19296, Note_on_c, 0, 75, 61
1, 19341, Note_on_c, 0, 63, 0
1, 19341, Note_on_c, 1, 59, 0
1, 19344, Note_on_c, 0, 66, 61
1, 19344, Note_on_c, 1, 57, 61
1, 19389, Note_on_c, 0, 66, 0
1, 19389, Note_on_c, 1, 57, 0
1, 19392, Note_on_c, 0, 75, 0
1, 19392, Note_on_c, 0, 74, 61
1, 19392, Note_on_c, 0, 65, 61
1, 19392, Note_on_c, 1, 58, 61
1, 19437, Note_on_c, 0, 74, 0
1, 19437, Note_on_c, 0, 65, 0
1, 19437, Note_on_c, 1, 58, 0
1, 19440, Note_on_c, 0, 71, 61
1, 19440, Note_on_c, 0, 62, 61
1, 19440, Note_on_c, 1, 53, 61
1, 19485, Note_on_c, 0, 71, 0
1, 19485, Note_on_c, 0, 62, 0
1, 19485, Note_on_c, 1, 53, 0
1, 19488, Note_on_c, 0, 70, 61
1, 19488, Note_on_c, 0, 63, 61
1, 19488, Note_on_c, 1, 54, 61
1, 19533, Note_on_c, 0, 70, 0
1, 19533, Note_on_c, 0, 63, 0
1, 19533, Note_on_c, 1, 54, 0
1, 19536, Note_on_c, 0, 65, 61
1, 19536, Note_on_c, 0, 62, 61
1, 19536, Note_on_c, 0, 59, 61
1, 19536, Note_on_c, 1, 56, 61
1, 19581, Note_on_c, 0, 65, 0
1, 19581, Note_on_c, 0, 62, 0
1, 19581, Note_on_c, 0, 59, 0
1, 19581, Note_on_c, 1, 56, 0
1, 19584, Note_on_c, 0, 63, 61
1, 19584, Note_on_c, 0, 58, 61
1, 19584, Note_on_c, 1, 54, 61
1, 19629, Note_on_c, 0, 63, 0
1, 19629, Note_on_c, 1, 54, 0
1, 19632, Note_on_c, 0, 65, 61
1, 19632, Note_on_c, 1, 53, 61
1, 19677, Note_on_c, 0, 65, 0
1, 19677, Note_on_c, 1, 53, 0
1, 19680, Note_on_c, 0, 66, 61
1, 19680, Note_on_c, 1, 51, 61
1, 19725, Note_on_c, 1, 51, 0
1, 19728, Note_on_c, 1, 49, 61
1, 19761, Note_on_c, 0, 58, 0
1, 19773, Note_on_c, 1, 49, 0
1, 19776, Note_on_c, 0, 63, 61
1, 19776, Note_on_c, 1, 48, 61
1, 19821, Note_on_c, 0, 63, 0
1, 19821, Note_on_c, 1, 48, 0
1, 19824, Note_on_c, 0, 61, 61
1, 19824, Note_on_c, 1, 46, 61
1, 19869, Note_on_c, 0, 61, 0
1, 19869, Note_on_c, 1, 46, 0
1, 19872, Note_on_c, 0, 60, 61
1, 19872, Note_on_c, 1, 45, 61
1, 19917, Note_on_c, 0, 66, 0
1, 19920, Note_on_c, 0, 66, 61
1, 19961, Note_on_c, 0, 60, 0
1, 19961, Note_on_c, 1, 45, 0
1, 19965, Note_on_c, 0, 66, 0
1, 19968, Note_on_c, 0, 65, 61
1, 19968, Note_on_c, 1, 60, 61
1, 19968, Note_on_c, 1, 57, 61
1, 20013, Note_on_c, 0, 65, 0
1, 20016, Note_on_c, 0, 75, 61
1, 20057, Note_on_c, 1, 60, 0
1, 20057, Note_on_c, 1, 57, 0
1, 20061, Note_on_c, 0, 75, 0
1, 20064, Note_on_c, 0, 69, 61
1, 20064, Note_on_c, 1, 65, 61
1, 20064, Note_on_c, 1, 63, 61
1, 20109, Note_on_c, 0, 69, 0
1, 20112, Note_on_c, 0, 72, 61
1, 20153, Note_on_c, 1, 65, 0
1, 20153, Note_on_c, 1, 63, 0
1, 20157, Note_on_c, 0, 72, 0
1, 20160, Note_on_c, 0, 70, 61
1, 20160, Note_on_c, 1, 65, 61
1, 20160, Note_on_c, 1, 61, 61
1, 20205, Note_on_c, 0, 70, 0
1, 20208, Note_on_c, 0, 73, 61
1, 20249, Note_on_c, 1, 65, 0
1, 20249, Note_on_c, 1, 61, 0
1, 20253, Note_on_c, 0, 73, 0
1, 20256, Note_on_c, 0, 77, 61
1, 20301, Note_on_c, 0, 77, 0
1, 20304, Note_on_c, 0, 82, 61
1, 20349, Note_on_c, 0, 82, 0
1, 20352, Note_on_c, 0, 85, 61
1, 20352, Note_on_c, 0, 80, 61
1, 20352, Note_on_c, 1, 70, 61
1, 20397, Note_on_c, 0, 80, 0
1, 20400, Note_on_c, 0, 78, 61
1, 20441, Note_on_c, 1, 70, 0
1, 20445, Note_on_c, 0, 78, 0
1, 20448, Note_on_c, 0, 85, 0
1, 20448, Note_on_c, 0, 84, 61
1, 20448, Note_on_c, 0, 78, 61
1, 20448, Note_on_c, 1, 69, 61
1, 20493, Note_on_c, 0, 78, 0
1, 20496, Note_on_c, 0, 76, 61
1, 20541, Note_on_c, 0, 76, 0
1, 20544, Note_on_c, 0, 77, 61
1, 20581, Note_on_c, 0, 84, 0
1, 20589, Note_on_c, 0, 77, 0
1, 20592, Note_on_c, 0, 81, 61
1, 20592, Note_on_c, 0, 72, 61
1, 20625, Note_on_c, 1, 69, 0
1, 20637, Note_on_c, 0, 81, 0
1, 20637, Note_on_c, 0, 72, 0
1, 20640, Note_on_c, 0, 82, 61
1, 20640, Note_on_c, 0, 73, 61
1, 20640, Note_on_c, 1, 65, 61
1, 20685, Note_on_c, 0, 82, 0
1, 20685, Note_on_c, 0, 73, 0
1, 20688, Note_on_c, 0, 84, 61
1, 20688, Note_on_c, 0, 75, 61
1, 20729, Note_on_c, 1, 65, 0
1, 20733, Note_on_c, 0, 84, 0
1, 20736, Note_on_c, 0, 77, 61
1, 20736, Note_on_c, 1, 70, 61
1, 20781, Note_on_c, 0, 75, 0
1, 20784, Note_on_c, 0, 72, 61
1, 20829, Note_on_c, 0, 72, 0
1, 20832, Note_on_c, 0, 73, 61
1, 20877, Note_on_c, 0, 73, 0
1, 20880, Note_on_c, 0, 82, 61
1, 20913, Note_on_c, 0, 77, 0
1, 20913, Note_on_c, 1, 70, 0
1, 20914, Note_on_c, 0, 82, 0
1, 20916, Note_on_c, 0, 80, 61
1, 20928, Note_on_c, 0, 85, 61
1, 20928, Note_on_c, 0, 80, 0
1, 20928, Note_on_c, 0, 79, 61
1, 20928, Note_on_c, 1, 70, 61
1, 20973, Note_on_c, 0, 79, 0
1, 20976, Note_on_c, 0, 77, 61
1, 21021, Note_on_c, 0, 77, 0
1, 21024, Note_on_c, 0, 85, 0
1, 21024, Note_on_c, 0, 84, 61
1, 21024, Note_on_c, 0, 76, 61
1, 21069, Note_on_c, 0, 76, 0
1, 21072, Note_on_c, 0, 79, 61
1, 21113, Note_on_c, 1, 70, 0
1, 21117, Note_on_c, 0, 79, 0
1, 21120, Note_on_c, 0, 77, 61
1, 21120, Note_on_c, 1, 68, 61
1, 21165, Note_on_c, 0, 77, 0
1, 21168, Note_on_c, 0, 80, 61
1, 21201, Note_on_c, 0, 84, 0
1, 21202, Note_on_c, 0, 80, 0
1, 21204, Note_on_c, 0, 79, 61
1, 21209, Note_on_c, 1, 68, 0
1, 21216, Note_on_c, 0, 83, 61
1, 21216, Note_on_c, 0, 79, 0
1, 21216, Note_on_c, 0, 77, 61
1, 21216, Note_on_c, 1, 68, 61
1, 21261, Note_on_c, 0, 77, 0
1, 21264, Note_on_c, 0, 75, 61
1, 21309, Note_on_c, 0, 75, 0
1, 21312, Note_on_c, 0, 83, 0
1, 21312, Note_on_c, 0, 82, 61
1, 21312, Note_on_c, 0, 74, 61
1, 21357, Note_on_c, 0, 74, 0
1, 21360, Note_on_c, 0, 77, 61
1, 21401, Note_on_c, 1, 68, 0
1, 21405, Note_on_c, 0, 77, 0
1, 21408, Note_on_c, 0, 75, 61
1, 21408, Note_on_c, 1, 66, 61
1, 21420, Note_on_c, 0, 75, 0
1, 21420, Note_on_c, 0, 74, 61
1, 21432, Note_on_c, 0, 74, 0
1, 21432, Note_on_c, 0, 75, 61
1, 21444, Note_on_c, 0, 75, 0
1, 21444, Note_on_c, 0, 77, 61
1, 21456, Note_on_c, 0, 77, 0
1, 21456, Note_on_c, 0, 78, 61
1, 21479, Note_on_c, 0, 78, 0
1, 21480, Note_on_c, 0, 77, 61
1, 21489, Note_on_c, 0, 82, 0
1, 21497, Note_on_c, 1, 66, 0
1, 21503, Note_on_c, 0, 77, 0
1, 21504, Note_on_c, 0, 82, 61
1, 21504, Note_on_c, 0, 75, 61
1, 21504, Note_on_c, 1, 66, 61
1, 21549, Note_on_c, 0, 75, 0
1, 21552, Note_on_c, 0, 73, 61
1, 21597, Note_on_c, 0, 73, 0
1, 21600, Note_on_c, 0, 82, 0
1, 21600, Note_on_c, 0, 80, 61
1, 21600, Note_on_c, 0, 72, 61
1, 21645, Note_on_c, 0, 72, 0
1, 21648, Note_on_c, 0, 75, 61
1, 21689, Note_on_c, 1, 66, 0
1, 21693, Note_on_c, 0, 75, 0
1, 21696, Note_on_c, 0, 75, 61
1, 21696, Note_on_c, 1, 65, 61
1, 21733, Note_on_c, 0, 80, 0
1, 21741, Note_on_c, 0, 75, 0
1, 21744, Note_on_c, 0, 80, 61
1, 21744, Note_on_c, 0, 73, 61
1, 21750, Note_on_c, 0, 73, 0
1, 21750, Note_on_c, 0, 72, 61
1, 21756, Note_on_c, 0, 72, 0
1, 21756, Note_on_c, 0, 73, 61
1, 21785, Note_on_c, 1, 65, 0
1, 21789, Note_on_c, 0, 80, 0
1, 21792, Note_on_c, 0, 78, 61
1, 21792, Note_on_c, 1, 63, 61
1, 21835, Note_on_c, 0, 73, 0
1, 21840, Note_on_c, 0, 72, 61
1, 21881, Note_on_c, 1, 63, 0
1, 21885, Note_on_c, 0, 72, 0
1, 21888, Note_on_c, 0, 73, 61
1, 21888, Note_on_c, 1, 61, 61
1, 21933, Note_on_c, 0, 78, 0
1, 21933, Note_on_c, 0, 73, 0
1, 21936, Note_on_c, 0, 77, 61
1, 21936, Note_on_c, 0, 68, 61
1, 21977, Note_on_c, 1, 61, 0
1, 21981, Note_on_c, 0, 68, 0
1, 21984, Note_on_c, 0, 70, 61
1, 21984, Note_on_c, 1, 54, 61
1, 22025, Note_on_c, 0, 77, 0
1, 22032, Note_on_c, 0, 75, 61
1, 22077, Note_on_c, 0, 75, 0
1, 22080, Note_on_c, 0, 82, 61
1, 22117, Note_on_c, 0, 70, 0
1, 22117, Note_on_c, 1, 54, 0
1, 22125, Note_on_c, 0, 82, 0
1, 22128, Note_on_c, 0, 73, 61
1, 22128, Note_on_c, 1, 55, 61
1, 22128, Note_on_c, 1, 63, 61
1, 22173, Note_on_c, 0, 73, 0
1, 22173, Note_on_c, 1, 55, 0
1, 22173, Note_on_c, 1, 63, 0
1, 22176, Note_on_c, 0, 73, 61
1, 22176, Note_on_c, 0, 68, 61
1, 22176, Note_on_c, 1, 56, 61
1, 22176, Note_on_c, 1, 63, 61
1, 22199, Note_on_c, 0, 73, 0
1, 22200, Note_on_c, 0, 72, 61
1, 22221, Note_on_c, 0, 68, 0
1, 22221, Note_on_c, 1, 63, 0
1, 22223, Note_on_c, 0, 72, 0
1, 22224, Note_on_c, 0, 75, 61
1, 22224, Note_on_c, 0, 63, 61
1, 22224, Note_on_c, 1, 61, 61
1, 22247, Note_on_c, 0, 75, 0
1, 22248, Note_on_c, 0, 67, 61
1, 22269, Note_on_c, 0, 63, 0
1, 22269, Note_on_c, 1, 61, 0
1, 22271, Note_on_c, 0, 67, 0
1, 22272, Note_on_c, 0, 70, 61
1, 22272, Note_on_c, 1, 60, 61
1, 22278, Note_on_c, 0, 70, 0
1, 22278, Note_on_c, 0, 68, 61
1, 22284, Note_on_c, 0, 68, 0
1, 22284, Note_on_c, 0, 67, 61
1, 22290, Note_on_c, 0, 67, 0
1, 22290, Note_on_c, 0, 68, 61
1, 22309, Note_on_c, 1, 56, 0
1, 22317, Note_on_c, 1, 60, 0
1, 22320, Note_on_c, 1, 54, 61
1, 22320, Note_on_c, 1, 58, 61
1, 22365, Note_on_c, 1, 54, 0
1, 22365, Note_on_c, 1, 58, 0
1, 22368, Note_on_c, 1, 53, 65
1, 22368, Note_on_c, 1, 56, 61
1, 22397, Note_on_c, 0, 68, 0
1, 22413, Note_on_c, 1, 53, 0
1, 22413, Note_on_c, 1, 56, 0
1, 22416, Note_on_c, 1, 51, 70
1, 22416, Note_on_c, 1, 54, 61
1, 22461, Note_on_c, 1, 51, 0
1, 22461, Note_on_c, 1, 54, 0
1, 22464, Note_on_c, 0, 61, 75
1, 22464, Note_on_c, 1, 53, 69
1, 22464, Note_on_c, 1, 49, 69
1, 22509, Note_on_c, 0, 61, 0
1, 22512, Note_on_c, 0, 65, 75
1, 22557, Note_on_c, 0, 65, 0
1, 22560, Note_on_c, 0, 68, 75
1, 22605, Note_on_c, 0, 68, 0
1, 22608, Note_on_c, 0, 73, 75
1, 22641, Note_on_c, 1, 53, 0
1, 22641, Note_on_c, 1, 49, 0
1, 22653, Note_on_c, 0, 73, 0
1, 22656, Note_on_c, 0, 72, 75
1, 22656, Note_on_c, 1, 65, 61
1, 22656, Note_on_c, 1, 61, 61
1, 22701, Note_on_c, 0, 72, 0
1, 22704, Note_on_c, 0, 70, 75
1, 22745, Note_on_c, 1, 65, 0
1, 22745, Note_on_c, 1, 61, 0
1, 22752, Note_on_c, 1, 63, 61
1, 22752, Note_on_c, 1, 60, 61
1, 22797, Note_on_c, 0, 70, 0
1, 22800, Note_on_c, 0, 67, 75
1, 22845, Note_on_c, 0, 67, 0
1, 22848, Note_on_c, 0, 68, 75
1, 22915, Note_on_c, 0, 68, 0
1, 22920, Note_on_c, 0, 85, 75
1, 22928, Note_on_c, 0, 85, 0
1, 22928, Note_on_c, 0, 82, 75
1, 22929, Note_on_c, 1, 63, 0
1, 22929, Note_on_c, 1, 60, 0
1, 22936, Note_on_c, 0, 82, 0
1, 22936, Note_on_c, 0, 79, 75
1, 22944, Note_on_c, 0, 79, 0
1, 22944, Note_on_c, 0, 80, 75
1, 22989, Note_on_c, 0, 80, 0
1, 23040, Note_on_c, 0, 59, 69
1, 23085, Note_on_c, 0, 59, 0
1, 23088, Note_on_c, 0, 63, 69
1, 23133, Note_on_c, 0, 63, 0
1, 23136, Note_on_c, 0, 68, 69
1, 23181, Note_on_c, 0, 68, 0
1, 23184, Note_on_c, 0, 71, 69
1, 23229, Note_on_c, 0, 71, 0
1, 23232, Note_on_c, 0, 70, 69
1, 23232, Note_on_c, 1, 63, 61
1, 23232, Note_on_c, 1, 59, 61
1, 23277, Note_on_c, 0, 70, 0
1, 23280, Note_on_c, 0, 68, 69
1, 23321, Note_on_c, 1, 63, 0
1, 23321, Note_on_c, 1, 59, 0
1, 23328, Note_on_c, 1, 61, 61
1, 23328, Note_on_c, 1, 58, 61
1, 23373, Note_on_c, 0, 68, 0
1, 23376, Note_on_c, 0, 65, 69
1, 23421, Note_on_c, 0, 65, 0
1, 23424, Note_on_c, 0, 66, 69
1, 23491, Note_on_c, 0, 66, 0
1, 23496, Note_on_c, 0, 83, 69
1, 23504, Note_on_c, 0, 83, 0
1, 23504, Note_on_c, 0, 80, 69
1, 23505, Note_on_c, 1, 61, 0
1, 23505, Note_on_c, 1, 58, 0
1, 23512, Note_on_c, 0, 80, 0
1, 23512, Note_on_c, 0, 77, 69
1, 23520, Note_on_c, 0, 77, 0
1, 23520, Note_on_c, 0, 78, 69
1, 23565, Note_on_c, 0, 78, 0
1, 23616, Note_on_c, 0, 57, 61
1, 23661, Note_on_c, 0, 57, 0
1, 23664, Note_on_c, 0, 61, 61
1, 23709, Note_on_c, 0, 61, 0
1, 23712, Note_on_c, 0, 66, 61
1, 23757, Note_on_c, 0, 66, 0
1, 23760, Note_on_c, 0, 69, 61
1, 23805, Note_on_c, 0, 69, 0
1, 23808, Note_on_c, 0, 68, 61
1, 23808, Note_on_c, 1, 61, 61
1, 23808, Note_on_c, 1, 57, 61
1, 23853, Note_on_c, 0, 68, 0
1, 23856, Note_on_c, 0, 66, 61
1, 23897, Note_on_c, 1, 61, 0
1, 23897, Note_on_c, 1, 57, 0
1, 23901, Note_on_c, 0, 66, 0
1, 23904, Note_on_c, 0, 73, 61
1, 23904, Note_on_c, 1, 66, 61
1, 23904, Note_on_c, 1, 63, 61
1, 23904, Note_on_c, 1, 56, 61
1, 23952, Note_on_c, 0, 73, 0
1, 23952, Note_on_c, 0, 72, 61
1, 23993, Note_on_c, 0, 72, 0
1, 24000, Note_on_c, 0, 72, 61
1, 24067, Note_on_c, 0, 72, 0
1, 24072, Note_on_c, 0, 73, 61
1, 24081, Note_on_c, 1, 66, 0
1, 24081, Note_on_c, 1, 63, 0
1, 24081, Note_on_c, 1, 56, 0
1, 24082, Note_on_c, 0, 73, 0
1, 24096, Note_on_c, 0, 75, 61
1, 24103, Note_on_c, 0, 75, 0
1, 24103, Note_on_c, 0, 73, 62
1, 24110, Note_on_c, 0, 73, 0
1, 24110, Note_on_c, 0, 75, 63
1, 24117, Note_on_c, 0, 75, 0
1, 24117, Note_on_c, 0, 73, 65
1, 24124, Note_on_c, 0, 73, 0
1, 24124, Note_on_c, 0, 75, 66
1, 24131, Note_on_c, 0, 75, 0
1, 24131, Note_on_c, 0, 73, 68
1, 24138, Note_on_c, 0, 73, 0
1, 24138, Note_on_c, 0, 75, 69
1, 24145, Note_on_c, 0, 75, 0
1, 24145, Note_on_c, 0, 73, 71
1, 24152, Note_on_c, 0, 73, 0
1, 24152, Note_on_c, 0, 75, 72
1, 24159, Note_on_c, 0, 75, 0
1, 24159, Note_on_c, 0, 73, 73
1, 24166, Note_on_c, 0, 73, 0
1, 24166, Note_on_c, 0, 72, 75
1, 24180, Note_on_c, 0, 72, 0
1, 24180, Note_on_c, 0, 73, 78
1, 24192, Note_on_c, 0, 73, 0
1, 24192, Note_on_c, 0, 75, 84
1, 24192, Note_on_c, 1, 56, 84
1, 24192, Note_on_c, 1, 51, 84
1, 24192, Note_on_c, 1, 48, 84
1, 24295, Note_on_c, 0, 75, 0
1, 24295, Note_on_c, 0, 65, 69
1, 24309, Note_on_c, 0, 65, 0
1, 24309, Note_on_c, 0, 66, 69
1, 24316, Note_on_c, 0, 66, 0
1, 24316, Note_on_c, 0, 68, 69
1, 24323, Note_on_c, 0, 68, 0
1, 24323, Note_on_c, 0, 66, 69
1, 24330, Note_on_c, 0, 66, 0
1, 24330, Note_on_c, 0, 68, 69
1, 24337, Note_on_c, 0, 68, 0
1, 24337, Note_on_c, 0, 66, 69
1, 24344, Note_on_c, 0, 66, 0
1, 24344, Note_on_c, 0, 68, 69
1, 24351, Note_on_c, 0, 68, 0
1, 24351, Note_on_c, 0, 66, 69
1, 24358, Note_on_c, 0, 66, 0
1, 24358, Note_on_c, 0, 68, 69
1, 24365, Note_on_c, 0, 68, 0
1, 24365, Note_on_c, 0, 66, 69
1, 24372, Note_on_c, 0, 66, 0
1, 24372, Note_on_c, 0, 68, 69
1, 24378, Note_on_c, 0, 68, 0
1, 24378, Note_on_c, 0, 66, 69
1, 24384, Note_on_c, 0, 66, 0
1, 24384, Note_on_c, 0, 68, 69
1, 24391, Note_on_c, 0, 68, 0
1, 24391, Note_on_c, 0, 66, 69
1, 24398, Note_on_c, 0, 66, 0
1, 24398, Note_on_c, 0, 68, 69
1, 24405, Note_on_c, 0, 68, 0
1, 24405, Note_on_c, 0, 66, 69
1, 24412, Note_on_c, 0, 66, 0
1, 24412, Note_on_c, 0, 65, 69
1, 24419, Note_on_c, 0, 65, 0
1, 24419, Note_on_c, 0, 66, 69
1, 24426, Note_on_c, 0, 66, 0
1, 24426, Note_on_c, 0, 68, 69
1, 24432, Note_on_c, 0, 68, 0
1, 24432, Note_on_c, 0, 70, 69
1, 24447, Note_on_c, 0, 70, 0
1, 24448, Note_on_c, 0, 68, 69
1, 24457, Note_on_c, 1, 56, 0
1, 24457, Note_on_c, 1, 51, 0
1, 24457, Note_on_c, 1, 48, 0
1, 24463, Note_on_c, 0, 68, 0
1, 24464, Note_on_c, 0, 66, 69
1, 24479, Note_on_c, 0, 66, 0
1, 24480, Note_on_c, 0, 65, 61
1, 24480, Note_on_c, 1, 56, 61
1, 24480, Note_on_c, 1, 53, 61
1, 24480, Note_on_c, 1, 49, 61
1, 24503, Note_on_c, 0, 65, 0
1, 24504, Note_on_c, 0, 68, 61
1, 24514, Note_on_c, 0, 68, 0
1, 24528, Note_on_c, 0, 70, 61
1, 24535, Note_on_c, 0, 70, 0
1, 24535, Note_on_c, 0, 68, 61
1, 24542, Note_on_c, 0, 68, 0
1, 24542, Note_on_c, 0, 70, 61
1, 24549, Note_on_c, 0, 70, 0
1, 24549, Note_on_c, 0, 68, 61
1, 24556, Note_on_c, 0, 68, 0
1, 24556, Note_on_c, 0, 66, 61
1, 24563, Note_on_c, 0, 66, 0
1, 24563, Note_on_c, 0, 68, 61
1, 24569, Note_on_c, 1, 56, 0
1, 24569, Note_on_c, 1, 53, 0
1, 24569, Note_on_c, 1, 49, 0
1, 24576, Note_on_c, 0, 68, 0
1, 24576, Note_on_c, 1, 61, 61
1, 24576, Note_on_c, 1, 53, 61
1, 24600, Note_on_c, 0, 68, 61
1, 24610, Note_on_c, 0, 68, 0
1, 24624, Note_on_c, 0, 70, 61
1, 24631, Note_on_c, 0, 70, 0
1, 24631, Note_on_c, 0, 68, 61
1, 24638, Note_on_c, 0, 68, 0
1, 24638, Note_on_c, 0, 70, 61
1, 24645, Note_on_c, 0, 70, 0
1, 24645, Note_on_c, 0, 68, 61
1, 24652, Note_on_c, 0, 68, 0
1, 24652, Note_on_c, 0, 66, 61
1, 24659, Note_on_c, 0, 66, 0
1, 24659, Note_on_c, 0, 68, 61
1, 24665, Note_on_c, 1, 61, 0
1, 24665, Note_on_c, 1, 53, 0
1, 24672, Note_on_c, 0, 68, 0
1, 24672, Note_on_c, 0, 77, 61
1, 24672, Note_on_c, 1, 53, 61
1, 24672, Note_on_c, 1, 49, 61
1, 24687, Note_on_c, 0, 77, 0
1, 24688, Note_on_c, 0, 75, 61
1, 24703, Note_on_c, 0, 75, 0
1, 24704, Note_on_c, 0, 73, 61
1, 24719, Note_on_c, 0, 73, 0
1, 24720, Note_on_c, 0, 72, 61
1, 24735, Note_on_c, 0, 72, 0
1, 24736, Note_on_c, 0, 70, 61
1, 24751, Note_on_c, 0, 70, 0
1, 24752, Note_on_c, 0, 68, 61
1, 24761, Note_on_c, 1, 53, 0
1, 24761, Note_on_c, 1, 49, 0
1, 24767, Note_on_c, 0, 68, 0
1, 24768, Note_on_c, 0, 68, 61
1, 24768, Note_on_c, 1, 51, 61
1, 24768, Note_on_c, 1, 51, 61
1, 24792, Note_on_c, 0, 61, 61
1, 24802, Note_on_c, 0, 61, 0
1, 24816, Note_on_c, 0, 63, 61
1, 24823, Note_on_c, 0, 63, 0
1, 24823, Note_on_c, 0, 61, 61
1, 24830, Note_on_c, 0, 61, 0
1, 24830, Note_on_c, 0, 63, 61
1, 24837, Note_on_c, 0, 63, 0
1, 24837, Note_on_c, 0, 61, 61
1, 24844, Note_on_c, 0, 61, 0
1, 24844, Note_on_c, 0, 60, 61
1, 24851, Note_on_c, 0, 60, 0
1, 24851, Note_on_c, 0, 61, 61
1, 24857, Note_on_c, 1, 51, 0
1, 24864, Note_on_c, 0, 68, 0
1, 24864, Note_on_c, 0, 66, 61
1, 24864, Note_on_c, 0, 61, 0
1, 24864, Note_on_c, 1, 58, 61
1, 24888, Note_on_c, 0, 61, 61
1, 24898, Note_on_c, 0, 61, 0
1, 24912, Note_on_c, 0, 63, 61
1, 24919, Note_on_c, 0, 63, 0
1, 24919, Note_on_c, 0, 61, 61
1, 24926, Note_on_c, 0, 61, 0
1, 24926, Note_on_c, 0, 63, 61
1, 24933, Note_on_c, 0, 63, 0
1, 24933, Note_on_c, 0, 61, 61
1, 24940, Note_on_c, 0, 61, 0
1, 24940, Note_on_c, 0, 60, 61
1, 24945, Note_on_c, 1, 51, 0
1, 24947, Note_on_c, 0, 60, 0
1, 24947, Note_on_c, 0, 61, 61
1, 24953, Note_on_c, 0, 66, 0
1, 24953, Note_on_c, 1, 58, 0
1, 24960, Note_on_c, 0, 61, 0
1, 24960, Note_on_c, 0, 70, 61
1, 24960, Note_on_c, 1, 51, 61
1, 24960, Note_on_c, 1, 42, 61
1, 24975, Note_on_c, 0, 70, 0
1, 24976, Note_on_c, 0, 68, 61
1, 24991, Note_on_c, 0, 68, 0
1, 24992, Note_on_c, 0, 66, 61
1, 25007, Note_on_c, 0, 66, 0
1, 25008, Note_on_c, 0, 65, 61
1, 25023, Note_on_c, 0, 65, 0
1, 25024, Note_on_c, 0, 63, 61
1, 25039, Note_on_c, 0, 63, 0
1, 25040, Note_on_c, 0, 61, 61
1, 25049, Note_on_c, 1, 42, 0
1, 25055, Note_on_c, 0, 61, 0
1, 25056, Note_on_c, 0, 61, 61
1, 25056, Note_on_c, 1, 44, 61
1, 25080, Note_on_c, 0, 66, 61
1, 25090, Note_on_c, 0, 66, 0
1, 25104, Note_on_c, 0, 68, 61
1, 25111, Note_on_c, 0, 68, 0
1, 25111, Note_on_c, 0, 66, 61
1, 25118, Note_on_c, 0, 66, 0
1, 25118, Note_on_c, 0, 68, 61
1, 25125, Note_on_c, 0, 68, 0
1, 25125, Note_on_c, 0, 66, 61
1, 25132, Note_on_c, 0, 66, 0
1, 25132, Note_on_c, 0, 65, 61
1, 25139, Note_on_c, 0, 65, 0
1, 25139, Note_on_c, 0, 66, 61
1, 25145, Note_on_c, 1, 51, 0
1, 25152, Note_on_c, 0, 66, 0
1, 25152, Note_on_c, 0, 61, 0
1, 25152, Note_on_c, 0, 60, 61
1, 25152, Note_on_c, 1, 56, 61
1, 25176, Note_on_c, 0, 66, 61
1, 25186, Note_on_c, 0, 66, 0
1, 25200, Note_on_c, 0, 68, 61
1, 25207, Note_on_c, 0, 68, 0
1, 25207, Note_on_c, 0, 66, 61
1, 25214, Note_on_c, 0, 66, 0
1, 25214, Note_on_c, 0, 68, 61
1, 25221, Note_on_c, 0, 68, 0
1, 25221, Note_on_c, 0, 66, 61
1, 25228, Note_on_c, 0, 66, 0
1, 25228, Note_on_c, 0, 65, 61
1, 25233, Note_on_c, 1, 44, 0
1, 25235, Note_on_c, 0, 65, 0
1, 25235, Note_on_c, 0, 66, 61
1, 25241, Note_on_c, 0, 60, 0
1, 25248, Note_on_c, 0, 66, 0
1, 25248, Note_on_c, 0, 75, 61
1, 25248, Note_on_c, 1, 48, 61
1, 25263, Note_on_c, 0, 75, 0
1, 25264, Note_on_c, 0, 73, 61
1, 25279, Note_on_c, 0, 73, 0
1, 25280, Note_on_c, 0, 72, 61
1, 25295, Note_on_c, 0, 72, 0
1, 25296, Note_on_c, 0, 70, 61
1, 25311, Note_on_c, 0, 70, 0
1, 25312, Note_on_c, 0, 68, 61
1, 25327, Note_on_c, 0, 68, 0
1, 25328, Note_on_c, 0, 66, 61
1, 25337, Note_on_c, 1, 48, 0
1, 25343, Note_on_c, 0, 66, 0
1, 25344, Note_on_c, 0, 66, 61
1, 25344, Note_on_c, 1, 49, 61
1, 25368, Note_on_c, 0, 59, 61
1, 25378, Note_on_c, 0, 59, 0
1, 25392, Note_on_c, 0, 61, 61
1, 25399, Note_on_c, 0, 61, 0
1, 25399, Note_on_c, 0, 59, 61
1, 25406, Note_on_c, 0, 59, 0
1, 25406, Note_on_c, 0, 61, 61
1, 25413, Note_on_c, 0, 61, 0
1, 25413, Note_on_c, 0, 59, 61
1, 25420, Note_on_c, 0, 59, 0
1, 25420, Note_on_c, 0, 58, 61
1, 25427, Note_on_c, 0, 58, 0
1, 25427, Note_on_c, 0, 59, 61
1, 25433, Note_on_c, 1, 56, 0
1, 25440, Note_on_c, 0, 66, 0
1, 25440, Note_on_c, 0, 65, 61
1, 25440, Note_on_c, 0, 59, 0
1, 25440, Note_on_c, 1, 56, 61
1, 25464, Note_on_c, 0, 59, 61
1, 25474, Note_on_c, 0, 59, 0
1, 25488, Note_on_c, 0, 61, 61
1, 25495, Note_on_c, 0, 61, 0
1, 25495, Note_on_c, 0, 59, 61
1, 25502, Note_on_c, 0, 59, 0
1, 25502, Note_on_c, 0, 61, 61
1, 25509, Note_on_c, 0, 61, 0
1, 25509, Note_on_c, 0, 59, 61
1, 25516, Note_on_c, 0, 59, 0
1, 25516, Note_on_c, 0, 58, 61
1, 25521, Note_on_c, 1, 49, 0
1, 25523, Note_on_c, 0, 58, 0
1, 25523, Note_on_c, 0, 59, 61
1, 25529, Note_on_c, 0, 65, 0
1, 25529, Note_on_c, 1, 56, 0
1, 25536, Note_on_c, 0, 68, 61
1, 25536, Note_on_c, 0, 59, 0
1, 25536, Note_on_c, 0, 68, 61
1, 25536, Note_on_c, 1, 49, 61
1, 25536, Note_on_c, 1, 41, 61
1, 25551, Note_on_c, 0, 68, 0
1, 25552, Note_on_c, 0, 66, 61
1, 25567, Note_on_c, 0, 66, 0
1, 25568, Note_on_c, 0, 65, 61
1, 25583, Note_on_c, 0, 65, 0
1, 25584, Note_on_c, 0, 63, 61
1, 25599, Note_on_c, 0, 63, 0
1, 25600, Note_on_c, 0, 61, 61
1, 25615, Note_on_c, 0, 61, 0
1, 25616, Note_on_c, 0, 59, 61
1, 25625, Note_on_c, 1, 41, 0
1, 25631, Note_on_c, 0, 59, 0
1, 25632, Note_on_c, 0, 58, 61
1, 25632, Note_on_c, 1, 42, 61
1, 25655, Note_on_c, 0, 68, 0
1, 25656, Note_on_c, 0, 61, 61
1, 25666, Note_on_c, 0, 61, 0
1, 25677, Note_on_c, 0, 58, 0
1, 25680, Note_on_c, 0, 63, 61
1, 25687, Note_on_c, 0, 63, 0
1, 25687, Note_on_c, 0, 61, 61
1, 25694, Note_on_c, 0, 61, 0
1, 25694, Note_on_c, 0, 63, 61
1, 25701, Note_on_c, 0, 63, 0
1, 25701, Note_on_c, 0, 61, 61
1, 25708, Note_on_c, 0, 61, 0
1, 25708, Note_on_c, 0, 60, 61
1, 25715, Note_on_c, 0, 60, 0
1, 25715, Note_on_c, 0, 60, 61
1, 25721, Note_on_c, 1, 49, 0
1, 25728, Note_on_c, 0, 60, 0
1, 25728, Note_on_c, 0, 66, 61
1, 25728, Note_on_c, 1, 46, 61
1, 25751, Note_on_c, 0, 66, 0
1, 25752, Note_on_c, 0, 61, 61
1, 25762, Note_on_c, 0, 61, 0
1, 25776, Note_on_c, 0, 63, 61
1, 25783, Note_on_c, 0, 63, 0
1, 25783, Note_on_c, 0, 61, 61
1, 25790, Note_on_c, 0, 61, 0
1, 25790, Note_on_c, 0, 63, 61
1, 25797, Note_on_c, 0, 63, 0
1, 25797, Note_on_c, 0, 61, 61
1, 25804, Note_on_c, 0, 61, 0
1, 25804, Note_on_c, 0, 60, 61
1, 25811, Note_on_c, 0, 60, 0
1, 25811, Note_on_c, 0, 61, 61
1, 25817, Note_on_c, 1, 46, 0
1, 25824, Note_on_c, 0, 61, 0
1, 25824, Note_on_c, 0, 70, 61
1, 25824, Note_on_c, 1, 51, 61
1, 25839, Note_on_c, 0, 70, 0
1, 25840, Note_on_c, 0, 68, 61
1, 25855, Note_on_c, 0, 68, 0
1, 25856, Note_on_c, 0, 66, 61
1, 25871, Note_on_c, 0, 66, 0
1, 25872, Note_on_c, 0, 65, 61
1, 25887, Note_on_c, 0, 65, 0
1, 25888, Note_on_c, 0, 63, 61
1, 25897, Note_on_c, 1, 42, 0
1, 25903, Note_on_c, 0, 63, 0
1, 25904, Note_on_c, 0, 61, 61
1, 25919, Note_on_c, 0, 61, 0
1, 25920, Note_on_c, 0, 60, 61
1, 25920, Note_on_c, 1, 44, 61
1, 25944, Note_on_c, 0, 56, 61
1, 25954, Note_on_c, 0, 56, 0
1, 25965, Note_on_c, 1, 51, 0
1, 25968, Note_on_c, 0, 58, 61
1, 25968, Note_on_c, 1, 54, 61
1, 25975, Note_on_c, 0, 58, 0
1, 25975, Note_on_c, 0, 56, 61
1, 25982, Note_on_c, 0, 56, 0
1, 25982, Note_on_c, 0, 58, 61
1, 25989, Note_on_c, 0, 58, 0
1, 25989, Note_on_c, 0, 56, 61
1, 25996, Note_on_c, 0, 56, 0
1, 25996, Note_on_c, 0, 54, 61
1, 26003, Note_on_c, 0, 54, 0
1, 26003, Note_on_c, 0, 56, 61
1, 26009, Note_on_c, 0, 60, 0
1, 26013, Note_on_c, 1, 54, 0
1, 26016, Note_on_c, 0, 61, 61
1, 26016, Note_on_c, 0, 56, 0
1, 26016, Note_on_c, 1, 53, 61
1, 26040, Note_on_c, 0, 56, 61
1, 26050, Note_on_c, 0, 56, 0
1, 26061, Note_on_c, 1, 53, 0
1, 26064, Note_on_c, 0, 58, 61
1, 26064, Note_on_c, 1, 49, 61
1, 26071, Note_on_c, 0, 58, 0
1, 26071, Note_on_c, 0, 56, 61
1, 26078, Note_on_c, 0, 56, 0
1, 26078, Note_on_c, 0, 58, 61
1, 26085, Note_on_c, 0, 58, 0
1, 26085, Note_on_c, 0, 56, 61
1, 26092, Note_on_c, 0, 56, 0
1, 26092, Note_on_c, 0, 54, 61
1, 26099, Note_on_c, 0, 54, 0
1, 26099, Note_on_c, 0, 56, 61
1, 26105, Note_on_c, 0, 61, 0
1, 26109, Note_on_c, 1, 49, 0
1, 26112, Note_on_c, 0, 63, 61
1, 26112, Note_on_c, 0, 56, 0
1, 26112, Note_on_c, 1, 48, 61
1, 26136, Note_on_c, 0, 56, 61
1, 26146, Note_on_c, 0, 56, 0
1, 26160, Note_on_c, 0, 58, 61
1, 26167, Note_on_c, 0, 58, 0
1, 26167, Note_on_c, 0, 56, 61
1, 26174, Note_on_c, 0, 56, 0
1, 26174, Note_on_c, 0, 58, 61
1, 26181, Note_on_c, 0, 58, 0
1, 26181, Note_on_c, 0, 56, 61
1, 26188, Note_on_c, 0, 56, 0
1, 26188, Note_on_c, 0, 54, 61
1, 26195, Note_on_c, 0, 54, 0
1, 26195, Note_on_c, 0, 56, 61
1, 26201, Note_on_c, 0, 63, 0
1, 26201, Note_on_c, 1, 48, 0
1, 26208, Note_on_c, 0, 65, 61
1, 26208, Note_on_c, 0, 56, 0
1, 26208, Note_on_c, 1, 49, 61
1, 26232, Note_on_c, 0, 56, 61
1, 26242, Note_on_c, 0, 56, 0
1, 26256, Note_on_c, 0, 58, 61
1, 26263, Note_on_c, 0, 58, 0
1, 26263, Note_on_c, 0, 56, 61
1, 26270, Note_on_c, 0, 56, 0
1, 26270, Note_on_c, 0, 58, 61
1, 26277, Note_on_c, 0, 58, 0
1, 26277, Note_on_c, 0, 56, 61
1, 26284, Note_on_c, 0, 56, 0
1, 26284, Note_on_c, 0, 55, 61
1, 26291, Note_on_c, 0, 55, 0
1, 26291, Note_on_c, 0, 56, 61
1, 26297, Note_on_c, 0, 65, 0
1, 26297, Note_on_c, 1, 49, 0
1, 26304, Note_on_c, 0, 67, 61
1, 26304, Note_on_c, 0, 56, 0
1, 26304, Note_on_c, 1, 46, 61
1, 26328, Note_on_c, 0, 61, 63
1, 26338, Note_on_c, 0, 61, 0
1, 26352, Note_on_c, 0, 63, 66
1, 26359, Note_on_c, 0, 63, 0
1, 26359, Note_on_c, 0, 61, 67
1, 26366, Note_on_c, 0, 61, 0
1, 26366, Note_on_c, 0, 63, 68
1, 26373, Note_on_c, 0, 63, 0
1, 26373, Note_on_c, 0, 61, 68
1, 26380, Note_on_c, 0, 61, 0
1, 26380, Note_on_c, 0, 60, 69
1, 26387, Note_on_c, 0, 60, 0
1, 26387, Note_on_c, 0, 61, 70
1, 26393, Note_on_c, 0, 67, 0
1, 26400, Note_on_c, 0, 73, 68
1, 26400, Note_on_c, 0, 61, 0
1, 26424, Note_on_c, 0, 67, 74
1, 26434, Note_on_c, 0, 67, 0
1, 26448, Note_on_c, 0, 68, 77
1, 26455, Note_on_c, 0, 68, 0
1, 26455, Note_on_c, 0, 67, 78
1, 26462, Note_on_c, 0, 67, 0
1, 26462, Note_on_c, 0, 68, 78
1, 26469, Note_on_c, 0, 68, 0
1, 26469, Note_on_c, 0, 67, 79
1, 26476, Note_on_c, 0, 67, 0
1, 26476, Note_on_c, 0, 65, 80
1, 26483, Note_on_c, 0, 65, 0
1, 26483, Note_on_c, 0, 67, 81
1, 26489, Note_on_c, 0, 73, 0
1, 26496, Note_on_c, 0, 73, 76
1, 26496, Note_on_c, 0, 67, 76
1, 26496, Note_on_c, 0, 67, 0
1, 26585, Note_on_c, 0, 73, 0
1, 26585, Note_on_c, 0, 67, 0
1, 26585, Note_on_c, 1, 46, 0
1, 26585, Note_on_c, 1, 44, 0
1, 26592, Note_on_c, 0, 60, 84
1, 26592, Note_on_c, 1, 44, 84
1, 26598, Note_on_c, 1, 48, 84
1, 26604, Note_on_c, 0, 60, 0
1, 26604, Note_on_c, 0, 63, 84
1, 26604, Note_on_c, 1, 51, 84
1, 26610, Note_on_c, 1, 56, 84
1, 26616, Note_on_c, 0, 63, 0
1, 26616, Note_on_c, 0, 72, 84
1, 26616, Note_on_c, 0, 68, 84
1, 26688, Tempo, 1500000
1, 26777, Note_on_c, 0, 72, 0
1, 26777, Note_on_c, 0, 68, 0
1, 26784, Tempo, 1000000
1, 26784, Note_on_c, 0, 71, 61
1, 26807, Note_on_c, 0, 71, 0
1, 26808, Note_on_c, 0, 72, 61
1, 26831, Note_on_c, 0, 72, 0
1, 26832, Note_on_c, 0, 68, 61
1, 26855, Note_on_c, 0, 68, 0
1, 26856, Note_on_c, 0, 63, 61
1, 26873, Note_on_c, 1, 56, 0
1, 26873, Note_on_c, 1, 51, 0
1, 26873, Note_on_c, 1, 48, 0
1, 26873, Note_on_c, 1, 44, 0
1, 26879, Note_on_c, 0, 63, 0
1, 26880, Note_on_c, 0, 67, 61
1, 26903, Note_on_c, 0, 67, 0
1, 26904, Note_on_c, 0, 68, 61
1, 26927, Note_on_c, 0, 68, 0
1, 26928, Note_on_c, 0, 63, 61
1, 26951, Note_on_c, 0, 63, 0
1, 26952, Note_on_c, 0, 60, 61
1, 26975, Note_on_c, 0, 60, 0
1, 26976, Note_on_c, 0, 62, 61
1, 26999, Note_on_c, 0, 62, 0
1, 27000, Note_on_c, 0, 63, 61
1, 27023, Note_on_c, 0, 63, 0
1, 27024, Note_on_c, 0, 60, 61
1, 27047, Note_on_c, 0, 60, 0
1, 27048, Note_on_c, 0, 56, 61
1, 27071, Note_on_c, 0, 56, 0
1, 27072, Note_on_c, 1, 56, 61
1, 27117, Note_on_c, 1, 56, 0
1, 27120, Note_on_c, 1, 58, 61
1, 27128, Note_on_c, 1, 58, 0
1, 27128, Note_on_c, 1, 60, 61
1, 27136, Note_on_c, 1, 60, 0
1, 27136, Note_on_c, 1, 61, 61
1, 27144, Note_on_c, 1, 61, 0
1, 27144, Note_on_c, 1, 63, 61
1, 27152, Note_on_c, 1, 63, 0
1, 27152, Note_on_c, 1, 65, 61
1, 27160, Note_on_c, 1, 65, 0
1, 27160, Note_on_c, 1, 66, 61
1, 27213, Note_on_c, 1, 66, 0
1, 27216, Note_on_c, 0, 68, 61
1, 27224, Note_on_c, 0, 68, 0
1, 27224, Note_on_c, 0, 70, 61
1, 27232, Note_on_c, 0, 70, 0
1, 27232, Note_on_c, 0, 72, 61
1, 27240, Note_on_c, 0, 72, 0
1, 27240, Note_on_c, 0, 73, 61
1, 27248, Note_on_c, 0, 73, 0
1, 27248, Note_on_c, 0, 75, 61
1, 27256, Note_on_c, 0, 75, 0
1, 27256, Note_on_c, 0, 77, 61
1, 27264, Tempo, 1500000
1, 27264, Note_on_c, 0, 77, 0
1, 27264, Note_on_c, 0, 78, 61
1, 27331, Note_on_c, 0, 78, 0
1, 27360, Tempo, 1000000
1, 27360, Note_on_c, 1, 49, 84
1, 27405, Note_on_c, 1, 49, 0
1, 27408, Note_on_c, 1, 53, 84
1, 27416, Note_on_c, 1, 53, 0
1, 27416, Note_on_c, 1, 56, 84
1, 27424, Note_on_c, 1, 56, 0
1, 27424, Note_on_c, 1, 61, 84
1, 27432, Note_on_c, 1, 61, 0
1, 27432, Note_on_c, 1, 65, 84
1, 27440, Note_on_c, 1, 65, 0
1, 27440, Note_on_c, 1, 68, 84
1, 27448, Note_on_c, 1, 68, 0
1, 27448, Note_on_c, 1, 73, 84
1, 27456, Note_on_c, 0, 77, 84
1, 27456, Note_on_c, 1, 73, 0
1, 27501, Note_on_c, 0, 77, 0
1, 27504, Note_on_c, 0, 73, 84
1, 27504, Note_on_c, 0, 70, 84
1, 27549, Note_on_c, 0, 73, 0
1, 27549, Note_on_c, 0, 70, 0
1, 27552, Note_on_c, 0, 72, 80
1, 27552, Note_on_c, 0, 68, 80
1, 27597, Note_on_c, 0, 72, 0
1, 27597, Note_on_c, 0, 68, 0
1, 27600, Note_on_c, 0, 70, 76
1, 27600, Note_on_c, 0, 66, 76
1, 27645, Note_on_c, 0, 70, 0
1, 27645, Note_on_c, 0, 66, 0
1, 27648, Note_on_c, 0, 70, 72
1, 27648, Note_on_c, 0, 66, 72
1, 27693, Note_on_c, 0, 70, 0
1, 27693, Note_on_c, 0, 66, 0
1, 27696, Note_on_c, 0, 68, 68
1, 27696, Note_on_c, 0, 65, 68
1, 27696, Note_on_c, 1, 56, 66
1, 27741, Note_on_c, 1, 56, 0
1, 27744, Note_on_c, 1, 56, 61
1, 27785, Note_on_c, 0, 68, 0
1, 27785, Note_on_c, 0, 65, 0
1, 27792, Note_on_c, 0, 66, 61
1, 27792, Note_on_c, 0, 63, 61
1, 27792, Note_on_c, 1, 56, 0
1, 27792, Note_on_c, 1, 57, 61
1, 27837, Note_on_c, 1, 57, 0
1, 27840, Note_on_c, 1, 58, 61
1, 27881, Note_on_c, 0, 66, 0
1, 27881, Note_on_c, 0, 63, 0
1, 27888, Note_on_c, 0, 65, 61
1, 27888, Note_on_c, 0, 61, 61
1, 27929, Note_on_c, 1, 58, 0
1, 27933, Note_on_c, 0, 65, 0
1, 27933, Note_on_c, 0, 61, 0
1, 27936, Note_on_c, 1, 51, 61
1, 27984, Note_on_c, 0, 66, 61
1, 27984, Note_on_c, 0, 63, 61
1, 28025, Note_on_c, 1, 51, 0
1, 28032, Note_on_c, 1, 56, 61
1, 28073, Note_on_c, 0, 66, 0
1, 28073, Note_on_c, 0, 63, 0
1, 28080, Note_on_c, 0, 65, 61
1, 28080, Note_on_c, 0, 61, 61
1, 28121, Note_on_c, 1, 56, 0
1, 28128, Note_on_c, 1, 44, 61
1, 28169, Note_on_c, 0, 65, 0
1, 28169, Note_on_c, 0, 61, 0
1, 28176, Note_on_c, 0, 63, 61
1, 28176, Note_on_c, 0, 60, 61
1, 28217, Note_on_c, 1, 44, 0
1, 28224, Note_on_c, 1, 49, 61
1, 28272, Note_on_c, 0, 63, 0
1, 28272, Note_on_c, 0, 64, 61
1, 28317, Note_on_c, 0, 64, 0
1, 28317, Note_on_c, 0, 60, 0
1, 28320, Note_on_c, 0, 65, 61
1, 28320, Note_on_c, 0, 61, 61
1, 28401, Note_on_c, 1, 49, 0
1, 28409, Note_on_c, 0, 65, 0
1, 28409, Note_on_c, 0, 61, 0
1, 28416, Note_on_c, 1, 49, 84
1, 28461, Note_on_c, 1, 49, 0
1, 28464, Note_on_c, 1, 53, 84
1, 28472, Note_on_c, 1, 53, 0
1, 28472, Note_on_c, 1, 56, 84
1, 28480, Note_on_c, 1, 56, 0
1, 28480, Note_on_c, 1, 61, 84
1, 28488, Note_on_c, 1, 61, 0
1, 28488, Note_on_c, 1, 65, 84
1, 28496, Note_on_c, 1, 65, 0
1, 28496, Note_on_c, 1, 68, 84
1, 28504, Note_on_c, 1, 68, 0
1, 28504, Note_on_c, 1, 73, 84
1, 28512, Note_on_c, 0, 77, 84
1, 28512, Note_on_c, 1, 73, 0
1, 28536, Note_on_c, 1, 61, 84
1, 28557, Note_on_c, 0, 77, 0
1, 28559, Note_on_c, 1, 61, 0
1, 28560, Note_on_c, 1, 65, 84
1, 28568, Note_on_c, 1, 65, 0
1, 28568, Note_on_c, 1, 68, 84
1, 28576, Note_on_c, 1, 68, 0
1, 28576, Note_on_c, 1, 73, 84
1, 28584, Note_on_c, 1, 73, 0
1, 28584, Note_on_c, 1, 77, 84
1, 28592, Note_on_c, 1, 77, 0
1, 28592, Note_on_c, 1, 80, 84
1, 28600, Note_on_c, 1, 80, 0
1, 28600, Note_on_c, 1, 85, 84
1, 28608, Note_on_c, 0, 89, 84
1, 28608, Note_on_c, 1, 85, 0
1, 28653, Note_on_c, 0, 89, 0
1, 28656, Note_on_c, 0, 85, 80
1, 28656, Note_on_c, 0, 82, 80
1, 28701, Note_on_c, 0, 85, 0
1, 28701, Note_on_c, 0, 82, 0
1, 28704, Note_on_c, 0, 84, 77
1, 28704, Note_on_c, 0, 80, 77
1, 28749, Note_on_c, 0, 84, 0
1, 28749, Note_on_c, 0, 80, 0
1, 28752, Note_on_c, 0, 82, 74
1, 28752, Note_on_c, 0, 78, 74
1, 28797, Note_on_c, 0, 82, 0
1, 28797, Note_on_c, 0, 78, 0
1, 28800, Note_on_c, 0, 82, 70
1, 28800, Note_on_c, 0, 78, 70
1, 28845, Note_on_c, 0, 82, 0
1, 28845, Note_on_c, 0, 78, 0
1, 28848, Note_on_c, 0, 80, 67
1, 28848, Note_on_c, 0, 77, 67
1, 28848, Note_on_c, 1, 68, 84
1, 28893, Note_on_c, 1, 68, 0
1, 28896, Note_on_c, 1, 68, 84
1, 28937, Note_on_c, 0, 80, 0
1, 28937, Note_on_c, 0, 77, 0
1, 28944, Note_on_c, 0, 78, 61
1, 28944, Note_on_c, 0, 75, 61
1, 28944, Note_on_c, 1, 68, 0
1, 28944, Note_on_c, 1, 69, 84
1, 28989, Note_on_c, 1, 69, 0
1, 28992, Note_on_c, 1, 70, 84
1, 29033, Note_on_c, 0, 78, 0
1, 29033, Note_on_c, 0, 75, 0
1, 29040, Note_on_c, 0, 77, 61
1, 29040, Note_on_c, 0, 73, 61
1, 29081, Note_on_c, 1, 70, 0
1, 29085, Note_on_c, 0, 77, 0
1, 29085, Note_on_c, 0, 73, 0
1, 29088, Note_on_c, 1, 73, 84
1, 29088, Note_on_c, 1, 67, 61
1, 29112, Note_on_c, 0, 75, 61
1, 29122, Note_on_c, 0, 75, 0
1, 29136, Note_on_c, 0, 75, 61
1, 29160, Note_on_c, 0, 75, 0
1, 29160, Note_on_c, 0, 87, 61
1, 29170, Note_on_c, 0, 87, 0
1, 29177, Note_on_c, 1, 73, 0
1, 29177, Note_on_c, 1, 67, 0
1, 29184, Note_on_c, 1, 71, 84
1, 29184, Note_on_c, 1, 68, 61
1, 29208, Note_on_c, 0, 75, 61
1, 29218, Note_on_c, 0, 75, 0
1, 29232, Note_on_c, 0, 75, 61
1, 29256, Note_on_c, 0, 75, 0
1, 29256, Note_on_c, 0, 87, 61
1, 29273, Note_on_c, 1, 71, 0
1, 29273, Note_on_c, 1, 68, 0
1, 29279, Note_on_c, 0, 87, 0
1, 29280, Note_on_c, 1, 71, 84
1, 29280, Note_on_c, 1, 66, 61
1, 29304, Note_on_c, 0, 87, 61
1, 29314, Note_on_c, 0, 87, 0
1, 29328, Note_on_c, 0, 87, 61
1, 29352, Note_on_c, 0, 87, 0
1, 29352, Note_on_c, 0, 75, 61
1, 29362, Note_on_c, 0, 75, 0
1, 29369, Note_on_c, 1, 66, 0
1, 29376, Note_on_c, 1, 65, 61
1, 29400, Note_on_c, 0, 73, 61
1, 29410, Note_on_c, 0, 73, 0
1, 29424, Note_on_c, 0, 73, 61
1, 29448, Note_on_c, 0, 73, 0
1, 29448, Note_on_c, 0, 85, 61
1, 29458, Note_on_c, 0, 85, 0
1, 29465, Note_on_c, 1, 71, 0
1, 29465, Note_on_c, 1, 65, 0
1, 29472, Note_on_c, 1, 70, 84
1, 29472, Note_on_c, 1, 66, 61
1, 29496, Note_on_c, 0, 73, 61
1, 29506, Note_on_c, 0, 73, 0
1, 29520, Note_on_c, 0, 73, 61
1, 29544, Note_on_c, 0, 73, 0
1, 29544, Note_on_c, 0, 85, 61
1, 29554, Note_on_c, 0, 85, 0
1, 29561, Note_on_c, 1, 70, 0
1, 29561, Note_on_c, 1, 66, 0
1, 29568, Note_on_c, 1, 70, 84
1, 29568, Note_on_c, 1, 65, 61
1, 29592, Note_on_c, 0, 85, 61
1, 29602, Note_on_c, 0, 85, 0
1, 29616, Note_on_c, 0, 85, 61
1, 29640, Note_on_c, 0, 85, 0
1, 29640, Note_on_c, 0, 73, 61
1, 29650, Note_on_c, 0, 73, 0
1, 29657, Note_on_c, 1, 65, 0
1, 29664, Note_on_c, 1, 63, 61
1, 29688, Note_on_c, 0, 71, 61
1, 29698, Note_on_c, 0, 71, 0
1, 29712, Note_on_c, 0, 71, 61
1, 29736, Note_on_c, 0, 71, 0
1, 29736, Note_on_c, 0, 83, 61
1, 29746, Note_on_c, 0, 83, 0
1, 29753, Note_on_c, 1, 70, 0
1, 29753, Note_on_c, 1, 63, 0
1, 29760, Note_on_c, 1, 68, 84
1, 29760, Note_on_c, 1, 65, 61
1, 29784, Note_on_c, 0, 71, 61
1, 29794, Note_on_c, 0, 71, 0
1, 29808, Note_on_c, 0, 71, 61
1, 29832, Note_on_c, 0, 71, 0
1, 29832, Note_on_c, 0, 83, 61
1, 29842, Note_on_c, 0, 83, 0
1, 29849, Note_on_c, 1, 68, 0
1, 29849, Note_on_c, 1, 65, 0
1, 29856, Note_on_c, 1, 68, 84
1, 29856, Note_on_c, 1, 63, 61
1, 29880, Note_on_c, 0, 83, 61
1, 29890, Note_on_c, 0, 83, 0
1, 29904, Note_on_c, 0, 83, 61
1, 29928, Note_on_c, 0, 83, 0
1, 29928, Note_on_c, 0, 71, 61
1, 29938, Note_on_c, 0, 71, 0
1, 29945, Note_on_c, 1, 63, 0
1, 29952, Note_on_c, 1, 62, 61
1, 29976, Note_on_c, 0, 70, 61
1, 29986, Note_on_c, 0, 70, 0
1, 30000, Note_on_c, 0, 70, 61
1, 30024, Note_on_c, 0, 70, 0
1, 30024, Note_on_c, 0, 82, 61
1, 30034, Note_on_c, 0, 82, 0
1, 30041, Note_on_c, 1, 68, 0
1, 30041, Note_on_c, 1, 62, 0
1, 30048, Note_on_c, 1, 66, 84
1, 30048, Note_on_c, 1, 63, 61
1, 30072, Note_on_c, 0, 70, 61
1, 30082, Note_on_c, 0, 70, 0
1, 30096, Note_on_c, 0, 70, 61
1, 30120, Note_on_c, 0, 70, 0
1, 30120, Note_on_c, 0, 82, 61
1, 30130, Note_on_c, 0, 82, 0
1, 30137, Note_on_c, 1, 66, 0
1, 30137, Note_on_c, 1, 63, 0
1, 30144, Note_on_c, 1, 66, 84
1, 30144, Note_on_c, 1, 61, 61
1, 30168, Note_on_c, 0, 82, 61
1, 30178, Note_on_c, 0, 82, 0
1, 30192, Note_on_c, 0, 82, 61
1, 30216, Note_on_c, 0, 82, 0
1, 30216, Note_on_c, 0, 70, 61
1, 30226, Note_on_c, 0, 70, 0
1, 30233, Note_on_c, 1, 61, 0
1, 30240, Note_on_c, 1, 60, 61
1, 30264, Note_on_c, 0, 68, 61
1, 30274, Note_on_c, 0, 68, 0
1, 30288, Note_on_c, 0, 68, 61
1, 30312, Note_on_c, 0, 68, 0
1, 30312, Note_on_c, 0, 80, 61
1, 30322, Note_on_c, 0, 80, 0
1, 30329, Note_on_c, 1, 66, 0
1, 30329, Note_on_c, 1, 60, 0
1, 30336, Note_on_c, 1, 65, 84
1, 30336, Note_on_c, 1, 61, 61
1, 30360, Note_on_c, 0, 68, 61
1, 30370, Note_on_c, 0, 68, 0
1, 30384, Note_on_c, 0, 68, 61
1, 30408, Note_on_c, 0, 68, 0
1, 30408, Note_on_c, 0, 73, 61
1, 30425, Note_on_c, 1, 65, 0
1, 30425, Note_on_c, 1, 61, 0
1, 30431, Note_on_c, 0, 73, 0
1, 30432, Note_on_c, 0, 73, 61
1, 30432, Note_on_c, 1, 61, 84
1, 30432, Note_on_c, 1, 56, 84
1, 30432, Note_on_c, 1, 53, 84
1, 30456, Note_on_c, 0, 73, 0
1, 30456, Note_on_c, 0, 77, 61
1, 30479, Note_on_c, 0, 77, 0
1, 30480, Note_on_c, 0, 77, 61
1, 30504, Note_on_c, 0, 77, 0
1, 30504, Note_on_c, 0, 80, 61
1, 30521, Note_on_c, 1, 61, 0
1, 30521, Note_on_c, 1, 56, 0
1, 30521, Note_on_c, 1, 53, 0
1, 30527, Note_on_c, 0, 80, 0
1, 30528, Note_on_c, 0, 80, 61
1, 30528, Note_on_c, 1, 61, 61
1, 30528, Note_on_c, 1, 58, 61
1, 30528, Note_on_c, 1, 54, 61
1, 30552, Note_on_c, 0, 80, 0
1, 30552, Note_on_c, 0, 70, 63
1, 30575, Note_on_c, 0, 70, 0
1, 30576, Note_on_c, 0, 70, 66
1, 30600, Note_on_c, 0, 70, 0
1, 30600, Note_on_c, 0, 73, 69
1, 30617, Note_on_c, 1, 61, 0
1, 30617, Note_on_c, 1, 58, 0
1, 30617, Note_on_c, 1, 54, 0
1, 30623, Note_on_c, 0, 73, 0
1, 30624, Note_on_c, 0, 73, 72
1, 30648, Note_on_c, 0, 73, 0
1, 30648, Note_on_c, 0, 78, 75
1, 30671, Note_on_c, 0, 78, 0
1, 30672, Note_on_c, 0, 78, 78
1, 30696, Note_on_c, 0, 78, 0
1, 30696, Note_on_c, 0, 82, 81
1, 30719, Note_on_c, 0, 82, 0
1, 30720, Note_on_c, 0, 82, 84
1, 30720, Note_on_c, 1, 63, 75
1, 30720, Note_on_c, 1, 54, 75
1, 30744, Note_on_c, 0, 82, 0
1, 30744, Note_on_c, 0, 78, 80
1, 30767, Note_on_c, 0, 78, 0
1, 30768, Note_on_c, 0, 77, 76
1, 30791, Note_on_c, 0, 77, 0
1, 30792, Note_on_c, 0, 75, 72
1, 30809, Note_on_c, 1, 63, 0
1, 30809, Note_on_c, 1, 54, 0
1, 30815, Note_on_c, 0, 75, 0
1, 30816, Note_on_c, 0, 73, 85
1, 30816, Note_on_c, 1, 64, 61
1, 30816, Note_on_c, 1, 56, 61
1, 30888, Note_on_c, 0, 73, 0
1, 30888, Note_on_c, 0, 76, 69
1, 30900, Note_on_c, 0, 76, 0
1, 30900, Note_on_c, 0, 75, 69
1, 30905, Note_on_c, 1, 64, 0
1, 30905, Note_on_c, 1, 56, 0
1, 30912, Note_on_c, 0, 75, 0
1, 30912, Note_on_c, 0, 73, 69
1, 30957, Note_on_c, 0, 73, 0
1, 30960, Note_on_c, 0, 73, 69
1, 30960, Note_on_c, 1, 64, 61
1, 30960, Note_on_c, 1, 56, 61
1, 30980, Note_on_c, 0, 73, 0
1, 31007, Note_on_c, 1, 64, 0
1, 31007, Note_on_c, 1, 56, 0
1, 31008, Note_on_c, 0, 73, 69
1, 31008, Note_on_c, 1, 64, 61
1, 31008, Note_on_c, 1, 56, 61
1, 31028, Note_on_c, 0, 73, 0
1, 31055, Note_on_c, 1, 64, 0
1, 31055, Note_on_c, 1, 56, 0
1, 31056, Note_on_c, 0, 73, 69
1, 31056, Note_on_c, 1, 64, 61
1, 31056, Note_on_c, 1, 56, 61
1, 31076, Note_on_c, 0, 73, 0
1, 31103, Note_on_c, 1, 64, 0
1, 31103, Note_on_c, 1, 56, 0
1, 31104, Note_on_c, 0, 73, 85
1, 31104, Note_on_c, 1, 64, 61
1, 31104, Note_on_c, 1, 57, 61
1, 31176, Note_on_c, 0, 73, 0
1, 31176, Note_on_c, 0, 76, 69
1, 31188, Note_on_c, 0, 76, 0
1, 31188, Note_on_c, 0, 75, 69
1, 31198, Note_on_c, 1, 64, 0
1, 31198, Note_on_c, 1, 57, 0
1, 31200, Note_on_c, 0, 75, 0
1, 31200, Note_on_c, 0, 73, 69
1, 31245, Note_on_c, 0, 73, 0
1, 31248, Note_on_c, 0, 73, 69
1, 31248, Note_on_c, 1, 64, 61
1, 31248, Note_on_c, 1, 57, 61
1, 31268, Note_on_c, 0, 73, 0
1, 31295, Note_on_c, 1, 64, 0
1, 31295, Note_on_c, 1, 57, 0
1, 31296, Note_on_c, 0, 73, 69
1, 31296, Note_on_c, 1, 64, 61
1, 31296, Note_on_c, 1, 57, 61
1, 31316, Note_on_c, 0, 73, 0
1, 31343, Note_on_c, 1, 64, 0
1, 31343, Note_on_c, 1, 57, 0
1, 31344, Note_on_c, 0, 73, 69
1, 31344, Note_on_c, 1, 64, 61
1, 31344, Note_on_c, 1, 57, 61
1, 31364, Note_on_c, 0, 73, 0
1, 31391, Note_on_c, 1, 64, 0
1, 31391, Note_on_c, 1, 57, 0
1, 31392, Note_on_c, 0, 74, 69
1, 31392, Note_on_c, 1, 64, 61
1, 31392, Note_on_c, 1, 56, 61
1, 31426, Note_on_c, 0, 74, 0
1, 31428, Note_on_c, 0, 80, 69
1, 31440, Note_on_c, 0, 80, 0
1, 31440, Note_on_c, 0, 83, 69
1, 31452, Note_on_c, 0, 83, 0
1, 31452, Note_on_c, 0, 86, 69
1, 31464, Note_on_c, 0, 86, 0
1, 31464, Note_on_c, 0, 83, 69
1, 31476, Note_on_c, 0, 83, 0
1, 31476, Note_on_c, 0, 80, 69
1, 31486, Note_on_c, 1, 64, 0
1, 31486, Note_on_c, 1, 56, 0
1, 31488, Note_on_c, 0, 80, 0
1, 31488, Note_on_c, 0, 76, 69
1, 31536, Note_on_c, 0, 76, 0
1, 31536, Note_on_c, 0, 74, 69
1, 31536, Note_on_c, 1, 64, 61
1, 31536, Note_on_c, 1, 56, 61
1, 31581, Note_on_c, 0, 74, 0
1, 31583, Note_on_c, 1, 64, 0
1, 31583, Note_on_c, 1, 56, 0
1, 31584, Note_on_c, 0, 74, 69
1, 31584, Note_on_c, 1, 64, 61
1, 31584, Note_on_c, 1, 56, 61
1, 31604, Note_on_c, 0, 74, 0
1, 31631, Note_on_c, 1, 64, 0
1, 31631, Note_on_c, 1, 56, 0
1, 31632, Note_on_c, 0, 74, 69
1, 31632, Note_on_c, 1, 64, 61
1, 31632, Note_on_c, 1, 56, 61
1, 31652, Note_on_c, 0, 74, 0
1, 31679, Note_on_c, 1, 64, 0
1, 31679, Note_on_c, 1, 56, 0
1, 31680, Note_on_c, 0, 74, 69
1, 31680, Note_on_c, 1, 64, 61
1, 31680, Note_on_c, 1, 57, 61
1, 31703, Note_on_c, 0, 74, 0
1, 31704, Note_on_c, 0, 73, 69
1, 31727, Note_on_c, 0, 73, 0
1, 31728, Note_on_c, 0, 72, 69
1, 31751, Note_on_c, 0, 72, 0
1, 31752, Note_on_c, 0, 73, 69
1, 31774, Note_on_c, 1, 64, 0
1, 31774, Note_on_c, 1, 57, 0
1, 31775, Note_on_c, 0, 73, 0
1, 31776, Note_on_c, 0, 73, 69
1, 31821, Note_on_c, 0, 73, 0
1, 31824, Note_on_c, 0, 73, 69
1, 31824, Note_on_c, 1, 64, 61
1, 31824, Note_on_c, 1, 57, 61
1, 31844, Note_on_c, 0, 73, 0
1, 31871, Note_on_c, 1, 64, 0
1, 31871, Note_on_c, 1, 57, 0
1, 31872, Note_on_c, 0, 73, 70
1, 31872, Note_on_c, 1, 64, 63
1, 31872, Note_on_c, 1, 57, 63
1, 31892, Note_on_c, 0, 73, 0
1, 31919, Note_on_c, 1, 64, 0
1, 31919, Note_on_c, 1, 57, 0
1, 31920, Note_on_c, 0, 73, 71
1, 31920, Note_on_c, 1, 65, 65
1, 31920, Note_on_c, 1, 57, 65
1, 31940, Note_on_c, 0, 73, 0
1, 31967, Note_on_c, 1, 65, 0
1, 31967, Note_on_c, 1, 57, 0
1, 31968, Note_on_c, 0, 73, 73
1, 31968, Note_on_c, 1, 66, 67
1, 31968, Note_on_c, 1, 57, 67
1, 32035, Note_on_c, 0, 73, 0
1, 32040, Note_on_c, 0, 76, 75
1, 32052, Note_on_c, 0, 76, 0
1, 32052, Note_on_c, 0, 75, 75
1, 32062, Note_on_c, 1, 66, 0
1, 32062, Note_on_c, 1, 57, 0
1, 32064, Note_on_c, 0, 75, 0
1, 32064, Note_on_c, 0, 73, 75
1, 32109, Note_on_c, 0, 73, 0
1, 32112, Note_on_c, 0, 73, 77
1, 32112, Note_on_c, 1, 67, 73
1, 32112, Note_on_c, 1, 58, 73
1, 32132, Note_on_c, 0, 73, 0
1, 32159, Note_on_c, 1, 67, 0
1, 32159, Note_on_c, 1, 58, 0
1, 32160, Note_on_c, 0, 73, 78
1, 32160, Note_on_c, 1, 67, 75
1, 32160, Note_on_c, 1, 58, 75
1, 32180, Note_on_c, 0, 73, 0
1, 32207, Note_on_c, 1, 67, 0
1, 32207, Note_on_c, 1, 58, 0
1, 32208, Note_on_c, 0, 73, 79
1, 32208, Note_on_c, 1, 67, 77
1, 32208, Note_on_c, 1, 58, 77
1, 32228, Note_on_c, 0, 73, 0
1, 32255, Note_on_c, 1, 67, 0
1, 32255, Note_on_c, 1, 58, 0
1, 32256, Tempo, 1500000
1, 32256, Note_on_c, 0, 73, 81
1, 32256, Note_on_c, 1, 68, 79
1, 32256, Note_on_c, 1, 65, 79
1, 32256, Note_on_c, 1, 56, 79
1, 32345, Note_on_c, 0, 73, 0
1, 32352, Tempo, 1000000
1, 32352, Note_on_c, 0, 73, 84
1, 32376, Note_on_c, 0, 73, 0
1, 32376, Note_on_c, 0, 77, 84
1, 32397, Note_on_c, 1, 68, 0
1, 32397, Note_on_c, 1, 65, 0
1, 32397, Note_on_c, 1, 56, 0
1, 32399, Note_on_c, 0, 77, 0
1, 32400, Note_on_c, 0, 77, 84
1, 32424, Note_on_c, 0, 77, 0
1, 32424, Note_on_c, 0, 80, 84
1, 32447, Note_on_c, 0, 80, 0
1, 32448, Note_on_c, 0, 80, 84
1, 32472, Note_on_c, 0, 80, 0
1, 32472, Note_on_c, 0, 85, 84
1, 32495, Note_on_c, 0, 85, 0
1, 32496, Note_on_c, 0, 85, 84
1, 32520, Note_on_c, 0, 85, 0
1, 32520, Note_on_c, 0, 89, 84
1, 32543, Note_on_c, 0, 89, 0
1, 32544, Note_on_c, 0, 89, 100
1, 32663, Note_on_c, 0, 89, 0
1, 32664, Note_on_c, 0, 84, 84
1, 32688, Note_on_c, 0, 84, 0
1, 32688, Note_on_c, 0, 85, 84
1, 32711, Note_on_c, 0, 85, 0
1, 32712, Note_on_c, 0, 79, 84
1, 32736, Note_on_c, 0, 79, 0
1, 32736, Note_on_c, 0, 80, 84
1, 32759, Note_on_c, 0, 80, 0
1, 32760, Note_on_c, 0, 76, 84
1, 32784, Note_on_c, 0, 76, 0
1, 32784, Note_on_c, 0, 77, 84
1, 32807, Note_on_c, 0, 77, 0
1, 32808, Note_on_c, 0, 73, 84
1, 32832, Note_on_c, 0, 73, 0
1, 32832, Note_on_c, 0, 78, 84
1, 32855, Note_on_c, 0, 78, 0
1, 32856, Note_on_c, 0, 77, 84
1, 32879, Note_on_c, 0, 77, 0
1, 32880, Note_on_c, 0, 75, 84
1, 32888, Note_on_c, 0, 75, 0
1, 32888, Note_on_c, 0, 77, 84
1, 32896, Note_on_c, 0, 77, 0
1, 32896, Note_on_c, 0, 75, 84
1, 32904, Note_on_c, 0, 75, 0
1, 32904, Note_on_c, 0, 77, 84
1, 32911, Note_on_c, 0, 77, 0
1, 32911, Note_on_c, 0, 75, 84
1, 32918, Note_on_c, 0, 75, 0
1, 32918, Note_on_c, 0, 77, 84
1, 32925, Note_on_c, 0, 77, 0
1, 32925, Note_on_c, 0, 75, 84
1, 32932, Note_on_c, 0, 75, 0
1, 32932, Note_on_c, 0, 77, 84
1, 32939, Note_on_c, 0, 77, 0
1, 32939, Note_on_c, 0, 75, 84
1, 32946, Note_on_c, 0, 75, 0
1, 32946, Note_on_c, 0, 77, 84
1, 32953, Note_on_c, 0, 77, 0
1, 32953, Note_on_c, 0, 75, 84
1, 32960, Note_on_c, 0, 75, 0
1, 32960, Note_on_c, 0, 77, 84
1, 32967, Note_on_c, 0, 77, 0
1, 32967, Note_on_c, 0, 75, 84
1, 32974, Note_on_c, 0, 75, 0
1, 32974, Note_on_c, 0, 77, 84
1, 32976, Note_on_c, 1, 60, 69
1, 32976, Note_on_c, 1, 56, 69
1, 32981, Note_on_c, 0, 77, 0
1, 32981, Note_on_c, 0, 75, 84
1, 32988, Note_on_c, 0, 75, 0
1, 32988, Note_on_c, 0, 77, 84
1, 32995, Note_on_c, 0, 77, 0
1, 32995, Note_on_c, 0, 75, 83
1, 33002, Note_on_c, 0, 75, 0
1, 33002, Note_on_c, 0, 77, 82
1, 33009, Note_on_c, 0, 77, 0
1, 33009, Note_on_c, 0, 75, 81
1, 33016, Note_on_c, 0, 75, 0
1, 33016, Note_on_c, 0, 77, 80
1, 33023, Note_on_c, 0, 77, 0
1, 33023, Note_on_c, 0, 75, 79
1, 33030, Note_on_c, 0, 75, 0
1, 33030, Note_on_c, 0, 77, 78
1, 33037, Note_on_c, 0, 77, 0
1, 33037, Note_on_c, 0, 75, 77
1, 33044, Note_on_c, 0, 75, 0
1, 33044, Note_on_c, 0, 73, 76
1, 33058, Note_on_c, 0, 73, 0
1, 33058, Note_on_c, 0, 75, 74
1, 33072, Note_on_c, 0, 75, 0
1, 33072, Note_on_c, 0, 77, 72
1, 33095, Note_on_c, 0, 77, 0
1, 33096, Note_on_c, 0, 75, 68
1, 33116, Note_on_c, 1, 60, 0
1, 33116, Note_on_c, 1, 56, 0
1, 33119, Note_on_c, 0, 75, 0
1, 33120, Note_on_c, 0, 73, 61
1, 33120, Note_on_c, 1, 61, 61
1, 33120, Note_on_c, 1, 49, 61
1, 33165, Note_on_c, 0, 73, 0
1, 33168, Note_on_c, 0, 80, 77
1, 33168, Note_on_c, 0, 77, 77
1, 33209, Note_on_c, 1, 61, 0
1, 33209, Note_on_c, 1, 49, 0
1, 33216, Note_on_c, 1, 54, 61
1, 33216, Note_on_c, 1, 42, 61
1, 33264, Note_on_c, 0, 80, 0
1, 33264, Note_on_c, 0, 77, 0
1, 33264, Note_on_c, 0, 82, 61
1, 33264, Note_on_c, 0, 78, 61
1, 33305, Note_on_c, 1, 54, 0
1, 33305, Note_on_c, 1, 42, 0
1, 33312, Note_on_c, 1, 56, 61
1, 33312, Note_on_c, 1, 44, 61
1, 33353, Note_on_c, 0, 82, 0
1, 33353, Note_on_c, 0, 78, 0
1, 33360, Note_on_c, 0, 78, 61
1, 33360, Note_on_c, 0, 75, 61
1, 33401, Note_on_c, 1, 56, 0
1, 33401, Note_on_c, 1, 44, 0
1, 33408, Note_on_c, 0, 78, 0
1, 33408, Note_on_c, 0, 75, 0
1, 33408, Note_on_c, 0, 77, 61
1, 33408, Note_on_c, 0, 73, 61
1, 33408, Note_on_c, 1, 61, 61
1, 33408, Note_on_c, 1, 49, 61
1, 33453, Note_on_c, 0, 77, 0
1, 33453, Note_on_c, 0, 73, 0
1, 33456, Note_on_c, 0, 68, 77
1, 33456, Note_on_c, 0, 65, 77
1, 33497, Note_on_c, 1, 61, 0
1, 33497, Note_on_c, 1, 49, 0
1, 33504, Note_on_c, 1, 54, 61
1, 33504, Note_on_c, 1, 42, 61
1, 33552, Note_on_c, 0, 68, 0
1, 33552, Note_on_c, 0, 65, 0
1, 33552, Note_on_c, 0, 70, 57
1, 33552, Note_on_c, 0, 66, 57
1, 33593, Note_on_c, 1, 54, 0
1, 33593, Note_on_c, 1, 42, 0
1, 33600, Note_on_c, 1, 51, 57
1, 33600, Note_on_c, 1, 44, 57
1, 33641, Note_on_c, 0, 70, 0
1, 33641, Note_on_c, 0, 66, 0
1, 33648, Note_on_c, 0, 60, 53
1, 33648, Note_on_c, 0, 54, 53
1, 33689, Note_on_c, 1, 51, 0
1, 33689, Note_on_c, 1, 44, 0
1, 33693, Note_on_c, 0, 60, 0
1, 33693, Note_on_c, 0, 54, 0
1, 33696, Note_on_c, 0, 60, 53
1, 33696, Note_on_c, 0, 54, 53
1, 33696, Note_on_c, 1, 49, 53
1, 33696, Note_on_c, 1, 37, 53
1, 33792, Note_on_c, 0, 60, 0
1, 33792, Note_on_c, 0, 54, 0
1, 33792, Note_on_c, 0, 61, 53
1, 33792, Note_on_c, 0, 56, 53
1, 33792, Note_on_c, 0, 53, 53
1, 33881, Note_on_c, 0, 61, 0
1, 33881, Note_on_c, 0, 56, 0
1, 33881, Note_on_c, 0, 53, 0
1, 33961, Note_on_c, 1, 49, 0
1, 33961, Note_on_c, 1, 37, 0
1, 33984, Note_on_c, 1, 56, 61
1, 33984, Note_on_c, 1, 56, 61
1, 34029, Note_on_c, 1, 56, 0
1, 34032, Note_on_c, 1, 60, 61
1, 34077, Note_on_c, 1, 60, 0
1, 34080, Note_on_c, 1, 63, 61
1, 34125, Note_on_c, 1, 63, 0
1, 34128, Note_on_c, 0, 77, 61
1, 34128, Note_on_c, 1, 68, 61
1, 34161, Note_on_c, 1, 56, 0
1, 34173, Note_on_c, 0, 77, 0
1, 34173, Note_on_c, 1, 68, 0
1, 34176, Note_on_c, 0, 75, 61
1, 34176, Note_on_c, 1, 67, 61
1, 34176, Note_on_c, 1, 58, 61
1, 34182, Note_on_c, 0, 75, 0
1, 34182, Note_on_c, 0, 77, 61
1, 34188, Note_on_c, 0, 77, 0
1, 34188, Note_on_c, 0, 75, 61
1, 34221, Note_on_c, 1, 67, 0
1, 34223, Note_on_c, 0, 75, 0
1, 34224, Note_on_c, 0, 74, 61
1, 34224, Note_on_c, 1, 65, 61
1, 34265, Note_on_c, 1, 58, 0
1, 34272, Note_on_c, 1, 55, 61
1, 34317, Note_on_c, 0, 74, 0
1, 34317, Note_on_c, 1, 65, 0
1, 34320, Note_on_c, 0, 77, 61
1, 34320, Note_on_c, 1, 62, 61
1, 34365, Note_on_c, 0, 77, 0
1, 34365, Note_on_c, 1, 62, 0
1, 34368, Note_on_c, 0, 75, 61
1, 34368, Note_on_c, 1, 63, 61
1, 34413, Note_on_c, 1, 63, 0
1, 34416, Note_on_c, 1, 58, 61
1, 34449, Note_on_c, 1, 55, 0
1, 34457, Note_on_c, 0, 75, 0
1, 34461, Note_on_c, 1, 58, 0
1, 34464, Note_on_c, 0, 70, 61
1, 34464, Note_on_c, 1, 60, 61
1, 34464, Note_on_c, 1, 55, 61
1, 34509, Note_on_c, 1, 60, 0
1, 34512, Note_on_c, 1, 61, 61
1, 34553, Note_on_c, 1, 55, 0
1, 34560, Note_on_c, 1, 56, 61
1, 34605, Note_on_c, 0, 70, 0
1, 34605, Note_on_c, 1, 61, 0
1, 34608, Note_on_c, 0, 67, 61
1, 34608, Note_on_c, 1, 58, 61
1, 34653, Note_on_c, 0, 67, 0
1, 34653, Note_on_c, 1, 58, 0
1, 34656, Note_on_c, 0, 68, 77
1, 34656, Note_on_c, 1, 60, 61
1, 34693, Note_on_c, 1, 56, 0
1, 34704, Note_on_c, 1, 54, 61
1, 34745, Note_on_c, 1, 60, 0
1, 34749, Note_on_c, 1, 54, 0
1, 34752, Note_on_c, 0, 68, 0
1, 34752, Note_on_c, 0, 68, 61
1, 34752, Note_on_c, 1, 59, 61
1, 34752, Note_on_c, 1, 53, 61
1, 34797, Note_on_c, 1, 53, 0
1, 34800, Note_on_c, 1, 51, 61
1, 34845, Note_on_c, 1, 51, 0
1, 34848, Note_on_c, 1, 50, 61
1, 34893, Note_on_c, 0, 68, 0
1, 34896, Note_on_c, 0, 71, 61
1, 34937, Note_on_c, 1, 59, 0
1, 34941, Note_on_c, 0, 71, 0
1, 34944, Note_on_c, 0, 70, 61
1, 34944, Note_on_c, 1, 53, 61
1, 34989, Note_on_c, 0, 70, 0
1, 34992, Note_on_c, 0, 68, 61
1, 35033, Note_on_c, 1, 53, 0
1, 35037, Note_on_c, 0, 68, 0
1, 35040, Note_on_c, 0, 66, 61
1, 35040, Note_on_c, 1, 58, 61
1, 35046, Note_on_c, 0, 66, 0
1, 35046, Note_on_c, 0, 68, 61
1, 35052, Note_on_c, 0, 68, 0
1, 35052, Note_on_c, 0, 66, 61
1, 35087, Note_on_c, 0, 66, 0
1, 35088, Note_on_c, 0, 65, 61
1, 35113, Note_on_c, 1, 50, 0
1, 35133, Note_on_c, 0, 65, 0
1, 35136, Note_on_c, 0, 66, 61
1, 35136, Note_on_c, 0, 63, 61
1, 35136, Note_on_c, 1, 51, 61
1, 35181, Note_on_c, 1, 58, 0
1, 35181, Note_on_c, 1, 51, 0
1, 35184, Note_on_c, 1, 54, 61
1, 35229, Note_on_c, 1, 54, 0
1, 35232, Note_on_c, 1, 58, 61
1, 35269, Note_on_c, 0, 66, 0
1, 35269, Note_on_c, 0, 63, 0
1, 35277, Note_on_c, 1, 58, 0
1, 35280, Note_on_c, 0, 71, 61
1, 35280, Note_on_c, 0, 66, 61
1, 35280, Note_on_c, 1, 63, 61
1, 35325, Note_on_c, 0, 71, 0
1, 35325, Note_on_c, 0, 66, 0
1, 35325, Note_on_c, 1, 63, 0
1, 35328, Note_on_c, 0, 70, 61
1, 35328, Note_on_c, 0, 65, 61
1, 35328, Note_on_c, 1, 61, 61
1, 35373, Note_on_c, 0, 70, 0
1, 35373, Note_on_c, 0, 65, 0
1, 35373, Note_on_c, 1, 61, 0
1, 35376, Note_on_c, 0, 69, 61
1, 35376, Note_on_c, 0, 63, 61
1, 35376, Note_on_c, 1, 59, 61
1, 35410, Note_on_c, 0, 69, 0
1, 35412, Note_on_c, 0, 75, 61
1, 35424, Note_on_c, 0, 75, 0
1, 35424, Note_on_c, 0, 75, 61
1, 35469, Note_on_c, 0, 63, 0
1, 35469, Note_on_c, 1, 59, 0
1, 35472, Note_on_c, 0, 66, 61
1, 35472, Note_on_c, 1, 57, 61
1, 35517, Note_on_c, 0, 66, 0
1, 35517, Note_on_c, 1, 57, 0
1, 35520, Note_on_c, 0, 75, 0
1, 35520, Note_on_c, 0, 74, 61
1, 35520, Note_on_c, 0, 65, 61
1, 35520, Note_on_c, 1, 58, 61
1, 35565, Note_on_c, 0, 74, 0
1, 35565, Note_on_c, 0, 65, 0
1, 35565, Note_on_c, 1, 58, 0
1, 35568, Note_on_c, 0, 71, 61
1, 35568, Note_on_c, 0, 62, 61
1, 35568, Note_on_c, 1, 53, 61
1, 35613, Note_on_c, 0, 71, 0
1, 35613, Note_on_c, 0, 62, 0
1, 35613, Note_on_c, 1, 53, 0
1, 35616, Note_on_c, 0, 70, 61
1, 35616, Note_on_c, 0, 63, 61
1, 35616, Note_on_c, 1, 54, 61
1, 35661, Note_on_c, 0, 70, 0
1, 35661, Note_on_c, 0, 63, 0
1, 35661, Note_on_c, 1, 54, 0
1, 35664, Note_on_c, 0, 65, 61
1, 35664, Note_on_c, 0, 62, 61
1, 35664, Note_on_c, 0, 59, 61
1, 35664, Note_on_c, 1, 56, 61
1, 35709, Note_on_c, 0, 65, 0
1, 35709, Note_on_c, 0, 62, 0
1, 35709, Note_on_c, 0, 59, 0
1, 35709, Note_on_c, 1, 56, 0
1, 35712, Note_on_c, 0, 63, 61
1, 35712, Note_on_c, 0, 58, 61
1, 35712, Note_on_c, 1, 54, 61
1, 35757, Note_on_c, 0, 63, 0
1, 35757, Note_on_c, 1, 54, 0
1, 35760, Note_on_c, 0, 65, 61
1, 35760, Note_on_c, 1, 53, 61
1, 35805, Note_on_c, 0, 65, 0
1, 35805, Note_on_c, 1, 53, 0
1, 35808, Note_on_c, 0, 66, 61
1, 35808, Note_on_c, 1, 51, 61
1, 35853, Note_on_c, 1, 51, 0
1, 35856, Note_on_c, 1, 49, 61
1, 35889, Note_on_c, 0, 58, 0
1, 35901, Note_on_c, 1, 49, 0
1, 35904, Note_on_c, 0, 63, 61
1, 35904, Note_on_c, 1, 48, 61
1, 35949, Note_on_c, 0, 63, 0
1, 35949, Note_on_c, 1, 48, 0
1, 35952, Note_on_c, 0, 61, 61
1, 35952, Note_on_c, 1, 46, 61
1, 35997, Note_on_c, 0, 61, 0
1, 35997, Note_on_c, 1, 46, 0
1, 36000, Note_on_c, 0, 60, 61
1, 36000, Note_on_c, 1, 45, 61
1, 36045, Note_on_c, 0, 66, 0
1, 36048, Note_on_c, 0, 66, 61
1, 36089, Note_on_c, 0, 60, 0
1, 36089, Note_on_c, 1, 45, 0
1, 36093, Note_on_c, 0, 66, 0
1, 36096, Note_on_c, 0, 65, 61
1, 36096, Note_on_c, 1, 60, 61
1, 36096, Note_on_c, 1, 57, 61
1, 36141, Note_on_c, 0, 65, 0
1, 36144, Note_on_c, 0, 75, 61
1, 36185, Note_on_c, 1, 60, 0
1, 36185, Note_on_c, 1, 57, 0
1, 36189, Note_on_c, 0, 75, 0
1, 36192, Note_on_c, 0, 69, 61
1, 36192, Note_on_c, 1, 65, 61
1, 36192, Note_on_c, 1, 63, 61
1, 36237, Note_on_c, 0, 69, 0
1, 36240, Note_on_c, 0, 72, 61
1, 36281, Note_on_c, 1, 65, 0
1, 36281, Note_on_c, 1, 63, 0
1, 36285, Note_on_c, 0, 72, 0
1, 36288, Note_on_c, 0, 70, 61
1, 36288, Note_on_c, 1, 65, 61
1, 36288, Note_on_c, 1, 61, 61
1, 36333, Note_on_c, 0, 70, 0
1, 36336, Note_on_c, 0, 73, 61
1, 36377, Note_on_c, 1, 65, 0
1, 36377, Note_on_c, 1, 61, 0
1, 36381, Note_on_c, 0, 73, 0
1, 36384, Note_on_c, 0, 77, 61
1, 36429, Note_on_c, 0, 77, 0
1, 36432, Note_on_c, 0, 82, 61
1, 36477, Note_on_c, 0, 82, 0
1, 36480, Note_on_c, 0, 85, 61
1, 36480, Note_on_c, 0, 80, 61
1, 36480, Note_on_c, 1, 70, 61
1, 36525, Note_on_c, 0, 80, 0
1, 36528, Note_on_c, 0, 78, 61
1, 36569, Note_on_c, 1, 70, 0
1, 36573, Note_on_c, 0, 78, 0
1, 36576, Note_on_c, 0, 85, 0
1, 36576, Note_on_c, 0, 84, 61
1, 36576, Note_on_c, 0, 78, 61
1, 36576, Note_on_c, 1, 69, 61
1, 36621, Note_on_c, 0, 78, 0
1, 36624, Note_on_c, 0, 76, 61
1, 36669, Note_on_c, 0, 76, 0
1, 36672, Note_on_c, 0, 77, 61
1, 36709, Note_on_c, 0, 84, 0
1, 36717, Note_on_c, 0, 77, 0
1, 36720, Note_on_c, 0, 81, 61
1, 36720, Note_on_c, 0, 72, 61
1, 36753, Note_on_c, 1, 69, 0
1, 36765, Note_on_c, 0, 81, 0
1, 36765, Note_on_c, 0, 72, 0
1, 36768, Note_on_c, 0, 82, 61
1, 36768, Note_on_c, 0, 73, 61
1, 36768, Note_on_c, 1, 65, 61
1, 36813, Note_on_c, 0, 82, 0
1, 36813, Note_on_c, 0, 73, 0
1, 36816, Note_on_c, 0, 84, 61
1, 36816, Note_on_c, 0, 75, 61
1, 36857, Note_on_c, 1, 65, 0
1, 36861, Note_on_c, 0, 84, 0
1, 36864, Note_on_c, 0, 77, 61
1, 36864, Note_on_c, 1, 70, 61
1, 36909, Note_on_c, 0, 75, 0
1, 36912, Note_on_c, 0, 72, 61
1, 36957, Note_on_c, 0, 72, 0
1, 36960, Note_on_c, 0, 73, 61
1, 37005, Note_on_c, 0, 73, 0
1, 37008, Note_on_c, 0, 82, 61
1, 37041, Note_on_c, 0, 77, 0
1, 37041, Note_on_c, 1, 70, 0
1, 37042, Note_on_c, 0, 82, 0
1, 37044, Note_on_c, 0, 80, 61
1, 37056, Note_on_c, 0, 85, 61
1, 37056, Note_on_c, 0, 80, 0
1, 37056, Note_on_c, 0, 79, 61
1, 37056, Note_on_c, 1, 70, 61
1, 37101, Note_on_c, 0, 79, 0
1, 37104, Note_on_c, 0, 77, 61
1, 37149, Note_on_c, 0, 77, 0
1, 37152, Note_on_c, 0, 85, 0
1, 37152, Note_on_c, 0, 84, 61
1, 37152, Note_on_c, 0, 76, 61
1, 37197, Note_on_c, 0, 76, 0
1, 37200, Note_on_c, 0, 79, 61
1, 37241, Note_on_c, 1, 70, 0
1, 37245, Note_on_c, 0, 79, 0
1, 37248, Note_on_c, 0, 77, 61
1, 37248, Note_on_c, 1, 68, 61
1, 37293, Note_on_c, 0, 77, 0
1, 37296, Note_on_c, 0, 80, 61
1, 37329, Note_on_c, 0, 84, 0
1, 37330, Note_on_c, 0, 80, 0
1, 37332, Note_on_c, 0, 79, 61
1, 37337, Note_on_c, 1, 68, 0
1, 37344, Note_on_c, 0, 83, 61
1, 37344, Note_on_c, 0, 79, 0
1, 37344, Note_on_c, 0, 77, 61
1, 37344, Note_on_c, 1, 68, 61
1, 37389, Note_on_c, 0, 77, 0
1, 37392, Note_on_c, 0, 75, 61
1, 37437, Note_on_c, 0, 75, 0
1, 37440, Note_on_c, 0, 83, 0
1, 37440, Note_on_c, 0, 82, 61
1, 37440, Note_on_c, 0, 74, 61
1, 37485, Note_on_c, 0, 74, 0
1, 37488, Note_on_c, 0, 77, 61
1, 37529, Note_on_c, 1, 68, 0
1, 37533, Note_on_c, 0, 77, 0
1, 37536, Note_on_c, 0, 75, 61
1, 37536, Note_on_c, 1, 66, 61
1, 37548, Note_on_c, 0, 75, 0
1, 37548, Note_on_c, 0, 74, 61
1, 37560, Note_on_c, 0, 74, 0
1, 37560, Note_on_c, 0, 75, 61
1, 37572, Note_on_c, 0, 75, 0
1, 37572, Note_on_c, 0, 77, 61
1, 37584, Note_on_c, 0, 77, 0
1, 37584, Note_on_c, 0, 78, 61
1, 37607, Note_on_c, 0, 78, 0
1, 37608, Note_on_c, 0, 77, 61
1, 37617, Note_on_c, 0, 82, 0
1, 37625, Note_on_c, 1, 66, 0
1, 37631, Note_on_c, 0, 77, 0
1, 37632, Note_on_c, 0, 82, 61
1, 37632, Note_on_c, 0, 75, 61
1, 37632, Note_on_c, 1, 66, 61
1, 37677, Note_on_c, 0, 75, 0
1, 37680, Note_on_c, 0, 73, 61
1, 37725, Note_on_c, 0, 73, 0
1, 37728, Note_on_c, 0, 82, 0
1, 37728, Note_on_c, 0, 80, 61
1, 37728, Note_on_c, 0, 72, 61
1, 37773, Note_on_c, 0, 72, 0
1, 37776, Note_on_c, 0, 75, 61
1, 37817, Note_on_c, 1, 66, 0
1, 37821, Note_on_c, 0, 75, 0
1, 37824, Note_on_c, 0, 75, 61
1, 37824, Note_on_c, 1, 65, 61
1, 37861, Note_on_c, 0, 80, 0
1, 37869, Note_on_c, 0, 75, 0
1, 37872, Note_on_c, 0, 80, 61
1, 37872, Note_on_c, 0, 73, 61
1, 37878, Note_on_c, 0, 73, 0
1, 37878, Note_on_c, 0, 72, 61
1, 37884, Note_on_c, 0, 72, 0
1, 37884, Note_on_c, 0, 73, 61
1, 37913, Note_on_c, 1, 65, 0
1, 37917, Note_on_c, 0, 80, 0
1, 37920, Note_on_c, 0, 78, 61
1, 37920, Note_on_c, 1, 63, 61
1, 37963, Note_on_c, 0, 73, 0
1, 37968, Note_on_c, 0, 72, 61
1, 38009, Note_on_c, 1, 63, 0
1, 38013, Note_on_c, 0, 72, 0
1, 38016, Note_on_c, 0, 73, 61
1, 38016, Note_on_c, 1, 61, 61
1, 38061, Note_on_c, 0, 78, 0
1, 38061, Note_on_c, 0, 73, 0
1, 38064, Note_on_c, 0, 77, 61
1, 38064, Note_on_c, 0, 68, 61
1, 38105, Note_on_c, 1, 61, 0
1, 38109, Note_on_c, 0, 68, 0
1, 38112, Note_on_c, 0, 70, 61
1, 38112, Note_on_c, 1, 54, 61
1, 38153, Note_on_c, 0, 77, 0
1, 38160, Note_on_c, 0, 75, 61
1, 38205, Note_on_c, 0, 75, 0
1, 38208, Note_on_c, 0, 82, 61
1, 38245, Note_on_c, 0, 70, 0
1, 38245, Note_on_c, 1, 54, 0
1, 38253, Note_on_c, 0, 82, 0
1, 38256, Note_on_c, 0, 73, 61
1, 38256, Note_on_c, 1, 55, 61
1, 38256, Note_on_c, 1, 63, 61
1, 38301, Note_on_c, 0, 73, 0
1, 38301, Note_on_c, 1, 55, 0
1, 38301, Note_on_c, 1, 63, 0
1, 38304, Note_on_c, 0, 73, 61
1, 38304, Note_on_c, 0, 68, 61
1, 38304, Note_on_c, 1, 56, 61
1, 38304, Note_on_c, 1, 63, 61
1, 38327, Note_on_c, 0, 73, 0
1, 38328, Note_on_c, 0, 72, 61
1, 38349, Note_on_c, 0, 68, 0
1, 38349, Note_on_c, 1, 63, 0
1, 38351, Note_on_c, 0, 72, 0
1, 38352, Note_on_c, 0, 75, 61
1, 38352, Note_on_c, 0, 63, 61
1, 38352, Note_on_c, 1, 61, 61
1, 38375, Note_on_c, 0, 75, 0
1, 38376, Note_on_c, 0, 67, 61
1, 38397, Note_on_c, 0, 63, 0
1, 38397, Note_on_c, 1, 61, 0
1, 38399, Note_on_c, 0, 67, 0
1, 38400, Note_on_c, 0, 70, 61
1, 38400, Note_on_c, 1, 60, 61
1, 38406, Note_on_c, 0, 70, 0
1, 38406, Note_on_c, 0, 68, 61
1, 38412, Note_on_c, 0, 68, 0
1, 38412, Note_on_c, 0, 67, 61
1, 38418, Note_on_c, 0, 67, 0
1, 38418, Note_on_c, 0, 68, 61
1, 38437, Note_on_c, 1, 56, 0
1, 38445, Note_on_c, 1, 60, 0
1, 38448, Note_on_c, 1, 54, 61
1, 38448, Note_on_c, 1, 58, 61
1, 38493, Note_on_c, 1, 54, 0
1, 38493, Note_on_c, 1, 58, 0
1, 38496, Note_on_c, 1, 53, 65
1, 38496, Note_on_c, 1, 56, 61
1, 38525, Note_on_c, 0, 68, 0
1, 38541, Note_on_c, 1, 53, 0
1, 38541, Note_on_c, 1, 56, 0
1, 38544, Note_on_c, 1, 51, 70
1, 38544, Note_on_c, 1, 54, 61
1, 38589, Note_on_c, 1, 51, 0
1, 38589, Note_on_c, 1, 54, 0
1, 38592, Note_on_c, 0, 61, 75
1, 38592, Note_on_c, 1, 53, 69
1, 38592, Note_on_c, 1, 49, 69
1, 38637, Note_on_c, 0, 61, 0
1, 38640, Note_on_c, 0, 65, 75
1, 38685, Note_on_c, 0, 65, 0
1, 38688, Note_on_c, 0, 68, 75
1, 38733, Note_on_c, 0, 68, 0
1, 38736, Note_on_c, 0, 73, 75
1, 38769, Note_on_c, 1, 53, 0
1, 38769, Note_on_c, 1, 49, 0
1, 38781, Note_on_c, 0, 73, 0
1, 38784, Note_on_c, 0, 72, 75
1, 38784, Note_on_c, 1, 65, 61
1, 38784, Note_on_c, 1, 61, 61
1, 38829, Note_on_c, 0, 72, 0
1, 38832, Note_on_c, 0, 70, 75
1, 38873, Note_on_c, 1, 65, 0
1, 38873, Note_on_c, 1, 61, 0
1, 38880, Note_on_c, 1, 63, 61
1, 38880, Note_on_c, 1, 60, 61
1, 38925, Note_on_c, 0, 70, 0
1, 38928, Note_on_c, 0, 67, 75
1, 38973, Note_on_c, 0, 67, 0
1, 38976, Note_on_c, 0, 68, 75
1, 39043, Note_on_c, 0, 68, 0
1, 39048, Note_on_c, 0, 85, 75
1, 39056, Note_on_c, 0, 85, 0
1, 39056, Note_on_c, 0, 82, 75
1, 39057, Note_on_c, 1, 63, 0
1, 39057, Note_on_c, 1, 60, 0
1, 39064, Note_on_c, 0, 82, 0
1, 39064, Note_on_c, 0, 79, 75
1, 39072, Note_on_c, 0, 79, 0
1, 39072, Note_on_c, 0, 80, 75
1, 39117, Note_on_c, 0, 80, 0
1, 39168, Note_on_c, 0, 59, 69
1, 39213, Note_on_c, 0, 59, 0
1, 39216, Note_on_c, 0, 63, 69
1, 39261, Note_on_c, 0, 63, 0
1, 39264, Note_on_c, 0, 68, 69
1, 39309, Note_on_c, 0, 68, 0
1, 39312, Note_on_c, 0, 71, 69
1, 39357, Note_on_c, 0, 71, 0
1, 39360, Note_on_c, 0, 70, 69
1, 39360, Note_on_c, 1, 63, 61
1, 39360, Note_on_c, 1, 59, 61
1, 39405, Note_on_c, 0, 70, 0
1, 39408, Note_on_c, 0, 68, 69
1, 39449, Note_on_c, 1, 63, 0
1, 39449, Note_on_c, 1, 59, 0
1, 39456, Note_on_c, 1, 61, 61
1, 39456, Note_on_c, 1, 58, 61
1, 39501, Note_on_c, 0, 68, 0
1, 39504, Note_on_c, 0, 65, 69
1, 39549, Note_on_c, 0, 65, 0
1, 39552, Note_on_c, 0, 66, 69
1, 39619, Note_on_c, 0, 66, 0
1, 39624, Note_on_c, 0, 83, 69
1, 39632, Note_on_c, 0, 83, 0
1, 39632, Note_on_c, 0, 80, 69
1, 39633, Note_on_c, 1, 61, 0
1, 39633, Note_on_c, 1, 58, 0
1, 39640, Note_on_c, 0, 80, 0
1, 39640, Note_on_c, 0, 77, 69
1, 39648, Note_on_c, 0, 77, 0
1, 39648, Note_on_c, 0, 78, 69
1, 39693, Note_on_c, 0, 78, 0
1, 39744, Note_on_c, 0, 57, 61
1, 39789, Note_on_c, 0, 57, 0
1, 39792, Note_on_c, 0, 61, 61
1, 39837, Note_on_c, 0, 61, 0
1, 39840, Note_on_c, 0, 66, 61
1, 39885, Note_on_c, 0, 66, 0
1, 39888, Note_on_c, 0, 69, 61
1, 39933, Note_on_c, 0, 69, 0
1, 39936, Note_on_c, 0, 68, 61
1, 39936, Note_on_c, 1, 61, 61
1, 39936, Note_on_c, 1, 57, 61
1, 39981, Note_on_c, 0, 68, 0
1, 39984, Note_on_c, 0, 66, 61
1, 40025, Note_on_c, 1, 61, 0
1, 40025, Note_on_c, 1, 57, 0
1, 40029, Note_on_c, 0, 66, 0
1, 40032, Note_on_c, 0, 73, 61
1, 40032, Note_on_c, 1, 66, 61
1, 40032, Note_on_c, 1, 63, 61
1, 40032, Note_on_c, 1, 56, 61
1, 40080, Note_on_c, 0, 73, 0
1, 40080, Note_on_c, 0, 72, 61
1, 40121, Note_on_c, 0, 72, 0
1, 40128, Note_on_c, 0, 72, 61
1, 40195, Note_on_c, 0, 72, 0
1, 40200, Note_on_c, 0, 73, 61
1, 40209, Note_on_c, 1, 66, 0
1, 40209, Note_on_c, 1, 63, 0
1, 40209, Note_on_c, 1, 56, 0
1, 40210, Note_on_c, 0, 73, 0
1, 40224, Note_on_c, 0, 75, 61
1, 40231, Note_on_c, 0, 75, 0
1, 40231, Note_on_c, 0, 73, 62
1, 40238, Note_on_c, 0, 73, 0
1, 40238, Note_on_c, 0, 75, 63
1, 40245, Note_on_c, 0, 75, 0
1, 40245, Note_on_c, 0, 73, 65
1, 40252, Note_on_c, 0, 73, 0
1, 40252, Note_on_c, 0, 75, 66
1, 40259, Note_on_c, 0, 75, 0
1, 40259, Note_on_c, 0, 73, 68
1, 40266, Note_on_c, 0, 73, 0
1, 40266, Note_on_c, 0, 75, 69
1, 40273, Note_on_c, 0, 75, 0
1, 40273, Note_on_c, 0, 73, 71
1, 40280, Note_on_c, 0, 73, 0
1, 40280, Note_on_c, 0, 75, 72
1, 40287, Note_on_c, 0, 75, 0
1, 40287, Note_on_c, 0, 73, 73
1, 40294, Note_on_c, 0, 73, 0
1, 40294, Note_on_c, 0, 72, 75
1, 40308, Note_on_c, 0, 72, 0
1, 40308, Note_on_c, 0, 73, 78
1, 40320, Note_on_c, 0, 73, 0
1, 40320, Note_on_c, 0, 75, 84
1, 40320, Note_on_c, 1, 56, 84
1, 40320, Note_on_c, 1, 51, 84
1, 40320, Note_on_c, 1, 48, 84
1, 40423, Note_on_c, 0, 75, 0
1, 40423, Note_on_c, 0, 65, 69
1, 40437, Note_on_c, 0, 65, 0
1, 40437, Note_on_c, 0, 66, 69
1, 40444, Note_on_c, 0, 66, 0
1, 40444, Note_on_c, 0, 68, 69
1, 40451, Note_on_c, 0, 68, 0
1, 40451, Note_on_c, 0, 66, 69
1, 40458, Note_on_c, 0, 66, 0
1, 40458, Note_on_c, 0, 68, 69
1, 40465, Note_on_c, 0, 68, 0
1, 40465, Note_on_c, 0, 66, 69
1, 40472, Note_on_c, 0, 66, 0
1, 40472, Note_on_c, 0, 68, 69
1, 40479, Note_on_c, 0, 68, 0
1, 40479, Note_on_c, 0, 66, 69
1, 40486, Note_on_c, 0, 66, 0
1, 40486, Note_on_c, 0, 68, 69
1, 40493, Note_on_c, 0, 68, 0
1, 40493, Note_on_c, 0, 66, 69
1, 40500, Note_on_c, 0, 66, 0
1, 40500, Note_on_c, 0, 68, 69
1, 40506, Note_on_c, 0, 68, 0
1, 40506, Note_on_c, 0, 66, 69
1, 40512, Note_on_c, 0, 66, 0
1, 40512, Note_on_c, 0, 68, 69
1, 40519, Note_on_c, 0, 68, 0
1, 40519, Note_on_c, 0, 66, 69
1, 40526, Note_on_c, 0, 66, 0
1, 40526, Note_on_c, 0, 68, 69
1, 40533, Note_on_c, 0, 68, 0
1, 40533, Note_on_c, 0, 66, 69
1, 40540, Note_on_c, 0, 66, 0
1, 40540, Note_on_c, 0, 65, 69
1, 40547, Note_on_c, 0, 65, 0
1, 40547, Note_on_c, 0, 66, 69
1, 40554, Note_on_c, 0, 66, 0
1, 40554, Note_on_c, 0, 68, 69
1, 40560, Note_on_c, 0, 68, 0
1, 40560, Note_on_c, 0, 70, 69
1, 40575, Note_on_c, 0, 70, 0
1, 40576, Note_on_c, 0, 68, 69
1, 40585, Note_on_c, 1, 56, 0
1, 40585, Note_on_c, 1, 51, 0
1, 40585, Note_on_c, 1, 48, 0
1, 40591, Note_on_c, 0, 68, 0
1, 40592, Note_on_c, 0, 66, 69
1, 40607, Note_on_c, 0, 66, 0
1, 40608, Note_on_c, 0, 65, 61
1, 40608, Note_on_c, 1, 56, 61
1, 40608, Note_on_c, 1, 53, 61
1, 40608, Note_on_c, 1, 49, 61
1, 40631, Note_on_c, 0, 65, 0
1, 40632, Note_on_c, 0, 68, 61
1, 40642, Note_on_c, 0, 68, 0
1, 40656, Note_on_c, 0, 70, 61
1, 40663, Note_on_c, 0, 70, 0
1, 40663, Note_on_c, 0, 68, 61
1, 40670, Note_on_c, 0, 68, 0
1, 40670, Note_on_c, 0, 70, 61
1, 40677, Note_on_c, 0, 70, 0
1, 40677, Note_on_c, 0, 68, 61
1, 40684, Note_on_c, 0, 68, 0
1, 40684, Note_on_c, 0, 66, 61
1, 40691, Note_on_c, 0, 66, 0
1, 40691, Note_on_c, 0, 68, 61
1, 40697, Note_on_c, 1, 56, 0
1, 40697, Note_on_c, 1, 53, 0
1, 40697, Note_on_c, 1, 49, 0
1, 40704, Note_on_c, 0, 68, 0
1, 40704, Note_on_c, 1, 61, 61
1, 40704, Note_on_c, 1, 53, 61
1, 40728, Note_on_c, 0, 68, 61
1, 40738, Note_on_c, 0, 68, 0
1, 40752, Note_on_c, 0, 70, 61
1, 40759, Note_on_c, 0, 70, 0
1, 40759, Note_on_c, 0, 68, 61
1, 40766, Note_on_c, 0, 68, 0
1, 40766, Note_on_c, 0, 70, 61
1, 40773, Note_on_c, 0, 70, 0
1, 40773, Note_on_c, 0, 68, 61
1, 40780, Note_on_c, 0, 68, 0
1, 40780, Note_on_c, 0, 66, 61
1, 40787, Note_on_c, 0, 66, 0
1, 40787, Note_on_c, 0, 68, 61
1, 40793, Note_on_c, 1, 61, 0
1, 40793, Note_on_c, 1, 53, 0
1, 40800, Note_on_c, 0, 68, 0
1, 40800, Note_on_c, 0, 77, 61
1, 40800, Note_on_c, 1, 53, 61
1, 40800, Note_on_c, 1, 49, 61
1, 40815, Note_on_c, 0, 77, 0
1, 40816, Note_on_c, 0, 75, 61
1, 40831, Note_on_c, 0, 75, 0
1, 40832, Note_on_c, 0, 73, 61
1, 40847, Note_on_c, 0, 73, 0
1, 40848, Note_on_c, 0, 72, 61
1, 40863, Note_on_c, 0, 72, 0
1, 40864, Note_on_c, 0, 70, 61
1, 40879, Note_on_c, 0, 70, 0
1, 40880, Note_on_c, 0, 68, 61
1, 40889, Note_on_c, 1, 53, 0
1, 40889, Note_on_c, 1, 49, 0
1, 40895, Note_on_c, 0, 68, 0
1, 40896, Note_on_c, 0, 68, 61
1, 40896, Note_on_c, 1, 51, 61
1, 40896, Note_on_c, 1, 51, 61
1, 40920, Note_on_c, 0, 61, 61
1, 40930, Note_on_c, 0, 61, 0
1, 40944, Note_on_c, 0, 63, 61
1, 40951, Note_on_c, 0, 63, 0
1, 40951, Note_on_c, 0, 61, 61
1, 40958, Note_on_c, 0, 61, 0
1, 40958, Note_on_c, 0, 63, 61
1, 40965, Note_on_c, 0, 63, 0
1, 40965, Note_on_c, 0, 61, 61
1, 40972, Note_on_c, 0, 61, 0
1, 40972, Note_on_c, 0, 60, 61
1, 40979, Note_on_c, 0, 60, 0
1, 40979, Note_on_c, 0, 61, 61
1, 40985, Note_on_c, 1, 51, 0
1, 40992, Note_on_c, 0, 68, 0
1, 40992, Note_on_c, 0, 66, 61
1, 40992, Note_on_c, 0, 61, 0
1, 40992, Note_on_c, 1, 58, 61
1, 41016, Note_on_c, 0, 61, 61
1, 41026, Note_on_c, 0, 61, 0
1, 41040, Note_on_c, 0, 63, 61
1, 41047, Note_on_c, 0, 63, 0
1, 41047, Note_on_c, 0, 61, 61
1, 41054, Note_on_c, 0, 61, 0
1, 41054, Note_on_c, 0, 63, 61
1, 41061, Note_on_c, 0, 63, 0
1, 41061, Note_on_c, 0, 61, 61
1, 41068, Note_on_c, 0, 61, 0
1, 41068, Note_on_c, 0, 60, 61
1, 41073, Note_on_c, 1, 51, 0
1, 41075, Note_on_c, 0, 60, 0
1, 41075, Note_on_c, 0, 61, 61
1, 41081, Note_on_c, 0, 66, 0
1, 41081, Note_on_c, 1, 58, 0
1, 41088, Note_on_c, 0, 61, 0
1, 41088, Note_on_c, 0, 70, 61
1, 41088, Note_on_c, 1, 51, 61
1, 41088, Note_on_c, 1, 42, 61
1, 41103, Note_on_c, 0, 70, 0
1, 41104, Note_on_c, 0, 68, 61
1, 41119, Note_on_c, 0, 68, 0
1, 41120, Note_on_c, 0, 66, 61
1, 41135, Note_on_c, 0, 66, 0
1, 41136, Note_on_c, 0, 65, 61
1, 41151, Note_on_c, 0, 65, 0
1, 41152, Note_on_c, 0, 63, 61
1, 41167, Note_on_c, 0, 63, 0
1, 41168, Note_on_c, 0, 61, 61
1, 41177, Note_on_c, 1, 42, 0
1, 41183, Note_on_c, 0, 61, 0
1, 41184, Note_on_c, 0, 61, 61
1, 41184, Note_on_c, 1, 44, 61
1, 41208, Note_on_c, 0, 66, 61
1, 41218, Note_on_c, 0, 66, 0
1, 41232, Note_on_c, 0, 68, 61
1, 41239, Note_on_c, 0, 68, 0
1, 41239, Note_on_c, 0, 66, 61
1, 41246, Note_on_c, 0, 66, 0
1, 41246, Note_on_c, 0, 68, 61
1, 41253, Note_on_c, 0, 68, 0
1, 41253, Note_on_c, 0, 66, 61
1, 41260, Note_on_c, 0, 66, 0
1, 41260, Note_on_c, 0, 65, 61
1, 41267, Note_on_c, 0, 65, 0
1, 41267, Note_on_c, 0, 66, 61
1, 41273, Note_on_c, 1, 51, 0
1, 41280, Note_on_c, 0, 66, 0
1, 41280, Note_on_c, 0, 61, 0
1, 41280, Note_on_c, 0, 60, 61
1, 41280, Note_on_c, 1, 56, 61
1, 41304, Note_on_c, 0, 66, 61
1, 41314, Note_on_c, 0, 66, 0
1, 41328, Note_on_c, 0, 68, 61
1, 41335, Note_on_c, 0, 68, 0
1, 41335, Note_on_c, 0, 66, 61
1, 41342, Note_on_c, 0, 66, 0
1, 41342, Note_on_c, 0, 68, 61
1, 41349, Note_on_c, 0, 68, 0
1, 41349, Note_on_c, 0, 66, 61
1, 41356, Note_on_c, 0, 66, 0
1, 41356, Note_on_c, 0, 65, 61
1, 41361, Note_on_c, 1, 44, 0
1, 41363, Note_on_c, 0, 65, 0
1, 41363, Note_on_c, 0, 66, 61
1, 41369, Note_on_c, 0, 60, 0
1, 41376, Note_on_c, 0, 66, 0
1, 41376, Note_on_c, 0, 75, 61
1, 41376, Note_on_c, 1, 48, 61
1, 41391, Note_on_c, 0, 75, 0
1, 41392, Note_on_c, 0, 73, 61
1, 41407, Note_on_c, 0, 73, 0
1, 41408, Note_on_c, 0, 72, 61
1, 41423, Note_on_c, 0, 72, 0
1, 41424, Note_on_c, 0, 70, 61
1, 41439, Note_on_c, 0, 70, 0
1, 41440, Note_on_c, 0, 68, 61
1, 41455, Note_on_c, 0, 68, 0
1, 41456, Note_on_c, 0, 66, 61
1, 41465, Note_on_c, 1, 48, 0
1, 41471, Note_on_c, 0, 66, 0
1, 41472, Note_on_c, 0, 66, 61
1, 41472, Note_on_c, 1, 49, 61
1, 41496, Note_on_c, 0, 59, 61
1, 41506, Note_on_c, 0, 59, 0
1, 41520, Note_on_c, 0, 61, 61
1, 41527, Note_on_c, 0, 61, 0
1, 41527, Note_on_c, 0, 59, 61
1, 41534, Note_on_c, 0, 59, 0
1, 41534, Note_on_c, 0, 61, 61
1, 41541, Note_on_c, 0, 61, 0
1, 41541, Note_on_c, 0, 59, 61
1, 41548, Note_on_c, 0, 59, 0
1, 41548, Note_on_c, 0, 58, 61
1, 41555, Note_on_c, 0, 58, 0
1, 41555, Note_on_c, 0, 59, 61
1, 41561, Note_on_c, 1, 56, 0
1, 41568, Note_on_c, 0, 66, 0
1, 41568, Note_on_c, 0, 65, 61
1, 41568, Note_on_c, 0, 59, 0
1, 41568, Note_on_c, 1, 56, 61
1, 41592, Note_on_c, 0, 59, 61
1, 41602, Note_on_c, 0, 59, 0
1, 41616, Note_on_c, 0, 61, 61
1, 41623, Note_on_c, 0, 61, 0
1, 41623, Note_on_c, 0, 59, 61
1, 41630, Note_on_c, 0, 59, 0
1, 41630, Note_on_c, 0, 61, 61
1, 41637, Note_on_c, 0, 61, 0
1, 41637, Note_on_c, 0, 59, 61
1, 41644, Note_on_c, 0, 59, 0
1, 41644, Note_on_c, 0, 58, 61
1, 41649, Note_on_c, 1, 49, 0
1, 41651, Note_on_c, 0, 58, 0
1, 41651, Note_on_c, 0, 59, 61
1, 41657, Note_on_c, 0, 65, 0
1, 41657, Note_on_c, 1, 56, 0
1, 41664, Note_on_c, 0, 68, 61
1, 41664, Note_on_c, 0, 59, 0
1, 41664, Note_on_c, 0, 68, 61
1, 41664, Note_on_c, 1, 49, 61
1, 41664, Note_on_c, 1, 41, 61
1, 41679, Note_on_c, 0, 68, 0
1, 41680, Note_on_c, 0, 66, 61
1, 41695, Note_on_c, 0, 66, 0
1, 41696, Note_on_c, 0, 65, 61
1, 41711, Note_on_c, 0, 65, 0
1, 41712, Note_on_c, 0, 63, 61
1, 41727, Note_on_c, 0, 63, 0
1, 41728, Note_on_c, 0, 61, 61
1, 41743, Note_on_c, 0, 61, 0
1, 41744, Note_on_c, 0, 59, 61
1, 41753, Note_on_c, 1, 41, 0
1, 41759, Note_on_c, 0, 59, 0
1, 41760, Note_on_c, 0, 58, 61
1, 41760, Note_on_c, 1, 42, 61
1, 41783, Note_on_c, 0, 68, 0
1, 41784, Note_on_c, 0, 61, 61
1, 41794, Note_on_c, 0, 61, 0
1, 41805, Note_on_c, 0, 58, 0
1, 41808, Note_on_c, 0, 63, 61
1, 41815, Note_on_c, 0, 63, 0
1, 41815, Note_on_c, 0, 61, 61
1, 41822, Note_on_c, 0, 61, 0
1, 41822, Note_on_c, 0, 63, 61
1, 41829, Note_on_c, 0, 63, 0
1, 41829, Note_on_c, 0, 61, 61
1, 41836, Note_on_c, 0, 61, 0
1, 41836, Note_on_c, 0, 60, 61
1, 41843, Note_on_c, 0, 60, 0
1, 41843, Note_on_c, 0, 60, 61
1, 41849, Note_on_c, 1, 49, 0
1, 41856, Note_on_c, 0, 60, 0
1, 41856, Note_on_c, 0, 66, 61
1, 41856, Note_on_c, 1, 46, 61
1, 41879, Note_on_c, 0, 66, 0
1, 41880, Note_on_c, 0, 61, 61
1, 41890, Note_on_c, 0, 61, 0
1, 41904, Note_on_c, 0, 63, 61
1, 41911, Note_on_c, 0, 63, 0
1, 41911, Note_on_c, 0, 61, 61
1, 41918, Note_on_c, 0, 61, 0
1, 41918, Note_on_c, 0, 63, 61
1, 41925, Note_on_c, 0, 63, 0
1, 41925, Note_on_c, 0, 61, 61
1, 41932, Note_on_c, 0, 61, 0
1, 41932, Note_on_c, 0, 60, 61
1, 41939, Note_on_c, 0, 60, 0
1, 41939, Note_on_c, 0, 61, 61
1, 41945, Note_on_c, 1, 46, 0
1, 41952, Note_on_c, 0, 61, 0
1, 41952, Note_on_c, 0, 70, 61
1, 41952, Note_on_c, 1, 51, 61
1, 41967, Note_on_c, 0, 70, 0
1, 41968, Note_on_c, 0, 68, 61
1, 41983, Note_on_c, 0, 68, 0
1, 41984, Note_on_c, 0, 66, 61
1, 41999, Note_on_c, 0, 66, 0
1, 42000, Note_on_c, 0, 65, 61
1, 42015, Note_on_c, 0, 65, 0
1, 42016, Note_on_c, 0, 63, 61
1, 42025, Note_on_c, 1, 42, 0
1, 42031, Note_on_c, 0, 63, 0
1, 42032, Note_on_c, 0, 61, 61
1, 42047, Note_on_c, 0, 61, 0
1, 42048, Note_on_c, 0, 60, 61
1, 42048, Note_on_c, 1, 44, 61
1, 42072, Note_on_c, 0, 56, 61
1, 42082, Note_on_c, 0, 56, 0
1, 42093, Note_on_c, 1, 51, 0
1, 42096, Note_on_c, 0, 58, 61
1, 42096, Note_on_c, 1, 54, 61
1, 42103, Note_on_c, 0, 58, 0
1, 42103, Note_on_c, 0, 56, 61
1, 42110, Note_on_c, 0, 56, 0
1, 42110, Note_on_c, 0, 58, 61
1, 42117, Note_on_c, 0, 58, 0
1, 42117, Note_on_c, 0, 56, 61
1, 42124, Note_on_c, 0, 56, 0
1, 42124, Note_on_c, 0, 54, 61
1, 42131, Note_on_c, 0, 54, 0
1, 42131, Note_on_c, 0, 56, 61
1, 42137, Note_on_c, 0, 60, 0
1, 42141, Note_on_c, 1, 54, 0
1, 42144, Note_on_c, 0, 61, 61
1, 42144, Note_on_c, 0, 56, 0
1, 42144, Note_on_c, 1, 53, 61
1, 42168, Note_on_c, 0, 56, 61
1, 42178, Note_on_c, 0, 56, 0
1, 42189, Note_on_c, 1, 53, 0
1, 42192, Note_on_c, 0, 58, 61
1, 42192, Note_on_c, 1, 49, 61
1, 42199, Note_on_c, 0, 58, 0
1, 42199, Note_on_c, 0, 56, 61
1, 42206, Note_on_c, 0, 56, 0
1, 42206, Note_on_c, 0, 58, 61
1, 42213, Note_on_c, 0, 58, 0
1, 42213, Note_on_c, 0, 56, 61
1, 42220, Note_on_c, 0, 56, 0
1, 42220, Note_on_c, 0, 54, 61
1, 42227, Note_on_c, 0, 54, 0
1, 42227, Note_on_c, 0, 56, 61
1, 42233, Note_on_c, 0, 61, 0
1, 42237, Note_on_c, 1, 49, 0
1, 42240, Note_on_c, 0, 63, 61
1, 42240, Note_on_c, 0, 56, 0
1, 42240, Note_on_c, 1, 48, 61
1, 42264, Note_on_c, 0, 56, 61
1, 42274, Note_on_c, 0, 56, 0
1, 42288, Note_on_c, 0, 58, 61
1, 42295, Note_on_c, 0, 58, 0
1, 42295, Note_on_c, 0, 56, 61
1, 42302, Note_on_c, 0, 56, 0
1, 42302, Note_on_c, 0, 58, 61
1, 42309, Note_on_c, 0, 58, 0
1, 42309, Note_on_c, 0, 56, 61
1, 42316, Note_on_c, 0, 56, 0
1, 42316, Note_on_c, 0, 54, 61
1, 42323, Note_on_c, 0, 54, 0
1, 42323, Note_on_c, 0, 56, 61
1, 42329, Note_on_c, 0, 63, 0
1, 42329, Note_on_c, 1, 48, 0
1, 42336, Note_on_c, 0, 65, 61
1, 42336, Note_on_c, 0, 56, 0
1, 42336, Note_on_c, 1, 49, 61
1, 42360, Note_on_c, 0, 56, 61
1, 42370, Note_on_c, 0, 56, 0
1, 42384, Note_on_c, 0, 58, 61
1, 42391, Note_on_c, 0, 58, 0
1, 42391, Note_on_c, 0, 56, 61
1, 42398, Note_on_c, 0, 56, 0
1, 42398, Note_on_c, 0, 58, 61
1, 42405, Note_on_c, 0, 58, 0
1, 42405, Note_on_c, 0, 56, 61
1, 42412, Note_on_c, 0, 56, 0
1, 42412, Note_on_c, 0, 55, 61
1, 42419, Note_on_c, 0, 55, 0
1, 42419, Note_on_c, 0, 56, 61
1, 42425, Note_on_c, 0, 65, 0
1, 42425, Note_on_c, 1, 49, 0
1, 42432, Note_on_c, 0, 67, 61
1, 42432, Note_on_c, 0, 56, 0
1, 42432, Note_on_c, 1, 46, 61
1, 42456, Note_on_c, 0, 61, 63
1, 42466, Note_on_c, 0, 61, 0
1, 42480, Note_on_c, 0, 63, 66
1, 42487, Note_on_c, 0, 63, 0
1, 42487, Note_on_c, 0, 61, 67
1, 42494, Note_on_c, 0, 61, 0
1, 42494, Note_on_c, 0, 63, 68
1, 42501, Note_on_c, 0, 63, 0
1, 42501, Note_on_c, 0, 61, 68
1, 42508, Note_on_c, 0, 61, 0
1, 42508, Note_on_c, 0, 60, 69
1, 42515, Note_on_c, 0, 60, 0
1, 42515, Note_on_c, 0, 61, 70
1, 42521, Note_on_c, 0, 67, 0
1, 42528, Note_on_c, 0, 73, 68
1, 42528, Note_on_c, 0, 61, 0
1, 42552, Note_on_c, 0, 67, 74
1, 42562, Note_on_c, 0, 67, 0
1, 42576, Note_on_c, 0, 68, 77
1, 42583, Note_on_c, 0, 68, 0
1, 42583, Note_on_c, 0, 67, 78
1, 42590, Note_on_c, 0, 67, 0
1, 42590, Note_on_c, 0, 68, 78
1, 42597, Note_on_c, 0, 68, 0
1, 42597, Note_on_c, 0, 67, 79
1, 42604, Note_on_c, 0, 67, 0
1, 42604, Note_on_c, 0, 65, 80
1, 42611, Note_on_c, 0, 65, 0
1, 42611, Note_on_c, 0, 67, 81
1, 42617, Note_on_c, 0, 73, 0
1, 42624, Note_on_c, 0, 73, 76
1, 42624, Note_on_c, 0, 67, 76
1, 42624, Note_on_c, 0, 67, 0
1, 42713, Note_on_c, 0, 73, 0
1, 42713, Note_on_c, 0, 67, 0
1, 42713, Note_on_c, 1, 46, 0
1, 42713, Note_on_c, 1, 44, 0
1, 42720, Note_on_c, 0, 60, 84
1, 42720, Note_on_c, 1, 44, 84
1, 42726, Note_on_c, 1, 48, 84
1, 42732, Note_on_c, 0, 60, 0
1, 42732, Note_on_c, 0, 63, 84
1, 42732, Note_on_c, 1, 51, 84
1, 42738, Note_on_c, 1, 56, 84
1, 42744, Note_on_c, 0, 63, 0
1, 42744, Note_on_c, 0, 72, 84
1, 42744, Note_on_c, 0, 68, 84
1, 42816, Tempo, 1500000
1, 42905, Note_on_c, 0, 72, 0
1, 42905, Note_on_c, 0, 68, 0
1, 42912, Tempo, 1000000
1, 42912, Note_on_c, 0, 71, 61
1, 42935, Note_on_c, 0, 71, 0
1, 42936, Note_on_c, 0, 72, 61
1, 42959, Note_on_c, 0, 72, 0
1, 42960, Note_on_c, 0, 68, 61
1, 42983, Note_on_c, 0, 68, 0
1, 42984, Note_on_c, 0, 63, 61
1, 43001, Note_on_c, 1, 56, 0
1, 43001, Note_on_c, 1, 51, 0
1, 43001, Note_on_c, 1, 48, 0
1, 43001, Note_on_c, 1, 44, 0
1, 43007, Note_on_c, 0, 63, 0
1, 43008, Note_on_c, 0, 67, 61
1, 43031, Note_on_c, 0, 67, 0
1, 43032, Note_on_c, 0, 68, 61
1, 43055, Note_on_c, 0, 68, 0
1, 43056, Note_on_c, 0, 63, 61
1, 43079, Note_on_c, 0, 63, 0
1, 43080, Note_on_c, 0, 60, 61
1, 43103, Note_on_c, 0, 60, 0
1, 43104, Note_on_c, 0, 62, 61
1, 43127, Note_on_c, 0, 62, 0
1, 43128, Note_on_c, 0, 63, 61
1, 43151, Note_on_c, 0, 63, 0
1, 43152, Note_on_c, 0, 60, 61
1, 43175, Note_on_c, 0, 60, 0
1, 43176, Note_on_c, 0, 56, 61
1, 43199, Note_on_c, 0, 56, 0
1, 43200, Note_on_c, 1, 56, 61
1, 43245, Note_on_c, 1, 56, 0
1, 43248, Note_on_c, 1, 58, 61
1, 43256, Note_on_c, 1, 58, 0
1, 43256, Note_on_c, 1, 60, 61
1, 43264, Note_on_c, 1, 60, 0
1, 43264, Note_on_c, 1, 61, 61
1, 43272, Note_on_c, 1, 61, 0
1, 43272, Note_on_c, 1, 63, 61
1, 43280, Note_on_c, 1, 63, 0
1, 43280, Note_on_c, 1, 65, 61
1, 43288, Note_on_c, 1, 65, 0
1, 43288, Note_on_c, 1, 66, 61
1, 43341, Note_on_c, 1, 66, 0
1, 43344, Note_on_c, 0, 68, 61
1, 43352, Note_on_c, 0, 68, 0
1, 43352, Note_on_c, 0, 70, 61
1, 43360, Note_on_c, 0, 70, 0
1, 43360, Note_on_c, 0, 72, 61
1, 43368, Note_on_c, 0, 72, 0
1, 43368, Note_on_c, 0, 73, 61
1, 43376, Note_on_c, 0, 73, 0
1, 43376, Note_on_c, 0, 75, 61
1, 43384, Note_on_c, 0, 75, 0
1, 43384, Note_on_c, 0, 77, 61
1, 43392, Tempo, 1500000
1, 43392, Note_on_c, 0, 77, 0
1, 43392, Note_on_c, 0, 78, 61
1, 43459, Note_on_c, 0, 78, 0
1, 43488, Tempo, 1000000
1, 43488, Note_on_c, 1, 49, 84
1, 43533, Note_on_c, 1, 49, 0
1, 43536, Note_on_c, 1, 53, 84
1, 43544, Note_on_c, 1, 53, 0
1, 43544, Note_on_c, 1, 56, 84
1, 43552, Note_on_c, 1, 56, 0
1, 43552, Note_on_c, 1, 61, 84
1, 43560, Note_on_c, 1, 61, 0
1, 43560, Note_on_c, 1, 65, 84
1, 43568, Note_on_c, 1, 65, 0
1, 43568, Note_on_c, 1, 68, 84
1, 43576, Note_on_c, 1, 68, 0
1, 43576, Note_on_c, 1, 73, 84
1, 43584, Note_on_c, 0, 77, 84
1, 43584, Note_on_c, 1, 73, 0
1, 43629, Note_on_c, 0, 77, 0
1, 43632, Note_on_c, 0, 73, 84
1, 43632, Note_on_c, 0, 70, 84
1, 43677, Note_on_c, 0, 73, 0
1, 43677, Note_on_c, 0, 70, 0
1, 43680, Note_on_c, 0, 72, 80
1, 43680, Note_on_c, 0, 68, 80
1, 43725, Note_on_c, 0, 72, 0
1, 43725, Note_on_c, 0, 68, 0
1, 43728, Note_on_c, 0, 70, 76
1, 43728, Note_on_c, 0, 66, 76
1, 43773, Note_on_c, 0, 70, 0
1, 43773, Note_on_c, 0, 66, 0
1, 43776, Note_on_c, 0, 70, 72
1, 43776, Note_on_c, 0, 66, 72
1, 43821, Note_on_c, 0, 70, 0
1, 43821, Note_on_c, 0, 66, 0
1, 43824, Note_on_c, 0, 68, 68
1, 43824, Note_on_c, 0, 65, 68
1, 43824, Note_on_c, 1, 56, 66
1, 43869, Note_on_c, 1, 56, 0
1, 43872, Note_on_c, 1, 56, 61
1, 43913, Note_on_c, 0, 68, 0
1, 43913, Note_on_c, 0, 65, 0
1, 43920, Note_on_c, 0, 66, 61
1, 43920, Note_on_c, 0, 63, 61
1, 43920, Note_on_c, 1, 56, 0
1, 43920, Note_on_c, 1, 57, 61
1, 43965, Note_on_c, 1, 57, 0
1, 43968, Note_on_c, 1, 58, 61
1, 44009, Note_on_c, 0, 66, 0
1, 44009, Note_on_c, 0, 63, 0
1, 44016, Note_on_c, 0, 65, 61
1, 44016, Note_on_c, 0, 61, 61
1, 44057, Note_on_c, 1, 58, 0
1, 44061, Note_on_c, 0, 65, 0
1, 44061, Note_on_c, 0, 61, 0
1, 44064, Note_on_c, 1, 51, 61
1, 44112, Note_on_c, 0, 66, 61
1, 44112, Note_on_c, 0, 63, 61
1, 44153, Note_on_c, 1, 51, 0
1, 44160, Note_on_c, 1, 56, 61
1, 44201, Note_on_c, 0, 66, 0
1, 44201, Note_on_c, 0, 63, 0
1, 44208, Note_on_c, 0, 65, 61
1, 44208, Note_on_c, 0, 61, 61
1, 44249, Note_on_c, 1, 56, 0
1, 44256, Note_on_c, 1, 44, 61
1, 44297, Note_on_c, 0, 65, 0
1, 44297, Note_on_c, 0, 61, 0
1, 44304, Note_on_c, 0, 63, 61
1, 44304, Note_on_c, 0, 60, 61
1, 44345, Note_on_c, 1, 44, 0
1, 44352, Note_on_c, 1, 49, 61
1, 44400, Note_on_c, 0, 63, 0
1, 44400, Note_on_c, 0, 64, 61
1, 44445, Note_on_c, 0, 64, 0
1, 44445, Note_on_c, 0, 60, 0
1, 44448, Note_on_c, 0, 65, 61
1, 44448, Note_on_c, 0, 61, 61
1, 44529, Note_on_c, 1, 49, 0
1, 44537, Note_on_c, 0, 65, 0
1, 44537, Note_on_c, 0, 61, 0
1, 44544, Note_on_c, 1, 49, 84
1, 44589, Note_on_c, 1, 49, 0
1, 44592, Note_on_c, 1, 53, 84
1, 44600, Note_on_c, 1, 53, 0
1, 44600, Note_on_c, 1, 56, 84
1, 44608, Note_on_c, 1, 56, 0
1, 44608, Note_on_c, 1, 61, 84
1, 44616, Note_on_c, 1, 61, 0
1, 44616, Note_on_c, 1, 65, 84
1, 44624, Note_on_c, 1, 65, 0
1, 44624, Note_on_c, 1, 68, 84
1, 44632, Note_on_c, 1, 68, 0
1, 44632, Note_on_c, 1, 73, 84
1, 44640, Note_on_c, 0, 77, 84
1, 44640, Note_on_c, 1, 73, 0
1, 44664, Note_on_c, 1, 61, 84
1, 44685, Note_on_c, 0, 77, 0
1, 44687, Note_on_c, 1, 61, 0
1, 44688, Note_on_c, 1, 65, 84
1, 44696, Note_on_c, 1, 65, 0
1, 44696, Note_on_c, 1, 68, 84
1, 44704, Note_on_c, 1, 68, 0
1, 44704, Note_on_c, 1, 73, 84
1, 44712, Note_on_c, 1, 73, 0
1, 44712, Note_on_c, 1, 77, 84
1, 44720, Note_on_c, 1, 77, 0
1, 44720, Note_on_c, 1, 80, 84
1, 44728, Note_on_c, 1, 80, 0
1, 44728, Note_on_c, 1, 85, 84
1, 44736, Note_on_c, 0, 89, 84
1, 44736, Note_on_c, 1, 85, 0
1, 44781, Note_on_c, 0, 89, 0
1, 44784, Note_on_c, 0, 85, 80
1, 44784, Note_on_c, 0, 82, 80
1, 44829, Note_on_c, 0, 85, 0
1, 44829, Note_on_c, 0, 82, 0
1, 44832, Note_on_c, 0, 84, 77
1, 44832, Note_on_c, 0, 80, 77
1, 44877, Note_on_c, 0, 84, 0
1, 44877, Note_on_c, 0, 80, 0
1, 44880, Note_on_c, 0, 82, 74
1, 44880, Note_on_c, 0, 78, 74
1, 44925, Note_on_c, 0, 82, 0
1, 44925, Note_on_c, 0, 78, 0
1, 44928, Note_on_c, 0, 82, 70
1, 44928, Note_on_c, 0, 78, 70
1, 44973, Note_on_c, 0, 82, 0
1, 44973, Note_on_c, 0, 78, 0
1, 44976, Note_on_c, 0, 80, 67
1, 44976, Note_on_c, 0, 77, 67
1, 44976, Note_on_c, 1, 68, 84
1, 45021, Note_on_c, 1, 68, 0
1, 45024, Note_on_c, 1, 68, 84
1, 45065, Note_on_c, 0, 80, 0
1, 45065, Note_on_c, 0, 77, 0
1, 45072, Note_on_c, 0, 78, 61
1, 45072, Note_on_c, 0, 75, 61
1, 45072, Note_on_c, 1, 68, 0
1, 45072, Note_on_c, 1, 69, 84
1, 45117, Note_on_c, 1, 69, 0
1, 45120, Note_on_c, 1, 70, 84
1, 45161, Note_on_c, 0, 78, 0
1, 45161, Note_on_c, 0, 75, 0
1, 45168, Note_on_c, 0, 77, 61
1, 45168, Note_on_c, 0, 73, 61
1, 45209, Note_on_c, 1, 70, 0
1, 45213, Note_on_c, 0, 77, 0
1, 45213, Note_on_c, 0, 73, 0
1, 45216, Note_on_c, 1, 73, 84
1, 45216, Note_on_c, 1, 67, 61
1, 45240, Note_on_c, 0, 75, 61
1, 45250, Note_on_c, 0, 75, 0
1, 45264, Note_on_c, 0, 75, 61
1, 45288, Note_on_c, 0, 75, 0
1, 45288, Note_on_c, 0, 87, 61
1, 45298, Note_on_c, 0, 87, 0
1, 45305, Note_on_c, 1, 73, 0
1, 45305, Note_on_c, 1, 67, 0
1, 45312, Note_on_c, 1, 71, 84
1, 45312, Note_on_c, 1, 68, 61
1, 45336, Note_on_c, 0, 75, 61
1, 45346, Note_on_c, 0, 75, 0
1, 45360, Note_on_c, 0, 75, 61
1, 45384, Note_on_c, 0, 75, 0
1, 45384, Note_on_c, 0, 87, 61
1, 45401, Note_on_c, 1, 71, 0
1, 45401, Note_on_c, 1, 68, 0
1, 45407, Note_on_c, 0, 87, 0
1, 45408, Note_on_c, 1, 71, 84
1, 45408, Note_on_c, 1, 66, 61
1, 45432, Note_on_c, 0, 87, 61
1, 45442, Note_on_c, 0, 87, 0
1, 45456, Note_on_c, 0, 87, 61
1, 45480, Note_on_c, 0, 87, 0
1, 45480, Note_on_c, 0, 75, 61
1, 45490, Note_on_c, 0, 75, 0
1, 45497, Note_on_c, 1, 66, 0
1, 45504, Note_on_c, 1, 65, 61
1, 45528, Note_on_c, 0, 73, 61
1, 45538, Note_on_c, 0, 73, 0
1, 45552, Note_on_c, 0, 73, 61
1, 45576, Note_on_c, 0, 73, 0
1, 45576, Note_on_c, 0, 85, 61
1, 45586, Note_on_c, 0, 85, 0
1, 45593, Note_on_c, 1, 71, 0
1, 45593, Note_on_c, 1, 65, 0
1, 45600, Note_on_c, 1, 70, 84
1, 45600, Note_on_c, 1, 66, 61
1, 45624, Note_on_c, 0, 73, 61
1, 45634, Note_on_c, 0, 73, 0
1, 45648, Note_on_c, 0, 73, 61
1, 45672, Note_on_c, 0, 73, 0
1, 45672, Note_on_c, 0, 85, 61
1, 45682, Note_on_c, 0, 85, 0
1, 45689, Note_on_c, 1, 70, 0
1, 45689, Note_on_c, 1, 66, 0
1, 45696, Note_on_c, 1, 70, 84
1, 45696, Note_on_c, 1, 65, 61
1, 45720, Note_on_c, 0, 85, 61
1, 45730, Note_on_c, 0, 85, 0
1, 45744, Note_on_c, 0, 85, 61
1, 45768, Note_on_c, 0, 85, 0
1, 45768, Note_on_c, 0, 73, 61
1, 45778, Note_on_c, 0, 73, 0
1, 45785, Note_on_c, 1, 65, 0
1, 45792, Note_on_c, 1, 63, 61
1, 45816, Note_on_c, 0, 71, 61
1, 45826, Note_on_c, 0, 71, 0
1, 45840, Note_on_c, 0, 71, 61
1, 45864, Note_on_c, 0, 71, 0
1, 45864, Note_on_c, 0, 83, 61
1, 45874, Note_on_c, 0, 83, 0
1, 45881, Note_on_c, 1, 70, 0
1, 45881, Note_on_c, 1, 63, 0
1, 45888, Note_on_c, 1, 68, 84
1, 45888, Note_on_c, 1, 65, 61
1, 45912, Note_on_c, 0, 71, 61
1, 45922, Note_on_c, 0, 71, 0
1, 45936, Note_on_c, 0, 71, 61
1, 45960, Note_on_c, 0, 71, 0
1, 45960, Note_on_c, 0, 83, 61
1, 45970, Note_on_c, 0, 83, 0
1, 45977, Note_on_c, 1, 68, 0
1, 45977, Note_on_c, 1, 65, 0
1, 45984, Note_on_c, 1, 68, 84
1, 45984, Note_on_c, 1, 63, 61
1, 46008, Note_on_c, 0, 83, 61
1, 46018, Note_on_c, 0, 83, 0
1, 46032, Note_on_c, 0, 83, 61
1, 46056, Note_on_c, 0, 83, 0
1, 46056, Note_on_c, 0, 71, 61
1, 46066, Note_on_c, 0, 71, 0
1, 46073, Note_on_c, 1, 63, 0
1, 46080, Note_on_c, 1, 62, 61
1, 46104, Note_on_c, 0, 70, 61
1, 46114, Note_on_c, 0, 70, 0
1, 46128, Note_on_c, 0, 70, 61
1, 46152, Note_on_c, 0, 70, 0
1, 46152, Note_on_c, 0, 82, 61
1, 46162, Note_on_c, 0, 82, 0
1, 46169, Note_on_c, 1, 68, 0
1, 46169, Note_on_c, 1, 62, 0
1, 46176, Note_on_c, 1, 66, 84
1, 46176, Note_on_c, 1, 63, 61
1, 46200, Note_on_c, 0, 70, 61
1, 46210, Note_on_c, 0, 70, 0
1, 46224, Note_on_c, 0, 70, 61
1, 46248, Note_on_c, 0, 70, 0
1, 46248, Note_on_c, 0, 82, 61
1, 46258, Note_on_c, 0, 82, 0
1, 46265, Note_on_c, 1, 66, 0
1, 46265, Note_on_c, 1, 63, 0
1, 46272, Note_on_c, 1, 66, 84
1, 46272, Note_on_c, 1, 61, 61
1, 46296, Note_on_c, 0, 82, 61
1, 46306, Note_on_c, 0, 82, 0
1, 46320, Note_on_c, 0, 82, 61
1, 46344, Note_on_c, 0, 82, 0
1, 46344, Note_on_c, 0, 70, 61
1, 46354, Note_on_c, 0, 70, 0
1, 46361, Note_on_c, 1, 61, 0
1, 46368, Note_on_c, 1, 60, 61
1, 46392, Note_on_c, 0, 68, 61
1, 46402, Note_on_c, 0, 68, 0
1, 46416, Note_on_c, 0, 68, 61
1, 46440, Note_on_c, 0, 68, 0
1, 46440, Note_on_c, 0, 80, 61
1, 46450, Note_on_c, 0, 80, 0
1, 46457, Note_on_c, 1, 66, 0
1, 46457, Note_on_c, 1, 60, 0
1, 46464, Note_on_c, 1, 65, 84
1, 46464, Note_on_c, 1, 61, 61
1, 46488, Note_on_c, 0, 68, 61
1, 46498, Note_on_c, 0, 68, 0
1, 46512, Note_on_c, 0, 68, 61
1, 46536, Note_on_c, 0, 68, 0
1, 46536, Note_on_c, 0, 73, 61
1, 46553, Note_on_c, 1, 65, 0
1, 46553, Note_on_c, 1, 61, 0
1, 46559, Note_on_c, 0, 73, 0
1, 46560, Note_on_c, 0, 73, 61
1, 46560, Note_on_c, 1, 61, 84
1, 46560, Note_on_c, 1, 56, 84
1, 46560, Note_on_c, 1, 53, 84
1, 46584, Note_on_c, 0, 73, 0
1, 46584, Note_on_c, 0, 77, 61
1, 46607, Note_on_c, 0, 77, 0
1, 46608, Note_on_c, 0, 77, 61
1, 46632, Note_on_c, 0, 77, 0
1, 46632, Note_on_c, 0, 80, 61
1, 46649, Note_on_c, 1, 61, 0
1, 46649, Note_on_c, 1, 56, 0
1, 46649, Note_on_c, 1, 53, 0
1, 46655, Note_on_c, 0, 80, 0
1, 46656, Note_on_c, 0, 80, 61
1, 46656, Note_on_c, 1, 61, 61
1, 46656, Note_on_c, 1, 58, 61
1, 46656, Note_on_c, 1, 54, 61
1, 46680, Note_on_c, 0, 80, 0
1, 46680, Note_on_c, 0, 70, 63
1, 46703, Note_on_c, 0, 70, 0
1, 46704, Note_on_c, 0, 70, 66
1, 46728, Note_on_c, 0, 70, 0
1, 46728, Note_on_c, 0, 73, 69
1, 46745, Note_on_c, 1, 61, 0
1, 46745, Note_on_c, 1, 58, 0
1, 46745, Note_on_c, 1, 54, 0
1, 46751, Note_on_c, 0, 73, 0
1, 46752, Note_on_c, 0, 73, 72
1, 46776, Note_on_c, 0, 73, 0
1, 46776, Note_on_c, 0, 78, 75
1, 46799, Note_on_c, 0, 78, 0
1, 46800, Note_on_c, 0, 78, 78
1, 46824, Note_on_c, 0, 78, 0
1, 46824, Note_on_c, 0, 82, 81
1, 46847, Note_on_c, 0, 82, 0
1, 46848, Note_on_c, 0, 82, 84
1, 46848, Note_on_c, 1, 63, 75
1, 46848, Note_on_c, 1, 54, 75
1, 46872, Note_on_c, 0, 82, 0
1, 46872, Note_on_c, 0, 78, 80
1, 46895, Note_on_c, 0, 78, 0
1, 46896, Note_on_c, 0, 77, 76
1, 46919, Note_on_c, 0, 77, 0
1, 46920, Note_on_c, 0, 75, 72
1, 46937, Note_on_c, 1, 63, 0
1, 46937, Note_on_c, 1, 54, 0
1, 46943, Note_on_c, 0, 75, 0
1, 46944, Note_on_c, 0, 73, 85
1, 46944, Note_on_c, 1, 64, 61
1, 46944, Note_on_c, 1, 56, 61
1, 47016, Note_on_c, 0, 73, 0
1, 47016, Note_on_c, 0, 76, 69
1, 47028, Note_on_c, 0, 76, 0
1, 47028, Note_on_c, 0, 75, 69
1, 47033, Note_on_c, 1, 64, 0
1, 47033, Note_on_c, 1, 56, 0
1, 47040, Note_on_c, 0, 75, 0
1, 47040, Note_on_c, 0, 73, 69
1, 47085, Note_on_c, 0, 73, 0
1, 47088, Note_on_c, 0, 73, 69
1, 47088, Note_on_c, 1, 64, 61
1, 47088, Note_on_c, 1, 56, 61
1, 47108, Note_on_c, 0, 73, 0
1, 47135, Note_on_c, 1, 64, 0
1, 47135, Note_on_c, 1, 56, 0
1, 47136, Note_on_c, 0, 73, 69
1, 47136, Note_on_c, 1, 64, 61
1, 47136, Note_on_c, 1, 56, 61
1, 47156, Note_on_c, 0, 73, 0
1, 47183, Note_on_c, 1, 64, 0
1, 47183, Note_on_c, 1, 56, 0
1, 47184, Note_on_c, 0, 73, 69
1, 47184, Note_on_c, 1, 64, 61
1, 47184, Note_on_c, 1, 56, 61
1, 47204, Note_on_c, 0, 73, 0
1, 47231, Note_on_c, 1, 64, 0
1, 47231, Note_on_c, 1, 56, 0
1, 47232, Note_on_c, 0, 73, 85
1, 47232, Note_on_c, 1, 64, 61
1, 47232, Note_on_c, 1, 57, 61
1, 47304, Note_on_c, 0, 73, 0
1, 47304, Note_on_c, 0, 76, 69
1, 47316, Note_on_c, 0, 76, 0
1, 47316, Note_on_c, 0, 75, 69
1, 47326, Note_on_c, 1, 64, 0
1, 47326, Note_on_c, 1, 57, 0
1, 47328, Note_on_c, 0, 75, 0
1, 47328, Note_on_c, 0, 73, 69
1, 47373, Note_on_c, 0, 73, 0
1, 47376, Note_on_c, 0, 73, 69
1, 47376, Note_on_c, 1, 64, 61
1, 47376, Note_on_c, 1, 57, 61
1, 47396, Note_on_c, 0, 73, 0
1, 47423, Note_on_c, 1, 64, 0
1, 47423, Note_on_c, 1, 57, 0
1, 47424, Note_on_c, 0, 73, 69
1, 47424, Note_on_c, 1, 64, 61
1, 47424, Note_on_c, 1, 57, 61
1, 47444, Note_on_c, 0, 73, 0
1, 47471, Note_on_c, 1, 64, 0
1, 47471, Note_on_c, 1, 57, 0
1, 47472, Note_on_c, 0, 73, 69
1, 47472, Note_on_c, 1, 64, 61
1, 47472, Note_on_c, 1, 57, 61
1, 47492, Note_on_c, 0, 73, 0
1, 47519, Note_on_c, 1, 64, 0
1, 47519, Note_on_c, 1, 57, 0
1, 47520, Note_on_c, 0, 74, 69
1, 47520, Note_on_c, 1, 64, 61
1, 47520, Note_on_c, 1, 56, 61
1, 47554, Note_on_c, 0, 74, 0
1, 47556, Note_on_c, 0, 80, 69
1, 47568, Note_on_c, 0, 80, 0
1, 47568, Note_on_c, 0, 83, 69
1, 47580, Note_on_c, 0, 83, 0
1, 47580, Note_on_c, 0, 86, 69
1, 47592, Note_on_c, 0, 86, 0
1, 47592, Note_on_c, 0, 83, 69
1, 47604, Note_on_c, 0, 83, 0
1, 47604, Note_on_c, 0, 80, 69
1, 47614, Note_on_c, 1, 64, 0
1, 47614, Note_on_c, 1, 56, 0
1, 47616, Note_on_c, 0, 80, 0
1, 47616, Note_on_c, 0, 76, 69
1, 47664, Note_on_c, 0, 76, 0
1, 47664, Note_on_c, 0, 74, 69
1, 47664, Note_on_c, 1, 64, 61
1, 47664, Note_on_c, 1, 56, 61
1, 47709, Note_on_c, 0, 74, 0
1, 47711, Note_on_c, 1, 64, 0
1, 47711, Note_on_c, 1, 56, 0
1, 47712, Note_on_c, 0, 74, 69
1, 47712, Note_on_c, 1, 64, 61
1, 47712, Note_on_c, 1, 56, 61
1, 47732, Note_on_c, 0, 74, 0
1, 47759, Note_on_c, 1, 64, 0
1, 47759, Note_on_c, 1, 56, 0
1, 47760, Note_on_c, 0, 74, 69
1, 47760, Note_on_c, 1, 64, 61
1, 47760, Note_on_c, 1, 56, 61
1, 47780, Note_on_c, 0, 74, 0
1, 47807, Note_on_c, 1, 64, 0
1, 47807, Note_on_c, 1, 56, 0
1, 47808, Note_on_c, 0, 74, 69
1, 47808, Note_on_c, 1, 64, 61
1, 47808, Note_on_c, 1, 57, 61
1, 47831, Note_on_c, 0, 74, 0
1, 47832, Note_on_c, 0, 73, 69
1, 47855, Note_on_c, 0, 73, 0
1, 47856, Note_on_c, 0, 72, 69
1, 47879, Note_on_c, 0, 72, 0
1, 47880, Note_on_c, 0, 73, 69
1, 47902, Note_on_c, 1, 64, 0
1, 47902, Note_on_c, 1, 57, 0
1, 47903, Note_on_c, 0, 73, 0
1, 47904, Note_on_c, 0, 73, 69
1, 47949, Note_on_c, 0, 73, 0
1, 47952, Note_on_c, 0, 73, 69
1, 47952, Note_on_c, 1, 64, 61
1, 47952, Note_on_c, 1, 57, 61
1, 47972, Note_on_c, 0, 73, 0
1, 47999, Note_on_c, 1, 64, 0
1, 47999, Note_on_c, 1, 57, 0
1, 48000, Note_on_c, 0, 73, 70
1, 48000, Note_on_c, 1, 64, 63
1, 48000, Note_on_c, 1, 57, 63
1, 48020, Note_on_c, 0, 73, 0
1, 48047, Note_on_c, 1, 64, 0
1, 48047, Note_on_c, 1, 57, 0
1, 48048, Note_on_c, 0, 73, 71
1, 48048, Note_on_c, 1, 65, 65
1, 48048, Note_on_c, 1, 57, 65
1, 48068, Note_on_c, 0, 73, 0
1, 48095, Note_on_c, 1, 65, 0
1, 48095, Note_on_c, 1, 57, 0
1, 48096, Note_on_c, 0, 73, 73
1, 48096, Note_on_c, 1, 66, 67
1, 48096, Note_on_c, 1, 57, 67
1, 48163, Note_on_c, 0, 73, 0
1, 48168, Note_on_c, 0, 76, 75
1, 48180, Note_on_c, 0, 76, 0
1, 48180, Note_on_c, 0, 75, 75
1, 48190, Note_on_c, 1, 66, 0
1, 48190, Note_on_c, 1, 57, 0
1, 48192, Note_on_c, 0, 75, 0
1, 48192, Note_on_c, 0, 73, 75
1, 48237, Note_on_c, 0, 73, 0
1, 48240, Note_on_c, 0, 73, 77
1, 48240, Note_on_c, 1, 67, 73
1, 48240, Note_on_c, 1, 58, 73
1, 48260, Note_on_c, 0, 73, 0
1, 48287, Note_on_c, 1, 67, 0
1, 48287, Note_on_c, 1, 58, 0
1, 48288, Note_on_c, 0, 73, 78
1, 48288, Note_on_c, 1, 67, 75
1, 48288, Note_on_c, 1, 58, 75
1, 48308, Note_on_c, 0, 73, 0
1, 48335, Note_on_c, 1, 67, 0
1, 48335, Note_on_c, 1, 58, 0
1, 48336, Note_on_c, 0, 73, 79
1, 48336, Note_on_c, 1, 67, 77
1, 48336, Note_on_c, 1, 58, 77
1, 48356, Note_on_c, 0, 73, 0
1, 48383, Note_on_c, 1, 67, 0
1, 48383, Note_on_c, 1, 58, 0
1, 48384, Tempo, 1500000
1, 48384, Note_on_c, 0, 73, 81
1, 48384, Note_on_c, 1, 68, 79
1, 48384, Note_on_c, 1, 65, 79
1, 48384, Note_on_c, 1, 56, 79
1, 48473, Note_on_c, 0, 73, 0
1, 48480, Tempo, 1000000
1, 48480, Note_on_c, 0, 73, 84
1, 48504, Note_on_c, 0, 73, 0
1, 48504, Note_on_c, 0, 77, 84
1, 48525, Note_on_c, 1, 68, 0
1, 48525, Note_on_c, 1, 65, 0
1, 48525, Note_on_c, 1, 56, 0
1, 48527, Note_on_c, 0, 77, 0
1, 48528, Note_on_c, 0, 77, 84
1, 48552, Note_on_c, 0, 77, 0
1, 48552, Note_on_c, 0, 80, 84
1, 48575, Note_on_c, 0, 80, 0
1, 48576, Note_on_c, 0, 80, 84
1, 48600, Note_on_c, 0, 80, 0
1, 48600, Note_on_c, 0, 85, 84
1, 48623, Note_on_c, 0, 85, 0
1, 48624, Note_on_c, 0, 85, 84
1, 48648, Note_on_c, 0, 85, 0
1, 48648, Note_on_c, 0, 89, 84
1, 48671, Note_on_c, 0, 89, 0
1, 48672, Note_on_c, 0, 89, 100
1, 48791, Note_on_c, 0, 89, 0
1, 48792, Note_on_c, 0, 84, 84
1, 48816, Note_on_c, 0, 84, 0
1, 48816, Note_on_c, 0, 85, 84
1, 48839, Note_on_c, 0, 85, 0
1, 48840, Note_on_c, 0, 79, 84
1, 48864, Note_on_c, 0, 79, 0
1, 48864, Note_on_c, 0, 80, 84
1, 48887, Note_on_c, 0, 80, 0
1, 48888, Note_on_c, 0, 76, 84
1, 48912, Note_on_c, 0, 76, 0
1, 48912, Note_on_c, 0, 77, 84
1, 48935, Note_on_c, 0, 77, 0
1, 48936, Note_on_c, 0, 73, 84
1, 48960, Note_on_c, 0, 73, 0
1, 48960, Note_on_c, 0, 78, 84
1, 48983, Note_on_c, 0, 78, 0
1, 48984, Note_on_c, 0, 77, 84
1, 49007, Note_on_c, 0, 77, 0
1, 49008, Note_on_c, 0, 75, 84
1, 49016, Note_on_c, 0, 75, 0
1, 49016, Note_on_c, 0, 77, 84
1, 49024, Note_on_c, 0, 77, 0
1, 49024, Note_on_c, 0, 75, 84
1, 49032, Note_on_c, 0, 75, 0
1, 49032, Note_on_c, 0, 77, 84
1, 49039, Note_on_c, 0, 77, 0
1, 49039, Note_on_c, 0, 75, 84
1, 49046, Note_on_c, 0, 75, 0
1, 49046, Note_on_c, 0, 77, 84
1, 49053, Note_on_c, 0, 77, 0
1, 49053, Note_on_c, 0, 75, 84
1, 49060, Note_on_c, 0, 75, 0
1, 49060, Note_on_c, 0, 77, 84
1, 49067, Note_on_c, 0, 77, 0
1, 49067, Note_on_c, 0, 75, 84
1, 49074, Note_on_c, 0, 75, 0
1, 49074, Note_on_c, 0, 77, 84
1, 49081, Note_on_c, 0, 77, 0
1, 49081, Note_on_c, 0, 75, 84
1, 49088, Note_on_c, 0, 75, 0
1, 49088, Note_on_c, 0, 77, 84
1, 49095, Note_on_c, 0, 77, 0
1, 49095, Note_on_c, 0, 75, 84
1, 49102, Note_on_c, 0, 75, 0
1, 49102, Note_on_c, 0, 77, 84
1, 49104, Note_on_c, 1, 60, 69
1, 49104, Note_on_c, 1, 56, 69
1, 49109, Note_on_c, 0, 77, 0
1, 49109, Note_on_c, 0, 75, 84
1, 49116, Note_on_c, 0, 75, 0
1, 49116, Note_on_c, 0, 77, 84
1, 49123, Note_on_c, 0, 77, 0
1, 49123, Note_on_c, 0, 75, 83
1, 49130, Note_on_c, 0, 75, 0
1, 49130, Note_on_c, 0, 77, 82
1, 49137, Note_on_c, 0, 77, 0
1, 49137, Note_on_c, 0, 75, 81
1, 49144, Note_on_c, 0, 75, 0
1, 49144, Note_on_c, 0, 77, 80
1, 49151, Note_on_c, 0, 77, 0
1, 49151, Note_on_c, 0, 75, 79
1, 49158, Note_on_c, 0, 75, 0
1, 49158, Note_on_c, 0, 77, 78
1, 49165, Note_on_c, 0, 77, 0
1, 49165, Note_on_c, 0, 75, 77
1, 49172, Note_on_c, 0, 75, 0
1, 49172, Note_on_c, 0, 73, 76
1, 49186, Note_on_c, 0, 73, 0
1, 49186, Note_on_c, 0, 75, 74
1, 49200, Note_on_c, 0, 75, 0
1, 49200, Note_on_c, 0, 77, 72
1, 49223, Note_on_c, 0, 77, 0
1, 49224, Note_on_c, 0, 75, 68
1, 49244, Note_on_c, 1, 60, 0
1, 49244, Note_on_c, 1, 56, 0
1, 49247, Note_on_c, 0, 75, 0
1, 49248, Note_on_c, 0, 73, 61
1, 49248, Note_on_c, 1, 61, 61
1, 49248, Note_on_c, 1, 49, 61
1, 49293, Note_on_c, 0, 73, 0
1, 49296, Note_on_c, 0, 80, 77
1, 49296, Note_on_c, 0, 77, 77
1, 49337, Note_on_c, 1, 61, 0
1, 49337, Note_on_c, 1, 49, 0
1, 49344, Note_on_c, 1, 54, 61
1, 49344, Note_on_c, 1, 42, 61
1, 49392, Note_on_c, 0, 80, 0
1, 49392, Note_on_c, 0, 77, 0
1, 49392, Note_on_c, 0, 82, 61
1, 49392, Note_on_c, 0, 78, 61
1, 49433, Note_on_c, 1, 54, 0
1, 49433, Note_on_c, 1, 42, 0
1, 49440, Note_on_c, 1, 56, 61
1, 49440, Note_on_c, 1, 44, 61
1, 49481, Note_on_c, 0, 82, 0
1, 49481, Note_on_c, 0, 78, 0
1, 49488, Note_on_c, 0, 78, 61
1, 49488, Note_on_c, 0, 75, 61
1, 49529, Note_on_c, 1, 56, 0
1, 49529, Note_on_c, 1, 44, 0
1, 49536, Note_on_c, 0, 78, 0
1, 49536, Note_on_c, 0, 75, 0
1, 49536, Note_on_c, 0, 77, 61
1, 49536, Note_on_c, 0, 73, 61
1, 49536, Note_on_c, 1, 61, 61
1, 49536, Note_on_c, 1, 49, 61
1, 49581, Note_on_c, 0, 77, 0
1, 49581, Note_on_c, 0, 73, 0
1, 49584, Note_on_c, 0, 68, 77
1, 49584, Note_on_c, 0, 65, 77
1, 49625, Note_on_c, 1, 61, 0
1, 49625, Note_on_c, 1, 49, 0
1, 49632, Note_on_c, 1, 54, 61
1, 49632, Note_on_c, 1, 42, 61
1, 49680, Note_on_c, 0, 68, 0
1, 49680, Note_on_c, 0, 65, 0
1, 49680, Note_on_c, 0, 70, 57
1, 49680, Note_on_c, 0, 66, 57
1, 49721, Note_on_c, 1, 54, 0
1, 49721, Note_on_c, 1, 42, 0
1, 49728, Note_on_c, 1, 51, 57
1, 49728, Note_on_c, 1, 44, 57
1, 49769, Note_on_c, 0, 70, 0
1, 49769, Note_on_c, 0, 66, 0
1, 49776, Note_on_c, 0, 60, 53
1, 49776, Note_on_c, 0, 54, 53
1, 49817, Note_on_c, 1, 51, 0
1, 49817, Note_on_c, 1, 44, 0
1, 49821, Note_on_c, 0, 60, 0
1, 49821, Note_on_c, 0, 54, 0
1, 49824, Note_on_c, 0, 60, 53
1, 49824, Note_on_c, 0, 54, 53
1, 49824, Note_on_c, 1, 49, 53
1, 49824, Note_on_c, 1, 37, 53
1, 50001, Note_on_c, 0, 60, 0
1, 50001, Note_on_c, 0, 54, 0
1, 50001, Note_on_c, 1, 49, 0
1, 50001, Note_on_c, 1, 37, 0
1, 50016, Note_on_c, 0, 53, 53
1, 50016, Note_on_c, 1, 37, 53
1, 50022, Note_on_c, 1, 41, 53
1, 50024, Note_on_c, 0, 56, 53
1, 50028, Note_on_c, 1, 44, 53
1, 50032, Note_on_c, 0, 61, 53
1, 50034, Note_on_c, 1, 49, 53
1, 50201, Note_on_c, 0, 61, 0
1, 50201, Note_on_c, 0, 56, 0
1, 50201, Note_on_c, 0, 53, 0
1, 50201, Note_on_c, 1, 49, 0
1, 50201, Note_on_c, 1, 44, 0
1, 50201, Note_on_c, 1, 41, 0
1, 50201, Note_on_c, 1, 37, 0
1, 50208, Note_on_c, 1, 37, 4
1, 50385, Note_on_c, 1, 37, 0
1, 50395, End_track
0, 0, End_of_file