0, 0, Header, 0, 1, 96
1, 0, Start_track
1, 0, Tempo, 923076
1, 0, Note_on_c, 1, 44, 64
1, 48, Note_on_c, 0, 75, 64
1, 89, Note_on_c, 1, 44, 0
1, 93, Note_on_c, 0, 75, 0
1, 96, Note_on_c, 0, 77, 64
1, 120, Note_on_c, 0, 77, 0
1, 120, Note_on_c, 0, 75, 64
1, 143, Note_on_c, 0, 75, 0
1, 144, Note_on_c, 0, 73, 64
1, 167, Note_on_c, 0, 73, 0
1, 168, Note_on_c, 0, 72, 64
1, 191, Note_on_c, 0, 72, 0
1, 192, Note_on_c, 0, 82, 64
1, 216, Note_on_c, 0, 82, 0
1, 216, Note_on_c, 0, 80, 64
1, 239, Note_on_c, 0, 80, 0
1, 240, Note_on_c, 0, 79, 64
1, 263, Note_on_c, 0, 79, 0
1, 264, Note_on_c, 0, 77, 64
1, 287, Note_on_c, 0, 77, 0
1, 288, Note_on_c, 0, 77, 64
1, 312, Note_on_c, 0, 77, 0
1, 312, Note_on_c, 0, 75, 64
1, 322, Note_on_c, 0, 75, 0
1, 336, Note_on_c, 0, 75, 64
1, 336, Note_on_c, 1, 56, 64
1, 381, Note_on_c, 1, 56, 0
1, 384, Note_on_c, 1, 60, 64
1, 429, Note_on_c, 0, 75, 0
1, 429, Note_on_c, 1, 60, 0
1, 432, Note_on_c, 0, 72, 64
1, 432, Note_on_c, 1, 56, 64
1, 466, Note_on_c, 0, 72, 0
1, 468, Note_on_c, 0, 75, 64
1, 477, Note_on_c, 1, 56, 0
1, 480, Note_on_c, 0, 75, 0
1, 480, Note_on_c, 0, 75, 64
1, 480, Note_on_c, 1, 58, 64
1, 503, Note_on_c, 0, 75, 0
1, 504, Note_on_c, 0, 73, 64
1, 525, Note_on_c, 1, 58, 0
1, 527, Note_on_c, 0, 73, 0
1, 528, Note_on_c, 0, 72, 64
1, 528, Note_on_c, 1, 51, 64
1, 551, Note_on_c, 0, 72, 0
1, 552, Note_on_c, 0, 70, 64
1, 573, Note_on_c, 1, 51, 0
1, 575, Note_on_c, 0, 70, 0
1, 576, Note_on_c, 0, 70, 80
1, 624, Note_on_c, 1, 56, 64
1, 669, Note_on_c, 1, 56, 0
1, 672, Note_on_c, 0, 70, 0
1, 672, Note_on_c, 0, 72, 64
1, 672, Note_on_c, 1, 56, 64
1, 717, Note_on_c, 0, 72, 0
1, 717, Note_on_c, 1, 56, 0
1, 720, Note_on_c, 0, 68, 64
1, 720, Note_on_c, 1, 65, 64
1, 754, Note_on_c, 0, 68, 0
1, 756, Note_on_c, 0, 72, 64
1, 765, Note_on_c, 1, 65, 0
1, 768, Note_on_c, 0, 72, 0
1, 768, Note_on_c, 0, 72, 64
1, 768, Note_on_c, 1, 61, 64
1, 791, Note_on_c, 0, 72, 0
1, 792, Note_on_c, 0, 70, 64
1, 813, Note_on_c, 1, 61, 0
1, 815, Note_on_c, 0, 70, 0
1, 816, Note_on_c, 0, 68, 64
1, 816, Note_on_c, 1, 63, 64
1, 822, Note_on_c, 0, 68, 0
1, 822, Note_on_c, 0, 70, 64
1, 828, Note_on_c, 0, 70, 0
1, 828, Note_on_c, 0, 68, 64
1, 839, Note_on_c, 0, 68, 0
1, 840, Note_on_c, 0, 67, 64
1, 861, Note_on_c, 1, 63, 0
1, 863, Note_on_c, 0, 67, 0
1, 864, Note_on_c, 0, 67, 64
1, 864, Note_on_c, 1, 56, 64
1, 888, Note_on_c, 0, 67, 0
1, 888, Note_on_c, 0, 70, 64
1, 894, Note_on_c, 0, 70, 0
1, 894, Note_on_c, 0, 68, 64
1, 900, Note_on_c, 0, 68, 0
1, 900, Note_on_c, 0, 67, 64
1, 906, Note_on_c, 0, 67, 0
1, 906, Note_on_c, 0, 68, 64
1, 912, Note_on_c, 0, 68, 0
1, 912, Note_on_c, 0, 72, 64
1, 922, Note_on_c, 0, 72, 0
1, 936, Note_on_c, 0, 68, 64
1, 946, Note_on_c, 0, 68, 0
1, 953, Note_on_c, 1, 56, 0
1, 960, Note_on_c, 0, 63, 64
1, 984, Note_on_c, 1, 56, 64
1, 1007, Note_on_c, 1, 56, 0
1, 1008, Note_on_c, 1, 60, 64
1, 1031, Note_on_c, 1, 60, 0
1, 1032, Note_on_c, 1, 56, 64
1, 1049, Note_on_c, 0, 63, 0
1, 1055, Note_on_c, 1, 56, 0
1, 1056, Note_on_c, 1, 51, 64
1, 1079, Note_on_c, 1, 51, 0
1, 1080, Note_on_c, 1, 56, 64
1, 1103, Note_on_c, 1, 56, 0
1, 1104, Note_on_c, 1, 48, 64
1, 1127, Note_on_c, 1, 48, 0
1, 1128, Note_on_c, 1, 51, 64
1, 1151, Note_on_c, 1, 51, 0
1, 1152, Note_on_c, 1, 44, 64
1, 1200, Note_on_c, 0, 75, 64
1, 1241, Note_on_c, 1, 44, 0
1, 1245, Note_on_c, 0, 75, 0
1, 1248, Note_on_c, 0, 74, 64
1, 1254, Note_on_c, 0, 74, 0
1, 1254, Note_on_c, 0, 75, 64
1, 1260, Note_on_c, 0, 75, 0
1, 1260, Note_on_c, 0, 77, 64
1, 1266, Note_on_c, 0, 77, 0
1, 1266, Note_on_c, 0, 75, 64
1, 1293, Note_on_c, 0, 75, 0
1, 1296, Note_on_c, 0, 73, 64
1, 1319, Note_on_c, 0, 73, 0
1, 1320, Note_on_c, 0, 72, 64
1, 1343, Note_on_c, 0, 72, 0
1, 1344, Note_on_c, 0, 82, 64
1, 1368, Note_on_c, 0, 82, 0
1, 1368, Note_on_c, 0, 80, 64
1, 1391, Note_on_c, 0, 80, 0
1, 1392, Note_on_c, 0, 79, 64
1, 1415, Note_on_c, 0, 79, 0
1, 1416, Note_on_c, 0, 77, 64
1, 1439, Note_on_c, 0, 77, 0
1, 1440, Note_on_c, 0, 77, 64
1, 1464, Note_on_c, 0, 77, 0
1, 1464, Note_on_c, 0, 75, 64
1, 1474, Note_on_c, 0, 75, 0
1, 1488, Note_on_c, 0, 75, 64
1, 1488, Note_on_c, 1, 56, 64
1, 1533, Note_on_c, 1, 56, 0
1, 1536, Note_on_c, 1, 60, 64
1, 1551, Note_on_c, 0, 75, 0
1, 1552, Note_on_c, 0, 77, 64
1, 1567, Note_on_c, 0, 77, 0
1, 1568, Note_on_c, 0, 79, 64
1, 1581, Note_on_c, 1, 60, 0
1, 1583, Note_on_c, 0, 79, 0
1, 1584, Note_on_c, 0, 80, 64
1, 1584, Note_on_c, 1, 56, 64
1, 1599, Note_on_c, 0, 80, 0
1, 1600, Note_on_c, 0, 82, 64
1, 1615, Note_on_c, 0, 82, 0
1, 1616, Note_on_c, 0, 84, 64
1, 1629, Note_on_c, 1, 56, 0
1, 1631, Note_on_c, 0, 84, 0
1, 1632, Note_on_c, 0, 75, 64
1, 1632, Note_on_c, 1, 58, 64
1, 1677, Note_on_c, 0, 75, 0
1, 1677, Note_on_c, 1, 58, 0
1, 1680, Note_on_c, 0, 73, 64
1, 1680, Note_on_c, 1, 51, 64
1, 1687, Note_on_c, 0, 73, 0
1, 1687, Note_on_c, 0, 75, 64
1, 1694, Note_on_c, 0, 75, 0
1, 1694, Note_on_c, 0, 73, 64
1, 1701, Note_on_c, 0, 73, 0
1, 1701, Note_on_c, 0, 75, 64
1, 1708, Note_on_c, 0, 75, 0
1, 1708, Note_on_c, 0, 73, 64
1, 1715, Note_on_c, 0, 73, 0
1, 1715, Note_on_c, 0, 72, 64
1, 1722, Note_on_c, 0, 72, 0
1, 1722, Note_on_c, 0, 73, 64
1, 1725, Note_on_c, 1, 51, 0
1, 1728, Note_on_c, 0, 73, 0
1, 1728, Note_on_c, 0, 73, 80
1, 1776, Note_on_c, 1, 56, 64
1, 1821, Note_on_c, 1, 56, 0
1, 1824, Note_on_c, 1, 56, 64
1, 1847, Note_on_c, 0, 73, 0
1, 1848, Note_on_c, 0, 72, 64
1, 1869, Note_on_c, 1, 56, 0
1, 1871, Note_on_c, 0, 72, 0
1, 1872, Note_on_c, 0, 75, 64
1, 1872, Note_on_c, 1, 60, 64
1, 1906, Note_on_c, 0, 75, 0
1, 1908, Note_on_c, 0, 68, 64
1, 1917, Note_on_c, 1, 60, 0
1, 1920, Note_on_c, 0, 68, 0
1, 1920, Note_on_c, 0, 72, 64
1, 1920, Note_on_c, 1, 61, 64
1, 1943, Note_on_c, 0, 72, 0
1, 1944, Note_on_c, 0, 70, 64
1, 1965, Note_on_c, 1, 61, 0
1, 1967, Note_on_c, 0, 70, 0
1, 1968, Note_on_c, 0, 68, 64
1, 1968, Note_on_c, 1, 63, 64
1, 1974, Note_on_c, 0, 68, 0
1, 1974, Note_on_c, 0, 70, 64
1, 1980, Note_on_c, 0, 70, 0
1, 1980, Note_on_c, 0, 68, 64
1, 1991, Note_on_c, 0, 68, 0
1, 1992, Note_on_c, 0, 67, 64
1, 2013, Note_on_c, 1, 63, 0
1, 2015, Note_on_c, 0, 67, 0
1, 2016, Note_on_c, 0, 68, 64
1, 2040, Note_on_c, 1, 56, 64
1, 2061, Note_on_c, 0, 68, 0
1, 2063, Note_on_c, 1, 56, 0
1, 2064, Note_on_c, 0, 63, 64
1, 2064, Note_on_c, 1, 60, 64
1, 2087, Note_on_c, 1, 60, 0
1, 2088, Note_on_c, 1, 56, 64
1, 2109, Note_on_c, 0, 63, 0
1, 2111, Note_on_c, 1, 56, 0
1, 2112, Note_on_c, 1, 51, 64
1, 2135, Note_on_c, 1, 51, 0
1, 2136, Note_on_c, 1, 56, 64
1, 2159, Note_on_c, 1, 56, 0
1, 2160, Note_on_c, 1, 48, 64
1, 2183, Note_on_c, 1, 48, 0
1, 2184, Note_on_c, 1, 51, 64
1, 2207, Note_on_c, 1, 51, 0
1, 2208, Note_on_c, 1, 56, 64
1, 2231, Note_on_c, 1, 56, 0
1, 2232, Note_on_c, 1, 60, 64
1, 2255, Note_on_c, 1, 60, 0
1, 2256, Note_on_c, 1, 63, 64
1, 2279, Note_on_c, 1, 63, 0
1, 2280, Note_on_c, 1, 68, 64
1, 2303, Note_on_c, 1, 68, 0
1, 2304, Note_on_c, 1, 61, 64
1, 2328, Note_on_c, 0, 76, 64
1, 2351, Note_on_c, 0, 76, 0
1, 2352, Note_on_c, 0, 77, 64
1, 2375, Note_on_c, 0, 77, 0
1, 2376, Note_on_c, 0, 80, 64
1, 2393, Note_on_c, 1, 61, 0
1, 2399, Note_on_c, 0, 80, 0
1, 2400, Note_on_c, 0, 77, 64
1, 2400, Note_on_c, 1, 60, 64
1, 2423, Note_on_c, 0, 77, 0
1, 2424, Note_on_c, 0, 75, 64
1, 2445, Note_on_c, 1, 60, 0
1, 2447, Note_on_c, 0, 75, 0
1, 2448, Note_on_c, 0, 84, 64
1, 2448, Note_on_c, 1, 56, 64
1, 2471, Note_on_c, 0, 84, 0
1, 2472, Note_on_c, 0, 80, 64
1, 2493, Note_on_c, 1, 56, 0
1, 2495, Note_on_c, 0, 80, 0
1, 2496, Note_on_c, 0, 75, 64
1, 2496, Note_on_c, 1, 58, 64
1, 2541, Note_on_c, 0, 75, 0
1, 2541, Note_on_c, 1, 58, 0
1, 2544, Note_on_c, 0, 73, 64
1, 2544, Note_on_c, 1, 51, 64
1, 2551, Note_on_c, 0, 73, 0
1, 2551, Note_on_c, 0, 75, 64
1, 2558, Note_on_c, 0, 75, 0
1, 2558, Note_on_c, 0, 73, 64
1, 2565, Note_on_c, 0, 73, 0
1, 2565, Note_on_c, 0, 75, 64
1, 2572, Note_on_c, 0, 75, 0
1, 2572, Note_on_c, 0, 73, 64
1, 2579, Note_on_c, 0, 73, 0
1, 2579, Note_on_c, 0, 72, 64
1, 2586, Note_on_c, 0, 72, 0
1, 2586, Note_on_c, 0, 73, 64
1, 2589, Note_on_c, 1, 51, 0
1, 2592, Note_on_c, 0, 73, 0
1, 2592, Note_on_c, 0, 73, 64
1, 2616, Note_on_c, 1, 56, 64
1, 2639, Note_on_c, 1, 56, 0
1, 2640, Note_on_c, 0, 73, 0
1, 2640, Note_on_c, 0, 72, 64
1, 2640, Note_on_c, 1, 60, 64
1, 2663, Note_on_c, 1, 60, 0
1, 2664, Note_on_c, 1, 56, 64
1, 2685, Note_on_c, 0, 72, 0
1, 2687, Note_on_c, 1, 56, 0
1, 2688, Note_on_c, 1, 51, 64
1, 2711, Note_on_c, 1, 51, 0
1, 2712, Note_on_c, 1, 56, 64
1, 2735, Note_on_c, 1, 56, 0
1, 2736, Note_on_c, 1, 48, 64
1, 2759, Note_on_c, 1, 48, 0
1, 2760, Note_on_c, 1, 51, 64
1, 2783, Note_on_c, 1, 51, 0
1, 2784, Note_on_c, 1, 56, 64
1, 2807, Note_on_c, 1, 56, 0
1, 2808, Note_on_c, 1, 60, 64
1, 2831, Note_on_c, 1, 60, 0
1, 2832, Note_on_c, 1, 63, 64
1, 2855, Note_on_c, 1, 63, 0
1, 2856, Note_on_c, 1, 68, 64
1, 2856, Note_on_c, 1, 68, 64
1, 2879, Note_on_c, 1, 68, 0
1, 2880, Note_on_c, 1, 61, 64
1, 2904, Note_on_c, 0, 76, 64
1, 2927, Note_on_c, 0, 76, 0
1, 2928, Note_on_c, 0, 77, 64
1, 2951, Note_on_c, 0, 77, 0
1, 2952, Note_on_c, 0, 80, 64
1, 2969, Note_on_c, 1, 61, 0
1, 2975, Note_on_c, 0, 80, 0
1, 2976, Note_on_c, 1, 60, 64
1, 3000, Note_on_c, 0, 74, 64
1, 3023, Note_on_c, 0, 74, 0
1, 3024, Note_on_c, 0, 75, 64
1, 3047, Note_on_c, 0, 75, 0
1, 3048, Note_on_c, 0, 80, 64
1, 3065, Note_on_c, 1, 60, 0
1, 3071, Note_on_c, 0, 80, 0
1, 3072, Note_on_c, 0, 75, 64
1, 3072, Note_on_c, 1, 58, 64
1, 3095, Note_on_c, 0, 75, 0
1, 3096, Note_on_c, 0, 73, 64
1, 3117, Note_on_c, 1, 68, 0
1, 3119, Note_on_c, 0, 73, 0
1, 3120, Note_on_c, 0, 82, 64
1, 3120, Note_on_c, 1, 67, 64
1, 3143, Note_on_c, 0, 82, 0
1, 3144, Note_on_c, 0, 73, 64
1, 3161, Note_on_c, 1, 58, 0
1, 3165, Note_on_c, 1, 67, 0
1, 3167, Note_on_c, 0, 73, 0
1, 3168, Note_on_c, 1, 68, 64
1, 3168, Note_on_c, 1, 56, 64
1, 3192, Note_on_c, 0, 72, 64
1, 3215, Note_on_c, 0, 72, 0
1, 3216, Note_on_c, 0, 75, 64
1, 3239, Note_on_c, 0, 75, 0
1, 3240, Note_on_c, 0, 72, 64
1, 3257, Note_on_c, 1, 68, 0
1, 3257, Note_on_c, 1, 56, 0
1, 3263, Note_on_c, 0, 72, 0
1, 3264, Note_on_c, 0, 69, 75
1, 3264, Note_on_c, 1, 61, 64
1, 3287, Note_on_c, 0, 69, 0
1, 3288, Note_on_c, 0, 70, 77
1, 3311, Note_on_c, 0, 70, 0
1, 3312, Note_on_c, 0, 73, 79
1, 3335, Note_on_c, 0, 73, 0
1, 3336, Note_on_c, 0, 77, 81
1, 3353, Note_on_c, 1, 61, 0
1, 3359, Note_on_c, 0, 77, 0
1, 3360, Note_on_c, 0, 75, 84
1, 3360, Note_on_c, 1, 49, 64
1, 3383, Note_on_c, 0, 75, 0
1, 3384, Note_on_c, 0, 73, 81
1, 3405, Note_on_c, 1, 49, 0
1, 3407, Note_on_c, 0, 73, 0
1, 3408, Note_on_c, 0, 72, 79
1, 3408, Note_on_c, 1, 50, 64
1, 3431, Note_on_c, 0, 72, 0
1, 3432, Note_on_c, 0, 70, 77
1, 3453, Note_on_c, 1, 50, 0
1, 3455, Note_on_c, 0, 70, 0
1, 3456, Note_on_c, 0, 68, 75
1, 3480, Note_on_c, 1, 51, 64
1, 3503, Note_on_c, 1, 51, 0
1, 3504, Note_on_c, 0, 68, 0
1, 3504, Note_on_c, 0, 67, 75
1, 3504, Note_on_c, 1, 55, 64
1, 3527, Note_on_c, 1, 55, 0
1, 3528, Note_on_c, 1, 51, 64
1, 3549, Note_on_c, 0, 67, 0
1, 3551, Note_on_c, 1, 51, 0
1, 3552, Note_on_c, 1, 46, 64
1, 3575, Note_on_c, 1, 46, 0
1, 3576, Note_on_c, 1, 51, 64
1, 3599, Note_on_c, 1, 51, 0
1, 3600, Note_on_c, 1, 43, 64
1, 3623, Note_on_c, 1, 43, 0
1, 3624, Note_on_c, 1, 46, 64
1, 3647, Note_on_c, 1, 46, 0
1, 3648, Note_on_c, 1, 51, 64
1, 3671, Note_on_c, 1, 51, 0
1, 3672, Note_on_c, 1, 55, 64
1, 3695, Note_on_c, 1, 55, 0
1, 3696, Note_on_c, 1, 58, 64
1, 3719, Note_on_c, 1, 58, 0
1, 3720, Note_on_c, 1, 55, 64
1, 3743, Note_on_c, 1, 55, 0
1, 3744, Note_on_c, 1, 63, 64
1, 3768, Note_on_c, 0, 79, 75
1, 3791, Note_on_c, 0, 79, 0
1, 3792, Note_on_c, 0, 82, 75
1, 3815, Note_on_c, 0, 82, 0
1, 3816, Note_on_c, 0, 79, 75
1, 3833, Note_on_c, 1, 63, 0
1, 3839, Note_on_c, 0, 79, 0
1, 3840, Note_on_c, 1, 65, 64
1, 3864, Note_on_c, 0, 80, 75
1, 3887, Note_on_c, 0, 80, 0
1, 3888, Note_on_c, 0, 77, 75
1, 3911, Note_on_c, 0, 77, 0
1, 3912, Note_on_c, 0, 74, 75
1, 3929, Note_on_c, 1, 65, 0
1, 3935, Note_on_c, 0, 74, 0
1, 3936, Note_on_c, 1, 67, 64
1, 3960, Note_on_c, 0, 74, 75
1, 3983, Note_on_c, 0, 74, 0
1, 3984, Note_on_c, 0, 75, 75
1, 4007, Note_on_c, 0, 75, 0
1, 4008, Note_on_c, 0, 70, 75
1, 4025, Note_on_c, 1, 67, 0
1, 4031, Note_on_c, 0, 70, 0
1, 4032, Note_on_c, 0, 82, 75
1, 4056, Note_on_c, 1, 63, 64
1, 4079, Note_on_c, 1, 63, 0
1, 4080, Note_on_c, 1, 67, 64
1, 4103, Note_on_c, 1, 67, 0
1, 4104, Note_on_c, 1, 63, 64
1, 4121, Note_on_c, 0, 82, 0
1, 4127, Note_on_c, 1, 63, 0
1, 4128, Note_on_c, 0, 82, 75
1, 4134, Note_on_c, 0, 82, 0
1, 4134, Note_on_c, 0, 80, 75
1, 4140, Note_on_c, 0, 80, 0
1, 4140, Note_on_c, 0, 79, 75
1, 4146, Note_on_c, 0, 79, 0
1, 4146, Note_on_c, 0, 80, 75
1, 4152, Note_on_c, 1, 65, 64
1, 4175, Note_on_c, 1, 65, 0
1, 4176, Note_on_c, 1, 68, 64
1, 4199, Note_on_c, 1, 68, 0
1, 4200, Note_on_c, 1, 74, 64
1, 4217, Note_on_c, 0, 80, 0
1, 4223, Note_on_c, 1, 74, 0
1, 4224, Note_on_c, 0, 80, 75
1, 4230, Note_on_c, 0, 80, 0
1, 4230, Note_on_c, 0, 79, 75
1, 4236, Note_on_c, 0, 79, 0
1, 4236, Note_on_c, 0, 77, 75
1, 4242, Note_on_c, 0, 77, 0
1, 4242, Note_on_c, 0, 79, 75
1, 4248, Note_on_c, 1, 67, 64
1, 4271, Note_on_c, 1, 67, 0
1, 4272, Note_on_c, 1, 70, 64
1, 4295, Note_on_c, 1, 70, 0
1, 4296, Note_on_c, 1, 75, 64
1, 4313, Note_on_c, 0, 79, 0
1, 4319, Note_on_c, 1, 75, 0
1, 4320, Note_on_c, 1, 68, 64
1, 4344, Note_on_c, 0, 77, 75
1, 4367, Note_on_c, 0, 77, 0
1, 4368, Note_on_c, 0, 79, 75
1, 4391, Note_on_c, 0, 79, 0
1, 4392, Note_on_c, 0, 76, 75
1, 4409, Note_on_c, 1, 68, 0
1, 4415, Note_on_c, 0, 76, 0
1, 4416, Note_on_c, 0, 77, 76
1, 4416, Note_on_c, 1, 56, 75
1, 4439, Note_on_c, 0, 77, 0
1, 4440, Note_on_c, 0, 83, 77
1, 4463, Note_on_c, 0, 83, 0
1, 4464, Note_on_c, 0, 84, 78
1, 4487, Note_on_c, 0, 84, 0
1, 4488, Note_on_c, 0, 79, 79
1, 4511, Note_on_c, 0, 79, 0
1, 4512, Note_on_c, 0, 82, 80
1, 4535, Note_on_c, 0, 82, 0
1, 4536, Note_on_c, 0, 80, 81
1, 4549, Note_on_c, 1, 56, 0
1, 4559, Note_on_c, 0, 80, 0
1, 4560, Note_on_c, 0, 79, 82
1, 4560, Note_on_c, 1, 57, 81
1, 4583, Note_on_c, 0, 79, 0
1, 4584, Note_on_c, 0, 77, 83
1, 4605, Note_on_c, 1, 57, 0
1, 4607, Note_on_c, 0, 77, 0
1, 4608, Note_on_c, 0, 75, 84
1, 4632, Note_on_c, 1, 58, 75
1, 4655, Note_on_c, 1, 58, 0
1, 4656, Note_on_c, 1, 60, 75
1, 4679, Note_on_c, 1, 60, 0
1, 4680, Note_on_c, 1, 57, 76
1, 4703, Note_on_c, 1, 57, 0
1, 4704, Note_on_c, 0, 75, 0
1, 4704, Note_on_c, 0, 74, 79
1, 4704, Note_on_c, 1, 58, 77
1, 4710, Note_on_c, 0, 74, 0
1, 4710, Note_on_c, 0, 75, 79
1, 4716, Note_on_c, 0, 75, 0
1, 4716, Note_on_c, 0, 74, 79
1, 4727, Note_on_c, 1, 58, 0
1, 4728, Note_on_c, 1, 60, 78
1, 4751, Note_on_c, 1, 60, 0
1, 4752, Note_on_c, 1, 62, 79
1, 4775, Note_on_c, 1, 62, 0
1, 4776, Note_on_c, 1, 63, 79
1, 4795, Note_on_c, 0, 74, 0
1, 4799, Note_on_c, 1, 63, 0
1, 4800, Note_on_c, 1, 65, 80
1, 4823, Note_on_c, 1, 65, 0
1, 4824, Note_on_c, 1, 67, 81
1, 4847, Note_on_c, 1, 67, 0
1, 4848, Note_on_c, 1, 68, 82
1, 4871, Note_on_c, 1, 68, 0
1, 4872, Note_on_c, 1, 70, 83
1, 4895, Note_on_c, 1, 70, 0
1, 4896, Note_on_c, 1, 68, 84
1, 4920, Note_on_c, 0, 75, 75
1, 4943, Note_on_c, 0, 75, 0
1, 4944, Note_on_c, 0, 77, 75
1, 4967, Note_on_c, 0, 77, 0
1, 4968, Note_on_c, 0, 74, 76
1, 4991, Note_on_c, 0, 74, 0
1, 4992, Note_on_c, 0, 75, 77
1, 4992, Note_on_c, 1, 68, 0
1, 4992, Note_on_c, 1, 67, 79
1, 4998, Note_on_c, 1, 67, 0
1, 4998, Note_on_c, 1, 68, 79
1, 5004, Note_on_c, 1, 68, 0
1, 5004, Note_on_c, 1, 67, 79
1, 5015, Note_on_c, 0, 75, 0
1, 5016, Note_on_c, 0, 77, 78
1, 5039, Note_on_c, 0, 77, 0
1, 5040, Note_on_c, 0, 79, 79
1, 5063, Note_on_c, 0, 79, 0
1, 5064, Note_on_c, 0, 80, 79
1, 5083, Note_on_c, 1, 67, 0
1, 5087, Note_on_c, 0, 80, 0
1, 5088, Note_on_c, 0, 82, 80
1, 5111, Note_on_c, 0, 82, 0
1, 5112, Note_on_c, 0, 84, 81
1, 5135, Note_on_c, 0, 84, 0
1, 5136, Note_on_c, 0, 80, 82
1, 5159, Note_on_c, 0, 80, 0
1, 5160, Note_on_c, 0, 77, 83
1, 5183, Note_on_c, 0, 77, 0
1, 5184, Note_on_c, 0, 75, 84
1, 5208, Note_on_c, 1, 58, 75
1, 5231, Note_on_c, 1, 58, 0
1, 5232, Note_on_c, 1, 60, 75
1, 5255, Note_on_c, 1, 60, 0
1, 5256, Note_on_c, 1, 57, 76
1, 5279, Note_on_c, 1, 57, 0
1, 5280, Note_on_c, 0, 75, 0
1, 5280, Note_on_c, 0, 74, 75
1, 5280, Note_on_c, 1, 58, 77
1, 5286, Note_on_c, 0, 74, 0
1, 5286, Note_on_c, 0, 75, 75
1, 5292, Note_on_c, 0, 75, 0
1, 5292, Note_on_c, 0, 74, 75
1, 5303, Note_on_c, 1, 58, 0
1, 5304, Note_on_c, 1, 60, 78
1, 5327, Note_on_c, 1, 60, 0
1, 5328, Note_on_c, 1, 62, 79
1, 5351, Note_on_c, 1, 62, 0
1, 5352, Note_on_c, 1, 63, 79
1, 5371, Note_on_c, 0, 74, 0
1, 5375, Note_on_c, 1, 63, 0
1, 5376, Note_on_c, 1, 65, 80
1, 5399, Note_on_c, 1, 65, 0
1, 5400, Note_on_c, 1, 67, 81
1, 5423, Note_on_c, 1, 67, 0
1, 5424, Note_on_c, 1, 68, 82
1, 5447, Note_on_c, 1, 68, 0
1, 5448, Note_on_c, 1, 70, 83
1, 5471, Note_on_c, 1, 70, 0
1, 5472, Note_on_c, 1, 68, 84
1, 5496, Note_on_c, 0, 75, 75
1, 5519, Note_on_c, 0, 75, 0
1, 5520, Note_on_c, 0, 77, 75
1, 5543, Note_on_c, 0, 77, 0
1, 5544, Note_on_c, 0, 74, 75
1, 5567, Note_on_c, 0, 74, 0
1, 5568, Note_on_c, 0, 75, 75
1, 5568, Note_on_c, 1, 68, 0
1, 5568, Note_on_c, 1, 67, 76
1, 5574, Note_on_c, 1, 67, 0
1, 5574, Note_on_c, 1, 68, 76
1, 5580, Note_on_c, 1, 68, 0
1, 5580, Note_on_c, 1, 67, 76
1, 5591, Note_on_c, 0, 75, 0
1, 5592, Note_on_c, 0, 77, 75
1, 5615, Note_on_c, 0, 77, 0
1, 5616, Note_on_c, 0, 79, 75
1, 5639, Note_on_c, 0, 79, 0
1, 5640, Note_on_c, 0, 80, 75
1, 5663, Note_on_c, 0, 80, 0
1, 5664, Note_on_c, 0, 82, 75
1, 5688, Note_on_c, 0, 73, 64
1, 5709, Note_on_c, 1, 67, 0
1, 5711, Note_on_c, 0, 73, 0
1, 5712, Note_on_c, 0, 75, 64
1, 5712, Note_on_c, 1, 65, 75
1, 5735, Note_on_c, 0, 75, 0
1, 5736, Note_on_c, 0, 73, 64
1, 5757, Note_on_c, 1, 65, 0
1, 5759, Note_on_c, 0, 73, 0
1, 5760, Note_on_c, 0, 72, 64
1, 5784, Note_on_c, 1, 64, 75
1, 5807, Note_on_c, 1, 64, 0
1, 5808, Note_on_c, 1, 67, 76
1, 5831, Note_on_c, 1, 67, 0
1, 5832, Note_on_c, 1, 64, 78
1, 5849, Note_on_c, 0, 82, 0
1, 5849, Note_on_c, 0, 72, 0
1, 5855, Note_on_c, 1, 64, 0
1, 5856, Note_on_c, 0, 80, 94
1, 5856, Note_on_c, 0, 72, 64
1, 5856, Note_on_c, 1, 65, 80
1, 5879, Note_on_c, 1, 65, 0
1, 5880, Note_on_c, 1, 67, 82
1, 5903, Note_on_c, 1, 67, 0
1, 5904, Note_on_c, 1, 68, 84
1, 5927, Note_on_c, 1, 68, 0
1, 5928, Note_on_c, 1, 67, 82
1, 5951, Note_on_c, 1, 67, 0
1, 5952, Note_on_c, 1, 65, 81
1, 5975, Note_on_c, 1, 65, 0
1, 5976, Note_on_c, 1, 63, 79
1, 5999, Note_on_c, 1, 63, 0
1, 6000, Note_on_c, 1, 62, 78
1, 6006, Note_on_c, 1, 62, 0
1, 6006, Note_on_c, 1, 63, 78
1, 6012, Note_on_c, 1, 63, 0
1, 6012, Note_on_c, 1, 62, 78
1, 6023, Note_on_c, 1, 62, 0
1, 6024, Note_on_c, 1, 60, 76
1, 6033, Note_on_c, 0, 72, 0
1, 6047, Note_on_c, 1, 60, 0
1, 6048, Note_on_c, 0, 70, 64
1, 6072, Note_on_c, 1, 62, 75
1, 6095, Note_on_c, 1, 62, 0
1, 6096, Note_on_c, 1, 65, 76
1, 6119, Note_on_c, 1, 65, 0
1, 6120, Note_on_c, 1, 62, 78
1, 6137, Note_on_c, 0, 80, 0
1, 6137, Note_on_c, 0, 70, 0
1, 6143, Note_on_c, 1, 62, 0
1, 6144, Note_on_c, 0, 79, 94
1, 6144, Note_on_c, 0, 70, 64
1, 6144, Note_on_c, 1, 63, 80
1, 6167, Note_on_c, 1, 63, 0
1, 6168, Note_on_c, 1, 65, 82
1, 6191, Note_on_c, 1, 65, 0
1, 6192, Note_on_c, 1, 67, 84
1, 6215, Note_on_c, 1, 67, 0
1, 6216, Note_on_c, 1, 65, 82
1, 6239, Note_on_c, 1, 65, 0
1, 6240, Note_on_c, 1, 63, 81
1, 6246, Note_on_c, 1, 63, 0
1, 6246, Note_on_c, 1, 65, 81
1, 6252, Note_on_c, 1, 65, 0
1, 6252, Note_on_c, 1, 63, 81
1, 6263, Note_on_c, 1, 63, 0
1, 6264, Note_on_c, 1, 62, 79
1, 6287, Note_on_c, 1, 62, 0
1, 6288, Note_on_c, 1, 60, 78
1, 6294, Note_on_c, 1, 60, 0
1, 6294, Note_on_c, 1, 61, 78
1, 6300, Note_on_c, 1, 61, 0
1, 6300, Note_on_c, 1, 60, 78
1, 6311, Note_on_c, 1, 60, 0
1, 6312, Note_on_c, 1, 58, 76
1, 6321, Note_on_c, 0, 79, 0
1, 6321, Note_on_c, 0, 70, 0
1, 6335, Note_on_c, 1, 58, 0
1, 6336, Note_on_c, 1, 56, 64
1, 6360, Note_on_c, 0, 71, 75
1, 6384, Note_on_c, 0, 71, 0
1, 6384, Note_on_c, 0, 72, 76
1, 6394, Note_on_c, 0, 72, 0
1, 6408, Note_on_c, 0, 76, 78
1, 6432, Note_on_c, 0, 76, 0
1, 6432, Note_on_c, 0, 77, 80
1, 6432, Note_on_c, 1, 60, 75
1, 6442, Note_on_c, 0, 77, 0
1, 6456, Note_on_c, 0, 83, 82
1, 6480, Note_on_c, 0, 83, 0
1, 6480, Note_on_c, 0, 84, 84
1, 6490, Note_on_c, 0, 84, 0
1, 6504, Note_on_c, 0, 79, 82
1, 6521, Note_on_c, 1, 60, 0
1, 6528, Note_on_c, 0, 79, 0
1, 6528, Note_on_c, 0, 80, 81
1, 6528, Note_on_c, 1, 65, 75
1, 6551, Note_on_c, 0, 80, 0
1, 6552, Note_on_c, 0, 76, 79
1, 6576, Note_on_c, 0, 76, 0
1, 6576, Note_on_c, 0, 77, 78
1, 6599, Note_on_c, 0, 77, 0
1, 6600, Note_on_c, 0, 72, 76
1, 6601, Note_on_c, 1, 56, 0
1, 6617, Note_on_c, 1, 65, 0
1, 6623, Note_on_c, 0, 72, 0
1, 6624, Note_on_c, 1, 55, 64
1, 6648, Note_on_c, 0, 69, 75
1, 6672, Note_on_c, 0, 69, 0
1, 6672, Note_on_c, 0, 70, 76
1, 6682, Note_on_c, 0, 70, 0
1, 6696, Note_on_c, 0, 74, 78
1, 6720, Note_on_c, 0, 74, 0
1, 6720, Note_on_c, 0, 75, 80
1, 6720, Note_on_c, 1, 58, 75
1, 6730, Note_on_c, 0, 75, 0
1, 6744, Note_on_c, 0, 81, 82
1, 6768, Note_on_c, 0, 81, 0
1, 6768, Note_on_c, 0, 82, 84
1, 6778, Note_on_c, 0, 82, 0
1, 6792, Note_on_c, 0, 78, 82
1, 6809, Note_on_c, 1, 58, 0
1, 6816, Note_on_c, 0, 78, 0
1, 6816, Note_on_c, 0, 79, 81
1, 6816, Note_on_c, 1, 63, 75
1, 6839, Note_on_c, 0, 79, 0
1, 6840, Note_on_c, 0, 74, 79
1, 6864, Note_on_c, 0, 74, 0
1, 6864, Note_on_c, 0, 75, 78
1, 6887, Note_on_c, 0, 75, 0
1, 6888, Note_on_c, 0, 70, 76
1, 6889, Note_on_c, 1, 55, 0
1, 6912, Note_on_c, 0, 70, 0
1, 6912, Note_on_c, 0, 71, 75
1, 6912, Note_on_c, 1, 56, 64
1, 6936, Note_on_c, 0, 71, 0
1, 6936, Note_on_c, 0, 72, 75
1, 6959, Note_on_c, 0, 72, 0
1, 6960, Note_on_c, 0, 68, 75
1, 6984, Note_on_c, 0, 68, 0
1, 6984, Note_on_c, 0, 65, 75
1, 7001, Note_on_c, 1, 56, 0
1, 7007, Note_on_c, 0, 65, 0
1, 7008, Note_on_c, 0, 68, 75
1, 7008, Note_on_c, 1, 58, 64
1, 7031, Note_on_c, 0, 68, 0
1, 7032, Note_on_c, 0, 67, 75
1, 7055, Note_on_c, 0, 67, 0
1, 7056, Note_on_c, 0, 70, 75
1, 7079, Note_on_c, 0, 70, 0
1, 7080, Note_on_c, 0, 63, 75
1, 7089, Note_on_c, 1, 63, 0
1, 7097, Note_on_c, 1, 58, 0
1, 7103, Note_on_c, 0, 63, 0
1, 7104, Note_on_c, 0, 67, 75
1, 7104, Note_on_c, 1, 56, 75
1, 7104, Note_on_c, 1, 46, 64
1, 7127, Note_on_c, 0, 67, 0
1, 7128, Note_on_c, 0, 65, 75
1, 7151, Note_on_c, 0, 65, 0
1, 7152, Note_on_c, 0, 63, 75
1, 7175, Note_on_c, 0, 63, 0
1, 7176, Note_on_c, 0, 62, 75
1, 7193, Note_on_c, 1, 56, 0
1, 7193, Note_on_c, 1, 46, 0
1, 7199, Note_on_c, 0, 62, 0
1, 7200, Note_on_c, 0, 63, 75
1, 7224, Note_on_c, 0, 55, 61
1, 7224, Note_on_c, 1, 51, 61
1, 7247, Note_on_c, 0, 55, 0
1, 7247, Note_on_c, 1, 51, 0
1, 7248, Note_on_c, 0, 56, 61
1, 7248, Note_on_c, 1, 53, 61
1, 7271, Note_on_c, 0, 56, 0
1, 7271, Note_on_c, 1, 53, 0
1, 7272, Note_on_c, 0, 55, 61
1, 7272, Note_on_c, 1, 51, 61
1, 7295, Note_on_c, 0, 55, 0
1, 7295, Note_on_c, 1, 51, 0
1, 7296, Note_on_c, 0, 58, 61
1, 7296, Note_on_c, 1, 55, 61
1, 7319, Note_on_c, 0, 58, 0
1, 7319, Note_on_c, 1, 55, 0
1, 7320, Note_on_c, 0, 56, 61
1, 7320, Note_on_c, 1, 53, 61
1, 7343, Note_on_c, 0, 56, 0
1, 7343, Note_on_c, 1, 53, 0
1, 7344, Note_on_c, 0, 60, 61
1, 7344, Note_on_c, 1, 56, 61
1, 7367, Note_on_c, 0, 60, 0
1, 7367, Note_on_c, 1, 56, 0
1, 7368, Note_on_c, 0, 58, 61
1, 7368, Note_on_c, 1, 55, 61
1, 7391, Note_on_c, 0, 58, 0
1, 7391, Note_on_c, 1, 55, 0
1, 7392, Note_on_c, 0, 60, 61
1, 7392, Note_on_c, 1, 56, 61
1, 7415, Note_on_c, 0, 63, 0
1, 7415, Note_on_c, 0, 60, 0
1, 7416, Note_on_c, 0, 68, 73
1, 7416, Note_on_c, 0, 65, 60
1, 7437, Note_on_c, 1, 56, 0
1, 7439, Note_on_c, 0, 68, 0
1, 7439, Note_on_c, 0, 65, 0
1, 7440, Note_on_c, 0, 67, 72
1, 7440, Note_on_c, 0, 63, 59
1, 7440, Note_on_c, 1, 58, 59
1, 7463, Note_on_c, 0, 67, 0
1, 7463, Note_on_c, 0, 63, 0
1, 7464, Note_on_c, 0, 65, 70
1, 7464, Note_on_c, 0, 62, 58
1, 7485, Note_on_c, 1, 58, 0
1, 7487, Note_on_c, 0, 65, 0
1, 7487, Note_on_c, 0, 62, 0
1, 7488, Note_on_c, 0, 63, 57
1, 7512, Note_on_c, 0, 55, 57
1, 7512, Note_on_c, 1, 51, 61
1, 7535, Note_on_c, 0, 55, 0
1, 7535, Note_on_c, 1, 51, 0
1, 7536, Note_on_c, 0, 56, 57
1, 7536, Note_on_c, 1, 53, 61
1, 7559, Note_on_c, 0, 56, 0
1, 7559, Note_on_c, 1, 53, 0
1, 7560, Note_on_c, 0, 55, 57
1, 7560, Note_on_c, 1, 51, 61
1, 7583, Note_on_c, 0, 55, 0
1, 7583, Note_on_c, 1, 51, 0
1, 7584, Note_on_c, 0, 58, 57
1, 7584, Note_on_c, 1, 55, 61
1, 7607, Note_on_c, 0, 58, 0
1, 7607, Note_on_c, 1, 55, 0
1, 7608, Note_on_c, 0, 56, 57
1, 7608, Note_on_c, 1, 53, 61
1, 7631, Note_on_c, 0, 56, 0
1, 7631, Note_on_c, 1, 53, 0
1, 7632, Note_on_c, 0, 60, 57
1, 7632, Note_on_c, 1, 56, 61
1, 7655, Note_on_c, 0, 60, 0
1, 7655, Note_on_c, 1, 56, 0
1, 7656, Note_on_c, 0, 58, 57
1, 7656, Note_on_c, 1, 55, 61
1, 7679, Note_on_c, 0, 58, 0
1, 7679, Note_on_c, 1, 55, 0
1, 7680, Note_on_c, 0, 60, 57
1, 7680, Note_on_c, 1, 56, 61
1, 7703, Note_on_c, 0, 63, 0
1, 7703, Note_on_c, 0, 60, 0
1, 7704, Note_on_c, 0, 68, 57
1, 7704, Note_on_c, 0, 65, 57
1, 7725, Note_on_c, 1, 56, 0
1, 7727, Note_on_c, 0, 68, 0
1, 7727, Note_on_c, 0, 65, 0
1, 7728, Note_on_c, 0, 67, 57
1, 7728, Note_on_c, 0, 63, 57
1, 7728, Note_on_c, 1, 58, 61
1, 7751, Note_on_c, 0, 67, 0
1, 7751, Note_on_c, 0, 63, 0
1, 7752, Note_on_c, 0, 65, 57
1, 7752, Note_on_c, 0, 62, 57
1, 7773, Note_on_c, 1, 58, 0
1, 7775, Note_on_c, 0, 65, 0
1, 7775, Note_on_c, 0, 62, 0
1, 7776, Note_on_c, 0, 65, 0
1, 7776, Note_on_c, 0, 62, 57
1, 7776, Note_on_c, 1, 51, 61
1, 7872, Note_on_c, 0, 65, 0
1, 7872, Note_on_c, 0, 67, 0
1, 7872, Note_on_c, 0, 62, 0
1, 7872, Note_on_c, 0, 63, 57
1, 7953, Note_on_c, 0, 67, 0
1, 7953, Note_on_c, 0, 63, 0
1, 7953, Note_on_c, 1, 51, 0
1, 8064, Note_on_c, 1, 44, 64
1, 8112, Note_on_c, 0, 75, 64
1, 8153, Note_on_c, 1, 44, 0
1, 8157, Note_on_c, 0, 75, 0
1, 8160, Note_on_c, 0, 77, 64
1, 8184, Note_on_c, 0, 77, 0
1, 8184, Note_on_c, 0, 75, 64
1, 8207, Note_on_c, 0, 75, 0
1, 8208, Note_on_c, 0, 73, 64
1, 8231, Note_on_c, 0, 73, 0
1, 8232, Note_on_c, 0, 72, 64
1, 8255, Note_on_c, 0, 72, 0
1, 8256, Note_on_c, 0, 82, 64
1, 8280, Note_on_c, 0, 82, 0
1, 8280, Note_on_c, 0, 80, 64
1, 8303, Note_on_c, 0, 80, 0
1, 8304, Note_on_c, 0, 79, 64
1, 8327, Note_on_c, 0, 79, 0
1, 8328, Note_on_c, 0, 77, 64
1, 8351, Note_on_c, 0, 77, 0
1, 8352, Note_on_c, 0, 77, 64
1, 8376, Note_on_c, 0, 77, 0
1, 8376, Note_on_c, 0, 75, 64
1, 8386, Note_on_c, 0, 75, 0
1, 8400, Note_on_c, 0, 75, 64
1, 8400, Note_on_c, 1, 56, 64
1, 8445, Note_on_c, 1, 56, 0
1, 8448, Note_on_c, 1, 60, 64
1, 8493, Note_on_c, 0, 75, 0
1, 8493, Note_on_c, 1, 60, 0
1, 8496, Note_on_c, 0, 72, 64
1, 8496, Note_on_c, 1, 56, 64
1, 8530, Note_on_c, 0, 72, 0
1, 8532, Note_on_c, 0, 75, 64
1, 8541, Note_on_c, 1, 56, 0
1, 8544, Note_on_c, 0, 75, 0
1, 8544, Note_on_c, 0, 75, 64
1, 8544, Note_on_c, 1, 58, 64
1, 8567, Note_on_c, 0, 75, 0
1, 8568, Note_on_c, 0, 73, 64
1, 8589, Note_on_c, 1, 58, 0
1, 8591, Note_on_c, 0, 73, 0
1, 8592, Note_on_c, 0, 72, 64
1, 8592, Note_on_c, 1, 51, 64
1, 8615, Note_on_c, 0, 72, 0
1, 8616, Note_on_c, 0, 70, 64
1, 8637, Note_on_c, 1, 51, 0
1, 8639, Note_on_c, 0, 70, 0
1, 8640, Note_on_c, 0, 70, 80
1, 8688, Note_on_c, 1, 56, 64
1, 8733, Note_on_c, 1, 56, 0
1, 8736, Note_on_c, 0, 70, 0
1, 8736, Note_on_c, 0, 72, 64
1, 8736, Note_on_c, 1, 56, 64
1, 8781, Note_on_c, 0, 72, 0
1, 8781, Note_on_c, 1, 56, 0
1, 8784, Note_on_c, 0, 68, 64
1, 8784, Note_on_c, 1, 65, 64
1, 8818, Note_on_c, 0, 68, 0
1, 8820, Note_on_c, 0, 72, 64
1, 8829, Note_on_c, 1, 65, 0
1, 8832, Note_on_c, 0, 72, 0
1, 8832, Note_on_c, 0, 72, 64
1, 8832, Note_on_c, 1, 61, 64
1, 8855, Note_on_c, 0, 72, 0
1, 8856, Note_on_c, 0, 70, 64
1, 8877, Note_on_c, 1, 61, 0
1, 8879, Note_on_c, 0, 70, 0
1, 8880, Note_on_c, 0, 68, 64
1, 8880, Note_on_c, 1, 63, 64
1, 8886, Note_on_c, 0, 68, 0
1, 8886, Note_on_c, 0, 70, 64
1, 8892, Note_on_c, 0, 70, 0
1, 8892, Note_on_c, 0, 68, 64
1, 8903, Note_on_c, 0, 68, 0
1, 8904, Note_on_c, 0, 67, 64
1, 8925, Note_on_c, 1, 63, 0
1, 8927, Note_on_c, 0, 67, 0
1, 8928, Note_on_c, 0, 67, 64
1, 8928, Note_on_c, 1, 56, 64
1, 8952, Note_on_c, 0, 67, 0
1, 8952, Note_on_c, 0, 70, 64
1, 8958, Note_on_c, 0, 70, 0
1, 8958, Note_on_c, 0, 68, 64
1, 8964, Note_on_c, 0, 68, 0
1, 8964, Note_on_c, 0, 67, 64
1, 8970, Note_on_c, 0, 67, 0
1, 8970, Note_on_c, 0, 68, 64
1, 8976, Note_on_c, 0, 68, 0
1, 8976, Note_on_c, 0, 72, 64
1, 8986, Note_on_c, 0, 72, 0
1, 9000, Note_on_c, 0, 68, 64
1, 9010, Note_on_c, 0, 68, 0
1, 9017, Note_on_c, 1, 56, 0
1, 9024, Note_on_c, 0, 63, 64
1, 9048, Note_on_c, 1, 56, 64
1, 9071, Note_on_c, 1, 56, 0
1, 9072, Note_on_c, 1, 60, 64
1, 9095, Note_on_c, 1, 60, 0
1, 9096, Note_on_c, 1, 56, 64
1, 9113, Note_on_c, 0, 63, 0
1, 9119, Note_on_c, 1, 56, 0
1, 9120, Note_on_c, 1, 51, 64
1, 9143, Note_on_c, 1, 51, 0
1, 9144, Note_on_c, 1, 56, 64
1, 9167, Note_on_c, 1, 56, 0
1, 9168, Note_on_c, 1, 48, 64
1, 9191, Note_on_c, 1, 48, 0
1, 9192, Note_on_c, 1, 51, 64
1, 9215, Note_on_c, 1, 51, 0
1, 9216, Note_on_c, 1, 44, 64
1, 9264, Note_on_c, 0, 75, 64
1, 9305, Note_on_c, 1, 44, 0
1, 9309, Note_on_c, 0, 75, 0
1, 9312, Note_on_c, 0, 74, 64
1, 9318, Note_on_c, 0, 74, 0
1, 9318, Note_on_c, 0, 75, 64
1, 9324, Note_on_c, 0, 75, 0
1, 9324, Note_on_c, 0, 77, 64
1, 9330, Note_on_c, 0, 77, 0
1, 9330, Note_on_c, 0, 75, 64
1, 9357, Note_on_c, 0, 75, 0
1, 9360, Note_on_c, 0, 73, 64
1, 9383, Note_on_c, 0, 73, 0
1, 9384, Note_on_c, 0, 72, 64
1, 9407, Note_on_c, 0, 72, 0
1, 9408, Note_on_c, 0, 82, 64
1, 9432, Note_on_c, 0, 82, 0
1, 9432, Note_on_c, 0, 80, 64
1, 9455, Note_on_c, 0, 80, 0
1, 9456, Note_on_c, 0, 79, 64
1, 9479, Note_on_c, 0, 79, 0
1, 9480, Note_on_c, 0, 77, 64
1, 9503, Note_on_c, 0, 77, 0
1, 9504, Note_on_c, 0, 77, 64
1, 9528, Note_on_c, 0, 77, 0
1, 9528, Note_on_c, 0, 75, 64
1, 9538, Note_on_c, 0, 75, 0
1, 9552, Note_on_c, 0, 75, 64
1, 9552, Note_on_c, 1, 56, 64
1, 9597, Note_on_c, 1, 56, 0
1, 9600, Note_on_c, 1, 60, 64
1, 9615, Note_on_c, 0, 75, 0
1, 9616, Note_on_c, 0, 77, 64
1, 9631, Note_on_c, 0, 77, 0
1, 9632, Note_on_c, 0, 79, 64
1, 9645, Note_on_c, 1, 60, 0
1, 9647, Note_on_c, 0, 79, 0
1, 9648, Note_on_c, 0, 80, 64
1, 9648, Note_on_c, 1, 56, 64
1, 9663, Note_on_c, 0, 80, 0
1, 9664, Note_on_c, 0, 82, 64
1, 9679, Note_on_c, 0, 82, 0
1, 9680, Note_on_c, 0, 84, 64
1, 9693, Note_on_c, 1, 56, 0
1, 9695, Note_on_c, 0, 84, 0
1, 9696, Note_on_c, 0, 75, 64
1, 9696, Note_on_c, 1, 58, 64
1, 9741, Note_on_c, 0, 75, 0
1, 9741, Note_on_c, 1, 58, 0
1, 9744, Note_on_c, 0, 73, 64
1, 9744, Note_on_c, 1, 51, 64
1, 9751, Note_on_c, 0, 73, 0
1, 9751, Note_on_c, 0, 75, 64
1, 9758, Note_on_c, 0, 75, 0
1, 9758, Note_on_c, 0, 73, 64
1, 9765, Note_on_c, 0, 73, 0
1, 9765, Note_on_c, 0, 75, 64
1, 9772, Note_on_c, 0, 75, 0
1, 9772, Note_on_c, 0, 73, 64
1, 9779, Note_on_c, 0, 73, 0
1, 9779, Note_on_c, 0, 72, 64
1, 9786, Note_on_c, 0, 72, 0
1, 9786, Note_on_c, 0, 73, 64
1, 9789, Note_on_c, 1, 51, 0
1, 9792, Note_on_c, 0, 73, 0
1, 9792, Note_on_c, 0, 73, 80
1, 9840, Note_on_c, 1, 56, 64
1, 9885, Note_on_c, 1, 56, 0
1, 9888, Note_on_c, 1, 56, 64
1, 9911, Note_on_c, 0, 73, 0
1, 9912, Note_on_c, 0, 72, 64
1, 9933, Note_on_c, 1, 56, 0
1, 9935, Note_on_c, 0, 72, 0
1, 9936, Note_on_c, 0, 75, 64
1, 9936, Note_on_c, 1, 60, 64
1, 9970, Note_on_c, 0, 75, 0
1, 9972, Note_on_c, 0, 68, 64
1, 9981, Note_on_c, 1, 60, 0
1, 9984, Note_on_c, 0, 68, 0
1, 9984, Note_on_c, 0, 72, 64
1, 9984, Note_on_c, 1, 61, 64
1, 10007, Note_on_c, 0, 72, 0
1, 10008, Note_on_c, 0, 70, 64
1, 10029, Note_on_c, 1, 61, 0
1, 10031, Note_on_c, 0, 70, 0
1, 10032, Note_on_c, 0, 68, 64
1, 10032, Note_on_c, 1, 63, 64
1, 10038, Note_on_c, 0, 68, 0
1, 10038, Note_on_c, 0, 70, 64
1, 10044, Note_on_c, 0, 70, 0
1, 10044, Note_on_c, 0, 68, 64
1, 10055, Note_on_c, 0, 68, 0
1, 10056, Note_on_c, 0, 67, 64
1, 10077, Note_on_c, 1, 63, 0
1, 10079, Note_on_c, 0, 67, 0
1, 10080, Note_on_c, 0, 68, 64
1, 10104, Note_on_c, 1, 56, 64
1, 10125, Note_on_c, 0, 68, 0
1, 10127, Note_on_c, 1, 56, 0
1, 10128, Note_on_c, 0, 63, 64
1, 10128, Note_on_c, 1, 60, 64
1, 10151, Note_on_c, 1, 60, 0
1, 10152, Note_on_c, 1, 56, 64
1, 10173, Note_on_c, 0, 63, 0
1, 10175, Note_on_c, 1, 56, 0
1, 10176, Note_on_c, 1, 51, 64
1, 10199, Note_on_c, 1, 51, 0
1, 10200, Note_on_c, 1, 56, 64
1, 10223, Note_on_c, 1, 56, 0
1, 10224, Note_on_c, 1, 48, 64
1, 10247, Note_on_c, 1, 48, 0
1, 10248, Note_on_c, 1, 51, 64
1, 10271, Note_on_c, 1, 51, 0
1, 10272, Note_on_c, 1, 56, 64
1, 10295, Note_on_c, 1, 56, 0
1, 10296, Note_on_c, 1, 60, 64
1, 10319, Note_on_c, 1, 60, 0
1, 10320, Note_on_c, 1, 63, 64
1, 10343, Note_on_c, 1, 63, 0
1, 10344, Note_on_c, 1, 68, 64
1, 10367, Note_on_c, 1, 68, 0
1, 10368, Note_on_c, 1, 61, 64
1, 10392, Note_on_c, 0, 76, 64
1, 10415, Note_on_c, 0, 76, 0
1, 10416, Note_on_c, 0, 77, 64
1, 10439, Note_on_c, 0, 77, 0
1, 10440, Note_on_c, 0, 80, 64
1, 10457, Note_on_c, 1, 61, 0
1, 10463, Note_on_c, 0, 80, 0
1, 10464, Note_on_c, 0, 77, 64
1, 10464, Note_on_c, 1, 60, 64
1, 10487, Note_on_c, 0, 77, 0
1, 10488, Note_on_c, 0, 75, 64
1, 10509, Note_on_c, 1, 60, 0
1, 10511, Note_on_c, 0, 75, 0
1, 10512, Note_on_c, 0, 84, 64
1, 10512, Note_on_c, 1, 56, 64
1, 10535, Note_on_c, 0, 84, 0
1, 10536, Note_on_c, 0, 80, 64
1, 10557, Note_on_c, 1, 56, 0
1, 10559, Note_on_c, 0, 80, 0
1, 10560, Note_on_c, 0, 75, 64
1, 10560, Note_on_c, 1, 58, 64
1, 10605, Note_on_c, 0, 75, 0
1, 10605, Note_on_c, 1, 58, 0
1, 10608, Note_on_c, 0, 73, 64
1, 10608, Note_on_c, 1, 51, 64
1, 10615, Note_on_c, 0, 73, 0
1, 10615, Note_on_c, 0, 75, 64
1, 10622, Note_on_c, 0, 75, 0
1, 10622, Note_on_c, 0, 73, 64
1, 10629, Note_on_c, 0, 73, 0
1, 10629, Note_on_c, 0, 75, 64
1, 10636, Note_on_c, 0, 75, 0
1, 10636, Note_on_c, 0, 73, 64
1, 10643, Note_on_c, 0, 73, 0
1, 10643, Note_on_c, 0, 72, 64
1, 10650, Note_on_c, 0, 72, 0
1, 10650, Note_on_c, 0, 73, 64
1, 10653, Note_on_c, 1, 51, 0
1, 10656, Note_on_c, 0, 73, 0
1, 10656, Note_on_c, 0, 73, 64
1, 10680, Note_on_c, 1, 56, 64
1, 10703, Note_on_c, 1, 56, 0
1, 10704, Note_on_c, 0, 73, 0
1, 10704, Note_on_c, 0, 72, 64
1, 10704, Note_on_c, 1, 60, 64
1, 10727, Note_on_c, 1, 60, 0
1, 10728, Note_on_c, 1, 56, 64
1, 10749, Note_on_c, 0, 72, 0
1, 10751, Note_on_c, 1, 56, 0
1, 10752, Note_on_c, 1, 51, 64
1, 10775, Note_on_c, 1, 51, 0
1, 10776, Note_on_c, 1, 56, 64
1, 10799, Note_on_c, 1, 56, 0
1, 10800, Note_on_c, 1, 48, 64
1, 10823, Note_on_c, 1, 48, 0
1, 10824, Note_on_c, 1, 51, 64
1, 10847, Note_on_c, 1, 51, 0
1, 10848, Note_on_c, 1, 56, 64
1, 10871, Note_on_c, 1, 56, 0
1, 10872, Note_on_c, 1, 60, 64
1, 10895, Note_on_c, 1, 60, 0
1, 10896, Note_on_c, 1, 63, 64
1, 10919, Note_on_c, 1, 63, 0
1, 10920, Note_on_c, 1, 68, 64
1, 10920, Note_on_c, 1, 68, 64
1, 10943, Note_on_c, 1, 68, 0
1, 10944, Note_on_c, 1, 61, 64
1, 10968, Note_on_c, 0, 76, 64
1, 10991, Note_on_c, 0, 76, 0
1, 10992, Note_on_c, 0, 77, 64
1, 11015, Note_on_c, 0, 77, 0
1, 11016, Note_on_c, 0, 80, 64
1, 11033, Note_on_c, 1, 61, 0
1, 11039, Note_on_c, 0, 80, 0
1, 11040, Note_on_c, 1, 60, 64
1, 11064, Note_on_c, 0, 74, 64
1, 11087, Note_on_c, 0, 74, 0
1, 11088, Note_on_c, 0, 75, 64
1, 11111, Note_on_c, 0, 75, 0
1, 11112, Note_on_c, 0, 80, 64
1, 11129, Note_on_c, 1, 60, 0
1, 11135, Note_on_c, 0, 80, 0
1, 11136, Note_on_c, 0, 75, 64
1, 11136, Note_on_c, 1, 58, 64
1, 11159, Note_on_c, 0, 75, 0
1, 11160, Note_on_c, 0, 73, 64
1, 11181, Note_on_c, 1, 68, 0
1, 11183, Note_on_c, 0, 73, 0
1, 11184, Note_on_c, 0, 82, 64
1, 11184, Note_on_c, 1, 67, 64
1, 11207, Note_on_c, 0, 82, 0
1, 11208, Note_on_c, 0, 73, 64
1, 11225, Note_on_c, 1, 58, 0
1, 11229, Note_on_c, 1, 67, 0
1, 11231, Note_on_c, 0, 73, 0
1, 11232, Note_on_c, 1, 68, 64
1, 11232, Note_on_c, 1, 56, 64
1, 11256, Note_on_c, 0, 72, 64
1, 11279, Note_on_c, 0, 72, 0
1, 11280, Note_on_c, 0, 75, 64
1, 11303, Note_on_c, 0, 75, 0
1, 11304, Note_on_c, 0, 72, 64
1, 11321, Note_on_c, 1, 68, 0
1, 11321, Note_on_c, 1, 56, 0
1, 11327, Note_on_c, 0, 72, 0
1, 11328, Note_on_c, 0, 69, 75
1, 11328, Note_on_c, 1, 61, 64
1, 11351, Note_on_c, 0, 69, 0
1, 11352, Note_on_c, 0, 70, 77
1, 11375, Note_on_c, 0, 70, 0
1, 11376, Note_on_c, 0, 73, 79
1, 11399, Note_on_c, 0, 73, 0
1, 11400, Note_on_c, 0, 77, 81
1, 11417, Note_on_c, 1, 61, 0
1, 11423, Note_on_c, 0, 77, 0
1, 11424, Note_on_c, 0, 75, 84
1, 11424, Note_on_c, 1, 49, 64
1, 11447, Note_on_c, 0, 75, 0
1, 11448, Note_on_c, 0, 73, 81
1, 11469, Note_on_c, 1, 49, 0
1, 11471, Note_on_c, 0, 73, 0
1, 11472, Note_on_c, 0, 72, 79
1, 11472, Note_on_c, 1, 50, 64
1, 11495, Note_on_c, 0, 72, 0
1, 11496, Note_on_c, 0, 70, 77
1, 11517, Note_on_c, 1, 50, 0
1, 11519, Note_on_c, 0, 70, 0
1, 11520, Note_on_c, 0, 68, 75
1, 11544, Note_on_c, 1, 51, 64
1, 11567, Note_on_c, 1, 51, 0
1, 11568, Note_on_c, 0, 68, 0
1, 11568, Note_on_c, 0, 67, 75
1, 11568, Note_on_c, 1, 55, 64
1, 11591, Note_on_c, 1, 55, 0
1, 11592, Note_on_c, 1, 51, 64
1, 11613, Note_on_c, 0, 67, 0
1, 11615, Note_on_c, 1, 51, 0
1, 11616, Note_on_c, 1, 46, 64
1, 11639, Note_on_c, 1, 46, 0
1, 11640, Note_on_c, 1, 51, 64
1, 11663, Note_on_c, 1, 51, 0
1, 11664, Note_on_c, 1, 43, 64
1, 11687, Note_on_c, 1, 43, 0
1, 11688, Note_on_c, 1, 46, 64
1, 11711, Note_on_c, 1, 46, 0
1, 11712, Note_on_c, 1, 51, 64
1, 11735, Note_on_c, 1, 51, 0
1, 11736, Note_on_c, 1, 55, 64
1, 11759, Note_on_c, 1, 55, 0
1, 11760, Note_on_c, 1, 58, 64
1, 11783, Note_on_c, 1, 58, 0
1, 11784, Note_on_c, 1, 55, 64
1, 11807, Note_on_c, 1, 55, 0
1, 11808, Note_on_c, 1, 63, 64
1, 11832, Note_on_c, 0, 79, 75
1, 11855, Note_on_c, 0, 79, 0
1, 11856, Note_on_c, 0, 82, 75
1, 11879, Note_on_c, 0, 82, 0
1, 11880, Note_on_c, 0, 79, 75
1, 11897, Note_on_c, 1, 63, 0
1, 11903, Note_on_c, 0, 79, 0
1, 11904, Note_on_c, 1, 65, 64
1, 11928, Note_on_c, 0, 80, 75
1, 11951, Note_on_c, 0, 80, 0
1, 11952, Note_on_c, 0, 77, 75
1, 11975, Note_on_c, 0, 77, 0
1, 11976, Note_on_c, 0, 74, 75
1, 11993, Note_on_c, 1, 65, 0
1, 11999, Note_on_c, 0, 74, 0
1, 12000, Note_on_c, 1, 67, 64
1, 12024, Note_on_c, 0, 74, 75
1, 12047, Note_on_c, 0, 74, 0
1, 12048, Note_on_c, 0, 75, 75
1, 12071, Note_on_c, 0, 75, 0
1, 12072, Note_on_c, 0, 70, 75
1, 12089, Note_on_c, 1, 67, 0
1, 12095, Note_on_c, 0, 70, 0
1, 12096, Note_on_c, 0, 82, 75
1, 12120, Note_on_c, 1, 63, 64
1, 12143, Note_on_c, 1, 63, 0
1, 12144, Note_on_c, 1, 67, 64
1, 12167, Note_on_c, 1, 67, 0
1, 12168, Note_on_c, 1, 63, 64
1, 12185, Note_on_c, 0, 82, 0
1, 12191, Note_on_c, 1, 63, 0
1, 12192, Note_on_c, 0, 82, 75
1, 12198, Note_on_c, 0, 82, 0
1, 12198, Note_on_c, 0, 80, 75
1, 12204, Note_on_c, 0, 80, 0
1, 12204, Note_on_c, 0, 79, 75
1, 12210, Note_on_c, 0, 79, 0
1, 12210, Note_on_c, 0, 80, 75
1, 12216, Note_on_c, 1, 65, 64
1, 12239, Note_on_c, 1, 65, 0
1, 12240, Note_on_c, 1, 68, 64
1, 12263, Note_on_c, 1, 68, 0
1, 12264, Note_on_c, 1, 74, 64
1, 12281, Note_on_c, 0, 80, 0
1, 12287, Note_on_c, 1, 74, 0
1, 12288, Note_on_c, 0, 80, 75
1, 12294, Note_on_c, 0, 80, 0
1, 12294, Note_on_c, 0, 79, 75
1, 12300, Note_on_c, 0, 79, 0
1, 12300, Note_on_c, 0, 77, 75
1, 12306, Note_on_c, 0, 77, 0
1, 12306, Note_on_c, 0, 79, 75
1, 12312, Note_on_c, 1, 67, 64
1, 12335, Note_on_c, 1, 67, 0
1, 12336, Note_on_c, 1, 70, 64
1, 12359, Note_on_c, 1, 70, 0
1, 12360, Note_on_c, 1, 75, 64
1, 12377, Note_on_c, 0, 79, 0
1, 12383, Note_on_c, 1, 75, 0
1, 12384, Note_on_c, 1, 68, 64
1, 12408, Note_on_c, 0, 77, 75
1, 12431, Note_on_c, 0, 77, 0
1, 12432, Note_on_c, 0, 79, 75
1, 12455, Note_on_c, 0, 79, 0
1, 12456, Note_on_c, 0, 76, 75
1, 12473, Note_on_c, 1, 68, 0
1, 12479, Note_on_c, 0, 76, 0
1, 12480, Note_on_c, 0, 77, 76
1, 12480, Note_on_c, 1, 56, 75
1, 12503, Note_on_c, 0, 77, 0
1, 12504, Note_on_c, 0, 83, 77
1, 12527, Note_on_c, 0, 83, 0
1, 12528, Note_on_c, 0, 84, 78
1, 12551, Note_on_c, 0, 84, 0
1, 12552, Note_on_c, 0, 79, 79
1, 12575, Note_on_c, 0, 79, 0
1, 12576, Note_on_c, 0, 82, 80
1, 12599, Note_on_c, 0, 82, 0
1, 12600, Note_on_c, 0, 80, 81
1, 12613, Note_on_c, 1, 56, 0
1, 12623, Note_on_c, 0, 80, 0
1, 12624, Note_on_c, 0, 79, 82
1, 12624, Note_on_c, 1, 57, 81
1, 12647, Note_on_c, 0, 79, 0
1, 12648, Note_on_c, 0, 77, 83
1, 12669, Note_on_c, 1, 57, 0
1, 12671, Note_on_c, 0, 77, 0
1, 12672, Note_on_c, 0, 75, 84
1, 12696, Note_on_c, 1, 58, 75
1, 12719, Note_on_c, 1, 58, 0
1, 12720, Note_on_c, 1, 60, 75
1, 12743, Note_on_c, 1, 60, 0
1, 12744, Note_on_c, 1, 57, 76
1, 12767, Note_on_c, 1, 57, 0
1, 12768, Note_on_c, 0, 75, 0
1, 12768, Note_on_c, 0, 74, 79
1, 12768, Note_on_c, 1, 58, 77
1, 12774, Note_on_c, 0, 74, 0
1, 12774, Note_on_c, 0, 75, 79
1, 12780, Note_on_c, 0, 75, 0
1, 12780, Note_on_c, 0, 74, 79
1, 12791, Note_on_c, 1, 58, 0
1, 12792, Note_on_c, 1, 60, 78
1, 12815, Note_on_c, 1, 60, 0
1, 12816, Note_on_c, 1, 62, 79
1, 12839, Note_on_c, 1, 62, 0
1, 12840, Note_on_c, 1, 63, 79
1, 12859, Note_on_c, 0, 74, 0
1, 12863, Note_on_c, 1, 63, 0
1, 12864, Note_on_c, 1, 65, 80
1, 12887, Note_on_c, 1, 65, 0
1, 12888, Note_on_c, 1, 67, 81
1, 12911, Note_on_c, 1, 67, 0
1, 12912, Note_on_c, 1, 68, 82
1, 12935, Note_on_c, 1, 68, 0
1, 12936, Note_on_c, 1, 70, 83
1, 12959, Note_on_c, 1, 70, 0
1, 12960, Note_on_c, 1, 68, 84
1, 12984, Note_on_c, 0, 75, 75
1, 13007, Note_on_c, 0, 75, 0
1, 13008, Note_on_c, 0, 77, 75
1, 13031, Note_on_c, 0, 77, 0
1, 13032, Note_on_c, 0, 74, 76
1, 13055, Note_on_c, 0, 74, 0
1, 13056, Note_on_c, 0, 75, 77
1, 13056, Note_on_c, 1, 68, 0
1, 13056, Note_on_c, 1, 67, 79
1, 13062, Note_on_c, 1, 67, 0
1, 13062, Note_on_c, 1, 68, 79
1, 13068, Note_on_c, 1, 68, 0
1, 13068, Note_on_c, 1, 67, 79
1, 13079, Note_on_c, 0, 75, 0
1, 13080, Note_on_c, 0, 77, 78
1, 13103, Note_on_c, 0, 77, 0
1, 13104, Note_on_c, 0, 79, 79
1, 13127, Note_on_c, 0, 79, 0
1, 13128, Note_on_c, 0, 80, 79
1, 13147, Note_on_c, 1, 67, 0
1, 13151, Note_on_c, 0, 80, 0
1, 13152, Note_on_c, 0, 82, 80
1, 13175, Note_on_c, 0, 82, 0
1, 13176, Note_on_c, 0, 84, 81
1, 13199, Note_on_c, 0, 84, 0
1, 13200, Note_on_c, 0, 80, 82
1, 13223, Note_on_c, 0, 80, 0
1, 13224, Note_on_c, 0, 77, 83
1, 13247, Note_on_c, 0, 77, 0
1, 13248, Note_on_c, 0, 75, 84
1, 13272, Note_on_c, 1, 58, 75
1, 13295, Note_on_c, 1, 58, 0
1, 13296, Note_on_c, 1, 60, 75
1, 13319, Note_on_c, 1, 60, 0
1, 13320, Note_on_c, 1, 57, 76
1, 13343, Note_on_c, 1, 57, 0
1, 13344, Note_on_c, 0, 75, 0
1, 13344, Note_on_c, 0, 74, 75
1, 13344, Note_on_c, 1, 58, 77
1, 13350, Note_on_c, 0, 74, 0
1, 13350, Note_on_c, 0, 75, 75
1, 13356, Note_on_c, 0, 75, 0
1, 13356, Note_on_c, 0, 74, 75
1, 13367, Note_on_c, 1, 58, 0
1, 13368, Note_on_c, 1, 60, 78
1, 13391, Note_on_c, 1, 60, 0
1, 13392, Note_on_c, 1, 62, 79
1, 13415, Note_on_c, 1, 62, 0
1, 13416, Note_on_c, 1, 63, 79
1, 13435, Note_on_c, 0, 74, 0
1, 13439, Note_on_c, 1, 63, 0
1, 13440, Note_on_c, 1, 65, 80
1, 13463, Note_on_c, 1, 65, 0
1, 13464, Note_on_c, 1, 67, 81
1, 13487, Note_on_c, 1, 67, 0
1, 13488, Note_on_c, 1, 68, 82
1, 13511, Note_on_c, 1, 68, 0
1, 13512, Note_on_c, 1, 70, 83
1, 13535, Note_on_c, 1, 70, 0
1, 13536, Note_on_c, 1, 68, 84
1, 13560, Note_on_c, 0, 75, 75
1, 13583, Note_on_c, 0, 75, 0
1, 13584, Note_on_c, 0, 77, 75
1, 13607, Note_on_c, 0, 77, 0
1, 13608, Note_on_c, 0, 74, 75
1, 13631, Note_on_c, 0, 74, 0
1, 13632, Note_on_c, 0, 75, 75
1, 13632, Note_on_c, 1, 68, 0
1, 13632, Note_on_c, 1, 67, 76
1, 13638, Note_on_c, 1, 67, 0
1, 13638, Note_on_c, 1, 68, 76
1, 13644, Note_on_c, 1, 68, 0
1, 13644, Note_on_c, 1, 67, 76
1, 13655, Note_on_c, 0, 75, 0
1, 13656, Note_on_c, 0, 77, 75
1, 13679, Note_on_c, 0, 77, 0
1, 13680, Note_on_c, 0, 79, 75
1, 13703, Note_on_c, 0, 79, 0
1, 13704, Note_on_c, 0, 80, 75
1, 13727, Note_on_c, 0, 80, 0
1, 13728, Note_on_c, 0, 82, 75
1, 13752, Note_on_c, 0, 73, 64
1, 13773, Note_on_c, 1, 67, 0
1, 13775, Note_on_c, 0, 73, 0
1, 13776, Note_on_c, 0, 75, 64
1, 13776, Note_on_c, 1, 65, 75
1, 13799, Note_on_c, 0, 75, 0
1, 13800, Note_on_c, 0, 73, 64
1, 13821, Note_on_c, 1, 65, 0
1, 13823, Note_on_c, 0, 73, 0
1, 13824, Note_on_c, 0, 72, 64
1, 13848, Note_on_c, 1, 64, 75
1, 13871, Note_on_c, 1, 64, 0
1, 13872, Note_on_c, 1, 67, 76
1, 13895, Note_on_c, 1, 67, 0
1, 13896, Note_on_c, 1, 64, 78
1, 13913, Note_on_c, 0, 82, 0
1, 13913, Note_on_c, 0, 72, 0
1, 13919, Note_on_c, 1, 64, 0
1, 13920, Note_on_c, 0, 80, 94
1, 13920, Note_on_c, 0, 72, 64
1, 13920, Note_on_c, 1, 65, 80
1, 13943, Note_on_c, 1, 65, 0
1, 13944, Note_on_c, 1, 67, 82
1, 13967, Note_on_c, 1, 67, 0
1, 13968, Note_on_c, 1, 68, 84
1, 13991, Note_on_c, 1, 68, 0
1, 13992, Note_on_c, 1, 67, 82
1, 14015, Note_on_c, 1, 67, 0
1, 14016, Note_on_c, 1, 65, 81
1, 14039, Note_on_c, 1, 65, 0
1, 14040, Note_on_c, 1, 63, 79
1, 14063, Note_on_c, 1, 63, 0
1, 14064, Note_on_c, 1, 62, 78
1, 14070, Note_on_c, 1, 62, 0
1, 14070, Note_on_c, 1, 63, 78
1, 14076, Note_on_c, 1, 63, 0
1, 14076, Note_on_c, 1, 62, 78
1, 14087, Note_on_c, 1, 62, 0
1, 14088, Note_on_c, 1, 60, 76
1, 14097, Note_on_c, 0, 72, 0
1, 14111, Note_on_c, 1, 60, 0
1, 14112, Note_on_c, 0, 70, 64
1, 14136, Note_on_c, 1, 62, 75
1, 14159, Note_on_c, 1, 62, 0
1, 14160, Note_on_c, 1, 65, 76
1, 14183, Note_on_c, 1, 65, 0
1, 14184, Note_on_c, 1, 62, 78
1, 14201, Note_on_c, 0, 80, 0
1, 14201, Note_on_c, 0, 70, 0
1, 14207, Note_on_c, 1, 62, 0
1, 14208, Note_on_c, 0, 79, 94
1, 14208, Note_on_c, 0, 70, 64
1, 14208, Note_on_c, 1, 63, 80
1, 14231, Note_on_c, 1, 63, 0
1, 14232, Note_on_c, 1, 65, 82
1, 14255, Note_on_c, 1, 65, 0
1, 14256, Note_on_c, 1, 67, 84
1, 14279, Note_on_c, 1, 67, 0
1, 14280, Note_on_c, 1, 65, 82
1, 14303, Note_on_c, 1, 65, 0
1, 14304, Note_on_c, 1, 63, 81
1, 14310, Note_on_c, 1, 63, 0
1, 14310, Note_on_c, 1, 65, 81
1, 14316, Note_on_c, 1, 65, 0
1, 14316, Note_on_c, 1, 63, 81
1, 14327, Note_on_c, 1, 63, 0
1, 14328, Note_on_c, 1, 62, 79
1, 14351, Note_on_c, 1, 62, 0
1, 14352, Note_on_c, 1, 60, 78
1, 14358, Note_on_c, 1, 60, 0
1, 14358, Note_on_c, 1, 61, 78
1, 14364, Note_on_c, 1, 61, 0
1, 14364, Note_on_c, 1, 60, 78
1, 14375, Note_on_c, 1, 60, 0
1, 14376, Note_on_c, 1, 58, 76
1, 14385, Note_on_c, 0, 79, 0
1, 14385, Note_on_c, 0, 70, 0
1, 14399, Note_on_c, 1, 58, 0
1, 14400, Note_on_c, 1, 56, 64
1, 14424, Note_on_c, 0, 71, 75
1, 14448, Note_on_c, 0, 71, 0
1, 14448, Note_on_c, 0, 72, 76
1, 14458, Note_on_c, 0, 72, 0
1, 14472, Note_on_c, 0, 76, 78
1, 14496, Note_on_c, 0, 76, 0
1, 14496, Note_on_c, 0, 77, 80
1, 14496, Note_on_c, 1, 60, 75
1, 14506, Note_on_c, 0, 77, 0
1, 14520, Note_on_c, 0, 83, 82
1, 14544, Note_on_c, 0, 83, 0
1, 14544, Note_on_c, 0, 84, 84
1, 14554, Note_on_c, 0, 84, 0
1, 14568, Note_on_c, 0, 79, 82
1, 14585, Note_on_c, 1, 60, 0
1, 14592, Note_on_c, 0, 79, 0
1, 14592, Note_on_c, 0, 80, 81
1, 14592, Note_on_c, 1, 65, 75
1, 14615, Note_on_c, 0, 80, 0
1, 14616, Note_on_c, 0, 76, 79
1, 14640, Note_on_c, 0, 76, 0
1, 14640, Note_on_c, 0, 77, 78
1, 14663, Note_on_c, 0, 77, 0
1, 14664, Note_on_c, 0, 72, 76
1, 14665, Note_on_c, 1, 56, 0
1, 14681, Note_on_c, 1, 65, 0
1, 14687, Note_on_c, 0, 72, 0
1, 14688, Note_on_c, 1, 55, 64
1, 14712, Note_on_c, 0, 69, 75
1, 14736, Note_on_c, 0, 69, 0
1, 14736, Note_on_c, 0, 70, 76
1, 14746, Note_on_c, 0, 70, 0
1, 14760, Note_on_c, 0, 74, 78
1, 14784, Note_on_c, 0, 74, 0
1, 14784, Note_on_c, 0, 75, 80
1, 14784, Note_on_c, 1, 58, 75
1, 14794, Note_on_c, 0, 75, 0
1, 14808, Note_on_c, 0, 81, 82
1, 14832, Note_on_c, 0, 81, 0
1, 14832, Note_on_c, 0, 82, 84
1, 14842, Note_on_c, 0, 82, 0
1, 14856, Note_on_c, 0, 78, 82
1, 14873, Note_on_c, 1, 58, 0
1, 14880, Note_on_c, 0, 78, 0
1, 14880, Note_on_c, 0, 79, 81
1, 14880, Note_on_c, 1, 63, 75
1, 14903, Note_on_c, 0, 79, 0
1, 14904, Note_on_c, 0, 74, 79
1, 14928, Note_on_c, 0, 74, 0
1, 14928, Note_on_c, 0, 75, 78
1, 14951, Note_on_c, 0, 75, 0
1, 14952, Note_on_c, 0, 70, 76
1, 14953, Note_on_c, 1, 55, 0
1, 14976, Note_on_c, 0, 70, 0
1, 14976, Note_on_c, 0, 71, 75
1, 14976, Note_on_c, 1, 56, 64
1, 15000, Note_on_c, 0, 71, 0
1, 15000, Note_on_c, 0, 72, 75
1, 15023, Note_on_c, 0, 72, 0
1, 15024, Note_on_c, 0, 68, 75
1, 15048, Note_on_c, 0, 68, 0
1, 15048, Note_on_c, 0, 65, 75
1, 15065, Note_on_c, 1, 56, 0
1, 15071, Note_on_c, 0, 65, 0
1, 15072, Note_on_c, 0, 68, 75
1, 15072, Note_on_c, 1, 58, 64
1, 15095, Note_on_c, 0, 68, 0
1, 15096, Note_on_c, 0, 67, 75
1, 15119, Note_on_c, 0, 67, 0
1, 15120, Note_on_c, 0, 70, 75
1, 15143, Note_on_c, 0, 70, 0
1, 15144, Note_on_c, 0, 63, 75
1, 15153, Note_on_c, 1, 63, 0
1, 15161, Note_on_c, 1, 58, 0
1, 15167, Note_on_c, 0, 63, 0
1, 15168, Note_on_c, 0, 67, 75
1, 15168, Note_on_c, 1, 56, 75
1, 15168, Note_on_c, 1, 46, 64
1, 15191, Note_on_c, 0, 67, 0
1, 15192, Note_on_c, 0, 65, 75
1, 15215, Note_on_c, 0, 65, 0
1, 15216, Note_on_c, 0, 63, 75
1, 15239, Note_on_c, 0, 63, 0
1, 15240, Note_on_c, 0, 62, 75
1, 15257, Note_on_c, 1, 56, 0
1, 15257, Note_on_c, 1, 46, 0
1, 15263, Note_on_c, 0, 62, 0
1, 15264, Note_on_c, 0, 63, 75
1, 15288, Note_on_c, 0, 55, 61
1, 15288, Note_on_c, 1, 51, 61
1, 15311, Note_on_c, 0, 55, 0
1, 15311, Note_on_c, 1, 51, 0
1, 15312, Note_on_c, 0, 56, 61
1, 15312, Note_on_c, 1, 53, 61
1, 15335, Note_on_c, 0, 56, 0
1, 15335, Note_on_c, 1, 53, 0
1, 15336, Note_on_c, 0, 55, 61
1, 15336, Note_on_c, 1, 51, 61
1, 15359, Note_on_c, 0, 55, 0
1, 15359, Note_on_c, 1, 51, 0
1, 15360, Note_on_c, 0, 58, 61
1, 15360, Note_on_c, 1, 55, 61
1, 15383, Note_on_c, 0, 58, 0
1, 15383, Note_on_c, 1, 55, 0
1, 15384, Note_on_c, 0, 56, 61
1, 15384, Note_on_c, 1, 53, 61
1, 15407, Note_on_c, 0, 56, 0
1, 15407, Note_on_c, 1, 53, 0
1, 15408, Note_on_c, 0, 60, 61
1, 15408, Note_on_c, 1, 56, 61
1, 15431, Note_on_c, 0, 60, 0
1, 15431, Note_on_c, 1, 56, 0
1, 15432, Note_on_c, 0, 58, 61
1, 15432, Note_on_c, 1, 55, 61
1, 15455, Note_on_c, 0, 58, 0
1, 15455, Note_on_c, 1, 55, 0
1, 15456, Note_on_c, 0, 60, 61
1, 15456, Note_on_c, 1, 56, 61
1, 15479, Note_on_c, 0, 63, 0
1, 15479, Note_on_c, 0, 60, 0
1, 15480, Note_on_c, 0, 68, 73
1, 15480, Note_on_c, 0, 65, 60
1, 15501, Note_on_c, 1, 56, 0
1, 15503, Note_on_c, 0, 68, 0
1, 15503, Note_on_c, 0, 65, 0
1, 15504, Note_on_c, 0, 67, 72
1, 15504, Note_on_c, 0, 63, 59
1, 15504, Note_on_c, 1, 58, 59
1, 15527, Note_on_c, 0, 67, 0
1, 15527, Note_on_c, 0, 63, 0
1, 15528, Note_on_c, 0, 65, 70
1, 15528, Note_on_c, 0, 62, 58
1, 15549, Note_on_c, 1, 58, 0
1, 15551, Note_on_c, 0, 65, 0
1, 15551, Note_on_c, 0, 62, 0
1, 15552, Note_on_c, 0, 63, 57
1, 15576, Note_on_c, 0, 55, 57
1, 15576, Note_on_c, 1, 51, 61
1, 15599, Note_on_c, 0, 55, 0
1, 15599, Note_on_c, 1, 51, 0
1, 15600, Note_on_c, 0, 56, 57
1, 15600, Note_on_c, 1, 53, 61
1, 15623, Note_on_c, 0, 56, 0
1, 15623, Note_on_c, 1, 53, 0
1, 15624, Note_on_c, 0, 55, 57
1, 15624, Note_on_c, 1, 51, 61
1, 15647, Note_on_c, 0, 55, 0
1, 15647, Note_on_c, 1, 51, 0
1, 15648, Note_on_c, 0, 58, 57
1, 15648, Note_on_c, 1, 55, 61
1, 15671, Note_on_c, 0, 58, 0
1, 15671, Note_on_c, 1, 55, 0
1, 15672, Note_on_c, 0, 56, 57
1, 15672, Note_on_c, 1, 53, 61
1, 15695, Note_on_c, 0, 56, 0
1, 15695, Note_on_c, 1, 53, 0
1, 15696, Note_on_c, 0, 60, 57
1, 15696, Note_on_c, 1, 56, 61
1, 15719, Note_on_c, 0, 60, 0
1, 15719, Note_on_c, 1, 56, 0
1, 15720, Note_on_c, 0, 58, 57
1, 15720, Note_on_c, 1, 55, 61
1, 15743, Note_on_c, 0, 58, 0
1, 15743, Note_on_c, 1, 55, 0
1, 15744, Note_on_c, 0, 60, 57
1, 15744, Note_on_c, 1, 56, 61
1, 15767, Note_on_c, 0, 63, 0
1, 15767, Note_on_c, 0, 60, 0
1, 15768, Note_on_c, 0, 68, 57
1, 15768, Note_on_c, 0, 65, 57
1, 15789, Note_on_c, 1, 56, 0
1, 15791, Note_on_c, 0, 68, 0
1, 15791, Note_on_c, 0, 65, 0
1, 15792, Note_on_c, 0, 67, 57
1, 15792, Note_on_c, 0, 63, 57
1, 15792, Note_on_c, 1, 58, 61
1, 15815, Note_on_c, 0, 67, 0
1, 15815, Note_on_c, 0, 63, 0
1, 15816, Note_on_c, 0, 65, 57
1, 15816, Note_on_c, 0, 62, 57
1, 15837, Note_on_c, 1, 58, 0
1, 15839, Note_on_c, 0, 65, 0
1, 15839, Note_on_c, 0, 62, 0
1, 15840, Note_on_c, 0, 65, 0
1, 15840, Note_on_c, 0, 62, 57
1, 15840, Note_on_c, 1, 51, 61
1, 15936, Note_on_c, 0, 65, 0
1, 15936, Note_on_c, 0, 67, 0
1, 15936, Note_on_c, 0, 62, 0
1, 15936, Note_on_c, 0, 63, 57
1, 16017, Note_on_c, 0, 67, 0
1, 16017, Note_on_c, 0, 63, 0
1, 16017, Note_on_c, 1, 51, 0
1, 16128, Note_on_c, 1, 51, 75
1, 16176, Note_on_c, 0, 70, 75
1, 16217, Note_on_c, 1, 51, 0
1, 16221, Note_on_c, 0, 70, 0
1, 16224, Note_on_c, 0, 72, 75
1, 16247, Note_on_c, 0, 72, 0
1, 16248, Note_on_c, 0, 70, 75
1, 16271, Note_on_c, 0, 70, 0
1, 16272, Note_on_c, 0, 68, 75
1, 16295, Note_on_c, 0, 68, 0
1, 16296, Note_on_c, 0, 67, 75
1, 16319, Note_on_c, 0, 67, 0
1, 16320, Note_on_c, 0, 77, 75
1, 16343, Note_on_c, 0, 77, 0
1, 16344, Note_on_c, 0, 75, 75
1, 16367, Note_on_c, 0, 75, 0
1, 16368, Note_on_c, 0, 74, 75
1, 16391, Note_on_c, 0, 74, 0
1, 16392, Note_on_c, 0, 72, 75
1, 16415, Note_on_c, 0, 72, 0
1, 16416, Note_on_c, 0, 72, 75
1, 16440, Note_on_c, 0, 72, 0
1, 16440, Note_on_c, 0, 70, 75
1, 16450, Note_on_c, 0, 70, 0
1, 16464, Note_on_c, 0, 70, 75
1, 16464, Note_on_c, 1, 51, 75
1, 16509, Note_on_c, 0, 70, 0
1, 16509, Note_on_c, 1, 51, 0
1, 16512, Note_on_c, 0, 70, 75
1, 16512, Note_on_c, 1, 55, 75
1, 16557, Note_on_c, 0, 70, 0
1, 16557, Note_on_c, 1, 55, 0
1, 16560, Note_on_c, 0, 67, 75
1, 16560, Note_on_c, 1, 51, 75
1, 16594, Note_on_c, 0, 67, 0
1, 16596, Note_on_c, 0, 70, 75
1, 16605, Note_on_c, 1, 51, 0
1, 16608, Note_on_c, 0, 70, 0
1, 16608, Note_on_c, 0, 70, 75
1, 16608, Note_on_c, 1, 53, 75
1, 16631, Note_on_c, 0, 70, 0
1, 16632, Note_on_c, 0, 68, 75
1, 16653, Note_on_c, 1, 53, 0
1, 16655, Note_on_c, 0, 68, 0
1, 16656, Note_on_c, 0, 67, 75
1, 16656, Note_on_c, 1, 46, 75
1, 16679, Note_on_c, 0, 67, 0
1, 16680, Note_on_c, 0, 65, 75
1, 16701, Note_on_c, 1, 46, 0
1, 16703, Note_on_c, 0, 65, 0
1, 16704, Note_on_c, 0, 65, 75
1, 16752, Note_on_c, 1, 51, 75
1, 16797, Note_on_c, 1, 51, 0
1, 16800, Note_on_c, 0, 65, 0
1, 16800, Note_on_c, 0, 67, 75
1, 16800, Note_on_c, 1, 51, 75
1, 16845, Note_on_c, 0, 67, 0
1, 16845, Note_on_c, 1, 51, 0
1, 16848, Note_on_c, 0, 63, 75
1, 16848, Note_on_c, 1, 60, 75
1, 16882, Note_on_c, 0, 63, 0
1, 16884, Note_on_c, 0, 67, 75
1, 16893, Note_on_c, 1, 60, 0
1, 16896, Note_on_c, 0, 67, 0
1, 16896, Note_on_c, 0, 67, 75
1, 16896, Note_on_c, 1, 56, 75
1, 16919, Note_on_c, 0, 67, 0
1, 16920, Note_on_c, 0, 65, 75
1, 16941, Note_on_c, 1, 56, 0
1, 16943, Note_on_c, 0, 65, 0
1, 16944, Note_on_c, 0, 63, 75
1, 16944, Note_on_c, 1, 58, 75
1, 16950, Note_on_c, 0, 63, 0
1, 16950, Note_on_c, 0, 65, 75
1, 16956, Note_on_c, 0, 65, 0
1, 16956, Note_on_c, 0, 63, 75
1, 16967, Note_on_c, 0, 63, 0
1, 16968, Note_on_c, 0, 62, 75
1, 16989, Note_on_c, 1, 58, 0
1, 16991, Note_on_c, 0, 62, 0
1, 16992, Note_on_c, 0, 63, 75
1, 17016, Note_on_c, 1, 51, 75
1, 17037, Note_on_c, 0, 63, 0
1, 17039, Note_on_c, 1, 51, 0
1, 17040, Note_on_c, 0, 58, 75
1, 17040, Note_on_c, 1, 55, 75
1, 17063, Note_on_c, 1, 55, 0
1, 17064, Note_on_c, 1, 51, 75
1, 17085, Note_on_c, 0, 58, 0
1, 17087, Note_on_c, 1, 51, 0
1, 17088, Note_on_c, 1, 46, 75
1, 17111, Note_on_c, 1, 46, 0
1, 17112, Note_on_c, 1, 51, 75
1, 17135, Note_on_c, 1, 51, 0
1, 17136, Note_on_c, 1, 43, 75
1, 17159, Note_on_c, 1, 43, 0
1, 17160, Note_on_c, 1, 46, 75
1, 17183, Note_on_c, 1, 46, 0
1, 17184, Note_on_c, 1, 51, 75
1, 17207, Note_on_c, 1, 51, 0
1, 17208, Note_on_c, 1, 55, 75
1, 17231, Note_on_c, 1, 55, 0
1, 17232, Note_on_c, 1, 58, 75
1, 17255, Note_on_c, 1, 58, 0
1, 17256, Note_on_c, 1, 55, 75
1, 17279, Note_on_c, 1, 55, 0
1, 17280, Note_on_c, 1, 63, 75
1, 17304, Note_on_c, 0, 75, 75
1, 17327, Note_on_c, 0, 75, 0
1, 17328, Note_on_c, 0, 74, 75
1, 17351, Note_on_c, 0, 74, 0
1, 17352, Note_on_c, 0, 75, 76
1, 17369, Note_on_c, 1, 63, 0
1, 17375, Note_on_c, 0, 75, 0
1, 17376, Note_on_c, 0, 77, 77
1, 17399, Note_on_c, 0, 77, 0
1, 17400, Note_on_c, 0, 75, 78
1, 17423, Note_on_c, 0, 75, 0
1, 17424, Note_on_c, 0, 74, 79
1, 17447, Note_on_c, 0, 74, 0
1, 17448, Note_on_c, 0, 75, 79
1, 17471, Note_on_c, 0, 75, 0
1, 17472, Note_on_c, 0, 78, 80
1, 17495, Note_on_c, 0, 78, 0
1, 17496, Note_on_c, 0, 75, 81
1, 17519, Note_on_c, 0, 75, 0
1, 17520, Note_on_c, 0, 73, 82
1, 17526, Note_on_c, 0, 73, 0
1, 17526, Note_on_c, 0, 75, 82
1, 17532, Note_on_c, 0, 75, 0
1, 17532, Note_on_c, 0, 73, 82
1, 17543, Note_on_c, 0, 73, 0
1, 17544, Note_on_c, 0, 72, 83
1, 17567, Note_on_c, 0, 72, 0
1, 17568, Note_on_c, 0, 70, 84
1, 17592, Note_on_c, 1, 63, 75
1, 17615, Note_on_c, 1, 63, 0
1, 17616, Note_on_c, 1, 62, 75
1, 17639, Note_on_c, 1, 62, 0
1, 17640, Note_on_c, 1, 63, 76
1, 17663, Note_on_c, 1, 63, 0
1, 17664, Note_on_c, 0, 70, 0
1, 17664, Note_on_c, 0, 69, 76
1, 17664, Note_on_c, 1, 65, 77
1, 17670, Note_on_c, 0, 69, 0
1, 17670, Note_on_c, 0, 70, 76
1, 17676, Note_on_c, 0, 70, 0
1, 17676, Note_on_c, 0, 69, 76
1, 17687, Note_on_c, 1, 65, 0
1, 17688, Note_on_c, 1, 63, 78
1, 17711, Note_on_c, 1, 63, 0
1, 17712, Note_on_c, 1, 62, 79
1, 17735, Note_on_c, 1, 62, 0
1, 17736, Note_on_c, 1, 63, 79
1, 17755, Note_on_c, 0, 69, 0
1, 17759, Note_on_c, 1, 63, 0
1, 17760, Note_on_c, 1, 66, 80
1, 17783, Note_on_c, 1, 66, 0
1, 17784, Note_on_c, 1, 63, 81
1, 17807, Note_on_c, 1, 63, 0
1, 17808, Note_on_c, 1, 61, 82
1, 17831, Note_on_c, 1, 61, 0
1, 17832, Note_on_c, 1, 60, 83
1, 17855, Note_on_c, 1, 60, 0
1, 17856, Note_on_c, 1, 58, 84
1, 17880, Note_on_c, 0, 66, 75
1, 17903, Note_on_c, 0, 66, 0
1, 17904, Note_on_c, 0, 65, 75
1, 17927, Note_on_c, 0, 65, 0
1, 17928, Note_on_c, 0, 64, 76
1, 17951, Note_on_c, 0, 64, 0
1, 17952, Note_on_c, 0, 65, 77
1, 17952, Note_on_c, 1, 58, 0
1, 17952, Note_on_c, 1, 57, 76
1, 17958, Note_on_c, 1, 57, 0
1, 17958, Note_on_c, 1, 58, 76
1, 17964, Note_on_c, 1, 58, 0
1, 17964, Note_on_c, 1, 57, 76
1, 17975, Note_on_c, 0, 65, 0
1, 17976, Note_on_c, 0, 69, 78
1, 17999, Note_on_c, 0, 69, 0
1, 18000, Note_on_c, 0, 72, 79
1, 18023, Note_on_c, 0, 72, 0
1, 18024, Note_on_c, 0, 69, 79
1, 18043, Note_on_c, 1, 57, 0
1, 18047, Note_on_c, 0, 69, 0
1, 18048, Note_on_c, 0, 75, 80
1, 18071, Note_on_c, 0, 75, 0
1, 18072, Note_on_c, 0, 72, 81
1, 18095, Note_on_c, 0, 72, 0
1, 18096, Note_on_c, 0, 78, 82
1, 18119, Note_on_c, 0, 78, 0
1, 18120, Note_on_c, 0, 75, 83
1, 18143, Note_on_c, 0, 75, 0
1, 18144, Note_on_c, 0, 75, 84
1, 18168, Note_on_c, 1, 60, 75
1, 18191, Note_on_c, 1, 60, 0
1, 18192, Note_on_c, 1, 58, 75
1, 18215, Note_on_c, 1, 58, 0
1, 18216, Note_on_c, 1, 57, 75
1, 18239, Note_on_c, 1, 57, 0
1, 18240, Note_on_c, 0, 75, 0
1, 18240, Note_on_c, 0, 73, 76
1, 18240, Note_on_c, 1, 58, 75
1, 18246, Note_on_c, 0, 73, 0
1, 18246, Note_on_c, 0, 75, 76
1, 18252, Note_on_c, 0, 75, 0
1, 18252, Note_on_c, 0, 73, 76
1, 18263, Note_on_c, 1, 58, 0
1, 18264, Note_on_c, 1, 61, 75
1, 18287, Note_on_c, 1, 61, 0
1, 18288, Note_on_c, 1, 65, 75
1, 18311, Note_on_c, 1, 65, 0
1, 18312, Note_on_c, 1, 61, 75
1, 18331, Note_on_c, 0, 73, 0
1, 18335, Note_on_c, 1, 61, 0
1, 18336, Note_on_c, 1, 70, 75
1, 18360, Note_on_c, 0, 77, 75
1, 18383, Note_on_c, 0, 77, 0
1, 18384, Note_on_c, 0, 78, 75
1, 18390, Note_on_c, 0, 78, 0
1, 18390, Note_on_c, 0, 77, 75
1, 18396, Note_on_c, 0, 77, 0
1, 18396, Note_on_c, 0, 78, 75
1, 18407, Note_on_c, 0, 78, 0
1, 18408, Note_on_c, 0, 82, 75
1, 18431, Note_on_c, 0, 82, 0
1, 18432, Note_on_c, 0, 76, 75
1, 18455, Note_on_c, 1, 70, 0
1, 18456, Note_on_c, 1, 73, 75
1, 18479, Note_on_c, 1, 73, 0
1, 18480, Note_on_c, 1, 72, 75
1, 18503, Note_on_c, 1, 72, 0
1, 18504, Note_on_c, 1, 70, 75
1, 18527, Note_on_c, 1, 70, 0
1, 18528, Note_on_c, 1, 68, 75
1, 18551, Note_on_c, 0, 76, 0
1, 18552, Note_on_c, 0, 77, 75
1, 18575, Note_on_c, 0, 77, 0
1, 18576, Note_on_c, 0, 79, 75
1, 18599, Note_on_c, 0, 79, 0
1, 18600, Note_on_c, 0, 80, 75
1, 18623, Note_on_c, 0, 80, 0
1, 18624, Note_on_c, 0, 82, 75
1, 18647, Note_on_c, 1, 68, 0
1, 18648, Note_on_c, 1, 67, 75
1, 18671, Note_on_c, 1, 67, 0
1, 18672, Note_on_c, 1, 65, 75
1, 18695, Note_on_c, 1, 65, 0
1, 18696, Note_on_c, 1, 64, 75
1, 18719, Note_on_c, 1, 64, 0
1, 18720, Note_on_c, 1, 65, 75
1, 18743, Note_on_c, 0, 82, 0
1, 18744, Note_on_c, 0, 80, 75
1, 18767, Note_on_c, 0, 80, 0
1, 18768, Note_on_c, 0, 82, 75
1, 18791, Note_on_c, 0, 82, 0
1, 18792, Note_on_c, 0, 84, 75
1, 18815, Note_on_c, 0, 84, 0
1, 18816, Note_on_c, 0, 73, 75
1, 18839, Note_on_c, 1, 65, 0
1, 18840, Note_on_c, 1, 67, 75
1, 18863, Note_on_c, 1, 67, 0
1, 18864, Note_on_c, 1, 68, 75
1, 18887, Note_on_c, 1, 68, 0
1, 18888, Note_on_c, 1, 70, 75
1, 18911, Note_on_c, 1, 70, 0
1, 18912, Note_on_c, 1, 64, 75
1, 18935, Note_on_c, 0, 73, 0
1, 18936, Note_on_c, 0, 72, 75
1, 18959, Note_on_c, 0, 72, 0
1, 18960, Note_on_c, 0, 82, 75
1, 18983, Note_on_c, 0, 82, 0
1, 18984, Note_on_c, 0, 79, 75
1, 19001, Note_on_c, 1, 64, 0
1, 19007, Note_on_c, 0, 79, 0
1, 19008, Note_on_c, 1, 65, 75
1, 19032, Note_on_c, 0, 80, 75
1, 19055, Note_on_c, 0, 80, 0
1, 19056, Note_on_c, 0, 84, 75
1, 19079, Note_on_c, 0, 84, 0
1, 19080, Note_on_c, 0, 77, 75
1, 19097, Note_on_c, 1, 65, 0
1, 19103, Note_on_c, 0, 77, 0
1, 19104, Note_on_c, 1, 67, 75
1, 19128, Note_on_c, 0, 76, 75
1, 19151, Note_on_c, 0, 76, 0
1, 19152, Note_on_c, 0, 79, 75
1, 19175, Note_on_c, 0, 79, 0
1, 19176, Note_on_c, 0, 76, 75
1, 19193, Note_on_c, 1, 67, 0
1, 19199, Note_on_c, 0, 76, 0
1, 19200, Note_on_c, 1, 68, 75
1, 19224, Note_on_c, 0, 76, 75
1, 19247, Note_on_c, 0, 76, 0
1, 19248, Note_on_c, 0, 77, 75
1, 19267, Note_on_c, 1, 68, 0
1, 19271, Note_on_c, 0, 77, 0
1, 19272, Note_on_c, 0, 72, 75
1, 19272, Note_on_c, 1, 56, 75
1, 19295, Note_on_c, 0, 72, 0
1, 19295, Note_on_c, 1, 56, 0
1, 19296, Note_on_c, 0, 75, 75
1, 19296, Note_on_c, 1, 58, 75
1, 19319, Note_on_c, 0, 75, 0
1, 19320, Note_on_c, 0, 73, 75
1, 19343, Note_on_c, 0, 73, 0
1, 19344, Note_on_c, 0, 72, 75
1, 19367, Note_on_c, 0, 72, 0
1, 19368, Note_on_c, 0, 70, 75
1, 19385, Note_on_c, 1, 58, 0
1, 19391, Note_on_c, 0, 70, 0
1, 19392, Note_on_c, 0, 70, 75
1, 19392, Note_on_c, 1, 60, 75
1, 19415, Note_on_c, 0, 70, 0
1, 19416, Note_on_c, 0, 68, 75
1, 19439, Note_on_c, 0, 68, 0
1, 19440, Note_on_c, 0, 72, 75
1, 19463, Note_on_c, 0, 72, 0
1, 19464, Note_on_c, 0, 65, 75
1, 19481, Note_on_c, 1, 60, 0
1, 19487, Note_on_c, 0, 65, 0
1, 19488, Note_on_c, 0, 68, 75
1, 19488, Note_on_c, 1, 48, 75
1, 19511, Note_on_c, 0, 68, 0
1, 19512, Note_on_c, 0, 67, 73
1, 19518, Note_on_c, 0, 67, 0
1, 19518, Note_on_c, 0, 68, 73
1, 19524, Note_on_c, 0, 68, 0
1, 19524, Note_on_c, 0, 67, 73
1, 19535, Note_on_c, 0, 67, 0
1, 19536, Note_on_c, 0, 65, 72
1, 19559, Note_on_c, 0, 65, 0
1, 19560, Note_on_c, 0, 64, 70
1, 19577, Note_on_c, 1, 48, 0
1, 19583, Note_on_c, 0, 64, 0
1, 19584, Note_on_c, 1, 53, 61
1, 19608, Note_on_c, 0, 65, 61
1, 19608, Note_on_c, 1, 56, 61
1, 19631, Note_on_c, 0, 65, 0
1, 19631, Note_on_c, 1, 56, 0
1, 19632, Note_on_c, 0, 67, 61
1, 19632, Note_on_c, 1, 58, 61
1, 19655, Note_on_c, 0, 67, 0
1, 19655, Note_on_c, 1, 58, 0
1, 19656, Note_on_c, 0, 65, 61
1, 19656, Note_on_c, 1, 56, 61
1, 19679, Note_on_c, 0, 65, 0
1, 19679, Note_on_c, 1, 56, 0
1, 19680, Note_on_c, 0, 68, 61
1, 19680, Note_on_c, 1, 60, 61
1, 19703, Note_on_c, 0, 68, 0
1, 19703, Note_on_c, 1, 60, 0
1, 19704, Note_on_c, 0, 67, 61
1, 19704, Note_on_c, 1, 58, 61
1, 19727, Note_on_c, 0, 67, 0
1, 19727, Note_on_c, 1, 58, 0
1, 19728, Note_on_c, 0, 70, 61
1, 19728, Note_on_c, 1, 61, 61
1, 19751, Note_on_c, 0, 70, 0
1, 19751, Note_on_c, 1, 61, 0
1, 19752, Note_on_c, 0, 69, 61
1, 19752, Note_on_c, 1, 60, 61
1, 19775, Note_on_c, 0, 69, 0
1, 19775, Note_on_c, 1, 60, 0
1, 19776, Note_on_c, 0, 70, 61
1, 19776, Note_on_c, 1, 61, 61
1, 19799, Note_on_c, 0, 70, 0
1, 19799, Note_on_c, 1, 61, 0
1, 19800, Note_on_c, 0, 67, 61
1, 19800, Note_on_c, 1, 58, 61
1, 19823, Note_on_c, 0, 67, 0
1, 19823, Note_on_c, 1, 58, 0
1, 19824, Note_on_c, 0, 65, 61
1, 19824, Note_on_c, 1, 56, 61
1, 19830, Note_on_c, 0, 65, 0
1, 19830, Note_on_c, 0, 67, 61
1, 19830, Note_on_c, 1, 56, 0
1, 19830, Note_on_c, 1, 58, 61
1, 19836, Note_on_c, 0, 67, 0
1, 19836, Note_on_c, 0, 65, 61
1, 19836, Note_on_c, 1, 58, 0
1, 19836, Note_on_c, 1, 56, 61
1, 19847, Note_on_c, 0, 65, 0
1, 19847, Note_on_c, 1, 56, 0
1, 19848, Note_on_c, 0, 64, 61
1, 19848, Note_on_c, 1, 55, 61
1, 19849, Note_on_c, 1, 53, 0
1, 19871, Note_on_c, 0, 64, 0
1, 19871, Note_on_c, 1, 55, 0
1, 19872, Note_on_c, 1, 53, 61
1, 19896, Note_on_c, 0, 68, 61
1, 19896, Note_on_c, 0, 65, 61
1, 19919, Note_on_c, 0, 68, 0
1, 19919, Note_on_c, 0, 65, 0
1, 19920, Note_on_c, 0, 70, 62
1, 19920, Note_on_c, 0, 67, 62
1, 19943, Note_on_c, 0, 70, 0
1, 19943, Note_on_c, 0, 67, 0
1, 19944, Note_on_c, 0, 68, 63
1, 19944, Note_on_c, 0, 65, 63
1, 19967, Note_on_c, 0, 68, 0
1, 19967, Note_on_c, 0, 65, 0
1, 19968, Note_on_c, 0, 72, 64
1, 19968, Note_on_c, 0, 68, 63
1, 19991, Note_on_c, 0, 72, 0
1, 19991, Note_on_c, 0, 68, 0
1, 19992, Note_on_c, 0, 70, 65
1, 19992, Note_on_c, 0, 67, 64
1, 20015, Note_on_c, 0, 70, 0
1, 20015, Note_on_c, 0, 67, 0
1, 20016, Note_on_c, 0, 73, 66
1, 20016, Note_on_c, 0, 70, 65
1, 20039, Note_on_c, 0, 73, 0
1, 20039, Note_on_c, 0, 70, 0
1, 20040, Note_on_c, 0, 72, 67
1, 20040, Note_on_c, 0, 68, 66
1, 20049, Note_on_c, 1, 53, 0
1, 20063, Note_on_c, 0, 72, 0
1, 20063, Note_on_c, 0, 68, 0
1, 20064, Note_on_c, 0, 73, 68
1, 20064, Note_on_c, 0, 70, 66
1, 20064, Note_on_c, 1, 51, 66
1, 20087, Note_on_c, 0, 73, 0
1, 20087, Note_on_c, 0, 70, 0
1, 20088, Note_on_c, 0, 70, 68
1, 20088, Note_on_c, 0, 61, 67
1, 20111, Note_on_c, 0, 70, 0
1, 20111, Note_on_c, 0, 61, 0
1, 20112, Note_on_c, 0, 68, 69
1, 20112, Note_on_c, 0, 60, 68
1, 20118, Note_on_c, 0, 68, 0
1, 20118, Note_on_c, 0, 70, 69
1, 20124, Note_on_c, 0, 70, 0
1, 20124, Note_on_c, 0, 68, 69
1, 20135, Note_on_c, 0, 68, 0
1, 20135, Note_on_c, 0, 60, 0
1, 20136, Note_on_c, 0, 67, 70
1, 20136, Note_on_c, 0, 58, 68
1, 20159, Note_on_c, 0, 67, 0
1, 20159, Note_on_c, 0, 58, 0
1, 20160, Note_on_c, 0, 68, 71
1, 20160, Note_on_c, 0, 60, 69
1, 20183, Note_on_c, 0, 68, 0
1, 20183, Note_on_c, 0, 60, 0
1, 20184, Note_on_c, 0, 72, 72
1, 20184, Note_on_c, 0, 56, 70
1, 20207, Note_on_c, 0, 72, 0
1, 20207, Note_on_c, 0, 56, 0
1, 20208, Note_on_c, 0, 73, 73
1, 20208, Note_on_c, 0, 58, 71
1, 20231, Note_on_c, 0, 73, 0
1, 20231, Note_on_c, 0, 58, 0
1, 20232, Note_on_c, 0, 72, 74
1, 20232, Note_on_c, 0, 56, 71
1, 20255, Note_on_c, 0, 72, 0
1, 20255, Note_on_c, 0, 56, 0
1, 20256, Note_on_c, 0, 75, 75
1, 20256, Note_on_c, 0, 60, 72
1, 20279, Note_on_c, 0, 75, 0
1, 20279, Note_on_c, 0, 60, 0
1, 20280, Note_on_c, 0, 73, 76
1, 20280, Note_on_c, 0, 58, 73
1, 20303, Note_on_c, 0, 73, 0
1, 20303, Note_on_c, 0, 58, 0
1, 20304, Note_on_c, 0, 77, 76
1, 20304, Note_on_c, 0, 61, 73
1, 20327, Note_on_c, 0, 77, 0
1, 20327, Note_on_c, 0, 61, 0
1, 20328, Note_on_c, 0, 76, 77
1, 20328, Note_on_c, 0, 60, 74
1, 20351, Note_on_c, 0, 76, 0
1, 20351, Note_on_c, 0, 60, 0
1, 20352, Note_on_c, 0, 77, 78
1, 20352, Note_on_c, 0, 61, 75
1, 20375, Note_on_c, 0, 77, 0
1, 20375, Note_on_c, 0, 61, 0
1, 20376, Note_on_c, 0, 73, 79
1, 20376, Note_on_c, 0, 58, 76
1, 20399, Note_on_c, 0, 73, 0
1, 20399, Note_on_c, 0, 58, 0
1, 20400, Note_on_c, 0, 72, 80
1, 20400, Note_on_c, 0, 56, 76
1, 20423, Note_on_c, 0, 72, 0
1, 20423, Note_on_c, 0, 56, 0
1, 20424, Note_on_c, 0, 70, 81
1, 20424, Note_on_c, 0, 55, 77
1, 20425, Note_on_c, 1, 51, 0
1, 20447, Note_on_c, 0, 70, 0
1, 20447, Note_on_c, 0, 55, 0
1, 20448, Note_on_c, 1, 60, 76
1, 20448, Note_on_c, 1, 56, 76
1, 20448, Note_on_c, 1, 51, 76
1, 20472, Note_on_c, 0, 72, 83
1, 20482, Note_on_c, 0, 72, 0
1, 20496, Note_on_c, 0, 75, 84
1, 20506, Note_on_c, 0, 75, 0
1, 20520, Note_on_c, 0, 80, 84
1, 20530, Note_on_c, 0, 80, 0
1, 20544, Note_on_c, 0, 84, 84
1, 20554, Note_on_c, 0, 84, 0
1, 20568, Note_on_c, 0, 80, 84
1, 20578, Note_on_c, 0, 80, 0
1, 20592, Note_on_c, 0, 75, 84
1, 20602, Note_on_c, 0, 75, 0
1, 20616, Note_on_c, 0, 80, 84
1, 20626, Note_on_c, 0, 80, 0
1, 20640, Note_on_c, 0, 72, 84
1, 20650, Note_on_c, 0, 72, 0
1, 20664, Note_on_c, 0, 75, 84
1, 20674, Note_on_c, 0, 75, 0
1, 20688, Note_on_c, 0, 68, 84
1, 20698, Note_on_c, 0, 68, 0
1, 20712, Note_on_c, 0, 72, 84
1, 20713, Note_on_c, 1, 60, 0
1, 20713, Note_on_c, 1, 56, 0
1, 20713, Note_on_c, 1, 51, 0
1, 20722, Note_on_c, 0, 72, 0
1, 20736, Note_on_c, 1, 59, 84
1, 20736, Note_on_c, 1, 56, 84
1, 20736, Note_on_c, 1, 51, 84
1, 20760, Note_on_c, 0, 71, 84
1, 20770, Note_on_c, 0, 71, 0
1, 20784, Note_on_c, 0, 75, 84
1, 20794, Note_on_c, 0, 75, 0
1, 20808, Note_on_c, 0, 80, 84
1, 20818, Note_on_c, 0, 80, 0
1, 20832, Note_on_c, 0, 83, 84
1, 20842, Note_on_c, 0, 83, 0
1, 20856, Note_on_c, 0, 80, 84
1, 20866, Note_on_c, 0, 80, 0
1, 20880, Note_on_c, 0, 75, 84
1, 20890, Note_on_c, 0, 75, 0
1, 20904, Note_on_c, 0, 80, 84
1, 20914, Note_on_c, 0, 80, 0
1, 20928, Note_on_c, 0, 71, 84
1, 20938, Note_on_c, 0, 71, 0
1, 20952, Note_on_c, 0, 75, 84
1, 20962, Note_on_c, 0, 75, 0
1, 20976, Note_on_c, 0, 68, 84
1, 20986, Note_on_c, 0, 68, 0
1, 21000, Note_on_c, 0, 71, 84
1, 21001, Note_on_c, 1, 59, 0
1, 21001, Note_on_c, 1, 56, 0
1, 21001, Note_on_c, 1, 51, 0
1, 21010, Note_on_c, 0, 71, 0
1, 21024, Note_on_c, 1, 59, 84
1, 21024, Note_on_c, 1, 56, 84
1, 21024, Note_on_c, 1, 52, 84
1, 21036, Note_on_c, 0, 71, 84
1, 21048, Note_on_c, 0, 71, 0
1, 21048, Note_on_c, 0, 73, 84
1, 21060, Note_on_c, 0, 73, 0
1, 21060, Note_on_c, 0, 75, 84
1, 21072, Note_on_c, 0, 75, 0
1, 21072, Note_on_c, 0, 76, 84
1, 21084, Note_on_c, 0, 76, 0
1, 21084, Note_on_c, 0, 78, 84
1, 21096, Note_on_c, 0, 78, 0
1, 21096, Note_on_c, 0, 80, 84
1, 21108, Note_on_c, 0, 80, 0
1, 21108, Note_on_c, 0, 81, 84
1, 21120, Note_on_c, 0, 81, 0
1, 21120, Note_on_c, 0, 83, 84
1, 21143, Note_on_c, 0, 83, 0
1, 21144, Note_on_c, 0, 80, 84
1, 21154, Note_on_c, 0, 80, 0
1, 21168, Note_on_c, 0, 76, 84
1, 21178, Note_on_c, 0, 76, 0
1, 21192, Note_on_c, 0, 80, 84
1, 21202, Note_on_c, 0, 80, 0
1, 21216, Note_on_c, 0, 71, 84
1, 21226, Note_on_c, 0, 71, 0
1, 21240, Note_on_c, 0, 76, 84
1, 21250, Note_on_c, 0, 76, 0
1, 21264, Note_on_c, 0, 68, 84
1, 21274, Note_on_c, 0, 68, 0
1, 21288, Note_on_c, 0, 71, 84
1, 21289, Note_on_c, 1, 59, 0
1, 21289, Note_on_c, 1, 56, 0
1, 21289, Note_on_c, 1, 52, 0
1, 21298, Note_on_c, 0, 71, 0
1, 21312, Note_on_c, 1, 59, 103
1, 21312, Note_on_c, 1, 56, 103
1, 21312, Note_on_c, 1, 53, 103
1, 21312, Note_on_c, 1, 50, 103
1, 21336, Note_on_c, 0, 71, 84
1, 21346, Note_on_c, 0, 71, 0
1, 21360, Note_on_c, 0, 77, 84
1, 21370, Note_on_c, 0, 77, 0
1, 21384, Note_on_c, 0, 80, 84
1, 21394, Note_on_c, 0, 80, 0
1, 21408, Note_on_c, 0, 83, 84
1, 21418, Note_on_c, 0, 83, 0
1, 21432, Note_on_c, 0, 80, 84
1, 21442, Note_on_c, 0, 80, 0
1, 21456, Note_on_c, 0, 77, 84
1, 21466, Note_on_c, 0, 77, 0
1, 21480, Note_on_c, 0, 80, 84
1, 21490, Note_on_c, 0, 80, 0
1, 21504, Note_on_c, 0, 74, 84
1, 21514, Note_on_c, 0, 74, 0
1, 21528, Note_on_c, 0, 71, 83
1, 21538, Note_on_c, 0, 71, 0
1, 21552, Note_on_c, 0, 70, 82
1, 21562, Note_on_c, 0, 70, 0
1, 21576, Note_on_c, 0, 68, 81
1, 21577, Note_on_c, 1, 59, 0
1, 21577, Note_on_c, 1, 56, 0
1, 21577, Note_on_c, 1, 53, 0
1, 21577, Note_on_c, 1, 50, 0
1, 21586, Note_on_c, 0, 68, 0
1, 21600, Note_on_c, 0, 68, 81
1, 21600, Note_on_c, 1, 58, 84
1, 21600, Note_on_c, 1, 51, 59
1, 21623, Note_on_c, 0, 68, 0
1, 21624, Note_on_c, 0, 67, 80
1, 21645, Note_on_c, 1, 58, 0
1, 21647, Note_on_c, 0, 67, 0
1, 21648, Note_on_c, 0, 70, 79
1, 21648, Note_on_c, 1, 56, 84
1, 21671, Note_on_c, 0, 70, 0
1, 21672, Note_on_c, 0, 62, 78
1, 21689, Note_on_c, 1, 51, 0
1, 21693, Note_on_c, 1, 56, 0
1, 21695, Note_on_c, 0, 62, 0
1, 21696, Note_on_c, 0, 63, 78
1, 21696, Note_on_c, 1, 55, 84
1, 21696, Note_on_c, 1, 51, 57
1, 21719, Note_on_c, 1, 55, 0
1, 21719, Note_on_c, 1, 51, 0
1, 21720, Note_on_c, 1, 51, 57
1, 21743, Note_on_c, 1, 51, 0
1, 21744, Note_on_c, 1, 53, 57
1, 21767, Note_on_c, 1, 53, 0
1, 21768, Note_on_c, 1, 49, 57
1, 21785, Note_on_c, 0, 63, 0
1, 21791, Note_on_c, 1, 49, 0
1, 21792, Note_on_c, 1, 48, 57
1, 21802, Note_on_c, 1, 48, 0
1, 21816, Note_on_c, 1, 48, 57
1, 21839, Note_on_c, 1, 48, 0
1, 21840, Note_on_c, 1, 49, 57
1, 21863, Note_on_c, 1, 49, 0
1, 21864, Note_on_c, 1, 46, 57
1, 21887, Note_on_c, 1, 46, 0
1, 21888, Note_on_c, 1, 44, 84
1, 21936, Note_on_c, 0, 75, 75
1, 21977, Note_on_c, 1, 44, 0
1, 21981, Note_on_c, 0, 75, 0
1, 21984, Note_on_c, 0, 77, 75
1, 22008, Note_on_c, 0, 77, 0
1, 22008, Note_on_c, 0, 75, 75
1, 22031, Note_on_c, 0, 75, 0
1, 22032, Note_on_c, 0, 73, 75
1, 22038, Note_on_c, 0, 73, 0
1, 22038, Note_on_c, 0, 75, 75
1, 22044, Note_on_c, 0, 75, 0
1, 22044, Note_on_c, 0, 73, 75
1, 22055, Note_on_c, 0, 73, 0
1, 22056, Note_on_c, 0, 72, 75
1, 22079, Note_on_c, 0, 72, 0
1, 22080, Note_on_c, 0, 82, 75
1, 22104, Note_on_c, 0, 82, 0
1, 22104, Note_on_c, 0, 80, 75
1, 22127, Note_on_c, 0, 80, 0
1, 22128, Note_on_c, 0, 79, 75
1, 22151, Note_on_c, 0, 79, 0
1, 22152, Note_on_c, 0, 77, 75
1, 22175, Note_on_c, 0, 77, 0
1, 22176, Note_on_c, 0, 77, 75
1, 22200, Note_on_c, 0, 77, 0
1, 22200, Note_on_c, 0, 75, 75
1, 22210, Note_on_c, 0, 75, 0
1, 22224, Note_on_c, 0, 75, 75
1, 22224, Note_on_c, 1, 56, 84
1, 22269, Note_on_c, 1, 56, 0
1, 22272, Note_on_c, 1, 60, 84
1, 22287, Note_on_c, 0, 75, 0
1, 22288, Note_on_c, 0, 77, 75
1, 22303, Note_on_c, 0, 77, 0
1, 22304, Note_on_c, 0, 79, 75
1, 22317, Note_on_c, 1, 60, 0
1, 22319, Note_on_c, 0, 79, 0
1, 22320, Note_on_c, 0, 80, 75
1, 22320, Note_on_c, 1, 56, 84
1, 22335, Note_on_c, 0, 80, 0
1, 22336, Note_on_c, 0, 82, 75
1, 22351, Note_on_c, 0, 82, 0
1, 22352, Note_on_c, 0, 84, 75
1, 22365, Note_on_c, 1, 56, 0
1, 22367, Note_on_c, 0, 84, 0
1, 22368, Note_on_c, 0, 75, 75
1, 22368, Note_on_c, 1, 58, 84
1, 22413, Note_on_c, 0, 75, 0
1, 22413, Note_on_c, 1, 58, 0
1, 22416, Note_on_c, 0, 73, 75
1, 22416, Note_on_c, 1, 51, 84
1, 22423, Note_on_c, 0, 73, 0
1, 22423, Note_on_c, 0, 75, 75
1, 22430, Note_on_c, 0, 75, 0
1, 22430, Note_on_c, 0, 73, 75
1, 22437, Note_on_c, 0, 73, 0
1, 22437, Note_on_c, 0, 75, 75
1, 22444, Note_on_c, 0, 75, 0
1, 22444, Note_on_c, 0, 73, 75
1, 22451, Note_on_c, 0, 73, 0
1, 22451, Note_on_c, 0, 72, 75
1, 22458, Note_on_c, 0, 72, 0
1, 22458, Note_on_c, 0, 73, 75
1, 22461, Note_on_c, 1, 51, 0
1, 22464, Note_on_c, 0, 73, 0
1, 22464, Note_on_c, 0, 73, 91
1, 22512, Note_on_c, 1, 56, 84
1, 22557, Note_on_c, 1, 56, 0
1, 22560, Note_on_c, 1, 56, 84
1, 22583, Note_on_c, 0, 73, 0
1, 22584, Note_on_c, 0, 72, 75
1, 22605, Note_on_c, 1, 56, 0
1, 22607, Note_on_c, 0, 72, 0
1, 22608, Note_on_c, 0, 75, 75
1, 22608, Note_on_c, 1, 60, 84
1, 22642, Note_on_c, 0, 75, 0
1, 22644, Note_on_c, 0, 68, 75
1, 22653, Note_on_c, 1, 60, 0
1, 22656, Note_on_c, 0, 68, 0
1, 22656, Note_on_c, 0, 72, 75
1, 22656, Note_on_c, 1, 61, 84
1, 22679, Note_on_c, 0, 72, 0
1, 22680, Note_on_c, 0, 70, 75
1, 22701, Note_on_c, 1, 61, 0
1, 22703, Note_on_c, 0, 70, 0
1, 22704, Note_on_c, 0, 68, 75
1, 22704, Note_on_c, 1, 63, 84
1, 22710, Note_on_c, 0, 68, 0
1, 22710, Note_on_c, 0, 70, 75
1, 22716, Note_on_c, 0, 70, 0
1, 22716, Note_on_c, 0, 68, 75
1, 22727, Note_on_c, 0, 68, 0
1, 22728, Note_on_c, 0, 67, 75
1, 22749, Note_on_c, 1, 63, 0
1, 22751, Note_on_c, 0, 67, 0
1, 22752, Note_on_c, 0, 68, 75
1, 22776, Note_on_c, 1, 56, 84
1, 22797, Note_on_c, 0, 68, 0
1, 22799, Note_on_c, 1, 56, 0
1, 22800, Note_on_c, 0, 63, 75
1, 22800, Note_on_c, 1, 60, 84
1, 22823, Note_on_c, 1, 60, 0
1, 22824, Note_on_c, 1, 56, 84
1, 22845, Note_on_c, 0, 63, 0
1, 22847, Note_on_c, 1, 56, 0
1, 22848, Note_on_c, 1, 51, 84
1, 22871, Note_on_c, 1, 51, 0
1, 22872, Note_on_c, 1, 56, 84
1, 22895, Note_on_c, 1, 56, 0
1, 22896, Note_on_c, 1, 48, 84
1, 22919, Note_on_c, 1, 48, 0
1, 22920, Note_on_c, 1, 51, 84
1, 22943, Note_on_c, 1, 51, 0
1, 22944, Note_on_c, 1, 56, 84
1, 22967, Note_on_c, 1, 56, 0
1, 22968, Note_on_c, 1, 60, 84
1, 22991, Note_on_c, 1, 60, 0
1, 22992, Note_on_c, 1, 63, 84
1, 23015, Note_on_c, 1, 63, 0
1, 23016, Note_on_c, 1, 68, 84
1, 23039, Note_on_c, 1, 68, 0
1, 23040, Note_on_c, 1, 61, 84
1, 23064, Note_on_c, 0, 76, 75
1, 23087, Note_on_c, 0, 76, 0
1, 23088, Note_on_c, 0, 77, 75
1, 23111, Note_on_c, 0, 77, 0
1, 23112, Note_on_c, 0, 80, 75
1, 23129, Note_on_c, 1, 61, 0
1, 23135, Note_on_c, 0, 80, 0
1, 23136, Note_on_c, 0, 77, 75
1, 23136, Note_on_c, 1, 60, 84
1, 23159, Note_on_c, 0, 77, 0
1, 23160, Note_on_c, 0, 75, 75
1, 23181, Note_on_c, 1, 60, 0
1, 23183, Note_on_c, 0, 75, 0
1, 23184, Note_on_c, 0, 84, 75
1, 23184, Note_on_c, 1, 56, 84
1, 23207, Note_on_c, 0, 84, 0
1, 23208, Note_on_c, 0, 80, 75
1, 23229, Note_on_c, 1, 56, 0
1, 23231, Note_on_c, 0, 80, 0
1, 23232, Note_on_c, 0, 75, 75
1, 23232, Note_on_c, 1, 58, 84
1, 23277, Note_on_c, 0, 75, 0
1, 23277, Note_on_c, 1, 58, 0
1, 23280, Note_on_c, 0, 73, 75
1, 23280, Note_on_c, 1, 51, 84
1, 23287, Note_on_c, 0, 73, 0
1, 23287, Note_on_c, 0, 75, 75
1, 23294, Note_on_c, 0, 75, 0
1, 23294, Note_on_c, 0, 73, 75
1, 23301, Note_on_c, 0, 73, 0
1, 23301, Note_on_c, 0, 75, 75
1, 23308, Note_on_c, 0, 75, 0
1, 23308, Note_on_c, 0, 73, 75
1, 23315, Note_on_c, 0, 73, 0
1, 23315, Note_on_c, 0, 72, 75
1, 23322, Note_on_c, 0, 72, 0
1, 23322, Note_on_c, 0, 73, 75
1, 23325, Note_on_c, 1, 51, 0
1, 23328, Note_on_c, 0, 73, 0
1, 23328, Note_on_c, 0, 73, 75
1, 23352, Note_on_c, 1, 56, 84
1, 23375, Note_on_c, 1, 56, 0
1, 23376, Note_on_c, 0, 73, 0
1, 23376, Note_on_c, 0, 72, 75
1, 23376, Note_on_c, 1, 60, 84
1, 23399, Note_on_c, 1, 60, 0
1, 23400, Note_on_c, 1, 56, 84
1, 23421, Note_on_c, 0, 72, 0
1, 23423, Note_on_c, 1, 56, 0
1, 23424, Note_on_c, 1, 51, 84
1, 23447, Note_on_c, 1, 51, 0
1, 23448, Note_on_c, 1, 56, 84
1, 23471, Note_on_c, 1, 56, 0
1, 23472, Note_on_c, 1, 48, 84
1, 23484, Note_on_c, 1, 48, 0
1, 23484, Note_on_c, 1, 51, 84
1, 23496, Note_on_c, 1, 51, 0
1, 23496, Note_on_c, 1, 53, 84
1, 23508, Note_on_c, 1, 53, 0
1, 23508, Note_on_c, 1, 55, 84
1, 23520, Note_on_c, 1, 55, 0
1, 23520, Note_on_c, 1, 56, 84
1, 23532, Note_on_c, 1, 56, 0
1, 23532, Note_on_c, 1, 58, 84
1, 23544, Note_on_c, 1, 58, 0
1, 23544, Note_on_c, 1, 60, 84
1, 23556, Note_on_c, 1, 60, 0
1, 23556, Note_on_c, 1, 61, 84
1, 23568, Note_on_c, 1, 61, 0
1, 23568, Note_on_c, 1, 63, 84
1, 23580, Note_on_c, 1, 63, 0
1, 23580, Note_on_c, 1, 65, 84
1, 23592, Note_on_c, 1, 65, 0
1, 23592, Note_on_c, 1, 67, 84
1, 23604, Note_on_c, 1, 67, 0
1, 23604, Note_on_c, 1, 68, 84
1, 23604, Note_on_c, 1, 68, 57
1, 23616, Note_on_c, 1, 68, 0
1, 23616, Note_on_c, 1, 61, 84
1, 23640, Note_on_c, 0, 76, 75
1, 23663, Note_on_c, 0, 76, 0
1, 23664, Note_on_c, 0, 77, 75
1, 23687, Note_on_c, 0, 77, 0
1, 23688, Note_on_c, 0, 80, 75
1, 23705, Note_on_c, 1, 61, 0
1, 23711, Note_on_c, 0, 80, 0
1, 23712, Note_on_c, 1, 60, 84
1, 23736, Note_on_c, 0, 74, 75
1, 23759, Note_on_c, 0, 74, 0
1, 23760, Note_on_c, 0, 75, 75
1, 23783, Note_on_c, 0, 75, 0
1, 23784, Note_on_c, 0, 80, 75
1, 23801, Note_on_c, 1, 60, 0
1, 23807, Note_on_c, 0, 80, 0
1, 23808, Note_on_c, 0, 75, 75
1, 23808, Note_on_c, 1, 58, 84
1, 23831, Note_on_c, 0, 75, 0
1, 23832, Note_on_c, 0, 73, 75
1, 23853, Note_on_c, 1, 68, 0
1, 23855, Note_on_c, 0, 73, 0
1, 23856, Note_on_c, 0, 82, 75
1, 23856, Note_on_c, 1, 67, 57
1, 23879, Note_on_c, 0, 82, 0
1, 23880, Note_on_c, 0, 73, 75
1, 23897, Note_on_c, 1, 58, 0
1, 23901, Note_on_c, 1, 67, 0
1, 23903, Note_on_c, 0, 73, 0
1, 23904, Note_on_c, 1, 56, 84
1, 23904, Note_on_c, 1, 68, 57
1, 23928, Note_on_c, 0, 72, 75
1, 23951, Note_on_c, 0, 72, 0
1, 23952, Note_on_c, 0, 75, 75
1, 23975, Note_on_c, 0, 75, 0
1, 23976, Note_on_c, 0, 72, 76
1, 23993, Note_on_c, 1, 56, 0
1, 23993, Note_on_c, 1, 68, 0
1, 23999, Note_on_c, 0, 72, 0
1, 24000, Note_on_c, 0, 69, 77
1, 24000, Note_on_c, 1, 61, 75
1, 24023, Note_on_c, 0, 69, 0
1, 24024, Note_on_c, 0, 70, 78
1, 24047, Note_on_c, 0, 70, 0
1, 24048, Note_on_c, 0, 73, 79
1, 24071, Note_on_c, 0, 73, 0
1, 24072, Note_on_c, 0, 77, 79
1, 24089, Note_on_c, 1, 61, 0
1, 24095, Note_on_c, 0, 77, 0
1, 24096, Note_on_c, 0, 75, 80
1, 24096, Note_on_c, 1, 49, 76
1, 24119, Note_on_c, 0, 75, 0
1, 24120, Note_on_c, 0, 73, 81
1, 24141, Note_on_c, 1, 49, 0
1, 24143, Note_on_c, 0, 73, 0
1, 24144, Note_on_c, 0, 72, 82
1, 24144, Note_on_c, 1, 50, 77
1, 24167, Note_on_c, 0, 72, 0
1, 24168, Note_on_c, 0, 70, 83
1, 24189, Note_on_c, 1, 50, 0
1, 24191, Note_on_c, 0, 70, 0
1, 24192, Note_on_c, 0, 68, 84
1, 24216, Note_on_c, 1, 51, 75
1, 24239, Note_on_c, 1, 51, 0
1, 24240, Note_on_c, 1, 53, 75
1, 24263, Note_on_c, 1, 53, 0
1, 24264, Note_on_c, 1, 50, 76
1, 24287, Note_on_c, 1, 50, 0
1, 24288, Note_on_c, 0, 68, 0
1, 24288, Note_on_c, 0, 67, 76
1, 24288, Note_on_c, 1, 51, 77
1, 24294, Note_on_c, 0, 67, 0
1, 24294, Note_on_c, 0, 68, 76
1, 24300, Note_on_c, 0, 68, 0
1, 24300, Note_on_c, 0, 67, 76
1, 24311, Note_on_c, 1, 51, 0
1, 24312, Note_on_c, 1, 53, 78
1, 24335, Note_on_c, 1, 53, 0
1, 24336, Note_on_c, 1, 55, 79
1, 24359, Note_on_c, 1, 55, 0
1, 24360, Note_on_c, 1, 56, 79
1, 24379, Note_on_c, 0, 67, 0
1, 24383, Note_on_c, 1, 56, 0
1, 24384, Note_on_c, 1, 58, 80
1, 24407, Note_on_c, 1, 58, 0
1, 24408, Note_on_c, 1, 60, 81
1, 24431, Note_on_c, 1, 60, 0
1, 24432, Note_on_c, 1, 61, 82
1, 24455, Note_on_c, 1, 61, 0
1, 24456, Note_on_c, 1, 63, 83
1, 24479, Note_on_c, 1, 63, 0
1, 24480, Note_on_c, 1, 61, 84
1, 24504, Note_on_c, 0, 68, 75
1, 24527, Note_on_c, 0, 68, 0
1, 24528, Note_on_c, 0, 70, 75
1, 24551, Note_on_c, 0, 70, 0
1, 24552, Note_on_c, 0, 67, 76
1, 24575, Note_on_c, 0, 67, 0
1, 24576, Note_on_c, 0, 68, 77
1, 24576, Note_on_c, 1, 61, 0
1, 24576, Note_on_c, 1, 60, 76
1, 24582, Note_on_c, 1, 60, 0
1, 24582, Note_on_c, 1, 61, 76
1, 24588, Note_on_c, 1, 61, 0
1, 24588, Note_on_c, 1, 60, 76
1, 24599, Note_on_c, 0, 68, 0
1, 24600, Note_on_c, 0, 70, 78
1, 24623, Note_on_c, 0, 70, 0
1, 24624, Note_on_c, 0, 72, 79
1, 24647, Note_on_c, 0, 72, 0
1, 24648, Note_on_c, 0, 73, 79
1, 24667, Note_on_c, 1, 60, 0
1, 24671, Note_on_c, 0, 73, 0
1, 24672, Note_on_c, 0, 75, 80
1, 24696, Note_on_c, 0, 75, 0
1, 24696, Note_on_c, 0, 77, 81
1, 24719, Note_on_c, 0, 77, 0
1, 24720, Note_on_c, 0, 73, 82
1, 24743, Note_on_c, 0, 73, 0
1, 24744, Note_on_c, 0, 70, 83
1, 24767, Note_on_c, 0, 70, 0
1, 24768, Note_on_c, 0, 68, 84
1, 24792, Note_on_c, 1, 51, 75
1, 24815, Note_on_c, 1, 51, 0
1, 24816, Note_on_c, 1, 53, 75
1, 24839, Note_on_c, 1, 53, 0
1, 24840, Note_on_c, 1, 50, 76
1, 24863, Note_on_c, 1, 50, 0
1, 24864, Note_on_c, 0, 68, 0
1, 24864, Note_on_c, 0, 67, 76
1, 24864, Note_on_c, 1, 51, 77
1, 24870, Note_on_c, 0, 67, 0
1, 24870, Note_on_c, 0, 68, 76
1, 24876, Note_on_c, 0, 68, 0
1, 24876, Note_on_c, 0, 67, 76
1, 24887, Note_on_c, 1, 51, 0
1, 24888, Note_on_c, 1, 53, 78
1, 24911, Note_on_c, 1, 53, 0
1, 24912, Note_on_c, 1, 55, 79
1, 24935, Note_on_c, 1, 55, 0
1, 24936, Note_on_c, 1, 56, 79
1, 24955, Note_on_c, 0, 67, 0
1, 24959, Note_on_c, 1, 56, 0
1, 24960, Note_on_c, 1, 58, 80
1, 24983, Note_on_c, 1, 58, 0
1, 24984, Note_on_c, 1, 60, 81
1, 25007, Note_on_c, 1, 60, 0
1, 25008, Note_on_c, 1, 61, 82
1, 25031, Note_on_c, 1, 61, 0
1, 25032, Note_on_c, 1, 63, 83
1, 25055, Note_on_c, 1, 63, 0
1, 25056, Note_on_c, 1, 61, 84
1, 25080, Note_on_c, 0, 68, 75
1, 25103, Note_on_c, 0, 68, 0
1, 25104, Note_on_c, 0, 70, 75
1, 25127, Note_on_c, 0, 70, 0
1, 25128, Note_on_c, 0, 67, 76
1, 25151, Note_on_c, 0, 67, 0
1, 25152, Note_on_c, 0, 68, 77
1, 25152, Note_on_c, 1, 61, 0
1, 25152, Note_on_c, 1, 60, 76
1, 25158, Note_on_c, 1, 60, 0
1, 25158, Note_on_c, 1, 61, 76
1, 25164, Note_on_c, 1, 61, 0
1, 25164, Note_on_c, 1, 60, 76
1, 25175, Note_on_c, 0, 68, 0
1, 25176, Note_on_c, 0, 70, 78
1, 25199, Note_on_c, 0, 70, 0
1, 25200, Note_on_c, 0, 72, 79
1, 25223, Note_on_c, 0, 72, 0
1, 25224, Note_on_c, 0, 73, 79
1, 25243, Note_on_c, 1, 60, 0
1, 25247, Note_on_c, 0, 73, 0
1, 25248, Note_on_c, 0, 75, 80
1, 25271, Note_on_c, 0, 75, 0
1, 25272, Note_on_c, 0, 77, 81
1, 25295, Note_on_c, 0, 77, 0
1, 25296, Note_on_c, 0, 78, 82
1, 25319, Note_on_c, 0, 78, 0
1, 25320, Note_on_c, 0, 80, 83
1, 25343, Note_on_c, 0, 80, 0
1, 25344, Note_on_c, 0, 78, 84
1, 25344, Note_on_c, 0, 75, 84
1, 25368, Note_on_c, 1, 49, 75
1, 25391, Note_on_c, 1, 49, 0
1, 25392, Note_on_c, 1, 51, 75
1, 25415, Note_on_c, 1, 51, 0
1, 25416, Note_on_c, 1, 48, 76
1, 25433, Note_on_c, 0, 78, 0
1, 25433, Note_on_c, 0, 75, 0
1, 25439, Note_on_c, 1, 48, 0
1, 25440, Note_on_c, 0, 77, 103
1, 25440, Note_on_c, 0, 73, 103
1, 25440, Note_on_c, 1, 49, 77
1, 25463, Note_on_c, 1, 49, 0
1, 25464, Note_on_c, 1, 51, 78
1, 25487, Note_on_c, 1, 51, 0
1, 25488, Note_on_c, 1, 53, 79
1, 25511, Note_on_c, 1, 53, 0
1, 25512, Note_on_c, 1, 54, 79
1, 25535, Note_on_c, 1, 54, 0
1, 25536, Note_on_c, 1, 56, 80
1, 25559, Note_on_c, 1, 56, 0
1, 25560, Note_on_c, 1, 58, 81
1, 25583, Note_on_c, 1, 58, 0
1, 25584, Note_on_c, 1, 60, 82
1, 25607, Note_on_c, 1, 60, 0
1, 25608, Note_on_c, 1, 61, 83
1, 25631, Note_on_c, 1, 61, 0
1, 25632, Note_on_c, 0, 77, 0
1, 25632, Note_on_c, 0, 75, 84
1, 25656, Note_on_c, 1, 56, 75
1, 25679, Note_on_c, 1, 56, 0
1, 25680, Note_on_c, 1, 58, 75
1, 25703, Note_on_c, 1, 58, 0
1, 25704, Note_on_c, 1, 55, 76
1, 25721, Note_on_c, 0, 75, 0
1, 25721, Note_on_c, 0, 73, 0
1, 25727, Note_on_c, 1, 55, 0
1, 25728, Note_on_c, 0, 75, 103
1, 25728, Note_on_c, 0, 72, 103
1, 25728, Note_on_c, 1, 56, 77
1, 25751, Note_on_c, 1, 56, 0
1, 25752, Note_on_c, 1, 58, 78
1, 25775, Note_on_c, 1, 58, 0
1, 25776, Note_on_c, 1, 60, 79
1, 25799, Note_on_c, 1, 60, 0
1, 25800, Note_on_c, 1, 61, 79
1, 25823, Note_on_c, 1, 61, 0
1, 25824, Note_on_c, 1, 63, 80
1, 25847, Note_on_c, 1, 63, 0
1, 25848, Note_on_c, 1, 65, 81
1, 25871, Note_on_c, 1, 65, 0
1, 25872, Note_on_c, 1, 67, 82
1, 25895, Note_on_c, 1, 67, 0
1, 25896, Note_on_c, 1, 68, 83
1, 25919, Note_on_c, 1, 68, 0
1, 25920, Note_on_c, 0, 75, 0
1, 25920, Note_on_c, 0, 73, 84
1, 25944, Note_on_c, 1, 65, 84
1, 25967, Note_on_c, 1, 65, 0
1, 25968, Note_on_c, 1, 63, 84
1, 25974, Note_on_c, 1, 63, 0
1, 25974, Note_on_c, 1, 65, 84
1, 25980, Note_on_c, 1, 65, 0
1, 25980, Note_on_c, 1, 63, 84
1, 25991, Note_on_c, 1, 63, 0
1, 25992, Note_on_c, 1, 61, 84
1, 26009, Note_on_c, 0, 73, 0
1, 26009, Note_on_c, 0, 72, 0
1, 26015, Note_on_c, 1, 61, 0
1, 26016, Note_on_c, 0, 73, 103
1, 26016, Note_on_c, 0, 70, 103
1, 26040, Note_on_c, 1, 67, 84
1, 26063, Note_on_c, 1, 67, 0
1, 26064, Note_on_c, 1, 65, 84
1, 26070, Note_on_c, 1, 65, 0
1, 26070, Note_on_c, 1, 67, 84
1, 26076, Note_on_c, 1, 67, 0
1, 26076, Note_on_c, 1, 65, 84
1, 26087, Note_on_c, 1, 65, 0
1, 26088, Note_on_c, 1, 63, 84
1, 26111, Note_on_c, 1, 63, 0
1, 26112, Note_on_c, 0, 73, 0
1, 26112, Note_on_c, 0, 72, 84
1, 26136, Note_on_c, 1, 68, 84
1, 26159, Note_on_c, 1, 68, 0
1, 26160, Note_on_c, 0, 70, 0
1, 26160, Note_on_c, 0, 68, 84
1, 26160, Note_on_c, 1, 65, 84
1, 26166, Note_on_c, 1, 65, 0
1, 26166, Note_on_c, 1, 67, 84
1, 26172, Note_on_c, 1, 67, 0
1, 26172, Note_on_c, 1, 65, 84
1, 26183, Note_on_c, 1, 65, 0
1, 26184, Note_on_c, 1, 62, 84
1, 26205, Note_on_c, 0, 72, 0
1, 26205, Note_on_c, 0, 68, 0
1, 26207, Note_on_c, 1, 62, 0
1, 26208, Note_on_c, 0, 70, 84
1, 26208, Note_on_c, 0, 68, 84
1, 26232, Note_on_c, 1, 51, 75
1, 26255, Note_on_c, 1, 51, 0
1, 26256, Note_on_c, 1, 53, 75
1, 26279, Note_on_c, 1, 53, 0
1, 26280, Note_on_c, 1, 50, 76
1, 26303, Note_on_c, 1, 50, 0
1, 26304, Note_on_c, 0, 68, 0
1, 26304, Note_on_c, 0, 67, 79
1, 26304, Note_on_c, 1, 51, 77
1, 26310, Note_on_c, 1, 51, 0
1, 26310, Note_on_c, 1, 53, 77
1, 26316, Note_on_c, 1, 53, 0
1, 26316, Note_on_c, 1, 51, 77
1, 26327, Note_on_c, 1, 51, 0
1, 26328, Note_on_c, 1, 53, 78
1, 26351, Note_on_c, 1, 53, 0
1, 26352, Note_on_c, 1, 55, 79
1, 26375, Note_on_c, 1, 55, 0
1, 26376, Note_on_c, 1, 56, 79
1, 26393, Note_on_c, 0, 70, 0
1, 26393, Note_on_c, 0, 67, 0
1, 26399, Note_on_c, 1, 56, 0
1, 26400, Note_on_c, 1, 58, 80
1, 26423, Note_on_c, 1, 58, 0
1, 26424, Note_on_c, 1, 60, 81
1, 26447, Note_on_c, 1, 60, 0
1, 26448, Note_on_c, 1, 61, 82
1, 26471, Note_on_c, 1, 61, 0
1, 26472, Note_on_c, 1, 63, 83
1, 26495, Note_on_c, 1, 63, 0
1, 26496, Note_on_c, 1, 61, 84
1, 26520, Note_on_c, 0, 68, 75
1, 26543, Note_on_c, 0, 68, 0
1, 26544, Note_on_c, 0, 70, 76
1, 26567, Note_on_c, 0, 70, 0
1, 26568, Note_on_c, 0, 67, 77
1, 26591, Note_on_c, 0, 67, 0
1, 26592, Note_on_c, 0, 68, 78
1, 26592, Note_on_c, 1, 61, 0
1, 26592, Note_on_c, 1, 60, 76
1, 26598, Note_on_c, 1, 60, 0
1, 26598, Note_on_c, 1, 61, 76
1, 26604, Note_on_c, 1, 61, 0
1, 26604, Note_on_c, 1, 60, 76
1, 26615, Note_on_c, 0, 68, 0
1, 26616, Note_on_c, 0, 70, 80
1, 26639, Note_on_c, 0, 70, 0
1, 26640, Note_on_c, 0, 72, 81
1, 26663, Note_on_c, 0, 72, 0
1, 26664, Note_on_c, 0, 73, 82
1, 26687, Note_on_c, 0, 73, 0
1, 26688, Note_on_c, 0, 75, 75
1, 26712, Note_on_c, 0, 66, 84
1, 26733, Note_on_c, 1, 60, 0
1, 26735, Note_on_c, 0, 66, 0
1, 26736, Note_on_c, 0, 68, 82
1, 26736, Note_on_c, 1, 58, 75
1, 26759, Note_on_c, 0, 68, 0
1, 26760, Note_on_c, 0, 66, 81
1, 26781, Note_on_c, 1, 58, 0
1, 26783, Note_on_c, 0, 66, 0
1, 26784, Note_on_c, 0, 65, 80
1, 26808, Note_on_c, 1, 57, 75
1, 26831, Note_on_c, 1, 57, 0
1, 26832, Note_on_c, 1, 60, 76
1, 26855, Note_on_c, 1, 60, 0
1, 26856, Note_on_c, 1, 57, 78
1, 26873, Note_on_c, 0, 75, 0
1, 26873, Note_on_c, 0, 65, 0
1, 26879, Note_on_c, 1, 57, 0
1, 26880, Note_on_c, 0, 73, 94
1, 26880, Note_on_c, 0, 65, 75
1, 26880, Note_on_c, 1, 58, 80
1, 26903, Note_on_c, 1, 58, 0
1, 26904, Note_on_c, 1, 60, 82
1, 26927, Note_on_c, 1, 60, 0
1, 26928, Note_on_c, 1, 61, 84
1, 26951, Note_on_c, 1, 61, 0
1, 26952, Note_on_c, 1, 60, 82
1, 26975, Note_on_c, 1, 60, 0
1, 26976, Note_on_c, 1, 58, 81
1, 26999, Note_on_c, 1, 58, 0
1, 27000, Note_on_c, 1, 56, 79
1, 27023, Note_on_c, 1, 56, 0
1, 27024, Note_on_c, 1, 55, 78
1, 27030, Note_on_c, 1, 55, 0
1, 27030, Note_on_c, 1, 56, 78
1, 27036, Note_on_c, 1, 56, 0
1, 27036, Note_on_c, 1, 55, 78
1, 27047, Note_on_c, 1, 55, 0
1, 27048, Note_on_c, 1, 53, 76
1, 27057, Note_on_c, 0, 65, 0
1, 27071, Note_on_c, 1, 53, 0
1, 27072, Note_on_c, 0, 63, 75
1, 27096, Note_on_c, 1, 55, 75
1, 27119, Note_on_c, 1, 55, 0
1, 27120, Note_on_c, 1, 58, 76
1, 27143, Note_on_c, 1, 58, 0
1, 27144, Note_on_c, 1, 55, 78
1, 27161, Note_on_c, 0, 73, 0
1, 27161, Note_on_c, 0, 63, 0
1, 27167, Note_on_c, 1, 55, 0
1, 27168, Note_on_c, 0, 72, 94
1, 27168, Note_on_c, 0, 63, 75
1, 27168, Note_on_c, 1, 56, 80
1, 27191, Note_on_c, 1, 56, 0
1, 27192, Note_on_c, 1, 58, 82
1, 27215, Note_on_c, 1, 58, 0
1, 27216, Note_on_c, 1, 60, 84
1, 27239, Note_on_c, 1, 60, 0
1, 27240, Note_on_c, 1, 58, 82
1, 27263, Note_on_c, 1, 58, 0
1, 27264, Note_on_c, 1, 56, 81
1, 27270, Note_on_c, 1, 56, 0
1, 27270, Note_on_c, 1, 58, 81
1, 27276, Note_on_c, 1, 58, 0
1, 27276, Note_on_c, 1, 56, 81
1, 27287, Note_on_c, 1, 56, 0
1, 27288, Note_on_c, 1, 55, 79
1, 27311, Note_on_c, 1, 55, 0
1, 27312, Note_on_c, 1, 53, 78
1, 27318, Note_on_c, 1, 53, 0
1, 27318, Note_on_c, 1, 55, 78
1, 27324, Note_on_c, 1, 55, 0
1, 27324, Note_on_c, 1, 53, 78
1, 27335, Note_on_c, 1, 53, 0
1, 27336, Note_on_c, 1, 51, 76
1, 27345, Note_on_c, 0, 72, 0
1, 27345, Note_on_c, 0, 63, 0
1, 27359, Note_on_c, 1, 51, 0
1, 27360, Note_on_c, 1, 49, 57
1, 27384, Note_on_c, 0, 64, 75
1, 27408, Note_on_c, 0, 64, 0
1, 27408, Note_on_c, 0, 65, 76
1, 27418, Note_on_c, 0, 65, 0
1, 27432, Note_on_c, 0, 69, 78
1, 27456, Note_on_c, 0, 69, 0
1, 27456, Note_on_c, 0, 70, 80
1, 27456, Note_on_c, 1, 53, 75
1, 27466, Note_on_c, 0, 70, 0
1, 27480, Note_on_c, 0, 76, 82
1, 27504, Note_on_c, 0, 76, 0
1, 27504, Note_on_c, 0, 77, 84
1, 27527, Note_on_c, 0, 77, 0
1, 27528, Note_on_c, 0, 72, 82
1, 27545, Note_on_c, 1, 53, 0
1, 27552, Note_on_c, 0, 72, 0
1, 27552, Note_on_c, 0, 73, 81
1, 27552, Note_on_c, 1, 58, 75
1, 27575, Note_on_c, 0, 73, 0
1, 27576, Note_on_c, 0, 69, 79
1, 27600, Note_on_c, 0, 69, 0
1, 27600, Note_on_c, 0, 70, 78
1, 27623, Note_on_c, 0, 70, 0
1, 27624, Note_on_c, 0, 65, 76
1, 27625, Note_on_c, 1, 49, 0
1, 27641, Note_on_c, 1, 58, 0
1, 27647, Note_on_c, 0, 65, 0
1, 27648, Note_on_c, 1, 48, 57
1, 27672, Note_on_c, 0, 62, 75
1, 27696, Note_on_c, 0, 62, 0
1, 27696, Note_on_c, 0, 63, 76
1, 27706, Note_on_c, 0, 63, 0
1, 27720, Note_on_c, 0, 67, 78
1, 27744, Note_on_c, 0, 67, 0
1, 27744, Note_on_c, 0, 68, 80
1, 27744, Note_on_c, 1, 51, 75
1, 27754, Note_on_c, 0, 68, 0
1, 27768, Note_on_c, 0, 74, 82
1, 27792, Note_on_c, 0, 74, 0
1, 27792, Note_on_c, 0, 75, 84
1, 27802, Note_on_c, 0, 75, 0
1, 27816, Note_on_c, 0, 83, 82
1, 27833, Note_on_c, 1, 51, 0
1, 27840, Note_on_c, 0, 83, 0
1, 27840, Note_on_c, 0, 84, 81
1, 27840, Note_on_c, 1, 56, 75
1, 27863, Note_on_c, 0, 84, 0
1, 27864, Note_on_c, 0, 79, 79
1, 27888, Note_on_c, 0, 79, 0
1, 27888, Note_on_c, 0, 80, 78
1, 27911, Note_on_c, 0, 80, 0
1, 27912, Note_on_c, 0, 75, 76
1, 27913, Note_on_c, 1, 48, 0
1, 27935, Note_on_c, 0, 75, 0
1, 27936, Note_on_c, 0, 76, 75
1, 27936, Note_on_c, 1, 49, 57
1, 27959, Note_on_c, 0, 76, 0
1, 27960, Note_on_c, 0, 77, 75
1, 27983, Note_on_c, 0, 77, 0
1, 27984, Note_on_c, 0, 73, 75
1, 28007, Note_on_c, 0, 73, 0
1, 28008, Note_on_c, 0, 70, 75
1, 28025, Note_on_c, 1, 49, 0
1, 28031, Note_on_c, 0, 70, 0
1, 28032, Note_on_c, 0, 73, 75
1, 28032, Note_on_c, 1, 51, 57
1, 28055, Note_on_c, 0, 73, 0
1, 28056, Note_on_c, 0, 72, 75
1, 28079, Note_on_c, 0, 72, 0
1, 28080, Note_on_c, 0, 75, 75
1, 28103, Note_on_c, 0, 75, 0
1, 28104, Note_on_c, 0, 68, 75
1, 28113, Note_on_c, 1, 56, 0
1, 28127, Note_on_c, 0, 68, 0
1, 28128, Note_on_c, 0, 72, 75
1, 28128, Note_on_c, 1, 55, 75
1, 28151, Note_on_c, 0, 72, 0
1, 28152, Note_on_c, 0, 70, 71
1, 28173, Note_on_c, 1, 55, 0
1, 28175, Note_on_c, 0, 70, 0
1, 28176, Note_on_c, 0, 68, 68
1, 28176, Note_on_c, 1, 61, 68
1, 28182, Note_on_c, 0, 68, 0
1, 28182, Note_on_c, 0, 70, 68
1, 28188, Note_on_c, 0, 70, 0
1, 28188, Note_on_c, 0, 68, 68
1, 28199, Note_on_c, 0, 68, 0
1, 28200, Note_on_c, 0, 67, 64
1, 28209, Note_on_c, 1, 51, 0
1, 28221, Note_on_c, 1, 61, 0
1, 28223, Note_on_c, 0, 67, 0
1, 28224, Note_on_c, 0, 68, 61
1, 28248, Note_on_c, 0, 60, 61
1, 28248, Note_on_c, 1, 56, 61
1, 28271, Note_on_c, 0, 60, 0
1, 28271, Note_on_c, 1, 56, 0
1, 28272, Note_on_c, 0, 61, 61
1, 28272, Note_on_c, 1, 58, 61
1, 28295, Note_on_c, 0, 61, 0
1, 28295, Note_on_c, 1, 58, 0
1, 28296, Note_on_c, 0, 60, 61
1, 28296, Note_on_c, 1, 56, 61
1, 28319, Note_on_c, 0, 60, 0
1, 28319, Note_on_c, 1, 56, 0
1, 28320, Note_on_c, 0, 63, 61
1, 28320, Note_on_c, 1, 60, 61
1, 28343, Note_on_c, 0, 63, 0
1, 28343, Note_on_c, 1, 60, 0
1, 28344, Note_on_c, 0, 61, 61
1, 28344, Note_on_c, 1, 58, 61
1, 28367, Note_on_c, 0, 61, 0
1, 28367, Note_on_c, 1, 58, 0
1, 28368, Note_on_c, 0, 65, 61
1, 28368, Note_on_c, 1, 61, 61
1, 28391, Note_on_c, 0, 65, 0
1, 28391, Note_on_c, 1, 61, 0
1, 28392, Note_on_c, 0, 63, 61
1, 28392, Note_on_c, 1, 60, 61
1, 28415, Note_on_c, 0, 63, 0
1, 28415, Note_on_c, 1, 60, 0
1, 28416, Note_on_c, 0, 65, 61
1, 28416, Note_on_c, 1, 61, 61
1, 28439, Note_on_c, 0, 68, 0
1, 28439, Note_on_c, 0, 65, 0
1, 28440, Note_on_c, 0, 73, 60
1, 28440, Note_on_c, 0, 70, 60
1, 28461, Note_on_c, 1, 61, 0
1, 28463, Note_on_c, 0, 73, 0
1, 28463, Note_on_c, 0, 70, 0
1, 28464, Note_on_c, 0, 72, 60
1, 28464, Note_on_c, 0, 68, 59
1, 28464, Note_on_c, 1, 63, 59
1, 28487, Note_on_c, 0, 72, 0
1, 28487, Note_on_c, 0, 68, 0
1, 28488, Note_on_c, 0, 70, 60
1, 28488, Note_on_c, 0, 67, 58
1, 28509, Note_on_c, 1, 63, 0
1, 28511, Note_on_c, 0, 70, 0
1, 28511, Note_on_c, 0, 67, 0
1, 28512, Note_on_c, 0, 68, 59
1, 28536, Note_on_c, 0, 60, 57
1, 28536, Note_on_c, 1, 44, 57
1, 28559, Note_on_c, 0, 60, 0
1, 28559, Note_on_c, 1, 44, 0
1, 28560, Note_on_c, 0, 61, 57
1, 28560, Note_on_c, 1, 46, 57
1, 28583, Note_on_c, 0, 61, 0
1, 28583, Note_on_c, 1, 46, 0
1, 28584, Note_on_c, 0, 60, 57
1, 28584, Note_on_c, 1, 44, 57
1, 28607, Note_on_c, 0, 60, 0
1, 28607, Note_on_c, 1, 44, 0
1, 28608, Note_on_c, 0, 63, 57
1, 28608, Note_on_c, 1, 48, 57
1, 28631, Note_on_c, 0, 63, 0
1, 28631, Note_on_c, 1, 48, 0
1, 28632, Note_on_c, 0, 61, 57
1, 28632, Note_on_c, 1, 46, 57
1, 28655, Note_on_c, 0, 61, 0
1, 28655, Note_on_c, 1, 46, 0
1, 28656, Note_on_c, 0, 65, 57
1, 28656, Note_on_c, 1, 49, 57
1, 28679, Note_on_c, 0, 65, 0
1, 28679, Note_on_c, 1, 49, 0
1, 28680, Note_on_c, 0, 63, 57
1, 28680, Note_on_c, 1, 48, 57
1, 28703, Note_on_c, 0, 63, 0
1, 28703, Note_on_c, 1, 48, 0
1, 28704, Note_on_c, 0, 65, 57
1, 28704, Note_on_c, 1, 49, 57
1, 28727, Note_on_c, 0, 68, 0
1, 28727, Note_on_c, 0, 65, 0
1, 28728, Note_on_c, 0, 61, 57
1, 28728, Note_on_c, 0, 58, 57
1, 28749, Note_on_c, 1, 49, 0
1, 28751, Note_on_c, 0, 61, 0
1, 28751, Note_on_c, 0, 58, 0
1, 28752, Note_on_c, 0, 60, 57
1, 28752, Note_on_c, 0, 56, 57
1, 28752, Note_on_c, 1, 51, 57
1, 28775, Note_on_c, 0, 60, 0
1, 28775, Note_on_c, 0, 56, 0
1, 28776, Note_on_c, 0, 58, 57
1, 28776, Note_on_c, 0, 55, 57
1, 28797, Note_on_c, 1, 51, 0
1, 28799, Note_on_c, 0, 58, 0
1, 28799, Note_on_c, 0, 55, 0
1, 28800, Note_on_c, 0, 58, 57
1, 28800, Note_on_c, 0, 55, 57
1, 28800, Note_on_c, 1, 44, 57
1, 28992, Note_on_c, 0, 58, 0
1, 28992, Note_on_c, 0, 60, 57
1, 28992, Note_on_c, 0, 55, 0
1, 28992, Note_on_c, 0, 56, 57
1, 29065, Note_on_c, 0, 60, 0
1, 29065, Note_on_c, 0, 56, 0
1, 29065, Note_on_c, 1, 44, 0
1, 29088, Note_on_c, 1, 51, 75
1, 29136, Note_on_c, 0, 70, 75
1, 29177, Note_on_c, 1, 51, 0
1, 29181, Note_on_c, 0, 70, 0
1, 29184, Note_on_c, 0, 72, 75
1, 29207, Note_on_c, 0, 72, 0
1, 29208, Note_on_c, 0, 70, 75
1, 29231, Note_on_c, 0, 70, 0
1, 29232, Note_on_c, 0, 68, 75
1, 29255, Note_on_c, 0, 68, 0
1, 29256, Note_on_c, 0, 67, 75
1, 29279, Note_on_c, 0, 67, 0
1, 29280, Note_on_c, 0, 77, 75
1, 29303, Note_on_c, 0, 77, 0
1, 29304, Note_on_c, 0, 75, 75
1, 29327, Note_on_c, 0, 75, 0
1, 29328, Note_on_c, 0, 74, 75
1, 29351, Note_on_c, 0, 74, 0
1, 29352, Note_on_c, 0, 72, 75
1, 29375, Note_on_c, 0, 72, 0
1, 29376, Note_on_c, 0, 72, 75
1, 29400, Note_on_c, 0, 72, 0
1, 29400, Note_on_c, 0, 70, 75
1, 29410, Note_on_c, 0, 70, 0
1, 29424, Note_on_c, 0, 70, 75
1, 29424, Note_on_c, 1, 51, 75
1, 29469, Note_on_c, 0, 70, 0
1, 29469, Note_on_c, 1, 51, 0
1, 29472, Note_on_c, 0, 70, 75
1, 29472, Note_on_c, 1, 55, 75
1, 29517, Note_on_c, 0, 70, 0
1, 29517, Note_on_c, 1, 55, 0
1, 29520, Note_on_c, 0, 67, 75
1, 29520, Note_on_c, 1, 51, 75
1, 29554, Note_on_c, 0, 67, 0
1, 29556, Note_on_c, 0, 70, 75
1, 29565, Note_on_c, 1, 51, 0
1, 29568, Note_on_c, 0, 70, 0
1, 29568, Note_on_c, 0, 70, 75
1, 29568, Note_on_c, 1, 53, 75
1, 29591, Note_on_c, 0, 70, 0
1, 29592, Note_on_c, 0, 68, 75
1, 29613, Note_on_c, 1, 53, 0
1, 29615, Note_on_c, 0, 68, 0
1, 29616, Note_on_c, 0, 67, 75
1, 29616, Note_on_c, 1, 46, 75
1, 29639, Note_on_c, 0, 67, 0
1, 29640, Note_on_c, 0, 65, 75
1, 29661, Note_on_c, 1, 46, 0
1, 29663, Note_on_c, 0, 65, 0
1, 29664, Note_on_c, 0, 65, 75
1, 29712, Note_on_c, 1, 51, 75
1, 29757, Note_on_c, 1, 51, 0
1, 29760, Note_on_c, 0, 65, 0
1, 29760, Note_on_c, 0, 67, 75
1, 29760, Note_on_c, 1, 51, 75
1, 29805, Note_on_c, 0, 67, 0
1, 29805, Note_on_c, 1, 51, 0
1, 29808, Note_on_c, 0, 63, 75
1, 29808, Note_on_c, 1, 60, 75
1, 29842, Note_on_c, 0, 63, 0
1, 29844, Note_on_c, 0, 67, 75
1, 29853, Note_on_c, 1, 60, 0
1, 29856, Note_on_c, 0, 67, 0
1, 29856, Note_on_c, 0, 67, 75
1, 29856, Note_on_c, 1, 56, 75
1, 29879, Note_on_c, 0, 67, 0
1, 29880, Note_on_c, 0, 65, 75
1, 29901, Note_on_c, 1, 56, 0
1, 29903, Note_on_c, 0, 65, 0
1, 29904, Note_on_c, 0, 63, 75
1, 29904, Note_on_c, 1, 58, 75
1, 29910, Note_on_c, 0, 63, 0
1, 29910, Note_on_c, 0, 65, 75
1, 29916, Note_on_c, 0, 65, 0
1, 29916, Note_on_c, 0, 63, 75
1, 29927, Note_on_c, 0, 63, 0
1, 29928, Note_on_c, 0, 62, 75
1, 29949, Note_on_c, 1, 58, 0
1, 29951, Note_on_c, 0, 62, 0
1, 29952, Note_on_c, 0, 63, 75
1, 29976, Note_on_c, 1, 51, 75
1, 29997, Note_on_c, 0, 63, 0
1, 29999, Note_on_c, 1, 51, 0
1, 30000, Note_on_c, 0, 58, 75
1, 30000, Note_on_c, 1, 55, 75
1, 30023, Note_on_c, 1, 55, 0
1, 30024, Note_on_c, 1, 51, 75
1, 30045, Note_on_c, 0, 58, 0
1, 30047, Note_on_c, 1, 51, 0
1, 30048, Note_on_c, 1, 46, 75
1, 30071, Note_on_c, 1, 46, 0
1, 30072, Note_on_c, 1, 51, 75
1, 30095, Note_on_c, 1, 51, 0
1, 30096, Note_on_c, 1, 43, 75
1, 30119, Note_on_c, 1, 43, 0
1, 30120, Note_on_c, 1, 46, 75
1, 30143, Note_on_c, 1, 46, 0
1, 30144, Note_on_c, 1, 51, 75
1, 30167, Note_on_c, 1, 51, 0
1, 30168, Note_on_c, 1, 55, 75
1, 30191, Note_on_c, 1, 55, 0
1, 30192, Note_on_c, 1, 58, 75
1, 30215, Note_on_c, 1, 58, 0
1, 30216, Note_on_c, 1, 55, 75
1, 30239, Note_on_c, 1, 55, 0
1, 30240, Note_on_c, 1, 63, 75
1, 30264, Note_on_c, 0, 75, 75
1, 30287, Note_on_c, 0, 75, 0
1, 30288, Note_on_c, 0, 74, 75
1, 30311, Note_on_c, 0, 74, 0
1, 30312, Note_on_c, 0, 75, 76
1, 30329, Note_on_c, 1, 63, 0
1, 30335, Note_on_c, 0, 75, 0
1, 30336, Note_on_c, 0, 77, 77
1, 30359, Note_on_c, 0, 77, 0
1, 30360, Note_on_c, 0, 75, 78
1, 30383, Note_on_c, 0, 75, 0
1, 30384, Note_on_c, 0, 74, 79
1, 30407, Note_on_c, 0, 74, 0
1, 30408, Note_on_c, 0, 75, 79
1, 30431, Note_on_c, 0, 75, 0
1, 30432, Note_on_c, 0, 78, 80
1, 30455, Note_on_c, 0, 78, 0
1, 30456, Note_on_c, 0, 75, 81
1, 30479, Note_on_c, 0, 75, 0
1, 30480, Note_on_c, 0, 73, 82
1, 30486, Note_on_c, 0, 73, 0
1, 30486, Note_on_c, 0, 75, 82
1, 30492, Note_on_c, 0, 75, 0
1, 30492, Note_on_c, 0, 73, 82
1, 30503, Note_on_c, 0, 73, 0
1, 30504, Note_on_c, 0, 72, 83
1, 30527, Note_on_c, 0, 72, 0
1, 30528, Note_on_c, 0, 70, 84
1, 30552, Note_on_c, 1, 63, 75
1, 30575, Note_on_c, 1, 63, 0
1, 30576, Note_on_c, 1, 62, 75
1, 30599, Note_on_c, 1, 62, 0
1, 30600, Note_on_c, 1, 63, 76
1, 30623, Note_on_c, 1, 63, 0
1, 30624, Note_on_c, 0, 70, 0
1, 30624, Note_on_c, 0, 69, 76
1, 30624, Note_on_c, 1, 65, 77
1, 30630, Note_on_c, 0, 69, 0
1, 30630, Note_on_c, 0, 70, 76
1, 30636, Note_on_c, 0, 70, 0
1, 30636, Note_on_c, 0, 69, 76
1, 30647, Note_on_c, 1, 65, 0
1, 30648, Note_on_c, 1, 63, 78
1, 30671, Note_on_c, 1, 63, 0
1, 30672, Note_on_c, 1, 62, 79
1, 30695, Note_on_c, 1, 62, 0
1, 30696, Note_on_c, 1, 63, 79
1, 30715, Note_on_c, 0, 69, 0
1, 30719, Note_on_c, 1, 63, 0
1, 30720, Note_on_c, 1, 66, 80
1, 30743, Note_on_c, 1, 66, 0
1, 30744, Note_on_c, 1, 63, 81
1, 30767, Note_on_c, 1, 63, 0
1, 30768, Note_on_c, 1, 61, 82
1, 30791, Note_on_c, 1, 61, 0
1, 30792, Note_on_c, 1, 60, 83
1, 30815, Note_on_c, 1, 60, 0
1, 30816, Note_on_c, 1, 58, 84
1, 30840, Note_on_c, 0, 66, 75
1, 30863, Note_on_c, 0, 66, 0
1, 30864, Note_on_c, 0, 65, 75
1, 30887, Note_on_c, 0, 65, 0
1, 30888, Note_on_c, 0, 64, 76
1, 30911, Note_on_c, 0, 64, 0
1, 30912, Note_on_c, 0, 65, 77
1, 30912, Note_on_c, 1, 58, 0
1, 30912, Note_on_c, 1, 57, 76
1, 30918, Note_on_c, 1, 57, 0
1, 30918, Note_on_c, 1, 58, 76
1, 30924, Note_on_c, 1, 58, 0
1, 30924, Note_on_c, 1, 57, 76
1, 30935, Note_on_c, 0, 65, 0
1, 30936, Note_on_c, 0, 69, 78
1, 30959, Note_on_c, 0, 69, 0
1, 30960, Note_on_c, 0, 72, 79
1, 30983, Note_on_c, 0, 72, 0
1, 30984, Note_on_c, 0, 69, 79
1, 31003, Note_on_c, 1, 57, 0
1, 31007, Note_on_c, 0, 69, 0
1, 31008, Note_on_c, 0, 75, 80
1, 31031, Note_on_c, 0, 75, 0
1, 31032, Note_on_c, 0, 72, 81
1, 31055, Note_on_c, 0, 72, 0
1, 31056, Note_on_c, 0, 78, 82
1, 31079, Note_on_c, 0, 78, 0
1, 31080, Note_on_c, 0, 75, 83
1, 31103, Note_on_c, 0, 75, 0
1, 31104, Note_on_c, 0, 75, 84
1, 31128, Note_on_c, 1, 60, 75
1, 31151, Note_on_c, 1, 60, 0
1, 31152, Note_on_c, 1, 58, 75
1, 31175, Note_on_c, 1, 58, 0
1, 31176, Note_on_c, 1, 57, 75
1, 31199, Note_on_c, 1, 57, 0
1, 31200, Note_on_c, 0, 75, 0
1, 31200, Note_on_c, 0, 73, 76
1, 31200, Note_on_c, 1, 58, 75
1, 31206, Note_on_c, 0, 73, 0
1, 31206, Note_on_c, 0, 75, 76
1, 31212, Note_on_c, 0, 75, 0
1, 31212, Note_on_c, 0, 73, 76
1, 31223, Note_on_c, 1, 58, 0
1, 31224, Note_on_c, 1, 61, 75
1, 31247, Note_on_c, 1, 61, 0
1, 31248, Note_on_c, 1, 65, 75
1, 31271, Note_on_c, 1, 65, 0
1, 31272, Note_on_c, 1, 61, 75
1, 31291, Note_on_c, 0, 73, 0
1, 31295, Note_on_c, 1, 61, 0
1, 31296, Note_on_c, 1, 70, 75
1, 31320, Note_on_c, 0, 77, 75
1, 31343, Note_on_c, 0, 77, 0
1, 31344, Note_on_c, 0, 78, 75
1, 31350, Note_on_c, 0, 78, 0
1, 31350, Note_on_c, 0, 77, 75
1, 31356, Note_on_c, 0, 77, 0
1, 31356, Note_on_c, 0, 78, 75
1, 31367, Note_on_c, 0, 78, 0
1, 31368, Note_on_c, 0, 82, 75
1, 31391, Note_on_c, 0, 82, 0
1, 31392, Note_on_c, 0, 76, 75
1, 31415, Note_on_c, 1, 70, 0
1, 31416, Note_on_c, 1, 73, 75
1, 31439, Note_on_c, 1, 73, 0
1, 31440, Note_on_c, 1, 72, 75
1, 31463, Note_on_c, 1, 72, 0
1, 31464, Note_on_c, 1, 70, 75
1, 31487, Note_on_c, 1, 70, 0
1, 31488, Note_on_c, 1, 68, 75
1, 31511, Note_on_c, 0, 76, 0
1, 31512, Note_on_c, 0, 77, 75
1, 31535, Note_on_c, 0, 77, 0
1, 31536, Note_on_c, 0, 79, 75
1, 31559, Note_on_c, 0, 79, 0
1, 31560, Note_on_c, 0, 80, 75
1, 31583, Note_on_c, 0, 80, 0
1, 31584, Note_on_c, 0, 82, 75
1, 31607, Note_on_c, 1, 68, 0
1, 31608, Note_on_c, 1, 67, 75
1, 31631, Note_on_c, 1, 67, 0
1, 31632, Note_on_c, 1, 65, 75
1, 31655, Note_on_c, 1, 65, 0
1, 31656, Note_on_c, 1, 64, 75
1, 31679, Note_on_c, 1, 64, 0
1, 31680, Note_on_c, 1, 65, 75
1, 31703, Note_on_c, 0, 82, 0
1, 31704, Note_on_c, 0, 80, 75
1, 31727, Note_on_c, 0, 80, 0
1, 31728, Note_on_c, 0, 82, 75
1, 31751, Note_on_c, 0, 82, 0
1, 31752, Note_on_c, 0, 84, 75
1, 31775, Note_on_c, 0, 84, 0
1, 31776, Note_on_c, 0, 73, 75
1, 31799, Note_on_c, 1, 65, 0
1, 31800, Note_on_c, 1, 67, 75
1, 31823, Note_on_c, 1, 67, 0
1, 31824, Note_on_c, 1, 68, 75
1, 31847, Note_on_c, 1, 68, 0
1, 31848, Note_on_c, 1, 70, 75
1, 31871, Note_on_c, 1, 70, 0
1, 31872, Note_on_c, 1, 64, 75
1, 31895, Note_on_c, 0, 73, 0
1, 31896, Note_on_c, 0, 72, 75
1, 31919, Note_on_c, 0, 72, 0
1, 31920, Note_on_c, 0, 82, 75
1, 31943, Note_on_c, 0, 82, 0
1, 31944, Note_on_c, 0, 79, 75
1, 31961, Note_on_c, 1, 64, 0
1, 31967, Note_on_c, 0, 79, 0
1, 31968, Note_on_c, 1, 65, 75
1, 31992, Note_on_c, 0, 80, 75
1, 32015, Note_on_c, 0, 80, 0
1, 32016, Note_on_c, 0, 84, 75
1, 32039, Note_on_c, 0, 84, 0
1, 32040, Note_on_c, 0, 77, 75
1, 32057, Note_on_c, 1, 65, 0
1, 32063, Note_on_c, 0, 77, 0
1, 32064, Note_on_c, 1, 67, 75
1, 32088, Note_on_c, 0, 76, 75
1, 32111, Note_on_c, 0, 76, 0
1, 32112, Note_on_c, 0, 79, 75
1, 32135, Note_on_c, 0, 79, 0
1, 32136, Note_on_c, 0, 76, 75
1, 32153, Note_on_c, 1, 67, 0
1, 32159, Note_on_c, 0, 76, 0
1, 32160, Note_on_c, 1, 68, 75
1, 32184, Note_on_c, 0, 76, 75
1, 32207, Note_on_c, 0, 76, 0
1, 32208, Note_on_c, 0, 77, 75
1, 32227, Note_on_c, 1, 68, 0
1, 32231, Note_on_c, 0, 77, 0
1, 32232, Note_on_c, 0, 72, 75
1, 32232, Note_on_c, 1, 56, 75
1, 32255, Note_on_c, 0, 72, 0
1, 32255, Note_on_c, 1, 56, 0
1, 32256, Note_on_c, 0, 75, 75
1, 32256, Note_on_c, 1, 58, 75
1, 32279, Note_on_c, 0, 75, 0
1, 32280, Note_on_c, 0, 73, 75
1, 32303, Note_on_c, 0, 73, 0
1, 32304, Note_on_c, 0, 72, 75
1, 32327, Note_on_c, 0, 72, 0
1, 32328, Note_on_c, 0, 70, 75
1, 32345, Note_on_c, 1, 58, 0
1, 32351, Note_on_c, 0, 70, 0
1, 32352, Note_on_c, 0, 70, 75
1, 32352, Note_on_c, 1, 60, 75
1, 32375, Note_on_c, 0, 70, 0
1, 32376, Note_on_c, 0, 68, 75
1, 32399, Note_on_c, 0, 68, 0
1, 32400, Note_on_c, 0, 72, 75
1, 32423, Note_on_c, 0, 72, 0
1, 32424, Note_on_c, 0, 65, 75
1, 32441, Note_on_c, 1, 60, 0
1, 32447, Note_on_c, 0, 65, 0
1, 32448, Note_on_c, 0, 68, 75
1, 32448, Note_on_c, 1, 48, 75
1, 32471, Note_on_c, 0, 68, 0
1, 32472, Note_on_c, 0, 67, 73
1, 32478, Note_on_c, 0, 67, 0
1, 32478, Note_on_c, 0, 68, 73
1, 32484, Note_on_c, 0, 68, 0
1, 32484, Note_on_c, 0, 67, 73
1, 32495, Note_on_c, 0, 67, 0
1, 32496, Note_on_c, 0, 65, 72
1, 32519, Note_on_c, 0, 65, 0
1, 32520, Note_on_c, 0, 64, 70
1, 32537, Note_on_c, 1, 48, 0
1, 32543, Note_on_c, 0, 64, 0
1, 32544, Note_on_c, 1, 53, 61
1, 32568, Note_on_c, 0, 65, 61
1, 32568, Note_on_c, 1, 56, 61
1, 32591, Note_on_c, 0, 65, 0
1, 32591, Note_on_c, 1, 56, 0
1, 32592, Note_on_c, 0, 67, 61
1, 32592, Note_on_c, 1, 58, 61
1, 32615, Note_on_c, 0, 67, 0
1, 32615, Note_on_c, 1, 58, 0
1, 32616, Note_on_c, 0, 65, 61
1, 32616, Note_on_c, 1, 56, 61
1, 32639, Note_on_c, 0, 65, 0
1, 32639, Note_on_c, 1, 56, 0
1, 32640, Note_on_c, 0, 68, 61
1, 32640, Note_on_c, 1, 60, 61
1, 32663, Note_on_c, 0, 68, 0
1, 32663, Note_on_c, 1, 60, 0
1, 32664, Note_on_c, 0, 67, 61
1, 32664, Note_on_c, 1, 58, 61
1, 32687, Note_on_c, 0, 67, 0
1, 32687, Note_on_c, 1, 58, 0
1, 32688, Note_on_c, 0, 70, 61
1, 32688, Note_on_c, 1, 61, 61
1, 32711, Note_on_c, 0, 70, 0
1, 32711, Note_on_c, 1, 61, 0
1, 32712, Note_on_c, 0, 69, 61
1, 32712, Note_on_c, 1, 60, 61
1, 32735, Note_on_c, 0, 69, 0
1, 32735, Note_on_c, 1, 60, 0
1, 32736, Note_on_c, 0, 70, 61
1, 32736, Note_on_c, 1, 61, 61
1, 32759, Note_on_c, 0, 70, 0
1, 32759, Note_on_c, 1, 61, 0
1, 32760, Note_on_c, 0, 67, 61
1, 32760, Note_on_c, 1, 58, 61
1, 32783, Note_on_c, 0, 67, 0
1, 32783, Note_on_c, 1, 58, 0
1, 32784, Note_on_c, 0, 65, 61
1, 32784, Note_on_c, 1, 56, 61
1, 32790, Note_on_c, 0, 65, 0
1, 32790, Note_on_c, 0, 67, 61
1, 32790, Note_on_c, 1, 56, 0
1, 32790, Note_on_c, 1, 58, 61
1, 32796, Note_on_c, 0, 67, 0
1, 32796, Note_on_c, 0, 65, 61
1, 32796, Note_on_c, 1, 58, 0
1, 32796, Note_on_c, 1, 56, 61
1, 32807, Note_on_c, 0, 65, 0
1, 32807, Note_on_c, 1, 56, 0
1, 32808, Note_on_c, 0, 64, 61
1, 32808, Note_on_c, 1, 55, 61
1, 32809, Note_on_c, 1, 53, 0
1, 32831, Note_on_c, 0, 64, 0
1, 32831, Note_on_c, 1, 55, 0
1, 32832, Note_on_c, 1, 53, 61
1, 32856, Note_on_c, 0, 68, 61
1, 32856, Note_on_c, 0, 65, 61
1, 32879, Note_on_c, 0, 68, 0
1, 32879, Note_on_c, 0, 65, 0
1, 32880, Note_on_c, 0, 70, 62
1, 32880, Note_on_c, 0, 67, 62
1, 32903, Note_on_c, 0, 70, 0
1, 32903, Note_on_c, 0, 67, 0
1, 32904, Note_on_c, 0, 68, 63
1, 32904, Note_on_c, 0, 65, 63
1, 32927, Note_on_c, 0, 68, 0
1, 32927, Note_on_c, 0, 65, 0
1, 32928, Note_on_c, 0, 72, 64
1, 32928, Note_on_c, 0, 68, 63
1, 32951, Note_on_c, 0, 72, 0
1, 32951, Note_on_c, 0, 68, 0
1, 32952, Note_on_c, 0, 70, 65
1, 32952, Note_on_c, 0, 67, 64
1, 32975, Note_on_c, 0, 70, 0
1, 32975, Note_on_c, 0, 67, 0
1, 32976, Note_on_c, 0, 73, 66
1, 32976, Note_on_c, 0, 70, 65
1, 32999, Note_on_c, 0, 73, 0
1, 32999, Note_on_c, 0, 70, 0
1, 33000, Note_on_c, 0, 72, 67
1, 33000, Note_on_c, 0, 68, 66
1, 33009, Note_on_c, 1, 53, 0
1, 33023, Note_on_c, 0, 72, 0
1, 33023, Note_on_c, 0, 68, 0
1, 33024, Note_on_c, 0, 73, 68
1, 33024, Note_on_c, 0, 70, 66
1, 33024, Note_on_c, 1, 51, 66
1, 33047, Note_on_c, 0, 73, 0
1, 33047, Note_on_c, 0, 70, 0
1, 33048, Note_on_c, 0, 70, 68
1, 33048, Note_on_c, 0, 61, 67
1, 33071, Note_on_c, 0, 70, 0
1, 33071, Note_on_c, 0, 61, 0
1, 33072, Note_on_c, 0, 68, 69
1, 33072, Note_on_c, 0, 60, 68
1, 33078, Note_on_c, 0, 68, 0
1, 33078, Note_on_c, 0, 70, 69
1, 33084, Note_on_c, 0, 70, 0
1, 33084, Note_on_c, 0, 68, 69
1, 33095, Note_on_c, 0, 68, 0
1, 33095, Note_on_c, 0, 60, 0
1, 33096, Note_on_c, 0, 67, 70
1, 33096, Note_on_c, 0, 58, 68
1, 33119, Note_on_c, 0, 67, 0
1, 33119, Note_on_c, 0, 58, 0
1, 33120, Note_on_c, 0, 68, 71
1, 33120, Note_on_c, 0, 60, 69
1, 33143, Note_on_c, 0, 68, 0
1, 33143, Note_on_c, 0, 60, 0
1, 33144, Note_on_c, 0, 72, 72
1, 33144, Note_on_c, 0, 56, 70
1, 33167, Note_on_c, 0, 72, 0
1, 33167, Note_on_c, 0, 56, 0
1, 33168, Note_on_c, 0, 73, 73
1, 33168, Note_on_c, 0, 58, 71
1, 33191, Note_on_c, 0, 73, 0
1, 33191, Note_on_c, 0, 58, 0
1, 33192, Note_on_c, 0, 72, 74
1, 33192, Note_on_c, 0, 56, 71
1, 33215, Note_on_c, 0, 72, 0
1, 33215, Note_on_c, 0, 56, 0
1, 33216, Note_on_c, 0, 75, 75
1, 33216, Note_on_c, 0, 60, 72
1, 33239, Note_on_c, 0, 75, 0
1, 33239, Note_on_c, 0, 60, 0
1, 33240, Note_on_c, 0, 73, 76
1, 33240, Note_on_c, 0, 58, 73
1, 33263, Note_on_c, 0, 73, 0
1, 33263, Note_on_c, 0, 58, 0
1, 33264, Note_on_c, 0, 77, 76
1, 33264, Note_on_c, 0, 61, 73
1, 33287, Note_on_c, 0, 77, 0
1, 33287, Note_on_c, 0, 61, 0
1, 33288, Note_on_c, 0, 76, 77
1, 33288, Note_on_c, 0, 60, 74
1, 33311, Note_on_c, 0, 76, 0
1, 33311, Note_on_c, 0, 60, 0
1, 33312, Note_on_c, 0, 77, 78
1, 33312, Note_on_c, 0, 61, 75
1, 33335, Note_on_c, 0, 77, 0
1, 33335, Note_on_c, 0, 61, 0
1, 33336, Note_on_c, 0, 73, 79
1, 33336, Note_on_c, 0, 58, 76
1, 33359, Note_on_c, 0, 73, 0
1, 33359, Note_on_c, 0, 58, 0
1, 33360, Note_on_c, 0, 72, 80
1, 33360, Note_on_c, 0, 56, 76
1, 33383, Note_on_c, 0, 72, 0
1, 33383, Note_on_c, 0, 56, 0
1, 33384, Note_on_c, 0, 70, 81
1, 33384, Note_on_c, 0, 55, 77
1, 33385, Note_on_c, 1, 51, 0
1, 33407, Note_on_c, 0, 70, 0
1, 33407, Note_on_c, 0, 55, 0
1, 33408, Note_on_c, 1, 60, 76
1, 33408, Note_on_c, 1, 56, 76
1, 33408, Note_on_c, 1, 51, 76
1, 33432, Note_on_c, 0, 72, 83
1, 33442, Note_on_c, 0, 72, 0
1, 33456, Note_on_c, 0, 75, 84
1, 33466, Note_on_c, 0, 75, 0
1, 33480, Note_on_c, 0, 80, 84
1, 33490, Note_on_c, 0, 80, 0
1, 33504, Note_on_c, 0, 84, 84
1, 33514, Note_on_c, 0, 84, 0
1, 33528, Note_on_c, 0, 80, 84
1, 33538, Note_on_c, 0, 80, 0
1, 33552, Note_on_c, 0, 75, 84
1, 33562, Note_on_c, 0, 75, 0
1, 33576, Note_on_c, 0, 80, 84
1, 33586, Note_on_c, 0, 80, 0
1, 33600, Note_on_c, 0, 72, 84
1, 33610, Note_on_c, 0, 72, 0
1, 33624, Note_on_c, 0, 75, 84
1, 33634, Note_on_c, 0, 75, 0
1, 33648, Note_on_c, 0, 68, 84
1, 33658, Note_on_c, 0, 68, 0
1, 33672, Note_on_c, 0, 72, 84
1, 33673, Note_on_c, 1, 60, 0
1, 33673, Note_on_c, 1, 56, 0
1, 33673, Note_on_c, 1, 51, 0
1, 33682, Note_on_c, 0, 72, 0
1, 33696, Note_on_c, 1, 59, 84
1, 33696, Note_on_c, 1, 56, 84
1, 33696, Note_on_c, 1, 51, 84
1, 33720, Note_on_c, 0, 71, 84
1, 33730, Note_on_c, 0, 71, 0
1, 33744, Note_on_c, 0, 75, 84
1, 33754, Note_on_c, 0, 75, 0
1, 33768, Note_on_c, 0, 80, 84
1, 33778, Note_on_c, 0, 80, 0
1, 33792, Note_on_c, 0, 83, 84
1, 33802, Note_on_c, 0, 83, 0
1, 33816, Note_on_c, 0, 80, 84
1, 33826, Note_on_c, 0, 80, 0
1, 33840, Note_on_c, 0, 75, 84
1, 33850, Note_on_c, 0, 75, 0
1, 33864, Note_on_c, 0, 80, 84
1, 33874, Note_on_c, 0, 80, 0
1, 33888, Note_on_c, 0, 71, 84
1, 33898, Note_on_c, 0, 71, 0
1, 33912, Note_on_c, 0, 75, 84
1, 33922, Note_on_c, 0, 75, 0
1, 33936, Note_on_c, 0, 68, 84
1, 33946, Note_on_c, 0, 68, 0
1, 33960, Note_on_c, 0, 71, 84
1, 33961, Note_on_c, 1, 59, 0
1, 33961, Note_on_c, 1, 56, 0
1, 33961, Note_on_c, 1, 51, 0
1, 33970, Note_on_c, 0, 71, 0
1, 33984, Note_on_c, 1, 59, 84
1, 33984, Note_on_c, 1, 56, 84
1, 33984, Note_on_c, 1, 52, 84
1, 33996, Note_on_c, 0, 71, 84
1, 34008, Note_on_c, 0, 71, 0
1, 34008, Note_on_c, 0, 73, 84
1, 34020, Note_on_c, 0, 73, 0
1, 34020, Note_on_c, 0, 75, 84
1, 34032, Note_on_c, 0, 75, 0
1, 34032, Note_on_c, 0, 76, 84
1, 34044, Note_on_c, 0, 76, 0
1, 34044, Note_on_c, 0, 78, 84
1, 34056, Note_on_c, 0, 78, 0
1, 34056, Note_on_c, 0, 80, 84
1, 34068, Note_on_c, 0, 80, 0
1, 34068, Note_on_c, 0, 81, 84
1, 34080, Note_on_c, 0, 81, 0
1, 34080, Note_on_c, 0, 83, 84
1, 34103, Note_on_c, 0, 83, 0
1, 34104, Note_on_c, 0, 80, 84
1, 34114, Note_on_c, 0, 80, 0
1, 34128, Note_on_c, 0, 76, 84
1, 34138, Note_on_c, 0, 76, 0
1, 34152, Note_on_c, 0, 80, 84
1, 34162, Note_on_c, 0, 80, 0
1, 34176, Note_on_c, 0, 71, 84
1, 34186, Note_on_c, 0, 71, 0
1, 34200, Note_on_c, 0, 76, 84
1, 34210, Note_on_c, 0, 76, 0
1, 34224, Note_on_c, 0, 68, 84
1, 34234, Note_on_c, 0, 68, 0
1, 34248, Note_on_c, 0, 71, 84
1, 34249, Note_on_c, 1, 59, 0
1, 34249, Note_on_c, 1, 56, 0
1, 34249, Note_on_c, 1, 52, 0
1, 34258, Note_on_c, 0, 71, 0
1, 34272, Note_on_c, 1, 59, 103
1, 34272, Note_on_c, 1, 56, 103
1, 34272, Note_on_c, 1, 53, 103
1, 34272, Note_on_c, 1, 50, 103
1, 34296, Note_on_c, 0, 71, 84
1, 34306, Note_on_c, 0, 71, 0
1, 34320, Note_on_c, 0, 77, 84
1, 34330, Note_on_c, 0, 77, 0
1, 34344, Note_on_c, 0, 80, 84
1, 34354, Note_on_c, 0, 80, 0
1, 34368, Note_on_c, 0, 83, 84
1, 34378, Note_on_c, 0, 83, 0
1, 34392, Note_on_c, 0, 80, 84
1, 34402, Note_on_c, 0, 80, 0
1, 34416, Note_on_c, 0, 77, 84
1, 34426, Note_on_c, 0, 77, 0
1, 34440, Note_on_c, 0, 80, 84
1, 34450, Note_on_c, 0, 80, 0
1, 34464, Note_on_c, 0, 74, 84
1, 34474, Note_on_c, 0, 74, 0
1, 34488, Note_on_c, 0, 71, 83
1, 34498, Note_on_c, 0, 71, 0
1, 34512, Note_on_c, 0, 70, 82
1, 34522, Note_on_c, 0, 70, 0
1, 34536, Note_on_c, 0, 68, 81
1, 34537, Note_on_c, 1, 59, 0
1, 34537, Note_on_c, 1, 56, 0
1, 34537, Note_on_c, 1, 53, 0
1, 34537, Note_on_c, 1, 50, 0
1, 34546, Note_on_c, 0, 68, 0
1, 34560, Note_on_c, 0, 68, 81
1, 34560, Note_on_c, 1, 58, 84
1, 34560, Note_on_c, 1, 51, 59
1, 34583, Note_on_c, 0, 68, 0
1, 34584, Note_on_c, 0, 67, 80
1, 34605, Note_on_c, 1, 58, 0
1, 34607, Note_on_c, 0, 67, 0
1, 34608, Note_on_c, 0, 70, 79
1, 34608, Note_on_c, 1, 56, 84
1, 34631, Note_on_c, 0, 70, 0
1, 34632, Note_on_c, 0, 62, 78
1, 34649, Note_on_c, 1, 51, 0
1, 34653, Note_on_c, 1, 56, 0
1, 34655, Note_on_c, 0, 62, 0
1, 34656, Note_on_c, 0, 63, 78
1, 34656, Note_on_c, 1, 55, 84
1, 34656, Note_on_c, 1, 51, 57
1, 34679, Note_on_c, 1, 55, 0
1, 34679, Note_on_c, 1, 51, 0
1, 34680, Note_on_c, 1, 51, 57
1, 34703, Note_on_c, 1, 51, 0
1, 34704, Note_on_c, 1, 53, 57
1, 34727, Note_on_c, 1, 53, 0
1, 34728, Note_on_c, 1, 49, 57
1, 34745, Note_on_c, 0, 63, 0
1, 34751, Note_on_c, 1, 49, 0
1, 34752, Note_on_c, 1, 48, 57
1, 34762, Note_on_c, 1, 48, 0
1, 34776, Note_on_c, 1, 48, 57
1, 34799, Note_on_c, 1, 48, 0
1, 34800, Note_on_c, 1, 49, 57
1, 34823, Note_on_c, 1, 49, 0
1, 34824, Note_on_c, 1, 46, 57
1, 34847, Note_on_c, 1, 46, 0
1, 34848, Note_on_c, 1, 44, 84
1, 34896, Note_on_c, 0, 75, 75
1, 34937, Note_on_c, 1, 44, 0
1, 34941, Note_on_c, 0, 75, 0
1, 34944, Note_on_c, 0, 77, 75
1, 34968, Note_on_c, 0, 77, 0
1, 34968, Note_on_c, 0, 75, 75
1, 34991, Note_on_c, 0, 75, 0
1, 34992, Note_on_c, 0, 73, 75
1, 34998, Note_on_c, 0, 73, 0
1, 34998, Note_on_c, 0, 75, 75
1, 35004, Note_on_c, 0, 75, 0
1, 35004, Note_on_c, 0, 73, 75
1, 35015, Note_on_c, 0, 73, 0
1, 35016, Note_on_c, 0, 72, 75
1, 35039, Note_on_c, 0, 72, 0
1, 35040, Note_on_c, 0, 82, 75
1, 35064, Note_on_c, 0, 82, 0
1, 35064, Note_on_c, 0, 80, 75
1, 35087, Note_on_c, 0, 80, 0
1, 35088, Note_on_c, 0, 79, 75
1, 35111, Note_on_c, 0, 79, 0
1, 35112, Note_on_c, 0, 77, 75
1, 35135, Note_on_c, 0, 77, 0
1, 35136, Note_on_c, 0, 77, 75
1, 35160, Note_on_c, 0, 77, 0
1, 35160, Note_on_c, 0, 75, 75
1, 35170, Note_on_c, 0, 75, 0
1, 35184, Note_on_c, 0, 75, 75
1, 35184, Note_on_c, 1, 56, 84
1, 35229, Note_on_c, 1, 56, 0
1, 35232, Note_on_c, 1, 60, 84
1, 35247, Note_on_c, 0, 75, 0
1, 35248, Note_on_c, 0, 77, 75
1, 35263, Note_on_c, 0, 77, 0
1, 35264, Note_on_c, 0, 79, 75
1, 35277, Note_on_c, 1, 60, 0
1, 35279, Note_on_c, 0, 79, 0
1, 35280, Note_on_c, 0, 80, 75
1, 35280, Note_on_c, 1, 56, 84
1, 35295, Note_on_c, 0, 80, 0
1, 35296, Note_on_c, 0, 82, 75
1, 35311, Note_on_c, 0, 82, 0
1, 35312, Note_on_c, 0, 84, 75
1, 35325, Note_on_c, 1, 56, 0
1, 35327, Note_on_c, 0, 84, 0
1, 35328, Note_on_c, 0, 75, 75
1, 35328, Note_on_c, 1, 58, 84
1, 35373, Note_on_c, 0, 75, 0
1, 35373, Note_on_c, 1, 58, 0
1, 35376, Note_on_c, 0, 73, 75
1, 35376, Note_on_c, 1, 51, 84
1, 35383, Note_on_c, 0, 73, 0
1, 35383, Note_on_c, 0, 75, 75
1, 35390, Note_on_c, 0, 75, 0
1, 35390, Note_on_c, 0, 73, 75
1, 35397, Note_on_c, 0, 73, 0
1, 35397, Note_on_c, 0, 75, 75
1, 35404, Note_on_c, 0, 75, 0
1, 35404, Note_on_c, 0, 73, 75
1, 35411, Note_on_c, 0, 73, 0
1, 35411, Note_on_c, 0, 72, 75
1, 35418, Note_on_c, 0, 72, 0
1, 35418, Note_on_c, 0, 73, 75
1, 35421, Note_on_c, 1, 51, 0
1, 35424, Note_on_c, 0, 73, 0
1, 35424, Note_on_c, 0, 73, 91
1, 35472, Note_on_c, 1, 56, 84
1, 35517, Note_on_c, 1, 56, 0
1, 35520, Note_on_c, 1, 56, 84
1, 35543, Note_on_c, 0, 73, 0
1, 35544, Note_on_c, 0, 72, 75
1, 35565, Note_on_c, 1, 56, 0
1, 35567, Note_on_c, 0, 72, 0
1, 35568, Note_on_c, 0, 75, 75
1, 35568, Note_on_c, 1, 60, 84
1, 35602, Note_on_c, 0, 75, 0
1, 35604, Note_on_c, 0, 68, 75
1, 35613, Note_on_c, 1, 60, 0
1, 35616, Note_on_c, 0, 68, 0
1, 35616, Note_on_c, 0, 72, 75
1, 35616, Note_on_c, 1, 61, 84
1, 35639, Note_on_c, 0, 72, 0
1, 35640, Note_on_c, 0, 70, 75
1, 35661, Note_on_c, 1, 61, 0
1, 35663, Note_on_c, 0, 70, 0
1, 35664, Note_on_c, 0, 68, 75
1, 35664, Note_on_c, 1, 63, 84
1, 35670, Note_on_c, 0, 68, 0
1, 35670, Note_on_c, 0, 70, 75
1, 35676, Note_on_c, 0, 70, 0
1, 35676, Note_on_c, 0, 68, 75
1, 35687, Note_on_c, 0, 68, 0
1, 35688, Note_on_c, 0, 67, 75
1, 35709, Note_on_c, 1, 63, 0
1, 35711, Note_on_c, 0, 67, 0
1, 35712, Note_on_c, 0, 68, 75
1, 35736, Note_on_c, 1, 56, 84
1, 35757, Note_on_c, 0, 68, 0
1, 35759, Note_on_c, 1, 56, 0
1, 35760, Note_on_c, 0, 63, 75
1, 35760, Note_on_c, 1, 60, 84
1, 35783, Note_on_c, 1, 60, 0
1, 35784, Note_on_c, 1, 56, 84
1, 35805, Note_on_c, 0, 63, 0
1, 35807, Note_on_c, 1, 56, 0
1, 35808, Note_on_c, 1, 51, 84
1, 35831, Note_on_c, 1, 51, 0
1, 35832, Note_on_c, 1, 56, 84
1, 35855, Note_on_c, 1, 56, 0
1, 35856, Note_on_c, 1, 48, 84
1, 35879, Note_on_c, 1, 48, 0
1, 35880, Note_on_c, 1, 51, 84
1, 35903, Note_on_c, 1, 51, 0
1, 35904, Note_on_c, 1, 56, 84
1, 35927, Note_on_c, 1, 56, 0
1, 35928, Note_on_c, 1, 60, 84
1, 35951, Note_on_c, 1, 60, 0
1, 35952, Note_on_c, 1, 63, 84
1, 35975, Note_on_c, 1, 63, 0
1, 35976, Note_on_c, 1, 68, 84
1, 35999, Note_on_c, 1, 68, 0
1, 36000, Note_on_c, 1, 61, 84
1, 36024, Note_on_c, 0, 76, 75
1, 36047, Note_on_c, 0, 76, 0
1, 36048, Note_on_c, 0, 77, 75
1, 36071, Note_on_c, 0, 77, 0
1, 36072, Note_on_c, 0, 80, 75
1, 36089, Note_on_c, 1, 61, 0
1, 36095, Note_on_c, 0, 80, 0
1, 36096, Note_on_c, 0, 77, 75
1, 36096, Note_on_c, 1, 60, 84
1, 36119, Note_on_c, 0, 77, 0
1, 36120, Note_on_c, 0, 75, 75
1, 36141, Note_on_c, 1, 60, 0
1, 36143, Note_on_c, 0, 75, 0
1, 36144, Note_on_c, 0, 84, 75
1, 36144, Note_on_c, 1, 56, 84
1, 36167, Note_on_c, 0, 84, 0
1, 36168, Note_on_c, 0, 80, 75
1, 36189, Note_on_c, 1, 56, 0
1, 36191, Note_on_c, 0, 80, 0
1, 36192, Note_on_c, 0, 75, 75
1, 36192, Note_on_c, 1, 58, 84
1, 36237, Note_on_c, 0, 75, 0
1, 36237, Note_on_c, 1, 58, 0
1, 36240, Note_on_c, 0, 73, 75
1, 36240, Note_on_c, 1, 51, 84
1, 36247, Note_on_c, 0, 73, 0
1, 36247, Note_on_c, 0, 75, 75
1, 36254, Note_on_c, 0, 75, 0
1, 36254, Note_on_c, 0, 73, 75
1, 36261, Note_on_c, 0, 73, 0
1, 36261, Note_on_c, 0, 75, 75
1, 36268, Note_on_c, 0, 75, 0
1, 36268, Note_on_c, 0, 73, 75
1, 36275, Note_on_c, 0, 73, 0
1, 36275, Note_on_c, 0, 72, 75
1, 36282, Note_on_c, 0, 72, 0
1, 36282, Note_on_c, 0, 73, 75
1, 36285, Note_on_c, 1, 51, 0
1, 36288, Note_on_c, 0, 73, 0
1, 36288, Note_on_c, 0, 73, 75
1, 36312, Note_on_c, 1, 56, 84
1, 36335, Note_on_c, 1, 56, 0
1, 36336, Note_on_c, 0, 73, 0
1, 36336, Note_on_c, 0, 72, 75
1, 36336, Note_on_c, 1, 60, 84
1, 36359, Note_on_c, 1, 60, 0
1, 36360, Note_on_c, 1, 56, 84
1, 36381, Note_on_c, 0, 72, 0
1, 36383, Note_on_c, 1, 56, 0
1, 36384, Note_on_c, 1, 51, 84
1, 36407, Note_on_c, 1, 51, 0
1, 36408, Note_on_c, 1, 56, 84
1, 36431, Note_on_c, 1, 56, 0
1, 36432, Note_on_c, 1, 48, 84
1, 36444, Note_on_c, 1, 48, 0
1, 36444, Note_on_c, 1, 51, 84
1, 36456, Note_on_c, 1, 51, 0
1, 36456, Note_on_c, 1, 53, 84
1, 36468, Note_on_c, 1, 53, 0
1, 36468, Note_on_c, 1, 55, 84
1, 36480, Note_on_c, 1, 55, 0
1, 36480, Note_on_c, 1, 56, 84
1, 36492, Note_on_c, 1, 56, 0
1, 36492, Note_on_c, 1, 58, 84
1, 36504, Note_on_c, 1, 58, 0
1, 36504, Note_on_c, 1, 60, 84
1, 36516, Note_on_c, 1, 60, 0
1, 36516, Note_on_c, 1, 61, 84
1, 36528, Note_on_c, 1, 61, 0
1, 36528, Note_on_c, 1, 63, 84
1, 36540, Note_on_c, 1, 63, 0
1, 36540, Note_on_c, 1, 65, 84
1, 36552, Note_on_c, 1, 65, 0
1, 36552, Note_on_c, 1, 67, 84
1, 36564, Note_on_c, 1, 67, 0
1, 36564, Note_on_c, 1, 68, 84
1, 36564, Note_on_c, 1, 68, 57
1, 36576, Note_on_c, 1, 68, 0
1, 36576, Note_on_c, 1, 61, 84
1, 36600, Note_on_c, 0, 76, 75
1, 36623, Note_on_c, 0, 76, 0
1, 36624, Note_on_c, 0, 77, 75
1, 36647, Note_on_c, 0, 77, 0
1, 36648, Note_on_c, 0, 80, 75
1, 36665, Note_on_c, 1, 61, 0
1, 36671, Note_on_c, 0, 80, 0
1, 36672, Note_on_c, 1, 60, 84
1, 36696, Note_on_c, 0, 74, 75
1, 36719, Note_on_c, 0, 74, 0
1, 36720, Note_on_c, 0, 75, 75
1, 36743, Note_on_c, 0, 75, 0
1, 36744, Note_on_c, 0, 80, 75
1, 36761, Note_on_c, 1, 60, 0
1, 36767, Note_on_c, 0, 80, 0
1, 36768, Note_on_c, 0, 75, 75
1, 36768, Note_on_c, 1, 58, 84
1, 36791, Note_on_c, 0, 75, 0
1, 36792, Note_on_c, 0, 73, 75
1, 36813, Note_on_c, 1, 68, 0
1, 36815, Note_on_c, 0, 73, 0
1, 36816, Note_on_c, 0, 82, 75
1, 36816, Note_on_c, 1, 67, 57
1, 36839, Note_on_c, 0, 82, 0
1, 36840, Note_on_c, 0, 73, 75
1, 36857, Note_on_c, 1, 58, 0
1, 36861, Note_on_c, 1, 67, 0
1, 36863, Note_on_c, 0, 73, 0
1, 36864, Note_on_c, 1, 56, 84
1, 36864, Note_on_c, 1, 68, 57
1, 36888, Note_on_c, 0, 72, 75
1, 36911, Note_on_c, 0, 72, 0
1, 36912, Note_on_c, 0, 75, 75
1, 36935, Note_on_c, 0, 75, 0
1, 36936, Note_on_c, 0, 72, 76
1, 36953, Note_on_c, 1, 56, 0
1, 36953, Note_on_c, 1, 68, 0
1, 36959, Note_on_c, 0, 72, 0
1, 36960, Note_on_c, 0, 69, 77
1, 36960, Note_on_c, 1, 61, 75
1, 36983, Note_on_c, 0, 69, 0
1, 36984, Note_on_c, 0, 70, 78
1, 37007, Note_on_c, 0, 70, 0
1, 37008, Note_on_c, 0, 73, 79
1, 37031, Note_on_c, 0, 73, 0
1, 37032, Note_on_c, 0, 77, 79
1, 37049, Note_on_c, 1, 61, 0
1, 37055, Note_on_c, 0, 77, 0
1, 37056, Note_on_c, 0, 75, 80
1, 37056, Note_on_c, 1, 49, 76
1, 37079, Note_on_c, 0, 75, 0
1, 37080, Note_on_c, 0, 73, 81
1, 37101, Note_on_c, 1, 49, 0
1, 37103, Note_on_c, 0, 73, 0
1, 37104, Note_on_c, 0, 72, 82
1, 37104, Note_on_c, 1, 50, 77
1, 37127, Note_on_c, 0, 72, 0
1, 37128, Note_on_c, 0, 70, 83
1, 37149, Note_on_c, 1, 50, 0
1, 37151, Note_on_c, 0, 70, 0
1, 37152, Note_on_c, 0, 68, 84
1, 37176, Note_on_c, 1, 51, 75
1, 37199, Note_on_c, 1, 51, 0
1, 37200, Note_on_c, 1, 53, 75
1, 37223, Note_on_c, 1, 53, 0
1, 37224, Note_on_c, 1, 50, 76
1, 37247, Note_on_c, 1, 50, 0
1, 37248, Note_on_c, 0, 68, 0
1, 37248, Note_on_c, 0, 67, 76
1, 37248, Note_on_c, 1, 51, 77
1, 37254, Note_on_c, 0, 67, 0
1, 37254, Note_on_c, 0, 68, 76
1, 37260, Note_on_c, 0, 68, 0
1, 37260, Note_on_c, 0, 67, 76
1, 37271, Note_on_c, 1, 51, 0
1, 37272, Note_on_c, 1, 53, 78
1, 37295, Note_on_c, 1, 53, 0
1, 37296, Note_on_c, 1, 55, 79
1, 37319, Note_on_c, 1, 55, 0
1, 37320, Note_on_c, 1, 56, 79
1, 37339, Note_on_c, 0, 67, 0
1, 37343, Note_on_c, 1, 56, 0
1, 37344, Note_on_c, 1, 58, 80
1, 37367, Note_on_c, 1, 58, 0
1, 37368, Note_on_c, 1, 60, 81
1, 37391, Note_on_c, 1, 60, 0
1, 37392, Note_on_c, 1, 61, 82
1, 37415, Note_on_c, 1, 61, 0
1, 37416, Note_on_c, 1, 63, 83
1, 37439, Note_on_c, 1, 63, 0
1, 37440, Note_on_c, 1, 61, 84
1, 37464, Note_on_c, 0, 68, 75
1, 37487, Note_on_c, 0, 68, 0
1, 37488, Note_on_c, 0, 70, 75
1, 37511, Note_on_c, 0, 70, 0
1, 37512, Note_on_c, 0, 67, 76
1, 37535, Note_on_c, 0, 67, 0
1, 37536, Note_on_c, 0, 68, 77
1, 37536, Note_on_c, 1, 61, 0
1, 37536, Note_on_c, 1, 60, 76
1, 37542, Note_on_c, 1, 60, 0
1, 37542, Note_on_c, 1, 61, 76
1, 37548, Note_on_c, 1, 61, 0
1, 37548, Note_on_c, 1, 60, 76
1, 37559, Note_on_c, 0, 68, 0
1, 37560, Note_on_c, 0, 70, 78
1, 37583, Note_on_c, 0, 70, 0
1, 37584, Note_on_c, 0, 72, 79
1, 37607, Note_on_c, 0, 72, 0
1, 37608, Note_on_c, 0, 73, 79
1, 37627, Note_on_c, 1, 60, 0
1, 37631, Note_on_c, 0, 73, 0
1, 37632, Note_on_c, 0, 75, 80
1, 37656, Note_on_c, 0, 75, 0
1, 37656, Note_on_c, 0, 77, 81
1, 37679, Note_on_c, 0, 77, 0
1, 37680, Note_on_c, 0, 73, 82
1, 37703, Note_on_c, 0, 73, 0
1, 37704, Note_on_c, 0, 70, 83
1, 37727, Note_on_c, 0, 70, 0
1, 37728, Note_on_c, 0, 68, 84
1, 37752, Note_on_c, 1, 51, 75
1, 37775, Note_on_c, 1, 51, 0
1, 37776, Note_on_c, 1, 53, 75
1, 37799, Note_on_c, 1, 53, 0
1, 37800, Note_on_c, 1, 50, 76
1, 37823, Note_on_c, 1, 50, 0
1, 37824, Note_on_c, 0, 68, 0
1, 37824, Note_on_c, 0, 67, 76
1, 37824, Note_on_c, 1, 51, 77
1, 37830, Note_on_c, 0, 67, 0
1, 37830, Note_on_c, 0, 68, 76
1, 37836, Note_on_c, 0, 68, 0
1, 37836, Note_on_c, 0, 67, 76
1, 37847, Note_on_c, 1, 51, 0
1, 37848, Note_on_c, 1, 53, 78
1, 37871, Note_on_c, 1, 53, 0
1, 37872, Note_on_c, 1, 55, 79
1, 37895, Note_on_c, 1, 55, 0
1, 37896, Note_on_c, 1, 56, 79
1, 37915, Note_on_c, 0, 67, 0
1, 37919, Note_on_c, 1, 56, 0
1, 37920, Note_on_c, 1, 58, 80
1, 37943, Note_on_c, 1, 58, 0
1, 37944, Note_on_c, 1, 60, 81
1, 37967, Note_on_c, 1, 60, 0
1, 37968, Note_on_c, 1, 61, 82
1, 37991, Note_on_c, 1, 61, 0
1, 37992, Note_on_c, 1, 63, 83
1, 38015, Note_on_c, 1, 63, 0
1, 38016, Note_on_c, 1, 61, 84
1, 38040, Note_on_c, 0, 68, 75
1, 38063, Note_on_c, 0, 68, 0
1, 38064, Note_on_c, 0, 70, 75
1, 38087, Note_on_c, 0, 70, 0
1, 38088, Note_on_c, 0, 67, 76
1, 38111, Note_on_c, 0, 67, 0
1, 38112, Note_on_c, 0, 68, 77
1, 38112, Note_on_c, 1, 61, 0
1, 38112, Note_on_c, 1, 60, 76
1, 38118, Note_on_c, 1, 60, 0
1, 38118, Note_on_c, 1, 61, 76
1, 38124, Note_on_c, 1, 61, 0
1, 38124, Note_on_c, 1, 60, 76
1, 38135, Note_on_c, 0, 68, 0
1, 38136, Note_on_c, 0, 70, 78
1, 38159, Note_on_c, 0, 70, 0
1, 38160, Note_on_c, 0, 72, 79
1, 38183, Note_on_c, 0, 72, 0
1, 38184, Note_on_c, 0, 73, 79
1, 38203, Note_on_c, 1, 60, 0
1, 38207, Note_on_c, 0, 73, 0
1, 38208, Note_on_c, 0, 75, 80
1, 38231, Note_on_c, 0, 75, 0
1, 38232, Note_on_c, 0, 77, 81
1, 38255, Note_on_c, 0, 77, 0
1, 38256, Note_on_c, 0, 78, 82
1, 38279, Note_on_c, 0, 78, 0
1, 38280, Note_on_c, 0, 80, 83
1, 38303, Note_on_c, 0, 80, 0
1, 38304, Note_on_c, 0, 78, 84
1, 38304, Note_on_c, 0, 75, 84
1, 38328, Note_on_c, 1, 49, 75
1, 38351, Note_on_c, 1, 49, 0
1, 38352, Note_on_c, 1, 51, 75
1, 38375, Note_on_c, 1, 51, 0
1, 38376, Note_on_c, 1, 48, 76
1, 38393, Note_on_c, 0, 78, 0
1, 38393, Note_on_c, 0, 75, 0
1, 38399, Note_on_c, 1, 48, 0
1, 38400, Note_on_c, 0, 77, 103
1, 38400, Note_on_c, 0, 73, 103
1, 38400, Note_on_c, 1, 49, 77
1, 38423, Note_on_c, 1, 49, 0
1, 38424, Note_on_c, 1, 51, 78
1, 38447, Note_on_c, 1, 51, 0
1, 38448, Note_on_c, 1, 53, 79
1, 38471, Note_on_c, 1, 53, 0
1, 38472, Note_on_c, 1, 54, 79
1, 38495, Note_on_c, 1, 54, 0
1, 38496, Note_on_c, 1, 56, 80
1, 38519, Note_on_c, 1, 56, 0
1, 38520, Note_on_c, 1, 58, 81
1, 38543, Note_on_c, 1, 58, 0
1, 38544, Note_on_c, 1, 60, 82
1, 38567, Note_on_c, 1, 60, 0
1, 38568, Note_on_c, 1, 61, 83
1, 38591, Note_on_c, 1, 61, 0
1, 38592, Note_on_c, 0, 77, 0
1, 38592, Note_on_c, 0, 75, 84
1, 38616, Note_on_c, 1, 56, 75
1, 38639, Note_on_c, 1, 56, 0
1, 38640, Note_on_c, 1, 58, 75
1, 38663, Note_on_c, 1, 58, 0
1, 38664, Note_on_c, 1, 55, 76
1, 38681, Note_on_c, 0, 75, 0
1, 38681, Note_on_c, 0, 73, 0
1, 38687, Note_on_c, 1, 55, 0
1, 38688, Note_on_c, 0, 75, 103
1, 38688, Note_on_c, 0, 72, 103
1, 38688, Note_on_c, 1, 56, 77
1, 38711, Note_on_c, 1, 56, 0
1, 38712, Note_on_c, 1, 58, 78
1, 38735, Note_on_c, 1, 58, 0
1, 38736, Note_on_c, 1, 60, 79
1, 38759, Note_on_c, 1, 60, 0
1, 38760, Note_on_c, 1, 61, 79
1, 38783, Note_on_c, 1, 61, 0
1, 38784, Note_on_c, 1, 63, 80
1, 38807, Note_on_c, 1, 63, 0
1, 38808, Note_on_c, 1, 65, 81
1, 38831, Note_on_c, 1, 65, 0
1, 38832, Note_on_c, 1, 67, 82
1, 38855, Note_on_c, 1, 67, 0
1, 38856, Note_on_c, 1, 68, 83
1, 38879, Note_on_c, 1, 68, 0
1, 38880, Note_on_c, 0, 75, 0
1, 38880, Note_on_c, 0, 73, 84
1, 38904, Note_on_c, 1, 65, 84
1, 38927, Note_on_c, 1, 65, 0
1, 38928, Note_on_c, 1, 63, 84
1, 38934, Note_on_c, 1, 63, 0
1, 38934, Note_on_c, 1, 65, 84
1, 38940, Note_on_c, 1, 65, 0
1, 38940, Note_on_c, 1, 63, 84
1, 38951, Note_on_c, 1, 63, 0
1, 38952, Note_on_c, 1, 61, 84
1, 38969, Note_on_c, 0, 73, 0
1, 38969, Note_on_c, 0, 72, 0
1, 38975, Note_on_c, 1, 61, 0
1, 38976, Note_on_c, 0, 73, 103
1, 38976, Note_on_c, 0, 70, 103
1, 39000, Note_on_c, 1, 67, 84
1, 39023, Note_on_c, 1, 67, 0
1, 39024, Note_on_c, 1, 65, 84
1, 39030, Note_on_c, 1, 65, 0
1, 39030, Note_on_c, 1, 67, 84
1, 39036, Note_on_c, 1, 67, 0
1, 39036, Note_on_c, 1, 65, 84
1, 39047, Note_on_c, 1, 65, 0
1, 39048, Note_on_c, 1, 63, 84
1, 39071, Note_on_c, 1, 63, 0
1, 39072, Note_on_c, 0, 73, 0
1, 39072, Note_on_c, 0, 72, 84
1, 39096, Note_on_c, 1, 68, 84
1, 39119, Note_on_c, 1, 68, 0
1, 39120, Note_on_c, 0, 70, 0
1, 39120, Note_on_c, 0, 68, 84
1, 39120, Note_on_c, 1, 65, 84
1, 39126, Note_on_c, 1, 65, 0
1, 39126, Note_on_c, 1, 67, 84
1, 39132, Note_on_c, 1, 67, 0
1, 39132, Note_on_c, 1, 65, 84
1, 39143, Note_on_c, 1, 65, 0
1, 39144, Note_on_c, 1, 62, 84
1, 39165, Note_on_c, 0, 72, 0
1, 39165, Note_on_c, 0, 68, 0
1, 39167, Note_on_c, 1, 62, 0
1, 39168, Note_on_c, 0, 70, 84
1, 39168, Note_on_c, 0, 68, 84
1, 39192, Note_on_c, 1, 51, 75
1, 39215, Note_on_c, 1, 51, 0
1, 39216, Note_on_c, 1, 53, 75
1, 39239, Note_on_c, 1, 53, 0
1, 39240, Note_on_c, 1, 50, 76
1, 39263, Note_on_c, 1, 50, 0
1, 39264, Note_on_c, 0, 68, 0
1, 39264, Note_on_c, 0, 67, 79
1, 39264, Note_on_c, 1, 51, 77
1, 39270, Note_on_c, 1, 51, 0
1, 39270, Note_on_c, 1, 53, 77
1, 39276, Note_on_c, 1, 53, 0
1, 39276, Note_on_c, 1, 51, 77
1, 39287, Note_on_c, 1, 51, 0
1, 39288, Note_on_c, 1, 53, 78
1, 39311, Note_on_c, 1, 53, 0
1, 39312, Note_on_c, 1, 55, 79
1, 39335, Note_on_c, 1, 55, 0
1, 39336, Note_on_c, 1, 56, 79
1, 39353, Note_on_c, 0, 70, 0
1, 39353, Note_on_c, 0, 67, 0
1, 39359, Note_on_c, 1, 56, 0
1, 39360, Note_on_c, 1, 58, 80
1, 39383, Note_on_c, 1, 58, 0
1, 39384, Note_on_c, 1, 60, 81
1, 39407, Note_on_c, 1, 60, 0
1, 39408, Note_on_c, 1, 61, 82
1, 39431, Note_on_c, 1, 61, 0
1, 39432, Note_on_c, 1, 63, 83
1, 39455, Note_on_c, 1, 63, 0
1, 39456, Note_on_c, 1, 61, 84
1, 39480, Note_on_c, 0, 68, 75
1, 39503, Note_on_c, 0, 68, 0
1, 39504, Note_on_c, 0, 70, 76
1, 39527, Note_on_c, 0, 70, 0
1, 39528, Note_on_c, 0, 67, 77
1, 39551, Note_on_c, 0, 67, 0
1, 39552, Note_on_c, 0, 68, 78
1, 39552, Note_on_c, 1, 61, 0
1, 39552, Note_on_c, 1, 60, 76
1, 39558, Note_on_c, 1, 60, 0
1, 39558, Note_on_c, 1, 61, 76
1, 39564, Note_on_c, 1, 61, 0
1, 39564, Note_on_c, 1, 60, 76
1, 39575, Note_on_c, 0, 68, 0
1, 39576, Note_on_c, 0, 70, 80
1, 39599, Note_on_c, 0, 70, 0
1, 39600, Note_on_c, 0, 72, 81
1, 39623, Note_on_c, 0, 72, 0
1, 39624, Note_on_c, 0, 73, 82
1, 39647, Note_on_c, 0, 73, 0
1, 39648, Note_on_c, 0, 75, 75
1, 39672, Note_on_c, 0, 66, 84
1, 39693, Note_on_c, 1, 60, 0
1, 39695, Note_on_c, 0, 66, 0
1, 39696, Note_on_c, 0, 68, 82
1, 39696, Note_on_c, 1, 58, 75
1, 39719, Note_on_c, 0, 68, 0
1, 39720, Note_on_c, 0, 66, 81
1, 39741, Note_on_c, 1, 58, 0
1, 39743, Note_on_c, 0, 66, 0
1, 39744, Note_on_c, 0, 65, 80
1, 39768, Note_on_c, 1, 57, 75
1, 39791, Note_on_c, 1, 57, 0
1, 39792, Note_on_c, 1, 60, 76
1, 39815, Note_on_c, 1, 60, 0
1, 39816, Note_on_c, 1, 57, 78
1, 39833, Note_on_c, 0, 75, 0
1, 39833, Note_on_c, 0, 65, 0
1, 39839, Note_on_c, 1, 57, 0
1, 39840, Note_on_c, 0, 73, 94
1, 39840, Note_on_c, 0, 65, 75
1, 39840, Note_on_c, 1, 58, 80
1, 39863, Note_on_c, 1, 58, 0
1, 39864, Note_on_c, 1, 60, 82
1, 39887, Note_on_c, 1, 60, 0
1, 39888, Note_on_c, 1, 61, 84
1, 39911, Note_on_c, 1, 61, 0
1, 39912, Note_on_c, 1, 60, 82
1, 39935, Note_on_c, 1, 60, 0
1, 39936, Note_on_c, 1, 58, 81
1, 39959, Note_on_c, 1, 58, 0
1, 39960, Note_on_c, 1, 56, 79
1, 39983, Note_on_c, 1, 56, 0
1, 39984, Note_on_c, 1, 55, 78
1, 39990, Note_on_c, 1, 55, 0
1, 39990, Note_on_c, 1, 56, 78
1, 39996, Note_on_c, 1, 56, 0
1, 39996, Note_on_c, 1, 55, 78
1, 40007, Note_on_c, 1, 55, 0
1, 40008, Note_on_c, 1, 53, 76
1, 40017, Note_on_c, 0, 65, 0
1, 40031, Note_on_c, 1, 53, 0
1, 40032, Note_on_c, 0, 63, 75
1, 40056, Note_on_c, 1, 55, 75
1, 40079, Note_on_c, 1, 55, 0
1, 40080, Note_on_c, 1, 58, 76
1, 40103, Note_on_c, 1, 58, 0
1, 40104, Note_on_c, 1, 55, 78
1, 40121, Note_on_c, 0, 73, 0
1, 40121, Note_on_c, 0, 63, 0
1, 40127, Note_on_c, 1, 55, 0
1, 40128, Note_on_c, 0, 72, 94
1, 40128, Note_on_c, 0, 63, 75
1, 40128, Note_on_c, 1, 56, 80
1, 40151, Note_on_c, 1, 56, 0
1, 40152, Note_on_c, 1, 58, 82
1, 40175, Note_on_c, 1, 58, 0
1, 40176, Note_on_c, 1, 60, 84
1, 40199, Note_on_c, 1, 60, 0
1, 40200, Note_on_c, 1, 58, 82
1, 40223, Note_on_c, 1, 58, 0
1, 40224, Note_on_c, 1, 56, 81
1, 40230, Note_on_c, 1, 56, 0
1, 40230, Note_on_c, 1, 58, 81
1, 40236, Note_on_c, 1, 58, 0
1, 40236, Note_on_c, 1, 56, 81
1, 40247, Note_on_c, 1, 56, 0
1, 40248, Note_on_c, 1, 55, 79
1, 40271, Note_on_c, 1, 55, 0
1, 40272, Note_on_c, 1, 53, 78
1, 40278, Note_on_c, 1, 53, 0
1, 40278, Note_on_c, 1, 55, 78
1, 40284, Note_on_c, 1, 55, 0
1, 40284, Note_on_c, 1, 53, 78
1, 40295, Note_on_c, 1, 53, 0
1, 40296, Note_on_c, 1, 51, 76
1, 40305, Note_on_c, 0, 72, 0
1, 40305, Note_on_c, 0, 63, 0
1, 40319, Note_on_c, 1, 51, 0
1, 40320, Note_on_c, 1, 49, 57
1, 40344, Note_on_c, 0, 64, 75
1, 40368, Note_on_c, 0, 64, 0
1, 40368, Note_on_c, 0, 65, 76
1, 40378, Note_on_c, 0, 65, 0
1, 40392, Note_on_c, 0, 69, 78
1, 40416, Note_on_c, 0, 69, 0
1, 40416, Note_on_c, 0, 70, 80
1, 40416, Note_on_c, 1, 53, 75
1, 40426, Note_on_c, 0, 70, 0
1, 40440, Note_on_c, 0, 76, 82
1, 40464, Note_on_c, 0, 76, 0
1, 40464, Note_on_c, 0, 77, 84
1, 40487, Note_on_c, 0, 77, 0
1, 40488, Note_on_c, 0, 72, 82
1, 40505, Note_on_c, 1, 53, 0
1, 40512, Note_on_c, 0, 72, 0
1, 40512, Note_on_c, 0, 73, 81
1, 40512, Note_on_c, 1, 58, 75
1, 40535, Note_on_c, 0, 73, 0
1, 40536, Note_on_c, 0, 69, 79
1, 40560, Note_on_c, 0, 69, 0
1, 40560, Note_on_c, 0, 70, 78
1, 40583, Note_on_c, 0, 70, 0
1, 40584, Note_on_c, 0, 65, 76
1, 40585, Note_on_c, 1, 49, 0
1, 40601, Note_on_c, 1, 58, 0
1, 40607, Note_on_c, 0, 65, 0
1, 40608, Note_on_c, 1, 48, 57
1, 40632, Note_on_c, 0, 62, 75
1, 40656, Note_on_c, 0, 62, 0
1, 40656, Note_on_c, 0, 63, 76
1, 40666, Note_on_c, 0, 63, 0
1, 40680, Note_on_c, 0, 67, 78
1, 40704, Note_on_c, 0, 67, 0
1, 40704, Note_on_c, 0, 68, 80
1, 40704, Note_on_c, 1, 51, 75
1, 40714, Note_on_c, 0, 68, 0
1, 40728, Note_on_c, 0, 74, 82
1, 40752, Note_on_c, 0, 74, 0
1, 40752, Note_on_c, 0, 75, 84
1, 40762, Note_on_c, 0, 75, 0
1, 40776, Note_on_c, 0, 83, 82
1, 40793, Note_on_c, 1, 51, 0
1, 40800, Note_on_c, 0, 83, 0
1, 40800, Note_on_c, 0, 84, 81
1, 40800, Note_on_c, 1, 56, 75
1, 40823, Note_on_c, 0, 84, 0
1, 40824, Note_on_c, 0, 79, 79
1, 40848, Note_on_c, 0, 79, 0
1, 40848, Note_on_c, 0, 80, 78
1, 40871, Note_on_c, 0, 80, 0
1, 40872, Note_on_c, 0, 75, 76
1, 40873, Note_on_c, 1, 48, 0
1, 40895, Note_on_c, 0, 75, 0
1, 40896, Note_on_c, 0, 76, 75
1, 40896, Note_on_c, 1, 49, 57
1, 40919, Note_on_c, 0, 76, 0
1, 40920, Note_on_c, 0, 77, 75
1, 40943, Note_on_c, 0, 77, 0
1, 40944, Note_on_c, 0, 73, 75
1, 40967, Note_on_c, 0, 73, 0
1, 40968, Note_on_c, 0, 70, 75
1, 40985, Note_on_c, 1, 49, 0
1, 40991, Note_on_c, 0, 70, 0
1, 40992, Note_on_c, 0, 73, 75
1, 40992, Note_on_c, 1, 51, 57
1, 41015, Note_on_c, 0, 73, 0
1, 41016, Note_on_c, 0, 72, 75
1, 41039, Note_on_c, 0, 72, 0
1, 41040, Note_on_c, 0, 75, 75
1, 41063, Note_on_c, 0, 75, 0
1, 41064, Note_on_c, 0, 68, 75
1, 41073, Note_on_c, 1, 56, 0
1, 41087, Note_on_c, 0, 68, 0
1, 41088, Note_on_c, 0, 72, 75
1, 41088, Note_on_c, 1, 55, 75
1, 41111, Note_on_c, 0, 72, 0
1, 41112, Note_on_c, 0, 70, 71
1, 41133, Note_on_c, 1, 55, 0
1, 41135, Note_on_c, 0, 70, 0
1, 41136, Note_on_c, 0, 68, 68
1, 41136, Note_on_c, 1, 61, 68
1, 41142, Note_on_c, 0, 68, 0
1, 41142, Note_on_c, 0, 70, 68
1, 41148, Note_on_c, 0, 70, 0
1, 41148, Note_on_c, 0, 68, 68
1, 41159, Note_on_c, 0, 68, 0
1, 41160, Note_on_c, 0, 67, 64
1, 41169, Note_on_c, 1, 51, 0
1, 41181, Note_on_c, 1, 61, 0
1, 41183, Note_on_c, 0, 67, 0
1, 41184, Note_on_c, 0, 68, 61
1, 41208, Note_on_c, 0, 60, 61
1, 41208, Note_on_c, 1, 56, 61
1, 41231, Note_on_c, 0, 60, 0
1, 41231, Note_on_c, 1, 56, 0
1, 41232, Note_on_c, 0, 61, 61
1, 41232, Note_on_c, 1, 58, 61
1, 41255, Note_on_c, 0, 61, 0
1, 41255, Note_on_c, 1, 58, 0
1, 41256, Note_on_c, 0, 60, 61
1, 41256, Note_on_c, 1, 56, 61
1, 41279, Note_on_c, 0, 60, 0
1, 41279, Note_on_c, 1, 56, 0
1, 41280, Note_on_c, 0, 63, 61
1, 41280, Note_on_c, 1, 60, 61
1, 41303, Note_on_c, 0, 63, 0
1, 41303, Note_on_c, 1, 60, 0
1, 41304, Note_on_c, 0, 61, 61
1, 41304, Note_on_c, 1, 58, 61
1, 41327, Note_on_c, 0, 61, 0
1, 41327, Note_on_c, 1, 58, 0
1, 41328, Note_on_c, 0, 65, 61
1, 41328, Note_on_c, 1, 61, 61
1, 41351, Note_on_c, 0, 65, 0
1, 41351, Note_on_c, 1, 61, 0
1, 41352, Note_on_c, 0, 63, 61
1, 41352, Note_on_c, 1, 60, 61
1, 41375, Note_on_c, 0, 63, 0
1, 41375, Note_on_c, 1, 60, 0
1, 41376, Note_on_c, 0, 65, 61
1, 41376, Note_on_c, 1, 61, 61
1, 41399, Note_on_c, 0, 68, 0
1, 41399, Note_on_c, 0, 65, 0
1, 41400, Note_on_c, 0, 73, 60
1, 41400, Note_on_c, 0, 70, 60
1, 41421, Note_on_c, 1, 61, 0
1, 41423, Note_on_c, 0, 73, 0
1, 41423, Note_on_c, 0, 70, 0
1, 41424, Note_on_c, 0, 72, 60
1, 41424, Note_on_c, 0, 68, 59
1, 41424, Note_on_c, 1, 63, 59
1, 41447, Note_on_c, 0, 72, 0
1, 41447, Note_on_c, 0, 68, 0
1, 41448, Note_on_c, 0, 70, 60
1, 41448, Note_on_c, 0, 67, 58
1, 41469, Note_on_c, 1, 63, 0
1, 41471, Note_on_c, 0, 70, 0
1, 41471, Note_on_c, 0, 67, 0
1, 41472, Note_on_c, 0, 68, 59
1, 41496, Note_on_c, 0, 60, 57
1, 41496, Note_on_c, 1, 44, 57
1, 41519, Note_on_c, 0, 60, 0
1, 41519, Note_on_c, 1, 44, 0
1, 41520, Note_on_c, 0, 61, 57
1, 41520, Note_on_c, 1, 46, 57
1, 41543, Note_on_c, 0, 61, 0
1, 41543, Note_on_c, 1, 46, 0
1, 41544, Note_on_c, 0, 60, 57
1, 41544, Note_on_c, 1, 44, 57
1, 41567, Note_on_c, 0, 60, 0
1, 41567, Note_on_c, 1, 44, 0
1, 41568, Note_on_c, 0, 63, 57
1, 41568, Note_on_c, 1, 48, 57
1, 41591, Note_on_c, 0, 63, 0
1, 41591, Note_on_c, 1, 48, 0
1, 41592, Note_on_c, 0, 61, 57
1, 41592, Note_on_c, 1, 46, 57
1, 41615, Note_on_c, 0, 61, 0
1, 41615, Note_on_c, 1, 46, 0
1, 41616, Note_on_c, 0, 65, 57
1, 41616, Note_on_c, 1, 49, 57
1, 41639, Note_on_c, 0, 65, 0
1, 41639, Note_on_c, 1, 49, 0
1, 41640, Note_on_c, 0, 63, 57
1, 41640, Note_on_c, 1, 48, 57
1, 41663, Note_on_c, 0, 63, 0
1, 41663, Note_on_c, 1, 48, 0
1, 41664, Note_on_c, 0, 65, 57
1, 41664, Note_on_c, 1, 49, 57
1, 41687, Note_on_c, 0, 68, 0
1, 41687, Note_on_c, 0, 65, 0
1, 41688, Note_on_c, 0, 61, 57
1, 41688, Note_on_c, 0, 58, 57
1, 41709, Note_on_c, 1, 49, 0
1, 41711, Note_on_c, 0, 61, 0
1, 41711, Note_on_c, 0, 58, 0
1, 41712, Note_on_c, 0, 60, 57
1, 41712, Note_on_c, 0, 56, 57
1, 41712, Note_on_c, 1, 51, 57
1, 41735, Note_on_c, 0, 60, 0
1, 41735, Note_on_c, 0, 56, 0
1, 41736, Note_on_c, 0, 58, 57
1, 41736, Note_on_c, 0, 55, 57
1, 41757, Note_on_c, 1, 51, 0
1, 41759, Note_on_c, 0, 58, 0
1, 41759, Note_on_c, 0, 55, 0
1, 41760, Note_on_c, 0, 58, 57
1, 41760, Note_on_c, 0, 55, 57
1, 41760, Note_on_c, 1, 44, 57
1, 41952, Note_on_c, 0, 58, 0
1, 41952, Note_on_c, 0, 60, 57
1, 41952, Note_on_c, 0, 55, 0
1, 41952, Note_on_c, 0, 56, 57
1, 42025, Note_on_c, 0, 60, 0
1, 42025, Note_on_c, 0, 56, 0
1, 42025, Note_on_c, 1, 44, 0
1, 42048, Note_on_c, 1, 44, 0
1, 42225, Note_on_c, 1, 44, 0
1, 42235, End_track
0, 0, End_of_file