0, 0, Header, 0, 1, 96
1, 0, Start_track
1, 0, Tempo, 100000
1, 336, Note_on_c, 0, 70, 75
1, 381, Note_on_c, 0, 70, 0
1, 384, Note_on_c, 0, 65, 75
1, 384, Note_on_c, 0, 62, 75
1, 473, Note_on_c, 0, 65, 0
1, 473, Note_on_c, 0, 62, 0
1, 480, Note_on_c, 1, 46, 75
1, 528, Note_on_c, 0, 70, 75
1, 569, Note_on_c, 1, 46, 0
1, 573, Note_on_c, 0, 70, 0
1, 576, Note_on_c, 0, 67, 75
1, 576, Note_on_c, 0, 63, 75
1, 665, Note_on_c, 0, 67, 0
1, 665, Note_on_c, 0, 63, 0
1, 672, Note_on_c, 1, 46, 75
1, 720, Note_on_c, 0, 70, 75
1, 761, Note_on_c, 1, 46, 0
1, 765, Note_on_c, 0, 70, 0
1, 768, Note_on_c, 0, 65, 75
1, 768, Note_on_c, 0, 62, 75
1, 816, Note_on_c, 1, 46, 75
1, 836, Note_on_c, 1, 46, 0
1, 857, Note_on_c, 0, 65, 0
1, 857, Note_on_c, 0, 62, 0
1, 864, Note_on_c, 1, 50, 75
1, 884, Note_on_c, 1, 50, 0
1, 912, Note_on_c, 1, 53, 75
1, 932, Note_on_c, 1, 53, 0
1, 960, Note_on_c, 1, 58, 75
1, 1049, Note_on_c, 1, 58, 0
1, 1056, Note_on_c, 0, 79, 75
1, 1079, Note_on_c, 0, 79, 0
1, 1080, Note_on_c, 0, 77, 75
1, 1103, Note_on_c, 0, 77, 0
1, 1104, Note_on_c, 0, 75, 76
1, 1127, Note_on_c, 0, 75, 0
1, 1128, Note_on_c, 0, 74, 76
1, 1151, Note_on_c, 0, 74, 0
1, 1152, Note_on_c, 0, 72, 77
1, 1191, Note_on_c, 0, 72, 0
1, 1248, Note_on_c, 0, 81, 80
1, 1271, Note_on_c, 0, 81, 0
1, 1272, Note_on_c, 0, 79, 80
1, 1295, Note_on_c, 0, 79, 0
1, 1296, Note_on_c, 0, 77, 80
1, 1319, Note_on_c, 0, 77, 0
1, 1320, Note_on_c, 0, 75, 80
1, 1343, Note_on_c, 0, 75, 0
1, 1344, Note_on_c, 0, 74, 80
1, 1383, Note_on_c, 0, 74, 0
1, 1440, Note_on_c, 0, 77, 80
1, 1463, Note_on_c, 0, 77, 0
1, 1464, Note_on_c, 0, 75, 79
1, 1487, Note_on_c, 0, 75, 0
1, 1488, Note_on_c, 0, 74, 79
1, 1511, Note_on_c, 0, 74, 0
1, 1512, Note_on_c, 0, 72, 78
1, 1535, Note_on_c, 0, 72, 0
1, 1536, Note_on_c, 0, 70, 78
1, 1584, Note_on_c, 1, 41, 75
1, 1604, Note_on_c, 1, 41, 0
1, 1632, Note_on_c, 1, 45, 75
1, 1652, Note_on_c, 1, 45, 0
1, 1680, Note_on_c, 1, 48, 75
1, 1700, Note_on_c, 1, 48, 0
1, 1728, Note_on_c, 0, 70, 0
1, 1728, Note_on_c, 0, 69, 75
1, 1728, Note_on_c, 1, 53, 75
1, 1773, Note_on_c, 0, 69, 0
1, 1776, Note_on_c, 0, 82, 75
1, 1817, Note_on_c, 1, 53, 0
1, 1821, Note_on_c, 0, 82, 0
1, 1824, Note_on_c, 0, 81, 75
1, 1869, Note_on_c, 0, 81, 0
1, 1872, Note_on_c, 0, 82, 75
1, 1917, Note_on_c, 0, 82, 0
1, 1920, Note_on_c, 0, 77, 75
1, 1920, Note_on_c, 0, 74, 75
1, 1968, Note_on_c, 1, 46, 75
1, 2009, Note_on_c, 0, 77, 0
1, 2009, Note_on_c, 0, 74, 0
1, 2013, Note_on_c, 1, 46, 0
1, 2016, Note_on_c, 1, 58, 75
1, 2064, Note_on_c, 0, 82, 75
1, 2105, Note_on_c, 1, 58, 0
1, 2109, Note_on_c, 0, 82, 0
1, 2112, Note_on_c, 0, 79, 75
1, 2112, Note_on_c, 0, 75, 75
1, 2160, Note_on_c, 1, 46, 75
1, 2201, Note_on_c, 0, 79, 0
1, 2201, Note_on_c, 0, 75, 0
1, 2205, Note_on_c, 1, 46, 0
1, 2208, Note_on_c, 1, 58, 75
1, 2256, Note_on_c, 0, 82, 75
1, 2297, Note_on_c, 1, 58, 0
1, 2301, Note_on_c, 0, 82, 0
1, 2304, Note_on_c, 0, 77, 75
1, 2304, Note_on_c, 0, 74, 75
1, 2352, Note_on_c, 1, 58, 75
1, 2372, Note_on_c, 1, 58, 0
1, 2393, Note_on_c, 0, 77, 0
1, 2393, Note_on_c, 0, 74, 0
1, 2400, Note_on_c, 1, 62, 75
1, 2420, Note_on_c, 1, 62, 0
1, 2448, Note_on_c, 1, 65, 75
1, 2468, Note_on_c, 1, 65, 0
1, 2496, Note_on_c, 1, 70, 75
1, 2585, Note_on_c, 1, 70, 0
1, 2592, Note_on_c, 0, 79, 75
1, 2604, Note_on_c, 0, 79, 0
1, 2604, Note_on_c, 0, 81, 75
1, 2616, Note_on_c, 0, 81, 0
1, 2616, Note_on_c, 0, 82, 91
1, 2688, Note_on_c, 0, 82, 0
1, 2688, Note_on_c, 0, 72, 75
1, 2688, Note_on_c, 1, 51, 75
1, 2688, Note_on_c, 1, 39, 75
1, 2736, Note_on_c, 0, 72, 0
1, 2736, Note_on_c, 0, 75, 77
1, 2781, Note_on_c, 0, 75, 0
1, 2784, Note_on_c, 0, 79, 80
1, 2865, Note_on_c, 1, 51, 0
1, 2865, Note_on_c, 1, 39, 0
1, 2880, Note_on_c, 1, 53, 75
1, 2880, Note_on_c, 1, 41, 75
1, 2961, Note_on_c, 0, 79, 0
1, 2976, Note_on_c, 0, 69, 76
1, 2976, Note_on_c, 0, 63, 76
1, 3057, Note_on_c, 1, 53, 0
1, 3057, Note_on_c, 1, 41, 0
1, 3065, Note_on_c, 0, 69, 0
1, 3065, Note_on_c, 0, 63, 0
1, 3072, Note_on_c, 0, 70, 75
1, 3072, Note_on_c, 0, 62, 75
1, 3072, Note_on_c, 1, 46, 75
1, 3117, Note_on_c, 1, 46, 0
1, 3120, Note_on_c, 1, 58, 75
1, 3161, Note_on_c, 0, 70, 0
1, 3161, Note_on_c, 0, 62, 0
1, 3165, Note_on_c, 1, 58, 0
1, 3168, Note_on_c, 1, 46, 75
1, 3213, Note_on_c, 1, 46, 0
1, 3216, Note_on_c, 1, 58, 75
1, 3261, Note_on_c, 1, 58, 0
1, 3264, Note_on_c, 1, 46, 75
1, 3309, Note_on_c, 1, 46, 0
1, 3312, Note_on_c, 1, 58, 75
1, 3357, Note_on_c, 1, 58, 0
1, 3360, Note_on_c, 0, 70, 75
1, 3360, Note_on_c, 0, 62, 75
1, 3360, Note_on_c, 1, 46, 75
1, 3399, Note_on_c, 0, 70, 0
1, 3399, Note_on_c, 0, 62, 0
1, 3405, Note_on_c, 1, 46, 0
1, 3408, Note_on_c, 1, 58, 75
1, 3453, Note_on_c, 1, 58, 0
1, 3456, Note_on_c, 0, 72, 91
1, 3456, Note_on_c, 0, 63, 91
1, 3456, Note_on_c, 1, 46, 75
1, 3501, Note_on_c, 1, 46, 0
1, 3504, Note_on_c, 1, 58, 75
1, 3549, Note_on_c, 1, 58, 0
1, 3552, Note_on_c, 0, 72, 0
1, 3552, Note_on_c, 0, 63, 0
1, 3552, Note_on_c, 0, 70, 76
1, 3552, Note_on_c, 0, 62, 76
1, 3552, Note_on_c, 1, 46, 75
1, 3591, Note_on_c, 0, 70, 0
1, 3591, Note_on_c, 0, 62, 0
1, 3597, Note_on_c, 1, 46, 0
1, 3600, Note_on_c, 1, 58, 75
1, 3645, Note_on_c, 1, 58, 0
1, 3648, Note_on_c, 0, 74, 93
1, 3648, Note_on_c, 0, 65, 93
1, 3648, Note_on_c, 1, 46, 75
1, 3693, Note_on_c, 1, 46, 0
1, 3696, Note_on_c, 1, 58, 75
1, 3741, Note_on_c, 1, 58, 0
1, 3744, Note_on_c, 0, 74, 0
1, 3744, Note_on_c, 0, 65, 0
1, 3744, Note_on_c, 0, 72, 78
1, 3744, Note_on_c, 0, 63, 78
1, 3744, Note_on_c, 1, 46, 75
1, 3783, Note_on_c, 0, 72, 0
1, 3783, Note_on_c, 0, 63, 0
1, 3789, Note_on_c, 1, 46, 0
1, 3792, Note_on_c, 1, 58, 75
1, 3837, Note_on_c, 1, 58, 0
1, 3840, Note_on_c, 0, 75, 96
1, 3840, Note_on_c, 0, 67, 96
1, 3840, Note_on_c, 1, 46, 75
1, 3885, Note_on_c, 1, 46, 0
1, 3888, Note_on_c, 1, 58, 75
1, 3933, Note_on_c, 1, 58, 0
1, 3936, Note_on_c, 1, 46, 75
1, 3981, Note_on_c, 1, 46, 0
1, 3984, Note_on_c, 0, 75, 0
1, 3984, Note_on_c, 0, 67, 0
1, 3984, Note_on_c, 0, 74, 77
1, 3984, Note_on_c, 0, 65, 77
1, 3984, Note_on_c, 1, 58, 75
1, 4029, Note_on_c, 0, 74, 0
1, 4029, Note_on_c, 0, 65, 0
1, 4029, Note_on_c, 1, 58, 0
1, 4032, Note_on_c, 0, 72, 76
1, 4032, Note_on_c, 0, 63, 76
1, 4032, Note_on_c, 1, 46, 75
1, 4077, Note_on_c, 1, 46, 0
1, 4080, Note_on_c, 1, 58, 75
1, 4121, Note_on_c, 0, 72, 0
1, 4121, Note_on_c, 0, 63, 0
1, 4125, Note_on_c, 1, 58, 0
1, 4128, Note_on_c, 0, 74, 75
1, 4128, Note_on_c, 0, 70, 75
1, 4128, Note_on_c, 1, 46, 75
1, 4167, Note_on_c, 0, 74, 0
1, 4167, Note_on_c, 0, 70, 0
1, 4173, Note_on_c, 1, 46, 0
1, 4176, Note_on_c, 1, 58, 75
1, 4221, Note_on_c, 1, 58, 0
1, 4224, Note_on_c, 0, 75, 91
1, 4224, Note_on_c, 0, 72, 91
1, 4224, Note_on_c, 1, 46, 75
1, 4269, Note_on_c, 1, 46, 0
1, 4272, Note_on_c, 1, 58, 75
1, 4317, Note_on_c, 1, 58, 0
1, 4320, Note_on_c, 0, 75, 0
1, 4320, Note_on_c, 0, 72, 0
1, 4320, Note_on_c, 0, 74, 76
1, 4320, Note_on_c, 0, 70, 76
1, 4320, Note_on_c, 1, 46, 75
1, 4359, Note_on_c, 0, 74, 0
1, 4359, Note_on_c, 0, 70, 0
1, 4365, Note_on_c, 1, 46, 0
1, 4368, Note_on_c, 1, 58, 75
1, 4413, Note_on_c, 1, 58, 0
1, 4416, Note_on_c, 0, 77, 93
1, 4416, Note_on_c, 0, 74, 93
1, 4416, Note_on_c, 1, 46, 75
1, 4461, Note_on_c, 1, 46, 0
1, 4464, Note_on_c, 1, 58, 75
1, 4509, Note_on_c, 1, 58, 0
1, 4512, Note_on_c, 0, 77, 0
1, 4512, Note_on_c, 0, 74, 0
1, 4512, Note_on_c, 0, 75, 78
1, 4512, Note_on_c, 0, 72, 78
1, 4512, Note_on_c, 1, 46, 75
1, 4551, Note_on_c, 0, 75, 0
1, 4551, Note_on_c, 0, 72, 0
1, 4557, Note_on_c, 1, 46, 0
1, 4560, Note_on_c, 1, 58, 75
1, 4605, Note_on_c, 1, 58, 0
1, 4608, Note_on_c, 0, 79, 96
1, 4608, Note_on_c, 0, 75, 96
1, 4608, Note_on_c, 1, 46, 75
1, 4653, Note_on_c, 1, 46, 0
1, 4656, Note_on_c, 1, 58, 75
1, 4701, Note_on_c, 1, 58, 0
1, 4704, Note_on_c, 1, 46, 75
1, 4749, Note_on_c, 1, 46, 0
1, 4752, Note_on_c, 0, 79, 0
1, 4752, Note_on_c, 0, 75, 0
1, 4752, Note_on_c, 0, 77, 77
1, 4752, Note_on_c, 0, 74, 77
1, 4752, Note_on_c, 1, 58, 75
1, 4797, Note_on_c, 0, 77, 0
1, 4797, Note_on_c, 0, 74, 0
1, 4797, Note_on_c, 1, 58, 0
1, 4800, Note_on_c, 0, 75, 76
1, 4800, Note_on_c, 0, 72, 76
1, 4800, Note_on_c, 1, 46, 75
1, 4839, Note_on_c, 0, 75, 0
1, 4839, Note_on_c, 0, 72, 0
1, 4845, Note_on_c, 1, 46, 0
1, 4848, Note_on_c, 1, 58, 75
1, 4893, Note_on_c, 1, 58, 0
1, 4896, Note_on_c, 0, 77, 75
1, 4896, Note_on_c, 0, 74, 75
1, 4896, Note_on_c, 1, 46, 75
1, 4935, Note_on_c, 0, 77, 0
1, 4935, Note_on_c, 0, 74, 0
1, 4941, Note_on_c, 1, 46, 0
1, 4944, Note_on_c, 1, 58, 75
1, 4989, Note_on_c, 1, 58, 0
1, 4992, Note_on_c, 0, 79, 91
1, 4992, Note_on_c, 0, 75, 91
1, 4992, Note_on_c, 1, 46, 75
1, 5037, Note_on_c, 1, 46, 0
1, 5040, Note_on_c, 1, 58, 75
1, 5085, Note_on_c, 1, 58, 0
1, 5088, Note_on_c, 0, 79, 0
1, 5088, Note_on_c, 0, 75, 0
1, 5088, Note_on_c, 0, 77, 76
1, 5088, Note_on_c, 0, 74, 76
1, 5088, Note_on_c, 1, 46, 76
1, 5127, Note_on_c, 0, 77, 0
1, 5127, Note_on_c, 0, 74, 0
1, 5133, Note_on_c, 1, 46, 0
1, 5136, Note_on_c, 1, 58, 76
1, 5181, Note_on_c, 1, 58, 0
1, 5184, Note_on_c, 0, 80, 93
1, 5184, Note_on_c, 0, 77, 93
1, 5184, Note_on_c, 1, 46, 77
1, 5229, Note_on_c, 1, 46, 0
1, 5232, Note_on_c, 1, 58, 78
1, 5277, Note_on_c, 1, 58, 0
1, 5280, Note_on_c, 0, 80, 0
1, 5280, Note_on_c, 0, 77, 0
1, 5280, Note_on_c, 0, 79, 78
1, 5280, Note_on_c, 0, 75, 78
1, 5280, Note_on_c, 1, 46, 78
1, 5319, Note_on_c, 0, 79, 0
1, 5319, Note_on_c, 0, 75, 0
1, 5325, Note_on_c, 1, 46, 0
1, 5328, Note_on_c, 1, 58, 79
1, 5373, Note_on_c, 1, 58, 0
1, 5376, Note_on_c, 0, 81, 96
1, 5376, Note_on_c, 0, 75, 96
1, 5376, Note_on_c, 0, 72, 96
1, 5376, Note_on_c, 1, 46, 80
1, 5421, Note_on_c, 1, 46, 0
1, 5424, Note_on_c, 1, 58, 80
1, 5469, Note_on_c, 1, 58, 0
1, 5472, Note_on_c, 1, 46, 80
1, 5517, Note_on_c, 1, 46, 0
1, 5520, Note_on_c, 0, 81, 0
1, 5520, Note_on_c, 0, 75, 0
1, 5520, Note_on_c, 0, 72, 0
1, 5520, Note_on_c, 0, 82, 80
1, 5520, Note_on_c, 0, 77, 80
1, 5520, Note_on_c, 0, 74, 80
1, 5520, Note_on_c, 1, 58, 80
1, 5565, Note_on_c, 0, 82, 0
1, 5565, Note_on_c, 0, 77, 0
1, 5565, Note_on_c, 0, 74, 0
1, 5565, Note_on_c, 1, 58, 0
1, 5568, Note_on_c, 0, 82, 80
1, 5568, Note_on_c, 0, 77, 80
1, 5568, Note_on_c, 0, 74, 80
1, 5568, Note_on_c, 1, 46, 80
1, 5607, Note_on_c, 0, 82, 0
1, 5607, Note_on_c, 0, 77, 0
1, 5607, Note_on_c, 0, 74, 0
1, 5613, Note_on_c, 1, 46, 0
1, 5616, Note_on_c, 1, 58, 80
1, 5661, Note_on_c, 1, 58, 0
1, 5664, Note_on_c, 0, 70, 80
1, 5664, Note_on_c, 0, 65, 80
1, 5664, Note_on_c, 0, 62, 80
1, 5664, Note_on_c, 1, 46, 80
1, 5703, Note_on_c, 0, 70, 0
1, 5703, Note_on_c, 0, 65, 0
1, 5703, Note_on_c, 0, 62, 0
1, 5709, Note_on_c, 1, 46, 0
1, 5712, Note_on_c, 1, 58, 80
1, 5757, Note_on_c, 1, 58, 0
1, 5760, Note_on_c, 0, 69, 96
1, 5760, Note_on_c, 0, 63, 96
1, 5760, Note_on_c, 0, 60, 96
1, 5760, Note_on_c, 1, 46, 80
1, 5805, Note_on_c, 1, 46, 0
1, 5808, Note_on_c, 1, 58, 80
1, 5853, Note_on_c, 1, 58, 0
1, 5856, Note_on_c, 1, 46, 80
1, 5901, Note_on_c, 1, 46, 0
1, 5904, Note_on_c, 0, 69, 0
1, 5904, Note_on_c, 0, 63, 0
1, 5904, Note_on_c, 0, 60, 0
1, 5904, Note_on_c, 0, 70, 80
1, 5904, Note_on_c, 0, 65, 80
1, 5904, Note_on_c, 0, 62, 80
1, 5904, Note_on_c, 1, 58, 80
1, 5949, Note_on_c, 0, 70, 0
1, 5949, Note_on_c, 0, 65, 0
1, 5949, Note_on_c, 0, 62, 0
1, 5949, Note_on_c, 1, 58, 0
1, 5952, Note_on_c, 0, 70, 80
1, 5952, Note_on_c, 0, 65, 80
1, 5952, Note_on_c, 0, 62, 80
1, 5952, Note_on_c, 1, 46, 80
1, 5991, Note_on_c, 0, 70, 0
1, 5991, Note_on_c, 0, 65, 0
1, 5991, Note_on_c, 0, 62, 0
1, 5997, Note_on_c, 1, 46, 0
1, 6000, Note_on_c, 1, 58, 80
1, 6045, Note_on_c, 1, 58, 0
1, 6048, Note_on_c, 0, 70, 80
1, 6048, Note_on_c, 0, 65, 80
1, 6048, Note_on_c, 0, 62, 80
1, 6048, Note_on_c, 1, 46, 80
1, 6087, Note_on_c, 0, 70, 0
1, 6087, Note_on_c, 0, 65, 0
1, 6087, Note_on_c, 0, 62, 0
1, 6093, Note_on_c, 1, 46, 0
1, 6096, Note_on_c, 1, 58, 80
1, 6141, Note_on_c, 1, 58, 0
1, 6144, Note_on_c, 0, 75, 96
1, 6144, Note_on_c, 0, 72, 96
1, 6144, Note_on_c, 0, 69, 96
1, 6144, Note_on_c, 1, 46, 80
1, 6189, Note_on_c, 1, 46, 0
1, 6192, Note_on_c, 1, 58, 80
1, 6237, Note_on_c, 1, 58, 0
1, 6240, Note_on_c, 1, 46, 80
1, 6285, Note_on_c, 1, 46, 0
1, 6288, Note_on_c, 0, 75, 0
1, 6288, Note_on_c, 0, 72, 0
1, 6288, Note_on_c, 0, 69, 0
1, 6288, Note_on_c, 0, 69, 78
1, 6288, Note_on_c, 0, 65, 78
1, 6288, Note_on_c, 0, 63, 78
1, 6288, Note_on_c, 1, 58, 80
1, 6333, Note_on_c, 0, 69, 0
1, 6333, Note_on_c, 0, 65, 0
1, 6333, Note_on_c, 0, 63, 0
1, 6333, Note_on_c, 1, 58, 0
1, 6336, Note_on_c, 0, 70, 77
1, 6336, Note_on_c, 0, 65, 77
1, 6336, Note_on_c, 0, 62, 77
1, 6336, Note_on_c, 1, 46, 80
1, 6375, Note_on_c, 0, 70, 0
1, 6375, Note_on_c, 0, 65, 0
1, 6375, Note_on_c, 0, 62, 0
1, 6381, Note_on_c, 1, 46, 0
1, 6384, Note_on_c, 1, 58, 80
1, 6429, Note_on_c, 1, 58, 0
1, 6432, Note_on_c, 0, 70, 76
1, 6432, Note_on_c, 0, 65, 76
1, 6432, Note_on_c, 0, 62, 76
1, 6432, Note_on_c, 1, 46, 80
1, 6471, Note_on_c, 0, 70, 0
1, 6471, Note_on_c, 0, 65, 0
1, 6471, Note_on_c, 0, 62, 0
1, 6477, Note_on_c, 1, 46, 0
1, 6480, Note_on_c, 1, 58, 80
1, 6525, Note_on_c, 1, 58, 0
1, 6528, Note_on_c, 0, 75, 91
1, 6528, Note_on_c, 0, 72, 91
1, 6528, Note_on_c, 0, 69, 91
1, 6528, Note_on_c, 1, 46, 80
1, 6573, Note_on_c, 1, 46, 0
1, 6576, Note_on_c, 1, 58, 80
1, 6621, Note_on_c, 1, 58, 0
1, 6624, Note_on_c, 1, 46, 80
1, 6669, Note_on_c, 1, 46, 0
1, 6672, Note_on_c, 0, 75, 0
1, 6672, Note_on_c, 0, 72, 0
1, 6672, Note_on_c, 0, 69, 0
1, 6672, Note_on_c, 0, 69, 72
1, 6672, Note_on_c, 0, 65, 72
1, 6672, Note_on_c, 0, 63, 72
1, 6672, Note_on_c, 1, 58, 80
1, 6717, Note_on_c, 0, 69, 0
1, 6717, Note_on_c, 0, 65, 0
1, 6717, Note_on_c, 0, 63, 0
1, 6717, Note_on_c, 1, 58, 0
1, 6720, Note_on_c, 0, 70, 71
1, 6720, Note_on_c, 0, 65, 71
1, 6720, Note_on_c, 0, 62, 71
1, 6720, Note_on_c, 1, 46, 80
1, 6759, Note_on_c, 0, 70, 0
1, 6759, Note_on_c, 0, 65, 0
1, 6759, Note_on_c, 0, 62, 0
1, 6809, Note_on_c, 1, 46, 0
1, 6816, Note_on_c, 0, 84, 97
1, 6828, Note_on_c, 0, 84, 0
1, 6828, Note_on_c, 0, 82, 97
1, 6840, Note_on_c, 0, 82, 0
1, 6840, Note_on_c, 0, 81, 97
1, 6852, Note_on_c, 0, 81, 0
1, 6852, Note_on_c, 0, 82, 113
1, 6942, Note_on_c, 0, 82, 0
1, 6944, Note_on_c, 0, 86, 80
1, 6974, Note_on_c, 0, 86, 0
1, 6976, Note_on_c, 0, 84, 80
1, 7006, Note_on_c, 0, 84, 0
1, 7008, Note_on_c, 0, 82, 80
1, 7038, Note_on_c, 0, 82, 0
1, 7040, Note_on_c, 0, 84, 80
1, 7070, Note_on_c, 0, 84, 0
1, 7072, Note_on_c, 0, 86, 80
1, 7102, Note_on_c, 0, 86, 0
1, 7104, Note_on_c, 0, 79, 80
1, 7134, Note_on_c, 0, 79, 0
1, 7136, Note_on_c, 0, 82, 80
1, 7166, Note_on_c, 0, 82, 0
1, 7168, Note_on_c, 0, 81, 80
1, 7198, Note_on_c, 0, 81, 0
1, 7200, Note_on_c, 0, 79, 80
1, 7230, Note_on_c, 0, 79, 0
1, 7232, Note_on_c, 0, 81, 80
1, 7262, Note_on_c, 0, 81, 0
1, 7264, Note_on_c, 0, 82, 80
1, 7294, Note_on_c, 0, 82, 0
1, 7296, Note_on_c, 0, 75, 70
1, 7296, Note_on_c, 1, 51, 80
1, 7326, Note_on_c, 0, 75, 0
1, 7326, Note_on_c, 1, 51, 0
1, 7328, Note_on_c, 0, 79, 70
1, 7328, Note_on_c, 1, 55, 80
1, 7358, Note_on_c, 0, 79, 0
1, 7358, Note_on_c, 1, 55, 0
1, 7360, Note_on_c, 0, 77, 70
1, 7360, Note_on_c, 1, 53, 80
1, 7390, Note_on_c, 0, 77, 0
1, 7390, Note_on_c, 1, 53, 0
1, 7392, Note_on_c, 0, 75, 71
1, 7392, Note_on_c, 1, 51, 81
1, 7422, Note_on_c, 0, 75, 0
1, 7422, Note_on_c, 1, 51, 0
1, 7424, Note_on_c, 0, 77, 71
1, 7424, Note_on_c, 1, 53, 81
1, 7454, Note_on_c, 0, 77, 0
1, 7454, Note_on_c, 1, 53, 0
1, 7456, Note_on_c, 0, 79, 71
1, 7456, Note_on_c, 1, 55, 82
1, 7486, Note_on_c, 0, 79, 0
1, 7486, Note_on_c, 1, 55, 0
1, 7488, Note_on_c, 0, 72, 72
1, 7488, Note_on_c, 1, 48, 82
1, 7518, Note_on_c, 0, 72, 0
1, 7518, Note_on_c, 1, 48, 0
1, 7520, Note_on_c, 0, 75, 72
1, 7520, Note_on_c, 1, 51, 83
1, 7550, Note_on_c, 0, 75, 0
1, 7550, Note_on_c, 1, 51, 0
1, 7552, Note_on_c, 0, 74, 73
1, 7552, Note_on_c, 1, 50, 83
1, 7582, Note_on_c, 0, 74, 0
1, 7582, Note_on_c, 1, 50, 0
1, 7584, Note_on_c, 0, 72, 73
1, 7584, Note_on_c, 1, 48, 84
1, 7614, Note_on_c, 0, 72, 0
1, 7614, Note_on_c, 1, 48, 0
1, 7616, Note_on_c, 0, 74, 73
1, 7616, Note_on_c, 1, 50, 84
1, 7646, Note_on_c, 0, 74, 0
1, 7646, Note_on_c, 1, 50, 0
1, 7648, Note_on_c, 0, 75, 74
1, 7648, Note_on_c, 1, 51, 85
1, 7678, Note_on_c, 0, 75, 0
1, 7678, Note_on_c, 1, 51, 0
1, 7680, Note_on_c, 1, 53, 96
1, 7680, Note_on_c, 1, 41, 96
1, 7704, Note_on_c, 0, 57, 75
1, 7719, Note_on_c, 1, 53, 0
1, 7719, Note_on_c, 1, 41, 0
1, 7727, Note_on_c, 0, 57, 0
1, 7728, Note_on_c, 0, 60, 75
1, 7751, Note_on_c, 0, 60, 0
1, 7752, Note_on_c, 0, 57, 75
1, 7775, Note_on_c, 0, 57, 0
1, 7776, Note_on_c, 1, 65, 96
1, 7776, Note_on_c, 1, 53, 96
1, 7800, Note_on_c, 0, 60, 75
1, 7815, Note_on_c, 1, 65, 0
1, 7815, Note_on_c, 1, 53, 0
1, 7823, Note_on_c, 0, 60, 0
1, 7824, Note_on_c, 0, 65, 75
1, 7847, Note_on_c, 0, 65, 0
1, 7848, Note_on_c, 0, 60, 75
1, 7871, Note_on_c, 0, 60, 0
1, 7872, Note_on_c, 1, 60, 96
1, 7872, Note_on_c, 1, 48, 96
1, 7896, Note_on_c, 0, 65, 75
1, 7911, Note_on_c, 1, 60, 0
1, 7911, Note_on_c, 1, 48, 0
1, 7919, Note_on_c, 0, 65, 0
1, 7920, Note_on_c, 0, 69, 75
1, 7943, Note_on_c, 0, 69, 0
1, 7944, Note_on_c, 0, 65, 75
1, 7967, Note_on_c, 0, 65, 0
1, 7968, Note_on_c, 1, 57, 96
1, 7968, Note_on_c, 1, 45, 96
1, 7992, Note_on_c, 0, 69, 75
1, 8007, Note_on_c, 1, 57, 0
1, 8007, Note_on_c, 1, 45, 0
1, 8015, Note_on_c, 0, 69, 0
1, 8016, Note_on_c, 0, 72, 75
1, 8039, Note_on_c, 0, 72, 0
1, 8040, Note_on_c, 0, 69, 75
1, 8064, Note_on_c, 0, 75, 91
1, 8064, Note_on_c, 0, 72, 91
1, 8064, Note_on_c, 1, 53, 96
1, 8064, Note_on_c, 1, 41, 96
1, 8352, Note_on_c, 0, 75, 0
1, 8352, Note_on_c, 0, 72, 0
1, 8352, Note_on_c, 0, 69, 0
1, 8352, Note_on_c, 1, 53, 0
1, 8352, Note_on_c, 1, 41, 0
1, 8448, Note_on_c, 1, 62, 96
1, 8448, Note_on_c, 1, 50, 96
1, 8472, Note_on_c, 0, 66, 75
1, 8487, Note_on_c, 1, 62, 0
1, 8487, Note_on_c, 1, 50, 0
1, 8495, Note_on_c, 0, 66, 0
1, 8496, Note_on_c, 0, 69, 75
1, 8519, Note_on_c, 0, 69, 0
1, 8520, Note_on_c, 0, 66, 75
1, 8543, Note_on_c, 0, 66, 0
1, 8544, Note_on_c, 1, 60, 96
1, 8544, Note_on_c, 1, 48, 96
1, 8568, Note_on_c, 0, 69, 75
1, 8583, Note_on_c, 1, 60, 0
1, 8583, Note_on_c, 1, 48, 0
1, 8591, Note_on_c, 0, 69, 0
1, 8592, Note_on_c, 0, 72, 75
1, 8615, Note_on_c, 0, 72, 0
1, 8616, Note_on_c, 0, 69, 75
1, 8639, Note_on_c, 0, 69, 0
1, 8640, Note_on_c, 1, 57, 96
1, 8640, Note_on_c, 1, 45, 96
1, 8664, Note_on_c, 0, 72, 75
1, 8679, Note_on_c, 1, 57, 0
1, 8679, Note_on_c, 1, 45, 0
1, 8687, Note_on_c, 0, 72, 0
1, 8688, Note_on_c, 0, 78, 75
1, 8711, Note_on_c, 0, 78, 0
1, 8712, Note_on_c, 0, 72, 75
1, 8735, Note_on_c, 0, 72, 0
1, 8736, Note_on_c, 1, 54, 96
1, 8736, Note_on_c, 1, 42, 96
1, 8760, Note_on_c, 0, 78, 75
1, 8775, Note_on_c, 1, 54, 0
1, 8775, Note_on_c, 1, 42, 0
1, 8783, Note_on_c, 0, 78, 0
1, 8784, Note_on_c, 0, 81, 75
1, 8807, Note_on_c, 0, 81, 0
1, 8808, Note_on_c, 0, 78, 75
1, 8832, Note_on_c, 0, 84, 91
1, 8832, Note_on_c, 0, 81, 91
1, 8832, Note_on_c, 1, 50, 96
1, 8832, Note_on_c, 1, 38, 96
1, 9120, Note_on_c, 0, 84, 0
1, 9120, Note_on_c, 0, 81, 0
1, 9120, Note_on_c, 0, 78, 0
1, 9120, Note_on_c, 1, 50, 0
1, 9120, Note_on_c, 1, 38, 0
1, 9216, Note_on_c, 1, 58, 96
1, 9216, Note_on_c, 1, 46, 96
1, 9240, Note_on_c, 0, 62, 75
1, 9255, Note_on_c, 1, 58, 0
1, 9255, Note_on_c, 1, 46, 0
1, 9263, Note_on_c, 0, 62, 0
1, 9264, Note_on_c, 0, 67, 75
1, 9287, Note_on_c, 0, 67, 0
1, 9288, Note_on_c, 0, 62, 75
1, 9311, Note_on_c, 0, 62, 0
1, 9312, Note_on_c, 1, 55, 96
1, 9312, Note_on_c, 1, 43, 96
1, 9336, Note_on_c, 0, 67, 75
1, 9351, Note_on_c, 1, 55, 0
1, 9351, Note_on_c, 1, 43, 0
1, 9359, Note_on_c, 0, 67, 0
1, 9360, Note_on_c, 0, 70, 75
1, 9383, Note_on_c, 0, 70, 0
1, 9384, Note_on_c, 0, 67, 75
1, 9407, Note_on_c, 0, 67, 0
1, 9408, Note_on_c, 1, 50, 96
1, 9408, Note_on_c, 1, 38, 96
1, 9432, Note_on_c, 0, 70, 75
1, 9447, Note_on_c, 1, 50, 0
1, 9447, Note_on_c, 1, 38, 0
1, 9455, Note_on_c, 0, 70, 0
1, 9456, Note_on_c, 0, 74, 75
1, 9479, Note_on_c, 0, 74, 0
1, 9480, Note_on_c, 0, 70, 75
1, 9503, Note_on_c, 0, 70, 0
1, 9504, Note_on_c, 1, 55, 96
1, 9504, Note_on_c, 1, 43, 96
1, 9528, Note_on_c, 0, 74, 75
1, 9543, Note_on_c, 1, 55, 0
1, 9543, Note_on_c, 1, 43, 0
1, 9551, Note_on_c, 0, 74, 0
1, 9552, Note_on_c, 0, 79, 75
1, 9575, Note_on_c, 0, 79, 0
1, 9576, Note_on_c, 0, 74, 75
1, 9600, Note_on_c, 0, 82, 91
1, 9600, Note_on_c, 0, 79, 91
1, 9600, Note_on_c, 1, 53, 96
1, 9600, Note_on_c, 1, 41, 96
1, 9888, Note_on_c, 0, 82, 0
1, 9888, Note_on_c, 0, 79, 0
1, 9888, Note_on_c, 0, 74, 0
1, 9888, Note_on_c, 1, 53, 0
1, 9888, Note_on_c, 1, 41, 0
1, 9984, Note_on_c, 1, 64, 96
1, 9984, Note_on_c, 1, 52, 96
1, 10008, Note_on_c, 0, 67, 75
1, 10023, Note_on_c, 1, 64, 0
1, 10023, Note_on_c, 1, 52, 0
1, 10031, Note_on_c, 0, 67, 0
1, 10032, Note_on_c, 0, 70, 75
1, 10055, Note_on_c, 0, 70, 0
1, 10056, Note_on_c, 0, 67, 75
1, 10079, Note_on_c, 0, 67, 0
1, 10080, Note_on_c, 1, 60, 96
1, 10080, Note_on_c, 1, 48, 96
1, 10104, Note_on_c, 0, 70, 75
1, 10119, Note_on_c, 1, 60, 0
1, 10119, Note_on_c, 1, 48, 0
1, 10127, Note_on_c, 0, 70, 0
1, 10128, Note_on_c, 0, 76, 75
1, 10151, Note_on_c, 0, 76, 0
1, 10152, Note_on_c, 0, 70, 75
1, 10175, Note_on_c, 0, 70, 0
1, 10176, Note_on_c, 1, 58, 96
1, 10176, Note_on_c, 1, 46, 96
1, 10200, Note_on_c, 0, 76, 75
1, 10215, Note_on_c, 1, 58, 0
1, 10215, Note_on_c, 1, 46, 0
1, 10223, Note_on_c, 0, 76, 0
1, 10224, Note_on_c, 0, 79, 75
1, 10247, Note_on_c, 0, 79, 0
1, 10248, Note_on_c, 0, 76, 75
1, 10271, Note_on_c, 0, 76, 0
1, 10272, Note_on_c, 1, 55, 96
1, 10272, Note_on_c, 1, 43, 96
1, 10296, Note_on_c, 0, 79, 75
1, 10311, Note_on_c, 1, 55, 0
1, 10311, Note_on_c, 1, 43, 0
1, 10319, Note_on_c, 0, 79, 0
1, 10320, Note_on_c, 0, 82, 75
1, 10343, Note_on_c, 0, 82, 0
1, 10344, Note_on_c, 0, 79, 75
1, 10368, Note_on_c, 0, 85, 91
1, 10368, Note_on_c, 0, 82, 91
1, 10368, Note_on_c, 1, 52, 80
1, 10368, Note_on_c, 1, 40, 80
1, 10633, Note_on_c, 1, 52, 0
1, 10633, Note_on_c, 1, 40, 0
1, 10656, Note_on_c, 0, 85, 0
1, 10656, Note_on_c, 0, 82, 0
1, 10656, Note_on_c, 0, 79, 0
1, 10752, Note_on_c, 1, 65, 80
1, 10800, Note_on_c, 1, 65, 0
1, 10800, Note_on_c, 1, 72, 64
1, 10845, Note_on_c, 1, 72, 0
1, 10848, Note_on_c, 1, 69, 64
1, 10893, Note_on_c, 1, 69, 0
1, 10896, Note_on_c, 1, 72, 64
1, 10941, Note_on_c, 1, 72, 0
1, 10944, Note_on_c, 1, 65, 64
1, 10989, Note_on_c, 1, 65, 0
1, 10992, Note_on_c, 1, 72, 64
1, 11037, Note_on_c, 1, 72, 0
1, 11040, Note_on_c, 0, 77, 75
1, 11040, Note_on_c, 1, 69, 64
1, 11079, Note_on_c, 0, 77, 0
1, 11085, Note_on_c, 1, 69, 0
1, 11088, Note_on_c, 1, 72, 64
1, 11133, Note_on_c, 1, 72, 0
1, 11136, Note_on_c, 1, 65, 64
1, 11181, Note_on_c, 1, 65, 0
1, 11184, Note_on_c, 1, 72, 64
1, 11229, Note_on_c, 1, 72, 0
1, 11232, Note_on_c, 0, 84, 75
1, 11232, Note_on_c, 1, 69, 64
1, 11271, Note_on_c, 0, 84, 0
1, 11277, Note_on_c, 1, 69, 0
1, 11280, Note_on_c, 1, 72, 64
1, 11325, Note_on_c, 1, 72, 0
1, 11328, Note_on_c, 1, 65, 64
1, 11373, Note_on_c, 1, 65, 0
1, 11376, Note_on_c, 1, 72, 64
1, 11421, Note_on_c, 1, 72, 0
1, 11424, Note_on_c, 0, 82, 75
1, 11424, Note_on_c, 1, 69, 64
1, 11447, Note_on_c, 0, 82, 0
1, 11448, Note_on_c, 0, 81, 75
1, 11469, Note_on_c, 1, 69, 0
1, 11471, Note_on_c, 0, 81, 0
1, 11472, Note_on_c, 0, 79, 75
1, 11472, Note_on_c, 1, 72, 64
1, 11495, Note_on_c, 0, 79, 0
1, 11496, Note_on_c, 0, 77, 75
1, 11517, Note_on_c, 1, 72, 0
1, 11519, Note_on_c, 0, 77, 0
1, 11520, Note_on_c, 0, 76, 75
1, 11520, Note_on_c, 1, 67, 64
1, 11559, Note_on_c, 0, 76, 0
1, 11565, Note_on_c, 1, 67, 0
1, 11568, Note_on_c, 1, 72, 64
1, 11613, Note_on_c, 1, 72, 0
1, 11616, Note_on_c, 0, 82, 91
1, 11616, Note_on_c, 1, 70, 64
1, 11661, Note_on_c, 1, 70, 0
1, 11664, Note_on_c, 1, 72, 64
1, 11709, Note_on_c, 1, 72, 0
1, 11712, Note_on_c, 1, 67, 64
1, 11757, Note_on_c, 1, 67, 0
1, 11760, Note_on_c, 1, 72, 64
1, 11805, Note_on_c, 1, 72, 0
1, 11808, Note_on_c, 0, 82, 0
1, 11808, Note_on_c, 0, 81, 75
1, 11808, Note_on_c, 1, 70, 64
1, 11831, Note_on_c, 0, 81, 0
1, 11832, Note_on_c, 0, 79, 75
1, 11853, Note_on_c, 1, 70, 0
1, 11855, Note_on_c, 0, 79, 0
1, 11856, Note_on_c, 0, 77, 75
1, 11856, Note_on_c, 1, 72, 64
1, 11879, Note_on_c, 0, 77, 0
1, 11880, Note_on_c, 0, 76, 75
1, 11901, Note_on_c, 1, 72, 0
1, 11903, Note_on_c, 0, 76, 0
1, 11904, Note_on_c, 0, 77, 75
1, 11904, Note_on_c, 1, 65, 64
1, 11971, Note_on_c, 0, 77, 0
1, 11976, Note_on_c, 0, 72, 75
1, 11993, Note_on_c, 1, 65, 0
1, 11999, Note_on_c, 0, 72, 0
1, 12000, Note_on_c, 0, 81, 76
1, 12067, Note_on_c, 0, 81, 0
1, 12072, Note_on_c, 0, 77, 76
1, 12095, Note_on_c, 0, 77, 0
1, 12096, Note_on_c, 0, 84, 77
1, 12163, Note_on_c, 0, 84, 0
1, 12168, Note_on_c, 0, 81, 77
1, 12191, Note_on_c, 0, 81, 0
1, 12192, Note_on_c, 0, 89, 78
1, 12259, Note_on_c, 0, 89, 0
1, 12264, Note_on_c, 0, 84, 78
1, 12287, Note_on_c, 0, 84, 0
1, 12288, Note_on_c, 0, 85, 79
1, 12288, Note_on_c, 1, 65, 64
1, 12333, Note_on_c, 1, 65, 0
1, 12336, Note_on_c, 0, 85, 0
1, 12336, Note_on_c, 0, 86, 79
1, 12336, Note_on_c, 1, 70, 64
1, 12381, Note_on_c, 0, 86, 0
1, 12381, Note_on_c, 1, 70, 0
1, 12384, Note_on_c, 0, 86, 96
1, 12384, Note_on_c, 1, 74, 64
1, 12429, Note_on_c, 1, 74, 0
1, 12432, Note_on_c, 1, 70, 64
1, 12477, Note_on_c, 1, 70, 0
1, 12480, Note_on_c, 1, 65, 64
1, 12510, Note_on_c, 0, 86, 0
1, 12512, Note_on_c, 0, 79, 80
1, 12525, Note_on_c, 1, 65, 0
1, 12528, Note_on_c, 1, 70, 64
1, 12542, Note_on_c, 0, 79, 0
1, 12544, Note_on_c, 0, 81, 79
1, 12573, Note_on_c, 1, 70, 0
1, 12574, Note_on_c, 0, 81, 0
1, 12576, Note_on_c, 0, 82, 78
1, 12576, Note_on_c, 1, 74, 64
1, 12606, Note_on_c, 0, 82, 0
1, 12608, Note_on_c, 0, 81, 78
1, 12621, Note_on_c, 1, 74, 0
1, 12624, Note_on_c, 1, 70, 64
1, 12638, Note_on_c, 0, 81, 0
1, 12640, Note_on_c, 0, 79, 77
1, 12669, Note_on_c, 1, 70, 0
1, 12670, Note_on_c, 0, 79, 0
1, 12672, Note_on_c, 0, 79, 77
1, 12672, Note_on_c, 1, 69, 64
1, 12717, Note_on_c, 1, 69, 0
1, 12720, Note_on_c, 0, 79, 0
1, 12720, Note_on_c, 0, 77, 76
1, 12720, Note_on_c, 1, 72, 64
1, 12765, Note_on_c, 0, 77, 0
1, 12765, Note_on_c, 1, 72, 0
1, 12768, Note_on_c, 0, 77, 91
1, 12768, Note_on_c, 1, 69, 64
1, 12813, Note_on_c, 1, 69, 0
1, 12816, Note_on_c, 1, 65, 64
1, 12861, Note_on_c, 1, 65, 0
1, 12864, Note_on_c, 1, 60, 64
1, 12909, Note_on_c, 1, 60, 0
1, 12912, Note_on_c, 1, 57, 64
1, 12957, Note_on_c, 1, 57, 0
1, 12960, Note_on_c, 0, 77, 0
1, 12960, Note_on_c, 0, 81, 75
1, 12960, Note_on_c, 1, 60, 64
1, 13005, Note_on_c, 1, 60, 0
1, 13008, Note_on_c, 0, 81, 0
1, 13008, Note_on_c, 0, 79, 75
1, 13008, Note_on_c, 1, 70, 64
1, 13008, Note_on_c, 1, 61, 64
1, 13053, Note_on_c, 0, 79, 0
1, 13053, Note_on_c, 1, 70, 0
1, 13053, Note_on_c, 1, 61, 0
1, 13056, Note_on_c, 0, 77, 75
1, 13056, Note_on_c, 0, 69, 75
1, 13056, Note_on_c, 1, 62, 64
1, 13233, Note_on_c, 1, 62, 0
1, 13248, Note_on_c, 0, 69, 0
1, 13278, Note_on_c, 0, 77, 0
1, 13280, Note_on_c, 0, 79, 76
1, 13310, Note_on_c, 0, 79, 0
1, 13312, Note_on_c, 0, 81, 78
1, 13342, Note_on_c, 0, 81, 0
1, 13344, Note_on_c, 0, 82, 79
1, 13374, Note_on_c, 0, 82, 0
1, 13376, Note_on_c, 0, 81, 78
1, 13406, Note_on_c, 0, 81, 0
1, 13408, Note_on_c, 0, 79, 77
1, 13438, Note_on_c, 0, 79, 0
1, 13440, Note_on_c, 0, 72, 75
1, 13440, Note_on_c, 1, 60, 64
1, 13440, Note_on_c, 1, 57, 64
1, 13440, Note_on_c, 1, 53, 64
1, 13440, Note_on_c, 1, 48, 64
1, 13507, Note_on_c, 0, 72, 0
1, 13512, Note_on_c, 0, 69, 75
1, 13534, Note_on_c, 1, 60, 0
1, 13534, Note_on_c, 1, 57, 0
1, 13534, Note_on_c, 1, 53, 0
1, 13534, Note_on_c, 1, 48, 0
1, 13535, Note_on_c, 0, 69, 0
1, 13536, Note_on_c, 0, 65, 75
1, 13625, Note_on_c, 0, 65, 0
1, 13632, Note_on_c, 0, 67, 75
1, 13632, Note_on_c, 1, 60, 64
1, 13632, Note_on_c, 1, 58, 64
1, 13632, Note_on_c, 1, 55, 64
1, 13632, Note_on_c, 1, 48, 64
1, 13656, Note_on_c, 0, 67, 0
1, 13656, Note_on_c, 0, 65, 75
1, 13680, Note_on_c, 0, 65, 0
1, 13680, Note_on_c, 0, 64, 75
1, 13704, Note_on_c, 0, 64, 0
1, 13704, Note_on_c, 0, 65, 75
1, 13726, Note_on_c, 1, 60, 0
1, 13726, Note_on_c, 1, 58, 0
1, 13726, Note_on_c, 1, 55, 0
1, 13726, Note_on_c, 1, 48, 0
1, 13728, Note_on_c, 0, 65, 0
1, 13728, Note_on_c, 0, 69, 75
1, 13773, Note_on_c, 0, 69, 0
1, 13776, Note_on_c, 0, 67, 75
1, 13821, Note_on_c, 0, 67, 0
1, 13824, Note_on_c, 0, 65, 75
1, 13824, Note_on_c, 1, 41, 80
1, 13869, Note_on_c, 1, 41, 0
1, 13872, Note_on_c, 1, 53, 80
1, 13913, Note_on_c, 0, 65, 0
1, 13917, Note_on_c, 1, 53, 0
1, 13920, Note_on_c, 1, 41, 80
1, 13965, Note_on_c, 1, 41, 0
1, 13968, Note_on_c, 1, 53, 80
1, 14013, Note_on_c, 1, 53, 0
1, 14016, Note_on_c, 0, 63, 113
1, 14016, Note_on_c, 0, 60, 113
1, 14016, Note_on_c, 0, 57, 113
1, 14016, Note_on_c, 1, 41, 80
1, 14061, Note_on_c, 1, 41, 0
1, 14064, Note_on_c, 1, 53, 80
1, 14109, Note_on_c, 1, 53, 0
1, 14112, Note_on_c, 1, 41, 80
1, 14157, Note_on_c, 1, 41, 0
1, 14160, Note_on_c, 1, 53, 80
1, 14205, Note_on_c, 1, 53, 0
1, 14208, Note_on_c, 0, 63, 0
1, 14208, Note_on_c, 0, 60, 0
1, 14208, Note_on_c, 0, 57, 0
1, 14208, Note_on_c, 0, 62, 80
1, 14208, Note_on_c, 0, 58, 80
1, 14208, Note_on_c, 1, 41, 80
1, 14247, Note_on_c, 0, 62, 0
1, 14247, Note_on_c, 0, 58, 0
1, 14253, Note_on_c, 1, 41, 0
1, 14256, Note_on_c, 1, 53, 80
1, 14301, Note_on_c, 1, 53, 0
1, 14304, Note_on_c, 1, 41, 80
1, 14349, Note_on_c, 1, 41, 0
1, 14352, Note_on_c, 1, 53, 80
1, 14397, Note_on_c, 1, 53, 0
1, 14400, Note_on_c, 0, 64, 113
1, 14400, Note_on_c, 0, 58, 113
1, 14400, Note_on_c, 0, 55, 113
1, 14400, Note_on_c, 1, 41, 80
1, 14445, Note_on_c, 1, 41, 0
1, 14448, Note_on_c, 1, 53, 80
1, 14493, Note_on_c, 1, 53, 0
1, 14496, Note_on_c, 1, 41, 80
1, 14541, Note_on_c, 1, 41, 0
1, 14544, Note_on_c, 1, 53, 80
1, 14589, Note_on_c, 1, 53, 0
1, 14592, Note_on_c, 0, 64, 0
1, 14592, Note_on_c, 0, 58, 0
1, 14592, Note_on_c, 0, 55, 0
1, 14592, Note_on_c, 0, 65, 80
1, 14592, Note_on_c, 0, 60, 80
1, 14592, Note_on_c, 0, 57, 80
1, 14592, Note_on_c, 1, 41, 80
1, 14631, Note_on_c, 0, 65, 0
1, 14631, Note_on_c, 0, 60, 0
1, 14631, Note_on_c, 0, 57, 0
1, 14637, Note_on_c, 1, 41, 0
1, 14640, Note_on_c, 1, 53, 80
1, 14685, Note_on_c, 1, 53, 0
1, 14688, Note_on_c, 0, 63, 97
1, 14688, Note_on_c, 0, 60, 97
1, 14688, Note_on_c, 0, 57, 97
1, 14688, Note_on_c, 1, 41, 80
1, 14727, Note_on_c, 0, 63, 0
1, 14727, Note_on_c, 0, 60, 0
1, 14727, Note_on_c, 0, 57, 0
1, 14733, Note_on_c, 1, 41, 0
1, 14736, Note_on_c, 1, 53, 80
1, 14781, Note_on_c, 1, 53, 0
1, 14784, Note_on_c, 1, 41, 80
1, 14829, Note_on_c, 1, 41, 0
1, 14832, Note_on_c, 1, 53, 80
1, 14877, Note_on_c, 1, 53, 0
1, 14880, Note_on_c, 0, 62, 97
1, 14880, Note_on_c, 0, 58, 97
1, 14880, Note_on_c, 1, 41, 80
1, 14919, Note_on_c, 0, 62, 0
1, 14919, Note_on_c, 0, 58, 0
1, 14925, Note_on_c, 1, 41, 0
1, 14928, Note_on_c, 1, 53, 80
1, 14973, Note_on_c, 1, 53, 0
1, 14976, Note_on_c, 1, 41, 80
1, 15021, Note_on_c, 1, 41, 0
1, 15024, Note_on_c, 1, 53, 80
1, 15069, Note_on_c, 1, 53, 0
1, 15072, Note_on_c, 0, 64, 113
1, 15072, Note_on_c, 0, 58, 113
1, 15072, Note_on_c, 0, 55, 113
1, 15072, Note_on_c, 1, 41, 80
1, 15117, Note_on_c, 1, 41, 0
1, 15120, Note_on_c, 1, 53, 80
1, 15165, Note_on_c, 1, 53, 0
1, 15168, Note_on_c, 0, 64, 0
1, 15168, Note_on_c, 0, 58, 0
1, 15168, Note_on_c, 0, 55, 0
1, 15168, Note_on_c, 0, 65, 80
1, 15168, Note_on_c, 0, 60, 80
1, 15168, Note_on_c, 0, 57, 80
1, 15168, Note_on_c, 1, 41, 80
1, 15207, Note_on_c, 0, 65, 0
1, 15207, Note_on_c, 0, 60, 0
1, 15207, Note_on_c, 0, 57, 0
1, 15213, Note_on_c, 1, 41, 0
1, 15216, Note_on_c, 1, 53, 80
1, 15261, Note_on_c, 1, 53, 0
1, 15264, Note_on_c, 0, 73, 97
1, 15264, Note_on_c, 0, 70, 97
1, 15264, Note_on_c, 1, 41, 80
1, 15309, Note_on_c, 1, 41, 0
1, 15312, Note_on_c, 1, 53, 80
1, 15357, Note_on_c, 1, 53, 0
1, 15360, Note_on_c, 0, 73, 0
1, 15360, Note_on_c, 0, 70, 0
1, 15360, Note_on_c, 0, 72, 80
1, 15360, Note_on_c, 0, 69, 80
1, 15360, Note_on_c, 1, 41, 80
1, 15399, Note_on_c, 0, 72, 0
1, 15399, Note_on_c, 0, 69, 0
1, 15405, Note_on_c, 1, 41, 0
1, 15408, Note_on_c, 1, 53, 78
1, 15453, Note_on_c, 1, 53, 0
1, 15456, Note_on_c, 0, 76, 80
1, 15456, Note_on_c, 0, 70, 80
1, 15456, Note_on_c, 1, 41, 77
1, 15495, Note_on_c, 0, 76, 0
1, 15495, Note_on_c, 0, 70, 0
1, 15501, Note_on_c, 1, 41, 0
1, 15504, Note_on_c, 1, 53, 76
1, 15549, Note_on_c, 1, 53, 0
1, 15552, Note_on_c, 0, 77, 77
1, 15552, Note_on_c, 0, 69, 77
1, 15552, Note_on_c, 1, 41, 75
1, 15591, Note_on_c, 0, 77, 0
1, 15591, Note_on_c, 0, 69, 0
1, 15597, Note_on_c, 1, 41, 0
1, 15600, Note_on_c, 1, 53, 74
1, 15645, Note_on_c, 1, 53, 0
1, 15648, Note_on_c, 0, 61, 92
1, 15648, Note_on_c, 0, 58, 92
1, 15648, Note_on_c, 1, 41, 73
1, 15693, Note_on_c, 1, 41, 0
1, 15696, Note_on_c, 1, 53, 72
1, 15741, Note_on_c, 1, 53, 0
1, 15744, Note_on_c, 0, 61, 0
1, 15744, Note_on_c, 0, 58, 0
1, 15744, Note_on_c, 0, 60, 73
1, 15744, Note_on_c, 0, 57, 73
1, 15744, Note_on_c, 1, 41, 70
1, 15783, Note_on_c, 0, 60, 0
1, 15783, Note_on_c, 0, 57, 0
1, 15789, Note_on_c, 1, 41, 0
1, 15792, Note_on_c, 1, 53, 69
1, 15837, Note_on_c, 1, 53, 0
1, 15840, Note_on_c, 0, 64, 70
1, 15840, Note_on_c, 0, 58, 70
1, 15840, Note_on_c, 1, 41, 68
1, 15879, Note_on_c, 0, 64, 0
1, 15879, Note_on_c, 0, 58, 0
1, 15885, Note_on_c, 1, 41, 0
1, 15888, Note_on_c, 1, 53, 67
1, 15933, Note_on_c, 1, 53, 0
1, 15936, Note_on_c, 0, 65, 68
1, 15936, Note_on_c, 0, 57, 68
1, 15936, Note_on_c, 1, 41, 66
1, 16025, Note_on_c, 0, 65, 0
1, 16025, Note_on_c, 0, 57, 0
1, 16025, Note_on_c, 1, 41, 0
1, 16080, Note_on_c, 0, 84, 65
1, 16125, Note_on_c, 0, 84, 0
1, 16128, Note_on_c, 0, 84, 64
1, 16128, Note_on_c, 1, 70, 64
1, 16128, Note_on_c, 1, 60, 64
1, 16217, Note_on_c, 0, 84, 0
1, 16217, Note_on_c, 1, 70, 0
1, 16217, Note_on_c, 1, 60, 0
1, 16224, Note_on_c, 0, 83, 64
1, 16247, Note_on_c, 0, 83, 0
1, 16248, Note_on_c, 0, 84, 64
1, 16271, Note_on_c, 0, 84, 0
1, 16272, Note_on_c, 0, 86, 64
1, 16295, Note_on_c, 0, 86, 0
1, 16296, Note_on_c, 0, 84, 64
1, 16319, Note_on_c, 0, 84, 0
1, 16320, Note_on_c, 0, 77, 64
1, 16320, Note_on_c, 1, 69, 64
1, 16320, Note_on_c, 1, 65, 64
1, 16409, Note_on_c, 0, 77, 0
1, 16409, Note_on_c, 1, 69, 0
1, 16409, Note_on_c, 1, 65, 0
1, 16464, Note_on_c, 0, 70, 75
1, 16509, Note_on_c, 0, 70, 0
1, 16512, Note_on_c, 0, 65, 75
1, 16512, Note_on_c, 0, 62, 75
1, 16601, Note_on_c, 0, 65, 0
1, 16601, Note_on_c, 0, 62, 0
1, 16608, Note_on_c, 1, 46, 75
1, 16656, Note_on_c, 0, 70, 75
1, 16697, Note_on_c, 1, 46, 0
1, 16701, Note_on_c, 0, 70, 0
1, 16704, Note_on_c, 0, 67, 75
1, 16704, Note_on_c, 0, 63, 75
1, 16793, Note_on_c, 0, 67, 0
1, 16793, Note_on_c, 0, 63, 0
1, 16800, Note_on_c, 1, 46, 75
1, 16848, Note_on_c, 0, 70, 75
1, 16889, Note_on_c, 1, 46, 0
1, 16893, Note_on_c, 0, 70, 0
1, 16896, Note_on_c, 0, 65, 75
1, 16896, Note_on_c, 0, 62, 75
1, 16944, Note_on_c, 1, 46, 75
1, 16964, Note_on_c, 1, 46, 0
1, 16985, Note_on_c, 0, 65, 0
1, 16985, Note_on_c, 0, 62, 0
1, 16992, Note_on_c, 1, 50, 75
1, 17012, Note_on_c, 1, 50, 0
1, 17040, Note_on_c, 1, 53, 75
1, 17060, Note_on_c, 1, 53, 0
1, 17088, Note_on_c, 1, 58, 75
1, 17177, Note_on_c, 1, 58, 0
1, 17184, Note_on_c, 0, 79, 75
1, 17207, Note_on_c, 0, 79, 0
1, 17208, Note_on_c, 0, 77, 75
1, 17231, Note_on_c, 0, 77, 0
1, 17232, Note_on_c, 0, 75, 76
1, 17255, Note_on_c, 0, 75, 0
1, 17256, Note_on_c, 0, 74, 76
1, 17279, Note_on_c, 0, 74, 0
1, 17280, Note_on_c, 0, 72, 77
1, 17319, Note_on_c, 0, 72, 0
1, 17376, Note_on_c, 0, 81, 80
1, 17399, Note_on_c, 0, 81, 0
1, 17400, Note_on_c, 0, 79, 80
1, 17423, Note_on_c, 0, 79, 0
1, 17424, Note_on_c, 0, 77, 80
1, 17447, Note_on_c, 0, 77, 0
1, 17448, Note_on_c, 0, 75, 80
1, 17471, Note_on_c, 0, 75, 0
1, 17472, Note_on_c, 0, 74, 80
1, 17511, Note_on_c, 0, 74, 0
1, 17568, Note_on_c, 0, 77, 80
1, 17591, Note_on_c, 0, 77, 0
1, 17592, Note_on_c, 0, 75, 79
1, 17615, Note_on_c, 0, 75, 0
1, 17616, Note_on_c, 0, 74, 79
1, 17639, Note_on_c, 0, 74, 0
1, 17640, Note_on_c, 0, 72, 78
1, 17663, Note_on_c, 0, 72, 0
1, 17664, Note_on_c, 0, 70, 78
1, 17712, Note_on_c, 1, 41, 75
1, 17732, Note_on_c, 1, 41, 0
1, 17760, Note_on_c, 1, 45, 75
1, 17780, Note_on_c, 1, 45, 0
1, 17808, Note_on_c, 1, 48, 75
1, 17828, Note_on_c, 1, 48, 0
1, 17856, Note_on_c, 0, 70, 0
1, 17856, Note_on_c, 0, 69, 75
1, 17856, Note_on_c, 1, 53, 75
1, 17901, Note_on_c, 0, 69, 0
1, 17904, Note_on_c, 0, 82, 75
1, 17945, Note_on_c, 1, 53, 0
1, 17949, Note_on_c, 0, 82, 0
1, 17952, Note_on_c, 0, 81, 75
1, 17997, Note_on_c, 0, 81, 0
1, 18000, Note_on_c, 0, 82, 75
1, 18045, Note_on_c, 0, 82, 0
1, 18048, Note_on_c, 0, 77, 75
1, 18048, Note_on_c, 0, 74, 75
1, 18096, Note_on_c, 1, 46, 75
1, 18137, Note_on_c, 0, 77, 0
1, 18137, Note_on_c, 0, 74, 0
1, 18141, Note_on_c, 1, 46, 0
1, 18144, Note_on_c, 1, 58, 75
1, 18192, Note_on_c, 0, 82, 75
1, 18233, Note_on_c, 1, 58, 0
1, 18237, Note_on_c, 0, 82, 0
1, 18240, Note_on_c, 0, 79, 75
1, 18240, Note_on_c, 0, 75, 75
1, 18288, Note_on_c, 1, 46, 75
1, 18329, Note_on_c, 0, 79, 0
1, 18329, Note_on_c, 0, 75, 0
1, 18333, Note_on_c, 1, 46, 0
1, 18336, Note_on_c, 1, 58, 75
1, 18384, Note_on_c, 0, 82, 75
1, 18425, Note_on_c, 1, 58, 0
1, 18429, Note_on_c, 0, 82, 0
1, 18432, Note_on_c, 0, 77, 75
1, 18432, Note_on_c, 0, 74, 75
1, 18480, Note_on_c, 1, 58, 75
1, 18500, Note_on_c, 1, 58, 0
1, 18521, Note_on_c, 0, 77, 0
1, 18521, Note_on_c, 0, 74, 0
1, 18528, Note_on_c, 1, 62, 75
1, 18548, Note_on_c, 1, 62, 0
1, 18576, Note_on_c, 1, 65, 75
1, 18596, Note_on_c, 1, 65, 0
1, 18624, Note_on_c, 1, 70, 75
1, 18713, Note_on_c, 1, 70, 0
1, 18720, Note_on_c, 0, 79, 75
1, 18732, Note_on_c, 0, 79, 0
1, 18732, Note_on_c, 0, 81, 75
1, 18744, Note_on_c, 0, 81, 0
1, 18744, Note_on_c, 0, 82, 91
1, 18816, Note_on_c, 0, 82, 0
1, 18816, Note_on_c, 0, 72, 75
1, 18816, Note_on_c, 1, 51, 75
1, 18816, Note_on_c, 1, 39, 75
1, 18864, Note_on_c, 0, 72, 0
1, 18864, Note_on_c, 0, 75, 77
1, 18909, Note_on_c, 0, 75, 0
1, 18912, Note_on_c, 0, 79, 80
1, 18993, Note_on_c, 1, 51, 0
1, 18993, Note_on_c, 1, 39, 0
1, 19008, Note_on_c, 1, 53, 75
1, 19008, Note_on_c, 1, 41, 75
1, 19089, Note_on_c, 0, 79, 0
1, 19104, Note_on_c, 0, 69, 76
1, 19104, Note_on_c, 0, 63, 76
1, 19185, Note_on_c, 1, 53, 0
1, 19185, Note_on_c, 1, 41, 0
1, 19193, Note_on_c, 0, 69, 0
1, 19193, Note_on_c, 0, 63, 0
1, 19200, Note_on_c, 0, 70, 75
1, 19200, Note_on_c, 0, 62, 75
1, 19200, Note_on_c, 1, 46, 75
1, 19245, Note_on_c, 1, 46, 0
1, 19248, Note_on_c, 1, 58, 75
1, 19289, Note_on_c, 0, 70, 0
1, 19289, Note_on_c, 0, 62, 0
1, 19293, Note_on_c, 1, 58, 0
1, 19296, Note_on_c, 1, 46, 75
1, 19341, Note_on_c, 1, 46, 0
1, 19344, Note_on_c, 1, 58, 75
1, 19389, Note_on_c, 1, 58, 0
1, 19392, Note_on_c, 1, 46, 75
1, 19437, Note_on_c, 1, 46, 0
1, 19440, Note_on_c, 1, 58, 75
1, 19485, Note_on_c, 1, 58, 0
1, 19488, Note_on_c, 0, 70, 75
1, 19488, Note_on_c, 0, 62, 75
1, 19488, Note_on_c, 1, 46, 75
1, 19527, Note_on_c, 0, 70, 0
1, 19527, Note_on_c, 0, 62, 0
1, 19533, Note_on_c, 1, 46, 0
1, 19536, Note_on_c, 1, 58, 75
1, 19581, Note_on_c, 1, 58, 0
1, 19584, Note_on_c, 0, 72, 91
1, 19584, Note_on_c, 0, 63, 91
1, 19584, Note_on_c, 1, 46, 75
1, 19629, Note_on_c, 1, 46, 0
1, 19632, Note_on_c, 1, 58, 75
1, 19677, Note_on_c, 1, 58, 0
1, 19680, Note_on_c, 0, 72, 0
1, 19680, Note_on_c, 0, 63, 0
1, 19680, Note_on_c, 0, 70, 76
1, 19680, Note_on_c, 0, 62, 76
1, 19680, Note_on_c, 1, 46, 75
1, 19719, Note_on_c, 0, 70, 0
1, 19719, Note_on_c, 0, 62, 0
1, 19725, Note_on_c, 1, 46, 0
1, 19728, Note_on_c, 1, 58, 75
1, 19773, Note_on_c, 1, 58, 0
1, 19776, Note_on_c, 0, 74, 93
1, 19776, Note_on_c, 0, 65, 93
1, 19776, Note_on_c, 1, 46, 75
1, 19821, Note_on_c, 1, 46, 0
1, 19824, Note_on_c, 1, 58, 75
1, 19869, Note_on_c, 1, 58, 0
1, 19872, Note_on_c, 0, 74, 0
1, 19872, Note_on_c, 0, 65, 0
1, 19872, Note_on_c, 0, 72, 78
1, 19872, Note_on_c, 0, 63, 78
1, 19872, Note_on_c, 1, 46, 75
1, 19911, Note_on_c, 0, 72, 0
1, 19911, Note_on_c, 0, 63, 0
1, 19917, Note_on_c, 1, 46, 0
1, 19920, Note_on_c, 1, 58, 75
1, 19965, Note_on_c, 1, 58, 0
1, 19968, Note_on_c, 0, 75, 96
1, 19968, Note_on_c, 0, 67, 96
1, 19968, Note_on_c, 1, 46, 75
1, 20013, Note_on_c, 1, 46, 0
1, 20016, Note_on_c, 1, 58, 75
1, 20061, Note_on_c, 1, 58, 0
1, 20064, Note_on_c, 1, 46, 75
1, 20109, Note_on_c, 1, 46, 0
1, 20112, Note_on_c, 0, 75, 0
1, 20112, Note_on_c, 0, 67, 0
1, 20112, Note_on_c, 0, 74, 77
1, 20112, Note_on_c, 0, 65, 77
1, 20112, Note_on_c, 1, 58, 75
1, 20157, Note_on_c, 0, 74, 0
1, 20157, Note_on_c, 0, 65, 0
1, 20157, Note_on_c, 1, 58, 0
1, 20160, Note_on_c, 0, 72, 76
1, 20160, Note_on_c, 0, 63, 76
1, 20160, Note_on_c, 1, 46, 75
1, 20205, Note_on_c, 1, 46, 0
1, 20208, Note_on_c, 1, 58, 75
1, 20249, Note_on_c, 0, 72, 0
1, 20249, Note_on_c, 0, 63, 0
1, 20253, Note_on_c, 1, 58, 0
1, 20256, Note_on_c, 0, 74, 75
1, 20256, Note_on_c, 0, 70, 75
1, 20256, Note_on_c, 1, 46, 75
1, 20295, Note_on_c, 0, 74, 0
1, 20295, Note_on_c, 0, 70, 0
1, 20301, Note_on_c, 1, 46, 0
1, 20304, Note_on_c, 1, 58, 75
1, 20349, Note_on_c, 1, 58, 0
1, 20352, Note_on_c, 0, 75, 91
1, 20352, Note_on_c, 0, 72, 91
1, 20352, Note_on_c, 1, 46, 75
1, 20397, Note_on_c, 1, 46, 0
1, 20400, Note_on_c, 1, 58, 75
1, 20445, Note_on_c, 1, 58, 0
1, 20448, Note_on_c, 0, 75, 0
1, 20448, Note_on_c, 0, 72, 0
1, 20448, Note_on_c, 0, 74, 76
1, 20448, Note_on_c, 0, 70, 76
1, 20448, Note_on_c, 1, 46, 75
1, 20487, Note_on_c, 0, 74, 0
1, 20487, Note_on_c, 0, 70, 0
1, 20493, Note_on_c, 1, 46, 0
1, 20496, Note_on_c, 1, 58, 75
1, 20541, Note_on_c, 1, 58, 0
1, 20544, Note_on_c, 0, 77, 93
1, 20544, Note_on_c, 0, 74, 93
1, 20544, Note_on_c, 1, 46, 75
1, 20589, Note_on_c, 1, 46, 0
1, 20592, Note_on_c, 1, 58, 75
1, 20637, Note_on_c, 1, 58, 0
1, 20640, Note_on_c, 0, 77, 0
1, 20640, Note_on_c, 0, 74, 0
1, 20640, Note_on_c, 0, 75, 78
1, 20640, Note_on_c, 0, 72, 78
1, 20640, Note_on_c, 1, 46, 75
1, 20679, Note_on_c, 0, 75, 0
1, 20679, Note_on_c, 0, 72, 0
1, 20685, Note_on_c, 1, 46, 0
1, 20688, Note_on_c, 1, 58, 75
1, 20733, Note_on_c, 1, 58, 0
1, 20736, Note_on_c, 0, 79, 96
1, 20736, Note_on_c, 0, 75, 96
1, 20736, Note_on_c, 1, 46, 75
1, 20781, Note_on_c, 1, 46, 0
1, 20784, Note_on_c, 1, 58, 75
1, 20829, Note_on_c, 1, 58, 0
1, 20832, Note_on_c, 1, 46, 75
1, 20877, Note_on_c, 1, 46, 0
1, 20880, Note_on_c, 0, 79, 0
1, 20880, Note_on_c, 0, 75, 0
1, 20880, Note_on_c, 0, 77, 77
1, 20880, Note_on_c, 0, 74, 77
1, 20880, Note_on_c, 1, 58, 75
1, 20925, Note_on_c, 0, 77, 0
1, 20925, Note_on_c, 0, 74, 0
1, 20925, Note_on_c, 1, 58, 0
1, 20928, Note_on_c, 0, 75, 76
1, 20928, Note_on_c, 0, 72, 76
1, 20928, Note_on_c, 1, 46, 75
1, 20967, Note_on_c, 0, 75, 0
1, 20967, Note_on_c, 0, 72, 0
1, 20973, Note_on_c, 1, 46, 0
1, 20976, Note_on_c, 1, 58, 75
1, 21021, Note_on_c, 1, 58, 0
1, 21024, Note_on_c, 0, 77, 75
1, 21024, Note_on_c, 0, 74, 75
1, 21024, Note_on_c, 1, 46, 75
1, 21063, Note_on_c, 0, 77, 0
1, 21063, Note_on_c, 0, 74, 0
1, 21069, Note_on_c, 1, 46, 0
1, 21072, Note_on_c, 1, 58, 75
1, 21117, Note_on_c, 1, 58, 0
1, 21120, Note_on_c, 0, 79, 91
1, 21120, Note_on_c, 0, 75, 91
1, 21120, Note_on_c, 1, 46, 75
1, 21165, Note_on_c, 1, 46, 0
1, 21168, Note_on_c, 1, 58, 75
1, 21213, Note_on_c, 1, 58, 0
1, 21216, Note_on_c, 0, 79, 0
1, 21216, Note_on_c, 0, 75, 0
1, 21216, Note_on_c, 0, 77, 76
1, 21216, Note_on_c, 0, 74, 76
1, 21216, Note_on_c, 1, 46, 76
1, 21255, Note_on_c, 0, 77, 0
1, 21255, Note_on_c, 0, 74, 0
1, 21261, Note_on_c, 1, 46, 0
1, 21264, Note_on_c, 1, 58, 76
1, 21309, Note_on_c, 1, 58, 0
1, 21312, Note_on_c, 0, 80, 93
1, 21312, Note_on_c, 0, 77, 93
1, 21312, Note_on_c, 1, 46, 77
1, 21357, Note_on_c, 1, 46, 0
1, 21360, Note_on_c, 1, 58, 78
1, 21405, Note_on_c, 1, 58, 0
1, 21408, Note_on_c, 0, 80, 0
1, 21408, Note_on_c, 0, 77, 0
1, 21408, Note_on_c, 0, 79, 78
1, 21408, Note_on_c, 0, 75, 78
1, 21408, Note_on_c, 1, 46, 78
1, 21447, Note_on_c, 0, 79, 0
1, 21447, Note_on_c, 0, 75, 0
1, 21453, Note_on_c, 1, 46, 0
1, 21456, Note_on_c, 1, 58, 79
1, 21501, Note_on_c, 1, 58, 0
1, 21504, Note_on_c, 0, 81, 96
1, 21504, Note_on_c, 0, 75, 96
1, 21504, Note_on_c, 0, 72, 96
1, 21504, Note_on_c, 1, 46, 80
1, 21549, Note_on_c, 1, 46, 0
1, 21552, Note_on_c, 1, 58, 80
1, 21597, Note_on_c, 1, 58, 0
1, 21600, Note_on_c, 1, 46, 80
1, 21645, Note_on_c, 1, 46, 0
1, 21648, Note_on_c, 0, 81, 0
1, 21648, Note_on_c, 0, 75, 0
1, 21648, Note_on_c, 0, 72, 0
1, 21648, Note_on_c, 0, 82, 80
1, 21648, Note_on_c, 0, 77, 80
1, 21648, Note_on_c, 0, 74, 80
1, 21648, Note_on_c, 1, 58, 80
1, 21693, Note_on_c, 0, 82, 0
1, 21693, Note_on_c, 0, 77, 0
1, 21693, Note_on_c, 0, 74, 0
1, 21693, Note_on_c, 1, 58, 0
1, 21696, Note_on_c, 0, 82, 80
1, 21696, Note_on_c, 0, 77, 80
1, 21696, Note_on_c, 0, 74, 80
1, 21696, Note_on_c, 1, 46, 80
1, 21735, Note_on_c, 0, 82, 0
1, 21735, Note_on_c, 0, 77, 0
1, 21735, Note_on_c, 0, 74, 0
1, 21741, Note_on_c, 1, 46, 0
1, 21744, Note_on_c, 1, 58, 80
1, 21789, Note_on_c, 1, 58, 0
1, 21792, Note_on_c, 0, 70, 80
1, 21792, Note_on_c, 0, 65, 80
1, 21792, Note_on_c, 0, 62, 80
1, 21792, Note_on_c, 1, 46, 80
1, 21831, Note_on_c, 0, 70, 0
1, 21831, Note_on_c, 0, 65, 0
1, 21831, Note_on_c, 0, 62, 0
1, 21837, Note_on_c, 1, 46, 0
1, 21840, Note_on_c, 1, 58, 80
1, 21885, Note_on_c, 1, 58, 0
1, 21888, Note_on_c, 0, 69, 96
1, 21888, Note_on_c, 0, 63, 96
1, 21888, Note_on_c, 0, 60, 96
1, 21888, Note_on_c, 1, 46, 80
1, 21933, Note_on_c, 1, 46, 0
1, 21936, Note_on_c, 1, 58, 80
1, 21981, Note_on_c, 1, 58, 0
1, 21984, Note_on_c, 1, 46, 80
1, 22029, Note_on_c, 1, 46, 0
1, 22032, Note_on_c, 0, 69, 0
1, 22032, Note_on_c, 0, 63, 0
1, 22032, Note_on_c, 0, 60, 0
1, 22032, Note_on_c, 0, 70, 80
1, 22032, Note_on_c, 0, 65, 80
1, 22032, Note_on_c, 0, 62, 80
1, 22032, Note_on_c, 1, 58, 80
1, 22077, Note_on_c, 0, 70, 0
1, 22077, Note_on_c, 0, 65, 0
1, 22077, Note_on_c, 0, 62, 0
1, 22077, Note_on_c, 1, 58, 0
1, 22080, Note_on_c, 0, 70, 80
1, 22080, Note_on_c, 0, 65, 80
1, 22080, Note_on_c, 0, 62, 80
1, 22080, Note_on_c, 1, 46, 80
1, 22119, Note_on_c, 0, 70, 0
1, 22119, Note_on_c, 0, 65, 0
1, 22119, Note_on_c, 0, 62, 0
1, 22125, Note_on_c, 1, 46, 0
1, 22128, Note_on_c, 1, 58, 80
1, 22173, Note_on_c, 1, 58, 0
1, 22176, Note_on_c, 0, 70, 80
1, 22176, Note_on_c, 0, 65, 80
1, 22176, Note_on_c, 0, 62, 80
1, 22176, Note_on_c, 1, 46, 80
1, 22215, Note_on_c, 0, 70, 0
1, 22215, Note_on_c, 0, 65, 0
1, 22215, Note_on_c, 0, 62, 0
1, 22221, Note_on_c, 1, 46, 0
1, 22224, Note_on_c, 1, 58, 80
1, 22269, Note_on_c, 1, 58, 0
1, 22272, Note_on_c, 0, 75, 96
1, 22272, Note_on_c, 0, 72, 96
1, 22272, Note_on_c, 0, 69, 96
1, 22272, Note_on_c, 1, 46, 80
1, 22317, Note_on_c, 1, 46, 0
1, 22320, Note_on_c, 1, 58, 80
1, 22365, Note_on_c, 1, 58, 0
1, 22368, Note_on_c, 1, 46, 80
1, 22413, Note_on_c, 1, 46, 0
1, 22416, Note_on_c, 0, 75, 0
1, 22416, Note_on_c, 0, 72, 0
1, 22416, Note_on_c, 0, 69, 0
1, 22416, Note_on_c, 0, 69, 78
1, 22416, Note_on_c, 0, 65, 78
1, 22416, Note_on_c, 0, 63, 78
1, 22416, Note_on_c, 1, 58, 80
1, 22461, Note_on_c, 0, 69, 0
1, 22461, Note_on_c, 0, 65, 0
1, 22461, Note_on_c, 0, 63, 0
1, 22461, Note_on_c, 1, 58, 0
1, 22464, Note_on_c, 0, 70, 77
1, 22464, Note_on_c, 0, 65, 77
1, 22464, Note_on_c, 0, 62, 77
1, 22464, Note_on_c, 1, 46, 80
1, 22503, Note_on_c, 0, 70, 0
1, 22503, Note_on_c, 0, 65, 0
1, 22503, Note_on_c, 0, 62, 0
1, 22509, Note_on_c, 1, 46, 0
1, 22512, Note_on_c, 1, 58, 80
1, 22557, Note_on_c, 1, 58, 0
1, 22560, Note_on_c, 0, 70, 76
1, 22560, Note_on_c, 0, 65, 76
1, 22560, Note_on_c, 0, 62, 76
1, 22560, Note_on_c, 1, 46, 80
1, 22599, Note_on_c, 0, 70, 0
1, 22599, Note_on_c, 0, 65, 0
1, 22599, Note_on_c, 0, 62, 0
1, 22605, Note_on_c, 1, 46, 0
1, 22608, Note_on_c, 1, 58, 80
1, 22653, Note_on_c, 1, 58, 0
1, 22656, Note_on_c, 0, 75, 91
1, 22656, Note_on_c, 0, 72, 91
1, 22656, Note_on_c, 0, 69, 91
1, 22656, Note_on_c, 1, 46, 80
1, 22701, Note_on_c, 1, 46, 0
1, 22704, Note_on_c, 1, 58, 80
1, 22749, Note_on_c, 1, 58, 0
1, 22752, Note_on_c, 1, 46, 80
1, 22797, Note_on_c, 1, 46, 0
1, 22800, Note_on_c, 0, 75, 0
1, 22800, Note_on_c, 0, 72, 0
1, 22800, Note_on_c, 0, 69, 0
1, 22800, Note_on_c, 0, 69, 72
1, 22800, Note_on_c, 0, 65, 72
1, 22800, Note_on_c, 0, 63, 72
1, 22800, Note_on_c, 1, 58, 80
1, 22845, Note_on_c, 0, 69, 0
1, 22845, Note_on_c, 0, 65, 0
1, 22845, Note_on_c, 0, 63, 0
1, 22845, Note_on_c, 1, 58, 0
1, 22848, Note_on_c, 0, 70, 71
1, 22848, Note_on_c, 0, 65, 71
1, 22848, Note_on_c, 0, 62, 71
1, 22848, Note_on_c, 1, 46, 80
1, 22887, Note_on_c, 0, 70, 0
1, 22887, Note_on_c, 0, 65, 0
1, 22887, Note_on_c, 0, 62, 0
1, 22937, Note_on_c, 1, 46, 0
1, 22944, Note_on_c, 0, 84, 97
1, 22956, Note_on_c, 0, 84, 0
1, 22956, Note_on_c, 0, 82, 97
1, 22968, Note_on_c, 0, 82, 0
1, 22968, Note_on_c, 0, 81, 97
1, 22980, Note_on_c, 0, 81, 0
1, 22980, Note_on_c, 0, 82, 113
1, 23070, Note_on_c, 0, 82, 0
1, 23072, Note_on_c, 0, 86, 80
1, 23102, Note_on_c, 0, 86, 0
1, 23104, Note_on_c, 0, 84, 80
1, 23134, Note_on_c, 0, 84, 0
1, 23136, Note_on_c, 0, 82, 80
1, 23166, Note_on_c, 0, 82, 0
1, 23168, Note_on_c, 0, 84, 80
1, 23198, Note_on_c, 0, 84, 0
1, 23200, Note_on_c, 0, 86, 80
1, 23230, Note_on_c, 0, 86, 0
1, 23232, Note_on_c, 0, 79, 80
1, 23262, Note_on_c, 0, 79, 0
1, 23264, Note_on_c, 0, 82, 80
1, 23294, Note_on_c, 0, 82, 0
1, 23296, Note_on_c, 0, 81, 80
1, 23326, Note_on_c, 0, 81, 0
1, 23328, Note_on_c, 0, 79, 80
1, 23358, Note_on_c, 0, 79, 0
1, 23360, Note_on_c, 0, 81, 80
1, 23390, Note_on_c, 0, 81, 0
1, 23392, Note_on_c, 0, 82, 80
1, 23422, Note_on_c, 0, 82, 0
1, 23424, Note_on_c, 0, 75, 70
1, 23424, Note_on_c, 1, 51, 80
1, 23454, Note_on_c, 0, 75, 0
1, 23454, Note_on_c, 1, 51, 0
1, 23456, Note_on_c, 0, 79, 70
1, 23456, Note_on_c, 1, 55, 80
1, 23486, Note_on_c, 0, 79, 0
1, 23486, Note_on_c, 1, 55, 0
1, 23488, Note_on_c, 0, 77, 70
1, 23488, Note_on_c, 1, 53, 80
1, 23518, Note_on_c, 0, 77, 0
1, 23518, Note_on_c, 1, 53, 0
1, 23520, Note_on_c, 0, 75, 71
1, 23520, Note_on_c, 1, 51, 81
1, 23550, Note_on_c, 0, 75, 0
1, 23550, Note_on_c, 1, 51, 0
1, 23552, Note_on_c, 0, 77, 71
1, 23552, Note_on_c, 1, 53, 81
1, 23582, Note_on_c, 0, 77, 0
1, 23582, Note_on_c, 1, 53, 0
1, 23584, Note_on_c, 0, 79, 71
1, 23584, Note_on_c, 1, 55, 82
1, 23614, Note_on_c, 0, 79, 0
1, 23614, Note_on_c, 1, 55, 0
1, 23616, Note_on_c, 0, 72, 72
1, 23616, Note_on_c, 1, 48, 82
1, 23646, Note_on_c, 0, 72, 0
1, 23646, Note_on_c, 1, 48, 0
1, 23648, Note_on_c, 0, 75, 72
1, 23648, Note_on_c, 1, 51, 83
1, 23678, Note_on_c, 0, 75, 0
1, 23678, Note_on_c, 1, 51, 0
1, 23680, Note_on_c, 0, 74, 73
1, 23680, Note_on_c, 1, 50, 83
1, 23710, Note_on_c, 0, 74, 0
1, 23710, Note_on_c, 1, 50, 0
1, 23712, Note_on_c, 0, 72, 73
1, 23712, Note_on_c, 1, 48, 84
1, 23742, Note_on_c, 0, 72, 0
1, 23742, Note_on_c, 1, 48, 0
1, 23744, Note_on_c, 0, 74, 73
1, 23744, Note_on_c, 1, 50, 84
1, 23774, Note_on_c, 0, 74, 0
1, 23774, Note_on_c, 1, 50, 0
1, 23776, Note_on_c, 0, 75, 74
1, 23776, Note_on_c, 1, 51, 85
1, 23806, Note_on_c, 0, 75, 0
1, 23806, Note_on_c, 1, 51, 0
1, 23808, Note_on_c, 1, 53, 96
1, 23808, Note_on_c, 1, 41, 96
1, 23832, Note_on_c, 0, 57, 75
1, 23847, Note_on_c, 1, 53, 0
1, 23847, Note_on_c, 1, 41, 0
1, 23855, Note_on_c, 0, 57, 0
1, 23856, Note_on_c, 0, 60, 75
1, 23879, Note_on_c, 0, 60, 0
1, 23880, Note_on_c, 0, 57, 75
1, 23903, Note_on_c, 0, 57, 0
1, 23904, Note_on_c, 1, 65, 96
1, 23904, Note_on_c, 1, 53, 96
1, 23928, Note_on_c, 0, 60, 75
1, 23943, Note_on_c, 1, 65, 0
1, 23943, Note_on_c, 1, 53, 0
1, 23951, Note_on_c, 0, 60, 0
1, 23952, Note_on_c, 0, 65, 75
1, 23975, Note_on_c, 0, 65, 0
1, 23976, Note_on_c, 0, 60, 75
1, 23999, Note_on_c, 0, 60, 0
1, 24000, Note_on_c, 1, 60, 96
1, 24000, Note_on_c, 1, 48, 96
1, 24024, Note_on_c, 0, 65, 75
1, 24039, Note_on_c, 1, 60, 0
1, 24039, Note_on_c, 1, 48, 0
1, 24047, Note_on_c, 0, 65, 0
1, 24048, Note_on_c, 0, 69, 75
1, 24071, Note_on_c, 0, 69, 0
1, 24072, Note_on_c, 0, 65, 75
1, 24095, Note_on_c, 0, 65, 0
1, 24096, Note_on_c, 1, 57, 96
1, 24096, Note_on_c, 1, 45, 96
1, 24120, Note_on_c, 0, 69, 75
1, 24135, Note_on_c, 1, 57, 0
1, 24135, Note_on_c, 1, 45, 0
1, 24143, Note_on_c, 0, 69, 0
1, 24144, Note_on_c, 0, 72, 75
1, 24167, Note_on_c, 0, 72, 0
1, 24168, Note_on_c, 0, 69, 75
1, 24192, Note_on_c, 0, 75, 91
1, 24192, Note_on_c, 0, 72, 91
1, 24192, Note_on_c, 1, 53, 96
1, 24192, Note_on_c, 1, 41, 96
1, 24480, Note_on_c, 0, 75, 0
1, 24480, Note_on_c, 0, 72, 0
1, 24480, Note_on_c, 0, 69, 0
1, 24480, Note_on_c, 1, 53, 0
1, 24480, Note_on_c, 1, 41, 0
1, 24576, Note_on_c, 1, 62, 96
1, 24576, Note_on_c, 1, 50, 96
1, 24600, Note_on_c, 0, 66, 75
1, 24615, Note_on_c, 1, 62, 0
1, 24615, Note_on_c, 1, 50, 0
1, 24623, Note_on_c, 0, 66, 0
1, 24624, Note_on_c, 0, 69, 75
1, 24647, Note_on_c, 0, 69, 0
1, 24648, Note_on_c, 0, 66, 75
1, 24671, Note_on_c, 0, 66, 0
1, 24672, Note_on_c, 1, 60, 96
1, 24672, Note_on_c, 1, 48, 96
1, 24696, Note_on_c, 0, 69, 75
1, 24711, Note_on_c, 1, 60, 0
1, 24711, Note_on_c, 1, 48, 0
1, 24719, Note_on_c, 0, 69, 0
1, 24720, Note_on_c, 0, 72, 75
1, 24743, Note_on_c, 0, 72, 0
1, 24744, Note_on_c, 0, 69, 75
1, 24767, Note_on_c, 0, 69, 0
1, 24768, Note_on_c, 1, 57, 96
1, 24768, Note_on_c, 1, 45, 96
1, 24792, Note_on_c, 0, 72, 75
1, 24807, Note_on_c, 1, 57, 0
1, 24807, Note_on_c, 1, 45, 0
1, 24815, Note_on_c, 0, 72, 0
1, 24816, Note_on_c, 0, 78, 75
1, 24839, Note_on_c, 0, 78, 0
1, 24840, Note_on_c, 0, 72, 75
1, 24863, Note_on_c, 0, 72, 0
1, 24864, Note_on_c, 1, 54, 96
1, 24864, Note_on_c, 1, 42, 96
1, 24888, Note_on_c, 0, 78, 75
1, 24903, Note_on_c, 1, 54, 0
1, 24903, Note_on_c, 1, 42, 0
1, 24911, Note_on_c, 0, 78, 0
1, 24912, Note_on_c, 0, 81, 75
1, 24935, Note_on_c, 0, 81, 0
1, 24936, Note_on_c, 0, 78, 75
1, 24960, Note_on_c, 0, 84, 91
1, 24960, Note_on_c, 0, 81, 91
1, 24960, Note_on_c, 1, 50, 96
1, 24960, Note_on_c, 1, 38, 96
1, 25248, Note_on_c, 0, 84, 0
1, 25248, Note_on_c, 0, 81, 0
1, 25248, Note_on_c, 0, 78, 0
1, 25248, Note_on_c, 1, 50, 0
1, 25248, Note_on_c, 1, 38, 0
1, 25344, Note_on_c, 1, 58, 96
1, 25344, Note_on_c, 1, 46, 96
1, 25368, Note_on_c, 0, 62, 75
1, 25383, Note_on_c, 1, 58, 0
1, 25383, Note_on_c, 1, 46, 0
1, 25391, Note_on_c, 0, 62, 0
1, 25392, Note_on_c, 0, 67, 75
1, 25415, Note_on_c, 0, 67, 0
1, 25416, Note_on_c, 0, 62, 75
1, 25439, Note_on_c, 0, 62, 0
1, 25440, Note_on_c, 1, 55, 96
1, 25440, Note_on_c, 1, 43, 96
1, 25464, Note_on_c, 0, 67, 75
1, 25479, Note_on_c, 1, 55, 0
1, 25479, Note_on_c, 1, 43, 0
1, 25487, Note_on_c, 0, 67, 0
1, 25488, Note_on_c, 0, 70, 75
1, 25511, Note_on_c, 0, 70, 0
1, 25512, Note_on_c, 0, 67, 75
1, 25535, Note_on_c, 0, 67, 0
1, 25536, Note_on_c, 1, 50, 96
1, 25536, Note_on_c, 1, 38, 96
1, 25560, Note_on_c, 0, 70, 75
1, 25575, Note_on_c, 1, 50, 0
1, 25575, Note_on_c, 1, 38, 0
1, 25583, Note_on_c, 0, 70, 0
1, 25584, Note_on_c, 0, 74, 75
1, 25607, Note_on_c, 0, 74, 0
1, 25608, Note_on_c, 0, 70, 75
1, 25631, Note_on_c, 0, 70, 0
1, 25632, Note_on_c, 1, 55, 96
1, 25632, Note_on_c, 1, 43, 96
1, 25656, Note_on_c, 0, 74, 75
1, 25671, Note_on_c, 1, 55, 0
1, 25671, Note_on_c, 1, 43, 0
1, 25679, Note_on_c, 0, 74, 0
1, 25680, Note_on_c, 0, 79, 75
1, 25703, Note_on_c, 0, 79, 0
1, 25704, Note_on_c, 0, 74, 75
1, 25728, Note_on_c, 0, 82, 91
1, 25728, Note_on_c, 0, 79, 91
1, 25728, Note_on_c, 1, 53, 96
1, 25728, Note_on_c, 1, 41, 96
1, 26016, Note_on_c, 0, 82, 0
1, 26016, Note_on_c, 0, 79, 0
1, 26016, Note_on_c, 0, 74, 0
1, 26016, Note_on_c, 1, 53, 0
1, 26016, Note_on_c, 1, 41, 0
1, 26112, Note_on_c, 1, 64, 96
1, 26112, Note_on_c, 1, 52, 96
1, 26136, Note_on_c, 0, 67, 75
1, 26151, Note_on_c, 1, 64, 0
1, 26151, Note_on_c, 1, 52, 0
1, 26159, Note_on_c, 0, 67, 0
1, 26160, Note_on_c, 0, 70, 75
1, 26183, Note_on_c, 0, 70, 0
1, 26184, Note_on_c, 0, 67, 75
1, 26207, Note_on_c, 0, 67, 0
1, 26208, Note_on_c, 1, 60, 96
1, 26208, Note_on_c, 1, 48, 96
1, 26232, Note_on_c, 0, 70, 75
1, 26247, Note_on_c, 1, 60, 0
1, 26247, Note_on_c, 1, 48, 0
1, 26255, Note_on_c, 0, 70, 0
1, 26256, Note_on_c, 0, 76, 75
1, 26279, Note_on_c, 0, 76, 0
1, 26280, Note_on_c, 0, 70, 75
1, 26303, Note_on_c, 0, 70, 0
1, 26304, Note_on_c, 1, 58, 96
1, 26304, Note_on_c, 1, 46, 96
1, 26328, Note_on_c, 0, 76, 75
1, 26343, Note_on_c, 1, 58, 0
1, 26343, Note_on_c, 1, 46, 0
1, 26351, Note_on_c, 0, 76, 0
1, 26352, Note_on_c, 0, 79, 75
1, 26375, Note_on_c, 0, 79, 0
1, 26376, Note_on_c, 0, 76, 75
1, 26399, Note_on_c, 0, 76, 0
1, 26400, Note_on_c, 1, 55, 96
1, 26400, Note_on_c, 1, 43, 96
1, 26424, Note_on_c, 0, 79, 75
1, 26439, Note_on_c, 1, 55, 0
1, 26439, Note_on_c, 1, 43, 0
1, 26447, Note_on_c, 0, 79, 0
1, 26448, Note_on_c, 0, 82, 75
1, 26471, Note_on_c, 0, 82, 0
1, 26472, Note_on_c, 0, 79, 75
1, 26496, Note_on_c, 0, 85, 91
1, 26496, Note_on_c, 0, 82, 91
1, 26496, Note_on_c, 1, 52, 80
1, 26496, Note_on_c, 1, 40, 80
1, 26761, Note_on_c, 1, 52, 0
1, 26761, Note_on_c, 1, 40, 0
1, 26784, Note_on_c, 0, 85, 0
1, 26784, Note_on_c, 0, 82, 0
1, 26784, Note_on_c, 0, 79, 0
1, 26880, Note_on_c, 1, 65, 80
1, 26928, Note_on_c, 1, 65, 0
1, 26928, Note_on_c, 1, 72, 64
1, 26973, Note_on_c, 1, 72, 0
1, 26976, Note_on_c, 1, 69, 64
1, 27021, Note_on_c, 1, 69, 0
1, 27024, Note_on_c, 1, 72, 64
1, 27069, Note_on_c, 1, 72, 0
1, 27072, Note_on_c, 1, 65, 64
1, 27117, Note_on_c, 1, 65, 0
1, 27120, Note_on_c, 1, 72, 64
1, 27165, Note_on_c, 1, 72, 0
1, 27168, Note_on_c, 0, 77, 75
1, 27168, Note_on_c, 1, 69, 64
1, 27207, Note_on_c, 0, 77, 0
1, 27213, Note_on_c, 1, 69, 0
1, 27216, Note_on_c, 1, 72, 64
1, 27261, Note_on_c, 1, 72, 0
1, 27264, Note_on_c, 1, 65, 64
1, 27309, Note_on_c, 1, 65, 0
1, 27312, Note_on_c, 1, 72, 64
1, 27357, Note_on_c, 1, 72, 0
1, 27360, Note_on_c, 0, 84, 75
1, 27360, Note_on_c, 1, 69, 64
1, 27399, Note_on_c, 0, 84, 0
1, 27405, Note_on_c, 1, 69, 0
1, 27408, Note_on_c, 1, 72, 64
1, 27453, Note_on_c, 1, 72, 0
1, 27456, Note_on_c, 1, 65, 64
1, 27501, Note_on_c, 1, 65, 0
1, 27504, Note_on_c, 1, 72, 64
1, 27549, Note_on_c, 1, 72, 0
1, 27552, Note_on_c, 0, 82, 75
1, 27552, Note_on_c, 1, 69, 64
1, 27575, Note_on_c, 0, 82, 0
1, 27576, Note_on_c, 0, 81, 75
1, 27597, Note_on_c, 1, 69, 0
1, 27599, Note_on_c, 0, 81, 0
1, 27600, Note_on_c, 0, 79, 75
1, 27600, Note_on_c, 1, 72, 64
1, 27623, Note_on_c, 0, 79, 0
1, 27624, Note_on_c, 0, 77, 75
1, 27645, Note_on_c, 1, 72, 0
1, 27647, Note_on_c, 0, 77, 0
1, 27648, Note_on_c, 0, 76, 75
1, 27648, Note_on_c, 1, 67, 64
1, 27687, Note_on_c, 0, 76, 0
1, 27693, Note_on_c, 1, 67, 0
1, 27696, Note_on_c, 1, 72, 64
1, 27741, Note_on_c, 1, 72, 0
1, 27744, Note_on_c, 0, 82, 91
1, 27744, Note_on_c, 1, 70, 64
1, 27789, Note_on_c, 1, 70, 0
1, 27792, Note_on_c, 1, 72, 64
1, 27837, Note_on_c, 1, 72, 0
1, 27840, Note_on_c, 1, 67, 64
1, 27885, Note_on_c, 1, 67, 0
1, 27888, Note_on_c, 1, 72, 64
1, 27933, Note_on_c, 1, 72, 0
1, 27936, Note_on_c, 0, 82, 0
1, 27936, Note_on_c, 0, 81, 75
1, 27936, Note_on_c, 1, 70, 64
1, 27959, Note_on_c, 0, 81, 0
1, 27960, Note_on_c, 0, 79, 75
1, 27981, Note_on_c, 1, 70, 0
1, 27983, Note_on_c, 0, 79, 0
1, 27984, Note_on_c, 0, 77, 75
1, 27984, Note_on_c, 1, 72, 64
1, 28007, Note_on_c, 0, 77, 0
1, 28008, Note_on_c, 0, 76, 75
1, 28029, Note_on_c, 1, 72, 0
1, 28031, Note_on_c, 0, 76, 0
1, 28032, Note_on_c, 0, 77, 75
1, 28032, Note_on_c, 1, 65, 64
1, 28099, Note_on_c, 0, 77, 0
1, 28104, Note_on_c, 0, 72, 75
1, 28121, Note_on_c, 1, 65, 0
1, 28127, Note_on_c, 0, 72, 0
1, 28128, Note_on_c, 0, 81, 76
1, 28195, Note_on_c, 0, 81, 0
1, 28200, Note_on_c, 0, 77, 76
1, 28223, Note_on_c, 0, 77, 0
1, 28224, Note_on_c, 0, 84, 77
1, 28291, Note_on_c, 0, 84, 0
1, 28296, Note_on_c, 0, 81, 77
1, 28319, Note_on_c, 0, 81, 0
1, 28320, Note_on_c, 0, 89, 78
1, 28387, Note_on_c, 0, 89, 0
1, 28392, Note_on_c, 0, 84, 78
1, 28415, Note_on_c, 0, 84, 0
1, 28416, Note_on_c, 0, 85, 79
1, 28416, Note_on_c, 1, 65, 64
1, 28461, Note_on_c, 1, 65, 0
1, 28464, Note_on_c, 0, 85, 0
1, 28464, Note_on_c, 0, 86, 79
1, 28464, Note_on_c, 1, 70, 64
1, 28509, Note_on_c, 0, 86, 0
1, 28509, Note_on_c, 1, 70, 0
1, 28512, Note_on_c, 0, 86, 96
1, 28512, Note_on_c, 1, 74, 64
1, 28557, Note_on_c, 1, 74, 0
1, 28560, Note_on_c, 1, 70, 64
1, 28605, Note_on_c, 1, 70, 0
1, 28608, Note_on_c, 1, 65, 64
1, 28638, Note_on_c, 0, 86, 0
1, 28640, Note_on_c, 0, 79, 80
1, 28653, Note_on_c, 1, 65, 0
1, 28656, Note_on_c, 1, 70, 64
1, 28670, Note_on_c, 0, 79, 0
1, 28672, Note_on_c, 0, 81, 79
1, 28701, Note_on_c, 1, 70, 0
1, 28702, Note_on_c, 0, 81, 0
1, 28704, Note_on_c, 0, 82, 78
1, 28704, Note_on_c, 1, 74, 64
1, 28734, Note_on_c, 0, 82, 0
1, 28736, Note_on_c, 0, 81, 78
1, 28749, Note_on_c, 1, 74, 0
1, 28752, Note_on_c, 1, 70, 64
1, 28766, Note_on_c, 0, 81, 0
1, 28768, Note_on_c, 0, 79, 77
1, 28797, Note_on_c, 1, 70, 0
1, 28798, Note_on_c, 0, 79, 0
1, 28800, Note_on_c, 0, 79, 77
1, 28800, Note_on_c, 1, 69, 64
1, 28845, Note_on_c, 1, 69, 0
1, 28848, Note_on_c, 0, 79, 0
1, 28848, Note_on_c, 0, 77, 76
1, 28848, Note_on_c, 1, 72, 64
1, 28893, Note_on_c, 0, 77, 0
1, 28893, Note_on_c, 1, 72, 0
1, 28896, Note_on_c, 0, 77, 91
1, 28896, Note_on_c, 1, 69, 64
1, 28941, Note_on_c, 1, 69, 0
1, 28944, Note_on_c, 1, 65, 64
1, 28989, Note_on_c, 1, 65, 0
1, 28992, Note_on_c, 1, 60, 64
1, 29037, Note_on_c, 1, 60, 0
1, 29040, Note_on_c, 1, 57, 64
1, 29085, Note_on_c, 1, 57, 0
1, 29088, Note_on_c, 0, 77, 0
1, 29088, Note_on_c, 0, 81, 75
1, 29088, Note_on_c, 1, 60, 64
1, 29133, Note_on_c, 1, 60, 0
1, 29136, Note_on_c, 0, 81, 0
1, 29136, Note_on_c, 0, 79, 75
1, 29136, Note_on_c, 1, 70, 64
1, 29136, Note_on_c, 1, 61, 64
1, 29181, Note_on_c, 0, 79, 0
1, 29181, Note_on_c, 1, 70, 0
1, 29181, Note_on_c, 1, 61, 0
1, 29184, Note_on_c, 0, 77, 75
1, 29184, Note_on_c, 0, 69, 75
1, 29184, Note_on_c, 1, 62, 64
1, 29361, Note_on_c, 1, 62, 0
1, 29376, Note_on_c, 0, 69, 0
1, 29406, Note_on_c, 0, 77, 0
1, 29408, Note_on_c, 0, 79, 76
1, 29438, Note_on_c, 0, 79, 0
1, 29440, Note_on_c, 0, 81, 78
1, 29470, Note_on_c, 0, 81, 0
1, 29472, Note_on_c, 0, 82, 79
1, 29502, Note_on_c, 0, 82, 0
1, 29504, Note_on_c, 0, 81, 78
1, 29534, Note_on_c, 0, 81, 0
1, 29536, Note_on_c, 0, 79, 77
1, 29566, Note_on_c, 0, 79, 0
1, 29568, Note_on_c, 0, 72, 75
1, 29568, Note_on_c, 1, 60, 64
1, 29568, Note_on_c, 1, 57, 64
1, 29568, Note_on_c, 1, 53, 64
1, 29568, Note_on_c, 1, 48, 64
1, 29635, Note_on_c, 0, 72, 0
1, 29640, Note_on_c, 0, 69, 75
1, 29662, Note_on_c, 1, 60, 0
1, 29662, Note_on_c, 1, 57, 0
1, 29662, Note_on_c, 1, 53, 0
1, 29662, Note_on_c, 1, 48, 0
1, 29663, Note_on_c, 0, 69, 0
1, 29664, Note_on_c, 0, 65, 75
1, 29753, Note_on_c, 0, 65, 0
1, 29760, Note_on_c, 0, 67, 75
1, 29760, Note_on_c, 1, 60, 64
1, 29760, Note_on_c, 1, 58, 64
1, 29760, Note_on_c, 1, 55, 64
1, 29760, Note_on_c, 1, 48, 64
1, 29784, Note_on_c, 0, 67, 0
1, 29784, Note_on_c, 0, 65, 75
1, 29808, Note_on_c, 0, 65, 0
1, 29808, Note_on_c, 0, 64, 75
1, 29832, Note_on_c, 0, 64, 0
1, 29832, Note_on_c, 0, 65, 75
1, 29854, Note_on_c, 1, 60, 0
1, 29854, Note_on_c, 1, 58, 0
1, 29854, Note_on_c, 1, 55, 0
1, 29854, Note_on_c, 1, 48, 0
1, 29856, Note_on_c, 0, 65, 0
1, 29856, Note_on_c, 0, 69, 75
1, 29901, Note_on_c, 0, 69, 0
1, 29904, Note_on_c, 0, 67, 75
1, 29949, Note_on_c, 0, 67, 0
1, 29952, Note_on_c, 0, 65, 75
1, 29952, Note_on_c, 1, 41, 80
1, 29997, Note_on_c, 1, 41, 0
1, 30000, Note_on_c, 1, 53, 80
1, 30041, Note_on_c, 0, 65, 0
1, 30045, Note_on_c, 1, 53, 0
1, 30048, Note_on_c, 1, 41, 80
1, 30093, Note_on_c, 1, 41, 0
1, 30096, Note_on_c, 1, 53, 80
1, 30141, Note_on_c, 1, 53, 0
1, 30144, Note_on_c, 0, 63, 113
1, 30144, Note_on_c, 0, 60, 113
1, 30144, Note_on_c, 0, 57, 113
1, 30144, Note_on_c, 1, 41, 80
1, 30189, Note_on_c, 1, 41, 0
1, 30192, Note_on_c, 1, 53, 80
1, 30237, Note_on_c, 1, 53, 0
1, 30240, Note_on_c, 1, 41, 80
1, 30285, Note_on_c, 1, 41, 0
1, 30288, Note_on_c, 1, 53, 80
1, 30333, Note_on_c, 1, 53, 0
1, 30336, Note_on_c, 0, 63, 0
1, 30336, Note_on_c, 0, 60, 0
1, 30336, Note_on_c, 0, 57, 0
1, 30336, Note_on_c, 0, 62, 80
1, 30336, Note_on_c, 0, 58, 80
1, 30336, Note_on_c, 1, 41, 80
1, 30375, Note_on_c, 0, 62, 0
1, 30375, Note_on_c, 0, 58, 0
1, 30381, Note_on_c, 1, 41, 0
1, 30384, Note_on_c, 1, 53, 80
1, 30429, Note_on_c, 1, 53, 0
1, 30432, Note_on_c, 1, 41, 80
1, 30477, Note_on_c, 1, 41, 0
1, 30480, Note_on_c, 1, 53, 80
1, 30525, Note_on_c, 1, 53, 0
1, 30528, Note_on_c, 0, 64, 113
1, 30528, Note_on_c, 0, 58, 113
1, 30528, Note_on_c, 0, 55, 113
1, 30528, Note_on_c, 1, 41, 80
1, 30573, Note_on_c, 1, 41, 0
1, 30576, Note_on_c, 1, 53, 80
1, 30621, Note_on_c, 1, 53, 0
1, 30624, Note_on_c, 1, 41, 80
1, 30669, Note_on_c, 1, 41, 0
1, 30672, Note_on_c, 1, 53, 80
1, 30717, Note_on_c, 1, 53, 0
1, 30720, Note_on_c, 0, 64, 0
1, 30720, Note_on_c, 0, 58, 0
1, 30720, Note_on_c, 0, 55, 0
1, 30720, Note_on_c, 0, 65, 80
1, 30720, Note_on_c, 0, 60, 80
1, 30720, Note_on_c, 0, 57, 80
1, 30720, Note_on_c, 1, 41, 80
1, 30759, Note_on_c, 0, 65, 0
1, 30759, Note_on_c, 0, 60, 0
1, 30759, Note_on_c, 0, 57, 0
1, 30765, Note_on_c, 1, 41, 0
1, 30768, Note_on_c, 1, 53, 80
1, 30813, Note_on_c, 1, 53, 0
1, 30816, Note_on_c, 0, 63, 97
1, 30816, Note_on_c, 0, 60, 97
1, 30816, Note_on_c, 0, 57, 97
1, 30816, Note_on_c, 1, 41, 80
1, 30855, Note_on_c, 0, 63, 0
1, 30855, Note_on_c, 0, 60, 0
1, 30855, Note_on_c, 0, 57, 0
1, 30861, Note_on_c, 1, 41, 0
1, 30864, Note_on_c, 1, 53, 80
1, 30909, Note_on_c, 1, 53, 0
1, 30912, Note_on_c, 1, 41, 80
1, 30957, Note_on_c, 1, 41, 0
1, 30960, Note_on_c, 1, 53, 80
1, 31005, Note_on_c, 1, 53, 0
1, 31008, Note_on_c, 0, 62, 97
1, 31008, Note_on_c, 0, 58, 97
1, 31008, Note_on_c, 1, 41, 80
1, 31047, Note_on_c, 0, 62, 0
1, 31047, Note_on_c, 0, 58, 0
1, 31053, Note_on_c, 1, 41, 0
1, 31056, Note_on_c, 1, 53, 80
1, 31101, Note_on_c, 1, 53, 0
1, 31104, Note_on_c, 1, 41, 80
1, 31149, Note_on_c, 1, 41, 0
1, 31152, Note_on_c, 1, 53, 80
1, 31197, Note_on_c, 1, 53, 0
1, 31200, Note_on_c, 0, 64, 113
1, 31200, Note_on_c, 0, 58, 113
1, 31200, Note_on_c, 0, 55, 113
1, 31200, Note_on_c, 1, 41, 80
1, 31245, Note_on_c, 1, 41, 0
1, 31248, Note_on_c, 1, 53, 80
1, 31293, Note_on_c, 1, 53, 0
1, 31296, Note_on_c, 0, 64, 0
1, 31296, Note_on_c, 0, 58, 0
1, 31296, Note_on_c, 0, 55, 0
1, 31296, Note_on_c, 0, 65, 80
1, 31296, Note_on_c, 0, 60, 80
1, 31296, Note_on_c, 0, 57, 80
1, 31296, Note_on_c, 1, 41, 80
1, 31335, Note_on_c, 0, 65, 0
1, 31335, Note_on_c, 0, 60, 0
1, 31335, Note_on_c, 0, 57, 0
1, 31341, Note_on_c, 1, 41, 0
1, 31344, Note_on_c, 1, 53, 80
1, 31389, Note_on_c, 1, 53, 0
1, 31392, Note_on_c, 0, 73, 97
1, 31392, Note_on_c, 0, 70, 97
1, 31392, Note_on_c, 1, 41, 80
1, 31437, Note_on_c, 1, 41, 0
1, 31440, Note_on_c, 1, 53, 80
1, 31485, Note_on_c, 1, 53, 0
1, 31488, Note_on_c, 0, 73, 0
1, 31488, Note_on_c, 0, 70, 0
1, 31488, Note_on_c, 0, 72, 80
1, 31488, Note_on_c, 0, 69, 80
1, 31488, Note_on_c, 1, 41, 80
1, 31527, Note_on_c, 0, 72, 0
1, 31527, Note_on_c, 0, 69, 0
1, 31533, Note_on_c, 1, 41, 0
1, 31536, Note_on_c, 1, 53, 78
1, 31581, Note_on_c, 1, 53, 0
1, 31584, Note_on_c, 0, 76, 80
1, 31584, Note_on_c, 0, 70, 80
1, 31584, Note_on_c, 1, 41, 77
1, 31623, Note_on_c, 0, 76, 0
1, 31623, Note_on_c, 0, 70, 0
1, 31629, Note_on_c, 1, 41, 0
1, 31632, Note_on_c, 1, 53, 76
1, 31677, Note_on_c, 1, 53, 0
1, 31680, Note_on_c, 0, 77, 77
1, 31680, Note_on_c, 0, 69, 77
1, 31680, Note_on_c, 1, 41, 75
1, 31719, Note_on_c, 0, 77, 0
1, 31719, Note_on_c, 0, 69, 0
1, 31725, Note_on_c, 1, 41, 0
1, 31728, Note_on_c, 1, 53, 74
1, 31773, Note_on_c, 1, 53, 0
1, 31776, Note_on_c, 0, 61, 92
1, 31776, Note_on_c, 0, 58, 92
1, 31776, Note_on_c, 1, 41, 73
1, 31821, Note_on_c, 1, 41, 0
1, 31824, Note_on_c, 1, 53, 72
1, 31869, Note_on_c, 1, 53, 0
1, 31872, Note_on_c, 0, 61, 0
1, 31872, Note_on_c, 0, 58, 0
1, 31872, Note_on_c, 0, 60, 73
1, 31872, Note_on_c, 0, 57, 73
1, 31872, Note_on_c, 1, 41, 70
1, 31911, Note_on_c, 0, 60, 0
1, 31911, Note_on_c, 0, 57, 0
1, 31917, Note_on_c, 1, 41, 0
1, 31920, Note_on_c, 1, 53, 69
1, 31965, Note_on_c, 1, 53, 0
1, 31968, Note_on_c, 0, 64, 70
1, 31968, Note_on_c, 0, 58, 70
1, 31968, Note_on_c, 1, 41, 68
1, 32007, Note_on_c, 0, 64, 0
1, 32007, Note_on_c, 0, 58, 0
1, 32013, Note_on_c, 1, 41, 0
1, 32016, Note_on_c, 1, 53, 67
1, 32061, Note_on_c, 1, 53, 0
1, 32064, Note_on_c, 0, 65, 68
1, 32064, Note_on_c, 0, 57, 68
1, 32064, Note_on_c, 1, 41, 66
1, 32153, Note_on_c, 0, 65, 0
1, 32153, Note_on_c, 0, 57, 0
1, 32153, Note_on_c, 1, 41, 0
1, 32208, Note_on_c, 0, 84, 65
1, 32253, Note_on_c, 0, 84, 0
1, 32256, Note_on_c, 0, 84, 64
1, 32256, Note_on_c, 1, 70, 64
1, 32256, Note_on_c, 1, 60, 64
1, 32345, Note_on_c, 0, 84, 0
1, 32345, Note_on_c, 1, 70, 0
1, 32345, Note_on_c, 1, 60, 0
1, 32352, Note_on_c, 0, 83, 64
1, 32375, Note_on_c, 0, 83, 0
1, 32376, Note_on_c, 0, 84, 64
1, 32399, Note_on_c, 0, 84, 0
1, 32400, Note_on_c, 0, 86, 64
1, 32423, Note_on_c, 0, 86, 0
1, 32424, Note_on_c, 0, 84, 64
1, 32447, Note_on_c, 0, 84, 0
1, 32448, Note_on_c, 0, 77, 64
1, 32448, Note_on_c, 1, 69, 64
1, 32448, Note_on_c, 1, 65, 64
1, 32537, Note_on_c, 0, 77, 0
1, 32537, Note_on_c, 1, 69, 0
1, 32537, Note_on_c, 1, 65, 0
1, 32592, Note_on_c, 0, 65, 75
1, 32637, Note_on_c, 0, 65, 0
1, 32640, Note_on_c, 0, 60, 75
1, 32640, Note_on_c, 0, 57, 75
1, 32640, Note_on_c, 1, 41, 75
1, 32729, Note_on_c, 0, 60, 0
1, 32729, Note_on_c, 0, 57, 0
1, 32729, Note_on_c, 1, 41, 0
1, 32736, Note_on_c, 1, 53, 75
1, 32784, Note_on_c, 0, 65, 75
1, 32825, Note_on_c, 1, 53, 0
1, 32829, Note_on_c, 0, 65, 0
1, 32832, Note_on_c, 0, 62, 75
1, 32832, Note_on_c, 0, 58, 75
1, 32832, Note_on_c, 1, 41, 75
1, 32921, Note_on_c, 0, 62, 0
1, 32921, Note_on_c, 0, 58, 0
1, 32921, Note_on_c, 1, 41, 0
1, 32928, Note_on_c, 1, 53, 75
1, 32976, Note_on_c, 0, 65, 75
1, 33017, Note_on_c, 1, 53, 0
1, 33021, Note_on_c, 0, 65, 0
1, 33024, Note_on_c, 0, 60, 75
1, 33024, Note_on_c, 0, 57, 75
1, 33072, Note_on_c, 1, 41, 75
1, 33092, Note_on_c, 1, 41, 0
1, 33113, Note_on_c, 0, 60, 0
1, 33113, Note_on_c, 0, 57, 0
1, 33120, Note_on_c, 1, 45, 75
1, 33140, Note_on_c, 1, 45, 0
1, 33168, Note_on_c, 1, 48, 75
1, 33188, Note_on_c, 1, 48, 0
1, 33216, Note_on_c, 1, 53, 75
1, 33305, Note_on_c, 1, 53, 0
1, 33312, Note_on_c, 0, 74, 75
1, 33335, Note_on_c, 0, 74, 0
1, 33336, Note_on_c, 0, 72, 75
1, 33359, Note_on_c, 0, 72, 0
1, 33360, Note_on_c, 0, 70, 76
1, 33383, Note_on_c, 0, 70, 0
1, 33384, Note_on_c, 0, 69, 76
1, 33407, Note_on_c, 0, 69, 0
1, 33408, Note_on_c, 0, 67, 77
1, 33447, Note_on_c, 0, 67, 0
1, 33504, Note_on_c, 0, 76, 80
1, 33527, Note_on_c, 0, 76, 0
1, 33528, Note_on_c, 0, 74, 80
1, 33551, Note_on_c, 0, 74, 0
1, 33552, Note_on_c, 0, 72, 80
1, 33575, Note_on_c, 0, 72, 0
1, 33576, Note_on_c, 0, 70, 80
1, 33599, Note_on_c, 0, 70, 0
1, 33600, Note_on_c, 0, 69, 80
1, 33639, Note_on_c, 0, 69, 0
1, 33696, Note_on_c, 0, 72, 80
1, 33719, Note_on_c, 0, 72, 0
1, 33720, Note_on_c, 0, 70, 79
1, 33743, Note_on_c, 0, 70, 0
1, 33744, Note_on_c, 0, 69, 79
1, 33767, Note_on_c, 0, 69, 0
1, 33768, Note_on_c, 0, 67, 78
1, 33791, Note_on_c, 0, 67, 0
1, 33792, Note_on_c, 0, 65, 78
1, 33792, Note_on_c, 0, 57, 64
1, 33804, Note_on_c, 0, 65, 0
1, 33804, Note_on_c, 0, 67, 78
1, 33816, Note_on_c, 0, 67, 0
1, 33816, Note_on_c, 0, 65, 78
1, 33840, Note_on_c, 1, 47, 75
1, 33885, Note_on_c, 1, 47, 0
1, 33888, Note_on_c, 1, 48, 75
1, 33933, Note_on_c, 1, 48, 0
1, 33936, Note_on_c, 1, 47, 75
1, 33981, Note_on_c, 1, 47, 0
1, 33984, Note_on_c, 0, 65, 0
1, 33984, Note_on_c, 0, 64, 75
1, 33984, Note_on_c, 0, 57, 0
1, 33984, Note_on_c, 0, 55, 64
1, 33984, Note_on_c, 1, 48, 75
1, 34029, Note_on_c, 0, 64, 0
1, 34029, Note_on_c, 0, 55, 0
1, 34029, Note_on_c, 1, 48, 0
1, 34032, Note_on_c, 0, 77, 80
1, 34032, Note_on_c, 1, 65, 80
1, 34077, Note_on_c, 0, 77, 0
1, 34077, Note_on_c, 1, 65, 0
1, 34080, Note_on_c, 0, 76, 80
1, 34080, Note_on_c, 1, 64, 80
1, 34125, Note_on_c, 0, 76, 0
1, 34125, Note_on_c, 1, 64, 0
1, 34128, Note_on_c, 0, 77, 80
1, 34128, Note_on_c, 1, 65, 80
1, 34173, Note_on_c, 0, 77, 0
1, 34173, Note_on_c, 1, 65, 0
1, 34176, Note_on_c, 0, 72, 80
1, 34176, Note_on_c, 0, 68, 80
1, 34224, Note_on_c, 1, 53, 80
1, 34244, Note_on_c, 1, 53, 0
1, 34265, Note_on_c, 0, 72, 0
1, 34265, Note_on_c, 0, 68, 0
1, 34272, Note_on_c, 1, 65, 80
1, 34320, Note_on_c, 0, 72, 80
1, 34320, Note_on_c, 0, 68, 80
1, 34361, Note_on_c, 1, 65, 0
1, 34365, Note_on_c, 0, 72, 0
1, 34365, Note_on_c, 0, 68, 0
1, 34368, Note_on_c, 0, 73, 80
1, 34368, Note_on_c, 0, 70, 80
1, 34416, Note_on_c, 1, 53, 80
1, 34436, Note_on_c, 1, 53, 0
1, 34457, Note_on_c, 0, 73, 0
1, 34457, Note_on_c, 0, 70, 0
1, 34464, Note_on_c, 1, 65, 80
1, 34512, Note_on_c, 0, 73, 80
1, 34512, Note_on_c, 0, 70, 80
1, 34553, Note_on_c, 1, 65, 0
1, 34557, Note_on_c, 0, 73, 0
1, 34557, Note_on_c, 0, 70, 0
1, 34560, Note_on_c, 0, 72, 80
1, 34560, Note_on_c, 0, 68, 80
1, 34608, Note_on_c, 1, 53, 80
1, 34628, Note_on_c, 1, 53, 0
1, 34649, Note_on_c, 0, 72, 0
1, 34649, Note_on_c, 0, 68, 0
1, 34656, Note_on_c, 1, 56, 80
1, 34676, Note_on_c, 1, 56, 0
1, 34704, Note_on_c, 1, 60, 80
1, 34724, Note_on_c, 1, 60, 0
1, 34752, Note_on_c, 1, 65, 80
1, 34841, Note_on_c, 1, 65, 0
1, 34848, Note_on_c, 0, 77, 96
1, 34887, Note_on_c, 0, 77, 0
1, 34944, Note_on_c, 0, 65, 80
1, 34944, Note_on_c, 1, 49, 80
1, 34992, Note_on_c, 0, 65, 0
1, 34992, Note_on_c, 0, 70, 80
1, 35037, Note_on_c, 0, 70, 0
1, 35040, Note_on_c, 0, 73, 96
1, 35121, Note_on_c, 1, 49, 0
1, 35136, Note_on_c, 1, 51, 80
1, 35232, Note_on_c, 0, 73, 0
1, 35232, Note_on_c, 0, 70, 80
1, 35244, Note_on_c, 0, 70, 0
1, 35244, Note_on_c, 0, 72, 80
1, 35256, Note_on_c, 0, 72, 0
1, 35256, Note_on_c, 0, 70, 80
1, 35313, Note_on_c, 1, 51, 0
1, 35321, Note_on_c, 0, 70, 0
1, 35328, Note_on_c, 0, 68, 80
1, 35328, Note_on_c, 1, 44, 80
1, 35373, Note_on_c, 1, 44, 0
1, 35376, Note_on_c, 1, 56, 80
1, 35421, Note_on_c, 1, 56, 0
1, 35424, Note_on_c, 1, 42, 80
1, 35469, Note_on_c, 1, 42, 0
1, 35472, Note_on_c, 1, 54, 80
1, 35505, Note_on_c, 0, 68, 0
1, 35517, Note_on_c, 1, 54, 0
1, 35520, Note_on_c, 0, 69, 97
1, 35520, Note_on_c, 0, 63, 97
1, 35520, Note_on_c, 0, 60, 97
1, 35520, Note_on_c, 1, 41, 80
1, 35565, Note_on_c, 1, 41, 0
1, 35568, Note_on_c, 1, 53, 80
1, 35613, Note_on_c, 1, 53, 0
1, 35616, Note_on_c, 1, 39, 80
1, 35661, Note_on_c, 1, 39, 0
1, 35664, Note_on_c, 1, 51, 80
1, 35697, Note_on_c, 0, 69, 0
1, 35697, Note_on_c, 0, 63, 0
1, 35697, Note_on_c, 0, 60, 0
1, 35709, Note_on_c, 1, 51, 0
1, 35712, Note_on_c, 0, 70, 80
1, 35712, Note_on_c, 0, 65, 64
1, 35712, Note_on_c, 0, 61, 64
1, 35712, Note_on_c, 1, 37, 80
1, 35760, Note_on_c, 0, 70, 0
1, 35760, Note_on_c, 0, 73, 80
1, 35801, Note_on_c, 0, 65, 0
1, 35801, Note_on_c, 0, 61, 0
1, 35801, Note_on_c, 1, 37, 0
1, 35805, Note_on_c, 0, 73, 0
1, 35808, Note_on_c, 0, 77, 96
1, 35904, Note_on_c, 1, 62, 80
1, 35904, Note_on_c, 1, 59, 80
1, 35904, Note_on_c, 1, 53, 80
1, 36000, Note_on_c, 0, 77, 0
1, 36000, Note_on_c, 0, 71, 80
1, 36012, Note_on_c, 0, 71, 0
1, 36012, Note_on_c, 0, 72, 80
1, 36024, Note_on_c, 0, 72, 0
1, 36024, Note_on_c, 0, 71, 80
1, 36081, Note_on_c, 1, 62, 0
1, 36081, Note_on_c, 1, 59, 0
1, 36081, Note_on_c, 1, 53, 0
1, 36089, Note_on_c, 0, 71, 0
1, 36096, Note_on_c, 0, 72, 80
1, 36096, Note_on_c, 1, 48, 80
1, 36141, Note_on_c, 1, 48, 0
1, 36144, Note_on_c, 1, 60, 80
1, 36189, Note_on_c, 1, 60, 0
1, 36192, Note_on_c, 1, 46, 80
1, 36237, Note_on_c, 1, 46, 0
1, 36240, Note_on_c, 1, 58, 80
1, 36273, Note_on_c, 0, 72, 0
1, 36285, Note_on_c, 1, 58, 0
1, 36288, Note_on_c, 0, 73, 97
1, 36288, Note_on_c, 0, 67, 97
1, 36288, Note_on_c, 0, 64, 97
1, 36288, Note_on_c, 1, 45, 80
1, 36333, Note_on_c, 1, 45, 0
1, 36336, Note_on_c, 1, 57, 80
1, 36381, Note_on_c, 1, 57, 0
1, 36384, Note_on_c, 1, 43, 80
1, 36429, Note_on_c, 1, 43, 0
1, 36432, Note_on_c, 1, 55, 80
1, 36465, Note_on_c, 0, 73, 0
1, 36465, Note_on_c, 0, 67, 0
1, 36465, Note_on_c, 0, 64, 0
1, 36477, Note_on_c, 1, 55, 0
1, 36480, Note_on_c, 0, 74, 80
1, 36480, Note_on_c, 1, 41, 80
1, 36525, Note_on_c, 1, 41, 0
1, 36528, Note_on_c, 0, 74, 0
1, 36528, Note_on_c, 0, 77, 80
1, 36528, Note_on_c, 1, 53, 80
1, 36573, Note_on_c, 0, 77, 0
1, 36573, Note_on_c, 1, 53, 0
1, 36576, Note_on_c, 0, 81, 96
1, 36576, Note_on_c, 1, 41, 80
1, 36621, Note_on_c, 1, 41, 0
1, 36624, Note_on_c, 1, 53, 80
1, 36669, Note_on_c, 1, 53, 0
1, 36672, Note_on_c, 1, 42, 81
1, 36717, Note_on_c, 1, 42, 0
1, 36720, Note_on_c, 1, 54, 81
1, 36765, Note_on_c, 1, 54, 0
1, 36768, Note_on_c, 0, 81, 0
1, 36768, Note_on_c, 0, 74, 81
1, 36768, Note_on_c, 1, 42, 81
1, 36813, Note_on_c, 1, 42, 0
1, 36816, Note_on_c, 1, 54, 81
1, 36857, Note_on_c, 0, 74, 0
1, 36861, Note_on_c, 1, 54, 0
1, 36864, Note_on_c, 0, 75, 82
1, 36864, Note_on_c, 1, 43, 82
1, 36909, Note_on_c, 1, 43, 0
1, 36912, Note_on_c, 0, 75, 0
1, 36912, Note_on_c, 0, 79, 82
1, 36912, Note_on_c, 1, 55, 82
1, 36957, Note_on_c, 0, 79, 0
1, 36957, Note_on_c, 1, 55, 0
1, 36960, Note_on_c, 0, 82, 98
1, 36960, Note_on_c, 1, 43, 82
1, 37005, Note_on_c, 1, 43, 0
1, 37008, Note_on_c, 1, 55, 82
1, 37053, Note_on_c, 1, 55, 0
1, 37056, Note_on_c, 1, 43, 83
1, 37101, Note_on_c, 1, 43, 0
1, 37104, Note_on_c, 1, 55, 83
1, 37149, Note_on_c, 1, 55, 0
1, 37152, Note_on_c, 0, 82, 0
1, 37152, Note_on_c, 0, 76, 83
1, 37152, Note_on_c, 1, 46, 83
1, 37164, Note_on_c, 0, 76, 0
1, 37164, Note_on_c, 0, 77, 83
1, 37176, Note_on_c, 0, 77, 0
1, 37176, Note_on_c, 0, 76, 83
1, 37197, Note_on_c, 1, 46, 0
1, 37200, Note_on_c, 1, 58, 83
1, 37241, Note_on_c, 0, 76, 0
1, 37245, Note_on_c, 1, 58, 0
1, 37248, Note_on_c, 0, 77, 84
1, 37248, Note_on_c, 1, 44, 84
1, 37293, Note_on_c, 1, 44, 0
1, 37296, Note_on_c, 0, 77, 0
1, 37296, Note_on_c, 0, 80, 84
1, 37296, Note_on_c, 1, 56, 84
1, 37341, Note_on_c, 0, 80, 0
1, 37341, Note_on_c, 1, 56, 0
1, 37344, Note_on_c, 0, 84, 100
1, 37344, Note_on_c, 1, 44, 84
1, 37389, Note_on_c, 1, 44, 0
1, 37392, Note_on_c, 1, 56, 84
1, 37437, Note_on_c, 1, 56, 0
1, 37440, Note_on_c, 1, 44, 85
1, 37485, Note_on_c, 1, 44, 0
1, 37488, Note_on_c, 1, 56, 85
1, 37533, Note_on_c, 1, 56, 0
1, 37536, Note_on_c, 0, 84, 0
1, 37536, Note_on_c, 0, 78, 85
1, 37536, Note_on_c, 1, 44, 85
1, 37581, Note_on_c, 1, 44, 0
1, 37584, Note_on_c, 1, 56, 85
1, 37625, Note_on_c, 0, 78, 0
1, 37629, Note_on_c, 1, 56, 0
1, 37632, Note_on_c, 1, 55, 80
1, 37632, Note_on_c, 1, 50, 80
1, 37632, Note_on_c, 1, 47, 80
1, 37632, Note_on_c, 1, 43, 80
1, 37680, Note_on_c, 0, 79, 86
1, 37725, Note_on_c, 0, 79, 0
1, 37728, Note_on_c, 0, 67, 86
1, 37773, Note_on_c, 0, 67, 0
1, 37776, Note_on_c, 0, 79, 86
1, 37809, Note_on_c, 1, 55, 0
1, 37809, Note_on_c, 1, 50, 0
1, 37809, Note_on_c, 1, 47, 0
1, 37809, Note_on_c, 1, 43, 0
1, 37821, Note_on_c, 0, 79, 0
1, 37824, Note_on_c, 0, 67, 86
1, 37869, Note_on_c, 0, 67, 0
1, 37872, Note_on_c, 0, 79, 86
1, 37917, Note_on_c, 0, 79, 0
1, 37920, Note_on_c, 0, 67, 86
1, 37920, Note_on_c, 1, 50, 80
1, 37920, Note_on_c, 1, 47, 80
1, 37959, Note_on_c, 1, 50, 0
1, 37959, Note_on_c, 1, 47, 0
1, 37965, Note_on_c, 0, 67, 0
1, 37968, Note_on_c, 0, 79, 86
1, 38013, Note_on_c, 0, 79, 0
1, 38016, Note_on_c, 0, 67, 86
1, 38016, Note_on_c, 1, 51, 80
1, 38016, Note_on_c, 1, 48, 80
1, 38061, Note_on_c, 0, 67, 0
1, 38064, Note_on_c, 0, 79, 86
1, 38109, Note_on_c, 0, 79, 0
1, 38112, Note_on_c, 0, 67, 86
1, 38112, Note_on_c, 1, 51, 0
1, 38112, Note_on_c, 1, 48, 0
1, 38112, Note_on_c, 1, 50, 81
1, 38112, Note_on_c, 1, 47, 81
1, 38151, Note_on_c, 1, 50, 0
1, 38151, Note_on_c, 1, 47, 0
1, 38157, Note_on_c, 0, 67, 0
1, 38160, Note_on_c, 0, 79, 86
1, 38205, Note_on_c, 0, 79, 0
1, 38208, Note_on_c, 0, 67, 86
1, 38208, Note_on_c, 1, 53, 83
1, 38208, Note_on_c, 1, 50, 83
1, 38253, Note_on_c, 0, 67, 0
1, 38256, Note_on_c, 0, 79, 86
1, 38301, Note_on_c, 0, 79, 0
1, 38304, Note_on_c, 0, 67, 86
1, 38304, Note_on_c, 1, 53, 0
1, 38304, Note_on_c, 1, 50, 0
1, 38304, Note_on_c, 1, 51, 84
1, 38304, Note_on_c, 1, 48, 84
1, 38343, Note_on_c, 1, 51, 0
1, 38343, Note_on_c, 1, 48, 0
1, 38349, Note_on_c, 0, 67, 0
1, 38352, Note_on_c, 0, 79, 86
1, 38397, Note_on_c, 0, 79, 0
1, 38400, Note_on_c, 0, 67, 86
1, 38400, Note_on_c, 1, 55, 102
1, 38400, Note_on_c, 1, 51, 102
1, 38445, Note_on_c, 0, 67, 0
1, 38448, Note_on_c, 0, 79, 86
1, 38493, Note_on_c, 0, 79, 0
1, 38496, Note_on_c, 0, 67, 86
1, 38541, Note_on_c, 0, 67, 0
1, 38544, Note_on_c, 0, 79, 86
1, 38544, Note_on_c, 1, 55, 0
1, 38544, Note_on_c, 1, 51, 0
1, 38544, Note_on_c, 1, 53, 83
1, 38544, Note_on_c, 1, 50, 83
1, 38589, Note_on_c, 0, 79, 0
1, 38589, Note_on_c, 1, 53, 0
1, 38589, Note_on_c, 1, 50, 0
1, 38592, Note_on_c, 0, 67, 86
1, 38592, Note_on_c, 1, 51, 83
1, 38592, Note_on_c, 1, 48, 83
1, 38631, Note_on_c, 1, 51, 0
1, 38631, Note_on_c, 1, 48, 0
1, 38637, Note_on_c, 0, 67, 0
1, 38640, Note_on_c, 0, 79, 86
1, 38685, Note_on_c, 0, 79, 0
1, 38688, Note_on_c, 0, 68, 86
1, 38688, Note_on_c, 1, 51, 81
1, 38688, Note_on_c, 1, 48, 81
1, 38727, Note_on_c, 1, 51, 0
1, 38727, Note_on_c, 1, 48, 0
1, 38733, Note_on_c, 0, 68, 0
1, 38736, Note_on_c, 0, 80, 86
1, 38781, Note_on_c, 0, 80, 0
1, 38784, Note_on_c, 0, 69, 80
1, 38784, Note_on_c, 1, 54, 96
1, 38784, Note_on_c, 1, 51, 96
1, 38829, Note_on_c, 0, 69, 0
1, 38832, Note_on_c, 0, 81, 80
1, 38877, Note_on_c, 0, 81, 0
1, 38880, Note_on_c, 0, 69, 80
1, 38925, Note_on_c, 0, 69, 0
1, 38928, Note_on_c, 0, 81, 81
1, 38928, Note_on_c, 1, 54, 0
1, 38928, Note_on_c, 1, 51, 0
1, 38928, Note_on_c, 1, 53, 81
1, 38928, Note_on_c, 1, 50, 81
1, 38973, Note_on_c, 0, 81, 0
1, 38973, Note_on_c, 1, 53, 0
1, 38973, Note_on_c, 1, 50, 0
1, 38976, Note_on_c, 0, 70, 81
1, 38976, Note_on_c, 1, 53, 81
1, 38976, Note_on_c, 1, 50, 81
1, 39015, Note_on_c, 1, 53, 0
1, 39015, Note_on_c, 1, 50, 0
1, 39021, Note_on_c, 0, 70, 0
1, 39024, Note_on_c, 0, 82, 82
1, 39069, Note_on_c, 0, 82, 0
1, 39072, Note_on_c, 0, 70, 82
1, 39072, Note_on_c, 1, 53, 82
1, 39072, Note_on_c, 1, 50, 82
1, 39111, Note_on_c, 1, 53, 0
1, 39111, Note_on_c, 1, 50, 0
1, 39117, Note_on_c, 0, 70, 0
1, 39120, Note_on_c, 0, 82, 83
1, 39165, Note_on_c, 0, 82, 0
1, 39168, Note_on_c, 0, 71, 83
1, 39168, Note_on_c, 1, 56, 99
1, 39168, Note_on_c, 1, 53, 99
1, 39213, Note_on_c, 0, 71, 0
1, 39216, Note_on_c, 0, 83, 84
1, 39261, Note_on_c, 0, 83, 0
1, 39264, Note_on_c, 0, 71, 84
1, 39309, Note_on_c, 0, 71, 0
1, 39312, Note_on_c, 0, 83, 85
1, 39312, Note_on_c, 1, 56, 0
1, 39312, Note_on_c, 1, 53, 0
1, 39312, Note_on_c, 1, 55, 84
1, 39312, Note_on_c, 1, 52, 84
1, 39357, Note_on_c, 0, 83, 0
1, 39357, Note_on_c, 1, 55, 0
1, 39357, Note_on_c, 1, 52, 0
1, 39360, Note_on_c, 0, 72, 85
1, 39360, Note_on_c, 1, 55, 85
1, 39360, Note_on_c, 1, 52, 85
1, 39399, Note_on_c, 1, 55, 0
1, 39399, Note_on_c, 1, 52, 0
1, 39405, Note_on_c, 0, 72, 0
1, 39408, Note_on_c, 0, 84, 86
1, 39453, Note_on_c, 0, 84, 0
1, 39456, Note_on_c, 0, 84, 86
1, 39456, Note_on_c, 1, 60, 86
1, 39479, Note_on_c, 0, 84, 0
1, 39479, Note_on_c, 1, 60, 0
1, 39480, Note_on_c, 0, 82, 86
1, 39480, Note_on_c, 1, 58, 86
1, 39503, Note_on_c, 0, 82, 0
1, 39503, Note_on_c, 1, 58, 0
1, 39504, Note_on_c, 0, 80, 86
1, 39504, Note_on_c, 1, 56, 86
1, 39527, Note_on_c, 0, 80, 0
1, 39527, Note_on_c, 1, 56, 0
1, 39528, Note_on_c, 0, 79, 86
1, 39528, Note_on_c, 1, 55, 86
1, 39551, Note_on_c, 0, 79, 0
1, 39551, Note_on_c, 1, 55, 0
1, 39552, Note_on_c, 0, 77, 86
1, 39552, Note_on_c, 1, 53, 86
1, 39591, Note_on_c, 0, 77, 0
1, 39591, Note_on_c, 1, 53, 0
1, 39648, Note_on_c, 0, 80, 86
1, 39648, Note_on_c, 1, 56, 86
1, 39671, Note_on_c, 0, 80, 0
1, 39671, Note_on_c, 1, 56, 0
1, 39672, Note_on_c, 0, 79, 86
1, 39672, Note_on_c, 1, 55, 86
1, 39695, Note_on_c, 0, 79, 0
1, 39695, Note_on_c, 1, 55, 0
1, 39696, Note_on_c, 0, 77, 86
1, 39696, Note_on_c, 1, 53, 86
1, 39719, Note_on_c, 0, 77, 0
1, 39719, Note_on_c, 1, 53, 0
1, 39720, Note_on_c, 0, 75, 86
1, 39720, Note_on_c, 1, 51, 86
1, 39743, Note_on_c, 0, 75, 0
1, 39743, Note_on_c, 1, 51, 0
1, 39744, Note_on_c, 0, 74, 86
1, 39744, Note_on_c, 1, 50, 86
1, 39783, Note_on_c, 0, 74, 0
1, 39783, Note_on_c, 1, 50, 0
1, 39840, Note_on_c, 0, 77, 86
1, 39840, Note_on_c, 1, 53, 86
1, 39863, Note_on_c, 0, 77, 0
1, 39863, Note_on_c, 1, 53, 0
1, 39864, Note_on_c, 0, 75, 86
1, 39864, Note_on_c, 1, 51, 86
1, 39887, Note_on_c, 0, 75, 0
1, 39887, Note_on_c, 1, 51, 0
1, 39888, Note_on_c, 0, 74, 86
1, 39888, Note_on_c, 1, 50, 86
1, 39911, Note_on_c, 0, 74, 0
1, 39911, Note_on_c, 1, 50, 0
1, 39912, Note_on_c, 0, 72, 86
1, 39912, Note_on_c, 1, 48, 86
1, 39935, Note_on_c, 0, 72, 0
1, 39935, Note_on_c, 1, 48, 0
1, 39936, Note_on_c, 0, 71, 102
1, 39936, Note_on_c, 1, 47, 86
1, 39975, Note_on_c, 1, 47, 0
1, 40032, Note_on_c, 1, 55, 86
1, 40055, Note_on_c, 1, 55, 0
1, 40056, Note_on_c, 1, 53, 86
1, 40079, Note_on_c, 1, 53, 0
1, 40080, Note_on_c, 1, 51, 86
1, 40103, Note_on_c, 1, 51, 0
1, 40104, Note_on_c, 1, 50, 86
1, 40127, Note_on_c, 1, 50, 0
1, 40128, Note_on_c, 0, 71, 0
1, 40128, Note_on_c, 0, 72, 86
1, 40128, Note_on_c, 1, 51, 86
1, 40167, Note_on_c, 0, 72, 0
1, 40167, Note_on_c, 1, 51, 0
1, 40224, Note_on_c, 0, 73, 102
1, 40224, Note_on_c, 0, 69, 102
1, 40224, Note_on_c, 0, 67, 102
1, 40224, Note_on_c, 1, 57, 86
1, 40247, Note_on_c, 1, 57, 0
1, 40248, Note_on_c, 1, 55, 86
1, 40271, Note_on_c, 1, 55, 0
1, 40272, Note_on_c, 1, 53, 86
1, 40295, Note_on_c, 1, 53, 0
1, 40296, Note_on_c, 1, 52, 86
1, 40319, Note_on_c, 1, 52, 0
1, 40320, Note_on_c, 0, 73, 0
1, 40320, Note_on_c, 0, 67, 0
1, 40320, Note_on_c, 0, 74, 86
1, 40320, Note_on_c, 0, 65, 86
1, 40320, Note_on_c, 1, 53, 86
1, 40359, Note_on_c, 0, 74, 0
1, 40359, Note_on_c, 0, 69, 0
1, 40359, Note_on_c, 0, 65, 0
1, 40359, Note_on_c, 1, 53, 0
1, 40416, Note_on_c, 0, 74, 119
1, 40416, Note_on_c, 0, 69, 119
1, 40416, Note_on_c, 0, 65, 119
1, 40416, Note_on_c, 1, 53, 86
1, 40439, Note_on_c, 1, 53, 0
1, 40440, Note_on_c, 1, 51, 86
1, 40455, Note_on_c, 0, 74, 0
1, 40455, Note_on_c, 0, 69, 0
1, 40455, Note_on_c, 0, 65, 0
1, 40463, Note_on_c, 1, 51, 0
1, 40464, Note_on_c, 1, 50, 86
1, 40487, Note_on_c, 1, 50, 0
1, 40488, Note_on_c, 1, 48, 86
1, 40511, Note_on_c, 1, 48, 0
1, 40512, Note_on_c, 0, 74, 86
1, 40512, Note_on_c, 0, 68, 86
1, 40512, Note_on_c, 0, 65, 86
1, 40512, Note_on_c, 1, 46, 86
1, 40551, Note_on_c, 0, 74, 0
1, 40551, Note_on_c, 0, 68, 0
1, 40551, Note_on_c, 0, 65, 0
1, 40551, Note_on_c, 1, 46, 0
1, 40608, Note_on_c, 0, 74, 102
1, 40608, Note_on_c, 0, 68, 102
1, 40608, Note_on_c, 0, 65, 102
1, 40608, Note_on_c, 1, 46, 86
1, 40631, Note_on_c, 1, 46, 0
1, 40632, Note_on_c, 1, 44, 86
1, 40647, Note_on_c, 0, 74, 0
1, 40647, Note_on_c, 0, 68, 0
1, 40647, Note_on_c, 0, 65, 0
1, 40655, Note_on_c, 1, 44, 0
1, 40656, Note_on_c, 1, 43, 86
1, 40679, Note_on_c, 1, 43, 0
1, 40680, Note_on_c, 1, 41, 86
1, 40703, Note_on_c, 1, 41, 0
1, 40704, Note_on_c, 0, 75, 119
1, 40704, Note_on_c, 0, 70, 119
1, 40704, Note_on_c, 0, 67, 119
1, 40704, Note_on_c, 0, 63, 119
1, 40704, Note_on_c, 1, 39, 86
1, 40743, Note_on_c, 1, 39, 0
1, 40800, Note_on_c, 0, 75, 0
1, 40800, Note_on_c, 0, 70, 0
1, 40800, Note_on_c, 0, 67, 0
1, 40800, Note_on_c, 0, 63, 0
1, 40800, Note_on_c, 0, 63, 75
1, 40845, Note_on_c, 0, 63, 0
1, 40848, Note_on_c, 0, 75, 75
1, 40893, Note_on_c, 0, 75, 0
1, 40896, Note_on_c, 0, 63, 75
1, 40941, Note_on_c, 0, 63, 0
1, 40944, Note_on_c, 0, 75, 75
1, 40989, Note_on_c, 0, 75, 0
1, 40992, Note_on_c, 0, 63, 75
1, 40992, Note_on_c, 1, 55, 75
1, 40992, Note_on_c, 1, 51, 75
1, 41031, Note_on_c, 1, 55, 0
1, 41031, Note_on_c, 1, 51, 0
1, 41037, Note_on_c, 0, 63, 0
1, 41040, Note_on_c, 0, 75, 75
1, 41085, Note_on_c, 0, 75, 0
1, 41088, Note_on_c, 0, 63, 75
1, 41088, Note_on_c, 1, 56, 91
1, 41088, Note_on_c, 1, 53, 91
1, 41133, Note_on_c, 0, 63, 0
1, 41136, Note_on_c, 0, 75, 75
1, 41181, Note_on_c, 0, 75, 0
1, 41184, Note_on_c, 0, 63, 75
1, 41184, Note_on_c, 1, 56, 0
1, 41184, Note_on_c, 1, 53, 0
1, 41184, Note_on_c, 1, 55, 76
1, 41184, Note_on_c, 1, 51, 76
1, 41229, Note_on_c, 0, 63, 0
1, 41232, Note_on_c, 0, 75, 75
1, 41273, Note_on_c, 1, 55, 0
1, 41273, Note_on_c, 1, 51, 0
1, 41277, Note_on_c, 0, 75, 0
1, 41280, Note_on_c, 0, 63, 75
1, 41280, Note_on_c, 1, 58, 77
1, 41280, Note_on_c, 1, 55, 77
1, 41325, Note_on_c, 0, 63, 0
1, 41328, Note_on_c, 0, 75, 75
1, 41373, Note_on_c, 0, 75, 0
1, 41376, Note_on_c, 0, 63, 75
1, 41376, Note_on_c, 1, 58, 0
1, 41376, Note_on_c, 1, 55, 0
1, 41376, Note_on_c, 1, 56, 78
1, 41376, Note_on_c, 1, 53, 78
1, 41421, Note_on_c, 0, 63, 0
1, 41424, Note_on_c, 0, 75, 75
1, 41465, Note_on_c, 1, 56, 0
1, 41465, Note_on_c, 1, 53, 0
1, 41469, Note_on_c, 0, 75, 0
1, 41472, Note_on_c, 0, 63, 75
1, 41472, Note_on_c, 1, 60, 96
1, 41472, Note_on_c, 1, 56, 96
1, 41517, Note_on_c, 0, 63, 0
1, 41520, Note_on_c, 0, 75, 75
1, 41565, Note_on_c, 0, 75, 0
1, 41568, Note_on_c, 0, 63, 75
1, 41613, Note_on_c, 0, 63, 0
1, 41616, Note_on_c, 0, 75, 75
1, 41616, Note_on_c, 1, 60, 0
1, 41616, Note_on_c, 1, 56, 0
1, 41616, Note_on_c, 1, 58, 78
1, 41616, Note_on_c, 1, 55, 78
1, 41661, Note_on_c, 0, 75, 0
1, 41661, Note_on_c, 1, 58, 0
1, 41661, Note_on_c, 1, 55, 0
1, 41664, Note_on_c, 0, 63, 75
1, 41664, Note_on_c, 1, 58, 77
1, 41664, Note_on_c, 1, 55, 77
1, 41703, Note_on_c, 1, 58, 0
1, 41703, Note_on_c, 1, 55, 0
1, 41709, Note_on_c, 0, 63, 0
1, 41712, Note_on_c, 0, 75, 75
1, 41757, Note_on_c, 0, 75, 0
1, 41760, Note_on_c, 0, 64, 75
1, 41760, Note_on_c, 1, 58, 76
1, 41760, Note_on_c, 1, 55, 76
1, 41799, Note_on_c, 1, 58, 0
1, 41799, Note_on_c, 1, 55, 0
1, 41805, Note_on_c, 0, 64, 0
1, 41808, Note_on_c, 0, 76, 75
1, 41853, Note_on_c, 0, 76, 0
1, 41856, Note_on_c, 0, 65, 75
1, 41856, Note_on_c, 1, 61, 91
1, 41856, Note_on_c, 1, 58, 91
1, 41901, Note_on_c, 0, 65, 0
1, 41904, Note_on_c, 0, 77, 75
1, 41949, Note_on_c, 0, 77, 0
1, 41952, Note_on_c, 0, 65, 75
1, 41997, Note_on_c, 0, 65, 0
1, 42000, Note_on_c, 0, 77, 76
1, 42000, Note_on_c, 1, 61, 0
1, 42000, Note_on_c, 1, 58, 0
1, 42000, Note_on_c, 1, 60, 76
1, 42000, Note_on_c, 1, 56, 76
1, 42045, Note_on_c, 0, 77, 0
1, 42045, Note_on_c, 1, 60, 0
1, 42045, Note_on_c, 1, 56, 0
1, 42048, Note_on_c, 0, 65, 76
1, 42048, Note_on_c, 1, 60, 76
1, 42048, Note_on_c, 1, 56, 76
1, 42087, Note_on_c, 1, 60, 0
1, 42087, Note_on_c, 1, 56, 0
1, 42093, Note_on_c, 0, 65, 0
1, 42096, Note_on_c, 0, 77, 76
1, 42141, Note_on_c, 0, 77, 0
1, 42144, Note_on_c, 0, 66, 77
1, 42144, Note_on_c, 1, 60, 77
1, 42144, Note_on_c, 1, 56, 77
1, 42183, Note_on_c, 1, 60, 0
1, 42183, Note_on_c, 1, 56, 0
1, 42189, Note_on_c, 0, 66, 0
1, 42192, Note_on_c, 0, 78, 77
1, 42237, Note_on_c, 0, 78, 0
1, 42240, Note_on_c, 0, 67, 78
1, 42240, Note_on_c, 1, 63, 93
1, 42240, Note_on_c, 1, 60, 93
1, 42285, Note_on_c, 0, 67, 0
1, 42288, Note_on_c, 0, 79, 78
1, 42333, Note_on_c, 0, 79, 0
1, 42336, Note_on_c, 0, 67, 78
1, 42381, Note_on_c, 0, 67, 0
1, 42384, Note_on_c, 0, 79, 79
1, 42384, Note_on_c, 1, 63, 0
1, 42384, Note_on_c, 1, 60, 0
1, 42384, Note_on_c, 1, 62, 78
1, 42384, Note_on_c, 1, 59, 78
1, 42429, Note_on_c, 0, 79, 0
1, 42429, Note_on_c, 1, 62, 0
1, 42429, Note_on_c, 1, 59, 0
1, 42432, Note_on_c, 0, 67, 79
1, 42432, Note_on_c, 1, 62, 79
1, 42432, Note_on_c, 1, 59, 79
1, 42471, Note_on_c, 1, 62, 0
1, 42471, Note_on_c, 1, 59, 0
1, 42477, Note_on_c, 0, 67, 0
1, 42480, Note_on_c, 0, 79, 80
1, 42525, Note_on_c, 0, 79, 0
1, 42528, Note_on_c, 0, 79, 80
1, 42528, Note_on_c, 1, 55, 80
1, 42551, Note_on_c, 0, 79, 0
1, 42551, Note_on_c, 1, 55, 0
1, 42552, Note_on_c, 0, 77, 80
1, 42552, Note_on_c, 1, 53, 80
1, 42575, Note_on_c, 0, 77, 0
1, 42575, Note_on_c, 1, 53, 0
1, 42576, Note_on_c, 0, 75, 80
1, 42576, Note_on_c, 1, 51, 80
1, 42599, Note_on_c, 0, 75, 0
1, 42599, Note_on_c, 1, 51, 0
1, 42600, Note_on_c, 0, 74, 80
1, 42600, Note_on_c, 1, 50, 80
1, 42623, Note_on_c, 0, 74, 0
1, 42623, Note_on_c, 1, 50, 0
1, 42624, Note_on_c, 0, 72, 80
1, 42624, Note_on_c, 1, 48, 80
1, 42663, Note_on_c, 0, 72, 0
1, 42663, Note_on_c, 1, 48, 0
1, 42720, Note_on_c, 0, 75, 80
1, 42720, Note_on_c, 1, 51, 80
1, 42743, Note_on_c, 0, 75, 0
1, 42743, Note_on_c, 1, 51, 0
1, 42744, Note_on_c, 0, 74, 80
1, 42744, Note_on_c, 1, 50, 80
1, 42767, Note_on_c, 0, 74, 0
1, 42767, Note_on_c, 1, 50, 0
1, 42768, Note_on_c, 0, 72, 80
1, 42768, Note_on_c, 1, 48, 80
1, 42791, Note_on_c, 0, 72, 0
1, 42791, Note_on_c, 1, 48, 0
1, 42792, Note_on_c, 0, 70, 80
1, 42792, Note_on_c, 1, 46, 80
1, 42815, Note_on_c, 0, 70, 0
1, 42815, Note_on_c, 1, 46, 0
1, 42816, Note_on_c, 0, 68, 80
1, 42816, Note_on_c, 1, 44, 80
1, 42855, Note_on_c, 0, 68, 0
1, 42855, Note_on_c, 1, 44, 0
1, 42912, Note_on_c, 0, 72, 80
1, 42912, Note_on_c, 1, 48, 80
1, 42935, Note_on_c, 0, 72, 0
1, 42935, Note_on_c, 1, 48, 0
1, 42936, Note_on_c, 0, 70, 80
1, 42936, Note_on_c, 1, 46, 80
1, 42959, Note_on_c, 0, 70, 0
1, 42959, Note_on_c, 1, 46, 0
1, 42960, Note_on_c, 0, 68, 80
1, 42960, Note_on_c, 1, 44, 80
1, 42983, Note_on_c, 0, 68, 0
1, 42983, Note_on_c, 1, 44, 0
1, 42984, Note_on_c, 0, 67, 80
1, 42984, Note_on_c, 1, 43, 80
1, 43007, Note_on_c, 0, 67, 0
1, 43007, Note_on_c, 1, 43, 0
1, 43008, Note_on_c, 0, 66, 80
1, 43008, Note_on_c, 1, 42, 80
1, 43047, Note_on_c, 1, 42, 0
1, 43104, Note_on_c, 1, 50, 80
1, 43127, Note_on_c, 1, 50, 0
1, 43128, Note_on_c, 1, 48, 80
1, 43151, Note_on_c, 1, 48, 0
1, 43152, Note_on_c, 1, 46, 80
1, 43175, Note_on_c, 1, 46, 0
1, 43176, Note_on_c, 1, 45, 80
1, 43199, Note_on_c, 1, 45, 0
1, 43200, Note_on_c, 0, 66, 0
1, 43200, Note_on_c, 0, 67, 80
1, 43200, Note_on_c, 1, 46, 80
1, 43239, Note_on_c, 0, 67, 0
1, 43239, Note_on_c, 1, 46, 0
1, 43296, Note_on_c, 0, 70, 96
1, 43296, Note_on_c, 0, 67, 96
1, 43296, Note_on_c, 1, 55, 80
1, 43319, Note_on_c, 1, 55, 0
1, 43320, Note_on_c, 1, 53, 80
1, 43343, Note_on_c, 1, 53, 0
1, 43344, Note_on_c, 1, 51, 80
1, 43367, Note_on_c, 1, 51, 0
1, 43368, Note_on_c, 1, 50, 80
1, 43391, Note_on_c, 1, 50, 0
1, 43392, Note_on_c, 0, 70, 0
1, 43392, Note_on_c, 0, 72, 80
1, 43392, Note_on_c, 0, 63, 80
1, 43392, Note_on_c, 1, 48, 80
1, 43431, Note_on_c, 0, 72, 0
1, 43431, Note_on_c, 0, 67, 0
1, 43431, Note_on_c, 0, 63, 0
1, 43431, Note_on_c, 1, 48, 0
1, 43488, Note_on_c, 0, 72, 113
1, 43488, Note_on_c, 0, 67, 113
1, 43488, Note_on_c, 0, 63, 113
1, 43488, Note_on_c, 1, 48, 80
1, 43511, Note_on_c, 1, 48, 0
1, 43512, Note_on_c, 1, 46, 80
1, 43527, Note_on_c, 0, 72, 0
1, 43527, Note_on_c, 0, 67, 0
1, 43527, Note_on_c, 0, 63, 0
1, 43535, Note_on_c, 1, 46, 0
1, 43536, Note_on_c, 1, 44, 80
1, 43559, Note_on_c, 1, 44, 0
1, 43560, Note_on_c, 1, 43, 80
1, 43583, Note_on_c, 1, 43, 0
1, 43584, Note_on_c, 0, 73, 80
1, 43584, Note_on_c, 0, 69, 80
1, 43584, Note_on_c, 0, 67, 80
1, 43584, Note_on_c, 0, 64, 80
1, 43584, Note_on_c, 1, 41, 80
1, 43623, Note_on_c, 0, 73, 0
1, 43623, Note_on_c, 0, 69, 0
1, 43623, Note_on_c, 0, 67, 0
1, 43623, Note_on_c, 0, 64, 0
1, 43623, Note_on_c, 1, 41, 0
1, 43680, Note_on_c, 0, 73, 99
1, 43680, Note_on_c, 0, 69, 99
1, 43680, Note_on_c, 0, 67, 99
1, 43680, Note_on_c, 0, 64, 99
1, 43680, Note_on_c, 1, 44, 83
1, 43703, Note_on_c, 1, 44, 0
1, 43704, Note_on_c, 1, 43, 83
1, 43719, Note_on_c, 0, 73, 0
1, 43719, Note_on_c, 0, 69, 0
1, 43719, Note_on_c, 0, 67, 0
1, 43719, Note_on_c, 0, 64, 0
1, 43727, Note_on_c, 1, 43, 0
1, 43728, Note_on_c, 1, 41, 84
1, 43751, Note_on_c, 1, 41, 0
1, 43752, Note_on_c, 1, 40, 85
1, 43775, Note_on_c, 1, 40, 0
1, 43776, Note_on_c, 0, 74, 119
1, 43776, Note_on_c, 0, 69, 119
1, 43776, Note_on_c, 0, 66, 119
1, 43776, Note_on_c, 1, 38, 86
1, 43953, Note_on_c, 1, 38, 0
1, 43968, Note_on_c, 0, 74, 0
1, 43968, Note_on_c, 0, 69, 0
1, 43968, Note_on_c, 0, 66, 0
1, 44112, Note_on_c, 0, 70, 75
1, 44157, Note_on_c, 0, 70, 0
1, 44160, Note_on_c, 0, 65, 75
1, 44160, Note_on_c, 0, 62, 75
1, 44249, Note_on_c, 0, 65, 0
1, 44249, Note_on_c, 0, 62, 0
1, 44256, Note_on_c, 1, 46, 75
1, 44304, Note_on_c, 0, 70, 75
1, 44345, Note_on_c, 1, 46, 0
1, 44349, Note_on_c, 0, 70, 0
1, 44352, Note_on_c, 0, 67, 75
1, 44352, Note_on_c, 0, 63, 75
1, 44441, Note_on_c, 0, 67, 0
1, 44441, Note_on_c, 0, 63, 0
1, 44448, Note_on_c, 1, 46, 75
1, 44496, Note_on_c, 0, 70, 75
1, 44537, Note_on_c, 1, 46, 0
1, 44541, Note_on_c, 0, 70, 0
1, 44544, Note_on_c, 0, 65, 75
1, 44544, Note_on_c, 0, 62, 75
1, 44592, Note_on_c, 1, 46, 75
1, 44612, Note_on_c, 1, 46, 0
1, 44633, Note_on_c, 0, 65, 0
1, 44633, Note_on_c, 0, 62, 0
1, 44640, Note_on_c, 1, 50, 75
1, 44660, Note_on_c, 1, 50, 0
1, 44688, Note_on_c, 1, 53, 75
1, 44708, Note_on_c, 1, 53, 0
1, 44736, Note_on_c, 1, 58, 75
1, 44825, Note_on_c, 1, 58, 0
1, 44832, Note_on_c, 0, 79, 75
1, 44855, Note_on_c, 0, 79, 0
1, 44856, Note_on_c, 0, 77, 75
1, 44879, Note_on_c, 0, 77, 0
1, 44880, Note_on_c, 0, 75, 76
1, 44903, Note_on_c, 0, 75, 0
1, 44904, Note_on_c, 0, 74, 76
1, 44927, Note_on_c, 0, 74, 0
1, 44928, Note_on_c, 0, 72, 77
1, 44967, Note_on_c, 0, 72, 0
1, 45024, Note_on_c, 0, 81, 80
1, 45047, Note_on_c, 0, 81, 0
1, 45048, Note_on_c, 0, 79, 80
1, 45071, Note_on_c, 0, 79, 0
1, 45072, Note_on_c, 0, 77, 80
1, 45095, Note_on_c, 0, 77, 0
1, 45096, Note_on_c, 0, 75, 80
1, 45119, Note_on_c, 0, 75, 0
1, 45120, Note_on_c, 0, 74, 80
1, 45159, Note_on_c, 0, 74, 0
1, 45216, Note_on_c, 0, 77, 80
1, 45239, Note_on_c, 0, 77, 0
1, 45240, Note_on_c, 0, 75, 80
1, 45263, Note_on_c, 0, 75, 0
1, 45264, Note_on_c, 0, 74, 80
1, 45287, Note_on_c, 0, 74, 0
1, 45288, Note_on_c, 0, 72, 80
1, 45311, Note_on_c, 0, 72, 0
1, 45312, Note_on_c, 0, 70, 80
1, 45360, Note_on_c, 1, 41, 75
1, 45380, Note_on_c, 1, 41, 0
1, 45408, Note_on_c, 1, 45, 75
1, 45428, Note_on_c, 1, 45, 0
1, 45456, Note_on_c, 1, 48, 75
1, 45476, Note_on_c, 1, 48, 0
1, 45504, Note_on_c, 0, 70, 0
1, 45504, Note_on_c, 0, 69, 80
1, 45504, Note_on_c, 1, 53, 75
1, 45549, Note_on_c, 0, 69, 0
1, 45552, Note_on_c, 0, 82, 80
1, 45593, Note_on_c, 1, 53, 0
1, 45597, Note_on_c, 0, 82, 0
1, 45600, Note_on_c, 0, 81, 80
1, 45645, Note_on_c, 0, 81, 0
1, 45648, Note_on_c, 0, 82, 80
1, 45693, Note_on_c, 0, 82, 0
1, 45696, Note_on_c, 0, 77, 80
1, 45696, Note_on_c, 0, 74, 80
1, 45744, Note_on_c, 1, 46, 75
1, 45785, Note_on_c, 0, 77, 0
1, 45785, Note_on_c, 0, 74, 0
1, 45789, Note_on_c, 1, 46, 0
1, 45792, Note_on_c, 1, 58, 75
1, 45840, Note_on_c, 0, 82, 80
1, 45881, Note_on_c, 1, 58, 0
1, 45885, Note_on_c, 0, 82, 0
1, 45888, Note_on_c, 0, 79, 80
1, 45888, Note_on_c, 0, 75, 80
1, 45936, Note_on_c, 1, 46, 75
1, 45977, Note_on_c, 0, 79, 0
1, 45977, Note_on_c, 0, 75, 0
1, 45981, Note_on_c, 1, 46, 0
1, 45984, Note_on_c, 1, 58, 75
1, 46032, Note_on_c, 0, 82, 80
1, 46073, Note_on_c, 1, 58, 0
1, 46077, Note_on_c, 0, 82, 0
1, 46080, Note_on_c, 0, 77, 80
1, 46080, Note_on_c, 0, 74, 80
1, 46128, Note_on_c, 1, 58, 75
1, 46148, Note_on_c, 1, 58, 0
1, 46169, Note_on_c, 0, 77, 0
1, 46169, Note_on_c, 0, 74, 0
1, 46176, Note_on_c, 1, 62, 75
1, 46196, Note_on_c, 1, 62, 0
1, 46224, Note_on_c, 1, 65, 75
1, 46244, Note_on_c, 1, 65, 0
1, 46272, Note_on_c, 1, 70, 75
1, 46361, Note_on_c, 1, 70, 0
1, 46368, Note_on_c, 0, 79, 80
1, 46380, Note_on_c, 0, 79, 0
1, 46380, Note_on_c, 0, 81, 80
1, 46392, Note_on_c, 0, 81, 0
1, 46392, Note_on_c, 0, 82, 96
1, 46464, Note_on_c, 0, 82, 0
1, 46464, Note_on_c, 0, 72, 75
1, 46464, Note_on_c, 1, 51, 75
1, 46464, Note_on_c, 1, 39, 75
1, 46512, Note_on_c, 0, 72, 0
1, 46512, Note_on_c, 0, 75, 77
1, 46557, Note_on_c, 0, 75, 0
1, 46560, Note_on_c, 0, 79, 80
1, 46641, Note_on_c, 1, 51, 0
1, 46641, Note_on_c, 1, 39, 0
1, 46656, Note_on_c, 1, 53, 75
1, 46656, Note_on_c, 1, 41, 75
1, 46737, Note_on_c, 0, 79, 0
1, 46752, Note_on_c, 0, 69, 76
1, 46752, Note_on_c, 0, 63, 76
1, 46833, Note_on_c, 1, 53, 0
1, 46833, Note_on_c, 1, 41, 0
1, 46841, Note_on_c, 0, 69, 0
1, 46841, Note_on_c, 0, 63, 0
1, 46848, Note_on_c, 0, 70, 75
1, 46848, Note_on_c, 0, 62, 75
1, 46848, Note_on_c, 1, 46, 75
1, 46893, Note_on_c, 1, 46, 0
1, 46896, Note_on_c, 1, 58, 75
1, 46937, Note_on_c, 0, 70, 0
1, 46937, Note_on_c, 0, 62, 0
1, 46941, Note_on_c, 1, 58, 0
1, 46944, Note_on_c, 1, 46, 75
1, 46989, Note_on_c, 1, 46, 0
1, 46992, Note_on_c, 1, 58, 75
1, 47037, Note_on_c, 1, 58, 0
1, 47040, Note_on_c, 1, 46, 75
1, 47085, Note_on_c, 1, 46, 0
1, 47088, Note_on_c, 1, 58, 75
1, 47133, Note_on_c, 1, 58, 0
1, 47136, Note_on_c, 0, 70, 75
1, 47136, Note_on_c, 0, 62, 75
1, 47136, Note_on_c, 1, 46, 75
1, 47175, Note_on_c, 0, 70, 0
1, 47175, Note_on_c, 0, 62, 0
1, 47181, Note_on_c, 1, 46, 0
1, 47184, Note_on_c, 1, 58, 75
1, 47229, Note_on_c, 1, 58, 0
1, 47232, Note_on_c, 0, 72, 91
1, 47232, Note_on_c, 0, 63, 91
1, 47232, Note_on_c, 1, 46, 75
1, 47277, Note_on_c, 1, 46, 0
1, 47280, Note_on_c, 1, 58, 75
1, 47325, Note_on_c, 1, 58, 0
1, 47328, Note_on_c, 0, 72, 0
1, 47328, Note_on_c, 0, 63, 0
1, 47328, Note_on_c, 0, 70, 76
1, 47328, Note_on_c, 0, 62, 76
1, 47328, Note_on_c, 1, 46, 75
1, 47367, Note_on_c, 0, 70, 0
1, 47367, Note_on_c, 0, 62, 0
1, 47373, Note_on_c, 1, 46, 0
1, 47376, Note_on_c, 1, 58, 75
1, 47421, Note_on_c, 1, 58, 0
1, 47424, Note_on_c, 0, 74, 77
1, 47424, Note_on_c, 0, 65, 77
1, 47424, Note_on_c, 1, 46, 75
1, 47469, Note_on_c, 1, 46, 0
1, 47472, Note_on_c, 1, 58, 75
1, 47517, Note_on_c, 1, 58, 0
1, 47520, Note_on_c, 0, 74, 0
1, 47520, Note_on_c, 0, 65, 0
1, 47520, Note_on_c, 0, 72, 78
1, 47520, Note_on_c, 0, 63, 78
1, 47520, Note_on_c, 1, 46, 75
1, 47559, Note_on_c, 0, 72, 0
1, 47559, Note_on_c, 0, 63, 0
1, 47565, Note_on_c, 1, 46, 0
1, 47568, Note_on_c, 1, 58, 75
1, 47613, Note_on_c, 1, 58, 0
1, 47616, Note_on_c, 0, 75, 96
1, 47616, Note_on_c, 0, 67, 96
1, 47616, Note_on_c, 1, 46, 75
1, 47661, Note_on_c, 1, 46, 0
1, 47664, Note_on_c, 1, 58, 75
1, 47709, Note_on_c, 1, 58, 0
1, 47712, Note_on_c, 1, 46, 75
1, 47757, Note_on_c, 1, 46, 0
1, 47760, Note_on_c, 0, 75, 0
1, 47760, Note_on_c, 0, 67, 0
1, 47760, Note_on_c, 0, 74, 77
1, 47760, Note_on_c, 0, 65, 77
1, 47760, Note_on_c, 1, 58, 75
1, 47805, Note_on_c, 0, 74, 0
1, 47805, Note_on_c, 0, 65, 0
1, 47805, Note_on_c, 1, 58, 0
1, 47808, Note_on_c, 0, 72, 76
1, 47808, Note_on_c, 0, 63, 76
1, 47808, Note_on_c, 1, 46, 75
1, 47847, Note_on_c, 0, 72, 0
1, 47847, Note_on_c, 0, 63, 0
1, 47853, Note_on_c, 1, 46, 0
1, 47856, Note_on_c, 1, 58, 75
1, 47901, Note_on_c, 1, 58, 0
1, 47904, Note_on_c, 0, 74, 75
1, 47904, Note_on_c, 0, 70, 75
1, 47904, Note_on_c, 1, 46, 75
1, 47943, Note_on_c, 0, 74, 0
1, 47943, Note_on_c, 0, 70, 0
1, 47949, Note_on_c, 1, 46, 0
1, 47952, Note_on_c, 1, 58, 75
1, 47997, Note_on_c, 1, 58, 0
1, 48000, Note_on_c, 0, 75, 91
1, 48000, Note_on_c, 0, 72, 91
1, 48000, Note_on_c, 1, 46, 75
1, 48045, Note_on_c, 1, 46, 0
1, 48048, Note_on_c, 1, 58, 75
1, 48093, Note_on_c, 1, 58, 0
1, 48096, Note_on_c, 0, 75, 0
1, 48096, Note_on_c, 0, 72, 0
1, 48096, Note_on_c, 0, 74, 76
1, 48096, Note_on_c, 0, 70, 76
1, 48096, Note_on_c, 1, 46, 75
1, 48135, Note_on_c, 0, 74, 0
1, 48135, Note_on_c, 0, 70, 0
1, 48141, Note_on_c, 1, 46, 0
1, 48144, Note_on_c, 1, 58, 75
1, 48189, Note_on_c, 1, 58, 0
1, 48192, Note_on_c, 0, 77, 77
1, 48192, Note_on_c, 0, 74, 77
1, 48192, Note_on_c, 1, 46, 75
1, 48237, Note_on_c, 1, 46, 0
1, 48240, Note_on_c, 1, 58, 75
1, 48285, Note_on_c, 1, 58, 0
1, 48288, Note_on_c, 0, 77, 0
1, 48288, Note_on_c, 0, 74, 0
1, 48288, Note_on_c, 0, 75, 78
1, 48288, Note_on_c, 0, 72, 78
1, 48288, Note_on_c, 1, 46, 75
1, 48327, Note_on_c, 0, 75, 0
1, 48327, Note_on_c, 0, 72, 0
1, 48333, Note_on_c, 1, 46, 0
1, 48336, Note_on_c, 1, 58, 75
1, 48381, Note_on_c, 1, 58, 0
1, 48384, Note_on_c, 0, 79, 96
1, 48384, Note_on_c, 0, 75, 96
1, 48384, Note_on_c, 1, 46, 75
1, 48429, Note_on_c, 1, 46, 0
1, 48432, Note_on_c, 1, 58, 75
1, 48477, Note_on_c, 1, 58, 0
1, 48480, Note_on_c, 1, 46, 75
1, 48525, Note_on_c, 1, 46, 0
1, 48528, Note_on_c, 0, 79, 0
1, 48528, Note_on_c, 0, 75, 0
1, 48528, Note_on_c, 0, 77, 77
1, 48528, Note_on_c, 0, 74, 77
1, 48528, Note_on_c, 1, 58, 75
1, 48573, Note_on_c, 0, 77, 0
1, 48573, Note_on_c, 0, 74, 0
1, 48573, Note_on_c, 1, 58, 0
1, 48576, Note_on_c, 0, 75, 76
1, 48576, Note_on_c, 0, 72, 76
1, 48576, Note_on_c, 1, 46, 75
1, 48615, Note_on_c, 0, 75, 0
1, 48615, Note_on_c, 0, 72, 0
1, 48621, Note_on_c, 1, 46, 0
1, 48624, Note_on_c, 1, 58, 75
1, 48669, Note_on_c, 1, 58, 0
1, 48672, Note_on_c, 0, 77, 75
1, 48672, Note_on_c, 0, 74, 75
1, 48672, Note_on_c, 1, 46, 75
1, 48711, Note_on_c, 0, 77, 0
1, 48711, Note_on_c, 0, 74, 0
1, 48717, Note_on_c, 1, 46, 0
1, 48720, Note_on_c, 1, 58, 75
1, 48765, Note_on_c, 1, 58, 0
1, 48768, Note_on_c, 0, 79, 91
1, 48768, Note_on_c, 0, 75, 91
1, 48768, Note_on_c, 1, 46, 75
1, 48813, Note_on_c, 1, 46, 0
1, 48816, Note_on_c, 1, 58, 75
1, 48861, Note_on_c, 1, 58, 0
1, 48864, Note_on_c, 0, 79, 0
1, 48864, Note_on_c, 0, 75, 0
1, 48864, Note_on_c, 0, 77, 76
1, 48864, Note_on_c, 0, 74, 76
1, 48864, Note_on_c, 1, 46, 76
1, 48903, Note_on_c, 0, 77, 0
1, 48903, Note_on_c, 0, 74, 0
1, 48909, Note_on_c, 1, 46, 0
1, 48912, Note_on_c, 1, 58, 76
1, 48957, Note_on_c, 1, 58, 0
1, 48960, Note_on_c, 0, 80, 77
1, 48960, Note_on_c, 0, 77, 77
1, 48960, Note_on_c, 1, 46, 77
1, 49005, Note_on_c, 1, 46, 0
1, 49008, Note_on_c, 1, 58, 78
1, 49053, Note_on_c, 1, 58, 0
1, 49056, Note_on_c, 0, 80, 0
1, 49056, Note_on_c, 0, 77, 0
1, 49056, Note_on_c, 0, 79, 78
1, 49056, Note_on_c, 0, 75, 78
1, 49056, Note_on_c, 1, 46, 78
1, 49095, Note_on_c, 0, 79, 0
1, 49095, Note_on_c, 0, 75, 0
1, 49101, Note_on_c, 1, 46, 0
1, 49104, Note_on_c, 1, 58, 79
1, 49149, Note_on_c, 1, 58, 0
1, 49152, Note_on_c, 0, 81, 96
1, 49152, Note_on_c, 0, 75, 96
1, 49152, Note_on_c, 0, 72, 96
1, 49152, Note_on_c, 1, 46, 80
1, 49197, Note_on_c, 1, 46, 0
1, 49200, Note_on_c, 1, 58, 80
1, 49245, Note_on_c, 1, 58, 0
1, 49248, Note_on_c, 1, 46, 80
1, 49293, Note_on_c, 1, 46, 0
1, 49296, Note_on_c, 0, 81, 0
1, 49296, Note_on_c, 0, 75, 0
1, 49296, Note_on_c, 0, 72, 0
1, 49296, Note_on_c, 0, 82, 80
1, 49296, Note_on_c, 0, 77, 80
1, 49296, Note_on_c, 0, 74, 80
1, 49296, Note_on_c, 1, 58, 80
1, 49341, Note_on_c, 0, 82, 0
1, 49341, Note_on_c, 0, 77, 0
1, 49341, Note_on_c, 0, 74, 0
1, 49341, Note_on_c, 1, 58, 0
1, 49344, Note_on_c, 0, 82, 80
1, 49344, Note_on_c, 0, 77, 80
1, 49344, Note_on_c, 0, 74, 80
1, 49344, Note_on_c, 1, 46, 80
1, 49383, Note_on_c, 0, 82, 0
1, 49383, Note_on_c, 0, 77, 0
1, 49383, Note_on_c, 0, 74, 0
1, 49389, Note_on_c, 1, 46, 0
1, 49392, Note_on_c, 1, 58, 80
1, 49437, Note_on_c, 1, 58, 0
1, 49440, Note_on_c, 0, 70, 80
1, 49440, Note_on_c, 0, 65, 80
1, 49440, Note_on_c, 0, 62, 80
1, 49440, Note_on_c, 1, 46, 80
1, 49479, Note_on_c, 0, 70, 0
1, 49479, Note_on_c, 0, 65, 0
1, 49479, Note_on_c, 0, 62, 0
1, 49485, Note_on_c, 1, 46, 0
1, 49488, Note_on_c, 1, 58, 80
1, 49533, Note_on_c, 1, 58, 0
1, 49536, Note_on_c, 0, 69, 96
1, 49536, Note_on_c, 0, 63, 96
1, 49536, Note_on_c, 0, 60, 96
1, 49536, Note_on_c, 1, 46, 80
1, 49581, Note_on_c, 1, 46, 0
1, 49584, Note_on_c, 1, 58, 80
1, 49629, Note_on_c, 1, 58, 0
1, 49632, Note_on_c, 1, 46, 80
1, 49677, Note_on_c, 1, 46, 0
1, 49680, Note_on_c, 0, 69, 0
1, 49680, Note_on_c, 0, 63, 0
1, 49680, Note_on_c, 0, 60, 0
1, 49680, Note_on_c, 0, 70, 80
1, 49680, Note_on_c, 0, 65, 80
1, 49680, Note_on_c, 0, 62, 80
1, 49680, Note_on_c, 1, 58, 80
1, 49725, Note_on_c, 0, 70, 0
1, 49725, Note_on_c, 0, 65, 0
1, 49725, Note_on_c, 0, 62, 0
1, 49725, Note_on_c, 1, 58, 0
1, 49728, Note_on_c, 0, 70, 80
1, 49728, Note_on_c, 0, 65, 80
1, 49728, Note_on_c, 0, 62, 80
1, 49728, Note_on_c, 1, 46, 80
1, 49767, Note_on_c, 0, 70, 0
1, 49767, Note_on_c, 0, 65, 0
1, 49767, Note_on_c, 0, 62, 0
1, 49773, Note_on_c, 1, 46, 0
1, 49776, Note_on_c, 1, 58, 80
1, 49821, Note_on_c, 1, 58, 0
1, 49824, Note_on_c, 0, 65, 80
1, 49824, Note_on_c, 0, 62, 80
1, 49824, Note_on_c, 1, 46, 80
1, 49863, Note_on_c, 0, 65, 0
1, 49863, Note_on_c, 0, 62, 0
1, 49869, Note_on_c, 1, 46, 0
1, 49872, Note_on_c, 1, 58, 80
1, 49917, Note_on_c, 1, 58, 0
1, 49920, Note_on_c, 0, 68, 96
1, 49920, Note_on_c, 0, 65, 96
1, 49920, Note_on_c, 0, 62, 96
1, 49920, Note_on_c, 1, 47, 80
1, 49965, Note_on_c, 1, 47, 0
1, 49968, Note_on_c, 1, 59, 80
1, 50013, Note_on_c, 1, 59, 0
1, 50016, Note_on_c, 1, 47, 80
1, 50061, Note_on_c, 1, 47, 0
1, 50064, Note_on_c, 0, 68, 0
1, 50064, Note_on_c, 0, 65, 0
1, 50064, Note_on_c, 0, 62, 0
1, 50064, Note_on_c, 0, 67, 80
1, 50064, Note_on_c, 0, 63, 80
1, 50064, Note_on_c, 1, 59, 80
1, 50109, Note_on_c, 0, 67, 0
1, 50109, Note_on_c, 0, 63, 0
1, 50109, Note_on_c, 1, 59, 0
1, 50112, Note_on_c, 0, 67, 96
1, 50112, Note_on_c, 0, 63, 96
1, 50112, Note_on_c, 1, 48, 80
1, 50151, Note_on_c, 0, 67, 0
1, 50151, Note_on_c, 0, 63, 0
1, 50157, Note_on_c, 1, 48, 0
1, 50160, Note_on_c, 1, 60, 80
1, 50205, Note_on_c, 1, 60, 0
1, 50208, Note_on_c, 0, 72, 80
1, 50208, Note_on_c, 0, 67, 80
1, 50208, Note_on_c, 0, 63, 80
1, 50208, Note_on_c, 1, 48, 81
1, 50247, Note_on_c, 0, 72, 0
1, 50247, Note_on_c, 0, 67, 0
1, 50247, Note_on_c, 0, 63, 0
1, 50253, Note_on_c, 1, 48, 0
1, 50256, Note_on_c, 1, 60, 81
1, 50301, Note_on_c, 1, 60, 0
1, 50304, Note_on_c, 0, 71, 97
1, 50304, Note_on_c, 0, 67, 97
1, 50304, Note_on_c, 0, 65, 97
1, 50304, Note_on_c, 1, 48, 81
1, 50349, Note_on_c, 1, 48, 0
1, 50352, Note_on_c, 1, 60, 81
1, 50397, Note_on_c, 1, 60, 0
1, 50400, Note_on_c, 1, 48, 81
1, 50445, Note_on_c, 1, 48, 0
1, 50448, Note_on_c, 0, 71, 0
1, 50448, Note_on_c, 0, 67, 0
1, 50448, Note_on_c, 0, 65, 0
1, 50448, Note_on_c, 0, 72, 81
1, 50448, Note_on_c, 0, 67, 81
1, 50448, Note_on_c, 0, 63, 81
1, 50448, Note_on_c, 1, 60, 82
1, 50493, Note_on_c, 0, 72, 0
1, 50493, Note_on_c, 0, 67, 0
1, 50493, Note_on_c, 0, 63, 0
1, 50493, Note_on_c, 1, 60, 0
1, 50496, Note_on_c, 0, 72, 82
1, 50496, Note_on_c, 0, 67, 82
1, 50496, Note_on_c, 0, 63, 82
1, 50496, Note_on_c, 1, 48, 82
1, 50535, Note_on_c, 0, 72, 0
1, 50535, Note_on_c, 0, 67, 0
1, 50535, Note_on_c, 0, 63, 0
1, 50541, Note_on_c, 1, 48, 0
1, 50544, Note_on_c, 1, 60, 82
1, 50589, Note_on_c, 1, 60, 0
1, 50592, Note_on_c, 0, 67, 82
1, 50592, Note_on_c, 0, 63, 82
1, 50592, Note_on_c, 1, 48, 82
1, 50631, Note_on_c, 0, 67, 0
1, 50631, Note_on_c, 0, 63, 0
1, 50637, Note_on_c, 1, 48, 0
1, 50640, Note_on_c, 1, 60, 83
1, 50685, Note_on_c, 1, 60, 0
1, 50688, Note_on_c, 0, 70, 98
1, 50688, Note_on_c, 0, 67, 98
1, 50688, Note_on_c, 0, 64, 98
1, 50688, Note_on_c, 1, 49, 83
1, 50733, Note_on_c, 1, 49, 0
1, 50736, Note_on_c, 1, 61, 83
1, 50781, Note_on_c, 1, 61, 0
1, 50784, Note_on_c, 1, 49, 83
1, 50829, Note_on_c, 1, 49, 0
1, 50832, Note_on_c, 0, 70, 0
1, 50832, Note_on_c, 0, 67, 0
1, 50832, Note_on_c, 0, 64, 0
1, 50832, Note_on_c, 0, 69, 83
1, 50832, Note_on_c, 0, 65, 83
1, 50832, Note_on_c, 1, 61, 83
1, 50877, Note_on_c, 0, 69, 0
1, 50877, Note_on_c, 0, 65, 0
1, 50877, Note_on_c, 1, 61, 0
1, 50880, Note_on_c, 0, 69, 99
1, 50880, Note_on_c, 0, 65, 99
1, 50880, Note_on_c, 1, 50, 84
1, 50919, Note_on_c, 0, 69, 0
1, 50919, Note_on_c, 0, 65, 0
1, 50925, Note_on_c, 1, 50, 0
1, 50928, Note_on_c, 1, 62, 84
1, 50973, Note_on_c, 1, 62, 0
1, 50976, Note_on_c, 0, 74, 84
1, 50976, Note_on_c, 0, 69, 84
1, 50976, Note_on_c, 0, 65, 84
1, 50976, Note_on_c, 1, 50, 84
1, 51015, Note_on_c, 0, 74, 0
1, 51015, Note_on_c, 0, 69, 0
1, 51015, Note_on_c, 0, 65, 0
1, 51021, Note_on_c, 1, 50, 0
1, 51024, Note_on_c, 1, 62, 84
1, 51069, Note_on_c, 1, 62, 0
1, 51072, Note_on_c, 0, 73, 100
1, 51072, Note_on_c, 0, 69, 100
1, 51072, Note_on_c, 0, 67, 100
1, 51072, Note_on_c, 1, 50, 84
1, 51117, Note_on_c, 1, 50, 0
1, 51120, Note_on_c, 1, 62, 85
1, 51165, Note_on_c, 1, 62, 0
1, 51168, Note_on_c, 1, 50, 85
1, 51213, Note_on_c, 1, 50, 0
1, 51216, Note_on_c, 0, 73, 0
1, 51216, Note_on_c, 0, 69, 0
1, 51216, Note_on_c, 0, 67, 0
1, 51216, Note_on_c, 0, 74, 85
1, 51216, Note_on_c, 0, 69, 85
1, 51216, Note_on_c, 0, 65, 85
1, 51216, Note_on_c, 1, 62, 85
1, 51261, Note_on_c, 0, 74, 0
1, 51261, Note_on_c, 0, 69, 0
1, 51261, Note_on_c, 0, 65, 0
1, 51261, Note_on_c, 1, 62, 0
1, 51264, Note_on_c, 0, 74, 85
1, 51264, Note_on_c, 0, 69, 85
1, 51264, Note_on_c, 0, 65, 85
1, 51264, Note_on_c, 1, 50, 85
1, 51303, Note_on_c, 0, 74, 0
1, 51303, Note_on_c, 0, 69, 0
1, 51303, Note_on_c, 0, 65, 0
1, 51309, Note_on_c, 1, 50, 0
1, 51312, Note_on_c, 1, 62, 86
1, 51357, Note_on_c, 1, 62, 0
1, 51360, Note_on_c, 0, 86, 86
1, 51360, Note_on_c, 1, 62, 86
1, 51383, Note_on_c, 0, 86, 0
1, 51383, Note_on_c, 1, 62, 0
1, 51384, Note_on_c, 0, 84, 86
1, 51384, Note_on_c, 1, 60, 86
1, 51407, Note_on_c, 0, 84, 0
1, 51407, Note_on_c, 1, 60, 0
1, 51408, Note_on_c, 0, 82, 86
1, 51408, Note_on_c, 1, 58, 86
1, 51431, Note_on_c, 0, 82, 0
1, 51431, Note_on_c, 1, 58, 0
1, 51432, Note_on_c, 0, 81, 86
1, 51432, Note_on_c, 1, 57, 86
1, 51455, Note_on_c, 0, 81, 0
1, 51455, Note_on_c, 1, 57, 0
1, 51456, Note_on_c, 0, 79, 86
1, 51456, Note_on_c, 1, 55, 86
1, 51495, Note_on_c, 0, 79, 0
1, 51495, Note_on_c, 1, 55, 0
1, 51552, Note_on_c, 0, 82, 86
1, 51552, Note_on_c, 1, 58, 86
1, 51575, Note_on_c, 0, 82, 0
1, 51575, Note_on_c, 1, 58, 0
1, 51576, Note_on_c, 0, 81, 86
1, 51576, Note_on_c, 1, 57, 86
1, 51599, Note_on_c, 0, 81, 0
1, 51599, Note_on_c, 1, 57, 0
1, 51600, Note_on_c, 0, 79, 86
1, 51600, Note_on_c, 1, 55, 86
1, 51623, Note_on_c, 0, 79, 0
1, 51623, Note_on_c, 1, 55, 0
1, 51624, Note_on_c, 0, 77, 86
1, 51624, Note_on_c, 1, 53, 86
1, 51647, Note_on_c, 0, 77, 0
1, 51647, Note_on_c, 1, 53, 0
1, 51648, Note_on_c, 0, 75, 86
1, 51648, Note_on_c, 1, 51, 86
1, 51687, Note_on_c, 0, 75, 0
1, 51687, Note_on_c, 1, 51, 0
1, 51744, Note_on_c, 0, 79, 86
1, 51744, Note_on_c, 1, 55, 86
1, 51767, Note_on_c, 0, 79, 0
1, 51767, Note_on_c, 1, 55, 0
1, 51768, Note_on_c, 0, 77, 86
1, 51768, Note_on_c, 1, 53, 86
1, 51791, Note_on_c, 0, 77, 0
1, 51791, Note_on_c, 1, 53, 0
1, 51792, Note_on_c, 0, 75, 86
1, 51792, Note_on_c, 1, 51, 86
1, 51815, Note_on_c, 0, 75, 0
1, 51815, Note_on_c, 1, 51, 0
1, 51816, Note_on_c, 0, 74, 86
1, 51816, Note_on_c, 1, 50, 86
1, 51839, Note_on_c, 0, 74, 0
1, 51839, Note_on_c, 1, 50, 0
1, 51840, Note_on_c, 0, 73, 86
1, 51840, Note_on_c, 1, 49, 86
1, 51879, Note_on_c, 1, 49, 0
1, 51936, Note_on_c, 1, 57, 86
1, 51959, Note_on_c, 1, 57, 0
1, 51960, Note_on_c, 1, 55, 86
1, 51983, Note_on_c, 1, 55, 0
1, 51984, Note_on_c, 1, 53, 86
1, 52007, Note_on_c, 1, 53, 0
1, 52008, Note_on_c, 1, 52, 86
1, 52031, Note_on_c, 1, 52, 0
1, 52032, Note_on_c, 0, 73, 0
1, 52032, Note_on_c, 0, 74, 86
1, 52032, Note_on_c, 1, 53, 86
1, 52071, Note_on_c, 0, 74, 0
1, 52071, Note_on_c, 1, 53, 0
1, 52128, Note_on_c, 0, 72, 86
1, 52128, Note_on_c, 0, 69, 86
1, 52128, Note_on_c, 1, 62, 86
1, 52151, Note_on_c, 1, 62, 0
1, 52152, Note_on_c, 1, 60, 86
1, 52175, Note_on_c, 1, 60, 0
1, 52176, Note_on_c, 1, 58, 86
1, 52199, Note_on_c, 1, 58, 0
1, 52200, Note_on_c, 1, 57, 86
1, 52223, Note_on_c, 1, 57, 0
1, 52224, Note_on_c, 0, 72, 0
1, 52224, Note_on_c, 0, 69, 0
1, 52224, Note_on_c, 0, 74, 86
1, 52224, Note_on_c, 0, 70, 86
1, 52224, Note_on_c, 0, 67, 86
1, 52224, Note_on_c, 1, 58, 86
1, 52263, Note_on_c, 0, 74, 0
1, 52263, Note_on_c, 0, 70, 0
1, 52263, Note_on_c, 0, 67, 0
1, 52263, Note_on_c, 1, 58, 0
1, 52320, Note_on_c, 0, 74, 86
1, 52320, Note_on_c, 0, 70, 86
1, 52320, Note_on_c, 0, 67, 86
1, 52320, Note_on_c, 1, 55, 86
1, 52343, Note_on_c, 1, 55, 0
1, 52344, Note_on_c, 1, 53, 86
1, 52359, Note_on_c, 0, 74, 0
1, 52359, Note_on_c, 0, 70, 0
1, 52359, Note_on_c, 0, 67, 0
1, 52367, Note_on_c, 1, 53, 0
1, 52368, Note_on_c, 1, 51, 86
1, 52391, Note_on_c, 1, 51, 0
1, 52392, Note_on_c, 1, 50, 86
1, 52415, Note_on_c, 1, 50, 0
1, 52416, Note_on_c, 0, 75, 86
1, 52416, Note_on_c, 0, 69, 86
1, 52416, Note_on_c, 1, 48, 86
1, 52455, Note_on_c, 0, 75, 0
1, 52455, Note_on_c, 0, 69, 0
1, 52455, Note_on_c, 1, 48, 0
1, 52512, Note_on_c, 0, 66, 86
1, 52512, Note_on_c, 0, 62, 86
1, 52512, Note_on_c, 0, 57, 86
1, 52512, Note_on_c, 1, 50, 86
1, 52535, Note_on_c, 1, 50, 0
1, 52536, Note_on_c, 1, 48, 86
1, 52551, Note_on_c, 0, 66, 0
1, 52551, Note_on_c, 0, 62, 0
1, 52551, Note_on_c, 0, 57, 0
1, 52559, Note_on_c, 1, 48, 0
1, 52560, Note_on_c, 1, 46, 86
1, 52583, Note_on_c, 1, 46, 0
1, 52584, Note_on_c, 1, 45, 86
1, 52607, Note_on_c, 1, 45, 0
1, 52608, Note_on_c, 0, 67, 86
1, 52608, Note_on_c, 0, 62, 86
1, 52608, Note_on_c, 0, 58, 86
1, 52608, Note_on_c, 1, 43, 86
1, 52785, Note_on_c, 0, 67, 0
1, 52785, Note_on_c, 0, 62, 0
1, 52785, Note_on_c, 0, 58, 0
1, 52785, Note_on_c, 1, 43, 0
1, 52896, Note_on_c, 0, 84, 80
1, 52908, Note_on_c, 0, 84, 0
1, 52908, Note_on_c, 0, 82, 80
1, 52920, Note_on_c, 0, 82, 0
1, 52920, Note_on_c, 0, 81, 80
1, 52932, Note_on_c, 0, 81, 0
1, 52932, Note_on_c, 0, 82, 96
1, 53022, Note_on_c, 0, 82, 0
1, 53024, Note_on_c, 0, 86, 80
1, 53054, Note_on_c, 0, 86, 0
1, 53056, Note_on_c, 0, 84, 80
1, 53086, Note_on_c, 0, 84, 0
1, 53088, Note_on_c, 0, 82, 80
1, 53118, Note_on_c, 0, 82, 0
1, 53120, Note_on_c, 0, 84, 80
1, 53150, Note_on_c, 0, 84, 0
1, 53152, Note_on_c, 0, 86, 80
1, 53182, Note_on_c, 0, 86, 0
1, 53184, Note_on_c, 0, 79, 80
1, 53214, Note_on_c, 0, 79, 0
1, 53216, Note_on_c, 0, 82, 80
1, 53246, Note_on_c, 0, 82, 0
1, 53248, Note_on_c, 0, 81, 80
1, 53278, Note_on_c, 0, 81, 0
1, 53280, Note_on_c, 0, 79, 80
1, 53310, Note_on_c, 0, 79, 0
1, 53312, Note_on_c, 0, 81, 80
1, 53342, Note_on_c, 0, 81, 0
1, 53344, Note_on_c, 0, 82, 80
1, 53374, Note_on_c, 0, 82, 0
1, 53376, Note_on_c, 0, 75, 70
1, 53376, Note_on_c, 1, 51, 80
1, 53406, Note_on_c, 0, 75, 0
1, 53406, Note_on_c, 1, 51, 0
1, 53408, Note_on_c, 0, 79, 70
1, 53408, Note_on_c, 1, 55, 80
1, 53438, Note_on_c, 0, 79, 0
1, 53438, Note_on_c, 1, 55, 0
1, 53440, Note_on_c, 0, 77, 70
1, 53440, Note_on_c, 1, 53, 80
1, 53470, Note_on_c, 0, 77, 0
1, 53470, Note_on_c, 1, 53, 0
1, 53472, Note_on_c, 0, 75, 71
1, 53472, Note_on_c, 1, 51, 81
1, 53502, Note_on_c, 0, 75, 0
1, 53502, Note_on_c, 1, 51, 0
1, 53504, Note_on_c, 0, 77, 71
1, 53504, Note_on_c, 1, 53, 81
1, 53534, Note_on_c, 0, 77, 0
1, 53534, Note_on_c, 1, 53, 0
1, 53536, Note_on_c, 0, 79, 71
1, 53536, Note_on_c, 1, 55, 82
1, 53566, Note_on_c, 0, 79, 0
1, 53566, Note_on_c, 1, 55, 0
1, 53568, Note_on_c, 0, 72, 72
1, 53568, Note_on_c, 1, 48, 82
1, 53598, Note_on_c, 0, 72, 0
1, 53598, Note_on_c, 1, 48, 0
1, 53600, Note_on_c, 0, 75, 72
1, 53600, Note_on_c, 1, 51, 83
1, 53630, Note_on_c, 0, 75, 0
1, 53630, Note_on_c, 1, 51, 0
1, 53632, Note_on_c, 0, 74, 73
1, 53632, Note_on_c, 1, 50, 83
1, 53662, Note_on_c, 0, 74, 0
1, 53662, Note_on_c, 1, 50, 0
1, 53664, Note_on_c, 0, 72, 73
1, 53664, Note_on_c, 1, 48, 84
1, 53694, Note_on_c, 0, 72, 0
1, 53694, Note_on_c, 1, 48, 0
1, 53696, Note_on_c, 0, 74, 73
1, 53696, Note_on_c, 1, 50, 84
1, 53726, Note_on_c, 0, 74, 0
1, 53726, Note_on_c, 1, 50, 0
1, 53728, Note_on_c, 0, 75, 74
1, 53728, Note_on_c, 1, 51, 85
1, 53758, Note_on_c, 0, 75, 0
1, 53758, Note_on_c, 1, 51, 0
1, 53760, Note_on_c, 1, 65, 96
1, 53760, Note_on_c, 1, 53, 96
1, 53784, Note_on_c, 0, 57, 75
1, 53799, Note_on_c, 1, 65, 0
1, 53799, Note_on_c, 1, 53, 0
1, 53807, Note_on_c, 0, 57, 0
1, 53808, Note_on_c, 0, 60, 75
1, 53831, Note_on_c, 0, 60, 0
1, 53832, Note_on_c, 0, 57, 75
1, 53855, Note_on_c, 0, 57, 0
1, 53856, Note_on_c, 1, 63, 96
1, 53856, Note_on_c, 1, 51, 96
1, 53880, Note_on_c, 0, 60, 75
1, 53895, Note_on_c, 1, 63, 0
1, 53895, Note_on_c, 1, 51, 0
1, 53903, Note_on_c, 0, 60, 0
1, 53904, Note_on_c, 0, 65, 75
1, 53927, Note_on_c, 0, 65, 0
1, 53928, Note_on_c, 0, 60, 75
1, 53951, Note_on_c, 0, 60, 0
1, 53952, Note_on_c, 1, 60, 96
1, 53952, Note_on_c, 1, 48, 96
1, 53976, Note_on_c, 0, 65, 75
1, 53991, Note_on_c, 1, 60, 0
1, 53991, Note_on_c, 1, 48, 0
1, 53999, Note_on_c, 0, 65, 0
1, 54000, Note_on_c, 0, 69, 75
1, 54023, Note_on_c, 0, 69, 0
1, 54024, Note_on_c, 0, 65, 75
1, 54047, Note_on_c, 0, 65, 0
1, 54048, Note_on_c, 1, 57, 96
1, 54048, Note_on_c, 1, 45, 96
1, 54072, Note_on_c, 0, 69, 75
1, 54087, Note_on_c, 1, 57, 0
1, 54087, Note_on_c, 1, 45, 0
1, 54095, Note_on_c, 0, 69, 0
1, 54096, Note_on_c, 0, 72, 75
1, 54119, Note_on_c, 0, 72, 0
1, 54120, Note_on_c, 0, 69, 75
1, 54144, Note_on_c, 0, 75, 91
1, 54144, Note_on_c, 0, 72, 91
1, 54144, Note_on_c, 1, 53, 96
1, 54144, Note_on_c, 1, 41, 96
1, 54432, Note_on_c, 0, 75, 0
1, 54432, Note_on_c, 0, 72, 0
1, 54432, Note_on_c, 0, 69, 0
1, 54432, Note_on_c, 1, 53, 0
1, 54432, Note_on_c, 1, 41, 0
1, 54528, Note_on_c, 1, 67, 96
1, 54528, Note_on_c, 1, 55, 96
1, 54552, Note_on_c, 0, 71, 75
1, 54567, Note_on_c, 1, 67, 0
1, 54567, Note_on_c, 1, 55, 0
1, 54575, Note_on_c, 0, 71, 0
1, 54576, Note_on_c, 0, 74, 75
1, 54599, Note_on_c, 0, 74, 0
1, 54600, Note_on_c, 0, 71, 75
1, 54623, Note_on_c, 0, 71, 0
1, 54624, Note_on_c, 1, 65, 96
1, 54624, Note_on_c, 1, 53, 96
1, 54648, Note_on_c, 0, 74, 75
1, 54663, Note_on_c, 1, 65, 0
1, 54663, Note_on_c, 1, 53, 0
1, 54671, Note_on_c, 0, 74, 0
1, 54672, Note_on_c, 0, 77, 75
1, 54695, Note_on_c, 0, 77, 0
1, 54696, Note_on_c, 0, 74, 75
1, 54719, Note_on_c, 0, 74, 0
1, 54720, Note_on_c, 1, 62, 96
1, 54720, Note_on_c, 1, 50, 96
1, 54744, Note_on_c, 0, 77, 75
1, 54759, Note_on_c, 1, 62, 0
1, 54759, Note_on_c, 1, 50, 0
1, 54767, Note_on_c, 0, 77, 0
1, 54768, Note_on_c, 0, 83, 75
1, 54791, Note_on_c, 0, 83, 0
1, 54792, Note_on_c, 0, 77, 75
1, 54815, Note_on_c, 0, 77, 0
1, 54816, Note_on_c, 1, 59, 96
1, 54816, Note_on_c, 1, 47, 96
1, 54840, Note_on_c, 0, 83, 75
1, 54855, Note_on_c, 1, 59, 0
1, 54855, Note_on_c, 1, 47, 0
1, 54863, Note_on_c, 0, 83, 0
1, 54864, Note_on_c, 0, 86, 75
1, 54887, Note_on_c, 0, 86, 0
1, 54888, Note_on_c, 0, 83, 75
1, 54912, Note_on_c, 0, 89, 91
1, 54912, Note_on_c, 0, 86, 91
1, 54912, Note_on_c, 1, 55, 96
1, 54912, Note_on_c, 1, 43, 96
1, 55200, Note_on_c, 0, 89, 0
1, 55200, Note_on_c, 0, 86, 0
1, 55200, Note_on_c, 0, 83, 0
1, 55200, Note_on_c, 1, 55, 0
1, 55200, Note_on_c, 1, 43, 0
1, 55296, Note_on_c, 1, 63, 96
1, 55296, Note_on_c, 1, 51, 96
1, 55320, Note_on_c, 0, 67, 75
1, 55335, Note_on_c, 1, 63, 0
1, 55335, Note_on_c, 1, 51, 0
1, 55343, Note_on_c, 0, 67, 0
1, 55344, Note_on_c, 0, 72, 75
1, 55367, Note_on_c, 0, 72, 0
1, 55368, Note_on_c, 0, 67, 75
1, 55391, Note_on_c, 0, 67, 0
1, 55392, Note_on_c, 1, 60, 96
1, 55392, Note_on_c, 1, 48, 96
1, 55416, Note_on_c, 0, 72, 75
1, 55431, Note_on_c, 1, 60, 0
1, 55431, Note_on_c, 1, 48, 0
1, 55439, Note_on_c, 0, 72, 0
1, 55440, Note_on_c, 0, 75, 75
1, 55463, Note_on_c, 0, 75, 0
1, 55464, Note_on_c, 0, 72, 75
1, 55487, Note_on_c, 0, 72, 0
1, 55488, Note_on_c, 1, 55, 96
1, 55488, Note_on_c, 1, 43, 96
1, 55512, Note_on_c, 0, 75, 75
1, 55527, Note_on_c, 1, 55, 0
1, 55527, Note_on_c, 1, 43, 0
1, 55535, Note_on_c, 0, 75, 0
1, 55536, Note_on_c, 0, 79, 75
1, 55559, Note_on_c, 0, 79, 0
1, 55560, Note_on_c, 0, 75, 75
1, 55583, Note_on_c, 0, 75, 0
1, 55584, Note_on_c, 1, 60, 96
1, 55584, Note_on_c, 1, 48, 96
1, 55608, Note_on_c, 0, 79, 75
1, 55623, Note_on_c, 1, 60, 0
1, 55623, Note_on_c, 1, 48, 0
1, 55631, Note_on_c, 0, 79, 0
1, 55632, Note_on_c, 0, 84, 75
1, 55655, Note_on_c, 0, 84, 0
1, 55656, Note_on_c, 0, 79, 75
1, 55680, Note_on_c, 0, 87, 91
1, 55680, Note_on_c, 0, 84, 91
1, 55680, Note_on_c, 1, 58, 96
1, 55680, Note_on_c, 1, 46, 96
1, 55968, Note_on_c, 0, 87, 0
1, 55968, Note_on_c, 0, 84, 0
1, 55968, Note_on_c, 0, 79, 0
1, 55968, Note_on_c, 1, 58, 0
1, 55968, Note_on_c, 1, 46, 0
1, 56064, Note_on_c, 1, 53, 96
1, 56064, Note_on_c, 1, 41, 96
1, 56088, Note_on_c, 0, 60, 75
1, 56103, Note_on_c, 1, 53, 0
1, 56103, Note_on_c, 1, 41, 0
1, 56111, Note_on_c, 0, 60, 0
1, 56112, Note_on_c, 0, 63, 75
1, 56135, Note_on_c, 0, 63, 0
1, 56136, Note_on_c, 0, 60, 75
1, 56159, Note_on_c, 0, 60, 0
1, 56160, Note_on_c, 1, 51, 96
1, 56160, Note_on_c, 1, 39, 96
1, 56184, Note_on_c, 0, 63, 75
1, 56199, Note_on_c, 1, 51, 0
1, 56199, Note_on_c, 1, 39, 0
1, 56207, Note_on_c, 0, 63, 0
1, 56208, Note_on_c, 0, 69, 75
1, 56231, Note_on_c, 0, 69, 0
1, 56232, Note_on_c, 0, 63, 75
1, 56255, Note_on_c, 0, 63, 0
1, 56256, Note_on_c, 1, 48, 96
1, 56256, Note_on_c, 1, 36, 96
1, 56280, Note_on_c, 0, 69, 75
1, 56295, Note_on_c, 1, 48, 0
1, 56295, Note_on_c, 1, 36, 0
1, 56303, Note_on_c, 0, 69, 0
1, 56304, Note_on_c, 0, 72, 75
1, 56327, Note_on_c, 0, 72, 0
1, 56328, Note_on_c, 0, 69, 75
1, 56351, Note_on_c, 0, 69, 0
1, 56352, Note_on_c, 1, 46, 96
1, 56352, Note_on_c, 1, 34, 96
1, 56376, Note_on_c, 0, 72, 75
1, 56391, Note_on_c, 1, 46, 0
1, 56391, Note_on_c, 1, 34, 0
1, 56399, Note_on_c, 0, 72, 0
1, 56400, Note_on_c, 0, 75, 75
1, 56423, Note_on_c, 0, 75, 0
1, 56424, Note_on_c, 0, 72, 75
1, 56448, Note_on_c, 0, 78, 91
1, 56448, Note_on_c, 0, 75, 91
1, 56448, Note_on_c, 1, 45, 80
1, 56448, Note_on_c, 1, 33, 80
1, 56713, Note_on_c, 1, 45, 0
1, 56713, Note_on_c, 1, 33, 0
1, 56736, Note_on_c, 0, 78, 0
1, 56736, Note_on_c, 0, 75, 0
1, 56736, Note_on_c, 0, 72, 0
1, 56832, Note_on_c, 1, 58, 64
1, 56877, Note_on_c, 1, 58, 0
1, 56880, Note_on_c, 1, 65, 64
1, 56925, Note_on_c, 1, 65, 0
1, 56928, Note_on_c, 1, 62, 64
1, 56973, Note_on_c, 1, 62, 0
1, 56976, Note_on_c, 1, 65, 64
1, 57021, Note_on_c, 1, 65, 0
1, 57024, Note_on_c, 1, 58, 64
1, 57069, Note_on_c, 1, 58, 0
1, 57072, Note_on_c, 1, 65, 64
1, 57117, Note_on_c, 1, 65, 0
1, 57120, Note_on_c, 0, 70, 75
1, 57120, Note_on_c, 1, 62, 64
1, 57159, Note_on_c, 0, 70, 0
1, 57165, Note_on_c, 1, 62, 0
1, 57168, Note_on_c, 1, 65, 64
1, 57213, Note_on_c, 1, 65, 0
1, 57216, Note_on_c, 1, 58, 64
1, 57261, Note_on_c, 1, 58, 0
1, 57264, Note_on_c, 1, 65, 64
1, 57309, Note_on_c, 1, 65, 0
1, 57312, Note_on_c, 0, 77, 75
1, 57312, Note_on_c, 1, 62, 64
1, 57351, Note_on_c, 0, 77, 0
1, 57357, Note_on_c, 1, 62, 0
1, 57360, Note_on_c, 1, 65, 64
1, 57405, Note_on_c, 1, 65, 0
1, 57408, Note_on_c, 1, 58, 64
1, 57453, Note_on_c, 1, 58, 0
1, 57456, Note_on_c, 1, 65, 64
1, 57501, Note_on_c, 1, 65, 0
1, 57504, Note_on_c, 0, 75, 75
1, 57504, Note_on_c, 1, 62, 64
1, 57527, Note_on_c, 0, 75, 0
1, 57528, Note_on_c, 0, 74, 75
1, 57549, Note_on_c, 1, 62, 0
1, 57551, Note_on_c, 0, 74, 0
1, 57552, Note_on_c, 0, 72, 75
1, 57552, Note_on_c, 1, 65, 64
1, 57575, Note_on_c, 0, 72, 0
1, 57576, Note_on_c, 0, 70, 75
1, 57597, Note_on_c, 1, 65, 0
1, 57599, Note_on_c, 0, 70, 0
1, 57600, Note_on_c, 0, 69, 75
1, 57600, Note_on_c, 1, 60, 64
1, 57645, Note_on_c, 1, 60, 0
1, 57648, Note_on_c, 1, 65, 64
1, 57689, Note_on_c, 0, 69, 0
1, 57693, Note_on_c, 1, 65, 0
1, 57696, Note_on_c, 0, 75, 75
1, 57696, Note_on_c, 1, 63, 64
1, 57735, Note_on_c, 0, 75, 0
1, 57741, Note_on_c, 1, 63, 0
1, 57744, Note_on_c, 1, 65, 64
1, 57789, Note_on_c, 1, 65, 0
1, 57792, Note_on_c, 1, 60, 64
1, 57837, Note_on_c, 1, 60, 0
1, 57840, Note_on_c, 1, 65, 64
1, 57885, Note_on_c, 1, 65, 0
1, 57888, Note_on_c, 0, 74, 75
1, 57888, Note_on_c, 1, 63, 64
1, 57911, Note_on_c, 0, 74, 0
1, 57912, Note_on_c, 0, 72, 75
1, 57933, Note_on_c, 1, 63, 0
1, 57935, Note_on_c, 0, 72, 0
1, 57936, Note_on_c, 0, 70, 75
1, 57936, Note_on_c, 1, 65, 64
1, 57959, Note_on_c, 0, 70, 0
1, 57960, Note_on_c, 0, 69, 75
1, 57981, Note_on_c, 1, 65, 0
1, 57983, Note_on_c, 0, 69, 0
1, 57984, Note_on_c, 0, 70, 75
1, 57984, Note_on_c, 1, 58, 64
1, 58051, Note_on_c, 0, 70, 0
1, 58056, Note_on_c, 0, 65, 75
1, 58073, Note_on_c, 1, 58, 0
1, 58079, Note_on_c, 0, 65, 0
1, 58080, Note_on_c, 0, 74, 75
1, 58147, Note_on_c, 0, 74, 0
1, 58152, Note_on_c, 0, 70, 76
1, 58175, Note_on_c, 0, 70, 0
1, 58176, Note_on_c, 0, 77, 76
1, 58243, Note_on_c, 0, 77, 0
1, 58248, Note_on_c, 0, 74, 77
1, 58271, Note_on_c, 0, 74, 0
1, 58272, Note_on_c, 0, 82, 77
1, 58339, Note_on_c, 0, 82, 0
1, 58344, Note_on_c, 0, 77, 78
1, 58367, Note_on_c, 0, 77, 0
1, 58368, Note_on_c, 0, 78, 78
1, 58368, Note_on_c, 1, 58, 64
1, 58413, Note_on_c, 1, 58, 0
1, 58416, Note_on_c, 0, 78, 0
1, 58416, Note_on_c, 0, 79, 78
1, 58416, Note_on_c, 1, 63, 64
1, 58461, Note_on_c, 0, 79, 0
1, 58461, Note_on_c, 1, 63, 0
1, 58464, Note_on_c, 0, 79, 95
1, 58464, Note_on_c, 1, 67, 64
1, 58509, Note_on_c, 1, 67, 0
1, 58512, Note_on_c, 1, 63, 64
1, 58557, Note_on_c, 1, 63, 0
1, 58560, Note_on_c, 1, 58, 64
1, 58590, Note_on_c, 0, 79, 0
1, 58592, Note_on_c, 0, 72, 80
1, 58605, Note_on_c, 1, 58, 0
1, 58608, Note_on_c, 1, 63, 64
1, 58622, Note_on_c, 0, 72, 0
1, 58624, Note_on_c, 0, 74, 80
1, 58653, Note_on_c, 1, 63, 0
1, 58654, Note_on_c, 0, 74, 0
1, 58656, Note_on_c, 0, 75, 80
1, 58656, Note_on_c, 1, 67, 64
1, 58686, Note_on_c, 0, 75, 0
1, 58688, Note_on_c, 0, 74, 80
1, 58701, Note_on_c, 1, 67, 0
1, 58704, Note_on_c, 1, 63, 64
1, 58718, Note_on_c, 0, 74, 0
1, 58720, Note_on_c, 0, 72, 80
1, 58749, Note_on_c, 1, 63, 0
1, 58750, Note_on_c, 0, 72, 0
1, 58752, Note_on_c, 0, 72, 80
1, 58752, Note_on_c, 1, 62, 64
1, 58797, Note_on_c, 1, 62, 0
1, 58800, Note_on_c, 0, 72, 0
1, 58800, Note_on_c, 0, 70, 80
1, 58800, Note_on_c, 1, 65, 64
1, 58845, Note_on_c, 0, 70, 0
1, 58845, Note_on_c, 1, 65, 0
1, 58848, Note_on_c, 0, 70, 95
1, 58848, Note_on_c, 1, 62, 65
1, 58893, Note_on_c, 1, 62, 0
1, 58896, Note_on_c, 1, 58, 66
1, 58941, Note_on_c, 1, 58, 0
1, 58944, Note_on_c, 1, 53, 67
1, 58989, Note_on_c, 1, 53, 0
1, 58992, Note_on_c, 1, 62, 67
1, 59037, Note_on_c, 1, 62, 0
1, 59040, Note_on_c, 0, 70, 0
1, 59040, Note_on_c, 0, 74, 76
1, 59040, Note_on_c, 0, 69, 76
1, 59040, Note_on_c, 1, 53, 68
1, 59085, Note_on_c, 1, 53, 0
1, 59088, Note_on_c, 0, 74, 0
1, 59088, Note_on_c, 0, 69, 0
1, 59088, Note_on_c, 0, 72, 75
1, 59088, Note_on_c, 0, 66, 75
1, 59088, Note_on_c, 1, 63, 69
1, 59133, Note_on_c, 0, 72, 0
1, 59133, Note_on_c, 0, 66, 0
1, 59133, Note_on_c, 1, 63, 0
1, 59136, Note_on_c, 0, 70, 75
1, 59136, Note_on_c, 0, 67, 75
1, 59136, Note_on_c, 1, 62, 70
1, 59313, Note_on_c, 0, 70, 0
1, 59313, Note_on_c, 0, 67, 0
1, 59313, Note_on_c, 1, 62, 0
1, 59360, Note_on_c, 0, 60, 75
1, 59390, Note_on_c, 0, 60, 0
1, 59392, Note_on_c, 0, 62, 75
1, 59422, Note_on_c, 0, 62, 0
1, 59424, Note_on_c, 0, 63, 75
1, 59454, Note_on_c, 0, 63, 0
1, 59456, Note_on_c, 0, 62, 75
1, 59486, Note_on_c, 0, 62, 0
1, 59488, Note_on_c, 0, 60, 75
1, 59518, Note_on_c, 0, 60, 0
1, 59520, Note_on_c, 0, 65, 75
1, 59520, Note_on_c, 1, 50, 70
1, 59520, Note_on_c, 1, 41, 70
1, 59592, Note_on_c, 0, 65, 0
1, 59592, Note_on_c, 0, 62, 75
1, 59609, Note_on_c, 1, 50, 0
1, 59609, Note_on_c, 1, 41, 0
1, 59615, Note_on_c, 0, 62, 0
1, 59616, Note_on_c, 0, 58, 75
1, 59705, Note_on_c, 0, 58, 0
1, 59712, Note_on_c, 0, 60, 75
1, 59712, Note_on_c, 1, 51, 70
1, 59712, Note_on_c, 1, 41, 70
1, 59736, Note_on_c, 0, 60, 0
1, 59736, Note_on_c, 0, 58, 75
1, 59760, Note_on_c, 0, 58, 0
1, 59760, Note_on_c, 0, 57, 75
1, 59784, Note_on_c, 0, 57, 0
1, 59784, Note_on_c, 0, 58, 75
1, 59801, Note_on_c, 1, 51, 0
1, 59801, Note_on_c, 1, 41, 0
1, 59808, Note_on_c, 0, 58, 0
1, 59808, Note_on_c, 0, 62, 75
1, 59856, Note_on_c, 0, 62, 0
1, 59856, Note_on_c, 0, 60, 75
1, 59901, Note_on_c, 0, 60, 0
1, 59904, Note_on_c, 0, 58, 75
1, 59904, Note_on_c, 1, 34, 80
1, 59949, Note_on_c, 1, 34, 0
1, 59952, Note_on_c, 1, 46, 80
1, 59993, Note_on_c, 0, 58, 0
1, 59997, Note_on_c, 1, 46, 0
1, 60000, Note_on_c, 1, 34, 80
1, 60045, Note_on_c, 1, 34, 0
1, 60048, Note_on_c, 1, 46, 80
1, 60093, Note_on_c, 1, 46, 0
1, 60096, Note_on_c, 0, 68, 113
1, 60096, Note_on_c, 0, 65, 113
1, 60096, Note_on_c, 0, 62, 113
1, 60096, Note_on_c, 1, 34, 80
1, 60141, Note_on_c, 1, 34, 0
1, 60144, Note_on_c, 1, 46, 80
1, 60189, Note_on_c, 1, 46, 0
1, 60192, Note_on_c, 1, 34, 80
1, 60237, Note_on_c, 1, 34, 0
1, 60240, Note_on_c, 1, 46, 80
1, 60285, Note_on_c, 1, 46, 0
1, 60288, Note_on_c, 0, 68, 0
1, 60288, Note_on_c, 0, 65, 0
1, 60288, Note_on_c, 0, 62, 0
1, 60288, Note_on_c, 0, 67, 80
1, 60288, Note_on_c, 0, 63, 80
1, 60288, Note_on_c, 1, 34, 80
1, 60327, Note_on_c, 0, 67, 0
1, 60327, Note_on_c, 0, 63, 0
1, 60333, Note_on_c, 1, 34, 0
1, 60336, Note_on_c, 1, 46, 80
1, 60381, Note_on_c, 1, 46, 0
1, 60384, Note_on_c, 1, 34, 80
1, 60429, Note_on_c, 1, 34, 0
1, 60432, Note_on_c, 1, 46, 80
1, 60477, Note_on_c, 1, 46, 0
1, 60480, Note_on_c, 0, 69, 113
1, 60480, Note_on_c, 0, 63, 113
1, 60480, Note_on_c, 0, 60, 113
1, 60480, Note_on_c, 1, 34, 80
1, 60525, Note_on_c, 1, 34, 0
1, 60528, Note_on_c, 1, 46, 80
1, 60573, Note_on_c, 1, 46, 0
1, 60576, Note_on_c, 1, 34, 80
1, 60621, Note_on_c, 1, 34, 0
1, 60624, Note_on_c, 1, 46, 80
1, 60669, Note_on_c, 1, 46, 0
1, 60672, Note_on_c, 0, 69, 0
1, 60672, Note_on_c, 0, 63, 0
1, 60672, Note_on_c, 0, 60, 0
1, 60672, Note_on_c, 0, 70, 80
1, 60672, Note_on_c, 0, 65, 80
1, 60672, Note_on_c, 0, 62, 80
1, 60672, Note_on_c, 1, 34, 80
1, 60711, Note_on_c, 0, 70, 0
1, 60711, Note_on_c, 0, 65, 0
1, 60711, Note_on_c, 0, 62, 0
1, 60717, Note_on_c, 1, 34, 0
1, 60720, Note_on_c, 1, 46, 80
1, 60765, Note_on_c, 1, 46, 0
1, 60768, Note_on_c, 0, 68, 97
1, 60768, Note_on_c, 0, 65, 97
1, 60768, Note_on_c, 0, 62, 97
1, 60768, Note_on_c, 1, 34, 80
1, 60807, Note_on_c, 0, 68, 0
1, 60807, Note_on_c, 0, 65, 0
1, 60807, Note_on_c, 0, 62, 0
1, 60813, Note_on_c, 1, 34, 0
1, 60816, Note_on_c, 1, 46, 80
1, 60861, Note_on_c, 1, 46, 0
1, 60864, Note_on_c, 1, 34, 80
1, 60909, Note_on_c, 1, 34, 0
1, 60912, Note_on_c, 1, 46, 80
1, 60957, Note_on_c, 1, 46, 0
1, 60960, Note_on_c, 0, 67, 97
1, 60960, Note_on_c, 0, 63, 97
1, 60960, Note_on_c, 1, 34, 80
1, 60999, Note_on_c, 0, 67, 0
1, 60999, Note_on_c, 0, 63, 0
1, 61005, Note_on_c, 1, 34, 0
1, 61008, Note_on_c, 1, 46, 80
1, 61053, Note_on_c, 1, 46, 0
1, 61056, Note_on_c, 1, 34, 80
1, 61101, Note_on_c, 1, 34, 0
1, 61104, Note_on_c, 1, 46, 80
1, 61149, Note_on_c, 1, 46, 0
1, 61152, Note_on_c, 0, 69, 113
1, 61152, Note_on_c, 0, 63, 113
1, 61152, Note_on_c, 0, 60, 113
1, 61152, Note_on_c, 1, 34, 80
1, 61197, Note_on_c, 1, 34, 0
1, 61200, Note_on_c, 1, 46, 80
1, 61245, Note_on_c, 1, 46, 0
1, 61248, Note_on_c, 0, 69, 0
1, 61248, Note_on_c, 0, 63, 0
1, 61248, Note_on_c, 0, 60, 0
1, 61248, Note_on_c, 0, 70, 80
1, 61248, Note_on_c, 0, 65, 80
1, 61248, Note_on_c, 0, 62, 80
1, 61248, Note_on_c, 1, 34, 80
1, 61287, Note_on_c, 0, 70, 0
1, 61287, Note_on_c, 0, 65, 0
1, 61287, Note_on_c, 0, 62, 0
1, 61293, Note_on_c, 1, 34, 0
1, 61296, Note_on_c, 1, 46, 80
1, 61341, Note_on_c, 1, 46, 0
1, 61344, Note_on_c, 0, 78, 97
1, 61344, Note_on_c, 0, 75, 97
1, 61344, Note_on_c, 1, 34, 80
1, 61389, Note_on_c, 1, 34, 0
1, 61392, Note_on_c, 1, 46, 80
1, 61437, Note_on_c, 1, 46, 0
1, 61440, Note_on_c, 0, 78, 0
1, 61440, Note_on_c, 0, 75, 0
1, 61440, Note_on_c, 0, 77, 80
1, 61440, Note_on_c, 0, 74, 80
1, 61440, Note_on_c, 1, 34, 80
1, 61479, Note_on_c, 0, 77, 0
1, 61479, Note_on_c, 0, 74, 0
1, 61485, Note_on_c, 1, 34, 0
1, 61488, Note_on_c, 1, 46, 80
1, 61533, Note_on_c, 1, 46, 0
1, 61536, Note_on_c, 0, 81, 80
1, 61536, Note_on_c, 0, 75, 80
1, 61536, Note_on_c, 1, 34, 78
1, 61575, Note_on_c, 0, 81, 0
1, 61575, Note_on_c, 0, 75, 0
1, 61581, Note_on_c, 1, 34, 0
1, 61584, Note_on_c, 1, 46, 77
1, 61629, Note_on_c, 1, 46, 0
1, 61632, Note_on_c, 0, 82, 77
1, 61632, Note_on_c, 0, 74, 77
1, 61632, Note_on_c, 1, 34, 76
1, 61671, Note_on_c, 0, 82, 0
1, 61671, Note_on_c, 0, 74, 0
1, 61677, Note_on_c, 1, 34, 0
1, 61680, Note_on_c, 1, 46, 75
1, 61725, Note_on_c, 1, 46, 0
1, 61728, Note_on_c, 0, 54, 92
1, 61728, Note_on_c, 0, 51, 92
1, 61728, Note_on_c, 1, 34, 73
1, 61773, Note_on_c, 1, 34, 0
1, 61776, Note_on_c, 1, 46, 72
1, 61821, Note_on_c, 1, 46, 0
1, 61824, Note_on_c, 0, 54, 0
1, 61824, Note_on_c, 0, 51, 0
1, 61824, Note_on_c, 0, 53, 73
1, 61824, Note_on_c, 0, 50, 73
1, 61824, Note_on_c, 1, 34, 71
1, 61863, Note_on_c, 0, 53, 0
1, 61863, Note_on_c, 0, 50, 0
1, 61869, Note_on_c, 1, 34, 0
1, 61872, Note_on_c, 1, 46, 70
1, 61917, Note_on_c, 1, 46, 0
1, 61920, Note_on_c, 0, 57, 70
1, 61920, Note_on_c, 0, 51, 70
1, 61920, Note_on_c, 1, 34, 68
1, 61959, Note_on_c, 0, 57, 0
1, 61959, Note_on_c, 0, 51, 0
1, 61965, Note_on_c, 1, 34, 0
1, 61968, Note_on_c, 1, 46, 67
1, 62013, Note_on_c, 1, 46, 0
1, 62016, Note_on_c, 0, 58, 68
1, 62016, Note_on_c, 0, 50, 68
1, 62016, Note_on_c, 1, 34, 66
1, 62105, Note_on_c, 0, 58, 0
1, 62105, Note_on_c, 0, 50, 0
1, 62105, Note_on_c, 1, 34, 0
1, 62160, Note_on_c, 0, 77, 65
1, 62205, Note_on_c, 0, 77, 0
1, 62208, Note_on_c, 0, 77, 80
1, 62208, Note_on_c, 1, 63, 64
1, 62208, Note_on_c, 1, 53, 64
1, 62304, Note_on_c, 0, 77, 0
1, 62304, Note_on_c, 0, 76, 64
1, 62327, Note_on_c, 0, 76, 0
1, 62328, Note_on_c, 0, 77, 64
1, 62351, Note_on_c, 0, 77, 0
1, 62352, Note_on_c, 0, 79, 64
1, 62375, Note_on_c, 0, 79, 0
1, 62376, Note_on_c, 0, 77, 64
1, 62385, Note_on_c, 1, 63, 0
1, 62385, Note_on_c, 1, 53, 0
1, 62399, Note_on_c, 0, 77, 0
1, 62400, Note_on_c, 0, 70, 64
1, 62400, Note_on_c, 1, 62, 64
1, 62400, Note_on_c, 1, 58, 64
1, 62489, Note_on_c, 0, 70, 0
1, 62489, Note_on_c, 1, 62, 0
1, 62489, Note_on_c, 1, 58, 0
1, 62544, Note_on_c, 0, 65, 75
1, 62589, Note_on_c, 0, 65, 0
1, 62592, Note_on_c, 0, 60, 75
1, 62592, Note_on_c, 0, 57, 75
1, 62592, Note_on_c, 1, 41, 75
1, 62681, Note_on_c, 0, 60, 0
1, 62681, Note_on_c, 0, 57, 0
1, 62681, Note_on_c, 1, 41, 0
1, 62688, Note_on_c, 1, 53, 75
1, 62736, Note_on_c, 0, 65, 75
1, 62777, Note_on_c, 1, 53, 0
1, 62781, Note_on_c, 0, 65, 0
1, 62784, Note_on_c, 0, 62, 75
1, 62784, Note_on_c, 0, 58, 75
1, 62784, Note_on_c, 1, 41, 75
1, 62873, Note_on_c, 0, 62, 0
1, 62873, Note_on_c, 0, 58, 0
1, 62873, Note_on_c, 1, 41, 0
1, 62880, Note_on_c, 1, 53, 75
1, 62928, Note_on_c, 0, 65, 75
1, 62969, Note_on_c, 1, 53, 0
1, 62973, Note_on_c, 0, 65, 0
1, 62976, Note_on_c, 0, 60, 75
1, 62976, Note_on_c, 0, 57, 75
1, 63024, Note_on_c, 1, 41, 75
1, 63044, Note_on_c, 1, 41, 0
1, 63065, Note_on_c, 0, 60, 0
1, 63065, Note_on_c, 0, 57, 0
1, 63072, Note_on_c, 1, 45, 75
1, 63092, Note_on_c, 1, 45, 0
1, 63120, Note_on_c, 1, 48, 75
1, 63140, Note_on_c, 1, 48, 0
1, 63168, Note_on_c, 1, 53, 75
1, 63257, Note_on_c, 1, 53, 0
1, 63264, Note_on_c, 0, 74, 75
1, 63287, Note_on_c, 0, 74, 0
1, 63288, Note_on_c, 0, 72, 75
1, 63311, Note_on_c, 0, 72, 0
1, 63312, Note_on_c, 0, 70, 76
1, 63335, Note_on_c, 0, 70, 0
1, 63336, Note_on_c, 0, 69, 76
1, 63359, Note_on_c, 0, 69, 0
1, 63360, Note_on_c, 0, 67, 77
1, 63399, Note_on_c, 0, 67, 0
1, 63456, Note_on_c, 0, 76, 80
1, 63479, Note_on_c, 0, 76, 0
1, 63480, Note_on_c, 0, 74, 80
1, 63503, Note_on_c, 0, 74, 0
1, 63504, Note_on_c, 0, 72, 80
1, 63527, Note_on_c, 0, 72, 0
1, 63528, Note_on_c, 0, 70, 80
1, 63551, Note_on_c, 0, 70, 0
1, 63552, Note_on_c, 0, 69, 80
1, 63591, Note_on_c, 0, 69, 0
1, 63648, Note_on_c, 0, 72, 80
1, 63671, Note_on_c, 0, 72, 0
1, 63672, Note_on_c, 0, 70, 79
1, 63695, Note_on_c, 0, 70, 0
1, 63696, Note_on_c, 0, 69, 79
1, 63719, Note_on_c, 0, 69, 0
1, 63720, Note_on_c, 0, 67, 78
1, 63743, Note_on_c, 0, 67, 0
1, 63744, Note_on_c, 0, 65, 78
1, 63744, Note_on_c, 0, 57, 64
1, 63756, Note_on_c, 0, 65, 0
1, 63756, Note_on_c, 0, 67, 78
1, 63768, Note_on_c, 0, 67, 0
1, 63768, Note_on_c, 0, 65, 78
1, 63792, Note_on_c, 1, 47, 75
1, 63837, Note_on_c, 1, 47, 0
1, 63840, Note_on_c, 1, 48, 75
1, 63885, Note_on_c, 1, 48, 0
1, 63888, Note_on_c, 1, 47, 75
1, 63933, Note_on_c, 1, 47, 0
1, 63936, Note_on_c, 0, 65, 0
1, 63936, Note_on_c, 0, 64, 75
1, 63936, Note_on_c, 0, 57, 0
1, 63936, Note_on_c, 0, 55, 64
1, 63936, Note_on_c, 1, 48, 75
1, 63981, Note_on_c, 0, 64, 0
1, 63981, Note_on_c, 0, 55, 0
1, 63981, Note_on_c, 1, 48, 0
1, 63984, Note_on_c, 0, 77, 80
1, 63984, Note_on_c, 1, 65, 80
1, 64029, Note_on_c, 0, 77, 0
1, 64029, Note_on_c, 1, 65, 0
1, 64032, Note_on_c, 0, 76, 80
1, 64032, Note_on_c, 1, 64, 80
1, 64077, Note_on_c, 0, 76, 0
1, 64077, Note_on_c, 1, 64, 0
1, 64080, Note_on_c, 0, 77, 80
1, 64080, Note_on_c, 1, 65, 80
1, 64125, Note_on_c, 0, 77, 0
1, 64125, Note_on_c, 1, 65, 0
1, 64128, Note_on_c, 0, 72, 80
1, 64128, Note_on_c, 0, 68, 80
1, 64176, Note_on_c, 1, 53, 80
1, 64196, Note_on_c, 1, 53, 0
1, 64217, Note_on_c, 0, 72, 0
1, 64217, Note_on_c, 0, 68, 0
1, 64224, Note_on_c, 1, 65, 80
1, 64272, Note_on_c, 0, 72, 80
1, 64272, Note_on_c, 0, 68, 80
1, 64313, Note_on_c, 1, 65, 0
1, 64317, Note_on_c, 0, 72, 0
1, 64317, Note_on_c, 0, 68, 0
1, 64320, Note_on_c, 0, 73, 80
1, 64320, Note_on_c, 0, 70, 80
1, 64368, Note_on_c, 1, 53, 80
1, 64388, Note_on_c, 1, 53, 0
1, 64409, Note_on_c, 0, 73, 0
1, 64409, Note_on_c, 0, 70, 0
1, 64416, Note_on_c, 1, 65, 80
1, 64464, Note_on_c, 0, 73, 80
1, 64464, Note_on_c, 0, 70, 80
1, 64505, Note_on_c, 1, 65, 0
1, 64509, Note_on_c, 0, 73, 0
1, 64509, Note_on_c, 0, 70, 0
1, 64512, Note_on_c, 0, 72, 80
1, 64512, Note_on_c, 0, 68, 80
1, 64560, Note_on_c, 1, 53, 80
1, 64580, Note_on_c, 1, 53, 0
1, 64601, Note_on_c, 0, 72, 0
1, 64601, Note_on_c, 0, 68, 0
1, 64608, Note_on_c, 1, 56, 80
1, 64628, Note_on_c, 1, 56, 0
1, 64656, Note_on_c, 1, 60, 80
1, 64676, Note_on_c, 1, 60, 0
1, 64704, Note_on_c, 1, 65, 80
1, 64793, Note_on_c, 1, 65, 0
1, 64800, Note_on_c, 0, 77, 96
1, 64839, Note_on_c, 0, 77, 0
1, 64896, Note_on_c, 0, 65, 80
1, 64896, Note_on_c, 1, 49, 80
1, 64944, Note_on_c, 0, 65, 0
1, 64944, Note_on_c, 0, 70, 80
1, 64989, Note_on_c, 0, 70, 0
1, 64992, Note_on_c, 0, 73, 96
1, 65073, Note_on_c, 1, 49, 0
1, 65088, Note_on_c, 1, 51, 80
1, 65184, Note_on_c, 0, 73, 0
1, 65184, Note_on_c, 0, 70, 80
1, 65196, Note_on_c, 0, 70, 0
1, 65196, Note_on_c, 0, 72, 80
1, 65208, Note_on_c, 0, 72, 0
1, 65208, Note_on_c, 0, 70, 80
1, 65265, Note_on_c, 1, 51, 0
1, 65273, Note_on_c, 0, 70, 0
1, 65280, Note_on_c, 0, 68, 80
1, 65280, Note_on_c, 1, 44, 80
1, 65325, Note_on_c, 1, 44, 0
1, 65328, Note_on_c, 1, 56, 80
1, 65373, Note_on_c, 1, 56, 0
1, 65376, Note_on_c, 1, 42, 80
1, 65421, Note_on_c, 1, 42, 0
1, 65424, Note_on_c, 1, 54, 80
1, 65457, Note_on_c, 0, 68, 0
1, 65469, Note_on_c, 1, 54, 0
1, 65472, Note_on_c, 0, 69, 97
1, 65472, Note_on_c, 0, 63, 97
1, 65472, Note_on_c, 0, 60, 97
1, 65472, Note_on_c, 1, 41, 80
1, 65517, Note_on_c, 1, 41, 0
1, 65520, Note_on_c, 1, 53, 80
1, 65565, Note_on_c, 1, 53, 0
1, 65568, Note_on_c, 1, 39, 80
1, 65613, Note_on_c, 1, 39, 0
1, 65616, Note_on_c, 1, 51, 80
1, 65649, Note_on_c, 0, 69, 0
1, 65649, Note_on_c, 0, 63, 0
1, 65649, Note_on_c, 0, 60, 0
1, 65661, Note_on_c, 1, 51, 0
1, 65664, Note_on_c, 0, 70, 80
1, 65664, Note_on_c, 0, 65, 64
1, 65664, Note_on_c, 0, 61, 64
1, 65664, Note_on_c, 1, 37, 80
1, 65712, Note_on_c, 0, 70, 0
1, 65712, Note_on_c, 0, 73, 80
1, 65753, Note_on_c, 0, 65, 0
1, 65753, Note_on_c, 0, 61, 0
1, 65753, Note_on_c, 1, 37, 0
1, 65757, Note_on_c, 0, 73, 0
1, 65760, Note_on_c, 0, 77, 96
1, 65856, Note_on_c, 1, 62, 80
1, 65856, Note_on_c, 1, 59, 80
1, 65856, Note_on_c, 1, 53, 80
1, 65952, Note_on_c, 0, 77, 0
1, 65952, Note_on_c, 0, 71, 80
1, 65964, Note_on_c, 0, 71, 0
1, 65964, Note_on_c, 0, 72, 80
1, 65976, Note_on_c, 0, 72, 0
1, 65976, Note_on_c, 0, 71, 80
1, 66033, Note_on_c, 1, 62, 0
1, 66033, Note_on_c, 1, 59, 0
1, 66033, Note_on_c, 1, 53, 0
1, 66041, Note_on_c, 0, 71, 0
1, 66048, Note_on_c, 0, 72, 80
1, 66048, Note_on_c, 1, 48, 80
1, 66093, Note_on_c, 1, 48, 0
1, 66096, Note_on_c, 1, 60, 80
1, 66141, Note_on_c, 1, 60, 0
1, 66144, Note_on_c, 1, 46, 80
1, 66189, Note_on_c, 1, 46, 0
1, 66192, Note_on_c, 1, 58, 80
1, 66225, Note_on_c, 0, 72, 0
1, 66237, Note_on_c, 1, 58, 0
1, 66240, Note_on_c, 0, 73, 97
1, 66240, Note_on_c, 0, 67, 97
1, 66240, Note_on_c, 0, 64, 97
1, 66240, Note_on_c, 1, 45, 80
1, 66285, Note_on_c, 1, 45, 0
1, 66288, Note_on_c, 1, 57, 80
1, 66333, Note_on_c, 1, 57, 0
1, 66336, Note_on_c, 1, 43, 80
1, 66381, Note_on_c, 1, 43, 0
1, 66384, Note_on_c, 1, 55, 80
1, 66417, Note_on_c, 0, 73, 0
1, 66417, Note_on_c, 0, 67, 0
1, 66417, Note_on_c, 0, 64, 0
1, 66429, Note_on_c, 1, 55, 0
1, 66432, Note_on_c, 0, 74, 80
1, 66432, Note_on_c, 1, 41, 80
1, 66477, Note_on_c, 1, 41, 0
1, 66480, Note_on_c, 0, 74, 0
1, 66480, Note_on_c, 0, 77, 80
1, 66480, Note_on_c, 1, 53, 80
1, 66525, Note_on_c, 0, 77, 0
1, 66525, Note_on_c, 1, 53, 0
1, 66528, Note_on_c, 0, 81, 96
1, 66528, Note_on_c, 1, 41, 80
1, 66573, Note_on_c, 1, 41, 0
1, 66576, Note_on_c, 1, 53, 80
1, 66621, Note_on_c, 1, 53, 0
1, 66624, Note_on_c, 1, 42, 81
1, 66669, Note_on_c, 1, 42, 0
1, 66672, Note_on_c, 1, 54, 81
1, 66717, Note_on_c, 1, 54, 0
1, 66720, Note_on_c, 0, 81, 0
1, 66720, Note_on_c, 0, 74, 81
1, 66720, Note_on_c, 1, 42, 81
1, 66765, Note_on_c, 1, 42, 0
1, 66768, Note_on_c, 1, 54, 81
1, 66809, Note_on_c, 0, 74, 0
1, 66813, Note_on_c, 1, 54, 0
1, 66816, Note_on_c, 0, 75, 82
1, 66816, Note_on_c, 1, 43, 82
1, 66861, Note_on_c, 1, 43, 0
1, 66864, Note_on_c, 0, 75, 0
1, 66864, Note_on_c, 0, 79, 82
1, 66864, Note_on_c, 1, 55, 82
1, 66909, Note_on_c, 0, 79, 0
1, 66909, Note_on_c, 1, 55, 0
1, 66912, Note_on_c, 0, 82, 98
1, 66912, Note_on_c, 1, 43, 82
1, 66957, Note_on_c, 1, 43, 0
1, 66960, Note_on_c, 1, 55, 82
1, 67005, Note_on_c, 1, 55, 0
1, 67008, Note_on_c, 1, 43, 83
1, 67053, Note_on_c, 1, 43, 0
1, 67056, Note_on_c, 1, 55, 83
1, 67101, Note_on_c, 1, 55, 0
1, 67104, Note_on_c, 0, 82, 0
1, 67104, Note_on_c, 0, 76, 83
1, 67104, Note_on_c, 1, 46, 83
1, 67116, Note_on_c, 0, 76, 0
1, 67116, Note_on_c, 0, 77, 83
1, 67128, Note_on_c, 0, 77, 0
1, 67128, Note_on_c, 0, 76, 83
1, 67149, Note_on_c, 1, 46, 0
1, 67152, Note_on_c, 1, 58, 83
1, 67193, Note_on_c, 0, 76, 0
1, 67197, Note_on_c, 1, 58, 0
1, 67200, Note_on_c, 0, 77, 84
1, 67200, Note_on_c, 1, 44, 84
1, 67245, Note_on_c, 1, 44, 0
1, 67248, Note_on_c, 0, 77, 0
1, 67248, Note_on_c, 0, 80, 84
1, 67248, Note_on_c, 1, 56, 84
1, 67293, Note_on_c, 0, 80, 0
1, 67293, Note_on_c, 1, 56, 0
1, 67296, Note_on_c, 0, 84, 100
1, 67296, Note_on_c, 1, 44, 84
1, 67341, Note_on_c, 1, 44, 0
1, 67344, Note_on_c, 1, 56, 84
1, 67389, Note_on_c, 1, 56, 0
1, 67392, Note_on_c, 1, 44, 85
1, 67437, Note_on_c, 1, 44, 0
1, 67440, Note_on_c, 1, 56, 85
1, 67485, Note_on_c, 1, 56, 0
1, 67488, Note_on_c, 0, 84, 0
1, 67488, Note_on_c, 0, 78, 85
1, 67488, Note_on_c, 1, 44, 85
1, 67533, Note_on_c, 1, 44, 0
1, 67536, Note_on_c, 1, 56, 85
1, 67577, Note_on_c, 0, 78, 0
1, 67581, Note_on_c, 1, 56, 0
1, 67584, Note_on_c, 1, 55, 80
1, 67584, Note_on_c, 1, 50, 80
1, 67584, Note_on_c, 1, 47, 80
1, 67584, Note_on_c, 1, 43, 80
1, 67632, Note_on_c, 0, 79, 86
1, 67677, Note_on_c, 0, 79, 0
1, 67680, Note_on_c, 0, 67, 86
1, 67725, Note_on_c, 0, 67, 0
1, 67728, Note_on_c, 0, 79, 86
1, 67761, Note_on_c, 1, 55, 0
1, 67761, Note_on_c, 1, 50, 0
1, 67761, Note_on_c, 1, 47, 0
1, 67761, Note_on_c, 1, 43, 0
1, 67773, Note_on_c, 0, 79, 0
1, 67776, Note_on_c, 0, 67, 86
1, 67821, Note_on_c, 0, 67, 0
1, 67824, Note_on_c, 0, 79, 86
1, 67869, Note_on_c, 0, 79, 0
1, 67872, Note_on_c, 0, 67, 86
1, 67872, Note_on_c, 1, 50, 80
1, 67872, Note_on_c, 1, 47, 80
1, 67911, Note_on_c, 1, 50, 0
1, 67911, Note_on_c, 1, 47, 0
1, 67917, Note_on_c, 0, 67, 0
1, 67920, Note_on_c, 0, 79, 86
1, 67965, Note_on_c, 0, 79, 0
1, 67968, Note_on_c, 0, 67, 86
1, 67968, Note_on_c, 1, 51, 80
1, 67968, Note_on_c, 1, 48, 80
1, 68013, Note_on_c, 0, 67, 0
1, 68016, Note_on_c, 0, 79, 86
1, 68061, Note_on_c, 0, 79, 0
1, 68064, Note_on_c, 0, 67, 86
1, 68064, Note_on_c, 1, 51, 0
1, 68064, Note_on_c, 1, 48, 0
1, 68064, Note_on_c, 1, 50, 81
1, 68064, Note_on_c, 1, 47, 81
1, 68103, Note_on_c, 1, 50, 0
1, 68103, Note_on_c, 1, 47, 0
1, 68109, Note_on_c, 0, 67, 0
1, 68112, Note_on_c, 0, 79, 86
1, 68157, Note_on_c, 0, 79, 0
1, 68160, Note_on_c, 0, 67, 86
1, 68160, Note_on_c, 1, 53, 83
1, 68160, Note_on_c, 1, 50, 83
1, 68205, Note_on_c, 0, 67, 0
1, 68208, Note_on_c, 0, 79, 86
1, 68253, Note_on_c, 0, 79, 0
1, 68256, Note_on_c, 0, 67, 86
1, 68256, Note_on_c, 1, 53, 0
1, 68256, Note_on_c, 1, 50, 0
1, 68256, Note_on_c, 1, 51, 84
1, 68256, Note_on_c, 1, 48, 84
1, 68295, Note_on_c, 1, 51, 0
1, 68295, Note_on_c, 1, 48, 0
1, 68301, Note_on_c, 0, 67, 0
1, 68304, Note_on_c, 0, 79, 86
1, 68349, Note_on_c, 0, 79, 0
1, 68352, Note_on_c, 0, 67, 86
1, 68352, Note_on_c, 1, 55, 102
1, 68352, Note_on_c, 1, 51, 102
1, 68397, Note_on_c, 0, 67, 0
1, 68400, Note_on_c, 0, 79, 86
1, 68445, Note_on_c, 0, 79, 0
1, 68448, Note_on_c, 0, 67, 86
1, 68493, Note_on_c, 0, 67, 0
1, 68496, Note_on_c, 0, 79, 86
1, 68496, Note_on_c, 1, 55, 0
1, 68496, Note_on_c, 1, 51, 0
1, 68496, Note_on_c, 1, 53, 83
1, 68496, Note_on_c, 1, 50, 83
1, 68541, Note_on_c, 0, 79, 0
1, 68541, Note_on_c, 1, 53, 0
1, 68541, Note_on_c, 1, 50, 0
1, 68544, Note_on_c, 0, 67, 86
1, 68544, Note_on_c, 1, 51, 83
1, 68544, Note_on_c, 1, 48, 83
1, 68583, Note_on_c, 1, 51, 0
1, 68583, Note_on_c, 1, 48, 0
1, 68589, Note_on_c, 0, 67, 0
1, 68592, Note_on_c, 0, 79, 86
1, 68637, Note_on_c, 0, 79, 0
1, 68640, Note_on_c, 0, 68, 86
1, 68640, Note_on_c, 1, 51, 81
1, 68640, Note_on_c, 1, 48, 81
1, 68679, Note_on_c, 1, 51, 0
1, 68679, Note_on_c, 1, 48, 0
1, 68685, Note_on_c, 0, 68, 0
1, 68688, Note_on_c, 0, 80, 86
1, 68733, Note_on_c, 0, 80, 0
1, 68736, Note_on_c, 0, 69, 80
1, 68736, Note_on_c, 1, 54, 96
1, 68736, Note_on_c, 1, 51, 96
1, 68781, Note_on_c, 0, 69, 0
1, 68784, Note_on_c, 0, 81, 80
1, 68829, Note_on_c, 0, 81, 0
1, 68832, Note_on_c, 0, 69, 80
1, 68877, Note_on_c, 0, 69, 0
1, 68880, Note_on_c, 0, 81, 81
1, 68880, Note_on_c, 1, 54, 0
1, 68880, Note_on_c, 1, 51, 0
1, 68880, Note_on_c, 1, 53, 81
1, 68880, Note_on_c, 1, 50, 81
1, 68925, Note_on_c, 0, 81, 0
1, 68925, Note_on_c, 1, 53, 0
1, 68925, Note_on_c, 1, 50, 0
1, 68928, Note_on_c, 0, 70, 81
1, 68928, Note_on_c, 1, 53, 81
1, 68928, Note_on_c, 1, 50, 81
1, 68967, Note_on_c, 1, 53, 0
1, 68967, Note_on_c, 1, 50, 0
1, 68973, Note_on_c, 0, 70, 0
1, 68976, Note_on_c, 0, 82, 82
1, 69021, Note_on_c, 0, 82, 0
1, 69024, Note_on_c, 0, 70, 82
1, 69024, Note_on_c, 1, 53, 82
1, 69024, Note_on_c, 1, 50, 82
1, 69063, Note_on_c, 1, 53, 0
1, 69063, Note_on_c, 1, 50, 0
1, 69069, Note_on_c, 0, 70, 0
1, 69072, Note_on_c, 0, 82, 83
1, 69117, Note_on_c, 0, 82, 0
1, 69120, Note_on_c, 0, 71, 83
1, 69120, Note_on_c, 1, 56, 99
1, 69120, Note_on_c, 1, 53, 99
1, 69165, Note_on_c, 0, 71, 0
1, 69168, Note_on_c, 0, 83, 84
1, 69213, Note_on_c, 0, 83, 0
1, 69216, Note_on_c, 0, 71, 84
1, 69261, Note_on_c, 0, 71, 0
1, 69264, Note_on_c, 0, 83, 85
1, 69264, Note_on_c, 1, 56, 0
1, 69264, Note_on_c, 1, 53, 0
1, 69264, Note_on_c, 1, 55, 84
1, 69264, Note_on_c, 1, 52, 84
1, 69309, Note_on_c, 0, 83, 0
1, 69309, Note_on_c, 1, 55, 0
1, 69309, Note_on_c, 1, 52, 0
1, 69312, Note_on_c, 0, 72, 85
1, 69312, Note_on_c, 1, 55, 85
1, 69312, Note_on_c, 1, 52, 85
1, 69351, Note_on_c, 1, 55, 0
1, 69351, Note_on_c, 1, 52, 0
1, 69357, Note_on_c, 0, 72, 0
1, 69360, Note_on_c, 0, 84, 86
1, 69405, Note_on_c, 0, 84, 0
1, 69408, Note_on_c, 0, 84, 86
1, 69408, Note_on_c, 1, 60, 86
1, 69431, Note_on_c, 0, 84, 0
1, 69431, Note_on_c, 1, 60, 0
1, 69432, Note_on_c, 0, 82, 86
1, 69432, Note_on_c, 1, 58, 86
1, 69455, Note_on_c, 0, 82, 0
1, 69455, Note_on_c, 1, 58, 0
1, 69456, Note_on_c, 0, 80, 86
1, 69456, Note_on_c, 1, 56, 86
1, 69479, Note_on_c, 0, 80, 0
1, 69479, Note_on_c, 1, 56, 0
1, 69480, Note_on_c, 0, 79, 86
1, 69480, Note_on_c, 1, 55, 86
1, 69503, Note_on_c, 0, 79, 0
1, 69503, Note_on_c, 1, 55, 0
1, 69504, Note_on_c, 0, 77, 86
1, 69504, Note_on_c, 1, 53, 86
1, 69543, Note_on_c, 0, 77, 0
1, 69543, Note_on_c, 1, 53, 0
1, 69600, Note_on_c, 0, 80, 86
1, 69600, Note_on_c, 1, 56, 86
1, 69623, Note_on_c, 0, 80, 0
1, 69623, Note_on_c, 1, 56, 0
1, 69624, Note_on_c, 0, 79, 86
1, 69624, Note_on_c, 1, 55, 86
1, 69647, Note_on_c, 0, 79, 0
1, 69647, Note_on_c, 1, 55, 0
1, 69648, Note_on_c, 0, 77, 86
1, 69648, Note_on_c, 1, 53, 86
1, 69671, Note_on_c, 0, 77, 0
1, 69671, Note_on_c, 1, 53, 0
1, 69672, Note_on_c, 0, 75, 86
1, 69672, Note_on_c, 1, 51, 86
1, 69695, Note_on_c, 0, 75, 0
1, 69695, Note_on_c, 1, 51, 0
1, 69696, Note_on_c, 0, 74, 86
1, 69696, Note_on_c, 1, 50, 86
1, 69735, Note_on_c, 0, 74, 0
1, 69735, Note_on_c, 1, 50, 0
1, 69792, Note_on_c, 0, 77, 86
1, 69792, Note_on_c, 1, 53, 86
1, 69815, Note_on_c, 0, 77, 0
1, 69815, Note_on_c, 1, 53, 0
1, 69816, Note_on_c, 0, 75, 86
1, 69816, Note_on_c, 1, 51, 86
1, 69839, Note_on_c, 0, 75, 0
1, 69839, Note_on_c, 1, 51, 0
1, 69840, Note_on_c, 0, 74, 86
1, 69840, Note_on_c, 1, 50, 86
1, 69863, Note_on_c, 0, 74, 0
1, 69863, Note_on_c, 1, 50, 0
1, 69864, Note_on_c, 0, 72, 86
1, 69864, Note_on_c, 1, 48, 86
1, 69887, Note_on_c, 0, 72, 0
1, 69887, Note_on_c, 1, 48, 0
1, 69888, Note_on_c, 0, 71, 102
1, 69888, Note_on_c, 1, 47, 86
1, 69927, Note_on_c, 1, 47, 0
1, 69984, Note_on_c, 1, 55, 86
1, 70007, Note_on_c, 1, 55, 0
1, 70008, Note_on_c, 1, 53, 86
1, 70031, Note_on_c, 1, 53, 0
1, 70032, Note_on_c, 1, 51, 86
1, 70055, Note_on_c, 1, 51, 0
1, 70056, Note_on_c, 1, 50, 86
1, 70079, Note_on_c, 1, 50, 0
1, 70080, Note_on_c, 0, 71, 0
1, 70080, Note_on_c, 0, 72, 86
1, 70080, Note_on_c, 1, 51, 86
1, 70119, Note_on_c, 0, 72, 0
1, 70119, Note_on_c, 1, 51, 0
1, 70176, Note_on_c, 0, 73, 102
1, 70176, Note_on_c, 0, 69, 102
1, 70176, Note_on_c, 0, 67, 102
1, 70176, Note_on_c, 1, 57, 86
1, 70199, Note_on_c, 1, 57, 0
1, 70200, Note_on_c, 1, 55, 86
1, 70223, Note_on_c, 1, 55, 0
1, 70224, Note_on_c, 1, 53, 86
1, 70247, Note_on_c, 1, 53, 0
1, 70248, Note_on_c, 1, 52, 86
1, 70271, Note_on_c, 1, 52, 0
1, 70272, Note_on_c, 0, 73, 0
1, 70272, Note_on_c, 0, 67, 0
1, 70272, Note_on_c, 0, 74, 86
1, 70272, Note_on_c, 0, 65, 86
1, 70272, Note_on_c, 1, 53, 86
1, 70311, Note_on_c, 0, 74, 0
1, 70311, Note_on_c, 0, 69, 0
1, 70311, Note_on_c, 0, 65, 0
1, 70311, Note_on_c, 1, 53, 0
1, 70368, Note_on_c, 0, 74, 119
1, 70368, Note_on_c, 0, 69, 119
1, 70368, Note_on_c, 0, 65, 119
1, 70368, Note_on_c, 1, 53, 86
1, 70391, Note_on_c, 1, 53, 0
1, 70392, Note_on_c, 1, 51, 86
1, 70407, Note_on_c, 0, 74, 0
1, 70407, Note_on_c, 0, 69, 0
1, 70407, Note_on_c, 0, 65, 0
1, 70415, Note_on_c, 1, 51, 0
1, 70416, Note_on_c, 1, 50, 86
1, 70439, Note_on_c, 1, 50, 0
1, 70440, Note_on_c, 1, 48, 86
1, 70463, Note_on_c, 1, 48, 0
1, 70464, Note_on_c, 0, 74, 86
1, 70464, Note_on_c, 0, 68, 86
1, 70464, Note_on_c, 0, 65, 86
1, 70464, Note_on_c, 1, 46, 86
1, 70503, Note_on_c, 0, 74, 0
1, 70503, Note_on_c, 0, 68, 0
1, 70503, Note_on_c, 0, 65, 0
1, 70503, Note_on_c, 1, 46, 0
1, 70560, Note_on_c, 0, 74, 102
1, 70560, Note_on_c, 0, 68, 102
1, 70560, Note_on_c, 0, 65, 102
1, 70560, Note_on_c, 1, 46, 86
1, 70583, Note_on_c, 1, 46, 0
1, 70584, Note_on_c, 1, 44, 86
1, 70599, Note_on_c, 0, 74, 0
1, 70599, Note_on_c, 0, 68, 0
1, 70599, Note_on_c, 0, 65, 0
1, 70607, Note_on_c, 1, 44, 0
1, 70608, Note_on_c, 1, 43, 86
1, 70631, Note_on_c, 1, 43, 0
1, 70632, Note_on_c, 1, 41, 86
1, 70655, Note_on_c, 1, 41, 0
1, 70656, Note_on_c, 0, 75, 119
1, 70656, Note_on_c, 0, 70, 119
1, 70656, Note_on_c, 0, 67, 119
1, 70656, Note_on_c, 0, 63, 119
1, 70656, Note_on_c, 1, 39, 86
1, 70695, Note_on_c, 1, 39, 0
1, 70752, Note_on_c, 0, 75, 0
1, 70752, Note_on_c, 0, 70, 0
1, 70752, Note_on_c, 0, 67, 0
1, 70752, Note_on_c, 0, 63, 0
1, 70752, Note_on_c, 0, 63, 75
1, 70797, Note_on_c, 0, 63, 0
1, 70800, Note_on_c, 0, 75, 75
1, 70845, Note_on_c, 0, 75, 0
1, 70848, Note_on_c, 0, 63, 75
1, 70893, Note_on_c, 0, 63, 0
1, 70896, Note_on_c, 0, 75, 75
1, 70941, Note_on_c, 0, 75, 0
1, 70944, Note_on_c, 0, 63, 75
1, 70944, Note_on_c, 1, 55, 75
1, 70944, Note_on_c, 1, 51, 75
1, 70983, Note_on_c, 1, 55, 0
1, 70983, Note_on_c, 1, 51, 0
1, 70989, Note_on_c, 0, 63, 0
1, 70992, Note_on_c, 0, 75, 75
1, 71037, Note_on_c, 0, 75, 0
1, 71040, Note_on_c, 0, 63, 75
1, 71040, Note_on_c, 1, 56, 91
1, 71040, Note_on_c, 1, 53, 91
1, 71085, Note_on_c, 0, 63, 0
1, 71088, Note_on_c, 0, 75, 75
1, 71133, Note_on_c, 0, 75, 0
1, 71136, Note_on_c, 0, 63, 75
1, 71136, Note_on_c, 1, 56, 0
1, 71136, Note_on_c, 1, 53, 0
1, 71136, Note_on_c, 1, 55, 76
1, 71136, Note_on_c, 1, 51, 76
1, 71181, Note_on_c, 0, 63, 0
1, 71184, Note_on_c, 0, 75, 75
1, 71225, Note_on_c, 1, 55, 0
1, 71225, Note_on_c, 1, 51, 0
1, 71229, Note_on_c, 0, 75, 0
1, 71232, Note_on_c, 0, 63, 75
1, 71232, Note_on_c, 1, 58, 77
1, 71232, Note_on_c, 1, 55, 77
1, 71277, Note_on_c, 0, 63, 0
1, 71280, Note_on_c, 0, 75, 75
1, 71325, Note_on_c, 0, 75, 0
1, 71328, Note_on_c, 0, 63, 75
1, 71328, Note_on_c, 1, 58, 0
1, 71328, Note_on_c, 1, 55, 0
1, 71328, Note_on_c, 1, 56, 78
1, 71328, Note_on_c, 1, 53, 78
1, 71373, Note_on_c, 0, 63, 0
1, 71376, Note_on_c, 0, 75, 75
1, 71417, Note_on_c, 1, 56, 0
1, 71417, Note_on_c, 1, 53, 0
1, 71421, Note_on_c, 0, 75, 0
1, 71424, Note_on_c, 0, 63, 75
1, 71424, Note_on_c, 1, 60, 96
1, 71424, Note_on_c, 1, 56, 96
1, 71469, Note_on_c, 0, 63, 0
1, 71472, Note_on_c, 0, 75, 75
1, 71517, Note_on_c, 0, 75, 0
1, 71520, Note_on_c, 0, 63, 75
1, 71565, Note_on_c, 0, 63, 0
1, 71568, Note_on_c, 0, 75, 75
1, 71568, Note_on_c, 1, 60, 0
1, 71568, Note_on_c, 1, 56, 0
1, 71568, Note_on_c, 1, 58, 78
1, 71568, Note_on_c, 1, 55, 78
1, 71613, Note_on_c, 0, 75, 0
1, 71613, Note_on_c, 1, 58, 0
1, 71613, Note_on_c, 1, 55, 0
1, 71616, Note_on_c, 0, 63, 75
1, 71616, Note_on_c, 1, 58, 77
1, 71616, Note_on_c, 1, 55, 77
1, 71655, Note_on_c, 1, 58, 0
1, 71655, Note_on_c, 1, 55, 0
1, 71661, Note_on_c, 0, 63, 0
1, 71664, Note_on_c, 0, 75, 75
1, 71709, Note_on_c, 0, 75, 0
1, 71712, Note_on_c, 0, 64, 75
1, 71712, Note_on_c, 1, 58, 76
1, 71712, Note_on_c, 1, 55, 76
1, 71751, Note_on_c, 1, 58, 0
1, 71751, Note_on_c, 1, 55, 0
1, 71757, Note_on_c, 0, 64, 0
1, 71760, Note_on_c, 0, 76, 75
1, 71805, Note_on_c, 0, 76, 0
1, 71808, Note_on_c, 0, 65, 75
1, 71808, Note_on_c, 1, 61, 91
1, 71808, Note_on_c, 1, 58, 91
1, 71853, Note_on_c, 0, 65, 0
1, 71856, Note_on_c, 0, 77, 75
1, 71901, Note_on_c, 0, 77, 0
1, 71904, Note_on_c, 0, 65, 75
1, 71949, Note_on_c, 0, 65, 0
1, 71952, Note_on_c, 0, 77, 76
1, 71952, Note_on_c, 1, 61, 0
1, 71952, Note_on_c, 1, 58, 0
1, 71952, Note_on_c, 1, 60, 76
1, 71952, Note_on_c, 1, 56, 76
1, 71997, Note_on_c, 0, 77, 0
1, 71997, Note_on_c, 1, 60, 0
1, 71997, Note_on_c, 1, 56, 0
1, 72000, Note_on_c, 0, 65, 76
1, 72000, Note_on_c, 1, 60, 76
1, 72000, Note_on_c, 1, 56, 76
1, 72039, Note_on_c, 1, 60, 0
1, 72039, Note_on_c, 1, 56, 0
1, 72045, Note_on_c, 0, 65, 0
1, 72048, Note_on_c, 0, 77, 76
1, 72093, Note_on_c, 0, 77, 0
1, 72096, Note_on_c, 0, 66, 77
1, 72096, Note_on_c, 1, 60, 77
1, 72096, Note_on_c, 1, 56, 77
1, 72135, Note_on_c, 1, 60, 0
1, 72135, Note_on_c, 1, 56, 0
1, 72141, Note_on_c, 0, 66, 0
1, 72144, Note_on_c, 0, 78, 77
1, 72189, Note_on_c, 0, 78, 0
1, 72192, Note_on_c, 0, 67, 78
1, 72192, Note_on_c, 1, 63, 93
1, 72192, Note_on_c, 1, 60, 93
1, 72237, Note_on_c, 0, 67, 0
1, 72240, Note_on_c, 0, 79, 78
1, 72285, Note_on_c, 0, 79, 0
1, 72288, Note_on_c, 0, 67, 78
1, 72333, Note_on_c, 0, 67, 0
1, 72336, Note_on_c, 0, 79, 79
1, 72336, Note_on_c, 1, 63, 0
1, 72336, Note_on_c, 1, 60, 0
1, 72336, Note_on_c, 1, 62, 78
1, 72336, Note_on_c, 1, 59, 78
1, 72381, Note_on_c, 0, 79, 0
1, 72381, Note_on_c, 1, 62, 0
1, 72381, Note_on_c, 1, 59, 0
1, 72384, Note_on_c, 0, 67, 79
1, 72384, Note_on_c, 1, 62, 79
1, 72384, Note_on_c, 1, 59, 79
1, 72423, Note_on_c, 1, 62, 0
1, 72423, Note_on_c, 1, 59, 0
1, 72429, Note_on_c, 0, 67, 0
1, 72432, Note_on_c, 0, 79, 80
1, 72477, Note_on_c, 0, 79, 0
1, 72480, Note_on_c, 0, 79, 80
1, 72480, Note_on_c, 1, 55, 80
1, 72503, Note_on_c, 0, 79, 0
1, 72503, Note_on_c, 1, 55, 0
1, 72504, Note_on_c, 0, 77, 80
1, 72504, Note_on_c, 1, 53, 80
1, 72527, Note_on_c, 0, 77, 0
1, 72527, Note_on_c, 1, 53, 0
1, 72528, Note_on_c, 0, 75, 80
1, 72528, Note_on_c, 1, 51, 80
1, 72551, Note_on_c, 0, 75, 0
1, 72551, Note_on_c, 1, 51, 0
1, 72552, Note_on_c, 0, 74, 80
1, 72552, Note_on_c, 1, 50, 80
1, 72575, Note_on_c, 0, 74, 0
1, 72575, Note_on_c, 1, 50, 0
1, 72576, Note_on_c, 0, 72, 80
1, 72576, Note_on_c, 1, 48, 80
1, 72615, Note_on_c, 0, 72, 0
1, 72615, Note_on_c, 1, 48, 0
1, 72672, Note_on_c, 0, 75, 80
1, 72672, Note_on_c, 1, 51, 80
1, 72695, Note_on_c, 0, 75, 0
1, 72695, Note_on_c, 1, 51, 0
1, 72696, Note_on_c, 0, 74, 80
1, 72696, Note_on_c, 1, 50, 80
1, 72719, Note_on_c, 0, 74, 0
1, 72719, Note_on_c, 1, 50, 0
1, 72720, Note_on_c, 0, 72, 80
1, 72720, Note_on_c, 1, 48, 80
1, 72743, Note_on_c, 0, 72, 0
1, 72743, Note_on_c, 1, 48, 0
1, 72744, Note_on_c, 0, 70, 80
1, 72744, Note_on_c, 1, 46, 80
1, 72767, Note_on_c, 0, 70, 0
1, 72767, Note_on_c, 1, 46, 0
1, 72768, Note_on_c, 0, 68, 80
1, 72768, Note_on_c, 1, 44, 80
1, 72807, Note_on_c, 0, 68, 0
1, 72807, Note_on_c, 1, 44, 0
1, 72864, Note_on_c, 0, 72, 80
1, 72864, Note_on_c, 1, 48, 80
1, 72887, Note_on_c, 0, 72, 0
1, 72887, Note_on_c, 1, 48, 0
1, 72888, Note_on_c, 0, 70, 80
1, 72888, Note_on_c, 1, 46, 80
1, 72911, Note_on_c, 0, 70, 0
1, 72911, Note_on_c, 1, 46, 0
1, 72912, Note_on_c, 0, 68, 80
1, 72912, Note_on_c, 1, 44, 80
1, 72935, Note_on_c, 0, 68, 0
1, 72935, Note_on_c, 1, 44, 0
1, 72936, Note_on_c, 0, 67, 80
1, 72936, Note_on_c, 1, 43, 80
1, 72959, Note_on_c, 0, 67, 0
1, 72959, Note_on_c, 1, 43, 0
1, 72960, Note_on_c, 0, 66, 80
1, 72960, Note_on_c, 1, 42, 80
1, 72999, Note_on_c, 1, 42, 0
1, 73056, Note_on_c, 1, 50, 80
1, 73079, Note_on_c, 1, 50, 0
1, 73080, Note_on_c, 1, 48, 80
1, 73103, Note_on_c, 1, 48, 0
1, 73104, Note_on_c, 1, 46, 80
1, 73127, Note_on_c, 1, 46, 0
1, 73128, Note_on_c, 1, 45, 80
1, 73151, Note_on_c, 1, 45, 0
1, 73152, Note_on_c, 0, 66, 0
1, 73152, Note_on_c, 0, 67, 80
1, 73152, Note_on_c, 1, 46, 80
1, 73191, Note_on_c, 0, 67, 0
1, 73191, Note_on_c, 1, 46, 0
1, 73248, Note_on_c, 0, 70, 96
1, 73248, Note_on_c, 0, 67, 96
1, 73248, Note_on_c, 1, 55, 80
1, 73271, Note_on_c, 1, 55, 0
1, 73272, Note_on_c, 1, 53, 80
1, 73295, Note_on_c, 1, 53, 0
1, 73296, Note_on_c, 1, 51, 80
1, 73319, Note_on_c, 1, 51, 0
1, 73320, Note_on_c, 1, 50, 80
1, 73343, Note_on_c, 1, 50, 0
1, 73344, Note_on_c, 0, 70, 0
1, 73344, Note_on_c, 0, 72, 80
1, 73344, Note_on_c, 0, 63, 80
1, 73344, Note_on_c, 1, 48, 80
1, 73383, Note_on_c, 0, 72, 0
1, 73383, Note_on_c, 0, 67, 0
1, 73383, Note_on_c, 0, 63, 0
1, 73383, Note_on_c, 1, 48, 0
1, 73440, Note_on_c, 0, 72, 113
1, 73440, Note_on_c, 0, 67, 113
1, 73440, Note_on_c, 0, 63, 113
1, 73440, Note_on_c, 1, 48, 80
1, 73463, Note_on_c, 1, 48, 0
1, 73464, Note_on_c, 1, 46, 80
1, 73479, Note_on_c, 0, 72, 0
1, 73479, Note_on_c, 0, 67, 0
1, 73479, Note_on_c, 0, 63, 0
1, 73487, Note_on_c, 1, 46, 0
1, 73488, Note_on_c, 1, 44, 80
1, 73511, Note_on_c, 1, 44, 0
1, 73512, Note_on_c, 1, 43, 80
1, 73535, Note_on_c, 1, 43, 0
1, 73536, Note_on_c, 0, 73, 80
1, 73536, Note_on_c, 0, 69, 80
1, 73536, Note_on_c, 0, 67, 80
1, 73536, Note_on_c, 0, 64, 80
1, 73536, Note_on_c, 1, 41, 80
1, 73575, Note_on_c, 0, 73, 0
1, 73575, Note_on_c, 0, 69, 0
1, 73575, Note_on_c, 0, 67, 0
1, 73575, Note_on_c, 0, 64, 0
1, 73575, Note_on_c, 1, 41, 0
1, 73632, Note_on_c, 0, 73, 99
1, 73632, Note_on_c, 0, 69, 99
1, 73632, Note_on_c, 0, 67, 99
1, 73632, Note_on_c, 0, 64, 99
1, 73632, Note_on_c, 1, 44, 83
1, 73655, Note_on_c, 1, 44, 0
1, 73656, Note_on_c, 1, 43, 83
1, 73671, Note_on_c, 0, 73, 0
1, 73671, Note_on_c, 0, 69, 0
1, 73671, Note_on_c, 0, 67, 0
1, 73671, Note_on_c, 0, 64, 0
1, 73679, Note_on_c, 1, 43, 0
1, 73680, Note_on_c, 1, 41, 84
1, 73703, Note_on_c, 1, 41, 0
1, 73704, Note_on_c, 1, 40, 85
1, 73727, Note_on_c, 1, 40, 0
1, 73728, Note_on_c, 0, 74, 119
1, 73728, Note_on_c, 0, 69, 119
1, 73728, Note_on_c, 0, 66, 119
1, 73728, Note_on_c, 1, 38, 86
1, 73905, Note_on_c, 1, 38, 0
1, 73920, Note_on_c, 0, 74, 0
1, 73920, Note_on_c, 0, 69, 0
1, 73920, Note_on_c, 0, 66, 0
1, 74064, Note_on_c, 0, 70, 75
1, 74109, Note_on_c, 0, 70, 0
1, 74112, Note_on_c, 0, 65, 75
1, 74112, Note_on_c, 0, 62, 75
1, 74201, Note_on_c, 0, 65, 0
1, 74201, Note_on_c, 0, 62, 0
1, 74208, Note_on_c, 1, 46, 75
1, 74256, Note_on_c, 0, 70, 75
1, 74297, Note_on_c, 1, 46, 0
1, 74301, Note_on_c, 0, 70, 0
1, 74304, Note_on_c, 0, 67, 75
1, 74304, Note_on_c, 0, 63, 75
1, 74393, Note_on_c, 0, 67, 0
1, 74393, Note_on_c, 0, 63, 0
1, 74400, Note_on_c, 1, 46, 75
1, 74448, Note_on_c, 0, 70, 75
1, 74489, Note_on_c, 1, 46, 0
1, 74493, Note_on_c, 0, 70, 0
1, 74496, Note_on_c, 0, 65, 75
1, 74496, Note_on_c, 0, 62, 75
1, 74544, Note_on_c, 1, 46, 75
1, 74564, Note_on_c, 1, 46, 0
1, 74585, Note_on_c, 0, 65, 0
1, 74585, Note_on_c, 0, 62, 0
1, 74592, Note_on_c, 1, 50, 75
1, 74612, Note_on_c, 1, 50, 0
1, 74640, Note_on_c, 1, 53, 75
1, 74660, Note_on_c, 1, 53, 0
1, 74688, Note_on_c, 1, 58, 75
1, 74777, Note_on_c, 1, 58, 0
1, 74784, Note_on_c, 0, 79, 75
1, 74807, Note_on_c, 0, 79, 0
1, 74808, Note_on_c, 0, 77, 75
1, 74831, Note_on_c, 0, 77, 0
1, 74832, Note_on_c, 0, 75, 76
1, 74855, Note_on_c, 0, 75, 0
1, 74856, Note_on_c, 0, 74, 76
1, 74879, Note_on_c, 0, 74, 0
1, 74880, Note_on_c, 0, 72, 77
1, 74919, Note_on_c, 0, 72, 0
1, 74976, Note_on_c, 0, 81, 80
1, 74999, Note_on_c, 0, 81, 0
1, 75000, Note_on_c, 0, 79, 80
1, 75023, Note_on_c, 0, 79, 0
1, 75024, Note_on_c, 0, 77, 80
1, 75047, Note_on_c, 0, 77, 0
1, 75048, Note_on_c, 0, 75, 80
1, 75071, Note_on_c, 0, 75, 0
1, 75072, Note_on_c, 0, 74, 80
1, 75111, Note_on_c, 0, 74, 0
1, 75168, Note_on_c, 0, 77, 80
1, 75191, Note_on_c, 0, 77, 0
1, 75192, Note_on_c, 0, 75, 80
1, 75215, Note_on_c, 0, 75, 0
1, 75216, Note_on_c, 0, 74, 80
1, 75239, Note_on_c, 0, 74, 0
1, 75240, Note_on_c, 0, 72, 80
1, 75263, Note_on_c, 0, 72, 0
1, 75264, Note_on_c, 0, 70, 80
1, 75312, Note_on_c, 1, 41, 75
1, 75332, Note_on_c, 1, 41, 0
1, 75360, Note_on_c, 1, 45, 75
1, 75380, Note_on_c, 1, 45, 0
1, 75408, Note_on_c, 1, 48, 75
1, 75428, Note_on_c, 1, 48, 0
1, 75456, Note_on_c, 0, 70, 0
1, 75456, Note_on_c, 0, 69, 80
1, 75456, Note_on_c, 1, 53, 75
1, 75501, Note_on_c, 0, 69, 0
1, 75504, Note_on_c, 0, 82, 80
1, 75545, Note_on_c, 1, 53, 0
1, 75549, Note_on_c, 0, 82, 0
1, 75552, Note_on_c, 0, 81, 80
1, 75597, Note_on_c, 0, 81, 0
1, 75600, Note_on_c, 0, 82, 80
1, 75645, Note_on_c, 0, 82, 0
1, 75648, Note_on_c, 0, 77, 80
1, 75648, Note_on_c, 0, 74, 80
1, 75696, Note_on_c, 1, 46, 75
1, 75737, Note_on_c, 0, 77, 0
1, 75737, Note_on_c, 0, 74, 0
1, 75741, Note_on_c, 1, 46, 0
1, 75744, Note_on_c, 1, 58, 75
1, 75792, Note_on_c, 0, 82, 80
1, 75833, Note_on_c, 1, 58, 0
1, 75837, Note_on_c, 0, 82, 0
1, 75840, Note_on_c, 0, 79, 80
1, 75840, Note_on_c, 0, 75, 80
1, 75888, Note_on_c, 1, 46, 75
1, 75929, Note_on_c, 0, 79, 0
1, 75929, Note_on_c, 0, 75, 0
1, 75933, Note_on_c, 1, 46, 0
1, 75936, Note_on_c, 1, 58, 75
1, 75984, Note_on_c, 0, 82, 80
1, 76025, Note_on_c, 1, 58, 0
1, 76029, Note_on_c, 0, 82, 0
1, 76032, Note_on_c, 0, 77, 80
1, 76032, Note_on_c, 0, 74, 80
1, 76080, Note_on_c, 1, 58, 75
1, 76100, Note_on_c, 1, 58, 0
1, 76121, Note_on_c, 0, 77, 0
1, 76121, Note_on_c, 0, 74, 0
1, 76128, Note_on_c, 1, 62, 75
1, 76148, Note_on_c, 1, 62, 0
1, 76176, Note_on_c, 1, 65, 75
1, 76196, Note_on_c, 1, 65, 0
1, 76224, Note_on_c, 1, 70, 75
1, 76313, Note_on_c, 1, 70, 0
1, 76320, Note_on_c, 0, 79, 80
1, 76332, Note_on_c, 0, 79, 0
1, 76332, Note_on_c, 0, 81, 80
1, 76344, Note_on_c, 0, 81, 0
1, 76344, Note_on_c, 0, 82, 96
1, 76416, Note_on_c, 0, 82, 0
1, 76416, Note_on_c, 0, 72, 75
1, 76416, Note_on_c, 1, 51, 75
1, 76416, Note_on_c, 1, 39, 75
1, 76464, Note_on_c, 0, 72, 0
1, 76464, Note_on_c, 0, 75, 77
1, 76509, Note_on_c, 0, 75, 0
1, 76512, Note_on_c, 0, 79, 80
1, 76593, Note_on_c, 1, 51, 0
1, 76593, Note_on_c, 1, 39, 0
1, 76608, Note_on_c, 1, 53, 75
1, 76608, Note_on_c, 1, 41, 75
1, 76689, Note_on_c, 0, 79, 0
1, 76704, Note_on_c, 0, 69, 76
1, 76704, Note_on_c, 0, 63, 76
1, 76785, Note_on_c, 1, 53, 0
1, 76785, Note_on_c, 1, 41, 0
1, 76793, Note_on_c, 0, 69, 0
1, 76793, Note_on_c, 0, 63, 0
1, 76800, Note_on_c, 0, 70, 75
1, 76800, Note_on_c, 0, 62, 75
1, 76800, Note_on_c, 1, 46, 75
1, 76845, Note_on_c, 1, 46, 0
1, 76848, Note_on_c, 1, 58, 75
1, 76889, Note_on_c, 0, 70, 0
1, 76889, Note_on_c, 0, 62, 0
1, 76893, Note_on_c, 1, 58, 0
1, 76896, Note_on_c, 1, 46, 75
1, 76941, Note_on_c, 1, 46, 0
1, 76944, Note_on_c, 1, 58, 75
1, 76989, Note_on_c, 1, 58, 0
1, 76992, Note_on_c, 1, 46, 75
1, 77037, Note_on_c, 1, 46, 0
1, 77040, Note_on_c, 1, 58, 75
1, 77085, Note_on_c, 1, 58, 0
1, 77088, Note_on_c, 0, 70, 75
1, 77088, Note_on_c, 0, 62, 75
1, 77088, Note_on_c, 1, 46, 75
1, 77127, Note_on_c, 0, 70, 0
1, 77127, Note_on_c, 0, 62, 0
1, 77133, Note_on_c, 1, 46, 0
1, 77136, Note_on_c, 1, 58, 75
1, 77181, Note_on_c, 1, 58, 0
1, 77184, Note_on_c, 0, 72, 91
1, 77184, Note_on_c, 0, 63, 91
1, 77184, Note_on_c, 1, 46, 75
1, 77229, Note_on_c, 1, 46, 0
1, 77232, Note_on_c, 1, 58, 75
1, 77277, Note_on_c, 1, 58, 0
1, 77280, Note_on_c, 0, 72, 0
1, 77280, Note_on_c, 0, 63, 0
1, 77280, Note_on_c, 0, 70, 76
1, 77280, Note_on_c, 0, 62, 76
1, 77280, Note_on_c, 1, 46, 75
1, 77319, Note_on_c, 0, 70, 0
1, 77319, Note_on_c, 0, 62, 0
1, 77325, Note_on_c, 1, 46, 0
1, 77328, Note_on_c, 1, 58, 75
1, 77373, Note_on_c, 1, 58, 0
1, 77376, Note_on_c, 0, 74, 77
1, 77376, Note_on_c, 0, 65, 77
1, 77376, Note_on_c, 1, 46, 75
1, 77421, Note_on_c, 1, 46, 0
1, 77424, Note_on_c, 1, 58, 75
1, 77469, Note_on_c, 1, 58, 0
1, 77472, Note_on_c, 0, 74, 0
1, 77472, Note_on_c, 0, 65, 0
1, 77472, Note_on_c, 0, 72, 78
1, 77472, Note_on_c, 0, 63, 78
1, 77472, Note_on_c, 1, 46, 75
1, 77511, Note_on_c, 0, 72, 0
1, 77511, Note_on_c, 0, 63, 0
1, 77517, Note_on_c, 1, 46, 0
1, 77520, Note_on_c, 1, 58, 75
1, 77565, Note_on_c, 1, 58, 0
1, 77568, Note_on_c, 0, 75, 96
1, 77568, Note_on_c, 0, 67, 96
1, 77568, Note_on_c, 1, 46, 75
1, 77613, Note_on_c, 1, 46, 0
1, 77616, Note_on_c, 1, 58, 75
1, 77661, Note_on_c, 1, 58, 0
1, 77664, Note_on_c, 1, 46, 75
1, 77709, Note_on_c, 1, 46, 0
1, 77712, Note_on_c, 0, 75, 0
1, 77712, Note_on_c, 0, 67, 0
1, 77712, Note_on_c, 0, 74, 77
1, 77712, Note_on_c, 0, 65, 77
1, 77712, Note_on_c, 1, 58, 75
1, 77757, Note_on_c, 0, 74, 0
1, 77757, Note_on_c, 0, 65, 0
1, 77757, Note_on_c, 1, 58, 0
1, 77760, Note_on_c, 0, 72, 76
1, 77760, Note_on_c, 0, 63, 76
1, 77760, Note_on_c, 1, 46, 75
1, 77799, Note_on_c, 0, 72, 0
1, 77799, Note_on_c, 0, 63, 0
1, 77805, Note_on_c, 1, 46, 0
1, 77808, Note_on_c, 1, 58, 75
1, 77853, Note_on_c, 1, 58, 0
1, 77856, Note_on_c, 0, 74, 75
1, 77856, Note_on_c, 0, 70, 75
1, 77856, Note_on_c, 1, 46, 75
1, 77895, Note_on_c, 0, 74, 0
1, 77895, Note_on_c, 0, 70, 0
1, 77901, Note_on_c, 1, 46, 0
1, 77904, Note_on_c, 1, 58, 75
1, 77949, Note_on_c, 1, 58, 0
1, 77952, Note_on_c, 0, 75, 91
1, 77952, Note_on_c, 0, 72, 91
1, 77952, Note_on_c, 1, 46, 75
1, 77997, Note_on_c, 1, 46, 0
1, 78000, Note_on_c, 1, 58, 75
1, 78045, Note_on_c, 1, 58, 0
1, 78048, Note_on_c, 0, 75, 0
1, 78048, Note_on_c, 0, 72, 0
1, 78048, Note_on_c, 0, 74, 76
1, 78048, Note_on_c, 0, 70, 76
1, 78048, Note_on_c, 1, 46, 75
1, 78087, Note_on_c, 0, 74, 0
1, 78087, Note_on_c, 0, 70, 0
1, 78093, Note_on_c, 1, 46, 0
1, 78096, Note_on_c, 1, 58, 75
1, 78141, Note_on_c, 1, 58, 0
1, 78144, Note_on_c, 0, 77, 77
1, 78144, Note_on_c, 0, 74, 77
1, 78144, Note_on_c, 1, 46, 75
1, 78189, Note_on_c, 1, 46, 0
1, 78192, Note_on_c, 1, 58, 75
1, 78237, Note_on_c, 1, 58, 0
1, 78240, Note_on_c, 0, 77, 0
1, 78240, Note_on_c, 0, 74, 0
1, 78240, Note_on_c, 0, 75, 78
1, 78240, Note_on_c, 0, 72, 78
1, 78240, Note_on_c, 1, 46, 75
1, 78279, Note_on_c, 0, 75, 0
1, 78279, Note_on_c, 0, 72, 0
1, 78285, Note_on_c, 1, 46, 0
1, 78288, Note_on_c, 1, 58, 75
1, 78333, Note_on_c, 1, 58, 0
1, 78336, Note_on_c, 0, 79, 96
1, 78336, Note_on_c, 0, 75, 96
1, 78336, Note_on_c, 1, 46, 75
1, 78381, Note_on_c, 1, 46, 0
1, 78384, Note_on_c, 1, 58, 75
1, 78429, Note_on_c, 1, 58, 0
1, 78432, Note_on_c, 1, 46, 75
1, 78477, Note_on_c, 1, 46, 0
1, 78480, Note_on_c, 0, 79, 0
1, 78480, Note_on_c, 0, 75, 0
1, 78480, Note_on_c, 0, 77, 77
1, 78480, Note_on_c, 0, 74, 77
1, 78480, Note_on_c, 1, 58, 75
1, 78525, Note_on_c, 0, 77, 0
1, 78525, Note_on_c, 0, 74, 0
1, 78525, Note_on_c, 1, 58, 0
1, 78528, Note_on_c, 0, 75, 76
1, 78528, Note_on_c, 0, 72, 76
1, 78528, Note_on_c, 1, 46, 75
1, 78567, Note_on_c, 0, 75, 0
1, 78567, Note_on_c, 0, 72, 0
1, 78573, Note_on_c, 1, 46, 0
1, 78576, Note_on_c, 1, 58, 75
1, 78621, Note_on_c, 1, 58, 0
1, 78624, Note_on_c, 0, 77, 75
1, 78624, Note_on_c, 0, 74, 75
1, 78624, Note_on_c, 1, 46, 75
1, 78663, Note_on_c, 0, 77, 0
1, 78663, Note_on_c, 0, 74, 0
1, 78669, Note_on_c, 1, 46, 0
1, 78672, Note_on_c, 1, 58, 75
1, 78717, Note_on_c, 1, 58, 0
1, 78720, Note_on_c, 0, 79, 91
1, 78720, Note_on_c, 0, 75, 91
1, 78720, Note_on_c, 1, 46, 75
1, 78765, Note_on_c, 1, 46, 0
1, 78768, Note_on_c, 1, 58, 75
1, 78813, Note_on_c, 1, 58, 0
1, 78816, Note_on_c, 0, 79, 0
1, 78816, Note_on_c, 0, 75, 0
1, 78816, Note_on_c, 0, 77, 76
1, 78816, Note_on_c, 0, 74, 76
1, 78816, Note_on_c, 1, 46, 76
1, 78855, Note_on_c, 0, 77, 0
1, 78855, Note_on_c, 0, 74, 0
1, 78861, Note_on_c, 1, 46, 0
1, 78864, Note_on_c, 1, 58, 76
1, 78909, Note_on_c, 1, 58, 0
1, 78912, Note_on_c, 0, 80, 77
1, 78912, Note_on_c, 0, 77, 77
1, 78912, Note_on_c, 1, 46, 77
1, 78957, Note_on_c, 1, 46, 0
1, 78960, Note_on_c, 1, 58, 78
1, 79005, Note_on_c, 1, 58, 0
1, 79008, Note_on_c, 0, 80, 0
1, 79008, Note_on_c, 0, 77, 0
1, 79008, Note_on_c, 0, 79, 78
1, 79008, Note_on_c, 0, 75, 78
1, 79008, Note_on_c, 1, 46, 78
1, 79047, Note_on_c, 0, 79, 0
1, 79047, Note_on_c, 0, 75, 0
1, 79053, Note_on_c, 1, 46, 0
1, 79056, Note_on_c, 1, 58, 79
1, 79101, Note_on_c, 1, 58, 0
1, 79104, Note_on_c, 0, 81, 96
1, 79104, Note_on_c, 0, 75, 96
1, 79104, Note_on_c, 0, 72, 96
1, 79104, Note_on_c, 1, 46, 80
1, 79149, Note_on_c, 1, 46, 0
1, 79152, Note_on_c, 1, 58, 80
1, 79197, Note_on_c, 1, 58, 0
1, 79200, Note_on_c, 1, 46, 80
1, 79245, Note_on_c, 1, 46, 0
1, 79248, Note_on_c, 0, 81, 0
1, 79248, Note_on_c, 0, 75, 0
1, 79248, Note_on_c, 0, 72, 0
1, 79248, Note_on_c, 0, 82, 80
1, 79248, Note_on_c, 0, 77, 80
1, 79248, Note_on_c, 0, 74, 80
1, 79248, Note_on_c, 1, 58, 80
1, 79293, Note_on_c, 0, 82, 0
1, 79293, Note_on_c, 0, 77, 0
1, 79293, Note_on_c, 0, 74, 0
1, 79293, Note_on_c, 1, 58, 0
1, 79296, Note_on_c, 0, 82, 80
1, 79296, Note_on_c, 0, 77, 80
1, 79296, Note_on_c, 0, 74, 80
1, 79296, Note_on_c, 1, 46, 80
1, 79335, Note_on_c, 0, 82, 0
1, 79335, Note_on_c, 0, 77, 0
1, 79335, Note_on_c, 0, 74, 0
1, 79341, Note_on_c, 1, 46, 0
1, 79344, Note_on_c, 1, 58, 80
1, 79389, Note_on_c, 1, 58, 0
1, 79392, Note_on_c, 0, 70, 80
1, 79392, Note_on_c, 0, 65, 80
1, 79392, Note_on_c, 0, 62, 80
1, 79392, Note_on_c, 1, 46, 80
1, 79431, Note_on_c, 0, 70, 0
1, 79431, Note_on_c, 0, 65, 0
1, 79431, Note_on_c, 0, 62, 0
1, 79437, Note_on_c, 1, 46, 0
1, 79440, Note_on_c, 1, 58, 80
1, 79485, Note_on_c, 1, 58, 0
1, 79488, Note_on_c, 0, 69, 96
1, 79488, Note_on_c, 0, 63, 96
1, 79488, Note_on_c, 0, 60, 96
1, 79488, Note_on_c, 1, 46, 80
1, 79533, Note_on_c, 1, 46, 0
1, 79536, Note_on_c, 1, 58, 80
1, 79581, Note_on_c, 1, 58, 0
1, 79584, Note_on_c, 1, 46, 80
1, 79629, Note_on_c, 1, 46, 0
1, 79632, Note_on_c, 0, 69, 0
1, 79632, Note_on_c, 0, 63, 0
1, 79632, Note_on_c, 0, 60, 0
1, 79632, Note_on_c, 0, 70, 80
1, 79632, Note_on_c, 0, 65, 80
1, 79632, Note_on_c, 0, 62, 80
1, 79632, Note_on_c, 1, 58, 80
1, 79677, Note_on_c, 0, 70, 0
1, 79677, Note_on_c, 0, 65, 0
1, 79677, Note_on_c, 0, 62, 0
1, 79677, Note_on_c, 1, 58, 0
1, 79680, Note_on_c, 0, 70, 80
1, 79680, Note_on_c, 0, 65, 80
1, 79680, Note_on_c, 0, 62, 80
1, 79680, Note_on_c, 1, 46, 80
1, 79719, Note_on_c, 0, 70, 0
1, 79719, Note_on_c, 0, 65, 0
1, 79719, Note_on_c, 0, 62, 0
1, 79725, Note_on_c, 1, 46, 0
1, 79728, Note_on_c, 1, 58, 80
1, 79773, Note_on_c, 1, 58, 0
1, 79776, Note_on_c, 0, 65, 80
1, 79776, Note_on_c, 0, 62, 80
1, 79776, Note_on_c, 1, 46, 80
1, 79815, Note_on_c, 0, 65, 0
1, 79815, Note_on_c, 0, 62, 0
1, 79821, Note_on_c, 1, 46, 0
1, 79824, Note_on_c, 1, 58, 80
1, 79869, Note_on_c, 1, 58, 0
1, 79872, Note_on_c, 0, 68, 96
1, 79872, Note_on_c, 0, 65, 96
1, 79872, Note_on_c, 0, 62, 96
1, 79872, Note_on_c, 1, 47, 80
1, 79917, Note_on_c, 1, 47, 0
1, 79920, Note_on_c, 1, 59, 80
1, 79965, Note_on_c, 1, 59, 0
1, 79968, Note_on_c, 1, 47, 80
1, 80013, Note_on_c, 1, 47, 0
1, 80016, Note_on_c, 0, 68, 0
1, 80016, Note_on_c, 0, 65, 0
1, 80016, Note_on_c, 0, 62, 0
1, 80016, Note_on_c, 0, 67, 80
1, 80016, Note_on_c, 0, 63, 80
1, 80016, Note_on_c, 1, 59, 80
1, 80061, Note_on_c, 0, 67, 0
1, 80061, Note_on_c, 0, 63, 0
1, 80061, Note_on_c, 1, 59, 0
1, 80064, Note_on_c, 0, 67, 96
1, 80064, Note_on_c, 0, 63, 96
1, 80064, Note_on_c, 1, 48, 80
1, 80103, Note_on_c, 0, 67, 0
1, 80103, Note_on_c, 0, 63, 0
1, 80109, Note_on_c, 1, 48, 0
1, 80112, Note_on_c, 1, 60, 80
1, 80157, Note_on_c, 1, 60, 0
1, 80160, Note_on_c, 0, 72, 80
1, 80160, Note_on_c, 0, 67, 80
1, 80160, Note_on_c, 0, 63, 80
1, 80160, Note_on_c, 1, 48, 81
1, 80199, Note_on_c, 0, 72, 0
1, 80199, Note_on_c, 0, 67, 0
1, 80199, Note_on_c, 0, 63, 0
1, 80205, Note_on_c, 1, 48, 0
1, 80208, Note_on_c, 1, 60, 81
1, 80253, Note_on_c, 1, 60, 0
1, 80256, Note_on_c, 0, 71, 97
1, 80256, Note_on_c, 0, 67, 97
1, 80256, Note_on_c, 0, 65, 97
1, 80256, Note_on_c, 1, 48, 81
1, 80301, Note_on_c, 1, 48, 0
1, 80304, Note_on_c, 1, 60, 81
1, 80349, Note_on_c, 1, 60, 0
1, 80352, Note_on_c, 1, 48, 81
1, 80397, Note_on_c, 1, 48, 0
1, 80400, Note_on_c, 0, 71, 0
1, 80400, Note_on_c, 0, 67, 0
1, 80400, Note_on_c, 0, 65, 0
1, 80400, Note_on_c, 0, 72, 81
1, 80400, Note_on_c, 0, 67, 81
1, 80400, Note_on_c, 0, 63, 81
1, 80400, Note_on_c, 1, 60, 82
1, 80445, Note_on_c, 0, 72, 0
1, 80445, Note_on_c, 0, 67, 0
1, 80445, Note_on_c, 0, 63, 0
1, 80445, Note_on_c, 1, 60, 0
1, 80448, Note_on_c, 0, 72, 82
1, 80448, Note_on_c, 0, 67, 82
1, 80448, Note_on_c, 0, 63, 82
1, 80448, Note_on_c, 1, 48, 82
1, 80487, Note_on_c, 0, 72, 0
1, 80487, Note_on_c, 0, 67, 0
1, 80487, Note_on_c, 0, 63, 0
1, 80493, Note_on_c, 1, 48, 0
1, 80496, Note_on_c, 1, 60, 82
1, 80541, Note_on_c, 1, 60, 0
1, 80544, Note_on_c, 0, 67, 82
1, 80544, Note_on_c, 0, 63, 82
1, 80544, Note_on_c, 1, 48, 82
1, 80583, Note_on_c, 0, 67, 0
1, 80583, Note_on_c, 0, 63, 0
1, 80589, Note_on_c, 1, 48, 0
1, 80592, Note_on_c, 1, 60, 83
1, 80637, Note_on_c, 1, 60, 0
1, 80640, Note_on_c, 0, 70, 98
1, 80640, Note_on_c, 0, 67, 98
1, 80640, Note_on_c, 0, 64, 98
1, 80640, Note_on_c, 1, 49, 83
1, 80685, Note_on_c, 1, 49, 0
1, 80688, Note_on_c, 1, 61, 83
1, 80733, Note_on_c, 1, 61, 0
1, 80736, Note_on_c, 1, 49, 83
1, 80781, Note_on_c, 1, 49, 0
1, 80784, Note_on_c, 0, 70, 0
1, 80784, Note_on_c, 0, 67, 0
1, 80784, Note_on_c, 0, 64, 0
1, 80784, Note_on_c, 0, 69, 83
1, 80784, Note_on_c, 0, 65, 83
1, 80784, Note_on_c, 1, 61, 83
1, 80829, Note_on_c, 0, 69, 0
1, 80829, Note_on_c, 0, 65, 0
1, 80829, Note_on_c, 1, 61, 0
1, 80832, Note_on_c, 0, 69, 99
1, 80832, Note_on_c, 0, 65, 99
1, 80832, Note_on_c, 1, 50, 84
1, 80871, Note_on_c, 0, 69, 0
1, 80871, Note_on_c, 0, 65, 0
1, 80877, Note_on_c, 1, 50, 0
1, 80880, Note_on_c, 1, 62, 84
1, 80925, Note_on_c, 1, 62, 0
1, 80928, Note_on_c, 0, 74, 84
1, 80928, Note_on_c, 0, 69, 84
1, 80928, Note_on_c, 0, 65, 84
1, 80928, Note_on_c, 1, 50, 84
1, 80967, Note_on_c, 0, 74, 0
1, 80967, Note_on_c, 0, 69, 0
1, 80967, Note_on_c, 0, 65, 0
1, 80973, Note_on_c, 1, 50, 0
1, 80976, Note_on_c, 1, 62, 84
1, 81021, Note_on_c, 1, 62, 0
1, 81024, Note_on_c, 0, 73, 100
1, 81024, Note_on_c, 0, 69, 100
1, 81024, Note_on_c, 0, 67, 100
1, 81024, Note_on_c, 1, 50, 84
1, 81069, Note_on_c, 1, 50, 0
1, 81072, Note_on_c, 1, 62, 85
1, 81117, Note_on_c, 1, 62, 0
1, 81120, Note_on_c, 1, 50, 85
1, 81165, Note_on_c, 1, 50, 0
1, 81168, Note_on_c, 0, 73, 0
1, 81168, Note_on_c, 0, 69, 0
1, 81168, Note_on_c, 0, 67, 0
1, 81168, Note_on_c, 0, 74, 85
1, 81168, Note_on_c, 0, 69, 85
1, 81168, Note_on_c, 0, 65, 85
1, 81168, Note_on_c, 1, 62, 85
1, 81213, Note_on_c, 0, 74, 0
1, 81213, Note_on_c, 0, 69, 0
1, 81213, Note_on_c, 0, 65, 0
1, 81213, Note_on_c, 1, 62, 0
1, 81216, Note_on_c, 0, 74, 85
1, 81216, Note_on_c, 0, 69, 85
1, 81216, Note_on_c, 0, 65, 85
1, 81216, Note_on_c, 1, 50, 85
1, 81255, Note_on_c, 0, 74, 0
1, 81255, Note_on_c, 0, 69, 0
1, 81255, Note_on_c, 0, 65, 0
1, 81261, Note_on_c, 1, 50, 0
1, 81264, Note_on_c, 1, 62, 86
1, 81309, Note_on_c, 1, 62, 0
1, 81312, Note_on_c, 0, 86, 86
1, 81312, Note_on_c, 1, 62, 86
1, 81335, Note_on_c, 0, 86, 0
1, 81335, Note_on_c, 1, 62, 0
1, 81336, Note_on_c, 0, 84, 86
1, 81336, Note_on_c, 1, 60, 86
1, 81359, Note_on_c, 0, 84, 0
1, 81359, Note_on_c, 1, 60, 0
1, 81360, Note_on_c, 0, 82, 86
1, 81360, Note_on_c, 1, 58, 86
1, 81383, Note_on_c, 0, 82, 0
1, 81383, Note_on_c, 1, 58, 0
1, 81384, Note_on_c, 0, 81, 86
1, 81384, Note_on_c, 1, 57, 86
1, 81407, Note_on_c, 0, 81, 0
1, 81407, Note_on_c, 1, 57, 0
1, 81408, Note_on_c, 0, 79, 86
1, 81408, Note_on_c, 1, 55, 86
1, 81447, Note_on_c, 0, 79, 0
1, 81447, Note_on_c, 1, 55, 0
1, 81504, Note_on_c, 0, 82, 86
1, 81504, Note_on_c, 1, 58, 86
1, 81527, Note_on_c, 0, 82, 0
1, 81527, Note_on_c, 1, 58, 0
1, 81528, Note_on_c, 0, 81, 86
1, 81528, Note_on_c, 1, 57, 86
1, 81551, Note_on_c, 0, 81, 0
1, 81551, Note_on_c, 1, 57, 0
1, 81552, Note_on_c, 0, 79, 86
1, 81552, Note_on_c, 1, 55, 86
1, 81575, Note_on_c, 0, 79, 0
1, 81575, Note_on_c, 1, 55, 0
1, 81576, Note_on_c, 0, 77, 86
1, 81576, Note_on_c, 1, 53, 86
1, 81599, Note_on_c, 0, 77, 0
1, 81599, Note_on_c, 1, 53, 0
1, 81600, Note_on_c, 0, 75, 86
1, 81600, Note_on_c, 1, 51, 86
1, 81639, Note_on_c, 0, 75, 0
1, 81639, Note_on_c, 1, 51, 0
1, 81696, Note_on_c, 0, 79, 86
1, 81696, Note_on_c, 1, 55, 86
1, 81719, Note_on_c, 0, 79, 0
1, 81719, Note_on_c, 1, 55, 0
1, 81720, Note_on_c, 0, 77, 86
1, 81720, Note_on_c, 1, 53, 86
1, 81743, Note_on_c, 0, 77, 0
1, 81743, Note_on_c, 1, 53, 0
1, 81744, Note_on_c, 0, 75, 86
1, 81744, Note_on_c, 1, 51, 86
1, 81767, Note_on_c, 0, 75, 0
1, 81767, Note_on_c, 1, 51, 0
1, 81768, Note_on_c, 0, 74, 86
1, 81768, Note_on_c, 1, 50, 86
1, 81791, Note_on_c, 0, 74, 0
1, 81791, Note_on_c, 1, 50, 0
1, 81792, Note_on_c, 0, 73, 86
1, 81792, Note_on_c, 1, 49, 86
1, 81831, Note_on_c, 1, 49, 0
1, 81888, Note_on_c, 1, 57, 86
1, 81911, Note_on_c, 1, 57, 0
1, 81912, Note_on_c, 1, 55, 86
1, 81935, Note_on_c, 1, 55, 0
1, 81936, Note_on_c, 1, 53, 86
1, 81959, Note_on_c, 1, 53, 0
1, 81960, Note_on_c, 1, 52, 86
1, 81983, Note_on_c, 1, 52, 0
1, 81984, Note_on_c, 0, 73, 0
1, 81984, Note_on_c, 0, 74, 86
1, 81984, Note_on_c, 1, 53, 86
1, 82023, Note_on_c, 0, 74, 0
1, 82023, Note_on_c, 1, 53, 0
1, 82080, Note_on_c, 0, 72, 86
1, 82080, Note_on_c, 0, 69, 86
1, 82080, Note_on_c, 1, 62, 86
1, 82103, Note_on_c, 1, 62, 0
1, 82104, Note_on_c, 1, 60, 86
1, 82127, Note_on_c, 1, 60, 0
1, 82128, Note_on_c, 1, 58, 86
1, 82151, Note_on_c, 1, 58, 0
1, 82152, Note_on_c, 1, 57, 86
1, 82175, Note_on_c, 1, 57, 0
1, 82176, Note_on_c, 0, 72, 0
1, 82176, Note_on_c, 0, 69, 0
1, 82176, Note_on_c, 0, 74, 86
1, 82176, Note_on_c, 0, 70, 86
1, 82176, Note_on_c, 0, 67, 86
1, 82176, Note_on_c, 1, 58, 86
1, 82215, Note_on_c, 0, 74, 0
1, 82215, Note_on_c, 0, 70, 0
1, 82215, Note_on_c, 0, 67, 0
1, 82215, Note_on_c, 1, 58, 0
1, 82272, Note_on_c, 0, 74, 86
1, 82272, Note_on_c, 0, 70, 86
1, 82272, Note_on_c, 0, 67, 86
1, 82272, Note_on_c, 1, 55, 86
1, 82295, Note_on_c, 1, 55, 0
1, 82296, Note_on_c, 1, 53, 86
1, 82311, Note_on_c, 0, 74, 0
1, 82311, Note_on_c, 0, 70, 0
1, 82311, Note_on_c, 0, 67, 0
1, 82319, Note_on_c, 1, 53, 0
1, 82320, Note_on_c, 1, 51, 86
1, 82343, Note_on_c, 1, 51, 0
1, 82344, Note_on_c, 1, 50, 86
1, 82367, Note_on_c, 1, 50, 0
1, 82368, Note_on_c, 0, 75, 86
1, 82368, Note_on_c, 0, 69, 86
1, 82368, Note_on_c, 1, 48, 86
1, 82407, Note_on_c, 0, 75, 0
1, 82407, Note_on_c, 0, 69, 0
1, 82407, Note_on_c, 1, 48, 0
1, 82464, Note_on_c, 0, 66, 86
1, 82464, Note_on_c, 0, 62, 86
1, 82464, Note_on_c, 0, 57, 86
1, 82464, Note_on_c, 1, 50, 86
1, 82487, Note_on_c, 1, 50, 0
1, 82488, Note_on_c, 1, 48, 86
1, 82503, Note_on_c, 0, 66, 0
1, 82503, Note_on_c, 0, 62, 0
1, 82503, Note_on_c, 0, 57, 0
1, 82511, Note_on_c, 1, 48, 0
1, 82512, Note_on_c, 1, 46, 86
1, 82535, Note_on_c, 1, 46, 0
1, 82536, Note_on_c, 1, 45, 86
1, 82559, Note_on_c, 1, 45, 0
1, 82560, Note_on_c, 0, 67, 86
1, 82560, Note_on_c, 0, 62, 86
1, 82560, Note_on_c, 0, 58, 86
1, 82560, Note_on_c, 1, 43, 86
1, 82737, Note_on_c, 0, 67, 0
1, 82737, Note_on_c, 0, 62, 0
1, 82737, Note_on_c, 0, 58, 0
1, 82737, Note_on_c, 1, 43, 0
1, 82848, Note_on_c, 0, 84, 80
1, 82860, Note_on_c, 0, 84, 0
1, 82860, Note_on_c, 0, 82, 80
1, 82872, Note_on_c, 0, 82, 0
1, 82872, Note_on_c, 0, 81, 80
1, 82884, Note_on_c, 0, 81, 0
1, 82884, Note_on_c, 0, 82, 96
1, 82974, Note_on_c, 0, 82, 0
1, 82976, Note_on_c, 0, 86, 80
1, 83006, Note_on_c, 0, 86, 0
1, 83008, Note_on_c, 0, 84, 80
1, 83038, Note_on_c, 0, 84, 0
1, 83040, Note_on_c, 0, 82, 80
1, 83070, Note_on_c, 0, 82, 0
1, 83072, Note_on_c, 0, 84, 80
1, 83102, Note_on_c, 0, 84, 0
1, 83104, Note_on_c, 0, 86, 80
1, 83134, Note_on_c, 0, 86, 0
1, 83136, Note_on_c, 0, 79, 80
1, 83166, Note_on_c, 0, 79, 0
1, 83168, Note_on_c, 0, 82, 80
1, 83198, Note_on_c, 0, 82, 0
1, 83200, Note_on_c, 0, 81, 80
1, 83230, Note_on_c, 0, 81, 0
1, 83232, Note_on_c, 0, 79, 80
1, 83262, Note_on_c, 0, 79, 0
1, 83264, Note_on_c, 0, 81, 80
1, 83294, Note_on_c, 0, 81, 0
1, 83296, Note_on_c, 0, 82, 80
1, 83326, Note_on_c, 0, 82, 0
1, 83328, Note_on_c, 0, 75, 70
1, 83328, Note_on_c, 1, 51, 80
1, 83358, Note_on_c, 0, 75, 0
1, 83358, Note_on_c, 1, 51, 0
1, 83360, Note_on_c, 0, 79, 70
1, 83360, Note_on_c, 1, 55, 80
1, 83390, Note_on_c, 0, 79, 0
1, 83390, Note_on_c, 1, 55, 0
1, 83392, Note_on_c, 0, 77, 70
1, 83392, Note_on_c, 1, 53, 80
1, 83422, Note_on_c, 0, 77, 0
1, 83422, Note_on_c, 1, 53, 0
1, 83424, Note_on_c, 0, 75, 71
1, 83424, Note_on_c, 1, 51, 81
1, 83454, Note_on_c, 0, 75, 0
1, 83454, Note_on_c, 1, 51, 0
1, 83456, Note_on_c, 0, 77, 71
1, 83456, Note_on_c, 1, 53, 81
1, 83486, Note_on_c, 0, 77, 0
1, 83486, Note_on_c, 1, 53, 0
1, 83488, Note_on_c, 0, 79, 71
1, 83488, Note_on_c, 1, 55, 82
1, 83518, Note_on_c, 0, 79, 0
1, 83518, Note_on_c, 1, 55, 0
1, 83520, Note_on_c, 0, 72, 72
1, 83520, Note_on_c, 1, 48, 82
1, 83550, Note_on_c, 0, 72, 0
1, 83550, Note_on_c, 1, 48, 0
1, 83552, Note_on_c, 0, 75, 72
1, 83552, Note_on_c, 1, 51, 83
1, 83582, Note_on_c, 0, 75, 0
1, 83582, Note_on_c, 1, 51, 0
1, 83584, Note_on_c, 0, 74, 73
1, 83584, Note_on_c, 1, 50, 83
1, 83614, Note_on_c, 0, 74, 0
1, 83614, Note_on_c, 1, 50, 0
1, 83616, Note_on_c, 0, 72, 73
1, 83616, Note_on_c, 1, 48, 84
1, 83646, Note_on_c, 0, 72, 0
1, 83646, Note_on_c, 1, 48, 0
1, 83648, Note_on_c, 0, 74, 73
1, 83648, Note_on_c, 1, 50, 84
1, 83678, Note_on_c, 0, 74, 0
1, 83678, Note_on_c, 1, 50, 0
1, 83680, Note_on_c, 0, 75, 74
1, 83680, Note_on_c, 1, 51, 85
1, 83710, Note_on_c, 0, 75, 0
1, 83710, Note_on_c, 1, 51, 0
1, 83712, Note_on_c, 1, 65, 96
1, 83712, Note_on_c, 1, 53, 96
1, 83736, Note_on_c, 0, 57, 75
1, 83751, Note_on_c, 1, 65, 0
1, 83751, Note_on_c, 1, 53, 0
1, 83759, Note_on_c, 0, 57, 0
1, 83760, Note_on_c, 0, 60, 75
1, 83783, Note_on_c, 0, 60, 0
1, 83784, Note_on_c, 0, 57, 75
1, 83807, Note_on_c, 0, 57, 0
1, 83808, Note_on_c, 1, 63, 96
1, 83808, Note_on_c, 1, 51, 96
1, 83832, Note_on_c, 0, 60, 75
1, 83847, Note_on_c, 1, 63, 0
1, 83847, Note_on_c, 1, 51, 0
1, 83855, Note_on_c, 0, 60, 0
1, 83856, Note_on_c, 0, 65, 75
1, 83879, Note_on_c, 0, 65, 0
1, 83880, Note_on_c, 0, 60, 75
1, 83903, Note_on_c, 0, 60, 0
1, 83904, Note_on_c, 1, 60, 96
1, 83904, Note_on_c, 1, 48, 96
1, 83928, Note_on_c, 0, 65, 75
1, 83943, Note_on_c, 1, 60, 0
1, 83943, Note_on_c, 1, 48, 0
1, 83951, Note_on_c, 0, 65, 0
1, 83952, Note_on_c, 0, 69, 75
1, 83975, Note_on_c, 0, 69, 0
1, 83976, Note_on_c, 0, 65, 75
1, 83999, Note_on_c, 0, 65, 0
1, 84000, Note_on_c, 1, 57, 96
1, 84000, Note_on_c, 1, 45, 96
1, 84024, Note_on_c, 0, 69, 75
1, 84039, Note_on_c, 1, 57, 0
1, 84039, Note_on_c, 1, 45, 0
1, 84047, Note_on_c, 0, 69, 0
1, 84048, Note_on_c, 0, 72, 75
1, 84071, Note_on_c, 0, 72, 0
1, 84072, Note_on_c, 0, 69, 75
1, 84096, Note_on_c, 0, 75, 91
1, 84096, Note_on_c, 0, 72, 91
1, 84096, Note_on_c, 1, 53, 96
1, 84096, Note_on_c, 1, 41, 96
1, 84384, Note_on_c, 0, 75, 0
1, 84384, Note_on_c, 0, 72, 0
1, 84384, Note_on_c, 0, 69, 0
1, 84384, Note_on_c, 1, 53, 0
1, 84384, Note_on_c, 1, 41, 0
1, 84480, Note_on_c, 1, 67, 96
1, 84480, Note_on_c, 1, 55, 96
1, 84504, Note_on_c, 0, 71, 75
1, 84519, Note_on_c, 1, 67, 0
1, 84519, Note_on_c, 1, 55, 0
1, 84527, Note_on_c, 0, 71, 0
1, 84528, Note_on_c, 0, 74, 75
1, 84551, Note_on_c, 0, 74, 0
1, 84552, Note_on_c, 0, 71, 75
1, 84575, Note_on_c, 0, 71, 0
1, 84576, Note_on_c, 1, 65, 96
1, 84576, Note_on_c, 1, 53, 96
1, 84600, Note_on_c, 0, 74, 75
1, 84615, Note_on_c, 1, 65, 0
1, 84615, Note_on_c, 1, 53, 0
1, 84623, Note_on_c, 0, 74, 0
1, 84624, Note_on_c, 0, 77, 75
1, 84647, Note_on_c, 0, 77, 0
1, 84648, Note_on_c, 0, 74, 75
1, 84671, Note_on_c, 0, 74, 0
1, 84672, Note_on_c, 1, 62, 96
1, 84672, Note_on_c, 1, 50, 96
1, 84696, Note_on_c, 0, 77, 75
1, 84711, Note_on_c, 1, 62, 0
1, 84711, Note_on_c, 1, 50, 0
1, 84719, Note_on_c, 0, 77, 0
1, 84720, Note_on_c, 0, 83, 75
1, 84743, Note_on_c, 0, 83, 0
1, 84744, Note_on_c, 0, 77, 75
1, 84767, Note_on_c, 0, 77, 0
1, 84768, Note_on_c, 1, 59, 96
1, 84768, Note_on_c, 1, 47, 96
1, 84792, Note_on_c, 0, 83, 75
1, 84807, Note_on_c, 1, 59, 0
1, 84807, Note_on_c, 1, 47, 0
1, 84815, Note_on_c, 0, 83, 0
1, 84816, Note_on_c, 0, 86, 75
1, 84839, Note_on_c, 0, 86, 0
1, 84840, Note_on_c, 0, 83, 75
1, 84864, Note_on_c, 0, 89, 91
1, 84864, Note_on_c, 0, 86, 91
1, 84864, Note_on_c, 1, 55, 96
1, 84864, Note_on_c, 1, 43, 96
1, 85152, Note_on_c, 0, 89, 0
1, 85152, Note_on_c, 0, 86, 0
1, 85152, Note_on_c, 0, 83, 0
1, 85152, Note_on_c, 1, 55, 0
1, 85152, Note_on_c, 1, 43, 0
1, 85248, Note_on_c, 1, 63, 96
1, 85248, Note_on_c, 1, 51, 96
1, 85272, Note_on_c, 0, 67, 75
1, 85287, Note_on_c, 1, 63, 0
1, 85287, Note_on_c, 1, 51, 0
1, 85295, Note_on_c, 0, 67, 0
1, 85296, Note_on_c, 0, 72, 75
1, 85319, Note_on_c, 0, 72, 0
1, 85320, Note_on_c, 0, 67, 75
1, 85343, Note_on_c, 0, 67, 0
1, 85344, Note_on_c, 1, 60, 96
1, 85344, Note_on_c, 1, 48, 96
1, 85368, Note_on_c, 0, 72, 75
1, 85383, Note_on_c, 1, 60, 0
1, 85383, Note_on_c, 1, 48, 0
1, 85391, Note_on_c, 0, 72, 0
1, 85392, Note_on_c, 0, 75, 75
1, 85415, Note_on_c, 0, 75, 0
1, 85416, Note_on_c, 0, 72, 75
1, 85439, Note_on_c, 0, 72, 0
1, 85440, Note_on_c, 1, 55, 96
1, 85440, Note_on_c, 1, 43, 96
1, 85464, Note_on_c, 0, 75, 75
1, 85479, Note_on_c, 1, 55, 0
1, 85479, Note_on_c, 1, 43, 0
1, 85487, Note_on_c, 0, 75, 0
1, 85488, Note_on_c, 0, 79, 75
1, 85511, Note_on_c, 0, 79, 0
1, 85512, Note_on_c, 0, 75, 75
1, 85535, Note_on_c, 0, 75, 0
1, 85536, Note_on_c, 1, 60, 96
1, 85536, Note_on_c, 1, 48, 96
1, 85560, Note_on_c, 0, 79, 75
1, 85575, Note_on_c, 1, 60, 0
1, 85575, Note_on_c, 1, 48, 0
1, 85583, Note_on_c, 0, 79, 0
1, 85584, Note_on_c, 0, 84, 75
1, 85607, Note_on_c, 0, 84, 0
1, 85608, Note_on_c, 0, 79, 75
1, 85632, Note_on_c, 0, 87, 91
1, 85632, Note_on_c, 0, 84, 91
1, 85632, Note_on_c, 1, 58, 96
1, 85632, Note_on_c, 1, 46, 96
1, 85920, Note_on_c, 0, 87, 0
1, 85920, Note_on_c, 0, 84, 0
1, 85920, Note_on_c, 0, 79, 0
1, 85920, Note_on_c, 1, 58, 0
1, 85920, Note_on_c, 1, 46, 0
1, 86016, Note_on_c, 1, 53, 96
1, 86016, Note_on_c, 1, 41, 96
1, 86040, Note_on_c, 0, 60, 75
1, 86055, Note_on_c, 1, 53, 0
1, 86055, Note_on_c, 1, 41, 0
1, 86063, Note_on_c, 0, 60, 0
1, 86064, Note_on_c, 0, 63, 75
1, 86087, Note_on_c, 0, 63, 0
1, 86088, Note_on_c, 0, 60, 75
1, 86111, Note_on_c, 0, 60, 0
1, 86112, Note_on_c, 1, 51, 96
1, 86112, Note_on_c, 1, 39, 96
1, 86136, Note_on_c, 0, 63, 75
1, 86151, Note_on_c, 1, 51, 0
1, 86151, Note_on_c, 1, 39, 0
1, 86159, Note_on_c, 0, 63, 0
1, 86160, Note_on_c, 0, 69, 75
1, 86183, Note_on_c, 0, 69, 0
1, 86184, Note_on_c, 0, 63, 75
1, 86207, Note_on_c, 0, 63, 0
1, 86208, Note_on_c, 1, 48, 96
1, 86208, Note_on_c, 1, 36, 96
1, 86232, Note_on_c, 0, 69, 75
1, 86247, Note_on_c, 1, 48, 0
1, 86247, Note_on_c, 1, 36, 0
1, 86255, Note_on_c, 0, 69, 0
1, 86256, Note_on_c, 0, 72, 75
1, 86279, Note_on_c, 0, 72, 0
1, 86280, Note_on_c, 0, 69, 75
1, 86303, Note_on_c, 0, 69, 0
1, 86304, Note_on_c, 1, 46, 96
1, 86304, Note_on_c, 1, 34, 96
1, 86328, Note_on_c, 0, 72, 75
1, 86343, Note_on_c, 1, 46, 0
1, 86343, Note_on_c, 1, 34, 0
1, 86351, Note_on_c, 0, 72, 0
1, 86352, Note_on_c, 0, 75, 75
1, 86375, Note_on_c, 0, 75, 0
1, 86376, Note_on_c, 0, 72, 75
1, 86400, Note_on_c, 0, 78, 91
1, 86400, Note_on_c, 0, 75, 91
1, 86400, Note_on_c, 1, 45, 80
1, 86400, Note_on_c, 1, 33, 80
1, 86665, Note_on_c, 1, 45, 0
1, 86665, Note_on_c, 1, 33, 0
1, 86688, Note_on_c, 0, 78, 0
1, 86688, Note_on_c, 0, 75, 0
1, 86688, Note_on_c, 0, 72, 0
1, 86784, Note_on_c, 1, 58, 64
1, 86829, Note_on_c, 1, 58, 0
1, 86832, Note_on_c, 1, 65, 64
1, 86877, Note_on_c, 1, 65, 0
1, 86880, Note_on_c, 1, 62, 64
1, 86925, Note_on_c, 1, 62, 0
1, 86928, Note_on_c, 1, 65, 64
1, 86973, Note_on_c, 1, 65, 0
1, 86976, Note_on_c, 1, 58, 64
1, 87021, Note_on_c, 1, 58, 0
1, 87024, Note_on_c, 1, 65, 64
1, 87069, Note_on_c, 1, 65, 0
1, 87072, Note_on_c, 0, 70, 75
1, 87072, Note_on_c, 1, 62, 64
1, 87111, Note_on_c, 0, 70, 0
1, 87117, Note_on_c, 1, 62, 0
1, 87120, Note_on_c, 1, 65, 64
1, 87165, Note_on_c, 1, 65, 0
1, 87168, Note_on_c, 1, 58, 64
1, 87213, Note_on_c, 1, 58, 0
1, 87216, Note_on_c, 1, 65, 64
1, 87261, Note_on_c, 1, 65, 0
1, 87264, Note_on_c, 0, 77, 75
1, 87264, Note_on_c, 1, 62, 64
1, 87303, Note_on_c, 0, 77, 0
1, 87309, Note_on_c, 1, 62, 0
1, 87312, Note_on_c, 1, 65, 64
1, 87357, Note_on_c, 1, 65, 0
1, 87360, Note_on_c, 1, 58, 64
1, 87405, Note_on_c, 1, 58, 0
1, 87408, Note_on_c, 1, 65, 64
1, 87453, Note_on_c, 1, 65, 0
1, 87456, Note_on_c, 0, 75, 75
1, 87456, Note_on_c, 1, 62, 64
1, 87479, Note_on_c, 0, 75, 0
1, 87480, Note_on_c, 0, 74, 75
1, 87501, Note_on_c, 1, 62, 0
1, 87503, Note_on_c, 0, 74, 0
1, 87504, Note_on_c, 0, 72, 75
1, 87504, Note_on_c, 1, 65, 64
1, 87527, Note_on_c, 0, 72, 0
1, 87528, Note_on_c, 0, 70, 75
1, 87549, Note_on_c, 1, 65, 0
1, 87551, Note_on_c, 0, 70, 0
1, 87552, Note_on_c, 0, 69, 75
1, 87552, Note_on_c, 1, 60, 64
1, 87597, Note_on_c, 1, 60, 0
1, 87600, Note_on_c, 1, 65, 64
1, 87641, Note_on_c, 0, 69, 0
1, 87645, Note_on_c, 1, 65, 0
1, 87648, Note_on_c, 0, 75, 75
1, 87648, Note_on_c, 1, 63, 64
1, 87687, Note_on_c, 0, 75, 0
1, 87693, Note_on_c, 1, 63, 0
1, 87696, Note_on_c, 1, 65, 64
1, 87741, Note_on_c, 1, 65, 0
1, 87744, Note_on_c, 1, 60, 64
1, 87789, Note_on_c, 1, 60, 0
1, 87792, Note_on_c, 1, 65, 64
1, 87837, Note_on_c, 1, 65, 0
1, 87840, Note_on_c, 0, 74, 75
1, 87840, Note_on_c, 1, 63, 64
1, 87863, Note_on_c, 0, 74, 0
1, 87864, Note_on_c, 0, 72, 75
1, 87885, Note_on_c, 1, 63, 0
1, 87887, Note_on_c, 0, 72, 0
1, 87888, Note_on_c, 0, 70, 75
1, 87888, Note_on_c, 1, 65, 64
1, 87911, Note_on_c, 0, 70, 0
1, 87912, Note_on_c, 0, 69, 75
1, 87933, Note_on_c, 1, 65, 0
1, 87935, Note_on_c, 0, 69, 0
1, 87936, Note_on_c, 0, 70, 75
1, 87936, Note_on_c, 1, 58, 64
1, 88003, Note_on_c, 0, 70, 0
1, 88008, Note_on_c, 0, 65, 75
1, 88025, Note_on_c, 1, 58, 0
1, 88031, Note_on_c, 0, 65, 0
1, 88032, Note_on_c, 0, 74, 75
1, 88099, Note_on_c, 0, 74, 0
1, 88104, Note_on_c, 0, 70, 76
1, 88127, Note_on_c, 0, 70, 0
1, 88128, Note_on_c, 0, 77, 76
1, 88195, Note_on_c, 0, 77, 0
1, 88200, Note_on_c, 0, 74, 77
1, 88223, Note_on_c, 0, 74, 0
1, 88224, Note_on_c, 0, 82, 77
1, 88291, Note_on_c, 0, 82, 0
1, 88296, Note_on_c, 0, 77, 78
1, 88319, Note_on_c, 0, 77, 0
1, 88320, Note_on_c, 0, 78, 78
1, 88320, Note_on_c, 1, 58, 64
1, 88365, Note_on_c, 1, 58, 0
1, 88368, Note_on_c, 0, 78, 0
1, 88368, Note_on_c, 0, 79, 78
1, 88368, Note_on_c, 1, 63, 64
1, 88413, Note_on_c, 0, 79, 0
1, 88413, Note_on_c, 1, 63, 0
1, 88416, Note_on_c, 0, 79, 95
1, 88416, Note_on_c, 1, 67, 64
1, 88461, Note_on_c, 1, 67, 0
1, 88464, Note_on_c, 1, 63, 64
1, 88509, Note_on_c, 1, 63, 0
1, 88512, Note_on_c, 1, 58, 64
1, 88542, Note_on_c, 0, 79, 0
1, 88544, Note_on_c, 0, 72, 80
1, 88557, Note_on_c, 1, 58, 0
1, 88560, Note_on_c, 1, 63, 64
1, 88574, Note_on_c, 0, 72, 0
1, 88576, Note_on_c, 0, 74, 80
1, 88605, Note_on_c, 1, 63, 0
1, 88606, Note_on_c, 0, 74, 0
1, 88608, Note_on_c, 0, 75, 80
1, 88608, Note_on_c, 1, 67, 64
1, 88638, Note_on_c, 0, 75, 0
1, 88640, Note_on_c, 0, 74, 80
1, 88653, Note_on_c, 1, 67, 0
1, 88656, Note_on_c, 1, 63, 64
1, 88670, Note_on_c, 0, 74, 0
1, 88672, Note_on_c, 0, 72, 80
1, 88701, Note_on_c, 1, 63, 0
1, 88702, Note_on_c, 0, 72, 0
1, 88704, Note_on_c, 0, 72, 80
1, 88704, Note_on_c, 1, 62, 64
1, 88749, Note_on_c, 1, 62, 0
1, 88752, Note_on_c, 0, 72, 0
1, 88752, Note_on_c, 0, 70, 80
1, 88752, Note_on_c, 1, 65, 64
1, 88797, Note_on_c, 0, 70, 0
1, 88797, Note_on_c, 1, 65, 0
1, 88800, Note_on_c, 0, 70, 95
1, 88800, Note_on_c, 1, 62, 65
1, 88845, Note_on_c, 1, 62, 0
1, 88848, Note_on_c, 1, 58, 66
1, 88893, Note_on_c, 1, 58, 0
1, 88896, Note_on_c, 1, 53, 67
1, 88941, Note_on_c, 1, 53, 0
1, 88944, Note_on_c, 1, 62, 67
1, 88989, Note_on_c, 1, 62, 0
1, 88992, Note_on_c, 0, 70, 0
1, 88992, Note_on_c, 0, 74, 76
1, 88992, Note_on_c, 0, 69, 76
1, 88992, Note_on_c, 1, 53, 68
1, 89037, Note_on_c, 1, 53, 0
1, 89040, Note_on_c, 0, 74, 0
1, 89040, Note_on_c, 0, 69, 0
1, 89040, Note_on_c, 0, 72, 75
1, 89040, Note_on_c, 0, 66, 75
1, 89040, Note_on_c, 1, 63, 69
1, 89085, Note_on_c, 0, 72, 0
1, 89085, Note_on_c, 0, 66, 0
1, 89085, Note_on_c, 1, 63, 0
1, 89088, Note_on_c, 0, 70, 75
1, 89088, Note_on_c, 0, 67, 75
1, 89088, Note_on_c, 1, 62, 70
1, 89265, Note_on_c, 0, 70, 0
1, 89265, Note_on_c, 0, 67, 0
1, 89265, Note_on_c, 1, 62, 0
1, 89312, Note_on_c, 0, 60, 75
1, 89342, Note_on_c, 0, 60, 0
1, 89344, Note_on_c, 0, 62, 75
1, 89374, Note_on_c, 0, 62, 0
1, 89376, Note_on_c, 0, 63, 75
1, 89406, Note_on_c, 0, 63, 0
1, 89408, Note_on_c, 0, 62, 75
1, 89438, Note_on_c, 0, 62, 0
1, 89440, Note_on_c, 0, 60, 75
1, 89470, Note_on_c, 0, 60, 0
1, 89472, Note_on_c, 0, 65, 75
1, 89472, Note_on_c, 1, 50, 70
1, 89472, Note_on_c, 1, 41, 70
1, 89544, Note_on_c, 0, 65, 0
1, 89544, Note_on_c, 0, 62, 75
1, 89561, Note_on_c, 1, 50, 0
1, 89561, Note_on_c, 1, 41, 0
1, 89567, Note_on_c, 0, 62, 0
1, 89568, Note_on_c, 0, 58, 75
1, 89657, Note_on_c, 0, 58, 0
1, 89664, Note_on_c, 0, 60, 75
1, 89664, Note_on_c, 1, 51, 70
1, 89664, Note_on_c, 1, 41, 70
1, 89688, Note_on_c, 0, 60, 0
1, 89688, Note_on_c, 0, 58, 75
1, 89712, Note_on_c, 0, 58, 0
1, 89712, Note_on_c, 0, 57, 75
1, 89736, Note_on_c, 0, 57, 0
1, 89736, Note_on_c, 0, 58, 75
1, 89753, Note_on_c, 1, 51, 0
1, 89753, Note_on_c, 1, 41, 0
1, 89760, Note_on_c, 0, 58, 0
1, 89760, Note_on_c, 0, 62, 75
1, 89808, Note_on_c, 0, 62, 0
1, 89808, Note_on_c, 0, 60, 75
1, 89853, Note_on_c, 0, 60, 0
1, 89856, Note_on_c, 0, 58, 75
1, 89856, Note_on_c, 1, 34, 80
1, 89901, Note_on_c, 1, 34, 0
1, 89904, Note_on_c, 1, 46, 80
1, 89945, Note_on_c, 0, 58, 0
1, 89949, Note_on_c, 1, 46, 0
1, 89952, Note_on_c, 1, 34, 80
1, 89997, Note_on_c, 1, 34, 0
1, 90000, Note_on_c, 1, 46, 80
1, 90045, Note_on_c, 1, 46, 0
1, 90048, Note_on_c, 0, 68, 113
1, 90048, Note_on_c, 0, 65, 113
1, 90048, Note_on_c, 0, 62, 113
1, 90048, Note_on_c, 1, 34, 80
1, 90093, Note_on_c, 1, 34, 0
1, 90096, Note_on_c, 1, 46, 80
1, 90141, Note_on_c, 1, 46, 0
1, 90144, Note_on_c, 1, 34, 80
1, 90189, Note_on_c, 1, 34, 0
1, 90192, Note_on_c, 1, 46, 80
1, 90237, Note_on_c, 1, 46, 0
1, 90240, Note_on_c, 0, 68, 0
1, 90240, Note_on_c, 0, 65, 0
1, 90240, Note_on_c, 0, 62, 0
1, 90240, Note_on_c, 0, 67, 80
1, 90240, Note_on_c, 0, 63, 80
1, 90240, Note_on_c, 1, 34, 80
1, 90279, Note_on_c, 0, 67, 0
1, 90279, Note_on_c, 0, 63, 0
1, 90285, Note_on_c, 1, 34, 0
1, 90288, Note_on_c, 1, 46, 80
1, 90333, Note_on_c, 1, 46, 0
1, 90336, Note_on_c, 1, 34, 80
1, 90381, Note_on_c, 1, 34, 0
1, 90384, Note_on_c, 1, 46, 80
1, 90429, Note_on_c, 1, 46, 0
1, 90432, Note_on_c, 0, 69, 113
1, 90432, Note_on_c, 0, 63, 113
1, 90432, Note_on_c, 0, 60, 113
1, 90432, Note_on_c, 1, 34, 80
1, 90477, Note_on_c, 1, 34, 0
1, 90480, Note_on_c, 1, 46, 80
1, 90525, Note_on_c, 1, 46, 0
1, 90528, Note_on_c, 1, 34, 80
1, 90573, Note_on_c, 1, 34, 0
1, 90576, Note_on_c, 1, 46, 80
1, 90621, Note_on_c, 1, 46, 0
1, 90624, Note_on_c, 0, 69, 0
1, 90624, Note_on_c, 0, 63, 0
1, 90624, Note_on_c, 0, 60, 0
1, 90624, Note_on_c, 0, 70, 80
1, 90624, Note_on_c, 0, 65, 80
1, 90624, Note_on_c, 0, 62, 80
1, 90624, Note_on_c, 1, 34, 80
1, 90663, Note_on_c, 0, 70, 0
1, 90663, Note_on_c, 0, 65, 0
1, 90663, Note_on_c, 0, 62, 0
1, 90669, Note_on_c, 1, 34, 0
1, 90672, Note_on_c, 1, 46, 80
1, 90717, Note_on_c, 1, 46, 0
1, 90720, Note_on_c, 0, 68, 97
1, 90720, Note_on_c, 0, 65, 97
1, 90720, Note_on_c, 0, 62, 97
1, 90720, Note_on_c, 1, 34, 80
1, 90759, Note_on_c, 0, 68, 0
1, 90759, Note_on_c, 0, 65, 0
1, 90759, Note_on_c, 0, 62, 0
1, 90765, Note_on_c, 1, 34, 0
1, 90768, Note_on_c, 1, 46, 80
1, 90813, Note_on_c, 1, 46, 0
1, 90816, Note_on_c, 1, 34, 80
1, 90861, Note_on_c, 1, 34, 0
1, 90864, Note_on_c, 1, 46, 80
1, 90909, Note_on_c, 1, 46, 0
1, 90912, Note_on_c, 0, 67, 97
1, 90912, Note_on_c, 0, 63, 97
1, 90912, Note_on_c, 1, 34, 80
1, 90951, Note_on_c, 0, 67, 0
1, 90951, Note_on_c, 0, 63, 0
1, 90957, Note_on_c, 1, 34, 0
1, 90960, Note_on_c, 1, 46, 80
1, 91005, Note_on_c, 1, 46, 0
1, 91008, Note_on_c, 1, 34, 80
1, 91053, Note_on_c, 1, 34, 0
1, 91056, Note_on_c, 1, 46, 80
1, 91101, Note_on_c, 1, 46, 0
1, 91104, Note_on_c, 0, 69, 113
1, 91104, Note_on_c, 0, 63, 113
1, 91104, Note_on_c, 0, 60, 113
1, 91104, Note_on_c, 1, 34, 80
1, 91149, Note_on_c, 1, 34, 0
1, 91152, Note_on_c, 1, 46, 80
1, 91197, Note_on_c, 1, 46, 0
1, 91200, Note_on_c, 0, 69, 0
1, 91200, Note_on_c, 0, 63, 0
1, 91200, Note_on_c, 0, 60, 0
1, 91200, Note_on_c, 0, 70, 80
1, 91200, Note_on_c, 0, 65, 80
1, 91200, Note_on_c, 0, 62, 80
1, 91200, Note_on_c, 1, 34, 80
1, 91239, Note_on_c, 0, 70, 0
1, 91239, Note_on_c, 0, 65, 0
1, 91239, Note_on_c, 0, 62, 0
1, 91245, Note_on_c, 1, 34, 0
1, 91248, Note_on_c, 1, 46, 80
1, 91293, Note_on_c, 1, 46, 0
1, 91296, Note_on_c, 0, 78, 97
1, 91296, Note_on_c, 0, 75, 97
1, 91296, Note_on_c, 1, 34, 80
1, 91341, Note_on_c, 1, 34, 0
1, 91344, Note_on_c, 1, 46, 80
1, 91389, Note_on_c, 1, 46, 0
1, 91392, Note_on_c, 0, 78, 0
1, 91392, Note_on_c, 0, 75, 0
1, 91392, Note_on_c, 0, 77, 80
1, 91392, Note_on_c, 0, 74, 80
1, 91392, Note_on_c, 1, 34, 80
1, 91431, Note_on_c, 0, 77, 0
1, 91431, Note_on_c, 0, 74, 0
1, 91437, Note_on_c, 1, 34, 0
1, 91440, Note_on_c, 1, 46, 80
1, 91485, Note_on_c, 1, 46, 0
1, 91488, Note_on_c, 0, 81, 80
1, 91488, Note_on_c, 0, 75, 80
1, 91488, Note_on_c, 1, 34, 78
1, 91527, Note_on_c, 0, 81, 0
1, 91527, Note_on_c, 0, 75, 0
1, 91533, Note_on_c, 1, 34, 0
1, 91536, Note_on_c, 1, 46, 77
1, 91581, Note_on_c, 1, 46, 0
1, 91584, Note_on_c, 0, 82, 77
1, 91584, Note_on_c, 0, 74, 77
1, 91584, Note_on_c, 1, 34, 76
1, 91623, Note_on_c, 0, 82, 0
1, 91623, Note_on_c, 0, 74, 0
1, 91629, Note_on_c, 1, 34, 0
1, 91632, Note_on_c, 1, 46, 75
1, 91677, Note_on_c, 1, 46, 0
1, 91680, Note_on_c, 0, 54, 92
1, 91680, Note_on_c, 0, 51, 92
1, 91680, Note_on_c, 1, 34, 73
1, 91725, Note_on_c, 1, 34, 0
1, 91728, Note_on_c, 1, 46, 72
1, 91773, Note_on_c, 1, 46, 0
1, 91776, Note_on_c, 0, 54, 0
1, 91776, Note_on_c, 0, 51, 0
1, 91776, Note_on_c, 0, 53, 73
1, 91776, Note_on_c, 0, 50, 73
1, 91776, Note_on_c, 1, 34, 71
1, 91815, Note_on_c, 0, 53, 0
1, 91815, Note_on_c, 0, 50, 0
1, 91821, Note_on_c, 1, 34, 0
1, 91824, Note_on_c, 1, 46, 70
1, 91869, Note_on_c, 1, 46, 0
1, 91872, Note_on_c, 0, 57, 70
1, 91872, Note_on_c, 0, 51, 70
1, 91872, Note_on_c, 1, 34, 68
1, 91911, Note_on_c, 0, 57, 0
1, 91911, Note_on_c, 0, 51, 0
1, 91917, Note_on_c, 1, 34, 0
1, 91920, Note_on_c, 1, 46, 67
1, 91965, Note_on_c, 1, 46, 0
1, 91968, Note_on_c, 0, 58, 68
1, 91968, Note_on_c, 0, 50, 68
1, 91968, Note_on_c, 1, 34, 66
1, 92057, Note_on_c, 0, 58, 0
1, 92057, Note_on_c, 0, 50, 0
1, 92057, Note_on_c, 1, 34, 0
1, 92112, Note_on_c, 0, 77, 65
1, 92157, Note_on_c, 0, 77, 0
1, 92160, Note_on_c, 0, 77, 80
1, 92160, Note_on_c, 1, 63, 64
1, 92160, Note_on_c, 1, 53, 64
1, 92256, Note_on_c, 0, 77, 0
1, 92256, Note_on_c, 0, 76, 64
1, 92279, Note_on_c, 0, 76, 0
1, 92280, Note_on_c, 0, 77, 64
1, 92303, Note_on_c, 0, 77, 0
1, 92304, Note_on_c, 0, 79, 64
1, 92327, Note_on_c, 0, 79, 0
1, 92328, Note_on_c, 0, 77, 64
1, 92337, Note_on_c, 1, 63, 0
1, 92337, Note_on_c, 1, 53, 0
1, 92351, Note_on_c, 0, 77, 0
1, 92352, Note_on_c, 0, 70, 64
1, 92352, Note_on_c, 1, 62, 64
1, 92352, Note_on_c, 1, 58, 64
1, 92441, Note_on_c, 0, 70, 0
1, 92441, Note_on_c, 1, 62, 0
1, 92441, Note_on_c, 1, 58, 0
1, 92496, Note_on_c, 1, 58, 0
1, 92541, Note_on_c, 1, 58, 0
1, 92551, End_track
0, 0, End_of_file