0, 0, Header, 0, 1, 96
1, 0, Start_track
1, 0, Tempo, 895522
1, 0, Note_on_c, 0, 60, 64
1, 0, Note_on_c, 1, 41, 64
1, 6, Note_on_c, 0, 65, 64
1, 6, Note_on_c, 1, 45, 64
1, 12, Note_on_c, 0, 69, 64
1, 12, Note_on_c, 1, 48, 64
1, 18, Note_on_c, 0, 72, 64
1, 18, Note_on_c, 1, 53, 64
1, 96, Note_on_c, 0, 65, 0
1, 96, Note_on_c, 0, 60, 0
1, 163, Note_on_c, 0, 72, 0
1, 163, Note_on_c, 0, 69, 0
1, 168, Note_on_c, 0, 70, 64
1, 168, Note_on_c, 0, 67, 64
1, 185, Note_on_c, 1, 53, 0
1, 185, Note_on_c, 1, 48, 0
1, 185, Note_on_c, 1, 45, 0
1, 185, Note_on_c, 1, 41, 0
1, 191, Note_on_c, 0, 70, 0
1, 191, Note_on_c, 0, 67, 0
1, 192, Note_on_c, 0, 69, 64
1, 192, Note_on_c, 0, 65, 64
1, 281, Note_on_c, 0, 69, 0
1, 281, Note_on_c, 0, 65, 0
1, 288, Note_on_c, 0, 67, 64
1, 288, Note_on_c, 1, 62, 64
1, 288, Note_on_c, 1, 58, 64
1, 297, Note_on_c, 0, 67, 0
1, 297, Note_on_c, 0, 69, 64
1, 306, Note_on_c, 0, 69, 0
1, 306, Note_on_c, 0, 67, 64
1, 315, Note_on_c, 0, 67, 0
1, 315, Note_on_c, 0, 69, 64
1, 324, Note_on_c, 0, 69, 0
1, 324, Note_on_c, 0, 67, 64
1, 333, Note_on_c, 0, 67, 0
1, 333, Note_on_c, 0, 69, 64
1, 342, Note_on_c, 0, 69, 0
1, 342, Note_on_c, 0, 67, 64
1, 351, Note_on_c, 0, 67, 0
1, 351, Note_on_c, 0, 69, 64
1, 360, Note_on_c, 0, 69, 0
1, 360, Note_on_c, 0, 67, 64
1, 368, Note_on_c, 0, 67, 0
1, 368, Note_on_c, 0, 65, 64
1, 376, Note_on_c, 0, 65, 0
1, 376, Note_on_c, 0, 67, 64
1, 384, Note_on_c, 0, 67, 0
1, 384, Note_on_c, 0, 65, 64
1, 384, Note_on_c, 1, 62, 0
1, 384, Note_on_c, 1, 58, 0
1, 384, Note_on_c, 1, 60, 64
1, 384, Note_on_c, 1, 57, 64
1, 451, Note_on_c, 0, 65, 0
1, 451, Note_on_c, 1, 60, 0
1, 451, Note_on_c, 1, 57, 0
1, 480, Note_on_c, 0, 65, 64
1, 488, Note_on_c, 0, 65, 0
1, 488, Note_on_c, 0, 67, 64
1, 496, Note_on_c, 0, 67, 0
1, 496, Note_on_c, 0, 69, 64
1, 504, Note_on_c, 0, 69, 0
1, 504, Note_on_c, 0, 67, 64
1, 512, Note_on_c, 0, 67, 0
1, 512, Note_on_c, 0, 65, 64
1, 520, Note_on_c, 0, 65, 0
1, 520, Note_on_c, 0, 67, 64
1, 527, Note_on_c, 0, 67, 0
1, 527, Note_on_c, 0, 69, 64
1, 534, Note_on_c, 0, 69, 0
1, 534, Note_on_c, 0, 70, 64
1, 541, Note_on_c, 0, 70, 0
1, 541, Note_on_c, 0, 72, 64
1, 548, Note_on_c, 0, 72, 0
1, 548, Note_on_c, 0, 74, 64
1, 555, Note_on_c, 0, 74, 0
1, 555, Note_on_c, 0, 76, 64
1, 562, Note_on_c, 0, 76, 0
1, 562, Note_on_c, 0, 77, 64
1, 569, Note_on_c, 0, 77, 0
1, 569, Note_on_c, 0, 79, 64
1, 576, Note_on_c, 0, 79, 0
1, 576, Note_on_c, 0, 81, 64
1, 596, Note_on_c, 0, 81, 0
1, 648, Note_on_c, 0, 79, 64
1, 672, Note_on_c, 0, 79, 0
1, 672, Note_on_c, 0, 77, 64
1, 692, Note_on_c, 0, 77, 0
1, 744, Note_on_c, 0, 76, 64
1, 768, Note_on_c, 0, 76, 0
1, 768, Note_on_c, 0, 74, 64
1, 788, Note_on_c, 0, 74, 0
1, 840, Note_on_c, 0, 72, 64
1, 863, Note_on_c, 0, 72, 0
1, 864, Note_on_c, 0, 72, 75
1, 864, Note_on_c, 1, 64, 75
1, 864, Note_on_c, 1, 60, 75
1, 897, Note_on_c, 0, 72, 0
1, 899, Note_on_c, 0, 70, 71
1, 908, Note_on_c, 0, 70, 0
1, 908, Note_on_c, 0, 72, 70
1, 917, Note_on_c, 0, 72, 0
1, 917, Note_on_c, 0, 70, 70
1, 926, Note_on_c, 0, 70, 0
1, 926, Note_on_c, 0, 72, 69
1, 935, Note_on_c, 0, 72, 0
1, 935, Note_on_c, 0, 70, 68
1, 944, Note_on_c, 0, 70, 0
1, 944, Note_on_c, 0, 69, 68
1, 953, Note_on_c, 0, 69, 0
1, 953, Note_on_c, 0, 70, 67
1, 960, Note_on_c, 1, 64, 0
1, 960, Note_on_c, 1, 60, 0
1, 960, Note_on_c, 1, 65, 64
1, 960, Note_on_c, 1, 62, 64
1, 962, Note_on_c, 0, 70, 0
1, 962, Note_on_c, 0, 69, 64
1, 1027, Note_on_c, 1, 65, 0
1, 1027, Note_on_c, 1, 62, 0
1, 1029, Note_on_c, 0, 69, 0
1, 1152, Note_on_c, 1, 62, 75
1, 1152, Note_on_c, 1, 58, 75
1, 1154, Note_on_c, 0, 67, 75
1, 1177, Note_on_c, 0, 67, 0
1, 1178, Note_on_c, 0, 69, 75
1, 1186, Note_on_c, 0, 69, 0
1, 1186, Note_on_c, 0, 67, 75
1, 1194, Note_on_c, 0, 67, 0
1, 1194, Note_on_c, 0, 65, 75
1, 1202, Note_on_c, 0, 65, 0
1, 1202, Note_on_c, 0, 67, 75
1, 1212, Note_on_c, 0, 67, 0
1, 1226, Note_on_c, 0, 69, 75
1, 1249, Note_on_c, 0, 69, 0
1, 1250, Note_on_c, 0, 70, 75
1, 1273, Note_on_c, 0, 70, 0
1, 1274, Note_on_c, 0, 72, 75
1, 1282, Note_on_c, 0, 72, 0
1, 1282, Note_on_c, 0, 70, 75
1, 1290, Note_on_c, 0, 70, 0
1, 1290, Note_on_c, 0, 69, 75
1, 1298, Note_on_c, 0, 69, 0
1, 1298, Note_on_c, 0, 70, 75
1, 1308, Note_on_c, 0, 70, 0
1, 1322, Note_on_c, 0, 72, 75
1, 1329, Note_on_c, 1, 62, 0
1, 1329, Note_on_c, 1, 58, 0
1, 1345, Note_on_c, 0, 72, 0
1, 1346, Note_on_c, 0, 73, 75
1, 1361, Note_on_c, 0, 73, 0
1, 1362, Note_on_c, 0, 76, 75
1, 1377, Note_on_c, 0, 76, 0
1, 1378, Note_on_c, 0, 74, 75
1, 1393, Note_on_c, 0, 74, 0
1, 1394, Note_on_c, 0, 62, 75
1, 1409, Note_on_c, 0, 62, 0
1, 1410, Note_on_c, 0, 70, 75
1, 1425, Note_on_c, 0, 70, 0
1, 1426, Note_on_c, 0, 67, 75
1, 1440, Note_on_c, 1, 58, 75
1, 1440, Note_on_c, 1, 48, 75
1, 1441, Note_on_c, 0, 67, 0
1, 1442, Note_on_c, 0, 65, 75
1, 1502, Note_on_c, 0, 65, 0
1, 1502, Note_on_c, 0, 64, 75
1, 1514, Note_on_c, 0, 64, 0
1, 1514, Note_on_c, 0, 67, 75
1, 1526, Note_on_c, 0, 67, 0
1, 1526, Note_on_c, 0, 64, 75
1, 1536, Note_on_c, 1, 58, 0
1, 1536, Note_on_c, 1, 48, 0
1, 1536, Note_on_c, 1, 57, 75
1, 1536, Note_on_c, 1, 53, 75
1, 1538, Note_on_c, 0, 64, 0
1, 1538, Note_on_c, 0, 65, 75
1, 1603, Note_on_c, 1, 57, 0
1, 1603, Note_on_c, 1, 53, 0
1, 1605, Note_on_c, 0, 65, 0
1, 1730, Note_on_c, 0, 69, 75
1, 1742, Note_on_c, 0, 69, 0
1, 1742, Note_on_c, 0, 81, 75
1, 1824, Note_on_c, 1, 57, 75
1, 1824, Note_on_c, 1, 53, 75
1, 1907, Note_on_c, 0, 81, 0
1, 1918, Note_on_c, 1, 57, 0
1, 1918, Note_on_c, 1, 53, 0
1, 1920, Note_on_c, 1, 69, 75
1, 1920, Note_on_c, 1, 65, 75
1, 1922, Note_on_c, 0, 79, 75
1, 1945, Note_on_c, 0, 79, 0
1, 1946, Note_on_c, 0, 77, 75
1, 1969, Note_on_c, 0, 77, 0
1, 1970, Note_on_c, 0, 76, 75
1, 1993, Note_on_c, 0, 76, 0
1, 1994, Note_on_c, 0, 74, 75
1, 2014, Note_on_c, 1, 69, 0
1, 2014, Note_on_c, 1, 65, 0
1, 2016, Note_on_c, 1, 67, 75
1, 2016, Note_on_c, 1, 64, 75
1, 2017, Note_on_c, 0, 74, 0
1, 2018, Note_on_c, 0, 74, 75
1, 2085, Note_on_c, 0, 74, 0
1, 2090, Note_on_c, 0, 76, 75
1, 2102, Note_on_c, 0, 76, 0
1, 2102, Note_on_c, 0, 74, 75
1, 2112, Note_on_c, 1, 70, 64
1, 2114, Note_on_c, 0, 74, 0
1, 2114, Note_on_c, 0, 73, 75
1, 2281, Note_on_c, 1, 67, 0
1, 2281, Note_on_c, 1, 64, 0
1, 2289, Note_on_c, 1, 70, 0
1, 2291, Note_on_c, 0, 73, 0
1, 2304, Note_on_c, 1, 65, 75
1, 2330, Note_on_c, 0, 69, 75
1, 2353, Note_on_c, 0, 69, 0
1, 2354, Note_on_c, 0, 74, 75
1, 2377, Note_on_c, 0, 74, 0
1, 2378, Note_on_c, 0, 73, 76
1, 2401, Note_on_c, 0, 73, 0
1, 2402, Note_on_c, 0, 76, 77
1, 2425, Note_on_c, 0, 76, 0
1, 2426, Note_on_c, 0, 74, 78
1, 2449, Note_on_c, 0, 74, 0
1, 2450, Note_on_c, 0, 77, 79
1, 2465, Note_on_c, 0, 77, 0
1, 2466, Note_on_c, 0, 76, 79
1, 2481, Note_on_c, 0, 76, 0
1, 2481, Note_on_c, 1, 65, 0
1, 2482, Note_on_c, 0, 79, 79
1, 2497, Note_on_c, 0, 79, 0
1, 2498, Note_on_c, 0, 77, 79
1, 2513, Note_on_c, 0, 77, 0
1, 2514, Note_on_c, 0, 81, 79
1, 2529, Note_on_c, 0, 81, 0
1, 2530, Note_on_c, 0, 79, 78
1, 2545, Note_on_c, 0, 79, 0
1, 2546, Note_on_c, 0, 77, 78
1, 2561, Note_on_c, 0, 77, 0
1, 2562, Note_on_c, 0, 76, 77
1, 2577, Note_on_c, 0, 76, 0
1, 2578, Note_on_c, 0, 74, 77
1, 2593, Note_on_c, 0, 74, 0
1, 2594, Note_on_c, 0, 72, 75
1, 2683, Note_on_c, 0, 72, 0
1, 2688, Note_on_c, 1, 65, 75
1, 2688, Note_on_c, 1, 62, 75
1, 2688, Note_on_c, 1, 55, 64
1, 2690, Note_on_c, 0, 71, 75
1, 2699, Note_on_c, 0, 71, 0
1, 2699, Note_on_c, 0, 72, 75
1, 2708, Note_on_c, 0, 72, 0
1, 2708, Note_on_c, 0, 71, 75
1, 2717, Note_on_c, 0, 71, 0
1, 2717, Note_on_c, 0, 72, 75
1, 2726, Note_on_c, 0, 72, 0
1, 2726, Note_on_c, 0, 71, 75
1, 2735, Note_on_c, 0, 71, 0
1, 2735, Note_on_c, 0, 72, 75
1, 2744, Note_on_c, 0, 72, 0
1, 2744, Note_on_c, 0, 71, 75
1, 2753, Note_on_c, 0, 71, 0
1, 2753, Note_on_c, 0, 72, 75
1, 2762, Note_on_c, 0, 72, 0
1, 2762, Note_on_c, 0, 71, 75
1, 2770, Note_on_c, 0, 71, 0
1, 2770, Note_on_c, 0, 69, 75
1, 2777, Note_on_c, 1, 65, 0
1, 2777, Note_on_c, 1, 62, 0
1, 2777, Note_on_c, 1, 55, 0
1, 2778, Note_on_c, 0, 69, 0
1, 2778, Note_on_c, 0, 71, 75
1, 2784, Note_on_c, 1, 64, 75
1, 2784, Note_on_c, 1, 55, 64
1, 2786, Note_on_c, 0, 71, 0
1, 2786, Note_on_c, 0, 72, 75
1, 2810, Note_on_c, 0, 72, 75
1, 2816, Note_on_c, 0, 72, 0
1, 2816, Note_on_c, 0, 71, 75
1, 2822, Note_on_c, 0, 71, 0
1, 2822, Note_on_c, 0, 72, 75
1, 2833, Note_on_c, 0, 72, 0
1, 2834, Note_on_c, 0, 74, 75
1, 2857, Note_on_c, 0, 74, 0
1, 2858, Note_on_c, 0, 76, 75
1, 2881, Note_on_c, 0, 76, 0
1, 2882, Note_on_c, 0, 67, 75
1, 2969, Note_on_c, 1, 64, 0
1, 2976, Note_on_c, 1, 59, 75
1, 3015, Note_on_c, 0, 67, 0
1, 3026, Note_on_c, 0, 65, 75
1, 3032, Note_on_c, 0, 65, 0
1, 3032, Note_on_c, 0, 67, 75
1, 3038, Note_on_c, 0, 67, 0
1, 3038, Note_on_c, 0, 65, 75
1, 3065, Note_on_c, 1, 59, 0
1, 3072, Note_on_c, 1, 60, 75
1, 3073, Note_on_c, 0, 65, 0
1, 3074, Note_on_c, 0, 64, 75
1, 3097, Note_on_c, 0, 64, 0
1, 3098, Note_on_c, 0, 65, 75
1, 3121, Note_on_c, 0, 65, 0
1, 3122, Note_on_c, 0, 66, 75
1, 3145, Note_on_c, 0, 66, 0
1, 3145, Note_on_c, 1, 55, 0
1, 3146, Note_on_c, 0, 67, 75
1, 3168, Note_on_c, 1, 55, 64
1, 3169, Note_on_c, 0, 67, 0
1, 3170, Note_on_c, 0, 66, 75
1, 3176, Note_on_c, 0, 66, 0
1, 3176, Note_on_c, 0, 67, 75
1, 3182, Note_on_c, 0, 67, 0
1, 3182, Note_on_c, 0, 69, 75
1, 3188, Note_on_c, 0, 69, 0
1, 3188, Note_on_c, 0, 67, 75
1, 3215, Note_on_c, 0, 67, 0
1, 3218, Note_on_c, 0, 65, 75
1, 3230, Note_on_c, 0, 65, 0
1, 3230, Note_on_c, 0, 64, 75
1, 3242, Note_on_c, 0, 64, 0
1, 3242, Note_on_c, 0, 62, 75
1, 3254, Note_on_c, 0, 62, 0
1, 3254, Note_on_c, 0, 64, 75
1, 3257, Note_on_c, 1, 60, 0
1, 3257, Note_on_c, 1, 55, 0
1, 3264, Note_on_c, 1, 59, 75
1, 3264, Note_on_c, 1, 55, 64
1, 3266, Note_on_c, 0, 64, 0
1, 3266, Note_on_c, 0, 62, 75
1, 3331, Note_on_c, 1, 59, 0
1, 3331, Note_on_c, 1, 55, 0
1, 3333, Note_on_c, 0, 62, 0
1, 3458, Note_on_c, 0, 67, 75
1, 3464, Note_on_c, 0, 71, 75
1, 3470, Note_on_c, 0, 74, 75
1, 3480, Note_on_c, 1, 65, 75
1, 3503, Note_on_c, 1, 65, 0
1, 3504, Note_on_c, 1, 64, 75
1, 3527, Note_on_c, 1, 64, 0
1, 3528, Note_on_c, 1, 65, 75
1, 3551, Note_on_c, 1, 65, 0
1, 3552, Note_on_c, 1, 62, 75
1, 3575, Note_on_c, 1, 62, 0
1, 3576, Note_on_c, 1, 65, 75
1, 3599, Note_on_c, 1, 65, 0
1, 3600, Note_on_c, 1, 59, 75
1, 3623, Note_on_c, 1, 59, 0
1, 3624, Note_on_c, 1, 65, 75
1, 3647, Note_on_c, 1, 65, 0
1, 3648, Note_on_c, 1, 55, 75
1, 3671, Note_on_c, 1, 55, 0
1, 3672, Note_on_c, 1, 65, 75
1, 3695, Note_on_c, 1, 65, 0
1, 3696, Note_on_c, 1, 59, 75
1, 3719, Note_on_c, 1, 59, 0
1, 3720, Note_on_c, 1, 65, 75
1, 3731, Note_on_c, 0, 74, 0
1, 3731, Note_on_c, 0, 71, 0
1, 3731, Note_on_c, 0, 67, 0
1, 3744, Note_on_c, 1, 60, 64
1, 3770, Note_on_c, 0, 67, 75
1, 3793, Note_on_c, 0, 67, 0
1, 3794, Note_on_c, 0, 66, 76
1, 3817, Note_on_c, 0, 66, 0
1, 3818, Note_on_c, 0, 67, 77
1, 3833, Note_on_c, 1, 65, 0
1, 3840, Note_on_c, 1, 64, 75
1, 3841, Note_on_c, 0, 67, 0
1, 3842, Note_on_c, 0, 72, 78
1, 3865, Note_on_c, 0, 72, 0
1, 3866, Note_on_c, 0, 67, 79
1, 3889, Note_on_c, 0, 67, 0
1, 3890, Note_on_c, 0, 76, 80
1, 3913, Note_on_c, 0, 76, 0
1, 3914, Note_on_c, 0, 72, 79
1, 3937, Note_on_c, 0, 72, 0
1, 3938, Note_on_c, 0, 79, 78
1, 3961, Note_on_c, 0, 79, 0
1, 3962, Note_on_c, 0, 76, 77
1, 3985, Note_on_c, 0, 76, 0
1, 3986, Note_on_c, 0, 74, 76
1, 3992, Note_on_c, 0, 74, 0
1, 3992, Note_on_c, 0, 76, 76
1, 3998, Note_on_c, 0, 76, 0
1, 3998, Note_on_c, 0, 74, 76
1, 4009, Note_on_c, 0, 74, 0
1, 4009, Note_on_c, 1, 60, 0
1, 4010, Note_on_c, 0, 72, 75
1, 4017, Note_on_c, 1, 64, 0
1, 4033, Note_on_c, 0, 72, 0
1, 4034, Note_on_c, 0, 67, 75
1, 4040, Note_on_c, 0, 71, 75
1, 4046, Note_on_c, 0, 74, 75
1, 4056, Note_on_c, 1, 65, 75
1, 4079, Note_on_c, 1, 65, 0
1, 4080, Note_on_c, 1, 64, 75
1, 4103, Note_on_c, 1, 64, 0
1, 4104, Note_on_c, 1, 65, 75
1, 4127, Note_on_c, 1, 65, 0
1, 4128, Note_on_c, 1, 62, 75
1, 4151, Note_on_c, 1, 62, 0
1, 4152, Note_on_c, 1, 65, 75
1, 4175, Note_on_c, 1, 65, 0
1, 4176, Note_on_c, 1, 59, 75
1, 4199, Note_on_c, 1, 59, 0
1, 4200, Note_on_c, 1, 65, 75
1, 4223, Note_on_c, 1, 65, 0
1, 4224, Note_on_c, 1, 55, 75
1, 4247, Note_on_c, 1, 55, 0
1, 4248, Note_on_c, 1, 65, 75
1, 4271, Note_on_c, 1, 65, 0
1, 4272, Note_on_c, 1, 59, 75
1, 4295, Note_on_c, 1, 59, 0
1, 4296, Note_on_c, 1, 65, 75
1, 4307, Note_on_c, 0, 74, 0
1, 4307, Note_on_c, 0, 71, 0
1, 4307, Note_on_c, 0, 67, 0
1, 4320, Note_on_c, 1, 60, 64
1, 4346, Note_on_c, 0, 67, 75
1, 4369, Note_on_c, 0, 67, 0
1, 4370, Note_on_c, 0, 66, 76
1, 4393, Note_on_c, 0, 66, 0
1, 4394, Note_on_c, 0, 67, 77
1, 4409, Note_on_c, 1, 65, 0
1, 4416, Note_on_c, 1, 64, 75
1, 4417, Note_on_c, 0, 67, 0
1, 4418, Note_on_c, 0, 72, 78
1, 4441, Note_on_c, 0, 72, 0
1, 4442, Note_on_c, 0, 67, 79
1, 4465, Note_on_c, 0, 67, 0
1, 4466, Note_on_c, 0, 76, 80
1, 4489, Note_on_c, 0, 76, 0
1, 4490, Note_on_c, 0, 72, 79
1, 4505, Note_on_c, 1, 64, 0
1, 4512, Note_on_c, 0, 79, 64
1, 4512, Note_on_c, 1, 64, 75
1, 4513, Note_on_c, 0, 72, 0
1, 4514, Note_on_c, 0, 79, 78
1, 4537, Note_on_c, 0, 79, 0
1, 4538, Note_on_c, 0, 76, 77
1, 4561, Note_on_c, 0, 76, 0
1, 4562, Note_on_c, 0, 74, 76
1, 4568, Note_on_c, 0, 74, 0
1, 4568, Note_on_c, 0, 76, 76
1, 4574, Note_on_c, 0, 76, 0
1, 4574, Note_on_c, 0, 74, 76
1, 4585, Note_on_c, 0, 74, 0
1, 4585, Note_on_c, 1, 60, 0
1, 4586, Note_on_c, 0, 72, 75
1, 4601, Note_on_c, 1, 64, 0
1, 4608, Note_on_c, 1, 65, 75
1, 4609, Note_on_c, 0, 72, 0
1, 4610, Note_on_c, 0, 81, 75
1, 4618, Note_on_c, 1, 65, 0
1, 4632, Note_on_c, 1, 65, 75
1, 4655, Note_on_c, 1, 65, 0
1, 4656, Note_on_c, 1, 64, 75
1, 4679, Note_on_c, 1, 64, 0
1, 4680, Note_on_c, 1, 65, 75
1, 4697, Note_on_c, 0, 79, 0
1, 4703, Note_on_c, 1, 65, 0
1, 4704, Note_on_c, 0, 77, 64
1, 4704, Note_on_c, 1, 74, 75
1, 4714, Note_on_c, 1, 74, 0
1, 4728, Note_on_c, 1, 74, 75
1, 4751, Note_on_c, 1, 74, 0
1, 4752, Note_on_c, 1, 73, 75
1, 4775, Note_on_c, 1, 73, 0
1, 4776, Note_on_c, 1, 74, 75
1, 4787, Note_on_c, 0, 81, 0
1, 4793, Note_on_c, 0, 77, 0
1, 4799, Note_on_c, 1, 74, 0
1, 4800, Note_on_c, 0, 79, 64
1, 4800, Note_on_c, 1, 71, 75
1, 4802, Note_on_c, 0, 77, 75
1, 4810, Note_on_c, 1, 71, 0
1, 4824, Note_on_c, 1, 71, 75
1, 4847, Note_on_c, 1, 71, 0
1, 4848, Note_on_c, 1, 69, 75
1, 4871, Note_on_c, 1, 69, 0
1, 4872, Note_on_c, 1, 71, 75
1, 4895, Note_on_c, 1, 71, 0
1, 4896, Note_on_c, 1, 72, 75
1, 4921, Note_on_c, 0, 77, 0
1, 4922, Note_on_c, 0, 76, 75
1, 4945, Note_on_c, 0, 76, 0
1, 4946, Note_on_c, 0, 75, 76
1, 4969, Note_on_c, 0, 75, 0
1, 4970, Note_on_c, 0, 76, 76
1, 4985, Note_on_c, 0, 79, 0
1, 4993, Note_on_c, 0, 76, 0
1, 4994, Note_on_c, 0, 81, 77
1, 5017, Note_on_c, 0, 81, 0
1, 5018, Note_on_c, 0, 79, 77
1, 5041, Note_on_c, 0, 79, 0
1, 5042, Note_on_c, 0, 78, 78
1, 5065, Note_on_c, 0, 78, 0
1, 5066, Note_on_c, 0, 79, 78
1, 5073, Note_on_c, 1, 72, 0
1, 5089, Note_on_c, 0, 79, 0
1, 5090, Note_on_c, 0, 86, 79
1, 5113, Note_on_c, 0, 86, 0
1, 5114, Note_on_c, 0, 84, 79
1, 5137, Note_on_c, 0, 84, 0
1, 5138, Note_on_c, 0, 83, 80
1, 5160, Note_on_c, 1, 60, 75
1, 5160, Note_on_c, 1, 52, 75
1, 5161, Note_on_c, 0, 83, 0
1, 5162, Note_on_c, 0, 82, 79
1, 5184, Note_on_c, 1, 52, 0
1, 5184, Note_on_c, 1, 53, 75
1, 5185, Note_on_c, 0, 82, 0
1, 5186, Note_on_c, 0, 81, 79
1, 5209, Note_on_c, 0, 81, 0
1, 5210, Note_on_c, 0, 80, 78
1, 5233, Note_on_c, 0, 80, 0
1, 5234, Note_on_c, 0, 79, 78
1, 5257, Note_on_c, 0, 79, 0
1, 5258, Note_on_c, 0, 77, 78
1, 5258, Note_on_c, 0, 74, 78
1, 5273, Note_on_c, 1, 60, 0
1, 5273, Note_on_c, 1, 53, 0
1, 5280, Note_on_c, 1, 55, 75
1, 5281, Note_on_c, 0, 77, 0
1, 5281, Note_on_c, 0, 74, 0
1, 5282, Note_on_c, 0, 76, 77
1, 5282, Note_on_c, 0, 72, 77
1, 5369, Note_on_c, 1, 55, 0
1, 5371, Note_on_c, 0, 76, 0
1, 5371, Note_on_c, 0, 72, 0
1, 5376, Note_on_c, 1, 43, 75
1, 5378, Note_on_c, 0, 79, 76
1, 5378, Note_on_c, 0, 76, 76
1, 5401, Note_on_c, 0, 79, 0
1, 5401, Note_on_c, 0, 76, 0
1, 5402, Note_on_c, 0, 77, 75
1, 5402, Note_on_c, 0, 74, 75
1, 5425, Note_on_c, 0, 77, 0
1, 5425, Note_on_c, 0, 74, 0
1, 5426, Note_on_c, 0, 76, 75
1, 5426, Note_on_c, 0, 72, 75
1, 5460, Note_on_c, 0, 76, 0
1, 5460, Note_on_c, 0, 72, 0
1, 5462, Note_on_c, 0, 74, 75
1, 5462, Note_on_c, 0, 71, 75
1, 5465, Note_on_c, 1, 43, 0
1, 5474, Note_on_c, 0, 74, 0
1, 5474, Note_on_c, 0, 71, 0
1, 5474, Note_on_c, 0, 74, 75
1, 5474, Note_on_c, 0, 71, 75
1, 5563, Note_on_c, 0, 74, 0
1, 5563, Note_on_c, 0, 71, 0
1, 5568, Note_on_c, 1, 57, 75
1, 5570, Note_on_c, 0, 69, 75
1, 5580, Note_on_c, 1, 60, 75
1, 5592, Note_on_c, 1, 63, 75
1, 5594, Note_on_c, 0, 72, 75
1, 5604, Note_on_c, 1, 66, 75
1, 5689, Note_on_c, 0, 72, 0
1, 5689, Note_on_c, 0, 69, 0
1, 5690, Note_on_c, 0, 72, 75
1, 5696, Note_on_c, 0, 72, 0
1, 5696, Note_on_c, 0, 71, 75
1, 5702, Note_on_c, 0, 71, 0
1, 5702, Note_on_c, 0, 72, 75
1, 5713, Note_on_c, 0, 72, 0
1, 5714, Note_on_c, 0, 74, 75
1, 5737, Note_on_c, 0, 74, 0
1, 5738, Note_on_c, 0, 75, 75
1, 5753, Note_on_c, 1, 66, 0
1, 5753, Note_on_c, 1, 63, 0
1, 5753, Note_on_c, 1, 60, 0
1, 5753, Note_on_c, 1, 57, 0
1, 5761, Note_on_c, 0, 75, 0
1, 5762, Note_on_c, 0, 75, 75
1, 5807, Note_on_c, 0, 75, 0
1, 5810, Note_on_c, 0, 66, 75
1, 5855, Note_on_c, 0, 66, 0
1, 5858, Note_on_c, 0, 74, 75
1, 5952, Note_on_c, 1, 62, 75
1, 5952, Note_on_c, 1, 59, 75
1, 5969, Note_on_c, 0, 74, 0
1, 5970, Note_on_c, 0, 72, 75
1, 5985, Note_on_c, 0, 72, 0
1, 5986, Note_on_c, 0, 71, 75
1, 6001, Note_on_c, 0, 71, 0
1, 6002, Note_on_c, 0, 69, 75
1, 6017, Note_on_c, 0, 69, 0
1, 6018, Note_on_c, 0, 67, 75
1, 6033, Note_on_c, 0, 67, 0
1, 6034, Note_on_c, 0, 65, 75
1, 6041, Note_on_c, 1, 62, 0
1, 6041, Note_on_c, 1, 59, 0
1, 6048, Note_on_c, 1, 60, 75
1, 6049, Note_on_c, 0, 65, 0
1, 6050, Note_on_c, 0, 64, 75
1, 6065, Note_on_c, 0, 64, 0
1, 6066, Note_on_c, 0, 67, 75
1, 6081, Note_on_c, 0, 67, 0
1, 6082, Note_on_c, 0, 71, 76
1, 6097, Note_on_c, 0, 71, 0
1, 6098, Note_on_c, 0, 72, 76
1, 6113, Note_on_c, 0, 72, 0
1, 6114, Note_on_c, 0, 76, 77
1, 6129, Note_on_c, 0, 76, 0
1, 6130, Note_on_c, 0, 79, 78
1, 6137, Note_on_c, 1, 60, 0
1, 6145, Note_on_c, 0, 79, 0
1, 6146, Note_on_c, 0, 84, 94
1, 6146, Note_on_c, 0, 72, 94
1, 6240, Note_on_c, 1, 55, 75
1, 6240, Note_on_c, 1, 52, 75
1, 6257, Note_on_c, 0, 84, 0
1, 6257, Note_on_c, 0, 72, 0
1, 6258, Note_on_c, 0, 83, 77
1, 6258, Note_on_c, 0, 71, 77
1, 6273, Note_on_c, 0, 83, 0
1, 6273, Note_on_c, 0, 71, 0
1, 6274, Note_on_c, 0, 81, 77
1, 6274, Note_on_c, 0, 69, 77
1, 6289, Note_on_c, 0, 81, 0
1, 6289, Note_on_c, 0, 69, 0
1, 6290, Note_on_c, 0, 79, 77
1, 6290, Note_on_c, 0, 67, 77
1, 6305, Note_on_c, 0, 79, 0
1, 6305, Note_on_c, 0, 67, 0
1, 6306, Note_on_c, 0, 77, 76
1, 6306, Note_on_c, 0, 65, 76
1, 6321, Note_on_c, 0, 77, 0
1, 6321, Note_on_c, 0, 65, 0
1, 6322, Note_on_c, 0, 76, 76
1, 6322, Note_on_c, 0, 64, 76
1, 6329, Note_on_c, 1, 55, 0
1, 6329, Note_on_c, 1, 52, 0
1, 6336, Note_on_c, 1, 57, 75
1, 6336, Note_on_c, 1, 53, 75
1, 6337, Note_on_c, 0, 76, 0
1, 6337, Note_on_c, 0, 64, 0
1, 6338, Note_on_c, 0, 74, 75
1, 6338, Note_on_c, 0, 62, 75
1, 6383, Note_on_c, 0, 74, 0
1, 6383, Note_on_c, 0, 62, 0
1, 6386, Note_on_c, 0, 81, 75
1, 6386, Note_on_c, 0, 77, 75
1, 6406, Note_on_c, 0, 81, 0
1, 6406, Note_on_c, 0, 77, 0
1, 6425, Note_on_c, 1, 57, 0
1, 6425, Note_on_c, 1, 53, 0
1, 6432, Note_on_c, 1, 55, 75
1, 6482, Note_on_c, 0, 79, 75
1, 6482, Note_on_c, 0, 76, 75
1, 6521, Note_on_c, 1, 55, 0
1, 6527, Note_on_c, 0, 79, 0
1, 6527, Note_on_c, 0, 76, 0
1, 6528, Note_on_c, 1, 43, 75
1, 6578, Note_on_c, 0, 71, 75
1, 6578, Note_on_c, 0, 65, 75
1, 6617, Note_on_c, 1, 43, 0
1, 6623, Note_on_c, 0, 71, 0
1, 6623, Note_on_c, 0, 65, 0
1, 6626, Note_on_c, 0, 88, 96
1, 6626, Note_on_c, 0, 84, 96
1, 6720, Note_on_c, 1, 36, 75
1, 6726, Note_on_c, 1, 40, 75
1, 6732, Note_on_c, 1, 43, 75
1, 6737, Note_on_c, 0, 88, 0
1, 6737, Note_on_c, 0, 84, 0
1, 6738, Note_on_c, 0, 86, 80
1, 6738, Note_on_c, 0, 83, 80
1, 6738, Note_on_c, 1, 48, 75
1, 6745, Note_on_c, 0, 86, 0
1, 6745, Note_on_c, 0, 83, 0
1, 6754, Note_on_c, 0, 84, 80
1, 6754, Note_on_c, 0, 81, 80
1, 6761, Note_on_c, 0, 84, 0
1, 6761, Note_on_c, 0, 81, 0
1, 6770, Note_on_c, 0, 83, 80
1, 6770, Note_on_c, 0, 79, 80
1, 6777, Note_on_c, 0, 83, 0
1, 6777, Note_on_c, 0, 79, 0
1, 6786, Note_on_c, 0, 81, 80
1, 6786, Note_on_c, 0, 77, 80
1, 6793, Note_on_c, 0, 81, 0
1, 6793, Note_on_c, 0, 77, 0
1, 6802, Note_on_c, 0, 79, 80
1, 6802, Note_on_c, 0, 76, 80
1, 6809, Note_on_c, 0, 79, 0
1, 6809, Note_on_c, 0, 76, 0
1, 6813, Note_on_c, 1, 48, 0
1, 6813, Note_on_c, 1, 43, 0
1, 6813, Note_on_c, 1, 40, 0
1, 6813, Note_on_c, 1, 36, 0
1, 6818, Note_on_c, 0, 77, 80
1, 6818, Note_on_c, 0, 74, 80
1, 6825, Note_on_c, 0, 77, 0
1, 6825, Note_on_c, 0, 74, 0
1, 6834, Note_on_c, 0, 76, 80
1, 6834, Note_on_c, 0, 72, 80
1, 6841, Note_on_c, 0, 76, 0
1, 6841, Note_on_c, 0, 72, 0
1, 6850, Note_on_c, 0, 74, 80
1, 6850, Note_on_c, 0, 71, 80
1, 6857, Note_on_c, 0, 74, 0
1, 6857, Note_on_c, 0, 71, 0
1, 6866, Note_on_c, 0, 72, 80
1, 6866, Note_on_c, 0, 69, 80
1, 6873, Note_on_c, 0, 72, 0
1, 6873, Note_on_c, 0, 69, 0
1, 6882, Note_on_c, 0, 71, 80
1, 6882, Note_on_c, 0, 67, 80
1, 6889, Note_on_c, 0, 71, 0
1, 6889, Note_on_c, 0, 67, 0
1, 6898, Note_on_c, 0, 69, 80
1, 6898, Note_on_c, 0, 65, 80
1, 6905, Note_on_c, 0, 69, 0
1, 6905, Note_on_c, 0, 65, 0
1, 6914, Note_on_c, 0, 67, 80
1, 6914, Note_on_c, 0, 64, 80
1, 6934, Note_on_c, 0, 67, 0
1, 6934, Note_on_c, 0, 64, 0
1, 6986, Note_on_c, 0, 65, 80
1, 6986, Note_on_c, 0, 62, 80
1, 6996, Note_on_c, 0, 65, 0
1, 6996, Note_on_c, 0, 62, 0
1, 7008, Note_on_c, 1, 55, 75
1, 7010, Note_on_c, 0, 64, 80
1, 7010, Note_on_c, 0, 60, 80
1, 7030, Note_on_c, 0, 64, 0
1, 7030, Note_on_c, 0, 60, 0
1, 7053, Note_on_c, 1, 55, 0
1, 7104, Note_on_c, 1, 43, 75
1, 7106, Note_on_c, 0, 62, 80
1, 7106, Note_on_c, 0, 59, 80
1, 7149, Note_on_c, 1, 43, 0
1, 7151, Note_on_c, 0, 62, 0
1, 7151, Note_on_c, 0, 59, 0
1, 7200, Note_on_c, 1, 36, 75
1, 7202, Note_on_c, 0, 60, 75
1, 7202, Note_on_c, 0, 55, 75
1, 7202, Note_on_c, 0, 52, 75
1, 7223, Note_on_c, 1, 36, 0
1, 7224, Note_on_c, 1, 48, 75
1, 7247, Note_on_c, 1, 48, 0
1, 7248, Note_on_c, 1, 47, 75
1, 7271, Note_on_c, 1, 47, 0
1, 7272, Note_on_c, 1, 48, 75
1, 7295, Note_on_c, 1, 48, 0
1, 7296, Note_on_c, 1, 36, 75
1, 7319, Note_on_c, 1, 36, 0
1, 7320, Note_on_c, 1, 48, 75
1, 7335, Note_on_c, 0, 60, 0
1, 7335, Note_on_c, 0, 55, 0
1, 7335, Note_on_c, 0, 52, 0
1, 7343, Note_on_c, 1, 48, 0
1, 7344, Note_on_c, 1, 41, 75
1, 7346, Note_on_c, 0, 57, 75
1, 7367, Note_on_c, 1, 41, 0
1, 7368, Note_on_c, 1, 48, 75
1, 7391, Note_on_c, 1, 48, 0
1, 7392, Note_on_c, 1, 40, 75
1, 7394, Note_on_c, 0, 57, 0
1, 7394, Note_on_c, 0, 55, 75
1, 7414, Note_on_c, 0, 55, 0
1, 7415, Note_on_c, 1, 40, 0
1, 7416, Note_on_c, 1, 48, 75
1, 7439, Note_on_c, 1, 48, 0
1, 7440, Note_on_c, 1, 38, 75
1, 7442, Note_on_c, 0, 65, 75
1, 7442, Note_on_c, 0, 59, 75
1, 7462, Note_on_c, 0, 65, 0
1, 7462, Note_on_c, 0, 59, 0
1, 7463, Note_on_c, 1, 38, 0
1, 7464, Note_on_c, 1, 48, 75
1, 7487, Note_on_c, 1, 48, 0
1, 7488, Note_on_c, 1, 36, 75
1, 7490, Note_on_c, 0, 65, 75
1, 7490, Note_on_c, 0, 59, 75
1, 7511, Note_on_c, 1, 36, 0
1, 7512, Note_on_c, 1, 48, 75
1, 7535, Note_on_c, 1, 48, 0
1, 7536, Note_on_c, 1, 47, 75
1, 7559, Note_on_c, 1, 47, 0
1, 7560, Note_on_c, 1, 48, 75
1, 7583, Note_on_c, 1, 48, 0
1, 7584, Note_on_c, 1, 36, 75
1, 7586, Note_on_c, 0, 65, 0
1, 7586, Note_on_c, 0, 59, 0
1, 7586, Note_on_c, 0, 64, 75
1, 7586, Note_on_c, 0, 60, 75
1, 7607, Note_on_c, 1, 36, 0
1, 7608, Note_on_c, 1, 48, 75
1, 7631, Note_on_c, 0, 64, 0
1, 7631, Note_on_c, 0, 60, 0
1, 7631, Note_on_c, 1, 48, 0
1, 7632, Note_on_c, 1, 41, 75
1, 7634, Note_on_c, 0, 57, 75
1, 7655, Note_on_c, 1, 41, 0
1, 7656, Note_on_c, 1, 48, 75
1, 7679, Note_on_c, 1, 48, 0
1, 7680, Note_on_c, 1, 40, 75
1, 7682, Note_on_c, 0, 57, 0
1, 7682, Note_on_c, 0, 55, 75
1, 7702, Note_on_c, 0, 55, 0
1, 7703, Note_on_c, 1, 40, 0
1, 7704, Note_on_c, 1, 48, 75
1, 7727, Note_on_c, 1, 48, 0
1, 7728, Note_on_c, 1, 38, 75
1, 7730, Note_on_c, 0, 59, 75
1, 7730, Note_on_c, 0, 53, 75
1, 7750, Note_on_c, 0, 59, 0
1, 7750, Note_on_c, 0, 53, 0
1, 7751, Note_on_c, 1, 38, 0
1, 7752, Note_on_c, 1, 48, 75
1, 7775, Note_on_c, 1, 48, 0
1, 7776, Note_on_c, 1, 59, 75
1, 7776, Note_on_c, 1, 53, 75
1, 7776, Note_on_c, 1, 36, 75
1, 7872, Note_on_c, 1, 59, 0
1, 7872, Note_on_c, 1, 53, 0
1, 7872, Note_on_c, 1, 40, 75
1, 7878, Note_on_c, 1, 43, 75
1, 7884, Note_on_c, 1, 48, 75
1, 7890, Note_on_c, 1, 52, 75
1, 7896, Note_on_c, 1, 55, 75
1, 7902, Note_on_c, 1, 60, 75
1, 7961, Note_on_c, 1, 60, 0
1, 7961, Note_on_c, 1, 55, 0
1, 7961, Note_on_c, 1, 52, 0
1, 7961, Note_on_c, 1, 48, 0
1, 7961, Note_on_c, 1, 43, 0
1, 7961, Note_on_c, 1, 40, 0
1, 7961, Note_on_c, 1, 36, 0
1, 8064, Note_on_c, 1, 41, 64
1, 8066, Note_on_c, 0, 60, 64
1, 8070, Note_on_c, 1, 45, 64
1, 8072, Note_on_c, 0, 65, 64
1, 8076, Note_on_c, 1, 48, 64
1, 8078, Note_on_c, 0, 69, 64
1, 8082, Note_on_c, 1, 53, 64
1, 8084, Note_on_c, 0, 72, 64
1, 8162, Note_on_c, 0, 65, 0
1, 8162, Note_on_c, 0, 60, 0
1, 8229, Note_on_c, 0, 72, 0
1, 8229, Note_on_c, 0, 69, 0
1, 8234, Note_on_c, 0, 70, 64
1, 8234, Note_on_c, 0, 67, 64
1, 8249, Note_on_c, 1, 53, 0
1, 8249, Note_on_c, 1, 48, 0
1, 8249, Note_on_c, 1, 45, 0
1, 8249, Note_on_c, 1, 41, 0
1, 8257, Note_on_c, 0, 70, 0
1, 8257, Note_on_c, 0, 67, 0
1, 8258, Note_on_c, 0, 69, 64
1, 8258, Note_on_c, 0, 65, 64
1, 8347, Note_on_c, 0, 69, 0
1, 8347, Note_on_c, 0, 65, 0
1, 8352, Note_on_c, 1, 62, 64
1, 8352, Note_on_c, 1, 58, 64
1, 8354, Note_on_c, 0, 67, 64
1, 8363, Note_on_c, 0, 67, 0
1, 8363, Note_on_c, 0, 69, 64
1, 8372, Note_on_c, 0, 69, 0
1, 8372, Note_on_c, 0, 67, 64
1, 8381, Note_on_c, 0, 67, 0
1, 8381, Note_on_c, 0, 69, 64
1, 8390, Note_on_c, 0, 69, 0
1, 8390, Note_on_c, 0, 67, 64
1, 8399, Note_on_c, 0, 67, 0
1, 8399, Note_on_c, 0, 69, 64
1, 8408, Note_on_c, 0, 69, 0
1, 8408, Note_on_c, 0, 67, 64
1, 8417, Note_on_c, 0, 67, 0
1, 8417, Note_on_c, 0, 69, 64
1, 8426, Note_on_c, 0, 69, 0
1, 8426, Note_on_c, 0, 67, 64
1, 8434, Note_on_c, 0, 67, 0
1, 8434, Note_on_c, 0, 65, 64
1, 8442, Note_on_c, 0, 65, 0
1, 8442, Note_on_c, 0, 67, 64
1, 8448, Note_on_c, 1, 62, 0
1, 8448, Note_on_c, 1, 58, 0
1, 8448, Note_on_c, 1, 60, 64
1, 8448, Note_on_c, 1, 57, 64
1, 8450, Note_on_c, 0, 67, 0
1, 8450, Note_on_c, 0, 65, 64
1, 8515, Note_on_c, 1, 60, 0
1, 8515, Note_on_c, 1, 57, 0
1, 8517, Note_on_c, 0, 65, 0
1, 8546, Note_on_c, 0, 65, 64
1, 8554, Note_on_c, 0, 65, 0
1, 8554, Note_on_c, 0, 67, 64
1, 8562, Note_on_c, 0, 67, 0
1, 8562, Note_on_c, 0, 69, 64
1, 8570, Note_on_c, 0, 69, 0
1, 8570, Note_on_c, 0, 67, 64
1, 8578, Note_on_c, 0, 67, 0
1, 8578, Note_on_c, 0, 65, 64
1, 8586, Note_on_c, 0, 65, 0
1, 8586, Note_on_c, 0, 67, 64
1, 8593, Note_on_c, 0, 67, 0
1, 8593, Note_on_c, 0, 69, 64
1, 8600, Note_on_c, 0, 69, 0
1, 8600, Note_on_c, 0, 70, 64
1, 8607, Note_on_c, 0, 70, 0
1, 8607, Note_on_c, 0, 72, 64
1, 8614, Note_on_c, 0, 72, 0
1, 8614, Note_on_c, 0, 74, 64
1, 8621, Note_on_c, 0, 74, 0
1, 8621, Note_on_c, 0, 76, 64
1, 8628, Note_on_c, 0, 76, 0
1, 8628, Note_on_c, 0, 77, 64
1, 8635, Note_on_c, 0, 77, 0
1, 8635, Note_on_c, 0, 79, 64
1, 8642, Note_on_c, 0, 79, 0
1, 8642, Note_on_c, 0, 81, 64
1, 8662, Note_on_c, 0, 81, 0
1, 8714, Note_on_c, 0, 79, 64
1, 8738, Note_on_c, 0, 79, 0
1, 8738, Note_on_c, 0, 77, 64
1, 8758, Note_on_c, 0, 77, 0
1, 8810, Note_on_c, 0, 76, 64
1, 8834, Note_on_c, 0, 76, 0
1, 8834, Note_on_c, 0, 74, 64
1, 8854, Note_on_c, 0, 74, 0
1, 8906, Note_on_c, 0, 72, 64
1, 8928, Note_on_c, 1, 64, 75
1, 8928, Note_on_c, 1, 60, 75
1, 8929, Note_on_c, 0, 72, 0
1, 8930, Note_on_c, 0, 72, 75
1, 8963, Note_on_c, 0, 72, 0
1, 8965, Note_on_c, 0, 70, 71
1, 8974, Note_on_c, 0, 70, 0
1, 8974, Note_on_c, 0, 72, 70
1, 8983, Note_on_c, 0, 72, 0
1, 8983, Note_on_c, 0, 70, 70
1, 8992, Note_on_c, 0, 70, 0
1, 8992, Note_on_c, 0, 72, 69
1, 9001, Note_on_c, 0, 72, 0
1, 9001, Note_on_c, 0, 70, 68
1, 9010, Note_on_c, 0, 70, 0
1, 9010, Note_on_c, 0, 69, 68
1, 9019, Note_on_c, 0, 69, 0
1, 9019, Note_on_c, 0, 70, 67
1, 9024, Note_on_c, 1, 64, 0
1, 9024, Note_on_c, 1, 60, 0
1, 9024, Note_on_c, 1, 65, 64
1, 9024, Note_on_c, 1, 62, 64
1, 9028, Note_on_c, 0, 70, 0
1, 9028, Note_on_c, 0, 69, 64
1, 9091, Note_on_c, 1, 65, 0
1, 9091, Note_on_c, 1, 62, 0
1, 9095, Note_on_c, 0, 69, 0
1, 9216, Note_on_c, 1, 62, 75
1, 9216, Note_on_c, 1, 58, 75
1, 9220, Note_on_c, 0, 67, 75
1, 9243, Note_on_c, 0, 67, 0
1, 9244, Note_on_c, 0, 69, 75
1, 9252, Note_on_c, 0, 69, 0
1, 9252, Note_on_c, 0, 67, 75
1, 9260, Note_on_c, 0, 67, 0
1, 9260, Note_on_c, 0, 65, 75
1, 9268, Note_on_c, 0, 65, 0
1, 9268, Note_on_c, 0, 67, 75
1, 9278, Note_on_c, 0, 67, 0
1, 9292, Note_on_c, 0, 69, 75
1, 9315, Note_on_c, 0, 69, 0
1, 9316, Note_on_c, 0, 70, 75
1, 9339, Note_on_c, 0, 70, 0
1, 9340, Note_on_c, 0, 72, 75
1, 9348, Note_on_c, 0, 72, 0
1, 9348, Note_on_c, 0, 70, 75
1, 9356, Note_on_c, 0, 70, 0
1, 9356, Note_on_c, 0, 69, 75
1, 9364, Note_on_c, 0, 69, 0
1, 9364, Note_on_c, 0, 70, 75
1, 9374, Note_on_c, 0, 70, 0
1, 9388, Note_on_c, 0, 72, 75
1, 9393, Note_on_c, 1, 62, 0
1, 9393, Note_on_c, 1, 58, 0
1, 9411, Note_on_c, 0, 72, 0
1, 9412, Note_on_c, 0, 73, 75
1, 9427, Note_on_c, 0, 73, 0
1, 9428, Note_on_c, 0, 76, 75
1, 9443, Note_on_c, 0, 76, 0
1, 9444, Note_on_c, 0, 74, 75
1, 9459, Note_on_c, 0, 74, 0
1, 9460, Note_on_c, 0, 62, 75
1, 9475, Note_on_c, 0, 62, 0
1, 9476, Note_on_c, 0, 70, 75
1, 9491, Note_on_c, 0, 70, 0
1, 9492, Note_on_c, 0, 67, 75
1, 9504, Note_on_c, 1, 58, 75
1, 9504, Note_on_c, 1, 48, 75
1, 9507, Note_on_c, 0, 67, 0
1, 9508, Note_on_c, 0, 65, 75
1, 9568, Note_on_c, 0, 65, 0
1, 9568, Note_on_c, 0, 64, 75
1, 9580, Note_on_c, 0, 64, 0
1, 9580, Note_on_c, 0, 67, 75
1, 9592, Note_on_c, 0, 67, 0
1, 9592, Note_on_c, 0, 64, 75
1, 9600, Note_on_c, 1, 58, 0
1, 9600, Note_on_c, 1, 48, 0
1, 9600, Note_on_c, 1, 57, 75
1, 9600, Note_on_c, 1, 53, 75
1, 9604, Note_on_c, 0, 64, 0
1, 9604, Note_on_c, 0, 65, 75
1, 9667, Note_on_c, 1, 57, 0
1, 9667, Note_on_c, 1, 53, 0
1, 9671, Note_on_c, 0, 65, 0
1, 9796, Note_on_c, 0, 69, 75
1, 9808, Note_on_c, 0, 69, 0
1, 9808, Note_on_c, 0, 81, 75
1, 9888, Note_on_c, 1, 57, 75
1, 9888, Note_on_c, 1, 53, 75
1, 9973, Note_on_c, 0, 81, 0
1, 9982, Note_on_c, 1, 57, 0
1, 9982, Note_on_c, 1, 53, 0
1, 9984, Note_on_c, 1, 69, 75
1, 9984, Note_on_c, 1, 65, 75
1, 9988, Note_on_c, 0, 79, 75
1, 10011, Note_on_c, 0, 79, 0
1, 10012, Note_on_c, 0, 77, 75
1, 10035, Note_on_c, 0, 77, 0
1, 10036, Note_on_c, 0, 76, 75
1, 10059, Note_on_c, 0, 76, 0
1, 10060, Note_on_c, 0, 74, 75
1, 10078, Note_on_c, 1, 69, 0
1, 10078, Note_on_c, 1, 65, 0
1, 10080, Note_on_c, 1, 67, 75
1, 10080, Note_on_c, 1, 64, 75
1, 10083, Note_on_c, 0, 74, 0
1, 10084, Note_on_c, 0, 74, 75
1, 10151, Note_on_c, 0, 74, 0
1, 10156, Note_on_c, 0, 76, 75
1, 10168, Note_on_c, 0, 76, 0
1, 10168, Note_on_c, 0, 74, 75
1, 10176, Note_on_c, 1, 70, 64
1, 10180, Note_on_c, 0, 74, 0
1, 10180, Note_on_c, 0, 73, 75
1, 10345, Note_on_c, 1, 67, 0
1, 10345, Note_on_c, 1, 64, 0
1, 10353, Note_on_c, 1, 70, 0
1, 10357, Note_on_c, 0, 73, 0
1, 10368, Note_on_c, 1, 65, 75
1, 10396, Note_on_c, 0, 69, 75
1, 10419, Note_on_c, 0, 69, 0
1, 10420, Note_on_c, 0, 74, 75
1, 10443, Note_on_c, 0, 74, 0
1, 10444, Note_on_c, 0, 73, 76
1, 10467, Note_on_c, 0, 73, 0
1, 10468, Note_on_c, 0, 76, 77
1, 10491, Note_on_c, 0, 76, 0
1, 10492, Note_on_c, 0, 74, 78
1, 10515, Note_on_c, 0, 74, 0
1, 10516, Note_on_c, 0, 77, 79
1, 10531, Note_on_c, 0, 77, 0
1, 10532, Note_on_c, 0, 76, 79
1, 10545, Note_on_c, 1, 65, 0
1, 10547, Note_on_c, 0, 76, 0
1, 10548, Note_on_c, 0, 79, 79
1, 10563, Note_on_c, 0, 79, 0
1, 10564, Note_on_c, 0, 77, 79
1, 10579, Note_on_c, 0, 77, 0
1, 10580, Note_on_c, 0, 81, 79
1, 10595, Note_on_c, 0, 81, 0
1, 10596, Note_on_c, 0, 79, 78
1, 10611, Note_on_c, 0, 79, 0
1, 10612, Note_on_c, 0, 77, 78
1, 10627, Note_on_c, 0, 77, 0
1, 10628, Note_on_c, 0, 76, 77
1, 10643, Note_on_c, 0, 76, 0
1, 10644, Note_on_c, 0, 74, 77
1, 10659, Note_on_c, 0, 74, 0
1, 10660, Note_on_c, 0, 72, 75
1, 10749, Note_on_c, 0, 72, 0
1, 10752, Note_on_c, 1, 65, 75
1, 10752, Note_on_c, 1, 62, 75
1, 10752, Note_on_c, 1, 55, 64
1, 10756, Note_on_c, 0, 71, 75
1, 10765, Note_on_c, 0, 71, 0
1, 10765, Note_on_c, 0, 72, 75
1, 10774, Note_on_c, 0, 72, 0
1, 10774, Note_on_c, 0, 71, 75
1, 10783, Note_on_c, 0, 71, 0
1, 10783, Note_on_c, 0, 72, 75
1, 10792, Note_on_c, 0, 72, 0
1, 10792, Note_on_c, 0, 71, 75
1, 10801, Note_on_c, 0, 71, 0
1, 10801, Note_on_c, 0, 72, 75
1, 10810, Note_on_c, 0, 72, 0
1, 10810, Note_on_c, 0, 71, 75
1, 10819, Note_on_c, 0, 71, 0
1, 10819, Note_on_c, 0, 72, 75
1, 10828, Note_on_c, 0, 72, 0
1, 10828, Note_on_c, 0, 71, 75
1, 10836, Note_on_c, 0, 71, 0
1, 10836, Note_on_c, 0, 69, 75
1, 10841, Note_on_c, 1, 65, 0
1, 10841, Note_on_c, 1, 62, 0
1, 10841, Note_on_c, 1, 55, 0
1, 10844, Note_on_c, 0, 69, 0
1, 10844, Note_on_c, 0, 71, 75
1, 10848, Note_on_c, 1, 64, 75
1, 10848, Note_on_c, 1, 55, 64
1, 10852, Note_on_c, 0, 71, 0
1, 10852, Note_on_c, 0, 72, 75
1, 10876, Note_on_c, 0, 72, 75
1, 10882, Note_on_c, 0, 72, 0
1, 10882, Note_on_c, 0, 71, 75
1, 10888, Note_on_c, 0, 71, 0
1, 10888, Note_on_c, 0, 72, 75
1, 10899, Note_on_c, 0, 72, 0
1, 10900, Note_on_c, 0, 74, 75
1, 10923, Note_on_c, 0, 74, 0
1, 10924, Note_on_c, 0, 76, 75
1, 10947, Note_on_c, 0, 76, 0
1, 10948, Note_on_c, 0, 67, 75
1, 11033, Note_on_c, 1, 64, 0
1, 11040, Note_on_c, 1, 59, 75
1, 11081, Note_on_c, 0, 67, 0
1, 11092, Note_on_c, 0, 65, 75
1, 11098, Note_on_c, 0, 65, 0
1, 11098, Note_on_c, 0, 67, 75
1, 11104, Note_on_c, 0, 67, 0
1, 11104, Note_on_c, 0, 65, 75
1, 11129, Note_on_c, 1, 59, 0
1, 11136, Note_on_c, 1, 60, 75
1, 11139, Note_on_c, 0, 65, 0
1, 11140, Note_on_c, 0, 64, 75
1, 11163, Note_on_c, 0, 64, 0
1, 11164, Note_on_c, 0, 65, 75
1, 11187, Note_on_c, 0, 65, 0
1, 11188, Note_on_c, 0, 66, 75
1, 11209, Note_on_c, 1, 55, 0
1, 11211, Note_on_c, 0, 66, 0
1, 11212, Note_on_c, 0, 67, 75
1, 11232, Note_on_c, 1, 55, 64
1, 11235, Note_on_c, 0, 67, 0
1, 11236, Note_on_c, 0, 66, 75
1, 11242, Note_on_c, 0, 66, 0
1, 11242, Note_on_c, 0, 67, 75
1, 11248, Note_on_c, 0, 67, 0
1, 11248, Note_on_c, 0, 69, 75
1, 11254, Note_on_c, 0, 69, 0
1, 11254, Note_on_c, 0, 67, 75
1, 11281, Note_on_c, 0, 67, 0
1, 11284, Note_on_c, 0, 65, 75
1, 11296, Note_on_c, 0, 65, 0
1, 11296, Note_on_c, 0, 64, 75
1, 11308, Note_on_c, 0, 64, 0
1, 11308, Note_on_c, 0, 62, 75
1, 11320, Note_on_c, 0, 62, 0
1, 11320, Note_on_c, 0, 64, 75
1, 11321, Note_on_c, 1, 60, 0
1, 11321, Note_on_c, 1, 55, 0
1, 11328, Note_on_c, 1, 59, 75
1, 11328, Note_on_c, 1, 55, 64
1, 11332, Note_on_c, 0, 64, 0
1, 11332, Note_on_c, 0, 62, 75
1, 11395, Note_on_c, 1, 59, 0
1, 11395, Note_on_c, 1, 55, 0
1, 11399, Note_on_c, 0, 62, 0
1, 11524, Note_on_c, 0, 67, 75
1, 11530, Note_on_c, 0, 71, 75
1, 11536, Note_on_c, 0, 74, 75
1, 11544, Note_on_c, 1, 65, 75
1, 11567, Note_on_c, 1, 65, 0
1, 11568, Note_on_c, 1, 64, 75
1, 11591, Note_on_c, 1, 64, 0
1, 11592, Note_on_c, 1, 65, 75
1, 11615, Note_on_c, 1, 65, 0
1, 11616, Note_on_c, 1, 62, 75
1, 11639, Note_on_c, 1, 62, 0
1, 11640, Note_on_c, 1, 65, 75
1, 11663, Note_on_c, 1, 65, 0
1, 11664, Note_on_c, 1, 59, 75
1, 11687, Note_on_c, 1, 59, 0
1, 11688, Note_on_c, 1, 65, 75
1, 11711, Note_on_c, 1, 65, 0
1, 11712, Note_on_c, 1, 55, 75
1, 11735, Note_on_c, 1, 55, 0
1, 11736, Note_on_c, 1, 65, 75
1, 11759, Note_on_c, 1, 65, 0
1, 11760, Note_on_c, 1, 59, 75
1, 11783, Note_on_c, 1, 59, 0
1, 11784, Note_on_c, 1, 65, 75
1, 11797, Note_on_c, 0, 74, 0
1, 11797, Note_on_c, 0, 71, 0
1, 11797, Note_on_c, 0, 67, 0
1, 11808, Note_on_c, 1, 60, 64
1, 11836, Note_on_c, 0, 67, 75
1, 11859, Note_on_c, 0, 67, 0
1, 11860, Note_on_c, 0, 66, 76
1, 11883, Note_on_c, 0, 66, 0
1, 11884, Note_on_c, 0, 67, 77
1, 11897, Note_on_c, 1, 65, 0
1, 11904, Note_on_c, 1, 64, 75
1, 11907, Note_on_c, 0, 67, 0
1, 11908, Note_on_c, 0, 72, 78
1, 11931, Note_on_c, 0, 72, 0
1, 11932, Note_on_c, 0, 67, 79
1, 11955, Note_on_c, 0, 67, 0
1, 11956, Note_on_c, 0, 76, 80
1, 11979, Note_on_c, 0, 76, 0
1, 11980, Note_on_c, 0, 72, 79
1, 12003, Note_on_c, 0, 72, 0
1, 12004, Note_on_c, 0, 79, 78
1, 12027, Note_on_c, 0, 79, 0
1, 12028, Note_on_c, 0, 76, 77
1, 12051, Note_on_c, 0, 76, 0
1, 12052, Note_on_c, 0, 74, 76
1, 12058, Note_on_c, 0, 74, 0
1, 12058, Note_on_c, 0, 76, 76
1, 12064, Note_on_c, 0, 76, 0
1, 12064, Note_on_c, 0, 74, 76
1, 12073, Note_on_c, 1, 60, 0
1, 12075, Note_on_c, 0, 74, 0
1, 12076, Note_on_c, 0, 72, 75
1, 12081, Note_on_c, 1, 64, 0
1, 12099, Note_on_c, 0, 72, 0
1, 12100, Note_on_c, 0, 67, 75
1, 12106, Note_on_c, 0, 71, 75
1, 12112, Note_on_c, 0, 74, 75
1, 12120, Note_on_c, 1, 65, 75
1, 12143, Note_on_c, 1, 65, 0
1, 12144, Note_on_c, 1, 64, 75
1, 12167, Note_on_c, 1, 64, 0
1, 12168, Note_on_c, 1, 65, 75
1, 12191, Note_on_c, 1, 65, 0
1, 12192, Note_on_c, 1, 62, 75
1, 12215, Note_on_c, 1, 62, 0
1, 12216, Note_on_c, 1, 65, 75
1, 12239, Note_on_c, 1, 65, 0
1, 12240, Note_on_c, 1, 59, 75
1, 12263, Note_on_c, 1, 59, 0
1, 12264, Note_on_c, 1, 65, 75
1, 12287, Note_on_c, 1, 65, 0
1, 12288, Note_on_c, 1, 55, 75
1, 12311, Note_on_c, 1, 55, 0
1, 12312, Note_on_c, 1, 65, 75
1, 12335, Note_on_c, 1, 65, 0
1, 12336, Note_on_c, 1, 59, 75
1, 12359, Note_on_c, 1, 59, 0
1, 12360, Note_on_c, 1, 65, 75
1, 12373, Note_on_c, 0, 74, 0
1, 12373, Note_on_c, 0, 71, 0
1, 12373, Note_on_c, 0, 67, 0
1, 12384, Note_on_c, 1, 60, 64
1, 12412, Note_on_c, 0, 67, 75
1, 12435, Note_on_c, 0, 67, 0
1, 12436, Note_on_c, 0, 66, 76
1, 12459, Note_on_c, 0, 66, 0
1, 12460, Note_on_c, 0, 67, 77
1, 12473, Note_on_c, 1, 65, 0
1, 12480, Note_on_c, 1, 64, 75
1, 12483, Note_on_c, 0, 67, 0
1, 12484, Note_on_c, 0, 72, 78
1, 12507, Note_on_c, 0, 72, 0
1, 12508, Note_on_c, 0, 67, 79
1, 12531, Note_on_c, 0, 67, 0
1, 12532, Note_on_c, 0, 76, 80
1, 12555, Note_on_c, 0, 76, 0
1, 12556, Note_on_c, 0, 72, 79
1, 12569, Note_on_c, 1, 64, 0
1, 12576, Note_on_c, 0, 79, 64
1, 12576, Note_on_c, 1, 64, 75
1, 12579, Note_on_c, 0, 72, 0
1, 12580, Note_on_c, 0, 79, 78
1, 12603, Note_on_c, 0, 79, 0
1, 12604, Note_on_c, 0, 76, 77
1, 12627, Note_on_c, 0, 76, 0
1, 12628, Note_on_c, 0, 74, 76
1, 12634, Note_on_c, 0, 74, 0
1, 12634, Note_on_c, 0, 76, 76
1, 12640, Note_on_c, 0, 76, 0
1, 12640, Note_on_c, 0, 74, 76
1, 12649, Note_on_c, 1, 60, 0
1, 12651, Note_on_c, 0, 74, 0
1, 12652, Note_on_c, 0, 72, 75
1, 12665, Note_on_c, 1, 64, 0
1, 12672, Note_on_c, 1, 65, 75
1, 12675, Note_on_c, 0, 72, 0
1, 12676, Note_on_c, 0, 81, 75
1, 12682, Note_on_c, 1, 65, 0
1, 12696, Note_on_c, 1, 65, 75
1, 12719, Note_on_c, 1, 65, 0
1, 12720, Note_on_c, 1, 64, 75
1, 12743, Note_on_c, 1, 64, 0
1, 12744, Note_on_c, 1, 65, 75
1, 12761, Note_on_c, 0, 79, 0
1, 12767, Note_on_c, 1, 65, 0
1, 12768, Note_on_c, 0, 77, 64
1, 12768, Note_on_c, 1, 74, 75
1, 12778, Note_on_c, 1, 74, 0
1, 12792, Note_on_c, 1, 74, 75
1, 12815, Note_on_c, 1, 74, 0
1, 12816, Note_on_c, 1, 73, 75
1, 12839, Note_on_c, 1, 73, 0
1, 12840, Note_on_c, 1, 74, 75
1, 12853, Note_on_c, 0, 81, 0
1, 12857, Note_on_c, 0, 77, 0
1, 12863, Note_on_c, 1, 74, 0
1, 12864, Note_on_c, 0, 79, 64
1, 12864, Note_on_c, 1, 71, 75
1, 12868, Note_on_c, 0, 77, 75
1, 12874, Note_on_c, 1, 71, 0
1, 12888, Note_on_c, 1, 71, 75
1, 12911, Note_on_c, 1, 71, 0
1, 12912, Note_on_c, 1, 69, 75
1, 12935, Note_on_c, 1, 69, 0
1, 12936, Note_on_c, 1, 71, 75
1, 12959, Note_on_c, 1, 71, 0
1, 12960, Note_on_c, 1, 72, 75
1, 12987, Note_on_c, 0, 77, 0
1, 12988, Note_on_c, 0, 76, 75
1, 13011, Note_on_c, 0, 76, 0
1, 13012, Note_on_c, 0, 75, 76
1, 13035, Note_on_c, 0, 75, 0
1, 13036, Note_on_c, 0, 76, 76
1, 13049, Note_on_c, 0, 79, 0
1, 13059, Note_on_c, 0, 76, 0
1, 13060, Note_on_c, 0, 81, 77
1, 13083, Note_on_c, 0, 81, 0
1, 13084, Note_on_c, 0, 79, 77
1, 13107, Note_on_c, 0, 79, 0
1, 13108, Note_on_c, 0, 78, 78
1, 13131, Note_on_c, 0, 78, 0
1, 13132, Note_on_c, 0, 79, 78
1, 13137, Note_on_c, 1, 72, 0
1, 13155, Note_on_c, 0, 79, 0
1, 13156, Note_on_c, 0, 86, 79
1, 13179, Note_on_c, 0, 86, 0
1, 13180, Note_on_c, 0, 84, 79
1, 13203, Note_on_c, 0, 84, 0
1, 13204, Note_on_c, 0, 83, 80
1, 13224, Note_on_c, 1, 60, 75
1, 13224, Note_on_c, 1, 52, 75
1, 13227, Note_on_c, 0, 83, 0
1, 13228, Note_on_c, 0, 82, 79
1, 13248, Note_on_c, 1, 52, 0
1, 13248, Note_on_c, 1, 53, 75
1, 13251, Note_on_c, 0, 82, 0
1, 13252, Note_on_c, 0, 81, 79
1, 13275, Note_on_c, 0, 81, 0
1, 13276, Note_on_c, 0, 80, 78
1, 13299, Note_on_c, 0, 80, 0
1, 13300, Note_on_c, 0, 79, 78
1, 13323, Note_on_c, 0, 79, 0
1, 13324, Note_on_c, 0, 77, 78
1, 13324, Note_on_c, 0, 74, 78
1, 13337, Note_on_c, 1, 60, 0
1, 13337, Note_on_c, 1, 53, 0
1, 13344, Note_on_c, 1, 55, 75
1, 13347, Note_on_c, 0, 77, 0
1, 13347, Note_on_c, 0, 74, 0
1, 13348, Note_on_c, 0, 76, 77
1, 13348, Note_on_c, 0, 72, 77
1, 13433, Note_on_c, 1, 55, 0
1, 13437, Note_on_c, 0, 76, 0
1, 13437, Note_on_c, 0, 72, 0
1, 13440, Note_on_c, 1, 43, 75
1, 13444, Note_on_c, 0, 79, 76
1, 13444, Note_on_c, 0, 76, 76
1, 13467, Note_on_c, 0, 79, 0
1, 13467, Note_on_c, 0, 76, 0
1, 13468, Note_on_c, 0, 77, 75
1, 13468, Note_on_c, 0, 74, 75
1, 13491, Note_on_c, 0, 77, 0
1, 13491, Note_on_c, 0, 74, 0
1, 13492, Note_on_c, 0, 76, 75
1, 13492, Note_on_c, 0, 72, 75
1, 13526, Note_on_c, 0, 76, 0
1, 13526, Note_on_c, 0, 72, 0
1, 13528, Note_on_c, 0, 74, 75
1, 13528, Note_on_c, 0, 71, 75
1, 13529, Note_on_c, 1, 43, 0
1, 13540, Note_on_c, 0, 74, 0
1, 13540, Note_on_c, 0, 71, 0
1, 13540, Note_on_c, 0, 74, 75
1, 13540, Note_on_c, 0, 71, 75
1, 13629, Note_on_c, 0, 74, 0
1, 13629, Note_on_c, 0, 71, 0
1, 13632, Note_on_c, 1, 57, 75
1, 13636, Note_on_c, 0, 69, 75
1, 13644, Note_on_c, 1, 60, 75
1, 13656, Note_on_c, 1, 63, 75
1, 13660, Note_on_c, 0, 72, 75
1, 13668, Note_on_c, 1, 66, 75
1, 13755, Note_on_c, 0, 72, 0
1, 13755, Note_on_c, 0, 69, 0
1, 13756, Note_on_c, 0, 72, 75
1, 13762, Note_on_c, 0, 72, 0
1, 13762, Note_on_c, 0, 71, 75
1, 13768, Note_on_c, 0, 71, 0
1, 13768, Note_on_c, 0, 72, 75
1, 13779, Note_on_c, 0, 72, 0
1, 13780, Note_on_c, 0, 74, 75
1, 13803, Note_on_c, 0, 74, 0
1, 13804, Note_on_c, 0, 75, 75
1, 13817, Note_on_c, 1, 66, 0
1, 13817, Note_on_c, 1, 63, 0
1, 13817, Note_on_c, 1, 60, 0
1, 13817, Note_on_c, 1, 57, 0
1, 13827, Note_on_c, 0, 75, 0
1, 13828, Note_on_c, 0, 75, 75
1, 13873, Note_on_c, 0, 75, 0
1, 13876, Note_on_c, 0, 66, 75
1, 13921, Note_on_c, 0, 66, 0
1, 13924, Note_on_c, 0, 74, 75
1, 14016, Note_on_c, 1, 62, 75
1, 14016, Note_on_c, 1, 59, 75
1, 14035, Note_on_c, 0, 74, 0
1, 14036, Note_on_c, 0, 72, 75
1, 14051, Note_on_c, 0, 72, 0
1, 14052, Note_on_c, 0, 71, 75
1, 14067, Note_on_c, 0, 71, 0
1, 14068, Note_on_c, 0, 69, 75
1, 14083, Note_on_c, 0, 69, 0
1, 14084, Note_on_c, 0, 67, 75
1, 14099, Note_on_c, 0, 67, 0
1, 14100, Note_on_c, 0, 65, 75
1, 14105, Note_on_c, 1, 62, 0
1, 14105, Note_on_c, 1, 59, 0
1, 14112, Note_on_c, 1, 60, 75
1, 14115, Note_on_c, 0, 65, 0
1, 14116, Note_on_c, 0, 64, 75
1, 14131, Note_on_c, 0, 64, 0
1, 14132, Note_on_c, 0, 67, 75
1, 14147, Note_on_c, 0, 67, 0
1, 14148, Note_on_c, 0, 71, 76
1, 14163, Note_on_c, 0, 71, 0
1, 14164, Note_on_c, 0, 72, 76
1, 14179, Note_on_c, 0, 72, 0
1, 14180, Note_on_c, 0, 76, 77
1, 14195, Note_on_c, 0, 76, 0
1, 14196, Note_on_c, 0, 79, 78
1, 14201, Note_on_c, 1, 60, 0
1, 14211, Note_on_c, 0, 79, 0
1, 14212, Note_on_c, 0, 84, 94
1, 14212, Note_on_c, 0, 72, 94
1, 14304, Note_on_c, 1, 55, 75
1, 14304, Note_on_c, 1, 52, 75
1, 14323, Note_on_c, 0, 84, 0
1, 14323, Note_on_c, 0, 72, 0
1, 14324, Note_on_c, 0, 83, 77
1, 14324, Note_on_c, 0, 71, 77
1, 14339, Note_on_c, 0, 83, 0
1, 14339, Note_on_c, 0, 71, 0
1, 14340, Note_on_c, 0, 81, 77
1, 14340, Note_on_c, 0, 69, 77
1, 14355, Note_on_c, 0, 81, 0
1, 14355, Note_on_c, 0, 69, 0
1, 14356, Note_on_c, 0, 79, 77
1, 14356, Note_on_c, 0, 67, 77
1, 14371, Note_on_c, 0, 79, 0
1, 14371, Note_on_c, 0, 67, 0
1, 14372, Note_on_c, 0, 77, 76
1, 14372, Note_on_c, 0, 65, 76
1, 14387, Note_on_c, 0, 77, 0
1, 14387, Note_on_c, 0, 65, 0
1, 14388, Note_on_c, 0, 76, 76
1, 14388, Note_on_c, 0, 64, 76
1, 14393, Note_on_c, 1, 55, 0
1, 14393, Note_on_c, 1, 52, 0
1, 14400, Note_on_c, 1, 57, 75
1, 14400, Note_on_c, 1, 53, 75
1, 14403, Note_on_c, 0, 76, 0
1, 14403, Note_on_c, 0, 64, 0
1, 14404, Note_on_c, 0, 74, 75
1, 14404, Note_on_c, 0, 62, 75
1, 14449, Note_on_c, 0, 74, 0
1, 14449, Note_on_c, 0, 62, 0
1, 14452, Note_on_c, 0, 81, 75
1, 14452, Note_on_c, 0, 77, 75
1, 14472, Note_on_c, 0, 81, 0
1, 14472, Note_on_c, 0, 77, 0
1, 14489, Note_on_c, 1, 57, 0
1, 14489, Note_on_c, 1, 53, 0
1, 14496, Note_on_c, 1, 55, 75
1, 14548, Note_on_c, 0, 79, 75
1, 14548, Note_on_c, 0, 76, 75
1, 14585, Note_on_c, 1, 55, 0
1, 14592, Note_on_c, 1, 43, 75
1, 14593, Note_on_c, 0, 79, 0
1, 14593, Note_on_c, 0, 76, 0
1, 14644, Note_on_c, 0, 71, 75
1, 14644, Note_on_c, 0, 65, 75
1, 14681, Note_on_c, 1, 43, 0
1, 14689, Note_on_c, 0, 71, 0
1, 14689, Note_on_c, 0, 65, 0
1, 14692, Note_on_c, 0, 88, 96
1, 14692, Note_on_c, 0, 84, 96
1, 14784, Note_on_c, 1, 36, 75
1, 14790, Note_on_c, 1, 40, 75
1, 14796, Note_on_c, 1, 43, 75
1, 14802, Note_on_c, 1, 48, 75
1, 14803, Note_on_c, 0, 88, 0
1, 14803, Note_on_c, 0, 84, 0
1, 14804, Note_on_c, 0, 86, 80
1, 14804, Note_on_c, 0, 83, 80
1, 14811, Note_on_c, 0, 86, 0
1, 14811, Note_on_c, 0, 83, 0
1, 14820, Note_on_c, 0, 84, 80
1, 14820, Note_on_c, 0, 81, 80
1, 14827, Note_on_c, 0, 84, 0
1, 14827, Note_on_c, 0, 81, 0
1, 14836, Note_on_c, 0, 83, 80
1, 14836, Note_on_c, 0, 79, 80
1, 14843, Note_on_c, 0, 83, 0
1, 14843, Note_on_c, 0, 79, 0
1, 14852, Note_on_c, 0, 81, 80
1, 14852, Note_on_c, 0, 77, 80
1, 14859, Note_on_c, 0, 81, 0
1, 14859, Note_on_c, 0, 77, 0
1, 14868, Note_on_c, 0, 79, 80
1, 14868, Note_on_c, 0, 76, 80
1, 14875, Note_on_c, 0, 79, 0
1, 14875, Note_on_c, 0, 76, 0
1, 14877, Note_on_c, 1, 48, 0
1, 14877, Note_on_c, 1, 43, 0
1, 14877, Note_on_c, 1, 40, 0
1, 14877, Note_on_c, 1, 36, 0
1, 14884, Note_on_c, 0, 77, 80
1, 14884, Note_on_c, 0, 74, 80
1, 14891, Note_on_c, 0, 77, 0
1, 14891, Note_on_c, 0, 74, 0
1, 14900, Note_on_c, 0, 76, 80
1, 14900, Note_on_c, 0, 72, 80
1, 14907, Note_on_c, 0, 76, 0
1, 14907, Note_on_c, 0, 72, 0
1, 14916, Note_on_c, 0, 74, 80
1, 14916, Note_on_c, 0, 71, 80
1, 14923, Note_on_c, 0, 74, 0
1, 14923, Note_on_c, 0, 71, 0
1, 14932, Note_on_c, 0, 72, 80
1, 14932, Note_on_c, 0, 69, 80
1, 14939, Note_on_c, 0, 72, 0
1, 14939, Note_on_c, 0, 69, 0
1, 14948, Note_on_c, 0, 71, 80
1, 14948, Note_on_c, 0, 67, 80
1, 14955, Note_on_c, 0, 71, 0
1, 14955, Note_on_c, 0, 67, 0
1, 14964, Note_on_c, 0, 69, 80
1, 14964, Note_on_c, 0, 65, 80
1, 14971, Note_on_c, 0, 69, 0
1, 14971, Note_on_c, 0, 65, 0
1, 14980, Note_on_c, 0, 67, 80
1, 14980, Note_on_c, 0, 64, 80
1, 15000, Note_on_c, 0, 67, 0
1, 15000, Note_on_c, 0, 64, 0
1, 15052, Note_on_c, 0, 65, 80
1, 15052, Note_on_c, 0, 62, 80
1, 15062, Note_on_c, 0, 65, 0
1, 15062, Note_on_c, 0, 62, 0
1, 15072, Note_on_c, 1, 55, 75
1, 15076, Note_on_c, 0, 64, 80
1, 15076, Note_on_c, 0, 60, 80
1, 15096, Note_on_c, 0, 64, 0
1, 15096, Note_on_c, 0, 60, 0
1, 15117, Note_on_c, 1, 55, 0
1, 15168, Note_on_c, 1, 43, 75
1, 15172, Note_on_c, 0, 62, 80
1, 15172, Note_on_c, 0, 59, 80
1, 15213, Note_on_c, 1, 43, 0
1, 15217, Note_on_c, 0, 62, 0
1, 15217, Note_on_c, 0, 59, 0
1, 15264, Note_on_c, 1, 36, 75
1, 15268, Note_on_c, 0, 60, 75
1, 15268, Note_on_c, 0, 55, 75
1, 15268, Note_on_c, 0, 52, 75
1, 15287, Note_on_c, 1, 36, 0
1, 15288, Note_on_c, 1, 48, 75
1, 15311, Note_on_c, 1, 48, 0
1, 15312, Note_on_c, 1, 47, 75
1, 15335, Note_on_c, 1, 47, 0
1, 15336, Note_on_c, 1, 48, 75
1, 15359, Note_on_c, 1, 48, 0
1, 15360, Note_on_c, 1, 36, 75
1, 15383, Note_on_c, 1, 36, 0
1, 15384, Note_on_c, 1, 48, 75
1, 15401, Note_on_c, 0, 60, 0
1, 15401, Note_on_c, 0, 55, 0
1, 15401, Note_on_c, 0, 52, 0
1, 15407, Note_on_c, 1, 48, 0
1, 15408, Note_on_c, 1, 41, 75
1, 15412, Note_on_c, 0, 57, 75
1, 15431, Note_on_c, 1, 41, 0
1, 15432, Note_on_c, 1, 48, 75
1, 15455, Note_on_c, 1, 48, 0
1, 15456, Note_on_c, 1, 40, 75
1, 15460, Note_on_c, 0, 57, 0
1, 15460, Note_on_c, 0, 55, 75
1, 15479, Note_on_c, 1, 40, 0
1, 15480, Note_on_c, 0, 55, 0
1, 15480, Note_on_c, 1, 48, 75
1, 15503, Note_on_c, 1, 48, 0
1, 15504, Note_on_c, 1, 38, 75
1, 15508, Note_on_c, 0, 65, 75
1, 15508, Note_on_c, 0, 59, 75
1, 15527, Note_on_c, 1, 38, 0
1, 15528, Note_on_c, 0, 65, 0
1, 15528, Note_on_c, 0, 59, 0
1, 15528, Note_on_c, 1, 48, 75
1, 15551, Note_on_c, 1, 48, 0
1, 15552, Note_on_c, 1, 36, 75
1, 15556, Note_on_c, 0, 65, 75
1, 15556, Note_on_c, 0, 59, 75
1, 15575, Note_on_c, 1, 36, 0
1, 15576, Note_on_c, 1, 48, 75
1, 15599, Note_on_c, 1, 48, 0
1, 15600, Note_on_c, 1, 47, 75
1, 15623, Note_on_c, 1, 47, 0
1, 15624, Note_on_c, 1, 48, 75
1, 15647, Note_on_c, 1, 48, 0
1, 15648, Note_on_c, 1, 36, 75
1, 15652, Note_on_c, 0, 65, 0
1, 15652, Note_on_c, 0, 59, 0
1, 15652, Note_on_c, 0, 64, 75
1, 15652, Note_on_c, 0, 60, 75
1, 15671, Note_on_c, 1, 36, 0
1, 15672, Note_on_c, 1, 48, 75
1, 15695, Note_on_c, 1, 48, 0
1, 15696, Note_on_c, 1, 41, 75
1, 15697, Note_on_c, 0, 64, 0
1, 15697, Note_on_c, 0, 60, 0
1, 15700, Note_on_c, 0, 57, 75
1, 15719, Note_on_c, 1, 41, 0
1, 15720, Note_on_c, 1, 48, 75
1, 15743, Note_on_c, 1, 48, 0
1, 15744, Note_on_c, 1, 40, 75
1, 15748, Note_on_c, 0, 57, 0
1, 15748, Note_on_c, 0, 55, 75
1, 15767, Note_on_c, 1, 40, 0
1, 15768, Note_on_c, 0, 55, 0
1, 15768, Note_on_c, 1, 48, 75
1, 15791, Note_on_c, 1, 48, 0
1, 15792, Note_on_c, 1, 38, 75
1, 15796, Note_on_c, 0, 59, 75
1, 15796, Note_on_c, 0, 53, 75
1, 15815, Note_on_c, 1, 38, 0
1, 15816, Note_on_c, 0, 59, 0
1, 15816, Note_on_c, 0, 53, 0
1, 15816, Note_on_c, 1, 48, 75
1, 15839, Note_on_c, 1, 48, 0
1, 15840, Note_on_c, 1, 59, 75
1, 15840, Note_on_c, 1, 53, 75
1, 15840, Note_on_c, 1, 36, 75
1, 15936, Note_on_c, 1, 59, 0
1, 15936, Note_on_c, 1, 53, 0
1, 15936, Note_on_c, 1, 40, 75
1, 15942, Note_on_c, 1, 43, 75
1, 15948, Note_on_c, 1, 48, 75
1, 15954, Note_on_c, 1, 52, 75
1, 15960, Note_on_c, 1, 55, 75
1, 15966, Note_on_c, 1, 60, 75
1, 16025, Note_on_c, 1, 60, 0
1, 16025, Note_on_c, 1, 55, 0
1, 16025, Note_on_c, 1, 52, 0
1, 16025, Note_on_c, 1, 48, 0
1, 16025, Note_on_c, 1, 43, 0
1, 16025, Note_on_c, 1, 40, 0
1, 16025, Note_on_c, 1, 36, 0
1, 16128, Note_on_c, 1, 64, 75
1, 16151, Note_on_c, 1, 64, 0
1, 16152, Note_on_c, 1, 72, 75
1, 16175, Note_on_c, 1, 72, 0
1, 16176, Note_on_c, 1, 71, 75
1, 16199, Note_on_c, 1, 71, 0
1, 16200, Note_on_c, 1, 72, 75
1, 16223, Note_on_c, 1, 72, 0
1, 16224, Note_on_c, 1, 75, 75
1, 16247, Note_on_c, 1, 75, 0
1, 16248, Note_on_c, 1, 72, 75
1, 16271, Note_on_c, 1, 72, 0
1, 16272, Note_on_c, 1, 71, 75
1, 16295, Note_on_c, 1, 71, 0
1, 16296, Note_on_c, 1, 72, 75
1, 16319, Note_on_c, 1, 72, 0
1, 16320, Note_on_c, 1, 69, 75
1, 16343, Note_on_c, 1, 69, 0
1, 16344, Note_on_c, 1, 72, 75
1, 16367, Note_on_c, 1, 72, 0
1, 16368, Note_on_c, 1, 67, 75
1, 16372, Note_on_c, 0, 75, 75
1, 16391, Note_on_c, 1, 67, 0
1, 16392, Note_on_c, 1, 72, 75
1, 16415, Note_on_c, 1, 72, 0
1, 16416, Note_on_c, 1, 66, 75
1, 16417, Note_on_c, 0, 75, 0
1, 16420, Note_on_c, 0, 74, 75
1, 16439, Note_on_c, 1, 66, 0
1, 16440, Note_on_c, 1, 72, 75
1, 16463, Note_on_c, 1, 72, 0
1, 16464, Note_on_c, 1, 67, 75
1, 16465, Note_on_c, 0, 74, 0
1, 16468, Note_on_c, 0, 77, 75
1, 16474, Note_on_c, 0, 77, 0
1, 16474, Note_on_c, 0, 75, 75
1, 16487, Note_on_c, 1, 67, 0
1, 16488, Note_on_c, 1, 72, 75
1, 16511, Note_on_c, 1, 72, 0
1, 16512, Note_on_c, 1, 66, 75
1, 16513, Note_on_c, 0, 75, 0
1, 16516, Note_on_c, 0, 74, 75
1, 16535, Note_on_c, 1, 66, 0
1, 16536, Note_on_c, 1, 72, 75
1, 16559, Note_on_c, 1, 72, 0
1, 16560, Note_on_c, 1, 67, 75
1, 16561, Note_on_c, 0, 74, 0
1, 16564, Note_on_c, 0, 77, 75
1, 16570, Note_on_c, 0, 77, 0
1, 16570, Note_on_c, 0, 75, 75
1, 16583, Note_on_c, 1, 67, 0
1, 16584, Note_on_c, 1, 72, 75
1, 16607, Note_on_c, 1, 72, 0
1, 16608, Note_on_c, 1, 66, 75
1, 16609, Note_on_c, 0, 75, 0
1, 16612, Note_on_c, 0, 74, 75
1, 16631, Note_on_c, 1, 66, 0
1, 16632, Note_on_c, 1, 72, 75
1, 16655, Note_on_c, 1, 72, 0
1, 16656, Note_on_c, 1, 67, 75
1, 16657, Note_on_c, 0, 74, 0
1, 16660, Note_on_c, 0, 77, 75
1, 16666, Note_on_c, 0, 77, 0
1, 16666, Note_on_c, 0, 75, 75
1, 16679, Note_on_c, 1, 67, 0
1, 16680, Note_on_c, 1, 72, 75
1, 16703, Note_on_c, 1, 72, 0
1, 16704, Note_on_c, 1, 66, 75
1, 16705, Note_on_c, 0, 75, 0
1, 16708, Note_on_c, 0, 74, 75
1, 16727, Note_on_c, 1, 66, 0
1, 16728, Note_on_c, 1, 72, 75
1, 16751, Note_on_c, 1, 72, 0
1, 16752, Note_on_c, 1, 69, 75
1, 16753, Note_on_c, 0, 74, 0
1, 16756, Note_on_c, 0, 81, 75
1, 16775, Note_on_c, 1, 69, 0
1, 16776, Note_on_c, 1, 72, 75
1, 16799, Note_on_c, 1, 72, 0
1, 16800, Note_on_c, 1, 66, 75
1, 16803, Note_on_c, 0, 81, 0
1, 16804, Note_on_c, 0, 81, 91
1, 16823, Note_on_c, 1, 66, 0
1, 16824, Note_on_c, 1, 72, 75
1, 16847, Note_on_c, 1, 72, 0
1, 16848, Note_on_c, 1, 69, 75
1, 16871, Note_on_c, 1, 69, 0
1, 16872, Note_on_c, 1, 72, 75
1, 16895, Note_on_c, 1, 72, 0
1, 16896, Note_on_c, 1, 66, 75
1, 16919, Note_on_c, 1, 66, 0
1, 16920, Note_on_c, 1, 72, 75
1, 16943, Note_on_c, 1, 72, 0
1, 16944, Note_on_c, 1, 69, 75
1, 16945, Note_on_c, 0, 81, 0
1, 16948, Note_on_c, 0, 79, 75
1, 16960, Note_on_c, 0, 79, 0
1, 16960, Note_on_c, 0, 78, 75
1, 16967, Note_on_c, 1, 69, 0
1, 16968, Note_on_c, 1, 72, 75
1, 16972, Note_on_c, 0, 78, 0
1, 16972, Note_on_c, 0, 76, 75
1, 16984, Note_on_c, 0, 76, 0
1, 16984, Note_on_c, 0, 74, 75
1, 16991, Note_on_c, 1, 72, 0
1, 16992, Note_on_c, 1, 70, 75
1, 16992, Note_on_c, 1, 67, 75
1, 16996, Note_on_c, 0, 74, 0
1, 16996, Note_on_c, 0, 74, 75
1, 17019, Note_on_c, 0, 74, 0
1, 17020, Note_on_c, 0, 82, 76
1, 17043, Note_on_c, 0, 82, 0
1, 17044, Note_on_c, 0, 81, 77
1, 17067, Note_on_c, 0, 81, 0
1, 17068, Note_on_c, 0, 84, 78
1, 17081, Note_on_c, 1, 70, 0
1, 17081, Note_on_c, 1, 67, 0
1, 17091, Note_on_c, 0, 84, 0
1, 17092, Note_on_c, 0, 82, 79
1, 17115, Note_on_c, 0, 82, 0
1, 17116, Note_on_c, 0, 86, 80
1, 17139, Note_on_c, 0, 86, 0
1, 17140, Note_on_c, 0, 84, 79
1, 17163, Note_on_c, 0, 84, 0
1, 17164, Note_on_c, 0, 82, 78
1, 17187, Note_on_c, 0, 82, 0
1, 17188, Note_on_c, 0, 81, 77
1, 17211, Note_on_c, 0, 81, 0
1, 17212, Note_on_c, 0, 79, 76
1, 17235, Note_on_c, 0, 79, 0
1, 17236, Note_on_c, 0, 78, 75
1, 17259, Note_on_c, 0, 78, 0
1, 17260, Note_on_c, 0, 81, 75
1, 17272, Note_on_c, 0, 81, 0
1, 17272, Note_on_c, 0, 79, 75
1, 17280, Note_on_c, 1, 60, 75
1, 17283, Note_on_c, 0, 79, 0
1, 17284, Note_on_c, 0, 77, 75
1, 17303, Note_on_c, 1, 60, 0
1, 17304, Note_on_c, 1, 70, 75
1, 17327, Note_on_c, 1, 70, 0
1, 17328, Note_on_c, 1, 69, 75
1, 17351, Note_on_c, 1, 69, 0
1, 17352, Note_on_c, 1, 70, 75
1, 17375, Note_on_c, 1, 70, 0
1, 17376, Note_on_c, 1, 67, 75
1, 17380, Note_on_c, 0, 77, 0
1, 17380, Note_on_c, 0, 76, 75
1, 17399, Note_on_c, 1, 67, 0
1, 17400, Note_on_c, 1, 70, 75
1, 17423, Note_on_c, 1, 70, 0
1, 17424, Note_on_c, 1, 65, 75
1, 17425, Note_on_c, 0, 76, 0
1, 17428, Note_on_c, 0, 73, 75
1, 17447, Note_on_c, 1, 65, 0
1, 17448, Note_on_c, 1, 70, 75
1, 17471, Note_on_c, 1, 70, 0
1, 17472, Note_on_c, 1, 64, 75
1, 17473, Note_on_c, 0, 73, 0
1, 17476, Note_on_c, 0, 72, 75
1, 17495, Note_on_c, 1, 64, 0
1, 17496, Note_on_c, 1, 70, 75
1, 17519, Note_on_c, 1, 70, 0
1, 17520, Note_on_c, 1, 65, 75
1, 17521, Note_on_c, 0, 72, 0
1, 17524, Note_on_c, 0, 75, 75
1, 17530, Note_on_c, 0, 75, 0
1, 17530, Note_on_c, 0, 73, 75
1, 17543, Note_on_c, 1, 65, 0
1, 17544, Note_on_c, 1, 70, 75
1, 17567, Note_on_c, 1, 70, 0
1, 17568, Note_on_c, 1, 64, 75
1, 17569, Note_on_c, 0, 73, 0
1, 17572, Note_on_c, 0, 72, 75
1, 17591, Note_on_c, 1, 64, 0
1, 17592, Note_on_c, 1, 70, 75
1, 17615, Note_on_c, 1, 70, 0
1, 17616, Note_on_c, 1, 65, 75
1, 17617, Note_on_c, 0, 72, 0
1, 17620, Note_on_c, 0, 73, 75
1, 17630, Note_on_c, 0, 73, 0
1, 17639, Note_on_c, 1, 65, 0
1, 17640, Note_on_c, 1, 70, 75
1, 17644, Note_on_c, 0, 73, 75
1, 17663, Note_on_c, 1, 70, 0
1, 17664, Note_on_c, 1, 64, 75
1, 17668, Note_on_c, 0, 73, 0
1, 17668, Note_on_c, 0, 72, 75
1, 17678, Note_on_c, 0, 72, 0
1, 17687, Note_on_c, 1, 64, 0
1, 17688, Note_on_c, 1, 70, 75
1, 17692, Note_on_c, 0, 72, 75
1, 17711, Note_on_c, 1, 70, 0
1, 17712, Note_on_c, 1, 65, 75
1, 17716, Note_on_c, 0, 72, 0
1, 17716, Note_on_c, 0, 73, 75
1, 17726, Note_on_c, 0, 73, 0
1, 17735, Note_on_c, 1, 65, 0
1, 17736, Note_on_c, 1, 70, 75
1, 17740, Note_on_c, 0, 73, 75
1, 17759, Note_on_c, 1, 70, 0
1, 17760, Note_on_c, 1, 64, 75
1, 17764, Note_on_c, 0, 73, 0
1, 17764, Note_on_c, 0, 72, 75
1, 17774, Note_on_c, 0, 72, 0
1, 17783, Note_on_c, 1, 64, 0
1, 17784, Note_on_c, 1, 70, 75
1, 17788, Note_on_c, 0, 72, 75
1, 17807, Note_on_c, 1, 70, 0
1, 17808, Note_on_c, 1, 65, 75
1, 17812, Note_on_c, 0, 72, 0
1, 17812, Note_on_c, 0, 73, 75
1, 17822, Note_on_c, 0, 73, 0
1, 17831, Note_on_c, 1, 65, 0
1, 17832, Note_on_c, 1, 70, 75
1, 17836, Note_on_c, 0, 73, 75
1, 17855, Note_on_c, 1, 70, 0
1, 17856, Note_on_c, 1, 64, 75
1, 17859, Note_on_c, 0, 73, 0
1, 17860, Note_on_c, 0, 72, 75
1, 17879, Note_on_c, 1, 64, 0
1, 17880, Note_on_c, 1, 70, 75
1, 17903, Note_on_c, 1, 70, 0
1, 17904, Note_on_c, 1, 67, 75
1, 17905, Note_on_c, 0, 72, 0
1, 17908, Note_on_c, 0, 79, 75
1, 17927, Note_on_c, 1, 67, 0
1, 17928, Note_on_c, 1, 70, 75
1, 17951, Note_on_c, 1, 70, 0
1, 17952, Note_on_c, 1, 64, 75
1, 17955, Note_on_c, 0, 79, 0
1, 17956, Note_on_c, 0, 79, 91
1, 17975, Note_on_c, 1, 64, 0
1, 17976, Note_on_c, 1, 70, 75
1, 17999, Note_on_c, 1, 70, 0
1, 18000, Note_on_c, 1, 67, 75
1, 18023, Note_on_c, 1, 67, 0
1, 18024, Note_on_c, 1, 70, 75
1, 18047, Note_on_c, 1, 70, 0
1, 18048, Note_on_c, 1, 64, 75
1, 18071, Note_on_c, 1, 64, 0
1, 18072, Note_on_c, 1, 70, 75
1, 18095, Note_on_c, 1, 70, 0
1, 18096, Note_on_c, 1, 67, 75
1, 18097, Note_on_c, 0, 79, 0
1, 18100, Note_on_c, 0, 77, 75
1, 18112, Note_on_c, 0, 77, 0
1, 18112, Note_on_c, 0, 76, 75
1, 18119, Note_on_c, 1, 67, 0
1, 18120, Note_on_c, 1, 70, 75
1, 18124, Note_on_c, 0, 76, 0
1, 18124, Note_on_c, 0, 74, 75
1, 18136, Note_on_c, 0, 74, 0
1, 18136, Note_on_c, 0, 72, 75
1, 18143, Note_on_c, 1, 70, 0
1, 18144, Note_on_c, 1, 63, 75
1, 18148, Note_on_c, 0, 72, 0
1, 18148, Note_on_c, 0, 72, 75
1, 18167, Note_on_c, 1, 63, 0
1, 18168, Note_on_c, 1, 69, 75
1, 18171, Note_on_c, 0, 72, 0
1, 18172, Note_on_c, 0, 84, 75
1, 18191, Note_on_c, 1, 69, 0
1, 18192, Note_on_c, 1, 65, 75
1, 18215, Note_on_c, 1, 65, 0
1, 18216, Note_on_c, 1, 69, 75
1, 18217, Note_on_c, 0, 84, 0
1, 18220, Note_on_c, 0, 82, 75
1, 18239, Note_on_c, 1, 69, 0
1, 18240, Note_on_c, 1, 63, 75
1, 18263, Note_on_c, 1, 63, 0
1, 18264, Note_on_c, 1, 69, 75
1, 18265, Note_on_c, 0, 82, 0
1, 18268, Note_on_c, 0, 81, 75
1, 18287, Note_on_c, 1, 69, 0
1, 18288, Note_on_c, 1, 65, 75
1, 18311, Note_on_c, 1, 65, 0
1, 18312, Note_on_c, 1, 69, 75
1, 18313, Note_on_c, 0, 81, 0
1, 18316, Note_on_c, 0, 79, 75
1, 18335, Note_on_c, 1, 69, 0
1, 18336, Note_on_c, 1, 63, 75
1, 18359, Note_on_c, 1, 63, 0
1, 18360, Note_on_c, 1, 69, 75
1, 18361, Note_on_c, 0, 79, 0
1, 18364, Note_on_c, 0, 77, 75
1, 18383, Note_on_c, 1, 69, 0
1, 18384, Note_on_c, 1, 65, 75
1, 18407, Note_on_c, 1, 65, 0
1, 18408, Note_on_c, 1, 69, 75
1, 18409, Note_on_c, 0, 77, 0
1, 18412, Note_on_c, 0, 84, 75
1, 18431, Note_on_c, 1, 69, 0
1, 18432, Note_on_c, 1, 62, 75
1, 18435, Note_on_c, 0, 84, 0
1, 18436, Note_on_c, 0, 82, 75
1, 18455, Note_on_c, 1, 62, 0
1, 18456, Note_on_c, 1, 70, 75
1, 18459, Note_on_c, 0, 82, 0
1, 18460, Note_on_c, 0, 86, 75
1, 18479, Note_on_c, 1, 70, 0
1, 18480, Note_on_c, 1, 65, 75
1, 18503, Note_on_c, 1, 65, 0
1, 18504, Note_on_c, 1, 70, 75
1, 18505, Note_on_c, 0, 86, 0
1, 18508, Note_on_c, 0, 84, 75
1, 18527, Note_on_c, 1, 70, 0
1, 18528, Note_on_c, 1, 62, 75
1, 18551, Note_on_c, 1, 62, 0
1, 18552, Note_on_c, 1, 70, 75
1, 18553, Note_on_c, 0, 84, 0
1, 18556, Note_on_c, 0, 82, 75
1, 18575, Note_on_c, 1, 70, 0
1, 18576, Note_on_c, 1, 65, 75
1, 18599, Note_on_c, 1, 65, 0
1, 18600, Note_on_c, 1, 70, 75
1, 18601, Note_on_c, 0, 82, 0
1, 18604, Note_on_c, 0, 81, 75
1, 18623, Note_on_c, 1, 70, 0
1, 18624, Note_on_c, 1, 62, 75
1, 18647, Note_on_c, 1, 62, 0
1, 18648, Note_on_c, 1, 70, 75
1, 18649, Note_on_c, 0, 81, 0
1, 18652, Note_on_c, 0, 79, 75
1, 18671, Note_on_c, 1, 70, 0
1, 18672, Note_on_c, 1, 65, 75
1, 18695, Note_on_c, 1, 65, 0
1, 18696, Note_on_c, 1, 70, 75
1, 18697, Note_on_c, 0, 79, 0
1, 18700, Note_on_c, 0, 77, 75
1, 18719, Note_on_c, 1, 70, 0
1, 18720, Note_on_c, 1, 60, 75
1, 18723, Note_on_c, 0, 77, 0
1, 18724, Note_on_c, 0, 76, 75
1, 18743, Note_on_c, 1, 60, 0
1, 18744, Note_on_c, 1, 70, 75
1, 18767, Note_on_c, 1, 70, 0
1, 18768, Note_on_c, 1, 61, 75
1, 18769, Note_on_c, 0, 76, 0
1, 18772, Note_on_c, 0, 79, 75
1, 18778, Note_on_c, 0, 79, 0
1, 18778, Note_on_c, 0, 77, 75
1, 18791, Note_on_c, 1, 61, 0
1, 18792, Note_on_c, 1, 70, 75
1, 18815, Note_on_c, 1, 70, 0
1, 18816, Note_on_c, 1, 60, 75
1, 18817, Note_on_c, 0, 77, 0
1, 18820, Note_on_c, 0, 76, 75
1, 18839, Note_on_c, 1, 60, 0
1, 18840, Note_on_c, 1, 70, 75
1, 18863, Note_on_c, 1, 70, 0
1, 18864, Note_on_c, 1, 61, 75
1, 18865, Note_on_c, 0, 76, 0
1, 18868, Note_on_c, 0, 79, 75
1, 18874, Note_on_c, 0, 79, 0
1, 18874, Note_on_c, 0, 77, 75
1, 18887, Note_on_c, 1, 61, 0
1, 18888, Note_on_c, 1, 70, 75
1, 18911, Note_on_c, 1, 70, 0
1, 18912, Note_on_c, 1, 60, 75
1, 18913, Note_on_c, 0, 77, 0
1, 18916, Note_on_c, 0, 76, 75
1, 18935, Note_on_c, 1, 60, 0
1, 18936, Note_on_c, 1, 70, 75
1, 18959, Note_on_c, 1, 70, 0
1, 18960, Note_on_c, 1, 61, 75
1, 18961, Note_on_c, 0, 76, 0
1, 18964, Note_on_c, 0, 79, 75
1, 18970, Note_on_c, 0, 79, 0
1, 18970, Note_on_c, 0, 77, 75
1, 18983, Note_on_c, 1, 61, 0
1, 18984, Note_on_c, 1, 70, 75
1, 19007, Note_on_c, 1, 70, 0
1, 19008, Note_on_c, 1, 60, 75
1, 19009, Note_on_c, 0, 77, 0
1, 19012, Note_on_c, 0, 76, 75
1, 19018, Note_on_c, 0, 76, 0
1, 19018, Note_on_c, 0, 79, 75
1, 19024, Note_on_c, 0, 79, 0
1, 19024, Note_on_c, 0, 82, 75
1, 19104, Note_on_c, 1, 60, 0
1, 19104, Note_on_c, 1, 64, 75
1, 19123, Note_on_c, 0, 82, 0
1, 19124, Note_on_c, 0, 81, 75
1, 19124, Note_on_c, 1, 64, 0
1, 19139, Note_on_c, 0, 81, 0
1, 19140, Note_on_c, 0, 79, 75
1, 19155, Note_on_c, 0, 79, 0
1, 19156, Note_on_c, 0, 77, 75
1, 19171, Note_on_c, 0, 77, 0
1, 19172, Note_on_c, 0, 76, 75
1, 19187, Note_on_c, 0, 76, 0
1, 19188, Note_on_c, 0, 74, 75
1, 19203, Note_on_c, 0, 74, 0
1, 19204, Note_on_c, 0, 72, 75
1, 19219, Note_on_c, 0, 72, 0
1, 19220, Note_on_c, 0, 70, 75
1, 19235, Note_on_c, 0, 70, 0
1, 19236, Note_on_c, 0, 69, 75
1, 19251, Note_on_c, 0, 69, 0
1, 19252, Note_on_c, 0, 67, 75
1, 19267, Note_on_c, 0, 67, 0
1, 19268, Note_on_c, 0, 65, 75
1, 19283, Note_on_c, 0, 65, 0
1, 19284, Note_on_c, 0, 64, 75
1, 19296, Note_on_c, 1, 41, 75
1, 19299, Note_on_c, 0, 64, 0
1, 19300, Note_on_c, 0, 60, 75
1, 19305, Note_on_c, 1, 45, 75
1, 19309, Note_on_c, 0, 65, 75
1, 19314, Note_on_c, 1, 48, 75
1, 19318, Note_on_c, 0, 69, 75
1, 19323, Note_on_c, 1, 53, 75
1, 19327, Note_on_c, 0, 72, 75
1, 19396, Note_on_c, 0, 65, 0
1, 19396, Note_on_c, 0, 60, 0
1, 19463, Note_on_c, 0, 72, 0
1, 19463, Note_on_c, 0, 69, 0
1, 19468, Note_on_c, 0, 70, 75
1, 19468, Note_on_c, 0, 67, 75
1, 19481, Note_on_c, 1, 53, 0
1, 19481, Note_on_c, 1, 48, 0
1, 19481, Note_on_c, 1, 45, 0
1, 19481, Note_on_c, 1, 41, 0
1, 19491, Note_on_c, 0, 70, 0
1, 19491, Note_on_c, 0, 67, 0
1, 19492, Note_on_c, 0, 69, 75
1, 19492, Note_on_c, 0, 65, 75
1, 19581, Note_on_c, 0, 69, 0
1, 19581, Note_on_c, 0, 65, 0
1, 19584, Note_on_c, 1, 62, 75
1, 19584, Note_on_c, 1, 58, 75
1, 19588, Note_on_c, 0, 67, 75
1, 19597, Note_on_c, 0, 67, 0
1, 19597, Note_on_c, 0, 69, 75
1, 19606, Note_on_c, 0, 69, 0
1, 19606, Note_on_c, 0, 67, 75
1, 19615, Note_on_c, 0, 67, 0
1, 19615, Note_on_c, 0, 69, 75
1, 19624, Note_on_c, 0, 69, 0
1, 19624, Note_on_c, 0, 67, 75
1, 19633, Note_on_c, 0, 67, 0
1, 19633, Note_on_c, 0, 69, 75
1, 19642, Note_on_c, 0, 69, 0
1, 19642, Note_on_c, 0, 67, 75
1, 19651, Note_on_c, 0, 67, 0
1, 19651, Note_on_c, 0, 69, 75
1, 19660, Note_on_c, 0, 69, 0
1, 19660, Note_on_c, 0, 67, 75
1, 19668, Note_on_c, 0, 67, 0
1, 19668, Note_on_c, 0, 65, 75
1, 19676, Note_on_c, 0, 65, 0
1, 19676, Note_on_c, 0, 67, 75
1, 19680, Note_on_c, 1, 62, 0
1, 19680, Note_on_c, 1, 58, 0
1, 19680, Note_on_c, 1, 60, 75
1, 19680, Note_on_c, 1, 57, 75
1, 19684, Note_on_c, 0, 67, 0
1, 19684, Note_on_c, 0, 65, 75
1, 19747, Note_on_c, 1, 60, 0
1, 19747, Note_on_c, 1, 57, 0
1, 19751, Note_on_c, 0, 65, 0
1, 19780, Note_on_c, 0, 65, 75
1, 19788, Note_on_c, 0, 65, 0
1, 19788, Note_on_c, 0, 67, 75
1, 19796, Note_on_c, 0, 67, 0
1, 19796, Note_on_c, 0, 69, 75
1, 19804, Note_on_c, 0, 69, 0
1, 19804, Note_on_c, 0, 67, 75
1, 19812, Note_on_c, 0, 67, 0
1, 19812, Note_on_c, 0, 65, 75
1, 19820, Note_on_c, 0, 65, 0
1, 19820, Note_on_c, 0, 67, 75
1, 19827, Note_on_c, 0, 67, 0
1, 19827, Note_on_c, 0, 69, 75
1, 19834, Note_on_c, 0, 69, 0
1, 19834, Note_on_c, 0, 70, 75
1, 19841, Note_on_c, 0, 70, 0
1, 19841, Note_on_c, 0, 72, 75
1, 19848, Note_on_c, 0, 72, 0
1, 19848, Note_on_c, 0, 74, 75
1, 19855, Note_on_c, 0, 74, 0
1, 19855, Note_on_c, 0, 76, 75
1, 19862, Note_on_c, 0, 76, 0
1, 19862, Note_on_c, 0, 77, 75
1, 19869, Note_on_c, 0, 77, 0
1, 19869, Note_on_c, 0, 79, 75
1, 19876, Note_on_c, 0, 79, 0
1, 19876, Note_on_c, 0, 81, 75
1, 19896, Note_on_c, 0, 81, 0
1, 19948, Note_on_c, 0, 79, 75
1, 19972, Note_on_c, 0, 79, 0
1, 19972, Note_on_c, 0, 77, 75
1, 19992, Note_on_c, 0, 77, 0
1, 20044, Note_on_c, 0, 76, 75
1, 20068, Note_on_c, 0, 76, 0
1, 20068, Note_on_c, 0, 74, 75
1, 20088, Note_on_c, 0, 74, 0
1, 20140, Note_on_c, 0, 72, 75
1, 20160, Note_on_c, 1, 64, 75
1, 20160, Note_on_c, 1, 60, 75
1, 20163, Note_on_c, 0, 72, 0
1, 20164, Note_on_c, 0, 72, 75
1, 20197, Note_on_c, 0, 72, 0
1, 20199, Note_on_c, 0, 70, 71
1, 20208, Note_on_c, 0, 70, 0
1, 20208, Note_on_c, 0, 72, 70
1, 20217, Note_on_c, 0, 72, 0
1, 20217, Note_on_c, 0, 70, 70
1, 20226, Note_on_c, 0, 70, 0
1, 20226, Note_on_c, 0, 72, 69
1, 20235, Note_on_c, 0, 72, 0
1, 20235, Note_on_c, 0, 70, 68
1, 20244, Note_on_c, 0, 70, 0
1, 20244, Note_on_c, 0, 69, 68
1, 20253, Note_on_c, 0, 69, 0
1, 20253, Note_on_c, 0, 70, 67
1, 20256, Note_on_c, 1, 64, 0
1, 20256, Note_on_c, 1, 60, 0
1, 20256, Note_on_c, 1, 65, 64
1, 20256, Note_on_c, 1, 62, 64
1, 20262, Note_on_c, 0, 70, 0
1, 20262, Note_on_c, 0, 69, 64
1, 20323, Note_on_c, 1, 65, 0
1, 20323, Note_on_c, 1, 62, 0
1, 20329, Note_on_c, 0, 69, 0
1, 20448, Note_on_c, 1, 62, 75
1, 20448, Note_on_c, 1, 58, 75
1, 20454, Note_on_c, 0, 67, 75
1, 20477, Note_on_c, 0, 67, 0
1, 20478, Note_on_c, 0, 69, 75
1, 20486, Note_on_c, 0, 69, 0
1, 20486, Note_on_c, 0, 67, 75
1, 20494, Note_on_c, 0, 67, 0
1, 20494, Note_on_c, 0, 65, 75
1, 20502, Note_on_c, 0, 65, 0
1, 20502, Note_on_c, 0, 67, 75
1, 20512, Note_on_c, 0, 67, 0
1, 20526, Note_on_c, 0, 69, 75
1, 20549, Note_on_c, 0, 69, 0
1, 20550, Note_on_c, 0, 70, 75
1, 20573, Note_on_c, 0, 70, 0
1, 20574, Note_on_c, 0, 72, 75
1, 20582, Note_on_c, 0, 72, 0
1, 20582, Note_on_c, 0, 70, 75
1, 20590, Note_on_c, 0, 70, 0
1, 20590, Note_on_c, 0, 69, 75
1, 20598, Note_on_c, 0, 69, 0
1, 20598, Note_on_c, 0, 70, 75
1, 20608, Note_on_c, 0, 70, 0
1, 20622, Note_on_c, 0, 72, 75
1, 20625, Note_on_c, 1, 62, 0
1, 20625, Note_on_c, 1, 58, 0
1, 20645, Note_on_c, 0, 72, 0
1, 20646, Note_on_c, 0, 73, 75
1, 20661, Note_on_c, 0, 73, 0
1, 20662, Note_on_c, 0, 76, 75
1, 20677, Note_on_c, 0, 76, 0
1, 20678, Note_on_c, 0, 74, 75
1, 20693, Note_on_c, 0, 74, 0
1, 20694, Note_on_c, 0, 62, 75
1, 20709, Note_on_c, 0, 62, 0
1, 20710, Note_on_c, 0, 70, 75
1, 20725, Note_on_c, 0, 70, 0
1, 20726, Note_on_c, 0, 67, 75
1, 20736, Note_on_c, 1, 58, 75
1, 20736, Note_on_c, 1, 48, 75
1, 20741, Note_on_c, 0, 67, 0
1, 20742, Note_on_c, 0, 65, 75
1, 20802, Note_on_c, 0, 65, 0
1, 20802, Note_on_c, 0, 64, 75
1, 20814, Note_on_c, 0, 64, 0
1, 20814, Note_on_c, 0, 67, 75
1, 20826, Note_on_c, 0, 67, 0
1, 20826, Note_on_c, 0, 64, 75
1, 20832, Note_on_c, 1, 58, 0
1, 20832, Note_on_c, 1, 48, 0
1, 20832, Note_on_c, 1, 57, 75
1, 20832, Note_on_c, 1, 53, 75
1, 20838, Note_on_c, 0, 64, 0
1, 20838, Note_on_c, 0, 65, 75
1, 20899, Note_on_c, 1, 57, 0
1, 20899, Note_on_c, 1, 53, 0
1, 20905, Note_on_c, 0, 65, 0
1, 21024, Note_on_c, 1, 53, 75
1, 21024, Note_on_c, 1, 45, 64
1, 21054, Note_on_c, 0, 63, 75
1, 21077, Note_on_c, 0, 63, 0
1, 21078, Note_on_c, 0, 62, 75
1, 21101, Note_on_c, 0, 62, 0
1, 21102, Note_on_c, 0, 63, 75
1, 21125, Note_on_c, 0, 63, 0
1, 21126, Note_on_c, 0, 60, 75
1, 21149, Note_on_c, 0, 60, 0
1, 21150, Note_on_c, 0, 63, 75
1, 21157, Note_on_c, 1, 45, 0
1, 21168, Note_on_c, 1, 46, 64
1, 21173, Note_on_c, 0, 63, 0
1, 21174, Note_on_c, 0, 58, 75
1, 21197, Note_on_c, 0, 58, 0
1, 21198, Note_on_c, 0, 63, 75
1, 21213, Note_on_c, 1, 46, 0
1, 21216, Note_on_c, 1, 48, 64
1, 21221, Note_on_c, 0, 63, 0
1, 21222, Note_on_c, 0, 57, 75
1, 21245, Note_on_c, 0, 57, 0
1, 21246, Note_on_c, 0, 67, 75
1, 21261, Note_on_c, 1, 48, 0
1, 21264, Note_on_c, 1, 45, 64
1, 21269, Note_on_c, 0, 67, 0
1, 21270, Note_on_c, 0, 65, 75
1, 21293, Note_on_c, 0, 65, 0
1, 21294, Note_on_c, 0, 63, 75
1, 21309, Note_on_c, 1, 45, 0
1, 21312, Note_on_c, 1, 46, 64
1, 21317, Note_on_c, 0, 63, 0
1, 21318, Note_on_c, 0, 63, 75
1, 21335, Note_on_c, 1, 53, 0
1, 21336, Note_on_c, 1, 53, 75
1, 21341, Note_on_c, 0, 63, 0
1, 21342, Note_on_c, 0, 62, 75
1, 21359, Note_on_c, 1, 53, 0
1, 21360, Note_on_c, 1, 52, 75
1, 21365, Note_on_c, 0, 62, 0
1, 21366, Note_on_c, 0, 61, 75
1, 21383, Note_on_c, 1, 52, 0
1, 21384, Note_on_c, 1, 53, 75
1, 21389, Note_on_c, 0, 61, 0
1, 21390, Note_on_c, 0, 62, 75
1, 21407, Note_on_c, 1, 53, 0
1, 21408, Note_on_c, 1, 53, 75
1, 21413, Note_on_c, 0, 62, 0
1, 21414, Note_on_c, 0, 62, 75
1, 21431, Note_on_c, 1, 53, 0
1, 21432, Note_on_c, 1, 54, 75
1, 21455, Note_on_c, 1, 54, 0
1, 21456, Note_on_c, 1, 55, 75
1, 21479, Note_on_c, 1, 55, 0
1, 21480, Note_on_c, 1, 54, 75
1, 21489, Note_on_c, 1, 46, 0
1, 21503, Note_on_c, 1, 54, 0
1, 21504, Note_on_c, 1, 55, 75
1, 21504, Note_on_c, 1, 47, 64
1, 21533, Note_on_c, 0, 62, 0
1, 21534, Note_on_c, 0, 69, 75
1, 21557, Note_on_c, 0, 69, 0
1, 21558, Note_on_c, 0, 67, 75
1, 21581, Note_on_c, 0, 67, 0
1, 21582, Note_on_c, 0, 65, 75
1, 21593, Note_on_c, 1, 47, 0
1, 21600, Note_on_c, 1, 48, 64
1, 21605, Note_on_c, 0, 65, 0
1, 21606, Note_on_c, 0, 65, 75
1, 21623, Note_on_c, 1, 55, 0
1, 21624, Note_on_c, 1, 55, 75
1, 21629, Note_on_c, 0, 65, 0
1, 21630, Note_on_c, 0, 64, 75
1, 21647, Note_on_c, 1, 55, 0
1, 21648, Note_on_c, 1, 54, 75
1, 21653, Note_on_c, 0, 64, 0
1, 21654, Note_on_c, 0, 63, 75
1, 21671, Note_on_c, 1, 54, 0
1, 21672, Note_on_c, 1, 55, 75
1, 21677, Note_on_c, 0, 63, 0
1, 21678, Note_on_c, 0, 64, 75
1, 21689, Note_on_c, 1, 48, 0
1, 21695, Note_on_c, 1, 55, 0
1, 21696, Note_on_c, 1, 55, 75
1, 21696, Note_on_c, 1, 48, 64
1, 21701, Note_on_c, 0, 64, 0
1, 21702, Note_on_c, 0, 64, 75
1, 21719, Note_on_c, 1, 48, 0
1, 21720, Note_on_c, 1, 48, 64
1, 21743, Note_on_c, 1, 48, 0
1, 21744, Note_on_c, 1, 47, 64
1, 21767, Note_on_c, 1, 47, 0
1, 21768, Note_on_c, 1, 48, 64
1, 21785, Note_on_c, 1, 55, 0
1, 21791, Note_on_c, 0, 64, 0
1, 21791, Note_on_c, 1, 48, 0
1, 21792, Note_on_c, 1, 52, 64
1, 21815, Note_on_c, 1, 52, 0
1, 21816, Note_on_c, 1, 48, 64
1, 21839, Note_on_c, 1, 48, 0
1, 21840, Note_on_c, 1, 55, 64
1, 21863, Note_on_c, 1, 55, 0
1, 21864, Note_on_c, 1, 52, 64
1, 21887, Note_on_c, 1, 52, 0
1, 21888, Note_on_c, 1, 58, 75
1, 21894, Note_on_c, 0, 60, 75
1, 21898, Note_on_c, 0, 64, 75
1, 21898, Note_on_c, 1, 58, 0
1, 21902, Note_on_c, 0, 67, 75
1, 21912, Note_on_c, 1, 58, 75
1, 21935, Note_on_c, 1, 58, 0
1, 21936, Note_on_c, 1, 57, 75
1, 21959, Note_on_c, 1, 57, 0
1, 21960, Note_on_c, 1, 58, 75
1, 21983, Note_on_c, 1, 58, 0
1, 21984, Note_on_c, 1, 55, 75
1, 22007, Note_on_c, 1, 55, 0
1, 22008, Note_on_c, 1, 58, 75
1, 22031, Note_on_c, 1, 58, 0
1, 22032, Note_on_c, 1, 52, 75
1, 22055, Note_on_c, 1, 52, 0
1, 22056, Note_on_c, 1, 58, 75
1, 22079, Note_on_c, 1, 58, 0
1, 22080, Note_on_c, 1, 48, 75
1, 22103, Note_on_c, 1, 48, 0
1, 22104, Note_on_c, 1, 58, 75
1, 22127, Note_on_c, 1, 58, 0
1, 22128, Note_on_c, 1, 52, 75
1, 22151, Note_on_c, 1, 52, 0
1, 22152, Note_on_c, 1, 58, 75
1, 22167, Note_on_c, 0, 67, 0
1, 22167, Note_on_c, 0, 64, 0
1, 22167, Note_on_c, 0, 60, 0
1, 22176, Note_on_c, 1, 53, 64
1, 22206, Note_on_c, 0, 60, 75
1, 22229, Note_on_c, 0, 60, 0
1, 22230, Note_on_c, 0, 59, 75
1, 22253, Note_on_c, 0, 59, 0
1, 22254, Note_on_c, 0, 60, 75
1, 22265, Note_on_c, 1, 58, 0
1, 22272, Note_on_c, 1, 57, 75
1, 22277, Note_on_c, 0, 60, 0
1, 22278, Note_on_c, 0, 65, 75
1, 22301, Note_on_c, 0, 65, 0
1, 22302, Note_on_c, 0, 60, 75
1, 22325, Note_on_c, 0, 60, 0
1, 22326, Note_on_c, 0, 69, 75
1, 22349, Note_on_c, 0, 69, 0
1, 22350, Note_on_c, 0, 65, 75
1, 22373, Note_on_c, 0, 65, 0
1, 22374, Note_on_c, 0, 72, 75
1, 22397, Note_on_c, 0, 72, 0
1, 22398, Note_on_c, 0, 69, 75
1, 22421, Note_on_c, 0, 69, 0
1, 22422, Note_on_c, 0, 67, 75
1, 22428, Note_on_c, 0, 67, 0
1, 22428, Note_on_c, 0, 69, 75
1, 22434, Note_on_c, 0, 69, 0
1, 22434, Note_on_c, 0, 67, 75
1, 22441, Note_on_c, 1, 53, 0
1, 22445, Note_on_c, 0, 67, 0
1, 22446, Note_on_c, 0, 65, 75
1, 22449, Note_on_c, 1, 57, 0
1, 22469, Note_on_c, 0, 65, 0
1, 22470, Note_on_c, 0, 60, 75
1, 22474, Note_on_c, 0, 64, 75
1, 22478, Note_on_c, 0, 67, 75
1, 22488, Note_on_c, 1, 58, 75
1, 22511, Note_on_c, 1, 58, 0
1, 22512, Note_on_c, 1, 57, 75
1, 22535, Note_on_c, 1, 57, 0
1, 22536, Note_on_c, 1, 58, 75
1, 22559, Note_on_c, 1, 58, 0
1, 22560, Note_on_c, 1, 55, 75
1, 22575, Note_on_c, 1, 55, 0
1, 22576, Note_on_c, 1, 58, 75
1, 22591, Note_on_c, 1, 58, 0
1, 22592, Note_on_c, 1, 58, 75
1, 22607, Note_on_c, 1, 58, 0
1, 22608, Note_on_c, 1, 52, 75
1, 22623, Note_on_c, 1, 52, 0
1, 22624, Note_on_c, 1, 58, 75
1, 22639, Note_on_c, 1, 58, 0
1, 22640, Note_on_c, 1, 58, 75
1, 22655, Note_on_c, 1, 58, 0
1, 22656, Note_on_c, 1, 48, 75
1, 22671, Note_on_c, 1, 48, 0
1, 22672, Note_on_c, 1, 58, 75
1, 22687, Note_on_c, 1, 58, 0
1, 22688, Note_on_c, 1, 58, 75
1, 22703, Note_on_c, 1, 58, 0
1, 22704, Note_on_c, 1, 52, 75
1, 22719, Note_on_c, 1, 52, 0
1, 22720, Note_on_c, 1, 58, 75
1, 22735, Note_on_c, 1, 58, 0
1, 22736, Note_on_c, 1, 58, 75
1, 22743, Note_on_c, 0, 67, 0
1, 22743, Note_on_c, 0, 64, 0
1, 22743, Note_on_c, 0, 60, 0
1, 22752, Note_on_c, 1, 53, 64
1, 22782, Note_on_c, 0, 60, 75
1, 22805, Note_on_c, 0, 60, 0
1, 22806, Note_on_c, 0, 59, 75
1, 22829, Note_on_c, 0, 59, 0
1, 22830, Note_on_c, 0, 60, 75
1, 22841, Note_on_c, 1, 58, 0
1, 22848, Note_on_c, 1, 57, 75
1, 22853, Note_on_c, 0, 60, 0
1, 22854, Note_on_c, 0, 65, 75
1, 22869, Note_on_c, 0, 65, 0
1, 22870, Note_on_c, 0, 60, 75
1, 22885, Note_on_c, 0, 60, 0
1, 22886, Note_on_c, 0, 60, 75
1, 22901, Note_on_c, 0, 60, 0
1, 22902, Note_on_c, 0, 69, 75
1, 22917, Note_on_c, 0, 69, 0
1, 22918, Note_on_c, 0, 65, 75
1, 22933, Note_on_c, 0, 65, 0
1, 22934, Note_on_c, 0, 65, 75
1, 22937, Note_on_c, 1, 57, 0
1, 22944, Note_on_c, 0, 72, 64
1, 22944, Note_on_c, 1, 57, 75
1, 22949, Note_on_c, 0, 65, 0
1, 22950, Note_on_c, 0, 72, 75
1, 22967, Note_on_c, 0, 72, 0
1, 22968, Note_on_c, 0, 69, 64
1, 22991, Note_on_c, 0, 69, 0
1, 22992, Note_on_c, 0, 67, 64
1, 22998, Note_on_c, 0, 67, 0
1, 22998, Note_on_c, 0, 69, 64
1, 23004, Note_on_c, 0, 69, 0
1, 23004, Note_on_c, 0, 67, 64
1, 23015, Note_on_c, 0, 67, 0
1, 23016, Note_on_c, 0, 65, 64
1, 23017, Note_on_c, 1, 53, 0
1, 23033, Note_on_c, 1, 57, 0
1, 23039, Note_on_c, 0, 65, 0
1, 23040, Note_on_c, 0, 74, 64
1, 23040, Note_on_c, 1, 58, 75
1, 23050, Note_on_c, 1, 58, 0
1, 23064, Note_on_c, 1, 58, 75
1, 23087, Note_on_c, 1, 58, 0
1, 23088, Note_on_c, 1, 57, 75
1, 23111, Note_on_c, 1, 57, 0
1, 23112, Note_on_c, 1, 58, 75
1, 23135, Note_on_c, 0, 72, 0
1, 23135, Note_on_c, 1, 58, 0
1, 23136, Note_on_c, 1, 67, 75
1, 23142, Note_on_c, 0, 70, 75
1, 23146, Note_on_c, 1, 67, 0
1, 23160, Note_on_c, 1, 67, 75
1, 23183, Note_on_c, 1, 67, 0
1, 23184, Note_on_c, 1, 66, 75
1, 23207, Note_on_c, 1, 66, 0
1, 23208, Note_on_c, 1, 67, 75
1, 23217, Note_on_c, 0, 74, 0
1, 23231, Note_on_c, 0, 70, 0
1, 23231, Note_on_c, 1, 67, 0
1, 23232, Note_on_c, 0, 72, 64
1, 23232, Note_on_c, 1, 64, 75
1, 23238, Note_on_c, 0, 70, 75
1, 23242, Note_on_c, 1, 64, 0
1, 23256, Note_on_c, 1, 64, 75
1, 23279, Note_on_c, 1, 64, 0
1, 23280, Note_on_c, 1, 62, 75
1, 23303, Note_on_c, 1, 62, 0
1, 23304, Note_on_c, 1, 64, 75
1, 23321, Note_on_c, 0, 72, 0
1, 23327, Note_on_c, 1, 64, 0
1, 23328, Note_on_c, 1, 65, 75
1, 23357, Note_on_c, 0, 70, 0
1, 23358, Note_on_c, 0, 69, 75
1, 23381, Note_on_c, 0, 69, 0
1, 23382, Note_on_c, 0, 68, 75
1, 23405, Note_on_c, 0, 68, 0
1, 23406, Note_on_c, 0, 69, 76
1, 23417, Note_on_c, 1, 65, 0
1, 23429, Note_on_c, 0, 69, 0
1, 23430, Note_on_c, 0, 74, 76
1, 23453, Note_on_c, 0, 74, 0
1, 23454, Note_on_c, 0, 72, 77
1, 23477, Note_on_c, 0, 72, 0
1, 23478, Note_on_c, 0, 71, 77
1, 23501, Note_on_c, 0, 71, 0
1, 23502, Note_on_c, 0, 72, 77
1, 23525, Note_on_c, 0, 72, 0
1, 23526, Note_on_c, 0, 79, 78
1, 23549, Note_on_c, 0, 79, 0
1, 23550, Note_on_c, 0, 77, 78
1, 23573, Note_on_c, 0, 77, 0
1, 23574, Note_on_c, 0, 76, 79
1, 23592, Note_on_c, 1, 53, 75
1, 23592, Note_on_c, 1, 45, 75
1, 23597, Note_on_c, 0, 76, 0
1, 23598, Note_on_c, 0, 75, 79
1, 23616, Note_on_c, 1, 45, 0
1, 23616, Note_on_c, 1, 46, 75
1, 23621, Note_on_c, 0, 75, 0
1, 23622, Note_on_c, 0, 74, 80
1, 23645, Note_on_c, 0, 74, 0
1, 23646, Note_on_c, 0, 73, 79
1, 23669, Note_on_c, 0, 73, 0
1, 23670, Note_on_c, 0, 72, 79
1, 23693, Note_on_c, 0, 72, 0
1, 23694, Note_on_c, 0, 70, 78
1, 23694, Note_on_c, 0, 67, 78
1, 23705, Note_on_c, 1, 53, 0
1, 23705, Note_on_c, 1, 46, 0
1, 23712, Note_on_c, 1, 48, 75
1, 23717, Note_on_c, 0, 70, 0
1, 23717, Note_on_c, 0, 67, 0
1, 23718, Note_on_c, 0, 69, 78
1, 23718, Note_on_c, 0, 65, 78
1, 23801, Note_on_c, 1, 48, 0
1, 23807, Note_on_c, 0, 69, 0
1, 23807, Note_on_c, 0, 65, 0
1, 23808, Note_on_c, 1, 36, 75
1, 23814, Note_on_c, 0, 72, 76
1, 23814, Note_on_c, 0, 69, 76
1, 23837, Note_on_c, 0, 72, 0
1, 23837, Note_on_c, 0, 69, 0
1, 23838, Note_on_c, 0, 70, 76
1, 23838, Note_on_c, 0, 67, 76
1, 23861, Note_on_c, 0, 70, 0
1, 23861, Note_on_c, 0, 67, 0
1, 23862, Note_on_c, 0, 69, 75
1, 23862, Note_on_c, 0, 65, 75
1, 23896, Note_on_c, 0, 69, 0
1, 23896, Note_on_c, 0, 65, 0
1, 23897, Note_on_c, 1, 36, 0
1, 23898, Note_on_c, 0, 67, 75
1, 23898, Note_on_c, 0, 64, 75
1, 23910, Note_on_c, 0, 67, 0
1, 23910, Note_on_c, 0, 64, 0
1, 23910, Note_on_c, 0, 67, 75
1, 23910, Note_on_c, 0, 64, 75
1, 23999, Note_on_c, 0, 67, 0
1, 23999, Note_on_c, 0, 64, 0
1, 24000, Note_on_c, 1, 50, 75
1, 24006, Note_on_c, 0, 59, 75
1, 24016, Note_on_c, 1, 53, 75
1, 24022, Note_on_c, 0, 62, 75
1, 24032, Note_on_c, 1, 56, 75
1, 24038, Note_on_c, 0, 65, 75
1, 24102, Note_on_c, 0, 62, 0
1, 24102, Note_on_c, 0, 59, 0
1, 24125, Note_on_c, 0, 65, 0
1, 24126, Note_on_c, 0, 65, 75
1, 24132, Note_on_c, 0, 65, 0
1, 24132, Note_on_c, 0, 64, 75
1, 24138, Note_on_c, 0, 64, 0
1, 24138, Note_on_c, 0, 65, 75
1, 24149, Note_on_c, 0, 65, 0
1, 24150, Note_on_c, 0, 67, 75
1, 24173, Note_on_c, 0, 67, 0
1, 24174, Note_on_c, 0, 68, 75
1, 24185, Note_on_c, 1, 56, 0
1, 24185, Note_on_c, 1, 53, 0
1, 24185, Note_on_c, 1, 50, 0
1, 24197, Note_on_c, 0, 68, 0
1, 24198, Note_on_c, 0, 68, 75
1, 24243, Note_on_c, 0, 68, 0
1, 24246, Note_on_c, 0, 59, 75
1, 24291, Note_on_c, 0, 59, 0
1, 24294, Note_on_c, 0, 67, 75
1, 24384, Note_on_c, 1, 55, 75
1, 24384, Note_on_c, 1, 52, 75
1, 24405, Note_on_c, 0, 67, 0
1, 24406, Note_on_c, 0, 65, 75
1, 24421, Note_on_c, 0, 65, 0
1, 24422, Note_on_c, 0, 64, 75
1, 24437, Note_on_c, 0, 64, 0
1, 24438, Note_on_c, 0, 62, 75
1, 24453, Note_on_c, 0, 62, 0
1, 24454, Note_on_c, 0, 60, 75
1, 24469, Note_on_c, 0, 60, 0
1, 24470, Note_on_c, 0, 58, 75
1, 24473, Note_on_c, 1, 55, 0
1, 24473, Note_on_c, 1, 52, 0
1, 24480, Note_on_c, 1, 53, 75
1, 24485, Note_on_c, 0, 58, 0
1, 24486, Note_on_c, 0, 57, 75
1, 24501, Note_on_c, 0, 57, 0
1, 24502, Note_on_c, 0, 60, 75
1, 24517, Note_on_c, 0, 60, 0
1, 24518, Note_on_c, 0, 65, 76
1, 24533, Note_on_c, 0, 65, 0
1, 24534, Note_on_c, 0, 69, 76
1, 24549, Note_on_c, 0, 69, 0
1, 24550, Note_on_c, 0, 72, 77
1, 24565, Note_on_c, 0, 72, 0
1, 24566, Note_on_c, 0, 77, 78
1, 24569, Note_on_c, 1, 53, 0
1, 24581, Note_on_c, 0, 77, 0
1, 24582, Note_on_c, 0, 81, 94
1, 24582, Note_on_c, 0, 69, 94
1, 24672, Note_on_c, 1, 53, 75
1, 24672, Note_on_c, 1, 48, 75
1, 24672, Note_on_c, 1, 45, 75
1, 24693, Note_on_c, 0, 81, 0
1, 24693, Note_on_c, 0, 69, 0
1, 24694, Note_on_c, 0, 79, 77
1, 24694, Note_on_c, 0, 67, 77
1, 24709, Note_on_c, 0, 79, 0
1, 24709, Note_on_c, 0, 67, 0
1, 24710, Note_on_c, 0, 77, 77
1, 24710, Note_on_c, 0, 65, 77
1, 24725, Note_on_c, 0, 77, 0
1, 24725, Note_on_c, 0, 65, 0
1, 24726, Note_on_c, 0, 76, 77
1, 24726, Note_on_c, 0, 64, 77
1, 24741, Note_on_c, 0, 76, 0
1, 24741, Note_on_c, 0, 64, 0
1, 24742, Note_on_c, 0, 74, 76
1, 24742, Note_on_c, 0, 62, 76
1, 24757, Note_on_c, 0, 74, 0
1, 24757, Note_on_c, 0, 62, 0
1, 24758, Note_on_c, 0, 72, 76
1, 24758, Note_on_c, 0, 60, 76
1, 24761, Note_on_c, 1, 53, 0
1, 24761, Note_on_c, 1, 48, 0
1, 24761, Note_on_c, 1, 45, 0
1, 24768, Note_on_c, 1, 46, 75
1, 24773, Note_on_c, 0, 72, 0
1, 24773, Note_on_c, 0, 60, 0
1, 24807, Note_on_c, 1, 46, 0
1, 24822, Note_on_c, 0, 74, 75
1, 24822, Note_on_c, 0, 70, 75
1, 24864, Note_on_c, 1, 48, 75
1, 24867, Note_on_c, 0, 74, 0
1, 24867, Note_on_c, 0, 70, 0
1, 24903, Note_on_c, 1, 48, 0
1, 24918, Note_on_c, 0, 72, 75
1, 24918, Note_on_c, 0, 69, 75
1, 24960, Note_on_c, 1, 36, 75
1, 24963, Note_on_c, 0, 72, 0
1, 24963, Note_on_c, 0, 69, 0
1, 24999, Note_on_c, 1, 36, 0
1, 25014, Note_on_c, 0, 64, 75
1, 25014, Note_on_c, 0, 58, 75
1, 25059, Note_on_c, 0, 64, 0
1, 25059, Note_on_c, 0, 58, 0
1, 25062, Note_on_c, 0, 84, 96
1, 25062, Note_on_c, 0, 72, 96
1, 25152, Note_on_c, 1, 57, 80
1, 25152, Note_on_c, 1, 53, 80
1, 25152, Note_on_c, 1, 48, 80
1, 25152, Note_on_c, 1, 45, 80
1, 25173, Note_on_c, 0, 84, 0
1, 25173, Note_on_c, 0, 72, 0
1, 25174, Note_on_c, 0, 81, 80
1, 25174, Note_on_c, 0, 69, 80
1, 25189, Note_on_c, 0, 81, 0
1, 25189, Note_on_c, 0, 69, 0
1, 25190, Note_on_c, 0, 79, 80
1, 25190, Note_on_c, 0, 67, 80
1, 25205, Note_on_c, 0, 79, 0
1, 25205, Note_on_c, 0, 67, 0
1, 25206, Note_on_c, 0, 77, 80
1, 25206, Note_on_c, 0, 65, 80
1, 25221, Note_on_c, 0, 77, 0
1, 25221, Note_on_c, 0, 65, 0
1, 25222, Note_on_c, 0, 76, 80
1, 25222, Note_on_c, 0, 64, 80
1, 25237, Note_on_c, 0, 76, 0
1, 25237, Note_on_c, 0, 64, 0
1, 25238, Note_on_c, 0, 74, 80
1, 25238, Note_on_c, 0, 62, 80
1, 25253, Note_on_c, 0, 74, 0
1, 25253, Note_on_c, 0, 62, 0
1, 25254, Note_on_c, 0, 72, 80
1, 25254, Note_on_c, 0, 60, 80
1, 25299, Note_on_c, 0, 72, 0
1, 25299, Note_on_c, 0, 60, 0
1, 25302, Note_on_c, 0, 73, 80
1, 25302, Note_on_c, 0, 61, 80
1, 25329, Note_on_c, 1, 57, 0
1, 25329, Note_on_c, 1, 53, 0
1, 25329, Note_on_c, 1, 48, 0
1, 25329, Note_on_c, 1, 45, 0
1, 25344, Note_on_c, 1, 58, 80
1, 25344, Note_on_c, 1, 46, 80
1, 25383, Note_on_c, 1, 58, 0
1, 25383, Note_on_c, 1, 46, 0
1, 25395, Note_on_c, 0, 73, 0
1, 25395, Note_on_c, 0, 61, 0
1, 25398, Note_on_c, 0, 74, 80
1, 25398, Note_on_c, 0, 62, 80
1, 25440, Note_on_c, 1, 34, 80
1, 25443, Note_on_c, 0, 74, 0
1, 25443, Note_on_c, 0, 62, 0
1, 25479, Note_on_c, 1, 34, 0
1, 25494, Note_on_c, 0, 86, 80
1, 25494, Note_on_c, 0, 82, 80
1, 25536, Note_on_c, 1, 48, 80
1, 25536, Note_on_c, 1, 36, 80
1, 25539, Note_on_c, 0, 86, 0
1, 25539, Note_on_c, 0, 82, 0
1, 25575, Note_on_c, 1, 48, 0
1, 25575, Note_on_c, 1, 36, 0
1, 25590, Note_on_c, 0, 64, 80
1, 25590, Note_on_c, 0, 58, 80
1, 25632, Note_on_c, 1, 41, 75
1, 25635, Note_on_c, 0, 64, 0
1, 25635, Note_on_c, 0, 58, 0
1, 25638, Note_on_c, 0, 65, 75
1, 25638, Note_on_c, 0, 57, 75
1, 25655, Note_on_c, 1, 41, 0
1, 25656, Note_on_c, 1, 53, 75
1, 25679, Note_on_c, 1, 53, 0
1, 25680, Note_on_c, 1, 52, 75
1, 25703, Note_on_c, 1, 52, 0
1, 25704, Note_on_c, 1, 53, 75
1, 25727, Note_on_c, 0, 65, 0
1, 25727, Note_on_c, 0, 57, 0
1, 25727, Note_on_c, 1, 53, 0
1, 25728, Note_on_c, 1, 41, 75
1, 25751, Note_on_c, 1, 41, 0
1, 25752, Note_on_c, 1, 53, 75
1, 25775, Note_on_c, 1, 53, 0
1, 25776, Note_on_c, 1, 46, 75
1, 25782, Note_on_c, 0, 62, 75
1, 25799, Note_on_c, 1, 46, 0
1, 25800, Note_on_c, 1, 53, 75
1, 25823, Note_on_c, 1, 53, 0
1, 25824, Note_on_c, 1, 45, 75
1, 25830, Note_on_c, 0, 62, 0
1, 25830, Note_on_c, 0, 60, 75
1, 25847, Note_on_c, 1, 45, 0
1, 25848, Note_on_c, 1, 53, 75
1, 25850, Note_on_c, 0, 60, 0
1, 25871, Note_on_c, 1, 53, 0
1, 25872, Note_on_c, 1, 43, 75
1, 25878, Note_on_c, 0, 70, 75
1, 25878, Note_on_c, 0, 64, 75
1, 25895, Note_on_c, 1, 43, 0
1, 25896, Note_on_c, 1, 53, 75
1, 25898, Note_on_c, 0, 70, 0
1, 25898, Note_on_c, 0, 64, 0
1, 25919, Note_on_c, 1, 53, 0
1, 25920, Note_on_c, 1, 41, 75
1, 25926, Note_on_c, 0, 70, 75
1, 25926, Note_on_c, 0, 64, 75
1, 25943, Note_on_c, 1, 41, 0
1, 25944, Note_on_c, 1, 53, 75
1, 25967, Note_on_c, 1, 53, 0
1, 25968, Note_on_c, 1, 52, 75
1, 25991, Note_on_c, 1, 52, 0
1, 25992, Note_on_c, 1, 53, 75
1, 26015, Note_on_c, 1, 53, 0
1, 26016, Note_on_c, 1, 41, 75
1, 26022, Note_on_c, 0, 70, 0
1, 26022, Note_on_c, 0, 64, 0
1, 26022, Note_on_c, 0, 69, 75
1, 26022, Note_on_c, 0, 65, 75
1, 26039, Note_on_c, 1, 41, 0
1, 26040, Note_on_c, 1, 53, 75
1, 26042, Note_on_c, 0, 69, 0
1, 26042, Note_on_c, 0, 65, 0
1, 26063, Note_on_c, 1, 53, 0
1, 26064, Note_on_c, 1, 46, 75
1, 26070, Note_on_c, 0, 62, 75
1, 26087, Note_on_c, 1, 46, 0
1, 26088, Note_on_c, 1, 53, 75
1, 26111, Note_on_c, 1, 53, 0
1, 26112, Note_on_c, 1, 45, 75
1, 26118, Note_on_c, 0, 62, 0
1, 26118, Note_on_c, 0, 60, 75
1, 26135, Note_on_c, 1, 45, 0
1, 26136, Note_on_c, 1, 53, 75
1, 26138, Note_on_c, 0, 60, 0
1, 26159, Note_on_c, 1, 53, 0
1, 26160, Note_on_c, 1, 43, 75
1, 26166, Note_on_c, 0, 64, 75
1, 26166, Note_on_c, 0, 58, 75
1, 26183, Note_on_c, 1, 43, 0
1, 26184, Note_on_c, 1, 53, 75
1, 26186, Note_on_c, 0, 64, 0
1, 26186, Note_on_c, 0, 58, 0
1, 26207, Note_on_c, 1, 53, 0
1, 26208, Note_on_c, 1, 64, 75
1, 26208, Note_on_c, 1, 58, 75
1, 26208, Note_on_c, 1, 41, 75
1, 26304, Note_on_c, 1, 64, 0
1, 26304, Note_on_c, 1, 58, 0
1, 26304, Note_on_c, 1, 45, 75
1, 26314, Note_on_c, 1, 48, 75
1, 26324, Note_on_c, 1, 53, 75
1, 26334, Note_on_c, 1, 57, 75
1, 26344, Note_on_c, 1, 60, 75
1, 26354, Note_on_c, 1, 65, 75
1, 26437, Note_on_c, 1, 65, 0
1, 26437, Note_on_c, 1, 60, 0
1, 26437, Note_on_c, 1, 57, 0
1, 26437, Note_on_c, 1, 53, 0
1, 26437, Note_on_c, 1, 48, 0
1, 26437, Note_on_c, 1, 45, 0
1, 26437, Note_on_c, 1, 41, 0
1, 26496, Note_on_c, 1, 64, 75
1, 26519, Note_on_c, 1, 64, 0
1, 26520, Note_on_c, 1, 72, 75
1, 26543, Note_on_c, 1, 72, 0
1, 26544, Note_on_c, 1, 71, 75
1, 26567, Note_on_c, 1, 71, 0
1, 26568, Note_on_c, 1, 72, 75
1, 26591, Note_on_c, 1, 72, 0
1, 26592, Note_on_c, 1, 75, 75
1, 26615, Note_on_c, 1, 75, 0
1, 26616, Note_on_c, 1, 72, 75
1, 26639, Note_on_c, 1, 72, 0
1, 26640, Note_on_c, 1, 71, 75
1, 26663, Note_on_c, 1, 71, 0
1, 26664, Note_on_c, 1, 72, 75
1, 26687, Note_on_c, 1, 72, 0
1, 26688, Note_on_c, 1, 69, 75
1, 26711, Note_on_c, 1, 69, 0
1, 26712, Note_on_c, 1, 72, 75
1, 26735, Note_on_c, 1, 72, 0
1, 26736, Note_on_c, 1, 67, 75
1, 26742, Note_on_c, 0, 75, 75
1, 26759, Note_on_c, 1, 67, 0
1, 26760, Note_on_c, 1, 72, 75
1, 26783, Note_on_c, 1, 72, 0
1, 26784, Note_on_c, 1, 66, 75
1, 26787, Note_on_c, 0, 75, 0
1, 26790, Note_on_c, 0, 74, 75
1, 26807, Note_on_c, 1, 66, 0
1, 26808, Note_on_c, 1, 72, 75
1, 26831, Note_on_c, 1, 72, 0
1, 26832, Note_on_c, 1, 67, 75
1, 26835, Note_on_c, 0, 74, 0
1, 26838, Note_on_c, 0, 77, 75
1, 26844, Note_on_c, 0, 77, 0
1, 26844, Note_on_c, 0, 75, 75
1, 26855, Note_on_c, 1, 67, 0
1, 26856, Note_on_c, 1, 72, 75
1, 26879, Note_on_c, 1, 72, 0
1, 26880, Note_on_c, 1, 66, 75
1, 26883, Note_on_c, 0, 75, 0
1, 26886, Note_on_c, 0, 74, 75
1, 26903, Note_on_c, 1, 66, 0
1, 26904, Note_on_c, 1, 72, 75
1, 26927, Note_on_c, 1, 72, 0
1, 26928, Note_on_c, 1, 67, 75
1, 26931, Note_on_c, 0, 74, 0
1, 26934, Note_on_c, 0, 77, 75
1, 26940, Note_on_c, 0, 77, 0
1, 26940, Note_on_c, 0, 75, 75
1, 26951, Note_on_c, 1, 67, 0
1, 26952, Note_on_c, 1, 72, 75
1, 26975, Note_on_c, 1, 72, 0
1, 26976, Note_on_c, 1, 66, 75
1, 26979, Note_on_c, 0, 75, 0
1, 26982, Note_on_c, 0, 74, 75
1, 26999, Note_on_c, 1, 66, 0
1, 27000, Note_on_c, 1, 72, 75
1, 27023, Note_on_c, 1, 72, 0
1, 27024, Note_on_c, 1, 67, 75
1, 27027, Note_on_c, 0, 74, 0
1, 27030, Note_on_c, 0, 77, 75
1, 27036, Note_on_c, 0, 77, 0
1, 27036, Note_on_c, 0, 75, 75
1, 27047, Note_on_c, 1, 67, 0
1, 27048, Note_on_c, 1, 72, 75
1, 27071, Note_on_c, 1, 72, 0
1, 27072, Note_on_c, 1, 66, 75
1, 27075, Note_on_c, 0, 75, 0
1, 27078, Note_on_c, 0, 74, 75
1, 27095, Note_on_c, 1, 66, 0
1, 27096, Note_on_c, 1, 72, 75
1, 27119, Note_on_c, 1, 72, 0
1, 27120, Note_on_c, 1, 69, 75
1, 27123, Note_on_c, 0, 74, 0
1, 27126, Note_on_c, 0, 81, 75
1, 27143, Note_on_c, 1, 69, 0
1, 27144, Note_on_c, 1, 72, 75
1, 27167, Note_on_c, 1, 72, 0
1, 27168, Note_on_c, 1, 66, 75
1, 27173, Note_on_c, 0, 81, 0
1, 27174, Note_on_c, 0, 81, 91
1, 27191, Note_on_c, 1, 66, 0
1, 27192, Note_on_c, 1, 72, 75
1, 27215, Note_on_c, 1, 72, 0
1, 27216, Note_on_c, 1, 69, 75
1, 27239, Note_on_c, 1, 69, 0
1, 27240, Note_on_c, 1, 72, 75
1, 27263, Note_on_c, 1, 72, 0
1, 27264, Note_on_c, 1, 66, 75
1, 27287, Note_on_c, 1, 66, 0
1, 27288, Note_on_c, 1, 72, 75
1, 27311, Note_on_c, 1, 72, 0
1, 27312, Note_on_c, 1, 69, 75
1, 27315, Note_on_c, 0, 81, 0
1, 27318, Note_on_c, 0, 79, 75
1, 27330, Note_on_c, 0, 79, 0
1, 27330, Note_on_c, 0, 78, 75
1, 27335, Note_on_c, 1, 69, 0
1, 27336, Note_on_c, 1, 72, 75
1, 27342, Note_on_c, 0, 78, 0
1, 27342, Note_on_c, 0, 76, 75
1, 27354, Note_on_c, 0, 76, 0
1, 27354, Note_on_c, 0, 74, 75
1, 27359, Note_on_c, 1, 72, 0
1, 27360, Note_on_c, 1, 70, 75
1, 27360, Note_on_c, 1, 67, 75
1, 27366, Note_on_c, 0, 74, 0
1, 27366, Note_on_c, 0, 74, 75
1, 27389, Note_on_c, 0, 74, 0
1, 27390, Note_on_c, 0, 82, 76
1, 27413, Note_on_c, 0, 82, 0
1, 27414, Note_on_c, 0, 81, 77
1, 27437, Note_on_c, 0, 81, 0
1, 27438, Note_on_c, 0, 84, 78
1, 27449, Note_on_c, 1, 70, 0
1, 27449, Note_on_c, 1, 67, 0
1, 27461, Note_on_c, 0, 84, 0
1, 27462, Note_on_c, 0, 82, 79
1, 27485, Note_on_c, 0, 82, 0
1, 27486, Note_on_c, 0, 86, 80
1, 27509, Note_on_c, 0, 86, 0
1, 27510, Note_on_c, 0, 84, 79
1, 27533, Note_on_c, 0, 84, 0
1, 27534, Note_on_c, 0, 82, 78
1, 27557, Note_on_c, 0, 82, 0
1, 27558, Note_on_c, 0, 81, 77
1, 27581, Note_on_c, 0, 81, 0
1, 27582, Note_on_c, 0, 79, 76
1, 27605, Note_on_c, 0, 79, 0
1, 27606, Note_on_c, 0, 78, 75
1, 27629, Note_on_c, 0, 78, 0
1, 27630, Note_on_c, 0, 81, 75
1, 27642, Note_on_c, 0, 81, 0
1, 27642, Note_on_c, 0, 79, 75
1, 27648, Note_on_c, 1, 60, 75
1, 27653, Note_on_c, 0, 79, 0
1, 27654, Note_on_c, 0, 77, 75
1, 27671, Note_on_c, 1, 60, 0
1, 27672, Note_on_c, 1, 70, 75
1, 27695, Note_on_c, 1, 70, 0
1, 27696, Note_on_c, 1, 69, 75
1, 27719, Note_on_c, 1, 69, 0
1, 27720, Note_on_c, 1, 70, 75
1, 27743, Note_on_c, 1, 70, 0
1, 27744, Note_on_c, 1, 67, 75
1, 27750, Note_on_c, 0, 77, 0
1, 27750, Note_on_c, 0, 76, 75
1, 27767, Note_on_c, 1, 67, 0
1, 27768, Note_on_c, 1, 70, 75
1, 27791, Note_on_c, 1, 70, 0
1, 27792, Note_on_c, 1, 65, 75
1, 27795, Note_on_c, 0, 76, 0
1, 27798, Note_on_c, 0, 73, 75
1, 27815, Note_on_c, 1, 65, 0
1, 27816, Note_on_c, 1, 70, 75
1, 27839, Note_on_c, 1, 70, 0
1, 27840, Note_on_c, 1, 64, 75
1, 27843, Note_on_c, 0, 73, 0
1, 27846, Note_on_c, 0, 72, 75
1, 27863, Note_on_c, 1, 64, 0
1, 27864, Note_on_c, 1, 70, 75
1, 27887, Note_on_c, 1, 70, 0
1, 27888, Note_on_c, 1, 65, 75
1, 27891, Note_on_c, 0, 72, 0
1, 27894, Note_on_c, 0, 75, 75
1, 27900, Note_on_c, 0, 75, 0
1, 27900, Note_on_c, 0, 73, 75
1, 27911, Note_on_c, 1, 65, 0
1, 27912, Note_on_c, 1, 70, 75
1, 27935, Note_on_c, 1, 70, 0
1, 27936, Note_on_c, 1, 64, 75
1, 27939, Note_on_c, 0, 73, 0
1, 27942, Note_on_c, 0, 72, 75
1, 27959, Note_on_c, 1, 64, 0
1, 27960, Note_on_c, 1, 70, 75
1, 27983, Note_on_c, 1, 70, 0
1, 27984, Note_on_c, 1, 65, 75
1, 27987, Note_on_c, 0, 72, 0
1, 27990, Note_on_c, 0, 73, 75
1, 28000, Note_on_c, 0, 73, 0
1, 28007, Note_on_c, 1, 65, 0
1, 28008, Note_on_c, 1, 70, 75
1, 28014, Note_on_c, 0, 73, 75
1, 28031, Note_on_c, 1, 70, 0
1, 28032, Note_on_c, 1, 64, 75
1, 28038, Note_on_c, 0, 73, 0
1, 28038, Note_on_c, 0, 72, 75
1, 28048, Note_on_c, 0, 72, 0
1, 28055, Note_on_c, 1, 64, 0
1, 28056, Note_on_c, 1, 70, 75
1, 28062, Note_on_c, 0, 72, 75
1, 28079, Note_on_c, 1, 70, 0
1, 28080, Note_on_c, 1, 65, 75
1, 28086, Note_on_c, 0, 72, 0
1, 28086, Note_on_c, 0, 73, 75
1, 28096, Note_on_c, 0, 73, 0
1, 28103, Note_on_c, 1, 65, 0
1, 28104, Note_on_c, 1, 70, 75
1, 28110, Note_on_c, 0, 73, 75
1, 28127, Note_on_c, 1, 70, 0
1, 28128, Note_on_c, 1, 64, 75
1, 28134, Note_on_c, 0, 73, 0
1, 28134, Note_on_c, 0, 72, 75
1, 28144, Note_on_c, 0, 72, 0
1, 28151, Note_on_c, 1, 64, 0
1, 28152, Note_on_c, 1, 70, 75
1, 28158, Note_on_c, 0, 72, 75
1, 28175, Note_on_c, 1, 70, 0
1, 28176, Note_on_c, 1, 65, 75
1, 28182, Note_on_c, 0, 72, 0
1, 28182, Note_on_c, 0, 73, 75
1, 28192, Note_on_c, 0, 73, 0
1, 28199, Note_on_c, 1, 65, 0
1, 28200, Note_on_c, 1, 70, 75
1, 28206, Note_on_c, 0, 73, 75
1, 28223, Note_on_c, 1, 70, 0
1, 28224, Note_on_c, 1, 64, 75
1, 28229, Note_on_c, 0, 73, 0
1, 28230, Note_on_c, 0, 72, 75
1, 28247, Note_on_c, 1, 64, 0
1, 28248, Note_on_c, 1, 70, 75
1, 28271, Note_on_c, 1, 70, 0
1, 28272, Note_on_c, 1, 67, 75
1, 28275, Note_on_c, 0, 72, 0
1, 28278, Note_on_c, 0, 79, 75
1, 28295, Note_on_c, 1, 67, 0
1, 28296, Note_on_c, 1, 70, 75
1, 28319, Note_on_c, 1, 70, 0
1, 28320, Note_on_c, 1, 64, 75
1, 28325, Note_on_c, 0, 79, 0
1, 28326, Note_on_c, 0, 79, 91
1, 28343, Note_on_c, 1, 64, 0
1, 28344, Note_on_c, 1, 70, 75
1, 28367, Note_on_c, 1, 70, 0
1, 28368, Note_on_c, 1, 67, 75
1, 28391, Note_on_c, 1, 67, 0
1, 28392, Note_on_c, 1, 70, 75
1, 28415, Note_on_c, 1, 70, 0
1, 28416, Note_on_c, 1, 64, 75
1, 28439, Note_on_c, 1, 64, 0
1, 28440, Note_on_c, 1, 70, 75
1, 28463, Note_on_c, 1, 70, 0
1, 28464, Note_on_c, 1, 67, 75
1, 28467, Note_on_c, 0, 79, 0
1, 28470, Note_on_c, 0, 77, 75
1, 28482, Note_on_c, 0, 77, 0
1, 28482, Note_on_c, 0, 76, 75
1, 28487, Note_on_c, 1, 67, 0
1, 28488, Note_on_c, 1, 70, 75
1, 28494, Note_on_c, 0, 76, 0
1, 28494, Note_on_c, 0, 74, 75
1, 28506, Note_on_c, 0, 74, 0
1, 28506, Note_on_c, 0, 72, 75
1, 28511, Note_on_c, 1, 70, 0
1, 28512, Note_on_c, 1, 63, 75
1, 28518, Note_on_c, 0, 72, 0
1, 28518, Note_on_c, 0, 72, 75
1, 28535, Note_on_c, 1, 63, 0
1, 28536, Note_on_c, 1, 69, 75
1, 28541, Note_on_c, 0, 72, 0
1, 28542, Note_on_c, 0, 84, 75
1, 28559, Note_on_c, 1, 69, 0
1, 28560, Note_on_c, 1, 65, 75
1, 28583, Note_on_c, 1, 65, 0
1, 28584, Note_on_c, 1, 69, 75
1, 28587, Note_on_c, 0, 84, 0
1, 28590, Note_on_c, 0, 82, 75
1, 28607, Note_on_c, 1, 69, 0
1, 28608, Note_on_c, 1, 63, 75
1, 28631, Note_on_c, 1, 63, 0
1, 28632, Note_on_c, 1, 69, 75
1, 28635, Note_on_c, 0, 82, 0
1, 28638, Note_on_c, 0, 81, 75
1, 28655, Note_on_c, 1, 69, 0
1, 28656, Note_on_c, 1, 65, 75
1, 28679, Note_on_c, 1, 65, 0
1, 28680, Note_on_c, 1, 69, 75
1, 28683, Note_on_c, 0, 81, 0
1, 28686, Note_on_c, 0, 79, 75
1, 28703, Note_on_c, 1, 69, 0
1, 28704, Note_on_c, 1, 63, 75
1, 28727, Note_on_c, 1, 63, 0
1, 28728, Note_on_c, 1, 69, 75
1, 28731, Note_on_c, 0, 79, 0
1, 28734, Note_on_c, 0, 77, 75
1, 28751, Note_on_c, 1, 69, 0
1, 28752, Note_on_c, 1, 65, 75
1, 28775, Note_on_c, 1, 65, 0
1, 28776, Note_on_c, 1, 69, 75
1, 28779, Note_on_c, 0, 77, 0
1, 28782, Note_on_c, 0, 84, 75
1, 28799, Note_on_c, 1, 69, 0
1, 28800, Note_on_c, 1, 62, 75
1, 28805, Note_on_c, 0, 84, 0
1, 28806, Note_on_c, 0, 82, 75
1, 28823, Note_on_c, 1, 62, 0
1, 28824, Note_on_c, 1, 70, 75
1, 28829, Note_on_c, 0, 82, 0
1, 28830, Note_on_c, 0, 86, 75
1, 28847, Note_on_c, 1, 70, 0
1, 28848, Note_on_c, 1, 65, 75
1, 28871, Note_on_c, 1, 65, 0
1, 28872, Note_on_c, 1, 70, 75
1, 28875, Note_on_c, 0, 86, 0
1, 28878, Note_on_c, 0, 84, 75
1, 28895, Note_on_c, 1, 70, 0
1, 28896, Note_on_c, 1, 62, 75
1, 28919, Note_on_c, 1, 62, 0
1, 28920, Note_on_c, 1, 70, 75
1, 28923, Note_on_c, 0, 84, 0
1, 28926, Note_on_c, 0, 82, 75
1, 28943, Note_on_c, 1, 70, 0
1, 28944, Note_on_c, 1, 65, 75
1, 28967, Note_on_c, 1, 65, 0
1, 28968, Note_on_c, 1, 70, 75
1, 28971, Note_on_c, 0, 82, 0
1, 28974, Note_on_c, 0, 81, 75
1, 28991, Note_on_c, 1, 70, 0
1, 28992, Note_on_c, 1, 62, 75
1, 29015, Note_on_c, 1, 62, 0
1, 29016, Note_on_c, 1, 70, 75
1, 29019, Note_on_c, 0, 81, 0
1, 29022, Note_on_c, 0, 79, 75
1, 29039, Note_on_c, 1, 70, 0
1, 29040, Note_on_c, 1, 65, 75
1, 29063, Note_on_c, 1, 65, 0
1, 29064, Note_on_c, 1, 70, 75
1, 29067, Note_on_c, 0, 79, 0
1, 29070, Note_on_c, 0, 77, 75
1, 29087, Note_on_c, 1, 70, 0
1, 29088, Note_on_c, 1, 60, 75
1, 29093, Note_on_c, 0, 77, 0
1, 29094, Note_on_c, 0, 76, 75
1, 29111, Note_on_c, 1, 60, 0
1, 29112, Note_on_c, 1, 70, 75
1, 29135, Note_on_c, 1, 70, 0
1, 29136, Note_on_c, 1, 61, 75
1, 29139, Note_on_c, 0, 76, 0
1, 29142, Note_on_c, 0, 79, 75
1, 29148, Note_on_c, 0, 79, 0
1, 29148, Note_on_c, 0, 77, 75
1, 29159, Note_on_c, 1, 61, 0
1, 29160, Note_on_c, 1, 70, 75
1, 29183, Note_on_c, 1, 70, 0
1, 29184, Note_on_c, 1, 60, 75
1, 29187, Note_on_c, 0, 77, 0
1, 29190, Note_on_c, 0, 76, 75
1, 29207, Note_on_c, 1, 60, 0
1, 29208, Note_on_c, 1, 70, 75
1, 29231, Note_on_c, 1, 70, 0
1, 29232, Note_on_c, 1, 61, 75
1, 29235, Note_on_c, 0, 76, 0
1, 29238, Note_on_c, 0, 79, 75
1, 29244, Note_on_c, 0, 79, 0
1, 29244, Note_on_c, 0, 77, 75
1, 29255, Note_on_c, 1, 61, 0
1, 29256, Note_on_c, 1, 70, 75
1, 29279, Note_on_c, 1, 70, 0
1, 29280, Note_on_c, 1, 60, 75
1, 29283, Note_on_c, 0, 77, 0
1, 29286, Note_on_c, 0, 76, 75
1, 29303, Note_on_c, 1, 60, 0
1, 29304, Note_on_c, 1, 70, 75
1, 29327, Note_on_c, 1, 70, 0
1, 29328, Note_on_c, 1, 61, 75
1, 29331, Note_on_c, 0, 76, 0
1, 29334, Note_on_c, 0, 79, 75
1, 29340, Note_on_c, 0, 79, 0
1, 29340, Note_on_c, 0, 77, 75
1, 29351, Note_on_c, 1, 61, 0
1, 29352, Note_on_c, 1, 70, 75
1, 29375, Note_on_c, 1, 70, 0
1, 29376, Note_on_c, 1, 60, 75
1, 29379, Note_on_c, 0, 77, 0
1, 29382, Note_on_c, 0, 76, 75
1, 29388, Note_on_c, 0, 76, 0
1, 29388, Note_on_c, 0, 79, 75
1, 29394, Note_on_c, 0, 79, 0
1, 29394, Note_on_c, 0, 82, 75
1, 29472, Note_on_c, 1, 60, 0
1, 29472, Note_on_c, 1, 64, 75
1, 29492, Note_on_c, 1, 64, 0
1, 29493, Note_on_c, 0, 82, 0
1, 29494, Note_on_c, 0, 81, 75
1, 29509, Note_on_c, 0, 81, 0
1, 29510, Note_on_c, 0, 79, 75
1, 29525, Note_on_c, 0, 79, 0
1, 29526, Note_on_c, 0, 77, 75
1, 29541, Note_on_c, 0, 77, 0
1, 29542, Note_on_c, 0, 76, 75
1, 29557, Note_on_c, 0, 76, 0
1, 29558, Note_on_c, 0, 74, 75
1, 29573, Note_on_c, 0, 74, 0
1, 29574, Note_on_c, 0, 72, 75
1, 29589, Note_on_c, 0, 72, 0
1, 29590, Note_on_c, 0, 70, 75
1, 29605, Note_on_c, 0, 70, 0
1, 29606, Note_on_c, 0, 69, 75
1, 29621, Note_on_c, 0, 69, 0
1, 29622, Note_on_c, 0, 67, 75
1, 29637, Note_on_c, 0, 67, 0
1, 29638, Note_on_c, 0, 65, 75
1, 29653, Note_on_c, 0, 65, 0
1, 29654, Note_on_c, 0, 64, 75
1, 29664, Note_on_c, 1, 41, 75
1, 29669, Note_on_c, 0, 64, 0
1, 29670, Note_on_c, 0, 60, 75
1, 29673, Note_on_c, 1, 45, 75
1, 29679, Note_on_c, 0, 65, 75
1, 29682, Note_on_c, 1, 48, 75
1, 29688, Note_on_c, 0, 69, 75
1, 29691, Note_on_c, 1, 53, 75
1, 29697, Note_on_c, 0, 72, 75
1, 29766, Note_on_c, 0, 65, 0
1, 29766, Note_on_c, 0, 60, 0
1, 29833, Note_on_c, 0, 72, 0
1, 29833, Note_on_c, 0, 69, 0
1, 29838, Note_on_c, 0, 70, 75
1, 29838, Note_on_c, 0, 67, 75
1, 29849, Note_on_c, 1, 53, 0
1, 29849, Note_on_c, 1, 48, 0
1, 29849, Note_on_c, 1, 45, 0
1, 29849, Note_on_c, 1, 41, 0
1, 29861, Note_on_c, 0, 70, 0
1, 29861, Note_on_c, 0, 67, 0
1, 29862, Note_on_c, 0, 69, 75
1, 29862, Note_on_c, 0, 65, 75
1, 29951, Note_on_c, 0, 69, 0
1, 29951, Note_on_c, 0, 65, 0
1, 29952, Note_on_c, 1, 62, 75
1, 29952, Note_on_c, 1, 58, 75
1, 29958, Note_on_c, 0, 67, 75
1, 29967, Note_on_c, 0, 67, 0
1, 29967, Note_on_c, 0, 69, 75
1, 29976, Note_on_c, 0, 69, 0
1, 29976, Note_on_c, 0, 67, 75
1, 29985, Note_on_c, 0, 67, 0
1, 29985, Note_on_c, 0, 69, 75
1, 29994, Note_on_c, 0, 69, 0
1, 29994, Note_on_c, 0, 67, 75
1, 30003, Note_on_c, 0, 67, 0
1, 30003, Note_on_c, 0, 69, 75
1, 30012, Note_on_c, 0, 69, 0
1, 30012, Note_on_c, 0, 67, 75
1, 30021, Note_on_c, 0, 67, 0
1, 30021, Note_on_c, 0, 69, 75
1, 30030, Note_on_c, 0, 69, 0
1, 30030, Note_on_c, 0, 67, 75
1, 30038, Note_on_c, 0, 67, 0
1, 30038, Note_on_c, 0, 65, 75
1, 30046, Note_on_c, 0, 65, 0
1, 30046, Note_on_c, 0, 67, 75
1, 30048, Note_on_c, 1, 62, 0
1, 30048, Note_on_c, 1, 58, 0
1, 30048, Note_on_c, 1, 60, 75
1, 30048, Note_on_c, 1, 57, 75
1, 30054, Note_on_c, 0, 67, 0
1, 30054, Note_on_c, 0, 65, 75
1, 30115, Note_on_c, 1, 60, 0
1, 30115, Note_on_c, 1, 57, 0
1, 30121, Note_on_c, 0, 65, 0
1, 30150, Note_on_c, 0, 65, 75
1, 30158, Note_on_c, 0, 65, 0
1, 30158, Note_on_c, 0, 67, 75
1, 30166, Note_on_c, 0, 67, 0
1, 30166, Note_on_c, 0, 69, 75
1, 30174, Note_on_c, 0, 69, 0
1, 30174, Note_on_c, 0, 67, 75
1, 30182, Note_on_c, 0, 67, 0
1, 30182, Note_on_c, 0, 65, 75
1, 30190, Note_on_c, 0, 65, 0
1, 30190, Note_on_c, 0, 67, 75
1, 30197, Note_on_c, 0, 67, 0
1, 30197, Note_on_c, 0, 69, 75
1, 30204, Note_on_c, 0, 69, 0
1, 30204, Note_on_c, 0, 70, 75
1, 30211, Note_on_c, 0, 70, 0
1, 30211, Note_on_c, 0, 72, 75
1, 30218, Note_on_c, 0, 72, 0
1, 30218, Note_on_c, 0, 74, 75
1, 30225, Note_on_c, 0, 74, 0
1, 30225, Note_on_c, 0, 76, 75
1, 30232, Note_on_c, 0, 76, 0
1, 30232, Note_on_c, 0, 77, 75
1, 30239, Note_on_c, 0, 77, 0
1, 30239, Note_on_c, 0, 79, 75
1, 30246, Note_on_c, 0, 79, 0
1, 30246, Note_on_c, 0, 81, 75
1, 30266, Note_on_c, 0, 81, 0
1, 30318, Note_on_c, 0, 79, 75
1, 30342, Note_on_c, 0, 79, 0
1, 30342, Note_on_c, 0, 77, 75
1, 30362, Note_on_c, 0, 77, 0
1, 30414, Note_on_c, 0, 76, 75
1, 30438, Note_on_c, 0, 76, 0
1, 30438, Note_on_c, 0, 74, 75
1, 30458, Note_on_c, 0, 74, 0
1, 30510, Note_on_c, 0, 72, 75
1, 30528, Note_on_c, 1, 64, 75
1, 30528, Note_on_c, 1, 60, 75
1, 30533, Note_on_c, 0, 72, 0
1, 30534, Note_on_c, 0, 72, 75
1, 30567, Note_on_c, 0, 72, 0
1, 30569, Note_on_c, 0, 70, 71
1, 30578, Note_on_c, 0, 70, 0
1, 30578, Note_on_c, 0, 72, 70
1, 30587, Note_on_c, 0, 72, 0
1, 30587, Note_on_c, 0, 70, 70
1, 30596, Note_on_c, 0, 70, 0
1, 30596, Note_on_c, 0, 72, 69
1, 30605, Note_on_c, 0, 72, 0
1, 30605, Note_on_c, 0, 70, 68
1, 30614, Note_on_c, 0, 70, 0
1, 30614, Note_on_c, 0, 69, 68
1, 30623, Note_on_c, 0, 69, 0
1, 30623, Note_on_c, 0, 70, 67
1, 30624, Note_on_c, 1, 64, 0
1, 30624, Note_on_c, 1, 60, 0
1, 30624, Note_on_c, 1, 65, 64
1, 30624, Note_on_c, 1, 62, 64
1, 30632, Note_on_c, 0, 70, 0
1, 30632, Note_on_c, 0, 69, 64
1, 30691, Note_on_c, 1, 65, 0
1, 30691, Note_on_c, 1, 62, 0
1, 30699, Note_on_c, 0, 69, 0
1, 30816, Note_on_c, 1, 62, 75
1, 30816, Note_on_c, 1, 58, 75
1, 30824, Note_on_c, 0, 67, 75
1, 30847, Note_on_c, 0, 67, 0
1, 30848, Note_on_c, 0, 69, 75
1, 30856, Note_on_c, 0, 69, 0
1, 30856, Note_on_c, 0, 67, 75
1, 30864, Note_on_c, 0, 67, 0
1, 30864, Note_on_c, 0, 65, 75
1, 30872, Note_on_c, 0, 65, 0
1, 30872, Note_on_c, 0, 67, 75
1, 30882, Note_on_c, 0, 67, 0
1, 30896, Note_on_c, 0, 69, 75
1, 30919, Note_on_c, 0, 69, 0
1, 30920, Note_on_c, 0, 70, 75
1, 30943, Note_on_c, 0, 70, 0
1, 30944, Note_on_c, 0, 72, 75
1, 30952, Note_on_c, 0, 72, 0
1, 30952, Note_on_c, 0, 70, 75
1, 30960, Note_on_c, 0, 70, 0
1, 30960, Note_on_c, 0, 69, 75
1, 30968, Note_on_c, 0, 69, 0
1, 30968, Note_on_c, 0, 70, 75
1, 30978, Note_on_c, 0, 70, 0
1, 30992, Note_on_c, 0, 72, 75
1, 30993, Note_on_c, 1, 62, 0
1, 30993, Note_on_c, 1, 58, 0
1, 31015, Note_on_c, 0, 72, 0
1, 31016, Note_on_c, 0, 73, 75
1, 31031, Note_on_c, 0, 73, 0
1, 31032, Note_on_c, 0, 76, 75
1, 31047, Note_on_c, 0, 76, 0
1, 31048, Note_on_c, 0, 74, 75
1, 31063, Note_on_c, 0, 74, 0
1, 31064, Note_on_c, 0, 62, 75
1, 31079, Note_on_c, 0, 62, 0
1, 31080, Note_on_c, 0, 70, 75
1, 31095, Note_on_c, 0, 70, 0
1, 31096, Note_on_c, 0, 67, 75
1, 31104, Note_on_c, 1, 58, 75
1, 31104, Note_on_c, 1, 48, 75
1, 31111, Note_on_c, 0, 67, 0
1, 31112, Note_on_c, 0, 65, 75
1, 31172, Note_on_c, 0, 65, 0
1, 31172, Note_on_c, 0, 64, 75
1, 31184, Note_on_c, 0, 64, 0
1, 31184, Note_on_c, 0, 67, 75
1, 31196, Note_on_c, 0, 67, 0
1, 31196, Note_on_c, 0, 64, 75
1, 31200, Note_on_c, 1, 58, 0
1, 31200, Note_on_c, 1, 48, 0
1, 31200, Note_on_c, 1, 57, 75
1, 31200, Note_on_c, 1, 53, 75
1, 31208, Note_on_c, 0, 64, 0
1, 31208, Note_on_c, 0, 65, 75
1, 31267, Note_on_c, 1, 57, 0
1, 31267, Note_on_c, 1, 53, 0
1, 31275, Note_on_c, 0, 65, 0
1, 31392, Note_on_c, 1, 53, 75
1, 31392, Note_on_c, 1, 45, 64
1, 31424, Note_on_c, 0, 63, 75
1, 31447, Note_on_c, 0, 63, 0
1, 31448, Note_on_c, 0, 62, 75
1, 31471, Note_on_c, 0, 62, 0
1, 31472, Note_on_c, 0, 63, 75
1, 31495, Note_on_c, 0, 63, 0
1, 31496, Note_on_c, 0, 60, 75
1, 31519, Note_on_c, 0, 60, 0
1, 31520, Note_on_c, 0, 63, 75
1, 31525, Note_on_c, 1, 45, 0
1, 31536, Note_on_c, 1, 46, 64
1, 31543, Note_on_c, 0, 63, 0
1, 31544, Note_on_c, 0, 58, 75
1, 31567, Note_on_c, 0, 58, 0
1, 31568, Note_on_c, 0, 63, 75
1, 31581, Note_on_c, 1, 46, 0
1, 31584, Note_on_c, 1, 48, 64
1, 31591, Note_on_c, 0, 63, 0
1, 31592, Note_on_c, 0, 57, 75
1, 31615, Note_on_c, 0, 57, 0
1, 31616, Note_on_c, 0, 67, 75
1, 31629, Note_on_c, 1, 48, 0
1, 31632, Note_on_c, 1, 45, 64
1, 31639, Note_on_c, 0, 67, 0
1, 31640, Note_on_c, 0, 65, 75
1, 31663, Note_on_c, 0, 65, 0
1, 31664, Note_on_c, 0, 63, 75
1, 31677, Note_on_c, 1, 45, 0
1, 31680, Note_on_c, 1, 46, 64
1, 31687, Note_on_c, 0, 63, 0
1, 31688, Note_on_c, 0, 63, 75
1, 31703, Note_on_c, 1, 53, 0
1, 31704, Note_on_c, 1, 53, 75
1, 31711, Note_on_c, 0, 63, 0
1, 31712, Note_on_c, 0, 62, 75
1, 31727, Note_on_c, 1, 53, 0
1, 31728, Note_on_c, 1, 52, 75
1, 31735, Note_on_c, 0, 62, 0
1, 31736, Note_on_c, 0, 61, 75
1, 31751, Note_on_c, 1, 52, 0
1, 31752, Note_on_c, 1, 53, 75
1, 31759, Note_on_c, 0, 61, 0
1, 31760, Note_on_c, 0, 62, 75
1, 31775, Note_on_c, 1, 53, 0
1, 31776, Note_on_c, 1, 53, 75
1, 31783, Note_on_c, 0, 62, 0
1, 31784, Note_on_c, 0, 62, 75
1, 31799, Note_on_c, 1, 53, 0
1, 31800, Note_on_c, 1, 54, 75
1, 31823, Note_on_c, 1, 54, 0
1, 31824, Note_on_c, 1, 55, 75
1, 31847, Note_on_c, 1, 55, 0
1, 31848, Note_on_c, 1, 54, 75
1, 31857, Note_on_c, 1, 46, 0
1, 31871, Note_on_c, 1, 54, 0
1, 31872, Note_on_c, 1, 55, 75
1, 31872, Note_on_c, 1, 47, 64
1, 31903, Note_on_c, 0, 62, 0
1, 31904, Note_on_c, 0, 69, 75
1, 31927, Note_on_c, 0, 69, 0
1, 31928, Note_on_c, 0, 67, 75
1, 31951, Note_on_c, 0, 67, 0
1, 31952, Note_on_c, 0, 65, 75
1, 31961, Note_on_c, 1, 47, 0
1, 31968, Note_on_c, 1, 48, 64
1, 31975, Note_on_c, 0, 65, 0
1, 31976, Note_on_c, 0, 65, 75
1, 31991, Note_on_c, 1, 55, 0
1, 31992, Note_on_c, 1, 55, 75
1, 31999, Note_on_c, 0, 65, 0
1, 32000, Note_on_c, 0, 64, 75
1, 32015, Note_on_c, 1, 55, 0
1, 32016, Note_on_c, 1, 54, 75
1, 32023, Note_on_c, 0, 64, 0
1, 32024, Note_on_c, 0, 63, 75
1, 32039, Note_on_c, 1, 54, 0
1, 32040, Note_on_c, 1, 55, 75
1, 32047, Note_on_c, 0, 63, 0
1, 32048, Note_on_c, 0, 64, 75
1, 32057, Note_on_c, 1, 48, 0
1, 32063, Note_on_c, 1, 55, 0
1, 32064, Note_on_c, 1, 55, 75
1, 32064, Note_on_c, 1, 48, 64
1, 32071, Note_on_c, 0, 64, 0
1, 32072, Note_on_c, 0, 64, 75
1, 32087, Note_on_c, 1, 48, 0
1, 32088, Note_on_c, 1, 48, 64
1, 32111, Note_on_c, 1, 48, 0
1, 32112, Note_on_c, 1, 47, 64
1, 32135, Note_on_c, 1, 47, 0
1, 32136, Note_on_c, 1, 48, 64
1, 32153, Note_on_c, 1, 55, 0
1, 32159, Note_on_c, 1, 48, 0
1, 32160, Note_on_c, 1, 52, 64
1, 32161, Note_on_c, 0, 64, 0
1, 32183, Note_on_c, 1, 52, 0
1, 32184, Note_on_c, 1, 48, 64
1, 32207, Note_on_c, 1, 48, 0
1, 32208, Note_on_c, 1, 55, 64
1, 32231, Note_on_c, 1, 55, 0
1, 32232, Note_on_c, 1, 52, 64
1, 32255, Note_on_c, 1, 52, 0
1, 32256, Note_on_c, 1, 58, 75
1, 32264, Note_on_c, 0, 60, 75
1, 32266, Note_on_c, 1, 58, 0
1, 32268, Note_on_c, 0, 64, 75
1, 32272, Note_on_c, 0, 67, 75
1, 32280, Note_on_c, 1, 58, 75
1, 32303, Note_on_c, 1, 58, 0
1, 32304, Note_on_c, 1, 57, 75
1, 32327, Note_on_c, 1, 57, 0
1, 32328, Note_on_c, 1, 58, 75
1, 32351, Note_on_c, 1, 58, 0
1, 32352, Note_on_c, 1, 55, 75
1, 32375, Note_on_c, 1, 55, 0
1, 32376, Note_on_c, 1, 58, 75
1, 32399, Note_on_c, 1, 58, 0
1, 32400, Note_on_c, 1, 52, 75
1, 32423, Note_on_c, 1, 52, 0
1, 32424, Note_on_c, 1, 58, 75
1, 32447, Note_on_c, 1, 58, 0
1, 32448, Note_on_c, 1, 48, 75
1, 32471, Note_on_c, 1, 48, 0
1, 32472, Note_on_c, 1, 58, 75
1, 32495, Note_on_c, 1, 58, 0
1, 32496, Note_on_c, 1, 52, 75
1, 32519, Note_on_c, 1, 52, 0
1, 32520, Note_on_c, 1, 58, 75
1, 32537, Note_on_c, 0, 67, 0
1, 32537, Note_on_c, 0, 64, 0
1, 32537, Note_on_c, 0, 60, 0
1, 32544, Note_on_c, 1, 53, 64
1, 32576, Note_on_c, 0, 60, 75
1, 32599, Note_on_c, 0, 60, 0
1, 32600, Note_on_c, 0, 59, 75
1, 32623, Note_on_c, 0, 59, 0
1, 32624, Note_on_c, 0, 60, 75
1, 32633, Note_on_c, 1, 58, 0
1, 32640, Note_on_c, 1, 57, 75
1, 32647, Note_on_c, 0, 60, 0
1, 32648, Note_on_c, 0, 65, 75
1, 32671, Note_on_c, 0, 65, 0
1, 32672, Note_on_c, 0, 60, 75
1, 32695, Note_on_c, 0, 60, 0
1, 32696, Note_on_c, 0, 69, 75
1, 32719, Note_on_c, 0, 69, 0
1, 32720, Note_on_c, 0, 65, 75
1, 32743, Note_on_c, 0, 65, 0
1, 32744, Note_on_c, 0, 72, 75
1, 32767, Note_on_c, 0, 72, 0
1, 32768, Note_on_c, 0, 69, 75
1, 32791, Note_on_c, 0, 69, 0
1, 32792, Note_on_c, 0, 67, 75
1, 32798, Note_on_c, 0, 67, 0
1, 32798, Note_on_c, 0, 69, 75
1, 32804, Note_on_c, 0, 69, 0
1, 32804, Note_on_c, 0, 67, 75
1, 32809, Note_on_c, 1, 53, 0
1, 32815, Note_on_c, 0, 67, 0
1, 32816, Note_on_c, 0, 65, 75
1, 32817, Note_on_c, 1, 57, 0
1, 32839, Note_on_c, 0, 65, 0
1, 32840, Note_on_c, 0, 60, 75
1, 32844, Note_on_c, 0, 64, 75
1, 32848, Note_on_c, 0, 67, 75
1, 32856, Note_on_c, 1, 58, 75
1, 32879, Note_on_c, 1, 58, 0
1, 32880, Note_on_c, 1, 57, 75
1, 32903, Note_on_c, 1, 57, 0
1, 32904, Note_on_c, 1, 58, 75
1, 32927, Note_on_c, 1, 58, 0
1, 32928, Note_on_c, 1, 55, 75
1, 32943, Note_on_c, 1, 55, 0
1, 32944, Note_on_c, 1, 58, 75
1, 32959, Note_on_c, 1, 58, 0
1, 32960, Note_on_c, 1, 58, 75
1, 32975, Note_on_c, 1, 58, 0
1, 32976, Note_on_c, 1, 52, 75
1, 32991, Note_on_c, 1, 52, 0
1, 32992, Note_on_c, 1, 58, 75
1, 33007, Note_on_c, 1, 58, 0
1, 33008, Note_on_c, 1, 58, 75
1, 33023, Note_on_c, 1, 58, 0
1, 33024, Note_on_c, 1, 48, 75
1, 33039, Note_on_c, 1, 48, 0
1, 33040, Note_on_c, 1, 58, 75
1, 33055, Note_on_c, 1, 58, 0
1, 33056, Note_on_c, 1, 58, 75
1, 33071, Note_on_c, 1, 58, 0
1, 33072, Note_on_c, 1, 52, 75
1, 33087, Note_on_c, 1, 52, 0
1, 33088, Note_on_c, 1, 58, 75
1, 33103, Note_on_c, 1, 58, 0
1, 33104, Note_on_c, 1, 58, 75
1, 33113, Note_on_c, 0, 67, 0
1, 33113, Note_on_c, 0, 64, 0
1, 33113, Note_on_c, 0, 60, 0
1, 33120, Note_on_c, 1, 53, 64
1, 33152, Note_on_c, 0, 60, 75
1, 33175, Note_on_c, 0, 60, 0
1, 33176, Note_on_c, 0, 59, 75
1, 33199, Note_on_c, 0, 59, 0
1, 33200, Note_on_c, 0, 60, 75
1, 33209, Note_on_c, 1, 58, 0
1, 33216, Note_on_c, 1, 57, 75
1, 33223, Note_on_c, 0, 60, 0
1, 33224, Note_on_c, 0, 65, 75
1, 33239, Note_on_c, 0, 65, 0
1, 33240, Note_on_c, 0, 60, 75
1, 33255, Note_on_c, 0, 60, 0
1, 33256, Note_on_c, 0, 60, 75
1, 33271, Note_on_c, 0, 60, 0
1, 33272, Note_on_c, 0, 69, 75
1, 33287, Note_on_c, 0, 69, 0
1, 33288, Note_on_c, 0, 65, 75
1, 33303, Note_on_c, 0, 65, 0
1, 33304, Note_on_c, 0, 65, 75
1, 33305, Note_on_c, 1, 57, 0
1, 33312, Note_on_c, 0, 72, 64
1, 33312, Note_on_c, 1, 57, 75
1, 33319, Note_on_c, 0, 65, 0
1, 33320, Note_on_c, 0, 72, 75
1, 33335, Note_on_c, 0, 72, 0
1, 33336, Note_on_c, 0, 69, 64
1, 33359, Note_on_c, 0, 69, 0
1, 33360, Note_on_c, 0, 67, 64
1, 33366, Note_on_c, 0, 67, 0
1, 33366, Note_on_c, 0, 69, 64
1, 33372, Note_on_c, 0, 69, 0
1, 33372, Note_on_c, 0, 67, 64
1, 33383, Note_on_c, 0, 67, 0
1, 33384, Note_on_c, 0, 65, 64
1, 33385, Note_on_c, 1, 53, 0
1, 33401, Note_on_c, 1, 57, 0
1, 33407, Note_on_c, 0, 65, 0
1, 33408, Note_on_c, 0, 74, 64
1, 33408, Note_on_c, 1, 58, 75
1, 33418, Note_on_c, 1, 58, 0
1, 33432, Note_on_c, 1, 58, 75
1, 33455, Note_on_c, 1, 58, 0
1, 33456, Note_on_c, 1, 57, 75
1, 33479, Note_on_c, 1, 57, 0
1, 33480, Note_on_c, 1, 58, 75
1, 33503, Note_on_c, 1, 58, 0
1, 33504, Note_on_c, 1, 67, 75
1, 33505, Note_on_c, 0, 72, 0
1, 33512, Note_on_c, 0, 70, 75
1, 33514, Note_on_c, 1, 67, 0
1, 33528, Note_on_c, 1, 67, 75
1, 33551, Note_on_c, 1, 67, 0
1, 33552, Note_on_c, 1, 66, 75
1, 33575, Note_on_c, 1, 66, 0
1, 33576, Note_on_c, 1, 67, 75
1, 33585, Note_on_c, 0, 74, 0
1, 33599, Note_on_c, 1, 67, 0
1, 33600, Note_on_c, 0, 72, 64
1, 33600, Note_on_c, 1, 64, 75
1, 33601, Note_on_c, 0, 70, 0
1, 33608, Note_on_c, 0, 70, 75
1, 33610, Note_on_c, 1, 64, 0
1, 33624, Note_on_c, 1, 64, 75
1, 33647, Note_on_c, 1, 64, 0
1, 33648, Note_on_c, 1, 62, 75
1, 33671, Note_on_c, 1, 62, 0
1, 33672, Note_on_c, 1, 64, 75
1, 33689, Note_on_c, 0, 72, 0
1, 33695, Note_on_c, 1, 64, 0
1, 33696, Note_on_c, 1, 65, 75
1, 33727, Note_on_c, 0, 70, 0
1, 33728, Note_on_c, 0, 69, 75
1, 33751, Note_on_c, 0, 69, 0
1, 33752, Note_on_c, 0, 68, 75
1, 33775, Note_on_c, 0, 68, 0
1, 33776, Note_on_c, 0, 69, 76
1, 33785, Note_on_c, 1, 65, 0
1, 33799, Note_on_c, 0, 69, 0
1, 33800, Note_on_c, 0, 74, 76
1, 33823, Note_on_c, 0, 74, 0
1, 33824, Note_on_c, 0, 72, 77
1, 33847, Note_on_c, 0, 72, 0
1, 33848, Note_on_c, 0, 71, 77
1, 33871, Note_on_c, 0, 71, 0
1, 33872, Note_on_c, 0, 72, 77
1, 33895, Note_on_c, 0, 72, 0
1, 33896, Note_on_c, 0, 79, 78
1, 33919, Note_on_c, 0, 79, 0
1, 33920, Note_on_c, 0, 77, 78
1, 33943, Note_on_c, 0, 77, 0
1, 33944, Note_on_c, 0, 76, 79
1, 33960, Note_on_c, 1, 53, 75
1, 33960, Note_on_c, 1, 45, 75
1, 33967, Note_on_c, 0, 76, 0
1, 33968, Note_on_c, 0, 75, 79
1, 33984, Note_on_c, 1, 45, 0
1, 33984, Note_on_c, 1, 46, 75
1, 33991, Note_on_c, 0, 75, 0
1, 33992, Note_on_c, 0, 74, 80
1, 34015, Note_on_c, 0, 74, 0
1, 34016, Note_on_c, 0, 73, 79
1, 34039, Note_on_c, 0, 73, 0
1, 34040, Note_on_c, 0, 72, 79
1, 34063, Note_on_c, 0, 72, 0
1, 34064, Note_on_c, 0, 70, 78
1, 34064, Note_on_c, 0, 67, 78
1, 34073, Note_on_c, 1, 53, 0
1, 34073, Note_on_c, 1, 46, 0
1, 34080, Note_on_c, 1, 48, 75
1, 34087, Note_on_c, 0, 70, 0
1, 34087, Note_on_c, 0, 67, 0
1, 34088, Note_on_c, 0, 69, 78
1, 34088, Note_on_c, 0, 65, 78
1, 34169, Note_on_c, 1, 48, 0
1, 34176, Note_on_c, 1, 36, 75
1, 34177, Note_on_c, 0, 69, 0
1, 34177, Note_on_c, 0, 65, 0
1, 34184, Note_on_c, 0, 72, 76
1, 34184, Note_on_c, 0, 69, 76
1, 34207, Note_on_c, 0, 72, 0
1, 34207, Note_on_c, 0, 69, 0
1, 34208, Note_on_c, 0, 70, 76
1, 34208, Note_on_c, 0, 67, 76
1, 34231, Note_on_c, 0, 70, 0
1, 34231, Note_on_c, 0, 67, 0
1, 34232, Note_on_c, 0, 69, 75
1, 34232, Note_on_c, 0, 65, 75
1, 34265, Note_on_c, 1, 36, 0
1, 34266, Note_on_c, 0, 69, 0
1, 34266, Note_on_c, 0, 65, 0
1, 34268, Note_on_c, 0, 67, 75
1, 34268, Note_on_c, 0, 64, 75
1, 34280, Note_on_c, 0, 67, 0
1, 34280, Note_on_c, 0, 64, 0
1, 34280, Note_on_c, 0, 67, 75
1, 34280, Note_on_c, 0, 64, 75
1, 34368, Note_on_c, 1, 50, 75
1, 34369, Note_on_c, 0, 67, 0
1, 34369, Note_on_c, 0, 64, 0
1, 34376, Note_on_c, 0, 59, 75
1, 34384, Note_on_c, 1, 53, 75
1, 34392, Note_on_c, 0, 62, 75
1, 34400, Note_on_c, 1, 56, 75
1, 34408, Note_on_c, 0, 65, 75
1, 34472, Note_on_c, 0, 62, 0
1, 34472, Note_on_c, 0, 59, 0
1, 34495, Note_on_c, 0, 65, 0
1, 34496, Note_on_c, 0, 65, 75
1, 34502, Note_on_c, 0, 65, 0
1, 34502, Note_on_c, 0, 64, 75
1, 34508, Note_on_c, 0, 64, 0
1, 34508, Note_on_c, 0, 65, 75
1, 34519, Note_on_c, 0, 65, 0
1, 34520, Note_on_c, 0, 67, 75
1, 34543, Note_on_c, 0, 67, 0
1, 34544, Note_on_c, 0, 68, 75
1, 34553, Note_on_c, 1, 56, 0
1, 34553, Note_on_c, 1, 53, 0
1, 34553, Note_on_c, 1, 50, 0
1, 34567, Note_on_c, 0, 68, 0
1, 34568, Note_on_c, 0, 68, 75
1, 34613, Note_on_c, 0, 68, 0
1, 34616, Note_on_c, 0, 59, 75
1, 34661, Note_on_c, 0, 59, 0
1, 34664, Note_on_c, 0, 67, 75
1, 34752, Note_on_c, 1, 55, 75
1, 34752, Note_on_c, 1, 52, 75
1, 34775, Note_on_c, 0, 67, 0
1, 34776, Note_on_c, 0, 65, 75
1, 34791, Note_on_c, 0, 65, 0
1, 34792, Note_on_c, 0, 64, 75
1, 34807, Note_on_c, 0, 64, 0
1, 34808, Note_on_c, 0, 62, 75
1, 34823, Note_on_c, 0, 62, 0
1, 34824, Note_on_c, 0, 60, 75
1, 34839, Note_on_c, 0, 60, 0
1, 34840, Note_on_c, 0, 58, 75
1, 34841, Note_on_c, 1, 55, 0
1, 34841, Note_on_c, 1, 52, 0
1, 34848, Note_on_c, 1, 53, 75
1, 34855, Note_on_c, 0, 58, 0
1, 34856, Note_on_c, 0, 57, 75
1, 34871, Note_on_c, 0, 57, 0
1, 34872, Note_on_c, 0, 60, 75
1, 34887, Note_on_c, 0, 60, 0
1, 34888, Note_on_c, 0, 65, 76
1, 34903, Note_on_c, 0, 65, 0
1, 34904, Note_on_c, 0, 69, 76
1, 34919, Note_on_c, 0, 69, 0
1, 34920, Note_on_c, 0, 72, 77
1, 34935, Note_on_c, 0, 72, 0
1, 34936, Note_on_c, 0, 77, 78
1, 34937, Note_on_c, 1, 53, 0
1, 34951, Note_on_c, 0, 77, 0
1, 34952, Note_on_c, 0, 81, 94
1, 34952, Note_on_c, 0, 69, 94
1, 35040, Note_on_c, 1, 53, 75
1, 35040, Note_on_c, 1, 48, 75
1, 35040, Note_on_c, 1, 45, 75
1, 35063, Note_on_c, 0, 81, 0
1, 35063, Note_on_c, 0, 69, 0
1, 35064, Note_on_c, 0, 79, 77
1, 35064, Note_on_c, 0, 67, 77
1, 35079, Note_on_c, 0, 79, 0
1, 35079, Note_on_c, 0, 67, 0
1, 35080, Note_on_c, 0, 77, 77
1, 35080, Note_on_c, 0, 65, 77
1, 35095, Note_on_c, 0, 77, 0
1, 35095, Note_on_c, 0, 65, 0
1, 35096, Note_on_c, 0, 76, 77
1, 35096, Note_on_c, 0, 64, 77
1, 35111, Note_on_c, 0, 76, 0
1, 35111, Note_on_c, 0, 64, 0
1, 35112, Note_on_c, 0, 74, 76
1, 35112, Note_on_c, 0, 62, 76
1, 35127, Note_on_c, 0, 74, 0
1, 35127, Note_on_c, 0, 62, 0
1, 35128, Note_on_c, 0, 72, 76
1, 35128, Note_on_c, 0, 60, 76
1, 35129, Note_on_c, 1, 53, 0
1, 35129, Note_on_c, 1, 48, 0
1, 35129, Note_on_c, 1, 45, 0
1, 35136, Note_on_c, 1, 46, 75
1, 35143, Note_on_c, 0, 72, 0
1, 35143, Note_on_c, 0, 60, 0
1, 35175, Note_on_c, 1, 46, 0
1, 35192, Note_on_c, 0, 74, 75
1, 35192, Note_on_c, 0, 70, 75
1, 35232, Note_on_c, 1, 48, 75
1, 35237, Note_on_c, 0, 74, 0
1, 35237, Note_on_c, 0, 70, 0
1, 35271, Note_on_c, 1, 48, 0
1, 35288, Note_on_c, 0, 72, 75
1, 35288, Note_on_c, 0, 69, 75
1, 35328, Note_on_c, 1, 36, 75
1, 35333, Note_on_c, 0, 72, 0
1, 35333, Note_on_c, 0, 69, 0
1, 35367, Note_on_c, 1, 36, 0
1, 35384, Note_on_c, 0, 64, 75
1, 35384, Note_on_c, 0, 58, 75
1, 35429, Note_on_c, 0, 64, 0
1, 35429, Note_on_c, 0, 58, 0
1, 35432, Note_on_c, 0, 84, 96
1, 35432, Note_on_c, 0, 72, 96
1, 35520, Note_on_c, 1, 57, 80
1, 35520, Note_on_c, 1, 53, 80
1, 35520, Note_on_c, 1, 48, 80
1, 35520, Note_on_c, 1, 45, 80
1, 35543, Note_on_c, 0, 84, 0
1, 35543, Note_on_c, 0, 72, 0
1, 35544, Note_on_c, 0, 81, 80
1, 35544, Note_on_c, 0, 69, 80
1, 35559, Note_on_c, 0, 81, 0
1, 35559, Note_on_c, 0, 69, 0
1, 35560, Note_on_c, 0, 79, 80
1, 35560, Note_on_c, 0, 67, 80
1, 35575, Note_on_c, 0, 79, 0
1, 35575, Note_on_c, 0, 67, 0
1, 35576, Note_on_c, 0, 77, 80
1, 35576, Note_on_c, 0, 65, 80
1, 35591, Note_on_c, 0, 77, 0
1, 35591, Note_on_c, 0, 65, 0
1, 35592, Note_on_c, 0, 76, 80
1, 35592, Note_on_c, 0, 64, 80
1, 35607, Note_on_c, 0, 76, 0
1, 35607, Note_on_c, 0, 64, 0
1, 35608, Note_on_c, 0, 74, 80
1, 35608, Note_on_c, 0, 62, 80
1, 35623, Note_on_c, 0, 74, 0
1, 35623, Note_on_c, 0, 62, 0
1, 35624, Note_on_c, 0, 72, 80
1, 35624, Note_on_c, 0, 60, 80
1, 35669, Note_on_c, 0, 72, 0
1, 35669, Note_on_c, 0, 60, 0
1, 35672, Note_on_c, 0, 73, 80
1, 35672, Note_on_c, 0, 61, 80
1, 35697, Note_on_c, 1, 57, 0
1, 35697, Note_on_c, 1, 53, 0
1, 35697, Note_on_c, 1, 48, 0
1, 35697, Note_on_c, 1, 45, 0
1, 35712, Note_on_c, 1, 58, 80
1, 35712, Note_on_c, 1, 46, 80
1, 35751, Note_on_c, 1, 58, 0
1, 35751, Note_on_c, 1, 46, 0
1, 35765, Note_on_c, 0, 73, 0
1, 35765, Note_on_c, 0, 61, 0
1, 35768, Note_on_c, 0, 74, 80
1, 35768, Note_on_c, 0, 62, 80
1, 35808, Note_on_c, 1, 34, 80
1, 35813, Note_on_c, 0, 74, 0
1, 35813, Note_on_c, 0, 62, 0
1, 35847, Note_on_c, 1, 34, 0
1, 35864, Note_on_c, 0, 86, 80
1, 35864, Note_on_c, 0, 82, 80
1, 35904, Note_on_c, 1, 48, 80
1, 35904, Note_on_c, 1, 36, 80
1, 35909, Note_on_c, 0, 86, 0
1, 35909, Note_on_c, 0, 82, 0
1, 35943, Note_on_c, 1, 48, 0
1, 35943, Note_on_c, 1, 36, 0
1, 35960, Note_on_c, 0, 64, 80
1, 35960, Note_on_c, 0, 58, 80
1, 36000, Note_on_c, 1, 41, 75
1, 36005, Note_on_c, 0, 64, 0
1, 36005, Note_on_c, 0, 58, 0
1, 36008, Note_on_c, 0, 65, 75
1, 36008, Note_on_c, 0, 57, 75
1, 36023, Note_on_c, 1, 41, 0
1, 36024, Note_on_c, 1, 53, 75
1, 36047, Note_on_c, 1, 53, 0
1, 36048, Note_on_c, 1, 52, 75
1, 36071, Note_on_c, 1, 52, 0
1, 36072, Note_on_c, 1, 53, 75
1, 36095, Note_on_c, 1, 53, 0
1, 36096, Note_on_c, 1, 41, 75
1, 36097, Note_on_c, 0, 65, 0
1, 36097, Note_on_c, 0, 57, 0
1, 36119, Note_on_c, 1, 41, 0
1, 36120, Note_on_c, 1, 53, 75
1, 36143, Note_on_c, 1, 53, 0
1, 36144, Note_on_c, 1, 46, 75
1, 36152, Note_on_c, 0, 62, 75
1, 36167, Note_on_c, 1, 46, 0
1, 36168, Note_on_c, 1, 53, 75
1, 36191, Note_on_c, 1, 53, 0
1, 36192, Note_on_c, 1, 45, 75
1, 36200, Note_on_c, 0, 62, 0
1, 36200, Note_on_c, 0, 60, 75
1, 36215, Note_on_c, 1, 45, 0
1, 36216, Note_on_c, 1, 53, 75
1, 36220, Note_on_c, 0, 60, 0
1, 36239, Note_on_c, 1, 53, 0
1, 36240, Note_on_c, 1, 43, 75
1, 36248, Note_on_c, 0, 70, 75
1, 36248, Note_on_c, 0, 64, 75
1, 36263, Note_on_c, 1, 43, 0
1, 36264, Note_on_c, 1, 53, 75
1, 36268, Note_on_c, 0, 70, 0
1, 36268, Note_on_c, 0, 64, 0
1, 36287, Note_on_c, 1, 53, 0
1, 36288, Note_on_c, 1, 41, 75
1, 36296, Note_on_c, 0, 70, 75
1, 36296, Note_on_c, 0, 64, 75
1, 36311, Note_on_c, 1, 41, 0
1, 36312, Note_on_c, 1, 53, 75
1, 36335, Note_on_c, 1, 53, 0
1, 36336, Note_on_c, 1, 52, 75
1, 36359, Note_on_c, 1, 52, 0
1, 36360, Note_on_c, 1, 53, 75
1, 36383, Note_on_c, 1, 53, 0
1, 36384, Note_on_c, 1, 41, 75
1, 36392, Note_on_c, 0, 70, 0
1, 36392, Note_on_c, 0, 64, 0
1, 36392, Note_on_c, 0, 69, 75
1, 36392, Note_on_c, 0, 65, 75
1, 36407, Note_on_c, 1, 41, 0
1, 36408, Note_on_c, 1, 53, 75
1, 36412, Note_on_c, 0, 69, 0
1, 36412, Note_on_c, 0, 65, 0
1, 36431, Note_on_c, 1, 53, 0
1, 36432, Note_on_c, 1, 46, 75
1, 36440, Note_on_c, 0, 62, 75
1, 36455, Note_on_c, 1, 46, 0
1, 36456, Note_on_c, 1, 53, 75
1, 36479, Note_on_c, 1, 53, 0
1, 36480, Note_on_c, 1, 45, 75
1, 36488, Note_on_c, 0, 62, 0
1, 36488, Note_on_c, 0, 60, 75
1, 36503, Note_on_c, 1, 45, 0
1, 36504, Note_on_c, 1, 53, 75
1, 36508, Note_on_c, 0, 60, 0
1, 36527, Note_on_c, 1, 53, 0
1, 36528, Note_on_c, 1, 43, 75
1, 36536, Note_on_c, 0, 64, 75
1, 36536, Note_on_c, 0, 58, 75
1, 36551, Note_on_c, 1, 43, 0
1, 36552, Note_on_c, 1, 53, 75
1, 36556, Note_on_c, 0, 64, 0
1, 36556, Note_on_c, 0, 58, 0
1, 36575, Note_on_c, 1, 53, 0
1, 36576, Note_on_c, 1, 64, 75
1, 36576, Note_on_c, 1, 58, 75
1, 36576, Note_on_c, 1, 41, 75
1, 36672, Note_on_c, 1, 64, 0
1, 36672, Note_on_c, 1, 58, 0
1, 36672, Note_on_c, 1, 45, 75
1, 36682, Note_on_c, 1, 48, 75
1, 36692, Note_on_c, 1, 53, 75
1, 36702, Note_on_c, 1, 57, 75
1, 36712, Note_on_c, 1, 60, 75
1, 36722, Note_on_c, 1, 65, 75
1, 36805, Note_on_c, 1, 65, 0
1, 36805, Note_on_c, 1, 60, 0
1, 36805, Note_on_c, 1, 57, 0
1, 36805, Note_on_c, 1, 53, 0
1, 36805, Note_on_c, 1, 48, 0
1, 36805, Note_on_c, 1, 45, 0
1, 36805, Note_on_c, 1, 41, 0
1, 36864, Note_on_c, 1, 41, 0
1, 36953, Note_on_c, 1, 41, 0
1, 36963, End_track
0, 0, End_of_file