0, 0, Header, 0, 1, 96
1, 0, Start_track
1, 0, Tempo, 769230
1, 0, Note_on_c, 0, 64, 80
1, 0, Note_on_c, 0, 64, 96
1, 0, Note_on_c, 1, 52, 80
1, 0, Note_on_c, 1, 40, 80
1, 6, Note_on_c, 0, 68, 80
1, 12, Note_on_c, 0, 71, 80
1, 18, Note_on_c, 0, 76, 80
1, 72, Note_on_c, 0, 64, 0
1, 72, Note_on_c, 0, 64, 75
1, 82, Note_on_c, 0, 64, 0
1, 89, Note_on_c, 1, 52, 0
1, 89, Note_on_c, 1, 40, 0
1, 93, Note_on_c, 0, 76, 0
1, 93, Note_on_c, 0, 71, 0
1, 93, Note_on_c, 0, 68, 0
1, 93, Note_on_c, 0, 64, 0
1, 96, Note_on_c, 0, 68, 75
1, 96, Note_on_c, 1, 64, 75
1, 116, Note_on_c, 0, 68, 0
1, 141, Note_on_c, 1, 64, 0
1, 144, Note_on_c, 0, 69, 75
1, 144, Note_on_c, 1, 66, 75
1, 164, Note_on_c, 0, 69, 0
1, 189, Note_on_c, 1, 66, 0
1, 192, Note_on_c, 0, 71, 75
1, 192, Note_on_c, 1, 68, 75
1, 215, Note_on_c, 0, 71, 0
1, 216, Note_on_c, 0, 73, 75
1, 224, Note_on_c, 0, 73, 0
1, 224, Note_on_c, 0, 71, 75
1, 232, Note_on_c, 0, 71, 0
1, 232, Note_on_c, 0, 69, 75
1, 240, Note_on_c, 0, 69, 0
1, 240, Note_on_c, 0, 71, 75
1, 259, Note_on_c, 1, 68, 0
1, 263, Note_on_c, 0, 71, 0
1, 264, Note_on_c, 0, 73, 75
1, 264, Note_on_c, 1, 69, 75
1, 274, Note_on_c, 0, 73, 0
1, 287, Note_on_c, 1, 69, 0
1, 288, Note_on_c, 0, 71, 75
1, 288, Note_on_c, 1, 68, 75
1, 333, Note_on_c, 0, 71, 0
1, 333, Note_on_c, 1, 68, 0
1, 336, Note_on_c, 0, 71, 75
1, 336, Note_on_c, 1, 63, 75
1, 344, Note_on_c, 0, 71, 0
1, 344, Note_on_c, 0, 69, 75
1, 352, Note_on_c, 0, 69, 0
1, 352, Note_on_c, 0, 71, 75
1, 360, Note_on_c, 0, 71, 0
1, 360, Note_on_c, 0, 69, 75
1, 368, Note_on_c, 0, 69, 0
1, 368, Note_on_c, 0, 68, 75
1, 376, Note_on_c, 0, 68, 0
1, 376, Note_on_c, 0, 69, 75
1, 381, Note_on_c, 1, 63, 0
1, 384, Note_on_c, 0, 69, 0
1, 384, Note_on_c, 0, 68, 75
1, 384, Note_on_c, 1, 64, 75
1, 429, Note_on_c, 0, 68, 0
1, 429, Note_on_c, 1, 64, 0
1, 432, Note_on_c, 0, 64, 75
1, 432, Note_on_c, 0, 59, 75
1, 432, Note_on_c, 1, 56, 75
1, 432, Note_on_c, 1, 44, 75
1, 477, Note_on_c, 0, 64, 0
1, 477, Note_on_c, 0, 59, 0
1, 477, Note_on_c, 1, 56, 0
1, 477, Note_on_c, 1, 44, 0
1, 480, Note_on_c, 0, 66, 75
1, 480, Note_on_c, 0, 61, 75
1, 480, Note_on_c, 1, 57, 75
1, 480, Note_on_c, 1, 45, 75
1, 525, Note_on_c, 0, 66, 0
1, 525, Note_on_c, 0, 61, 0
1, 525, Note_on_c, 1, 57, 0
1, 525, Note_on_c, 1, 45, 0
1, 528, Note_on_c, 0, 63, 75
1, 528, Note_on_c, 1, 54, 75
1, 528, Note_on_c, 1, 47, 75
1, 573, Note_on_c, 0, 63, 0
1, 573, Note_on_c, 1, 54, 0
1, 573, Note_on_c, 1, 47, 0
1, 576, Note_on_c, 0, 64, 75
1, 576, Note_on_c, 1, 52, 75
1, 576, Note_on_c, 1, 40, 75
1, 591, Note_on_c, 0, 64, 0
1, 592, Note_on_c, 0, 66, 75
1, 607, Note_on_c, 0, 66, 0
1, 608, Note_on_c, 0, 68, 75
1, 623, Note_on_c, 0, 68, 0
1, 624, Note_on_c, 0, 59, 75
1, 665, Note_on_c, 1, 52, 0
1, 665, Note_on_c, 1, 40, 0
1, 669, Note_on_c, 0, 59, 0
1, 684, Note_on_c, 0, 64, 91
1, 696, Note_on_c, 0, 64, 0
1, 696, Note_on_c, 0, 66, 75
1, 708, Note_on_c, 0, 66, 0
1, 708, Note_on_c, 0, 68, 76
1, 720, Note_on_c, 0, 68, 0
1, 720, Note_on_c, 0, 69, 77
1, 732, Note_on_c, 0, 69, 0
1, 732, Note_on_c, 0, 71, 77
1, 744, Note_on_c, 0, 71, 0
1, 744, Note_on_c, 0, 73, 78
1, 756, Note_on_c, 0, 73, 0
1, 756, Note_on_c, 0, 75, 79
1, 768, Note_on_c, 0, 75, 0
1, 768, Note_on_c, 0, 76, 96
1, 768, Note_on_c, 1, 59, 96
1, 768, Note_on_c, 1, 56, 96
1, 768, Note_on_c, 1, 52, 96
1, 840, Note_on_c, 0, 76, 0
1, 840, Note_on_c, 0, 68, 75
1, 840, Note_on_c, 1, 59, 0
1, 840, Note_on_c, 1, 56, 0
1, 840, Note_on_c, 1, 52, 0
1, 840, Note_on_c, 1, 64, 75
1, 863, Note_on_c, 0, 68, 0
1, 863, Note_on_c, 1, 64, 0
1, 864, Note_on_c, 0, 69, 75
1, 864, Note_on_c, 1, 66, 75
1, 884, Note_on_c, 0, 69, 0
1, 909, Note_on_c, 1, 66, 0
1, 912, Note_on_c, 0, 71, 75
1, 912, Note_on_c, 1, 68, 75
1, 932, Note_on_c, 0, 71, 0
1, 957, Note_on_c, 1, 68, 0
1, 960, Note_on_c, 0, 73, 75
1, 960, Note_on_c, 1, 69, 75
1, 983, Note_on_c, 0, 73, 0
1, 984, Note_on_c, 0, 75, 75
1, 992, Note_on_c, 0, 75, 0
1, 992, Note_on_c, 0, 73, 75
1, 1000, Note_on_c, 0, 73, 0
1, 1000, Note_on_c, 0, 71, 75
1, 1005, Note_on_c, 1, 69, 0
1, 1008, Note_on_c, 0, 71, 0
1, 1008, Note_on_c, 0, 73, 75
1, 1008, Note_on_c, 1, 57, 75
1, 1031, Note_on_c, 0, 73, 0
1, 1032, Note_on_c, 0, 76, 75
1, 1042, Note_on_c, 0, 76, 0
1, 1053, Note_on_c, 1, 57, 0
1, 1056, Note_on_c, 0, 71, 75
1, 1056, Note_on_c, 1, 68, 75
1, 1101, Note_on_c, 0, 71, 0
1, 1101, Note_on_c, 1, 68, 0
1, 1104, Note_on_c, 0, 68, 75
1, 1104, Note_on_c, 1, 64, 75
1, 1149, Note_on_c, 0, 68, 0
1, 1149, Note_on_c, 1, 64, 0
1, 1152, Note_on_c, 1, 51, 70
1, 1176, Note_on_c, 0, 69, 70
1, 1197, Note_on_c, 1, 51, 0
1, 1200, Note_on_c, 1, 59, 70
1, 1221, Note_on_c, 0, 69, 0
1, 1224, Note_on_c, 0, 66, 70
1, 1245, Note_on_c, 1, 59, 0
1, 1248, Note_on_c, 1, 52, 70
1, 1269, Note_on_c, 0, 66, 0
1, 1272, Note_on_c, 0, 68, 70
1, 1293, Note_on_c, 1, 52, 0
1, 1296, Note_on_c, 1, 59, 70
1, 1317, Note_on_c, 0, 68, 0
1, 1320, Note_on_c, 0, 64, 70
1, 1341, Note_on_c, 1, 59, 0
1, 1343, Note_on_c, 0, 64, 0
1, 1344, Note_on_c, 1, 51, 70
1, 1368, Note_on_c, 0, 78, 70
1, 1389, Note_on_c, 1, 51, 0
1, 1392, Note_on_c, 1, 59, 70
1, 1413, Note_on_c, 0, 78, 0
1, 1416, Note_on_c, 0, 69, 70
1, 1437, Note_on_c, 1, 59, 0
1, 1440, Note_on_c, 1, 52, 70
1, 1461, Note_on_c, 0, 69, 0
1, 1464, Note_on_c, 0, 68, 70
1, 1485, Note_on_c, 1, 52, 0
1, 1488, Note_on_c, 1, 59, 70
1, 1509, Note_on_c, 0, 68, 0
1, 1512, Note_on_c, 0, 71, 70
1, 1533, Note_on_c, 1, 59, 0
1, 1535, Note_on_c, 0, 71, 0
1, 1536, Note_on_c, 1, 51, 70
1, 1560, Note_on_c, 0, 69, 70
1, 1581, Note_on_c, 1, 51, 0
1, 1584, Note_on_c, 1, 59, 70
1, 1605, Note_on_c, 0, 69, 0
1, 1608, Note_on_c, 0, 66, 70
1, 1629, Note_on_c, 1, 59, 0
1, 1632, Note_on_c, 1, 52, 70
1, 1653, Note_on_c, 0, 66, 0
1, 1656, Note_on_c, 0, 68, 70
1, 1677, Note_on_c, 1, 52, 0
1, 1680, Note_on_c, 1, 59, 70
1, 1701, Note_on_c, 0, 68, 0
1, 1704, Note_on_c, 0, 64, 70
1, 1725, Note_on_c, 1, 59, 0
1, 1727, Note_on_c, 0, 64, 0
1, 1728, Note_on_c, 1, 51, 70
1, 1752, Note_on_c, 0, 78, 70
1, 1773, Note_on_c, 1, 51, 0
1, 1776, Note_on_c, 1, 59, 70
1, 1797, Note_on_c, 0, 78, 0
1, 1800, Note_on_c, 0, 69, 70
1, 1821, Note_on_c, 1, 59, 0
1, 1824, Note_on_c, 1, 52, 70
1, 1845, Note_on_c, 0, 69, 0
1, 1848, Note_on_c, 0, 68, 70
1, 1869, Note_on_c, 1, 52, 0
1, 1872, Note_on_c, 1, 59, 70
1, 1893, Note_on_c, 0, 68, 0
1, 1896, Note_on_c, 0, 71, 70
1, 1917, Note_on_c, 1, 59, 0
1, 1919, Note_on_c, 0, 71, 0
1, 1920, Note_on_c, 1, 57, 75
1, 1944, Note_on_c, 0, 73, 75
1, 1967, Note_on_c, 0, 73, 0
1, 1968, Note_on_c, 0, 65, 75
1, 1991, Note_on_c, 0, 65, 0
1, 1992, Note_on_c, 0, 66, 75
1, 2009, Note_on_c, 1, 57, 0
1, 2015, Note_on_c, 0, 66, 0
1, 2016, Note_on_c, 0, 73, 75
1, 2016, Note_on_c, 1, 54, 75
1, 2031, Note_on_c, 0, 73, 0
1, 2032, Note_on_c, 0, 71, 75
1, 2047, Note_on_c, 0, 71, 0
1, 2048, Note_on_c, 0, 69, 76
1, 2061, Note_on_c, 1, 54, 0
1, 2063, Note_on_c, 0, 69, 0
1, 2064, Note_on_c, 0, 68, 77
1, 2064, Note_on_c, 1, 58, 77
1, 2079, Note_on_c, 0, 68, 0
1, 2080, Note_on_c, 0, 66, 78
1, 2095, Note_on_c, 0, 66, 0
1, 2096, Note_on_c, 0, 64, 78
1, 2109, Note_on_c, 1, 58, 0
1, 2111, Note_on_c, 0, 64, 0
1, 2112, Note_on_c, 0, 63, 79
1, 2112, Note_on_c, 1, 59, 80
1, 2127, Note_on_c, 0, 63, 0
1, 2128, Note_on_c, 0, 64, 79
1, 2143, Note_on_c, 0, 64, 0
1, 2144, Note_on_c, 0, 66, 79
1, 2157, Note_on_c, 1, 59, 0
1, 2159, Note_on_c, 0, 66, 0
1, 2160, Note_on_c, 0, 59, 78
1, 2160, Note_on_c, 1, 47, 77
1, 2205, Note_on_c, 0, 59, 0
1, 2205, Note_on_c, 1, 47, 0
1, 2208, Note_on_c, 1, 51, 75
1, 2232, Note_on_c, 1, 51, 0
1, 2232, Note_on_c, 1, 47, 75
1, 2242, Note_on_c, 1, 47, 0
1, 2256, Note_on_c, 1, 54, 75
1, 2280, Note_on_c, 1, 54, 0
1, 2280, Note_on_c, 1, 52, 75
1, 2290, Note_on_c, 1, 52, 0
1, 2304, Note_on_c, 0, 66, 75
1, 2304, Note_on_c, 1, 51, 64
1, 2328, Note_on_c, 0, 66, 0
1, 2328, Note_on_c, 0, 71, 75
1, 2351, Note_on_c, 0, 71, 0
1, 2352, Note_on_c, 0, 71, 75
1, 2362, Note_on_c, 0, 71, 0
1, 2376, Note_on_c, 0, 71, 75
1, 2386, Note_on_c, 0, 71, 0
1, 2400, Note_on_c, 0, 71, 75
1, 2410, Note_on_c, 0, 71, 0
1, 2424, Note_on_c, 0, 69, 75
1, 2424, Note_on_c, 1, 59, 75
1, 2434, Note_on_c, 1, 59, 0
1, 2447, Note_on_c, 0, 69, 0
1, 2448, Note_on_c, 0, 68, 75
1, 2448, Note_on_c, 1, 59, 75
1, 2458, Note_on_c, 1, 59, 0
1, 2471, Note_on_c, 0, 68, 0
1, 2472, Note_on_c, 0, 66, 75
1, 2472, Note_on_c, 1, 59, 75
1, 2481, Note_on_c, 1, 51, 0
1, 2482, Note_on_c, 1, 59, 0
1, 2495, Note_on_c, 0, 66, 0
1, 2496, Note_on_c, 0, 68, 75
1, 2496, Note_on_c, 1, 59, 75
1, 2496, Note_on_c, 1, 52, 64
1, 2520, Note_on_c, 0, 68, 0
1, 2520, Note_on_c, 0, 71, 75
1, 2530, Note_on_c, 0, 71, 0
1, 2541, Note_on_c, 1, 52, 0
1, 2544, Note_on_c, 0, 63, 75
1, 2544, Note_on_c, 1, 54, 64
1, 2568, Note_on_c, 0, 63, 0
1, 2568, Note_on_c, 0, 66, 75
1, 2578, Note_on_c, 0, 66, 0
1, 2589, Note_on_c, 1, 54, 0
1, 2592, Note_on_c, 0, 64, 75
1, 2592, Note_on_c, 1, 56, 64
1, 2616, Note_on_c, 0, 64, 0
1, 2616, Note_on_c, 0, 68, 75
1, 2626, Note_on_c, 0, 68, 0
1, 2637, Note_on_c, 1, 56, 0
1, 2640, Note_on_c, 0, 66, 75
1, 2640, Note_on_c, 1, 51, 64
1, 2664, Note_on_c, 0, 66, 0
1, 2664, Note_on_c, 0, 69, 75
1, 2673, Note_on_c, 1, 59, 0
1, 2674, Note_on_c, 0, 69, 0
1, 2685, Note_on_c, 1, 51, 0
1, 2688, Note_on_c, 0, 68, 75
1, 2688, Note_on_c, 1, 59, 75
1, 2688, Note_on_c, 1, 52, 64
1, 2712, Note_on_c, 0, 68, 0
1, 2712, Note_on_c, 0, 71, 75
1, 2722, Note_on_c, 0, 71, 0
1, 2733, Note_on_c, 1, 52, 0
1, 2736, Note_on_c, 0, 63, 75
1, 2736, Note_on_c, 1, 54, 64
1, 2760, Note_on_c, 0, 63, 0
1, 2760, Note_on_c, 0, 66, 75
1, 2770, Note_on_c, 0, 66, 0
1, 2781, Note_on_c, 1, 54, 0
1, 2784, Note_on_c, 0, 64, 75
1, 2784, Note_on_c, 1, 56, 64
1, 2808, Note_on_c, 0, 64, 0
1, 2808, Note_on_c, 0, 68, 75
1, 2818, Note_on_c, 0, 68, 0
1, 2829, Note_on_c, 1, 56, 0
1, 2832, Note_on_c, 0, 66, 75
1, 2832, Note_on_c, 1, 51, 64
1, 2856, Note_on_c, 0, 66, 0
1, 2856, Note_on_c, 0, 69, 75
1, 2865, Note_on_c, 1, 59, 0
1, 2866, Note_on_c, 0, 69, 0
1, 2877, Note_on_c, 1, 51, 0
1, 2880, Note_on_c, 0, 68, 75
1, 2880, Note_on_c, 1, 52, 64
1, 2904, Note_on_c, 0, 68, 0
1, 2904, Note_on_c, 0, 73, 76
1, 2927, Note_on_c, 0, 73, 0
1, 2928, Note_on_c, 0, 73, 77
1, 2938, Note_on_c, 0, 73, 0
1, 2952, Note_on_c, 0, 73, 78
1, 2962, Note_on_c, 0, 73, 0
1, 2969, Note_on_c, 1, 52, 0
1, 2976, Note_on_c, 0, 73, 80
1, 2976, Note_on_c, 1, 53, 80
1, 2986, Note_on_c, 0, 73, 0
1, 3000, Note_on_c, 0, 71, 80
1, 3000, Note_on_c, 1, 61, 80
1, 3010, Note_on_c, 1, 61, 0
1, 3023, Note_on_c, 0, 71, 0
1, 3024, Note_on_c, 0, 70, 80
1, 3024, Note_on_c, 1, 61, 80
1, 3034, Note_on_c, 1, 61, 0
1, 3047, Note_on_c, 0, 70, 0
1, 3048, Note_on_c, 0, 68, 80
1, 3048, Note_on_c, 1, 61, 80
1, 3058, Note_on_c, 1, 61, 0
1, 3065, Note_on_c, 1, 53, 0
1, 3071, Note_on_c, 0, 68, 0
1, 3072, Note_on_c, 0, 70, 80
1, 3072, Note_on_c, 1, 61, 80
1, 3072, Note_on_c, 1, 54, 80
1, 3096, Note_on_c, 0, 70, 0
1, 3096, Note_on_c, 0, 73, 80
1, 3106, Note_on_c, 0, 73, 0
1, 3117, Note_on_c, 1, 54, 0
1, 3120, Note_on_c, 0, 65, 80
1, 3120, Note_on_c, 1, 56, 80
1, 3144, Note_on_c, 0, 65, 0
1, 3144, Note_on_c, 0, 68, 80
1, 3154, Note_on_c, 0, 68, 0
1, 3165, Note_on_c, 1, 56, 0
1, 3168, Note_on_c, 0, 66, 80
1, 3168, Note_on_c, 1, 58, 80
1, 3192, Note_on_c, 0, 66, 0
1, 3192, Note_on_c, 0, 70, 80
1, 3202, Note_on_c, 0, 70, 0
1, 3213, Note_on_c, 1, 58, 0
1, 3216, Note_on_c, 0, 68, 80
1, 3216, Note_on_c, 1, 53, 80
1, 3240, Note_on_c, 0, 68, 0
1, 3240, Note_on_c, 0, 71, 80
1, 3249, Note_on_c, 1, 61, 0
1, 3250, Note_on_c, 0, 71, 0
1, 3261, Note_on_c, 1, 53, 0
1, 3264, Note_on_c, 0, 70, 80
1, 3264, Note_on_c, 1, 61, 80
1, 3264, Note_on_c, 1, 54, 80
1, 3288, Note_on_c, 0, 70, 0
1, 3288, Note_on_c, 0, 73, 80
1, 3298, Note_on_c, 0, 73, 0
1, 3309, Note_on_c, 1, 54, 0
1, 3312, Note_on_c, 0, 65, 80
1, 3312, Note_on_c, 1, 56, 80
1, 3336, Note_on_c, 0, 65, 0
1, 3336, Note_on_c, 0, 68, 80
1, 3346, Note_on_c, 0, 68, 0
1, 3357, Note_on_c, 1, 56, 0
1, 3360, Note_on_c, 0, 66, 80
1, 3360, Note_on_c, 1, 58, 80
1, 3384, Note_on_c, 0, 66, 0
1, 3384, Note_on_c, 0, 70, 80
1, 3394, Note_on_c, 0, 70, 0
1, 3405, Note_on_c, 1, 58, 0
1, 3408, Note_on_c, 0, 68, 80
1, 3408, Note_on_c, 1, 53, 80
1, 3432, Note_on_c, 0, 68, 0
1, 3432, Note_on_c, 0, 71, 80
1, 3441, Note_on_c, 1, 61, 0
1, 3442, Note_on_c, 0, 71, 0
1, 3453, Note_on_c, 1, 53, 0
1, 3456, Note_on_c, 0, 70, 80
1, 3456, Note_on_c, 1, 54, 80
1, 3480, Note_on_c, 0, 70, 0
1, 3480, Note_on_c, 0, 73, 80
1, 3490, Note_on_c, 0, 73, 0
1, 3501, Note_on_c, 1, 54, 0
1, 3504, Note_on_c, 0, 71, 81
1, 3504, Note_on_c, 1, 56, 81
1, 3528, Note_on_c, 0, 71, 0
1, 3528, Note_on_c, 0, 75, 82
1, 3538, Note_on_c, 0, 75, 0
1, 3549, Note_on_c, 1, 56, 0
1, 3552, Note_on_c, 0, 73, 83
1, 3552, Note_on_c, 1, 58, 83
1, 3576, Note_on_c, 0, 73, 0
1, 3576, Note_on_c, 0, 76, 83
1, 3586, Note_on_c, 0, 76, 0
1, 3597, Note_on_c, 1, 58, 0
1, 3600, Note_on_c, 0, 75, 84
1, 3600, Note_on_c, 1, 59, 84
1, 3624, Note_on_c, 0, 75, 0
1, 3624, Note_on_c, 0, 78, 85
1, 3634, Note_on_c, 0, 78, 0
1, 3645, Note_on_c, 1, 59, 0
1, 3648, Note_on_c, 0, 78, 86
1, 3648, Note_on_c, 1, 61, 86
1, 3672, Note_on_c, 0, 78, 0
1, 3672, Note_on_c, 0, 76, 85
1, 3682, Note_on_c, 0, 76, 0
1, 3693, Note_on_c, 1, 61, 0
1, 3696, Note_on_c, 0, 76, 84
1, 3696, Note_on_c, 1, 59, 84
1, 3720, Note_on_c, 0, 76, 0
1, 3720, Note_on_c, 0, 75, 84
1, 3730, Note_on_c, 0, 75, 0
1, 3741, Note_on_c, 1, 59, 0
1, 3744, Note_on_c, 0, 75, 83
1, 3744, Note_on_c, 1, 58, 83
1, 3768, Note_on_c, 0, 75, 0
1, 3768, Note_on_c, 0, 73, 83
1, 3778, Note_on_c, 0, 73, 0
1, 3789, Note_on_c, 1, 58, 0
1, 3792, Note_on_c, 0, 73, 82
1, 3792, Note_on_c, 1, 56, 82
1, 3816, Note_on_c, 0, 73, 0
1, 3816, Note_on_c, 0, 71, 81
1, 3826, Note_on_c, 0, 71, 0
1, 3837, Note_on_c, 1, 56, 0
1, 3840, Note_on_c, 0, 71, 81
1, 3840, Note_on_c, 1, 54, 81
1, 3864, Note_on_c, 0, 71, 0
1, 3864, Note_on_c, 0, 70, 80
1, 3874, Note_on_c, 0, 70, 0
1, 3885, Note_on_c, 1, 54, 0
1, 3888, Note_on_c, 0, 70, 80
1, 3888, Note_on_c, 1, 52, 79
1, 3912, Note_on_c, 0, 70, 0
1, 3912, Note_on_c, 0, 68, 79
1, 3922, Note_on_c, 0, 68, 0
1, 3933, Note_on_c, 1, 52, 0
1, 3936, Note_on_c, 0, 68, 79
1, 3936, Note_on_c, 1, 51, 78
1, 3960, Note_on_c, 0, 68, 0
1, 3960, Note_on_c, 0, 66, 78
1, 3970, Note_on_c, 0, 66, 0
1, 3981, Note_on_c, 1, 51, 0
1, 3984, Note_on_c, 0, 66, 77
1, 3984, Note_on_c, 1, 49, 77
1, 4008, Note_on_c, 0, 66, 0
1, 4008, Note_on_c, 0, 64, 77
1, 4018, Note_on_c, 0, 64, 0
1, 4029, Note_on_c, 1, 49, 0
1, 4032, Note_on_c, 0, 63, 76
1, 4032, Note_on_c, 1, 47, 76
1, 4047, Note_on_c, 0, 63, 0
1, 4048, Note_on_c, 0, 64, 76
1, 4063, Note_on_c, 0, 64, 0
1, 4064, Note_on_c, 0, 66, 76
1, 4079, Note_on_c, 0, 66, 0
1, 4080, Note_on_c, 0, 59, 75
1, 4095, Note_on_c, 0, 59, 0
1, 4096, Note_on_c, 0, 64, 75
1, 4111, Note_on_c, 0, 64, 0
1, 4112, Note_on_c, 0, 61, 75
1, 4121, Note_on_c, 1, 47, 0
1, 4127, Note_on_c, 0, 61, 0
1, 4128, Note_on_c, 0, 63, 74
1, 4128, Note_on_c, 1, 54, 73
1, 4138, Note_on_c, 0, 63, 0
1, 4138, Note_on_c, 0, 61, 74
1, 4148, Note_on_c, 0, 61, 0
1, 4148, Note_on_c, 0, 63, 74
1, 4158, Note_on_c, 0, 63, 0
1, 4158, Note_on_c, 0, 61, 74
1, 4168, Note_on_c, 0, 61, 0
1, 4168, Note_on_c, 0, 63, 74
1, 4173, Note_on_c, 1, 54, 0
1, 4176, Note_on_c, 1, 42, 72
1, 4178, Note_on_c, 0, 63, 0
1, 4178, Note_on_c, 0, 61, 74
1, 4188, Note_on_c, 0, 61, 0
1, 4188, Note_on_c, 0, 63, 74
1, 4197, Note_on_c, 0, 63, 0
1, 4197, Note_on_c, 0, 61, 73
1, 4206, Note_on_c, 0, 61, 0
1, 4206, Note_on_c, 0, 59, 73
1, 4215, Note_on_c, 0, 59, 0
1, 4215, Note_on_c, 0, 61, 73
1, 4221, Note_on_c, 1, 42, 0
1, 4224, Note_on_c, 0, 61, 0
1, 4224, Note_on_c, 0, 59, 73
1, 4224, Note_on_c, 1, 47, 71
1, 4269, Note_on_c, 1, 47, 0
1, 4272, Note_on_c, 1, 35, 70
1, 4302, Note_on_c, 0, 59, 0
1, 4308, Note_on_c, 0, 78, 75
1, 4313, Note_on_c, 0, 78, 0
1, 4317, Note_on_c, 1, 35, 0
1, 4320, Note_on_c, 0, 71, 91
1, 4368, Note_on_c, 0, 71, 0
1, 4368, Note_on_c, 0, 73, 75
1, 4413, Note_on_c, 0, 73, 0
1, 4416, Note_on_c, 0, 75, 75
1, 4416, Note_on_c, 0, 71, 75
1, 4416, Note_on_c, 1, 54, 75
1, 4416, Note_on_c, 1, 42, 75
1, 4464, Note_on_c, 0, 75, 0
1, 4464, Note_on_c, 0, 73, 75
1, 4464, Note_on_c, 0, 71, 0
1, 4464, Note_on_c, 0, 70, 75
1, 4498, Note_on_c, 0, 73, 0
1, 4500, Note_on_c, 0, 78, 75
1, 4505, Note_on_c, 0, 78, 0
1, 4505, Note_on_c, 1, 54, 0
1, 4505, Note_on_c, 1, 42, 0
1, 4509, Note_on_c, 0, 70, 0
1, 4512, Note_on_c, 0, 73, 91
1, 4512, Note_on_c, 0, 70, 75
1, 4560, Note_on_c, 0, 73, 0
1, 4560, Note_on_c, 0, 75, 75
1, 4560, Note_on_c, 0, 70, 0
1, 4560, Note_on_c, 0, 71, 75
1, 4605, Note_on_c, 0, 75, 0
1, 4605, Note_on_c, 0, 71, 0
1, 4608, Note_on_c, 0, 76, 75
1, 4608, Note_on_c, 0, 73, 75
1, 4608, Note_on_c, 1, 54, 75
1, 4608, Note_on_c, 1, 42, 75
1, 4653, Note_on_c, 1, 54, 0
1, 4653, Note_on_c, 1, 42, 0
1, 4656, Note_on_c, 0, 76, 0
1, 4656, Note_on_c, 0, 75, 75
1, 4656, Note_on_c, 0, 73, 0
1, 4656, Note_on_c, 0, 71, 75
1, 4656, Note_on_c, 1, 59, 75
1, 4656, Note_on_c, 1, 47, 75
1, 4690, Note_on_c, 0, 75, 0
1, 4692, Note_on_c, 0, 78, 75
1, 4697, Note_on_c, 0, 78, 0
1, 4701, Note_on_c, 0, 71, 0
1, 4701, Note_on_c, 1, 59, 0
1, 4701, Note_on_c, 1, 47, 0
1, 4704, Note_on_c, 0, 75, 91
1, 4704, Note_on_c, 0, 71, 75
1, 4752, Note_on_c, 0, 75, 0
1, 4752, Note_on_c, 0, 76, 75
1, 4752, Note_on_c, 0, 71, 0
1, 4752, Note_on_c, 0, 73, 75
1, 4797, Note_on_c, 0, 76, 0
1, 4797, Note_on_c, 0, 73, 0
1, 4800, Note_on_c, 0, 78, 75
1, 4800, Note_on_c, 0, 75, 75
1, 4800, Note_on_c, 1, 59, 75
1, 4800, Note_on_c, 1, 47, 75
1, 4845, Note_on_c, 0, 78, 0
1, 4845, Note_on_c, 0, 75, 0
1, 4848, Note_on_c, 0, 83, 91
1, 4848, Note_on_c, 0, 78, 91
1, 4848, Note_on_c, 0, 75, 91
1, 4889, Note_on_c, 1, 59, 0
1, 4889, Note_on_c, 1, 47, 0
1, 4896, Note_on_c, 0, 83, 0
1, 4896, Note_on_c, 0, 78, 0
1, 4896, Note_on_c, 0, 75, 0
1, 4896, Note_on_c, 1, 59, 75
1, 4896, Note_on_c, 1, 51, 75
1, 4944, Note_on_c, 0, 78, 75
1, 4944, Note_on_c, 0, 75, 75
1, 4944, Note_on_c, 0, 71, 75
1, 4985, Note_on_c, 1, 59, 0
1, 4985, Note_on_c, 1, 51, 0
1, 4989, Note_on_c, 0, 78, 0
1, 4989, Note_on_c, 0, 75, 0
1, 4989, Note_on_c, 0, 71, 0
1, 4992, Note_on_c, 1, 52, 70
1, 5016, Note_on_c, 0, 80, 70
1, 5037, Note_on_c, 1, 52, 0
1, 5040, Note_on_c, 1, 56, 70
1, 5061, Note_on_c, 0, 80, 0
1, 5064, Note_on_c, 0, 76, 70
1, 5085, Note_on_c, 1, 56, 0
1, 5088, Note_on_c, 1, 54, 70
1, 5109, Note_on_c, 0, 76, 0
1, 5112, Note_on_c, 0, 75, 70
1, 5133, Note_on_c, 1, 54, 0
1, 5136, Note_on_c, 1, 58, 70
1, 5157, Note_on_c, 0, 75, 0
1, 5160, Note_on_c, 0, 73, 70
1, 5181, Note_on_c, 1, 58, 0
1, 5183, Note_on_c, 0, 73, 0
1, 5184, Note_on_c, 0, 75, 75
1, 5184, Note_on_c, 1, 59, 75
1, 5199, Note_on_c, 0, 75, 0
1, 5200, Note_on_c, 0, 73, 75
1, 5215, Note_on_c, 0, 73, 0
1, 5216, Note_on_c, 0, 71, 75
1, 5231, Note_on_c, 0, 71, 0
1, 5232, Note_on_c, 0, 83, 91
1, 5232, Note_on_c, 0, 78, 91
1, 5232, Note_on_c, 0, 75, 91
1, 5273, Note_on_c, 1, 59, 0
1, 5280, Note_on_c, 0, 83, 0
1, 5280, Note_on_c, 0, 78, 0
1, 5280, Note_on_c, 0, 75, 0
1, 5280, Note_on_c, 1, 59, 75
1, 5280, Note_on_c, 1, 51, 75
1, 5328, Note_on_c, 0, 78, 75
1, 5328, Note_on_c, 0, 75, 75
1, 5328, Note_on_c, 0, 71, 75
1, 5369, Note_on_c, 1, 59, 0
1, 5369, Note_on_c, 1, 51, 0
1, 5373, Note_on_c, 0, 78, 0
1, 5373, Note_on_c, 0, 75, 0
1, 5373, Note_on_c, 0, 71, 0
1, 5376, Note_on_c, 0, 80, 75
1, 5376, Note_on_c, 1, 52, 80
1, 5391, Note_on_c, 0, 80, 0
1, 5392, Note_on_c, 0, 78, 75
1, 5407, Note_on_c, 0, 78, 0
1, 5408, Note_on_c, 0, 76, 75
1, 5423, Note_on_c, 0, 76, 0
1, 5424, Note_on_c, 0, 75, 75
1, 5424, Note_on_c, 1, 59, 75
1, 5439, Note_on_c, 0, 75, 0
1, 5440, Note_on_c, 0, 73, 75
1, 5455, Note_on_c, 0, 73, 0
1, 5456, Note_on_c, 0, 71, 75
1, 5465, Note_on_c, 1, 52, 0
1, 5471, Note_on_c, 0, 71, 0
1, 5472, Note_on_c, 0, 75, 75
1, 5472, Note_on_c, 1, 54, 80
1, 5482, Note_on_c, 0, 75, 0
1, 5482, Note_on_c, 0, 73, 75
1, 5492, Note_on_c, 0, 73, 0
1, 5492, Note_on_c, 0, 75, 75
1, 5502, Note_on_c, 0, 75, 0
1, 5502, Note_on_c, 0, 73, 75
1, 5512, Note_on_c, 0, 73, 0
1, 5512, Note_on_c, 0, 75, 75
1, 5520, Note_on_c, 1, 59, 0
1, 5520, Note_on_c, 1, 58, 75
1, 5522, Note_on_c, 0, 75, 0
1, 5522, Note_on_c, 0, 73, 75
1, 5532, Note_on_c, 0, 73, 0
1, 5532, Note_on_c, 0, 75, 75
1, 5541, Note_on_c, 0, 75, 0
1, 5541, Note_on_c, 0, 73, 75
1, 5550, Note_on_c, 0, 73, 0
1, 5550, Note_on_c, 0, 71, 75
1, 5559, Note_on_c, 0, 71, 0
1, 5559, Note_on_c, 0, 73, 75
1, 5561, Note_on_c, 1, 54, 0
1, 5565, Note_on_c, 1, 58, 0
1, 5568, Note_on_c, 0, 73, 0
1, 5568, Note_on_c, 0, 71, 75
1, 5568, Note_on_c, 1, 59, 75
1, 5613, Note_on_c, 1, 59, 0
1, 5616, Note_on_c, 1, 54, 75
1, 5657, Note_on_c, 0, 71, 0
1, 5661, Note_on_c, 1, 54, 0
1, 5664, Note_on_c, 1, 47, 75
1, 5753, Note_on_c, 1, 47, 0
1, 5760, Note_on_c, 0, 64, 80
1, 5760, Note_on_c, 0, 64, 96
1, 5760, Note_on_c, 1, 52, 80
1, 5760, Note_on_c, 1, 40, 80
1, 5766, Note_on_c, 0, 68, 80
1, 5772, Note_on_c, 0, 71, 80
1, 5778, Note_on_c, 0, 76, 80
1, 5832, Note_on_c, 0, 64, 0
1, 5832, Note_on_c, 0, 64, 75
1, 5842, Note_on_c, 0, 64, 0
1, 5849, Note_on_c, 1, 52, 0
1, 5849, Note_on_c, 1, 40, 0
1, 5853, Note_on_c, 0, 76, 0
1, 5853, Note_on_c, 0, 71, 0
1, 5853, Note_on_c, 0, 68, 0
1, 5853, Note_on_c, 0, 64, 0
1, 5856, Note_on_c, 0, 68, 75
1, 5856, Note_on_c, 1, 64, 75
1, 5876, Note_on_c, 0, 68, 0
1, 5901, Note_on_c, 1, 64, 0
1, 5904, Note_on_c, 0, 69, 75
1, 5904, Note_on_c, 1, 66, 75
1, 5924, Note_on_c, 0, 69, 0
1, 5949, Note_on_c, 1, 66, 0
1, 5952, Note_on_c, 0, 71, 75
1, 5952, Note_on_c, 1, 68, 75
1, 5975, Note_on_c, 0, 71, 0
1, 5976, Note_on_c, 0, 73, 75
1, 5984, Note_on_c, 0, 73, 0
1, 5984, Note_on_c, 0, 71, 75
1, 5992, Note_on_c, 0, 71, 0
1, 5992, Note_on_c, 0, 69, 75
1, 6000, Note_on_c, 0, 69, 0
1, 6000, Note_on_c, 0, 71, 75
1, 6019, Note_on_c, 1, 68, 0
1, 6023, Note_on_c, 0, 71, 0
1, 6024, Note_on_c, 0, 73, 75
1, 6024, Note_on_c, 1, 69, 75
1, 6034, Note_on_c, 0, 73, 0
1, 6047, Note_on_c, 1, 69, 0
1, 6048, Note_on_c, 0, 71, 75
1, 6048, Note_on_c, 1, 68, 75
1, 6093, Note_on_c, 0, 71, 0
1, 6093, Note_on_c, 1, 68, 0
1, 6096, Note_on_c, 0, 71, 75
1, 6096, Note_on_c, 1, 63, 75
1, 6104, Note_on_c, 0, 71, 0
1, 6104, Note_on_c, 0, 69, 75
1, 6112, Note_on_c, 0, 69, 0
1, 6112, Note_on_c, 0, 71, 75
1, 6120, Note_on_c, 0, 71, 0
1, 6120, Note_on_c, 0, 69, 75
1, 6128, Note_on_c, 0, 69, 0
1, 6128, Note_on_c, 0, 68, 75
1, 6136, Note_on_c, 0, 68, 0
1, 6136, Note_on_c, 0, 69, 75
1, 6141, Note_on_c, 1, 63, 0
1, 6144, Note_on_c, 0, 69, 0
1, 6144, Note_on_c, 0, 68, 75
1, 6144, Note_on_c, 1, 64, 75
1, 6189, Note_on_c, 0, 68, 0
1, 6189, Note_on_c, 1, 64, 0
1, 6192, Note_on_c, 0, 64, 75
1, 6192, Note_on_c, 0, 59, 75
1, 6192, Note_on_c, 1, 56, 75
1, 6192, Note_on_c, 1, 44, 75
1, 6237, Note_on_c, 0, 64, 0
1, 6237, Note_on_c, 0, 59, 0
1, 6237, Note_on_c, 1, 56, 0
1, 6237, Note_on_c, 1, 44, 0
1, 6240, Note_on_c, 0, 66, 75
1, 6240, Note_on_c, 0, 61, 75
1, 6240, Note_on_c, 1, 57, 75
1, 6240, Note_on_c, 1, 45, 75
1, 6285, Note_on_c, 0, 66, 0
1, 6285, Note_on_c, 0, 61, 0
1, 6285, Note_on_c, 1, 57, 0
1, 6285, Note_on_c, 1, 45, 0
1, 6288, Note_on_c, 0, 63, 75
1, 6288, Note_on_c, 1, 54, 75
1, 6288, Note_on_c, 1, 47, 75
1, 6333, Note_on_c, 0, 63, 0
1, 6333, Note_on_c, 1, 54, 0
1, 6333, Note_on_c, 1, 47, 0
1, 6336, Note_on_c, 0, 64, 75
1, 6336, Note_on_c, 1, 52, 75
1, 6336, Note_on_c, 1, 40, 75
1, 6351, Note_on_c, 0, 64, 0
1, 6352, Note_on_c, 0, 66, 75
1, 6367, Note_on_c, 0, 66, 0
1, 6368, Note_on_c, 0, 68, 75
1, 6383, Note_on_c, 0, 68, 0
1, 6384, Note_on_c, 0, 59, 75
1, 6425, Note_on_c, 1, 52, 0
1, 6425, Note_on_c, 1, 40, 0
1, 6429, Note_on_c, 0, 59, 0
1, 6444, Note_on_c, 0, 64, 91
1, 6456, Note_on_c, 0, 64, 0
1, 6456, Note_on_c, 0, 66, 75
1, 6468, Note_on_c, 0, 66, 0
1, 6468, Note_on_c, 0, 68, 76
1, 6480, Note_on_c, 0, 68, 0
1, 6480, Note_on_c, 0, 69, 77
1, 6492, Note_on_c, 0, 69, 0
1, 6492, Note_on_c, 0, 71, 77
1, 6504, Note_on_c, 0, 71, 0
1, 6504, Note_on_c, 0, 73, 78
1, 6516, Note_on_c, 0, 73, 0
1, 6516, Note_on_c, 0, 75, 79
1, 6528, Note_on_c, 0, 75, 0
1, 6528, Note_on_c, 0, 76, 96
1, 6528, Note_on_c, 1, 59, 96
1, 6528, Note_on_c, 1, 56, 96
1, 6528, Note_on_c, 1, 52, 96
1, 6600, Note_on_c, 0, 76, 0
1, 6600, Note_on_c, 0, 68, 75
1, 6600, Note_on_c, 1, 59, 0
1, 6600, Note_on_c, 1, 56, 0
1, 6600, Note_on_c, 1, 52, 0
1, 6600, Note_on_c, 1, 64, 75
1, 6623, Note_on_c, 0, 68, 0
1, 6623, Note_on_c, 1, 64, 0
1, 6624, Note_on_c, 0, 69, 75
1, 6624, Note_on_c, 1, 66, 75
1, 6644, Note_on_c, 0, 69, 0
1, 6669, Note_on_c, 1, 66, 0
1, 6672, Note_on_c, 0, 71, 75
1, 6672, Note_on_c, 1, 68, 75
1, 6692, Note_on_c, 0, 71, 0
1, 6717, Note_on_c, 1, 68, 0
1, 6720, Note_on_c, 0, 73, 75
1, 6720, Note_on_c, 1, 69, 75
1, 6743, Note_on_c, 0, 73, 0
1, 6744, Note_on_c, 0, 75, 75
1, 6752, Note_on_c, 0, 75, 0
1, 6752, Note_on_c, 0, 73, 75
1, 6760, Note_on_c, 0, 73, 0
1, 6760, Note_on_c, 0, 71, 75
1, 6765, Note_on_c, 1, 69, 0
1, 6768, Note_on_c, 0, 71, 0
1, 6768, Note_on_c, 0, 73, 75
1, 6768, Note_on_c, 1, 57, 75
1, 6791, Note_on_c, 0, 73, 0
1, 6792, Note_on_c, 0, 76, 75
1, 6802, Note_on_c, 0, 76, 0
1, 6813, Note_on_c, 1, 57, 0
1, 6816, Note_on_c, 0, 71, 75
1, 6816, Note_on_c, 1, 68, 75
1, 6861, Note_on_c, 0, 71, 0
1, 6861, Note_on_c, 1, 68, 0
1, 6864, Note_on_c, 0, 68, 75
1, 6864, Note_on_c, 1, 64, 75
1, 6909, Note_on_c, 0, 68, 0
1, 6909, Note_on_c, 1, 64, 0
1, 6912, Note_on_c, 1, 51, 70
1, 6936, Note_on_c, 0, 69, 70
1, 6957, Note_on_c, 1, 51, 0
1, 6960, Note_on_c, 1, 59, 70
1, 6981, Note_on_c, 0, 69, 0
1, 6984, Note_on_c, 0, 66, 70
1, 7005, Note_on_c, 1, 59, 0
1, 7008, Note_on_c, 1, 52, 70
1, 7029, Note_on_c, 0, 66, 0
1, 7032, Note_on_c, 0, 68, 70
1, 7053, Note_on_c, 1, 52, 0
1, 7056, Note_on_c, 1, 59, 70
1, 7077, Note_on_c, 0, 68, 0
1, 7080, Note_on_c, 0, 64, 70
1, 7101, Note_on_c, 1, 59, 0
1, 7103, Note_on_c, 0, 64, 0
1, 7104, Note_on_c, 1, 51, 70
1, 7128, Note_on_c, 0, 78, 70
1, 7149, Note_on_c, 1, 51, 0
1, 7152, Note_on_c, 1, 59, 70
1, 7173, Note_on_c, 0, 78, 0
1, 7176, Note_on_c, 0, 69, 70
1, 7197, Note_on_c, 1, 59, 0
1, 7200, Note_on_c, 1, 52, 70
1, 7221, Note_on_c, 0, 69, 0
1, 7224, Note_on_c, 0, 68, 70
1, 7245, Note_on_c, 1, 52, 0
1, 7248, Note_on_c, 1, 59, 70
1, 7269, Note_on_c, 0, 68, 0
1, 7272, Note_on_c, 0, 71, 70
1, 7293, Note_on_c, 1, 59, 0
1, 7295, Note_on_c, 0, 71, 0
1, 7296, Note_on_c, 1, 51, 70
1, 7320, Note_on_c, 0, 69, 70
1, 7341, Note_on_c, 1, 51, 0
1, 7344, Note_on_c, 1, 59, 70
1, 7365, Note_on_c, 0, 69, 0
1, 7368, Note_on_c, 0, 66, 70
1, 7389, Note_on_c, 1, 59, 0
1, 7392, Note_on_c, 1, 52, 70
1, 7413, Note_on_c, 0, 66, 0
1, 7416, Note_on_c, 0, 68, 70
1, 7437, Note_on_c, 1, 52, 0
1, 7440, Note_on_c, 1, 59, 70
1, 7461, Note_on_c, 0, 68, 0
1, 7464, Note_on_c, 0, 64, 70
1, 7485, Note_on_c, 1, 59, 0
1, 7487, Note_on_c, 0, 64, 0
1, 7488, Note_on_c, 1, 51, 70
1, 7512, Note_on_c, 0, 78, 70
1, 7533, Note_on_c, 1, 51, 0
1, 7536, Note_on_c, 1, 59, 70
1, 7557, Note_on_c, 0, 78, 0
1, 7560, Note_on_c, 0, 69, 70
1, 7581, Note_on_c, 1, 59, 0
1, 7584, Note_on_c, 1, 52, 70
1, 7605, Note_on_c, 0, 69, 0
1, 7608, Note_on_c, 0, 68, 70
1, 7629, Note_on_c, 1, 52, 0
1, 7632, Note_on_c, 1, 59, 70
1, 7653, Note_on_c, 0, 68, 0
1, 7656, Note_on_c, 0, 71, 70
1, 7677, Note_on_c, 1, 59, 0
1, 7679, Note_on_c, 0, 71, 0
1, 7680, Note_on_c, 1, 57, 75
1, 7704, Note_on_c, 0, 73, 75
1, 7727, Note_on_c, 0, 73, 0
1, 7728, Note_on_c, 0, 65, 75
1, 7751, Note_on_c, 0, 65, 0
1, 7752, Note_on_c, 0, 66, 75
1, 7769, Note_on_c, 1, 57, 0
1, 7775, Note_on_c, 0, 66, 0
1, 7776, Note_on_c, 0, 73, 75
1, 7776, Note_on_c, 1, 54, 75
1, 7791, Note_on_c, 0, 73, 0
1, 7792, Note_on_c, 0, 71, 75
1, 7807, Note_on_c, 0, 71, 0
1, 7808, Note_on_c, 0, 69, 76
1, 7821, Note_on_c, 1, 54, 0
1, 7823, Note_on_c, 0, 69, 0
1, 7824, Note_on_c, 0, 68, 77
1, 7824, Note_on_c, 1, 58, 77
1, 7839, Note_on_c, 0, 68, 0
1, 7840, Note_on_c, 0, 66, 78
1, 7855, Note_on_c, 0, 66, 0
1, 7856, Note_on_c, 0, 64, 78
1, 7869, Note_on_c, 1, 58, 0
1, 7871, Note_on_c, 0, 64, 0
1, 7872, Note_on_c, 0, 63, 79
1, 7872, Note_on_c, 1, 59, 80
1, 7887, Note_on_c, 0, 63, 0
1, 7888, Note_on_c, 0, 64, 79
1, 7903, Note_on_c, 0, 64, 0
1, 7904, Note_on_c, 0, 66, 79
1, 7917, Note_on_c, 1, 59, 0
1, 7919, Note_on_c, 0, 66, 0
1, 7920, Note_on_c, 0, 59, 78
1, 7920, Note_on_c, 1, 47, 77
1, 7965, Note_on_c, 0, 59, 0
1, 7965, Note_on_c, 1, 47, 0
1, 7968, Note_on_c, 1, 51, 75
1, 7992, Note_on_c, 1, 51, 0
1, 7992, Note_on_c, 1, 47, 75
1, 8002, Note_on_c, 1, 47, 0
1, 8016, Note_on_c, 1, 54, 75
1, 8040, Note_on_c, 1, 54, 0
1, 8040, Note_on_c, 1, 52, 75
1, 8050, Note_on_c, 1, 52, 0
1, 8064, Note_on_c, 0, 66, 75
1, 8064, Note_on_c, 1, 51, 64
1, 8088, Note_on_c, 0, 66, 0
1, 8088, Note_on_c, 0, 71, 75
1, 8111, Note_on_c, 0, 71, 0
1, 8112, Note_on_c, 0, 71, 75
1, 8122, Note_on_c, 0, 71, 0
1, 8136, Note_on_c, 0, 71, 75
1, 8146, Note_on_c, 0, 71, 0
1, 8160, Note_on_c, 0, 71, 75
1, 8170, Note_on_c, 0, 71, 0
1, 8184, Note_on_c, 0, 69, 75
1, 8184, Note_on_c, 1, 59, 75
1, 8194, Note_on_c, 1, 59, 0
1, 8207, Note_on_c, 0, 69, 0
1, 8208, Note_on_c, 0, 68, 75
1, 8208, Note_on_c, 1, 59, 75
1, 8218, Note_on_c, 1, 59, 0
1, 8231, Note_on_c, 0, 68, 0
1, 8232, Note_on_c, 0, 66, 75
1, 8232, Note_on_c, 1, 59, 75
1, 8241, Note_on_c, 1, 51, 0
1, 8242, Note_on_c, 1, 59, 0
1, 8255, Note_on_c, 0, 66, 0
1, 8256, Note_on_c, 0, 68, 75
1, 8256, Note_on_c, 1, 59, 75
1, 8256, Note_on_c, 1, 52, 64
1, 8280, Note_on_c, 0, 68, 0
1, 8280, Note_on_c, 0, 71, 75
1, 8290, Note_on_c, 0, 71, 0
1, 8301, Note_on_c, 1, 52, 0
1, 8304, Note_on_c, 0, 63, 75
1, 8304, Note_on_c, 1, 54, 64
1, 8328, Note_on_c, 0, 63, 0
1, 8328, Note_on_c, 0, 66, 75
1, 8338, Note_on_c, 0, 66, 0
1, 8349, Note_on_c, 1, 54, 0
1, 8352, Note_on_c, 0, 64, 75
1, 8352, Note_on_c, 1, 56, 64
1, 8376, Note_on_c, 0, 64, 0
1, 8376, Note_on_c, 0, 68, 75
1, 8386, Note_on_c, 0, 68, 0
1, 8397, Note_on_c, 1, 56, 0
1, 8400, Note_on_c, 0, 66, 75
1, 8400, Note_on_c, 1, 51, 64
1, 8424, Note_on_c, 0, 66, 0
1, 8424, Note_on_c, 0, 69, 75
1, 8433, Note_on_c, 1, 59, 0
1, 8434, Note_on_c, 0, 69, 0
1, 8445, Note_on_c, 1, 51, 0
1, 8448, Note_on_c, 0, 68, 75
1, 8448, Note_on_c, 1, 59, 75
1, 8448, Note_on_c, 1, 52, 64
1, 8472, Note_on_c, 0, 68, 0
1, 8472, Note_on_c, 0, 71, 75
1, 8482, Note_on_c, 0, 71, 0
1, 8493, Note_on_c, 1, 52, 0
1, 8496, Note_on_c, 0, 63, 75
1, 8496, Note_on_c, 1, 54, 64
1, 8520, Note_on_c, 0, 63, 0
1, 8520, Note_on_c, 0, 66, 75
1, 8530, Note_on_c, 0, 66, 0
1, 8541, Note_on_c, 1, 54, 0
1, 8544, Note_on_c, 0, 64, 75
1, 8544, Note_on_c, 1, 56, 64
1, 8568, Note_on_c, 0, 64, 0
1, 8568, Note_on_c, 0, 68, 75
1, 8578, Note_on_c, 0, 68, 0
1, 8589, Note_on_c, 1, 56, 0
1, 8592, Note_on_c, 0, 66, 75
1, 8592, Note_on_c, 1, 51, 64
1, 8616, Note_on_c, 0, 66, 0
1, 8616, Note_on_c, 0, 69, 75
1, 8625, Note_on_c, 1, 59, 0
1, 8626, Note_on_c, 0, 69, 0
1, 8637, Note_on_c, 1, 51, 0
1, 8640, Note_on_c, 0, 68, 75
1, 8640, Note_on_c, 1, 52, 64
1, 8664, Note_on_c, 0, 68, 0
1, 8664, Note_on_c, 0, 73, 76
1, 8687, Note_on_c, 0, 73, 0
1, 8688, Note_on_c, 0, 73, 77
1, 8698, Note_on_c, 0, 73, 0
1, 8712, Note_on_c, 0, 73, 78
1, 8722, Note_on_c, 0, 73, 0
1, 8729, Note_on_c, 1, 52, 0
1, 8736, Note_on_c, 0, 73, 80
1, 8736, Note_on_c, 1, 53, 80
1, 8746, Note_on_c, 0, 73, 0
1, 8760, Note_on_c, 0, 71, 80
1, 8760, Note_on_c, 1, 61, 80
1, 8770, Note_on_c, 1, 61, 0
1, 8783, Note_on_c, 0, 71, 0
1, 8784, Note_on_c, 0, 70, 80
1, 8784, Note_on_c, 1, 61, 80
1, 8794, Note_on_c, 1, 61, 0
1, 8807, Note_on_c, 0, 70, 0
1, 8808, Note_on_c, 0, 68, 80
1, 8808, Note_on_c, 1, 61, 80
1, 8818, Note_on_c, 1, 61, 0
1, 8825, Note_on_c, 1, 53, 0
1, 8831, Note_on_c, 0, 68, 0
1, 8832, Note_on_c, 0, 70, 80
1, 8832, Note_on_c, 1, 61, 80
1, 8832, Note_on_c, 1, 54, 80
1, 8856, Note_on_c, 0, 70, 0
1, 8856, Note_on_c, 0, 73, 80
1, 8866, Note_on_c, 0, 73, 0
1, 8877, Note_on_c, 1, 54, 0
1, 8880, Note_on_c, 0, 65, 80
1, 8880, Note_on_c, 1, 56, 80
1, 8904, Note_on_c, 0, 65, 0
1, 8904, Note_on_c, 0, 68, 80
1, 8914, Note_on_c, 0, 68, 0
1, 8925, Note_on_c, 1, 56, 0
1, 8928, Note_on_c, 0, 66, 80
1, 8928, Note_on_c, 1, 58, 80
1, 8952, Note_on_c, 0, 66, 0
1, 8952, Note_on_c, 0, 70, 80
1, 8962, Note_on_c, 0, 70, 0
1, 8973, Note_on_c, 1, 58, 0
1, 8976, Note_on_c, 0, 68, 80
1, 8976, Note_on_c, 1, 53, 80
1, 9000, Note_on_c, 0, 68, 0
1, 9000, Note_on_c, 0, 71, 80
1, 9009, Note_on_c, 1, 61, 0
1, 9010, Note_on_c, 0, 71, 0
1, 9021, Note_on_c, 1, 53, 0
1, 9024, Note_on_c, 0, 70, 80
1, 9024, Note_on_c, 1, 61, 80
1, 9024, Note_on_c, 1, 54, 80
1, 9048, Note_on_c, 0, 70, 0
1, 9048, Note_on_c, 0, 73, 80
1, 9058, Note_on_c, 0, 73, 0
1, 9069, Note_on_c, 1, 54, 0
1, 9072, Note_on_c, 0, 65, 80
1, 9072, Note_on_c, 1, 56, 80
1, 9096, Note_on_c, 0, 65, 0
1, 9096, Note_on_c, 0, 68, 80
1, 9106, Note_on_c, 0, 68, 0
1, 9117, Note_on_c, 1, 56, 0
1, 9120, Note_on_c, 0, 66, 80
1, 9120, Note_on_c, 1, 58, 80
1, 9144, Note_on_c, 0, 66, 0
1, 9144, Note_on_c, 0, 70, 80
1, 9154, Note_on_c, 0, 70, 0
1, 9165, Note_on_c, 1, 58, 0
1, 9168, Note_on_c, 0, 68, 80
1, 9168, Note_on_c, 1, 53, 80
1, 9192, Note_on_c, 0, 68, 0
1, 9192, Note_on_c, 0, 71, 80
1, 9201, Note_on_c, 1, 61, 0
1, 9202, Note_on_c, 0, 71, 0
1, 9213, Note_on_c, 1, 53, 0
1, 9216, Note_on_c, 0, 70, 80
1, 9216, Note_on_c, 1, 54, 80
1, 9240, Note_on_c, 0, 70, 0
1, 9240, Note_on_c, 0, 73, 80
1, 9250, Note_on_c, 0, 73, 0
1, 9261, Note_on_c, 1, 54, 0
1, 9264, Note_on_c, 0, 71, 81
1, 9264, Note_on_c, 1, 56, 81
1, 9288, Note_on_c, 0, 71, 0
1, 9288, Note_on_c, 0, 75, 82
1, 9298, Note_on_c, 0, 75, 0
1, 9309, Note_on_c, 1, 56, 0
1, 9312, Note_on_c, 0, 73, 83
1, 9312, Note_on_c, 1, 58, 83
1, 9336, Note_on_c, 0, 73, 0
1, 9336, Note_on_c, 0, 76, 83
1, 9346, Note_on_c, 0, 76, 0
1, 9357, Note_on_c, 1, 58, 0
1, 9360, Note_on_c, 0, 75, 84
1, 9360, Note_on_c, 1, 59, 84
1, 9384, Note_on_c, 0, 75, 0
1, 9384, Note_on_c, 0, 78, 85
1, 9394, Note_on_c, 0, 78, 0
1, 9405, Note_on_c, 1, 59, 0
1, 9408, Note_on_c, 0, 78, 86
1, 9408, Note_on_c, 1, 61, 86
1, 9432, Note_on_c, 0, 78, 0
1, 9432, Note_on_c, 0, 76, 85
1, 9442, Note_on_c, 0, 76, 0
1, 9453, Note_on_c, 1, 61, 0
1, 9456, Note_on_c, 0, 76, 84
1, 9456, Note_on_c, 1, 59, 84
1, 9480, Note_on_c, 0, 76, 0
1, 9480, Note_on_c, 0, 75, 84
1, 9490, Note_on_c, 0, 75, 0
1, 9501, Note_on_c, 1, 59, 0
1, 9504, Note_on_c, 0, 75, 83
1, 9504, Note_on_c, 1, 58, 83
1, 9528, Note_on_c, 0, 75, 0
1, 9528, Note_on_c, 0, 73, 83
1, 9538, Note_on_c, 0, 73, 0
1, 9549, Note_on_c, 1, 58, 0
1, 9552, Note_on_c, 0, 73, 82
1, 9552, Note_on_c, 1, 56, 82
1, 9576, Note_on_c, 0, 73, 0
1, 9576, Note_on_c, 0, 71, 81
1, 9586, Note_on_c, 0, 71, 0
1, 9597, Note_on_c, 1, 56, 0
1, 9600, Note_on_c, 0, 71, 81
1, 9600, Note_on_c, 1, 54, 81
1, 9624, Note_on_c, 0, 71, 0
1, 9624, Note_on_c, 0, 70, 80
1, 9634, Note_on_c, 0, 70, 0
1, 9645, Note_on_c, 1, 54, 0
1, 9648, Note_on_c, 0, 70, 80
1, 9648, Note_on_c, 1, 52, 79
1, 9672, Note_on_c, 0, 70, 0
1, 9672, Note_on_c, 0, 68, 79
1, 9682, Note_on_c, 0, 68, 0
1, 9693, Note_on_c, 1, 52, 0
1, 9696, Note_on_c, 0, 68, 79
1, 9696, Note_on_c, 1, 51, 78
1, 9720, Note_on_c, 0, 68, 0
1, 9720, Note_on_c, 0, 66, 78
1, 9730, Note_on_c, 0, 66, 0
1, 9741, Note_on_c, 1, 51, 0
1, 9744, Note_on_c, 0, 66, 77
1, 9744, Note_on_c, 1, 49, 77
1, 9768, Note_on_c, 0, 66, 0
1, 9768, Note_on_c, 0, 64, 77
1, 9778, Note_on_c, 0, 64, 0
1, 9789, Note_on_c, 1, 49, 0
1, 9792, Note_on_c, 0, 63, 76
1, 9792, Note_on_c, 1, 47, 76
1, 9807, Note_on_c, 0, 63, 0
1, 9808, Note_on_c, 0, 64, 76
1, 9823, Note_on_c, 0, 64, 0
1, 9824, Note_on_c, 0, 66, 76
1, 9839, Note_on_c, 0, 66, 0
1, 9840, Note_on_c, 0, 59, 75
1, 9855, Note_on_c, 0, 59, 0
1, 9856, Note_on_c, 0, 64, 75
1, 9871, Note_on_c, 0, 64, 0
1, 9872, Note_on_c, 0, 61, 75
1, 9881, Note_on_c, 1, 47, 0
1, 9887, Note_on_c, 0, 61, 0
1, 9888, Note_on_c, 0, 63, 74
1, 9888, Note_on_c, 1, 54, 73
1, 9898, Note_on_c, 0, 63, 0
1, 9898, Note_on_c, 0, 61, 74
1, 9908, Note_on_c, 0, 61, 0
1, 9908, Note_on_c, 0, 63, 74
1, 9918, Note_on_c, 0, 63, 0
1, 9918, Note_on_c, 0, 61, 74
1, 9928, Note_on_c, 0, 61, 0
1, 9928, Note_on_c, 0, 63, 74
1, 9933, Note_on_c, 1, 54, 0
1, 9936, Note_on_c, 1, 42, 72
1, 9938, Note_on_c, 0, 63, 0
1, 9938, Note_on_c, 0, 61, 74
1, 9948, Note_on_c, 0, 61, 0
1, 9948, Note_on_c, 0, 63, 74
1, 9957, Note_on_c, 0, 63, 0
1, 9957, Note_on_c, 0, 61, 73
1, 9966, Note_on_c, 0, 61, 0
1, 9966, Note_on_c, 0, 59, 73
1, 9975, Note_on_c, 0, 59, 0
1, 9975, Note_on_c, 0, 61, 73
1, 9981, Note_on_c, 1, 42, 0
1, 9984, Note_on_c, 0, 61, 0
1, 9984, Note_on_c, 0, 59, 73
1, 9984, Note_on_c, 1, 47, 71
1, 10029, Note_on_c, 1, 47, 0
1, 10032, Note_on_c, 1, 35, 70
1, 10062, Note_on_c, 0, 59, 0
1, 10068, Note_on_c, 0, 78, 75
1, 10073, Note_on_c, 0, 78, 0
1, 10077, Note_on_c, 1, 35, 0
1, 10080, Note_on_c, 0, 71, 91
1, 10128, Note_on_c, 0, 71, 0
1, 10128, Note_on_c, 0, 73, 75
1, 10173, Note_on_c, 0, 73, 0
1, 10176, Note_on_c, 0, 75, 75
1, 10176, Note_on_c, 0, 71, 75
1, 10176, Note_on_c, 1, 54, 75
1, 10176, Note_on_c, 1, 42, 75
1, 10224, Note_on_c, 0, 75, 0
1, 10224, Note_on_c, 0, 73, 75
1, 10224, Note_on_c, 0, 71, 0
1, 10224, Note_on_c, 0, 70, 75
1, 10258, Note_on_c, 0, 73, 0
1, 10260, Note_on_c, 0, 78, 75
1, 10265, Note_on_c, 0, 78, 0
1, 10265, Note_on_c, 1, 54, 0
1, 10265, Note_on_c, 1, 42, 0
1, 10269, Note_on_c, 0, 70, 0
1, 10272, Note_on_c, 0, 73, 91
1, 10272, Note_on_c, 0, 70, 75
1, 10320, Note_on_c, 0, 73, 0
1, 10320, Note_on_c, 0, 75, 75
1, 10320, Note_on_c, 0, 70, 0
1, 10320, Note_on_c, 0, 71, 75
1, 10365, Note_on_c, 0, 75, 0
1, 10365, Note_on_c, 0, 71, 0
1, 10368, Note_on_c, 0, 76, 75
1, 10368, Note_on_c, 0, 73, 75
1, 10368, Note_on_c, 1, 54, 75
1, 10368, Note_on_c, 1, 42, 75
1, 10413, Note_on_c, 1, 54, 0
1, 10413, Note_on_c, 1, 42, 0
1, 10416, Note_on_c, 0, 76, 0
1, 10416, Note_on_c, 0, 75, 75
1, 10416, Note_on_c, 0, 73, 0
1, 10416, Note_on_c, 0, 71, 75
1, 10416, Note_on_c, 1, 59, 75
1, 10416, Note_on_c, 1, 47, 75
1, 10450, Note_on_c, 0, 75, 0
1, 10452, Note_on_c, 0, 78, 75
1, 10457, Note_on_c, 0, 78, 0
1, 10461, Note_on_c, 0, 71, 0
1, 10461, Note_on_c, 1, 59, 0
1, 10461, Note_on_c, 1, 47, 0
1, 10464, Note_on_c, 0, 75, 91
1, 10464, Note_on_c, 0, 71, 75
1, 10512, Note_on_c, 0, 75, 0
1, 10512, Note_on_c, 0, 76, 75
1, 10512, Note_on_c, 0, 71, 0
1, 10512, Note_on_c, 0, 73, 75
1, 10557, Note_on_c, 0, 76, 0
1, 10557, Note_on_c, 0, 73, 0
1, 10560, Note_on_c, 0, 78, 75
1, 10560, Note_on_c, 0, 75, 75
1, 10560, Note_on_c, 1, 59, 75
1, 10560, Note_on_c, 1, 47, 75
1, 10605, Note_on_c, 0, 78, 0
1, 10605, Note_on_c, 0, 75, 0
1, 10608, Note_on_c, 0, 83, 91
1, 10608, Note_on_c, 0, 78, 91
1, 10608, Note_on_c, 0, 75, 91
1, 10649, Note_on_c, 1, 59, 0
1, 10649, Note_on_c, 1, 47, 0
1, 10656, Note_on_c, 0, 83, 0
1, 10656, Note_on_c, 0, 78, 0
1, 10656, Note_on_c, 0, 75, 0
1, 10656, Note_on_c, 1, 59, 75
1, 10656, Note_on_c, 1, 51, 75
1, 10704, Note_on_c, 0, 78, 75
1, 10704, Note_on_c, 0, 75, 75
1, 10704, Note_on_c, 0, 71, 75
1, 10745, Note_on_c, 1, 59, 0
1, 10745, Note_on_c, 1, 51, 0
1, 10749, Note_on_c, 0, 78, 0
1, 10749, Note_on_c, 0, 75, 0
1, 10749, Note_on_c, 0, 71, 0
1, 10752, Note_on_c, 1, 52, 70
1, 10776, Note_on_c, 0, 80, 70
1, 10797, Note_on_c, 1, 52, 0
1, 10800, Note_on_c, 1, 56, 70
1, 10821, Note_on_c, 0, 80, 0
1, 10824, Note_on_c, 0, 76, 70
1, 10845, Note_on_c, 1, 56, 0
1, 10848, Note_on_c, 1, 54, 70
1, 10869, Note_on_c, 0, 76, 0
1, 10872, Note_on_c, 0, 75, 70
1, 10893, Note_on_c, 1, 54, 0
1, 10896, Note_on_c, 1, 58, 70
1, 10917, Note_on_c, 0, 75, 0
1, 10920, Note_on_c, 0, 73, 70
1, 10941, Note_on_c, 1, 58, 0
1, 10943, Note_on_c, 0, 73, 0
1, 10944, Note_on_c, 0, 75, 75
1, 10944, Note_on_c, 1, 59, 75
1, 10959, Note_on_c, 0, 75, 0
1, 10960, Note_on_c, 0, 73, 75
1, 10975, Note_on_c, 0, 73, 0
1, 10976, Note_on_c, 0, 71, 75
1, 10991, Note_on_c, 0, 71, 0
1, 10992, Note_on_c, 0, 83, 91
1, 10992, Note_on_c, 0, 78, 91
1, 10992, Note_on_c, 0, 75, 91
1, 11033, Note_on_c, 1, 59, 0
1, 11040, Note_on_c, 0, 83, 0
1, 11040, Note_on_c, 0, 78, 0
1, 11040, Note_on_c, 0, 75, 0
1, 11040, Note_on_c, 1, 59, 75
1, 11040, Note_on_c, 1, 51, 75
1, 11088, Note_on_c, 0, 78, 75
1, 11088, Note_on_c, 0, 75, 75
1, 11088, Note_on_c, 0, 71, 75
1, 11129, Note_on_c, 1, 59, 0
1, 11129, Note_on_c, 1, 51, 0
1, 11133, Note_on_c, 0, 78, 0
1, 11133, Note_on_c, 0, 75, 0
1, 11133, Note_on_c, 0, 71, 0
1, 11136, Note_on_c, 0, 80, 75
1, 11136, Note_on_c, 1, 52, 80
1, 11151, Note_on_c, 0, 80, 0
1, 11152, Note_on_c, 0, 78, 75
1, 11167, Note_on_c, 0, 78, 0
1, 11168, Note_on_c, 0, 76, 75
1, 11183, Note_on_c, 0, 76, 0
1, 11184, Note_on_c, 0, 75, 75
1, 11184, Note_on_c, 1, 59, 75
1, 11199, Note_on_c, 0, 75, 0
1, 11200, Note_on_c, 0, 73, 75
1, 11215, Note_on_c, 0, 73, 0
1, 11216, Note_on_c, 0, 71, 75
1, 11225, Note_on_c, 1, 52, 0
1, 11231, Note_on_c, 0, 71, 0
1, 11232, Note_on_c, 0, 75, 75
1, 11232, Note_on_c, 1, 54, 80
1, 11242, Note_on_c, 0, 75, 0
1, 11242, Note_on_c, 0, 73, 75
1, 11252, Note_on_c, 0, 73, 0
1, 11252, Note_on_c, 0, 75, 75
1, 11262, Note_on_c, 0, 75, 0
1, 11262, Note_on_c, 0, 73, 75
1, 11272, Note_on_c, 0, 73, 0
1, 11272, Note_on_c, 0, 75, 75
1, 11280, Note_on_c, 1, 59, 0
1, 11280, Note_on_c, 1, 58, 75
1, 11282, Note_on_c, 0, 75, 0
1, 11282, Note_on_c, 0, 73, 75
1, 11292, Note_on_c, 0, 73, 0
1, 11292, Note_on_c, 0, 75, 75
1, 11301, Note_on_c, 0, 75, 0
1, 11301, Note_on_c, 0, 73, 75
1, 11310, Note_on_c, 0, 73, 0
1, 11310, Note_on_c, 0, 71, 75
1, 11319, Note_on_c, 0, 71, 0
1, 11319, Note_on_c, 0, 73, 75
1, 11321, Note_on_c, 1, 54, 0
1, 11325, Note_on_c, 1, 58, 0
1, 11328, Note_on_c, 0, 73, 0
1, 11328, Note_on_c, 0, 71, 75
1, 11328, Note_on_c, 1, 59, 75
1, 11373, Note_on_c, 1, 59, 0
1, 11376, Note_on_c, 1, 54, 75
1, 11417, Note_on_c, 0, 71, 0
1, 11421, Note_on_c, 1, 54, 0
1, 11424, Note_on_c, 1, 47, 75
1, 11513, Note_on_c, 1, 47, 0
1, 11520, Note_on_c, 0, 71, 75
1, 11520, Note_on_c, 1, 59, 75
1, 11520, Note_on_c, 1, 47, 75
1, 11544, Note_on_c, 0, 71, 0
1, 11544, Note_on_c, 0, 83, 75
1, 11567, Note_on_c, 0, 83, 0
1, 11568, Note_on_c, 0, 83, 75
1, 11578, Note_on_c, 0, 83, 0
1, 11592, Note_on_c, 0, 83, 75
1, 11602, Note_on_c, 0, 83, 0
1, 11609, Note_on_c, 1, 59, 0
1, 11609, Note_on_c, 1, 47, 0
1, 11616, Note_on_c, 0, 83, 75
1, 11640, Note_on_c, 0, 83, 0
1, 11640, Note_on_c, 0, 80, 75
1, 11663, Note_on_c, 0, 80, 0
1, 11664, Note_on_c, 0, 81, 75
1, 11688, Note_on_c, 0, 81, 0
1, 11688, Note_on_c, 0, 78, 75
1, 11711, Note_on_c, 0, 78, 0
1, 11712, Note_on_c, 0, 80, 75
1, 11712, Note_on_c, 1, 59, 75
1, 11722, Note_on_c, 0, 80, 0
1, 11736, Note_on_c, 0, 80, 75
1, 11736, Note_on_c, 1, 71, 75
1, 11746, Note_on_c, 0, 80, 0
1, 11746, Note_on_c, 1, 71, 0
1, 11760, Note_on_c, 0, 80, 75
1, 11760, Note_on_c, 1, 71, 75
1, 11770, Note_on_c, 0, 80, 0
1, 11770, Note_on_c, 1, 71, 0
1, 11784, Note_on_c, 0, 80, 75
1, 11784, Note_on_c, 1, 71, 75
1, 11794, Note_on_c, 0, 80, 0
1, 11794, Note_on_c, 1, 71, 0
1, 11808, Note_on_c, 0, 80, 75
1, 11808, Note_on_c, 1, 71, 75
1, 11818, Note_on_c, 0, 80, 0
1, 11818, Note_on_c, 1, 71, 0
1, 11832, Note_on_c, 0, 76, 75
1, 11832, Note_on_c, 1, 68, 75
1, 11855, Note_on_c, 0, 76, 0
1, 11855, Note_on_c, 1, 68, 0
1, 11856, Note_on_c, 0, 78, 75
1, 11856, Note_on_c, 1, 69, 75
1, 11879, Note_on_c, 0, 78, 0
1, 11879, Note_on_c, 1, 69, 0
1, 11880, Note_on_c, 0, 75, 75
1, 11880, Note_on_c, 1, 66, 75
1, 11889, Note_on_c, 1, 59, 0
1, 11903, Note_on_c, 0, 75, 0
1, 11903, Note_on_c, 1, 66, 0
1, 11904, Note_on_c, 0, 76, 75
1, 11904, Note_on_c, 1, 68, 75
1, 11904, Note_on_c, 1, 59, 75
1, 11928, Note_on_c, 0, 76, 0
1, 11928, Note_on_c, 0, 80, 75
1, 11938, Note_on_c, 0, 80, 0
1, 11949, Note_on_c, 1, 68, 0
1, 11952, Note_on_c, 0, 78, 75
1, 11952, Note_on_c, 1, 63, 75
1, 11976, Note_on_c, 0, 78, 0
1, 11976, Note_on_c, 0, 81, 75
1, 11986, Note_on_c, 0, 81, 0
1, 11997, Note_on_c, 1, 63, 0
1, 12000, Note_on_c, 0, 80, 75
1, 12000, Note_on_c, 1, 64, 75
1, 12024, Note_on_c, 0, 80, 0
1, 12024, Note_on_c, 0, 83, 75
1, 12034, Note_on_c, 0, 83, 0
1, 12045, Note_on_c, 1, 64, 0
1, 12048, Note_on_c, 0, 75, 75
1, 12048, Note_on_c, 1, 66, 75
1, 12071, Note_on_c, 1, 66, 0
1, 12072, Note_on_c, 0, 75, 0
1, 12072, Note_on_c, 0, 78, 75
1, 12072, Note_on_c, 1, 69, 75
1, 12081, Note_on_c, 1, 59, 0
1, 12082, Note_on_c, 0, 78, 0
1, 12095, Note_on_c, 1, 69, 0
1, 12096, Note_on_c, 0, 76, 75
1, 12096, Note_on_c, 1, 68, 75
1, 12096, Note_on_c, 1, 59, 75
1, 12120, Note_on_c, 0, 76, 0
1, 12120, Note_on_c, 0, 80, 75
1, 12130, Note_on_c, 0, 80, 0
1, 12141, Note_on_c, 1, 68, 0
1, 12144, Note_on_c, 0, 78, 75
1, 12144, Note_on_c, 1, 63, 75
1, 12168, Note_on_c, 0, 78, 0
1, 12168, Note_on_c, 0, 81, 75
1, 12178, Note_on_c, 0, 81, 0
1, 12189, Note_on_c, 1, 63, 0
1, 12192, Note_on_c, 0, 80, 75
1, 12192, Note_on_c, 1, 64, 75
1, 12216, Note_on_c, 0, 80, 0
1, 12216, Note_on_c, 0, 83, 75
1, 12226, Note_on_c, 0, 83, 0
1, 12237, Note_on_c, 1, 64, 0
1, 12240, Note_on_c, 0, 75, 75
1, 12240, Note_on_c, 1, 66, 75
1, 12263, Note_on_c, 1, 66, 0
1, 12264, Note_on_c, 0, 75, 0
1, 12264, Note_on_c, 0, 78, 75
1, 12264, Note_on_c, 1, 69, 75
1, 12273, Note_on_c, 1, 59, 0
1, 12274, Note_on_c, 0, 78, 0
1, 12287, Note_on_c, 1, 69, 0
1, 12288, Note_on_c, 0, 76, 75
1, 12288, Note_on_c, 1, 68, 75
1, 12288, Note_on_c, 1, 59, 75
1, 12312, Note_on_c, 0, 76, 0
1, 12312, Note_on_c, 0, 80, 75
1, 12322, Note_on_c, 0, 80, 0
1, 12333, Note_on_c, 1, 68, 0
1, 12336, Note_on_c, 0, 78, 75
1, 12336, Note_on_c, 1, 63, 75
1, 12360, Note_on_c, 0, 78, 0
1, 12360, Note_on_c, 0, 81, 75
1, 12370, Note_on_c, 0, 81, 0
1, 12381, Note_on_c, 1, 63, 0
1, 12384, Note_on_c, 0, 80, 75
1, 12384, Note_on_c, 1, 64, 75
1, 12408, Note_on_c, 0, 80, 0
1, 12408, Note_on_c, 0, 83, 75
1, 12418, Note_on_c, 0, 83, 0
1, 12429, Note_on_c, 1, 64, 0
1, 12432, Note_on_c, 0, 80, 75
1, 12432, Note_on_c, 1, 68, 75
1, 12456, Note_on_c, 0, 80, 0
1, 12456, Note_on_c, 0, 76, 75
1, 12465, Note_on_c, 1, 59, 0
1, 12466, Note_on_c, 0, 76, 0
1, 12477, Note_on_c, 1, 68, 0
1, 12480, Note_on_c, 0, 75, 75
1, 12480, Note_on_c, 1, 71, 75
1, 12480, Note_on_c, 1, 59, 75
1, 12495, Note_on_c, 0, 75, 0
1, 12496, Note_on_c, 0, 76, 75
1, 12511, Note_on_c, 0, 76, 0
1, 12512, Note_on_c, 0, 78, 75
1, 12527, Note_on_c, 0, 78, 0
1, 12528, Note_on_c, 0, 71, 75
1, 12569, Note_on_c, 1, 71, 0
1, 12569, Note_on_c, 1, 59, 0
1, 12573, Note_on_c, 0, 71, 0
1, 12672, Note_on_c, 0, 64, 80
1, 12672, Note_on_c, 0, 64, 96
1, 12672, Note_on_c, 1, 52, 80
1, 12672, Note_on_c, 1, 40, 80
1, 12678, Note_on_c, 0, 68, 80
1, 12684, Note_on_c, 0, 71, 80
1, 12690, Note_on_c, 0, 76, 80
1, 12744, Note_on_c, 0, 64, 0
1, 12744, Note_on_c, 0, 64, 80
1, 12754, Note_on_c, 0, 64, 0
1, 12761, Note_on_c, 1, 52, 0
1, 12761, Note_on_c, 1, 40, 0
1, 12765, Note_on_c, 0, 76, 0
1, 12765, Note_on_c, 0, 71, 0
1, 12765, Note_on_c, 0, 68, 0
1, 12765, Note_on_c, 0, 64, 0
1, 12768, Note_on_c, 0, 68, 75
1, 12768, Note_on_c, 1, 64, 75
1, 12788, Note_on_c, 0, 68, 0
1, 12813, Note_on_c, 1, 64, 0
1, 12816, Note_on_c, 0, 69, 75
1, 12816, Note_on_c, 1, 66, 75
1, 12836, Note_on_c, 0, 69, 0
1, 12861, Note_on_c, 1, 66, 0
1, 12864, Note_on_c, 0, 71, 75
1, 12864, Note_on_c, 1, 68, 75
1, 12887, Note_on_c, 0, 71, 0
1, 12888, Note_on_c, 0, 73, 75
1, 12896, Note_on_c, 0, 73, 0
1, 12896, Note_on_c, 0, 71, 75
1, 12904, Note_on_c, 0, 71, 0
1, 12904, Note_on_c, 0, 69, 75
1, 12908, Note_on_c, 0, 69, 0
1, 12912, Note_on_c, 0, 71, 75
1, 12931, Note_on_c, 1, 68, 0
1, 12935, Note_on_c, 0, 71, 0
1, 12936, Note_on_c, 0, 73, 75
1, 12936, Note_on_c, 1, 69, 75
1, 12946, Note_on_c, 0, 73, 0
1, 12959, Note_on_c, 1, 69, 0
1, 12960, Note_on_c, 0, 71, 75
1, 12960, Note_on_c, 1, 68, 75
1, 13005, Note_on_c, 0, 71, 0
1, 13005, Note_on_c, 1, 68, 0
1, 13008, Note_on_c, 0, 71, 75
1, 13008, Note_on_c, 1, 63, 75
1, 13016, Note_on_c, 0, 71, 0
1, 13016, Note_on_c, 0, 69, 75
1, 13024, Note_on_c, 0, 69, 0
1, 13024, Note_on_c, 0, 71, 75
1, 13032, Note_on_c, 0, 71, 0
1, 13032, Note_on_c, 0, 69, 75
1, 13040, Note_on_c, 0, 69, 0
1, 13040, Note_on_c, 0, 68, 75
1, 13048, Note_on_c, 0, 68, 0
1, 13048, Note_on_c, 0, 69, 75
1, 13053, Note_on_c, 1, 63, 0
1, 13056, Note_on_c, 0, 69, 0
1, 13056, Note_on_c, 0, 68, 75
1, 13056, Note_on_c, 1, 64, 75
1, 13101, Note_on_c, 0, 68, 0
1, 13101, Note_on_c, 1, 64, 0
1, 13104, Note_on_c, 0, 64, 75
1, 13104, Note_on_c, 0, 59, 75
1, 13104, Note_on_c, 1, 56, 75
1, 13104, Note_on_c, 1, 44, 75
1, 13149, Note_on_c, 0, 64, 0
1, 13149, Note_on_c, 0, 59, 0
1, 13149, Note_on_c, 1, 56, 0
1, 13149, Note_on_c, 1, 44, 0
1, 13152, Note_on_c, 0, 66, 75
1, 13152, Note_on_c, 0, 61, 75
1, 13152, Note_on_c, 1, 57, 75
1, 13152, Note_on_c, 1, 45, 75
1, 13197, Note_on_c, 0, 66, 0
1, 13197, Note_on_c, 0, 61, 0
1, 13197, Note_on_c, 1, 57, 0
1, 13197, Note_on_c, 1, 45, 0
1, 13200, Note_on_c, 0, 63, 75
1, 13200, Note_on_c, 1, 54, 75
1, 13200, Note_on_c, 1, 47, 75
1, 13245, Note_on_c, 0, 63, 0
1, 13245, Note_on_c, 1, 54, 0
1, 13245, Note_on_c, 1, 47, 0
1, 13248, Note_on_c, 0, 64, 75
1, 13248, Note_on_c, 1, 52, 75
1, 13248, Note_on_c, 1, 40, 75
1, 13263, Note_on_c, 0, 64, 0
1, 13264, Note_on_c, 0, 66, 75
1, 13279, Note_on_c, 0, 66, 0
1, 13280, Note_on_c, 0, 68, 75
1, 13295, Note_on_c, 0, 68, 0
1, 13296, Note_on_c, 0, 59, 75
1, 13337, Note_on_c, 1, 52, 0
1, 13337, Note_on_c, 1, 40, 0
1, 13341, Note_on_c, 0, 59, 0
1, 13356, Note_on_c, 0, 71, 91
1, 13368, Note_on_c, 0, 71, 0
1, 13368, Note_on_c, 0, 73, 75
1, 13380, Note_on_c, 0, 73, 0
1, 13380, Note_on_c, 0, 75, 76
1, 13392, Note_on_c, 0, 75, 0
1, 13392, Note_on_c, 0, 76, 77
1, 13404, Note_on_c, 0, 76, 0
1, 13404, Note_on_c, 0, 78, 77
1, 13416, Note_on_c, 0, 78, 0
1, 13416, Note_on_c, 0, 80, 78
1, 13428, Note_on_c, 0, 80, 0
1, 13428, Note_on_c, 0, 81, 79
1, 13440, Note_on_c, 0, 81, 0
1, 13440, Note_on_c, 0, 83, 80
1, 13440, Note_on_c, 1, 64, 75
1, 13485, Note_on_c, 0, 83, 0
1, 13485, Note_on_c, 1, 64, 0
1, 13488, Note_on_c, 0, 80, 75
1, 13488, Note_on_c, 1, 68, 75
1, 13511, Note_on_c, 0, 80, 0
1, 13512, Note_on_c, 0, 76, 75
1, 13533, Note_on_c, 1, 68, 0
1, 13535, Note_on_c, 0, 76, 0
1, 13536, Note_on_c, 0, 81, 75
1, 13536, Note_on_c, 1, 59, 75
1, 13559, Note_on_c, 0, 81, 0
1, 13560, Note_on_c, 0, 78, 75
1, 13581, Note_on_c, 1, 59, 0
1, 13583, Note_on_c, 0, 78, 0
1, 13584, Note_on_c, 0, 76, 75
1, 13584, Note_on_c, 1, 69, 75
1, 13607, Note_on_c, 0, 76, 0
1, 13608, Note_on_c, 0, 75, 75
1, 13629, Note_on_c, 1, 69, 0
1, 13631, Note_on_c, 0, 75, 0
1, 13632, Note_on_c, 0, 76, 75
1, 13632, Note_on_c, 1, 68, 75
1, 13655, Note_on_c, 0, 76, 0
1, 13656, Note_on_c, 0, 83, 74
1, 13677, Note_on_c, 1, 68, 0
1, 13680, Note_on_c, 1, 64, 74
1, 13701, Note_on_c, 0, 83, 0
1, 13704, Note_on_c, 0, 80, 74
1, 13725, Note_on_c, 1, 64, 0
1, 13728, Note_on_c, 1, 66, 74
1, 13749, Note_on_c, 0, 80, 0
1, 13752, Note_on_c, 0, 81, 73
1, 13773, Note_on_c, 1, 66, 0
1, 13776, Note_on_c, 1, 63, 73
1, 13797, Note_on_c, 0, 81, 0
1, 13800, Note_on_c, 0, 78, 73
1, 13821, Note_on_c, 1, 63, 0
1, 13824, Note_on_c, 1, 64, 73
1, 13847, Note_on_c, 0, 78, 0
1, 13848, Note_on_c, 0, 80, 73
1, 13869, Note_on_c, 1, 64, 0
1, 13872, Note_on_c, 1, 71, 72
1, 13893, Note_on_c, 0, 80, 0
1, 13896, Note_on_c, 0, 76, 72
1, 13917, Note_on_c, 1, 71, 0
1, 13920, Note_on_c, 1, 69, 72
1, 13941, Note_on_c, 0, 76, 0
1, 13944, Note_on_c, 0, 78, 72
1, 13965, Note_on_c, 1, 69, 0
1, 13968, Note_on_c, 1, 66, 72
1, 13989, Note_on_c, 0, 78, 0
1, 13992, Note_on_c, 0, 75, 71
1, 14013, Note_on_c, 1, 66, 0
1, 14016, Note_on_c, 1, 68, 71
1, 14039, Note_on_c, 0, 75, 0
1, 14040, Note_on_c, 0, 76, 71
1, 14061, Note_on_c, 1, 68, 0
1, 14064, Note_on_c, 1, 64, 71
1, 14085, Note_on_c, 0, 76, 0
1, 14088, Note_on_c, 0, 73, 71
1, 14109, Note_on_c, 1, 64, 0
1, 14112, Note_on_c, 1, 66, 70
1, 14133, Note_on_c, 0, 73, 0
1, 14136, Note_on_c, 0, 75, 70
1, 14157, Note_on_c, 1, 66, 0
1, 14160, Note_on_c, 1, 63, 70
1, 14181, Note_on_c, 0, 75, 0
1, 14184, Note_on_c, 0, 72, 70
1, 14205, Note_on_c, 1, 63, 0
1, 14207, Note_on_c, 0, 72, 0
1, 14208, Note_on_c, 0, 73, 70
1, 14208, Note_on_c, 1, 64, 70
1, 14231, Note_on_c, 0, 73, 0
1, 14232, Note_on_c, 0, 68, 70
1, 14242, Note_on_c, 0, 68, 0
1, 14256, Note_on_c, 0, 68, 70
1, 14266, Note_on_c, 0, 68, 0
1, 14280, Note_on_c, 0, 68, 70
1, 14290, Note_on_c, 0, 68, 0
1, 14297, Note_on_c, 1, 64, 0
1, 14304, Note_on_c, 0, 76, 70
1, 14304, Note_on_c, 1, 49, 70
1, 14327, Note_on_c, 0, 76, 0
1, 14328, Note_on_c, 0, 68, 70
1, 14338, Note_on_c, 0, 68, 0
1, 14352, Note_on_c, 0, 68, 70
1, 14362, Note_on_c, 0, 68, 0
1, 14376, Note_on_c, 0, 68, 70
1, 14386, Note_on_c, 0, 68, 0
1, 14393, Note_on_c, 1, 49, 0
1, 14400, Note_on_c, 0, 75, 70
1, 14400, Note_on_c, 1, 48, 70
1, 14423, Note_on_c, 0, 75, 0
1, 14424, Note_on_c, 0, 68, 70
1, 14434, Note_on_c, 0, 68, 0
1, 14445, Note_on_c, 1, 48, 0
1, 14448, Note_on_c, 0, 68, 70
1, 14448, Note_on_c, 1, 51, 70
1, 14458, Note_on_c, 0, 68, 0
1, 14472, Note_on_c, 0, 68, 70
1, 14482, Note_on_c, 0, 68, 0
1, 14493, Note_on_c, 1, 51, 0
1, 14496, Note_on_c, 0, 78, 70
1, 14496, Note_on_c, 1, 56, 70
1, 14519, Note_on_c, 0, 78, 0
1, 14520, Note_on_c, 0, 68, 70
1, 14530, Note_on_c, 0, 68, 0
1, 14541, Note_on_c, 1, 56, 0
1, 14544, Note_on_c, 0, 68, 70
1, 14544, Note_on_c, 1, 60, 70
1, 14554, Note_on_c, 0, 68, 0
1, 14568, Note_on_c, 0, 68, 70
1, 14578, Note_on_c, 0, 68, 0
1, 14589, Note_on_c, 1, 60, 0
1, 14592, Note_on_c, 0, 76, 70
1, 14592, Note_on_c, 1, 61, 70
1, 14615, Note_on_c, 0, 76, 0
1, 14616, Note_on_c, 0, 68, 70
1, 14626, Note_on_c, 0, 68, 0
1, 14637, Note_on_c, 1, 61, 0
1, 14640, Note_on_c, 0, 68, 71
1, 14640, Note_on_c, 1, 49, 71
1, 14650, Note_on_c, 0, 68, 0
1, 14664, Note_on_c, 0, 68, 72
1, 14674, Note_on_c, 0, 68, 0
1, 14685, Note_on_c, 1, 49, 0
1, 14688, Note_on_c, 0, 80, 72
1, 14711, Note_on_c, 0, 80, 0
1, 14712, Note_on_c, 0, 68, 73
1, 14722, Note_on_c, 0, 68, 0
1, 14736, Note_on_c, 0, 68, 74
1, 14736, Note_on_c, 1, 64, 73
1, 14736, Note_on_c, 1, 52, 73
1, 14746, Note_on_c, 0, 68, 0
1, 14760, Note_on_c, 0, 68, 75
1, 14770, Note_on_c, 0, 68, 0
1, 14781, Note_on_c, 1, 64, 0
1, 14781, Note_on_c, 1, 52, 0
1, 14784, Note_on_c, 0, 81, 75
1, 14784, Note_on_c, 1, 54, 75
1, 14807, Note_on_c, 1, 54, 0
1, 14808, Note_on_c, 1, 66, 75
1, 14818, Note_on_c, 1, 66, 0
1, 14829, Note_on_c, 0, 81, 0
1, 14832, Note_on_c, 1, 66, 75
1, 14842, Note_on_c, 1, 66, 0
1, 14856, Note_on_c, 1, 66, 75
1, 14866, Note_on_c, 1, 66, 0
1, 14880, Note_on_c, 0, 71, 75
1, 14880, Note_on_c, 1, 63, 75
1, 14903, Note_on_c, 0, 71, 0
1, 14904, Note_on_c, 0, 81, 75
1, 14904, Note_on_c, 0, 78, 75
1, 14914, Note_on_c, 0, 81, 0
1, 14914, Note_on_c, 0, 78, 0
1, 14928, Note_on_c, 0, 81, 75
1, 14928, Note_on_c, 0, 78, 75
1, 14938, Note_on_c, 0, 81, 0
1, 14938, Note_on_c, 0, 78, 0
1, 14952, Note_on_c, 0, 81, 75
1, 14952, Note_on_c, 0, 78, 75
1, 14962, Note_on_c, 0, 81, 0
1, 14962, Note_on_c, 0, 78, 0
1, 14969, Note_on_c, 1, 63, 0
1, 14976, Note_on_c, 0, 80, 75
1, 14976, Note_on_c, 0, 76, 75
1, 14976, Note_on_c, 1, 52, 75
1, 14999, Note_on_c, 1, 52, 0
1, 15000, Note_on_c, 1, 64, 75
1, 15010, Note_on_c, 1, 64, 0
1, 15021, Note_on_c, 0, 80, 0
1, 15021, Note_on_c, 0, 76, 0
1, 15024, Note_on_c, 1, 64, 75
1, 15034, Note_on_c, 1, 64, 0
1, 15048, Note_on_c, 1, 64, 75
1, 15058, Note_on_c, 1, 64, 0
1, 15072, Note_on_c, 0, 83, 75
1, 15096, Note_on_c, 0, 83, 0
1, 15096, Note_on_c, 0, 81, 75
1, 15106, Note_on_c, 0, 81, 0
1, 15120, Note_on_c, 0, 81, 75
1, 15120, Note_on_c, 1, 64, 75
1, 15120, Note_on_c, 1, 52, 75
1, 15144, Note_on_c, 0, 81, 0
1, 15144, Note_on_c, 0, 80, 75
1, 15154, Note_on_c, 0, 80, 0
1, 15165, Note_on_c, 1, 64, 0
1, 15165, Note_on_c, 1, 52, 0
1, 15168, Note_on_c, 0, 80, 75
1, 15168, Note_on_c, 1, 61, 75
1, 15168, Note_on_c, 1, 57, 75
1, 15192, Note_on_c, 0, 80, 0
1, 15192, Note_on_c, 0, 78, 75
1, 15202, Note_on_c, 0, 78, 0
1, 15216, Note_on_c, 0, 78, 75
1, 15216, Note_on_c, 1, 61, 0
1, 15216, Note_on_c, 1, 57, 0
1, 15216, Note_on_c, 1, 59, 75
1, 15216, Note_on_c, 1, 56, 75
1, 15239, Note_on_c, 0, 78, 0
1, 15240, Note_on_c, 0, 76, 75
1, 15250, Note_on_c, 0, 76, 0
1, 15261, Note_on_c, 1, 59, 0
1, 15261, Note_on_c, 1, 56, 0
1, 15264, Note_on_c, 0, 83, 64
1, 15288, Note_on_c, 0, 83, 0
1, 15288, Note_on_c, 0, 81, 64
1, 15298, Note_on_c, 0, 81, 0
1, 15312, Note_on_c, 0, 81, 64
1, 15312, Note_on_c, 1, 64, 64
1, 15312, Note_on_c, 1, 52, 64
1, 15336, Note_on_c, 0, 81, 0
1, 15336, Note_on_c, 0, 80, 64
1, 15346, Note_on_c, 0, 80, 0
1, 15357, Note_on_c, 1, 64, 0
1, 15357, Note_on_c, 1, 52, 0
1, 15360, Note_on_c, 0, 80, 64
1, 15360, Note_on_c, 1, 61, 64
1, 15360, Note_on_c, 1, 57, 64
1, 15384, Note_on_c, 0, 80, 0
1, 15384, Note_on_c, 0, 78, 64
1, 15394, Note_on_c, 0, 78, 0
1, 15408, Note_on_c, 0, 78, 64
1, 15408, Note_on_c, 1, 61, 0
1, 15408, Note_on_c, 1, 57, 0
1, 15408, Note_on_c, 1, 59, 64
1, 15408, Note_on_c, 1, 56, 64
1, 15432, Note_on_c, 0, 78, 0
1, 15432, Note_on_c, 0, 76, 64
1, 15442, Note_on_c, 0, 76, 0
1, 15453, Note_on_c, 1, 59, 0
1, 15453, Note_on_c, 1, 56, 0
1, 15456, Note_on_c, 0, 83, 75
1, 15480, Note_on_c, 0, 83, 0
1, 15480, Note_on_c, 0, 81, 75
1, 15490, Note_on_c, 0, 81, 0
1, 15504, Note_on_c, 0, 81, 75
1, 15504, Note_on_c, 1, 64, 75
1, 15504, Note_on_c, 1, 52, 75
1, 15528, Note_on_c, 0, 81, 0
1, 15528, Note_on_c, 0, 80, 75
1, 15538, Note_on_c, 0, 80, 0
1, 15549, Note_on_c, 1, 64, 0
1, 15549, Note_on_c, 1, 52, 0
1, 15552, Note_on_c, 0, 85, 75
1, 15552, Note_on_c, 1, 61, 75
1, 15552, Note_on_c, 1, 57, 75
1, 15576, Note_on_c, 0, 85, 0
1, 15576, Note_on_c, 0, 81, 75
1, 15586, Note_on_c, 0, 81, 0
1, 15600, Note_on_c, 0, 81, 76
1, 15624, Note_on_c, 0, 81, 0
1, 15624, Note_on_c, 0, 80, 77
1, 15634, Note_on_c, 0, 80, 0
1, 15648, Note_on_c, 0, 80, 78
1, 15672, Note_on_c, 0, 80, 0
1, 15672, Note_on_c, 0, 78, 79
1, 15682, Note_on_c, 0, 78, 0
1, 15685, Note_on_c, 1, 61, 0
1, 15685, Note_on_c, 1, 57, 0
1, 15696, Note_on_c, 0, 85, 80
1, 15696, Note_on_c, 1, 61, 80
1, 15696, Note_on_c, 1, 58, 80
1, 15720, Note_on_c, 0, 85, 0
1, 15720, Note_on_c, 0, 76, 79
1, 15730, Note_on_c, 0, 76, 0
1, 15741, Note_on_c, 1, 61, 0
1, 15741, Note_on_c, 1, 58, 0
1, 15744, Note_on_c, 0, 75, 78
1, 15744, Note_on_c, 1, 59, 78
1, 15759, Note_on_c, 0, 75, 0
1, 15760, Note_on_c, 0, 76, 77
1, 15775, Note_on_c, 0, 76, 0
1, 15776, Note_on_c, 0, 78, 77
1, 15789, Note_on_c, 1, 59, 0
1, 15791, Note_on_c, 0, 78, 0
1, 15792, Note_on_c, 0, 71, 77
1, 15792, Note_on_c, 1, 47, 76
1, 15837, Note_on_c, 0, 71, 0
1, 15837, Note_on_c, 1, 47, 0
1, 15936, Note_on_c, 0, 64, 80
1, 15936, Note_on_c, 0, 64, 96
1, 15936, Note_on_c, 1, 52, 80
1, 15936, Note_on_c, 1, 40, 80
1, 15942, Note_on_c, 0, 68, 80
1, 15948, Note_on_c, 0, 71, 80
1, 15954, Note_on_c, 0, 76, 80
1, 16008, Note_on_c, 0, 64, 0
1, 16008, Note_on_c, 0, 64, 80
1, 16018, Note_on_c, 0, 64, 0
1, 16025, Note_on_c, 1, 52, 0
1, 16025, Note_on_c, 1, 40, 0
1, 16029, Note_on_c, 0, 76, 0
1, 16029, Note_on_c, 0, 71, 0
1, 16029, Note_on_c, 0, 68, 0
1, 16029, Note_on_c, 0, 64, 0
1, 16032, Note_on_c, 0, 68, 75
1, 16032, Note_on_c, 1, 64, 75
1, 16052, Note_on_c, 0, 68, 0
1, 16077, Note_on_c, 1, 64, 0
1, 16080, Note_on_c, 0, 69, 75
1, 16080, Note_on_c, 1, 66, 75
1, 16100, Note_on_c, 0, 69, 0
1, 16125, Note_on_c, 1, 66, 0
1, 16128, Note_on_c, 0, 71, 80
1, 16128, Note_on_c, 1, 68, 75
1, 16151, Note_on_c, 0, 71, 0
1, 16152, Note_on_c, 0, 73, 80
1, 16160, Note_on_c, 0, 73, 0
1, 16160, Note_on_c, 0, 71, 80
1, 16168, Note_on_c, 0, 71, 0
1, 16168, Note_on_c, 0, 69, 80
1, 16176, Note_on_c, 0, 69, 0
1, 16176, Note_on_c, 0, 71, 80
1, 16195, Note_on_c, 1, 68, 0
1, 16199, Note_on_c, 0, 71, 0
1, 16200, Note_on_c, 0, 73, 80
1, 16200, Note_on_c, 1, 69, 75
1, 16210, Note_on_c, 0, 73, 0
1, 16223, Note_on_c, 1, 69, 0
1, 16224, Note_on_c, 0, 71, 80
1, 16224, Note_on_c, 1, 68, 75
1, 16269, Note_on_c, 0, 71, 0
1, 16269, Note_on_c, 1, 68, 0
1, 16272, Note_on_c, 0, 71, 80
1, 16272, Note_on_c, 1, 63, 75
1, 16280, Note_on_c, 0, 71, 0
1, 16280, Note_on_c, 0, 69, 80
1, 16288, Note_on_c, 0, 69, 0
1, 16288, Note_on_c, 0, 71, 80
1, 16296, Note_on_c, 0, 71, 0
1, 16296, Note_on_c, 0, 69, 80
1, 16304, Note_on_c, 0, 69, 0
1, 16304, Note_on_c, 0, 68, 80
1, 16312, Note_on_c, 0, 68, 0
1, 16312, Note_on_c, 0, 69, 80
1, 16317, Note_on_c, 1, 63, 0
1, 16320, Note_on_c, 0, 69, 0
1, 16320, Note_on_c, 0, 68, 80
1, 16320, Note_on_c, 1, 64, 75
1, 16365, Note_on_c, 0, 68, 0
1, 16365, Note_on_c, 1, 64, 0
1, 16368, Note_on_c, 0, 64, 80
1, 16368, Note_on_c, 0, 59, 80
1, 16368, Note_on_c, 1, 56, 75
1, 16368, Note_on_c, 1, 44, 75
1, 16413, Note_on_c, 0, 64, 0
1, 16413, Note_on_c, 0, 59, 0
1, 16413, Note_on_c, 1, 56, 0
1, 16413, Note_on_c, 1, 44, 0
1, 16416, Note_on_c, 0, 66, 80
1, 16416, Note_on_c, 0, 61, 80
1, 16416, Note_on_c, 1, 57, 75
1, 16416, Note_on_c, 1, 45, 75
1, 16461, Note_on_c, 0, 66, 0
1, 16461, Note_on_c, 0, 61, 0
1, 16461, Note_on_c, 1, 57, 0
1, 16461, Note_on_c, 1, 45, 0
1, 16464, Note_on_c, 0, 63, 80
1, 16464, Note_on_c, 1, 54, 75
1, 16464, Note_on_c, 1, 47, 75
1, 16509, Note_on_c, 0, 63, 0
1, 16509, Note_on_c, 1, 54, 0
1, 16509, Note_on_c, 1, 47, 0
1, 16512, Note_on_c, 0, 64, 80
1, 16512, Note_on_c, 1, 52, 75
1, 16512, Note_on_c, 1, 40, 75
1, 16527, Note_on_c, 0, 64, 0
1, 16528, Note_on_c, 0, 66, 80
1, 16543, Note_on_c, 0, 66, 0
1, 16544, Note_on_c, 0, 68, 80
1, 16559, Note_on_c, 0, 68, 0
1, 16560, Note_on_c, 0, 59, 80
1, 16601, Note_on_c, 1, 52, 0
1, 16601, Note_on_c, 1, 40, 0
1, 16605, Note_on_c, 0, 59, 0
1, 16620, Note_on_c, 0, 64, 91
1, 16632, Note_on_c, 0, 64, 0
1, 16632, Note_on_c, 0, 66, 75
1, 16644, Note_on_c, 0, 66, 0
1, 16644, Note_on_c, 0, 68, 76
1, 16656, Note_on_c, 0, 68, 0
1, 16656, Note_on_c, 0, 69, 77
1, 16668, Note_on_c, 0, 69, 0
1, 16668, Note_on_c, 0, 71, 77
1, 16680, Note_on_c, 0, 71, 0
1, 16680, Note_on_c, 0, 73, 78
1, 16692, Note_on_c, 0, 73, 0
1, 16692, Note_on_c, 0, 75, 79
1, 16704, Note_on_c, 0, 75, 0
1, 16704, Note_on_c, 0, 76, 96
1, 16704, Note_on_c, 1, 59, 96
1, 16704, Note_on_c, 1, 56, 96
1, 16704, Note_on_c, 1, 52, 96
1, 16776, Note_on_c, 0, 76, 0
1, 16776, Note_on_c, 0, 68, 80
1, 16776, Note_on_c, 1, 59, 0
1, 16776, Note_on_c, 1, 56, 0
1, 16776, Note_on_c, 1, 52, 0
1, 16776, Note_on_c, 1, 64, 80
1, 16799, Note_on_c, 0, 68, 0
1, 16799, Note_on_c, 1, 64, 0
1, 16800, Note_on_c, 0, 69, 75
1, 16800, Note_on_c, 1, 66, 75
1, 16820, Note_on_c, 0, 69, 0
1, 16845, Note_on_c, 1, 66, 0
1, 16848, Note_on_c, 0, 71, 75
1, 16848, Note_on_c, 1, 68, 75
1, 16868, Note_on_c, 0, 71, 0
1, 16893, Note_on_c, 1, 68, 0
1, 16896, Note_on_c, 0, 73, 75
1, 16896, Note_on_c, 1, 69, 75
1, 16919, Note_on_c, 0, 73, 0
1, 16920, Note_on_c, 0, 75, 75
1, 16928, Note_on_c, 0, 75, 0
1, 16928, Note_on_c, 0, 73, 75
1, 16936, Note_on_c, 0, 73, 0
1, 16936, Note_on_c, 0, 71, 75
1, 16941, Note_on_c, 1, 69, 0
1, 16944, Note_on_c, 0, 71, 0
1, 16944, Note_on_c, 0, 73, 75
1, 16944, Note_on_c, 1, 57, 75
1, 16967, Note_on_c, 0, 73, 0
1, 16968, Note_on_c, 0, 76, 75
1, 16978, Note_on_c, 0, 76, 0
1, 16989, Note_on_c, 1, 57, 0
1, 16992, Note_on_c, 0, 71, 75
1, 16992, Note_on_c, 1, 68, 75
1, 17037, Note_on_c, 0, 71, 0
1, 17037, Note_on_c, 1, 68, 0
1, 17040, Note_on_c, 0, 68, 75
1, 17040, Note_on_c, 1, 64, 75
1, 17085, Note_on_c, 0, 68, 0
1, 17085, Note_on_c, 1, 64, 0
1, 17088, Note_on_c, 1, 51, 70
1, 17112, Note_on_c, 0, 81, 70
1, 17133, Note_on_c, 1, 51, 0
1, 17136, Note_on_c, 1, 59, 70
1, 17157, Note_on_c, 0, 81, 0
1, 17160, Note_on_c, 0, 78, 70
1, 17181, Note_on_c, 1, 59, 0
1, 17184, Note_on_c, 1, 52, 70
1, 17205, Note_on_c, 0, 78, 0
1, 17208, Note_on_c, 0, 80, 70
1, 17229, Note_on_c, 1, 52, 0
1, 17232, Note_on_c, 1, 59, 70
1, 17253, Note_on_c, 0, 80, 0
1, 17256, Note_on_c, 0, 76, 70
1, 17277, Note_on_c, 1, 59, 0
1, 17279, Note_on_c, 0, 76, 0
1, 17280, Note_on_c, 1, 54, 70
1, 17304, Note_on_c, 0, 75, 70
1, 17325, Note_on_c, 1, 54, 0
1, 17328, Note_on_c, 1, 59, 70
1, 17349, Note_on_c, 0, 75, 0
1, 17352, Note_on_c, 0, 78, 70
1, 17373, Note_on_c, 1, 59, 0
1, 17376, Note_on_c, 1, 56, 70
1, 17397, Note_on_c, 0, 78, 0
1, 17400, Note_on_c, 0, 76, 70
1, 17421, Note_on_c, 1, 56, 0
1, 17424, Note_on_c, 1, 59, 70
1, 17445, Note_on_c, 0, 76, 0
1, 17448, Note_on_c, 0, 71, 70
1, 17469, Note_on_c, 1, 59, 0
1, 17471, Note_on_c, 0, 71, 0
1, 17472, Note_on_c, 1, 57, 70
1, 17496, Note_on_c, 0, 73, 70
1, 17517, Note_on_c, 1, 57, 0
1, 17520, Note_on_c, 1, 64, 70
1, 17541, Note_on_c, 0, 73, 0
1, 17544, Note_on_c, 0, 75, 70
1, 17565, Note_on_c, 1, 64, 0
1, 17568, Note_on_c, 1, 56, 70
1, 17589, Note_on_c, 0, 75, 0
1, 17592, Note_on_c, 0, 76, 70
1, 17613, Note_on_c, 1, 56, 0
1, 17616, Note_on_c, 1, 64, 70
1, 17637, Note_on_c, 0, 76, 0
1, 17640, Note_on_c, 0, 71, 70
1, 17661, Note_on_c, 1, 64, 0
1, 17663, Note_on_c, 0, 71, 0
1, 17664, Note_on_c, 1, 54, 70
1, 17688, Note_on_c, 0, 69, 70
1, 17709, Note_on_c, 1, 54, 0
1, 17712, Note_on_c, 1, 63, 70
1, 17733, Note_on_c, 0, 69, 0
1, 17736, Note_on_c, 0, 66, 70
1, 17757, Note_on_c, 1, 63, 0
1, 17760, Note_on_c, 1, 64, 70
1, 17781, Note_on_c, 0, 66, 0
1, 17784, Note_on_c, 0, 68, 70
1, 17805, Note_on_c, 1, 64, 0
1, 17808, Note_on_c, 1, 52, 70
1, 17829, Note_on_c, 0, 68, 0
1, 17832, Note_on_c, 0, 64, 70
1, 17853, Note_on_c, 1, 52, 0
1, 17855, Note_on_c, 0, 64, 0
1, 17856, Note_on_c, 1, 57, 75
1, 17856, Note_on_c, 1, 45, 75
1, 17880, Note_on_c, 0, 66, 75
1, 17903, Note_on_c, 0, 66, 0
1, 17904, Note_on_c, 0, 65, 75
1, 17927, Note_on_c, 0, 65, 0
1, 17928, Note_on_c, 0, 66, 75
1, 17945, Note_on_c, 1, 57, 0
1, 17945, Note_on_c, 1, 45, 0
1, 17951, Note_on_c, 0, 66, 0
1, 17952, Note_on_c, 0, 73, 75
1, 17952, Note_on_c, 1, 54, 75
1, 17967, Note_on_c, 0, 73, 0
1, 17968, Note_on_c, 0, 71, 75
1, 17983, Note_on_c, 0, 71, 0
1, 17984, Note_on_c, 0, 69, 76
1, 17997, Note_on_c, 1, 54, 0
1, 17999, Note_on_c, 0, 69, 0
1, 18000, Note_on_c, 0, 68, 77
1, 18000, Note_on_c, 1, 58, 77
1, 18015, Note_on_c, 0, 68, 0
1, 18016, Note_on_c, 0, 66, 78
1, 18031, Note_on_c, 0, 66, 0
1, 18032, Note_on_c, 0, 64, 78
1, 18045, Note_on_c, 1, 58, 0
1, 18047, Note_on_c, 0, 64, 0
1, 18048, Note_on_c, 0, 63, 79
1, 18048, Note_on_c, 1, 59, 80
1, 18063, Note_on_c, 0, 63, 0
1, 18064, Note_on_c, 0, 64, 79
1, 18079, Note_on_c, 0, 64, 0
1, 18080, Note_on_c, 0, 66, 79
1, 18093, Note_on_c, 1, 59, 0
1, 18095, Note_on_c, 0, 66, 0
1, 18096, Note_on_c, 0, 59, 78
1, 18096, Note_on_c, 1, 47, 77
1, 18141, Note_on_c, 0, 59, 0
1, 18141, Note_on_c, 1, 47, 0
1, 18144, Note_on_c, 1, 59, 75
1, 18168, Note_on_c, 1, 59, 0
1, 18168, Note_on_c, 1, 56, 75
1, 18178, Note_on_c, 1, 56, 0
1, 18192, Note_on_c, 1, 57, 75
1, 18216, Note_on_c, 1, 57, 0
1, 18216, Note_on_c, 1, 54, 75
1, 18226, Note_on_c, 1, 54, 0
1, 18240, Note_on_c, 0, 71, 75
1, 18240, Note_on_c, 1, 56, 75
1, 18264, Note_on_c, 0, 71, 0
1, 18264, Note_on_c, 0, 76, 75
1, 18287, Note_on_c, 0, 76, 0
1, 18288, Note_on_c, 0, 76, 75
1, 18298, Note_on_c, 0, 76, 0
1, 18312, Note_on_c, 0, 76, 75
1, 18322, Note_on_c, 0, 76, 0
1, 18336, Note_on_c, 0, 76, 75
1, 18346, Note_on_c, 0, 76, 0
1, 18360, Note_on_c, 0, 74, 75
1, 18360, Note_on_c, 1, 64, 75
1, 18370, Note_on_c, 1, 64, 0
1, 18383, Note_on_c, 0, 74, 0
1, 18384, Note_on_c, 0, 73, 75
1, 18384, Note_on_c, 1, 64, 75
1, 18394, Note_on_c, 1, 64, 0
1, 18407, Note_on_c, 0, 73, 0
1, 18408, Note_on_c, 0, 71, 75
1, 18408, Note_on_c, 1, 64, 75
1, 18417, Note_on_c, 1, 56, 0
1, 18418, Note_on_c, 1, 64, 0
1, 18431, Note_on_c, 0, 71, 0
1, 18432, Note_on_c, 0, 73, 75
1, 18432, Note_on_c, 1, 64, 75
1, 18432, Note_on_c, 1, 57, 75
1, 18456, Note_on_c, 0, 73, 0
1, 18456, Note_on_c, 0, 76, 75
1, 18466, Note_on_c, 0, 76, 0
1, 18477, Note_on_c, 1, 57, 0
1, 18480, Note_on_c, 0, 68, 75
1, 18480, Note_on_c, 1, 59, 75
1, 18504, Note_on_c, 0, 68, 0
1, 18504, Note_on_c, 0, 71, 75
1, 18514, Note_on_c, 0, 71, 0
1, 18525, Note_on_c, 1, 59, 0
1, 18528, Note_on_c, 0, 69, 75
1, 18528, Note_on_c, 1, 61, 75
1, 18552, Note_on_c, 0, 69, 0
1, 18552, Note_on_c, 0, 73, 75
1, 18562, Note_on_c, 0, 73, 0
1, 18573, Note_on_c, 1, 61, 0
1, 18576, Note_on_c, 0, 71, 75
1, 18576, Note_on_c, 1, 56, 75
1, 18600, Note_on_c, 0, 71, 0
1, 18600, Note_on_c, 0, 74, 75
1, 18609, Note_on_c, 1, 64, 0
1, 18610, Note_on_c, 0, 74, 0
1, 18621, Note_on_c, 1, 56, 0
1, 18624, Note_on_c, 0, 73, 75
1, 18624, Note_on_c, 1, 64, 75
1, 18624, Note_on_c, 1, 57, 75
1, 18648, Note_on_c, 0, 73, 0
1, 18648, Note_on_c, 0, 76, 75
1, 18658, Note_on_c, 0, 76, 0
1, 18669, Note_on_c, 1, 57, 0
1, 18672, Note_on_c, 0, 68, 75
1, 18672, Note_on_c, 1, 59, 75
1, 18696, Note_on_c, 0, 68, 0
1, 18696, Note_on_c, 0, 71, 75
1, 18706, Note_on_c, 0, 71, 0
1, 18717, Note_on_c, 1, 59, 0
1, 18720, Note_on_c, 0, 69, 75
1, 18720, Note_on_c, 1, 61, 75
1, 18744, Note_on_c, 0, 69, 0
1, 18744, Note_on_c, 0, 73, 75
1, 18754, Note_on_c, 0, 73, 0
1, 18765, Note_on_c, 1, 61, 0
1, 18768, Note_on_c, 0, 71, 75
1, 18768, Note_on_c, 1, 56, 75
1, 18792, Note_on_c, 0, 71, 0
1, 18792, Note_on_c, 0, 74, 75
1, 18801, Note_on_c, 1, 64, 0
1, 18802, Note_on_c, 0, 74, 0
1, 18813, Note_on_c, 1, 56, 0
1, 18816, Note_on_c, 0, 73, 75
1, 18816, Note_on_c, 1, 57, 75
1, 18840, Note_on_c, 0, 73, 0
1, 18840, Note_on_c, 0, 78, 76
1, 18863, Note_on_c, 0, 78, 0
1, 18864, Note_on_c, 0, 78, 77
1, 18874, Note_on_c, 0, 78, 0
1, 18888, Note_on_c, 0, 78, 78
1, 18898, Note_on_c, 0, 78, 0
1, 18912, Note_on_c, 0, 78, 80
1, 18912, Note_on_c, 1, 57, 0
1, 18912, Note_on_c, 1, 58, 80
1, 18922, Note_on_c, 0, 78, 0
1, 18936, Note_on_c, 0, 76, 80
1, 18936, Note_on_c, 1, 66, 80
1, 18946, Note_on_c, 1, 66, 0
1, 18959, Note_on_c, 0, 76, 0
1, 18960, Note_on_c, 0, 75, 80
1, 18960, Note_on_c, 1, 66, 80
1, 18970, Note_on_c, 1, 66, 0
1, 18983, Note_on_c, 0, 75, 0
1, 18984, Note_on_c, 0, 73, 80
1, 18984, Note_on_c, 1, 66, 80
1, 18994, Note_on_c, 1, 66, 0
1, 19001, Note_on_c, 1, 58, 0
1, 19007, Note_on_c, 0, 73, 0
1, 19008, Note_on_c, 0, 75, 80
1, 19008, Note_on_c, 1, 66, 80
1, 19008, Note_on_c, 1, 59, 80
1, 19032, Note_on_c, 0, 75, 0
1, 19032, Note_on_c, 0, 78, 80
1, 19042, Note_on_c, 0, 78, 0
1, 19053, Note_on_c, 1, 59, 0
1, 19056, Note_on_c, 0, 70, 80
1, 19056, Note_on_c, 1, 61, 80
1, 19080, Note_on_c, 0, 70, 0
1, 19080, Note_on_c, 0, 73, 80
1, 19090, Note_on_c, 0, 73, 0
1, 19101, Note_on_c, 1, 61, 0
1, 19104, Note_on_c, 0, 71, 80
1, 19104, Note_on_c, 1, 63, 80
1, 19128, Note_on_c, 0, 71, 0
1, 19128, Note_on_c, 0, 75, 80
1, 19138, Note_on_c, 0, 75, 0
1, 19149, Note_on_c, 1, 63, 0
1, 19152, Note_on_c, 0, 73, 80
1, 19152, Note_on_c, 1, 58, 80
1, 19176, Note_on_c, 0, 73, 0
1, 19176, Note_on_c, 0, 76, 80
1, 19185, Note_on_c, 1, 66, 0
1, 19186, Note_on_c, 0, 76, 0
1, 19197, Note_on_c, 1, 58, 0
1, 19200, Note_on_c, 0, 75, 80
1, 19200, Note_on_c, 1, 66, 80
1, 19200, Note_on_c, 1, 59, 80
1, 19224, Note_on_c, 0, 75, 0
1, 19224, Note_on_c, 0, 78, 80
1, 19234, Note_on_c, 0, 78, 0
1, 19245, Note_on_c, 1, 59, 0
1, 19248, Note_on_c, 0, 70, 80
1, 19248, Note_on_c, 1, 61, 80
1, 19272, Note_on_c, 0, 70, 0
1, 19272, Note_on_c, 0, 73, 80
1, 19282, Note_on_c, 0, 73, 0
1, 19293, Note_on_c, 1, 61, 0
1, 19296, Note_on_c, 0, 71, 80
1, 19296, Note_on_c, 1, 63, 80
1, 19320, Note_on_c, 0, 71, 0
1, 19320, Note_on_c, 0, 75, 80
1, 19330, Note_on_c, 0, 75, 0
1, 19341, Note_on_c, 1, 63, 0
1, 19344, Note_on_c, 0, 73, 80
1, 19344, Note_on_c, 1, 58, 80
1, 19368, Note_on_c, 0, 73, 0
1, 19368, Note_on_c, 0, 76, 80
1, 19377, Note_on_c, 1, 66, 0
1, 19378, Note_on_c, 0, 76, 0
1, 19389, Note_on_c, 1, 58, 0
1, 19392, Note_on_c, 0, 75, 80
1, 19392, Note_on_c, 1, 59, 80
1, 19416, Note_on_c, 0, 75, 0
1, 19416, Note_on_c, 0, 78, 80
1, 19426, Note_on_c, 0, 78, 0
1, 19437, Note_on_c, 1, 59, 0
1, 19440, Note_on_c, 0, 76, 81
1, 19440, Note_on_c, 1, 61, 81
1, 19464, Note_on_c, 0, 76, 0
1, 19464, Note_on_c, 0, 80, 82
1, 19474, Note_on_c, 0, 80, 0
1, 19485, Note_on_c, 1, 61, 0
1, 19488, Note_on_c, 0, 78, 83
1, 19488, Note_on_c, 1, 63, 83
1, 19512, Note_on_c, 0, 78, 0
1, 19512, Note_on_c, 0, 81, 83
1, 19522, Note_on_c, 0, 81, 0
1, 19533, Note_on_c, 1, 63, 0
1, 19536, Note_on_c, 0, 80, 84
1, 19536, Note_on_c, 1, 64, 84
1, 19560, Note_on_c, 0, 80, 0
1, 19560, Note_on_c, 0, 83, 85
1, 19570, Note_on_c, 0, 83, 0
1, 19581, Note_on_c, 1, 64, 0
1, 19584, Note_on_c, 0, 83, 86
1, 19584, Note_on_c, 1, 66, 86
1, 19584, Note_on_c, 1, 54, 86
1, 19608, Note_on_c, 0, 83, 0
1, 19608, Note_on_c, 0, 81, 85
1, 19618, Note_on_c, 0, 81, 0
1, 19629, Note_on_c, 1, 66, 0
1, 19629, Note_on_c, 1, 54, 0
1, 19632, Note_on_c, 0, 81, 84
1, 19632, Note_on_c, 1, 64, 84
1, 19632, Note_on_c, 1, 52, 84
1, 19656, Note_on_c, 0, 81, 0
1, 19656, Note_on_c, 0, 80, 84
1, 19666, Note_on_c, 0, 80, 0
1, 19677, Note_on_c, 1, 64, 0
1, 19677, Note_on_c, 1, 52, 0
1, 19680, Note_on_c, 0, 80, 83
1, 19680, Note_on_c, 1, 63, 83
1, 19680, Note_on_c, 1, 51, 83
1, 19704, Note_on_c, 0, 80, 0
1, 19704, Note_on_c, 0, 78, 82
1, 19714, Note_on_c, 0, 78, 0
1, 19725, Note_on_c, 1, 63, 0
1, 19725, Note_on_c, 1, 51, 0
1, 19728, Note_on_c, 0, 78, 82
1, 19728, Note_on_c, 1, 61, 82
1, 19728, Note_on_c, 1, 49, 82
1, 19752, Note_on_c, 0, 78, 0
1, 19752, Note_on_c, 0, 76, 81
1, 19762, Note_on_c, 0, 76, 0
1, 19773, Note_on_c, 1, 61, 0
1, 19773, Note_on_c, 1, 49, 0
1, 19776, Note_on_c, 0, 76, 80
1, 19776, Note_on_c, 1, 59, 80
1, 19776, Note_on_c, 1, 47, 80
1, 19800, Note_on_c, 0, 76, 0
1, 19800, Note_on_c, 0, 75, 80
1, 19810, Note_on_c, 0, 75, 0
1, 19821, Note_on_c, 1, 59, 0
1, 19821, Note_on_c, 1, 47, 0
1, 19824, Note_on_c, 0, 75, 79
1, 19824, Note_on_c, 1, 57, 79
1, 19824, Note_on_c, 1, 45, 79
1, 19848, Note_on_c, 0, 75, 0
1, 19848, Note_on_c, 0, 73, 78
1, 19858, Note_on_c, 0, 73, 0
1, 19869, Note_on_c, 1, 57, 0
1, 19869, Note_on_c, 1, 45, 0
1, 19872, Note_on_c, 0, 73, 78
1, 19872, Note_on_c, 1, 56, 78
1, 19872, Note_on_c, 1, 44, 78
1, 19896, Note_on_c, 0, 73, 0
1, 19896, Note_on_c, 0, 71, 77
1, 19906, Note_on_c, 0, 71, 0
1, 19917, Note_on_c, 1, 56, 0
1, 19917, Note_on_c, 1, 44, 0
1, 19920, Note_on_c, 0, 71, 76
1, 19920, Note_on_c, 1, 54, 76
1, 19920, Note_on_c, 1, 42, 76
1, 19944, Note_on_c, 0, 71, 0
1, 19944, Note_on_c, 0, 69, 76
1, 19954, Note_on_c, 0, 69, 0
1, 19965, Note_on_c, 1, 54, 0
1, 19965, Note_on_c, 1, 42, 0
1, 19968, Note_on_c, 0, 68, 75
1, 19968, Note_on_c, 1, 52, 75
1, 19968, Note_on_c, 1, 40, 75
1, 19983, Note_on_c, 0, 68, 0
1, 19984, Note_on_c, 0, 69, 75
1, 19999, Note_on_c, 0, 69, 0
1, 20000, Note_on_c, 0, 71, 74
1, 20015, Note_on_c, 0, 71, 0
1, 20016, Note_on_c, 0, 64, 74
1, 20031, Note_on_c, 0, 64, 0
1, 20032, Note_on_c, 0, 69, 74
1, 20047, Note_on_c, 0, 69, 0
1, 20048, Note_on_c, 0, 66, 73
1, 20057, Note_on_c, 1, 52, 0
1, 20057, Note_on_c, 1, 40, 0
1, 20063, Note_on_c, 0, 66, 0
1, 20064, Note_on_c, 0, 68, 73
1, 20064, Note_on_c, 1, 59, 72
1, 20074, Note_on_c, 0, 68, 0
1, 20074, Note_on_c, 0, 66, 73
1, 20084, Note_on_c, 0, 66, 0
1, 20084, Note_on_c, 0, 68, 73
1, 20094, Note_on_c, 0, 68, 0
1, 20094, Note_on_c, 0, 66, 72
1, 20104, Note_on_c, 0, 66, 0
1, 20104, Note_on_c, 0, 68, 72
1, 20109, Note_on_c, 1, 59, 0
1, 20112, Note_on_c, 1, 47, 71
1, 20114, Note_on_c, 0, 68, 0
1, 20114, Note_on_c, 0, 66, 72
1, 20124, Note_on_c, 0, 66, 0
1, 20124, Note_on_c, 0, 68, 72
1, 20133, Note_on_c, 0, 68, 0
1, 20133, Note_on_c, 0, 66, 72
1, 20142, Note_on_c, 0, 66, 0
1, 20142, Note_on_c, 0, 64, 72
1, 20151, Note_on_c, 0, 64, 0
1, 20151, Note_on_c, 0, 66, 71
1, 20157, Note_on_c, 1, 47, 0
1, 20160, Note_on_c, 0, 66, 0
1, 20160, Note_on_c, 0, 64, 70
1, 20160, Note_on_c, 1, 52, 70
1, 20205, Note_on_c, 1, 52, 0
1, 20208, Note_on_c, 1, 40, 70
1, 20238, Note_on_c, 0, 64, 0
1, 20244, Note_on_c, 0, 71, 75
1, 20249, Note_on_c, 0, 71, 0
1, 20253, Note_on_c, 1, 40, 0
1, 20256, Note_on_c, 0, 64, 91
1, 20304, Note_on_c, 0, 64, 0
1, 20304, Note_on_c, 0, 66, 75
1, 20349, Note_on_c, 0, 66, 0
1, 20352, Note_on_c, 0, 68, 75
1, 20352, Note_on_c, 0, 64, 75
1, 20352, Note_on_c, 1, 47, 75
1, 20352, Note_on_c, 1, 35, 75
1, 20400, Note_on_c, 0, 68, 0
1, 20400, Note_on_c, 0, 66, 75
1, 20400, Note_on_c, 0, 64, 0
1, 20400, Note_on_c, 0, 63, 75
1, 20434, Note_on_c, 0, 66, 0
1, 20436, Note_on_c, 0, 71, 75
1, 20441, Note_on_c, 0, 71, 0
1, 20441, Note_on_c, 1, 47, 0
1, 20441, Note_on_c, 1, 35, 0
1, 20445, Note_on_c, 0, 63, 0
1, 20448, Note_on_c, 0, 66, 91
1, 20448, Note_on_c, 0, 63, 75
1, 20496, Note_on_c, 0, 66, 0
1, 20496, Note_on_c, 0, 68, 75
1, 20496, Note_on_c, 0, 63, 0
1, 20496, Note_on_c, 0, 64, 75
1, 20541, Note_on_c, 0, 68, 0
1, 20541, Note_on_c, 0, 64, 0
1, 20544, Note_on_c, 0, 69, 75
1, 20544, Note_on_c, 0, 66, 75
1, 20544, Note_on_c, 1, 47, 75
1, 20544, Note_on_c, 1, 35, 75
1, 20589, Note_on_c, 1, 47, 0
1, 20589, Note_on_c, 1, 35, 0
1, 20592, Note_on_c, 0, 69, 0
1, 20592, Note_on_c, 0, 68, 75
1, 20592, Note_on_c, 0, 66, 0
1, 20592, Note_on_c, 0, 64, 75
1, 20592, Note_on_c, 1, 52, 75
1, 20592, Note_on_c, 1, 40, 75
1, 20626, Note_on_c, 0, 68, 0
1, 20628, Note_on_c, 0, 71, 75
1, 20633, Note_on_c, 0, 71, 0
1, 20637, Note_on_c, 0, 64, 0
1, 20637, Note_on_c, 1, 52, 0
1, 20637, Note_on_c, 1, 40, 0
1, 20640, Note_on_c, 0, 68, 91
1, 20640, Note_on_c, 0, 64, 75
1, 20688, Note_on_c, 0, 68, 0
1, 20688, Note_on_c, 0, 69, 75
1, 20688, Note_on_c, 0, 64, 0
1, 20688, Note_on_c, 0, 66, 75
1, 20733, Note_on_c, 0, 69, 0
1, 20733, Note_on_c, 0, 66, 0
1, 20736, Note_on_c, 0, 71, 75
1, 20736, Note_on_c, 0, 68, 75
1, 20736, Note_on_c, 1, 52, 75
1, 20736, Note_on_c, 1, 40, 75
1, 20781, Note_on_c, 0, 71, 0
1, 20781, Note_on_c, 0, 68, 0
1, 20784, Note_on_c, 0, 76, 91
1, 20784, Note_on_c, 0, 71, 91
1, 20784, Note_on_c, 0, 68, 91
1, 20825, Note_on_c, 1, 52, 0
1, 20825, Note_on_c, 1, 40, 0
1, 20832, Note_on_c, 0, 76, 0
1, 20832, Note_on_c, 0, 71, 0
1, 20832, Note_on_c, 0, 68, 0
1, 20832, Note_on_c, 1, 56, 75
1, 20832, Note_on_c, 1, 44, 75
1, 20880, Note_on_c, 0, 71, 75
1, 20880, Note_on_c, 0, 68, 75
1, 20880, Note_on_c, 0, 64, 75
1, 20921, Note_on_c, 1, 56, 0
1, 20921, Note_on_c, 1, 44, 0
1, 20925, Note_on_c, 0, 71, 0
1, 20925, Note_on_c, 0, 68, 0
1, 20925, Note_on_c, 0, 64, 0
1, 20928, Note_on_c, 1, 57, 75
1, 20928, Note_on_c, 1, 45, 75
1, 20952, Note_on_c, 0, 73, 70
1, 20973, Note_on_c, 1, 57, 0
1, 20973, Note_on_c, 1, 45, 0
1, 20976, Note_on_c, 1, 61, 70
1, 20997, Note_on_c, 0, 73, 0
1, 21000, Note_on_c, 0, 69, 70
1, 21021, Note_on_c, 1, 61, 0
1, 21024, Note_on_c, 1, 59, 70
1, 21045, Note_on_c, 0, 69, 0
1, 21048, Note_on_c, 0, 68, 70
1, 21069, Note_on_c, 1, 59, 0
1, 21072, Note_on_c, 1, 63, 70
1, 21093, Note_on_c, 0, 68, 0
1, 21096, Note_on_c, 0, 66, 70
1, 21117, Note_on_c, 1, 63, 0
1, 21119, Note_on_c, 0, 66, 0
1, 21120, Note_on_c, 0, 68, 75
1, 21120, Note_on_c, 1, 64, 75
1, 21165, Note_on_c, 0, 68, 0
1, 21168, Note_on_c, 0, 76, 91
1, 21168, Note_on_c, 0, 71, 91
1, 21168, Note_on_c, 0, 68, 91
1, 21209, Note_on_c, 1, 64, 0
1, 21216, Note_on_c, 0, 76, 0
1, 21216, Note_on_c, 0, 71, 0
1, 21216, Note_on_c, 0, 68, 0
1, 21216, Note_on_c, 1, 64, 75
1, 21216, Note_on_c, 1, 56, 75
1, 21264, Note_on_c, 0, 83, 75
1, 21264, Note_on_c, 0, 80, 75
1, 21264, Note_on_c, 0, 76, 75
1, 21305, Note_on_c, 1, 64, 0
1, 21305, Note_on_c, 1, 56, 0
1, 21309, Note_on_c, 0, 83, 0
1, 21309, Note_on_c, 0, 80, 0
1, 21309, Note_on_c, 0, 76, 0
1, 21312, Note_on_c, 0, 81, 75
1, 21312, Note_on_c, 1, 63, 75
1, 21312, Note_on_c, 1, 54, 75
1, 21327, Note_on_c, 0, 81, 0
1, 21328, Note_on_c, 0, 80, 75
1, 21343, Note_on_c, 0, 80, 0
1, 21344, Note_on_c, 0, 78, 75
1, 21357, Note_on_c, 1, 63, 0
1, 21357, Note_on_c, 1, 54, 0
1, 21359, Note_on_c, 0, 78, 0
1, 21360, Note_on_c, 0, 80, 75
1, 21360, Note_on_c, 1, 64, 75
1, 21360, Note_on_c, 1, 52, 75
1, 21375, Note_on_c, 0, 80, 0
1, 21376, Note_on_c, 0, 78, 75
1, 21391, Note_on_c, 0, 78, 0
1, 21392, Note_on_c, 0, 76, 75
1, 21405, Note_on_c, 1, 64, 0
1, 21405, Note_on_c, 1, 52, 0
1, 21407, Note_on_c, 0, 76, 0
1, 21408, Note_on_c, 0, 80, 75
1, 21408, Note_on_c, 1, 64, 75
1, 21408, Note_on_c, 1, 57, 75
1, 21418, Note_on_c, 0, 80, 0
1, 21418, Note_on_c, 0, 78, 75
1, 21428, Note_on_c, 0, 78, 0
1, 21428, Note_on_c, 0, 80, 75
1, 21438, Note_on_c, 0, 80, 0
1, 21438, Note_on_c, 0, 78, 75
1, 21448, Note_on_c, 0, 78, 0
1, 21448, Note_on_c, 0, 80, 75
1, 21453, Note_on_c, 1, 64, 0
1, 21453, Note_on_c, 1, 57, 0
1, 21456, Note_on_c, 1, 63, 75
1, 21456, Note_on_c, 1, 59, 75
1, 21458, Note_on_c, 0, 80, 0
1, 21458, Note_on_c, 0, 78, 75
1, 21468, Note_on_c, 0, 78, 0
1, 21468, Note_on_c, 0, 80, 75
1, 21477, Note_on_c, 0, 80, 0
1, 21477, Note_on_c, 0, 78, 75
1, 21486, Note_on_c, 0, 78, 0
1, 21486, Note_on_c, 0, 76, 75
1, 21495, Note_on_c, 0, 76, 0
1, 21495, Note_on_c, 0, 78, 75
1, 21501, Note_on_c, 1, 63, 0
1, 21501, Note_on_c, 1, 59, 0
1, 21504, Note_on_c, 0, 78, 0
1, 21504, Note_on_c, 0, 80, 75
1, 21504, Note_on_c, 1, 64, 75
1, 21504, Note_on_c, 1, 52, 80
1, 21519, Note_on_c, 0, 80, 0
1, 21520, Note_on_c, 0, 78, 75
1, 21535, Note_on_c, 0, 78, 0
1, 21536, Note_on_c, 0, 76, 75
1, 21551, Note_on_c, 0, 76, 0
1, 21552, Note_on_c, 0, 75, 75
1, 21567, Note_on_c, 0, 75, 0
1, 21568, Note_on_c, 0, 73, 75
1, 21583, Note_on_c, 0, 73, 0
1, 21584, Note_on_c, 0, 71, 75
1, 21593, Note_on_c, 1, 64, 0
1, 21593, Note_on_c, 1, 52, 0
1, 21599, Note_on_c, 0, 71, 0
1, 21600, Note_on_c, 0, 80, 75
1, 21600, Note_on_c, 1, 64, 75
1, 21600, Note_on_c, 1, 59, 80
1, 21610, Note_on_c, 0, 80, 0
1, 21610, Note_on_c, 0, 78, 75
1, 21620, Note_on_c, 0, 78, 0
1, 21620, Note_on_c, 0, 80, 75
1, 21630, Note_on_c, 0, 80, 0
1, 21630, Note_on_c, 0, 78, 75
1, 21640, Note_on_c, 0, 78, 0
1, 21640, Note_on_c, 0, 80, 75
1, 21645, Note_on_c, 1, 64, 0
1, 21648, Note_on_c, 1, 63, 75
1, 21650, Note_on_c, 0, 80, 0
1, 21650, Note_on_c, 0, 78, 75
1, 21660, Note_on_c, 0, 78, 0
1, 21660, Note_on_c, 0, 80, 75
1, 21669, Note_on_c, 0, 80, 0
1, 21669, Note_on_c, 0, 78, 75
1, 21678, Note_on_c, 0, 78, 0
1, 21678, Note_on_c, 0, 76, 75
1, 21687, Note_on_c, 0, 76, 0
1, 21687, Note_on_c, 0, 78, 75
1, 21689, Note_on_c, 1, 59, 0
1, 21693, Note_on_c, 1, 63, 0
1, 21696, Note_on_c, 0, 78, 0
1, 21696, Note_on_c, 0, 76, 75
1, 21696, Note_on_c, 1, 64, 75
1, 21741, Note_on_c, 1, 64, 0
1, 21744, Note_on_c, 1, 52, 75
1, 21785, Note_on_c, 0, 76, 0
1, 21789, Note_on_c, 1, 52, 0
1, 21888, Note_on_c, 0, 71, 75
1, 21888, Note_on_c, 1, 59, 75
1, 21888, Note_on_c, 1, 47, 75
1, 21912, Note_on_c, 0, 71, 0
1, 21912, Note_on_c, 0, 83, 75
1, 21935, Note_on_c, 0, 83, 0
1, 21936, Note_on_c, 0, 83, 75
1, 21946, Note_on_c, 0, 83, 0
1, 21960, Note_on_c, 0, 83, 75
1, 21970, Note_on_c, 0, 83, 0
1, 21977, Note_on_c, 1, 59, 0
1, 21977, Note_on_c, 1, 47, 0
1, 21984, Note_on_c, 0, 83, 75
1, 22008, Note_on_c, 0, 83, 0
1, 22008, Note_on_c, 0, 80, 75
1, 22031, Note_on_c, 0, 80, 0
1, 22032, Note_on_c, 0, 81, 75
1, 22056, Note_on_c, 0, 81, 0
1, 22056, Note_on_c, 0, 78, 75
1, 22079, Note_on_c, 0, 78, 0
1, 22080, Note_on_c, 0, 80, 75
1, 22080, Note_on_c, 1, 59, 75
1, 22090, Note_on_c, 0, 80, 0
1, 22104, Note_on_c, 0, 80, 75
1, 22104, Note_on_c, 1, 71, 75
1, 22114, Note_on_c, 0, 80, 0
1, 22114, Note_on_c, 1, 71, 0
1, 22128, Note_on_c, 0, 80, 75
1, 22128, Note_on_c, 1, 71, 75
1, 22138, Note_on_c, 0, 80, 0
1, 22138, Note_on_c, 1, 71, 0
1, 22152, Note_on_c, 0, 80, 75
1, 22152, Note_on_c, 1, 71, 75
1, 22162, Note_on_c, 0, 80, 0
1, 22162, Note_on_c, 1, 71, 0
1, 22176, Note_on_c, 0, 80, 75
1, 22176, Note_on_c, 1, 71, 75
1, 22186, Note_on_c, 0, 80, 0
1, 22186, Note_on_c, 1, 71, 0
1, 22200, Note_on_c, 0, 76, 75
1, 22200, Note_on_c, 1, 68, 75
1, 22223, Note_on_c, 0, 76, 0
1, 22223, Note_on_c, 1, 68, 0
1, 22224, Note_on_c, 0, 78, 75
1, 22224, Note_on_c, 1, 69, 75
1, 22247, Note_on_c, 0, 78, 0
1, 22247, Note_on_c, 1, 69, 0
1, 22248, Note_on_c, 0, 75, 75
1, 22248, Note_on_c, 1, 66, 75
1, 22257, Note_on_c, 1, 59, 0
1, 22271, Note_on_c, 0, 75, 0
1, 22271, Note_on_c, 1, 66, 0
1, 22272, Note_on_c, 0, 76, 75
1, 22272, Note_on_c, 1, 68, 75
1, 22272, Note_on_c, 1, 59, 75
1, 22296, Note_on_c, 0, 76, 0
1, 22296, Note_on_c, 0, 80, 75
1, 22306, Note_on_c, 0, 80, 0
1, 22317, Note_on_c, 1, 68, 0
1, 22320, Note_on_c, 0, 78, 75
1, 22320, Note_on_c, 1, 63, 75
1, 22344, Note_on_c, 0, 78, 0
1, 22344, Note_on_c, 0, 81, 75
1, 22354, Note_on_c, 0, 81, 0
1, 22365, Note_on_c, 1, 63, 0
1, 22368, Note_on_c, 0, 80, 75
1, 22368, Note_on_c, 1, 64, 75
1, 22392, Note_on_c, 0, 80, 0
1, 22392, Note_on_c, 0, 83, 75
1, 22402, Note_on_c, 0, 83, 0
1, 22413, Note_on_c, 1, 64, 0
1, 22416, Note_on_c, 0, 75, 75
1, 22416, Note_on_c, 1, 66, 75
1, 22439, Note_on_c, 1, 66, 0
1, 22440, Note_on_c, 0, 75, 0
1, 22440, Note_on_c, 0, 78, 75
1, 22440, Note_on_c, 1, 69, 75
1, 22449, Note_on_c, 1, 59, 0
1, 22450, Note_on_c, 0, 78, 0
1, 22463, Note_on_c, 1, 69, 0
1, 22464, Note_on_c, 0, 76, 75
1, 22464, Note_on_c, 1, 68, 75
1, 22464, Note_on_c, 1, 59, 75
1, 22488, Note_on_c, 0, 76, 0
1, 22488, Note_on_c, 0, 80, 75
1, 22498, Note_on_c, 0, 80, 0
1, 22509, Note_on_c, 1, 68, 0
1, 22512, Note_on_c, 0, 78, 75
1, 22512, Note_on_c, 1, 63, 75
1, 22536, Note_on_c, 0, 78, 0
1, 22536, Note_on_c, 0, 81, 75
1, 22546, Note_on_c, 0, 81, 0
1, 22557, Note_on_c, 1, 63, 0
1, 22560, Note_on_c, 0, 80, 75
1, 22560, Note_on_c, 1, 64, 75
1, 22584, Note_on_c, 0, 80, 0
1, 22584, Note_on_c, 0, 83, 75
1, 22594, Note_on_c, 0, 83, 0
1, 22605, Note_on_c, 1, 64, 0
1, 22608, Note_on_c, 0, 75, 75
1, 22608, Note_on_c, 1, 66, 75
1, 22631, Note_on_c, 1, 66, 0
1, 22632, Note_on_c, 0, 75, 0
1, 22632, Note_on_c, 0, 78, 75
1, 22632, Note_on_c, 1, 69, 75
1, 22641, Note_on_c, 1, 59, 0
1, 22642, Note_on_c, 0, 78, 0
1, 22655, Note_on_c, 1, 69, 0
1, 22656, Note_on_c, 0, 76, 75
1, 22656, Note_on_c, 1, 68, 75
1, 22656, Note_on_c, 1, 59, 75
1, 22680, Note_on_c, 0, 76, 0
1, 22680, Note_on_c, 0, 80, 75
1, 22690, Note_on_c, 0, 80, 0
1, 22701, Note_on_c, 1, 68, 0
1, 22704, Note_on_c, 0, 78, 75
1, 22704, Note_on_c, 1, 63, 75
1, 22728, Note_on_c, 0, 78, 0
1, 22728, Note_on_c, 0, 81, 75
1, 22738, Note_on_c, 0, 81, 0
1, 22749, Note_on_c, 1, 63, 0
1, 22752, Note_on_c, 0, 80, 75
1, 22752, Note_on_c, 1, 64, 75
1, 22776, Note_on_c, 0, 80, 0
1, 22776, Note_on_c, 0, 83, 75
1, 22786, Note_on_c, 0, 83, 0
1, 22797, Note_on_c, 1, 64, 0
1, 22800, Note_on_c, 0, 80, 75
1, 22800, Note_on_c, 1, 68, 75
1, 22824, Note_on_c, 0, 80, 0
1, 22824, Note_on_c, 0, 76, 75
1, 22833, Note_on_c, 1, 59, 0
1, 22834, Note_on_c, 0, 76, 0
1, 22845, Note_on_c, 1, 68, 0
1, 22848, Note_on_c, 0, 75, 75
1, 22848, Note_on_c, 1, 71, 75
1, 22848, Note_on_c, 1, 59, 75
1, 22863, Note_on_c, 0, 75, 0
1, 22864, Note_on_c, 0, 76, 75
1, 22879, Note_on_c, 0, 76, 0
1, 22880, Note_on_c, 0, 78, 75
1, 22895, Note_on_c, 0, 78, 0
1, 22896, Note_on_c, 0, 71, 75
1, 22937, Note_on_c, 1, 71, 0
1, 22937, Note_on_c, 1, 59, 0
1, 22941, Note_on_c, 0, 71, 0
1, 23040, Note_on_c, 0, 64, 80
1, 23040, Note_on_c, 0, 64, 96
1, 23040, Note_on_c, 1, 52, 80
1, 23040, Note_on_c, 1, 40, 80
1, 23046, Note_on_c, 0, 68, 80
1, 23052, Note_on_c, 0, 71, 80
1, 23058, Note_on_c, 0, 76, 80
1, 23112, Note_on_c, 0, 64, 0
1, 23112, Note_on_c, 0, 64, 80
1, 23122, Note_on_c, 0, 64, 0
1, 23129, Note_on_c, 1, 52, 0
1, 23129, Note_on_c, 1, 40, 0
1, 23133, Note_on_c, 0, 76, 0
1, 23133, Note_on_c, 0, 71, 0
1, 23133, Note_on_c, 0, 68, 0
1, 23133, Note_on_c, 0, 64, 0
1, 23136, Note_on_c, 0, 68, 75
1, 23136, Note_on_c, 1, 64, 75
1, 23156, Note_on_c, 0, 68, 0
1, 23181, Note_on_c, 1, 64, 0
1, 23184, Note_on_c, 0, 69, 75
1, 23184, Note_on_c, 1, 66, 75
1, 23204, Note_on_c, 0, 69, 0
1, 23229, Note_on_c, 1, 66, 0
1, 23232, Note_on_c, 0, 71, 75
1, 23232, Note_on_c, 1, 68, 75
1, 23255, Note_on_c, 0, 71, 0
1, 23256, Note_on_c, 0, 73, 75
1, 23264, Note_on_c, 0, 73, 0
1, 23264, Note_on_c, 0, 71, 75
1, 23272, Note_on_c, 0, 71, 0
1, 23272, Note_on_c, 0, 69, 75
1, 23276, Note_on_c, 0, 69, 0
1, 23280, Note_on_c, 0, 71, 75
1, 23299, Note_on_c, 1, 68, 0
1, 23303, Note_on_c, 0, 71, 0
1, 23304, Note_on_c, 0, 73, 75
1, 23304, Note_on_c, 1, 69, 75
1, 23314, Note_on_c, 0, 73, 0
1, 23327, Note_on_c, 1, 69, 0
1, 23328, Note_on_c, 0, 71, 75
1, 23328, Note_on_c, 1, 68, 75
1, 23373, Note_on_c, 0, 71, 0
1, 23373, Note_on_c, 1, 68, 0
1, 23376, Note_on_c, 0, 71, 75
1, 23376, Note_on_c, 1, 63, 75
1, 23384, Note_on_c, 0, 71, 0
1, 23384, Note_on_c, 0, 69, 75
1, 23392, Note_on_c, 0, 69, 0
1, 23392, Note_on_c, 0, 71, 75
1, 23400, Note_on_c, 0, 71, 0
1, 23400, Note_on_c, 0, 69, 75
1, 23408, Note_on_c, 0, 69, 0
1, 23408, Note_on_c, 0, 68, 75
1, 23416, Note_on_c, 0, 68, 0
1, 23416, Note_on_c, 0, 69, 75
1, 23421, Note_on_c, 1, 63, 0
1, 23424, Note_on_c, 0, 69, 0
1, 23424, Note_on_c, 0, 68, 75
1, 23424, Note_on_c, 1, 64, 75
1, 23469, Note_on_c, 0, 68, 0
1, 23469, Note_on_c, 1, 64, 0
1, 23472, Note_on_c, 0, 64, 75
1, 23472, Note_on_c, 0, 59, 75
1, 23472, Note_on_c, 1, 56, 75
1, 23472, Note_on_c, 1, 44, 75
1, 23517, Note_on_c, 0, 64, 0
1, 23517, Note_on_c, 0, 59, 0
1, 23517, Note_on_c, 1, 56, 0
1, 23517, Note_on_c, 1, 44, 0
1, 23520, Note_on_c, 0, 66, 75
1, 23520, Note_on_c, 0, 61, 75
1, 23520, Note_on_c, 1, 57, 75
1, 23520, Note_on_c, 1, 45, 75
1, 23565, Note_on_c, 0, 66, 0
1, 23565, Note_on_c, 0, 61, 0
1, 23565, Note_on_c, 1, 57, 0
1, 23565, Note_on_c, 1, 45, 0
1, 23568, Note_on_c, 0, 63, 75
1, 23568, Note_on_c, 1, 54, 75
1, 23568, Note_on_c, 1, 47, 75
1, 23613, Note_on_c, 0, 63, 0
1, 23613, Note_on_c, 1, 54, 0
1, 23613, Note_on_c, 1, 47, 0
1, 23616, Note_on_c, 0, 64, 75
1, 23616, Note_on_c, 1, 52, 75
1, 23616, Note_on_c, 1, 40, 75
1, 23631, Note_on_c, 0, 64, 0
1, 23632, Note_on_c, 0, 66, 75
1, 23647, Note_on_c, 0, 66, 0
1, 23648, Note_on_c, 0, 68, 75
1, 23663, Note_on_c, 0, 68, 0
1, 23664, Note_on_c, 0, 59, 75
1, 23705, Note_on_c, 1, 52, 0
1, 23705, Note_on_c, 1, 40, 0
1, 23709, Note_on_c, 0, 59, 0
1, 23724, Note_on_c, 0, 71, 91
1, 23736, Note_on_c, 0, 71, 0
1, 23736, Note_on_c, 0, 73, 75
1, 23748, Note_on_c, 0, 73, 0
1, 23748, Note_on_c, 0, 75, 76
1, 23760, Note_on_c, 0, 75, 0
1, 23760, Note_on_c, 0, 76, 77
1, 23772, Note_on_c, 0, 76, 0
1, 23772, Note_on_c, 0, 78, 77
1, 23784, Note_on_c, 0, 78, 0
1, 23784, Note_on_c, 0, 80, 78
1, 23796, Note_on_c, 0, 80, 0
1, 23796, Note_on_c, 0, 81, 79
1, 23808, Note_on_c, 0, 81, 0
1, 23808, Note_on_c, 0, 83, 80
1, 23808, Note_on_c, 1, 64, 75
1, 23853, Note_on_c, 0, 83, 0
1, 23853, Note_on_c, 1, 64, 0
1, 23856, Note_on_c, 0, 80, 75
1, 23856, Note_on_c, 1, 68, 75
1, 23879, Note_on_c, 0, 80, 0
1, 23880, Note_on_c, 0, 76, 75
1, 23901, Note_on_c, 1, 68, 0
1, 23903, Note_on_c, 0, 76, 0
1, 23904, Note_on_c, 0, 81, 75
1, 23904, Note_on_c, 1, 59, 75
1, 23927, Note_on_c, 0, 81, 0
1, 23928, Note_on_c, 0, 78, 75
1, 23949, Note_on_c, 1, 59, 0
1, 23951, Note_on_c, 0, 78, 0
1, 23952, Note_on_c, 0, 76, 75
1, 23952, Note_on_c, 1, 69, 75
1, 23975, Note_on_c, 0, 76, 0
1, 23976, Note_on_c, 0, 75, 75
1, 23997, Note_on_c, 1, 69, 0
1, 23999, Note_on_c, 0, 75, 0
1, 24000, Note_on_c, 0, 76, 75
1, 24000, Note_on_c, 1, 68, 75
1, 24023, Note_on_c, 0, 76, 0
1, 24024, Note_on_c, 0, 83, 74
1, 24045, Note_on_c, 1, 68, 0
1, 24048, Note_on_c, 1, 64, 74
1, 24069, Note_on_c, 0, 83, 0
1, 24072, Note_on_c, 0, 80, 74
1, 24093, Note_on_c, 1, 64, 0
1, 24096, Note_on_c, 1, 66, 74
1, 24117, Note_on_c, 0, 80, 0
1, 24120, Note_on_c, 0, 81, 73
1, 24141, Note_on_c, 1, 66, 0
1, 24144, Note_on_c, 1, 63, 73
1, 24165, Note_on_c, 0, 81, 0
1, 24168, Note_on_c, 0, 78, 73
1, 24189, Note_on_c, 1, 63, 0
1, 24192, Note_on_c, 1, 64, 73
1, 24215, Note_on_c, 0, 78, 0
1, 24216, Note_on_c, 0, 80, 73
1, 24237, Note_on_c, 1, 64, 0
1, 24240, Note_on_c, 1, 71, 72
1, 24261, Note_on_c, 0, 80, 0
1, 24264, Note_on_c, 0, 76, 72
1, 24285, Note_on_c, 1, 71, 0
1, 24288, Note_on_c, 1, 69, 72
1, 24309, Note_on_c, 0, 76, 0
1, 24312, Note_on_c, 0, 78, 72
1, 24333, Note_on_c, 1, 69, 0
1, 24336, Note_on_c, 1, 66, 72
1, 24357, Note_on_c, 0, 78, 0
1, 24360, Note_on_c, 0, 75, 71
1, 24381, Note_on_c, 1, 66, 0
1, 24384, Note_on_c, 1, 68, 71
1, 24407, Note_on_c, 0, 75, 0
1, 24408, Note_on_c, 0, 76, 71
1, 24429, Note_on_c, 1, 68, 0
1, 24432, Note_on_c, 1, 64, 71
1, 24453, Note_on_c, 0, 76, 0
1, 24456, Note_on_c, 0, 73, 71
1, 24477, Note_on_c, 1, 64, 0
1, 24480, Note_on_c, 1, 66, 70
1, 24501, Note_on_c, 0, 73, 0
1, 24504, Note_on_c, 0, 75, 70
1, 24525, Note_on_c, 1, 66, 0
1, 24528, Note_on_c, 1, 63, 70
1, 24549, Note_on_c, 0, 75, 0
1, 24552, Note_on_c, 0, 72, 70
1, 24573, Note_on_c, 1, 63, 0
1, 24575, Note_on_c, 0, 72, 0
1, 24576, Note_on_c, 0, 73, 70
1, 24576, Note_on_c, 1, 64, 70
1, 24599, Note_on_c, 0, 73, 0
1, 24600, Note_on_c, 0, 68, 70
1, 24610, Note_on_c, 0, 68, 0
1, 24624, Note_on_c, 0, 68, 70
1, 24634, Note_on_c, 0, 68, 0
1, 24648, Note_on_c, 0, 68, 70
1, 24658, Note_on_c, 0, 68, 0
1, 24665, Note_on_c, 1, 64, 0
1, 24672, Note_on_c, 0, 76, 70
1, 24672, Note_on_c, 1, 49, 70
1, 24695, Note_on_c, 0, 76, 0
1, 24696, Note_on_c, 0, 68, 70
1, 24706, Note_on_c, 0, 68, 0
1, 24720, Note_on_c, 0, 68, 70
1, 24730, Note_on_c, 0, 68, 0
1, 24744, Note_on_c, 0, 68, 70
1, 24754, Note_on_c, 0, 68, 0
1, 24761, Note_on_c, 1, 49, 0
1, 24768, Note_on_c, 0, 75, 70
1, 24768, Note_on_c, 1, 48, 70
1, 24791, Note_on_c, 0, 75, 0
1, 24792, Note_on_c, 0, 68, 70
1, 24802, Note_on_c, 0, 68, 0
1, 24813, Note_on_c, 1, 48, 0
1, 24816, Note_on_c, 0, 68, 70
1, 24816, Note_on_c, 1, 51, 70
1, 24826, Note_on_c, 0, 68, 0
1, 24840, Note_on_c, 0, 68, 70
1, 24850, Note_on_c, 0, 68, 0
1, 24861, Note_on_c, 1, 51, 0
1, 24864, Note_on_c, 0, 78, 70
1, 24864, Note_on_c, 1, 56, 70
1, 24887, Note_on_c, 0, 78, 0
1, 24888, Note_on_c, 0, 68, 70
1, 24898, Note_on_c, 0, 68, 0
1, 24909, Note_on_c, 1, 56, 0
1, 24912, Note_on_c, 0, 68, 70
1, 24912, Note_on_c, 1, 60, 70
1, 24922, Note_on_c, 0, 68, 0
1, 24936, Note_on_c, 0, 68, 70
1, 24946, Note_on_c, 0, 68, 0
1, 24957, Note_on_c, 1, 60, 0
1, 24960, Note_on_c, 0, 76, 70
1, 24960, Note_on_c, 1, 61, 70
1, 24983, Note_on_c, 0, 76, 0
1, 24984, Note_on_c, 0, 68, 70
1, 24994, Note_on_c, 0, 68, 0
1, 25005, Note_on_c, 1, 61, 0
1, 25008, Note_on_c, 0, 68, 71
1, 25008, Note_on_c, 1, 49, 71
1, 25018, Note_on_c, 0, 68, 0
1, 25032, Note_on_c, 0, 68, 72
1, 25042, Note_on_c, 0, 68, 0
1, 25053, Note_on_c, 1, 49, 0
1, 25056, Note_on_c, 0, 80, 72
1, 25079, Note_on_c, 0, 80, 0
1, 25080, Note_on_c, 0, 68, 73
1, 25090, Note_on_c, 0, 68, 0
1, 25104, Note_on_c, 0, 68, 74
1, 25104, Note_on_c, 1, 64, 73
1, 25104, Note_on_c, 1, 52, 73
1, 25114, Note_on_c, 0, 68, 0
1, 25128, Note_on_c, 0, 68, 75
1, 25138, Note_on_c, 0, 68, 0
1, 25149, Note_on_c, 1, 64, 0
1, 25149, Note_on_c, 1, 52, 0
1, 25152, Note_on_c, 0, 81, 75
1, 25152, Note_on_c, 1, 54, 75
1, 25175, Note_on_c, 1, 54, 0
1, 25176, Note_on_c, 1, 66, 75
1, 25186, Note_on_c, 1, 66, 0
1, 25197, Note_on_c, 0, 81, 0
1, 25200, Note_on_c, 1, 66, 75
1, 25210, Note_on_c, 1, 66, 0
1, 25224, Note_on_c, 1, 66, 75
1, 25234, Note_on_c, 1, 66, 0
1, 25248, Note_on_c, 0, 71, 75
1, 25248, Note_on_c, 1, 63, 75
1, 25271, Note_on_c, 0, 71, 0
1, 25272, Note_on_c, 0, 81, 75
1, 25272, Note_on_c, 0, 78, 75
1, 25282, Note_on_c, 0, 81, 0
1, 25282, Note_on_c, 0, 78, 0
1, 25296, Note_on_c, 0, 81, 75
1, 25296, Note_on_c, 0, 78, 75
1, 25306, Note_on_c, 0, 81, 0
1, 25306, Note_on_c, 0, 78, 0
1, 25320, Note_on_c, 0, 81, 75
1, 25320, Note_on_c, 0, 78, 75
1, 25330, Note_on_c, 0, 81, 0
1, 25330, Note_on_c, 0, 78, 0
1, 25337, Note_on_c, 1, 63, 0
1, 25344, Note_on_c, 0, 80, 75
1, 25344, Note_on_c, 0, 76, 75
1, 25344, Note_on_c, 1, 52, 75
1, 25367, Note_on_c, 1, 52, 0
1, 25368, Note_on_c, 1, 64, 75
1, 25378, Note_on_c, 1, 64, 0
1, 25389, Note_on_c, 0, 80, 0
1, 25389, Note_on_c, 0, 76, 0
1, 25392, Note_on_c, 1, 64, 75
1, 25402, Note_on_c, 1, 64, 0
1, 25416, Note_on_c, 1, 64, 75
1, 25426, Note_on_c, 1, 64, 0
1, 25440, Note_on_c, 0, 83, 75
1, 25464, Note_on_c, 0, 83, 0
1, 25464, Note_on_c, 0, 81, 75
1, 25474, Note_on_c, 0, 81, 0
1, 25488, Note_on_c, 0, 81, 75
1, 25488, Note_on_c, 1, 64, 75
1, 25488, Note_on_c, 1, 52, 75
1, 25512, Note_on_c, 0, 81, 0
1, 25512, Note_on_c, 0, 80, 75
1, 25522, Note_on_c, 0, 80, 0
1, 25533, Note_on_c, 1, 64, 0
1, 25533, Note_on_c, 1, 52, 0
1, 25536, Note_on_c, 0, 80, 75
1, 25536, Note_on_c, 1, 61, 75
1, 25536, Note_on_c, 1, 57, 75
1, 25560, Note_on_c, 0, 80, 0
1, 25560, Note_on_c, 0, 78, 75
1, 25570, Note_on_c, 0, 78, 0
1, 25584, Note_on_c, 0, 78, 75
1, 25584, Note_on_c, 1, 61, 0
1, 25584, Note_on_c, 1, 57, 0
1, 25584, Note_on_c, 1, 59, 75
1, 25584, Note_on_c, 1, 56, 75
1, 25607, Note_on_c, 0, 78, 0
1, 25608, Note_on_c, 0, 76, 75
1, 25618, Note_on_c, 0, 76, 0
1, 25629, Note_on_c, 1, 59, 0
1, 25629, Note_on_c, 1, 56, 0
1, 25632, Note_on_c, 0, 83, 64
1, 25656, Note_on_c, 0, 83, 0
1, 25656, Note_on_c, 0, 81, 64
1, 25666, Note_on_c, 0, 81, 0
1, 25680, Note_on_c, 0, 81, 64
1, 25680, Note_on_c, 1, 64, 64
1, 25680, Note_on_c, 1, 52, 64
1, 25704, Note_on_c, 0, 81, 0
1, 25704, Note_on_c, 0, 80, 64
1, 25714, Note_on_c, 0, 80, 0
1, 25725, Note_on_c, 1, 64, 0
1, 25725, Note_on_c, 1, 52, 0
1, 25728, Note_on_c, 0, 80, 64
1, 25728, Note_on_c, 1, 61, 64
1, 25728, Note_on_c, 1, 57, 64
1, 25752, Note_on_c, 0, 80, 0
1, 25752, Note_on_c, 0, 78, 64
1, 25762, Note_on_c, 0, 78, 0
1, 25776, Note_on_c, 0, 78, 64
1, 25776, Note_on_c, 1, 61, 0
1, 25776, Note_on_c, 1, 57, 0
1, 25776, Note_on_c, 1, 59, 64
1, 25776, Note_on_c, 1, 56, 64
1, 25800, Note_on_c, 0, 78, 0
1, 25800, Note_on_c, 0, 76, 64
1, 25810, Note_on_c, 0, 76, 0
1, 25821, Note_on_c, 1, 59, 0
1, 25821, Note_on_c, 1, 56, 0
1, 25824, Note_on_c, 0, 83, 75
1, 25848, Note_on_c, 0, 83, 0
1, 25848, Note_on_c, 0, 81, 75
1, 25858, Note_on_c, 0, 81, 0
1, 25872, Note_on_c, 0, 81, 75
1, 25872, Note_on_c, 1, 64, 75
1, 25872, Note_on_c, 1, 52, 75
1, 25896, Note_on_c, 0, 81, 0
1, 25896, Note_on_c, 0, 80, 75
1, 25906, Note_on_c, 0, 80, 0
1, 25917, Note_on_c, 1, 64, 0
1, 25917, Note_on_c, 1, 52, 0
1, 25920, Note_on_c, 0, 85, 75
1, 25920, Note_on_c, 1, 61, 75
1, 25920, Note_on_c, 1, 57, 75
1, 25944, Note_on_c, 0, 85, 0
1, 25944, Note_on_c, 0, 81, 75
1, 25954, Note_on_c, 0, 81, 0
1, 25968, Note_on_c, 0, 81, 76
1, 25992, Note_on_c, 0, 81, 0
1, 25992, Note_on_c, 0, 80, 77
1, 26002, Note_on_c, 0, 80, 0
1, 26016, Note_on_c, 0, 80, 78
1, 26040, Note_on_c, 0, 80, 0
1, 26040, Note_on_c, 0, 78, 79
1, 26050, Note_on_c, 0, 78, 0
1, 26053, Note_on_c, 1, 61, 0
1, 26053, Note_on_c, 1, 57, 0
1, 26064, Note_on_c, 0, 85, 80
1, 26064, Note_on_c, 1, 61, 80
1, 26064, Note_on_c, 1, 58, 80
1, 26088, Note_on_c, 0, 85, 0
1, 26088, Note_on_c, 0, 76, 79
1, 26098, Note_on_c, 0, 76, 0
1, 26109, Note_on_c, 1, 61, 0
1, 26109, Note_on_c, 1, 58, 0
1, 26112, Note_on_c, 0, 75, 78
1, 26112, Note_on_c, 1, 59, 78
1, 26127, Note_on_c, 0, 75, 0
1, 26128, Note_on_c, 0, 76, 77
1, 26143, Note_on_c, 0, 76, 0
1, 26144, Note_on_c, 0, 78, 77
1, 26157, Note_on_c, 1, 59, 0
1, 26159, Note_on_c, 0, 78, 0
1, 26160, Note_on_c, 0, 71, 77
1, 26160, Note_on_c, 1, 47, 76
1, 26205, Note_on_c, 0, 71, 0
1, 26205, Note_on_c, 1, 47, 0
1, 26304, Note_on_c, 0, 64, 80
1, 26304, Note_on_c, 0, 64, 96
1, 26304, Note_on_c, 1, 52, 80
1, 26304, Note_on_c, 1, 40, 80
1, 26310, Note_on_c, 0, 68, 80
1, 26316, Note_on_c, 0, 71, 80
1, 26322, Note_on_c, 0, 76, 80
1, 26376, Note_on_c, 0, 64, 0
1, 26376, Note_on_c, 0, 64, 80
1, 26386, Note_on_c, 0, 64, 0
1, 26393, Note_on_c, 1, 52, 0
1, 26393, Note_on_c, 1, 40, 0
1, 26397, Note_on_c, 0, 76, 0
1, 26397, Note_on_c, 0, 71, 0
1, 26397, Note_on_c, 0, 68, 0
1, 26397, Note_on_c, 0, 64, 0
1, 26400, Note_on_c, 0, 68, 75
1, 26400, Note_on_c, 1, 64, 75
1, 26420, Note_on_c, 0, 68, 0
1, 26445, Note_on_c, 1, 64, 0
1, 26448, Note_on_c, 0, 69, 75
1, 26448, Note_on_c, 1, 66, 75
1, 26468, Note_on_c, 0, 69, 0
1, 26493, Note_on_c, 1, 66, 0
1, 26496, Note_on_c, 0, 71, 80
1, 26496, Note_on_c, 1, 68, 75
1, 26519, Note_on_c, 0, 71, 0
1, 26520, Note_on_c, 0, 73, 80
1, 26528, Note_on_c, 0, 73, 0
1, 26528, Note_on_c, 0, 71, 80
1, 26536, Note_on_c, 0, 71, 0
1, 26536, Note_on_c, 0, 69, 80
1, 26544, Note_on_c, 0, 69, 0
1, 26544, Note_on_c, 0, 71, 80
1, 26563, Note_on_c, 1, 68, 0
1, 26567, Note_on_c, 0, 71, 0
1, 26568, Note_on_c, 0, 73, 80
1, 26568, Note_on_c, 1, 69, 75
1, 26578, Note_on_c, 0, 73, 0
1, 26591, Note_on_c, 1, 69, 0
1, 26592, Note_on_c, 0, 71, 80
1, 26592, Note_on_c, 1, 68, 75
1, 26637, Note_on_c, 0, 71, 0
1, 26637, Note_on_c, 1, 68, 0
1, 26640, Note_on_c, 0, 71, 80
1, 26640, Note_on_c, 1, 63, 75
1, 26648, Note_on_c, 0, 71, 0
1, 26648, Note_on_c, 0, 69, 80
1, 26656, Note_on_c, 0, 69, 0
1, 26656, Note_on_c, 0, 71, 80
1, 26664, Note_on_c, 0, 71, 0
1, 26664, Note_on_c, 0, 69, 80
1, 26672, Note_on_c, 0, 69, 0
1, 26672, Note_on_c, 0, 68, 80
1, 26680, Note_on_c, 0, 68, 0
1, 26680, Note_on_c, 0, 69, 80
1, 26685, Note_on_c, 1, 63, 0
1, 26688, Note_on_c, 0, 69, 0
1, 26688, Note_on_c, 0, 68, 80
1, 26688, Note_on_c, 1, 64, 75
1, 26733, Note_on_c, 0, 68, 0
1, 26733, Note_on_c, 1, 64, 0
1, 26736, Note_on_c, 0, 64, 80
1, 26736, Note_on_c, 0, 59, 80
1, 26736, Note_on_c, 1, 56, 75
1, 26736, Note_on_c, 1, 44, 75
1, 26781, Note_on_c, 0, 64, 0
1, 26781, Note_on_c, 0, 59, 0
1, 26781, Note_on_c, 1, 56, 0
1, 26781, Note_on_c, 1, 44, 0
1, 26784, Note_on_c, 0, 66, 80
1, 26784, Note_on_c, 0, 61, 80
1, 26784, Note_on_c, 1, 57, 75
1, 26784, Note_on_c, 1, 45, 75
1, 26829, Note_on_c, 0, 66, 0
1, 26829, Note_on_c, 0, 61, 0
1, 26829, Note_on_c, 1, 57, 0
1, 26829, Note_on_c, 1, 45, 0
1, 26832, Note_on_c, 0, 63, 80
1, 26832, Note_on_c, 1, 54, 75
1, 26832, Note_on_c, 1, 47, 75
1, 26877, Note_on_c, 0, 63, 0
1, 26877, Note_on_c, 1, 54, 0
1, 26877, Note_on_c, 1, 47, 0
1, 26880, Note_on_c, 0, 64, 80
1, 26880, Note_on_c, 1, 52, 75
1, 26880, Note_on_c, 1, 40, 75
1, 26895, Note_on_c, 0, 64, 0
1, 26896, Note_on_c, 0, 66, 80
1, 26911, Note_on_c, 0, 66, 0
1, 26912, Note_on_c, 0, 68, 80
1, 26927, Note_on_c, 0, 68, 0
1, 26928, Note_on_c, 0, 59, 80
1, 26969, Note_on_c, 1, 52, 0
1, 26969, Note_on_c, 1, 40, 0
1, 26973, Note_on_c, 0, 59, 0
1, 26988, Note_on_c, 0, 64, 91
1, 27000, Note_on_c, 0, 64, 0
1, 27000, Note_on_c, 0, 66, 75
1, 27012, Note_on_c, 0, 66, 0
1, 27012, Note_on_c, 0, 68, 76
1, 27024, Note_on_c, 0, 68, 0
1, 27024, Note_on_c, 0, 69, 77
1, 27036, Note_on_c, 0, 69, 0
1, 27036, Note_on_c, 0, 71, 77
1, 27048, Note_on_c, 0, 71, 0
1, 27048, Note_on_c, 0, 73, 78
1, 27060, Note_on_c, 0, 73, 0
1, 27060, Note_on_c, 0, 75, 79
1, 27072, Note_on_c, 0, 75, 0
1, 27072, Note_on_c, 0, 76, 96
1, 27072, Note_on_c, 1, 59, 96
1, 27072, Note_on_c, 1, 56, 96
1, 27072, Note_on_c, 1, 52, 96
1, 27144, Note_on_c, 0, 76, 0
1, 27144, Note_on_c, 0, 68, 80
1, 27144, Note_on_c, 1, 59, 0
1, 27144, Note_on_c, 1, 56, 0
1, 27144, Note_on_c, 1, 52, 0
1, 27144, Note_on_c, 1, 64, 80
1, 27167, Note_on_c, 0, 68, 0
1, 27167, Note_on_c, 1, 64, 0
1, 27168, Note_on_c, 0, 69, 75
1, 27168, Note_on_c, 1, 66, 75
1, 27188, Note_on_c, 0, 69, 0
1, 27213, Note_on_c, 1, 66, 0
1, 27216, Note_on_c, 0, 71, 75
1, 27216, Note_on_c, 1, 68, 75
1, 27236, Note_on_c, 0, 71, 0
1, 27261, Note_on_c, 1, 68, 0
1, 27264, Note_on_c, 0, 73, 75
1, 27264, Note_on_c, 1, 69, 75
1, 27287, Note_on_c, 0, 73, 0
1, 27288, Note_on_c, 0, 75, 75
1, 27296, Note_on_c, 0, 75, 0
1, 27296, Note_on_c, 0, 73, 75
1, 27304, Note_on_c, 0, 73, 0
1, 27304, Note_on_c, 0, 71, 75
1, 27309, Note_on_c, 1, 69, 0
1, 27312, Note_on_c, 0, 71, 0
1, 27312, Note_on_c, 0, 73, 75
1, 27312, Note_on_c, 1, 57, 75
1, 27335, Note_on_c, 0, 73, 0
1, 27336, Note_on_c, 0, 76, 75
1, 27346, Note_on_c, 0, 76, 0
1, 27357, Note_on_c, 1, 57, 0
1, 27360, Note_on_c, 0, 71, 75
1, 27360, Note_on_c, 1, 68, 75
1, 27405, Note_on_c, 0, 71, 0
1, 27405, Note_on_c, 1, 68, 0
1, 27408, Note_on_c, 0, 68, 75
1, 27408, Note_on_c, 1, 64, 75
1, 27453, Note_on_c, 0, 68, 0
1, 27453, Note_on_c, 1, 64, 0
1, 27456, Note_on_c, 1, 51, 70
1, 27480, Note_on_c, 0, 81, 70
1, 27501, Note_on_c, 1, 51, 0
1, 27504, Note_on_c, 1, 59, 70
1, 27525, Note_on_c, 0, 81, 0
1, 27528, Note_on_c, 0, 78, 70
1, 27549, Note_on_c, 1, 59, 0
1, 27552, Note_on_c, 1, 52, 70
1, 27573, Note_on_c, 0, 78, 0
1, 27576, Note_on_c, 0, 80, 70
1, 27597, Note_on_c, 1, 52, 0
1, 27600, Note_on_c, 1, 59, 70
1, 27621, Note_on_c, 0, 80, 0
1, 27624, Note_on_c, 0, 76, 70
1, 27645, Note_on_c, 1, 59, 0
1, 27647, Note_on_c, 0, 76, 0
1, 27648, Note_on_c, 1, 54, 70
1, 27672, Note_on_c, 0, 75, 70
1, 27693, Note_on_c, 1, 54, 0
1, 27696, Note_on_c, 1, 59, 70
1, 27717, Note_on_c, 0, 75, 0
1, 27720, Note_on_c, 0, 78, 70
1, 27741, Note_on_c, 1, 59, 0
1, 27744, Note_on_c, 1, 56, 70
1, 27765, Note_on_c, 0, 78, 0
1, 27768, Note_on_c, 0, 76, 70
1, 27789, Note_on_c, 1, 56, 0
1, 27792, Note_on_c, 1, 59, 70
1, 27813, Note_on_c, 0, 76, 0
1, 27816, Note_on_c, 0, 71, 70
1, 27837, Note_on_c, 1, 59, 0
1, 27839, Note_on_c, 0, 71, 0
1, 27840, Note_on_c, 1, 57, 70
1, 27864, Note_on_c, 0, 73, 70
1, 27885, Note_on_c, 1, 57, 0
1, 27888, Note_on_c, 1, 64, 70
1, 27909, Note_on_c, 0, 73, 0
1, 27912, Note_on_c, 0, 75, 70
1, 27933, Note_on_c, 1, 64, 0
1, 27936, Note_on_c, 1, 56, 70
1, 27957, Note_on_c, 0, 75, 0
1, 27960, Note_on_c, 0, 76, 70
1, 27981, Note_on_c, 1, 56, 0
1, 27984, Note_on_c, 1, 64, 70
1, 28005, Note_on_c, 0, 76, 0
1, 28008, Note_on_c, 0, 71, 70
1, 28029, Note_on_c, 1, 64, 0
1, 28031, Note_on_c, 0, 71, 0
1, 28032, Note_on_c, 1, 54, 70
1, 28056, Note_on_c, 0, 69, 70
1, 28077, Note_on_c, 1, 54, 0
1, 28080, Note_on_c, 1, 63, 70
1, 28101, Note_on_c, 0, 69, 0
1, 28104, Note_on_c, 0, 66, 70
1, 28125, Note_on_c, 1, 63, 0
1, 28128, Note_on_c, 1, 64, 70
1, 28149, Note_on_c, 0, 66, 0
1, 28152, Note_on_c, 0, 68, 70
1, 28173, Note_on_c, 1, 64, 0
1, 28176, Note_on_c, 1, 52, 70
1, 28197, Note_on_c, 0, 68, 0
1, 28200, Note_on_c, 0, 64, 70
1, 28221, Note_on_c, 1, 52, 0
1, 28223, Note_on_c, 0, 64, 0
1, 28224, Note_on_c, 1, 57, 75
1, 28224, Note_on_c, 1, 45, 75
1, 28248, Note_on_c, 0, 66, 75
1, 28271, Note_on_c, 0, 66, 0
1, 28272, Note_on_c, 0, 65, 75
1, 28295, Note_on_c, 0, 65, 0
1, 28296, Note_on_c, 0, 66, 75
1, 28313, Note_on_c, 1, 57, 0
1, 28313, Note_on_c, 1, 45, 0
1, 28319, Note_on_c, 0, 66, 0
1, 28320, Note_on_c, 0, 73, 75
1, 28320, Note_on_c, 1, 54, 75
1, 28335, Note_on_c, 0, 73, 0
1, 28336, Note_on_c, 0, 71, 75
1, 28351, Note_on_c, 0, 71, 0
1, 28352, Note_on_c, 0, 69, 76
1, 28365, Note_on_c, 1, 54, 0
1, 28367, Note_on_c, 0, 69, 0
1, 28368, Note_on_c, 0, 68, 77
1, 28368, Note_on_c, 1, 58, 77
1, 28383, Note_on_c, 0, 68, 0
1, 28384, Note_on_c, 0, 66, 78
1, 28399, Note_on_c, 0, 66, 0
1, 28400, Note_on_c, 0, 64, 78
1, 28413, Note_on_c, 1, 58, 0
1, 28415, Note_on_c, 0, 64, 0
1, 28416, Note_on_c, 0, 63, 79
1, 28416, Note_on_c, 1, 59, 80
1, 28431, Note_on_c, 0, 63, 0
1, 28432, Note_on_c, 0, 64, 79
1, 28447, Note_on_c, 0, 64, 0
1, 28448, Note_on_c, 0, 66, 79
1, 28461, Note_on_c, 1, 59, 0
1, 28463, Note_on_c, 0, 66, 0
1, 28464, Note_on_c, 0, 59, 78
1, 28464, Note_on_c, 1, 47, 77
1, 28509, Note_on_c, 0, 59, 0
1, 28509, Note_on_c, 1, 47, 0
1, 28512, Note_on_c, 1, 59, 75
1, 28536, Note_on_c, 1, 59, 0
1, 28536, Note_on_c, 1, 56, 75
1, 28546, Note_on_c, 1, 56, 0
1, 28560, Note_on_c, 1, 57, 75
1, 28584, Note_on_c, 1, 57, 0
1, 28584, Note_on_c, 1, 54, 75
1, 28594, Note_on_c, 1, 54, 0
1, 28608, Note_on_c, 0, 71, 75
1, 28608, Note_on_c, 1, 56, 75
1, 28632, Note_on_c, 0, 71, 0
1, 28632, Note_on_c, 0, 76, 75
1, 28655, Note_on_c, 0, 76, 0
1, 28656, Note_on_c, 0, 76, 75
1, 28666, Note_on_c, 0, 76, 0
1, 28680, Note_on_c, 0, 76, 75
1, 28690, Note_on_c, 0, 76, 0
1, 28704, Note_on_c, 0, 76, 75
1, 28714, Note_on_c, 0, 76, 0
1, 28728, Note_on_c, 0, 74, 75
1, 28728, Note_on_c, 1, 64, 75
1, 28738, Note_on_c, 1, 64, 0
1, 28751, Note_on_c, 0, 74, 0
1, 28752, Note_on_c, 0, 73, 75
1, 28752, Note_on_c, 1, 64, 75
1, 28762, Note_on_c, 1, 64, 0
1, 28775, Note_on_c, 0, 73, 0
1, 28776, Note_on_c, 0, 71, 75
1, 28776, Note_on_c, 1, 64, 75
1, 28785, Note_on_c, 1, 56, 0
1, 28786, Note_on_c, 1, 64, 0
1, 28799, Note_on_c, 0, 71, 0
1, 28800, Note_on_c, 0, 73, 75
1, 28800, Note_on_c, 1, 64, 75
1, 28800, Note_on_c, 1, 57, 75
1, 28824, Note_on_c, 0, 73, 0
1, 28824, Note_on_c, 0, 76, 75
1, 28834, Note_on_c, 0, 76, 0
1, 28845, Note_on_c, 1, 57, 0
1, 28848, Note_on_c, 0, 68, 75
1, 28848, Note_on_c, 1, 59, 75
1, 28872, Note_on_c, 0, 68, 0
1, 28872, Note_on_c, 0, 71, 75
1, 28882, Note_on_c, 0, 71, 0
1, 28893, Note_on_c, 1, 59, 0
1, 28896, Note_on_c, 0, 69, 75
1, 28896, Note_on_c, 1, 61, 75
1, 28920, Note_on_c, 0, 69, 0
1, 28920, Note_on_c, 0, 73, 75
1, 28930, Note_on_c, 0, 73, 0
1, 28941, Note_on_c, 1, 61, 0
1, 28944, Note_on_c, 0, 71, 75
1, 28944, Note_on_c, 1, 56, 75
1, 28968, Note_on_c, 0, 71, 0
1, 28968, Note_on_c, 0, 74, 75
1, 28977, Note_on_c, 1, 64, 0
1, 28978, Note_on_c, 0, 74, 0
1, 28989, Note_on_c, 1, 56, 0
1, 28992, Note_on_c, 0, 73, 75
1, 28992, Note_on_c, 1, 64, 75
1, 28992, Note_on_c, 1, 57, 75
1, 29016, Note_on_c, 0, 73, 0
1, 29016, Note_on_c, 0, 76, 75
1, 29026, Note_on_c, 0, 76, 0
1, 29037, Note_on_c, 1, 57, 0
1, 29040, Note_on_c, 0, 68, 75
1, 29040, Note_on_c, 1, 59, 75
1, 29064, Note_on_c, 0, 68, 0
1, 29064, Note_on_c, 0, 71, 75
1, 29074, Note_on_c, 0, 71, 0
1, 29085, Note_on_c, 1, 59, 0
1, 29088, Note_on_c, 0, 69, 75
1, 29088, Note_on_c, 1, 61, 75
1, 29112, Note_on_c, 0, 69, 0
1, 29112, Note_on_c, 0, 73, 75
1, 29122, Note_on_c, 0, 73, 0
1, 29133, Note_on_c, 1, 61, 0
1, 29136, Note_on_c, 0, 71, 75
1, 29136, Note_on_c, 1, 56, 75
1, 29160, Note_on_c, 0, 71, 0
1, 29160, Note_on_c, 0, 74, 75
1, 29169, Note_on_c, 1, 64, 0
1, 29170, Note_on_c, 0, 74, 0
1, 29181, Note_on_c, 1, 56, 0
1, 29184, Note_on_c, 0, 73, 75
1, 29184, Note_on_c, 1, 57, 75
1, 29208, Note_on_c, 0, 73, 0
1, 29208, Note_on_c, 0, 78, 76
1, 29231, Note_on_c, 0, 78, 0
1, 29232, Note_on_c, 0, 78, 77
1, 29242, Note_on_c, 0, 78, 0
1, 29256, Note_on_c, 0, 78, 78
1, 29266, Note_on_c, 0, 78, 0
1, 29280, Note_on_c, 0, 78, 80
1, 29280, Note_on_c, 1, 57, 0
1, 29280, Note_on_c, 1, 58, 80
1, 29290, Note_on_c, 0, 78, 0
1, 29304, Note_on_c, 0, 76, 80
1, 29304, Note_on_c, 1, 66, 80
1, 29314, Note_on_c, 1, 66, 0
1, 29327, Note_on_c, 0, 76, 0
1, 29328, Note_on_c, 0, 75, 80
1, 29328, Note_on_c, 1, 66, 80
1, 29338, Note_on_c, 1, 66, 0
1, 29351, Note_on_c, 0, 75, 0
1, 29352, Note_on_c, 0, 73, 80
1, 29352, Note_on_c, 1, 66, 80
1, 29362, Note_on_c, 1, 66, 0
1, 29369, Note_on_c, 1, 58, 0
1, 29375, Note_on_c, 0, 73, 0
1, 29376, Note_on_c, 0, 75, 80
1, 29376, Note_on_c, 1, 66, 80
1, 29376, Note_on_c, 1, 59, 80
1, 29400, Note_on_c, 0, 75, 0
1, 29400, Note_on_c, 0, 78, 80
1, 29410, Note_on_c, 0, 78, 0
1, 29421, Note_on_c, 1, 59, 0
1, 29424, Note_on_c, 0, 70, 80
1, 29424, Note_on_c, 1, 61, 80
1, 29448, Note_on_c, 0, 70, 0
1, 29448, Note_on_c, 0, 73, 80
1, 29458, Note_on_c, 0, 73, 0
1, 29469, Note_on_c, 1, 61, 0
1, 29472, Note_on_c, 0, 71, 80
1, 29472, Note_on_c, 1, 63, 80
1, 29496, Note_on_c, 0, 71, 0
1, 29496, Note_on_c, 0, 75, 80
1, 29506, Note_on_c, 0, 75, 0
1, 29517, Note_on_c, 1, 63, 0
1, 29520, Note_on_c, 0, 73, 80
1, 29520, Note_on_c, 1, 58, 80
1, 29544, Note_on_c, 0, 73, 0
1, 29544, Note_on_c, 0, 76, 80
1, 29553, Note_on_c, 1, 66, 0
1, 29554, Note_on_c, 0, 76, 0
1, 29565, Note_on_c, 1, 58, 0
1, 29568, Note_on_c, 0, 75, 80
1, 29568, Note_on_c, 1, 66, 80
1, 29568, Note_on_c, 1, 59, 80
1, 29592, Note_on_c, 0, 75, 0
1, 29592, Note_on_c, 0, 78, 80
1, 29602, Note_on_c, 0, 78, 0
1, 29613, Note_on_c, 1, 59, 0
1, 29616, Note_on_c, 0, 70, 80
1, 29616, Note_on_c, 1, 61, 80
1, 29640, Note_on_c, 0, 70, 0
1, 29640, Note_on_c, 0, 73, 80
1, 29650, Note_on_c, 0, 73, 0
1, 29661, Note_on_c, 1, 61, 0
1, 29664, Note_on_c, 0, 71, 80
1, 29664, Note_on_c, 1, 63, 80
1, 29688, Note_on_c, 0, 71, 0
1, 29688, Note_on_c, 0, 75, 80
1, 29698, Note_on_c, 0, 75, 0
1, 29709, Note_on_c, 1, 63, 0
1, 29712, Note_on_c, 0, 73, 80
1, 29712, Note_on_c, 1, 58, 80
1, 29736, Note_on_c, 0, 73, 0
1, 29736, Note_on_c, 0, 76, 80
1, 29745, Note_on_c, 1, 66, 0
1, 29746, Note_on_c, 0, 76, 0
1, 29757, Note_on_c, 1, 58, 0
1, 29760, Note_on_c, 0, 75, 80
1, 29760, Note_on_c, 1, 59, 80
1, 29784, Note_on_c, 0, 75, 0
1, 29784, Note_on_c, 0, 78, 80
1, 29794, Note_on_c, 0, 78, 0
1, 29805, Note_on_c, 1, 59, 0
1, 29808, Note_on_c, 0, 76, 81
1, 29808, Note_on_c, 1, 61, 81
1, 29832, Note_on_c, 0, 76, 0
1, 29832, Note_on_c, 0, 80, 82
1, 29842, Note_on_c, 0, 80, 0
1, 29853, Note_on_c, 1, 61, 0
1, 29856, Note_on_c, 0, 78, 83
1, 29856, Note_on_c, 1, 63, 83
1, 29880, Note_on_c, 0, 78, 0
1, 29880, Note_on_c, 0, 81, 83
1, 29890, Note_on_c, 0, 81, 0
1, 29901, Note_on_c, 1, 63, 0
1, 29904, Note_on_c, 0, 80, 84
1, 29904, Note_on_c, 1, 64, 84
1, 29928, Note_on_c, 0, 80, 0
1, 29928, Note_on_c, 0, 83, 85
1, 29938, Note_on_c, 0, 83, 0
1, 29949, Note_on_c, 1, 64, 0
1, 29952, Note_on_c, 0, 83, 86
1, 29952, Note_on_c, 1, 66, 86
1, 29952, Note_on_c, 1, 54, 86
1, 29976, Note_on_c, 0, 83, 0
1, 29976, Note_on_c, 0, 81, 85
1, 29986, Note_on_c, 0, 81, 0
1, 29997, Note_on_c, 1, 66, 0
1, 29997, Note_on_c, 1, 54, 0
1, 30000, Note_on_c, 0, 81, 84
1, 30000, Note_on_c, 1, 64, 84
1, 30000, Note_on_c, 1, 52, 84
1, 30024, Note_on_c, 0, 81, 0
1, 30024, Note_on_c, 0, 80, 84
1, 30034, Note_on_c, 0, 80, 0
1, 30045, Note_on_c, 1, 64, 0
1, 30045, Note_on_c, 1, 52, 0
1, 30048, Note_on_c, 0, 80, 83
1, 30048, Note_on_c, 1, 63, 83
1, 30048, Note_on_c, 1, 51, 83
1, 30072, Note_on_c, 0, 80, 0
1, 30072, Note_on_c, 0, 78, 82
1, 30082, Note_on_c, 0, 78, 0
1, 30093, Note_on_c, 1, 63, 0
1, 30093, Note_on_c, 1, 51, 0
1, 30096, Note_on_c, 0, 78, 82
1, 30096, Note_on_c, 1, 61, 82
1, 30096, Note_on_c, 1, 49, 82
1, 30120, Note_on_c, 0, 78, 0
1, 30120, Note_on_c, 0, 76, 81
1, 30130, Note_on_c, 0, 76, 0
1, 30141, Note_on_c, 1, 61, 0
1, 30141, Note_on_c, 1, 49, 0
1, 30144, Note_on_c, 0, 76, 80
1, 30144, Note_on_c, 1, 59, 80
1, 30144, Note_on_c, 1, 47, 80
1, 30168, Note_on_c, 0, 76, 0
1, 30168, Note_on_c, 0, 75, 80
1, 30178, Note_on_c, 0, 75, 0
1, 30189, Note_on_c, 1, 59, 0
1, 30189, Note_on_c, 1, 47, 0
1, 30192, Note_on_c, 0, 75, 79
1, 30192, Note_on_c, 1, 57, 79
1, 30192, Note_on_c, 1, 45, 79
1, 30216, Note_on_c, 0, 75, 0
1, 30216, Note_on_c, 0, 73, 78
1, 30226, Note_on_c, 0, 73, 0
1, 30237, Note_on_c, 1, 57, 0
1, 30237, Note_on_c, 1, 45, 0
1, 30240, Note_on_c, 0, 73, 78
1, 30240, Note_on_c, 1, 56, 78
1, 30240, Note_on_c, 1, 44, 78
1, 30264, Note_on_c, 0, 73, 0
1, 30264, Note_on_c, 0, 71, 77
1, 30274, Note_on_c, 0, 71, 0
1, 30285, Note_on_c, 1, 56, 0
1, 30285, Note_on_c, 1, 44, 0
1, 30288, Note_on_c, 0, 71, 76
1, 30288, Note_on_c, 1, 54, 76
1, 30288, Note_on_c, 1, 42, 76
1, 30312, Note_on_c, 0, 71, 0
1, 30312, Note_on_c, 0, 69, 76
1, 30322, Note_on_c, 0, 69, 0
1, 30333, Note_on_c, 1, 54, 0
1, 30333, Note_on_c, 1, 42, 0
1, 30336, Note_on_c, 0, 68, 75
1, 30336, Note_on_c, 1, 52, 75
1, 30336, Note_on_c, 1, 40, 75
1, 30351, Note_on_c, 0, 68, 0
1, 30352, Note_on_c, 0, 69, 75
1, 30367, Note_on_c, 0, 69, 0
1, 30368, Note_on_c, 0, 71, 74
1, 30383, Note_on_c, 0, 71, 0
1, 30384, Note_on_c, 0, 64, 74
1, 30399, Note_on_c, 0, 64, 0
1, 30400, Note_on_c, 0, 69, 74
1, 30415, Note_on_c, 0, 69, 0
1, 30416, Note_on_c, 0, 66, 73
1, 30425, Note_on_c, 1, 52, 0
1, 30425, Note_on_c, 1, 40, 0
1, 30431, Note_on_c, 0, 66, 0
1, 30432, Note_on_c, 0, 68, 73
1, 30432, Note_on_c, 1, 59, 72
1, 30442, Note_on_c, 0, 68, 0
1, 30442, Note_on_c, 0, 66, 73
1, 30452, Note_on_c, 0, 66, 0
1, 30452, Note_on_c, 0, 68, 73
1, 30462, Note_on_c, 0, 68, 0
1, 30462, Note_on_c, 0, 66, 72
1, 30472, Note_on_c, 0, 66, 0
1, 30472, Note_on_c, 0, 68, 72
1, 30477, Note_on_c, 1, 59, 0
1, 30480, Note_on_c, 1, 47, 71
1, 30482, Note_on_c, 0, 68, 0
1, 30482, Note_on_c, 0, 66, 72
1, 30492, Note_on_c, 0, 66, 0
1, 30492, Note_on_c, 0, 68, 72
1, 30501, Note_on_c, 0, 68, 0
1, 30501, Note_on_c, 0, 66, 72
1, 30510, Note_on_c, 0, 66, 0
1, 30510, Note_on_c, 0, 64, 72
1, 30519, Note_on_c, 0, 64, 0
1, 30519, Note_on_c, 0, 66, 71
1, 30525, Note_on_c, 1, 47, 0
1, 30528, Note_on_c, 0, 66, 0
1, 30528, Note_on_c, 0, 64, 70
1, 30528, Note_on_c, 1, 52, 70
1, 30573, Note_on_c, 1, 52, 0
1, 30576, Note_on_c, 1, 40, 70
1, 30606, Note_on_c, 0, 64, 0
1, 30612, Note_on_c, 0, 71, 75
1, 30617, Note_on_c, 0, 71, 0
1, 30621, Note_on_c, 1, 40, 0
1, 30624, Note_on_c, 0, 64, 91
1, 30672, Note_on_c, 0, 64, 0
1, 30672, Note_on_c, 0, 66, 75
1, 30717, Note_on_c, 0, 66, 0
1, 30720, Note_on_c, 0, 68, 75
1, 30720, Note_on_c, 0, 64, 75
1, 30720, Note_on_c, 1, 47, 75
1, 30720, Note_on_c, 1, 35, 75
1, 30768, Note_on_c, 0, 68, 0
1, 30768, Note_on_c, 0, 66, 75
1, 30768, Note_on_c, 0, 64, 0
1, 30768, Note_on_c, 0, 63, 75
1, 30802, Note_on_c, 0, 66, 0
1, 30804, Note_on_c, 0, 71, 75
1, 30809, Note_on_c, 0, 71, 0
1, 30809, Note_on_c, 1, 47, 0
1, 30809, Note_on_c, 1, 35, 0
1, 30813, Note_on_c, 0, 63, 0
1, 30816, Note_on_c, 0, 66, 91
1, 30816, Note_on_c, 0, 63, 75
1, 30864, Note_on_c, 0, 66, 0
1, 30864, Note_on_c, 0, 68, 75
1, 30864, Note_on_c, 0, 63, 0
1, 30864, Note_on_c, 0, 64, 75
1, 30909, Note_on_c, 0, 68, 0
1, 30909, Note_on_c, 0, 64, 0
1, 30912, Note_on_c, 0, 69, 75
1, 30912, Note_on_c, 0, 66, 75
1, 30912, Note_on_c, 1, 47, 75
1, 30912, Note_on_c, 1, 35, 75
1, 30957, Note_on_c, 1, 47, 0
1, 30957, Note_on_c, 1, 35, 0
1, 30960, Note_on_c, 0, 69, 0
1, 30960, Note_on_c, 0, 68, 75
1, 30960, Note_on_c, 0, 66, 0
1, 30960, Note_on_c, 0, 64, 75
1, 30960, Note_on_c, 1, 52, 75
1, 30960, Note_on_c, 1, 40, 75
1, 30994, Note_on_c, 0, 68, 0
1, 30996, Note_on_c, 0, 71, 75
1, 31001, Note_on_c, 0, 71, 0
1, 31005, Note_on_c, 0, 64, 0
1, 31005, Note_on_c, 1, 52, 0
1, 31005, Note_on_c, 1, 40, 0
1, 31008, Note_on_c, 0, 68, 91
1, 31008, Note_on_c, 0, 64, 75
1, 31056, Note_on_c, 0, 68, 0
1, 31056, Note_on_c, 0, 69, 75
1, 31056, Note_on_c, 0, 64, 0
1, 31056, Note_on_c, 0, 66, 75
1, 31101, Note_on_c, 0, 69, 0
1, 31101, Note_on_c, 0, 66, 0
1, 31104, Note_on_c, 0, 71, 75
1, 31104, Note_on_c, 0, 68, 75
1, 31104, Note_on_c, 1, 52, 75
1, 31104, Note_on_c, 1, 40, 75
1, 31149, Note_on_c, 0, 71, 0
1, 31149, Note_on_c, 0, 68, 0
1, 31152, Note_on_c, 0, 76, 91
1, 31152, Note_on_c, 0, 71, 91
1, 31152, Note_on_c, 0, 68, 91
1, 31193, Note_on_c, 1, 52, 0
1, 31193, Note_on_c, 1, 40, 0
1, 31200, Note_on_c, 0, 76, 0
1, 31200, Note_on_c, 0, 71, 0
1, 31200, Note_on_c, 0, 68, 0
1, 31200, Note_on_c, 1, 56, 75
1, 31200, Note_on_c, 1, 44, 75
1, 31248, Note_on_c, 0, 71, 75
1, 31248, Note_on_c, 0, 68, 75
1, 31248, Note_on_c, 0, 64, 75
1, 31289, Note_on_c, 1, 56, 0
1, 31289, Note_on_c, 1, 44, 0
1, 31293, Note_on_c, 0, 71, 0
1, 31293, Note_on_c, 0, 68, 0
1, 31293, Note_on_c, 0, 64, 0
1, 31296, Note_on_c, 1, 57, 75
1, 31296, Note_on_c, 1, 45, 75
1, 31320, Note_on_c, 0, 73, 70
1, 31341, Note_on_c, 1, 57, 0
1, 31341, Note_on_c, 1, 45, 0
1, 31344, Note_on_c, 1, 61, 70
1, 31365, Note_on_c, 0, 73, 0
1, 31368, Note_on_c, 0, 69, 70
1, 31389, Note_on_c, 1, 61, 0
1, 31392, Note_on_c, 1, 59, 70
1, 31413, Note_on_c, 0, 69, 0
1, 31416, Note_on_c, 0, 68, 70
1, 31437, Note_on_c, 1, 59, 0
1, 31440, Note_on_c, 1, 63, 70
1, 31461, Note_on_c, 0, 68, 0
1, 31464, Note_on_c, 0, 66, 70
1, 31485, Note_on_c, 1, 63, 0
1, 31487, Note_on_c, 0, 66, 0
1, 31488, Note_on_c, 0, 68, 75
1, 31488, Note_on_c, 1, 64, 75
1, 31533, Note_on_c, 0, 68, 0
1, 31536, Note_on_c, 0, 76, 91
1, 31536, Note_on_c, 0, 71, 91
1, 31536, Note_on_c, 0, 68, 91
1, 31577, Note_on_c, 1, 64, 0
1, 31584, Note_on_c, 0, 76, 0
1, 31584, Note_on_c, 0, 71, 0
1, 31584, Note_on_c, 0, 68, 0
1, 31584, Note_on_c, 1, 64, 75
1, 31584, Note_on_c, 1, 56, 75
1, 31632, Note_on_c, 0, 83, 75
1, 31632, Note_on_c, 0, 80, 75
1, 31632, Note_on_c, 0, 76, 75
1, 31673, Note_on_c, 1, 64, 0
1, 31673, Note_on_c, 1, 56, 0
1, 31677, Note_on_c, 0, 83, 0
1, 31677, Note_on_c, 0, 80, 0
1, 31677, Note_on_c, 0, 76, 0
1, 31680, Note_on_c, 0, 81, 75
1, 31680, Note_on_c, 1, 63, 75
1, 31680, Note_on_c, 1, 54, 75
1, 31695, Note_on_c, 0, 81, 0
1, 31696, Note_on_c, 0, 80, 75
1, 31711, Note_on_c, 0, 80, 0
1, 31712, Note_on_c, 0, 78, 75
1, 31725, Note_on_c, 1, 63, 0
1, 31725, Note_on_c, 1, 54, 0
1, 31727, Note_on_c, 0, 78, 0
1, 31728, Note_on_c, 0, 80, 75
1, 31728, Note_on_c, 1, 64, 75
1, 31728, Note_on_c, 1, 52, 75
1, 31743, Note_on_c, 0, 80, 0
1, 31744, Note_on_c, 0, 78, 75
1, 31759, Note_on_c, 0, 78, 0
1, 31760, Note_on_c, 0, 76, 75
1, 31773, Note_on_c, 1, 64, 0
1, 31773, Note_on_c, 1, 52, 0
1, 31775, Note_on_c, 0, 76, 0
1, 31776, Note_on_c, 0, 80, 75
1, 31776, Note_on_c, 1, 64, 75
1, 31776, Note_on_c, 1, 57, 75
1, 31786, Note_on_c, 0, 80, 0
1, 31786, Note_on_c, 0, 78, 75
1, 31796, Note_on_c, 0, 78, 0
1, 31796, Note_on_c, 0, 80, 75
1, 31806, Note_on_c, 0, 80, 0
1, 31806, Note_on_c, 0, 78, 75
1, 31816, Note_on_c, 0, 78, 0
1, 31816, Note_on_c, 0, 80, 75
1, 31821, Note_on_c, 1, 64, 0
1, 31821, Note_on_c, 1, 57, 0
1, 31824, Note_on_c, 1, 63, 75
1, 31824, Note_on_c, 1, 59, 75
1, 31826, Note_on_c, 0, 80, 0
1, 31826, Note_on_c, 0, 78, 75
1, 31836, Note_on_c, 0, 78, 0
1, 31836, Note_on_c, 0, 80, 75
1, 31845, Note_on_c, 0, 80, 0
1, 31845, Note_on_c, 0, 78, 75
1, 31854, Note_on_c, 0, 78, 0
1, 31854, Note_on_c, 0, 76, 75
1, 31863, Note_on_c, 0, 76, 0
1, 31863, Note_on_c, 0, 78, 75
1, 31869, Note_on_c, 1, 63, 0
1, 31869, Note_on_c, 1, 59, 0
1, 31872, Note_on_c, 0, 78, 0
1, 31872, Note_on_c, 0, 80, 75
1, 31872, Note_on_c, 1, 64, 75
1, 31872, Note_on_c, 1, 52, 80
1, 31887, Note_on_c, 0, 80, 0
1, 31888, Note_on_c, 0, 78, 75
1, 31903, Note_on_c, 0, 78, 0
1, 31904, Note_on_c, 0, 76, 75
1, 31919, Note_on_c, 0, 76, 0
1, 31920, Note_on_c, 0, 75, 75
1, 31935, Note_on_c, 0, 75, 0
1, 31936, Note_on_c, 0, 73, 75
1, 31951, Note_on_c, 0, 73, 0
1, 31952, Note_on_c, 0, 71, 75
1, 31961, Note_on_c, 1, 64, 0
1, 31961, Note_on_c, 1, 52, 0
1, 31967, Note_on_c, 0, 71, 0
1, 31968, Note_on_c, 0, 80, 75
1, 31968, Note_on_c, 1, 64, 75
1, 31968, Note_on_c, 1, 59, 80
1, 31978, Note_on_c, 0, 80, 0
1, 31978, Note_on_c, 0, 78, 75
1, 31988, Note_on_c, 0, 78, 0
1, 31988, Note_on_c, 0, 80, 75
1, 31998, Note_on_c, 0, 80, 0
1, 31998, Note_on_c, 0, 78, 75
1, 32008, Note_on_c, 0, 78, 0
1, 32008, Note_on_c, 0, 80, 75
1, 32013, Note_on_c, 1, 64, 0
1, 32016, Note_on_c, 1, 63, 75
1, 32018, Note_on_c, 0, 80, 0
1, 32018, Note_on_c, 0, 78, 75
1, 32028, Note_on_c, 0, 78, 0
1, 32028, Note_on_c, 0, 80, 75
1, 32037, Note_on_c, 0, 80, 0
1, 32037, Note_on_c, 0, 78, 75
1, 32046, Note_on_c, 0, 78, 0
1, 32046, Note_on_c, 0, 76, 75
1, 32055, Note_on_c, 0, 76, 0
1, 32055, Note_on_c, 0, 78, 75
1, 32057, Note_on_c, 1, 59, 0
1, 32061, Note_on_c, 1, 63, 0
1, 32064, Note_on_c, 0, 78, 0
1, 32064, Note_on_c, 0, 76, 75
1, 32064, Note_on_c, 1, 64, 75
1, 32109, Note_on_c, 1, 64, 0
1, 32112, Note_on_c, 1, 52, 75
1, 32153, Note_on_c, 0, 76, 0
1, 32157, Note_on_c, 1, 52, 0
1, 32256, Note_on_c, 1, 52, 0
1, 32345, Note_on_c, 1, 52, 0
1, 32355, End_track
0, 0, End_of_file