0, 0, Header, 0, 1, 96
1, 0, Start_track
1, 0, Tempo, 413793
1, 0, Note_on_c, 0, 74, 82
1, 0, Note_on_c, 1, 58, 82
1, 0, Note_on_c, 1, 53, 82
1, 0, Note_on_c, 1, 50, 82
1, 0, Note_on_c, 1, 46, 82
1, 18, Note_on_c, 0, 74, 0
1, 18, Note_on_c, 0, 77, 82
1, 36, Note_on_c, 0, 77, 0
1, 36, Note_on_c, 0, 82, 98
1, 163, Note_on_c, 0, 82, 0
1, 168, Note_on_c, 0, 81, 80
1, 177, Note_on_c, 1, 58, 0
1, 177, Note_on_c, 1, 53, 0
1, 177, Note_on_c, 1, 50, 0
1, 177, Note_on_c, 1, 46, 0
1, 192, Note_on_c, 0, 81, 0
1, 192, Note_on_c, 0, 79, 80
1, 212, Note_on_c, 0, 79, 0
1, 264, Note_on_c, 0, 77, 79
1, 288, Note_on_c, 0, 77, 0
1, 288, Note_on_c, 0, 75, 78
1, 308, Note_on_c, 0, 75, 0
1, 360, Note_on_c, 0, 74, 77
1, 383, Note_on_c, 0, 74, 0
1, 384, Note_on_c, 0, 72, 77
1, 480, Note_on_c, 1, 70, 75
1, 480, Note_on_c, 1, 66, 75
1, 517, Note_on_c, 0, 72, 0
1, 528, Note_on_c, 0, 72, 75
1, 551, Note_on_c, 0, 72, 0
1, 552, Note_on_c, 0, 74, 75
1, 575, Note_on_c, 0, 74, 0
1, 576, Note_on_c, 0, 75, 75
1, 576, Note_on_c, 1, 70, 0
1, 576, Note_on_c, 1, 66, 0
1, 576, Note_on_c, 1, 69, 70
1, 576, Note_on_c, 1, 65, 70
1, 643, Note_on_c, 0, 75, 0
1, 648, Note_on_c, 0, 74, 77
1, 660, Note_on_c, 0, 74, 0
1, 660, Note_on_c, 0, 75, 78
1, 665, Note_on_c, 1, 69, 0
1, 665, Note_on_c, 1, 65, 0
1, 672, Note_on_c, 0, 75, 0
1, 672, Note_on_c, 0, 77, 78
1, 739, Note_on_c, 0, 77, 0
1, 744, Note_on_c, 0, 75, 81
1, 756, Note_on_c, 0, 75, 0
1, 756, Note_on_c, 0, 77, 81
1, 768, Note_on_c, 0, 77, 0
1, 768, Note_on_c, 0, 79, 82
1, 909, Note_on_c, 0, 79, 0
1, 936, Note_on_c, 0, 77, 78
1, 960, Note_on_c, 0, 77, 0
1, 960, Note_on_c, 0, 75, 78
1, 980, Note_on_c, 0, 75, 0
1, 1032, Note_on_c, 0, 74, 77
1, 1056, Note_on_c, 0, 74, 0
1, 1056, Note_on_c, 0, 72, 76
1, 1076, Note_on_c, 0, 72, 0
1, 1128, Note_on_c, 0, 70, 75
1, 1151, Note_on_c, 0, 70, 0
1, 1152, Note_on_c, 0, 69, 75
1, 1191, Note_on_c, 0, 69, 0
1, 1248, Note_on_c, 0, 75, 108
1, 1248, Note_on_c, 1, 60, 66
1, 1248, Note_on_c, 1, 54, 64
1, 1344, Note_on_c, 1, 54, 0
1, 1344, Note_on_c, 1, 55, 64
1, 1440, Note_on_c, 0, 75, 0
1, 1440, Note_on_c, 0, 74, 75
1, 1440, Note_on_c, 1, 60, 0
1, 1440, Note_on_c, 1, 58, 66
1, 1521, Note_on_c, 1, 55, 0
1, 1529, Note_on_c, 0, 74, 0
1, 1529, Note_on_c, 1, 58, 0
1, 1536, Note_on_c, 0, 72, 75
1, 1575, Note_on_c, 0, 72, 0
1, 1632, Note_on_c, 0, 79, 108
1, 1632, Note_on_c, 1, 69, 64
1, 1632, Note_on_c, 1, 63, 64
1, 1728, Note_on_c, 1, 69, 0
1, 1728, Note_on_c, 1, 63, 0
1, 1728, Note_on_c, 1, 70, 64
1, 1728, Note_on_c, 1, 62, 64
1, 1824, Note_on_c, 0, 79, 0
1, 1824, Note_on_c, 0, 77, 75
1, 1905, Note_on_c, 1, 70, 0
1, 1905, Note_on_c, 1, 62, 0
1, 1913, Note_on_c, 0, 77, 0
1, 1920, Note_on_c, 0, 87, 98
1, 1920, Note_on_c, 1, 65, 82
1, 1920, Note_on_c, 1, 63, 82
1, 1920, Note_on_c, 1, 60, 82
1, 1920, Note_on_c, 1, 57, 82
1, 1944, Note_on_c, 0, 87, 0
1, 1944, Note_on_c, 0, 89, 82
1, 1967, Note_on_c, 0, 89, 0
1, 1968, Note_on_c, 0, 87, 82
1, 1991, Note_on_c, 0, 87, 0
1, 1992, Note_on_c, 0, 86, 82
1, 2015, Note_on_c, 0, 86, 0
1, 2016, Note_on_c, 0, 84, 82
1, 2039, Note_on_c, 0, 84, 0
1, 2040, Note_on_c, 0, 86, 82
1, 2063, Note_on_c, 0, 86, 0
1, 2064, Note_on_c, 0, 84, 82
1, 2087, Note_on_c, 0, 84, 0
1, 2088, Note_on_c, 0, 82, 82
1, 2111, Note_on_c, 0, 82, 0
1, 2112, Note_on_c, 0, 81, 82
1, 2135, Note_on_c, 0, 81, 0
1, 2136, Note_on_c, 0, 82, 82
1, 2159, Note_on_c, 0, 82, 0
1, 2160, Note_on_c, 0, 81, 82
1, 2183, Note_on_c, 0, 81, 0
1, 2184, Note_on_c, 0, 79, 82
1, 2207, Note_on_c, 0, 79, 0
1, 2208, Note_on_c, 0, 77, 82
1, 2231, Note_on_c, 0, 77, 0
1, 2232, Note_on_c, 0, 79, 82
1, 2255, Note_on_c, 0, 79, 0
1, 2256, Note_on_c, 0, 77, 82
1, 2274, Note_on_c, 1, 65, 0
1, 2274, Note_on_c, 1, 63, 0
1, 2274, Note_on_c, 1, 60, 0
1, 2274, Note_on_c, 1, 57, 0
1, 2279, Note_on_c, 0, 77, 0
1, 2280, Note_on_c, 0, 75, 82
1, 2303, Note_on_c, 0, 75, 0
1, 2304, Note_on_c, 0, 74, 82
1, 2304, Note_on_c, 1, 58, 75
1, 2371, Note_on_c, 0, 74, 0
1, 2376, Note_on_c, 0, 77, 80
1, 2393, Note_on_c, 1, 58, 0
1, 2399, Note_on_c, 0, 77, 0
1, 2400, Note_on_c, 0, 75, 80
1, 2400, Note_on_c, 1, 67, 75
1, 2467, Note_on_c, 0, 75, 0
1, 2472, Note_on_c, 0, 72, 78
1, 2489, Note_on_c, 1, 67, 0
1, 2495, Note_on_c, 0, 72, 0
1, 2496, Note_on_c, 0, 74, 78
1, 2496, Note_on_c, 1, 65, 75
1, 2563, Note_on_c, 0, 74, 0
1, 2568, Note_on_c, 0, 70, 77
1, 2585, Note_on_c, 1, 65, 0
1, 2591, Note_on_c, 0, 70, 0
1, 2592, Note_on_c, 0, 72, 76
1, 2592, Note_on_c, 1, 63, 75
1, 2592, Note_on_c, 1, 53, 75
1, 2659, Note_on_c, 0, 72, 0
1, 2664, Note_on_c, 0, 69, 75
1, 2681, Note_on_c, 1, 63, 0
1, 2681, Note_on_c, 1, 53, 0
1, 2687, Note_on_c, 0, 69, 0
1, 2688, Note_on_c, 0, 70, 75
1, 2688, Note_on_c, 1, 62, 75
1, 2688, Note_on_c, 1, 58, 75
1, 2821, Note_on_c, 0, 70, 0
1, 2821, Note_on_c, 1, 62, 0
1, 2821, Note_on_c, 1, 58, 0
1, 2952, Note_on_c, 0, 58, 75
1, 2975, Note_on_c, 0, 58, 0
1, 2976, Note_on_c, 0, 60, 75
1, 2982, Note_on_c, 0, 60, 0
1, 2982, Note_on_c, 0, 58, 75
1, 2999, Note_on_c, 0, 58, 0
1, 3000, Note_on_c, 0, 57, 75
1, 3023, Note_on_c, 0, 57, 0
1, 3024, Note_on_c, 0, 58, 75
1, 3047, Note_on_c, 0, 58, 0
1, 3048, Note_on_c, 0, 60, 75
1, 3071, Note_on_c, 0, 60, 0
1, 3072, Note_on_c, 0, 62, 75
1, 3072, Note_on_c, 1, 46, 64
1, 3072, Note_on_c, 1, 34, 64
1, 3139, Note_on_c, 0, 62, 0
1, 3144, Note_on_c, 0, 58, 76
1, 3167, Note_on_c, 0, 58, 0
1, 3168, Note_on_c, 0, 63, 76
1, 3235, Note_on_c, 0, 63, 0
1, 3240, Note_on_c, 0, 60, 78
1, 3249, Note_on_c, 1, 46, 0
1, 3249, Note_on_c, 1, 34, 0
1, 3263, Note_on_c, 0, 60, 0
1, 3264, Note_on_c, 0, 65, 78
1, 3331, Note_on_c, 0, 65, 0
1, 3336, Note_on_c, 0, 62, 80
1, 3359, Note_on_c, 0, 62, 0
1, 3360, Note_on_c, 0, 70, 80
1, 3389, Note_on_c, 0, 70, 0
1, 3432, Note_on_c, 0, 70, 82
1, 3432, Note_on_c, 0, 62, 82
1, 3455, Note_on_c, 0, 70, 0
1, 3455, Note_on_c, 0, 62, 0
1, 3456, Note_on_c, 0, 70, 98
1, 3456, Note_on_c, 0, 62, 98
1, 3528, Note_on_c, 1, 52, 64
1, 3551, Note_on_c, 1, 52, 0
1, 3552, Note_on_c, 1, 53, 64
1, 3619, Note_on_c, 1, 53, 0
1, 3624, Note_on_c, 1, 52, 64
1, 3647, Note_on_c, 1, 52, 0
1, 3648, Note_on_c, 0, 70, 0
1, 3648, Note_on_c, 0, 62, 0
1, 3648, Note_on_c, 0, 69, 76
1, 3648, Note_on_c, 0, 60, 76
1, 3648, Note_on_c, 1, 53, 64
1, 3693, Note_on_c, 0, 69, 0
1, 3693, Note_on_c, 0, 60, 0
1, 3720, Note_on_c, 0, 65, 75
1, 3737, Note_on_c, 1, 53, 0
1, 3743, Note_on_c, 0, 65, 0
1, 3744, Note_on_c, 0, 67, 75
1, 3750, Note_on_c, 0, 67, 0
1, 3750, Note_on_c, 0, 65, 75
1, 3767, Note_on_c, 0, 65, 0
1, 3768, Note_on_c, 0, 64, 75
1, 3791, Note_on_c, 0, 64, 0
1, 3792, Note_on_c, 0, 65, 75
1, 3815, Note_on_c, 0, 65, 0
1, 3816, Note_on_c, 0, 67, 75
1, 3839, Note_on_c, 0, 67, 0
1, 3840, Note_on_c, 0, 69, 75
1, 3840, Note_on_c, 1, 53, 75
1, 3840, Note_on_c, 1, 41, 75
1, 3907, Note_on_c, 0, 69, 0
1, 3912, Note_on_c, 0, 65, 76
1, 3935, Note_on_c, 0, 65, 0
1, 3936, Note_on_c, 0, 70, 76
1, 4003, Note_on_c, 0, 70, 0
1, 4008, Note_on_c, 0, 67, 78
1, 4017, Note_on_c, 1, 53, 0
1, 4017, Note_on_c, 1, 41, 0
1, 4031, Note_on_c, 0, 67, 0
1, 4032, Note_on_c, 0, 72, 78
1, 4099, Note_on_c, 0, 72, 0
1, 4104, Note_on_c, 0, 69, 80
1, 4127, Note_on_c, 0, 69, 0
1, 4128, Note_on_c, 0, 75, 80
1, 4157, Note_on_c, 0, 75, 0
1, 4200, Note_on_c, 0, 75, 82
1, 4200, Note_on_c, 0, 72, 82
1, 4223, Note_on_c, 0, 75, 0
1, 4223, Note_on_c, 0, 72, 0
1, 4224, Note_on_c, 0, 75, 98
1, 4224, Note_on_c, 0, 72, 98
1, 4296, Note_on_c, 1, 57, 82
1, 4319, Note_on_c, 1, 57, 0
1, 4320, Note_on_c, 1, 58, 82
1, 4387, Note_on_c, 1, 58, 0
1, 4392, Note_on_c, 1, 57, 82
1, 4415, Note_on_c, 1, 57, 0
1, 4416, Note_on_c, 0, 75, 0
1, 4416, Note_on_c, 0, 72, 0
1, 4416, Note_on_c, 0, 74, 76
1, 4416, Note_on_c, 0, 70, 76
1, 4416, Note_on_c, 1, 58, 82
1, 4461, Note_on_c, 0, 74, 0
1, 4461, Note_on_c, 0, 70, 0
1, 4488, Note_on_c, 0, 74, 75
1, 4505, Note_on_c, 1, 58, 0
1, 4511, Note_on_c, 0, 74, 0
1, 4512, Note_on_c, 0, 75, 75
1, 4518, Note_on_c, 0, 75, 0
1, 4518, Note_on_c, 0, 74, 75
1, 4535, Note_on_c, 0, 74, 0
1, 4536, Note_on_c, 0, 72, 75
1, 4559, Note_on_c, 0, 72, 0
1, 4560, Note_on_c, 0, 74, 75
1, 4583, Note_on_c, 0, 74, 0
1, 4584, Note_on_c, 0, 75, 75
1, 4607, Note_on_c, 0, 75, 0
1, 4608, Note_on_c, 0, 77, 75
1, 4608, Note_on_c, 1, 58, 82
1, 4608, Note_on_c, 1, 53, 82
1, 4608, Note_on_c, 1, 50, 82
1, 4608, Note_on_c, 1, 46, 82
1, 4675, Note_on_c, 0, 77, 0
1, 4680, Note_on_c, 0, 74, 76
1, 4703, Note_on_c, 0, 74, 0
1, 4704, Note_on_c, 0, 82, 77
1, 4771, Note_on_c, 0, 82, 0
1, 4776, Note_on_c, 0, 77, 79
1, 4785, Note_on_c, 1, 58, 0
1, 4785, Note_on_c, 1, 53, 0
1, 4785, Note_on_c, 1, 50, 0
1, 4785, Note_on_c, 1, 46, 0
1, 4799, Note_on_c, 0, 77, 0
1, 4800, Note_on_c, 0, 86, 80
1, 4867, Note_on_c, 0, 86, 0
1, 4872, Note_on_c, 0, 84, 82
1, 4896, Note_on_c, 0, 84, 0
1, 4896, Note_on_c, 0, 82, 81
1, 4896, Note_on_c, 1, 62, 82
1, 4896, Note_on_c, 1, 58, 64
1, 4916, Note_on_c, 0, 82, 0
1, 4968, Note_on_c, 0, 81, 80
1, 4985, Note_on_c, 1, 62, 0
1, 4992, Note_on_c, 0, 81, 0
1, 4992, Note_on_c, 0, 79, 80
1, 4992, Note_on_c, 1, 63, 82
1, 5012, Note_on_c, 0, 79, 0
1, 5064, Note_on_c, 0, 77, 79
1, 5081, Note_on_c, 1, 63, 0
1, 5088, Note_on_c, 0, 77, 0
1, 5088, Note_on_c, 0, 75, 79
1, 5088, Note_on_c, 1, 65, 82
1, 5108, Note_on_c, 0, 75, 0
1, 5160, Note_on_c, 0, 74, 78
1, 5177, Note_on_c, 1, 65, 0
1, 5184, Note_on_c, 0, 74, 0
1, 5184, Note_on_c, 0, 72, 77
1, 5184, Note_on_c, 1, 67, 82
1, 5204, Note_on_c, 0, 72, 0
1, 5256, Note_on_c, 0, 79, 76
1, 5273, Note_on_c, 1, 67, 0
1, 5280, Note_on_c, 0, 79, 0
1, 5280, Note_on_c, 0, 77, 76
1, 5280, Note_on_c, 1, 69, 82
1, 5300, Note_on_c, 0, 77, 0
1, 5352, Note_on_c, 0, 75, 75
1, 5369, Note_on_c, 1, 69, 0
1, 5376, Note_on_c, 0, 75, 0
1, 5376, Note_on_c, 0, 74, 75
1, 5376, Note_on_c, 1, 70, 82
1, 5396, Note_on_c, 0, 74, 0
1, 5448, Note_on_c, 0, 77, 77
1, 5465, Note_on_c, 1, 70, 0
1, 5465, Note_on_c, 1, 58, 0
1, 5472, Note_on_c, 0, 77, 0
1, 5472, Note_on_c, 0, 82, 77
1, 5492, Note_on_c, 0, 82, 0
1, 5544, Note_on_c, 0, 77, 79
1, 5568, Note_on_c, 0, 77, 0
1, 5568, Note_on_c, 0, 86, 80
1, 5588, Note_on_c, 0, 86, 0
1, 5640, Note_on_c, 0, 84, 82
1, 5664, Note_on_c, 0, 84, 0
1, 5664, Note_on_c, 0, 82, 81
1, 5664, Note_on_c, 1, 62, 82
1, 5664, Note_on_c, 1, 58, 64
1, 5684, Note_on_c, 0, 82, 0
1, 5736, Note_on_c, 0, 81, 79
1, 5753, Note_on_c, 1, 62, 0
1, 5759, Note_on_c, 0, 81, 0
1, 5760, Note_on_c, 0, 79, 78
1, 5760, Note_on_c, 1, 63, 75
1, 5780, Note_on_c, 0, 79, 0
1, 5832, Note_on_c, 0, 77, 76
1, 5849, Note_on_c, 1, 63, 0
1, 5856, Note_on_c, 0, 77, 0
1, 5856, Note_on_c, 0, 75, 75
1, 5856, Note_on_c, 1, 65, 73
1, 5876, Note_on_c, 0, 75, 0
1, 5928, Note_on_c, 0, 74, 73
1, 5945, Note_on_c, 1, 65, 0
1, 5952, Note_on_c, 0, 74, 0
1, 5952, Note_on_c, 0, 72, 72
1, 5952, Note_on_c, 1, 67, 71
1, 5972, Note_on_c, 0, 72, 0
1, 6024, Note_on_c, 0, 79, 70
1, 6041, Note_on_c, 1, 67, 0
1, 6048, Note_on_c, 0, 79, 0
1, 6048, Note_on_c, 0, 77, 70
1, 6048, Note_on_c, 1, 69, 69
1, 6068, Note_on_c, 0, 77, 0
1, 6114, Note_on_c, 1, 58, 0
1, 6120, Note_on_c, 0, 75, 68
1, 6137, Note_on_c, 1, 69, 0
1, 6144, Note_on_c, 0, 75, 0
1, 6144, Note_on_c, 0, 74, 67
1, 6144, Note_on_c, 1, 70, 67
1, 6144, Note_on_c, 1, 58, 67
1, 6164, Note_on_c, 0, 74, 0
1, 6189, Note_on_c, 1, 70, 0
1, 6189, Note_on_c, 1, 58, 0
1, 6216, Note_on_c, 0, 79, 66
1, 6240, Note_on_c, 0, 79, 0
1, 6240, Note_on_c, 0, 77, 66
1, 6240, Note_on_c, 1, 69, 66
1, 6240, Note_on_c, 1, 58, 66
1, 6260, Note_on_c, 0, 77, 0
1, 6285, Note_on_c, 1, 69, 0
1, 6285, Note_on_c, 1, 58, 0
1, 6312, Note_on_c, 0, 75, 66
1, 6336, Note_on_c, 0, 75, 0
1, 6336, Note_on_c, 0, 74, 66
1, 6336, Note_on_c, 1, 70, 66
1, 6336, Note_on_c, 1, 58, 66
1, 6356, Note_on_c, 0, 74, 0
1, 6381, Note_on_c, 1, 70, 0
1, 6381, Note_on_c, 1, 58, 0
1, 6408, Note_on_c, 0, 79, 66
1, 6432, Note_on_c, 0, 79, 0
1, 6432, Note_on_c, 0, 77, 66
1, 6432, Note_on_c, 1, 69, 66
1, 6432, Note_on_c, 1, 58, 66
1, 6452, Note_on_c, 0, 77, 0
1, 6477, Note_on_c, 1, 69, 0
1, 6477, Note_on_c, 1, 58, 0
1, 6504, Note_on_c, 0, 75, 66
1, 6528, Note_on_c, 0, 75, 0
1, 6528, Note_on_c, 0, 74, 66
1, 6528, Note_on_c, 1, 70, 66
1, 6528, Note_on_c, 1, 58, 66
1, 6548, Note_on_c, 0, 74, 0
1, 6573, Note_on_c, 1, 70, 0
1, 6573, Note_on_c, 1, 58, 0
1, 6600, Note_on_c, 0, 84, 56
1, 6624, Note_on_c, 0, 84, 0
1, 6624, Note_on_c, 0, 82, 57
1, 6644, Note_on_c, 0, 82, 0
1, 6696, Note_on_c, 0, 81, 61
1, 6720, Note_on_c, 0, 81, 0
1, 6720, Note_on_c, 0, 79, 62
1, 6740, Note_on_c, 0, 79, 0
1, 6792, Note_on_c, 0, 77, 66
1, 6816, Note_on_c, 0, 77, 0
1, 6816, Note_on_c, 0, 75, 67
1, 6816, Note_on_c, 1, 53, 65
1, 6816, Note_on_c, 1, 50, 65
1, 6836, Note_on_c, 0, 75, 0
1, 6888, Note_on_c, 0, 74, 71
1, 6905, Note_on_c, 1, 53, 0
1, 6905, Note_on_c, 1, 50, 0
1, 6912, Note_on_c, 0, 74, 0
1, 6912, Note_on_c, 0, 72, 72
1, 6912, Note_on_c, 1, 55, 70
1, 6912, Note_on_c, 1, 51, 70
1, 6932, Note_on_c, 0, 72, 0
1, 6960, Note_on_c, 0, 78, 75
1, 7001, Note_on_c, 1, 55, 0
1, 7001, Note_on_c, 1, 51, 0
1, 7005, Note_on_c, 0, 78, 0
1, 7008, Note_on_c, 0, 81, 108
1, 7053, Note_on_c, 0, 81, 0
1, 7056, Note_on_c, 0, 79, 75
1, 7101, Note_on_c, 0, 79, 0
1, 7104, Note_on_c, 0, 77, 75
1, 7149, Note_on_c, 0, 77, 0
1, 7152, Note_on_c, 0, 75, 72
1, 7197, Note_on_c, 0, 75, 0
1, 7200, Note_on_c, 0, 74, 70
1, 7245, Note_on_c, 0, 74, 0
1, 7248, Note_on_c, 0, 72, 68
1, 7248, Note_on_c, 1, 60, 68
1, 7248, Note_on_c, 1, 52, 68
1, 7293, Note_on_c, 0, 72, 0
1, 7293, Note_on_c, 1, 60, 0
1, 7293, Note_on_c, 1, 52, 0
1, 7296, Note_on_c, 0, 70, 66
1, 7296, Note_on_c, 1, 62, 66
1, 7296, Note_on_c, 1, 53, 66
1, 7488, Note_on_c, 0, 70, 0
1, 7488, Note_on_c, 0, 69, 58
1, 7488, Note_on_c, 1, 62, 0
1, 7488, Note_on_c, 1, 60, 58
1, 7533, Note_on_c, 0, 69, 0
1, 7533, Note_on_c, 1, 60, 0
1, 7533, Note_on_c, 1, 53, 0
1, 7656, Note_on_c, 0, 69, 82
1, 7668, Note_on_c, 0, 69, 0
1, 7668, Note_on_c, 0, 72, 82
1, 7680, Note_on_c, 0, 72, 0
1, 7680, Note_on_c, 0, 77, 82
1, 7776, Note_on_c, 1, 53, 82
1, 7776, Note_on_c, 1, 48, 82
1, 7776, Note_on_c, 1, 45, 82
1, 7776, Note_on_c, 1, 41, 82
1, 7835, Note_on_c, 0, 77, 0
1, 7848, Note_on_c, 0, 72, 82
1, 7860, Note_on_c, 0, 72, 0
1, 7860, Note_on_c, 0, 76, 82
1, 7865, Note_on_c, 1, 53, 0
1, 7865, Note_on_c, 1, 48, 0
1, 7865, Note_on_c, 1, 45, 0
1, 7865, Note_on_c, 1, 41, 0
1, 7872, Note_on_c, 0, 76, 0
1, 7872, Note_on_c, 0, 79, 82
1, 7968, Note_on_c, 1, 48, 82
1, 7968, Note_on_c, 1, 43, 82
1, 7968, Note_on_c, 1, 40, 82
1, 7968, Note_on_c, 1, 36, 82
1, 8027, Note_on_c, 0, 79, 0
1, 8040, Note_on_c, 0, 72, 82
1, 8052, Note_on_c, 0, 72, 0
1, 8052, Note_on_c, 0, 77, 82
1, 8057, Note_on_c, 1, 48, 0
1, 8057, Note_on_c, 1, 43, 0
1, 8057, Note_on_c, 1, 40, 0
1, 8057, Note_on_c, 1, 36, 0
1, 8064, Note_on_c, 0, 77, 0
1, 8064, Note_on_c, 0, 81, 82
1, 8160, Note_on_c, 1, 41, 82
1, 8160, Note_on_c, 1, 36, 82
1, 8160, Note_on_c, 1, 33, 82
1, 8160, Note_on_c, 1, 29, 82
1, 8219, Note_on_c, 0, 81, 0
1, 8232, Note_on_c, 0, 81, 82
1, 8244, Note_on_c, 0, 81, 0
1, 8244, Note_on_c, 0, 84, 82
1, 8249, Note_on_c, 1, 41, 0
1, 8249, Note_on_c, 1, 36, 0
1, 8249, Note_on_c, 1, 33, 0
1, 8249, Note_on_c, 1, 29, 0
1, 8256, Note_on_c, 0, 84, 0
1, 8256, Note_on_c, 0, 89, 82
1, 8279, Note_on_c, 0, 89, 0
1, 8280, Note_on_c, 0, 88, 82
1, 8303, Note_on_c, 0, 88, 0
1, 8304, Note_on_c, 0, 86, 82
1, 8327, Note_on_c, 0, 86, 0
1, 8328, Note_on_c, 0, 84, 82
1, 8351, Note_on_c, 0, 84, 0
1, 8352, Note_on_c, 0, 82, 82
1, 8375, Note_on_c, 0, 82, 0
1, 8376, Note_on_c, 0, 81, 82
1, 8399, Note_on_c, 0, 81, 0
1, 8400, Note_on_c, 0, 79, 82
1, 8423, Note_on_c, 0, 79, 0
1, 8424, Note_on_c, 0, 77, 82
1, 8447, Note_on_c, 0, 77, 0
1, 8448, Note_on_c, 0, 76, 82
1, 8544, Note_on_c, 1, 72, 75
1, 8544, Note_on_c, 1, 70, 75
1, 8603, Note_on_c, 0, 76, 0
1, 8616, Note_on_c, 0, 76, 70
1, 8633, Note_on_c, 1, 72, 0
1, 8633, Note_on_c, 1, 70, 0
1, 8640, Note_on_c, 0, 76, 0
1, 8640, Note_on_c, 0, 77, 69
1, 8736, Note_on_c, 1, 72, 62
1, 8736, Note_on_c, 1, 69, 62
1, 8795, Note_on_c, 0, 77, 0
1, 8808, Note_on_c, 0, 77, 57
1, 8825, Note_on_c, 1, 72, 0
1, 8825, Note_on_c, 1, 69, 0
1, 8831, Note_on_c, 0, 77, 0
1, 8832, Note_on_c, 0, 78, 56
1, 8928, Note_on_c, 0, 78, 0
1, 8928, Note_on_c, 0, 79, 56
1, 8928, Note_on_c, 1, 72, 56
1, 8928, Note_on_c, 1, 64, 56
1, 9022, Note_on_c, 0, 79, 0
1, 9022, Note_on_c, 1, 72, 0
1, 9022, Note_on_c, 1, 64, 0
1, 9192, Note_on_c, 0, 79, 82
1, 9215, Note_on_c, 0, 79, 0
1, 9216, Note_on_c, 0, 80, 82
1, 9216, Note_on_c, 1, 65, 66
1, 9246, Note_on_c, 1, 65, 0
1, 9248, Note_on_c, 1, 68, 66
1, 9278, Note_on_c, 1, 68, 0
1, 9280, Note_on_c, 1, 72, 66
1, 9305, Note_on_c, 0, 80, 0
1, 9310, Note_on_c, 1, 72, 0
1, 9312, Note_on_c, 0, 80, 115
1, 9312, Note_on_c, 1, 65, 66
1, 9342, Note_on_c, 1, 65, 0
1, 9344, Note_on_c, 1, 68, 66
1, 9374, Note_on_c, 1, 68, 0
1, 9376, Note_on_c, 1, 72, 66
1, 9406, Note_on_c, 1, 72, 0
1, 9408, Note_on_c, 1, 65, 66
1, 9438, Note_on_c, 1, 65, 0
1, 9440, Note_on_c, 1, 68, 66
1, 9445, Note_on_c, 0, 80, 0
1, 9456, Note_on_c, 0, 80, 82
1, 9470, Note_on_c, 1, 68, 0
1, 9472, Note_on_c, 1, 72, 66
1, 9501, Note_on_c, 0, 80, 0
1, 9502, Note_on_c, 1, 72, 0
1, 9504, Note_on_c, 0, 82, 82
1, 9504, Note_on_c, 1, 65, 66
1, 9516, Note_on_c, 0, 82, 0
1, 9516, Note_on_c, 0, 80, 82
1, 9528, Note_on_c, 0, 80, 0
1, 9528, Note_on_c, 0, 79, 82
1, 9534, Note_on_c, 1, 65, 0
1, 9536, Note_on_c, 1, 68, 66
1, 9540, Note_on_c, 0, 79, 0
1, 9540, Note_on_c, 0, 80, 82
1, 9566, Note_on_c, 1, 68, 0
1, 9568, Note_on_c, 1, 72, 66
1, 9571, Note_on_c, 0, 80, 0
1, 9576, Note_on_c, 0, 82, 82
1, 9598, Note_on_c, 1, 72, 0
1, 9599, Note_on_c, 0, 82, 0
1, 9600, Note_on_c, 0, 80, 82
1, 9600, Note_on_c, 1, 63, 66
1, 9630, Note_on_c, 1, 63, 0
1, 9632, Note_on_c, 1, 68, 66
1, 9662, Note_on_c, 1, 68, 0
1, 9664, Note_on_c, 1, 72, 66
1, 9694, Note_on_c, 1, 72, 0
1, 9696, Note_on_c, 1, 63, 66
1, 9726, Note_on_c, 1, 63, 0
1, 9728, Note_on_c, 1, 68, 66
1, 9733, Note_on_c, 0, 80, 0
1, 9744, Note_on_c, 0, 77, 82
1, 9758, Note_on_c, 1, 68, 0
1, 9760, Note_on_c, 1, 72, 66
1, 9767, Note_on_c, 0, 77, 0
1, 9768, Note_on_c, 0, 78, 82
1, 9790, Note_on_c, 1, 72, 0
1, 9791, Note_on_c, 0, 78, 0
1, 9792, Note_on_c, 0, 80, 82
1, 9792, Note_on_c, 1, 63, 66
1, 9807, Note_on_c, 0, 80, 0
1, 9808, Note_on_c, 0, 78, 82
1, 9822, Note_on_c, 1, 63, 0
1, 9823, Note_on_c, 0, 78, 0
1, 9824, Note_on_c, 0, 80, 82
1, 9824, Note_on_c, 1, 68, 66
1, 9839, Note_on_c, 0, 80, 0
1, 9840, Note_on_c, 0, 78, 82
1, 9854, Note_on_c, 1, 68, 0
1, 9855, Note_on_c, 0, 78, 0
1, 9856, Note_on_c, 0, 80, 82
1, 9856, Note_on_c, 1, 72, 66
1, 9871, Note_on_c, 0, 80, 0
1, 9872, Note_on_c, 0, 78, 82
1, 9886, Note_on_c, 1, 72, 0
1, 9887, Note_on_c, 0, 78, 0
1, 9888, Note_on_c, 0, 80, 82
1, 9888, Note_on_c, 1, 63, 66
1, 9903, Note_on_c, 0, 80, 0
1, 9904, Note_on_c, 0, 78, 82
1, 9918, Note_on_c, 1, 63, 0
1, 9919, Note_on_c, 0, 78, 0
1, 9920, Note_on_c, 0, 77, 82
1, 9920, Note_on_c, 1, 68, 66
1, 9950, Note_on_c, 1, 68, 0
1, 9951, Note_on_c, 0, 77, 0
1, 9952, Note_on_c, 0, 78, 82
1, 9952, Note_on_c, 1, 72, 66
1, 9982, Note_on_c, 1, 72, 0
1, 9983, Note_on_c, 0, 78, 0
1, 9984, Note_on_c, 0, 77, 82
1, 9984, Note_on_c, 1, 61, 66
1, 10014, Note_on_c, 1, 61, 0
1, 10016, Note_on_c, 1, 65, 66
1, 10046, Note_on_c, 1, 65, 0
1, 10048, Note_on_c, 1, 68, 66
1, 10073, Note_on_c, 0, 77, 0
1, 10078, Note_on_c, 1, 68, 0
1, 10080, Note_on_c, 0, 77, 115
1, 10080, Note_on_c, 1, 61, 66
1, 10110, Note_on_c, 1, 61, 0
1, 10112, Note_on_c, 1, 65, 66
1, 10142, Note_on_c, 1, 65, 0
1, 10144, Note_on_c, 1, 68, 66
1, 10174, Note_on_c, 1, 68, 0
1, 10176, Note_on_c, 1, 61, 66
1, 10206, Note_on_c, 1, 61, 0
1, 10208, Note_on_c, 1, 65, 66
1, 10213, Note_on_c, 0, 77, 0
1, 10224, Note_on_c, 0, 77, 82
1, 10238, Note_on_c, 1, 65, 0
1, 10240, Note_on_c, 1, 68, 66
1, 10269, Note_on_c, 0, 77, 0
1, 10270, Note_on_c, 1, 68, 0
1, 10272, Note_on_c, 0, 78, 82
1, 10272, Note_on_c, 1, 61, 66
1, 10284, Note_on_c, 0, 78, 0
1, 10284, Note_on_c, 0, 77, 82
1, 10296, Note_on_c, 0, 77, 0
1, 10296, Note_on_c, 0, 75, 82
1, 10302, Note_on_c, 1, 61, 0
1, 10304, Note_on_c, 1, 65, 66
1, 10308, Note_on_c, 0, 75, 0
1, 10308, Note_on_c, 0, 77, 82
1, 10334, Note_on_c, 1, 65, 0
1, 10336, Note_on_c, 1, 68, 66
1, 10339, Note_on_c, 0, 77, 0
1, 10344, Note_on_c, 0, 78, 82
1, 10366, Note_on_c, 1, 68, 0
1, 10367, Note_on_c, 0, 78, 0
1, 10368, Note_on_c, 0, 77, 82
1, 10368, Note_on_c, 1, 60, 66
1, 10398, Note_on_c, 1, 60, 0
1, 10400, Note_on_c, 1, 63, 66
1, 10430, Note_on_c, 1, 63, 0
1, 10432, Note_on_c, 1, 69, 66
1, 10435, Note_on_c, 0, 77, 0
1, 10440, Note_on_c, 0, 75, 82
1, 10462, Note_on_c, 1, 69, 0
1, 10463, Note_on_c, 0, 75, 0
1, 10464, Note_on_c, 0, 78, 115
1, 10464, Note_on_c, 1, 60, 66
1, 10494, Note_on_c, 1, 60, 0
1, 10496, Note_on_c, 1, 63, 66
1, 10526, Note_on_c, 1, 63, 0
1, 10528, Note_on_c, 1, 69, 66
1, 10558, Note_on_c, 1, 69, 0
1, 10560, Note_on_c, 1, 60, 66
1, 10590, Note_on_c, 1, 60, 0
1, 10592, Note_on_c, 1, 63, 66
1, 10597, Note_on_c, 0, 78, 0
1, 10608, Note_on_c, 0, 77, 82
1, 10622, Note_on_c, 1, 63, 0
1, 10624, Note_on_c, 1, 69, 66
1, 10631, Note_on_c, 0, 77, 0
1, 10632, Note_on_c, 0, 75, 82
1, 10654, Note_on_c, 1, 69, 0
1, 10655, Note_on_c, 0, 75, 0
1, 10656, Note_on_c, 0, 73, 82
1, 10656, Note_on_c, 1, 60, 66
1, 10686, Note_on_c, 1, 60, 0
1, 10688, Note_on_c, 1, 63, 66
1, 10701, Note_on_c, 0, 73, 0
1, 10704, Note_on_c, 0, 72, 82
1, 10718, Note_on_c, 1, 63, 0
1, 10720, Note_on_c, 1, 69, 66
1, 10749, Note_on_c, 0, 72, 0
1, 10750, Note_on_c, 1, 69, 0
1, 10752, Note_on_c, 0, 75, 82
1, 10752, Note_on_c, 1, 58, 66
1, 10782, Note_on_c, 1, 58, 0
1, 10784, Note_on_c, 1, 61, 66
1, 10814, Note_on_c, 1, 61, 0
1, 10816, Note_on_c, 1, 65, 66
1, 10846, Note_on_c, 1, 65, 0
1, 10848, Note_on_c, 0, 75, 0
1, 10848, Note_on_c, 0, 73, 81
1, 10848, Note_on_c, 1, 58, 66
1, 10878, Note_on_c, 1, 58, 0
1, 10880, Note_on_c, 1, 61, 66
1, 10910, Note_on_c, 1, 61, 0
1, 10912, Note_on_c, 1, 65, 66
1, 10937, Note_on_c, 0, 73, 0
1, 10942, Note_on_c, 1, 65, 0
1, 10944, Note_on_c, 1, 58, 66
1, 10974, Note_on_c, 1, 58, 0
1, 10976, Note_on_c, 1, 61, 66
1, 11006, Note_on_c, 1, 61, 0
1, 11008, Note_on_c, 1, 65, 66
1, 11016, Note_on_c, 0, 73, 79
1, 11038, Note_on_c, 1, 65, 0
1, 11039, Note_on_c, 0, 73, 0
1, 11040, Note_on_c, 0, 75, 79
1, 11040, Note_on_c, 1, 58, 66
1, 11052, Note_on_c, 0, 75, 0
1, 11052, Note_on_c, 0, 73, 79
1, 11064, Note_on_c, 0, 73, 0
1, 11064, Note_on_c, 0, 72, 79
1, 11070, Note_on_c, 1, 58, 0
1, 11072, Note_on_c, 1, 61, 66
1, 11076, Note_on_c, 0, 72, 0
1, 11076, Note_on_c, 0, 73, 79
1, 11102, Note_on_c, 1, 61, 0
1, 11104, Note_on_c, 1, 65, 66
1, 11107, Note_on_c, 0, 73, 0
1, 11112, Note_on_c, 0, 75, 78
1, 11134, Note_on_c, 1, 65, 0
1, 11135, Note_on_c, 0, 75, 0
1, 11136, Note_on_c, 0, 73, 78
1, 11136, Note_on_c, 1, 56, 66
1, 11166, Note_on_c, 1, 56, 0
1, 11168, Note_on_c, 1, 60, 66
1, 11198, Note_on_c, 1, 60, 0
1, 11200, Note_on_c, 1, 65, 66
1, 11230, Note_on_c, 1, 65, 0
1, 11232, Note_on_c, 0, 73, 0
1, 11232, Note_on_c, 0, 72, 77
1, 11232, Note_on_c, 1, 56, 66
1, 11262, Note_on_c, 1, 56, 0
1, 11264, Note_on_c, 1, 60, 66
1, 11294, Note_on_c, 1, 60, 0
1, 11296, Note_on_c, 1, 65, 66
1, 11321, Note_on_c, 0, 72, 0
1, 11326, Note_on_c, 1, 65, 0
1, 11328, Note_on_c, 1, 56, 66
1, 11358, Note_on_c, 1, 56, 0
1, 11360, Note_on_c, 1, 60, 66
1, 11390, Note_on_c, 1, 60, 0
1, 11392, Note_on_c, 1, 65, 66
1, 11400, Note_on_c, 0, 72, 76
1, 11422, Note_on_c, 1, 65, 0
1, 11423, Note_on_c, 0, 72, 0
1, 11424, Note_on_c, 0, 74, 75
1, 11424, Note_on_c, 1, 56, 66
1, 11436, Note_on_c, 0, 74, 0
1, 11436, Note_on_c, 0, 72, 75
1, 11448, Note_on_c, 0, 72, 0
1, 11448, Note_on_c, 0, 71, 75
1, 11454, Note_on_c, 1, 56, 0
1, 11456, Note_on_c, 1, 60, 66
1, 11460, Note_on_c, 0, 71, 0
1, 11460, Note_on_c, 0, 72, 75
1, 11486, Note_on_c, 1, 60, 0
1, 11488, Note_on_c, 1, 65, 66
1, 11513, Note_on_c, 0, 72, 0
1, 11518, Note_on_c, 1, 65, 0
1, 11520, Note_on_c, 0, 71, 75
1, 11520, Note_on_c, 1, 55, 75
1, 11550, Note_on_c, 0, 71, 0
1, 11552, Note_on_c, 0, 74, 75
1, 11582, Note_on_c, 0, 74, 0
1, 11584, Note_on_c, 0, 72, 76
1, 11614, Note_on_c, 0, 72, 0
1, 11616, Note_on_c, 0, 75, 76
1, 11646, Note_on_c, 0, 75, 0
1, 11648, Note_on_c, 0, 74, 77
1, 11678, Note_on_c, 0, 74, 0
1, 11680, Note_on_c, 0, 77, 77
1, 11697, Note_on_c, 1, 55, 0
1, 11710, Note_on_c, 0, 77, 0
1, 11712, Note_on_c, 0, 75, 78
1, 11742, Note_on_c, 0, 75, 0
1, 11744, Note_on_c, 0, 79, 78
1, 11774, Note_on_c, 0, 79, 0
1, 11776, Note_on_c, 0, 77, 79
1, 11806, Note_on_c, 0, 77, 0
1, 11808, Note_on_c, 0, 80, 79
1, 11838, Note_on_c, 0, 80, 0
1, 11840, Note_on_c, 0, 79, 80
1, 11870, Note_on_c, 0, 79, 0
1, 11872, Note_on_c, 0, 82, 81
1, 11902, Note_on_c, 0, 82, 0
1, 11904, Note_on_c, 0, 80, 82
1, 11904, Note_on_c, 1, 59, 66
1, 11934, Note_on_c, 1, 59, 0
1, 11936, Note_on_c, 1, 62, 66
1, 11966, Note_on_c, 1, 62, 0
1, 11968, Note_on_c, 1, 67, 66
1, 11993, Note_on_c, 0, 80, 0
1, 11998, Note_on_c, 1, 67, 0
1, 12000, Note_on_c, 0, 79, 115
1, 12000, Note_on_c, 1, 59, 66
1, 12030, Note_on_c, 1, 59, 0
1, 12032, Note_on_c, 1, 62, 66
1, 12062, Note_on_c, 1, 62, 0
1, 12064, Note_on_c, 1, 67, 66
1, 12094, Note_on_c, 1, 67, 0
1, 12096, Note_on_c, 1, 59, 66
1, 12126, Note_on_c, 1, 59, 0
1, 12128, Note_on_c, 1, 62, 66
1, 12158, Note_on_c, 1, 62, 0
1, 12160, Note_on_c, 1, 67, 66
1, 12177, Note_on_c, 0, 79, 0
1, 12190, Note_on_c, 1, 67, 0
1, 12192, Note_on_c, 0, 77, 82
1, 12192, Note_on_c, 1, 59, 66
1, 12205, Note_on_c, 0, 77, 0
1, 12206, Note_on_c, 0, 79, 82
1, 12219, Note_on_c, 0, 79, 0
1, 12220, Note_on_c, 0, 77, 82
1, 12222, Note_on_c, 1, 59, 0
1, 12224, Note_on_c, 1, 62, 66
1, 12233, Note_on_c, 0, 77, 0
1, 12234, Note_on_c, 0, 79, 82
1, 12247, Note_on_c, 0, 79, 0
1, 12248, Note_on_c, 0, 77, 82
1, 12254, Note_on_c, 1, 62, 0
1, 12256, Note_on_c, 1, 67, 66
1, 12261, Note_on_c, 0, 77, 0
1, 12262, Note_on_c, 0, 76, 82
1, 12274, Note_on_c, 0, 76, 0
1, 12275, Note_on_c, 0, 77, 82
1, 12286, Note_on_c, 1, 67, 0
1, 12287, Note_on_c, 0, 77, 0
1, 12288, Note_on_c, 0, 76, 82
1, 12288, Note_on_c, 1, 60, 75
1, 12318, Note_on_c, 0, 76, 0
1, 12320, Note_on_c, 0, 79, 82
1, 12350, Note_on_c, 0, 79, 0
1, 12352, Note_on_c, 0, 77, 82
1, 12382, Note_on_c, 0, 77, 0
1, 12384, Note_on_c, 0, 81, 82
1, 12414, Note_on_c, 0, 81, 0
1, 12416, Note_on_c, 0, 79, 82
1, 12446, Note_on_c, 0, 79, 0
1, 12448, Note_on_c, 0, 82, 82
1, 12465, Note_on_c, 1, 60, 0
1, 12478, Note_on_c, 0, 82, 0
1, 12480, Note_on_c, 0, 81, 82
1, 12510, Note_on_c, 0, 81, 0
1, 12512, Note_on_c, 0, 84, 82
1, 12542, Note_on_c, 0, 84, 0
1, 12544, Note_on_c, 0, 82, 82
1, 12574, Note_on_c, 0, 82, 0
1, 12576, Note_on_c, 0, 86, 82
1, 12606, Note_on_c, 0, 86, 0
1, 12608, Note_on_c, 0, 84, 82
1, 12638, Note_on_c, 0, 84, 0
1, 12640, Note_on_c, 0, 88, 82
1, 12670, Note_on_c, 0, 88, 0
1, 12672, Note_on_c, 0, 86, 82
1, 12672, Note_on_c, 1, 64, 66
1, 12702, Note_on_c, 1, 64, 0
1, 12704, Note_on_c, 1, 67, 66
1, 12734, Note_on_c, 1, 67, 0
1, 12736, Note_on_c, 1, 72, 66
1, 12761, Note_on_c, 0, 86, 0
1, 12766, Note_on_c, 1, 72, 0
1, 12768, Note_on_c, 0, 84, 115
1, 12768, Note_on_c, 1, 64, 66
1, 12798, Note_on_c, 1, 64, 0
1, 12800, Note_on_c, 1, 67, 66
1, 12830, Note_on_c, 1, 67, 0
1, 12832, Note_on_c, 1, 72, 66
1, 12862, Note_on_c, 1, 72, 0
1, 12864, Note_on_c, 1, 64, 66
1, 12894, Note_on_c, 1, 64, 0
1, 12896, Note_on_c, 1, 67, 66
1, 12926, Note_on_c, 1, 67, 0
1, 12928, Note_on_c, 1, 72, 66
1, 12945, Note_on_c, 0, 84, 0
1, 12958, Note_on_c, 1, 72, 0
1, 12960, Note_on_c, 0, 82, 82
1, 12960, Note_on_c, 1, 64, 66
1, 12973, Note_on_c, 0, 82, 0
1, 12974, Note_on_c, 0, 84, 82
1, 12987, Note_on_c, 0, 84, 0
1, 12988, Note_on_c, 0, 82, 82
1, 12990, Note_on_c, 1, 64, 0
1, 12992, Note_on_c, 1, 67, 66
1, 13001, Note_on_c, 0, 82, 0
1, 13002, Note_on_c, 0, 84, 82
1, 13015, Note_on_c, 0, 84, 0
1, 13016, Note_on_c, 0, 82, 82
1, 13022, Note_on_c, 1, 67, 0
1, 13024, Note_on_c, 1, 72, 66
1, 13029, Note_on_c, 0, 82, 0
1, 13030, Note_on_c, 0, 81, 82
1, 13042, Note_on_c, 0, 81, 0
1, 13043, Note_on_c, 0, 82, 82
1, 13054, Note_on_c, 1, 72, 0
1, 13055, Note_on_c, 0, 82, 0
1, 13056, Note_on_c, 0, 81, 82
1, 13056, Note_on_c, 1, 65, 66
1, 13086, Note_on_c, 1, 65, 0
1, 13088, Note_on_c, 1, 69, 66
1, 13118, Note_on_c, 1, 69, 0
1, 13120, Note_on_c, 1, 72, 66
1, 13145, Note_on_c, 0, 81, 0
1, 13150, Note_on_c, 1, 72, 0
1, 13152, Note_on_c, 0, 84, 82
1, 13152, Note_on_c, 1, 65, 66
1, 13182, Note_on_c, 1, 65, 0
1, 13184, Note_on_c, 1, 69, 66
1, 13214, Note_on_c, 1, 69, 0
1, 13216, Note_on_c, 1, 72, 66
1, 13246, Note_on_c, 1, 72, 0
1, 13248, Note_on_c, 1, 67, 66
1, 13278, Note_on_c, 1, 67, 0
1, 13280, Note_on_c, 1, 70, 66
1, 13310, Note_on_c, 1, 70, 0
1, 13312, Note_on_c, 1, 72, 66
1, 13315, Note_on_c, 0, 84, 0
1, 13320, Note_on_c, 0, 76, 82
1, 13342, Note_on_c, 1, 72, 0
1, 13343, Note_on_c, 0, 76, 0
1, 13344, Note_on_c, 0, 76, 82
1, 13344, Note_on_c, 1, 67, 66
1, 13357, Note_on_c, 0, 76, 0
1, 13358, Note_on_c, 0, 77, 82
1, 13371, Note_on_c, 0, 77, 0
1, 13372, Note_on_c, 0, 76, 82
1, 13374, Note_on_c, 1, 67, 0
1, 13376, Note_on_c, 1, 70, 66
1, 13385, Note_on_c, 0, 76, 0
1, 13386, Note_on_c, 0, 77, 82
1, 13399, Note_on_c, 0, 77, 0
1, 13400, Note_on_c, 0, 76, 82
1, 13406, Note_on_c, 1, 70, 0
1, 13408, Note_on_c, 1, 72, 66
1, 13413, Note_on_c, 0, 76, 0
1, 13414, Note_on_c, 0, 74, 82
1, 13426, Note_on_c, 0, 74, 0
1, 13427, Note_on_c, 0, 76, 82
1, 13438, Note_on_c, 1, 72, 0
1, 13439, Note_on_c, 0, 76, 0
1, 13440, Note_on_c, 0, 77, 82
1, 13440, Note_on_c, 1, 65, 66
1, 13470, Note_on_c, 1, 65, 0
1, 13472, Note_on_c, 1, 69, 66
1, 13502, Note_on_c, 1, 69, 0
1, 13504, Note_on_c, 1, 72, 66
1, 13529, Note_on_c, 0, 77, 0
1, 13534, Note_on_c, 1, 72, 0
1, 13536, Note_on_c, 0, 81, 82
1, 13536, Note_on_c, 1, 65, 66
1, 13566, Note_on_c, 1, 65, 0
1, 13568, Note_on_c, 1, 69, 66
1, 13598, Note_on_c, 1, 69, 0
1, 13600, Note_on_c, 1, 72, 66
1, 13625, Note_on_c, 0, 81, 0
1, 13630, Note_on_c, 1, 72, 0
1, 13632, Note_on_c, 1, 64, 66
1, 13662, Note_on_c, 1, 64, 0
1, 13664, Note_on_c, 1, 67, 66
1, 13694, Note_on_c, 1, 67, 0
1, 13696, Note_on_c, 1, 72, 66
1, 13704, Note_on_c, 0, 79, 82
1, 13726, Note_on_c, 1, 72, 0
1, 13727, Note_on_c, 0, 79, 0
1, 13728, Note_on_c, 0, 79, 82
1, 13728, Note_on_c, 1, 64, 66
1, 13741, Note_on_c, 0, 79, 0
1, 13742, Note_on_c, 0, 81, 82
1, 13755, Note_on_c, 0, 81, 0
1, 13756, Note_on_c, 0, 79, 82
1, 13758, Note_on_c, 1, 64, 0
1, 13760, Note_on_c, 1, 67, 66
1, 13769, Note_on_c, 0, 79, 0
1, 13770, Note_on_c, 0, 81, 82
1, 13783, Note_on_c, 0, 81, 0
1, 13784, Note_on_c, 0, 79, 82
1, 13790, Note_on_c, 1, 67, 0
1, 13792, Note_on_c, 1, 72, 66
1, 13797, Note_on_c, 0, 79, 0
1, 13798, Note_on_c, 0, 77, 82
1, 13810, Note_on_c, 0, 77, 0
1, 13811, Note_on_c, 0, 79, 82
1, 13822, Note_on_c, 1, 72, 0
1, 13823, Note_on_c, 0, 79, 0
1, 13824, Note_on_c, 0, 81, 82
1, 13824, Note_on_c, 1, 65, 66
1, 13854, Note_on_c, 1, 65, 0
1, 13856, Note_on_c, 1, 69, 66
1, 13886, Note_on_c, 1, 69, 0
1, 13888, Note_on_c, 1, 72, 66
1, 13913, Note_on_c, 0, 81, 0
1, 13918, Note_on_c, 1, 72, 0
1, 13920, Note_on_c, 0, 84, 115
1, 13920, Note_on_c, 1, 65, 66
1, 13950, Note_on_c, 1, 65, 0
1, 13952, Note_on_c, 1, 69, 66
1, 13982, Note_on_c, 1, 69, 0
1, 13984, Note_on_c, 1, 72, 66
1, 14014, Note_on_c, 1, 72, 0
1, 14016, Note_on_c, 1, 67, 66
1, 14046, Note_on_c, 0, 84, 0
1, 14046, Note_on_c, 1, 67, 0
1, 14048, Note_on_c, 0, 82, 82
1, 14048, Note_on_c, 1, 70, 66
1, 14078, Note_on_c, 0, 82, 0
1, 14078, Note_on_c, 1, 70, 0
1, 14080, Note_on_c, 0, 81, 82
1, 14080, Note_on_c, 1, 72, 66
1, 14110, Note_on_c, 0, 81, 0
1, 14110, Note_on_c, 1, 72, 0
1, 14112, Note_on_c, 0, 79, 82
1, 14112, Note_on_c, 1, 67, 66
1, 14142, Note_on_c, 0, 79, 0
1, 14142, Note_on_c, 1, 67, 0
1, 14144, Note_on_c, 0, 77, 82
1, 14144, Note_on_c, 1, 70, 66
1, 14174, Note_on_c, 0, 77, 0
1, 14174, Note_on_c, 1, 70, 0
1, 14176, Note_on_c, 0, 76, 82
1, 14176, Note_on_c, 1, 72, 66
1, 14206, Note_on_c, 0, 76, 0
1, 14206, Note_on_c, 1, 72, 0
1, 14208, Note_on_c, 0, 77, 82
1, 14208, Note_on_c, 1, 65, 66
1, 14238, Note_on_c, 1, 65, 0
1, 14240, Note_on_c, 1, 69, 66
1, 14270, Note_on_c, 1, 69, 0
1, 14272, Note_on_c, 1, 72, 67
1, 14275, Note_on_c, 0, 77, 0
1, 14280, Note_on_c, 0, 77, 82
1, 14302, Note_on_c, 1, 72, 0
1, 14303, Note_on_c, 0, 77, 0
1, 14304, Note_on_c, 0, 77, 82
1, 14304, Note_on_c, 1, 65, 67
1, 14317, Note_on_c, 0, 77, 0
1, 14318, Note_on_c, 0, 79, 82
1, 14331, Note_on_c, 0, 79, 0
1, 14332, Note_on_c, 0, 77, 82
1, 14334, Note_on_c, 1, 65, 0
1, 14336, Note_on_c, 1, 69, 68
1, 14345, Note_on_c, 0, 77, 0
1, 14346, Note_on_c, 0, 79, 82
1, 14359, Note_on_c, 0, 79, 0
1, 14360, Note_on_c, 0, 77, 82
1, 14366, Note_on_c, 1, 69, 0
1, 14368, Note_on_c, 1, 72, 69
1, 14373, Note_on_c, 0, 77, 0
1, 14374, Note_on_c, 0, 75, 82
1, 14386, Note_on_c, 0, 75, 0
1, 14387, Note_on_c, 0, 77, 82
1, 14398, Note_on_c, 1, 72, 0
1, 14399, Note_on_c, 0, 77, 0
1, 14400, Note_on_c, 0, 79, 82
1, 14400, Note_on_c, 1, 64, 69
1, 14430, Note_on_c, 1, 64, 0
1, 14432, Note_on_c, 1, 67, 70
1, 14462, Note_on_c, 1, 67, 0
1, 14464, Note_on_c, 1, 72, 71
1, 14467, Note_on_c, 0, 79, 0
1, 14472, Note_on_c, 0, 79, 82
1, 14494, Note_on_c, 1, 72, 0
1, 14495, Note_on_c, 0, 79, 0
1, 14496, Note_on_c, 0, 79, 82
1, 14496, Note_on_c, 1, 64, 71
1, 14509, Note_on_c, 0, 79, 0
1, 14510, Note_on_c, 0, 81, 82
1, 14523, Note_on_c, 0, 81, 0
1, 14524, Note_on_c, 0, 79, 82
1, 14526, Note_on_c, 1, 64, 0
1, 14528, Note_on_c, 1, 67, 72
1, 14537, Note_on_c, 0, 79, 0
1, 14538, Note_on_c, 0, 81, 82
1, 14551, Note_on_c, 0, 81, 0
1, 14552, Note_on_c, 0, 79, 82
1, 14558, Note_on_c, 1, 67, 0
1, 14560, Note_on_c, 1, 72, 72
1, 14565, Note_on_c, 0, 79, 0
1, 14566, Note_on_c, 0, 77, 82
1, 14578, Note_on_c, 0, 77, 0
1, 14579, Note_on_c, 0, 79, 82
1, 14590, Note_on_c, 1, 72, 0
1, 14591, Note_on_c, 0, 79, 0
1, 14592, Note_on_c, 0, 81, 82
1, 14592, Note_on_c, 1, 65, 73
1, 14622, Note_on_c, 1, 65, 0
1, 14624, Note_on_c, 1, 69, 74
1, 14654, Note_on_c, 1, 69, 0
1, 14656, Note_on_c, 1, 72, 74
1, 14659, Note_on_c, 0, 81, 0
1, 14664, Note_on_c, 0, 81, 82
1, 14686, Note_on_c, 1, 72, 0
1, 14687, Note_on_c, 0, 81, 0
1, 14688, Note_on_c, 0, 81, 82
1, 14688, Note_on_c, 1, 65, 75
1, 14701, Note_on_c, 0, 81, 0
1, 14702, Note_on_c, 0, 82, 82
1, 14715, Note_on_c, 0, 82, 0
1, 14716, Note_on_c, 0, 81, 82
1, 14718, Note_on_c, 1, 65, 0
1, 14720, Note_on_c, 1, 69, 76
1, 14729, Note_on_c, 0, 81, 0
1, 14730, Note_on_c, 0, 82, 82
1, 14743, Note_on_c, 0, 82, 0
1, 14744, Note_on_c, 0, 81, 82
1, 14750, Note_on_c, 1, 69, 0
1, 14752, Note_on_c, 1, 72, 76
1, 14757, Note_on_c, 0, 81, 0
1, 14758, Note_on_c, 0, 79, 82
1, 14770, Note_on_c, 0, 79, 0
1, 14771, Note_on_c, 0, 81, 82
1, 14782, Note_on_c, 1, 72, 0
1, 14783, Note_on_c, 0, 81, 0
1, 14784, Note_on_c, 0, 82, 82
1, 14784, Note_on_c, 1, 62, 77
1, 14814, Note_on_c, 1, 62, 0
1, 14816, Note_on_c, 1, 65, 77
1, 14846, Note_on_c, 1, 65, 0
1, 14848, Note_on_c, 1, 70, 78
1, 14851, Note_on_c, 0, 82, 0
1, 14856, Note_on_c, 0, 82, 82
1, 14878, Note_on_c, 1, 70, 0
1, 14879, Note_on_c, 0, 82, 0
1, 14880, Note_on_c, 0, 82, 82
1, 14880, Note_on_c, 1, 62, 79
1, 14893, Note_on_c, 0, 82, 0
1, 14894, Note_on_c, 0, 84, 82
1, 14907, Note_on_c, 0, 84, 0
1, 14908, Note_on_c, 0, 82, 82
1, 14910, Note_on_c, 1, 62, 0
1, 14912, Note_on_c, 1, 65, 79
1, 14921, Note_on_c, 0, 82, 0
1, 14922, Note_on_c, 0, 84, 82
1, 14935, Note_on_c, 0, 84, 0
1, 14936, Note_on_c, 0, 82, 82
1, 14942, Note_on_c, 1, 65, 0
1, 14944, Note_on_c, 1, 70, 80
1, 14949, Note_on_c, 0, 82, 0
1, 14950, Note_on_c, 0, 81, 82
1, 14962, Note_on_c, 0, 81, 0
1, 14963, Note_on_c, 0, 82, 82
1, 14974, Note_on_c, 1, 70, 0
1, 14975, Note_on_c, 0, 82, 0
1, 14976, Note_on_c, 0, 84, 82
1, 14976, Note_on_c, 1, 57, 82
1, 15021, Note_on_c, 0, 84, 0
1, 15048, Note_on_c, 0, 77, 82
1, 15060, Note_on_c, 0, 77, 0
1, 15060, Note_on_c, 0, 79, 82
1, 15065, Note_on_c, 1, 57, 0
1, 15072, Note_on_c, 0, 79, 0
1, 15072, Note_on_c, 0, 81, 82
1, 15119, Note_on_c, 0, 81, 0
1, 15144, Note_on_c, 0, 81, 85
1, 15156, Note_on_c, 0, 81, 0
1, 15156, Note_on_c, 0, 82, 86
1, 15168, Note_on_c, 0, 82, 0
1, 15168, Note_on_c, 0, 84, 86
1, 15215, Note_on_c, 0, 84, 0
1, 15240, Note_on_c, 0, 84, 89
1, 15252, Note_on_c, 0, 84, 0
1, 15252, Note_on_c, 0, 86, 89
1, 15264, Note_on_c, 0, 86, 0
1, 15264, Note_on_c, 0, 87, 90
1, 15311, Note_on_c, 0, 87, 0
1, 15336, Note_on_c, 0, 87, 82
1, 15348, Note_on_c, 0, 87, 0
1, 15348, Note_on_c, 0, 86, 81
1, 15360, Note_on_c, 0, 86, 0
1, 15360, Note_on_c, 0, 84, 81
1, 15360, Note_on_c, 1, 65, 82
1, 15360, Note_on_c, 1, 57, 82
1, 15407, Note_on_c, 0, 84, 0
1, 15432, Note_on_c, 0, 84, 80
1, 15444, Note_on_c, 0, 84, 0
1, 15444, Note_on_c, 0, 82, 80
1, 15449, Note_on_c, 1, 65, 0
1, 15449, Note_on_c, 1, 57, 0
1, 15456, Note_on_c, 0, 82, 0
1, 15456, Note_on_c, 0, 81, 79
1, 15503, Note_on_c, 0, 81, 0
1, 15528, Note_on_c, 0, 81, 78
1, 15540, Note_on_c, 0, 81, 0
1, 15540, Note_on_c, 0, 79, 78
1, 15552, Note_on_c, 0, 79, 0
1, 15552, Note_on_c, 0, 77, 78
1, 15582, Note_on_c, 0, 77, 0
1, 15584, Note_on_c, 0, 79, 77
1, 15614, Note_on_c, 0, 79, 0
1, 15616, Note_on_c, 0, 77, 77
1, 15646, Note_on_c, 0, 77, 0
1, 15648, Note_on_c, 0, 75, 76
1, 15678, Note_on_c, 0, 75, 0
1, 15680, Note_on_c, 0, 74, 76
1, 15710, Note_on_c, 0, 74, 0
1, 15712, Note_on_c, 0, 73, 75
1, 15742, Note_on_c, 0, 73, 0
1, 15744, Note_on_c, 0, 74, 75
1, 15744, Note_on_c, 1, 65, 82
1, 15744, Note_on_c, 1, 58, 82
1, 15774, Note_on_c, 0, 74, 0
1, 15776, Note_on_c, 0, 82, 75
1, 15806, Note_on_c, 0, 82, 0
1, 15808, Note_on_c, 0, 81, 76
1, 15833, Note_on_c, 1, 65, 0
1, 15833, Note_on_c, 1, 58, 0
1, 15838, Note_on_c, 0, 81, 0
1, 15840, Note_on_c, 0, 79, 77
1, 15870, Note_on_c, 0, 79, 0
1, 15872, Note_on_c, 0, 86, 78
1, 15902, Note_on_c, 0, 86, 0
1, 15904, Note_on_c, 0, 84, 80
1, 15934, Note_on_c, 0, 84, 0
1, 15936, Note_on_c, 0, 82, 81
1, 15966, Note_on_c, 0, 82, 0
1, 15968, Note_on_c, 0, 81, 81
1, 15998, Note_on_c, 0, 81, 0
1, 16000, Note_on_c, 0, 79, 80
1, 16030, Note_on_c, 0, 79, 0
1, 16032, Note_on_c, 0, 77, 79
1, 16062, Note_on_c, 0, 77, 0
1, 16064, Note_on_c, 0, 76, 78
1, 16094, Note_on_c, 0, 76, 0
1, 16096, Note_on_c, 0, 74, 76
1, 16126, Note_on_c, 0, 74, 0
1, 16128, Note_on_c, 0, 72, 75
1, 16224, Note_on_c, 1, 69, 66
1, 16224, Note_on_c, 1, 65, 66
1, 16224, Note_on_c, 1, 60, 66
1, 16263, Note_on_c, 1, 69, 0
1, 16263, Note_on_c, 1, 65, 0
1, 16263, Note_on_c, 1, 60, 0
1, 16320, Note_on_c, 1, 69, 66
1, 16320, Note_on_c, 1, 65, 66
1, 16320, Note_on_c, 1, 60, 66
1, 16350, Note_on_c, 0, 72, 0
1, 16352, Note_on_c, 0, 72, 79
1, 16382, Note_on_c, 0, 72, 0
1, 16384, Note_on_c, 0, 73, 79
1, 16409, Note_on_c, 1, 69, 0
1, 16409, Note_on_c, 1, 65, 0
1, 16409, Note_on_c, 1, 60, 0
1, 16414, Note_on_c, 0, 73, 0
1, 16416, Note_on_c, 0, 74, 80
1, 16446, Note_on_c, 0, 74, 0
1, 16448, Note_on_c, 0, 75, 80
1, 16478, Note_on_c, 0, 75, 0
1, 16480, Note_on_c, 0, 76, 81
1, 16510, Note_on_c, 0, 76, 0
1, 16512, Note_on_c, 0, 77, 82
1, 16512, Note_on_c, 1, 69, 66
1, 16512, Note_on_c, 1, 65, 66
1, 16512, Note_on_c, 1, 60, 66
1, 16542, Note_on_c, 0, 77, 0
1, 16544, Note_on_c, 0, 72, 75
1, 16551, Note_on_c, 1, 69, 0
1, 16551, Note_on_c, 1, 65, 0
1, 16551, Note_on_c, 1, 60, 0
1, 16574, Note_on_c, 0, 72, 0
1, 16576, Note_on_c, 0, 73, 76
1, 16606, Note_on_c, 0, 73, 0
1, 16608, Note_on_c, 0, 74, 77
1, 16638, Note_on_c, 0, 74, 0
1, 16640, Note_on_c, 0, 75, 78
1, 16670, Note_on_c, 0, 75, 0
1, 16672, Note_on_c, 0, 76, 79
1, 16702, Note_on_c, 0, 76, 0
1, 16704, Note_on_c, 0, 77, 80
1, 16704, Note_on_c, 1, 69, 69
1, 16704, Note_on_c, 1, 65, 69
1, 16704, Note_on_c, 1, 60, 69
1, 16734, Note_on_c, 0, 77, 0
1, 16736, Note_on_c, 0, 72, 82
1, 16743, Note_on_c, 1, 69, 0
1, 16743, Note_on_c, 1, 65, 0
1, 16743, Note_on_c, 1, 60, 0
1, 16766, Note_on_c, 0, 72, 0
1, 16768, Note_on_c, 0, 73, 82
1, 16798, Note_on_c, 0, 73, 0
1, 16800, Note_on_c, 0, 74, 82
1, 16830, Note_on_c, 0, 74, 0
1, 16832, Note_on_c, 0, 75, 82
1, 16862, Note_on_c, 0, 75, 0
1, 16864, Note_on_c, 0, 76, 83
1, 16894, Note_on_c, 0, 76, 0
1, 16896, Note_on_c, 0, 77, 83
1, 16896, Note_on_c, 1, 69, 73
1, 16896, Note_on_c, 1, 65, 73
1, 16896, Note_on_c, 1, 60, 73
1, 16926, Note_on_c, 0, 77, 0
1, 16928, Note_on_c, 0, 72, 83
1, 16935, Note_on_c, 1, 69, 0
1, 16935, Note_on_c, 1, 65, 0
1, 16935, Note_on_c, 1, 60, 0
1, 16958, Note_on_c, 0, 72, 0
1, 16960, Note_on_c, 0, 73, 84
1, 16990, Note_on_c, 0, 73, 0
1, 16992, Note_on_c, 0, 74, 84
1, 17022, Note_on_c, 0, 74, 0
1, 17024, Note_on_c, 0, 75, 84
1, 17054, Note_on_c, 0, 75, 0
1, 17056, Note_on_c, 0, 76, 85
1, 17086, Note_on_c, 0, 76, 0
1, 17088, Note_on_c, 0, 77, 85
1, 17118, Note_on_c, 0, 77, 0
1, 17120, Note_on_c, 0, 78, 85
1, 17150, Note_on_c, 0, 78, 0
1, 17152, Note_on_c, 0, 79, 86
1, 17182, Note_on_c, 0, 79, 0
1, 17184, Note_on_c, 0, 80, 86
1, 17214, Note_on_c, 0, 80, 0
1, 17216, Note_on_c, 0, 81, 86
1, 17246, Note_on_c, 0, 81, 0
1, 17248, Note_on_c, 0, 82, 87
1, 17278, Note_on_c, 0, 82, 0
1, 17280, Note_on_c, 0, 83, 87
1, 17310, Note_on_c, 0, 83, 0
1, 17312, Note_on_c, 0, 84, 87
1, 17342, Note_on_c, 0, 84, 0
1, 17344, Note_on_c, 0, 85, 88
1, 17374, Note_on_c, 0, 85, 0
1, 17376, Note_on_c, 0, 86, 88
1, 17406, Note_on_c, 0, 86, 0
1, 17408, Note_on_c, 0, 87, 88
1, 17438, Note_on_c, 0, 87, 0
1, 17440, Note_on_c, 0, 88, 89
1, 17470, Note_on_c, 0, 88, 0
1, 17472, Note_on_c, 0, 89, 106
1, 17568, Note_on_c, 0, 89, 0
1, 17568, Note_on_c, 0, 71, 82
1, 17568, Note_on_c, 1, 59, 82
1, 17568, Note_on_c, 1, 47, 82
1, 17657, Note_on_c, 0, 71, 0
1, 17664, Note_on_c, 0, 72, 82
1, 17664, Note_on_c, 1, 59, 0
1, 17664, Note_on_c, 1, 47, 0
1, 17664, Note_on_c, 1, 60, 82
1, 17664, Note_on_c, 1, 48, 82
1, 17676, Note_on_c, 0, 72, 0
1, 17676, Note_on_c, 0, 77, 82
1, 17688, Note_on_c, 0, 77, 0
1, 17688, Note_on_c, 0, 81, 82
1, 17700, Note_on_c, 0, 81, 0
1, 17700, Note_on_c, 0, 84, 98
1, 17753, Note_on_c, 1, 60, 0
1, 17753, Note_on_c, 1, 48, 0
1, 17760, Note_on_c, 0, 84, 0
1, 17760, Note_on_c, 0, 82, 82
1, 17783, Note_on_c, 0, 82, 0
1, 17784, Note_on_c, 0, 81, 82
1, 17807, Note_on_c, 0, 81, 0
1, 17808, Note_on_c, 0, 79, 82
1, 17831, Note_on_c, 0, 79, 0
1, 17832, Note_on_c, 0, 77, 82
1, 17855, Note_on_c, 0, 77, 0
1, 17856, Note_on_c, 0, 81, 82
1, 17856, Note_on_c, 1, 70, 75
1, 17856, Note_on_c, 1, 60, 75
1, 17871, Note_on_c, 0, 81, 0
1, 17872, Note_on_c, 0, 79, 82
1, 17887, Note_on_c, 0, 79, 0
1, 17888, Note_on_c, 0, 81, 82
1, 17903, Note_on_c, 0, 81, 0
1, 17904, Note_on_c, 0, 79, 82
1, 17919, Note_on_c, 0, 79, 0
1, 17920, Note_on_c, 0, 81, 82
1, 17935, Note_on_c, 0, 81, 0
1, 17936, Note_on_c, 0, 79, 82
1, 17951, Note_on_c, 0, 79, 0
1, 17952, Note_on_c, 0, 81, 82
1, 17967, Note_on_c, 0, 81, 0
1, 17968, Note_on_c, 0, 79, 82
1, 17983, Note_on_c, 0, 79, 0
1, 17984, Note_on_c, 0, 77, 82
1, 18015, Note_on_c, 0, 77, 0
1, 18016, Note_on_c, 0, 79, 82
1, 18033, Note_on_c, 1, 70, 0
1, 18033, Note_on_c, 1, 60, 0
1, 18047, Note_on_c, 0, 79, 0
1, 18048, Note_on_c, 0, 77, 82
1, 18048, Note_on_c, 1, 65, 75
1, 18115, Note_on_c, 1, 65, 0
1, 18120, Note_on_c, 1, 69, 73
1, 18137, Note_on_c, 0, 77, 0
1, 18143, Note_on_c, 1, 69, 0
1, 18144, Note_on_c, 1, 64, 72
1, 18211, Note_on_c, 1, 64, 0
1, 18216, Note_on_c, 1, 67, 71
1, 18239, Note_on_c, 1, 67, 0
1, 18240, Note_on_c, 0, 82, 82
1, 18240, Note_on_c, 0, 70, 82
1, 18240, Note_on_c, 1, 62, 70
1, 18260, Note_on_c, 0, 82, 0
1, 18260, Note_on_c, 0, 70, 0
1, 18307, Note_on_c, 1, 62, 0
1, 18312, Note_on_c, 1, 65, 68
1, 18335, Note_on_c, 1, 65, 0
1, 18336, Note_on_c, 0, 81, 82
1, 18336, Note_on_c, 0, 69, 82
1, 18336, Note_on_c, 1, 60, 68
1, 18356, Note_on_c, 0, 81, 0
1, 18356, Note_on_c, 0, 69, 0
1, 18403, Note_on_c, 1, 60, 0
1, 18408, Note_on_c, 1, 64, 66
1, 18431, Note_on_c, 1, 64, 0
1, 18432, Note_on_c, 0, 86, 115
1, 18432, Note_on_c, 0, 74, 115
1, 18432, Note_on_c, 1, 58, 66
1, 18697, Note_on_c, 0, 86, 0
1, 18697, Note_on_c, 0, 74, 0
1, 18697, Note_on_c, 1, 58, 0
1, 18720, Note_on_c, 0, 76, 66
1, 18720, Note_on_c, 1, 70, 56
1, 18787, Note_on_c, 0, 76, 0
1, 18792, Note_on_c, 0, 86, 66
1, 18809, Note_on_c, 1, 70, 0
1, 18815, Note_on_c, 0, 86, 0
1, 18816, Note_on_c, 0, 77, 66
1, 18816, Note_on_c, 1, 69, 56
1, 18883, Note_on_c, 0, 77, 0
1, 18888, Note_on_c, 0, 84, 66
1, 18905, Note_on_c, 1, 69, 0
1, 18911, Note_on_c, 0, 84, 0
1, 18912, Note_on_c, 0, 79, 66
1, 18912, Note_on_c, 1, 70, 56
1, 18979, Note_on_c, 0, 79, 0
1, 18984, Note_on_c, 0, 82, 66
1, 19001, Note_on_c, 1, 70, 0
1, 19007, Note_on_c, 0, 82, 0
1, 19008, Note_on_c, 0, 77, 66
1, 19008, Note_on_c, 1, 72, 56
1, 19075, Note_on_c, 0, 77, 0
1, 19080, Note_on_c, 0, 81, 66
1, 19097, Note_on_c, 1, 72, 0
1, 19103, Note_on_c, 0, 81, 0
1, 19104, Note_on_c, 0, 76, 66
1, 19104, Note_on_c, 1, 60, 56
1, 19171, Note_on_c, 0, 76, 0
1, 19176, Note_on_c, 0, 79, 66
1, 19193, Note_on_c, 1, 60, 0
1, 19199, Note_on_c, 0, 79, 0
1, 19200, Note_on_c, 0, 77, 66
1, 19200, Note_on_c, 1, 65, 82
1, 19230, Note_on_c, 1, 65, 0
1, 19232, Note_on_c, 1, 67, 82
1, 19262, Note_on_c, 1, 67, 0
1, 19264, Note_on_c, 1, 69, 81
1, 19289, Note_on_c, 0, 77, 0
1, 19294, Note_on_c, 1, 69, 0
1, 19296, Note_on_c, 1, 64, 80
1, 19326, Note_on_c, 1, 64, 0
1, 19328, Note_on_c, 1, 65, 80
1, 19358, Note_on_c, 1, 65, 0
1, 19360, Note_on_c, 1, 67, 79
1, 19390, Note_on_c, 1, 67, 0
1, 19392, Note_on_c, 0, 82, 82
1, 19392, Note_on_c, 0, 70, 82
1, 19392, Note_on_c, 1, 62, 79
1, 19412, Note_on_c, 0, 82, 0
1, 19412, Note_on_c, 0, 70, 0
1, 19422, Note_on_c, 1, 62, 0
1, 19424, Note_on_c, 1, 64, 78
1, 19454, Note_on_c, 1, 64, 0
1, 19456, Note_on_c, 1, 65, 77
1, 19486, Note_on_c, 1, 65, 0
1, 19488, Note_on_c, 0, 81, 82
1, 19488, Note_on_c, 0, 69, 82
1, 19488, Note_on_c, 1, 60, 77
1, 19508, Note_on_c, 0, 81, 0
1, 19508, Note_on_c, 0, 69, 0
1, 19518, Note_on_c, 1, 60, 0
1, 19520, Note_on_c, 1, 62, 76
1, 19550, Note_on_c, 1, 62, 0
1, 19552, Note_on_c, 1, 64, 76
1, 19582, Note_on_c, 1, 64, 0
1, 19584, Note_on_c, 0, 86, 115
1, 19584, Note_on_c, 0, 74, 115
1, 19584, Note_on_c, 1, 58, 75
1, 19849, Note_on_c, 0, 86, 0
1, 19849, Note_on_c, 0, 74, 0
1, 19849, Note_on_c, 1, 58, 0
1, 19872, Note_on_c, 0, 76, 82
1, 19872, Note_on_c, 1, 70, 75
1, 19902, Note_on_c, 0, 76, 0
1, 19904, Note_on_c, 0, 79, 81
1, 19934, Note_on_c, 0, 79, 0
1, 19936, Note_on_c, 0, 86, 80
1, 19961, Note_on_c, 1, 70, 0
1, 19966, Note_on_c, 0, 86, 0
1, 19968, Note_on_c, 0, 77, 79
1, 19968, Note_on_c, 1, 69, 75
1, 19998, Note_on_c, 0, 77, 0
1, 20000, Note_on_c, 0, 81, 78
1, 20030, Note_on_c, 0, 81, 0
1, 20032, Note_on_c, 0, 84, 77
1, 20057, Note_on_c, 1, 69, 0
1, 20062, Note_on_c, 0, 84, 0
1, 20064, Note_on_c, 0, 74, 76
1, 20064, Note_on_c, 1, 70, 70
1, 20064, Note_on_c, 1, 58, 64
1, 20094, Note_on_c, 0, 74, 0
1, 20096, Note_on_c, 0, 82, 75
1, 20126, Note_on_c, 0, 82, 0
1, 20128, Note_on_c, 0, 79, 74
1, 20153, Note_on_c, 1, 70, 0
1, 20153, Note_on_c, 1, 58, 0
1, 20158, Note_on_c, 0, 79, 0
1, 20160, Note_on_c, 0, 77, 73
1, 20160, Note_on_c, 1, 69, 65
1, 20160, Note_on_c, 1, 60, 64
1, 20249, Note_on_c, 0, 77, 0
1, 20249, Note_on_c, 1, 69, 0
1, 20256, Note_on_c, 0, 76, 69
1, 20256, Note_on_c, 1, 67, 60
1, 20269, Note_on_c, 0, 76, 0
1, 20270, Note_on_c, 0, 77, 69
1, 20283, Note_on_c, 0, 77, 0
1, 20284, Note_on_c, 0, 76, 69
1, 20297, Note_on_c, 0, 76, 0
1, 20298, Note_on_c, 0, 77, 68
1, 20311, Note_on_c, 0, 77, 0
1, 20312, Note_on_c, 0, 76, 68
1, 20325, Note_on_c, 0, 76, 0
1, 20326, Note_on_c, 0, 74, 67
1, 20337, Note_on_c, 1, 60, 0
1, 20338, Note_on_c, 0, 74, 0
1, 20339, Note_on_c, 0, 76, 67
1, 20345, Note_on_c, 1, 67, 0
1, 20351, Note_on_c, 0, 76, 0
1, 20352, Note_on_c, 0, 77, 66
1, 20352, Note_on_c, 1, 69, 56
1, 20382, Note_on_c, 0, 77, 0
1, 20384, Note_on_c, 0, 72, 65
1, 20414, Note_on_c, 0, 72, 0
1, 20416, Note_on_c, 0, 81, 64
1, 20441, Note_on_c, 1, 69, 0
1, 20446, Note_on_c, 0, 81, 0
1, 20448, Note_on_c, 0, 77, 63
1, 20448, Note_on_c, 1, 69, 54
1, 20478, Note_on_c, 0, 77, 0
1, 20480, Note_on_c, 0, 72, 62
1, 20510, Note_on_c, 0, 72, 0
1, 20512, Note_on_c, 0, 81, 62
1, 20537, Note_on_c, 1, 69, 0
1, 20542, Note_on_c, 0, 81, 0
1, 20544, Note_on_c, 0, 77, 61
1, 20544, Note_on_c, 1, 69, 53
1, 20574, Note_on_c, 0, 77, 0
1, 20576, Note_on_c, 0, 72, 60
1, 20606, Note_on_c, 0, 72, 0
1, 20608, Note_on_c, 0, 81, 59
1, 20633, Note_on_c, 1, 69, 0
1, 20638, Note_on_c, 0, 81, 0
1, 20640, Note_on_c, 0, 77, 58
1, 20640, Note_on_c, 1, 69, 51
1, 20670, Note_on_c, 0, 77, 0
1, 20672, Note_on_c, 0, 72, 58
1, 20702, Note_on_c, 0, 72, 0
1, 20704, Note_on_c, 0, 81, 57
1, 20729, Note_on_c, 1, 69, 0
1, 20734, Note_on_c, 0, 81, 0
1, 20736, Note_on_c, 0, 77, 56
1, 20736, Note_on_c, 1, 69, 50
1, 20830, Note_on_c, 0, 77, 0
1, 20830, Note_on_c, 1, 69, 0
1, 21120, Note_on_c, 0, 74, 82
1, 21120, Note_on_c, 1, 58, 82
1, 21120, Note_on_c, 1, 53, 82
1, 21120, Note_on_c, 1, 50, 82
1, 21120, Note_on_c, 1, 46, 82
1, 21138, Note_on_c, 0, 74, 0
1, 21138, Note_on_c, 0, 77, 82
1, 21156, Note_on_c, 0, 77, 0
1, 21156, Note_on_c, 0, 82, 98
1, 21283, Note_on_c, 0, 82, 0
1, 21288, Note_on_c, 0, 81, 80
1, 21297, Note_on_c, 1, 58, 0
1, 21297, Note_on_c, 1, 53, 0
1, 21297, Note_on_c, 1, 50, 0
1, 21297, Note_on_c, 1, 46, 0
1, 21312, Note_on_c, 0, 81, 0
1, 21312, Note_on_c, 0, 79, 80
1, 21332, Note_on_c, 0, 79, 0
1, 21384, Note_on_c, 0, 77, 79
1, 21408, Note_on_c, 0, 77, 0
1, 21408, Note_on_c, 0, 75, 78
1, 21428, Note_on_c, 0, 75, 0
1, 21480, Note_on_c, 0, 74, 77
1, 21503, Note_on_c, 0, 74, 0
1, 21504, Note_on_c, 0, 72, 77
1, 21600, Note_on_c, 1, 70, 75
1, 21600, Note_on_c, 1, 66, 75
1, 21637, Note_on_c, 0, 72, 0
1, 21648, Note_on_c, 0, 72, 75
1, 21671, Note_on_c, 0, 72, 0
1, 21672, Note_on_c, 0, 74, 75
1, 21695, Note_on_c, 0, 74, 0
1, 21696, Note_on_c, 0, 75, 75
1, 21696, Note_on_c, 1, 70, 0
1, 21696, Note_on_c, 1, 66, 0
1, 21696, Note_on_c, 1, 69, 70
1, 21696, Note_on_c, 1, 65, 70
1, 21763, Note_on_c, 0, 75, 0
1, 21768, Note_on_c, 0, 74, 77
1, 21780, Note_on_c, 0, 74, 0
1, 21780, Note_on_c, 0, 75, 78
1, 21785, Note_on_c, 1, 69, 0
1, 21785, Note_on_c, 1, 65, 0
1, 21792, Note_on_c, 0, 75, 0
1, 21792, Note_on_c, 0, 77, 78
1, 21859, Note_on_c, 0, 77, 0
1, 21864, Note_on_c, 0, 75, 81
1, 21876, Note_on_c, 0, 75, 0
1, 21876, Note_on_c, 0, 77, 81
1, 21888, Note_on_c, 0, 77, 0
1, 21888, Note_on_c, 0, 79, 82
1, 22029, Note_on_c, 0, 79, 0
1, 22056, Note_on_c, 0, 77, 78
1, 22080, Note_on_c, 0, 77, 0
1, 22080, Note_on_c, 0, 75, 78
1, 22100, Note_on_c, 0, 75, 0
1, 22152, Note_on_c, 0, 74, 77
1, 22176, Note_on_c, 0, 74, 0
1, 22176, Note_on_c, 0, 72, 76
1, 22196, Note_on_c, 0, 72, 0
1, 22248, Note_on_c, 0, 70, 75
1, 22271, Note_on_c, 0, 70, 0
1, 22272, Note_on_c, 0, 69, 75
1, 22311, Note_on_c, 0, 69, 0
1, 22368, Note_on_c, 0, 75, 108
1, 22368, Note_on_c, 1, 60, 66
1, 22368, Note_on_c, 1, 54, 64
1, 22464, Note_on_c, 1, 54, 0
1, 22464, Note_on_c, 1, 55, 64
1, 22560, Note_on_c, 0, 75, 0
1, 22560, Note_on_c, 0, 74, 75
1, 22560, Note_on_c, 1, 60, 0
1, 22560, Note_on_c, 1, 58, 66
1, 22641, Note_on_c, 1, 55, 0
1, 22649, Note_on_c, 0, 74, 0
1, 22649, Note_on_c, 1, 58, 0
1, 22656, Note_on_c, 0, 72, 75
1, 22695, Note_on_c, 0, 72, 0
1, 22752, Note_on_c, 0, 79, 108
1, 22752, Note_on_c, 1, 69, 64
1, 22752, Note_on_c, 1, 63, 64
1, 22848, Note_on_c, 1, 69, 0
1, 22848, Note_on_c, 1, 63, 0
1, 22848, Note_on_c, 1, 70, 64
1, 22848, Note_on_c, 1, 62, 64
1, 22944, Note_on_c, 0, 79, 0
1, 22944, Note_on_c, 0, 77, 75
1, 23025, Note_on_c, 1, 70, 0
1, 23025, Note_on_c, 1, 62, 0
1, 23033, Note_on_c, 0, 77, 0
1, 23040, Note_on_c, 0, 87, 98
1, 23040, Note_on_c, 1, 65, 82
1, 23040, Note_on_c, 1, 63, 82
1, 23040, Note_on_c, 1, 60, 82
1, 23040, Note_on_c, 1, 57, 82
1, 23064, Note_on_c, 0, 87, 0
1, 23064, Note_on_c, 0, 89, 82
1, 23087, Note_on_c, 0, 89, 0
1, 23088, Note_on_c, 0, 87, 82
1, 23111, Note_on_c, 0, 87, 0
1, 23112, Note_on_c, 0, 86, 82
1, 23135, Note_on_c, 0, 86, 0
1, 23136, Note_on_c, 0, 84, 82
1, 23159, Note_on_c, 0, 84, 0
1, 23160, Note_on_c, 0, 86, 82
1, 23183, Note_on_c, 0, 86, 0
1, 23184, Note_on_c, 0, 84, 82
1, 23207, Note_on_c, 0, 84, 0
1, 23208, Note_on_c, 0, 82, 82
1, 23231, Note_on_c, 0, 82, 0
1, 23232, Note_on_c, 0, 81, 82
1, 23255, Note_on_c, 0, 81, 0
1, 23256, Note_on_c, 0, 82, 82
1, 23279, Note_on_c, 0, 82, 0
1, 23280, Note_on_c, 0, 81, 82
1, 23303, Note_on_c, 0, 81, 0
1, 23304, Note_on_c, 0, 79, 82
1, 23327, Note_on_c, 0, 79, 0
1, 23328, Note_on_c, 0, 77, 82
1, 23351, Note_on_c, 0, 77, 0
1, 23352, Note_on_c, 0, 79, 82
1, 23375, Note_on_c, 0, 79, 0
1, 23376, Note_on_c, 0, 77, 82
1, 23394, Note_on_c, 1, 65, 0
1, 23394, Note_on_c, 1, 63, 0
1, 23394, Note_on_c, 1, 60, 0
1, 23394, Note_on_c, 1, 57, 0
1, 23399, Note_on_c, 0, 77, 0
1, 23400, Note_on_c, 0, 75, 82
1, 23423, Note_on_c, 0, 75, 0
1, 23424, Note_on_c, 0, 74, 82
1, 23424, Note_on_c, 1, 58, 75
1, 23491, Note_on_c, 0, 74, 0
1, 23496, Note_on_c, 0, 77, 80
1, 23513, Note_on_c, 1, 58, 0
1, 23519, Note_on_c, 0, 77, 0
1, 23520, Note_on_c, 0, 75, 80
1, 23520, Note_on_c, 1, 67, 75
1, 23587, Note_on_c, 0, 75, 0
1, 23592, Note_on_c, 0, 72, 78
1, 23609, Note_on_c, 1, 67, 0
1, 23615, Note_on_c, 0, 72, 0
1, 23616, Note_on_c, 0, 74, 78
1, 23616, Note_on_c, 1, 65, 75
1, 23683, Note_on_c, 0, 74, 0
1, 23688, Note_on_c, 0, 70, 77
1, 23705, Note_on_c, 1, 65, 0
1, 23711, Note_on_c, 0, 70, 0
1, 23712, Note_on_c, 0, 72, 76
1, 23712, Note_on_c, 1, 63, 75
1, 23712, Note_on_c, 1, 53, 75
1, 23779, Note_on_c, 0, 72, 0
1, 23784, Note_on_c, 0, 69, 75
1, 23801, Note_on_c, 1, 63, 0
1, 23801, Note_on_c, 1, 53, 0
1, 23807, Note_on_c, 0, 69, 0
1, 23808, Note_on_c, 0, 70, 75
1, 23808, Note_on_c, 1, 62, 75
1, 23808, Note_on_c, 1, 58, 75
1, 23941, Note_on_c, 0, 70, 0
1, 23941, Note_on_c, 1, 62, 0
1, 23941, Note_on_c, 1, 58, 0
1, 24072, Note_on_c, 0, 58, 75
1, 24095, Note_on_c, 0, 58, 0
1, 24096, Note_on_c, 0, 60, 75
1, 24102, Note_on_c, 0, 60, 0
1, 24102, Note_on_c, 0, 58, 75
1, 24119, Note_on_c, 0, 58, 0
1, 24120, Note_on_c, 0, 57, 75
1, 24143, Note_on_c, 0, 57, 0
1, 24144, Note_on_c, 0, 58, 75
1, 24167, Note_on_c, 0, 58, 0
1, 24168, Note_on_c, 0, 60, 75
1, 24191, Note_on_c, 0, 60, 0
1, 24192, Note_on_c, 0, 62, 75
1, 24192, Note_on_c, 1, 46, 64
1, 24192, Note_on_c, 1, 34, 64
1, 24259, Note_on_c, 0, 62, 0
1, 24264, Note_on_c, 0, 58, 76
1, 24287, Note_on_c, 0, 58, 0
1, 24288, Note_on_c, 0, 63, 76
1, 24355, Note_on_c, 0, 63, 0
1, 24360, Note_on_c, 0, 60, 78
1, 24369, Note_on_c, 1, 46, 0
1, 24369, Note_on_c, 1, 34, 0
1, 24383, Note_on_c, 0, 60, 0
1, 24384, Note_on_c, 0, 65, 78
1, 24451, Note_on_c, 0, 65, 0
1, 24456, Note_on_c, 0, 62, 80
1, 24479, Note_on_c, 0, 62, 0
1, 24480, Note_on_c, 0, 70, 80
1, 24509, Note_on_c, 0, 70, 0
1, 24552, Note_on_c, 0, 70, 82
1, 24552, Note_on_c, 0, 62, 82
1, 24575, Note_on_c, 0, 70, 0
1, 24575, Note_on_c, 0, 62, 0
1, 24576, Note_on_c, 0, 70, 98
1, 24576, Note_on_c, 0, 62, 98
1, 24648, Note_on_c, 1, 52, 64
1, 24671, Note_on_c, 1, 52, 0
1, 24672, Note_on_c, 1, 53, 64
1, 24739, Note_on_c, 1, 53, 0
1, 24744, Note_on_c, 1, 52, 64
1, 24767, Note_on_c, 1, 52, 0
1, 24768, Note_on_c, 0, 70, 0
1, 24768, Note_on_c, 0, 62, 0
1, 24768, Note_on_c, 0, 69, 76
1, 24768, Note_on_c, 0, 60, 76
1, 24768, Note_on_c, 1, 53, 64
1, 24813, Note_on_c, 0, 69, 0
1, 24813, Note_on_c, 0, 60, 0
1, 24840, Note_on_c, 0, 65, 75
1, 24857, Note_on_c, 1, 53, 0
1, 24863, Note_on_c, 0, 65, 0
1, 24864, Note_on_c, 0, 67, 75
1, 24870, Note_on_c, 0, 67, 0
1, 24870, Note_on_c, 0, 65, 75
1, 24887, Note_on_c, 0, 65, 0
1, 24888, Note_on_c, 0, 64, 75
1, 24911, Note_on_c, 0, 64, 0
1, 24912, Note_on_c, 0, 65, 75
1, 24935, Note_on_c, 0, 65, 0
1, 24936, Note_on_c, 0, 67, 75
1, 24959, Note_on_c, 0, 67, 0
1, 24960, Note_on_c, 0, 69, 75
1, 24960, Note_on_c, 1, 53, 75
1, 24960, Note_on_c, 1, 41, 75
1, 25027, Note_on_c, 0, 69, 0
1, 25032, Note_on_c, 0, 65, 76
1, 25055, Note_on_c, 0, 65, 0
1, 25056, Note_on_c, 0, 70, 76
1, 25123, Note_on_c, 0, 70, 0
1, 25128, Note_on_c, 0, 67, 78
1, 25137, Note_on_c, 1, 53, 0
1, 25137, Note_on_c, 1, 41, 0
1, 25151, Note_on_c, 0, 67, 0
1, 25152, Note_on_c, 0, 72, 78
1, 25219, Note_on_c, 0, 72, 0
1, 25224, Note_on_c, 0, 69, 80
1, 25247, Note_on_c, 0, 69, 0
1, 25248, Note_on_c, 0, 75, 80
1, 25277, Note_on_c, 0, 75, 0
1, 25320, Note_on_c, 0, 75, 82
1, 25320, Note_on_c, 0, 72, 82
1, 25343, Note_on_c, 0, 75, 0
1, 25343, Note_on_c, 0, 72, 0
1, 25344, Note_on_c, 0, 75, 98
1, 25344, Note_on_c, 0, 72, 98
1, 25416, Note_on_c, 1, 57, 82
1, 25439, Note_on_c, 1, 57, 0
1, 25440, Note_on_c, 1, 58, 82
1, 25507, Note_on_c, 1, 58, 0
1, 25512, Note_on_c, 1, 57, 82
1, 25535, Note_on_c, 1, 57, 0
1, 25536, Note_on_c, 0, 75, 0
1, 25536, Note_on_c, 0, 72, 0
1, 25536, Note_on_c, 0, 74, 76
1, 25536, Note_on_c, 0, 70, 76
1, 25536, Note_on_c, 1, 58, 82
1, 25581, Note_on_c, 0, 74, 0
1, 25581, Note_on_c, 0, 70, 0
1, 25608, Note_on_c, 0, 74, 75
1, 25625, Note_on_c, 1, 58, 0
1, 25631, Note_on_c, 0, 74, 0
1, 25632, Note_on_c, 0, 75, 75
1, 25638, Note_on_c, 0, 75, 0
1, 25638, Note_on_c, 0, 74, 75
1, 25655, Note_on_c, 0, 74, 0
1, 25656, Note_on_c, 0, 72, 75
1, 25679, Note_on_c, 0, 72, 0
1, 25680, Note_on_c, 0, 74, 75
1, 25703, Note_on_c, 0, 74, 0
1, 25704, Note_on_c, 0, 75, 75
1, 25727, Note_on_c, 0, 75, 0
1, 25728, Note_on_c, 0, 77, 75
1, 25728, Note_on_c, 1, 58, 82
1, 25728, Note_on_c, 1, 53, 82
1, 25728, Note_on_c, 1, 50, 82
1, 25728, Note_on_c, 1, 46, 82
1, 25795, Note_on_c, 0, 77, 0
1, 25800, Note_on_c, 0, 74, 76
1, 25823, Note_on_c, 0, 74, 0
1, 25824, Note_on_c, 0, 82, 77
1, 25891, Note_on_c, 0, 82, 0
1, 25896, Note_on_c, 0, 77, 79
1, 25905, Note_on_c, 1, 58, 0
1, 25905, Note_on_c, 1, 53, 0
1, 25905, Note_on_c, 1, 50, 0
1, 25905, Note_on_c, 1, 46, 0
1, 25919, Note_on_c, 0, 77, 0
1, 25920, Note_on_c, 0, 86, 80
1, 25987, Note_on_c, 0, 86, 0
1, 25992, Note_on_c, 0, 84, 82
1, 26016, Note_on_c, 0, 84, 0
1, 26016, Note_on_c, 0, 82, 81
1, 26016, Note_on_c, 1, 62, 82
1, 26016, Note_on_c, 1, 58, 64
1, 26036, Note_on_c, 0, 82, 0
1, 26088, Note_on_c, 0, 81, 80
1, 26105, Note_on_c, 1, 62, 0
1, 26112, Note_on_c, 0, 81, 0
1, 26112, Note_on_c, 0, 79, 80
1, 26112, Note_on_c, 1, 63, 82
1, 26132, Note_on_c, 0, 79, 0
1, 26184, Note_on_c, 0, 77, 79
1, 26201, Note_on_c, 1, 63, 0
1, 26208, Note_on_c, 0, 77, 0
1, 26208, Note_on_c, 0, 75, 79
1, 26208, Note_on_c, 1, 65, 82
1, 26228, Note_on_c, 0, 75, 0
1, 26280, Note_on_c, 0, 74, 78
1, 26297, Note_on_c, 1, 65, 0
1, 26304, Note_on_c, 0, 74, 0
1, 26304, Note_on_c, 0, 72, 77
1, 26304, Note_on_c, 1, 67, 82
1, 26324, Note_on_c, 0, 72, 0
1, 26376, Note_on_c, 0, 79, 76
1, 26393, Note_on_c, 1, 67, 0
1, 26400, Note_on_c, 0, 79, 0
1, 26400, Note_on_c, 0, 77, 76
1, 26400, Note_on_c, 1, 69, 82
1, 26420, Note_on_c, 0, 77, 0
1, 26472, Note_on_c, 0, 75, 75
1, 26489, Note_on_c, 1, 69, 0
1, 26496, Note_on_c, 0, 75, 0
1, 26496, Note_on_c, 0, 74, 75
1, 26496, Note_on_c, 1, 70, 82
1, 26516, Note_on_c, 0, 74, 0
1, 26568, Note_on_c, 0, 77, 77
1, 26585, Note_on_c, 1, 70, 0
1, 26585, Note_on_c, 1, 58, 0
1, 26592, Note_on_c, 0, 77, 0
1, 26592, Note_on_c, 0, 82, 77
1, 26612, Note_on_c, 0, 82, 0
1, 26664, Note_on_c, 0, 77, 79
1, 26688, Note_on_c, 0, 77, 0
1, 26688, Note_on_c, 0, 86, 80
1, 26708, Note_on_c, 0, 86, 0
1, 26760, Note_on_c, 0, 84, 82
1, 26784, Note_on_c, 0, 84, 0
1, 26784, Note_on_c, 0, 82, 81
1, 26784, Note_on_c, 1, 62, 82
1, 26784, Note_on_c, 1, 58, 64
1, 26804, Note_on_c, 0, 82, 0
1, 26856, Note_on_c, 0, 81, 79
1, 26873, Note_on_c, 1, 62, 0
1, 26879, Note_on_c, 0, 81, 0
1, 26880, Note_on_c, 0, 79, 78
1, 26880, Note_on_c, 1, 63, 75
1, 26900, Note_on_c, 0, 79, 0
1, 26952, Note_on_c, 0, 77, 76
1, 26969, Note_on_c, 1, 63, 0
1, 26976, Note_on_c, 0, 77, 0
1, 26976, Note_on_c, 0, 75, 75
1, 26976, Note_on_c, 1, 65, 73
1, 26996, Note_on_c, 0, 75, 0
1, 27048, Note_on_c, 0, 74, 73
1, 27065, Note_on_c, 1, 65, 0
1, 27072, Note_on_c, 0, 74, 0
1, 27072, Note_on_c, 0, 72, 72
1, 27072, Note_on_c, 1, 67, 71
1, 27092, Note_on_c, 0, 72, 0
1, 27144, Note_on_c, 0, 79, 70
1, 27161, Note_on_c, 1, 67, 0
1, 27168, Note_on_c, 0, 79, 0
1, 27168, Note_on_c, 0, 77, 70
1, 27168, Note_on_c, 1, 69, 69
1, 27188, Note_on_c, 0, 77, 0
1, 27234, Note_on_c, 1, 58, 0
1, 27240, Note_on_c, 0, 75, 68
1, 27257, Note_on_c, 1, 69, 0
1, 27264, Note_on_c, 0, 75, 0
1, 27264, Note_on_c, 0, 74, 67
1, 27264, Note_on_c, 1, 70, 67
1, 27264, Note_on_c, 1, 58, 67
1, 27284, Note_on_c, 0, 74, 0
1, 27309, Note_on_c, 1, 70, 0
1, 27309, Note_on_c, 1, 58, 0
1, 27336, Note_on_c, 0, 79, 66
1, 27360, Note_on_c, 0, 79, 0
1, 27360, Note_on_c, 0, 77, 66
1, 27360, Note_on_c, 1, 69, 66
1, 27360, Note_on_c, 1, 58, 66
1, 27380, Note_on_c, 0, 77, 0
1, 27405, Note_on_c, 1, 69, 0
1, 27405, Note_on_c, 1, 58, 0
1, 27432, Note_on_c, 0, 75, 66
1, 27456, Note_on_c, 0, 75, 0
1, 27456, Note_on_c, 0, 74, 66
1, 27456, Note_on_c, 1, 70, 66
1, 27456, Note_on_c, 1, 58, 66
1, 27476, Note_on_c, 0, 74, 0
1, 27501, Note_on_c, 1, 70, 0
1, 27501, Note_on_c, 1, 58, 0
1, 27528, Note_on_c, 0, 79, 66
1, 27552, Note_on_c, 0, 79, 0
1, 27552, Note_on_c, 0, 77, 66
1, 27552, Note_on_c, 1, 69, 66
1, 27552, Note_on_c, 1, 58, 66
1, 27572, Note_on_c, 0, 77, 0
1, 27597, Note_on_c, 1, 69, 0
1, 27597, Note_on_c, 1, 58, 0
1, 27624, Note_on_c, 0, 75, 66
1, 27648, Note_on_c, 0, 75, 0
1, 27648, Note_on_c, 0, 74, 66
1, 27648, Note_on_c, 1, 70, 66
1, 27648, Note_on_c, 1, 58, 66
1, 27668, Note_on_c, 0, 74, 0
1, 27693, Note_on_c, 1, 70, 0
1, 27693, Note_on_c, 1, 58, 0
1, 27720, Note_on_c, 0, 84, 56
1, 27744, Note_on_c, 0, 84, 0
1, 27744, Note_on_c, 0, 82, 57
1, 27764, Note_on_c, 0, 82, 0
1, 27816, Note_on_c, 0, 81, 61
1, 27840, Note_on_c, 0, 81, 0
1, 27840, Note_on_c, 0, 79, 62
1, 27860, Note_on_c, 0, 79, 0
1, 27912, Note_on_c, 0, 77, 66
1, 27936, Note_on_c, 0, 77, 0
1, 27936, Note_on_c, 0, 75, 67
1, 27936, Note_on_c, 1, 53, 65
1, 27936, Note_on_c, 1, 50, 65
1, 27956, Note_on_c, 0, 75, 0
1, 28008, Note_on_c, 0, 74, 71
1, 28025, Note_on_c, 1, 53, 0
1, 28025, Note_on_c, 1, 50, 0
1, 28032, Note_on_c, 0, 74, 0
1, 28032, Note_on_c, 0, 72, 72
1, 28032, Note_on_c, 1, 55, 70
1, 28032, Note_on_c, 1, 51, 70
1, 28052, Note_on_c, 0, 72, 0
1, 28080, Note_on_c, 0, 78, 75
1, 28121, Note_on_c, 1, 55, 0
1, 28121, Note_on_c, 1, 51, 0
1, 28125, Note_on_c, 0, 78, 0
1, 28128, Note_on_c, 0, 81, 108
1, 28173, Note_on_c, 0, 81, 0
1, 28176, Note_on_c, 0, 79, 75
1, 28221, Note_on_c, 0, 79, 0
1, 28224, Note_on_c, 0, 77, 75
1, 28269, Note_on_c, 0, 77, 0
1, 28272, Note_on_c, 0, 75, 72
1, 28317, Note_on_c, 0, 75, 0
1, 28320, Note_on_c, 0, 74, 70
1, 28365, Note_on_c, 0, 74, 0
1, 28368, Note_on_c, 0, 72, 68
1, 28368, Note_on_c, 1, 60, 68
1, 28368, Note_on_c, 1, 52, 68
1, 28413, Note_on_c, 0, 72, 0
1, 28413, Note_on_c, 1, 60, 0
1, 28413, Note_on_c, 1, 52, 0
1, 28416, Note_on_c, 0, 70, 66
1, 28416, Note_on_c, 1, 62, 66
1, 28416, Note_on_c, 1, 53, 66
1, 28608, Note_on_c, 0, 70, 0
1, 28608, Note_on_c, 0, 69, 58
1, 28608, Note_on_c, 1, 62, 0
1, 28608, Note_on_c, 1, 60, 58
1, 28653, Note_on_c, 0, 69, 0
1, 28653, Note_on_c, 1, 60, 0
1, 28653, Note_on_c, 1, 53, 0
1, 28776, Note_on_c, 0, 69, 82
1, 28788, Note_on_c, 0, 69, 0
1, 28788, Note_on_c, 0, 72, 82
1, 28800, Note_on_c, 0, 72, 0
1, 28800, Note_on_c, 0, 77, 82
1, 28896, Note_on_c, 1, 53, 82
1, 28896, Note_on_c, 1, 48, 82
1, 28896, Note_on_c, 1, 45, 82
1, 28896, Note_on_c, 1, 41, 82
1, 28955, Note_on_c, 0, 77, 0
1, 28968, Note_on_c, 0, 72, 82
1, 28980, Note_on_c, 0, 72, 0
1, 28980, Note_on_c, 0, 76, 82
1, 28985, Note_on_c, 1, 53, 0
1, 28985, Note_on_c, 1, 48, 0
1, 28985, Note_on_c, 1, 45, 0
1, 28985, Note_on_c, 1, 41, 0
1, 28992, Note_on_c, 0, 76, 0
1, 28992, Note_on_c, 0, 79, 82
1, 29088, Note_on_c, 1, 48, 82
1, 29088, Note_on_c, 1, 43, 82
1, 29088, Note_on_c, 1, 40, 82
1, 29088, Note_on_c, 1, 36, 82
1, 29147, Note_on_c, 0, 79, 0
1, 29160, Note_on_c, 0, 72, 82
1, 29172, Note_on_c, 0, 72, 0
1, 29172, Note_on_c, 0, 77, 82
1, 29177, Note_on_c, 1, 48, 0
1, 29177, Note_on_c, 1, 43, 0
1, 29177, Note_on_c, 1, 40, 0
1, 29177, Note_on_c, 1, 36, 0
1, 29184, Note_on_c, 0, 77, 0
1, 29184, Note_on_c, 0, 81, 82
1, 29280, Note_on_c, 1, 41, 82
1, 29280, Note_on_c, 1, 36, 82
1, 29280, Note_on_c, 1, 33, 82
1, 29280, Note_on_c, 1, 29, 82
1, 29339, Note_on_c, 0, 81, 0
1, 29352, Note_on_c, 0, 81, 82
1, 29364, Note_on_c, 0, 81, 0
1, 29364, Note_on_c, 0, 84, 82
1, 29369, Note_on_c, 1, 41, 0
1, 29369, Note_on_c, 1, 36, 0
1, 29369, Note_on_c, 1, 33, 0
1, 29369, Note_on_c, 1, 29, 0
1, 29376, Note_on_c, 0, 84, 0
1, 29376, Note_on_c, 0, 89, 82
1, 29399, Note_on_c, 0, 89, 0
1, 29400, Note_on_c, 0, 88, 82
1, 29423, Note_on_c, 0, 88, 0
1, 29424, Note_on_c, 0, 86, 82
1, 29447, Note_on_c, 0, 86, 0
1, 29448, Note_on_c, 0, 84, 82
1, 29471, Note_on_c, 0, 84, 0
1, 29472, Note_on_c, 0, 82, 82
1, 29495, Note_on_c, 0, 82, 0
1, 29496, Note_on_c, 0, 81, 82
1, 29519, Note_on_c, 0, 81, 0
1, 29520, Note_on_c, 0, 79, 82
1, 29543, Note_on_c, 0, 79, 0
1, 29544, Note_on_c, 0, 77, 82
1, 29567, Note_on_c, 0, 77, 0
1, 29568, Note_on_c, 0, 76, 82
1, 29664, Note_on_c, 1, 72, 75
1, 29664, Note_on_c, 1, 70, 75
1, 29723, Note_on_c, 0, 76, 0
1, 29736, Note_on_c, 0, 76, 70
1, 29753, Note_on_c, 1, 72, 0
1, 29753, Note_on_c, 1, 70, 0
1, 29760, Note_on_c, 0, 76, 0
1, 29760, Note_on_c, 0, 77, 69
1, 29856, Note_on_c, 1, 72, 62
1, 29856, Note_on_c, 1, 69, 62
1, 29915, Note_on_c, 0, 77, 0
1, 29928, Note_on_c, 0, 77, 57
1, 29945, Note_on_c, 1, 72, 0
1, 29945, Note_on_c, 1, 69, 0
1, 29951, Note_on_c, 0, 77, 0
1, 29952, Note_on_c, 0, 78, 56
1, 30048, Note_on_c, 0, 78, 0
1, 30048, Note_on_c, 0, 79, 56
1, 30048, Note_on_c, 1, 72, 56
1, 30048, Note_on_c, 1, 64, 56
1, 30142, Note_on_c, 0, 79, 0
1, 30142, Note_on_c, 1, 72, 0
1, 30142, Note_on_c, 1, 64, 0
1, 30312, Note_on_c, 0, 79, 82
1, 30335, Note_on_c, 0, 79, 0
1, 30336, Note_on_c, 0, 80, 82
1, 30336, Note_on_c, 1, 65, 66
1, 30366, Note_on_c, 1, 65, 0
1, 30368, Note_on_c, 1, 68, 66
1, 30398, Note_on_c, 1, 68, 0
1, 30400, Note_on_c, 1, 72, 66
1, 30425, Note_on_c, 0, 80, 0
1, 30430, Note_on_c, 1, 72, 0
1, 30432, Note_on_c, 0, 80, 115
1, 30432, Note_on_c, 1, 65, 66
1, 30462, Note_on_c, 1, 65, 0
1, 30464, Note_on_c, 1, 68, 66
1, 30494, Note_on_c, 1, 68, 0
1, 30496, Note_on_c, 1, 72, 66
1, 30526, Note_on_c, 1, 72, 0
1, 30528, Note_on_c, 1, 65, 66
1, 30558, Note_on_c, 1, 65, 0
1, 30560, Note_on_c, 1, 68, 66
1, 30565, Note_on_c, 0, 80, 0
1, 30576, Note_on_c, 0, 80, 82
1, 30590, Note_on_c, 1, 68, 0
1, 30592, Note_on_c, 1, 72, 66
1, 30621, Note_on_c, 0, 80, 0
1, 30622, Note_on_c, 1, 72, 0
1, 30624, Note_on_c, 0, 82, 82
1, 30624, Note_on_c, 1, 65, 66
1, 30636, Note_on_c, 0, 82, 0
1, 30636, Note_on_c, 0, 80, 82
1, 30648, Note_on_c, 0, 80, 0
1, 30648, Note_on_c, 0, 79, 82
1, 30654, Note_on_c, 1, 65, 0
1, 30656, Note_on_c, 1, 68, 66
1, 30660, Note_on_c, 0, 79, 0
1, 30660, Note_on_c, 0, 80, 82
1, 30686, Note_on_c, 1, 68, 0
1, 30688, Note_on_c, 1, 72, 66
1, 30691, Note_on_c, 0, 80, 0
1, 30696, Note_on_c, 0, 82, 82
1, 30718, Note_on_c, 1, 72, 0
1, 30719, Note_on_c, 0, 82, 0
1, 30720, Note_on_c, 0, 80, 82
1, 30720, Note_on_c, 1, 63, 66
1, 30750, Note_on_c, 1, 63, 0
1, 30752, Note_on_c, 1, 68, 66
1, 30782, Note_on_c, 1, 68, 0
1, 30784, Note_on_c, 1, 72, 66
1, 30814, Note_on_c, 1, 72, 0
1, 30816, Note_on_c, 1, 63, 66
1, 30846, Note_on_c, 1, 63, 0
1, 30848, Note_on_c, 1, 68, 66
1, 30853, Note_on_c, 0, 80, 0
1, 30864, Note_on_c, 0, 77, 82
1, 30878, Note_on_c, 1, 68, 0
1, 30880, Note_on_c, 1, 72, 66
1, 30887, Note_on_c, 0, 77, 0
1, 30888, Note_on_c, 0, 78, 82
1, 30910, Note_on_c, 1, 72, 0
1, 30911, Note_on_c, 0, 78, 0
1, 30912, Note_on_c, 0, 80, 82
1, 30912, Note_on_c, 1, 63, 66
1, 30927, Note_on_c, 0, 80, 0
1, 30928, Note_on_c, 0, 78, 82
1, 30942, Note_on_c, 1, 63, 0
1, 30943, Note_on_c, 0, 78, 0
1, 30944, Note_on_c, 0, 80, 82
1, 30944, Note_on_c, 1, 68, 66
1, 30959, Note_on_c, 0, 80, 0
1, 30960, Note_on_c, 0, 78, 82
1, 30974, Note_on_c, 1, 68, 0
1, 30975, Note_on_c, 0, 78, 0
1, 30976, Note_on_c, 0, 80, 82
1, 30976, Note_on_c, 1, 72, 66
1, 30991, Note_on_c, 0, 80, 0
1, 30992, Note_on_c, 0, 78, 82
1, 31006, Note_on_c, 1, 72, 0
1, 31007, Note_on_c, 0, 78, 0
1, 31008, Note_on_c, 0, 80, 82
1, 31008, Note_on_c, 1, 63, 66
1, 31023, Note_on_c, 0, 80, 0
1, 31024, Note_on_c, 0, 78, 82
1, 31038, Note_on_c, 1, 63, 0
1, 31039, Note_on_c, 0, 78, 0
1, 31040, Note_on_c, 0, 77, 82
1, 31040, Note_on_c, 1, 68, 66
1, 31070, Note_on_c, 1, 68, 0
1, 31071, Note_on_c, 0, 77, 0
1, 31072, Note_on_c, 0, 78, 82
1, 31072, Note_on_c, 1, 72, 66
1, 31102, Note_on_c, 1, 72, 0
1, 31103, Note_on_c, 0, 78, 0
1, 31104, Note_on_c, 0, 77, 82
1, 31104, Note_on_c, 1, 61, 66
1, 31134, Note_on_c, 1, 61, 0
1, 31136, Note_on_c, 1, 65, 66
1, 31166, Note_on_c, 1, 65, 0
1, 31168, Note_on_c, 1, 68, 66
1, 31193, Note_on_c, 0, 77, 0
1, 31198, Note_on_c, 1, 68, 0
1, 31200, Note_on_c, 0, 77, 115
1, 31200, Note_on_c, 1, 61, 66
1, 31230, Note_on_c, 1, 61, 0
1, 31232, Note_on_c, 1, 65, 66
1, 31262, Note_on_c, 1, 65, 0
1, 31264, Note_on_c, 1, 68, 66
1, 31294, Note_on_c, 1, 68, 0
1, 31296, Note_on_c, 1, 61, 66
1, 31326, Note_on_c, 1, 61, 0
1, 31328, Note_on_c, 1, 65, 66
1, 31333, Note_on_c, 0, 77, 0
1, 31344, Note_on_c, 0, 77, 82
1, 31358, Note_on_c, 1, 65, 0
1, 31360, Note_on_c, 1, 68, 66
1, 31389, Note_on_c, 0, 77, 0
1, 31390, Note_on_c, 1, 68, 0
1, 31392, Note_on_c, 0, 78, 82
1, 31392, Note_on_c, 1, 61, 66
1, 31404, Note_on_c, 0, 78, 0
1, 31404, Note_on_c, 0, 77, 82
1, 31416, Note_on_c, 0, 77, 0
1, 31416, Note_on_c, 0, 75, 82
1, 31422, Note_on_c, 1, 61, 0
1, 31424, Note_on_c, 1, 65, 66
1, 31428, Note_on_c, 0, 75, 0
1, 31428, Note_on_c, 0, 77, 82
1, 31454, Note_on_c, 1, 65, 0
1, 31456, Note_on_c, 1, 68, 66
1, 31459, Note_on_c, 0, 77, 0
1, 31464, Note_on_c, 0, 78, 82
1, 31486, Note_on_c, 1, 68, 0
1, 31487, Note_on_c, 0, 78, 0
1, 31488, Note_on_c, 0, 77, 82
1, 31488, Note_on_c, 1, 60, 66
1, 31518, Note_on_c, 1, 60, 0
1, 31520, Note_on_c, 1, 63, 66
1, 31550, Note_on_c, 1, 63, 0
1, 31552, Note_on_c, 1, 69, 66
1, 31555, Note_on_c, 0, 77, 0
1, 31560, Note_on_c, 0, 75, 82
1, 31582, Note_on_c, 1, 69, 0
1, 31583, Note_on_c, 0, 75, 0
1, 31584, Note_on_c, 0, 78, 115
1, 31584, Note_on_c, 1, 60, 66
1, 31614, Note_on_c, 1, 60, 0
1, 31616, Note_on_c, 1, 63, 66
1, 31646, Note_on_c, 1, 63, 0
1, 31648, Note_on_c, 1, 69, 66
1, 31678, Note_on_c, 1, 69, 0
1, 31680, Note_on_c, 1, 60, 66
1, 31710, Note_on_c, 1, 60, 0
1, 31712, Note_on_c, 1, 63, 66
1, 31717, Note_on_c, 0, 78, 0
1, 31728, Note_on_c, 0, 77, 82
1, 31742, Note_on_c, 1, 63, 0
1, 31744, Note_on_c, 1, 69, 66
1, 31751, Note_on_c, 0, 77, 0
1, 31752, Note_on_c, 0, 75, 82
1, 31774, Note_on_c, 1, 69, 0
1, 31775, Note_on_c, 0, 75, 0
1, 31776, Note_on_c, 0, 73, 82
1, 31776, Note_on_c, 1, 60, 66
1, 31806, Note_on_c, 1, 60, 0
1, 31808, Note_on_c, 1, 63, 66
1, 31821, Note_on_c, 0, 73, 0
1, 31824, Note_on_c, 0, 72, 82
1, 31838, Note_on_c, 1, 63, 0
1, 31840, Note_on_c, 1, 69, 66
1, 31869, Note_on_c, 0, 72, 0
1, 31870, Note_on_c, 1, 69, 0
1, 31872, Note_on_c, 0, 75, 82
1, 31872, Note_on_c, 1, 58, 66
1, 31902, Note_on_c, 1, 58, 0
1, 31904, Note_on_c, 1, 61, 66
1, 31934, Note_on_c, 1, 61, 0
1, 31936, Note_on_c, 1, 65, 66
1, 31966, Note_on_c, 1, 65, 0
1, 31968, Note_on_c, 0, 75, 0
1, 31968, Note_on_c, 0, 73, 81
1, 31968, Note_on_c, 1, 58, 66
1, 31998, Note_on_c, 1, 58, 0
1, 32000, Note_on_c, 1, 61, 66
1, 32030, Note_on_c, 1, 61, 0
1, 32032, Note_on_c, 1, 65, 66
1, 32057, Note_on_c, 0, 73, 0
1, 32062, Note_on_c, 1, 65, 0
1, 32064, Note_on_c, 1, 58, 66
1, 32094, Note_on_c, 1, 58, 0
1, 32096, Note_on_c, 1, 61, 66
1, 32126, Note_on_c, 1, 61, 0
1, 32128, Note_on_c, 1, 65, 66
1, 32136, Note_on_c, 0, 73, 79
1, 32158, Note_on_c, 1, 65, 0
1, 32159, Note_on_c, 0, 73, 0
1, 32160, Note_on_c, 0, 75, 79
1, 32160, Note_on_c, 1, 58, 66
1, 32172, Note_on_c, 0, 75, 0
1, 32172, Note_on_c, 0, 73, 79
1, 32184, Note_on_c, 0, 73, 0
1, 32184, Note_on_c, 0, 72, 79
1, 32190, Note_on_c, 1, 58, 0
1, 32192, Note_on_c, 1, 61, 66
1, 32196, Note_on_c, 0, 72, 0
1, 32196, Note_on_c, 0, 73, 79
1, 32222, Note_on_c, 1, 61, 0
1, 32224, Note_on_c, 1, 65, 66
1, 32227, Note_on_c, 0, 73, 0
1, 32232, Note_on_c, 0, 75, 78
1, 32254, Note_on_c, 1, 65, 0
1, 32255, Note_on_c, 0, 75, 0
1, 32256, Note_on_c, 0, 73, 78
1, 32256, Note_on_c, 1, 56, 66
1, 32286, Note_on_c, 1, 56, 0
1, 32288, Note_on_c, 1, 60, 66
1, 32318, Note_on_c, 1, 60, 0
1, 32320, Note_on_c, 1, 65, 66
1, 32350, Note_on_c, 1, 65, 0
1, 32352, Note_on_c, 0, 73, 0
1, 32352, Note_on_c, 0, 72, 77
1, 32352, Note_on_c, 1, 56, 66
1, 32382, Note_on_c, 1, 56, 0
1, 32384, Note_on_c, 1, 60, 66
1, 32414, Note_on_c, 1, 60, 0
1, 32416, Note_on_c, 1, 65, 66
1, 32441, Note_on_c, 0, 72, 0
1, 32446, Note_on_c, 1, 65, 0
1, 32448, Note_on_c, 1, 56, 66
1, 32478, Note_on_c, 1, 56, 0
1, 32480, Note_on_c, 1, 60, 66
1, 32510, Note_on_c, 1, 60, 0
1, 32512, Note_on_c, 1, 65, 66
1, 32520, Note_on_c, 0, 72, 76
1, 32542, Note_on_c, 1, 65, 0
1, 32543, Note_on_c, 0, 72, 0
1, 32544, Note_on_c, 0, 74, 75
1, 32544, Note_on_c, 1, 56, 66
1, 32556, Note_on_c, 0, 74, 0
1, 32556, Note_on_c, 0, 72, 75
1, 32568, Note_on_c, 0, 72, 0
1, 32568, Note_on_c, 0, 71, 75
1, 32574, Note_on_c, 1, 56, 0
1, 32576, Note_on_c, 1, 60, 66
1, 32580, Note_on_c, 0, 71, 0
1, 32580, Note_on_c, 0, 72, 75
1, 32606, Note_on_c, 1, 60, 0
1, 32608, Note_on_c, 1, 65, 66
1, 32633, Note_on_c, 0, 72, 0
1, 32638, Note_on_c, 1, 65, 0
1, 32640, Note_on_c, 0, 71, 75
1, 32640, Note_on_c, 1, 55, 75
1, 32670, Note_on_c, 0, 71, 0
1, 32672, Note_on_c, 0, 74, 75
1, 32702, Note_on_c, 0, 74, 0
1, 32704, Note_on_c, 0, 72, 76
1, 32734, Note_on_c, 0, 72, 0
1, 32736, Note_on_c, 0, 75, 76
1, 32766, Note_on_c, 0, 75, 0
1, 32768, Note_on_c, 0, 74, 77
1, 32798, Note_on_c, 0, 74, 0
1, 32800, Note_on_c, 0, 77, 77
1, 32817, Note_on_c, 1, 55, 0
1, 32830, Note_on_c, 0, 77, 0
1, 32832, Note_on_c, 0, 75, 78
1, 32862, Note_on_c, 0, 75, 0
1, 32864, Note_on_c, 0, 79, 78
1, 32894, Note_on_c, 0, 79, 0
1, 32896, Note_on_c, 0, 77, 79
1, 32926, Note_on_c, 0, 77, 0
1, 32928, Note_on_c, 0, 80, 79
1, 32958, Note_on_c, 0, 80, 0
1, 32960, Note_on_c, 0, 79, 80
1, 32990, Note_on_c, 0, 79, 0
1, 32992, Note_on_c, 0, 82, 81
1, 33022, Note_on_c, 0, 82, 0
1, 33024, Note_on_c, 0, 80, 82
1, 33024, Note_on_c, 1, 59, 66
1, 33054, Note_on_c, 1, 59, 0
1, 33056, Note_on_c, 1, 62, 66
1, 33086, Note_on_c, 1, 62, 0
1, 33088, Note_on_c, 1, 67, 66
1, 33113, Note_on_c, 0, 80, 0
1, 33118, Note_on_c, 1, 67, 0
1, 33120, Note_on_c, 0, 79, 115
1, 33120, Note_on_c, 1, 59, 66
1, 33150, Note_on_c, 1, 59, 0
1, 33152, Note_on_c, 1, 62, 66
1, 33182, Note_on_c, 1, 62, 0
1, 33184, Note_on_c, 1, 67, 66
1, 33214, Note_on_c, 1, 67, 0
1, 33216, Note_on_c, 1, 59, 66
1, 33246, Note_on_c, 1, 59, 0
1, 33248, Note_on_c, 1, 62, 66
1, 33278, Note_on_c, 1, 62, 0
1, 33280, Note_on_c, 1, 67, 66
1, 33297, Note_on_c, 0, 79, 0
1, 33310, Note_on_c, 1, 67, 0
1, 33312, Note_on_c, 0, 77, 82
1, 33312, Note_on_c, 1, 59, 66
1, 33325, Note_on_c, 0, 77, 0
1, 33326, Note_on_c, 0, 79, 82
1, 33339, Note_on_c, 0, 79, 0
1, 33340, Note_on_c, 0, 77, 82
1, 33342, Note_on_c, 1, 59, 0
1, 33344, Note_on_c, 1, 62, 66
1, 33353, Note_on_c, 0, 77, 0
1, 33354, Note_on_c, 0, 79, 82
1, 33367, Note_on_c, 0, 79, 0
1, 33368, Note_on_c, 0, 77, 82
1, 33374, Note_on_c, 1, 62, 0
1, 33376, Note_on_c, 1, 67, 66
1, 33381, Note_on_c, 0, 77, 0
1, 33382, Note_on_c, 0, 76, 82
1, 33394, Note_on_c, 0, 76, 0
1, 33395, Note_on_c, 0, 77, 82
1, 33406, Note_on_c, 1, 67, 0
1, 33407, Note_on_c, 0, 77, 0
1, 33408, Note_on_c, 0, 76, 82
1, 33408, Note_on_c, 1, 60, 75
1, 33438, Note_on_c, 0, 76, 0
1, 33440, Note_on_c, 0, 79, 82
1, 33470, Note_on_c, 0, 79, 0
1, 33472, Note_on_c, 0, 77, 82
1, 33502, Note_on_c, 0, 77, 0
1, 33504, Note_on_c, 0, 81, 82
1, 33534, Note_on_c, 0, 81, 0
1, 33536, Note_on_c, 0, 79, 82
1, 33566, Note_on_c, 0, 79, 0
1, 33568, Note_on_c, 0, 82, 82
1, 33585, Note_on_c, 1, 60, 0
1, 33598, Note_on_c, 0, 82, 0
1, 33600, Note_on_c, 0, 81, 82
1, 33630, Note_on_c, 0, 81, 0
1, 33632, Note_on_c, 0, 84, 82
1, 33662, Note_on_c, 0, 84, 0
1, 33664, Note_on_c, 0, 82, 82
1, 33694, Note_on_c, 0, 82, 0
1, 33696, Note_on_c, 0, 86, 82
1, 33726, Note_on_c, 0, 86, 0
1, 33728, Note_on_c, 0, 84, 82
1, 33758, Note_on_c, 0, 84, 0
1, 33760, Note_on_c, 0, 88, 82
1, 33790, Note_on_c, 0, 88, 0
1, 33792, Note_on_c, 0, 86, 82
1, 33792, Note_on_c, 1, 64, 66
1, 33822, Note_on_c, 1, 64, 0
1, 33824, Note_on_c, 1, 67, 66
1, 33854, Note_on_c, 1, 67, 0
1, 33856, Note_on_c, 1, 72, 66
1, 33881, Note_on_c, 0, 86, 0
1, 33886, Note_on_c, 1, 72, 0
1, 33888, Note_on_c, 0, 84, 115
1, 33888, Note_on_c, 1, 64, 66
1, 33918, Note_on_c, 1, 64, 0
1, 33920, Note_on_c, 1, 67, 66
1, 33950, Note_on_c, 1, 67, 0
1, 33952, Note_on_c, 1, 72, 66
1, 33982, Note_on_c, 1, 72, 0
1, 33984, Note_on_c, 1, 64, 66
1, 34014, Note_on_c, 1, 64, 0
1, 34016, Note_on_c, 1, 67, 66
1, 34046, Note_on_c, 1, 67, 0
1, 34048, Note_on_c, 1, 72, 66
1, 34065, Note_on_c, 0, 84, 0
1, 34078, Note_on_c, 1, 72, 0
1, 34080, Note_on_c, 0, 82, 82
1, 34080, Note_on_c, 1, 64, 66
1, 34093, Note_on_c, 0, 82, 0
1, 34094, Note_on_c, 0, 84, 82
1, 34107, Note_on_c, 0, 84, 0
1, 34108, Note_on_c, 0, 82, 82
1, 34110, Note_on_c, 1, 64, 0
1, 34112, Note_on_c, 1, 67, 66
1, 34121, Note_on_c, 0, 82, 0
1, 34122, Note_on_c, 0, 84, 82
1, 34135, Note_on_c, 0, 84, 0
1, 34136, Note_on_c, 0, 82, 82
1, 34142, Note_on_c, 1, 67, 0
1, 34144, Note_on_c, 1, 72, 66
1, 34149, Note_on_c, 0, 82, 0
1, 34150, Note_on_c, 0, 81, 82
1, 34162, Note_on_c, 0, 81, 0
1, 34163, Note_on_c, 0, 82, 82
1, 34174, Note_on_c, 1, 72, 0
1, 34175, Note_on_c, 0, 82, 0
1, 34176, Note_on_c, 0, 81, 82
1, 34176, Note_on_c, 1, 65, 66
1, 34206, Note_on_c, 1, 65, 0
1, 34208, Note_on_c, 1, 69, 66
1, 34238, Note_on_c, 1, 69, 0
1, 34240, Note_on_c, 1, 72, 66
1, 34265, Note_on_c, 0, 81, 0
1, 34270, Note_on_c, 1, 72, 0
1, 34272, Note_on_c, 0, 84, 82
1, 34272, Note_on_c, 1, 65, 66
1, 34302, Note_on_c, 1, 65, 0
1, 34304, Note_on_c, 1, 69, 66
1, 34334, Note_on_c, 1, 69, 0
1, 34336, Note_on_c, 1, 72, 66
1, 34366, Note_on_c, 1, 72, 0
1, 34368, Note_on_c, 1, 67, 66
1, 34398, Note_on_c, 1, 67, 0
1, 34400, Note_on_c, 1, 70, 66
1, 34430, Note_on_c, 1, 70, 0
1, 34432, Note_on_c, 1, 72, 66
1, 34435, Note_on_c, 0, 84, 0
1, 34440, Note_on_c, 0, 76, 82
1, 34462, Note_on_c, 1, 72, 0
1, 34463, Note_on_c, 0, 76, 0
1, 34464, Note_on_c, 0, 76, 82
1, 34464, Note_on_c, 1, 67, 66
1, 34477, Note_on_c, 0, 76, 0
1, 34478, Note_on_c, 0, 77, 82
1, 34491, Note_on_c, 0, 77, 0
1, 34492, Note_on_c, 0, 76, 82
1, 34494, Note_on_c, 1, 67, 0
1, 34496, Note_on_c, 1, 70, 66
1, 34505, Note_on_c, 0, 76, 0
1, 34506, Note_on_c, 0, 77, 82
1, 34519, Note_on_c, 0, 77, 0
1, 34520, Note_on_c, 0, 76, 82
1, 34526, Note_on_c, 1, 70, 0
1, 34528, Note_on_c, 1, 72, 66
1, 34533, Note_on_c, 0, 76, 0
1, 34534, Note_on_c, 0, 74, 82
1, 34546, Note_on_c, 0, 74, 0
1, 34547, Note_on_c, 0, 76, 82
1, 34558, Note_on_c, 1, 72, 0
1, 34559, Note_on_c, 0, 76, 0
1, 34560, Note_on_c, 0, 77, 82
1, 34560, Note_on_c, 1, 65, 66
1, 34590, Note_on_c, 1, 65, 0
1, 34592, Note_on_c, 1, 69, 66
1, 34622, Note_on_c, 1, 69, 0
1, 34624, Note_on_c, 1, 72, 66
1, 34649, Note_on_c, 0, 77, 0
1, 34654, Note_on_c, 1, 72, 0
1, 34656, Note_on_c, 0, 81, 82
1, 34656, Note_on_c, 1, 65, 66
1, 34686, Note_on_c, 1, 65, 0
1, 34688, Note_on_c, 1, 69, 66
1, 34718, Note_on_c, 1, 69, 0
1, 34720, Note_on_c, 1, 72, 66
1, 34745, Note_on_c, 0, 81, 0
1, 34750, Note_on_c, 1, 72, 0
1, 34752, Note_on_c, 1, 64, 66
1, 34782, Note_on_c, 1, 64, 0
1, 34784, Note_on_c, 1, 67, 66
1, 34814, Note_on_c, 1, 67, 0
1, 34816, Note_on_c, 1, 72, 66
1, 34824, Note_on_c, 0, 79, 82
1, 34846, Note_on_c, 1, 72, 0
1, 34847, Note_on_c, 0, 79, 0
1, 34848, Note_on_c, 0, 79, 82
1, 34848, Note_on_c, 1, 64, 66
1, 34861, Note_on_c, 0, 79, 0
1, 34862, Note_on_c, 0, 81, 82
1, 34875, Note_on_c, 0, 81, 0
1, 34876, Note_on_c, 0, 79, 82
1, 34878, Note_on_c, 1, 64, 0
1, 34880, Note_on_c, 1, 67, 66
1, 34889, Note_on_c, 0, 79, 0
1, 34890, Note_on_c, 0, 81, 82
1, 34903, Note_on_c, 0, 81, 0
1, 34904, Note_on_c, 0, 79, 82
1, 34910, Note_on_c, 1, 67, 0
1, 34912, Note_on_c, 1, 72, 66
1, 34917, Note_on_c, 0, 79, 0
1, 34918, Note_on_c, 0, 77, 82
1, 34930, Note_on_c, 0, 77, 0
1, 34931, Note_on_c, 0, 79, 82
1, 34942, Note_on_c, 1, 72, 0
1, 34943, Note_on_c, 0, 79, 0
1, 34944, Note_on_c, 0, 81, 82
1, 34944, Note_on_c, 1, 65, 66
1, 34974, Note_on_c, 1, 65, 0
1, 34976, Note_on_c, 1, 69, 66
1, 35006, Note_on_c, 1, 69, 0
1, 35008, Note_on_c, 1, 72, 66
1, 35033, Note_on_c, 0, 81, 0
1, 35038, Note_on_c, 1, 72, 0
1, 35040, Note_on_c, 0, 84, 115
1, 35040, Note_on_c, 1, 65, 66
1, 35070, Note_on_c, 1, 65, 0
1, 35072, Note_on_c, 1, 69, 66
1, 35102, Note_on_c, 1, 69, 0
1, 35104, Note_on_c, 1, 72, 66
1, 35134, Note_on_c, 1, 72, 0
1, 35136, Note_on_c, 1, 67, 66
1, 35166, Note_on_c, 0, 84, 0
1, 35166, Note_on_c, 1, 67, 0
1, 35168, Note_on_c, 0, 82, 82
1, 35168, Note_on_c, 1, 70, 66
1, 35198, Note_on_c, 0, 82, 0
1, 35198, Note_on_c, 1, 70, 0
1, 35200, Note_on_c, 0, 81, 82
1, 35200, Note_on_c, 1, 72, 66
1, 35230, Note_on_c, 0, 81, 0
1, 35230, Note_on_c, 1, 72, 0
1, 35232, Note_on_c, 0, 79, 82
1, 35232, Note_on_c, 1, 67, 66
1, 35262, Note_on_c, 0, 79, 0
1, 35262, Note_on_c, 1, 67, 0
1, 35264, Note_on_c, 0, 77, 82
1, 35264, Note_on_c, 1, 70, 66
1, 35294, Note_on_c, 0, 77, 0
1, 35294, Note_on_c, 1, 70, 0
1, 35296, Note_on_c, 0, 76, 82
1, 35296, Note_on_c, 1, 72, 66
1, 35326, Note_on_c, 0, 76, 0
1, 35326, Note_on_c, 1, 72, 0
1, 35328, Note_on_c, 0, 77, 82
1, 35328, Note_on_c, 1, 65, 66
1, 35358, Note_on_c, 1, 65, 0
1, 35360, Note_on_c, 1, 69, 66
1, 35390, Note_on_c, 1, 69, 0
1, 35392, Note_on_c, 1, 72, 67
1, 35395, Note_on_c, 0, 77, 0
1, 35400, Note_on_c, 0, 77, 82
1, 35422, Note_on_c, 1, 72, 0
1, 35423, Note_on_c, 0, 77, 0
1, 35424, Note_on_c, 0, 77, 82
1, 35424, Note_on_c, 1, 65, 67
1, 35437, Note_on_c, 0, 77, 0
1, 35438, Note_on_c, 0, 79, 82
1, 35451, Note_on_c, 0, 79, 0
1, 35452, Note_on_c, 0, 77, 82
1, 35454, Note_on_c, 1, 65, 0
1, 35456, Note_on_c, 1, 69, 68
1, 35465, Note_on_c, 0, 77, 0
1, 35466, Note_on_c, 0, 79, 82
1, 35479, Note_on_c, 0, 79, 0
1, 35480, Note_on_c, 0, 77, 82
1, 35486, Note_on_c, 1, 69, 0
1, 35488, Note_on_c, 1, 72, 69
1, 35493, Note_on_c, 0, 77, 0
1, 35494, Note_on_c, 0, 75, 82
1, 35506, Note_on_c, 0, 75, 0
1, 35507, Note_on_c, 0, 77, 82
1, 35518, Note_on_c, 1, 72, 0
1, 35519, Note_on_c, 0, 77, 0
1, 35520, Note_on_c, 0, 79, 82
1, 35520, Note_on_c, 1, 64, 69
1, 35550, Note_on_c, 1, 64, 0
1, 35552, Note_on_c, 1, 67, 70
1, 35582, Note_on_c, 1, 67, 0
1, 35584, Note_on_c, 1, 72, 71
1, 35587, Note_on_c, 0, 79, 0
1, 35592, Note_on_c, 0, 79, 82
1, 35614, Note_on_c, 1, 72, 0
1, 35615, Note_on_c, 0, 79, 0
1, 35616, Note_on_c, 0, 79, 82
1, 35616, Note_on_c, 1, 64, 71
1, 35629, Note_on_c, 0, 79, 0
1, 35630, Note_on_c, 0, 81, 82
1, 35643, Note_on_c, 0, 81, 0
1, 35644, Note_on_c, 0, 79, 82
1, 35646, Note_on_c, 1, 64, 0
1, 35648, Note_on_c, 1, 67, 72
1, 35657, Note_on_c, 0, 79, 0
1, 35658, Note_on_c, 0, 81, 82
1, 35671, Note_on_c, 0, 81, 0
1, 35672, Note_on_c, 0, 79, 82
1, 35678, Note_on_c, 1, 67, 0
1, 35680, Note_on_c, 1, 72, 72
1, 35685, Note_on_c, 0, 79, 0
1, 35686, Note_on_c, 0, 77, 82
1, 35698, Note_on_c, 0, 77, 0
1, 35699, Note_on_c, 0, 79, 82
1, 35710, Note_on_c, 1, 72, 0
1, 35711, Note_on_c, 0, 79, 0
1, 35712, Note_on_c, 0, 81, 82
1, 35712, Note_on_c, 1, 65, 73
1, 35742, Note_on_c, 1, 65, 0
1, 35744, Note_on_c, 1, 69, 74
1, 35774, Note_on_c, 1, 69, 0
1, 35776, Note_on_c, 1, 72, 74
1, 35779, Note_on_c, 0, 81, 0
1, 35784, Note_on_c, 0, 81, 82
1, 35806, Note_on_c, 1, 72, 0
1, 35807, Note_on_c, 0, 81, 0
1, 35808, Note_on_c, 0, 81, 82
1, 35808, Note_on_c, 1, 65, 75
1, 35821, Note_on_c, 0, 81, 0
1, 35822, Note_on_c, 0, 82, 82
1, 35835, Note_on_c, 0, 82, 0
1, 35836, Note_on_c, 0, 81, 82
1, 35838, Note_on_c, 1, 65, 0
1, 35840, Note_on_c, 1, 69, 76
1, 35849, Note_on_c, 0, 81, 0
1, 35850, Note_on_c, 0, 82, 82
1, 35863, Note_on_c, 0, 82, 0
1, 35864, Note_on_c, 0, 81, 82
1, 35870, Note_on_c, 1, 69, 0
1, 35872, Note_on_c, 1, 72, 76
1, 35877, Note_on_c, 0, 81, 0
1, 35878, Note_on_c, 0, 79, 82
1, 35890, Note_on_c, 0, 79, 0
1, 35891, Note_on_c, 0, 81, 82
1, 35902, Note_on_c, 1, 72, 0
1, 35903, Note_on_c, 0, 81, 0
1, 35904, Note_on_c, 0, 82, 82
1, 35904, Note_on_c, 1, 62, 77
1, 35934, Note_on_c, 1, 62, 0
1, 35936, Note_on_c, 1, 65, 77
1, 35966, Note_on_c, 1, 65, 0
1, 35968, Note_on_c, 1, 70, 78
1, 35971, Note_on_c, 0, 82, 0
1, 35976, Note_on_c, 0, 82, 82
1, 35998, Note_on_c, 1, 70, 0
1, 35999, Note_on_c, 0, 82, 0
1, 36000, Note_on_c, 0, 82, 82
1, 36000, Note_on_c, 1, 62, 79
1, 36013, Note_on_c, 0, 82, 0
1, 36014, Note_on_c, 0, 84, 82
1, 36027, Note_on_c, 0, 84, 0
1, 36028, Note_on_c, 0, 82, 82
1, 36030, Note_on_c, 1, 62, 0
1, 36032, Note_on_c, 1, 65, 79
1, 36041, Note_on_c, 0, 82, 0
1, 36042, Note_on_c, 0, 84, 82
1, 36055, Note_on_c, 0, 84, 0
1, 36056, Note_on_c, 0, 82, 82
1, 36062, Note_on_c, 1, 65, 0
1, 36064, Note_on_c, 1, 70, 80
1, 36069, Note_on_c, 0, 82, 0
1, 36070, Note_on_c, 0, 81, 82
1, 36082, Note_on_c, 0, 81, 0
1, 36083, Note_on_c, 0, 82, 82
1, 36094, Note_on_c, 1, 70, 0
1, 36095, Note_on_c, 0, 82, 0
1, 36096, Note_on_c, 0, 84, 82
1, 36096, Note_on_c, 1, 57, 82
1, 36141, Note_on_c, 0, 84, 0
1, 36168, Note_on_c, 0, 77, 82
1, 36180, Note_on_c, 0, 77, 0
1, 36180, Note_on_c, 0, 79, 82
1, 36185, Note_on_c, 1, 57, 0
1, 36192, Note_on_c, 0, 79, 0
1, 36192, Note_on_c, 0, 81, 82
1, 36239, Note_on_c, 0, 81, 0
1, 36264, Note_on_c, 0, 81, 85
1, 36276, Note_on_c, 0, 81, 0
1, 36276, Note_on_c, 0, 82, 86
1, 36288, Note_on_c, 0, 82, 0
1, 36288, Note_on_c, 0, 84, 86
1, 36335, Note_on_c, 0, 84, 0
1, 36360, Note_on_c, 0, 84, 89
1, 36372, Note_on_c, 0, 84, 0
1, 36372, Note_on_c, 0, 86, 89
1, 36384, Note_on_c, 0, 86, 0
1, 36384, Note_on_c, 0, 87, 90
1, 36431, Note_on_c, 0, 87, 0
1, 36456, Note_on_c, 0, 87, 82
1, 36468, Note_on_c, 0, 87, 0
1, 36468, Note_on_c, 0, 86, 81
1, 36480, Note_on_c, 0, 86, 0
1, 36480, Note_on_c, 0, 84, 81
1, 36480, Note_on_c, 1, 65, 82
1, 36480, Note_on_c, 1, 57, 82
1, 36527, Note_on_c, 0, 84, 0
1, 36552, Note_on_c, 0, 84, 80
1, 36564, Note_on_c, 0, 84, 0
1, 36564, Note_on_c, 0, 82, 80
1, 36569, Note_on_c, 1, 65, 0
1, 36569, Note_on_c, 1, 57, 0
1, 36576, Note_on_c, 0, 82, 0
1, 36576, Note_on_c, 0, 81, 79
1, 36623, Note_on_c, 0, 81, 0
1, 36648, Note_on_c, 0, 81, 78
1, 36660, Note_on_c, 0, 81, 0
1, 36660, Note_on_c, 0, 79, 78
1, 36672, Note_on_c, 0, 79, 0
1, 36672, Note_on_c, 0, 77, 78
1, 36702, Note_on_c, 0, 77, 0
1, 36704, Note_on_c, 0, 79, 77
1, 36734, Note_on_c, 0, 79, 0
1, 36736, Note_on_c, 0, 77, 77
1, 36766, Note_on_c, 0, 77, 0
1, 36768, Note_on_c, 0, 75, 76
1, 36798, Note_on_c, 0, 75, 0
1, 36800, Note_on_c, 0, 74, 76
1, 36830, Note_on_c, 0, 74, 0
1, 36832, Note_on_c, 0, 73, 75
1, 36862, Note_on_c, 0, 73, 0
1, 36864, Note_on_c, 0, 74, 75
1, 36864, Note_on_c, 1, 65, 82
1, 36864, Note_on_c, 1, 58, 82
1, 36894, Note_on_c, 0, 74, 0
1, 36896, Note_on_c, 0, 82, 75
1, 36926, Note_on_c, 0, 82, 0
1, 36928, Note_on_c, 0, 81, 76
1, 36953, Note_on_c, 1, 65, 0
1, 36953, Note_on_c, 1, 58, 0
1, 36958, Note_on_c, 0, 81, 0
1, 36960, Note_on_c, 0, 79, 77
1, 36990, Note_on_c, 0, 79, 0
1, 36992, Note_on_c, 0, 86, 78
1, 37022, Note_on_c, 0, 86, 0
1, 37024, Note_on_c, 0, 84, 80
1, 37054, Note_on_c, 0, 84, 0
1, 37056, Note_on_c, 0, 82, 81
1, 37086, Note_on_c, 0, 82, 0
1, 37088, Note_on_c, 0, 81, 81
1, 37118, Note_on_c, 0, 81, 0
1, 37120, Note_on_c, 0, 79, 80
1, 37150, Note_on_c, 0, 79, 0
1, 37152, Note_on_c, 0, 77, 79
1, 37182, Note_on_c, 0, 77, 0
1, 37184, Note_on_c, 0, 76, 78
1, 37214, Note_on_c, 0, 76, 0
1, 37216, Note_on_c, 0, 74, 76
1, 37246, Note_on_c, 0, 74, 0
1, 37248, Note_on_c, 0, 72, 75
1, 37344, Note_on_c, 1, 69, 66
1, 37344, Note_on_c, 1, 65, 66
1, 37344, Note_on_c, 1, 60, 66
1, 37383, Note_on_c, 1, 69, 0
1, 37383, Note_on_c, 1, 65, 0
1, 37383, Note_on_c, 1, 60, 0
1, 37440, Note_on_c, 1, 69, 66
1, 37440, Note_on_c, 1, 65, 66
1, 37440, Note_on_c, 1, 60, 66
1, 37470, Note_on_c, 0, 72, 0
1, 37472, Note_on_c, 0, 72, 79
1, 37502, Note_on_c, 0, 72, 0
1, 37504, Note_on_c, 0, 73, 79
1, 37529, Note_on_c, 1, 69, 0
1, 37529, Note_on_c, 1, 65, 0
1, 37529, Note_on_c, 1, 60, 0
1, 37534, Note_on_c, 0, 73, 0
1, 37536, Note_on_c, 0, 74, 80
1, 37566, Note_on_c, 0, 74, 0
1, 37568, Note_on_c, 0, 75, 80
1, 37598, Note_on_c, 0, 75, 0
1, 37600, Note_on_c, 0, 76, 81
1, 37630, Note_on_c, 0, 76, 0
1, 37632, Note_on_c, 0, 77, 82
1, 37632, Note_on_c, 1, 69, 66
1, 37632, Note_on_c, 1, 65, 66
1, 37632, Note_on_c, 1, 60, 66
1, 37662, Note_on_c, 0, 77, 0
1, 37664, Note_on_c, 0, 72, 75
1, 37671, Note_on_c, 1, 69, 0
1, 37671, Note_on_c, 1, 65, 0
1, 37671, Note_on_c, 1, 60, 0
1, 37694, Note_on_c, 0, 72, 0
1, 37696, Note_on_c, 0, 73, 76
1, 37726, Note_on_c, 0, 73, 0
1, 37728, Note_on_c, 0, 74, 77
1, 37758, Note_on_c, 0, 74, 0
1, 37760, Note_on_c, 0, 75, 78
1, 37790, Note_on_c, 0, 75, 0
1, 37792, Note_on_c, 0, 76, 79
1, 37822, Note_on_c, 0, 76, 0
1, 37824, Note_on_c, 0, 77, 80
1, 37824, Note_on_c, 1, 69, 69
1, 37824, Note_on_c, 1, 65, 69
1, 37824, Note_on_c, 1, 60, 69
1, 37854, Note_on_c, 0, 77, 0
1, 37856, Note_on_c, 0, 72, 82
1, 37863, Note_on_c, 1, 69, 0
1, 37863, Note_on_c, 1, 65, 0
1, 37863, Note_on_c, 1, 60, 0
1, 37886, Note_on_c, 0, 72, 0
1, 37888, Note_on_c, 0, 73, 82
1, 37918, Note_on_c, 0, 73, 0
1, 37920, Note_on_c, 0, 74, 82
1, 37950, Note_on_c, 0, 74, 0
1, 37952, Note_on_c, 0, 75, 82
1, 37982, Note_on_c, 0, 75, 0
1, 37984, Note_on_c, 0, 76, 83
1, 38014, Note_on_c, 0, 76, 0
1, 38016, Note_on_c, 0, 77, 83
1, 38016, Note_on_c, 1, 69, 73
1, 38016, Note_on_c, 1, 65, 73
1, 38016, Note_on_c, 1, 60, 73
1, 38046, Note_on_c, 0, 77, 0
1, 38048, Note_on_c, 0, 72, 83
1, 38055, Note_on_c, 1, 69, 0
1, 38055, Note_on_c, 1, 65, 0
1, 38055, Note_on_c, 1, 60, 0
1, 38078, Note_on_c, 0, 72, 0
1, 38080, Note_on_c, 0, 73, 84
1, 38110, Note_on_c, 0, 73, 0
1, 38112, Note_on_c, 0, 74, 84
1, 38142, Note_on_c, 0, 74, 0
1, 38144, Note_on_c, 0, 75, 84
1, 38174, Note_on_c, 0, 75, 0
1, 38176, Note_on_c, 0, 76, 85
1, 38206, Note_on_c, 0, 76, 0
1, 38208, Note_on_c, 0, 77, 85
1, 38238, Note_on_c, 0, 77, 0
1, 38240, Note_on_c, 0, 78, 85
1, 38270, Note_on_c, 0, 78, 0
1, 38272, Note_on_c, 0, 79, 86
1, 38302, Note_on_c, 0, 79, 0
1, 38304, Note_on_c, 0, 80, 86
1, 38334, Note_on_c, 0, 80, 0
1, 38336, Note_on_c, 0, 81, 86
1, 38366, Note_on_c, 0, 81, 0
1, 38368, Note_on_c, 0, 82, 87
1, 38398, Note_on_c, 0, 82, 0
1, 38400, Note_on_c, 0, 83, 87
1, 38430, Note_on_c, 0, 83, 0
1, 38432, Note_on_c, 0, 84, 87
1, 38462, Note_on_c, 0, 84, 0
1, 38464, Note_on_c, 0, 85, 88
1, 38494, Note_on_c, 0, 85, 0
1, 38496, Note_on_c, 0, 86, 88
1, 38526, Note_on_c, 0, 86, 0
1, 38528, Note_on_c, 0, 87, 88
1, 38558, Note_on_c, 0, 87, 0
1, 38560, Note_on_c, 0, 88, 89
1, 38590, Note_on_c, 0, 88, 0
1, 38592, Note_on_c, 0, 89, 106
1, 38688, Note_on_c, 0, 89, 0
1, 38688, Note_on_c, 0, 71, 82
1, 38688, Note_on_c, 1, 59, 82
1, 38688, Note_on_c, 1, 47, 82
1, 38777, Note_on_c, 0, 71, 0
1, 38784, Note_on_c, 0, 72, 82
1, 38784, Note_on_c, 1, 59, 0
1, 38784, Note_on_c, 1, 47, 0
1, 38784, Note_on_c, 1, 60, 82
1, 38784, Note_on_c, 1, 48, 82
1, 38796, Note_on_c, 0, 72, 0
1, 38796, Note_on_c, 0, 77, 82
1, 38808, Note_on_c, 0, 77, 0
1, 38808, Note_on_c, 0, 81, 82
1, 38820, Note_on_c, 0, 81, 0
1, 38820, Note_on_c, 0, 84, 98
1, 38873, Note_on_c, 1, 60, 0
1, 38873, Note_on_c, 1, 48, 0
1, 38880, Note_on_c, 0, 84, 0
1, 38880, Note_on_c, 0, 82, 82
1, 38903, Note_on_c, 0, 82, 0
1, 38904, Note_on_c, 0, 81, 82
1, 38927, Note_on_c, 0, 81, 0
1, 38928, Note_on_c, 0, 79, 82
1, 38951, Note_on_c, 0, 79, 0
1, 38952, Note_on_c, 0, 77, 82
1, 38975, Note_on_c, 0, 77, 0
1, 38976, Note_on_c, 0, 81, 82
1, 38976, Note_on_c, 1, 70, 75
1, 38976, Note_on_c, 1, 60, 75
1, 38991, Note_on_c, 0, 81, 0
1, 38992, Note_on_c, 0, 79, 82
1, 39007, Note_on_c, 0, 79, 0
1, 39008, Note_on_c, 0, 81, 82
1, 39023, Note_on_c, 0, 81, 0
1, 39024, Note_on_c, 0, 79, 82
1, 39039, Note_on_c, 0, 79, 0
1, 39040, Note_on_c, 0, 81, 82
1, 39055, Note_on_c, 0, 81, 0
1, 39056, Note_on_c, 0, 79, 82
1, 39071, Note_on_c, 0, 79, 0
1, 39072, Note_on_c, 0, 81, 82
1, 39087, Note_on_c, 0, 81, 0
1, 39088, Note_on_c, 0, 79, 82
1, 39103, Note_on_c, 0, 79, 0
1, 39104, Note_on_c, 0, 77, 82
1, 39135, Note_on_c, 0, 77, 0
1, 39136, Note_on_c, 0, 79, 82
1, 39153, Note_on_c, 1, 70, 0
1, 39153, Note_on_c, 1, 60, 0
1, 39167, Note_on_c, 0, 79, 0
1, 39168, Note_on_c, 0, 77, 82
1, 39168, Note_on_c, 1, 65, 75
1, 39235, Note_on_c, 1, 65, 0
1, 39240, Note_on_c, 1, 69, 73
1, 39257, Note_on_c, 0, 77, 0
1, 39263, Note_on_c, 1, 69, 0
1, 39264, Note_on_c, 1, 64, 72
1, 39331, Note_on_c, 1, 64, 0
1, 39336, Note_on_c, 1, 67, 71
1, 39359, Note_on_c, 1, 67, 0
1, 39360, Note_on_c, 0, 82, 82
1, 39360, Note_on_c, 0, 70, 82
1, 39360, Note_on_c, 1, 62, 70
1, 39380, Note_on_c, 0, 82, 0
1, 39380, Note_on_c, 0, 70, 0
1, 39427, Note_on_c, 1, 62, 0
1, 39432, Note_on_c, 1, 65, 68
1, 39455, Note_on_c, 1, 65, 0
1, 39456, Note_on_c, 0, 81, 82
1, 39456, Note_on_c, 0, 69, 82
1, 39456, Note_on_c, 1, 60, 68
1, 39476, Note_on_c, 0, 81, 0
1, 39476, Note_on_c, 0, 69, 0
1, 39523, Note_on_c, 1, 60, 0
1, 39528, Note_on_c, 1, 64, 66
1, 39551, Note_on_c, 1, 64, 0
1, 39552, Note_on_c, 0, 86, 115
1, 39552, Note_on_c, 0, 74, 115
1, 39552, Note_on_c, 1, 58, 66
1, 39817, Note_on_c, 0, 86, 0
1, 39817, Note_on_c, 0, 74, 0
1, 39817, Note_on_c, 1, 58, 0
1, 39840, Note_on_c, 0, 76, 66
1, 39840, Note_on_c, 1, 70, 56
1, 39907, Note_on_c, 0, 76, 0
1, 39912, Note_on_c, 0, 86, 66
1, 39929, Note_on_c, 1, 70, 0
1, 39935, Note_on_c, 0, 86, 0
1, 39936, Note_on_c, 0, 77, 66
1, 39936, Note_on_c, 1, 69, 56
1, 40003, Note_on_c, 0, 77, 0
1, 40008, Note_on_c, 0, 84, 66
1, 40025, Note_on_c, 1, 69, 0
1, 40031, Note_on_c, 0, 84, 0
1, 40032, Note_on_c, 0, 79, 66
1, 40032, Note_on_c, 1, 70, 56
1, 40099, Note_on_c, 0, 79, 0
1, 40104, Note_on_c, 0, 82, 66
1, 40121, Note_on_c, 1, 70, 0
1, 40127, Note_on_c, 0, 82, 0
1, 40128, Note_on_c, 0, 77, 66
1, 40128, Note_on_c, 1, 72, 56
1, 40195, Note_on_c, 0, 77, 0
1, 40200, Note_on_c, 0, 81, 66
1, 40217, Note_on_c, 1, 72, 0
1, 40223, Note_on_c, 0, 81, 0
1, 40224, Note_on_c, 0, 76, 66
1, 40224, Note_on_c, 1, 60, 56
1, 40291, Note_on_c, 0, 76, 0
1, 40296, Note_on_c, 0, 79, 66
1, 40313, Note_on_c, 1, 60, 0
1, 40319, Note_on_c, 0, 79, 0
1, 40320, Note_on_c, 0, 77, 66
1, 40320, Note_on_c, 1, 65, 82
1, 40350, Note_on_c, 1, 65, 0
1, 40352, Note_on_c, 1, 67, 82
1, 40382, Note_on_c, 1, 67, 0
1, 40384, Note_on_c, 1, 69, 81
1, 40409, Note_on_c, 0, 77, 0
1, 40414, Note_on_c, 1, 69, 0
1, 40416, Note_on_c, 1, 64, 80
1, 40446, Note_on_c, 1, 64, 0
1, 40448, Note_on_c, 1, 65, 80
1, 40478, Note_on_c, 1, 65, 0
1, 40480, Note_on_c, 1, 67, 79
1, 40510, Note_on_c, 1, 67, 0
1, 40512, Note_on_c, 0, 82, 82
1, 40512, Note_on_c, 0, 70, 82
1, 40512, Note_on_c, 1, 62, 79
1, 40532, Note_on_c, 0, 82, 0
1, 40532, Note_on_c, 0, 70, 0
1, 40542, Note_on_c, 1, 62, 0
1, 40544, Note_on_c, 1, 64, 78
1, 40574, Note_on_c, 1, 64, 0
1, 40576, Note_on_c, 1, 65, 77
1, 40606, Note_on_c, 1, 65, 0
1, 40608, Note_on_c, 0, 81, 82
1, 40608, Note_on_c, 0, 69, 82
1, 40608, Note_on_c, 1, 60, 77
1, 40628, Note_on_c, 0, 81, 0
1, 40628, Note_on_c, 0, 69, 0
1, 40638, Note_on_c, 1, 60, 0
1, 40640, Note_on_c, 1, 62, 76
1, 40670, Note_on_c, 1, 62, 0
1, 40672, Note_on_c, 1, 64, 76
1, 40702, Note_on_c, 1, 64, 0
1, 40704, Note_on_c, 0, 86, 115
1, 40704, Note_on_c, 0, 74, 115
1, 40704, Note_on_c, 1, 58, 75
1, 40969, Note_on_c, 0, 86, 0
1, 40969, Note_on_c, 0, 74, 0
1, 40969, Note_on_c, 1, 58, 0
1, 40992, Note_on_c, 0, 76, 82
1, 40992, Note_on_c, 1, 70, 75
1, 41022, Note_on_c, 0, 76, 0
1, 41024, Note_on_c, 0, 79, 81
1, 41054, Note_on_c, 0, 79, 0
1, 41056, Note_on_c, 0, 86, 80
1, 41081, Note_on_c, 1, 70, 0
1, 41086, Note_on_c, 0, 86, 0
1, 41088, Note_on_c, 0, 77, 79
1, 41088, Note_on_c, 1, 69, 75
1, 41118, Note_on_c, 0, 77, 0
1, 41120, Note_on_c, 0, 81, 78
1, 41150, Note_on_c, 0, 81, 0
1, 41152, Note_on_c, 0, 84, 77
1, 41177, Note_on_c, 1, 69, 0
1, 41182, Note_on_c, 0, 84, 0
1, 41184, Note_on_c, 0, 74, 76
1, 41184, Note_on_c, 1, 70, 70
1, 41184, Note_on_c, 1, 58, 64
1, 41214, Note_on_c, 0, 74, 0
1, 41216, Note_on_c, 0, 82, 75
1, 41246, Note_on_c, 0, 82, 0
1, 41248, Note_on_c, 0, 79, 74
1, 41273, Note_on_c, 1, 70, 0
1, 41273, Note_on_c, 1, 58, 0
1, 41278, Note_on_c, 0, 79, 0
1, 41280, Note_on_c, 0, 77, 73
1, 41280, Note_on_c, 1, 69, 65
1, 41280, Note_on_c, 1, 60, 64
1, 41369, Note_on_c, 0, 77, 0
1, 41369, Note_on_c, 1, 69, 0
1, 41376, Note_on_c, 0, 76, 69
1, 41376, Note_on_c, 1, 67, 60
1, 41389, Note_on_c, 0, 76, 0
1, 41390, Note_on_c, 0, 77, 69
1, 41403, Note_on_c, 0, 77, 0
1, 41404, Note_on_c, 0, 76, 69
1, 41417, Note_on_c, 0, 76, 0
1, 41418, Note_on_c, 0, 77, 68
1, 41431, Note_on_c, 0, 77, 0
1, 41432, Note_on_c, 0, 76, 68
1, 41445, Note_on_c, 0, 76, 0
1, 41446, Note_on_c, 0, 74, 67
1, 41457, Note_on_c, 1, 60, 0
1, 41458, Note_on_c, 0, 74, 0
1, 41459, Note_on_c, 0, 76, 67
1, 41465, Note_on_c, 1, 67, 0
1, 41471, Note_on_c, 0, 76, 0
1, 41472, Note_on_c, 0, 77, 66
1, 41472, Note_on_c, 1, 69, 56
1, 41502, Note_on_c, 0, 77, 0
1, 41504, Note_on_c, 0, 72, 65
1, 41534, Note_on_c, 0, 72, 0
1, 41536, Note_on_c, 0, 81, 64
1, 41561, Note_on_c, 1, 69, 0
1, 41566, Note_on_c, 0, 81, 0
1, 41568, Note_on_c, 0, 77, 63
1, 41568, Note_on_c, 1, 69, 54
1, 41598, Note_on_c, 0, 77, 0
1, 41600, Note_on_c, 0, 72, 62
1, 41630, Note_on_c, 0, 72, 0
1, 41632, Note_on_c, 0, 81, 62
1, 41657, Note_on_c, 1, 69, 0
1, 41662, Note_on_c, 0, 81, 0
1, 41664, Note_on_c, 0, 77, 61
1, 41664, Note_on_c, 1, 69, 53
1, 41694, Note_on_c, 0, 77, 0
1, 41696, Note_on_c, 0, 72, 60
1, 41726, Note_on_c, 0, 72, 0
1, 41728, Note_on_c, 0, 81, 59
1, 41753, Note_on_c, 1, 69, 0
1, 41758, Note_on_c, 0, 81, 0
1, 41760, Note_on_c, 0, 77, 58
1, 41760, Note_on_c, 1, 69, 51
1, 41790, Note_on_c, 0, 77, 0
1, 41792, Note_on_c, 0, 72, 58
1, 41822, Note_on_c, 0, 72, 0
1, 41824, Note_on_c, 0, 81, 57
1, 41849, Note_on_c, 1, 69, 0
1, 41854, Note_on_c, 0, 81, 0
1, 41856, Note_on_c, 0, 77, 56
1, 41856, Note_on_c, 1, 69, 50
1, 41950, Note_on_c, 0, 77, 0
1, 41950, Note_on_c, 1, 69, 0
1, 42240, Note_on_c, 0, 61, 82
1, 42240, Note_on_c, 1, 49, 82
1, 42240, Note_on_c, 1, 37, 82
1, 42270, Note_on_c, 0, 61, 0
1, 42272, Note_on_c, 0, 56, 82
1, 42302, Note_on_c, 0, 56, 0
1, 42304, Note_on_c, 0, 65, 82
1, 42329, Note_on_c, 1, 49, 0
1, 42329, Note_on_c, 1, 37, 0
1, 42334, Note_on_c, 0, 65, 0
1, 42336, Note_on_c, 0, 61, 82
1, 42336, Note_on_c, 1, 49, 82
1, 42336, Note_on_c, 1, 37, 82
1, 42366, Note_on_c, 0, 61, 0
1, 42368, Note_on_c, 0, 56, 82
1, 42398, Note_on_c, 0, 56, 0
1, 42400, Note_on_c, 0, 65, 82
1, 42425, Note_on_c, 1, 49, 0
1, 42425, Note_on_c, 1, 37, 0
1, 42430, Note_on_c, 0, 65, 0
1, 42432, Note_on_c, 0, 61, 82
1, 42432, Note_on_c, 1, 49, 82
1, 42432, Note_on_c, 1, 37, 82
1, 42462, Note_on_c, 0, 61, 0
1, 42464, Note_on_c, 0, 56, 82
1, 42494, Note_on_c, 0, 56, 0
1, 42496, Note_on_c, 0, 65, 82
1, 42521, Note_on_c, 1, 49, 0
1, 42521, Note_on_c, 1, 37, 0
1, 42526, Note_on_c, 0, 65, 0
1, 42528, Note_on_c, 0, 61, 82
1, 42528, Note_on_c, 1, 49, 82
1, 42528, Note_on_c, 1, 37, 82
1, 42558, Note_on_c, 0, 61, 0
1, 42560, Note_on_c, 0, 56, 82
1, 42590, Note_on_c, 0, 56, 0
1, 42592, Note_on_c, 0, 65, 82
1, 42617, Note_on_c, 1, 49, 0
1, 42617, Note_on_c, 1, 37, 0
1, 42622, Note_on_c, 0, 65, 0
1, 42624, Note_on_c, 0, 61, 82
1, 42624, Note_on_c, 1, 49, 82
1, 42624, Note_on_c, 1, 37, 82
1, 42713, Note_on_c, 0, 61, 0
1, 42713, Note_on_c, 1, 49, 0
1, 42713, Note_on_c, 1, 37, 0
1, 43008, Note_on_c, 0, 68, 56
1, 43008, Note_on_c, 1, 58, 56
1, 43038, Note_on_c, 0, 68, 0
1, 43040, Note_on_c, 0, 65, 56
1, 43070, Note_on_c, 0, 65, 0
1, 43072, Note_on_c, 0, 74, 56
1, 43097, Note_on_c, 1, 58, 0
1, 43102, Note_on_c, 0, 74, 0
1, 43104, Note_on_c, 0, 68, 56
1, 43104, Note_on_c, 1, 58, 56
1, 43134, Note_on_c, 0, 68, 0
1, 43136, Note_on_c, 0, 65, 56
1, 43166, Note_on_c, 0, 65, 0
1, 43168, Note_on_c, 0, 74, 56
1, 43193, Note_on_c, 1, 58, 0
1, 43198, Note_on_c, 0, 74, 0
1, 43200, Note_on_c, 0, 68, 56
1, 43200, Note_on_c, 1, 58, 56
1, 43230, Note_on_c, 0, 68, 0
1, 43232, Note_on_c, 0, 65, 56
1, 43262, Note_on_c, 0, 65, 0
1, 43264, Note_on_c, 0, 74, 56
1, 43289, Note_on_c, 1, 58, 0
1, 43294, Note_on_c, 0, 74, 0
1, 43296, Note_on_c, 0, 68, 56
1, 43296, Note_on_c, 1, 58, 56
1, 43326, Note_on_c, 0, 68, 0
1, 43328, Note_on_c, 0, 65, 56
1, 43358, Note_on_c, 0, 65, 0
1, 43360, Note_on_c, 0, 74, 56
1, 43385, Note_on_c, 1, 58, 0
1, 43390, Note_on_c, 0, 74, 0
1, 43392, Note_on_c, 0, 68, 56
1, 43392, Note_on_c, 1, 58, 56
1, 43481, Note_on_c, 0, 68, 0
1, 43481, Note_on_c, 1, 58, 0
1, 43776, Note_on_c, 0, 79, 82
1, 43776, Note_on_c, 1, 63, 82
1, 43776, Note_on_c, 1, 58, 82
1, 43776, Note_on_c, 1, 55, 82
1, 43776, Note_on_c, 1, 51, 82
1, 43788, Note_on_c, 0, 79, 0
1, 43788, Note_on_c, 0, 82, 82
1, 43800, Note_on_c, 0, 82, 0
1, 43800, Note_on_c, 0, 87, 82
1, 43939, Note_on_c, 0, 87, 0
1, 43944, Note_on_c, 0, 86, 82
1, 43953, Note_on_c, 1, 63, 0
1, 43953, Note_on_c, 1, 58, 0
1, 43953, Note_on_c, 1, 55, 0
1, 43953, Note_on_c, 1, 51, 0
1, 43968, Note_on_c, 0, 86, 0
1, 43968, Note_on_c, 0, 84, 82
1, 43988, Note_on_c, 0, 84, 0
1, 44040, Note_on_c, 0, 82, 80
1, 44064, Note_on_c, 0, 82, 0
1, 44064, Note_on_c, 0, 80, 80
1, 44084, Note_on_c, 0, 80, 0
1, 44136, Note_on_c, 0, 79, 78
1, 44159, Note_on_c, 0, 79, 0
1, 44160, Note_on_c, 0, 77, 78
1, 44256, Note_on_c, 1, 75, 75
1, 44256, Note_on_c, 1, 71, 75
1, 44293, Note_on_c, 0, 77, 0
1, 44304, Note_on_c, 0, 77, 75
1, 44327, Note_on_c, 0, 77, 0
1, 44328, Note_on_c, 0, 79, 75
1, 44351, Note_on_c, 0, 79, 0
1, 44352, Note_on_c, 0, 80, 76
1, 44352, Note_on_c, 1, 75, 0
1, 44352, Note_on_c, 1, 71, 0
1, 44352, Note_on_c, 1, 74, 70
1, 44352, Note_on_c, 1, 70, 70
1, 44419, Note_on_c, 0, 80, 0
1, 44424, Note_on_c, 0, 79, 78
1, 44436, Note_on_c, 0, 79, 0
1, 44436, Note_on_c, 0, 80, 78
1, 44441, Note_on_c, 1, 74, 0
1, 44441, Note_on_c, 1, 70, 0
1, 44448, Note_on_c, 0, 80, 0
1, 44448, Note_on_c, 0, 82, 79
1, 44515, Note_on_c, 0, 82, 0
1, 44520, Note_on_c, 0, 80, 81
1, 44532, Note_on_c, 0, 80, 0
1, 44532, Note_on_c, 0, 82, 81
1, 44544, Note_on_c, 0, 82, 0
1, 44544, Note_on_c, 0, 84, 75
1, 44685, Note_on_c, 0, 84, 0
1, 44712, Note_on_c, 0, 82, 71
1, 44736, Note_on_c, 0, 82, 0
1, 44736, Note_on_c, 0, 80, 70
1, 44756, Note_on_c, 0, 80, 0
1, 44808, Note_on_c, 0, 79, 68
1, 44832, Note_on_c, 0, 79, 0
1, 44832, Note_on_c, 0, 77, 68
1, 44852, Note_on_c, 0, 77, 0
1, 44904, Note_on_c, 0, 75, 66
1, 44928, Note_on_c, 0, 75, 0
1, 44928, Note_on_c, 0, 74, 66
1, 44967, Note_on_c, 0, 74, 0
1, 45024, Note_on_c, 0, 80, 99
1, 45024, Note_on_c, 1, 65, 66
1, 45024, Note_on_c, 1, 59, 64
1, 45120, Note_on_c, 1, 59, 0
1, 45120, Note_on_c, 1, 60, 64
1, 45216, Note_on_c, 0, 80, 0
1, 45216, Note_on_c, 0, 79, 66
1, 45216, Note_on_c, 1, 65, 0
1, 45216, Note_on_c, 1, 63, 66
1, 45297, Note_on_c, 1, 60, 0
1, 45305, Note_on_c, 0, 79, 0
1, 45305, Note_on_c, 1, 63, 0
1, 45312, Note_on_c, 0, 77, 66
1, 45351, Note_on_c, 0, 77, 0
1, 45408, Note_on_c, 0, 84, 99
1, 45408, Note_on_c, 1, 68, 66
1, 45408, Note_on_c, 1, 62, 64
1, 45504, Note_on_c, 1, 62, 0
1, 45504, Note_on_c, 1, 63, 64
1, 45600, Note_on_c, 0, 84, 0
1, 45600, Note_on_c, 0, 82, 66
1, 45600, Note_on_c, 1, 68, 0
1, 45600, Note_on_c, 1, 67, 66
1, 45681, Note_on_c, 1, 63, 0
1, 45689, Note_on_c, 0, 82, 0
1, 45689, Note_on_c, 1, 67, 0
1, 45696, Note_on_c, 1, 75, 66
1, 45696, Note_on_c, 1, 72, 66
1, 45728, Note_on_c, 0, 79, 56
1, 45735, Note_on_c, 1, 75, 0
1, 45735, Note_on_c, 1, 72, 0
1, 45760, Note_on_c, 0, 79, 0
1, 45760, Note_on_c, 0, 80, 58
1, 45790, Note_on_c, 0, 80, 0
1, 45792, Note_on_c, 1, 74, 56
1, 45792, Note_on_c, 1, 70, 56
1, 45824, Note_on_c, 0, 78, 62
1, 45831, Note_on_c, 1, 74, 0
1, 45831, Note_on_c, 1, 70, 0
1, 45856, Note_on_c, 0, 78, 0
1, 45856, Note_on_c, 0, 79, 64
1, 45886, Note_on_c, 0, 79, 0
1, 45888, Note_on_c, 1, 72, 61
1, 45888, Note_on_c, 1, 68, 61
1, 45920, Note_on_c, 0, 76, 68
1, 45927, Note_on_c, 1, 72, 0
1, 45927, Note_on_c, 1, 68, 0
1, 45952, Note_on_c, 0, 76, 0
1, 45952, Note_on_c, 0, 77, 70
1, 45982, Note_on_c, 0, 77, 0
1, 45984, Note_on_c, 1, 70, 66
1, 45984, Note_on_c, 1, 67, 66
1, 46016, Note_on_c, 0, 74, 74
1, 46023, Note_on_c, 1, 70, 0
1, 46023, Note_on_c, 1, 67, 0
1, 46048, Note_on_c, 0, 74, 0
1, 46048, Note_on_c, 0, 75, 76
1, 46078, Note_on_c, 0, 75, 0
1, 46080, Note_on_c, 1, 72, 71
1, 46080, Note_on_c, 1, 68, 71
1, 46112, Note_on_c, 0, 77, 82
1, 46142, Note_on_c, 0, 77, 0
1, 46144, Note_on_c, 0, 79, 82
1, 46174, Note_on_c, 0, 79, 0
1, 46176, Note_on_c, 0, 80, 82
1, 46206, Note_on_c, 0, 80, 0
1, 46208, Note_on_c, 0, 82, 82
1, 46238, Note_on_c, 0, 82, 0
1, 46240, Note_on_c, 0, 84, 82
1, 46257, Note_on_c, 1, 72, 0
1, 46257, Note_on_c, 1, 68, 0
1, 46270, Note_on_c, 0, 84, 0
1, 46272, Note_on_c, 0, 82, 82
1, 46302, Note_on_c, 0, 82, 0
1, 46304, Note_on_c, 0, 80, 81
1, 46334, Note_on_c, 0, 80, 0
1, 46336, Note_on_c, 0, 79, 81
1, 46366, Note_on_c, 0, 79, 0
1, 46368, Note_on_c, 0, 77, 81
1, 46368, Note_on_c, 1, 68, 82
1, 46368, Note_on_c, 1, 58, 82
1, 46398, Note_on_c, 0, 77, 0
1, 46400, Note_on_c, 0, 75, 80
1, 46430, Note_on_c, 0, 75, 0
1, 46432, Note_on_c, 0, 74, 80
1, 46457, Note_on_c, 1, 68, 0
1, 46457, Note_on_c, 1, 58, 0
1, 46462, Note_on_c, 0, 74, 0
1, 46464, Note_on_c, 0, 75, 80
1, 46464, Note_on_c, 1, 67, 82
1, 46464, Note_on_c, 1, 63, 82
1, 46494, Note_on_c, 0, 75, 0
1, 46496, Note_on_c, 0, 79, 79
1, 46526, Note_on_c, 0, 79, 0
1, 46528, Note_on_c, 0, 77, 79
1, 46553, Note_on_c, 1, 67, 0
1, 46553, Note_on_c, 1, 63, 0
1, 46558, Note_on_c, 0, 77, 0
1, 46560, Note_on_c, 0, 75, 79
1, 46590, Note_on_c, 0, 75, 0
1, 46592, Note_on_c, 0, 74, 78
1, 46622, Note_on_c, 0, 74, 0
1, 46624, Note_on_c, 0, 72, 78
1, 46654, Note_on_c, 0, 72, 0
1, 46656, Note_on_c, 0, 70, 78
1, 46686, Note_on_c, 0, 70, 0
1, 46688, Note_on_c, 0, 68, 77
1, 46718, Note_on_c, 0, 68, 0
1, 46720, Note_on_c, 0, 67, 77
1, 46750, Note_on_c, 0, 67, 0
1, 46752, Note_on_c, 0, 65, 77
1, 46782, Note_on_c, 0, 65, 0
1, 46784, Note_on_c, 0, 63, 77
1, 46814, Note_on_c, 0, 63, 0
1, 46816, Note_on_c, 0, 62, 76
1, 46846, Note_on_c, 0, 62, 0
1, 46848, Note_on_c, 0, 63, 76
1, 46848, Note_on_c, 1, 51, 66
1, 46878, Note_on_c, 1, 51, 0
1, 46880, Note_on_c, 1, 55, 66
1, 46910, Note_on_c, 1, 55, 0
1, 46912, Note_on_c, 1, 58, 66
1, 46937, Note_on_c, 0, 63, 0
1, 46942, Note_on_c, 1, 58, 0
1, 46944, Note_on_c, 0, 79, 108
1, 46944, Note_on_c, 1, 51, 66
1, 46974, Note_on_c, 1, 51, 0
1, 46976, Note_on_c, 1, 55, 66
1, 47006, Note_on_c, 1, 55, 0
1, 47008, Note_on_c, 1, 58, 66
1, 47033, Note_on_c, 0, 79, 0
1, 47038, Note_on_c, 1, 58, 0
1, 47040, Note_on_c, 1, 51, 66
1, 47070, Note_on_c, 1, 51, 0
1, 47072, Note_on_c, 1, 55, 66
1, 47088, Note_on_c, 0, 79, 75
1, 47102, Note_on_c, 1, 55, 0
1, 47104, Note_on_c, 1, 58, 66
1, 47133, Note_on_c, 0, 79, 0
1, 47134, Note_on_c, 1, 58, 0
1, 47136, Note_on_c, 0, 81, 75
1, 47136, Note_on_c, 1, 51, 66
1, 47148, Note_on_c, 0, 81, 0
1, 47148, Note_on_c, 0, 79, 75
1, 47160, Note_on_c, 0, 79, 0
1, 47160, Note_on_c, 0, 77, 75
1, 47166, Note_on_c, 1, 51, 0
1, 47168, Note_on_c, 1, 55, 66
1, 47172, Note_on_c, 0, 77, 0
1, 47172, Note_on_c, 0, 79, 75
1, 47198, Note_on_c, 1, 55, 0
1, 47200, Note_on_c, 1, 58, 66
1, 47203, Note_on_c, 0, 79, 0
1, 47208, Note_on_c, 0, 81, 75
1, 47230, Note_on_c, 1, 58, 0
1, 47231, Note_on_c, 0, 81, 0
1, 47232, Note_on_c, 0, 82, 75
1, 47232, Note_on_c, 1, 50, 66
1, 47262, Note_on_c, 1, 50, 0
1, 47264, Note_on_c, 1, 53, 66
1, 47294, Note_on_c, 1, 53, 0
1, 47296, Note_on_c, 1, 58, 66
1, 47321, Note_on_c, 0, 82, 0
1, 47326, Note_on_c, 1, 58, 0
1, 47328, Note_on_c, 0, 82, 108
1, 47328, Note_on_c, 1, 50, 66
1, 47358, Note_on_c, 1, 50, 0
1, 47360, Note_on_c, 1, 53, 66
1, 47390, Note_on_c, 1, 53, 0
1, 47392, Note_on_c, 1, 58, 66
1, 47422, Note_on_c, 1, 58, 0
1, 47424, Note_on_c, 1, 50, 66
1, 47454, Note_on_c, 1, 50, 0
1, 47456, Note_on_c, 1, 53, 66
1, 47486, Note_on_c, 1, 53, 0
1, 47488, Note_on_c, 1, 58, 66
1, 47491, Note_on_c, 0, 82, 0
1, 47496, Note_on_c, 0, 81, 75
1, 47518, Note_on_c, 1, 58, 0
1, 47519, Note_on_c, 0, 81, 0
1, 47520, Note_on_c, 0, 79, 75
1, 47520, Note_on_c, 1, 50, 66
1, 47550, Note_on_c, 1, 50, 0
1, 47552, Note_on_c, 1, 53, 66
1, 47582, Note_on_c, 1, 53, 0
1, 47584, Note_on_c, 1, 58, 66
1, 47587, Note_on_c, 0, 79, 0
1, 47592, Note_on_c, 0, 77, 75
1, 47614, Note_on_c, 1, 58, 0
1, 47615, Note_on_c, 0, 77, 0
1, 47616, Note_on_c, 0, 77, 75
1, 47616, Note_on_c, 1, 48, 66
1, 47646, Note_on_c, 1, 48, 0
1, 47648, Note_on_c, 1, 51, 66
1, 47678, Note_on_c, 1, 51, 0
1, 47680, Note_on_c, 1, 58, 66
1, 47710, Note_on_c, 1, 58, 0
1, 47712, Note_on_c, 1, 48, 66
1, 47742, Note_on_c, 1, 48, 0
1, 47744, Note_on_c, 1, 51, 66
1, 47749, Note_on_c, 0, 77, 0
1, 47760, Note_on_c, 0, 74, 75
1, 47774, Note_on_c, 1, 51, 0
1, 47776, Note_on_c, 1, 58, 66
1, 47783, Note_on_c, 0, 74, 0
1, 47784, Note_on_c, 0, 75, 75
1, 47806, Note_on_c, 1, 58, 0
1, 47807, Note_on_c, 0, 75, 0
1, 47808, Note_on_c, 0, 77, 75
1, 47808, Note_on_c, 1, 48, 66
1, 47823, Note_on_c, 0, 77, 0
1, 47824, Note_on_c, 0, 75, 75
1, 47838, Note_on_c, 1, 48, 0
1, 47839, Note_on_c, 0, 75, 0
1, 47840, Note_on_c, 0, 77, 75
1, 47840, Note_on_c, 1, 51, 66
1, 47855, Note_on_c, 0, 77, 0
1, 47856, Note_on_c, 0, 75, 75
1, 47870, Note_on_c, 1, 51, 0
1, 47871, Note_on_c, 0, 75, 0
1, 47872, Note_on_c, 0, 77, 75
1, 47872, Note_on_c, 1, 58, 66
1, 47887, Note_on_c, 0, 77, 0
1, 47888, Note_on_c, 0, 75, 75
1, 47902, Note_on_c, 1, 58, 0
1, 47903, Note_on_c, 0, 75, 0
1, 47904, Note_on_c, 0, 77, 75
1, 47904, Note_on_c, 1, 48, 66
1, 47919, Note_on_c, 0, 77, 0
1, 47920, Note_on_c, 0, 75, 75
1, 47934, Note_on_c, 1, 48, 0
1, 47935, Note_on_c, 0, 75, 0
1, 47936, Note_on_c, 0, 74, 75
1, 47936, Note_on_c, 1, 51, 66
1, 47966, Note_on_c, 1, 51, 0
1, 47967, Note_on_c, 0, 74, 0
1, 47968, Note_on_c, 0, 75, 75
1, 47968, Note_on_c, 1, 58, 66
1, 47998, Note_on_c, 1, 58, 0
1, 47999, Note_on_c, 0, 75, 0
1, 48000, Note_on_c, 0, 74, 91
1, 48000, Note_on_c, 1, 46, 66
1, 48030, Note_on_c, 1, 46, 0
1, 48032, Note_on_c, 1, 50, 66
1, 48062, Note_on_c, 1, 50, 0
1, 48064, Note_on_c, 1, 58, 66
1, 48094, Note_on_c, 1, 58, 0
1, 48096, Note_on_c, 0, 74, 0
1, 48096, Note_on_c, 0, 74, 75
1, 48096, Note_on_c, 1, 46, 66
1, 48126, Note_on_c, 1, 46, 0
1, 48128, Note_on_c, 1, 50, 66
1, 48158, Note_on_c, 1, 50, 0
1, 48160, Note_on_c, 1, 58, 66
1, 48185, Note_on_c, 0, 74, 0
1, 48190, Note_on_c, 1, 58, 0
1, 48192, Note_on_c, 1, 46, 66
1, 48222, Note_on_c, 1, 46, 0
1, 48224, Note_on_c, 0, 74, 75
1, 48224, Note_on_c, 1, 50, 66
1, 48254, Note_on_c, 0, 74, 0
1, 48254, Note_on_c, 1, 50, 0
1, 48256, Note_on_c, 0, 75, 75
1, 48256, Note_on_c, 1, 53, 66
1, 48286, Note_on_c, 0, 75, 0
1, 48286, Note_on_c, 1, 53, 0
1, 48288, Note_on_c, 0, 77, 75
1, 48288, Note_on_c, 1, 46, 66
1, 48318, Note_on_c, 0, 77, 0
1, 48318, Note_on_c, 1, 46, 0
1, 48320, Note_on_c, 0, 75, 75
1, 48320, Note_on_c, 1, 50, 66
1, 48350, Note_on_c, 0, 75, 0
1, 48350, Note_on_c, 1, 50, 0
1, 48352, Note_on_c, 0, 74, 75
1, 48352, Note_on_c, 1, 53, 66
1, 48382, Note_on_c, 0, 74, 0
1, 48382, Note_on_c, 1, 53, 0
1, 48384, Note_on_c, 0, 72, 75
1, 48384, Note_on_c, 1, 51, 75
1, 48414, Note_on_c, 0, 72, 0
1, 48416, Note_on_c, 0, 75, 75
1, 48446, Note_on_c, 0, 75, 0
1, 48448, Note_on_c, 0, 74, 76
1, 48478, Note_on_c, 0, 74, 0
1, 48480, Note_on_c, 0, 72, 76
1, 48510, Note_on_c, 0, 72, 0
1, 48512, Note_on_c, 0, 75, 77
1, 48542, Note_on_c, 0, 75, 0
1, 48544, Note_on_c, 0, 77, 77
1, 48574, Note_on_c, 0, 77, 0
1, 48576, Note_on_c, 0, 79, 78
1, 48606, Note_on_c, 0, 79, 0
1, 48608, Note_on_c, 0, 77, 78
1, 48638, Note_on_c, 0, 77, 0
1, 48640, Note_on_c, 0, 75, 79
1, 48649, Note_on_c, 1, 51, 0
1, 48670, Note_on_c, 0, 75, 0
1, 48672, Note_on_c, 0, 74, 79
1, 48672, Note_on_c, 1, 52, 79
1, 48702, Note_on_c, 0, 74, 0
1, 48704, Note_on_c, 0, 72, 80
1, 48734, Note_on_c, 0, 72, 0
1, 48736, Note_on_c, 0, 70, 80
1, 48761, Note_on_c, 1, 52, 0
1, 48766, Note_on_c, 0, 70, 0
1, 48768, Note_on_c, 0, 69, 81
1, 48768, Note_on_c, 1, 53, 80
1, 48798, Note_on_c, 0, 69, 0
1, 48800, Note_on_c, 0, 72, 82
1, 48830, Note_on_c, 0, 72, 0
1, 48832, Note_on_c, 0, 70, 82
1, 48857, Note_on_c, 1, 53, 0
1, 48862, Note_on_c, 0, 70, 0
1, 48864, Note_on_c, 0, 74, 82
1, 48864, Note_on_c, 1, 65, 82
1, 48894, Note_on_c, 0, 74, 0
1, 48896, Note_on_c, 0, 72, 82
1, 48903, Note_on_c, 1, 65, 0
1, 48926, Note_on_c, 0, 72, 0
1, 48928, Note_on_c, 0, 75, 82
1, 48958, Note_on_c, 0, 75, 0
1, 48960, Note_on_c, 0, 74, 82
1, 48960, Note_on_c, 1, 65, 82
1, 48990, Note_on_c, 0, 74, 0
1, 48992, Note_on_c, 0, 77, 82
1, 48999, Note_on_c, 1, 65, 0
1, 49022, Note_on_c, 0, 77, 0
1, 49024, Note_on_c, 0, 75, 82
1, 49054, Note_on_c, 0, 75, 0
1, 49056, Note_on_c, 0, 74, 82
1, 49056, Note_on_c, 1, 65, 82
1, 49086, Note_on_c, 0, 74, 0
1, 49088, Note_on_c, 0, 72, 82
1, 49095, Note_on_c, 1, 65, 0
1, 49118, Note_on_c, 0, 72, 0
1, 49120, Note_on_c, 0, 70, 82
1, 49150, Note_on_c, 0, 70, 0
1, 49152, Note_on_c, 0, 69, 82
1, 49152, Note_on_c, 1, 65, 82
1, 49152, Note_on_c, 1, 63, 82
1, 49182, Note_on_c, 0, 69, 0
1, 49184, Note_on_c, 0, 72, 82
1, 49191, Note_on_c, 1, 65, 0
1, 49191, Note_on_c, 1, 63, 0
1, 49214, Note_on_c, 0, 72, 0
1, 49216, Note_on_c, 0, 70, 82
1, 49246, Note_on_c, 0, 70, 0
1, 49248, Note_on_c, 0, 74, 82
1, 49248, Note_on_c, 1, 65, 82
1, 49248, Note_on_c, 1, 63, 82
1, 49278, Note_on_c, 0, 74, 0
1, 49280, Note_on_c, 0, 72, 82
1, 49287, Note_on_c, 1, 65, 0
1, 49287, Note_on_c, 1, 63, 0
1, 49310, Note_on_c, 0, 72, 0
1, 49312, Note_on_c, 0, 75, 82
1, 49342, Note_on_c, 0, 75, 0
1, 49344, Note_on_c, 0, 74, 82
1, 49344, Note_on_c, 1, 65, 82
1, 49344, Note_on_c, 1, 63, 82
1, 49374, Note_on_c, 0, 74, 0
1, 49376, Note_on_c, 0, 77, 82
1, 49383, Note_on_c, 1, 65, 0
1, 49383, Note_on_c, 1, 63, 0
1, 49406, Note_on_c, 0, 77, 0
1, 49408, Note_on_c, 0, 75, 82
1, 49438, Note_on_c, 0, 75, 0
1, 49440, Note_on_c, 0, 74, 82
1, 49440, Note_on_c, 1, 65, 82
1, 49440, Note_on_c, 1, 63, 82
1, 49470, Note_on_c, 0, 74, 0
1, 49472, Note_on_c, 0, 72, 82
1, 49479, Note_on_c, 1, 65, 0
1, 49479, Note_on_c, 1, 63, 0
1, 49502, Note_on_c, 0, 72, 0
1, 49504, Note_on_c, 0, 70, 82
1, 49534, Note_on_c, 0, 70, 0
1, 49536, Note_on_c, 0, 69, 82
1, 49536, Note_on_c, 1, 66, 82
1, 49536, Note_on_c, 1, 62, 82
1, 49566, Note_on_c, 0, 69, 0
1, 49568, Note_on_c, 0, 72, 82
1, 49575, Note_on_c, 1, 66, 0
1, 49575, Note_on_c, 1, 62, 0
1, 49598, Note_on_c, 0, 72, 0
1, 49600, Note_on_c, 0, 70, 82
1, 49630, Note_on_c, 0, 70, 0
1, 49632, Note_on_c, 0, 74, 82
1, 49632, Note_on_c, 1, 66, 82
1, 49632, Note_on_c, 1, 62, 82
1, 49662, Note_on_c, 0, 74, 0
1, 49664, Note_on_c, 0, 72, 82
1, 49671, Note_on_c, 1, 66, 0
1, 49671, Note_on_c, 1, 62, 0
1, 49694, Note_on_c, 0, 72, 0
1, 49696, Note_on_c, 0, 75, 82
1, 49726, Note_on_c, 0, 75, 0
1, 49728, Note_on_c, 0, 74, 82
1, 49728, Note_on_c, 1, 66, 82
1, 49728, Note_on_c, 1, 62, 82
1, 49758, Note_on_c, 0, 74, 0
1, 49760, Note_on_c, 0, 72, 82
1, 49767, Note_on_c, 1, 66, 0
1, 49767, Note_on_c, 1, 62, 0
1, 49790, Note_on_c, 0, 72, 0
1, 49792, Note_on_c, 0, 81, 82
1, 49822, Note_on_c, 0, 81, 0
1, 49824, Note_on_c, 0, 79, 82
1, 49824, Note_on_c, 1, 66, 82
1, 49824, Note_on_c, 1, 62, 82
1, 49854, Note_on_c, 0, 79, 0
1, 49856, Note_on_c, 0, 78, 82
1, 49863, Note_on_c, 1, 66, 0
1, 49863, Note_on_c, 1, 62, 0
1, 49886, Note_on_c, 0, 78, 0
1, 49888, Note_on_c, 0, 84, 82
1, 49918, Note_on_c, 0, 84, 0
1, 49920, Note_on_c, 0, 82, 82
1, 49920, Note_on_c, 1, 66, 82
1, 49920, Note_on_c, 1, 62, 82
1, 49950, Note_on_c, 0, 82, 0
1, 49952, Note_on_c, 0, 81, 82
1, 49959, Note_on_c, 1, 66, 0
1, 49959, Note_on_c, 1, 62, 0
1, 49982, Note_on_c, 0, 81, 0
1, 49984, Note_on_c, 0, 87, 82
1, 50014, Note_on_c, 0, 87, 0
1, 50016, Note_on_c, 0, 86, 82
1, 50016, Note_on_c, 1, 66, 78
1, 50016, Note_on_c, 1, 62, 78
1, 50046, Note_on_c, 0, 86, 0
1, 50048, Note_on_c, 0, 84, 82
1, 50055, Note_on_c, 1, 66, 0
1, 50055, Note_on_c, 1, 62, 0
1, 50078, Note_on_c, 0, 84, 0
1, 50080, Note_on_c, 0, 82, 82
1, 50110, Note_on_c, 0, 82, 0
1, 50112, Note_on_c, 0, 81, 82
1, 50112, Note_on_c, 1, 66, 74
1, 50112, Note_on_c, 1, 62, 74
1, 50142, Note_on_c, 0, 81, 0
1, 50144, Note_on_c, 0, 79, 82
1, 50151, Note_on_c, 1, 66, 0
1, 50151, Note_on_c, 1, 62, 0
1, 50174, Note_on_c, 0, 79, 0
1, 50176, Note_on_c, 0, 78, 82
1, 50206, Note_on_c, 0, 78, 0
1, 50208, Note_on_c, 0, 81, 82
1, 50208, Note_on_c, 1, 66, 70
1, 50208, Note_on_c, 1, 62, 70
1, 50238, Note_on_c, 0, 81, 0
1, 50240, Note_on_c, 0, 78, 82
1, 50247, Note_on_c, 1, 66, 0
1, 50247, Note_on_c, 1, 62, 0
1, 50270, Note_on_c, 0, 78, 0
1, 50272, Note_on_c, 0, 72, 82
1, 50302, Note_on_c, 0, 72, 0
1, 50304, Note_on_c, 0, 70, 82
1, 50304, Note_on_c, 1, 55, 67
1, 50334, Note_on_c, 1, 55, 0
1, 50336, Note_on_c, 1, 58, 66
1, 50366, Note_on_c, 1, 58, 0
1, 50368, Note_on_c, 1, 62, 66
1, 50393, Note_on_c, 0, 70, 0
1, 50398, Note_on_c, 1, 62, 0
1, 50400, Note_on_c, 0, 86, 115
1, 50400, Note_on_c, 1, 55, 66
1, 50430, Note_on_c, 1, 55, 0
1, 50432, Note_on_c, 1, 58, 66
1, 50462, Note_on_c, 1, 58, 0
1, 50464, Note_on_c, 1, 62, 66
1, 50494, Note_on_c, 1, 62, 0
1, 50496, Note_on_c, 1, 57, 66
1, 50526, Note_on_c, 1, 57, 0
1, 50528, Note_on_c, 1, 60, 66
1, 50558, Note_on_c, 1, 60, 0
1, 50560, Note_on_c, 1, 62, 66
1, 50563, Note_on_c, 0, 86, 0
1, 50568, Note_on_c, 0, 78, 82
1, 50590, Note_on_c, 1, 62, 0
1, 50591, Note_on_c, 0, 78, 0
1, 50592, Note_on_c, 0, 78, 82
1, 50592, Note_on_c, 1, 57, 66
1, 50605, Note_on_c, 0, 78, 0
1, 50606, Note_on_c, 0, 79, 82
1, 50619, Note_on_c, 0, 79, 0
1, 50620, Note_on_c, 0, 78, 82
1, 50622, Note_on_c, 1, 57, 0
1, 50624, Note_on_c, 1, 60, 66
1, 50633, Note_on_c, 0, 78, 0
1, 50634, Note_on_c, 0, 79, 82
1, 50647, Note_on_c, 0, 79, 0
1, 50648, Note_on_c, 0, 78, 82
1, 50654, Note_on_c, 1, 60, 0
1, 50656, Note_on_c, 1, 62, 66
1, 50661, Note_on_c, 0, 78, 0
1, 50662, Note_on_c, 0, 75, 82
1, 50674, Note_on_c, 0, 75, 0
1, 50675, Note_on_c, 0, 78, 82
1, 50686, Note_on_c, 1, 62, 0
1, 50687, Note_on_c, 0, 78, 0
1, 50688, Note_on_c, 0, 79, 82
1, 50688, Note_on_c, 1, 58, 66
1, 50718, Note_on_c, 1, 58, 0
1, 50720, Note_on_c, 1, 60, 66
1, 50750, Note_on_c, 1, 60, 0
1, 50752, Note_on_c, 1, 62, 66
1, 50782, Note_on_c, 1, 62, 0
1, 50784, Note_on_c, 0, 79, 0
1, 50784, Note_on_c, 0, 82, 82
1, 50784, Note_on_c, 1, 58, 66
1, 50814, Note_on_c, 1, 58, 0
1, 50816, Note_on_c, 1, 60, 66
1, 50846, Note_on_c, 1, 60, 0
1, 50848, Note_on_c, 1, 62, 66
1, 50873, Note_on_c, 0, 82, 0
1, 50878, Note_on_c, 1, 62, 0
1, 50880, Note_on_c, 1, 54, 66
1, 50910, Note_on_c, 1, 54, 0
1, 50912, Note_on_c, 1, 57, 66
1, 50942, Note_on_c, 1, 57, 0
1, 50944, Note_on_c, 1, 62, 66
1, 50952, Note_on_c, 0, 81, 82
1, 50974, Note_on_c, 1, 62, 0
1, 50975, Note_on_c, 0, 81, 0
1, 50976, Note_on_c, 0, 81, 82
1, 50976, Note_on_c, 1, 54, 66
1, 50989, Note_on_c, 0, 81, 0
1, 50990, Note_on_c, 0, 82, 82
1, 51003, Note_on_c, 0, 82, 0
1, 51004, Note_on_c, 0, 81, 82
1, 51006, Note_on_c, 1, 54, 0
1, 51008, Note_on_c, 1, 57, 66
1, 51017, Note_on_c, 0, 81, 0
1, 51018, Note_on_c, 0, 82, 82
1, 51031, Note_on_c, 0, 82, 0
1, 51032, Note_on_c, 0, 81, 82
1, 51038, Note_on_c, 1, 57, 0
1, 51040, Note_on_c, 1, 62, 66
1, 51045, Note_on_c, 0, 81, 0
1, 51046, Note_on_c, 0, 79, 82
1, 51058, Note_on_c, 0, 79, 0
1, 51059, Note_on_c, 0, 81, 82
1, 51070, Note_on_c, 1, 62, 0
1, 51071, Note_on_c, 0, 81, 0
1, 51072, Note_on_c, 0, 82, 82
1, 51072, Note_on_c, 1, 55, 66
1, 51102, Note_on_c, 1, 55, 0
1, 51104, Note_on_c, 1, 58, 66
1, 51134, Note_on_c, 1, 58, 0
1, 51136, Note_on_c, 1, 62, 66
1, 51161, Note_on_c, 0, 82, 0
1, 51166, Note_on_c, 1, 62, 0
1, 51168, Note_on_c, 0, 86, 127
1, 51168, Note_on_c, 1, 55, 66
1, 51198, Note_on_c, 1, 55, 0
1, 51200, Note_on_c, 1, 58, 66
1, 51230, Note_on_c, 1, 58, 0
1, 51232, Note_on_c, 1, 62, 66
1, 51262, Note_on_c, 1, 62, 0
1, 51264, Note_on_c, 1, 57, 66
1, 51294, Note_on_c, 0, 86, 0
1, 51294, Note_on_c, 1, 57, 0
1, 51296, Note_on_c, 0, 84, 82
1, 51296, Note_on_c, 1, 60, 66
1, 51326, Note_on_c, 0, 84, 0
1, 51326, Note_on_c, 1, 60, 0
1, 51328, Note_on_c, 0, 82, 82
1, 51328, Note_on_c, 1, 62, 66
1, 51358, Note_on_c, 0, 82, 0
1, 51358, Note_on_c, 1, 62, 0
1, 51360, Note_on_c, 0, 81, 82
1, 51360, Note_on_c, 1, 57, 66
1, 51390, Note_on_c, 0, 81, 0
1, 51390, Note_on_c, 1, 57, 0
1, 51392, Note_on_c, 0, 79, 82
1, 51392, Note_on_c, 1, 60, 66
1, 51422, Note_on_c, 0, 79, 0
1, 51422, Note_on_c, 1, 60, 0
1, 51424, Note_on_c, 0, 78, 82
1, 51424, Note_on_c, 1, 62, 66
1, 51454, Note_on_c, 0, 78, 0
1, 51454, Note_on_c, 1, 62, 0
1, 51456, Note_on_c, 0, 79, 82
1, 51456, Note_on_c, 1, 58, 66
1, 51486, Note_on_c, 1, 58, 0
1, 51488, Note_on_c, 1, 60, 66
1, 51518, Note_on_c, 1, 60, 0
1, 51520, Note_on_c, 1, 62, 67
1, 51523, Note_on_c, 0, 79, 0
1, 51528, Note_on_c, 0, 79, 82
1, 51550, Note_on_c, 1, 62, 0
1, 51551, Note_on_c, 0, 79, 0
1, 51552, Note_on_c, 0, 79, 82
1, 51552, Note_on_c, 1, 58, 67
1, 51565, Note_on_c, 0, 79, 0
1, 51566, Note_on_c, 0, 81, 82
1, 51579, Note_on_c, 0, 81, 0
1, 51580, Note_on_c, 0, 79, 82
1, 51582, Note_on_c, 1, 58, 0
1, 51584, Note_on_c, 1, 60, 68
1, 51593, Note_on_c, 0, 79, 0
1, 51594, Note_on_c, 0, 81, 82
1, 51607, Note_on_c, 0, 81, 0
1, 51608, Note_on_c, 0, 79, 82
1, 51614, Note_on_c, 1, 60, 0
1, 51616, Note_on_c, 1, 62, 69
1, 51621, Note_on_c, 0, 79, 0
1, 51622, Note_on_c, 0, 78, 82
1, 51634, Note_on_c, 0, 78, 0
1, 51635, Note_on_c, 0, 79, 83
1, 51646, Note_on_c, 1, 62, 0
1, 51647, Note_on_c, 0, 79, 0
1, 51648, Note_on_c, 0, 81, 83
1, 51648, Note_on_c, 1, 54, 69
1, 51678, Note_on_c, 1, 54, 0
1, 51680, Note_on_c, 1, 57, 70
1, 51710, Note_on_c, 1, 57, 0
1, 51712, Note_on_c, 1, 62, 71
1, 51715, Note_on_c, 0, 81, 0
1, 51720, Note_on_c, 0, 81, 84
1, 51742, Note_on_c, 1, 62, 0
1, 51743, Note_on_c, 0, 81, 0
1, 51744, Note_on_c, 0, 81, 84
1, 51744, Note_on_c, 1, 54, 71
1, 51757, Note_on_c, 0, 81, 0
1, 51758, Note_on_c, 0, 82, 84
1, 51771, Note_on_c, 0, 82, 0
1, 51772, Note_on_c, 0, 81, 84
1, 51774, Note_on_c, 1, 54, 0
1, 51776, Note_on_c, 1, 57, 72
1, 51785, Note_on_c, 0, 81, 0
1, 51786, Note_on_c, 0, 82, 84
1, 51799, Note_on_c, 0, 82, 0
1, 51800, Note_on_c, 0, 81, 84
1, 51806, Note_on_c, 1, 57, 0
1, 51808, Note_on_c, 1, 62, 72
1, 51813, Note_on_c, 0, 81, 0
1, 51814, Note_on_c, 0, 79, 85
1, 51826, Note_on_c, 0, 79, 0
1, 51827, Note_on_c, 0, 81, 85
1, 51838, Note_on_c, 1, 62, 0
1, 51839, Note_on_c, 0, 81, 0
1, 51840, Note_on_c, 0, 82, 85
1, 51840, Note_on_c, 1, 55, 73
1, 51870, Note_on_c, 1, 55, 0
1, 51872, Note_on_c, 1, 58, 74
1, 51902, Note_on_c, 1, 58, 0
1, 51904, Note_on_c, 1, 62, 74
1, 51907, Note_on_c, 0, 82, 0
1, 51912, Note_on_c, 0, 82, 86
1, 51934, Note_on_c, 1, 62, 0
1, 51935, Note_on_c, 0, 82, 0
1, 51936, Note_on_c, 0, 82, 86
1, 51936, Note_on_c, 1, 55, 75
1, 51949, Note_on_c, 0, 82, 0
1, 51950, Note_on_c, 0, 84, 86
1, 51963, Note_on_c, 0, 84, 0
1, 51964, Note_on_c, 0, 82, 86
1, 51966, Note_on_c, 1, 55, 0
1, 51968, Note_on_c, 1, 58, 76
1, 51977, Note_on_c, 0, 82, 0
1, 51978, Note_on_c, 0, 84, 86
1, 51991, Note_on_c, 0, 84, 0
1, 51992, Note_on_c, 0, 82, 86
1, 51998, Note_on_c, 1, 58, 0
1, 52000, Note_on_c, 1, 62, 76
1, 52005, Note_on_c, 0, 82, 0
1, 52006, Note_on_c, 0, 81, 87
1, 52018, Note_on_c, 0, 81, 0
1, 52019, Note_on_c, 0, 82, 87
1, 52030, Note_on_c, 1, 62, 0
1, 52031, Note_on_c, 0, 82, 0
1, 52032, Note_on_c, 0, 84, 87
1, 52032, Note_on_c, 1, 57, 77
1, 52062, Note_on_c, 1, 57, 0
1, 52064, Note_on_c, 1, 60, 77
1, 52094, Note_on_c, 1, 60, 0
1, 52096, Note_on_c, 1, 66, 78
1, 52099, Note_on_c, 0, 84, 0
1, 52104, Note_on_c, 0, 84, 88
1, 52126, Note_on_c, 1, 66, 0
1, 52127, Note_on_c, 0, 84, 0
1, 52128, Note_on_c, 0, 84, 88
1, 52128, Note_on_c, 1, 57, 79
1, 52141, Note_on_c, 0, 84, 0
1, 52142, Note_on_c, 0, 86, 88
1, 52155, Note_on_c, 0, 86, 0
1, 52156, Note_on_c, 0, 84, 88
1, 52158, Note_on_c, 1, 57, 0
1, 52160, Note_on_c, 1, 60, 79
1, 52169, Note_on_c, 0, 84, 0
1, 52170, Note_on_c, 0, 86, 88
1, 52183, Note_on_c, 0, 86, 0
1, 52184, Note_on_c, 0, 84, 89
1, 52190, Note_on_c, 1, 60, 0
1, 52192, Note_on_c, 1, 66, 80
1, 52197, Note_on_c, 0, 84, 0
1, 52198, Note_on_c, 0, 82, 89
1, 52210, Note_on_c, 0, 82, 0
1, 52211, Note_on_c, 0, 84, 89
1, 52222, Note_on_c, 1, 66, 0
1, 52223, Note_on_c, 0, 84, 0
1, 52224, Note_on_c, 0, 86, 90
1, 52224, Note_on_c, 1, 58, 82
1, 52263, Note_on_c, 1, 58, 0
1, 52269, Note_on_c, 0, 86, 0
1, 52296, Note_on_c, 0, 86, 90
1, 52308, Note_on_c, 0, 86, 0
1, 52308, Note_on_c, 0, 84, 90
1, 52320, Note_on_c, 0, 84, 0
1, 52320, Note_on_c, 0, 82, 90
1, 52367, Note_on_c, 0, 82, 0
1, 52392, Note_on_c, 0, 82, 90
1, 52404, Note_on_c, 0, 82, 0
1, 52404, Note_on_c, 0, 81, 90
1, 52416, Note_on_c, 0, 81, 0
1, 52416, Note_on_c, 0, 79, 90
1, 52463, Note_on_c, 0, 79, 0
1, 52488, Note_on_c, 0, 82, 90
1, 52500, Note_on_c, 0, 82, 0
1, 52500, Note_on_c, 0, 81, 90
1, 52512, Note_on_c, 0, 81, 0
1, 52512, Note_on_c, 0, 79, 90
1, 52512, Note_on_c, 1, 67, 82
1, 52512, Note_on_c, 1, 58, 82
1, 52559, Note_on_c, 0, 79, 0
1, 52584, Note_on_c, 0, 79, 90
1, 52596, Note_on_c, 0, 79, 0
1, 52596, Note_on_c, 0, 77, 90
1, 52601, Note_on_c, 1, 67, 0
1, 52601, Note_on_c, 1, 58, 0
1, 52608, Note_on_c, 0, 77, 0
1, 52608, Note_on_c, 0, 75, 90
1, 52608, Note_on_c, 1, 67, 82
1, 52608, Note_on_c, 1, 60, 82
1, 52653, Note_on_c, 0, 75, 0
1, 52653, Note_on_c, 1, 67, 0
1, 52653, Note_on_c, 1, 60, 0
1, 52680, Note_on_c, 0, 79, 82
1, 52680, Note_on_c, 1, 67, 82
1, 52692, Note_on_c, 0, 79, 0
1, 52692, Note_on_c, 0, 77, 82
1, 52692, Note_on_c, 1, 67, 0
1, 52692, Note_on_c, 1, 65, 82
1, 52704, Note_on_c, 0, 77, 0
1, 52704, Note_on_c, 0, 75, 82
1, 52704, Note_on_c, 1, 65, 0
1, 52704, Note_on_c, 1, 63, 82
1, 52749, Note_on_c, 1, 63, 0
1, 52751, Note_on_c, 0, 75, 0
1, 52776, Note_on_c, 0, 75, 82
1, 52776, Note_on_c, 1, 63, 82
1, 52788, Note_on_c, 0, 75, 0
1, 52788, Note_on_c, 0, 74, 82
1, 52788, Note_on_c, 1, 63, 0
1, 52788, Note_on_c, 1, 62, 82
1, 52800, Note_on_c, 0, 74, 0
1, 52800, Note_on_c, 0, 72, 82
1, 52800, Note_on_c, 1, 62, 0
1, 52800, Note_on_c, 1, 60, 82
1, 52845, Note_on_c, 1, 60, 0
1, 52847, Note_on_c, 0, 72, 0
1, 52872, Note_on_c, 0, 72, 82
1, 52872, Note_on_c, 1, 60, 82
1, 52884, Note_on_c, 0, 72, 0
1, 52884, Note_on_c, 0, 70, 82
1, 52884, Note_on_c, 1, 60, 0
1, 52884, Note_on_c, 1, 58, 82
1, 52896, Note_on_c, 0, 70, 0
1, 52896, Note_on_c, 0, 69, 82
1, 52896, Note_on_c, 1, 58, 0
1, 52896, Note_on_c, 1, 57, 82
1, 52941, Note_on_c, 1, 57, 0
1, 52943, Note_on_c, 0, 69, 0
1, 52968, Note_on_c, 0, 69, 82
1, 52968, Note_on_c, 1, 57, 82
1, 52980, Note_on_c, 0, 69, 0
1, 52980, Note_on_c, 0, 67, 82
1, 52980, Note_on_c, 1, 57, 0
1, 52980, Note_on_c, 1, 55, 82
1, 52992, Note_on_c, 0, 67, 0
1, 52992, Note_on_c, 0, 66, 82
1, 52992, Note_on_c, 1, 55, 0
1, 52992, Note_on_c, 1, 54, 82
1, 53081, Note_on_c, 0, 66, 0
1, 53081, Note_on_c, 1, 54, 0
1, 53088, Note_on_c, 1, 46, 82
1, 53088, Note_on_c, 1, 34, 82
1, 53120, Note_on_c, 0, 55, 82
1, 53152, Note_on_c, 0, 55, 0
1, 53152, Note_on_c, 0, 67, 82
1, 53177, Note_on_c, 1, 46, 0
1, 53177, Note_on_c, 1, 34, 0
1, 53182, Note_on_c, 0, 67, 0
1, 53184, Note_on_c, 1, 48, 82
1, 53184, Note_on_c, 1, 36, 82
1, 53216, Note_on_c, 0, 57, 82
1, 53248, Note_on_c, 0, 57, 0
1, 53248, Note_on_c, 0, 67, 82
1, 53273, Note_on_c, 1, 48, 0
1, 53273, Note_on_c, 1, 36, 0
1, 53278, Note_on_c, 0, 67, 0
1, 53280, Note_on_c, 1, 50, 82
1, 53280, Note_on_c, 1, 38, 82
1, 53312, Note_on_c, 0, 57, 82
1, 53344, Note_on_c, 0, 57, 0
1, 53344, Note_on_c, 0, 66, 82
1, 53369, Note_on_c, 1, 50, 0
1, 53369, Note_on_c, 1, 38, 0
1, 53374, Note_on_c, 0, 66, 0
1, 53376, Note_on_c, 1, 43, 82
1, 53376, Note_on_c, 1, 31, 82
1, 53408, Note_on_c, 0, 67, 75
1, 53438, Note_on_c, 0, 67, 0
1, 53440, Note_on_c, 0, 68, 75
1, 53465, Note_on_c, 1, 43, 0
1, 53465, Note_on_c, 1, 31, 0
1, 53470, Note_on_c, 0, 68, 0
1, 53472, Note_on_c, 0, 69, 75
1, 53502, Note_on_c, 0, 69, 0
1, 53504, Note_on_c, 0, 70, 75
1, 53534, Note_on_c, 0, 70, 0
1, 53536, Note_on_c, 0, 71, 75
1, 53566, Note_on_c, 0, 71, 0
1, 53568, Note_on_c, 0, 72, 75
1, 53600, Note_on_c, 1, 50, 75
1, 53630, Note_on_c, 1, 50, 0
1, 53632, Note_on_c, 1, 51, 75
1, 53657, Note_on_c, 0, 72, 0
1, 53662, Note_on_c, 1, 51, 0
1, 53664, Note_on_c, 1, 52, 75
1, 53694, Note_on_c, 1, 52, 0
1, 53696, Note_on_c, 1, 53, 75
1, 53726, Note_on_c, 1, 53, 0
1, 53728, Note_on_c, 1, 54, 75
1, 53758, Note_on_c, 1, 54, 0
1, 53760, Note_on_c, 1, 55, 75
1, 53792, Note_on_c, 0, 67, 75
1, 53822, Note_on_c, 0, 67, 0
1, 53824, Note_on_c, 0, 68, 75
1, 53849, Note_on_c, 1, 55, 0
1, 53854, Note_on_c, 0, 68, 0
1, 53856, Note_on_c, 0, 69, 75
1, 53886, Note_on_c, 0, 69, 0
1, 53888, Note_on_c, 0, 70, 75
1, 53918, Note_on_c, 0, 70, 0
1, 53920, Note_on_c, 0, 71, 75
1, 53950, Note_on_c, 0, 71, 0
1, 53952, Note_on_c, 0, 72, 75
1, 53984, Note_on_c, 1, 62, 75
1, 54014, Note_on_c, 1, 62, 0
1, 54016, Note_on_c, 1, 63, 75
1, 54041, Note_on_c, 0, 72, 0
1, 54046, Note_on_c, 1, 63, 0
1, 54048, Note_on_c, 1, 64, 75
1, 54078, Note_on_c, 1, 64, 0
1, 54080, Note_on_c, 1, 65, 75
1, 54110, Note_on_c, 1, 65, 0
1, 54112, Note_on_c, 1, 66, 75
1, 54142, Note_on_c, 1, 66, 0
1, 54144, Note_on_c, 1, 67, 75
1, 54176, Note_on_c, 0, 69, 75
1, 54206, Note_on_c, 0, 69, 0
1, 54208, Note_on_c, 0, 70, 75
1, 54233, Note_on_c, 1, 67, 0
1, 54238, Note_on_c, 0, 70, 0
1, 54240, Note_on_c, 0, 71, 75
1, 54270, Note_on_c, 0, 71, 0
1, 54272, Note_on_c, 0, 72, 75
1, 54302, Note_on_c, 0, 72, 0
1, 54304, Note_on_c, 0, 74, 75
1, 54334, Note_on_c, 0, 74, 0
1, 54336, Note_on_c, 0, 75, 75
1, 54368, Note_on_c, 1, 60, 75
1, 54398, Note_on_c, 1, 60, 0
1, 54400, Note_on_c, 1, 62, 75
1, 54425, Note_on_c, 0, 75, 0
1, 54430, Note_on_c, 1, 62, 0
1, 54432, Note_on_c, 1, 63, 75
1, 54462, Note_on_c, 1, 63, 0
1, 54464, Note_on_c, 1, 65, 75
1, 54494, Note_on_c, 1, 65, 0
1, 54496, Note_on_c, 1, 67, 75
1, 54526, Note_on_c, 1, 67, 0
1, 54528, Note_on_c, 1, 69, 75
1, 54560, Note_on_c, 0, 72, 75
1, 54590, Note_on_c, 0, 72, 0
1, 54592, Note_on_c, 0, 73, 75
1, 54617, Note_on_c, 1, 69, 0
1, 54622, Note_on_c, 0, 73, 0
1, 54624, Note_on_c, 0, 74, 75
1, 54654, Note_on_c, 0, 74, 0
1, 54656, Note_on_c, 0, 75, 75
1, 54686, Note_on_c, 0, 75, 0
1, 54688, Note_on_c, 0, 76, 75
1, 54718, Note_on_c, 0, 76, 0
1, 54720, Note_on_c, 0, 77, 75
1, 54752, Note_on_c, 1, 65, 75
1, 54782, Note_on_c, 1, 65, 0
1, 54784, Note_on_c, 1, 66, 75
1, 54809, Note_on_c, 0, 77, 0
1, 54814, Note_on_c, 1, 66, 0
1, 54816, Note_on_c, 1, 67, 75
1, 54846, Note_on_c, 1, 67, 0
1, 54848, Note_on_c, 1, 68, 75
1, 54878, Note_on_c, 1, 68, 0
1, 54880, Note_on_c, 1, 69, 75
1, 54910, Note_on_c, 1, 69, 0
1, 54912, Note_on_c, 1, 70, 75
1, 54944, Note_on_c, 0, 77, 75
1, 54974, Note_on_c, 0, 77, 0
1, 54976, Note_on_c, 0, 78, 75
1, 55001, Note_on_c, 1, 70, 0
1, 55006, Note_on_c, 0, 78, 0
1, 55008, Note_on_c, 0, 79, 75
1, 55038, Note_on_c, 0, 79, 0
1, 55040, Note_on_c, 0, 80, 75
1, 55070, Note_on_c, 0, 80, 0
1, 55072, Note_on_c, 0, 81, 75
1, 55102, Note_on_c, 0, 81, 0
1, 55104, Note_on_c, 0, 82, 75
1, 55134, Note_on_c, 0, 82, 0
1, 55136, Note_on_c, 0, 81, 75
1, 55166, Note_on_c, 0, 81, 0
1, 55168, Note_on_c, 0, 82, 75
1, 55198, Note_on_c, 0, 82, 0
1, 55200, Note_on_c, 0, 86, 75
1, 55200, Note_on_c, 1, 62, 75
1, 55230, Note_on_c, 0, 86, 0
1, 55232, Note_on_c, 0, 82, 75
1, 55262, Note_on_c, 0, 82, 0
1, 55264, Note_on_c, 0, 77, 75
1, 55289, Note_on_c, 1, 62, 0
1, 55294, Note_on_c, 0, 77, 0
1, 55296, Note_on_c, 0, 78, 75
1, 55296, Note_on_c, 1, 63, 75
1, 55326, Note_on_c, 0, 78, 0
1, 55328, Note_on_c, 0, 79, 75
1, 55358, Note_on_c, 0, 79, 0
1, 55360, Note_on_c, 0, 82, 76
1, 55390, Note_on_c, 0, 82, 0
1, 55392, Note_on_c, 0, 74, 76
1, 55422, Note_on_c, 0, 74, 0
1, 55424, Note_on_c, 0, 75, 77
1, 55454, Note_on_c, 0, 75, 0
1, 55456, Note_on_c, 0, 79, 77
1, 55486, Note_on_c, 0, 79, 0
1, 55488, Note_on_c, 0, 71, 78
1, 55518, Note_on_c, 0, 71, 0
1, 55520, Note_on_c, 0, 72, 78
1, 55550, Note_on_c, 0, 72, 0
1, 55552, Note_on_c, 0, 75, 79
1, 55561, Note_on_c, 1, 63, 0
1, 55582, Note_on_c, 0, 75, 0
1, 55584, Note_on_c, 0, 67, 79
1, 55584, Note_on_c, 1, 64, 80
1, 55614, Note_on_c, 0, 67, 0
1, 55616, Note_on_c, 0, 72, 80
1, 55646, Note_on_c, 0, 72, 0
1, 55648, Note_on_c, 0, 70, 81
1, 55673, Note_on_c, 1, 64, 0
1, 55678, Note_on_c, 0, 70, 0
1, 55680, Note_on_c, 0, 69, 82
1, 55680, Note_on_c, 1, 65, 82
1, 55710, Note_on_c, 0, 69, 0
1, 55712, Note_on_c, 0, 72, 82
1, 55742, Note_on_c, 0, 72, 0
1, 55744, Note_on_c, 0, 70, 82
1, 55769, Note_on_c, 1, 65, 0
1, 55774, Note_on_c, 0, 70, 0
1, 55776, Note_on_c, 0, 74, 82
1, 55806, Note_on_c, 0, 74, 0
1, 55808, Note_on_c, 0, 72, 82
1, 55838, Note_on_c, 0, 72, 0
1, 55840, Note_on_c, 0, 75, 82
1, 55870, Note_on_c, 0, 75, 0
1, 55872, Note_on_c, 0, 74, 82
1, 55902, Note_on_c, 0, 74, 0
1, 55904, Note_on_c, 0, 77, 82
1, 55934, Note_on_c, 0, 77, 0
1, 55936, Note_on_c, 0, 75, 82
1, 55966, Note_on_c, 0, 75, 0
1, 55968, Note_on_c, 0, 79, 82
1, 55998, Note_on_c, 0, 79, 0
1, 56000, Note_on_c, 0, 77, 82
1, 56030, Note_on_c, 0, 77, 0
1, 56032, Note_on_c, 0, 75, 82
1, 56062, Note_on_c, 0, 75, 0
1, 56064, Note_on_c, 0, 74, 82
1, 56064, Note_on_c, 1, 53, 82
1, 56064, Note_on_c, 1, 57, 82
1, 56064, Note_on_c, 1, 60, 82
1, 56064, Note_on_c, 1, 63, 82
1, 56094, Note_on_c, 0, 74, 0
1, 56096, Note_on_c, 0, 72, 82
1, 56126, Note_on_c, 0, 72, 0
1, 56128, Note_on_c, 0, 70, 82
1, 56153, Note_on_c, 1, 63, 0
1, 56153, Note_on_c, 1, 60, 0
1, 56153, Note_on_c, 1, 57, 0
1, 56153, Note_on_c, 1, 53, 0
1, 56158, Note_on_c, 0, 70, 0
1, 56160, Note_on_c, 0, 69, 82
1, 56190, Note_on_c, 0, 69, 0
1, 56192, Note_on_c, 0, 72, 82
1, 56222, Note_on_c, 0, 72, 0
1, 56224, Note_on_c, 0, 70, 82
1, 56254, Note_on_c, 0, 70, 0
1, 56256, Note_on_c, 0, 74, 82
1, 56286, Note_on_c, 0, 74, 0
1, 56288, Note_on_c, 0, 72, 82
1, 56318, Note_on_c, 0, 72, 0
1, 56320, Note_on_c, 0, 75, 82
1, 56350, Note_on_c, 0, 75, 0
1, 56352, Note_on_c, 0, 74, 82
1, 56382, Note_on_c, 0, 74, 0
1, 56384, Note_on_c, 0, 77, 82
1, 56414, Note_on_c, 0, 77, 0
1, 56416, Note_on_c, 0, 75, 82
1, 56446, Note_on_c, 0, 75, 0
1, 56448, Note_on_c, 0, 79, 115
1, 56448, Note_on_c, 1, 63, 82
1, 56448, Note_on_c, 1, 60, 82
1, 56448, Note_on_c, 1, 57, 82
1, 56448, Note_on_c, 1, 53, 82
1, 56478, Note_on_c, 0, 79, 0
1, 56480, Note_on_c, 0, 77, 82
1, 56510, Note_on_c, 0, 77, 0
1, 56512, Note_on_c, 0, 75, 82
1, 56537, Note_on_c, 1, 63, 0
1, 56537, Note_on_c, 1, 60, 0
1, 56537, Note_on_c, 1, 57, 0
1, 56537, Note_on_c, 1, 53, 0
1, 56542, Note_on_c, 0, 75, 0
1, 56544, Note_on_c, 0, 74, 82
1, 56574, Note_on_c, 0, 74, 0
1, 56576, Note_on_c, 0, 72, 82
1, 56606, Note_on_c, 0, 72, 0
1, 56608, Note_on_c, 0, 70, 82
1, 56638, Note_on_c, 0, 70, 0
1, 56640, Note_on_c, 0, 69, 82
1, 56670, Note_on_c, 0, 69, 0
1, 56672, Note_on_c, 0, 72, 82
1, 56702, Note_on_c, 0, 72, 0
1, 56704, Note_on_c, 0, 70, 82
1, 56734, Note_on_c, 0, 70, 0
1, 56736, Note_on_c, 0, 74, 82
1, 56766, Note_on_c, 0, 74, 0
1, 56768, Note_on_c, 0, 72, 82
1, 56798, Note_on_c, 0, 72, 0
1, 56800, Note_on_c, 0, 75, 82
1, 56830, Note_on_c, 0, 75, 0
1, 56832, Note_on_c, 0, 74, 82
1, 56832, Note_on_c, 1, 53, 82
1, 56844, Note_on_c, 1, 57, 82
1, 56856, Note_on_c, 1, 60, 82
1, 56862, Note_on_c, 0, 74, 0
1, 56864, Note_on_c, 0, 77, 82
1, 56868, Note_on_c, 1, 63, 82
1, 56894, Note_on_c, 0, 77, 0
1, 56896, Note_on_c, 0, 75, 82
1, 56926, Note_on_c, 0, 75, 0
1, 56928, Note_on_c, 0, 79, 82
1, 56958, Note_on_c, 0, 79, 0
1, 56960, Note_on_c, 0, 77, 82
1, 56990, Note_on_c, 0, 77, 0
1, 56992, Note_on_c, 0, 81, 82
1, 57022, Note_on_c, 0, 81, 0
1, 57024, Note_on_c, 0, 79, 82
1, 57054, Note_on_c, 0, 79, 0
1, 57056, Note_on_c, 0, 82, 82
1, 57086, Note_on_c, 0, 82, 0
1, 57088, Note_on_c, 0, 81, 82
1, 57118, Note_on_c, 0, 81, 0
1, 57120, Note_on_c, 0, 84, 82
1, 57150, Note_on_c, 0, 84, 0
1, 57152, Note_on_c, 0, 82, 82
1, 57182, Note_on_c, 0, 82, 0
1, 57184, Note_on_c, 0, 86, 82
1, 57214, Note_on_c, 0, 86, 0
1, 57216, Note_on_c, 0, 84, 82
1, 57246, Note_on_c, 0, 84, 0
1, 57248, Note_on_c, 0, 87, 82
1, 57278, Note_on_c, 0, 87, 0
1, 57280, Note_on_c, 0, 86, 82
1, 57310, Note_on_c, 0, 86, 0
1, 57312, Note_on_c, 0, 89, 82
1, 57357, Note_on_c, 0, 89, 0
1, 57360, Note_on_c, 0, 87, 82
1, 57405, Note_on_c, 0, 87, 0
1, 57408, Tempo, 428571
1, 57408, Note_on_c, 0, 86, 82
1, 57453, Note_on_c, 0, 86, 0
1, 57456, Tempo, 444444
1, 57456, Note_on_c, 0, 84, 82
1, 57501, Note_on_c, 0, 84, 0
1, 57504, Tempo, 461538
1, 57504, Note_on_c, 0, 82, 82
1, 57549, Note_on_c, 0, 82, 0
1, 57552, Tempo, 480000
1, 57552, Note_on_c, 0, 81, 82
1, 57597, Note_on_c, 0, 81, 0
1, 57600, Tempo, 500000
1, 57600, Note_on_c, 0, 80, 82
1, 57645, Note_on_c, 0, 80, 0
1, 57648, Tempo, 521739
1, 57648, Note_on_c, 0, 79, 82
1, 57693, Note_on_c, 0, 79, 0
1, 57696, Tempo, 545454
1, 57696, Note_on_c, 0, 78, 82
1, 57741, Note_on_c, 0, 78, 0
1, 57744, Tempo, 571428
1, 57744, Note_on_c, 0, 77, 82
1, 57789, Note_on_c, 0, 77, 0
1, 57792, Tempo, 1200000
1, 57792, Note_on_c, 0, 76, 82
1, 57881, Note_on_c, 0, 76, 0
1, 57888, Tempo, 2400000
1, 57888, Note_on_c, 0, 75, 82
1, 57977, Note_on_c, 0, 75, 0
1, 57977, Note_on_c, 1, 63, 0
1, 57977, Note_on_c, 1, 60, 0
1, 57977, Note_on_c, 1, 57, 0
1, 57977, Note_on_c, 1, 53, 0
1, 57984, Tempo, 413793
1, 57984, Note_on_c, 0, 74, 82
1, 57984, Note_on_c, 1, 58, 82
1, 57984, Note_on_c, 1, 53, 82
1, 57984, Note_on_c, 1, 50, 82
1, 57984, Note_on_c, 1, 46, 82
1, 58002, Note_on_c, 0, 74, 0
1, 58002, Note_on_c, 0, 77, 82
1, 58020, Note_on_c, 0, 77, 0
1, 58020, Note_on_c, 0, 82, 82
1, 58147, Note_on_c, 0, 82, 0
1, 58152, Note_on_c, 0, 81, 80
1, 58161, Note_on_c, 1, 58, 0
1, 58161, Note_on_c, 1, 53, 0
1, 58161, Note_on_c, 1, 50, 0
1, 58161, Note_on_c, 1, 46, 0
1, 58176, Note_on_c, 0, 81, 0
1, 58176, Note_on_c, 0, 79, 80
1, 58196, Note_on_c, 0, 79, 0
1, 58248, Note_on_c, 0, 77, 79
1, 58272, Note_on_c, 0, 77, 0
1, 58272, Note_on_c, 0, 75, 78
1, 58292, Note_on_c, 0, 75, 0
1, 58344, Note_on_c, 0, 74, 77
1, 58367, Note_on_c, 0, 74, 0
1, 58368, Note_on_c, 0, 72, 77
1, 58464, Note_on_c, 1, 70, 75
1, 58464, Note_on_c, 1, 66, 75
1, 58501, Note_on_c, 0, 72, 0
1, 58512, Note_on_c, 0, 72, 75
1, 58535, Note_on_c, 0, 72, 0
1, 58536, Note_on_c, 0, 74, 75
1, 58559, Note_on_c, 0, 74, 0
1, 58560, Note_on_c, 0, 75, 76
1, 58560, Note_on_c, 1, 70, 0
1, 58560, Note_on_c, 1, 66, 0
1, 58560, Note_on_c, 1, 69, 70
1, 58560, Note_on_c, 1, 65, 70
1, 58627, Note_on_c, 0, 75, 0
1, 58632, Note_on_c, 0, 74, 78
1, 58644, Note_on_c, 0, 74, 0
1, 58644, Note_on_c, 0, 75, 78
1, 58649, Note_on_c, 1, 69, 0
1, 58649, Note_on_c, 1, 65, 0
1, 58656, Note_on_c, 0, 75, 0
1, 58656, Note_on_c, 0, 77, 79
1, 58723, Note_on_c, 0, 77, 0
1, 58728, Note_on_c, 0, 75, 81
1, 58740, Note_on_c, 0, 75, 0
1, 58740, Note_on_c, 0, 77, 81
1, 58752, Note_on_c, 0, 77, 0
1, 58752, Note_on_c, 0, 79, 82
1, 58893, Note_on_c, 0, 79, 0
1, 58920, Note_on_c, 0, 77, 82
1, 58944, Note_on_c, 0, 77, 0
1, 58944, Note_on_c, 0, 75, 82
1, 58964, Note_on_c, 0, 75, 0
1, 59016, Note_on_c, 0, 74, 82
1, 59040, Note_on_c, 0, 74, 0
1, 59040, Note_on_c, 0, 72, 82
1, 59060, Note_on_c, 0, 72, 0
1, 59112, Note_on_c, 0, 70, 82
1, 59135, Note_on_c, 0, 70, 0
1, 59136, Note_on_c, 0, 69, 82
1, 59175, Note_on_c, 0, 69, 0
1, 59232, Note_on_c, 0, 75, 115
1, 59232, Note_on_c, 1, 60, 66
1, 59232, Note_on_c, 1, 54, 64
1, 59328, Note_on_c, 1, 54, 0
1, 59328, Note_on_c, 1, 55, 64
1, 59424, Note_on_c, 0, 75, 0
1, 59424, Note_on_c, 0, 74, 82
1, 59424, Note_on_c, 1, 60, 0
1, 59424, Note_on_c, 1, 58, 66
1, 59505, Note_on_c, 1, 55, 0
1, 59513, Note_on_c, 0, 74, 0
1, 59513, Note_on_c, 1, 58, 0
1, 59520, Note_on_c, 0, 72, 82
1, 59559, Note_on_c, 0, 72, 0
1, 59616, Note_on_c, 0, 79, 115
1, 59616, Note_on_c, 1, 69, 64
1, 59616, Note_on_c, 1, 63, 64
1, 59712, Note_on_c, 1, 69, 0
1, 59712, Note_on_c, 1, 63, 0
1, 59712, Note_on_c, 1, 70, 64
1, 59712, Note_on_c, 1, 62, 64
1, 59808, Note_on_c, 0, 79, 0
1, 59808, Note_on_c, 0, 77, 82
1, 59889, Note_on_c, 1, 70, 0
1, 59889, Note_on_c, 1, 62, 0
1, 59897, Note_on_c, 0, 77, 0
1, 59904, Note_on_c, 0, 87, 98
1, 59904, Note_on_c, 1, 65, 82
1, 59904, Note_on_c, 1, 63, 82
1, 59904, Note_on_c, 1, 60, 82
1, 59904, Note_on_c, 1, 57, 82
1, 59928, Note_on_c, 0, 87, 0
1, 59928, Note_on_c, 0, 89, 82
1, 59951, Note_on_c, 0, 89, 0
1, 59952, Note_on_c, 0, 87, 82
1, 59975, Note_on_c, 0, 87, 0
1, 59976, Note_on_c, 0, 86, 82
1, 59999, Note_on_c, 0, 86, 0
1, 60000, Note_on_c, 0, 84, 82
1, 60023, Note_on_c, 0, 84, 0
1, 60024, Note_on_c, 0, 86, 82
1, 60047, Note_on_c, 0, 86, 0
1, 60048, Note_on_c, 0, 84, 82
1, 60071, Note_on_c, 0, 84, 0
1, 60072, Note_on_c, 0, 82, 82
1, 60095, Note_on_c, 0, 82, 0
1, 60096, Note_on_c, 0, 81, 82
1, 60119, Note_on_c, 0, 81, 0
1, 60120, Note_on_c, 0, 82, 82
1, 60143, Note_on_c, 0, 82, 0
1, 60144, Note_on_c, 0, 81, 82
1, 60167, Note_on_c, 0, 81, 0
1, 60168, Note_on_c, 0, 79, 82
1, 60191, Note_on_c, 0, 79, 0
1, 60192, Note_on_c, 0, 77, 82
1, 60215, Note_on_c, 0, 77, 0
1, 60216, Note_on_c, 0, 79, 82
1, 60239, Note_on_c, 0, 79, 0
1, 60240, Note_on_c, 0, 77, 82
1, 60258, Note_on_c, 1, 65, 0
1, 60258, Note_on_c, 1, 63, 0
1, 60258, Note_on_c, 1, 60, 0
1, 60258, Note_on_c, 1, 57, 0
1, 60263, Note_on_c, 0, 77, 0
1, 60264, Note_on_c, 0, 75, 82
1, 60287, Note_on_c, 0, 75, 0
1, 60288, Note_on_c, 0, 74, 82
1, 60288, Note_on_c, 1, 58, 75
1, 60355, Note_on_c, 0, 74, 0
1, 60360, Note_on_c, 0, 77, 80
1, 60377, Note_on_c, 1, 58, 0
1, 60383, Note_on_c, 0, 77, 0
1, 60384, Note_on_c, 0, 75, 80
1, 60384, Note_on_c, 1, 67, 75
1, 60451, Note_on_c, 0, 75, 0
1, 60456, Note_on_c, 0, 72, 78
1, 60473, Note_on_c, 1, 67, 0
1, 60479, Note_on_c, 0, 72, 0
1, 60480, Note_on_c, 0, 74, 78
1, 60480, Note_on_c, 1, 65, 75
1, 60547, Note_on_c, 0, 74, 0
1, 60552, Note_on_c, 0, 70, 77
1, 60569, Note_on_c, 1, 65, 0
1, 60575, Note_on_c, 0, 70, 0
1, 60576, Note_on_c, 0, 72, 76
1, 60576, Note_on_c, 1, 63, 75
1, 60576, Note_on_c, 1, 53, 75
1, 60643, Note_on_c, 0, 72, 0
1, 60648, Note_on_c, 0, 69, 75
1, 60665, Note_on_c, 1, 63, 0
1, 60665, Note_on_c, 1, 53, 0
1, 60671, Note_on_c, 0, 69, 0
1, 60672, Note_on_c, 0, 70, 75
1, 60672, Note_on_c, 1, 62, 75
1, 60672, Note_on_c, 1, 58, 75
1, 60805, Note_on_c, 0, 70, 0
1, 60805, Note_on_c, 1, 62, 0
1, 60805, Note_on_c, 1, 58, 0
1, 60936, Note_on_c, 0, 58, 75
1, 60959, Note_on_c, 0, 58, 0
1, 60960, Note_on_c, 0, 60, 75
1, 60966, Note_on_c, 0, 60, 0
1, 60966, Note_on_c, 0, 58, 75
1, 60983, Note_on_c, 0, 58, 0
1, 60984, Note_on_c, 0, 57, 75
1, 61007, Note_on_c, 0, 57, 0
1, 61008, Note_on_c, 0, 58, 75
1, 61031, Note_on_c, 0, 58, 0
1, 61032, Note_on_c, 0, 60, 75
1, 61055, Note_on_c, 0, 60, 0
1, 61056, Note_on_c, 0, 62, 75
1, 61056, Note_on_c, 1, 46, 64
1, 61056, Note_on_c, 1, 34, 64
1, 61123, Note_on_c, 0, 62, 0
1, 61128, Note_on_c, 0, 58, 75
1, 61151, Note_on_c, 0, 58, 0
1, 61152, Note_on_c, 0, 63, 75
1, 61219, Note_on_c, 0, 63, 0
1, 61224, Note_on_c, 0, 60, 77
1, 61233, Note_on_c, 1, 46, 0
1, 61233, Note_on_c, 1, 34, 0
1, 61247, Note_on_c, 0, 60, 0
1, 61248, Note_on_c, 0, 65, 77
1, 61315, Note_on_c, 0, 65, 0
1, 61320, Note_on_c, 0, 62, 79
1, 61343, Note_on_c, 0, 62, 0
1, 61344, Note_on_c, 0, 70, 79
1, 61373, Note_on_c, 0, 70, 0
1, 61416, Note_on_c, 0, 70, 81
1, 61416, Note_on_c, 0, 62, 81
1, 61439, Note_on_c, 0, 70, 0
1, 61439, Note_on_c, 0, 62, 0
1, 61440, Note_on_c, 0, 70, 98
1, 61440, Note_on_c, 0, 62, 98
1, 61512, Note_on_c, 1, 52, 64
1, 61535, Note_on_c, 1, 52, 0
1, 61536, Note_on_c, 1, 53, 64
1, 61603, Note_on_c, 1, 53, 0
1, 61608, Note_on_c, 1, 52, 64
1, 61631, Note_on_c, 1, 52, 0
1, 61632, Note_on_c, 0, 70, 0
1, 61632, Note_on_c, 0, 62, 0
1, 61632, Note_on_c, 0, 69, 76
1, 61632, Note_on_c, 0, 60, 76
1, 61632, Note_on_c, 1, 53, 64
1, 61677, Note_on_c, 0, 69, 0
1, 61677, Note_on_c, 0, 60, 0
1, 61704, Note_on_c, 0, 65, 75
1, 61721, Note_on_c, 1, 53, 0
1, 61727, Note_on_c, 0, 65, 0
1, 61728, Note_on_c, 0, 67, 75
1, 61734, Note_on_c, 0, 67, 0
1, 61734, Note_on_c, 0, 65, 75
1, 61751, Note_on_c, 0, 65, 0
1, 61752, Note_on_c, 0, 64, 75
1, 61775, Note_on_c, 0, 64, 0
1, 61776, Note_on_c, 0, 65, 75
1, 61799, Note_on_c, 0, 65, 0
1, 61800, Note_on_c, 0, 67, 75
1, 61823, Note_on_c, 0, 67, 0
1, 61824, Note_on_c, 0, 69, 75
1, 61824, Note_on_c, 1, 53, 75
1, 61824, Note_on_c, 1, 41, 75
1, 61891, Note_on_c, 0, 69, 0
1, 61896, Note_on_c, 0, 65, 76
1, 61919, Note_on_c, 0, 65, 0
1, 61920, Note_on_c, 0, 70, 76
1, 61987, Note_on_c, 0, 70, 0
1, 61992, Note_on_c, 0, 67, 78
1, 62001, Note_on_c, 1, 53, 0
1, 62001, Note_on_c, 1, 41, 0
1, 62015, Note_on_c, 0, 67, 0
1, 62016, Note_on_c, 0, 72, 78
1, 62083, Note_on_c, 0, 72, 0
1, 62088, Note_on_c, 0, 69, 80
1, 62111, Note_on_c, 0, 69, 0
1, 62112, Note_on_c, 0, 75, 80
1, 62141, Note_on_c, 0, 75, 0
1, 62184, Note_on_c, 0, 75, 82
1, 62184, Note_on_c, 0, 72, 82
1, 62207, Note_on_c, 0, 75, 0
1, 62207, Note_on_c, 0, 72, 0
1, 62208, Note_on_c, 0, 75, 98
1, 62208, Note_on_c, 0, 72, 98
1, 62280, Note_on_c, 1, 57, 82
1, 62303, Note_on_c, 1, 57, 0
1, 62304, Note_on_c, 1, 58, 82
1, 62371, Note_on_c, 1, 58, 0
1, 62376, Note_on_c, 1, 57, 82
1, 62399, Note_on_c, 1, 57, 0
1, 62400, Note_on_c, 0, 75, 0
1, 62400, Note_on_c, 0, 72, 0
1, 62400, Note_on_c, 0, 74, 76
1, 62400, Note_on_c, 0, 70, 76
1, 62400, Note_on_c, 1, 58, 82
1, 62445, Note_on_c, 0, 74, 0
1, 62445, Note_on_c, 0, 70, 0
1, 62472, Note_on_c, 0, 74, 75
1, 62489, Note_on_c, 1, 58, 0
1, 62495, Note_on_c, 0, 74, 0
1, 62496, Note_on_c, 0, 75, 75
1, 62502, Note_on_c, 0, 75, 0
1, 62502, Note_on_c, 0, 74, 75
1, 62519, Note_on_c, 0, 74, 0
1, 62520, Note_on_c, 0, 72, 75
1, 62543, Note_on_c, 0, 72, 0
1, 62544, Note_on_c, 0, 74, 75
1, 62567, Note_on_c, 0, 74, 0
1, 62568, Note_on_c, 0, 75, 75
1, 62591, Note_on_c, 0, 75, 0
1, 62592, Note_on_c, 0, 77, 75
1, 62592, Note_on_c, 1, 58, 75
1, 62592, Note_on_c, 1, 53, 75
1, 62592, Note_on_c, 1, 50, 75
1, 62592, Note_on_c, 1, 46, 75
1, 62659, Note_on_c, 0, 77, 0
1, 62664, Note_on_c, 0, 74, 76
1, 62687, Note_on_c, 0, 74, 0
1, 62688, Note_on_c, 0, 82, 77
1, 62755, Note_on_c, 0, 82, 0
1, 62760, Note_on_c, 0, 77, 79
1, 62769, Note_on_c, 1, 58, 0
1, 62769, Note_on_c, 1, 53, 0
1, 62769, Note_on_c, 1, 50, 0
1, 62769, Note_on_c, 1, 46, 0
1, 62783, Note_on_c, 0, 77, 0
1, 62784, Note_on_c, 0, 86, 80
1, 62851, Note_on_c, 0, 86, 0
1, 62856, Note_on_c, 0, 84, 82
1, 62880, Note_on_c, 0, 84, 0
1, 62880, Note_on_c, 0, 82, 81
1, 62880, Note_on_c, 1, 62, 75
1, 62880, Note_on_c, 1, 58, 64
1, 62900, Note_on_c, 0, 82, 0
1, 62952, Note_on_c, 0, 81, 80
1, 62969, Note_on_c, 1, 62, 0
1, 62976, Note_on_c, 0, 81, 0
1, 62976, Note_on_c, 0, 79, 79
1, 62976, Note_on_c, 1, 63, 75
1, 62996, Note_on_c, 0, 79, 0
1, 63048, Note_on_c, 0, 77, 78
1, 63065, Note_on_c, 1, 63, 0
1, 63072, Note_on_c, 0, 77, 0
1, 63072, Note_on_c, 0, 75, 77
1, 63072, Note_on_c, 1, 65, 75
1, 63092, Note_on_c, 0, 75, 0
1, 63144, Note_on_c, 0, 74, 76
1, 63161, Note_on_c, 1, 65, 0
1, 63168, Note_on_c, 0, 74, 0
1, 63168, Note_on_c, 0, 72, 75
1, 63168, Note_on_c, 1, 67, 75
1, 63188, Note_on_c, 0, 72, 0
1, 63240, Note_on_c, 0, 79, 75
1, 63257, Note_on_c, 1, 67, 0
1, 63264, Note_on_c, 0, 79, 0
1, 63264, Note_on_c, 0, 77, 75
1, 63264, Note_on_c, 1, 69, 75
1, 63284, Note_on_c, 0, 77, 0
1, 63336, Note_on_c, 0, 75, 75
1, 63353, Note_on_c, 1, 69, 0
1, 63360, Note_on_c, 0, 75, 0
1, 63360, Note_on_c, 0, 74, 75
1, 63360, Note_on_c, 1, 70, 75
1, 63380, Note_on_c, 0, 74, 0
1, 63432, Note_on_c, 0, 77, 77
1, 63449, Note_on_c, 1, 70, 0
1, 63449, Note_on_c, 1, 58, 0
1, 63456, Note_on_c, 0, 77, 0
1, 63456, Note_on_c, 0, 82, 77
1, 63476, Note_on_c, 0, 82, 0
1, 63528, Note_on_c, 0, 77, 79
1, 63552, Note_on_c, 0, 77, 0
1, 63552, Note_on_c, 0, 86, 80
1, 63572, Note_on_c, 0, 86, 0
1, 63624, Note_on_c, 0, 84, 82
1, 63648, Note_on_c, 0, 84, 0
1, 63648, Note_on_c, 0, 82, 81
1, 63648, Note_on_c, 1, 62, 75
1, 63648, Note_on_c, 1, 58, 64
1, 63668, Note_on_c, 0, 82, 0
1, 63720, Note_on_c, 0, 81, 78
1, 63737, Note_on_c, 1, 62, 0
1, 63744, Note_on_c, 0, 81, 0
1, 63744, Note_on_c, 0, 79, 78
1, 63744, Note_on_c, 1, 63, 75
1, 63764, Note_on_c, 0, 79, 0
1, 63816, Note_on_c, 0, 77, 75
1, 63833, Note_on_c, 1, 63, 0
1, 63840, Note_on_c, 0, 77, 0
1, 63840, Note_on_c, 0, 75, 75
1, 63840, Note_on_c, 1, 65, 73
1, 63860, Note_on_c, 0, 75, 0
1, 63912, Note_on_c, 0, 74, 72
1, 63929, Note_on_c, 1, 65, 0
1, 63936, Note_on_c, 0, 74, 0
1, 63936, Note_on_c, 0, 72, 72
1, 63936, Note_on_c, 1, 67, 71
1, 63956, Note_on_c, 0, 72, 0
1, 64008, Note_on_c, 0, 79, 69
1, 64025, Note_on_c, 1, 67, 0
1, 64032, Note_on_c, 0, 79, 0
1, 64032, Note_on_c, 0, 77, 69
1, 64032, Note_on_c, 1, 69, 69
1, 64052, Note_on_c, 0, 77, 0
1, 64098, Note_on_c, 1, 58, 0
1, 64104, Note_on_c, 0, 75, 66
1, 64121, Note_on_c, 1, 69, 0
1, 64128, Note_on_c, 0, 75, 0
1, 64128, Note_on_c, 0, 74, 66
1, 64128, Note_on_c, 1, 70, 67
1, 64128, Note_on_c, 1, 58, 67
1, 64148, Note_on_c, 0, 74, 0
1, 64173, Note_on_c, 1, 70, 0
1, 64173, Note_on_c, 1, 58, 0
1, 64200, Note_on_c, 0, 79, 66
1, 64224, Note_on_c, 0, 79, 0
1, 64224, Note_on_c, 0, 77, 66
1, 64224, Note_on_c, 1, 69, 66
1, 64224, Note_on_c, 1, 58, 66
1, 64244, Note_on_c, 0, 77, 0
1, 64269, Note_on_c, 1, 69, 0
1, 64269, Note_on_c, 1, 58, 0
1, 64296, Note_on_c, 0, 75, 66
1, 64320, Note_on_c, 0, 75, 0
1, 64320, Note_on_c, 0, 74, 66
1, 64320, Note_on_c, 1, 70, 66
1, 64320, Note_on_c, 1, 58, 66
1, 64340, Note_on_c, 0, 74, 0
1, 64365, Note_on_c, 1, 70, 0
1, 64365, Note_on_c, 1, 58, 0
1, 64392, Note_on_c, 0, 79, 66
1, 64416, Note_on_c, 0, 79, 0
1, 64416, Note_on_c, 0, 77, 66
1, 64416, Note_on_c, 1, 69, 66
1, 64416, Note_on_c, 1, 58, 66
1, 64436, Note_on_c, 0, 77, 0
1, 64461, Note_on_c, 1, 69, 0
1, 64461, Note_on_c, 1, 58, 0
1, 64488, Note_on_c, 0, 75, 66
1, 64512, Note_on_c, 0, 75, 0
1, 64512, Note_on_c, 0, 74, 66
1, 64512, Note_on_c, 1, 70, 66
1, 64512, Note_on_c, 1, 58, 66
1, 64532, Note_on_c, 0, 74, 0
1, 64557, Note_on_c, 1, 70, 0
1, 64557, Note_on_c, 1, 58, 0
1, 64584, Note_on_c, 0, 84, 56
1, 64608, Note_on_c, 0, 84, 0
1, 64608, Note_on_c, 0, 82, 57
1, 64628, Note_on_c, 0, 82, 0
1, 64680, Note_on_c, 0, 81, 61
1, 64704, Note_on_c, 0, 81, 0
1, 64704, Note_on_c, 0, 79, 62
1, 64724, Note_on_c, 0, 79, 0
1, 64776, Note_on_c, 0, 77, 66
1, 64800, Note_on_c, 0, 77, 0
1, 64800, Note_on_c, 0, 75, 67
1, 64800, Note_on_c, 1, 53, 66
1, 64800, Note_on_c, 1, 50, 66
1, 64820, Note_on_c, 0, 75, 0
1, 64872, Note_on_c, 0, 74, 71
1, 64889, Note_on_c, 1, 53, 0
1, 64889, Note_on_c, 1, 50, 0
1, 64896, Note_on_c, 0, 74, 0
1, 64896, Note_on_c, 0, 72, 72
1, 64896, Note_on_c, 1, 55, 66
1, 64896, Note_on_c, 1, 51, 66
1, 64916, Note_on_c, 0, 72, 0
1, 64944, Note_on_c, 0, 78, 75
1, 64985, Note_on_c, 1, 55, 0
1, 64985, Note_on_c, 1, 51, 0
1, 64989, Note_on_c, 0, 78, 0
1, 64992, Note_on_c, 0, 81, 108
1, 65037, Note_on_c, 0, 81, 0
1, 65040, Note_on_c, 0, 79, 75
1, 65085, Note_on_c, 0, 79, 0
1, 65088, Note_on_c, 0, 77, 75
1, 65133, Note_on_c, 0, 77, 0
1, 65136, Note_on_c, 0, 75, 72
1, 65181, Note_on_c, 0, 75, 0
1, 65184, Note_on_c, 0, 74, 70
1, 65229, Note_on_c, 0, 74, 0
1, 65232, Note_on_c, 0, 72, 68
1, 65232, Note_on_c, 1, 60, 68
1, 65232, Note_on_c, 1, 52, 68
1, 65277, Note_on_c, 0, 72, 0
1, 65277, Note_on_c, 1, 60, 0
1, 65277, Note_on_c, 1, 52, 0
1, 65280, Note_on_c, 0, 70, 66
1, 65280, Note_on_c, 1, 62, 66
1, 65280, Note_on_c, 1, 53, 66
1, 65472, Note_on_c, 0, 70, 0
1, 65472, Note_on_c, 0, 69, 58
1, 65472, Note_on_c, 1, 62, 0
1, 65472, Note_on_c, 1, 60, 58
1, 65517, Note_on_c, 0, 69, 0
1, 65517, Note_on_c, 1, 60, 0
1, 65517, Note_on_c, 1, 53, 0
1, 65640, Note_on_c, 0, 62, 82
1, 65652, Note_on_c, 0, 62, 0
1, 65652, Note_on_c, 0, 65, 82
1, 65664, Note_on_c, 0, 65, 0
1, 65664, Note_on_c, 0, 70, 82
1, 65760, Note_on_c, 1, 58, 82
1, 65760, Note_on_c, 1, 53, 82
1, 65760, Note_on_c, 1, 50, 82
1, 65760, Note_on_c, 1, 46, 82
1, 65819, Note_on_c, 0, 70, 0
1, 65832, Note_on_c, 0, 65, 82
1, 65844, Note_on_c, 0, 65, 0
1, 65844, Note_on_c, 0, 69, 82
1, 65849, Note_on_c, 1, 58, 0
1, 65849, Note_on_c, 1, 53, 0
1, 65849, Note_on_c, 1, 50, 0
1, 65849, Note_on_c, 1, 46, 0
1, 65856, Note_on_c, 0, 69, 0
1, 65856, Note_on_c, 0, 72, 82
1, 65952, Note_on_c, 1, 53, 82
1, 65952, Note_on_c, 1, 48, 82
1, 65952, Note_on_c, 1, 45, 82
1, 65952, Note_on_c, 1, 41, 82
1, 66011, Note_on_c, 0, 72, 0
1, 66024, Note_on_c, 0, 65, 82
1, 66036, Note_on_c, 0, 65, 0
1, 66036, Note_on_c, 0, 70, 82
1, 66041, Note_on_c, 1, 53, 0
1, 66041, Note_on_c, 1, 48, 0
1, 66041, Note_on_c, 1, 45, 0
1, 66041, Note_on_c, 1, 41, 0
1, 66048, Note_on_c, 0, 70, 0
1, 66048, Note_on_c, 0, 74, 82
1, 66144, Note_on_c, 1, 46, 82
1, 66144, Note_on_c, 1, 41, 82
1, 66144, Note_on_c, 1, 38, 82
1, 66144, Note_on_c, 1, 34, 82
1, 66203, Note_on_c, 0, 74, 0
1, 66216, Note_on_c, 0, 74, 82
1, 66228, Note_on_c, 0, 74, 0
1, 66228, Note_on_c, 0, 77, 82
1, 66233, Note_on_c, 1, 46, 0
1, 66233, Note_on_c, 1, 41, 0
1, 66233, Note_on_c, 1, 38, 0
1, 66233, Note_on_c, 1, 34, 0
1, 66240, Note_on_c, 0, 77, 0
1, 66240, Note_on_c, 0, 82, 82
1, 66263, Note_on_c, 0, 82, 0
1, 66264, Note_on_c, 0, 81, 82
1, 66287, Note_on_c, 0, 81, 0
1, 66288, Note_on_c, 0, 79, 82
1, 66311, Note_on_c, 0, 79, 0
1, 66312, Note_on_c, 0, 77, 82
1, 66335, Note_on_c, 0, 77, 0
1, 66336, Note_on_c, 0, 75, 82
1, 66359, Note_on_c, 0, 75, 0
1, 66360, Note_on_c, 0, 74, 82
1, 66383, Note_on_c, 0, 74, 0
1, 66384, Note_on_c, 0, 72, 82
1, 66407, Note_on_c, 0, 72, 0
1, 66408, Note_on_c, 0, 70, 82
1, 66431, Note_on_c, 0, 70, 0
1, 66432, Note_on_c, 0, 69, 82
1, 66528, Note_on_c, 1, 65, 75
1, 66528, Note_on_c, 1, 63, 75
1, 66587, Note_on_c, 0, 69, 0
1, 66600, Note_on_c, 0, 69, 70
1, 66622, Note_on_c, 1, 65, 0
1, 66622, Note_on_c, 1, 63, 0
1, 66623, Note_on_c, 0, 69, 0
1, 66624, Note_on_c, 0, 70, 69
1, 66720, Note_on_c, 1, 65, 66
1, 66720, Note_on_c, 1, 62, 66
1, 66779, Note_on_c, 0, 70, 0
1, 66792, Note_on_c, 0, 70, 57
1, 66809, Note_on_c, 1, 65, 0
1, 66809, Note_on_c, 1, 62, 0
1, 66815, Note_on_c, 0, 70, 0
1, 66816, Note_on_c, 0, 71, 56
1, 66912, Note_on_c, 0, 71, 0
1, 66912, Note_on_c, 0, 72, 56
1, 66912, Note_on_c, 1, 65, 56
1, 66912, Note_on_c, 1, 57, 56
1, 67006, Note_on_c, 0, 72, 0
1, 67006, Note_on_c, 1, 65, 0
1, 67006, Note_on_c, 1, 57, 0
1, 67176, Note_on_c, 0, 84, 82
1, 67199, Note_on_c, 0, 84, 0
1, 67200, Note_on_c, 0, 85, 82
1, 67200, Note_on_c, 1, 70, 56
1, 67230, Note_on_c, 1, 70, 0
1, 67232, Note_on_c, 1, 73, 56
1, 67262, Note_on_c, 1, 73, 0
1, 67264, Note_on_c, 1, 77, 56
1, 67289, Note_on_c, 0, 85, 0
1, 67294, Note_on_c, 1, 77, 0
1, 67296, Note_on_c, 0, 85, 115
1, 67296, Note_on_c, 1, 70, 56
1, 67326, Note_on_c, 1, 70, 0
1, 67328, Note_on_c, 1, 73, 56
1, 67358, Note_on_c, 1, 73, 0
1, 67360, Note_on_c, 1, 77, 56
1, 67390, Note_on_c, 1, 77, 0
1, 67392, Note_on_c, 1, 70, 56
1, 67422, Note_on_c, 1, 70, 0
1, 67424, Note_on_c, 1, 73, 56
1, 67429, Note_on_c, 0, 85, 0
1, 67440, Note_on_c, 0, 85, 82
1, 67454, Note_on_c, 1, 73, 0
1, 67456, Note_on_c, 1, 77, 56
1, 67485, Note_on_c, 0, 85, 0
1, 67486, Note_on_c, 1, 77, 0
1, 67488, Note_on_c, 0, 87, 82
1, 67488, Note_on_c, 1, 70, 56
1, 67500, Note_on_c, 0, 87, 0
1, 67500, Note_on_c, 0, 85, 82
1, 67512, Note_on_c, 0, 85, 0
1, 67512, Note_on_c, 0, 84, 82
1, 67518, Note_on_c, 1, 70, 0
1, 67520, Note_on_c, 1, 73, 56
1, 67524, Note_on_c, 0, 84, 0
1, 67524, Note_on_c, 0, 85, 82
1, 67550, Note_on_c, 1, 73, 0
1, 67552, Note_on_c, 1, 77, 56
1, 67555, Note_on_c, 0, 85, 0
1, 67560, Note_on_c, 0, 87, 82
1, 67582, Note_on_c, 1, 77, 0
1, 67583, Note_on_c, 0, 87, 0
1, 67584, Note_on_c, 0, 85, 82
1, 67584, Note_on_c, 1, 68, 56
1, 67614, Note_on_c, 1, 68, 0
1, 67616, Note_on_c, 1, 73, 56
1, 67646, Note_on_c, 1, 73, 0
1, 67648, Note_on_c, 1, 77, 56
1, 67678, Note_on_c, 1, 77, 0
1, 67680, Note_on_c, 1, 68, 56
1, 67710, Note_on_c, 1, 68, 0
1, 67712, Note_on_c, 1, 73, 56
1, 67717, Note_on_c, 0, 85, 0
1, 67728, Note_on_c, 0, 82, 82
1, 67742, Note_on_c, 1, 73, 0
1, 67744, Note_on_c, 1, 77, 56
1, 67751, Note_on_c, 0, 82, 0
1, 67752, Note_on_c, 0, 83, 82
1, 67774, Note_on_c, 1, 77, 0
1, 67775, Note_on_c, 0, 83, 0
1, 67776, Note_on_c, 0, 85, 82
1, 67776, Note_on_c, 1, 68, 56
1, 67791, Note_on_c, 0, 85, 0
1, 67792, Note_on_c, 0, 83, 82
1, 67806, Note_on_c, 1, 68, 0
1, 67807, Note_on_c, 0, 83, 0
1, 67808, Note_on_c, 0, 85, 82
1, 67808, Note_on_c, 1, 73, 56
1, 67823, Note_on_c, 0, 85, 0
1, 67824, Note_on_c, 0, 83, 82
1, 67838, Note_on_c, 1, 73, 0
1, 67839, Note_on_c, 0, 83, 0
1, 67840, Note_on_c, 0, 85, 82
1, 67840, Note_on_c, 1, 77, 56
1, 67855, Note_on_c, 0, 85, 0
1, 67856, Note_on_c, 0, 83, 82
1, 67870, Note_on_c, 1, 77, 0
1, 67871, Note_on_c, 0, 83, 0
1, 67872, Note_on_c, 0, 85, 82
1, 67872, Note_on_c, 1, 68, 56
1, 67887, Note_on_c, 0, 85, 0
1, 67888, Note_on_c, 0, 83, 82
1, 67902, Note_on_c, 1, 68, 0
1, 67903, Note_on_c, 0, 83, 0
1, 67904, Note_on_c, 0, 82, 82
1, 67904, Note_on_c, 1, 73, 56
1, 67934, Note_on_c, 1, 73, 0
1, 67935, Note_on_c, 0, 82, 0
1, 67936, Note_on_c, 0, 83, 82
1, 67936, Note_on_c, 1, 77, 56
1, 67966, Note_on_c, 1, 77, 0
1, 67967, Note_on_c, 0, 83, 0
1, 67968, Note_on_c, 0, 82, 82
1, 67968, Note_on_c, 1, 66, 56
1, 67998, Note_on_c, 1, 66, 0
1, 68000, Note_on_c, 1, 70, 56
1, 68030, Note_on_c, 1, 70, 0
1, 68032, Note_on_c, 1, 73, 56
1, 68057, Note_on_c, 0, 82, 0
1, 68062, Note_on_c, 1, 73, 0
1, 68064, Note_on_c, 0, 82, 82
1, 68064, Note_on_c, 1, 66, 56
1, 68094, Note_on_c, 1, 66, 0
1, 68096, Note_on_c, 1, 70, 56
1, 68126, Note_on_c, 1, 70, 0
1, 68128, Note_on_c, 1, 73, 56
1, 68158, Note_on_c, 1, 73, 0
1, 68160, Note_on_c, 1, 66, 56
1, 68190, Note_on_c, 1, 66, 0
1, 68192, Note_on_c, 1, 70, 56
1, 68197, Note_on_c, 0, 82, 0
1, 68208, Note_on_c, 0, 82, 82
1, 68222, Note_on_c, 1, 70, 0
1, 68224, Note_on_c, 1, 73, 56
1, 68253, Note_on_c, 0, 82, 0
1, 68254, Note_on_c, 1, 73, 0
1, 68256, Note_on_c, 0, 83, 82
1, 68256, Note_on_c, 1, 66, 56
1, 68268, Note_on_c, 0, 83, 0
1, 68268, Note_on_c, 0, 82, 82
1, 68280, Note_on_c, 0, 82, 0
1, 68280, Note_on_c, 0, 80, 82
1, 68286, Note_on_c, 1, 66, 0
1, 68288, Note_on_c, 1, 70, 56
1, 68292, Note_on_c, 0, 80, 0
1, 68292, Note_on_c, 0, 82, 82
1, 68318, Note_on_c, 1, 70, 0
1, 68320, Note_on_c, 1, 73, 56
1, 68323, Note_on_c, 0, 82, 0
1, 68328, Note_on_c, 0, 83, 82
1, 68350, Note_on_c, 1, 73, 0
1, 68351, Note_on_c, 0, 83, 0
1, 68352, Note_on_c, 0, 82, 82
1, 68352, Note_on_c, 1, 65, 56
1, 68382, Note_on_c, 1, 65, 0
1, 68384, Note_on_c, 1, 68, 56
1, 68414, Note_on_c, 1, 68, 0
1, 68416, Note_on_c, 1, 74, 56
1, 68419, Note_on_c, 0, 82, 0
1, 68424, Note_on_c, 0, 80, 82
1, 68446, Note_on_c, 1, 74, 0
1, 68447, Note_on_c, 0, 80, 0
1, 68448, Note_on_c, 0, 83, 115
1, 68448, Note_on_c, 1, 65, 56
1, 68478, Note_on_c, 1, 65, 0
1, 68480, Note_on_c, 1, 68, 56
1, 68510, Note_on_c, 1, 68, 0
1, 68512, Note_on_c, 1, 74, 56
1, 68542, Note_on_c, 1, 74, 0
1, 68544, Note_on_c, 1, 65, 56
1, 68574, Note_on_c, 1, 65, 0
1, 68576, Note_on_c, 1, 68, 56
1, 68581, Note_on_c, 0, 83, 0
1, 68592, Note_on_c, 0, 82, 82
1, 68606, Note_on_c, 1, 68, 0
1, 68608, Note_on_c, 1, 74, 56
1, 68615, Note_on_c, 0, 82, 0
1, 68616, Note_on_c, 0, 80, 82
1, 68638, Note_on_c, 1, 74, 0
1, 68639, Note_on_c, 0, 80, 0
1, 68640, Note_on_c, 0, 78, 82
1, 68640, Note_on_c, 1, 65, 56
1, 68670, Note_on_c, 1, 65, 0
1, 68672, Note_on_c, 1, 68, 56
1, 68685, Note_on_c, 0, 78, 0
1, 68688, Note_on_c, 0, 77, 82
1, 68702, Note_on_c, 1, 68, 0
1, 68704, Note_on_c, 1, 74, 56
1, 68733, Note_on_c, 0, 77, 0
1, 68734, Note_on_c, 1, 74, 0
1, 68736, Note_on_c, 0, 80, 82
1, 68736, Note_on_c, 1, 63, 56
1, 68766, Note_on_c, 1, 63, 0
1, 68768, Note_on_c, 1, 66, 56
1, 68798, Note_on_c, 1, 66, 0
1, 68800, Note_on_c, 1, 70, 56
1, 68830, Note_on_c, 1, 70, 0
1, 68832, Note_on_c, 0, 80, 0
1, 68832, Note_on_c, 0, 78, 82
1, 68832, Note_on_c, 1, 63, 56
1, 68862, Note_on_c, 1, 63, 0
1, 68864, Note_on_c, 1, 66, 56
1, 68894, Note_on_c, 1, 66, 0
1, 68896, Note_on_c, 1, 70, 56
1, 68921, Note_on_c, 0, 78, 0
1, 68926, Note_on_c, 1, 70, 0
1, 68928, Note_on_c, 1, 63, 56
1, 68958, Note_on_c, 1, 63, 0
1, 68960, Note_on_c, 1, 66, 56
1, 68990, Note_on_c, 1, 66, 0
1, 68992, Note_on_c, 1, 70, 56
1, 69000, Note_on_c, 0, 78, 82
1, 69022, Note_on_c, 1, 70, 0
1, 69023, Note_on_c, 0, 78, 0
1, 69024, Note_on_c, 0, 80, 81
1, 69024, Note_on_c, 1, 63, 56
1, 69036, Note_on_c, 0, 80, 0
1, 69036, Note_on_c, 0, 78, 81
1, 69048, Note_on_c, 0, 78, 0
1, 69048, Note_on_c, 0, 77, 81
1, 69054, Note_on_c, 1, 63, 0
1, 69056, Note_on_c, 1, 66, 56
1, 69060, Note_on_c, 0, 77, 0
1, 69060, Note_on_c, 0, 78, 81
1, 69086, Note_on_c, 1, 66, 0
1, 69088, Note_on_c, 1, 70, 56
1, 69091, Note_on_c, 0, 78, 0
1, 69096, Note_on_c, 0, 80, 79
1, 69118, Note_on_c, 1, 70, 0
1, 69119, Note_on_c, 0, 80, 0
1, 69120, Note_on_c, 0, 78, 79
1, 69120, Note_on_c, 1, 61, 56
1, 69150, Note_on_c, 1, 61, 0
1, 69152, Note_on_c, 1, 65, 56
1, 69182, Note_on_c, 1, 65, 0
1, 69184, Note_on_c, 1, 70, 56
1, 69214, Note_on_c, 1, 70, 0
1, 69216, Note_on_c, 0, 78, 0
1, 69216, Note_on_c, 0, 77, 77
1, 69216, Note_on_c, 1, 61, 56
1, 69246, Note_on_c, 1, 61, 0
1, 69248, Note_on_c, 1, 65, 56
1, 69278, Note_on_c, 1, 65, 0
1, 69280, Note_on_c, 1, 70, 56
1, 69305, Note_on_c, 0, 77, 0
1, 69310, Note_on_c, 1, 70, 0
1, 69312, Note_on_c, 1, 61, 56
1, 69342, Note_on_c, 1, 61, 0
1, 69344, Note_on_c, 1, 65, 56
1, 69374, Note_on_c, 1, 65, 0
1, 69376, Note_on_c, 1, 70, 56
1, 69384, Note_on_c, 0, 77, 75
1, 69406, Note_on_c, 1, 70, 0
1, 69407, Note_on_c, 0, 77, 0
1, 69408, Note_on_c, 0, 79, 75
1, 69408, Note_on_c, 1, 61, 56
1, 69420, Note_on_c, 0, 79, 0
1, 69420, Note_on_c, 0, 77, 75
1, 69432, Note_on_c, 0, 77, 0
1, 69432, Note_on_c, 0, 76, 75
1, 69438, Note_on_c, 1, 61, 0
1, 69440, Note_on_c, 1, 65, 56
1, 69444, Note_on_c, 0, 76, 0
1, 69444, Note_on_c, 0, 77, 75
1, 69470, Note_on_c, 1, 65, 0
1, 69472, Note_on_c, 1, 70, 56
1, 69497, Note_on_c, 0, 77, 0
1, 69502, Note_on_c, 1, 70, 0
1, 69504, Note_on_c, 0, 76, 75
1, 69504, Note_on_c, 1, 60, 56
1, 69534, Note_on_c, 0, 76, 0
1, 69536, Note_on_c, 0, 79, 75
1, 69566, Note_on_c, 0, 79, 0
1, 69568, Note_on_c, 0, 77, 76
1, 69598, Note_on_c, 0, 77, 0
1, 69600, Note_on_c, 0, 81, 76
1, 69630, Note_on_c, 0, 81, 0
1, 69632, Note_on_c, 0, 79, 77
1, 69662, Note_on_c, 0, 79, 0
1, 69664, Note_on_c, 0, 82, 78
1, 69681, Note_on_c, 1, 60, 0
1, 69694, Note_on_c, 0, 82, 0
1, 69696, Note_on_c, 0, 81, 78
1, 69726, Note_on_c, 0, 81, 0
1, 69728, Note_on_c, 0, 84, 79
1, 69758, Note_on_c, 0, 84, 0
1, 69760, Note_on_c, 0, 82, 79
1, 69790, Note_on_c, 0, 82, 0
1, 69792, Note_on_c, 0, 86, 80
1, 69822, Note_on_c, 0, 86, 0
1, 69824, Note_on_c, 0, 84, 81
1, 69854, Note_on_c, 0, 84, 0
1, 69856, Note_on_c, 0, 88, 82
1, 69886, Note_on_c, 0, 88, 0
1, 69888, Note_on_c, 0, 86, 82
1, 69888, Note_on_c, 1, 64, 56
1, 69918, Note_on_c, 1, 64, 0
1, 69920, Note_on_c, 1, 67, 56
1, 69950, Note_on_c, 1, 67, 0
1, 69952, Note_on_c, 1, 72, 56
1, 69977, Note_on_c, 0, 86, 0
1, 69982, Note_on_c, 1, 72, 0
1, 69984, Note_on_c, 0, 84, 115
1, 69984, Note_on_c, 1, 64, 56
1, 70014, Note_on_c, 1, 64, 0
1, 70016, Note_on_c, 1, 67, 56
1, 70046, Note_on_c, 1, 67, 0
1, 70048, Note_on_c, 1, 72, 56
1, 70078, Note_on_c, 1, 72, 0
1, 70080, Note_on_c, 1, 64, 56
1, 70110, Note_on_c, 1, 64, 0
1, 70112, Note_on_c, 1, 67, 56
1, 70142, Note_on_c, 1, 67, 0
1, 70144, Note_on_c, 1, 72, 56
1, 70161, Note_on_c, 0, 84, 0
1, 70174, Note_on_c, 1, 72, 0
1, 70176, Note_on_c, 0, 82, 82
1, 70176, Note_on_c, 1, 64, 56
1, 70189, Note_on_c, 0, 82, 0
1, 70190, Note_on_c, 0, 84, 81
1, 70203, Note_on_c, 0, 84, 0
1, 70204, Note_on_c, 0, 82, 80
1, 70206, Note_on_c, 1, 64, 0
1, 70208, Note_on_c, 1, 67, 56
1, 70217, Note_on_c, 0, 82, 0
1, 70218, Note_on_c, 0, 84, 79
1, 70231, Note_on_c, 0, 84, 0
1, 70232, Note_on_c, 0, 82, 78
1, 70238, Note_on_c, 1, 67, 0
1, 70240, Note_on_c, 1, 72, 56
1, 70245, Note_on_c, 0, 82, 0
1, 70246, Note_on_c, 0, 81, 77
1, 70258, Note_on_c, 0, 81, 0
1, 70259, Note_on_c, 0, 82, 76
1, 70270, Note_on_c, 1, 72, 0
1, 70271, Note_on_c, 0, 82, 0
1, 70272, Note_on_c, 0, 81, 75
1, 70272, Note_on_c, 1, 65, 56
1, 70302, Note_on_c, 0, 81, 0
1, 70304, Note_on_c, 0, 84, 75
1, 70334, Note_on_c, 0, 84, 0
1, 70336, Note_on_c, 0, 82, 76
1, 70361, Note_on_c, 1, 65, 0
1, 70366, Note_on_c, 0, 82, 0
1, 70368, Note_on_c, 0, 86, 77
1, 70398, Note_on_c, 0, 86, 0
1, 70400, Note_on_c, 0, 84, 78
1, 70430, Note_on_c, 0, 84, 0
1, 70432, Note_on_c, 0, 87, 79
1, 70462, Note_on_c, 0, 87, 0
1, 70464, Note_on_c, 0, 86, 80
1, 70494, Note_on_c, 0, 86, 0
1, 70496, Note_on_c, 0, 89, 80
1, 70526, Note_on_c, 0, 89, 0
1, 70528, Note_on_c, 0, 87, 82
1, 70558, Note_on_c, 0, 87, 0
1, 70560, Note_on_c, 0, 86, 82
1, 70590, Note_on_c, 0, 86, 0
1, 70592, Note_on_c, 0, 84, 81
1, 70622, Note_on_c, 0, 84, 0
1, 70624, Note_on_c, 0, 82, 80
1, 70654, Note_on_c, 0, 82, 0
1, 70656, Note_on_c, 0, 81, 80
1, 70656, Note_on_c, 1, 57, 66
1, 70686, Note_on_c, 0, 81, 0
1, 70686, Note_on_c, 1, 57, 0
1, 70688, Note_on_c, 0, 86, 79
1, 70688, Note_on_c, 1, 60, 66
1, 70718, Note_on_c, 0, 86, 0
1, 70718, Note_on_c, 1, 60, 0
1, 70720, Note_on_c, 0, 84, 79
1, 70720, Note_on_c, 1, 65, 66
1, 70750, Note_on_c, 0, 84, 0
1, 70750, Note_on_c, 1, 65, 0
1, 70752, Note_on_c, 0, 82, 78
1, 70752, Note_on_c, 1, 57, 66
1, 70782, Note_on_c, 0, 82, 0
1, 70782, Note_on_c, 1, 57, 0
1, 70784, Note_on_c, 0, 81, 78
1, 70784, Note_on_c, 1, 60, 66
1, 70814, Note_on_c, 0, 81, 0
1, 70814, Note_on_c, 1, 60, 0
1, 70816, Note_on_c, 0, 79, 77
1, 70816, Note_on_c, 1, 65, 66
1, 70846, Note_on_c, 0, 79, 0
1, 70846, Note_on_c, 1, 65, 0
1, 70848, Note_on_c, 0, 77, 77
1, 70848, Note_on_c, 1, 57, 66
1, 70878, Note_on_c, 1, 57, 0
1, 70880, Note_on_c, 1, 60, 66
1, 70910, Note_on_c, 1, 60, 0
1, 70912, Note_on_c, 1, 65, 66
1, 70937, Note_on_c, 0, 77, 0
1, 70942, Note_on_c, 1, 65, 0
1, 70944, Note_on_c, 0, 75, 75
1, 70944, Note_on_c, 1, 57, 66
1, 70957, Note_on_c, 0, 75, 0
1, 70958, Note_on_c, 0, 77, 75
1, 70971, Note_on_c, 0, 77, 0
1, 70972, Note_on_c, 0, 75, 75
1, 70974, Note_on_c, 1, 57, 0
1, 70976, Note_on_c, 1, 60, 66
1, 70985, Note_on_c, 0, 75, 0
1, 70986, Note_on_c, 0, 77, 75
1, 70999, Note_on_c, 0, 77, 0
1, 71000, Note_on_c, 0, 75, 75
1, 71006, Note_on_c, 1, 60, 0
1, 71008, Note_on_c, 1, 65, 66
1, 71013, Note_on_c, 0, 75, 0
1, 71014, Note_on_c, 0, 74, 75
1, 71026, Note_on_c, 0, 74, 0
1, 71027, Note_on_c, 0, 75, 75
1, 71038, Note_on_c, 1, 65, 0
1, 71039, Note_on_c, 0, 75, 0
1, 71040, Note_on_c, 0, 74, 75
1, 71040, Note_on_c, 1, 58, 66
1, 71070, Note_on_c, 1, 58, 0
1, 71072, Note_on_c, 1, 62, 66
1, 71102, Note_on_c, 1, 62, 0
1, 71104, Note_on_c, 1, 65, 66
1, 71129, Note_on_c, 0, 74, 0
1, 71134, Note_on_c, 1, 65, 0
1, 71136, Note_on_c, 0, 77, 75
1, 71136, Note_on_c, 1, 58, 66
1, 71166, Note_on_c, 1, 58, 0
1, 71168, Note_on_c, 1, 62, 66
1, 71198, Note_on_c, 1, 62, 0
1, 71200, Note_on_c, 1, 65, 66
1, 71225, Note_on_c, 0, 77, 0
1, 71230, Note_on_c, 1, 65, 0
1, 71232, Note_on_c, 1, 60, 66
1, 71262, Note_on_c, 1, 60, 0
1, 71264, Note_on_c, 1, 63, 66
1, 71294, Note_on_c, 1, 63, 0
1, 71296, Note_on_c, 1, 65, 66
1, 71304, Note_on_c, 0, 81, 75
1, 71326, Note_on_c, 1, 65, 0
1, 71327, Note_on_c, 0, 81, 0
1, 71328, Note_on_c, 0, 81, 75
1, 71328, Note_on_c, 1, 60, 66
1, 71341, Note_on_c, 0, 81, 0
1, 71342, Note_on_c, 0, 82, 75
1, 71355, Note_on_c, 0, 82, 0
1, 71356, Note_on_c, 0, 81, 75
1, 71358, Note_on_c, 1, 60, 0
1, 71360, Note_on_c, 1, 63, 66
1, 71369, Note_on_c, 0, 81, 0
1, 71370, Note_on_c, 0, 82, 75
1, 71383, Note_on_c, 0, 82, 0
1, 71384, Note_on_c, 0, 81, 75
1, 71390, Note_on_c, 1, 63, 0
1, 71392, Note_on_c, 1, 65, 66
1, 71397, Note_on_c, 0, 81, 0
1, 71398, Note_on_c, 0, 79, 75
1, 71410, Note_on_c, 0, 79, 0
1, 71411, Note_on_c, 0, 81, 75
1, 71422, Note_on_c, 1, 65, 0
1, 71423, Note_on_c, 0, 81, 0
1, 71424, Note_on_c, 0, 82, 75
1, 71424, Note_on_c, 1, 58, 66
1, 71454, Note_on_c, 1, 58, 0
1, 71456, Note_on_c, 1, 62, 66
1, 71486, Note_on_c, 1, 62, 0
1, 71488, Note_on_c, 1, 65, 66
1, 71491, Note_on_c, 0, 82, 0
1, 71496, Note_on_c, 0, 86, 75
1, 71518, Note_on_c, 1, 65, 0
1, 71519, Note_on_c, 0, 86, 0
1, 71520, Note_on_c, 0, 77, 75
1, 71520, Note_on_c, 1, 58, 66
1, 71550, Note_on_c, 1, 58, 0
1, 71552, Note_on_c, 1, 62, 66
1, 71582, Note_on_c, 1, 62, 0
1, 71584, Note_on_c, 1, 65, 66
1, 71614, Note_on_c, 1, 65, 0
1, 71616, Note_on_c, 1, 57, 66
1, 71646, Note_on_c, 1, 57, 0
1, 71648, Note_on_c, 1, 60, 66
1, 71678, Note_on_c, 1, 60, 0
1, 71680, Note_on_c, 1, 65, 66
1, 71683, Note_on_c, 0, 77, 0
1, 71688, Note_on_c, 0, 75, 75
1, 71710, Note_on_c, 1, 65, 0
1, 71711, Note_on_c, 0, 75, 0
1, 71712, Note_on_c, 0, 75, 75
1, 71712, Note_on_c, 1, 57, 66
1, 71725, Note_on_c, 0, 75, 0
1, 71726, Note_on_c, 0, 77, 75
1, 71739, Note_on_c, 0, 77, 0
1, 71740, Note_on_c, 0, 75, 75
1, 71742, Note_on_c, 1, 57, 0
1, 71744, Note_on_c, 1, 60, 66
1, 71753, Note_on_c, 0, 75, 0
1, 71754, Note_on_c, 0, 77, 75
1, 71767, Note_on_c, 0, 77, 0
1, 71768, Note_on_c, 0, 75, 75
1, 71774, Note_on_c, 1, 60, 0
1, 71776, Note_on_c, 1, 65, 66
1, 71781, Note_on_c, 0, 75, 0
1, 71782, Note_on_c, 0, 74, 75
1, 71794, Note_on_c, 0, 74, 0
1, 71795, Note_on_c, 0, 75, 75
1, 71806, Note_on_c, 1, 65, 0
1, 71807, Note_on_c, 0, 75, 0
1, 71808, Note_on_c, 0, 74, 75
1, 71808, Note_on_c, 1, 58, 66
1, 71838, Note_on_c, 1, 58, 0
1, 71840, Note_on_c, 1, 62, 66
1, 71870, Note_on_c, 1, 62, 0
1, 71872, Note_on_c, 1, 65, 66
1, 71897, Note_on_c, 0, 74, 0
1, 71902, Note_on_c, 1, 65, 0
1, 71904, Note_on_c, 0, 77, 75
1, 71904, Note_on_c, 1, 58, 66
1, 71934, Note_on_c, 1, 58, 0
1, 71936, Note_on_c, 1, 62, 66
1, 71966, Note_on_c, 1, 62, 0
1, 71968, Note_on_c, 1, 65, 66
1, 71993, Note_on_c, 0, 77, 0
1, 71998, Note_on_c, 1, 65, 0
1, 72000, Note_on_c, 1, 60, 66
1, 72030, Note_on_c, 1, 60, 0
1, 72032, Note_on_c, 1, 63, 66
1, 72062, Note_on_c, 1, 63, 0
1, 72064, Note_on_c, 1, 65, 66
1, 72072, Note_on_c, 0, 81, 75
1, 72094, Note_on_c, 1, 65, 0
1, 72095, Note_on_c, 0, 81, 0
1, 72096, Note_on_c, 0, 81, 75
1, 72096, Note_on_c, 1, 60, 66
1, 72109, Note_on_c, 0, 81, 0
1, 72110, Note_on_c, 0, 82, 75
1, 72123, Note_on_c, 0, 82, 0
1, 72124, Note_on_c, 0, 81, 75
1, 72126, Note_on_c, 1, 60, 0
1, 72128, Note_on_c, 1, 63, 66
1, 72137, Note_on_c, 0, 81, 0
1, 72138, Note_on_c, 0, 82, 75
1, 72151, Note_on_c, 0, 82, 0
1, 72152, Note_on_c, 0, 81, 75
1, 72158, Note_on_c, 1, 63, 0
1, 72160, Note_on_c, 1, 65, 66
1, 72165, Note_on_c, 0, 81, 0
1, 72166, Note_on_c, 0, 79, 75
1, 72178, Note_on_c, 0, 79, 0
1, 72179, Note_on_c, 0, 81, 75
1, 72190, Note_on_c, 1, 65, 0
1, 72191, Note_on_c, 0, 81, 0
1, 72192, Note_on_c, 0, 82, 75
1, 72192, Note_on_c, 1, 58, 66
1, 72222, Note_on_c, 1, 58, 0
1, 72224, Note_on_c, 1, 62, 66
1, 72254, Note_on_c, 1, 62, 0
1, 72256, Note_on_c, 1, 65, 66
1, 72259, Note_on_c, 0, 82, 0
1, 72264, Note_on_c, 0, 86, 75
1, 72286, Note_on_c, 1, 65, 0
1, 72287, Note_on_c, 0, 86, 0
1, 72288, Note_on_c, 0, 77, 75
1, 72288, Note_on_c, 1, 58, 66
1, 72318, Note_on_c, 1, 58, 0
1, 72320, Note_on_c, 1, 62, 66
1, 72350, Note_on_c, 1, 62, 0
1, 72352, Note_on_c, 1, 65, 66
1, 72382, Note_on_c, 1, 65, 0
1, 72384, Note_on_c, 1, 57, 66
1, 72414, Note_on_c, 1, 57, 0
1, 72416, Note_on_c, 1, 60, 66
1, 72446, Note_on_c, 1, 60, 0
1, 72448, Note_on_c, 1, 65, 66
1, 72451, Note_on_c, 0, 77, 0
1, 72456, Note_on_c, 0, 75, 75
1, 72478, Note_on_c, 1, 65, 0
1, 72479, Note_on_c, 0, 75, 0
1, 72480, Note_on_c, 0, 75, 75
1, 72480, Note_on_c, 1, 57, 66
1, 72493, Note_on_c, 0, 75, 0
1, 72494, Note_on_c, 0, 77, 75
1, 72507, Note_on_c, 0, 77, 0
1, 72508, Note_on_c, 0, 75, 75
1, 72510, Note_on_c, 1, 57, 0
1, 72512, Note_on_c, 1, 60, 66
1, 72521, Note_on_c, 0, 75, 0
1, 72522, Note_on_c, 0, 77, 75
1, 72535, Note_on_c, 0, 77, 0
1, 72536, Note_on_c, 0, 75, 75
1, 72542, Note_on_c, 1, 60, 0
1, 72544, Note_on_c, 1, 65, 66
1, 72549, Note_on_c, 0, 75, 0
1, 72550, Note_on_c, 0, 74, 75
1, 72562, Note_on_c, 0, 74, 0
1, 72563, Note_on_c, 0, 75, 75
1, 72574, Note_on_c, 1, 65, 0
1, 72575, Note_on_c, 0, 75, 0
1, 72576, Note_on_c, 0, 74, 75
1, 72576, Note_on_c, 1, 58, 66
1, 72606, Note_on_c, 0, 74, 0
1, 72608, Note_on_c, 0, 77, 75
1, 72638, Note_on_c, 0, 77, 0
1, 72640, Note_on_c, 0, 75, 75
1, 72670, Note_on_c, 0, 75, 0
1, 72672, Note_on_c, 0, 79, 76
1, 72702, Note_on_c, 0, 79, 0
1, 72704, Note_on_c, 0, 77, 76
1, 72709, Note_on_c, 1, 58, 0
1, 72734, Note_on_c, 0, 77, 0
1, 72736, Note_on_c, 0, 80, 77
1, 72766, Note_on_c, 0, 80, 0
1, 72768, Note_on_c, 0, 79, 77
1, 72798, Note_on_c, 0, 79, 0
1, 72800, Note_on_c, 0, 82, 78
1, 72830, Note_on_c, 0, 82, 0
1, 72832, Note_on_c, 0, 80, 79
1, 72862, Note_on_c, 0, 80, 0
1, 72864, Note_on_c, 0, 84, 79
1, 72894, Note_on_c, 0, 84, 0
1, 72896, Note_on_c, 0, 82, 80
1, 72926, Note_on_c, 0, 82, 0
1, 72928, Note_on_c, 0, 80, 80
1, 72958, Note_on_c, 0, 80, 0
1, 72960, Note_on_c, 0, 79, 82
1, 72960, Note_on_c, 1, 58, 75
1, 72960, Note_on_c, 1, 53, 75
1, 72960, Note_on_c, 1, 50, 75
1, 72990, Note_on_c, 0, 79, 0
1, 72992, Note_on_c, 0, 77, 81
1, 73022, Note_on_c, 0, 77, 0
1, 73024, Note_on_c, 0, 82, 80
1, 73054, Note_on_c, 0, 82, 0
1, 73056, Note_on_c, 0, 80, 80
1, 73086, Note_on_c, 0, 80, 0
1, 73088, Note_on_c, 0, 79, 79
1, 73093, Note_on_c, 1, 58, 0
1, 73093, Note_on_c, 1, 53, 0
1, 73093, Note_on_c, 1, 50, 0
1, 73118, Note_on_c, 0, 79, 0
1, 73120, Note_on_c, 0, 77, 79
1, 73150, Note_on_c, 0, 77, 0
1, 73152, Note_on_c, 0, 75, 78
1, 73182, Note_on_c, 0, 75, 0
1, 73184, Note_on_c, 0, 74, 78
1, 73214, Note_on_c, 0, 74, 0
1, 73216, Note_on_c, 0, 72, 77
1, 73246, Note_on_c, 0, 72, 0
1, 73248, Note_on_c, 0, 70, 77
1, 73278, Note_on_c, 0, 70, 0
1, 73280, Note_on_c, 0, 72, 76
1, 73310, Note_on_c, 0, 72, 0
1, 73312, Note_on_c, 0, 68, 75
1, 73342, Note_on_c, 0, 68, 0
1, 73344, Note_on_c, 0, 67, 75
1, 73344, Note_on_c, 1, 58, 75
1, 73344, Note_on_c, 1, 55, 75
1, 73344, Note_on_c, 1, 51, 75
1, 73374, Note_on_c, 0, 67, 0
1, 73376, Note_on_c, 0, 75, 75
1, 73406, Note_on_c, 0, 75, 0
1, 73408, Note_on_c, 0, 74, 75
1, 73438, Note_on_c, 0, 74, 0
1, 73440, Note_on_c, 0, 72, 75
1, 73470, Note_on_c, 0, 72, 0
1, 73472, Note_on_c, 0, 79, 75
1, 73477, Note_on_c, 1, 58, 0
1, 73477, Note_on_c, 1, 55, 0
1, 73477, Note_on_c, 1, 51, 0
1, 73502, Note_on_c, 0, 79, 0
1, 73504, Note_on_c, 0, 77, 75
1, 73534, Note_on_c, 0, 77, 0
1, 73536, Note_on_c, 0, 75, 75
1, 73566, Note_on_c, 0, 75, 0
1, 73568, Note_on_c, 0, 74, 75
1, 73598, Note_on_c, 0, 74, 0
1, 73600, Note_on_c, 0, 72, 75
1, 73630, Note_on_c, 0, 72, 0
1, 73632, Note_on_c, 0, 70, 75
1, 73662, Note_on_c, 0, 70, 0
1, 73664, Note_on_c, 0, 69, 75
1, 73694, Note_on_c, 0, 69, 0
1, 73696, Note_on_c, 0, 67, 75
1, 73726, Note_on_c, 0, 67, 0
1, 73728, Note_on_c, 0, 65, 75
1, 73824, Note_on_c, 1, 62, 75
1, 73824, Note_on_c, 1, 58, 75
1, 73824, Note_on_c, 1, 53, 75
1, 73863, Note_on_c, 1, 62, 0
1, 73863, Note_on_c, 1, 58, 0
1, 73863, Note_on_c, 1, 53, 0
1, 73920, Note_on_c, 1, 62, 75
1, 73920, Note_on_c, 1, 58, 75
1, 73920, Note_on_c, 1, 53, 75
1, 73950, Note_on_c, 0, 65, 0
1, 73952, Note_on_c, 0, 65, 79
1, 73982, Note_on_c, 0, 65, 0
1, 73984, Note_on_c, 0, 66, 79
1, 74009, Note_on_c, 1, 62, 0
1, 74009, Note_on_c, 1, 58, 0
1, 74009, Note_on_c, 1, 53, 0
1, 74014, Note_on_c, 0, 66, 0
1, 74016, Note_on_c, 0, 67, 80
1, 74046, Note_on_c, 0, 67, 0
1, 74048, Note_on_c, 0, 68, 80
1, 74078, Note_on_c, 0, 68, 0
1, 74080, Note_on_c, 0, 69, 81
1, 74110, Note_on_c, 0, 69, 0
1, 74112, Note_on_c, 0, 70, 82
1, 74112, Note_on_c, 1, 62, 75
1, 74112, Note_on_c, 1, 58, 75
1, 74112, Note_on_c, 1, 53, 75
1, 74142, Note_on_c, 0, 70, 0
1, 74144, Note_on_c, 0, 65, 75
1, 74151, Note_on_c, 1, 62, 0
1, 74151, Note_on_c, 1, 58, 0
1, 74151, Note_on_c, 1, 53, 0
1, 74174, Note_on_c, 0, 65, 0
1, 74176, Note_on_c, 0, 66, 76
1, 74206, Note_on_c, 0, 66, 0
1, 74208, Note_on_c, 0, 67, 77
1, 74238, Note_on_c, 0, 67, 0
1, 74240, Note_on_c, 0, 68, 78
1, 74270, Note_on_c, 0, 68, 0
1, 74272, Note_on_c, 0, 69, 79
1, 74302, Note_on_c, 0, 69, 0
1, 74304, Note_on_c, 0, 70, 80
1, 74304, Note_on_c, 1, 62, 75
1, 74304, Note_on_c, 1, 58, 75
1, 74304, Note_on_c, 1, 53, 75
1, 74334, Note_on_c, 0, 70, 0
1, 74336, Note_on_c, 0, 77, 82
1, 74343, Note_on_c, 1, 62, 0
1, 74343, Note_on_c, 1, 58, 0
1, 74343, Note_on_c, 1, 53, 0
1, 74366, Note_on_c, 0, 77, 0
1, 74368, Note_on_c, 0, 78, 83
1, 74398, Note_on_c, 0, 78, 0
1, 74400, Note_on_c, 0, 79, 84
1, 74430, Note_on_c, 0, 79, 0
1, 74432, Note_on_c, 0, 80, 86
1, 74462, Note_on_c, 0, 80, 0
1, 74464, Note_on_c, 0, 81, 87
1, 74494, Note_on_c, 0, 81, 0
1, 74496, Note_on_c, 0, 82, 90
1, 74496, Note_on_c, 1, 62, 75
1, 74496, Note_on_c, 1, 58, 75
1, 74496, Note_on_c, 1, 53, 75
1, 74526, Note_on_c, 0, 82, 0
1, 74528, Note_on_c, 0, 81, 89
1, 74535, Note_on_c, 1, 62, 0
1, 74535, Note_on_c, 1, 58, 0
1, 74535, Note_on_c, 1, 53, 0
1, 74558, Note_on_c, 0, 81, 0
1, 74560, Note_on_c, 0, 80, 89
1, 74590, Note_on_c, 0, 80, 0
1, 74592, Note_on_c, 0, 79, 88
1, 74622, Note_on_c, 0, 79, 0
1, 74624, Note_on_c, 0, 78, 88
1, 74654, Note_on_c, 0, 78, 0
1, 74656, Note_on_c, 0, 77, 87
1, 74686, Note_on_c, 0, 77, 0
1, 74688, Note_on_c, 0, 76, 87
1, 74718, Note_on_c, 0, 76, 0
1, 74720, Note_on_c, 0, 75, 87
1, 74750, Note_on_c, 0, 75, 0
1, 74752, Note_on_c, 0, 74, 86
1, 74782, Note_on_c, 0, 74, 0
1, 74784, Note_on_c, 0, 73, 86
1, 74814, Note_on_c, 0, 73, 0
1, 74816, Note_on_c, 0, 72, 85
1, 74846, Note_on_c, 0, 72, 0
1, 74848, Note_on_c, 0, 71, 85
1, 74878, Note_on_c, 0, 71, 0
1, 74880, Note_on_c, 0, 70, 85
1, 74910, Note_on_c, 0, 70, 0
1, 74912, Note_on_c, 0, 69, 84
1, 74942, Note_on_c, 0, 69, 0
1, 74944, Note_on_c, 0, 68, 84
1, 74974, Note_on_c, 0, 68, 0
1, 74976, Note_on_c, 0, 67, 83
1, 75006, Note_on_c, 0, 67, 0
1, 75008, Note_on_c, 0, 66, 83
1, 75038, Note_on_c, 0, 66, 0
1, 75040, Note_on_c, 0, 65, 82
1, 75070, Note_on_c, 0, 65, 0
1, 75072, Note_on_c, 0, 64, 82
1, 75072, Note_on_c, 1, 52, 82
1, 75072, Note_on_c, 1, 40, 82
1, 75161, Note_on_c, 0, 64, 0
1, 75168, Note_on_c, 0, 76, 82
1, 75180, Note_on_c, 0, 79, 82
1, 75192, Note_on_c, 0, 82, 82
1, 75204, Note_on_c, 0, 85, 82
1, 75249, Note_on_c, 1, 52, 0
1, 75249, Note_on_c, 1, 40, 0
1, 75257, Note_on_c, 0, 85, 0
1, 75257, Note_on_c, 0, 82, 0
1, 75257, Note_on_c, 0, 79, 0
1, 75257, Note_on_c, 0, 76, 0
1, 75264, Note_on_c, 1, 53, 82
1, 75264, Note_on_c, 1, 48, 82
1, 75264, Note_on_c, 1, 45, 82
1, 75264, Note_on_c, 1, 41, 82
1, 75288, Note_on_c, 0, 65, 82
1, 75311, Note_on_c, 0, 65, 0
1, 75312, Note_on_c, 0, 67, 82
1, 75335, Note_on_c, 0, 67, 0
1, 75336, Note_on_c, 0, 69, 82
1, 75359, Note_on_c, 0, 69, 0
1, 75360, Note_on_c, 0, 70, 82
1, 75383, Note_on_c, 0, 70, 0
1, 75384, Note_on_c, 0, 72, 82
1, 75407, Note_on_c, 0, 72, 0
1, 75408, Note_on_c, 0, 74, 82
1, 75431, Note_on_c, 0, 74, 0
1, 75432, Note_on_c, 0, 75, 82
1, 75441, Note_on_c, 1, 53, 0
1, 75441, Note_on_c, 1, 48, 0
1, 75441, Note_on_c, 1, 45, 0
1, 75441, Note_on_c, 1, 41, 0
1, 75455, Note_on_c, 0, 75, 0
1, 75456, Note_on_c, 0, 77, 82
1, 75479, Note_on_c, 0, 77, 0
1, 75480, Note_on_c, 0, 79, 82
1, 75503, Note_on_c, 0, 79, 0
1, 75504, Note_on_c, 0, 81, 82
1, 75527, Note_on_c, 0, 81, 0
1, 75528, Note_on_c, 0, 82, 82
1, 75551, Note_on_c, 0, 82, 0
1, 75552, Note_on_c, 0, 84, 82
1, 75575, Note_on_c, 0, 84, 0
1, 75576, Note_on_c, 0, 86, 82
1, 75599, Note_on_c, 0, 86, 0
1, 75600, Note_on_c, 0, 87, 82
1, 75623, Note_on_c, 0, 87, 0
1, 75624, Note_on_c, 0, 89, 82
1, 75647, Note_on_c, 0, 89, 0
1, 75648, Note_on_c, 0, 74, 82
1, 75695, Note_on_c, 0, 74, 0
1, 75696, Note_on_c, 0, 72, 82
1, 75711, Note_on_c, 0, 72, 0
1, 75712, Note_on_c, 0, 74, 82
1, 75727, Note_on_c, 0, 74, 0
1, 75728, Note_on_c, 0, 72, 82
1, 75743, Note_on_c, 0, 72, 0
1, 75744, Note_on_c, 0, 74, 82
1, 75759, Note_on_c, 0, 74, 0
1, 75760, Note_on_c, 0, 72, 82
1, 75775, Note_on_c, 0, 72, 0
1, 75776, Note_on_c, 0, 74, 82
1, 75791, Note_on_c, 0, 74, 0
1, 75792, Note_on_c, 0, 72, 82
1, 75807, Note_on_c, 0, 72, 0
1, 75808, Note_on_c, 0, 74, 82
1, 75823, Note_on_c, 0, 74, 0
1, 75824, Note_on_c, 0, 72, 82
1, 75839, Note_on_c, 0, 72, 0
1, 75840, Note_on_c, 0, 74, 82
1, 75840, Note_on_c, 1, 63, 82
1, 75840, Note_on_c, 1, 60, 82
1, 75840, Note_on_c, 1, 57, 82
1, 75840, Note_on_c, 1, 53, 82
1, 75855, Note_on_c, 0, 74, 0
1, 75856, Note_on_c, 0, 72, 82
1, 75871, Note_on_c, 0, 72, 0
1, 75872, Note_on_c, 0, 74, 82
1, 75887, Note_on_c, 0, 74, 0
1, 75888, Note_on_c, 0, 72, 82
1, 75903, Note_on_c, 0, 72, 0
1, 75904, Note_on_c, 0, 74, 82
1, 75919, Note_on_c, 0, 74, 0
1, 75920, Note_on_c, 0, 72, 82
1, 75935, Note_on_c, 0, 72, 0
1, 75936, Note_on_c, 0, 74, 82
1, 75951, Note_on_c, 0, 74, 0
1, 75952, Note_on_c, 0, 72, 82
1, 75967, Note_on_c, 0, 72, 0
1, 75968, Note_on_c, 0, 70, 82
1, 75999, Note_on_c, 0, 70, 0
1, 76000, Note_on_c, 0, 72, 82
1, 76017, Note_on_c, 1, 63, 0
1, 76017, Note_on_c, 1, 60, 0
1, 76017, Note_on_c, 1, 57, 0
1, 76017, Note_on_c, 1, 53, 0
1, 76031, Note_on_c, 0, 72, 0
1, 76032, Note_on_c, 0, 70, 82
1, 76032, Note_on_c, 1, 58, 82
1, 76099, Note_on_c, 1, 58, 0
1, 76104, Note_on_c, 1, 62, 80
1, 76121, Note_on_c, 0, 70, 0
1, 76127, Note_on_c, 1, 62, 0
1, 76128, Note_on_c, 1, 57, 80
1, 76195, Note_on_c, 1, 57, 0
1, 76200, Note_on_c, 1, 60, 78
1, 76223, Note_on_c, 1, 60, 0
1, 76224, Note_on_c, 0, 75, 82
1, 76224, Note_on_c, 0, 63, 82
1, 76224, Note_on_c, 1, 55, 78
1, 76244, Note_on_c, 0, 75, 0
1, 76244, Note_on_c, 0, 63, 0
1, 76291, Note_on_c, 1, 55, 0
1, 76296, Note_on_c, 1, 58, 77
1, 76319, Note_on_c, 1, 58, 0
1, 76320, Note_on_c, 0, 74, 82
1, 76320, Note_on_c, 0, 62, 82
1, 76320, Note_on_c, 1, 53, 76
1, 76340, Note_on_c, 0, 74, 0
1, 76340, Note_on_c, 0, 62, 0
1, 76387, Note_on_c, 1, 53, 0
1, 76392, Note_on_c, 1, 57, 75
1, 76415, Note_on_c, 1, 57, 0
1, 76416, Note_on_c, 0, 79, 115
1, 76416, Note_on_c, 0, 67, 115
1, 76416, Note_on_c, 1, 51, 75
1, 76681, Note_on_c, 0, 79, 0
1, 76681, Note_on_c, 0, 67, 0
1, 76681, Note_on_c, 1, 51, 0
1, 76704, Note_on_c, 0, 69, 56
1, 76704, Note_on_c, 1, 63, 56
1, 76771, Note_on_c, 0, 69, 0
1, 76776, Note_on_c, 0, 79, 56
1, 76793, Note_on_c, 1, 63, 0
1, 76799, Note_on_c, 0, 79, 0
1, 76800, Note_on_c, 0, 70, 56
1, 76800, Note_on_c, 1, 62, 56
1, 76867, Note_on_c, 0, 70, 0
1, 76872, Note_on_c, 0, 77, 56
1, 76889, Note_on_c, 1, 62, 0
1, 76895, Note_on_c, 0, 77, 0
1, 76896, Note_on_c, 0, 72, 56
1, 76896, Note_on_c, 1, 63, 56
1, 76963, Note_on_c, 0, 72, 0
1, 76968, Note_on_c, 0, 75, 56
1, 76985, Note_on_c, 1, 63, 0
1, 76991, Note_on_c, 0, 75, 0
1, 76992, Note_on_c, 0, 70, 56
1, 76992, Note_on_c, 1, 65, 56
1, 77059, Note_on_c, 0, 70, 0
1, 77064, Note_on_c, 0, 74, 56
1, 77081, Note_on_c, 1, 65, 0
1, 77087, Note_on_c, 0, 74, 0
1, 77088, Note_on_c, 0, 69, 56
1, 77088, Note_on_c, 1, 53, 56
1, 77155, Note_on_c, 0, 69, 0
1, 77160, Note_on_c, 0, 72, 56
1, 77177, Note_on_c, 1, 53, 0
1, 77183, Note_on_c, 0, 72, 0
1, 77184, Note_on_c, 0, 70, 56
1, 77184, Note_on_c, 1, 58, 82
1, 77214, Note_on_c, 1, 58, 0
1, 77216, Note_on_c, 1, 60, 82
1, 77246, Note_on_c, 1, 60, 0
1, 77248, Note_on_c, 1, 62, 82
1, 77273, Note_on_c, 0, 70, 0
1, 77278, Note_on_c, 1, 62, 0
1, 77280, Note_on_c, 1, 57, 81
1, 77310, Note_on_c, 1, 57, 0
1, 77312, Note_on_c, 1, 58, 80
1, 77342, Note_on_c, 1, 58, 0
1, 77344, Note_on_c, 1, 60, 80
1, 77374, Note_on_c, 1, 60, 0
1, 77376, Note_on_c, 0, 75, 82
1, 77376, Note_on_c, 0, 63, 82
1, 77376, Note_on_c, 1, 55, 79
1, 77396, Note_on_c, 0, 75, 0
1, 77396, Note_on_c, 0, 63, 0
1, 77406, Note_on_c, 1, 55, 0
1, 77408, Note_on_c, 1, 57, 78
1, 77438, Note_on_c, 1, 57, 0
1, 77440, Note_on_c, 1, 58, 78
1, 77470, Note_on_c, 1, 58, 0
1, 77472, Note_on_c, 0, 74, 82
1, 77472, Note_on_c, 0, 62, 82
1, 77472, Note_on_c, 1, 53, 77
1, 77492, Note_on_c, 0, 74, 0
1, 77492, Note_on_c, 0, 62, 0
1, 77502, Note_on_c, 1, 53, 0
1, 77504, Note_on_c, 1, 55, 76
1, 77534, Note_on_c, 1, 55, 0
1, 77536, Note_on_c, 1, 57, 76
1, 77566, Note_on_c, 1, 57, 0
1, 77568, Note_on_c, 0, 79, 115
1, 77568, Note_on_c, 0, 67, 115
1, 77568, Note_on_c, 1, 51, 75
1, 77833, Note_on_c, 0, 79, 0
1, 77833, Note_on_c, 0, 67, 0
1, 77833, Note_on_c, 1, 51, 0
1, 77856, Note_on_c, 0, 79, 82
1, 77856, Note_on_c, 1, 63, 75
1, 77886, Note_on_c, 0, 79, 0
1, 77888, Note_on_c, 0, 72, 80
1, 77918, Note_on_c, 0, 72, 0
1, 77920, Note_on_c, 0, 69, 78
1, 77945, Note_on_c, 1, 63, 0
1, 77950, Note_on_c, 0, 69, 0
1, 77952, Note_on_c, 0, 77, 77
1, 77952, Note_on_c, 1, 62, 75
1, 77982, Note_on_c, 0, 77, 0
1, 77984, Note_on_c, 0, 74, 75
1, 78014, Note_on_c, 0, 74, 0
1, 78016, Note_on_c, 0, 70, 74
1, 78041, Note_on_c, 1, 62, 0
1, 78046, Note_on_c, 0, 70, 0
1, 78048, Note_on_c, 0, 67, 72
1, 78048, Note_on_c, 1, 63, 72
1, 78078, Note_on_c, 0, 67, 0
1, 78080, Note_on_c, 0, 75, 71
1, 78110, Note_on_c, 0, 75, 0
1, 78112, Note_on_c, 0, 72, 69
1, 78137, Note_on_c, 1, 63, 0
1, 78142, Note_on_c, 0, 72, 0
1, 78144, Note_on_c, 0, 70, 68
1, 78144, Note_on_c, 1, 62, 69
1, 78144, Note_on_c, 1, 53, 64
1, 78233, Note_on_c, 0, 70, 0
1, 78233, Note_on_c, 1, 62, 0
1, 78240, Note_on_c, 0, 69, 63
1, 78240, Note_on_c, 1, 60, 66
1, 78253, Note_on_c, 0, 69, 0
1, 78254, Note_on_c, 0, 70, 62
1, 78267, Note_on_c, 0, 70, 0
1, 78268, Note_on_c, 0, 69, 62
1, 78281, Note_on_c, 0, 69, 0
1, 78282, Note_on_c, 0, 70, 61
1, 78295, Note_on_c, 0, 70, 0
1, 78296, Note_on_c, 0, 69, 60
1, 78309, Note_on_c, 0, 69, 0
1, 78310, Note_on_c, 0, 67, 60
1, 78321, Note_on_c, 1, 53, 0
1, 78322, Note_on_c, 0, 67, 0
1, 78323, Note_on_c, 0, 69, 59
1, 78329, Note_on_c, 1, 60, 0
1, 78335, Note_on_c, 0, 69, 0
1, 78336, Note_on_c, 0, 70, 59
1, 78336, Note_on_c, 1, 62, 63
1, 78336, Note_on_c, 1, 58, 63
1, 78366, Note_on_c, 0, 70, 0
1, 78368, Note_on_c, 0, 65, 56
1, 78398, Note_on_c, 0, 65, 0
1, 78400, Note_on_c, 0, 74, 55
1, 78425, Note_on_c, 1, 62, 0
1, 78425, Note_on_c, 1, 58, 0
1, 78430, Note_on_c, 0, 74, 0
1, 78432, Note_on_c, 0, 70, 54
1, 78432, Note_on_c, 1, 62, 61
1, 78432, Note_on_c, 1, 58, 61
1, 78462, Note_on_c, 0, 70, 0
1, 78464, Note_on_c, 0, 65, 54
1, 78494, Note_on_c, 0, 65, 0
1, 78496, Note_on_c, 0, 74, 53
1, 78521, Note_on_c, 1, 62, 0
1, 78521, Note_on_c, 1, 58, 0
1, 78526, Note_on_c, 0, 74, 0
1, 78528, Note_on_c, 0, 70, 53
1, 78528, Note_on_c, 1, 62, 58
1, 78528, Note_on_c, 1, 58, 58
1, 78558, Note_on_c, 0, 70, 0
1, 78560, Note_on_c, 0, 65, 52
1, 78590, Note_on_c, 0, 65, 0
1, 78592, Note_on_c, 0, 74, 52
1, 78617, Note_on_c, 1, 62, 0
1, 78617, Note_on_c, 1, 58, 0
1, 78622, Note_on_c, 0, 74, 0
1, 78624, Note_on_c, 0, 70, 51
1, 78624, Note_on_c, 1, 62, 55
1, 78624, Note_on_c, 1, 58, 55
1, 78654, Note_on_c, 0, 70, 0
1, 78656, Note_on_c, 0, 65, 51
1, 78686, Note_on_c, 0, 65, 0
1, 78688, Note_on_c, 0, 74, 50
1, 78713, Note_on_c, 1, 62, 0
1, 78713, Note_on_c, 1, 58, 0
1, 78718, Note_on_c, 0, 74, 0
1, 78720, Note_on_c, 0, 70, 50
1, 78720, Note_on_c, 1, 62, 52
1, 78720, Note_on_c, 1, 58, 52
1, 78814, Note_on_c, 0, 70, 0
1, 78814, Note_on_c, 1, 62, 0
1, 78814, Note_on_c, 1, 58, 0
1, 79104, Note_on_c, 0, 61, 82
1, 79104, Note_on_c, 1, 49, 82
1, 79104, Note_on_c, 1, 37, 82
1, 79134, Note_on_c, 0, 61, 0
1, 79136, Note_on_c, 0, 56, 82
1, 79166, Note_on_c, 0, 56, 0
1, 79168, Note_on_c, 0, 65, 82
1, 79193, Note_on_c, 1, 49, 0
1, 79193, Note_on_c, 1, 37, 0
1, 79198, Note_on_c, 0, 65, 0
1, 79200, Note_on_c, 0, 61, 82
1, 79200, Note_on_c, 1, 49, 82
1, 79200, Note_on_c, 1, 37, 82
1, 79230, Note_on_c, 0, 61, 0
1, 79232, Note_on_c, 0, 56, 82
1, 79262, Note_on_c, 0, 56, 0
1, 79264, Note_on_c, 0, 65, 82
1, 79289, Note_on_c, 1, 49, 0
1, 79289, Note_on_c, 1, 37, 0
1, 79294, Note_on_c, 0, 65, 0
1, 79296, Note_on_c, 0, 61, 82
1, 79296, Note_on_c, 1, 49, 82
1, 79296, Note_on_c, 1, 37, 82
1, 79326, Note_on_c, 0, 61, 0
1, 79328, Note_on_c, 0, 56, 82
1, 79358, Note_on_c, 0, 56, 0
1, 79360, Note_on_c, 0, 65, 82
1, 79385, Note_on_c, 1, 49, 0
1, 79385, Note_on_c, 1, 37, 0
1, 79390, Note_on_c, 0, 65, 0
1, 79392, Note_on_c, 0, 61, 82
1, 79392, Note_on_c, 1, 49, 82
1, 79392, Note_on_c, 1, 37, 82
1, 79422, Note_on_c, 0, 61, 0
1, 79424, Note_on_c, 0, 56, 82
1, 79454, Note_on_c, 0, 56, 0
1, 79456, Note_on_c, 0, 65, 82
1, 79481, Note_on_c, 1, 49, 0
1, 79481, Note_on_c, 1, 37, 0
1, 79486, Note_on_c, 0, 65, 0
1, 79488, Note_on_c, 0, 61, 82
1, 79488, Note_on_c, 1, 49, 82
1, 79488, Note_on_c, 1, 37, 82
1, 79577, Note_on_c, 0, 61, 0
1, 79577, Note_on_c, 1, 49, 0
1, 79577, Note_on_c, 1, 37, 0
1, 79872, Note_on_c, 0, 68, 56
1, 79872, Note_on_c, 1, 58, 56
1, 79902, Note_on_c, 0, 68, 0
1, 79904, Note_on_c, 0, 65, 56
1, 79934, Note_on_c, 0, 65, 0
1, 79936, Note_on_c, 0, 74, 56
1, 79961, Note_on_c, 1, 58, 0
1, 79966, Note_on_c, 0, 74, 0
1, 79968, Note_on_c, 0, 68, 56
1, 79968, Note_on_c, 1, 58, 56
1, 79998, Note_on_c, 0, 68, 0
1, 80000, Note_on_c, 0, 65, 56
1, 80030, Note_on_c, 0, 65, 0
1, 80032, Note_on_c, 0, 74, 56
1, 80057, Note_on_c, 1, 58, 0
1, 80062, Note_on_c, 0, 74, 0
1, 80064, Note_on_c, 0, 68, 56
1, 80064, Note_on_c, 1, 58, 56
1, 80094, Note_on_c, 0, 68, 0
1, 80096, Note_on_c, 0, 65, 56
1, 80126, Note_on_c, 0, 65, 0
1, 80128, Note_on_c, 0, 74, 56
1, 80153, Note_on_c, 1, 58, 0
1, 80158, Note_on_c, 0, 74, 0
1, 80160, Note_on_c, 0, 68, 56
1, 80160, Note_on_c, 1, 58, 56
1, 80190, Note_on_c, 0, 68, 0
1, 80192, Note_on_c, 0, 65, 56
1, 80222, Note_on_c, 0, 65, 0
1, 80224, Note_on_c, 0, 74, 56
1, 80249, Note_on_c, 1, 58, 0
1, 80254, Note_on_c, 0, 74, 0
1, 80256, Note_on_c, 0, 68, 56
1, 80256, Note_on_c, 1, 58, 56
1, 80345, Note_on_c, 0, 68, 0
1, 80345, Note_on_c, 1, 58, 0
1, 80640, Note_on_c, 0, 79, 82
1, 80640, Note_on_c, 1, 63, 82
1, 80640, Note_on_c, 1, 58, 82
1, 80640, Note_on_c, 1, 55, 82
1, 80640, Note_on_c, 1, 51, 82
1, 80652, Note_on_c, 0, 79, 0
1, 80652, Note_on_c, 0, 82, 82
1, 80664, Note_on_c, 0, 82, 0
1, 80664, Note_on_c, 0, 87, 82
1, 80803, Note_on_c, 0, 87, 0
1, 80808, Note_on_c, 0, 86, 82
1, 80817, Note_on_c, 1, 63, 0
1, 80817, Note_on_c, 1, 58, 0
1, 80817, Note_on_c, 1, 55, 0
1, 80817, Note_on_c, 1, 51, 0
1, 80832, Note_on_c, 0, 86, 0
1, 80832, Note_on_c, 0, 84, 82
1, 80852, Note_on_c, 0, 84, 0
1, 80904, Note_on_c, 0, 82, 80
1, 80928, Note_on_c, 0, 82, 0
1, 80928, Note_on_c, 0, 80, 80
1, 80948, Note_on_c, 0, 80, 0
1, 81000, Note_on_c, 0, 79, 78
1, 81023, Note_on_c, 0, 79, 0
1, 81024, Note_on_c, 0, 77, 78
1, 81120, Note_on_c, 1, 75, 75
1, 81120, Note_on_c, 1, 71, 75
1, 81157, Note_on_c, 0, 77, 0
1, 81168, Note_on_c, 0, 77, 75
1, 81191, Note_on_c, 0, 77, 0
1, 81192, Note_on_c, 0, 79, 75
1, 81215, Note_on_c, 0, 79, 0
1, 81216, Note_on_c, 0, 80, 76
1, 81216, Note_on_c, 1, 75, 0
1, 81216, Note_on_c, 1, 71, 0
1, 81216, Note_on_c, 1, 74, 70
1, 81216, Note_on_c, 1, 70, 70
1, 81283, Note_on_c, 0, 80, 0
1, 81288, Note_on_c, 0, 79, 78
1, 81300, Note_on_c, 0, 79, 0
1, 81300, Note_on_c, 0, 80, 78
1, 81305, Note_on_c, 1, 74, 0
1, 81305, Note_on_c, 1, 70, 0
1, 81312, Note_on_c, 0, 80, 0
1, 81312, Note_on_c, 0, 82, 79
1, 81379, Note_on_c, 0, 82, 0
1, 81384, Note_on_c, 0, 80, 81
1, 81396, Note_on_c, 0, 80, 0
1, 81396, Note_on_c, 0, 82, 81
1, 81408, Note_on_c, 0, 82, 0
1, 81408, Note_on_c, 0, 84, 75
1, 81549, Note_on_c, 0, 84, 0
1, 81576, Note_on_c, 0, 82, 71
1, 81600, Note_on_c, 0, 82, 0
1, 81600, Note_on_c, 0, 80, 70
1, 81620, Note_on_c, 0, 80, 0
1, 81672, Note_on_c, 0, 79, 68
1, 81696, Note_on_c, 0, 79, 0
1, 81696, Note_on_c, 0, 77, 68
1, 81716, Note_on_c, 0, 77, 0
1, 81768, Note_on_c, 0, 75, 66
1, 81792, Note_on_c, 0, 75, 0
1, 81792, Note_on_c, 0, 74, 66
1, 81831, Note_on_c, 0, 74, 0
1, 81888, Note_on_c, 0, 80, 99
1, 81888, Note_on_c, 1, 65, 66
1, 81888, Note_on_c, 1, 59, 64
1, 81984, Note_on_c, 1, 59, 0
1, 81984, Note_on_c, 1, 60, 64
1, 82080, Note_on_c, 0, 80, 0
1, 82080, Note_on_c, 0, 79, 66
1, 82080, Note_on_c, 1, 65, 0
1, 82080, Note_on_c, 1, 63, 66
1, 82161, Note_on_c, 1, 60, 0
1, 82169, Note_on_c, 0, 79, 0
1, 82169, Note_on_c, 1, 63, 0
1, 82176, Note_on_c, 0, 77, 66
1, 82215, Note_on_c, 0, 77, 0
1, 82272, Note_on_c, 0, 84, 99
1, 82272, Note_on_c, 1, 68, 66
1, 82272, Note_on_c, 1, 62, 64
1, 82368, Note_on_c, 1, 62, 0
1, 82368, Note_on_c, 1, 63, 64
1, 82464, Note_on_c, 0, 84, 0
1, 82464, Note_on_c, 0, 82, 66
1, 82464, Note_on_c, 1, 68, 0
1, 82464, Note_on_c, 1, 67, 66
1, 82545, Note_on_c, 1, 63, 0
1, 82553, Note_on_c, 0, 82, 0
1, 82553, Note_on_c, 1, 67, 0
1, 82560, Note_on_c, 1, 75, 66
1, 82560, Note_on_c, 1, 72, 66
1, 82592, Note_on_c, 0, 79, 56
1, 82599, Note_on_c, 1, 75, 0
1, 82599, Note_on_c, 1, 72, 0
1, 82624, Note_on_c, 0, 79, 0
1, 82624, Note_on_c, 0, 80, 58
1, 82654, Note_on_c, 0, 80, 0
1, 82656, Note_on_c, 1, 74, 56
1, 82656, Note_on_c, 1, 70, 56
1, 82688, Note_on_c, 0, 78, 62
1, 82695, Note_on_c, 1, 74, 0
1, 82695, Note_on_c, 1, 70, 0
1, 82720, Note_on_c, 0, 78, 0
1, 82720, Note_on_c, 0, 79, 64
1, 82750, Note_on_c, 0, 79, 0
1, 82752, Note_on_c, 1, 72, 61
1, 82752, Note_on_c, 1, 68, 61
1, 82784, Note_on_c, 0, 76, 68
1, 82791, Note_on_c, 1, 72, 0
1, 82791, Note_on_c, 1, 68, 0
1, 82816, Note_on_c, 0, 76, 0
1, 82816, Note_on_c, 0, 77, 70
1, 82846, Note_on_c, 0, 77, 0
1, 82848, Note_on_c, 1, 70, 66
1, 82848, Note_on_c, 1, 67, 66
1, 82880, Note_on_c, 0, 74, 74
1, 82887, Note_on_c, 1, 70, 0
1, 82887, Note_on_c, 1, 67, 0
1, 82912, Note_on_c, 0, 74, 0
1, 82912, Note_on_c, 0, 75, 76
1, 82942, Note_on_c, 0, 75, 0
1, 82944, Note_on_c, 1, 72, 71
1, 82944, Note_on_c, 1, 68, 71
1, 82976, Note_on_c, 0, 77, 82
1, 83006, Note_on_c, 0, 77, 0
1, 83008, Note_on_c, 0, 79, 82
1, 83038, Note_on_c, 0, 79, 0
1, 83040, Note_on_c, 0, 80, 82
1, 83070, Note_on_c, 0, 80, 0
1, 83072, Note_on_c, 0, 82, 82
1, 83102, Note_on_c, 0, 82, 0
1, 83104, Note_on_c, 0, 84, 82
1, 83121, Note_on_c, 1, 72, 0
1, 83121, Note_on_c, 1, 68, 0
1, 83134, Note_on_c, 0, 84, 0
1, 83136, Note_on_c, 0, 82, 82
1, 83166, Note_on_c, 0, 82, 0
1, 83168, Note_on_c, 0, 80, 81
1, 83198, Note_on_c, 0, 80, 0
1, 83200, Note_on_c, 0, 79, 81
1, 83230, Note_on_c, 0, 79, 0
1, 83232, Note_on_c, 0, 77, 81
1, 83232, Note_on_c, 1, 68, 82
1, 83232, Note_on_c, 1, 58, 82
1, 83262, Note_on_c, 0, 77, 0
1, 83264, Note_on_c, 0, 75, 80
1, 83294, Note_on_c, 0, 75, 0
1, 83296, Note_on_c, 0, 74, 80
1, 83321, Note_on_c, 1, 68, 0
1, 83321, Note_on_c, 1, 58, 0
1, 83326, Note_on_c, 0, 74, 0
1, 83328, Note_on_c, 0, 75, 80
1, 83328, Note_on_c, 1, 67, 82
1, 83328, Note_on_c, 1, 63, 82
1, 83358, Note_on_c, 0, 75, 0
1, 83360, Note_on_c, 0, 79, 79
1, 83390, Note_on_c, 0, 79, 0
1, 83392, Note_on_c, 0, 77, 79
1, 83417, Note_on_c, 1, 67, 0
1, 83417, Note_on_c, 1, 63, 0
1, 83422, Note_on_c, 0, 77, 0
1, 83424, Note_on_c, 0, 75, 79
1, 83454, Note_on_c, 0, 75, 0
1, 83456, Note_on_c, 0, 74, 78
1, 83486, Note_on_c, 0, 74, 0
1, 83488, Note_on_c, 0, 72, 78
1, 83518, Note_on_c, 0, 72, 0
1, 83520, Note_on_c, 0, 70, 78
1, 83550, Note_on_c, 0, 70, 0
1, 83552, Note_on_c, 0, 68, 77
1, 83582, Note_on_c, 0, 68, 0
1, 83584, Note_on_c, 0, 67, 77
1, 83614, Note_on_c, 0, 67, 0
1, 83616, Note_on_c, 0, 65, 77
1, 83646, Note_on_c, 0, 65, 0
1, 83648, Note_on_c, 0, 63, 77
1, 83678, Note_on_c, 0, 63, 0
1, 83680, Note_on_c, 0, 62, 76
1, 83710, Note_on_c, 0, 62, 0
1, 83712, Note_on_c, 0, 63, 76
1, 83712, Note_on_c, 1, 51, 66
1, 83742, Note_on_c, 1, 51, 0
1, 83744, Note_on_c, 1, 55, 66
1, 83774, Note_on_c, 1, 55, 0
1, 83776, Note_on_c, 1, 58, 66
1, 83801, Note_on_c, 0, 63, 0
1, 83806, Note_on_c, 1, 58, 0
1, 83808, Note_on_c, 0, 79, 108
1, 83808, Note_on_c, 1, 51, 66
1, 83838, Note_on_c, 1, 51, 0
1, 83840, Note_on_c, 1, 55, 66
1, 83870, Note_on_c, 1, 55, 0
1, 83872, Note_on_c, 1, 58, 66
1, 83897, Note_on_c, 0, 79, 0
1, 83902, Note_on_c, 1, 58, 0
1, 83904, Note_on_c, 1, 51, 66
1, 83934, Note_on_c, 1, 51, 0
1, 83936, Note_on_c, 1, 55, 66
1, 83952, Note_on_c, 0, 79, 75
1, 83966, Note_on_c, 1, 55, 0
1, 83968, Note_on_c, 1, 58, 66
1, 83997, Note_on_c, 0, 79, 0
1, 83998, Note_on_c, 1, 58, 0
1, 84000, Note_on_c, 0, 81, 75
1, 84000, Note_on_c, 1, 51, 66
1, 84012, Note_on_c, 0, 81, 0
1, 84012, Note_on_c, 0, 79, 75
1, 84024, Note_on_c, 0, 79, 0
1, 84024, Note_on_c, 0, 77, 75
1, 84030, Note_on_c, 1, 51, 0
1, 84032, Note_on_c, 1, 55, 66
1, 84036, Note_on_c, 0, 77, 0
1, 84036, Note_on_c, 0, 79, 75
1, 84062, Note_on_c, 1, 55, 0
1, 84064, Note_on_c, 1, 58, 66
1, 84067, Note_on_c, 0, 79, 0
1, 84072, Note_on_c, 0, 81, 75
1, 84094, Note_on_c, 1, 58, 0
1, 84095, Note_on_c, 0, 81, 0
1, 84096, Note_on_c, 0, 82, 75
1, 84096, Note_on_c, 1, 50, 66
1, 84126, Note_on_c, 1, 50, 0
1, 84128, Note_on_c, 1, 53, 66
1, 84158, Note_on_c, 1, 53, 0
1, 84160, Note_on_c, 1, 58, 66
1, 84185, Note_on_c, 0, 82, 0
1, 84190, Note_on_c, 1, 58, 0
1, 84192, Note_on_c, 0, 82, 108
1, 84192, Note_on_c, 1, 50, 66
1, 84222, Note_on_c, 1, 50, 0
1, 84224, Note_on_c, 1, 53, 66
1, 84254, Note_on_c, 1, 53, 0
1, 84256, Note_on_c, 1, 58, 66
1, 84286, Note_on_c, 1, 58, 0
1, 84288, Note_on_c, 1, 50, 66
1, 84318, Note_on_c, 1, 50, 0
1, 84320, Note_on_c, 1, 53, 66
1, 84350, Note_on_c, 1, 53, 0
1, 84352, Note_on_c, 1, 58, 66
1, 84355, Note_on_c, 0, 82, 0
1, 84360, Note_on_c, 0, 81, 75
1, 84382, Note_on_c, 1, 58, 0
1, 84383, Note_on_c, 0, 81, 0
1, 84384, Note_on_c, 0, 79, 75
1, 84384, Note_on_c, 1, 50, 66
1, 84414, Note_on_c, 1, 50, 0
1, 84416, Note_on_c, 1, 53, 66
1, 84446, Note_on_c, 1, 53, 0
1, 84448, Note_on_c, 1, 58, 66
1, 84451, Note_on_c, 0, 79, 0
1, 84456, Note_on_c, 0, 77, 75
1, 84478, Note_on_c, 1, 58, 0
1, 84479, Note_on_c, 0, 77, 0
1, 84480, Note_on_c, 0, 77, 75
1, 84480, Note_on_c, 1, 48, 66
1, 84510, Note_on_c, 1, 48, 0
1, 84512, Note_on_c, 1, 51, 66
1, 84542, Note_on_c, 1, 51, 0
1, 84544, Note_on_c, 1, 58, 66
1, 84574, Note_on_c, 1, 58, 0
1, 84576, Note_on_c, 1, 48, 66
1, 84606, Note_on_c, 1, 48, 0
1, 84608, Note_on_c, 1, 51, 66
1, 84613, Note_on_c, 0, 77, 0
1, 84624, Note_on_c, 0, 74, 75
1, 84638, Note_on_c, 1, 51, 0
1, 84640, Note_on_c, 1, 58, 66
1, 84647, Note_on_c, 0, 74, 0
1, 84648, Note_on_c, 0, 75, 75
1, 84670, Note_on_c, 1, 58, 0
1, 84671, Note_on_c, 0, 75, 0
1, 84672, Note_on_c, 0, 77, 75
1, 84672, Note_on_c, 1, 48, 66
1, 84687, Note_on_c, 0, 77, 0
1, 84688, Note_on_c, 0, 75, 75
1, 84702, Note_on_c, 1, 48, 0
1, 84703, Note_on_c, 0, 75, 0
1, 84704, Note_on_c, 0, 77, 75
1, 84704, Note_on_c, 1, 51, 66
1, 84719, Note_on_c, 0, 77, 0
1, 84720, Note_on_c, 0, 75, 75
1, 84734, Note_on_c, 1, 51, 0
1, 84735, Note_on_c, 0, 75, 0
1, 84736, Note_on_c, 0, 77, 75
1, 84736, Note_on_c, 1, 58, 66
1, 84751, Note_on_c, 0, 77, 0
1, 84752, Note_on_c, 0, 75, 75
1, 84766, Note_on_c, 1, 58, 0
1, 84767, Note_on_c, 0, 75, 0
1, 84768, Note_on_c, 0, 77, 75
1, 84768, Note_on_c, 1, 48, 66
1, 84783, Note_on_c, 0, 77, 0
1, 84784, Note_on_c, 0, 75, 75
1, 84798, Note_on_c, 1, 48, 0
1, 84799, Note_on_c, 0, 75, 0
1, 84800, Note_on_c, 0, 74, 75
1, 84800, Note_on_c, 1, 51, 66
1, 84830, Note_on_c, 1, 51, 0
1, 84831, Note_on_c, 0, 74, 0
1, 84832, Note_on_c, 0, 75, 75
1, 84832, Note_on_c, 1, 58, 66
1, 84862, Note_on_c, 1, 58, 0
1, 84863, Note_on_c, 0, 75, 0
1, 84864, Note_on_c, 0, 74, 91
1, 84864, Note_on_c, 1, 46, 66
1, 84894, Note_on_c, 1, 46, 0
1, 84896, Note_on_c, 1, 50, 66
1, 84926, Note_on_c, 1, 50, 0
1, 84928, Note_on_c, 1, 58, 66
1, 84958, Note_on_c, 1, 58, 0
1, 84960, Note_on_c, 0, 74, 0
1, 84960, Note_on_c, 0, 74, 75
1, 84960, Note_on_c, 1, 46, 66
1, 84990, Note_on_c, 1, 46, 0
1, 84992, Note_on_c, 1, 50, 66
1, 85022, Note_on_c, 1, 50, 0
1, 85024, Note_on_c, 1, 58, 66
1, 85049, Note_on_c, 0, 74, 0
1, 85054, Note_on_c, 1, 58, 0
1, 85056, Note_on_c, 1, 46, 66
1, 85086, Note_on_c, 1, 46, 0
1, 85088, Note_on_c, 0, 74, 75
1, 85088, Note_on_c, 1, 50, 66
1, 85118, Note_on_c, 0, 74, 0
1, 85118, Note_on_c, 1, 50, 0
1, 85120, Note_on_c, 0, 75, 75
1, 85120, Note_on_c, 1, 53, 66
1, 85150, Note_on_c, 0, 75, 0
1, 85150, Note_on_c, 1, 53, 0
1, 85152, Note_on_c, 0, 77, 75
1, 85152, Note_on_c, 1, 46, 66
1, 85182, Note_on_c, 0, 77, 0
1, 85182, Note_on_c, 1, 46, 0
1, 85184, Note_on_c, 0, 75, 75
1, 85184, Note_on_c, 1, 50, 66
1, 85214, Note_on_c, 0, 75, 0
1, 85214, Note_on_c, 1, 50, 0
1, 85216, Note_on_c, 0, 74, 75
1, 85216, Note_on_c, 1, 53, 66
1, 85246, Note_on_c, 0, 74, 0
1, 85246, Note_on_c, 1, 53, 0
1, 85248, Note_on_c, 0, 72, 75
1, 85248, Note_on_c, 1, 51, 75
1, 85278, Note_on_c, 0, 72, 0
1, 85280, Note_on_c, 0, 75, 75
1, 85310, Note_on_c, 0, 75, 0
1, 85312, Note_on_c, 0, 74, 76
1, 85342, Note_on_c, 0, 74, 0
1, 85344, Note_on_c, 0, 72, 76
1, 85374, Note_on_c, 0, 72, 0
1, 85376, Note_on_c, 0, 75, 77
1, 85406, Note_on_c, 0, 75, 0
1, 85408, Note_on_c, 0, 77, 77
1, 85438, Note_on_c, 0, 77, 0
1, 85440, Note_on_c, 0, 79, 78
1, 85470, Note_on_c, 0, 79, 0
1, 85472, Note_on_c, 0, 77, 78
1, 85502, Note_on_c, 0, 77, 0
1, 85504, Note_on_c, 0, 75, 79
1, 85513, Note_on_c, 1, 51, 0
1, 85534, Note_on_c, 0, 75, 0
1, 85536, Note_on_c, 0, 74, 79
1, 85536, Note_on_c, 1, 52, 79
1, 85566, Note_on_c, 0, 74, 0
1, 85568, Note_on_c, 0, 72, 80
1, 85598, Note_on_c, 0, 72, 0
1, 85600, Note_on_c, 0, 70, 80
1, 85625, Note_on_c, 1, 52, 0
1, 85630, Note_on_c, 0, 70, 0
1, 85632, Note_on_c, 0, 69, 81
1, 85632, Note_on_c, 1, 53, 80
1, 85662, Note_on_c, 0, 69, 0
1, 85664, Note_on_c, 0, 72, 82
1, 85694, Note_on_c, 0, 72, 0
1, 85696, Note_on_c, 0, 70, 82
1, 85721, Note_on_c, 1, 53, 0
1, 85726, Note_on_c, 0, 70, 0
1, 85728, Note_on_c, 0, 74, 82
1, 85728, Note_on_c, 1, 65, 82
1, 85758, Note_on_c, 0, 74, 0
1, 85760, Note_on_c, 0, 72, 82
1, 85767, Note_on_c, 1, 65, 0
1, 85790, Note_on_c, 0, 72, 0
1, 85792, Note_on_c, 0, 75, 82
1, 85822, Note_on_c, 0, 75, 0
1, 85824, Note_on_c, 0, 74, 82
1, 85824, Note_on_c, 1, 65, 82
1, 85854, Note_on_c, 0, 74, 0
1, 85856, Note_on_c, 0, 77, 82
1, 85863, Note_on_c, 1, 65, 0
1, 85886, Note_on_c, 0, 77, 0
1, 85888, Note_on_c, 0, 75, 82
1, 85918, Note_on_c, 0, 75, 0
1, 85920, Note_on_c, 0, 74, 82
1, 85920, Note_on_c, 1, 65, 82
1, 85950, Note_on_c, 0, 74, 0
1, 85952, Note_on_c, 0, 72, 82
1, 85959, Note_on_c, 1, 65, 0
1, 85982, Note_on_c, 0, 72, 0
1, 85984, Note_on_c, 0, 70, 82
1, 86014, Note_on_c, 0, 70, 0
1, 86016, Note_on_c, 0, 69, 82
1, 86016, Note_on_c, 1, 65, 82
1, 86016, Note_on_c, 1, 63, 82
1, 86046, Note_on_c, 0, 69, 0
1, 86048, Note_on_c, 0, 72, 82
1, 86055, Note_on_c, 1, 65, 0
1, 86055, Note_on_c, 1, 63, 0
1, 86078, Note_on_c, 0, 72, 0
1, 86080, Note_on_c, 0, 70, 82
1, 86110, Note_on_c, 0, 70, 0
1, 86112, Note_on_c, 0, 74, 82
1, 86112, Note_on_c, 1, 65, 82
1, 86112, Note_on_c, 1, 63, 82
1, 86142, Note_on_c, 0, 74, 0
1, 86144, Note_on_c, 0, 72, 82
1, 86151, Note_on_c, 1, 65, 0
1, 86151, Note_on_c, 1, 63, 0
1, 86174, Note_on_c, 0, 72, 0
1, 86176, Note_on_c, 0, 75, 82
1, 86206, Note_on_c, 0, 75, 0
1, 86208, Note_on_c, 0, 74, 82
1, 86208, Note_on_c, 1, 65, 82
1, 86208, Note_on_c, 1, 63, 82
1, 86238, Note_on_c, 0, 74, 0
1, 86240, Note_on_c, 0, 77, 82
1, 86247, Note_on_c, 1, 65, 0
1, 86247, Note_on_c, 1, 63, 0
1, 86270, Note_on_c, 0, 77, 0
1, 86272, Note_on_c, 0, 75, 82
1, 86302, Note_on_c, 0, 75, 0
1, 86304, Note_on_c, 0, 74, 82
1, 86304, Note_on_c, 1, 65, 82
1, 86304, Note_on_c, 1, 63, 82
1, 86334, Note_on_c, 0, 74, 0
1, 86336, Note_on_c, 0, 72, 82
1, 86343, Note_on_c, 1, 65, 0
1, 86343, Note_on_c, 1, 63, 0
1, 86366, Note_on_c, 0, 72, 0
1, 86368, Note_on_c, 0, 70, 82
1, 86398, Note_on_c, 0, 70, 0
1, 86400, Note_on_c, 0, 69, 82
1, 86400, Note_on_c, 1, 66, 82
1, 86400, Note_on_c, 1, 62, 82
1, 86430, Note_on_c, 0, 69, 0
1, 86432, Note_on_c, 0, 72, 82
1, 86439, Note_on_c, 1, 66, 0
1, 86439, Note_on_c, 1, 62, 0
1, 86462, Note_on_c, 0, 72, 0
1, 86464, Note_on_c, 0, 70, 82
1, 86494, Note_on_c, 0, 70, 0
1, 86496, Note_on_c, 0, 74, 82
1, 86496, Note_on_c, 1, 66, 82
1, 86496, Note_on_c, 1, 62, 82
1, 86526, Note_on_c, 0, 74, 0
1, 86528, Note_on_c, 0, 72, 82
1, 86535, Note_on_c, 1, 66, 0
1, 86535, Note_on_c, 1, 62, 0
1, 86558, Note_on_c, 0, 72, 0
1, 86560, Note_on_c, 0, 75, 82
1, 86590, Note_on_c, 0, 75, 0
1, 86592, Note_on_c, 0, 74, 82
1, 86592, Note_on_c, 1, 66, 82
1, 86592, Note_on_c, 1, 62, 82
1, 86622, Note_on_c, 0, 74, 0
1, 86624, Note_on_c, 0, 72, 82
1, 86631, Note_on_c, 1, 66, 0
1, 86631, Note_on_c, 1, 62, 0
1, 86654, Note_on_c, 0, 72, 0
1, 86656, Note_on_c, 0, 81, 82
1, 86686, Note_on_c, 0, 81, 0
1, 86688, Note_on_c, 0, 79, 82
1, 86688, Note_on_c, 1, 66, 82
1, 86688, Note_on_c, 1, 62, 82
1, 86718, Note_on_c, 0, 79, 0
1, 86720, Note_on_c, 0, 78, 82
1, 86727, Note_on_c, 1, 66, 0
1, 86727, Note_on_c, 1, 62, 0
1, 86750, Note_on_c, 0, 78, 0
1, 86752, Note_on_c, 0, 84, 82
1, 86782, Note_on_c, 0, 84, 0
1, 86784, Note_on_c, 0, 82, 82
1, 86784, Note_on_c, 1, 66, 82
1, 86784, Note_on_c, 1, 62, 82
1, 86814, Note_on_c, 0, 82, 0
1, 86816, Note_on_c, 0, 81, 82
1, 86823, Note_on_c, 1, 66, 0
1, 86823, Note_on_c, 1, 62, 0
1, 86846, Note_on_c, 0, 81, 0
1, 86848, Note_on_c, 0, 87, 82
1, 86878, Note_on_c, 0, 87, 0
1, 86880, Note_on_c, 0, 86, 82
1, 86880, Note_on_c, 1, 66, 78
1, 86880, Note_on_c, 1, 62, 78
1, 86910, Note_on_c, 0, 86, 0
1, 86912, Note_on_c, 0, 84, 82
1, 86919, Note_on_c, 1, 66, 0
1, 86919, Note_on_c, 1, 62, 0
1, 86942, Note_on_c, 0, 84, 0
1, 86944, Note_on_c, 0, 82, 82
1, 86974, Note_on_c, 0, 82, 0
1, 86976, Note_on_c, 0, 81, 82
1, 86976, Note_on_c, 1, 66, 74
1, 86976, Note_on_c, 1, 62, 74
1, 87006, Note_on_c, 0, 81, 0
1, 87008, Note_on_c, 0, 79, 82
1, 87015, Note_on_c, 1, 66, 0
1, 87015, Note_on_c, 1, 62, 0
1, 87038, Note_on_c, 0, 79, 0
1, 87040, Note_on_c, 0, 78, 82
1, 87070, Note_on_c, 0, 78, 0
1, 87072, Note_on_c, 0, 81, 82
1, 87072, Note_on_c, 1, 66, 70
1, 87072, Note_on_c, 1, 62, 70
1, 87102, Note_on_c, 0, 81, 0
1, 87104, Note_on_c, 0, 78, 82
1, 87111, Note_on_c, 1, 66, 0
1, 87111, Note_on_c, 1, 62, 0
1, 87134, Note_on_c, 0, 78, 0
1, 87136, Note_on_c, 0, 72, 82
1, 87166, Note_on_c, 0, 72, 0
1, 87168, Note_on_c, 0, 70, 82
1, 87168, Note_on_c, 1, 55, 67
1, 87198, Note_on_c, 1, 55, 0
1, 87200, Note_on_c, 1, 58, 66
1, 87230, Note_on_c, 1, 58, 0
1, 87232, Note_on_c, 1, 62, 66
1, 87257, Note_on_c, 0, 70, 0
1, 87262, Note_on_c, 1, 62, 0
1, 87264, Note_on_c, 0, 86, 115
1, 87264, Note_on_c, 1, 55, 66
1, 87294, Note_on_c, 1, 55, 0
1, 87296, Note_on_c, 1, 58, 66
1, 87326, Note_on_c, 1, 58, 0
1, 87328, Note_on_c, 1, 62, 66
1, 87358, Note_on_c, 1, 62, 0
1, 87360, Note_on_c, 1, 57, 66
1, 87390, Note_on_c, 1, 57, 0
1, 87392, Note_on_c, 1, 60, 66
1, 87422, Note_on_c, 1, 60, 0
1, 87424, Note_on_c, 1, 62, 66
1, 87427, Note_on_c, 0, 86, 0
1, 87432, Note_on_c, 0, 78, 82
1, 87454, Note_on_c, 1, 62, 0
1, 87455, Note_on_c, 0, 78, 0
1, 87456, Note_on_c, 0, 78, 82
1, 87456, Note_on_c, 1, 57, 66
1, 87469, Note_on_c, 0, 78, 0
1, 87470, Note_on_c, 0, 79, 82
1, 87483, Note_on_c, 0, 79, 0
1, 87484, Note_on_c, 0, 78, 82
1, 87486, Note_on_c, 1, 57, 0
1, 87488, Note_on_c, 1, 60, 66
1, 87497, Note_on_c, 0, 78, 0
1, 87498, Note_on_c, 0, 79, 82
1, 87511, Note_on_c, 0, 79, 0
1, 87512, Note_on_c, 0, 78, 82
1, 87518, Note_on_c, 1, 60, 0
1, 87520, Note_on_c, 1, 62, 66
1, 87525, Note_on_c, 0, 78, 0
1, 87526, Note_on_c, 0, 75, 82
1, 87538, Note_on_c, 0, 75, 0
1, 87539, Note_on_c, 0, 78, 82
1, 87550, Note_on_c, 1, 62, 0
1, 87551, Note_on_c, 0, 78, 0
1, 87552, Note_on_c, 0, 79, 82
1, 87552, Note_on_c, 1, 58, 66
1, 87582, Note_on_c, 1, 58, 0
1, 87584, Note_on_c, 1, 60, 66
1, 87614, Note_on_c, 1, 60, 0
1, 87616, Note_on_c, 1, 62, 66
1, 87646, Note_on_c, 1, 62, 0
1, 87648, Note_on_c, 0, 79, 0
1, 87648, Note_on_c, 0, 82, 82
1, 87648, Note_on_c, 1, 58, 66
1, 87678, Note_on_c, 1, 58, 0
1, 87680, Note_on_c, 1, 60, 66
1, 87710, Note_on_c, 1, 60, 0
1, 87712, Note_on_c, 1, 62, 66
1, 87737, Note_on_c, 0, 82, 0
1, 87742, Note_on_c, 1, 62, 0
1, 87744, Note_on_c, 1, 54, 66
1, 87774, Note_on_c, 1, 54, 0
1, 87776, Note_on_c, 1, 57, 66
1, 87806, Note_on_c, 1, 57, 0
1, 87808, Note_on_c, 1, 62, 66
1, 87816, Note_on_c, 0, 81, 82
1, 87838, Note_on_c, 1, 62, 0
1, 87839, Note_on_c, 0, 81, 0
1, 87840, Note_on_c, 0, 81, 82
1, 87840, Note_on_c, 1, 54, 66
1, 87853, Note_on_c, 0, 81, 0
1, 87854, Note_on_c, 0, 82, 82
1, 87867, Note_on_c, 0, 82, 0
1, 87868, Note_on_c, 0, 81, 82
1, 87870, Note_on_c, 1, 54, 0
1, 87872, Note_on_c, 1, 57, 66
1, 87881, Note_on_c, 0, 81, 0
1, 87882, Note_on_c, 0, 82, 82
1, 87895, Note_on_c, 0, 82, 0
1, 87896, Note_on_c, 0, 81, 82
1, 87902, Note_on_c, 1, 57, 0
1, 87904, Note_on_c, 1, 62, 66
1, 87909, Note_on_c, 0, 81, 0
1, 87910, Note_on_c, 0, 79, 82
1, 87922, Note_on_c, 0, 79, 0
1, 87923, Note_on_c, 0, 81, 82
1, 87934, Note_on_c, 1, 62, 0
1, 87935, Note_on_c, 0, 81, 0
1, 87936, Note_on_c, 0, 82, 82
1, 87936, Note_on_c, 1, 55, 66
1, 87966, Note_on_c, 1, 55, 0
1, 87968, Note_on_c, 1, 58, 66
1, 87998, Note_on_c, 1, 58, 0
1, 88000, Note_on_c, 1, 62, 66
1, 88025, Note_on_c, 0, 82, 0
1, 88030, Note_on_c, 1, 62, 0
1, 88032, Note_on_c, 0, 86, 127
1, 88032, Note_on_c, 1, 55, 66
1, 88062, Note_on_c, 1, 55, 0
1, 88064, Note_on_c, 1, 58, 66
1, 88094, Note_on_c, 1, 58, 0
1, 88096, Note_on_c, 1, 62, 66
1, 88126, Note_on_c, 1, 62, 0
1, 88128, Note_on_c, 1, 57, 66
1, 88158, Note_on_c, 0, 86, 0
1, 88158, Note_on_c, 1, 57, 0
1, 88160, Note_on_c, 0, 84, 82
1, 88160, Note_on_c, 1, 60, 66
1, 88190, Note_on_c, 0, 84, 0
1, 88190, Note_on_c, 1, 60, 0
1, 88192, Note_on_c, 0, 82, 82
1, 88192, Note_on_c, 1, 62, 66
1, 88222, Note_on_c, 0, 82, 0
1, 88222, Note_on_c, 1, 62, 0
1, 88224, Note_on_c, 0, 81, 82
1, 88224, Note_on_c, 1, 57, 66
1, 88254, Note_on_c, 0, 81, 0
1, 88254, Note_on_c, 1, 57, 0
1, 88256, Note_on_c, 0, 79, 82
1, 88256, Note_on_c, 1, 60, 66
1, 88286, Note_on_c, 0, 79, 0
1, 88286, Note_on_c, 1, 60, 0
1, 88288, Note_on_c, 0, 78, 82
1, 88288, Note_on_c, 1, 62, 66
1, 88318, Note_on_c, 0, 78, 0
1, 88318, Note_on_c, 1, 62, 0
1, 88320, Note_on_c, 0, 79, 82
1, 88320, Note_on_c, 1, 58, 66
1, 88350, Note_on_c, 1, 58, 0
1, 88352, Note_on_c, 1, 60, 66
1, 88382, Note_on_c, 1, 60, 0
1, 88384, Note_on_c, 1, 62, 67
1, 88387, Note_on_c, 0, 79, 0
1, 88392, Note_on_c, 0, 79, 82
1, 88414, Note_on_c, 1, 62, 0
1, 88415, Note_on_c, 0, 79, 0
1, 88416, Note_on_c, 0, 79, 82
1, 88416, Note_on_c, 1, 58, 67
1, 88429, Note_on_c, 0, 79, 0
1, 88430, Note_on_c, 0, 81, 82
1, 88443, Note_on_c, 0, 81, 0
1, 88444, Note_on_c, 0, 79, 82
1, 88446, Note_on_c, 1, 58, 0
1, 88448, Note_on_c, 1, 60, 68
1, 88457, Note_on_c, 0, 79, 0
1, 88458, Note_on_c, 0, 81, 82
1, 88471, Note_on_c, 0, 81, 0
1, 88472, Note_on_c, 0, 79, 82
1, 88478, Note_on_c, 1, 60, 0
1, 88480, Note_on_c, 1, 62, 69
1, 88485, Note_on_c, 0, 79, 0
1, 88486, Note_on_c, 0, 78, 82
1, 88498, Note_on_c, 0, 78, 0
1, 88499, Note_on_c, 0, 79, 83
1, 88510, Note_on_c, 1, 62, 0
1, 88511, Note_on_c, 0, 79, 0
1, 88512, Note_on_c, 0, 81, 83
1, 88512, Note_on_c, 1, 54, 69
1, 88542, Note_on_c, 1, 54, 0
1, 88544, Note_on_c, 1, 57, 70
1, 88574, Note_on_c, 1, 57, 0
1, 88576, Note_on_c, 1, 62, 71
1, 88579, Note_on_c, 0, 81, 0
1, 88584, Note_on_c, 0, 81, 84
1, 88606, Note_on_c, 1, 62, 0
1, 88607, Note_on_c, 0, 81, 0
1, 88608, Note_on_c, 0, 81, 84
1, 88608, Note_on_c, 1, 54, 71
1, 88621, Note_on_c, 0, 81, 0
1, 88622, Note_on_c, 0, 82, 84
1, 88635, Note_on_c, 0, 82, 0
1, 88636, Note_on_c, 0, 81, 84
1, 88638, Note_on_c, 1, 54, 0
1, 88640, Note_on_c, 1, 57, 72
1, 88649, Note_on_c, 0, 81, 0
1, 88650, Note_on_c, 0, 82, 84
1, 88663, Note_on_c, 0, 82, 0
1, 88664, Note_on_c, 0, 81, 84
1, 88670, Note_on_c, 1, 57, 0
1, 88672, Note_on_c, 1, 62, 72
1, 88677, Note_on_c, 0, 81, 0
1, 88678, Note_on_c, 0, 79, 85
1, 88690, Note_on_c, 0, 79, 0
1, 88691, Note_on_c, 0, 81, 85
1, 88702, Note_on_c, 1, 62, 0
1, 88703, Note_on_c, 0, 81, 0
1, 88704, Note_on_c, 0, 82, 85
1, 88704, Note_on_c, 1, 55, 73
1, 88734, Note_on_c, 1, 55, 0
1, 88736, Note_on_c, 1, 58, 74
1, 88766, Note_on_c, 1, 58, 0
1, 88768, Note_on_c, 1, 62, 74
1, 88771, Note_on_c, 0, 82, 0
1, 88776, Note_on_c, 0, 82, 86
1, 88798, Note_on_c, 1, 62, 0
1, 88799, Note_on_c, 0, 82, 0
1, 88800, Note_on_c, 0, 82, 86
1, 88800, Note_on_c, 1, 55, 75
1, 88813, Note_on_c, 0, 82, 0
1, 88814, Note_on_c, 0, 84, 86
1, 88827, Note_on_c, 0, 84, 0
1, 88828, Note_on_c, 0, 82, 86
1, 88830, Note_on_c, 1, 55, 0
1, 88832, Note_on_c, 1, 58, 76
1, 88841, Note_on_c, 0, 82, 0
1, 88842, Note_on_c, 0, 84, 86
1, 88855, Note_on_c, 0, 84, 0
1, 88856, Note_on_c, 0, 82, 86
1, 88862, Note_on_c, 1, 58, 0
1, 88864, Note_on_c, 1, 62, 76
1, 88869, Note_on_c, 0, 82, 0
1, 88870, Note_on_c, 0, 81, 87
1, 88882, Note_on_c, 0, 81, 0
1, 88883, Note_on_c, 0, 82, 87
1, 88894, Note_on_c, 1, 62, 0
1, 88895, Note_on_c, 0, 82, 0
1, 88896, Note_on_c, 0, 84, 87
1, 88896, Note_on_c, 1, 57, 77
1, 88926, Note_on_c, 1, 57, 0
1, 88928, Note_on_c, 1, 60, 77
1, 88958, Note_on_c, 1, 60, 0
1, 88960, Note_on_c, 1, 66, 78
1, 88963, Note_on_c, 0, 84, 0
1, 88968, Note_on_c, 0, 84, 88
1, 88990, Note_on_c, 1, 66, 0
1, 88991, Note_on_c, 0, 84, 0
1, 88992, Note_on_c, 0, 84, 88
1, 88992, Note_on_c, 1, 57, 79
1, 89005, Note_on_c, 0, 84, 0
1, 89006, Note_on_c, 0, 86, 88
1, 89019, Note_on_c, 0, 86, 0
1, 89020, Note_on_c, 0, 84, 88
1, 89022, Note_on_c, 1, 57, 0
1, 89024, Note_on_c, 1, 60, 79
1, 89033, Note_on_c, 0, 84, 0
1, 89034, Note_on_c, 0, 86, 88
1, 89047, Note_on_c, 0, 86, 0
1, 89048, Note_on_c, 0, 84, 89
1, 89054, Note_on_c, 1, 60, 0
1, 89056, Note_on_c, 1, 66, 80
1, 89061, Note_on_c, 0, 84, 0
1, 89062, Note_on_c, 0, 82, 89
1, 89074, Note_on_c, 0, 82, 0
1, 89075, Note_on_c, 0, 84, 89
1, 89086, Note_on_c, 1, 66, 0
1, 89087, Note_on_c, 0, 84, 0
1, 89088, Note_on_c, 0, 86, 90
1, 89088, Note_on_c, 1, 58, 82
1, 89127, Note_on_c, 1, 58, 0
1, 89133, Note_on_c, 0, 86, 0
1, 89160, Note_on_c, 0, 86, 90
1, 89172, Note_on_c, 0, 86, 0
1, 89172, Note_on_c, 0, 84, 90
1, 89184, Note_on_c, 0, 84, 0
1, 89184, Note_on_c, 0, 82, 90
1, 89231, Note_on_c, 0, 82, 0
1, 89256, Note_on_c, 0, 82, 90
1, 89268, Note_on_c, 0, 82, 0
1, 89268, Note_on_c, 0, 81, 90
1, 89280, Note_on_c, 0, 81, 0
1, 89280, Note_on_c, 0, 79, 90
1, 89327, Note_on_c, 0, 79, 0
1, 89352, Note_on_c, 0, 82, 90
1, 89364, Note_on_c, 0, 82, 0
1, 89364, Note_on_c, 0, 81, 90
1, 89376, Note_on_c, 0, 81, 0
1, 89376, Note_on_c, 0, 79, 90
1, 89376, Note_on_c, 1, 67, 82
1, 89376, Note_on_c, 1, 58, 82
1, 89423, Note_on_c, 0, 79, 0
1, 89448, Note_on_c, 0, 79, 90
1, 89460, Note_on_c, 0, 79, 0
1, 89460, Note_on_c, 0, 77, 90
1, 89465, Note_on_c, 1, 67, 0
1, 89465, Note_on_c, 1, 58, 0
1, 89472, Note_on_c, 0, 77, 0
1, 89472, Note_on_c, 0, 75, 90
1, 89472, Note_on_c, 1, 67, 82
1, 89472, Note_on_c, 1, 60, 82
1, 89517, Note_on_c, 0, 75, 0
1, 89517, Note_on_c, 1, 67, 0
1, 89517, Note_on_c, 1, 60, 0
1, 89544, Note_on_c, 0, 79, 82
1, 89544, Note_on_c, 1, 67, 82
1, 89556, Note_on_c, 0, 79, 0
1, 89556, Note_on_c, 0, 77, 82
1, 89556, Note_on_c, 1, 67, 0
1, 89556, Note_on_c, 1, 65, 82
1, 89568, Note_on_c, 0, 77, 0
1, 89568, Note_on_c, 0, 75, 82
1, 89568, Note_on_c, 1, 65, 0
1, 89568, Note_on_c, 1, 63, 82
1, 89613, Note_on_c, 1, 63, 0
1, 89615, Note_on_c, 0, 75, 0
1, 89640, Note_on_c, 0, 75, 82
1, 89640, Note_on_c, 1, 63, 82
1, 89652, Note_on_c, 0, 75, 0
1, 89652, Note_on_c, 0, 74, 82
1, 89652, Note_on_c, 1, 63, 0
1, 89652, Note_on_c, 1, 62, 82
1, 89664, Note_on_c, 0, 74, 0
1, 89664, Note_on_c, 0, 72, 82
1, 89664, Note_on_c, 1, 62, 0
1, 89664, Note_on_c, 1, 60, 82
1, 89709, Note_on_c, 1, 60, 0
1, 89711, Note_on_c, 0, 72, 0
1, 89736, Note_on_c, 0, 72, 82
1, 89736, Note_on_c, 1, 60, 82
1, 89748, Note_on_c, 0, 72, 0
1, 89748, Note_on_c, 0, 70, 82
1, 89748, Note_on_c, 1, 60, 0
1, 89748, Note_on_c, 1, 58, 82
1, 89760, Note_on_c, 0, 70, 0
1, 89760, Note_on_c, 0, 69, 82
1, 89760, Note_on_c, 1, 58, 0
1, 89760, Note_on_c, 1, 57, 82
1, 89805, Note_on_c, 1, 57, 0
1, 89807, Note_on_c, 0, 69, 0
1, 89832, Note_on_c, 0, 69, 82
1, 89832, Note_on_c, 1, 57, 82
1, 89844, Note_on_c, 0, 69, 0
1, 89844, Note_on_c, 0, 67, 82
1, 89844, Note_on_c, 1, 57, 0
1, 89844, Note_on_c, 1, 55, 82
1, 89856, Note_on_c, 0, 67, 0
1, 89856, Note_on_c, 0, 66, 82
1, 89856, Note_on_c, 1, 55, 0
1, 89856, Note_on_c, 1, 54, 82
1, 89945, Note_on_c, 0, 66, 0
1, 89945, Note_on_c, 1, 54, 0
1, 89952, Note_on_c, 1, 46, 82
1, 89952, Note_on_c, 1, 34, 82
1, 89984, Note_on_c, 0, 55, 82
1, 90016, Note_on_c, 0, 55, 0
1, 90016, Note_on_c, 0, 67, 82
1, 90041, Note_on_c, 1, 46, 0
1, 90041, Note_on_c, 1, 34, 0
1, 90046, Note_on_c, 0, 67, 0
1, 90048, Note_on_c, 1, 48, 82
1, 90048, Note_on_c, 1, 36, 82
1, 90080, Note_on_c, 0, 57, 82
1, 90112, Note_on_c, 0, 57, 0
1, 90112, Note_on_c, 0, 67, 82
1, 90137, Note_on_c, 1, 48, 0
1, 90137, Note_on_c, 1, 36, 0
1, 90142, Note_on_c, 0, 67, 0
1, 90144, Note_on_c, 1, 50, 82
1, 90144, Note_on_c, 1, 38, 82
1, 90176, Note_on_c, 0, 57, 82
1, 90208, Note_on_c, 0, 57, 0
1, 90208, Note_on_c, 0, 66, 82
1, 90233, Note_on_c, 1, 50, 0
1, 90233, Note_on_c, 1, 38, 0
1, 90238, Note_on_c, 0, 66, 0
1, 90240, Note_on_c, 1, 43, 82
1, 90240, Note_on_c, 1, 31, 82
1, 90272, Note_on_c, 0, 67, 75
1, 90302, Note_on_c, 0, 67, 0
1, 90304, Note_on_c, 0, 68, 75
1, 90329, Note_on_c, 1, 43, 0
1, 90329, Note_on_c, 1, 31, 0
1, 90334, Note_on_c, 0, 68, 0
1, 90336, Note_on_c, 0, 69, 75
1, 90366, Note_on_c, 0, 69, 0
1, 90368, Note_on_c, 0, 70, 75
1, 90398, Note_on_c, 0, 70, 0
1, 90400, Note_on_c, 0, 71, 75
1, 90430, Note_on_c, 0, 71, 0
1, 90432, Note_on_c, 0, 72, 75
1, 90464, Note_on_c, 1, 50, 75
1, 90494, Note_on_c, 1, 50, 0
1, 90496, Note_on_c, 1, 51, 75
1, 90521, Note_on_c, 0, 72, 0
1, 90526, Note_on_c, 1, 51, 0
1, 90528, Note_on_c, 1, 52, 75
1, 90558, Note_on_c, 1, 52, 0
1, 90560, Note_on_c, 1, 53, 75
1, 90590, Note_on_c, 1, 53, 0
1, 90592, Note_on_c, 1, 54, 75
1, 90622, Note_on_c, 1, 54, 0
1, 90624, Note_on_c, 1, 55, 75
1, 90656, Note_on_c, 0, 67, 75
1, 90686, Note_on_c, 0, 67, 0
1, 90688, Note_on_c, 0, 68, 75
1, 90713, Note_on_c, 1, 55, 0
1, 90718, Note_on_c, 0, 68, 0
1, 90720, Note_on_c, 0, 69, 75
1, 90750, Note_on_c, 0, 69, 0
1, 90752, Note_on_c, 0, 70, 75
1, 90782, Note_on_c, 0, 70, 0
1, 90784, Note_on_c, 0, 71, 75
1, 90814, Note_on_c, 0, 71, 0
1, 90816, Note_on_c, 0, 72, 75
1, 90848, Note_on_c, 1, 62, 75
1, 90878, Note_on_c, 1, 62, 0
1, 90880, Note_on_c, 1, 63, 75
1, 90905, Note_on_c, 0, 72, 0
1, 90910, Note_on_c, 1, 63, 0
1, 90912, Note_on_c, 1, 64, 75
1, 90942, Note_on_c, 1, 64, 0
1, 90944, Note_on_c, 1, 65, 75
1, 90974, Note_on_c, 1, 65, 0
1, 90976, Note_on_c, 1, 66, 75
1, 91006, Note_on_c, 1, 66, 0
1, 91008, Note_on_c, 1, 67, 75
1, 91040, Note_on_c, 0, 69, 75
1, 91070, Note_on_c, 0, 69, 0
1, 91072, Note_on_c, 0, 70, 75
1, 91097, Note_on_c, 1, 67, 0
1, 91102, Note_on_c, 0, 70, 0
1, 91104, Note_on_c, 0, 71, 75
1, 91134, Note_on_c, 0, 71, 0
1, 91136, Note_on_c, 0, 72, 75
1, 91166, Note_on_c, 0, 72, 0
1, 91168, Note_on_c, 0, 74, 75
1, 91198, Note_on_c, 0, 74, 0
1, 91200, Note_on_c, 0, 75, 75
1, 91232, Note_on_c, 1, 60, 75
1, 91262, Note_on_c, 1, 60, 0
1, 91264, Note_on_c, 1, 62, 75
1, 91289, Note_on_c, 0, 75, 0
1, 91294, Note_on_c, 1, 62, 0
1, 91296, Note_on_c, 1, 63, 75
1, 91326, Note_on_c, 1, 63, 0
1, 91328, Note_on_c, 1, 65, 75
1, 91358, Note_on_c, 1, 65, 0
1, 91360, Note_on_c, 1, 67, 75
1, 91390, Note_on_c, 1, 67, 0
1, 91392, Note_on_c, 1, 69, 75
1, 91424, Note_on_c, 0, 72, 75
1, 91454, Note_on_c, 0, 72, 0
1, 91456, Note_on_c, 0, 73, 75
1, 91481, Note_on_c, 1, 69, 0
1, 91486, Note_on_c, 0, 73, 0
1, 91488, Note_on_c, 0, 74, 75
1, 91518, Note_on_c, 0, 74, 0
1, 91520, Note_on_c, 0, 75, 75
1, 91550, Note_on_c, 0, 75, 0
1, 91552, Note_on_c, 0, 76, 75
1, 91582, Note_on_c, 0, 76, 0
1, 91584, Note_on_c, 0, 77, 75
1, 91616, Note_on_c, 1, 65, 75
1, 91646, Note_on_c, 1, 65, 0
1, 91648, Note_on_c, 1, 66, 75
1, 91673, Note_on_c, 0, 77, 0
1, 91678, Note_on_c, 1, 66, 0
1, 91680, Note_on_c, 1, 67, 75
1, 91710, Note_on_c, 1, 67, 0
1, 91712, Note_on_c, 1, 68, 75
1, 91742, Note_on_c, 1, 68, 0
1, 91744, Note_on_c, 1, 69, 75
1, 91774, Note_on_c, 1, 69, 0
1, 91776, Note_on_c, 1, 70, 75
1, 91808, Note_on_c, 0, 77, 75
1, 91838, Note_on_c, 0, 77, 0
1, 91840, Note_on_c, 0, 78, 75
1, 91865, Note_on_c, 1, 70, 0
1, 91870, Note_on_c, 0, 78, 0
1, 91872, Note_on_c, 0, 79, 75
1, 91902, Note_on_c, 0, 79, 0
1, 91904, Note_on_c, 0, 80, 75
1, 91934, Note_on_c, 0, 80, 0
1, 91936, Note_on_c, 0, 81, 75
1, 91966, Note_on_c, 0, 81, 0
1, 91968, Note_on_c, 0, 82, 75
1, 91998, Note_on_c, 0, 82, 0
1, 92000, Note_on_c, 0, 81, 75
1, 92030, Note_on_c, 0, 81, 0
1, 92032, Note_on_c, 0, 82, 75
1, 92062, Note_on_c, 0, 82, 0
1, 92064, Note_on_c, 0, 86, 75
1, 92064, Note_on_c, 1, 62, 75
1, 92094, Note_on_c, 0, 86, 0
1, 92096, Note_on_c, 0, 82, 75
1, 92126, Note_on_c, 0, 82, 0
1, 92128, Note_on_c, 0, 77, 75
1, 92153, Note_on_c, 1, 62, 0
1, 92158, Note_on_c, 0, 77, 0
1, 92160, Note_on_c, 0, 78, 75
1, 92160, Note_on_c, 1, 63, 75
1, 92190, Note_on_c, 0, 78, 0
1, 92192, Note_on_c, 0, 79, 75
1, 92222, Note_on_c, 0, 79, 0
1, 92224, Note_on_c, 0, 82, 76
1, 92254, Note_on_c, 0, 82, 0
1, 92256, Note_on_c, 0, 74, 76
1, 92286, Note_on_c, 0, 74, 0
1, 92288, Note_on_c, 0, 75, 77
1, 92318, Note_on_c, 0, 75, 0
1, 92320, Note_on_c, 0, 79, 77
1, 92350, Note_on_c, 0, 79, 0
1, 92352, Note_on_c, 0, 71, 78
1, 92382, Note_on_c, 0, 71, 0
1, 92384, Note_on_c, 0, 72, 78
1, 92414, Note_on_c, 0, 72, 0
1, 92416, Note_on_c, 0, 75, 79
1, 92425, Note_on_c, 1, 63, 0
1, 92446, Note_on_c, 0, 75, 0
1, 92448, Note_on_c, 0, 67, 79
1, 92448, Note_on_c, 1, 64, 80
1, 92478, Note_on_c, 0, 67, 0
1, 92480, Note_on_c, 0, 72, 80
1, 92510, Note_on_c, 0, 72, 0
1, 92512, Note_on_c, 0, 70, 81
1, 92537, Note_on_c, 1, 64, 0
1, 92542, Note_on_c, 0, 70, 0
1, 92544, Note_on_c, 0, 69, 82
1, 92544, Note_on_c, 1, 65, 82
1, 92574, Note_on_c, 0, 69, 0
1, 92576, Note_on_c, 0, 72, 82
1, 92606, Note_on_c, 0, 72, 0
1, 92608, Note_on_c, 0, 70, 82
1, 92633, Note_on_c, 1, 65, 0
1, 92638, Note_on_c, 0, 70, 0
1, 92640, Note_on_c, 0, 74, 82
1, 92670, Note_on_c, 0, 74, 0
1, 92672, Note_on_c, 0, 72, 82
1, 92702, Note_on_c, 0, 72, 0
1, 92704, Note_on_c, 0, 75, 82
1, 92734, Note_on_c, 0, 75, 0
1, 92736, Note_on_c, 0, 74, 82
1, 92766, Note_on_c, 0, 74, 0
1, 92768, Note_on_c, 0, 77, 82
1, 92798, Note_on_c, 0, 77, 0
1, 92800, Note_on_c, 0, 75, 82
1, 92830, Note_on_c, 0, 75, 0
1, 92832, Note_on_c, 0, 79, 82
1, 92862, Note_on_c, 0, 79, 0
1, 92864, Note_on_c, 0, 77, 82
1, 92894, Note_on_c, 0, 77, 0
1, 92896, Note_on_c, 0, 75, 82
1, 92926, Note_on_c, 0, 75, 0
1, 92928, Note_on_c, 0, 74, 82
1, 92928, Note_on_c, 1, 53, 82
1, 92928, Note_on_c, 1, 57, 82
1, 92928, Note_on_c, 1, 60, 82
1, 92928, Note_on_c, 1, 63, 82
1, 92958, Note_on_c, 0, 74, 0
1, 92960, Note_on_c, 0, 72, 82
1, 92990, Note_on_c, 0, 72, 0
1, 92992, Note_on_c, 0, 70, 82
1, 93017, Note_on_c, 1, 63, 0
1, 93017, Note_on_c, 1, 60, 0
1, 93017, Note_on_c, 1, 57, 0
1, 93017, Note_on_c, 1, 53, 0
1, 93022, Note_on_c, 0, 70, 0
1, 93024, Note_on_c, 0, 69, 82
1, 93054, Note_on_c, 0, 69, 0
1, 93056, Note_on_c, 0, 72, 82
1, 93086, Note_on_c, 0, 72, 0
1, 93088, Note_on_c, 0, 70, 82
1, 93118, Note_on_c, 0, 70, 0
1, 93120, Note_on_c, 0, 74, 82
1, 93150, Note_on_c, 0, 74, 0
1, 93152, Note_on_c, 0, 72, 82
1, 93182, Note_on_c, 0, 72, 0
1, 93184, Note_on_c, 0, 75, 82
1, 93214, Note_on_c, 0, 75, 0
1, 93216, Note_on_c, 0, 74, 82
1, 93246, Note_on_c, 0, 74, 0
1, 93248, Note_on_c, 0, 77, 82
1, 93278, Note_on_c, 0, 77, 0
1, 93280, Note_on_c, 0, 75, 82
1, 93310, Note_on_c, 0, 75, 0
1, 93312, Note_on_c, 0, 79, 115
1, 93312, Note_on_c, 1, 63, 82
1, 93312, Note_on_c, 1, 60, 82
1, 93312, Note_on_c, 1, 57, 82
1, 93312, Note_on_c, 1, 53, 82
1, 93342, Note_on_c, 0, 79, 0
1, 93344, Note_on_c, 0, 77, 82
1, 93374, Note_on_c, 0, 77, 0
1, 93376, Note_on_c, 0, 75, 82
1, 93401, Note_on_c, 1, 63, 0
1, 93401, Note_on_c, 1, 60, 0
1, 93401, Note_on_c, 1, 57, 0
1, 93401, Note_on_c, 1, 53, 0
1, 93406, Note_on_c, 0, 75, 0
1, 93408, Note_on_c, 0, 74, 82
1, 93438, Note_on_c, 0, 74, 0
1, 93440, Note_on_c, 0, 72, 82
1, 93470, Note_on_c, 0, 72, 0
1, 93472, Note_on_c, 0, 70, 82
1, 93502, Note_on_c, 0, 70, 0
1, 93504, Note_on_c, 0, 69, 82
1, 93534, Note_on_c, 0, 69, 0
1, 93536, Note_on_c, 0, 72, 82
1, 93566, Note_on_c, 0, 72, 0
1, 93568, Note_on_c, 0, 70, 82
1, 93598, Note_on_c, 0, 70, 0
1, 93600, Note_on_c, 0, 74, 82
1, 93630, Note_on_c, 0, 74, 0
1, 93632, Note_on_c, 0, 72, 82
1, 93662, Note_on_c, 0, 72, 0
1, 93664, Note_on_c, 0, 75, 82
1, 93694, Note_on_c, 0, 75, 0
1, 93696, Note_on_c, 0, 74, 82
1, 93696, Note_on_c, 1, 53, 82
1, 93708, Note_on_c, 1, 57, 82
1, 93720, Note_on_c, 1, 60, 82
1, 93726, Note_on_c, 0, 74, 0
1, 93728, Note_on_c, 0, 77, 82
1, 93732, Note_on_c, 1, 63, 82
1, 93758, Note_on_c, 0, 77, 0
1, 93760, Note_on_c, 0, 75, 82
1, 93790, Note_on_c, 0, 75, 0
1, 93792, Note_on_c, 0, 79, 82
1, 93822, Note_on_c, 0, 79, 0
1, 93824, Note_on_c, 0, 77, 82
1, 93854, Note_on_c, 0, 77, 0
1, 93856, Note_on_c, 0, 81, 82
1, 93886, Note_on_c, 0, 81, 0
1, 93888, Note_on_c, 0, 79, 82
1, 93918, Note_on_c, 0, 79, 0
1, 93920, Note_on_c, 0, 82, 82
1, 93950, Note_on_c, 0, 82, 0
1, 93952, Note_on_c, 0, 81, 82
1, 93982, Note_on_c, 0, 81, 0
1, 93984, Note_on_c, 0, 84, 82
1, 94014, Note_on_c, 0, 84, 0
1, 94016, Note_on_c, 0, 82, 82
1, 94046, Note_on_c, 0, 82, 0
1, 94048, Note_on_c, 0, 86, 82
1, 94078, Note_on_c, 0, 86, 0
1, 94080, Note_on_c, 0, 84, 82
1, 94110, Note_on_c, 0, 84, 0
1, 94112, Note_on_c, 0, 87, 82
1, 94142, Note_on_c, 0, 87, 0
1, 94144, Note_on_c, 0, 86, 82
1, 94174, Note_on_c, 0, 86, 0
1, 94176, Note_on_c, 0, 89, 82
1, 94221, Note_on_c, 0, 89, 0
1, 94224, Note_on_c, 0, 87, 82
1, 94269, Note_on_c, 0, 87, 0
1, 94272, Tempo, 428571
1, 94272, Note_on_c, 0, 86, 82
1, 94317, Note_on_c, 0, 86, 0
1, 94320, Tempo, 444444
1, 94320, Note_on_c, 0, 84, 82
1, 94365, Note_on_c, 0, 84, 0
1, 94368, Tempo, 461538
1, 94368, Note_on_c, 0, 82, 82
1, 94413, Note_on_c, 0, 82, 0
1, 94416, Tempo, 480000
1, 94416, Note_on_c, 0, 81, 82
1, 94461, Note_on_c, 0, 81, 0
1, 94464, Tempo, 500000
1, 94464, Note_on_c, 0, 80, 82
1, 94509, Note_on_c, 0, 80, 0
1, 94512, Tempo, 521739
1, 94512, Note_on_c, 0, 79, 82
1, 94557, Note_on_c, 0, 79, 0
1, 94560, Tempo, 545454
1, 94560, Note_on_c, 0, 78, 82
1, 94605, Note_on_c, 0, 78, 0
1, 94608, Tempo, 571428
1, 94608, Note_on_c, 0, 77, 82
1, 94653, Note_on_c, 0, 77, 0
1, 94656, Tempo, 1200000
1, 94656, Note_on_c, 0, 76, 82
1, 94745, Note_on_c, 0, 76, 0
1, 94752, Tempo, 2400000
1, 94752, Note_on_c, 0, 75, 82
1, 94841, Note_on_c, 0, 75, 0
1, 94841, Note_on_c, 1, 63, 0
1, 94841, Note_on_c, 1, 60, 0
1, 94841, Note_on_c, 1, 57, 0
1, 94841, Note_on_c, 1, 53, 0
1, 94848, Tempo, 413793
1, 94848, Note_on_c, 0, 74, 82
1, 94848, Note_on_c, 1, 58, 82
1, 94848, Note_on_c, 1, 53, 82
1, 94848, Note_on_c, 1, 50, 82
1, 94848, Note_on_c, 1, 46, 82
1, 94866, Note_on_c, 0, 74, 0
1, 94866, Note_on_c, 0, 77, 82
1, 94884, Note_on_c, 0, 77, 0
1, 94884, Note_on_c, 0, 82, 82
1, 95011, Note_on_c, 0, 82, 0
1, 95016, Note_on_c, 0, 81, 80
1, 95025, Note_on_c, 1, 58, 0
1, 95025, Note_on_c, 1, 53, 0
1, 95025, Note_on_c, 1, 50, 0
1, 95025, Note_on_c, 1, 46, 0
1, 95040, Note_on_c, 0, 81, 0
1, 95040, Note_on_c, 0, 79, 80
1, 95060, Note_on_c, 0, 79, 0
1, 95112, Note_on_c, 0, 77, 79
1, 95136, Note_on_c, 0, 77, 0
1, 95136, Note_on_c, 0, 75, 78
1, 95156, Note_on_c, 0, 75, 0
1, 95208, Note_on_c, 0, 74, 77
1, 95231, Note_on_c, 0, 74, 0
1, 95232, Note_on_c, 0, 72, 77
1, 95328, Note_on_c, 1, 70, 75
1, 95328, Note_on_c, 1, 66, 75
1, 95365, Note_on_c, 0, 72, 0
1, 95376, Note_on_c, 0, 72, 75
1, 95399, Note_on_c, 0, 72, 0
1, 95400, Note_on_c, 0, 74, 75
1, 95423, Note_on_c, 0, 74, 0
1, 95424, Note_on_c, 0, 75, 76
1, 95424, Note_on_c, 1, 70, 0
1, 95424, Note_on_c, 1, 66, 0
1, 95424, Note_on_c, 1, 69, 70
1, 95424, Note_on_c, 1, 65, 70
1, 95491, Note_on_c, 0, 75, 0
1, 95496, Note_on_c, 0, 74, 78
1, 95508, Note_on_c, 0, 74, 0
1, 95508, Note_on_c, 0, 75, 78
1, 95513, Note_on_c, 1, 69, 0
1, 95513, Note_on_c, 1, 65, 0
1, 95520, Note_on_c, 0, 75, 0
1, 95520, Note_on_c, 0, 77, 79
1, 95587, Note_on_c, 0, 77, 0
1, 95592, Note_on_c, 0, 75, 81
1, 95604, Note_on_c, 0, 75, 0
1, 95604, Note_on_c, 0, 77, 81
1, 95616, Note_on_c, 0, 77, 0
1, 95616, Note_on_c, 0, 79, 82
1, 95757, Note_on_c, 0, 79, 0
1, 95784, Note_on_c, 0, 77, 82
1, 95808, Note_on_c, 0, 77, 0
1, 95808, Note_on_c, 0, 75, 82
1, 95828, Note_on_c, 0, 75, 0
1, 95880, Note_on_c, 0, 74, 82
1, 95904, Note_on_c, 0, 74, 0
1, 95904, Note_on_c, 0, 72, 82
1, 95924, Note_on_c, 0, 72, 0
1, 95976, Note_on_c, 0, 70, 82
1, 95999, Note_on_c, 0, 70, 0
1, 96000, Note_on_c, 0, 69, 82
1, 96039, Note_on_c, 0, 69, 0
1, 96096, Note_on_c, 0, 75, 115
1, 96096, Note_on_c, 1, 60, 66
1, 96096, Note_on_c, 1, 54, 64
1, 96192, Note_on_c, 1, 54, 0
1, 96192, Note_on_c, 1, 55, 64
1, 96288, Note_on_c, 0, 75, 0
1, 96288, Note_on_c, 0, 74, 82
1, 96288, Note_on_c, 1, 60, 0
1, 96288, Note_on_c, 1, 58, 66
1, 96369, Note_on_c, 1, 55, 0
1, 96377, Note_on_c, 0, 74, 0
1, 96377, Note_on_c, 1, 58, 0
1, 96384, Note_on_c, 0, 72, 82
1, 96423, Note_on_c, 0, 72, 0
1, 96480, Note_on_c, 0, 79, 115
1, 96480, Note_on_c, 1, 69, 64
1, 96480, Note_on_c, 1, 63, 64
1, 96576, Note_on_c, 1, 69, 0
1, 96576, Note_on_c, 1, 63, 0
1, 96576, Note_on_c, 1, 70, 64
1, 96576, Note_on_c, 1, 62, 64
1, 96672, Note_on_c, 0, 79, 0
1, 96672, Note_on_c, 0, 77, 82
1, 96753, Note_on_c, 1, 70, 0
1, 96753, Note_on_c, 1, 62, 0
1, 96761, Note_on_c, 0, 77, 0
1, 96768, Note_on_c, 0, 87, 98
1, 96768, Note_on_c, 1, 65, 82
1, 96768, Note_on_c, 1, 63, 82
1, 96768, Note_on_c, 1, 60, 82
1, 96768, Note_on_c, 1, 57, 82
1, 96792, Note_on_c, 0, 87, 0
1, 96792, Note_on_c, 0, 89, 82
1, 96815, Note_on_c, 0, 89, 0
1, 96816, Note_on_c, 0, 87, 82
1, 96839, Note_on_c, 0, 87, 0
1, 96840, Note_on_c, 0, 86, 82
1, 96863, Note_on_c, 0, 86, 0
1, 96864, Note_on_c, 0, 84, 82
1, 96887, Note_on_c, 0, 84, 0
1, 96888, Note_on_c, 0, 86, 82
1, 96911, Note_on_c, 0, 86, 0
1, 96912, Note_on_c, 0, 84, 82
1, 96935, Note_on_c, 0, 84, 0
1, 96936, Note_on_c, 0, 82, 82
1, 96959, Note_on_c, 0, 82, 0
1, 96960, Note_on_c, 0, 81, 82
1, 96983, Note_on_c, 0, 81, 0
1, 96984, Note_on_c, 0, 82, 82
1, 97007, Note_on_c, 0, 82, 0
1, 97008, Note_on_c, 0, 81, 82
1, 97031, Note_on_c, 0, 81, 0
1, 97032, Note_on_c, 0, 79, 82
1, 97055, Note_on_c, 0, 79, 0
1, 97056, Note_on_c, 0, 77, 82
1, 97079, Note_on_c, 0, 77, 0
1, 97080, Note_on_c, 0, 79, 82
1, 97103, Note_on_c, 0, 79, 0
1, 97104, Note_on_c, 0, 77, 82
1, 97122, Note_on_c, 1, 65, 0
1, 97122, Note_on_c, 1, 63, 0
1, 97122, Note_on_c, 1, 60, 0
1, 97122, Note_on_c, 1, 57, 0
1, 97127, Note_on_c, 0, 77, 0
1, 97128, Note_on_c, 0, 75, 82
1, 97151, Note_on_c, 0, 75, 0
1, 97152, Note_on_c, 0, 74, 82
1, 97152, Note_on_c, 1, 58, 75
1, 97219, Note_on_c, 0, 74, 0
1, 97224, Note_on_c, 0, 77, 80
1, 97241, Note_on_c, 1, 58, 0
1, 97247, Note_on_c, 0, 77, 0
1, 97248, Note_on_c, 0, 75, 80
1, 97248, Note_on_c, 1, 67, 75
1, 97315, Note_on_c, 0, 75, 0
1, 97320, Note_on_c, 0, 72, 78
1, 97337, Note_on_c, 1, 67, 0
1, 97343, Note_on_c, 0, 72, 0
1, 97344, Note_on_c, 0, 74, 78
1, 97344, Note_on_c, 1, 65, 75
1, 97411, Note_on_c, 0, 74, 0
1, 97416, Note_on_c, 0, 70, 77
1, 97433, Note_on_c, 1, 65, 0
1, 97439, Note_on_c, 0, 70, 0
1, 97440, Note_on_c, 0, 72, 76
1, 97440, Note_on_c, 1, 63, 75
1, 97440, Note_on_c, 1, 53, 75
1, 97507, Note_on_c, 0, 72, 0
1, 97512, Note_on_c, 0, 69, 75
1, 97529, Note_on_c, 1, 63, 0
1, 97529, Note_on_c, 1, 53, 0
1, 97535, Note_on_c, 0, 69, 0
1, 97536, Note_on_c, 0, 70, 75
1, 97536, Note_on_c, 1, 62, 75
1, 97536, Note_on_c, 1, 58, 75
1, 97669, Note_on_c, 0, 70, 0
1, 97669, Note_on_c, 1, 62, 0
1, 97669, Note_on_c, 1, 58, 0
1, 97800, Note_on_c, 0, 58, 75
1, 97823, Note_on_c, 0, 58, 0
1, 97824, Note_on_c, 0, 60, 75
1, 97830, Note_on_c, 0, 60, 0
1, 97830, Note_on_c, 0, 58, 75
1, 97847, Note_on_c, 0, 58, 0
1, 97848, Note_on_c, 0, 57, 75
1, 97871, Note_on_c, 0, 57, 0
1, 97872, Note_on_c, 0, 58, 75
1, 97895, Note_on_c, 0, 58, 0
1, 97896, Note_on_c, 0, 60, 75
1, 97919, Note_on_c, 0, 60, 0
1, 97920, Note_on_c, 0, 62, 75
1, 97920, Note_on_c, 1, 46, 64
1, 97920, Note_on_c, 1, 34, 64
1, 97987, Note_on_c, 0, 62, 0
1, 97992, Note_on_c, 0, 58, 75
1, 98015, Note_on_c, 0, 58, 0
1, 98016, Note_on_c, 0, 63, 75
1, 98083, Note_on_c, 0, 63, 0
1, 98088, Note_on_c, 0, 60, 77
1, 98097, Note_on_c, 1, 46, 0
1, 98097, Note_on_c, 1, 34, 0
1, 98111, Note_on_c, 0, 60, 0
1, 98112, Note_on_c, 0, 65, 77
1, 98179, Note_on_c, 0, 65, 0
1, 98184, Note_on_c, 0, 62, 79
1, 98207, Note_on_c, 0, 62, 0
1, 98208, Note_on_c, 0, 70, 79
1, 98237, Note_on_c, 0, 70, 0
1, 98280, Note_on_c, 0, 70, 81
1, 98280, Note_on_c, 0, 62, 81
1, 98303, Note_on_c, 0, 70, 0
1, 98303, Note_on_c, 0, 62, 0
1, 98304, Note_on_c, 0, 70, 98
1, 98304, Note_on_c, 0, 62, 98
1, 98376, Note_on_c, 1, 52, 64
1, 98399, Note_on_c, 1, 52, 0
1, 98400, Note_on_c, 1, 53, 64
1, 98467, Note_on_c, 1, 53, 0
1, 98472, Note_on_c, 1, 52, 64
1, 98495, Note_on_c, 1, 52, 0
1, 98496, Note_on_c, 0, 70, 0
1, 98496, Note_on_c, 0, 62, 0
1, 98496, Note_on_c, 0, 69, 76
1, 98496, Note_on_c, 0, 60, 76
1, 98496, Note_on_c, 1, 53, 64
1, 98541, Note_on_c, 0, 69, 0
1, 98541, Note_on_c, 0, 60, 0
1, 98568, Note_on_c, 0, 65, 75
1, 98585, Note_on_c, 1, 53, 0
1, 98591, Note_on_c, 0, 65, 0
1, 98592, Note_on_c, 0, 67, 75
1, 98598, Note_on_c, 0, 67, 0
1, 98598, Note_on_c, 0, 65, 75
1, 98615, Note_on_c, 0, 65, 0
1, 98616, Note_on_c, 0, 64, 75
1, 98639, Note_on_c, 0, 64, 0
1, 98640, Note_on_c, 0, 65, 75
1, 98663, Note_on_c, 0, 65, 0
1, 98664, Note_on_c, 0, 67, 75
1, 98687, Note_on_c, 0, 67, 0
1, 98688, Note_on_c, 0, 69, 75
1, 98688, Note_on_c, 1, 53, 75
1, 98688, Note_on_c, 1, 41, 75
1, 98755, Note_on_c, 0, 69, 0
1, 98760, Note_on_c, 0, 65, 76
1, 98783, Note_on_c, 0, 65, 0
1, 98784, Note_on_c, 0, 70, 76
1, 98851, Note_on_c, 0, 70, 0
1, 98856, Note_on_c, 0, 67, 78
1, 98865, Note_on_c, 1, 53, 0
1, 98865, Note_on_c, 1, 41, 0
1, 98879, Note_on_c, 0, 67, 0
1, 98880, Note_on_c, 0, 72, 78
1, 98947, Note_on_c, 0, 72, 0
1, 98952, Note_on_c, 0, 69, 80
1, 98975, Note_on_c, 0, 69, 0
1, 98976, Note_on_c, 0, 75, 80
1, 99005, Note_on_c, 0, 75, 0
1, 99048, Note_on_c, 0, 75, 82
1, 99048, Note_on_c, 0, 72, 82
1, 99071, Note_on_c, 0, 75, 0
1, 99071, Note_on_c, 0, 72, 0
1, 99072, Note_on_c, 0, 75, 98
1, 99072, Note_on_c, 0, 72, 98
1, 99144, Note_on_c, 1, 57, 82
1, 99167, Note_on_c, 1, 57, 0
1, 99168, Note_on_c, 1, 58, 82
1, 99235, Note_on_c, 1, 58, 0
1, 99240, Note_on_c, 1, 57, 82
1, 99263, Note_on_c, 1, 57, 0
1, 99264, Note_on_c, 0, 75, 0
1, 99264, Note_on_c, 0, 72, 0
1, 99264, Note_on_c, 0, 74, 76
1, 99264, Note_on_c, 0, 70, 76
1, 99264, Note_on_c, 1, 58, 82
1, 99309, Note_on_c, 0, 74, 0
1, 99309, Note_on_c, 0, 70, 0
1, 99336, Note_on_c, 0, 74, 75
1, 99353, Note_on_c, 1, 58, 0
1, 99359, Note_on_c, 0, 74, 0
1, 99360, Note_on_c, 0, 75, 75
1, 99366, Note_on_c, 0, 75, 0
1, 99366, Note_on_c, 0, 74, 75
1, 99383, Note_on_c, 0, 74, 0
1, 99384, Note_on_c, 0, 72, 75
1, 99407, Note_on_c, 0, 72, 0
1, 99408, Note_on_c, 0, 74, 75
1, 99431, Note_on_c, 0, 74, 0
1, 99432, Note_on_c, 0, 75, 75
1, 99455, Note_on_c, 0, 75, 0
1, 99456, Note_on_c, 0, 77, 75
1, 99456, Note_on_c, 1, 58, 75
1, 99456, Note_on_c, 1, 53, 75
1, 99456, Note_on_c, 1, 50, 75
1, 99456, Note_on_c, 1, 46, 75
1, 99523, Note_on_c, 0, 77, 0
1, 99528, Note_on_c, 0, 74, 76
1, 99551, Note_on_c, 0, 74, 0
1, 99552, Note_on_c, 0, 82, 77
1, 99619, Note_on_c, 0, 82, 0
1, 99624, Note_on_c, 0, 77, 79
1, 99633, Note_on_c, 1, 58, 0
1, 99633, Note_on_c, 1, 53, 0
1, 99633, Note_on_c, 1, 50, 0
1, 99633, Note_on_c, 1, 46, 0
1, 99647, Note_on_c, 0, 77, 0
1, 99648, Note_on_c, 0, 86, 80
1, 99715, Note_on_c, 0, 86, 0
1, 99720, Note_on_c, 0, 84, 82
1, 99744, Note_on_c, 0, 84, 0
1, 99744, Note_on_c, 0, 82, 81
1, 99744, Note_on_c, 1, 62, 75
1, 99744, Note_on_c, 1, 58, 64
1, 99764, Note_on_c, 0, 82, 0
1, 99816, Note_on_c, 0, 81, 80
1, 99833, Note_on_c, 1, 62, 0
1, 99840, Note_on_c, 0, 81, 0
1, 99840, Note_on_c, 0, 79, 79
1, 99840, Note_on_c, 1, 63, 75
1, 99860, Note_on_c, 0, 79, 0
1, 99912, Note_on_c, 0, 77, 78
1, 99929, Note_on_c, 1, 63, 0
1, 99936, Note_on_c, 0, 77, 0
1, 99936, Note_on_c, 0, 75, 77
1, 99936, Note_on_c, 1, 65, 75
1, 99956, Note_on_c, 0, 75, 0
1, 100008, Note_on_c, 0, 74, 76
1, 100025, Note_on_c, 1, 65, 0
1, 100032, Note_on_c, 0, 74, 0
1, 100032, Note_on_c, 0, 72, 75
1, 100032, Note_on_c, 1, 67, 75
1, 100052, Note_on_c, 0, 72, 0
1, 100104, Note_on_c, 0, 79, 75
1, 100121, Note_on_c, 1, 67, 0
1, 100128, Note_on_c, 0, 79, 0
1, 100128, Note_on_c, 0, 77, 75
1, 100128, Note_on_c, 1, 69, 75
1, 100148, Note_on_c, 0, 77, 0
1, 100200, Note_on_c, 0, 75, 75
1, 100217, Note_on_c, 1, 69, 0
1, 100224, Note_on_c, 0, 75, 0
1, 100224, Note_on_c, 0, 74, 75
1, 100224, Note_on_c, 1, 70, 75
1, 100244, Note_on_c, 0, 74, 0
1, 100296, Note_on_c, 0, 77, 77
1, 100313, Note_on_c, 1, 70, 0
1, 100313, Note_on_c, 1, 58, 0
1, 100320, Note_on_c, 0, 77, 0
1, 100320, Note_on_c, 0, 82, 77
1, 100340, Note_on_c, 0, 82, 0
1, 100392, Note_on_c, 0, 77, 79
1, 100416, Note_on_c, 0, 77, 0
1, 100416, Note_on_c, 0, 86, 80
1, 100436, Note_on_c, 0, 86, 0
1, 100488, Note_on_c, 0, 84, 82
1, 100512, Note_on_c, 0, 84, 0
1, 100512, Note_on_c, 0, 82, 81
1, 100512, Note_on_c, 1, 62, 75
1, 100512, Note_on_c, 1, 58, 64
1, 100532, Note_on_c, 0, 82, 0
1, 100584, Note_on_c, 0, 81, 78
1, 100601, Note_on_c, 1, 62, 0
1, 100608, Note_on_c, 0, 81, 0
1, 100608, Note_on_c, 0, 79, 78
1, 100608, Note_on_c, 1, 63, 75
1, 100628, Note_on_c, 0, 79, 0
1, 100680, Note_on_c, 0, 77, 75
1, 100697, Note_on_c, 1, 63, 0
1, 100704, Note_on_c, 0, 77, 0
1, 100704, Note_on_c, 0, 75, 75
1, 100704, Note_on_c, 1, 65, 73
1, 100724, Note_on_c, 0, 75, 0
1, 100776, Note_on_c, 0, 74, 72
1, 100793, Note_on_c, 1, 65, 0
1, 100800, Note_on_c, 0, 74, 0
1, 100800, Note_on_c, 0, 72, 72
1, 100800, Note_on_c, 1, 67, 71
1, 100820, Note_on_c, 0, 72, 0
1, 100872, Note_on_c, 0, 79, 69
1, 100889, Note_on_c, 1, 67, 0
1, 100896, Note_on_c, 0, 79, 0
1, 100896, Note_on_c, 0, 77, 69
1, 100896, Note_on_c, 1, 69, 69
1, 100916, Note_on_c, 0, 77, 0
1, 100962, Note_on_c, 1, 58, 0
1, 100968, Note_on_c, 0, 75, 66
1, 100985, Note_on_c, 1, 69, 0
1, 100992, Note_on_c, 0, 75, 0
1, 100992, Note_on_c, 0, 74, 66
1, 100992, Note_on_c, 1, 70, 67
1, 100992, Note_on_c, 1, 58, 67
1, 101012, Note_on_c, 0, 74, 0
1, 101037, Note_on_c, 1, 70, 0
1, 101037, Note_on_c, 1, 58, 0
1, 101064, Note_on_c, 0, 79, 66
1, 101088, Note_on_c, 0, 79, 0
1, 101088, Note_on_c, 0, 77, 66
1, 101088, Note_on_c, 1, 69, 66
1, 101088, Note_on_c, 1, 58, 66
1, 101108, Note_on_c, 0, 77, 0
1, 101133, Note_on_c, 1, 69, 0
1, 101133, Note_on_c, 1, 58, 0
1, 101160, Note_on_c, 0, 75, 66
1, 101184, Note_on_c, 0, 75, 0
1, 101184, Note_on_c, 0, 74, 66
1, 101184, Note_on_c, 1, 70, 66
1, 101184, Note_on_c, 1, 58, 66
1, 101204, Note_on_c, 0, 74, 0
1, 101229, Note_on_c, 1, 70, 0
1, 101229, Note_on_c, 1, 58, 0
1, 101256, Note_on_c, 0, 79, 66
1, 101280, Note_on_c, 0, 79, 0
1, 101280, Note_on_c, 0, 77, 66
1, 101280, Note_on_c, 1, 69, 66
1, 101280, Note_on_c, 1, 58, 66
1, 101300, Note_on_c, 0, 77, 0
1, 101325, Note_on_c, 1, 69, 0
1, 101325, Note_on_c, 1, 58, 0
1, 101352, Note_on_c, 0, 75, 66
1, 101376, Note_on_c, 0, 75, 0
1, 101376, Note_on_c, 0, 74, 66
1, 101376, Note_on_c, 1, 70, 66
1, 101376, Note_on_c, 1, 58, 66
1, 101396, Note_on_c, 0, 74, 0
1, 101421, Note_on_c, 1, 70, 0
1, 101421, Note_on_c, 1, 58, 0
1, 101448, Note_on_c, 0, 84, 56
1, 101472, Note_on_c, 0, 84, 0
1, 101472, Note_on_c, 0, 82, 57
1, 101492, Note_on_c, 0, 82, 0
1, 101544, Note_on_c, 0, 81, 61
1, 101568, Note_on_c, 0, 81, 0
1, 101568, Note_on_c, 0, 79, 62
1, 101588, Note_on_c, 0, 79, 0
1, 101640, Note_on_c, 0, 77, 66
1, 101664, Note_on_c, 0, 77, 0
1, 101664, Note_on_c, 0, 75, 67
1, 101664, Note_on_c, 1, 53, 66
1, 101664, Note_on_c, 1, 50, 66
1, 101684, Note_on_c, 0, 75, 0
1, 101736, Note_on_c, 0, 74, 71
1, 101753, Note_on_c, 1, 53, 0
1, 101753, Note_on_c, 1, 50, 0
1, 101760, Note_on_c, 0, 74, 0
1, 101760, Note_on_c, 0, 72, 72
1, 101760, Note_on_c, 1, 55, 66
1, 101760, Note_on_c, 1, 51, 66
1, 101780, Note_on_c, 0, 72, 0
1, 101808, Note_on_c, 0, 78, 75
1, 101849, Note_on_c, 1, 55, 0
1, 101849, Note_on_c, 1, 51, 0
1, 101853, Note_on_c, 0, 78, 0
1, 101856, Note_on_c, 0, 81, 108
1, 101901, Note_on_c, 0, 81, 0
1, 101904, Note_on_c, 0, 79, 75
1, 101949, Note_on_c, 0, 79, 0
1, 101952, Note_on_c, 0, 77, 75
1, 101997, Note_on_c, 0, 77, 0
1, 102000, Note_on_c, 0, 75, 72
1, 102045, Note_on_c, 0, 75, 0
1, 102048, Note_on_c, 0, 74, 70
1, 102093, Note_on_c, 0, 74, 0
1, 102096, Note_on_c, 0, 72, 68
1, 102096, Note_on_c, 1, 60, 68
1, 102096, Note_on_c, 1, 52, 68
1, 102141, Note_on_c, 0, 72, 0
1, 102141, Note_on_c, 1, 60, 0
1, 102141, Note_on_c, 1, 52, 0
1, 102144, Note_on_c, 0, 70, 66
1, 102144, Note_on_c, 1, 62, 66
1, 102144, Note_on_c, 1, 53, 66
1, 102336, Note_on_c, 0, 70, 0
1, 102336, Note_on_c, 0, 69, 58
1, 102336, Note_on_c, 1, 62, 0
1, 102336, Note_on_c, 1, 60, 58
1, 102381, Note_on_c, 0, 69, 0
1, 102381, Note_on_c, 1, 60, 0
1, 102381, Note_on_c, 1, 53, 0
1, 102504, Note_on_c, 0, 62, 82
1, 102516, Note_on_c, 0, 62, 0
1, 102516, Note_on_c, 0, 65, 82
1, 102528, Note_on_c, 0, 65, 0
1, 102528, Note_on_c, 0, 70, 82
1, 102624, Note_on_c, 1, 58, 82
1, 102624, Note_on_c, 1, 53, 82
1, 102624, Note_on_c, 1, 50, 82
1, 102624, Note_on_c, 1, 46, 82
1, 102683, Note_on_c, 0, 70, 0
1, 102696, Note_on_c, 0, 65, 82
1, 102708, Note_on_c, 0, 65, 0
1, 102708, Note_on_c, 0, 69, 82
1, 102713, Note_on_c, 1, 58, 0
1, 102713, Note_on_c, 1, 53, 0
1, 102713, Note_on_c, 1, 50, 0
1, 102713, Note_on_c, 1, 46, 0
1, 102720, Note_on_c, 0, 69, 0
1, 102720, Note_on_c, 0, 72, 82
1, 102816, Note_on_c, 1, 53, 82
1, 102816, Note_on_c, 1, 48, 82
1, 102816, Note_on_c, 1, 45, 82
1, 102816, Note_on_c, 1, 41, 82
1, 102875, Note_on_c, 0, 72, 0
1, 102888, Note_on_c, 0, 65, 82
1, 102900, Note_on_c, 0, 65, 0
1, 102900, Note_on_c, 0, 70, 82
1, 102905, Note_on_c, 1, 53, 0
1, 102905, Note_on_c, 1, 48, 0
1, 102905, Note_on_c, 1, 45, 0
1, 102905, Note_on_c, 1, 41, 0
1, 102912, Note_on_c, 0, 70, 0
1, 102912, Note_on_c, 0, 74, 82
1, 103008, Note_on_c, 1, 46, 82
1, 103008, Note_on_c, 1, 41, 82
1, 103008, Note_on_c, 1, 38, 82
1, 103008, Note_on_c, 1, 34, 82
1, 103067, Note_on_c, 0, 74, 0
1, 103080, Note_on_c, 0, 74, 82
1, 103092, Note_on_c, 0, 74, 0
1, 103092, Note_on_c, 0, 77, 82
1, 103097, Note_on_c, 1, 46, 0
1, 103097, Note_on_c, 1, 41, 0
1, 103097, Note_on_c, 1, 38, 0
1, 103097, Note_on_c, 1, 34, 0
1, 103104, Note_on_c, 0, 77, 0
1, 103104, Note_on_c, 0, 82, 82
1, 103127, Note_on_c, 0, 82, 0
1, 103128, Note_on_c, 0, 81, 82
1, 103151, Note_on_c, 0, 81, 0
1, 103152, Note_on_c, 0, 79, 82
1, 103175, Note_on_c, 0, 79, 0
1, 103176, Note_on_c, 0, 77, 82
1, 103199, Note_on_c, 0, 77, 0
1, 103200, Note_on_c, 0, 75, 82
1, 103223, Note_on_c, 0, 75, 0
1, 103224, Note_on_c, 0, 74, 82
1, 103247, Note_on_c, 0, 74, 0
1, 103248, Note_on_c, 0, 72, 82
1, 103271, Note_on_c, 0, 72, 0
1, 103272, Note_on_c, 0, 70, 82
1, 103295, Note_on_c, 0, 70, 0
1, 103296, Note_on_c, 0, 69, 82
1, 103392, Note_on_c, 1, 65, 75
1, 103392, Note_on_c, 1, 63, 75
1, 103451, Note_on_c, 0, 69, 0
1, 103464, Note_on_c, 0, 69, 70
1, 103486, Note_on_c, 1, 65, 0
1, 103486, Note_on_c, 1, 63, 0
1, 103487, Note_on_c, 0, 69, 0
1, 103488, Note_on_c, 0, 70, 69
1, 103584, Note_on_c, 1, 65, 66
1, 103584, Note_on_c, 1, 62, 66
1, 103643, Note_on_c, 0, 70, 0
1, 103656, Note_on_c, 0, 70, 57
1, 103673, Note_on_c, 1, 65, 0
1, 103673, Note_on_c, 1, 62, 0
1, 103679, Note_on_c, 0, 70, 0
1, 103680, Note_on_c, 0, 71, 56
1, 103776, Note_on_c, 0, 71, 0
1, 103776, Note_on_c, 0, 72, 56
1, 103776, Note_on_c, 1, 65, 56
1, 103776, Note_on_c, 1, 57, 56
1, 103870, Note_on_c, 0, 72, 0
1, 103870, Note_on_c, 1, 65, 0
1, 103870, Note_on_c, 1, 57, 0
1, 104040, Note_on_c, 0, 84, 82
1, 104063, Note_on_c, 0, 84, 0
1, 104064, Note_on_c, 0, 85, 82
1, 104064, Note_on_c, 1, 70, 56
1, 104094, Note_on_c, 1, 70, 0
1, 104096, Note_on_c, 1, 73, 56
1, 104126, Note_on_c, 1, 73, 0
1, 104128, Note_on_c, 1, 77, 56
1, 104153, Note_on_c, 0, 85, 0
1, 104158, Note_on_c, 1, 77, 0
1, 104160, Note_on_c, 0, 85, 115
1, 104160, Note_on_c, 1, 70, 56
1, 104190, Note_on_c, 1, 70, 0
1, 104192, Note_on_c, 1, 73, 56
1, 104222, Note_on_c, 1, 73, 0
1, 104224, Note_on_c, 1, 77, 56
1, 104254, Note_on_c, 1, 77, 0
1, 104256, Note_on_c, 1, 70, 56
1, 104286, Note_on_c, 1, 70, 0
1, 104288, Note_on_c, 1, 73, 56
1, 104293, Note_on_c, 0, 85, 0
1, 104304, Note_on_c, 0, 85, 82
1, 104318, Note_on_c, 1, 73, 0
1, 104320, Note_on_c, 1, 77, 56
1, 104349, Note_on_c, 0, 85, 0
1, 104350, Note_on_c, 1, 77, 0
1, 104352, Note_on_c, 0, 87, 82
1, 104352, Note_on_c, 1, 70, 56
1, 104364, Note_on_c, 0, 87, 0
1, 104364, Note_on_c, 0, 85, 82
1, 104376, Note_on_c, 0, 85, 0
1, 104376, Note_on_c, 0, 84, 82
1, 104382, Note_on_c, 1, 70, 0
1, 104384, Note_on_c, 1, 73, 56
1, 104388, Note_on_c, 0, 84, 0
1, 104388, Note_on_c, 0, 85, 82
1, 104414, Note_on_c, 1, 73, 0
1, 104416, Note_on_c, 1, 77, 56
1, 104419, Note_on_c, 0, 85, 0
1, 104424, Note_on_c, 0, 87, 82
1, 104446, Note_on_c, 1, 77, 0
1, 104447, Note_on_c, 0, 87, 0
1, 104448, Note_on_c, 0, 85, 82
1, 104448, Note_on_c, 1, 68, 56
1, 104478, Note_on_c, 1, 68, 0
1, 104480, Note_on_c, 1, 73, 56
1, 104510, Note_on_c, 1, 73, 0
1, 104512, Note_on_c, 1, 77, 56
1, 104542, Note_on_c, 1, 77, 0
1, 104544, Note_on_c, 1, 68, 56
1, 104574, Note_on_c, 1, 68, 0
1, 104576, Note_on_c, 1, 73, 56
1, 104581, Note_on_c, 0, 85, 0
1, 104592, Note_on_c, 0, 82, 82
1, 104606, Note_on_c, 1, 73, 0
1, 104608, Note_on_c, 1, 77, 56
1, 104615, Note_on_c, 0, 82, 0
1, 104616, Note_on_c, 0, 83, 82
1, 104638, Note_on_c, 1, 77, 0
1, 104639, Note_on_c, 0, 83, 0
1, 104640, Note_on_c, 0, 85, 82
1, 104640, Note_on_c, 1, 68, 56
1, 104655, Note_on_c, 0, 85, 0
1, 104656, Note_on_c, 0, 83, 82
1, 104670, Note_on_c, 1, 68, 0
1, 104671, Note_on_c, 0, 83, 0
1, 104672, Note_on_c, 0, 85, 82
1, 104672, Note_on_c, 1, 73, 56
1, 104687, Note_on_c, 0, 85, 0
1, 104688, Note_on_c, 0, 83, 82
1, 104702, Note_on_c, 1, 73, 0
1, 104703, Note_on_c, 0, 83, 0
1, 104704, Note_on_c, 0, 85, 82
1, 104704, Note_on_c, 1, 77, 56
1, 104719, Note_on_c, 0, 85, 0
1, 104720, Note_on_c, 0, 83, 82
1, 104734, Note_on_c, 1, 77, 0
1, 104735, Note_on_c, 0, 83, 0
1, 104736, Note_on_c, 0, 85, 82
1, 104736, Note_on_c, 1, 68, 56
1, 104751, Note_on_c, 0, 85, 0
1, 104752, Note_on_c, 0, 83, 82
1, 104766, Note_on_c, 1, 68, 0
1, 104767, Note_on_c, 0, 83, 0
1, 104768, Note_on_c, 0, 82, 82
1, 104768, Note_on_c, 1, 73, 56
1, 104798, Note_on_c, 1, 73, 0
1, 104799, Note_on_c, 0, 82, 0
1, 104800, Note_on_c, 0, 83, 82
1, 104800, Note_on_c, 1, 77, 56
1, 104830, Note_on_c, 1, 77, 0
1, 104831, Note_on_c, 0, 83, 0
1, 104832, Note_on_c, 0, 82, 82
1, 104832, Note_on_c, 1, 66, 56
1, 104862, Note_on_c, 1, 66, 0
1, 104864, Note_on_c, 1, 70, 56
1, 104894, Note_on_c, 1, 70, 0
1, 104896, Note_on_c, 1, 73, 56
1, 104921, Note_on_c, 0, 82, 0
1, 104926, Note_on_c, 1, 73, 0
1, 104928, Note_on_c, 0, 82, 82
1, 104928, Note_on_c, 1, 66, 56
1, 104958, Note_on_c, 1, 66, 0
1, 104960, Note_on_c, 1, 70, 56
1, 104990, Note_on_c, 1, 70, 0
1, 104992, Note_on_c, 1, 73, 56
1, 105022, Note_on_c, 1, 73, 0
1, 105024, Note_on_c, 1, 66, 56
1, 105054, Note_on_c, 1, 66, 0
1, 105056, Note_on_c, 1, 70, 56
1, 105061, Note_on_c, 0, 82, 0
1, 105072, Note_on_c, 0, 82, 82
1, 105086, Note_on_c, 1, 70, 0
1, 105088, Note_on_c, 1, 73, 56
1, 105117, Note_on_c, 0, 82, 0
1, 105118, Note_on_c, 1, 73, 0
1, 105120, Note_on_c, 0, 83, 82
1, 105120, Note_on_c, 1, 66, 56
1, 105132, Note_on_c, 0, 83, 0
1, 105132, Note_on_c, 0, 82, 82
1, 105144, Note_on_c, 0, 82, 0
1, 105144, Note_on_c, 0, 80, 82
1, 105150, Note_on_c, 1, 66, 0
1, 105152, Note_on_c, 1, 70, 56
1, 105156, Note_on_c, 0, 80, 0
1, 105156, Note_on_c, 0, 82, 82
1, 105182, Note_on_c, 1, 70, 0
1, 105184, Note_on_c, 1, 73, 56
1, 105187, Note_on_c, 0, 82, 0
1, 105192, Note_on_c, 0, 83, 82
1, 105214, Note_on_c, 1, 73, 0
1, 105215, Note_on_c, 0, 83, 0
1, 105216, Note_on_c, 0, 82, 82
1, 105216, Note_on_c, 1, 65, 56
1, 105246, Note_on_c, 1, 65, 0
1, 105248, Note_on_c, 1, 68, 56
1, 105278, Note_on_c, 1, 68, 0
1, 105280, Note_on_c, 1, 74, 56
1, 105283, Note_on_c, 0, 82, 0
1, 105288, Note_on_c, 0, 80, 82
1, 105310, Note_on_c, 1, 74, 0
1, 105311, Note_on_c, 0, 80, 0
1, 105312, Note_on_c, 0, 83, 115
1, 105312, Note_on_c, 1, 65, 56
1, 105342, Note_on_c, 1, 65, 0
1, 105344, Note_on_c, 1, 68, 56
1, 105374, Note_on_c, 1, 68, 0
1, 105376, Note_on_c, 1, 74, 56
1, 105406, Note_on_c, 1, 74, 0
1, 105408, Note_on_c, 1, 65, 56
1, 105438, Note_on_c, 1, 65, 0
1, 105440, Note_on_c, 1, 68, 56
1, 105445, Note_on_c, 0, 83, 0
1, 105456, Note_on_c, 0, 82, 82
1, 105470, Note_on_c, 1, 68, 0
1, 105472, Note_on_c, 1, 74, 56
1, 105479, Note_on_c, 0, 82, 0
1, 105480, Note_on_c, 0, 80, 82
1, 105502, Note_on_c, 1, 74, 0
1, 105503, Note_on_c, 0, 80, 0
1, 105504, Note_on_c, 0, 78, 82
1, 105504, Note_on_c, 1, 65, 56
1, 105534, Note_on_c, 1, 65, 0
1, 105536, Note_on_c, 1, 68, 56
1, 105549, Note_on_c, 0, 78, 0
1, 105552, Note_on_c, 0, 77, 82
1, 105566, Note_on_c, 1, 68, 0
1, 105568, Note_on_c, 1, 74, 56
1, 105597, Note_on_c, 0, 77, 0
1, 105598, Note_on_c, 1, 74, 0
1, 105600, Note_on_c, 0, 80, 82
1, 105600, Note_on_c, 1, 63, 56
1, 105630, Note_on_c, 1, 63, 0
1, 105632, Note_on_c, 1, 66, 56
1, 105662, Note_on_c, 1, 66, 0
1, 105664, Note_on_c, 1, 70, 56
1, 105694, Note_on_c, 1, 70, 0
1, 105696, Note_on_c, 0, 80, 0
1, 105696, Note_on_c, 0, 78, 82
1, 105696, Note_on_c, 1, 63, 56
1, 105726, Note_on_c, 1, 63, 0
1, 105728, Note_on_c, 1, 66, 56
1, 105758, Note_on_c, 1, 66, 0
1, 105760, Note_on_c, 1, 70, 56
1, 105785, Note_on_c, 0, 78, 0
1, 105790, Note_on_c, 1, 70, 0
1, 105792, Note_on_c, 1, 63, 56
1, 105822, Note_on_c, 1, 63, 0
1, 105824, Note_on_c, 1, 66, 56
1, 105854, Note_on_c, 1, 66, 0
1, 105856, Note_on_c, 1, 70, 56
1, 105864, Note_on_c, 0, 78, 82
1, 105886, Note_on_c, 1, 70, 0
1, 105887, Note_on_c, 0, 78, 0
1, 105888, Note_on_c, 0, 80, 81
1, 105888, Note_on_c, 1, 63, 56
1, 105900, Note_on_c, 0, 80, 0
1, 105900, Note_on_c, 0, 78, 81
1, 105912, Note_on_c, 0, 78, 0
1, 105912, Note_on_c, 0, 77, 81
1, 105918, Note_on_c, 1, 63, 0
1, 105920, Note_on_c, 1, 66, 56
1, 105924, Note_on_c, 0, 77, 0
1, 105924, Note_on_c, 0, 78, 81
1, 105950, Note_on_c, 1, 66, 0
1, 105952, Note_on_c, 1, 70, 56
1, 105955, Note_on_c, 0, 78, 0
1, 105960, Note_on_c, 0, 80, 79
1, 105982, Note_on_c, 1, 70, 0
1, 105983, Note_on_c, 0, 80, 0
1, 105984, Note_on_c, 0, 78, 79
1, 105984, Note_on_c, 1, 61, 56
1, 106014, Note_on_c, 1, 61, 0
1, 106016, Note_on_c, 1, 65, 56
1, 106046, Note_on_c, 1, 65, 0
1, 106048, Note_on_c, 1, 70, 56
1, 106078, Note_on_c, 1, 70, 0
1, 106080, Note_on_c, 0, 78, 0
1, 106080, Note_on_c, 0, 77, 77
1, 106080, Note_on_c, 1, 61, 56
1, 106110, Note_on_c, 1, 61, 0
1, 106112, Note_on_c, 1, 65, 56
1, 106142, Note_on_c, 1, 65, 0
1, 106144, Note_on_c, 1, 70, 56
1, 106169, Note_on_c, 0, 77, 0
1, 106174, Note_on_c, 1, 70, 0
1, 106176, Note_on_c, 1, 61, 56
1, 106206, Note_on_c, 1, 61, 0
1, 106208, Note_on_c, 1, 65, 56
1, 106238, Note_on_c, 1, 65, 0
1, 106240, Note_on_c, 1, 70, 56
1, 106248, Note_on_c, 0, 77, 75
1, 106270, Note_on_c, 1, 70, 0
1, 106271, Note_on_c, 0, 77, 0
1, 106272, Note_on_c, 0, 79, 75
1, 106272, Note_on_c, 1, 61, 56
1, 106284, Note_on_c, 0, 79, 0
1, 106284, Note_on_c, 0, 77, 75
1, 106296, Note_on_c, 0, 77, 0
1, 106296, Note_on_c, 0, 76, 75
1, 106302, Note_on_c, 1, 61, 0
1, 106304, Note_on_c, 1, 65, 56
1, 106308, Note_on_c, 0, 76, 0
1, 106308, Note_on_c, 0, 77, 75
1, 106334, Note_on_c, 1, 65, 0
1, 106336, Note_on_c, 1, 70, 56
1, 106361, Note_on_c, 0, 77, 0
1, 106366, Note_on_c, 1, 70, 0
1, 106368, Note_on_c, 0, 76, 75
1, 106368, Note_on_c, 1, 60, 56
1, 106398, Note_on_c, 0, 76, 0
1, 106400, Note_on_c, 0, 79, 75
1, 106430, Note_on_c, 0, 79, 0
1, 106432, Note_on_c, 0, 77, 76
1, 106462, Note_on_c, 0, 77, 0
1, 106464, Note_on_c, 0, 81, 76
1, 106494, Note_on_c, 0, 81, 0
1, 106496, Note_on_c, 0, 79, 77
1, 106526, Note_on_c, 0, 79, 0
1, 106528, Note_on_c, 0, 82, 78
1, 106545, Note_on_c, 1, 60, 0
1, 106558, Note_on_c, 0, 82, 0
1, 106560, Note_on_c, 0, 81, 78
1, 106590, Note_on_c, 0, 81, 0
1, 106592, Note_on_c, 0, 84, 79
1, 106622, Note_on_c, 0, 84, 0
1, 106624, Note_on_c, 0, 82, 79
1, 106654, Note_on_c, 0, 82, 0
1, 106656, Note_on_c, 0, 86, 80
1, 106686, Note_on_c, 0, 86, 0
1, 106688, Note_on_c, 0, 84, 81
1, 106718, Note_on_c, 0, 84, 0
1, 106720, Note_on_c, 0, 88, 82
1, 106750, Note_on_c, 0, 88, 0
1, 106752, Note_on_c, 0, 86, 82
1, 106752, Note_on_c, 1, 64, 56
1, 106782, Note_on_c, 1, 64, 0
1, 106784, Note_on_c, 1, 67, 56
1, 106814, Note_on_c, 1, 67, 0
1, 106816, Note_on_c, 1, 72, 56
1, 106841, Note_on_c, 0, 86, 0
1, 106846, Note_on_c, 1, 72, 0
1, 106848, Note_on_c, 0, 84, 115
1, 106848, Note_on_c, 1, 64, 56
1, 106878, Note_on_c, 1, 64, 0
1, 106880, Note_on_c, 1, 67, 56
1, 106910, Note_on_c, 1, 67, 0
1, 106912, Note_on_c, 1, 72, 56
1, 106942, Note_on_c, 1, 72, 0
1, 106944, Note_on_c, 1, 64, 56
1, 106974, Note_on_c, 1, 64, 0
1, 106976, Note_on_c, 1, 67, 56
1, 107006, Note_on_c, 1, 67, 0
1, 107008, Note_on_c, 1, 72, 56
1, 107025, Note_on_c, 0, 84, 0
1, 107038, Note_on_c, 1, 72, 0
1, 107040, Note_on_c, 0, 82, 82
1, 107040, Note_on_c, 1, 64, 56
1, 107053, Note_on_c, 0, 82, 0
1, 107054, Note_on_c, 0, 84, 81
1, 107067, Note_on_c, 0, 84, 0
1, 107068, Note_on_c, 0, 82, 80
1, 107070, Note_on_c, 1, 64, 0
1, 107072, Note_on_c, 1, 67, 56
1, 107081, Note_on_c, 0, 82, 0
1, 107082, Note_on_c, 0, 84, 79
1, 107095, Note_on_c, 0, 84, 0
1, 107096, Note_on_c, 0, 82, 78
1, 107102, Note_on_c, 1, 67, 0
1, 107104, Note_on_c, 1, 72, 56
1, 107109, Note_on_c, 0, 82, 0
1, 107110, Note_on_c, 0, 81, 77
1, 107122, Note_on_c, 0, 81, 0
1, 107123, Note_on_c, 0, 82, 76
1, 107134, Note_on_c, 1, 72, 0
1, 107135, Note_on_c, 0, 82, 0
1, 107136, Note_on_c, 0, 81, 75
1, 107136, Note_on_c, 1, 65, 56
1, 107166, Note_on_c, 0, 81, 0
1, 107168, Note_on_c, 0, 84, 75
1, 107198, Note_on_c, 0, 84, 0
1, 107200, Note_on_c, 0, 82, 76
1, 107225, Note_on_c, 1, 65, 0
1, 107230, Note_on_c, 0, 82, 0
1, 107232, Note_on_c, 0, 86, 77
1, 107262, Note_on_c, 0, 86, 0
1, 107264, Note_on_c, 0, 84, 78
1, 107294, Note_on_c, 0, 84, 0
1, 107296, Note_on_c, 0, 87, 79
1, 107326, Note_on_c, 0, 87, 0
1, 107328, Note_on_c, 0, 86, 80
1, 107358, Note_on_c, 0, 86, 0
1, 107360, Note_on_c, 0, 89, 80
1, 107390, Note_on_c, 0, 89, 0
1, 107392, Note_on_c, 0, 87, 82
1, 107422, Note_on_c, 0, 87, 0
1, 107424, Note_on_c, 0, 86, 82
1, 107454, Note_on_c, 0, 86, 0
1, 107456, Note_on_c, 0, 84, 81
1, 107486, Note_on_c, 0, 84, 0
1, 107488, Note_on_c, 0, 82, 80
1, 107518, Note_on_c, 0, 82, 0
1, 107520, Note_on_c, 0, 81, 80
1, 107520, Note_on_c, 1, 57, 66
1, 107550, Note_on_c, 0, 81, 0
1, 107550, Note_on_c, 1, 57, 0
1, 107552, Note_on_c, 0, 86, 79
1, 107552, Note_on_c, 1, 60, 66
1, 107582, Note_on_c, 0, 86, 0
1, 107582, Note_on_c, 1, 60, 0
1, 107584, Note_on_c, 0, 84, 79
1, 107584, Note_on_c, 1, 65, 66
1, 107614, Note_on_c, 0, 84, 0
1, 107614, Note_on_c, 1, 65, 0
1, 107616, Note_on_c, 0, 82, 78
1, 107616, Note_on_c, 1, 57, 66
1, 107646, Note_on_c, 0, 82, 0
1, 107646, Note_on_c, 1, 57, 0
1, 107648, Note_on_c, 0, 81, 78
1, 107648, Note_on_c, 1, 60, 66
1, 107678, Note_on_c, 0, 81, 0
1, 107678, Note_on_c, 1, 60, 0
1, 107680, Note_on_c, 0, 79, 77
1, 107680, Note_on_c, 1, 65, 66
1, 107710, Note_on_c, 0, 79, 0
1, 107710, Note_on_c, 1, 65, 0
1, 107712, Note_on_c, 0, 77, 77
1, 107712, Note_on_c, 1, 57, 66
1, 107742, Note_on_c, 1, 57, 0
1, 107744, Note_on_c, 1, 60, 66
1, 107774, Note_on_c, 1, 60, 0
1, 107776, Note_on_c, 1, 65, 66
1, 107801, Note_on_c, 0, 77, 0
1, 107806, Note_on_c, 1, 65, 0
1, 107808, Note_on_c, 0, 75, 75
1, 107808, Note_on_c, 1, 57, 66
1, 107821, Note_on_c, 0, 75, 0
1, 107822, Note_on_c, 0, 77, 75
1, 107835, Note_on_c, 0, 77, 0
1, 107836, Note_on_c, 0, 75, 75
1, 107838, Note_on_c, 1, 57, 0
1, 107840, Note_on_c, 1, 60, 66
1, 107849, Note_on_c, 0, 75, 0
1, 107850, Note_on_c, 0, 77, 75
1, 107863, Note_on_c, 0, 77, 0
1, 107864, Note_on_c, 0, 75, 75
1, 107870, Note_on_c, 1, 60, 0
1, 107872, Note_on_c, 1, 65, 66
1, 107877, Note_on_c, 0, 75, 0
1, 107878, Note_on_c, 0, 74, 75
1, 107890, Note_on_c, 0, 74, 0
1, 107891, Note_on_c, 0, 75, 75
1, 107902, Note_on_c, 1, 65, 0
1, 107903, Note_on_c, 0, 75, 0
1, 107904, Note_on_c, 0, 74, 75
1, 107904, Note_on_c, 1, 58, 66
1, 107934, Note_on_c, 1, 58, 0
1, 107936, Note_on_c, 1, 62, 66
1, 107966, Note_on_c, 1, 62, 0
1, 107968, Note_on_c, 1, 65, 66
1, 107993, Note_on_c, 0, 74, 0
1, 107998, Note_on_c, 1, 65, 0
1, 108000, Note_on_c, 0, 77, 75
1, 108000, Note_on_c, 1, 58, 66
1, 108030, Note_on_c, 1, 58, 0
1, 108032, Note_on_c, 1, 62, 66
1, 108062, Note_on_c, 1, 62, 0
1, 108064, Note_on_c, 1, 65, 66
1, 108089, Note_on_c, 0, 77, 0
1, 108094, Note_on_c, 1, 65, 0
1, 108096, Note_on_c, 1, 60, 66
1, 108126, Note_on_c, 1, 60, 0
1, 108128, Note_on_c, 1, 63, 66
1, 108158, Note_on_c, 1, 63, 0
1, 108160, Note_on_c, 1, 65, 66
1, 108168, Note_on_c, 0, 81, 75
1, 108190, Note_on_c, 1, 65, 0
1, 108191, Note_on_c, 0, 81, 0
1, 108192, Note_on_c, 0, 81, 75
1, 108192, Note_on_c, 1, 60, 66
1, 108205, Note_on_c, 0, 81, 0
1, 108206, Note_on_c, 0, 82, 75
1, 108219, Note_on_c, 0, 82, 0
1, 108220, Note_on_c, 0, 81, 75
1, 108222, Note_on_c, 1, 60, 0
1, 108224, Note_on_c, 1, 63, 66
1, 108233, Note_on_c, 0, 81, 0
1, 108234, Note_on_c, 0, 82, 75
1, 108247, Note_on_c, 0, 82, 0
1, 108248, Note_on_c, 0, 81, 75
1, 108254, Note_on_c, 1, 63, 0
1, 108256, Note_on_c, 1, 65, 66
1, 108261, Note_on_c, 0, 81, 0
1, 108262, Note_on_c, 0, 79, 75
1, 108274, Note_on_c, 0, 79, 0
1, 108275, Note_on_c, 0, 81, 75
1, 108286, Note_on_c, 1, 65, 0
1, 108287, Note_on_c, 0, 81, 0
1, 108288, Note_on_c, 0, 82, 75
1, 108288, Note_on_c, 1, 58, 66
1, 108318, Note_on_c, 1, 58, 0
1, 108320, Note_on_c, 1, 62, 66
1, 108350, Note_on_c, 1, 62, 0
1, 108352, Note_on_c, 1, 65, 66
1, 108355, Note_on_c, 0, 82, 0
1, 108360, Note_on_c, 0, 86, 75
1, 108382, Note_on_c, 1, 65, 0
1, 108383, Note_on_c, 0, 86, 0
1, 108384, Note_on_c, 0, 77, 75
1, 108384, Note_on_c, 1, 58, 66
1, 108414, Note_on_c, 1, 58, 0
1, 108416, Note_on_c, 1, 62, 66
1, 108446, Note_on_c, 1, 62, 0
1, 108448, Note_on_c, 1, 65, 66
1, 108478, Note_on_c, 1, 65, 0
1, 108480, Note_on_c, 1, 57, 66
1, 108510, Note_on_c, 1, 57, 0
1, 108512, Note_on_c, 1, 60, 66
1, 108542, Note_on_c, 1, 60, 0
1, 108544, Note_on_c, 1, 65, 66
1, 108547, Note_on_c, 0, 77, 0
1, 108552, Note_on_c, 0, 75, 75
1, 108574, Note_on_c, 1, 65, 0
1, 108575, Note_on_c, 0, 75, 0
1, 108576, Note_on_c, 0, 75, 75
1, 108576, Note_on_c, 1, 57, 66
1, 108589, Note_on_c, 0, 75, 0
1, 108590, Note_on_c, 0, 77, 75
1, 108603, Note_on_c, 0, 77, 0
1, 108604, Note_on_c, 0, 75, 75
1, 108606, Note_on_c, 1, 57, 0
1, 108608, Note_on_c, 1, 60, 66
1, 108617, Note_on_c, 0, 75, 0
1, 108618, Note_on_c, 0, 77, 75
1, 108631, Note_on_c, 0, 77, 0
1, 108632, Note_on_c, 0, 75, 75
1, 108638, Note_on_c, 1, 60, 0
1, 108640, Note_on_c, 1, 65, 66
1, 108645, Note_on_c, 0, 75, 0
1, 108646, Note_on_c, 0, 74, 75
1, 108658, Note_on_c, 0, 74, 0
1, 108659, Note_on_c, 0, 75, 75
1, 108670, Note_on_c, 1, 65, 0
1, 108671, Note_on_c, 0, 75, 0
1, 108672, Note_on_c, 0, 74, 75
1, 108672, Note_on_c, 1, 58, 66
1, 108702, Note_on_c, 1, 58, 0
1, 108704, Note_on_c, 1, 62, 66
1, 108734, Note_on_c, 1, 62, 0
1, 108736, Note_on_c, 1, 65, 66
1, 108761, Note_on_c, 0, 74, 0
1, 108766, Note_on_c, 1, 65, 0
1, 108768, Note_on_c, 0, 77, 75
1, 108768, Note_on_c, 1, 58, 66
1, 108798, Note_on_c, 1, 58, 0
1, 108800, Note_on_c, 1, 62, 66
1, 108830, Note_on_c, 1, 62, 0
1, 108832, Note_on_c, 1, 65, 66
1, 108857, Note_on_c, 0, 77, 0
1, 108862, Note_on_c, 1, 65, 0
1, 108864, Note_on_c, 1, 60, 66
1, 108894, Note_on_c, 1, 60, 0
1, 108896, Note_on_c, 1, 63, 66
1, 108926, Note_on_c, 1, 63, 0
1, 108928, Note_on_c, 1, 65, 66
1, 108936, Note_on_c, 0, 81, 75
1, 108958, Note_on_c, 1, 65, 0
1, 108959, Note_on_c, 0, 81, 0
1, 108960, Note_on_c, 0, 81, 75
1, 108960, Note_on_c, 1, 60, 66
1, 108973, Note_on_c, 0, 81, 0
1, 108974, Note_on_c, 0, 82, 75
1, 108987, Note_on_c, 0, 82, 0
1, 108988, Note_on_c, 0, 81, 75
1, 108990, Note_on_c, 1, 60, 0
1, 108992, Note_on_c, 1, 63, 66
1, 109001, Note_on_c, 0, 81, 0
1, 109002, Note_on_c, 0, 82, 75
1, 109015, Note_on_c, 0, 82, 0
1, 109016, Note_on_c, 0, 81, 75
1, 109022, Note_on_c, 1, 63, 0
1, 109024, Note_on_c, 1, 65, 66
1, 109029, Note_on_c, 0, 81, 0
1, 109030, Note_on_c, 0, 79, 75
1, 109042, Note_on_c, 0, 79, 0
1, 109043, Note_on_c, 0, 81, 75
1, 109054, Note_on_c, 1, 65, 0
1, 109055, Note_on_c, 0, 81, 0
1, 109056, Note_on_c, 0, 82, 75
1, 109056, Note_on_c, 1, 58, 66
1, 109086, Note_on_c, 1, 58, 0
1, 109088, Note_on_c, 1, 62, 66
1, 109118, Note_on_c, 1, 62, 0
1, 109120, Note_on_c, 1, 65, 66
1, 109123, Note_on_c, 0, 82, 0
1, 109128, Note_on_c, 0, 86, 75
1, 109150, Note_on_c, 1, 65, 0
1, 109151, Note_on_c, 0, 86, 0
1, 109152, Note_on_c, 0, 77, 75
1, 109152, Note_on_c, 1, 58, 66
1, 109182, Note_on_c, 1, 58, 0
1, 109184, Note_on_c, 1, 62, 66
1, 109214, Note_on_c, 1, 62, 0
1, 109216, Note_on_c, 1, 65, 66
1, 109246, Note_on_c, 1, 65, 0
1, 109248, Note_on_c, 1, 57, 66
1, 109278, Note_on_c, 1, 57, 0
1, 109280, Note_on_c, 1, 60, 66
1, 109310, Note_on_c, 1, 60, 0
1, 109312, Note_on_c, 1, 65, 66
1, 109315, Note_on_c, 0, 77, 0
1, 109320, Note_on_c, 0, 75, 75
1, 109342, Note_on_c, 1, 65, 0
1, 109343, Note_on_c, 0, 75, 0
1, 109344, Note_on_c, 0, 75, 75
1, 109344, Note_on_c, 1, 57, 66
1, 109357, Note_on_c, 0, 75, 0
1, 109358, Note_on_c, 0, 77, 75
1, 109371, Note_on_c, 0, 77, 0
1, 109372, Note_on_c, 0, 75, 75
1, 109374, Note_on_c, 1, 57, 0
1, 109376, Note_on_c, 1, 60, 66
1, 109385, Note_on_c, 0, 75, 0
1, 109386, Note_on_c, 0, 77, 75
1, 109399, Note_on_c, 0, 77, 0
1, 109400, Note_on_c, 0, 75, 75
1, 109406, Note_on_c, 1, 60, 0
1, 109408, Note_on_c, 1, 65, 66
1, 109413, Note_on_c, 0, 75, 0
1, 109414, Note_on_c, 0, 74, 75
1, 109426, Note_on_c, 0, 74, 0
1, 109427, Note_on_c, 0, 75, 75
1, 109438, Note_on_c, 1, 65, 0
1, 109439, Note_on_c, 0, 75, 0
1, 109440, Note_on_c, 0, 74, 75
1, 109440, Note_on_c, 1, 58, 66
1, 109470, Note_on_c, 0, 74, 0
1, 109472, Note_on_c, 0, 77, 75
1, 109502, Note_on_c, 0, 77, 0
1, 109504, Note_on_c, 0, 75, 75
1, 109534, Note_on_c, 0, 75, 0
1, 109536, Note_on_c, 0, 79, 76
1, 109566, Note_on_c, 0, 79, 0
1, 109568, Note_on_c, 0, 77, 76
1, 109573, Note_on_c, 1, 58, 0
1, 109598, Note_on_c, 0, 77, 0
1, 109600, Note_on_c, 0, 80, 77
1, 109630, Note_on_c, 0, 80, 0
1, 109632, Note_on_c, 0, 79, 77
1, 109662, Note_on_c, 0, 79, 0
1, 109664, Note_on_c, 0, 82, 78
1, 109694, Note_on_c, 0, 82, 0
1, 109696, Note_on_c, 0, 80, 79
1, 109726, Note_on_c, 0, 80, 0
1, 109728, Note_on_c, 0, 84, 79
1, 109758, Note_on_c, 0, 84, 0
1, 109760, Note_on_c, 0, 82, 80
1, 109790, Note_on_c, 0, 82, 0
1, 109792, Note_on_c, 0, 80, 80
1, 109822, Note_on_c, 0, 80, 0
1, 109824, Note_on_c, 0, 79, 82
1, 109824, Note_on_c, 1, 58, 75
1, 109824, Note_on_c, 1, 53, 75
1, 109824, Note_on_c, 1, 50, 75
1, 109854, Note_on_c, 0, 79, 0
1, 109856, Note_on_c, 0, 77, 81
1, 109886, Note_on_c, 0, 77, 0
1, 109888, Note_on_c, 0, 82, 80
1, 109918, Note_on_c, 0, 82, 0
1, 109920, Note_on_c, 0, 80, 80
1, 109950, Note_on_c, 0, 80, 0
1, 109952, Note_on_c, 0, 79, 79
1, 109957, Note_on_c, 1, 58, 0
1, 109957, Note_on_c, 1, 53, 0
1, 109957, Note_on_c, 1, 50, 0
1, 109982, Note_on_c, 0, 79, 0
1, 109984, Note_on_c, 0, 77, 79
1, 110014, Note_on_c, 0, 77, 0
1, 110016, Note_on_c, 0, 75, 78
1, 110046, Note_on_c, 0, 75, 0
1, 110048, Note_on_c, 0, 74, 78
1, 110078, Note_on_c, 0, 74, 0
1, 110080, Note_on_c, 0, 72, 77
1, 110110, Note_on_c, 0, 72, 0
1, 110112, Note_on_c, 0, 70, 77
1, 110142, Note_on_c, 0, 70, 0
1, 110144, Note_on_c, 0, 72, 76
1, 110174, Note_on_c, 0, 72, 0
1, 110176, Note_on_c, 0, 68, 75
1, 110206, Note_on_c, 0, 68, 0
1, 110208, Note_on_c, 0, 67, 75
1, 110208, Note_on_c, 1, 58, 75
1, 110208, Note_on_c, 1, 55, 75
1, 110208, Note_on_c, 1, 51, 75
1, 110238, Note_on_c, 0, 67, 0
1, 110240, Note_on_c, 0, 75, 75
1, 110270, Note_on_c, 0, 75, 0
1, 110272, Note_on_c, 0, 74, 75
1, 110302, Note_on_c, 0, 74, 0
1, 110304, Note_on_c, 0, 72, 75
1, 110334, Note_on_c, 0, 72, 0
1, 110336, Note_on_c, 0, 79, 75
1, 110341, Note_on_c, 1, 58, 0
1, 110341, Note_on_c, 1, 55, 0
1, 110341, Note_on_c, 1, 51, 0
1, 110366, Note_on_c, 0, 79, 0
1, 110368, Note_on_c, 0, 77, 75
1, 110398, Note_on_c, 0, 77, 0
1, 110400, Note_on_c, 0, 75, 75
1, 110430, Note_on_c, 0, 75, 0
1, 110432, Note_on_c, 0, 74, 75
1, 110462, Note_on_c, 0, 74, 0
1, 110464, Note_on_c, 0, 72, 75
1, 110494, Note_on_c, 0, 72, 0
1, 110496, Note_on_c, 0, 70, 75
1, 110526, Note_on_c, 0, 70, 0
1, 110528, Note_on_c, 0, 69, 75
1, 110558, Note_on_c, 0, 69, 0
1, 110560, Note_on_c, 0, 67, 75
1, 110590, Note_on_c, 0, 67, 0
1, 110592, Note_on_c, 0, 65, 75
1, 110688, Note_on_c, 1, 62, 75
1, 110688, Note_on_c, 1, 58, 75
1, 110688, Note_on_c, 1, 53, 75
1, 110727, Note_on_c, 1, 62, 0
1, 110727, Note_on_c, 1, 58, 0
1, 110727, Note_on_c, 1, 53, 0
1, 110784, Note_on_c, 1, 62, 75
1, 110784, Note_on_c, 1, 58, 75
1, 110784, Note_on_c, 1, 53, 75
1, 110814, Note_on_c, 0, 65, 0
1, 110816, Note_on_c, 0, 65, 79
1, 110846, Note_on_c, 0, 65, 0
1, 110848, Note_on_c, 0, 66, 79
1, 110873, Note_on_c, 1, 62, 0
1, 110873, Note_on_c, 1, 58, 0
1, 110873, Note_on_c, 1, 53, 0
1, 110878, Note_on_c, 0, 66, 0
1, 110880, Note_on_c, 0, 67, 80
1, 110910, Note_on_c, 0, 67, 0
1, 110912, Note_on_c, 0, 68, 80
1, 110942, Note_on_c, 0, 68, 0
1, 110944, Note_on_c, 0, 69, 81
1, 110974, Note_on_c, 0, 69, 0
1, 110976, Note_on_c, 0, 70, 82
1, 110976, Note_on_c, 1, 62, 75
1, 110976, Note_on_c, 1, 58, 75
1, 110976, Note_on_c, 1, 53, 75
1, 111006, Note_on_c, 0, 70, 0
1, 111008, Note_on_c, 0, 65, 75
1, 111015, Note_on_c, 1, 62, 0
1, 111015, Note_on_c, 1, 58, 0
1, 111015, Note_on_c, 1, 53, 0
1, 111038, Note_on_c, 0, 65, 0
1, 111040, Note_on_c, 0, 66, 76
1, 111070, Note_on_c, 0, 66, 0
1, 111072, Note_on_c, 0, 67, 77
1, 111102, Note_on_c, 0, 67, 0
1, 111104, Note_on_c, 0, 68, 78
1, 111134, Note_on_c, 0, 68, 0
1, 111136, Note_on_c, 0, 69, 79
1, 111166, Note_on_c, 0, 69, 0
1, 111168, Note_on_c, 0, 70, 80
1, 111168, Note_on_c, 1, 62, 75
1, 111168, Note_on_c, 1, 58, 75
1, 111168, Note_on_c, 1, 53, 75
1, 111198, Note_on_c, 0, 70, 0
1, 111200, Note_on_c, 0, 77, 82
1, 111207, Note_on_c, 1, 62, 0
1, 111207, Note_on_c, 1, 58, 0
1, 111207, Note_on_c, 1, 53, 0
1, 111230, Note_on_c, 0, 77, 0
1, 111232, Note_on_c, 0, 78, 83
1, 111262, Note_on_c, 0, 78, 0
1, 111264, Note_on_c, 0, 79, 84
1, 111294, Note_on_c, 0, 79, 0
1, 111296, Note_on_c, 0, 80, 86
1, 111326, Note_on_c, 0, 80, 0
1, 111328, Note_on_c, 0, 81, 87
1, 111358, Note_on_c, 0, 81, 0
1, 111360, Note_on_c, 0, 82, 90
1, 111360, Note_on_c, 1, 62, 75
1, 111360, Note_on_c, 1, 58, 75
1, 111360, Note_on_c, 1, 53, 75
1, 111390, Note_on_c, 0, 82, 0
1, 111392, Note_on_c, 0, 81, 89
1, 111399, Note_on_c, 1, 62, 0
1, 111399, Note_on_c, 1, 58, 0
1, 111399, Note_on_c, 1, 53, 0
1, 111422, Note_on_c, 0, 81, 0
1, 111424, Note_on_c, 0, 80, 89
1, 111454, Note_on_c, 0, 80, 0
1, 111456, Note_on_c, 0, 79, 88
1, 111486, Note_on_c, 0, 79, 0
1, 111488, Note_on_c, 0, 78, 88
1, 111518, Note_on_c, 0, 78, 0
1, 111520, Note_on_c, 0, 77, 87
1, 111550, Note_on_c, 0, 77, 0
1, 111552, Note_on_c, 0, 76, 87
1, 111582, Note_on_c, 0, 76, 0
1, 111584, Note_on_c, 0, 75, 87
1, 111614, Note_on_c, 0, 75, 0
1, 111616, Note_on_c, 0, 74, 86
1, 111646, Note_on_c, 0, 74, 0
1, 111648, Note_on_c, 0, 73, 86
1, 111678, Note_on_c, 0, 73, 0
1, 111680, Note_on_c, 0, 72, 85
1, 111710, Note_on_c, 0, 72, 0
1, 111712, Note_on_c, 0, 71, 85
1, 111742, Note_on_c, 0, 71, 0
1, 111744, Note_on_c, 0, 70, 85
1, 111774, Note_on_c, 0, 70, 0
1, 111776, Note_on_c, 0, 69, 84
1, 111806, Note_on_c, 0, 69, 0
1, 111808, Note_on_c, 0, 68, 84
1, 111838, Note_on_c, 0, 68, 0
1, 111840, Note_on_c, 0, 67, 83
1, 111870, Note_on_c, 0, 67, 0
1, 111872, Note_on_c, 0, 66, 83
1, 111902, Note_on_c, 0, 66, 0
1, 111904, Note_on_c, 0, 65, 82
1, 111934, Note_on_c, 0, 65, 0
1, 111936, Note_on_c, 0, 64, 82
1, 111936, Note_on_c, 1, 52, 82
1, 111936, Note_on_c, 1, 40, 82
1, 112025, Note_on_c, 0, 64, 0
1, 112032, Note_on_c, 0, 76, 82
1, 112044, Note_on_c, 0, 79, 82
1, 112056, Note_on_c, 0, 82, 82
1, 112068, Note_on_c, 0, 85, 82
1, 112113, Note_on_c, 1, 52, 0
1, 112113, Note_on_c, 1, 40, 0
1, 112121, Note_on_c, 0, 85, 0
1, 112121, Note_on_c, 0, 82, 0
1, 112121, Note_on_c, 0, 79, 0
1, 112121, Note_on_c, 0, 76, 0
1, 112128, Note_on_c, 1, 53, 82
1, 112128, Note_on_c, 1, 48, 82
1, 112128, Note_on_c, 1, 45, 82
1, 112128, Note_on_c, 1, 41, 82
1, 112152, Note_on_c, 0, 65, 82
1, 112175, Note_on_c, 0, 65, 0
1, 112176, Note_on_c, 0, 67, 82
1, 112199, Note_on_c, 0, 67, 0
1, 112200, Note_on_c, 0, 69, 82
1, 112223, Note_on_c, 0, 69, 0
1, 112224, Note_on_c, 0, 70, 82
1, 112247, Note_on_c, 0, 70, 0
1, 112248, Note_on_c, 0, 72, 82
1, 112271, Note_on_c, 0, 72, 0
1, 112272, Note_on_c, 0, 74, 82
1, 112295, Note_on_c, 0, 74, 0
1, 112296, Note_on_c, 0, 75, 82
1, 112305, Note_on_c, 1, 53, 0
1, 112305, Note_on_c, 1, 48, 0
1, 112305, Note_on_c, 1, 45, 0
1, 112305, Note_on_c, 1, 41, 0
1, 112319, Note_on_c, 0, 75, 0
1, 112320, Note_on_c, 0, 77, 82
1, 112343, Note_on_c, 0, 77, 0
1, 112344, Note_on_c, 0, 79, 82
1, 112367, Note_on_c, 0, 79, 0
1, 112368, Note_on_c, 0, 81, 82
1, 112391, Note_on_c, 0, 81, 0
1, 112392, Note_on_c, 0, 82, 82
1, 112415, Note_on_c, 0, 82, 0
1, 112416, Note_on_c, 0, 84, 82
1, 112439, Note_on_c, 0, 84, 0
1, 112440, Note_on_c, 0, 86, 82
1, 112463, Note_on_c, 0, 86, 0
1, 112464, Note_on_c, 0, 87, 82
1, 112487, Note_on_c, 0, 87, 0
1, 112488, Note_on_c, 0, 89, 82
1, 112511, Note_on_c, 0, 89, 0
1, 112512, Note_on_c, 0, 74, 82
1, 112559, Note_on_c, 0, 74, 0
1, 112560, Note_on_c, 0, 72, 82
1, 112575, Note_on_c, 0, 72, 0
1, 112576, Note_on_c, 0, 74, 82
1, 112591, Note_on_c, 0, 74, 0
1, 112592, Note_on_c, 0, 72, 82
1, 112607, Note_on_c, 0, 72, 0
1, 112608, Note_on_c, 0, 74, 82
1, 112623, Note_on_c, 0, 74, 0
1, 112624, Note_on_c, 0, 72, 82
1, 112639, Note_on_c, 0, 72, 0
1, 112640, Note_on_c, 0, 74, 82
1, 112655, Note_on_c, 0, 74, 0
1, 112656, Note_on_c, 0, 72, 82
1, 112671, Note_on_c, 0, 72, 0
1, 112672, Note_on_c, 0, 74, 82
1, 112687, Note_on_c, 0, 74, 0
1, 112688, Note_on_c, 0, 72, 82
1, 112703, Note_on_c, 0, 72, 0
1, 112704, Note_on_c, 0, 74, 82
1, 112704, Note_on_c, 1, 63, 82
1, 112704, Note_on_c, 1, 60, 82
1, 112704, Note_on_c, 1, 57, 82
1, 112704, Note_on_c, 1, 53, 82
1, 112719, Note_on_c, 0, 74, 0
1, 112720, Note_on_c, 0, 72, 82
1, 112735, Note_on_c, 0, 72, 0
1, 112736, Note_on_c, 0, 74, 82
1, 112751, Note_on_c, 0, 74, 0
1, 112752, Note_on_c, 0, 72, 82
1, 112767, Note_on_c, 0, 72, 0
1, 112768, Note_on_c, 0, 74, 82
1, 112783, Note_on_c, 0, 74, 0
1, 112784, Note_on_c, 0, 72, 82
1, 112799, Note_on_c, 0, 72, 0
1, 112800, Note_on_c, 0, 74, 82
1, 112815, Note_on_c, 0, 74, 0
1, 112816, Note_on_c, 0, 72, 82
1, 112831, Note_on_c, 0, 72, 0
1, 112832, Note_on_c, 0, 70, 82
1, 112863, Note_on_c, 0, 70, 0
1, 112864, Note_on_c, 0, 72, 82
1, 112881, Note_on_c, 1, 63, 0
1, 112881, Note_on_c, 1, 60, 0
1, 112881, Note_on_c, 1, 57, 0
1, 112881, Note_on_c, 1, 53, 0
1, 112895, Note_on_c, 0, 72, 0
1, 112896, Note_on_c, 0, 70, 82
1, 112896, Note_on_c, 1, 58, 82
1, 112963, Note_on_c, 1, 58, 0
1, 112968, Note_on_c, 1, 62, 80
1, 112985, Note_on_c, 0, 70, 0
1, 112991, Note_on_c, 1, 62, 0
1, 112992, Note_on_c, 1, 57, 80
1, 113059, Note_on_c, 1, 57, 0
1, 113064, Note_on_c, 1, 60, 78
1, 113087, Note_on_c, 1, 60, 0
1, 113088, Note_on_c, 0, 75, 82
1, 113088, Note_on_c, 0, 63, 82
1, 113088, Note_on_c, 1, 55, 78
1, 113108, Note_on_c, 0, 75, 0
1, 113108, Note_on_c, 0, 63, 0
1, 113155, Note_on_c, 1, 55, 0
1, 113160, Note_on_c, 1, 58, 77
1, 113183, Note_on_c, 1, 58, 0
1, 113184, Note_on_c, 0, 74, 82
1, 113184, Note_on_c, 0, 62, 82
1, 113184, Note_on_c, 1, 53, 76
1, 113204, Note_on_c, 0, 74, 0
1, 113204, Note_on_c, 0, 62, 0
1, 113251, Note_on_c, 1, 53, 0
1, 113256, Note_on_c, 1, 57, 75
1, 113279, Note_on_c, 1, 57, 0
1, 113280, Note_on_c, 0, 79, 115
1, 113280, Note_on_c, 0, 67, 115
1, 113280, Note_on_c, 1, 51, 75
1, 113545, Note_on_c, 0, 79, 0
1, 113545, Note_on_c, 0, 67, 0
1, 113545, Note_on_c, 1, 51, 0
1, 113568, Note_on_c, 0, 69, 56
1, 113568, Note_on_c, 1, 63, 56
1, 113635, Note_on_c, 0, 69, 0
1, 113640, Note_on_c, 0, 79, 56
1, 113657, Note_on_c, 1, 63, 0
1, 113663, Note_on_c, 0, 79, 0
1, 113664, Note_on_c, 0, 70, 56
1, 113664, Note_on_c, 1, 62, 56
1, 113731, Note_on_c, 0, 70, 0
1, 113736, Note_on_c, 0, 77, 56
1, 113753, Note_on_c, 1, 62, 0
1, 113759, Note_on_c, 0, 77, 0
1, 113760, Note_on_c, 0, 72, 56
1, 113760, Note_on_c, 1, 63, 56
1, 113827, Note_on_c, 0, 72, 0
1, 113832, Note_on_c, 0, 75, 56
1, 113849, Note_on_c, 1, 63, 0
1, 113855, Note_on_c, 0, 75, 0
1, 113856, Note_on_c, 0, 70, 56
1, 113856, Note_on_c, 1, 65, 56
1, 113923, Note_on_c, 0, 70, 0
1, 113928, Note_on_c, 0, 74, 56
1, 113945, Note_on_c, 1, 65, 0
1, 113951, Note_on_c, 0, 74, 0
1, 113952, Note_on_c, 0, 69, 56
1, 113952, Note_on_c, 1, 53, 56
1, 114019, Note_on_c, 0, 69, 0
1, 114024, Note_on_c, 0, 72, 56
1, 114041, Note_on_c, 1, 53, 0
1, 114047, Note_on_c, 0, 72, 0
1, 114048, Note_on_c, 0, 70, 56
1, 114048, Note_on_c, 1, 58, 82
1, 114078, Note_on_c, 1, 58, 0
1, 114080, Note_on_c, 1, 60, 82
1, 114110, Note_on_c, 1, 60, 0
1, 114112, Note_on_c, 1, 62, 82
1, 114137, Note_on_c, 0, 70, 0
1, 114142, Note_on_c, 1, 62, 0
1, 114144, Note_on_c, 1, 57, 81
1, 114174, Note_on_c, 1, 57, 0
1, 114176, Note_on_c, 1, 58, 80
1, 114206, Note_on_c, 1, 58, 0
1, 114208, Note_on_c, 1, 60, 80
1, 114238, Note_on_c, 1, 60, 0
1, 114240, Note_on_c, 0, 75, 82
1, 114240, Note_on_c, 0, 63, 82
1, 114240, Note_on_c, 1, 55, 79
1, 114260, Note_on_c, 0, 75, 0
1, 114260, Note_on_c, 0, 63, 0
1, 114270, Note_on_c, 1, 55, 0
1, 114272, Note_on_c, 1, 57, 78
1, 114302, Note_on_c, 1, 57, 0
1, 114304, Note_on_c, 1, 58, 78
1, 114334, Note_on_c, 1, 58, 0
1, 114336, Note_on_c, 0, 74, 82
1, 114336, Note_on_c, 0, 62, 82
1, 114336, Note_on_c, 1, 53, 77
1, 114356, Note_on_c, 0, 74, 0
1, 114356, Note_on_c, 0, 62, 0
1, 114366, Note_on_c, 1, 53, 0
1, 114368, Note_on_c, 1, 55, 76
1, 114398, Note_on_c, 1, 55, 0
1, 114400, Note_on_c, 1, 57, 76
1, 114430, Note_on_c, 1, 57, 0
1, 114432, Note_on_c, 0, 79, 115
1, 114432, Note_on_c, 0, 67, 115
1, 114432, Note_on_c, 1, 51, 75
1, 114697, Note_on_c, 0, 79, 0
1, 114697, Note_on_c, 0, 67, 0
1, 114697, Note_on_c, 1, 51, 0
1, 114720, Note_on_c, 0, 79, 82
1, 114720, Note_on_c, 1, 63, 75
1, 114750, Note_on_c, 0, 79, 0
1, 114752, Note_on_c, 0, 72, 80
1, 114782, Note_on_c, 0, 72, 0
1, 114784, Note_on_c, 0, 69, 78
1, 114809, Note_on_c, 1, 63, 0
1, 114814, Note_on_c, 0, 69, 0
1, 114816, Note_on_c, 0, 77, 77
1, 114816, Note_on_c, 1, 62, 75
1, 114846, Note_on_c, 0, 77, 0
1, 114848, Note_on_c, 0, 74, 75
1, 114878, Note_on_c, 0, 74, 0
1, 114880, Note_on_c, 0, 70, 74
1, 114905, Note_on_c, 1, 62, 0
1, 114910, Note_on_c, 0, 70, 0
1, 114912, Note_on_c, 0, 67, 72
1, 114912, Note_on_c, 1, 63, 72
1, 114942, Note_on_c, 0, 67, 0
1, 114944, Note_on_c, 0, 75, 71
1, 114974, Note_on_c, 0, 75, 0
1, 114976, Note_on_c, 0, 72, 69
1, 115001, Note_on_c, 1, 63, 0
1, 115006, Note_on_c, 0, 72, 0
1, 115008, Note_on_c, 0, 70, 68
1, 115008, Note_on_c, 1, 62, 69
1, 115008, Note_on_c, 1, 53, 64
1, 115097, Note_on_c, 0, 70, 0
1, 115097, Note_on_c, 1, 62, 0
1, 115104, Note_on_c, 0, 69, 63
1, 115104, Note_on_c, 1, 60, 66
1, 115117, Note_on_c, 0, 69, 0
1, 115118, Note_on_c, 0, 70, 62
1, 115131, Note_on_c, 0, 70, 0
1, 115132, Note_on_c, 0, 69, 62
1, 115145, Note_on_c, 0, 69, 0
1, 115146, Note_on_c, 0, 70, 61
1, 115159, Note_on_c, 0, 70, 0
1, 115160, Note_on_c, 0, 69, 60
1, 115173, Note_on_c, 0, 69, 0
1, 115174, Note_on_c, 0, 67, 60
1, 115185, Note_on_c, 1, 53, 0
1, 115186, Note_on_c, 0, 67, 0
1, 115187, Note_on_c, 0, 69, 59
1, 115193, Note_on_c, 1, 60, 0
1, 115199, Note_on_c, 0, 69, 0
1, 115200, Note_on_c, 0, 70, 59
1, 115200, Note_on_c, 1, 62, 63
1, 115200, Note_on_c, 1, 58, 63
1, 115230, Note_on_c, 0, 70, 0
1, 115232, Note_on_c, 0, 65, 56
1, 115262, Note_on_c, 0, 65, 0
1, 115264, Note_on_c, 0, 74, 55
1, 115289, Note_on_c, 1, 62, 0
1, 115289, Note_on_c, 1, 58, 0
1, 115294, Note_on_c, 0, 74, 0
1, 115296, Note_on_c, 0, 70, 54
1, 115296, Note_on_c, 1, 62, 61
1, 115296, Note_on_c, 1, 58, 61
1, 115326, Note_on_c, 0, 70, 0
1, 115328, Note_on_c, 0, 65, 54
1, 115358, Note_on_c, 0, 65, 0
1, 115360, Note_on_c, 0, 74, 53
1, 115385, Note_on_c, 1, 62, 0
1, 115385, Note_on_c, 1, 58, 0
1, 115390, Note_on_c, 0, 74, 0
1, 115392, Note_on_c, 0, 70, 53
1, 115392, Note_on_c, 1, 62, 58
1, 115392, Note_on_c, 1, 58, 58
1, 115422, Note_on_c, 0, 70, 0
1, 115424, Note_on_c, 0, 65, 52
1, 115454, Note_on_c, 0, 65, 0
1, 115456, Note_on_c, 0, 74, 52
1, 115481, Note_on_c, 1, 62, 0
1, 115481, Note_on_c, 1, 58, 0
1, 115486, Note_on_c, 0, 74, 0
1, 115488, Note_on_c, 0, 70, 51
1, 115488, Note_on_c, 1, 62, 55
1, 115488, Note_on_c, 1, 58, 55
1, 115518, Note_on_c, 0, 70, 0
1, 115520, Note_on_c, 0, 65, 51
1, 115550, Note_on_c, 0, 65, 0
1, 115552, Note_on_c, 0, 74, 50
1, 115577, Note_on_c, 1, 62, 0
1, 115577, Note_on_c, 1, 58, 0
1, 115582, Note_on_c, 0, 74, 0
1, 115584, Note_on_c, 0, 70, 50
1, 115584, Note_on_c, 1, 62, 52
1, 115584, Note_on_c, 1, 58, 52
1, 115678, Note_on_c, 0, 70, 0
1, 115678, Note_on_c, 1, 62, 0
1, 115678, Note_on_c, 1, 58, 0
1, 115968, Note_on_c, 1, 58, 0
1, 116057, Note_on_c, 1, 58, 0
1, 116067, End_track
0, 0, End_of_file