0, 0, Header, 0, 1, 96
1, 0, Start_track
1, 0, Tempo, 444444
1, 96, Note_on_c, 0, 67, 64
1, 141, Note_on_c, 0, 67, 0
1, 144, Note_on_c, 0, 71, 64
1, 144, Note_on_c, 0, 55, 64
1, 144, Note_on_c, 0, 43, 64
1, 167, Note_on_c, 0, 71, 0
1, 168, Note_on_c, 0, 67, 64
1, 191, Note_on_c, 0, 67, 0
1, 192, Note_on_c, 0, 71, 64
1, 215, Note_on_c, 0, 71, 0
1, 216, Note_on_c, 0, 67, 64
1, 233, Note_on_c, 0, 55, 0
1, 233, Note_on_c, 0, 43, 0
1, 239, Note_on_c, 0, 67, 0
1, 240, Note_on_c, 0, 72, 64
1, 240, Note_on_c, 0, 57, 64
1, 240, Note_on_c, 0, 45, 64
1, 263, Note_on_c, 0, 72, 0
1, 264, Note_on_c, 0, 67, 64
1, 285, Note_on_c, 0, 57, 0
1, 285, Note_on_c, 0, 45, 0
1, 287, Note_on_c, 0, 67, 0
1, 288, Note_on_c, 0, 74, 64
1, 288, Note_on_c, 0, 59, 64
1, 288, Note_on_c, 0, 47, 64
1, 311, Note_on_c, 0, 74, 0
1, 312, Note_on_c, 0, 67, 64
1, 335, Note_on_c, 0, 67, 0
1, 336, Note_on_c, 0, 74, 64
1, 359, Note_on_c, 0, 74, 0
1, 360, Note_on_c, 0, 67, 64
1, 377, Note_on_c, 0, 59, 0
1, 377, Note_on_c, 0, 47, 0
1, 383, Note_on_c, 0, 67, 0
1, 384, Note_on_c, 0, 76, 64
1, 384, Note_on_c, 0, 60, 64
1, 384, Note_on_c, 0, 48, 64
1, 407, Note_on_c, 0, 76, 0
1, 408, Note_on_c, 0, 67, 64
1, 429, Note_on_c, 0, 60, 0
1, 429, Note_on_c, 0, 48, 0
1, 431, Note_on_c, 0, 67, 0
1, 432, Note_on_c, 0, 67, 64
1, 432, Note_on_c, 0, 62, 64
1, 432, Note_on_c, 0, 50, 64
1, 455, Note_on_c, 0, 67, 0
1, 456, Note_on_c, 0, 66, 64
1, 479, Note_on_c, 0, 66, 0
1, 480, Note_on_c, 0, 64, 64
1, 503, Note_on_c, 0, 64, 0
1, 504, Note_on_c, 0, 62, 64
1, 521, Note_on_c, 0, 62, 0
1, 521, Note_on_c, 0, 50, 0
1, 527, Note_on_c, 0, 62, 0
1, 528, Note_on_c, 0, 72, 64
1, 528, Note_on_c, 0, 69, 64
1, 528, Note_on_c, 0, 54, 64
1, 548, Note_on_c, 0, 72, 0
1, 548, Note_on_c, 0, 69, 0
1, 573, Note_on_c, 0, 54, 0
1, 576, Note_on_c, 0, 72, 64
1, 576, Note_on_c, 0, 69, 64
1, 576, Note_on_c, 0, 55, 64
1, 621, Note_on_c, 0, 72, 0
1, 621, Note_on_c, 0, 69, 0
1, 621, Note_on_c, 0, 55, 0
1, 624, Note_on_c, 0, 71, 64
1, 624, Note_on_c, 0, 67, 64
1, 624, Note_on_c, 0, 43, 64
1, 669, Note_on_c, 0, 71, 0
1, 669, Note_on_c, 0, 67, 0
1, 669, Note_on_c, 0, 43, 0
1, 672, Note_on_c, 0, 67, 64
1, 717, Note_on_c, 0, 67, 0
1, 720, Note_on_c, 0, 71, 64
1, 720, Note_on_c, 0, 55, 64
1, 720, Note_on_c, 0, 43, 64
1, 743, Note_on_c, 0, 71, 0
1, 744, Note_on_c, 0, 67, 64
1, 767, Note_on_c, 0, 67, 0
1, 768, Note_on_c, 0, 71, 64
1, 791, Note_on_c, 0, 71, 0
1, 792, Note_on_c, 0, 67, 64
1, 809, Note_on_c, 0, 55, 0
1, 809, Note_on_c, 0, 43, 0
1, 815, Note_on_c, 0, 67, 0
1, 816, Note_on_c, 0, 72, 64
1, 816, Note_on_c, 0, 57, 64
1, 816, Note_on_c, 0, 45, 64
1, 839, Note_on_c, 0, 72, 0
1, 840, Note_on_c, 0, 67, 64
1, 861, Note_on_c, 0, 57, 0
1, 861, Note_on_c, 0, 45, 0
1, 863, Note_on_c, 0, 67, 0
1, 864, Note_on_c, 0, 74, 64
1, 864, Note_on_c, 0, 59, 64
1, 864, Note_on_c, 0, 47, 64
1, 887, Note_on_c, 0, 74, 0
1, 888, Note_on_c, 0, 67, 64
1, 911, Note_on_c, 0, 67, 0
1, 912, Note_on_c, 0, 74, 64
1, 935, Note_on_c, 0, 74, 0
1, 936, Note_on_c, 0, 67, 64
1, 953, Note_on_c, 0, 59, 0
1, 953, Note_on_c, 0, 47, 0
1, 959, Note_on_c, 0, 67, 0
1, 960, Note_on_c, 0, 76, 64
1, 960, Note_on_c, 0, 60, 64
1, 960, Note_on_c, 0, 48, 64
1, 983, Note_on_c, 0, 76, 0
1, 984, Note_on_c, 0, 67, 64
1, 1005, Note_on_c, 0, 60, 0
1, 1005, Note_on_c, 0, 48, 0
1, 1007, Note_on_c, 0, 67, 0
1, 1008, Note_on_c, 0, 74, 64
1, 1008, Note_on_c, 0, 59, 64
1, 1053, Note_on_c, 0, 74, 0
1, 1053, Note_on_c, 0, 59, 0
1, 1056, Note_on_c, 0, 67, 64
1, 1056, Note_on_c, 0, 62, 64
1, 1101, Note_on_c, 0, 67, 0
1, 1101, Note_on_c, 0, 62, 0
1, 1104, Note_on_c, 0, 66, 64
1, 1104, Note_on_c, 0, 50, 64
1, 1149, Note_on_c, 0, 66, 0
1, 1149, Note_on_c, 0, 50, 0
1, 1152, Note_on_c, 0, 67, 64
1, 1152, Note_on_c, 0, 55, 64
1, 1197, Note_on_c, 0, 55, 0
1, 1200, Note_on_c, 0, 43, 64
1, 1241, Note_on_c, 0, 67, 0
1, 1245, Note_on_c, 0, 43, 0
1, 1248, Note_on_c, 0, 67, 64
1, 1293, Note_on_c, 0, 67, 0
1, 1296, Note_on_c, 0, 71, 64
1, 1296, Note_on_c, 0, 55, 64
1, 1296, Note_on_c, 0, 43, 64
1, 1319, Note_on_c, 0, 71, 0
1, 1320, Note_on_c, 0, 67, 64
1, 1343, Note_on_c, 0, 67, 0
1, 1344, Note_on_c, 0, 71, 64
1, 1367, Note_on_c, 0, 71, 0
1, 1368, Note_on_c, 0, 67, 64
1, 1385, Note_on_c, 0, 55, 0
1, 1385, Note_on_c, 0, 43, 0
1, 1391, Note_on_c, 0, 67, 0
1, 1392, Note_on_c, 0, 72, 64
1, 1392, Note_on_c, 0, 57, 64
1, 1392, Note_on_c, 0, 45, 64
1, 1415, Note_on_c, 0, 72, 0
1, 1416, Note_on_c, 0, 67, 64
1, 1437, Note_on_c, 0, 57, 0
1, 1437, Note_on_c, 0, 45, 0
1, 1439, Note_on_c, 0, 67, 0
1, 1440, Note_on_c, 0, 74, 64
1, 1440, Note_on_c, 0, 59, 64
1, 1440, Note_on_c, 0, 47, 64
1, 1463, Note_on_c, 0, 74, 0
1, 1464, Note_on_c, 0, 67, 64
1, 1487, Note_on_c, 0, 67, 0
1, 1488, Note_on_c, 0, 74, 64
1, 1511, Note_on_c, 0, 74, 0
1, 1512, Note_on_c, 0, 67, 64
1, 1529, Note_on_c, 0, 59, 0
1, 1529, Note_on_c, 0, 47, 0
1, 1535, Note_on_c, 0, 67, 0
1, 1536, Note_on_c, 0, 76, 64
1, 1536, Note_on_c, 0, 60, 64
1, 1536, Note_on_c, 0, 48, 64
1, 1559, Note_on_c, 0, 76, 0
1, 1560, Note_on_c, 0, 67, 64
1, 1581, Note_on_c, 0, 60, 0
1, 1581, Note_on_c, 0, 48, 0
1, 1583, Note_on_c, 0, 67, 0
1, 1584, Note_on_c, 0, 67, 64
1, 1584, Note_on_c, 0, 62, 64
1, 1584, Note_on_c, 0, 50, 64
1, 1607, Note_on_c, 0, 67, 0
1, 1608, Note_on_c, 0, 66, 64
1, 1631, Note_on_c, 0, 66, 0
1, 1632, Note_on_c, 0, 64, 64
1, 1655, Note_on_c, 0, 64, 0
1, 1656, Note_on_c, 0, 62, 64
1, 1673, Note_on_c, 0, 62, 0
1, 1673, Note_on_c, 0, 50, 0
1, 1679, Note_on_c, 0, 62, 0
1, 1680, Note_on_c, 0, 72, 64
1, 1680, Note_on_c, 0, 69, 64
1, 1680, Note_on_c, 0, 54, 64
1, 1700, Note_on_c, 0, 72, 0
1, 1700, Note_on_c, 0, 69, 0
1, 1725, Note_on_c, 0, 54, 0
1, 1728, Note_on_c, 0, 72, 64
1, 1728, Note_on_c, 0, 69, 64
1, 1728, Note_on_c, 0, 55, 64
1, 1773, Note_on_c, 0, 72, 0
1, 1773, Note_on_c, 0, 69, 0
1, 1773, Note_on_c, 0, 55, 0
1, 1776, Note_on_c, 0, 71, 64
1, 1776, Note_on_c, 0, 67, 64
1, 1776, Note_on_c, 0, 43, 64
1, 1821, Note_on_c, 0, 71, 0
1, 1821, Note_on_c, 0, 67, 0
1, 1821, Note_on_c, 0, 43, 0
1, 1824, Note_on_c, 0, 67, 64
1, 1869, Note_on_c, 0, 67, 0
1, 1872, Note_on_c, 0, 71, 64
1, 1872, Note_on_c, 0, 55, 64
1, 1872, Note_on_c, 0, 43, 64
1, 1895, Note_on_c, 0, 71, 0
1, 1896, Note_on_c, 0, 67, 64
1, 1919, Note_on_c, 0, 67, 0
1, 1920, Note_on_c, 0, 71, 64
1, 1943, Note_on_c, 0, 71, 0
1, 1944, Note_on_c, 0, 67, 64
1, 1961, Note_on_c, 0, 55, 0
1, 1961, Note_on_c, 0, 43, 0
1, 1967, Note_on_c, 0, 67, 0
1, 1968, Note_on_c, 0, 72, 64
1, 1968, Note_on_c, 0, 57, 64
1, 1968, Note_on_c, 0, 45, 64
1, 1991, Note_on_c, 0, 72, 0
1, 1992, Note_on_c, 0, 67, 64
1, 2013, Note_on_c, 0, 57, 0
1, 2013, Note_on_c, 0, 45, 0
1, 2015, Note_on_c, 0, 67, 0
1, 2016, Note_on_c, 0, 74, 64
1, 2016, Note_on_c, 0, 59, 64
1, 2016, Note_on_c, 0, 47, 64
1, 2039, Note_on_c, 0, 74, 0
1, 2040, Note_on_c, 0, 67, 64
1, 2063, Note_on_c, 0, 67, 0
1, 2064, Note_on_c, 0, 74, 64
1, 2087, Note_on_c, 0, 74, 0
1, 2088, Note_on_c, 0, 67, 64
1, 2105, Note_on_c, 0, 59, 0
1, 2105, Note_on_c, 0, 47, 0
1, 2111, Note_on_c, 0, 67, 0
1, 2112, Note_on_c, 0, 76, 64
1, 2112, Note_on_c, 0, 60, 64
1, 2112, Note_on_c, 0, 48, 64
1, 2135, Note_on_c, 0, 76, 0
1, 2136, Note_on_c, 0, 67, 64
1, 2157, Note_on_c, 0, 60, 0
1, 2157, Note_on_c, 0, 48, 0
1, 2159, Note_on_c, 0, 67, 0
1, 2160, Note_on_c, 0, 74, 64
1, 2160, Note_on_c, 0, 59, 64
1, 2205, Note_on_c, 0, 74, 0
1, 2205, Note_on_c, 0, 59, 0
1, 2208, Note_on_c, 0, 67, 64
1, 2208, Note_on_c, 0, 62, 64
1, 2253, Note_on_c, 0, 67, 0
1, 2253, Note_on_c, 0, 62, 0
1, 2256, Note_on_c, 0, 66, 64
1, 2256, Note_on_c, 0, 50, 64
1, 2301, Note_on_c, 0, 66, 0
1, 2301, Note_on_c, 0, 50, 0
1, 2304, Note_on_c, 0, 67, 64
1, 2304, Note_on_c, 0, 55, 64
1, 2349, Note_on_c, 0, 55, 0
1, 2352, Note_on_c, 0, 43, 64
1, 2393, Note_on_c, 0, 67, 0
1, 2397, Note_on_c, 0, 43, 0
1, 2400, Note_on_c, 0, 74, 64
1, 2445, Note_on_c, 0, 74, 0
1, 2448, Note_on_c, 0, 66, 64
1, 2448, Note_on_c, 0, 60, 64
1, 2448, Note_on_c, 0, 48, 64
1, 2471, Note_on_c, 0, 66, 0
1, 2472, Note_on_c, 0, 74, 64
1, 2495, Note_on_c, 0, 74, 0
1, 2496, Note_on_c, 0, 66, 64
1, 2519, Note_on_c, 0, 66, 0
1, 2520, Note_on_c, 0, 74, 64
1, 2537, Note_on_c, 0, 60, 0
1, 2537, Note_on_c, 0, 48, 0
1, 2543, Note_on_c, 0, 74, 0
1, 2544, Note_on_c, 0, 67, 64
1, 2544, Note_on_c, 0, 59, 64
1, 2544, Note_on_c, 0, 47, 64
1, 2567, Note_on_c, 0, 67, 0
1, 2568, Note_on_c, 0, 74, 64
1, 2589, Note_on_c, 0, 59, 0
1, 2589, Note_on_c, 0, 47, 0
1, 2591, Note_on_c, 0, 74, 0
1, 2592, Note_on_c, 0, 72, 64
1, 2592, Note_on_c, 0, 54, 64
1, 2592, Note_on_c, 0, 42, 64
1, 2615, Note_on_c, 0, 72, 0
1, 2616, Note_on_c, 0, 71, 64
1, 2639, Note_on_c, 0, 71, 0
1, 2640, Note_on_c, 0, 72, 64
1, 2663, Note_on_c, 0, 72, 0
1, 2664, Note_on_c, 0, 69, 64
1, 2681, Note_on_c, 0, 54, 0
1, 2681, Note_on_c, 0, 42, 0
1, 2687, Note_on_c, 0, 69, 0
1, 2688, Note_on_c, 0, 71, 64
1, 2688, Note_on_c, 0, 55, 64
1, 2688, Note_on_c, 0, 43, 64
1, 2733, Note_on_c, 0, 71, 0
1, 2733, Note_on_c, 0, 55, 0
1, 2733, Note_on_c, 0, 43, 0
1, 2736, Note_on_c, 0, 66, 64
1, 2736, Note_on_c, 0, 60, 64
1, 2736, Note_on_c, 0, 48, 64
1, 2759, Note_on_c, 0, 66, 0
1, 2760, Note_on_c, 0, 74, 64
1, 2783, Note_on_c, 0, 74, 0
1, 2784, Note_on_c, 0, 66, 64
1, 2807, Note_on_c, 0, 66, 0
1, 2808, Note_on_c, 0, 74, 64
1, 2825, Note_on_c, 0, 60, 0
1, 2825, Note_on_c, 0, 48, 0
1, 2831, Note_on_c, 0, 74, 0
1, 2832, Note_on_c, 0, 67, 64
1, 2832, Note_on_c, 0, 59, 64
1, 2832, Note_on_c, 0, 47, 64
1, 2855, Note_on_c, 0, 67, 0
1, 2856, Note_on_c, 0, 74, 64
1, 2877, Note_on_c, 0, 59, 0
1, 2877, Note_on_c, 0, 47, 0
1, 2879, Note_on_c, 0, 74, 0
1, 2880, Note_on_c, 0, 72, 64
1, 2880, Note_on_c, 0, 54, 64
1, 2880, Note_on_c, 0, 42, 64
1, 2903, Note_on_c, 0, 72, 0
1, 2904, Note_on_c, 0, 71, 64
1, 2927, Note_on_c, 0, 71, 0
1, 2928, Note_on_c, 0, 72, 64
1, 2951, Note_on_c, 0, 72, 0
1, 2952, Note_on_c, 0, 69, 64
1, 2969, Note_on_c, 0, 54, 0
1, 2969, Note_on_c, 0, 42, 0
1, 2975, Note_on_c, 0, 69, 0
1, 2976, Note_on_c, 0, 71, 64
1, 2976, Note_on_c, 0, 55, 64
1, 2976, Note_on_c, 0, 43, 64
1, 3021, Note_on_c, 0, 71, 0
1, 3021, Note_on_c, 0, 55, 0
1, 3021, Note_on_c, 0, 43, 0
1, 3024, Note_on_c, 0, 79, 64
1, 3024, Note_on_c, 0, 59, 64
1, 3024, Note_on_c, 0, 47, 64
1, 3047, Note_on_c, 0, 79, 0
1, 3048, Note_on_c, 0, 78, 64
1, 3071, Note_on_c, 0, 78, 0
1, 3072, Note_on_c, 0, 79, 64
1, 3095, Note_on_c, 0, 79, 0
1, 3096, Note_on_c, 0, 83, 64
1, 3113, Note_on_c, 0, 59, 0
1, 3113, Note_on_c, 0, 47, 0
1, 3119, Note_on_c, 0, 83, 0
1, 3120, Note_on_c, 0, 74, 64
1, 3120, Note_on_c, 0, 59, 64
1, 3120, Note_on_c, 0, 47, 64
1, 3165, Note_on_c, 0, 74, 0
1, 3165, Note_on_c, 0, 59, 0
1, 3165, Note_on_c, 0, 47, 0
1, 3168, Note_on_c, 0, 76, 64
1, 3168, Note_on_c, 0, 60, 64
1, 3168, Note_on_c, 0, 48, 64
1, 3191, Note_on_c, 0, 76, 0
1, 3192, Note_on_c, 0, 74, 64
1, 3215, Note_on_c, 0, 74, 0
1, 3216, Note_on_c, 0, 76, 64
1, 3239, Note_on_c, 0, 76, 0
1, 3240, Note_on_c, 0, 79, 64
1, 3257, Note_on_c, 0, 60, 0
1, 3257, Note_on_c, 0, 48, 0
1, 3263, Note_on_c, 0, 79, 0
1, 3264, Note_on_c, 0, 74, 64
1, 3264, Note_on_c, 0, 59, 64
1, 3264, Note_on_c, 0, 47, 64
1, 3309, Note_on_c, 0, 74, 0
1, 3309, Note_on_c, 0, 59, 0
1, 3309, Note_on_c, 0, 47, 0
1, 3312, Note_on_c, 0, 72, 64
1, 3312, Note_on_c, 0, 57, 64
1, 3335, Note_on_c, 0, 72, 0
1, 3336, Note_on_c, 0, 71, 64
1, 3357, Note_on_c, 0, 57, 0
1, 3359, Note_on_c, 0, 71, 0
1, 3360, Note_on_c, 0, 72, 64
1, 3360, Note_on_c, 0, 54, 64
1, 3383, Note_on_c, 0, 72, 0
1, 3384, Note_on_c, 0, 69, 64
1, 3405, Note_on_c, 0, 54, 0
1, 3407, Note_on_c, 0, 69, 0
1, 3408, Note_on_c, 0, 71, 64
1, 3408, Note_on_c, 0, 55, 64
1, 3431, Note_on_c, 0, 71, 0
1, 3432, Note_on_c, 0, 67, 64
1, 3453, Note_on_c, 0, 55, 0
1, 3455, Note_on_c, 0, 67, 0
1, 3456, Note_on_c, 0, 62, 64
1, 3456, Note_on_c, 0, 50, 64
1, 3501, Note_on_c, 0, 50, 0
1, 3504, Note_on_c, 0, 38, 64
1, 3545, Note_on_c, 0, 62, 0
1, 3549, Note_on_c, 0, 38, 0
1, 3552, Note_on_c, 0, 67, 64
1, 3597, Note_on_c, 0, 67, 0
1, 3600, Note_on_c, 0, 71, 64
1, 3600, Note_on_c, 0, 55, 64
1, 3600, Note_on_c, 0, 43, 64
1, 3623, Note_on_c, 0, 71, 0
1, 3624, Note_on_c, 0, 67, 64
1, 3647, Note_on_c, 0, 67, 0
1, 3648, Note_on_c, 0, 71, 64
1, 3671, Note_on_c, 0, 71, 0
1, 3672, Note_on_c, 0, 67, 64
1, 3689, Note_on_c, 0, 55, 0
1, 3689, Note_on_c, 0, 43, 0
1, 3695, Note_on_c, 0, 67, 0
1, 3696, Note_on_c, 0, 72, 64
1, 3696, Note_on_c, 0, 57, 64
1, 3696, Note_on_c, 0, 45, 64
1, 3719, Note_on_c, 0, 72, 0
1, 3720, Note_on_c, 0, 67, 64
1, 3741, Note_on_c, 0, 57, 0
1, 3741, Note_on_c, 0, 45, 0
1, 3743, Note_on_c, 0, 67, 0
1, 3744, Note_on_c, 0, 74, 64
1, 3744, Note_on_c, 0, 59, 64
1, 3744, Note_on_c, 0, 47, 64
1, 3767, Note_on_c, 0, 74, 0
1, 3768, Note_on_c, 0, 67, 64
1, 3791, Note_on_c, 0, 67, 0
1, 3792, Note_on_c, 0, 74, 64
1, 3815, Note_on_c, 0, 74, 0
1, 3816, Note_on_c, 0, 67, 64
1, 3833, Note_on_c, 0, 59, 0
1, 3833, Note_on_c, 0, 47, 0
1, 3839, Note_on_c, 0, 67, 0
1, 3840, Note_on_c, 0, 76, 64
1, 3840, Note_on_c, 0, 60, 64
1, 3840, Note_on_c, 0, 48, 64
1, 3863, Note_on_c, 0, 76, 0
1, 3864, Note_on_c, 0, 67, 64
1, 3885, Note_on_c, 0, 60, 0
1, 3885, Note_on_c, 0, 48, 0
1, 3887, Note_on_c, 0, 67, 0
1, 3888, Note_on_c, 0, 67, 64
1, 3888, Note_on_c, 0, 62, 64
1, 3888, Note_on_c, 0, 50, 64
1, 3911, Note_on_c, 0, 67, 0
1, 3912, Note_on_c, 0, 66, 64
1, 3935, Note_on_c, 0, 66, 0
1, 3936, Note_on_c, 0, 64, 64
1, 3959, Note_on_c, 0, 64, 0
1, 3960, Note_on_c, 0, 62, 64
1, 3977, Note_on_c, 0, 62, 0
1, 3977, Note_on_c, 0, 50, 0
1, 3983, Note_on_c, 0, 62, 0
1, 3984, Note_on_c, 0, 72, 64
1, 3984, Note_on_c, 0, 69, 64
1, 3984, Note_on_c, 0, 54, 64
1, 4004, Note_on_c, 0, 72, 0
1, 4004, Note_on_c, 0, 69, 0
1, 4029, Note_on_c, 0, 54, 0
1, 4032, Note_on_c, 0, 72, 64
1, 4032, Note_on_c, 0, 69, 64
1, 4032, Note_on_c, 0, 55, 64
1, 4077, Note_on_c, 0, 72, 0
1, 4077, Note_on_c, 0, 69, 0
1, 4077, Note_on_c, 0, 55, 0
1, 4080, Note_on_c, 0, 71, 64
1, 4080, Note_on_c, 0, 67, 64
1, 4080, Note_on_c, 0, 43, 64
1, 4125, Note_on_c, 0, 71, 0
1, 4125, Note_on_c, 0, 67, 0
1, 4125, Note_on_c, 0, 43, 0
1, 4128, Note_on_c, 0, 67, 64
1, 4173, Note_on_c, 0, 67, 0
1, 4176, Note_on_c, 0, 71, 64
1, 4176, Note_on_c, 0, 55, 64
1, 4176, Note_on_c, 0, 43, 64
1, 4199, Note_on_c, 0, 71, 0
1, 4200, Note_on_c, 0, 67, 64
1, 4223, Note_on_c, 0, 67, 0
1, 4224, Note_on_c, 0, 71, 64
1, 4247, Note_on_c, 0, 71, 0
1, 4248, Note_on_c, 0, 67, 64
1, 4265, Note_on_c, 0, 55, 0
1, 4265, Note_on_c, 0, 43, 0
1, 4271, Note_on_c, 0, 67, 0
1, 4272, Note_on_c, 0, 72, 64
1, 4272, Note_on_c, 0, 57, 64
1, 4272, Note_on_c, 0, 45, 64
1, 4295, Note_on_c, 0, 72, 0
1, 4296, Note_on_c, 0, 67, 64
1, 4317, Note_on_c, 0, 57, 0
1, 4317, Note_on_c, 0, 45, 0
1, 4319, Note_on_c, 0, 67, 0
1, 4320, Note_on_c, 0, 74, 64
1, 4320, Note_on_c, 0, 59, 64
1, 4320, Note_on_c, 0, 47, 64
1, 4343, Note_on_c, 0, 74, 0
1, 4344, Note_on_c, 0, 67, 64
1, 4367, Note_on_c, 0, 67, 0
1, 4368, Note_on_c, 0, 74, 64
1, 4391, Note_on_c, 0, 74, 0
1, 4392, Note_on_c, 0, 67, 64
1, 4409, Note_on_c, 0, 59, 0
1, 4409, Note_on_c, 0, 47, 0
1, 4415, Note_on_c, 0, 67, 0
1, 4416, Note_on_c, 0, 76, 64
1, 4416, Note_on_c, 0, 60, 64
1, 4416, Note_on_c, 0, 48, 64
1, 4439, Note_on_c, 0, 76, 0
1, 4440, Note_on_c, 0, 67, 64
1, 4461, Note_on_c, 0, 60, 0
1, 4461, Note_on_c, 0, 48, 0
1, 4463, Note_on_c, 0, 67, 0
1, 4464, Note_on_c, 0, 74, 64
1, 4464, Note_on_c, 0, 59, 64
1, 4509, Note_on_c, 0, 74, 0
1, 4509, Note_on_c, 0, 59, 0
1, 4512, Note_on_c, 0, 67, 64
1, 4512, Note_on_c, 0, 62, 64
1, 4557, Note_on_c, 0, 67, 0
1, 4557, Note_on_c, 0, 62, 0
1, 4560, Note_on_c, 0, 66, 64
1, 4560, Note_on_c, 0, 50, 64
1, 4605, Note_on_c, 0, 66, 0
1, 4605, Note_on_c, 0, 50, 0
1, 4608, Note_on_c, 0, 67, 64
1, 4608, Note_on_c, 0, 55, 64
1, 4653, Note_on_c, 0, 55, 0
1, 4656, Note_on_c, 0, 43, 64
1, 4697, Note_on_c, 0, 67, 0
1, 4701, Note_on_c, 0, 43, 0
1, 4704, Note_on_c, 0, 74, 64
1, 4749, Note_on_c, 0, 74, 0
1, 4752, Note_on_c, 0, 66, 64
1, 4752, Note_on_c, 0, 60, 64
1, 4752, Note_on_c, 0, 48, 64
1, 4775, Note_on_c, 0, 66, 0
1, 4776, Note_on_c, 0, 74, 64
1, 4799, Note_on_c, 0, 74, 0
1, 4800, Note_on_c, 0, 66, 64
1, 4823, Note_on_c, 0, 66, 0
1, 4824, Note_on_c, 0, 74, 64
1, 4841, Note_on_c, 0, 60, 0
1, 4841, Note_on_c, 0, 48, 0
1, 4847, Note_on_c, 0, 74, 0
1, 4848, Note_on_c, 0, 67, 64
1, 4848, Note_on_c, 0, 59, 64
1, 4848, Note_on_c, 0, 47, 64
1, 4871, Note_on_c, 0, 67, 0
1, 4872, Note_on_c, 0, 74, 64
1, 4893, Note_on_c, 0, 59, 0
1, 4893, Note_on_c, 0, 47, 0
1, 4895, Note_on_c, 0, 74, 0
1, 4896, Note_on_c, 0, 72, 64
1, 4896, Note_on_c, 0, 54, 64
1, 4896, Note_on_c, 0, 42, 64
1, 4919, Note_on_c, 0, 72, 0
1, 4920, Note_on_c, 0, 71, 64
1, 4943, Note_on_c, 0, 71, 0
1, 4944, Note_on_c, 0, 72, 64
1, 4967, Note_on_c, 0, 72, 0
1, 4968, Note_on_c, 0, 69, 64
1, 4985, Note_on_c, 0, 54, 0
1, 4985, Note_on_c, 0, 42, 0
1, 4991, Note_on_c, 0, 69, 0
1, 4992, Note_on_c, 0, 71, 64
1, 4992, Note_on_c, 0, 55, 64
1, 4992, Note_on_c, 0, 43, 64
1, 5037, Note_on_c, 0, 71, 0
1, 5037, Note_on_c, 0, 55, 0
1, 5037, Note_on_c, 0, 43, 0
1, 5040, Note_on_c, 0, 66, 64
1, 5040, Note_on_c, 0, 60, 64
1, 5040, Note_on_c, 0, 48, 64
1, 5063, Note_on_c, 0, 66, 0
1, 5064, Note_on_c, 0, 74, 64
1, 5087, Note_on_c, 0, 74, 0
1, 5088, Note_on_c, 0, 66, 64
1, 5111, Note_on_c, 0, 66, 0
1, 5112, Note_on_c, 0, 74, 64
1, 5129, Note_on_c, 0, 60, 0
1, 5129, Note_on_c, 0, 48, 0
1, 5135, Note_on_c, 0, 74, 0
1, 5136, Note_on_c, 0, 67, 64
1, 5136, Note_on_c, 0, 59, 64
1, 5136, Note_on_c, 0, 47, 64
1, 5159, Note_on_c, 0, 67, 0
1, 5160, Note_on_c, 0, 74, 64
1, 5181, Note_on_c, 0, 59, 0
1, 5181, Note_on_c, 0, 47, 0
1, 5183, Note_on_c, 0, 74, 0
1, 5184, Note_on_c, 0, 72, 64
1, 5184, Note_on_c, 0, 54, 64
1, 5184, Note_on_c, 0, 42, 64
1, 5207, Note_on_c, 0, 72, 0
1, 5208, Note_on_c, 0, 71, 64
1, 5231, Note_on_c, 0, 71, 0
1, 5232, Note_on_c, 0, 72, 64
1, 5255, Note_on_c, 0, 72, 0
1, 5256, Note_on_c, 0, 69, 64
1, 5273, Note_on_c, 0, 54, 0
1, 5273, Note_on_c, 0, 42, 0
1, 5279, Note_on_c, 0, 69, 0
1, 5280, Note_on_c, 0, 71, 64
1, 5280, Note_on_c, 0, 55, 64
1, 5280, Note_on_c, 0, 43, 64
1, 5325, Note_on_c, 0, 71, 0
1, 5325, Note_on_c, 0, 55, 0
1, 5325, Note_on_c, 0, 43, 0
1, 5328, Note_on_c, 0, 79, 64
1, 5328, Note_on_c, 0, 59, 64
1, 5328, Note_on_c, 0, 47, 64
1, 5351, Note_on_c, 0, 79, 0
1, 5352, Note_on_c, 0, 78, 64
1, 5375, Note_on_c, 0, 78, 0
1, 5376, Note_on_c, 0, 79, 64
1, 5399, Note_on_c, 0, 79, 0
1, 5400, Note_on_c, 0, 83, 64
1, 5417, Note_on_c, 0, 59, 0
1, 5417, Note_on_c, 0, 47, 0
1, 5423, Note_on_c, 0, 83, 0
1, 5424, Note_on_c, 0, 74, 64
1, 5424, Note_on_c, 0, 59, 64
1, 5424, Note_on_c, 0, 47, 64
1, 5469, Note_on_c, 0, 74, 0
1, 5469, Note_on_c, 0, 59, 0
1, 5469, Note_on_c, 0, 47, 0
1, 5472, Note_on_c, 0, 76, 64
1, 5472, Note_on_c, 0, 60, 64
1, 5472, Note_on_c, 0, 48, 64
1, 5495, Note_on_c, 0, 76, 0
1, 5496, Note_on_c, 0, 74, 64
1, 5519, Note_on_c, 0, 74, 0
1, 5520, Note_on_c, 0, 76, 64
1, 5543, Note_on_c, 0, 76, 0
1, 5544, Note_on_c, 0, 79, 64
1, 5561, Note_on_c, 0, 60, 0
1, 5561, Note_on_c, 0, 48, 0
1, 5567, Note_on_c, 0, 79, 0
1, 5568, Note_on_c, 0, 74, 64
1, 5568, Note_on_c, 0, 59, 64
1, 5568, Note_on_c, 0, 47, 64
1, 5613, Note_on_c, 0, 74, 0
1, 5613, Note_on_c, 0, 59, 0
1, 5613, Note_on_c, 0, 47, 0
1, 5616, Note_on_c, 0, 72, 64
1, 5616, Note_on_c, 0, 57, 64
1, 5639, Note_on_c, 0, 72, 0
1, 5640, Note_on_c, 0, 71, 64
1, 5661, Note_on_c, 0, 57, 0
1, 5663, Note_on_c, 0, 71, 0
1, 5664, Note_on_c, 0, 72, 64
1, 5664, Note_on_c, 0, 54, 64
1, 5687, Note_on_c, 0, 72, 0
1, 5688, Note_on_c, 0, 69, 64
1, 5709, Note_on_c, 0, 54, 0
1, 5711, Note_on_c, 0, 69, 0
1, 5712, Note_on_c, 0, 71, 64
1, 5712, Note_on_c, 0, 55, 64
1, 5735, Note_on_c, 0, 71, 0
1, 5736, Note_on_c, 0, 67, 64
1, 5757, Note_on_c, 0, 55, 0
1, 5759, Note_on_c, 0, 67, 0
1, 5760, Note_on_c, 0, 62, 64
1, 5760, Note_on_c, 0, 50, 64
1, 5805, Note_on_c, 0, 50, 0
1, 5808, Note_on_c, 0, 38, 64
1, 5849, Note_on_c, 0, 62, 0
1, 5853, Note_on_c, 0, 38, 0
1, 5856, Note_on_c, 0, 67, 64
1, 5901, Note_on_c, 0, 67, 0
1, 5904, Note_on_c, 0, 71, 64
1, 5904, Note_on_c, 0, 55, 64
1, 5904, Note_on_c, 0, 43, 64
1, 5927, Note_on_c, 0, 71, 0
1, 5928, Note_on_c, 0, 67, 64
1, 5951, Note_on_c, 0, 67, 0
1, 5952, Note_on_c, 0, 71, 64
1, 5975, Note_on_c, 0, 71, 0
1, 5976, Note_on_c, 0, 67, 64
1, 5993, Note_on_c, 0, 55, 0
1, 5993, Note_on_c, 0, 43, 0
1, 5999, Note_on_c, 0, 67, 0
1, 6000, Note_on_c, 0, 72, 64
1, 6000, Note_on_c, 0, 57, 64
1, 6000, Note_on_c, 0, 45, 64
1, 6023, Note_on_c, 0, 72, 0
1, 6024, Note_on_c, 0, 67, 64
1, 6045, Note_on_c, 0, 57, 0
1, 6045, Note_on_c, 0, 45, 0
1, 6047, Note_on_c, 0, 67, 0
1, 6048, Note_on_c, 0, 74, 64
1, 6048, Note_on_c, 0, 59, 64
1, 6048, Note_on_c, 0, 47, 64
1, 6071, Note_on_c, 0, 74, 0
1, 6072, Note_on_c, 0, 67, 64
1, 6095, Note_on_c, 0, 67, 0
1, 6096, Note_on_c, 0, 74, 64
1, 6119, Note_on_c, 0, 74, 0
1, 6120, Note_on_c, 0, 67, 64
1, 6137, Note_on_c, 0, 59, 0
1, 6137, Note_on_c, 0, 47, 0
1, 6143, Note_on_c, 0, 67, 0
1, 6144, Note_on_c, 0, 76, 64
1, 6144, Note_on_c, 0, 60, 64
1, 6144, Note_on_c, 0, 48, 64
1, 6167, Note_on_c, 0, 76, 0
1, 6168, Note_on_c, 0, 67, 64
1, 6189, Note_on_c, 0, 60, 0
1, 6189, Note_on_c, 0, 48, 0
1, 6191, Note_on_c, 0, 67, 0
1, 6192, Note_on_c, 0, 67, 64
1, 6192, Note_on_c, 0, 62, 64
1, 6192, Note_on_c, 0, 50, 64
1, 6215, Note_on_c, 0, 67, 0
1, 6216, Note_on_c, 0, 66, 64
1, 6239, Note_on_c, 0, 66, 0
1, 6240, Note_on_c, 0, 64, 64
1, 6263, Note_on_c, 0, 64, 0
1, 6264, Note_on_c, 0, 62, 64
1, 6281, Note_on_c, 0, 62, 0
1, 6281, Note_on_c, 0, 50, 0
1, 6287, Note_on_c, 0, 62, 0
1, 6288, Note_on_c, 0, 72, 64
1, 6288, Note_on_c, 0, 69, 64
1, 6288, Note_on_c, 0, 54, 64
1, 6308, Note_on_c, 0, 72, 0
1, 6308, Note_on_c, 0, 69, 0
1, 6333, Note_on_c, 0, 54, 0
1, 6336, Note_on_c, 0, 72, 64
1, 6336, Note_on_c, 0, 69, 64
1, 6336, Note_on_c, 0, 55, 64
1, 6381, Note_on_c, 0, 72, 0
1, 6381, Note_on_c, 0, 69, 0
1, 6381, Note_on_c, 0, 55, 0
1, 6384, Note_on_c, 0, 71, 64
1, 6384, Note_on_c, 0, 67, 64
1, 6384, Note_on_c, 0, 43, 64
1, 6429, Note_on_c, 0, 71, 0
1, 6429, Note_on_c, 0, 67, 0
1, 6429, Note_on_c, 0, 43, 0
1, 6432, Note_on_c, 0, 67, 64
1, 6477, Note_on_c, 0, 67, 0
1, 6480, Note_on_c, 0, 71, 64
1, 6480, Note_on_c, 0, 55, 64
1, 6480, Note_on_c, 0, 43, 64
1, 6503, Note_on_c, 0, 71, 0
1, 6504, Note_on_c, 0, 67, 64
1, 6527, Note_on_c, 0, 67, 0
1, 6528, Note_on_c, 0, 71, 64
1, 6551, Note_on_c, 0, 71, 0
1, 6552, Note_on_c, 0, 67, 64
1, 6569, Note_on_c, 0, 55, 0
1, 6569, Note_on_c, 0, 43, 0
1, 6575, Note_on_c, 0, 67, 0
1, 6576, Note_on_c, 0, 72, 64
1, 6576, Note_on_c, 0, 57, 64
1, 6576, Note_on_c, 0, 45, 64
1, 6599, Note_on_c, 0, 72, 0
1, 6600, Note_on_c, 0, 67, 64
1, 6621, Note_on_c, 0, 57, 0
1, 6621, Note_on_c, 0, 45, 0
1, 6623, Note_on_c, 0, 67, 0
1, 6624, Note_on_c, 0, 74, 64
1, 6624, Note_on_c, 0, 59, 64
1, 6624, Note_on_c, 0, 47, 64
1, 6647, Note_on_c, 0, 74, 0
1, 6648, Note_on_c, 0, 67, 64
1, 6671, Note_on_c, 0, 67, 0
1, 6672, Note_on_c, 0, 74, 64
1, 6695, Note_on_c, 0, 74, 0
1, 6696, Note_on_c, 0, 67, 64
1, 6713, Note_on_c, 0, 59, 0
1, 6713, Note_on_c, 0, 47, 0
1, 6719, Note_on_c, 0, 67, 0
1, 6720, Note_on_c, 0, 76, 64
1, 6720, Note_on_c, 0, 60, 64
1, 6720, Note_on_c, 0, 48, 64
1, 6743, Note_on_c, 0, 76, 0
1, 6744, Note_on_c, 0, 67, 64
1, 6765, Note_on_c, 0, 60, 0
1, 6765, Note_on_c, 0, 48, 0
1, 6767, Note_on_c, 0, 67, 0
1, 6768, Note_on_c, 0, 74, 64
1, 6768, Note_on_c, 0, 59, 64
1, 6813, Note_on_c, 0, 74, 0
1, 6813, Note_on_c, 0, 59, 0
1, 6816, Note_on_c, 0, 67, 64
1, 6816, Note_on_c, 0, 62, 64
1, 6861, Note_on_c, 0, 67, 0
1, 6861, Note_on_c, 0, 62, 0
1, 6864, Note_on_c, 0, 66, 64
1, 6864, Note_on_c, 0, 50, 64
1, 6909, Note_on_c, 0, 66, 0
1, 6909, Note_on_c, 0, 50, 0
1, 6912, Note_on_c, 0, 67, 64
1, 6912, Note_on_c, 0, 55, 64
1, 6957, Note_on_c, 0, 55, 0
1, 6960, Note_on_c, 0, 43, 64
1, 7001, Note_on_c, 0, 67, 0
1, 7005, Note_on_c, 0, 43, 0
1, 7056, Note_on_c, 0, 76, 64
1, 7068, Note_on_c, 0, 76, 0
1, 7068, Note_on_c, 0, 74, 64
1, 7080, Note_on_c, 0, 74, 0
1, 7080, Note_on_c, 0, 73, 64
1, 7092, Note_on_c, 0, 73, 0
1, 7092, Note_on_c, 0, 74, 64
1, 7104, Note_on_c, 0, 74, 0
1, 7104, Note_on_c, 0, 70, 64
1, 7149, Note_on_c, 0, 70, 0
1, 7152, Note_on_c, 0, 67, 64
1, 7197, Note_on_c, 0, 67, 0
1, 7200, Note_on_c, 0, 77, 64
1, 7212, Note_on_c, 0, 77, 0
1, 7212, Note_on_c, 0, 75, 64
1, 7224, Note_on_c, 0, 75, 0
1, 7224, Note_on_c, 0, 74, 64
1, 7236, Note_on_c, 0, 74, 0
1, 7236, Note_on_c, 0, 75, 64
1, 7248, Note_on_c, 0, 75, 0
1, 7248, Note_on_c, 0, 72, 64
1, 7293, Note_on_c, 0, 72, 0
1, 7296, Note_on_c, 0, 60, 64
1, 7341, Note_on_c, 0, 60, 0
1, 7344, Note_on_c, 0, 79, 64
1, 7356, Note_on_c, 0, 79, 0
1, 7356, Note_on_c, 0, 78, 64
1, 7368, Note_on_c, 0, 78, 0
1, 7368, Note_on_c, 0, 76, 64
1, 7380, Note_on_c, 0, 76, 0
1, 7380, Note_on_c, 0, 78, 64
1, 7392, Note_on_c, 0, 78, 0
1, 7392, Note_on_c, 0, 74, 64
1, 7437, Note_on_c, 0, 74, 0
1, 7440, Note_on_c, 0, 72, 64
1, 7485, Note_on_c, 0, 72, 0
1, 7488, Note_on_c, 0, 81, 64
1, 7500, Note_on_c, 0, 81, 0
1, 7500, Note_on_c, 0, 79, 64
1, 7512, Note_on_c, 0, 79, 0
1, 7512, Note_on_c, 0, 77, 64
1, 7524, Note_on_c, 0, 77, 0
1, 7524, Note_on_c, 0, 79, 64
1, 7536, Note_on_c, 0, 79, 0
1, 7536, Note_on_c, 0, 70, 64
1, 7581, Note_on_c, 0, 70, 0
1, 7584, Note_on_c, 0, 67, 64
1, 7629, Note_on_c, 0, 67, 0
1, 7632, Note_on_c, 0, 82, 64
1, 7632, Note_on_c, 0, 73, 64
1, 7677, Note_on_c, 0, 82, 0
1, 7677, Note_on_c, 0, 73, 0
1, 7680, Note_on_c, 0, 64, 64
1, 7680, Note_on_c, 0, 55, 64
1, 7725, Note_on_c, 0, 64, 0
1, 7725, Note_on_c, 0, 55, 0
1, 7728, Note_on_c, 0, 64, 64
1, 7728, Note_on_c, 0, 55, 64
1, 7773, Note_on_c, 0, 64, 0
1, 7773, Note_on_c, 0, 55, 0
1, 7776, Note_on_c, 0, 81, 64
1, 7776, Note_on_c, 0, 74, 64
1, 7821, Note_on_c, 0, 81, 0
1, 7821, Note_on_c, 0, 74, 0
1, 7824, Note_on_c, 0, 62, 64
1, 7824, Note_on_c, 0, 53, 64
1, 7869, Note_on_c, 0, 62, 0
1, 7869, Note_on_c, 0, 53, 0
1, 7872, Note_on_c, 0, 62, 64
1, 7872, Note_on_c, 0, 53, 64
1, 7917, Note_on_c, 0, 62, 0
1, 7917, Note_on_c, 0, 53, 0
1, 7920, Note_on_c, 0, 79, 64
1, 7920, Note_on_c, 0, 76, 64
1, 7920, Note_on_c, 0, 55, 64
1, 7965, Note_on_c, 0, 79, 0
1, 7965, Note_on_c, 0, 76, 0
1, 7965, Note_on_c, 0, 55, 0
1, 7968, Note_on_c, 0, 77, 64
1, 7968, Note_on_c, 0, 74, 64
1, 7968, Note_on_c, 0, 57, 64
1, 8013, Note_on_c, 0, 77, 0
1, 8013, Note_on_c, 0, 74, 0
1, 8013, Note_on_c, 0, 57, 0
1, 8016, Note_on_c, 0, 76, 64
1, 8016, Note_on_c, 0, 73, 64
1, 8016, Note_on_c, 0, 45, 64
1, 8061, Note_on_c, 0, 76, 0
1, 8061, Note_on_c, 0, 73, 0
1, 8061, Note_on_c, 0, 45, 0
1, 8064, Note_on_c, 0, 74, 64
1, 8064, Note_on_c, 0, 50, 64
1, 8109, Note_on_c, 0, 74, 0
1, 8109, Note_on_c, 0, 50, 0
1, 8112, Note_on_c, 0, 38, 64
1, 8157, Note_on_c, 0, 38, 0
1, 8208, Note_on_c, 0, 76, 64
1, 8220, Note_on_c, 0, 76, 0
1, 8220, Note_on_c, 0, 74, 64
1, 8232, Note_on_c, 0, 74, 0
1, 8232, Note_on_c, 0, 73, 64
1, 8244, Note_on_c, 0, 73, 0
1, 8244, Note_on_c, 0, 74, 64
1, 8256, Note_on_c, 0, 74, 0
1, 8256, Note_on_c, 0, 70, 64
1, 8301, Note_on_c, 0, 70, 0
1, 8304, Note_on_c, 0, 67, 64
1, 8349, Note_on_c, 0, 67, 0
1, 8352, Note_on_c, 0, 77, 64
1, 8364, Note_on_c, 0, 77, 0
1, 8364, Note_on_c, 0, 75, 64
1, 8376, Note_on_c, 0, 75, 0
1, 8376, Note_on_c, 0, 74, 64
1, 8388, Note_on_c, 0, 74, 0
1, 8388, Note_on_c, 0, 75, 64
1, 8400, Note_on_c, 0, 75, 0
1, 8400, Note_on_c, 0, 72, 64
1, 8445, Note_on_c, 0, 72, 0
1, 8448, Note_on_c, 0, 60, 64
1, 8493, Note_on_c, 0, 60, 0
1, 8496, Note_on_c, 0, 79, 64
1, 8508, Note_on_c, 0, 79, 0
1, 8508, Note_on_c, 0, 78, 64
1, 8520, Note_on_c, 0, 78, 0
1, 8520, Note_on_c, 0, 76, 64
1, 8532, Note_on_c, 0, 76, 0
1, 8532, Note_on_c, 0, 78, 64
1, 8544, Note_on_c, 0, 78, 0
1, 8544, Note_on_c, 0, 74, 64
1, 8589, Note_on_c, 0, 74, 0
1, 8592, Note_on_c, 0, 72, 64
1, 8637, Note_on_c, 0, 72, 0
1, 8640, Note_on_c, 0, 81, 64
1, 8652, Note_on_c, 0, 81, 0
1, 8652, Note_on_c, 0, 79, 64
1, 8664, Note_on_c, 0, 79, 0
1, 8664, Note_on_c, 0, 77, 64
1, 8676, Note_on_c, 0, 77, 0
1, 8676, Note_on_c, 0, 79, 64
1, 8688, Note_on_c, 0, 79, 0
1, 8688, Note_on_c, 0, 70, 64
1, 8733, Note_on_c, 0, 70, 0
1, 8736, Note_on_c, 0, 67, 64
1, 8781, Note_on_c, 0, 67, 0
1, 8784, Note_on_c, 0, 82, 64
1, 8784, Note_on_c, 0, 73, 64
1, 8829, Note_on_c, 0, 82, 0
1, 8829, Note_on_c, 0, 73, 0
1, 8832, Note_on_c, 0, 64, 64
1, 8832, Note_on_c, 0, 55, 64
1, 8877, Note_on_c, 0, 64, 0
1, 8877, Note_on_c, 0, 55, 0
1, 8880, Note_on_c, 0, 64, 64
1, 8880, Note_on_c, 0, 55, 64
1, 8925, Note_on_c, 0, 64, 0
1, 8925, Note_on_c, 0, 55, 0
1, 8928, Note_on_c, 0, 81, 64
1, 8928, Note_on_c, 0, 74, 64
1, 8973, Note_on_c, 0, 81, 0
1, 8973, Note_on_c, 0, 74, 0
1, 8976, Note_on_c, 0, 62, 64
1, 8976, Note_on_c, 0, 53, 64
1, 9021, Note_on_c, 0, 62, 0
1, 9021, Note_on_c, 0, 53, 0
1, 9024, Note_on_c, 0, 62, 64
1, 9024, Note_on_c, 0, 53, 64
1, 9069, Note_on_c, 0, 62, 0
1, 9069, Note_on_c, 0, 53, 0
1, 9072, Note_on_c, 0, 79, 64
1, 9072, Note_on_c, 0, 76, 64
1, 9072, Note_on_c, 0, 55, 64
1, 9117, Note_on_c, 0, 79, 0
1, 9117, Note_on_c, 0, 76, 0
1, 9117, Note_on_c, 0, 55, 0
1, 9120, Note_on_c, 0, 77, 64
1, 9120, Note_on_c, 0, 74, 64
1, 9120, Note_on_c, 0, 57, 64
1, 9165, Note_on_c, 0, 77, 0
1, 9165, Note_on_c, 0, 74, 0
1, 9165, Note_on_c, 0, 57, 0
1, 9168, Note_on_c, 0, 76, 64
1, 9168, Note_on_c, 0, 73, 64
1, 9168, Note_on_c, 0, 45, 64
1, 9213, Note_on_c, 0, 76, 0
1, 9213, Note_on_c, 0, 73, 0
1, 9213, Note_on_c, 0, 45, 0
1, 9216, Note_on_c, 0, 74, 64
1, 9216, Note_on_c, 0, 50, 64
1, 9261, Note_on_c, 0, 74, 0
1, 9261, Note_on_c, 0, 50, 0
1, 9264, Note_on_c, 0, 38, 64
1, 9309, Note_on_c, 0, 38, 0
1, 9360, Note_on_c, 0, 50, 64
1, 9360, Note_on_c, 0, 38, 64
1, 9408, Note_on_c, 0, 54, 64
1, 9449, Note_on_c, 0, 50, 0
1, 9449, Note_on_c, 0, 38, 0
1, 9453, Note_on_c, 0, 54, 0
1, 9456, Note_on_c, 0, 57, 64
1, 9501, Note_on_c, 0, 57, 0
1, 9504, Note_on_c, 0, 46, 64
1, 9504, Note_on_c, 0, 34, 64
1, 9552, Note_on_c, 0, 55, 64
1, 9593, Note_on_c, 0, 46, 0
1, 9593, Note_on_c, 0, 34, 0
1, 9597, Note_on_c, 0, 55, 0
1, 9600, Note_on_c, 0, 62, 64
1, 9645, Note_on_c, 0, 62, 0
1, 9648, Note_on_c, 0, 60, 64
1, 9648, Note_on_c, 0, 57, 64
1, 9696, Note_on_c, 0, 42, 64
1, 9741, Note_on_c, 0, 42, 0
1, 9744, Note_on_c, 0, 60, 0
1, 9744, Note_on_c, 0, 57, 0
1, 9744, Note_on_c, 0, 58, 64
1, 9744, Note_on_c, 0, 55, 64
1, 9744, Note_on_c, 0, 43, 64
1, 9789, Note_on_c, 0, 58, 0
1, 9789, Note_on_c, 0, 55, 0
1, 9789, Note_on_c, 0, 43, 0
1, 9792, Note_on_c, 0, 57, 64
1, 9792, Note_on_c, 0, 54, 64
1, 9792, Note_on_c, 0, 50, 64
1, 9837, Note_on_c, 0, 57, 0
1, 9837, Note_on_c, 0, 54, 0
1, 9837, Note_on_c, 0, 50, 0
1, 9840, Note_on_c, 0, 38, 64
1, 9885, Note_on_c, 0, 38, 0
1, 9888, Note_on_c, 0, 74, 64
1, 9888, Note_on_c, 0, 70, 64
1, 9908, Note_on_c, 0, 74, 0
1, 9908, Note_on_c, 0, 70, 0
1, 9936, Note_on_c, 0, 72, 64
1, 9936, Note_on_c, 0, 69, 64
1, 9984, Note_on_c, 0, 54, 64
1, 9984, Note_on_c, 0, 42, 64
1, 10029, Note_on_c, 0, 54, 0
1, 10029, Note_on_c, 0, 42, 0
1, 10032, Note_on_c, 0, 72, 0
1, 10032, Note_on_c, 0, 69, 0
1, 10032, Note_on_c, 0, 70, 64
1, 10032, Note_on_c, 0, 67, 64
1, 10032, Note_on_c, 0, 55, 64
1, 10032, Note_on_c, 0, 43, 64
1, 10077, Note_on_c, 0, 55, 0
1, 10077, Note_on_c, 0, 43, 0
1, 10080, Note_on_c, 0, 70, 0
1, 10080, Note_on_c, 0, 67, 0
1, 10080, Note_on_c, 0, 69, 64
1, 10080, Note_on_c, 0, 66, 64
1, 10080, Note_on_c, 0, 50, 64
1, 10125, Note_on_c, 0, 69, 0
1, 10125, Note_on_c, 0, 66, 0
1, 10125, Note_on_c, 0, 50, 0
1, 10128, Note_on_c, 0, 38, 64
1, 10173, Note_on_c, 0, 38, 0
1, 10176, Note_on_c, 0, 62, 64
1, 10176, Note_on_c, 0, 58, 64
1, 10196, Note_on_c, 0, 62, 0
1, 10196, Note_on_c, 0, 58, 0
1, 10224, Note_on_c, 0, 60, 64
1, 10224, Note_on_c, 0, 57, 64
1, 10272, Note_on_c, 0, 42, 64
1, 10317, Note_on_c, 0, 42, 0
1, 10320, Note_on_c, 0, 60, 0
1, 10320, Note_on_c, 0, 57, 0
1, 10320, Note_on_c, 0, 58, 64
1, 10320, Note_on_c, 0, 55, 64
1, 10320, Note_on_c, 0, 43, 64
1, 10365, Note_on_c, 0, 58, 0
1, 10365, Note_on_c, 0, 55, 0
1, 10365, Note_on_c, 0, 43, 0
1, 10368, Note_on_c, 0, 57, 64
1, 10368, Note_on_c, 0, 54, 64
1, 10368, Note_on_c, 0, 50, 64
1, 10413, Note_on_c, 0, 57, 0
1, 10413, Note_on_c, 0, 54, 0
1, 10413, Note_on_c, 0, 50, 0
1, 10416, Note_on_c, 0, 38, 64
1, 10461, Note_on_c, 0, 38, 0
1, 10512, Note_on_c, 0, 81, 64
1, 10524, Note_on_c, 0, 81, 0
1, 10524, Note_on_c, 0, 79, 64
1, 10536, Note_on_c, 0, 79, 0
1, 10536, Note_on_c, 0, 78, 64
1, 10548, Note_on_c, 0, 78, 0
1, 10548, Note_on_c, 0, 79, 64
1, 10560, Note_on_c, 0, 79, 0
1, 10560, Note_on_c, 0, 70, 64
1, 10605, Note_on_c, 0, 70, 0
1, 10608, Note_on_c, 0, 67, 64
1, 10653, Note_on_c, 0, 67, 0
1, 10656, Note_on_c, 0, 82, 64
1, 10668, Note_on_c, 0, 82, 0
1, 10668, Note_on_c, 0, 81, 64
1, 10680, Note_on_c, 0, 81, 0
1, 10680, Note_on_c, 0, 79, 64
1, 10692, Note_on_c, 0, 79, 0
1, 10692, Note_on_c, 0, 81, 64
1, 10704, Note_on_c, 0, 81, 0
1, 10704, Note_on_c, 0, 66, 64
1, 10749, Note_on_c, 0, 66, 0
1, 10752, Note_on_c, 0, 62, 64
1, 10797, Note_on_c, 0, 62, 0
1, 10800, Note_on_c, 0, 84, 64
1, 10812, Note_on_c, 0, 84, 0
1, 10812, Note_on_c, 0, 82, 64
1, 10824, Note_on_c, 0, 82, 0
1, 10824, Note_on_c, 0, 81, 64
1, 10836, Note_on_c, 0, 81, 0
1, 10836, Note_on_c, 0, 82, 64
1, 10848, Note_on_c, 0, 82, 0
1, 10848, Note_on_c, 0, 67, 64
1, 10893, Note_on_c, 0, 67, 0
1, 10896, Note_on_c, 0, 55, 64
1, 10941, Note_on_c, 0, 55, 0
1, 10944, Note_on_c, 0, 79, 64
1, 10956, Note_on_c, 0, 79, 0
1, 10956, Note_on_c, 0, 78, 64
1, 10968, Note_on_c, 0, 78, 0
1, 10968, Note_on_c, 0, 76, 64
1, 10980, Note_on_c, 0, 76, 0
1, 10980, Note_on_c, 0, 78, 64
1, 10992, Note_on_c, 0, 78, 0
1, 10992, Note_on_c, 0, 69, 64
1, 11037, Note_on_c, 0, 69, 0
1, 11040, Note_on_c, 0, 57, 64
1, 11085, Note_on_c, 0, 57, 0
1, 11088, Note_on_c, 0, 79, 64
1, 11088, Note_on_c, 0, 70, 64
1, 11133, Note_on_c, 0, 79, 0
1, 11133, Note_on_c, 0, 70, 0
1, 11136, Note_on_c, 0, 58, 64
1, 11181, Note_on_c, 0, 58, 0
1, 11184, Note_on_c, 0, 58, 64
1, 11229, Note_on_c, 0, 58, 0
1, 11232, Note_on_c, 0, 75, 64
1, 11232, Note_on_c, 0, 66, 64
1, 11277, Note_on_c, 0, 75, 0
1, 11277, Note_on_c, 0, 66, 0
1, 11280, Note_on_c, 0, 48, 64
1, 11325, Note_on_c, 0, 48, 0
1, 11328, Note_on_c, 0, 48, 64
1, 11373, Note_on_c, 0, 48, 0
1, 11376, Note_on_c, 0, 74, 64
1, 11376, Note_on_c, 0, 46, 64
1, 11421, Note_on_c, 0, 74, 0
1, 11421, Note_on_c, 0, 46, 0
1, 11424, Note_on_c, 0, 70, 64
1, 11424, Note_on_c, 0, 67, 64
1, 11424, Note_on_c, 0, 50, 64
1, 11469, Note_on_c, 0, 70, 0
1, 11469, Note_on_c, 0, 67, 0
1, 11469, Note_on_c, 0, 50, 0
1, 11472, Note_on_c, 0, 69, 64
1, 11472, Note_on_c, 0, 66, 64
1, 11472, Note_on_c, 0, 38, 64
1, 11517, Note_on_c, 0, 69, 0
1, 11517, Note_on_c, 0, 66, 0
1, 11517, Note_on_c, 0, 38, 0
1, 11520, Note_on_c, 0, 67, 64
1, 11520, Note_on_c, 0, 43, 64
1, 11565, Note_on_c, 0, 43, 0
1, 11568, Note_on_c, 0, 31, 64
1, 11609, Note_on_c, 0, 67, 0
1, 11613, Note_on_c, 0, 31, 0
1, 11664, Note_on_c, 0, 50, 64
1, 11664, Note_on_c, 0, 38, 64
1, 11712, Note_on_c, 0, 54, 64
1, 11753, Note_on_c, 0, 50, 0
1, 11753, Note_on_c, 0, 38, 0
1, 11757, Note_on_c, 0, 54, 0
1, 11760, Note_on_c, 0, 57, 64
1, 11805, Note_on_c, 0, 57, 0
1, 11808, Note_on_c, 0, 46, 64
1, 11808, Note_on_c, 0, 34, 64
1, 11856, Note_on_c, 0, 55, 64
1, 11897, Note_on_c, 0, 46, 0
1, 11897, Note_on_c, 0, 34, 0
1, 11901, Note_on_c, 0, 55, 0
1, 11904, Note_on_c, 0, 62, 64
1, 11949, Note_on_c, 0, 62, 0
1, 11952, Note_on_c, 0, 60, 64
1, 11952, Note_on_c, 0, 57, 64
1, 12000, Note_on_c, 0, 42, 64
1, 12045, Note_on_c, 0, 42, 0
1, 12048, Note_on_c, 0, 60, 0
1, 12048, Note_on_c, 0, 57, 0
1, 12048, Note_on_c, 0, 58, 64
1, 12048, Note_on_c, 0, 55, 64
1, 12048, Note_on_c, 0, 43, 64
1, 12093, Note_on_c, 0, 58, 0
1, 12093, Note_on_c, 0, 55, 0
1, 12093, Note_on_c, 0, 43, 0
1, 12096, Note_on_c, 0, 57, 64
1, 12096, Note_on_c, 0, 54, 64
1, 12096, Note_on_c, 0, 50, 64
1, 12141, Note_on_c, 0, 57, 0
1, 12141, Note_on_c, 0, 54, 0
1, 12141, Note_on_c, 0, 50, 0
1, 12144, Note_on_c, 0, 38, 64
1, 12189, Note_on_c, 0, 38, 0
1, 12192, Note_on_c, 0, 74, 64
1, 12192, Note_on_c, 0, 70, 64
1, 12212, Note_on_c, 0, 74, 0
1, 12212, Note_on_c, 0, 70, 0
1, 12240, Note_on_c, 0, 72, 64
1, 12240, Note_on_c, 0, 69, 64
1, 12288, Note_on_c, 0, 54, 64
1, 12288, Note_on_c, 0, 42, 64
1, 12333, Note_on_c, 0, 54, 0
1, 12333, Note_on_c, 0, 42, 0
1, 12336, Note_on_c, 0, 72, 0
1, 12336, Note_on_c, 0, 69, 0
1, 12336, Note_on_c, 0, 70, 64
1, 12336, Note_on_c, 0, 67, 64
1, 12336, Note_on_c, 0, 55, 64
1, 12336, Note_on_c, 0, 43, 64
1, 12381, Note_on_c, 0, 55, 0
1, 12381, Note_on_c, 0, 43, 0
1, 12384, Note_on_c, 0, 70, 0
1, 12384, Note_on_c, 0, 67, 0
1, 12384, Note_on_c, 0, 69, 64
1, 12384, Note_on_c, 0, 66, 64
1, 12384, Note_on_c, 0, 50, 64
1, 12429, Note_on_c, 0, 69, 0
1, 12429, Note_on_c, 0, 66, 0
1, 12429, Note_on_c, 0, 50, 0
1, 12432, Note_on_c, 0, 38, 64
1, 12477, Note_on_c, 0, 38, 0
1, 12480, Note_on_c, 0, 62, 64
1, 12480, Note_on_c, 0, 58, 64
1, 12500, Note_on_c, 0, 62, 0
1, 12500, Note_on_c, 0, 58, 0
1, 12528, Note_on_c, 0, 60, 64
1, 12528, Note_on_c, 0, 57, 64
1, 12576, Note_on_c, 0, 42, 64
1, 12621, Note_on_c, 0, 42, 0
1, 12624, Note_on_c, 0, 60, 0
1, 12624, Note_on_c, 0, 57, 0
1, 12624, Note_on_c, 0, 58, 64
1, 12624, Note_on_c, 0, 55, 64
1, 12624, Note_on_c, 0, 43, 64
1, 12669, Note_on_c, 0, 58, 0
1, 12669, Note_on_c, 0, 55, 0
1, 12669, Note_on_c, 0, 43, 0
1, 12672, Note_on_c, 0, 57, 64
1, 12672, Note_on_c, 0, 54, 64
1, 12672, Note_on_c, 0, 50, 64
1, 12717, Note_on_c, 0, 57, 0
1, 12717, Note_on_c, 0, 54, 0
1, 12717, Note_on_c, 0, 50, 0
1, 12720, Note_on_c, 0, 38, 64
1, 12765, Note_on_c, 0, 38, 0
1, 12816, Note_on_c, 0, 81, 64
1, 12828, Note_on_c, 0, 81, 0
1, 12828, Note_on_c, 0, 79, 64
1, 12840, Note_on_c, 0, 79, 0
1, 12840, Note_on_c, 0, 78, 64
1, 12852, Note_on_c, 0, 78, 0
1, 12852, Note_on_c, 0, 79, 64
1, 12864, Note_on_c, 0, 79, 0
1, 12864, Note_on_c, 0, 70, 64
1, 12909, Note_on_c, 0, 70, 0
1, 12912, Note_on_c, 0, 67, 64
1, 12957, Note_on_c, 0, 67, 0
1, 12960, Note_on_c, 0, 82, 64
1, 12972, Note_on_c, 0, 82, 0
1, 12972, Note_on_c, 0, 81, 64
1, 12984, Note_on_c, 0, 81, 0
1, 12984, Note_on_c, 0, 79, 64
1, 12996, Note_on_c, 0, 79, 0
1, 12996, Note_on_c, 0, 81, 64
1, 13008, Note_on_c, 0, 81, 0
1, 13008, Note_on_c, 0, 66, 64
1, 13053, Note_on_c, 0, 66, 0
1, 13056, Note_on_c, 0, 62, 64
1, 13101, Note_on_c, 0, 62, 0
1, 13104, Note_on_c, 0, 84, 64
1, 13116, Note_on_c, 0, 84, 0
1, 13116, Note_on_c, 0, 82, 64
1, 13128, Note_on_c, 0, 82, 0
1, 13128, Note_on_c, 0, 81, 64
1, 13140, Note_on_c, 0, 81, 0
1, 13140, Note_on_c, 0, 82, 64
1, 13152, Note_on_c, 0, 82, 0
1, 13152, Note_on_c, 0, 67, 64
1, 13197, Note_on_c, 0, 67, 0
1, 13200, Note_on_c, 0, 55, 64
1, 13245, Note_on_c, 0, 55, 0
1, 13248, Note_on_c, 0, 79, 64
1, 13260, Note_on_c, 0, 79, 0
1, 13260, Note_on_c, 0, 78, 64
1, 13272, Note_on_c, 0, 78, 0
1, 13272, Note_on_c, 0, 76, 64
1, 13284, Note_on_c, 0, 76, 0
1, 13284, Note_on_c, 0, 78, 64
1, 13296, Note_on_c, 0, 78, 0
1, 13296, Note_on_c, 0, 69, 64
1, 13341, Note_on_c, 0, 69, 0
1, 13344, Note_on_c, 0, 57, 64
1, 13389, Note_on_c, 0, 57, 0
1, 13392, Note_on_c, 0, 79, 64
1, 13392, Note_on_c, 0, 70, 64
1, 13437, Note_on_c, 0, 79, 0
1, 13437, Note_on_c, 0, 70, 0
1, 13440, Note_on_c, 0, 58, 64
1, 13485, Note_on_c, 0, 58, 0
1, 13488, Note_on_c, 0, 58, 64
1, 13533, Note_on_c, 0, 58, 0
1, 13536, Note_on_c, 0, 75, 64
1, 13536, Note_on_c, 0, 66, 64
1, 13581, Note_on_c, 0, 75, 0
1, 13581, Note_on_c, 0, 66, 0
1, 13584, Note_on_c, 0, 48, 64
1, 13629, Note_on_c, 0, 48, 0
1, 13632, Note_on_c, 0, 48, 64
1, 13677, Note_on_c, 0, 48, 0
1, 13680, Note_on_c, 0, 74, 64
1, 13680, Note_on_c, 0, 46, 64
1, 13725, Note_on_c, 0, 74, 0
1, 13725, Note_on_c, 0, 46, 0
1, 13728, Note_on_c, 0, 70, 64
1, 13728, Note_on_c, 0, 67, 64
1, 13728, Note_on_c, 0, 50, 64
1, 13773, Note_on_c, 0, 70, 0
1, 13773, Note_on_c, 0, 67, 0
1, 13773, Note_on_c, 0, 50, 0
1, 13776, Note_on_c, 0, 69, 64
1, 13776, Note_on_c, 0, 66, 64
1, 13776, Note_on_c, 0, 38, 64
1, 13821, Note_on_c, 0, 69, 0
1, 13821, Note_on_c, 0, 66, 0
1, 13821, Note_on_c, 0, 38, 0
1, 13824, Note_on_c, 0, 67, 64
1, 13824, Note_on_c, 0, 43, 64
1, 13869, Note_on_c, 0, 43, 0
1, 13872, Note_on_c, 0, 31, 64
1, 13913, Note_on_c, 0, 67, 0
1, 13917, Note_on_c, 0, 31, 0
1, 13920, Note_on_c, 0, 67, 64
1, 13965, Note_on_c, 0, 67, 0
1, 13968, Note_on_c, 0, 71, 64
1, 13968, Note_on_c, 0, 55, 64
1, 13968, Note_on_c, 0, 43, 64
1, 13991, Note_on_c, 0, 71, 0
1, 13992, Note_on_c, 0, 67, 64
1, 14015, Note_on_c, 0, 67, 0
1, 14016, Note_on_c, 0, 71, 64
1, 14039, Note_on_c, 0, 71, 0
1, 14040, Note_on_c, 0, 67, 64
1, 14057, Note_on_c, 0, 55, 0
1, 14057, Note_on_c, 0, 43, 0
1, 14063, Note_on_c, 0, 67, 0
1, 14064, Note_on_c, 0, 72, 64
1, 14064, Note_on_c, 0, 57, 64
1, 14064, Note_on_c, 0, 45, 64
1, 14087, Note_on_c, 0, 72, 0
1, 14088, Note_on_c, 0, 67, 64
1, 14109, Note_on_c, 0, 57, 0
1, 14109, Note_on_c, 0, 45, 0
1, 14111, Note_on_c, 0, 67, 0
1, 14112, Note_on_c, 0, 74, 64
1, 14112, Note_on_c, 0, 59, 64
1, 14112, Note_on_c, 0, 47, 64
1, 14135, Note_on_c, 0, 74, 0
1, 14136, Note_on_c, 0, 67, 64
1, 14159, Note_on_c, 0, 67, 0
1, 14160, Note_on_c, 0, 74, 64
1, 14183, Note_on_c, 0, 74, 0
1, 14184, Note_on_c, 0, 67, 64
1, 14201, Note_on_c, 0, 59, 0
1, 14201, Note_on_c, 0, 47, 0
1, 14207, Note_on_c, 0, 67, 0
1, 14208, Note_on_c, 0, 76, 64
1, 14208, Note_on_c, 0, 60, 64
1, 14208, Note_on_c, 0, 48, 64
1, 14231, Note_on_c, 0, 76, 0
1, 14232, Note_on_c, 0, 67, 64
1, 14253, Note_on_c, 0, 60, 0
1, 14253, Note_on_c, 0, 48, 0
1, 14255, Note_on_c, 0, 67, 0
1, 14256, Note_on_c, 0, 67, 64
1, 14256, Note_on_c, 0, 62, 64
1, 14256, Note_on_c, 0, 50, 64
1, 14279, Note_on_c, 0, 67, 0
1, 14280, Note_on_c, 0, 66, 64
1, 14303, Note_on_c, 0, 66, 0
1, 14304, Note_on_c, 0, 64, 64
1, 14327, Note_on_c, 0, 64, 0
1, 14328, Note_on_c, 0, 62, 64
1, 14345, Note_on_c, 0, 62, 0
1, 14345, Note_on_c, 0, 50, 0
1, 14351, Note_on_c, 0, 62, 0
1, 14352, Note_on_c, 0, 72, 64
1, 14352, Note_on_c, 0, 69, 64
1, 14352, Note_on_c, 0, 54, 64
1, 14372, Note_on_c, 0, 72, 0
1, 14372, Note_on_c, 0, 69, 0
1, 14397, Note_on_c, 0, 54, 0
1, 14400, Note_on_c, 0, 72, 64
1, 14400, Note_on_c, 0, 69, 64
1, 14400, Note_on_c, 0, 55, 64
1, 14445, Note_on_c, 0, 72, 0
1, 14445, Note_on_c, 0, 69, 0
1, 14445, Note_on_c, 0, 55, 0
1, 14448, Note_on_c, 0, 71, 64
1, 14448, Note_on_c, 0, 67, 64
1, 14448, Note_on_c, 0, 43, 64
1, 14493, Note_on_c, 0, 71, 0
1, 14493, Note_on_c, 0, 67, 0
1, 14493, Note_on_c, 0, 43, 0
1, 14496, Note_on_c, 0, 67, 64
1, 14541, Note_on_c, 0, 67, 0
1, 14544, Note_on_c, 0, 71, 64
1, 14544, Note_on_c, 0, 55, 64
1, 14544, Note_on_c, 0, 43, 64
1, 14567, Note_on_c, 0, 71, 0
1, 14568, Note_on_c, 0, 67, 64
1, 14591, Note_on_c, 0, 67, 0
1, 14592, Note_on_c, 0, 71, 64
1, 14615, Note_on_c, 0, 71, 0
1, 14616, Note_on_c, 0, 67, 64
1, 14633, Note_on_c, 0, 55, 0
1, 14633, Note_on_c, 0, 43, 0
1, 14639, Note_on_c, 0, 67, 0
1, 14640, Note_on_c, 0, 72, 64
1, 14640, Note_on_c, 0, 57, 64
1, 14640, Note_on_c, 0, 45, 64
1, 14663, Note_on_c, 0, 72, 0
1, 14664, Note_on_c, 0, 67, 64
1, 14685, Note_on_c, 0, 57, 0
1, 14685, Note_on_c, 0, 45, 0
1, 14687, Note_on_c, 0, 67, 0
1, 14688, Note_on_c, 0, 74, 64
1, 14688, Note_on_c, 0, 59, 64
1, 14688, Note_on_c, 0, 47, 64
1, 14711, Note_on_c, 0, 74, 0
1, 14712, Note_on_c, 0, 67, 64
1, 14735, Note_on_c, 0, 67, 0
1, 14736, Note_on_c, 0, 74, 64
1, 14759, Note_on_c, 0, 74, 0
1, 14760, Note_on_c, 0, 67, 64
1, 14777, Note_on_c, 0, 59, 0
1, 14777, Note_on_c, 0, 47, 0
1, 14783, Note_on_c, 0, 67, 0
1, 14784, Note_on_c, 0, 76, 64
1, 14784, Note_on_c, 0, 60, 64
1, 14784, Note_on_c, 0, 48, 64
1, 14807, Note_on_c, 0, 76, 0
1, 14808, Note_on_c, 0, 67, 64
1, 14829, Note_on_c, 0, 60, 0
1, 14829, Note_on_c, 0, 48, 0
1, 14831, Note_on_c, 0, 67, 0
1, 14832, Note_on_c, 0, 74, 64
1, 14832, Note_on_c, 0, 59, 64
1, 14877, Note_on_c, 0, 74, 0
1, 14877, Note_on_c, 0, 59, 0
1, 14880, Note_on_c, 0, 67, 64
1, 14880, Note_on_c, 0, 62, 64
1, 14925, Note_on_c, 0, 67, 0
1, 14925, Note_on_c, 0, 62, 0
1, 14928, Note_on_c, 0, 66, 64
1, 14928, Note_on_c, 0, 50, 64
1, 14973, Note_on_c, 0, 66, 0
1, 14973, Note_on_c, 0, 50, 0
1, 14976, Note_on_c, 0, 67, 64
1, 14976, Note_on_c, 0, 55, 64
1, 15021, Note_on_c, 0, 55, 0
1, 15024, Note_on_c, 0, 43, 64
1, 15065, Note_on_c, 0, 67, 0
1, 15069, Note_on_c, 0, 43, 0
1, 15072, Note_on_c, 0, 67, 64
1, 15117, Note_on_c, 0, 67, 0
1, 15120, Note_on_c, 0, 71, 64
1, 15120, Note_on_c, 0, 55, 64
1, 15120, Note_on_c, 0, 43, 64
1, 15143, Note_on_c, 0, 71, 0
1, 15144, Note_on_c, 0, 67, 64
1, 15167, Note_on_c, 0, 67, 0
1, 15168, Note_on_c, 0, 71, 64
1, 15191, Note_on_c, 0, 71, 0
1, 15192, Note_on_c, 0, 67, 64
1, 15209, Note_on_c, 0, 55, 0
1, 15209, Note_on_c, 0, 43, 0
1, 15215, Note_on_c, 0, 67, 0
1, 15216, Note_on_c, 0, 72, 64
1, 15216, Note_on_c, 0, 57, 64
1, 15216, Note_on_c, 0, 45, 64
1, 15239, Note_on_c, 0, 72, 0
1, 15240, Note_on_c, 0, 67, 64
1, 15261, Note_on_c, 0, 57, 0
1, 15261, Note_on_c, 0, 45, 0
1, 15263, Note_on_c, 0, 67, 0
1, 15264, Note_on_c, 0, 74, 64
1, 15264, Note_on_c, 0, 59, 64
1, 15264, Note_on_c, 0, 47, 64
1, 15287, Note_on_c, 0, 74, 0
1, 15288, Note_on_c, 0, 67, 64
1, 15311, Note_on_c, 0, 67, 0
1, 15312, Note_on_c, 0, 74, 64
1, 15335, Note_on_c, 0, 74, 0
1, 15336, Note_on_c, 0, 67, 64
1, 15353, Note_on_c, 0, 59, 0
1, 15353, Note_on_c, 0, 47, 0
1, 15359, Note_on_c, 0, 67, 0
1, 15360, Note_on_c, 0, 76, 64
1, 15360, Note_on_c, 0, 60, 64
1, 15360, Note_on_c, 0, 48, 64
1, 15383, Note_on_c, 0, 76, 0
1, 15384, Note_on_c, 0, 67, 64
1, 15405, Note_on_c, 0, 60, 0
1, 15405, Note_on_c, 0, 48, 0
1, 15407, Note_on_c, 0, 67, 0
1, 15408, Note_on_c, 0, 67, 64
1, 15408, Note_on_c, 0, 62, 64
1, 15408, Note_on_c, 0, 50, 64
1, 15431, Note_on_c, 0, 67, 0
1, 15432, Note_on_c, 0, 66, 64
1, 15455, Note_on_c, 0, 66, 0
1, 15456, Note_on_c, 0, 64, 64
1, 15479, Note_on_c, 0, 64, 0
1, 15480, Note_on_c, 0, 62, 64
1, 15497, Note_on_c, 0, 62, 0
1, 15497, Note_on_c, 0, 50, 0
1, 15503, Note_on_c, 0, 62, 0
1, 15504, Note_on_c, 0, 72, 64
1, 15504, Note_on_c, 0, 69, 64
1, 15504, Note_on_c, 0, 54, 64
1, 15524, Note_on_c, 0, 72, 0
1, 15524, Note_on_c, 0, 69, 0
1, 15549, Note_on_c, 0, 54, 0
1, 15552, Note_on_c, 0, 72, 64
1, 15552, Note_on_c, 0, 69, 64
1, 15552, Note_on_c, 0, 55, 64
1, 15597, Note_on_c, 0, 72, 0
1, 15597, Note_on_c, 0, 69, 0
1, 15597, Note_on_c, 0, 55, 0
1, 15600, Note_on_c, 0, 71, 64
1, 15600, Note_on_c, 0, 67, 64
1, 15600, Note_on_c, 0, 43, 64
1, 15645, Note_on_c, 0, 71, 0
1, 15645, Note_on_c, 0, 67, 0
1, 15645, Note_on_c, 0, 43, 0
1, 15648, Note_on_c, 0, 67, 64
1, 15693, Note_on_c, 0, 67, 0
1, 15696, Note_on_c, 0, 71, 64
1, 15696, Note_on_c, 0, 55, 64
1, 15696, Note_on_c, 0, 43, 64
1, 15719, Note_on_c, 0, 71, 0
1, 15720, Note_on_c, 0, 67, 64
1, 15743, Note_on_c, 0, 67, 0
1, 15744, Note_on_c, 0, 71, 64
1, 15767, Note_on_c, 0, 71, 0
1, 15768, Note_on_c, 0, 67, 64
1, 15785, Note_on_c, 0, 55, 0
1, 15785, Note_on_c, 0, 43, 0
1, 15791, Note_on_c, 0, 67, 0
1, 15792, Note_on_c, 0, 72, 64
1, 15792, Note_on_c, 0, 57, 64
1, 15792, Note_on_c, 0, 45, 64
1, 15815, Note_on_c, 0, 72, 0
1, 15816, Note_on_c, 0, 67, 64
1, 15837, Note_on_c, 0, 57, 0
1, 15837, Note_on_c, 0, 45, 0
1, 15839, Note_on_c, 0, 67, 0
1, 15840, Note_on_c, 0, 74, 64
1, 15840, Note_on_c, 0, 59, 64
1, 15840, Note_on_c, 0, 47, 64
1, 15863, Note_on_c, 0, 74, 0
1, 15864, Note_on_c, 0, 67, 64
1, 15887, Note_on_c, 0, 67, 0
1, 15888, Note_on_c, 0, 74, 64
1, 15911, Note_on_c, 0, 74, 0
1, 15912, Note_on_c, 0, 67, 64
1, 15929, Note_on_c, 0, 59, 0
1, 15929, Note_on_c, 0, 47, 0
1, 15935, Note_on_c, 0, 67, 0
1, 15936, Note_on_c, 0, 76, 64
1, 15936, Note_on_c, 0, 60, 64
1, 15936, Note_on_c, 0, 48, 64
1, 15959, Note_on_c, 0, 76, 0
1, 15960, Note_on_c, 0, 67, 64
1, 15981, Note_on_c, 0, 60, 0
1, 15981, Note_on_c, 0, 48, 0
1, 15983, Note_on_c, 0, 67, 0
1, 15984, Note_on_c, 0, 74, 64
1, 15984, Note_on_c, 0, 59, 64
1, 16029, Note_on_c, 0, 74, 0
1, 16029, Note_on_c, 0, 59, 0
1, 16032, Note_on_c, 0, 67, 64
1, 16032, Note_on_c, 0, 62, 64
1, 16077, Note_on_c, 0, 67, 0
1, 16077, Note_on_c, 0, 62, 0
1, 16080, Note_on_c, 0, 66, 64
1, 16080, Note_on_c, 0, 50, 64
1, 16125, Note_on_c, 0, 66, 0
1, 16125, Note_on_c, 0, 50, 0
1, 16128, Note_on_c, 0, 67, 64
1, 16128, Note_on_c, 0, 55, 64
1, 16173, Note_on_c, 0, 55, 0
1, 16176, Note_on_c, 0, 43, 64
1, 16217, Note_on_c, 0, 67, 0
1, 16221, Note_on_c, 0, 43, 0
1, 16224, Note_on_c, 0, 74, 64
1, 16269, Note_on_c, 0, 74, 0
1, 16272, Note_on_c, 0, 66, 64
1, 16272, Note_on_c, 0, 60, 64
1, 16272, Note_on_c, 0, 48, 64
1, 16295, Note_on_c, 0, 66, 0
1, 16296, Note_on_c, 0, 74, 64
1, 16319, Note_on_c, 0, 74, 0
1, 16320, Note_on_c, 0, 66, 64
1, 16343, Note_on_c, 0, 66, 0
1, 16344, Note_on_c, 0, 74, 64
1, 16361, Note_on_c, 0, 60, 0
1, 16361, Note_on_c, 0, 48, 0
1, 16367, Note_on_c, 0, 74, 0
1, 16368, Note_on_c, 0, 67, 64
1, 16368, Note_on_c, 0, 59, 64
1, 16368, Note_on_c, 0, 47, 64
1, 16391, Note_on_c, 0, 67, 0
1, 16392, Note_on_c, 0, 74, 64
1, 16413, Note_on_c, 0, 59, 0
1, 16413, Note_on_c, 0, 47, 0
1, 16415, Note_on_c, 0, 74, 0
1, 16416, Note_on_c, 0, 72, 64
1, 16416, Note_on_c, 0, 54, 64
1, 16416, Note_on_c, 0, 42, 64
1, 16439, Note_on_c, 0, 72, 0
1, 16440, Note_on_c, 0, 71, 64
1, 16463, Note_on_c, 0, 71, 0
1, 16464, Note_on_c, 0, 72, 64
1, 16487, Note_on_c, 0, 72, 0
1, 16488, Note_on_c, 0, 69, 64
1, 16505, Note_on_c, 0, 54, 0
1, 16505, Note_on_c, 0, 42, 0
1, 16511, Note_on_c, 0, 69, 0
1, 16512, Note_on_c, 0, 71, 64
1, 16512, Note_on_c, 0, 55, 64
1, 16512, Note_on_c, 0, 43, 64
1, 16557, Note_on_c, 0, 71, 0
1, 16557, Note_on_c, 0, 55, 0
1, 16557, Note_on_c, 0, 43, 0
1, 16560, Note_on_c, 0, 66, 64
1, 16560, Note_on_c, 0, 60, 64
1, 16560, Note_on_c, 0, 48, 64
1, 16583, Note_on_c, 0, 66, 0
1, 16584, Note_on_c, 0, 74, 64
1, 16607, Note_on_c, 0, 74, 0
1, 16608, Note_on_c, 0, 66, 64
1, 16631, Note_on_c, 0, 66, 0
1, 16632, Note_on_c, 0, 74, 64
1, 16649, Note_on_c, 0, 60, 0
1, 16649, Note_on_c, 0, 48, 0
1, 16655, Note_on_c, 0, 74, 0
1, 16656, Note_on_c, 0, 67, 64
1, 16656, Note_on_c, 0, 59, 64
1, 16656, Note_on_c, 0, 47, 64
1, 16679, Note_on_c, 0, 67, 0
1, 16680, Note_on_c, 0, 74, 64
1, 16701, Note_on_c, 0, 59, 0
1, 16701, Note_on_c, 0, 47, 0
1, 16703, Note_on_c, 0, 74, 0
1, 16704, Note_on_c, 0, 72, 64
1, 16704, Note_on_c, 0, 54, 64
1, 16704, Note_on_c, 0, 42, 64
1, 16727, Note_on_c, 0, 72, 0
1, 16728, Note_on_c, 0, 71, 64
1, 16751, Note_on_c, 0, 71, 0
1, 16752, Note_on_c, 0, 72, 64
1, 16775, Note_on_c, 0, 72, 0
1, 16776, Note_on_c, 0, 69, 64
1, 16793, Note_on_c, 0, 54, 0
1, 16793, Note_on_c, 0, 42, 0
1, 16799, Note_on_c, 0, 69, 0
1, 16800, Note_on_c, 0, 71, 64
1, 16800, Note_on_c, 0, 55, 64
1, 16800, Note_on_c, 0, 43, 64
1, 16845, Note_on_c, 0, 71, 0
1, 16845, Note_on_c, 0, 55, 0
1, 16845, Note_on_c, 0, 43, 0
1, 16848, Note_on_c, 0, 79, 64
1, 16848, Note_on_c, 0, 59, 64
1, 16848, Note_on_c, 0, 47, 64
1, 16871, Note_on_c, 0, 79, 0
1, 16872, Note_on_c, 0, 78, 64
1, 16895, Note_on_c, 0, 78, 0
1, 16896, Note_on_c, 0, 79, 64
1, 16919, Note_on_c, 0, 79, 0
1, 16920, Note_on_c, 0, 83, 64
1, 16937, Note_on_c, 0, 59, 0
1, 16937, Note_on_c, 0, 47, 0
1, 16943, Note_on_c, 0, 83, 0
1, 16944, Note_on_c, 0, 74, 64
1, 16944, Note_on_c, 0, 59, 64
1, 16944, Note_on_c, 0, 47, 64
1, 16989, Note_on_c, 0, 74, 0
1, 16989, Note_on_c, 0, 59, 0
1, 16989, Note_on_c, 0, 47, 0
1, 16992, Note_on_c, 0, 76, 64
1, 16992, Note_on_c, 0, 60, 64
1, 16992, Note_on_c, 0, 48, 64
1, 17015, Note_on_c, 0, 76, 0
1, 17016, Note_on_c, 0, 74, 64
1, 17039, Note_on_c, 0, 74, 0
1, 17040, Note_on_c, 0, 76, 64
1, 17063, Note_on_c, 0, 76, 0
1, 17064, Note_on_c, 0, 79, 64
1, 17081, Note_on_c, 0, 60, 0
1, 17081, Note_on_c, 0, 48, 0
1, 17087, Note_on_c, 0, 79, 0
1, 17088, Note_on_c, 0, 74, 64
1, 17088, Note_on_c, 0, 59, 64
1, 17088, Note_on_c, 0, 47, 64
1, 17133, Note_on_c, 0, 74, 0
1, 17133, Note_on_c, 0, 59, 0
1, 17133, Note_on_c, 0, 47, 0
1, 17136, Note_on_c, 0, 72, 64
1, 17136, Note_on_c, 0, 57, 64
1, 17159, Note_on_c, 0, 72, 0
1, 17160, Note_on_c, 0, 71, 64
1, 17181, Note_on_c, 0, 57, 0
1, 17183, Note_on_c, 0, 71, 0
1, 17184, Note_on_c, 0, 72, 64
1, 17184, Note_on_c, 0, 54, 64
1, 17207, Note_on_c, 0, 72, 0
1, 17208, Note_on_c, 0, 69, 64
1, 17229, Note_on_c, 0, 54, 0
1, 17231, Note_on_c, 0, 69, 0
1, 17232, Note_on_c, 0, 71, 64
1, 17232, Note_on_c, 0, 55, 64
1, 17255, Note_on_c, 0, 71, 0
1, 17256, Note_on_c, 0, 67, 64
1, 17277, Note_on_c, 0, 55, 0
1, 17279, Note_on_c, 0, 67, 0
1, 17280, Note_on_c, 0, 62, 64
1, 17280, Note_on_c, 0, 50, 64
1, 17325, Note_on_c, 0, 50, 0
1, 17328, Note_on_c, 0, 38, 64
1, 17369, Note_on_c, 0, 62, 0
1, 17373, Note_on_c, 0, 38, 0
1, 17376, Note_on_c, 0, 67, 64
1, 17421, Note_on_c, 0, 67, 0
1, 17424, Note_on_c, 0, 71, 64
1, 17424, Note_on_c, 0, 55, 64
1, 17424, Note_on_c, 0, 43, 64
1, 17447, Note_on_c, 0, 71, 0
1, 17448, Note_on_c, 0, 67, 64
1, 17471, Note_on_c, 0, 67, 0
1, 17472, Note_on_c, 0, 71, 64
1, 17495, Note_on_c, 0, 71, 0
1, 17496, Note_on_c, 0, 67, 64
1, 17513, Note_on_c, 0, 55, 0
1, 17513, Note_on_c, 0, 43, 0
1, 17519, Note_on_c, 0, 67, 0
1, 17520, Note_on_c, 0, 72, 64
1, 17520, Note_on_c, 0, 57, 64
1, 17520, Note_on_c, 0, 45, 64
1, 17543, Note_on_c, 0, 72, 0
1, 17544, Note_on_c, 0, 67, 64
1, 17565, Note_on_c, 0, 57, 0
1, 17565, Note_on_c, 0, 45, 0
1, 17567, Note_on_c, 0, 67, 0
1, 17568, Note_on_c, 0, 74, 64
1, 17568, Note_on_c, 0, 59, 64
1, 17568, Note_on_c, 0, 47, 64
1, 17591, Note_on_c, 0, 74, 0
1, 17592, Note_on_c, 0, 67, 64
1, 17615, Note_on_c, 0, 67, 0
1, 17616, Note_on_c, 0, 74, 64
1, 17639, Note_on_c, 0, 74, 0
1, 17640, Note_on_c, 0, 67, 64
1, 17657, Note_on_c, 0, 59, 0
1, 17657, Note_on_c, 0, 47, 0
1, 17663, Note_on_c, 0, 67, 0
1, 17664, Note_on_c, 0, 76, 64
1, 17664, Note_on_c, 0, 60, 64
1, 17664, Note_on_c, 0, 48, 64
1, 17687, Note_on_c, 0, 76, 0
1, 17688, Note_on_c, 0, 67, 64
1, 17709, Note_on_c, 0, 60, 0
1, 17709, Note_on_c, 0, 48, 0
1, 17711, Note_on_c, 0, 67, 0
1, 17712, Note_on_c, 0, 67, 64
1, 17712, Note_on_c, 0, 62, 64
1, 17712, Note_on_c, 0, 50, 64
1, 17735, Note_on_c, 0, 67, 0
1, 17736, Note_on_c, 0, 66, 64
1, 17759, Note_on_c, 0, 66, 0
1, 17760, Note_on_c, 0, 64, 64
1, 17783, Note_on_c, 0, 64, 0
1, 17784, Note_on_c, 0, 62, 64
1, 17801, Note_on_c, 0, 62, 0
1, 17801, Note_on_c, 0, 50, 0
1, 17807, Note_on_c, 0, 62, 0
1, 17808, Note_on_c, 0, 72, 64
1, 17808, Note_on_c, 0, 69, 64
1, 17808, Note_on_c, 0, 54, 64
1, 17828, Note_on_c, 0, 72, 0
1, 17828, Note_on_c, 0, 69, 0
1, 17853, Note_on_c, 0, 54, 0
1, 17856, Note_on_c, 0, 72, 64
1, 17856, Note_on_c, 0, 69, 64
1, 17856, Note_on_c, 0, 55, 64
1, 17901, Note_on_c, 0, 72, 0
1, 17901, Note_on_c, 0, 69, 0
1, 17901, Note_on_c, 0, 55, 0
1, 17904, Note_on_c, 0, 71, 64
1, 17904, Note_on_c, 0, 67, 64
1, 17904, Note_on_c, 0, 43, 64
1, 17949, Note_on_c, 0, 71, 0
1, 17949, Note_on_c, 0, 67, 0
1, 17949, Note_on_c, 0, 43, 0
1, 17952, Note_on_c, 0, 67, 64
1, 17997, Note_on_c, 0, 67, 0
1, 18000, Note_on_c, 0, 71, 64
1, 18000, Note_on_c, 0, 55, 64
1, 18000, Note_on_c, 0, 43, 64
1, 18023, Note_on_c, 0, 71, 0
1, 18024, Note_on_c, 0, 67, 64
1, 18047, Note_on_c, 0, 67, 0
1, 18048, Note_on_c, 0, 71, 64
1, 18071, Note_on_c, 0, 71, 0
1, 18072, Note_on_c, 0, 67, 64
1, 18089, Note_on_c, 0, 55, 0
1, 18089, Note_on_c, 0, 43, 0
1, 18095, Note_on_c, 0, 67, 0
1, 18096, Note_on_c, 0, 72, 64
1, 18096, Note_on_c, 0, 57, 64
1, 18096, Note_on_c, 0, 45, 64
1, 18119, Note_on_c, 0, 72, 0
1, 18120, Note_on_c, 0, 67, 64
1, 18141, Note_on_c, 0, 57, 0
1, 18141, Note_on_c, 0, 45, 0
1, 18143, Note_on_c, 0, 67, 0
1, 18144, Note_on_c, 0, 74, 64
1, 18144, Note_on_c, 0, 59, 64
1, 18144, Note_on_c, 0, 47, 64
1, 18167, Note_on_c, 0, 74, 0
1, 18168, Note_on_c, 0, 67, 64
1, 18191, Note_on_c, 0, 67, 0
1, 18192, Note_on_c, 0, 74, 64
1, 18215, Note_on_c, 0, 74, 0
1, 18216, Note_on_c, 0, 67, 64
1, 18233, Note_on_c, 0, 59, 0
1, 18233, Note_on_c, 0, 47, 0
1, 18239, Note_on_c, 0, 67, 0
1, 18240, Note_on_c, 0, 76, 64
1, 18240, Note_on_c, 0, 60, 64
1, 18240, Note_on_c, 0, 48, 64
1, 18263, Note_on_c, 0, 76, 0
1, 18264, Note_on_c, 0, 67, 64
1, 18285, Note_on_c, 0, 60, 0
1, 18285, Note_on_c, 0, 48, 0
1, 18287, Note_on_c, 0, 67, 0
1, 18288, Note_on_c, 0, 74, 64
1, 18288, Note_on_c, 0, 59, 64
1, 18333, Note_on_c, 0, 74, 0
1, 18333, Note_on_c, 0, 59, 0
1, 18336, Note_on_c, 0, 67, 64
1, 18336, Note_on_c, 0, 62, 64
1, 18381, Note_on_c, 0, 67, 0
1, 18381, Note_on_c, 0, 62, 0
1, 18384, Note_on_c, 0, 66, 64
1, 18384, Note_on_c, 0, 50, 64
1, 18429, Note_on_c, 0, 66, 0
1, 18429, Note_on_c, 0, 50, 0
1, 18432, Note_on_c, 0, 67, 64
1, 18432, Note_on_c, 0, 55, 64
1, 18477, Note_on_c, 0, 55, 0
1, 18480, Note_on_c, 0, 43, 64
1, 18521, Note_on_c, 0, 67, 0
1, 18525, Note_on_c, 0, 43, 0
1, 18528, Note_on_c, 0, 74, 64
1, 18573, Note_on_c, 0, 74, 0
1, 18576, Note_on_c, 0, 66, 64
1, 18576, Note_on_c, 0, 60, 64
1, 18576, Note_on_c, 0, 48, 64
1, 18599, Note_on_c, 0, 66, 0
1, 18600, Note_on_c, 0, 74, 64
1, 18623, Note_on_c, 0, 74, 0
1, 18624, Note_on_c, 0, 66, 64
1, 18647, Note_on_c, 0, 66, 0
1, 18648, Note_on_c, 0, 74, 64
1, 18665, Note_on_c, 0, 60, 0
1, 18665, Note_on_c, 0, 48, 0
1, 18671, Note_on_c, 0, 74, 0
1, 18672, Note_on_c, 0, 67, 64
1, 18672, Note_on_c, 0, 59, 64
1, 18672, Note_on_c, 0, 47, 64
1, 18695, Note_on_c, 0, 67, 0
1, 18696, Note_on_c, 0, 74, 64
1, 18717, Note_on_c, 0, 59, 0
1, 18717, Note_on_c, 0, 47, 0
1, 18719, Note_on_c, 0, 74, 0
1, 18720, Note_on_c, 0, 72, 64
1, 18720, Note_on_c, 0, 54, 64
1, 18720, Note_on_c, 0, 42, 64
1, 18743, Note_on_c, 0, 72, 0
1, 18744, Note_on_c, 0, 71, 64
1, 18767, Note_on_c, 0, 71, 0
1, 18768, Note_on_c, 0, 72, 64
1, 18791, Note_on_c, 0, 72, 0
1, 18792, Note_on_c, 0, 69, 64
1, 18809, Note_on_c, 0, 54, 0
1, 18809, Note_on_c, 0, 42, 0
1, 18815, Note_on_c, 0, 69, 0
1, 18816, Note_on_c, 0, 71, 64
1, 18816, Note_on_c, 0, 55, 64
1, 18816, Note_on_c, 0, 43, 64
1, 18861, Note_on_c, 0, 71, 0
1, 18861, Note_on_c, 0, 55, 0
1, 18861, Note_on_c, 0, 43, 0
1, 18864, Note_on_c, 0, 66, 64
1, 18864, Note_on_c, 0, 60, 64
1, 18864, Note_on_c, 0, 48, 64
1, 18887, Note_on_c, 0, 66, 0
1, 18888, Note_on_c, 0, 74, 64
1, 18911, Note_on_c, 0, 74, 0
1, 18912, Note_on_c, 0, 66, 64
1, 18935, Note_on_c, 0, 66, 0
1, 18936, Note_on_c, 0, 74, 64
1, 18953, Note_on_c, 0, 60, 0
1, 18953, Note_on_c, 0, 48, 0
1, 18959, Note_on_c, 0, 74, 0
1, 18960, Note_on_c, 0, 67, 64
1, 18960, Note_on_c, 0, 59, 64
1, 18960, Note_on_c, 0, 47, 64
1, 18983, Note_on_c, 0, 67, 0
1, 18984, Note_on_c, 0, 74, 64
1, 19005, Note_on_c, 0, 59, 0
1, 19005, Note_on_c, 0, 47, 0
1, 19007, Note_on_c, 0, 74, 0
1, 19008, Note_on_c, 0, 72, 64
1, 19008, Note_on_c, 0, 54, 64
1, 19008, Note_on_c, 0, 42, 64
1, 19031, Note_on_c, 0, 72, 0
1, 19032, Note_on_c, 0, 71, 64
1, 19055, Note_on_c, 0, 71, 0
1, 19056, Note_on_c, 0, 72, 64
1, 19079, Note_on_c, 0, 72, 0
1, 19080, Note_on_c, 0, 69, 64
1, 19097, Note_on_c, 0, 54, 0
1, 19097, Note_on_c, 0, 42, 0
1, 19103, Note_on_c, 0, 69, 0
1, 19104, Note_on_c, 0, 71, 64
1, 19104, Note_on_c, 0, 55, 64
1, 19104, Note_on_c, 0, 43, 64
1, 19149, Note_on_c, 0, 71, 0
1, 19149, Note_on_c, 0, 55, 0
1, 19149, Note_on_c, 0, 43, 0
1, 19152, Note_on_c, 0, 79, 64
1, 19152, Note_on_c, 0, 59, 64
1, 19152, Note_on_c, 0, 47, 64
1, 19175, Note_on_c, 0, 79, 0
1, 19176, Note_on_c, 0, 78, 64
1, 19199, Note_on_c, 0, 78, 0
1, 19200, Note_on_c, 0, 79, 64
1, 19223, Note_on_c, 0, 79, 0
1, 19224, Note_on_c, 0, 83, 64
1, 19241, Note_on_c, 0, 59, 0
1, 19241, Note_on_c, 0, 47, 0
1, 19247, Note_on_c, 0, 83, 0
1, 19248, Note_on_c, 0, 74, 64
1, 19248, Note_on_c, 0, 59, 64
1, 19248, Note_on_c, 0, 47, 64
1, 19293, Note_on_c, 0, 74, 0
1, 19293, Note_on_c, 0, 59, 0
1, 19293, Note_on_c, 0, 47, 0
1, 19296, Note_on_c, 0, 76, 64
1, 19296, Note_on_c, 0, 60, 64
1, 19296, Note_on_c, 0, 48, 64
1, 19319, Note_on_c, 0, 76, 0
1, 19320, Note_on_c, 0, 74, 64
1, 19343, Note_on_c, 0, 74, 0
1, 19344, Note_on_c, 0, 76, 64
1, 19367, Note_on_c, 0, 76, 0
1, 19368, Note_on_c, 0, 79, 64
1, 19385, Note_on_c, 0, 60, 0
1, 19385, Note_on_c, 0, 48, 0
1, 19391, Note_on_c, 0, 79, 0
1, 19392, Note_on_c, 0, 74, 64
1, 19392, Note_on_c, 0, 59, 64
1, 19392, Note_on_c, 0, 47, 64
1, 19437, Note_on_c, 0, 74, 0
1, 19437, Note_on_c, 0, 59, 0
1, 19437, Note_on_c, 0, 47, 0
1, 19440, Note_on_c, 0, 72, 64
1, 19440, Note_on_c, 0, 57, 64
1, 19463, Note_on_c, 0, 72, 0
1, 19464, Note_on_c, 0, 71, 64
1, 19485, Note_on_c, 0, 57, 0
1, 19487, Note_on_c, 0, 71, 0
1, 19488, Note_on_c, 0, 72, 64
1, 19488, Note_on_c, 0, 54, 64
1, 19511, Note_on_c, 0, 72, 0
1, 19512, Note_on_c, 0, 69, 64
1, 19533, Note_on_c, 0, 54, 0
1, 19535, Note_on_c, 0, 69, 0
1, 19536, Note_on_c, 0, 71, 64
1, 19536, Note_on_c, 0, 55, 64
1, 19559, Note_on_c, 0, 71, 0
1, 19560, Note_on_c, 0, 67, 64
1, 19581, Note_on_c, 0, 55, 0
1, 19583, Note_on_c, 0, 67, 0
1, 19584, Note_on_c, 0, 62, 64
1, 19584, Note_on_c, 0, 50, 64
1, 19629, Note_on_c, 0, 50, 0
1, 19632, Note_on_c, 0, 38, 64
1, 19673, Note_on_c, 0, 62, 0
1, 19677, Note_on_c, 0, 38, 0
1, 19680, Note_on_c, 0, 67, 64
1, 19725, Note_on_c, 0, 67, 0
1, 19728, Note_on_c, 0, 71, 64
1, 19728, Note_on_c, 0, 55, 64
1, 19728, Note_on_c, 0, 43, 64
1, 19751, Note_on_c, 0, 71, 0
1, 19752, Note_on_c, 0, 67, 64
1, 19775, Note_on_c, 0, 67, 0
1, 19776, Note_on_c, 0, 71, 64
1, 19799, Note_on_c, 0, 71, 0
1, 19800, Note_on_c, 0, 67, 64
1, 19817, Note_on_c, 0, 55, 0
1, 19817, Note_on_c, 0, 43, 0
1, 19823, Note_on_c, 0, 67, 0
1, 19824, Note_on_c, 0, 72, 64
1, 19824, Note_on_c, 0, 57, 64
1, 19824, Note_on_c, 0, 45, 64
1, 19847, Note_on_c, 0, 72, 0
1, 19848, Note_on_c, 0, 67, 64
1, 19869, Note_on_c, 0, 57, 0
1, 19869, Note_on_c, 0, 45, 0
1, 19871, Note_on_c, 0, 67, 0
1, 19872, Note_on_c, 0, 74, 64
1, 19872, Note_on_c, 0, 59, 64
1, 19872, Note_on_c, 0, 47, 64
1, 19895, Note_on_c, 0, 74, 0
1, 19896, Note_on_c, 0, 67, 64
1, 19919, Note_on_c, 0, 67, 0
1, 19920, Note_on_c, 0, 74, 64
1, 19943, Note_on_c, 0, 74, 0
1, 19944, Note_on_c, 0, 67, 64
1, 19961, Note_on_c, 0, 59, 0
1, 19961, Note_on_c, 0, 47, 0
1, 19967, Note_on_c, 0, 67, 0
1, 19968, Note_on_c, 0, 76, 64
1, 19968, Note_on_c, 0, 60, 64
1, 19968, Note_on_c, 0, 48, 64
1, 19991, Note_on_c, 0, 76, 0
1, 19992, Note_on_c, 0, 67, 64
1, 20013, Note_on_c, 0, 60, 0
1, 20013, Note_on_c, 0, 48, 0
1, 20015, Note_on_c, 0, 67, 0
1, 20016, Note_on_c, 0, 67, 64
1, 20016, Note_on_c, 0, 62, 64
1, 20016, Note_on_c, 0, 50, 64
1, 20039, Note_on_c, 0, 67, 0
1, 20040, Note_on_c, 0, 66, 64
1, 20063, Note_on_c, 0, 66, 0
1, 20064, Note_on_c, 0, 64, 64
1, 20087, Note_on_c, 0, 64, 0
1, 20088, Note_on_c, 0, 62, 64
1, 20105, Note_on_c, 0, 62, 0
1, 20105, Note_on_c, 0, 50, 0
1, 20111, Note_on_c, 0, 62, 0
1, 20112, Note_on_c, 0, 72, 64
1, 20112, Note_on_c, 0, 69, 64
1, 20112, Note_on_c, 0, 54, 64
1, 20132, Note_on_c, 0, 72, 0
1, 20132, Note_on_c, 0, 69, 0
1, 20157, Note_on_c, 0, 54, 0
1, 20160, Note_on_c, 0, 72, 64
1, 20160, Note_on_c, 0, 69, 64
1, 20160, Note_on_c, 0, 55, 64
1, 20205, Note_on_c, 0, 72, 0
1, 20205, Note_on_c, 0, 69, 0
1, 20205, Note_on_c, 0, 55, 0
1, 20208, Note_on_c, 0, 71, 64
1, 20208, Note_on_c, 0, 67, 64
1, 20208, Note_on_c, 0, 43, 64
1, 20253, Note_on_c, 0, 71, 0
1, 20253, Note_on_c, 0, 67, 0
1, 20253, Note_on_c, 0, 43, 0
1, 20256, Note_on_c, 0, 67, 64
1, 20301, Note_on_c, 0, 67, 0
1, 20304, Note_on_c, 0, 71, 64
1, 20304, Note_on_c, 0, 55, 64
1, 20304, Note_on_c, 0, 43, 64
1, 20327, Note_on_c, 0, 71, 0
1, 20328, Note_on_c, 0, 67, 64
1, 20351, Note_on_c, 0, 67, 0
1, 20352, Note_on_c, 0, 71, 64
1, 20375, Note_on_c, 0, 71, 0
1, 20376, Note_on_c, 0, 67, 64
1, 20393, Note_on_c, 0, 55, 0
1, 20393, Note_on_c, 0, 43, 0
1, 20399, Note_on_c, 0, 67, 0
1, 20400, Note_on_c, 0, 72, 64
1, 20400, Note_on_c, 0, 57, 64
1, 20400, Note_on_c, 0, 45, 64
1, 20423, Note_on_c, 0, 72, 0
1, 20424, Note_on_c, 0, 67, 64
1, 20445, Note_on_c, 0, 57, 0
1, 20445, Note_on_c, 0, 45, 0
1, 20447, Note_on_c, 0, 67, 0
1, 20448, Note_on_c, 0, 74, 64
1, 20448, Note_on_c, 0, 59, 64
1, 20448, Note_on_c, 0, 47, 64
1, 20471, Note_on_c, 0, 74, 0
1, 20472, Note_on_c, 0, 67, 64
1, 20495, Note_on_c, 0, 67, 0
1, 20496, Note_on_c, 0, 74, 64
1, 20519, Note_on_c, 0, 74, 0
1, 20520, Note_on_c, 0, 67, 64
1, 20537, Note_on_c, 0, 59, 0
1, 20537, Note_on_c, 0, 47, 0
1, 20543, Note_on_c, 0, 67, 0
1, 20544, Note_on_c, 0, 76, 64
1, 20544, Note_on_c, 0, 60, 64
1, 20544, Note_on_c, 0, 48, 64
1, 20567, Note_on_c, 0, 76, 0
1, 20568, Note_on_c, 0, 67, 64
1, 20589, Note_on_c, 0, 60, 0
1, 20589, Note_on_c, 0, 48, 0
1, 20591, Note_on_c, 0, 67, 0
1, 20592, Note_on_c, 0, 74, 64
1, 20592, Note_on_c, 0, 59, 64
1, 20637, Note_on_c, 0, 74, 0
1, 20637, Note_on_c, 0, 59, 0
1, 20640, Note_on_c, 0, 67, 64
1, 20640, Note_on_c, 0, 62, 64
1, 20685, Note_on_c, 0, 67, 0
1, 20685, Note_on_c, 0, 62, 0
1, 20688, Note_on_c, 0, 66, 64
1, 20688, Note_on_c, 0, 50, 64
1, 20733, Note_on_c, 0, 66, 0
1, 20733, Note_on_c, 0, 50, 0
1, 20736, Note_on_c, 0, 67, 64
1, 20736, Note_on_c, 0, 55, 64
1, 20781, Note_on_c, 0, 55, 0
1, 20784, Note_on_c, 0, 43, 64
1, 20825, Note_on_c, 0, 67, 0
1, 20829, Note_on_c, 0, 43, 0
1, 20880, Note_on_c, 0, 43, 0
1, 20969, Note_on_c, 0, 43, 0
1, 20979, End_track
0, 0, End_of_file