0, 0, Header, 0, 1, 96
1, 0, Start_track
1, 0, Tempo, 666666
1, 0, Note_on_c, 0, 65, 64
1, 0, Note_on_c, 1, 53, 85
1, 0, Note_on_c, 1, 41, 85
1, 9, Note_on_c, 0, 69, 64
1, 18, Note_on_c, 0, 72, 64
1, 27, Note_on_c, 0, 77, 64
1, 89, Note_on_c, 1, 53, 0
1, 89, Note_on_c, 1, 41, 0
1, 95, Note_on_c, 0, 77, 0
1, 95, Note_on_c, 0, 72, 0
1, 95, Note_on_c, 0, 69, 0
1, 95, Note_on_c, 0, 65, 0
1, 96, Note_on_c, 0, 69, 64
1, 96, Note_on_c, 1, 53, 70
1, 96, Note_on_c, 1, 41, 70
1, 130, Note_on_c, 0, 69, 0
1, 132, Note_on_c, 0, 72, 64
1, 141, Note_on_c, 1, 53, 0
1, 141, Note_on_c, 1, 41, 0
1, 144, Note_on_c, 0, 72, 0
1, 144, Note_on_c, 0, 70, 64
1, 144, Note_on_c, 1, 55, 70
1, 144, Note_on_c, 1, 43, 70
1, 178, Note_on_c, 0, 70, 0
1, 180, Note_on_c, 0, 74, 64
1, 189, Note_on_c, 1, 55, 0
1, 189, Note_on_c, 1, 43, 0
1, 192, Note_on_c, 0, 74, 0
1, 192, Note_on_c, 0, 72, 64
1, 192, Note_on_c, 1, 57, 70
1, 192, Note_on_c, 1, 45, 70
1, 237, Note_on_c, 0, 72, 0
1, 240, Note_on_c, 0, 65, 64
1, 281, Note_on_c, 1, 57, 0
1, 281, Note_on_c, 1, 45, 0
1, 285, Note_on_c, 0, 65, 0
1, 288, Note_on_c, 0, 65, 64
1, 333, Note_on_c, 0, 65, 0
1, 336, Note_on_c, 0, 65, 64
1, 336, Note_on_c, 1, 60, 70
1, 336, Note_on_c, 1, 57, 70
1, 381, Note_on_c, 0, 65, 0
1, 381, Note_on_c, 1, 60, 0
1, 381, Note_on_c, 1, 57, 0
1, 384, Note_on_c, 0, 67, 64
1, 384, Note_on_c, 1, 62, 70
1, 384, Note_on_c, 1, 58, 70
1, 394, Note_on_c, 0, 67, 0
1, 394, Note_on_c, 0, 69, 64
1, 404, Note_on_c, 0, 69, 0
1, 404, Note_on_c, 0, 67, 64
1, 414, Note_on_c, 0, 67, 0
1, 414, Note_on_c, 0, 65, 64
1, 423, Note_on_c, 0, 65, 0
1, 423, Note_on_c, 0, 67, 64
1, 429, Note_on_c, 1, 62, 0
1, 429, Note_on_c, 1, 58, 0
1, 432, Note_on_c, 0, 67, 0
1, 432, Note_on_c, 0, 65, 64
1, 432, Note_on_c, 1, 60, 70
1, 432, Note_on_c, 1, 57, 70
1, 477, Note_on_c, 0, 65, 0
1, 477, Note_on_c, 1, 60, 0
1, 477, Note_on_c, 1, 57, 0
1, 480, Note_on_c, 0, 72, 64
1, 503, Note_on_c, 0, 72, 0
1, 504, Note_on_c, 0, 69, 64
1, 527, Note_on_c, 0, 69, 0
1, 528, Note_on_c, 0, 67, 64
1, 528, Note_on_c, 1, 60, 70
1, 528, Note_on_c, 1, 57, 70
1, 551, Note_on_c, 0, 67, 0
1, 552, Note_on_c, 0, 65, 64
1, 573, Note_on_c, 1, 60, 0
1, 573, Note_on_c, 1, 57, 0
1, 575, Note_on_c, 0, 65, 0
1, 576, Note_on_c, 0, 67, 64
1, 576, Note_on_c, 1, 62, 70
1, 576, Note_on_c, 1, 58, 70
1, 586, Note_on_c, 0, 67, 0
1, 586, Note_on_c, 0, 69, 64
1, 596, Note_on_c, 0, 69, 0
1, 596, Note_on_c, 0, 67, 64
1, 606, Note_on_c, 0, 67, 0
1, 606, Note_on_c, 0, 65, 64
1, 615, Note_on_c, 0, 65, 0
1, 615, Note_on_c, 0, 67, 64
1, 621, Note_on_c, 1, 62, 0
1, 621, Note_on_c, 1, 58, 0
1, 624, Note_on_c, 0, 67, 0
1, 624, Note_on_c, 0, 65, 64
1, 624, Note_on_c, 1, 60, 70
1, 624, Note_on_c, 1, 57, 70
1, 669, Note_on_c, 0, 65, 0
1, 669, Note_on_c, 1, 60, 0
1, 669, Note_on_c, 1, 57, 0
1, 720, Note_on_c, 0, 72, 64
1, 720, Note_on_c, 1, 69, 70
1, 720, Note_on_c, 1, 65, 70
1, 765, Note_on_c, 0, 72, 0
1, 765, Note_on_c, 1, 69, 0
1, 765, Note_on_c, 1, 65, 0
1, 768, Note_on_c, 0, 74, 64
1, 768, Note_on_c, 1, 70, 70
1, 768, Note_on_c, 1, 65, 70
1, 802, Note_on_c, 0, 74, 0
1, 804, Note_on_c, 0, 77, 64
1, 816, Note_on_c, 0, 77, 0
1, 816, Note_on_c, 0, 76, 64
1, 850, Note_on_c, 0, 76, 0
1, 852, Note_on_c, 0, 74, 64
1, 857, Note_on_c, 1, 70, 0
1, 857, Note_on_c, 1, 65, 0
1, 864, Note_on_c, 0, 74, 0
1, 864, Note_on_c, 0, 72, 64
1, 864, Note_on_c, 1, 69, 70
1, 864, Note_on_c, 1, 65, 70
1, 909, Note_on_c, 0, 72, 0
1, 912, Note_on_c, 0, 77, 64
1, 953, Note_on_c, 1, 69, 0
1, 953, Note_on_c, 1, 65, 0
1, 957, Note_on_c, 0, 77, 0
1, 960, Note_on_c, 0, 70, 64
1, 960, Note_on_c, 1, 67, 70
1, 971, Note_on_c, 0, 70, 0
1, 971, Note_on_c, 0, 72, 64
1, 982, Note_on_c, 0, 72, 0
1, 982, Note_on_c, 0, 70, 64
1, 993, Note_on_c, 0, 70, 0
1, 993, Note_on_c, 0, 72, 64
1, 1004, Note_on_c, 0, 72, 0
1, 1004, Note_on_c, 0, 70, 64
1, 1005, Note_on_c, 1, 67, 0
1, 1008, Note_on_c, 1, 60, 70
1, 1015, Note_on_c, 0, 70, 0
1, 1015, Note_on_c, 0, 72, 64
1, 1026, Note_on_c, 0, 72, 0
1, 1026, Note_on_c, 0, 70, 64
1, 1036, Note_on_c, 0, 70, 0
1, 1036, Note_on_c, 0, 69, 64
1, 1046, Note_on_c, 0, 69, 0
1, 1046, Note_on_c, 0, 70, 64
1, 1053, Note_on_c, 1, 60, 0
1, 1056, Note_on_c, 0, 70, 0
1, 1056, Note_on_c, 0, 69, 64
1, 1056, Note_on_c, 1, 65, 70
1, 1101, Note_on_c, 0, 69, 0
1, 1101, Note_on_c, 1, 65, 0
1, 1104, Note_on_c, 0, 72, 64
1, 1104, Note_on_c, 1, 69, 70
1, 1104, Note_on_c, 1, 65, 70
1, 1149, Note_on_c, 0, 72, 0
1, 1149, Note_on_c, 1, 69, 0
1, 1149, Note_on_c, 1, 65, 0
1, 1152, Note_on_c, 0, 74, 64
1, 1152, Note_on_c, 1, 70, 70
1, 1152, Note_on_c, 1, 65, 70
1, 1186, Note_on_c, 0, 74, 0
1, 1188, Note_on_c, 0, 77, 64
1, 1200, Note_on_c, 0, 77, 0
1, 1200, Note_on_c, 0, 76, 64
1, 1234, Note_on_c, 0, 76, 0
1, 1236, Note_on_c, 0, 74, 64
1, 1241, Note_on_c, 1, 70, 0
1, 1241, Note_on_c, 1, 65, 0
1, 1248, Note_on_c, 0, 74, 0
1, 1248, Note_on_c, 0, 72, 64
1, 1248, Note_on_c, 1, 69, 70
1, 1248, Note_on_c, 1, 65, 70
1, 1293, Note_on_c, 0, 72, 0
1, 1293, Note_on_c, 1, 69, 0
1, 1293, Note_on_c, 1, 65, 0
1, 1296, Note_on_c, 0, 81, 64
1, 1296, Note_on_c, 1, 65, 70
1, 1296, Note_on_c, 1, 53, 70
1, 1341, Note_on_c, 0, 81, 0
1, 1341, Note_on_c, 1, 65, 0
1, 1341, Note_on_c, 1, 53, 0
1, 1344, Note_on_c, 0, 79, 64
1, 1344, Note_on_c, 1, 64, 70
1, 1344, Note_on_c, 1, 52, 70
1, 1364, Note_on_c, 0, 79, 0
1, 1392, Note_on_c, 0, 72, 64
1, 1398, Note_on_c, 0, 72, 0
1, 1398, Note_on_c, 0, 74, 64
1, 1404, Note_on_c, 0, 74, 0
1, 1404, Note_on_c, 0, 76, 64
1, 1433, Note_on_c, 1, 64, 0
1, 1433, Note_on_c, 1, 52, 0
1, 1438, Note_on_c, 0, 76, 0
1, 1440, Note_on_c, 0, 76, 64
1, 1446, Note_on_c, 0, 76, 0
1, 1446, Note_on_c, 0, 77, 64
1, 1452, Note_on_c, 0, 77, 0
1, 1452, Note_on_c, 0, 79, 64
1, 1486, Note_on_c, 0, 79, 0
1, 1488, Note_on_c, 0, 77, 64
1, 1488, Note_on_c, 1, 65, 70
1, 1488, Note_on_c, 1, 53, 70
1, 1494, Note_on_c, 0, 77, 0
1, 1494, Note_on_c, 0, 79, 64
1, 1500, Note_on_c, 0, 79, 0
1, 1500, Note_on_c, 0, 81, 64
1, 1533, Note_on_c, 1, 65, 0
1, 1533, Note_on_c, 1, 53, 0
1, 1534, Note_on_c, 0, 81, 0
1, 1536, Note_on_c, 0, 79, 64
1, 1536, Note_on_c, 1, 64, 70
1, 1536, Note_on_c, 1, 52, 70
1, 1556, Note_on_c, 0, 79, 0
1, 1584, Note_on_c, 0, 72, 64
1, 1590, Note_on_c, 0, 72, 0
1, 1590, Note_on_c, 0, 74, 64
1, 1596, Note_on_c, 0, 74, 0
1, 1596, Note_on_c, 0, 76, 64
1, 1625, Note_on_c, 1, 64, 0
1, 1625, Note_on_c, 1, 52, 0
1, 1630, Note_on_c, 0, 76, 0
1, 1632, Note_on_c, 0, 76, 64
1, 1638, Note_on_c, 0, 76, 0
1, 1638, Note_on_c, 0, 77, 64
1, 1644, Note_on_c, 0, 77, 0
1, 1644, Note_on_c, 0, 79, 64
1, 1678, Note_on_c, 0, 79, 0
1, 1680, Note_on_c, 0, 84, 64
1, 1680, Note_on_c, 1, 65, 70
1, 1680, Note_on_c, 1, 53, 70
1, 1686, Note_on_c, 0, 84, 0
1, 1686, Note_on_c, 0, 83, 64
1, 1692, Note_on_c, 0, 83, 0
1, 1692, Note_on_c, 0, 81, 64
1, 1725, Note_on_c, 1, 65, 0
1, 1725, Note_on_c, 1, 53, 0
1, 1726, Note_on_c, 0, 81, 0
1, 1728, Note_on_c, 0, 79, 64
1, 1728, Note_on_c, 1, 64, 70
1, 1728, Note_on_c, 1, 52, 70
1, 1773, Note_on_c, 0, 79, 0
1, 1773, Note_on_c, 1, 64, 0
1, 1773, Note_on_c, 1, 52, 0
1, 1776, Note_on_c, 0, 77, 64
1, 1776, Note_on_c, 1, 65, 70
1, 1776, Note_on_c, 1, 53, 70
1, 1788, Note_on_c, 0, 77, 0
1, 1788, Note_on_c, 0, 76, 64
1, 1800, Note_on_c, 0, 76, 0
1, 1800, Note_on_c, 0, 74, 64
1, 1812, Note_on_c, 0, 74, 0
1, 1812, Note_on_c, 0, 72, 64
1, 1821, Note_on_c, 1, 65, 0
1, 1821, Note_on_c, 1, 53, 0
1, 1824, Note_on_c, 0, 72, 0
1, 1824, Note_on_c, 0, 74, 64
1, 1824, Note_on_c, 1, 67, 70
1, 1835, Note_on_c, 0, 74, 0
1, 1835, Note_on_c, 0, 76, 64
1, 1846, Note_on_c, 0, 76, 0
1, 1846, Note_on_c, 0, 74, 64
1, 1857, Note_on_c, 0, 74, 0
1, 1857, Note_on_c, 0, 76, 64
1, 1868, Note_on_c, 0, 76, 0
1, 1868, Note_on_c, 0, 74, 64
1, 1869, Note_on_c, 1, 67, 0
1, 1872, Note_on_c, 1, 55, 70
1, 1879, Note_on_c, 0, 74, 0
1, 1879, Note_on_c, 0, 76, 64
1, 1890, Note_on_c, 0, 76, 0
1, 1890, Note_on_c, 0, 74, 64
1, 1900, Note_on_c, 0, 74, 0
1, 1900, Note_on_c, 0, 72, 64
1, 1910, Note_on_c, 0, 72, 0
1, 1910, Note_on_c, 0, 74, 64
1, 1917, Note_on_c, 1, 55, 0
1, 1920, Note_on_c, 0, 74, 0
1, 1920, Note_on_c, 0, 72, 64
1, 1920, Note_on_c, 1, 60, 70
1, 1965, Note_on_c, 1, 60, 0
1, 1968, Note_on_c, 1, 55, 70
1, 2009, Note_on_c, 0, 72, 0
1, 2013, Note_on_c, 1, 55, 0
1, 2016, Note_on_c, 1, 48, 70
1, 2040, Note_on_c, 0, 79, 80
1, 2061, Note_on_c, 1, 48, 0
1, 2063, Note_on_c, 0, 79, 0
1, 2064, Note_on_c, 0, 67, 80
1, 2064, Note_on_c, 1, 52, 80
1, 2064, Note_on_c, 1, 40, 80
1, 2087, Note_on_c, 0, 67, 0
1, 2088, Note_on_c, 0, 79, 80
1, 2109, Note_on_c, 1, 52, 0
1, 2109, Note_on_c, 1, 40, 0
1, 2111, Note_on_c, 0, 79, 0
1, 2112, Note_on_c, 0, 69, 80
1, 2112, Note_on_c, 1, 53, 80
1, 2112, Note_on_c, 1, 41, 80
1, 2135, Note_on_c, 0, 69, 0
1, 2136, Note_on_c, 0, 79, 80
1, 2157, Note_on_c, 1, 53, 0
1, 2157, Note_on_c, 1, 41, 0
1, 2159, Note_on_c, 0, 79, 0
1, 2160, Note_on_c, 0, 77, 80
1, 2183, Note_on_c, 0, 77, 0
1, 2184, Note_on_c, 0, 76, 80
1, 2207, Note_on_c, 0, 76, 0
1, 2208, Note_on_c, 0, 77, 80
1, 2208, Note_on_c, 1, 53, 80
1, 2208, Note_on_c, 1, 41, 80
1, 2214, Note_on_c, 0, 77, 0
1, 2214, Note_on_c, 0, 79, 80
1, 2220, Note_on_c, 0, 79, 0
1, 2220, Note_on_c, 0, 77, 80
1, 2231, Note_on_c, 0, 77, 0
1, 2232, Note_on_c, 0, 74, 80
1, 2253, Note_on_c, 1, 53, 0
1, 2253, Note_on_c, 1, 41, 0
1, 2255, Note_on_c, 0, 74, 0
1, 2256, Note_on_c, 0, 72, 80
1, 2256, Note_on_c, 1, 55, 80
1, 2256, Note_on_c, 1, 43, 80
1, 2262, Note_on_c, 0, 72, 0
1, 2262, Note_on_c, 0, 74, 80
1, 2268, Note_on_c, 0, 74, 0
1, 2268, Note_on_c, 0, 72, 80
1, 2279, Note_on_c, 0, 72, 0
1, 2280, Note_on_c, 0, 71, 80
1, 2301, Note_on_c, 1, 55, 0
1, 2301, Note_on_c, 1, 43, 0
1, 2303, Note_on_c, 0, 71, 0
1, 2304, Note_on_c, 0, 72, 80
1, 2304, Note_on_c, 1, 57, 80
1, 2304, Note_on_c, 1, 45, 80
1, 2310, Note_on_c, 0, 72, 0
1, 2310, Note_on_c, 0, 74, 80
1, 2316, Note_on_c, 0, 74, 0
1, 2316, Note_on_c, 0, 72, 80
1, 2327, Note_on_c, 0, 72, 0
1, 2328, Note_on_c, 0, 71, 80
1, 2351, Note_on_c, 0, 71, 0
1, 2352, Note_on_c, 0, 72, 80
1, 2375, Note_on_c, 0, 72, 0
1, 2376, Note_on_c, 0, 76, 80
1, 2399, Note_on_c, 0, 76, 0
1, 2400, Note_on_c, 0, 72, 80
1, 2423, Note_on_c, 0, 72, 0
1, 2424, Note_on_c, 0, 79, 80
1, 2437, Note_on_c, 1, 57, 0
1, 2437, Note_on_c, 1, 45, 0
1, 2447, Note_on_c, 0, 79, 0
1, 2448, Note_on_c, 0, 67, 80
1, 2448, Note_on_c, 1, 52, 80
1, 2448, Note_on_c, 1, 40, 80
1, 2471, Note_on_c, 0, 67, 0
1, 2472, Note_on_c, 0, 79, 80
1, 2493, Note_on_c, 1, 52, 0
1, 2493, Note_on_c, 1, 40, 0
1, 2495, Note_on_c, 0, 79, 0
1, 2496, Note_on_c, 0, 69, 80
1, 2496, Note_on_c, 1, 53, 80
1, 2496, Note_on_c, 1, 41, 80
1, 2519, Note_on_c, 0, 69, 0
1, 2520, Note_on_c, 0, 79, 80
1, 2543, Note_on_c, 0, 79, 0
1, 2544, Note_on_c, 0, 77, 80
1, 2567, Note_on_c, 0, 77, 0
1, 2568, Note_on_c, 0, 76, 80
1, 2591, Note_on_c, 0, 76, 0
1, 2592, Note_on_c, 0, 77, 80
1, 2598, Note_on_c, 0, 77, 0
1, 2598, Note_on_c, 0, 79, 80
1, 2604, Note_on_c, 0, 79, 0
1, 2604, Note_on_c, 0, 77, 80
1, 2615, Note_on_c, 0, 77, 0
1, 2616, Note_on_c, 0, 74, 80
1, 2629, Note_on_c, 1, 53, 0
1, 2629, Note_on_c, 1, 41, 0
1, 2639, Note_on_c, 0, 74, 0
1, 2640, Note_on_c, 0, 72, 80
1, 2640, Note_on_c, 1, 55, 80
1, 2640, Note_on_c, 1, 43, 80
1, 2646, Note_on_c, 0, 72, 0
1, 2646, Note_on_c, 0, 74, 80
1, 2652, Note_on_c, 0, 74, 0
1, 2652, Note_on_c, 0, 72, 80
1, 2663, Note_on_c, 0, 72, 0
1, 2664, Note_on_c, 0, 71, 80
1, 2685, Note_on_c, 1, 55, 0
1, 2685, Note_on_c, 1, 43, 0
1, 2687, Note_on_c, 0, 71, 0
1, 2688, Note_on_c, 0, 72, 80
1, 2688, Note_on_c, 1, 48, 80
1, 2733, Note_on_c, 1, 48, 0
1, 2736, Note_on_c, 1, 43, 80
1, 2777, Note_on_c, 0, 72, 0
1, 2781, Note_on_c, 1, 43, 0
1, 2784, Note_on_c, 1, 36, 80
1, 2873, Note_on_c, 1, 36, 0
1, 2880, Note_on_c, 0, 65, 64
1, 2880, Note_on_c, 1, 53, 85
1, 2880, Note_on_c, 1, 41, 85
1, 2889, Note_on_c, 0, 69, 64
1, 2898, Note_on_c, 0, 72, 64
1, 2907, Note_on_c, 0, 77, 64
1, 2969, Note_on_c, 1, 53, 0
1, 2969, Note_on_c, 1, 41, 0
1, 2975, Note_on_c, 0, 77, 0
1, 2975, Note_on_c, 0, 72, 0
1, 2975, Note_on_c, 0, 69, 0
1, 2975, Note_on_c, 0, 65, 0
1, 2976, Note_on_c, 0, 69, 64
1, 2976, Note_on_c, 1, 53, 70
1, 2976, Note_on_c, 1, 41, 70
1, 3010, Note_on_c, 0, 69, 0
1, 3012, Note_on_c, 0, 72, 64
1, 3021, Note_on_c, 1, 53, 0
1, 3021, Note_on_c, 1, 41, 0
1, 3024, Note_on_c, 0, 72, 0
1, 3024, Note_on_c, 0, 70, 64
1, 3024, Note_on_c, 1, 55, 70
1, 3024, Note_on_c, 1, 43, 70
1, 3058, Note_on_c, 0, 70, 0
1, 3060, Note_on_c, 0, 74, 64
1, 3069, Note_on_c, 1, 55, 0
1, 3069, Note_on_c, 1, 43, 0
1, 3072, Note_on_c, 0, 74, 0
1, 3072, Note_on_c, 0, 72, 64
1, 3072, Note_on_c, 1, 57, 70
1, 3072, Note_on_c, 1, 45, 70
1, 3117, Note_on_c, 0, 72, 0
1, 3120, Note_on_c, 0, 65, 64
1, 3161, Note_on_c, 1, 57, 0
1, 3161, Note_on_c, 1, 45, 0
1, 3165, Note_on_c, 0, 65, 0
1, 3168, Note_on_c, 0, 65, 64
1, 3213, Note_on_c, 0, 65, 0
1, 3216, Note_on_c, 0, 65, 64
1, 3216, Note_on_c, 1, 60, 70
1, 3216, Note_on_c, 1, 57, 70
1, 3261, Note_on_c, 0, 65, 0
1, 3261, Note_on_c, 1, 60, 0
1, 3261, Note_on_c, 1, 57, 0
1, 3264, Note_on_c, 0, 67, 64
1, 3264, Note_on_c, 1, 62, 70
1, 3264, Note_on_c, 1, 58, 70
1, 3274, Note_on_c, 0, 67, 0
1, 3274, Note_on_c, 0, 69, 64
1, 3284, Note_on_c, 0, 69, 0
1, 3284, Note_on_c, 0, 67, 64
1, 3294, Note_on_c, 0, 67, 0
1, 3294, Note_on_c, 0, 65, 64
1, 3303, Note_on_c, 0, 65, 0
1, 3303, Note_on_c, 0, 67, 64
1, 3309, Note_on_c, 1, 62, 0
1, 3309, Note_on_c, 1, 58, 0
1, 3312, Note_on_c, 0, 67, 0
1, 3312, Note_on_c, 0, 65, 64
1, 3312, Note_on_c, 1, 60, 70
1, 3312, Note_on_c, 1, 57, 70
1, 3357, Note_on_c, 0, 65, 0
1, 3357, Note_on_c, 1, 60, 0
1, 3357, Note_on_c, 1, 57, 0
1, 3360, Note_on_c, 0, 72, 64
1, 3383, Note_on_c, 0, 72, 0
1, 3384, Note_on_c, 0, 69, 64
1, 3407, Note_on_c, 0, 69, 0
1, 3408, Note_on_c, 0, 67, 64
1, 3408, Note_on_c, 1, 60, 70
1, 3408, Note_on_c, 1, 57, 70
1, 3431, Note_on_c, 0, 67, 0
1, 3432, Note_on_c, 0, 65, 64
1, 3453, Note_on_c, 1, 60, 0
1, 3453, Note_on_c, 1, 57, 0
1, 3455, Note_on_c, 0, 65, 0
1, 3456, Note_on_c, 0, 67, 64
1, 3456, Note_on_c, 1, 62, 70
1, 3456, Note_on_c, 1, 58, 70
1, 3466, Note_on_c, 0, 67, 0
1, 3466, Note_on_c, 0, 69, 64
1, 3476, Note_on_c, 0, 69, 0
1, 3476, Note_on_c, 0, 67, 64
1, 3486, Note_on_c, 0, 67, 0
1, 3486, Note_on_c, 0, 65, 64
1, 3495, Note_on_c, 0, 65, 0
1, 3495, Note_on_c, 0, 67, 64
1, 3501, Note_on_c, 1, 62, 0
1, 3501, Note_on_c, 1, 58, 0
1, 3504, Note_on_c, 0, 67, 0
1, 3504, Note_on_c, 0, 65, 64
1, 3504, Note_on_c, 1, 60, 70
1, 3504, Note_on_c, 1, 57, 70
1, 3549, Note_on_c, 0, 65, 0
1, 3549, Note_on_c, 1, 60, 0
1, 3549, Note_on_c, 1, 57, 0
1, 3600, Note_on_c, 0, 72, 64
1, 3600, Note_on_c, 1, 69, 70
1, 3600, Note_on_c, 1, 65, 70
1, 3645, Note_on_c, 0, 72, 0
1, 3645, Note_on_c, 1, 69, 0
1, 3645, Note_on_c, 1, 65, 0
1, 3648, Note_on_c, 0, 74, 64
1, 3648, Note_on_c, 1, 70, 70
1, 3648, Note_on_c, 1, 65, 70
1, 3682, Note_on_c, 0, 74, 0
1, 3684, Note_on_c, 0, 77, 64
1, 3696, Note_on_c, 0, 77, 0
1, 3696, Note_on_c, 0, 76, 64
1, 3730, Note_on_c, 0, 76, 0
1, 3732, Note_on_c, 0, 74, 64
1, 3737, Note_on_c, 1, 70, 0
1, 3737, Note_on_c, 1, 65, 0
1, 3744, Note_on_c, 0, 74, 0
1, 3744, Note_on_c, 0, 72, 64
1, 3744, Note_on_c, 1, 69, 70
1, 3744, Note_on_c, 1, 65, 70
1, 3789, Note_on_c, 0, 72, 0
1, 3792, Note_on_c, 0, 77, 64
1, 3833, Note_on_c, 1, 69, 0
1, 3833, Note_on_c, 1, 65, 0
1, 3837, Note_on_c, 0, 77, 0
1, 3840, Note_on_c, 0, 70, 64
1, 3840, Note_on_c, 1, 67, 70
1, 3851, Note_on_c, 0, 70, 0
1, 3851, Note_on_c, 0, 72, 64
1, 3862, Note_on_c, 0, 72, 0
1, 3862, Note_on_c, 0, 70, 64
1, 3873, Note_on_c, 0, 70, 0
1, 3873, Note_on_c, 0, 72, 64
1, 3884, Note_on_c, 0, 72, 0
1, 3884, Note_on_c, 0, 70, 64
1, 3885, Note_on_c, 1, 67, 0
1, 3888, Note_on_c, 1, 60, 70
1, 3895, Note_on_c, 0, 70, 0
1, 3895, Note_on_c, 0, 72, 64
1, 3906, Note_on_c, 0, 72, 0
1, 3906, Note_on_c, 0, 70, 64
1, 3916, Note_on_c, 0, 70, 0
1, 3916, Note_on_c, 0, 69, 64
1, 3926, Note_on_c, 0, 69, 0
1, 3926, Note_on_c, 0, 70, 64
1, 3933, Note_on_c, 1, 60, 0
1, 3936, Note_on_c, 0, 70, 0
1, 3936, Note_on_c, 0, 69, 64
1, 3936, Note_on_c, 1, 65, 70
1, 3981, Note_on_c, 0, 69, 0
1, 3981, Note_on_c, 1, 65, 0
1, 3984, Note_on_c, 0, 72, 64
1, 3984, Note_on_c, 1, 69, 70
1, 3984, Note_on_c, 1, 65, 70
1, 4029, Note_on_c, 0, 72, 0
1, 4029, Note_on_c, 1, 69, 0
1, 4029, Note_on_c, 1, 65, 0
1, 4032, Note_on_c, 0, 74, 64
1, 4032, Note_on_c, 1, 70, 70
1, 4032, Note_on_c, 1, 65, 70
1, 4066, Note_on_c, 0, 74, 0
1, 4068, Note_on_c, 0, 77, 64
1, 4080, Note_on_c, 0, 77, 0
1, 4080, Note_on_c, 0, 76, 64
1, 4114, Note_on_c, 0, 76, 0
1, 4116, Note_on_c, 0, 74, 64
1, 4121, Note_on_c, 1, 70, 0
1, 4121, Note_on_c, 1, 65, 0
1, 4128, Note_on_c, 0, 74, 0
1, 4128, Note_on_c, 0, 72, 64
1, 4128, Note_on_c, 1, 69, 70
1, 4128, Note_on_c, 1, 65, 70
1, 4173, Note_on_c, 0, 72, 0
1, 4173, Note_on_c, 1, 69, 0
1, 4173, Note_on_c, 1, 65, 0
1, 4176, Note_on_c, 0, 81, 64
1, 4176, Note_on_c, 1, 65, 70
1, 4176, Note_on_c, 1, 53, 70
1, 4221, Note_on_c, 0, 81, 0
1, 4221, Note_on_c, 1, 65, 0
1, 4221, Note_on_c, 1, 53, 0
1, 4224, Note_on_c, 0, 79, 64
1, 4224, Note_on_c, 1, 64, 70
1, 4224, Note_on_c, 1, 52, 70
1, 4244, Note_on_c, 0, 79, 0
1, 4272, Note_on_c, 0, 72, 64
1, 4278, Note_on_c, 0, 72, 0
1, 4278, Note_on_c, 0, 74, 64
1, 4284, Note_on_c, 0, 74, 0
1, 4284, Note_on_c, 0, 76, 64
1, 4313, Note_on_c, 1, 64, 0
1, 4313, Note_on_c, 1, 52, 0
1, 4318, Note_on_c, 0, 76, 0
1, 4320, Note_on_c, 0, 76, 64
1, 4326, Note_on_c, 0, 76, 0
1, 4326, Note_on_c, 0, 77, 64
1, 4332, Note_on_c, 0, 77, 0
1, 4332, Note_on_c, 0, 79, 64
1, 4366, Note_on_c, 0, 79, 0
1, 4368, Note_on_c, 0, 77, 64
1, 4368, Note_on_c, 1, 65, 70
1, 4368, Note_on_c, 1, 53, 70
1, 4374, Note_on_c, 0, 77, 0
1, 4374, Note_on_c, 0, 79, 64
1, 4380, Note_on_c, 0, 79, 0
1, 4380, Note_on_c, 0, 81, 64
1, 4413, Note_on_c, 1, 65, 0
1, 4413, Note_on_c, 1, 53, 0
1, 4414, Note_on_c, 0, 81, 0
1, 4416, Note_on_c, 0, 79, 64
1, 4416, Note_on_c, 1, 64, 70
1, 4416, Note_on_c, 1, 52, 70
1, 4436, Note_on_c, 0, 79, 0
1, 4464, Note_on_c, 0, 72, 64
1, 4470, Note_on_c, 0, 72, 0
1, 4470, Note_on_c, 0, 74, 64
1, 4476, Note_on_c, 0, 74, 0
1, 4476, Note_on_c, 0, 76, 64
1, 4505, Note_on_c, 1, 64, 0
1, 4505, Note_on_c, 1, 52, 0
1, 4510, Note_on_c, 0, 76, 0
1, 4512, Note_on_c, 0, 76, 64
1, 4518, Note_on_c, 0, 76, 0
1, 4518, Note_on_c, 0, 77, 64
1, 4524, Note_on_c, 0, 77, 0
1, 4524, Note_on_c, 0, 79, 64
1, 4558, Note_on_c, 0, 79, 0
1, 4560, Note_on_c, 0, 84, 64
1, 4560, Note_on_c, 1, 65, 70
1, 4560, Note_on_c, 1, 53, 70
1, 4566, Note_on_c, 0, 84, 0
1, 4566, Note_on_c, 0, 83, 64
1, 4572, Note_on_c, 0, 83, 0
1, 4572, Note_on_c, 0, 81, 64
1, 4605, Note_on_c, 1, 65, 0
1, 4605, Note_on_c, 1, 53, 0
1, 4606, Note_on_c, 0, 81, 0
1, 4608, Note_on_c, 0, 79, 64
1, 4608, Note_on_c, 1, 64, 70
1, 4608, Note_on_c, 1, 52, 70
1, 4653, Note_on_c, 0, 79, 0
1, 4653, Note_on_c, 1, 64, 0
1, 4653, Note_on_c, 1, 52, 0
1, 4656, Note_on_c, 0, 77, 64
1, 4656, Note_on_c, 1, 65, 70
1, 4656, Note_on_c, 1, 53, 70
1, 4668, Note_on_c, 0, 77, 0
1, 4668, Note_on_c, 0, 76, 64
1, 4680, Note_on_c, 0, 76, 0
1, 4680, Note_on_c, 0, 74, 64
1, 4692, Note_on_c, 0, 74, 0
1, 4692, Note_on_c, 0, 72, 64
1, 4701, Note_on_c, 1, 65, 0
1, 4701, Note_on_c, 1, 53, 0
1, 4704, Note_on_c, 0, 72, 0
1, 4704, Note_on_c, 0, 74, 64
1, 4704, Note_on_c, 1, 67, 70
1, 4715, Note_on_c, 0, 74, 0
1, 4715, Note_on_c, 0, 76, 64
1, 4726, Note_on_c, 0, 76, 0
1, 4726, Note_on_c, 0, 74, 64
1, 4737, Note_on_c, 0, 74, 0
1, 4737, Note_on_c, 0, 76, 64
1, 4748, Note_on_c, 0, 76, 0
1, 4748, Note_on_c, 0, 74, 64
1, 4749, Note_on_c, 1, 67, 0
1, 4752, Note_on_c, 1, 55, 70
1, 4759, Note_on_c, 0, 74, 0
1, 4759, Note_on_c, 0, 76, 64
1, 4770, Note_on_c, 0, 76, 0
1, 4770, Note_on_c, 0, 74, 64
1, 4780, Note_on_c, 0, 74, 0
1, 4780, Note_on_c, 0, 72, 64
1, 4790, Note_on_c, 0, 72, 0
1, 4790, Note_on_c, 0, 74, 64
1, 4797, Note_on_c, 1, 55, 0
1, 4800, Note_on_c, 0, 74, 0
1, 4800, Note_on_c, 0, 72, 64
1, 4800, Note_on_c, 1, 60, 70
1, 4845, Note_on_c, 1, 60, 0
1, 4848, Note_on_c, 1, 55, 70
1, 4889, Note_on_c, 0, 72, 0
1, 4893, Note_on_c, 1, 55, 0
1, 4896, Note_on_c, 1, 48, 70
1, 4920, Note_on_c, 0, 79, 80
1, 4941, Note_on_c, 1, 48, 0
1, 4943, Note_on_c, 0, 79, 0
1, 4944, Note_on_c, 0, 67, 80
1, 4944, Note_on_c, 1, 52, 80
1, 4944, Note_on_c, 1, 40, 80
1, 4967, Note_on_c, 0, 67, 0
1, 4968, Note_on_c, 0, 79, 80
1, 4989, Note_on_c, 1, 52, 0
1, 4989, Note_on_c, 1, 40, 0
1, 4991, Note_on_c, 0, 79, 0
1, 4992, Note_on_c, 0, 69, 80
1, 4992, Note_on_c, 1, 53, 80
1, 4992, Note_on_c, 1, 41, 80
1, 5015, Note_on_c, 0, 69, 0
1, 5016, Note_on_c, 0, 79, 80
1, 5037, Note_on_c, 1, 53, 0
1, 5037, Note_on_c, 1, 41, 0
1, 5039, Note_on_c, 0, 79, 0
1, 5040, Note_on_c, 0, 77, 80
1, 5063, Note_on_c, 0, 77, 0
1, 5064, Note_on_c, 0, 76, 80
1, 5087, Note_on_c, 0, 76, 0
1, 5088, Note_on_c, 0, 77, 80
1, 5088, Note_on_c, 1, 53, 80
1, 5088, Note_on_c, 1, 41, 80
1, 5094, Note_on_c, 0, 77, 0
1, 5094, Note_on_c, 0, 79, 80
1, 5100, Note_on_c, 0, 79, 0
1, 5100, Note_on_c, 0, 77, 80
1, 5111, Note_on_c, 0, 77, 0
1, 5112, Note_on_c, 0, 74, 80
1, 5133, Note_on_c, 1, 53, 0
1, 5133, Note_on_c, 1, 41, 0
1, 5135, Note_on_c, 0, 74, 0
1, 5136, Note_on_c, 0, 72, 80
1, 5136, Note_on_c, 1, 55, 80
1, 5136, Note_on_c, 1, 43, 80
1, 5142, Note_on_c, 0, 72, 0
1, 5142, Note_on_c, 0, 74, 80
1, 5148, Note_on_c, 0, 74, 0
1, 5148, Note_on_c, 0, 72, 80
1, 5159, Note_on_c, 0, 72, 0
1, 5160, Note_on_c, 0, 71, 80
1, 5181, Note_on_c, 1, 55, 0
1, 5181, Note_on_c, 1, 43, 0
1, 5183, Note_on_c, 0, 71, 0
1, 5184, Note_on_c, 0, 72, 80
1, 5184, Note_on_c, 1, 57, 80
1, 5184, Note_on_c, 1, 45, 80
1, 5190, Note_on_c, 0, 72, 0
1, 5190, Note_on_c, 0, 74, 80
1, 5196, Note_on_c, 0, 74, 0
1, 5196, Note_on_c, 0, 72, 80
1, 5207, Note_on_c, 0, 72, 0
1, 5208, Note_on_c, 0, 71, 80
1, 5231, Note_on_c, 0, 71, 0
1, 5232, Note_on_c, 0, 72, 80
1, 5255, Note_on_c, 0, 72, 0
1, 5256, Note_on_c, 0, 76, 80
1, 5279, Note_on_c, 0, 76, 0
1, 5280, Note_on_c, 0, 72, 80
1, 5303, Note_on_c, 0, 72, 0
1, 5304, Note_on_c, 0, 79, 80
1, 5317, Note_on_c, 1, 57, 0
1, 5317, Note_on_c, 1, 45, 0
1, 5327, Note_on_c, 0, 79, 0
1, 5328, Note_on_c, 0, 67, 80
1, 5328, Note_on_c, 1, 52, 80
1, 5328, Note_on_c, 1, 40, 80
1, 5351, Note_on_c, 0, 67, 0
1, 5352, Note_on_c, 0, 79, 80
1, 5373, Note_on_c, 1, 52, 0
1, 5373, Note_on_c, 1, 40, 0
1, 5375, Note_on_c, 0, 79, 0
1, 5376, Note_on_c, 0, 69, 80
1, 5376, Note_on_c, 1, 53, 80
1, 5376, Note_on_c, 1, 41, 80
1, 5399, Note_on_c, 0, 69, 0
1, 5400, Note_on_c, 0, 79, 80
1, 5423, Note_on_c, 0, 79, 0
1, 5424, Note_on_c, 0, 77, 80
1, 5447, Note_on_c, 0, 77, 0
1, 5448, Note_on_c, 0, 76, 80
1, 5471, Note_on_c, 0, 76, 0
1, 5472, Note_on_c, 0, 77, 80
1, 5478, Note_on_c, 0, 77, 0
1, 5478, Note_on_c, 0, 79, 80
1, 5484, Note_on_c, 0, 79, 0
1, 5484, Note_on_c, 0, 77, 80
1, 5495, Note_on_c, 0, 77, 0
1, 5496, Note_on_c, 0, 74, 80
1, 5509, Note_on_c, 1, 53, 0
1, 5509, Note_on_c, 1, 41, 0
1, 5519, Note_on_c, 0, 74, 0
1, 5520, Note_on_c, 0, 72, 80
1, 5520, Note_on_c, 1, 55, 80
1, 5520, Note_on_c, 1, 43, 80
1, 5526, Note_on_c, 0, 72, 0
1, 5526, Note_on_c, 0, 74, 80
1, 5532, Note_on_c, 0, 74, 0
1, 5532, Note_on_c, 0, 72, 80
1, 5543, Note_on_c, 0, 72, 0
1, 5544, Note_on_c, 0, 71, 80
1, 5565, Note_on_c, 1, 55, 0
1, 5565, Note_on_c, 1, 43, 0
1, 5567, Note_on_c, 0, 71, 0
1, 5568, Note_on_c, 0, 72, 80
1, 5568, Note_on_c, 1, 48, 80
1, 5613, Note_on_c, 1, 48, 0
1, 5616, Note_on_c, 1, 43, 80
1, 5657, Note_on_c, 0, 72, 0
1, 5661, Note_on_c, 1, 43, 0
1, 5664, Note_on_c, 1, 36, 80
1, 5753, Note_on_c, 1, 36, 0
1, 5760, Note_on_c, 0, 60, 85
1, 5760, Note_on_c, 1, 48, 85
1, 5760, Note_on_c, 1, 36, 85
1, 5769, Note_on_c, 0, 64, 85
1, 5778, Note_on_c, 0, 67, 85
1, 5787, Note_on_c, 0, 72, 85
1, 5832, Note_on_c, 0, 60, 0
1, 5849, Note_on_c, 1, 48, 0
1, 5849, Note_on_c, 1, 36, 0
1, 5855, Note_on_c, 0, 72, 0
1, 5855, Note_on_c, 0, 67, 0
1, 5855, Note_on_c, 0, 64, 0
1, 5856, Note_on_c, 0, 64, 85
1, 5856, Note_on_c, 1, 60, 70
1, 5890, Note_on_c, 0, 64, 0
1, 5892, Note_on_c, 0, 67, 85
1, 5901, Note_on_c, 1, 60, 0
1, 5904, Note_on_c, 0, 67, 0
1, 5904, Note_on_c, 0, 65, 85
1, 5904, Note_on_c, 1, 62, 70
1, 5938, Note_on_c, 0, 65, 0
1, 5940, Note_on_c, 0, 69, 85
1, 5949, Note_on_c, 1, 62, 0
1, 5952, Note_on_c, 0, 69, 0
1, 5952, Note_on_c, 0, 67, 85
1, 5952, Note_on_c, 1, 64, 70
1, 5997, Note_on_c, 0, 67, 0
1, 6000, Note_on_c, 0, 79, 85
1, 6000, Note_on_c, 0, 70, 85
1, 6020, Note_on_c, 0, 79, 0
1, 6020, Note_on_c, 0, 70, 0
1, 6041, Note_on_c, 1, 64, 0
1, 6048, Note_on_c, 0, 79, 85
1, 6048, Note_on_c, 0, 70, 85
1, 6093, Note_on_c, 0, 79, 0
1, 6093, Note_on_c, 0, 70, 0
1, 6096, Note_on_c, 0, 70, 85
1, 6096, Note_on_c, 0, 67, 85
1, 6141, Note_on_c, 0, 70, 0
1, 6141, Note_on_c, 0, 67, 0
1, 6144, Note_on_c, 0, 69, 85
1, 6144, Note_on_c, 0, 65, 85
1, 6144, Note_on_c, 1, 48, 70
1, 6144, Note_on_c, 1, 36, 70
1, 6233, Note_on_c, 0, 69, 0
1, 6233, Note_on_c, 0, 65, 0
1, 6233, Note_on_c, 1, 48, 0
1, 6233, Note_on_c, 1, 36, 0
1, 6240, Note_on_c, 0, 65, 85
1, 6240, Note_on_c, 1, 62, 70
1, 6274, Note_on_c, 0, 65, 0
1, 6276, Note_on_c, 0, 69, 85
1, 6285, Note_on_c, 1, 62, 0
1, 6288, Note_on_c, 0, 69, 0
1, 6288, Note_on_c, 0, 67, 85
1, 6288, Note_on_c, 1, 64, 70
1, 6322, Note_on_c, 0, 67, 0
1, 6324, Note_on_c, 0, 70, 85
1, 6333, Note_on_c, 1, 64, 0
1, 6336, Note_on_c, 0, 70, 0
1, 6336, Note_on_c, 0, 69, 85
1, 6336, Note_on_c, 1, 65, 70
1, 6381, Note_on_c, 0, 69, 0
1, 6384, Note_on_c, 0, 77, 85
1, 6384, Note_on_c, 0, 69, 85
1, 6404, Note_on_c, 0, 77, 0
1, 6404, Note_on_c, 0, 69, 0
1, 6425, Note_on_c, 1, 65, 0
1, 6432, Note_on_c, 0, 77, 85
1, 6432, Note_on_c, 0, 69, 85
1, 6477, Note_on_c, 0, 77, 0
1, 6477, Note_on_c, 0, 69, 0
1, 6480, Note_on_c, 0, 72, 85
1, 6480, Note_on_c, 0, 69, 85
1, 6525, Note_on_c, 0, 72, 0
1, 6525, Note_on_c, 0, 69, 0
1, 6528, Note_on_c, 0, 70, 85
1, 6528, Note_on_c, 0, 67, 85
1, 6528, Note_on_c, 1, 48, 70
1, 6528, Note_on_c, 1, 36, 70
1, 6617, Note_on_c, 0, 70, 0
1, 6617, Note_on_c, 0, 67, 0
1, 6617, Note_on_c, 1, 48, 0
1, 6617, Note_on_c, 1, 36, 0
1, 6624, Note_on_c, 0, 67, 85
1, 6624, Note_on_c, 1, 64, 70
1, 6658, Note_on_c, 0, 67, 0
1, 6660, Note_on_c, 0, 70, 85
1, 6669, Note_on_c, 1, 64, 0
1, 6672, Note_on_c, 0, 70, 0
1, 6672, Note_on_c, 0, 69, 85
1, 6672, Note_on_c, 1, 65, 70
1, 6706, Note_on_c, 0, 69, 0
1, 6708, Note_on_c, 0, 72, 85
1, 6717, Note_on_c, 1, 65, 0
1, 6720, Note_on_c, 0, 72, 0
1, 6720, Note_on_c, 0, 70, 85
1, 6720, Note_on_c, 1, 67, 70
1, 6765, Note_on_c, 0, 70, 0
1, 6768, Note_on_c, 0, 82, 85
1, 6768, Note_on_c, 0, 79, 85
1, 6788, Note_on_c, 0, 82, 0
1, 6788, Note_on_c, 0, 79, 0
1, 6809, Note_on_c, 1, 67, 0
1, 6816, Note_on_c, 0, 82, 85
1, 6816, Note_on_c, 0, 79, 85
1, 6861, Note_on_c, 0, 82, 0
1, 6861, Note_on_c, 0, 79, 0
1, 6864, Note_on_c, 0, 70, 85
1, 6864, Note_on_c, 0, 67, 85
1, 6909, Note_on_c, 0, 70, 0
1, 6909, Note_on_c, 0, 67, 0
1, 6912, Note_on_c, 0, 69, 85
1, 6912, Note_on_c, 0, 65, 85
1, 6912, Note_on_c, 1, 41, 70
1, 7001, Note_on_c, 0, 69, 0
1, 7001, Note_on_c, 0, 65, 0
1, 7001, Note_on_c, 1, 41, 0
1, 7008, Note_on_c, 0, 84, 85
1, 7031, Note_on_c, 0, 84, 0
1, 7032, Note_on_c, 0, 81, 85
1, 7055, Note_on_c, 0, 81, 0
1, 7056, Note_on_c, 0, 79, 85
1, 7056, Note_on_c, 1, 60, 70
1, 7056, Note_on_c, 1, 57, 70
1, 7079, Note_on_c, 0, 79, 0
1, 7080, Note_on_c, 0, 77, 85
1, 7101, Note_on_c, 1, 60, 0
1, 7101, Note_on_c, 1, 57, 0
1, 7103, Note_on_c, 0, 77, 0
1, 7104, Note_on_c, 0, 79, 85
1, 7104, Note_on_c, 1, 62, 70
1, 7104, Note_on_c, 1, 58, 70
1, 7114, Note_on_c, 0, 79, 0
1, 7114, Note_on_c, 0, 81, 85
1, 7124, Note_on_c, 0, 81, 0
1, 7124, Note_on_c, 0, 79, 85
1, 7134, Note_on_c, 0, 79, 0
1, 7134, Note_on_c, 0, 77, 85
1, 7143, Note_on_c, 0, 77, 0
1, 7143, Note_on_c, 0, 79, 85
1, 7149, Note_on_c, 1, 62, 0
1, 7149, Note_on_c, 1, 58, 0
1, 7152, Note_on_c, 0, 79, 0
1, 7152, Note_on_c, 0, 77, 85
1, 7152, Note_on_c, 1, 60, 70
1, 7152, Note_on_c, 1, 57, 70
1, 7197, Note_on_c, 0, 77, 0
1, 7197, Note_on_c, 1, 60, 0
1, 7197, Note_on_c, 1, 57, 0
1, 7200, Note_on_c, 0, 84, 85
1, 7223, Note_on_c, 0, 84, 0
1, 7224, Note_on_c, 0, 81, 85
1, 7247, Note_on_c, 0, 81, 0
1, 7248, Note_on_c, 0, 79, 85
1, 7248, Note_on_c, 1, 60, 70
1, 7248, Note_on_c, 1, 57, 70
1, 7271, Note_on_c, 0, 79, 0
1, 7272, Note_on_c, 0, 77, 85
1, 7293, Note_on_c, 1, 60, 0
1, 7293, Note_on_c, 1, 57, 0
1, 7295, Note_on_c, 0, 77, 0
1, 7296, Note_on_c, 0, 79, 85
1, 7296, Note_on_c, 1, 62, 70
1, 7296, Note_on_c, 1, 58, 70
1, 7306, Note_on_c, 0, 79, 0
1, 7306, Note_on_c, 0, 81, 85
1, 7316, Note_on_c, 0, 81, 0
1, 7316, Note_on_c, 0, 79, 85
1, 7326, Note_on_c, 0, 79, 0
1, 7326, Note_on_c, 0, 77, 85
1, 7335, Note_on_c, 0, 77, 0
1, 7335, Note_on_c, 0, 79, 85
1, 7341, Note_on_c, 1, 62, 0
1, 7341, Note_on_c, 1, 58, 0
1, 7344, Note_on_c, 0, 79, 0
1, 7344, Note_on_c, 0, 77, 85
1, 7344, Note_on_c, 1, 60, 70
1, 7344, Note_on_c, 1, 57, 70
1, 7389, Note_on_c, 0, 77, 0
1, 7389, Note_on_c, 1, 60, 0
1, 7389, Note_on_c, 1, 57, 0
1, 7392, Note_on_c, 0, 72, 80
1, 7415, Note_on_c, 0, 72, 0
1, 7416, Note_on_c, 0, 84, 80
1, 7439, Note_on_c, 0, 84, 0
1, 7440, Note_on_c, 0, 72, 80
1, 7440, Note_on_c, 1, 57, 80
1, 7440, Note_on_c, 1, 45, 80
1, 7463, Note_on_c, 0, 72, 0
1, 7464, Note_on_c, 0, 84, 80
1, 7485, Note_on_c, 1, 57, 0
1, 7485, Note_on_c, 1, 45, 0
1, 7487, Note_on_c, 0, 84, 0
1, 7488, Note_on_c, 0, 74, 80
1, 7488, Note_on_c, 1, 58, 80
1, 7488, Note_on_c, 1, 46, 80
1, 7511, Note_on_c, 0, 74, 0
1, 7512, Note_on_c, 0, 84, 80
1, 7536, Note_on_c, 0, 84, 0
1, 7536, Note_on_c, 0, 82, 80
1, 7559, Note_on_c, 0, 82, 0
1, 7560, Note_on_c, 0, 81, 80
1, 7577, Note_on_c, 1, 58, 0
1, 7577, Note_on_c, 1, 46, 0
1, 7583, Note_on_c, 0, 81, 0
1, 7584, Note_on_c, 0, 82, 80
1, 7584, Note_on_c, 1, 55, 80
1, 7584, Note_on_c, 1, 43, 80
1, 7607, Note_on_c, 0, 82, 0
1, 7608, Note_on_c, 0, 74, 80
1, 7631, Note_on_c, 0, 74, 0
1, 7632, Note_on_c, 0, 82, 80
1, 7655, Note_on_c, 0, 82, 0
1, 7656, Note_on_c, 0, 74, 80
1, 7673, Note_on_c, 1, 55, 0
1, 7673, Note_on_c, 1, 43, 0
1, 7679, Note_on_c, 0, 74, 0
1, 7680, Note_on_c, 0, 82, 80
1, 7680, Note_on_c, 1, 52, 80
1, 7680, Note_on_c, 1, 40, 80
1, 7703, Note_on_c, 0, 82, 0
1, 7704, Note_on_c, 0, 72, 80
1, 7727, Note_on_c, 0, 72, 0
1, 7728, Note_on_c, 0, 79, 80
1, 7751, Note_on_c, 0, 79, 0
1, 7752, Note_on_c, 0, 82, 80
1, 7769, Note_on_c, 1, 52, 0
1, 7769, Note_on_c, 1, 40, 0
1, 7776, Note_on_c, 0, 82, 0
1, 7776, Note_on_c, 0, 81, 80
1, 7776, Note_on_c, 1, 53, 80
1, 7776, Note_on_c, 1, 41, 80
1, 7799, Note_on_c, 0, 81, 0
1, 7800, Note_on_c, 0, 77, 80
1, 7823, Note_on_c, 0, 77, 0
1, 7824, Note_on_c, 0, 76, 80
1, 7847, Note_on_c, 0, 76, 0
1, 7848, Note_on_c, 0, 77, 80
1, 7865, Note_on_c, 1, 53, 0
1, 7865, Note_on_c, 1, 41, 0
1, 7871, Note_on_c, 0, 77, 0
1, 7872, Note_on_c, 0, 74, 80
1, 7872, Note_on_c, 1, 58, 80
1, 7872, Note_on_c, 1, 46, 80
1, 7917, Note_on_c, 0, 74, 0
1, 7920, Note_on_c, 0, 82, 80
1, 7935, Note_on_c, 0, 82, 0
1, 7936, Note_on_c, 0, 81, 81
1, 7951, Note_on_c, 0, 81, 0
1, 7952, Note_on_c, 0, 79, 81
1, 7967, Note_on_c, 0, 79, 0
1, 7968, Note_on_c, 0, 82, 81
1, 7983, Note_on_c, 0, 82, 0
1, 7984, Note_on_c, 0, 81, 81
1, 7999, Note_on_c, 0, 81, 0
1, 8000, Note_on_c, 0, 79, 81
1, 8005, Note_on_c, 1, 58, 0
1, 8005, Note_on_c, 1, 46, 0
1, 8015, Note_on_c, 0, 79, 0
1, 8016, Note_on_c, 0, 81, 82
1, 8016, Note_on_c, 1, 59, 82
1, 8016, Note_on_c, 1, 47, 82
1, 8031, Note_on_c, 0, 81, 0
1, 8032, Note_on_c, 0, 79, 82
1, 8047, Note_on_c, 0, 79, 0
1, 8048, Note_on_c, 0, 77, 82
1, 8061, Note_on_c, 1, 59, 0
1, 8061, Note_on_c, 1, 47, 0
1, 8063, Note_on_c, 0, 77, 0
1, 8064, Note_on_c, 0, 76, 82
1, 8064, Note_on_c, 1, 60, 83
1, 8064, Note_on_c, 1, 48, 83
1, 8079, Note_on_c, 0, 76, 0
1, 8080, Note_on_c, 0, 77, 82
1, 8095, Note_on_c, 0, 77, 0
1, 8096, Note_on_c, 0, 79, 83
1, 8111, Note_on_c, 0, 79, 0
1, 8112, Note_on_c, 0, 72, 83
1, 8153, Note_on_c, 1, 60, 0
1, 8153, Note_on_c, 1, 48, 0
1, 8157, Note_on_c, 0, 72, 0
1, 8256, Note_on_c, 0, 65, 85
1, 8256, Note_on_c, 1, 53, 85
1, 8256, Note_on_c, 1, 41, 85
1, 8265, Note_on_c, 0, 69, 85
1, 8274, Note_on_c, 0, 72, 85
1, 8283, Note_on_c, 0, 77, 85
1, 8345, Note_on_c, 1, 53, 0
1, 8345, Note_on_c, 1, 41, 0
1, 8351, Note_on_c, 0, 77, 0
1, 8351, Note_on_c, 0, 72, 0
1, 8351, Note_on_c, 0, 69, 0
1, 8351, Note_on_c, 0, 65, 0
1, 8352, Note_on_c, 0, 69, 85
1, 8352, Note_on_c, 1, 53, 70
1, 8352, Note_on_c, 1, 41, 70
1, 8386, Note_on_c, 0, 69, 0
1, 8388, Note_on_c, 0, 72, 85
1, 8397, Note_on_c, 1, 53, 0
1, 8397, Note_on_c, 1, 41, 0
1, 8400, Note_on_c, 0, 72, 0
1, 8400, Note_on_c, 0, 70, 85
1, 8400, Note_on_c, 1, 55, 70
1, 8400, Note_on_c, 1, 43, 70
1, 8434, Note_on_c, 0, 70, 0
1, 8436, Note_on_c, 0, 74, 85
1, 8445, Note_on_c, 1, 55, 0
1, 8445, Note_on_c, 1, 43, 0
1, 8448, Note_on_c, 0, 74, 0
1, 8448, Note_on_c, 0, 72, 85
1, 8448, Note_on_c, 1, 57, 70
1, 8448, Note_on_c, 1, 45, 70
1, 8493, Note_on_c, 0, 72, 0
1, 8496, Note_on_c, 0, 65, 85
1, 8537, Note_on_c, 1, 57, 0
1, 8537, Note_on_c, 1, 45, 0
1, 8541, Note_on_c, 0, 65, 0
1, 8544, Note_on_c, 0, 65, 85
1, 8589, Note_on_c, 0, 65, 0
1, 8592, Note_on_c, 0, 65, 85
1, 8592, Note_on_c, 1, 60, 70
1, 8592, Note_on_c, 1, 57, 70
1, 8637, Note_on_c, 0, 65, 0
1, 8637, Note_on_c, 1, 60, 0
1, 8637, Note_on_c, 1, 57, 0
1, 8640, Note_on_c, 0, 67, 85
1, 8640, Note_on_c, 1, 62, 70
1, 8640, Note_on_c, 1, 58, 70
1, 8650, Note_on_c, 0, 67, 0
1, 8650, Note_on_c, 0, 69, 85
1, 8660, Note_on_c, 0, 69, 0
1, 8660, Note_on_c, 0, 67, 85
1, 8670, Note_on_c, 0, 67, 0
1, 8670, Note_on_c, 0, 65, 85
1, 8679, Note_on_c, 0, 65, 0
1, 8679, Note_on_c, 0, 67, 85
1, 8685, Note_on_c, 1, 62, 0
1, 8685, Note_on_c, 1, 58, 0
1, 8688, Note_on_c, 0, 67, 0
1, 8688, Note_on_c, 0, 65, 85
1, 8688, Note_on_c, 1, 60, 70
1, 8688, Note_on_c, 1, 57, 70
1, 8733, Note_on_c, 0, 65, 0
1, 8733, Note_on_c, 1, 60, 0
1, 8733, Note_on_c, 1, 57, 0
1, 8736, Note_on_c, 0, 72, 85
1, 8759, Note_on_c, 0, 72, 0
1, 8760, Note_on_c, 0, 69, 85
1, 8783, Note_on_c, 0, 69, 0
1, 8784, Note_on_c, 0, 67, 85
1, 8784, Note_on_c, 1, 60, 70
1, 8784, Note_on_c, 1, 57, 70
1, 8807, Note_on_c, 0, 67, 0
1, 8808, Note_on_c, 0, 65, 85
1, 8829, Note_on_c, 1, 60, 0
1, 8829, Note_on_c, 1, 57, 0
1, 8831, Note_on_c, 0, 65, 0
1, 8832, Note_on_c, 0, 67, 85
1, 8832, Note_on_c, 1, 62, 70
1, 8832, Note_on_c, 1, 58, 70
1, 8842, Note_on_c, 0, 67, 0
1, 8842, Note_on_c, 0, 69, 85
1, 8852, Note_on_c, 0, 69, 0
1, 8852, Note_on_c, 0, 67, 85
1, 8862, Note_on_c, 0, 67, 0
1, 8862, Note_on_c, 0, 65, 85
1, 8871, Note_on_c, 0, 65, 0
1, 8871, Note_on_c, 0, 67, 85
1, 8877, Note_on_c, 1, 62, 0
1, 8877, Note_on_c, 1, 58, 0
1, 8880, Note_on_c, 0, 67, 0
1, 8880, Note_on_c, 0, 65, 85
1, 8880, Note_on_c, 1, 60, 70
1, 8880, Note_on_c, 1, 57, 70
1, 8925, Note_on_c, 0, 65, 0
1, 8925, Note_on_c, 1, 60, 0
1, 8925, Note_on_c, 1, 57, 0
1, 8976, Note_on_c, 0, 72, 85
1, 8976, Note_on_c, 1, 69, 70
1, 8976, Note_on_c, 1, 65, 70
1, 9021, Note_on_c, 0, 72, 0
1, 9021, Note_on_c, 1, 69, 0
1, 9021, Note_on_c, 1, 65, 0
1, 9024, Note_on_c, 0, 74, 85
1, 9024, Note_on_c, 1, 70, 70
1, 9024, Note_on_c, 1, 65, 70
1, 9058, Note_on_c, 0, 74, 0
1, 9060, Note_on_c, 0, 77, 85
1, 9072, Note_on_c, 0, 77, 0
1, 9072, Note_on_c, 0, 76, 85
1, 9106, Note_on_c, 0, 76, 0
1, 9108, Note_on_c, 0, 74, 85
1, 9113, Note_on_c, 1, 70, 0
1, 9113, Note_on_c, 1, 65, 0
1, 9120, Note_on_c, 0, 74, 0
1, 9120, Note_on_c, 0, 72, 85
1, 9120, Note_on_c, 1, 69, 70
1, 9120, Note_on_c, 1, 65, 70
1, 9165, Note_on_c, 0, 72, 0
1, 9168, Note_on_c, 0, 77, 85
1, 9209, Note_on_c, 1, 69, 0
1, 9209, Note_on_c, 1, 65, 0
1, 9213, Note_on_c, 0, 77, 0
1, 9216, Note_on_c, 0, 70, 85
1, 9216, Note_on_c, 1, 67, 70
1, 9227, Note_on_c, 0, 70, 0
1, 9227, Note_on_c, 0, 72, 85
1, 9238, Note_on_c, 0, 72, 0
1, 9238, Note_on_c, 0, 70, 85
1, 9249, Note_on_c, 0, 70, 0
1, 9249, Note_on_c, 0, 72, 85
1, 9260, Note_on_c, 0, 72, 0
1, 9260, Note_on_c, 0, 70, 85
1, 9261, Note_on_c, 1, 67, 0
1, 9264, Note_on_c, 1, 60, 70
1, 9271, Note_on_c, 0, 70, 0
1, 9271, Note_on_c, 0, 72, 85
1, 9282, Note_on_c, 0, 72, 0
1, 9282, Note_on_c, 0, 70, 85
1, 9292, Note_on_c, 0, 70, 0
1, 9292, Note_on_c, 0, 69, 85
1, 9302, Note_on_c, 0, 69, 0
1, 9302, Note_on_c, 0, 70, 85
1, 9309, Note_on_c, 1, 60, 0
1, 9312, Note_on_c, 0, 70, 0
1, 9312, Note_on_c, 0, 69, 85
1, 9312, Note_on_c, 1, 65, 70
1, 9357, Note_on_c, 0, 69, 0
1, 9357, Note_on_c, 1, 65, 0
1, 9360, Note_on_c, 0, 77, 85
1, 9360, Note_on_c, 1, 70, 70
1, 9375, Note_on_c, 0, 77, 0
1, 9376, Note_on_c, 0, 76, 85
1, 9391, Note_on_c, 0, 76, 0
1, 9392, Note_on_c, 0, 74, 85
1, 9405, Note_on_c, 1, 70, 0
1, 9407, Note_on_c, 0, 74, 0
1, 9408, Note_on_c, 0, 72, 85
1, 9408, Note_on_c, 1, 69, 70
1, 9453, Note_on_c, 0, 72, 0
1, 9456, Note_on_c, 0, 65, 85
1, 9462, Note_on_c, 0, 65, 0
1, 9462, Note_on_c, 0, 67, 85
1, 9468, Note_on_c, 0, 67, 0
1, 9468, Note_on_c, 0, 69, 85
1, 9497, Note_on_c, 1, 69, 0
1, 9502, Note_on_c, 0, 69, 0
1, 9504, Note_on_c, 0, 69, 85
1, 9510, Note_on_c, 0, 69, 0
1, 9510, Note_on_c, 0, 70, 85
1, 9516, Note_on_c, 0, 70, 0
1, 9516, Note_on_c, 0, 72, 85
1, 9550, Note_on_c, 0, 72, 0
1, 9552, Note_on_c, 0, 70, 85
1, 9552, Note_on_c, 1, 58, 70
1, 9552, Note_on_c, 1, 46, 70
1, 9558, Note_on_c, 0, 70, 0
1, 9558, Note_on_c, 0, 72, 85
1, 9564, Note_on_c, 0, 72, 0
1, 9564, Note_on_c, 0, 74, 85
1, 9597, Note_on_c, 1, 58, 0
1, 9597, Note_on_c, 1, 46, 0
1, 9598, Note_on_c, 0, 74, 0
1, 9600, Note_on_c, 0, 72, 85
1, 9600, Note_on_c, 1, 57, 70
1, 9600, Note_on_c, 1, 45, 70
1, 9620, Note_on_c, 0, 72, 0
1, 9648, Note_on_c, 0, 72, 85
1, 9654, Note_on_c, 0, 72, 0
1, 9654, Note_on_c, 0, 74, 85
1, 9660, Note_on_c, 0, 74, 0
1, 9660, Note_on_c, 0, 76, 85
1, 9689, Note_on_c, 1, 57, 0
1, 9689, Note_on_c, 1, 45, 0
1, 9694, Note_on_c, 0, 76, 0
1, 9696, Note_on_c, 0, 77, 85
1, 9702, Note_on_c, 0, 77, 0
1, 9702, Note_on_c, 0, 79, 85
1, 9708, Note_on_c, 0, 79, 0
1, 9708, Note_on_c, 0, 81, 85
1, 9742, Note_on_c, 0, 81, 0
1, 9744, Note_on_c, 0, 82, 85
1, 9744, Note_on_c, 1, 58, 70
1, 9744, Note_on_c, 1, 46, 70
1, 9750, Note_on_c, 0, 82, 0
1, 9750, Note_on_c, 0, 84, 85
1, 9756, Note_on_c, 0, 84, 0
1, 9756, Note_on_c, 0, 86, 85
1, 9789, Note_on_c, 1, 58, 0
1, 9789, Note_on_c, 1, 46, 0
1, 9790, Note_on_c, 0, 86, 0
1, 9792, Note_on_c, 0, 84, 85
1, 9792, Note_on_c, 1, 57, 70
1, 9792, Note_on_c, 1, 45, 70
1, 9837, Note_on_c, 0, 84, 0
1, 9837, Note_on_c, 1, 57, 0
1, 9837, Note_on_c, 1, 45, 0
1, 9840, Note_on_c, 0, 82, 85
1, 9840, Note_on_c, 1, 58, 70
1, 9840, Note_on_c, 1, 46, 70
1, 9852, Note_on_c, 0, 82, 0
1, 9852, Note_on_c, 0, 81, 85
1, 9864, Note_on_c, 0, 81, 0
1, 9864, Note_on_c, 0, 79, 85
1, 9876, Note_on_c, 0, 79, 0
1, 9876, Note_on_c, 0, 77, 85
1, 9885, Note_on_c, 1, 58, 0
1, 9885, Note_on_c, 1, 46, 0
1, 9888, Note_on_c, 0, 77, 0
1, 9888, Note_on_c, 0, 79, 85
1, 9888, Note_on_c, 1, 60, 70
1, 9899, Note_on_c, 0, 79, 0
1, 9899, Note_on_c, 0, 81, 85
1, 9910, Note_on_c, 0, 81, 0
1, 9910, Note_on_c, 0, 79, 85
1, 9921, Note_on_c, 0, 79, 0
1, 9921, Note_on_c, 0, 81, 85
1, 9932, Note_on_c, 0, 81, 0
1, 9932, Note_on_c, 0, 79, 85
1, 9933, Note_on_c, 1, 60, 0
1, 9936, Note_on_c, 1, 48, 70
1, 9943, Note_on_c, 0, 79, 0
1, 9943, Note_on_c, 0, 81, 85
1, 9954, Note_on_c, 0, 81, 0
1, 9954, Note_on_c, 0, 79, 85
1, 9964, Note_on_c, 0, 79, 0
1, 9964, Note_on_c, 0, 77, 85
1, 9974, Note_on_c, 0, 77, 0
1, 9974, Note_on_c, 0, 79, 85
1, 9981, Note_on_c, 1, 48, 0
1, 9984, Note_on_c, 0, 79, 0
1, 9984, Note_on_c, 0, 77, 85
1, 9984, Note_on_c, 1, 53, 70
1, 10029, Note_on_c, 1, 53, 0
1, 10032, Note_on_c, 1, 48, 70
1, 10073, Note_on_c, 0, 77, 0
1, 10077, Note_on_c, 1, 48, 0
1, 10080, Note_on_c, 1, 41, 70
1, 10104, Note_on_c, 0, 84, 80
1, 10125, Note_on_c, 1, 41, 0
1, 10127, Note_on_c, 0, 84, 0
1, 10128, Note_on_c, 0, 72, 80
1, 10128, Note_on_c, 1, 57, 80
1, 10128, Note_on_c, 1, 45, 80
1, 10151, Note_on_c, 0, 72, 0
1, 10152, Note_on_c, 0, 84, 80
1, 10173, Note_on_c, 1, 57, 0
1, 10173, Note_on_c, 1, 45, 0
1, 10175, Note_on_c, 0, 84, 0
1, 10176, Note_on_c, 0, 74, 80
1, 10176, Note_on_c, 1, 58, 80
1, 10176, Note_on_c, 1, 46, 80
1, 10199, Note_on_c, 0, 74, 0
1, 10200, Note_on_c, 0, 84, 80
1, 10223, Note_on_c, 0, 84, 0
1, 10224, Note_on_c, 0, 82, 80
1, 10247, Note_on_c, 0, 82, 0
1, 10248, Note_on_c, 0, 81, 80
1, 10271, Note_on_c, 0, 81, 0
1, 10272, Note_on_c, 0, 82, 80
1, 10278, Note_on_c, 0, 82, 0
1, 10278, Note_on_c, 0, 84, 80
1, 10284, Note_on_c, 0, 84, 0
1, 10284, Note_on_c, 0, 82, 80
1, 10295, Note_on_c, 0, 82, 0
1, 10296, Note_on_c, 0, 79, 80
1, 10309, Note_on_c, 1, 58, 0
1, 10309, Note_on_c, 1, 46, 0
1, 10319, Note_on_c, 0, 79, 0
1, 10320, Note_on_c, 0, 77, 80
1, 10320, Note_on_c, 1, 60, 80
1, 10320, Note_on_c, 1, 48, 80
1, 10326, Note_on_c, 0, 77, 0
1, 10326, Note_on_c, 0, 79, 80
1, 10332, Note_on_c, 0, 79, 0
1, 10332, Note_on_c, 0, 77, 80
1, 10343, Note_on_c, 0, 77, 0
1, 10344, Note_on_c, 0, 76, 80
1, 10365, Note_on_c, 1, 60, 0
1, 10365, Note_on_c, 1, 48, 0
1, 10367, Note_on_c, 0, 76, 0
1, 10368, Note_on_c, 0, 77, 80
1, 10368, Note_on_c, 1, 62, 80
1, 10368, Note_on_c, 1, 50, 80
1, 10374, Note_on_c, 0, 77, 0
1, 10374, Note_on_c, 0, 79, 80
1, 10380, Note_on_c, 0, 79, 0
1, 10380, Note_on_c, 0, 77, 80
1, 10391, Note_on_c, 0, 77, 0
1, 10392, Note_on_c, 0, 76, 80
1, 10415, Note_on_c, 0, 76, 0
1, 10416, Note_on_c, 0, 77, 80
1, 10439, Note_on_c, 0, 77, 0
1, 10440, Note_on_c, 0, 81, 80
1, 10457, Note_on_c, 1, 62, 0
1, 10457, Note_on_c, 1, 50, 0
1, 10463, Note_on_c, 0, 81, 0
1, 10464, Note_on_c, 0, 77, 80
1, 10487, Note_on_c, 0, 77, 0
1, 10488, Note_on_c, 0, 84, 80
1, 10511, Note_on_c, 0, 84, 0
1, 10512, Note_on_c, 0, 72, 80
1, 10512, Note_on_c, 1, 45, 80
1, 10512, Note_on_c, 1, 33, 80
1, 10535, Note_on_c, 0, 72, 0
1, 10536, Note_on_c, 0, 84, 80
1, 10557, Note_on_c, 1, 45, 0
1, 10557, Note_on_c, 1, 33, 0
1, 10559, Note_on_c, 0, 84, 0
1, 10560, Note_on_c, 0, 74, 80
1, 10560, Note_on_c, 1, 46, 80
1, 10560, Note_on_c, 1, 34, 80
1, 10583, Note_on_c, 0, 74, 0
1, 10584, Note_on_c, 0, 84, 80
1, 10607, Note_on_c, 0, 84, 0
1, 10608, Note_on_c, 0, 82, 80
1, 10631, Note_on_c, 0, 82, 0
1, 10632, Note_on_c, 0, 81, 80
1, 10649, Note_on_c, 1, 46, 0
1, 10649, Note_on_c, 1, 34, 0
1, 10655, Note_on_c, 0, 81, 0
1, 10656, Note_on_c, 0, 82, 80
1, 10656, Note_on_c, 1, 48, 80
1, 10656, Note_on_c, 1, 36, 80
1, 10662, Note_on_c, 0, 82, 0
1, 10662, Note_on_c, 0, 84, 80
1, 10668, Note_on_c, 0, 84, 0
1, 10668, Note_on_c, 0, 82, 80
1, 10679, Note_on_c, 0, 82, 0
1, 10680, Note_on_c, 0, 79, 80
1, 10703, Note_on_c, 0, 79, 0
1, 10704, Note_on_c, 0, 77, 80
1, 10710, Note_on_c, 0, 77, 0
1, 10710, Note_on_c, 0, 79, 80
1, 10716, Note_on_c, 0, 79, 0
1, 10716, Note_on_c, 0, 77, 80
1, 10727, Note_on_c, 0, 77, 0
1, 10728, Note_on_c, 0, 76, 80
1, 10745, Note_on_c, 1, 48, 0
1, 10745, Note_on_c, 1, 36, 0
1, 10751, Note_on_c, 0, 76, 0
1, 10752, Note_on_c, 0, 76, 80
1, 10752, Note_on_c, 1, 41, 80
1, 10752, Note_on_c, 1, 29, 80
1, 10800, Note_on_c, 0, 76, 0
1, 10800, Note_on_c, 0, 77, 80
1, 10841, Note_on_c, 1, 41, 0
1, 10841, Note_on_c, 1, 29, 0
1, 10845, Note_on_c, 0, 77, 0
1, 10944, Note_on_c, 0, 60, 85
1, 10944, Note_on_c, 1, 48, 85
1, 10944, Note_on_c, 1, 36, 85
1, 10953, Note_on_c, 0, 64, 85
1, 10962, Note_on_c, 0, 67, 85
1, 10971, Note_on_c, 0, 72, 85
1, 11016, Note_on_c, 0, 60, 0
1, 11033, Note_on_c, 1, 48, 0
1, 11033, Note_on_c, 1, 36, 0
1, 11039, Note_on_c, 0, 72, 0
1, 11039, Note_on_c, 0, 67, 0
1, 11039, Note_on_c, 0, 64, 0
1, 11040, Note_on_c, 0, 64, 85
1, 11040, Note_on_c, 1, 60, 70
1, 11074, Note_on_c, 0, 64, 0
1, 11076, Note_on_c, 0, 67, 85
1, 11085, Note_on_c, 1, 60, 0
1, 11088, Note_on_c, 0, 67, 0
1, 11088, Note_on_c, 0, 65, 85
1, 11088, Note_on_c, 1, 62, 70
1, 11122, Note_on_c, 0, 65, 0
1, 11124, Note_on_c, 0, 69, 85
1, 11133, Note_on_c, 1, 62, 0
1, 11136, Note_on_c, 0, 69, 0
1, 11136, Note_on_c, 0, 67, 85
1, 11136, Note_on_c, 1, 64, 70
1, 11181, Note_on_c, 0, 67, 0
1, 11184, Note_on_c, 0, 79, 85
1, 11184, Note_on_c, 0, 70, 85
1, 11204, Note_on_c, 0, 79, 0
1, 11204, Note_on_c, 0, 70, 0
1, 11225, Note_on_c, 1, 64, 0
1, 11232, Note_on_c, 0, 79, 85
1, 11232, Note_on_c, 0, 70, 85
1, 11277, Note_on_c, 0, 79, 0
1, 11277, Note_on_c, 0, 70, 0
1, 11280, Note_on_c, 0, 70, 85
1, 11280, Note_on_c, 0, 67, 85
1, 11325, Note_on_c, 0, 70, 0
1, 11325, Note_on_c, 0, 67, 0
1, 11328, Note_on_c, 0, 69, 85
1, 11328, Note_on_c, 0, 65, 85
1, 11328, Note_on_c, 1, 48, 70
1, 11328, Note_on_c, 1, 36, 70
1, 11417, Note_on_c, 0, 69, 0
1, 11417, Note_on_c, 0, 65, 0
1, 11417, Note_on_c, 1, 48, 0
1, 11417, Note_on_c, 1, 36, 0
1, 11424, Note_on_c, 0, 65, 85
1, 11424, Note_on_c, 1, 62, 70
1, 11458, Note_on_c, 0, 65, 0
1, 11460, Note_on_c, 0, 69, 85
1, 11469, Note_on_c, 1, 62, 0
1, 11472, Note_on_c, 0, 69, 0
1, 11472, Note_on_c, 0, 67, 85
1, 11472, Note_on_c, 1, 64, 70
1, 11506, Note_on_c, 0, 67, 0
1, 11508, Note_on_c, 0, 70, 85
1, 11517, Note_on_c, 1, 64, 0
1, 11520, Note_on_c, 0, 70, 0
1, 11520, Note_on_c, 0, 69, 85
1, 11520, Note_on_c, 1, 65, 70
1, 11565, Note_on_c, 0, 69, 0
1, 11568, Note_on_c, 0, 77, 85
1, 11568, Note_on_c, 0, 69, 85
1, 11588, Note_on_c, 0, 77, 0
1, 11588, Note_on_c, 0, 69, 0
1, 11609, Note_on_c, 1, 65, 0
1, 11616, Note_on_c, 0, 77, 85
1, 11616, Note_on_c, 0, 69, 85
1, 11661, Note_on_c, 0, 77, 0
1, 11661, Note_on_c, 0, 69, 0
1, 11664, Note_on_c, 0, 72, 85
1, 11664, Note_on_c, 0, 69, 85
1, 11709, Note_on_c, 0, 72, 0
1, 11709, Note_on_c, 0, 69, 0
1, 11712, Note_on_c, 0, 70, 85
1, 11712, Note_on_c, 0, 67, 85
1, 11712, Note_on_c, 1, 48, 70
1, 11712, Note_on_c, 1, 36, 70
1, 11801, Note_on_c, 0, 70, 0
1, 11801, Note_on_c, 0, 67, 0
1, 11801, Note_on_c, 1, 48, 0
1, 11801, Note_on_c, 1, 36, 0
1, 11808, Note_on_c, 0, 67, 85
1, 11808, Note_on_c, 1, 64, 70
1, 11842, Note_on_c, 0, 67, 0
1, 11844, Note_on_c, 0, 70, 85
1, 11853, Note_on_c, 1, 64, 0
1, 11856, Note_on_c, 0, 70, 0
1, 11856, Note_on_c, 0, 69, 85
1, 11856, Note_on_c, 1, 65, 70
1, 11890, Note_on_c, 0, 69, 0
1, 11892, Note_on_c, 0, 72, 85
1, 11901, Note_on_c, 1, 65, 0
1, 11904, Note_on_c, 0, 72, 0
1, 11904, Note_on_c, 0, 70, 85
1, 11904, Note_on_c, 1, 67, 70
1, 11949, Note_on_c, 0, 70, 0
1, 11952, Note_on_c, 0, 82, 85
1, 11952, Note_on_c, 0, 79, 85
1, 11972, Note_on_c, 0, 82, 0
1, 11972, Note_on_c, 0, 79, 0
1, 11993, Note_on_c, 1, 67, 0
1, 12000, Note_on_c, 0, 82, 85
1, 12000, Note_on_c, 0, 79, 85
1, 12045, Note_on_c, 0, 82, 0
1, 12045, Note_on_c, 0, 79, 0
1, 12048, Note_on_c, 0, 70, 85
1, 12048, Note_on_c, 0, 67, 85
1, 12093, Note_on_c, 0, 70, 0
1, 12093, Note_on_c, 0, 67, 0
1, 12096, Note_on_c, 0, 69, 85
1, 12096, Note_on_c, 0, 65, 85
1, 12096, Note_on_c, 1, 41, 70
1, 12185, Note_on_c, 0, 69, 0
1, 12185, Note_on_c, 0, 65, 0
1, 12185, Note_on_c, 1, 41, 0
1, 12192, Note_on_c, 0, 84, 85
1, 12215, Note_on_c, 0, 84, 0
1, 12216, Note_on_c, 0, 81, 85
1, 12239, Note_on_c, 0, 81, 0
1, 12240, Note_on_c, 0, 79, 85
1, 12240, Note_on_c, 1, 60, 70
1, 12240, Note_on_c, 1, 57, 70
1, 12263, Note_on_c, 0, 79, 0
1, 12264, Note_on_c, 0, 77, 85
1, 12285, Note_on_c, 1, 60, 0
1, 12285, Note_on_c, 1, 57, 0
1, 12287, Note_on_c, 0, 77, 0
1, 12288, Note_on_c, 0, 79, 85
1, 12288, Note_on_c, 1, 62, 70
1, 12288, Note_on_c, 1, 58, 70
1, 12298, Note_on_c, 0, 79, 0
1, 12298, Note_on_c, 0, 81, 85
1, 12308, Note_on_c, 0, 81, 0
1, 12308, Note_on_c, 0, 79, 85
1, 12318, Note_on_c, 0, 79, 0
1, 12318, Note_on_c, 0, 77, 85
1, 12327, Note_on_c, 0, 77, 0
1, 12327, Note_on_c, 0, 79, 85
1, 12333, Note_on_c, 1, 62, 0
1, 12333, Note_on_c, 1, 58, 0
1, 12336, Note_on_c, 0, 79, 0
1, 12336, Note_on_c, 0, 77, 85
1, 12336, Note_on_c, 1, 60, 70
1, 12336, Note_on_c, 1, 57, 70
1, 12381, Note_on_c, 0, 77, 0
1, 12381, Note_on_c, 1, 60, 0
1, 12381, Note_on_c, 1, 57, 0
1, 12384, Note_on_c, 0, 84, 85
1, 12407, Note_on_c, 0, 84, 0
1, 12408, Note_on_c, 0, 81, 85
1, 12431, Note_on_c, 0, 81, 0
1, 12432, Note_on_c, 0, 79, 85
1, 12432, Note_on_c, 1, 60, 70
1, 12432, Note_on_c, 1, 57, 70
1, 12455, Note_on_c, 0, 79, 0
1, 12456, Note_on_c, 0, 77, 85
1, 12477, Note_on_c, 1, 60, 0
1, 12477, Note_on_c, 1, 57, 0
1, 12479, Note_on_c, 0, 77, 0
1, 12480, Note_on_c, 0, 79, 85
1, 12480, Note_on_c, 1, 62, 70
1, 12480, Note_on_c, 1, 58, 70
1, 12490, Note_on_c, 0, 79, 0
1, 12490, Note_on_c, 0, 81, 85
1, 12500, Note_on_c, 0, 81, 0
1, 12500, Note_on_c, 0, 79, 85
1, 12510, Note_on_c, 0, 79, 0
1, 12510, Note_on_c, 0, 77, 85
1, 12519, Note_on_c, 0, 77, 0
1, 12519, Note_on_c, 0, 79, 85
1, 12525, Note_on_c, 1, 62, 0
1, 12525, Note_on_c, 1, 58, 0
1, 12528, Note_on_c, 0, 79, 0
1, 12528, Note_on_c, 0, 77, 85
1, 12528, Note_on_c, 1, 60, 70
1, 12528, Note_on_c, 1, 57, 70
1, 12573, Note_on_c, 0, 77, 0
1, 12573, Note_on_c, 1, 60, 0
1, 12573, Note_on_c, 1, 57, 0
1, 12576, Note_on_c, 0, 72, 80
1, 12599, Note_on_c, 0, 72, 0
1, 12600, Note_on_c, 0, 84, 80
1, 12623, Note_on_c, 0, 84, 0
1, 12624, Note_on_c, 0, 72, 80
1, 12624, Note_on_c, 1, 57, 80
1, 12624, Note_on_c, 1, 45, 80
1, 12647, Note_on_c, 0, 72, 0
1, 12648, Note_on_c, 0, 84, 80
1, 12669, Note_on_c, 1, 57, 0
1, 12669, Note_on_c, 1, 45, 0
1, 12671, Note_on_c, 0, 84, 0
1, 12672, Note_on_c, 0, 74, 80
1, 12672, Note_on_c, 1, 58, 80
1, 12672, Note_on_c, 1, 46, 80
1, 12695, Note_on_c, 0, 74, 0
1, 12696, Note_on_c, 0, 84, 80
1, 12720, Note_on_c, 0, 84, 0
1, 12720, Note_on_c, 0, 82, 80
1, 12743, Note_on_c, 0, 82, 0
1, 12744, Note_on_c, 0, 81, 80
1, 12761, Note_on_c, 1, 58, 0
1, 12761, Note_on_c, 1, 46, 0
1, 12767, Note_on_c, 0, 81, 0
1, 12768, Note_on_c, 0, 82, 80
1, 12768, Note_on_c, 1, 55, 80
1, 12768, Note_on_c, 1, 43, 80
1, 12791, Note_on_c, 0, 82, 0
1, 12792, Note_on_c, 0, 74, 80
1, 12815, Note_on_c, 0, 74, 0
1, 12816, Note_on_c, 0, 82, 80
1, 12839, Note_on_c, 0, 82, 0
1, 12840, Note_on_c, 0, 74, 80
1, 12857, Note_on_c, 1, 55, 0
1, 12857, Note_on_c, 1, 43, 0
1, 12863, Note_on_c, 0, 74, 0
1, 12864, Note_on_c, 0, 82, 80
1, 12864, Note_on_c, 1, 52, 80
1, 12864, Note_on_c, 1, 40, 80
1, 12887, Note_on_c, 0, 82, 0
1, 12888, Note_on_c, 0, 72, 80
1, 12911, Note_on_c, 0, 72, 0
1, 12912, Note_on_c, 0, 79, 80
1, 12935, Note_on_c, 0, 79, 0
1, 12936, Note_on_c, 0, 82, 80
1, 12953, Note_on_c, 1, 52, 0
1, 12953, Note_on_c, 1, 40, 0
1, 12960, Note_on_c, 0, 82, 0
1, 12960, Note_on_c, 0, 81, 80
1, 12960, Note_on_c, 1, 53, 80
1, 12960, Note_on_c, 1, 41, 80
1, 12983, Note_on_c, 0, 81, 0
1, 12984, Note_on_c, 0, 77, 80
1, 13007, Note_on_c, 0, 77, 0
1, 13008, Note_on_c, 0, 76, 80
1, 13031, Note_on_c, 0, 76, 0
1, 13032, Note_on_c, 0, 77, 80
1, 13049, Note_on_c, 1, 53, 0
1, 13049, Note_on_c, 1, 41, 0
1, 13055, Note_on_c, 0, 77, 0
1, 13056, Note_on_c, 0, 74, 80
1, 13056, Note_on_c, 1, 58, 80
1, 13056, Note_on_c, 1, 46, 80
1, 13101, Note_on_c, 0, 74, 0
1, 13104, Note_on_c, 0, 82, 80
1, 13119, Note_on_c, 0, 82, 0
1, 13120, Note_on_c, 0, 81, 81
1, 13135, Note_on_c, 0, 81, 0
1, 13136, Note_on_c, 0, 79, 81
1, 13151, Note_on_c, 0, 79, 0
1, 13152, Note_on_c, 0, 82, 81
1, 13167, Note_on_c, 0, 82, 0
1, 13168, Note_on_c, 0, 81, 81
1, 13183, Note_on_c, 0, 81, 0
1, 13184, Note_on_c, 0, 79, 81
1, 13189, Note_on_c, 1, 58, 0
1, 13189, Note_on_c, 1, 46, 0
1, 13199, Note_on_c, 0, 79, 0
1, 13200, Note_on_c, 0, 81, 82
1, 13200, Note_on_c, 1, 59, 82
1, 13200, Note_on_c, 1, 47, 82
1, 13215, Note_on_c, 0, 81, 0
1, 13216, Note_on_c, 0, 79, 82
1, 13231, Note_on_c, 0, 79, 0
1, 13232, Note_on_c, 0, 77, 82
1, 13245, Note_on_c, 1, 59, 0
1, 13245, Note_on_c, 1, 47, 0
1, 13247, Note_on_c, 0, 77, 0
1, 13248, Note_on_c, 0, 76, 82
1, 13248, Note_on_c, 1, 60, 83
1, 13248, Note_on_c, 1, 48, 83
1, 13263, Note_on_c, 0, 76, 0
1, 13264, Note_on_c, 0, 77, 82
1, 13279, Note_on_c, 0, 77, 0
1, 13280, Note_on_c, 0, 79, 83
1, 13295, Note_on_c, 0, 79, 0
1, 13296, Note_on_c, 0, 72, 83
1, 13337, Note_on_c, 1, 60, 0
1, 13337, Note_on_c, 1, 48, 0
1, 13341, Note_on_c, 0, 72, 0
1, 13440, Note_on_c, 0, 65, 85
1, 13440, Note_on_c, 1, 53, 85
1, 13440, Note_on_c, 1, 41, 85
1, 13449, Note_on_c, 0, 69, 85
1, 13458, Note_on_c, 0, 72, 85
1, 13467, Note_on_c, 0, 77, 85
1, 13529, Note_on_c, 1, 53, 0
1, 13529, Note_on_c, 1, 41, 0
1, 13535, Note_on_c, 0, 77, 0
1, 13535, Note_on_c, 0, 72, 0
1, 13535, Note_on_c, 0, 69, 0
1, 13535, Note_on_c, 0, 65, 0
1, 13536, Note_on_c, 0, 69, 85
1, 13536, Note_on_c, 1, 53, 70
1, 13536, Note_on_c, 1, 41, 70
1, 13570, Note_on_c, 0, 69, 0
1, 13572, Note_on_c, 0, 72, 85
1, 13581, Note_on_c, 1, 53, 0
1, 13581, Note_on_c, 1, 41, 0
1, 13584, Note_on_c, 0, 72, 0
1, 13584, Note_on_c, 0, 70, 85
1, 13584, Note_on_c, 1, 55, 70
1, 13584, Note_on_c, 1, 43, 70
1, 13618, Note_on_c, 0, 70, 0
1, 13620, Note_on_c, 0, 74, 85
1, 13629, Note_on_c, 1, 55, 0
1, 13629, Note_on_c, 1, 43, 0
1, 13632, Note_on_c, 0, 74, 0
1, 13632, Note_on_c, 0, 72, 85
1, 13632, Note_on_c, 1, 57, 70
1, 13632, Note_on_c, 1, 45, 70
1, 13677, Note_on_c, 0, 72, 0
1, 13680, Note_on_c, 0, 65, 85
1, 13721, Note_on_c, 1, 57, 0
1, 13721, Note_on_c, 1, 45, 0
1, 13725, Note_on_c, 0, 65, 0
1, 13728, Note_on_c, 0, 65, 85
1, 13773, Note_on_c, 0, 65, 0
1, 13776, Note_on_c, 0, 65, 85
1, 13776, Note_on_c, 1, 60, 70
1, 13776, Note_on_c, 1, 57, 70
1, 13821, Note_on_c, 0, 65, 0
1, 13821, Note_on_c, 1, 60, 0
1, 13821, Note_on_c, 1, 57, 0
1, 13824, Note_on_c, 0, 67, 85
1, 13824, Note_on_c, 1, 62, 70
1, 13824, Note_on_c, 1, 58, 70
1, 13834, Note_on_c, 0, 67, 0
1, 13834, Note_on_c, 0, 69, 85
1, 13844, Note_on_c, 0, 69, 0
1, 13844, Note_on_c, 0, 67, 85
1, 13854, Note_on_c, 0, 67, 0
1, 13854, Note_on_c, 0, 65, 85
1, 13863, Note_on_c, 0, 65, 0
1, 13863, Note_on_c, 0, 67, 85
1, 13869, Note_on_c, 1, 62, 0
1, 13869, Note_on_c, 1, 58, 0
1, 13872, Note_on_c, 0, 67, 0
1, 13872, Note_on_c, 0, 65, 85
1, 13872, Note_on_c, 1, 60, 70
1, 13872, Note_on_c, 1, 57, 70
1, 13917, Note_on_c, 0, 65, 0
1, 13917, Note_on_c, 1, 60, 0
1, 13917, Note_on_c, 1, 57, 0
1, 13920, Note_on_c, 0, 72, 85
1, 13943, Note_on_c, 0, 72, 0
1, 13944, Note_on_c, 0, 69, 85
1, 13967, Note_on_c, 0, 69, 0
1, 13968, Note_on_c, 0, 67, 85
1, 13968, Note_on_c, 1, 60, 70
1, 13968, Note_on_c, 1, 57, 70
1, 13991, Note_on_c, 0, 67, 0
1, 13992, Note_on_c, 0, 65, 85
1, 14013, Note_on_c, 1, 60, 0
1, 14013, Note_on_c, 1, 57, 0
1, 14015, Note_on_c, 0, 65, 0
1, 14016, Note_on_c, 0, 67, 85
1, 14016, Note_on_c, 1, 62, 70
1, 14016, Note_on_c, 1, 58, 70
1, 14026, Note_on_c, 0, 67, 0
1, 14026, Note_on_c, 0, 69, 85
1, 14036, Note_on_c, 0, 69, 0
1, 14036, Note_on_c, 0, 67, 85
1, 14046, Note_on_c, 0, 67, 0
1, 14046, Note_on_c, 0, 65, 85
1, 14055, Note_on_c, 0, 65, 0
1, 14055, Note_on_c, 0, 67, 85
1, 14061, Note_on_c, 1, 62, 0
1, 14061, Note_on_c, 1, 58, 0
1, 14064, Note_on_c, 0, 67, 0
1, 14064, Note_on_c, 0, 65, 85
1, 14064, Note_on_c, 1, 60, 70
1, 14064, Note_on_c, 1, 57, 70
1, 14109, Note_on_c, 0, 65, 0
1, 14109, Note_on_c, 1, 60, 0
1, 14109, Note_on_c, 1, 57, 0
1, 14160, Note_on_c, 0, 72, 85
1, 14160, Note_on_c, 1, 69, 70
1, 14160, Note_on_c, 1, 65, 70
1, 14205, Note_on_c, 0, 72, 0
1, 14205, Note_on_c, 1, 69, 0
1, 14205, Note_on_c, 1, 65, 0
1, 14208, Note_on_c, 0, 74, 85
1, 14208, Note_on_c, 1, 70, 70
1, 14208, Note_on_c, 1, 65, 70
1, 14242, Note_on_c, 0, 74, 0
1, 14244, Note_on_c, 0, 77, 85
1, 14256, Note_on_c, 0, 77, 0
1, 14256, Note_on_c, 0, 76, 85
1, 14290, Note_on_c, 0, 76, 0
1, 14292, Note_on_c, 0, 74, 85
1, 14297, Note_on_c, 1, 70, 0
1, 14297, Note_on_c, 1, 65, 0
1, 14304, Note_on_c, 0, 74, 0
1, 14304, Note_on_c, 0, 72, 85
1, 14304, Note_on_c, 1, 69, 70
1, 14304, Note_on_c, 1, 65, 70
1, 14349, Note_on_c, 0, 72, 0
1, 14352, Note_on_c, 0, 77, 85
1, 14393, Note_on_c, 1, 69, 0
1, 14393, Note_on_c, 1, 65, 0
1, 14397, Note_on_c, 0, 77, 0
1, 14400, Note_on_c, 0, 70, 85
1, 14400, Note_on_c, 1, 67, 70
1, 14411, Note_on_c, 0, 70, 0
1, 14411, Note_on_c, 0, 72, 85
1, 14422, Note_on_c, 0, 72, 0
1, 14422, Note_on_c, 0, 70, 85
1, 14433, Note_on_c, 0, 70, 0
1, 14433, Note_on_c, 0, 72, 85
1, 14444, Note_on_c, 0, 72, 0
1, 14444, Note_on_c, 0, 70, 85
1, 14445, Note_on_c, 1, 67, 0
1, 14448, Note_on_c, 1, 60, 70
1, 14455, Note_on_c, 0, 70, 0
1, 14455, Note_on_c, 0, 72, 85
1, 14466, Note_on_c, 0, 72, 0
1, 14466, Note_on_c, 0, 70, 85
1, 14476, Note_on_c, 0, 70, 0
1, 14476, Note_on_c, 0, 69, 85
1, 14486, Note_on_c, 0, 69, 0
1, 14486, Note_on_c, 0, 70, 85
1, 14493, Note_on_c, 1, 60, 0
1, 14496, Note_on_c, 0, 70, 0
1, 14496, Note_on_c, 0, 69, 85
1, 14496, Note_on_c, 1, 65, 70
1, 14541, Note_on_c, 0, 69, 0
1, 14541, Note_on_c, 1, 65, 0
1, 14544, Note_on_c, 0, 77, 85
1, 14544, Note_on_c, 1, 70, 70
1, 14559, Note_on_c, 0, 77, 0
1, 14560, Note_on_c, 0, 76, 85
1, 14575, Note_on_c, 0, 76, 0
1, 14576, Note_on_c, 0, 74, 85
1, 14589, Note_on_c, 1, 70, 0
1, 14591, Note_on_c, 0, 74, 0
1, 14592, Note_on_c, 0, 72, 85
1, 14592, Note_on_c, 1, 69, 70
1, 14637, Note_on_c, 0, 72, 0
1, 14640, Note_on_c, 0, 65, 85
1, 14646, Note_on_c, 0, 65, 0
1, 14646, Note_on_c, 0, 67, 85
1, 14652, Note_on_c, 0, 67, 0
1, 14652, Note_on_c, 0, 69, 85
1, 14681, Note_on_c, 1, 69, 0
1, 14686, Note_on_c, 0, 69, 0
1, 14688, Note_on_c, 0, 69, 85
1, 14694, Note_on_c, 0, 69, 0
1, 14694, Note_on_c, 0, 70, 85
1, 14700, Note_on_c, 0, 70, 0
1, 14700, Note_on_c, 0, 72, 85
1, 14734, Note_on_c, 0, 72, 0
1, 14736, Note_on_c, 0, 70, 85
1, 14736, Note_on_c, 1, 58, 70
1, 14736, Note_on_c, 1, 46, 70
1, 14742, Note_on_c, 0, 70, 0
1, 14742, Note_on_c, 0, 72, 85
1, 14748, Note_on_c, 0, 72, 0
1, 14748, Note_on_c, 0, 74, 85
1, 14781, Note_on_c, 1, 58, 0
1, 14781, Note_on_c, 1, 46, 0
1, 14782, Note_on_c, 0, 74, 0
1, 14784, Note_on_c, 0, 72, 85
1, 14784, Note_on_c, 1, 57, 70
1, 14784, Note_on_c, 1, 45, 70
1, 14804, Note_on_c, 0, 72, 0
1, 14832, Note_on_c, 0, 72, 85
1, 14838, Note_on_c, 0, 72, 0
1, 14838, Note_on_c, 0, 74, 85
1, 14844, Note_on_c, 0, 74, 0
1, 14844, Note_on_c, 0, 76, 85
1, 14873, Note_on_c, 1, 57, 0
1, 14873, Note_on_c, 1, 45, 0
1, 14878, Note_on_c, 0, 76, 0
1, 14880, Note_on_c, 0, 77, 85
1, 14886, Note_on_c, 0, 77, 0
1, 14886, Note_on_c, 0, 79, 85
1, 14892, Note_on_c, 0, 79, 0
1, 14892, Note_on_c, 0, 81, 85
1, 14926, Note_on_c, 0, 81, 0
1, 14928, Note_on_c, 0, 82, 85
1, 14928, Note_on_c, 1, 58, 70
1, 14928, Note_on_c, 1, 46, 70
1, 14934, Note_on_c, 0, 82, 0
1, 14934, Note_on_c, 0, 84, 85
1, 14940, Note_on_c, 0, 84, 0
1, 14940, Note_on_c, 0, 86, 85
1, 14973, Note_on_c, 1, 58, 0
1, 14973, Note_on_c, 1, 46, 0
1, 14974, Note_on_c, 0, 86, 0
1, 14976, Note_on_c, 0, 84, 85
1, 14976, Note_on_c, 1, 57, 70
1, 14976, Note_on_c, 1, 45, 70
1, 15021, Note_on_c, 0, 84, 0
1, 15021, Note_on_c, 1, 57, 0
1, 15021, Note_on_c, 1, 45, 0
1, 15024, Note_on_c, 0, 82, 85
1, 15024, Note_on_c, 1, 58, 70
1, 15024, Note_on_c, 1, 46, 70
1, 15036, Note_on_c, 0, 82, 0
1, 15036, Note_on_c, 0, 81, 85
1, 15048, Note_on_c, 0, 81, 0
1, 15048, Note_on_c, 0, 79, 85
1, 15060, Note_on_c, 0, 79, 0
1, 15060, Note_on_c, 0, 77, 85
1, 15069, Note_on_c, 1, 58, 0
1, 15069, Note_on_c, 1, 46, 0
1, 15072, Note_on_c, 0, 77, 0
1, 15072, Note_on_c, 0, 79, 85
1, 15072, Note_on_c, 1, 60, 70
1, 15083, Note_on_c, 0, 79, 0
1, 15083, Note_on_c, 0, 81, 85
1, 15094, Note_on_c, 0, 81, 0
1, 15094, Note_on_c, 0, 79, 85
1, 15105, Note_on_c, 0, 79, 0
1, 15105, Note_on_c, 0, 81, 85
1, 15116, Note_on_c, 0, 81, 0
1, 15116, Note_on_c, 0, 79, 85
1, 15117, Note_on_c, 1, 60, 0
1, 15120, Note_on_c, 1, 48, 70
1, 15127, Note_on_c, 0, 79, 0
1, 15127, Note_on_c, 0, 81, 85
1, 15138, Note_on_c, 0, 81, 0
1, 15138, Note_on_c, 0, 79, 85
1, 15148, Note_on_c, 0, 79, 0
1, 15148, Note_on_c, 0, 77, 85
1, 15158, Note_on_c, 0, 77, 0
1, 15158, Note_on_c, 0, 79, 85
1, 15165, Note_on_c, 1, 48, 0
1, 15168, Note_on_c, 0, 79, 0
1, 15168, Note_on_c, 0, 77, 85
1, 15168, Note_on_c, 1, 53, 70
1, 15213, Note_on_c, 1, 53, 0
1, 15216, Note_on_c, 1, 48, 70
1, 15257, Note_on_c, 0, 77, 0
1, 15261, Note_on_c, 1, 48, 0
1, 15264, Note_on_c, 1, 41, 70
1, 15288, Note_on_c, 0, 84, 80
1, 15309, Note_on_c, 1, 41, 0
1, 15311, Note_on_c, 0, 84, 0
1, 15312, Note_on_c, 0, 72, 80
1, 15312, Note_on_c, 1, 57, 80
1, 15312, Note_on_c, 1, 45, 80
1, 15335, Note_on_c, 0, 72, 0
1, 15336, Note_on_c, 0, 84, 80
1, 15357, Note_on_c, 1, 57, 0
1, 15357, Note_on_c, 1, 45, 0
1, 15359, Note_on_c, 0, 84, 0
1, 15360, Note_on_c, 0, 74, 80
1, 15360, Note_on_c, 1, 58, 80
1, 15360, Note_on_c, 1, 46, 80
1, 15383, Note_on_c, 0, 74, 0
1, 15384, Note_on_c, 0, 84, 80
1, 15407, Note_on_c, 0, 84, 0
1, 15408, Note_on_c, 0, 82, 80
1, 15431, Note_on_c, 0, 82, 0
1, 15432, Note_on_c, 0, 81, 80
1, 15455, Note_on_c, 0, 81, 0
1, 15456, Note_on_c, 0, 82, 80
1, 15462, Note_on_c, 0, 82, 0
1, 15462, Note_on_c, 0, 84, 80
1, 15468, Note_on_c, 0, 84, 0
1, 15468, Note_on_c, 0, 82, 80
1, 15479, Note_on_c, 0, 82, 0
1, 15480, Note_on_c, 0, 79, 80
1, 15493, Note_on_c, 1, 58, 0
1, 15493, Note_on_c, 1, 46, 0
1, 15503, Note_on_c, 0, 79, 0
1, 15504, Note_on_c, 0, 77, 80
1, 15504, Note_on_c, 1, 60, 80
1, 15504, Note_on_c, 1, 48, 80
1, 15510, Note_on_c, 0, 77, 0
1, 15510, Note_on_c, 0, 79, 80
1, 15516, Note_on_c, 0, 79, 0
1, 15516, Note_on_c, 0, 77, 80
1, 15527, Note_on_c, 0, 77, 0
1, 15528, Note_on_c, 0, 76, 80
1, 15549, Note_on_c, 1, 60, 0
1, 15549, Note_on_c, 1, 48, 0
1, 15551, Note_on_c, 0, 76, 0
1, 15552, Note_on_c, 0, 77, 80
1, 15552, Note_on_c, 1, 62, 80
1, 15552, Note_on_c, 1, 50, 80
1, 15558, Note_on_c, 0, 77, 0
1, 15558, Note_on_c, 0, 79, 80
1, 15564, Note_on_c, 0, 79, 0
1, 15564, Note_on_c, 0, 77, 80
1, 15575, Note_on_c, 0, 77, 0
1, 15576, Note_on_c, 0, 76, 80
1, 15599, Note_on_c, 0, 76, 0
1, 15600, Note_on_c, 0, 77, 80
1, 15623, Note_on_c, 0, 77, 0
1, 15624, Note_on_c, 0, 81, 80
1, 15641, Note_on_c, 1, 62, 0
1, 15641, Note_on_c, 1, 50, 0
1, 15647, Note_on_c, 0, 81, 0
1, 15648, Note_on_c, 0, 77, 80
1, 15671, Note_on_c, 0, 77, 0
1, 15672, Note_on_c, 0, 84, 80
1, 15695, Note_on_c, 0, 84, 0
1, 15696, Note_on_c, 0, 72, 80
1, 15696, Note_on_c, 1, 45, 80
1, 15696, Note_on_c, 1, 33, 80
1, 15719, Note_on_c, 0, 72, 0
1, 15720, Note_on_c, 0, 84, 80
1, 15741, Note_on_c, 1, 45, 0
1, 15741, Note_on_c, 1, 33, 0
1, 15743, Note_on_c, 0, 84, 0
1, 15744, Note_on_c, 0, 74, 80
1, 15744, Note_on_c, 1, 46, 80
1, 15744, Note_on_c, 1, 34, 80
1, 15767, Note_on_c, 0, 74, 0
1, 15768, Note_on_c, 0, 84, 80
1, 15791, Note_on_c, 0, 84, 0
1, 15792, Note_on_c, 0, 82, 80
1, 15815, Note_on_c, 0, 82, 0
1, 15816, Note_on_c, 0, 81, 80
1, 15833, Note_on_c, 1, 46, 0
1, 15833, Note_on_c, 1, 34, 0
1, 15839, Note_on_c, 0, 81, 0
1, 15840, Note_on_c, 0, 82, 80
1, 15840, Note_on_c, 1, 48, 80
1, 15840, Note_on_c, 1, 36, 80
1, 15846, Note_on_c, 0, 82, 0
1, 15846, Note_on_c, 0, 84, 80
1, 15852, Note_on_c, 0, 84, 0
1, 15852, Note_on_c, 0, 82, 80
1, 15863, Note_on_c, 0, 82, 0
1, 15864, Note_on_c, 0, 79, 80
1, 15887, Note_on_c, 0, 79, 0
1, 15888, Note_on_c, 0, 77, 80
1, 15894, Note_on_c, 0, 77, 0
1, 15894, Note_on_c, 0, 79, 80
1, 15900, Note_on_c, 0, 79, 0
1, 15900, Note_on_c, 0, 77, 80
1, 15911, Note_on_c, 0, 77, 0
1, 15912, Note_on_c, 0, 76, 80
1, 15929, Note_on_c, 1, 48, 0
1, 15929, Note_on_c, 1, 36, 0
1, 15935, Note_on_c, 0, 76, 0
1, 15936, Note_on_c, 0, 76, 80
1, 15936, Note_on_c, 1, 41, 80
1, 15936, Note_on_c, 1, 29, 80
1, 15984, Note_on_c, 0, 76, 0
1, 15984, Note_on_c, 0, 77, 80
1, 16025, Note_on_c, 1, 41, 0
1, 16025, Note_on_c, 1, 29, 0
1, 16029, Note_on_c, 0, 77, 0
1, 16128, Note_on_c, 1, 41, 0
1, 16305, Note_on_c, 1, 41, 0
1, 16315, End_track
0, 0, End_of_file