0, 0, Header, 0, 1, 96
1, 0, Start_track
1, 0, Tempo, 208333
1, 192, Note_on_c, 1, 49, 97
1, 192, Note_on_c, 1, 37, 97
1, 281, Note_on_c, 1, 49, 0
1, 281, Note_on_c, 1, 37, 0
1, 288, Note_on_c, 1, 50, 75
1, 288, Note_on_c, 1, 38, 75
1, 377, Note_on_c, 1, 50, 0
1, 377, Note_on_c, 1, 38, 0
1, 384, Note_on_c, 1, 54, 75
1, 384, Note_on_c, 1, 42, 75
1, 473, Note_on_c, 1, 54, 0
1, 473, Note_on_c, 1, 42, 0
1, 480, Note_on_c, 1, 57, 75
1, 480, Note_on_c, 1, 45, 75
1, 569, Note_on_c, 1, 57, 0
1, 569, Note_on_c, 1, 45, 0
1, 576, Note_on_c, 0, 61, 73
1, 576, Note_on_c, 1, 49, 73
1, 665, Note_on_c, 0, 61, 0
1, 665, Note_on_c, 1, 49, 0
1, 672, Note_on_c, 0, 62, 71
1, 672, Note_on_c, 1, 50, 71
1, 761, Note_on_c, 0, 62, 0
1, 761, Note_on_c, 1, 50, 0
1, 768, Note_on_c, 0, 66, 69
1, 768, Note_on_c, 1, 54, 69
1, 857, Note_on_c, 0, 66, 0
1, 857, Note_on_c, 1, 54, 0
1, 864, Note_on_c, 0, 69, 67
1, 864, Note_on_c, 1, 57, 67
1, 997, Note_on_c, 0, 69, 0
1, 997, Note_on_c, 1, 57, 0
1, 1008, Note_on_c, 0, 74, 80
1, 1008, Note_on_c, 1, 62, 80
1, 1056, Note_on_c, 0, 74, 0
1, 1056, Note_on_c, 0, 78, 64
1, 1056, Note_on_c, 1, 62, 0
1, 1056, Note_on_c, 1, 66, 64
1, 1101, Note_on_c, 0, 78, 0
1, 1101, Note_on_c, 1, 66, 0
1, 1104, Note_on_c, 0, 74, 64
1, 1104, Note_on_c, 1, 62, 64
1, 1149, Note_on_c, 0, 74, 0
1, 1149, Note_on_c, 1, 62, 0
1, 1152, Note_on_c, 0, 69, 64
1, 1152, Note_on_c, 1, 57, 64
1, 1241, Note_on_c, 0, 69, 0
1, 1241, Note_on_c, 1, 57, 0
1, 1344, Note_on_c, 0, 69, 81
1, 1344, Note_on_c, 0, 57, 81
1, 1344, Note_on_c, 1, 42, 81
1, 1433, Note_on_c, 0, 69, 0
1, 1433, Note_on_c, 0, 57, 0
1, 1440, Note_on_c, 0, 69, 70
1, 1440, Note_on_c, 0, 59, 70
1, 1440, Note_on_c, 1, 42, 0
1, 1440, Note_on_c, 1, 43, 70
1, 1529, Note_on_c, 1, 43, 0
1, 1536, Note_on_c, 1, 51, 70
1, 1632, Note_on_c, 1, 51, 0
1, 1632, Note_on_c, 1, 54, 70
1, 1721, Note_on_c, 1, 54, 0
1, 1728, Note_on_c, 0, 69, 0
1, 1728, Note_on_c, 0, 67, 64
1, 1728, Note_on_c, 1, 52, 64
1, 1817, Note_on_c, 1, 52, 0
1, 1824, Note_on_c, 1, 55, 64
1, 1905, Note_on_c, 0, 67, 0
1, 1905, Note_on_c, 0, 59, 0
1, 1913, Note_on_c, 1, 55, 0
1, 1920, Note_on_c, 0, 67, 81
1, 1920, Note_on_c, 0, 58, 81
1, 1920, Note_on_c, 1, 40, 81
1, 2009, Note_on_c, 0, 67, 0
1, 2009, Note_on_c, 0, 58, 0
1, 2016, Note_on_c, 0, 67, 64
1, 2016, Note_on_c, 0, 57, 64
1, 2016, Note_on_c, 1, 40, 0
1, 2016, Note_on_c, 1, 42, 64
1, 2105, Note_on_c, 1, 42, 0
1, 2112, Note_on_c, 1, 49, 64
1, 2208, Note_on_c, 1, 49, 0
1, 2208, Note_on_c, 1, 52, 64
1, 2297, Note_on_c, 1, 52, 0
1, 2304, Note_on_c, 0, 67, 0
1, 2304, Note_on_c, 0, 66, 64
1, 2304, Note_on_c, 1, 50, 64
1, 2400, Note_on_c, 1, 50, 0
1, 2400, Note_on_c, 1, 54, 64
1, 2481, Note_on_c, 0, 66, 0
1, 2481, Note_on_c, 0, 57, 0
1, 2489, Note_on_c, 1, 54, 0
1, 2496, Note_on_c, 0, 66, 81
1, 2496, Note_on_c, 0, 59, 81
1, 2496, Note_on_c, 1, 43, 81
1, 2585, Note_on_c, 1, 43, 0
1, 2592, Note_on_c, 0, 66, 0
1, 2592, Note_on_c, 0, 64, 64
1, 2592, Note_on_c, 1, 55, 64
1, 2681, Note_on_c, 1, 55, 0
1, 2688, Note_on_c, 0, 64, 0
1, 2688, Note_on_c, 0, 62, 64
1, 2688, Note_on_c, 1, 52, 64
1, 2777, Note_on_c, 0, 62, 0
1, 2777, Note_on_c, 0, 59, 0
1, 2777, Note_on_c, 1, 52, 0
1, 2784, Note_on_c, 0, 67, 81
1, 2784, Note_on_c, 0, 61, 81
1, 2784, Note_on_c, 1, 45, 81
1, 2873, Note_on_c, 1, 45, 0
1, 2880, Note_on_c, 0, 67, 0
1, 2880, Note_on_c, 0, 66, 64
1, 2880, Note_on_c, 1, 57, 64
1, 2969, Note_on_c, 1, 57, 0
1, 2976, Note_on_c, 0, 66, 0
1, 2976, Note_on_c, 0, 64, 64
1, 2976, Note_on_c, 1, 54, 64
1, 3065, Note_on_c, 0, 64, 0
1, 3065, Note_on_c, 0, 61, 0
1, 3065, Note_on_c, 1, 54, 0
1, 3072, Note_on_c, 0, 69, 81
1, 3072, Note_on_c, 0, 62, 81
1, 3072, Note_on_c, 1, 47, 81
1, 3161, Note_on_c, 1, 47, 0
1, 3168, Note_on_c, 0, 69, 0
1, 3168, Note_on_c, 0, 67, 64
1, 3168, Note_on_c, 1, 59, 64
1, 3257, Note_on_c, 1, 59, 0
1, 3264, Note_on_c, 0, 67, 0
1, 3264, Note_on_c, 0, 66, 64
1, 3264, Note_on_c, 1, 55, 64
1, 3353, Note_on_c, 0, 66, 0
1, 3353, Note_on_c, 0, 62, 0
1, 3353, Note_on_c, 1, 55, 0
1, 3360, Note_on_c, 0, 71, 81
1, 3360, Note_on_c, 0, 64, 81
1, 3360, Note_on_c, 1, 49, 81
1, 3449, Note_on_c, 0, 71, 0
1, 3449, Note_on_c, 0, 64, 0
1, 3449, Note_on_c, 1, 49, 0
1, 3456, Note_on_c, 0, 69, 64
1, 3456, Note_on_c, 0, 64, 64
1, 3456, Note_on_c, 1, 61, 64
1, 3545, Note_on_c, 1, 61, 0
1, 3552, Note_on_c, 0, 69, 0
1, 3552, Note_on_c, 0, 64, 0
1, 3552, Note_on_c, 0, 68, 67
1, 3552, Note_on_c, 0, 65, 67
1, 3552, Note_on_c, 1, 62, 67
1, 3641, Note_on_c, 0, 68, 0
1, 3641, Note_on_c, 0, 65, 0
1, 3641, Note_on_c, 1, 62, 0
1, 3648, Note_on_c, 0, 69, 70
1, 3648, Note_on_c, 0, 64, 70
1, 3648, Note_on_c, 1, 61, 70
1, 3737, Note_on_c, 0, 69, 0
1, 3737, Note_on_c, 0, 64, 0
1, 3737, Note_on_c, 1, 61, 0
1, 3744, Note_on_c, 0, 74, 73
1, 3744, Note_on_c, 0, 68, 73
1, 3744, Note_on_c, 1, 59, 73
1, 3840, Note_on_c, 0, 74, 0
1, 3840, Note_on_c, 0, 68, 0
1, 3840, Note_on_c, 0, 73, 76
1, 3840, Note_on_c, 0, 69, 76
1, 3840, Note_on_c, 1, 59, 0
1, 3840, Note_on_c, 1, 57, 76
1, 3929, Note_on_c, 0, 73, 0
1, 3929, Note_on_c, 0, 69, 0
1, 3929, Note_on_c, 1, 57, 0
1, 3936, Note_on_c, 0, 78, 97
1, 3936, Note_on_c, 1, 62, 97
1, 3936, Note_on_c, 1, 50, 97
1, 4025, Note_on_c, 0, 78, 0
1, 4025, Note_on_c, 1, 62, 0
1, 4025, Note_on_c, 1, 50, 0
1, 4032, Note_on_c, 0, 69, 80
1, 4032, Note_on_c, 1, 61, 80
1, 4032, Note_on_c, 1, 57, 80
1, 4209, Note_on_c, 0, 69, 0
1, 4209, Note_on_c, 1, 61, 0
1, 4209, Note_on_c, 1, 57, 0
1, 4224, Note_on_c, 0, 71, 77
1, 4224, Note_on_c, 1, 62, 77
1, 4269, Note_on_c, 0, 71, 0
1, 4272, Note_on_c, 0, 68, 76
1, 4313, Note_on_c, 1, 62, 0
1, 4317, Note_on_c, 0, 68, 0
1, 4320, Note_on_c, 0, 69, 76
1, 4320, Note_on_c, 0, 61, 76
1, 4320, Note_on_c, 1, 45, 76
1, 4320, Note_on_c, 1, 45, 64
1, 4409, Note_on_c, 0, 69, 0
1, 4409, Note_on_c, 0, 61, 0
1, 4409, Note_on_c, 1, 45, 0
1, 4416, Note_on_c, 1, 47, 75
1, 4505, Note_on_c, 1, 47, 0
1, 4512, Note_on_c, 0, 76, 92
1, 4512, Note_on_c, 0, 67, 92
1, 4512, Note_on_c, 1, 49, 92
1, 4601, Note_on_c, 1, 49, 0
1, 4608, Note_on_c, 0, 67, 0
1, 4608, Note_on_c, 0, 65, 75
1, 4608, Note_on_c, 1, 50, 75
1, 4697, Note_on_c, 0, 76, 0
1, 4697, Note_on_c, 0, 65, 0
1, 4704, Note_on_c, 0, 74, 75
1, 4704, Note_on_c, 0, 66, 75
1, 4785, Note_on_c, 1, 50, 0
1, 4793, Note_on_c, 0, 74, 0
1, 4793, Note_on_c, 0, 66, 0
1, 4800, Note_on_c, 0, 73, 75
1, 4800, Note_on_c, 0, 64, 75
1, 4800, Note_on_c, 1, 52, 75
1, 4889, Note_on_c, 0, 73, 0
1, 4889, Note_on_c, 0, 64, 0
1, 4889, Note_on_c, 1, 52, 0
1, 4896, Note_on_c, 0, 71, 75
1, 4896, Note_on_c, 0, 62, 75
1, 4896, Note_on_c, 1, 53, 75
1, 4985, Note_on_c, 0, 71, 0
1, 4985, Note_on_c, 0, 62, 0
1, 4985, Note_on_c, 1, 53, 0
1, 4992, Note_on_c, 0, 69, 75
1, 4992, Note_on_c, 0, 61, 75
1, 4992, Note_on_c, 1, 52, 75
1, 5081, Note_on_c, 0, 69, 0
1, 5081, Note_on_c, 0, 61, 0
1, 5081, Note_on_c, 1, 52, 0
1, 5088, Note_on_c, 0, 68, 75
1, 5088, Note_on_c, 0, 59, 75
1, 5088, Note_on_c, 1, 50, 75
1, 5161, Note_on_c, 1, 45, 0
1, 5177, Note_on_c, 0, 68, 0
1, 5177, Note_on_c, 0, 59, 0
1, 5177, Note_on_c, 1, 50, 0
1, 5184, Note_on_c, 0, 69, 92
1, 5184, Note_on_c, 0, 57, 92
1, 5184, Note_on_c, 1, 49, 92
1, 5184, Note_on_c, 1, 45, 64
1, 5273, Note_on_c, 0, 69, 0
1, 5273, Note_on_c, 0, 57, 0
1, 5273, Note_on_c, 1, 49, 0
1, 5280, Note_on_c, 0, 68, 75
1, 5280, Note_on_c, 0, 59, 75
1, 5280, Note_on_c, 1, 50, 75
1, 5369, Note_on_c, 0, 68, 0
1, 5369, Note_on_c, 0, 59, 0
1, 5369, Note_on_c, 1, 50, 0
1, 5376, Note_on_c, 0, 69, 75
1, 5376, Note_on_c, 0, 61, 75
1, 5376, Note_on_c, 1, 52, 75
1, 5465, Note_on_c, 0, 69, 0
1, 5465, Note_on_c, 0, 61, 0
1, 5465, Note_on_c, 1, 52, 0
1, 5472, Note_on_c, 0, 71, 75
1, 5472, Note_on_c, 0, 62, 75
1, 5472, Note_on_c, 1, 53, 75
1, 5561, Note_on_c, 0, 71, 0
1, 5561, Note_on_c, 0, 62, 0
1, 5561, Note_on_c, 1, 53, 0
1, 5568, Note_on_c, 0, 69, 75
1, 5568, Note_on_c, 0, 61, 75
1, 5568, Note_on_c, 1, 52, 75
1, 5657, Note_on_c, 0, 69, 0
1, 5657, Note_on_c, 0, 61, 0
1, 5657, Note_on_c, 1, 52, 0
1, 5664, Note_on_c, 0, 68, 75
1, 5664, Note_on_c, 0, 59, 75
1, 5664, Note_on_c, 1, 50, 75
1, 5737, Note_on_c, 1, 45, 0
1, 5753, Note_on_c, 0, 68, 0
1, 5753, Note_on_c, 0, 59, 0
1, 5753, Note_on_c, 1, 50, 0
1, 5760, Note_on_c, 0, 69, 92
1, 5760, Note_on_c, 0, 57, 92
1, 5760, Note_on_c, 1, 49, 92
1, 5760, Note_on_c, 1, 45, 64
1, 5849, Note_on_c, 0, 69, 0
1, 5849, Note_on_c, 0, 57, 0
1, 5849, Note_on_c, 1, 49, 0
1, 5856, Note_on_c, 0, 68, 64
1, 5856, Note_on_c, 0, 59, 64
1, 5856, Note_on_c, 1, 50, 64
1, 5945, Note_on_c, 0, 68, 0
1, 5945, Note_on_c, 0, 59, 0
1, 5945, Note_on_c, 1, 50, 0
1, 5952, Note_on_c, 0, 69, 64
1, 5952, Note_on_c, 0, 61, 64
1, 5952, Note_on_c, 1, 52, 64
1, 6041, Note_on_c, 0, 69, 0
1, 6041, Note_on_c, 0, 61, 0
1, 6041, Note_on_c, 1, 52, 0
1, 6048, Note_on_c, 0, 71, 64
1, 6048, Note_on_c, 0, 62, 64
1, 6048, Note_on_c, 1, 53, 64
1, 6137, Note_on_c, 0, 71, 0
1, 6137, Note_on_c, 0, 62, 0
1, 6137, Note_on_c, 1, 53, 0
1, 6144, Note_on_c, 0, 69, 64
1, 6144, Note_on_c, 0, 61, 64
1, 6144, Note_on_c, 1, 52, 64
1, 6233, Note_on_c, 0, 69, 0
1, 6233, Note_on_c, 0, 61, 0
1, 6233, Note_on_c, 1, 52, 0
1, 6240, Note_on_c, 0, 68, 64
1, 6240, Note_on_c, 0, 59, 64
1, 6240, Note_on_c, 1, 50, 64
1, 6329, Note_on_c, 0, 68, 0
1, 6329, Note_on_c, 0, 59, 0
1, 6329, Note_on_c, 1, 50, 0
1, 6336, Note_on_c, 0, 69, 81
1, 6336, Note_on_c, 0, 57, 81
1, 6336, Note_on_c, 1, 49, 81
1, 6425, Note_on_c, 0, 69, 0
1, 6425, Note_on_c, 0, 57, 0
1, 6425, Note_on_c, 1, 49, 0
1, 6425, Note_on_c, 1, 45, 0
1, 6432, Note_on_c, 0, 69, 58
1, 6432, Note_on_c, 0, 61, 58
1, 6432, Note_on_c, 1, 37, 58
1, 6521, Note_on_c, 0, 69, 0
1, 6521, Note_on_c, 0, 61, 0
1, 6521, Note_on_c, 1, 37, 0
1, 6528, Note_on_c, 0, 69, 58
1, 6528, Note_on_c, 0, 61, 58
1, 6528, Note_on_c, 1, 40, 58
1, 6617, Note_on_c, 0, 69, 0
1, 6617, Note_on_c, 0, 61, 0
1, 6617, Note_on_c, 1, 40, 0
1, 6624, Note_on_c, 0, 69, 58
1, 6624, Note_on_c, 0, 61, 58
1, 6624, Note_on_c, 1, 33, 58
1, 6713, Note_on_c, 1, 33, 0
1, 6720, Note_on_c, 1, 35, 58
1, 6801, Note_on_c, 0, 69, 0
1, 6801, Note_on_c, 0, 61, 0
1, 6809, Note_on_c, 1, 35, 0
1, 6816, Note_on_c, 1, 49, 75
1, 6816, Note_on_c, 1, 37, 75
1, 6905, Note_on_c, 1, 49, 0
1, 6905, Note_on_c, 1, 37, 0
1, 6912, Note_on_c, 1, 50, 75
1, 6912, Note_on_c, 1, 38, 75
1, 7001, Note_on_c, 1, 50, 0
1, 7001, Note_on_c, 1, 38, 0
1, 7008, Note_on_c, 1, 54, 75
1, 7008, Note_on_c, 1, 42, 75
1, 7097, Note_on_c, 1, 54, 0
1, 7097, Note_on_c, 1, 42, 0
1, 7104, Note_on_c, 1, 57, 75
1, 7104, Note_on_c, 1, 45, 75
1, 7193, Note_on_c, 1, 57, 0
1, 7193, Note_on_c, 1, 45, 0
1, 7200, Note_on_c, 0, 61, 73
1, 7200, Note_on_c, 1, 49, 73
1, 7289, Note_on_c, 0, 61, 0
1, 7289, Note_on_c, 1, 49, 0
1, 7296, Note_on_c, 0, 62, 71
1, 7296, Note_on_c, 1, 50, 71
1, 7385, Note_on_c, 0, 62, 0
1, 7385, Note_on_c, 1, 50, 0
1, 7392, Note_on_c, 0, 66, 69
1, 7392, Note_on_c, 1, 54, 69
1, 7481, Note_on_c, 0, 66, 0
1, 7481, Note_on_c, 1, 54, 0
1, 7488, Note_on_c, 0, 69, 67
1, 7488, Note_on_c, 1, 57, 67
1, 7621, Note_on_c, 0, 69, 0
1, 7621, Note_on_c, 1, 57, 0
1, 7632, Note_on_c, 0, 74, 80
1, 7632, Note_on_c, 1, 62, 80
1, 7680, Note_on_c, 0, 74, 0
1, 7680, Note_on_c, 0, 78, 64
1, 7680, Note_on_c, 1, 62, 0
1, 7680, Note_on_c, 1, 66, 64
1, 7725, Note_on_c, 0, 78, 0
1, 7725, Note_on_c, 1, 66, 0
1, 7728, Note_on_c, 0, 74, 64
1, 7728, Note_on_c, 1, 62, 64
1, 7773, Note_on_c, 0, 74, 0
1, 7773, Note_on_c, 1, 62, 0
1, 7776, Note_on_c, 0, 69, 64
1, 7776, Note_on_c, 1, 57, 64
1, 7865, Note_on_c, 0, 69, 0
1, 7865, Note_on_c, 1, 57, 0
1, 7968, Note_on_c, 0, 69, 81
1, 7968, Note_on_c, 0, 57, 81
1, 7968, Note_on_c, 1, 42, 81
1, 8057, Note_on_c, 0, 69, 0
1, 8057, Note_on_c, 0, 57, 0
1, 8064, Note_on_c, 0, 69, 70
1, 8064, Note_on_c, 0, 59, 70
1, 8064, Note_on_c, 1, 42, 0
1, 8064, Note_on_c, 1, 43, 70
1, 8153, Note_on_c, 1, 43, 0
1, 8160, Note_on_c, 1, 51, 70
1, 8256, Note_on_c, 1, 51, 0
1, 8256, Note_on_c, 1, 54, 70
1, 8345, Note_on_c, 1, 54, 0
1, 8352, Note_on_c, 0, 69, 0
1, 8352, Note_on_c, 0, 67, 64
1, 8352, Note_on_c, 1, 52, 64
1, 8441, Note_on_c, 1, 52, 0
1, 8448, Note_on_c, 1, 55, 64
1, 8529, Note_on_c, 0, 67, 0
1, 8529, Note_on_c, 0, 59, 0
1, 8537, Note_on_c, 1, 55, 0
1, 8544, Note_on_c, 0, 67, 81
1, 8544, Note_on_c, 0, 58, 81
1, 8544, Note_on_c, 1, 40, 81
1, 8633, Note_on_c, 0, 67, 0
1, 8633, Note_on_c, 0, 58, 0
1, 8640, Note_on_c, 0, 67, 64
1, 8640, Note_on_c, 0, 57, 64
1, 8640, Note_on_c, 1, 40, 0
1, 8640, Note_on_c, 1, 42, 64
1, 8729, Note_on_c, 1, 42, 0
1, 8736, Note_on_c, 1, 49, 64
1, 8832, Note_on_c, 1, 49, 0
1, 8832, Note_on_c, 1, 52, 64
1, 8921, Note_on_c, 1, 52, 0
1, 8928, Note_on_c, 0, 67, 0
1, 8928, Note_on_c, 0, 66, 64
1, 8928, Note_on_c, 1, 50, 64
1, 9024, Note_on_c, 1, 50, 0
1, 9024, Note_on_c, 1, 54, 64
1, 9105, Note_on_c, 0, 66, 0
1, 9105, Note_on_c, 0, 57, 0
1, 9113, Note_on_c, 1, 54, 0
1, 9120, Note_on_c, 0, 66, 81
1, 9120, Note_on_c, 0, 59, 81
1, 9120, Note_on_c, 1, 43, 81
1, 9209, Note_on_c, 1, 43, 0
1, 9216, Note_on_c, 0, 66, 0
1, 9216, Note_on_c, 0, 64, 64
1, 9216, Note_on_c, 1, 55, 64
1, 9305, Note_on_c, 1, 55, 0
1, 9312, Note_on_c, 0, 64, 0
1, 9312, Note_on_c, 0, 62, 64
1, 9312, Note_on_c, 1, 52, 64
1, 9401, Note_on_c, 0, 62, 0
1, 9401, Note_on_c, 0, 59, 0
1, 9401, Note_on_c, 1, 52, 0
1, 9408, Note_on_c, 0, 67, 81
1, 9408, Note_on_c, 0, 61, 81
1, 9408, Note_on_c, 1, 45, 81
1, 9497, Note_on_c, 1, 45, 0
1, 9504, Note_on_c, 0, 67, 0
1, 9504, Note_on_c, 0, 66, 64
1, 9504, Note_on_c, 1, 57, 64
1, 9593, Note_on_c, 1, 57, 0
1, 9600, Note_on_c, 0, 66, 0
1, 9600, Note_on_c, 0, 64, 64
1, 9600, Note_on_c, 1, 54, 64
1, 9689, Note_on_c, 0, 64, 0
1, 9689, Note_on_c, 0, 61, 0
1, 9689, Note_on_c, 1, 54, 0
1, 9696, Note_on_c, 0, 69, 81
1, 9696, Note_on_c, 0, 62, 81
1, 9696, Note_on_c, 1, 47, 81
1, 9785, Note_on_c, 1, 47, 0
1, 9792, Note_on_c, 0, 69, 0
1, 9792, Note_on_c, 0, 67, 64
1, 9792, Note_on_c, 1, 59, 64
1, 9881, Note_on_c, 1, 59, 0
1, 9888, Note_on_c, 0, 67, 0
1, 9888, Note_on_c, 0, 66, 64
1, 9888, Note_on_c, 1, 55, 64
1, 9977, Note_on_c, 0, 66, 0
1, 9977, Note_on_c, 0, 62, 0
1, 9977, Note_on_c, 1, 55, 0
1, 9984, Note_on_c, 0, 71, 81
1, 9984, Note_on_c, 0, 64, 81
1, 9984, Note_on_c, 1, 49, 81
1, 10073, Note_on_c, 0, 71, 0
1, 10073, Note_on_c, 0, 64, 0
1, 10073, Note_on_c, 1, 49, 0
1, 10080, Note_on_c, 0, 69, 64
1, 10080, Note_on_c, 0, 64, 64
1, 10080, Note_on_c, 1, 61, 64
1, 10169, Note_on_c, 1, 61, 0
1, 10176, Note_on_c, 0, 69, 0
1, 10176, Note_on_c, 0, 64, 0
1, 10176, Note_on_c, 0, 68, 67
1, 10176, Note_on_c, 0, 65, 67
1, 10176, Note_on_c, 1, 62, 67
1, 10265, Note_on_c, 0, 68, 0
1, 10265, Note_on_c, 0, 65, 0
1, 10265, Note_on_c, 1, 62, 0
1, 10272, Note_on_c, 0, 69, 70
1, 10272, Note_on_c, 0, 64, 70
1, 10272, Note_on_c, 1, 61, 70
1, 10361, Note_on_c, 0, 69, 0
1, 10361, Note_on_c, 0, 64, 0
1, 10361, Note_on_c, 1, 61, 0
1, 10368, Note_on_c, 0, 74, 73
1, 10368, Note_on_c, 0, 68, 73
1, 10368, Note_on_c, 1, 59, 73
1, 10464, Note_on_c, 0, 74, 0
1, 10464, Note_on_c, 0, 68, 0
1, 10464, Note_on_c, 0, 73, 76
1, 10464, Note_on_c, 0, 69, 76
1, 10464, Note_on_c, 1, 59, 0
1, 10464, Note_on_c, 1, 57, 76
1, 10553, Note_on_c, 0, 73, 0
1, 10553, Note_on_c, 0, 69, 0
1, 10553, Note_on_c, 1, 57, 0
1, 10560, Note_on_c, 0, 78, 97
1, 10560, Note_on_c, 1, 62, 97
1, 10560, Note_on_c, 1, 50, 97
1, 10649, Note_on_c, 0, 78, 0
1, 10649, Note_on_c, 1, 62, 0
1, 10649, Note_on_c, 1, 50, 0
1, 10656, Note_on_c, 0, 69, 80
1, 10656, Note_on_c, 1, 61, 80
1, 10656, Note_on_c, 1, 57, 80
1, 10833, Note_on_c, 0, 69, 0
1, 10833, Note_on_c, 1, 61, 0
1, 10833, Note_on_c, 1, 57, 0
1, 10848, Note_on_c, 0, 71, 77
1, 10848, Note_on_c, 1, 62, 77
1, 10893, Note_on_c, 0, 71, 0
1, 10896, Note_on_c, 0, 68, 76
1, 10937, Note_on_c, 1, 62, 0
1, 10941, Note_on_c, 0, 68, 0
1, 10944, Note_on_c, 0, 69, 76
1, 10944, Note_on_c, 0, 61, 76
1, 10944, Note_on_c, 1, 45, 76
1, 10944, Note_on_c, 1, 45, 64
1, 11033, Note_on_c, 0, 69, 0
1, 11033, Note_on_c, 0, 61, 0
1, 11033, Note_on_c, 1, 45, 0
1, 11040, Note_on_c, 1, 47, 75
1, 11129, Note_on_c, 1, 47, 0
1, 11136, Note_on_c, 0, 76, 92
1, 11136, Note_on_c, 0, 67, 92
1, 11136, Note_on_c, 1, 49, 92
1, 11225, Note_on_c, 1, 49, 0
1, 11232, Note_on_c, 0, 67, 0
1, 11232, Note_on_c, 0, 65, 75
1, 11232, Note_on_c, 1, 50, 75
1, 11321, Note_on_c, 0, 76, 0
1, 11321, Note_on_c, 0, 65, 0
1, 11328, Note_on_c, 0, 74, 75
1, 11328, Note_on_c, 0, 66, 75
1, 11409, Note_on_c, 1, 50, 0
1, 11417, Note_on_c, 0, 74, 0
1, 11417, Note_on_c, 0, 66, 0
1, 11424, Note_on_c, 0, 73, 75
1, 11424, Note_on_c, 0, 64, 75
1, 11424, Note_on_c, 1, 52, 75
1, 11513, Note_on_c, 0, 73, 0
1, 11513, Note_on_c, 0, 64, 0
1, 11513, Note_on_c, 1, 52, 0
1, 11520, Note_on_c, 0, 71, 75
1, 11520, Note_on_c, 0, 62, 75
1, 11520, Note_on_c, 1, 53, 75
1, 11609, Note_on_c, 0, 71, 0
1, 11609, Note_on_c, 0, 62, 0
1, 11609, Note_on_c, 1, 53, 0
1, 11616, Note_on_c, 0, 69, 75
1, 11616, Note_on_c, 0, 61, 75
1, 11616, Note_on_c, 1, 52, 75
1, 11705, Note_on_c, 0, 69, 0
1, 11705, Note_on_c, 0, 61, 0
1, 11705, Note_on_c, 1, 52, 0
1, 11712, Note_on_c, 0, 68, 75
1, 11712, Note_on_c, 0, 59, 75
1, 11712, Note_on_c, 1, 50, 75
1, 11785, Note_on_c, 1, 45, 0
1, 11801, Note_on_c, 0, 68, 0
1, 11801, Note_on_c, 0, 59, 0
1, 11801, Note_on_c, 1, 50, 0
1, 11808, Note_on_c, 0, 69, 92
1, 11808, Note_on_c, 0, 57, 92
1, 11808, Note_on_c, 1, 49, 92
1, 11808, Note_on_c, 1, 45, 64
1, 11897, Note_on_c, 0, 69, 0
1, 11897, Note_on_c, 0, 57, 0
1, 11897, Note_on_c, 1, 49, 0
1, 11904, Note_on_c, 0, 68, 75
1, 11904, Note_on_c, 0, 59, 75
1, 11904, Note_on_c, 1, 50, 75
1, 11993, Note_on_c, 0, 68, 0
1, 11993, Note_on_c, 0, 59, 0
1, 11993, Note_on_c, 1, 50, 0
1, 12000, Note_on_c, 0, 69, 75
1, 12000, Note_on_c, 0, 61, 75
1, 12000, Note_on_c, 1, 52, 75
1, 12089, Note_on_c, 0, 69, 0
1, 12089, Note_on_c, 0, 61, 0
1, 12089, Note_on_c, 1, 52, 0
1, 12096, Note_on_c, 0, 71, 75
1, 12096, Note_on_c, 0, 62, 75
1, 12096, Note_on_c, 1, 53, 75
1, 12185, Note_on_c, 0, 71, 0
1, 12185, Note_on_c, 0, 62, 0
1, 12185, Note_on_c, 1, 53, 0
1, 12192, Note_on_c, 0, 69, 75
1, 12192, Note_on_c, 0, 61, 75
1, 12192, Note_on_c, 1, 52, 75
1, 12281, Note_on_c, 0, 69, 0
1, 12281, Note_on_c, 0, 61, 0
1, 12281, Note_on_c, 1, 52, 0
1, 12288, Note_on_c, 0, 68, 75
1, 12288, Note_on_c, 0, 59, 75
1, 12288, Note_on_c, 1, 50, 75
1, 12361, Note_on_c, 1, 45, 0
1, 12377, Note_on_c, 0, 68, 0
1, 12377, Note_on_c, 0, 59, 0
1, 12377, Note_on_c, 1, 50, 0
1, 12384, Note_on_c, 0, 69, 92
1, 12384, Note_on_c, 0, 57, 92
1, 12384, Note_on_c, 1, 49, 92
1, 12384, Note_on_c, 1, 45, 64
1, 12473, Note_on_c, 0, 69, 0
1, 12473, Note_on_c, 0, 57, 0
1, 12473, Note_on_c, 1, 49, 0
1, 12480, Note_on_c, 0, 68, 64
1, 12480, Note_on_c, 0, 59, 64
1, 12480, Note_on_c, 1, 50, 64
1, 12569, Note_on_c, 0, 68, 0
1, 12569, Note_on_c, 0, 59, 0
1, 12569, Note_on_c, 1, 50, 0
1, 12576, Note_on_c, 0, 69, 64
1, 12576, Note_on_c, 0, 61, 64
1, 12576, Note_on_c, 1, 52, 64
1, 12665, Note_on_c, 0, 69, 0
1, 12665, Note_on_c, 0, 61, 0
1, 12665, Note_on_c, 1, 52, 0
1, 12672, Note_on_c, 0, 71, 64
1, 12672, Note_on_c, 0, 62, 64
1, 12672, Note_on_c, 1, 53, 64
1, 12761, Note_on_c, 0, 71, 0
1, 12761, Note_on_c, 0, 62, 0
1, 12761, Note_on_c, 1, 53, 0
1, 12768, Note_on_c, 0, 69, 64
1, 12768, Note_on_c, 0, 61, 64
1, 12768, Note_on_c, 1, 52, 64
1, 12857, Note_on_c, 0, 69, 0
1, 12857, Note_on_c, 0, 61, 0
1, 12857, Note_on_c, 1, 52, 0
1, 12864, Note_on_c, 0, 68, 64
1, 12864, Note_on_c, 0, 59, 64
1, 12864, Note_on_c, 1, 50, 64
1, 12953, Note_on_c, 0, 68, 0
1, 12953, Note_on_c, 0, 59, 0
1, 12953, Note_on_c, 1, 50, 0
1, 12960, Note_on_c, 0, 69, 81
1, 12960, Note_on_c, 0, 57, 81
1, 12960, Note_on_c, 1, 49, 81
1, 13049, Note_on_c, 0, 69, 0
1, 13049, Note_on_c, 0, 57, 0
1, 13049, Note_on_c, 1, 49, 0
1, 13049, Note_on_c, 1, 45, 0
1, 13056, Note_on_c, 0, 69, 58
1, 13056, Note_on_c, 0, 61, 58
1, 13056, Note_on_c, 1, 37, 58
1, 13145, Note_on_c, 0, 69, 0
1, 13145, Note_on_c, 0, 61, 0
1, 13145, Note_on_c, 1, 37, 0
1, 13152, Note_on_c, 0, 69, 58
1, 13152, Note_on_c, 0, 61, 58
1, 13152, Note_on_c, 1, 40, 58
1, 13241, Note_on_c, 0, 69, 0
1, 13241, Note_on_c, 0, 61, 0
1, 13241, Note_on_c, 1, 40, 0
1, 13248, Note_on_c, 0, 69, 58
1, 13248, Note_on_c, 0, 61, 58
1, 13248, Note_on_c, 1, 33, 58
1, 13425, Note_on_c, 0, 69, 0
1, 13425, Note_on_c, 0, 61, 0
1, 13425, Note_on_c, 1, 33, 0
1, 13440, Note_on_c, 0, 67, 64
1, 13440, Note_on_c, 1, 62, 64
1, 13440, Note_on_c, 1, 59, 64
1, 13529, Note_on_c, 0, 67, 0
1, 13529, Note_on_c, 1, 62, 0
1, 13529, Note_on_c, 1, 59, 0
1, 13536, Note_on_c, 0, 66, 64
1, 13536, Note_on_c, 1, 61, 64
1, 13536, Note_on_c, 1, 58, 64
1, 13625, Note_on_c, 0, 66, 0
1, 13632, Note_on_c, 0, 65, 64
1, 13713, Note_on_c, 1, 61, 0
1, 13713, Note_on_c, 1, 58, 0
1, 13721, Note_on_c, 0, 65, 0
1, 13728, Note_on_c, 0, 66, 64
1, 13728, Note_on_c, 1, 58, 64
1, 13728, Note_on_c, 1, 54, 64
1, 13817, Note_on_c, 0, 66, 0
1, 13817, Note_on_c, 1, 58, 0
1, 13817, Note_on_c, 1, 54, 0
1, 13824, Note_on_c, 0, 64, 64
1, 13824, Note_on_c, 1, 59, 64
1, 13824, Note_on_c, 1, 55, 64
1, 13920, Note_on_c, 0, 64, 0
1, 13920, Note_on_c, 0, 62, 64
1, 14001, Note_on_c, 1, 59, 0
1, 14009, Note_on_c, 0, 62, 0
1, 14016, Note_on_c, 0, 74, 64
1, 14016, Note_on_c, 1, 61, 64
1, 14105, Note_on_c, 0, 74, 0
1, 14105, Note_on_c, 1, 61, 0
1, 14112, Note_on_c, 0, 73, 64
1, 14112, Note_on_c, 1, 62, 64
1, 14201, Note_on_c, 0, 73, 0
1, 14208, Note_on_c, 0, 71, 64
1, 14289, Note_on_c, 1, 62, 0
1, 14289, Note_on_c, 1, 55, 0
1, 14297, Note_on_c, 0, 71, 0
1, 14304, Note_on_c, 0, 69, 64
1, 14304, Note_on_c, 1, 61, 64
1, 14393, Note_on_c, 0, 69, 0
1, 14393, Note_on_c, 1, 61, 0
1, 14400, Note_on_c, 0, 67, 64
1, 14400, Note_on_c, 1, 59, 64
1, 14400, Note_on_c, 1, 55, 64
1, 14489, Note_on_c, 0, 67, 0
1, 14496, Note_on_c, 0, 66, 64
1, 14577, Note_on_c, 1, 59, 0
1, 14577, Note_on_c, 1, 55, 0
1, 14585, Note_on_c, 0, 66, 0
1, 14592, Note_on_c, 0, 65, 81
1, 14592, Note_on_c, 1, 59, 81
1, 14592, Note_on_c, 1, 55, 81
1, 14681, Note_on_c, 0, 65, 0
1, 14681, Note_on_c, 1, 59, 0
1, 14681, Note_on_c, 1, 55, 0
1, 14688, Note_on_c, 0, 66, 64
1, 14688, Note_on_c, 1, 61, 64
1, 14688, Note_on_c, 1, 58, 64
1, 14688, Note_on_c, 1, 54, 64
1, 14777, Note_on_c, 0, 66, 0
1, 14784, Note_on_c, 0, 70, 66
1, 14873, Note_on_c, 0, 70, 0
1, 14880, Note_on_c, 0, 73, 68
1, 14969, Note_on_c, 0, 73, 0
1, 14976, Note_on_c, 0, 77, 70
1, 15072, Note_on_c, 0, 77, 0
1, 15072, Note_on_c, 0, 78, 72
1, 15153, Note_on_c, 1, 61, 0
1, 15153, Note_on_c, 1, 58, 0
1, 15153, Note_on_c, 1, 54, 0
1, 15161, Note_on_c, 0, 78, 0
1, 15168, Note_on_c, 0, 70, 75
1, 15168, Note_on_c, 1, 61, 92
1, 15168, Note_on_c, 1, 54, 92
1, 15168, Note_on_c, 1, 52, 92
1, 15257, Note_on_c, 0, 70, 0
1, 15257, Note_on_c, 1, 61, 0
1, 15257, Note_on_c, 1, 54, 0
1, 15257, Note_on_c, 1, 52, 0
1, 15264, Note_on_c, 0, 71, 75
1, 15264, Note_on_c, 1, 59, 75
1, 15264, Note_on_c, 1, 54, 75
1, 15264, Note_on_c, 1, 50, 75
1, 15353, Note_on_c, 0, 71, 0
1, 15360, Note_on_c, 0, 74, 75
1, 15449, Note_on_c, 0, 74, 0
1, 15456, Note_on_c, 0, 78, 75
1, 15545, Note_on_c, 0, 78, 0
1, 15552, Note_on_c, 0, 82, 75
1, 15648, Note_on_c, 0, 82, 0
1, 15648, Note_on_c, 0, 83, 75
1, 15729, Note_on_c, 1, 59, 0
1, 15729, Note_on_c, 1, 54, 0
1, 15729, Note_on_c, 1, 50, 0
1, 15737, Note_on_c, 0, 83, 0
1, 15744, Note_on_c, 0, 81, 91
1, 15744, Note_on_c, 0, 72, 91
1, 15744, Note_on_c, 1, 63, 75
1, 15833, Note_on_c, 1, 63, 0
1, 15840, Tempo, 222222
1, 15840, Note_on_c, 0, 81, 0
1, 15840, Note_on_c, 0, 72, 0
1, 15840, Note_on_c, 0, 79, 76
1, 15840, Note_on_c, 0, 71, 76
1, 15840, Note_on_c, 1, 64, 76
1, 15929, Note_on_c, 0, 79, 0
1, 15929, Note_on_c, 0, 71, 0
1, 15929, Note_on_c, 1, 64, 0
1, 15936, Note_on_c, 0, 83, 93
1, 15936, Note_on_c, 0, 74, 93
1, 15936, Note_on_c, 1, 65, 77
1, 16025, Note_on_c, 1, 65, 0
1, 16032, Tempo, 229885
1, 16032, Note_on_c, 0, 83, 0
1, 16032, Note_on_c, 0, 74, 0
1, 16032, Note_on_c, 0, 82, 78
1, 16032, Note_on_c, 0, 73, 78
1, 16032, Note_on_c, 1, 66, 78
1, 16121, Note_on_c, 0, 82, 0
1, 16121, Note_on_c, 0, 73, 0
1, 16121, Note_on_c, 1, 66, 0
1, 16128, Tempo, 240963
1, 16128, Note_on_c, 0, 85, 79
1, 16128, Note_on_c, 0, 76, 79
1, 16128, Note_on_c, 1, 67, 79
1, 16217, Note_on_c, 0, 85, 0
1, 16217, Note_on_c, 0, 76, 0
1, 16217, Note_on_c, 1, 67, 0
1, 16224, Tempo, 1000000
1, 16224, Note_on_c, 0, 86, 97
1, 16224, Note_on_c, 0, 77, 97
1, 16224, Note_on_c, 1, 68, 97
1, 16313, Note_on_c, 0, 86, 0
1, 16313, Note_on_c, 0, 77, 0
1, 16313, Note_on_c, 1, 68, 0
1, 16320, Tempo, 208333
1, 16320, Note_on_c, 0, 74, 64
1, 16320, Note_on_c, 0, 71, 64
1, 16320, Note_on_c, 1, 53, 97
1, 16409, Note_on_c, 1, 53, 0
1, 16416, Note_on_c, 1, 54, 80
1, 16505, Note_on_c, 0, 74, 0
1, 16505, Note_on_c, 0, 71, 0
1, 16512, Note_on_c, 0, 76, 64
1, 16512, Note_on_c, 0, 73, 64
1, 16593, Note_on_c, 1, 54, 0
1, 16601, Note_on_c, 0, 76, 0
1, 16601, Note_on_c, 0, 73, 0
1, 16608, Note_on_c, 0, 70, 81
1, 16608, Note_on_c, 0, 64, 81
1, 16608, Note_on_c, 1, 42, 97
1, 16697, Note_on_c, 0, 70, 0
1, 16697, Note_on_c, 0, 64, 0
1, 16697, Note_on_c, 1, 42, 0
1, 16704, Note_on_c, 0, 71, 64
1, 16704, Note_on_c, 0, 62, 64
1, 16704, Note_on_c, 1, 43, 80
1, 16793, Note_on_c, 1, 43, 0
1, 16800, Note_on_c, 1, 47, 80
1, 16889, Note_on_c, 1, 47, 0
1, 16896, Note_on_c, 1, 50, 80
1, 16985, Note_on_c, 1, 50, 0
1, 16992, Note_on_c, 1, 54, 80
1, 17088, Note_on_c, 1, 54, 0
1, 17088, Note_on_c, 1, 55, 80
1, 17169, Note_on_c, 0, 71, 0
1, 17169, Note_on_c, 0, 62, 0
1, 17177, Note_on_c, 1, 55, 0
1, 17184, Note_on_c, 0, 69, 81
1, 17184, Note_on_c, 0, 66, 81
1, 17184, Note_on_c, 1, 39, 97
1, 17273, Note_on_c, 0, 69, 0
1, 17273, Note_on_c, 0, 66, 0
1, 17273, Note_on_c, 1, 39, 0
1, 17280, Note_on_c, 0, 67, 64
1, 17280, Note_on_c, 0, 66, 64
1, 17280, Note_on_c, 1, 40, 80
1, 17369, Note_on_c, 1, 40, 0
1, 17376, Note_on_c, 1, 43, 81
1, 17465, Note_on_c, 1, 43, 0
1, 17472, Note_on_c, 1, 47, 83
1, 17561, Note_on_c, 1, 47, 0
1, 17568, Note_on_c, 0, 66, 0
1, 17568, Note_on_c, 0, 64, 67
1, 17568, Note_on_c, 1, 51, 84
1, 17664, Note_on_c, 1, 51, 0
1, 17664, Note_on_c, 1, 52, 86
1, 17745, Note_on_c, 0, 67, 0
1, 17745, Note_on_c, 0, 64, 0
1, 17753, Note_on_c, 1, 52, 0
1, 17760, Note_on_c, 0, 68, 87
1, 17760, Note_on_c, 1, 53, 103
1, 17760, Note_on_c, 1, 50, 103
1, 17849, Note_on_c, 0, 68, 0
1, 17849, Note_on_c, 1, 53, 0
1, 17849, Note_on_c, 1, 50, 0
1, 17856, Note_on_c, 0, 69, 70
1, 17856, Note_on_c, 1, 52, 86
1, 17856, Note_on_c, 1, 49, 86
1, 17945, Note_on_c, 0, 69, 0
1, 17952, Note_on_c, 0, 73, 71
1, 18041, Note_on_c, 0, 73, 0
1, 18048, Note_on_c, 0, 76, 72
1, 18137, Note_on_c, 0, 76, 0
1, 18144, Note_on_c, 0, 80, 73
1, 18233, Note_on_c, 0, 80, 0
1, 18240, Note_on_c, 0, 81, 75
1, 18329, Note_on_c, 0, 81, 0
1, 18336, Note_on_c, 0, 83, 92
1, 18409, Note_on_c, 1, 52, 0
1, 18409, Note_on_c, 1, 49, 0
1, 18425, Note_on_c, 0, 83, 0
1, 18432, Note_on_c, 0, 79, 80
1, 18432, Note_on_c, 1, 57, 80
1, 18432, Note_on_c, 1, 55, 80
1, 18432, Note_on_c, 1, 52, 80
1, 18432, Note_on_c, 1, 49, 80
1, 18521, Note_on_c, 0, 79, 0
1, 18528, Note_on_c, 0, 76, 80
1, 18617, Note_on_c, 0, 76, 0
1, 18624, Note_on_c, 0, 79, 96
1, 18672, Note_on_c, 0, 79, 0
1, 18672, Note_on_c, 0, 76, 80
1, 18717, Note_on_c, 0, 76, 0
1, 18720, Note_on_c, 0, 73, 80
1, 18765, Note_on_c, 0, 73, 0
1, 18768, Note_on_c, 0, 76, 80
1, 18813, Note_on_c, 0, 76, 0
1, 18816, Note_on_c, 0, 73, 80
1, 18861, Note_on_c, 0, 73, 0
1, 18864, Note_on_c, 0, 67, 80
1, 18909, Note_on_c, 0, 67, 0
1, 18912, Note_on_c, 0, 73, 96
1, 18960, Note_on_c, 0, 73, 0
1, 18960, Note_on_c, 0, 67, 80
1, 19005, Note_on_c, 0, 67, 0
1, 19008, Note_on_c, 0, 64, 80
1, 19053, Note_on_c, 0, 64, 0
1, 19056, Note_on_c, 0, 67, 80
1, 19101, Note_on_c, 0, 67, 0
1, 19104, Note_on_c, 0, 64, 80
1, 19149, Note_on_c, 0, 64, 0
1, 19152, Note_on_c, 0, 61, 80
1, 19197, Note_on_c, 0, 61, 0
1, 19200, Note_on_c, 0, 64, 96
1, 19248, Note_on_c, 0, 64, 0
1, 19248, Note_on_c, 0, 61, 80
1, 19273, Note_on_c, 1, 57, 0
1, 19273, Note_on_c, 1, 55, 0
1, 19273, Note_on_c, 1, 52, 0
1, 19273, Note_on_c, 1, 49, 0
1, 19293, Note_on_c, 0, 61, 0
1, 19296, Note_on_c, 1, 55, 80
1, 19341, Note_on_c, 1, 55, 0
1, 19344, Note_on_c, 1, 61, 80
1, 19389, Note_on_c, 1, 61, 0
1, 19392, Note_on_c, 1, 55, 80
1, 19437, Note_on_c, 1, 55, 0
1, 19440, Note_on_c, 1, 52, 80
1, 19485, Note_on_c, 1, 52, 0
1, 19488, Note_on_c, 1, 55, 113
1, 19488, Note_on_c, 1, 43, 113
1, 19536, Note_on_c, 1, 55, 0
1, 19536, Note_on_c, 1, 43, 0
1, 19536, Note_on_c, 1, 52, 80
1, 19536, Note_on_c, 1, 40, 80
1, 19581, Note_on_c, 1, 52, 0
1, 19581, Note_on_c, 1, 40, 0
1, 19584, Note_on_c, 1, 49, 80
1, 19584, Note_on_c, 1, 37, 80
1, 19629, Note_on_c, 1, 49, 0
1, 19629, Note_on_c, 1, 37, 0
1, 19632, Note_on_c, 1, 52, 80
1, 19632, Note_on_c, 1, 40, 80
1, 19677, Note_on_c, 1, 52, 0
1, 19677, Note_on_c, 1, 40, 0
1, 19680, Note_on_c, 1, 49, 80
1, 19680, Note_on_c, 1, 37, 80
1, 19725, Note_on_c, 1, 49, 0
1, 19725, Note_on_c, 1, 37, 0
1, 19728, Note_on_c, 1, 45, 80
1, 19728, Note_on_c, 1, 33, 80
1, 19773, Note_on_c, 1, 45, 0
1, 19773, Note_on_c, 1, 33, 0
1, 19776, Note_on_c, 1, 47, 80
1, 19776, Note_on_c, 1, 35, 80
1, 19821, Note_on_c, 1, 47, 0
1, 19821, Note_on_c, 1, 35, 0
1, 19824, Note_on_c, 1, 49, 80
1, 19824, Note_on_c, 1, 37, 80
1, 19869, Note_on_c, 1, 49, 0
1, 19869, Note_on_c, 1, 37, 0
1, 19872, Note_on_c, 1, 50, 75
1, 19872, Note_on_c, 1, 38, 75
1, 19961, Note_on_c, 1, 50, 0
1, 19961, Note_on_c, 1, 38, 0
1, 19968, Note_on_c, 1, 54, 75
1, 19968, Note_on_c, 1, 42, 75
1, 20057, Note_on_c, 1, 54, 0
1, 20057, Note_on_c, 1, 42, 0
1, 20064, Note_on_c, 1, 57, 75
1, 20064, Note_on_c, 1, 45, 75
1, 20153, Note_on_c, 1, 57, 0
1, 20153, Note_on_c, 1, 45, 0
1, 20160, Note_on_c, 0, 61, 73
1, 20160, Note_on_c, 1, 49, 73
1, 20249, Note_on_c, 0, 61, 0
1, 20249, Note_on_c, 1, 49, 0
1, 20256, Note_on_c, 0, 62, 71
1, 20256, Note_on_c, 1, 50, 71
1, 20345, Note_on_c, 0, 62, 0
1, 20345, Note_on_c, 1, 50, 0
1, 20352, Note_on_c, 0, 66, 69
1, 20352, Note_on_c, 1, 54, 69
1, 20441, Note_on_c, 0, 66, 0
1, 20441, Note_on_c, 1, 54, 0
1, 20448, Note_on_c, 0, 69, 67
1, 20448, Note_on_c, 1, 57, 67
1, 20581, Note_on_c, 0, 69, 0
1, 20581, Note_on_c, 1, 57, 0
1, 20592, Note_on_c, 0, 74, 80
1, 20592, Note_on_c, 1, 62, 80
1, 20640, Note_on_c, 0, 74, 0
1, 20640, Note_on_c, 0, 78, 64
1, 20640, Note_on_c, 1, 62, 0
1, 20640, Note_on_c, 1, 66, 64
1, 20685, Note_on_c, 0, 78, 0
1, 20685, Note_on_c, 1, 66, 0
1, 20688, Note_on_c, 0, 74, 64
1, 20688, Note_on_c, 1, 62, 64
1, 20733, Note_on_c, 0, 74, 0
1, 20733, Note_on_c, 1, 62, 0
1, 20736, Note_on_c, 0, 69, 64
1, 20736, Note_on_c, 1, 57, 64
1, 20825, Note_on_c, 0, 69, 0
1, 20825, Note_on_c, 1, 57, 0
1, 20928, Note_on_c, 0, 69, 81
1, 20928, Note_on_c, 0, 57, 81
1, 20928, Note_on_c, 1, 42, 81
1, 21017, Note_on_c, 0, 69, 0
1, 21017, Note_on_c, 0, 57, 0
1, 21024, Note_on_c, 0, 69, 70
1, 21024, Note_on_c, 0, 59, 70
1, 21024, Note_on_c, 1, 42, 0
1, 21024, Note_on_c, 1, 43, 70
1, 21113, Note_on_c, 1, 43, 0
1, 21120, Note_on_c, 1, 51, 70
1, 21216, Note_on_c, 1, 51, 0
1, 21216, Note_on_c, 1, 54, 70
1, 21305, Note_on_c, 1, 54, 0
1, 21312, Note_on_c, 0, 69, 0
1, 21312, Note_on_c, 0, 67, 64
1, 21312, Note_on_c, 1, 52, 64
1, 21401, Note_on_c, 1, 52, 0
1, 21408, Note_on_c, 1, 55, 64
1, 21489, Note_on_c, 0, 67, 0
1, 21489, Note_on_c, 0, 59, 0
1, 21497, Note_on_c, 1, 55, 0
1, 21504, Note_on_c, 0, 67, 81
1, 21504, Note_on_c, 0, 58, 81
1, 21504, Note_on_c, 1, 40, 81
1, 21593, Note_on_c, 0, 67, 0
1, 21593, Note_on_c, 0, 58, 0
1, 21600, Note_on_c, 0, 67, 64
1, 21600, Note_on_c, 0, 57, 64
1, 21600, Note_on_c, 1, 40, 0
1, 21600, Note_on_c, 1, 42, 64
1, 21689, Note_on_c, 1, 42, 0
1, 21696, Note_on_c, 1, 49, 64
1, 21792, Note_on_c, 1, 49, 0
1, 21792, Note_on_c, 1, 52, 64
1, 21881, Note_on_c, 1, 52, 0
1, 21888, Note_on_c, 0, 67, 0
1, 21888, Note_on_c, 0, 66, 64
1, 21888, Note_on_c, 1, 50, 64
1, 21984, Note_on_c, 1, 50, 0
1, 21984, Note_on_c, 1, 54, 64
1, 22065, Note_on_c, 0, 66, 0
1, 22065, Note_on_c, 0, 57, 0
1, 22073, Note_on_c, 1, 54, 0
1, 22080, Note_on_c, 0, 66, 81
1, 22080, Note_on_c, 0, 59, 81
1, 22080, Note_on_c, 1, 43, 81
1, 22169, Note_on_c, 1, 43, 0
1, 22176, Note_on_c, 0, 66, 0
1, 22176, Note_on_c, 0, 64, 64
1, 22176, Note_on_c, 1, 55, 64
1, 22265, Note_on_c, 1, 55, 0
1, 22272, Note_on_c, 0, 64, 0
1, 22272, Note_on_c, 0, 62, 64
1, 22272, Note_on_c, 1, 52, 64
1, 22361, Note_on_c, 0, 62, 0
1, 22361, Note_on_c, 0, 59, 0
1, 22361, Note_on_c, 1, 52, 0
1, 22368, Note_on_c, 0, 67, 81
1, 22368, Note_on_c, 0, 61, 81
1, 22368, Note_on_c, 1, 45, 81
1, 22457, Note_on_c, 1, 45, 0
1, 22464, Note_on_c, 0, 67, 0
1, 22464, Note_on_c, 0, 66, 64
1, 22464, Note_on_c, 1, 57, 64
1, 22553, Note_on_c, 1, 57, 0
1, 22560, Note_on_c, 0, 66, 0
1, 22560, Note_on_c, 0, 64, 64
1, 22560, Note_on_c, 1, 54, 64
1, 22649, Note_on_c, 0, 64, 0
1, 22649, Note_on_c, 0, 61, 0
1, 22649, Note_on_c, 1, 54, 0
1, 22656, Note_on_c, 0, 69, 81
1, 22656, Note_on_c, 0, 62, 81
1, 22656, Note_on_c, 1, 47, 81
1, 22745, Note_on_c, 1, 47, 0
1, 22752, Note_on_c, 0, 69, 0
1, 22752, Note_on_c, 0, 67, 64
1, 22752, Note_on_c, 1, 59, 64
1, 22841, Note_on_c, 1, 59, 0
1, 22848, Note_on_c, 0, 67, 0
1, 22848, Note_on_c, 0, 66, 64
1, 22848, Note_on_c, 1, 55, 64
1, 22937, Note_on_c, 0, 66, 0
1, 22937, Note_on_c, 0, 62, 0
1, 22937, Note_on_c, 1, 55, 0
1, 22944, Note_on_c, 0, 71, 81
1, 22944, Note_on_c, 0, 64, 81
1, 22944, Note_on_c, 1, 49, 81
1, 23033, Note_on_c, 0, 71, 0
1, 23033, Note_on_c, 0, 64, 0
1, 23033, Note_on_c, 1, 49, 0
1, 23040, Note_on_c, 0, 69, 64
1, 23040, Note_on_c, 0, 64, 64
1, 23040, Note_on_c, 1, 61, 64
1, 23129, Note_on_c, 1, 61, 0
1, 23136, Note_on_c, 0, 69, 0
1, 23136, Note_on_c, 0, 64, 0
1, 23136, Note_on_c, 0, 68, 67
1, 23136, Note_on_c, 0, 65, 67
1, 23136, Note_on_c, 1, 62, 67
1, 23225, Note_on_c, 0, 68, 0
1, 23225, Note_on_c, 0, 65, 0
1, 23225, Note_on_c, 1, 62, 0
1, 23232, Note_on_c, 0, 69, 70
1, 23232, Note_on_c, 0, 64, 70
1, 23232, Note_on_c, 1, 61, 70
1, 23321, Note_on_c, 0, 69, 0
1, 23321, Note_on_c, 0, 64, 0
1, 23321, Note_on_c, 1, 61, 0
1, 23328, Note_on_c, 0, 74, 73
1, 23328, Note_on_c, 0, 68, 73
1, 23328, Note_on_c, 1, 59, 73
1, 23424, Note_on_c, 0, 74, 0
1, 23424, Note_on_c, 0, 68, 0
1, 23424, Note_on_c, 0, 73, 76
1, 23424, Note_on_c, 0, 69, 76
1, 23424, Note_on_c, 1, 59, 0
1, 23424, Note_on_c, 1, 57, 76
1, 23513, Note_on_c, 0, 73, 0
1, 23513, Note_on_c, 0, 69, 0
1, 23513, Note_on_c, 1, 57, 0
1, 23520, Note_on_c, 0, 76, 97
1, 23520, Note_on_c, 0, 71, 97
1, 23520, Note_on_c, 1, 67, 97
1, 23609, Note_on_c, 0, 76, 0
1, 23609, Note_on_c, 0, 71, 0
1, 23609, Note_on_c, 1, 67, 0
1, 23616, Note_on_c, 0, 74, 75
1, 23616, Note_on_c, 0, 69, 75
1, 23616, Note_on_c, 1, 66, 75
1, 23705, Note_on_c, 0, 74, 0
1, 23705, Note_on_c, 0, 69, 0
1, 23705, Note_on_c, 1, 66, 0
1, 23712, Note_on_c, 0, 73, 75
1, 23712, Note_on_c, 0, 70, 75
1, 23712, Note_on_c, 1, 67, 75
1, 23801, Note_on_c, 0, 73, 0
1, 23801, Note_on_c, 0, 70, 0
1, 23801, Note_on_c, 1, 67, 0
1, 23808, Note_on_c, 0, 74, 75
1, 23808, Note_on_c, 0, 69, 75
1, 23808, Note_on_c, 1, 66, 75
1, 23897, Note_on_c, 0, 74, 0
1, 23897, Note_on_c, 0, 69, 0
1, 23897, Note_on_c, 1, 66, 0
1, 23904, Note_on_c, 0, 79, 75
1, 23904, Note_on_c, 0, 73, 75
1, 23904, Note_on_c, 1, 64, 75
1, 23993, Note_on_c, 0, 79, 0
1, 23993, Note_on_c, 0, 73, 0
1, 24000, Note_on_c, 0, 78, 75
1, 24000, Note_on_c, 0, 74, 75
1, 24000, Note_on_c, 1, 64, 0
1, 24000, Note_on_c, 1, 62, 75
1, 24089, Note_on_c, 0, 78, 0
1, 24089, Note_on_c, 0, 74, 0
1, 24089, Note_on_c, 1, 62, 0
1, 24096, Note_on_c, 0, 81, 92
1, 24096, Note_on_c, 0, 69, 92
1, 24096, Note_on_c, 1, 54, 92
1, 24185, Note_on_c, 0, 81, 0
1, 24185, Note_on_c, 0, 69, 0
1, 24185, Note_on_c, 1, 54, 0
1, 24192, Note_on_c, 0, 81, 75
1, 24192, Note_on_c, 0, 71, 64
1, 24192, Note_on_c, 1, 55, 75
1, 24281, Note_on_c, 1, 55, 0
1, 24288, Note_on_c, 1, 59, 75
1, 24377, Note_on_c, 1, 59, 0
1, 24384, Note_on_c, 1, 63, 75
1, 24457, Note_on_c, 0, 81, 0
1, 24473, Note_on_c, 1, 63, 0
1, 24480, Note_on_c, 0, 79, 80
1, 24480, Note_on_c, 1, 64, 80
1, 24569, Note_on_c, 0, 79, 0
1, 24569, Note_on_c, 1, 64, 0
1, 24576, Note_on_c, 0, 76, 76
1, 24576, Note_on_c, 1, 67, 76
1, 24665, Note_on_c, 0, 76, 0
1, 24665, Note_on_c, 1, 67, 0
1, 24672, Note_on_c, 0, 74, 73
1, 24672, Note_on_c, 1, 68, 73
1, 24745, Note_on_c, 0, 71, 0
1, 24761, Note_on_c, 0, 74, 0
1, 24761, Note_on_c, 1, 68, 0
1, 24768, Note_on_c, 0, 73, 70
1, 24768, Note_on_c, 1, 69, 70
1, 24857, Note_on_c, 0, 73, 0
1, 24857, Note_on_c, 1, 69, 0
1, 24864, Note_on_c, 0, 79, 71
1, 24864, Note_on_c, 0, 76, 71
1, 24864, Note_on_c, 1, 57, 71
1, 24953, Note_on_c, 0, 79, 0
1, 24953, Note_on_c, 0, 76, 0
1, 24953, Note_on_c, 1, 57, 0
1, 24960, Note_on_c, 0, 78, 72
1, 24960, Note_on_c, 0, 74, 72
1, 24960, Note_on_c, 1, 69, 72
1, 25049, Note_on_c, 0, 78, 0
1, 25049, Note_on_c, 0, 74, 0
1, 25056, Note_on_c, 0, 76, 74
1, 25056, Note_on_c, 0, 73, 74
1, 25145, Note_on_c, 0, 76, 0
1, 25145, Note_on_c, 0, 73, 0
1, 25145, Note_on_c, 1, 69, 0
1, 25152, Note_on_c, 0, 81, 75
1, 25152, Note_on_c, 0, 78, 75
1, 25152, Note_on_c, 1, 57, 75
1, 25241, Note_on_c, 0, 81, 0
1, 25241, Note_on_c, 0, 78, 0
1, 25241, Note_on_c, 1, 57, 0
1, 25248, Note_on_c, 0, 79, 77
1, 25248, Note_on_c, 0, 76, 77
1, 25248, Note_on_c, 1, 69, 77
1, 25337, Note_on_c, 0, 79, 0
1, 25337, Note_on_c, 0, 76, 0
1, 25344, Note_on_c, 0, 78, 78
1, 25344, Note_on_c, 0, 74, 78
1, 25433, Note_on_c, 0, 78, 0
1, 25433, Note_on_c, 0, 74, 0
1, 25433, Note_on_c, 1, 69, 0
1, 25440, Note_on_c, 0, 83, 80
1, 25440, Note_on_c, 0, 79, 80
1, 25440, Note_on_c, 1, 57, 80
1, 25529, Note_on_c, 0, 83, 0
1, 25529, Note_on_c, 0, 79, 0
1, 25529, Note_on_c, 1, 57, 0
1, 25536, Note_on_c, 0, 81, 80
1, 25536, Note_on_c, 0, 78, 80
1, 25536, Note_on_c, 1, 69, 81
1, 25625, Note_on_c, 0, 81, 0
1, 25625, Note_on_c, 0, 78, 0
1, 25632, Note_on_c, 0, 79, 81
1, 25632, Note_on_c, 0, 76, 81
1, 25721, Note_on_c, 0, 79, 0
1, 25721, Note_on_c, 0, 76, 0
1, 25721, Note_on_c, 1, 69, 0
1, 25728, Note_on_c, 0, 81, 82
1, 25728, Note_on_c, 0, 78, 82
1, 25728, Note_on_c, 1, 57, 83
1, 25817, Note_on_c, 0, 81, 0
1, 25817, Note_on_c, 0, 78, 0
1, 25817, Note_on_c, 1, 57, 0
1, 25824, Note_on_c, 0, 79, 83
1, 25824, Note_on_c, 0, 76, 83
1, 25824, Note_on_c, 1, 69, 84
1, 25913, Note_on_c, 0, 79, 0
1, 25913, Note_on_c, 0, 76, 0
1, 25913, Note_on_c, 1, 69, 0
1, 25920, Note_on_c, 0, 78, 84
1, 25920, Note_on_c, 0, 74, 84
1, 25920, Note_on_c, 1, 70, 85
1, 26016, Note_on_c, 1, 70, 0
1, 26016, Note_on_c, 1, 71, 86
1, 26097, Note_on_c, 0, 78, 0
1, 26097, Note_on_c, 0, 74, 0
1, 26105, Note_on_c, 1, 71, 0
1, 26112, Note_on_c, 0, 86, 102
1, 26112, Note_on_c, 0, 81, 80
1, 26112, Note_on_c, 1, 59, 103
1, 26201, Note_on_c, 1, 59, 0
1, 26208, Note_on_c, 0, 81, 0
1, 26208, Note_on_c, 0, 79, 64
1, 26208, Note_on_c, 1, 71, 86
1, 26297, Note_on_c, 0, 79, 0
1, 26297, Note_on_c, 1, 71, 0
1, 26304, Note_on_c, 0, 83, 64
1, 26304, Note_on_c, 1, 67, 86
1, 26385, Note_on_c, 0, 86, 0
1, 26393, Note_on_c, 0, 83, 0
1, 26393, Note_on_c, 1, 67, 0
1, 26400, Note_on_c, 0, 85, 102
1, 26400, Note_on_c, 0, 79, 80
1, 26400, Note_on_c, 1, 57, 103
1, 26489, Note_on_c, 1, 57, 0
1, 26496, Note_on_c, 0, 79, 0
1, 26496, Note_on_c, 0, 78, 64
1, 26496, Note_on_c, 1, 69, 86
1, 26585, Note_on_c, 0, 78, 0
1, 26585, Note_on_c, 1, 69, 0
1, 26592, Note_on_c, 0, 81, 64
1, 26592, Note_on_c, 1, 66, 86
1, 26673, Note_on_c, 0, 85, 0
1, 26681, Note_on_c, 0, 81, 0
1, 26681, Note_on_c, 1, 66, 0
1, 26688, Note_on_c, 0, 83, 103
1, 26688, Note_on_c, 0, 78, 81
1, 26688, Note_on_c, 1, 55, 103
1, 26777, Note_on_c, 0, 78, 0
1, 26777, Note_on_c, 1, 55, 0
1, 26784, Note_on_c, 0, 76, 64
1, 26784, Note_on_c, 1, 67, 86
1, 26873, Note_on_c, 0, 76, 0
1, 26873, Note_on_c, 1, 67, 0
1, 26880, Note_on_c, 0, 79, 64
1, 26880, Note_on_c, 1, 64, 86
1, 26961, Note_on_c, 0, 83, 0
1, 26969, Note_on_c, 0, 79, 0
1, 26969, Note_on_c, 1, 64, 0
1, 26976, Note_on_c, 0, 81, 103
1, 26976, Note_on_c, 0, 76, 81
1, 26976, Note_on_c, 1, 54, 103
1, 27065, Note_on_c, 0, 76, 0
1, 27065, Note_on_c, 1, 54, 0
1, 27072, Note_on_c, 0, 74, 64
1, 27072, Note_on_c, 1, 66, 86
1, 27161, Note_on_c, 0, 74, 0
1, 27161, Note_on_c, 1, 66, 0
1, 27168, Note_on_c, 0, 78, 64
1, 27168, Note_on_c, 1, 62, 86
1, 27249, Note_on_c, 0, 81, 0
1, 27257, Note_on_c, 0, 78, 0
1, 27257, Note_on_c, 1, 62, 0
1, 27264, Note_on_c, 0, 79, 86
1, 27264, Note_on_c, 0, 76, 64
1, 27264, Note_on_c, 1, 55, 86
1, 27353, Note_on_c, 0, 79, 0
1, 27353, Note_on_c, 0, 76, 0
1, 27353, Note_on_c, 1, 55, 0
1, 27360, Note_on_c, 0, 78, 86
1, 27360, Note_on_c, 0, 74, 86
1, 27360, Note_on_c, 1, 57, 86
1, 27449, Note_on_c, 0, 78, 0
1, 27449, Note_on_c, 0, 74, 0
1, 27456, Note_on_c, 0, 81, 86
1, 27456, Note_on_c, 0, 78, 86
1, 27537, Note_on_c, 1, 57, 0
1, 27545, Note_on_c, 0, 81, 0
1, 27545, Note_on_c, 0, 78, 0
1, 27552, Note_on_c, 0, 73, 103
1, 27552, Note_on_c, 0, 67, 103
1, 27552, Note_on_c, 1, 57, 103
1, 27648, Note_on_c, 0, 73, 0
1, 27648, Note_on_c, 0, 76, 86
1, 27648, Note_on_c, 1, 57, 0
1, 27648, Note_on_c, 1, 59, 86
1, 27737, Note_on_c, 0, 76, 0
1, 27737, Note_on_c, 0, 67, 0
1, 27737, Note_on_c, 1, 59, 0
1, 27744, Note_on_c, 0, 74, 86
1, 27744, Note_on_c, 0, 66, 86
1, 27744, Note_on_c, 1, 62, 86
1, 27833, Note_on_c, 0, 74, 0
1, 27833, Note_on_c, 0, 66, 0
1, 27833, Note_on_c, 1, 62, 0
1, 27840, Note_on_c, 0, 72, 103
1, 27840, Note_on_c, 0, 69, 64
1, 27840, Note_on_c, 1, 54, 103
1, 27929, Note_on_c, 0, 72, 0
1, 27936, Note_on_c, 0, 71, 86
1, 27936, Note_on_c, 1, 54, 0
1, 27936, Note_on_c, 1, 55, 86
1, 28025, Note_on_c, 0, 69, 0
1, 28025, Note_on_c, 1, 55, 0
1, 28032, Note_on_c, 0, 67, 64
1, 28032, Note_on_c, 1, 59, 86
1, 28113, Note_on_c, 0, 71, 0
1, 28121, Note_on_c, 0, 67, 0
1, 28121, Note_on_c, 1, 59, 0
1, 28128, Note_on_c, 0, 69, 103
1, 28128, Note_on_c, 0, 66, 81
1, 28128, Note_on_c, 1, 51, 103
1, 28217, Note_on_c, 0, 69, 0
1, 28224, Note_on_c, 0, 67, 75
1, 28224, Note_on_c, 1, 51, 0
1, 28224, Note_on_c, 1, 52, 75
1, 28313, Note_on_c, 0, 66, 0
1, 28313, Note_on_c, 1, 52, 0
1, 28320, Note_on_c, 0, 64, 64
1, 28320, Note_on_c, 1, 49, 76
1, 28401, Note_on_c, 0, 67, 0
1, 28409, Note_on_c, 0, 64, 0
1, 28409, Note_on_c, 1, 49, 0
1, 28416, Note_on_c, 0, 66, 77
1, 28416, Note_on_c, 0, 62, 64
1, 28416, Note_on_c, 1, 50, 77
1, 28505, Note_on_c, 0, 66, 0
1, 28505, Note_on_c, 0, 62, 0
1, 28505, Note_on_c, 1, 50, 0
1, 28512, Note_on_c, 0, 64, 78
1, 28512, Note_on_c, 1, 55, 78
1, 28512, Note_on_c, 1, 43, 78
1, 28601, Note_on_c, 0, 64, 0
1, 28608, Note_on_c, 0, 71, 80
1, 28689, Note_on_c, 1, 55, 0
1, 28689, Note_on_c, 1, 43, 0
1, 28697, Note_on_c, 0, 71, 0
1, 28704, Note_on_c, 0, 61, 80
1, 28704, Note_on_c, 1, 52, 80
1, 28704, Note_on_c, 1, 45, 80
1, 28793, Note_on_c, 0, 61, 0
1, 28793, Note_on_c, 1, 52, 0
1, 28793, Note_on_c, 1, 45, 0
1, 28800, Note_on_c, 0, 62, 80
1, 28800, Note_on_c, 1, 50, 80
1, 28800, Note_on_c, 1, 50, 75
1, 28889, Note_on_c, 0, 62, 0
1, 28889, Note_on_c, 1, 50, 0
1, 28896, Note_on_c, 1, 52, 80
1, 28985, Note_on_c, 1, 52, 0
1, 28992, Note_on_c, 0, 81, 97
1, 28992, Note_on_c, 0, 72, 97
1, 28992, Note_on_c, 1, 54, 97
1, 29081, Note_on_c, 1, 54, 0
1, 29088, Note_on_c, 0, 72, 0
1, 29088, Note_on_c, 0, 70, 75
1, 29088, Note_on_c, 1, 55, 75
1, 29177, Note_on_c, 0, 81, 0
1, 29177, Note_on_c, 0, 70, 0
1, 29184, Note_on_c, 0, 79, 75
1, 29184, Note_on_c, 0, 71, 75
1, 29265, Note_on_c, 1, 55, 0
1, 29273, Note_on_c, 0, 79, 0
1, 29273, Note_on_c, 0, 71, 0
1, 29280, Note_on_c, 0, 78, 75
1, 29280, Note_on_c, 0, 69, 75
1, 29280, Note_on_c, 1, 57, 75
1, 29369, Note_on_c, 0, 78, 0
1, 29369, Note_on_c, 0, 69, 0
1, 29369, Note_on_c, 1, 57, 0
1, 29376, Note_on_c, 0, 76, 75
1, 29376, Note_on_c, 0, 67, 75
1, 29376, Note_on_c, 1, 58, 75
1, 29465, Note_on_c, 0, 76, 0
1, 29465, Note_on_c, 0, 67, 0
1, 29465, Note_on_c, 1, 58, 0
1, 29472, Note_on_c, 0, 74, 75
1, 29472, Note_on_c, 0, 66, 75
1, 29472, Note_on_c, 1, 57, 75
1, 29561, Note_on_c, 0, 74, 0
1, 29561, Note_on_c, 0, 66, 0
1, 29561, Note_on_c, 1, 57, 0
1, 29568, Note_on_c, 0, 73, 75
1, 29568, Note_on_c, 0, 64, 75
1, 29568, Note_on_c, 1, 55, 75
1, 29641, Note_on_c, 1, 50, 0
1, 29657, Note_on_c, 0, 73, 0
1, 29657, Note_on_c, 0, 64, 0
1, 29657, Note_on_c, 1, 55, 0
1, 29664, Note_on_c, 0, 74, 92
1, 29664, Note_on_c, 0, 62, 92
1, 29664, Note_on_c, 1, 54, 92
1, 29664, Note_on_c, 1, 50, 92
1, 29753, Note_on_c, 0, 74, 0
1, 29753, Note_on_c, 0, 62, 0
1, 29753, Note_on_c, 1, 54, 0
1, 29760, Note_on_c, 0, 73, 64
1, 29760, Note_on_c, 0, 64, 64
1, 29760, Note_on_c, 1, 55, 64
1, 29849, Note_on_c, 0, 73, 0
1, 29849, Note_on_c, 0, 64, 0
1, 29849, Note_on_c, 1, 55, 0
1, 29856, Note_on_c, 0, 74, 64
1, 29856, Note_on_c, 0, 66, 64
1, 29856, Note_on_c, 1, 57, 64
1, 29945, Note_on_c, 0, 74, 0
1, 29945, Note_on_c, 0, 66, 0
1, 29945, Note_on_c, 1, 57, 0
1, 29952, Note_on_c, 0, 76, 64
1, 29952, Note_on_c, 0, 67, 64
1, 29952, Note_on_c, 1, 58, 64
1, 30041, Note_on_c, 0, 76, 0
1, 30041, Note_on_c, 0, 67, 0
1, 30041, Note_on_c, 1, 58, 0
1, 30048, Note_on_c, 0, 74, 64
1, 30048, Note_on_c, 0, 66, 64
1, 30048, Note_on_c, 1, 57, 64
1, 30137, Note_on_c, 0, 74, 0
1, 30137, Note_on_c, 0, 66, 0
1, 30137, Note_on_c, 1, 57, 0
1, 30144, Note_on_c, 0, 73, 64
1, 30144, Note_on_c, 0, 64, 64
1, 30144, Note_on_c, 1, 55, 64
1, 30217, Note_on_c, 1, 50, 0
1, 30233, Note_on_c, 0, 73, 0
1, 30233, Note_on_c, 0, 64, 0
1, 30233, Note_on_c, 1, 55, 0
1, 30240, Note_on_c, 0, 74, 81
1, 30240, Note_on_c, 0, 62, 81
1, 30240, Note_on_c, 1, 54, 81
1, 30240, Note_on_c, 1, 50, 92
1, 30329, Note_on_c, 0, 74, 0
1, 30329, Note_on_c, 0, 62, 0
1, 30329, Note_on_c, 1, 54, 0
1, 30336, Note_on_c, 0, 73, 58
1, 30336, Note_on_c, 0, 64, 58
1, 30336, Note_on_c, 1, 55, 58
1, 30425, Note_on_c, 0, 73, 0
1, 30425, Note_on_c, 0, 64, 0
1, 30425, Note_on_c, 1, 55, 0
1, 30432, Note_on_c, 0, 74, 58
1, 30432, Note_on_c, 0, 66, 58
1, 30432, Note_on_c, 1, 57, 58
1, 30521, Note_on_c, 0, 74, 0
1, 30521, Note_on_c, 0, 66, 0
1, 30521, Note_on_c, 1, 57, 0
1, 30528, Note_on_c, 0, 76, 58
1, 30528, Note_on_c, 0, 67, 58
1, 30528, Note_on_c, 1, 58, 58
1, 30617, Note_on_c, 0, 76, 0
1, 30617, Note_on_c, 0, 67, 0
1, 30617, Note_on_c, 1, 58, 0
1, 30624, Note_on_c, 0, 74, 58
1, 30624, Note_on_c, 0, 66, 58
1, 30624, Note_on_c, 1, 57, 58
1, 30713, Note_on_c, 0, 74, 0
1, 30713, Note_on_c, 0, 66, 0
1, 30713, Note_on_c, 1, 57, 0
1, 30720, Note_on_c, 0, 73, 58
1, 30720, Note_on_c, 0, 64, 58
1, 30720, Note_on_c, 1, 55, 58
1, 30809, Note_on_c, 0, 73, 0
1, 30809, Note_on_c, 0, 64, 0
1, 30809, Note_on_c, 1, 55, 0
1, 30816, Note_on_c, 0, 74, 58
1, 30816, Note_on_c, 0, 62, 58
1, 30816, Note_on_c, 1, 54, 58
1, 30905, Note_on_c, 0, 74, 0
1, 30905, Note_on_c, 0, 62, 0
1, 30905, Note_on_c, 1, 54, 0
1, 30905, Note_on_c, 1, 50, 0
1, 30912, Note_on_c, 0, 74, 58
1, 30912, Note_on_c, 0, 66, 58
1, 30912, Note_on_c, 1, 42, 58
1, 31001, Note_on_c, 0, 74, 0
1, 31001, Note_on_c, 0, 66, 0
1, 31001, Note_on_c, 1, 42, 0
1, 31008, Note_on_c, 0, 74, 58
1, 31008, Note_on_c, 0, 66, 58
1, 31008, Note_on_c, 1, 45, 58
1, 31097, Note_on_c, 0, 74, 0
1, 31097, Note_on_c, 0, 66, 0
1, 31097, Note_on_c, 1, 45, 0
1, 31104, Note_on_c, 0, 74, 58
1, 31104, Note_on_c, 1, 38, 58
1, 31193, Note_on_c, 0, 74, 0
1, 31193, Note_on_c, 1, 38, 0
1, 31296, Note_on_c, 0, 67, 58
1, 31296, Note_on_c, 1, 62, 58
1, 31296, Note_on_c, 1, 59, 58
1, 31385, Note_on_c, 0, 67, 0
1, 31385, Note_on_c, 1, 62, 0
1, 31385, Note_on_c, 1, 59, 0
1, 31392, Note_on_c, 0, 66, 64
1, 31392, Note_on_c, 1, 61, 64
1, 31392, Note_on_c, 1, 58, 64
1, 31481, Note_on_c, 0, 66, 0
1, 31488, Note_on_c, 0, 65, 64
1, 31569, Note_on_c, 1, 61, 0
1, 31569, Note_on_c, 1, 58, 0
1, 31577, Note_on_c, 0, 65, 0
1, 31584, Note_on_c, 0, 66, 64
1, 31584, Note_on_c, 1, 58, 64
1, 31584, Note_on_c, 1, 54, 64
1, 31673, Note_on_c, 0, 66, 0
1, 31673, Note_on_c, 1, 58, 0
1, 31673, Note_on_c, 1, 54, 0
1, 31680, Note_on_c, 0, 64, 64
1, 31680, Note_on_c, 1, 59, 64
1, 31680, Note_on_c, 1, 55, 64
1, 31776, Note_on_c, 0, 64, 0
1, 31776, Note_on_c, 0, 62, 64
1, 31857, Note_on_c, 1, 59, 0
1, 31865, Note_on_c, 0, 62, 0
1, 31872, Note_on_c, 0, 74, 64
1, 31872, Note_on_c, 1, 61, 64
1, 31961, Note_on_c, 0, 74, 0
1, 31961, Note_on_c, 1, 61, 0
1, 31968, Note_on_c, 0, 73, 64
1, 31968, Note_on_c, 1, 62, 64
1, 32057, Note_on_c, 0, 73, 0
1, 32064, Note_on_c, 0, 71, 64
1, 32145, Note_on_c, 1, 62, 0
1, 32145, Note_on_c, 1, 55, 0
1, 32153, Note_on_c, 0, 71, 0
1, 32160, Note_on_c, 0, 69, 64
1, 32160, Note_on_c, 1, 61, 64
1, 32249, Note_on_c, 0, 69, 0
1, 32249, Note_on_c, 1, 61, 0
1, 32256, Note_on_c, 0, 67, 64
1, 32256, Note_on_c, 1, 59, 64
1, 32256, Note_on_c, 1, 55, 64
1, 32345, Note_on_c, 0, 67, 0
1, 32352, Note_on_c, 0, 66, 64
1, 32433, Note_on_c, 1, 59, 0
1, 32433, Note_on_c, 1, 55, 0
1, 32441, Note_on_c, 0, 66, 0
1, 32448, Note_on_c, 0, 65, 81
1, 32448, Note_on_c, 1, 59, 81
1, 32448, Note_on_c, 1, 55, 81
1, 32537, Note_on_c, 0, 65, 0
1, 32537, Note_on_c, 1, 59, 0
1, 32537, Note_on_c, 1, 55, 0
1, 32544, Note_on_c, 0, 66, 64
1, 32544, Note_on_c, 1, 61, 64
1, 32544, Note_on_c, 1, 58, 64
1, 32544, Note_on_c, 1, 54, 64
1, 32633, Note_on_c, 0, 66, 0
1, 32640, Note_on_c, 0, 70, 66
1, 32729, Note_on_c, 0, 70, 0
1, 32736, Note_on_c, 0, 73, 68
1, 32825, Note_on_c, 0, 73, 0
1, 32832, Note_on_c, 0, 77, 70
1, 32928, Note_on_c, 0, 77, 0
1, 32928, Note_on_c, 0, 78, 72
1, 33009, Note_on_c, 1, 61, 0
1, 33009, Note_on_c, 1, 58, 0
1, 33009, Note_on_c, 1, 54, 0
1, 33017, Note_on_c, 0, 78, 0
1, 33024, Note_on_c, 0, 70, 75
1, 33024, Note_on_c, 1, 61, 92
1, 33024, Note_on_c, 1, 54, 92
1, 33024, Note_on_c, 1, 52, 92
1, 33113, Note_on_c, 0, 70, 0
1, 33113, Note_on_c, 1, 61, 0
1, 33113, Note_on_c, 1, 54, 0
1, 33113, Note_on_c, 1, 52, 0
1, 33120, Note_on_c, 0, 71, 75
1, 33120, Note_on_c, 1, 59, 75
1, 33120, Note_on_c, 1, 54, 75
1, 33120, Note_on_c, 1, 50, 75
1, 33209, Note_on_c, 0, 71, 0
1, 33216, Note_on_c, 0, 74, 75
1, 33305, Note_on_c, 0, 74, 0
1, 33312, Note_on_c, 0, 78, 75
1, 33401, Note_on_c, 0, 78, 0
1, 33408, Note_on_c, 0, 82, 75
1, 33504, Note_on_c, 0, 82, 0
1, 33504, Note_on_c, 0, 83, 75
1, 33585, Note_on_c, 1, 59, 0
1, 33585, Note_on_c, 1, 54, 0
1, 33585, Note_on_c, 1, 50, 0
1, 33593, Note_on_c, 0, 83, 0
1, 33600, Note_on_c, 0, 81, 91
1, 33600, Note_on_c, 0, 72, 91
1, 33600, Note_on_c, 1, 63, 75
1, 33689, Note_on_c, 1, 63, 0
1, 33696, Tempo, 222222
1, 33696, Note_on_c, 0, 81, 0
1, 33696, Note_on_c, 0, 72, 0
1, 33696, Note_on_c, 0, 79, 76
1, 33696, Note_on_c, 0, 71, 76
1, 33696, Note_on_c, 1, 64, 76
1, 33785, Note_on_c, 0, 79, 0
1, 33785, Note_on_c, 0, 71, 0
1, 33785, Note_on_c, 1, 64, 0
1, 33792, Note_on_c, 0, 83, 93
1, 33792, Note_on_c, 0, 74, 93
1, 33792, Note_on_c, 1, 65, 77
1, 33881, Note_on_c, 1, 65, 0
1, 33888, Tempo, 229885
1, 33888, Note_on_c, 0, 83, 0
1, 33888, Note_on_c, 0, 74, 0
1, 33888, Note_on_c, 0, 82, 78
1, 33888, Note_on_c, 0, 73, 78
1, 33888, Note_on_c, 1, 66, 78
1, 33977, Note_on_c, 0, 82, 0
1, 33977, Note_on_c, 0, 73, 0
1, 33977, Note_on_c, 1, 66, 0
1, 33984, Tempo, 240963
1, 33984, Note_on_c, 0, 85, 79
1, 33984, Note_on_c, 0, 76, 79
1, 33984, Note_on_c, 1, 67, 79
1, 34073, Note_on_c, 0, 85, 0
1, 34073, Note_on_c, 0, 76, 0
1, 34073, Note_on_c, 1, 67, 0
1, 34080, Tempo, 1000000
1, 34080, Note_on_c, 0, 86, 97
1, 34080, Note_on_c, 0, 77, 97
1, 34080, Note_on_c, 1, 68, 97
1, 34169, Note_on_c, 0, 86, 0
1, 34169, Note_on_c, 0, 77, 0
1, 34169, Note_on_c, 1, 68, 0
1, 34176, Tempo, 208333
1, 34176, Note_on_c, 0, 74, 64
1, 34176, Note_on_c, 0, 71, 64
1, 34176, Note_on_c, 1, 53, 97
1, 34265, Note_on_c, 1, 53, 0
1, 34272, Note_on_c, 1, 54, 80
1, 34361, Note_on_c, 0, 74, 0
1, 34361, Note_on_c, 0, 71, 0
1, 34368, Note_on_c, 0, 76, 64
1, 34368, Note_on_c, 0, 73, 64
1, 34449, Note_on_c, 1, 54, 0
1, 34457, Note_on_c, 0, 76, 0
1, 34457, Note_on_c, 0, 73, 0
1, 34464, Note_on_c, 0, 70, 81
1, 34464, Note_on_c, 0, 64, 81
1, 34464, Note_on_c, 1, 42, 97
1, 34553, Note_on_c, 0, 70, 0
1, 34553, Note_on_c, 0, 64, 0
1, 34553, Note_on_c, 1, 42, 0
1, 34560, Note_on_c, 0, 71, 64
1, 34560, Note_on_c, 0, 62, 64
1, 34560, Note_on_c, 1, 43, 80
1, 34649, Note_on_c, 1, 43, 0
1, 34656, Note_on_c, 1, 47, 80
1, 34745, Note_on_c, 1, 47, 0
1, 34752, Note_on_c, 1, 50, 80
1, 34841, Note_on_c, 1, 50, 0
1, 34848, Note_on_c, 1, 54, 80
1, 34944, Note_on_c, 1, 54, 0
1, 34944, Note_on_c, 1, 55, 80
1, 35025, Note_on_c, 0, 71, 0
1, 35025, Note_on_c, 0, 62, 0
1, 35033, Note_on_c, 1, 55, 0
1, 35040, Note_on_c, 0, 69, 81
1, 35040, Note_on_c, 0, 66, 81
1, 35040, Note_on_c, 1, 39, 97
1, 35129, Note_on_c, 0, 69, 0
1, 35129, Note_on_c, 0, 66, 0
1, 35129, Note_on_c, 1, 39, 0
1, 35136, Note_on_c, 0, 67, 64
1, 35136, Note_on_c, 0, 66, 64
1, 35136, Note_on_c, 1, 40, 80
1, 35225, Note_on_c, 1, 40, 0
1, 35232, Note_on_c, 1, 43, 81
1, 35321, Note_on_c, 1, 43, 0
1, 35328, Note_on_c, 1, 47, 83
1, 35417, Note_on_c, 1, 47, 0
1, 35424, Note_on_c, 0, 66, 0
1, 35424, Note_on_c, 0, 64, 67
1, 35424, Note_on_c, 1, 51, 84
1, 35520, Note_on_c, 1, 51, 0
1, 35520, Note_on_c, 1, 52, 86
1, 35601, Note_on_c, 0, 67, 0
1, 35601, Note_on_c, 0, 64, 0
1, 35609, Note_on_c, 1, 52, 0
1, 35616, Note_on_c, 0, 68, 87
1, 35616, Note_on_c, 1, 53, 103
1, 35616, Note_on_c, 1, 50, 103
1, 35705, Note_on_c, 0, 68, 0
1, 35705, Note_on_c, 1, 53, 0
1, 35705, Note_on_c, 1, 50, 0
1, 35712, Note_on_c, 0, 69, 70
1, 35712, Note_on_c, 1, 52, 86
1, 35712, Note_on_c, 1, 49, 86
1, 35801, Note_on_c, 0, 69, 0
1, 35808, Note_on_c, 0, 73, 71
1, 35897, Note_on_c, 0, 73, 0
1, 35904, Note_on_c, 0, 76, 72
1, 35993, Note_on_c, 0, 76, 0
1, 36000, Note_on_c, 0, 80, 73
1, 36089, Note_on_c, 0, 80, 0
1, 36096, Note_on_c, 0, 81, 75
1, 36185, Note_on_c, 0, 81, 0
1, 36192, Note_on_c, 0, 83, 92
1, 36265, Note_on_c, 1, 52, 0
1, 36265, Note_on_c, 1, 49, 0
1, 36281, Note_on_c, 0, 83, 0
1, 36288, Note_on_c, 0, 79, 80
1, 36288, Note_on_c, 1, 57, 80
1, 36288, Note_on_c, 1, 55, 80
1, 36288, Note_on_c, 1, 52, 80
1, 36288, Note_on_c, 1, 49, 80
1, 36377, Note_on_c, 0, 79, 0
1, 36384, Note_on_c, 0, 76, 80
1, 36473, Note_on_c, 0, 76, 0
1, 36480, Note_on_c, 0, 79, 96
1, 36528, Note_on_c, 0, 79, 0
1, 36528, Note_on_c, 0, 76, 80
1, 36573, Note_on_c, 0, 76, 0
1, 36576, Note_on_c, 0, 73, 80
1, 36621, Note_on_c, 0, 73, 0
1, 36624, Note_on_c, 0, 76, 80
1, 36669, Note_on_c, 0, 76, 0
1, 36672, Note_on_c, 0, 73, 80
1, 36717, Note_on_c, 0, 73, 0
1, 36720, Note_on_c, 0, 67, 80
1, 36765, Note_on_c, 0, 67, 0
1, 36768, Note_on_c, 0, 73, 96
1, 36816, Note_on_c, 0, 73, 0
1, 36816, Note_on_c, 0, 67, 80
1, 36861, Note_on_c, 0, 67, 0
1, 36864, Note_on_c, 0, 64, 80
1, 36909, Note_on_c, 0, 64, 0
1, 36912, Note_on_c, 0, 67, 80
1, 36957, Note_on_c, 0, 67, 0
1, 36960, Note_on_c, 0, 64, 80
1, 37005, Note_on_c, 0, 64, 0
1, 37008, Note_on_c, 0, 61, 80
1, 37053, Note_on_c, 0, 61, 0
1, 37056, Note_on_c, 0, 64, 96
1, 37104, Note_on_c, 0, 64, 0
1, 37104, Note_on_c, 0, 61, 80
1, 37129, Note_on_c, 1, 57, 0
1, 37129, Note_on_c, 1, 55, 0
1, 37129, Note_on_c, 1, 52, 0
1, 37129, Note_on_c, 1, 49, 0
1, 37149, Note_on_c, 0, 61, 0
1, 37152, Note_on_c, 1, 55, 80
1, 37197, Note_on_c, 1, 55, 0
1, 37200, Note_on_c, 1, 61, 80
1, 37245, Note_on_c, 1, 61, 0
1, 37248, Note_on_c, 1, 55, 80
1, 37293, Note_on_c, 1, 55, 0
1, 37296, Note_on_c, 1, 52, 80
1, 37341, Note_on_c, 1, 52, 0
1, 37344, Note_on_c, 1, 55, 113
1, 37344, Note_on_c, 1, 43, 113
1, 37392, Note_on_c, 1, 55, 0
1, 37392, Note_on_c, 1, 43, 0
1, 37392, Note_on_c, 1, 52, 80
1, 37392, Note_on_c, 1, 40, 80
1, 37437, Note_on_c, 1, 52, 0
1, 37437, Note_on_c, 1, 40, 0
1, 37440, Note_on_c, 1, 49, 80
1, 37440, Note_on_c, 1, 37, 80
1, 37485, Note_on_c, 1, 49, 0
1, 37485, Note_on_c, 1, 37, 0
1, 37488, Note_on_c, 1, 52, 80
1, 37488, Note_on_c, 1, 40, 80
1, 37533, Note_on_c, 1, 52, 0
1, 37533, Note_on_c, 1, 40, 0
1, 37536, Note_on_c, 1, 49, 80
1, 37536, Note_on_c, 1, 37, 80
1, 37581, Note_on_c, 1, 49, 0
1, 37581, Note_on_c, 1, 37, 0
1, 37584, Note_on_c, 1, 45, 80
1, 37584, Note_on_c, 1, 33, 80
1, 37629, Note_on_c, 1, 45, 0
1, 37629, Note_on_c, 1, 33, 0
1, 37632, Note_on_c, 1, 47, 80
1, 37632, Note_on_c, 1, 35, 80
1, 37677, Note_on_c, 1, 47, 0
1, 37677, Note_on_c, 1, 35, 0
1, 37680, Note_on_c, 1, 49, 80
1, 37680, Note_on_c, 1, 37, 80
1, 37725, Note_on_c, 1, 49, 0
1, 37725, Note_on_c, 1, 37, 0
1, 37728, Note_on_c, 1, 50, 75
1, 37728, Note_on_c, 1, 38, 75
1, 37817, Note_on_c, 1, 50, 0
1, 37817, Note_on_c, 1, 38, 0
1, 37824, Note_on_c, 1, 54, 75
1, 37824, Note_on_c, 1, 42, 75
1, 37913, Note_on_c, 1, 54, 0
1, 37913, Note_on_c, 1, 42, 0
1, 37920, Note_on_c, 1, 57, 75
1, 37920, Note_on_c, 1, 45, 75
1, 38009, Note_on_c, 1, 57, 0
1, 38009, Note_on_c, 1, 45, 0
1, 38016, Note_on_c, 0, 61, 73
1, 38016, Note_on_c, 1, 49, 73
1, 38105, Note_on_c, 0, 61, 0
1, 38105, Note_on_c, 1, 49, 0
1, 38112, Note_on_c, 0, 62, 71
1, 38112, Note_on_c, 1, 50, 71
1, 38201, Note_on_c, 0, 62, 0
1, 38201, Note_on_c, 1, 50, 0
1, 38208, Note_on_c, 0, 66, 69
1, 38208, Note_on_c, 1, 54, 69
1, 38297, Note_on_c, 0, 66, 0
1, 38297, Note_on_c, 1, 54, 0
1, 38304, Note_on_c, 0, 69, 67
1, 38304, Note_on_c, 1, 57, 67
1, 38437, Note_on_c, 0, 69, 0
1, 38437, Note_on_c, 1, 57, 0
1, 38448, Note_on_c, 0, 74, 80
1, 38448, Note_on_c, 1, 62, 80
1, 38496, Note_on_c, 0, 74, 0
1, 38496, Note_on_c, 0, 78, 64
1, 38496, Note_on_c, 1, 62, 0
1, 38496, Note_on_c, 1, 66, 64
1, 38541, Note_on_c, 0, 78, 0
1, 38541, Note_on_c, 1, 66, 0
1, 38544, Note_on_c, 0, 74, 64
1, 38544, Note_on_c, 1, 62, 64
1, 38589, Note_on_c, 0, 74, 0
1, 38589, Note_on_c, 1, 62, 0
1, 38592, Note_on_c, 0, 69, 64
1, 38592, Note_on_c, 1, 57, 64
1, 38681, Note_on_c, 0, 69, 0
1, 38681, Note_on_c, 1, 57, 0
1, 38784, Note_on_c, 0, 69, 81
1, 38784, Note_on_c, 0, 57, 81
1, 38784, Note_on_c, 1, 42, 81
1, 38873, Note_on_c, 0, 69, 0
1, 38873, Note_on_c, 0, 57, 0
1, 38880, Note_on_c, 0, 69, 70
1, 38880, Note_on_c, 0, 59, 70
1, 38880, Note_on_c, 1, 42, 0
1, 38880, Note_on_c, 1, 43, 70
1, 38969, Note_on_c, 1, 43, 0
1, 38976, Note_on_c, 1, 51, 70
1, 39072, Note_on_c, 1, 51, 0
1, 39072, Note_on_c, 1, 54, 70
1, 39161, Note_on_c, 1, 54, 0
1, 39168, Note_on_c, 0, 69, 0
1, 39168, Note_on_c, 0, 67, 64
1, 39168, Note_on_c, 1, 52, 64
1, 39257, Note_on_c, 1, 52, 0
1, 39264, Note_on_c, 1, 55, 64
1, 39345, Note_on_c, 0, 67, 0
1, 39345, Note_on_c, 0, 59, 0
1, 39353, Note_on_c, 1, 55, 0
1, 39360, Note_on_c, 0, 67, 81
1, 39360, Note_on_c, 0, 58, 81
1, 39360, Note_on_c, 1, 40, 81
1, 39449, Note_on_c, 0, 67, 0
1, 39449, Note_on_c, 0, 58, 0
1, 39456, Note_on_c, 0, 67, 64
1, 39456, Note_on_c, 0, 57, 64
1, 39456, Note_on_c, 1, 40, 0
1, 39456, Note_on_c, 1, 42, 64
1, 39545, Note_on_c, 1, 42, 0
1, 39552, Note_on_c, 1, 49, 64
1, 39648, Note_on_c, 1, 49, 0
1, 39648, Note_on_c, 1, 52, 64
1, 39737, Note_on_c, 1, 52, 0
1, 39744, Note_on_c, 0, 67, 0
1, 39744, Note_on_c, 0, 66, 64
1, 39744, Note_on_c, 1, 50, 64
1, 39840, Note_on_c, 1, 50, 0
1, 39840, Note_on_c, 1, 54, 64
1, 39921, Note_on_c, 0, 66, 0
1, 39921, Note_on_c, 0, 57, 0
1, 39929, Note_on_c, 1, 54, 0
1, 39936, Note_on_c, 0, 66, 81
1, 39936, Note_on_c, 0, 59, 81
1, 39936, Note_on_c, 1, 43, 81
1, 40025, Note_on_c, 1, 43, 0
1, 40032, Note_on_c, 0, 66, 0
1, 40032, Note_on_c, 0, 64, 64
1, 40032, Note_on_c, 1, 55, 64
1, 40121, Note_on_c, 1, 55, 0
1, 40128, Note_on_c, 0, 64, 0
1, 40128, Note_on_c, 0, 62, 64
1, 40128, Note_on_c, 1, 52, 64
1, 40217, Note_on_c, 0, 62, 0
1, 40217, Note_on_c, 0, 59, 0
1, 40217, Note_on_c, 1, 52, 0
1, 40224, Note_on_c, 0, 67, 81
1, 40224, Note_on_c, 0, 61, 81
1, 40224, Note_on_c, 1, 45, 81
1, 40313, Note_on_c, 1, 45, 0
1, 40320, Note_on_c, 0, 67, 0
1, 40320, Note_on_c, 0, 66, 64
1, 40320, Note_on_c, 1, 57, 64
1, 40409, Note_on_c, 1, 57, 0
1, 40416, Note_on_c, 0, 66, 0
1, 40416, Note_on_c, 0, 64, 64
1, 40416, Note_on_c, 1, 54, 64
1, 40505, Note_on_c, 0, 64, 0
1, 40505, Note_on_c, 0, 61, 0
1, 40505, Note_on_c, 1, 54, 0
1, 40512, Note_on_c, 0, 69, 81
1, 40512, Note_on_c, 0, 62, 81
1, 40512, Note_on_c, 1, 47, 81
1, 40601, Note_on_c, 1, 47, 0
1, 40608, Note_on_c, 0, 69, 0
1, 40608, Note_on_c, 0, 67, 64
1, 40608, Note_on_c, 1, 59, 64
1, 40697, Note_on_c, 1, 59, 0
1, 40704, Note_on_c, 0, 67, 0
1, 40704, Note_on_c, 0, 66, 64
1, 40704, Note_on_c, 1, 55, 64
1, 40793, Note_on_c, 0, 66, 0
1, 40793, Note_on_c, 0, 62, 0
1, 40793, Note_on_c, 1, 55, 0
1, 40800, Note_on_c, 0, 71, 81
1, 40800, Note_on_c, 0, 64, 81
1, 40800, Note_on_c, 1, 49, 81
1, 40889, Note_on_c, 0, 71, 0
1, 40889, Note_on_c, 0, 64, 0
1, 40889, Note_on_c, 1, 49, 0
1, 40896, Note_on_c, 0, 69, 64
1, 40896, Note_on_c, 0, 64, 64
1, 40896, Note_on_c, 1, 61, 64
1, 40985, Note_on_c, 1, 61, 0
1, 40992, Note_on_c, 0, 69, 0
1, 40992, Note_on_c, 0, 64, 0
1, 40992, Note_on_c, 0, 68, 67
1, 40992, Note_on_c, 0, 65, 67
1, 40992, Note_on_c, 1, 62, 67
1, 41081, Note_on_c, 0, 68, 0
1, 41081, Note_on_c, 0, 65, 0
1, 41081, Note_on_c, 1, 62, 0
1, 41088, Note_on_c, 0, 69, 70
1, 41088, Note_on_c, 0, 64, 70
1, 41088, Note_on_c, 1, 61, 70
1, 41177, Note_on_c, 0, 69, 0
1, 41177, Note_on_c, 0, 64, 0
1, 41177, Note_on_c, 1, 61, 0
1, 41184, Note_on_c, 0, 74, 73
1, 41184, Note_on_c, 0, 68, 73
1, 41184, Note_on_c, 1, 59, 73
1, 41280, Note_on_c, 0, 74, 0
1, 41280, Note_on_c, 0, 68, 0
1, 41280, Note_on_c, 0, 73, 76
1, 41280, Note_on_c, 0, 69, 76
1, 41280, Note_on_c, 1, 59, 0
1, 41280, Note_on_c, 1, 57, 76
1, 41369, Note_on_c, 0, 73, 0
1, 41369, Note_on_c, 0, 69, 0
1, 41369, Note_on_c, 1, 57, 0
1, 41376, Note_on_c, 0, 76, 97
1, 41376, Note_on_c, 0, 71, 97
1, 41376, Note_on_c, 1, 67, 97
1, 41465, Note_on_c, 0, 76, 0
1, 41465, Note_on_c, 0, 71, 0
1, 41465, Note_on_c, 1, 67, 0
1, 41472, Note_on_c, 0, 74, 75
1, 41472, Note_on_c, 0, 69, 75
1, 41472, Note_on_c, 1, 66, 75
1, 41561, Note_on_c, 0, 74, 0
1, 41561, Note_on_c, 0, 69, 0
1, 41561, Note_on_c, 1, 66, 0
1, 41568, Note_on_c, 0, 73, 75
1, 41568, Note_on_c, 0, 70, 75
1, 41568, Note_on_c, 1, 67, 75
1, 41657, Note_on_c, 0, 73, 0
1, 41657, Note_on_c, 0, 70, 0
1, 41657, Note_on_c, 1, 67, 0
1, 41664, Note_on_c, 0, 74, 75
1, 41664, Note_on_c, 0, 69, 75
1, 41664, Note_on_c, 1, 66, 75
1, 41753, Note_on_c, 0, 74, 0
1, 41753, Note_on_c, 0, 69, 0
1, 41753, Note_on_c, 1, 66, 0
1, 41760, Note_on_c, 0, 79, 75
1, 41760, Note_on_c, 0, 73, 75
1, 41760, Note_on_c, 1, 64, 75
1, 41849, Note_on_c, 0, 79, 0
1, 41849, Note_on_c, 0, 73, 0
1, 41856, Note_on_c, 0, 78, 75
1, 41856, Note_on_c, 0, 74, 75
1, 41856, Note_on_c, 1, 64, 0
1, 41856, Note_on_c, 1, 62, 75
1, 41945, Note_on_c, 0, 78, 0
1, 41945, Note_on_c, 0, 74, 0
1, 41945, Note_on_c, 1, 62, 0
1, 41952, Note_on_c, 0, 81, 92
1, 41952, Note_on_c, 0, 69, 92
1, 41952, Note_on_c, 1, 54, 92
1, 42041, Note_on_c, 0, 81, 0
1, 42041, Note_on_c, 0, 69, 0
1, 42041, Note_on_c, 1, 54, 0
1, 42048, Note_on_c, 0, 81, 75
1, 42048, Note_on_c, 0, 71, 64
1, 42048, Note_on_c, 1, 55, 75
1, 42137, Note_on_c, 1, 55, 0
1, 42144, Note_on_c, 1, 59, 75
1, 42233, Note_on_c, 1, 59, 0
1, 42240, Note_on_c, 1, 63, 75
1, 42313, Note_on_c, 0, 81, 0
1, 42329, Note_on_c, 1, 63, 0
1, 42336, Note_on_c, 0, 79, 80
1, 42336, Note_on_c, 1, 64, 80
1, 42425, Note_on_c, 0, 79, 0
1, 42425, Note_on_c, 1, 64, 0
1, 42432, Note_on_c, 0, 76, 76
1, 42432, Note_on_c, 1, 67, 76
1, 42521, Note_on_c, 0, 76, 0
1, 42521, Note_on_c, 1, 67, 0
1, 42528, Note_on_c, 0, 74, 73
1, 42528, Note_on_c, 1, 68, 73
1, 42601, Note_on_c, 0, 71, 0
1, 42617, Note_on_c, 0, 74, 0
1, 42617, Note_on_c, 1, 68, 0
1, 42624, Note_on_c, 0, 73, 70
1, 42624, Note_on_c, 1, 69, 70
1, 42713, Note_on_c, 0, 73, 0
1, 42713, Note_on_c, 1, 69, 0
1, 42720, Note_on_c, 0, 79, 71
1, 42720, Note_on_c, 0, 76, 71
1, 42720, Note_on_c, 1, 57, 71
1, 42809, Note_on_c, 0, 79, 0
1, 42809, Note_on_c, 0, 76, 0
1, 42809, Note_on_c, 1, 57, 0
1, 42816, Note_on_c, 0, 78, 72
1, 42816, Note_on_c, 0, 74, 72
1, 42816, Note_on_c, 1, 69, 72
1, 42905, Note_on_c, 0, 78, 0
1, 42905, Note_on_c, 0, 74, 0
1, 42912, Note_on_c, 0, 76, 74
1, 42912, Note_on_c, 0, 73, 74
1, 43001, Note_on_c, 0, 76, 0
1, 43001, Note_on_c, 0, 73, 0
1, 43001, Note_on_c, 1, 69, 0
1, 43008, Note_on_c, 0, 81, 75
1, 43008, Note_on_c, 0, 78, 75
1, 43008, Note_on_c, 1, 57, 75
1, 43097, Note_on_c, 0, 81, 0
1, 43097, Note_on_c, 0, 78, 0
1, 43097, Note_on_c, 1, 57, 0
1, 43104, Note_on_c, 0, 79, 77
1, 43104, Note_on_c, 0, 76, 77
1, 43104, Note_on_c, 1, 69, 77
1, 43193, Note_on_c, 0, 79, 0
1, 43193, Note_on_c, 0, 76, 0
1, 43200, Note_on_c, 0, 78, 78
1, 43200, Note_on_c, 0, 74, 78
1, 43289, Note_on_c, 0, 78, 0
1, 43289, Note_on_c, 0, 74, 0
1, 43289, Note_on_c, 1, 69, 0
1, 43296, Note_on_c, 0, 83, 80
1, 43296, Note_on_c, 0, 79, 80
1, 43296, Note_on_c, 1, 57, 80
1, 43385, Note_on_c, 0, 83, 0
1, 43385, Note_on_c, 0, 79, 0
1, 43385, Note_on_c, 1, 57, 0
1, 43392, Note_on_c, 0, 81, 80
1, 43392, Note_on_c, 0, 78, 80
1, 43392, Note_on_c, 1, 69, 81
1, 43481, Note_on_c, 0, 81, 0
1, 43481, Note_on_c, 0, 78, 0
1, 43488, Note_on_c, 0, 79, 81
1, 43488, Note_on_c, 0, 76, 81
1, 43577, Note_on_c, 0, 79, 0
1, 43577, Note_on_c, 0, 76, 0
1, 43577, Note_on_c, 1, 69, 0
1, 43584, Note_on_c, 0, 81, 82
1, 43584, Note_on_c, 0, 78, 82
1, 43584, Note_on_c, 1, 57, 83
1, 43673, Note_on_c, 0, 81, 0
1, 43673, Note_on_c, 0, 78, 0
1, 43673, Note_on_c, 1, 57, 0
1, 43680, Note_on_c, 0, 79, 83
1, 43680, Note_on_c, 0, 76, 83
1, 43680, Note_on_c, 1, 69, 84
1, 43769, Note_on_c, 0, 79, 0
1, 43769, Note_on_c, 0, 76, 0
1, 43769, Note_on_c, 1, 69, 0
1, 43776, Note_on_c, 0, 78, 84
1, 43776, Note_on_c, 0, 74, 84
1, 43776, Note_on_c, 1, 70, 85
1, 43872, Note_on_c, 1, 70, 0
1, 43872, Note_on_c, 1, 71, 86
1, 43953, Note_on_c, 0, 78, 0
1, 43953, Note_on_c, 0, 74, 0
1, 43961, Note_on_c, 1, 71, 0
1, 43968, Note_on_c, 0, 86, 102
1, 43968, Note_on_c, 0, 81, 80
1, 43968, Note_on_c, 1, 59, 103
1, 44057, Note_on_c, 1, 59, 0
1, 44064, Note_on_c, 0, 81, 0
1, 44064, Note_on_c, 0, 79, 64
1, 44064, Note_on_c, 1, 71, 86
1, 44153, Note_on_c, 0, 79, 0
1, 44153, Note_on_c, 1, 71, 0
1, 44160, Note_on_c, 0, 83, 64
1, 44160, Note_on_c, 1, 67, 86
1, 44241, Note_on_c, 0, 86, 0
1, 44249, Note_on_c, 0, 83, 0
1, 44249, Note_on_c, 1, 67, 0
1, 44256, Note_on_c, 0, 85, 102
1, 44256, Note_on_c, 0, 79, 80
1, 44256, Note_on_c, 1, 57, 103
1, 44345, Note_on_c, 1, 57, 0
1, 44352, Note_on_c, 0, 79, 0
1, 44352, Note_on_c, 0, 78, 64
1, 44352, Note_on_c, 1, 69, 86
1, 44441, Note_on_c, 0, 78, 0
1, 44441, Note_on_c, 1, 69, 0
1, 44448, Note_on_c, 0, 81, 64
1, 44448, Note_on_c, 1, 66, 86
1, 44529, Note_on_c, 0, 85, 0
1, 44537, Note_on_c, 0, 81, 0
1, 44537, Note_on_c, 1, 66, 0
1, 44544, Note_on_c, 0, 83, 103
1, 44544, Note_on_c, 0, 78, 81
1, 44544, Note_on_c, 1, 55, 103
1, 44633, Note_on_c, 0, 78, 0
1, 44633, Note_on_c, 1, 55, 0
1, 44640, Note_on_c, 0, 76, 64
1, 44640, Note_on_c, 1, 67, 86
1, 44729, Note_on_c, 0, 76, 0
1, 44729, Note_on_c, 1, 67, 0
1, 44736, Note_on_c, 0, 79, 64
1, 44736, Note_on_c, 1, 64, 86
1, 44817, Note_on_c, 0, 83, 0
1, 44825, Note_on_c, 0, 79, 0
1, 44825, Note_on_c, 1, 64, 0
1, 44832, Note_on_c, 0, 81, 103
1, 44832, Note_on_c, 0, 76, 81
1, 44832, Note_on_c, 1, 54, 103
1, 44921, Note_on_c, 0, 76, 0
1, 44921, Note_on_c, 1, 54, 0
1, 44928, Note_on_c, 0, 74, 64
1, 44928, Note_on_c, 1, 66, 86
1, 45017, Note_on_c, 0, 74, 0
1, 45017, Note_on_c, 1, 66, 0
1, 45024, Note_on_c, 0, 78, 64
1, 45024, Note_on_c, 1, 62, 86
1, 45105, Note_on_c, 0, 81, 0
1, 45113, Note_on_c, 0, 78, 0
1, 45113, Note_on_c, 1, 62, 0
1, 45120, Note_on_c, 0, 79, 86
1, 45120, Note_on_c, 0, 76, 64
1, 45120, Note_on_c, 1, 55, 86
1, 45209, Note_on_c, 0, 79, 0
1, 45209, Note_on_c, 0, 76, 0
1, 45209, Note_on_c, 1, 55, 0
1, 45216, Note_on_c, 0, 78, 86
1, 45216, Note_on_c, 0, 74, 86
1, 45216, Note_on_c, 1, 57, 86
1, 45305, Note_on_c, 0, 78, 0
1, 45305, Note_on_c, 0, 74, 0
1, 45312, Note_on_c, 0, 81, 86
1, 45312, Note_on_c, 0, 78, 86
1, 45393, Note_on_c, 1, 57, 0
1, 45401, Note_on_c, 0, 81, 0
1, 45401, Note_on_c, 0, 78, 0
1, 45408, Note_on_c, 0, 73, 103
1, 45408, Note_on_c, 0, 67, 103
1, 45408, Note_on_c, 1, 57, 103
1, 45504, Note_on_c, 0, 73, 0
1, 45504, Note_on_c, 0, 76, 86
1, 45504, Note_on_c, 1, 57, 0
1, 45504, Note_on_c, 1, 59, 86
1, 45593, Note_on_c, 0, 76, 0
1, 45593, Note_on_c, 0, 67, 0
1, 45593, Note_on_c, 1, 59, 0
1, 45600, Note_on_c, 0, 74, 86
1, 45600, Note_on_c, 0, 66, 86
1, 45600, Note_on_c, 1, 62, 86
1, 45689, Note_on_c, 0, 74, 0
1, 45689, Note_on_c, 0, 66, 0
1, 45689, Note_on_c, 1, 62, 0
1, 45696, Note_on_c, 0, 72, 103
1, 45696, Note_on_c, 0, 69, 64
1, 45696, Note_on_c, 1, 54, 103
1, 45785, Note_on_c, 0, 72, 0
1, 45792, Note_on_c, 0, 71, 86
1, 45792, Note_on_c, 1, 54, 0
1, 45792, Note_on_c, 1, 55, 86
1, 45881, Note_on_c, 0, 69, 0
1, 45881, Note_on_c, 1, 55, 0
1, 45888, Note_on_c, 0, 67, 64
1, 45888, Note_on_c, 1, 59, 86
1, 45969, Note_on_c, 0, 71, 0
1, 45977, Note_on_c, 0, 67, 0
1, 45977, Note_on_c, 1, 59, 0
1, 45984, Note_on_c, 0, 69, 103
1, 45984, Note_on_c, 0, 66, 81
1, 45984, Note_on_c, 1, 51, 103
1, 46073, Note_on_c, 0, 69, 0
1, 46080, Note_on_c, 0, 67, 75
1, 46080, Note_on_c, 1, 51, 0
1, 46080, Note_on_c, 1, 52, 75
1, 46169, Note_on_c, 0, 66, 0
1, 46169, Note_on_c, 1, 52, 0
1, 46176, Note_on_c, 0, 64, 64
1, 46176, Note_on_c, 1, 49, 76
1, 46257, Note_on_c, 0, 67, 0
1, 46265, Note_on_c, 0, 64, 0
1, 46265, Note_on_c, 1, 49, 0
1, 46272, Note_on_c, 0, 66, 77
1, 46272, Note_on_c, 0, 62, 64
1, 46272, Note_on_c, 1, 50, 77
1, 46361, Note_on_c, 0, 66, 0
1, 46361, Note_on_c, 0, 62, 0
1, 46361, Note_on_c, 1, 50, 0
1, 46368, Note_on_c, 0, 64, 78
1, 46368, Note_on_c, 1, 55, 78
1, 46368, Note_on_c, 1, 43, 78
1, 46457, Note_on_c, 0, 64, 0
1, 46464, Note_on_c, 0, 71, 80
1, 46545, Note_on_c, 1, 55, 0
1, 46545, Note_on_c, 1, 43, 0
1, 46553, Note_on_c, 0, 71, 0
1, 46560, Note_on_c, 0, 61, 80
1, 46560, Note_on_c, 1, 52, 80
1, 46560, Note_on_c, 1, 45, 80
1, 46649, Note_on_c, 0, 61, 0
1, 46649, Note_on_c, 1, 52, 0
1, 46649, Note_on_c, 1, 45, 0
1, 46656, Note_on_c, 0, 62, 80
1, 46656, Note_on_c, 1, 50, 80
1, 46656, Note_on_c, 1, 50, 75
1, 46745, Note_on_c, 0, 62, 0
1, 46745, Note_on_c, 1, 50, 0
1, 46752, Note_on_c, 1, 52, 80
1, 46841, Note_on_c, 1, 52, 0
1, 46848, Note_on_c, 0, 81, 97
1, 46848, Note_on_c, 0, 72, 97
1, 46848, Note_on_c, 1, 54, 97
1, 46937, Note_on_c, 1, 54, 0
1, 46944, Note_on_c, 0, 72, 0
1, 46944, Note_on_c, 0, 70, 75
1, 46944, Note_on_c, 1, 55, 75
1, 47033, Note_on_c, 0, 81, 0
1, 47033, Note_on_c, 0, 70, 0
1, 47040, Note_on_c, 0, 79, 75
1, 47040, Note_on_c, 0, 71, 75
1, 47121, Note_on_c, 1, 55, 0
1, 47129, Note_on_c, 0, 79, 0
1, 47129, Note_on_c, 0, 71, 0
1, 47136, Note_on_c, 0, 78, 75
1, 47136, Note_on_c, 0, 69, 75
1, 47136, Note_on_c, 1, 57, 75
1, 47225, Note_on_c, 0, 78, 0
1, 47225, Note_on_c, 0, 69, 0
1, 47225, Note_on_c, 1, 57, 0
1, 47232, Note_on_c, 0, 76, 75
1, 47232, Note_on_c, 0, 67, 75
1, 47232, Note_on_c, 1, 58, 75
1, 47321, Note_on_c, 0, 76, 0
1, 47321, Note_on_c, 0, 67, 0
1, 47321, Note_on_c, 1, 58, 0
1, 47328, Note_on_c, 0, 74, 75
1, 47328, Note_on_c, 0, 66, 75
1, 47328, Note_on_c, 1, 57, 75
1, 47417, Note_on_c, 0, 74, 0
1, 47417, Note_on_c, 0, 66, 0
1, 47417, Note_on_c, 1, 57, 0
1, 47424, Note_on_c, 0, 73, 75
1, 47424, Note_on_c, 0, 64, 75
1, 47424, Note_on_c, 1, 55, 75
1, 47497, Note_on_c, 1, 50, 0
1, 47513, Note_on_c, 0, 73, 0
1, 47513, Note_on_c, 0, 64, 0
1, 47513, Note_on_c, 1, 55, 0
1, 47520, Note_on_c, 0, 74, 92
1, 47520, Note_on_c, 0, 62, 92
1, 47520, Note_on_c, 1, 54, 92
1, 47520, Note_on_c, 1, 50, 92
1, 47609, Note_on_c, 0, 74, 0
1, 47609, Note_on_c, 0, 62, 0
1, 47609, Note_on_c, 1, 54, 0
1, 47616, Note_on_c, 0, 73, 64
1, 47616, Note_on_c, 0, 64, 64
1, 47616, Note_on_c, 1, 55, 64
1, 47705, Note_on_c, 0, 73, 0
1, 47705, Note_on_c, 0, 64, 0
1, 47705, Note_on_c, 1, 55, 0
1, 47712, Note_on_c, 0, 74, 64
1, 47712, Note_on_c, 0, 66, 64
1, 47712, Note_on_c, 1, 57, 64
1, 47801, Note_on_c, 0, 74, 0
1, 47801, Note_on_c, 0, 66, 0
1, 47801, Note_on_c, 1, 57, 0
1, 47808, Note_on_c, 0, 76, 64
1, 47808, Note_on_c, 0, 67, 64
1, 47808, Note_on_c, 1, 58, 64
1, 47897, Note_on_c, 0, 76, 0
1, 47897, Note_on_c, 0, 67, 0
1, 47897, Note_on_c, 1, 58, 0
1, 47904, Note_on_c, 0, 74, 64
1, 47904, Note_on_c, 0, 66, 64
1, 47904, Note_on_c, 1, 57, 64
1, 47993, Note_on_c, 0, 74, 0
1, 47993, Note_on_c, 0, 66, 0
1, 47993, Note_on_c, 1, 57, 0
1, 48000, Note_on_c, 0, 73, 64
1, 48000, Note_on_c, 0, 64, 64
1, 48000, Note_on_c, 1, 55, 64
1, 48073, Note_on_c, 1, 50, 0
1, 48089, Note_on_c, 0, 73, 0
1, 48089, Note_on_c, 0, 64, 0
1, 48089, Note_on_c, 1, 55, 0
1, 48096, Note_on_c, 0, 74, 81
1, 48096, Note_on_c, 0, 62, 81
1, 48096, Note_on_c, 1, 54, 81
1, 48096, Note_on_c, 1, 50, 92
1, 48185, Note_on_c, 0, 74, 0
1, 48185, Note_on_c, 0, 62, 0
1, 48185, Note_on_c, 1, 54, 0
1, 48192, Note_on_c, 0, 73, 58
1, 48192, Note_on_c, 0, 64, 58
1, 48192, Note_on_c, 1, 55, 58
1, 48281, Note_on_c, 0, 73, 0
1, 48281, Note_on_c, 0, 64, 0
1, 48281, Note_on_c, 1, 55, 0
1, 48288, Note_on_c, 0, 74, 58
1, 48288, Note_on_c, 0, 66, 58
1, 48288, Note_on_c, 1, 57, 58
1, 48377, Note_on_c, 0, 74, 0
1, 48377, Note_on_c, 0, 66, 0
1, 48377, Note_on_c, 1, 57, 0
1, 48384, Note_on_c, 0, 76, 58
1, 48384, Note_on_c, 0, 67, 58
1, 48384, Note_on_c, 1, 58, 58
1, 48473, Note_on_c, 0, 76, 0
1, 48473, Note_on_c, 0, 67, 0
1, 48473, Note_on_c, 1, 58, 0
1, 48480, Note_on_c, 0, 74, 58
1, 48480, Note_on_c, 0, 66, 58
1, 48480, Note_on_c, 1, 57, 58
1, 48569, Note_on_c, 0, 74, 0
1, 48569, Note_on_c, 0, 66, 0
1, 48569, Note_on_c, 1, 57, 0
1, 48576, Note_on_c, 0, 73, 58
1, 48576, Note_on_c, 0, 64, 58
1, 48576, Note_on_c, 1, 55, 58
1, 48665, Note_on_c, 0, 73, 0
1, 48665, Note_on_c, 0, 64, 0
1, 48665, Note_on_c, 1, 55, 0
1, 48672, Note_on_c, 0, 74, 58
1, 48672, Note_on_c, 0, 62, 58
1, 48672, Note_on_c, 1, 54, 58
1, 48672, Note_on_c, 1, 50, 75
1, 48761, Note_on_c, 0, 74, 0
1, 48761, Note_on_c, 0, 62, 0
1, 48761, Note_on_c, 1, 54, 0
1, 48761, Note_on_c, 1, 50, 0
1, 48768, Note_on_c, 0, 74, 58
1, 48768, Note_on_c, 0, 66, 58
1, 48768, Note_on_c, 1, 42, 58
1, 48807, Note_on_c, 0, 74, 0
1, 48807, Note_on_c, 0, 66, 0
1, 48807, Note_on_c, 1, 42, 0
1, 48864, Note_on_c, 0, 74, 58
1, 48864, Note_on_c, 0, 66, 58
1, 48864, Note_on_c, 1, 45, 58
1, 48903, Note_on_c, 0, 74, 0
1, 48903, Note_on_c, 0, 66, 0
1, 48903, Note_on_c, 1, 45, 0
1, 48960, Note_on_c, 0, 74, 58
1, 48960, Note_on_c, 0, 66, 58
1, 48960, Note_on_c, 1, 38, 58
1, 49137, Note_on_c, 0, 74, 0
1, 49137, Note_on_c, 0, 66, 0
1, 49137, Note_on_c, 1, 38, 0
1, 49248, Note_on_c, 1, 38, 0
1, 49425, Note_on_c, 1, 38, 0
1, 49435, End_track
0, 0, End_of_file