0, 0, Header, 0, 1, 96
1, 0, Start_track
1, 0, Tempo, 120000
1, 144, Tempo, 400000
1, 144, Note_on_c, 0, 64, 75
1, 144, Note_on_c, 0, 56, 75
1, 164, Note_on_c, 0, 64, 0
1, 164, Note_on_c, 0, 56, 0
1, 192, Note_on_c, 0, 64, 75
1, 192, Note_on_c, 0, 56, 75
1, 240, Note_on_c, 1, 52, 75
1, 240, Note_on_c, 1, 40, 75
1, 260, Note_on_c, 1, 52, 0
1, 260, Note_on_c, 1, 40, 0
1, 281, Note_on_c, 0, 64, 0
1, 281, Note_on_c, 0, 56, 0
1, 288, Note_on_c, 1, 52, 76
1, 288, Note_on_c, 1, 40, 76
1, 336, Note_on_c, 0, 68, 76
1, 336, Note_on_c, 0, 64, 76
1, 356, Note_on_c, 0, 68, 0
1, 356, Note_on_c, 0, 64, 0
1, 377, Note_on_c, 1, 52, 0
1, 377, Note_on_c, 1, 40, 0
1, 384, Note_on_c, 0, 68, 77
1, 384, Note_on_c, 0, 64, 77
1, 432, Note_on_c, 1, 52, 78
1, 432, Note_on_c, 1, 40, 78
1, 452, Note_on_c, 1, 52, 0
1, 452, Note_on_c, 1, 40, 0
1, 473, Note_on_c, 0, 68, 0
1, 473, Note_on_c, 0, 64, 0
1, 480, Note_on_c, 1, 52, 78
1, 480, Note_on_c, 1, 40, 78
1, 528, Note_on_c, 0, 71, 79
1, 528, Note_on_c, 0, 68, 79
1, 548, Note_on_c, 0, 71, 0
1, 548, Note_on_c, 0, 68, 0
1, 569, Note_on_c, 1, 52, 0
1, 569, Note_on_c, 1, 40, 0
1, 576, Note_on_c, 0, 71, 80
1, 576, Note_on_c, 0, 68, 80
1, 624, Note_on_c, 1, 52, 80
1, 624, Note_on_c, 1, 40, 80
1, 644, Note_on_c, 1, 52, 0
1, 644, Note_on_c, 1, 40, 0
1, 665, Note_on_c, 0, 71, 0
1, 665, Note_on_c, 0, 68, 0
1, 672, Note_on_c, 1, 52, 81
1, 672, Note_on_c, 1, 40, 81
1, 720, Note_on_c, 0, 76, 82
1, 720, Note_on_c, 0, 68, 82
1, 740, Note_on_c, 0, 76, 0
1, 740, Note_on_c, 0, 68, 0
1, 761, Note_on_c, 1, 52, 0
1, 761, Note_on_c, 1, 40, 0
1, 768, Note_on_c, 0, 76, 82
1, 768, Note_on_c, 0, 68, 82
1, 816, Note_on_c, 1, 52, 83
1, 816, Note_on_c, 1, 40, 83
1, 836, Note_on_c, 1, 52, 0
1, 836, Note_on_c, 1, 40, 0
1, 857, Note_on_c, 0, 76, 0
1, 857, Note_on_c, 0, 68, 0
1, 864, Note_on_c, 1, 52, 84
1, 864, Note_on_c, 1, 40, 84
1, 912, Note_on_c, 0, 71, 83
1, 912, Note_on_c, 0, 68, 83
1, 953, Note_on_c, 1, 52, 0
1, 953, Note_on_c, 1, 40, 0
1, 957, Note_on_c, 0, 71, 0
1, 957, Note_on_c, 0, 68, 0
1, 960, Note_on_c, 0, 69, 82
1, 960, Note_on_c, 0, 66, 82
1, 960, Note_on_c, 1, 47, 82
1, 960, Note_on_c, 1, 35, 82
1, 1008, Note_on_c, 0, 69, 0
1, 1008, Note_on_c, 0, 66, 0
1, 1008, Note_on_c, 0, 68, 82
1, 1008, Note_on_c, 0, 64, 82
1, 1028, Note_on_c, 0, 68, 0
1, 1028, Note_on_c, 0, 64, 0
1, 1049, Note_on_c, 1, 47, 0
1, 1049, Note_on_c, 1, 35, 0
1, 1056, Note_on_c, 0, 69, 81
1, 1056, Note_on_c, 0, 66, 81
1, 1056, Note_on_c, 1, 47, 81
1, 1056, Note_on_c, 1, 35, 81
1, 1104, Note_on_c, 0, 69, 0
1, 1104, Note_on_c, 0, 63, 80
1, 1124, Note_on_c, 0, 66, 0
1, 1124, Note_on_c, 0, 63, 0
1, 1145, Note_on_c, 1, 47, 0
1, 1145, Note_on_c, 1, 35, 0
1, 1152, Note_on_c, 0, 68, 80
1, 1152, Note_on_c, 0, 64, 80
1, 1152, Note_on_c, 1, 52, 80
1, 1152, Note_on_c, 1, 40, 80
1, 1197, Note_on_c, 0, 68, 0
1, 1197, Note_on_c, 0, 64, 0
1, 1200, Note_on_c, 0, 71, 79
1, 1200, Note_on_c, 0, 68, 79
1, 1220, Note_on_c, 0, 71, 0
1, 1220, Note_on_c, 0, 68, 0
1, 1241, Note_on_c, 1, 52, 0
1, 1241, Note_on_c, 1, 40, 0
1, 1248, Note_on_c, 1, 52, 78
1, 1248, Note_on_c, 1, 40, 78
1, 1296, Note_on_c, 0, 71, 78
1, 1296, Note_on_c, 0, 68, 78
1, 1337, Note_on_c, 1, 52, 0
1, 1337, Note_on_c, 1, 40, 0
1, 1341, Note_on_c, 0, 71, 0
1, 1341, Note_on_c, 0, 68, 0
1, 1344, Note_on_c, 0, 69, 77
1, 1344, Note_on_c, 0, 66, 77
1, 1344, Note_on_c, 1, 47, 77
1, 1344, Note_on_c, 1, 35, 77
1, 1392, Note_on_c, 0, 69, 0
1, 1392, Note_on_c, 0, 66, 0
1, 1392, Note_on_c, 0, 68, 76
1, 1392, Note_on_c, 0, 64, 76
1, 1412, Note_on_c, 0, 68, 0
1, 1412, Note_on_c, 0, 64, 0
1, 1433, Note_on_c, 1, 47, 0
1, 1433, Note_on_c, 1, 35, 0
1, 1440, Note_on_c, 0, 69, 76
1, 1440, Note_on_c, 0, 66, 76
1, 1440, Note_on_c, 1, 47, 76
1, 1440, Note_on_c, 1, 35, 76
1, 1488, Note_on_c, 0, 69, 0
1, 1488, Note_on_c, 0, 63, 75
1, 1508, Note_on_c, 0, 66, 0
1, 1508, Note_on_c, 0, 63, 0
1, 1529, Note_on_c, 1, 47, 0
1, 1529, Note_on_c, 1, 35, 0
1, 1536, Note_on_c, 0, 64, 75
1, 1536, Note_on_c, 1, 52, 75
1, 1536, Note_on_c, 1, 40, 75
1, 1581, Note_on_c, 0, 64, 0
1, 1584, Note_on_c, 0, 59, 75
1, 1625, Note_on_c, 1, 52, 0
1, 1625, Note_on_c, 1, 40, 0
1, 1629, Note_on_c, 0, 59, 0
1, 1680, Note_on_c, 0, 64, 69
1, 1680, Note_on_c, 0, 55, 69
1, 1700, Note_on_c, 0, 64, 0
1, 1700, Note_on_c, 0, 55, 0
1, 1728, Note_on_c, 0, 64, 69
1, 1728, Note_on_c, 0, 55, 69
1, 1776, Note_on_c, 1, 52, 69
1, 1776, Note_on_c, 1, 40, 69
1, 1796, Note_on_c, 1, 52, 0
1, 1796, Note_on_c, 1, 40, 0
1, 1817, Note_on_c, 0, 64, 0
1, 1817, Note_on_c, 0, 55, 0
1, 1824, Note_on_c, 1, 52, 69
1, 1824, Note_on_c, 1, 40, 69
1, 1872, Note_on_c, 0, 67, 69
1, 1872, Note_on_c, 0, 64, 69
1, 1892, Note_on_c, 0, 67, 0
1, 1892, Note_on_c, 0, 64, 0
1, 1913, Note_on_c, 1, 52, 0
1, 1913, Note_on_c, 1, 40, 0
1, 1920, Note_on_c, 0, 67, 69
1, 1920, Note_on_c, 0, 64, 69
1, 1968, Note_on_c, 1, 52, 70
1, 1968, Note_on_c, 1, 40, 70
1, 1988, Note_on_c, 1, 52, 0
1, 1988, Note_on_c, 1, 40, 0
1, 2009, Note_on_c, 0, 67, 0
1, 2009, Note_on_c, 0, 64, 0
1, 2016, Note_on_c, 1, 52, 72
1, 2016, Note_on_c, 1, 40, 72
1, 2064, Note_on_c, 0, 71, 73
1, 2064, Note_on_c, 0, 67, 73
1, 2084, Note_on_c, 0, 71, 0
1, 2084, Note_on_c, 0, 67, 0
1, 2105, Note_on_c, 1, 52, 0
1, 2105, Note_on_c, 1, 40, 0
1, 2112, Note_on_c, 0, 71, 75
1, 2112, Note_on_c, 0, 67, 75
1, 2160, Note_on_c, 1, 52, 77
1, 2160, Note_on_c, 1, 40, 77
1, 2180, Note_on_c, 1, 52, 0
1, 2180, Note_on_c, 1, 40, 0
1, 2201, Note_on_c, 0, 71, 0
1, 2201, Note_on_c, 0, 67, 0
1, 2208, Note_on_c, 1, 52, 79
1, 2208, Note_on_c, 1, 40, 79
1, 2256, Note_on_c, 0, 76, 79
1, 2256, Note_on_c, 0, 67, 79
1, 2276, Note_on_c, 0, 76, 0
1, 2276, Note_on_c, 0, 67, 0
1, 2297, Note_on_c, 1, 52, 0
1, 2297, Note_on_c, 1, 40, 0
1, 2304, Note_on_c, 0, 76, 81
1, 2304, Note_on_c, 0, 67, 81
1, 2352, Note_on_c, 1, 52, 84
1, 2352, Note_on_c, 1, 40, 84
1, 2372, Note_on_c, 1, 52, 0
1, 2372, Note_on_c, 1, 40, 0
1, 2393, Note_on_c, 0, 76, 0
1, 2393, Note_on_c, 0, 67, 0
1, 2400, Note_on_c, 1, 52, 84
1, 2400, Note_on_c, 1, 40, 84
1, 2448, Note_on_c, 0, 71, 84
1, 2448, Note_on_c, 0, 67, 84
1, 2489, Note_on_c, 1, 52, 0
1, 2489, Note_on_c, 1, 40, 0
1, 2493, Note_on_c, 0, 71, 0
1, 2493, Note_on_c, 0, 67, 0
1, 2496, Note_on_c, 1, 47, 84
1, 2496, Note_on_c, 1, 35, 84
1, 2541, Note_on_c, 1, 47, 0
1, 2541, Note_on_c, 1, 35, 0
1, 2544, Note_on_c, 0, 69, 82
1, 2544, Note_on_c, 0, 66, 82
1, 2589, Note_on_c, 0, 69, 0
1, 2589, Note_on_c, 0, 66, 0
1, 2592, Note_on_c, 1, 47, 81
1, 2592, Note_on_c, 1, 35, 81
1, 2637, Note_on_c, 1, 47, 0
1, 2637, Note_on_c, 1, 35, 0
1, 2640, Note_on_c, 0, 67, 80
1, 2640, Note_on_c, 0, 64, 80
1, 2685, Note_on_c, 0, 67, 0
1, 2685, Note_on_c, 0, 64, 0
1, 2688, Note_on_c, 1, 47, 79
1, 2688, Note_on_c, 1, 35, 79
1, 2736, Note_on_c, 0, 66, 78
1, 2736, Note_on_c, 0, 63, 78
1, 2777, Note_on_c, 1, 47, 0
1, 2777, Note_on_c, 1, 35, 0
1, 2781, Note_on_c, 0, 66, 0
1, 2781, Note_on_c, 0, 63, 0
1, 2784, Note_on_c, 0, 59, 77
1, 2829, Note_on_c, 0, 59, 0
1, 2832, Note_on_c, 0, 71, 76
1, 2832, Note_on_c, 0, 67, 76
1, 2877, Note_on_c, 0, 71, 0
1, 2877, Note_on_c, 0, 67, 0
1, 2880, Note_on_c, 1, 47, 75
1, 2880, Note_on_c, 1, 35, 75
1, 2925, Note_on_c, 1, 47, 0
1, 2925, Note_on_c, 1, 35, 0
1, 2928, Note_on_c, 0, 69, 74
1, 2928, Note_on_c, 0, 66, 74
1, 2973, Note_on_c, 0, 69, 0
1, 2973, Note_on_c, 0, 66, 0
1, 2976, Note_on_c, 1, 47, 73
1, 2976, Note_on_c, 1, 35, 73
1, 3021, Note_on_c, 1, 47, 0
1, 3021, Note_on_c, 1, 35, 0
1, 3024, Note_on_c, 0, 67, 72
1, 3024, Note_on_c, 0, 64, 72
1, 3069, Note_on_c, 0, 67, 0
1, 3069, Note_on_c, 0, 64, 0
1, 3072, Note_on_c, 1, 47, 72
1, 3072, Note_on_c, 1, 35, 72
1, 3120, Note_on_c, 0, 66, 70
1, 3120, Note_on_c, 0, 63, 70
1, 3161, Note_on_c, 1, 47, 0
1, 3161, Note_on_c, 1, 35, 0
1, 3165, Note_on_c, 0, 66, 0
1, 3165, Note_on_c, 0, 63, 0
1, 3168, Note_on_c, 0, 59, 69
1, 3213, Note_on_c, 0, 59, 0
1, 3216, Note_on_c, 0, 71, 69
1, 3216, Note_on_c, 0, 67, 69
1, 3261, Note_on_c, 0, 71, 0
1, 3261, Note_on_c, 0, 67, 0
1, 3264, Note_on_c, 1, 47, 69
1, 3264, Note_on_c, 1, 35, 69
1, 3309, Note_on_c, 1, 47, 0
1, 3309, Note_on_c, 1, 35, 0
1, 3312, Note_on_c, 0, 69, 69
1, 3312, Note_on_c, 0, 66, 69
1, 3357, Note_on_c, 0, 69, 0
1, 3357, Note_on_c, 0, 66, 0
1, 3360, Note_on_c, 1, 47, 66
1, 3360, Note_on_c, 1, 35, 66
1, 3405, Note_on_c, 1, 47, 0
1, 3405, Note_on_c, 1, 35, 0
1, 3408, Note_on_c, 0, 67, 65
1, 3408, Note_on_c, 0, 64, 65
1, 3453, Note_on_c, 0, 67, 0
1, 3453, Note_on_c, 0, 64, 0
1, 3456, Note_on_c, 0, 66, 64
1, 3456, Note_on_c, 0, 63, 64
1, 3456, Note_on_c, 1, 47, 63
1, 3456, Note_on_c, 1, 35, 63
1, 3545, Note_on_c, 0, 66, 0
1, 3545, Note_on_c, 0, 63, 0
1, 3545, Note_on_c, 1, 47, 0
1, 3545, Note_on_c, 1, 35, 0
1, 3648, Note_on_c, 0, 75, 84
1, 3648, Note_on_c, 1, 63, 84
1, 3648, Note_on_c, 1, 51, 84
1, 3671, Note_on_c, 0, 75, 0
1, 3672, Note_on_c, 0, 71, 84
1, 3695, Note_on_c, 0, 71, 0
1, 3696, Note_on_c, 0, 78, 84
1, 3719, Note_on_c, 0, 78, 0
1, 3720, Note_on_c, 0, 75, 84
1, 3737, Note_on_c, 1, 63, 0
1, 3737, Note_on_c, 1, 51, 0
1, 3743, Note_on_c, 0, 75, 0
1, 3744, Note_on_c, 0, 83, 84
1, 3767, Note_on_c, 0, 83, 0
1, 3768, Note_on_c, 0, 78, 84
1, 3791, Note_on_c, 0, 78, 0
1, 3792, Note_on_c, 0, 75, 84
1, 3792, Note_on_c, 1, 63, 84
1, 3792, Note_on_c, 1, 51, 84
1, 3815, Note_on_c, 0, 75, 0
1, 3816, Note_on_c, 0, 71, 84
1, 3837, Note_on_c, 1, 63, 0
1, 3837, Note_on_c, 1, 51, 0
1, 3839, Note_on_c, 0, 71, 0
1, 3840, Note_on_c, 0, 75, 84
1, 3840, Note_on_c, 1, 64, 84
1, 3840, Note_on_c, 1, 52, 84
1, 3863, Note_on_c, 0, 75, 0
1, 3864, Note_on_c, 0, 71, 84
1, 3887, Note_on_c, 0, 71, 0
1, 3888, Note_on_c, 0, 78, 84
1, 3911, Note_on_c, 0, 78, 0
1, 3912, Note_on_c, 0, 75, 84
1, 3929, Note_on_c, 1, 64, 0
1, 3929, Note_on_c, 1, 52, 0
1, 3935, Note_on_c, 0, 75, 0
1, 3936, Note_on_c, 0, 83, 84
1, 3959, Note_on_c, 0, 83, 0
1, 3960, Note_on_c, 0, 78, 84
1, 3983, Note_on_c, 0, 78, 0
1, 3984, Note_on_c, 0, 75, 84
1, 3984, Note_on_c, 1, 64, 84
1, 3984, Note_on_c, 1, 52, 84
1, 4007, Note_on_c, 0, 75, 0
1, 4008, Note_on_c, 0, 71, 84
1, 4029, Note_on_c, 1, 64, 0
1, 4029, Note_on_c, 1, 52, 0
1, 4031, Note_on_c, 0, 71, 0
1, 4032, Note_on_c, 0, 75, 84
1, 4032, Note_on_c, 1, 66, 84
1, 4032, Note_on_c, 1, 54, 84
1, 4055, Note_on_c, 0, 75, 0
1, 4056, Note_on_c, 0, 71, 84
1, 4079, Note_on_c, 0, 71, 0
1, 4080, Note_on_c, 0, 78, 84
1, 4103, Note_on_c, 0, 78, 0
1, 4104, Note_on_c, 0, 75, 84
1, 4121, Note_on_c, 1, 66, 0
1, 4121, Note_on_c, 1, 54, 0
1, 4127, Note_on_c, 0, 75, 0
1, 4128, Note_on_c, 0, 83, 84
1, 4151, Note_on_c, 0, 83, 0
1, 4152, Note_on_c, 0, 78, 84
1, 4175, Note_on_c, 0, 78, 0
1, 4176, Note_on_c, 0, 75, 84
1, 4176, Note_on_c, 1, 66, 84
1, 4176, Note_on_c, 1, 54, 84
1, 4199, Note_on_c, 0, 75, 0
1, 4200, Note_on_c, 0, 71, 84
1, 4221, Note_on_c, 1, 66, 0
1, 4221, Note_on_c, 1, 54, 0
1, 4223, Note_on_c, 0, 71, 0
1, 4224, Note_on_c, 0, 76, 84
1, 4224, Note_on_c, 1, 68, 84
1, 4224, Note_on_c, 1, 56, 84
1, 4247, Note_on_c, 0, 76, 0
1, 4248, Note_on_c, 0, 71, 84
1, 4271, Note_on_c, 0, 71, 0
1, 4272, Note_on_c, 0, 80, 84
1, 4295, Note_on_c, 0, 80, 0
1, 4296, Note_on_c, 0, 76, 84
1, 4313, Note_on_c, 1, 68, 0
1, 4313, Note_on_c, 1, 56, 0
1, 4319, Note_on_c, 0, 76, 0
1, 4320, Note_on_c, 0, 83, 84
1, 4343, Note_on_c, 0, 83, 0
1, 4344, Note_on_c, 0, 80, 84
1, 4367, Note_on_c, 0, 80, 0
1, 4368, Note_on_c, 0, 76, 84
1, 4368, Note_on_c, 1, 68, 84
1, 4368, Note_on_c, 1, 56, 84
1, 4391, Note_on_c, 0, 76, 0
1, 4392, Note_on_c, 0, 71, 84
1, 4413, Note_on_c, 1, 68, 0
1, 4413, Note_on_c, 1, 56, 0
1, 4415, Note_on_c, 0, 71, 0
1, 4416, Note_on_c, 0, 83, 84
1, 4416, Note_on_c, 1, 63, 84
1, 4416, Note_on_c, 1, 51, 84
1, 4439, Note_on_c, 0, 83, 0
1, 4440, Note_on_c, 0, 78, 84
1, 4463, Note_on_c, 0, 78, 0
1, 4464, Note_on_c, 0, 75, 84
1, 4487, Note_on_c, 0, 75, 0
1, 4488, Note_on_c, 0, 71, 84
1, 4505, Note_on_c, 1, 63, 0
1, 4505, Note_on_c, 1, 51, 0
1, 4511, Note_on_c, 0, 71, 0
1, 4512, Note_on_c, 0, 83, 84
1, 4512, Note_on_c, 1, 64, 84
1, 4512, Note_on_c, 1, 52, 84
1, 4535, Note_on_c, 0, 83, 0
1, 4536, Note_on_c, 0, 80, 84
1, 4559, Note_on_c, 0, 80, 0
1, 4560, Note_on_c, 0, 76, 84
1, 4583, Note_on_c, 0, 76, 0
1, 4584, Note_on_c, 0, 71, 84
1, 4601, Note_on_c, 1, 64, 0
1, 4601, Note_on_c, 1, 52, 0
1, 4607, Note_on_c, 0, 71, 0
1, 4608, Note_on_c, 0, 83, 84
1, 4608, Note_on_c, 1, 63, 84
1, 4608, Note_on_c, 1, 51, 84
1, 4631, Note_on_c, 0, 83, 0
1, 4632, Note_on_c, 0, 78, 84
1, 4655, Note_on_c, 0, 78, 0
1, 4656, Note_on_c, 0, 75, 84
1, 4679, Note_on_c, 0, 75, 0
1, 4680, Note_on_c, 0, 71, 84
1, 4697, Note_on_c, 1, 63, 0
1, 4697, Note_on_c, 1, 51, 0
1, 4703, Note_on_c, 0, 71, 0
1, 4704, Note_on_c, 0, 83, 84
1, 4704, Note_on_c, 1, 64, 84
1, 4704, Note_on_c, 1, 52, 84
1, 4727, Note_on_c, 0, 83, 0
1, 4728, Note_on_c, 0, 80, 84
1, 4751, Note_on_c, 0, 80, 0
1, 4752, Note_on_c, 0, 76, 84
1, 4775, Note_on_c, 0, 76, 0
1, 4776, Note_on_c, 0, 71, 84
1, 4793, Note_on_c, 1, 64, 0
1, 4793, Note_on_c, 1, 52, 0
1, 4799, Note_on_c, 0, 71, 0
1, 4800, Note_on_c, 0, 83, 84
1, 4800, Note_on_c, 1, 63, 84
1, 4800, Note_on_c, 1, 51, 84
1, 4823, Note_on_c, 0, 83, 0
1, 4824, Note_on_c, 0, 78, 84
1, 4847, Note_on_c, 0, 78, 0
1, 4848, Note_on_c, 0, 75, 84
1, 4871, Note_on_c, 0, 75, 0
1, 4872, Note_on_c, 0, 71, 84
1, 4889, Note_on_c, 1, 63, 0
1, 4889, Note_on_c, 1, 51, 0
1, 4895, Note_on_c, 0, 71, 0
1, 4896, Note_on_c, 0, 83, 84
1, 4896, Note_on_c, 1, 64, 84
1, 4896, Note_on_c, 1, 52, 84
1, 4919, Note_on_c, 0, 83, 0
1, 4920, Note_on_c, 0, 80, 84
1, 4943, Note_on_c, 0, 80, 0
1, 4944, Note_on_c, 0, 76, 84
1, 4967, Note_on_c, 0, 76, 0
1, 4968, Note_on_c, 0, 71, 84
1, 4985, Note_on_c, 1, 64, 0
1, 4985, Note_on_c, 1, 52, 0
1, 4991, Note_on_c, 0, 71, 0
1, 4992, Note_on_c, 0, 73, 84
1, 4992, Note_on_c, 1, 66, 84
1, 5009, Note_on_c, 0, 73, 0
1, 5010, Note_on_c, 0, 75, 84
1, 5027, Note_on_c, 0, 75, 0
1, 5028, Note_on_c, 0, 73, 84
1, 5045, Note_on_c, 0, 73, 0
1, 5046, Note_on_c, 0, 75, 84
1, 5063, Note_on_c, 0, 75, 0
1, 5064, Note_on_c, 0, 73, 84
1, 5081, Note_on_c, 0, 73, 0
1, 5081, Note_on_c, 1, 66, 0
1, 5082, Note_on_c, 0, 75, 84
1, 5088, Note_on_c, 1, 54, 84
1, 5098, Note_on_c, 0, 75, 0
1, 5099, Note_on_c, 0, 73, 84
1, 5115, Note_on_c, 0, 73, 0
1, 5116, Note_on_c, 0, 75, 84
1, 5132, Note_on_c, 0, 75, 0
1, 5133, Note_on_c, 0, 73, 84
1, 5149, Note_on_c, 0, 73, 0
1, 5150, Note_on_c, 0, 71, 84
1, 5166, Note_on_c, 0, 71, 0
1, 5167, Note_on_c, 0, 73, 84
1, 5177, Note_on_c, 1, 54, 0
1, 5183, Note_on_c, 0, 73, 0
1, 5184, Note_on_c, 0, 71, 84
1, 5184, Note_on_c, 1, 59, 84
1, 5273, Note_on_c, 0, 71, 0
1, 5273, Note_on_c, 1, 59, 0
1, 5328, Note_on_c, 0, 78, 61
1, 5328, Note_on_c, 0, 75, 61
1, 5348, Note_on_c, 0, 78, 0
1, 5348, Note_on_c, 0, 75, 0
1, 5376, Note_on_c, 0, 78, 61
1, 5376, Note_on_c, 0, 75, 61
1, 5421, Note_on_c, 0, 78, 0
1, 5421, Note_on_c, 0, 75, 0
1, 5424, Note_on_c, 0, 75, 61
1, 5424, Note_on_c, 0, 71, 61
1, 5444, Note_on_c, 0, 75, 0
1, 5444, Note_on_c, 0, 71, 0
1, 5472, Note_on_c, 0, 75, 61
1, 5472, Note_on_c, 0, 71, 61
1, 5517, Note_on_c, 0, 75, 0
1, 5517, Note_on_c, 0, 71, 0
1, 5520, Note_on_c, 0, 76, 61
1, 5520, Note_on_c, 0, 73, 61
1, 5540, Note_on_c, 0, 76, 0
1, 5540, Note_on_c, 0, 73, 0
1, 5568, Note_on_c, 0, 76, 61
1, 5568, Note_on_c, 0, 73, 61
1, 5616, Note_on_c, 0, 76, 0
1, 5616, Note_on_c, 0, 70, 61
1, 5661, Note_on_c, 0, 73, 0
1, 5661, Note_on_c, 0, 70, 0
1, 5712, Note_on_c, 0, 66, 84
1, 5712, Note_on_c, 1, 54, 84
1, 5732, Note_on_c, 0, 66, 0
1, 5732, Note_on_c, 1, 54, 0
1, 5760, Note_on_c, 0, 71, 84
1, 5760, Note_on_c, 1, 59, 84
1, 5808, Note_on_c, 0, 71, 0
1, 5808, Note_on_c, 0, 66, 84
1, 5808, Note_on_c, 1, 59, 0
1, 5808, Note_on_c, 1, 54, 84
1, 5853, Note_on_c, 0, 66, 0
1, 5853, Note_on_c, 1, 54, 0
1, 5856, Note_on_c, 0, 71, 84
1, 5856, Note_on_c, 1, 59, 84
1, 5879, Note_on_c, 0, 71, 0
1, 5879, Note_on_c, 1, 59, 0
1, 5880, Note_on_c, 0, 66, 84
1, 5880, Note_on_c, 1, 54, 84
1, 5903, Note_on_c, 0, 66, 0
1, 5903, Note_on_c, 1, 54, 0
1, 5904, Note_on_c, 0, 63, 84
1, 5904, Note_on_c, 1, 51, 84
1, 5927, Note_on_c, 0, 63, 0
1, 5927, Note_on_c, 1, 51, 0
1, 5928, Note_on_c, 0, 59, 84
1, 5928, Note_on_c, 1, 47, 84
1, 5951, Note_on_c, 0, 59, 0
1, 5951, Note_on_c, 1, 47, 0
1, 5952, Note_on_c, 0, 66, 84
1, 5952, Note_on_c, 1, 54, 84
1, 6041, Note_on_c, 0, 66, 0
1, 6041, Note_on_c, 1, 54, 0
1, 6096, Note_on_c, 0, 78, 61
1, 6096, Note_on_c, 0, 74, 61
1, 6116, Note_on_c, 0, 78, 0
1, 6116, Note_on_c, 0, 74, 0
1, 6144, Note_on_c, 0, 78, 61
1, 6144, Note_on_c, 0, 74, 61
1, 6189, Note_on_c, 0, 78, 0
1, 6189, Note_on_c, 0, 74, 0
1, 6192, Note_on_c, 0, 74, 61
1, 6192, Note_on_c, 0, 71, 61
1, 6212, Note_on_c, 0, 74, 0
1, 6212, Note_on_c, 0, 71, 0
1, 6240, Note_on_c, 0, 74, 61
1, 6240, Note_on_c, 0, 71, 61
1, 6285, Note_on_c, 0, 74, 0
1, 6285, Note_on_c, 0, 71, 0
1, 6288, Note_on_c, 0, 76, 61
1, 6288, Note_on_c, 0, 73, 61
1, 6308, Note_on_c, 0, 76, 0
1, 6308, Note_on_c, 0, 73, 0
1, 6336, Note_on_c, 0, 76, 61
1, 6336, Note_on_c, 0, 73, 61
1, 6384, Note_on_c, 0, 76, 0
1, 6384, Note_on_c, 0, 70, 61
1, 6429, Note_on_c, 0, 73, 0
1, 6429, Note_on_c, 0, 70, 0
1, 6480, Note_on_c, 0, 70, 69
1, 6525, Note_on_c, 0, 70, 0
1, 6528, Note_on_c, 0, 71, 69
1, 6528, Note_on_c, 1, 62, 84
1, 6528, Note_on_c, 1, 55, 64
1, 6595, Note_on_c, 0, 71, 0
1, 6600, Note_on_c, 0, 70, 69
1, 6617, Note_on_c, 1, 62, 0
1, 6623, Note_on_c, 0, 70, 0
1, 6624, Note_on_c, 0, 71, 69
1, 6624, Note_on_c, 1, 65, 84
1, 6647, Note_on_c, 0, 71, 0
1, 6648, Note_on_c, 0, 74, 69
1, 6671, Note_on_c, 0, 74, 0
1, 6672, Note_on_c, 0, 73, 69
1, 6695, Note_on_c, 0, 73, 0
1, 6696, Note_on_c, 0, 71, 69
1, 6705, Note_on_c, 1, 55, 0
1, 6713, Note_on_c, 1, 65, 0
1, 6719, Note_on_c, 0, 71, 0
1, 6720, Note_on_c, 0, 70, 69
1, 6720, Note_on_c, 1, 66, 84
1, 6720, Note_on_c, 1, 54, 84
1, 6809, Note_on_c, 0, 70, 0
1, 6809, Note_on_c, 1, 66, 0
1, 6809, Note_on_c, 1, 54, 0
1, 6864, Note_on_c, 0, 71, 75
1, 6864, Note_on_c, 0, 63, 75
1, 6909, Note_on_c, 0, 71, 0
1, 6909, Note_on_c, 0, 63, 0
1, 6912, Note_on_c, 0, 71, 75
1, 6912, Note_on_c, 0, 63, 75
1, 6912, Note_on_c, 1, 59, 75
1, 6912, Note_on_c, 1, 47, 75
1, 6957, Note_on_c, 0, 71, 0
1, 6957, Note_on_c, 0, 63, 0
1, 6960, Note_on_c, 0, 75, 75
1, 6960, Note_on_c, 0, 71, 75
1, 6980, Note_on_c, 0, 75, 0
1, 6980, Note_on_c, 0, 71, 0
1, 7001, Note_on_c, 1, 59, 0
1, 7001, Note_on_c, 1, 47, 0
1, 7008, Note_on_c, 0, 75, 75
1, 7008, Note_on_c, 0, 71, 75
1, 7053, Note_on_c, 0, 75, 0
1, 7053, Note_on_c, 0, 71, 0
1, 7056, Note_on_c, 0, 78, 75
1, 7056, Note_on_c, 0, 75, 75
1, 7076, Note_on_c, 0, 78, 0
1, 7076, Note_on_c, 0, 75, 0
1, 7104, Note_on_c, 0, 78, 75
1, 7104, Note_on_c, 0, 75, 64
1, 7171, Note_on_c, 0, 78, 0
1, 7176, Note_on_c, 0, 83, 75
1, 7199, Note_on_c, 0, 83, 0
1, 7200, Note_on_c, 0, 78, 75
1, 7245, Note_on_c, 0, 78, 0
1, 7245, Note_on_c, 0, 75, 0
1, 7296, Note_on_c, 0, 80, 75
1, 7296, Note_on_c, 1, 64, 75
1, 7319, Note_on_c, 1, 64, 0
1, 7320, Note_on_c, 1, 71, 75
1, 7343, Note_on_c, 1, 71, 0
1, 7344, Note_on_c, 1, 68, 75
1, 7363, Note_on_c, 0, 80, 0
1, 7367, Note_on_c, 1, 68, 0
1, 7368, Note_on_c, 0, 82, 75
1, 7368, Note_on_c, 1, 71, 75
1, 7391, Note_on_c, 0, 82, 0
1, 7391, Note_on_c, 1, 71, 0
1, 7392, Note_on_c, 0, 83, 75
1, 7392, Note_on_c, 1, 63, 75
1, 7415, Note_on_c, 1, 63, 0
1, 7416, Note_on_c, 1, 71, 75
1, 7437, Note_on_c, 0, 83, 0
1, 7439, Note_on_c, 1, 71, 0
1, 7440, Note_on_c, 1, 66, 75
1, 7463, Note_on_c, 1, 66, 0
1, 7464, Note_on_c, 1, 71, 75
1, 7487, Note_on_c, 1, 71, 0
1, 7488, Note_on_c, 0, 80, 75
1, 7488, Note_on_c, 1, 64, 75
1, 7511, Note_on_c, 1, 64, 0
1, 7512, Note_on_c, 1, 71, 75
1, 7535, Note_on_c, 1, 71, 0
1, 7536, Note_on_c, 1, 68, 75
1, 7555, Note_on_c, 0, 80, 0
1, 7559, Note_on_c, 1, 68, 0
1, 7560, Note_on_c, 0, 82, 75
1, 7560, Note_on_c, 1, 71, 75
1, 7583, Note_on_c, 0, 82, 0
1, 7583, Note_on_c, 1, 71, 0
1, 7584, Note_on_c, 0, 83, 75
1, 7584, Note_on_c, 1, 63, 75
1, 7607, Note_on_c, 1, 63, 0
1, 7608, Note_on_c, 1, 71, 75
1, 7629, Note_on_c, 0, 83, 0
1, 7631, Note_on_c, 1, 71, 0
1, 7632, Note_on_c, 1, 66, 75
1, 7655, Note_on_c, 1, 66, 0
1, 7656, Note_on_c, 1, 71, 75
1, 7679, Note_on_c, 1, 71, 0
1, 7680, Note_on_c, 0, 80, 75
1, 7680, Note_on_c, 1, 64, 75
1, 7703, Note_on_c, 0, 80, 0
1, 7704, Note_on_c, 0, 83, 75
1, 7727, Note_on_c, 0, 83, 0
1, 7728, Note_on_c, 0, 82, 75
1, 7751, Note_on_c, 0, 82, 0
1, 7752, Note_on_c, 0, 80, 75
1, 7769, Note_on_c, 1, 64, 0
1, 7775, Note_on_c, 0, 80, 0
1, 7776, Note_on_c, 0, 78, 75
1, 7799, Note_on_c, 0, 78, 0
1, 7800, Note_on_c, 0, 76, 75
1, 7823, Note_on_c, 0, 76, 0
1, 7824, Note_on_c, 0, 75, 75
1, 7847, Note_on_c, 0, 75, 0
1, 7848, Note_on_c, 0, 73, 75
1, 7871, Note_on_c, 0, 73, 0
1, 7872, Note_on_c, 0, 71, 75
1, 7872, Note_on_c, 1, 59, 75
1, 7872, Note_on_c, 1, 54, 75
1, 7961, Note_on_c, 0, 71, 0
1, 7961, Note_on_c, 1, 59, 0
1, 7961, Note_on_c, 1, 54, 0
1, 7968, Note_on_c, 0, 75, 75
1, 7968, Note_on_c, 1, 58, 75
1, 7968, Note_on_c, 1, 54, 75
1, 7983, Note_on_c, 0, 75, 0
1, 7984, Note_on_c, 0, 73, 75
1, 7999, Note_on_c, 0, 73, 0
1, 8000, Note_on_c, 0, 75, 75
1, 8015, Note_on_c, 0, 75, 0
1, 8016, Note_on_c, 0, 73, 75
1, 8031, Note_on_c, 0, 73, 0
1, 8032, Note_on_c, 0, 71, 75
1, 8047, Note_on_c, 0, 71, 0
1, 8048, Note_on_c, 0, 73, 75
1, 8057, Note_on_c, 1, 58, 0
1, 8057, Note_on_c, 1, 54, 0
1, 8063, Note_on_c, 0, 73, 0
1, 8064, Note_on_c, 0, 71, 84
1, 8064, Note_on_c, 1, 47, 84
1, 8087, Note_on_c, 1, 47, 0
1, 8088, Note_on_c, 1, 51, 84
1, 8111, Note_on_c, 1, 51, 0
1, 8112, Note_on_c, 1, 54, 84
1, 8135, Note_on_c, 1, 54, 0
1, 8136, Note_on_c, 1, 59, 84
1, 8153, Note_on_c, 0, 71, 0
1, 8159, Note_on_c, 1, 59, 0
1, 8160, Note_on_c, 0, 83, 84
1, 8160, Note_on_c, 0, 75, 84
1, 8160, Note_on_c, 1, 47, 84
1, 8183, Note_on_c, 1, 47, 0
1, 8184, Note_on_c, 1, 51, 84
1, 8205, Note_on_c, 0, 83, 0
1, 8205, Note_on_c, 0, 75, 0
1, 8207, Note_on_c, 1, 51, 0
1, 8208, Note_on_c, 1, 54, 84
1, 8231, Note_on_c, 1, 54, 0
1, 8232, Note_on_c, 1, 59, 84
1, 8255, Note_on_c, 1, 59, 0
1, 8256, Note_on_c, 0, 83, 84
1, 8256, Note_on_c, 0, 75, 84
1, 8256, Note_on_c, 1, 47, 84
1, 8345, Note_on_c, 0, 83, 0
1, 8345, Note_on_c, 0, 75, 0
1, 8345, Note_on_c, 1, 47, 0
1, 8400, Tempo, 400000
1, 8400, Note_on_c, 0, 64, 75
1, 8400, Note_on_c, 0, 56, 75
1, 8420, Note_on_c, 0, 64, 0
1, 8420, Note_on_c, 0, 56, 0
1, 8448, Note_on_c, 0, 64, 75
1, 8448, Note_on_c, 0, 56, 75
1, 8496, Note_on_c, 1, 52, 75
1, 8496, Note_on_c, 1, 40, 75
1, 8516, Note_on_c, 1, 52, 0
1, 8516, Note_on_c, 1, 40, 0
1, 8537, Note_on_c, 0, 64, 0
1, 8537, Note_on_c, 0, 56, 0
1, 8544, Note_on_c, 1, 52, 76
1, 8544, Note_on_c, 1, 40, 76
1, 8592, Note_on_c, 0, 68, 76
1, 8592, Note_on_c, 0, 64, 76
1, 8612, Note_on_c, 0, 68, 0
1, 8612, Note_on_c, 0, 64, 0
1, 8633, Note_on_c, 1, 52, 0
1, 8633, Note_on_c, 1, 40, 0
1, 8640, Note_on_c, 0, 68, 77
1, 8640, Note_on_c, 0, 64, 77
1, 8688, Note_on_c, 1, 52, 78
1, 8688, Note_on_c, 1, 40, 78
1, 8708, Note_on_c, 1, 52, 0
1, 8708, Note_on_c, 1, 40, 0
1, 8729, Note_on_c, 0, 68, 0
1, 8729, Note_on_c, 0, 64, 0
1, 8736, Note_on_c, 1, 52, 78
1, 8736, Note_on_c, 1, 40, 78
1, 8784, Note_on_c, 0, 71, 79
1, 8784, Note_on_c, 0, 68, 79
1, 8804, Note_on_c, 0, 71, 0
1, 8804, Note_on_c, 0, 68, 0
1, 8825, Note_on_c, 1, 52, 0
1, 8825, Note_on_c, 1, 40, 0
1, 8832, Note_on_c, 0, 71, 80
1, 8832, Note_on_c, 0, 68, 80
1, 8880, Note_on_c, 1, 52, 80
1, 8880, Note_on_c, 1, 40, 80
1, 8900, Note_on_c, 1, 52, 0
1, 8900, Note_on_c, 1, 40, 0
1, 8921, Note_on_c, 0, 71, 0
1, 8921, Note_on_c, 0, 68, 0
1, 8928, Note_on_c, 1, 52, 81
1, 8928, Note_on_c, 1, 40, 81
1, 8976, Note_on_c, 0, 76, 82
1, 8976, Note_on_c, 0, 68, 82
1, 8996, Note_on_c, 0, 76, 0
1, 8996, Note_on_c, 0, 68, 0
1, 9017, Note_on_c, 1, 52, 0
1, 9017, Note_on_c, 1, 40, 0
1, 9024, Note_on_c, 0, 76, 82
1, 9024, Note_on_c, 0, 68, 82
1, 9072, Note_on_c, 1, 52, 83
1, 9072, Note_on_c, 1, 40, 83
1, 9092, Note_on_c, 1, 52, 0
1, 9092, Note_on_c, 1, 40, 0
1, 9113, Note_on_c, 0, 76, 0
1, 9113, Note_on_c, 0, 68, 0
1, 9120, Note_on_c, 1, 52, 84
1, 9120, Note_on_c, 1, 40, 84
1, 9168, Note_on_c, 0, 71, 83
1, 9168, Note_on_c, 0, 68, 83
1, 9209, Note_on_c, 1, 52, 0
1, 9209, Note_on_c, 1, 40, 0
1, 9213, Note_on_c, 0, 71, 0
1, 9213, Note_on_c, 0, 68, 0
1, 9216, Note_on_c, 0, 69, 82
1, 9216, Note_on_c, 0, 66, 82
1, 9216, Note_on_c, 1, 47, 82
1, 9216, Note_on_c, 1, 35, 82
1, 9264, Note_on_c, 0, 69, 0
1, 9264, Note_on_c, 0, 66, 0
1, 9264, Note_on_c, 0, 68, 82
1, 9264, Note_on_c, 0, 64, 82
1, 9284, Note_on_c, 0, 68, 0
1, 9284, Note_on_c, 0, 64, 0
1, 9305, Note_on_c, 1, 47, 0
1, 9305, Note_on_c, 1, 35, 0
1, 9312, Note_on_c, 0, 69, 81
1, 9312, Note_on_c, 0, 66, 81
1, 9312, Note_on_c, 1, 47, 81
1, 9312, Note_on_c, 1, 35, 81
1, 9360, Note_on_c, 0, 69, 0
1, 9360, Note_on_c, 0, 63, 80
1, 9380, Note_on_c, 0, 66, 0
1, 9380, Note_on_c, 0, 63, 0
1, 9401, Note_on_c, 1, 47, 0
1, 9401, Note_on_c, 1, 35, 0
1, 9408, Note_on_c, 0, 68, 80
1, 9408, Note_on_c, 0, 64, 80
1, 9408, Note_on_c, 1, 52, 80
1, 9408, Note_on_c, 1, 40, 80
1, 9453, Note_on_c, 0, 68, 0
1, 9453, Note_on_c, 0, 64, 0
1, 9456, Note_on_c, 0, 71, 79
1, 9456, Note_on_c, 0, 68, 79
1, 9476, Note_on_c, 0, 71, 0
1, 9476, Note_on_c, 0, 68, 0
1, 9497, Note_on_c, 1, 52, 0
1, 9497, Note_on_c, 1, 40, 0
1, 9504, Note_on_c, 1, 52, 78
1, 9504, Note_on_c, 1, 40, 78
1, 9552, Note_on_c, 0, 71, 78
1, 9552, Note_on_c, 0, 68, 78
1, 9593, Note_on_c, 1, 52, 0
1, 9593, Note_on_c, 1, 40, 0
1, 9597, Note_on_c, 0, 71, 0
1, 9597, Note_on_c, 0, 68, 0
1, 9600, Note_on_c, 0, 69, 77
1, 9600, Note_on_c, 0, 66, 77
1, 9600, Note_on_c, 1, 47, 77
1, 9600, Note_on_c, 1, 35, 77
1, 9648, Note_on_c, 0, 69, 0
1, 9648, Note_on_c, 0, 66, 0
1, 9648, Note_on_c, 0, 68, 76
1, 9648, Note_on_c, 0, 64, 76
1, 9668, Note_on_c, 0, 68, 0
1, 9668, Note_on_c, 0, 64, 0
1, 9689, Note_on_c, 1, 47, 0
1, 9689, Note_on_c, 1, 35, 0
1, 9696, Note_on_c, 0, 69, 76
1, 9696, Note_on_c, 0, 66, 76
1, 9696, Note_on_c, 1, 47, 76
1, 9696, Note_on_c, 1, 35, 76
1, 9744, Note_on_c, 0, 69, 0
1, 9744, Note_on_c, 0, 63, 75
1, 9764, Note_on_c, 0, 66, 0
1, 9764, Note_on_c, 0, 63, 0
1, 9785, Note_on_c, 1, 47, 0
1, 9785, Note_on_c, 1, 35, 0
1, 9792, Note_on_c, 0, 64, 75
1, 9792, Note_on_c, 1, 52, 75
1, 9792, Note_on_c, 1, 40, 75
1, 9837, Note_on_c, 0, 64, 0
1, 9840, Note_on_c, 0, 59, 75
1, 9881, Note_on_c, 1, 52, 0
1, 9881, Note_on_c, 1, 40, 0
1, 9885, Note_on_c, 0, 59, 0
1, 9936, Note_on_c, 0, 64, 69
1, 9936, Note_on_c, 0, 55, 69
1, 9956, Note_on_c, 0, 64, 0
1, 9956, Note_on_c, 0, 55, 0
1, 9984, Note_on_c, 0, 64, 69
1, 9984, Note_on_c, 0, 55, 69
1, 10032, Note_on_c, 1, 52, 69
1, 10032, Note_on_c, 1, 40, 69
1, 10052, Note_on_c, 1, 52, 0
1, 10052, Note_on_c, 1, 40, 0
1, 10073, Note_on_c, 0, 64, 0
1, 10073, Note_on_c, 0, 55, 0
1, 10080, Note_on_c, 1, 52, 69
1, 10080, Note_on_c, 1, 40, 69
1, 10128, Note_on_c, 0, 67, 69
1, 10128, Note_on_c, 0, 64, 69
1, 10148, Note_on_c, 0, 67, 0
1, 10148, Note_on_c, 0, 64, 0
1, 10169, Note_on_c, 1, 52, 0
1, 10169, Note_on_c, 1, 40, 0
1, 10176, Note_on_c, 0, 67, 69
1, 10176, Note_on_c, 0, 64, 69
1, 10224, Note_on_c, 1, 52, 70
1, 10224, Note_on_c, 1, 40, 70
1, 10244, Note_on_c, 1, 52, 0
1, 10244, Note_on_c, 1, 40, 0
1, 10265, Note_on_c, 0, 67, 0
1, 10265, Note_on_c, 0, 64, 0
1, 10272, Note_on_c, 1, 52, 72
1, 10272, Note_on_c, 1, 40, 72
1, 10320, Note_on_c, 0, 71, 73
1, 10320, Note_on_c, 0, 67, 73
1, 10340, Note_on_c, 0, 71, 0
1, 10340, Note_on_c, 0, 67, 0
1, 10361, Note_on_c, 1, 52, 0
1, 10361, Note_on_c, 1, 40, 0
1, 10368, Note_on_c, 0, 71, 75
1, 10368, Note_on_c, 0, 67, 75
1, 10416, Note_on_c, 1, 52, 77
1, 10416, Note_on_c, 1, 40, 77
1, 10436, Note_on_c, 1, 52, 0
1, 10436, Note_on_c, 1, 40, 0
1, 10457, Note_on_c, 0, 71, 0
1, 10457, Note_on_c, 0, 67, 0
1, 10464, Note_on_c, 1, 52, 79
1, 10464, Note_on_c, 1, 40, 79
1, 10512, Note_on_c, 0, 76, 79
1, 10512, Note_on_c, 0, 67, 79
1, 10532, Note_on_c, 0, 76, 0
1, 10532, Note_on_c, 0, 67, 0
1, 10553, Note_on_c, 1, 52, 0
1, 10553, Note_on_c, 1, 40, 0
1, 10560, Note_on_c, 0, 76, 81
1, 10560, Note_on_c, 0, 67, 81
1, 10608, Note_on_c, 1, 52, 84
1, 10608, Note_on_c, 1, 40, 84
1, 10628, Note_on_c, 1, 52, 0
1, 10628, Note_on_c, 1, 40, 0
1, 10649, Note_on_c, 0, 76, 0
1, 10649, Note_on_c, 0, 67, 0
1, 10656, Note_on_c, 1, 52, 84
1, 10656, Note_on_c, 1, 40, 84
1, 10704, Note_on_c, 0, 71, 84
1, 10704, Note_on_c, 0, 67, 84
1, 10745, Note_on_c, 1, 52, 0
1, 10745, Note_on_c, 1, 40, 0
1, 10749, Note_on_c, 0, 71, 0
1, 10749, Note_on_c, 0, 67, 0
1, 10752, Note_on_c, 1, 47, 84
1, 10752, Note_on_c, 1, 35, 84
1, 10797, Note_on_c, 1, 47, 0
1, 10797, Note_on_c, 1, 35, 0
1, 10800, Note_on_c, 0, 69, 82
1, 10800, Note_on_c, 0, 66, 82
1, 10845, Note_on_c, 0, 69, 0
1, 10845, Note_on_c, 0, 66, 0
1, 10848, Note_on_c, 1, 47, 81
1, 10848, Note_on_c, 1, 35, 81
1, 10893, Note_on_c, 1, 47, 0
1, 10893, Note_on_c, 1, 35, 0
1, 10896, Note_on_c, 0, 67, 80
1, 10896, Note_on_c, 0, 64, 80
1, 10941, Note_on_c, 0, 67, 0
1, 10941, Note_on_c, 0, 64, 0
1, 10944, Note_on_c, 1, 47, 79
1, 10944, Note_on_c, 1, 35, 79
1, 10992, Note_on_c, 0, 66, 78
1, 10992, Note_on_c, 0, 63, 78
1, 11033, Note_on_c, 1, 47, 0
1, 11033, Note_on_c, 1, 35, 0
1, 11037, Note_on_c, 0, 66, 0
1, 11037, Note_on_c, 0, 63, 0
1, 11040, Note_on_c, 0, 59, 77
1, 11085, Note_on_c, 0, 59, 0
1, 11088, Note_on_c, 0, 71, 76
1, 11088, Note_on_c, 0, 67, 76
1, 11133, Note_on_c, 0, 71, 0
1, 11133, Note_on_c, 0, 67, 0
1, 11136, Note_on_c, 1, 47, 75
1, 11136, Note_on_c, 1, 35, 75
1, 11181, Note_on_c, 1, 47, 0
1, 11181, Note_on_c, 1, 35, 0
1, 11184, Note_on_c, 0, 69, 74
1, 11184, Note_on_c, 0, 66, 74
1, 11229, Note_on_c, 0, 69, 0
1, 11229, Note_on_c, 0, 66, 0
1, 11232, Note_on_c, 1, 47, 73
1, 11232, Note_on_c, 1, 35, 73
1, 11277, Note_on_c, 1, 47, 0
1, 11277, Note_on_c, 1, 35, 0
1, 11280, Note_on_c, 0, 67, 72
1, 11280, Note_on_c, 0, 64, 72
1, 11325, Note_on_c, 0, 67, 0
1, 11325, Note_on_c, 0, 64, 0
1, 11328, Note_on_c, 1, 47, 72
1, 11328, Note_on_c, 1, 35, 72
1, 11376, Note_on_c, 0, 66, 70
1, 11376, Note_on_c, 0, 63, 70
1, 11417, Note_on_c, 1, 47, 0
1, 11417, Note_on_c, 1, 35, 0
1, 11421, Note_on_c, 0, 66, 0
1, 11421, Note_on_c, 0, 63, 0
1, 11424, Note_on_c, 0, 59, 69
1, 11469, Note_on_c, 0, 59, 0
1, 11472, Note_on_c, 0, 71, 69
1, 11472, Note_on_c, 0, 67, 69
1, 11517, Note_on_c, 0, 71, 0
1, 11517, Note_on_c, 0, 67, 0
1, 11520, Note_on_c, 1, 47, 69
1, 11520, Note_on_c, 1, 35, 69
1, 11565, Note_on_c, 1, 47, 0
1, 11565, Note_on_c, 1, 35, 0
1, 11568, Note_on_c, 0, 69, 69
1, 11568, Note_on_c, 0, 66, 69
1, 11613, Note_on_c, 0, 69, 0
1, 11613, Note_on_c, 0, 66, 0
1, 11616, Note_on_c, 1, 47, 66
1, 11616, Note_on_c, 1, 35, 66
1, 11661, Note_on_c, 1, 47, 0
1, 11661, Note_on_c, 1, 35, 0
1, 11664, Note_on_c, 0, 67, 65
1, 11664, Note_on_c, 0, 64, 65
1, 11709, Note_on_c, 0, 67, 0
1, 11709, Note_on_c, 0, 64, 0
1, 11712, Note_on_c, 0, 66, 64
1, 11712, Note_on_c, 0, 63, 64
1, 11712, Note_on_c, 1, 47, 63
1, 11712, Note_on_c, 1, 35, 63
1, 11801, Note_on_c, 0, 66, 0
1, 11801, Note_on_c, 0, 63, 0
1, 11801, Note_on_c, 1, 47, 0
1, 11801, Note_on_c, 1, 35, 0
1, 11904, Note_on_c, 0, 75, 84
1, 11904, Note_on_c, 1, 63, 84
1, 11904, Note_on_c, 1, 51, 84
1, 11927, Note_on_c, 0, 75, 0
1, 11928, Note_on_c, 0, 71, 84
1, 11951, Note_on_c, 0, 71, 0
1, 11952, Note_on_c, 0, 78, 84
1, 11975, Note_on_c, 0, 78, 0
1, 11976, Note_on_c, 0, 75, 84
1, 11993, Note_on_c, 1, 63, 0
1, 11993, Note_on_c, 1, 51, 0
1, 11999, Note_on_c, 0, 75, 0
1, 12000, Note_on_c, 0, 83, 84
1, 12023, Note_on_c, 0, 83, 0
1, 12024, Note_on_c, 0, 78, 84
1, 12047, Note_on_c, 0, 78, 0
1, 12048, Note_on_c, 0, 75, 84
1, 12048, Note_on_c, 1, 63, 84
1, 12048, Note_on_c, 1, 51, 84
1, 12071, Note_on_c, 0, 75, 0
1, 12072, Note_on_c, 0, 71, 84
1, 12093, Note_on_c, 1, 63, 0
1, 12093, Note_on_c, 1, 51, 0
1, 12095, Note_on_c, 0, 71, 0
1, 12096, Note_on_c, 0, 75, 84
1, 12096, Note_on_c, 1, 64, 84
1, 12096, Note_on_c, 1, 52, 84
1, 12119, Note_on_c, 0, 75, 0
1, 12120, Note_on_c, 0, 71, 84
1, 12143, Note_on_c, 0, 71, 0
1, 12144, Note_on_c, 0, 78, 84
1, 12167, Note_on_c, 0, 78, 0
1, 12168, Note_on_c, 0, 75, 84
1, 12185, Note_on_c, 1, 64, 0
1, 12185, Note_on_c, 1, 52, 0
1, 12191, Note_on_c, 0, 75, 0
1, 12192, Note_on_c, 0, 83, 84
1, 12215, Note_on_c, 0, 83, 0
1, 12216, Note_on_c, 0, 78, 84
1, 12239, Note_on_c, 0, 78, 0
1, 12240, Note_on_c, 0, 75, 84
1, 12240, Note_on_c, 1, 64, 84
1, 12240, Note_on_c, 1, 52, 84
1, 12263, Note_on_c, 0, 75, 0
1, 12264, Note_on_c, 0, 71, 84
1, 12285, Note_on_c, 1, 64, 0
1, 12285, Note_on_c, 1, 52, 0
1, 12287, Note_on_c, 0, 71, 0
1, 12288, Note_on_c, 0, 75, 84
1, 12288, Note_on_c, 1, 66, 84
1, 12288, Note_on_c, 1, 54, 84
1, 12311, Note_on_c, 0, 75, 0
1, 12312, Note_on_c, 0, 71, 84
1, 12335, Note_on_c, 0, 71, 0
1, 12336, Note_on_c, 0, 78, 84
1, 12359, Note_on_c, 0, 78, 0
1, 12360, Note_on_c, 0, 75, 84
1, 12377, Note_on_c, 1, 66, 0
1, 12377, Note_on_c, 1, 54, 0
1, 12383, Note_on_c, 0, 75, 0
1, 12384, Note_on_c, 0, 83, 84
1, 12407, Note_on_c, 0, 83, 0
1, 12408, Note_on_c, 0, 78, 84
1, 12431, Note_on_c, 0, 78, 0
1, 12432, Note_on_c, 0, 75, 84
1, 12432, Note_on_c, 1, 66, 84
1, 12432, Note_on_c, 1, 54, 84
1, 12455, Note_on_c, 0, 75, 0
1, 12456, Note_on_c, 0, 71, 84
1, 12477, Note_on_c, 1, 66, 0
1, 12477, Note_on_c, 1, 54, 0
1, 12479, Note_on_c, 0, 71, 0
1, 12480, Note_on_c, 0, 76, 84
1, 12480, Note_on_c, 1, 68, 84
1, 12480, Note_on_c, 1, 56, 84
1, 12503, Note_on_c, 0, 76, 0
1, 12504, Note_on_c, 0, 71, 84
1, 12527, Note_on_c, 0, 71, 0
1, 12528, Note_on_c, 0, 80, 84
1, 12551, Note_on_c, 0, 80, 0
1, 12552, Note_on_c, 0, 76, 84
1, 12569, Note_on_c, 1, 68, 0
1, 12569, Note_on_c, 1, 56, 0
1, 12575, Note_on_c, 0, 76, 0
1, 12576, Note_on_c, 0, 83, 84
1, 12599, Note_on_c, 0, 83, 0
1, 12600, Note_on_c, 0, 80, 84
1, 12623, Note_on_c, 0, 80, 0
1, 12624, Note_on_c, 0, 76, 84
1, 12624, Note_on_c, 1, 68, 84
1, 12624, Note_on_c, 1, 56, 84
1, 12647, Note_on_c, 0, 76, 0
1, 12648, Note_on_c, 0, 71, 84
1, 12669, Note_on_c, 1, 68, 0
1, 12669, Note_on_c, 1, 56, 0
1, 12671, Note_on_c, 0, 71, 0
1, 12672, Note_on_c, 0, 83, 84
1, 12672, Note_on_c, 1, 63, 84
1, 12672, Note_on_c, 1, 51, 84
1, 12695, Note_on_c, 0, 83, 0
1, 12696, Note_on_c, 0, 78, 84
1, 12719, Note_on_c, 0, 78, 0
1, 12720, Note_on_c, 0, 75, 84
1, 12743, Note_on_c, 0, 75, 0
1, 12744, Note_on_c, 0, 71, 84
1, 12761, Note_on_c, 1, 63, 0
1, 12761, Note_on_c, 1, 51, 0
1, 12767, Note_on_c, 0, 71, 0
1, 12768, Note_on_c, 0, 83, 84
1, 12768, Note_on_c, 1, 64, 84
1, 12768, Note_on_c, 1, 52, 84
1, 12791, Note_on_c, 0, 83, 0
1, 12792, Note_on_c, 0, 80, 84
1, 12815, Note_on_c, 0, 80, 0
1, 12816, Note_on_c, 0, 76, 84
1, 12839, Note_on_c, 0, 76, 0
1, 12840, Note_on_c, 0, 71, 84
1, 12857, Note_on_c, 1, 64, 0
1, 12857, Note_on_c, 1, 52, 0
1, 12863, Note_on_c, 0, 71, 0
1, 12864, Note_on_c, 0, 83, 84
1, 12864, Note_on_c, 1, 63, 84
1, 12864, Note_on_c, 1, 51, 84
1, 12887, Note_on_c, 0, 83, 0
1, 12888, Note_on_c, 0, 78, 84
1, 12911, Note_on_c, 0, 78, 0
1, 12912, Note_on_c, 0, 75, 84
1, 12935, Note_on_c, 0, 75, 0
1, 12936, Note_on_c, 0, 71, 84
1, 12953, Note_on_c, 1, 63, 0
1, 12953, Note_on_c, 1, 51, 0
1, 12959, Note_on_c, 0, 71, 0
1, 12960, Note_on_c, 0, 83, 84
1, 12960, Note_on_c, 1, 64, 84
1, 12960, Note_on_c, 1, 52, 84
1, 12983, Note_on_c, 0, 83, 0
1, 12984, Note_on_c, 0, 80, 84
1, 13007, Note_on_c, 0, 80, 0
1, 13008, Note_on_c, 0, 76, 84
1, 13031, Note_on_c, 0, 76, 0
1, 13032, Note_on_c, 0, 71, 84
1, 13049, Note_on_c, 1, 64, 0
1, 13049, Note_on_c, 1, 52, 0
1, 13055, Note_on_c, 0, 71, 0
1, 13056, Note_on_c, 0, 83, 84
1, 13056, Note_on_c, 1, 63, 84
1, 13056, Note_on_c, 1, 51, 84
1, 13079, Note_on_c, 0, 83, 0
1, 13080, Note_on_c, 0, 78, 84
1, 13103, Note_on_c, 0, 78, 0
1, 13104, Note_on_c, 0, 75, 84
1, 13127, Note_on_c, 0, 75, 0
1, 13128, Note_on_c, 0, 71, 84
1, 13145, Note_on_c, 1, 63, 0
1, 13145, Note_on_c, 1, 51, 0
1, 13151, Note_on_c, 0, 71, 0
1, 13152, Note_on_c, 0, 83, 84
1, 13152, Note_on_c, 1, 64, 84
1, 13152, Note_on_c, 1, 52, 84
1, 13175, Note_on_c, 0, 83, 0
1, 13176, Note_on_c, 0, 80, 84
1, 13199, Note_on_c, 0, 80, 0
1, 13200, Note_on_c, 0, 76, 84
1, 13223, Note_on_c, 0, 76, 0
1, 13224, Note_on_c, 0, 71, 84
1, 13241, Note_on_c, 1, 64, 0
1, 13241, Note_on_c, 1, 52, 0
1, 13247, Note_on_c, 0, 71, 0
1, 13248, Note_on_c, 0, 73, 84
1, 13248, Note_on_c, 1, 66, 84
1, 13265, Note_on_c, 0, 73, 0
1, 13266, Note_on_c, 0, 75, 84
1, 13283, Note_on_c, 0, 75, 0
1, 13284, Note_on_c, 0, 73, 84
1, 13301, Note_on_c, 0, 73, 0
1, 13302, Note_on_c, 0, 75, 84
1, 13319, Note_on_c, 0, 75, 0
1, 13320, Note_on_c, 0, 73, 84
1, 13337, Note_on_c, 0, 73, 0
1, 13337, Note_on_c, 1, 66, 0
1, 13338, Note_on_c, 0, 75, 84
1, 13344, Note_on_c, 1, 54, 84
1, 13354, Note_on_c, 0, 75, 0
1, 13355, Note_on_c, 0, 73, 84
1, 13371, Note_on_c, 0, 73, 0
1, 13372, Note_on_c, 0, 75, 84
1, 13388, Note_on_c, 0, 75, 0
1, 13389, Note_on_c, 0, 73, 84
1, 13405, Note_on_c, 0, 73, 0
1, 13406, Note_on_c, 0, 71, 84
1, 13422, Note_on_c, 0, 71, 0
1, 13423, Note_on_c, 0, 73, 84
1, 13433, Note_on_c, 1, 54, 0
1, 13439, Note_on_c, 0, 73, 0
1, 13440, Note_on_c, 0, 71, 84
1, 13440, Note_on_c, 1, 59, 84
1, 13529, Note_on_c, 0, 71, 0
1, 13529, Note_on_c, 1, 59, 0
1, 13584, Note_on_c, 0, 78, 61
1, 13584, Note_on_c, 0, 75, 61
1, 13604, Note_on_c, 0, 78, 0
1, 13604, Note_on_c, 0, 75, 0
1, 13632, Note_on_c, 0, 78, 61
1, 13632, Note_on_c, 0, 75, 61
1, 13677, Note_on_c, 0, 78, 0
1, 13677, Note_on_c, 0, 75, 0
1, 13680, Note_on_c, 0, 75, 61
1, 13680, Note_on_c, 0, 71, 61
1, 13700, Note_on_c, 0, 75, 0
1, 13700, Note_on_c, 0, 71, 0
1, 13728, Note_on_c, 0, 75, 61
1, 13728, Note_on_c, 0, 71, 61
1, 13773, Note_on_c, 0, 75, 0
1, 13773, Note_on_c, 0, 71, 0
1, 13776, Note_on_c, 0, 76, 61
1, 13776, Note_on_c, 0, 73, 61
1, 13796, Note_on_c, 0, 76, 0
1, 13796, Note_on_c, 0, 73, 0
1, 13824, Note_on_c, 0, 76, 61
1, 13824, Note_on_c, 0, 73, 61
1, 13872, Note_on_c, 0, 76, 0
1, 13872, Note_on_c, 0, 70, 61
1, 13917, Note_on_c, 0, 73, 0
1, 13917, Note_on_c, 0, 70, 0
1, 13968, Note_on_c, 0, 66, 84
1, 13968, Note_on_c, 1, 54, 84
1, 13988, Note_on_c, 0, 66, 0
1, 13988, Note_on_c, 1, 54, 0
1, 14016, Note_on_c, 0, 71, 84
1, 14016, Note_on_c, 1, 59, 84
1, 14064, Note_on_c, 0, 71, 0
1, 14064, Note_on_c, 0, 66, 84
1, 14064, Note_on_c, 1, 59, 0
1, 14064, Note_on_c, 1, 54, 84
1, 14109, Note_on_c, 0, 66, 0
1, 14109, Note_on_c, 1, 54, 0
1, 14112, Note_on_c, 0, 71, 84
1, 14112, Note_on_c, 1, 59, 84
1, 14135, Note_on_c, 0, 71, 0
1, 14135, Note_on_c, 1, 59, 0
1, 14136, Note_on_c, 0, 66, 84
1, 14136, Note_on_c, 1, 54, 84
1, 14159, Note_on_c, 0, 66, 0
1, 14159, Note_on_c, 1, 54, 0
1, 14160, Note_on_c, 0, 63, 84
1, 14160, Note_on_c, 1, 51, 84
1, 14183, Note_on_c, 0, 63, 0
1, 14183, Note_on_c, 1, 51, 0
1, 14184, Note_on_c, 0, 59, 84
1, 14184, Note_on_c, 1, 47, 84
1, 14207, Note_on_c, 0, 59, 0
1, 14207, Note_on_c, 1, 47, 0
1, 14208, Note_on_c, 0, 66, 84
1, 14208, Note_on_c, 1, 54, 84
1, 14297, Note_on_c, 0, 66, 0
1, 14297, Note_on_c, 1, 54, 0
1, 14352, Note_on_c, 0, 78, 61
1, 14352, Note_on_c, 0, 74, 61
1, 14372, Note_on_c, 0, 78, 0
1, 14372, Note_on_c, 0, 74, 0
1, 14400, Note_on_c, 0, 78, 61
1, 14400, Note_on_c, 0, 74, 61
1, 14445, Note_on_c, 0, 78, 0
1, 14445, Note_on_c, 0, 74, 0
1, 14448, Note_on_c, 0, 74, 61
1, 14448, Note_on_c, 0, 71, 61
1, 14468, Note_on_c, 0, 74, 0
1, 14468, Note_on_c, 0, 71, 0
1, 14496, Note_on_c, 0, 74, 61
1, 14496, Note_on_c, 0, 71, 61
1, 14541, Note_on_c, 0, 74, 0
1, 14541, Note_on_c, 0, 71, 0
1, 14544, Note_on_c, 0, 76, 61
1, 14544, Note_on_c, 0, 73, 61
1, 14564, Note_on_c, 0, 76, 0
1, 14564, Note_on_c, 0, 73, 0
1, 14592, Note_on_c, 0, 76, 61
1, 14592, Note_on_c, 0, 73, 61
1, 14640, Note_on_c, 0, 76, 0
1, 14640, Note_on_c, 0, 70, 61
1, 14685, Note_on_c, 0, 73, 0
1, 14685, Note_on_c, 0, 70, 0
1, 14736, Note_on_c, 0, 70, 69
1, 14781, Note_on_c, 0, 70, 0
1, 14784, Note_on_c, 0, 71, 69
1, 14784, Note_on_c, 1, 62, 84
1, 14784, Note_on_c, 1, 55, 64
1, 14851, Note_on_c, 0, 71, 0
1, 14856, Note_on_c, 0, 70, 69
1, 14873, Note_on_c, 1, 62, 0
1, 14879, Note_on_c, 0, 70, 0
1, 14880, Note_on_c, 0, 71, 69
1, 14880, Note_on_c, 1, 65, 84
1, 14903, Note_on_c, 0, 71, 0
1, 14904, Note_on_c, 0, 74, 69
1, 14927, Note_on_c, 0, 74, 0
1, 14928, Note_on_c, 0, 73, 69
1, 14951, Note_on_c, 0, 73, 0
1, 14952, Note_on_c, 0, 71, 69
1, 14961, Note_on_c, 1, 55, 0
1, 14969, Note_on_c, 1, 65, 0
1, 14975, Note_on_c, 0, 71, 0
1, 14976, Note_on_c, 0, 70, 69
1, 14976, Note_on_c, 1, 66, 84
1, 14976, Note_on_c, 1, 54, 84
1, 15065, Note_on_c, 0, 70, 0
1, 15065, Note_on_c, 1, 66, 0
1, 15065, Note_on_c, 1, 54, 0
1, 15120, Note_on_c, 0, 71, 75
1, 15120, Note_on_c, 0, 63, 75
1, 15165, Note_on_c, 0, 71, 0
1, 15165, Note_on_c, 0, 63, 0
1, 15168, Note_on_c, 0, 71, 75
1, 15168, Note_on_c, 0, 63, 75
1, 15168, Note_on_c, 1, 59, 75
1, 15168, Note_on_c, 1, 47, 75
1, 15213, Note_on_c, 0, 71, 0
1, 15213, Note_on_c, 0, 63, 0
1, 15216, Note_on_c, 0, 75, 75
1, 15216, Note_on_c, 0, 71, 75
1, 15236, Note_on_c, 0, 75, 0
1, 15236, Note_on_c, 0, 71, 0
1, 15257, Note_on_c, 1, 59, 0
1, 15257, Note_on_c, 1, 47, 0
1, 15264, Note_on_c, 0, 75, 75
1, 15264, Note_on_c, 0, 71, 75
1, 15309, Note_on_c, 0, 75, 0
1, 15309, Note_on_c, 0, 71, 0
1, 15312, Note_on_c, 0, 78, 75
1, 15312, Note_on_c, 0, 75, 75
1, 15332, Note_on_c, 0, 78, 0
1, 15332, Note_on_c, 0, 75, 0
1, 15360, Note_on_c, 0, 78, 75
1, 15360, Note_on_c, 0, 75, 64
1, 15427, Note_on_c, 0, 78, 0
1, 15432, Note_on_c, 0, 83, 75
1, 15455, Note_on_c, 0, 83, 0
1, 15456, Note_on_c, 0, 78, 75
1, 15501, Note_on_c, 0, 78, 0
1, 15501, Note_on_c, 0, 75, 0
1, 15552, Note_on_c, 0, 80, 75
1, 15552, Note_on_c, 1, 64, 75
1, 15575, Note_on_c, 1, 64, 0
1, 15576, Note_on_c, 1, 71, 75
1, 15599, Note_on_c, 1, 71, 0
1, 15600, Note_on_c, 1, 68, 75
1, 15619, Note_on_c, 0, 80, 0
1, 15623, Note_on_c, 1, 68, 0
1, 15624, Note_on_c, 0, 82, 75
1, 15624, Note_on_c, 1, 71, 75
1, 15647, Note_on_c, 0, 82, 0
1, 15647, Note_on_c, 1, 71, 0
1, 15648, Note_on_c, 0, 83, 75
1, 15648, Note_on_c, 1, 63, 75
1, 15671, Note_on_c, 1, 63, 0
1, 15672, Note_on_c, 1, 71, 75
1, 15693, Note_on_c, 0, 83, 0
1, 15695, Note_on_c, 1, 71, 0
1, 15696, Note_on_c, 1, 66, 75
1, 15719, Note_on_c, 1, 66, 0
1, 15720, Note_on_c, 1, 71, 75
1, 15743, Note_on_c, 1, 71, 0
1, 15744, Note_on_c, 0, 80, 75
1, 15744, Note_on_c, 1, 64, 75
1, 15767, Note_on_c, 1, 64, 0
1, 15768, Note_on_c, 1, 71, 75
1, 15791, Note_on_c, 1, 71, 0
1, 15792, Note_on_c, 1, 68, 75
1, 15811, Note_on_c, 0, 80, 0
1, 15815, Note_on_c, 1, 68, 0
1, 15816, Note_on_c, 0, 82, 75
1, 15816, Note_on_c, 1, 71, 75
1, 15839, Note_on_c, 0, 82, 0
1, 15839, Note_on_c, 1, 71, 0
1, 15840, Note_on_c, 0, 83, 75
1, 15840, Note_on_c, 1, 63, 75
1, 15863, Note_on_c, 1, 63, 0
1, 15864, Note_on_c, 1, 71, 75
1, 15885, Note_on_c, 0, 83, 0
1, 15887, Note_on_c, 1, 71, 0
1, 15888, Note_on_c, 1, 66, 75
1, 15911, Note_on_c, 1, 66, 0
1, 15912, Note_on_c, 1, 71, 75
1, 15935, Note_on_c, 1, 71, 0
1, 15936, Note_on_c, 0, 80, 75
1, 15936, Note_on_c, 1, 64, 75
1, 15959, Note_on_c, 0, 80, 0
1, 15960, Note_on_c, 0, 83, 75
1, 15983, Note_on_c, 0, 83, 0
1, 15984, Note_on_c, 0, 82, 75
1, 16007, Note_on_c, 0, 82, 0
1, 16008, Note_on_c, 0, 80, 75
1, 16025, Note_on_c, 1, 64, 0
1, 16031, Note_on_c, 0, 80, 0
1, 16032, Note_on_c, 0, 78, 75
1, 16055, Note_on_c, 0, 78, 0
1, 16056, Note_on_c, 0, 76, 75
1, 16079, Note_on_c, 0, 76, 0
1, 16080, Note_on_c, 0, 75, 75
1, 16103, Note_on_c, 0, 75, 0
1, 16104, Note_on_c, 0, 73, 75
1, 16127, Note_on_c, 0, 73, 0
1, 16128, Note_on_c, 0, 71, 75
1, 16128, Note_on_c, 1, 59, 75
1, 16128, Note_on_c, 1, 54, 75
1, 16217, Note_on_c, 0, 71, 0
1, 16217, Note_on_c, 1, 59, 0
1, 16217, Note_on_c, 1, 54, 0
1, 16224, Note_on_c, 0, 75, 75
1, 16224, Note_on_c, 1, 58, 75
1, 16224, Note_on_c, 1, 54, 75
1, 16239, Note_on_c, 0, 75, 0
1, 16240, Note_on_c, 0, 73, 75
1, 16255, Note_on_c, 0, 73, 0
1, 16256, Note_on_c, 0, 75, 75
1, 16271, Note_on_c, 0, 75, 0
1, 16272, Note_on_c, 0, 73, 75
1, 16287, Note_on_c, 0, 73, 0
1, 16288, Note_on_c, 0, 71, 75
1, 16303, Note_on_c, 0, 71, 0
1, 16304, Note_on_c, 0, 73, 75
1, 16313, Note_on_c, 1, 58, 0
1, 16313, Note_on_c, 1, 54, 0
1, 16319, Note_on_c, 0, 73, 0
1, 16320, Note_on_c, 0, 71, 84
1, 16320, Note_on_c, 1, 47, 84
1, 16343, Note_on_c, 1, 47, 0
1, 16344, Note_on_c, 1, 51, 84
1, 16367, Note_on_c, 1, 51, 0
1, 16368, Note_on_c, 1, 54, 84
1, 16391, Note_on_c, 1, 54, 0
1, 16392, Note_on_c, 1, 59, 84
1, 16409, Note_on_c, 0, 71, 0
1, 16415, Note_on_c, 1, 59, 0
1, 16416, Note_on_c, 0, 83, 84
1, 16416, Note_on_c, 0, 75, 84
1, 16416, Note_on_c, 1, 47, 84
1, 16439, Note_on_c, 1, 47, 0
1, 16440, Note_on_c, 1, 51, 84
1, 16461, Note_on_c, 0, 83, 0
1, 16461, Note_on_c, 0, 75, 0
1, 16463, Note_on_c, 1, 51, 0
1, 16464, Note_on_c, 1, 54, 84
1, 16487, Note_on_c, 1, 54, 0
1, 16488, Note_on_c, 1, 59, 84
1, 16511, Note_on_c, 1, 59, 0
1, 16512, Note_on_c, 0, 83, 84
1, 16512, Note_on_c, 0, 75, 84
1, 16512, Note_on_c, 1, 47, 84
1, 16601, Note_on_c, 0, 83, 0
1, 16601, Note_on_c, 0, 75, 0
1, 16601, Note_on_c, 1, 47, 0
1, 16656, Note_on_c, 0, 83, 84
1, 16676, Note_on_c, 0, 83, 0
1, 16704, Note_on_c, 0, 83, 84
1, 16704, Note_on_c, 1, 49, 84
1, 16727, Note_on_c, 1, 49, 0
1, 16728, Note_on_c, 1, 59, 83
1, 16751, Note_on_c, 1, 59, 0
1, 16752, Note_on_c, 0, 83, 0
1, 16752, Note_on_c, 0, 77, 83
1, 16752, Note_on_c, 1, 56, 83
1, 16775, Note_on_c, 1, 56, 0
1, 16776, Note_on_c, 1, 59, 83
1, 16797, Note_on_c, 0, 77, 0
1, 16799, Note_on_c, 1, 59, 0
1, 16800, Note_on_c, 1, 49, 82
1, 16823, Note_on_c, 1, 49, 0
1, 16824, Note_on_c, 1, 59, 82
1, 16847, Note_on_c, 1, 59, 0
1, 16848, Note_on_c, 0, 77, 82
1, 16848, Note_on_c, 1, 56, 82
1, 16868, Note_on_c, 0, 77, 0
1, 16871, Note_on_c, 1, 56, 0
1, 16872, Note_on_c, 1, 59, 81
1, 16895, Note_on_c, 1, 59, 0
1, 16896, Note_on_c, 0, 78, 81
1, 16896, Note_on_c, 1, 49, 81
1, 16919, Note_on_c, 1, 49, 0
1, 16920, Note_on_c, 1, 57, 81
1, 16943, Note_on_c, 1, 57, 0
1, 16944, Note_on_c, 0, 78, 0
1, 16944, Note_on_c, 0, 73, 80
1, 16944, Note_on_c, 1, 54, 80
1, 16967, Note_on_c, 1, 54, 0
1, 16968, Note_on_c, 1, 57, 80
1, 16989, Note_on_c, 0, 73, 0
1, 16991, Note_on_c, 1, 57, 0
1, 16992, Note_on_c, 1, 49, 80
1, 17015, Note_on_c, 1, 49, 0
1, 17016, Note_on_c, 1, 57, 79
1, 17039, Note_on_c, 1, 57, 0
1, 17040, Note_on_c, 0, 81, 79
1, 17040, Note_on_c, 1, 54, 79
1, 17060, Note_on_c, 0, 81, 0
1, 17063, Note_on_c, 1, 54, 0
1, 17064, Note_on_c, 1, 57, 79
1, 17087, Note_on_c, 1, 57, 0
1, 17088, Note_on_c, 0, 80, 78
1, 17088, Note_on_c, 1, 49, 78
1, 17111, Note_on_c, 1, 49, 0
1, 17112, Note_on_c, 1, 56, 78
1, 17135, Note_on_c, 1, 56, 0
1, 17136, Note_on_c, 0, 80, 0
1, 17136, Note_on_c, 0, 71, 78
1, 17136, Note_on_c, 1, 53, 78
1, 17159, Note_on_c, 1, 53, 0
1, 17160, Note_on_c, 1, 56, 77
1, 17181, Note_on_c, 0, 71, 0
1, 17183, Note_on_c, 1, 56, 0
1, 17184, Note_on_c, 1, 49, 77
1, 17207, Note_on_c, 1, 49, 0
1, 17208, Note_on_c, 1, 56, 77
1, 17231, Note_on_c, 1, 56, 0
1, 17232, Note_on_c, 0, 71, 76
1, 17232, Note_on_c, 1, 53, 76
1, 17252, Note_on_c, 0, 71, 0
1, 17255, Note_on_c, 1, 53, 0
1, 17256, Note_on_c, 1, 56, 76
1, 17279, Note_on_c, 1, 56, 0
1, 17280, Note_on_c, 0, 69, 76
1, 17280, Note_on_c, 1, 49, 76
1, 17303, Note_on_c, 1, 49, 0
1, 17304, Note_on_c, 1, 57, 75
1, 17327, Note_on_c, 1, 57, 0
1, 17328, Note_on_c, 0, 69, 0
1, 17328, Note_on_c, 0, 66, 75
1, 17328, Note_on_c, 1, 54, 75
1, 17351, Note_on_c, 1, 54, 0
1, 17352, Note_on_c, 1, 57, 75
1, 17373, Note_on_c, 0, 66, 0
1, 17375, Note_on_c, 1, 57, 0
1, 17376, Note_on_c, 1, 49, 75
1, 17399, Note_on_c, 1, 49, 0
1, 17400, Note_on_c, 1, 57, 75
1, 17423, Note_on_c, 1, 57, 0
1, 17424, Note_on_c, 0, 81, 75
1, 17424, Note_on_c, 1, 54, 75
1, 17444, Note_on_c, 0, 81, 0
1, 17447, Note_on_c, 1, 54, 0
1, 17448, Note_on_c, 1, 57, 75
1, 17471, Note_on_c, 1, 57, 0
1, 17472, Note_on_c, 0, 81, 84
1, 17472, Note_on_c, 1, 47, 84
1, 17495, Note_on_c, 1, 47, 0
1, 17496, Note_on_c, 1, 57, 83
1, 17519, Note_on_c, 1, 57, 0
1, 17520, Note_on_c, 0, 81, 0
1, 17520, Note_on_c, 0, 75, 83
1, 17520, Note_on_c, 1, 54, 83
1, 17543, Note_on_c, 1, 54, 0
1, 17544, Note_on_c, 1, 57, 83
1, 17565, Note_on_c, 0, 75, 0
1, 17567, Note_on_c, 1, 57, 0
1, 17568, Note_on_c, 1, 47, 82
1, 17591, Note_on_c, 1, 47, 0
1, 17592, Note_on_c, 1, 57, 82
1, 17615, Note_on_c, 1, 57, 0
1, 17616, Note_on_c, 0, 75, 82
1, 17616, Note_on_c, 1, 54, 82
1, 17636, Note_on_c, 0, 75, 0
1, 17639, Note_on_c, 1, 54, 0
1, 17640, Note_on_c, 1, 57, 81
1, 17663, Note_on_c, 1, 57, 0
1, 17664, Note_on_c, 0, 76, 81
1, 17664, Note_on_c, 1, 47, 81
1, 17687, Note_on_c, 1, 47, 0
1, 17688, Note_on_c, 1, 56, 81
1, 17711, Note_on_c, 1, 56, 0
1, 17712, Note_on_c, 0, 76, 0
1, 17712, Note_on_c, 0, 71, 80
1, 17712, Note_on_c, 1, 52, 80
1, 17735, Note_on_c, 1, 52, 0
1, 17736, Note_on_c, 1, 56, 80
1, 17757, Note_on_c, 0, 71, 0
1, 17759, Note_on_c, 1, 56, 0
1, 17760, Note_on_c, 1, 47, 80
1, 17783, Note_on_c, 1, 47, 0
1, 17784, Note_on_c, 1, 56, 79
1, 17807, Note_on_c, 1, 56, 0
1, 17808, Note_on_c, 0, 80, 79
1, 17808, Note_on_c, 1, 52, 79
1, 17828, Note_on_c, 0, 80, 0
1, 17831, Note_on_c, 1, 52, 0
1, 17832, Note_on_c, 1, 56, 79
1, 17855, Note_on_c, 1, 56, 0
1, 17856, Note_on_c, 0, 78, 78
1, 17856, Note_on_c, 1, 47, 78
1, 17879, Note_on_c, 1, 47, 0
1, 17880, Note_on_c, 1, 54, 78
1, 17903, Note_on_c, 1, 54, 0
1, 17904, Note_on_c, 0, 78, 0
1, 17904, Note_on_c, 0, 69, 78
1, 17904, Note_on_c, 1, 51, 78
1, 17927, Note_on_c, 1, 51, 0
1, 17928, Note_on_c, 1, 54, 77
1, 17949, Note_on_c, 0, 69, 0
1, 17951, Note_on_c, 1, 54, 0
1, 17952, Note_on_c, 1, 47, 77
1, 17975, Note_on_c, 1, 47, 0
1, 17976, Note_on_c, 1, 54, 77
1, 17999, Note_on_c, 1, 54, 0
1, 18000, Note_on_c, 0, 69, 76
1, 18000, Note_on_c, 1, 51, 76
1, 18020, Note_on_c, 0, 69, 0
1, 18023, Note_on_c, 1, 51, 0
1, 18024, Note_on_c, 1, 54, 76
1, 18047, Note_on_c, 1, 54, 0
1, 18048, Note_on_c, 0, 68, 76
1, 18048, Note_on_c, 1, 47, 76
1, 18071, Note_on_c, 1, 47, 0
1, 18072, Note_on_c, 1, 56, 75
1, 18095, Note_on_c, 1, 56, 0
1, 18096, Note_on_c, 0, 68, 0
1, 18096, Note_on_c, 0, 64, 75
1, 18096, Note_on_c, 1, 52, 75
1, 18119, Note_on_c, 1, 52, 0
1, 18120, Note_on_c, 1, 56, 75
1, 18141, Note_on_c, 0, 64, 0
1, 18143, Note_on_c, 1, 56, 0
1, 18144, Note_on_c, 1, 47, 75
1, 18167, Note_on_c, 1, 47, 0
1, 18168, Note_on_c, 1, 56, 75
1, 18191, Note_on_c, 1, 56, 0
1, 18192, Note_on_c, 0, 83, 75
1, 18192, Note_on_c, 1, 52, 75
1, 18212, Note_on_c, 0, 83, 0
1, 18215, Note_on_c, 1, 52, 0
1, 18216, Note_on_c, 1, 56, 75
1, 18239, Note_on_c, 1, 56, 0
1, 18240, Note_on_c, 0, 83, 75
1, 18240, Note_on_c, 1, 44, 75
1, 18263, Note_on_c, 1, 44, 0
1, 18264, Note_on_c, 1, 52, 75
1, 18287, Note_on_c, 1, 52, 0
1, 18288, Note_on_c, 0, 83, 0
1, 18288, Note_on_c, 0, 74, 76
1, 18288, Note_on_c, 1, 47, 76
1, 18311, Note_on_c, 1, 47, 0
1, 18312, Note_on_c, 1, 52, 76
1, 18333, Note_on_c, 0, 74, 0
1, 18335, Note_on_c, 1, 52, 0
1, 18336, Note_on_c, 1, 44, 77
1, 18359, Note_on_c, 1, 44, 0
1, 18360, Note_on_c, 1, 52, 78
1, 18383, Note_on_c, 1, 52, 0
1, 18384, Note_on_c, 0, 74, 78
1, 18384, Note_on_c, 1, 47, 78
1, 18404, Note_on_c, 0, 74, 0
1, 18407, Note_on_c, 1, 47, 0
1, 18408, Note_on_c, 1, 52, 79
1, 18431, Note_on_c, 1, 52, 0
1, 18432, Note_on_c, 0, 72, 79
1, 18432, Note_on_c, 1, 45, 79
1, 18455, Note_on_c, 1, 45, 0
1, 18456, Note_on_c, 1, 52, 80
1, 18479, Note_on_c, 1, 52, 0
1, 18480, Note_on_c, 0, 72, 0
1, 18480, Note_on_c, 0, 73, 80
1, 18480, Note_on_c, 1, 49, 81
1, 18503, Note_on_c, 1, 49, 0
1, 18504, Note_on_c, 1, 52, 81
1, 18525, Note_on_c, 0, 73, 0
1, 18527, Note_on_c, 1, 52, 0
1, 18528, Note_on_c, 1, 45, 82
1, 18551, Note_on_c, 1, 45, 0
1, 18552, Note_on_c, 1, 52, 82
1, 18575, Note_on_c, 1, 52, 0
1, 18576, Note_on_c, 0, 85, 82
1, 18576, Note_on_c, 1, 49, 83
1, 18596, Note_on_c, 0, 85, 0
1, 18599, Note_on_c, 1, 49, 0
1, 18600, Note_on_c, 1, 52, 84
1, 18623, Note_on_c, 1, 52, 0
1, 18624, Note_on_c, 0, 85, 84
1, 18624, Note_on_c, 1, 46, 84
1, 18647, Note_on_c, 1, 46, 0
1, 18648, Note_on_c, 1, 54, 84
1, 18671, Note_on_c, 1, 54, 0
1, 18672, Note_on_c, 0, 85, 0
1, 18672, Note_on_c, 0, 76, 84
1, 18672, Note_on_c, 1, 49, 84
1, 18695, Note_on_c, 1, 49, 0
1, 18696, Note_on_c, 1, 54, 84
1, 18717, Note_on_c, 0, 76, 0
1, 18719, Note_on_c, 1, 54, 0
1, 18720, Note_on_c, 1, 46, 84
1, 18743, Note_on_c, 1, 46, 0
1, 18744, Note_on_c, 1, 54, 84
1, 18767, Note_on_c, 1, 54, 0
1, 18768, Note_on_c, 0, 76, 84
1, 18768, Note_on_c, 1, 49, 84
1, 18788, Note_on_c, 0, 76, 0
1, 18791, Note_on_c, 1, 49, 0
1, 18792, Note_on_c, 1, 54, 84
1, 18815, Note_on_c, 1, 54, 0
1, 18816, Note_on_c, 0, 75, 84
1, 18816, Note_on_c, 1, 47, 84
1, 18839, Note_on_c, 0, 75, 0
1, 18840, Note_on_c, 0, 71, 84
1, 18863, Note_on_c, 0, 71, 0
1, 18864, Note_on_c, 0, 78, 84
1, 18887, Note_on_c, 0, 78, 0
1, 18888, Note_on_c, 0, 75, 84
1, 18905, Note_on_c, 1, 47, 0
1, 18911, Note_on_c, 0, 75, 0
1, 18912, Note_on_c, 0, 83, 84
1, 18935, Note_on_c, 0, 83, 0
1, 18936, Note_on_c, 0, 78, 84
1, 18959, Note_on_c, 0, 78, 0
1, 18960, Note_on_c, 0, 75, 84
1, 18983, Note_on_c, 0, 75, 0
1, 18984, Note_on_c, 0, 71, 84
1, 19007, Note_on_c, 0, 71, 0
1, 19008, Note_on_c, 0, 81, 84
1, 19008, Note_on_c, 1, 63, 84
1, 19008, Note_on_c, 1, 51, 84
1, 19031, Note_on_c, 0, 81, 0
1, 19032, Note_on_c, 0, 78, 84
1, 19055, Note_on_c, 0, 78, 0
1, 19056, Note_on_c, 0, 75, 84
1, 19079, Note_on_c, 0, 75, 0
1, 19080, Note_on_c, 0, 71, 84
1, 19097, Note_on_c, 1, 63, 0
1, 19097, Note_on_c, 1, 51, 0
1, 19103, Note_on_c, 0, 71, 0
1, 19104, Note_on_c, 0, 80, 84
1, 19104, Note_on_c, 1, 64, 84
1, 19104, Note_on_c, 1, 52, 84
1, 19127, Note_on_c, 0, 80, 0
1, 19128, Note_on_c, 0, 76, 84
1, 19151, Note_on_c, 0, 76, 0
1, 19152, Note_on_c, 0, 75, 84
1, 19175, Note_on_c, 0, 75, 0
1, 19176, Note_on_c, 0, 76, 84
1, 19193, Note_on_c, 1, 64, 0
1, 19193, Note_on_c, 1, 52, 0
1, 19199, Note_on_c, 0, 76, 0
1, 19200, Note_on_c, 0, 75, 84
1, 19200, Note_on_c, 1, 59, 84
1, 19200, Note_on_c, 1, 47, 84
1, 19223, Note_on_c, 0, 75, 0
1, 19224, Note_on_c, 0, 71, 84
1, 19247, Note_on_c, 0, 71, 0
1, 19248, Note_on_c, 0, 78, 84
1, 19271, Note_on_c, 0, 78, 0
1, 19272, Note_on_c, 0, 75, 84
1, 19289, Note_on_c, 1, 59, 0
1, 19289, Note_on_c, 1, 47, 0
1, 19295, Note_on_c, 0, 75, 0
1, 19296, Note_on_c, 0, 83, 84
1, 19319, Note_on_c, 0, 83, 0
1, 19320, Note_on_c, 0, 78, 84
1, 19343, Note_on_c, 0, 78, 0
1, 19344, Note_on_c, 0, 75, 84
1, 19367, Note_on_c, 0, 75, 0
1, 19368, Note_on_c, 0, 71, 84
1, 19391, Note_on_c, 0, 71, 0
1, 19392, Note_on_c, 0, 81, 84
1, 19392, Note_on_c, 1, 63, 84
1, 19392, Note_on_c, 1, 51, 84
1, 19415, Note_on_c, 0, 81, 0
1, 19416, Note_on_c, 0, 78, 84
1, 19439, Note_on_c, 0, 78, 0
1, 19440, Note_on_c, 0, 75, 84
1, 19463, Note_on_c, 0, 75, 0
1, 19464, Note_on_c, 0, 71, 84
1, 19481, Note_on_c, 1, 63, 0
1, 19481, Note_on_c, 1, 51, 0
1, 19487, Note_on_c, 0, 71, 0
1, 19488, Note_on_c, 0, 80, 84
1, 19488, Note_on_c, 1, 64, 84
1, 19488, Note_on_c, 1, 52, 84
1, 19511, Note_on_c, 0, 80, 0
1, 19512, Note_on_c, 0, 76, 84
1, 19535, Note_on_c, 0, 76, 0
1, 19536, Note_on_c, 0, 75, 84
1, 19559, Note_on_c, 0, 75, 0
1, 19560, Note_on_c, 0, 76, 84
1, 19577, Note_on_c, 1, 64, 0
1, 19577, Note_on_c, 1, 52, 0
1, 19583, Note_on_c, 0, 76, 0
1, 19584, Note_on_c, 0, 75, 84
1, 19584, Note_on_c, 1, 59, 84
1, 19584, Note_on_c, 1, 47, 84
1, 19629, Note_on_c, 0, 75, 0
1, 19632, Note_on_c, 0, 83, 84
1, 19673, Note_on_c, 1, 59, 0
1, 19673, Note_on_c, 1, 47, 0
1, 19677, Note_on_c, 0, 83, 0
1, 19728, Note_on_c, 0, 64, 75
1, 19728, Note_on_c, 0, 56, 75
1, 19748, Note_on_c, 0, 64, 0
1, 19748, Note_on_c, 0, 56, 0
1, 19776, Note_on_c, 0, 64, 75
1, 19776, Note_on_c, 0, 56, 75
1, 19824, Note_on_c, 1, 52, 75
1, 19824, Note_on_c, 1, 40, 75
1, 19844, Note_on_c, 1, 52, 0
1, 19844, Note_on_c, 1, 40, 0
1, 19865, Note_on_c, 0, 64, 0
1, 19865, Note_on_c, 0, 56, 0
1, 19872, Note_on_c, 1, 52, 76
1, 19872, Note_on_c, 1, 40, 76
1, 19920, Note_on_c, 0, 68, 76
1, 19920, Note_on_c, 0, 64, 76
1, 19940, Note_on_c, 0, 68, 0
1, 19940, Note_on_c, 0, 64, 0
1, 19961, Note_on_c, 1, 52, 0
1, 19961, Note_on_c, 1, 40, 0
1, 19968, Note_on_c, 0, 68, 77
1, 19968, Note_on_c, 0, 64, 77
1, 20016, Note_on_c, 1, 52, 78
1, 20016, Note_on_c, 1, 40, 78
1, 20036, Note_on_c, 1, 52, 0
1, 20036, Note_on_c, 1, 40, 0
1, 20057, Note_on_c, 0, 68, 0
1, 20057, Note_on_c, 0, 64, 0
1, 20064, Note_on_c, 1, 52, 78
1, 20064, Note_on_c, 1, 40, 78
1, 20112, Note_on_c, 0, 71, 79
1, 20112, Note_on_c, 0, 68, 79
1, 20132, Note_on_c, 0, 71, 0
1, 20132, Note_on_c, 0, 68, 0
1, 20153, Note_on_c, 1, 52, 0
1, 20153, Note_on_c, 1, 40, 0
1, 20160, Note_on_c, 0, 71, 80
1, 20160, Note_on_c, 0, 68, 80
1, 20208, Note_on_c, 1, 52, 80
1, 20208, Note_on_c, 1, 40, 80
1, 20228, Note_on_c, 1, 52, 0
1, 20228, Note_on_c, 1, 40, 0
1, 20249, Note_on_c, 0, 71, 0
1, 20249, Note_on_c, 0, 68, 0
1, 20256, Note_on_c, 1, 52, 81
1, 20256, Note_on_c, 1, 40, 81
1, 20304, Note_on_c, 0, 76, 82
1, 20304, Note_on_c, 0, 68, 82
1, 20324, Note_on_c, 0, 76, 0
1, 20324, Note_on_c, 0, 68, 0
1, 20345, Note_on_c, 1, 52, 0
1, 20345, Note_on_c, 1, 40, 0
1, 20352, Note_on_c, 0, 76, 82
1, 20352, Note_on_c, 0, 68, 82
1, 20400, Note_on_c, 1, 52, 83
1, 20400, Note_on_c, 1, 40, 83
1, 20441, Note_on_c, 0, 76, 0
1, 20441, Note_on_c, 0, 68, 0
1, 20445, Note_on_c, 1, 52, 0
1, 20445, Note_on_c, 1, 40, 0
1, 20448, Note_on_c, 1, 52, 84
1, 20448, Note_on_c, 1, 40, 84
1, 20496, Note_on_c, 0, 71, 83
1, 20496, Note_on_c, 0, 68, 83
1, 20516, Note_on_c, 0, 71, 0
1, 20516, Note_on_c, 0, 68, 0
1, 20537, Note_on_c, 1, 52, 0
1, 20537, Note_on_c, 1, 40, 0
1, 20544, Note_on_c, 0, 69, 82
1, 20544, Note_on_c, 0, 66, 82
1, 20544, Note_on_c, 1, 47, 82
1, 20544, Note_on_c, 1, 35, 82
1, 20592, Note_on_c, 0, 69, 0
1, 20592, Note_on_c, 0, 66, 0
1, 20592, Note_on_c, 0, 68, 82
1, 20592, Note_on_c, 0, 64, 82
1, 20612, Note_on_c, 0, 68, 0
1, 20612, Note_on_c, 0, 64, 0
1, 20633, Note_on_c, 1, 47, 0
1, 20633, Note_on_c, 1, 35, 0
1, 20640, Note_on_c, 0, 69, 81
1, 20640, Note_on_c, 0, 66, 81
1, 20640, Note_on_c, 1, 47, 81
1, 20640, Note_on_c, 1, 35, 81
1, 20688, Note_on_c, 0, 69, 0
1, 20688, Note_on_c, 0, 63, 80
1, 20708, Note_on_c, 0, 66, 0
1, 20708, Note_on_c, 0, 63, 0
1, 20729, Note_on_c, 1, 47, 0
1, 20729, Note_on_c, 1, 35, 0
1, 20736, Note_on_c, 0, 68, 80
1, 20736, Note_on_c, 0, 64, 80
1, 20736, Note_on_c, 1, 52, 80
1, 20736, Note_on_c, 1, 40, 80
1, 20781, Note_on_c, 0, 68, 0
1, 20781, Note_on_c, 0, 64, 0
1, 20784, Note_on_c, 0, 71, 79
1, 20784, Note_on_c, 0, 68, 79
1, 20825, Note_on_c, 1, 52, 0
1, 20825, Note_on_c, 1, 40, 0
1, 20829, Note_on_c, 0, 71, 0
1, 20829, Note_on_c, 0, 68, 0
1, 20832, Note_on_c, 1, 52, 78
1, 20832, Note_on_c, 1, 40, 78
1, 20880, Note_on_c, 0, 71, 78
1, 20880, Note_on_c, 0, 68, 78
1, 20900, Note_on_c, 0, 71, 0
1, 20900, Note_on_c, 0, 68, 0
1, 20921, Note_on_c, 1, 52, 0
1, 20921, Note_on_c, 1, 40, 0
1, 20928, Note_on_c, 0, 69, 77
1, 20928, Note_on_c, 0, 66, 77
1, 20928, Note_on_c, 1, 47, 77
1, 20928, Note_on_c, 1, 35, 77
1, 20976, Note_on_c, 0, 69, 0
1, 20976, Note_on_c, 0, 66, 0
1, 20976, Note_on_c, 0, 68, 76
1, 20976, Note_on_c, 0, 64, 76
1, 20996, Note_on_c, 0, 68, 0
1, 20996, Note_on_c, 0, 64, 0
1, 21017, Note_on_c, 1, 47, 0
1, 21017, Note_on_c, 1, 35, 0
1, 21024, Note_on_c, 0, 69, 76
1, 21024, Note_on_c, 0, 66, 76
1, 21024, Note_on_c, 1, 47, 76
1, 21024, Note_on_c, 1, 35, 76
1, 21072, Note_on_c, 0, 69, 0
1, 21072, Note_on_c, 0, 63, 75
1, 21092, Note_on_c, 0, 66, 0
1, 21092, Note_on_c, 0, 63, 0
1, 21113, Note_on_c, 1, 47, 0
1, 21113, Note_on_c, 1, 35, 0
1, 21120, Note_on_c, 0, 64, 75
1, 21120, Note_on_c, 1, 52, 75
1, 21120, Note_on_c, 1, 40, 75
1, 21165, Note_on_c, 0, 64, 0
1, 21168, Note_on_c, 0, 59, 75
1, 21209, Note_on_c, 1, 52, 0
1, 21209, Note_on_c, 1, 40, 0
1, 21213, Note_on_c, 0, 59, 0
1, 21264, Note_on_c, 0, 64, 69
1, 21264, Note_on_c, 0, 55, 69
1, 21284, Note_on_c, 0, 64, 0
1, 21284, Note_on_c, 0, 55, 0
1, 21312, Note_on_c, 0, 64, 69
1, 21312, Note_on_c, 0, 55, 69
1, 21360, Note_on_c, 1, 52, 69
1, 21360, Note_on_c, 1, 40, 69
1, 21380, Note_on_c, 1, 52, 0
1, 21380, Note_on_c, 1, 40, 0
1, 21401, Note_on_c, 0, 64, 0
1, 21401, Note_on_c, 0, 55, 0
1, 21408, Note_on_c, 1, 52, 69
1, 21408, Note_on_c, 1, 40, 69
1, 21456, Note_on_c, 0, 67, 69
1, 21456, Note_on_c, 0, 64, 69
1, 21476, Note_on_c, 0, 67, 0
1, 21476, Note_on_c, 0, 64, 0
1, 21497, Note_on_c, 1, 52, 0
1, 21497, Note_on_c, 1, 40, 0
1, 21504, Note_on_c, 0, 66, 69
1, 21504, Note_on_c, 0, 63, 69
1, 21552, Note_on_c, 1, 47, 69
1, 21552, Note_on_c, 1, 35, 69
1, 21572, Note_on_c, 1, 47, 0
1, 21572, Note_on_c, 1, 35, 0
1, 21593, Note_on_c, 0, 66, 0
1, 21593, Note_on_c, 0, 63, 0
1, 21600, Note_on_c, 1, 47, 70
1, 21600, Note_on_c, 1, 35, 70
1, 21648, Note_on_c, 0, 66, 71
1, 21648, Note_on_c, 0, 63, 71
1, 21668, Note_on_c, 0, 66, 0
1, 21668, Note_on_c, 0, 63, 0
1, 21689, Note_on_c, 1, 47, 0
1, 21689, Note_on_c, 1, 35, 0
1, 21696, Note_on_c, 0, 66, 72
1, 21696, Note_on_c, 0, 63, 72
1, 21744, Note_on_c, 1, 47, 73
1, 21744, Note_on_c, 1, 35, 73
1, 21764, Note_on_c, 1, 47, 0
1, 21764, Note_on_c, 1, 35, 0
1, 21785, Note_on_c, 0, 66, 0
1, 21785, Note_on_c, 0, 63, 0
1, 21792, Note_on_c, 1, 47, 74
1, 21792, Note_on_c, 1, 35, 74
1, 21840, Note_on_c, 0, 69, 74
1, 21840, Note_on_c, 0, 66, 74
1, 21860, Note_on_c, 0, 69, 0
1, 21860, Note_on_c, 0, 66, 0
1, 21881, Note_on_c, 1, 47, 0
1, 21881, Note_on_c, 1, 35, 0
1, 21888, Note_on_c, 0, 67, 75
1, 21888, Note_on_c, 0, 64, 75
1, 21936, Note_on_c, 1, 52, 76
1, 21936, Note_on_c, 1, 40, 76
1, 21956, Note_on_c, 1, 52, 0
1, 21956, Note_on_c, 1, 40, 0
1, 21977, Note_on_c, 0, 67, 0
1, 21977, Note_on_c, 0, 64, 0
1, 21984, Note_on_c, 1, 52, 77
1, 21984, Note_on_c, 1, 40, 77
1, 22032, Note_on_c, 0, 71, 78
1, 22032, Note_on_c, 0, 67, 78
1, 22052, Note_on_c, 0, 71, 0
1, 22052, Note_on_c, 0, 67, 0
1, 22073, Note_on_c, 1, 52, 0
1, 22073, Note_on_c, 1, 40, 0
1, 22080, Note_on_c, 0, 72, 79
1, 22080, Note_on_c, 0, 69, 79
1, 22128, Note_on_c, 1, 52, 80
1, 22128, Note_on_c, 1, 40, 80
1, 22148, Note_on_c, 1, 52, 0
1, 22148, Note_on_c, 1, 40, 0
1, 22169, Note_on_c, 0, 72, 0
1, 22169, Note_on_c, 0, 69, 0
1, 22176, Note_on_c, 1, 52, 81
1, 22176, Note_on_c, 1, 40, 81
1, 22224, Note_on_c, 0, 75, 81
1, 22224, Note_on_c, 0, 66, 81
1, 22244, Note_on_c, 0, 75, 0
1, 22244, Note_on_c, 0, 66, 0
1, 22265, Note_on_c, 1, 52, 0
1, 22265, Note_on_c, 1, 40, 0
1, 22272, Note_on_c, 0, 76, 98
1, 22272, Note_on_c, 0, 67, 98
1, 22320, Note_on_c, 1, 52, 84
1, 22320, Note_on_c, 1, 40, 84
1, 22340, Note_on_c, 1, 52, 0
1, 22340, Note_on_c, 1, 40, 0
1, 22368, Note_on_c, 0, 76, 0
1, 22368, Note_on_c, 0, 67, 0
1, 22368, Note_on_c, 1, 52, 84
1, 22368, Note_on_c, 1, 40, 84
1, 22416, Note_on_c, 0, 71, 84
1, 22416, Note_on_c, 0, 67, 84
1, 22457, Note_on_c, 1, 52, 0
1, 22457, Note_on_c, 1, 40, 0
1, 22461, Note_on_c, 0, 71, 0
1, 22461, Note_on_c, 0, 67, 0
1, 22464, Note_on_c, 1, 47, 84
1, 22464, Note_on_c, 1, 35, 84
1, 22509, Note_on_c, 1, 47, 0
1, 22509, Note_on_c, 1, 35, 0
1, 22512, Note_on_c, 0, 69, 81
1, 22512, Note_on_c, 0, 66, 81
1, 22557, Note_on_c, 0, 69, 0
1, 22557, Note_on_c, 0, 66, 0
1, 22560, Note_on_c, 1, 47, 81
1, 22560, Note_on_c, 1, 35, 81
1, 22605, Note_on_c, 1, 47, 0
1, 22605, Note_on_c, 1, 35, 0
1, 22608, Note_on_c, 0, 67, 78
1, 22608, Note_on_c, 0, 64, 78
1, 22653, Note_on_c, 0, 67, 0
1, 22653, Note_on_c, 0, 64, 0
1, 22656, Note_on_c, 1, 47, 78
1, 22656, Note_on_c, 1, 35, 78
1, 22704, Note_on_c, 0, 66, 76
1, 22704, Note_on_c, 0, 63, 76
1, 22745, Note_on_c, 1, 47, 0
1, 22745, Note_on_c, 1, 35, 0
1, 22749, Note_on_c, 0, 66, 0
1, 22749, Note_on_c, 0, 63, 0
1, 22752, Note_on_c, 0, 59, 75
1, 22797, Note_on_c, 0, 59, 0
1, 22800, Note_on_c, 0, 71, 75
1, 22800, Note_on_c, 0, 67, 75
1, 22845, Note_on_c, 0, 71, 0
1, 22845, Note_on_c, 0, 67, 0
1, 22848, Note_on_c, 1, 47, 75
1, 22848, Note_on_c, 1, 35, 75
1, 22893, Note_on_c, 1, 47, 0
1, 22893, Note_on_c, 1, 35, 0
1, 22896, Note_on_c, 0, 69, 73
1, 22896, Note_on_c, 0, 66, 73
1, 22941, Note_on_c, 0, 69, 0
1, 22941, Note_on_c, 0, 66, 0
1, 22944, Note_on_c, 1, 47, 73
1, 22944, Note_on_c, 1, 35, 73
1, 22989, Note_on_c, 1, 47, 0
1, 22989, Note_on_c, 1, 35, 0
1, 22992, Note_on_c, 0, 67, 71
1, 22992, Note_on_c, 0, 64, 71
1, 23037, Note_on_c, 0, 67, 0
1, 23037, Note_on_c, 0, 64, 0
1, 23040, Note_on_c, 1, 47, 71
1, 23040, Note_on_c, 1, 35, 71
1, 23088, Note_on_c, 0, 66, 69
1, 23088, Note_on_c, 0, 63, 69
1, 23129, Note_on_c, 1, 47, 0
1, 23129, Note_on_c, 1, 35, 0
1, 23133, Note_on_c, 0, 66, 0
1, 23133, Note_on_c, 0, 63, 0
1, 23136, Note_on_c, 0, 59, 69
1, 23181, Note_on_c, 0, 59, 0
1, 23184, Note_on_c, 0, 71, 69
1, 23184, Note_on_c, 0, 67, 69
1, 23229, Note_on_c, 0, 71, 0
1, 23229, Note_on_c, 0, 67, 0
1, 23232, Note_on_c, 1, 47, 69
1, 23232, Note_on_c, 1, 35, 69
1, 23277, Note_on_c, 1, 47, 0
1, 23277, Note_on_c, 1, 35, 0
1, 23280, Note_on_c, 0, 69, 66
1, 23280, Note_on_c, 0, 66, 66
1, 23325, Note_on_c, 0, 69, 0
1, 23325, Note_on_c, 0, 66, 0
1, 23328, Note_on_c, 1, 47, 66
1, 23328, Note_on_c, 1, 35, 66
1, 23373, Note_on_c, 1, 47, 0
1, 23373, Note_on_c, 1, 35, 0
1, 23376, Note_on_c, 0, 67, 64
1, 23376, Note_on_c, 0, 64, 64
1, 23421, Note_on_c, 0, 67, 0
1, 23421, Note_on_c, 0, 64, 0
1, 23424, Note_on_c, 0, 66, 63
1, 23424, Note_on_c, 0, 63, 63
1, 23424, Note_on_c, 1, 47, 63
1, 23424, Note_on_c, 1, 35, 63
1, 23513, Note_on_c, 0, 66, 0
1, 23513, Note_on_c, 0, 63, 0
1, 23513, Note_on_c, 1, 47, 0
1, 23513, Note_on_c, 1, 35, 0
1, 23616, Note_on_c, 0, 68, 84
1, 23616, Note_on_c, 1, 56, 84
1, 23616, Note_on_c, 1, 44, 84
1, 23639, Note_on_c, 0, 68, 0
1, 23640, Note_on_c, 0, 64, 84
1, 23663, Note_on_c, 0, 64, 0
1, 23664, Note_on_c, 0, 71, 84
1, 23687, Note_on_c, 0, 71, 0
1, 23688, Note_on_c, 0, 68, 84
1, 23705, Note_on_c, 1, 56, 0
1, 23705, Note_on_c, 1, 44, 0
1, 23711, Note_on_c, 0, 68, 0
1, 23712, Note_on_c, 0, 76, 84
1, 23735, Note_on_c, 0, 76, 0
1, 23736, Note_on_c, 0, 71, 84
1, 23759, Note_on_c, 0, 71, 0
1, 23760, Note_on_c, 0, 68, 84
1, 23760, Note_on_c, 1, 56, 84
1, 23760, Note_on_c, 1, 44, 84
1, 23783, Note_on_c, 0, 68, 0
1, 23784, Note_on_c, 0, 64, 84
1, 23805, Note_on_c, 1, 56, 0
1, 23805, Note_on_c, 1, 44, 0
1, 23807, Note_on_c, 0, 64, 0
1, 23808, Note_on_c, 0, 68, 84
1, 23808, Note_on_c, 1, 57, 84
1, 23808, Note_on_c, 1, 45, 84
1, 23831, Note_on_c, 0, 68, 0
1, 23832, Note_on_c, 0, 64, 84
1, 23855, Note_on_c, 0, 64, 0
1, 23856, Note_on_c, 0, 71, 84
1, 23879, Note_on_c, 0, 71, 0
1, 23880, Note_on_c, 0, 68, 84
1, 23897, Note_on_c, 1, 57, 0
1, 23897, Note_on_c, 1, 45, 0
1, 23903, Note_on_c, 0, 68, 0
1, 23904, Note_on_c, 0, 76, 84
1, 23927, Note_on_c, 0, 76, 0
1, 23928, Note_on_c, 0, 71, 84
1, 23951, Note_on_c, 0, 71, 0
1, 23952, Note_on_c, 0, 68, 84
1, 23952, Note_on_c, 1, 57, 84
1, 23952, Note_on_c, 1, 45, 84
1, 23975, Note_on_c, 0, 68, 0
1, 23976, Note_on_c, 0, 64, 84
1, 23997, Note_on_c, 1, 57, 0
1, 23997, Note_on_c, 1, 45, 0
1, 23999, Note_on_c, 0, 64, 0
1, 24000, Note_on_c, 0, 68, 84
1, 24000, Note_on_c, 1, 59, 84
1, 24000, Note_on_c, 1, 47, 84
1, 24023, Note_on_c, 0, 68, 0
1, 24024, Note_on_c, 0, 64, 84
1, 24047, Note_on_c, 0, 64, 0
1, 24048, Note_on_c, 0, 71, 84
1, 24071, Note_on_c, 0, 71, 0
1, 24072, Note_on_c, 0, 68, 84
1, 24089, Note_on_c, 1, 59, 0
1, 24089, Note_on_c, 1, 47, 0
1, 24095, Note_on_c, 0, 68, 0
1, 24096, Note_on_c, 0, 76, 84
1, 24119, Note_on_c, 0, 76, 0
1, 24120, Note_on_c, 0, 71, 84
1, 24143, Note_on_c, 0, 71, 0
1, 24144, Note_on_c, 0, 68, 84
1, 24144, Note_on_c, 1, 59, 84
1, 24144, Note_on_c, 1, 47, 84
1, 24167, Note_on_c, 0, 68, 0
1, 24168, Note_on_c, 0, 64, 84
1, 24189, Note_on_c, 1, 59, 0
1, 24189, Note_on_c, 1, 47, 0
1, 24191, Note_on_c, 0, 64, 0
1, 24192, Note_on_c, 0, 69, 84
1, 24192, Note_on_c, 1, 61, 84
1, 24192, Note_on_c, 1, 49, 84
1, 24215, Note_on_c, 0, 69, 0
1, 24216, Note_on_c, 0, 64, 84
1, 24239, Note_on_c, 0, 64, 0
1, 24240, Note_on_c, 0, 73, 84
1, 24263, Note_on_c, 0, 73, 0
1, 24264, Note_on_c, 0, 69, 84
1, 24281, Note_on_c, 1, 61, 0
1, 24281, Note_on_c, 1, 49, 0
1, 24287, Note_on_c, 0, 69, 0
1, 24288, Note_on_c, 0, 76, 84
1, 24311, Note_on_c, 0, 76, 0
1, 24312, Note_on_c, 0, 73, 84
1, 24335, Note_on_c, 0, 73, 0
1, 24336, Note_on_c, 0, 69, 84
1, 24336, Note_on_c, 1, 61, 84
1, 24336, Note_on_c, 1, 49, 84
1, 24359, Note_on_c, 0, 69, 0
1, 24360, Note_on_c, 0, 64, 84
1, 24381, Note_on_c, 1, 61, 0
1, 24381, Note_on_c, 1, 49, 0
1, 24383, Note_on_c, 0, 64, 0
1, 24384, Note_on_c, 0, 76, 84
1, 24384, Note_on_c, 1, 56, 84
1, 24384, Note_on_c, 1, 44, 84
1, 24407, Note_on_c, 0, 76, 0
1, 24408, Note_on_c, 0, 71, 84
1, 24431, Note_on_c, 0, 71, 0
1, 24432, Note_on_c, 0, 68, 84
1, 24455, Note_on_c, 0, 68, 0
1, 24456, Note_on_c, 0, 64, 84
1, 24473, Note_on_c, 1, 56, 0
1, 24473, Note_on_c, 1, 44, 0
1, 24479, Note_on_c, 0, 64, 0
1, 24480, Note_on_c, 0, 76, 84
1, 24480, Note_on_c, 1, 57, 84
1, 24480, Note_on_c, 1, 45, 84
1, 24503, Note_on_c, 0, 76, 0
1, 24504, Note_on_c, 0, 73, 84
1, 24527, Note_on_c, 0, 73, 0
1, 24528, Note_on_c, 0, 69, 84
1, 24551, Note_on_c, 0, 69, 0
1, 24552, Note_on_c, 0, 64, 84
1, 24569, Note_on_c, 1, 57, 0
1, 24569, Note_on_c, 1, 45, 0
1, 24575, Note_on_c, 0, 64, 0
1, 24576, Note_on_c, 0, 76, 84
1, 24576, Note_on_c, 1, 56, 84
1, 24576, Note_on_c, 1, 44, 84
1, 24599, Note_on_c, 0, 76, 0
1, 24600, Note_on_c, 0, 71, 84
1, 24623, Note_on_c, 0, 71, 0
1, 24624, Note_on_c, 0, 68, 84
1, 24647, Note_on_c, 0, 68, 0
1, 24648, Note_on_c, 0, 64, 84
1, 24665, Note_on_c, 1, 56, 0
1, 24665, Note_on_c, 1, 44, 0
1, 24671, Note_on_c, 0, 64, 0
1, 24672, Note_on_c, 0, 76, 84
1, 24672, Note_on_c, 1, 57, 84
1, 24672, Note_on_c, 1, 45, 84
1, 24695, Note_on_c, 0, 76, 0
1, 24696, Note_on_c, 0, 73, 84
1, 24719, Note_on_c, 0, 73, 0
1, 24720, Note_on_c, 0, 69, 84
1, 24743, Note_on_c, 0, 69, 0
1, 24744, Note_on_c, 0, 64, 84
1, 24761, Note_on_c, 1, 57, 0
1, 24761, Note_on_c, 1, 45, 0
1, 24767, Note_on_c, 0, 64, 0
1, 24768, Note_on_c, 0, 76, 84
1, 24768, Note_on_c, 1, 56, 84
1, 24768, Note_on_c, 1, 44, 84
1, 24791, Note_on_c, 0, 76, 0
1, 24792, Note_on_c, 0, 71, 84
1, 24815, Note_on_c, 0, 71, 0
1, 24816, Note_on_c, 0, 68, 84
1, 24839, Note_on_c, 0, 68, 0
1, 24840, Note_on_c, 0, 64, 84
1, 24857, Note_on_c, 1, 56, 0
1, 24857, Note_on_c, 1, 44, 0
1, 24863, Note_on_c, 0, 64, 0
1, 24864, Note_on_c, 0, 76, 84
1, 24864, Note_on_c, 1, 57, 84
1, 24864, Note_on_c, 1, 45, 84
1, 24887, Note_on_c, 0, 76, 0
1, 24888, Note_on_c, 0, 73, 84
1, 24911, Note_on_c, 0, 73, 0
1, 24912, Note_on_c, 0, 69, 84
1, 24935, Note_on_c, 0, 69, 0
1, 24936, Note_on_c, 0, 64, 84
1, 24953, Note_on_c, 1, 57, 0
1, 24953, Note_on_c, 1, 45, 0
1, 24959, Note_on_c, 0, 64, 0
1, 24960, Note_on_c, 0, 66, 84
1, 24960, Note_on_c, 1, 59, 84
1, 24977, Note_on_c, 0, 66, 0
1, 24978, Note_on_c, 0, 68, 84
1, 24995, Note_on_c, 0, 68, 0
1, 24996, Note_on_c, 0, 66, 84
1, 25013, Note_on_c, 0, 66, 0
1, 25014, Note_on_c, 0, 68, 84
1, 25031, Note_on_c, 0, 68, 0
1, 25032, Note_on_c, 0, 66, 84
1, 25049, Note_on_c, 0, 66, 0
1, 25049, Note_on_c, 1, 59, 0
1, 25050, Note_on_c, 0, 68, 84
1, 25056, Note_on_c, 1, 47, 84
1, 25066, Note_on_c, 0, 68, 0
1, 25067, Note_on_c, 0, 66, 84
1, 25083, Note_on_c, 0, 66, 0
1, 25084, Note_on_c, 0, 68, 84
1, 25100, Note_on_c, 0, 68, 0
1, 25101, Note_on_c, 0, 66, 84
1, 25117, Note_on_c, 0, 66, 0
1, 25118, Note_on_c, 0, 64, 84
1, 25134, Note_on_c, 0, 64, 0
1, 25135, Note_on_c, 0, 66, 84
1, 25145, Note_on_c, 1, 47, 0
1, 25151, Note_on_c, 0, 66, 0
1, 25152, Note_on_c, 0, 64, 84
1, 25152, Note_on_c, 1, 52, 84
1, 25241, Note_on_c, 0, 64, 0
1, 25241, Note_on_c, 1, 52, 0
1, 25296, Note_on_c, 0, 83, 61
1, 25296, Note_on_c, 0, 80, 61
1, 25316, Note_on_c, 0, 83, 0
1, 25316, Note_on_c, 0, 80, 0
1, 25344, Note_on_c, 0, 83, 61
1, 25344, Note_on_c, 0, 80, 61
1, 25392, Note_on_c, 0, 83, 0
1, 25392, Note_on_c, 0, 76, 61
1, 25412, Note_on_c, 0, 80, 0
1, 25412, Note_on_c, 0, 76, 0
1, 25440, Note_on_c, 0, 80, 61
1, 25440, Note_on_c, 0, 76, 61
1, 25488, Note_on_c, 0, 80, 0
1, 25488, Note_on_c, 0, 76, 0
1, 25488, Note_on_c, 0, 81, 61
1, 25488, Note_on_c, 0, 78, 61
1, 25508, Note_on_c, 0, 81, 0
1, 25508, Note_on_c, 0, 78, 0
1, 25536, Note_on_c, 0, 81, 61
1, 25536, Note_on_c, 0, 78, 61
1, 25584, Note_on_c, 0, 81, 0
1, 25584, Note_on_c, 0, 75, 61
1, 25629, Note_on_c, 0, 78, 0
1, 25629, Note_on_c, 0, 75, 0
1, 25680, Note_on_c, 0, 71, 84
1, 25680, Note_on_c, 1, 59, 84
1, 25700, Note_on_c, 0, 71, 0
1, 25700, Note_on_c, 1, 59, 0
1, 25728, Note_on_c, 0, 76, 84
1, 25728, Note_on_c, 1, 64, 84
1, 25773, Note_on_c, 0, 76, 0
1, 25773, Note_on_c, 1, 64, 0
1, 25776, Note_on_c, 0, 71, 84
1, 25776, Note_on_c, 1, 59, 84
1, 25821, Note_on_c, 0, 71, 0
1, 25821, Note_on_c, 1, 59, 0
1, 25824, Note_on_c, 0, 76, 84
1, 25824, Note_on_c, 1, 64, 84
1, 25847, Note_on_c, 0, 76, 0
1, 25847, Note_on_c, 1, 64, 0
1, 25848, Note_on_c, 0, 71, 84
1, 25848, Note_on_c, 1, 59, 84
1, 25871, Note_on_c, 0, 71, 0
1, 25871, Note_on_c, 1, 59, 0
1, 25872, Note_on_c, 0, 68, 84
1, 25872, Note_on_c, 1, 56, 84
1, 25895, Note_on_c, 0, 68, 0
1, 25895, Note_on_c, 1, 56, 0
1, 25896, Note_on_c, 0, 64, 84
1, 25896, Note_on_c, 1, 52, 84
1, 25919, Note_on_c, 0, 64, 0
1, 25919, Note_on_c, 1, 52, 0
1, 25920, Note_on_c, 0, 71, 84
1, 25920, Note_on_c, 1, 59, 84
1, 26009, Note_on_c, 0, 71, 0
1, 26009, Note_on_c, 1, 59, 0
1, 26064, Note_on_c, 0, 83, 61
1, 26064, Note_on_c, 0, 79, 61
1, 26084, Note_on_c, 0, 83, 0
1, 26084, Note_on_c, 0, 79, 0
1, 26112, Note_on_c, 0, 83, 61
1, 26112, Note_on_c, 0, 79, 61
1, 26160, Note_on_c, 0, 83, 0
1, 26160, Note_on_c, 0, 76, 61
1, 26180, Note_on_c, 0, 79, 0
1, 26180, Note_on_c, 0, 76, 0
1, 26208, Note_on_c, 0, 79, 61
1, 26208, Note_on_c, 0, 76, 61
1, 26256, Note_on_c, 0, 79, 0
1, 26256, Note_on_c, 0, 76, 0
1, 26256, Note_on_c, 0, 81, 61
1, 26256, Note_on_c, 0, 78, 61
1, 26276, Note_on_c, 0, 81, 0
1, 26276, Note_on_c, 0, 78, 0
1, 26304, Note_on_c, 0, 81, 61
1, 26304, Note_on_c, 0, 78, 61
1, 26352, Note_on_c, 0, 81, 0
1, 26352, Note_on_c, 0, 75, 61
1, 26397, Note_on_c, 0, 78, 0
1, 26397, Note_on_c, 0, 75, 0
1, 26448, Note_on_c, 0, 75, 69
1, 26468, Note_on_c, 0, 75, 0
1, 26496, Note_on_c, 0, 76, 69
1, 26496, Note_on_c, 1, 55, 84
1, 26496, Note_on_c, 1, 48, 64
1, 26563, Note_on_c, 0, 76, 0
1, 26568, Note_on_c, 0, 75, 69
1, 26585, Note_on_c, 1, 55, 0
1, 26591, Note_on_c, 0, 75, 0
1, 26592, Note_on_c, 0, 76, 69
1, 26592, Note_on_c, 1, 58, 84
1, 26615, Note_on_c, 0, 76, 0
1, 26616, Note_on_c, 0, 79, 69
1, 26639, Note_on_c, 0, 79, 0
1, 26640, Note_on_c, 0, 78, 69
1, 26663, Note_on_c, 0, 78, 0
1, 26664, Note_on_c, 0, 76, 69
1, 26673, Note_on_c, 1, 48, 0
1, 26681, Note_on_c, 1, 58, 0
1, 26687, Note_on_c, 0, 76, 0
1, 26688, Note_on_c, 0, 75, 69
1, 26688, Note_on_c, 1, 59, 84
1, 26688, Note_on_c, 1, 47, 84
1, 26777, Note_on_c, 0, 75, 0
1, 26777, Note_on_c, 1, 59, 0
1, 26777, Note_on_c, 1, 47, 0
1, 26832, Note_on_c, 0, 64, 75
1, 26832, Note_on_c, 0, 56, 75
1, 26852, Note_on_c, 0, 64, 0
1, 26852, Note_on_c, 0, 56, 0
1, 26880, Note_on_c, 0, 64, 75
1, 26880, Note_on_c, 0, 56, 75
1, 26880, Note_on_c, 1, 52, 75
1, 26880, Note_on_c, 1, 40, 75
1, 26928, Note_on_c, 0, 56, 0
1, 26928, Note_on_c, 0, 68, 75
1, 26948, Note_on_c, 0, 68, 0
1, 26948, Note_on_c, 0, 64, 0
1, 26969, Note_on_c, 1, 52, 0
1, 26969, Note_on_c, 1, 40, 0
1, 26976, Note_on_c, 0, 68, 75
1, 26976, Note_on_c, 0, 64, 75
1, 27024, Note_on_c, 0, 64, 0
1, 27024, Note_on_c, 0, 71, 75
1, 27044, Note_on_c, 0, 71, 0
1, 27044, Note_on_c, 0, 68, 0
1, 27072, Note_on_c, 0, 71, 75
1, 27072, Note_on_c, 0, 68, 64
1, 27139, Note_on_c, 0, 71, 0
1, 27144, Note_on_c, 0, 76, 75
1, 27167, Note_on_c, 0, 76, 0
1, 27168, Note_on_c, 0, 71, 75
1, 27213, Note_on_c, 0, 71, 0
1, 27213, Note_on_c, 0, 68, 0
1, 27264, Note_on_c, 0, 73, 75
1, 27264, Note_on_c, 1, 57, 75
1, 27287, Note_on_c, 1, 57, 0
1, 27288, Note_on_c, 1, 64, 75
1, 27311, Note_on_c, 1, 64, 0
1, 27312, Note_on_c, 1, 61, 75
1, 27331, Note_on_c, 0, 73, 0
1, 27335, Note_on_c, 1, 61, 0
1, 27336, Note_on_c, 0, 75, 75
1, 27336, Note_on_c, 1, 64, 75
1, 27359, Note_on_c, 0, 75, 0
1, 27359, Note_on_c, 1, 64, 0
1, 27360, Note_on_c, 0, 76, 75
1, 27360, Note_on_c, 1, 56, 75
1, 27383, Note_on_c, 1, 56, 0
1, 27384, Note_on_c, 1, 64, 75
1, 27405, Note_on_c, 0, 76, 0
1, 27407, Note_on_c, 1, 64, 0
1, 27408, Note_on_c, 1, 59, 75
1, 27431, Note_on_c, 1, 59, 0
1, 27432, Note_on_c, 1, 64, 75
1, 27455, Note_on_c, 1, 64, 0
1, 27456, Note_on_c, 0, 73, 75
1, 27456, Note_on_c, 1, 57, 75
1, 27479, Note_on_c, 1, 57, 0
1, 27480, Note_on_c, 1, 64, 75
1, 27503, Note_on_c, 1, 64, 0
1, 27504, Note_on_c, 1, 61, 75
1, 27523, Note_on_c, 0, 73, 0
1, 27527, Note_on_c, 1, 61, 0
1, 27528, Note_on_c, 0, 75, 75
1, 27528, Note_on_c, 1, 64, 75
1, 27551, Note_on_c, 0, 75, 0
1, 27551, Note_on_c, 1, 64, 0
1, 27552, Note_on_c, 0, 76, 75
1, 27552, Note_on_c, 1, 56, 75
1, 27575, Note_on_c, 1, 56, 0
1, 27576, Note_on_c, 1, 64, 75
1, 27597, Note_on_c, 0, 76, 0
1, 27599, Note_on_c, 1, 64, 0
1, 27600, Note_on_c, 1, 59, 75
1, 27623, Note_on_c, 1, 59, 0
1, 27624, Note_on_c, 1, 64, 75
1, 27647, Note_on_c, 1, 64, 0
1, 27648, Note_on_c, 0, 73, 75
1, 27648, Note_on_c, 1, 57, 75
1, 27671, Note_on_c, 0, 73, 0
1, 27672, Note_on_c, 0, 76, 75
1, 27695, Note_on_c, 0, 76, 0
1, 27696, Note_on_c, 0, 75, 75
1, 27719, Note_on_c, 0, 75, 0
1, 27720, Note_on_c, 0, 73, 75
1, 27737, Note_on_c, 1, 57, 0
1, 27743, Note_on_c, 0, 73, 0
1, 27744, Note_on_c, 0, 71, 75
1, 27767, Note_on_c, 0, 71, 0
1, 27768, Note_on_c, 0, 69, 75
1, 27791, Note_on_c, 0, 69, 0
1, 27792, Note_on_c, 0, 68, 75
1, 27815, Note_on_c, 0, 68, 0
1, 27816, Note_on_c, 0, 66, 75
1, 27839, Note_on_c, 0, 66, 0
1, 27840, Note_on_c, 0, 64, 75
1, 27840, Note_on_c, 1, 52, 75
1, 27840, Note_on_c, 1, 47, 75
1, 27929, Note_on_c, 0, 64, 0
1, 27929, Note_on_c, 1, 52, 0
1, 27929, Note_on_c, 1, 47, 0
1, 27936, Note_on_c, 0, 68, 75
1, 27936, Note_on_c, 1, 51, 75
1, 27936, Note_on_c, 1, 47, 75
1, 27951, Note_on_c, 0, 68, 0
1, 27952, Note_on_c, 0, 66, 75
1, 27967, Note_on_c, 0, 66, 0
1, 27968, Note_on_c, 0, 68, 75
1, 27983, Note_on_c, 0, 68, 0
1, 27984, Note_on_c, 0, 66, 75
1, 27999, Note_on_c, 0, 66, 0
1, 28000, Note_on_c, 0, 64, 75
1, 28015, Note_on_c, 0, 64, 0
1, 28016, Note_on_c, 0, 66, 75
1, 28025, Note_on_c, 1, 51, 0
1, 28025, Note_on_c, 1, 47, 0
1, 28031, Note_on_c, 0, 66, 0
1, 28032, Note_on_c, 0, 64, 75
1, 28032, Note_on_c, 1, 52, 75
1, 28077, Note_on_c, 1, 52, 0
1, 28080, Note_on_c, 1, 47, 75
1, 28121, Note_on_c, 0, 64, 0
1, 28125, Note_on_c, 1, 47, 0
1, 28128, Note_on_c, 1, 40, 75
1, 28176, Note_on_c, 0, 64, 75
1, 28176, Note_on_c, 0, 56, 75
1, 28196, Note_on_c, 0, 64, 0
1, 28196, Note_on_c, 0, 56, 0
1, 28217, Note_on_c, 1, 40, 0
1, 28224, Note_on_c, 0, 64, 75
1, 28224, Note_on_c, 0, 56, 75
1, 28272, Note_on_c, 1, 52, 75
1, 28272, Note_on_c, 1, 40, 75
1, 28292, Note_on_c, 1, 52, 0
1, 28292, Note_on_c, 1, 40, 0
1, 28313, Note_on_c, 0, 64, 0
1, 28313, Note_on_c, 0, 56, 0
1, 28320, Note_on_c, 1, 52, 76
1, 28320, Note_on_c, 1, 40, 76
1, 28368, Note_on_c, 0, 68, 77
1, 28368, Note_on_c, 0, 64, 77
1, 28388, Note_on_c, 0, 68, 0
1, 28388, Note_on_c, 0, 64, 0
1, 28409, Note_on_c, 1, 52, 0
1, 28409, Note_on_c, 1, 40, 0
1, 28416, Note_on_c, 0, 68, 78
1, 28416, Note_on_c, 0, 64, 78
1, 28464, Note_on_c, 1, 52, 78
1, 28464, Note_on_c, 1, 40, 78
1, 28484, Note_on_c, 1, 52, 0
1, 28484, Note_on_c, 1, 40, 0
1, 28505, Note_on_c, 0, 68, 0
1, 28505, Note_on_c, 0, 64, 0
1, 28512, Note_on_c, 1, 52, 79
1, 28512, Note_on_c, 1, 40, 79
1, 28560, Note_on_c, 0, 71, 80
1, 28560, Note_on_c, 0, 68, 80
1, 28580, Note_on_c, 0, 71, 0
1, 28580, Note_on_c, 0, 68, 0
1, 28601, Note_on_c, 1, 52, 0
1, 28601, Note_on_c, 1, 40, 0
1, 28608, Note_on_c, 0, 71, 81
1, 28608, Note_on_c, 0, 68, 81
1, 28656, Note_on_c, 1, 52, 81
1, 28656, Note_on_c, 1, 40, 81
1, 28697, Note_on_c, 0, 71, 0
1, 28697, Note_on_c, 0, 68, 0
1, 28701, Note_on_c, 1, 52, 0
1, 28701, Note_on_c, 1, 40, 0
1, 28704, Note_on_c, 1, 52, 82
1, 28704, Note_on_c, 1, 40, 82
1, 28752, Note_on_c, 0, 76, 83
1, 28752, Note_on_c, 0, 68, 83
1, 28772, Note_on_c, 0, 76, 0
1, 28772, Note_on_c, 0, 68, 0
1, 28793, Note_on_c, 1, 52, 0
1, 28793, Note_on_c, 1, 40, 0
1, 28800, Note_on_c, 0, 76, 84
1, 28800, Note_on_c, 0, 68, 84
1, 28889, Note_on_c, 0, 76, 0
1, 28889, Note_on_c, 0, 68, 0
1, 28944, Note_on_c, 0, 83, 84
1, 28964, Note_on_c, 0, 83, 0
1, 28992, Note_on_c, 0, 83, 84
1, 28992, Note_on_c, 1, 49, 84
1, 29015, Note_on_c, 1, 49, 0
1, 29016, Note_on_c, 1, 59, 83
1, 29039, Note_on_c, 1, 59, 0
1, 29040, Note_on_c, 0, 83, 0
1, 29040, Note_on_c, 0, 77, 83
1, 29040, Note_on_c, 1, 56, 83
1, 29063, Note_on_c, 1, 56, 0
1, 29064, Note_on_c, 1, 59, 83
1, 29085, Note_on_c, 0, 77, 0
1, 29087, Note_on_c, 1, 59, 0
1, 29088, Note_on_c, 1, 49, 82
1, 29111, Note_on_c, 1, 49, 0
1, 29112, Note_on_c, 1, 59, 82
1, 29135, Note_on_c, 1, 59, 0
1, 29136, Note_on_c, 0, 77, 82
1, 29136, Note_on_c, 1, 56, 82
1, 29156, Note_on_c, 0, 77, 0
1, 29159, Note_on_c, 1, 56, 0
1, 29160, Note_on_c, 1, 59, 81
1, 29183, Note_on_c, 1, 59, 0
1, 29184, Note_on_c, 0, 78, 81
1, 29184, Note_on_c, 1, 49, 81
1, 29207, Note_on_c, 1, 49, 0
1, 29208, Note_on_c, 1, 57, 81
1, 29231, Note_on_c, 1, 57, 0
1, 29232, Note_on_c, 0, 78, 0
1, 29232, Note_on_c, 0, 73, 80
1, 29232, Note_on_c, 1, 54, 80
1, 29255, Note_on_c, 1, 54, 0
1, 29256, Note_on_c, 1, 57, 80
1, 29277, Note_on_c, 0, 73, 0
1, 29279, Note_on_c, 1, 57, 0
1, 29280, Note_on_c, 1, 49, 80
1, 29303, Note_on_c, 1, 49, 0
1, 29304, Note_on_c, 1, 57, 79
1, 29327, Note_on_c, 1, 57, 0
1, 29328, Note_on_c, 0, 81, 79
1, 29328, Note_on_c, 1, 54, 79
1, 29348, Note_on_c, 0, 81, 0
1, 29351, Note_on_c, 1, 54, 0
1, 29352, Note_on_c, 1, 57, 79
1, 29375, Note_on_c, 1, 57, 0
1, 29376, Note_on_c, 0, 80, 78
1, 29376, Note_on_c, 1, 49, 78
1, 29399, Note_on_c, 1, 49, 0
1, 29400, Note_on_c, 1, 56, 78
1, 29423, Note_on_c, 1, 56, 0
1, 29424, Note_on_c, 0, 80, 0
1, 29424, Note_on_c, 0, 71, 78
1, 29424, Note_on_c, 1, 53, 78
1, 29447, Note_on_c, 1, 53, 0
1, 29448, Note_on_c, 1, 56, 77
1, 29469, Note_on_c, 0, 71, 0
1, 29471, Note_on_c, 1, 56, 0
1, 29472, Note_on_c, 1, 49, 77
1, 29495, Note_on_c, 1, 49, 0
1, 29496, Note_on_c, 1, 56, 77
1, 29519, Note_on_c, 1, 56, 0
1, 29520, Note_on_c, 0, 71, 76
1, 29520, Note_on_c, 1, 53, 76
1, 29540, Note_on_c, 0, 71, 0
1, 29543, Note_on_c, 1, 53, 0
1, 29544, Note_on_c, 1, 56, 76
1, 29567, Note_on_c, 1, 56, 0
1, 29568, Note_on_c, 0, 69, 76
1, 29568, Note_on_c, 1, 49, 76
1, 29591, Note_on_c, 1, 49, 0
1, 29592, Note_on_c, 1, 57, 75
1, 29615, Note_on_c, 1, 57, 0
1, 29616, Note_on_c, 0, 69, 0
1, 29616, Note_on_c, 0, 66, 75
1, 29616, Note_on_c, 1, 54, 75
1, 29639, Note_on_c, 1, 54, 0
1, 29640, Note_on_c, 1, 57, 75
1, 29661, Note_on_c, 0, 66, 0
1, 29663, Note_on_c, 1, 57, 0
1, 29664, Note_on_c, 1, 49, 75
1, 29687, Note_on_c, 1, 49, 0
1, 29688, Note_on_c, 1, 57, 75
1, 29711, Note_on_c, 1, 57, 0
1, 29712, Note_on_c, 0, 81, 75
1, 29712, Note_on_c, 1, 54, 75
1, 29732, Note_on_c, 0, 81, 0
1, 29735, Note_on_c, 1, 54, 0
1, 29736, Note_on_c, 1, 57, 75
1, 29759, Note_on_c, 1, 57, 0
1, 29760, Note_on_c, 0, 81, 84
1, 29760, Note_on_c, 1, 47, 84
1, 29783, Note_on_c, 1, 47, 0
1, 29784, Note_on_c, 1, 57, 83
1, 29807, Note_on_c, 1, 57, 0
1, 29808, Note_on_c, 0, 81, 0
1, 29808, Note_on_c, 0, 75, 83
1, 29808, Note_on_c, 1, 54, 83
1, 29831, Note_on_c, 1, 54, 0
1, 29832, Note_on_c, 1, 57, 83
1, 29853, Note_on_c, 0, 75, 0
1, 29855, Note_on_c, 1, 57, 0
1, 29856, Note_on_c, 1, 47, 82
1, 29879, Note_on_c, 1, 47, 0
1, 29880, Note_on_c, 1, 57, 82
1, 29903, Note_on_c, 1, 57, 0
1, 29904, Note_on_c, 0, 75, 82
1, 29904, Note_on_c, 1, 54, 82
1, 29924, Note_on_c, 0, 75, 0
1, 29927, Note_on_c, 1, 54, 0
1, 29928, Note_on_c, 1, 57, 81
1, 29951, Note_on_c, 1, 57, 0
1, 29952, Note_on_c, 0, 76, 81
1, 29952, Note_on_c, 1, 47, 81
1, 29975, Note_on_c, 1, 47, 0
1, 29976, Note_on_c, 1, 56, 81
1, 29999, Note_on_c, 1, 56, 0
1, 30000, Note_on_c, 0, 76, 0
1, 30000, Note_on_c, 0, 71, 80
1, 30000, Note_on_c, 1, 52, 80
1, 30023, Note_on_c, 1, 52, 0
1, 30024, Note_on_c, 1, 56, 80
1, 30045, Note_on_c, 0, 71, 0
1, 30047, Note_on_c, 1, 56, 0
1, 30048, Note_on_c, 1, 47, 80
1, 30071, Note_on_c, 1, 47, 0
1, 30072, Note_on_c, 1, 56, 79
1, 30095, Note_on_c, 1, 56, 0
1, 30096, Note_on_c, 0, 80, 79
1, 30096, Note_on_c, 1, 52, 79
1, 30116, Note_on_c, 0, 80, 0
1, 30119, Note_on_c, 1, 52, 0
1, 30120, Note_on_c, 1, 56, 79
1, 30143, Note_on_c, 1, 56, 0
1, 30144, Note_on_c, 0, 78, 78
1, 30144, Note_on_c, 1, 47, 78
1, 30167, Note_on_c, 1, 47, 0
1, 30168, Note_on_c, 1, 54, 78
1, 30191, Note_on_c, 1, 54, 0
1, 30192, Note_on_c, 0, 78, 0
1, 30192, Note_on_c, 0, 69, 78
1, 30192, Note_on_c, 1, 51, 78
1, 30215, Note_on_c, 1, 51, 0
1, 30216, Note_on_c, 1, 54, 77
1, 30237, Note_on_c, 0, 69, 0
1, 30239, Note_on_c, 1, 54, 0
1, 30240, Note_on_c, 1, 47, 77
1, 30263, Note_on_c, 1, 47, 0
1, 30264, Note_on_c, 1, 54, 77
1, 30287, Note_on_c, 1, 54, 0
1, 30288, Note_on_c, 0, 69, 76
1, 30288, Note_on_c, 1, 51, 76
1, 30308, Note_on_c, 0, 69, 0
1, 30311, Note_on_c, 1, 51, 0
1, 30312, Note_on_c, 1, 54, 76
1, 30335, Note_on_c, 1, 54, 0
1, 30336, Note_on_c, 0, 68, 76
1, 30336, Note_on_c, 1, 47, 76
1, 30359, Note_on_c, 1, 47, 0
1, 30360, Note_on_c, 1, 56, 75
1, 30383, Note_on_c, 1, 56, 0
1, 30384, Note_on_c, 0, 68, 0
1, 30384, Note_on_c, 0, 64, 75
1, 30384, Note_on_c, 1, 52, 75
1, 30407, Note_on_c, 1, 52, 0
1, 30408, Note_on_c, 1, 56, 75
1, 30429, Note_on_c, 0, 64, 0
1, 30431, Note_on_c, 1, 56, 0
1, 30432, Note_on_c, 1, 47, 75
1, 30455, Note_on_c, 1, 47, 0
1, 30456, Note_on_c, 1, 56, 75
1, 30479, Note_on_c, 1, 56, 0
1, 30480, Note_on_c, 0, 83, 75
1, 30480, Note_on_c, 1, 52, 75
1, 30500, Note_on_c, 0, 83, 0
1, 30503, Note_on_c, 1, 52, 0
1, 30504, Note_on_c, 1, 56, 75
1, 30527, Note_on_c, 1, 56, 0
1, 30528, Note_on_c, 0, 83, 75
1, 30528, Note_on_c, 1, 44, 75
1, 30551, Note_on_c, 1, 44, 0
1, 30552, Note_on_c, 1, 52, 75
1, 30575, Note_on_c, 1, 52, 0
1, 30576, Note_on_c, 0, 83, 0
1, 30576, Note_on_c, 0, 74, 76
1, 30576, Note_on_c, 1, 47, 76
1, 30599, Note_on_c, 1, 47, 0
1, 30600, Note_on_c, 1, 52, 76
1, 30621, Note_on_c, 0, 74, 0
1, 30623, Note_on_c, 1, 52, 0
1, 30624, Note_on_c, 1, 44, 77
1, 30647, Note_on_c, 1, 44, 0
1, 30648, Note_on_c, 1, 52, 78
1, 30671, Note_on_c, 1, 52, 0
1, 30672, Note_on_c, 0, 74, 78
1, 30672, Note_on_c, 1, 47, 78
1, 30692, Note_on_c, 0, 74, 0
1, 30695, Note_on_c, 1, 47, 0
1, 30696, Note_on_c, 1, 52, 79
1, 30719, Note_on_c, 1, 52, 0
1, 30720, Note_on_c, 0, 72, 79
1, 30720, Note_on_c, 1, 45, 79
1, 30743, Note_on_c, 1, 45, 0
1, 30744, Note_on_c, 1, 52, 80
1, 30767, Note_on_c, 1, 52, 0
1, 30768, Note_on_c, 0, 72, 0
1, 30768, Note_on_c, 0, 73, 80
1, 30768, Note_on_c, 1, 49, 81
1, 30791, Note_on_c, 1, 49, 0
1, 30792, Note_on_c, 1, 52, 81
1, 30813, Note_on_c, 0, 73, 0
1, 30815, Note_on_c, 1, 52, 0
1, 30816, Note_on_c, 1, 45, 82
1, 30839, Note_on_c, 1, 45, 0
1, 30840, Note_on_c, 1, 52, 82
1, 30863, Note_on_c, 1, 52, 0
1, 30864, Note_on_c, 0, 85, 82
1, 30864, Note_on_c, 1, 49, 83
1, 30884, Note_on_c, 0, 85, 0
1, 30887, Note_on_c, 1, 49, 0
1, 30888, Note_on_c, 1, 52, 84
1, 30911, Note_on_c, 1, 52, 0
1, 30912, Note_on_c, 0, 85, 84
1, 30912, Note_on_c, 1, 46, 84
1, 30935, Note_on_c, 1, 46, 0
1, 30936, Note_on_c, 1, 54, 84
1, 30959, Note_on_c, 1, 54, 0
1, 30960, Note_on_c, 0, 85, 0
1, 30960, Note_on_c, 0, 76, 84
1, 30960, Note_on_c, 1, 49, 84
1, 30983, Note_on_c, 1, 49, 0
1, 30984, Note_on_c, 1, 54, 84
1, 31005, Note_on_c, 0, 76, 0
1, 31007, Note_on_c, 1, 54, 0
1, 31008, Note_on_c, 1, 46, 84
1, 31031, Note_on_c, 1, 46, 0
1, 31032, Note_on_c, 1, 54, 84
1, 31055, Note_on_c, 1, 54, 0
1, 31056, Note_on_c, 0, 76, 84
1, 31056, Note_on_c, 1, 49, 84
1, 31076, Note_on_c, 0, 76, 0
1, 31079, Note_on_c, 1, 49, 0
1, 31080, Note_on_c, 1, 54, 84
1, 31103, Note_on_c, 1, 54, 0
1, 31104, Note_on_c, 0, 75, 84
1, 31104, Note_on_c, 1, 47, 84
1, 31127, Note_on_c, 0, 75, 0
1, 31128, Note_on_c, 0, 71, 84
1, 31151, Note_on_c, 0, 71, 0
1, 31152, Note_on_c, 0, 78, 84
1, 31175, Note_on_c, 0, 78, 0
1, 31176, Note_on_c, 0, 75, 84
1, 31193, Note_on_c, 1, 47, 0
1, 31199, Note_on_c, 0, 75, 0
1, 31200, Note_on_c, 0, 83, 84
1, 31223, Note_on_c, 0, 83, 0
1, 31224, Note_on_c, 0, 78, 84
1, 31247, Note_on_c, 0, 78, 0
1, 31248, Note_on_c, 0, 75, 84
1, 31271, Note_on_c, 0, 75, 0
1, 31272, Note_on_c, 0, 71, 84
1, 31295, Note_on_c, 0, 71, 0
1, 31296, Note_on_c, 0, 81, 84
1, 31296, Note_on_c, 1, 63, 84
1, 31296, Note_on_c, 1, 51, 84
1, 31319, Note_on_c, 0, 81, 0
1, 31320, Note_on_c, 0, 78, 84
1, 31343, Note_on_c, 0, 78, 0
1, 31344, Note_on_c, 0, 75, 84
1, 31367, Note_on_c, 0, 75, 0
1, 31368, Note_on_c, 0, 71, 84
1, 31385, Note_on_c, 1, 63, 0
1, 31385, Note_on_c, 1, 51, 0
1, 31391, Note_on_c, 0, 71, 0
1, 31392, Note_on_c, 0, 80, 84
1, 31392, Note_on_c, 1, 64, 84
1, 31392, Note_on_c, 1, 52, 84
1, 31415, Note_on_c, 0, 80, 0
1, 31416, Note_on_c, 0, 76, 84
1, 31439, Note_on_c, 0, 76, 0
1, 31440, Note_on_c, 0, 75, 84
1, 31463, Note_on_c, 0, 75, 0
1, 31464, Note_on_c, 0, 76, 84
1, 31481, Note_on_c, 1, 64, 0
1, 31481, Note_on_c, 1, 52, 0
1, 31487, Note_on_c, 0, 76, 0
1, 31488, Note_on_c, 0, 75, 84
1, 31488, Note_on_c, 1, 59, 84
1, 31488, Note_on_c, 1, 47, 84
1, 31511, Note_on_c, 0, 75, 0
1, 31512, Note_on_c, 0, 71, 84
1, 31535, Note_on_c, 0, 71, 0
1, 31536, Note_on_c, 0, 78, 84
1, 31559, Note_on_c, 0, 78, 0
1, 31560, Note_on_c, 0, 75, 84
1, 31577, Note_on_c, 1, 59, 0
1, 31577, Note_on_c, 1, 47, 0
1, 31583, Note_on_c, 0, 75, 0
1, 31584, Note_on_c, 0, 83, 84
1, 31607, Note_on_c, 0, 83, 0
1, 31608, Note_on_c, 0, 78, 84
1, 31631, Note_on_c, 0, 78, 0
1, 31632, Note_on_c, 0, 75, 84
1, 31655, Note_on_c, 0, 75, 0
1, 31656, Note_on_c, 0, 71, 84
1, 31679, Note_on_c, 0, 71, 0
1, 31680, Note_on_c, 0, 81, 84
1, 31680, Note_on_c, 1, 63, 84
1, 31680, Note_on_c, 1, 51, 84
1, 31703, Note_on_c, 0, 81, 0
1, 31704, Note_on_c, 0, 78, 84
1, 31727, Note_on_c, 0, 78, 0
1, 31728, Note_on_c, 0, 75, 84
1, 31751, Note_on_c, 0, 75, 0
1, 31752, Note_on_c, 0, 71, 84
1, 31769, Note_on_c, 1, 63, 0
1, 31769, Note_on_c, 1, 51, 0
1, 31775, Note_on_c, 0, 71, 0
1, 31776, Note_on_c, 0, 80, 84
1, 31776, Note_on_c, 1, 64, 84
1, 31776, Note_on_c, 1, 52, 84
1, 31799, Note_on_c, 0, 80, 0
1, 31800, Note_on_c, 0, 76, 84
1, 31823, Note_on_c, 0, 76, 0
1, 31824, Note_on_c, 0, 75, 84
1, 31847, Note_on_c, 0, 75, 0
1, 31848, Note_on_c, 0, 76, 84
1, 31865, Note_on_c, 1, 64, 0
1, 31865, Note_on_c, 1, 52, 0
1, 31871, Note_on_c, 0, 76, 0
1, 31872, Note_on_c, 0, 75, 84
1, 31872, Note_on_c, 1, 59, 84
1, 31872, Note_on_c, 1, 47, 84
1, 31917, Note_on_c, 0, 75, 0
1, 31920, Note_on_c, 0, 83, 84
1, 31961, Note_on_c, 1, 59, 0
1, 31961, Note_on_c, 1, 47, 0
1, 31965, Note_on_c, 0, 83, 0
1, 32016, Note_on_c, 0, 64, 75
1, 32016, Note_on_c, 0, 56, 75
1, 32036, Note_on_c, 0, 64, 0
1, 32036, Note_on_c, 0, 56, 0
1, 32064, Note_on_c, 0, 64, 75
1, 32064, Note_on_c, 0, 56, 75
1, 32112, Note_on_c, 1, 52, 75
1, 32112, Note_on_c, 1, 40, 75
1, 32132, Note_on_c, 1, 52, 0
1, 32132, Note_on_c, 1, 40, 0
1, 32153, Note_on_c, 0, 64, 0
1, 32153, Note_on_c, 0, 56, 0
1, 32160, Note_on_c, 1, 52, 76
1, 32160, Note_on_c, 1, 40, 76
1, 32208, Note_on_c, 0, 68, 76
1, 32208, Note_on_c, 0, 64, 76
1, 32228, Note_on_c, 0, 68, 0
1, 32228, Note_on_c, 0, 64, 0
1, 32249, Note_on_c, 1, 52, 0
1, 32249, Note_on_c, 1, 40, 0
1, 32256, Note_on_c, 0, 68, 77
1, 32256, Note_on_c, 0, 64, 77
1, 32304, Note_on_c, 1, 52, 78
1, 32304, Note_on_c, 1, 40, 78
1, 32324, Note_on_c, 1, 52, 0
1, 32324, Note_on_c, 1, 40, 0
1, 32345, Note_on_c, 0, 68, 0
1, 32345, Note_on_c, 0, 64, 0
1, 32352, Note_on_c, 1, 52, 78
1, 32352, Note_on_c, 1, 40, 78
1, 32400, Note_on_c, 0, 71, 79
1, 32400, Note_on_c, 0, 68, 79
1, 32420, Note_on_c, 0, 71, 0
1, 32420, Note_on_c, 0, 68, 0
1, 32441, Note_on_c, 1, 52, 0
1, 32441, Note_on_c, 1, 40, 0
1, 32448, Note_on_c, 0, 71, 80
1, 32448, Note_on_c, 0, 68, 80
1, 32496, Note_on_c, 1, 52, 80
1, 32496, Note_on_c, 1, 40, 80
1, 32516, Note_on_c, 1, 52, 0
1, 32516, Note_on_c, 1, 40, 0
1, 32537, Note_on_c, 0, 71, 0
1, 32537, Note_on_c, 0, 68, 0
1, 32544, Note_on_c, 1, 52, 81
1, 32544, Note_on_c, 1, 40, 81
1, 32592, Note_on_c, 0, 76, 82
1, 32592, Note_on_c, 0, 68, 82
1, 32612, Note_on_c, 0, 76, 0
1, 32612, Note_on_c, 0, 68, 0
1, 32633, Note_on_c, 1, 52, 0
1, 32633, Note_on_c, 1, 40, 0
1, 32640, Note_on_c, 0, 76, 82
1, 32640, Note_on_c, 0, 68, 82
1, 32688, Note_on_c, 1, 52, 83
1, 32688, Note_on_c, 1, 40, 83
1, 32729, Note_on_c, 0, 76, 0
1, 32729, Note_on_c, 0, 68, 0
1, 32733, Note_on_c, 1, 52, 0
1, 32733, Note_on_c, 1, 40, 0
1, 32736, Note_on_c, 1, 52, 84
1, 32736, Note_on_c, 1, 40, 84
1, 32784, Note_on_c, 0, 71, 83
1, 32784, Note_on_c, 0, 68, 83
1, 32804, Note_on_c, 0, 71, 0
1, 32804, Note_on_c, 0, 68, 0
1, 32825, Note_on_c, 1, 52, 0
1, 32825, Note_on_c, 1, 40, 0
1, 32832, Note_on_c, 0, 69, 82
1, 32832, Note_on_c, 0, 66, 82
1, 32832, Note_on_c, 1, 47, 82
1, 32832, Note_on_c, 1, 35, 82
1, 32880, Note_on_c, 0, 69, 0
1, 32880, Note_on_c, 0, 66, 0
1, 32880, Note_on_c, 0, 68, 82
1, 32880, Note_on_c, 0, 64, 82
1, 32900, Note_on_c, 0, 68, 0
1, 32900, Note_on_c, 0, 64, 0
1, 32921, Note_on_c, 1, 47, 0
1, 32921, Note_on_c, 1, 35, 0
1, 32928, Note_on_c, 0, 69, 81
1, 32928, Note_on_c, 0, 66, 81
1, 32928, Note_on_c, 1, 47, 81
1, 32928, Note_on_c, 1, 35, 81
1, 32976, Note_on_c, 0, 69, 0
1, 32976, Note_on_c, 0, 63, 80
1, 32996, Note_on_c, 0, 66, 0
1, 32996, Note_on_c, 0, 63, 0
1, 33017, Note_on_c, 1, 47, 0
1, 33017, Note_on_c, 1, 35, 0
1, 33024, Note_on_c, 0, 68, 80
1, 33024, Note_on_c, 0, 64, 80
1, 33024, Note_on_c, 1, 52, 80
1, 33024, Note_on_c, 1, 40, 80
1, 33069, Note_on_c, 0, 68, 0
1, 33069, Note_on_c, 0, 64, 0
1, 33072, Note_on_c, 0, 71, 79
1, 33072, Note_on_c, 0, 68, 79
1, 33113, Note_on_c, 1, 52, 0
1, 33113, Note_on_c, 1, 40, 0
1, 33117, Note_on_c, 0, 71, 0
1, 33117, Note_on_c, 0, 68, 0
1, 33120, Note_on_c, 1, 52, 78
1, 33120, Note_on_c, 1, 40, 78
1, 33168, Note_on_c, 0, 71, 78
1, 33168, Note_on_c, 0, 68, 78
1, 33188, Note_on_c, 0, 71, 0
1, 33188, Note_on_c, 0, 68, 0
1, 33209, Note_on_c, 1, 52, 0
1, 33209, Note_on_c, 1, 40, 0
1, 33216, Note_on_c, 0, 69, 77
1, 33216, Note_on_c, 0, 66, 77
1, 33216, Note_on_c, 1, 47, 77
1, 33216, Note_on_c, 1, 35, 77
1, 33264, Note_on_c, 0, 69, 0
1, 33264, Note_on_c, 0, 66, 0
1, 33264, Note_on_c, 0, 68, 76
1, 33264, Note_on_c, 0, 64, 76
1, 33284, Note_on_c, 0, 68, 0
1, 33284, Note_on_c, 0, 64, 0
1, 33305, Note_on_c, 1, 47, 0
1, 33305, Note_on_c, 1, 35, 0
1, 33312, Note_on_c, 0, 69, 76
1, 33312, Note_on_c, 0, 66, 76
1, 33312, Note_on_c, 1, 47, 76
1, 33312, Note_on_c, 1, 35, 76
1, 33360, Note_on_c, 0, 69, 0
1, 33360, Note_on_c, 0, 63, 75
1, 33380, Note_on_c, 0, 66, 0
1, 33380, Note_on_c, 0, 63, 0
1, 33401, Note_on_c, 1, 47, 0
1, 33401, Note_on_c, 1, 35, 0
1, 33408, Note_on_c, 0, 64, 75
1, 33408, Note_on_c, 1, 52, 75
1, 33408, Note_on_c, 1, 40, 75
1, 33453, Note_on_c, 0, 64, 0
1, 33456, Note_on_c, 0, 59, 75
1, 33497, Note_on_c, 1, 52, 0
1, 33497, Note_on_c, 1, 40, 0
1, 33501, Note_on_c, 0, 59, 0
1, 33552, Note_on_c, 0, 64, 69
1, 33552, Note_on_c, 0, 55, 69
1, 33572, Note_on_c, 0, 64, 0
1, 33572, Note_on_c, 0, 55, 0
1, 33600, Note_on_c, 0, 64, 69
1, 33600, Note_on_c, 0, 55, 69
1, 33648, Note_on_c, 1, 52, 69
1, 33648, Note_on_c, 1, 40, 69
1, 33668, Note_on_c, 1, 52, 0
1, 33668, Note_on_c, 1, 40, 0
1, 33689, Note_on_c, 0, 64, 0
1, 33689, Note_on_c, 0, 55, 0
1, 33696, Note_on_c, 1, 52, 69
1, 33696, Note_on_c, 1, 40, 69
1, 33744, Note_on_c, 0, 67, 69
1, 33744, Note_on_c, 0, 64, 69
1, 33764, Note_on_c, 0, 67, 0
1, 33764, Note_on_c, 0, 64, 0
1, 33785, Note_on_c, 1, 52, 0
1, 33785, Note_on_c, 1, 40, 0
1, 33792, Note_on_c, 0, 66, 69
1, 33792, Note_on_c, 0, 63, 69
1, 33840, Note_on_c, 1, 47, 69
1, 33840, Note_on_c, 1, 35, 69
1, 33860, Note_on_c, 1, 47, 0
1, 33860, Note_on_c, 1, 35, 0
1, 33881, Note_on_c, 0, 66, 0
1, 33881, Note_on_c, 0, 63, 0
1, 33888, Note_on_c, 1, 47, 70
1, 33888, Note_on_c, 1, 35, 70
1, 33936, Note_on_c, 0, 66, 71
1, 33936, Note_on_c, 0, 63, 71
1, 33956, Note_on_c, 0, 66, 0
1, 33956, Note_on_c, 0, 63, 0
1, 33977, Note_on_c, 1, 47, 0
1, 33977, Note_on_c, 1, 35, 0
1, 33984, Note_on_c, 0, 66, 72
1, 33984, Note_on_c, 0, 63, 72
1, 34032, Note_on_c, 1, 47, 73
1, 34032, Note_on_c, 1, 35, 73
1, 34052, Note_on_c, 1, 47, 0
1, 34052, Note_on_c, 1, 35, 0
1, 34073, Note_on_c, 0, 66, 0
1, 34073, Note_on_c, 0, 63, 0
1, 34080, Note_on_c, 1, 47, 74
1, 34080, Note_on_c, 1, 35, 74
1, 34128, Note_on_c, 0, 69, 74
1, 34128, Note_on_c, 0, 66, 74
1, 34148, Note_on_c, 0, 69, 0
1, 34148, Note_on_c, 0, 66, 0
1, 34169, Note_on_c, 1, 47, 0
1, 34169, Note_on_c, 1, 35, 0
1, 34176, Note_on_c, 0, 67, 75
1, 34176, Note_on_c, 0, 64, 75
1, 34224, Note_on_c, 1, 52, 76
1, 34224, Note_on_c, 1, 40, 76
1, 34244, Note_on_c, 1, 52, 0
1, 34244, Note_on_c, 1, 40, 0
1, 34265, Note_on_c, 0, 67, 0
1, 34265, Note_on_c, 0, 64, 0
1, 34272, Note_on_c, 1, 52, 77
1, 34272, Note_on_c, 1, 40, 77
1, 34320, Note_on_c, 0, 71, 78
1, 34320, Note_on_c, 0, 67, 78
1, 34340, Note_on_c, 0, 71, 0
1, 34340, Note_on_c, 0, 67, 0
1, 34361, Note_on_c, 1, 52, 0
1, 34361, Note_on_c, 1, 40, 0
1, 34368, Note_on_c, 0, 72, 79
1, 34368, Note_on_c, 0, 69, 79
1, 34416, Note_on_c, 1, 52, 80
1, 34416, Note_on_c, 1, 40, 80
1, 34436, Note_on_c, 1, 52, 0
1, 34436, Note_on_c, 1, 40, 0
1, 34457, Note_on_c, 0, 72, 0
1, 34457, Note_on_c, 0, 69, 0
1, 34464, Note_on_c, 1, 52, 81
1, 34464, Note_on_c, 1, 40, 81
1, 34512, Note_on_c, 0, 75, 81
1, 34512, Note_on_c, 0, 66, 81
1, 34532, Note_on_c, 0, 75, 0
1, 34532, Note_on_c, 0, 66, 0
1, 34553, Note_on_c, 1, 52, 0
1, 34553, Note_on_c, 1, 40, 0
1, 34560, Note_on_c, 0, 76, 98
1, 34560, Note_on_c, 0, 67, 98
1, 34608, Note_on_c, 1, 52, 84
1, 34608, Note_on_c, 1, 40, 84
1, 34628, Note_on_c, 1, 52, 0
1, 34628, Note_on_c, 1, 40, 0
1, 34656, Note_on_c, 0, 76, 0
1, 34656, Note_on_c, 0, 67, 0
1, 34656, Note_on_c, 1, 52, 84
1, 34656, Note_on_c, 1, 40, 84
1, 34704, Note_on_c, 0, 71, 84
1, 34704, Note_on_c, 0, 67, 84
1, 34745, Note_on_c, 1, 52, 0
1, 34745, Note_on_c, 1, 40, 0
1, 34749, Note_on_c, 0, 71, 0
1, 34749, Note_on_c, 0, 67, 0
1, 34752, Note_on_c, 1, 47, 84
1, 34752, Note_on_c, 1, 35, 84
1, 34797, Note_on_c, 1, 47, 0
1, 34797, Note_on_c, 1, 35, 0
1, 34800, Note_on_c, 0, 69, 81
1, 34800, Note_on_c, 0, 66, 81
1, 34845, Note_on_c, 0, 69, 0
1, 34845, Note_on_c, 0, 66, 0
1, 34848, Note_on_c, 1, 47, 81
1, 34848, Note_on_c, 1, 35, 81
1, 34893, Note_on_c, 1, 47, 0
1, 34893, Note_on_c, 1, 35, 0
1, 34896, Note_on_c, 0, 67, 78
1, 34896, Note_on_c, 0, 64, 78
1, 34941, Note_on_c, 0, 67, 0
1, 34941, Note_on_c, 0, 64, 0
1, 34944, Note_on_c, 1, 47, 78
1, 34944, Note_on_c, 1, 35, 78
1, 34992, Note_on_c, 0, 66, 76
1, 34992, Note_on_c, 0, 63, 76
1, 35033, Note_on_c, 1, 47, 0
1, 35033, Note_on_c, 1, 35, 0
1, 35037, Note_on_c, 0, 66, 0
1, 35037, Note_on_c, 0, 63, 0
1, 35040, Note_on_c, 0, 59, 75
1, 35085, Note_on_c, 0, 59, 0
1, 35088, Note_on_c, 0, 71, 75
1, 35088, Note_on_c, 0, 67, 75
1, 35133, Note_on_c, 0, 71, 0
1, 35133, Note_on_c, 0, 67, 0
1, 35136, Note_on_c, 1, 47, 75
1, 35136, Note_on_c, 1, 35, 75
1, 35181, Note_on_c, 1, 47, 0
1, 35181, Note_on_c, 1, 35, 0
1, 35184, Note_on_c, 0, 69, 73
1, 35184, Note_on_c, 0, 66, 73
1, 35229, Note_on_c, 0, 69, 0
1, 35229, Note_on_c, 0, 66, 0
1, 35232, Note_on_c, 1, 47, 73
1, 35232, Note_on_c, 1, 35, 73
1, 35277, Note_on_c, 1, 47, 0
1, 35277, Note_on_c, 1, 35, 0
1, 35280, Note_on_c, 0, 67, 71
1, 35280, Note_on_c, 0, 64, 71
1, 35325, Note_on_c, 0, 67, 0
1, 35325, Note_on_c, 0, 64, 0
1, 35328, Note_on_c, 1, 47, 71
1, 35328, Note_on_c, 1, 35, 71
1, 35376, Note_on_c, 0, 66, 69
1, 35376, Note_on_c, 0, 63, 69
1, 35417, Note_on_c, 1, 47, 0
1, 35417, Note_on_c, 1, 35, 0
1, 35421, Note_on_c, 0, 66, 0
1, 35421, Note_on_c, 0, 63, 0
1, 35424, Note_on_c, 0, 59, 69
1, 35469, Note_on_c, 0, 59, 0
1, 35472, Note_on_c, 0, 71, 69
1, 35472, Note_on_c, 0, 67, 69
1, 35517, Note_on_c, 0, 71, 0
1, 35517, Note_on_c, 0, 67, 0
1, 35520, Note_on_c, 1, 47, 69
1, 35520, Note_on_c, 1, 35, 69
1, 35565, Note_on_c, 1, 47, 0
1, 35565, Note_on_c, 1, 35, 0
1, 35568, Note_on_c, 0, 69, 66
1, 35568, Note_on_c, 0, 66, 66
1, 35613, Note_on_c, 0, 69, 0
1, 35613, Note_on_c, 0, 66, 0
1, 35616, Note_on_c, 1, 47, 66
1, 35616, Note_on_c, 1, 35, 66
1, 35661, Note_on_c, 1, 47, 0
1, 35661, Note_on_c, 1, 35, 0
1, 35664, Note_on_c, 0, 67, 64
1, 35664, Note_on_c, 0, 64, 64
1, 35709, Note_on_c, 0, 67, 0
1, 35709, Note_on_c, 0, 64, 0
1, 35712, Note_on_c, 0, 66, 63
1, 35712, Note_on_c, 0, 63, 63
1, 35712, Note_on_c, 1, 47, 63
1, 35712, Note_on_c, 1, 35, 63
1, 35801, Note_on_c, 0, 66, 0
1, 35801, Note_on_c, 0, 63, 0
1, 35801, Note_on_c, 1, 47, 0
1, 35801, Note_on_c, 1, 35, 0
1, 35904, Note_on_c, 0, 68, 84
1, 35904, Note_on_c, 1, 56, 84
1, 35904, Note_on_c, 1, 44, 84
1, 35927, Note_on_c, 0, 68, 0
1, 35928, Note_on_c, 0, 64, 84
1, 35951, Note_on_c, 0, 64, 0
1, 35952, Note_on_c, 0, 71, 84
1, 35975, Note_on_c, 0, 71, 0
1, 35976, Note_on_c, 0, 68, 84
1, 35993, Note_on_c, 1, 56, 0
1, 35993, Note_on_c, 1, 44, 0
1, 35999, Note_on_c, 0, 68, 0
1, 36000, Note_on_c, 0, 76, 84
1, 36023, Note_on_c, 0, 76, 0
1, 36024, Note_on_c, 0, 71, 84
1, 36047, Note_on_c, 0, 71, 0
1, 36048, Note_on_c, 0, 68, 84
1, 36048, Note_on_c, 1, 56, 84
1, 36048, Note_on_c, 1, 44, 84
1, 36071, Note_on_c, 0, 68, 0
1, 36072, Note_on_c, 0, 64, 84
1, 36093, Note_on_c, 1, 56, 0
1, 36093, Note_on_c, 1, 44, 0
1, 36095, Note_on_c, 0, 64, 0
1, 36096, Note_on_c, 0, 68, 84
1, 36096, Note_on_c, 1, 57, 84
1, 36096, Note_on_c, 1, 45, 84
1, 36119, Note_on_c, 0, 68, 0
1, 36120, Note_on_c, 0, 64, 84
1, 36143, Note_on_c, 0, 64, 0
1, 36144, Note_on_c, 0, 71, 84
1, 36167, Note_on_c, 0, 71, 0
1, 36168, Note_on_c, 0, 68, 84
1, 36185, Note_on_c, 1, 57, 0
1, 36185, Note_on_c, 1, 45, 0
1, 36191, Note_on_c, 0, 68, 0
1, 36192, Note_on_c, 0, 76, 84
1, 36215, Note_on_c, 0, 76, 0
1, 36216, Note_on_c, 0, 71, 84
1, 36239, Note_on_c, 0, 71, 0
1, 36240, Note_on_c, 0, 68, 84
1, 36240, Note_on_c, 1, 57, 84
1, 36240, Note_on_c, 1, 45, 84
1, 36263, Note_on_c, 0, 68, 0
1, 36264, Note_on_c, 0, 64, 84
1, 36285, Note_on_c, 1, 57, 0
1, 36285, Note_on_c, 1, 45, 0
1, 36287, Note_on_c, 0, 64, 0
1, 36288, Note_on_c, 0, 68, 84
1, 36288, Note_on_c, 1, 59, 84
1, 36288, Note_on_c, 1, 47, 84
1, 36311, Note_on_c, 0, 68, 0
1, 36312, Note_on_c, 0, 64, 84
1, 36335, Note_on_c, 0, 64, 0
1, 36336, Note_on_c, 0, 71, 84
1, 36359, Note_on_c, 0, 71, 0
1, 36360, Note_on_c, 0, 68, 84
1, 36377, Note_on_c, 1, 59, 0
1, 36377, Note_on_c, 1, 47, 0
1, 36383, Note_on_c, 0, 68, 0
1, 36384, Note_on_c, 0, 76, 84
1, 36407, Note_on_c, 0, 76, 0
1, 36408, Note_on_c, 0, 71, 84
1, 36431, Note_on_c, 0, 71, 0
1, 36432, Note_on_c, 0, 68, 84
1, 36432, Note_on_c, 1, 59, 84
1, 36432, Note_on_c, 1, 47, 84
1, 36455, Note_on_c, 0, 68, 0
1, 36456, Note_on_c, 0, 64, 84
1, 36477, Note_on_c, 1, 59, 0
1, 36477, Note_on_c, 1, 47, 0
1, 36479, Note_on_c, 0, 64, 0
1, 36480, Note_on_c, 0, 69, 84
1, 36480, Note_on_c, 1, 61, 84
1, 36480, Note_on_c, 1, 49, 84
1, 36503, Note_on_c, 0, 69, 0
1, 36504, Note_on_c, 0, 64, 84
1, 36527, Note_on_c, 0, 64, 0
1, 36528, Note_on_c, 0, 73, 84
1, 36551, Note_on_c, 0, 73, 0
1, 36552, Note_on_c, 0, 69, 84
1, 36569, Note_on_c, 1, 61, 0
1, 36569, Note_on_c, 1, 49, 0
1, 36575, Note_on_c, 0, 69, 0
1, 36576, Note_on_c, 0, 76, 84
1, 36599, Note_on_c, 0, 76, 0
1, 36600, Note_on_c, 0, 73, 84
1, 36623, Note_on_c, 0, 73, 0
1, 36624, Note_on_c, 0, 69, 84
1, 36624, Note_on_c, 1, 61, 84
1, 36624, Note_on_c, 1, 49, 84
1, 36647, Note_on_c, 0, 69, 0
1, 36648, Note_on_c, 0, 64, 84
1, 36669, Note_on_c, 1, 61, 0
1, 36669, Note_on_c, 1, 49, 0
1, 36671, Note_on_c, 0, 64, 0
1, 36672, Note_on_c, 0, 76, 84
1, 36672, Note_on_c, 1, 56, 84
1, 36672, Note_on_c, 1, 44, 84
1, 36695, Note_on_c, 0, 76, 0
1, 36696, Note_on_c, 0, 71, 84
1, 36719, Note_on_c, 0, 71, 0
1, 36720, Note_on_c, 0, 68, 84
1, 36743, Note_on_c, 0, 68, 0
1, 36744, Note_on_c, 0, 64, 84
1, 36761, Note_on_c, 1, 56, 0
1, 36761, Note_on_c, 1, 44, 0
1, 36767, Note_on_c, 0, 64, 0
1, 36768, Note_on_c, 0, 76, 84
1, 36768, Note_on_c, 1, 57, 84
1, 36768, Note_on_c, 1, 45, 84
1, 36791, Note_on_c, 0, 76, 0
1, 36792, Note_on_c, 0, 73, 84
1, 36815, Note_on_c, 0, 73, 0
1, 36816, Note_on_c, 0, 69, 84
1, 36839, Note_on_c, 0, 69, 0
1, 36840, Note_on_c, 0, 64, 84
1, 36857, Note_on_c, 1, 57, 0
1, 36857, Note_on_c, 1, 45, 0
1, 36863, Note_on_c, 0, 64, 0
1, 36864, Note_on_c, 0, 76, 84
1, 36864, Note_on_c, 1, 56, 84
1, 36864, Note_on_c, 1, 44, 84
1, 36887, Note_on_c, 0, 76, 0
1, 36888, Note_on_c, 0, 71, 84
1, 36911, Note_on_c, 0, 71, 0
1, 36912, Note_on_c, 0, 68, 84
1, 36935, Note_on_c, 0, 68, 0
1, 36936, Note_on_c, 0, 64, 84
1, 36953, Note_on_c, 1, 56, 0
1, 36953, Note_on_c, 1, 44, 0
1, 36959, Note_on_c, 0, 64, 0
1, 36960, Note_on_c, 0, 76, 84
1, 36960, Note_on_c, 1, 57, 84
1, 36960, Note_on_c, 1, 45, 84
1, 36983, Note_on_c, 0, 76, 0
1, 36984, Note_on_c, 0, 73, 84
1, 37007, Note_on_c, 0, 73, 0
1, 37008, Note_on_c, 0, 69, 84
1, 37031, Note_on_c, 0, 69, 0
1, 37032, Note_on_c, 0, 64, 84
1, 37049, Note_on_c, 1, 57, 0
1, 37049, Note_on_c, 1, 45, 0
1, 37055, Note_on_c, 0, 64, 0
1, 37056, Note_on_c, 0, 76, 84
1, 37056, Note_on_c, 1, 56, 84
1, 37056, Note_on_c, 1, 44, 84
1, 37079, Note_on_c, 0, 76, 0
1, 37080, Note_on_c, 0, 71, 84
1, 37103, Note_on_c, 0, 71, 0
1, 37104, Note_on_c, 0, 68, 84
1, 37127, Note_on_c, 0, 68, 0
1, 37128, Note_on_c, 0, 64, 84
1, 37145, Note_on_c, 1, 56, 0
1, 37145, Note_on_c, 1, 44, 0
1, 37151, Note_on_c, 0, 64, 0
1, 37152, Note_on_c, 0, 76, 84
1, 37152, Note_on_c, 1, 57, 84
1, 37152, Note_on_c, 1, 45, 84
1, 37175, Note_on_c, 0, 76, 0
1, 37176, Note_on_c, 0, 73, 84
1, 37199, Note_on_c, 0, 73, 0
1, 37200, Note_on_c, 0, 69, 84
1, 37223, Note_on_c, 0, 69, 0
1, 37224, Note_on_c, 0, 64, 84
1, 37241, Note_on_c, 1, 57, 0
1, 37241, Note_on_c, 1, 45, 0
1, 37247, Note_on_c, 0, 64, 0
1, 37248, Note_on_c, 0, 66, 84
1, 37248, Note_on_c, 1, 59, 84
1, 37265, Note_on_c, 0, 66, 0
1, 37266, Note_on_c, 0, 68, 84
1, 37283, Note_on_c, 0, 68, 0
1, 37284, Note_on_c, 0, 66, 84
1, 37301, Note_on_c, 0, 66, 0
1, 37302, Note_on_c, 0, 68, 84
1, 37319, Note_on_c, 0, 68, 0
1, 37320, Note_on_c, 0, 66, 84
1, 37337, Note_on_c, 0, 66, 0
1, 37337, Note_on_c, 1, 59, 0
1, 37338, Note_on_c, 0, 68, 84
1, 37344, Note_on_c, 1, 47, 84
1, 37354, Note_on_c, 0, 68, 0
1, 37355, Note_on_c, 0, 66, 84
1, 37371, Note_on_c, 0, 66, 0
1, 37372, Note_on_c, 0, 68, 84
1, 37388, Note_on_c, 0, 68, 0
1, 37389, Note_on_c, 0, 66, 84
1, 37405, Note_on_c, 0, 66, 0
1, 37406, Note_on_c, 0, 64, 84
1, 37422, Note_on_c, 0, 64, 0
1, 37423, Note_on_c, 0, 66, 84
1, 37433, Note_on_c, 1, 47, 0
1, 37439, Note_on_c, 0, 66, 0
1, 37440, Note_on_c, 0, 64, 84
1, 37440, Note_on_c, 1, 52, 84
1, 37529, Note_on_c, 0, 64, 0
1, 37529, Note_on_c, 1, 52, 0
1, 37584, Note_on_c, 0, 83, 61
1, 37584, Note_on_c, 0, 80, 61
1, 37604, Note_on_c, 0, 83, 0
1, 37604, Note_on_c, 0, 80, 0
1, 37632, Note_on_c, 0, 83, 61
1, 37632, Note_on_c, 0, 80, 61
1, 37680, Note_on_c, 0, 83, 0
1, 37680, Note_on_c, 0, 76, 61
1, 37700, Note_on_c, 0, 80, 0
1, 37700, Note_on_c, 0, 76, 0
1, 37728, Note_on_c, 0, 80, 61
1, 37728, Note_on_c, 0, 76, 61
1, 37776, Note_on_c, 0, 80, 0
1, 37776, Note_on_c, 0, 76, 0
1, 37776, Note_on_c, 0, 81, 61
1, 37776, Note_on_c, 0, 78, 61
1, 37796, Note_on_c, 0, 81, 0
1, 37796, Note_on_c, 0, 78, 0
1, 37824, Note_on_c, 0, 81, 61
1, 37824, Note_on_c, 0, 78, 61
1, 37872, Note_on_c, 0, 81, 0
1, 37872, Note_on_c, 0, 75, 61
1, 37917, Note_on_c, 0, 78, 0
1, 37917, Note_on_c, 0, 75, 0
1, 37968, Note_on_c, 0, 71, 84
1, 37968, Note_on_c, 1, 59, 84
1, 37988, Note_on_c, 0, 71, 0
1, 37988, Note_on_c, 1, 59, 0
1, 38016, Note_on_c, 0, 76, 84
1, 38016, Note_on_c, 1, 64, 84
1, 38061, Note_on_c, 0, 76, 0
1, 38061, Note_on_c, 1, 64, 0
1, 38064, Note_on_c, 0, 71, 84
1, 38064, Note_on_c, 1, 59, 84
1, 38109, Note_on_c, 0, 71, 0
1, 38109, Note_on_c, 1, 59, 0
1, 38112, Note_on_c, 0, 76, 84
1, 38112, Note_on_c, 1, 64, 84
1, 38135, Note_on_c, 0, 76, 0
1, 38135, Note_on_c, 1, 64, 0
1, 38136, Note_on_c, 0, 71, 84
1, 38136, Note_on_c, 1, 59, 84
1, 38159, Note_on_c, 0, 71, 0
1, 38159, Note_on_c, 1, 59, 0
1, 38160, Note_on_c, 0, 68, 84
1, 38160, Note_on_c, 1, 56, 84
1, 38183, Note_on_c, 0, 68, 0
1, 38183, Note_on_c, 1, 56, 0
1, 38184, Note_on_c, 0, 64, 84
1, 38184, Note_on_c, 1, 52, 84
1, 38207, Note_on_c, 0, 64, 0
1, 38207, Note_on_c, 1, 52, 0
1, 38208, Note_on_c, 0, 71, 84
1, 38208, Note_on_c, 1, 59, 84
1, 38297, Note_on_c, 0, 71, 0
1, 38297, Note_on_c, 1, 59, 0
1, 38352, Note_on_c, 0, 83, 61
1, 38352, Note_on_c, 0, 79, 61
1, 38372, Note_on_c, 0, 83, 0
1, 38372, Note_on_c, 0, 79, 0
1, 38400, Note_on_c, 0, 83, 61
1, 38400, Note_on_c, 0, 79, 61
1, 38448, Note_on_c, 0, 83, 0
1, 38448, Note_on_c, 0, 76, 61
1, 38468, Note_on_c, 0, 79, 0
1, 38468, Note_on_c, 0, 76, 0
1, 38496, Note_on_c, 0, 79, 61
1, 38496, Note_on_c, 0, 76, 61
1, 38544, Note_on_c, 0, 79, 0
1, 38544, Note_on_c, 0, 76, 0
1, 38544, Note_on_c, 0, 81, 61
1, 38544, Note_on_c, 0, 78, 61
1, 38564, Note_on_c, 0, 81, 0
1, 38564, Note_on_c, 0, 78, 0
1, 38592, Note_on_c, 0, 81, 61
1, 38592, Note_on_c, 0, 78, 61
1, 38640, Note_on_c, 0, 81, 0
1, 38640, Note_on_c, 0, 75, 61
1, 38685, Note_on_c, 0, 78, 0
1, 38685, Note_on_c, 0, 75, 0
1, 38736, Note_on_c, 0, 75, 69
1, 38756, Note_on_c, 0, 75, 0
1, 38784, Note_on_c, 0, 76, 69
1, 38784, Note_on_c, 1, 55, 84
1, 38784, Note_on_c, 1, 48, 64
1, 38851, Note_on_c, 0, 76, 0
1, 38856, Note_on_c, 0, 75, 69
1, 38873, Note_on_c, 1, 55, 0
1, 38879, Note_on_c, 0, 75, 0
1, 38880, Note_on_c, 0, 76, 69
1, 38880, Note_on_c, 1, 58, 84
1, 38903, Note_on_c, 0, 76, 0
1, 38904, Note_on_c, 0, 79, 69
1, 38927, Note_on_c, 0, 79, 0
1, 38928, Note_on_c, 0, 78, 69
1, 38951, Note_on_c, 0, 78, 0
1, 38952, Note_on_c, 0, 76, 69
1, 38961, Note_on_c, 1, 48, 0
1, 38969, Note_on_c, 1, 58, 0
1, 38975, Note_on_c, 0, 76, 0
1, 38976, Note_on_c, 0, 75, 69
1, 38976, Note_on_c, 1, 59, 84
1, 38976, Note_on_c, 1, 47, 84
1, 39065, Note_on_c, 0, 75, 0
1, 39065, Note_on_c, 1, 59, 0
1, 39065, Note_on_c, 1, 47, 0
1, 39120, Note_on_c, 0, 64, 75
1, 39120, Note_on_c, 0, 56, 75
1, 39140, Note_on_c, 0, 64, 0
1, 39140, Note_on_c, 0, 56, 0
1, 39168, Note_on_c, 0, 64, 75
1, 39168, Note_on_c, 0, 56, 75
1, 39168, Note_on_c, 1, 52, 75
1, 39168, Note_on_c, 1, 40, 75
1, 39216, Note_on_c, 0, 56, 0
1, 39216, Note_on_c, 0, 68, 75
1, 39236, Note_on_c, 0, 68, 0
1, 39236, Note_on_c, 0, 64, 0
1, 39257, Note_on_c, 1, 52, 0
1, 39257, Note_on_c, 1, 40, 0
1, 39264, Note_on_c, 0, 68, 75
1, 39264, Note_on_c, 0, 64, 75
1, 39312, Note_on_c, 0, 64, 0
1, 39312, Note_on_c, 0, 71, 75
1, 39332, Note_on_c, 0, 71, 0
1, 39332, Note_on_c, 0, 68, 0
1, 39360, Note_on_c, 0, 71, 75
1, 39360, Note_on_c, 0, 68, 64
1, 39427, Note_on_c, 0, 71, 0
1, 39432, Note_on_c, 0, 76, 75
1, 39455, Note_on_c, 0, 76, 0
1, 39456, Note_on_c, 0, 71, 75
1, 39501, Note_on_c, 0, 71, 0
1, 39501, Note_on_c, 0, 68, 0
1, 39552, Note_on_c, 0, 73, 75
1, 39552, Note_on_c, 1, 57, 75
1, 39575, Note_on_c, 1, 57, 0
1, 39576, Note_on_c, 1, 64, 75
1, 39599, Note_on_c, 1, 64, 0
1, 39600, Note_on_c, 1, 61, 75
1, 39619, Note_on_c, 0, 73, 0
1, 39623, Note_on_c, 1, 61, 0
1, 39624, Note_on_c, 0, 75, 75
1, 39624, Note_on_c, 1, 64, 75
1, 39647, Note_on_c, 0, 75, 0
1, 39647, Note_on_c, 1, 64, 0
1, 39648, Note_on_c, 0, 76, 75
1, 39648, Note_on_c, 1, 56, 75
1, 39671, Note_on_c, 1, 56, 0
1, 39672, Note_on_c, 1, 64, 75
1, 39693, Note_on_c, 0, 76, 0
1, 39695, Note_on_c, 1, 64, 0
1, 39696, Note_on_c, 1, 59, 75
1, 39719, Note_on_c, 1, 59, 0
1, 39720, Note_on_c, 1, 64, 75
1, 39743, Note_on_c, 1, 64, 0
1, 39744, Note_on_c, 0, 73, 75
1, 39744, Note_on_c, 1, 57, 75
1, 39767, Note_on_c, 1, 57, 0
1, 39768, Note_on_c, 1, 64, 75
1, 39791, Note_on_c, 1, 64, 0
1, 39792, Note_on_c, 1, 61, 75
1, 39811, Note_on_c, 0, 73, 0
1, 39815, Note_on_c, 1, 61, 0
1, 39816, Note_on_c, 0, 75, 75
1, 39816, Note_on_c, 1, 64, 75
1, 39839, Note_on_c, 0, 75, 0
1, 39839, Note_on_c, 1, 64, 0
1, 39840, Note_on_c, 0, 76, 75
1, 39840, Note_on_c, 1, 56, 75
1, 39863, Note_on_c, 1, 56, 0
1, 39864, Note_on_c, 1, 64, 75
1, 39885, Note_on_c, 0, 76, 0
1, 39887, Note_on_c, 1, 64, 0
1, 39888, Note_on_c, 1, 59, 75
1, 39911, Note_on_c, 1, 59, 0
1, 39912, Note_on_c, 1, 64, 75
1, 39935, Note_on_c, 1, 64, 0
1, 39936, Note_on_c, 0, 73, 75
1, 39936, Note_on_c, 1, 57, 75
1, 39959, Note_on_c, 0, 73, 0
1, 39960, Note_on_c, 0, 76, 75
1, 39983, Note_on_c, 0, 76, 0
1, 39984, Note_on_c, 0, 75, 75
1, 40007, Note_on_c, 0, 75, 0
1, 40008, Note_on_c, 0, 73, 75
1, 40025, Note_on_c, 1, 57, 0
1, 40031, Note_on_c, 0, 73, 0
1, 40032, Note_on_c, 0, 71, 75
1, 40055, Note_on_c, 0, 71, 0
1, 40056, Note_on_c, 0, 69, 75
1, 40079, Note_on_c, 0, 69, 0
1, 40080, Note_on_c, 0, 68, 75
1, 40103, Note_on_c, 0, 68, 0
1, 40104, Note_on_c, 0, 66, 75
1, 40127, Note_on_c, 0, 66, 0
1, 40128, Note_on_c, 0, 64, 75
1, 40128, Note_on_c, 1, 52, 75
1, 40128, Note_on_c, 1, 47, 75
1, 40217, Note_on_c, 0, 64, 0
1, 40217, Note_on_c, 1, 52, 0
1, 40217, Note_on_c, 1, 47, 0
1, 40224, Note_on_c, 0, 68, 75
1, 40224, Note_on_c, 1, 51, 75
1, 40224, Note_on_c, 1, 47, 75
1, 40239, Note_on_c, 0, 68, 0
1, 40240, Note_on_c, 0, 66, 75
1, 40255, Note_on_c, 0, 66, 0
1, 40256, Note_on_c, 0, 68, 75
1, 40271, Note_on_c, 0, 68, 0
1, 40272, Note_on_c, 0, 66, 75
1, 40287, Note_on_c, 0, 66, 0
1, 40288, Note_on_c, 0, 64, 75
1, 40303, Note_on_c, 0, 64, 0
1, 40304, Note_on_c, 0, 66, 75
1, 40313, Note_on_c, 1, 51, 0
1, 40313, Note_on_c, 1, 47, 0
1, 40319, Note_on_c, 0, 66, 0
1, 40320, Note_on_c, 0, 64, 75
1, 40320, Note_on_c, 1, 52, 75
1, 40365, Note_on_c, 1, 52, 0
1, 40368, Note_on_c, 1, 47, 75
1, 40409, Note_on_c, 0, 64, 0
1, 40413, Note_on_c, 1, 47, 0
1, 40416, Note_on_c, 1, 40, 75
1, 40464, Note_on_c, 0, 64, 75
1, 40464, Note_on_c, 0, 56, 75
1, 40484, Note_on_c, 0, 64, 0
1, 40484, Note_on_c, 0, 56, 0
1, 40505, Note_on_c, 1, 40, 0
1, 40512, Note_on_c, 0, 64, 75
1, 40512, Note_on_c, 0, 56, 75
1, 40560, Note_on_c, 1, 52, 75
1, 40560, Note_on_c, 1, 40, 75
1, 40580, Note_on_c, 1, 52, 0
1, 40580, Note_on_c, 1, 40, 0
1, 40601, Note_on_c, 0, 64, 0
1, 40601, Note_on_c, 0, 56, 0
1, 40608, Note_on_c, 1, 52, 76
1, 40608, Note_on_c, 1, 40, 76
1, 40656, Note_on_c, 0, 68, 77
1, 40656, Note_on_c, 0, 64, 77
1, 40676, Note_on_c, 0, 68, 0
1, 40676, Note_on_c, 0, 64, 0
1, 40697, Note_on_c, 1, 52, 0
1, 40697, Note_on_c, 1, 40, 0
1, 40704, Note_on_c, 0, 68, 78
1, 40704, Note_on_c, 0, 64, 78
1, 40752, Note_on_c, 1, 52, 78
1, 40752, Note_on_c, 1, 40, 78
1, 40772, Note_on_c, 1, 52, 0
1, 40772, Note_on_c, 1, 40, 0
1, 40793, Note_on_c, 0, 68, 0
1, 40793, Note_on_c, 0, 64, 0
1, 40800, Note_on_c, 1, 52, 79
1, 40800, Note_on_c, 1, 40, 79
1, 40848, Note_on_c, 0, 71, 80
1, 40848, Note_on_c, 0, 68, 80
1, 40868, Note_on_c, 0, 71, 0
1, 40868, Note_on_c, 0, 68, 0
1, 40889, Note_on_c, 1, 52, 0
1, 40889, Note_on_c, 1, 40, 0
1, 40896, Note_on_c, 0, 71, 81
1, 40896, Note_on_c, 0, 68, 81
1, 40944, Note_on_c, 1, 52, 81
1, 40944, Note_on_c, 1, 40, 81
1, 40985, Note_on_c, 0, 71, 0
1, 40985, Note_on_c, 0, 68, 0
1, 40989, Note_on_c, 1, 52, 0
1, 40989, Note_on_c, 1, 40, 0
1, 40992, Note_on_c, 1, 52, 82
1, 40992, Note_on_c, 1, 40, 82
1, 41040, Note_on_c, 0, 76, 83
1, 41040, Note_on_c, 0, 68, 83
1, 41060, Note_on_c, 0, 76, 0
1, 41060, Note_on_c, 0, 68, 0
1, 41081, Note_on_c, 1, 52, 0
1, 41081, Note_on_c, 1, 40, 0
1, 41088, Note_on_c, 0, 76, 84
1, 41088, Note_on_c, 0, 68, 84
1, 41177, Note_on_c, 0, 76, 0
1, 41177, Note_on_c, 0, 68, 0
1, 41232, Note_on_c, 1, 40, 4
1, 41277, Note_on_c, 1, 40, 0
1, 41287, End_track
0, 0, End_of_file