0, 0, Header, 0, 1, 96
1, 0, Start_track
1, 0, Tempo, 1818181
1, 0, Note_on_c, 0, 60, 58
1, 0, Note_on_c, 1, 46, 50
1, 0, Note_on_c, 1, 34, 50
1, 4, Note_on_c, 0, 60, 0
1, 4, Note_on_c, 0, 58, 58
1, 8, Note_on_c, 0, 58, 0
1, 8, Note_on_c, 0, 57, 58
1, 12, Note_on_c, 0, 57, 0
1, 12, Note_on_c, 0, 58, 58
1, 35, Note_on_c, 0, 58, 0
1, 36, Note_on_c, 0, 62, 58
1, 45, Note_on_c, 1, 46, 0
1, 45, Note_on_c, 1, 34, 0
1, 48, Note_on_c, 0, 62, 0
1, 48, Note_on_c, 0, 58, 58
1, 93, Note_on_c, 0, 58, 0
1, 96, Note_on_c, 1, 62, 50
1, 96, Note_on_c, 1, 58, 50
1, 132, Note_on_c, 0, 65, 58
1, 141, Note_on_c, 1, 62, 0
1, 141, Note_on_c, 1, 58, 0
1, 144, Note_on_c, 0, 65, 0
1, 144, Note_on_c, 0, 74, 58
1, 178, Note_on_c, 0, 74, 0
1, 180, Note_on_c, 0, 70, 58
1, 192, Note_on_c, 0, 70, 0
1, 192, Note_on_c, 0, 69, 58
1, 192, Note_on_c, 1, 63, 50
1, 192, Note_on_c, 1, 60, 50
1, 196, Note_on_c, 0, 69, 0
1, 196, Note_on_c, 0, 70, 58
1, 200, Note_on_c, 0, 70, 0
1, 200, Note_on_c, 0, 72, 58
1, 204, Note_on_c, 0, 72, 0
1, 204, Note_on_c, 0, 70, 58
1, 237, Note_on_c, 1, 63, 0
1, 237, Note_on_c, 1, 60, 0
1, 249, Note_on_c, 0, 70, 0
1, 252, Note_on_c, 0, 69, 58
1, 258, Note_on_c, 0, 69, 0
1, 258, Note_on_c, 0, 70, 58
1, 264, Note_on_c, 0, 70, 0
1, 264, Note_on_c, 0, 72, 58
1, 270, Note_on_c, 0, 72, 0
1, 270, Note_on_c, 0, 70, 58
1, 276, Note_on_c, 0, 70, 0
1, 276, Note_on_c, 0, 69, 58
1, 282, Note_on_c, 0, 69, 0
1, 282, Note_on_c, 0, 70, 58
1, 288, Note_on_c, 0, 70, 0
1, 288, Note_on_c, 0, 69, 58
1, 288, Note_on_c, 1, 51, 50
1, 288, Note_on_c, 1, 48, 50
1, 308, Note_on_c, 0, 69, 0
1, 333, Note_on_c, 1, 51, 0
1, 333, Note_on_c, 1, 48, 0
1, 384, Note_on_c, 0, 62, 58
1, 384, Note_on_c, 0, 57, 64
1, 384, Note_on_c, 1, 41, 50
1, 384, Note_on_c, 1, 29, 50
1, 388, Note_on_c, 0, 62, 0
1, 388, Note_on_c, 0, 60, 58
1, 392, Note_on_c, 0, 60, 0
1, 392, Note_on_c, 0, 58, 58
1, 396, Note_on_c, 0, 58, 0
1, 396, Note_on_c, 0, 60, 58
1, 419, Note_on_c, 0, 60, 0
1, 420, Note_on_c, 0, 63, 58
1, 429, Note_on_c, 1, 41, 0
1, 429, Note_on_c, 1, 29, 0
1, 432, Note_on_c, 0, 63, 0
1, 432, Note_on_c, 0, 60, 58
1, 473, Note_on_c, 0, 57, 0
1, 477, Note_on_c, 0, 60, 0
1, 480, Note_on_c, 1, 60, 50
1, 480, Note_on_c, 1, 57, 50
1, 516, Note_on_c, 0, 72, 58
1, 525, Note_on_c, 1, 60, 0
1, 525, Note_on_c, 1, 57, 0
1, 528, Note_on_c, 0, 72, 0
1, 528, Note_on_c, 0, 79, 58
1, 562, Note_on_c, 0, 79, 0
1, 564, Note_on_c, 0, 75, 58
1, 576, Note_on_c, 0, 75, 0
1, 576, Note_on_c, 0, 74, 58
1, 576, Note_on_c, 1, 58, 50
1, 580, Note_on_c, 0, 74, 0
1, 580, Note_on_c, 0, 75, 58
1, 584, Note_on_c, 0, 75, 0
1, 584, Note_on_c, 0, 77, 58
1, 588, Note_on_c, 0, 77, 0
1, 588, Note_on_c, 0, 75, 58
1, 621, Note_on_c, 1, 58, 0
1, 633, Note_on_c, 0, 75, 0
1, 636, Note_on_c, 0, 74, 58
1, 642, Note_on_c, 0, 74, 0
1, 642, Note_on_c, 0, 75, 58
1, 648, Note_on_c, 0, 75, 0
1, 648, Note_on_c, 0, 77, 58
1, 654, Note_on_c, 0, 77, 0
1, 654, Note_on_c, 0, 75, 58
1, 660, Note_on_c, 0, 75, 0
1, 660, Note_on_c, 0, 74, 58
1, 666, Note_on_c, 0, 74, 0
1, 666, Note_on_c, 0, 75, 58
1, 672, Note_on_c, 0, 75, 0
1, 672, Note_on_c, 0, 74, 58
1, 672, Note_on_c, 1, 34, 50
1, 692, Note_on_c, 0, 74, 0
1, 717, Note_on_c, 1, 34, 0
1, 768, Note_on_c, 0, 67, 58
1, 768, Note_on_c, 0, 63, 64
1, 792, Note_on_c, 1, 46, 50
1, 792, Note_on_c, 1, 34, 50
1, 815, Note_on_c, 1, 46, 0
1, 815, Note_on_c, 1, 34, 0
1, 816, Note_on_c, 1, 46, 50
1, 816, Note_on_c, 1, 34, 50
1, 839, Note_on_c, 1, 46, 0
1, 839, Note_on_c, 1, 34, 0
1, 840, Note_on_c, 1, 46, 50
1, 840, Note_on_c, 1, 34, 50
1, 857, Note_on_c, 0, 67, 0
1, 857, Note_on_c, 0, 63, 0
1, 863, Note_on_c, 1, 46, 0
1, 863, Note_on_c, 1, 34, 0
1, 864, Note_on_c, 0, 84, 58
1, 864, Note_on_c, 0, 79, 64
1, 868, Note_on_c, 0, 84, 0
1, 868, Note_on_c, 0, 82, 58
1, 872, Note_on_c, 0, 82, 0
1, 872, Note_on_c, 0, 81, 58
1, 876, Note_on_c, 0, 81, 0
1, 876, Note_on_c, 0, 82, 58
1, 888, Note_on_c, 1, 46, 50
1, 888, Note_on_c, 1, 34, 50
1, 911, Note_on_c, 1, 46, 0
1, 911, Note_on_c, 1, 34, 0
1, 912, Note_on_c, 1, 46, 50
1, 912, Note_on_c, 1, 34, 50
1, 931, Note_on_c, 0, 79, 0
1, 935, Note_on_c, 1, 46, 0
1, 935, Note_on_c, 1, 34, 0
1, 936, Note_on_c, 0, 82, 0
1, 936, Note_on_c, 0, 79, 58
1, 936, Note_on_c, 0, 75, 64
1, 936, Note_on_c, 1, 46, 50
1, 936, Note_on_c, 1, 34, 50
1, 959, Note_on_c, 0, 79, 0
1, 959, Note_on_c, 0, 75, 0
1, 959, Note_on_c, 1, 46, 0
1, 959, Note_on_c, 1, 34, 0
1, 960, Note_on_c, 0, 79, 58
1, 960, Note_on_c, 0, 75, 64
1, 960, Note_on_c, 1, 46, 50
1, 960, Note_on_c, 1, 34, 50
1, 983, Note_on_c, 0, 79, 0
1, 983, Note_on_c, 0, 75, 0
1, 984, Note_on_c, 0, 77, 59
1, 984, Note_on_c, 0, 74, 64
1, 1007, Note_on_c, 0, 77, 0
1, 1007, Note_on_c, 0, 74, 0
1, 1008, Note_on_c, 0, 75, 60
1, 1008, Note_on_c, 0, 72, 64
1, 1031, Note_on_c, 0, 75, 0
1, 1031, Note_on_c, 0, 72, 0
1, 1032, Note_on_c, 0, 74, 61
1, 1032, Note_on_c, 0, 70, 64
1, 1049, Note_on_c, 1, 46, 0
1, 1049, Note_on_c, 1, 34, 0
1, 1055, Note_on_c, 0, 74, 0
1, 1055, Note_on_c, 0, 70, 0
1, 1056, Note_on_c, 0, 72, 62
1, 1056, Note_on_c, 0, 69, 64
1, 1079, Note_on_c, 0, 72, 0
1, 1079, Note_on_c, 0, 69, 0
1, 1080, Note_on_c, 0, 70, 63
1, 1080, Note_on_c, 0, 67, 64
1, 1103, Note_on_c, 0, 70, 0
1, 1103, Note_on_c, 0, 67, 0
1, 1104, Note_on_c, 0, 69, 64
1, 1104, Note_on_c, 0, 65, 64
1, 1127, Note_on_c, 0, 69, 0
1, 1127, Note_on_c, 0, 65, 0
1, 1128, Note_on_c, 0, 67, 65
1, 1128, Note_on_c, 0, 63, 64
1, 1151, Note_on_c, 0, 67, 0
1, 1151, Note_on_c, 0, 63, 0
1, 1152, Note_on_c, 0, 65, 67
1, 1152, Note_on_c, 0, 62, 64
1, 1176, Note_on_c, 1, 53, 50
1, 1199, Note_on_c, 1, 53, 0
1, 1200, Note_on_c, 1, 53, 50
1, 1223, Note_on_c, 1, 53, 0
1, 1224, Note_on_c, 1, 53, 50
1, 1241, Note_on_c, 0, 65, 0
1, 1241, Note_on_c, 0, 62, 0
1, 1247, Note_on_c, 1, 53, 0
1, 1248, Note_on_c, 0, 63, 67
1, 1253, Note_on_c, 0, 63, 0
1, 1253, Note_on_c, 0, 65, 67
1, 1258, Note_on_c, 0, 65, 0
1, 1258, Note_on_c, 0, 63, 67
1, 1263, Note_on_c, 0, 63, 0
1, 1263, Note_on_c, 0, 65, 67
1, 1268, Note_on_c, 0, 65, 0
1, 1268, Note_on_c, 0, 63, 67
1, 1272, Note_on_c, 0, 63, 0
1, 1272, Note_on_c, 0, 65, 67
1, 1272, Note_on_c, 1, 60, 50
1, 1272, Note_on_c, 1, 54, 50
1, 1277, Note_on_c, 0, 65, 0
1, 1277, Note_on_c, 0, 63, 67
1, 1282, Note_on_c, 0, 63, 0
1, 1282, Note_on_c, 0, 65, 67
1, 1287, Note_on_c, 0, 65, 0
1, 1287, Note_on_c, 0, 63, 67
1, 1292, Note_on_c, 0, 63, 0
1, 1292, Note_on_c, 0, 65, 67
1, 1295, Note_on_c, 1, 60, 0
1, 1295, Note_on_c, 1, 54, 0
1, 1296, Note_on_c, 0, 65, 0
1, 1296, Note_on_c, 0, 63, 58
1, 1296, Note_on_c, 1, 60, 52
1, 1296, Note_on_c, 1, 54, 52
1, 1301, Note_on_c, 0, 63, 0
1, 1301, Note_on_c, 0, 65, 58
1, 1306, Note_on_c, 0, 65, 0
1, 1306, Note_on_c, 0, 63, 58
1, 1311, Note_on_c, 0, 63, 0
1, 1311, Note_on_c, 0, 65, 58
1, 1316, Note_on_c, 0, 65, 0
1, 1316, Note_on_c, 0, 63, 58
1, 1319, Note_on_c, 1, 60, 0
1, 1319, Note_on_c, 1, 54, 0
1, 1320, Note_on_c, 0, 63, 0
1, 1320, Note_on_c, 0, 62, 58
1, 1320, Note_on_c, 1, 60, 55
1, 1320, Note_on_c, 1, 54, 55
1, 1332, Note_on_c, 0, 62, 0
1, 1332, Note_on_c, 0, 63, 62
1, 1343, Note_on_c, 1, 60, 0
1, 1343, Note_on_c, 1, 54, 0
1, 1344, Note_on_c, 0, 63, 0
1, 1344, Note_on_c, 0, 63, 67
1, 1344, Note_on_c, 1, 60, 58
1, 1344, Note_on_c, 1, 55, 58
1, 1440, Note_on_c, 0, 63, 0
1, 1440, Note_on_c, 0, 62, 61
1, 1440, Note_on_c, 1, 60, 0
1, 1440, Note_on_c, 1, 58, 52
1, 1485, Note_on_c, 0, 62, 0
1, 1485, Note_on_c, 1, 58, 0
1, 1485, Note_on_c, 1, 55, 0
1, 1536, Note_on_c, 1, 39, 50
1, 1548, Note_on_c, 0, 55, 58
1, 1560, Note_on_c, 0, 55, 0
1, 1560, Note_on_c, 0, 60, 58
1, 1572, Note_on_c, 0, 60, 0
1, 1572, Note_on_c, 0, 59, 59
1, 1584, Note_on_c, 0, 59, 0
1, 1584, Note_on_c, 0, 62, 60
1, 1596, Note_on_c, 0, 62, 0
1, 1596, Note_on_c, 0, 60, 61
1, 1608, Note_on_c, 0, 60, 0
1, 1608, Note_on_c, 0, 63, 62
1, 1620, Note_on_c, 0, 63, 0
1, 1620, Note_on_c, 0, 62, 62
1, 1625, Note_on_c, 1, 39, 0
1, 1632, Note_on_c, 0, 62, 0
1, 1632, Note_on_c, 0, 65, 63
1, 1644, Note_on_c, 0, 65, 0
1, 1644, Note_on_c, 0, 63, 64
1, 1656, Note_on_c, 0, 63, 0
1, 1656, Note_on_c, 0, 67, 65
1, 1668, Note_on_c, 0, 67, 0
1, 1668, Note_on_c, 0, 66, 66
1, 1680, Note_on_c, 0, 66, 0
1, 1680, Note_on_c, 0, 67, 67
1, 1692, Note_on_c, 0, 67, 0
1, 1692, Note_on_c, 0, 63, 65
1, 1704, Note_on_c, 0, 63, 0
1, 1704, Note_on_c, 0, 62, 64
1, 1716, Note_on_c, 0, 62, 0
1, 1716, Note_on_c, 0, 60, 63
1, 1728, Note_on_c, 0, 60, 0
1, 1728, Note_on_c, 0, 65, 62
1, 1752, Note_on_c, 1, 50, 50
1, 1752, Note_on_c, 1, 41, 50
1, 1775, Note_on_c, 1, 50, 0
1, 1775, Note_on_c, 1, 41, 0
1, 1776, Note_on_c, 1, 50, 50
1, 1776, Note_on_c, 1, 41, 50
1, 1788, Note_on_c, 0, 65, 0
1, 1788, Note_on_c, 0, 67, 58
1, 1792, Note_on_c, 0, 67, 0
1, 1792, Note_on_c, 0, 65, 58
1, 1796, Note_on_c, 0, 65, 0
1, 1796, Note_on_c, 0, 63, 58
1, 1799, Note_on_c, 1, 50, 0
1, 1799, Note_on_c, 1, 41, 0
1, 1800, Note_on_c, 0, 63, 0
1, 1800, Note_on_c, 0, 65, 58
1, 1800, Note_on_c, 1, 50, 50
1, 1800, Note_on_c, 1, 41, 50
1, 1812, Note_on_c, 0, 65, 0
1, 1812, Note_on_c, 0, 67, 58
1, 1823, Note_on_c, 1, 50, 0
1, 1823, Note_on_c, 1, 41, 0
1, 1824, Note_on_c, 0, 67, 0
1, 1824, Note_on_c, 0, 58, 58
1, 1848, Note_on_c, 1, 51, 50
1, 1848, Note_on_c, 1, 41, 50
1, 1871, Note_on_c, 1, 51, 0
1, 1871, Note_on_c, 1, 41, 0
1, 1872, Note_on_c, 0, 58, 0
1, 1872, Note_on_c, 0, 57, 58
1, 1872, Note_on_c, 1, 51, 50
1, 1872, Note_on_c, 1, 41, 50
1, 1895, Note_on_c, 1, 51, 0
1, 1895, Note_on_c, 1, 41, 0
1, 1896, Note_on_c, 1, 51, 50
1, 1896, Note_on_c, 1, 41, 50
1, 1917, Note_on_c, 0, 57, 0
1, 1919, Note_on_c, 1, 51, 0
1, 1919, Note_on_c, 1, 41, 0
1, 1920, Note_on_c, 0, 58, 58
1, 1920, Note_on_c, 1, 50, 50
1, 1920, Note_on_c, 1, 46, 50
1, 1932, Note_on_c, 0, 58, 0
1, 1932, Note_on_c, 0, 62, 58
1, 1944, Note_on_c, 0, 62, 0
1, 1944, Note_on_c, 0, 53, 58
1, 1956, Note_on_c, 0, 53, 0
1, 1956, Note_on_c, 0, 58, 58
1, 1965, Note_on_c, 1, 50, 0
1, 1965, Note_on_c, 1, 46, 0
1, 1968, Note_on_c, 0, 58, 0
1, 1968, Note_on_c, 1, 50, 58
1, 1980, Note_on_c, 1, 50, 0
1, 1980, Note_on_c, 1, 53, 58
1, 1992, Note_on_c, 1, 53, 0
1, 1992, Note_on_c, 1, 46, 58
1, 2004, Note_on_c, 1, 46, 0
1, 2004, Note_on_c, 1, 50, 58
1, 2016, Note_on_c, 1, 50, 0
1, 2016, Note_on_c, 1, 34, 58
1, 2061, Note_on_c, 1, 34, 0
1, 2112, Note_on_c, 0, 79, 67
1, 2116, Note_on_c, 0, 79, 0
1, 2116, Note_on_c, 0, 77, 67
1, 2120, Note_on_c, 0, 77, 0
1, 2120, Note_on_c, 0, 76, 67
1, 2124, Note_on_c, 0, 76, 0
1, 2124, Note_on_c, 0, 77, 67
1, 2136, Note_on_c, 1, 74, 50
1, 2136, Note_on_c, 1, 70, 50
1, 2159, Note_on_c, 1, 74, 0
1, 2159, Note_on_c, 1, 70, 0
1, 2160, Note_on_c, 1, 74, 50
1, 2160, Note_on_c, 1, 70, 50
1, 2183, Note_on_c, 1, 74, 0
1, 2183, Note_on_c, 1, 70, 0
1, 2184, Note_on_c, 1, 74, 50
1, 2184, Note_on_c, 1, 70, 50
1, 2203, Note_on_c, 0, 77, 0
1, 2207, Note_on_c, 1, 74, 0
1, 2207, Note_on_c, 1, 70, 0
1, 2208, Note_on_c, 1, 74, 50
1, 2208, Note_on_c, 1, 70, 50
1, 2220, Note_on_c, 0, 77, 67
1, 2232, Note_on_c, 0, 77, 0
1, 2232, Note_on_c, 0, 76, 67
1, 2244, Note_on_c, 0, 76, 0
1, 2244, Note_on_c, 0, 77, 67
1, 2253, Note_on_c, 1, 74, 0
1, 2253, Note_on_c, 1, 70, 0
1, 2256, Note_on_c, 0, 77, 0
1, 2256, Note_on_c, 0, 79, 67
1, 2268, Note_on_c, 0, 79, 0
1, 2268, Note_on_c, 0, 77, 67
1, 2280, Note_on_c, 0, 77, 0
1, 2280, Note_on_c, 0, 76, 67
1, 2292, Note_on_c, 0, 76, 0
1, 2292, Note_on_c, 0, 77, 67
1, 2304, Note_on_c, 0, 77, 0
1, 2304, Note_on_c, 0, 79, 67
1, 2308, Note_on_c, 0, 79, 0
1, 2308, Note_on_c, 0, 77, 67
1, 2312, Note_on_c, 0, 77, 0
1, 2312, Note_on_c, 0, 76, 67
1, 2316, Note_on_c, 0, 76, 0
1, 2316, Note_on_c, 0, 77, 67
1, 2328, Note_on_c, 1, 72, 50
1, 2328, Note_on_c, 1, 69, 50
1, 2351, Note_on_c, 1, 72, 0
1, 2351, Note_on_c, 1, 69, 0
1, 2352, Note_on_c, 1, 72, 50
1, 2352, Note_on_c, 1, 69, 50
1, 2375, Note_on_c, 1, 72, 0
1, 2375, Note_on_c, 1, 69, 0
1, 2376, Note_on_c, 1, 72, 50
1, 2376, Note_on_c, 1, 69, 50
1, 2395, Note_on_c, 0, 77, 0
1, 2399, Note_on_c, 1, 72, 0
1, 2399, Note_on_c, 1, 69, 0
1, 2400, Note_on_c, 1, 72, 50
1, 2400, Note_on_c, 1, 69, 50
1, 2412, Note_on_c, 0, 77, 67
1, 2424, Note_on_c, 0, 77, 0
1, 2424, Note_on_c, 0, 76, 68
1, 2436, Note_on_c, 0, 76, 0
1, 2436, Note_on_c, 0, 77, 69
1, 2445, Note_on_c, 1, 72, 0
1, 2445, Note_on_c, 1, 69, 0
1, 2448, Note_on_c, 0, 77, 0
1, 2448, Note_on_c, 0, 79, 70
1, 2460, Note_on_c, 0, 79, 0
1, 2460, Note_on_c, 0, 77, 71
1, 2472, Note_on_c, 0, 77, 0
1, 2472, Note_on_c, 0, 81, 72
1, 2484, Note_on_c, 0, 81, 0
1, 2484, Note_on_c, 0, 84, 73
1, 2496, Note_on_c, 0, 84, 0
1, 2496, Note_on_c, 0, 84, 91
1, 2496, Note_on_c, 1, 74, 50
1, 2496, Note_on_c, 1, 67, 64
1, 2508, Note_on_c, 0, 84, 0
1, 2508, Note_on_c, 0, 82, 73
1, 2519, Note_on_c, 1, 67, 0
1, 2520, Note_on_c, 0, 82, 0
1, 2520, Note_on_c, 0, 82, 72
1, 2520, Note_on_c, 1, 69, 64
1, 2532, Note_on_c, 0, 82, 0
1, 2532, Note_on_c, 0, 81, 71
1, 2543, Note_on_c, 1, 69, 0
1, 2544, Note_on_c, 0, 81, 0
1, 2544, Note_on_c, 0, 81, 70
1, 2544, Note_on_c, 1, 70, 64
1, 2556, Note_on_c, 0, 81, 0
1, 2556, Note_on_c, 0, 79, 69
1, 2563, Note_on_c, 1, 74, 0
1, 2567, Note_on_c, 1, 70, 0
1, 2568, Note_on_c, 0, 79, 0
1, 2568, Note_on_c, 0, 79, 68
1, 2568, Note_on_c, 1, 72, 50
1, 2568, Note_on_c, 1, 69, 64
1, 2580, Note_on_c, 0, 79, 0
1, 2580, Note_on_c, 0, 77, 67
1, 2591, Note_on_c, 1, 72, 0
1, 2591, Note_on_c, 1, 69, 0
1, 2592, Note_on_c, 0, 77, 0
1, 2592, Note_on_c, 0, 77, 66
1, 2592, Note_on_c, 1, 70, 50
1, 2592, Note_on_c, 1, 67, 64
1, 2604, Note_on_c, 0, 77, 0
1, 2604, Note_on_c, 0, 76, 65
1, 2615, Note_on_c, 1, 70, 0
1, 2615, Note_on_c, 1, 67, 0
1, 2616, Note_on_c, 0, 76, 0
1, 2616, Note_on_c, 0, 76, 64
1, 2616, Note_on_c, 1, 69, 50
1, 2616, Note_on_c, 1, 65, 64
1, 2628, Note_on_c, 0, 76, 0
1, 2628, Note_on_c, 0, 74, 63
1, 2639, Note_on_c, 1, 69, 0
1, 2639, Note_on_c, 1, 65, 0
1, 2640, Note_on_c, 0, 74, 0
1, 2640, Note_on_c, 0, 74, 62
1, 2640, Note_on_c, 1, 67, 50
1, 2640, Note_on_c, 1, 64, 64
1, 2652, Note_on_c, 0, 74, 0
1, 2652, Note_on_c, 0, 72, 61
1, 2663, Note_on_c, 1, 67, 0
1, 2663, Note_on_c, 1, 64, 0
1, 2664, Note_on_c, 0, 72, 0
1, 2664, Note_on_c, 0, 72, 60
1, 2664, Note_on_c, 1, 64, 50
1, 2664, Note_on_c, 1, 60, 64
1, 2676, Note_on_c, 0, 72, 0
1, 2676, Note_on_c, 0, 70, 59
1, 2687, Note_on_c, 1, 64, 0
1, 2687, Note_on_c, 1, 60, 0
1, 2688, Note_on_c, 0, 70, 0
1, 2688, Note_on_c, 0, 69, 67
1, 2688, Note_on_c, 1, 65, 50
1, 2700, Note_on_c, 0, 69, 0
1, 2700, Note_on_c, 0, 72, 67
1, 2712, Note_on_c, 0, 72, 0
1, 2712, Note_on_c, 0, 70, 68
1, 2724, Note_on_c, 0, 70, 0
1, 2724, Note_on_c, 0, 69, 69
1, 2733, Note_on_c, 1, 65, 0
1, 2736, Note_on_c, 0, 69, 0
1, 2736, Note_on_c, 0, 70, 69
1, 2748, Note_on_c, 0, 70, 0
1, 2748, Note_on_c, 0, 72, 70
1, 2760, Note_on_c, 0, 72, 0
1, 2760, Note_on_c, 0, 74, 71
1, 2772, Note_on_c, 0, 74, 0
1, 2772, Note_on_c, 0, 76, 71
1, 2784, Note_on_c, 0, 76, 0
1, 2784, Note_on_c, 0, 77, 72
1, 2789, Note_on_c, 0, 77, 0
1, 2796, Note_on_c, 0, 79, 73
1, 2801, Note_on_c, 0, 79, 0
1, 2808, Note_on_c, 0, 81, 73
1, 2813, Note_on_c, 0, 81, 0
1, 2820, Note_on_c, 0, 82, 74
1, 2825, Note_on_c, 0, 82, 0
1, 2832, Note_on_c, 0, 84, 83
1, 2847, Note_on_c, 0, 84, 0
1, 2856, Note_on_c, 1, 65, 50
1, 2856, Note_on_c, 1, 59, 64
1, 2868, Note_on_c, 0, 69, 63
1, 2879, Note_on_c, 1, 65, 0
1, 2879, Note_on_c, 1, 59, 0
1, 2880, Note_on_c, 0, 69, 0
1, 2880, Note_on_c, 0, 70, 62
1, 2880, Note_on_c, 1, 65, 50
1, 2880, Note_on_c, 1, 60, 64
1, 2885, Note_on_c, 0, 70, 0
1, 2885, Note_on_c, 0, 69, 62
1, 2890, Note_on_c, 0, 69, 0
1, 2890, Note_on_c, 0, 70, 62
1, 2895, Note_on_c, 0, 70, 0
1, 2895, Note_on_c, 0, 69, 62
1, 2900, Note_on_c, 0, 69, 0
1, 2900, Note_on_c, 0, 70, 62
1, 2905, Note_on_c, 0, 70, 0
1, 2905, Note_on_c, 0, 69, 62
1, 2910, Note_on_c, 0, 69, 0
1, 2910, Note_on_c, 0, 70, 62
1, 2915, Note_on_c, 0, 70, 0
1, 2915, Note_on_c, 0, 69, 62
1, 2920, Note_on_c, 0, 69, 0
1, 2920, Note_on_c, 0, 67, 62
1, 2924, Note_on_c, 0, 67, 0
1, 2924, Note_on_c, 0, 69, 62
1, 2925, Note_on_c, 1, 65, 0
1, 2928, Note_on_c, 0, 69, 0
1, 2928, Note_on_c, 0, 67, 58
1, 2928, Note_on_c, 1, 64, 50
1, 2969, Note_on_c, 1, 60, 0
1, 2973, Note_on_c, 0, 67, 0
1, 2973, Note_on_c, 1, 64, 0
1, 3072, Note_on_c, 0, 72, 67
1, 3072, Note_on_c, 1, 53, 50
1, 3084, Note_on_c, 1, 53, 0
1, 3084, Note_on_c, 1, 60, 50
1, 3096, Note_on_c, 1, 60, 0
1, 3096, Note_on_c, 1, 57, 50
1, 3108, Note_on_c, 1, 57, 0
1, 3108, Note_on_c, 1, 60, 50
1, 3120, Note_on_c, 1, 60, 0
1, 3120, Note_on_c, 1, 53, 50
1, 3132, Note_on_c, 1, 53, 0
1, 3132, Note_on_c, 1, 60, 50
1, 3139, Note_on_c, 0, 72, 0
1, 3144, Note_on_c, 0, 74, 67
1, 3144, Note_on_c, 1, 60, 0
1, 3144, Note_on_c, 1, 57, 50
1, 3156, Note_on_c, 0, 74, 0
1, 3156, Note_on_c, 0, 72, 67
1, 3156, Note_on_c, 1, 57, 0
1, 3156, Note_on_c, 1, 60, 50
1, 3168, Note_on_c, 0, 72, 0
1, 3168, Note_on_c, 0, 64, 67
1, 3168, Note_on_c, 1, 60, 0
1, 3168, Note_on_c, 1, 55, 50
1, 3180, Note_on_c, 1, 55, 0
1, 3180, Note_on_c, 1, 60, 50
1, 3192, Note_on_c, 1, 60, 0
1, 3192, Note_on_c, 1, 58, 50
1, 3204, Note_on_c, 1, 58, 0
1, 3204, Note_on_c, 1, 60, 50
1, 3213, Note_on_c, 0, 64, 0
1, 3216, Note_on_c, 1, 60, 0
1, 3216, Note_on_c, 1, 55, 50
1, 3228, Note_on_c, 1, 55, 0
1, 3228, Note_on_c, 1, 60, 50
1, 3240, Note_on_c, 1, 60, 0
1, 3240, Note_on_c, 1, 58, 50
1, 3252, Note_on_c, 1, 58, 0
1, 3252, Note_on_c, 1, 60, 50
1, 3264, Note_on_c, 1, 60, 0
1, 3264, Note_on_c, 1, 53, 50
1, 3276, Note_on_c, 0, 84, 67
1, 3276, Note_on_c, 1, 53, 0
1, 3276, Note_on_c, 1, 60, 50
1, 3288, Note_on_c, 0, 84, 0
1, 3288, Note_on_c, 0, 82, 67
1, 3288, Note_on_c, 1, 60, 0
1, 3288, Note_on_c, 1, 57, 50
1, 3300, Note_on_c, 0, 82, 0
1, 3300, Note_on_c, 0, 81, 67
1, 3300, Note_on_c, 1, 57, 0
1, 3300, Note_on_c, 1, 60, 50
1, 3312, Note_on_c, 0, 81, 0
1, 3312, Note_on_c, 0, 79, 67
1, 3312, Note_on_c, 1, 60, 0
1, 3312, Note_on_c, 1, 53, 50
1, 3324, Note_on_c, 0, 79, 0
1, 3324, Note_on_c, 0, 77, 67
1, 3324, Note_on_c, 1, 53, 0
1, 3324, Note_on_c, 1, 60, 50
1, 3336, Note_on_c, 0, 77, 0
1, 3336, Note_on_c, 0, 76, 67
1, 3336, Note_on_c, 1, 60, 0
1, 3336, Note_on_c, 1, 57, 50
1, 3348, Note_on_c, 0, 76, 0
1, 3348, Note_on_c, 0, 74, 67
1, 3348, Note_on_c, 1, 57, 0
1, 3348, Note_on_c, 1, 60, 50
1, 3360, Note_on_c, 0, 74, 0
1, 3360, Note_on_c, 0, 72, 67
1, 3360, Note_on_c, 1, 60, 0
1, 3360, Note_on_c, 1, 52, 50
1, 3372, Note_on_c, 1, 52, 0
1, 3372, Note_on_c, 1, 60, 50
1, 3384, Note_on_c, 1, 60, 0
1, 3384, Note_on_c, 1, 55, 50
1, 3396, Note_on_c, 1, 55, 0
1, 3396, Note_on_c, 1, 60, 50
1, 3405, Note_on_c, 0, 72, 0
1, 3408, Note_on_c, 0, 70, 67
1, 3408, Note_on_c, 1, 60, 0
1, 3408, Note_on_c, 1, 52, 50
1, 3412, Note_on_c, 0, 70, 0
1, 3412, Note_on_c, 0, 72, 67
1, 3416, Note_on_c, 0, 72, 0
1, 3416, Note_on_c, 0, 70, 67
1, 3420, Note_on_c, 0, 70, 0
1, 3420, Note_on_c, 0, 72, 67
1, 3420, Note_on_c, 1, 52, 0
1, 3420, Note_on_c, 1, 60, 50
1, 3424, Note_on_c, 0, 72, 0
1, 3424, Note_on_c, 0, 70, 67
1, 3428, Note_on_c, 0, 70, 0
1, 3428, Note_on_c, 0, 72, 67
1, 3432, Note_on_c, 0, 72, 0
1, 3432, Note_on_c, 0, 70, 67
1, 3432, Note_on_c, 1, 60, 0
1, 3432, Note_on_c, 1, 55, 50
1, 3444, Note_on_c, 1, 55, 0
1, 3444, Note_on_c, 1, 60, 50
1, 3455, Note_on_c, 0, 70, 0
1, 3456, Note_on_c, 0, 69, 67
1, 3456, Note_on_c, 1, 60, 0
1, 3456, Note_on_c, 1, 53, 50
1, 3462, Note_on_c, 0, 69, 0
1, 3462, Note_on_c, 0, 72, 67
1, 3468, Note_on_c, 1, 53, 0
1, 3468, Note_on_c, 1, 60, 50
1, 3480, Note_on_c, 1, 60, 0
1, 3480, Note_on_c, 1, 57, 50
1, 3492, Note_on_c, 1, 57, 0
1, 3492, Note_on_c, 1, 60, 50
1, 3504, Note_on_c, 1, 60, 0
1, 3504, Note_on_c, 1, 53, 50
1, 3516, Note_on_c, 1, 53, 0
1, 3516, Note_on_c, 1, 60, 50
1, 3523, Note_on_c, 0, 72, 0
1, 3528, Note_on_c, 0, 74, 67
1, 3528, Note_on_c, 1, 60, 0
1, 3528, Note_on_c, 1, 57, 50
1, 3540, Note_on_c, 0, 74, 0
1, 3540, Note_on_c, 0, 72, 67
1, 3540, Note_on_c, 1, 57, 0
1, 3540, Note_on_c, 1, 60, 50
1, 3552, Note_on_c, 0, 72, 0
1, 3552, Note_on_c, 0, 64, 67
1, 3552, Note_on_c, 1, 60, 0
1, 3552, Note_on_c, 1, 55, 50
1, 3564, Note_on_c, 1, 55, 0
1, 3564, Note_on_c, 1, 60, 50
1, 3576, Note_on_c, 1, 60, 0
1, 3576, Note_on_c, 1, 58, 50
1, 3588, Note_on_c, 1, 58, 0
1, 3588, Note_on_c, 1, 60, 50
1, 3597, Note_on_c, 0, 64, 0
1, 3600, Note_on_c, 1, 60, 0
1, 3600, Note_on_c, 1, 55, 50
1, 3612, Note_on_c, 1, 55, 0
1, 3612, Note_on_c, 1, 60, 50
1, 3624, Note_on_c, 1, 60, 0
1, 3624, Note_on_c, 1, 58, 50
1, 3636, Note_on_c, 1, 58, 0
1, 3636, Note_on_c, 1, 60, 50
1, 3648, Note_on_c, 1, 60, 0
1, 3648, Note_on_c, 1, 53, 50
1, 3660, Note_on_c, 0, 84, 67
1, 3660, Note_on_c, 1, 53, 0
1, 3660, Note_on_c, 1, 60, 50
1, 3672, Note_on_c, 0, 84, 0
1, 3672, Note_on_c, 0, 82, 67
1, 3672, Note_on_c, 1, 60, 0
1, 3672, Note_on_c, 1, 57, 50
1, 3684, Note_on_c, 0, 82, 0
1, 3684, Note_on_c, 0, 81, 67
1, 3684, Note_on_c, 1, 57, 0
1, 3684, Note_on_c, 1, 60, 50
1, 3696, Note_on_c, 0, 81, 0
1, 3696, Note_on_c, 0, 79, 67
1, 3696, Note_on_c, 1, 60, 0
1, 3696, Note_on_c, 1, 53, 50
1, 3708, Note_on_c, 0, 79, 0
1, 3708, Note_on_c, 0, 77, 67
1, 3708, Note_on_c, 1, 53, 0
1, 3708, Note_on_c, 1, 60, 50
1, 3720, Note_on_c, 0, 77, 0
1, 3720, Note_on_c, 0, 76, 67
1, 3720, Note_on_c, 1, 60, 0
1, 3720, Note_on_c, 1, 57, 50
1, 3732, Note_on_c, 0, 76, 0
1, 3732, Note_on_c, 0, 74, 67
1, 3732, Note_on_c, 1, 57, 0
1, 3732, Note_on_c, 1, 60, 50
1, 3744, Note_on_c, 0, 74, 0
1, 3744, Note_on_c, 0, 72, 67
1, 3744, Note_on_c, 1, 60, 0
1, 3744, Note_on_c, 1, 52, 50
1, 3756, Note_on_c, 1, 52, 0
1, 3756, Note_on_c, 1, 60, 50
1, 3768, Note_on_c, 1, 60, 0
1, 3768, Note_on_c, 1, 55, 50
1, 3780, Note_on_c, 1, 55, 0
1, 3780, Note_on_c, 1, 60, 50
1, 3789, Note_on_c, 0, 72, 0
1, 3792, Note_on_c, 0, 70, 67
1, 3792, Note_on_c, 1, 60, 0
1, 3792, Note_on_c, 1, 52, 50
1, 3796, Note_on_c, 0, 70, 0
1, 3796, Note_on_c, 0, 72, 67
1, 3800, Note_on_c, 0, 72, 0
1, 3800, Note_on_c, 0, 70, 67
1, 3804, Note_on_c, 0, 70, 0
1, 3804, Note_on_c, 0, 72, 67
1, 3804, Note_on_c, 1, 52, 0
1, 3804, Note_on_c, 1, 60, 50
1, 3808, Note_on_c, 0, 72, 0
1, 3808, Note_on_c, 0, 70, 67
1, 3812, Note_on_c, 0, 70, 0
1, 3812, Note_on_c, 0, 72, 67
1, 3816, Note_on_c, 0, 72, 0
1, 3816, Note_on_c, 0, 70, 67
1, 3816, Note_on_c, 1, 60, 0
1, 3816, Note_on_c, 1, 55, 50
1, 3828, Note_on_c, 1, 55, 0
1, 3828, Note_on_c, 1, 60, 50
1, 3839, Note_on_c, 0, 70, 0
1, 3840, Note_on_c, 0, 69, 67
1, 3840, Note_on_c, 1, 60, 0
1, 3840, Note_on_c, 1, 53, 50
1, 3852, Note_on_c, 1, 53, 0
1, 3852, Note_on_c, 1, 60, 50
1, 3863, Note_on_c, 0, 69, 0
1, 3864, Note_on_c, 0, 77, 67
1, 3864, Note_on_c, 1, 60, 0
1, 3864, Note_on_c, 1, 57, 51
1, 3876, Note_on_c, 1, 57, 0
1, 3876, Note_on_c, 1, 60, 51
1, 3887, Note_on_c, 0, 77, 0
1, 3888, Note_on_c, 1, 60, 0
1, 3888, Note_on_c, 1, 53, 52
1, 3900, Note_on_c, 1, 53, 0
1, 3900, Note_on_c, 1, 60, 52
1, 3912, Note_on_c, 0, 77, 68
1, 3912, Note_on_c, 1, 60, 0
1, 3912, Note_on_c, 1, 57, 53
1, 3924, Note_on_c, 1, 57, 0
1, 3924, Note_on_c, 1, 60, 53
1, 3935, Note_on_c, 0, 77, 0
1, 3936, Note_on_c, 1, 60, 0
1, 3936, Note_on_c, 1, 55, 54
1, 3948, Note_on_c, 1, 55, 0
1, 3948, Note_on_c, 1, 60, 54
1, 3960, Note_on_c, 0, 76, 69
1, 3960, Note_on_c, 1, 60, 0
1, 3960, Note_on_c, 1, 58, 55
1, 3972, Note_on_c, 1, 58, 0
1, 3972, Note_on_c, 1, 60, 56
1, 3983, Note_on_c, 0, 76, 0
1, 3984, Note_on_c, 1, 60, 0
1, 3984, Note_on_c, 1, 57, 56
1, 3996, Note_on_c, 1, 57, 0
1, 3996, Note_on_c, 1, 65, 57
1, 4008, Note_on_c, 0, 75, 70
1, 4008, Note_on_c, 1, 65, 0
1, 4008, Note_on_c, 1, 60, 57
1, 4020, Note_on_c, 1, 60, 0
1, 4020, Note_on_c, 1, 65, 58
1, 4031, Note_on_c, 0, 75, 0
1, 4032, Note_on_c, 1, 65, 0
1, 4032, Note_on_c, 1, 58, 58
1, 4044, Note_on_c, 1, 58, 0
1, 4044, Note_on_c, 1, 65, 59
1, 4056, Note_on_c, 0, 74, 71
1, 4056, Note_on_c, 1, 65, 0
1, 4056, Note_on_c, 1, 62, 59
1, 4068, Note_on_c, 1, 62, 0
1, 4068, Note_on_c, 1, 65, 60
1, 4079, Note_on_c, 0, 74, 0
1, 4080, Note_on_c, 1, 65, 0
1, 4080, Note_on_c, 1, 58, 60
1, 4092, Note_on_c, 1, 58, 0
1, 4092, Note_on_c, 1, 66, 61
1, 4104, Note_on_c, 0, 81, 72
1, 4104, Note_on_c, 1, 66, 0
1, 4104, Note_on_c, 1, 62, 62
1, 4116, Note_on_c, 1, 62, 0
1, 4116, Note_on_c, 1, 66, 62
1, 4127, Note_on_c, 0, 81, 0
1, 4128, Note_on_c, 1, 66, 0
1, 4128, Note_on_c, 1, 58, 63
1, 4140, Note_on_c, 1, 58, 0
1, 4140, Note_on_c, 1, 67, 63
1, 4152, Note_on_c, 0, 82, 73
1, 4152, Note_on_c, 1, 67, 0
1, 4152, Note_on_c, 1, 62, 64
1, 4164, Note_on_c, 1, 62, 0
1, 4164, Note_on_c, 1, 67, 64
1, 4175, Note_on_c, 0, 82, 0
1, 4176, Note_on_c, 1, 67, 0
1, 4176, Note_on_c, 1, 58, 65
1, 4188, Note_on_c, 1, 58, 0
1, 4188, Note_on_c, 1, 67, 65
1, 4200, Note_on_c, 0, 86, 74
1, 4200, Note_on_c, 1, 67, 0
1, 4200, Note_on_c, 1, 62, 66
1, 4212, Note_on_c, 1, 62, 0
1, 4212, Note_on_c, 1, 67, 67
1, 4223, Note_on_c, 0, 86, 0
1, 4224, Note_on_c, 0, 84, 75
1, 4224, Note_on_c, 1, 67, 0
1, 4224, Note_on_c, 1, 60, 67
1, 4236, Note_on_c, 1, 60, 0
1, 4236, Note_on_c, 1, 69, 67
1, 4248, Note_on_c, 1, 69, 0
1, 4248, Note_on_c, 1, 65, 67
1, 4260, Note_on_c, 1, 65, 0
1, 4260, Note_on_c, 1, 69, 67
1, 4272, Note_on_c, 1, 69, 0
1, 4272, Note_on_c, 1, 60, 67
1, 4284, Note_on_c, 0, 84, 0
1, 4284, Note_on_c, 0, 86, 75
1, 4284, Note_on_c, 1, 60, 0
1, 4284, Note_on_c, 1, 69, 67
1, 4288, Note_on_c, 0, 86, 0
1, 4288, Note_on_c, 0, 84, 75
1, 4292, Note_on_c, 0, 84, 0
1, 4292, Note_on_c, 0, 82, 75
1, 4296, Note_on_c, 0, 82, 0
1, 4296, Note_on_c, 0, 84, 75
1, 4296, Note_on_c, 1, 69, 0
1, 4296, Note_on_c, 1, 65, 67
1, 4308, Note_on_c, 0, 84, 0
1, 4308, Note_on_c, 0, 86, 75
1, 4308, Note_on_c, 1, 65, 0
1, 4308, Note_on_c, 1, 69, 67
1, 4320, Note_on_c, 0, 86, 0
1, 4320, Note_on_c, 0, 77, 75
1, 4320, Note_on_c, 1, 69, 0
1, 4320, Note_on_c, 1, 60, 67
1, 4332, Note_on_c, 1, 60, 0
1, 4332, Note_on_c, 1, 70, 64
1, 4344, Note_on_c, 1, 70, 0
1, 4344, Note_on_c, 1, 67, 62
1, 4356, Note_on_c, 1, 67, 0
1, 4356, Note_on_c, 1, 70, 60
1, 4365, Note_on_c, 0, 77, 0
1, 4368, Note_on_c, 0, 76, 75
1, 4368, Note_on_c, 1, 70, 0
1, 4368, Note_on_c, 1, 60, 58
1, 4380, Note_on_c, 1, 60, 0
1, 4380, Note_on_c, 1, 70, 56
1, 4392, Note_on_c, 1, 70, 0
1, 4392, Note_on_c, 1, 67, 54
1, 4404, Note_on_c, 1, 67, 0
1, 4404, Note_on_c, 1, 70, 52
1, 4413, Note_on_c, 0, 76, 0
1, 4416, Note_on_c, 0, 79, 75
1, 4416, Note_on_c, 1, 70, 0
1, 4416, Note_on_c, 1, 62, 50
1, 4420, Note_on_c, 0, 79, 0
1, 4420, Note_on_c, 0, 77, 75
1, 4424, Note_on_c, 0, 77, 0
1, 4424, Note_on_c, 0, 76, 75
1, 4428, Note_on_c, 0, 76, 0
1, 4428, Note_on_c, 0, 77, 75
1, 4428, Note_on_c, 1, 62, 0
1, 4428, Note_on_c, 1, 69, 50
1, 4440, Note_on_c, 0, 77, 0
1, 4440, Note_on_c, 0, 79, 75
1, 4440, Note_on_c, 1, 69, 0
1, 4440, Note_on_c, 1, 65, 50
1, 4452, Note_on_c, 0, 79, 0
1, 4452, Note_on_c, 0, 81, 75
1, 4452, Note_on_c, 1, 65, 0
1, 4452, Note_on_c, 1, 69, 50
1, 4464, Note_on_c, 0, 81, 0
1, 4464, Note_on_c, 0, 79, 75
1, 4464, Note_on_c, 1, 69, 0
1, 4464, Note_on_c, 1, 62, 50
1, 4476, Note_on_c, 0, 79, 0
1, 4476, Note_on_c, 0, 77, 75
1, 4476, Note_on_c, 1, 62, 0
1, 4476, Note_on_c, 1, 69, 50
1, 4488, Note_on_c, 0, 77, 0
1, 4488, Note_on_c, 0, 76, 75
1, 4488, Note_on_c, 1, 69, 0
1, 4488, Note_on_c, 1, 65, 50
1, 4500, Note_on_c, 0, 76, 0
1, 4500, Note_on_c, 0, 74, 75
1, 4500, Note_on_c, 1, 65, 0
1, 4500, Note_on_c, 1, 69, 50
1, 4512, Note_on_c, 0, 74, 0
1, 4512, Note_on_c, 0, 72, 75
1, 4512, Note_on_c, 1, 69, 0
1, 4512, Note_on_c, 1, 62, 50
1, 4524, Note_on_c, 1, 62, 0
1, 4524, Note_on_c, 1, 67, 50
1, 4536, Note_on_c, 1, 67, 0
1, 4536, Note_on_c, 1, 65, 50
1, 4548, Note_on_c, 1, 65, 0
1, 4548, Note_on_c, 1, 67, 50
1, 4557, Note_on_c, 0, 72, 0
1, 4560, Note_on_c, 0, 71, 75
1, 4560, Note_on_c, 1, 67, 0
1, 4560, Note_on_c, 1, 62, 50
1, 4563, Note_on_c, 0, 71, 0
1, 4563, Note_on_c, 0, 72, 75
1, 4566, Note_on_c, 0, 72, 0
1, 4566, Note_on_c, 0, 71, 75
1, 4569, Note_on_c, 0, 71, 0
1, 4569, Note_on_c, 0, 72, 75
1, 4572, Note_on_c, 0, 72, 0
1, 4572, Note_on_c, 0, 71, 75
1, 4572, Note_on_c, 1, 62, 0
1, 4572, Note_on_c, 1, 67, 50
1, 4584, Note_on_c, 1, 67, 0
1, 4584, Note_on_c, 1, 65, 50
1, 4596, Note_on_c, 1, 65, 0
1, 4596, Note_on_c, 1, 67, 50
1, 4606, Note_on_c, 0, 71, 0
1, 4608, Note_on_c, 1, 67, 0
1, 4608, Note_on_c, 1, 62, 50
1, 4620, Note_on_c, 0, 81, 75
1, 4620, Note_on_c, 1, 62, 0
1, 4620, Note_on_c, 1, 67, 50
1, 4632, Note_on_c, 0, 81, 0
1, 4632, Note_on_c, 0, 79, 75
1, 4632, Note_on_c, 1, 67, 0
1, 4632, Note_on_c, 1, 65, 50
1, 4644, Note_on_c, 0, 79, 0
1, 4644, Note_on_c, 0, 77, 75
1, 4644, Note_on_c, 1, 65, 0
1, 4644, Note_on_c, 1, 67, 50
1, 4656, Note_on_c, 0, 77, 0
1, 4656, Note_on_c, 0, 76, 75
1, 4656, Note_on_c, 1, 67, 0
1, 4656, Note_on_c, 1, 62, 50
1, 4668, Note_on_c, 0, 76, 0
1, 4668, Note_on_c, 0, 74, 75
1, 4668, Note_on_c, 1, 62, 0
1, 4668, Note_on_c, 1, 67, 50
1, 4680, Note_on_c, 0, 74, 0
1, 4680, Note_on_c, 0, 72, 75
1, 4680, Note_on_c, 1, 67, 0
1, 4680, Note_on_c, 1, 65, 50
1, 4692, Note_on_c, 0, 72, 0
1, 4692, Note_on_c, 0, 71, 75
1, 4692, Note_on_c, 1, 65, 0
1, 4692, Note_on_c, 1, 67, 50
1, 4704, Note_on_c, 0, 71, 0
1, 4704, Note_on_c, 1, 67, 0
1, 4704, Note_on_c, 1, 62, 50
1, 4716, Note_on_c, 0, 81, 75
1, 4716, Note_on_c, 1, 62, 0
1, 4716, Note_on_c, 1, 67, 50
1, 4728, Note_on_c, 0, 81, 0
1, 4728, Note_on_c, 0, 79, 75
1, 4728, Note_on_c, 1, 67, 0
1, 4728, Note_on_c, 1, 65, 50
1, 4740, Note_on_c, 0, 79, 0
1, 4740, Note_on_c, 0, 77, 75
1, 4740, Note_on_c, 1, 65, 0
1, 4740, Note_on_c, 1, 67, 50
1, 4752, Note_on_c, 0, 77, 0
1, 4752, Note_on_c, 0, 76, 75
1, 4752, Note_on_c, 1, 67, 0
1, 4752, Note_on_c, 1, 62, 50
1, 4764, Note_on_c, 0, 76, 0
1, 4764, Note_on_c, 0, 74, 75
1, 4764, Note_on_c, 1, 62, 0
1, 4764, Note_on_c, 1, 67, 50
1, 4776, Note_on_c, 0, 74, 0
1, 4776, Note_on_c, 0, 72, 75
1, 4776, Note_on_c, 1, 67, 0
1, 4776, Note_on_c, 1, 65, 50
1, 4788, Note_on_c, 0, 72, 0
1, 4788, Note_on_c, 0, 71, 75
1, 4788, Note_on_c, 1, 65, 0
1, 4788, Note_on_c, 1, 67, 50
1, 4800, Note_on_c, 0, 71, 0
1, 4800, Note_on_c, 1, 67, 0
1, 4800, Note_on_c, 1, 64, 50
1, 4812, Note_on_c, 0, 70, 75
1, 4824, Note_on_c, 0, 70, 0
1, 4824, Note_on_c, 0, 72, 75
1, 4836, Note_on_c, 0, 72, 0
1, 4836, Note_on_c, 0, 74, 75
1, 4845, Note_on_c, 1, 64, 0
1, 4848, Note_on_c, 0, 74, 0
1, 4848, Note_on_c, 0, 76, 75
1, 4860, Note_on_c, 0, 76, 0
1, 4860, Note_on_c, 0, 77, 75
1, 4872, Note_on_c, 0, 77, 0
1, 4872, Note_on_c, 0, 79, 75
1, 4884, Note_on_c, 0, 79, 0
1, 4884, Note_on_c, 0, 81, 75
1, 4896, Note_on_c, 0, 81, 0
1, 4896, Note_on_c, 0, 82, 75
1, 4908, Note_on_c, 0, 82, 0
1, 4908, Note_on_c, 0, 81, 75
1, 4920, Note_on_c, 0, 81, 0
1, 4920, Note_on_c, 0, 84, 75
1, 4932, Note_on_c, 0, 84, 0
1, 4932, Note_on_c, 0, 82, 75
1, 4944, Note_on_c, 0, 82, 0
1, 4944, Note_on_c, 0, 86, 75
1, 4944, Note_on_c, 1, 70, 50
1, 4944, Note_on_c, 1, 64, 50
1, 4954, Note_on_c, 0, 86, 0
1, 4954, Note_on_c, 1, 70, 0
1, 4954, Note_on_c, 1, 64, 0
1, 4968, Note_on_c, 0, 86, 75
1, 4968, Note_on_c, 1, 70, 50
1, 4968, Note_on_c, 1, 64, 50
1, 4978, Note_on_c, 0, 86, 0
1, 4978, Note_on_c, 1, 70, 0
1, 4978, Note_on_c, 1, 64, 0
1, 4992, Note_on_c, 0, 85, 75
1, 4992, Note_on_c, 1, 70, 50
1, 4992, Note_on_c, 1, 64, 50
1, 4996, Note_on_c, 0, 85, 0
1, 4996, Note_on_c, 0, 86, 75
1, 5000, Note_on_c, 0, 86, 0
1, 5000, Note_on_c, 0, 88, 75
1, 5004, Note_on_c, 0, 88, 0
1, 5004, Note_on_c, 0, 86, 75
1, 5081, Note_on_c, 1, 70, 0
1, 5081, Note_on_c, 1, 64, 0
1, 5155, Note_on_c, 0, 86, 0
1, 5160, Note_on_c, 0, 84, 75
1, 5172, Note_on_c, 0, 84, 0
1, 5172, Note_on_c, 0, 82, 75
1, 5184, Note_on_c, 0, 82, 0
1, 5184, Note_on_c, 0, 81, 75
1, 5184, Note_on_c, 1, 65, 50
1, 5196, Note_on_c, 0, 81, 0
1, 5196, Note_on_c, 0, 89, 75
1, 5208, Note_on_c, 0, 89, 0
1, 5208, Note_on_c, 0, 88, 75
1, 5220, Note_on_c, 0, 88, 0
1, 5220, Note_on_c, 0, 86, 75
1, 5229, Note_on_c, 1, 65, 0
1, 5232, Note_on_c, 0, 86, 0
1, 5232, Note_on_c, 0, 84, 75
1, 5232, Note_on_c, 1, 57, 50
1, 5244, Note_on_c, 0, 84, 0
1, 5244, Note_on_c, 0, 83, 75
1, 5256, Note_on_c, 0, 83, 0
1, 5256, Note_on_c, 0, 84, 75
1, 5268, Note_on_c, 0, 84, 0
1, 5268, Note_on_c, 0, 85, 75
1, 5277, Note_on_c, 1, 57, 0
1, 5280, Note_on_c, 0, 85, 0
1, 5280, Note_on_c, 0, 86, 75
1, 5280, Note_on_c, 1, 58, 50
1, 5292, Note_on_c, 0, 86, 0
1, 5292, Note_on_c, 0, 81, 75
1, 5304, Note_on_c, 0, 81, 0
1, 5304, Note_on_c, 0, 82, 75
1, 5316, Note_on_c, 0, 82, 0
1, 5316, Note_on_c, 0, 78, 75
1, 5325, Note_on_c, 1, 58, 0
1, 5328, Note_on_c, 0, 78, 0
1, 5328, Note_on_c, 0, 79, 75
1, 5340, Note_on_c, 0, 79, 0
1, 5340, Note_on_c, 0, 82, 75
1, 5352, Note_on_c, 0, 82, 0
1, 5352, Note_on_c, 0, 74, 75
1, 5364, Note_on_c, 0, 74, 0
1, 5364, Note_on_c, 0, 82, 75
1, 5376, Note_on_c, 0, 82, 0
1, 5376, Note_on_c, 0, 72, 75
1, 5400, Note_on_c, 1, 69, 50
1, 5400, Note_on_c, 1, 65, 50
1, 5400, Note_on_c, 1, 60, 50
1, 5423, Note_on_c, 1, 69, 0
1, 5423, Note_on_c, 1, 65, 0
1, 5423, Note_on_c, 1, 60, 0
1, 5424, Note_on_c, 1, 69, 50
1, 5424, Note_on_c, 1, 65, 50
1, 5424, Note_on_c, 1, 60, 50
1, 5447, Note_on_c, 1, 69, 0
1, 5447, Note_on_c, 1, 65, 0
1, 5447, Note_on_c, 1, 60, 0
1, 5448, Note_on_c, 1, 69, 50
1, 5448, Note_on_c, 1, 65, 50
1, 5448, Note_on_c, 1, 60, 50
1, 5465, Note_on_c, 0, 72, 0
1, 5471, Note_on_c, 1, 69, 0
1, 5471, Note_on_c, 1, 65, 0
1, 5471, Note_on_c, 1, 60, 0
1, 5472, Note_on_c, 0, 81, 75
1, 5477, Note_on_c, 0, 81, 0
1, 5477, Note_on_c, 0, 79, 75
1, 5482, Note_on_c, 0, 79, 0
1, 5482, Note_on_c, 0, 81, 75
1, 5487, Note_on_c, 0, 81, 0
1, 5487, Note_on_c, 0, 79, 75
1, 5492, Note_on_c, 0, 79, 0
1, 5492, Note_on_c, 0, 81, 75
1, 5496, Note_on_c, 1, 64, 50
1, 5496, Note_on_c, 1, 60, 50
1, 5497, Note_on_c, 0, 81, 0
1, 5497, Note_on_c, 0, 79, 75
1, 5502, Note_on_c, 0, 79, 0
1, 5502, Note_on_c, 0, 81, 75
1, 5507, Note_on_c, 0, 81, 0
1, 5507, Note_on_c, 0, 79, 75
1, 5512, Note_on_c, 0, 79, 0
1, 5512, Note_on_c, 0, 81, 75
1, 5517, Note_on_c, 0, 81, 0
1, 5517, Note_on_c, 0, 79, 75
1, 5519, Note_on_c, 1, 64, 0
1, 5519, Note_on_c, 1, 60, 0
1, 5520, Note_on_c, 1, 64, 50
1, 5520, Note_on_c, 1, 60, 50
1, 5522, Note_on_c, 0, 79, 0
1, 5522, Note_on_c, 0, 81, 75
1, 5527, Note_on_c, 0, 81, 0
1, 5527, Note_on_c, 0, 79, 75
1, 5532, Note_on_c, 0, 79, 0
1, 5532, Note_on_c, 0, 81, 75
1, 5537, Note_on_c, 0, 81, 0
1, 5537, Note_on_c, 0, 79, 75
1, 5542, Note_on_c, 0, 79, 0
1, 5542, Note_on_c, 0, 81, 75
1, 5543, Note_on_c, 1, 64, 0
1, 5543, Note_on_c, 1, 60, 0
1, 5544, Note_on_c, 1, 64, 50
1, 5544, Note_on_c, 1, 60, 50
1, 5547, Note_on_c, 0, 81, 0
1, 5547, Note_on_c, 0, 79, 75
1, 5552, Note_on_c, 0, 79, 0
1, 5552, Note_on_c, 0, 81, 75
1, 5556, Note_on_c, 0, 81, 0
1, 5556, Note_on_c, 0, 79, 75
1, 5560, Note_on_c, 0, 79, 0
1, 5560, Note_on_c, 0, 77, 75
1, 5564, Note_on_c, 0, 77, 0
1, 5564, Note_on_c, 0, 79, 75
1, 5567, Note_on_c, 1, 64, 0
1, 5567, Note_on_c, 1, 60, 0
1, 5568, Note_on_c, 0, 79, 0
1, 5568, Note_on_c, 0, 77, 75
1, 5568, Note_on_c, 1, 65, 50
1, 5568, Note_on_c, 1, 53, 50
1, 5580, Note_on_c, 0, 77, 0
1, 5580, Note_on_c, 0, 84, 75
1, 5592, Note_on_c, 0, 84, 0
1, 5592, Note_on_c, 0, 82, 75
1, 5604, Note_on_c, 0, 82, 0
1, 5604, Note_on_c, 0, 81, 75
1, 5613, Note_on_c, 1, 65, 0
1, 5613, Note_on_c, 1, 53, 0
1, 5616, Note_on_c, 0, 81, 0
1, 5616, Note_on_c, 0, 79, 75
1, 5628, Note_on_c, 0, 79, 0
1, 5628, Note_on_c, 0, 77, 75
1, 5640, Note_on_c, 0, 77, 0
1, 5640, Note_on_c, 0, 76, 75
1, 5652, Note_on_c, 0, 76, 0
1, 5652, Note_on_c, 0, 74, 75
1, 5664, Note_on_c, 0, 74, 0
1, 5664, Note_on_c, 0, 72, 75
1, 5664, Note_on_c, 0, 69, 75
1, 5712, Note_on_c, 1, 48, 67
1, 5731, Note_on_c, 0, 72, 0
1, 5731, Note_on_c, 0, 69, 0
1, 5736, Note_on_c, 0, 70, 75
1, 5736, Note_on_c, 0, 67, 75
1, 5757, Note_on_c, 1, 48, 0
1, 5759, Note_on_c, 0, 70, 0
1, 5759, Note_on_c, 0, 67, 0
1, 5760, Note_on_c, 0, 69, 75
1, 5760, Note_on_c, 0, 65, 75
1, 5760, Note_on_c, 1, 53, 67
1, 5772, Note_on_c, 0, 69, 0
1, 5772, Note_on_c, 0, 65, 0
1, 5772, Note_on_c, 0, 72, 73
1, 5784, Note_on_c, 0, 72, 0
1, 5784, Note_on_c, 0, 70, 72
1, 5796, Note_on_c, 0, 70, 0
1, 5796, Note_on_c, 0, 69, 71
1, 5808, Note_on_c, 0, 69, 0
1, 5808, Note_on_c, 0, 67, 70
1, 5820, Note_on_c, 0, 67, 0
1, 5820, Note_on_c, 0, 65, 69
1, 5832, Note_on_c, 0, 65, 0
1, 5832, Note_on_c, 0, 64, 68
1, 5844, Note_on_c, 0, 64, 0
1, 5844, Note_on_c, 0, 62, 67
1, 5849, Note_on_c, 1, 53, 0
1, 5856, Note_on_c, 0, 62, 0
1, 5856, Note_on_c, 0, 60, 66
1, 5856, Note_on_c, 0, 57, 66
1, 5904, Note_on_c, 1, 36, 58
1, 5923, Note_on_c, 0, 60, 0
1, 5923, Note_on_c, 0, 57, 0
1, 5928, Note_on_c, 0, 58, 60
1, 5928, Note_on_c, 0, 52, 60
1, 5949, Note_on_c, 1, 36, 0
1, 5951, Note_on_c, 0, 58, 0
1, 5951, Note_on_c, 0, 52, 0
1, 5952, Note_on_c, 0, 58, 58
1, 5952, Note_on_c, 0, 52, 58
1, 5952, Note_on_c, 1, 41, 58
1, 6041, Note_on_c, 1, 41, 0
1, 6048, Note_on_c, 0, 58, 0
1, 6048, Note_on_c, 0, 52, 0
1, 6048, Note_on_c, 0, 57, 58
1, 6048, Note_on_c, 0, 53, 58
1, 6048, Note_on_c, 1, 29, 58
1, 6115, Note_on_c, 0, 57, 0
1, 6115, Note_on_c, 0, 53, 0
1, 6115, Note_on_c, 1, 29, 0
1, 6144, Note_on_c, 0, 79, 67
1, 6144, Note_on_c, 1, 51, 50
1, 6148, Note_on_c, 0, 79, 0
1, 6148, Note_on_c, 0, 77, 67
1, 6152, Note_on_c, 0, 77, 0
1, 6152, Note_on_c, 0, 76, 67
1, 6156, Note_on_c, 0, 76, 0
1, 6156, Note_on_c, 0, 77, 67
1, 6156, Note_on_c, 1, 51, 0
1, 6156, Note_on_c, 1, 60, 50
1, 6168, Note_on_c, 1, 60, 0
1, 6168, Note_on_c, 1, 57, 50
1, 6180, Note_on_c, 1, 57, 0
1, 6180, Note_on_c, 1, 60, 50
1, 6192, Note_on_c, 1, 60, 0
1, 6192, Note_on_c, 1, 51, 50
1, 6204, Note_on_c, 1, 51, 0
1, 6204, Note_on_c, 1, 60, 50
1, 6213, Note_on_c, 0, 77, 0
1, 6216, Note_on_c, 0, 79, 67
1, 6216, Note_on_c, 1, 60, 0
1, 6216, Note_on_c, 1, 57, 50
1, 6228, Note_on_c, 0, 79, 0
1, 6228, Note_on_c, 0, 77, 67
1, 6228, Note_on_c, 1, 57, 0
1, 6228, Note_on_c, 1, 60, 50
1, 6240, Note_on_c, 0, 77, 0
1, 6240, Note_on_c, 0, 69, 67
1, 6240, Note_on_c, 1, 60, 0
1, 6240, Note_on_c, 1, 51, 50
1, 6252, Note_on_c, 1, 51, 0
1, 6252, Note_on_c, 1, 60, 50
1, 6264, Note_on_c, 1, 60, 0
1, 6264, Note_on_c, 1, 57, 50
1, 6276, Note_on_c, 1, 57, 0
1, 6276, Note_on_c, 1, 60, 50
1, 6285, Note_on_c, 0, 69, 0
1, 6288, Note_on_c, 1, 60, 0
1, 6288, Note_on_c, 1, 51, 50
1, 6300, Note_on_c, 1, 51, 0
1, 6300, Note_on_c, 1, 60, 50
1, 6312, Note_on_c, 1, 60, 0
1, 6312, Note_on_c, 1, 57, 50
1, 6324, Note_on_c, 1, 57, 0
1, 6324, Note_on_c, 1, 60, 50
1, 6336, Note_on_c, 0, 79, 67
1, 6336, Note_on_c, 1, 60, 0
1, 6336, Note_on_c, 1, 50, 50
1, 6340, Note_on_c, 0, 79, 0
1, 6340, Note_on_c, 0, 77, 67
1, 6344, Note_on_c, 0, 77, 0
1, 6344, Note_on_c, 0, 76, 67
1, 6348, Note_on_c, 0, 76, 0
1, 6348, Note_on_c, 0, 77, 67
1, 6348, Note_on_c, 1, 50, 0
1, 6348, Note_on_c, 1, 58, 50
1, 6360, Note_on_c, 1, 58, 0
1, 6360, Note_on_c, 1, 53, 50
1, 6372, Note_on_c, 1, 53, 0
1, 6372, Note_on_c, 1, 58, 50
1, 6384, Note_on_c, 1, 58, 0
1, 6384, Note_on_c, 1, 50, 50
1, 6396, Note_on_c, 1, 50, 0
1, 6396, Note_on_c, 1, 58, 50
1, 6405, Note_on_c, 0, 77, 0
1, 6408, Note_on_c, 0, 79, 67
1, 6408, Note_on_c, 1, 58, 0
1, 6408, Note_on_c, 1, 53, 50
1, 6420, Note_on_c, 0, 79, 0
1, 6420, Note_on_c, 0, 77, 67
1, 6420, Note_on_c, 1, 53, 0
1, 6420, Note_on_c, 1, 58, 50
1, 6432, Note_on_c, 0, 77, 0
1, 6432, Note_on_c, 0, 70, 67
1, 6432, Note_on_c, 1, 58, 0
1, 6432, Note_on_c, 1, 50, 50
1, 6444, Note_on_c, 1, 50, 0
1, 6444, Note_on_c, 1, 58, 50
1, 6456, Note_on_c, 1, 58, 0
1, 6456, Note_on_c, 1, 53, 50
1, 6468, Note_on_c, 1, 53, 0
1, 6468, Note_on_c, 1, 58, 50
1, 6477, Note_on_c, 0, 70, 0
1, 6480, Note_on_c, 1, 58, 0
1, 6480, Note_on_c, 1, 50, 50
1, 6492, Note_on_c, 1, 50, 0
1, 6492, Note_on_c, 1, 58, 50
1, 6504, Note_on_c, 1, 58, 0
1, 6504, Note_on_c, 1, 53, 50
1, 6516, Note_on_c, 1, 53, 0
1, 6516, Note_on_c, 1, 58, 50
1, 6528, Note_on_c, 0, 80, 83
1, 6528, Note_on_c, 1, 58, 0
1, 6528, Note_on_c, 1, 50, 50
1, 6540, Note_on_c, 1, 50, 0
1, 6540, Note_on_c, 1, 58, 50
1, 6552, Note_on_c, 1, 58, 0
1, 6552, Note_on_c, 1, 53, 50
1, 6564, Note_on_c, 1, 53, 0
1, 6564, Note_on_c, 1, 58, 50
1, 6576, Note_on_c, 1, 58, 0
1, 6576, Note_on_c, 1, 50, 50
1, 6588, Note_on_c, 1, 50, 0
1, 6588, Note_on_c, 1, 58, 50
1, 6600, Note_on_c, 0, 80, 0
1, 6600, Note_on_c, 0, 84, 67
1, 6600, Note_on_c, 1, 58, 0
1, 6600, Note_on_c, 1, 53, 50
1, 6612, Note_on_c, 0, 84, 0
1, 6612, Note_on_c, 0, 82, 67
1, 6612, Note_on_c, 1, 53, 0
1, 6612, Note_on_c, 1, 58, 50
1, 6624, Note_on_c, 0, 82, 0
1, 6624, Note_on_c, 0, 80, 67
1, 6624, Note_on_c, 1, 58, 0
1, 6624, Note_on_c, 1, 50, 50
1, 6636, Note_on_c, 0, 80, 0
1, 6636, Note_on_c, 0, 79, 67
1, 6636, Note_on_c, 1, 50, 0
1, 6636, Note_on_c, 1, 58, 50
1, 6648, Note_on_c, 0, 79, 0
1, 6648, Note_on_c, 0, 77, 67
1, 6648, Note_on_c, 1, 58, 0
1, 6648, Note_on_c, 1, 53, 50
1, 6660, Note_on_c, 0, 77, 0
1, 6660, Note_on_c, 0, 75, 67
1, 6660, Note_on_c, 1, 53, 0
1, 6660, Note_on_c, 1, 58, 50
1, 6672, Note_on_c, 0, 75, 0
1, 6672, Note_on_c, 0, 74, 67
1, 6672, Note_on_c, 1, 58, 0
1, 6672, Note_on_c, 1, 50, 50
1, 6684, Note_on_c, 0, 74, 0
1, 6684, Note_on_c, 0, 72, 67
1, 6684, Note_on_c, 1, 50, 0
1, 6684, Note_on_c, 1, 58, 50
1, 6696, Note_on_c, 0, 72, 0
1, 6696, Note_on_c, 0, 70, 67
1, 6696, Note_on_c, 1, 58, 0
1, 6696, Note_on_c, 1, 53, 50
1, 6708, Note_on_c, 0, 70, 0
1, 6708, Note_on_c, 0, 68, 67
1, 6708, Note_on_c, 1, 53, 0
1, 6708, Note_on_c, 1, 58, 50
1, 6720, Note_on_c, 0, 68, 0
1, 6720, Note_on_c, 0, 67, 67
1, 6720, Note_on_c, 1, 58, 0
1, 6720, Note_on_c, 1, 51, 50
1, 6732, Note_on_c, 1, 51, 0
1, 6732, Note_on_c, 1, 58, 50
1, 6743, Note_on_c, 0, 67, 0
1, 6744, Note_on_c, 0, 70, 67
1, 6744, Note_on_c, 1, 58, 0
1, 6744, Note_on_c, 1, 55, 51
1, 6756, Note_on_c, 1, 55, 0
1, 6756, Note_on_c, 1, 58, 51
1, 6767, Note_on_c, 0, 70, 0
1, 6768, Note_on_c, 1, 58, 0
1, 6768, Note_on_c, 1, 51, 52
1, 6780, Note_on_c, 1, 51, 0
1, 6780, Note_on_c, 1, 58, 52
1, 6792, Note_on_c, 0, 70, 67
1, 6792, Note_on_c, 1, 58, 0
1, 6792, Note_on_c, 1, 55, 53
1, 6804, Note_on_c, 1, 55, 0
1, 6804, Note_on_c, 1, 58, 53
1, 6815, Note_on_c, 0, 70, 0
1, 6816, Note_on_c, 1, 58, 0
1, 6816, Note_on_c, 1, 53, 54
1, 6828, Note_on_c, 1, 53, 0
1, 6828, Note_on_c, 1, 58, 54
1, 6840, Note_on_c, 0, 62, 67
1, 6840, Note_on_c, 1, 58, 0
1, 6840, Note_on_c, 1, 56, 55
1, 6852, Note_on_c, 1, 56, 0
1, 6852, Note_on_c, 1, 58, 56
1, 6863, Note_on_c, 0, 62, 0
1, 6864, Note_on_c, 1, 58, 0
1, 6864, Note_on_c, 1, 53, 56
1, 6876, Note_on_c, 1, 53, 0
1, 6876, Note_on_c, 1, 58, 57
1, 6888, Note_on_c, 0, 74, 67
1, 6888, Note_on_c, 1, 58, 0
1, 6888, Note_on_c, 1, 56, 57
1, 6900, Note_on_c, 1, 56, 0
1, 6900, Note_on_c, 1, 58, 58
1, 6911, Note_on_c, 0, 74, 0
1, 6912, Note_on_c, 0, 75, 67
1, 6912, Note_on_c, 1, 58, 0
1, 6912, Note_on_c, 1, 55, 58
1, 6924, Note_on_c, 1, 55, 0
1, 6924, Note_on_c, 1, 63, 59
1, 6936, Note_on_c, 0, 75, 0
1, 6936, Note_on_c, 0, 79, 68
1, 6936, Note_on_c, 1, 63, 0
1, 6936, Note_on_c, 1, 58, 59
1, 6948, Note_on_c, 1, 58, 0
1, 6948, Note_on_c, 1, 63, 60
1, 6959, Note_on_c, 0, 79, 0
1, 6960, Note_on_c, 1, 63, 0
1, 6960, Note_on_c, 1, 55, 60
1, 6972, Note_on_c, 1, 55, 0
1, 6972, Note_on_c, 1, 63, 61
1, 6984, Note_on_c, 0, 77, 70
1, 6984, Note_on_c, 1, 63, 0
1, 6984, Note_on_c, 1, 58, 62
1, 6996, Note_on_c, 1, 58, 0
1, 6996, Note_on_c, 1, 63, 62
1, 7007, Note_on_c, 0, 77, 0
1, 7008, Note_on_c, 1, 63, 0
1, 7008, Note_on_c, 1, 55, 63
1, 7020, Note_on_c, 1, 55, 0
1, 7020, Note_on_c, 1, 63, 63
1, 7032, Note_on_c, 0, 75, 72
1, 7032, Note_on_c, 1, 63, 0
1, 7032, Note_on_c, 1, 58, 64
1, 7044, Note_on_c, 1, 58, 0
1, 7044, Note_on_c, 1, 63, 64
1, 7055, Note_on_c, 0, 75, 0
1, 7056, Note_on_c, 1, 63, 0
1, 7056, Note_on_c, 1, 55, 65
1, 7068, Note_on_c, 1, 55, 0
1, 7068, Note_on_c, 1, 63, 65
1, 7080, Note_on_c, 0, 74, 74
1, 7080, Note_on_c, 1, 63, 0
1, 7080, Note_on_c, 1, 58, 66
1, 7092, Note_on_c, 1, 58, 0
1, 7092, Note_on_c, 1, 63, 67
1, 7103, Note_on_c, 0, 74, 0
1, 7104, Note_on_c, 0, 73, 75
1, 7104, Note_on_c, 1, 63, 0
1, 7104, Note_on_c, 1, 55, 67
1, 7116, Note_on_c, 1, 55, 0
1, 7116, Note_on_c, 1, 64, 67
1, 7128, Note_on_c, 0, 73, 0
1, 7128, Note_on_c, 0, 82, 75
1, 7128, Note_on_c, 1, 64, 0
1, 7128, Note_on_c, 1, 58, 67
1, 7140, Note_on_c, 1, 58, 0
1, 7140, Note_on_c, 1, 64, 67
1, 7151, Note_on_c, 0, 82, 0
1, 7152, Note_on_c, 1, 64, 0
1, 7152, Note_on_c, 1, 55, 67
1, 7164, Note_on_c, 1, 55, 0
1, 7164, Note_on_c, 1, 64, 67
1, 7176, Note_on_c, 0, 79, 75
1, 7176, Note_on_c, 1, 64, 0
1, 7176, Note_on_c, 1, 58, 67
1, 7188, Note_on_c, 1, 58, 0
1, 7188, Note_on_c, 1, 64, 67
1, 7199, Note_on_c, 0, 79, 0
1, 7200, Note_on_c, 1, 64, 0
1, 7200, Note_on_c, 1, 55, 67
1, 7212, Note_on_c, 1, 55, 0
1, 7212, Note_on_c, 1, 64, 67
1, 7224, Note_on_c, 0, 76, 75
1, 7224, Note_on_c, 1, 64, 0
1, 7224, Note_on_c, 1, 58, 67
1, 7236, Note_on_c, 1, 58, 0
1, 7236, Note_on_c, 1, 64, 67
1, 7247, Note_on_c, 0, 76, 0
1, 7248, Note_on_c, 1, 64, 0
1, 7248, Note_on_c, 1, 55, 67
1, 7260, Note_on_c, 1, 55, 0
1, 7260, Note_on_c, 1, 64, 67
1, 7272, Note_on_c, 0, 73, 75
1, 7272, Note_on_c, 1, 64, 0
1, 7272, Note_on_c, 1, 58, 67
1, 7284, Note_on_c, 1, 58, 0
1, 7284, Note_on_c, 1, 64, 67
1, 7295, Note_on_c, 0, 73, 0
1, 7296, Note_on_c, 0, 74, 75
1, 7296, Note_on_c, 1, 64, 0
1, 7296, Note_on_c, 1, 54, 67
1, 7308, Note_on_c, 1, 54, 0
1, 7308, Note_on_c, 1, 62, 67
1, 7319, Note_on_c, 0, 74, 0
1, 7320, Note_on_c, 0, 84, 75
1, 7320, Note_on_c, 1, 62, 0
1, 7320, Note_on_c, 1, 57, 67
1, 7332, Note_on_c, 1, 57, 0
1, 7332, Note_on_c, 1, 62, 67
1, 7343, Note_on_c, 0, 84, 0
1, 7344, Note_on_c, 1, 62, 0
1, 7344, Note_on_c, 1, 54, 67
1, 7356, Note_on_c, 1, 54, 0
1, 7356, Note_on_c, 1, 62, 67
1, 7368, Note_on_c, 0, 81, 75
1, 7368, Note_on_c, 1, 62, 0
1, 7368, Note_on_c, 1, 57, 67
1, 7380, Note_on_c, 1, 57, 0
1, 7380, Note_on_c, 1, 62, 67
1, 7391, Note_on_c, 0, 81, 0
1, 7392, Note_on_c, 1, 62, 0
1, 7392, Note_on_c, 1, 54, 67
1, 7404, Note_on_c, 1, 54, 0
1, 7404, Note_on_c, 1, 62, 67
1, 7416, Note_on_c, 0, 78, 75
1, 7416, Note_on_c, 1, 62, 0
1, 7416, Note_on_c, 1, 57, 67
1, 7428, Note_on_c, 1, 57, 0
1, 7428, Note_on_c, 1, 62, 67
1, 7439, Note_on_c, 0, 78, 0
1, 7440, Note_on_c, 1, 62, 0
1, 7440, Note_on_c, 1, 54, 67
1, 7452, Note_on_c, 1, 54, 0
1, 7452, Note_on_c, 1, 62, 67
1, 7464, Note_on_c, 0, 72, 75
1, 7464, Note_on_c, 1, 62, 0
1, 7464, Note_on_c, 1, 57, 67
1, 7476, Note_on_c, 1, 57, 0
1, 7476, Note_on_c, 1, 62, 67
1, 7487, Note_on_c, 0, 72, 0
1, 7488, Note_on_c, 0, 70, 75
1, 7488, Note_on_c, 1, 62, 0
1, 7488, Note_on_c, 1, 55, 67
1, 7500, Note_on_c, 1, 55, 0
1, 7500, Note_on_c, 1, 62, 67
1, 7511, Note_on_c, 0, 70, 0
1, 7512, Note_on_c, 0, 79, 75
1, 7512, Note_on_c, 1, 62, 0
1, 7512, Note_on_c, 1, 58, 67
1, 7524, Note_on_c, 1, 58, 0
1, 7524, Note_on_c, 1, 62, 67
1, 7535, Note_on_c, 0, 79, 0
1, 7536, Note_on_c, 1, 62, 0
1, 7536, Note_on_c, 1, 55, 67
1, 7548, Note_on_c, 1, 55, 0
1, 7548, Note_on_c, 1, 62, 67
1, 7560, Note_on_c, 0, 82, 75
1, 7560, Note_on_c, 1, 62, 0
1, 7560, Note_on_c, 1, 58, 67
1, 7572, Note_on_c, 1, 58, 0
1, 7572, Note_on_c, 1, 62, 67
1, 7583, Note_on_c, 0, 82, 0
1, 7584, Note_on_c, 1, 62, 0
1, 7584, Note_on_c, 1, 51, 67
1, 7596, Note_on_c, 1, 51, 0
1, 7596, Note_on_c, 1, 61, 67
1, 7608, Note_on_c, 0, 81, 75
1, 7608, Note_on_c, 1, 61, 0
1, 7608, Note_on_c, 1, 55, 67
1, 7620, Note_on_c, 1, 55, 0
1, 7620, Note_on_c, 1, 61, 67
1, 7631, Note_on_c, 0, 81, 0
1, 7632, Note_on_c, 1, 61, 0
1, 7632, Note_on_c, 1, 51, 67
1, 7644, Note_on_c, 1, 51, 0
1, 7644, Note_on_c, 1, 61, 67
1, 7656, Note_on_c, 0, 79, 75
1, 7656, Note_on_c, 1, 61, 0
1, 7656, Note_on_c, 1, 55, 67
1, 7668, Note_on_c, 1, 55, 0
1, 7668, Note_on_c, 1, 61, 67
1, 7679, Note_on_c, 0, 79, 0
1, 7680, Note_on_c, 0, 78, 75
1, 7680, Note_on_c, 1, 61, 0
1, 7680, Note_on_c, 1, 50, 67
1, 7692, Note_on_c, 0, 78, 0
1, 7692, Note_on_c, 0, 81, 73
1, 7704, Note_on_c, 0, 81, 0
1, 7704, Note_on_c, 0, 74, 71
1, 7716, Note_on_c, 0, 74, 0
1, 7716, Note_on_c, 0, 78, 70
1, 7728, Note_on_c, 0, 78, 0
1, 7728, Note_on_c, 0, 69, 68
1, 7740, Note_on_c, 0, 69, 0
1, 7740, Note_on_c, 0, 74, 67
1, 7752, Note_on_c, 0, 74, 0
1, 7752, Note_on_c, 0, 66, 65
1, 7764, Note_on_c, 0, 66, 0
1, 7764, Note_on_c, 0, 69, 64
1, 7769, Note_on_c, 1, 50, 0
1, 7776, Note_on_c, 0, 69, 0
1, 7776, Note_on_c, 0, 62, 62
1, 7788, Note_on_c, 0, 62, 0
1, 7788, Note_on_c, 0, 66, 61
1, 7800, Note_on_c, 0, 66, 0
1, 7800, Note_on_c, 0, 57, 59
1, 7812, Note_on_c, 0, 57, 0
1, 7812, Note_on_c, 0, 62, 58
1, 7824, Note_on_c, 0, 62, 0
1, 7824, Note_on_c, 1, 54, 58
1, 7836, Note_on_c, 1, 54, 0
1, 7836, Note_on_c, 1, 57, 58
1, 7848, Note_on_c, 1, 57, 0
1, 7848, Note_on_c, 1, 50, 58
1, 7860, Note_on_c, 1, 50, 0
1, 7860, Note_on_c, 1, 54, 58
1, 7872, Note_on_c, 1, 54, 0
1, 7872, Note_on_c, 1, 38, 58
1, 7961, Note_on_c, 1, 38, 0
1, 8064, Note_on_c, 0, 60, 58
1, 8064, Note_on_c, 1, 46, 50
1, 8064, Note_on_c, 1, 34, 50
1, 8068, Note_on_c, 0, 60, 0
1, 8068, Note_on_c, 0, 58, 58
1, 8072, Note_on_c, 0, 58, 0
1, 8072, Note_on_c, 0, 57, 58
1, 8076, Note_on_c, 0, 57, 0
1, 8076, Note_on_c, 0, 58, 58
1, 8099, Note_on_c, 0, 58, 0
1, 8100, Note_on_c, 0, 62, 58
1, 8109, Note_on_c, 1, 46, 0
1, 8109, Note_on_c, 1, 34, 0
1, 8112, Note_on_c, 0, 62, 0
1, 8112, Note_on_c, 0, 58, 58
1, 8157, Note_on_c, 0, 58, 0
1, 8160, Note_on_c, 1, 62, 50
1, 8160, Note_on_c, 1, 58, 50
1, 8196, Note_on_c, 0, 65, 58
1, 8205, Note_on_c, 1, 62, 0
1, 8205, Note_on_c, 1, 58, 0
1, 8208, Note_on_c, 0, 65, 0
1, 8208, Note_on_c, 0, 74, 58
1, 8242, Note_on_c, 0, 74, 0
1, 8244, Note_on_c, 0, 70, 58
1, 8256, Note_on_c, 0, 70, 0
1, 8256, Note_on_c, 0, 69, 58
1, 8256, Note_on_c, 1, 63, 50
1, 8256, Note_on_c, 1, 60, 50
1, 8260, Note_on_c, 0, 69, 0
1, 8260, Note_on_c, 0, 70, 58
1, 8264, Note_on_c, 0, 70, 0
1, 8264, Note_on_c, 0, 72, 58
1, 8268, Note_on_c, 0, 72, 0
1, 8268, Note_on_c, 0, 70, 58
1, 8301, Note_on_c, 1, 63, 0
1, 8301, Note_on_c, 1, 60, 0
1, 8313, Note_on_c, 0, 70, 0
1, 8316, Note_on_c, 0, 69, 58
1, 8322, Note_on_c, 0, 69, 0
1, 8322, Note_on_c, 0, 70, 58
1, 8328, Note_on_c, 0, 70, 0
1, 8328, Note_on_c, 0, 72, 58
1, 8334, Note_on_c, 0, 72, 0
1, 8334, Note_on_c, 0, 70, 58
1, 8340, Note_on_c, 0, 70, 0
1, 8340, Note_on_c, 0, 69, 58
1, 8346, Note_on_c, 0, 69, 0
1, 8346, Note_on_c, 0, 70, 58
1, 8352, Note_on_c, 0, 70, 0
1, 8352, Note_on_c, 0, 69, 58
1, 8352, Note_on_c, 1, 51, 50
1, 8352, Note_on_c, 1, 48, 50
1, 8372, Note_on_c, 0, 69, 0
1, 8397, Note_on_c, 1, 51, 0
1, 8397, Note_on_c, 1, 48, 0
1, 8448, Note_on_c, 0, 62, 58
1, 8448, Note_on_c, 0, 57, 64
1, 8448, Note_on_c, 1, 41, 50
1, 8448, Note_on_c, 1, 29, 50
1, 8452, Note_on_c, 0, 62, 0
1, 8452, Note_on_c, 0, 60, 58
1, 8456, Note_on_c, 0, 60, 0
1, 8456, Note_on_c, 0, 58, 58
1, 8460, Note_on_c, 0, 58, 0
1, 8460, Note_on_c, 0, 60, 58
1, 8483, Note_on_c, 0, 60, 0
1, 8484, Note_on_c, 0, 63, 58
1, 8493, Note_on_c, 1, 41, 0
1, 8493, Note_on_c, 1, 29, 0
1, 8496, Note_on_c, 0, 63, 0
1, 8496, Note_on_c, 0, 60, 58
1, 8537, Note_on_c, 0, 57, 0
1, 8541, Note_on_c, 0, 60, 0
1, 8544, Note_on_c, 1, 60, 50
1, 8544, Note_on_c, 1, 57, 50
1, 8580, Note_on_c, 0, 72, 58
1, 8589, Note_on_c, 1, 60, 0
1, 8589, Note_on_c, 1, 57, 0
1, 8592, Note_on_c, 0, 72, 0
1, 8592, Note_on_c, 0, 79, 58
1, 8626, Note_on_c, 0, 79, 0
1, 8628, Note_on_c, 0, 75, 58
1, 8640, Note_on_c, 0, 75, 0
1, 8640, Note_on_c, 0, 74, 58
1, 8640, Note_on_c, 1, 58, 50
1, 8644, Note_on_c, 0, 74, 0
1, 8644, Note_on_c, 0, 75, 58
1, 8648, Note_on_c, 0, 75, 0
1, 8648, Note_on_c, 0, 77, 58
1, 8652, Note_on_c, 0, 77, 0
1, 8652, Note_on_c, 0, 75, 58
1, 8685, Note_on_c, 1, 58, 0
1, 8697, Note_on_c, 0, 75, 0
1, 8700, Note_on_c, 0, 74, 58
1, 8706, Note_on_c, 0, 74, 0
1, 8706, Note_on_c, 0, 75, 58
1, 8712, Note_on_c, 0, 75, 0
1, 8712, Note_on_c, 0, 77, 58
1, 8718, Note_on_c, 0, 77, 0
1, 8718, Note_on_c, 0, 75, 58
1, 8724, Note_on_c, 0, 75, 0
1, 8724, Note_on_c, 0, 74, 58
1, 8730, Note_on_c, 0, 74, 0
1, 8730, Note_on_c, 0, 75, 58
1, 8736, Note_on_c, 0, 75, 0
1, 8736, Note_on_c, 0, 74, 58
1, 8736, Note_on_c, 1, 34, 50
1, 8756, Note_on_c, 0, 74, 0
1, 8781, Note_on_c, 1, 34, 0
1, 8832, Note_on_c, 0, 67, 58
1, 8832, Note_on_c, 0, 63, 64
1, 8856, Note_on_c, 1, 46, 50
1, 8856, Note_on_c, 1, 34, 50
1, 8879, Note_on_c, 1, 46, 0
1, 8879, Note_on_c, 1, 34, 0
1, 8880, Note_on_c, 1, 46, 50
1, 8880, Note_on_c, 1, 34, 50
1, 8903, Note_on_c, 1, 46, 0
1, 8903, Note_on_c, 1, 34, 0
1, 8904, Note_on_c, 1, 46, 50
1, 8904, Note_on_c, 1, 34, 50
1, 8921, Note_on_c, 0, 67, 0
1, 8921, Note_on_c, 0, 63, 0
1, 8927, Note_on_c, 1, 46, 0
1, 8927, Note_on_c, 1, 34, 0
1, 8928, Note_on_c, 0, 84, 58
1, 8928, Note_on_c, 0, 79, 64
1, 8932, Note_on_c, 0, 84, 0
1, 8932, Note_on_c, 0, 82, 58
1, 8936, Note_on_c, 0, 82, 0
1, 8936, Note_on_c, 0, 81, 58
1, 8940, Note_on_c, 0, 81, 0
1, 8940, Note_on_c, 0, 82, 58
1, 8952, Note_on_c, 1, 46, 50
1, 8952, Note_on_c, 1, 34, 50
1, 8975, Note_on_c, 1, 46, 0
1, 8975, Note_on_c, 1, 34, 0
1, 8976, Note_on_c, 1, 46, 50
1, 8976, Note_on_c, 1, 34, 50
1, 8995, Note_on_c, 0, 79, 0
1, 8999, Note_on_c, 1, 46, 0
1, 8999, Note_on_c, 1, 34, 0
1, 9000, Note_on_c, 0, 82, 0
1, 9000, Note_on_c, 0, 79, 58
1, 9000, Note_on_c, 0, 75, 64
1, 9000, Note_on_c, 1, 46, 50
1, 9000, Note_on_c, 1, 34, 50
1, 9023, Note_on_c, 0, 79, 0
1, 9023, Note_on_c, 0, 75, 0
1, 9023, Note_on_c, 1, 46, 0
1, 9023, Note_on_c, 1, 34, 0
1, 9024, Note_on_c, 0, 79, 58
1, 9024, Note_on_c, 0, 75, 64
1, 9024, Note_on_c, 1, 46, 50
1, 9024, Note_on_c, 1, 34, 50
1, 9047, Note_on_c, 0, 79, 0
1, 9047, Note_on_c, 0, 75, 0
1, 9048, Note_on_c, 0, 77, 59
1, 9048, Note_on_c, 0, 74, 64
1, 9071, Note_on_c, 0, 77, 0
1, 9071, Note_on_c, 0, 74, 0
1, 9072, Note_on_c, 0, 75, 60
1, 9072, Note_on_c, 0, 72, 64
1, 9095, Note_on_c, 0, 75, 0
1, 9095, Note_on_c, 0, 72, 0
1, 9096, Note_on_c, 0, 74, 61
1, 9096, Note_on_c, 0, 70, 64
1, 9113, Note_on_c, 1, 46, 0
1, 9113, Note_on_c, 1, 34, 0
1, 9119, Note_on_c, 0, 74, 0
1, 9119, Note_on_c, 0, 70, 0
1, 9120, Note_on_c, 0, 72, 62
1, 9120, Note_on_c, 0, 69, 64
1, 9143, Note_on_c, 0, 72, 0
1, 9143, Note_on_c, 0, 69, 0
1, 9144, Note_on_c, 0, 70, 63
1, 9144, Note_on_c, 0, 67, 64
1, 9167, Note_on_c, 0, 70, 0
1, 9167, Note_on_c, 0, 67, 0
1, 9168, Note_on_c, 0, 69, 64
1, 9168, Note_on_c, 0, 65, 64
1, 9191, Note_on_c, 0, 69, 0
1, 9191, Note_on_c, 0, 65, 0
1, 9192, Note_on_c, 0, 67, 65
1, 9192, Note_on_c, 0, 63, 64
1, 9215, Note_on_c, 0, 67, 0
1, 9215, Note_on_c, 0, 63, 0
1, 9216, Note_on_c, 0, 65, 67
1, 9216, Note_on_c, 0, 62, 64
1, 9240, Note_on_c, 1, 53, 50
1, 9263, Note_on_c, 1, 53, 0
1, 9264, Note_on_c, 1, 53, 50
1, 9287, Note_on_c, 1, 53, 0
1, 9288, Note_on_c, 1, 53, 50
1, 9305, Note_on_c, 0, 65, 0
1, 9305, Note_on_c, 0, 62, 0
1, 9311, Note_on_c, 1, 53, 0
1, 9312, Note_on_c, 0, 63, 67
1, 9317, Note_on_c, 0, 63, 0
1, 9317, Note_on_c, 0, 65, 67
1, 9322, Note_on_c, 0, 65, 0
1, 9322, Note_on_c, 0, 63, 67
1, 9327, Note_on_c, 0, 63, 0
1, 9327, Note_on_c, 0, 65, 67
1, 9332, Note_on_c, 0, 65, 0
1, 9332, Note_on_c, 0, 63, 67
1, 9336, Note_on_c, 0, 63, 0
1, 9336, Note_on_c, 0, 65, 67
1, 9336, Note_on_c, 1, 60, 50
1, 9336, Note_on_c, 1, 54, 50
1, 9341, Note_on_c, 0, 65, 0
1, 9341, Note_on_c, 0, 63, 67
1, 9346, Note_on_c, 0, 63, 0
1, 9346, Note_on_c, 0, 65, 67
1, 9351, Note_on_c, 0, 65, 0
1, 9351, Note_on_c, 0, 63, 67
1, 9356, Note_on_c, 0, 63, 0
1, 9356, Note_on_c, 0, 65, 67
1, 9359, Note_on_c, 1, 60, 0
1, 9359, Note_on_c, 1, 54, 0
1, 9360, Note_on_c, 0, 65, 0
1, 9360, Note_on_c, 0, 63, 58
1, 9360, Note_on_c, 1, 60, 52
1, 9360, Note_on_c, 1, 54, 52
1, 9365, Note_on_c, 0, 63, 0
1, 9365, Note_on_c, 0, 65, 58
1, 9370, Note_on_c, 0, 65, 0
1, 9370, Note_on_c, 0, 63, 58
1, 9375, Note_on_c, 0, 63, 0
1, 9375, Note_on_c, 0, 65, 58
1, 9380, Note_on_c, 0, 65, 0
1, 9380, Note_on_c, 0, 63, 58
1, 9383, Note_on_c, 1, 60, 0
1, 9383, Note_on_c, 1, 54, 0
1, 9384, Note_on_c, 0, 63, 0
1, 9384, Note_on_c, 0, 62, 58
1, 9384, Note_on_c, 1, 60, 55
1, 9384, Note_on_c, 1, 54, 55
1, 9396, Note_on_c, 0, 62, 0
1, 9396, Note_on_c, 0, 63, 62
1, 9407, Note_on_c, 1, 60, 0
1, 9407, Note_on_c, 1, 54, 0
1, 9408, Note_on_c, 0, 63, 0
1, 9408, Note_on_c, 0, 63, 67
1, 9408, Note_on_c, 1, 60, 58
1, 9408, Note_on_c, 1, 55, 58
1, 9504, Note_on_c, 0, 63, 0
1, 9504, Note_on_c, 0, 62, 61
1, 9504, Note_on_c, 1, 60, 0
1, 9504, Note_on_c, 1, 58, 52
1, 9549, Note_on_c, 0, 62, 0
1, 9549, Note_on_c, 1, 58, 0
1, 9549, Note_on_c, 1, 55, 0
1, 9600, Note_on_c, 0, 61, 67
1, 9600, Note_on_c, 1, 52, 50
1, 9612, Note_on_c, 1, 52, 0
1, 9612, Note_on_c, 1, 58, 50
1, 9623, Note_on_c, 0, 61, 0
1, 9624, Note_on_c, 0, 61, 67
1, 9624, Note_on_c, 1, 58, 0
1, 9624, Note_on_c, 1, 55, 50
1, 9636, Note_on_c, 1, 55, 0
1, 9636, Note_on_c, 1, 58, 50
1, 9647, Note_on_c, 0, 61, 0
1, 9648, Note_on_c, 1, 58, 0
1, 9648, Note_on_c, 1, 52, 50
1, 9660, Note_on_c, 1, 52, 0
1, 9660, Note_on_c, 1, 58, 50
1, 9672, Note_on_c, 0, 70, 67
1, 9672, Note_on_c, 1, 58, 0
1, 9672, Note_on_c, 1, 55, 50
1, 9684, Note_on_c, 1, 55, 0
1, 9684, Note_on_c, 1, 58, 50
1, 9696, Note_on_c, 0, 70, 0
1, 9696, Note_on_c, 0, 73, 67
1, 9696, Note_on_c, 1, 58, 0
1, 9696, Note_on_c, 1, 52, 50
1, 9708, Note_on_c, 1, 52, 0
1, 9708, Note_on_c, 1, 58, 50
1, 9719, Note_on_c, 0, 73, 0
1, 9720, Note_on_c, 0, 73, 67
1, 9720, Note_on_c, 1, 58, 0
1, 9720, Note_on_c, 1, 55, 50
1, 9732, Note_on_c, 1, 55, 0
1, 9732, Note_on_c, 1, 58, 50
1, 9743, Note_on_c, 0, 73, 0
1, 9744, Note_on_c, 1, 58, 0
1, 9744, Note_on_c, 1, 52, 50
1, 9756, Note_on_c, 1, 52, 0
1, 9756, Note_on_c, 1, 58, 50
1, 9768, Note_on_c, 0, 61, 67
1, 9768, Note_on_c, 1, 58, 0
1, 9768, Note_on_c, 1, 55, 50
1, 9780, Note_on_c, 1, 55, 0
1, 9780, Note_on_c, 1, 58, 50
1, 9792, Note_on_c, 0, 61, 0
1, 9792, Note_on_c, 0, 60, 67
1, 9792, Note_on_c, 1, 58, 0
1, 9792, Note_on_c, 1, 51, 50
1, 9804, Note_on_c, 1, 51, 0
1, 9804, Note_on_c, 1, 57, 50
1, 9815, Note_on_c, 0, 60, 0
1, 9816, Note_on_c, 0, 60, 67
1, 9816, Note_on_c, 1, 57, 0
1, 9816, Note_on_c, 1, 53, 50
1, 9828, Note_on_c, 1, 53, 0
1, 9828, Note_on_c, 1, 57, 50
1, 9839, Note_on_c, 0, 60, 0
1, 9840, Note_on_c, 1, 57, 0
1, 9840, Note_on_c, 1, 51, 50
1, 9852, Note_on_c, 1, 51, 0
1, 9852, Note_on_c, 1, 57, 50
1, 9864, Note_on_c, 0, 72, 67
1, 9864, Note_on_c, 1, 57, 0
1, 9864, Note_on_c, 1, 53, 50
1, 9876, Note_on_c, 1, 53, 0
1, 9876, Note_on_c, 1, 57, 50
1, 9888, Note_on_c, 0, 72, 0
1, 9888, Note_on_c, 0, 77, 67
1, 9888, Note_on_c, 1, 57, 0
1, 9888, Note_on_c, 1, 51, 50
1, 9900, Note_on_c, 1, 51, 0
1, 9900, Note_on_c, 1, 57, 50
1, 9911, Note_on_c, 0, 77, 0
1, 9912, Note_on_c, 0, 77, 67
1, 9912, Note_on_c, 1, 57, 0
1, 9912, Note_on_c, 1, 53, 50
1, 9924, Note_on_c, 1, 53, 0
1, 9924, Note_on_c, 1, 57, 50
1, 9935, Note_on_c, 0, 77, 0
1, 9936, Note_on_c, 1, 57, 0
1, 9936, Note_on_c, 1, 51, 50
1, 9948, Note_on_c, 1, 51, 0
1, 9948, Note_on_c, 1, 57, 50
1, 9960, Note_on_c, 0, 69, 67
1, 9960, Note_on_c, 1, 57, 0
1, 9960, Note_on_c, 1, 53, 50
1, 9972, Note_on_c, 1, 53, 0
1, 9972, Note_on_c, 1, 57, 50
1, 9983, Note_on_c, 0, 69, 0
1, 9984, Note_on_c, 0, 70, 67
1, 9984, Note_on_c, 1, 57, 0
1, 9984, Note_on_c, 1, 50, 50
1, 9996, Note_on_c, 0, 70, 0
1, 9996, Note_on_c, 0, 82, 67
1, 9996, Note_on_c, 1, 50, 0
1, 9996, Note_on_c, 1, 58, 50
1, 10008, Note_on_c, 0, 82, 0
1, 10008, Note_on_c, 0, 82, 67
1, 10008, Note_on_c, 1, 58, 0
1, 10008, Note_on_c, 1, 53, 51
1, 10020, Note_on_c, 0, 82, 0
1, 10020, Note_on_c, 0, 81, 67
1, 10020, Note_on_c, 1, 53, 0
1, 10020, Note_on_c, 1, 58, 51
1, 10032, Note_on_c, 0, 81, 0
1, 10032, Note_on_c, 0, 81, 67
1, 10032, Note_on_c, 1, 58, 0
1, 10032, Note_on_c, 1, 50, 52
1, 10044, Note_on_c, 0, 81, 0
1, 10044, Note_on_c, 0, 79, 67
1, 10044, Note_on_c, 1, 50, 0
1, 10044, Note_on_c, 1, 58, 53
1, 10056, Note_on_c, 0, 79, 0
1, 10056, Note_on_c, 0, 79, 67
1, 10056, Note_on_c, 1, 58, 0
1, 10056, Note_on_c, 1, 53, 53
1, 10068, Note_on_c, 0, 79, 0
1, 10068, Note_on_c, 0, 77, 67
1, 10068, Note_on_c, 1, 53, 0
1, 10068, Note_on_c, 1, 58, 54
1, 10080, Note_on_c, 0, 77, 0
1, 10080, Note_on_c, 0, 77, 67
1, 10080, Note_on_c, 1, 58, 0
1, 10080, Note_on_c, 1, 50, 55
1, 10092, Note_on_c, 0, 77, 0
1, 10092, Note_on_c, 0, 75, 67
1, 10092, Note_on_c, 1, 50, 0
1, 10092, Note_on_c, 1, 56, 55
1, 10104, Note_on_c, 0, 75, 0
1, 10104, Note_on_c, 0, 75, 67
1, 10104, Note_on_c, 1, 56, 0
1, 10104, Note_on_c, 1, 53, 56
1, 10116, Note_on_c, 0, 75, 0
1, 10116, Note_on_c, 0, 74, 67
1, 10116, Note_on_c, 1, 53, 0
1, 10116, Note_on_c, 1, 56, 56
1, 10128, Note_on_c, 0, 74, 0
1, 10128, Note_on_c, 0, 74, 67
1, 10128, Note_on_c, 1, 56, 0
1, 10128, Note_on_c, 1, 50, 57
1, 10140, Note_on_c, 0, 74, 0
1, 10140, Note_on_c, 0, 72, 67
1, 10140, Note_on_c, 1, 50, 0
1, 10140, Note_on_c, 1, 56, 58
1, 10152, Note_on_c, 0, 72, 0
1, 10152, Note_on_c, 0, 72, 67
1, 10152, Note_on_c, 1, 56, 0
1, 10152, Note_on_c, 1, 53, 58
1, 10164, Note_on_c, 0, 72, 0
1, 10164, Note_on_c, 0, 71, 67
1, 10164, Note_on_c, 1, 53, 0
1, 10164, Note_on_c, 1, 56, 59
1, 10176, Note_on_c, 0, 71, 0
1, 10176, Note_on_c, 0, 71, 67
1, 10176, Note_on_c, 1, 56, 0
1, 10176, Note_on_c, 1, 51, 60
1, 10188, Note_on_c, 0, 71, 0
1, 10188, Note_on_c, 0, 72, 67
1, 10188, Note_on_c, 1, 51, 0
1, 10188, Note_on_c, 1, 60, 60
1, 10200, Note_on_c, 0, 72, 0
1, 10200, Note_on_c, 0, 72, 68
1, 10200, Note_on_c, 1, 60, 0
1, 10200, Note_on_c, 1, 55, 61
1, 10212, Note_on_c, 0, 72, 0
1, 10212, Note_on_c, 0, 74, 69
1, 10212, Note_on_c, 1, 55, 0
1, 10212, Note_on_c, 1, 60, 61
1, 10224, Note_on_c, 0, 74, 0
1, 10224, Note_on_c, 0, 74, 69
1, 10224, Note_on_c, 1, 60, 0
1, 10224, Note_on_c, 1, 51, 62
1, 10236, Note_on_c, 0, 74, 0
1, 10236, Note_on_c, 0, 75, 70
1, 10236, Note_on_c, 1, 51, 0
1, 10236, Note_on_c, 1, 60, 63
1, 10248, Note_on_c, 0, 75, 0
1, 10248, Note_on_c, 0, 75, 71
1, 10248, Note_on_c, 1, 60, 0
1, 10248, Note_on_c, 1, 55, 63
1, 10260, Note_on_c, 0, 75, 0
1, 10260, Note_on_c, 0, 74, 71
1, 10260, Note_on_c, 1, 55, 0
1, 10260, Note_on_c, 1, 60, 64
1, 10272, Note_on_c, 0, 74, 0
1, 10272, Note_on_c, 0, 74, 72
1, 10272, Note_on_c, 1, 60, 0
1, 10272, Note_on_c, 1, 52, 65
1, 10284, Note_on_c, 0, 74, 0
1, 10284, Note_on_c, 0, 72, 73
1, 10284, Note_on_c, 1, 52, 0
1, 10284, Note_on_c, 1, 60, 65
1, 10296, Note_on_c, 0, 72, 0
1, 10296, Note_on_c, 0, 72, 73
1, 10296, Note_on_c, 1, 60, 0
1, 10296, Note_on_c, 1, 55, 66
1, 10308, Note_on_c, 0, 72, 0
1, 10308, Note_on_c, 0, 74, 74
1, 10308, Note_on_c, 1, 55, 0
1, 10308, Note_on_c, 1, 60, 67
1, 10320, Note_on_c, 0, 74, 0
1, 10320, Note_on_c, 0, 74, 75
1, 10320, Note_on_c, 1, 60, 0
1, 10320, Note_on_c, 1, 52, 67
1, 10332, Note_on_c, 0, 74, 0
1, 10332, Note_on_c, 0, 72, 75
1, 10332, Note_on_c, 1, 52, 0
1, 10332, Note_on_c, 1, 60, 67
1, 10344, Note_on_c, 0, 72, 0
1, 10344, Note_on_c, 0, 72, 75
1, 10344, Note_on_c, 1, 60, 0
1, 10344, Note_on_c, 1, 55, 67
1, 10356, Note_on_c, 0, 72, 0
1, 10356, Note_on_c, 0, 70, 75
1, 10356, Note_on_c, 1, 55, 0
1, 10356, Note_on_c, 1, 60, 67
1, 10368, Note_on_c, 0, 70, 0
1, 10368, Note_on_c, 0, 69, 75
1, 10368, Note_on_c, 1, 60, 0
1, 10368, Note_on_c, 1, 53, 67
1, 10380, Note_on_c, 0, 69, 0
1, 10380, Note_on_c, 0, 72, 75
1, 10380, Note_on_c, 1, 53, 0
1, 10380, Note_on_c, 1, 60, 67
1, 10392, Note_on_c, 0, 72, 0
1, 10392, Note_on_c, 0, 70, 75
1, 10392, Note_on_c, 1, 60, 0
1, 10392, Note_on_c, 1, 57, 67
1, 10404, Note_on_c, 0, 70, 0
1, 10404, Note_on_c, 0, 69, 75
1, 10404, Note_on_c, 1, 57, 0
1, 10404, Note_on_c, 1, 60, 67
1, 10416, Note_on_c, 0, 69, 0
1, 10416, Note_on_c, 0, 67, 75
1, 10416, Note_on_c, 1, 60, 0
1, 10416, Note_on_c, 1, 53, 67
1, 10428, Note_on_c, 0, 67, 0
1, 10428, Note_on_c, 0, 65, 75
1, 10428, Note_on_c, 1, 53, 0
1, 10428, Note_on_c, 1, 60, 67
1, 10440, Note_on_c, 0, 65, 0
1, 10440, Note_on_c, 0, 64, 75
1, 10440, Note_on_c, 1, 60, 0
1, 10440, Note_on_c, 1, 57, 67
1, 10452, Note_on_c, 0, 64, 0
1, 10452, Note_on_c, 0, 65, 75
1, 10452, Note_on_c, 1, 57, 0
1, 10452, Note_on_c, 1, 60, 67
1, 10464, Note_on_c, 0, 65, 0
1, 10464, Note_on_c, 0, 64, 75
1, 10464, Note_on_c, 1, 60, 0
1, 10464, Note_on_c, 1, 55, 67
1, 10476, Note_on_c, 0, 64, 0
1, 10476, Note_on_c, 0, 74, 75
1, 10476, Note_on_c, 1, 55, 0
1, 10476, Note_on_c, 1, 60, 67
1, 10488, Note_on_c, 0, 74, 0
1, 10488, Note_on_c, 0, 72, 75
1, 10488, Note_on_c, 1, 60, 0
1, 10488, Note_on_c, 1, 58, 67
1, 10500, Note_on_c, 0, 72, 0
1, 10500, Note_on_c, 0, 70, 75
1, 10500, Note_on_c, 1, 58, 0
1, 10500, Note_on_c, 1, 60, 67
1, 10512, Note_on_c, 0, 70, 0
1, 10512, Note_on_c, 0, 69, 75
1, 10512, Note_on_c, 1, 60, 0
1, 10512, Note_on_c, 1, 55, 67
1, 10524, Note_on_c, 0, 69, 0
1, 10524, Note_on_c, 0, 67, 75
1, 10524, Note_on_c, 1, 55, 0
1, 10524, Note_on_c, 1, 60, 67
1, 10536, Note_on_c, 0, 67, 0
1, 10536, Note_on_c, 0, 65, 75
1, 10536, Note_on_c, 1, 60, 0
1, 10536, Note_on_c, 1, 58, 67
1, 10548, Note_on_c, 0, 65, 0
1, 10548, Note_on_c, 0, 64, 75
1, 10548, Note_on_c, 1, 58, 0
1, 10548, Note_on_c, 1, 60, 67
1, 10560, Note_on_c, 0, 64, 0
1, 10560, Note_on_c, 0, 65, 75
1, 10560, Note_on_c, 1, 60, 0
1, 10560, Note_on_c, 1, 53, 67
1, 10572, Note_on_c, 0, 65, 0
1, 10572, Note_on_c, 0, 67, 75
1, 10584, Note_on_c, 0, 67, 0
1, 10584, Note_on_c, 0, 69, 75
1, 10596, Note_on_c, 0, 69, 0
1, 10596, Note_on_c, 0, 70, 75
1, 10605, Note_on_c, 1, 53, 0
1, 10608, Note_on_c, 0, 70, 0
1, 10608, Note_on_c, 0, 72, 75
1, 10620, Note_on_c, 0, 72, 0
1, 10620, Note_on_c, 0, 74, 75
1, 10632, Note_on_c, 0, 74, 0
1, 10632, Note_on_c, 0, 76, 75
1, 10644, Note_on_c, 0, 76, 0
1, 10644, Note_on_c, 0, 77, 75
1, 10656, Note_on_c, 0, 77, 0
1, 10656, Note_on_c, 1, 41, 67
1, 10745, Note_on_c, 1, 41, 0
1, 10752, Note_on_c, 0, 77, 67
1, 10752, Note_on_c, 1, 58, 50
1, 10764, Note_on_c, 1, 58, 0
1, 10764, Note_on_c, 1, 65, 50
1, 10776, Note_on_c, 1, 65, 0
1, 10776, Note_on_c, 1, 62, 50
1, 10788, Note_on_c, 1, 62, 0
1, 10788, Note_on_c, 1, 65, 50
1, 10800, Note_on_c, 1, 65, 0
1, 10800, Note_on_c, 1, 58, 50
1, 10812, Note_on_c, 1, 58, 0
1, 10812, Note_on_c, 1, 65, 50
1, 10819, Note_on_c, 0, 77, 0
1, 10824, Note_on_c, 0, 79, 67
1, 10824, Note_on_c, 1, 65, 0
1, 10824, Note_on_c, 1, 62, 50
1, 10836, Note_on_c, 0, 79, 0
1, 10836, Note_on_c, 0, 77, 67
1, 10836, Note_on_c, 1, 62, 0
1, 10836, Note_on_c, 1, 65, 50
1, 10848, Note_on_c, 0, 77, 0
1, 10848, Note_on_c, 0, 69, 67
1, 10848, Note_on_c, 1, 65, 0
1, 10848, Note_on_c, 1, 60, 50
1, 10860, Note_on_c, 1, 60, 0
1, 10860, Note_on_c, 1, 65, 50
1, 10872, Note_on_c, 1, 65, 0
1, 10872, Note_on_c, 1, 63, 50
1, 10884, Note_on_c, 1, 63, 0
1, 10884, Note_on_c, 1, 65, 50
1, 10893, Note_on_c, 0, 69, 0
1, 10896, Note_on_c, 1, 65, 0
1, 10896, Note_on_c, 1, 60, 50
1, 10908, Note_on_c, 1, 60, 0
1, 10908, Note_on_c, 1, 65, 50
1, 10920, Note_on_c, 1, 65, 0
1, 10920, Note_on_c, 1, 63, 50
1, 10932, Note_on_c, 1, 63, 0
1, 10932, Note_on_c, 1, 65, 50
1, 10944, Note_on_c, 1, 65, 0
1, 10944, Note_on_c, 1, 58, 50
1, 10956, Note_on_c, 0, 89, 67
1, 10956, Note_on_c, 1, 58, 0
1, 10956, Note_on_c, 1, 65, 50
1, 10968, Note_on_c, 0, 89, 0
1, 10968, Note_on_c, 0, 87, 67
1, 10968, Note_on_c, 1, 65, 0
1, 10968, Note_on_c, 1, 62, 50
1, 10980, Note_on_c, 0, 87, 0
1, 10980, Note_on_c, 0, 86, 67
1, 10980, Note_on_c, 1, 62, 0
1, 10980, Note_on_c, 1, 65, 50
1, 10992, Note_on_c, 0, 86, 0
1, 10992, Note_on_c, 0, 84, 67
1, 10992, Note_on_c, 1, 65, 0
1, 10992, Note_on_c, 1, 58, 50
1, 11004, Note_on_c, 0, 84, 0
1, 11004, Note_on_c, 0, 82, 67
1, 11004, Note_on_c, 1, 58, 0
1, 11004, Note_on_c, 1, 65, 50
1, 11016, Note_on_c, 0, 82, 0
1, 11016, Note_on_c, 0, 81, 67
1, 11016, Note_on_c, 1, 65, 0
1, 11016, Note_on_c, 1, 62, 50
1, 11028, Note_on_c, 0, 81, 0
1, 11028, Note_on_c, 0, 79, 67
1, 11028, Note_on_c, 1, 62, 0
1, 11028, Note_on_c, 1, 65, 50
1, 11040, Note_on_c, 0, 79, 0
1, 11040, Note_on_c, 0, 77, 67
1, 11040, Note_on_c, 1, 65, 0
1, 11040, Note_on_c, 1, 57, 50
1, 11052, Note_on_c, 1, 57, 0
1, 11052, Note_on_c, 1, 65, 50
1, 11064, Note_on_c, 1, 65, 0
1, 11064, Note_on_c, 1, 60, 50
1, 11076, Note_on_c, 1, 60, 0
1, 11076, Note_on_c, 1, 65, 50
1, 11085, Note_on_c, 0, 77, 0
1, 11088, Note_on_c, 0, 75, 67
1, 11088, Note_on_c, 1, 65, 0
1, 11088, Note_on_c, 1, 57, 50
1, 11092, Note_on_c, 0, 75, 0
1, 11092, Note_on_c, 0, 77, 67
1, 11096, Note_on_c, 0, 77, 0
1, 11096, Note_on_c, 0, 75, 67
1, 11100, Note_on_c, 0, 75, 0
1, 11100, Note_on_c, 0, 77, 67
1, 11100, Note_on_c, 1, 57, 0
1, 11100, Note_on_c, 1, 65, 50
1, 11104, Note_on_c, 0, 77, 0
1, 11104, Note_on_c, 0, 75, 67
1, 11108, Note_on_c, 0, 75, 0
1, 11108, Note_on_c, 0, 77, 67
1, 11112, Note_on_c, 0, 77, 0
1, 11112, Note_on_c, 0, 75, 67
1, 11112, Note_on_c, 1, 65, 0
1, 11112, Note_on_c, 1, 60, 50
1, 11124, Note_on_c, 1, 60, 0
1, 11124, Note_on_c, 1, 65, 50
1, 11135, Note_on_c, 0, 75, 0
1, 11136, Note_on_c, 0, 74, 67
1, 11136, Note_on_c, 1, 65, 0
1, 11136, Note_on_c, 1, 58, 50
1, 11142, Note_on_c, 0, 74, 0
1, 11142, Note_on_c, 0, 77, 67
1, 11148, Note_on_c, 1, 58, 0
1, 11148, Note_on_c, 1, 65, 50
1, 11160, Note_on_c, 1, 65, 0
1, 11160, Note_on_c, 1, 62, 50
1, 11172, Note_on_c, 1, 62, 0
1, 11172, Note_on_c, 1, 65, 50
1, 11184, Note_on_c, 1, 65, 0
1, 11184, Note_on_c, 1, 58, 50
1, 11196, Note_on_c, 1, 58, 0
1, 11196, Note_on_c, 1, 65, 50
1, 11203, Note_on_c, 0, 77, 0
1, 11208, Note_on_c, 0, 79, 67
1, 11208, Note_on_c, 1, 65, 0
1, 11208, Note_on_c, 1, 62, 50
1, 11220, Note_on_c, 0, 79, 0
1, 11220, Note_on_c, 0, 77, 67
1, 11220, Note_on_c, 1, 62, 0
1, 11220, Note_on_c, 1, 65, 50
1, 11232, Note_on_c, 0, 77, 0
1, 11232, Note_on_c, 0, 69, 67
1, 11232, Note_on_c, 1, 65, 0
1, 11232, Note_on_c, 1, 60, 50
1, 11244, Note_on_c, 1, 60, 0
1, 11244, Note_on_c, 1, 65, 50
1, 11256, Note_on_c, 1, 65, 0
1, 11256, Note_on_c, 1, 63, 50
1, 11268, Note_on_c, 1, 63, 0
1, 11268, Note_on_c, 1, 65, 50
1, 11277, Note_on_c, 0, 69, 0
1, 11280, Note_on_c, 1, 65, 0
1, 11280, Note_on_c, 1, 60, 50
1, 11292, Note_on_c, 1, 60, 0
1, 11292, Note_on_c, 1, 65, 50
1, 11304, Note_on_c, 1, 65, 0
1, 11304, Note_on_c, 1, 63, 50
1, 11316, Note_on_c, 1, 63, 0
1, 11316, Note_on_c, 1, 65, 50
1, 11328, Note_on_c, 1, 65, 0
1, 11328, Note_on_c, 1, 58, 50
1, 11340, Note_on_c, 0, 89, 67
1, 11340, Note_on_c, 1, 58, 0
1, 11340, Note_on_c, 1, 65, 50
1, 11352, Note_on_c, 0, 89, 0
1, 11352, Note_on_c, 0, 87, 67
1, 11352, Note_on_c, 1, 65, 0
1, 11352, Note_on_c, 1, 62, 50
1, 11364, Note_on_c, 0, 87, 0
1, 11364, Note_on_c, 0, 86, 67
1, 11364, Note_on_c, 1, 62, 0
1, 11364, Note_on_c, 1, 65, 50
1, 11376, Note_on_c, 0, 86, 0
1, 11376, Note_on_c, 0, 84, 67
1, 11376, Note_on_c, 1, 65, 0
1, 11376, Note_on_c, 1, 58, 50
1, 11388, Note_on_c, 0, 84, 0
1, 11388, Note_on_c, 0, 82, 67
1, 11388, Note_on_c, 1, 58, 0
1, 11388, Note_on_c, 1, 65, 50
1, 11400, Note_on_c, 0, 82, 0
1, 11400, Note_on_c, 0, 81, 67
1, 11400, Note_on_c, 1, 65, 0
1, 11400, Note_on_c, 1, 62, 50
1, 11412, Note_on_c, 0, 81, 0
1, 11412, Note_on_c, 0, 79, 67
1, 11412, Note_on_c, 1, 62, 0
1, 11412, Note_on_c, 1, 65, 50
1, 11424, Note_on_c, 0, 79, 0
1, 11424, Note_on_c, 0, 77, 67
1, 11424, Note_on_c, 1, 65, 0
1, 11424, Note_on_c, 1, 57, 50
1, 11436, Note_on_c, 1, 57, 0
1, 11436, Note_on_c, 1, 65, 50
1, 11448, Note_on_c, 1, 65, 0
1, 11448, Note_on_c, 1, 60, 50
1, 11460, Note_on_c, 1, 60, 0
1, 11460, Note_on_c, 1, 65, 50
1, 11469, Note_on_c, 0, 77, 0
1, 11472, Note_on_c, 0, 75, 67
1, 11472, Note_on_c, 1, 65, 0
1, 11472, Note_on_c, 1, 57, 50
1, 11476, Note_on_c, 0, 75, 0
1, 11476, Note_on_c, 0, 77, 67
1, 11480, Note_on_c, 0, 77, 0
1, 11480, Note_on_c, 0, 75, 67
1, 11484, Note_on_c, 0, 75, 0
1, 11484, Note_on_c, 0, 77, 67
1, 11484, Note_on_c, 1, 57, 0
1, 11484, Note_on_c, 1, 65, 50
1, 11488, Note_on_c, 0, 77, 0
1, 11488, Note_on_c, 0, 75, 67
1, 11492, Note_on_c, 0, 75, 0
1, 11492, Note_on_c, 0, 77, 67
1, 11496, Note_on_c, 0, 77, 0
1, 11496, Note_on_c, 0, 75, 67
1, 11496, Note_on_c, 1, 65, 0
1, 11496, Note_on_c, 1, 60, 50
1, 11508, Note_on_c, 1, 60, 0
1, 11508, Note_on_c, 1, 65, 50
1, 11519, Note_on_c, 0, 75, 0
1, 11520, Note_on_c, 0, 74, 67
1, 11520, Note_on_c, 1, 65, 0
1, 11520, Note_on_c, 1, 58, 50
1, 11532, Note_on_c, 1, 58, 0
1, 11532, Note_on_c, 1, 65, 50
1, 11543, Note_on_c, 0, 74, 0
1, 11544, Note_on_c, 0, 82, 67
1, 11544, Note_on_c, 1, 65, 0
1, 11544, Note_on_c, 1, 62, 51
1, 11556, Note_on_c, 1, 62, 0
1, 11556, Note_on_c, 1, 65, 52
1, 11567, Note_on_c, 0, 82, 0
1, 11568, Note_on_c, 1, 65, 0
1, 11568, Note_on_c, 1, 58, 53
1, 11580, Note_on_c, 1, 58, 0
1, 11580, Note_on_c, 1, 65, 53
1, 11592, Note_on_c, 0, 82, 69
1, 11592, Note_on_c, 1, 65, 0
1, 11592, Note_on_c, 1, 62, 54
1, 11604, Note_on_c, 1, 62, 0
1, 11604, Note_on_c, 1, 65, 55
1, 11615, Note_on_c, 0, 82, 0
1, 11616, Note_on_c, 1, 65, 0
1, 11616, Note_on_c, 1, 60, 56
1, 11628, Note_on_c, 1, 60, 0
1, 11628, Note_on_c, 1, 65, 56
1, 11640, Note_on_c, 0, 81, 71
1, 11640, Note_on_c, 1, 65, 0
1, 11640, Note_on_c, 1, 63, 57
1, 11652, Note_on_c, 1, 63, 0
1, 11652, Note_on_c, 1, 65, 58
1, 11663, Note_on_c, 0, 81, 0
1, 11664, Note_on_c, 1, 65, 0
1, 11664, Note_on_c, 1, 62, 59
1, 11676, Note_on_c, 1, 62, 0
1, 11676, Note_on_c, 1, 70, 60
1, 11688, Note_on_c, 0, 80, 72
1, 11688, Note_on_c, 1, 70, 0
1, 11688, Note_on_c, 1, 65, 60
1, 11700, Note_on_c, 1, 65, 0
1, 11700, Note_on_c, 1, 70, 61
1, 11711, Note_on_c, 0, 80, 0
1, 11712, Note_on_c, 1, 70, 0
1, 11712, Note_on_c, 1, 63, 62
1, 11724, Note_on_c, 1, 63, 0
1, 11724, Note_on_c, 1, 70, 63
1, 11736, Note_on_c, 0, 79, 74
1, 11736, Note_on_c, 1, 70, 0
1, 11736, Note_on_c, 1, 67, 63
1, 11748, Note_on_c, 1, 67, 0
1, 11748, Note_on_c, 1, 70, 64
1, 11759, Note_on_c, 0, 79, 0
1, 11760, Note_on_c, 1, 70, 0
1, 11760, Note_on_c, 1, 63, 65
1, 11772, Note_on_c, 1, 63, 0
1, 11772, Note_on_c, 1, 71, 66
1, 11784, Note_on_c, 0, 86, 75
1, 11784, Note_on_c, 1, 71, 0
1, 11784, Note_on_c, 1, 67, 67
1, 11796, Note_on_c, 1, 67, 0
1, 11796, Note_on_c, 1, 71, 67
1, 11807, Note_on_c, 0, 86, 0
1, 11808, Note_on_c, 1, 71, 0
1, 11808, Note_on_c, 1, 63, 67
1, 11820, Note_on_c, 1, 63, 0
1, 11820, Note_on_c, 1, 72, 67
1, 11832, Note_on_c, 0, 87, 75
1, 11832, Note_on_c, 1, 72, 0
1, 11832, Note_on_c, 1, 67, 67
1, 11844, Note_on_c, 1, 67, 0
1, 11844, Note_on_c, 1, 72, 67
1, 11855, Note_on_c, 0, 87, 0
1, 11856, Note_on_c, 1, 72, 0
1, 11856, Note_on_c, 1, 63, 67
1, 11868, Note_on_c, 1, 63, 0
1, 11868, Note_on_c, 1, 72, 67
1, 11880, Note_on_c, 0, 84, 75
1, 11880, Note_on_c, 1, 72, 0
1, 11880, Note_on_c, 1, 67, 67
1, 11892, Note_on_c, 1, 67, 0
1, 11892, Note_on_c, 1, 72, 67
1, 11903, Note_on_c, 0, 84, 0
1, 11904, Note_on_c, 1, 72, 0
1, 11904, Note_on_c, 1, 65, 67
1, 11916, Note_on_c, 1, 65, 0
1, 11916, Note_on_c, 1, 74, 67
1, 11928, Note_on_c, 0, 82, 75
1, 11928, Note_on_c, 1, 74, 0
1, 11928, Note_on_c, 1, 70, 67
1, 11940, Note_on_c, 1, 70, 0
1, 11940, Note_on_c, 1, 74, 67
1, 11951, Note_on_c, 0, 82, 0
1, 11952, Note_on_c, 1, 74, 0
1, 11952, Note_on_c, 1, 65, 67
1, 11964, Note_on_c, 1, 65, 0
1, 11964, Note_on_c, 1, 74, 67
1, 11976, Note_on_c, 0, 89, 75
1, 11976, Note_on_c, 1, 74, 0
1, 11976, Note_on_c, 1, 70, 67
1, 11988, Note_on_c, 1, 70, 0
1, 11988, Note_on_c, 1, 74, 67
1, 11999, Note_on_c, 0, 89, 0
1, 12000, Note_on_c, 1, 74, 0
1, 12000, Note_on_c, 1, 65, 67
1, 12012, Note_on_c, 1, 65, 0
1, 12012, Note_on_c, 1, 75, 65
1, 12024, Note_on_c, 0, 87, 75
1, 12024, Note_on_c, 1, 75, 0
1, 12024, Note_on_c, 1, 72, 64
1, 12036, Note_on_c, 1, 72, 0
1, 12036, Note_on_c, 1, 75, 63
1, 12047, Note_on_c, 0, 87, 0
1, 12048, Note_on_c, 1, 75, 0
1, 12048, Note_on_c, 1, 65, 62
1, 12060, Note_on_c, 1, 65, 0
1, 12060, Note_on_c, 1, 75, 61
1, 12072, Note_on_c, 0, 81, 67
1, 12072, Note_on_c, 1, 75, 0
1, 12072, Note_on_c, 1, 72, 60
1, 12084, Note_on_c, 1, 72, 0
1, 12084, Note_on_c, 1, 75, 59
1, 12095, Note_on_c, 0, 81, 0
1, 12096, Note_on_c, 0, 82, 67
1, 12096, Note_on_c, 1, 75, 0
1, 12096, Note_on_c, 1, 67, 58
1, 12102, Note_on_c, 0, 82, 0
1, 12102, Note_on_c, 0, 84, 67
1, 12106, Note_on_c, 0, 84, 0
1, 12106, Note_on_c, 0, 82, 67
1, 12108, Note_on_c, 1, 67, 0
1, 12108, Note_on_c, 1, 74, 58
1, 12110, Note_on_c, 0, 82, 0
1, 12110, Note_on_c, 0, 81, 67
1, 12114, Note_on_c, 0, 81, 0
1, 12114, Note_on_c, 0, 82, 67
1, 12120, Note_on_c, 0, 82, 0
1, 12120, Note_on_c, 0, 84, 67
1, 12120, Note_on_c, 1, 74, 0
1, 12120, Note_on_c, 1, 70, 58
1, 12132, Note_on_c, 0, 84, 0
1, 12132, Note_on_c, 0, 86, 67
1, 12132, Note_on_c, 1, 70, 0
1, 12132, Note_on_c, 1, 74, 58
1, 12144, Note_on_c, 0, 86, 0
1, 12144, Note_on_c, 0, 84, 67
1, 12144, Note_on_c, 1, 74, 0
1, 12144, Note_on_c, 1, 67, 58
1, 12156, Note_on_c, 0, 84, 0
1, 12156, Note_on_c, 0, 82, 67
1, 12156, Note_on_c, 1, 67, 0
1, 12156, Note_on_c, 1, 74, 58
1, 12168, Note_on_c, 0, 82, 0
1, 12168, Note_on_c, 0, 81, 67
1, 12168, Note_on_c, 1, 74, 0
1, 12168, Note_on_c, 1, 70, 58
1, 12180, Note_on_c, 0, 81, 0
1, 12180, Note_on_c, 0, 79, 67
1, 12180, Note_on_c, 1, 70, 0
1, 12180, Note_on_c, 1, 74, 58
1, 12192, Note_on_c, 0, 79, 0
1, 12192, Note_on_c, 0, 77, 67
1, 12192, Note_on_c, 1, 74, 0
1, 12192, Note_on_c, 1, 67, 58
1, 12204, Note_on_c, 1, 67, 0
1, 12204, Note_on_c, 1, 72, 58
1, 12216, Note_on_c, 1, 72, 0
1, 12216, Note_on_c, 1, 70, 58
1, 12228, Note_on_c, 1, 70, 0
1, 12228, Note_on_c, 1, 72, 58
1, 12237, Note_on_c, 0, 77, 0
1, 12240, Note_on_c, 0, 76, 67
1, 12240, Note_on_c, 1, 72, 0
1, 12240, Note_on_c, 1, 67, 58
1, 12244, Note_on_c, 0, 76, 0
1, 12244, Note_on_c, 0, 77, 67
1, 12248, Note_on_c, 0, 77, 0
1, 12248, Note_on_c, 0, 76, 67
1, 12252, Note_on_c, 0, 76, 0
1, 12252, Note_on_c, 0, 77, 67
1, 12252, Note_on_c, 1, 67, 0
1, 12252, Note_on_c, 1, 72, 58
1, 12256, Note_on_c, 0, 77, 0
1, 12256, Note_on_c, 0, 76, 67
1, 12260, Note_on_c, 0, 76, 0
1, 12260, Note_on_c, 0, 77, 67
1, 12264, Note_on_c, 0, 77, 0
1, 12264, Note_on_c, 0, 76, 67
1, 12264, Note_on_c, 1, 72, 0
1, 12264, Note_on_c, 1, 70, 58
1, 12276, Note_on_c, 1, 70, 0
1, 12276, Note_on_c, 1, 72, 58
1, 12287, Note_on_c, 0, 76, 0
1, 12288, Note_on_c, 1, 72, 0
1, 12288, Note_on_c, 1, 67, 58
1, 12300, Note_on_c, 0, 86, 67
1, 12300, Note_on_c, 1, 67, 0
1, 12300, Note_on_c, 1, 72, 58
1, 12312, Note_on_c, 0, 86, 0
1, 12312, Note_on_c, 0, 84, 67
1, 12312, Note_on_c, 1, 72, 0
1, 12312, Note_on_c, 1, 70, 58
1, 12324, Note_on_c, 0, 84, 0
1, 12324, Note_on_c, 0, 82, 67
1, 12324, Note_on_c, 1, 70, 0
1, 12324, Note_on_c, 1, 72, 58
1, 12336, Note_on_c, 0, 82, 0
1, 12336, Note_on_c, 0, 81, 67
1, 12336, Note_on_c, 1, 72, 0
1, 12336, Note_on_c, 1, 67, 58
1, 12348, Note_on_c, 0, 81, 0
1, 12348, Note_on_c, 0, 79, 67
1, 12348, Note_on_c, 1, 67, 0
1, 12348, Note_on_c, 1, 72, 58
1, 12360, Note_on_c, 0, 79, 0
1, 12360, Note_on_c, 0, 77, 67
1, 12360, Note_on_c, 1, 72, 0
1, 12360, Note_on_c, 1, 70, 58
1, 12372, Note_on_c, 0, 77, 0
1, 12372, Note_on_c, 0, 76, 67
1, 12372, Note_on_c, 1, 70, 0
1, 12372, Note_on_c, 1, 72, 58
1, 12384, Note_on_c, 0, 76, 0
1, 12384, Note_on_c, 1, 72, 0
1, 12384, Note_on_c, 1, 67, 50
1, 12396, Note_on_c, 0, 86, 58
1, 12396, Note_on_c, 1, 67, 0
1, 12396, Note_on_c, 1, 72, 50
1, 12408, Note_on_c, 0, 86, 0
1, 12408, Note_on_c, 0, 84, 58
1, 12408, Note_on_c, 1, 72, 0
1, 12408, Note_on_c, 1, 70, 50
1, 12420, Note_on_c, 0, 84, 0
1, 12420, Note_on_c, 0, 82, 58
1, 12420, Note_on_c, 1, 70, 0
1, 12420, Note_on_c, 1, 72, 50
1, 12432, Note_on_c, 0, 82, 0
1, 12432, Note_on_c, 0, 81, 58
1, 12432, Note_on_c, 1, 72, 0
1, 12432, Note_on_c, 1, 67, 50
1, 12444, Note_on_c, 0, 81, 0
1, 12444, Note_on_c, 0, 79, 58
1, 12444, Note_on_c, 1, 67, 0
1, 12444, Note_on_c, 1, 72, 50
1, 12456, Note_on_c, 0, 79, 0
1, 12456, Note_on_c, 0, 77, 58
1, 12456, Note_on_c, 1, 72, 0
1, 12456, Note_on_c, 1, 70, 50
1, 12468, Note_on_c, 0, 77, 0
1, 12468, Note_on_c, 0, 76, 58
1, 12468, Note_on_c, 1, 70, 0
1, 12468, Note_on_c, 1, 72, 50
1, 12480, Note_on_c, 0, 76, 0
1, 12480, Note_on_c, 1, 72, 0
1, 12480, Note_on_c, 1, 69, 50
1, 12492, Note_on_c, 0, 75, 58
1, 12504, Note_on_c, 0, 75, 0
1, 12504, Note_on_c, 0, 74, 58
1, 12516, Note_on_c, 0, 74, 0
1, 12516, Note_on_c, 0, 75, 59
1, 12525, Note_on_c, 1, 69, 0
1, 12528, Note_on_c, 0, 75, 0
1, 12528, Note_on_c, 0, 77, 59
1, 12540, Note_on_c, 0, 77, 0
1, 12540, Note_on_c, 0, 79, 60
1, 12552, Note_on_c, 0, 79, 0
1, 12552, Note_on_c, 0, 81, 61
1, 12564, Note_on_c, 0, 81, 0
1, 12564, Note_on_c, 0, 82, 61
1, 12576, Note_on_c, 0, 82, 0
1, 12576, Note_on_c, 0, 84, 62
1, 12588, Note_on_c, 0, 84, 0
1, 12588, Note_on_c, 0, 81, 62
1, 12600, Note_on_c, 0, 81, 0
1, 12600, Note_on_c, 0, 87, 63
1, 12612, Note_on_c, 0, 87, 0
1, 12612, Note_on_c, 0, 86, 64
1, 12624, Note_on_c, 0, 86, 0
1, 12624, Note_on_c, 0, 84, 64
1, 12636, Note_on_c, 0, 84, 0
1, 12636, Note_on_c, 0, 82, 65
1, 12648, Note_on_c, 0, 82, 0
1, 12648, Note_on_c, 0, 81, 65
1, 12660, Note_on_c, 0, 81, 0
1, 12660, Note_on_c, 0, 79, 66
1, 12672, Note_on_c, 0, 79, 0
1, 12672, Note_on_c, 0, 78, 67
1, 12672, Note_on_c, 1, 60, 50
1, 12672, Note_on_c, 1, 57, 50
1, 12676, Note_on_c, 0, 78, 0
1, 12676, Note_on_c, 0, 79, 67
1, 12680, Note_on_c, 0, 79, 0
1, 12680, Note_on_c, 0, 81, 67
1, 12684, Note_on_c, 0, 81, 0
1, 12684, Note_on_c, 0, 79, 67
1, 12835, Note_on_c, 0, 79, 0
1, 12840, Note_on_c, 0, 77, 67
1, 12849, Note_on_c, 1, 60, 0
1, 12849, Note_on_c, 1, 57, 0
1, 12852, Note_on_c, 0, 77, 0
1, 12852, Note_on_c, 0, 75, 67
1, 12864, Note_on_c, 0, 75, 0
1, 12864, Note_on_c, 0, 74, 67
1, 12864, Note_on_c, 1, 58, 50
1, 12876, Note_on_c, 0, 74, 0
1, 12876, Note_on_c, 0, 82, 67
1, 12888, Note_on_c, 0, 82, 0
1, 12888, Note_on_c, 0, 81, 67
1, 12900, Note_on_c, 0, 81, 0
1, 12900, Note_on_c, 0, 79, 67
1, 12909, Note_on_c, 1, 58, 0
1, 12912, Note_on_c, 0, 79, 0
1, 12912, Note_on_c, 0, 77, 67
1, 12912, Note_on_c, 1, 50, 50
1, 12924, Note_on_c, 0, 77, 0
1, 12924, Note_on_c, 0, 76, 67
1, 12936, Note_on_c, 0, 76, 0
1, 12936, Note_on_c, 0, 77, 67
1, 12948, Note_on_c, 0, 77, 0
1, 12948, Note_on_c, 0, 78, 67
1, 12957, Note_on_c, 1, 50, 0
1, 12960, Note_on_c, 0, 78, 0
1, 12960, Note_on_c, 0, 79, 67
1, 12960, Note_on_c, 1, 51, 50
1, 12972, Note_on_c, 0, 79, 0
1, 12972, Note_on_c, 0, 74, 67
1, 12984, Note_on_c, 0, 74, 0
1, 12984, Note_on_c, 0, 75, 67
1, 12996, Note_on_c, 0, 75, 0
1, 12996, Note_on_c, 0, 71, 67
1, 13005, Note_on_c, 1, 51, 0
1, 13008, Note_on_c, 0, 71, 0
1, 13008, Note_on_c, 0, 72, 67
1, 13020, Note_on_c, 0, 72, 0
1, 13020, Note_on_c, 0, 75, 67
1, 13032, Note_on_c, 0, 75, 0
1, 13032, Note_on_c, 0, 67, 67
1, 13044, Note_on_c, 0, 67, 0
1, 13044, Note_on_c, 0, 75, 67
1, 13056, Note_on_c, 0, 75, 0
1, 13056, Note_on_c, 0, 65, 67
1, 13056, Note_on_c, 1, 62, 50
1, 13056, Note_on_c, 1, 58, 50
1, 13056, Note_on_c, 1, 53, 50
1, 13068, Note_on_c, 0, 65, 0
1, 13068, Note_on_c, 0, 77, 67
1, 13080, Note_on_c, 0, 77, 0
1, 13080, Note_on_c, 0, 76, 67
1, 13092, Note_on_c, 0, 76, 0
1, 13092, Note_on_c, 0, 75, 67
1, 13101, Note_on_c, 1, 62, 0
1, 13101, Note_on_c, 1, 58, 0
1, 13101, Note_on_c, 1, 53, 0
1, 13104, Note_on_c, 0, 75, 0
1, 13104, Note_on_c, 0, 74, 67
1, 13116, Note_on_c, 0, 74, 0
1, 13116, Note_on_c, 0, 73, 67
1, 13128, Note_on_c, 0, 73, 0
1, 13128, Note_on_c, 0, 72, 67
1, 13140, Note_on_c, 0, 72, 0
1, 13140, Note_on_c, 0, 71, 67
1, 13152, Note_on_c, 0, 71, 0
1, 13152, Note_on_c, 0, 70, 67
1, 13152, Note_on_c, 1, 62, 50
1, 13152, Note_on_c, 1, 53, 50
1, 13197, Note_on_c, 1, 62, 0
1, 13200, Note_on_c, 1, 63, 50
1, 13219, Note_on_c, 0, 70, 0
1, 13224, Note_on_c, 0, 74, 67
1, 13230, Note_on_c, 0, 74, 0
1, 13230, Note_on_c, 0, 72, 67
1, 13241, Note_on_c, 1, 53, 0
1, 13245, Note_on_c, 1, 63, 0
1, 13247, Note_on_c, 0, 72, 0
1, 13248, Note_on_c, 0, 70, 67
1, 13248, Note_on_c, 1, 62, 50
1, 13248, Note_on_c, 1, 58, 50
1, 13260, Note_on_c, 0, 70, 0
1, 13260, Note_on_c, 0, 77, 67
1, 13272, Note_on_c, 0, 77, 0
1, 13272, Note_on_c, 0, 75, 67
1, 13284, Note_on_c, 0, 75, 0
1, 13284, Note_on_c, 0, 74, 67
1, 13293, Note_on_c, 1, 62, 0
1, 13293, Note_on_c, 1, 58, 0
1, 13296, Note_on_c, 0, 74, 0
1, 13296, Note_on_c, 0, 72, 67
1, 13308, Note_on_c, 0, 72, 0
1, 13308, Note_on_c, 0, 70, 67
1, 13320, Note_on_c, 0, 70, 0
1, 13320, Note_on_c, 0, 69, 67
1, 13332, Note_on_c, 0, 69, 0
1, 13332, Note_on_c, 0, 67, 67
1, 13344, Note_on_c, 0, 67, 0
1, 13344, Note_on_c, 0, 65, 67
1, 13344, Note_on_c, 0, 62, 64
1, 13392, Note_on_c, 1, 53, 67
1, 13411, Note_on_c, 0, 65, 0
1, 13411, Note_on_c, 0, 62, 0
1, 13416, Note_on_c, 0, 63, 67
1, 13416, Note_on_c, 0, 60, 64
1, 13419, Note_on_c, 0, 63, 0
1, 13419, Note_on_c, 0, 65, 67
1, 13422, Note_on_c, 0, 65, 0
1, 13422, Note_on_c, 0, 63, 67
1, 13425, Note_on_c, 0, 63, 0
1, 13425, Note_on_c, 0, 65, 67
1, 13428, Note_on_c, 0, 65, 0
1, 13428, Note_on_c, 0, 63, 67
1, 13437, Note_on_c, 1, 53, 0
1, 13439, Note_on_c, 0, 60, 0
1, 13440, Note_on_c, 0, 63, 0
1, 13440, Note_on_c, 0, 62, 67
1, 13440, Note_on_c, 0, 58, 64
1, 13440, Note_on_c, 1, 46, 67
1, 13452, Note_on_c, 0, 62, 0
1, 13452, Note_on_c, 0, 65, 67
1, 13452, Note_on_c, 0, 58, 0
1, 13464, Note_on_c, 0, 65, 0
1, 13464, Note_on_c, 0, 63, 67
1, 13476, Note_on_c, 0, 63, 0
1, 13476, Note_on_c, 0, 62, 67
1, 13485, Note_on_c, 1, 46, 0
1, 13488, Note_on_c, 0, 62, 0
1, 13488, Note_on_c, 0, 60, 67
1, 13500, Note_on_c, 0, 60, 0
1, 13500, Note_on_c, 0, 58, 67
1, 13512, Note_on_c, 0, 58, 0
1, 13512, Note_on_c, 0, 57, 67
1, 13524, Note_on_c, 0, 57, 0
1, 13524, Note_on_c, 0, 55, 67
1, 13536, Note_on_c, 0, 55, 0
1, 13536, Note_on_c, 1, 53, 67
1, 13536, Note_on_c, 1, 50, 67
1, 13584, Note_on_c, 1, 41, 50
1, 13603, Note_on_c, 1, 53, 0
1, 13603, Note_on_c, 1, 50, 0
1, 13608, Note_on_c, 1, 57, 67
1, 13608, Note_on_c, 1, 53, 67
1, 13608, Note_on_c, 1, 48, 67
1, 13629, Note_on_c, 1, 41, 0
1, 13631, Note_on_c, 1, 57, 0
1, 13631, Note_on_c, 1, 53, 0
1, 13631, Note_on_c, 1, 48, 0
1, 13632, Note_on_c, 1, 57, 67
1, 13632, Note_on_c, 1, 51, 67
1, 13632, Note_on_c, 1, 48, 67
1, 13632, Note_on_c, 1, 34, 50
1, 13721, Note_on_c, 1, 34, 0
1, 13728, Note_on_c, 1, 57, 0
1, 13728, Note_on_c, 1, 51, 0
1, 13728, Note_on_c, 1, 48, 0
1, 13728, Note_on_c, 1, 34, 67
1, 13733, Note_on_c, 1, 38, 67
1, 13738, Note_on_c, 1, 41, 67
1, 13743, Note_on_c, 1, 46, 67
1, 13748, Note_on_c, 1, 50, 67
1, 13753, Note_on_c, 1, 53, 67
1, 13758, Note_on_c, 1, 58, 67
1, 14178, Note_on_c, 1, 58, 0
1, 14178, Note_on_c, 1, 53, 0
1, 14178, Note_on_c, 1, 50, 0
1, 14178, Note_on_c, 1, 46, 0
1, 14178, Note_on_c, 1, 41, 0
1, 14178, Note_on_c, 1, 38, 0
1, 14178, Note_on_c, 1, 34, 0
1, 14208, Note_on_c, 1, 34, 0
1, 14297, Note_on_c, 1, 34, 0
1, 14307, End_track
0, 0, End_of_file