0, 0, Header, 0, 1, 96
1, 0, Start_track
1, 0, Tempo, 800000
1, 0, Note_on_c, 0, 83, 93
1, 0, Note_on_c, 0, 80, 77
1, 48, Note_on_c, 1, 64, 77
1, 93, Note_on_c, 1, 64, 0
1, 96, Note_on_c, 1, 71, 77
1, 133, Note_on_c, 0, 80, 0
1, 144, Note_on_c, 0, 83, 0
1, 144, Note_on_c, 0, 81, 77
1, 144, Note_on_c, 0, 78, 77
1, 189, Note_on_c, 0, 81, 0
1, 189, Note_on_c, 0, 78, 0
1, 192, Note_on_c, 0, 80, 77
1, 192, Note_on_c, 0, 76, 77
1, 229, Note_on_c, 1, 71, 0
1, 240, Note_on_c, 1, 73, 77
1, 281, Note_on_c, 0, 80, 0
1, 285, Note_on_c, 1, 73, 0
1, 288, Note_on_c, 0, 78, 77
1, 288, Note_on_c, 1, 70, 77
1, 325, Note_on_c, 0, 76, 0
1, 333, Note_on_c, 1, 70, 0
1, 336, Note_on_c, 0, 75, 77
1, 336, Note_on_c, 1, 71, 77
1, 377, Note_on_c, 0, 78, 0
1, 381, Note_on_c, 0, 75, 0
1, 384, Note_on_c, 0, 76, 77
1, 384, Note_on_c, 1, 68, 77
1, 429, Note_on_c, 1, 68, 0
1, 432, Note_on_c, 1, 64, 77
1, 451, Note_on_c, 0, 76, 0
1, 456, Note_on_c, 0, 78, 80
1, 468, Note_on_c, 0, 78, 0
1, 468, Note_on_c, 0, 80, 80
1, 477, Note_on_c, 1, 64, 0
1, 480, Note_on_c, 0, 80, 0
1, 480, Note_on_c, 0, 81, 81
1, 480, Note_on_c, 1, 63, 77
1, 525, Note_on_c, 0, 81, 0
1, 525, Note_on_c, 1, 63, 0
1, 528, Note_on_c, 0, 80, 83
1, 528, Note_on_c, 1, 64, 77
1, 561, Note_on_c, 1, 71, 0
1, 573, Note_on_c, 0, 80, 0
1, 573, Note_on_c, 1, 64, 0
1, 576, Note_on_c, 0, 80, 85
1, 576, Note_on_c, 1, 73, 77
1, 576, Note_on_c, 1, 69, 77
1, 584, Note_on_c, 0, 80, 0
1, 584, Note_on_c, 0, 78, 84
1, 592, Note_on_c, 0, 78, 0
1, 592, Note_on_c, 0, 80, 84
1, 600, Note_on_c, 0, 80, 0
1, 600, Note_on_c, 0, 78, 83
1, 608, Note_on_c, 0, 78, 0
1, 608, Note_on_c, 0, 80, 83
1, 616, Note_on_c, 0, 80, 0
1, 616, Note_on_c, 0, 78, 82
1, 621, Note_on_c, 1, 73, 0
1, 621, Note_on_c, 1, 69, 0
1, 624, Note_on_c, 0, 78, 0
1, 624, Note_on_c, 0, 76, 82
1, 624, Note_on_c, 1, 71, 77
1, 624, Note_on_c, 1, 68, 77
1, 669, Note_on_c, 0, 76, 0
1, 669, Note_on_c, 1, 71, 0
1, 669, Note_on_c, 1, 68, 0
1, 768, Note_on_c, 0, 71, 93
1, 768, Note_on_c, 0, 68, 77
1, 816, Note_on_c, 1, 52, 77
1, 861, Note_on_c, 1, 52, 0
1, 864, Note_on_c, 1, 59, 77
1, 901, Note_on_c, 0, 68, 0
1, 912, Note_on_c, 0, 71, 0
1, 912, Note_on_c, 0, 69, 77
1, 912, Note_on_c, 0, 66, 77
1, 957, Note_on_c, 0, 69, 0
1, 957, Note_on_c, 0, 66, 0
1, 960, Note_on_c, 0, 68, 77
1, 960, Note_on_c, 0, 64, 77
1, 997, Note_on_c, 1, 59, 0
1, 1008, Note_on_c, 1, 61, 77
1, 1049, Note_on_c, 0, 68, 0
1, 1053, Note_on_c, 1, 61, 0
1, 1056, Note_on_c, 0, 66, 77
1, 1056, Note_on_c, 1, 58, 77
1, 1093, Note_on_c, 0, 64, 0
1, 1101, Note_on_c, 1, 58, 0
1, 1104, Note_on_c, 0, 63, 77
1, 1104, Note_on_c, 1, 59, 77
1, 1145, Note_on_c, 0, 66, 0
1, 1149, Note_on_c, 0, 63, 0
1, 1152, Note_on_c, 0, 64, 77
1, 1152, Note_on_c, 1, 56, 77
1, 1197, Note_on_c, 1, 56, 0
1, 1200, Note_on_c, 1, 52, 77
1, 1219, Note_on_c, 0, 64, 0
1, 1224, Note_on_c, 0, 66, 80
1, 1236, Note_on_c, 0, 66, 0
1, 1236, Note_on_c, 0, 68, 80
1, 1245, Note_on_c, 1, 52, 0
1, 1248, Note_on_c, 0, 68, 0
1, 1248, Note_on_c, 0, 69, 81
1, 1248, Note_on_c, 1, 51, 77
1, 1293, Note_on_c, 0, 69, 0
1, 1293, Note_on_c, 1, 51, 0
1, 1296, Note_on_c, 0, 68, 83
1, 1296, Note_on_c, 1, 52, 77
1, 1329, Note_on_c, 1, 59, 0
1, 1341, Note_on_c, 0, 68, 0
1, 1341, Note_on_c, 1, 52, 0
1, 1344, Note_on_c, 0, 73, 85
1, 1344, Note_on_c, 0, 69, 85
1, 1344, Note_on_c, 0, 64, 85
1, 1344, Note_on_c, 1, 45, 77
1, 1364, Note_on_c, 0, 73, 0
1, 1364, Note_on_c, 0, 69, 0
1, 1364, Note_on_c, 0, 64, 0
1, 1364, Note_on_c, 1, 45, 0
1, 1392, Note_on_c, 0, 71, 85
1, 1392, Note_on_c, 0, 68, 85
1, 1392, Note_on_c, 0, 64, 85
1, 1392, Note_on_c, 1, 52, 77
1, 1412, Note_on_c, 0, 71, 0
1, 1412, Note_on_c, 0, 68, 0
1, 1412, Note_on_c, 0, 64, 0
1, 1412, Note_on_c, 1, 52, 0
1, 1536, Note_on_c, 0, 64, 77
1, 1548, Note_on_c, 0, 64, 0
1, 1548, Note_on_c, 0, 76, 77
1, 1584, Note_on_c, 1, 44, 68
1, 1584, Note_on_c, 1, 32, 68
1, 1629, Note_on_c, 1, 44, 0
1, 1629, Note_on_c, 1, 32, 0
1, 1632, Note_on_c, 1, 44, 68
1, 1632, Note_on_c, 1, 32, 68
1, 1647, Note_on_c, 0, 76, 0
1, 1648, Note_on_c, 0, 75, 77
1, 1663, Note_on_c, 0, 75, 0
1, 1664, Note_on_c, 0, 73, 77
1, 1677, Note_on_c, 1, 44, 0
1, 1677, Note_on_c, 1, 32, 0
1, 1679, Note_on_c, 0, 73, 0
1, 1680, Note_on_c, 0, 71, 77
1, 1695, Note_on_c, 0, 71, 0
1, 1696, Note_on_c, 0, 69, 77
1, 1711, Note_on_c, 0, 69, 0
1, 1712, Note_on_c, 0, 68, 77
1, 1727, Note_on_c, 0, 68, 0
1, 1728, Note_on_c, 0, 66, 77
1, 1748, Note_on_c, 0, 66, 0
1, 1776, Note_on_c, 1, 45, 68
1, 1776, Note_on_c, 1, 33, 68
1, 1821, Note_on_c, 1, 45, 0
1, 1821, Note_on_c, 1, 33, 0
1, 1824, Note_on_c, 1, 45, 68
1, 1824, Note_on_c, 1, 33, 68
1, 1840, Note_on_c, 0, 85, 77
1, 1855, Note_on_c, 0, 85, 0
1, 1856, Note_on_c, 0, 83, 77
1, 1869, Note_on_c, 1, 45, 0
1, 1869, Note_on_c, 1, 33, 0
1, 1871, Note_on_c, 0, 83, 0
1, 1872, Note_on_c, 0, 81, 77
1, 1887, Note_on_c, 0, 81, 0
1, 1888, Note_on_c, 0, 80, 77
1, 1903, Note_on_c, 0, 80, 0
1, 1904, Note_on_c, 0, 78, 77
1, 1919, Note_on_c, 0, 78, 0
1, 1920, Note_on_c, 0, 76, 77
1, 1935, Note_on_c, 0, 76, 0
1, 1936, Note_on_c, 0, 75, 77
1, 1951, Note_on_c, 0, 75, 0
1, 1952, Note_on_c, 0, 73, 77
1, 1967, Note_on_c, 0, 73, 0
1, 1968, Note_on_c, 0, 71, 77
1, 1968, Note_on_c, 1, 47, 68
1, 1968, Note_on_c, 1, 35, 68
1, 1983, Note_on_c, 0, 71, 0
1, 1984, Note_on_c, 0, 69, 77
1, 1999, Note_on_c, 0, 69, 0
1, 2000, Note_on_c, 0, 68, 77
1, 2013, Note_on_c, 1, 47, 0
1, 2013, Note_on_c, 1, 35, 0
1, 2015, Note_on_c, 0, 68, 0
1, 2016, Note_on_c, 0, 66, 77
1, 2016, Note_on_c, 1, 47, 68
1, 2016, Note_on_c, 1, 35, 68
1, 2031, Note_on_c, 0, 66, 0
1, 2032, Note_on_c, 0, 64, 78
1, 2047, Note_on_c, 0, 64, 0
1, 2048, Note_on_c, 0, 63, 79
1, 2061, Note_on_c, 1, 47, 0
1, 2061, Note_on_c, 1, 35, 0
1, 2063, Note_on_c, 0, 63, 0
1, 2064, Note_on_c, 0, 61, 80
1, 2064, Note_on_c, 1, 47, 68
1, 2064, Note_on_c, 1, 35, 68
1, 2079, Note_on_c, 0, 61, 0
1, 2080, Note_on_c, 0, 59, 81
1, 2095, Note_on_c, 0, 59, 0
1, 2096, Note_on_c, 0, 57, 82
1, 2109, Note_on_c, 1, 47, 0
1, 2109, Note_on_c, 1, 35, 0
1, 2111, Note_on_c, 0, 57, 0
1, 2112, Note_on_c, 0, 59, 85
1, 2157, Note_on_c, 0, 59, 0
1, 2160, Note_on_c, 0, 59, 82
1, 2160, Note_on_c, 1, 52, 68
1, 2160, Note_on_c, 1, 40, 68
1, 2168, Note_on_c, 0, 59, 0
1, 2168, Note_on_c, 0, 57, 82
1, 2176, Note_on_c, 0, 57, 0
1, 2176, Note_on_c, 0, 59, 81
1, 2184, Note_on_c, 0, 59, 0
1, 2184, Note_on_c, 0, 57, 81
1, 2192, Note_on_c, 0, 57, 0
1, 2192, Note_on_c, 0, 59, 81
1, 2200, Note_on_c, 0, 59, 0
1, 2200, Note_on_c, 0, 57, 80
1, 2205, Note_on_c, 1, 52, 0
1, 2205, Note_on_c, 1, 40, 0
1, 2208, Note_on_c, 0, 57, 0
1, 2208, Note_on_c, 0, 56, 80
1, 2208, Note_on_c, 1, 52, 68
1, 2208, Note_on_c, 1, 40, 68
1, 2253, Note_on_c, 0, 56, 0
1, 2253, Note_on_c, 1, 52, 0
1, 2253, Note_on_c, 1, 40, 0
1, 2256, Note_on_c, 1, 52, 68
1, 2256, Note_on_c, 1, 40, 68
1, 2301, Note_on_c, 1, 52, 0
1, 2301, Note_on_c, 1, 40, 0
1, 2304, Note_on_c, 0, 64, 77
1, 2316, Note_on_c, 0, 64, 0
1, 2316, Note_on_c, 0, 76, 77
1, 2352, Note_on_c, 1, 44, 68
1, 2352, Note_on_c, 1, 32, 68
1, 2397, Note_on_c, 1, 44, 0
1, 2397, Note_on_c, 1, 32, 0
1, 2400, Note_on_c, 1, 44, 68
1, 2400, Note_on_c, 1, 32, 68
1, 2415, Note_on_c, 0, 76, 0
1, 2416, Note_on_c, 0, 75, 77
1, 2431, Note_on_c, 0, 75, 0
1, 2432, Note_on_c, 0, 73, 77
1, 2445, Note_on_c, 1, 44, 0
1, 2445, Note_on_c, 1, 32, 0
1, 2447, Note_on_c, 0, 73, 0
1, 2448, Note_on_c, 0, 71, 77
1, 2463, Note_on_c, 0, 71, 0
1, 2464, Note_on_c, 0, 69, 77
1, 2479, Note_on_c, 0, 69, 0
1, 2480, Note_on_c, 0, 68, 77
1, 2495, Note_on_c, 0, 68, 0
1, 2496, Note_on_c, 0, 66, 77
1, 2516, Note_on_c, 0, 66, 0
1, 2544, Note_on_c, 1, 45, 68
1, 2544, Note_on_c, 1, 33, 68
1, 2589, Note_on_c, 1, 45, 0
1, 2589, Note_on_c, 1, 33, 0
1, 2592, Note_on_c, 1, 45, 68
1, 2592, Note_on_c, 1, 33, 68
1, 2608, Note_on_c, 0, 88, 77
1, 2623, Note_on_c, 0, 88, 0
1, 2624, Note_on_c, 0, 87, 77
1, 2637, Note_on_c, 1, 45, 0
1, 2637, Note_on_c, 1, 33, 0
1, 2639, Note_on_c, 0, 87, 0
1, 2640, Note_on_c, 0, 85, 77
1, 2655, Note_on_c, 0, 85, 0
1, 2656, Note_on_c, 0, 83, 77
1, 2671, Note_on_c, 0, 83, 0
1, 2672, Note_on_c, 0, 81, 77
1, 2687, Note_on_c, 0, 81, 0
1, 2688, Note_on_c, 0, 80, 77
1, 2703, Note_on_c, 0, 80, 0
1, 2704, Note_on_c, 0, 78, 77
1, 2719, Note_on_c, 0, 78, 0
1, 2720, Note_on_c, 0, 76, 77
1, 2735, Note_on_c, 0, 76, 0
1, 2736, Note_on_c, 0, 75, 77
1, 2736, Note_on_c, 1, 47, 68
1, 2736, Note_on_c, 1, 35, 68
1, 2751, Note_on_c, 0, 75, 0
1, 2752, Note_on_c, 0, 73, 77
1, 2767, Note_on_c, 0, 73, 0
1, 2768, Note_on_c, 0, 71, 77
1, 2781, Note_on_c, 1, 47, 0
1, 2781, Note_on_c, 1, 35, 0
1, 2783, Note_on_c, 0, 71, 0
1, 2784, Note_on_c, 0, 69, 77
1, 2784, Note_on_c, 1, 47, 68
1, 2784, Note_on_c, 1, 35, 68
1, 2799, Note_on_c, 0, 69, 0
1, 2800, Note_on_c, 0, 68, 77
1, 2815, Note_on_c, 0, 68, 0
1, 2816, Note_on_c, 0, 66, 78
1, 2829, Note_on_c, 1, 47, 0
1, 2829, Note_on_c, 1, 35, 0
1, 2831, Note_on_c, 0, 66, 0
1, 2832, Note_on_c, 0, 64, 79
1, 2832, Note_on_c, 1, 47, 68
1, 2832, Note_on_c, 1, 35, 68
1, 2847, Note_on_c, 0, 64, 0
1, 2848, Note_on_c, 0, 63, 80
1, 2863, Note_on_c, 0, 63, 0
1, 2864, Note_on_c, 0, 69, 81
1, 2877, Note_on_c, 1, 47, 0
1, 2877, Note_on_c, 1, 35, 0
1, 2879, Note_on_c, 0, 69, 0
1, 2880, Note_on_c, 0, 68, 82
1, 2895, Note_on_c, 0, 68, 0
1, 2896, Note_on_c, 0, 66, 85
1, 2911, Note_on_c, 0, 66, 0
1, 2912, Note_on_c, 0, 64, 85
1, 2927, Note_on_c, 0, 64, 0
1, 2928, Note_on_c, 0, 64, 85
1, 2928, Note_on_c, 1, 52, 77
1, 2943, Note_on_c, 1, 52, 0
1, 2944, Note_on_c, 1, 47, 77
1, 2959, Note_on_c, 1, 47, 0
1, 2960, Note_on_c, 1, 44, 77
1, 2973, Note_on_c, 0, 64, 0
1, 2975, Note_on_c, 1, 44, 0
1, 2976, Note_on_c, 1, 40, 77
1, 3021, Note_on_c, 1, 40, 0
1, 3072, Note_on_c, 0, 80, 84
1, 3120, Note_on_c, 1, 64, 60
1, 3120, Note_on_c, 1, 61, 60
1, 3168, Note_on_c, 1, 64, 0
1, 3168, Note_on_c, 1, 61, 0
1, 3168, Note_on_c, 1, 63, 60
1, 3168, Note_on_c, 1, 60, 60
1, 3191, Note_on_c, 0, 80, 0
1, 3192, Note_on_c, 0, 81, 68
1, 3198, Note_on_c, 0, 81, 0
1, 3198, Note_on_c, 0, 80, 68
1, 3204, Note_on_c, 0, 80, 0
1, 3204, Note_on_c, 0, 78, 68
1, 3210, Note_on_c, 0, 78, 0
1, 3210, Note_on_c, 0, 80, 68
1, 3213, Note_on_c, 1, 63, 0
1, 3213, Note_on_c, 1, 60, 0
1, 3216, Note_on_c, 0, 80, 0
1, 3216, Note_on_c, 0, 81, 68
1, 3216, Note_on_c, 1, 75, 60
1, 3216, Note_on_c, 1, 72, 60
1, 3250, Note_on_c, 0, 81, 0
1, 3252, Note_on_c, 0, 78, 68
1, 3261, Note_on_c, 1, 75, 0
1, 3261, Note_on_c, 1, 72, 0
1, 3264, Note_on_c, 0, 78, 0
1, 3264, Note_on_c, 0, 78, 84
1, 3312, Note_on_c, 1, 68, 60
1, 3312, Note_on_c, 1, 61, 60
1, 3357, Note_on_c, 1, 68, 0
1, 3357, Note_on_c, 1, 61, 0
1, 3360, Note_on_c, 0, 78, 0
1, 3360, Note_on_c, 0, 76, 68
1, 3360, Note_on_c, 1, 68, 60
1, 3360, Note_on_c, 1, 61, 60
1, 3366, Note_on_c, 0, 76, 0
1, 3366, Note_on_c, 0, 78, 68
1, 3372, Note_on_c, 0, 78, 0
1, 3372, Note_on_c, 0, 76, 68
1, 3405, Note_on_c, 1, 68, 0
1, 3405, Note_on_c, 1, 61, 0
1, 3406, Note_on_c, 0, 76, 0
1, 3408, Note_on_c, 0, 80, 68
1, 3408, Note_on_c, 1, 64, 60
1, 3442, Note_on_c, 0, 80, 0
1, 3444, Note_on_c, 0, 73, 68
1, 3453, Note_on_c, 1, 64, 0
1, 3456, Note_on_c, 0, 73, 0
1, 3456, Note_on_c, 0, 75, 68
1, 3456, Note_on_c, 1, 66, 60
1, 3501, Note_on_c, 1, 66, 0
1, 3504, Note_on_c, 1, 66, 60
1, 3549, Note_on_c, 1, 66, 0
1, 3552, Note_on_c, 1, 68, 60
1, 3589, Note_on_c, 0, 75, 0
1, 3597, Note_on_c, 1, 68, 0
1, 3600, Note_on_c, 0, 76, 68
1, 3600, Note_on_c, 1, 68, 60
1, 3634, Note_on_c, 0, 76, 0
1, 3636, Note_on_c, 0, 78, 68
1, 3645, Note_on_c, 1, 68, 0
1, 3648, Note_on_c, 0, 78, 0
1, 3648, Note_on_c, 0, 76, 68
1, 3648, Note_on_c, 1, 61, 60
1, 3660, Note_on_c, 0, 76, 0
1, 3660, Note_on_c, 0, 75, 68
1, 3672, Note_on_c, 0, 75, 0
1, 3672, Note_on_c, 0, 73, 68
1, 3693, Note_on_c, 1, 61, 0
1, 3695, Note_on_c, 0, 73, 0
1, 3712, Note_on_c, 0, 61, 85
1, 3712, Note_on_c, 1, 49, 85
1, 3727, Note_on_c, 0, 61, 0
1, 3727, Note_on_c, 1, 49, 0
1, 3728, Note_on_c, 0, 63, 85
1, 3728, Note_on_c, 1, 51, 85
1, 3743, Note_on_c, 0, 63, 0
1, 3743, Note_on_c, 1, 51, 0
1, 3744, Note_on_c, 0, 64, 85
1, 3744, Note_on_c, 1, 52, 85
1, 3759, Note_on_c, 0, 64, 0
1, 3759, Note_on_c, 1, 52, 0
1, 3760, Note_on_c, 0, 63, 85
1, 3760, Note_on_c, 1, 51, 85
1, 3775, Note_on_c, 0, 63, 0
1, 3775, Note_on_c, 1, 51, 0
1, 3776, Note_on_c, 0, 61, 85
1, 3776, Note_on_c, 1, 49, 85
1, 3791, Note_on_c, 0, 61, 0
1, 3791, Note_on_c, 1, 49, 0
1, 3792, Note_on_c, 0, 59, 85
1, 3792, Note_on_c, 1, 47, 85
1, 3807, Note_on_c, 0, 59, 0
1, 3807, Note_on_c, 1, 47, 0
1, 3808, Note_on_c, 0, 58, 85
1, 3808, Note_on_c, 1, 46, 85
1, 3823, Note_on_c, 0, 58, 0
1, 3823, Note_on_c, 1, 46, 0
1, 3824, Note_on_c, 0, 56, 85
1, 3824, Note_on_c, 1, 44, 85
1, 3839, Note_on_c, 0, 56, 0
1, 3839, Note_on_c, 1, 44, 0
1, 3840, Note_on_c, 0, 54, 85
1, 3840, Note_on_c, 1, 42, 85
1, 3885, Note_on_c, 0, 54, 0
1, 3885, Note_on_c, 1, 42, 0
1, 3888, Note_on_c, 0, 78, 77
1, 3936, Note_on_c, 1, 61, 68
1, 3936, Note_on_c, 1, 58, 68
1, 3959, Note_on_c, 0, 78, 0
1, 3960, Note_on_c, 0, 80, 77
1, 3966, Note_on_c, 0, 80, 0
1, 3966, Note_on_c, 0, 78, 77
1, 3972, Note_on_c, 0, 78, 0
1, 3972, Note_on_c, 0, 76, 77
1, 3978, Note_on_c, 0, 76, 0
1, 3978, Note_on_c, 0, 78, 77
1, 3981, Note_on_c, 1, 61, 0
1, 3981, Note_on_c, 1, 58, 0
1, 3984, Note_on_c, 0, 78, 0
1, 3984, Note_on_c, 0, 80, 77
1, 4018, Note_on_c, 0, 80, 0
1, 4020, Note_on_c, 0, 76, 77
1, 4032, Note_on_c, 0, 76, 0
1, 4032, Note_on_c, 0, 76, 93
1, 4080, Note_on_c, 1, 66, 68
1, 4080, Note_on_c, 1, 59, 77
1, 4125, Note_on_c, 1, 66, 0
1, 4125, Note_on_c, 1, 59, 0
1, 4128, Note_on_c, 0, 76, 0
1, 4128, Note_on_c, 0, 75, 77
1, 4128, Note_on_c, 1, 66, 68
1, 4128, Note_on_c, 1, 59, 77
1, 4134, Note_on_c, 0, 75, 0
1, 4134, Note_on_c, 0, 76, 77
1, 4140, Note_on_c, 0, 76, 0
1, 4140, Note_on_c, 0, 75, 77
1, 4173, Note_on_c, 1, 66, 0
1, 4173, Note_on_c, 1, 59, 0
1, 4174, Note_on_c, 0, 75, 0
1, 4176, Note_on_c, 0, 76, 77
1, 4176, Note_on_c, 1, 64, 68
1, 4176, Note_on_c, 1, 61, 77
1, 4210, Note_on_c, 0, 76, 0
1, 4212, Note_on_c, 0, 73, 77
1, 4221, Note_on_c, 1, 64, 0
1, 4221, Note_on_c, 1, 61, 0
1, 4224, Note_on_c, 0, 73, 0
1, 4224, Note_on_c, 0, 71, 77
1, 4224, Note_on_c, 1, 66, 68
1, 4224, Note_on_c, 1, 63, 77
1, 4239, Note_on_c, 0, 71, 0
1, 4240, Note_on_c, 0, 75, 78
1, 4255, Note_on_c, 0, 75, 0
1, 4256, Note_on_c, 0, 73, 79
1, 4271, Note_on_c, 0, 73, 0
1, 4272, Note_on_c, 0, 71, 80
1, 4287, Note_on_c, 0, 71, 0
1, 4288, Note_on_c, 0, 75, 81
1, 4303, Note_on_c, 0, 75, 0
1, 4304, Note_on_c, 0, 78, 82
1, 4313, Note_on_c, 1, 66, 0
1, 4313, Note_on_c, 1, 63, 0
1, 4319, Note_on_c, 0, 78, 0
1, 4320, Note_on_c, 0, 83, 83
1, 4335, Note_on_c, 0, 83, 0
1, 4336, Note_on_c, 0, 82, 84
1, 4351, Note_on_c, 0, 82, 0
1, 4352, Note_on_c, 0, 80, 85
1, 4367, Note_on_c, 0, 80, 0
1, 4368, Note_on_c, 0, 78, 84
1, 4368, Note_on_c, 1, 71, 68
1, 4368, Note_on_c, 1, 64, 77
1, 4383, Note_on_c, 0, 78, 0
1, 4384, Note_on_c, 0, 76, 83
1, 4399, Note_on_c, 0, 76, 0
1, 4400, Note_on_c, 0, 75, 82
1, 4413, Note_on_c, 1, 71, 0
1, 4413, Note_on_c, 1, 64, 0
1, 4415, Note_on_c, 0, 75, 0
1, 4416, Note_on_c, 0, 76, 77
1, 4416, Note_on_c, 1, 71, 68
1, 4416, Note_on_c, 1, 66, 77
1, 4424, Note_on_c, 0, 76, 0
1, 4424, Note_on_c, 0, 75, 77
1, 4432, Note_on_c, 0, 75, 0
1, 4432, Note_on_c, 0, 76, 77
1, 4440, Note_on_c, 0, 76, 0
1, 4440, Note_on_c, 0, 75, 77
1, 4448, Note_on_c, 0, 75, 0
1, 4448, Note_on_c, 0, 73, 77
1, 4456, Note_on_c, 0, 73, 0
1, 4456, Note_on_c, 0, 75, 77
1, 4461, Note_on_c, 1, 71, 0
1, 4464, Note_on_c, 0, 75, 0
1, 4464, Note_on_c, 0, 73, 77
1, 4464, Note_on_c, 1, 70, 68
1, 4505, Note_on_c, 1, 66, 0
1, 4509, Note_on_c, 0, 73, 0
1, 4509, Note_on_c, 1, 70, 0
1, 4512, Note_on_c, 1, 54, 77
1, 4527, Note_on_c, 1, 54, 0
1, 4528, Note_on_c, 1, 56, 77
1, 4543, Note_on_c, 1, 56, 0
1, 4544, Note_on_c, 1, 54, 77
1, 4559, Note_on_c, 1, 54, 0
1, 4560, Note_on_c, 1, 52, 77
1, 4575, Note_on_c, 1, 52, 0
1, 4576, Note_on_c, 1, 51, 77
1, 4591, Note_on_c, 1, 51, 0
1, 4592, Note_on_c, 1, 49, 77
1, 4607, Note_on_c, 1, 49, 0
1, 4608, Note_on_c, 1, 47, 72
1, 4624, Note_on_c, 0, 71, 85
1, 4639, Note_on_c, 0, 71, 0
1, 4640, Note_on_c, 0, 70, 85
1, 4655, Note_on_c, 0, 70, 0
1, 4656, Note_on_c, 0, 68, 85
1, 4671, Note_on_c, 0, 68, 0
1, 4672, Note_on_c, 0, 66, 85
1, 4687, Note_on_c, 0, 66, 0
1, 4688, Note_on_c, 0, 64, 85
1, 4697, Note_on_c, 1, 47, 0
1, 4703, Note_on_c, 0, 64, 0
1, 4704, Note_on_c, 0, 63, 85
1, 4719, Note_on_c, 0, 63, 0
1, 4720, Note_on_c, 0, 61, 85
1, 4735, Note_on_c, 0, 61, 0
1, 4736, Note_on_c, 0, 59, 85
1, 4751, Note_on_c, 0, 59, 0
1, 4752, Note_on_c, 0, 58, 85
1, 4752, Note_on_c, 1, 52, 77
1, 4767, Note_on_c, 0, 58, 0
1, 4768, Note_on_c, 0, 61, 85
1, 4772, Note_on_c, 1, 52, 0
1, 4783, Note_on_c, 0, 61, 0
1, 4784, Note_on_c, 0, 66, 85
1, 4799, Note_on_c, 0, 66, 0
1, 4800, Note_on_c, 0, 59, 85
1, 4800, Note_on_c, 1, 51, 77
1, 4815, Note_on_c, 0, 59, 0
1, 4816, Note_on_c, 0, 63, 85
1, 4820, Note_on_c, 1, 51, 0
1, 4831, Note_on_c, 0, 63, 0
1, 4832, Note_on_c, 0, 66, 85
1, 4847, Note_on_c, 0, 66, 0
1, 4848, Note_on_c, 0, 61, 85
1, 4848, Note_on_c, 1, 46, 77
1, 4863, Note_on_c, 0, 61, 0
1, 4864, Note_on_c, 0, 64, 85
1, 4868, Note_on_c, 1, 46, 0
1, 4879, Note_on_c, 0, 64, 0
1, 4880, Note_on_c, 0, 66, 85
1, 4895, Note_on_c, 0, 66, 0
1, 4896, Note_on_c, 0, 63, 85
1, 4896, Note_on_c, 1, 47, 77
1, 4911, Note_on_c, 0, 63, 0
1, 4912, Note_on_c, 0, 64, 85
1, 4916, Note_on_c, 1, 47, 0
1, 4927, Note_on_c, 0, 64, 0
1, 4928, Note_on_c, 0, 66, 85
1, 4943, Note_on_c, 0, 66, 0
1, 4944, Note_on_c, 0, 64, 85
1, 4944, Note_on_c, 1, 49, 77
1, 4959, Note_on_c, 0, 64, 0
1, 4960, Note_on_c, 0, 66, 85
1, 4964, Note_on_c, 1, 49, 0
1, 4975, Note_on_c, 0, 66, 0
1, 4976, Note_on_c, 0, 68, 85
1, 4991, Note_on_c, 0, 68, 0
1, 4992, Note_on_c, 0, 66, 85
1, 4992, Note_on_c, 1, 51, 77
1, 5007, Note_on_c, 0, 66, 0
1, 5008, Note_on_c, 0, 71, 85
1, 5023, Note_on_c, 0, 71, 0
1, 5024, Note_on_c, 0, 70, 85
1, 5039, Note_on_c, 0, 70, 0
1, 5040, Note_on_c, 0, 68, 85
1, 5055, Note_on_c, 0, 68, 0
1, 5056, Note_on_c, 0, 66, 85
1, 5071, Note_on_c, 0, 66, 0
1, 5072, Note_on_c, 0, 64, 85
1, 5081, Note_on_c, 1, 51, 0
1, 5087, Note_on_c, 0, 64, 0
1, 5088, Note_on_c, 0, 63, 85
1, 5103, Note_on_c, 0, 63, 0
1, 5104, Note_on_c, 0, 61, 85
1, 5119, Note_on_c, 0, 61, 0
1, 5120, Note_on_c, 0, 59, 85
1, 5135, Note_on_c, 0, 59, 0
1, 5136, Note_on_c, 0, 58, 85
1, 5136, Note_on_c, 1, 52, 77
1, 5151, Note_on_c, 0, 58, 0
1, 5152, Note_on_c, 0, 61, 85
1, 5156, Note_on_c, 1, 52, 0
1, 5167, Note_on_c, 0, 61, 0
1, 5168, Note_on_c, 0, 66, 85
1, 5183, Note_on_c, 0, 66, 0
1, 5184, Note_on_c, 0, 59, 85
1, 5184, Note_on_c, 1, 51, 77
1, 5199, Note_on_c, 0, 59, 0
1, 5200, Note_on_c, 0, 63, 85
1, 5204, Note_on_c, 1, 51, 0
1, 5215, Note_on_c, 0, 63, 0
1, 5216, Note_on_c, 0, 66, 85
1, 5231, Note_on_c, 0, 66, 0
1, 5232, Note_on_c, 0, 61, 85
1, 5232, Note_on_c, 1, 46, 77
1, 5247, Note_on_c, 0, 61, 0
1, 5248, Note_on_c, 0, 64, 85
1, 5252, Note_on_c, 1, 46, 0
1, 5263, Note_on_c, 0, 64, 0
1, 5264, Note_on_c, 0, 66, 85
1, 5279, Note_on_c, 0, 66, 0
1, 5280, Note_on_c, 0, 63, 85
1, 5280, Note_on_c, 1, 47, 77
1, 5295, Note_on_c, 0, 63, 0
1, 5296, Note_on_c, 0, 64, 85
1, 5300, Note_on_c, 1, 47, 0
1, 5311, Note_on_c, 0, 64, 0
1, 5312, Note_on_c, 0, 66, 85
1, 5327, Note_on_c, 0, 66, 0
1, 5328, Note_on_c, 0, 64, 85
1, 5328, Note_on_c, 1, 49, 77
1, 5343, Note_on_c, 0, 64, 0
1, 5344, Note_on_c, 0, 66, 85
1, 5348, Note_on_c, 1, 49, 0
1, 5359, Note_on_c, 0, 66, 0
1, 5360, Note_on_c, 0, 68, 85
1, 5375, Note_on_c, 0, 68, 0
1, 5376, Note_on_c, 0, 66, 85
1, 5376, Note_on_c, 1, 51, 77
1, 5391, Note_on_c, 0, 66, 0
1, 5392, Note_on_c, 0, 71, 84
1, 5407, Note_on_c, 0, 71, 0
1, 5408, Note_on_c, 0, 70, 84
1, 5423, Note_on_c, 0, 70, 0
1, 5424, Note_on_c, 0, 68, 83
1, 5439, Note_on_c, 0, 68, 0
1, 5440, Note_on_c, 0, 66, 83
1, 5455, Note_on_c, 0, 66, 0
1, 5456, Note_on_c, 0, 64, 82
1, 5465, Note_on_c, 1, 51, 0
1, 5471, Note_on_c, 0, 64, 0
1, 5472, Note_on_c, 0, 63, 82
1, 5487, Note_on_c, 0, 63, 0
1, 5488, Note_on_c, 0, 61, 81
1, 5503, Note_on_c, 0, 61, 0
1, 5504, Note_on_c, 0, 59, 81
1, 5519, Note_on_c, 0, 59, 0
1, 5520, Note_on_c, 0, 69, 80
1, 5535, Note_on_c, 0, 69, 0
1, 5536, Note_on_c, 0, 68, 80
1, 5551, Note_on_c, 0, 68, 0
1, 5552, Note_on_c, 0, 66, 79
1, 5567, Note_on_c, 0, 66, 0
1, 5568, Note_on_c, 0, 67, 93
1, 5616, Note_on_c, 1, 59, 68
1, 5616, Note_on_c, 1, 52, 68
1, 5661, Note_on_c, 1, 59, 0
1, 5661, Note_on_c, 1, 52, 0
1, 5664, Note_on_c, 0, 67, 0
1, 5664, Note_on_c, 0, 68, 77
1, 5664, Note_on_c, 1, 59, 68
1, 5664, Note_on_c, 1, 52, 68
1, 5684, Note_on_c, 0, 68, 0
1, 5709, Note_on_c, 1, 59, 0
1, 5709, Note_on_c, 1, 52, 0
1, 5712, Note_on_c, 0, 76, 77
1, 5727, Note_on_c, 0, 76, 0
1, 5728, Note_on_c, 0, 75, 77
1, 5743, Note_on_c, 0, 75, 0
1, 5744, Note_on_c, 0, 73, 77
1, 5759, Note_on_c, 0, 73, 0
1, 5760, Note_on_c, 0, 72, 93
1, 5808, Note_on_c, 1, 66, 68
1, 5808, Note_on_c, 1, 63, 68
1, 5856, Note_on_c, 0, 72, 0
1, 5856, Note_on_c, 0, 73, 77
1, 5856, Note_on_c, 1, 66, 0
1, 5856, Note_on_c, 1, 68, 68
1, 5856, Note_on_c, 1, 63, 0
1, 5856, Note_on_c, 1, 64, 68
1, 5876, Note_on_c, 0, 73, 0
1, 5901, Note_on_c, 1, 68, 0
1, 5901, Note_on_c, 1, 64, 0
1, 5904, Note_on_c, 0, 80, 77
1, 5919, Note_on_c, 0, 80, 0
1, 5920, Note_on_c, 0, 78, 77
1, 5935, Note_on_c, 0, 78, 0
1, 5936, Note_on_c, 0, 76, 77
1, 5951, Note_on_c, 0, 76, 0
1, 5952, Note_on_c, 0, 75, 93
1, 5952, Note_on_c, 0, 71, 93
1, 6000, Note_on_c, 1, 65, 68
1, 6048, Note_on_c, 0, 75, 0
1, 6048, Note_on_c, 0, 71, 0
1, 6048, Note_on_c, 0, 73, 77
1, 6048, Note_on_c, 0, 70, 77
1, 6048, Note_on_c, 1, 65, 0
1, 6048, Note_on_c, 1, 66, 68
1, 6093, Note_on_c, 0, 73, 0
1, 6093, Note_on_c, 0, 70, 0
1, 6093, Note_on_c, 1, 66, 0
1, 6144, Note_on_c, 0, 71, 85
1, 6144, Note_on_c, 1, 47, 85
1, 6147, Note_on_c, 0, 75, 85
1, 6150, Note_on_c, 0, 78, 85
1, 6153, Note_on_c, 0, 83, 85
1, 6159, Note_on_c, 1, 47, 0
1, 6160, Note_on_c, 1, 51, 85
1, 6175, Note_on_c, 1, 51, 0
1, 6176, Note_on_c, 1, 52, 85
1, 6191, Note_on_c, 1, 52, 0
1, 6192, Note_on_c, 1, 54, 85
1, 6207, Note_on_c, 1, 54, 0
1, 6208, Note_on_c, 1, 56, 85
1, 6223, Note_on_c, 1, 56, 0
1, 6224, Note_on_c, 1, 58, 85
1, 6237, Note_on_c, 0, 83, 0
1, 6237, Note_on_c, 0, 78, 0
1, 6237, Note_on_c, 0, 75, 0
1, 6237, Note_on_c, 0, 71, 0
1, 6239, Note_on_c, 1, 58, 0
1, 6240, Note_on_c, 1, 59, 85
1, 6255, Note_on_c, 1, 59, 0
1, 6256, Note_on_c, 1, 61, 85
1, 6271, Note_on_c, 1, 61, 0
1, 6272, Note_on_c, 1, 63, 85
1, 6287, Note_on_c, 1, 63, 0
1, 6288, Note_on_c, 0, 66, 85
1, 6288, Note_on_c, 1, 64, 85
1, 6303, Note_on_c, 0, 66, 0
1, 6304, Note_on_c, 0, 68, 85
1, 6319, Note_on_c, 0, 68, 0
1, 6320, Note_on_c, 0, 70, 85
1, 6335, Note_on_c, 0, 70, 0
1, 6336, Note_on_c, 0, 71, 85
1, 6336, Note_on_c, 1, 64, 0
1, 6336, Note_on_c, 1, 63, 85
1, 6351, Note_on_c, 0, 71, 0
1, 6352, Note_on_c, 0, 75, 85
1, 6367, Note_on_c, 0, 75, 0
1, 6368, Note_on_c, 0, 78, 85
1, 6383, Note_on_c, 0, 78, 0
1, 6384, Note_on_c, 0, 83, 85
1, 6399, Note_on_c, 0, 83, 0
1, 6400, Note_on_c, 0, 82, 85
1, 6415, Note_on_c, 0, 82, 0
1, 6416, Note_on_c, 0, 80, 85
1, 6425, Note_on_c, 1, 63, 0
1, 6431, Note_on_c, 0, 80, 0
1, 6432, Note_on_c, 0, 78, 85
1, 6447, Note_on_c, 0, 78, 0
1, 6448, Note_on_c, 0, 76, 85
1, 6463, Note_on_c, 0, 76, 0
1, 6464, Note_on_c, 0, 75, 85
1, 6479, Note_on_c, 0, 75, 0
1, 6480, Note_on_c, 0, 73, 85
1, 6480, Note_on_c, 1, 58, 85
1, 6480, Note_on_c, 1, 54, 85
1, 6495, Note_on_c, 0, 73, 0
1, 6496, Note_on_c, 0, 75, 85
1, 6511, Note_on_c, 0, 75, 0
1, 6512, Note_on_c, 0, 76, 85
1, 6525, Note_on_c, 1, 58, 0
1, 6525, Note_on_c, 1, 54, 0
1, 6527, Note_on_c, 0, 76, 0
1, 6528, Note_on_c, 0, 75, 85
1, 6528, Note_on_c, 1, 47, 85
1, 6543, Note_on_c, 1, 47, 0
1, 6544, Note_on_c, 1, 51, 85
1, 6559, Note_on_c, 1, 51, 0
1, 6560, Note_on_c, 1, 52, 85
1, 6575, Note_on_c, 1, 52, 0
1, 6576, Note_on_c, 1, 54, 85
1, 6591, Note_on_c, 1, 54, 0
1, 6592, Note_on_c, 1, 56, 85
1, 6607, Note_on_c, 1, 56, 0
1, 6608, Note_on_c, 1, 58, 85
1, 6617, Note_on_c, 0, 75, 0
1, 6623, Note_on_c, 1, 58, 0
1, 6624, Note_on_c, 1, 59, 85
1, 6639, Note_on_c, 1, 59, 0
1, 6640, Note_on_c, 1, 61, 85
1, 6655, Note_on_c, 1, 61, 0
1, 6656, Note_on_c, 1, 63, 85
1, 6671, Note_on_c, 1, 63, 0
1, 6672, Note_on_c, 0, 66, 85
1, 6672, Note_on_c, 1, 64, 85
1, 6687, Note_on_c, 0, 66, 0
1, 6688, Note_on_c, 0, 68, 85
1, 6703, Note_on_c, 0, 68, 0
1, 6704, Note_on_c, 0, 70, 85
1, 6719, Note_on_c, 0, 70, 0
1, 6720, Note_on_c, 0, 71, 85
1, 6720, Note_on_c, 1, 64, 0
1, 6720, Note_on_c, 1, 63, 85
1, 6735, Note_on_c, 0, 71, 0
1, 6736, Note_on_c, 0, 75, 85
1, 6751, Note_on_c, 0, 75, 0
1, 6752, Note_on_c, 0, 78, 85
1, 6767, Note_on_c, 0, 78, 0
1, 6768, Note_on_c, 0, 83, 85
1, 6783, Note_on_c, 0, 83, 0
1, 6784, Note_on_c, 0, 82, 85
1, 6799, Note_on_c, 0, 82, 0
1, 6800, Note_on_c, 0, 80, 85
1, 6809, Note_on_c, 1, 63, 0
1, 6815, Note_on_c, 0, 80, 0
1, 6816, Note_on_c, 0, 78, 85
1, 6861, Note_on_c, 0, 78, 0
1, 6864, Note_on_c, 0, 83, 77
1, 6864, Note_on_c, 1, 68, 77
1, 6879, Note_on_c, 0, 83, 0
1, 6879, Note_on_c, 1, 68, 0
1, 6880, Note_on_c, 0, 82, 77
1, 6880, Note_on_c, 1, 66, 77
1, 6895, Note_on_c, 0, 82, 0
1, 6895, Note_on_c, 1, 66, 0
1, 6896, Note_on_c, 0, 80, 77
1, 6896, Note_on_c, 1, 64, 77
1, 6911, Note_on_c, 0, 80, 0
1, 6911, Note_on_c, 1, 64, 0
1, 6912, Note_on_c, 0, 78, 77
1, 6912, Note_on_c, 1, 63, 77
1, 6927, Note_on_c, 0, 78, 0
1, 6927, Note_on_c, 1, 63, 0
1, 6928, Note_on_c, 0, 80, 77
1, 6928, Note_on_c, 1, 64, 77
1, 6943, Note_on_c, 0, 80, 0
1, 6943, Note_on_c, 1, 64, 0
1, 6944, Note_on_c, 0, 82, 77
1, 6944, Note_on_c, 1, 66, 77
1, 6959, Note_on_c, 0, 82, 0
1, 6959, Note_on_c, 1, 66, 0
1, 6960, Note_on_c, 0, 83, 78
1, 6960, Note_on_c, 1, 68, 77
1, 6975, Note_on_c, 0, 83, 0
1, 6975, Note_on_c, 1, 68, 0
1, 6976, Note_on_c, 0, 82, 78
1, 6976, Note_on_c, 1, 66, 77
1, 6991, Note_on_c, 0, 82, 0
1, 6991, Note_on_c, 1, 66, 0
1, 6992, Note_on_c, 0, 80, 78
1, 6992, Note_on_c, 1, 64, 77
1, 7007, Note_on_c, 0, 80, 0
1, 7007, Note_on_c, 1, 64, 0
1, 7008, Note_on_c, 0, 78, 79
1, 7008, Note_on_c, 1, 63, 77
1, 7023, Note_on_c, 0, 78, 0
1, 7023, Note_on_c, 1, 63, 0
1, 7024, Note_on_c, 0, 80, 79
1, 7024, Note_on_c, 1, 64, 77
1, 7039, Note_on_c, 0, 80, 0
1, 7039, Note_on_c, 1, 64, 0
1, 7040, Note_on_c, 0, 82, 79
1, 7040, Note_on_c, 1, 66, 77
1, 7055, Note_on_c, 0, 82, 0
1, 7055, Note_on_c, 1, 66, 0
1, 7056, Note_on_c, 0, 83, 80
1, 7056, Note_on_c, 1, 68, 77
1, 7071, Note_on_c, 0, 83, 0
1, 7071, Note_on_c, 1, 68, 0
1, 7072, Note_on_c, 0, 82, 80
1, 7072, Note_on_c, 1, 66, 77
1, 7087, Note_on_c, 0, 82, 0
1, 7087, Note_on_c, 1, 66, 0
1, 7088, Note_on_c, 0, 80, 80
1, 7088, Note_on_c, 1, 64, 77
1, 7103, Note_on_c, 0, 80, 0
1, 7103, Note_on_c, 1, 64, 0
1, 7104, Note_on_c, 0, 78, 81
1, 7104, Note_on_c, 1, 63, 77
1, 7119, Note_on_c, 0, 78, 0
1, 7120, Note_on_c, 0, 80, 81
1, 7135, Note_on_c, 0, 80, 0
1, 7136, Note_on_c, 0, 81, 81
1, 7149, Note_on_c, 1, 63, 0
1, 7151, Note_on_c, 0, 81, 0
1, 7152, Note_on_c, 0, 80, 82
1, 7152, Note_on_c, 1, 64, 77
1, 7167, Note_on_c, 0, 80, 0
1, 7168, Note_on_c, 0, 81, 82
1, 7183, Note_on_c, 0, 81, 0
1, 7184, Note_on_c, 0, 83, 82
1, 7197, Note_on_c, 1, 64, 0
1, 7199, Note_on_c, 0, 83, 0
1, 7200, Note_on_c, 0, 81, 85
1, 7200, Note_on_c, 1, 66, 77
1, 7245, Note_on_c, 1, 66, 0
1, 7248, Note_on_c, 1, 59, 77
1, 7289, Note_on_c, 0, 81, 0
1, 7293, Note_on_c, 1, 59, 0
1, 7296, Note_on_c, 0, 80, 85
1, 7296, Note_on_c, 1, 64, 77
1, 7311, Note_on_c, 0, 80, 0
1, 7312, Note_on_c, 0, 82, 85
1, 7327, Note_on_c, 0, 82, 0
1, 7328, Note_on_c, 0, 83, 85
1, 7343, Note_on_c, 0, 83, 0
1, 7344, Note_on_c, 0, 82, 85
1, 7359, Note_on_c, 0, 82, 0
1, 7360, Note_on_c, 0, 80, 85
1, 7375, Note_on_c, 0, 80, 0
1, 7376, Note_on_c, 0, 78, 85
1, 7385, Note_on_c, 1, 64, 0
1, 7391, Note_on_c, 0, 78, 0
1, 7392, Note_on_c, 0, 76, 85
1, 7407, Note_on_c, 0, 76, 0
1, 7408, Note_on_c, 0, 75, 85
1, 7423, Note_on_c, 0, 75, 0
1, 7424, Note_on_c, 0, 73, 85
1, 7439, Note_on_c, 0, 73, 0
1, 7440, Note_on_c, 0, 71, 85
1, 7455, Note_on_c, 0, 71, 0
1, 7456, Note_on_c, 0, 70, 85
1, 7471, Note_on_c, 0, 70, 0
1, 7472, Note_on_c, 0, 68, 85
1, 7487, Note_on_c, 0, 68, 0
1, 7488, Note_on_c, 0, 66, 85
1, 7536, Note_on_c, 1, 51, 77
1, 7577, Note_on_c, 0, 66, 0
1, 7581, Note_on_c, 1, 51, 0
1, 7584, Note_on_c, 0, 75, 81
1, 7584, Note_on_c, 1, 52, 77
1, 7592, Note_on_c, 0, 75, 0
1, 7592, Note_on_c, 0, 73, 80
1, 7600, Note_on_c, 0, 73, 0
1, 7600, Note_on_c, 0, 75, 80
1, 7608, Note_on_c, 0, 75, 0
1, 7608, Note_on_c, 0, 73, 80
1, 7616, Note_on_c, 0, 73, 0
1, 7616, Note_on_c, 0, 75, 80
1, 7624, Note_on_c, 0, 75, 0
1, 7624, Note_on_c, 0, 73, 79
1, 7629, Note_on_c, 1, 52, 0
1, 7632, Note_on_c, 0, 73, 0
1, 7632, Note_on_c, 0, 75, 79
1, 7632, Note_on_c, 1, 54, 77
1, 7640, Note_on_c, 0, 75, 0
1, 7640, Note_on_c, 0, 73, 79
1, 7648, Note_on_c, 0, 73, 0
1, 7648, Note_on_c, 0, 75, 79
1, 7656, Note_on_c, 0, 75, 0
1, 7656, Note_on_c, 0, 73, 78
1, 7664, Note_on_c, 0, 73, 0
1, 7664, Note_on_c, 0, 71, 78
1, 7672, Note_on_c, 0, 71, 0
1, 7672, Note_on_c, 0, 73, 78
1, 7677, Note_on_c, 1, 54, 0
1, 7680, Note_on_c, 0, 73, 0
1, 7680, Note_on_c, 0, 71, 77
1, 7680, Note_on_c, 1, 47, 77
1, 7695, Note_on_c, 1, 47, 0
1, 7696, Note_on_c, 1, 51, 77
1, 7711, Note_on_c, 1, 51, 0
1, 7712, Note_on_c, 1, 54, 77
1, 7727, Note_on_c, 1, 54, 0
1, 7728, Note_on_c, 1, 59, 77
1, 7743, Note_on_c, 1, 59, 0
1, 7744, Note_on_c, 1, 54, 77
1, 7759, Note_on_c, 1, 54, 0
1, 7760, Note_on_c, 1, 51, 77
1, 7769, Note_on_c, 0, 71, 0
1, 7775, Note_on_c, 1, 51, 0
1, 7776, Note_on_c, 1, 47, 77
1, 7821, Note_on_c, 1, 47, 0
1, 7824, Note_on_c, 0, 78, 77
1, 7824, Note_on_c, 1, 75, 68
1, 7839, Note_on_c, 0, 78, 0
1, 7840, Note_on_c, 0, 80, 77
1, 7855, Note_on_c, 0, 80, 0
1, 7856, Note_on_c, 0, 78, 77
1, 7869, Note_on_c, 1, 75, 0
1, 7871, Note_on_c, 0, 78, 0
1, 7872, Note_on_c, 0, 81, 77
1, 7872, Note_on_c, 1, 72, 68
1, 7887, Note_on_c, 0, 81, 0
1, 7888, Note_on_c, 0, 80, 77
1, 7903, Note_on_c, 0, 80, 0
1, 7904, Note_on_c, 0, 78, 77
1, 7919, Note_on_c, 0, 78, 0
1, 7920, Note_on_c, 0, 76, 77
1, 7920, Note_on_c, 1, 72, 0
1, 7920, Note_on_c, 1, 73, 68
1, 7935, Note_on_c, 0, 76, 0
1, 7936, Note_on_c, 0, 78, 77
1, 7951, Note_on_c, 0, 78, 0
1, 7952, Note_on_c, 0, 76, 77
1, 7965, Note_on_c, 1, 73, 0
1, 7967, Note_on_c, 0, 76, 0
1, 7968, Note_on_c, 0, 80, 77
1, 7968, Note_on_c, 1, 70, 68
1, 7983, Note_on_c, 0, 80, 0
1, 7984, Note_on_c, 0, 78, 77
1, 7999, Note_on_c, 0, 78, 0
1, 8000, Note_on_c, 0, 76, 77
1, 8015, Note_on_c, 0, 76, 0
1, 8016, Note_on_c, 0, 75, 77
1, 8016, Note_on_c, 1, 70, 0
1, 8016, Note_on_c, 1, 71, 68
1, 8031, Note_on_c, 0, 75, 0
1, 8032, Note_on_c, 0, 78, 77
1, 8047, Note_on_c, 0, 78, 0
1, 8048, Note_on_c, 0, 83, 77
1, 8061, Note_on_c, 1, 71, 0
1, 8063, Note_on_c, 0, 83, 0
1, 8064, Note_on_c, 0, 80, 77
1, 8064, Note_on_c, 1, 64, 68
1, 8079, Note_on_c, 0, 80, 0
1, 8080, Note_on_c, 0, 78, 78
1, 8095, Note_on_c, 0, 78, 0
1, 8096, Note_on_c, 0, 76, 79
1, 8109, Note_on_c, 1, 64, 0
1, 8111, Note_on_c, 0, 76, 0
1, 8112, Note_on_c, 0, 75, 80
1, 8112, Note_on_c, 1, 65, 71
1, 8127, Note_on_c, 0, 75, 0
1, 8128, Note_on_c, 0, 76, 81
1, 8143, Note_on_c, 0, 76, 0
1, 8144, Note_on_c, 0, 73, 82
1, 8157, Note_on_c, 1, 65, 0
1, 8159, Note_on_c, 0, 73, 0
1, 8160, Note_on_c, 0, 71, 85
1, 8160, Note_on_c, 1, 66, 74
1, 8205, Note_on_c, 0, 71, 0
1, 8205, Note_on_c, 1, 66, 0
1, 8208, Note_on_c, 0, 75, 85
1, 8208, Note_on_c, 1, 54, 77
1, 8220, Note_on_c, 0, 75, 0
1, 8220, Note_on_c, 0, 73, 85
1, 8232, Note_on_c, 0, 73, 0
1, 8232, Note_on_c, 0, 71, 85
1, 8244, Note_on_c, 0, 71, 0
1, 8244, Note_on_c, 0, 73, 85
1, 8253, Note_on_c, 1, 54, 0
1, 8256, Note_on_c, 0, 73, 0
1, 8256, Note_on_c, 0, 71, 82
1, 8256, Note_on_c, 1, 59, 77
1, 8271, Note_on_c, 1, 59, 0
1, 8272, Note_on_c, 1, 54, 77
1, 8287, Note_on_c, 1, 54, 0
1, 8288, Note_on_c, 1, 51, 77
1, 8303, Note_on_c, 1, 51, 0
1, 8304, Note_on_c, 1, 47, 77
1, 8319, Note_on_c, 1, 47, 0
1, 8320, Note_on_c, 1, 51, 77
1, 8335, Note_on_c, 1, 51, 0
1, 8336, Note_on_c, 1, 54, 77
1, 8345, Note_on_c, 0, 71, 0
1, 8351, Note_on_c, 1, 54, 0
1, 8352, Note_on_c, 1, 59, 77
1, 8372, Note_on_c, 1, 59, 0
1, 8400, Note_on_c, 0, 69, 77
1, 8400, Note_on_c, 0, 66, 77
1, 8400, Note_on_c, 1, 63, 68
1, 8445, Note_on_c, 0, 69, 0
1, 8445, Note_on_c, 0, 66, 0
1, 8445, Note_on_c, 1, 63, 0
1, 8448, Note_on_c, 0, 68, 77
1, 8448, Note_on_c, 0, 66, 77
1, 8448, Note_on_c, 1, 60, 68
1, 8493, Note_on_c, 0, 66, 0
1, 8496, Note_on_c, 0, 64, 77
1, 8496, Note_on_c, 1, 60, 0
1, 8496, Note_on_c, 1, 61, 68
1, 8541, Note_on_c, 1, 61, 0
1, 8544, Note_on_c, 0, 68, 0
1, 8544, Note_on_c, 0, 66, 77
1, 8544, Note_on_c, 1, 58, 68
1, 8589, Note_on_c, 0, 64, 0
1, 8592, Note_on_c, 0, 63, 77
1, 8592, Note_on_c, 1, 58, 0
1, 8592, Note_on_c, 1, 59, 68
1, 8633, Note_on_c, 0, 66, 0
1, 8637, Note_on_c, 0, 63, 0
1, 8637, Note_on_c, 1, 59, 0
1, 8640, Note_on_c, 0, 64, 93
1, 8640, Note_on_c, 1, 52, 68
1, 8648, Note_on_c, 0, 68, 93
1, 8648, Note_on_c, 1, 56, 68
1, 8656, Note_on_c, 0, 73, 93
1, 8656, Note_on_c, 1, 61, 68
1, 8688, Note_on_c, 0, 73, 0
1, 8688, Note_on_c, 0, 68, 0
1, 8688, Note_on_c, 0, 64, 0
1, 8688, Note_on_c, 0, 68, 77
1, 8703, Note_on_c, 0, 68, 0
1, 8704, Note_on_c, 0, 64, 77
1, 8719, Note_on_c, 0, 64, 0
1, 8720, Note_on_c, 0, 61, 77
1, 8733, Note_on_c, 1, 61, 0
1, 8733, Note_on_c, 1, 56, 0
1, 8733, Note_on_c, 1, 52, 0
1, 8735, Note_on_c, 0, 61, 0
1, 8736, Note_on_c, 0, 59, 77
1, 8736, Note_on_c, 1, 51, 68
1, 8736, Note_on_c, 1, 42, 68
1, 8781, Note_on_c, 0, 59, 0
1, 8781, Note_on_c, 1, 51, 0
1, 8784, Note_on_c, 0, 59, 77
1, 8784, Note_on_c, 1, 49, 68
1, 8790, Note_on_c, 0, 59, 0
1, 8790, Note_on_c, 0, 58, 77
1, 8796, Note_on_c, 0, 58, 0
1, 8796, Note_on_c, 0, 56, 77
1, 8802, Note_on_c, 0, 56, 0
1, 8802, Note_on_c, 0, 58, 77
1, 8825, Note_on_c, 1, 42, 0
1, 8829, Note_on_c, 0, 58, 0
1, 8829, Note_on_c, 1, 49, 0
1, 8832, Note_on_c, 0, 59, 77
1, 8832, Note_on_c, 1, 47, 68
1, 8847, Note_on_c, 0, 59, 0
1, 8848, Note_on_c, 0, 63, 77
1, 8863, Note_on_c, 0, 63, 0
1, 8864, Note_on_c, 0, 66, 77
1, 8879, Note_on_c, 0, 66, 0
1, 8880, Note_on_c, 0, 71, 77
1, 8895, Note_on_c, 0, 71, 0
1, 8896, Note_on_c, 0, 66, 77
1, 8911, Note_on_c, 0, 66, 0
1, 8912, Note_on_c, 0, 63, 77
1, 8921, Note_on_c, 1, 47, 0
1, 8927, Note_on_c, 0, 63, 0
1, 8928, Note_on_c, 1, 59, 68
1, 8943, Note_on_c, 1, 59, 0
1, 8944, Note_on_c, 1, 54, 68
1, 8959, Note_on_c, 1, 54, 0
1, 8960, Note_on_c, 1, 51, 68
1, 8975, Note_on_c, 1, 51, 0
1, 8976, Note_on_c, 1, 47, 68
1, 8991, Note_on_c, 1, 47, 0
1, 8992, Note_on_c, 1, 42, 68
1, 9007, Note_on_c, 1, 42, 0
1, 9008, Note_on_c, 1, 39, 68
1, 9023, Note_on_c, 1, 39, 0
1, 9024, Note_on_c, 1, 35, 68
1, 9091, Note_on_c, 1, 35, 0
1, 9216, Note_on_c, 0, 83, 93
1, 9216, Note_on_c, 0, 80, 77
1, 9264, Note_on_c, 1, 64, 77
1, 9309, Note_on_c, 1, 64, 0
1, 9312, Note_on_c, 1, 71, 77
1, 9349, Note_on_c, 0, 80, 0
1, 9360, Note_on_c, 0, 83, 0
1, 9360, Note_on_c, 0, 81, 77
1, 9360, Note_on_c, 0, 78, 77
1, 9405, Note_on_c, 0, 81, 0
1, 9405, Note_on_c, 0, 78, 0
1, 9408, Note_on_c, 0, 80, 77
1, 9408, Note_on_c, 0, 76, 77
1, 9445, Note_on_c, 1, 71, 0
1, 9456, Note_on_c, 1, 73, 77
1, 9497, Note_on_c, 0, 80, 0
1, 9501, Note_on_c, 1, 73, 0
1, 9504, Note_on_c, 0, 78, 77
1, 9504, Note_on_c, 1, 70, 77
1, 9541, Note_on_c, 0, 76, 0
1, 9549, Note_on_c, 1, 70, 0
1, 9552, Note_on_c, 0, 75, 77
1, 9552, Note_on_c, 1, 71, 77
1, 9593, Note_on_c, 0, 78, 0
1, 9597, Note_on_c, 0, 75, 0
1, 9600, Note_on_c, 0, 76, 77
1, 9600, Note_on_c, 1, 68, 77
1, 9645, Note_on_c, 1, 68, 0
1, 9648, Note_on_c, 1, 64, 77
1, 9667, Note_on_c, 0, 76, 0
1, 9672, Note_on_c, 0, 78, 80
1, 9684, Note_on_c, 0, 78, 0
1, 9684, Note_on_c, 0, 80, 80
1, 9693, Note_on_c, 1, 64, 0
1, 9696, Note_on_c, 0, 80, 0
1, 9696, Note_on_c, 0, 81, 81
1, 9696, Note_on_c, 1, 63, 77
1, 9741, Note_on_c, 0, 81, 0
1, 9741, Note_on_c, 1, 63, 0
1, 9744, Note_on_c, 0, 80, 83
1, 9744, Note_on_c, 1, 64, 77
1, 9777, Note_on_c, 1, 71, 0
1, 9789, Note_on_c, 0, 80, 0
1, 9789, Note_on_c, 1, 64, 0
1, 9792, Note_on_c, 0, 80, 85
1, 9792, Note_on_c, 1, 73, 77
1, 9792, Note_on_c, 1, 69, 77
1, 9800, Note_on_c, 0, 80, 0
1, 9800, Note_on_c, 0, 78, 84
1, 9808, Note_on_c, 0, 78, 0
1, 9808, Note_on_c, 0, 80, 84
1, 9816, Note_on_c, 0, 80, 0
1, 9816, Note_on_c, 0, 78, 83
1, 9824, Note_on_c, 0, 78, 0
1, 9824, Note_on_c, 0, 80, 83
1, 9832, Note_on_c, 0, 80, 0
1, 9832, Note_on_c, 0, 78, 82
1, 9837, Note_on_c, 1, 73, 0
1, 9837, Note_on_c, 1, 69, 0
1, 9840, Note_on_c, 0, 78, 0
1, 9840, Note_on_c, 0, 76, 82
1, 9840, Note_on_c, 1, 71, 77
1, 9840, Note_on_c, 1, 68, 77
1, 9885, Note_on_c, 0, 76, 0
1, 9885, Note_on_c, 1, 71, 0
1, 9885, Note_on_c, 1, 68, 0
1, 9984, Note_on_c, 0, 71, 93
1, 9984, Note_on_c, 0, 68, 77
1, 10032, Note_on_c, 1, 52, 77
1, 10077, Note_on_c, 1, 52, 0
1, 10080, Note_on_c, 1, 59, 77
1, 10117, Note_on_c, 0, 68, 0
1, 10128, Note_on_c, 0, 71, 0
1, 10128, Note_on_c, 0, 69, 77
1, 10128, Note_on_c, 0, 66, 77
1, 10173, Note_on_c, 0, 69, 0
1, 10173, Note_on_c, 0, 66, 0
1, 10176, Note_on_c, 0, 68, 77
1, 10176, Note_on_c, 0, 64, 77
1, 10213, Note_on_c, 1, 59, 0
1, 10224, Note_on_c, 1, 61, 77
1, 10265, Note_on_c, 0, 68, 0
1, 10269, Note_on_c, 1, 61, 0
1, 10272, Note_on_c, 0, 66, 77
1, 10272, Note_on_c, 1, 58, 77
1, 10309, Note_on_c, 0, 64, 0
1, 10317, Note_on_c, 1, 58, 0
1, 10320, Note_on_c, 0, 63, 77
1, 10320, Note_on_c, 1, 59, 77
1, 10361, Note_on_c, 0, 66, 0
1, 10365, Note_on_c, 0, 63, 0
1, 10368, Note_on_c, 0, 64, 77
1, 10368, Note_on_c, 1, 56, 77
1, 10413, Note_on_c, 1, 56, 0
1, 10416, Note_on_c, 1, 52, 77
1, 10435, Note_on_c, 0, 64, 0
1, 10440, Note_on_c, 0, 66, 80
1, 10452, Note_on_c, 0, 66, 0
1, 10452, Note_on_c, 0, 68, 80
1, 10461, Note_on_c, 1, 52, 0
1, 10464, Note_on_c, 0, 68, 0
1, 10464, Note_on_c, 0, 69, 81
1, 10464, Note_on_c, 1, 51, 77
1, 10509, Note_on_c, 0, 69, 0
1, 10509, Note_on_c, 1, 51, 0
1, 10512, Note_on_c, 0, 68, 83
1, 10512, Note_on_c, 1, 52, 77
1, 10545, Note_on_c, 1, 59, 0
1, 10557, Note_on_c, 0, 68, 0
1, 10557, Note_on_c, 1, 52, 0
1, 10560, Note_on_c, 0, 73, 85
1, 10560, Note_on_c, 0, 69, 85
1, 10560, Note_on_c, 0, 64, 85
1, 10560, Note_on_c, 1, 45, 77
1, 10580, Note_on_c, 0, 73, 0
1, 10580, Note_on_c, 0, 69, 0
1, 10580, Note_on_c, 0, 64, 0
1, 10580, Note_on_c, 1, 45, 0
1, 10608, Note_on_c, 0, 71, 85
1, 10608, Note_on_c, 0, 68, 85
1, 10608, Note_on_c, 0, 64, 85
1, 10608, Note_on_c, 1, 52, 77
1, 10628, Note_on_c, 0, 71, 0
1, 10628, Note_on_c, 0, 68, 0
1, 10628, Note_on_c, 0, 64, 0
1, 10628, Note_on_c, 1, 52, 0
1, 10752, Note_on_c, 0, 64, 77
1, 10764, Note_on_c, 0, 64, 0
1, 10764, Note_on_c, 0, 76, 77
1, 10800, Note_on_c, 1, 44, 68
1, 10800, Note_on_c, 1, 32, 68
1, 10845, Note_on_c, 1, 44, 0
1, 10845, Note_on_c, 1, 32, 0
1, 10848, Note_on_c, 1, 44, 68
1, 10848, Note_on_c, 1, 32, 68
1, 10863, Note_on_c, 0, 76, 0
1, 10864, Note_on_c, 0, 75, 77
1, 10879, Note_on_c, 0, 75, 0
1, 10880, Note_on_c, 0, 73, 77
1, 10893, Note_on_c, 1, 44, 0
1, 10893, Note_on_c, 1, 32, 0
1, 10895, Note_on_c, 0, 73, 0
1, 10896, Note_on_c, 0, 71, 77
1, 10911, Note_on_c, 0, 71, 0
1, 10912, Note_on_c, 0, 69, 77
1, 10927, Note_on_c, 0, 69, 0
1, 10928, Note_on_c, 0, 68, 77
1, 10943, Note_on_c, 0, 68, 0
1, 10944, Note_on_c, 0, 66, 77
1, 10964, Note_on_c, 0, 66, 0
1, 10992, Note_on_c, 1, 45, 68
1, 10992, Note_on_c, 1, 33, 68
1, 11037, Note_on_c, 1, 45, 0
1, 11037, Note_on_c, 1, 33, 0
1, 11040, Note_on_c, 1, 45, 68
1, 11040, Note_on_c, 1, 33, 68
1, 11056, Note_on_c, 0, 85, 77
1, 11071, Note_on_c, 0, 85, 0
1, 11072, Note_on_c, 0, 83, 77
1, 11085, Note_on_c, 1, 45, 0
1, 11085, Note_on_c, 1, 33, 0
1, 11087, Note_on_c, 0, 83, 0
1, 11088, Note_on_c, 0, 81, 77
1, 11103, Note_on_c, 0, 81, 0
1, 11104, Note_on_c, 0, 80, 77
1, 11119, Note_on_c, 0, 80, 0
1, 11120, Note_on_c, 0, 78, 77
1, 11135, Note_on_c, 0, 78, 0
1, 11136, Note_on_c, 0, 76, 77
1, 11151, Note_on_c, 0, 76, 0
1, 11152, Note_on_c, 0, 75, 77
1, 11167, Note_on_c, 0, 75, 0
1, 11168, Note_on_c, 0, 73, 77
1, 11183, Note_on_c, 0, 73, 0
1, 11184, Note_on_c, 0, 71, 77
1, 11184, Note_on_c, 1, 47, 68
1, 11184, Note_on_c, 1, 35, 68
1, 11199, Note_on_c, 0, 71, 0
1, 11200, Note_on_c, 0, 69, 77
1, 11215, Note_on_c, 0, 69, 0
1, 11216, Note_on_c, 0, 68, 77
1, 11229, Note_on_c, 1, 47, 0
1, 11229, Note_on_c, 1, 35, 0
1, 11231, Note_on_c, 0, 68, 0
1, 11232, Note_on_c, 0, 66, 77
1, 11232, Note_on_c, 1, 47, 68
1, 11232, Note_on_c, 1, 35, 68
1, 11247, Note_on_c, 0, 66, 0
1, 11248, Note_on_c, 0, 64, 78
1, 11263, Note_on_c, 0, 64, 0
1, 11264, Note_on_c, 0, 63, 79
1, 11277, Note_on_c, 1, 47, 0
1, 11277, Note_on_c, 1, 35, 0
1, 11279, Note_on_c, 0, 63, 0
1, 11280, Note_on_c, 0, 61, 80
1, 11280, Note_on_c, 1, 47, 68
1, 11280, Note_on_c, 1, 35, 68
1, 11295, Note_on_c, 0, 61, 0
1, 11296, Note_on_c, 0, 59, 81
1, 11311, Note_on_c, 0, 59, 0
1, 11312, Note_on_c, 0, 57, 82
1, 11325, Note_on_c, 1, 47, 0
1, 11325, Note_on_c, 1, 35, 0
1, 11327, Note_on_c, 0, 57, 0
1, 11328, Note_on_c, 0, 59, 85
1, 11373, Note_on_c, 0, 59, 0
1, 11376, Note_on_c, 0, 59, 82
1, 11376, Note_on_c, 1, 52, 68
1, 11376, Note_on_c, 1, 40, 68
1, 11384, Note_on_c, 0, 59, 0
1, 11384, Note_on_c, 0, 57, 82
1, 11392, Note_on_c, 0, 57, 0
1, 11392, Note_on_c, 0, 59, 81
1, 11400, Note_on_c, 0, 59, 0
1, 11400, Note_on_c, 0, 57, 81
1, 11408, Note_on_c, 0, 57, 0
1, 11408, Note_on_c, 0, 59, 81
1, 11416, Note_on_c, 0, 59, 0
1, 11416, Note_on_c, 0, 57, 80
1, 11421, Note_on_c, 1, 52, 0
1, 11421, Note_on_c, 1, 40, 0
1, 11424, Note_on_c, 0, 57, 0
1, 11424, Note_on_c, 0, 56, 80
1, 11424, Note_on_c, 1, 52, 68
1, 11424, Note_on_c, 1, 40, 68
1, 11469, Note_on_c, 0, 56, 0
1, 11469, Note_on_c, 1, 52, 0
1, 11469, Note_on_c, 1, 40, 0
1, 11472, Note_on_c, 1, 52, 68
1, 11472, Note_on_c, 1, 40, 68
1, 11517, Note_on_c, 1, 52, 0
1, 11517, Note_on_c, 1, 40, 0
1, 11520, Note_on_c, 0, 64, 77
1, 11532, Note_on_c, 0, 64, 0
1, 11532, Note_on_c, 0, 76, 77
1, 11568, Note_on_c, 1, 44, 68
1, 11568, Note_on_c, 1, 32, 68
1, 11613, Note_on_c, 1, 44, 0
1, 11613, Note_on_c, 1, 32, 0
1, 11616, Note_on_c, 1, 44, 68
1, 11616, Note_on_c, 1, 32, 68
1, 11631, Note_on_c, 0, 76, 0
1, 11632, Note_on_c, 0, 75, 77
1, 11647, Note_on_c, 0, 75, 0
1, 11648, Note_on_c, 0, 73, 77
1, 11661, Note_on_c, 1, 44, 0
1, 11661, Note_on_c, 1, 32, 0
1, 11663, Note_on_c, 0, 73, 0
1, 11664, Note_on_c, 0, 71, 77
1, 11679, Note_on_c, 0, 71, 0
1, 11680, Note_on_c, 0, 69, 77
1, 11695, Note_on_c, 0, 69, 0
1, 11696, Note_on_c, 0, 68, 77
1, 11711, Note_on_c, 0, 68, 0
1, 11712, Note_on_c, 0, 66, 77
1, 11732, Note_on_c, 0, 66, 0
1, 11760, Note_on_c, 1, 45, 68
1, 11760, Note_on_c, 1, 33, 68
1, 11805, Note_on_c, 1, 45, 0
1, 11805, Note_on_c, 1, 33, 0
1, 11808, Note_on_c, 1, 45, 68
1, 11808, Note_on_c, 1, 33, 68
1, 11824, Note_on_c, 0, 88, 77
1, 11839, Note_on_c, 0, 88, 0
1, 11840, Note_on_c, 0, 87, 77
1, 11853, Note_on_c, 1, 45, 0
1, 11853, Note_on_c, 1, 33, 0
1, 11855, Note_on_c, 0, 87, 0
1, 11856, Note_on_c, 0, 85, 77
1, 11871, Note_on_c, 0, 85, 0
1, 11872, Note_on_c, 0, 83, 77
1, 11887, Note_on_c, 0, 83, 0
1, 11888, Note_on_c, 0, 81, 77
1, 11903, Note_on_c, 0, 81, 0
1, 11904, Note_on_c, 0, 80, 77
1, 11919, Note_on_c, 0, 80, 0
1, 11920, Note_on_c, 0, 78, 77
1, 11935, Note_on_c, 0, 78, 0
1, 11936, Note_on_c, 0, 76, 77
1, 11951, Note_on_c, 0, 76, 0
1, 11952, Note_on_c, 0, 75, 77
1, 11952, Note_on_c, 1, 47, 68
1, 11952, Note_on_c, 1, 35, 68
1, 11967, Note_on_c, 0, 75, 0
1, 11968, Note_on_c, 0, 73, 77
1, 11983, Note_on_c, 0, 73, 0
1, 11984, Note_on_c, 0, 71, 77
1, 11997, Note_on_c, 1, 47, 0
1, 11997, Note_on_c, 1, 35, 0
1, 11999, Note_on_c, 0, 71, 0
1, 12000, Note_on_c, 0, 69, 77
1, 12000, Note_on_c, 1, 47, 68
1, 12000, Note_on_c, 1, 35, 68
1, 12015, Note_on_c, 0, 69, 0
1, 12016, Note_on_c, 0, 68, 77
1, 12031, Note_on_c, 0, 68, 0
1, 12032, Note_on_c, 0, 66, 78
1, 12045, Note_on_c, 1, 47, 0
1, 12045, Note_on_c, 1, 35, 0
1, 12047, Note_on_c, 0, 66, 0
1, 12048, Note_on_c, 0, 64, 79
1, 12048, Note_on_c, 1, 47, 68
1, 12048, Note_on_c, 1, 35, 68
1, 12063, Note_on_c, 0, 64, 0
1, 12064, Note_on_c, 0, 63, 80
1, 12079, Note_on_c, 0, 63, 0
1, 12080, Note_on_c, 0, 69, 81
1, 12093, Note_on_c, 1, 47, 0
1, 12093, Note_on_c, 1, 35, 0
1, 12095, Note_on_c, 0, 69, 0
1, 12096, Note_on_c, 0, 68, 82
1, 12111, Note_on_c, 0, 68, 0
1, 12112, Note_on_c, 0, 66, 85
1, 12127, Note_on_c, 0, 66, 0
1, 12128, Note_on_c, 0, 64, 85
1, 12143, Note_on_c, 0, 64, 0
1, 12144, Note_on_c, 0, 64, 85
1, 12144, Note_on_c, 1, 52, 77
1, 12159, Note_on_c, 1, 52, 0
1, 12160, Note_on_c, 1, 47, 77
1, 12175, Note_on_c, 1, 47, 0
1, 12176, Note_on_c, 1, 44, 77
1, 12189, Note_on_c, 0, 64, 0
1, 12191, Note_on_c, 1, 44, 0
1, 12192, Note_on_c, 1, 40, 77
1, 12237, Note_on_c, 1, 40, 0
1, 12288, Note_on_c, 0, 80, 84
1, 12336, Note_on_c, 1, 64, 60
1, 12336, Note_on_c, 1, 61, 60
1, 12384, Note_on_c, 1, 64, 0
1, 12384, Note_on_c, 1, 61, 0
1, 12384, Note_on_c, 1, 63, 60
1, 12384, Note_on_c, 1, 60, 60
1, 12407, Note_on_c, 0, 80, 0
1, 12408, Note_on_c, 0, 81, 68
1, 12414, Note_on_c, 0, 81, 0
1, 12414, Note_on_c, 0, 80, 68
1, 12420, Note_on_c, 0, 80, 0
1, 12420, Note_on_c, 0, 78, 68
1, 12426, Note_on_c, 0, 78, 0
1, 12426, Note_on_c, 0, 80, 68
1, 12429, Note_on_c, 1, 63, 0
1, 12429, Note_on_c, 1, 60, 0
1, 12432, Note_on_c, 0, 80, 0
1, 12432, Note_on_c, 0, 81, 68
1, 12432, Note_on_c, 1, 75, 60
1, 12432, Note_on_c, 1, 72, 60
1, 12466, Note_on_c, 0, 81, 0
1, 12468, Note_on_c, 0, 78, 68
1, 12477, Note_on_c, 1, 75, 0
1, 12477, Note_on_c, 1, 72, 0
1, 12480, Note_on_c, 0, 78, 0
1, 12480, Note_on_c, 0, 78, 84
1, 12528, Note_on_c, 1, 68, 60
1, 12528, Note_on_c, 1, 61, 60
1, 12573, Note_on_c, 1, 68, 0
1, 12573, Note_on_c, 1, 61, 0
1, 12576, Note_on_c, 0, 78, 0
1, 12576, Note_on_c, 0, 76, 68
1, 12576, Note_on_c, 1, 68, 60
1, 12576, Note_on_c, 1, 61, 60
1, 12582, Note_on_c, 0, 76, 0
1, 12582, Note_on_c, 0, 78, 68
1, 12588, Note_on_c, 0, 78, 0
1, 12588, Note_on_c, 0, 76, 68
1, 12621, Note_on_c, 1, 68, 0
1, 12621, Note_on_c, 1, 61, 0
1, 12622, Note_on_c, 0, 76, 0
1, 12624, Note_on_c, 0, 80, 68
1, 12624, Note_on_c, 1, 64, 60
1, 12658, Note_on_c, 0, 80, 0
1, 12660, Note_on_c, 0, 73, 68
1, 12669, Note_on_c, 1, 64, 0
1, 12672, Note_on_c, 0, 73, 0
1, 12672, Note_on_c, 0, 75, 68
1, 12672, Note_on_c, 1, 66, 60
1, 12717, Note_on_c, 1, 66, 0
1, 12720, Note_on_c, 1, 66, 60
1, 12765, Note_on_c, 1, 66, 0
1, 12768, Note_on_c, 1, 68, 60
1, 12805, Note_on_c, 0, 75, 0
1, 12813, Note_on_c, 1, 68, 0
1, 12816, Note_on_c, 0, 76, 68
1, 12816, Note_on_c, 1, 68, 60
1, 12850, Note_on_c, 0, 76, 0
1, 12852, Note_on_c, 0, 78, 68
1, 12861, Note_on_c, 1, 68, 0
1, 12864, Note_on_c, 0, 78, 0
1, 12864, Note_on_c, 0, 76, 68
1, 12864, Note_on_c, 1, 61, 60
1, 12876, Note_on_c, 0, 76, 0
1, 12876, Note_on_c, 0, 75, 68
1, 12888, Note_on_c, 0, 75, 0
1, 12888, Note_on_c, 0, 73, 68
1, 12909, Note_on_c, 1, 61, 0
1, 12911, Note_on_c, 0, 73, 0
1, 12928, Note_on_c, 0, 61, 85
1, 12928, Note_on_c, 1, 49, 85
1, 12943, Note_on_c, 0, 61, 0
1, 12943, Note_on_c, 1, 49, 0
1, 12944, Note_on_c, 0, 63, 85
1, 12944, Note_on_c, 1, 51, 85
1, 12959, Note_on_c, 0, 63, 0
1, 12959, Note_on_c, 1, 51, 0
1, 12960, Note_on_c, 0, 64, 85
1, 12960, Note_on_c, 1, 52, 85
1, 12975, Note_on_c, 0, 64, 0
1, 12975, Note_on_c, 1, 52, 0
1, 12976, Note_on_c, 0, 63, 85
1, 12976, Note_on_c, 1, 51, 85
1, 12991, Note_on_c, 0, 63, 0
1, 12991, Note_on_c, 1, 51, 0
1, 12992, Note_on_c, 0, 61, 85
1, 12992, Note_on_c, 1, 49, 85
1, 13007, Note_on_c, 0, 61, 0
1, 13007, Note_on_c, 1, 49, 0
1, 13008, Note_on_c, 0, 59, 85
1, 13008, Note_on_c, 1, 47, 85
1, 13023, Note_on_c, 0, 59, 0
1, 13023, Note_on_c, 1, 47, 0
1, 13024, Note_on_c, 0, 58, 85
1, 13024, Note_on_c, 1, 46, 85
1, 13039, Note_on_c, 0, 58, 0
1, 13039, Note_on_c, 1, 46, 0
1, 13040, Note_on_c, 0, 56, 85
1, 13040, Note_on_c, 1, 44, 85
1, 13055, Note_on_c, 0, 56, 0
1, 13055, Note_on_c, 1, 44, 0
1, 13056, Note_on_c, 0, 54, 85
1, 13056, Note_on_c, 1, 42, 85
1, 13101, Note_on_c, 0, 54, 0
1, 13101, Note_on_c, 1, 42, 0
1, 13104, Note_on_c, 0, 78, 77
1, 13152, Note_on_c, 1, 61, 68
1, 13152, Note_on_c, 1, 58, 68
1, 13175, Note_on_c, 0, 78, 0
1, 13176, Note_on_c, 0, 80, 77
1, 13182, Note_on_c, 0, 80, 0
1, 13182, Note_on_c, 0, 78, 77
1, 13188, Note_on_c, 0, 78, 0
1, 13188, Note_on_c, 0, 76, 77
1, 13194, Note_on_c, 0, 76, 0
1, 13194, Note_on_c, 0, 78, 77
1, 13197, Note_on_c, 1, 61, 0
1, 13197, Note_on_c, 1, 58, 0
1, 13200, Note_on_c, 0, 78, 0
1, 13200, Note_on_c, 0, 80, 77
1, 13234, Note_on_c, 0, 80, 0
1, 13236, Note_on_c, 0, 76, 77
1, 13248, Note_on_c, 0, 76, 0
1, 13248, Note_on_c, 0, 76, 93
1, 13296, Note_on_c, 1, 66, 68
1, 13296, Note_on_c, 1, 59, 77
1, 13341, Note_on_c, 1, 66, 0
1, 13341, Note_on_c, 1, 59, 0
1, 13344, Note_on_c, 0, 76, 0
1, 13344, Note_on_c, 0, 75, 77
1, 13344, Note_on_c, 1, 66, 68
1, 13344, Note_on_c, 1, 59, 77
1, 13350, Note_on_c, 0, 75, 0
1, 13350, Note_on_c, 0, 76, 77
1, 13356, Note_on_c, 0, 76, 0
1, 13356, Note_on_c, 0, 75, 77
1, 13389, Note_on_c, 1, 66, 0
1, 13389, Note_on_c, 1, 59, 0
1, 13390, Note_on_c, 0, 75, 0
1, 13392, Note_on_c, 0, 76, 77
1, 13392, Note_on_c, 1, 64, 68
1, 13392, Note_on_c, 1, 61, 77
1, 13426, Note_on_c, 0, 76, 0
1, 13428, Note_on_c, 0, 73, 77
1, 13437, Note_on_c, 1, 64, 0
1, 13437, Note_on_c, 1, 61, 0
1, 13440, Note_on_c, 0, 73, 0
1, 13440, Note_on_c, 0, 71, 77
1, 13440, Note_on_c, 1, 66, 68
1, 13440, Note_on_c, 1, 63, 77
1, 13455, Note_on_c, 0, 71, 0
1, 13456, Note_on_c, 0, 75, 78
1, 13471, Note_on_c, 0, 75, 0
1, 13472, Note_on_c, 0, 73, 79
1, 13487, Note_on_c, 0, 73, 0
1, 13488, Note_on_c, 0, 71, 80
1, 13503, Note_on_c, 0, 71, 0
1, 13504, Note_on_c, 0, 75, 81
1, 13519, Note_on_c, 0, 75, 0
1, 13520, Note_on_c, 0, 78, 82
1, 13529, Note_on_c, 1, 66, 0
1, 13529, Note_on_c, 1, 63, 0
1, 13535, Note_on_c, 0, 78, 0
1, 13536, Note_on_c, 0, 83, 83
1, 13551, Note_on_c, 0, 83, 0
1, 13552, Note_on_c, 0, 82, 84
1, 13567, Note_on_c, 0, 82, 0
1, 13568, Note_on_c, 0, 80, 85
1, 13583, Note_on_c, 0, 80, 0
1, 13584, Note_on_c, 0, 78, 84
1, 13584, Note_on_c, 1, 71, 68
1, 13584, Note_on_c, 1, 64, 77
1, 13599, Note_on_c, 0, 78, 0
1, 13600, Note_on_c, 0, 76, 83
1, 13615, Note_on_c, 0, 76, 0
1, 13616, Note_on_c, 0, 75, 82
1, 13629, Note_on_c, 1, 71, 0
1, 13629, Note_on_c, 1, 64, 0
1, 13631, Note_on_c, 0, 75, 0
1, 13632, Note_on_c, 0, 76, 77
1, 13632, Note_on_c, 1, 71, 68
1, 13632, Note_on_c, 1, 66, 77
1, 13640, Note_on_c, 0, 76, 0
1, 13640, Note_on_c, 0, 75, 77
1, 13648, Note_on_c, 0, 75, 0
1, 13648, Note_on_c, 0, 76, 77
1, 13656, Note_on_c, 0, 76, 0
1, 13656, Note_on_c, 0, 75, 77
1, 13664, Note_on_c, 0, 75, 0
1, 13664, Note_on_c, 0, 73, 77
1, 13672, Note_on_c, 0, 73, 0
1, 13672, Note_on_c, 0, 75, 77
1, 13677, Note_on_c, 1, 71, 0
1, 13680, Note_on_c, 0, 75, 0
1, 13680, Note_on_c, 0, 73, 77
1, 13680, Note_on_c, 1, 70, 68
1, 13721, Note_on_c, 1, 66, 0
1, 13725, Note_on_c, 0, 73, 0
1, 13725, Note_on_c, 1, 70, 0
1, 13728, Note_on_c, 1, 54, 77
1, 13743, Note_on_c, 1, 54, 0
1, 13744, Note_on_c, 1, 56, 77
1, 13759, Note_on_c, 1, 56, 0
1, 13760, Note_on_c, 1, 54, 77
1, 13775, Note_on_c, 1, 54, 0
1, 13776, Note_on_c, 1, 52, 77
1, 13791, Note_on_c, 1, 52, 0
1, 13792, Note_on_c, 1, 51, 77
1, 13807, Note_on_c, 1, 51, 0
1, 13808, Note_on_c, 1, 49, 77
1, 13823, Note_on_c, 1, 49, 0
1, 13824, Note_on_c, 1, 47, 72
1, 13840, Note_on_c, 0, 71, 85
1, 13855, Note_on_c, 0, 71, 0
1, 13856, Note_on_c, 0, 70, 85
1, 13871, Note_on_c, 0, 70, 0
1, 13872, Note_on_c, 0, 68, 85
1, 13887, Note_on_c, 0, 68, 0
1, 13888, Note_on_c, 0, 66, 85
1, 13903, Note_on_c, 0, 66, 0
1, 13904, Note_on_c, 0, 64, 85
1, 13913, Note_on_c, 1, 47, 0
1, 13919, Note_on_c, 0, 64, 0
1, 13920, Note_on_c, 0, 63, 85
1, 13935, Note_on_c, 0, 63, 0
1, 13936, Note_on_c, 0, 61, 85
1, 13951, Note_on_c, 0, 61, 0
1, 13952, Note_on_c, 0, 59, 85
1, 13967, Note_on_c, 0, 59, 0
1, 13968, Note_on_c, 0, 58, 85
1, 13968, Note_on_c, 1, 52, 77
1, 13983, Note_on_c, 0, 58, 0
1, 13984, Note_on_c, 0, 61, 85
1, 13988, Note_on_c, 1, 52, 0
1, 13999, Note_on_c, 0, 61, 0
1, 14000, Note_on_c, 0, 66, 85
1, 14015, Note_on_c, 0, 66, 0
1, 14016, Note_on_c, 0, 59, 85
1, 14016, Note_on_c, 1, 51, 77
1, 14031, Note_on_c, 0, 59, 0
1, 14032, Note_on_c, 0, 63, 85
1, 14036, Note_on_c, 1, 51, 0
1, 14047, Note_on_c, 0, 63, 0
1, 14048, Note_on_c, 0, 66, 85
1, 14063, Note_on_c, 0, 66, 0
1, 14064, Note_on_c, 0, 61, 85
1, 14064, Note_on_c, 1, 46, 77
1, 14079, Note_on_c, 0, 61, 0
1, 14080, Note_on_c, 0, 64, 85
1, 14084, Note_on_c, 1, 46, 0
1, 14095, Note_on_c, 0, 64, 0
1, 14096, Note_on_c, 0, 66, 85
1, 14111, Note_on_c, 0, 66, 0
1, 14112, Note_on_c, 0, 63, 85
1, 14112, Note_on_c, 1, 47, 77
1, 14127, Note_on_c, 0, 63, 0
1, 14128, Note_on_c, 0, 64, 85
1, 14132, Note_on_c, 1, 47, 0
1, 14143, Note_on_c, 0, 64, 0
1, 14144, Note_on_c, 0, 66, 85
1, 14159, Note_on_c, 0, 66, 0
1, 14160, Note_on_c, 0, 64, 85
1, 14160, Note_on_c, 1, 49, 77
1, 14175, Note_on_c, 0, 64, 0
1, 14176, Note_on_c, 0, 66, 85
1, 14180, Note_on_c, 1, 49, 0
1, 14191, Note_on_c, 0, 66, 0
1, 14192, Note_on_c, 0, 68, 85
1, 14207, Note_on_c, 0, 68, 0
1, 14208, Note_on_c, 0, 66, 85
1, 14208, Note_on_c, 1, 51, 77
1, 14223, Note_on_c, 0, 66, 0
1, 14224, Note_on_c, 0, 71, 85
1, 14239, Note_on_c, 0, 71, 0
1, 14240, Note_on_c, 0, 70, 85
1, 14255, Note_on_c, 0, 70, 0
1, 14256, Note_on_c, 0, 68, 85
1, 14271, Note_on_c, 0, 68, 0
1, 14272, Note_on_c, 0, 66, 85
1, 14287, Note_on_c, 0, 66, 0
1, 14288, Note_on_c, 0, 64, 85
1, 14297, Note_on_c, 1, 51, 0
1, 14303, Note_on_c, 0, 64, 0
1, 14304, Note_on_c, 0, 63, 85
1, 14319, Note_on_c, 0, 63, 0
1, 14320, Note_on_c, 0, 61, 85
1, 14335, Note_on_c, 0, 61, 0
1, 14336, Note_on_c, 0, 59, 85
1, 14351, Note_on_c, 0, 59, 0
1, 14352, Note_on_c, 0, 58, 85
1, 14352, Note_on_c, 1, 52, 77
1, 14367, Note_on_c, 0, 58, 0
1, 14368, Note_on_c, 0, 61, 85
1, 14372, Note_on_c, 1, 52, 0
1, 14383, Note_on_c, 0, 61, 0
1, 14384, Note_on_c, 0, 66, 85
1, 14399, Note_on_c, 0, 66, 0
1, 14400, Note_on_c, 0, 59, 85
1, 14400, Note_on_c, 1, 51, 77
1, 14415, Note_on_c, 0, 59, 0
1, 14416, Note_on_c, 0, 63, 85
1, 14420, Note_on_c, 1, 51, 0
1, 14431, Note_on_c, 0, 63, 0
1, 14432, Note_on_c, 0, 66, 85
1, 14447, Note_on_c, 0, 66, 0
1, 14448, Note_on_c, 0, 61, 85
1, 14448, Note_on_c, 1, 46, 77
1, 14463, Note_on_c, 0, 61, 0
1, 14464, Note_on_c, 0, 64, 85
1, 14468, Note_on_c, 1, 46, 0
1, 14479, Note_on_c, 0, 64, 0
1, 14480, Note_on_c, 0, 66, 85
1, 14495, Note_on_c, 0, 66, 0
1, 14496, Note_on_c, 0, 63, 85
1, 14496, Note_on_c, 1, 47, 77
1, 14511, Note_on_c, 0, 63, 0
1, 14512, Note_on_c, 0, 64, 85
1, 14516, Note_on_c, 1, 47, 0
1, 14527, Note_on_c, 0, 64, 0
1, 14528, Note_on_c, 0, 66, 85
1, 14543, Note_on_c, 0, 66, 0
1, 14544, Note_on_c, 0, 64, 85
1, 14544, Note_on_c, 1, 49, 77
1, 14559, Note_on_c, 0, 64, 0
1, 14560, Note_on_c, 0, 66, 85
1, 14564, Note_on_c, 1, 49, 0
1, 14575, Note_on_c, 0, 66, 0
1, 14576, Note_on_c, 0, 68, 85
1, 14591, Note_on_c, 0, 68, 0
1, 14592, Note_on_c, 0, 66, 85
1, 14592, Note_on_c, 1, 51, 77
1, 14607, Note_on_c, 0, 66, 0
1, 14608, Note_on_c, 0, 71, 84
1, 14623, Note_on_c, 0, 71, 0
1, 14624, Note_on_c, 0, 70, 84
1, 14639, Note_on_c, 0, 70, 0
1, 14640, Note_on_c, 0, 68, 83
1, 14655, Note_on_c, 0, 68, 0
1, 14656, Note_on_c, 0, 66, 83
1, 14671, Note_on_c, 0, 66, 0
1, 14672, Note_on_c, 0, 64, 82
1, 14681, Note_on_c, 1, 51, 0
1, 14687, Note_on_c, 0, 64, 0
1, 14688, Note_on_c, 0, 63, 82
1, 14703, Note_on_c, 0, 63, 0
1, 14704, Note_on_c, 0, 61, 81
1, 14719, Note_on_c, 0, 61, 0
1, 14720, Note_on_c, 0, 59, 81
1, 14735, Note_on_c, 0, 59, 0
1, 14736, Note_on_c, 0, 69, 80
1, 14751, Note_on_c, 0, 69, 0
1, 14752, Note_on_c, 0, 68, 80
1, 14767, Note_on_c, 0, 68, 0
1, 14768, Note_on_c, 0, 66, 79
1, 14783, Note_on_c, 0, 66, 0
1, 14784, Note_on_c, 0, 67, 93
1, 14832, Note_on_c, 1, 59, 68
1, 14832, Note_on_c, 1, 52, 68
1, 14877, Note_on_c, 1, 59, 0
1, 14877, Note_on_c, 1, 52, 0
1, 14880, Note_on_c, 0, 67, 0
1, 14880, Note_on_c, 0, 68, 77
1, 14880, Note_on_c, 1, 59, 68
1, 14880, Note_on_c, 1, 52, 68
1, 14900, Note_on_c, 0, 68, 0
1, 14925, Note_on_c, 1, 59, 0
1, 14925, Note_on_c, 1, 52, 0
1, 14928, Note_on_c, 0, 76, 77
1, 14943, Note_on_c, 0, 76, 0
1, 14944, Note_on_c, 0, 75, 77
1, 14959, Note_on_c, 0, 75, 0
1, 14960, Note_on_c, 0, 73, 77
1, 14975, Note_on_c, 0, 73, 0
1, 14976, Note_on_c, 0, 72, 93
1, 15024, Note_on_c, 1, 66, 68
1, 15024, Note_on_c, 1, 63, 68
1, 15072, Note_on_c, 0, 72, 0
1, 15072, Note_on_c, 0, 73, 77
1, 15072, Note_on_c, 1, 66, 0
1, 15072, Note_on_c, 1, 68, 68
1, 15072, Note_on_c, 1, 63, 0
1, 15072, Note_on_c, 1, 64, 68
1, 15092, Note_on_c, 0, 73, 0
1, 15117, Note_on_c, 1, 68, 0
1, 15117, Note_on_c, 1, 64, 0
1, 15120, Note_on_c, 0, 80, 77
1, 15135, Note_on_c, 0, 80, 0
1, 15136, Note_on_c, 0, 78, 77
1, 15151, Note_on_c, 0, 78, 0
1, 15152, Note_on_c, 0, 76, 77
1, 15167, Note_on_c, 0, 76, 0
1, 15168, Note_on_c, 0, 75, 93
1, 15168, Note_on_c, 0, 71, 93
1, 15216, Note_on_c, 1, 65, 68
1, 15264, Note_on_c, 0, 75, 0
1, 15264, Note_on_c, 0, 71, 0
1, 15264, Note_on_c, 0, 73, 77
1, 15264, Note_on_c, 0, 70, 77
1, 15264, Note_on_c, 1, 65, 0
1, 15264, Note_on_c, 1, 66, 68
1, 15309, Note_on_c, 0, 73, 0
1, 15309, Note_on_c, 0, 70, 0
1, 15309, Note_on_c, 1, 66, 0
1, 15360, Note_on_c, 0, 71, 85
1, 15360, Note_on_c, 1, 47, 85
1, 15363, Note_on_c, 0, 75, 85
1, 15366, Note_on_c, 0, 78, 85
1, 15369, Note_on_c, 0, 83, 85
1, 15375, Note_on_c, 1, 47, 0
1, 15376, Note_on_c, 1, 51, 85
1, 15391, Note_on_c, 1, 51, 0
1, 15392, Note_on_c, 1, 52, 85
1, 15407, Note_on_c, 1, 52, 0
1, 15408, Note_on_c, 1, 54, 85
1, 15423, Note_on_c, 1, 54, 0
1, 15424, Note_on_c, 1, 56, 85
1, 15439, Note_on_c, 1, 56, 0
1, 15440, Note_on_c, 1, 58, 85
1, 15453, Note_on_c, 0, 83, 0
1, 15453, Note_on_c, 0, 78, 0
1, 15453, Note_on_c, 0, 75, 0
1, 15453, Note_on_c, 0, 71, 0
1, 15455, Note_on_c, 1, 58, 0
1, 15456, Note_on_c, 1, 59, 85
1, 15471, Note_on_c, 1, 59, 0
1, 15472, Note_on_c, 1, 61, 85
1, 15487, Note_on_c, 1, 61, 0
1, 15488, Note_on_c, 1, 63, 85
1, 15503, Note_on_c, 1, 63, 0
1, 15504, Note_on_c, 0, 66, 85
1, 15504, Note_on_c, 1, 64, 85
1, 15519, Note_on_c, 0, 66, 0
1, 15520, Note_on_c, 0, 68, 85
1, 15535, Note_on_c, 0, 68, 0
1, 15536, Note_on_c, 0, 70, 85
1, 15551, Note_on_c, 0, 70, 0
1, 15552, Note_on_c, 0, 71, 85
1, 15552, Note_on_c, 1, 64, 0
1, 15552, Note_on_c, 1, 63, 85
1, 15567, Note_on_c, 0, 71, 0
1, 15568, Note_on_c, 0, 75, 85
1, 15583, Note_on_c, 0, 75, 0
1, 15584, Note_on_c, 0, 78, 85
1, 15599, Note_on_c, 0, 78, 0
1, 15600, Note_on_c, 0, 83, 85
1, 15615, Note_on_c, 0, 83, 0
1, 15616, Note_on_c, 0, 82, 85
1, 15631, Note_on_c, 0, 82, 0
1, 15632, Note_on_c, 0, 80, 85
1, 15641, Note_on_c, 1, 63, 0
1, 15647, Note_on_c, 0, 80, 0
1, 15648, Note_on_c, 0, 78, 85
1, 15663, Note_on_c, 0, 78, 0
1, 15664, Note_on_c, 0, 76, 85
1, 15679, Note_on_c, 0, 76, 0
1, 15680, Note_on_c, 0, 75, 85
1, 15695, Note_on_c, 0, 75, 0
1, 15696, Note_on_c, 0, 73, 85
1, 15696, Note_on_c, 1, 58, 85
1, 15696, Note_on_c, 1, 54, 85
1, 15711, Note_on_c, 0, 73, 0
1, 15712, Note_on_c, 0, 75, 85
1, 15727, Note_on_c, 0, 75, 0
1, 15728, Note_on_c, 0, 76, 85
1, 15741, Note_on_c, 1, 58, 0
1, 15741, Note_on_c, 1, 54, 0
1, 15743, Note_on_c, 0, 76, 0
1, 15744, Note_on_c, 0, 75, 85
1, 15744, Note_on_c, 1, 47, 85
1, 15759, Note_on_c, 1, 47, 0
1, 15760, Note_on_c, 1, 51, 85
1, 15775, Note_on_c, 1, 51, 0
1, 15776, Note_on_c, 1, 52, 85
1, 15791, Note_on_c, 1, 52, 0
1, 15792, Note_on_c, 1, 54, 85
1, 15807, Note_on_c, 1, 54, 0
1, 15808, Note_on_c, 1, 56, 85
1, 15823, Note_on_c, 1, 56, 0
1, 15824, Note_on_c, 1, 58, 85
1, 15833, Note_on_c, 0, 75, 0
1, 15839, Note_on_c, 1, 58, 0
1, 15840, Note_on_c, 1, 59, 85
1, 15855, Note_on_c, 1, 59, 0
1, 15856, Note_on_c, 1, 61, 85
1, 15871, Note_on_c, 1, 61, 0
1, 15872, Note_on_c, 1, 63, 85
1, 15887, Note_on_c, 1, 63, 0
1, 15888, Note_on_c, 0, 66, 85
1, 15888, Note_on_c, 1, 64, 85
1, 15903, Note_on_c, 0, 66, 0
1, 15904, Note_on_c, 0, 68, 85
1, 15919, Note_on_c, 0, 68, 0
1, 15920, Note_on_c, 0, 70, 85
1, 15935, Note_on_c, 0, 70, 0
1, 15936, Note_on_c, 0, 71, 85
1, 15936, Note_on_c, 1, 64, 0
1, 15936, Note_on_c, 1, 63, 85
1, 15951, Note_on_c, 0, 71, 0
1, 15952, Note_on_c, 0, 75, 85
1, 15967, Note_on_c, 0, 75, 0
1, 15968, Note_on_c, 0, 78, 85
1, 15983, Note_on_c, 0, 78, 0
1, 15984, Note_on_c, 0, 83, 85
1, 15999, Note_on_c, 0, 83, 0
1, 16000, Note_on_c, 0, 82, 85
1, 16015, Note_on_c, 0, 82, 0
1, 16016, Note_on_c, 0, 80, 85
1, 16025, Note_on_c, 1, 63, 0
1, 16031, Note_on_c, 0, 80, 0
1, 16032, Note_on_c, 0, 78, 85
1, 16077, Note_on_c, 0, 78, 0
1, 16080, Note_on_c, 0, 83, 77
1, 16080, Note_on_c, 1, 68, 77
1, 16095, Note_on_c, 0, 83, 0
1, 16095, Note_on_c, 1, 68, 0
1, 16096, Note_on_c, 0, 82, 77
1, 16096, Note_on_c, 1, 66, 77
1, 16111, Note_on_c, 0, 82, 0
1, 16111, Note_on_c, 1, 66, 0
1, 16112, Note_on_c, 0, 80, 77
1, 16112, Note_on_c, 1, 64, 77
1, 16127, Note_on_c, 0, 80, 0
1, 16127, Note_on_c, 1, 64, 0
1, 16128, Note_on_c, 0, 78, 77
1, 16128, Note_on_c, 1, 63, 77
1, 16143, Note_on_c, 0, 78, 0
1, 16143, Note_on_c, 1, 63, 0
1, 16144, Note_on_c, 0, 80, 77
1, 16144, Note_on_c, 1, 64, 77
1, 16159, Note_on_c, 0, 80, 0
1, 16159, Note_on_c, 1, 64, 0
1, 16160, Note_on_c, 0, 82, 77
1, 16160, Note_on_c, 1, 66, 77
1, 16175, Note_on_c, 0, 82, 0
1, 16175, Note_on_c, 1, 66, 0
1, 16176, Note_on_c, 0, 83, 78
1, 16176, Note_on_c, 1, 68, 77
1, 16191, Note_on_c, 0, 83, 0
1, 16191, Note_on_c, 1, 68, 0
1, 16192, Note_on_c, 0, 82, 78
1, 16192, Note_on_c, 1, 66, 77
1, 16207, Note_on_c, 0, 82, 0
1, 16207, Note_on_c, 1, 66, 0
1, 16208, Note_on_c, 0, 80, 78
1, 16208, Note_on_c, 1, 64, 77
1, 16223, Note_on_c, 0, 80, 0
1, 16223, Note_on_c, 1, 64, 0
1, 16224, Note_on_c, 0, 78, 79
1, 16224, Note_on_c, 1, 63, 77
1, 16239, Note_on_c, 0, 78, 0
1, 16239, Note_on_c, 1, 63, 0
1, 16240, Note_on_c, 0, 80, 79
1, 16240, Note_on_c, 1, 64, 77
1, 16255, Note_on_c, 0, 80, 0
1, 16255, Note_on_c, 1, 64, 0
1, 16256, Note_on_c, 0, 82, 79
1, 16256, Note_on_c, 1, 66, 77
1, 16271, Note_on_c, 0, 82, 0
1, 16271, Note_on_c, 1, 66, 0
1, 16272, Note_on_c, 0, 83, 80
1, 16272, Note_on_c, 1, 68, 77
1, 16287, Note_on_c, 0, 83, 0
1, 16287, Note_on_c, 1, 68, 0
1, 16288, Note_on_c, 0, 82, 80
1, 16288, Note_on_c, 1, 66, 77
1, 16303, Note_on_c, 0, 82, 0
1, 16303, Note_on_c, 1, 66, 0
1, 16304, Note_on_c, 0, 80, 80
1, 16304, Note_on_c, 1, 64, 77
1, 16319, Note_on_c, 0, 80, 0
1, 16319, Note_on_c, 1, 64, 0
1, 16320, Note_on_c, 0, 78, 81
1, 16320, Note_on_c, 1, 63, 77
1, 16335, Note_on_c, 0, 78, 0
1, 16336, Note_on_c, 0, 80, 81
1, 16351, Note_on_c, 0, 80, 0
1, 16352, Note_on_c, 0, 81, 81
1, 16365, Note_on_c, 1, 63, 0
1, 16367, Note_on_c, 0, 81, 0
1, 16368, Note_on_c, 0, 80, 82
1, 16368, Note_on_c, 1, 64, 77
1, 16383, Note_on_c, 0, 80, 0
1, 16384, Note_on_c, 0, 81, 82
1, 16399, Note_on_c, 0, 81, 0
1, 16400, Note_on_c, 0, 83, 82
1, 16413, Note_on_c, 1, 64, 0
1, 16415, Note_on_c, 0, 83, 0
1, 16416, Note_on_c, 0, 81, 85
1, 16416, Note_on_c, 1, 66, 77
1, 16461, Note_on_c, 1, 66, 0
1, 16464, Note_on_c, 1, 59, 77
1, 16505, Note_on_c, 0, 81, 0
1, 16509, Note_on_c, 1, 59, 0
1, 16512, Note_on_c, 0, 80, 85
1, 16512, Note_on_c, 1, 64, 77
1, 16527, Note_on_c, 0, 80, 0
1, 16528, Note_on_c, 0, 82, 85
1, 16543, Note_on_c, 0, 82, 0
1, 16544, Note_on_c, 0, 83, 85
1, 16559, Note_on_c, 0, 83, 0
1, 16560, Note_on_c, 0, 82, 85
1, 16575, Note_on_c, 0, 82, 0
1, 16576, Note_on_c, 0, 80, 85
1, 16591, Note_on_c, 0, 80, 0
1, 16592, Note_on_c, 0, 78, 85
1, 16601, Note_on_c, 1, 64, 0
1, 16607, Note_on_c, 0, 78, 0
1, 16608, Note_on_c, 0, 76, 85
1, 16623, Note_on_c, 0, 76, 0
1, 16624, Note_on_c, 0, 75, 85
1, 16639, Note_on_c, 0, 75, 0
1, 16640, Note_on_c, 0, 73, 85
1, 16655, Note_on_c, 0, 73, 0
1, 16656, Note_on_c, 0, 71, 85
1, 16671, Note_on_c, 0, 71, 0
1, 16672, Note_on_c, 0, 70, 85
1, 16687, Note_on_c, 0, 70, 0
1, 16688, Note_on_c, 0, 68, 85
1, 16703, Note_on_c, 0, 68, 0
1, 16704, Note_on_c, 0, 66, 85
1, 16752, Note_on_c, 1, 51, 77
1, 16793, Note_on_c, 0, 66, 0
1, 16797, Note_on_c, 1, 51, 0
1, 16800, Note_on_c, 0, 75, 81
1, 16800, Note_on_c, 1, 52, 77
1, 16808, Note_on_c, 0, 75, 0
1, 16808, Note_on_c, 0, 73, 80
1, 16816, Note_on_c, 0, 73, 0
1, 16816, Note_on_c, 0, 75, 80
1, 16824, Note_on_c, 0, 75, 0
1, 16824, Note_on_c, 0, 73, 80
1, 16832, Note_on_c, 0, 73, 0
1, 16832, Note_on_c, 0, 75, 80
1, 16840, Note_on_c, 0, 75, 0
1, 16840, Note_on_c, 0, 73, 79
1, 16845, Note_on_c, 1, 52, 0
1, 16848, Note_on_c, 0, 73, 0
1, 16848, Note_on_c, 0, 75, 79
1, 16848, Note_on_c, 1, 54, 77
1, 16856, Note_on_c, 0, 75, 0
1, 16856, Note_on_c, 0, 73, 79
1, 16864, Note_on_c, 0, 73, 0
1, 16864, Note_on_c, 0, 75, 79
1, 16872, Note_on_c, 0, 75, 0
1, 16872, Note_on_c, 0, 73, 78
1, 16880, Note_on_c, 0, 73, 0
1, 16880, Note_on_c, 0, 71, 78
1, 16888, Note_on_c, 0, 71, 0
1, 16888, Note_on_c, 0, 73, 78
1, 16893, Note_on_c, 1, 54, 0
1, 16896, Note_on_c, 0, 73, 0
1, 16896, Note_on_c, 0, 71, 77
1, 16896, Note_on_c, 1, 47, 77
1, 16911, Note_on_c, 1, 47, 0
1, 16912, Note_on_c, 1, 51, 77
1, 16927, Note_on_c, 1, 51, 0
1, 16928, Note_on_c, 1, 54, 77
1, 16943, Note_on_c, 1, 54, 0
1, 16944, Note_on_c, 1, 59, 77
1, 16959, Note_on_c, 1, 59, 0
1, 16960, Note_on_c, 1, 54, 77
1, 16975, Note_on_c, 1, 54, 0
1, 16976, Note_on_c, 1, 51, 77
1, 16985, Note_on_c, 0, 71, 0
1, 16991, Note_on_c, 1, 51, 0
1, 16992, Note_on_c, 1, 47, 77
1, 17037, Note_on_c, 1, 47, 0
1, 17040, Note_on_c, 0, 78, 77
1, 17040, Note_on_c, 1, 75, 68
1, 17055, Note_on_c, 0, 78, 0
1, 17056, Note_on_c, 0, 80, 77
1, 17071, Note_on_c, 0, 80, 0
1, 17072, Note_on_c, 0, 78, 77
1, 17085, Note_on_c, 1, 75, 0
1, 17087, Note_on_c, 0, 78, 0
1, 17088, Note_on_c, 0, 81, 77
1, 17088, Note_on_c, 1, 72, 68
1, 17103, Note_on_c, 0, 81, 0
1, 17104, Note_on_c, 0, 80, 77
1, 17119, Note_on_c, 0, 80, 0
1, 17120, Note_on_c, 0, 78, 77
1, 17135, Note_on_c, 0, 78, 0
1, 17136, Note_on_c, 0, 76, 77
1, 17136, Note_on_c, 1, 72, 0
1, 17136, Note_on_c, 1, 73, 68
1, 17151, Note_on_c, 0, 76, 0
1, 17152, Note_on_c, 0, 78, 77
1, 17167, Note_on_c, 0, 78, 0
1, 17168, Note_on_c, 0, 76, 77
1, 17181, Note_on_c, 1, 73, 0
1, 17183, Note_on_c, 0, 76, 0
1, 17184, Note_on_c, 0, 80, 77
1, 17184, Note_on_c, 1, 70, 68
1, 17199, Note_on_c, 0, 80, 0
1, 17200, Note_on_c, 0, 78, 77
1, 17215, Note_on_c, 0, 78, 0
1, 17216, Note_on_c, 0, 76, 77
1, 17231, Note_on_c, 0, 76, 0
1, 17232, Note_on_c, 0, 75, 77
1, 17232, Note_on_c, 1, 70, 0
1, 17232, Note_on_c, 1, 71, 68
1, 17247, Note_on_c, 0, 75, 0
1, 17248, Note_on_c, 0, 78, 77
1, 17263, Note_on_c, 0, 78, 0
1, 17264, Note_on_c, 0, 83, 77
1, 17277, Note_on_c, 1, 71, 0
1, 17279, Note_on_c, 0, 83, 0
1, 17280, Note_on_c, 0, 80, 77
1, 17280, Note_on_c, 1, 64, 68
1, 17295, Note_on_c, 0, 80, 0
1, 17296, Note_on_c, 0, 78, 78
1, 17311, Note_on_c, 0, 78, 0
1, 17312, Note_on_c, 0, 76, 79
1, 17325, Note_on_c, 1, 64, 0
1, 17327, Note_on_c, 0, 76, 0
1, 17328, Note_on_c, 0, 75, 80
1, 17328, Note_on_c, 1, 65, 71
1, 17343, Note_on_c, 0, 75, 0
1, 17344, Note_on_c, 0, 76, 81
1, 17359, Note_on_c, 0, 76, 0
1, 17360, Note_on_c, 0, 73, 82
1, 17373, Note_on_c, 1, 65, 0
1, 17375, Note_on_c, 0, 73, 0
1, 17376, Note_on_c, 0, 71, 85
1, 17376, Note_on_c, 1, 66, 74
1, 17421, Note_on_c, 0, 71, 0
1, 17421, Note_on_c, 1, 66, 0
1, 17424, Note_on_c, 0, 75, 85
1, 17424, Note_on_c, 1, 54, 77
1, 17436, Note_on_c, 0, 75, 0
1, 17436, Note_on_c, 0, 73, 85
1, 17448, Note_on_c, 0, 73, 0
1, 17448, Note_on_c, 0, 71, 85
1, 17460, Note_on_c, 0, 71, 0
1, 17460, Note_on_c, 0, 73, 85
1, 17469, Note_on_c, 1, 54, 0
1, 17472, Note_on_c, 0, 73, 0
1, 17472, Note_on_c, 0, 71, 82
1, 17472, Note_on_c, 1, 59, 77
1, 17487, Note_on_c, 1, 59, 0
1, 17488, Note_on_c, 1, 54, 77
1, 17503, Note_on_c, 1, 54, 0
1, 17504, Note_on_c, 1, 51, 77
1, 17519, Note_on_c, 1, 51, 0
1, 17520, Note_on_c, 1, 47, 77
1, 17535, Note_on_c, 1, 47, 0
1, 17536, Note_on_c, 1, 51, 77
1, 17551, Note_on_c, 1, 51, 0
1, 17552, Note_on_c, 1, 54, 77
1, 17561, Note_on_c, 0, 71, 0
1, 17567, Note_on_c, 1, 54, 0
1, 17568, Note_on_c, 1, 59, 77
1, 17588, Note_on_c, 1, 59, 0
1, 17616, Note_on_c, 0, 69, 77
1, 17616, Note_on_c, 0, 66, 77
1, 17616, Note_on_c, 1, 63, 68
1, 17661, Note_on_c, 0, 69, 0
1, 17661, Note_on_c, 0, 66, 0
1, 17661, Note_on_c, 1, 63, 0
1, 17664, Note_on_c, 0, 68, 77
1, 17664, Note_on_c, 0, 66, 77
1, 17664, Note_on_c, 1, 60, 68
1, 17709, Note_on_c, 0, 66, 0
1, 17712, Note_on_c, 0, 64, 77
1, 17712, Note_on_c, 1, 60, 0
1, 17712, Note_on_c, 1, 61, 68
1, 17757, Note_on_c, 1, 61, 0
1, 17760, Note_on_c, 0, 68, 0
1, 17760, Note_on_c, 0, 66, 77
1, 17760, Note_on_c, 1, 58, 68
1, 17805, Note_on_c, 0, 64, 0
1, 17808, Note_on_c, 0, 63, 77
1, 17808, Note_on_c, 1, 58, 0
1, 17808, Note_on_c, 1, 59, 68
1, 17849, Note_on_c, 0, 66, 0
1, 17853, Note_on_c, 0, 63, 0
1, 17853, Note_on_c, 1, 59, 0
1, 17856, Note_on_c, 0, 64, 93
1, 17856, Note_on_c, 1, 52, 68
1, 17864, Note_on_c, 0, 68, 93
1, 17864, Note_on_c, 1, 56, 68
1, 17872, Note_on_c, 0, 73, 93
1, 17872, Note_on_c, 1, 61, 68
1, 17904, Note_on_c, 0, 73, 0
1, 17904, Note_on_c, 0, 68, 0
1, 17904, Note_on_c, 0, 64, 0
1, 17904, Note_on_c, 0, 68, 77
1, 17919, Note_on_c, 0, 68, 0
1, 17920, Note_on_c, 0, 64, 77
1, 17935, Note_on_c, 0, 64, 0
1, 17936, Note_on_c, 0, 61, 77
1, 17949, Note_on_c, 1, 61, 0
1, 17949, Note_on_c, 1, 56, 0
1, 17949, Note_on_c, 1, 52, 0
1, 17951, Note_on_c, 0, 61, 0
1, 17952, Note_on_c, 0, 59, 77
1, 17952, Note_on_c, 1, 51, 68
1, 17952, Note_on_c, 1, 42, 68
1, 17997, Note_on_c, 0, 59, 0
1, 17997, Note_on_c, 1, 51, 0
1, 18000, Note_on_c, 0, 59, 77
1, 18000, Note_on_c, 1, 49, 68
1, 18006, Note_on_c, 0, 59, 0
1, 18006, Note_on_c, 0, 58, 77
1, 18012, Note_on_c, 0, 58, 0
1, 18012, Note_on_c, 0, 56, 77
1, 18018, Note_on_c, 0, 56, 0
1, 18018, Note_on_c, 0, 58, 77
1, 18041, Note_on_c, 1, 42, 0
1, 18045, Note_on_c, 0, 58, 0
1, 18045, Note_on_c, 1, 49, 0
1, 18048, Note_on_c, 0, 59, 77
1, 18048, Note_on_c, 1, 47, 68
1, 18063, Note_on_c, 0, 59, 0
1, 18064, Note_on_c, 0, 63, 77
1, 18079, Note_on_c, 0, 63, 0
1, 18080, Note_on_c, 0, 66, 77
1, 18095, Note_on_c, 0, 66, 0
1, 18096, Note_on_c, 0, 71, 77
1, 18111, Note_on_c, 0, 71, 0
1, 18112, Note_on_c, 0, 66, 77
1, 18127, Note_on_c, 0, 66, 0
1, 18128, Note_on_c, 0, 63, 77
1, 18137, Note_on_c, 1, 47, 0
1, 18143, Note_on_c, 0, 63, 0
1, 18144, Note_on_c, 1, 59, 68
1, 18159, Note_on_c, 1, 59, 0
1, 18160, Note_on_c, 1, 54, 68
1, 18175, Note_on_c, 1, 54, 0
1, 18176, Note_on_c, 1, 51, 68
1, 18191, Note_on_c, 1, 51, 0
1, 18192, Note_on_c, 1, 47, 68
1, 18207, Note_on_c, 1, 47, 0
1, 18208, Note_on_c, 1, 42, 68
1, 18223, Note_on_c, 1, 42, 0
1, 18224, Note_on_c, 1, 39, 68
1, 18239, Note_on_c, 1, 39, 0
1, 18240, Note_on_c, 1, 35, 68
1, 18307, Note_on_c, 1, 35, 0
1, 18432, Note_on_c, 0, 78, 93
1, 18432, Note_on_c, 0, 75, 77
1, 18480, Note_on_c, 1, 59, 77
1, 18525, Note_on_c, 1, 59, 0
1, 18528, Note_on_c, 1, 66, 77
1, 18565, Note_on_c, 0, 75, 0
1, 18576, Note_on_c, 0, 78, 0
1, 18576, Note_on_c, 0, 76, 77
1, 18576, Note_on_c, 0, 73, 77
1, 18621, Note_on_c, 0, 76, 0
1, 18621, Note_on_c, 0, 73, 0
1, 18624, Note_on_c, 0, 75, 77
1, 18624, Note_on_c, 0, 71, 77
1, 18661, Note_on_c, 1, 66, 0
1, 18672, Note_on_c, 1, 68, 77
1, 18713, Note_on_c, 0, 75, 0
1, 18717, Note_on_c, 1, 68, 0
1, 18720, Note_on_c, 0, 73, 77
1, 18720, Note_on_c, 1, 65, 77
1, 18757, Note_on_c, 0, 71, 0
1, 18765, Note_on_c, 1, 65, 0
1, 18768, Note_on_c, 0, 70, 77
1, 18768, Note_on_c, 1, 66, 77
1, 18809, Note_on_c, 0, 73, 0
1, 18813, Note_on_c, 0, 70, 0
1, 18816, Note_on_c, 0, 71, 77
1, 18816, Note_on_c, 1, 63, 77
1, 18861, Note_on_c, 1, 63, 0
1, 18864, Note_on_c, 1, 59, 77
1, 18883, Note_on_c, 0, 71, 0
1, 18888, Note_on_c, 0, 73, 80
1, 18900, Note_on_c, 0, 73, 0
1, 18900, Note_on_c, 0, 75, 80
1, 18909, Note_on_c, 1, 59, 0
1, 18912, Note_on_c, 0, 75, 0
1, 18912, Note_on_c, 0, 76, 81
1, 18912, Note_on_c, 1, 58, 77
1, 18957, Note_on_c, 0, 76, 0
1, 18957, Note_on_c, 1, 58, 0
1, 18960, Note_on_c, 0, 75, 83
1, 18960, Note_on_c, 1, 59, 77
1, 18993, Note_on_c, 1, 66, 0
1, 19005, Note_on_c, 0, 75, 0
1, 19005, Note_on_c, 1, 59, 0
1, 19008, Note_on_c, 0, 75, 85
1, 19008, Note_on_c, 1, 68, 77
1, 19008, Note_on_c, 1, 64, 77
1, 19016, Note_on_c, 0, 75, 0
1, 19016, Note_on_c, 0, 73, 84
1, 19024, Note_on_c, 0, 73, 0
1, 19024, Note_on_c, 0, 75, 83
1, 19032, Note_on_c, 0, 75, 0
1, 19032, Note_on_c, 0, 73, 82
1, 19040, Note_on_c, 0, 73, 0
1, 19040, Note_on_c, 0, 75, 81
1, 19048, Note_on_c, 0, 75, 0
1, 19048, Note_on_c, 0, 73, 80
1, 19053, Note_on_c, 1, 68, 0
1, 19053, Note_on_c, 1, 64, 0
1, 19056, Note_on_c, 0, 73, 0
1, 19056, Note_on_c, 0, 71, 77
1, 19056, Note_on_c, 1, 66, 77
1, 19056, Note_on_c, 1, 63, 77
1, 19101, Note_on_c, 1, 66, 0
1, 19101, Note_on_c, 1, 63, 0
1, 19127, Note_on_c, 0, 71, 0
1, 19128, Note_on_c, 0, 73, 68
1, 19140, Note_on_c, 0, 73, 0
1, 19140, Note_on_c, 0, 75, 69
1, 19152, Note_on_c, 0, 75, 0
1, 19152, Note_on_c, 0, 76, 71
1, 19164, Note_on_c, 0, 76, 0
1, 19164, Note_on_c, 0, 78, 72
1, 19176, Note_on_c, 0, 78, 0
1, 19176, Note_on_c, 0, 80, 74
1, 19188, Note_on_c, 0, 80, 0
1, 19188, Note_on_c, 0, 81, 75
1, 19200, Note_on_c, 0, 81, 0
1, 19200, Note_on_c, 0, 83, 93
1, 19200, Note_on_c, 0, 80, 77
1, 19248, Note_on_c, 1, 64, 77
1, 19293, Note_on_c, 1, 64, 0
1, 19296, Note_on_c, 1, 71, 77
1, 19333, Note_on_c, 0, 80, 0
1, 19344, Note_on_c, 0, 83, 0
1, 19344, Note_on_c, 0, 81, 77
1, 19344, Note_on_c, 0, 78, 77
1, 19389, Note_on_c, 0, 81, 0
1, 19389, Note_on_c, 0, 78, 0
1, 19392, Note_on_c, 0, 80, 77
1, 19392, Note_on_c, 0, 76, 77
1, 19429, Note_on_c, 1, 71, 0
1, 19440, Note_on_c, 1, 73, 77
1, 19481, Note_on_c, 0, 80, 0
1, 19485, Note_on_c, 1, 73, 0
1, 19488, Note_on_c, 0, 78, 77
1, 19488, Note_on_c, 1, 70, 77
1, 19525, Note_on_c, 0, 76, 0
1, 19533, Note_on_c, 1, 70, 0
1, 19536, Note_on_c, 0, 75, 77
1, 19536, Note_on_c, 1, 71, 77
1, 19577, Note_on_c, 0, 78, 0
1, 19581, Note_on_c, 1, 71, 0
1, 19584, Note_on_c, 0, 76, 77
1, 19584, Note_on_c, 1, 68, 77
1, 19629, Note_on_c, 0, 75, 0
1, 19629, Note_on_c, 1, 68, 0
1, 19632, Note_on_c, 0, 73, 77
1, 19632, Note_on_c, 1, 69, 77
1, 19673, Note_on_c, 0, 76, 0
1, 19677, Note_on_c, 1, 69, 0
1, 19680, Note_on_c, 0, 75, 77
1, 19680, Note_on_c, 1, 66, 77
1, 19725, Note_on_c, 0, 73, 0
1, 19725, Note_on_c, 1, 66, 0
1, 19728, Note_on_c, 0, 72, 77
1, 19728, Note_on_c, 1, 68, 77
1, 19769, Note_on_c, 0, 75, 0
1, 19773, Note_on_c, 0, 72, 0
1, 19776, Note_on_c, 0, 73, 77
1, 19776, Note_on_c, 1, 64, 77
1, 19821, Note_on_c, 1, 64, 0
1, 19824, Note_on_c, 1, 61, 77
1, 19843, Note_on_c, 0, 73, 0
1, 19848, Note_on_c, 0, 75, 80
1, 19860, Note_on_c, 0, 75, 0
1, 19860, Note_on_c, 0, 76, 80
1, 19869, Note_on_c, 1, 61, 0
1, 19872, Note_on_c, 0, 76, 0
1, 19872, Note_on_c, 0, 78, 81
1, 19872, Note_on_c, 1, 60, 77
1, 19917, Note_on_c, 0, 78, 0
1, 19917, Note_on_c, 1, 60, 0
1, 19920, Note_on_c, 0, 76, 83
1, 19920, Note_on_c, 1, 61, 77
1, 19953, Note_on_c, 1, 68, 0
1, 19965, Note_on_c, 0, 76, 0
1, 19965, Note_on_c, 1, 61, 0
1, 19968, Note_on_c, 0, 75, 85
1, 19968, Note_on_c, 0, 72, 85
1, 19968, Note_on_c, 0, 68, 85
1, 19968, Note_on_c, 1, 56, 76
1, 19984, Note_on_c, 1, 56, 0
1, 19984, Note_on_c, 1, 60, 60
1, 19999, Note_on_c, 1, 60, 0
1, 20000, Note_on_c, 1, 63, 60
1, 20013, Note_on_c, 0, 75, 0
1, 20013, Note_on_c, 0, 72, 0
1, 20013, Note_on_c, 0, 68, 0
1, 20015, Note_on_c, 1, 63, 0
1, 20016, Note_on_c, 0, 80, 85
1, 20016, Note_on_c, 1, 56, 60
1, 20031, Note_on_c, 1, 56, 0
1, 20032, Note_on_c, 1, 60, 60
1, 20047, Note_on_c, 1, 60, 0
1, 20048, Note_on_c, 1, 63, 60
1, 20061, Note_on_c, 0, 80, 0
1, 20063, Note_on_c, 1, 63, 0
1, 20064, Note_on_c, 0, 80, 85
1, 20064, Note_on_c, 1, 56, 60
1, 20079, Note_on_c, 1, 56, 0
1, 20080, Note_on_c, 1, 60, 60
1, 20095, Note_on_c, 1, 60, 0
1, 20096, Note_on_c, 1, 63, 60
1, 20109, Note_on_c, 0, 80, 0
1, 20111, Note_on_c, 1, 63, 0
1, 20112, Note_on_c, 0, 80, 85
1, 20112, Note_on_c, 1, 56, 60
1, 20127, Note_on_c, 1, 56, 0
1, 20128, Note_on_c, 1, 60, 60
1, 20143, Note_on_c, 1, 60, 0
1, 20144, Note_on_c, 1, 63, 60
1, 20157, Note_on_c, 0, 80, 0
1, 20159, Note_on_c, 1, 63, 0
1, 20160, Note_on_c, 0, 81, 85
1, 20160, Note_on_c, 1, 56, 76
1, 20170, Note_on_c, 0, 81, 0
1, 20170, Note_on_c, 0, 80, 85
1, 20176, Note_on_c, 1, 56, 0
1, 20176, Note_on_c, 1, 61, 60
1, 20180, Note_on_c, 0, 80, 0
1, 20180, Note_on_c, 0, 81, 85
1, 20190, Note_on_c, 0, 81, 0
1, 20190, Note_on_c, 0, 80, 85
1, 20191, Note_on_c, 1, 61, 0
1, 20192, Note_on_c, 1, 64, 60
1, 20200, Note_on_c, 0, 80, 0
1, 20200, Note_on_c, 0, 81, 85
1, 20207, Note_on_c, 1, 64, 0
1, 20208, Note_on_c, 1, 61, 60
1, 20210, Note_on_c, 0, 81, 0
1, 20210, Note_on_c, 0, 80, 85
1, 20220, Note_on_c, 0, 80, 0
1, 20220, Note_on_c, 0, 81, 85
1, 20223, Note_on_c, 1, 61, 0
1, 20224, Note_on_c, 1, 56, 60
1, 20229, Note_on_c, 0, 81, 0
1, 20229, Note_on_c, 0, 80, 85
1, 20238, Note_on_c, 0, 80, 0
1, 20238, Note_on_c, 0, 81, 85
1, 20239, Note_on_c, 1, 56, 0
1, 20240, Note_on_c, 1, 64, 60
1, 20247, Note_on_c, 0, 81, 0
1, 20247, Note_on_c, 0, 80, 85
1, 20255, Note_on_c, 1, 64, 0
1, 20256, Note_on_c, 0, 80, 0
1, 20256, Note_on_c, 0, 68, 85
1, 20256, Note_on_c, 1, 56, 60
1, 20271, Note_on_c, 1, 56, 0
1, 20272, Note_on_c, 1, 61, 60
1, 20287, Note_on_c, 1, 61, 0
1, 20288, Note_on_c, 1, 64, 60
1, 20303, Note_on_c, 1, 64, 0
1, 20304, Note_on_c, 1, 56, 60
1, 20319, Note_on_c, 1, 56, 0
1, 20320, Note_on_c, 1, 61, 60
1, 20335, Note_on_c, 1, 61, 0
1, 20336, Note_on_c, 1, 64, 60
1, 20345, Note_on_c, 0, 68, 0
1, 20351, Note_on_c, 1, 64, 0
1, 20352, Note_on_c, 1, 56, 76
1, 20368, Note_on_c, 1, 56, 0
1, 20368, Note_on_c, 1, 63, 60
1, 20383, Note_on_c, 1, 63, 0
1, 20384, Note_on_c, 1, 66, 60
1, 20399, Note_on_c, 1, 66, 0
1, 20400, Note_on_c, 0, 80, 85
1, 20400, Note_on_c, 1, 56, 60
1, 20415, Note_on_c, 1, 56, 0
1, 20416, Note_on_c, 1, 63, 60
1, 20431, Note_on_c, 1, 63, 0
1, 20432, Note_on_c, 1, 66, 60
1, 20445, Note_on_c, 0, 80, 0
1, 20447, Note_on_c, 1, 66, 0
1, 20448, Note_on_c, 0, 80, 85
1, 20448, Note_on_c, 1, 56, 60
1, 20463, Note_on_c, 1, 56, 0
1, 20464, Note_on_c, 1, 63, 60
1, 20479, Note_on_c, 1, 63, 0
1, 20480, Note_on_c, 1, 66, 60
1, 20493, Note_on_c, 0, 80, 0
1, 20495, Note_on_c, 1, 66, 0
1, 20496, Note_on_c, 0, 80, 85
1, 20496, Note_on_c, 1, 56, 60
1, 20511, Note_on_c, 1, 56, 0
1, 20512, Note_on_c, 1, 63, 60
1, 20527, Note_on_c, 1, 63, 0
1, 20528, Note_on_c, 1, 66, 60
1, 20541, Note_on_c, 0, 80, 0
1, 20543, Note_on_c, 1, 66, 0
1, 20544, Note_on_c, 0, 81, 85
1, 20544, Note_on_c, 1, 56, 76
1, 20554, Note_on_c, 0, 81, 0
1, 20554, Note_on_c, 0, 80, 85
1, 20560, Note_on_c, 1, 56, 0
1, 20560, Note_on_c, 1, 61, 60
1, 20564, Note_on_c, 0, 80, 0
1, 20564, Note_on_c, 0, 81, 85
1, 20574, Note_on_c, 0, 81, 0
1, 20574, Note_on_c, 0, 80, 85
1, 20575, Note_on_c, 1, 61, 0
1, 20576, Note_on_c, 1, 64, 60
1, 20584, Note_on_c, 0, 80, 0
1, 20584, Note_on_c, 0, 81, 85
1, 20591, Note_on_c, 1, 64, 0
1, 20592, Note_on_c, 1, 61, 60
1, 20594, Note_on_c, 0, 81, 0
1, 20594, Note_on_c, 0, 80, 85
1, 20604, Note_on_c, 0, 80, 0
1, 20604, Note_on_c, 0, 81, 85
1, 20607, Note_on_c, 1, 61, 0
1, 20608, Note_on_c, 1, 56, 60
1, 20613, Note_on_c, 0, 81, 0
1, 20613, Note_on_c, 0, 80, 85
1, 20622, Note_on_c, 0, 80, 0
1, 20622, Note_on_c, 0, 81, 85
1, 20623, Note_on_c, 1, 56, 0
1, 20624, Note_on_c, 1, 64, 60
1, 20631, Note_on_c, 0, 81, 0
1, 20631, Note_on_c, 0, 80, 85
1, 20639, Note_on_c, 1, 64, 0
1, 20640, Note_on_c, 0, 80, 0
1, 20640, Note_on_c, 0, 68, 85
1, 20640, Note_on_c, 1, 56, 60
1, 20655, Note_on_c, 1, 56, 0
1, 20656, Note_on_c, 1, 61, 60
1, 20671, Note_on_c, 1, 61, 0
1, 20672, Note_on_c, 1, 64, 60
1, 20687, Note_on_c, 1, 64, 0
1, 20688, Note_on_c, 1, 56, 60
1, 20703, Note_on_c, 1, 56, 0
1, 20704, Note_on_c, 1, 61, 60
1, 20719, Note_on_c, 1, 61, 0
1, 20720, Note_on_c, 1, 64, 60
1, 20729, Note_on_c, 0, 68, 0
1, 20735, Note_on_c, 1, 64, 0
1, 20736, Note_on_c, 1, 56, 76
1, 20752, Note_on_c, 1, 56, 0
1, 20752, Note_on_c, 1, 59, 60
1, 20767, Note_on_c, 1, 59, 0
1, 20768, Note_on_c, 1, 65, 60
1, 20783, Note_on_c, 1, 65, 0
1, 20784, Note_on_c, 0, 86, 85
1, 20784, Note_on_c, 1, 56, 60
1, 20799, Note_on_c, 1, 56, 0
1, 20800, Note_on_c, 1, 59, 60
1, 20815, Note_on_c, 1, 59, 0
1, 20816, Note_on_c, 1, 65, 60
1, 20829, Note_on_c, 0, 86, 0
1, 20831, Note_on_c, 1, 65, 0
1, 20832, Note_on_c, 0, 86, 85
1, 20832, Note_on_c, 1, 56, 60
1, 20847, Note_on_c, 1, 56, 0
1, 20848, Note_on_c, 1, 59, 60
1, 20863, Note_on_c, 1, 59, 0
1, 20864, Note_on_c, 1, 65, 60
1, 20877, Note_on_c, 0, 86, 0
1, 20879, Note_on_c, 1, 65, 0
1, 20880, Note_on_c, 0, 86, 85
1, 20880, Note_on_c, 1, 56, 60
1, 20895, Note_on_c, 1, 56, 0
1, 20896, Note_on_c, 1, 59, 60
1, 20911, Note_on_c, 1, 59, 0
1, 20912, Note_on_c, 1, 65, 60
1, 20925, Note_on_c, 0, 86, 0
1, 20927, Note_on_c, 1, 65, 0
1, 20928, Note_on_c, 0, 88, 85
1, 20928, Note_on_c, 1, 56, 76
1, 20938, Note_on_c, 0, 88, 0
1, 20938, Note_on_c, 0, 86, 85
1, 20944, Note_on_c, 1, 56, 0
1, 20944, Note_on_c, 1, 59, 60
1, 20948, Note_on_c, 0, 86, 0
1, 20948, Note_on_c, 0, 88, 85
1, 20958, Note_on_c, 0, 88, 0
1, 20958, Note_on_c, 0, 86, 85
1, 20959, Note_on_c, 1, 59, 0
1, 20960, Note_on_c, 1, 65, 60
1, 20968, Note_on_c, 0, 86, 0
1, 20968, Note_on_c, 0, 88, 85
1, 20975, Note_on_c, 1, 65, 0
1, 20976, Note_on_c, 1, 56, 60
1, 20978, Note_on_c, 0, 88, 0
1, 20978, Note_on_c, 0, 86, 85
1, 20988, Note_on_c, 0, 86, 0
1, 20988, Note_on_c, 0, 88, 85
1, 20991, Note_on_c, 1, 56, 0
1, 20992, Note_on_c, 1, 59, 60
1, 20997, Note_on_c, 0, 88, 0
1, 20997, Note_on_c, 0, 86, 85
1, 21006, Note_on_c, 0, 86, 0
1, 21006, Note_on_c, 0, 88, 85
1, 21007, Note_on_c, 1, 59, 0
1, 21008, Note_on_c, 1, 65, 60
1, 21015, Note_on_c, 0, 88, 0
1, 21015, Note_on_c, 0, 86, 85
1, 21023, Note_on_c, 1, 65, 0
1, 21024, Note_on_c, 0, 86, 0
1, 21024, Note_on_c, 0, 77, 85
1, 21024, Note_on_c, 1, 56, 60
1, 21039, Note_on_c, 1, 56, 0
1, 21040, Note_on_c, 1, 59, 60
1, 21055, Note_on_c, 1, 59, 0
1, 21056, Note_on_c, 1, 65, 60
1, 21071, Note_on_c, 1, 65, 0
1, 21072, Note_on_c, 1, 56, 60
1, 21087, Note_on_c, 1, 56, 0
1, 21088, Note_on_c, 1, 59, 60
1, 21103, Note_on_c, 1, 59, 0
1, 21104, Note_on_c, 1, 65, 60
1, 21113, Note_on_c, 0, 77, 0
1, 21119, Note_on_c, 1, 65, 0
1, 21120, Note_on_c, 1, 66, 77
1, 21120, Note_on_c, 1, 61, 77
1, 21120, Note_on_c, 1, 57, 77
1, 21136, Note_on_c, 0, 85, 85
1, 21151, Note_on_c, 0, 85, 0
1, 21152, Note_on_c, 0, 83, 85
1, 21165, Note_on_c, 1, 66, 0
1, 21165, Note_on_c, 1, 61, 0
1, 21165, Note_on_c, 1, 57, 0
1, 21167, Note_on_c, 0, 83, 0
1, 21168, Note_on_c, 0, 81, 85
1, 21183, Note_on_c, 0, 81, 0
1, 21184, Note_on_c, 0, 80, 85
1, 21199, Note_on_c, 0, 80, 0
1, 21200, Note_on_c, 0, 78, 85
1, 21215, Note_on_c, 0, 78, 0
1, 21216, Note_on_c, 1, 66, 77
1, 21216, Note_on_c, 1, 61, 77
1, 21216, Note_on_c, 1, 57, 77
1, 21232, Note_on_c, 0, 85, 85
1, 21247, Note_on_c, 0, 85, 0
1, 21248, Note_on_c, 0, 83, 85
1, 21261, Note_on_c, 1, 66, 0
1, 21261, Note_on_c, 1, 61, 0
1, 21261, Note_on_c, 1, 57, 0
1, 21263, Note_on_c, 0, 83, 0
1, 21264, Note_on_c, 0, 81, 85
1, 21279, Note_on_c, 0, 81, 0
1, 21280, Note_on_c, 0, 80, 85
1, 21295, Note_on_c, 0, 80, 0
1, 21296, Note_on_c, 0, 78, 85
1, 21311, Note_on_c, 0, 78, 0
1, 21312, Note_on_c, 1, 61, 77
1, 21312, Note_on_c, 1, 57, 77
1, 21328, Note_on_c, 0, 88, 101
1, 21344, Note_on_c, 0, 88, 0
1, 21344, Note_on_c, 0, 87, 86
1, 21359, Note_on_c, 0, 87, 0
1, 21360, Note_on_c, 0, 85, 87
1, 21375, Note_on_c, 0, 85, 0
1, 21376, Note_on_c, 0, 83, 89
1, 21391, Note_on_c, 0, 83, 0
1, 21392, Note_on_c, 0, 81, 90
1, 21407, Note_on_c, 0, 81, 0
1, 21408, Note_on_c, 0, 80, 92
1, 21445, Note_on_c, 1, 61, 0
1, 21445, Note_on_c, 1, 57, 0
1, 21453, Note_on_c, 0, 80, 0
1, 21456, Note_on_c, 0, 79, 97
1, 21456, Note_on_c, 1, 61, 77
1, 21456, Note_on_c, 1, 57, 77
1, 21501, Note_on_c, 0, 79, 0
1, 21501, Note_on_c, 1, 61, 0
1, 21501, Note_on_c, 1, 57, 0
1, 21504, Note_on_c, 0, 79, 106
1, 21504, Note_on_c, 1, 61, 77
1, 21504, Note_on_c, 1, 56, 77
1, 21593, Note_on_c, 0, 79, 0
1, 21600, Note_on_c, 0, 81, 106
1, 21600, Note_on_c, 1, 61, 0
1, 21600, Note_on_c, 1, 60, 77
1, 21606, Note_on_c, 0, 81, 0
1, 21606, Note_on_c, 0, 80, 106
1, 21612, Note_on_c, 0, 80, 0
1, 21612, Note_on_c, 0, 79, 106
1, 21618, Note_on_c, 0, 79, 0
1, 21618, Note_on_c, 0, 80, 106
1, 21681, Note_on_c, 1, 56, 0
1, 21777, Note_on_c, 0, 80, 0
1, 21777, Note_on_c, 1, 60, 0
1, 21888, Note_on_c, 1, 49, 85
1, 21888, Note_on_c, 1, 37, 85
1, 21904, Note_on_c, 0, 73, 85
1, 21919, Note_on_c, 0, 73, 0
1, 21920, Note_on_c, 0, 71, 85
1, 21935, Note_on_c, 0, 71, 0
1, 21936, Note_on_c, 0, 69, 85
1, 21951, Note_on_c, 0, 69, 0
1, 21952, Note_on_c, 0, 68, 85
1, 21967, Note_on_c, 0, 68, 0
1, 21968, Note_on_c, 0, 66, 85
1, 21977, Note_on_c, 1, 49, 0
1, 21977, Note_on_c, 1, 37, 0
1, 21983, Note_on_c, 0, 66, 0
1, 21984, Note_on_c, 0, 64, 85
1, 21999, Note_on_c, 0, 64, 0
1, 22000, Note_on_c, 0, 63, 85
1, 22015, Note_on_c, 0, 63, 0
1, 22016, Note_on_c, 0, 61, 85
1, 22031, Note_on_c, 0, 61, 0
1, 22032, Note_on_c, 0, 60, 85
1, 22032, Note_on_c, 1, 54, 85
1, 22047, Note_on_c, 0, 60, 0
1, 22048, Note_on_c, 0, 63, 85
1, 22052, Note_on_c, 1, 54, 0
1, 22063, Note_on_c, 0, 63, 0
1, 22064, Note_on_c, 0, 68, 85
1, 22079, Note_on_c, 0, 68, 0
1, 22080, Note_on_c, 0, 61, 85
1, 22080, Note_on_c, 1, 52, 85
1, 22095, Note_on_c, 0, 61, 0
1, 22096, Note_on_c, 0, 64, 85
1, 22100, Note_on_c, 1, 52, 0
1, 22111, Note_on_c, 0, 64, 0
1, 22112, Note_on_c, 0, 68, 85
1, 22127, Note_on_c, 0, 68, 0
1, 22128, Note_on_c, 0, 63, 85
1, 22128, Note_on_c, 1, 48, 85
1, 22143, Note_on_c, 0, 63, 0
1, 22144, Note_on_c, 0, 66, 85
1, 22148, Note_on_c, 1, 48, 0
1, 22159, Note_on_c, 0, 66, 0
1, 22160, Note_on_c, 0, 68, 85
1, 22175, Note_on_c, 0, 68, 0
1, 22176, Note_on_c, 0, 64, 85
1, 22176, Note_on_c, 1, 49, 85
1, 22191, Note_on_c, 0, 64, 0
1, 22192, Note_on_c, 0, 66, 85
1, 22196, Note_on_c, 1, 49, 0
1, 22207, Note_on_c, 0, 66, 0
1, 22208, Note_on_c, 0, 68, 85
1, 22223, Note_on_c, 0, 68, 0
1, 22224, Note_on_c, 0, 66, 85
1, 22224, Note_on_c, 1, 51, 85
1, 22239, Note_on_c, 0, 66, 0
1, 22240, Note_on_c, 0, 68, 85
1, 22244, Note_on_c, 1, 51, 0
1, 22255, Note_on_c, 0, 68, 0
1, 22256, Note_on_c, 0, 69, 85
1, 22271, Note_on_c, 0, 69, 0
1, 22272, Note_on_c, 0, 68, 85
1, 22272, Note_on_c, 1, 52, 85
1, 22287, Note_on_c, 0, 68, 0
1, 22288, Note_on_c, 0, 73, 85
1, 22303, Note_on_c, 0, 73, 0
1, 22304, Note_on_c, 0, 71, 85
1, 22319, Note_on_c, 0, 71, 0
1, 22320, Note_on_c, 0, 69, 85
1, 22335, Note_on_c, 0, 69, 0
1, 22336, Note_on_c, 0, 68, 85
1, 22351, Note_on_c, 0, 68, 0
1, 22352, Note_on_c, 0, 66, 85
1, 22361, Note_on_c, 1, 52, 0
1, 22367, Note_on_c, 0, 66, 0
1, 22368, Note_on_c, 0, 64, 85
1, 22383, Note_on_c, 0, 64, 0
1, 22384, Note_on_c, 0, 63, 85
1, 22399, Note_on_c, 0, 63, 0
1, 22400, Note_on_c, 0, 61, 85
1, 22415, Note_on_c, 0, 61, 0
1, 22416, Note_on_c, 0, 60, 85
1, 22416, Note_on_c, 1, 54, 85
1, 22431, Note_on_c, 0, 60, 0
1, 22432, Note_on_c, 0, 63, 85
1, 22436, Note_on_c, 1, 54, 0
1, 22447, Note_on_c, 0, 63, 0
1, 22448, Note_on_c, 0, 68, 85
1, 22463, Note_on_c, 0, 68, 0
1, 22464, Note_on_c, 0, 61, 85
1, 22464, Note_on_c, 1, 52, 85
1, 22479, Note_on_c, 0, 61, 0
1, 22480, Note_on_c, 0, 64, 85
1, 22484, Note_on_c, 1, 52, 0
1, 22495, Note_on_c, 0, 64, 0
1, 22496, Note_on_c, 0, 68, 85
1, 22511, Note_on_c, 0, 68, 0
1, 22512, Note_on_c, 0, 63, 85
1, 22512, Note_on_c, 1, 48, 85
1, 22527, Note_on_c, 0, 63, 0
1, 22528, Note_on_c, 0, 66, 85
1, 22532, Note_on_c, 1, 48, 0
1, 22543, Note_on_c, 0, 66, 0
1, 22544, Note_on_c, 0, 68, 85
1, 22559, Note_on_c, 0, 68, 0
1, 22560, Note_on_c, 0, 64, 85
1, 22560, Note_on_c, 1, 49, 85
1, 22575, Note_on_c, 0, 64, 0
1, 22576, Note_on_c, 0, 66, 85
1, 22580, Note_on_c, 1, 49, 0
1, 22591, Note_on_c, 0, 66, 0
1, 22592, Note_on_c, 0, 68, 85
1, 22607, Note_on_c, 0, 68, 0
1, 22608, Note_on_c, 0, 66, 85
1, 22608, Note_on_c, 1, 51, 85
1, 22623, Note_on_c, 0, 66, 0
1, 22624, Note_on_c, 0, 68, 85
1, 22628, Note_on_c, 1, 51, 0
1, 22639, Note_on_c, 0, 68, 0
1, 22640, Note_on_c, 0, 69, 85
1, 22655, Note_on_c, 0, 69, 0
1, 22656, Note_on_c, 0, 68, 85
1, 22656, Note_on_c, 1, 52, 85
1, 22671, Note_on_c, 0, 68, 0
1, 22672, Note_on_c, 0, 73, 85
1, 22687, Note_on_c, 0, 73, 0
1, 22688, Note_on_c, 0, 71, 85
1, 22703, Note_on_c, 0, 71, 0
1, 22704, Note_on_c, 0, 69, 85
1, 22719, Note_on_c, 0, 69, 0
1, 22720, Note_on_c, 0, 68, 85
1, 22735, Note_on_c, 0, 68, 0
1, 22736, Note_on_c, 0, 66, 85
1, 22745, Note_on_c, 1, 52, 0
1, 22751, Note_on_c, 0, 66, 0
1, 22752, Note_on_c, 0, 64, 85
1, 22767, Note_on_c, 0, 64, 0
1, 22768, Note_on_c, 0, 63, 85
1, 22783, Note_on_c, 0, 63, 0
1, 22784, Note_on_c, 0, 61, 85
1, 22799, Note_on_c, 0, 61, 0
1, 22800, Note_on_c, 0, 60, 85
1, 22800, Note_on_c, 1, 54, 85
1, 22815, Note_on_c, 0, 60, 0
1, 22816, Note_on_c, 0, 63, 85
1, 22831, Note_on_c, 0, 63, 0
1, 22832, Note_on_c, 0, 68, 85
1, 22845, Note_on_c, 1, 54, 0
1, 22847, Note_on_c, 0, 68, 0
1, 22848, Note_on_c, 0, 61, 85
1, 22848, Note_on_c, 1, 52, 85
1, 22863, Note_on_c, 0, 61, 0
1, 22864, Note_on_c, 0, 64, 85
1, 22879, Note_on_c, 0, 64, 0
1, 22880, Note_on_c, 0, 68, 85
1, 22895, Note_on_c, 0, 68, 0
1, 22896, Note_on_c, 0, 61, 85
1, 22911, Note_on_c, 0, 61, 0
1, 22912, Note_on_c, 0, 64, 85
1, 22927, Note_on_c, 0, 64, 0
1, 22928, Note_on_c, 0, 68, 85
1, 22943, Note_on_c, 0, 68, 0
1, 22944, Note_on_c, 0, 59, 85
1, 22944, Note_on_c, 1, 40, 85
1, 22959, Note_on_c, 0, 59, 0
1, 22960, Note_on_c, 0, 62, 85
1, 22975, Note_on_c, 0, 62, 0
1, 22976, Note_on_c, 0, 68, 85
1, 22991, Note_on_c, 0, 68, 0
1, 22992, Note_on_c, 0, 59, 85
1, 23007, Note_on_c, 0, 59, 0
1, 23008, Note_on_c, 0, 62, 85
1, 23023, Note_on_c, 0, 62, 0
1, 23024, Note_on_c, 0, 68, 85
1, 23039, Note_on_c, 0, 68, 0
1, 23040, Note_on_c, 0, 61, 85
1, 23055, Note_on_c, 0, 61, 0
1, 23056, Note_on_c, 0, 64, 85
1, 23071, Note_on_c, 0, 64, 0
1, 23072, Note_on_c, 0, 69, 85
1, 23087, Note_on_c, 0, 69, 0
1, 23088, Note_on_c, 0, 61, 85
1, 23103, Note_on_c, 0, 61, 0
1, 23104, Note_on_c, 0, 64, 85
1, 23119, Note_on_c, 0, 64, 0
1, 23120, Note_on_c, 0, 69, 85
1, 23129, Note_on_c, 1, 40, 0
1, 23135, Note_on_c, 0, 69, 0
1, 23136, Note_on_c, 0, 64, 85
1, 23136, Note_on_c, 1, 44, 85
1, 23151, Note_on_c, 0, 64, 0
1, 23152, Note_on_c, 0, 71, 85
1, 23167, Note_on_c, 0, 71, 0
1, 23168, Note_on_c, 0, 74, 85
1, 23183, Note_on_c, 0, 74, 0
1, 23184, Note_on_c, 0, 64, 85
1, 23199, Note_on_c, 0, 64, 0
1, 23200, Note_on_c, 0, 71, 85
1, 23215, Note_on_c, 0, 71, 0
1, 23216, Note_on_c, 0, 74, 85
1, 23217, Note_on_c, 1, 52, 0
1, 23225, Note_on_c, 1, 44, 0
1, 23231, Note_on_c, 0, 74, 0
1, 23232, Note_on_c, 0, 64, 85
1, 23232, Note_on_c, 1, 52, 85
1, 23232, Note_on_c, 1, 45, 85
1, 23247, Note_on_c, 0, 64, 0
1, 23248, Note_on_c, 0, 69, 85
1, 23263, Note_on_c, 0, 69, 0
1, 23264, Note_on_c, 0, 73, 85
1, 23279, Note_on_c, 0, 73, 0
1, 23280, Note_on_c, 0, 64, 85
1, 23295, Note_on_c, 0, 64, 0
1, 23296, Note_on_c, 0, 69, 85
1, 23311, Note_on_c, 0, 69, 0
1, 23312, Note_on_c, 0, 73, 85
1, 23321, Note_on_c, 1, 52, 0
1, 23321, Note_on_c, 1, 45, 0
1, 23327, Note_on_c, 0, 73, 0
1, 23328, Note_on_c, 0, 61, 85
1, 23328, Note_on_c, 1, 49, 85
1, 23328, Note_on_c, 1, 41, 85
1, 23343, Note_on_c, 0, 61, 0
1, 23344, Note_on_c, 0, 68, 85
1, 23359, Note_on_c, 0, 68, 0
1, 23360, Note_on_c, 0, 71, 85
1, 23375, Note_on_c, 0, 71, 0
1, 23376, Note_on_c, 0, 61, 85
1, 23391, Note_on_c, 0, 61, 0
1, 23392, Note_on_c, 0, 68, 85
1, 23407, Note_on_c, 0, 68, 0
1, 23408, Note_on_c, 0, 71, 85
1, 23417, Note_on_c, 1, 49, 0
1, 23417, Note_on_c, 1, 41, 0
1, 23423, Note_on_c, 0, 71, 0
1, 23424, Note_on_c, 0, 61, 85
1, 23424, Note_on_c, 1, 54, 85
1, 23424, Note_on_c, 1, 42, 85
1, 23439, Note_on_c, 0, 61, 0
1, 23440, Note_on_c, 0, 66, 101
1, 23456, Note_on_c, 0, 66, 0
1, 23456, Note_on_c, 0, 70, 85
1, 23471, Note_on_c, 0, 70, 0
1, 23472, Note_on_c, 0, 61, 85
1, 23487, Note_on_c, 0, 61, 0
1, 23488, Note_on_c, 0, 67, 101
1, 23504, Note_on_c, 0, 67, 0
1, 23504, Note_on_c, 0, 70, 85
1, 23519, Note_on_c, 0, 70, 0
1, 23520, Note_on_c, 0, 61, 85
1, 23535, Note_on_c, 0, 61, 0
1, 23536, Note_on_c, 0, 66, 101
1, 23552, Note_on_c, 0, 66, 0
1, 23552, Note_on_c, 0, 70, 85
1, 23567, Note_on_c, 0, 70, 0
1, 23568, Note_on_c, 0, 61, 85
1, 23583, Note_on_c, 0, 61, 0
1, 23584, Note_on_c, 0, 64, 101
1, 23600, Note_on_c, 0, 64, 0
1, 23600, Note_on_c, 0, 70, 85
1, 23601, Note_on_c, 1, 54, 0
1, 23601, Note_on_c, 1, 42, 0
1, 23615, Note_on_c, 0, 70, 0
1, 23616, Note_on_c, 0, 59, 101
1, 23616, Note_on_c, 1, 47, 85
1, 23616, Note_on_c, 1, 35, 85
1, 23632, Note_on_c, 0, 59, 0
1, 23632, Note_on_c, 0, 63, 85
1, 23647, Note_on_c, 0, 63, 0
1, 23648, Note_on_c, 0, 69, 85
1, 23663, Note_on_c, 0, 69, 0
1, 23664, Note_on_c, 0, 60, 101
1, 23680, Note_on_c, 0, 60, 0
1, 23680, Note_on_c, 0, 63, 85
1, 23695, Note_on_c, 0, 63, 0
1, 23696, Note_on_c, 0, 69, 85
1, 23711, Note_on_c, 0, 69, 0
1, 23712, Note_on_c, 0, 59, 101
1, 23728, Note_on_c, 0, 59, 0
1, 23728, Note_on_c, 0, 63, 85
1, 23743, Note_on_c, 0, 63, 0
1, 23744, Note_on_c, 0, 69, 85
1, 23759, Note_on_c, 0, 69, 0
1, 23760, Note_on_c, 0, 57, 101
1, 23776, Note_on_c, 0, 57, 0
1, 23776, Note_on_c, 0, 63, 85
1, 23791, Note_on_c, 0, 63, 0
1, 23792, Note_on_c, 0, 69, 85
1, 23793, Note_on_c, 1, 47, 0
1, 23793, Note_on_c, 1, 35, 0
1, 23807, Note_on_c, 0, 69, 0
1, 23808, Note_on_c, 0, 59, 85
1, 23808, Note_on_c, 1, 52, 85
1, 23808, Note_on_c, 1, 40, 85
1, 23823, Note_on_c, 0, 59, 0
1, 23824, Note_on_c, 0, 64, 85
1, 23839, Note_on_c, 0, 64, 0
1, 23840, Note_on_c, 0, 68, 85
1, 23855, Note_on_c, 0, 68, 0
1, 23855, Note_on_c, 1, 52, 0
1, 23855, Note_on_c, 1, 40, 0
1, 23856, Note_on_c, 0, 59, 85
1, 23856, Note_on_c, 1, 53, 85
1, 23856, Note_on_c, 1, 41, 85
1, 23871, Note_on_c, 0, 59, 0
1, 23872, Note_on_c, 0, 64, 85
1, 23887, Note_on_c, 0, 64, 0
1, 23888, Note_on_c, 0, 68, 85
1, 23903, Note_on_c, 0, 68, 0
1, 23903, Note_on_c, 1, 53, 0
1, 23903, Note_on_c, 1, 41, 0
1, 23904, Note_on_c, 0, 59, 85
1, 23904, Note_on_c, 1, 52, 85
1, 23904, Note_on_c, 1, 40, 85
1, 23919, Note_on_c, 0, 59, 0
1, 23920, Note_on_c, 0, 64, 85
1, 23935, Note_on_c, 0, 64, 0
1, 23936, Note_on_c, 0, 68, 85
1, 23951, Note_on_c, 0, 68, 0
1, 23951, Note_on_c, 1, 52, 0
1, 23951, Note_on_c, 1, 40, 0
1, 23952, Note_on_c, 0, 59, 85
1, 23952, Note_on_c, 1, 50, 85
1, 23952, Note_on_c, 1, 38, 85
1, 23967, Note_on_c, 0, 59, 0
1, 23968, Note_on_c, 0, 64, 85
1, 23983, Note_on_c, 0, 64, 0
1, 23984, Note_on_c, 0, 68, 85
1, 23999, Note_on_c, 0, 68, 0
1, 23999, Note_on_c, 1, 50, 0
1, 23999, Note_on_c, 1, 38, 0
1, 24000, Note_on_c, 0, 57, 85
1, 24000, Note_on_c, 1, 49, 85
1, 24000, Note_on_c, 1, 37, 85
1, 24015, Note_on_c, 0, 57, 0
1, 24016, Note_on_c, 0, 64, 85
1, 24031, Note_on_c, 0, 64, 0
1, 24032, Note_on_c, 0, 69, 85
1, 24047, Note_on_c, 0, 69, 0
1, 24048, Note_on_c, 0, 57, 85
1, 24063, Note_on_c, 0, 57, 0
1, 24064, Note_on_c, 0, 64, 85
1, 24079, Note_on_c, 0, 64, 0
1, 24080, Note_on_c, 0, 69, 85
1, 24089, Note_on_c, 1, 49, 0
1, 24089, Note_on_c, 1, 37, 0
1, 24095, Note_on_c, 0, 69, 0
1, 24096, Note_on_c, 0, 61, 85
1, 24096, Note_on_c, 1, 54, 85
1, 24096, Note_on_c, 1, 42, 85
1, 24111, Note_on_c, 0, 61, 0
1, 24112, Note_on_c, 0, 64, 85
1, 24127, Note_on_c, 0, 64, 0
1, 24128, Note_on_c, 0, 70, 85
1, 24143, Note_on_c, 0, 70, 0
1, 24144, Note_on_c, 0, 61, 85
1, 24159, Note_on_c, 0, 61, 0
1, 24160, Note_on_c, 0, 64, 85
1, 24175, Note_on_c, 0, 64, 0
1, 24176, Note_on_c, 0, 70, 85
1, 24185, Note_on_c, 1, 54, 0
1, 24185, Note_on_c, 1, 42, 0
1, 24191, Note_on_c, 0, 70, 0
1, 24192, Note_on_c, 0, 59, 85
1, 24192, Note_on_c, 1, 47, 85
1, 24192, Note_on_c, 1, 35, 85
1, 24207, Note_on_c, 0, 59, 0
1, 24208, Note_on_c, 0, 63, 85
1, 24223, Note_on_c, 0, 63, 0
1, 24224, Note_on_c, 0, 66, 85
1, 24239, Note_on_c, 0, 66, 0
1, 24240, Note_on_c, 0, 71, 85
1, 24255, Note_on_c, 0, 71, 0
1, 24256, Note_on_c, 0, 66, 85
1, 24271, Note_on_c, 0, 66, 0
1, 24272, Note_on_c, 0, 63, 85
1, 24281, Note_on_c, 1, 47, 0
1, 24281, Note_on_c, 1, 35, 0
1, 24287, Note_on_c, 0, 63, 0
1, 24288, Note_on_c, 0, 59, 85
1, 24303, Note_on_c, 0, 59, 0
1, 24304, Note_on_c, 0, 63, 85
1, 24319, Note_on_c, 0, 63, 0
1, 24320, Note_on_c, 0, 66, 85
1, 24335, Note_on_c, 0, 66, 0
1, 24336, Note_on_c, 0, 61, 85
1, 24336, Note_on_c, 1, 54, 85
1, 24336, Note_on_c, 1, 42, 85
1, 24351, Note_on_c, 0, 61, 0
1, 24352, Note_on_c, 0, 64, 85
1, 24367, Note_on_c, 0, 64, 0
1, 24368, Note_on_c, 0, 70, 85
1, 24381, Note_on_c, 1, 54, 0
1, 24381, Note_on_c, 1, 42, 0
1, 24383, Note_on_c, 0, 70, 0
1, 24384, Note_on_c, 0, 59, 85
1, 24384, Note_on_c, 1, 47, 85
1, 24384, Note_on_c, 1, 35, 85
1, 24399, Note_on_c, 0, 59, 0
1, 24400, Note_on_c, 0, 63, 85
1, 24415, Note_on_c, 0, 63, 0
1, 24416, Note_on_c, 0, 66, 85
1, 24431, Note_on_c, 0, 66, 0
1, 24432, Note_on_c, 0, 71, 85
1, 24447, Note_on_c, 0, 71, 0
1, 24448, Note_on_c, 0, 66, 85
1, 24463, Note_on_c, 0, 66, 0
1, 24464, Note_on_c, 0, 63, 85
1, 24473, Note_on_c, 1, 47, 0
1, 24473, Note_on_c, 1, 35, 0
1, 24479, Note_on_c, 0, 63, 0
1, 24480, Note_on_c, 0, 59, 85
1, 24495, Note_on_c, 0, 59, 0
1, 24496, Note_on_c, 0, 63, 85
1, 24511, Note_on_c, 0, 63, 0
1, 24512, Note_on_c, 0, 66, 85
1, 24527, Note_on_c, 0, 66, 0
1, 24528, Note_on_c, 0, 61, 85
1, 24528, Note_on_c, 1, 54, 85
1, 24528, Note_on_c, 1, 42, 85
1, 24543, Note_on_c, 0, 61, 0
1, 24544, Note_on_c, 0, 64, 85
1, 24559, Note_on_c, 0, 64, 0
1, 24560, Note_on_c, 0, 70, 85
1, 24573, Note_on_c, 1, 54, 0
1, 24573, Note_on_c, 1, 42, 0
1, 24575, Note_on_c, 0, 70, 0
1, 24576, Note_on_c, 0, 59, 85
1, 24576, Note_on_c, 1, 47, 85
1, 24576, Note_on_c, 1, 35, 85
1, 24591, Note_on_c, 0, 59, 0
1, 24592, Note_on_c, 0, 63, 85
1, 24607, Note_on_c, 0, 63, 0
1, 24608, Note_on_c, 0, 66, 85
1, 24623, Note_on_c, 0, 66, 0
1, 24624, Note_on_c, 0, 71, 85
1, 24639, Note_on_c, 0, 71, 0
1, 24640, Note_on_c, 0, 66, 85
1, 24655, Note_on_c, 0, 66, 0
1, 24656, Note_on_c, 0, 63, 85
1, 24665, Note_on_c, 1, 47, 0
1, 24665, Note_on_c, 1, 35, 0
1, 24671, Note_on_c, 0, 63, 0
1, 24672, Note_on_c, 1, 59, 85
1, 24687, Note_on_c, 1, 59, 0
1, 24688, Note_on_c, 1, 54, 85
1, 24703, Note_on_c, 1, 54, 0
1, 24704, Note_on_c, 1, 51, 85
1, 24719, Note_on_c, 1, 51, 0
1, 24720, Note_on_c, 1, 47, 85
1, 24735, Note_on_c, 1, 47, 0
1, 24736, Note_on_c, 1, 42, 85
1, 24751, Note_on_c, 1, 42, 0
1, 24752, Note_on_c, 1, 39, 85
1, 24767, Note_on_c, 1, 39, 0
1, 24768, Note_on_c, 1, 35, 85
1, 24880, Note_on_c, 0, 75, 85
1, 24895, Note_on_c, 0, 75, 0
1, 24896, Note_on_c, 0, 76, 83
1, 24911, Note_on_c, 0, 76, 0
1, 24912, Note_on_c, 0, 78, 82
1, 24927, Note_on_c, 0, 78, 0
1, 24928, Note_on_c, 0, 80, 81
1, 24943, Note_on_c, 0, 80, 0
1, 24944, Note_on_c, 0, 81, 80
1, 24953, Note_on_c, 1, 35, 0
1, 24959, Note_on_c, 0, 81, 0
1, 24960, Note_on_c, 0, 83, 93
1, 24960, Note_on_c, 0, 80, 77
1, 24976, Note_on_c, 1, 63, 85
1, 24991, Note_on_c, 1, 63, 0
1, 24992, Note_on_c, 1, 64, 83
1, 25007, Note_on_c, 1, 64, 0
1, 25008, Note_on_c, 1, 66, 82
1, 25023, Note_on_c, 1, 66, 0
1, 25024, Note_on_c, 1, 68, 81
1, 25039, Note_on_c, 1, 68, 0
1, 25040, Note_on_c, 1, 69, 80
1, 25055, Note_on_c, 1, 69, 0
1, 25056, Note_on_c, 1, 71, 77
1, 25093, Note_on_c, 0, 80, 0
1, 25104, Note_on_c, 0, 83, 0
1, 25104, Note_on_c, 0, 81, 77
1, 25104, Note_on_c, 0, 78, 77
1, 25149, Note_on_c, 0, 81, 0
1, 25149, Note_on_c, 0, 78, 0
1, 25152, Note_on_c, 0, 80, 77
1, 25152, Note_on_c, 0, 76, 77
1, 25189, Note_on_c, 1, 71, 0
1, 25200, Note_on_c, 1, 73, 77
1, 25241, Note_on_c, 0, 80, 0
1, 25245, Note_on_c, 1, 73, 0
1, 25248, Note_on_c, 0, 78, 77
1, 25248, Note_on_c, 1, 70, 77
1, 25285, Note_on_c, 0, 76, 0
1, 25293, Note_on_c, 1, 70, 0
1, 25296, Note_on_c, 0, 75, 77
1, 25296, Note_on_c, 1, 71, 77
1, 25337, Note_on_c, 0, 78, 0
1, 25341, Note_on_c, 0, 75, 0
1, 25344, Note_on_c, 0, 76, 77
1, 25344, Note_on_c, 1, 68, 85
1, 25389, Note_on_c, 1, 68, 0
1, 25392, Note_on_c, 1, 64, 85
1, 25411, Note_on_c, 0, 76, 0
1, 25416, Note_on_c, 0, 78, 83
1, 25428, Note_on_c, 0, 78, 0
1, 25428, Note_on_c, 0, 80, 84
1, 25437, Note_on_c, 1, 64, 0
1, 25440, Note_on_c, 0, 80, 0
1, 25440, Note_on_c, 0, 81, 85
1, 25440, Note_on_c, 1, 63, 85
1, 25485, Note_on_c, 0, 81, 0
1, 25485, Note_on_c, 1, 63, 0
1, 25488, Note_on_c, 0, 80, 85
1, 25488, Note_on_c, 1, 64, 85
1, 25521, Note_on_c, 1, 71, 0
1, 25533, Note_on_c, 0, 80, 0
1, 25533, Note_on_c, 1, 64, 0
1, 25536, Note_on_c, 0, 80, 85
1, 25536, Note_on_c, 1, 73, 77
1, 25536, Note_on_c, 1, 69, 85
1, 25544, Note_on_c, 0, 80, 0
1, 25544, Note_on_c, 0, 78, 84
1, 25552, Note_on_c, 0, 78, 0
1, 25552, Note_on_c, 0, 80, 84
1, 25560, Note_on_c, 0, 80, 0
1, 25560, Note_on_c, 0, 78, 83
1, 25568, Note_on_c, 0, 78, 0
1, 25568, Note_on_c, 0, 80, 83
1, 25576, Note_on_c, 0, 80, 0
1, 25576, Note_on_c, 0, 78, 82
1, 25581, Note_on_c, 1, 73, 0
1, 25581, Note_on_c, 1, 69, 0
1, 25584, Note_on_c, 0, 78, 0
1, 25584, Note_on_c, 0, 76, 82
1, 25584, Note_on_c, 1, 71, 77
1, 25584, Note_on_c, 1, 68, 85
1, 25629, Note_on_c, 0, 76, 0
1, 25629, Note_on_c, 1, 71, 0
1, 25629, Note_on_c, 1, 68, 0
1, 25728, Note_on_c, 0, 71, 93
1, 25728, Note_on_c, 0, 68, 77
1, 25776, Note_on_c, 1, 52, 77
1, 25821, Note_on_c, 1, 52, 0
1, 25824, Note_on_c, 1, 59, 77
1, 25861, Note_on_c, 0, 68, 0
1, 25872, Note_on_c, 0, 71, 0
1, 25872, Note_on_c, 0, 70, 77
1, 25872, Note_on_c, 0, 67, 77
1, 25917, Note_on_c, 0, 70, 0
1, 25917, Note_on_c, 0, 67, 0
1, 25920, Note_on_c, 0, 69, 77
1, 25920, Note_on_c, 0, 66, 77
1, 25957, Note_on_c, 1, 59, 0
1, 25965, Note_on_c, 0, 69, 0
1, 25965, Note_on_c, 0, 66, 0
1, 25968, Note_on_c, 0, 68, 77
1, 25968, Note_on_c, 0, 65, 77
1, 25968, Note_on_c, 1, 61, 77
1, 26013, Note_on_c, 0, 68, 0
1, 26013, Note_on_c, 0, 65, 0
1, 26013, Note_on_c, 1, 61, 0
1, 26016, Note_on_c, 0, 67, 77
1, 26016, Note_on_c, 0, 64, 77
1, 26016, Note_on_c, 1, 58, 77
1, 26061, Note_on_c, 0, 67, 0
1, 26061, Note_on_c, 0, 64, 0
1, 26061, Note_on_c, 1, 58, 0
1, 26064, Note_on_c, 0, 66, 77
1, 26064, Note_on_c, 0, 63, 77
1, 26064, Note_on_c, 1, 59, 77
1, 26109, Note_on_c, 0, 66, 0
1, 26109, Note_on_c, 0, 63, 0
1, 26112, Note_on_c, 0, 64, 77
1, 26112, Note_on_c, 1, 56, 85
1, 26157, Note_on_c, 1, 56, 0
1, 26160, Note_on_c, 1, 52, 85
1, 26179, Note_on_c, 0, 64, 0
1, 26184, Note_on_c, 0, 66, 80
1, 26196, Note_on_c, 0, 66, 0
1, 26196, Note_on_c, 0, 68, 80
1, 26205, Note_on_c, 1, 52, 0
1, 26208, Note_on_c, 0, 68, 0
1, 26208, Note_on_c, 0, 69, 81
1, 26208, Note_on_c, 1, 51, 85
1, 26253, Note_on_c, 0, 69, 0
1, 26253, Note_on_c, 1, 51, 0
1, 26256, Note_on_c, 0, 68, 83
1, 26256, Note_on_c, 1, 52, 85
1, 26289, Note_on_c, 1, 59, 0
1, 26301, Note_on_c, 0, 68, 0
1, 26301, Note_on_c, 1, 52, 0
1, 26304, Note_on_c, 0, 73, 85
1, 26304, Note_on_c, 0, 69, 85
1, 26304, Note_on_c, 0, 64, 85
1, 26304, Note_on_c, 1, 45, 77
1, 26324, Note_on_c, 0, 73, 0
1, 26324, Note_on_c, 0, 69, 0
1, 26324, Note_on_c, 0, 64, 0
1, 26324, Note_on_c, 1, 45, 0
1, 26352, Note_on_c, 0, 71, 85
1, 26352, Note_on_c, 0, 68, 85
1, 26352, Note_on_c, 0, 64, 85
1, 26352, Note_on_c, 1, 52, 77
1, 26372, Note_on_c, 0, 71, 0
1, 26372, Note_on_c, 0, 68, 0
1, 26372, Note_on_c, 0, 64, 0
1, 26372, Note_on_c, 1, 52, 0
1, 26496, Note_on_c, 0, 64, 77
1, 26508, Note_on_c, 0, 64, 0
1, 26508, Note_on_c, 0, 76, 77
1, 26544, Note_on_c, 1, 44, 68
1, 26544, Note_on_c, 1, 32, 68
1, 26589, Note_on_c, 1, 44, 0
1, 26589, Note_on_c, 1, 32, 0
1, 26592, Note_on_c, 1, 44, 68
1, 26592, Note_on_c, 1, 32, 68
1, 26607, Note_on_c, 0, 76, 0
1, 26608, Note_on_c, 0, 75, 77
1, 26623, Note_on_c, 0, 75, 0
1, 26624, Note_on_c, 0, 73, 77
1, 26637, Note_on_c, 1, 44, 0
1, 26637, Note_on_c, 1, 32, 0
1, 26639, Note_on_c, 0, 73, 0
1, 26640, Note_on_c, 0, 71, 77
1, 26655, Note_on_c, 0, 71, 0
1, 26656, Note_on_c, 0, 69, 77
1, 26671, Note_on_c, 0, 69, 0
1, 26672, Note_on_c, 0, 68, 77
1, 26687, Note_on_c, 0, 68, 0
1, 26688, Note_on_c, 0, 66, 77
1, 26708, Note_on_c, 0, 66, 0
1, 26736, Note_on_c, 1, 45, 68
1, 26736, Note_on_c, 1, 33, 68
1, 26781, Note_on_c, 1, 45, 0
1, 26781, Note_on_c, 1, 33, 0
1, 26784, Note_on_c, 1, 45, 68
1, 26784, Note_on_c, 1, 33, 68
1, 26800, Note_on_c, 0, 85, 77
1, 26815, Note_on_c, 0, 85, 0
1, 26816, Note_on_c, 0, 83, 77
1, 26829, Note_on_c, 1, 45, 0
1, 26829, Note_on_c, 1, 33, 0
1, 26831, Note_on_c, 0, 83, 0
1, 26832, Note_on_c, 0, 81, 77
1, 26847, Note_on_c, 0, 81, 0
1, 26848, Note_on_c, 0, 80, 77
1, 26863, Note_on_c, 0, 80, 0
1, 26864, Note_on_c, 0, 78, 77
1, 26879, Note_on_c, 0, 78, 0
1, 26880, Note_on_c, 0, 76, 77
1, 26895, Note_on_c, 0, 76, 0
1, 26896, Note_on_c, 0, 75, 77
1, 26911, Note_on_c, 0, 75, 0
1, 26912, Note_on_c, 0, 73, 77
1, 26927, Note_on_c, 0, 73, 0
1, 26928, Note_on_c, 0, 71, 77
1, 26928, Note_on_c, 1, 47, 68
1, 26928, Note_on_c, 1, 35, 68
1, 26943, Note_on_c, 0, 71, 0
1, 26944, Note_on_c, 0, 69, 77
1, 26959, Note_on_c, 0, 69, 0
1, 26960, Note_on_c, 0, 68, 77
1, 26973, Note_on_c, 1, 47, 0
1, 26973, Note_on_c, 1, 35, 0
1, 26975, Note_on_c, 0, 68, 0
1, 26976, Note_on_c, 0, 66, 77
1, 26976, Note_on_c, 1, 47, 68
1, 26976, Note_on_c, 1, 35, 68
1, 26991, Note_on_c, 0, 66, 0
1, 26992, Note_on_c, 0, 64, 78
1, 27007, Note_on_c, 0, 64, 0
1, 27008, Note_on_c, 0, 63, 79
1, 27021, Note_on_c, 1, 47, 0
1, 27021, Note_on_c, 1, 35, 0
1, 27023, Note_on_c, 0, 63, 0
1, 27024, Note_on_c, 0, 61, 80
1, 27024, Note_on_c, 1, 47, 68
1, 27024, Note_on_c, 1, 35, 68
1, 27039, Note_on_c, 0, 61, 0
1, 27040, Note_on_c, 0, 59, 81
1, 27055, Note_on_c, 0, 59, 0
1, 27056, Note_on_c, 0, 57, 82
1, 27069, Note_on_c, 1, 47, 0
1, 27069, Note_on_c, 1, 35, 0
1, 27071, Note_on_c, 0, 57, 0
1, 27072, Note_on_c, 0, 59, 85
1, 27117, Note_on_c, 0, 59, 0
1, 27120, Note_on_c, 0, 59, 85
1, 27120, Note_on_c, 1, 52, 68
1, 27120, Note_on_c, 1, 40, 68
1, 27128, Note_on_c, 0, 59, 0
1, 27128, Note_on_c, 0, 57, 84
1, 27136, Note_on_c, 0, 57, 0
1, 27136, Note_on_c, 0, 59, 84
1, 27144, Note_on_c, 0, 59, 0
1, 27144, Note_on_c, 0, 57, 83
1, 27152, Note_on_c, 0, 57, 0
1, 27152, Note_on_c, 0, 59, 83
1, 27160, Note_on_c, 0, 59, 0
1, 27160, Note_on_c, 0, 57, 82
1, 27165, Note_on_c, 1, 52, 0
1, 27165, Note_on_c, 1, 40, 0
1, 27168, Note_on_c, 0, 57, 0
1, 27168, Note_on_c, 0, 56, 82
1, 27168, Note_on_c, 1, 52, 68
1, 27168, Note_on_c, 1, 40, 68
1, 27213, Note_on_c, 0, 56, 0
1, 27213, Note_on_c, 1, 52, 0
1, 27213, Note_on_c, 1, 40, 0
1, 27216, Note_on_c, 1, 52, 68
1, 27216, Note_on_c, 1, 40, 68
1, 27261, Note_on_c, 1, 52, 0
1, 27261, Note_on_c, 1, 40, 0
1, 27264, Note_on_c, 0, 64, 77
1, 27276, Note_on_c, 0, 64, 0
1, 27276, Note_on_c, 0, 76, 77
1, 27312, Note_on_c, 1, 44, 68
1, 27312, Note_on_c, 1, 32, 68
1, 27357, Note_on_c, 1, 44, 0
1, 27357, Note_on_c, 1, 32, 0
1, 27360, Note_on_c, 1, 44, 68
1, 27360, Note_on_c, 1, 32, 68
1, 27375, Note_on_c, 0, 76, 0
1, 27376, Note_on_c, 0, 75, 77
1, 27391, Note_on_c, 0, 75, 0
1, 27392, Note_on_c, 0, 73, 77
1, 27405, Note_on_c, 1, 44, 0
1, 27405, Note_on_c, 1, 32, 0
1, 27407, Note_on_c, 0, 73, 0
1, 27408, Note_on_c, 0, 71, 77
1, 27423, Note_on_c, 0, 71, 0
1, 27424, Note_on_c, 0, 69, 77
1, 27439, Note_on_c, 0, 69, 0
1, 27440, Note_on_c, 0, 68, 77
1, 27455, Note_on_c, 0, 68, 0
1, 27456, Note_on_c, 0, 66, 77
1, 27501, Note_on_c, 0, 66, 0
1, 27504, Note_on_c, 1, 45, 68
1, 27504, Note_on_c, 1, 33, 68
1, 27549, Note_on_c, 1, 45, 0
1, 27549, Note_on_c, 1, 33, 0
1, 27552, Note_on_c, 1, 45, 68
1, 27552, Note_on_c, 1, 33, 68
1, 27568, Note_on_c, 0, 88, 77
1, 27583, Note_on_c, 0, 88, 0
1, 27584, Note_on_c, 0, 87, 77
1, 27597, Note_on_c, 1, 45, 0
1, 27597, Note_on_c, 1, 33, 0
1, 27599, Note_on_c, 0, 87, 0
1, 27600, Note_on_c, 0, 85, 77
1, 27615, Note_on_c, 0, 85, 0
1, 27616, Note_on_c, 0, 83, 77
1, 27631, Note_on_c, 0, 83, 0
1, 27632, Note_on_c, 0, 81, 77
1, 27647, Note_on_c, 0, 81, 0
1, 27648, Note_on_c, 0, 80, 77
1, 27663, Note_on_c, 0, 80, 0
1, 27664, Note_on_c, 0, 78, 77
1, 27679, Note_on_c, 0, 78, 0
1, 27680, Note_on_c, 0, 76, 77
1, 27695, Note_on_c, 0, 76, 0
1, 27696, Note_on_c, 0, 75, 77
1, 27696, Note_on_c, 1, 47, 68
1, 27696, Note_on_c, 1, 35, 68
1, 27711, Note_on_c, 0, 75, 0
1, 27712, Note_on_c, 0, 73, 77
1, 27727, Note_on_c, 0, 73, 0
1, 27728, Note_on_c, 0, 71, 77
1, 27741, Note_on_c, 1, 47, 0
1, 27741, Note_on_c, 1, 35, 0
1, 27743, Note_on_c, 0, 71, 0
1, 27744, Note_on_c, 0, 69, 77
1, 27744, Note_on_c, 1, 47, 68
1, 27744, Note_on_c, 1, 35, 68
1, 27759, Note_on_c, 0, 69, 0
1, 27760, Note_on_c, 0, 68, 78
1, 27775, Note_on_c, 0, 68, 0
1, 27776, Note_on_c, 0, 66, 79
1, 27789, Note_on_c, 1, 47, 0
1, 27789, Note_on_c, 1, 35, 0
1, 27791, Note_on_c, 0, 66, 0
1, 27792, Note_on_c, 0, 64, 80
1, 27792, Note_on_c, 1, 47, 68
1, 27792, Note_on_c, 1, 35, 68
1, 27807, Note_on_c, 0, 64, 0
1, 27808, Note_on_c, 0, 63, 81
1, 27823, Note_on_c, 0, 63, 0
1, 27824, Note_on_c, 0, 69, 82
1, 27837, Note_on_c, 1, 47, 0
1, 27837, Note_on_c, 1, 35, 0
1, 27839, Note_on_c, 0, 69, 0
1, 27840, Note_on_c, 0, 68, 85
1, 27855, Note_on_c, 0, 68, 0
1, 27856, Note_on_c, 0, 66, 85
1, 27871, Note_on_c, 0, 66, 0
1, 27872, Note_on_c, 0, 64, 85
1, 27887, Note_on_c, 0, 64, 0
1, 27888, Note_on_c, 0, 64, 85
1, 27888, Note_on_c, 1, 52, 68
1, 27903, Note_on_c, 1, 52, 0
1, 27904, Note_on_c, 1, 56, 69
1, 27908, Note_on_c, 0, 64, 0
1, 27919, Note_on_c, 1, 56, 0
1, 27920, Note_on_c, 1, 59, 71
1, 27935, Note_on_c, 1, 59, 0
1, 27936, Note_on_c, 1, 64, 73
1, 27951, Note_on_c, 1, 64, 0
1, 27952, Note_on_c, 1, 59, 75
1, 27967, Note_on_c, 1, 59, 0
1, 27968, Note_on_c, 1, 56, 77
1, 27983, Note_on_c, 1, 56, 0
1, 27984, Note_on_c, 1, 62, 75
1, 27999, Note_on_c, 1, 62, 0
1, 28000, Note_on_c, 1, 59, 74
1, 28015, Note_on_c, 1, 59, 0
1, 28016, Note_on_c, 1, 56, 73
1, 28031, Note_on_c, 1, 56, 0
1, 28032, Note_on_c, 0, 73, 68
1, 28032, Note_on_c, 1, 53, 60
1, 28077, Note_on_c, 1, 53, 0
1, 28080, Note_on_c, 1, 69, 60
1, 28080, Note_on_c, 1, 66, 85
1, 28128, Note_on_c, 1, 69, 0
1, 28128, Note_on_c, 1, 68, 60
1, 28128, Note_on_c, 1, 66, 0
1, 28128, Note_on_c, 1, 65, 85
1, 28151, Note_on_c, 0, 73, 0
1, 28152, Note_on_c, 0, 86, 68
1, 28158, Note_on_c, 0, 86, 0
1, 28158, Note_on_c, 0, 85, 68
1, 28164, Note_on_c, 0, 85, 0
1, 28164, Note_on_c, 0, 83, 68
1, 28170, Note_on_c, 0, 83, 0
1, 28170, Note_on_c, 0, 85, 68
1, 28173, Note_on_c, 1, 68, 0
1, 28173, Note_on_c, 1, 65, 0
1, 28176, Note_on_c, 0, 85, 0
1, 28176, Note_on_c, 0, 86, 68
1, 28176, Note_on_c, 1, 80, 60
1, 28176, Note_on_c, 1, 77, 85
1, 28210, Note_on_c, 0, 86, 0
1, 28212, Note_on_c, 0, 83, 68
1, 28221, Note_on_c, 1, 80, 0
1, 28221, Note_on_c, 1, 77, 0
1, 28224, Note_on_c, 0, 83, 0
1, 28224, Note_on_c, 0, 83, 84
1, 28272, Note_on_c, 1, 73, 60
1, 28272, Note_on_c, 1, 66, 85
1, 28317, Note_on_c, 1, 73, 0
1, 28317, Note_on_c, 1, 66, 0
1, 28320, Note_on_c, 0, 83, 0
1, 28320, Note_on_c, 0, 81, 68
1, 28320, Note_on_c, 1, 73, 60
1, 28320, Note_on_c, 1, 66, 85
1, 28326, Note_on_c, 0, 81, 0
1, 28326, Note_on_c, 0, 83, 68
1, 28332, Note_on_c, 0, 83, 0
1, 28332, Note_on_c, 0, 81, 68
1, 28365, Note_on_c, 1, 73, 0
1, 28365, Note_on_c, 1, 66, 0
1, 28366, Note_on_c, 0, 81, 0
1, 28368, Note_on_c, 0, 85, 68
1, 28368, Note_on_c, 1, 69, 85
1, 28402, Note_on_c, 0, 85, 0
1, 28404, Note_on_c, 0, 78, 68
1, 28413, Note_on_c, 1, 69, 0
1, 28416, Note_on_c, 0, 78, 0
1, 28416, Note_on_c, 0, 80, 84
1, 28416, Note_on_c, 1, 71, 60
1, 28461, Note_on_c, 1, 71, 0
1, 28464, Note_on_c, 1, 71, 60
1, 28509, Note_on_c, 1, 71, 0
1, 28512, Note_on_c, 1, 73, 60
1, 28557, Note_on_c, 1, 73, 0
1, 28560, Note_on_c, 0, 80, 0
1, 28560, Note_on_c, 0, 81, 68
1, 28560, Note_on_c, 1, 73, 60
1, 28594, Note_on_c, 0, 81, 0
1, 28596, Note_on_c, 0, 83, 68
1, 28605, Note_on_c, 1, 73, 0
1, 28608, Note_on_c, 0, 83, 0
1, 28608, Note_on_c, 0, 81, 68
1, 28608, Note_on_c, 1, 66, 60
1, 28620, Note_on_c, 0, 81, 0
1, 28620, Note_on_c, 0, 80, 68
1, 28632, Note_on_c, 0, 80, 0
1, 28632, Note_on_c, 0, 78, 68
1, 28653, Note_on_c, 1, 66, 0
1, 28655, Note_on_c, 0, 78, 0
1, 28672, Note_on_c, 0, 66, 85
1, 28672, Note_on_c, 1, 54, 85
1, 28687, Note_on_c, 0, 66, 0
1, 28687, Note_on_c, 1, 54, 0
1, 28688, Note_on_c, 0, 68, 85
1, 28688, Note_on_c, 1, 56, 85
1, 28703, Note_on_c, 0, 68, 0
1, 28703, Note_on_c, 1, 56, 0
1, 28704, Note_on_c, 0, 69, 85
1, 28704, Note_on_c, 1, 57, 85
1, 28719, Note_on_c, 0, 69, 0
1, 28719, Note_on_c, 1, 57, 0
1, 28720, Note_on_c, 0, 68, 85
1, 28720, Note_on_c, 1, 56, 85
1, 28735, Note_on_c, 0, 68, 0
1, 28735, Note_on_c, 1, 56, 0
1, 28736, Note_on_c, 0, 66, 85
1, 28736, Note_on_c, 1, 54, 85
1, 28751, Note_on_c, 0, 66, 0
1, 28751, Note_on_c, 1, 54, 0
1, 28752, Note_on_c, 0, 64, 85
1, 28752, Note_on_c, 1, 52, 85
1, 28767, Note_on_c, 0, 64, 0
1, 28767, Note_on_c, 1, 52, 0
1, 28768, Note_on_c, 0, 63, 85
1, 28768, Note_on_c, 1, 51, 85
1, 28783, Note_on_c, 0, 63, 0
1, 28783, Note_on_c, 1, 51, 0
1, 28784, Note_on_c, 0, 61, 85
1, 28784, Note_on_c, 1, 49, 85
1, 28799, Note_on_c, 0, 61, 0
1, 28799, Note_on_c, 1, 49, 0
1, 28800, Note_on_c, 0, 59, 85
1, 28800, Note_on_c, 1, 47, 85
1, 28845, Note_on_c, 0, 59, 0
1, 28845, Note_on_c, 1, 47, 0
1, 28848, Note_on_c, 0, 83, 77
1, 28896, Note_on_c, 1, 66, 68
1, 28896, Note_on_c, 1, 63, 68
1, 28919, Note_on_c, 0, 83, 0
1, 28920, Note_on_c, 0, 85, 77
1, 28926, Note_on_c, 0, 85, 0
1, 28926, Note_on_c, 0, 83, 77
1, 28932, Note_on_c, 0, 83, 0
1, 28932, Note_on_c, 0, 81, 77
1, 28938, Note_on_c, 0, 81, 0
1, 28938, Note_on_c, 0, 83, 77
1, 28941, Note_on_c, 1, 66, 0
1, 28941, Note_on_c, 1, 63, 0
1, 28944, Note_on_c, 0, 83, 0
1, 28944, Note_on_c, 0, 85, 77
1, 28978, Note_on_c, 0, 85, 0
1, 28980, Note_on_c, 0, 81, 77
1, 28992, Note_on_c, 0, 81, 0
1, 28992, Note_on_c, 0, 81, 93
1, 29040, Note_on_c, 1, 71, 68
1, 29040, Note_on_c, 1, 64, 68
1, 29085, Note_on_c, 1, 71, 0
1, 29085, Note_on_c, 1, 64, 0
1, 29088, Note_on_c, 0, 81, 0
1, 29088, Note_on_c, 0, 80, 77
1, 29088, Note_on_c, 1, 71, 68
1, 29088, Note_on_c, 1, 64, 68
1, 29133, Note_on_c, 0, 80, 0
1, 29133, Note_on_c, 1, 71, 0
1, 29133, Note_on_c, 1, 64, 0
1, 29136, Note_on_c, 0, 81, 77
1, 29136, Note_on_c, 1, 69, 68
1, 29136, Note_on_c, 1, 66, 68
1, 29170, Note_on_c, 0, 81, 0
1, 29172, Note_on_c, 0, 78, 77
1, 29181, Note_on_c, 1, 69, 0
1, 29181, Note_on_c, 1, 66, 0
1, 29184, Note_on_c, 0, 78, 0
1, 29184, Note_on_c, 0, 76, 77
1, 29184, Note_on_c, 1, 71, 68
1, 29184, Note_on_c, 1, 68, 68
1, 29199, Note_on_c, 0, 76, 0
1, 29200, Note_on_c, 0, 80, 78
1, 29215, Note_on_c, 0, 80, 0
1, 29216, Note_on_c, 0, 78, 79
1, 29231, Note_on_c, 0, 78, 0
1, 29232, Note_on_c, 0, 76, 80
1, 29247, Note_on_c, 0, 76, 0
1, 29248, Note_on_c, 0, 80, 81
1, 29263, Note_on_c, 0, 80, 0
1, 29264, Note_on_c, 0, 83, 82
1, 29273, Note_on_c, 1, 71, 0
1, 29273, Note_on_c, 1, 68, 0
1, 29279, Note_on_c, 0, 83, 0
1, 29280, Note_on_c, 0, 88, 83
1, 29295, Note_on_c, 0, 88, 0
1, 29296, Note_on_c, 0, 87, 84
1, 29311, Note_on_c, 0, 87, 0
1, 29312, Note_on_c, 0, 85, 85
1, 29327, Note_on_c, 0, 85, 0
1, 29328, Note_on_c, 0, 83, 84
1, 29328, Note_on_c, 1, 76, 68
1, 29328, Note_on_c, 1, 69, 68
1, 29343, Note_on_c, 0, 83, 0
1, 29344, Note_on_c, 0, 81, 83
1, 29359, Note_on_c, 0, 81, 0
1, 29360, Note_on_c, 0, 80, 82
1, 29373, Note_on_c, 1, 76, 0
1, 29373, Note_on_c, 1, 69, 0
1, 29375, Note_on_c, 0, 80, 0
1, 29376, Note_on_c, 0, 81, 77
1, 29376, Note_on_c, 1, 76, 68
1, 29376, Note_on_c, 1, 71, 68
1, 29384, Note_on_c, 0, 81, 0
1, 29384, Note_on_c, 0, 80, 77
1, 29392, Note_on_c, 0, 80, 0
1, 29392, Note_on_c, 0, 81, 77
1, 29400, Note_on_c, 0, 81, 0
1, 29400, Note_on_c, 0, 80, 77
1, 29408, Note_on_c, 0, 80, 0
1, 29408, Note_on_c, 0, 81, 77
1, 29416, Note_on_c, 0, 81, 0
1, 29416, Note_on_c, 0, 80, 77
1, 29421, Note_on_c, 1, 76, 0
1, 29424, Note_on_c, 0, 80, 0
1, 29424, Note_on_c, 0, 78, 77
1, 29424, Note_on_c, 1, 75, 68
1, 29465, Note_on_c, 1, 71, 0
1, 29469, Note_on_c, 0, 78, 0
1, 29469, Note_on_c, 1, 75, 0
1, 29472, Note_on_c, 1, 59, 68
1, 29487, Note_on_c, 1, 59, 0
1, 29488, Note_on_c, 1, 61, 69
1, 29503, Note_on_c, 1, 61, 0
1, 29504, Note_on_c, 1, 59, 70
1, 29519, Note_on_c, 1, 59, 0
1, 29520, Note_on_c, 1, 57, 71
1, 29535, Note_on_c, 1, 57, 0
1, 29536, Note_on_c, 1, 56, 72
1, 29551, Note_on_c, 1, 56, 0
1, 29552, Note_on_c, 1, 54, 73
1, 29567, Note_on_c, 1, 54, 0
1, 29568, Note_on_c, 1, 52, 74
1, 29584, Note_on_c, 0, 76, 85
1, 29599, Note_on_c, 0, 76, 0
1, 29600, Note_on_c, 0, 75, 85
1, 29615, Note_on_c, 0, 75, 0
1, 29616, Note_on_c, 0, 73, 85
1, 29631, Note_on_c, 0, 73, 0
1, 29632, Note_on_c, 0, 71, 85
1, 29647, Note_on_c, 0, 71, 0
1, 29648, Note_on_c, 0, 69, 85
1, 29657, Note_on_c, 1, 52, 0
1, 29663, Note_on_c, 0, 69, 0
1, 29664, Note_on_c, 0, 68, 85
1, 29679, Note_on_c, 0, 68, 0
1, 29680, Note_on_c, 0, 66, 85
1, 29695, Note_on_c, 0, 66, 0
1, 29696, Note_on_c, 0, 64, 85
1, 29711, Note_on_c, 0, 64, 0
1, 29712, Note_on_c, 0, 63, 85
1, 29712, Note_on_c, 1, 57, 85
1, 29727, Note_on_c, 0, 63, 0
1, 29728, Note_on_c, 0, 66, 85
1, 29732, Note_on_c, 1, 57, 0
1, 29743, Note_on_c, 0, 66, 0
1, 29744, Note_on_c, 0, 71, 85
1, 29759, Note_on_c, 0, 71, 0
1, 29760, Note_on_c, 0, 64, 85
1, 29760, Note_on_c, 1, 56, 85
1, 29775, Note_on_c, 0, 64, 0
1, 29776, Note_on_c, 0, 68, 85
1, 29780, Note_on_c, 1, 56, 0
1, 29791, Note_on_c, 0, 68, 0
1, 29792, Note_on_c, 0, 71, 85
1, 29807, Note_on_c, 0, 71, 0
1, 29808, Note_on_c, 0, 66, 85
1, 29808, Note_on_c, 1, 51, 85
1, 29823, Note_on_c, 0, 66, 0
1, 29824, Note_on_c, 0, 69, 85
1, 29828, Note_on_c, 1, 51, 0
1, 29839, Note_on_c, 0, 69, 0
1, 29840, Note_on_c, 0, 71, 85
1, 29855, Note_on_c, 0, 71, 0
1, 29856, Note_on_c, 0, 68, 85
1, 29856, Note_on_c, 1, 52, 85
1, 29871, Note_on_c, 0, 68, 0
1, 29872, Note_on_c, 0, 69, 85
1, 29876, Note_on_c, 1, 52, 0
1, 29887, Note_on_c, 0, 69, 0
1, 29888, Note_on_c, 0, 71, 85
1, 29903, Note_on_c, 0, 71, 0
1, 29904, Note_on_c, 0, 69, 85
1, 29904, Note_on_c, 1, 54, 85
1, 29919, Note_on_c, 0, 69, 0
1, 29920, Note_on_c, 0, 71, 85
1, 29924, Note_on_c, 1, 54, 0
1, 29935, Note_on_c, 0, 71, 0
1, 29936, Note_on_c, 0, 73, 85
1, 29951, Note_on_c, 0, 73, 0
1, 29952, Note_on_c, 0, 71, 85
1, 29952, Note_on_c, 1, 56, 85
1, 29967, Note_on_c, 0, 71, 0
1, 29968, Note_on_c, 0, 76, 85
1, 29983, Note_on_c, 0, 76, 0
1, 29984, Note_on_c, 0, 75, 85
1, 29999, Note_on_c, 0, 75, 0
1, 30000, Note_on_c, 0, 73, 85
1, 30015, Note_on_c, 0, 73, 0
1, 30016, Note_on_c, 0, 71, 85
1, 30031, Note_on_c, 0, 71, 0
1, 30032, Note_on_c, 0, 69, 85
1, 30041, Note_on_c, 1, 56, 0
1, 30047, Note_on_c, 0, 69, 0
1, 30048, Note_on_c, 0, 68, 85
1, 30063, Note_on_c, 0, 68, 0
1, 30064, Note_on_c, 0, 66, 85
1, 30079, Note_on_c, 0, 66, 0
1, 30080, Note_on_c, 0, 64, 85
1, 30095, Note_on_c, 0, 64, 0
1, 30096, Note_on_c, 0, 63, 85
1, 30096, Note_on_c, 1, 57, 85
1, 30111, Note_on_c, 0, 63, 0
1, 30112, Note_on_c, 0, 66, 85
1, 30116, Note_on_c, 1, 57, 0
1, 30127, Note_on_c, 0, 66, 0
1, 30128, Note_on_c, 0, 71, 85
1, 30143, Note_on_c, 0, 71, 0
1, 30144, Note_on_c, 0, 64, 85
1, 30144, Note_on_c, 1, 56, 85
1, 30159, Note_on_c, 0, 64, 0
1, 30160, Note_on_c, 0, 68, 85
1, 30164, Note_on_c, 1, 56, 0
1, 30175, Note_on_c, 0, 68, 0
1, 30176, Note_on_c, 0, 71, 85
1, 30191, Note_on_c, 0, 71, 0
1, 30192, Note_on_c, 0, 66, 85
1, 30192, Note_on_c, 1, 51, 85
1, 30207, Note_on_c, 0, 66, 0
1, 30208, Note_on_c, 0, 69, 85
1, 30212, Note_on_c, 1, 51, 0
1, 30223, Note_on_c, 0, 69, 0
1, 30224, Note_on_c, 0, 71, 85
1, 30239, Note_on_c, 0, 71, 0
1, 30240, Note_on_c, 0, 68, 85
1, 30240, Note_on_c, 1, 52, 85
1, 30255, Note_on_c, 0, 68, 0
1, 30256, Note_on_c, 0, 69, 85
1, 30260, Note_on_c, 1, 52, 0
1, 30271, Note_on_c, 0, 69, 0
1, 30272, Note_on_c, 0, 71, 85
1, 30287, Note_on_c, 0, 71, 0
1, 30288, Note_on_c, 0, 69, 85
1, 30288, Note_on_c, 1, 54, 85
1, 30303, Note_on_c, 0, 69, 0
1, 30304, Note_on_c, 0, 71, 85
1, 30308, Note_on_c, 1, 54, 0
1, 30319, Note_on_c, 0, 71, 0
1, 30320, Note_on_c, 0, 73, 85
1, 30335, Note_on_c, 0, 73, 0
1, 30336, Note_on_c, 0, 71, 85
1, 30336, Note_on_c, 1, 56, 85
1, 30351, Note_on_c, 0, 71, 0
1, 30352, Note_on_c, 0, 76, 85
1, 30367, Note_on_c, 0, 76, 0
1, 30368, Note_on_c, 0, 75, 85
1, 30383, Note_on_c, 0, 75, 0
1, 30384, Note_on_c, 0, 73, 85
1, 30399, Note_on_c, 0, 73, 0
1, 30400, Note_on_c, 0, 71, 85
1, 30415, Note_on_c, 0, 71, 0
1, 30416, Note_on_c, 0, 69, 85
1, 30425, Note_on_c, 1, 56, 0
1, 30431, Note_on_c, 0, 69, 0
1, 30432, Note_on_c, 0, 68, 85
1, 30447, Note_on_c, 0, 68, 0
1, 30448, Note_on_c, 0, 66, 84
1, 30463, Note_on_c, 0, 66, 0
1, 30464, Note_on_c, 0, 64, 83
1, 30479, Note_on_c, 0, 64, 0
1, 30480, Note_on_c, 0, 74, 82
1, 30495, Note_on_c, 0, 74, 0
1, 30496, Note_on_c, 0, 73, 81
1, 30511, Note_on_c, 0, 73, 0
1, 30512, Note_on_c, 0, 71, 80
1, 30527, Note_on_c, 0, 71, 0
1, 30528, Note_on_c, 0, 72, 93
1, 30576, Note_on_c, 1, 64, 68
1, 30576, Note_on_c, 1, 57, 68
1, 30621, Note_on_c, 1, 64, 0
1, 30621, Note_on_c, 1, 57, 0
1, 30624, Note_on_c, 0, 72, 0
1, 30624, Note_on_c, 0, 73, 77
1, 30624, Note_on_c, 1, 64, 68
1, 30624, Note_on_c, 1, 57, 68
1, 30644, Note_on_c, 0, 73, 0
1, 30669, Note_on_c, 1, 64, 0
1, 30669, Note_on_c, 1, 57, 0
1, 30672, Note_on_c, 0, 81, 77
1, 30687, Note_on_c, 0, 81, 0
1, 30688, Note_on_c, 0, 80, 77
1, 30703, Note_on_c, 0, 80, 0
1, 30704, Note_on_c, 0, 78, 77
1, 30719, Note_on_c, 0, 78, 0
1, 30720, Note_on_c, 0, 77, 93
1, 30768, Note_on_c, 1, 71, 68
1, 30768, Note_on_c, 1, 68, 68
1, 30813, Note_on_c, 1, 71, 0
1, 30813, Note_on_c, 1, 68, 0
1, 30816, Note_on_c, 0, 77, 0
1, 30816, Note_on_c, 0, 78, 77
1, 30816, Note_on_c, 1, 73, 68
1, 30816, Note_on_c, 1, 69, 68
1, 30836, Note_on_c, 0, 78, 0
1, 30861, Note_on_c, 1, 73, 0
1, 30861, Note_on_c, 1, 69, 0
1, 30864, Note_on_c, 0, 85, 77
1, 30879, Note_on_c, 0, 85, 0
1, 30880, Note_on_c, 0, 81, 77
1, 30895, Note_on_c, 0, 81, 0
1, 30896, Note_on_c, 0, 78, 77
1, 30911, Note_on_c, 0, 78, 0
1, 30912, Note_on_c, 0, 76, 93
1, 30912, Note_on_c, 1, 68, 68
1, 30912, Note_on_c, 1, 59, 68
1, 31008, Note_on_c, 0, 76, 0
1, 31008, Note_on_c, 0, 75, 77
1, 31008, Note_on_c, 1, 68, 0
1, 31008, Note_on_c, 1, 66, 68
1, 31053, Note_on_c, 0, 75, 0
1, 31053, Note_on_c, 1, 66, 0
1, 31053, Note_on_c, 1, 59, 0
1, 31104, Note_on_c, 0, 76, 85
1, 31104, Note_on_c, 1, 52, 85
1, 31107, Note_on_c, 0, 80, 85
1, 31110, Note_on_c, 0, 83, 85
1, 31113, Note_on_c, 0, 88, 85
1, 31119, Note_on_c, 1, 52, 0
1, 31120, Note_on_c, 1, 56, 85
1, 31135, Note_on_c, 1, 56, 0
1, 31136, Note_on_c, 1, 57, 85
1, 31151, Note_on_c, 1, 57, 0
1, 31152, Note_on_c, 1, 59, 85
1, 31167, Note_on_c, 1, 59, 0
1, 31168, Note_on_c, 1, 61, 85
1, 31183, Note_on_c, 1, 61, 0
1, 31184, Note_on_c, 1, 63, 85
1, 31197, Note_on_c, 0, 88, 0
1, 31197, Note_on_c, 0, 83, 0
1, 31197, Note_on_c, 0, 80, 0
1, 31197, Note_on_c, 0, 76, 0
1, 31199, Note_on_c, 1, 63, 0
1, 31200, Note_on_c, 1, 64, 85
1, 31215, Note_on_c, 1, 64, 0
1, 31216, Note_on_c, 1, 66, 85
1, 31231, Note_on_c, 1, 66, 0
1, 31232, Note_on_c, 1, 68, 85
1, 31247, Note_on_c, 1, 68, 0
1, 31248, Note_on_c, 0, 71, 85
1, 31248, Note_on_c, 1, 69, 85
1, 31263, Note_on_c, 0, 71, 0
1, 31264, Note_on_c, 0, 73, 85
1, 31279, Note_on_c, 0, 73, 0
1, 31280, Note_on_c, 0, 75, 85
1, 31293, Note_on_c, 1, 69, 0
1, 31295, Note_on_c, 0, 75, 0
1, 31296, Note_on_c, 0, 76, 85
1, 31296, Note_on_c, 1, 68, 85
1, 31311, Note_on_c, 0, 76, 0
1, 31312, Note_on_c, 0, 80, 85
1, 31327, Note_on_c, 0, 80, 0
1, 31328, Note_on_c, 0, 83, 85
1, 31343, Note_on_c, 0, 83, 0
1, 31344, Note_on_c, 0, 88, 85
1, 31359, Note_on_c, 0, 88, 0
1, 31360, Note_on_c, 0, 87, 85
1, 31375, Note_on_c, 0, 87, 0
1, 31376, Note_on_c, 0, 85, 85
1, 31385, Note_on_c, 1, 68, 0
1, 31391, Note_on_c, 0, 85, 0
1, 31392, Note_on_c, 0, 83, 85
1, 31407, Note_on_c, 0, 83, 0
1, 31408, Note_on_c, 0, 81, 85
1, 31423, Note_on_c, 0, 81, 0
1, 31424, Note_on_c, 0, 80, 85
1, 31439, Note_on_c, 0, 80, 0
1, 31440, Note_on_c, 0, 78, 85
1, 31440, Note_on_c, 1, 63, 85
1, 31440, Note_on_c, 1, 59, 85
1, 31455, Note_on_c, 0, 78, 0
1, 31456, Note_on_c, 0, 80, 85
1, 31471, Note_on_c, 0, 80, 0
1, 31472, Note_on_c, 0, 81, 85
1, 31485, Note_on_c, 1, 63, 0
1, 31485, Note_on_c, 1, 59, 0
1, 31487, Note_on_c, 0, 81, 0
1, 31488, Note_on_c, 0, 80, 85
1, 31488, Note_on_c, 1, 52, 85
1, 31503, Note_on_c, 1, 52, 0
1, 31504, Note_on_c, 1, 56, 85
1, 31519, Note_on_c, 1, 56, 0
1, 31520, Note_on_c, 1, 57, 85
1, 31535, Note_on_c, 1, 57, 0
1, 31536, Note_on_c, 1, 59, 85
1, 31551, Note_on_c, 1, 59, 0
1, 31552, Note_on_c, 1, 61, 85
1, 31567, Note_on_c, 1, 61, 0
1, 31568, Note_on_c, 1, 63, 85
1, 31577, Note_on_c, 0, 80, 0
1, 31583, Note_on_c, 1, 63, 0
1, 31584, Note_on_c, 1, 64, 85
1, 31599, Note_on_c, 1, 64, 0
1, 31600, Note_on_c, 1, 66, 85
1, 31615, Note_on_c, 1, 66, 0
1, 31616, Note_on_c, 1, 68, 85
1, 31631, Note_on_c, 1, 68, 0
1, 31632, Note_on_c, 0, 71, 85
1, 31632, Note_on_c, 1, 69, 85
1, 31647, Note_on_c, 0, 71, 0
1, 31648, Note_on_c, 0, 73, 85
1, 31663, Note_on_c, 0, 73, 0
1, 31664, Note_on_c, 0, 75, 85
1, 31677, Note_on_c, 1, 69, 0
1, 31679, Note_on_c, 0, 75, 0
1, 31680, Note_on_c, 0, 76, 85
1, 31680, Note_on_c, 1, 68, 85
1, 31695, Note_on_c, 0, 76, 0
1, 31696, Note_on_c, 0, 80, 85
1, 31711, Note_on_c, 0, 80, 0
1, 31712, Note_on_c, 0, 83, 85
1, 31727, Note_on_c, 0, 83, 0
1, 31728, Note_on_c, 0, 88, 85
1, 31743, Note_on_c, 0, 88, 0
1, 31744, Note_on_c, 0, 87, 85
1, 31759, Note_on_c, 0, 87, 0
1, 31760, Note_on_c, 0, 85, 85
1, 31769, Note_on_c, 1, 68, 0
1, 31775, Note_on_c, 0, 85, 0
1, 31776, Note_on_c, 0, 83, 85
1, 31796, Note_on_c, 0, 83, 0
1, 31824, Note_on_c, 0, 88, 77
1, 31824, Note_on_c, 1, 73, 77
1, 31839, Note_on_c, 0, 88, 0
1, 31839, Note_on_c, 1, 73, 0
1, 31840, Note_on_c, 0, 87, 77
1, 31840, Note_on_c, 1, 71, 77
1, 31855, Note_on_c, 0, 87, 0
1, 31855, Note_on_c, 1, 71, 0
1, 31856, Note_on_c, 0, 85, 77
1, 31856, Note_on_c, 1, 69, 77
1, 31871, Note_on_c, 0, 85, 0
1, 31871, Note_on_c, 1, 69, 0
1, 31872, Note_on_c, 0, 83, 77
1, 31872, Note_on_c, 1, 68, 77
1, 31887, Note_on_c, 0, 83, 0
1, 31887, Note_on_c, 1, 68, 0
1, 31888, Note_on_c, 0, 85, 77
1, 31888, Note_on_c, 1, 69, 77
1, 31903, Note_on_c, 0, 85, 0
1, 31903, Note_on_c, 1, 69, 0
1, 31904, Note_on_c, 0, 87, 77
1, 31904, Note_on_c, 1, 71, 77
1, 31919, Note_on_c, 0, 87, 0
1, 31919, Note_on_c, 1, 71, 0
1, 31920, Note_on_c, 0, 88, 77
1, 31920, Note_on_c, 1, 73, 77
1, 31935, Note_on_c, 0, 88, 0
1, 31935, Note_on_c, 1, 73, 0
1, 31936, Note_on_c, 0, 87, 77
1, 31936, Note_on_c, 1, 71, 77
1, 31951, Note_on_c, 0, 87, 0
1, 31951, Note_on_c, 1, 71, 0
1, 31952, Note_on_c, 0, 85, 77
1, 31952, Note_on_c, 1, 69, 77
1, 31967, Note_on_c, 0, 85, 0
1, 31967, Note_on_c, 1, 69, 0
1, 31968, Note_on_c, 0, 83, 77
1, 31968, Note_on_c, 1, 68, 77
1, 31983, Note_on_c, 0, 83, 0
1, 31983, Note_on_c, 1, 68, 0
1, 31984, Note_on_c, 0, 85, 77
1, 31984, Note_on_c, 1, 69, 77
1, 31999, Note_on_c, 0, 85, 0
1, 31999, Note_on_c, 1, 69, 0
1, 32000, Note_on_c, 0, 87, 78
1, 32000, Note_on_c, 1, 71, 77
1, 32015, Note_on_c, 0, 87, 0
1, 32015, Note_on_c, 1, 71, 0
1, 32016, Note_on_c, 0, 88, 78
1, 32016, Note_on_c, 1, 73, 77
1, 32031, Note_on_c, 0, 88, 0
1, 32031, Note_on_c, 1, 73, 0
1, 32032, Note_on_c, 0, 87, 79
1, 32032, Note_on_c, 1, 71, 77
1, 32047, Note_on_c, 0, 87, 0
1, 32047, Note_on_c, 1, 71, 0
1, 32048, Note_on_c, 0, 85, 79
1, 32048, Note_on_c, 1, 69, 77
1, 32063, Note_on_c, 0, 85, 0
1, 32063, Note_on_c, 1, 69, 0
1, 32064, Note_on_c, 0, 83, 80
1, 32064, Note_on_c, 1, 68, 77
1, 32079, Note_on_c, 0, 83, 0
1, 32080, Note_on_c, 0, 85, 80
1, 32095, Note_on_c, 0, 85, 0
1, 32096, Note_on_c, 0, 86, 81
1, 32109, Note_on_c, 1, 68, 0
1, 32111, Note_on_c, 0, 86, 0
1, 32112, Note_on_c, 0, 85, 81
1, 32112, Note_on_c, 1, 69, 77
1, 32127, Note_on_c, 0, 85, 0
1, 32128, Note_on_c, 0, 86, 82
1, 32143, Note_on_c, 0, 86, 0
1, 32144, Note_on_c, 0, 88, 82
1, 32157, Note_on_c, 1, 69, 0
1, 32159, Note_on_c, 0, 88, 0
1, 32160, Note_on_c, 0, 86, 85
1, 32160, Note_on_c, 1, 71, 77
1, 32205, Note_on_c, 1, 71, 0
1, 32208, Note_on_c, 1, 64, 77
1, 32253, Note_on_c, 1, 64, 0
1, 32256, Note_on_c, 0, 86, 0
1, 32256, Note_on_c, 0, 85, 85
1, 32256, Note_on_c, 1, 69, 77
1, 32271, Note_on_c, 0, 85, 0
1, 32272, Note_on_c, 0, 87, 85
1, 32287, Note_on_c, 0, 87, 0
1, 32288, Note_on_c, 0, 88, 85
1, 32303, Note_on_c, 0, 88, 0
1, 32304, Note_on_c, 0, 87, 85
1, 32319, Note_on_c, 0, 87, 0
1, 32320, Note_on_c, 0, 85, 85
1, 32335, Note_on_c, 0, 85, 0
1, 32336, Note_on_c, 0, 83, 85
1, 32345, Note_on_c, 1, 69, 0
1, 32351, Note_on_c, 0, 83, 0
1, 32352, Note_on_c, 0, 81, 85
1, 32367, Note_on_c, 0, 81, 0
1, 32368, Note_on_c, 0, 80, 85
1, 32383, Note_on_c, 0, 80, 0
1, 32384, Note_on_c, 0, 78, 85
1, 32399, Note_on_c, 0, 78, 0
1, 32400, Note_on_c, 0, 76, 85
1, 32415, Note_on_c, 0, 76, 0
1, 32416, Note_on_c, 0, 75, 85
1, 32431, Note_on_c, 0, 75, 0
1, 32432, Note_on_c, 0, 73, 85
1, 32447, Note_on_c, 0, 73, 0
1, 32448, Note_on_c, 0, 71, 85
1, 32496, Note_on_c, 1, 56, 77
1, 32537, Note_on_c, 0, 71, 0
1, 32541, Note_on_c, 1, 56, 0
1, 32544, Note_on_c, 0, 80, 81
1, 32544, Note_on_c, 1, 57, 77
1, 32552, Note_on_c, 0, 80, 0
1, 32552, Note_on_c, 0, 78, 80
1, 32560, Note_on_c, 0, 78, 0
1, 32560, Note_on_c, 0, 80, 80
1, 32568, Note_on_c, 0, 80, 0
1, 32568, Note_on_c, 0, 78, 80
1, 32576, Note_on_c, 0, 78, 0
1, 32576, Note_on_c, 0, 80, 80
1, 32584, Note_on_c, 0, 80, 0
1, 32584, Note_on_c, 0, 78, 79
1, 32589, Note_on_c, 1, 57, 0
1, 32592, Note_on_c, 0, 78, 0
1, 32592, Note_on_c, 0, 80, 79
1, 32592, Note_on_c, 1, 59, 77
1, 32600, Note_on_c, 0, 80, 0
1, 32600, Note_on_c, 0, 78, 79
1, 32608, Note_on_c, 0, 78, 0
1, 32608, Note_on_c, 0, 80, 79
1, 32616, Note_on_c, 0, 80, 0
1, 32616, Note_on_c, 0, 78, 78
1, 32624, Note_on_c, 0, 78, 0
1, 32624, Note_on_c, 0, 76, 78
1, 32632, Note_on_c, 0, 76, 0
1, 32632, Note_on_c, 0, 78, 78
1, 32637, Note_on_c, 1, 59, 0
1, 32640, Note_on_c, 0, 78, 0
1, 32640, Note_on_c, 0, 76, 77
1, 32640, Note_on_c, 1, 52, 77
1, 32655, Note_on_c, 1, 52, 0
1, 32656, Note_on_c, 1, 56, 77
1, 32671, Note_on_c, 1, 56, 0
1, 32672, Note_on_c, 1, 59, 77
1, 32687, Note_on_c, 1, 59, 0
1, 32688, Note_on_c, 1, 64, 77
1, 32703, Note_on_c, 1, 64, 0
1, 32704, Note_on_c, 1, 59, 77
1, 32719, Note_on_c, 1, 59, 0
1, 32720, Note_on_c, 1, 56, 77
1, 32729, Note_on_c, 0, 76, 0
1, 32735, Note_on_c, 1, 56, 0
1, 32736, Note_on_c, 1, 52, 77
1, 32781, Note_on_c, 1, 52, 0
1, 32784, Note_on_c, 0, 71, 77
1, 32784, Note_on_c, 1, 68, 68
1, 32799, Note_on_c, 0, 71, 0
1, 32800, Note_on_c, 0, 73, 77
1, 32815, Note_on_c, 0, 73, 0
1, 32816, Note_on_c, 0, 71, 77
1, 32829, Note_on_c, 1, 68, 0
1, 32831, Note_on_c, 0, 71, 0
1, 32832, Note_on_c, 0, 74, 77
1, 32832, Note_on_c, 1, 65, 68
1, 32847, Note_on_c, 0, 74, 0
1, 32848, Note_on_c, 0, 73, 77
1, 32863, Note_on_c, 0, 73, 0
1, 32864, Note_on_c, 0, 71, 77
1, 32879, Note_on_c, 0, 71, 0
1, 32880, Note_on_c, 0, 69, 77
1, 32880, Note_on_c, 1, 65, 0
1, 32880, Note_on_c, 1, 66, 68
1, 32895, Note_on_c, 0, 69, 0
1, 32896, Note_on_c, 0, 71, 77
1, 32911, Note_on_c, 0, 71, 0
1, 32912, Note_on_c, 0, 69, 77
1, 32925, Note_on_c, 1, 66, 0
1, 32927, Note_on_c, 0, 69, 0
1, 32928, Note_on_c, 0, 73, 77
1, 32928, Note_on_c, 1, 63, 68
1, 32943, Note_on_c, 0, 73, 0
1, 32944, Note_on_c, 0, 71, 77
1, 32959, Note_on_c, 0, 71, 0
1, 32960, Note_on_c, 0, 69, 77
1, 32975, Note_on_c, 0, 69, 0
1, 32976, Note_on_c, 0, 68, 77
1, 32976, Note_on_c, 1, 63, 0
1, 32976, Note_on_c, 1, 64, 68
1, 32991, Note_on_c, 0, 68, 0
1, 32992, Note_on_c, 0, 71, 77
1, 33007, Note_on_c, 0, 71, 0
1, 33008, Note_on_c, 0, 76, 77
1, 33021, Note_on_c, 1, 64, 0
1, 33023, Note_on_c, 0, 76, 0
1, 33024, Note_on_c, 0, 73, 77
1, 33024, Note_on_c, 1, 57, 68
1, 33039, Note_on_c, 0, 73, 0
1, 33040, Note_on_c, 0, 71, 77
1, 33055, Note_on_c, 0, 71, 0
1, 33056, Note_on_c, 0, 69, 77
1, 33069, Note_on_c, 1, 57, 0
1, 33071, Note_on_c, 0, 69, 0
1, 33072, Note_on_c, 0, 68, 77
1, 33072, Note_on_c, 1, 58, 68
1, 33087, Note_on_c, 0, 68, 0
1, 33088, Note_on_c, 0, 69, 77
1, 33103, Note_on_c, 0, 69, 0
1, 33104, Note_on_c, 0, 66, 77
1, 33117, Note_on_c, 1, 58, 0
1, 33119, Note_on_c, 0, 66, 0
1, 33120, Note_on_c, 0, 64, 77
1, 33120, Note_on_c, 1, 59, 68
1, 33165, Note_on_c, 0, 64, 0
1, 33165, Note_on_c, 1, 59, 0
1, 33168, Note_on_c, 0, 68, 77
1, 33168, Note_on_c, 1, 47, 68
1, 33180, Note_on_c, 0, 68, 0
1, 33180, Note_on_c, 0, 66, 77
1, 33192, Note_on_c, 0, 66, 0
1, 33192, Note_on_c, 0, 64, 77
1, 33204, Note_on_c, 0, 64, 0
1, 33204, Note_on_c, 0, 66, 77
1, 33213, Note_on_c, 1, 47, 0
1, 33216, Note_on_c, 0, 66, 0
1, 33216, Note_on_c, 0, 64, 77
1, 33216, Note_on_c, 1, 52, 68
1, 33231, Note_on_c, 1, 52, 0
1, 33232, Note_on_c, 1, 47, 68
1, 33247, Note_on_c, 1, 47, 0
1, 33248, Note_on_c, 1, 44, 68
1, 33263, Note_on_c, 1, 44, 0
1, 33264, Note_on_c, 1, 40, 68
1, 33279, Note_on_c, 1, 40, 0
1, 33280, Note_on_c, 1, 44, 68
1, 33295, Note_on_c, 1, 44, 0
1, 33296, Note_on_c, 1, 47, 68
1, 33305, Note_on_c, 0, 64, 0
1, 33311, Note_on_c, 1, 47, 0
1, 33312, Note_on_c, 1, 52, 68
1, 33357, Note_on_c, 1, 52, 0
1, 33360, Note_on_c, 0, 62, 77
1, 33360, Note_on_c, 0, 59, 77
1, 33360, Note_on_c, 1, 56, 68
1, 33405, Note_on_c, 0, 62, 0
1, 33405, Note_on_c, 0, 59, 0
1, 33405, Note_on_c, 1, 56, 0
1, 33408, Note_on_c, 0, 61, 77
1, 33408, Note_on_c, 0, 59, 77
1, 33408, Note_on_c, 1, 53, 68
1, 33453, Note_on_c, 0, 59, 0
1, 33456, Note_on_c, 0, 57, 77
1, 33456, Note_on_c, 1, 53, 0
1, 33456, Note_on_c, 1, 54, 68
1, 33501, Note_on_c, 1, 54, 0
1, 33504, Note_on_c, 0, 61, 0
1, 33504, Note_on_c, 0, 59, 77
1, 33504, Note_on_c, 1, 51, 68
1, 33549, Note_on_c, 0, 57, 0
1, 33552, Note_on_c, 0, 56, 77
1, 33552, Note_on_c, 1, 51, 0
1, 33552, Note_on_c, 1, 52, 68
1, 33593, Note_on_c, 0, 59, 0
1, 33597, Note_on_c, 0, 56, 0
1, 33597, Note_on_c, 1, 52, 0
1, 33600, Note_on_c, 0, 57, 93
1, 33600, Note_on_c, 1, 45, 68
1, 33608, Note_on_c, 0, 61, 93
1, 33608, Note_on_c, 1, 49, 68
1, 33616, Note_on_c, 0, 66, 93
1, 33616, Note_on_c, 1, 54, 68
1, 33648, Note_on_c, 0, 66, 0
1, 33648, Note_on_c, 0, 61, 0
1, 33648, Note_on_c, 0, 57, 0
1, 33648, Note_on_c, 0, 73, 77
1, 33663, Note_on_c, 0, 73, 0
1, 33664, Note_on_c, 0, 69, 77
1, 33679, Note_on_c, 0, 69, 0
1, 33680, Note_on_c, 0, 66, 77
1, 33693, Note_on_c, 1, 54, 0
1, 33693, Note_on_c, 1, 49, 0
1, 33693, Note_on_c, 1, 45, 0
1, 33695, Note_on_c, 0, 66, 0
1, 33696, Note_on_c, 0, 64, 77
1, 33696, Note_on_c, 1, 56, 68
1, 33696, Note_on_c, 1, 47, 68
1, 33741, Note_on_c, 0, 64, 0
1, 33741, Note_on_c, 1, 56, 0
1, 33744, Note_on_c, 0, 64, 77
1, 33744, Note_on_c, 1, 54, 68
1, 33752, Note_on_c, 0, 64, 0
1, 33752, Note_on_c, 0, 63, 77
1, 33760, Note_on_c, 0, 63, 0
1, 33760, Note_on_c, 0, 64, 77
1, 33768, Note_on_c, 0, 64, 0
1, 33768, Note_on_c, 0, 63, 77
1, 33776, Note_on_c, 0, 63, 0
1, 33776, Note_on_c, 0, 64, 77
1, 33784, Note_on_c, 0, 64, 0
1, 33784, Note_on_c, 0, 63, 77
1, 33785, Note_on_c, 1, 47, 0
1, 33789, Note_on_c, 1, 54, 0
1, 33792, Note_on_c, 0, 63, 0
1, 33792, Note_on_c, 0, 64, 77
1, 33792, Note_on_c, 1, 52, 68
1, 33807, Note_on_c, 0, 64, 0
1, 33808, Note_on_c, 0, 68, 77
1, 33823, Note_on_c, 0, 68, 0
1, 33824, Note_on_c, 0, 71, 77
1, 33837, Note_on_c, 1, 52, 0
1, 33839, Note_on_c, 0, 71, 0
1, 33840, Note_on_c, 0, 76, 77
1, 33855, Note_on_c, 0, 76, 0
1, 33856, Note_on_c, 0, 71, 77
1, 33871, Note_on_c, 0, 71, 0
1, 33872, Note_on_c, 0, 68, 77
1, 33887, Note_on_c, 0, 68, 0
1, 33888, Note_on_c, 1, 64, 68
1, 33903, Note_on_c, 1, 64, 0
1, 33904, Note_on_c, 1, 59, 68
1, 33919, Note_on_c, 1, 59, 0
1, 33920, Note_on_c, 1, 56, 68
1, 33935, Note_on_c, 1, 56, 0
1, 33936, Note_on_c, 1, 52, 68
1, 33951, Note_on_c, 1, 52, 0
1, 33952, Note_on_c, 1, 47, 68
1, 33967, Note_on_c, 1, 47, 0
1, 33968, Note_on_c, 1, 44, 68
1, 33983, Note_on_c, 1, 44, 0
1, 33984, Note_on_c, 1, 40, 68
1, 34051, Note_on_c, 1, 40, 0
1, 34176, Note_on_c, 0, 78, 93
1, 34176, Note_on_c, 0, 75, 77
1, 34224, Note_on_c, 1, 59, 77
1, 34269, Note_on_c, 1, 59, 0
1, 34272, Note_on_c, 1, 66, 77
1, 34309, Note_on_c, 0, 75, 0
1, 34320, Note_on_c, 0, 78, 0
1, 34320, Note_on_c, 0, 76, 77
1, 34320, Note_on_c, 0, 73, 77
1, 34365, Note_on_c, 0, 76, 0
1, 34365, Note_on_c, 0, 73, 0
1, 34368, Note_on_c, 0, 75, 77
1, 34368, Note_on_c, 0, 71, 77
1, 34405, Note_on_c, 1, 66, 0
1, 34416, Note_on_c, 1, 68, 77
1, 34457, Note_on_c, 0, 75, 0
1, 34461, Note_on_c, 1, 68, 0
1, 34464, Note_on_c, 0, 73, 77
1, 34464, Note_on_c, 1, 65, 77
1, 34501, Note_on_c, 0, 71, 0
1, 34509, Note_on_c, 1, 65, 0
1, 34512, Note_on_c, 0, 70, 77
1, 34512, Note_on_c, 1, 66, 77
1, 34553, Note_on_c, 0, 73, 0
1, 34557, Note_on_c, 0, 70, 0
1, 34560, Note_on_c, 0, 71, 77
1, 34560, Note_on_c, 1, 63, 77
1, 34605, Note_on_c, 1, 63, 0
1, 34608, Note_on_c, 1, 59, 77
1, 34627, Note_on_c, 0, 71, 0
1, 34632, Note_on_c, 0, 73, 80
1, 34644, Note_on_c, 0, 73, 0
1, 34644, Note_on_c, 0, 75, 80
1, 34653, Note_on_c, 1, 59, 0
1, 34656, Note_on_c, 0, 75, 0
1, 34656, Note_on_c, 0, 76, 81
1, 34656, Note_on_c, 1, 58, 77
1, 34701, Note_on_c, 0, 76, 0
1, 34701, Note_on_c, 1, 58, 0
1, 34704, Note_on_c, 0, 75, 83
1, 34704, Note_on_c, 1, 59, 77
1, 34737, Note_on_c, 1, 66, 0
1, 34749, Note_on_c, 0, 75, 0
1, 34749, Note_on_c, 1, 59, 0
1, 34752, Note_on_c, 0, 75, 85
1, 34752, Note_on_c, 1, 68, 77
1, 34752, Note_on_c, 1, 64, 77
1, 34760, Note_on_c, 0, 75, 0
1, 34760, Note_on_c, 0, 73, 84
1, 34768, Note_on_c, 0, 73, 0
1, 34768, Note_on_c, 0, 75, 83
1, 34776, Note_on_c, 0, 75, 0
1, 34776, Note_on_c, 0, 73, 82
1, 34784, Note_on_c, 0, 73, 0
1, 34784, Note_on_c, 0, 75, 81
1, 34792, Note_on_c, 0, 75, 0
1, 34792, Note_on_c, 0, 73, 80
1, 34797, Note_on_c, 1, 68, 0
1, 34797, Note_on_c, 1, 64, 0
1, 34800, Note_on_c, 0, 73, 0
1, 34800, Note_on_c, 0, 71, 77
1, 34800, Note_on_c, 1, 66, 77
1, 34800, Note_on_c, 1, 63, 77
1, 34845, Note_on_c, 1, 66, 0
1, 34845, Note_on_c, 1, 63, 0
1, 34871, Note_on_c, 0, 71, 0
1, 34872, Note_on_c, 0, 73, 68
1, 34884, Note_on_c, 0, 73, 0
1, 34884, Note_on_c, 0, 75, 69
1, 34896, Note_on_c, 0, 75, 0
1, 34896, Note_on_c, 0, 76, 71
1, 34908, Note_on_c, 0, 76, 0
1, 34908, Note_on_c, 0, 78, 72
1, 34920, Note_on_c, 0, 78, 0
1, 34920, Note_on_c, 0, 80, 74
1, 34932, Note_on_c, 0, 80, 0
1, 34932, Note_on_c, 0, 81, 75
1, 34944, Note_on_c, 0, 81, 0
1, 34944, Note_on_c, 0, 83, 93
1, 34944, Note_on_c, 0, 80, 77
1, 34992, Note_on_c, 1, 64, 77
1, 35037, Note_on_c, 1, 64, 0
1, 35040, Note_on_c, 1, 71, 77
1, 35077, Note_on_c, 0, 80, 0
1, 35088, Note_on_c, 0, 83, 0
1, 35088, Note_on_c, 0, 81, 77
1, 35088, Note_on_c, 0, 78, 77
1, 35133, Note_on_c, 0, 81, 0
1, 35133, Note_on_c, 0, 78, 0
1, 35136, Note_on_c, 0, 80, 77
1, 35136, Note_on_c, 0, 76, 77
1, 35173, Note_on_c, 1, 71, 0
1, 35184, Note_on_c, 1, 73, 77
1, 35225, Note_on_c, 0, 80, 0
1, 35229, Note_on_c, 1, 73, 0
1, 35232, Note_on_c, 0, 78, 77
1, 35232, Note_on_c, 1, 70, 77
1, 35269, Note_on_c, 0, 76, 0
1, 35277, Note_on_c, 1, 70, 0
1, 35280, Note_on_c, 0, 75, 77
1, 35280, Note_on_c, 1, 71, 77
1, 35321, Note_on_c, 0, 78, 0
1, 35325, Note_on_c, 1, 71, 0
1, 35328, Note_on_c, 0, 76, 77
1, 35328, Note_on_c, 1, 68, 77
1, 35373, Note_on_c, 0, 75, 0
1, 35373, Note_on_c, 1, 68, 0
1, 35376, Note_on_c, 0, 73, 77
1, 35376, Note_on_c, 1, 69, 77
1, 35417, Note_on_c, 0, 76, 0
1, 35421, Note_on_c, 1, 69, 0
1, 35424, Note_on_c, 0, 75, 77
1, 35424, Note_on_c, 1, 66, 77
1, 35469, Note_on_c, 0, 73, 0
1, 35469, Note_on_c, 1, 66, 0
1, 35472, Note_on_c, 0, 72, 77
1, 35472, Note_on_c, 1, 68, 77
1, 35513, Note_on_c, 0, 75, 0
1, 35517, Note_on_c, 0, 72, 0
1, 35520, Note_on_c, 0, 73, 77
1, 35520, Note_on_c, 1, 64, 77
1, 35565, Note_on_c, 1, 64, 0
1, 35568, Note_on_c, 1, 61, 77
1, 35587, Note_on_c, 0, 73, 0
1, 35592, Note_on_c, 0, 75, 80
1, 35604, Note_on_c, 0, 75, 0
1, 35604, Note_on_c, 0, 76, 80
1, 35613, Note_on_c, 1, 61, 0
1, 35616, Note_on_c, 0, 76, 0
1, 35616, Note_on_c, 0, 78, 81
1, 35616, Note_on_c, 1, 60, 77
1, 35661, Note_on_c, 0, 78, 0
1, 35661, Note_on_c, 1, 60, 0
1, 35664, Note_on_c, 0, 76, 83
1, 35664, Note_on_c, 1, 61, 77
1, 35697, Note_on_c, 1, 68, 0
1, 35709, Note_on_c, 0, 76, 0
1, 35709, Note_on_c, 1, 61, 0
1, 35712, Note_on_c, 0, 75, 85
1, 35712, Note_on_c, 0, 72, 85
1, 35712, Note_on_c, 0, 68, 85
1, 35712, Note_on_c, 1, 56, 76
1, 35728, Note_on_c, 1, 56, 0
1, 35728, Note_on_c, 1, 60, 60
1, 35743, Note_on_c, 1, 60, 0
1, 35744, Note_on_c, 1, 63, 60
1, 35757, Note_on_c, 0, 75, 0
1, 35757, Note_on_c, 0, 72, 0
1, 35757, Note_on_c, 0, 68, 0
1, 35759, Note_on_c, 1, 63, 0
1, 35760, Note_on_c, 0, 80, 85
1, 35760, Note_on_c, 1, 56, 60
1, 35775, Note_on_c, 1, 56, 0
1, 35776, Note_on_c, 1, 60, 60
1, 35791, Note_on_c, 1, 60, 0
1, 35792, Note_on_c, 1, 63, 60
1, 35805, Note_on_c, 0, 80, 0
1, 35807, Note_on_c, 1, 63, 0
1, 35808, Note_on_c, 0, 80, 85
1, 35808, Note_on_c, 1, 56, 60
1, 35823, Note_on_c, 1, 56, 0
1, 35824, Note_on_c, 1, 60, 60
1, 35839, Note_on_c, 1, 60, 0
1, 35840, Note_on_c, 1, 63, 60
1, 35853, Note_on_c, 0, 80, 0
1, 35855, Note_on_c, 1, 63, 0
1, 35856, Note_on_c, 0, 80, 85
1, 35856, Note_on_c, 1, 56, 60
1, 35871, Note_on_c, 1, 56, 0
1, 35872, Note_on_c, 1, 60, 60
1, 35887, Note_on_c, 1, 60, 0
1, 35888, Note_on_c, 1, 63, 60
1, 35901, Note_on_c, 0, 80, 0
1, 35903, Note_on_c, 1, 63, 0
1, 35904, Note_on_c, 0, 81, 85
1, 35904, Note_on_c, 1, 56, 76
1, 35914, Note_on_c, 0, 81, 0
1, 35914, Note_on_c, 0, 80, 85
1, 35920, Note_on_c, 1, 56, 0
1, 35920, Note_on_c, 1, 61, 60
1, 35924, Note_on_c, 0, 80, 0
1, 35924, Note_on_c, 0, 81, 85
1, 35934, Note_on_c, 0, 81, 0
1, 35934, Note_on_c, 0, 80, 85
1, 35935, Note_on_c, 1, 61, 0
1, 35936, Note_on_c, 1, 64, 60
1, 35944, Note_on_c, 0, 80, 0
1, 35944, Note_on_c, 0, 81, 85
1, 35951, Note_on_c, 1, 64, 0
1, 35952, Note_on_c, 1, 61, 60
1, 35954, Note_on_c, 0, 81, 0
1, 35954, Note_on_c, 0, 80, 85
1, 35964, Note_on_c, 0, 80, 0
1, 35964, Note_on_c, 0, 81, 85
1, 35967, Note_on_c, 1, 61, 0
1, 35968, Note_on_c, 1, 56, 60
1, 35973, Note_on_c, 0, 81, 0
1, 35973, Note_on_c, 0, 80, 85
1, 35982, Note_on_c, 0, 80, 0
1, 35982, Note_on_c, 0, 81, 85
1, 35983, Note_on_c, 1, 56, 0
1, 35984, Note_on_c, 1, 64, 60
1, 35991, Note_on_c, 0, 81, 0
1, 35991, Note_on_c, 0, 80, 85
1, 35999, Note_on_c, 1, 64, 0
1, 36000, Note_on_c, 0, 80, 0
1, 36000, Note_on_c, 0, 68, 85
1, 36000, Note_on_c, 1, 56, 60
1, 36015, Note_on_c, 1, 56, 0
1, 36016, Note_on_c, 1, 61, 60
1, 36031, Note_on_c, 1, 61, 0
1, 36032, Note_on_c, 1, 64, 60
1, 36047, Note_on_c, 1, 64, 0
1, 36048, Note_on_c, 1, 56, 60
1, 36063, Note_on_c, 1, 56, 0
1, 36064, Note_on_c, 1, 61, 60
1, 36079, Note_on_c, 1, 61, 0
1, 36080, Note_on_c, 1, 64, 60
1, 36089, Note_on_c, 0, 68, 0
1, 36095, Note_on_c, 1, 64, 0
1, 36096, Note_on_c, 1, 56, 76
1, 36112, Note_on_c, 1, 56, 0
1, 36112, Note_on_c, 1, 63, 60
1, 36127, Note_on_c, 1, 63, 0
1, 36128, Note_on_c, 1, 66, 60
1, 36143, Note_on_c, 1, 66, 0
1, 36144, Note_on_c, 0, 80, 85
1, 36144, Note_on_c, 1, 56, 60
1, 36159, Note_on_c, 1, 56, 0
1, 36160, Note_on_c, 1, 63, 60
1, 36175, Note_on_c, 1, 63, 0
1, 36176, Note_on_c, 1, 66, 60
1, 36189, Note_on_c, 0, 80, 0
1, 36191, Note_on_c, 1, 66, 0
1, 36192, Note_on_c, 0, 80, 85
1, 36192, Note_on_c, 1, 56, 60
1, 36207, Note_on_c, 1, 56, 0
1, 36208, Note_on_c, 1, 63, 60
1, 36223, Note_on_c, 1, 63, 0
1, 36224, Note_on_c, 1, 66, 60
1, 36237, Note_on_c, 0, 80, 0
1, 36239, Note_on_c, 1, 66, 0
1, 36240, Note_on_c, 0, 80, 85
1, 36240, Note_on_c, 1, 56, 60
1, 36255, Note_on_c, 1, 56, 0
1, 36256, Note_on_c, 1, 63, 60
1, 36271, Note_on_c, 1, 63, 0
1, 36272, Note_on_c, 1, 66, 60
1, 36285, Note_on_c, 0, 80, 0
1, 36287, Note_on_c, 1, 66, 0
1, 36288, Note_on_c, 0, 81, 85
1, 36288, Note_on_c, 1, 56, 76
1, 36298, Note_on_c, 0, 81, 0
1, 36298, Note_on_c, 0, 80, 85
1, 36304, Note_on_c, 1, 56, 0
1, 36304, Note_on_c, 1, 61, 60
1, 36308, Note_on_c, 0, 80, 0
1, 36308, Note_on_c, 0, 81, 85
1, 36318, Note_on_c, 0, 81, 0
1, 36318, Note_on_c, 0, 80, 85
1, 36319, Note_on_c, 1, 61, 0
1, 36320, Note_on_c, 1, 64, 60
1, 36328, Note_on_c, 0, 80, 0
1, 36328, Note_on_c, 0, 81, 85
1, 36335, Note_on_c, 1, 64, 0
1, 36336, Note_on_c, 1, 61, 60
1, 36338, Note_on_c, 0, 81, 0
1, 36338, Note_on_c, 0, 80, 85
1, 36348, Note_on_c, 0, 80, 0
1, 36348, Note_on_c, 0, 81, 85
1, 36351, Note_on_c, 1, 61, 0
1, 36352, Note_on_c, 1, 56, 60
1, 36357, Note_on_c, 0, 81, 0
1, 36357, Note_on_c, 0, 80, 85
1, 36366, Note_on_c, 0, 80, 0
1, 36366, Note_on_c, 0, 81, 85
1, 36367, Note_on_c, 1, 56, 0
1, 36368, Note_on_c, 1, 64, 60
1, 36375, Note_on_c, 0, 81, 0
1, 36375, Note_on_c, 0, 80, 85
1, 36383, Note_on_c, 1, 64, 0
1, 36384, Note_on_c, 0, 80, 0
1, 36384, Note_on_c, 0, 68, 85
1, 36384, Note_on_c, 1, 56, 60
1, 36399, Note_on_c, 1, 56, 0
1, 36400, Note_on_c, 1, 61, 60
1, 36415, Note_on_c, 1, 61, 0
1, 36416, Note_on_c, 1, 64, 60
1, 36431, Note_on_c, 1, 64, 0
1, 36432, Note_on_c, 1, 56, 60
1, 36447, Note_on_c, 1, 56, 0
1, 36448, Note_on_c, 1, 61, 60
1, 36463, Note_on_c, 1, 61, 0
1, 36464, Note_on_c, 1, 64, 60
1, 36473, Note_on_c, 0, 68, 0
1, 36479, Note_on_c, 1, 64, 0
1, 36480, Note_on_c, 1, 56, 76
1, 36496, Note_on_c, 1, 56, 0
1, 36496, Note_on_c, 1, 59, 60
1, 36511, Note_on_c, 1, 59, 0
1, 36512, Note_on_c, 1, 65, 60
1, 36527, Note_on_c, 1, 65, 0
1, 36528, Note_on_c, 0, 86, 85
1, 36528, Note_on_c, 1, 56, 60
1, 36543, Note_on_c, 1, 56, 0
1, 36544, Note_on_c, 1, 59, 60
1, 36559, Note_on_c, 1, 59, 0
1, 36560, Note_on_c, 1, 65, 60
1, 36573, Note_on_c, 0, 86, 0
1, 36575, Note_on_c, 1, 65, 0
1, 36576, Note_on_c, 0, 86, 85
1, 36576, Note_on_c, 1, 56, 60
1, 36591, Note_on_c, 1, 56, 0
1, 36592, Note_on_c, 1, 59, 60
1, 36607, Note_on_c, 1, 59, 0
1, 36608, Note_on_c, 1, 65, 60
1, 36621, Note_on_c, 0, 86, 0
1, 36623, Note_on_c, 1, 65, 0
1, 36624, Note_on_c, 0, 86, 85
1, 36624, Note_on_c, 1, 56, 60
1, 36639, Note_on_c, 1, 56, 0
1, 36640, Note_on_c, 1, 59, 60
1, 36655, Note_on_c, 1, 59, 0
1, 36656, Note_on_c, 1, 65, 60
1, 36669, Note_on_c, 0, 86, 0
1, 36671, Note_on_c, 1, 65, 0
1, 36672, Note_on_c, 0, 88, 85
1, 36672, Note_on_c, 1, 56, 76
1, 36682, Note_on_c, 0, 88, 0
1, 36682, Note_on_c, 0, 86, 85
1, 36688, Note_on_c, 1, 56, 0
1, 36688, Note_on_c, 1, 59, 60
1, 36692, Note_on_c, 0, 86, 0
1, 36692, Note_on_c, 0, 88, 85
1, 36702, Note_on_c, 0, 88, 0
1, 36702, Note_on_c, 0, 86, 85
1, 36703, Note_on_c, 1, 59, 0
1, 36704, Note_on_c, 1, 65, 60
1, 36712, Note_on_c, 0, 86, 0
1, 36712, Note_on_c, 0, 88, 85
1, 36719, Note_on_c, 1, 65, 0
1, 36720, Note_on_c, 1, 56, 60
1, 36722, Note_on_c, 0, 88, 0
1, 36722, Note_on_c, 0, 86, 85
1, 36732, Note_on_c, 0, 86, 0
1, 36732, Note_on_c, 0, 88, 85
1, 36735, Note_on_c, 1, 56, 0
1, 36736, Note_on_c, 1, 59, 60
1, 36741, Note_on_c, 0, 88, 0
1, 36741, Note_on_c, 0, 86, 85
1, 36750, Note_on_c, 0, 86, 0
1, 36750, Note_on_c, 0, 88, 85
1, 36751, Note_on_c, 1, 59, 0
1, 36752, Note_on_c, 1, 65, 60
1, 36759, Note_on_c, 0, 88, 0
1, 36759, Note_on_c, 0, 86, 85
1, 36767, Note_on_c, 1, 65, 0
1, 36768, Note_on_c, 0, 86, 0
1, 36768, Note_on_c, 0, 77, 85
1, 36768, Note_on_c, 1, 56, 60
1, 36783, Note_on_c, 1, 56, 0
1, 36784, Note_on_c, 1, 59, 60
1, 36799, Note_on_c, 1, 59, 0
1, 36800, Note_on_c, 1, 65, 60
1, 36815, Note_on_c, 1, 65, 0
1, 36816, Note_on_c, 1, 56, 60
1, 36831, Note_on_c, 1, 56, 0
1, 36832, Note_on_c, 1, 59, 60
1, 36847, Note_on_c, 1, 59, 0
1, 36848, Note_on_c, 1, 65, 60
1, 36857, Note_on_c, 0, 77, 0
1, 36863, Note_on_c, 1, 65, 0
1, 36864, Note_on_c, 1, 66, 77
1, 36864, Note_on_c, 1, 61, 77
1, 36864, Note_on_c, 1, 57, 77
1, 36880, Note_on_c, 0, 85, 85
1, 36895, Note_on_c, 0, 85, 0
1, 36896, Note_on_c, 0, 83, 85
1, 36909, Note_on_c, 1, 66, 0
1, 36909, Note_on_c, 1, 61, 0
1, 36909, Note_on_c, 1, 57, 0
1, 36911, Note_on_c, 0, 83, 0
1, 36912, Note_on_c, 0, 81, 85
1, 36927, Note_on_c, 0, 81, 0
1, 36928, Note_on_c, 0, 80, 85
1, 36943, Note_on_c, 0, 80, 0
1, 36944, Note_on_c, 0, 78, 85
1, 36959, Note_on_c, 0, 78, 0
1, 36960, Note_on_c, 1, 66, 77
1, 36960, Note_on_c, 1, 61, 77
1, 36960, Note_on_c, 1, 57, 77
1, 36976, Note_on_c, 0, 85, 85
1, 36991, Note_on_c, 0, 85, 0
1, 36992, Note_on_c, 0, 83, 85
1, 37005, Note_on_c, 1, 66, 0
1, 37005, Note_on_c, 1, 61, 0
1, 37005, Note_on_c, 1, 57, 0
1, 37007, Note_on_c, 0, 83, 0
1, 37008, Note_on_c, 0, 81, 85
1, 37023, Note_on_c, 0, 81, 0
1, 37024, Note_on_c, 0, 80, 85
1, 37039, Note_on_c, 0, 80, 0
1, 37040, Note_on_c, 0, 78, 85
1, 37055, Note_on_c, 0, 78, 0
1, 37056, Note_on_c, 1, 61, 77
1, 37056, Note_on_c, 1, 57, 77
1, 37072, Note_on_c, 0, 88, 101
1, 37088, Note_on_c, 0, 88, 0
1, 37088, Note_on_c, 0, 87, 86
1, 37103, Note_on_c, 0, 87, 0
1, 37104, Note_on_c, 0, 85, 87
1, 37119, Note_on_c, 0, 85, 0
1, 37120, Note_on_c, 0, 83, 89
1, 37135, Note_on_c, 0, 83, 0
1, 37136, Note_on_c, 0, 81, 90
1, 37151, Note_on_c, 0, 81, 0
1, 37152, Note_on_c, 0, 80, 92
1, 37189, Note_on_c, 1, 61, 0
1, 37189, Note_on_c, 1, 57, 0
1, 37197, Note_on_c, 0, 80, 0
1, 37200, Note_on_c, 0, 79, 97
1, 37200, Note_on_c, 1, 61, 77
1, 37200, Note_on_c, 1, 57, 77
1, 37245, Note_on_c, 0, 79, 0
1, 37245, Note_on_c, 1, 61, 0
1, 37245, Note_on_c, 1, 57, 0
1, 37248, Note_on_c, 0, 79, 106
1, 37248, Note_on_c, 1, 61, 77
1, 37248, Note_on_c, 1, 56, 77
1, 37337, Note_on_c, 0, 79, 0
1, 37344, Note_on_c, 0, 81, 106
1, 37344, Note_on_c, 1, 61, 0
1, 37344, Note_on_c, 1, 60, 77
1, 37350, Note_on_c, 0, 81, 0
1, 37350, Note_on_c, 0, 80, 106
1, 37356, Note_on_c, 0, 80, 0
1, 37356, Note_on_c, 0, 79, 106
1, 37362, Note_on_c, 0, 79, 0
1, 37362, Note_on_c, 0, 80, 106
1, 37425, Note_on_c, 1, 56, 0
1, 37521, Note_on_c, 0, 80, 0
1, 37521, Note_on_c, 1, 60, 0
1, 37632, Note_on_c, 1, 49, 85
1, 37632, Note_on_c, 1, 37, 85
1, 37648, Note_on_c, 0, 73, 85
1, 37663, Note_on_c, 0, 73, 0
1, 37664, Note_on_c, 0, 71, 85
1, 37679, Note_on_c, 0, 71, 0
1, 37680, Note_on_c, 0, 69, 85
1, 37695, Note_on_c, 0, 69, 0
1, 37696, Note_on_c, 0, 68, 85
1, 37711, Note_on_c, 0, 68, 0
1, 37712, Note_on_c, 0, 66, 85
1, 37721, Note_on_c, 1, 49, 0
1, 37721, Note_on_c, 1, 37, 0
1, 37727, Note_on_c, 0, 66, 0
1, 37728, Note_on_c, 0, 64, 85
1, 37743, Note_on_c, 0, 64, 0
1, 37744, Note_on_c, 0, 63, 85
1, 37759, Note_on_c, 0, 63, 0
1, 37760, Note_on_c, 0, 61, 85
1, 37775, Note_on_c, 0, 61, 0
1, 37776, Note_on_c, 0, 60, 85
1, 37776, Note_on_c, 1, 54, 85
1, 37791, Note_on_c, 0, 60, 0
1, 37792, Note_on_c, 0, 63, 85
1, 37796, Note_on_c, 1, 54, 0
1, 37807, Note_on_c, 0, 63, 0
1, 37808, Note_on_c, 0, 68, 85
1, 37823, Note_on_c, 0, 68, 0
1, 37824, Note_on_c, 0, 61, 85
1, 37824, Note_on_c, 1, 52, 85
1, 37839, Note_on_c, 0, 61, 0
1, 37840, Note_on_c, 0, 64, 85
1, 37844, Note_on_c, 1, 52, 0
1, 37855, Note_on_c, 0, 64, 0
1, 37856, Note_on_c, 0, 68, 85
1, 37871, Note_on_c, 0, 68, 0
1, 37872, Note_on_c, 0, 63, 85
1, 37872, Note_on_c, 1, 48, 85
1, 37887, Note_on_c, 0, 63, 0
1, 37888, Note_on_c, 0, 66, 85
1, 37892, Note_on_c, 1, 48, 0
1, 37903, Note_on_c, 0, 66, 0
1, 37904, Note_on_c, 0, 68, 85
1, 37919, Note_on_c, 0, 68, 0
1, 37920, Note_on_c, 0, 64, 85
1, 37920, Note_on_c, 1, 49, 85
1, 37935, Note_on_c, 0, 64, 0
1, 37936, Note_on_c, 0, 66, 85
1, 37940, Note_on_c, 1, 49, 0
1, 37951, Note_on_c, 0, 66, 0
1, 37952, Note_on_c, 0, 68, 85
1, 37967, Note_on_c, 0, 68, 0
1, 37968, Note_on_c, 0, 66, 85
1, 37968, Note_on_c, 1, 51, 85
1, 37983, Note_on_c, 0, 66, 0
1, 37984, Note_on_c, 0, 68, 85
1, 37988, Note_on_c, 1, 51, 0
1, 37999, Note_on_c, 0, 68, 0
1, 38000, Note_on_c, 0, 69, 85
1, 38015, Note_on_c, 0, 69, 0
1, 38016, Note_on_c, 0, 68, 85
1, 38016, Note_on_c, 1, 52, 85
1, 38031, Note_on_c, 0, 68, 0
1, 38032, Note_on_c, 0, 73, 85
1, 38047, Note_on_c, 0, 73, 0
1, 38048, Note_on_c, 0, 71, 85
1, 38063, Note_on_c, 0, 71, 0
1, 38064, Note_on_c, 0, 69, 85
1, 38079, Note_on_c, 0, 69, 0
1, 38080, Note_on_c, 0, 68, 85
1, 38095, Note_on_c, 0, 68, 0
1, 38096, Note_on_c, 0, 66, 85
1, 38105, Note_on_c, 1, 52, 0
1, 38111, Note_on_c, 0, 66, 0
1, 38112, Note_on_c, 0, 64, 85
1, 38127, Note_on_c, 0, 64, 0
1, 38128, Note_on_c, 0, 63, 85
1, 38143, Note_on_c, 0, 63, 0
1, 38144, Note_on_c, 0, 61, 85
1, 38159, Note_on_c, 0, 61, 0
1, 38160, Note_on_c, 0, 60, 85
1, 38160, Note_on_c, 1, 54, 85
1, 38175, Note_on_c, 0, 60, 0
1, 38176, Note_on_c, 0, 63, 85
1, 38180, Note_on_c, 1, 54, 0
1, 38191, Note_on_c, 0, 63, 0
1, 38192, Note_on_c, 0, 68, 85
1, 38207, Note_on_c, 0, 68, 0
1, 38208, Note_on_c, 0, 61, 85
1, 38208, Note_on_c, 1, 52, 85
1, 38223, Note_on_c, 0, 61, 0
1, 38224, Note_on_c, 0, 64, 85
1, 38228, Note_on_c, 1, 52, 0
1, 38239, Note_on_c, 0, 64, 0
1, 38240, Note_on_c, 0, 68, 85
1, 38255, Note_on_c, 0, 68, 0
1, 38256, Note_on_c, 0, 63, 85
1, 38256, Note_on_c, 1, 48, 85
1, 38271, Note_on_c, 0, 63, 0
1, 38272, Note_on_c, 0, 66, 85
1, 38276, Note_on_c, 1, 48, 0
1, 38287, Note_on_c, 0, 66, 0
1, 38288, Note_on_c, 0, 68, 85
1, 38303, Note_on_c, 0, 68, 0
1, 38304, Note_on_c, 0, 64, 85
1, 38304, Note_on_c, 1, 49, 85
1, 38319, Note_on_c, 0, 64, 0
1, 38320, Note_on_c, 0, 66, 85
1, 38324, Note_on_c, 1, 49, 0
1, 38335, Note_on_c, 0, 66, 0
1, 38336, Note_on_c, 0, 68, 85
1, 38351, Note_on_c, 0, 68, 0
1, 38352, Note_on_c, 0, 66, 85
1, 38352, Note_on_c, 1, 51, 85
1, 38367, Note_on_c, 0, 66, 0
1, 38368, Note_on_c, 0, 68, 85
1, 38372, Note_on_c, 1, 51, 0
1, 38383, Note_on_c, 0, 68, 0
1, 38384, Note_on_c, 0, 69, 85
1, 38399, Note_on_c, 0, 69, 0
1, 38400, Note_on_c, 0, 68, 85
1, 38400, Note_on_c, 1, 52, 85
1, 38415, Note_on_c, 0, 68, 0
1, 38416, Note_on_c, 0, 73, 85
1, 38431, Note_on_c, 0, 73, 0
1, 38432, Note_on_c, 0, 71, 85
1, 38447, Note_on_c, 0, 71, 0
1, 38448, Note_on_c, 0, 69, 85
1, 38463, Note_on_c, 0, 69, 0
1, 38464, Note_on_c, 0, 68, 85
1, 38479, Note_on_c, 0, 68, 0
1, 38480, Note_on_c, 0, 66, 85
1, 38489, Note_on_c, 1, 52, 0
1, 38495, Note_on_c, 0, 66, 0
1, 38496, Note_on_c, 0, 64, 85
1, 38511, Note_on_c, 0, 64, 0
1, 38512, Note_on_c, 0, 63, 85
1, 38527, Note_on_c, 0, 63, 0
1, 38528, Note_on_c, 0, 61, 85
1, 38543, Note_on_c, 0, 61, 0
1, 38544, Note_on_c, 0, 60, 85
1, 38544, Note_on_c, 1, 54, 85
1, 38559, Note_on_c, 0, 60, 0
1, 38560, Note_on_c, 0, 63, 85
1, 38575, Note_on_c, 0, 63, 0
1, 38576, Note_on_c, 0, 68, 85
1, 38589, Note_on_c, 1, 54, 0
1, 38591, Note_on_c, 0, 68, 0
1, 38592, Note_on_c, 0, 61, 85
1, 38592, Note_on_c, 1, 52, 85
1, 38607, Note_on_c, 0, 61, 0
1, 38608, Note_on_c, 0, 64, 85
1, 38623, Note_on_c, 0, 64, 0
1, 38624, Note_on_c, 0, 68, 85
1, 38639, Note_on_c, 0, 68, 0
1, 38640, Note_on_c, 0, 61, 85
1, 38655, Note_on_c, 0, 61, 0
1, 38656, Note_on_c, 0, 64, 85
1, 38671, Note_on_c, 0, 64, 0
1, 38672, Note_on_c, 0, 68, 85
1, 38687, Note_on_c, 0, 68, 0
1, 38688, Note_on_c, 0, 59, 85
1, 38688, Note_on_c, 1, 40, 85
1, 38703, Note_on_c, 0, 59, 0
1, 38704, Note_on_c, 0, 62, 85
1, 38719, Note_on_c, 0, 62, 0
1, 38720, Note_on_c, 0, 68, 85
1, 38735, Note_on_c, 0, 68, 0
1, 38736, Note_on_c, 0, 59, 85
1, 38751, Note_on_c, 0, 59, 0
1, 38752, Note_on_c, 0, 62, 85
1, 38767, Note_on_c, 0, 62, 0
1, 38768, Note_on_c, 0, 68, 85
1, 38783, Note_on_c, 0, 68, 0
1, 38784, Note_on_c, 0, 61, 85
1, 38799, Note_on_c, 0, 61, 0
1, 38800, Note_on_c, 0, 64, 85
1, 38815, Note_on_c, 0, 64, 0
1, 38816, Note_on_c, 0, 69, 85
1, 38831, Note_on_c, 0, 69, 0
1, 38832, Note_on_c, 0, 61, 85
1, 38847, Note_on_c, 0, 61, 0
1, 38848, Note_on_c, 0, 64, 85
1, 38863, Note_on_c, 0, 64, 0
1, 38864, Note_on_c, 0, 69, 85
1, 38873, Note_on_c, 1, 40, 0
1, 38879, Note_on_c, 0, 69, 0
1, 38880, Note_on_c, 0, 64, 85
1, 38880, Note_on_c, 1, 44, 85
1, 38895, Note_on_c, 0, 64, 0
1, 38896, Note_on_c, 0, 71, 85
1, 38911, Note_on_c, 0, 71, 0
1, 38912, Note_on_c, 0, 74, 85
1, 38927, Note_on_c, 0, 74, 0
1, 38928, Note_on_c, 0, 64, 85
1, 38943, Note_on_c, 0, 64, 0
1, 38944, Note_on_c, 0, 71, 85
1, 38959, Note_on_c, 0, 71, 0
1, 38960, Note_on_c, 0, 74, 85
1, 38961, Note_on_c, 1, 52, 0
1, 38969, Note_on_c, 1, 44, 0
1, 38975, Note_on_c, 0, 74, 0
1, 38976, Note_on_c, 0, 64, 85
1, 38976, Note_on_c, 1, 52, 85
1, 38976, Note_on_c, 1, 45, 85
1, 38991, Note_on_c, 0, 64, 0
1, 38992, Note_on_c, 0, 69, 85
1, 39007, Note_on_c, 0, 69, 0
1, 39008, Note_on_c, 0, 73, 85
1, 39023, Note_on_c, 0, 73, 0
1, 39024, Note_on_c, 0, 64, 85
1, 39039, Note_on_c, 0, 64, 0
1, 39040, Note_on_c, 0, 69, 85
1, 39055, Note_on_c, 0, 69, 0
1, 39056, Note_on_c, 0, 73, 85
1, 39065, Note_on_c, 1, 52, 0
1, 39065, Note_on_c, 1, 45, 0
1, 39071, Note_on_c, 0, 73, 0
1, 39072, Note_on_c, 0, 61, 85
1, 39072, Note_on_c, 1, 49, 85
1, 39072, Note_on_c, 1, 41, 85
1, 39087, Note_on_c, 0, 61, 0
1, 39088, Note_on_c, 0, 68, 85
1, 39103, Note_on_c, 0, 68, 0
1, 39104, Note_on_c, 0, 71, 85
1, 39119, Note_on_c, 0, 71, 0
1, 39120, Note_on_c, 0, 61, 85
1, 39135, Note_on_c, 0, 61, 0
1, 39136, Note_on_c, 0, 68, 85
1, 39151, Note_on_c, 0, 68, 0
1, 39152, Note_on_c, 0, 71, 85
1, 39161, Note_on_c, 1, 49, 0
1, 39161, Note_on_c, 1, 41, 0
1, 39167, Note_on_c, 0, 71, 0
1, 39168, Note_on_c, 0, 61, 85
1, 39168, Note_on_c, 1, 54, 85
1, 39168, Note_on_c, 1, 42, 85
1, 39183, Note_on_c, 0, 61, 0
1, 39184, Note_on_c, 0, 66, 101
1, 39200, Note_on_c, 0, 66, 0
1, 39200, Note_on_c, 0, 70, 85
1, 39215, Note_on_c, 0, 70, 0
1, 39216, Note_on_c, 0, 61, 85
1, 39231, Note_on_c, 0, 61, 0
1, 39232, Note_on_c, 0, 67, 101
1, 39248, Note_on_c, 0, 67, 0
1, 39248, Note_on_c, 0, 70, 85
1, 39263, Note_on_c, 0, 70, 0
1, 39264, Note_on_c, 0, 61, 85
1, 39279, Note_on_c, 0, 61, 0
1, 39280, Note_on_c, 0, 66, 101
1, 39296, Note_on_c, 0, 66, 0
1, 39296, Note_on_c, 0, 70, 85
1, 39311, Note_on_c, 0, 70, 0
1, 39312, Note_on_c, 0, 61, 85
1, 39327, Note_on_c, 0, 61, 0
1, 39328, Note_on_c, 0, 64, 101
1, 39344, Note_on_c, 0, 64, 0
1, 39344, Note_on_c, 0, 70, 85
1, 39345, Note_on_c, 1, 54, 0
1, 39345, Note_on_c, 1, 42, 0
1, 39359, Note_on_c, 0, 70, 0
1, 39360, Note_on_c, 0, 59, 101
1, 39360, Note_on_c, 1, 47, 85
1, 39360, Note_on_c, 1, 35, 85
1, 39376, Note_on_c, 0, 59, 0
1, 39376, Note_on_c, 0, 63, 85
1, 39391, Note_on_c, 0, 63, 0
1, 39392, Note_on_c, 0, 69, 85
1, 39407, Note_on_c, 0, 69, 0
1, 39408, Note_on_c, 0, 60, 101
1, 39424, Note_on_c, 0, 60, 0
1, 39424, Note_on_c, 0, 63, 85
1, 39439, Note_on_c, 0, 63, 0
1, 39440, Note_on_c, 0, 69, 85
1, 39455, Note_on_c, 0, 69, 0
1, 39456, Note_on_c, 0, 59, 101
1, 39472, Note_on_c, 0, 59, 0
1, 39472, Note_on_c, 0, 63, 85
1, 39487, Note_on_c, 0, 63, 0
1, 39488, Note_on_c, 0, 69, 85
1, 39503, Note_on_c, 0, 69, 0
1, 39504, Note_on_c, 0, 57, 101
1, 39520, Note_on_c, 0, 57, 0
1, 39520, Note_on_c, 0, 63, 85
1, 39535, Note_on_c, 0, 63, 0
1, 39536, Note_on_c, 0, 69, 85
1, 39537, Note_on_c, 1, 47, 0
1, 39537, Note_on_c, 1, 35, 0
1, 39551, Note_on_c, 0, 69, 0
1, 39552, Note_on_c, 0, 59, 85
1, 39552, Note_on_c, 1, 52, 85
1, 39552, Note_on_c, 1, 40, 85
1, 39567, Note_on_c, 0, 59, 0
1, 39568, Note_on_c, 0, 64, 85
1, 39583, Note_on_c, 0, 64, 0
1, 39584, Note_on_c, 0, 68, 85
1, 39599, Note_on_c, 0, 68, 0
1, 39599, Note_on_c, 1, 52, 0
1, 39599, Note_on_c, 1, 40, 0
1, 39600, Note_on_c, 0, 59, 85
1, 39600, Note_on_c, 1, 53, 85
1, 39600, Note_on_c, 1, 41, 85
1, 39615, Note_on_c, 0, 59, 0
1, 39616, Note_on_c, 0, 64, 85
1, 39631, Note_on_c, 0, 64, 0
1, 39632, Note_on_c, 0, 68, 85
1, 39647, Note_on_c, 0, 68, 0
1, 39647, Note_on_c, 1, 53, 0
1, 39647, Note_on_c, 1, 41, 0
1, 39648, Note_on_c, 0, 59, 85
1, 39648, Note_on_c, 1, 52, 85
1, 39648, Note_on_c, 1, 40, 85
1, 39663, Note_on_c, 0, 59, 0
1, 39664, Note_on_c, 0, 64, 85
1, 39679, Note_on_c, 0, 64, 0
1, 39680, Note_on_c, 0, 68, 85
1, 39695, Note_on_c, 0, 68, 0
1, 39695, Note_on_c, 1, 52, 0
1, 39695, Note_on_c, 1, 40, 0
1, 39696, Note_on_c, 0, 59, 85
1, 39696, Note_on_c, 1, 50, 85
1, 39696, Note_on_c, 1, 38, 85
1, 39711, Note_on_c, 0, 59, 0
1, 39712, Note_on_c, 0, 64, 85
1, 39727, Note_on_c, 0, 64, 0
1, 39728, Note_on_c, 0, 68, 85
1, 39743, Note_on_c, 0, 68, 0
1, 39743, Note_on_c, 1, 50, 0
1, 39743, Note_on_c, 1, 38, 0
1, 39744, Note_on_c, 0, 57, 85
1, 39744, Note_on_c, 1, 49, 85
1, 39744, Note_on_c, 1, 37, 85
1, 39759, Note_on_c, 0, 57, 0
1, 39760, Note_on_c, 0, 64, 85
1, 39775, Note_on_c, 0, 64, 0
1, 39776, Note_on_c, 0, 69, 85
1, 39791, Note_on_c, 0, 69, 0
1, 39792, Note_on_c, 0, 57, 85
1, 39807, Note_on_c, 0, 57, 0
1, 39808, Note_on_c, 0, 64, 85
1, 39823, Note_on_c, 0, 64, 0
1, 39824, Note_on_c, 0, 69, 85
1, 39833, Note_on_c, 1, 49, 0
1, 39833, Note_on_c, 1, 37, 0
1, 39839, Note_on_c, 0, 69, 0
1, 39840, Note_on_c, 0, 61, 85
1, 39840, Note_on_c, 1, 54, 85
1, 39840, Note_on_c, 1, 42, 85
1, 39855, Note_on_c, 0, 61, 0
1, 39856, Note_on_c, 0, 64, 85
1, 39871, Note_on_c, 0, 64, 0
1, 39872, Note_on_c, 0, 70, 85
1, 39887, Note_on_c, 0, 70, 0
1, 39888, Note_on_c, 0, 61, 85
1, 39903, Note_on_c, 0, 61, 0
1, 39904, Note_on_c, 0, 64, 85
1, 39919, Note_on_c, 0, 64, 0
1, 39920, Note_on_c, 0, 70, 85
1, 39929, Note_on_c, 1, 54, 0
1, 39929, Note_on_c, 1, 42, 0
1, 39935, Note_on_c, 0, 70, 0
1, 39936, Note_on_c, 0, 59, 85
1, 39936, Note_on_c, 1, 47, 85
1, 39936, Note_on_c, 1, 35, 85
1, 39951, Note_on_c, 0, 59, 0
1, 39952, Note_on_c, 0, 63, 85
1, 39967, Note_on_c, 0, 63, 0
1, 39968, Note_on_c, 0, 66, 85
1, 39983, Note_on_c, 0, 66, 0
1, 39984, Note_on_c, 0, 71, 85
1, 39999, Note_on_c, 0, 71, 0
1, 40000, Note_on_c, 0, 66, 85
1, 40015, Note_on_c, 0, 66, 0
1, 40016, Note_on_c, 0, 63, 85
1, 40025, Note_on_c, 1, 47, 0
1, 40025, Note_on_c, 1, 35, 0
1, 40031, Note_on_c, 0, 63, 0
1, 40032, Note_on_c, 0, 59, 85
1, 40047, Note_on_c, 0, 59, 0
1, 40048, Note_on_c, 0, 63, 85
1, 40063, Note_on_c, 0, 63, 0
1, 40064, Note_on_c, 0, 66, 85
1, 40079, Note_on_c, 0, 66, 0
1, 40080, Note_on_c, 0, 61, 85
1, 40080, Note_on_c, 1, 54, 85
1, 40080, Note_on_c, 1, 42, 85
1, 40095, Note_on_c, 0, 61, 0
1, 40096, Note_on_c, 0, 64, 85
1, 40111, Note_on_c, 0, 64, 0
1, 40112, Note_on_c, 0, 70, 85
1, 40125, Note_on_c, 1, 54, 0
1, 40125, Note_on_c, 1, 42, 0
1, 40127, Note_on_c, 0, 70, 0
1, 40128, Note_on_c, 0, 59, 85
1, 40128, Note_on_c, 1, 47, 85
1, 40128, Note_on_c, 1, 35, 85
1, 40143, Note_on_c, 0, 59, 0
1, 40144, Note_on_c, 0, 63, 85
1, 40159, Note_on_c, 0, 63, 0
1, 40160, Note_on_c, 0, 66, 85
1, 40175, Note_on_c, 0, 66, 0
1, 40176, Note_on_c, 0, 71, 85
1, 40191, Note_on_c, 0, 71, 0
1, 40192, Note_on_c, 0, 66, 85
1, 40207, Note_on_c, 0, 66, 0
1, 40208, Note_on_c, 0, 63, 85
1, 40217, Note_on_c, 1, 47, 0
1, 40217, Note_on_c, 1, 35, 0
1, 40223, Note_on_c, 0, 63, 0
1, 40224, Note_on_c, 0, 59, 85
1, 40239, Note_on_c, 0, 59, 0
1, 40240, Note_on_c, 0, 63, 85
1, 40255, Note_on_c, 0, 63, 0
1, 40256, Note_on_c, 0, 66, 85
1, 40271, Note_on_c, 0, 66, 0
1, 40272, Note_on_c, 0, 61, 85
1, 40272, Note_on_c, 1, 54, 85
1, 40272, Note_on_c, 1, 42, 85
1, 40287, Note_on_c, 0, 61, 0
1, 40288, Note_on_c, 0, 64, 85
1, 40303, Note_on_c, 0, 64, 0
1, 40304, Note_on_c, 0, 70, 85
1, 40317, Note_on_c, 1, 54, 0
1, 40317, Note_on_c, 1, 42, 0
1, 40319, Note_on_c, 0, 70, 0
1, 40320, Note_on_c, 0, 59, 85
1, 40320, Note_on_c, 1, 47, 85
1, 40320, Note_on_c, 1, 35, 85
1, 40335, Note_on_c, 0, 59, 0
1, 40336, Note_on_c, 0, 63, 85
1, 40351, Note_on_c, 0, 63, 0
1, 40352, Note_on_c, 0, 66, 85
1, 40367, Note_on_c, 0, 66, 0
1, 40368, Note_on_c, 0, 71, 85
1, 40383, Note_on_c, 0, 71, 0
1, 40384, Note_on_c, 0, 66, 85
1, 40399, Note_on_c, 0, 66, 0
1, 40400, Note_on_c, 0, 63, 85
1, 40409, Note_on_c, 1, 47, 0
1, 40409, Note_on_c, 1, 35, 0
1, 40415, Note_on_c, 0, 63, 0
1, 40416, Note_on_c, 1, 59, 85
1, 40431, Note_on_c, 1, 59, 0
1, 40432, Note_on_c, 1, 54, 85
1, 40447, Note_on_c, 1, 54, 0
1, 40448, Note_on_c, 1, 51, 85
1, 40463, Note_on_c, 1, 51, 0
1, 40464, Note_on_c, 1, 47, 85
1, 40479, Note_on_c, 1, 47, 0
1, 40480, Note_on_c, 1, 42, 85
1, 40495, Note_on_c, 1, 42, 0
1, 40496, Note_on_c, 1, 39, 85
1, 40511, Note_on_c, 1, 39, 0
1, 40512, Note_on_c, 1, 35, 85
1, 40624, Note_on_c, 0, 75, 85
1, 40639, Note_on_c, 0, 75, 0
1, 40640, Note_on_c, 0, 76, 83
1, 40655, Note_on_c, 0, 76, 0
1, 40656, Note_on_c, 0, 78, 82
1, 40671, Note_on_c, 0, 78, 0
1, 40672, Note_on_c, 0, 80, 81
1, 40687, Note_on_c, 0, 80, 0
1, 40688, Note_on_c, 0, 81, 80
1, 40697, Note_on_c, 1, 35, 0
1, 40703, Note_on_c, 0, 81, 0
1, 40704, Note_on_c, 0, 83, 93
1, 40704, Note_on_c, 0, 80, 77
1, 40720, Note_on_c, 1, 63, 85
1, 40735, Note_on_c, 1, 63, 0
1, 40736, Note_on_c, 1, 64, 83
1, 40751, Note_on_c, 1, 64, 0
1, 40752, Note_on_c, 1, 66, 82
1, 40767, Note_on_c, 1, 66, 0
1, 40768, Note_on_c, 1, 68, 81
1, 40783, Note_on_c, 1, 68, 0
1, 40784, Note_on_c, 1, 69, 80
1, 40799, Note_on_c, 1, 69, 0
1, 40800, Note_on_c, 1, 71, 77
1, 40837, Note_on_c, 0, 80, 0
1, 40848, Note_on_c, 0, 83, 0
1, 40848, Note_on_c, 0, 81, 77
1, 40848, Note_on_c, 0, 78, 77
1, 40893, Note_on_c, 0, 81, 0
1, 40893, Note_on_c, 0, 78, 0
1, 40896, Note_on_c, 0, 80, 77
1, 40896, Note_on_c, 0, 76, 77
1, 40933, Note_on_c, 1, 71, 0
1, 40944, Note_on_c, 1, 73, 77
1, 40985, Note_on_c, 0, 80, 0
1, 40989, Note_on_c, 1, 73, 0
1, 40992, Note_on_c, 0, 78, 77
1, 40992, Note_on_c, 1, 70, 77
1, 41029, Note_on_c, 0, 76, 0
1, 41037, Note_on_c, 1, 70, 0
1, 41040, Note_on_c, 0, 75, 77
1, 41040, Note_on_c, 1, 71, 77
1, 41081, Note_on_c, 0, 78, 0
1, 41085, Note_on_c, 0, 75, 0
1, 41088, Note_on_c, 0, 76, 77
1, 41088, Note_on_c, 1, 68, 85
1, 41133, Note_on_c, 1, 68, 0
1, 41136, Note_on_c, 1, 64, 85
1, 41155, Note_on_c, 0, 76, 0
1, 41160, Note_on_c, 0, 78, 83
1, 41172, Note_on_c, 0, 78, 0
1, 41172, Note_on_c, 0, 80, 84
1, 41181, Note_on_c, 1, 64, 0
1, 41184, Note_on_c, 0, 80, 0
1, 41184, Note_on_c, 0, 81, 85
1, 41184, Note_on_c, 1, 63, 85
1, 41229, Note_on_c, 0, 81, 0
1, 41229, Note_on_c, 1, 63, 0
1, 41232, Note_on_c, 0, 80, 85
1, 41232, Note_on_c, 1, 64, 85
1, 41265, Note_on_c, 1, 71, 0
1, 41277, Note_on_c, 0, 80, 0
1, 41277, Note_on_c, 1, 64, 0
1, 41280, Note_on_c, 0, 80, 85
1, 41280, Note_on_c, 1, 73, 77
1, 41280, Note_on_c, 1, 69, 85
1, 41288, Note_on_c, 0, 80, 0
1, 41288, Note_on_c, 0, 78, 84
1, 41296, Note_on_c, 0, 78, 0
1, 41296, Note_on_c, 0, 80, 84
1, 41304, Note_on_c, 0, 80, 0
1, 41304, Note_on_c, 0, 78, 83
1, 41312, Note_on_c, 0, 78, 0
1, 41312, Note_on_c, 0, 80, 83
1, 41320, Note_on_c, 0, 80, 0
1, 41320, Note_on_c, 0, 78, 82
1, 41325, Note_on_c, 1, 73, 0
1, 41325, Note_on_c, 1, 69, 0
1, 41328, Note_on_c, 0, 78, 0
1, 41328, Note_on_c, 0, 76, 82
1, 41328, Note_on_c, 1, 71, 77
1, 41328, Note_on_c, 1, 68, 85
1, 41373, Note_on_c, 0, 76, 0
1, 41373, Note_on_c, 1, 71, 0
1, 41373, Note_on_c, 1, 68, 0
1, 41472, Note_on_c, 0, 71, 93
1, 41472, Note_on_c, 0, 68, 77
1, 41520, Note_on_c, 1, 52, 77
1, 41565, Note_on_c, 1, 52, 0
1, 41568, Note_on_c, 1, 59, 77
1, 41605, Note_on_c, 0, 68, 0
1, 41616, Note_on_c, 0, 71, 0
1, 41616, Note_on_c, 0, 70, 77
1, 41616, Note_on_c, 0, 67, 77
1, 41661, Note_on_c, 0, 70, 0
1, 41661, Note_on_c, 0, 67, 0
1, 41664, Note_on_c, 0, 69, 77
1, 41664, Note_on_c, 0, 66, 77
1, 41701, Note_on_c, 1, 59, 0
1, 41709, Note_on_c, 0, 69, 0
1, 41709, Note_on_c, 0, 66, 0
1, 41712, Note_on_c, 0, 68, 77
1, 41712, Note_on_c, 0, 65, 77
1, 41712, Note_on_c, 1, 61, 77
1, 41757, Note_on_c, 0, 68, 0
1, 41757, Note_on_c, 0, 65, 0
1, 41757, Note_on_c, 1, 61, 0
1, 41760, Note_on_c, 0, 67, 77
1, 41760, Note_on_c, 0, 64, 77
1, 41760, Note_on_c, 1, 58, 77
1, 41805, Note_on_c, 0, 67, 0
1, 41805, Note_on_c, 0, 64, 0
1, 41805, Note_on_c, 1, 58, 0
1, 41808, Note_on_c, 0, 66, 77
1, 41808, Note_on_c, 0, 63, 77
1, 41808, Note_on_c, 1, 59, 77
1, 41853, Note_on_c, 0, 66, 0
1, 41853, Note_on_c, 0, 63, 0
1, 41856, Note_on_c, 0, 64, 77
1, 41856, Note_on_c, 1, 56, 85
1, 41901, Note_on_c, 1, 56, 0
1, 41904, Note_on_c, 1, 52, 85
1, 41923, Note_on_c, 0, 64, 0
1, 41928, Note_on_c, 0, 66, 80
1, 41940, Note_on_c, 0, 66, 0
1, 41940, Note_on_c, 0, 68, 80
1, 41949, Note_on_c, 1, 52, 0
1, 41952, Note_on_c, 0, 68, 0
1, 41952, Note_on_c, 0, 69, 81
1, 41952, Note_on_c, 1, 51, 85
1, 41997, Note_on_c, 0, 69, 0
1, 41997, Note_on_c, 1, 51, 0
1, 42000, Note_on_c, 0, 68, 83
1, 42000, Note_on_c, 1, 52, 85
1, 42033, Note_on_c, 1, 59, 0
1, 42045, Note_on_c, 0, 68, 0
1, 42045, Note_on_c, 1, 52, 0
1, 42048, Note_on_c, 0, 73, 85
1, 42048, Note_on_c, 0, 69, 85
1, 42048, Note_on_c, 0, 64, 85
1, 42048, Note_on_c, 1, 45, 77
1, 42068, Note_on_c, 0, 73, 0
1, 42068, Note_on_c, 0, 69, 0
1, 42068, Note_on_c, 0, 64, 0
1, 42068, Note_on_c, 1, 45, 0
1, 42096, Note_on_c, 0, 71, 85
1, 42096, Note_on_c, 0, 68, 85
1, 42096, Note_on_c, 0, 64, 85
1, 42096, Note_on_c, 1, 52, 77
1, 42116, Note_on_c, 0, 71, 0
1, 42116, Note_on_c, 0, 68, 0
1, 42116, Note_on_c, 0, 64, 0
1, 42116, Note_on_c, 1, 52, 0
1, 42240, Note_on_c, 0, 64, 77
1, 42252, Note_on_c, 0, 64, 0
1, 42252, Note_on_c, 0, 76, 77
1, 42288, Note_on_c, 1, 44, 68
1, 42288, Note_on_c, 1, 32, 68
1, 42333, Note_on_c, 1, 44, 0
1, 42333, Note_on_c, 1, 32, 0
1, 42336, Note_on_c, 1, 44, 68
1, 42336, Note_on_c, 1, 32, 68
1, 42351, Note_on_c, 0, 76, 0
1, 42352, Note_on_c, 0, 75, 77
1, 42367, Note_on_c, 0, 75, 0
1, 42368, Note_on_c, 0, 73, 77
1, 42381, Note_on_c, 1, 44, 0
1, 42381, Note_on_c, 1, 32, 0
1, 42383, Note_on_c, 0, 73, 0
1, 42384, Note_on_c, 0, 71, 77
1, 42399, Note_on_c, 0, 71, 0
1, 42400, Note_on_c, 0, 69, 77
1, 42415, Note_on_c, 0, 69, 0
1, 42416, Note_on_c, 0, 68, 77
1, 42431, Note_on_c, 0, 68, 0
1, 42432, Note_on_c, 0, 66, 77
1, 42452, Note_on_c, 0, 66, 0
1, 42480, Note_on_c, 1, 45, 68
1, 42480, Note_on_c, 1, 33, 68
1, 42525, Note_on_c, 1, 45, 0
1, 42525, Note_on_c, 1, 33, 0
1, 42528, Note_on_c, 1, 45, 68
1, 42528, Note_on_c, 1, 33, 68
1, 42544, Note_on_c, 0, 85, 77
1, 42559, Note_on_c, 0, 85, 0
1, 42560, Note_on_c, 0, 83, 77
1, 42573, Note_on_c, 1, 45, 0
1, 42573, Note_on_c, 1, 33, 0
1, 42575, Note_on_c, 0, 83, 0
1, 42576, Note_on_c, 0, 81, 77
1, 42591, Note_on_c, 0, 81, 0
1, 42592, Note_on_c, 0, 80, 77
1, 42607, Note_on_c, 0, 80, 0
1, 42608, Note_on_c, 0, 78, 77
1, 42623, Note_on_c, 0, 78, 0
1, 42624, Note_on_c, 0, 76, 77
1, 42639, Note_on_c, 0, 76, 0
1, 42640, Note_on_c, 0, 75, 77
1, 42655, Note_on_c, 0, 75, 0
1, 42656, Note_on_c, 0, 73, 77
1, 42671, Note_on_c, 0, 73, 0
1, 42672, Note_on_c, 0, 71, 77
1, 42672, Note_on_c, 1, 47, 68
1, 42672, Note_on_c, 1, 35, 68
1, 42687, Note_on_c, 0, 71, 0
1, 42688, Note_on_c, 0, 69, 77
1, 42703, Note_on_c, 0, 69, 0
1, 42704, Note_on_c, 0, 68, 77
1, 42717, Note_on_c, 1, 47, 0
1, 42717, Note_on_c, 1, 35, 0
1, 42719, Note_on_c, 0, 68, 0
1, 42720, Note_on_c, 0, 66, 77
1, 42720, Note_on_c, 1, 47, 68
1, 42720, Note_on_c, 1, 35, 68
1, 42735, Note_on_c, 0, 66, 0
1, 42736, Note_on_c, 0, 64, 78
1, 42751, Note_on_c, 0, 64, 0
1, 42752, Note_on_c, 0, 63, 79
1, 42765, Note_on_c, 1, 47, 0
1, 42765, Note_on_c, 1, 35, 0
1, 42767, Note_on_c, 0, 63, 0
1, 42768, Note_on_c, 0, 61, 80
1, 42768, Note_on_c, 1, 47, 68
1, 42768, Note_on_c, 1, 35, 68
1, 42783, Note_on_c, 0, 61, 0
1, 42784, Note_on_c, 0, 59, 81
1, 42799, Note_on_c, 0, 59, 0
1, 42800, Note_on_c, 0, 57, 82
1, 42813, Note_on_c, 1, 47, 0
1, 42813, Note_on_c, 1, 35, 0
1, 42815, Note_on_c, 0, 57, 0
1, 42816, Note_on_c, 0, 59, 85
1, 42861, Note_on_c, 0, 59, 0
1, 42864, Note_on_c, 0, 59, 85
1, 42864, Note_on_c, 1, 52, 68
1, 42864, Note_on_c, 1, 40, 68
1, 42872, Note_on_c, 0, 59, 0
1, 42872, Note_on_c, 0, 57, 84
1, 42880, Note_on_c, 0, 57, 0
1, 42880, Note_on_c, 0, 59, 84
1, 42888, Note_on_c, 0, 59, 0
1, 42888, Note_on_c, 0, 57, 83
1, 42896, Note_on_c, 0, 57, 0
1, 42896, Note_on_c, 0, 59, 83
1, 42904, Note_on_c, 0, 59, 0
1, 42904, Note_on_c, 0, 57, 82
1, 42909, Note_on_c, 1, 52, 0
1, 42909, Note_on_c, 1, 40, 0
1, 42912, Note_on_c, 0, 57, 0
1, 42912, Note_on_c, 0, 56, 82
1, 42912, Note_on_c, 1, 52, 68
1, 42912, Note_on_c, 1, 40, 68
1, 42957, Note_on_c, 0, 56, 0
1, 42957, Note_on_c, 1, 52, 0
1, 42957, Note_on_c, 1, 40, 0
1, 42960, Note_on_c, 1, 52, 68
1, 42960, Note_on_c, 1, 40, 68
1, 43005, Note_on_c, 1, 52, 0
1, 43005, Note_on_c, 1, 40, 0
1, 43008, Note_on_c, 0, 64, 77
1, 43020, Note_on_c, 0, 64, 0
1, 43020, Note_on_c, 0, 76, 77
1, 43056, Note_on_c, 1, 44, 68
1, 43056, Note_on_c, 1, 32, 68
1, 43101, Note_on_c, 1, 44, 0
1, 43101, Note_on_c, 1, 32, 0
1, 43104, Note_on_c, 1, 44, 68
1, 43104, Note_on_c, 1, 32, 68
1, 43119, Note_on_c, 0, 76, 0
1, 43120, Note_on_c, 0, 75, 77
1, 43135, Note_on_c, 0, 75, 0
1, 43136, Note_on_c, 0, 73, 77
1, 43149, Note_on_c, 1, 44, 0
1, 43149, Note_on_c, 1, 32, 0
1, 43151, Note_on_c, 0, 73, 0
1, 43152, Note_on_c, 0, 71, 77
1, 43167, Note_on_c, 0, 71, 0
1, 43168, Note_on_c, 0, 69, 77
1, 43183, Note_on_c, 0, 69, 0
1, 43184, Note_on_c, 0, 68, 77
1, 43199, Note_on_c, 0, 68, 0
1, 43200, Note_on_c, 0, 66, 77
1, 43245, Note_on_c, 0, 66, 0
1, 43248, Note_on_c, 1, 45, 68
1, 43248, Note_on_c, 1, 33, 68
1, 43293, Note_on_c, 1, 45, 0
1, 43293, Note_on_c, 1, 33, 0
1, 43296, Note_on_c, 1, 45, 68
1, 43296, Note_on_c, 1, 33, 68
1, 43312, Note_on_c, 0, 88, 77
1, 43327, Note_on_c, 0, 88, 0
1, 43328, Note_on_c, 0, 87, 77
1, 43341, Note_on_c, 1, 45, 0
1, 43341, Note_on_c, 1, 33, 0
1, 43343, Note_on_c, 0, 87, 0
1, 43344, Note_on_c, 0, 85, 77
1, 43359, Note_on_c, 0, 85, 0
1, 43360, Note_on_c, 0, 83, 77
1, 43375, Note_on_c, 0, 83, 0
1, 43376, Note_on_c, 0, 81, 77
1, 43391, Note_on_c, 0, 81, 0
1, 43392, Note_on_c, 0, 80, 77
1, 43407, Note_on_c, 0, 80, 0
1, 43408, Note_on_c, 0, 78, 77
1, 43423, Note_on_c, 0, 78, 0
1, 43424, Note_on_c, 0, 76, 77
1, 43439, Note_on_c, 0, 76, 0
1, 43440, Note_on_c, 0, 75, 77
1, 43440, Note_on_c, 1, 47, 68
1, 43440, Note_on_c, 1, 35, 68
1, 43455, Note_on_c, 0, 75, 0
1, 43456, Note_on_c, 0, 73, 77
1, 43471, Note_on_c, 0, 73, 0
1, 43472, Note_on_c, 0, 71, 77
1, 43485, Note_on_c, 1, 47, 0
1, 43485, Note_on_c, 1, 35, 0
1, 43487, Note_on_c, 0, 71, 0
1, 43488, Note_on_c, 0, 69, 77
1, 43488, Note_on_c, 1, 47, 68
1, 43488, Note_on_c, 1, 35, 68
1, 43503, Note_on_c, 0, 69, 0
1, 43504, Note_on_c, 0, 68, 78
1, 43519, Note_on_c, 0, 68, 0
1, 43520, Note_on_c, 0, 66, 79
1, 43533, Note_on_c, 1, 47, 0
1, 43533, Note_on_c, 1, 35, 0
1, 43535, Note_on_c, 0, 66, 0
1, 43536, Note_on_c, 0, 64, 80
1, 43536, Note_on_c, 1, 47, 68
1, 43536, Note_on_c, 1, 35, 68
1, 43551, Note_on_c, 0, 64, 0
1, 43552, Note_on_c, 0, 63, 81
1, 43567, Note_on_c, 0, 63, 0
1, 43568, Note_on_c, 0, 69, 82
1, 43581, Note_on_c, 1, 47, 0
1, 43581, Note_on_c, 1, 35, 0
1, 43583, Note_on_c, 0, 69, 0
1, 43584, Note_on_c, 0, 68, 85
1, 43599, Note_on_c, 0, 68, 0
1, 43600, Note_on_c, 0, 66, 85
1, 43615, Note_on_c, 0, 66, 0
1, 43616, Note_on_c, 0, 64, 85
1, 43631, Note_on_c, 0, 64, 0
1, 43632, Note_on_c, 0, 64, 85
1, 43632, Note_on_c, 1, 52, 68
1, 43647, Note_on_c, 1, 52, 0
1, 43648, Note_on_c, 1, 56, 69
1, 43652, Note_on_c, 0, 64, 0
1, 43663, Note_on_c, 1, 56, 0
1, 43664, Note_on_c, 1, 59, 71
1, 43679, Note_on_c, 1, 59, 0
1, 43680, Note_on_c, 1, 64, 73
1, 43695, Note_on_c, 1, 64, 0
1, 43696, Note_on_c, 1, 59, 75
1, 43711, Note_on_c, 1, 59, 0
1, 43712, Note_on_c, 1, 56, 77
1, 43727, Note_on_c, 1, 56, 0
1, 43728, Note_on_c, 1, 62, 75
1, 43743, Note_on_c, 1, 62, 0
1, 43744, Note_on_c, 1, 59, 74
1, 43759, Note_on_c, 1, 59, 0
1, 43760, Note_on_c, 1, 56, 73
1, 43775, Note_on_c, 1, 56, 0
1, 43776, Note_on_c, 0, 73, 68
1, 43776, Note_on_c, 1, 53, 60
1, 43821, Note_on_c, 1, 53, 0
1, 43824, Note_on_c, 1, 69, 60
1, 43824, Note_on_c, 1, 66, 85
1, 43872, Note_on_c, 1, 69, 0
1, 43872, Note_on_c, 1, 68, 60
1, 43872, Note_on_c, 1, 66, 0
1, 43872, Note_on_c, 1, 65, 85
1, 43895, Note_on_c, 0, 73, 0
1, 43896, Note_on_c, 0, 86, 68
1, 43902, Note_on_c, 0, 86, 0
1, 43902, Note_on_c, 0, 85, 68
1, 43908, Note_on_c, 0, 85, 0
1, 43908, Note_on_c, 0, 83, 68
1, 43914, Note_on_c, 0, 83, 0
1, 43914, Note_on_c, 0, 85, 68
1, 43917, Note_on_c, 1, 68, 0
1, 43917, Note_on_c, 1, 65, 0
1, 43920, Note_on_c, 0, 85, 0
1, 43920, Note_on_c, 0, 86, 68
1, 43920, Note_on_c, 1, 80, 60
1, 43920, Note_on_c, 1, 77, 85
1, 43954, Note_on_c, 0, 86, 0
1, 43956, Note_on_c, 0, 83, 68
1, 43965, Note_on_c, 1, 80, 0
1, 43965, Note_on_c, 1, 77, 0
1, 43968, Note_on_c, 0, 83, 0
1, 43968, Note_on_c, 0, 83, 84
1, 44016, Note_on_c, 1, 73, 60
1, 44016, Note_on_c, 1, 66, 85
1, 44061, Note_on_c, 1, 73, 0
1, 44061, Note_on_c, 1, 66, 0
1, 44064, Note_on_c, 0, 83, 0
1, 44064, Note_on_c, 0, 81, 68
1, 44064, Note_on_c, 1, 73, 60
1, 44064, Note_on_c, 1, 66, 85
1, 44070, Note_on_c, 0, 81, 0
1, 44070, Note_on_c, 0, 83, 68
1, 44076, Note_on_c, 0, 83, 0
1, 44076, Note_on_c, 0, 81, 68
1, 44109, Note_on_c, 1, 73, 0
1, 44109, Note_on_c, 1, 66, 0
1, 44110, Note_on_c, 0, 81, 0
1, 44112, Note_on_c, 0, 85, 68
1, 44112, Note_on_c, 1, 69, 85
1, 44146, Note_on_c, 0, 85, 0
1, 44148, Note_on_c, 0, 78, 68
1, 44157, Note_on_c, 1, 69, 0
1, 44160, Note_on_c, 0, 78, 0
1, 44160, Note_on_c, 0, 80, 84
1, 44160, Note_on_c, 1, 71, 60
1, 44205, Note_on_c, 1, 71, 0
1, 44208, Note_on_c, 1, 71, 60
1, 44253, Note_on_c, 1, 71, 0
1, 44256, Note_on_c, 1, 73, 60
1, 44301, Note_on_c, 1, 73, 0
1, 44304, Note_on_c, 0, 80, 0
1, 44304, Note_on_c, 0, 81, 68
1, 44304, Note_on_c, 1, 73, 60
1, 44338, Note_on_c, 0, 81, 0
1, 44340, Note_on_c, 0, 83, 68
1, 44349, Note_on_c, 1, 73, 0
1, 44352, Note_on_c, 0, 83, 0
1, 44352, Note_on_c, 0, 81, 68
1, 44352, Note_on_c, 1, 66, 60
1, 44364, Note_on_c, 0, 81, 0
1, 44364, Note_on_c, 0, 80, 68
1, 44376, Note_on_c, 0, 80, 0
1, 44376, Note_on_c, 0, 78, 68
1, 44397, Note_on_c, 1, 66, 0
1, 44399, Note_on_c, 0, 78, 0
1, 44416, Note_on_c, 0, 66, 85
1, 44416, Note_on_c, 1, 54, 85
1, 44431, Note_on_c, 0, 66, 0
1, 44431, Note_on_c, 1, 54, 0
1, 44432, Note_on_c, 0, 68, 85
1, 44432, Note_on_c, 1, 56, 85
1, 44447, Note_on_c, 0, 68, 0
1, 44447, Note_on_c, 1, 56, 0
1, 44448, Note_on_c, 0, 69, 85
1, 44448, Note_on_c, 1, 57, 85
1, 44463, Note_on_c, 0, 69, 0
1, 44463, Note_on_c, 1, 57, 0
1, 44464, Note_on_c, 0, 68, 85
1, 44464, Note_on_c, 1, 56, 85
1, 44479, Note_on_c, 0, 68, 0
1, 44479, Note_on_c, 1, 56, 0
1, 44480, Note_on_c, 0, 66, 85
1, 44480, Note_on_c, 1, 54, 85
1, 44495, Note_on_c, 0, 66, 0
1, 44495, Note_on_c, 1, 54, 0
1, 44496, Note_on_c, 0, 64, 85
1, 44496, Note_on_c, 1, 52, 85
1, 44511, Note_on_c, 0, 64, 0
1, 44511, Note_on_c, 1, 52, 0
1, 44512, Note_on_c, 0, 63, 85
1, 44512, Note_on_c, 1, 51, 85
1, 44527, Note_on_c, 0, 63, 0
1, 44527, Note_on_c, 1, 51, 0
1, 44528, Note_on_c, 0, 61, 85
1, 44528, Note_on_c, 1, 49, 85
1, 44543, Note_on_c, 0, 61, 0
1, 44543, Note_on_c, 1, 49, 0
1, 44544, Note_on_c, 0, 59, 85
1, 44544, Note_on_c, 1, 47, 85
1, 44589, Note_on_c, 0, 59, 0
1, 44589, Note_on_c, 1, 47, 0
1, 44592, Note_on_c, 0, 83, 77
1, 44640, Note_on_c, 1, 66, 68
1, 44640, Note_on_c, 1, 63, 68
1, 44663, Note_on_c, 0, 83, 0
1, 44664, Note_on_c, 0, 85, 77
1, 44670, Note_on_c, 0, 85, 0
1, 44670, Note_on_c, 0, 83, 77
1, 44676, Note_on_c, 0, 83, 0
1, 44676, Note_on_c, 0, 81, 77
1, 44682, Note_on_c, 0, 81, 0
1, 44682, Note_on_c, 0, 83, 77
1, 44685, Note_on_c, 1, 66, 0
1, 44685, Note_on_c, 1, 63, 0
1, 44688, Note_on_c, 0, 83, 0
1, 44688, Note_on_c, 0, 85, 77
1, 44722, Note_on_c, 0, 85, 0
1, 44724, Note_on_c, 0, 81, 77
1, 44736, Note_on_c, 0, 81, 0
1, 44736, Note_on_c, 0, 81, 93
1, 44784, Note_on_c, 1, 71, 68
1, 44784, Note_on_c, 1, 64, 68
1, 44829, Note_on_c, 1, 71, 0
1, 44829, Note_on_c, 1, 64, 0
1, 44832, Note_on_c, 0, 81, 0
1, 44832, Note_on_c, 0, 80, 77
1, 44832, Note_on_c, 1, 71, 68
1, 44832, Note_on_c, 1, 64, 68
1, 44877, Note_on_c, 0, 80, 0
1, 44877, Note_on_c, 1, 71, 0
1, 44877, Note_on_c, 1, 64, 0
1, 44880, Note_on_c, 0, 81, 77
1, 44880, Note_on_c, 1, 69, 68
1, 44880, Note_on_c, 1, 66, 68
1, 44914, Note_on_c, 0, 81, 0
1, 44916, Note_on_c, 0, 78, 77
1, 44925, Note_on_c, 1, 69, 0
1, 44925, Note_on_c, 1, 66, 0
1, 44928, Note_on_c, 0, 78, 0
1, 44928, Note_on_c, 0, 76, 77
1, 44928, Note_on_c, 1, 71, 68
1, 44928, Note_on_c, 1, 68, 68
1, 44943, Note_on_c, 0, 76, 0
1, 44944, Note_on_c, 0, 80, 78
1, 44959, Note_on_c, 0, 80, 0
1, 44960, Note_on_c, 0, 78, 79
1, 44975, Note_on_c, 0, 78, 0
1, 44976, Note_on_c, 0, 76, 80
1, 44991, Note_on_c, 0, 76, 0
1, 44992, Note_on_c, 0, 80, 81
1, 45007, Note_on_c, 0, 80, 0
1, 45008, Note_on_c, 0, 83, 82
1, 45017, Note_on_c, 1, 71, 0
1, 45017, Note_on_c, 1, 68, 0
1, 45023, Note_on_c, 0, 83, 0
1, 45024, Note_on_c, 0, 88, 83
1, 45039, Note_on_c, 0, 88, 0
1, 45040, Note_on_c, 0, 87, 84
1, 45055, Note_on_c, 0, 87, 0
1, 45056, Note_on_c, 0, 85, 85
1, 45071, Note_on_c, 0, 85, 0
1, 45072, Note_on_c, 0, 83, 84
1, 45072, Note_on_c, 1, 76, 68
1, 45072, Note_on_c, 1, 69, 68
1, 45087, Note_on_c, 0, 83, 0
1, 45088, Note_on_c, 0, 81, 83
1, 45103, Note_on_c, 0, 81, 0
1, 45104, Note_on_c, 0, 80, 82
1, 45117, Note_on_c, 1, 76, 0
1, 45117, Note_on_c, 1, 69, 0
1, 45119, Note_on_c, 0, 80, 0
1, 45120, Note_on_c, 0, 81, 77
1, 45120, Note_on_c, 1, 76, 68
1, 45120, Note_on_c, 1, 71, 68
1, 45128, Note_on_c, 0, 81, 0
1, 45128, Note_on_c, 0, 80, 77
1, 45136, Note_on_c, 0, 80, 0
1, 45136, Note_on_c, 0, 81, 77
1, 45144, Note_on_c, 0, 81, 0
1, 45144, Note_on_c, 0, 80, 77
1, 45152, Note_on_c, 0, 80, 0
1, 45152, Note_on_c, 0, 81, 77
1, 45160, Note_on_c, 0, 81, 0
1, 45160, Note_on_c, 0, 80, 77
1, 45165, Note_on_c, 1, 76, 0
1, 45168, Note_on_c, 0, 80, 0
1, 45168, Note_on_c, 0, 78, 77
1, 45168, Note_on_c, 1, 75, 68
1, 45209, Note_on_c, 1, 71, 0
1, 45213, Note_on_c, 0, 78, 0
1, 45213, Note_on_c, 1, 75, 0
1, 45216, Note_on_c, 1, 59, 68
1, 45231, Note_on_c, 1, 59, 0
1, 45232, Note_on_c, 1, 61, 69
1, 45247, Note_on_c, 1, 61, 0
1, 45248, Note_on_c, 1, 59, 70
1, 45263, Note_on_c, 1, 59, 0
1, 45264, Note_on_c, 1, 57, 71
1, 45279, Note_on_c, 1, 57, 0
1, 45280, Note_on_c, 1, 56, 72
1, 45295, Note_on_c, 1, 56, 0
1, 45296, Note_on_c, 1, 54, 73
1, 45311, Note_on_c, 1, 54, 0
1, 45312, Note_on_c, 1, 52, 74
1, 45328, Note_on_c, 0, 76, 85
1, 45343, Note_on_c, 0, 76, 0
1, 45344, Note_on_c, 0, 75, 85
1, 45359, Note_on_c, 0, 75, 0
1, 45360, Note_on_c, 0, 73, 85
1, 45375, Note_on_c, 0, 73, 0
1, 45376, Note_on_c, 0, 71, 85
1, 45391, Note_on_c, 0, 71, 0
1, 45392, Note_on_c, 0, 69, 85
1, 45401, Note_on_c, 1, 52, 0
1, 45407, Note_on_c, 0, 69, 0
1, 45408, Note_on_c, 0, 68, 85
1, 45423, Note_on_c, 0, 68, 0
1, 45424, Note_on_c, 0, 66, 85
1, 45439, Note_on_c, 0, 66, 0
1, 45440, Note_on_c, 0, 64, 85
1, 45455, Note_on_c, 0, 64, 0
1, 45456, Note_on_c, 0, 63, 85
1, 45456, Note_on_c, 1, 57, 85
1, 45471, Note_on_c, 0, 63, 0
1, 45472, Note_on_c, 0, 66, 85
1, 45476, Note_on_c, 1, 57, 0
1, 45487, Note_on_c, 0, 66, 0
1, 45488, Note_on_c, 0, 71, 85
1, 45503, Note_on_c, 0, 71, 0
1, 45504, Note_on_c, 0, 64, 85
1, 45504, Note_on_c, 1, 56, 85
1, 45519, Note_on_c, 0, 64, 0
1, 45520, Note_on_c, 0, 68, 85
1, 45524, Note_on_c, 1, 56, 0
1, 45535, Note_on_c, 0, 68, 0
1, 45536, Note_on_c, 0, 71, 85
1, 45551, Note_on_c, 0, 71, 0
1, 45552, Note_on_c, 0, 66, 85
1, 45552, Note_on_c, 1, 51, 85
1, 45567, Note_on_c, 0, 66, 0
1, 45568, Note_on_c, 0, 69, 85
1, 45572, Note_on_c, 1, 51, 0
1, 45583, Note_on_c, 0, 69, 0
1, 45584, Note_on_c, 0, 71, 85
1, 45599, Note_on_c, 0, 71, 0
1, 45600, Note_on_c, 0, 68, 85
1, 45600, Note_on_c, 1, 52, 85
1, 45615, Note_on_c, 0, 68, 0
1, 45616, Note_on_c, 0, 69, 85
1, 45620, Note_on_c, 1, 52, 0
1, 45631, Note_on_c, 0, 69, 0
1, 45632, Note_on_c, 0, 71, 85
1, 45647, Note_on_c, 0, 71, 0
1, 45648, Note_on_c, 0, 69, 85
1, 45648, Note_on_c, 1, 54, 85
1, 45663, Note_on_c, 0, 69, 0
1, 45664, Note_on_c, 0, 71, 85
1, 45668, Note_on_c, 1, 54, 0
1, 45679, Note_on_c, 0, 71, 0
1, 45680, Note_on_c, 0, 73, 85
1, 45695, Note_on_c, 0, 73, 0
1, 45696, Note_on_c, 0, 71, 85
1, 45696, Note_on_c, 1, 56, 85
1, 45711, Note_on_c, 0, 71, 0
1, 45712, Note_on_c, 0, 76, 85
1, 45727, Note_on_c, 0, 76, 0
1, 45728, Note_on_c, 0, 75, 85
1, 45743, Note_on_c, 0, 75, 0
1, 45744, Note_on_c, 0, 73, 85
1, 45759, Note_on_c, 0, 73, 0
1, 45760, Note_on_c, 0, 71, 85
1, 45775, Note_on_c, 0, 71, 0
1, 45776, Note_on_c, 0, 69, 85
1, 45785, Note_on_c, 1, 56, 0
1, 45791, Note_on_c, 0, 69, 0
1, 45792, Note_on_c, 0, 68, 85
1, 45807, Note_on_c, 0, 68, 0
1, 45808, Note_on_c, 0, 66, 85
1, 45823, Note_on_c, 0, 66, 0
1, 45824, Note_on_c, 0, 64, 85
1, 45839, Note_on_c, 0, 64, 0
1, 45840, Note_on_c, 0, 63, 85
1, 45840, Note_on_c, 1, 57, 85
1, 45855, Note_on_c, 0, 63, 0
1, 45856, Note_on_c, 0, 66, 85
1, 45860, Note_on_c, 1, 57, 0
1, 45871, Note_on_c, 0, 66, 0
1, 45872, Note_on_c, 0, 71, 85
1, 45887, Note_on_c, 0, 71, 0
1, 45888, Note_on_c, 0, 64, 85
1, 45888, Note_on_c, 1, 56, 85
1, 45903, Note_on_c, 0, 64, 0
1, 45904, Note_on_c, 0, 68, 85
1, 45908, Note_on_c, 1, 56, 0
1, 45919, Note_on_c, 0, 68, 0
1, 45920, Note_on_c, 0, 71, 85
1, 45935, Note_on_c, 0, 71, 0
1, 45936, Note_on_c, 0, 66, 85
1, 45936, Note_on_c, 1, 51, 85
1, 45951, Note_on_c, 0, 66, 0
1, 45952, Note_on_c, 0, 69, 85
1, 45956, Note_on_c, 1, 51, 0
1, 45967, Note_on_c, 0, 69, 0
1, 45968, Note_on_c, 0, 71, 85
1, 45983, Note_on_c, 0, 71, 0
1, 45984, Note_on_c, 0, 68, 85
1, 45984, Note_on_c, 1, 52, 85
1, 45999, Note_on_c, 0, 68, 0
1, 46000, Note_on_c, 0, 69, 85
1, 46004, Note_on_c, 1, 52, 0
1, 46015, Note_on_c, 0, 69, 0
1, 46016, Note_on_c, 0, 71, 85
1, 46031, Note_on_c, 0, 71, 0
1, 46032, Note_on_c, 0, 69, 85
1, 46032, Note_on_c, 1, 54, 85
1, 46047, Note_on_c, 0, 69, 0
1, 46048, Note_on_c, 0, 71, 85
1, 46052, Note_on_c, 1, 54, 0
1, 46063, Note_on_c, 0, 71, 0
1, 46064, Note_on_c, 0, 73, 85
1, 46079, Note_on_c, 0, 73, 0
1, 46080, Note_on_c, 0, 71, 85
1, 46080, Note_on_c, 1, 56, 85
1, 46095, Note_on_c, 0, 71, 0
1, 46096, Note_on_c, 0, 76, 85
1, 46111, Note_on_c, 0, 76, 0
1, 46112, Note_on_c, 0, 75, 85
1, 46127, Note_on_c, 0, 75, 0
1, 46128, Note_on_c, 0, 73, 85
1, 46143, Note_on_c, 0, 73, 0
1, 46144, Note_on_c, 0, 71, 85
1, 46159, Note_on_c, 0, 71, 0
1, 46160, Note_on_c, 0, 69, 85
1, 46169, Note_on_c, 1, 56, 0
1, 46175, Note_on_c, 0, 69, 0
1, 46176, Note_on_c, 0, 68, 85
1, 46191, Note_on_c, 0, 68, 0
1, 46192, Note_on_c, 0, 66, 84
1, 46207, Note_on_c, 0, 66, 0
1, 46208, Note_on_c, 0, 64, 83
1, 46223, Note_on_c, 0, 64, 0
1, 46224, Note_on_c, 0, 74, 82
1, 46239, Note_on_c, 0, 74, 0
1, 46240, Note_on_c, 0, 73, 81
1, 46255, Note_on_c, 0, 73, 0
1, 46256, Note_on_c, 0, 71, 80
1, 46271, Note_on_c, 0, 71, 0
1, 46272, Note_on_c, 0, 72, 93
1, 46320, Note_on_c, 1, 64, 68
1, 46320, Note_on_c, 1, 57, 68
1, 46365, Note_on_c, 1, 64, 0
1, 46365, Note_on_c, 1, 57, 0
1, 46368, Note_on_c, 0, 72, 0
1, 46368, Note_on_c, 0, 73, 77
1, 46368, Note_on_c, 1, 64, 68
1, 46368, Note_on_c, 1, 57, 68
1, 46388, Note_on_c, 0, 73, 0
1, 46413, Note_on_c, 1, 64, 0
1, 46413, Note_on_c, 1, 57, 0
1, 46416, Note_on_c, 0, 81, 77
1, 46431, Note_on_c, 0, 81, 0
1, 46432, Note_on_c, 0, 80, 77
1, 46447, Note_on_c, 0, 80, 0
1, 46448, Note_on_c, 0, 78, 77
1, 46463, Note_on_c, 0, 78, 0
1, 46464, Note_on_c, 0, 77, 93
1, 46512, Note_on_c, 1, 71, 68
1, 46512, Note_on_c, 1, 68, 68
1, 46557, Note_on_c, 1, 71, 0
1, 46557, Note_on_c, 1, 68, 0
1, 46560, Note_on_c, 0, 77, 0
1, 46560, Note_on_c, 0, 78, 77
1, 46560, Note_on_c, 1, 73, 68
1, 46560, Note_on_c, 1, 69, 68
1, 46580, Note_on_c, 0, 78, 0
1, 46605, Note_on_c, 1, 73, 0
1, 46605, Note_on_c, 1, 69, 0
1, 46608, Note_on_c, 0, 85, 77
1, 46623, Note_on_c, 0, 85, 0
1, 46624, Note_on_c, 0, 81, 77
1, 46639, Note_on_c, 0, 81, 0
1, 46640, Note_on_c, 0, 78, 77
1, 46655, Note_on_c, 0, 78, 0
1, 46656, Note_on_c, 0, 76, 93
1, 46656, Note_on_c, 1, 68, 68
1, 46656, Note_on_c, 1, 59, 68
1, 46752, Note_on_c, 0, 76, 0
1, 46752, Note_on_c, 0, 75, 77
1, 46752, Note_on_c, 1, 68, 0
1, 46752, Note_on_c, 1, 66, 68
1, 46797, Note_on_c, 0, 75, 0
1, 46797, Note_on_c, 1, 66, 0
1, 46797, Note_on_c, 1, 59, 0
1, 46848, Note_on_c, 0, 76, 85
1, 46848, Note_on_c, 1, 52, 85
1, 46851, Note_on_c, 0, 80, 85
1, 46854, Note_on_c, 0, 83, 85
1, 46857, Note_on_c, 0, 88, 85
1, 46863, Note_on_c, 1, 52, 0
1, 46864, Note_on_c, 1, 56, 85
1, 46879, Note_on_c, 1, 56, 0
1, 46880, Note_on_c, 1, 57, 85
1, 46895, Note_on_c, 1, 57, 0
1, 46896, Note_on_c, 1, 59, 85
1, 46911, Note_on_c, 1, 59, 0
1, 46912, Note_on_c, 1, 61, 85
1, 46927, Note_on_c, 1, 61, 0
1, 46928, Note_on_c, 1, 63, 85
1, 46941, Note_on_c, 0, 88, 0
1, 46941, Note_on_c, 0, 83, 0
1, 46941, Note_on_c, 0, 80, 0
1, 46941, Note_on_c, 0, 76, 0
1, 46943, Note_on_c, 1, 63, 0
1, 46944, Note_on_c, 1, 64, 85
1, 46959, Note_on_c, 1, 64, 0
1, 46960, Note_on_c, 1, 66, 85
1, 46975, Note_on_c, 1, 66, 0
1, 46976, Note_on_c, 1, 68, 85
1, 46991, Note_on_c, 1, 68, 0
1, 46992, Note_on_c, 0, 71, 85
1, 46992, Note_on_c, 1, 69, 85
1, 47007, Note_on_c, 0, 71, 0
1, 47008, Note_on_c, 0, 73, 85
1, 47023, Note_on_c, 0, 73, 0
1, 47024, Note_on_c, 0, 75, 85
1, 47037, Note_on_c, 1, 69, 0
1, 47039, Note_on_c, 0, 75, 0
1, 47040, Note_on_c, 0, 76, 85
1, 47040, Note_on_c, 1, 68, 85
1, 47055, Note_on_c, 0, 76, 0
1, 47056, Note_on_c, 0, 80, 85
1, 47071, Note_on_c, 0, 80, 0
1, 47072, Note_on_c, 0, 83, 85
1, 47087, Note_on_c, 0, 83, 0
1, 47088, Note_on_c, 0, 88, 85
1, 47103, Note_on_c, 0, 88, 0
1, 47104, Note_on_c, 0, 87, 85
1, 47119, Note_on_c, 0, 87, 0
1, 47120, Note_on_c, 0, 85, 85
1, 47129, Note_on_c, 1, 68, 0
1, 47135, Note_on_c, 0, 85, 0
1, 47136, Note_on_c, 0, 83, 85
1, 47151, Note_on_c, 0, 83, 0
1, 47152, Note_on_c, 0, 81, 85
1, 47167, Note_on_c, 0, 81, 0
1, 47168, Note_on_c, 0, 80, 85
1, 47183, Note_on_c, 0, 80, 0
1, 47184, Note_on_c, 0, 78, 85
1, 47184, Note_on_c, 1, 63, 85
1, 47184, Note_on_c, 1, 59, 85
1, 47199, Note_on_c, 0, 78, 0
1, 47200, Note_on_c, 0, 80, 85
1, 47215, Note_on_c, 0, 80, 0
1, 47216, Note_on_c, 0, 81, 85
1, 47229, Note_on_c, 1, 63, 0
1, 47229, Note_on_c, 1, 59, 0
1, 47231, Note_on_c, 0, 81, 0
1, 47232, Note_on_c, 0, 80, 85
1, 47232, Note_on_c, 1, 52, 85
1, 47247, Note_on_c, 1, 52, 0
1, 47248, Note_on_c, 1, 56, 85
1, 47263, Note_on_c, 1, 56, 0
1, 47264, Note_on_c, 1, 57, 85
1, 47279, Note_on_c, 1, 57, 0
1, 47280, Note_on_c, 1, 59, 85
1, 47295, Note_on_c, 1, 59, 0
1, 47296, Note_on_c, 1, 61, 85
1, 47311, Note_on_c, 1, 61, 0
1, 47312, Note_on_c, 1, 63, 85
1, 47321, Note_on_c, 0, 80, 0
1, 47327, Note_on_c, 1, 63, 0
1, 47328, Note_on_c, 1, 64, 85
1, 47343, Note_on_c, 1, 64, 0
1, 47344, Note_on_c, 1, 66, 85
1, 47359, Note_on_c, 1, 66, 0
1, 47360, Note_on_c, 1, 68, 85
1, 47375, Note_on_c, 1, 68, 0
1, 47376, Note_on_c, 0, 71, 85
1, 47376, Note_on_c, 1, 69, 85
1, 47391, Note_on_c, 0, 71, 0
1, 47392, Note_on_c, 0, 73, 85
1, 47407, Note_on_c, 0, 73, 0
1, 47408, Note_on_c, 0, 75, 85
1, 47421, Note_on_c, 1, 69, 0
1, 47423, Note_on_c, 0, 75, 0
1, 47424, Note_on_c, 0, 76, 85
1, 47424, Note_on_c, 1, 68, 85
1, 47439, Note_on_c, 0, 76, 0
1, 47440, Note_on_c, 0, 80, 85
1, 47455, Note_on_c, 0, 80, 0
1, 47456, Note_on_c, 0, 83, 85
1, 47471, Note_on_c, 0, 83, 0
1, 47472, Note_on_c, 0, 88, 85
1, 47487, Note_on_c, 0, 88, 0
1, 47488, Note_on_c, 0, 87, 85
1, 47503, Note_on_c, 0, 87, 0
1, 47504, Note_on_c, 0, 85, 85
1, 47513, Note_on_c, 1, 68, 0
1, 47519, Note_on_c, 0, 85, 0
1, 47520, Note_on_c, 0, 83, 85
1, 47540, Note_on_c, 0, 83, 0
1, 47568, Note_on_c, 0, 88, 77
1, 47568, Note_on_c, 1, 73, 77
1, 47583, Note_on_c, 0, 88, 0
1, 47583, Note_on_c, 1, 73, 0
1, 47584, Note_on_c, 0, 87, 77
1, 47584, Note_on_c, 1, 71, 77
1, 47599, Note_on_c, 0, 87, 0
1, 47599, Note_on_c, 1, 71, 0
1, 47600, Note_on_c, 0, 85, 77
1, 47600, Note_on_c, 1, 69, 77
1, 47615, Note_on_c, 0, 85, 0
1, 47615, Note_on_c, 1, 69, 0
1, 47616, Note_on_c, 0, 83, 77
1, 47616, Note_on_c, 1, 68, 77
1, 47631, Note_on_c, 0, 83, 0
1, 47631, Note_on_c, 1, 68, 0
1, 47632, Note_on_c, 0, 85, 77
1, 47632, Note_on_c, 1, 69, 77
1, 47647, Note_on_c, 0, 85, 0
1, 47647, Note_on_c, 1, 69, 0
1, 47648, Note_on_c, 0, 87, 77
1, 47648, Note_on_c, 1, 71, 77
1, 47663, Note_on_c, 0, 87, 0
1, 47663, Note_on_c, 1, 71, 0
1, 47664, Note_on_c, 0, 88, 77
1, 47664, Note_on_c, 1, 73, 77
1, 47679, Note_on_c, 0, 88, 0
1, 47679, Note_on_c, 1, 73, 0
1, 47680, Note_on_c, 0, 87, 77
1, 47680, Note_on_c, 1, 71, 77
1, 47695, Note_on_c, 0, 87, 0
1, 47695, Note_on_c, 1, 71, 0
1, 47696, Note_on_c, 0, 85, 77
1, 47696, Note_on_c, 1, 69, 77
1, 47711, Note_on_c, 0, 85, 0
1, 47711, Note_on_c, 1, 69, 0
1, 47712, Note_on_c, 0, 83, 77
1, 47712, Note_on_c, 1, 68, 77
1, 47727, Note_on_c, 0, 83, 0
1, 47727, Note_on_c, 1, 68, 0
1, 47728, Note_on_c, 0, 85, 77
1, 47728, Note_on_c, 1, 69, 77
1, 47743, Note_on_c, 0, 85, 0
1, 47743, Note_on_c, 1, 69, 0
1, 47744, Note_on_c, 0, 87, 78
1, 47744, Note_on_c, 1, 71, 77
1, 47759, Note_on_c, 0, 87, 0
1, 47759, Note_on_c, 1, 71, 0
1, 47760, Note_on_c, 0, 88, 78
1, 47760, Note_on_c, 1, 73, 77
1, 47775, Note_on_c, 0, 88, 0
1, 47775, Note_on_c, 1, 73, 0
1, 47776, Note_on_c, 0, 87, 79
1, 47776, Note_on_c, 1, 71, 77
1, 47791, Note_on_c, 0, 87, 0
1, 47791, Note_on_c, 1, 71, 0
1, 47792, Note_on_c, 0, 85, 79
1, 47792, Note_on_c, 1, 69, 77
1, 47807, Note_on_c, 0, 85, 0
1, 47807, Note_on_c, 1, 69, 0
1, 47808, Note_on_c, 0, 83, 80
1, 47808, Note_on_c, 1, 68, 77
1, 47823, Note_on_c, 0, 83, 0
1, 47824, Note_on_c, 0, 85, 80
1, 47839, Note_on_c, 0, 85, 0
1, 47840, Note_on_c, 0, 86, 81
1, 47853, Note_on_c, 1, 68, 0
1, 47855, Note_on_c, 0, 86, 0
1, 47856, Note_on_c, 0, 85, 81
1, 47856, Note_on_c, 1, 69, 77
1, 47871, Note_on_c, 0, 85, 0
1, 47872, Note_on_c, 0, 86, 82
1, 47887, Note_on_c, 0, 86, 0
1, 47888, Note_on_c, 0, 88, 82
1, 47901, Note_on_c, 1, 69, 0
1, 47903, Note_on_c, 0, 88, 0
1, 47904, Note_on_c, 0, 86, 85
1, 47904, Note_on_c, 1, 71, 77
1, 47949, Note_on_c, 1, 71, 0
1, 47952, Note_on_c, 1, 64, 77
1, 47997, Note_on_c, 1, 64, 0
1, 48000, Note_on_c, 0, 86, 0
1, 48000, Note_on_c, 0, 85, 85
1, 48000, Note_on_c, 1, 69, 77
1, 48015, Note_on_c, 0, 85, 0
1, 48016, Note_on_c, 0, 87, 85
1, 48031, Note_on_c, 0, 87, 0
1, 48032, Note_on_c, 0, 88, 85
1, 48047, Note_on_c, 0, 88, 0
1, 48048, Note_on_c, 0, 87, 85
1, 48063, Note_on_c, 0, 87, 0
1, 48064, Note_on_c, 0, 85, 85
1, 48079, Note_on_c, 0, 85, 0
1, 48080, Note_on_c, 0, 83, 85
1, 48089, Note_on_c, 1, 69, 0
1, 48095, Note_on_c, 0, 83, 0
1, 48096, Note_on_c, 0, 81, 85
1, 48111, Note_on_c, 0, 81, 0
1, 48112, Note_on_c, 0, 80, 85
1, 48127, Note_on_c, 0, 80, 0
1, 48128, Note_on_c, 0, 78, 85
1, 48143, Note_on_c, 0, 78, 0
1, 48144, Note_on_c, 0, 76, 85
1, 48159, Note_on_c, 0, 76, 0
1, 48160, Note_on_c, 0, 75, 85
1, 48175, Note_on_c, 0, 75, 0
1, 48176, Note_on_c, 0, 73, 85
1, 48191, Note_on_c, 0, 73, 0
1, 48192, Note_on_c, 0, 71, 85
1, 48240, Note_on_c, 1, 56, 77
1, 48281, Note_on_c, 0, 71, 0
1, 48285, Note_on_c, 1, 56, 0
1, 48288, Note_on_c, 0, 80, 81
1, 48288, Note_on_c, 1, 57, 77
1, 48296, Note_on_c, 0, 80, 0
1, 48296, Note_on_c, 0, 78, 80
1, 48304, Note_on_c, 0, 78, 0
1, 48304, Note_on_c, 0, 80, 80
1, 48312, Note_on_c, 0, 80, 0
1, 48312, Note_on_c, 0, 78, 80
1, 48320, Note_on_c, 0, 78, 0
1, 48320, Note_on_c, 0, 80, 80
1, 48328, Note_on_c, 0, 80, 0
1, 48328, Note_on_c, 0, 78, 79
1, 48333, Note_on_c, 1, 57, 0
1, 48336, Note_on_c, 0, 78, 0
1, 48336, Note_on_c, 0, 80, 79
1, 48336, Note_on_c, 1, 59, 77
1, 48344, Note_on_c, 0, 80, 0
1, 48344, Note_on_c, 0, 78, 79
1, 48352, Note_on_c, 0, 78, 0
1, 48352, Note_on_c, 0, 80, 79
1, 48360, Note_on_c, 0, 80, 0
1, 48360, Note_on_c, 0, 78, 78
1, 48368, Note_on_c, 0, 78, 0
1, 48368, Note_on_c, 0, 76, 78
1, 48376, Note_on_c, 0, 76, 0
1, 48376, Note_on_c, 0, 78, 78
1, 48381, Note_on_c, 1, 59, 0
1, 48384, Note_on_c, 0, 78, 0
1, 48384, Note_on_c, 0, 76, 77
1, 48384, Note_on_c, 1, 52, 77
1, 48399, Note_on_c, 1, 52, 0
1, 48400, Note_on_c, 1, 56, 77
1, 48415, Note_on_c, 1, 56, 0
1, 48416, Note_on_c, 1, 59, 77
1, 48431, Note_on_c, 1, 59, 0
1, 48432, Note_on_c, 1, 64, 77
1, 48447, Note_on_c, 1, 64, 0
1, 48448, Note_on_c, 1, 59, 77
1, 48463, Note_on_c, 1, 59, 0
1, 48464, Note_on_c, 1, 56, 77
1, 48473, Note_on_c, 0, 76, 0
1, 48479, Note_on_c, 1, 56, 0
1, 48480, Note_on_c, 1, 52, 77
1, 48525, Note_on_c, 1, 52, 0
1, 48528, Note_on_c, 0, 71, 77
1, 48528, Note_on_c, 1, 68, 68
1, 48543, Note_on_c, 0, 71, 0
1, 48544, Note_on_c, 0, 73, 77
1, 48559, Note_on_c, 0, 73, 0
1, 48560, Note_on_c, 0, 71, 77
1, 48573, Note_on_c, 1, 68, 0
1, 48575, Note_on_c, 0, 71, 0
1, 48576, Note_on_c, 0, 74, 77
1, 48576, Note_on_c, 1, 65, 68
1, 48591, Note_on_c, 0, 74, 0
1, 48592, Note_on_c, 0, 73, 77
1, 48607, Note_on_c, 0, 73, 0
1, 48608, Note_on_c, 0, 71, 77
1, 48623, Note_on_c, 0, 71, 0
1, 48624, Note_on_c, 0, 69, 77
1, 48624, Note_on_c, 1, 65, 0
1, 48624, Note_on_c, 1, 66, 68
1, 48639, Note_on_c, 0, 69, 0
1, 48640, Note_on_c, 0, 71, 77
1, 48655, Note_on_c, 0, 71, 0
1, 48656, Note_on_c, 0, 69, 77
1, 48669, Note_on_c, 1, 66, 0
1, 48671, Note_on_c, 0, 69, 0
1, 48672, Note_on_c, 0, 73, 77
1, 48672, Note_on_c, 1, 63, 68
1, 48687, Note_on_c, 0, 73, 0
1, 48688, Note_on_c, 0, 71, 77
1, 48703, Note_on_c, 0, 71, 0
1, 48704, Note_on_c, 0, 69, 77
1, 48719, Note_on_c, 0, 69, 0
1, 48720, Note_on_c, 0, 68, 77
1, 48720, Note_on_c, 1, 63, 0
1, 48720, Note_on_c, 1, 64, 68
1, 48735, Note_on_c, 0, 68, 0
1, 48736, Note_on_c, 0, 71, 77
1, 48751, Note_on_c, 0, 71, 0
1, 48752, Note_on_c, 0, 76, 77
1, 48765, Note_on_c, 1, 64, 0
1, 48767, Note_on_c, 0, 76, 0
1, 48768, Note_on_c, 0, 73, 77
1, 48768, Note_on_c, 1, 57, 68
1, 48783, Note_on_c, 0, 73, 0
1, 48784, Note_on_c, 0, 71, 77
1, 48799, Note_on_c, 0, 71, 0
1, 48800, Note_on_c, 0, 69, 77
1, 48813, Note_on_c, 1, 57, 0
1, 48815, Note_on_c, 0, 69, 0
1, 48816, Note_on_c, 0, 68, 77
1, 48816, Note_on_c, 1, 58, 68
1, 48831, Note_on_c, 0, 68, 0
1, 48832, Note_on_c, 0, 69, 77
1, 48847, Note_on_c, 0, 69, 0
1, 48848, Note_on_c, 0, 66, 77
1, 48861, Note_on_c, 1, 58, 0
1, 48863, Note_on_c, 0, 66, 0
1, 48864, Note_on_c, 0, 64, 77
1, 48864, Note_on_c, 1, 59, 68
1, 48909, Note_on_c, 0, 64, 0
1, 48909, Note_on_c, 1, 59, 0
1, 48912, Note_on_c, 0, 68, 77
1, 48912, Note_on_c, 1, 47, 68
1, 48924, Note_on_c, 0, 68, 0
1, 48924, Note_on_c, 0, 66, 77
1, 48936, Note_on_c, 0, 66, 0
1, 48936, Note_on_c, 0, 64, 77
1, 48948, Note_on_c, 0, 64, 0
1, 48948, Note_on_c, 0, 66, 77
1, 48957, Note_on_c, 1, 47, 0
1, 48960, Note_on_c, 0, 66, 0
1, 48960, Note_on_c, 0, 64, 77
1, 48960, Note_on_c, 1, 52, 68
1, 48975, Note_on_c, 1, 52, 0
1, 48976, Note_on_c, 1, 47, 68
1, 48991, Note_on_c, 1, 47, 0
1, 48992, Note_on_c, 1, 44, 68
1, 49007, Note_on_c, 1, 44, 0
1, 49008, Note_on_c, 1, 40, 68
1, 49023, Note_on_c, 1, 40, 0
1, 49024, Note_on_c, 1, 44, 68
1, 49039, Note_on_c, 1, 44, 0
1, 49040, Note_on_c, 1, 47, 68
1, 49049, Note_on_c, 0, 64, 0
1, 49055, Note_on_c, 1, 47, 0
1, 49056, Note_on_c, 1, 52, 68
1, 49101, Note_on_c, 1, 52, 0
1, 49104, Note_on_c, 0, 62, 77
1, 49104, Note_on_c, 0, 59, 77
1, 49104, Note_on_c, 1, 56, 68
1, 49149, Note_on_c, 0, 62, 0
1, 49149, Note_on_c, 0, 59, 0
1, 49149, Note_on_c, 1, 56, 0
1, 49152, Note_on_c, 0, 61, 77
1, 49152, Note_on_c, 0, 59, 77
1, 49152, Note_on_c, 1, 53, 68
1, 49197, Note_on_c, 0, 59, 0
1, 49200, Note_on_c, 0, 57, 77
1, 49200, Note_on_c, 1, 53, 0
1, 49200, Note_on_c, 1, 54, 68
1, 49245, Note_on_c, 1, 54, 0
1, 49248, Note_on_c, 0, 61, 0
1, 49248, Note_on_c, 0, 59, 77
1, 49248, Note_on_c, 1, 51, 68
1, 49293, Note_on_c, 0, 57, 0
1, 49296, Note_on_c, 0, 56, 77
1, 49296, Note_on_c, 1, 51, 0
1, 49296, Note_on_c, 1, 52, 68
1, 49337, Note_on_c, 0, 59, 0
1, 49341, Note_on_c, 0, 56, 0
1, 49341, Note_on_c, 1, 52, 0
1, 49344, Note_on_c, 0, 57, 93
1, 49344, Note_on_c, 1, 45, 68
1, 49352, Note_on_c, 0, 61, 93
1, 49352, Note_on_c, 1, 49, 68
1, 49360, Note_on_c, 0, 66, 93
1, 49360, Note_on_c, 1, 54, 68
1, 49392, Note_on_c, 0, 66, 0
1, 49392, Note_on_c, 0, 61, 0
1, 49392, Note_on_c, 0, 57, 0
1, 49392, Note_on_c, 0, 73, 77
1, 49407, Note_on_c, 0, 73, 0
1, 49408, Note_on_c, 0, 69, 77
1, 49423, Note_on_c, 0, 69, 0
1, 49424, Note_on_c, 0, 66, 77
1, 49437, Note_on_c, 1, 54, 0
1, 49437, Note_on_c, 1, 49, 0
1, 49437, Note_on_c, 1, 45, 0
1, 49439, Note_on_c, 0, 66, 0
1, 49440, Note_on_c, 0, 64, 77
1, 49440, Note_on_c, 1, 56, 68
1, 49440, Note_on_c, 1, 47, 68
1, 49485, Note_on_c, 0, 64, 0
1, 49485, Note_on_c, 1, 56, 0
1, 49488, Note_on_c, 0, 64, 77
1, 49488, Note_on_c, 1, 54, 68
1, 49496, Note_on_c, 0, 64, 0
1, 49496, Note_on_c, 0, 63, 77
1, 49504, Note_on_c, 0, 63, 0
1, 49504, Note_on_c, 0, 64, 77
1, 49512, Note_on_c, 0, 64, 0
1, 49512, Note_on_c, 0, 63, 77
1, 49520, Note_on_c, 0, 63, 0
1, 49520, Note_on_c, 0, 64, 77
1, 49528, Note_on_c, 0, 64, 0
1, 49528, Note_on_c, 0, 63, 77
1, 49529, Note_on_c, 1, 47, 0
1, 49533, Note_on_c, 1, 54, 0
1, 49536, Note_on_c, 0, 63, 0
1, 49536, Note_on_c, 0, 64, 77
1, 49536, Note_on_c, 1, 52, 68
1, 49551, Note_on_c, 0, 64, 0
1, 49552, Note_on_c, 0, 68, 77
1, 49567, Note_on_c, 0, 68, 0
1, 49568, Note_on_c, 0, 71, 77
1, 49581, Note_on_c, 1, 52, 0
1, 49583, Note_on_c, 0, 71, 0
1, 49584, Note_on_c, 0, 76, 77
1, 49599, Note_on_c, 0, 76, 0
1, 49600, Note_on_c, 0, 71, 77
1, 49615, Note_on_c, 0, 71, 0
1, 49616, Note_on_c, 0, 68, 77
1, 49631, Note_on_c, 0, 68, 0
1, 49632, Note_on_c, 1, 64, 68
1, 49647, Note_on_c, 1, 64, 0
1, 49648, Note_on_c, 1, 59, 68
1, 49663, Note_on_c, 1, 59, 0
1, 49664, Note_on_c, 1, 56, 68
1, 49679, Note_on_c, 1, 56, 0
1, 49680, Note_on_c, 1, 52, 68
1, 49695, Note_on_c, 1, 52, 0
1, 49696, Note_on_c, 1, 47, 68
1, 49711, Note_on_c, 1, 47, 0
1, 49712, Note_on_c, 1, 44, 68
1, 49727, Note_on_c, 1, 44, 0
1, 49728, Note_on_c, 1, 40, 68
1, 49795, Note_on_c, 1, 40, 0
1, 49920, Note_on_c, 1, 61, 4
1, 50009, Note_on_c, 1, 61, 0
1, 50019, End_track
0, 0, End_of_file