0, 0, Header, 0, 1, 96
1, 0, Start_track
1, 0, Tempo, 1200000
1, 0, Note_on_c, 0, 73, 65
1, 0, Note_on_c, 1, 53, 51
1, 6, Note_on_c, 0, 73, 0
1, 6, Note_on_c, 0, 72, 65
1, 12, Note_on_c, 0, 72, 0
1, 12, Note_on_c, 0, 71, 65
1, 15, Note_on_c, 1, 53, 0
1, 16, Note_on_c, 1, 56, 51
1, 18, Note_on_c, 0, 71, 0
1, 18, Note_on_c, 0, 72, 65
1, 31, Note_on_c, 1, 56, 0
1, 32, Note_on_c, 1, 60, 51
1, 47, Note_on_c, 1, 60, 0
1, 48, Note_on_c, 1, 65, 51
1, 63, Note_on_c, 1, 65, 0
1, 64, Note_on_c, 1, 60, 51
1, 67, Note_on_c, 0, 72, 0
1, 72, Note_on_c, 0, 73, 65
1, 79, Note_on_c, 1, 60, 0
1, 80, Note_on_c, 1, 56, 51
1, 95, Note_on_c, 0, 73, 0
1, 95, Note_on_c, 1, 56, 0
1, 96, Note_on_c, 0, 72, 65
1, 96, Note_on_c, 1, 53, 51
1, 111, Note_on_c, 1, 53, 0
1, 112, Note_on_c, 1, 56, 51
1, 127, Note_on_c, 1, 56, 0
1, 128, Note_on_c, 1, 60, 51
1, 141, Note_on_c, 0, 72, 0
1, 143, Note_on_c, 1, 60, 0
1, 144, Note_on_c, 0, 77, 65
1, 144, Note_on_c, 1, 53, 51
1, 156, Note_on_c, 0, 77, 0
1, 156, Note_on_c, 0, 79, 65
1, 159, Note_on_c, 1, 53, 0
1, 160, Note_on_c, 1, 56, 51
1, 168, Note_on_c, 0, 79, 0
1, 168, Note_on_c, 0, 80, 65
1, 175, Note_on_c, 1, 56, 0
1, 176, Note_on_c, 1, 60, 51
1, 191, Note_on_c, 0, 80, 0
1, 191, Note_on_c, 1, 60, 0
1, 192, Note_on_c, 1, 65, 51
1, 207, Note_on_c, 1, 65, 0
1, 208, Note_on_c, 1, 60, 51
1, 223, Note_on_c, 1, 60, 0
1, 224, Note_on_c, 1, 56, 51
1, 239, Note_on_c, 1, 56, 0
1, 240, Note_on_c, 1, 53, 51
1, 255, Note_on_c, 1, 53, 0
1, 256, Note_on_c, 1, 56, 51
1, 271, Note_on_c, 1, 56, 0
1, 272, Note_on_c, 1, 60, 51
1, 287, Note_on_c, 1, 60, 0
1, 288, Note_on_c, 0, 73, 65
1, 288, Note_on_c, 1, 52, 51
1, 294, Note_on_c, 0, 73, 0
1, 294, Note_on_c, 0, 72, 65
1, 300, Note_on_c, 0, 72, 0
1, 300, Note_on_c, 0, 71, 65
1, 303, Note_on_c, 1, 52, 0
1, 304, Note_on_c, 1, 55, 51
1, 306, Note_on_c, 0, 71, 0
1, 306, Note_on_c, 0, 72, 65
1, 319, Note_on_c, 1, 55, 0
1, 320, Note_on_c, 1, 58, 51
1, 335, Note_on_c, 1, 58, 0
1, 336, Note_on_c, 1, 60, 51
1, 351, Note_on_c, 1, 60, 0
1, 352, Note_on_c, 1, 58, 51
1, 355, Note_on_c, 0, 72, 0
1, 360, Note_on_c, 0, 73, 65
1, 367, Note_on_c, 1, 58, 0
1, 368, Note_on_c, 1, 55, 51
1, 383, Note_on_c, 0, 73, 0
1, 383, Note_on_c, 1, 55, 0
1, 384, Note_on_c, 0, 72, 65
1, 384, Note_on_c, 1, 52, 51
1, 399, Note_on_c, 1, 52, 0
1, 400, Note_on_c, 1, 55, 51
1, 415, Note_on_c, 1, 55, 0
1, 416, Note_on_c, 1, 58, 51
1, 429, Note_on_c, 0, 72, 0
1, 431, Note_on_c, 1, 58, 0
1, 432, Note_on_c, 0, 79, 65
1, 432, Note_on_c, 1, 52, 51
1, 444, Note_on_c, 0, 79, 0
1, 444, Note_on_c, 0, 80, 65
1, 447, Note_on_c, 1, 52, 0
1, 448, Note_on_c, 1, 55, 51
1, 456, Note_on_c, 0, 80, 0
1, 456, Note_on_c, 0, 82, 65
1, 463, Note_on_c, 1, 55, 0
1, 464, Note_on_c, 1, 58, 51
1, 479, Note_on_c, 0, 82, 0
1, 479, Note_on_c, 1, 58, 0
1, 480, Note_on_c, 1, 60, 51
1, 495, Note_on_c, 1, 60, 0
1, 496, Note_on_c, 1, 58, 51
1, 511, Note_on_c, 1, 58, 0
1, 512, Note_on_c, 1, 55, 51
1, 527, Note_on_c, 1, 55, 0
1, 528, Note_on_c, 1, 52, 51
1, 543, Note_on_c, 1, 52, 0
1, 544, Note_on_c, 1, 55, 51
1, 559, Note_on_c, 1, 55, 0
1, 560, Note_on_c, 1, 58, 51
1, 575, Note_on_c, 1, 58, 0
1, 576, Note_on_c, 0, 73, 65
1, 576, Note_on_c, 1, 53, 51
1, 582, Note_on_c, 0, 73, 0
1, 582, Note_on_c, 0, 72, 65
1, 588, Note_on_c, 0, 72, 0
1, 588, Note_on_c, 0, 71, 65
1, 591, Note_on_c, 1, 53, 0
1, 592, Note_on_c, 1, 56, 51
1, 594, Note_on_c, 0, 71, 0
1, 594, Note_on_c, 0, 72, 65
1, 607, Note_on_c, 1, 56, 0
1, 608, Note_on_c, 1, 60, 51
1, 623, Note_on_c, 1, 60, 0
1, 624, Note_on_c, 1, 65, 51
1, 639, Note_on_c, 1, 65, 0
1, 640, Note_on_c, 1, 60, 51
1, 643, Note_on_c, 0, 72, 0
1, 648, Note_on_c, 0, 73, 65
1, 655, Note_on_c, 1, 60, 0
1, 656, Note_on_c, 1, 56, 51
1, 671, Note_on_c, 0, 73, 0
1, 671, Note_on_c, 1, 56, 0
1, 672, Note_on_c, 0, 72, 65
1, 672, Note_on_c, 1, 51, 51
1, 687, Note_on_c, 1, 51, 0
1, 688, Note_on_c, 1, 55, 51
1, 703, Note_on_c, 1, 55, 0
1, 704, Note_on_c, 1, 60, 51
1, 717, Note_on_c, 0, 72, 0
1, 719, Note_on_c, 1, 60, 0
1, 720, Note_on_c, 0, 77, 65
1, 720, Note_on_c, 1, 49, 51
1, 732, Note_on_c, 0, 77, 0
1, 732, Note_on_c, 0, 79, 65
1, 735, Note_on_c, 1, 49, 0
1, 736, Note_on_c, 1, 53, 51
1, 744, Note_on_c, 0, 79, 0
1, 744, Note_on_c, 0, 80, 65
1, 751, Note_on_c, 1, 53, 0
1, 752, Note_on_c, 1, 56, 51
1, 767, Note_on_c, 0, 80, 0
1, 767, Note_on_c, 1, 56, 0
1, 768, Note_on_c, 1, 59, 51
1, 783, Note_on_c, 1, 59, 0
1, 784, Note_on_c, 1, 61, 51
1, 799, Note_on_c, 1, 61, 0
1, 800, Note_on_c, 1, 65, 51
1, 815, Note_on_c, 1, 65, 0
1, 816, Note_on_c, 0, 68, 65
1, 831, Note_on_c, 0, 68, 0
1, 832, Note_on_c, 0, 71, 65
1, 847, Note_on_c, 0, 71, 0
1, 848, Note_on_c, 0, 77, 65
1, 863, Note_on_c, 0, 77, 0
1, 864, Note_on_c, 0, 77, 81
1, 864, Note_on_c, 1, 48, 51
1, 912, Note_on_c, 0, 77, 0
1, 912, Note_on_c, 0, 76, 65
1, 927, Note_on_c, 0, 76, 0
1, 928, Note_on_c, 0, 79, 65
1, 943, Note_on_c, 0, 79, 0
1, 944, Note_on_c, 0, 71, 65
1, 953, Note_on_c, 1, 48, 0
1, 960, Note_on_c, 0, 71, 0
1, 960, Note_on_c, 0, 72, 65
1, 975, Note_on_c, 0, 72, 0
1, 976, Note_on_c, 0, 76, 65
1, 991, Note_on_c, 0, 76, 0
1, 992, Note_on_c, 0, 67, 65
1, 1007, Note_on_c, 0, 67, 0
1, 1008, Note_on_c, 1, 36, 51
1, 1078, Note_on_c, 1, 36, 0
1, 1152, Note_on_c, 0, 77, 65
1, 1152, Note_on_c, 1, 56, 51
1, 1158, Note_on_c, 0, 77, 0
1, 1158, Note_on_c, 0, 75, 65
1, 1164, Note_on_c, 0, 75, 0
1, 1164, Note_on_c, 0, 73, 65
1, 1167, Note_on_c, 1, 56, 0
1, 1168, Note_on_c, 1, 60, 51
1, 1170, Note_on_c, 0, 73, 0
1, 1170, Note_on_c, 0, 75, 65
1, 1183, Note_on_c, 1, 60, 0
1, 1184, Note_on_c, 1, 63, 51
1, 1199, Note_on_c, 1, 63, 0
1, 1200, Note_on_c, 1, 68, 51
1, 1215, Note_on_c, 1, 68, 0
1, 1216, Note_on_c, 1, 63, 51
1, 1231, Note_on_c, 1, 63, 0
1, 1232, Note_on_c, 1, 60, 51
1, 1241, Note_on_c, 0, 75, 0
1, 1247, Note_on_c, 1, 60, 0
1, 1248, Note_on_c, 1, 56, 51
1, 1263, Note_on_c, 1, 56, 0
1, 1264, Note_on_c, 0, 80, 65
1, 1264, Note_on_c, 1, 60, 51
1, 1279, Note_on_c, 0, 80, 0
1, 1279, Note_on_c, 1, 60, 0
1, 1280, Note_on_c, 0, 75, 65
1, 1280, Note_on_c, 1, 63, 51
1, 1295, Note_on_c, 0, 75, 0
1, 1295, Note_on_c, 1, 63, 0
1, 1296, Note_on_c, 0, 75, 65
1, 1296, Note_on_c, 1, 58, 51
1, 1311, Note_on_c, 0, 75, 0
1, 1311, Note_on_c, 1, 58, 0
1, 1312, Note_on_c, 0, 73, 65
1, 1312, Note_on_c, 1, 61, 51
1, 1327, Note_on_c, 0, 73, 0
1, 1327, Note_on_c, 1, 61, 0
1, 1328, Note_on_c, 0, 72, 65
1, 1328, Note_on_c, 1, 63, 51
1, 1343, Note_on_c, 0, 72, 0
1, 1343, Note_on_c, 1, 63, 0
1, 1344, Note_on_c, 0, 70, 65
1, 1344, Note_on_c, 1, 67, 51
1, 1359, Note_on_c, 1, 67, 0
1, 1360, Note_on_c, 1, 63, 51
1, 1364, Note_on_c, 0, 70, 0
1, 1375, Note_on_c, 1, 63, 0
1, 1376, Note_on_c, 1, 61, 51
1, 1391, Note_on_c, 1, 61, 0
1, 1392, Note_on_c, 1, 58, 51
1, 1407, Note_on_c, 1, 58, 0
1, 1408, Note_on_c, 0, 82, 65
1, 1408, Note_on_c, 1, 61, 51
1, 1423, Note_on_c, 0, 82, 0
1, 1423, Note_on_c, 1, 61, 0
1, 1424, Note_on_c, 0, 73, 65
1, 1424, Note_on_c, 1, 63, 51
1, 1439, Note_on_c, 0, 73, 0
1, 1439, Note_on_c, 1, 63, 0
1, 1440, Note_on_c, 0, 73, 65
1, 1440, Note_on_c, 1, 56, 51
1, 1455, Note_on_c, 0, 73, 0
1, 1455, Note_on_c, 1, 56, 0
1, 1456, Note_on_c, 0, 72, 65
1, 1456, Note_on_c, 1, 60, 51
1, 1471, Note_on_c, 0, 72, 0
1, 1471, Note_on_c, 1, 60, 0
1, 1472, Note_on_c, 0, 70, 65
1, 1472, Note_on_c, 1, 63, 51
1, 1487, Note_on_c, 0, 70, 0
1, 1487, Note_on_c, 1, 63, 0
1, 1488, Note_on_c, 0, 68, 65
1, 1488, Note_on_c, 1, 68, 51
1, 1504, Note_on_c, 1, 68, 0
1, 1504, Note_on_c, 1, 63, 51
1, 1508, Note_on_c, 0, 68, 0
1, 1519, Note_on_c, 1, 63, 0
1, 1520, Note_on_c, 1, 60, 51
1, 1535, Note_on_c, 1, 60, 0
1, 1536, Note_on_c, 1, 56, 51
1, 1551, Note_on_c, 1, 56, 0
1, 1552, Note_on_c, 0, 80, 65
1, 1552, Note_on_c, 1, 60, 51
1, 1567, Note_on_c, 0, 80, 0
1, 1567, Note_on_c, 1, 60, 0
1, 1568, Note_on_c, 0, 75, 65
1, 1568, Note_on_c, 1, 63, 51
1, 1583, Note_on_c, 0, 75, 0
1, 1583, Note_on_c, 1, 63, 0
1, 1584, Note_on_c, 0, 75, 65
1, 1584, Note_on_c, 1, 58, 51
1, 1599, Note_on_c, 0, 75, 0
1, 1599, Note_on_c, 1, 58, 0
1, 1600, Note_on_c, 0, 73, 65
1, 1600, Note_on_c, 1, 61, 51
1, 1615, Note_on_c, 0, 73, 0
1, 1615, Note_on_c, 1, 61, 0
1, 1616, Note_on_c, 0, 72, 65
1, 1616, Note_on_c, 1, 63, 51
1, 1631, Note_on_c, 0, 72, 0
1, 1631, Note_on_c, 1, 63, 0
1, 1632, Note_on_c, 0, 70, 65
1, 1632, Note_on_c, 1, 67, 51
1, 1647, Note_on_c, 1, 67, 0
1, 1648, Note_on_c, 1, 63, 51
1, 1652, Note_on_c, 0, 70, 0
1, 1663, Note_on_c, 1, 63, 0
1, 1664, Note_on_c, 1, 61, 51
1, 1679, Note_on_c, 1, 61, 0
1, 1680, Note_on_c, 1, 58, 51
1, 1695, Note_on_c, 1, 58, 0
1, 1696, Note_on_c, 0, 82, 65
1, 1696, Note_on_c, 1, 61, 51
1, 1711, Note_on_c, 0, 82, 0
1, 1711, Note_on_c, 1, 61, 0
1, 1712, Note_on_c, 0, 73, 65
1, 1712, Note_on_c, 1, 63, 51
1, 1727, Note_on_c, 0, 73, 0
1, 1727, Note_on_c, 1, 63, 0
1, 1728, Note_on_c, 0, 72, 65
1, 1728, Note_on_c, 1, 56, 51
1, 1743, Note_on_c, 0, 72, 0
1, 1743, Note_on_c, 1, 56, 0
1, 1744, Note_on_c, 0, 77, 65
1, 1744, Note_on_c, 1, 60, 51
1, 1759, Note_on_c, 0, 77, 0
1, 1759, Note_on_c, 1, 60, 0
1, 1760, Note_on_c, 0, 75, 65
1, 1760, Note_on_c, 1, 63, 51
1, 1775, Note_on_c, 0, 75, 0
1, 1775, Note_on_c, 1, 63, 0
1, 1776, Note_on_c, 0, 77, 65
1, 1776, Note_on_c, 1, 68, 51
1, 1782, Note_on_c, 0, 77, 0
1, 1782, Note_on_c, 0, 75, 65
1, 1788, Note_on_c, 0, 75, 0
1, 1788, Note_on_c, 0, 77, 65
1, 1792, Note_on_c, 1, 68, 0
1, 1792, Note_on_c, 1, 63, 51
1, 1794, Note_on_c, 0, 77, 0
1, 1794, Note_on_c, 0, 75, 65
1, 1800, Note_on_c, 0, 75, 0
1, 1800, Note_on_c, 0, 77, 65
1, 1806, Note_on_c, 0, 77, 0
1, 1806, Note_on_c, 0, 75, 65
1, 1807, Note_on_c, 1, 63, 0
1, 1808, Note_on_c, 1, 60, 51
1, 1812, Note_on_c, 0, 75, 0
1, 1812, Note_on_c, 0, 77, 65
1, 1818, Note_on_c, 0, 77, 0
1, 1818, Note_on_c, 0, 75, 65
1, 1823, Note_on_c, 1, 60, 0
1, 1824, Note_on_c, 0, 75, 0
1, 1824, Note_on_c, 0, 77, 65
1, 1824, Note_on_c, 1, 56, 51
1, 1830, Note_on_c, 0, 77, 0
1, 1830, Note_on_c, 0, 75, 65
1, 1836, Note_on_c, 0, 75, 0
1, 1836, Note_on_c, 0, 77, 65
1, 1839, Note_on_c, 1, 56, 0
1, 1840, Note_on_c, 1, 60, 51
1, 1842, Note_on_c, 0, 77, 0
1, 1842, Note_on_c, 0, 75, 65
1, 1848, Note_on_c, 0, 75, 0
1, 1848, Note_on_c, 0, 77, 65
1, 1854, Note_on_c, 0, 77, 0
1, 1854, Note_on_c, 0, 75, 65
1, 1855, Note_on_c, 1, 60, 0
1, 1856, Note_on_c, 1, 63, 51
1, 1860, Note_on_c, 0, 75, 0
1, 1860, Note_on_c, 0, 73, 65
1, 1866, Note_on_c, 0, 73, 0
1, 1866, Note_on_c, 0, 75, 65
1, 1871, Note_on_c, 1, 63, 0
1, 1872, Note_on_c, 0, 75, 0
1, 1872, Note_on_c, 0, 80, 65
1, 1872, Note_on_c, 1, 54, 51
1, 1887, Note_on_c, 0, 80, 0
1, 1887, Note_on_c, 1, 54, 0
1, 1888, Note_on_c, 0, 72, 65
1, 1888, Note_on_c, 1, 56, 51
1, 1903, Note_on_c, 0, 72, 0
1, 1903, Note_on_c, 1, 56, 0
1, 1904, Note_on_c, 0, 75, 65
1, 1904, Note_on_c, 1, 60, 51
1, 1919, Note_on_c, 0, 75, 0
1, 1919, Note_on_c, 1, 60, 0
1, 1920, Note_on_c, 0, 77, 65
1, 1920, Note_on_c, 1, 63, 51
1, 1926, Note_on_c, 0, 77, 0
1, 1926, Note_on_c, 0, 75, 65
1, 1932, Note_on_c, 0, 75, 0
1, 1932, Note_on_c, 0, 77, 65
1, 1935, Note_on_c, 1, 63, 0
1, 1936, Note_on_c, 1, 60, 51
1, 1938, Note_on_c, 0, 77, 0
1, 1938, Note_on_c, 0, 75, 65
1, 1944, Note_on_c, 0, 75, 0
1, 1944, Note_on_c, 0, 77, 65
1, 1950, Note_on_c, 0, 77, 0
1, 1950, Note_on_c, 0, 75, 65
1, 1951, Note_on_c, 1, 60, 0
1, 1952, Note_on_c, 1, 56, 51
1, 1956, Note_on_c, 0, 75, 0
1, 1956, Note_on_c, 0, 77, 65
1, 1962, Note_on_c, 0, 77, 0
1, 1962, Note_on_c, 0, 75, 65
1, 1967, Note_on_c, 1, 56, 0
1, 1968, Note_on_c, 0, 75, 0
1, 1968, Note_on_c, 0, 77, 65
1, 1968, Note_on_c, 1, 54, 51
1, 1974, Note_on_c, 0, 77, 0
1, 1974, Note_on_c, 0, 75, 65
1, 1980, Note_on_c, 0, 75, 0
1, 1980, Note_on_c, 0, 77, 65
1, 1983, Note_on_c, 1, 54, 0
1, 1984, Note_on_c, 1, 56, 51
1, 1986, Note_on_c, 0, 77, 0
1, 1986, Note_on_c, 0, 75, 65
1, 1992, Note_on_c, 0, 75, 0
1, 1992, Note_on_c, 0, 77, 65
1, 1998, Note_on_c, 0, 77, 0
1, 1998, Note_on_c, 0, 75, 65
1, 1999, Note_on_c, 1, 56, 0
1, 2000, Note_on_c, 1, 60, 51
1, 2004, Note_on_c, 0, 75, 0
1, 2004, Note_on_c, 0, 73, 65
1, 2010, Note_on_c, 0, 73, 0
1, 2010, Note_on_c, 0, 75, 65
1, 2015, Note_on_c, 1, 60, 0
1, 2016, Note_on_c, 0, 75, 0
1, 2016, Note_on_c, 0, 80, 65
1, 2016, Note_on_c, 1, 53, 51
1, 2031, Note_on_c, 0, 80, 0
1, 2031, Note_on_c, 1, 53, 0
1, 2032, Note_on_c, 0, 72, 65
1, 2032, Note_on_c, 1, 56, 51
1, 2047, Note_on_c, 0, 72, 0
1, 2047, Note_on_c, 1, 56, 0
1, 2048, Note_on_c, 0, 73, 65
1, 2048, Note_on_c, 1, 61, 51
1, 2063, Note_on_c, 0, 73, 0
1, 2063, Note_on_c, 1, 61, 0
1, 2064, Note_on_c, 0, 75, 65
1, 2064, Note_on_c, 1, 65, 51
1, 2070, Note_on_c, 0, 75, 0
1, 2070, Note_on_c, 0, 73, 65
1, 2076, Note_on_c, 0, 73, 0
1, 2076, Note_on_c, 0, 75, 65
1, 2079, Note_on_c, 1, 65, 0
1, 2080, Note_on_c, 1, 61, 51
1, 2082, Note_on_c, 0, 75, 0
1, 2082, Note_on_c, 0, 73, 65
1, 2088, Note_on_c, 0, 73, 0
1, 2088, Note_on_c, 0, 75, 65
1, 2094, Note_on_c, 0, 75, 0
1, 2094, Note_on_c, 0, 73, 65
1, 2095, Note_on_c, 1, 61, 0
1, 2096, Note_on_c, 1, 56, 51
1, 2100, Note_on_c, 0, 73, 0
1, 2100, Note_on_c, 0, 75, 65
1, 2106, Note_on_c, 0, 75, 0
1, 2106, Note_on_c, 0, 73, 65
1, 2111, Note_on_c, 1, 56, 0
1, 2112, Note_on_c, 0, 73, 0
1, 2112, Note_on_c, 0, 75, 65
1, 2112, Note_on_c, 1, 53, 51
1, 2118, Note_on_c, 0, 75, 0
1, 2118, Note_on_c, 0, 73, 65
1, 2124, Note_on_c, 0, 73, 0
1, 2124, Note_on_c, 0, 75, 65
1, 2127, Note_on_c, 1, 53, 0
1, 2128, Note_on_c, 1, 56, 51
1, 2130, Note_on_c, 0, 75, 0
1, 2130, Note_on_c, 0, 73, 65
1, 2136, Note_on_c, 0, 73, 0
1, 2136, Note_on_c, 0, 75, 65
1, 2142, Note_on_c, 0, 75, 0
1, 2142, Note_on_c, 0, 73, 65
1, 2143, Note_on_c, 1, 56, 0
1, 2144, Note_on_c, 1, 61, 51
1, 2148, Note_on_c, 0, 73, 0
1, 2148, Note_on_c, 0, 72, 65
1, 2154, Note_on_c, 0, 72, 0
1, 2154, Note_on_c, 0, 73, 65
1, 2159, Note_on_c, 1, 61, 0
1, 2160, Note_on_c, 0, 73, 0
1, 2160, Note_on_c, 0, 80, 65
1, 2160, Note_on_c, 1, 52, 51
1, 2175, Note_on_c, 0, 80, 0
1, 2175, Note_on_c, 1, 52, 0
1, 2176, Note_on_c, 0, 72, 65
1, 2176, Note_on_c, 1, 56, 51
1, 2191, Note_on_c, 0, 72, 0
1, 2191, Note_on_c, 1, 56, 0
1, 2192, Note_on_c, 0, 73, 65
1, 2192, Note_on_c, 1, 61, 51
1, 2207, Note_on_c, 0, 73, 0
1, 2207, Note_on_c, 1, 61, 0
1, 2208, Note_on_c, 0, 75, 65
1, 2208, Note_on_c, 1, 64, 51
1, 2214, Note_on_c, 0, 75, 0
1, 2214, Note_on_c, 0, 73, 65
1, 2220, Note_on_c, 0, 73, 0
1, 2220, Note_on_c, 0, 75, 65
1, 2223, Note_on_c, 1, 64, 0
1, 2224, Note_on_c, 1, 61, 51
1, 2226, Note_on_c, 0, 75, 0
1, 2226, Note_on_c, 0, 73, 65
1, 2232, Note_on_c, 0, 73, 0
1, 2232, Note_on_c, 0, 75, 65
1, 2238, Note_on_c, 0, 75, 0
1, 2238, Note_on_c, 0, 73, 65
1, 2239, Note_on_c, 1, 61, 0
1, 2240, Note_on_c, 1, 56, 51
1, 2244, Note_on_c, 0, 73, 0
1, 2244, Note_on_c, 0, 75, 65
1, 2250, Note_on_c, 0, 75, 0
1, 2250, Note_on_c, 0, 73, 65
1, 2255, Note_on_c, 1, 56, 0
1, 2256, Note_on_c, 0, 73, 0
1, 2256, Note_on_c, 0, 75, 65
1, 2256, Note_on_c, 1, 52, 51
1, 2262, Note_on_c, 0, 75, 0
1, 2262, Note_on_c, 0, 73, 65
1, 2268, Note_on_c, 0, 73, 0
1, 2268, Note_on_c, 0, 75, 65
1, 2271, Note_on_c, 1, 52, 0
1, 2272, Note_on_c, 1, 56, 51
1, 2274, Note_on_c, 0, 75, 0
1, 2274, Note_on_c, 0, 73, 65
1, 2280, Note_on_c, 0, 73, 0
1, 2280, Note_on_c, 0, 75, 65
1, 2286, Note_on_c, 0, 75, 0
1, 2286, Note_on_c, 0, 73, 65
1, 2287, Note_on_c, 1, 56, 0
1, 2288, Note_on_c, 1, 61, 51
1, 2292, Note_on_c, 0, 73, 0
1, 2292, Note_on_c, 0, 72, 65
1, 2298, Note_on_c, 0, 72, 0
1, 2298, Note_on_c, 0, 73, 65
1, 2303, Note_on_c, 1, 61, 0
1, 2304, Note_on_c, 0, 73, 0
1, 2304, Note_on_c, 0, 73, 65
1, 2304, Note_on_c, 1, 51, 51
1, 2319, Note_on_c, 0, 73, 0
1, 2320, Note_on_c, 0, 67, 65
1, 2335, Note_on_c, 0, 67, 0
1, 2336, Note_on_c, 0, 79, 65
1, 2351, Note_on_c, 0, 79, 0
1, 2352, Note_on_c, 0, 73, 65
1, 2367, Note_on_c, 0, 73, 0
1, 2368, Note_on_c, 0, 82, 65
1, 2383, Note_on_c, 0, 82, 0
1, 2384, Note_on_c, 0, 79, 65
1, 2399, Note_on_c, 0, 79, 0
1, 2400, Note_on_c, 0, 85, 81
1, 2437, Note_on_c, 1, 51, 0
1, 2448, Note_on_c, 1, 55, 51
1, 2463, Note_on_c, 0, 85, 0
1, 2464, Note_on_c, 0, 84, 65
1, 2479, Note_on_c, 0, 84, 0
1, 2480, Note_on_c, 0, 82, 65
1, 2495, Note_on_c, 0, 82, 0
1, 2496, Note_on_c, 0, 80, 65
1, 2511, Note_on_c, 0, 80, 0
1, 2512, Note_on_c, 0, 79, 65
1, 2527, Note_on_c, 0, 79, 0
1, 2528, Note_on_c, 0, 77, 65
1, 2543, Note_on_c, 0, 77, 0
1, 2544, Note_on_c, 0, 75, 65
1, 2559, Note_on_c, 0, 75, 0
1, 2560, Note_on_c, 0, 82, 65
1, 2575, Note_on_c, 0, 82, 0
1, 2576, Note_on_c, 0, 73, 65
1, 2581, Note_on_c, 1, 55, 0
1, 2591, Note_on_c, 0, 73, 0
1, 2592, Note_on_c, 0, 72, 65
1, 2592, Note_on_c, 1, 56, 51
1, 2607, Note_on_c, 0, 72, 0
1, 2608, Note_on_c, 0, 84, 65
1, 2623, Note_on_c, 0, 84, 0
1, 2624, Note_on_c, 0, 75, 65
1, 2639, Note_on_c, 0, 75, 0
1, 2640, Note_on_c, 0, 80, 65
1, 2655, Note_on_c, 0, 80, 0
1, 2656, Note_on_c, 0, 72, 65
1, 2671, Note_on_c, 0, 72, 0
1, 2672, Note_on_c, 0, 75, 65
1, 2681, Note_on_c, 1, 56, 0
1, 2687, Note_on_c, 0, 75, 0
1, 2688, Note_on_c, 0, 68, 65
1, 2703, Note_on_c, 0, 68, 0
1, 2704, Note_on_c, 0, 72, 65
1, 2719, Note_on_c, 0, 72, 0
1, 2720, Note_on_c, 0, 63, 65
1, 2735, Note_on_c, 0, 63, 0
1, 2736, Note_on_c, 0, 68, 75
1, 2751, Note_on_c, 0, 68, 0
1, 2752, Note_on_c, 0, 60, 75
1, 2752, Note_on_c, 1, 48, 75
1, 2767, Note_on_c, 0, 60, 0
1, 2767, Note_on_c, 1, 48, 0
1, 2768, Note_on_c, 0, 63, 75
1, 2768, Note_on_c, 1, 51, 75
1, 2783, Note_on_c, 0, 63, 0
1, 2783, Note_on_c, 1, 51, 0
1, 2784, Note_on_c, 0, 56, 75
1, 2784, Note_on_c, 1, 44, 75
1, 2799, Note_on_c, 0, 56, 0
1, 2799, Note_on_c, 1, 44, 0
1, 2800, Note_on_c, 0, 60, 75
1, 2800, Note_on_c, 1, 48, 75
1, 2815, Note_on_c, 0, 60, 0
1, 2815, Note_on_c, 1, 48, 0
1, 2816, Note_on_c, 0, 63, 75
1, 2816, Note_on_c, 1, 51, 75
1, 2831, Note_on_c, 0, 63, 0
1, 2831, Note_on_c, 1, 51, 0
1, 2832, Note_on_c, 0, 54, 75
1, 2832, Note_on_c, 1, 42, 75
1, 2847, Note_on_c, 0, 54, 0
1, 2847, Note_on_c, 1, 42, 0
1, 2848, Note_on_c, 0, 63, 75
1, 2848, Note_on_c, 1, 51, 75
1, 2863, Note_on_c, 0, 63, 0
1, 2863, Note_on_c, 1, 51, 0
1, 2864, Note_on_c, 0, 54, 75
1, 2864, Note_on_c, 1, 42, 75
1, 2879, Note_on_c, 0, 54, 0
1, 2879, Note_on_c, 1, 42, 0
1, 2880, Note_on_c, 0, 53, 75
1, 2880, Note_on_c, 1, 41, 75
1, 2895, Note_on_c, 0, 53, 0
1, 2896, Note_on_c, 0, 61, 74
1, 2911, Note_on_c, 0, 61, 0
1, 2912, Note_on_c, 0, 56, 73
1, 2927, Note_on_c, 0, 56, 0
1, 2928, Note_on_c, 0, 65, 72
1, 2943, Note_on_c, 0, 65, 0
1, 2944, Note_on_c, 0, 61, 71
1, 2959, Note_on_c, 0, 61, 0
1, 2960, Note_on_c, 0, 68, 70
1, 2969, Note_on_c, 1, 41, 0
1, 2975, Note_on_c, 0, 68, 0
1, 2976, Note_on_c, 0, 65, 70
1, 2991, Note_on_c, 0, 65, 0
1, 2992, Note_on_c, 0, 73, 69
1, 3007, Note_on_c, 0, 73, 0
1, 3008, Note_on_c, 0, 68, 68
1, 3023, Note_on_c, 0, 68, 0
1, 3024, Note_on_c, 0, 77, 65
1, 3024, Note_on_c, 1, 49, 65
1, 3044, Note_on_c, 1, 49, 0
1, 3072, Note_on_c, 1, 61, 65
1, 3087, Note_on_c, 0, 77, 0
1, 3088, Note_on_c, 0, 76, 65
1, 3092, Note_on_c, 1, 61, 0
1, 3103, Note_on_c, 0, 76, 0
1, 3104, Note_on_c, 0, 77, 65
1, 3119, Note_on_c, 0, 77, 0
1, 3120, Note_on_c, 0, 80, 65
1, 3135, Note_on_c, 0, 80, 0
1, 3136, Note_on_c, 0, 72, 65
1, 3151, Note_on_c, 0, 72, 0
1, 3152, Note_on_c, 0, 73, 65
1, 3167, Note_on_c, 0, 73, 0
1, 3168, Note_on_c, 0, 77, 65
1, 3183, Note_on_c, 0, 77, 0
1, 3184, Note_on_c, 0, 65, 65
1, 3199, Note_on_c, 0, 65, 0
1, 3200, Note_on_c, 0, 77, 65
1, 3215, Note_on_c, 0, 77, 0
1, 3216, Note_on_c, 0, 76, 65
1, 3231, Note_on_c, 0, 76, 0
1, 3232, Note_on_c, 0, 75, 65
1, 3247, Note_on_c, 0, 75, 0
1, 3248, Note_on_c, 0, 74, 65
1, 3263, Note_on_c, 0, 74, 0
1, 3264, Note_on_c, 0, 73, 65
1, 3279, Note_on_c, 0, 73, 0
1, 3280, Note_on_c, 0, 72, 65
1, 3295, Note_on_c, 0, 72, 0
1, 3296, Note_on_c, 0, 70, 65
1, 3311, Note_on_c, 0, 70, 0
1, 3312, Note_on_c, 0, 68, 65
1, 3312, Note_on_c, 1, 51, 58
1, 3327, Note_on_c, 1, 51, 0
1, 3328, Note_on_c, 1, 56, 58
1, 3343, Note_on_c, 1, 56, 0
1, 3344, Note_on_c, 1, 60, 58
1, 3359, Note_on_c, 1, 60, 0
1, 3360, Note_on_c, 1, 63, 58
1, 3375, Note_on_c, 1, 63, 0
1, 3376, Note_on_c, 1, 60, 58
1, 3391, Note_on_c, 1, 60, 0
1, 3392, Note_on_c, 1, 56, 58
1, 3401, Note_on_c, 0, 68, 0
1, 3407, Note_on_c, 1, 56, 0
1, 3408, Note_on_c, 0, 72, 65
1, 3408, Note_on_c, 1, 51, 58
1, 3423, Note_on_c, 0, 72, 0
1, 3423, Note_on_c, 1, 51, 0
1, 3424, Note_on_c, 0, 70, 65
1, 3424, Note_on_c, 1, 56, 58
1, 3439, Note_on_c, 0, 70, 0
1, 3439, Note_on_c, 1, 56, 0
1, 3440, Note_on_c, 0, 68, 65
1, 3440, Note_on_c, 1, 60, 58
1, 3455, Note_on_c, 0, 68, 0
1, 3455, Note_on_c, 1, 60, 0
1, 3456, Note_on_c, 0, 75, 65
1, 3456, Note_on_c, 1, 51, 58
1, 3471, Note_on_c, 1, 51, 0
1, 3472, Note_on_c, 1, 56, 58
1, 3487, Note_on_c, 1, 56, 0
1, 3488, Note_on_c, 1, 60, 58
1, 3501, Note_on_c, 0, 75, 0
1, 3503, Note_on_c, 1, 60, 0
1, 3504, Note_on_c, 1, 63, 58
1, 3519, Note_on_c, 1, 63, 0
1, 3520, Note_on_c, 1, 60, 58
1, 3535, Note_on_c, 1, 60, 0
1, 3536, Note_on_c, 1, 56, 58
1, 3551, Note_on_c, 1, 56, 0
1, 3552, Note_on_c, 1, 51, 58
1, 3567, Note_on_c, 1, 51, 0
1, 3568, Note_on_c, 1, 56, 58
1, 3583, Note_on_c, 1, 56, 0
1, 3584, Note_on_c, 1, 60, 58
1, 3599, Note_on_c, 1, 60, 0
1, 3600, Note_on_c, 0, 75, 65
1, 3600, Note_on_c, 1, 53, 58
1, 3606, Note_on_c, 0, 75, 0
1, 3606, Note_on_c, 0, 74, 65
1, 3612, Note_on_c, 0, 74, 0
1, 3612, Note_on_c, 0, 75, 65
1, 3615, Note_on_c, 1, 53, 0
1, 3616, Note_on_c, 1, 56, 58
1, 3618, Note_on_c, 0, 75, 0
1, 3618, Note_on_c, 0, 74, 65
1, 3631, Note_on_c, 1, 56, 0
1, 3632, Note_on_c, 1, 58, 58
1, 3647, Note_on_c, 1, 58, 0
1, 3648, Note_on_c, 1, 62, 58
1, 3663, Note_on_c, 1, 62, 0
1, 3664, Note_on_c, 1, 58, 58
1, 3679, Note_on_c, 1, 58, 0
1, 3680, Note_on_c, 1, 56, 58
1, 3693, Note_on_c, 0, 74, 0
1, 3695, Note_on_c, 1, 56, 0
1, 3696, Note_on_c, 0, 77, 65
1, 3696, Note_on_c, 1, 53, 58
1, 3711, Note_on_c, 0, 77, 0
1, 3711, Note_on_c, 1, 53, 0
1, 3712, Note_on_c, 0, 75, 65
1, 3712, Note_on_c, 1, 56, 58
1, 3727, Note_on_c, 0, 75, 0
1, 3727, Note_on_c, 1, 56, 0
1, 3728, Note_on_c, 0, 74, 65
1, 3728, Note_on_c, 1, 58, 58
1, 3743, Note_on_c, 0, 74, 0
1, 3743, Note_on_c, 1, 58, 0
1, 3744, Note_on_c, 0, 84, 65
1, 3744, Note_on_c, 1, 53, 58
1, 3751, Note_on_c, 0, 84, 0
1, 3759, Note_on_c, 1, 53, 0
1, 3760, Note_on_c, 0, 84, 65
1, 3760, Note_on_c, 1, 56, 58
1, 3767, Note_on_c, 0, 84, 0
1, 3775, Note_on_c, 1, 56, 0
1, 3776, Note_on_c, 0, 82, 65
1, 3776, Note_on_c, 1, 58, 58
1, 3783, Note_on_c, 0, 82, 0
1, 3791, Note_on_c, 1, 58, 0
1, 3792, Note_on_c, 0, 80, 65
1, 3792, Note_on_c, 1, 62, 58
1, 3799, Note_on_c, 0, 80, 0
1, 3807, Note_on_c, 1, 62, 0
1, 3808, Note_on_c, 0, 79, 65
1, 3808, Note_on_c, 1, 58, 58
1, 3815, Note_on_c, 0, 79, 0
1, 3823, Note_on_c, 1, 58, 0
1, 3824, Note_on_c, 0, 77, 65
1, 3824, Note_on_c, 1, 56, 58
1, 3831, Note_on_c, 0, 77, 0
1, 3839, Note_on_c, 1, 56, 0
1, 3840, Note_on_c, 0, 75, 65
1, 3840, Note_on_c, 1, 53, 58
1, 3847, Note_on_c, 0, 75, 0
1, 3855, Note_on_c, 1, 53, 0
1, 3856, Note_on_c, 0, 74, 65
1, 3856, Note_on_c, 1, 56, 58
1, 3863, Note_on_c, 0, 74, 0
1, 3871, Note_on_c, 1, 56, 0
1, 3872, Note_on_c, 0, 77, 65
1, 3872, Note_on_c, 1, 58, 58
1, 3879, Note_on_c, 0, 77, 0
1, 3887, Note_on_c, 1, 58, 0
1, 3888, Note_on_c, 0, 75, 65
1, 3888, Note_on_c, 1, 55, 58
1, 3894, Note_on_c, 0, 75, 0
1, 3894, Note_on_c, 0, 77, 65
1, 3900, Note_on_c, 0, 77, 0
1, 3900, Note_on_c, 0, 75, 65
1, 3903, Note_on_c, 1, 55, 0
1, 3904, Note_on_c, 1, 58, 58
1, 3906, Note_on_c, 0, 75, 0
1, 3906, Note_on_c, 0, 77, 65
1, 3912, Note_on_c, 0, 77, 0
1, 3912, Note_on_c, 0, 75, 65
1, 3918, Note_on_c, 0, 75, 0
1, 3918, Note_on_c, 0, 77, 65
1, 3919, Note_on_c, 1, 58, 0
1, 3920, Note_on_c, 1, 63, 58
1, 3924, Note_on_c, 0, 77, 0
1, 3924, Note_on_c, 0, 75, 65
1, 3930, Note_on_c, 0, 75, 0
1, 3930, Note_on_c, 0, 77, 65
1, 3935, Note_on_c, 1, 63, 0
1, 3936, Note_on_c, 0, 77, 0
1, 3936, Note_on_c, 0, 75, 65
1, 3936, Note_on_c, 1, 67, 58
1, 3951, Note_on_c, 1, 67, 0
1, 3952, Note_on_c, 1, 63, 58
1, 3967, Note_on_c, 1, 63, 0
1, 3968, Note_on_c, 1, 58, 58
1, 3983, Note_on_c, 1, 58, 0
1, 3984, Note_on_c, 1, 55, 58
1, 3999, Note_on_c, 0, 75, 0
1, 3999, Note_on_c, 1, 55, 0
1, 4000, Note_on_c, 0, 77, 65
1, 4000, Note_on_c, 1, 58, 58
1, 4015, Note_on_c, 0, 77, 0
1, 4015, Note_on_c, 1, 58, 0
1, 4016, Note_on_c, 0, 73, 65
1, 4016, Note_on_c, 1, 63, 58
1, 4031, Note_on_c, 0, 73, 0
1, 4031, Note_on_c, 1, 63, 0
1, 4032, Note_on_c, 0, 73, 65
1, 4032, Note_on_c, 1, 56, 58
1, 4047, Note_on_c, 0, 73, 0
1, 4047, Note_on_c, 1, 56, 0
1, 4048, Note_on_c, 0, 72, 65
1, 4048, Note_on_c, 1, 60, 58
1, 4063, Note_on_c, 0, 72, 0
1, 4063, Note_on_c, 1, 60, 0
1, 4064, Note_on_c, 0, 70, 65
1, 4064, Note_on_c, 1, 63, 58
1, 4079, Note_on_c, 0, 70, 0
1, 4079, Note_on_c, 1, 63, 0
1, 4080, Note_on_c, 0, 68, 65
1, 4080, Note_on_c, 1, 68, 58
1, 4096, Note_on_c, 1, 68, 0
1, 4096, Note_on_c, 1, 63, 58
1, 4100, Note_on_c, 0, 68, 0
1, 4111, Note_on_c, 1, 63, 0
1, 4112, Note_on_c, 1, 60, 58
1, 4127, Note_on_c, 1, 60, 0
1, 4128, Note_on_c, 1, 56, 58
1, 4143, Note_on_c, 1, 56, 0
1, 4144, Note_on_c, 0, 80, 65
1, 4144, Note_on_c, 1, 60, 58
1, 4159, Note_on_c, 0, 80, 0
1, 4159, Note_on_c, 1, 60, 0
1, 4160, Note_on_c, 0, 75, 65
1, 4160, Note_on_c, 1, 63, 58
1, 4175, Note_on_c, 0, 75, 0
1, 4175, Note_on_c, 1, 63, 0
1, 4176, Note_on_c, 0, 77, 65
1, 4176, Note_on_c, 1, 58, 58
1, 4182, Note_on_c, 0, 77, 0
1, 4182, Note_on_c, 0, 75, 65
1, 4191, Note_on_c, 0, 75, 0
1, 4191, Note_on_c, 1, 58, 0
1, 4192, Note_on_c, 0, 73, 65
1, 4192, Note_on_c, 1, 61, 58
1, 4207, Note_on_c, 0, 73, 0
1, 4207, Note_on_c, 1, 61, 0
1, 4208, Note_on_c, 0, 72, 65
1, 4208, Note_on_c, 1, 63, 58
1, 4223, Note_on_c, 0, 72, 0
1, 4223, Note_on_c, 1, 63, 0
1, 4224, Note_on_c, 0, 70, 65
1, 4224, Note_on_c, 1, 67, 58
1, 4239, Note_on_c, 1, 67, 0
1, 4240, Note_on_c, 1, 63, 58
1, 4244, Note_on_c, 0, 70, 0
1, 4255, Note_on_c, 1, 63, 0
1, 4256, Note_on_c, 1, 61, 58
1, 4271, Note_on_c, 1, 61, 0
1, 4272, Note_on_c, 1, 58, 51
1, 4287, Note_on_c, 1, 58, 0
1, 4288, Note_on_c, 0, 82, 58
1, 4288, Note_on_c, 1, 61, 51
1, 4303, Note_on_c, 0, 82, 0
1, 4303, Note_on_c, 1, 61, 0
1, 4304, Note_on_c, 0, 73, 58
1, 4304, Note_on_c, 1, 63, 51
1, 4319, Note_on_c, 0, 73, 0
1, 4319, Note_on_c, 1, 63, 0
1, 4320, Note_on_c, 0, 73, 58
1, 4320, Note_on_c, 1, 56, 51
1, 4335, Note_on_c, 0, 73, 0
1, 4335, Note_on_c, 1, 56, 0
1, 4336, Note_on_c, 0, 72, 58
1, 4336, Note_on_c, 1, 60, 51
1, 4351, Note_on_c, 0, 72, 0
1, 4351, Note_on_c, 1, 60, 0
1, 4352, Note_on_c, 0, 70, 58
1, 4352, Note_on_c, 1, 63, 51
1, 4367, Note_on_c, 0, 70, 0
1, 4367, Note_on_c, 1, 63, 0
1, 4368, Note_on_c, 0, 68, 58
1, 4368, Note_on_c, 1, 68, 51
1, 4384, Note_on_c, 1, 68, 0
1, 4384, Note_on_c, 1, 63, 51
1, 4388, Note_on_c, 0, 68, 0
1, 4399, Note_on_c, 1, 63, 0
1, 4400, Note_on_c, 1, 60, 51
1, 4415, Note_on_c, 1, 60, 0
1, 4416, Note_on_c, 1, 56, 51
1, 4431, Note_on_c, 1, 56, 0
1, 4432, Note_on_c, 0, 80, 58
1, 4432, Note_on_c, 1, 60, 51
1, 4447, Note_on_c, 0, 80, 0
1, 4447, Note_on_c, 1, 60, 0
1, 4448, Note_on_c, 0, 75, 58
1, 4448, Note_on_c, 1, 63, 51
1, 4463, Note_on_c, 0, 75, 0
1, 4463, Note_on_c, 1, 63, 0
1, 4464, Note_on_c, 0, 77, 58
1, 4464, Note_on_c, 1, 58, 51
1, 4470, Note_on_c, 0, 77, 0
1, 4470, Note_on_c, 0, 75, 58
1, 4479, Note_on_c, 0, 75, 0
1, 4479, Note_on_c, 1, 58, 0
1, 4480, Note_on_c, 0, 73, 58
1, 4480, Note_on_c, 1, 61, 51
1, 4495, Note_on_c, 0, 73, 0
1, 4495, Note_on_c, 1, 61, 0
1, 4496, Note_on_c, 0, 72, 58
1, 4496, Note_on_c, 1, 63, 51
1, 4511, Note_on_c, 0, 72, 0
1, 4511, Note_on_c, 1, 63, 0
1, 4512, Note_on_c, 0, 70, 58
1, 4512, Note_on_c, 1, 67, 51
1, 4527, Note_on_c, 1, 67, 0
1, 4528, Note_on_c, 1, 63, 51
1, 4532, Note_on_c, 0, 70, 0
1, 4543, Note_on_c, 1, 63, 0
1, 4544, Note_on_c, 1, 61, 51
1, 4559, Note_on_c, 1, 61, 0
1, 4560, Note_on_c, 1, 58, 58
1, 4575, Note_on_c, 1, 58, 0
1, 4576, Note_on_c, 0, 82, 65
1, 4576, Note_on_c, 1, 61, 58
1, 4591, Note_on_c, 0, 82, 0
1, 4591, Note_on_c, 1, 61, 0
1, 4592, Note_on_c, 0, 73, 65
1, 4592, Note_on_c, 1, 63, 58
1, 4607, Note_on_c, 0, 73, 0
1, 4607, Note_on_c, 1, 63, 0
1, 4608, Note_on_c, 0, 72, 65
1, 4608, Note_on_c, 1, 56, 58
1, 4623, Note_on_c, 0, 72, 0
1, 4623, Note_on_c, 1, 56, 0
1, 4624, Note_on_c, 0, 80, 65
1, 4624, Note_on_c, 1, 60, 58
1, 4639, Note_on_c, 0, 80, 0
1, 4639, Note_on_c, 1, 60, 0
1, 4640, Note_on_c, 0, 78, 65
1, 4640, Note_on_c, 1, 63, 58
1, 4655, Note_on_c, 0, 78, 0
1, 4655, Note_on_c, 1, 63, 0
1, 4656, Note_on_c, 0, 78, 81
1, 4656, Note_on_c, 1, 68, 58
1, 4671, Note_on_c, 1, 68, 0
1, 4672, Note_on_c, 1, 63, 58
1, 4687, Note_on_c, 1, 63, 0
1, 4688, Note_on_c, 1, 60, 58
1, 4703, Note_on_c, 1, 60, 0
1, 4704, Note_on_c, 1, 56, 58
1, 4719, Note_on_c, 0, 78, 0
1, 4719, Note_on_c, 1, 56, 0
1, 4720, Note_on_c, 0, 75, 65
1, 4720, Note_on_c, 1, 60, 58
1, 4735, Note_on_c, 0, 75, 0
1, 4735, Note_on_c, 1, 60, 0
1, 4736, Note_on_c, 0, 72, 65
1, 4736, Note_on_c, 1, 63, 58
1, 4751, Note_on_c, 0, 72, 0
1, 4751, Note_on_c, 1, 63, 0
1, 4752, Note_on_c, 0, 70, 65
1, 4752, Note_on_c, 1, 60, 58
1, 4768, Note_on_c, 0, 70, 0
1, 4768, Note_on_c, 0, 68, 65
1, 4783, Note_on_c, 0, 68, 0
1, 4784, Note_on_c, 0, 75, 65
1, 4799, Note_on_c, 0, 75, 0
1, 4800, Note_on_c, 0, 68, 65
1, 4816, Note_on_c, 0, 68, 0
1, 4816, Note_on_c, 0, 67, 65
1, 4831, Note_on_c, 0, 67, 0
1, 4832, Note_on_c, 0, 75, 65
1, 4847, Note_on_c, 0, 75, 0
1, 4848, Note_on_c, 0, 68, 65
1, 4864, Note_on_c, 0, 68, 0
1, 4864, Note_on_c, 0, 66, 65
1, 4879, Note_on_c, 0, 66, 0
1, 4880, Note_on_c, 0, 75, 65
1, 4885, Note_on_c, 1, 60, 0
1, 4895, Note_on_c, 0, 75, 0
1, 4896, Note_on_c, 0, 66, 65
1, 4896, Note_on_c, 1, 61, 51
1, 4911, Note_on_c, 0, 66, 0
1, 4912, Note_on_c, 0, 64, 66
1, 4928, Note_on_c, 0, 64, 0
1, 4928, Note_on_c, 0, 65, 67
1, 4943, Note_on_c, 0, 65, 0
1, 4944, Note_on_c, 0, 69, 68
1, 4960, Note_on_c, 0, 69, 0
1, 4960, Note_on_c, 0, 70, 70
1, 4975, Note_on_c, 0, 70, 0
1, 4976, Note_on_c, 0, 73, 71
1, 4985, Note_on_c, 1, 61, 0
1, 4991, Note_on_c, 0, 73, 0
1, 4992, Note_on_c, 0, 77, 72
1, 5007, Note_on_c, 0, 77, 0
1, 5008, Note_on_c, 0, 73, 73
1, 5023, Note_on_c, 0, 73, 0
1, 5024, Note_on_c, 0, 70, 75
1, 5039, Note_on_c, 0, 70, 0
1, 5040, Note_on_c, 0, 68, 74
1, 5040, Note_on_c, 1, 51, 65
1, 5055, Note_on_c, 1, 51, 0
1, 5056, Note_on_c, 1, 56, 65
1, 5071, Note_on_c, 1, 56, 0
1, 5072, Note_on_c, 1, 60, 65
1, 5087, Note_on_c, 1, 60, 0
1, 5088, Note_on_c, 1, 63, 65
1, 5103, Note_on_c, 1, 63, 0
1, 5104, Note_on_c, 1, 60, 65
1, 5119, Note_on_c, 1, 60, 0
1, 5120, Note_on_c, 1, 56, 65
1, 5129, Note_on_c, 0, 68, 0
1, 5135, Note_on_c, 1, 56, 0
1, 5136, Note_on_c, 0, 72, 65
1, 5136, Note_on_c, 1, 51, 65
1, 5142, Note_on_c, 0, 72, 0
1, 5142, Note_on_c, 0, 70, 65
1, 5151, Note_on_c, 1, 51, 0
1, 5152, Note_on_c, 1, 56, 65
1, 5159, Note_on_c, 0, 70, 0
1, 5160, Note_on_c, 0, 68, 65
1, 5167, Note_on_c, 1, 56, 0
1, 5168, Note_on_c, 1, 60, 65
1, 5183, Note_on_c, 0, 68, 0
1, 5183, Note_on_c, 1, 60, 0
1, 5184, Note_on_c, 0, 68, 65
1, 5184, Note_on_c, 1, 60, 65
1, 5184, Note_on_c, 1, 56, 65
1, 5199, Note_on_c, 0, 68, 0
1, 5200, Note_on_c, 0, 75, 65
1, 5215, Note_on_c, 0, 75, 0
1, 5216, Note_on_c, 0, 67, 65
1, 5229, Note_on_c, 1, 60, 0
1, 5229, Note_on_c, 1, 56, 0
1, 5231, Note_on_c, 0, 67, 0
1, 5232, Note_on_c, 0, 70, 65
1, 5237, Note_on_c, 0, 70, 0
1, 5237, Note_on_c, 0, 68, 65
1, 5242, Note_on_c, 0, 68, 0
1, 5242, Note_on_c, 0, 67, 65
1, 5247, Note_on_c, 0, 67, 0
1, 5247, Note_on_c, 0, 68, 65
1, 5252, Note_on_c, 0, 68, 0
1, 5252, Note_on_c, 0, 72, 65
1, 5267, Note_on_c, 0, 72, 0
1, 5267, Note_on_c, 0, 63, 65
1, 5280, Note_on_c, 0, 63, 0
1, 5280, Note_on_c, 0, 63, 65
1, 5280, Note_on_c, 1, 58, 65
1, 5280, Note_on_c, 1, 51, 65
1, 5286, Note_on_c, 0, 63, 0
1, 5286, Note_on_c, 0, 61, 65
1, 5292, Note_on_c, 0, 61, 0
1, 5292, Note_on_c, 0, 63, 65
1, 5298, Note_on_c, 0, 63, 0
1, 5298, Note_on_c, 0, 61, 65
1, 5304, Note_on_c, 0, 61, 0
1, 5304, Note_on_c, 0, 63, 65
1, 5310, Note_on_c, 0, 63, 0
1, 5310, Note_on_c, 0, 61, 65
1, 5316, Note_on_c, 0, 61, 0
1, 5316, Note_on_c, 0, 60, 65
1, 5322, Note_on_c, 0, 60, 0
1, 5322, Note_on_c, 0, 61, 65
1, 5325, Note_on_c, 1, 58, 0
1, 5325, Note_on_c, 1, 51, 0
1, 5328, Note_on_c, 0, 61, 0
1, 5328, Note_on_c, 0, 60, 65
1, 5328, Note_on_c, 1, 56, 65
1, 5328, Note_on_c, 1, 44, 65
1, 5343, Note_on_c, 0, 60, 0
1, 5344, Note_on_c, 0, 75, 65
1, 5359, Note_on_c, 0, 75, 0
1, 5360, Note_on_c, 0, 67, 65
1, 5373, Note_on_c, 1, 56, 0
1, 5373, Note_on_c, 1, 44, 0
1, 5375, Note_on_c, 0, 67, 0
1, 5376, Note_on_c, 0, 70, 65
1, 5381, Note_on_c, 0, 70, 0
1, 5381, Note_on_c, 0, 68, 65
1, 5386, Note_on_c, 0, 68, 0
1, 5386, Note_on_c, 0, 67, 65
1, 5391, Note_on_c, 0, 67, 0
1, 5391, Note_on_c, 0, 68, 65
1, 5396, Note_on_c, 0, 68, 0
1, 5396, Note_on_c, 0, 72, 65
1, 5411, Note_on_c, 0, 72, 0
1, 5411, Note_on_c, 0, 63, 65
1, 5424, Note_on_c, 0, 63, 0
1, 5424, Note_on_c, 0, 63, 65
1, 5424, Note_on_c, 1, 58, 65
1, 5424, Note_on_c, 1, 51, 65
1, 5430, Note_on_c, 0, 63, 0
1, 5430, Note_on_c, 0, 61, 65
1, 5436, Note_on_c, 0, 61, 0
1, 5436, Note_on_c, 0, 63, 65
1, 5442, Note_on_c, 0, 63, 0
1, 5442, Note_on_c, 0, 61, 65
1, 5448, Note_on_c, 0, 61, 0
1, 5448, Note_on_c, 0, 63, 65
1, 5454, Note_on_c, 0, 63, 0
1, 5454, Note_on_c, 0, 61, 65
1, 5460, Note_on_c, 0, 61, 0
1, 5460, Note_on_c, 0, 60, 65
1, 5466, Note_on_c, 0, 60, 0
1, 5466, Note_on_c, 0, 61, 65
1, 5469, Note_on_c, 1, 58, 0
1, 5469, Note_on_c, 1, 51, 0
1, 5472, Note_on_c, 0, 61, 0
1, 5472, Note_on_c, 0, 61, 65
1, 5472, Note_on_c, 1, 44, 65
1, 5487, Note_on_c, 1, 44, 0
1, 5488, Note_on_c, 1, 56, 64
1, 5503, Note_on_c, 1, 56, 0
1, 5504, Note_on_c, 1, 55, 63
1, 5519, Note_on_c, 1, 55, 0
1, 5520, Note_on_c, 0, 61, 0
1, 5520, Note_on_c, 0, 60, 65
1, 5520, Note_on_c, 1, 56, 62
1, 5535, Note_on_c, 1, 56, 0
1, 5536, Note_on_c, 1, 51, 61
1, 5551, Note_on_c, 1, 51, 0
1, 5552, Note_on_c, 1, 48, 60
1, 5567, Note_on_c, 1, 48, 0
1, 5568, Note_on_c, 1, 51, 59
1, 5583, Note_on_c, 1, 51, 0
1, 5584, Note_on_c, 1, 48, 58
1, 5599, Note_on_c, 1, 48, 0
1, 5600, Note_on_c, 1, 44, 58
1, 5613, Note_on_c, 0, 60, 0
1, 5615, Note_on_c, 1, 44, 0
1, 5616, Note_on_c, 1, 32, 57
1, 5661, Note_on_c, 1, 32, 0
1, 5760, Note_on_c, 0, 73, 65
1, 5760, Note_on_c, 1, 53, 51
1, 5766, Note_on_c, 0, 73, 0
1, 5766, Note_on_c, 0, 72, 65
1, 5772, Note_on_c, 0, 72, 0
1, 5772, Note_on_c, 0, 71, 65
1, 5775, Note_on_c, 1, 53, 0
1, 5776, Note_on_c, 1, 56, 51
1, 5778, Note_on_c, 0, 71, 0
1, 5778, Note_on_c, 0, 72, 65
1, 5791, Note_on_c, 1, 56, 0
1, 5792, Note_on_c, 1, 60, 51
1, 5807, Note_on_c, 1, 60, 0
1, 5808, Note_on_c, 1, 65, 51
1, 5823, Note_on_c, 1, 65, 0
1, 5824, Note_on_c, 1, 60, 51
1, 5827, Note_on_c, 0, 72, 0
1, 5832, Note_on_c, 0, 73, 65
1, 5839, Note_on_c, 1, 60, 0
1, 5840, Note_on_c, 1, 56, 51
1, 5855, Note_on_c, 0, 73, 0
1, 5855, Note_on_c, 1, 56, 0
1, 5856, Note_on_c, 0, 72, 65
1, 5856, Note_on_c, 1, 53, 51
1, 5871, Note_on_c, 1, 53, 0
1, 5872, Note_on_c, 1, 56, 51
1, 5887, Note_on_c, 1, 56, 0
1, 5888, Note_on_c, 1, 60, 51
1, 5901, Note_on_c, 0, 72, 0
1, 5903, Note_on_c, 1, 60, 0
1, 5904, Note_on_c, 0, 77, 65
1, 5904, Note_on_c, 1, 53, 51
1, 5916, Note_on_c, 0, 77, 0
1, 5916, Note_on_c, 0, 79, 65
1, 5919, Note_on_c, 1, 53, 0
1, 5920, Note_on_c, 1, 56, 51
1, 5928, Note_on_c, 0, 79, 0
1, 5928, Note_on_c, 0, 80, 65
1, 5935, Note_on_c, 1, 56, 0
1, 5936, Note_on_c, 1, 60, 51
1, 5951, Note_on_c, 0, 80, 0
1, 5951, Note_on_c, 1, 60, 0
1, 5952, Note_on_c, 1, 65, 51
1, 5967, Note_on_c, 1, 65, 0
1, 5968, Note_on_c, 1, 60, 51
1, 5983, Note_on_c, 1, 60, 0
1, 5984, Note_on_c, 1, 56, 51
1, 5999, Note_on_c, 1, 56, 0
1, 6000, Note_on_c, 1, 53, 51
1, 6015, Note_on_c, 1, 53, 0
1, 6016, Note_on_c, 1, 56, 51
1, 6031, Note_on_c, 1, 56, 0
1, 6032, Note_on_c, 1, 60, 51
1, 6047, Note_on_c, 1, 60, 0
1, 6048, Note_on_c, 0, 73, 65
1, 6048, Note_on_c, 1, 52, 51
1, 6054, Note_on_c, 0, 73, 0
1, 6054, Note_on_c, 0, 72, 65
1, 6060, Note_on_c, 0, 72, 0
1, 6060, Note_on_c, 0, 71, 65
1, 6063, Note_on_c, 1, 52, 0
1, 6064, Note_on_c, 1, 55, 51
1, 6066, Note_on_c, 0, 71, 0
1, 6066, Note_on_c, 0, 72, 65
1, 6079, Note_on_c, 1, 55, 0
1, 6080, Note_on_c, 1, 58, 51
1, 6095, Note_on_c, 1, 58, 0
1, 6096, Note_on_c, 1, 60, 51
1, 6111, Note_on_c, 1, 60, 0
1, 6112, Note_on_c, 1, 58, 51
1, 6115, Note_on_c, 0, 72, 0
1, 6120, Note_on_c, 0, 73, 65
1, 6127, Note_on_c, 1, 58, 0
1, 6128, Note_on_c, 1, 55, 51
1, 6143, Note_on_c, 0, 73, 0
1, 6143, Note_on_c, 1, 55, 0
1, 6144, Note_on_c, 0, 72, 65
1, 6144, Note_on_c, 1, 52, 51
1, 6159, Note_on_c, 1, 52, 0
1, 6160, Note_on_c, 1, 55, 51
1, 6175, Note_on_c, 1, 55, 0
1, 6176, Note_on_c, 1, 58, 51
1, 6189, Note_on_c, 0, 72, 0
1, 6191, Note_on_c, 1, 58, 0
1, 6192, Note_on_c, 0, 79, 65
1, 6192, Note_on_c, 1, 52, 51
1, 6204, Note_on_c, 0, 79, 0
1, 6204, Note_on_c, 0, 80, 65
1, 6207, Note_on_c, 1, 52, 0
1, 6208, Note_on_c, 1, 55, 51
1, 6216, Note_on_c, 0, 80, 0
1, 6216, Note_on_c, 0, 82, 65
1, 6223, Note_on_c, 1, 55, 0
1, 6224, Note_on_c, 1, 58, 51
1, 6239, Note_on_c, 0, 82, 0
1, 6239, Note_on_c, 1, 58, 0
1, 6240, Note_on_c, 1, 60, 51
1, 6255, Note_on_c, 1, 60, 0
1, 6256, Note_on_c, 1, 58, 51
1, 6271, Note_on_c, 1, 58, 0
1, 6272, Note_on_c, 1, 55, 51
1, 6287, Note_on_c, 1, 55, 0
1, 6288, Note_on_c, 1, 52, 51
1, 6303, Note_on_c, 1, 52, 0
1, 6304, Note_on_c, 1, 55, 51
1, 6319, Note_on_c, 1, 55, 0
1, 6320, Note_on_c, 1, 58, 51
1, 6335, Note_on_c, 1, 58, 0
1, 6336, Note_on_c, 0, 73, 65
1, 6336, Note_on_c, 1, 53, 51
1, 6342, Note_on_c, 0, 73, 0
1, 6342, Note_on_c, 0, 72, 65
1, 6348, Note_on_c, 0, 72, 0
1, 6348, Note_on_c, 0, 71, 65
1, 6351, Note_on_c, 1, 53, 0
1, 6352, Note_on_c, 1, 56, 51
1, 6354, Note_on_c, 0, 71, 0
1, 6354, Note_on_c, 0, 72, 65
1, 6367, Note_on_c, 1, 56, 0
1, 6368, Note_on_c, 1, 60, 51
1, 6383, Note_on_c, 1, 60, 0
1, 6384, Note_on_c, 1, 65, 51
1, 6399, Note_on_c, 1, 65, 0
1, 6400, Note_on_c, 1, 60, 51
1, 6403, Note_on_c, 0, 72, 0
1, 6408, Note_on_c, 0, 73, 65
1, 6415, Note_on_c, 1, 60, 0
1, 6416, Note_on_c, 1, 56, 51
1, 6431, Note_on_c, 0, 73, 0
1, 6431, Note_on_c, 1, 56, 0
1, 6432, Note_on_c, 0, 72, 65
1, 6432, Note_on_c, 1, 51, 51
1, 6447, Note_on_c, 1, 51, 0
1, 6448, Note_on_c, 1, 55, 51
1, 6463, Note_on_c, 1, 55, 0
1, 6464, Note_on_c, 1, 60, 51
1, 6477, Note_on_c, 0, 72, 0
1, 6479, Note_on_c, 1, 60, 0
1, 6480, Note_on_c, 0, 77, 65
1, 6480, Note_on_c, 1, 49, 51
1, 6492, Note_on_c, 0, 77, 0
1, 6492, Note_on_c, 0, 79, 65
1, 6495, Note_on_c, 1, 49, 0
1, 6496, Note_on_c, 1, 53, 51
1, 6504, Note_on_c, 0, 79, 0
1, 6504, Note_on_c, 0, 80, 65
1, 6511, Note_on_c, 1, 53, 0
1, 6512, Note_on_c, 1, 56, 51
1, 6527, Note_on_c, 0, 80, 0
1, 6527, Note_on_c, 1, 56, 0
1, 6528, Note_on_c, 1, 59, 51
1, 6543, Note_on_c, 1, 59, 0
1, 6544, Note_on_c, 1, 61, 51
1, 6559, Note_on_c, 1, 61, 0
1, 6560, Note_on_c, 1, 65, 51
1, 6575, Note_on_c, 1, 65, 0
1, 6576, Note_on_c, 0, 68, 65
1, 6591, Note_on_c, 0, 68, 0
1, 6592, Note_on_c, 0, 71, 65
1, 6607, Note_on_c, 0, 71, 0
1, 6608, Note_on_c, 0, 77, 65
1, 6623, Note_on_c, 0, 77, 0
1, 6624, Note_on_c, 0, 77, 81
1, 6624, Note_on_c, 1, 48, 51
1, 6672, Note_on_c, 0, 77, 0
1, 6672, Note_on_c, 0, 76, 65
1, 6687, Note_on_c, 0, 76, 0
1, 6688, Note_on_c, 0, 79, 65
1, 6703, Note_on_c, 0, 79, 0
1, 6704, Note_on_c, 0, 71, 65
1, 6713, Note_on_c, 1, 48, 0
1, 6720, Note_on_c, 0, 71, 0
1, 6720, Note_on_c, 0, 72, 65
1, 6735, Note_on_c, 0, 72, 0
1, 6736, Note_on_c, 0, 76, 65
1, 6751, Note_on_c, 0, 76, 0
1, 6752, Note_on_c, 0, 67, 65
1, 6767, Note_on_c, 0, 67, 0
1, 6768, Note_on_c, 1, 36, 51
1, 6838, Note_on_c, 1, 36, 0
1, 6912, Note_on_c, 0, 77, 65
1, 6912, Note_on_c, 1, 56, 51
1, 6918, Note_on_c, 0, 77, 0
1, 6918, Note_on_c, 0, 75, 65
1, 6924, Note_on_c, 0, 75, 0
1, 6924, Note_on_c, 0, 73, 65
1, 6927, Note_on_c, 1, 56, 0
1, 6928, Note_on_c, 1, 60, 51
1, 6930, Note_on_c, 0, 73, 0
1, 6930, Note_on_c, 0, 75, 65
1, 6943, Note_on_c, 1, 60, 0
1, 6944, Note_on_c, 1, 63, 51
1, 6959, Note_on_c, 1, 63, 0
1, 6960, Note_on_c, 1, 68, 51
1, 6975, Note_on_c, 1, 68, 0
1, 6976, Note_on_c, 1, 63, 51
1, 6991, Note_on_c, 1, 63, 0
1, 6992, Note_on_c, 1, 60, 51
1, 7001, Note_on_c, 0, 75, 0
1, 7007, Note_on_c, 1, 60, 0
1, 7008, Note_on_c, 1, 56, 51
1, 7023, Note_on_c, 1, 56, 0
1, 7024, Note_on_c, 0, 80, 65
1, 7024, Note_on_c, 1, 60, 51
1, 7039, Note_on_c, 0, 80, 0
1, 7039, Note_on_c, 1, 60, 0
1, 7040, Note_on_c, 0, 75, 65
1, 7040, Note_on_c, 1, 63, 51
1, 7055, Note_on_c, 0, 75, 0
1, 7055, Note_on_c, 1, 63, 0
1, 7056, Note_on_c, 0, 75, 65
1, 7056, Note_on_c, 1, 58, 51
1, 7071, Note_on_c, 0, 75, 0
1, 7071, Note_on_c, 1, 58, 0
1, 7072, Note_on_c, 0, 73, 65
1, 7072, Note_on_c, 1, 61, 51
1, 7087, Note_on_c, 0, 73, 0
1, 7087, Note_on_c, 1, 61, 0
1, 7088, Note_on_c, 0, 72, 65
1, 7088, Note_on_c, 1, 63, 51
1, 7103, Note_on_c, 0, 72, 0
1, 7103, Note_on_c, 1, 63, 0
1, 7104, Note_on_c, 0, 70, 65
1, 7104, Note_on_c, 1, 67, 51
1, 7119, Note_on_c, 1, 67, 0
1, 7120, Note_on_c, 1, 63, 51
1, 7124, Note_on_c, 0, 70, 0
1, 7135, Note_on_c, 1, 63, 0
1, 7136, Note_on_c, 1, 61, 51
1, 7151, Note_on_c, 1, 61, 0
1, 7152, Note_on_c, 1, 58, 51
1, 7167, Note_on_c, 1, 58, 0
1, 7168, Note_on_c, 0, 82, 65
1, 7168, Note_on_c, 1, 61, 51
1, 7183, Note_on_c, 0, 82, 0
1, 7183, Note_on_c, 1, 61, 0
1, 7184, Note_on_c, 0, 73, 65
1, 7184, Note_on_c, 1, 63, 51
1, 7199, Note_on_c, 0, 73, 0
1, 7199, Note_on_c, 1, 63, 0
1, 7200, Note_on_c, 0, 73, 65
1, 7200, Note_on_c, 1, 56, 51
1, 7215, Note_on_c, 0, 73, 0
1, 7215, Note_on_c, 1, 56, 0
1, 7216, Note_on_c, 0, 72, 65
1, 7216, Note_on_c, 1, 60, 51
1, 7231, Note_on_c, 0, 72, 0
1, 7231, Note_on_c, 1, 60, 0
1, 7232, Note_on_c, 0, 70, 65
1, 7232, Note_on_c, 1, 63, 51
1, 7247, Note_on_c, 0, 70, 0
1, 7247, Note_on_c, 1, 63, 0
1, 7248, Note_on_c, 0, 68, 65
1, 7248, Note_on_c, 1, 68, 51
1, 7264, Note_on_c, 1, 68, 0
1, 7264, Note_on_c, 1, 63, 51
1, 7268, Note_on_c, 0, 68, 0
1, 7279, Note_on_c, 1, 63, 0
1, 7280, Note_on_c, 1, 60, 51
1, 7295, Note_on_c, 1, 60, 0
1, 7296, Note_on_c, 1, 56, 51
1, 7311, Note_on_c, 1, 56, 0
1, 7312, Note_on_c, 0, 80, 65
1, 7312, Note_on_c, 1, 60, 51
1, 7327, Note_on_c, 0, 80, 0
1, 7327, Note_on_c, 1, 60, 0
1, 7328, Note_on_c, 0, 75, 65
1, 7328, Note_on_c, 1, 63, 51
1, 7343, Note_on_c, 0, 75, 0
1, 7343, Note_on_c, 1, 63, 0
1, 7344, Note_on_c, 0, 75, 65
1, 7344, Note_on_c, 1, 58, 51
1, 7359, Note_on_c, 0, 75, 0
1, 7359, Note_on_c, 1, 58, 0
1, 7360, Note_on_c, 0, 73, 65
1, 7360, Note_on_c, 1, 61, 51
1, 7375, Note_on_c, 0, 73, 0
1, 7375, Note_on_c, 1, 61, 0
1, 7376, Note_on_c, 0, 72, 65
1, 7376, Note_on_c, 1, 63, 51
1, 7391, Note_on_c, 0, 72, 0
1, 7391, Note_on_c, 1, 63, 0
1, 7392, Note_on_c, 0, 70, 65
1, 7392, Note_on_c, 1, 67, 51
1, 7407, Note_on_c, 1, 67, 0
1, 7408, Note_on_c, 1, 63, 51
1, 7412, Note_on_c, 0, 70, 0
1, 7423, Note_on_c, 1, 63, 0
1, 7424, Note_on_c, 1, 61, 51
1, 7439, Note_on_c, 1, 61, 0
1, 7440, Note_on_c, 1, 58, 51
1, 7455, Note_on_c, 1, 58, 0
1, 7456, Note_on_c, 0, 82, 65
1, 7456, Note_on_c, 1, 61, 51
1, 7471, Note_on_c, 0, 82, 0
1, 7471, Note_on_c, 1, 61, 0
1, 7472, Note_on_c, 0, 73, 65
1, 7472, Note_on_c, 1, 63, 51
1, 7487, Note_on_c, 0, 73, 0
1, 7487, Note_on_c, 1, 63, 0
1, 7488, Note_on_c, 0, 72, 65
1, 7488, Note_on_c, 1, 56, 51
1, 7503, Note_on_c, 0, 72, 0
1, 7503, Note_on_c, 1, 56, 0
1, 7504, Note_on_c, 0, 77, 65
1, 7504, Note_on_c, 1, 60, 51
1, 7519, Note_on_c, 0, 77, 0
1, 7519, Note_on_c, 1, 60, 0
1, 7520, Note_on_c, 0, 75, 65
1, 7520, Note_on_c, 1, 63, 51
1, 7535, Note_on_c, 0, 75, 0
1, 7535, Note_on_c, 1, 63, 0
1, 7536, Note_on_c, 0, 77, 65
1, 7536, Note_on_c, 1, 68, 51
1, 7542, Note_on_c, 0, 77, 0
1, 7542, Note_on_c, 0, 75, 65
1, 7548, Note_on_c, 0, 75, 0
1, 7548, Note_on_c, 0, 77, 65
1, 7552, Note_on_c, 1, 68, 0
1, 7552, Note_on_c, 1, 63, 51
1, 7554, Note_on_c, 0, 77, 0
1, 7554, Note_on_c, 0, 75, 65
1, 7560, Note_on_c, 0, 75, 0
1, 7560, Note_on_c, 0, 77, 65
1, 7566, Note_on_c, 0, 77, 0
1, 7566, Note_on_c, 0, 75, 65
1, 7567, Note_on_c, 1, 63, 0
1, 7568, Note_on_c, 1, 60, 51
1, 7572, Note_on_c, 0, 75, 0
1, 7572, Note_on_c, 0, 77, 65
1, 7578, Note_on_c, 0, 77, 0
1, 7578, Note_on_c, 0, 75, 65
1, 7583, Note_on_c, 1, 60, 0
1, 7584, Note_on_c, 0, 75, 0
1, 7584, Note_on_c, 0, 77, 65
1, 7584, Note_on_c, 1, 56, 51
1, 7590, Note_on_c, 0, 77, 0
1, 7590, Note_on_c, 0, 75, 65
1, 7596, Note_on_c, 0, 75, 0
1, 7596, Note_on_c, 0, 77, 65
1, 7599, Note_on_c, 1, 56, 0
1, 7600, Note_on_c, 1, 60, 51
1, 7602, Note_on_c, 0, 77, 0
1, 7602, Note_on_c, 0, 75, 65
1, 7608, Note_on_c, 0, 75, 0
1, 7608, Note_on_c, 0, 77, 65
1, 7614, Note_on_c, 0, 77, 0
1, 7614, Note_on_c, 0, 75, 65
1, 7615, Note_on_c, 1, 60, 0
1, 7616, Note_on_c, 1, 63, 51
1, 7620, Note_on_c, 0, 75, 0
1, 7620, Note_on_c, 0, 73, 65
1, 7626, Note_on_c, 0, 73, 0
1, 7626, Note_on_c, 0, 75, 65
1, 7631, Note_on_c, 1, 63, 0
1, 7632, Note_on_c, 0, 75, 0
1, 7632, Note_on_c, 0, 80, 65
1, 7632, Note_on_c, 1, 54, 51
1, 7647, Note_on_c, 0, 80, 0
1, 7647, Note_on_c, 1, 54, 0
1, 7648, Note_on_c, 0, 72, 65
1, 7648, Note_on_c, 1, 56, 51
1, 7663, Note_on_c, 0, 72, 0
1, 7663, Note_on_c, 1, 56, 0
1, 7664, Note_on_c, 0, 75, 65
1, 7664, Note_on_c, 1, 60, 51
1, 7679, Note_on_c, 0, 75, 0
1, 7679, Note_on_c, 1, 60, 0
1, 7680, Note_on_c, 0, 77, 65
1, 7680, Note_on_c, 1, 63, 51
1, 7686, Note_on_c, 0, 77, 0
1, 7686, Note_on_c, 0, 75, 65
1, 7692, Note_on_c, 0, 75, 0
1, 7692, Note_on_c, 0, 77, 65
1, 7695, Note_on_c, 1, 63, 0
1, 7696, Note_on_c, 1, 60, 51
1, 7698, Note_on_c, 0, 77, 0
1, 7698, Note_on_c, 0, 75, 65
1, 7704, Note_on_c, 0, 75, 0
1, 7704, Note_on_c, 0, 77, 65
1, 7710, Note_on_c, 0, 77, 0
1, 7710, Note_on_c, 0, 75, 65
1, 7711, Note_on_c, 1, 60, 0
1, 7712, Note_on_c, 1, 56, 51
1, 7716, Note_on_c, 0, 75, 0
1, 7716, Note_on_c, 0, 77, 65
1, 7722, Note_on_c, 0, 77, 0
1, 7722, Note_on_c, 0, 75, 65
1, 7727, Note_on_c, 1, 56, 0
1, 7728, Note_on_c, 0, 75, 0
1, 7728, Note_on_c, 0, 77, 65
1, 7728, Note_on_c, 1, 54, 51
1, 7734, Note_on_c, 0, 77, 0
1, 7734, Note_on_c, 0, 75, 65
1, 7740, Note_on_c, 0, 75, 0
1, 7740, Note_on_c, 0, 77, 65
1, 7743, Note_on_c, 1, 54, 0
1, 7744, Note_on_c, 1, 56, 51
1, 7746, Note_on_c, 0, 77, 0
1, 7746, Note_on_c, 0, 75, 65
1, 7752, Note_on_c, 0, 75, 0
1, 7752, Note_on_c, 0, 77, 65
1, 7758, Note_on_c, 0, 77, 0
1, 7758, Note_on_c, 0, 75, 65
1, 7759, Note_on_c, 1, 56, 0
1, 7760, Note_on_c, 1, 60, 51
1, 7764, Note_on_c, 0, 75, 0
1, 7764, Note_on_c, 0, 73, 65
1, 7770, Note_on_c, 0, 73, 0
1, 7770, Note_on_c, 0, 75, 65
1, 7775, Note_on_c, 1, 60, 0
1, 7776, Note_on_c, 0, 75, 0
1, 7776, Note_on_c, 0, 80, 65
1, 7776, Note_on_c, 1, 53, 51
1, 7791, Note_on_c, 0, 80, 0
1, 7791, Note_on_c, 1, 53, 0
1, 7792, Note_on_c, 0, 72, 65
1, 7792, Note_on_c, 1, 56, 51
1, 7807, Note_on_c, 0, 72, 0
1, 7807, Note_on_c, 1, 56, 0
1, 7808, Note_on_c, 0, 73, 65
1, 7808, Note_on_c, 1, 61, 51
1, 7823, Note_on_c, 0, 73, 0
1, 7823, Note_on_c, 1, 61, 0
1, 7824, Note_on_c, 0, 75, 65
1, 7824, Note_on_c, 1, 65, 51
1, 7830, Note_on_c, 0, 75, 0
1, 7830, Note_on_c, 0, 73, 65
1, 7836, Note_on_c, 0, 73, 0
1, 7836, Note_on_c, 0, 75, 65
1, 7839, Note_on_c, 1, 65, 0
1, 7840, Note_on_c, 1, 61, 51
1, 7842, Note_on_c, 0, 75, 0
1, 7842, Note_on_c, 0, 73, 65
1, 7848, Note_on_c, 0, 73, 0
1, 7848, Note_on_c, 0, 75, 65
1, 7854, Note_on_c, 0, 75, 0
1, 7854, Note_on_c, 0, 73, 65
1, 7855, Note_on_c, 1, 61, 0
1, 7856, Note_on_c, 1, 56, 51
1, 7860, Note_on_c, 0, 73, 0
1, 7860, Note_on_c, 0, 75, 65
1, 7866, Note_on_c, 0, 75, 0
1, 7866, Note_on_c, 0, 73, 65
1, 7871, Note_on_c, 1, 56, 0
1, 7872, Note_on_c, 0, 73, 0
1, 7872, Note_on_c, 0, 75, 65
1, 7872, Note_on_c, 1, 53, 51
1, 7878, Note_on_c, 0, 75, 0
1, 7878, Note_on_c, 0, 73, 65
1, 7884, Note_on_c, 0, 73, 0
1, 7884, Note_on_c, 0, 75, 65
1, 7887, Note_on_c, 1, 53, 0
1, 7888, Note_on_c, 1, 56, 51
1, 7890, Note_on_c, 0, 75, 0
1, 7890, Note_on_c, 0, 73, 65
1, 7896, Note_on_c, 0, 73, 0
1, 7896, Note_on_c, 0, 75, 65
1, 7902, Note_on_c, 0, 75, 0
1, 7902, Note_on_c, 0, 73, 65
1, 7903, Note_on_c, 1, 56, 0
1, 7904, Note_on_c, 1, 61, 51
1, 7908, Note_on_c, 0, 73, 0
1, 7908, Note_on_c, 0, 72, 65
1, 7914, Note_on_c, 0, 72, 0
1, 7914, Note_on_c, 0, 73, 65
1, 7919, Note_on_c, 1, 61, 0
1, 7920, Note_on_c, 0, 73, 0
1, 7920, Note_on_c, 0, 80, 65
1, 7920, Note_on_c, 1, 52, 51
1, 7935, Note_on_c, 0, 80, 0
1, 7935, Note_on_c, 1, 52, 0
1, 7936, Note_on_c, 0, 72, 65
1, 7936, Note_on_c, 1, 56, 51
1, 7951, Note_on_c, 0, 72, 0
1, 7951, Note_on_c, 1, 56, 0
1, 7952, Note_on_c, 0, 73, 65
1, 7952, Note_on_c, 1, 61, 51
1, 7967, Note_on_c, 0, 73, 0
1, 7967, Note_on_c, 1, 61, 0
1, 7968, Note_on_c, 0, 75, 65
1, 7968, Note_on_c, 1, 64, 51
1, 7974, Note_on_c, 0, 75, 0
1, 7974, Note_on_c, 0, 73, 65
1, 7980, Note_on_c, 0, 73, 0
1, 7980, Note_on_c, 0, 75, 65
1, 7983, Note_on_c, 1, 64, 0
1, 7984, Note_on_c, 1, 61, 51
1, 7986, Note_on_c, 0, 75, 0
1, 7986, Note_on_c, 0, 73, 65
1, 7992, Note_on_c, 0, 73, 0
1, 7992, Note_on_c, 0, 75, 65
1, 7998, Note_on_c, 0, 75, 0
1, 7998, Note_on_c, 0, 73, 65
1, 7999, Note_on_c, 1, 61, 0
1, 8000, Note_on_c, 1, 56, 51
1, 8004, Note_on_c, 0, 73, 0
1, 8004, Note_on_c, 0, 75, 65
1, 8010, Note_on_c, 0, 75, 0
1, 8010, Note_on_c, 0, 73, 65
1, 8015, Note_on_c, 1, 56, 0
1, 8016, Note_on_c, 0, 73, 0
1, 8016, Note_on_c, 0, 75, 65
1, 8016, Note_on_c, 1, 52, 51
1, 8022, Note_on_c, 0, 75, 0
1, 8022, Note_on_c, 0, 73, 65
1, 8028, Note_on_c, 0, 73, 0
1, 8028, Note_on_c, 0, 75, 65
1, 8031, Note_on_c, 1, 52, 0
1, 8032, Note_on_c, 1, 56, 51
1, 8034, Note_on_c, 0, 75, 0
1, 8034, Note_on_c, 0, 73, 65
1, 8040, Note_on_c, 0, 73, 0
1, 8040, Note_on_c, 0, 75, 65
1, 8046, Note_on_c, 0, 75, 0
1, 8046, Note_on_c, 0, 73, 65
1, 8047, Note_on_c, 1, 56, 0
1, 8048, Note_on_c, 1, 61, 51
1, 8052, Note_on_c, 0, 73, 0
1, 8052, Note_on_c, 0, 72, 65
1, 8058, Note_on_c, 0, 72, 0
1, 8058, Note_on_c, 0, 73, 65
1, 8063, Note_on_c, 1, 61, 0
1, 8064, Note_on_c, 0, 73, 0
1, 8064, Note_on_c, 0, 73, 65
1, 8064, Note_on_c, 1, 51, 51
1, 8079, Note_on_c, 0, 73, 0
1, 8080, Note_on_c, 0, 67, 65
1, 8095, Note_on_c, 0, 67, 0
1, 8096, Note_on_c, 0, 79, 65
1, 8111, Note_on_c, 0, 79, 0
1, 8112, Note_on_c, 0, 73, 65
1, 8127, Note_on_c, 0, 73, 0
1, 8128, Note_on_c, 0, 82, 65
1, 8143, Note_on_c, 0, 82, 0
1, 8144, Note_on_c, 0, 79, 65
1, 8159, Note_on_c, 0, 79, 0
1, 8160, Note_on_c, 0, 85, 81
1, 8197, Note_on_c, 1, 51, 0
1, 8208, Note_on_c, 1, 55, 51
1, 8223, Note_on_c, 0, 85, 0
1, 8224, Note_on_c, 0, 84, 65
1, 8239, Note_on_c, 0, 84, 0
1, 8240, Note_on_c, 0, 82, 65
1, 8255, Note_on_c, 0, 82, 0
1, 8256, Note_on_c, 0, 80, 65
1, 8271, Note_on_c, 0, 80, 0
1, 8272, Note_on_c, 0, 79, 65
1, 8287, Note_on_c, 0, 79, 0
1, 8288, Note_on_c, 0, 77, 65
1, 8303, Note_on_c, 0, 77, 0
1, 8304, Note_on_c, 0, 75, 65
1, 8319, Note_on_c, 0, 75, 0
1, 8320, Note_on_c, 0, 82, 65
1, 8335, Note_on_c, 0, 82, 0
1, 8336, Note_on_c, 0, 73, 65
1, 8341, Note_on_c, 1, 55, 0
1, 8351, Note_on_c, 0, 73, 0
1, 8352, Note_on_c, 0, 72, 65
1, 8352, Note_on_c, 1, 56, 51
1, 8367, Note_on_c, 0, 72, 0
1, 8368, Note_on_c, 0, 84, 65
1, 8383, Note_on_c, 0, 84, 0
1, 8384, Note_on_c, 0, 75, 65
1, 8399, Note_on_c, 0, 75, 0
1, 8400, Note_on_c, 0, 80, 65
1, 8415, Note_on_c, 0, 80, 0
1, 8416, Note_on_c, 0, 72, 65
1, 8431, Note_on_c, 0, 72, 0
1, 8432, Note_on_c, 0, 75, 65
1, 8441, Note_on_c, 1, 56, 0
1, 8447, Note_on_c, 0, 75, 0
1, 8448, Note_on_c, 0, 68, 65
1, 8463, Note_on_c, 0, 68, 0
1, 8464, Note_on_c, 0, 72, 65
1, 8479, Note_on_c, 0, 72, 0
1, 8480, Note_on_c, 0, 63, 65
1, 8495, Note_on_c, 0, 63, 0
1, 8496, Note_on_c, 0, 68, 75
1, 8511, Note_on_c, 0, 68, 0
1, 8512, Note_on_c, 0, 60, 75
1, 8512, Note_on_c, 1, 48, 75
1, 8527, Note_on_c, 0, 60, 0
1, 8527, Note_on_c, 1, 48, 0
1, 8528, Note_on_c, 0, 63, 75
1, 8528, Note_on_c, 1, 51, 75
1, 8543, Note_on_c, 0, 63, 0
1, 8543, Note_on_c, 1, 51, 0
1, 8544, Note_on_c, 0, 56, 75
1, 8544, Note_on_c, 1, 44, 75
1, 8559, Note_on_c, 0, 56, 0
1, 8559, Note_on_c, 1, 44, 0
1, 8560, Note_on_c, 0, 60, 75
1, 8560, Note_on_c, 1, 48, 75
1, 8575, Note_on_c, 0, 60, 0
1, 8575, Note_on_c, 1, 48, 0
1, 8576, Note_on_c, 0, 63, 75
1, 8576, Note_on_c, 1, 51, 75
1, 8591, Note_on_c, 0, 63, 0
1, 8591, Note_on_c, 1, 51, 0
1, 8592, Note_on_c, 0, 54, 75
1, 8592, Note_on_c, 1, 42, 75
1, 8607, Note_on_c, 0, 54, 0
1, 8607, Note_on_c, 1, 42, 0
1, 8608, Note_on_c, 0, 63, 75
1, 8608, Note_on_c, 1, 51, 75
1, 8623, Note_on_c, 0, 63, 0
1, 8623, Note_on_c, 1, 51, 0
1, 8624, Note_on_c, 0, 54, 75
1, 8624, Note_on_c, 1, 42, 75
1, 8639, Note_on_c, 0, 54, 0
1, 8639, Note_on_c, 1, 42, 0
1, 8640, Note_on_c, 0, 53, 75
1, 8640, Note_on_c, 1, 41, 75
1, 8655, Note_on_c, 0, 53, 0
1, 8656, Note_on_c, 0, 61, 74
1, 8671, Note_on_c, 0, 61, 0
1, 8672, Note_on_c, 0, 56, 73
1, 8687, Note_on_c, 0, 56, 0
1, 8688, Note_on_c, 0, 65, 72
1, 8703, Note_on_c, 0, 65, 0
1, 8704, Note_on_c, 0, 61, 71
1, 8719, Note_on_c, 0, 61, 0
1, 8720, Note_on_c, 0, 68, 70
1, 8729, Note_on_c, 1, 41, 0
1, 8735, Note_on_c, 0, 68, 0
1, 8736, Note_on_c, 0, 65, 70
1, 8751, Note_on_c, 0, 65, 0
1, 8752, Note_on_c, 0, 73, 69
1, 8767, Note_on_c, 0, 73, 0
1, 8768, Note_on_c, 0, 68, 68
1, 8783, Note_on_c, 0, 68, 0
1, 8784, Note_on_c, 0, 77, 65
1, 8784, Note_on_c, 1, 49, 65
1, 8804, Note_on_c, 1, 49, 0
1, 8832, Note_on_c, 1, 61, 65
1, 8847, Note_on_c, 0, 77, 0
1, 8848, Note_on_c, 0, 76, 65
1, 8852, Note_on_c, 1, 61, 0
1, 8863, Note_on_c, 0, 76, 0
1, 8864, Note_on_c, 0, 77, 65
1, 8879, Note_on_c, 0, 77, 0
1, 8880, Note_on_c, 0, 80, 65
1, 8895, Note_on_c, 0, 80, 0
1, 8896, Note_on_c, 0, 72, 65
1, 8911, Note_on_c, 0, 72, 0
1, 8912, Note_on_c, 0, 73, 65
1, 8927, Note_on_c, 0, 73, 0
1, 8928, Note_on_c, 0, 77, 65
1, 8943, Note_on_c, 0, 77, 0
1, 8944, Note_on_c, 0, 65, 65
1, 8959, Note_on_c, 0, 65, 0
1, 8960, Note_on_c, 0, 77, 65
1, 8975, Note_on_c, 0, 77, 0
1, 8976, Note_on_c, 0, 76, 65
1, 8991, Note_on_c, 0, 76, 0
1, 8992, Note_on_c, 0, 75, 65
1, 9007, Note_on_c, 0, 75, 0
1, 9008, Note_on_c, 0, 74, 65
1, 9023, Note_on_c, 0, 74, 0
1, 9024, Note_on_c, 0, 73, 65
1, 9039, Note_on_c, 0, 73, 0
1, 9040, Note_on_c, 0, 72, 65
1, 9055, Note_on_c, 0, 72, 0
1, 9056, Note_on_c, 0, 70, 65
1, 9071, Note_on_c, 0, 70, 0
1, 9072, Note_on_c, 0, 68, 65
1, 9072, Note_on_c, 1, 51, 58
1, 9087, Note_on_c, 1, 51, 0
1, 9088, Note_on_c, 1, 56, 58
1, 9103, Note_on_c, 1, 56, 0
1, 9104, Note_on_c, 1, 60, 58
1, 9119, Note_on_c, 1, 60, 0
1, 9120, Note_on_c, 1, 63, 58
1, 9135, Note_on_c, 1, 63, 0
1, 9136, Note_on_c, 1, 60, 58
1, 9151, Note_on_c, 1, 60, 0
1, 9152, Note_on_c, 1, 56, 58
1, 9161, Note_on_c, 0, 68, 0
1, 9167, Note_on_c, 1, 56, 0
1, 9168, Note_on_c, 0, 72, 65
1, 9168, Note_on_c, 1, 51, 58
1, 9183, Note_on_c, 0, 72, 0
1, 9183, Note_on_c, 1, 51, 0
1, 9184, Note_on_c, 0, 70, 65
1, 9184, Note_on_c, 1, 56, 58
1, 9199, Note_on_c, 0, 70, 0
1, 9199, Note_on_c, 1, 56, 0
1, 9200, Note_on_c, 0, 68, 65
1, 9200, Note_on_c, 1, 60, 58
1, 9215, Note_on_c, 0, 68, 0
1, 9215, Note_on_c, 1, 60, 0
1, 9216, Note_on_c, 0, 75, 65
1, 9216, Note_on_c, 1, 51, 58
1, 9231, Note_on_c, 1, 51, 0
1, 9232, Note_on_c, 1, 56, 58
1, 9247, Note_on_c, 1, 56, 0
1, 9248, Note_on_c, 1, 60, 58
1, 9261, Note_on_c, 0, 75, 0
1, 9263, Note_on_c, 1, 60, 0
1, 9264, Note_on_c, 1, 63, 58
1, 9279, Note_on_c, 1, 63, 0
1, 9280, Note_on_c, 1, 60, 58
1, 9295, Note_on_c, 1, 60, 0
1, 9296, Note_on_c, 1, 56, 58
1, 9311, Note_on_c, 1, 56, 0
1, 9312, Note_on_c, 1, 51, 58
1, 9327, Note_on_c, 1, 51, 0
1, 9328, Note_on_c, 1, 56, 58
1, 9343, Note_on_c, 1, 56, 0
1, 9344, Note_on_c, 1, 60, 58
1, 9359, Note_on_c, 1, 60, 0
1, 9360, Note_on_c, 0, 75, 65
1, 9360, Note_on_c, 1, 53, 58
1, 9366, Note_on_c, 0, 75, 0
1, 9366, Note_on_c, 0, 74, 65
1, 9372, Note_on_c, 0, 74, 0
1, 9372, Note_on_c, 0, 75, 65
1, 9375, Note_on_c, 1, 53, 0
1, 9376, Note_on_c, 1, 56, 58
1, 9378, Note_on_c, 0, 75, 0
1, 9378, Note_on_c, 0, 74, 65
1, 9391, Note_on_c, 1, 56, 0
1, 9392, Note_on_c, 1, 58, 58
1, 9407, Note_on_c, 1, 58, 0
1, 9408, Note_on_c, 1, 62, 58
1, 9423, Note_on_c, 1, 62, 0
1, 9424, Note_on_c, 1, 58, 58
1, 9439, Note_on_c, 1, 58, 0
1, 9440, Note_on_c, 1, 56, 58
1, 9453, Note_on_c, 0, 74, 0
1, 9455, Note_on_c, 1, 56, 0
1, 9456, Note_on_c, 0, 77, 65
1, 9456, Note_on_c, 1, 53, 58
1, 9471, Note_on_c, 0, 77, 0
1, 9471, Note_on_c, 1, 53, 0
1, 9472, Note_on_c, 0, 75, 65
1, 9472, Note_on_c, 1, 56, 58
1, 9487, Note_on_c, 0, 75, 0
1, 9487, Note_on_c, 1, 56, 0
1, 9488, Note_on_c, 0, 74, 65
1, 9488, Note_on_c, 1, 58, 58
1, 9503, Note_on_c, 0, 74, 0
1, 9503, Note_on_c, 1, 58, 0
1, 9504, Note_on_c, 0, 84, 65
1, 9504, Note_on_c, 1, 53, 58
1, 9511, Note_on_c, 0, 84, 0
1, 9519, Note_on_c, 1, 53, 0
1, 9520, Note_on_c, 0, 84, 65
1, 9520, Note_on_c, 1, 56, 58
1, 9527, Note_on_c, 0, 84, 0
1, 9535, Note_on_c, 1, 56, 0
1, 9536, Note_on_c, 0, 82, 65
1, 9536, Note_on_c, 1, 58, 58
1, 9543, Note_on_c, 0, 82, 0
1, 9551, Note_on_c, 1, 58, 0
1, 9552, Note_on_c, 0, 80, 65
1, 9552, Note_on_c, 1, 62, 58
1, 9559, Note_on_c, 0, 80, 0
1, 9567, Note_on_c, 1, 62, 0
1, 9568, Note_on_c, 0, 79, 65
1, 9568, Note_on_c, 1, 58, 58
1, 9575, Note_on_c, 0, 79, 0
1, 9583, Note_on_c, 1, 58, 0
1, 9584, Note_on_c, 0, 77, 65
1, 9584, Note_on_c, 1, 56, 58
1, 9591, Note_on_c, 0, 77, 0
1, 9599, Note_on_c, 1, 56, 0
1, 9600, Note_on_c, 0, 75, 65
1, 9600, Note_on_c, 1, 53, 58
1, 9607, Note_on_c, 0, 75, 0
1, 9615, Note_on_c, 1, 53, 0
1, 9616, Note_on_c, 0, 74, 65
1, 9616, Note_on_c, 1, 56, 58
1, 9623, Note_on_c, 0, 74, 0
1, 9631, Note_on_c, 1, 56, 0
1, 9632, Note_on_c, 0, 77, 65
1, 9632, Note_on_c, 1, 58, 58
1, 9639, Note_on_c, 0, 77, 0
1, 9647, Note_on_c, 1, 58, 0
1, 9648, Note_on_c, 0, 75, 65
1, 9648, Note_on_c, 1, 55, 58
1, 9654, Note_on_c, 0, 75, 0
1, 9654, Note_on_c, 0, 77, 65
1, 9660, Note_on_c, 0, 77, 0
1, 9660, Note_on_c, 0, 75, 65
1, 9663, Note_on_c, 1, 55, 0
1, 9664, Note_on_c, 1, 58, 58
1, 9666, Note_on_c, 0, 75, 0
1, 9666, Note_on_c, 0, 77, 65
1, 9672, Note_on_c, 0, 77, 0
1, 9672, Note_on_c, 0, 75, 65
1, 9678, Note_on_c, 0, 75, 0
1, 9678, Note_on_c, 0, 77, 65
1, 9679, Note_on_c, 1, 58, 0
1, 9680, Note_on_c, 1, 63, 58
1, 9684, Note_on_c, 0, 77, 0
1, 9684, Note_on_c, 0, 75, 65
1, 9690, Note_on_c, 0, 75, 0
1, 9690, Note_on_c, 0, 77, 65
1, 9695, Note_on_c, 1, 63, 0
1, 9696, Note_on_c, 0, 77, 0
1, 9696, Note_on_c, 0, 75, 65
1, 9696, Note_on_c, 1, 67, 58
1, 9711, Note_on_c, 1, 67, 0
1, 9712, Note_on_c, 1, 63, 58
1, 9727, Note_on_c, 1, 63, 0
1, 9728, Note_on_c, 1, 58, 58
1, 9743, Note_on_c, 1, 58, 0
1, 9744, Note_on_c, 1, 55, 58
1, 9759, Note_on_c, 0, 75, 0
1, 9759, Note_on_c, 1, 55, 0
1, 9760, Note_on_c, 0, 77, 65
1, 9760, Note_on_c, 1, 58, 58
1, 9775, Note_on_c, 0, 77, 0
1, 9775, Note_on_c, 1, 58, 0
1, 9776, Note_on_c, 0, 73, 65
1, 9776, Note_on_c, 1, 63, 58
1, 9791, Note_on_c, 0, 73, 0
1, 9791, Note_on_c, 1, 63, 0
1, 9792, Note_on_c, 0, 73, 65
1, 9792, Note_on_c, 1, 56, 58
1, 9807, Note_on_c, 0, 73, 0
1, 9807, Note_on_c, 1, 56, 0
1, 9808, Note_on_c, 0, 72, 65
1, 9808, Note_on_c, 1, 60, 58
1, 9823, Note_on_c, 0, 72, 0
1, 9823, Note_on_c, 1, 60, 0
1, 9824, Note_on_c, 0, 70, 65
1, 9824, Note_on_c, 1, 63, 58
1, 9839, Note_on_c, 0, 70, 0
1, 9839, Note_on_c, 1, 63, 0
1, 9840, Note_on_c, 0, 68, 65
1, 9840, Note_on_c, 1, 68, 58
1, 9856, Note_on_c, 1, 68, 0
1, 9856, Note_on_c, 1, 63, 58
1, 9860, Note_on_c, 0, 68, 0
1, 9871, Note_on_c, 1, 63, 0
1, 9872, Note_on_c, 1, 60, 58
1, 9887, Note_on_c, 1, 60, 0
1, 9888, Note_on_c, 1, 56, 58
1, 9903, Note_on_c, 1, 56, 0
1, 9904, Note_on_c, 0, 80, 65
1, 9904, Note_on_c, 1, 60, 58
1, 9919, Note_on_c, 0, 80, 0
1, 9919, Note_on_c, 1, 60, 0
1, 9920, Note_on_c, 0, 75, 65
1, 9920, Note_on_c, 1, 63, 58
1, 9935, Note_on_c, 0, 75, 0
1, 9935, Note_on_c, 1, 63, 0
1, 9936, Note_on_c, 0, 77, 65
1, 9936, Note_on_c, 1, 58, 58
1, 9942, Note_on_c, 0, 77, 0
1, 9942, Note_on_c, 0, 75, 65
1, 9951, Note_on_c, 0, 75, 0
1, 9951, Note_on_c, 1, 58, 0
1, 9952, Note_on_c, 0, 73, 65
1, 9952, Note_on_c, 1, 61, 58
1, 9967, Note_on_c, 0, 73, 0
1, 9967, Note_on_c, 1, 61, 0
1, 9968, Note_on_c, 0, 72, 65
1, 9968, Note_on_c, 1, 63, 58
1, 9983, Note_on_c, 0, 72, 0
1, 9983, Note_on_c, 1, 63, 0
1, 9984, Note_on_c, 0, 70, 65
1, 9984, Note_on_c, 1, 67, 58
1, 9999, Note_on_c, 1, 67, 0
1, 10000, Note_on_c, 1, 63, 58
1, 10004, Note_on_c, 0, 70, 0
1, 10015, Note_on_c, 1, 63, 0
1, 10016, Note_on_c, 1, 61, 58
1, 10031, Note_on_c, 1, 61, 0
1, 10032, Note_on_c, 1, 58, 51
1, 10047, Note_on_c, 1, 58, 0
1, 10048, Note_on_c, 0, 82, 58
1, 10048, Note_on_c, 1, 61, 51
1, 10063, Note_on_c, 0, 82, 0
1, 10063, Note_on_c, 1, 61, 0
1, 10064, Note_on_c, 0, 73, 58
1, 10064, Note_on_c, 1, 63, 51
1, 10079, Note_on_c, 0, 73, 0
1, 10079, Note_on_c, 1, 63, 0
1, 10080, Note_on_c, 0, 73, 58
1, 10080, Note_on_c, 1, 56, 51
1, 10095, Note_on_c, 0, 73, 0
1, 10095, Note_on_c, 1, 56, 0
1, 10096, Note_on_c, 0, 72, 58
1, 10096, Note_on_c, 1, 60, 51
1, 10111, Note_on_c, 0, 72, 0
1, 10111, Note_on_c, 1, 60, 0
1, 10112, Note_on_c, 0, 70, 58
1, 10112, Note_on_c, 1, 63, 51
1, 10127, Note_on_c, 0, 70, 0
1, 10127, Note_on_c, 1, 63, 0
1, 10128, Note_on_c, 0, 68, 58
1, 10128, Note_on_c, 1, 68, 51
1, 10144, Note_on_c, 1, 68, 0
1, 10144, Note_on_c, 1, 63, 51
1, 10148, Note_on_c, 0, 68, 0
1, 10159, Note_on_c, 1, 63, 0
1, 10160, Note_on_c, 1, 60, 51
1, 10175, Note_on_c, 1, 60, 0
1, 10176, Note_on_c, 1, 56, 51
1, 10191, Note_on_c, 1, 56, 0
1, 10192, Note_on_c, 0, 80, 58
1, 10192, Note_on_c, 1, 60, 51
1, 10207, Note_on_c, 0, 80, 0
1, 10207, Note_on_c, 1, 60, 0
1, 10208, Note_on_c, 0, 75, 58
1, 10208, Note_on_c, 1, 63, 51
1, 10223, Note_on_c, 0, 75, 0
1, 10223, Note_on_c, 1, 63, 0
1, 10224, Note_on_c, 0, 77, 58
1, 10224, Note_on_c, 1, 58, 51
1, 10230, Note_on_c, 0, 77, 0
1, 10230, Note_on_c, 0, 75, 58
1, 10239, Note_on_c, 0, 75, 0
1, 10239, Note_on_c, 1, 58, 0
1, 10240, Note_on_c, 0, 73, 58
1, 10240, Note_on_c, 1, 61, 51
1, 10255, Note_on_c, 0, 73, 0
1, 10255, Note_on_c, 1, 61, 0
1, 10256, Note_on_c, 0, 72, 58
1, 10256, Note_on_c, 1, 63, 51
1, 10271, Note_on_c, 0, 72, 0
1, 10271, Note_on_c, 1, 63, 0
1, 10272, Note_on_c, 0, 70, 58
1, 10272, Note_on_c, 1, 67, 51
1, 10287, Note_on_c, 1, 67, 0
1, 10288, Note_on_c, 1, 63, 51
1, 10292, Note_on_c, 0, 70, 0
1, 10303, Note_on_c, 1, 63, 0
1, 10304, Note_on_c, 1, 61, 51
1, 10319, Note_on_c, 1, 61, 0
1, 10320, Note_on_c, 1, 58, 58
1, 10335, Note_on_c, 1, 58, 0
1, 10336, Note_on_c, 0, 82, 65
1, 10336, Note_on_c, 1, 61, 58
1, 10351, Note_on_c, 0, 82, 0
1, 10351, Note_on_c, 1, 61, 0
1, 10352, Note_on_c, 0, 73, 65
1, 10352, Note_on_c, 1, 63, 58
1, 10367, Note_on_c, 0, 73, 0
1, 10367, Note_on_c, 1, 63, 0
1, 10368, Note_on_c, 0, 72, 65
1, 10368, Note_on_c, 1, 56, 58
1, 10383, Note_on_c, 0, 72, 0
1, 10383, Note_on_c, 1, 56, 0
1, 10384, Note_on_c, 0, 80, 65
1, 10384, Note_on_c, 1, 60, 58
1, 10399, Note_on_c, 0, 80, 0
1, 10399, Note_on_c, 1, 60, 0
1, 10400, Note_on_c, 0, 78, 65
1, 10400, Note_on_c, 1, 63, 58
1, 10415, Note_on_c, 0, 78, 0
1, 10415, Note_on_c, 1, 63, 0
1, 10416, Note_on_c, 0, 78, 81
1, 10416, Note_on_c, 1, 68, 58
1, 10431, Note_on_c, 1, 68, 0
1, 10432, Note_on_c, 1, 63, 58
1, 10447, Note_on_c, 1, 63, 0
1, 10448, Note_on_c, 1, 60, 58
1, 10463, Note_on_c, 1, 60, 0
1, 10464, Note_on_c, 1, 56, 58
1, 10479, Note_on_c, 0, 78, 0
1, 10479, Note_on_c, 1, 56, 0
1, 10480, Note_on_c, 0, 75, 65
1, 10480, Note_on_c, 1, 60, 58
1, 10495, Note_on_c, 0, 75, 0
1, 10495, Note_on_c, 1, 60, 0
1, 10496, Note_on_c, 0, 72, 65
1, 10496, Note_on_c, 1, 63, 58
1, 10511, Note_on_c, 0, 72, 0
1, 10511, Note_on_c, 1, 63, 0
1, 10512, Note_on_c, 0, 70, 65
1, 10512, Note_on_c, 1, 60, 58
1, 10528, Note_on_c, 0, 70, 0
1, 10528, Note_on_c, 0, 68, 65
1, 10543, Note_on_c, 0, 68, 0
1, 10544, Note_on_c, 0, 75, 65
1, 10559, Note_on_c, 0, 75, 0
1, 10560, Note_on_c, 0, 68, 65
1, 10576, Note_on_c, 0, 68, 0
1, 10576, Note_on_c, 0, 67, 65
1, 10591, Note_on_c, 0, 67, 0
1, 10592, Note_on_c, 0, 75, 65
1, 10607, Note_on_c, 0, 75, 0
1, 10608, Note_on_c, 0, 68, 65
1, 10624, Note_on_c, 0, 68, 0
1, 10624, Note_on_c, 0, 66, 65
1, 10639, Note_on_c, 0, 66, 0
1, 10640, Note_on_c, 0, 75, 65
1, 10645, Note_on_c, 1, 60, 0
1, 10655, Note_on_c, 0, 75, 0
1, 10656, Note_on_c, 0, 66, 65
1, 10656, Note_on_c, 1, 61, 51
1, 10671, Note_on_c, 0, 66, 0
1, 10672, Note_on_c, 0, 64, 66
1, 10688, Note_on_c, 0, 64, 0
1, 10688, Note_on_c, 0, 65, 67
1, 10703, Note_on_c, 0, 65, 0
1, 10704, Note_on_c, 0, 69, 68
1, 10720, Note_on_c, 0, 69, 0
1, 10720, Note_on_c, 0, 70, 70
1, 10735, Note_on_c, 0, 70, 0
1, 10736, Note_on_c, 0, 73, 71
1, 10745, Note_on_c, 1, 61, 0
1, 10751, Note_on_c, 0, 73, 0
1, 10752, Note_on_c, 0, 77, 72
1, 10767, Note_on_c, 0, 77, 0
1, 10768, Note_on_c, 0, 73, 73
1, 10783, Note_on_c, 0, 73, 0
1, 10784, Note_on_c, 0, 70, 75
1, 10799, Note_on_c, 0, 70, 0
1, 10800, Note_on_c, 0, 68, 74
1, 10800, Note_on_c, 1, 51, 65
1, 10815, Note_on_c, 1, 51, 0
1, 10816, Note_on_c, 1, 56, 65
1, 10831, Note_on_c, 1, 56, 0
1, 10832, Note_on_c, 1, 60, 65
1, 10847, Note_on_c, 1, 60, 0
1, 10848, Note_on_c, 1, 63, 65
1, 10863, Note_on_c, 1, 63, 0
1, 10864, Note_on_c, 1, 60, 65
1, 10879, Note_on_c, 1, 60, 0
1, 10880, Note_on_c, 1, 56, 65
1, 10889, Note_on_c, 0, 68, 0
1, 10895, Note_on_c, 1, 56, 0
1, 10896, Note_on_c, 0, 72, 65
1, 10896, Note_on_c, 1, 51, 65
1, 10902, Note_on_c, 0, 72, 0
1, 10902, Note_on_c, 0, 70, 65
1, 10911, Note_on_c, 1, 51, 0
1, 10912, Note_on_c, 1, 56, 65
1, 10919, Note_on_c, 0, 70, 0
1, 10920, Note_on_c, 0, 68, 65
1, 10927, Note_on_c, 1, 56, 0
1, 10928, Note_on_c, 1, 60, 65
1, 10943, Note_on_c, 0, 68, 0
1, 10943, Note_on_c, 1, 60, 0
1, 10944, Note_on_c, 0, 68, 65
1, 10944, Note_on_c, 1, 60, 65
1, 10944, Note_on_c, 1, 56, 65
1, 10959, Note_on_c, 0, 68, 0
1, 10960, Note_on_c, 0, 75, 65
1, 10975, Note_on_c, 0, 75, 0
1, 10976, Note_on_c, 0, 67, 65
1, 10989, Note_on_c, 1, 60, 0
1, 10989, Note_on_c, 1, 56, 0
1, 10991, Note_on_c, 0, 67, 0
1, 10992, Note_on_c, 0, 70, 65
1, 10997, Note_on_c, 0, 70, 0
1, 10997, Note_on_c, 0, 68, 65
1, 11002, Note_on_c, 0, 68, 0
1, 11002, Note_on_c, 0, 67, 65
1, 11007, Note_on_c, 0, 67, 0
1, 11007, Note_on_c, 0, 68, 65
1, 11012, Note_on_c, 0, 68, 0
1, 11012, Note_on_c, 0, 72, 65
1, 11027, Note_on_c, 0, 72, 0
1, 11027, Note_on_c, 0, 63, 65
1, 11040, Note_on_c, 0, 63, 0
1, 11040, Note_on_c, 0, 63, 65
1, 11040, Note_on_c, 1, 58, 65
1, 11040, Note_on_c, 1, 51, 65
1, 11046, Note_on_c, 0, 63, 0
1, 11046, Note_on_c, 0, 61, 65
1, 11052, Note_on_c, 0, 61, 0
1, 11052, Note_on_c, 0, 63, 65
1, 11058, Note_on_c, 0, 63, 0
1, 11058, Note_on_c, 0, 61, 65
1, 11064, Note_on_c, 0, 61, 0
1, 11064, Note_on_c, 0, 63, 65
1, 11070, Note_on_c, 0, 63, 0
1, 11070, Note_on_c, 0, 61, 65
1, 11076, Note_on_c, 0, 61, 0
1, 11076, Note_on_c, 0, 60, 65
1, 11082, Note_on_c, 0, 60, 0
1, 11082, Note_on_c, 0, 61, 65
1, 11085, Note_on_c, 1, 58, 0
1, 11085, Note_on_c, 1, 51, 0
1, 11088, Note_on_c, 0, 61, 0
1, 11088, Note_on_c, 0, 60, 65
1, 11088, Note_on_c, 1, 56, 65
1, 11088, Note_on_c, 1, 44, 65
1, 11103, Note_on_c, 0, 60, 0
1, 11104, Note_on_c, 0, 75, 65
1, 11119, Note_on_c, 0, 75, 0
1, 11120, Note_on_c, 0, 67, 65
1, 11133, Note_on_c, 1, 56, 0
1, 11133, Note_on_c, 1, 44, 0
1, 11135, Note_on_c, 0, 67, 0
1, 11136, Note_on_c, 0, 70, 65
1, 11141, Note_on_c, 0, 70, 0
1, 11141, Note_on_c, 0, 68, 65
1, 11146, Note_on_c, 0, 68, 0
1, 11146, Note_on_c, 0, 67, 65
1, 11151, Note_on_c, 0, 67, 0
1, 11151, Note_on_c, 0, 68, 65
1, 11156, Note_on_c, 0, 68, 0
1, 11156, Note_on_c, 0, 72, 65
1, 11171, Note_on_c, 0, 72, 0
1, 11171, Note_on_c, 0, 63, 65
1, 11184, Note_on_c, 0, 63, 0
1, 11184, Note_on_c, 0, 63, 65
1, 11184, Note_on_c, 1, 58, 65
1, 11184, Note_on_c, 1, 51, 65
1, 11190, Note_on_c, 0, 63, 0
1, 11190, Note_on_c, 0, 61, 65
1, 11196, Note_on_c, 0, 61, 0
1, 11196, Note_on_c, 0, 63, 65
1, 11202, Note_on_c, 0, 63, 0
1, 11202, Note_on_c, 0, 61, 65
1, 11208, Note_on_c, 0, 61, 0
1, 11208, Note_on_c, 0, 63, 65
1, 11214, Note_on_c, 0, 63, 0
1, 11214, Note_on_c, 0, 61, 65
1, 11220, Note_on_c, 0, 61, 0
1, 11220, Note_on_c, 0, 60, 65
1, 11226, Note_on_c, 0, 60, 0
1, 11226, Note_on_c, 0, 61, 65
1, 11229, Note_on_c, 1, 58, 0
1, 11229, Note_on_c, 1, 51, 0
1, 11232, Note_on_c, 0, 61, 0
1, 11232, Note_on_c, 0, 61, 65
1, 11232, Note_on_c, 1, 44, 65
1, 11247, Note_on_c, 1, 44, 0
1, 11248, Note_on_c, 1, 56, 64
1, 11263, Note_on_c, 1, 56, 0
1, 11264, Note_on_c, 1, 55, 63
1, 11279, Note_on_c, 1, 55, 0
1, 11280, Note_on_c, 0, 61, 0
1, 11280, Note_on_c, 0, 60, 65
1, 11280, Note_on_c, 1, 56, 62
1, 11295, Note_on_c, 1, 56, 0
1, 11296, Note_on_c, 1, 51, 61
1, 11311, Note_on_c, 1, 51, 0
1, 11312, Note_on_c, 1, 48, 60
1, 11327, Note_on_c, 1, 48, 0
1, 11328, Note_on_c, 1, 51, 59
1, 11343, Note_on_c, 1, 51, 0
1, 11344, Note_on_c, 1, 48, 58
1, 11359, Note_on_c, 1, 48, 0
1, 11360, Note_on_c, 1, 44, 58
1, 11373, Note_on_c, 0, 60, 0
1, 11375, Note_on_c, 1, 44, 0
1, 11376, Note_on_c, 1, 32, 57
1, 11421, Note_on_c, 1, 32, 0
1, 11520, Note_on_c, 0, 77, 65
1, 11520, Note_on_c, 1, 57, 51
1, 11526, Note_on_c, 0, 77, 0
1, 11526, Note_on_c, 0, 75, 65
1, 11532, Note_on_c, 0, 75, 0
1, 11532, Note_on_c, 0, 73, 65
1, 11535, Note_on_c, 1, 57, 0
1, 11536, Note_on_c, 1, 60, 51
1, 11538, Note_on_c, 0, 73, 0
1, 11538, Note_on_c, 0, 75, 65
1, 11551, Note_on_c, 1, 60, 0
1, 11552, Note_on_c, 1, 63, 51
1, 11567, Note_on_c, 1, 63, 0
1, 11568, Note_on_c, 1, 66, 51
1, 11583, Note_on_c, 1, 66, 0
1, 11584, Note_on_c, 1, 63, 51
1, 11587, Note_on_c, 0, 75, 0
1, 11592, Note_on_c, 0, 77, 65
1, 11599, Note_on_c, 1, 63, 0
1, 11600, Note_on_c, 1, 60, 51
1, 11615, Note_on_c, 0, 77, 0
1, 11615, Note_on_c, 1, 60, 0
1, 11616, Note_on_c, 0, 75, 65
1, 11616, Note_on_c, 1, 57, 51
1, 11631, Note_on_c, 1, 57, 0
1, 11632, Note_on_c, 1, 60, 51
1, 11647, Note_on_c, 1, 60, 0
1, 11648, Note_on_c, 1, 63, 51
1, 11661, Note_on_c, 0, 75, 0
1, 11663, Note_on_c, 1, 63, 0
1, 11664, Note_on_c, 0, 84, 65
1, 11664, Note_on_c, 1, 57, 51
1, 11676, Note_on_c, 0, 84, 0
1, 11676, Note_on_c, 0, 85, 65
1, 11679, Note_on_c, 1, 57, 0
1, 11680, Note_on_c, 1, 60, 51
1, 11688, Note_on_c, 0, 85, 0
1, 11688, Note_on_c, 0, 87, 65
1, 11695, Note_on_c, 1, 60, 0
1, 11696, Note_on_c, 1, 63, 51
1, 11711, Note_on_c, 0, 87, 0
1, 11711, Note_on_c, 1, 63, 0
1, 11712, Note_on_c, 1, 66, 51
1, 11727, Note_on_c, 1, 66, 0
1, 11728, Note_on_c, 1, 63, 51
1, 11743, Note_on_c, 1, 63, 0
1, 11744, Note_on_c, 1, 60, 51
1, 11759, Note_on_c, 1, 60, 0
1, 11760, Note_on_c, 1, 57, 51
1, 11775, Note_on_c, 1, 57, 0
1, 11776, Note_on_c, 1, 60, 51
1, 11791, Note_on_c, 1, 60, 0
1, 11792, Note_on_c, 1, 63, 51
1, 11807, Note_on_c, 1, 63, 0
1, 11808, Note_on_c, 1, 61, 51
1, 11808, Note_on_c, 1, 58, 51
1, 11824, Note_on_c, 0, 82, 65
1, 11839, Note_on_c, 0, 82, 0
1, 11840, Note_on_c, 0, 85, 65
1, 11855, Note_on_c, 0, 85, 0
1, 11856, Note_on_c, 0, 77, 66
1, 11871, Note_on_c, 0, 77, 0
1, 11872, Note_on_c, 0, 82, 67
1, 11887, Note_on_c, 0, 82, 0
1, 11888, Note_on_c, 0, 73, 67
1, 11897, Note_on_c, 1, 61, 0
1, 11897, Note_on_c, 1, 58, 0
1, 11903, Note_on_c, 0, 73, 0
1, 11904, Note_on_c, 0, 77, 68
1, 11919, Note_on_c, 0, 77, 0
1, 11920, Note_on_c, 0, 70, 69
1, 11935, Note_on_c, 0, 70, 0
1, 11936, Note_on_c, 0, 73, 69
1, 11951, Note_on_c, 0, 73, 0
1, 11952, Note_on_c, 0, 65, 70
1, 11967, Note_on_c, 0, 65, 0
1, 11968, Note_on_c, 0, 70, 71
1, 11983, Note_on_c, 0, 70, 0
1, 11984, Note_on_c, 0, 61, 71
1, 11984, Note_on_c, 1, 49, 51
1, 11999, Note_on_c, 0, 61, 0
1, 11999, Note_on_c, 1, 49, 0
1, 12000, Note_on_c, 0, 65, 75
1, 12000, Note_on_c, 1, 53, 75
1, 12015, Note_on_c, 0, 65, 0
1, 12015, Note_on_c, 1, 53, 0
1, 12016, Note_on_c, 0, 61, 75
1, 12016, Note_on_c, 1, 49, 75
1, 12031, Note_on_c, 0, 61, 0
1, 12031, Note_on_c, 1, 49, 0
1, 12032, Note_on_c, 0, 58, 75
1, 12032, Note_on_c, 1, 46, 75
1, 12047, Note_on_c, 0, 58, 0
1, 12047, Note_on_c, 1, 46, 0
1, 12048, Note_on_c, 0, 65, 75
1, 12048, Note_on_c, 1, 53, 75
1, 12063, Note_on_c, 0, 65, 0
1, 12063, Note_on_c, 1, 53, 0
1, 12064, Note_on_c, 0, 61, 75
1, 12064, Note_on_c, 1, 49, 75
1, 12079, Note_on_c, 0, 61, 0
1, 12079, Note_on_c, 1, 49, 0
1, 12080, Note_on_c, 0, 58, 75
1, 12080, Note_on_c, 1, 46, 75
1, 12095, Note_on_c, 0, 58, 0
1, 12095, Note_on_c, 1, 46, 0
1, 12096, Note_on_c, 0, 55, 75
1, 12096, Note_on_c, 1, 43, 75
1, 12111, Note_on_c, 0, 55, 0
1, 12111, Note_on_c, 1, 43, 0
1, 12112, Note_on_c, 0, 59, 75
1, 12112, Note_on_c, 1, 47, 75
1, 12127, Note_on_c, 0, 59, 0
1, 12127, Note_on_c, 1, 47, 0
1, 12128, Note_on_c, 0, 62, 75
1, 12128, Note_on_c, 1, 50, 75
1, 12143, Note_on_c, 0, 62, 0
1, 12143, Note_on_c, 1, 50, 0
1, 12144, Note_on_c, 0, 65, 75
1, 12144, Note_on_c, 1, 53, 75
1, 12159, Note_on_c, 0, 65, 0
1, 12159, Note_on_c, 1, 53, 0
1, 12160, Note_on_c, 0, 68, 75
1, 12160, Note_on_c, 1, 56, 75
1, 12175, Note_on_c, 0, 68, 0
1, 12175, Note_on_c, 1, 56, 0
1, 12176, Note_on_c, 0, 71, 75
1, 12176, Note_on_c, 1, 59, 75
1, 12191, Note_on_c, 0, 71, 0
1, 12191, Note_on_c, 1, 59, 0
1, 12192, Note_on_c, 0, 74, 75
1, 12192, Note_on_c, 1, 62, 75
1, 12207, Note_on_c, 0, 74, 0
1, 12207, Note_on_c, 1, 62, 0
1, 12208, Note_on_c, 0, 77, 75
1, 12208, Note_on_c, 1, 65, 75
1, 12223, Note_on_c, 0, 77, 0
1, 12223, Note_on_c, 1, 65, 0
1, 12224, Note_on_c, 0, 80, 75
1, 12224, Note_on_c, 1, 68, 75
1, 12239, Note_on_c, 0, 80, 0
1, 12239, Note_on_c, 1, 68, 0
1, 12240, Note_on_c, 0, 79, 75
1, 12240, Note_on_c, 1, 68, 75
1, 12246, Note_on_c, 0, 79, 0
1, 12246, Note_on_c, 0, 80, 75
1, 12252, Note_on_c, 0, 80, 0
1, 12252, Note_on_c, 0, 82, 75
1, 12258, Note_on_c, 0, 82, 0
1, 12258, Note_on_c, 0, 80, 75
1, 12329, Note_on_c, 1, 68, 0
1, 12336, Note_on_c, 1, 59, 75
1, 12351, Note_on_c, 0, 80, 0
1, 12352, Note_on_c, 0, 79, 65
1, 12367, Note_on_c, 0, 79, 0
1, 12368, Note_on_c, 0, 77, 65
1, 12381, Note_on_c, 1, 59, 0
1, 12383, Note_on_c, 0, 77, 0
1, 12384, Note_on_c, 0, 77, 65
1, 12384, Note_on_c, 1, 60, 51
1, 12399, Note_on_c, 0, 77, 0
1, 12399, Note_on_c, 1, 60, 0
1, 12400, Note_on_c, 0, 75, 65
1, 12400, Note_on_c, 1, 63, 51
1, 12415, Note_on_c, 0, 75, 0
1, 12415, Note_on_c, 1, 63, 0
1, 12416, Note_on_c, 0, 74, 65
1, 12416, Note_on_c, 1, 67, 51
1, 12431, Note_on_c, 0, 74, 0
1, 12431, Note_on_c, 1, 67, 0
1, 12432, Note_on_c, 0, 72, 65
1, 12432, Note_on_c, 1, 72, 51
1, 12448, Note_on_c, 1, 72, 0
1, 12448, Note_on_c, 1, 67, 51
1, 12452, Note_on_c, 0, 72, 0
1, 12463, Note_on_c, 1, 67, 0
1, 12464, Note_on_c, 1, 63, 51
1, 12479, Note_on_c, 1, 63, 0
1, 12480, Note_on_c, 1, 60, 51
1, 12495, Note_on_c, 1, 60, 0
1, 12496, Note_on_c, 0, 84, 65
1, 12496, Note_on_c, 1, 63, 51
1, 12511, Note_on_c, 0, 84, 0
1, 12511, Note_on_c, 1, 63, 0
1, 12512, Note_on_c, 0, 79, 65
1, 12512, Note_on_c, 1, 67, 51
1, 12527, Note_on_c, 0, 79, 0
1, 12527, Note_on_c, 1, 67, 0
1, 12528, Note_on_c, 0, 79, 65
1, 12528, Note_on_c, 1, 62, 51
1, 12543, Note_on_c, 0, 79, 0
1, 12543, Note_on_c, 1, 62, 0
1, 12544, Note_on_c, 0, 77, 65
1, 12544, Note_on_c, 1, 65, 51
1, 12559, Note_on_c, 0, 77, 0
1, 12559, Note_on_c, 1, 65, 0
1, 12560, Note_on_c, 0, 75, 65
1, 12560, Note_on_c, 1, 67, 51
1, 12575, Note_on_c, 0, 75, 0
1, 12575, Note_on_c, 1, 67, 0
1, 12576, Note_on_c, 0, 74, 65
1, 12576, Note_on_c, 1, 71, 51
1, 12591, Note_on_c, 1, 71, 0
1, 12592, Note_on_c, 1, 67, 51
1, 12596, Note_on_c, 0, 74, 0
1, 12607, Note_on_c, 1, 67, 0
1, 12608, Note_on_c, 1, 65, 51
1, 12623, Note_on_c, 1, 65, 0
1, 12624, Note_on_c, 1, 62, 51
1, 12639, Note_on_c, 1, 62, 0
1, 12640, Note_on_c, 0, 86, 65
1, 12640, Note_on_c, 1, 65, 51
1, 12655, Note_on_c, 0, 86, 0
1, 12655, Note_on_c, 1, 65, 0
1, 12656, Note_on_c, 0, 77, 65
1, 12656, Note_on_c, 1, 67, 51
1, 12671, Note_on_c, 0, 77, 0
1, 12671, Note_on_c, 1, 67, 0
1, 12672, Note_on_c, 0, 77, 65
1, 12672, Note_on_c, 1, 60, 51
1, 12687, Note_on_c, 0, 77, 0
1, 12687, Note_on_c, 1, 60, 0
1, 12688, Note_on_c, 0, 75, 65
1, 12688, Note_on_c, 1, 63, 51
1, 12703, Note_on_c, 0, 75, 0
1, 12703, Note_on_c, 1, 63, 0
1, 12704, Note_on_c, 0, 74, 65
1, 12704, Note_on_c, 1, 67, 51
1, 12719, Note_on_c, 0, 74, 0
1, 12719, Note_on_c, 1, 67, 0
1, 12720, Note_on_c, 0, 72, 65
1, 12720, Note_on_c, 1, 72, 51
1, 12736, Note_on_c, 1, 72, 0
1, 12736, Note_on_c, 1, 67, 51
1, 12740, Note_on_c, 0, 72, 0
1, 12751, Note_on_c, 1, 67, 0
1, 12752, Note_on_c, 1, 63, 51
1, 12767, Note_on_c, 1, 63, 0
1, 12768, Note_on_c, 1, 60, 51
1, 12783, Note_on_c, 1, 60, 0
1, 12784, Note_on_c, 0, 80, 66
1, 12784, Note_on_c, 1, 63, 51
1, 12799, Note_on_c, 0, 80, 0
1, 12799, Note_on_c, 1, 63, 0
1, 12800, Note_on_c, 0, 75, 67
1, 12800, Note_on_c, 1, 68, 52
1, 12815, Note_on_c, 0, 75, 0
1, 12815, Note_on_c, 1, 68, 0
1, 12816, Note_on_c, 0, 75, 68
1, 12816, Note_on_c, 1, 58, 53
1, 12831, Note_on_c, 0, 75, 0
1, 12831, Note_on_c, 1, 58, 0
1, 12832, Note_on_c, 0, 73, 70
1, 12832, Note_on_c, 1, 61, 54
1, 12847, Note_on_c, 0, 73, 0
1, 12847, Note_on_c, 1, 61, 0
1, 12848, Note_on_c, 0, 72, 71
1, 12848, Note_on_c, 1, 63, 55
1, 12863, Note_on_c, 0, 72, 0
1, 12863, Note_on_c, 1, 63, 0
1, 12864, Note_on_c, 0, 70, 75
1, 12864, Note_on_c, 1, 67, 58
1, 12879, Note_on_c, 1, 67, 0
1, 12880, Note_on_c, 1, 63, 58
1, 12884, Note_on_c, 0, 70, 0
1, 12895, Note_on_c, 1, 63, 0
1, 12896, Note_on_c, 1, 61, 58
1, 12911, Note_on_c, 1, 61, 0
1, 12912, Note_on_c, 1, 58, 58
1, 12927, Note_on_c, 1, 58, 0
1, 12928, Note_on_c, 0, 82, 75
1, 12928, Note_on_c, 1, 61, 58
1, 12943, Note_on_c, 0, 82, 0
1, 12943, Note_on_c, 1, 61, 0
1, 12944, Note_on_c, 0, 73, 75
1, 12944, Note_on_c, 1, 63, 58
1, 12959, Note_on_c, 0, 73, 0
1, 12959, Note_on_c, 1, 63, 0
1, 12960, Note_on_c, 0, 73, 75
1, 12960, Note_on_c, 1, 56, 58
1, 12975, Note_on_c, 0, 73, 0
1, 12975, Note_on_c, 1, 56, 0
1, 12976, Note_on_c, 0, 72, 75
1, 12976, Note_on_c, 1, 60, 58
1, 12991, Note_on_c, 0, 72, 0
1, 12991, Note_on_c, 1, 60, 0
1, 12992, Note_on_c, 0, 70, 75
1, 12992, Note_on_c, 1, 63, 58
1, 13007, Note_on_c, 0, 70, 0
1, 13007, Note_on_c, 1, 63, 0
1, 13008, Note_on_c, 0, 68, 75
1, 13008, Note_on_c, 1, 68, 58
1, 13024, Note_on_c, 1, 68, 0
1, 13024, Note_on_c, 1, 63, 58
1, 13028, Note_on_c, 0, 68, 0
1, 13039, Note_on_c, 1, 63, 0
1, 13040, Note_on_c, 1, 60, 58
1, 13055, Note_on_c, 1, 60, 0
1, 13056, Note_on_c, 1, 56, 58
1, 13071, Note_on_c, 1, 56, 0
1, 13072, Note_on_c, 0, 75, 75
1, 13072, Note_on_c, 1, 60, 58
1, 13087, Note_on_c, 0, 75, 0
1, 13087, Note_on_c, 1, 60, 0
1, 13088, Note_on_c, 0, 72, 77
1, 13088, Note_on_c, 1, 63, 58
1, 13103, Note_on_c, 0, 72, 0
1, 13103, Note_on_c, 1, 63, 0
1, 13104, Note_on_c, 0, 72, 80
1, 13104, Note_on_c, 1, 55, 59
1, 13119, Note_on_c, 0, 72, 0
1, 13119, Note_on_c, 1, 55, 0
1, 13120, Note_on_c, 0, 70, 83
1, 13120, Note_on_c, 1, 58, 60
1, 13135, Note_on_c, 0, 70, 0
1, 13135, Note_on_c, 1, 58, 0
1, 13136, Note_on_c, 0, 68, 86
1, 13136, Note_on_c, 1, 60, 61
1, 13151, Note_on_c, 0, 68, 0
1, 13151, Note_on_c, 1, 60, 0
1, 13152, Note_on_c, 0, 67, 89
1, 13152, Note_on_c, 1, 64, 62
1, 13167, Note_on_c, 1, 64, 0
1, 13168, Note_on_c, 1, 60, 65
1, 13172, Note_on_c, 0, 67, 0
1, 13183, Note_on_c, 1, 60, 0
1, 13184, Note_on_c, 1, 58, 65
1, 13199, Note_on_c, 1, 58, 0
1, 13200, Note_on_c, 1, 55, 65
1, 13215, Note_on_c, 1, 55, 0
1, 13216, Note_on_c, 0, 79, 106
1, 13216, Note_on_c, 1, 58, 65
1, 13231, Note_on_c, 0, 79, 0
1, 13231, Note_on_c, 1, 58, 0
1, 13232, Note_on_c, 0, 70, 106
1, 13232, Note_on_c, 1, 60, 65
1, 13247, Note_on_c, 0, 70, 0
1, 13247, Note_on_c, 1, 60, 0
1, 13248, Note_on_c, 0, 70, 106
1, 13248, Note_on_c, 1, 53, 65
1, 13263, Note_on_c, 0, 70, 0
1, 13264, Note_on_c, 0, 68, 103
1, 13279, Note_on_c, 0, 68, 0
1, 13280, Note_on_c, 0, 67, 101
1, 13295, Note_on_c, 0, 67, 0
1, 13296, Note_on_c, 0, 65, 99
1, 13311, Note_on_c, 0, 65, 0
1, 13312, Note_on_c, 0, 72, 97
1, 13327, Note_on_c, 0, 72, 0
1, 13328, Note_on_c, 0, 71, 95
1, 13337, Note_on_c, 1, 53, 0
1, 13343, Note_on_c, 0, 71, 0
1, 13344, Note_on_c, 0, 77, 93
1, 13344, Note_on_c, 1, 49, 65
1, 13359, Note_on_c, 0, 77, 0
1, 13360, Note_on_c, 0, 71, 91
1, 13375, Note_on_c, 0, 71, 0
1, 13376, Note_on_c, 0, 80, 89
1, 13389, Note_on_c, 1, 49, 0
1, 13391, Note_on_c, 0, 80, 0
1, 13392, Note_on_c, 0, 77, 87
1, 13392, Note_on_c, 1, 48, 65
1, 13407, Note_on_c, 1, 48, 0
1, 13408, Note_on_c, 1, 52, 65
1, 13423, Note_on_c, 1, 52, 0
1, 13424, Note_on_c, 1, 55, 65
1, 13439, Note_on_c, 1, 55, 0
1, 13440, Note_on_c, 0, 77, 0
1, 13440, Note_on_c, 0, 76, 87
1, 13440, Note_on_c, 1, 60, 65
1, 13455, Note_on_c, 1, 60, 0
1, 13456, Note_on_c, 1, 64, 67
1, 13471, Note_on_c, 1, 64, 0
1, 13472, Note_on_c, 1, 67, 70
1, 13481, Note_on_c, 0, 76, 0
1, 13487, Note_on_c, 1, 67, 0
1, 13488, Note_on_c, 1, 72, 72
1, 13503, Note_on_c, 1, 72, 0
1, 13504, Note_on_c, 1, 67, 75
1, 13519, Note_on_c, 1, 67, 0
1, 13520, Note_on_c, 1, 64, 72
1, 13535, Note_on_c, 1, 64, 0
1, 13536, Note_on_c, 0, 73, 65
1, 13536, Note_on_c, 1, 70, 65
1, 13536, Note_on_c, 1, 60, 65
1, 13551, Note_on_c, 0, 73, 0
1, 13552, Note_on_c, 0, 76, 65
1, 13567, Note_on_c, 0, 76, 0
1, 13568, Note_on_c, 0, 79, 65
1, 13583, Note_on_c, 0, 79, 0
1, 13584, Note_on_c, 0, 82, 65
1, 13599, Note_on_c, 0, 82, 0
1, 13600, Note_on_c, 0, 85, 65
1, 13615, Note_on_c, 0, 85, 0
1, 13616, Note_on_c, 0, 84, 65
1, 13631, Note_on_c, 0, 84, 0
1, 13632, Note_on_c, 0, 82, 65
1, 13647, Note_on_c, 0, 82, 0
1, 13648, Note_on_c, 0, 80, 65
1, 13663, Note_on_c, 0, 80, 0
1, 13664, Note_on_c, 0, 79, 65
1, 13669, Note_on_c, 1, 70, 0
1, 13669, Note_on_c, 1, 60, 0
1, 13679, Note_on_c, 0, 79, 0
1, 13680, Note_on_c, 0, 77, 65
1, 13680, Note_on_c, 1, 68, 65
1, 13680, Note_on_c, 1, 60, 65
1, 13695, Note_on_c, 0, 77, 0
1, 13696, Note_on_c, 0, 84, 65
1, 13711, Note_on_c, 0, 84, 0
1, 13712, Note_on_c, 0, 76, 65
1, 13727, Note_on_c, 0, 76, 0
1, 13728, Note_on_c, 0, 79, 65
1, 13733, Note_on_c, 0, 79, 0
1, 13733, Note_on_c, 0, 77, 65
1, 13738, Note_on_c, 0, 77, 0
1, 13738, Note_on_c, 0, 76, 65
1, 13743, Note_on_c, 0, 76, 0
1, 13743, Note_on_c, 0, 77, 65
1, 13748, Note_on_c, 0, 77, 0
1, 13748, Note_on_c, 0, 80, 65
1, 13763, Note_on_c, 0, 80, 0
1, 13763, Note_on_c, 0, 72, 65
1, 13776, Note_on_c, 0, 72, 0
1, 13776, Note_on_c, 0, 77, 65
1, 13791, Note_on_c, 0, 77, 0
1, 13792, Note_on_c, 0, 72, 65
1, 13807, Note_on_c, 0, 72, 0
1, 13808, Note_on_c, 0, 68, 65
1, 13813, Note_on_c, 1, 68, 0
1, 13813, Note_on_c, 1, 60, 0
1, 13823, Note_on_c, 0, 68, 0
1, 13824, Note_on_c, 0, 67, 65
1, 13824, Note_on_c, 1, 64, 65
1, 13824, Note_on_c, 1, 60, 65
1, 13839, Note_on_c, 0, 67, 0
1, 13840, Note_on_c, 0, 70, 65
1, 13855, Note_on_c, 0, 70, 0
1, 13856, Note_on_c, 0, 73, 65
1, 13871, Note_on_c, 0, 73, 0
1, 13872, Note_on_c, 0, 76, 65
1, 13887, Note_on_c, 0, 76, 0
1, 13888, Note_on_c, 0, 79, 65
1, 13903, Note_on_c, 0, 79, 0
1, 13904, Note_on_c, 0, 82, 65
1, 13908, Note_on_c, 0, 82, 0
1, 13908, Note_on_c, 0, 80, 65
1, 13912, Note_on_c, 0, 80, 0
1, 13912, Note_on_c, 0, 79, 65
1, 13916, Note_on_c, 0, 79, 0
1, 13916, Note_on_c, 0, 80, 65
1, 13920, Note_on_c, 0, 80, 0
1, 13920, Note_on_c, 0, 82, 65
1, 13935, Note_on_c, 0, 82, 0
1, 13936, Note_on_c, 0, 80, 65
1, 13951, Note_on_c, 0, 80, 0
1, 13952, Note_on_c, 0, 79, 65
1, 13957, Note_on_c, 1, 64, 0
1, 13957, Note_on_c, 1, 60, 0
1, 13967, Note_on_c, 0, 79, 0
1, 13968, Note_on_c, 0, 77, 65
1, 13968, Note_on_c, 1, 65, 65
1, 13968, Note_on_c, 1, 60, 65
1, 13983, Note_on_c, 0, 77, 0
1, 13984, Note_on_c, 0, 80, 65
1, 13999, Note_on_c, 0, 80, 0
1, 14000, Note_on_c, 0, 72, 65
1, 14015, Note_on_c, 0, 72, 0
1, 14016, Note_on_c, 0, 77, 65
1, 14031, Note_on_c, 0, 77, 0
1, 14032, Note_on_c, 0, 72, 65
1, 14047, Note_on_c, 0, 72, 0
1, 14048, Note_on_c, 0, 68, 65
1, 14063, Note_on_c, 0, 68, 0
1, 14064, Note_on_c, 0, 72, 65
1, 14079, Note_on_c, 0, 72, 0
1, 14080, Note_on_c, 0, 68, 67
1, 14095, Note_on_c, 0, 68, 0
1, 14096, Note_on_c, 0, 65, 70
1, 14101, Note_on_c, 1, 65, 0
1, 14101, Note_on_c, 1, 60, 0
1, 14111, Note_on_c, 0, 65, 0
1, 14112, Note_on_c, 0, 68, 75
1, 14112, Note_on_c, 1, 48, 65
1, 14118, Note_on_c, 0, 68, 0
1, 14118, Note_on_c, 0, 66, 75
1, 14124, Note_on_c, 0, 66, 0
1, 14124, Note_on_c, 0, 68, 75
1, 14127, Note_on_c, 1, 48, 0
1, 14128, Note_on_c, 1, 51, 65
1, 14130, Note_on_c, 0, 68, 0
1, 14130, Note_on_c, 0, 66, 75
1, 14136, Note_on_c, 0, 66, 0
1, 14136, Note_on_c, 0, 68, 75
1, 14142, Note_on_c, 0, 68, 0
1, 14142, Note_on_c, 0, 66, 75
1, 14143, Note_on_c, 1, 51, 0
1, 14144, Note_on_c, 1, 56, 65
1, 14148, Note_on_c, 0, 66, 0
1, 14148, Note_on_c, 0, 68, 75
1, 14154, Note_on_c, 0, 68, 0
1, 14154, Note_on_c, 0, 66, 75
1, 14159, Note_on_c, 1, 56, 0
1, 14160, Note_on_c, 0, 66, 0
1, 14160, Note_on_c, 0, 68, 75
1, 14160, Note_on_c, 1, 60, 65
1, 14166, Note_on_c, 0, 68, 0
1, 14166, Note_on_c, 0, 66, 75
1, 14172, Note_on_c, 0, 66, 0
1, 14172, Note_on_c, 0, 68, 75
1, 14175, Note_on_c, 1, 60, 0
1, 14176, Note_on_c, 1, 56, 65
1, 14178, Note_on_c, 0, 68, 0
1, 14178, Note_on_c, 0, 66, 75
1, 14184, Note_on_c, 0, 66, 0
1, 14184, Note_on_c, 0, 68, 75
1, 14190, Note_on_c, 0, 68, 0
1, 14190, Note_on_c, 0, 66, 75
1, 14191, Note_on_c, 1, 56, 0
1, 14192, Note_on_c, 1, 51, 65
1, 14196, Note_on_c, 0, 66, 0
1, 14196, Note_on_c, 0, 68, 75
1, 14202, Note_on_c, 0, 68, 0
1, 14202, Note_on_c, 0, 66, 75
1, 14207, Note_on_c, 1, 51, 0
1, 14208, Note_on_c, 0, 66, 0
1, 14208, Note_on_c, 0, 68, 75
1, 14208, Note_on_c, 1, 48, 65
1, 14214, Note_on_c, 0, 68, 0
1, 14214, Note_on_c, 0, 66, 75
1, 14220, Note_on_c, 0, 66, 0
1, 14220, Note_on_c, 0, 68, 75
1, 14223, Note_on_c, 1, 48, 0
1, 14224, Note_on_c, 1, 51, 65
1, 14226, Note_on_c, 0, 68, 0
1, 14226, Note_on_c, 0, 66, 75
1, 14232, Note_on_c, 0, 66, 0
1, 14232, Note_on_c, 0, 68, 75
1, 14238, Note_on_c, 0, 68, 0
1, 14238, Note_on_c, 0, 66, 75
1, 14239, Note_on_c, 1, 51, 0
1, 14240, Note_on_c, 1, 56, 65
1, 14244, Note_on_c, 0, 66, 0
1, 14244, Note_on_c, 0, 65, 75
1, 14250, Note_on_c, 0, 65, 0
1, 14250, Note_on_c, 0, 66, 75
1, 14255, Note_on_c, 1, 56, 0
1, 14256, Note_on_c, 0, 66, 0
1, 14256, Note_on_c, 0, 65, 75
1, 14256, Note_on_c, 1, 49, 65
1, 14271, Note_on_c, 1, 49, 0
1, 14272, Note_on_c, 1, 53, 65
1, 14287, Note_on_c, 1, 53, 0
1, 14288, Note_on_c, 1, 56, 65
1, 14301, Note_on_c, 0, 65, 0
1, 14303, Note_on_c, 1, 56, 0
1, 14304, Note_on_c, 0, 77, 75
1, 14304, Note_on_c, 1, 61, 65
1, 14316, Note_on_c, 0, 77, 0
1, 14316, Note_on_c, 0, 79, 75
1, 14319, Note_on_c, 1, 61, 0
1, 14320, Note_on_c, 1, 56, 65
1, 14328, Note_on_c, 0, 79, 0
1, 14328, Note_on_c, 0, 80, 75
1, 14335, Note_on_c, 1, 56, 0
1, 14336, Note_on_c, 1, 53, 65
1, 14351, Note_on_c, 0, 80, 0
1, 14351, Note_on_c, 1, 53, 0
1, 14352, Note_on_c, 1, 49, 65
1, 14367, Note_on_c, 1, 49, 0
1, 14368, Note_on_c, 1, 53, 65
1, 14383, Note_on_c, 1, 53, 0
1, 14384, Note_on_c, 1, 56, 65
1, 14394, Note_on_c, 0, 64, 75
1, 14399, Note_on_c, 1, 56, 0
1, 14400, Note_on_c, 1, 47, 65
1, 14406, Note_on_c, 0, 64, 0
1, 14406, Note_on_c, 0, 65, 75
1, 14412, Note_on_c, 0, 65, 0
1, 14412, Note_on_c, 0, 67, 75
1, 14415, Note_on_c, 1, 47, 0
1, 14416, Note_on_c, 1, 50, 65
1, 14418, Note_on_c, 0, 67, 0
1, 14418, Note_on_c, 0, 65, 75
1, 14424, Note_on_c, 0, 65, 0
1, 14424, Note_on_c, 0, 67, 75
1, 14430, Note_on_c, 0, 67, 0
1, 14430, Note_on_c, 0, 65, 75
1, 14431, Note_on_c, 1, 50, 0
1, 14432, Note_on_c, 1, 53, 65
1, 14436, Note_on_c, 0, 65, 0
1, 14436, Note_on_c, 0, 67, 75
1, 14442, Note_on_c, 0, 67, 0
1, 14442, Note_on_c, 0, 65, 75
1, 14447, Note_on_c, 1, 53, 0
1, 14448, Note_on_c, 0, 65, 0
1, 14448, Note_on_c, 0, 67, 75
1, 14448, Note_on_c, 1, 56, 65
1, 14454, Note_on_c, 0, 67, 0
1, 14454, Note_on_c, 0, 65, 75
1, 14460, Note_on_c, 0, 65, 0
1, 14460, Note_on_c, 0, 67, 75
1, 14463, Note_on_c, 1, 56, 0
1, 14464, Note_on_c, 1, 53, 65
1, 14466, Note_on_c, 0, 67, 0
1, 14466, Note_on_c, 0, 65, 75
1, 14472, Note_on_c, 0, 65, 0
1, 14472, Note_on_c, 0, 67, 75
1, 14478, Note_on_c, 0, 67, 0
1, 14478, Note_on_c, 0, 65, 75
1, 14479, Note_on_c, 1, 53, 0
1, 14480, Note_on_c, 1, 50, 65
1, 14484, Note_on_c, 0, 65, 0
1, 14484, Note_on_c, 0, 67, 75
1, 14490, Note_on_c, 0, 67, 0
1, 14490, Note_on_c, 0, 65, 75
1, 14495, Note_on_c, 1, 50, 0
1, 14496, Note_on_c, 0, 65, 0
1, 14496, Note_on_c, 0, 67, 75
1, 14496, Note_on_c, 1, 47, 65
1, 14502, Note_on_c, 0, 67, 0
1, 14502, Note_on_c, 0, 65, 75
1, 14508, Note_on_c, 0, 65, 0
1, 14508, Note_on_c, 0, 67, 75
1, 14511, Note_on_c, 1, 47, 0
1, 14512, Note_on_c, 1, 50, 65
1, 14514, Note_on_c, 0, 67, 0
1, 14514, Note_on_c, 0, 65, 75
1, 14520, Note_on_c, 0, 65, 0
1, 14520, Note_on_c, 0, 67, 75
1, 14526, Note_on_c, 0, 67, 0
1, 14526, Note_on_c, 0, 65, 75
1, 14527, Note_on_c, 1, 50, 0
1, 14528, Note_on_c, 1, 53, 65
1, 14532, Note_on_c, 0, 65, 0
1, 14532, Note_on_c, 0, 64, 75
1, 14538, Note_on_c, 0, 64, 0
1, 14538, Note_on_c, 0, 65, 75
1, 14543, Note_on_c, 1, 53, 0
1, 14544, Note_on_c, 0, 65, 0
1, 14544, Note_on_c, 0, 64, 75
1, 14544, Note_on_c, 1, 48, 65
1, 14559, Note_on_c, 1, 48, 0
1, 14560, Note_on_c, 1, 52, 65
1, 14575, Note_on_c, 1, 52, 0
1, 14576, Note_on_c, 1, 55, 65
1, 14589, Note_on_c, 0, 64, 0
1, 14591, Note_on_c, 1, 55, 0
1, 14592, Note_on_c, 0, 84, 75
1, 14592, Note_on_c, 1, 60, 65
1, 14604, Note_on_c, 0, 84, 0
1, 14604, Note_on_c, 0, 86, 75
1, 14607, Note_on_c, 1, 60, 0
1, 14608, Note_on_c, 1, 55, 65
1, 14616, Note_on_c, 0, 86, 0
1, 14616, Note_on_c, 0, 88, 75
1, 14623, Note_on_c, 1, 55, 0
1, 14624, Note_on_c, 1, 52, 65
1, 14639, Note_on_c, 0, 88, 0
1, 14639, Note_on_c, 1, 52, 0
1, 14640, Note_on_c, 1, 48, 65
1, 14655, Note_on_c, 1, 48, 0
1, 14656, Note_on_c, 1, 52, 65
1, 14671, Note_on_c, 1, 52, 0
1, 14672, Note_on_c, 1, 55, 65
1, 14687, Note_on_c, 1, 55, 0
1, 14688, Note_on_c, 0, 72, 65
1, 14688, Note_on_c, 1, 52, 58
1, 14703, Note_on_c, 0, 72, 0
1, 14703, Note_on_c, 1, 52, 0
1, 14704, Note_on_c, 0, 70, 65
1, 14704, Note_on_c, 1, 55, 58
1, 14719, Note_on_c, 0, 70, 0
1, 14719, Note_on_c, 1, 55, 0
1, 14720, Note_on_c, 0, 68, 65
1, 14720, Note_on_c, 1, 58, 58
1, 14735, Note_on_c, 0, 68, 0
1, 14735, Note_on_c, 1, 58, 0
1, 14736, Note_on_c, 0, 67, 65
1, 14736, Note_on_c, 1, 60, 58
1, 14751, Note_on_c, 1, 60, 0
1, 14752, Note_on_c, 1, 58, 58
1, 14756, Note_on_c, 0, 67, 0
1, 14767, Note_on_c, 1, 58, 0
1, 14768, Note_on_c, 1, 55, 58
1, 14783, Note_on_c, 1, 55, 0
1, 14784, Note_on_c, 1, 52, 58
1, 14799, Note_on_c, 1, 52, 0
1, 14800, Note_on_c, 0, 79, 65
1, 14800, Note_on_c, 1, 55, 58
1, 14815, Note_on_c, 0, 79, 0
1, 14815, Note_on_c, 1, 55, 0
1, 14816, Note_on_c, 0, 70, 65
1, 14816, Note_on_c, 1, 58, 58
1, 14831, Note_on_c, 0, 70, 0
1, 14831, Note_on_c, 1, 58, 0
1, 14832, Note_on_c, 0, 70, 65
1, 14832, Note_on_c, 1, 53, 58
1, 14847, Note_on_c, 0, 70, 0
1, 14847, Note_on_c, 1, 53, 0
1, 14848, Note_on_c, 0, 68, 65
1, 14848, Note_on_c, 1, 56, 58
1, 14863, Note_on_c, 0, 68, 0
1, 14863, Note_on_c, 1, 56, 0
1, 14864, Note_on_c, 0, 67, 65
1, 14864, Note_on_c, 1, 60, 58
1, 14879, Note_on_c, 0, 67, 0
1, 14879, Note_on_c, 1, 60, 0
1, 14880, Note_on_c, 0, 65, 65
1, 14880, Note_on_c, 1, 65, 58
1, 14896, Note_on_c, 1, 65, 0
1, 14896, Note_on_c, 1, 60, 58
1, 14900, Note_on_c, 0, 65, 0
1, 14911, Note_on_c, 1, 60, 0
1, 14912, Note_on_c, 1, 56, 58
1, 14927, Note_on_c, 1, 56, 0
1, 14928, Note_on_c, 1, 53, 58
1, 14943, Note_on_c, 1, 53, 0
1, 14944, Note_on_c, 0, 77, 58
1, 14944, Note_on_c, 1, 56, 58
1, 14959, Note_on_c, 0, 77, 0
1, 14959, Note_on_c, 1, 56, 0
1, 14960, Note_on_c, 0, 72, 58
1, 14960, Note_on_c, 1, 60, 58
1, 14975, Note_on_c, 0, 72, 0
1, 14975, Note_on_c, 1, 60, 0
1, 14976, Note_on_c, 0, 72, 58
1, 14976, Note_on_c, 1, 55, 58
1, 14991, Note_on_c, 0, 72, 0
1, 14991, Note_on_c, 1, 55, 0
1, 14992, Note_on_c, 0, 70, 58
1, 14992, Note_on_c, 1, 58, 58
1, 15007, Note_on_c, 0, 70, 0
1, 15007, Note_on_c, 1, 58, 0
1, 15008, Note_on_c, 0, 68, 58
1, 15008, Note_on_c, 1, 60, 58
1, 15023, Note_on_c, 0, 68, 0
1, 15023, Note_on_c, 1, 60, 0
1, 15024, Note_on_c, 0, 67, 58
1, 15024, Note_on_c, 1, 64, 58
1, 15039, Note_on_c, 1, 64, 0
1, 15040, Note_on_c, 1, 60, 58
1, 15044, Note_on_c, 0, 67, 0
1, 15055, Note_on_c, 1, 60, 0
1, 15056, Note_on_c, 1, 58, 58
1, 15071, Note_on_c, 1, 58, 0
1, 15072, Note_on_c, 1, 55, 58
1, 15087, Note_on_c, 1, 55, 0
1, 15088, Note_on_c, 0, 79, 58
1, 15088, Note_on_c, 1, 58, 58
1, 15103, Note_on_c, 0, 79, 0
1, 15103, Note_on_c, 1, 58, 0
1, 15104, Note_on_c, 0, 70, 58
1, 15104, Note_on_c, 1, 60, 58
1, 15119, Note_on_c, 0, 70, 0
1, 15119, Note_on_c, 1, 60, 0
1, 15120, Note_on_c, 1, 53, 65
1, 15136, Note_on_c, 0, 80, 75
1, 15151, Note_on_c, 0, 80, 0
1, 15152, Note_on_c, 0, 84, 75
1, 15167, Note_on_c, 0, 84, 0
1, 15168, Note_on_c, 0, 77, 75
1, 15183, Note_on_c, 0, 77, 0
1, 15184, Note_on_c, 0, 80, 75
1, 15199, Note_on_c, 0, 80, 0
1, 15200, Note_on_c, 0, 72, 75
1, 15209, Note_on_c, 1, 53, 0
1, 15215, Note_on_c, 0, 72, 0
1, 15216, Note_on_c, 0, 77, 75
1, 15231, Note_on_c, 0, 77, 0
1, 15232, Note_on_c, 0, 68, 75
1, 15247, Note_on_c, 0, 68, 0
1, 15248, Note_on_c, 0, 72, 75
1, 15263, Note_on_c, 0, 72, 0
1, 15264, Note_on_c, 1, 47, 65
1, 15264, Note_on_c, 1, 35, 65
1, 15280, Note_on_c, 0, 83, 75
1, 15295, Note_on_c, 0, 83, 0
1, 15296, Note_on_c, 0, 86, 75
1, 15311, Note_on_c, 0, 86, 0
1, 15312, Note_on_c, 0, 80, 75
1, 15327, Note_on_c, 0, 80, 0
1, 15328, Note_on_c, 0, 83, 75
1, 15343, Note_on_c, 0, 83, 0
1, 15344, Note_on_c, 0, 77, 75
1, 15353, Note_on_c, 1, 47, 0
1, 15353, Note_on_c, 1, 35, 0
1, 15359, Note_on_c, 0, 77, 0
1, 15360, Note_on_c, 0, 80, 75
1, 15375, Note_on_c, 0, 80, 0
1, 15376, Note_on_c, 0, 74, 75
1, 15391, Note_on_c, 0, 74, 0
1, 15392, Note_on_c, 0, 77, 75
1, 15407, Note_on_c, 0, 77, 0
1, 15408, Note_on_c, 1, 48, 65
1, 15408, Note_on_c, 1, 36, 65
1, 15424, Note_on_c, 0, 80, 75
1, 15439, Note_on_c, 0, 80, 0
1, 15440, Note_on_c, 0, 84, 75
1, 15455, Note_on_c, 0, 84, 0
1, 15456, Note_on_c, 0, 76, 75
1, 15471, Note_on_c, 0, 76, 0
1, 15472, Note_on_c, 0, 77, 75
1, 15487, Note_on_c, 0, 77, 0
1, 15488, Note_on_c, 0, 80, 75
1, 15503, Note_on_c, 0, 80, 0
1, 15504, Note_on_c, 0, 72, 75
1, 15519, Note_on_c, 0, 72, 0
1, 15520, Note_on_c, 0, 71, 75
1, 15535, Note_on_c, 0, 71, 0
1, 15536, Note_on_c, 0, 79, 75
1, 15551, Note_on_c, 0, 79, 0
1, 15552, Note_on_c, 0, 70, 75
1, 15567, Note_on_c, 0, 70, 0
1, 15568, Note_on_c, 0, 69, 75
1, 15583, Note_on_c, 0, 69, 0
1, 15584, Note_on_c, 0, 77, 75
1, 15599, Note_on_c, 0, 77, 0
1, 15600, Note_on_c, 0, 68, 75
1, 15615, Note_on_c, 0, 68, 0
1, 15616, Note_on_c, 0, 67, 75
1, 15631, Note_on_c, 0, 67, 0
1, 15632, Note_on_c, 0, 76, 75
1, 15647, Note_on_c, 0, 76, 0
1, 15648, Note_on_c, 0, 67, 75
1, 15663, Note_on_c, 0, 67, 0
1, 15664, Note_on_c, 0, 65, 75
1, 15679, Note_on_c, 0, 65, 0
1, 15680, Note_on_c, 0, 74, 75
1, 15685, Note_on_c, 1, 48, 0
1, 15685, Note_on_c, 1, 36, 0
1, 15695, Note_on_c, 0, 74, 0
1, 15696, Note_on_c, 0, 65, 65
1, 15696, Note_on_c, 1, 58, 65
1, 15696, Note_on_c, 1, 48, 64
1, 15711, Note_on_c, 0, 65, 0
1, 15712, Note_on_c, 0, 64, 64
1, 15727, Note_on_c, 0, 64, 0
1, 15728, Note_on_c, 0, 72, 63
1, 15741, Note_on_c, 1, 58, 0
1, 15743, Note_on_c, 0, 72, 0
1, 15744, Note_on_c, 0, 67, 63
1, 15744, Note_on_c, 1, 56, 62
1, 15759, Note_on_c, 0, 67, 0
1, 15760, Note_on_c, 0, 65, 62
1, 15775, Note_on_c, 0, 65, 0
1, 15776, Note_on_c, 0, 72, 62
1, 15789, Note_on_c, 1, 56, 0
1, 15791, Note_on_c, 0, 72, 0
1, 15792, Note_on_c, 0, 68, 61
1, 15792, Note_on_c, 1, 52, 60
1, 15807, Note_on_c, 0, 68, 0
1, 15808, Note_on_c, 0, 67, 60
1, 15823, Note_on_c, 0, 67, 0
1, 15824, Note_on_c, 0, 70, 60
1, 15829, Note_on_c, 1, 48, 0
1, 15837, Note_on_c, 1, 52, 0
1, 15839, Note_on_c, 0, 70, 0
1, 15840, Note_on_c, 0, 68, 75
1, 15856, Note_on_c, 1, 49, 75
1, 15871, Note_on_c, 1, 49, 0
1, 15872, Note_on_c, 1, 53, 75
1, 15885, Note_on_c, 0, 68, 0
1, 15887, Note_on_c, 1, 53, 0
1, 15888, Note_on_c, 1, 56, 75
1, 15903, Note_on_c, 1, 56, 0
1, 15904, Note_on_c, 1, 61, 75
1, 15919, Note_on_c, 1, 61, 0
1, 15920, Note_on_c, 0, 65, 75
1, 15935, Note_on_c, 0, 65, 0
1, 15936, Note_on_c, 0, 68, 75
1, 15951, Note_on_c, 0, 68, 0
1, 15952, Note_on_c, 0, 73, 75
1, 15967, Note_on_c, 0, 73, 0
1, 15968, Note_on_c, 0, 77, 75
1, 15983, Note_on_c, 0, 77, 0
1, 15984, Note_on_c, 1, 35, 75
1, 15999, Note_on_c, 1, 35, 0
1, 16000, Note_on_c, 1, 47, 75
1, 16015, Note_on_c, 1, 47, 0
1, 16016, Note_on_c, 0, 62, 75
1, 16031, Note_on_c, 0, 62, 0
1, 16032, Note_on_c, 0, 65, 75
1, 16047, Note_on_c, 0, 65, 0
1, 16048, Note_on_c, 0, 68, 75
1, 16063, Note_on_c, 0, 68, 0
1, 16064, Note_on_c, 0, 71, 75
1, 16079, Note_on_c, 0, 71, 0
1, 16080, Note_on_c, 0, 74, 75
1, 16095, Note_on_c, 0, 74, 0
1, 16096, Note_on_c, 0, 77, 75
1, 16111, Note_on_c, 0, 77, 0
1, 16112, Note_on_c, 0, 80, 75
1, 16127, Note_on_c, 0, 80, 0
1, 16128, Note_on_c, 1, 36, 75
1, 16144, Note_on_c, 0, 84, 75
1, 16159, Note_on_c, 0, 84, 0
1, 16160, Note_on_c, 0, 72, 75
1, 16173, Note_on_c, 1, 36, 0
1, 16175, Note_on_c, 0, 72, 0
1, 16176, Note_on_c, 0, 71, 75
1, 16191, Note_on_c, 0, 71, 0
1, 16192, Note_on_c, 0, 70, 75
1, 16207, Note_on_c, 0, 70, 0
1, 16208, Note_on_c, 0, 69, 75
1, 16223, Note_on_c, 0, 69, 0
1, 16224, Note_on_c, 0, 68, 75
1, 16239, Note_on_c, 0, 68, 0
1, 16240, Note_on_c, 0, 67, 75
1, 16255, Note_on_c, 0, 67, 0
1, 16256, Note_on_c, 0, 66, 75
1, 16271, Note_on_c, 0, 66, 0
1, 16272, Note_on_c, 0, 65, 75
1, 16272, Note_on_c, 1, 48, 65
1, 16287, Note_on_c, 1, 48, 0
1, 16288, Note_on_c, 1, 53, 65
1, 16303, Note_on_c, 1, 53, 0
1, 16304, Note_on_c, 1, 56, 65
1, 16319, Note_on_c, 1, 56, 0
1, 16320, Note_on_c, 1, 60, 65
1, 16335, Note_on_c, 1, 60, 0
1, 16336, Note_on_c, 1, 56, 65
1, 16351, Note_on_c, 1, 56, 0
1, 16352, Note_on_c, 1, 53, 65
1, 16361, Note_on_c, 0, 65, 0
1, 16367, Note_on_c, 1, 53, 0
1, 16368, Note_on_c, 0, 68, 75
1, 16368, Note_on_c, 1, 48, 65
1, 16374, Note_on_c, 0, 68, 0
1, 16374, Note_on_c, 0, 67, 75
1, 16383, Note_on_c, 1, 48, 0
1, 16384, Note_on_c, 1, 55, 65
1, 16391, Note_on_c, 0, 67, 0
1, 16392, Note_on_c, 0, 65, 75
1, 16399, Note_on_c, 1, 55, 0
1, 16400, Note_on_c, 1, 58, 65
1, 16415, Note_on_c, 0, 65, 0
1, 16415, Note_on_c, 1, 58, 0
1, 16416, Note_on_c, 0, 65, 75
1, 16416, Note_on_c, 1, 56, 65
1, 16416, Note_on_c, 1, 53, 65
1, 16431, Note_on_c, 0, 65, 0
1, 16432, Note_on_c, 0, 72, 75
1, 16447, Note_on_c, 0, 72, 0
1, 16448, Note_on_c, 0, 64, 75
1, 16461, Note_on_c, 1, 56, 0
1, 16461, Note_on_c, 1, 53, 0
1, 16463, Note_on_c, 0, 64, 0
1, 16464, Note_on_c, 0, 67, 75
1, 16469, Note_on_c, 0, 67, 0
1, 16469, Note_on_c, 0, 65, 75
1, 16474, Note_on_c, 0, 65, 0
1, 16474, Note_on_c, 0, 64, 75
1, 16479, Note_on_c, 0, 64, 0
1, 16479, Note_on_c, 0, 65, 75
1, 16484, Note_on_c, 0, 65, 0
1, 16484, Note_on_c, 0, 68, 75
1, 16499, Note_on_c, 0, 68, 0
1, 16499, Note_on_c, 0, 60, 75
1, 16512, Note_on_c, 0, 60, 0
1, 16512, Note_on_c, 0, 58, 75
1, 16512, Note_on_c, 1, 48, 65
1, 16527, Note_on_c, 0, 58, 0
1, 16528, Note_on_c, 0, 61, 75
1, 16543, Note_on_c, 0, 61, 0
1, 16544, Note_on_c, 0, 55, 75
1, 16557, Note_on_c, 1, 48, 0
1, 16559, Note_on_c, 0, 55, 0
1, 16560, Note_on_c, 0, 56, 75
1, 16560, Note_on_c, 1, 53, 65
1, 16575, Note_on_c, 0, 56, 0
1, 16576, Note_on_c, 0, 72, 75
1, 16591, Note_on_c, 0, 72, 0
1, 16592, Note_on_c, 0, 64, 75
1, 16605, Note_on_c, 1, 53, 0
1, 16607, Note_on_c, 0, 64, 0
1, 16608, Note_on_c, 0, 67, 75
1, 16613, Note_on_c, 0, 67, 0
1, 16613, Note_on_c, 0, 65, 75
1, 16618, Note_on_c, 0, 65, 0
1, 16618, Note_on_c, 0, 64, 75
1, 16623, Note_on_c, 0, 64, 0
1, 16623, Note_on_c, 0, 65, 75
1, 16628, Note_on_c, 0, 65, 0
1, 16628, Note_on_c, 0, 68, 75
1, 16643, Note_on_c, 0, 68, 0
1, 16643, Note_on_c, 0, 60, 75
1, 16656, Note_on_c, 0, 60, 0
1, 16656, Note_on_c, 0, 58, 75
1, 16656, Note_on_c, 1, 48, 65
1, 16671, Note_on_c, 0, 58, 0
1, 16672, Note_on_c, 0, 67, 75
1, 16687, Note_on_c, 0, 67, 0
1, 16688, Note_on_c, 0, 64, 75
1, 16701, Note_on_c, 1, 48, 0
1, 16703, Note_on_c, 0, 64, 0
1, 16704, Note_on_c, 0, 64, 75
1, 16704, Note_on_c, 1, 41, 65
1, 16719, Note_on_c, 1, 41, 0
1, 16720, Note_on_c, 1, 53, 65
1, 16735, Note_on_c, 1, 53, 0
1, 16736, Note_on_c, 1, 52, 65
1, 16749, Note_on_c, 0, 64, 0
1, 16751, Note_on_c, 1, 52, 0
1, 16752, Note_on_c, 0, 67, 75
1, 16752, Note_on_c, 1, 53, 65
1, 16758, Note_on_c, 0, 67, 0
1, 16758, Note_on_c, 0, 65, 75
1, 16764, Note_on_c, 0, 65, 0
1, 16764, Note_on_c, 0, 64, 75
1, 16767, Note_on_c, 1, 53, 0
1, 16768, Note_on_c, 1, 48, 65
1, 16770, Note_on_c, 0, 64, 0
1, 16770, Note_on_c, 0, 65, 75
1, 16783, Note_on_c, 1, 48, 0
1, 16784, Note_on_c, 1, 44, 65
1, 16799, Note_on_c, 1, 44, 0
1, 16800, Note_on_c, 1, 48, 65
1, 16815, Note_on_c, 1, 48, 0
1, 16816, Note_on_c, 1, 44, 65
1, 16831, Note_on_c, 1, 44, 0
1, 16832, Note_on_c, 1, 41, 65
1, 16841, Note_on_c, 0, 65, 0
1, 16847, Note_on_c, 1, 41, 0
1, 16848, Note_on_c, 1, 29, 65
1, 16893, Note_on_c, 1, 29, 0
1, 16992, Note_on_c, 0, 77, 65
1, 16992, Note_on_c, 1, 57, 51
1, 16998, Note_on_c, 0, 77, 0
1, 16998, Note_on_c, 0, 75, 65
1, 17004, Note_on_c, 0, 75, 0
1, 17004, Note_on_c, 0, 73, 65
1, 17007, Note_on_c, 1, 57, 0
1, 17008, Note_on_c, 1, 60, 51
1, 17010, Note_on_c, 0, 73, 0
1, 17010, Note_on_c, 0, 75, 65
1, 17023, Note_on_c, 1, 60, 0
1, 17024, Note_on_c, 1, 63, 51
1, 17039, Note_on_c, 1, 63, 0
1, 17040, Note_on_c, 1, 66, 51
1, 17055, Note_on_c, 1, 66, 0
1, 17056, Note_on_c, 1, 63, 51
1, 17059, Note_on_c, 0, 75, 0
1, 17064, Note_on_c, 0, 77, 65
1, 17071, Note_on_c, 1, 63, 0
1, 17072, Note_on_c, 1, 60, 51
1, 17087, Note_on_c, 0, 77, 0
1, 17087, Note_on_c, 1, 60, 0
1, 17088, Note_on_c, 0, 75, 65
1, 17088, Note_on_c, 1, 57, 51
1, 17103, Note_on_c, 1, 57, 0
1, 17104, Note_on_c, 1, 60, 51
1, 17119, Note_on_c, 1, 60, 0
1, 17120, Note_on_c, 1, 63, 51
1, 17133, Note_on_c, 0, 75, 0
1, 17135, Note_on_c, 1, 63, 0
1, 17136, Note_on_c, 0, 84, 65
1, 17136, Note_on_c, 1, 57, 51
1, 17148, Note_on_c, 0, 84, 0
1, 17148, Note_on_c, 0, 85, 65
1, 17151, Note_on_c, 1, 57, 0
1, 17152, Note_on_c, 1, 60, 51
1, 17160, Note_on_c, 0, 85, 0
1, 17160, Note_on_c, 0, 87, 65
1, 17167, Note_on_c, 1, 60, 0
1, 17168, Note_on_c, 1, 63, 51
1, 17183, Note_on_c, 0, 87, 0
1, 17183, Note_on_c, 1, 63, 0
1, 17184, Note_on_c, 1, 66, 51
1, 17199, Note_on_c, 1, 66, 0
1, 17200, Note_on_c, 1, 63, 51
1, 17215, Note_on_c, 1, 63, 0
1, 17216, Note_on_c, 1, 60, 51
1, 17231, Note_on_c, 1, 60, 0
1, 17232, Note_on_c, 1, 57, 51
1, 17247, Note_on_c, 1, 57, 0
1, 17248, Note_on_c, 1, 60, 51
1, 17263, Note_on_c, 1, 60, 0
1, 17264, Note_on_c, 1, 63, 51
1, 17279, Note_on_c, 1, 63, 0
1, 17280, Note_on_c, 1, 61, 51
1, 17280, Note_on_c, 1, 58, 51
1, 17296, Note_on_c, 0, 82, 65
1, 17311, Note_on_c, 0, 82, 0
1, 17312, Note_on_c, 0, 85, 65
1, 17327, Note_on_c, 0, 85, 0
1, 17328, Note_on_c, 0, 77, 66
1, 17343, Note_on_c, 0, 77, 0
1, 17344, Note_on_c, 0, 82, 67
1, 17359, Note_on_c, 0, 82, 0
1, 17360, Note_on_c, 0, 73, 67
1, 17369, Note_on_c, 1, 61, 0
1, 17369, Note_on_c, 1, 58, 0
1, 17375, Note_on_c, 0, 73, 0
1, 17376, Note_on_c, 0, 77, 68
1, 17391, Note_on_c, 0, 77, 0
1, 17392, Note_on_c, 0, 70, 69
1, 17407, Note_on_c, 0, 70, 0
1, 17408, Note_on_c, 0, 73, 69
1, 17423, Note_on_c, 0, 73, 0
1, 17424, Note_on_c, 0, 65, 70
1, 17439, Note_on_c, 0, 65, 0
1, 17440, Note_on_c, 0, 70, 71
1, 17455, Note_on_c, 0, 70, 0
1, 17456, Note_on_c, 0, 61, 71
1, 17456, Note_on_c, 1, 49, 51
1, 17471, Note_on_c, 0, 61, 0
1, 17471, Note_on_c, 1, 49, 0
1, 17472, Note_on_c, 0, 65, 75
1, 17472, Note_on_c, 1, 53, 75
1, 17487, Note_on_c, 0, 65, 0
1, 17487, Note_on_c, 1, 53, 0
1, 17488, Note_on_c, 0, 61, 75
1, 17488, Note_on_c, 1, 49, 75
1, 17503, Note_on_c, 0, 61, 0
1, 17503, Note_on_c, 1, 49, 0
1, 17504, Note_on_c, 0, 58, 75
1, 17504, Note_on_c, 1, 46, 75
1, 17519, Note_on_c, 0, 58, 0
1, 17519, Note_on_c, 1, 46, 0
1, 17520, Note_on_c, 0, 65, 75
1, 17520, Note_on_c, 1, 53, 75
1, 17535, Note_on_c, 0, 65, 0
1, 17535, Note_on_c, 1, 53, 0
1, 17536, Note_on_c, 0, 61, 75
1, 17536, Note_on_c, 1, 49, 75
1, 17551, Note_on_c, 0, 61, 0
1, 17551, Note_on_c, 1, 49, 0
1, 17552, Note_on_c, 0, 58, 75
1, 17552, Note_on_c, 1, 46, 75
1, 17567, Note_on_c, 0, 58, 0
1, 17567, Note_on_c, 1, 46, 0
1, 17568, Note_on_c, 0, 55, 75
1, 17568, Note_on_c, 1, 43, 75
1, 17583, Note_on_c, 0, 55, 0
1, 17583, Note_on_c, 1, 43, 0
1, 17584, Note_on_c, 0, 59, 75
1, 17584, Note_on_c, 1, 47, 75
1, 17599, Note_on_c, 0, 59, 0
1, 17599, Note_on_c, 1, 47, 0
1, 17600, Note_on_c, 0, 62, 75
1, 17600, Note_on_c, 1, 50, 75
1, 17615, Note_on_c, 0, 62, 0
1, 17615, Note_on_c, 1, 50, 0
1, 17616, Note_on_c, 0, 65, 75
1, 17616, Note_on_c, 1, 53, 75
1, 17631, Note_on_c, 0, 65, 0
1, 17631, Note_on_c, 1, 53, 0
1, 17632, Note_on_c, 0, 68, 75
1, 17632, Note_on_c, 1, 56, 75
1, 17647, Note_on_c, 0, 68, 0
1, 17647, Note_on_c, 1, 56, 0
1, 17648, Note_on_c, 0, 71, 75
1, 17648, Note_on_c, 1, 59, 75
1, 17663, Note_on_c, 0, 71, 0
1, 17663, Note_on_c, 1, 59, 0
1, 17664, Note_on_c, 0, 74, 75
1, 17664, Note_on_c, 1, 62, 75
1, 17679, Note_on_c, 0, 74, 0
1, 17679, Note_on_c, 1, 62, 0
1, 17680, Note_on_c, 0, 77, 75
1, 17680, Note_on_c, 1, 65, 75
1, 17695, Note_on_c, 0, 77, 0
1, 17695, Note_on_c, 1, 65, 0
1, 17696, Note_on_c, 0, 80, 75
1, 17696, Note_on_c, 1, 68, 75
1, 17711, Note_on_c, 0, 80, 0
1, 17711, Note_on_c, 1, 68, 0
1, 17712, Note_on_c, 0, 79, 75
1, 17712, Note_on_c, 1, 68, 75
1, 17718, Note_on_c, 0, 79, 0
1, 17718, Note_on_c, 0, 80, 75
1, 17724, Note_on_c, 0, 80, 0
1, 17724, Note_on_c, 0, 82, 75
1, 17730, Note_on_c, 0, 82, 0
1, 17730, Note_on_c, 0, 80, 75
1, 17801, Note_on_c, 1, 68, 0
1, 17808, Note_on_c, 1, 59, 75
1, 17823, Note_on_c, 0, 80, 0
1, 17824, Note_on_c, 0, 79, 65
1, 17839, Note_on_c, 0, 79, 0
1, 17840, Note_on_c, 0, 77, 65
1, 17853, Note_on_c, 1, 59, 0
1, 17855, Note_on_c, 0, 77, 0
1, 17856, Note_on_c, 0, 77, 65
1, 17856, Note_on_c, 1, 60, 51
1, 17871, Note_on_c, 0, 77, 0
1, 17871, Note_on_c, 1, 60, 0
1, 17872, Note_on_c, 0, 75, 65
1, 17872, Note_on_c, 1, 63, 51
1, 17887, Note_on_c, 0, 75, 0
1, 17887, Note_on_c, 1, 63, 0
1, 17888, Note_on_c, 0, 74, 65
1, 17888, Note_on_c, 1, 67, 51
1, 17903, Note_on_c, 0, 74, 0
1, 17903, Note_on_c, 1, 67, 0
1, 17904, Note_on_c, 0, 72, 65
1, 17904, Note_on_c, 1, 72, 51
1, 17920, Note_on_c, 1, 72, 0
1, 17920, Note_on_c, 1, 67, 51
1, 17924, Note_on_c, 0, 72, 0
1, 17935, Note_on_c, 1, 67, 0
1, 17936, Note_on_c, 1, 63, 51
1, 17951, Note_on_c, 1, 63, 0
1, 17952, Note_on_c, 1, 60, 51
1, 17967, Note_on_c, 1, 60, 0
1, 17968, Note_on_c, 0, 84, 65
1, 17968, Note_on_c, 1, 63, 51
1, 17983, Note_on_c, 0, 84, 0
1, 17983, Note_on_c, 1, 63, 0
1, 17984, Note_on_c, 0, 79, 65
1, 17984, Note_on_c, 1, 67, 51
1, 17999, Note_on_c, 0, 79, 0
1, 17999, Note_on_c, 1, 67, 0
1, 18000, Note_on_c, 0, 79, 65
1, 18000, Note_on_c, 1, 62, 51
1, 18015, Note_on_c, 0, 79, 0
1, 18015, Note_on_c, 1, 62, 0
1, 18016, Note_on_c, 0, 77, 65
1, 18016, Note_on_c, 1, 65, 51
1, 18031, Note_on_c, 0, 77, 0
1, 18031, Note_on_c, 1, 65, 0
1, 18032, Note_on_c, 0, 75, 65
1, 18032, Note_on_c, 1, 67, 51
1, 18047, Note_on_c, 0, 75, 0
1, 18047, Note_on_c, 1, 67, 0
1, 18048, Note_on_c, 0, 74, 65
1, 18048, Note_on_c, 1, 71, 51
1, 18063, Note_on_c, 1, 71, 0
1, 18064, Note_on_c, 1, 67, 51
1, 18068, Note_on_c, 0, 74, 0
1, 18079, Note_on_c, 1, 67, 0
1, 18080, Note_on_c, 1, 65, 51
1, 18095, Note_on_c, 1, 65, 0
1, 18096, Note_on_c, 1, 62, 51
1, 18111, Note_on_c, 1, 62, 0
1, 18112, Note_on_c, 0, 86, 65
1, 18112, Note_on_c, 1, 65, 51
1, 18127, Note_on_c, 0, 86, 0
1, 18127, Note_on_c, 1, 65, 0
1, 18128, Note_on_c, 0, 77, 65
1, 18128, Note_on_c, 1, 67, 51
1, 18143, Note_on_c, 0, 77, 0
1, 18143, Note_on_c, 1, 67, 0
1, 18144, Note_on_c, 0, 77, 65
1, 18144, Note_on_c, 1, 60, 51
1, 18159, Note_on_c, 0, 77, 0
1, 18159, Note_on_c, 1, 60, 0
1, 18160, Note_on_c, 0, 75, 65
1, 18160, Note_on_c, 1, 63, 51
1, 18175, Note_on_c, 0, 75, 0
1, 18175, Note_on_c, 1, 63, 0
1, 18176, Note_on_c, 0, 74, 65
1, 18176, Note_on_c, 1, 67, 51
1, 18191, Note_on_c, 0, 74, 0
1, 18191, Note_on_c, 1, 67, 0
1, 18192, Note_on_c, 0, 72, 65
1, 18192, Note_on_c, 1, 72, 51
1, 18208, Note_on_c, 1, 72, 0
1, 18208, Note_on_c, 1, 67, 51
1, 18212, Note_on_c, 0, 72, 0
1, 18223, Note_on_c, 1, 67, 0
1, 18224, Note_on_c, 1, 63, 51
1, 18239, Note_on_c, 1, 63, 0
1, 18240, Note_on_c, 1, 60, 51
1, 18255, Note_on_c, 1, 60, 0
1, 18256, Note_on_c, 0, 80, 66
1, 18256, Note_on_c, 1, 63, 51
1, 18271, Note_on_c, 0, 80, 0
1, 18271, Note_on_c, 1, 63, 0
1, 18272, Note_on_c, 0, 75, 67
1, 18272, Note_on_c, 1, 68, 52
1, 18287, Note_on_c, 0, 75, 0
1, 18287, Note_on_c, 1, 68, 0
1, 18288, Note_on_c, 0, 75, 68
1, 18288, Note_on_c, 1, 58, 53
1, 18303, Note_on_c, 0, 75, 0
1, 18303, Note_on_c, 1, 58, 0
1, 18304, Note_on_c, 0, 73, 70
1, 18304, Note_on_c, 1, 61, 54
1, 18319, Note_on_c, 0, 73, 0
1, 18319, Note_on_c, 1, 61, 0
1, 18320, Note_on_c, 0, 72, 71
1, 18320, Note_on_c, 1, 63, 55
1, 18335, Note_on_c, 0, 72, 0
1, 18335, Note_on_c, 1, 63, 0
1, 18336, Note_on_c, 0, 70, 75
1, 18336, Note_on_c, 1, 67, 58
1, 18351, Note_on_c, 1, 67, 0
1, 18352, Note_on_c, 1, 63, 58
1, 18356, Note_on_c, 0, 70, 0
1, 18367, Note_on_c, 1, 63, 0
1, 18368, Note_on_c, 1, 61, 58
1, 18383, Note_on_c, 1, 61, 0
1, 18384, Note_on_c, 1, 58, 58
1, 18399, Note_on_c, 1, 58, 0
1, 18400, Note_on_c, 0, 82, 75
1, 18400, Note_on_c, 1, 61, 58
1, 18415, Note_on_c, 0, 82, 0
1, 18415, Note_on_c, 1, 61, 0
1, 18416, Note_on_c, 0, 73, 75
1, 18416, Note_on_c, 1, 63, 58
1, 18431, Note_on_c, 0, 73, 0
1, 18431, Note_on_c, 1, 63, 0
1, 18432, Note_on_c, 0, 73, 75
1, 18432, Note_on_c, 1, 56, 58
1, 18447, Note_on_c, 0, 73, 0
1, 18447, Note_on_c, 1, 56, 0
1, 18448, Note_on_c, 0, 72, 75
1, 18448, Note_on_c, 1, 60, 58
1, 18463, Note_on_c, 0, 72, 0
1, 18463, Note_on_c, 1, 60, 0
1, 18464, Note_on_c, 0, 70, 75
1, 18464, Note_on_c, 1, 63, 58
1, 18479, Note_on_c, 0, 70, 0
1, 18479, Note_on_c, 1, 63, 0
1, 18480, Note_on_c, 0, 68, 75
1, 18480, Note_on_c, 1, 68, 58
1, 18496, Note_on_c, 1, 68, 0
1, 18496, Note_on_c, 1, 63, 58
1, 18500, Note_on_c, 0, 68, 0
1, 18511, Note_on_c, 1, 63, 0
1, 18512, Note_on_c, 1, 60, 58
1, 18527, Note_on_c, 1, 60, 0
1, 18528, Note_on_c, 1, 56, 58
1, 18543, Note_on_c, 1, 56, 0
1, 18544, Note_on_c, 0, 75, 75
1, 18544, Note_on_c, 1, 60, 58
1, 18559, Note_on_c, 0, 75, 0
1, 18559, Note_on_c, 1, 60, 0
1, 18560, Note_on_c, 0, 72, 77
1, 18560, Note_on_c, 1, 63, 58
1, 18575, Note_on_c, 0, 72, 0
1, 18575, Note_on_c, 1, 63, 0
1, 18576, Note_on_c, 0, 72, 80
1, 18576, Note_on_c, 1, 55, 59
1, 18591, Note_on_c, 0, 72, 0
1, 18591, Note_on_c, 1, 55, 0
1, 18592, Note_on_c, 0, 70, 83
1, 18592, Note_on_c, 1, 58, 60
1, 18607, Note_on_c, 0, 70, 0
1, 18607, Note_on_c, 1, 58, 0
1, 18608, Note_on_c, 0, 68, 86
1, 18608, Note_on_c, 1, 60, 61
1, 18623, Note_on_c, 0, 68, 0
1, 18623, Note_on_c, 1, 60, 0
1, 18624, Note_on_c, 0, 67, 89
1, 18624, Note_on_c, 1, 64, 62
1, 18639, Note_on_c, 1, 64, 0
1, 18640, Note_on_c, 1, 60, 65
1, 18644, Note_on_c, 0, 67, 0
1, 18655, Note_on_c, 1, 60, 0
1, 18656, Note_on_c, 1, 58, 65
1, 18671, Note_on_c, 1, 58, 0
1, 18672, Note_on_c, 1, 55, 65
1, 18687, Note_on_c, 1, 55, 0
1, 18688, Note_on_c, 0, 79, 106
1, 18688, Note_on_c, 1, 58, 65
1, 18703, Note_on_c, 0, 79, 0
1, 18703, Note_on_c, 1, 58, 0
1, 18704, Note_on_c, 0, 70, 106
1, 18704, Note_on_c, 1, 60, 65
1, 18719, Note_on_c, 0, 70, 0
1, 18719, Note_on_c, 1, 60, 0
1, 18720, Note_on_c, 0, 70, 106
1, 18720, Note_on_c, 1, 53, 65
1, 18735, Note_on_c, 0, 70, 0
1, 18736, Note_on_c, 0, 68, 103
1, 18751, Note_on_c, 0, 68, 0
1, 18752, Note_on_c, 0, 67, 101
1, 18767, Note_on_c, 0, 67, 0
1, 18768, Note_on_c, 0, 65, 99
1, 18783, Note_on_c, 0, 65, 0
1, 18784, Note_on_c, 0, 72, 97
1, 18799, Note_on_c, 0, 72, 0
1, 18800, Note_on_c, 0, 71, 95
1, 18809, Note_on_c, 1, 53, 0
1, 18815, Note_on_c, 0, 71, 0
1, 18816, Note_on_c, 0, 77, 93
1, 18816, Note_on_c, 1, 49, 65
1, 18831, Note_on_c, 0, 77, 0
1, 18832, Note_on_c, 0, 71, 91
1, 18847, Note_on_c, 0, 71, 0
1, 18848, Note_on_c, 0, 80, 89
1, 18861, Note_on_c, 1, 49, 0
1, 18863, Note_on_c, 0, 80, 0
1, 18864, Note_on_c, 0, 77, 87
1, 18864, Note_on_c, 1, 48, 65
1, 18879, Note_on_c, 1, 48, 0
1, 18880, Note_on_c, 1, 52, 65
1, 18895, Note_on_c, 1, 52, 0
1, 18896, Note_on_c, 1, 55, 65
1, 18911, Note_on_c, 1, 55, 0
1, 18912, Note_on_c, 0, 77, 0
1, 18912, Note_on_c, 0, 76, 87
1, 18912, Note_on_c, 1, 60, 65
1, 18927, Note_on_c, 1, 60, 0
1, 18928, Note_on_c, 1, 64, 67
1, 18943, Note_on_c, 1, 64, 0
1, 18944, Note_on_c, 1, 67, 70
1, 18953, Note_on_c, 0, 76, 0
1, 18959, Note_on_c, 1, 67, 0
1, 18960, Note_on_c, 1, 72, 72
1, 18975, Note_on_c, 1, 72, 0
1, 18976, Note_on_c, 1, 67, 75
1, 18991, Note_on_c, 1, 67, 0
1, 18992, Note_on_c, 1, 64, 72
1, 19007, Note_on_c, 1, 64, 0
1, 19008, Note_on_c, 0, 73, 65
1, 19008, Note_on_c, 1, 70, 65
1, 19008, Note_on_c, 1, 60, 65
1, 19023, Note_on_c, 0, 73, 0
1, 19024, Note_on_c, 0, 76, 65
1, 19039, Note_on_c, 0, 76, 0
1, 19040, Note_on_c, 0, 79, 65
1, 19055, Note_on_c, 0, 79, 0
1, 19056, Note_on_c, 0, 82, 65
1, 19071, Note_on_c, 0, 82, 0
1, 19072, Note_on_c, 0, 85, 65
1, 19087, Note_on_c, 0, 85, 0
1, 19088, Note_on_c, 0, 84, 65
1, 19103, Note_on_c, 0, 84, 0
1, 19104, Note_on_c, 0, 82, 65
1, 19119, Note_on_c, 0, 82, 0
1, 19120, Note_on_c, 0, 80, 65
1, 19135, Note_on_c, 0, 80, 0
1, 19136, Note_on_c, 0, 79, 65
1, 19141, Note_on_c, 1, 70, 0
1, 19141, Note_on_c, 1, 60, 0
1, 19151, Note_on_c, 0, 79, 0
1, 19152, Note_on_c, 0, 77, 65
1, 19152, Note_on_c, 1, 68, 65
1, 19152, Note_on_c, 1, 60, 65
1, 19167, Note_on_c, 0, 77, 0
1, 19168, Note_on_c, 0, 84, 65
1, 19183, Note_on_c, 0, 84, 0
1, 19184, Note_on_c, 0, 76, 65
1, 19199, Note_on_c, 0, 76, 0
1, 19200, Note_on_c, 0, 79, 65
1, 19205, Note_on_c, 0, 79, 0
1, 19205, Note_on_c, 0, 77, 65
1, 19210, Note_on_c, 0, 77, 0
1, 19210, Note_on_c, 0, 76, 65
1, 19215, Note_on_c, 0, 76, 0
1, 19215, Note_on_c, 0, 77, 65
1, 19220, Note_on_c, 0, 77, 0
1, 19220, Note_on_c, 0, 80, 65
1, 19235, Note_on_c, 0, 80, 0
1, 19235, Note_on_c, 0, 72, 65
1, 19248, Note_on_c, 0, 72, 0
1, 19248, Note_on_c, 0, 77, 65
1, 19263, Note_on_c, 0, 77, 0
1, 19264, Note_on_c, 0, 72, 65
1, 19279, Note_on_c, 0, 72, 0
1, 19280, Note_on_c, 0, 68, 65
1, 19285, Note_on_c, 1, 68, 0
1, 19285, Note_on_c, 1, 60, 0
1, 19295, Note_on_c, 0, 68, 0
1, 19296, Note_on_c, 0, 67, 65
1, 19296, Note_on_c, 1, 64, 65
1, 19296, Note_on_c, 1, 60, 65
1, 19311, Note_on_c, 0, 67, 0
1, 19312, Note_on_c, 0, 70, 65
1, 19327, Note_on_c, 0, 70, 0
1, 19328, Note_on_c, 0, 73, 65
1, 19343, Note_on_c, 0, 73, 0
1, 19344, Note_on_c, 0, 76, 65
1, 19359, Note_on_c, 0, 76, 0
1, 19360, Note_on_c, 0, 79, 65
1, 19375, Note_on_c, 0, 79, 0
1, 19376, Note_on_c, 0, 82, 65
1, 19380, Note_on_c, 0, 82, 0
1, 19380, Note_on_c, 0, 80, 65
1, 19384, Note_on_c, 0, 80, 0
1, 19384, Note_on_c, 0, 79, 65
1, 19388, Note_on_c, 0, 79, 0
1, 19388, Note_on_c, 0, 80, 65
1, 19392, Note_on_c, 0, 80, 0
1, 19392, Note_on_c, 0, 82, 65
1, 19407, Note_on_c, 0, 82, 0
1, 19408, Note_on_c, 0, 80, 65
1, 19423, Note_on_c, 0, 80, 0
1, 19424, Note_on_c, 0, 79, 65
1, 19429, Note_on_c, 1, 64, 0
1, 19429, Note_on_c, 1, 60, 0
1, 19439, Note_on_c, 0, 79, 0
1, 19440, Note_on_c, 0, 77, 65
1, 19440, Note_on_c, 1, 65, 65
1, 19440, Note_on_c, 1, 60, 65
1, 19455, Note_on_c, 0, 77, 0
1, 19456, Note_on_c, 0, 80, 65
1, 19471, Note_on_c, 0, 80, 0
1, 19472, Note_on_c, 0, 72, 65
1, 19487, Note_on_c, 0, 72, 0
1, 19488, Note_on_c, 0, 77, 65
1, 19503, Note_on_c, 0, 77, 0
1, 19504, Note_on_c, 0, 72, 65
1, 19519, Note_on_c, 0, 72, 0
1, 19520, Note_on_c, 0, 68, 65
1, 19535, Note_on_c, 0, 68, 0
1, 19536, Note_on_c, 0, 72, 65
1, 19551, Note_on_c, 0, 72, 0
1, 19552, Note_on_c, 0, 68, 67
1, 19567, Note_on_c, 0, 68, 0
1, 19568, Note_on_c, 0, 65, 70
1, 19573, Note_on_c, 1, 65, 0
1, 19573, Note_on_c, 1, 60, 0
1, 19583, Note_on_c, 0, 65, 0
1, 19584, Note_on_c, 0, 68, 75
1, 19584, Note_on_c, 1, 48, 65
1, 19590, Note_on_c, 0, 68, 0
1, 19590, Note_on_c, 0, 66, 75
1, 19596, Note_on_c, 0, 66, 0
1, 19596, Note_on_c, 0, 68, 75
1, 19599, Note_on_c, 1, 48, 0
1, 19600, Note_on_c, 1, 51, 65
1, 19602, Note_on_c, 0, 68, 0
1, 19602, Note_on_c, 0, 66, 75
1, 19608, Note_on_c, 0, 66, 0
1, 19608, Note_on_c, 0, 68, 75
1, 19614, Note_on_c, 0, 68, 0
1, 19614, Note_on_c, 0, 66, 75
1, 19615, Note_on_c, 1, 51, 0
1, 19616, Note_on_c, 1, 56, 65
1, 19620, Note_on_c, 0, 66, 0
1, 19620, Note_on_c, 0, 68, 75
1, 19626, Note_on_c, 0, 68, 0
1, 19626, Note_on_c, 0, 66, 75
1, 19631, Note_on_c, 1, 56, 0
1, 19632, Note_on_c, 0, 66, 0
1, 19632, Note_on_c, 0, 68, 75
1, 19632, Note_on_c, 1, 60, 65
1, 19638, Note_on_c, 0, 68, 0
1, 19638, Note_on_c, 0, 66, 75
1, 19644, Note_on_c, 0, 66, 0
1, 19644, Note_on_c, 0, 68, 75
1, 19647, Note_on_c, 1, 60, 0
1, 19648, Note_on_c, 1, 56, 65
1, 19650, Note_on_c, 0, 68, 0
1, 19650, Note_on_c, 0, 66, 75
1, 19656, Note_on_c, 0, 66, 0
1, 19656, Note_on_c, 0, 68, 75
1, 19662, Note_on_c, 0, 68, 0
1, 19662, Note_on_c, 0, 66, 75
1, 19663, Note_on_c, 1, 56, 0
1, 19664, Note_on_c, 1, 51, 65
1, 19668, Note_on_c, 0, 66, 0
1, 19668, Note_on_c, 0, 68, 75
1, 19674, Note_on_c, 0, 68, 0
1, 19674, Note_on_c, 0, 66, 75
1, 19679, Note_on_c, 1, 51, 0
1, 19680, Note_on_c, 0, 66, 0
1, 19680, Note_on_c, 0, 68, 75
1, 19680, Note_on_c, 1, 48, 65
1, 19686, Note_on_c, 0, 68, 0
1, 19686, Note_on_c, 0, 66, 75
1, 19692, Note_on_c, 0, 66, 0
1, 19692, Note_on_c, 0, 68, 75
1, 19695, Note_on_c, 1, 48, 0
1, 19696, Note_on_c, 1, 51, 65
1, 19698, Note_on_c, 0, 68, 0
1, 19698, Note_on_c, 0, 66, 75
1, 19704, Note_on_c, 0, 66, 0
1, 19704, Note_on_c, 0, 68, 75
1, 19710, Note_on_c, 0, 68, 0
1, 19710, Note_on_c, 0, 66, 75
1, 19711, Note_on_c, 1, 51, 0
1, 19712, Note_on_c, 1, 56, 65
1, 19716, Note_on_c, 0, 66, 0
1, 19716, Note_on_c, 0, 65, 75
1, 19722, Note_on_c, 0, 65, 0
1, 19722, Note_on_c, 0, 66, 75
1, 19727, Note_on_c, 1, 56, 0
1, 19728, Note_on_c, 0, 66, 0
1, 19728, Note_on_c, 0, 65, 75
1, 19728, Note_on_c, 1, 49, 65
1, 19743, Note_on_c, 1, 49, 0
1, 19744, Note_on_c, 1, 53, 65
1, 19759, Note_on_c, 1, 53, 0
1, 19760, Note_on_c, 1, 56, 65
1, 19773, Note_on_c, 0, 65, 0
1, 19775, Note_on_c, 1, 56, 0
1, 19776, Note_on_c, 0, 77, 75
1, 19776, Note_on_c, 1, 61, 65
1, 19788, Note_on_c, 0, 77, 0
1, 19788, Note_on_c, 0, 79, 75
1, 19791, Note_on_c, 1, 61, 0
1, 19792, Note_on_c, 1, 56, 65
1, 19800, Note_on_c, 0, 79, 0
1, 19800, Note_on_c, 0, 80, 75
1, 19807, Note_on_c, 1, 56, 0
1, 19808, Note_on_c, 1, 53, 65
1, 19823, Note_on_c, 0, 80, 0
1, 19823, Note_on_c, 1, 53, 0
1, 19824, Note_on_c, 1, 49, 65
1, 19839, Note_on_c, 1, 49, 0
1, 19840, Note_on_c, 1, 53, 65
1, 19855, Note_on_c, 1, 53, 0
1, 19856, Note_on_c, 1, 56, 65
1, 19866, Note_on_c, 0, 64, 75
1, 19871, Note_on_c, 1, 56, 0
1, 19872, Note_on_c, 1, 47, 65
1, 19878, Note_on_c, 0, 64, 0
1, 19878, Note_on_c, 0, 65, 75
1, 19884, Note_on_c, 0, 65, 0
1, 19884, Note_on_c, 0, 67, 75
1, 19887, Note_on_c, 1, 47, 0
1, 19888, Note_on_c, 1, 50, 65
1, 19890, Note_on_c, 0, 67, 0
1, 19890, Note_on_c, 0, 65, 75
1, 19896, Note_on_c, 0, 65, 0
1, 19896, Note_on_c, 0, 67, 75
1, 19902, Note_on_c, 0, 67, 0
1, 19902, Note_on_c, 0, 65, 75
1, 19903, Note_on_c, 1, 50, 0
1, 19904, Note_on_c, 1, 53, 65
1, 19908, Note_on_c, 0, 65, 0
1, 19908, Note_on_c, 0, 67, 75
1, 19914, Note_on_c, 0, 67, 0
1, 19914, Note_on_c, 0, 65, 75
1, 19919, Note_on_c, 1, 53, 0
1, 19920, Note_on_c, 0, 65, 0
1, 19920, Note_on_c, 0, 67, 75
1, 19920, Note_on_c, 1, 56, 65
1, 19926, Note_on_c, 0, 67, 0
1, 19926, Note_on_c, 0, 65, 75
1, 19932, Note_on_c, 0, 65, 0
1, 19932, Note_on_c, 0, 67, 75
1, 19935, Note_on_c, 1, 56, 0
1, 19936, Note_on_c, 1, 53, 65
1, 19938, Note_on_c, 0, 67, 0
1, 19938, Note_on_c, 0, 65, 75
1, 19944, Note_on_c, 0, 65, 0
1, 19944, Note_on_c, 0, 67, 75
1, 19950, Note_on_c, 0, 67, 0
1, 19950, Note_on_c, 0, 65, 75
1, 19951, Note_on_c, 1, 53, 0
1, 19952, Note_on_c, 1, 50, 65
1, 19956, Note_on_c, 0, 65, 0
1, 19956, Note_on_c, 0, 67, 75
1, 19962, Note_on_c, 0, 67, 0
1, 19962, Note_on_c, 0, 65, 75
1, 19967, Note_on_c, 1, 50, 0
1, 19968, Note_on_c, 0, 65, 0
1, 19968, Note_on_c, 0, 67, 75
1, 19968, Note_on_c, 1, 47, 65
1, 19974, Note_on_c, 0, 67, 0
1, 19974, Note_on_c, 0, 65, 75
1, 19980, Note_on_c, 0, 65, 0
1, 19980, Note_on_c, 0, 67, 75
1, 19983, Note_on_c, 1, 47, 0
1, 19984, Note_on_c, 1, 50, 65
1, 19986, Note_on_c, 0, 67, 0
1, 19986, Note_on_c, 0, 65, 75
1, 19992, Note_on_c, 0, 65, 0
1, 19992, Note_on_c, 0, 67, 75
1, 19998, Note_on_c, 0, 67, 0
1, 19998, Note_on_c, 0, 65, 75
1, 19999, Note_on_c, 1, 50, 0
1, 20000, Note_on_c, 1, 53, 65
1, 20004, Note_on_c, 0, 65, 0
1, 20004, Note_on_c, 0, 64, 75
1, 20010, Note_on_c, 0, 64, 0
1, 20010, Note_on_c, 0, 65, 75
1, 20015, Note_on_c, 1, 53, 0
1, 20016, Note_on_c, 0, 65, 0
1, 20016, Note_on_c, 0, 64, 75
1, 20016, Note_on_c, 1, 48, 65
1, 20031, Note_on_c, 1, 48, 0
1, 20032, Note_on_c, 1, 52, 65
1, 20047, Note_on_c, 1, 52, 0
1, 20048, Note_on_c, 1, 55, 65
1, 20061, Note_on_c, 0, 64, 0
1, 20063, Note_on_c, 1, 55, 0
1, 20064, Note_on_c, 0, 84, 75
1, 20064, Note_on_c, 1, 60, 65
1, 20076, Note_on_c, 0, 84, 0
1, 20076, Note_on_c, 0, 86, 75
1, 20079, Note_on_c, 1, 60, 0
1, 20080, Note_on_c, 1, 55, 65
1, 20088, Note_on_c, 0, 86, 0
1, 20088, Note_on_c, 0, 88, 75
1, 20095, Note_on_c, 1, 55, 0
1, 20096, Note_on_c, 1, 52, 65
1, 20111, Note_on_c, 0, 88, 0
1, 20111, Note_on_c, 1, 52, 0
1, 20112, Note_on_c, 1, 48, 65
1, 20127, Note_on_c, 1, 48, 0
1, 20128, Note_on_c, 1, 52, 65
1, 20143, Note_on_c, 1, 52, 0
1, 20144, Note_on_c, 1, 55, 65
1, 20159, Note_on_c, 1, 55, 0
1, 20160, Note_on_c, 0, 72, 65
1, 20160, Note_on_c, 1, 52, 58
1, 20175, Note_on_c, 0, 72, 0
1, 20175, Note_on_c, 1, 52, 0
1, 20176, Note_on_c, 0, 70, 65
1, 20176, Note_on_c, 1, 55, 58
1, 20191, Note_on_c, 0, 70, 0
1, 20191, Note_on_c, 1, 55, 0
1, 20192, Note_on_c, 0, 68, 65
1, 20192, Note_on_c, 1, 58, 58
1, 20207, Note_on_c, 0, 68, 0
1, 20207, Note_on_c, 1, 58, 0
1, 20208, Note_on_c, 0, 67, 65
1, 20208, Note_on_c, 1, 60, 58
1, 20223, Note_on_c, 1, 60, 0
1, 20224, Note_on_c, 1, 58, 58
1, 20228, Note_on_c, 0, 67, 0
1, 20239, Note_on_c, 1, 58, 0
1, 20240, Note_on_c, 1, 55, 58
1, 20255, Note_on_c, 1, 55, 0
1, 20256, Note_on_c, 1, 52, 58
1, 20271, Note_on_c, 1, 52, 0
1, 20272, Note_on_c, 0, 79, 65
1, 20272, Note_on_c, 1, 55, 58
1, 20287, Note_on_c, 0, 79, 0
1, 20287, Note_on_c, 1, 55, 0
1, 20288, Note_on_c, 0, 70, 65
1, 20288, Note_on_c, 1, 58, 58
1, 20303, Note_on_c, 0, 70, 0
1, 20303, Note_on_c, 1, 58, 0
1, 20304, Note_on_c, 0, 70, 65
1, 20304, Note_on_c, 1, 53, 58
1, 20319, Note_on_c, 0, 70, 0
1, 20319, Note_on_c, 1, 53, 0
1, 20320, Note_on_c, 0, 68, 65
1, 20320, Note_on_c, 1, 56, 58
1, 20335, Note_on_c, 0, 68, 0
1, 20335, Note_on_c, 1, 56, 0
1, 20336, Note_on_c, 0, 67, 65
1, 20336, Note_on_c, 1, 60, 58
1, 20351, Note_on_c, 0, 67, 0
1, 20351, Note_on_c, 1, 60, 0
1, 20352, Note_on_c, 0, 65, 65
1, 20352, Note_on_c, 1, 65, 58
1, 20368, Note_on_c, 1, 65, 0
1, 20368, Note_on_c, 1, 60, 58
1, 20372, Note_on_c, 0, 65, 0
1, 20383, Note_on_c, 1, 60, 0
1, 20384, Note_on_c, 1, 56, 58
1, 20399, Note_on_c, 1, 56, 0
1, 20400, Note_on_c, 1, 53, 58
1, 20415, Note_on_c, 1, 53, 0
1, 20416, Note_on_c, 0, 77, 58
1, 20416, Note_on_c, 1, 56, 58
1, 20431, Note_on_c, 0, 77, 0
1, 20431, Note_on_c, 1, 56, 0
1, 20432, Note_on_c, 0, 72, 58
1, 20432, Note_on_c, 1, 60, 58
1, 20447, Note_on_c, 0, 72, 0
1, 20447, Note_on_c, 1, 60, 0
1, 20448, Note_on_c, 0, 72, 58
1, 20448, Note_on_c, 1, 55, 58
1, 20463, Note_on_c, 0, 72, 0
1, 20463, Note_on_c, 1, 55, 0
1, 20464, Note_on_c, 0, 70, 58
1, 20464, Note_on_c, 1, 58, 58
1, 20479, Note_on_c, 0, 70, 0
1, 20479, Note_on_c, 1, 58, 0
1, 20480, Note_on_c, 0, 68, 58
1, 20480, Note_on_c, 1, 60, 58
1, 20495, Note_on_c, 0, 68, 0
1, 20495, Note_on_c, 1, 60, 0
1, 20496, Note_on_c, 0, 67, 58
1, 20496, Note_on_c, 1, 64, 58
1, 20511, Note_on_c, 1, 64, 0
1, 20512, Note_on_c, 1, 60, 58
1, 20516, Note_on_c, 0, 67, 0
1, 20527, Note_on_c, 1, 60, 0
1, 20528, Note_on_c, 1, 58, 58
1, 20543, Note_on_c, 1, 58, 0
1, 20544, Note_on_c, 1, 55, 58
1, 20559, Note_on_c, 1, 55, 0
1, 20560, Note_on_c, 0, 79, 58
1, 20560, Note_on_c, 1, 58, 58
1, 20575, Note_on_c, 0, 79, 0
1, 20575, Note_on_c, 1, 58, 0
1, 20576, Note_on_c, 0, 70, 58
1, 20576, Note_on_c, 1, 60, 58
1, 20591, Note_on_c, 0, 70, 0
1, 20591, Note_on_c, 1, 60, 0
1, 20592, Note_on_c, 1, 53, 65
1, 20608, Note_on_c, 0, 80, 75
1, 20623, Note_on_c, 0, 80, 0
1, 20624, Note_on_c, 0, 84, 75
1, 20639, Note_on_c, 0, 84, 0
1, 20640, Note_on_c, 0, 77, 75
1, 20655, Note_on_c, 0, 77, 0
1, 20656, Note_on_c, 0, 80, 75
1, 20671, Note_on_c, 0, 80, 0
1, 20672, Note_on_c, 0, 72, 75
1, 20681, Note_on_c, 1, 53, 0
1, 20687, Note_on_c, 0, 72, 0
1, 20688, Note_on_c, 0, 77, 75
1, 20703, Note_on_c, 0, 77, 0
1, 20704, Note_on_c, 0, 68, 75
1, 20719, Note_on_c, 0, 68, 0
1, 20720, Note_on_c, 0, 72, 75
1, 20735, Note_on_c, 0, 72, 0
1, 20736, Note_on_c, 1, 47, 65
1, 20736, Note_on_c, 1, 35, 65
1, 20752, Note_on_c, 0, 83, 75
1, 20767, Note_on_c, 0, 83, 0
1, 20768, Note_on_c, 0, 86, 75
1, 20783, Note_on_c, 0, 86, 0
1, 20784, Note_on_c, 0, 80, 75
1, 20799, Note_on_c, 0, 80, 0
1, 20800, Note_on_c, 0, 83, 75
1, 20815, Note_on_c, 0, 83, 0
1, 20816, Note_on_c, 0, 77, 75
1, 20825, Note_on_c, 1, 47, 0
1, 20825, Note_on_c, 1, 35, 0
1, 20831, Note_on_c, 0, 77, 0
1, 20832, Note_on_c, 0, 80, 75
1, 20847, Note_on_c, 0, 80, 0
1, 20848, Note_on_c, 0, 74, 75
1, 20863, Note_on_c, 0, 74, 0
1, 20864, Note_on_c, 0, 77, 75
1, 20879, Note_on_c, 0, 77, 0
1, 20880, Note_on_c, 1, 48, 65
1, 20880, Note_on_c, 1, 36, 65
1, 20896, Note_on_c, 0, 80, 75
1, 20911, Note_on_c, 0, 80, 0
1, 20912, Note_on_c, 0, 84, 75
1, 20927, Note_on_c, 0, 84, 0
1, 20928, Note_on_c, 0, 76, 75
1, 20943, Note_on_c, 0, 76, 0
1, 20944, Note_on_c, 0, 77, 75
1, 20959, Note_on_c, 0, 77, 0
1, 20960, Note_on_c, 0, 80, 75
1, 20975, Note_on_c, 0, 80, 0
1, 20976, Note_on_c, 0, 72, 75
1, 20991, Note_on_c, 0, 72, 0
1, 20992, Note_on_c, 0, 71, 75
1, 21007, Note_on_c, 0, 71, 0
1, 21008, Note_on_c, 0, 79, 75
1, 21023, Note_on_c, 0, 79, 0
1, 21024, Note_on_c, 0, 70, 75
1, 21039, Note_on_c, 0, 70, 0
1, 21040, Note_on_c, 0, 69, 75
1, 21055, Note_on_c, 0, 69, 0
1, 21056, Note_on_c, 0, 77, 75
1, 21071, Note_on_c, 0, 77, 0
1, 21072, Note_on_c, 0, 68, 75
1, 21087, Note_on_c, 0, 68, 0
1, 21088, Note_on_c, 0, 67, 75
1, 21103, Note_on_c, 0, 67, 0
1, 21104, Note_on_c, 0, 76, 75
1, 21119, Note_on_c, 0, 76, 0
1, 21120, Note_on_c, 0, 67, 75
1, 21135, Note_on_c, 0, 67, 0
1, 21136, Note_on_c, 0, 65, 75
1, 21151, Note_on_c, 0, 65, 0
1, 21152, Note_on_c, 0, 74, 75
1, 21157, Note_on_c, 1, 48, 0
1, 21157, Note_on_c, 1, 36, 0
1, 21167, Note_on_c, 0, 74, 0
1, 21168, Note_on_c, 0, 65, 65
1, 21168, Note_on_c, 1, 58, 65
1, 21168, Note_on_c, 1, 48, 64
1, 21183, Note_on_c, 0, 65, 0
1, 21184, Note_on_c, 0, 64, 64
1, 21199, Note_on_c, 0, 64, 0
1, 21200, Note_on_c, 0, 72, 63
1, 21213, Note_on_c, 1, 58, 0
1, 21215, Note_on_c, 0, 72, 0
1, 21216, Note_on_c, 0, 67, 63
1, 21216, Note_on_c, 1, 56, 62
1, 21231, Note_on_c, 0, 67, 0
1, 21232, Note_on_c, 0, 65, 62
1, 21247, Note_on_c, 0, 65, 0
1, 21248, Note_on_c, 0, 72, 62
1, 21261, Note_on_c, 1, 56, 0
1, 21263, Note_on_c, 0, 72, 0
1, 21264, Note_on_c, 0, 68, 61
1, 21264, Note_on_c, 1, 52, 60
1, 21279, Note_on_c, 0, 68, 0
1, 21280, Note_on_c, 0, 67, 60
1, 21295, Note_on_c, 0, 67, 0
1, 21296, Note_on_c, 0, 70, 60
1, 21301, Note_on_c, 1, 48, 0
1, 21309, Note_on_c, 1, 52, 0
1, 21311, Note_on_c, 0, 70, 0
1, 21312, Note_on_c, 0, 68, 75
1, 21328, Note_on_c, 1, 49, 75
1, 21343, Note_on_c, 1, 49, 0
1, 21344, Note_on_c, 1, 53, 75
1, 21357, Note_on_c, 0, 68, 0
1, 21359, Note_on_c, 1, 53, 0
1, 21360, Note_on_c, 1, 56, 75
1, 21375, Note_on_c, 1, 56, 0
1, 21376, Note_on_c, 1, 61, 75
1, 21391, Note_on_c, 1, 61, 0
1, 21392, Note_on_c, 0, 65, 75
1, 21407, Note_on_c, 0, 65, 0
1, 21408, Note_on_c, 0, 68, 75
1, 21423, Note_on_c, 0, 68, 0
1, 21424, Note_on_c, 0, 73, 75
1, 21439, Note_on_c, 0, 73, 0
1, 21440, Note_on_c, 0, 77, 75
1, 21455, Note_on_c, 0, 77, 0
1, 21456, Note_on_c, 1, 35, 75
1, 21471, Note_on_c, 1, 35, 0
1, 21472, Note_on_c, 1, 47, 75
1, 21487, Note_on_c, 1, 47, 0
1, 21488, Note_on_c, 0, 62, 75
1, 21503, Note_on_c, 0, 62, 0
1, 21504, Note_on_c, 0, 65, 75
1, 21519, Note_on_c, 0, 65, 0
1, 21520, Note_on_c, 0, 68, 75
1, 21535, Note_on_c, 0, 68, 0
1, 21536, Note_on_c, 0, 71, 75
1, 21551, Note_on_c, 0, 71, 0
1, 21552, Note_on_c, 0, 74, 75
1, 21567, Note_on_c, 0, 74, 0
1, 21568, Note_on_c, 0, 77, 75
1, 21583, Note_on_c, 0, 77, 0
1, 21584, Note_on_c, 0, 80, 75
1, 21599, Note_on_c, 0, 80, 0
1, 21600, Note_on_c, 1, 36, 75
1, 21616, Note_on_c, 0, 84, 75
1, 21631, Note_on_c, 0, 84, 0
1, 21632, Note_on_c, 0, 72, 75
1, 21645, Note_on_c, 1, 36, 0
1, 21647, Note_on_c, 0, 72, 0
1, 21648, Note_on_c, 0, 71, 75
1, 21663, Note_on_c, 0, 71, 0
1, 21664, Note_on_c, 0, 70, 75
1, 21679, Note_on_c, 0, 70, 0
1, 21680, Note_on_c, 0, 69, 75
1, 21695, Note_on_c, 0, 69, 0
1, 21696, Note_on_c, 0, 68, 75
1, 21711, Note_on_c, 0, 68, 0
1, 21712, Note_on_c, 0, 67, 75
1, 21727, Note_on_c, 0, 67, 0
1, 21728, Note_on_c, 0, 66, 75
1, 21743, Note_on_c, 0, 66, 0
1, 21744, Note_on_c, 0, 65, 75
1, 21744, Note_on_c, 1, 48, 65
1, 21759, Note_on_c, 1, 48, 0
1, 21760, Note_on_c, 1, 53, 65
1, 21775, Note_on_c, 1, 53, 0
1, 21776, Note_on_c, 1, 56, 65
1, 21791, Note_on_c, 1, 56, 0
1, 21792, Note_on_c, 1, 60, 65
1, 21807, Note_on_c, 1, 60, 0
1, 21808, Note_on_c, 1, 56, 65
1, 21823, Note_on_c, 1, 56, 0
1, 21824, Note_on_c, 1, 53, 65
1, 21833, Note_on_c, 0, 65, 0
1, 21839, Note_on_c, 1, 53, 0
1, 21840, Note_on_c, 0, 68, 75
1, 21840, Note_on_c, 1, 48, 65
1, 21846, Note_on_c, 0, 68, 0
1, 21846, Note_on_c, 0, 67, 75
1, 21855, Note_on_c, 1, 48, 0
1, 21856, Note_on_c, 1, 55, 65
1, 21863, Note_on_c, 0, 67, 0
1, 21864, Note_on_c, 0, 65, 75
1, 21871, Note_on_c, 1, 55, 0
1, 21872, Note_on_c, 1, 58, 65
1, 21887, Note_on_c, 0, 65, 0
1, 21887, Note_on_c, 1, 58, 0
1, 21888, Note_on_c, 0, 65, 75
1, 21888, Note_on_c, 1, 56, 65
1, 21888, Note_on_c, 1, 53, 65
1, 21903, Note_on_c, 0, 65, 0
1, 21904, Note_on_c, 0, 72, 75
1, 21919, Note_on_c, 0, 72, 0
1, 21920, Note_on_c, 0, 64, 75
1, 21933, Note_on_c, 1, 56, 0
1, 21933, Note_on_c, 1, 53, 0
1, 21935, Note_on_c, 0, 64, 0
1, 21936, Note_on_c, 0, 67, 75
1, 21941, Note_on_c, 0, 67, 0
1, 21941, Note_on_c, 0, 65, 75
1, 21946, Note_on_c, 0, 65, 0
1, 21946, Note_on_c, 0, 64, 75
1, 21951, Note_on_c, 0, 64, 0
1, 21951, Note_on_c, 0, 65, 75
1, 21956, Note_on_c, 0, 65, 0
1, 21956, Note_on_c, 0, 68, 75
1, 21971, Note_on_c, 0, 68, 0
1, 21971, Note_on_c, 0, 60, 75
1, 21984, Note_on_c, 0, 60, 0
1, 21984, Note_on_c, 0, 58, 75
1, 21984, Note_on_c, 1, 48, 65
1, 21999, Note_on_c, 0, 58, 0
1, 22000, Note_on_c, 0, 61, 75
1, 22015, Note_on_c, 0, 61, 0
1, 22016, Note_on_c, 0, 55, 75
1, 22029, Note_on_c, 1, 48, 0
1, 22031, Note_on_c, 0, 55, 0
1, 22032, Note_on_c, 0, 56, 75
1, 22032, Note_on_c, 1, 53, 65
1, 22047, Note_on_c, 0, 56, 0
1, 22048, Note_on_c, 0, 72, 75
1, 22063, Note_on_c, 0, 72, 0
1, 22064, Note_on_c, 0, 64, 75
1, 22077, Note_on_c, 1, 53, 0
1, 22079, Note_on_c, 0, 64, 0
1, 22080, Note_on_c, 0, 67, 75
1, 22085, Note_on_c, 0, 67, 0
1, 22085, Note_on_c, 0, 65, 75
1, 22090, Note_on_c, 0, 65, 0
1, 22090, Note_on_c, 0, 64, 75
1, 22095, Note_on_c, 0, 64, 0
1, 22095, Note_on_c, 0, 65, 75
1, 22100, Note_on_c, 0, 65, 0
1, 22100, Note_on_c, 0, 68, 75
1, 22115, Note_on_c, 0, 68, 0
1, 22115, Note_on_c, 0, 60, 75
1, 22128, Note_on_c, 0, 60, 0
1, 22128, Note_on_c, 0, 58, 75
1, 22128, Note_on_c, 1, 48, 65
1, 22143, Note_on_c, 0, 58, 0
1, 22144, Note_on_c, 0, 67, 75
1, 22159, Note_on_c, 0, 67, 0
1, 22160, Note_on_c, 0, 64, 75
1, 22173, Note_on_c, 1, 48, 0
1, 22175, Note_on_c, 0, 64, 0
1, 22176, Note_on_c, 0, 64, 75
1, 22176, Note_on_c, 1, 41, 65
1, 22191, Note_on_c, 1, 41, 0
1, 22192, Note_on_c, 1, 53, 65
1, 22207, Note_on_c, 1, 53, 0
1, 22208, Note_on_c, 1, 52, 65
1, 22221, Note_on_c, 0, 64, 0
1, 22223, Note_on_c, 1, 52, 0
1, 22224, Note_on_c, 0, 67, 75
1, 22224, Note_on_c, 1, 53, 65
1, 22230, Note_on_c, 0, 67, 0
1, 22230, Note_on_c, 0, 65, 75
1, 22236, Note_on_c, 0, 65, 0
1, 22236, Note_on_c, 0, 64, 75
1, 22239, Note_on_c, 1, 53, 0
1, 22240, Note_on_c, 1, 48, 65
1, 22242, Note_on_c, 0, 64, 0
1, 22242, Note_on_c, 0, 65, 75
1, 22255, Note_on_c, 1, 48, 0
1, 22256, Note_on_c, 1, 44, 65
1, 22271, Note_on_c, 1, 44, 0
1, 22272, Note_on_c, 1, 48, 65
1, 22287, Note_on_c, 1, 48, 0
1, 22288, Note_on_c, 1, 44, 65
1, 22303, Note_on_c, 1, 44, 0
1, 22304, Note_on_c, 1, 41, 65
1, 22313, Note_on_c, 0, 65, 0
1, 22319, Note_on_c, 1, 41, 0
1, 22320, Note_on_c, 1, 29, 65
1, 22365, Note_on_c, 1, 29, 0
1, 22464, Note_on_c, 1, 29, 0
1, 22509, Note_on_c, 1, 29, 0
1, 22519, End_track
0, 0, End_of_file