0, 0, Header, 0, 1, 96
1, 0, Start_track
1, 0, Tempo, 200000
1, 144, Note_on_c, 0, 65, 64
1, 164, Note_on_c, 0, 65, 0
1, 192, Note_on_c, 0, 70, 80
1, 240, Note_on_c, 1, 58, 64
1, 285, Note_on_c, 1, 58, 0
1, 288, Note_on_c, 1, 63, 64
1, 311, Note_on_c, 1, 63, 0
1, 312, Note_on_c, 1, 62, 64
1, 335, Note_on_c, 1, 62, 0
1, 336, Note_on_c, 1, 60, 64
1, 359, Note_on_c, 1, 60, 0
1, 360, Note_on_c, 1, 58, 64
1, 383, Note_on_c, 1, 58, 0
1, 384, Note_on_c, 1, 65, 64
1, 429, Note_on_c, 0, 70, 0
1, 432, Note_on_c, 0, 69, 64
1, 452, Note_on_c, 0, 69, 0
1, 473, Note_on_c, 1, 65, 0
1, 480, Note_on_c, 0, 72, 64
1, 500, Note_on_c, 0, 72, 0
1, 528, Note_on_c, 0, 65, 64
1, 548, Note_on_c, 0, 65, 0
1, 576, Note_on_c, 0, 74, 80
1, 576, Note_on_c, 0, 70, 80
1, 600, Note_on_c, 1, 58, 75
1, 623, Note_on_c, 1, 58, 0
1, 624, Note_on_c, 1, 60, 76
1, 647, Note_on_c, 1, 60, 0
1, 648, Note_on_c, 1, 62, 78
1, 671, Note_on_c, 1, 62, 0
1, 672, Note_on_c, 1, 60, 80
1, 695, Note_on_c, 1, 60, 0
1, 696, Note_on_c, 1, 58, 78
1, 719, Note_on_c, 1, 58, 0
1, 720, Note_on_c, 1, 57, 77
1, 743, Note_on_c, 1, 57, 0
1, 744, Note_on_c, 1, 55, 76
1, 767, Note_on_c, 1, 55, 0
1, 768, Note_on_c, 1, 53, 75
1, 813, Note_on_c, 0, 74, 0
1, 813, Note_on_c, 0, 70, 0
1, 816, Note_on_c, 0, 72, 64
1, 816, Note_on_c, 0, 69, 64
1, 836, Note_on_c, 0, 72, 0
1, 836, Note_on_c, 0, 69, 0
1, 857, Note_on_c, 1, 53, 0
1, 864, Note_on_c, 0, 75, 64
1, 864, Note_on_c, 0, 72, 64
1, 884, Note_on_c, 0, 75, 0
1, 884, Note_on_c, 0, 72, 0
1, 912, Note_on_c, 0, 65, 64
1, 932, Note_on_c, 0, 65, 0
1, 960, Note_on_c, 0, 77, 75
1, 960, Note_on_c, 0, 74, 64
1, 984, Note_on_c, 1, 68, 75
1, 1007, Note_on_c, 1, 68, 0
1, 1008, Note_on_c, 1, 67, 75
1, 1031, Note_on_c, 1, 67, 0
1, 1032, Note_on_c, 1, 65, 75
1, 1055, Note_on_c, 1, 65, 0
1, 1056, Note_on_c, 1, 63, 75
1, 1079, Note_on_c, 1, 63, 0
1, 1080, Note_on_c, 1, 62, 75
1, 1093, Note_on_c, 0, 77, 0
1, 1103, Note_on_c, 1, 62, 0
1, 1104, Note_on_c, 0, 79, 76
1, 1104, Note_on_c, 1, 60, 75
1, 1127, Note_on_c, 1, 60, 0
1, 1128, Note_on_c, 1, 59, 75
1, 1149, Note_on_c, 0, 79, 0
1, 1151, Note_on_c, 1, 59, 0
1, 1152, Note_on_c, 0, 77, 77
1, 1152, Note_on_c, 1, 60, 75
1, 1197, Note_on_c, 0, 77, 0
1, 1197, Note_on_c, 0, 74, 0
1, 1200, Note_on_c, 0, 76, 78
1, 1200, Note_on_c, 0, 67, 64
1, 1241, Note_on_c, 1, 60, 0
1, 1245, Note_on_c, 0, 76, 0
1, 1245, Note_on_c, 0, 67, 0
1, 1248, Note_on_c, 0, 75, 78
1, 1248, Note_on_c, 0, 72, 64
1, 1248, Note_on_c, 1, 57, 75
1, 1293, Note_on_c, 0, 75, 0
1, 1293, Note_on_c, 0, 72, 0
1, 1293, Note_on_c, 1, 57, 0
1, 1296, Note_on_c, 0, 74, 79
1, 1296, Note_on_c, 0, 65, 64
1, 1296, Note_on_c, 1, 58, 75
1, 1341, Note_on_c, 0, 65, 0
1, 1341, Note_on_c, 1, 58, 0
1, 1344, Note_on_c, 0, 67, 64
1, 1344, Note_on_c, 1, 51, 75
1, 1389, Note_on_c, 0, 74, 0
1, 1392, Note_on_c, 0, 72, 80
1, 1437, Note_on_c, 0, 72, 0
1, 1440, Note_on_c, 0, 77, 80
1, 1463, Note_on_c, 0, 77, 0
1, 1464, Note_on_c, 0, 75, 79
1, 1477, Note_on_c, 0, 67, 0
1, 1487, Note_on_c, 0, 75, 0
1, 1488, Note_on_c, 0, 74, 79
1, 1488, Note_on_c, 0, 63, 64
1, 1511, Note_on_c, 0, 74, 0
1, 1512, Note_on_c, 0, 72, 78
1, 1521, Note_on_c, 1, 51, 0
1, 1533, Note_on_c, 0, 63, 0
1, 1535, Note_on_c, 0, 72, 0
1, 1536, Note_on_c, 0, 70, 78
1, 1536, Note_on_c, 1, 62, 75
1, 1536, Note_on_c, 1, 53, 75
1, 1632, Note_on_c, 0, 70, 0
1, 1632, Note_on_c, 0, 69, 76
1, 1632, Note_on_c, 1, 62, 0
1, 1632, Note_on_c, 1, 60, 75
1, 1677, Note_on_c, 0, 69, 0
1, 1677, Note_on_c, 1, 60, 0
1, 1677, Note_on_c, 1, 53, 0
1, 1680, Note_on_c, 0, 65, 64
1, 1700, Note_on_c, 0, 65, 0
1, 1728, Note_on_c, 0, 70, 80
1, 1776, Note_on_c, 1, 58, 64
1, 1821, Note_on_c, 1, 58, 0
1, 1824, Note_on_c, 1, 63, 64
1, 1847, Note_on_c, 1, 63, 0
1, 1848, Note_on_c, 1, 62, 64
1, 1871, Note_on_c, 1, 62, 0
1, 1872, Note_on_c, 1, 60, 64
1, 1895, Note_on_c, 1, 60, 0
1, 1896, Note_on_c, 1, 58, 64
1, 1919, Note_on_c, 1, 58, 0
1, 1920, Note_on_c, 1, 65, 64
1, 1965, Note_on_c, 0, 70, 0
1, 1968, Note_on_c, 0, 69, 64
1, 1988, Note_on_c, 0, 69, 0
1, 2009, Note_on_c, 1, 65, 0
1, 2016, Note_on_c, 0, 72, 64
1, 2036, Note_on_c, 0, 72, 0
1, 2064, Note_on_c, 0, 65, 64
1, 2084, Note_on_c, 0, 65, 0
1, 2112, Note_on_c, 0, 74, 80
1, 2112, Note_on_c, 0, 70, 80
1, 2136, Note_on_c, 1, 58, 75
1, 2159, Note_on_c, 1, 58, 0
1, 2160, Note_on_c, 1, 60, 76
1, 2183, Note_on_c, 1, 60, 0
1, 2184, Note_on_c, 1, 62, 78
1, 2207, Note_on_c, 1, 62, 0
1, 2208, Note_on_c, 1, 60, 80
1, 2231, Note_on_c, 1, 60, 0
1, 2232, Note_on_c, 1, 58, 78
1, 2255, Note_on_c, 1, 58, 0
1, 2256, Note_on_c, 1, 57, 77
1, 2279, Note_on_c, 1, 57, 0
1, 2280, Note_on_c, 1, 55, 76
1, 2303, Note_on_c, 1, 55, 0
1, 2304, Note_on_c, 1, 53, 75
1, 2349, Note_on_c, 0, 74, 0
1, 2349, Note_on_c, 0, 70, 0
1, 2352, Note_on_c, 0, 72, 64
1, 2352, Note_on_c, 0, 69, 64
1, 2372, Note_on_c, 0, 72, 0
1, 2372, Note_on_c, 0, 69, 0
1, 2393, Note_on_c, 1, 53, 0
1, 2400, Note_on_c, 0, 75, 64
1, 2400, Note_on_c, 0, 72, 64
1, 2420, Note_on_c, 0, 75, 0
1, 2420, Note_on_c, 0, 72, 0
1, 2448, Note_on_c, 0, 65, 64
1, 2468, Note_on_c, 0, 65, 0
1, 2496, Note_on_c, 0, 77, 75
1, 2496, Note_on_c, 0, 74, 64
1, 2520, Note_on_c, 1, 68, 75
1, 2543, Note_on_c, 1, 68, 0
1, 2544, Note_on_c, 1, 67, 75
1, 2567, Note_on_c, 1, 67, 0
1, 2568, Note_on_c, 1, 65, 75
1, 2591, Note_on_c, 1, 65, 0
1, 2592, Note_on_c, 1, 63, 75
1, 2615, Note_on_c, 1, 63, 0
1, 2616, Note_on_c, 1, 62, 75
1, 2629, Note_on_c, 0, 77, 0
1, 2639, Note_on_c, 1, 62, 0
1, 2640, Note_on_c, 0, 79, 76
1, 2640, Note_on_c, 1, 60, 75
1, 2663, Note_on_c, 1, 60, 0
1, 2664, Note_on_c, 1, 59, 75
1, 2685, Note_on_c, 0, 79, 0
1, 2687, Note_on_c, 1, 59, 0
1, 2688, Note_on_c, 0, 77, 77
1, 2688, Note_on_c, 1, 60, 75
1, 2733, Note_on_c, 0, 77, 0
1, 2733, Note_on_c, 0, 74, 0
1, 2736, Note_on_c, 0, 76, 78
1, 2736, Note_on_c, 0, 67, 64
1, 2777, Note_on_c, 1, 60, 0
1, 2781, Note_on_c, 0, 76, 0
1, 2781, Note_on_c, 0, 67, 0
1, 2784, Note_on_c, 0, 75, 78
1, 2784, Note_on_c, 0, 72, 64
1, 2784, Note_on_c, 1, 57, 75
1, 2829, Note_on_c, 0, 75, 0
1, 2829, Note_on_c, 0, 72, 0
1, 2829, Note_on_c, 1, 57, 0
1, 2832, Note_on_c, 0, 74, 79
1, 2832, Note_on_c, 0, 65, 64
1, 2832, Note_on_c, 1, 58, 75
1, 2877, Note_on_c, 0, 65, 0
1, 2877, Note_on_c, 1, 58, 0
1, 2880, Note_on_c, 0, 67, 64
1, 2880, Note_on_c, 1, 51, 75
1, 2925, Note_on_c, 0, 74, 0
1, 2928, Note_on_c, 0, 72, 80
1, 2973, Note_on_c, 0, 72, 0
1, 2976, Note_on_c, 0, 77, 80
1, 2999, Note_on_c, 0, 77, 0
1, 3000, Note_on_c, 0, 75, 79
1, 3013, Note_on_c, 0, 67, 0
1, 3023, Note_on_c, 0, 75, 0
1, 3024, Note_on_c, 0, 74, 79
1, 3024, Note_on_c, 0, 63, 64
1, 3047, Note_on_c, 0, 74, 0
1, 3048, Note_on_c, 0, 72, 78
1, 3057, Note_on_c, 1, 51, 0
1, 3069, Note_on_c, 0, 63, 0
1, 3071, Note_on_c, 0, 72, 0
1, 3072, Note_on_c, 0, 70, 78
1, 3072, Note_on_c, 1, 62, 75
1, 3072, Note_on_c, 1, 53, 75
1, 3168, Note_on_c, 0, 70, 0
1, 3168, Note_on_c, 0, 69, 76
1, 3168, Note_on_c, 1, 62, 0
1, 3168, Note_on_c, 1, 60, 75
1, 3213, Note_on_c, 0, 69, 0
1, 3213, Note_on_c, 1, 60, 0
1, 3213, Note_on_c, 1, 53, 0
1, 3216, Note_on_c, 0, 72, 75
1, 3236, Note_on_c, 0, 72, 0
1, 3264, Note_on_c, 0, 63, 75
1, 3312, Note_on_c, 1, 53, 75
1, 3332, Note_on_c, 1, 53, 0
1, 3360, Note_on_c, 1, 45, 75
1, 3397, Note_on_c, 0, 63, 0
1, 3408, Note_on_c, 0, 67, 75
1, 3420, Note_on_c, 0, 67, 0
1, 3420, Note_on_c, 0, 65, 75
1, 3454, Note_on_c, 0, 65, 0
1, 3456, Note_on_c, 0, 63, 75
1, 3501, Note_on_c, 1, 45, 0
1, 3504, Note_on_c, 1, 50, 75
1, 3516, Note_on_c, 1, 50, 0
1, 3516, Note_on_c, 1, 48, 75
1, 3550, Note_on_c, 1, 48, 0
1, 3552, Note_on_c, 0, 63, 0
1, 3552, Note_on_c, 0, 62, 75
1, 3552, Note_on_c, 1, 46, 75
1, 3572, Note_on_c, 0, 62, 0
1, 3597, Note_on_c, 1, 46, 0
1, 3600, Note_on_c, 0, 77, 75
1, 3620, Note_on_c, 0, 77, 0
1, 3648, Note_on_c, 0, 68, 75
1, 3696, Note_on_c, 1, 58, 75
1, 3716, Note_on_c, 1, 58, 0
1, 3744, Note_on_c, 1, 50, 75
1, 3781, Note_on_c, 0, 68, 0
1, 3792, Note_on_c, 0, 72, 75
1, 3804, Note_on_c, 0, 72, 0
1, 3804, Note_on_c, 0, 70, 75
1, 3838, Note_on_c, 0, 70, 0
1, 3840, Note_on_c, 0, 68, 75
1, 3885, Note_on_c, 1, 50, 0
1, 3888, Note_on_c, 1, 55, 75
1, 3900, Note_on_c, 1, 55, 0
1, 3900, Note_on_c, 1, 53, 75
1, 3934, Note_on_c, 1, 53, 0
1, 3936, Note_on_c, 0, 68, 0
1, 3936, Note_on_c, 0, 67, 75
1, 3956, Note_on_c, 0, 67, 0
1, 3984, Note_on_c, 0, 79, 75
1, 4004, Note_on_c, 0, 79, 0
1, 4032, Note_on_c, 0, 71, 75
1, 4080, Note_on_c, 1, 68, 75
1, 4125, Note_on_c, 1, 68, 0
1, 4128, Note_on_c, 1, 62, 75
1, 4173, Note_on_c, 1, 62, 0
1, 4176, Note_on_c, 0, 71, 0
1, 4176, Note_on_c, 0, 74, 78
1, 4176, Note_on_c, 1, 65, 75
1, 4221, Note_on_c, 0, 74, 0
1, 4221, Note_on_c, 1, 65, 0
1, 4224, Note_on_c, 0, 72, 79
1, 4224, Note_on_c, 1, 63, 75
1, 4269, Note_on_c, 0, 72, 0
1, 4272, Note_on_c, 0, 79, 96
1, 4272, Note_on_c, 0, 67, 64
1, 4313, Note_on_c, 1, 63, 0
1, 4317, Note_on_c, 0, 67, 0
1, 4320, Note_on_c, 0, 69, 64
1, 4320, Note_on_c, 1, 62, 75
1, 4365, Note_on_c, 0, 69, 0
1, 4368, Note_on_c, 0, 79, 0
1, 4368, Note_on_c, 0, 77, 80
1, 4368, Note_on_c, 0, 71, 64
1, 4409, Note_on_c, 1, 62, 0
1, 4413, Note_on_c, 0, 71, 0
1, 4416, Note_on_c, 0, 72, 64
1, 4416, Note_on_c, 1, 60, 75
1, 4461, Note_on_c, 0, 77, 0
1, 4461, Note_on_c, 1, 60, 0
1, 4464, Note_on_c, 0, 75, 80
1, 4464, Note_on_c, 1, 57, 75
1, 4509, Note_on_c, 1, 57, 0
1, 4512, Note_on_c, 1, 58, 75
1, 4549, Note_on_c, 0, 72, 0
1, 4553, Note_on_c, 0, 75, 0
1, 4557, Note_on_c, 1, 58, 0
1, 4560, Note_on_c, 0, 74, 80
1, 4560, Note_on_c, 0, 70, 64
1, 4560, Note_on_c, 1, 52, 91
1, 4608, Note_on_c, 1, 52, 0
1, 4608, Note_on_c, 1, 53, 75
1, 4653, Note_on_c, 0, 74, 0
1, 4653, Note_on_c, 0, 70, 0
1, 4656, Note_on_c, 0, 72, 76
1, 4656, Note_on_c, 0, 69, 64
1, 4697, Note_on_c, 1, 53, 0
1, 4701, Note_on_c, 0, 72, 0
1, 4701, Note_on_c, 0, 69, 0
1, 4704, Note_on_c, 1, 41, 75
1, 4724, Note_on_c, 1, 41, 0
1, 4752, Note_on_c, 1, 53, 75
1, 4772, Note_on_c, 1, 53, 0
1, 4800, Note_on_c, 1, 58, 91
1, 4848, Note_on_c, 0, 70, 75
1, 4893, Note_on_c, 0, 70, 0
1, 4896, Note_on_c, 0, 75, 75
1, 4919, Note_on_c, 0, 75, 0
1, 4920, Note_on_c, 0, 74, 75
1, 4943, Note_on_c, 0, 74, 0
1, 4944, Note_on_c, 0, 72, 75
1, 4967, Note_on_c, 0, 72, 0
1, 4968, Note_on_c, 0, 70, 75
1, 4991, Note_on_c, 0, 70, 0
1, 4992, Note_on_c, 0, 77, 75
1, 5037, Note_on_c, 1, 58, 0
1, 5040, Note_on_c, 1, 57, 75
1, 5060, Note_on_c, 1, 57, 0
1, 5081, Note_on_c, 0, 77, 0
1, 5088, Note_on_c, 1, 60, 75
1, 5108, Note_on_c, 1, 60, 0
1, 5136, Note_on_c, 1, 53, 75
1, 5156, Note_on_c, 1, 53, 0
1, 5184, Note_on_c, 1, 62, 91
1, 5184, Note_on_c, 1, 58, 91
1, 5208, Note_on_c, 0, 82, 75
1, 5231, Note_on_c, 0, 82, 0
1, 5232, Note_on_c, 0, 84, 76
1, 5255, Note_on_c, 0, 84, 0
1, 5256, Note_on_c, 0, 86, 78
1, 5279, Note_on_c, 0, 86, 0
1, 5280, Note_on_c, 0, 84, 80
1, 5303, Note_on_c, 0, 84, 0
1, 5304, Note_on_c, 0, 82, 78
1, 5327, Note_on_c, 0, 82, 0
1, 5328, Note_on_c, 0, 81, 77
1, 5351, Note_on_c, 0, 81, 0
1, 5352, Note_on_c, 0, 79, 76
1, 5375, Note_on_c, 0, 79, 0
1, 5376, Note_on_c, 0, 77, 75
1, 5421, Note_on_c, 1, 62, 0
1, 5421, Note_on_c, 1, 58, 0
1, 5424, Note_on_c, 1, 60, 75
1, 5424, Note_on_c, 1, 57, 75
1, 5444, Note_on_c, 1, 60, 0
1, 5444, Note_on_c, 1, 57, 0
1, 5465, Note_on_c, 0, 77, 0
1, 5472, Note_on_c, 1, 63, 75
1, 5472, Note_on_c, 1, 60, 75
1, 5492, Note_on_c, 1, 63, 0
1, 5492, Note_on_c, 1, 60, 0
1, 5520, Note_on_c, 1, 53, 75
1, 5540, Note_on_c, 1, 53, 0
1, 5568, Note_on_c, 1, 65, 91
1, 5568, Note_on_c, 1, 62, 91
1, 5592, Note_on_c, 0, 80, 80
1, 5615, Note_on_c, 0, 80, 0
1, 5616, Note_on_c, 0, 79, 79
1, 5639, Note_on_c, 0, 79, 0
1, 5640, Note_on_c, 0, 77, 79
1, 5663, Note_on_c, 0, 77, 0
1, 5664, Note_on_c, 0, 75, 79
1, 5664, Note_on_c, 1, 65, 0
1, 5664, Note_on_c, 1, 62, 0
1, 5664, Note_on_c, 1, 67, 77
1, 5664, Note_on_c, 1, 63, 77
1, 5687, Note_on_c, 0, 75, 0
1, 5688, Note_on_c, 0, 74, 79
1, 5709, Note_on_c, 1, 67, 0
1, 5709, Note_on_c, 1, 63, 0
1, 5711, Note_on_c, 0, 74, 0
1, 5712, Note_on_c, 0, 72, 78
1, 5712, Note_on_c, 1, 68, 78
1, 5712, Note_on_c, 1, 65, 78
1, 5735, Note_on_c, 0, 72, 0
1, 5736, Note_on_c, 0, 70, 78
1, 5757, Note_on_c, 1, 68, 0
1, 5757, Note_on_c, 1, 65, 0
1, 5759, Note_on_c, 0, 70, 0
1, 5760, Note_on_c, 0, 72, 78
1, 5760, Note_on_c, 1, 67, 80
1, 5760, Note_on_c, 1, 63, 80
1, 5805, Note_on_c, 0, 72, 0
1, 5805, Note_on_c, 1, 67, 0
1, 5805, Note_on_c, 1, 63, 0
1, 5808, Note_on_c, 0, 74, 78
1, 5808, Note_on_c, 1, 65, 78
1, 5808, Note_on_c, 1, 62, 78
1, 5853, Note_on_c, 0, 74, 0
1, 5853, Note_on_c, 1, 65, 0
1, 5853, Note_on_c, 1, 62, 0
1, 5856, Note_on_c, 0, 77, 77
1, 5856, Note_on_c, 1, 63, 77
1, 5856, Note_on_c, 1, 60, 77
1, 5879, Note_on_c, 0, 77, 0
1, 5880, Note_on_c, 0, 75, 77
1, 5901, Note_on_c, 1, 63, 0
1, 5901, Note_on_c, 1, 60, 0
1, 5903, Note_on_c, 0, 75, 0
1, 5904, Note_on_c, 0, 74, 77
1, 5904, Note_on_c, 1, 67, 76
1, 5904, Note_on_c, 1, 63, 76
1, 5927, Note_on_c, 0, 74, 0
1, 5928, Note_on_c, 0, 72, 76
1, 5949, Note_on_c, 1, 67, 0
1, 5949, Note_on_c, 1, 63, 0
1, 5951, Note_on_c, 0, 72, 0
1, 5952, Note_on_c, 0, 70, 76
1, 5952, Note_on_c, 1, 62, 75
1, 5952, Note_on_c, 1, 53, 64
1, 5997, Note_on_c, 0, 70, 0
1, 6000, Note_on_c, 0, 72, 76
1, 6012, Note_on_c, 0, 72, 0
1, 6012, Note_on_c, 0, 70, 76
1, 6024, Note_on_c, 0, 70, 0
1, 6024, Note_on_c, 0, 69, 76
1, 6036, Note_on_c, 0, 69, 0
1, 6036, Note_on_c, 0, 70, 76
1, 6041, Note_on_c, 1, 62, 0
1, 6048, Note_on_c, 1, 63, 75
1, 6089, Note_on_c, 0, 70, 0
1, 6096, Note_on_c, 0, 72, 75
1, 6119, Note_on_c, 0, 72, 0
1, 6120, Note_on_c, 0, 69, 75
1, 6129, Note_on_c, 1, 53, 0
1, 6137, Note_on_c, 1, 63, 0
1, 6143, Note_on_c, 0, 69, 0
1, 6144, Note_on_c, 0, 70, 75
1, 6144, Note_on_c, 1, 62, 75
1, 6144, Note_on_c, 1, 58, 75
1, 6164, Note_on_c, 0, 70, 0
1, 6192, Note_on_c, 0, 77, 75
1, 6212, Note_on_c, 0, 77, 0
1, 6233, Note_on_c, 1, 62, 0
1, 6233, Note_on_c, 1, 58, 0
1, 6240, Note_on_c, 0, 82, 76
1, 6288, Note_on_c, 1, 62, 75
1, 6288, Note_on_c, 1, 58, 75
1, 6333, Note_on_c, 1, 62, 0
1, 6333, Note_on_c, 1, 58, 0
1, 6336, Note_on_c, 1, 67, 75
1, 6336, Note_on_c, 1, 63, 75
1, 6359, Note_on_c, 0, 82, 0
1, 6360, Note_on_c, 0, 79, 77
1, 6383, Note_on_c, 0, 79, 0
1, 6384, Note_on_c, 0, 81, 77
1, 6396, Note_on_c, 0, 81, 0
1, 6396, Note_on_c, 0, 79, 77
1, 6408, Note_on_c, 0, 79, 0
1, 6408, Note_on_c, 0, 77, 77
1, 6420, Note_on_c, 0, 77, 0
1, 6420, Note_on_c, 0, 79, 77
1, 6432, Note_on_c, 0, 79, 0
1, 6432, Note_on_c, 0, 84, 78
1, 6469, Note_on_c, 1, 67, 0
1, 6469, Note_on_c, 1, 63, 0
1, 6480, Note_on_c, 1, 63, 75
1, 6480, Note_on_c, 1, 60, 75
1, 6525, Note_on_c, 1, 63, 0
1, 6525, Note_on_c, 1, 60, 0
1, 6528, Note_on_c, 1, 69, 75
1, 6528, Note_on_c, 1, 65, 75
1, 6551, Note_on_c, 0, 84, 0
1, 6552, Note_on_c, 0, 81, 79
1, 6575, Note_on_c, 0, 81, 0
1, 6576, Note_on_c, 0, 82, 79
1, 6588, Note_on_c, 0, 82, 0
1, 6588, Note_on_c, 0, 81, 79
1, 6600, Note_on_c, 0, 81, 0
1, 6600, Note_on_c, 0, 79, 79
1, 6612, Note_on_c, 0, 79, 0
1, 6612, Note_on_c, 0, 81, 79
1, 6624, Note_on_c, 0, 81, 0
1, 6624, Note_on_c, 0, 89, 80
1, 6661, Note_on_c, 1, 69, 0
1, 6661, Note_on_c, 1, 65, 0
1, 6672, Note_on_c, 1, 65, 75
1, 6672, Note_on_c, 1, 62, 75
1, 6717, Note_on_c, 1, 65, 0
1, 6717, Note_on_c, 1, 62, 0
1, 6720, Note_on_c, 1, 74, 75
1, 6720, Note_on_c, 1, 70, 75
1, 6743, Note_on_c, 0, 89, 0
1, 6744, Note_on_c, 0, 87, 79
1, 6767, Note_on_c, 0, 87, 0
1, 6768, Note_on_c, 0, 86, 79
1, 6791, Note_on_c, 0, 86, 0
1, 6792, Note_on_c, 0, 84, 79
1, 6815, Note_on_c, 0, 84, 0
1, 6816, Note_on_c, 0, 82, 79
1, 6839, Note_on_c, 0, 82, 0
1, 6840, Note_on_c, 0, 81, 79
1, 6853, Note_on_c, 1, 74, 0
1, 6853, Note_on_c, 1, 70, 0
1, 6863, Note_on_c, 0, 81, 0
1, 6864, Note_on_c, 0, 79, 78
1, 6864, Note_on_c, 1, 72, 73
1, 6864, Note_on_c, 1, 69, 73
1, 6887, Note_on_c, 0, 79, 0
1, 6888, Note_on_c, 0, 77, 78
1, 6909, Note_on_c, 1, 72, 0
1, 6909, Note_on_c, 1, 69, 0
1, 6911, Note_on_c, 0, 77, 0
1, 6912, Note_on_c, 0, 75, 78
1, 6912, Note_on_c, 1, 70, 73
1, 6912, Note_on_c, 1, 67, 73
1, 6935, Note_on_c, 0, 75, 0
1, 6936, Note_on_c, 0, 77, 78
1, 6957, Note_on_c, 1, 70, 0
1, 6957, Note_on_c, 1, 67, 0
1, 6959, Note_on_c, 0, 77, 0
1, 6960, Note_on_c, 0, 74, 78
1, 6960, Note_on_c, 1, 69, 73
1, 6960, Note_on_c, 1, 65, 73
1, 6983, Note_on_c, 0, 74, 0
1, 6984, Note_on_c, 0, 75, 78
1, 7005, Note_on_c, 1, 69, 0
1, 7005, Note_on_c, 1, 65, 0
1, 7007, Note_on_c, 0, 75, 0
1, 7008, Note_on_c, 0, 72, 77
1, 7008, Note_on_c, 1, 67, 72
1, 7008, Note_on_c, 1, 63, 72
1, 7031, Note_on_c, 0, 72, 0
1, 7032, Note_on_c, 0, 74, 77
1, 7053, Note_on_c, 1, 67, 0
1, 7053, Note_on_c, 1, 63, 0
1, 7055, Note_on_c, 0, 74, 0
1, 7056, Note_on_c, 0, 70, 77
1, 7056, Note_on_c, 1, 65, 72
1, 7056, Note_on_c, 1, 62, 72
1, 7079, Note_on_c, 0, 70, 0
1, 7080, Note_on_c, 0, 74, 77
1, 7101, Note_on_c, 1, 65, 0
1, 7101, Note_on_c, 1, 62, 0
1, 7103, Note_on_c, 0, 74, 0
1, 7104, Note_on_c, 0, 72, 77
1, 7104, Note_on_c, 1, 67, 71
1, 7104, Note_on_c, 1, 63, 71
1, 7149, Note_on_c, 0, 72, 0
1, 7152, Note_on_c, 0, 75, 92
1, 7193, Note_on_c, 1, 67, 0
1, 7193, Note_on_c, 1, 63, 0
1, 7200, Note_on_c, 0, 75, 0
1, 7200, Note_on_c, 1, 60, 71
1, 7200, Note_on_c, 1, 53, 71
1, 7239, Note_on_c, 1, 60, 0
1, 7239, Note_on_c, 1, 53, 0
1, 7248, Note_on_c, 0, 69, 76
1, 7248, Note_on_c, 0, 63, 76
1, 7268, Note_on_c, 0, 69, 0
1, 7268, Note_on_c, 0, 63, 0
1, 7296, Note_on_c, 0, 70, 75
1, 7296, Note_on_c, 0, 62, 75
1, 7344, Note_on_c, 1, 58, 70
1, 7385, Note_on_c, 0, 70, 0
1, 7385, Note_on_c, 0, 62, 0
1, 7389, Note_on_c, 1, 58, 0
1, 7392, Note_on_c, 1, 46, 70
1, 7437, Note_on_c, 1, 46, 0
1, 7440, Note_on_c, 0, 72, 75
1, 7460, Note_on_c, 0, 72, 0
1, 7488, Note_on_c, 0, 63, 75
1, 7536, Note_on_c, 1, 53, 75
1, 7556, Note_on_c, 1, 53, 0
1, 7584, Note_on_c, 1, 45, 75
1, 7621, Note_on_c, 0, 63, 0
1, 7632, Note_on_c, 0, 67, 75
1, 7644, Note_on_c, 0, 67, 0
1, 7644, Note_on_c, 0, 65, 75
1, 7678, Note_on_c, 0, 65, 0
1, 7680, Note_on_c, 0, 63, 75
1, 7725, Note_on_c, 1, 45, 0
1, 7728, Note_on_c, 1, 50, 75
1, 7740, Note_on_c, 1, 50, 0
1, 7740, Note_on_c, 1, 48, 75
1, 7774, Note_on_c, 1, 48, 0
1, 7776, Note_on_c, 0, 63, 0
1, 7776, Note_on_c, 0, 62, 75
1, 7776, Note_on_c, 1, 46, 75
1, 7796, Note_on_c, 0, 62, 0
1, 7821, Note_on_c, 1, 46, 0
1, 7824, Note_on_c, 0, 77, 75
1, 7844, Note_on_c, 0, 77, 0
1, 7872, Note_on_c, 0, 68, 75
1, 7920, Note_on_c, 1, 58, 75
1, 7940, Note_on_c, 1, 58, 0
1, 7968, Note_on_c, 1, 50, 75
1, 8005, Note_on_c, 0, 68, 0
1, 8016, Note_on_c, 0, 72, 75
1, 8028, Note_on_c, 0, 72, 0
1, 8028, Note_on_c, 0, 70, 75
1, 8062, Note_on_c, 0, 70, 0
1, 8064, Note_on_c, 0, 68, 75
1, 8109, Note_on_c, 1, 50, 0
1, 8112, Note_on_c, 1, 55, 75
1, 8124, Note_on_c, 1, 55, 0
1, 8124, Note_on_c, 1, 53, 75
1, 8158, Note_on_c, 1, 53, 0
1, 8160, Note_on_c, 0, 68, 0
1, 8160, Note_on_c, 0, 67, 75
1, 8180, Note_on_c, 0, 67, 0
1, 8208, Note_on_c, 0, 79, 75
1, 8228, Note_on_c, 0, 79, 0
1, 8256, Note_on_c, 0, 71, 75
1, 8304, Note_on_c, 1, 68, 75
1, 8349, Note_on_c, 1, 68, 0
1, 8352, Note_on_c, 1, 62, 75
1, 8397, Note_on_c, 1, 62, 0
1, 8400, Note_on_c, 0, 71, 0
1, 8400, Note_on_c, 0, 74, 78
1, 8400, Note_on_c, 1, 65, 75
1, 8445, Note_on_c, 0, 74, 0
1, 8445, Note_on_c, 1, 65, 0
1, 8448, Note_on_c, 0, 72, 79
1, 8448, Note_on_c, 1, 63, 75
1, 8493, Note_on_c, 0, 72, 0
1, 8496, Note_on_c, 0, 79, 96
1, 8496, Note_on_c, 0, 67, 64
1, 8537, Note_on_c, 1, 63, 0
1, 8541, Note_on_c, 0, 67, 0
1, 8544, Note_on_c, 0, 69, 64
1, 8544, Note_on_c, 1, 62, 75
1, 8589, Note_on_c, 0, 69, 0
1, 8592, Note_on_c, 0, 79, 0
1, 8592, Note_on_c, 0, 77, 80
1, 8592, Note_on_c, 0, 71, 64
1, 8633, Note_on_c, 1, 62, 0
1, 8637, Note_on_c, 0, 71, 0
1, 8640, Note_on_c, 0, 72, 64
1, 8640, Note_on_c, 1, 60, 75
1, 8685, Note_on_c, 0, 77, 0
1, 8685, Note_on_c, 1, 60, 0
1, 8688, Note_on_c, 0, 75, 80
1, 8688, Note_on_c, 1, 57, 75
1, 8733, Note_on_c, 1, 57, 0
1, 8736, Note_on_c, 1, 58, 75
1, 8773, Note_on_c, 0, 72, 0
1, 8777, Note_on_c, 0, 75, 0
1, 8781, Note_on_c, 1, 58, 0
1, 8784, Note_on_c, 0, 74, 80
1, 8784, Note_on_c, 0, 70, 64
1, 8784, Note_on_c, 1, 52, 91
1, 8832, Note_on_c, 1, 52, 0
1, 8832, Note_on_c, 1, 53, 75
1, 8877, Note_on_c, 0, 74, 0
1, 8877, Note_on_c, 0, 70, 0
1, 8880, Note_on_c, 0, 72, 76
1, 8880, Note_on_c, 0, 69, 64
1, 8921, Note_on_c, 1, 53, 0
1, 8925, Note_on_c, 0, 72, 0
1, 8925, Note_on_c, 0, 69, 0
1, 8928, Note_on_c, 1, 41, 75
1, 8948, Note_on_c, 1, 41, 0
1, 8976, Note_on_c, 1, 53, 75
1, 8996, Note_on_c, 1, 53, 0
1, 9024, Note_on_c, 1, 58, 91
1, 9072, Note_on_c, 0, 70, 75
1, 9117, Note_on_c, 0, 70, 0
1, 9120, Note_on_c, 0, 75, 75
1, 9143, Note_on_c, 0, 75, 0
1, 9144, Note_on_c, 0, 74, 75
1, 9167, Note_on_c, 0, 74, 0
1, 9168, Note_on_c, 0, 72, 75
1, 9191, Note_on_c, 0, 72, 0
1, 9192, Note_on_c, 0, 70, 75
1, 9215, Note_on_c, 0, 70, 0
1, 9216, Note_on_c, 0, 77, 75
1, 9261, Note_on_c, 1, 58, 0
1, 9264, Note_on_c, 1, 57, 75
1, 9284, Note_on_c, 1, 57, 0
1, 9305, Note_on_c, 0, 77, 0
1, 9312, Note_on_c, 1, 60, 75
1, 9332, Note_on_c, 1, 60, 0
1, 9360, Note_on_c, 1, 53, 75
1, 9380, Note_on_c, 1, 53, 0
1, 9408, Note_on_c, 1, 62, 91
1, 9408, Note_on_c, 1, 58, 91
1, 9432, Note_on_c, 0, 82, 75
1, 9455, Note_on_c, 0, 82, 0
1, 9456, Note_on_c, 0, 84, 76
1, 9479, Note_on_c, 0, 84, 0
1, 9480, Note_on_c, 0, 86, 78
1, 9503, Note_on_c, 0, 86, 0
1, 9504, Note_on_c, 0, 84, 80
1, 9527, Note_on_c, 0, 84, 0
1, 9528, Note_on_c, 0, 82, 78
1, 9551, Note_on_c, 0, 82, 0
1, 9552, Note_on_c, 0, 81, 77
1, 9575, Note_on_c, 0, 81, 0
1, 9576, Note_on_c, 0, 79, 76
1, 9599, Note_on_c, 0, 79, 0
1, 9600, Note_on_c, 0, 77, 75
1, 9645, Note_on_c, 1, 62, 0
1, 9645, Note_on_c, 1, 58, 0
1, 9648, Note_on_c, 1, 60, 75
1, 9648, Note_on_c, 1, 57, 75
1, 9668, Note_on_c, 1, 60, 0
1, 9668, Note_on_c, 1, 57, 0
1, 9689, Note_on_c, 0, 77, 0
1, 9696, Note_on_c, 1, 63, 75
1, 9696, Note_on_c, 1, 60, 75
1, 9716, Note_on_c, 1, 63, 0
1, 9716, Note_on_c, 1, 60, 0
1, 9744, Note_on_c, 1, 53, 75
1, 9764, Note_on_c, 1, 53, 0
1, 9792, Note_on_c, 1, 65, 91
1, 9792, Note_on_c, 1, 62, 91
1, 9816, Note_on_c, 0, 80, 80
1, 9839, Note_on_c, 0, 80, 0
1, 9840, Note_on_c, 0, 79, 79
1, 9863, Note_on_c, 0, 79, 0
1, 9864, Note_on_c, 0, 77, 79
1, 9887, Note_on_c, 0, 77, 0
1, 9888, Note_on_c, 0, 75, 79
1, 9888, Note_on_c, 1, 65, 0
1, 9888, Note_on_c, 1, 62, 0
1, 9888, Note_on_c, 1, 67, 77
1, 9888, Note_on_c, 1, 63, 77
1, 9911, Note_on_c, 0, 75, 0
1, 9912, Note_on_c, 0, 74, 79
1, 9933, Note_on_c, 1, 67, 0
1, 9933, Note_on_c, 1, 63, 0
1, 9935, Note_on_c, 0, 74, 0
1, 9936, Note_on_c, 0, 72, 78
1, 9936, Note_on_c, 1, 68, 78
1, 9936, Note_on_c, 1, 65, 78
1, 9959, Note_on_c, 0, 72, 0
1, 9960, Note_on_c, 0, 70, 78
1, 9981, Note_on_c, 1, 68, 0
1, 9981, Note_on_c, 1, 65, 0
1, 9983, Note_on_c, 0, 70, 0
1, 9984, Note_on_c, 0, 72, 78
1, 9984, Note_on_c, 1, 67, 80
1, 9984, Note_on_c, 1, 63, 80
1, 10029, Note_on_c, 0, 72, 0
1, 10029, Note_on_c, 1, 67, 0
1, 10029, Note_on_c, 1, 63, 0
1, 10032, Note_on_c, 0, 74, 78
1, 10032, Note_on_c, 1, 65, 78
1, 10032, Note_on_c, 1, 62, 78
1, 10077, Note_on_c, 0, 74, 0
1, 10077, Note_on_c, 1, 65, 0
1, 10077, Note_on_c, 1, 62, 0
1, 10080, Note_on_c, 0, 77, 77
1, 10080, Note_on_c, 1, 63, 77
1, 10080, Note_on_c, 1, 60, 77
1, 10103, Note_on_c, 0, 77, 0
1, 10104, Note_on_c, 0, 75, 77
1, 10125, Note_on_c, 1, 63, 0
1, 10125, Note_on_c, 1, 60, 0
1, 10127, Note_on_c, 0, 75, 0
1, 10128, Note_on_c, 0, 74, 77
1, 10128, Note_on_c, 1, 67, 76
1, 10128, Note_on_c, 1, 63, 76
1, 10151, Note_on_c, 0, 74, 0
1, 10152, Note_on_c, 0, 72, 76
1, 10173, Note_on_c, 1, 67, 0
1, 10173, Note_on_c, 1, 63, 0
1, 10175, Note_on_c, 0, 72, 0
1, 10176, Note_on_c, 0, 70, 76
1, 10176, Note_on_c, 1, 62, 75
1, 10176, Note_on_c, 1, 53, 64
1, 10221, Note_on_c, 0, 70, 0
1, 10224, Note_on_c, 0, 72, 76
1, 10236, Note_on_c, 0, 72, 0
1, 10236, Note_on_c, 0, 70, 76
1, 10248, Note_on_c, 0, 70, 0
1, 10248, Note_on_c, 0, 69, 76
1, 10260, Note_on_c, 0, 69, 0
1, 10260, Note_on_c, 0, 70, 76
1, 10265, Note_on_c, 1, 62, 0
1, 10272, Note_on_c, 1, 63, 75
1, 10313, Note_on_c, 0, 70, 0
1, 10320, Note_on_c, 0, 72, 75
1, 10343, Note_on_c, 0, 72, 0
1, 10344, Note_on_c, 0, 69, 75
1, 10353, Note_on_c, 1, 53, 0
1, 10361, Note_on_c, 1, 63, 0
1, 10367, Note_on_c, 0, 69, 0
1, 10368, Note_on_c, 0, 70, 75
1, 10368, Note_on_c, 1, 62, 75
1, 10368, Note_on_c, 1, 58, 75
1, 10388, Note_on_c, 0, 70, 0
1, 10416, Note_on_c, 0, 77, 75
1, 10436, Note_on_c, 0, 77, 0
1, 10457, Note_on_c, 1, 62, 0
1, 10457, Note_on_c, 1, 58, 0
1, 10464, Note_on_c, 0, 82, 76
1, 10512, Note_on_c, 1, 62, 75
1, 10512, Note_on_c, 1, 58, 75
1, 10557, Note_on_c, 1, 62, 0
1, 10557, Note_on_c, 1, 58, 0
1, 10560, Note_on_c, 1, 67, 75
1, 10560, Note_on_c, 1, 63, 75
1, 10583, Note_on_c, 0, 82, 0
1, 10584, Note_on_c, 0, 79, 77
1, 10607, Note_on_c, 0, 79, 0
1, 10608, Note_on_c, 0, 81, 77
1, 10620, Note_on_c, 0, 81, 0
1, 10620, Note_on_c, 0, 79, 77
1, 10632, Note_on_c, 0, 79, 0
1, 10632, Note_on_c, 0, 77, 77
1, 10644, Note_on_c, 0, 77, 0
1, 10644, Note_on_c, 0, 79, 77
1, 10656, Note_on_c, 0, 79, 0
1, 10656, Note_on_c, 0, 84, 78
1, 10693, Note_on_c, 1, 67, 0
1, 10693, Note_on_c, 1, 63, 0
1, 10704, Note_on_c, 1, 63, 75
1, 10704, Note_on_c, 1, 60, 75
1, 10749, Note_on_c, 1, 63, 0
1, 10749, Note_on_c, 1, 60, 0
1, 10752, Note_on_c, 1, 69, 75
1, 10752, Note_on_c, 1, 65, 75
1, 10775, Note_on_c, 0, 84, 0
1, 10776, Note_on_c, 0, 81, 79
1, 10799, Note_on_c, 0, 81, 0
1, 10800, Note_on_c, 0, 82, 79
1, 10812, Note_on_c, 0, 82, 0
1, 10812, Note_on_c, 0, 81, 79
1, 10824, Note_on_c, 0, 81, 0
1, 10824, Note_on_c, 0, 79, 79
1, 10836, Note_on_c, 0, 79, 0
1, 10836, Note_on_c, 0, 81, 79
1, 10848, Note_on_c, 0, 81, 0
1, 10848, Note_on_c, 0, 89, 80
1, 10885, Note_on_c, 1, 69, 0
1, 10885, Note_on_c, 1, 65, 0
1, 10896, Note_on_c, 1, 65, 75
1, 10896, Note_on_c, 1, 62, 75
1, 10941, Note_on_c, 1, 65, 0
1, 10941, Note_on_c, 1, 62, 0
1, 10944, Note_on_c, 1, 74, 75
1, 10944, Note_on_c, 1, 70, 75
1, 10967, Note_on_c, 0, 89, 0
1, 10968, Note_on_c, 0, 87, 79
1, 10991, Note_on_c, 0, 87, 0
1, 10992, Note_on_c, 0, 86, 79
1, 11015, Note_on_c, 0, 86, 0
1, 11016, Note_on_c, 0, 84, 79
1, 11039, Note_on_c, 0, 84, 0
1, 11040, Note_on_c, 0, 82, 79
1, 11063, Note_on_c, 0, 82, 0
1, 11064, Note_on_c, 0, 81, 79
1, 11077, Note_on_c, 1, 74, 0
1, 11077, Note_on_c, 1, 70, 0
1, 11087, Note_on_c, 0, 81, 0
1, 11088, Note_on_c, 0, 79, 78
1, 11088, Note_on_c, 1, 72, 73
1, 11088, Note_on_c, 1, 69, 73
1, 11111, Note_on_c, 0, 79, 0
1, 11112, Note_on_c, 0, 77, 78
1, 11133, Note_on_c, 1, 72, 0
1, 11133, Note_on_c, 1, 69, 0
1, 11135, Note_on_c, 0, 77, 0
1, 11136, Note_on_c, 0, 75, 78
1, 11136, Note_on_c, 1, 70, 73
1, 11136, Note_on_c, 1, 67, 73
1, 11159, Note_on_c, 0, 75, 0
1, 11160, Note_on_c, 0, 77, 78
1, 11181, Note_on_c, 1, 70, 0
1, 11181, Note_on_c, 1, 67, 0
1, 11183, Note_on_c, 0, 77, 0
1, 11184, Note_on_c, 0, 74, 78
1, 11184, Note_on_c, 1, 69, 73
1, 11184, Note_on_c, 1, 65, 73
1, 11207, Note_on_c, 0, 74, 0
1, 11208, Note_on_c, 0, 75, 78
1, 11229, Note_on_c, 1, 69, 0
1, 11229, Note_on_c, 1, 65, 0
1, 11231, Note_on_c, 0, 75, 0
1, 11232, Note_on_c, 0, 72, 77
1, 11232, Note_on_c, 1, 67, 72
1, 11232, Note_on_c, 1, 63, 72
1, 11255, Note_on_c, 0, 72, 0
1, 11256, Note_on_c, 0, 74, 77
1, 11277, Note_on_c, 1, 67, 0
1, 11277, Note_on_c, 1, 63, 0
1, 11279, Note_on_c, 0, 74, 0
1, 11280, Note_on_c, 0, 70, 77
1, 11280, Note_on_c, 1, 65, 72
1, 11280, Note_on_c, 1, 62, 72
1, 11303, Note_on_c, 0, 70, 0
1, 11304, Note_on_c, 0, 74, 77
1, 11325, Note_on_c, 1, 65, 0
1, 11325, Note_on_c, 1, 62, 0
1, 11327, Note_on_c, 0, 74, 0
1, 11328, Note_on_c, 0, 72, 77
1, 11328, Note_on_c, 1, 67, 71
1, 11328, Note_on_c, 1, 63, 71
1, 11373, Note_on_c, 0, 72, 0
1, 11376, Note_on_c, 0, 75, 92
1, 11417, Note_on_c, 1, 67, 0
1, 11417, Note_on_c, 1, 63, 0
1, 11424, Note_on_c, 0, 75, 0
1, 11424, Note_on_c, 1, 60, 71
1, 11424, Note_on_c, 1, 53, 71
1, 11463, Note_on_c, 1, 60, 0
1, 11463, Note_on_c, 1, 53, 0
1, 11472, Note_on_c, 0, 69, 76
1, 11472, Note_on_c, 0, 63, 76
1, 11492, Note_on_c, 0, 69, 0
1, 11492, Note_on_c, 0, 63, 0
1, 11520, Note_on_c, 0, 70, 75
1, 11520, Note_on_c, 0, 62, 75
1, 11568, Note_on_c, 1, 58, 70
1, 11609, Note_on_c, 0, 70, 0
1, 11609, Note_on_c, 0, 62, 0
1, 11613, Note_on_c, 1, 58, 0
1, 11616, Note_on_c, 1, 46, 70
1, 11661, Note_on_c, 1, 46, 0
1, 11664, Note_on_c, 0, 53, 75
1, 11684, Note_on_c, 0, 53, 0
1, 11712, Note_on_c, 0, 58, 75
1, 11760, Note_on_c, 1, 46, 70
1, 11780, Note_on_c, 1, 46, 0
1, 11808, Note_on_c, 1, 51, 70
1, 11831, Note_on_c, 1, 51, 0
1, 11832, Note_on_c, 1, 49, 70
1, 11855, Note_on_c, 1, 49, 0
1, 11856, Note_on_c, 1, 48, 70
1, 11879, Note_on_c, 1, 48, 0
1, 11880, Note_on_c, 1, 46, 70
1, 11903, Note_on_c, 1, 46, 0
1, 11904, Note_on_c, 1, 53, 70
1, 11949, Note_on_c, 0, 58, 0
1, 11952, Note_on_c, 0, 57, 70
1, 11975, Note_on_c, 0, 57, 0
1, 11976, Note_on_c, 0, 60, 70
1, 11993, Note_on_c, 1, 53, 0
1, 11999, Note_on_c, 0, 60, 0
1, 12000, Note_on_c, 0, 58, 71
1, 12023, Note_on_c, 0, 58, 0
1, 12024, Note_on_c, 0, 61, 72
1, 12047, Note_on_c, 0, 61, 0
1, 12048, Note_on_c, 0, 60, 73
1, 12071, Note_on_c, 0, 60, 0
1, 12072, Note_on_c, 0, 63, 74
1, 12095, Note_on_c, 0, 63, 0
1, 12096, Note_on_c, 0, 61, 75
1, 12144, Note_on_c, 1, 46, 70
1, 12164, Note_on_c, 1, 46, 0
1, 12192, Note_on_c, 1, 51, 70
1, 12215, Note_on_c, 1, 51, 0
1, 12216, Note_on_c, 1, 49, 70
1, 12239, Note_on_c, 1, 49, 0
1, 12240, Note_on_c, 1, 48, 70
1, 12263, Note_on_c, 1, 48, 0
1, 12264, Note_on_c, 1, 46, 70
1, 12287, Note_on_c, 1, 46, 0
1, 12288, Note_on_c, 1, 54, 70
1, 12311, Note_on_c, 0, 61, 0
1, 12312, Note_on_c, 0, 58, 70
1, 12335, Note_on_c, 0, 58, 0
1, 12336, Note_on_c, 0, 60, 70
1, 12359, Note_on_c, 0, 60, 0
1, 12360, Note_on_c, 0, 61, 71
1, 12383, Note_on_c, 0, 61, 0
1, 12384, Note_on_c, 0, 63, 72
1, 12407, Note_on_c, 0, 63, 0
1, 12408, Note_on_c, 0, 65, 72
1, 12421, Note_on_c, 1, 54, 0
1, 12431, Note_on_c, 0, 65, 0
1, 12432, Note_on_c, 0, 66, 73
1, 12432, Note_on_c, 1, 51, 71
1, 12455, Note_on_c, 0, 66, 0
1, 12456, Note_on_c, 0, 63, 74
1, 12477, Note_on_c, 1, 51, 0
1, 12479, Note_on_c, 0, 63, 0
1, 12480, Note_on_c, 1, 56, 72
1, 12504, Note_on_c, 0, 60, 70
1, 12527, Note_on_c, 0, 60, 0
1, 12528, Note_on_c, 0, 61, 70
1, 12551, Note_on_c, 0, 61, 0
1, 12552, Note_on_c, 0, 63, 71
1, 12575, Note_on_c, 0, 63, 0
1, 12576, Note_on_c, 0, 65, 72
1, 12599, Note_on_c, 0, 65, 0
1, 12600, Note_on_c, 0, 66, 72
1, 12613, Note_on_c, 1, 56, 0
1, 12623, Note_on_c, 0, 66, 0
1, 12624, Note_on_c, 0, 68, 73
1, 12624, Note_on_c, 1, 53, 74
1, 12647, Note_on_c, 0, 68, 0
1, 12648, Note_on_c, 0, 65, 74
1, 12669, Note_on_c, 1, 53, 0
1, 12671, Note_on_c, 0, 65, 0
1, 12672, Note_on_c, 0, 61, 75
1, 12672, Note_on_c, 1, 58, 75
1, 12695, Note_on_c, 0, 61, 0
1, 12696, Note_on_c, 0, 66, 75
1, 12717, Note_on_c, 1, 58, 0
1, 12719, Note_on_c, 0, 66, 0
1, 12720, Note_on_c, 0, 70, 75
1, 12720, Note_on_c, 1, 53, 75
1, 12743, Note_on_c, 0, 70, 0
1, 12744, Note_on_c, 0, 66, 75
1, 12765, Note_on_c, 1, 53, 0
1, 12767, Note_on_c, 0, 66, 0
1, 12768, Note_on_c, 0, 63, 75
1, 12768, Note_on_c, 1, 60, 75
1, 12791, Note_on_c, 0, 63, 0
1, 12792, Note_on_c, 0, 66, 75
1, 12813, Note_on_c, 1, 60, 0
1, 12815, Note_on_c, 0, 66, 0
1, 12816, Note_on_c, 0, 68, 75
1, 12816, Note_on_c, 1, 56, 75
1, 12839, Note_on_c, 0, 68, 0
1, 12840, Note_on_c, 0, 66, 75
1, 12861, Note_on_c, 1, 56, 0
1, 12863, Note_on_c, 0, 66, 0
1, 12864, Note_on_c, 0, 65, 75
1, 12864, Note_on_c, 1, 61, 75
1, 12887, Note_on_c, 0, 65, 0
1, 12888, Note_on_c, 0, 68, 75
1, 12909, Note_on_c, 1, 61, 0
1, 12911, Note_on_c, 0, 68, 0
1, 12912, Note_on_c, 0, 73, 75
1, 12912, Note_on_c, 1, 56, 75
1, 12935, Note_on_c, 0, 73, 0
1, 12936, Note_on_c, 0, 68, 75
1, 12957, Note_on_c, 1, 56, 0
1, 12959, Note_on_c, 0, 68, 0
1, 12960, Note_on_c, 0, 66, 75
1, 12960, Note_on_c, 1, 60, 75
1, 12983, Note_on_c, 0, 66, 0
1, 12984, Note_on_c, 0, 68, 75
1, 13005, Note_on_c, 1, 60, 0
1, 13007, Note_on_c, 0, 68, 0
1, 13008, Note_on_c, 0, 75, 75
1, 13008, Note_on_c, 1, 56, 75
1, 13031, Note_on_c, 0, 75, 0
1, 13032, Note_on_c, 0, 68, 75
1, 13053, Note_on_c, 1, 56, 0
1, 13055, Note_on_c, 0, 68, 0
1, 13056, Note_on_c, 0, 65, 75
1, 13056, Note_on_c, 1, 61, 75
1, 13079, Note_on_c, 0, 65, 0
1, 13080, Note_on_c, 0, 68, 75
1, 13101, Note_on_c, 1, 61, 0
1, 13103, Note_on_c, 0, 68, 0
1, 13104, Note_on_c, 0, 73, 75
1, 13104, Note_on_c, 1, 56, 75
1, 13127, Note_on_c, 0, 73, 0
1, 13128, Note_on_c, 0, 68, 75
1, 13149, Note_on_c, 1, 56, 0
1, 13151, Note_on_c, 0, 68, 0
1, 13152, Note_on_c, 0, 66, 75
1, 13152, Note_on_c, 1, 60, 75
1, 13175, Note_on_c, 0, 66, 0
1, 13176, Note_on_c, 0, 68, 75
1, 13197, Note_on_c, 1, 60, 0
1, 13199, Note_on_c, 0, 68, 0
1, 13200, Note_on_c, 0, 75, 75
1, 13200, Note_on_c, 1, 56, 75
1, 13223, Note_on_c, 0, 75, 0
1, 13224, Note_on_c, 0, 66, 75
1, 13245, Note_on_c, 1, 56, 0
1, 13247, Note_on_c, 0, 66, 0
1, 13248, Note_on_c, 0, 65, 75
1, 13248, Note_on_c, 1, 61, 75
1, 13271, Note_on_c, 0, 65, 0
1, 13272, Note_on_c, 0, 68, 75
1, 13293, Note_on_c, 1, 61, 0
1, 13295, Note_on_c, 0, 68, 0
1, 13296, Note_on_c, 0, 73, 75
1, 13296, Note_on_c, 1, 49, 75
1, 13319, Note_on_c, 0, 73, 0
1, 13320, Note_on_c, 0, 68, 75
1, 13341, Note_on_c, 1, 49, 0
1, 13343, Note_on_c, 0, 68, 0
1, 13344, Note_on_c, 0, 65, 76
1, 13344, Note_on_c, 1, 59, 76
1, 13367, Note_on_c, 0, 65, 0
1, 13368, Note_on_c, 0, 68, 76
1, 13389, Note_on_c, 1, 59, 0
1, 13391, Note_on_c, 0, 68, 0
1, 13392, Note_on_c, 0, 74, 76
1, 13392, Note_on_c, 1, 47, 76
1, 13415, Note_on_c, 0, 74, 0
1, 13416, Note_on_c, 0, 68, 77
1, 13437, Note_on_c, 1, 47, 0
1, 13439, Note_on_c, 0, 68, 0
1, 13440, Note_on_c, 0, 66, 77
1, 13440, Note_on_c, 1, 58, 77
1, 13463, Note_on_c, 0, 66, 0
1, 13464, Note_on_c, 0, 70, 77
1, 13485, Note_on_c, 1, 58, 0
1, 13487, Note_on_c, 0, 70, 0
1, 13488, Note_on_c, 0, 73, 77
1, 13488, Note_on_c, 1, 46, 77
1, 13511, Note_on_c, 0, 73, 0
1, 13512, Note_on_c, 0, 70, 78
1, 13533, Note_on_c, 1, 46, 0
1, 13535, Note_on_c, 0, 70, 0
1, 13536, Note_on_c, 0, 66, 78
1, 13536, Note_on_c, 1, 57, 78
1, 13559, Note_on_c, 0, 66, 0
1, 13560, Note_on_c, 0, 73, 78
1, 13581, Note_on_c, 1, 57, 0
1, 13583, Note_on_c, 0, 73, 0
1, 13584, Note_on_c, 0, 78, 79
1, 13584, Note_on_c, 1, 45, 78
1, 13607, Note_on_c, 0, 78, 0
1, 13608, Note_on_c, 0, 73, 79
1, 13629, Note_on_c, 1, 45, 0
1, 13631, Note_on_c, 0, 73, 0
1, 13632, Note_on_c, 0, 72, 79
1, 13632, Note_on_c, 1, 56, 79
1, 13655, Note_on_c, 0, 72, 0
1, 13656, Note_on_c, 0, 75, 80
1, 13677, Note_on_c, 1, 56, 0
1, 13679, Note_on_c, 0, 75, 0
1, 13680, Note_on_c, 0, 78, 80
1, 13680, Note_on_c, 1, 44, 80
1, 13703, Note_on_c, 0, 78, 0
1, 13704, Note_on_c, 0, 75, 80
1, 13725, Note_on_c, 1, 44, 0
1, 13727, Note_on_c, 0, 75, 0
1, 13728, Note_on_c, 0, 73, 80
1, 13728, Note_on_c, 1, 58, 80
1, 13751, Note_on_c, 0, 73, 0
1, 13752, Note_on_c, 0, 77, 79
1, 13773, Note_on_c, 1, 58, 0
1, 13775, Note_on_c, 0, 77, 0
1, 13776, Note_on_c, 0, 73, 78
1, 13776, Note_on_c, 1, 46, 78
1, 13799, Note_on_c, 0, 73, 0
1, 13800, Note_on_c, 0, 77, 77
1, 13821, Note_on_c, 1, 46, 0
1, 13823, Note_on_c, 0, 77, 0
1, 13824, Note_on_c, 0, 73, 76
1, 13824, Note_on_c, 1, 54, 76
1, 13847, Note_on_c, 0, 73, 0
1, 13848, Note_on_c, 0, 75, 75
1, 13869, Note_on_c, 1, 54, 0
1, 13871, Note_on_c, 0, 75, 0
1, 13872, Note_on_c, 0, 73, 75
1, 13872, Note_on_c, 1, 42, 75
1, 13895, Note_on_c, 0, 73, 0
1, 13896, Note_on_c, 0, 75, 74
1, 13917, Note_on_c, 1, 42, 0
1, 13919, Note_on_c, 0, 75, 0
1, 13920, Note_on_c, 0, 72, 73
1, 13920, Note_on_c, 1, 56, 73
1, 13943, Note_on_c, 0, 72, 0
1, 13944, Note_on_c, 0, 75, 72
1, 13965, Note_on_c, 1, 56, 0
1, 13967, Note_on_c, 0, 75, 0
1, 13968, Note_on_c, 0, 72, 71
1, 13968, Note_on_c, 1, 44, 71
1, 13991, Note_on_c, 0, 72, 0
1, 13992, Note_on_c, 0, 75, 70
1, 14013, Note_on_c, 1, 44, 0
1, 14015, Note_on_c, 0, 75, 0
1, 14016, Note_on_c, 0, 73, 70
1, 14016, Note_on_c, 1, 49, 70
1, 14061, Note_on_c, 1, 49, 0
1, 14064, Note_on_c, 1, 44, 70
1, 14105, Note_on_c, 0, 73, 0
1, 14109, Note_on_c, 1, 44, 0
1, 14112, Note_on_c, 1, 37, 70
1, 14157, Note_on_c, 1, 37, 0
1, 14160, Note_on_c, 0, 53, 75
1, 14180, Note_on_c, 0, 53, 0
1, 14208, Note_on_c, 0, 58, 75
1, 14256, Note_on_c, 1, 46, 70
1, 14276, Note_on_c, 1, 46, 0
1, 14304, Note_on_c, 1, 51, 70
1, 14327, Note_on_c, 1, 51, 0
1, 14328, Note_on_c, 1, 49, 70
1, 14351, Note_on_c, 1, 49, 0
1, 14352, Note_on_c, 1, 48, 70
1, 14375, Note_on_c, 1, 48, 0
1, 14376, Note_on_c, 1, 46, 70
1, 14399, Note_on_c, 1, 46, 0
1, 14400, Note_on_c, 1, 53, 70
1, 14445, Note_on_c, 0, 58, 0
1, 14448, Note_on_c, 0, 57, 70
1, 14471, Note_on_c, 0, 57, 0
1, 14472, Note_on_c, 0, 60, 70
1, 14489, Note_on_c, 1, 53, 0
1, 14495, Note_on_c, 0, 60, 0
1, 14496, Note_on_c, 0, 58, 71
1, 14519, Note_on_c, 0, 58, 0
1, 14520, Note_on_c, 0, 61, 72
1, 14543, Note_on_c, 0, 61, 0
1, 14544, Note_on_c, 0, 60, 73
1, 14567, Note_on_c, 0, 60, 0
1, 14568, Note_on_c, 0, 63, 74
1, 14591, Note_on_c, 0, 63, 0
1, 14592, Note_on_c, 0, 61, 75
1, 14640, Note_on_c, 1, 46, 70
1, 14660, Note_on_c, 1, 46, 0
1, 14688, Note_on_c, 1, 51, 70
1, 14711, Note_on_c, 1, 51, 0
1, 14712, Note_on_c, 1, 49, 70
1, 14735, Note_on_c, 1, 49, 0
1, 14736, Note_on_c, 1, 48, 70
1, 14759, Note_on_c, 1, 48, 0
1, 14760, Note_on_c, 1, 46, 70
1, 14783, Note_on_c, 1, 46, 0
1, 14784, Note_on_c, 1, 54, 70
1, 14807, Note_on_c, 0, 61, 0
1, 14808, Note_on_c, 0, 58, 70
1, 14831, Note_on_c, 0, 58, 0
1, 14832, Note_on_c, 0, 60, 70
1, 14855, Note_on_c, 0, 60, 0
1, 14856, Note_on_c, 0, 61, 71
1, 14879, Note_on_c, 0, 61, 0
1, 14880, Note_on_c, 0, 63, 72
1, 14903, Note_on_c, 0, 63, 0
1, 14904, Note_on_c, 0, 65, 72
1, 14917, Note_on_c, 1, 54, 0
1, 14927, Note_on_c, 0, 65, 0
1, 14928, Note_on_c, 0, 66, 73
1, 14928, Note_on_c, 1, 51, 71
1, 14951, Note_on_c, 0, 66, 0
1, 14952, Note_on_c, 0, 63, 74
1, 14973, Note_on_c, 1, 51, 0
1, 14975, Note_on_c, 0, 63, 0
1, 14976, Note_on_c, 1, 56, 72
1, 15000, Note_on_c, 0, 60, 70
1, 15023, Note_on_c, 0, 60, 0
1, 15024, Note_on_c, 0, 61, 70
1, 15047, Note_on_c, 0, 61, 0
1, 15048, Note_on_c, 0, 63, 71
1, 15071, Note_on_c, 0, 63, 0
1, 15072, Note_on_c, 0, 65, 72
1, 15095, Note_on_c, 0, 65, 0
1, 15096, Note_on_c, 0, 66, 72
1, 15109, Note_on_c, 1, 56, 0
1, 15119, Note_on_c, 0, 66, 0
1, 15120, Note_on_c, 0, 68, 73
1, 15120, Note_on_c, 1, 53, 74
1, 15143, Note_on_c, 0, 68, 0
1, 15144, Note_on_c, 0, 65, 74
1, 15165, Note_on_c, 1, 53, 0
1, 15167, Note_on_c, 0, 65, 0
1, 15168, Note_on_c, 0, 61, 75
1, 15168, Note_on_c, 1, 58, 75
1, 15191, Note_on_c, 0, 61, 0
1, 15192, Note_on_c, 0, 66, 75
1, 15213, Note_on_c, 1, 58, 0
1, 15215, Note_on_c, 0, 66, 0
1, 15216, Note_on_c, 0, 70, 75
1, 15216, Note_on_c, 1, 53, 75
1, 15239, Note_on_c, 0, 70, 0
1, 15240, Note_on_c, 0, 66, 75
1, 15261, Note_on_c, 1, 53, 0
1, 15263, Note_on_c, 0, 66, 0
1, 15264, Note_on_c, 0, 63, 75
1, 15264, Note_on_c, 1, 60, 75
1, 15287, Note_on_c, 0, 63, 0
1, 15288, Note_on_c, 0, 66, 75
1, 15309, Note_on_c, 1, 60, 0
1, 15311, Note_on_c, 0, 66, 0
1, 15312, Note_on_c, 0, 68, 75
1, 15312, Note_on_c, 1, 56, 75
1, 15335, Note_on_c, 0, 68, 0
1, 15336, Note_on_c, 0, 66, 75
1, 15357, Note_on_c, 1, 56, 0
1, 15359, Note_on_c, 0, 66, 0
1, 15360, Note_on_c, 0, 65, 75
1, 15360, Note_on_c, 1, 61, 75
1, 15383, Note_on_c, 0, 65, 0
1, 15384, Note_on_c, 0, 68, 75
1, 15405, Note_on_c, 1, 61, 0
1, 15407, Note_on_c, 0, 68, 0
1, 15408, Note_on_c, 0, 73, 75
1, 15408, Note_on_c, 1, 56, 75
1, 15431, Note_on_c, 0, 73, 0
1, 15432, Note_on_c, 0, 68, 75
1, 15453, Note_on_c, 1, 56, 0
1, 15455, Note_on_c, 0, 68, 0
1, 15456, Note_on_c, 0, 66, 75
1, 15456, Note_on_c, 1, 60, 75
1, 15479, Note_on_c, 0, 66, 0
1, 15480, Note_on_c, 0, 68, 75
1, 15501, Note_on_c, 1, 60, 0
1, 15503, Note_on_c, 0, 68, 0
1, 15504, Note_on_c, 0, 75, 75
1, 15504, Note_on_c, 1, 56, 75
1, 15527, Note_on_c, 0, 75, 0
1, 15528, Note_on_c, 0, 68, 75
1, 15549, Note_on_c, 1, 56, 0
1, 15551, Note_on_c, 0, 68, 0
1, 15552, Note_on_c, 0, 65, 75
1, 15552, Note_on_c, 1, 61, 75
1, 15575, Note_on_c, 0, 65, 0
1, 15576, Note_on_c, 0, 68, 75
1, 15597, Note_on_c, 1, 61, 0
1, 15599, Note_on_c, 0, 68, 0
1, 15600, Note_on_c, 0, 73, 75
1, 15600, Note_on_c, 1, 56, 75
1, 15623, Note_on_c, 0, 73, 0
1, 15624, Note_on_c, 0, 68, 75
1, 15645, Note_on_c, 1, 56, 0
1, 15647, Note_on_c, 0, 68, 0
1, 15648, Note_on_c, 0, 66, 75
1, 15648, Note_on_c, 1, 60, 75
1, 15671, Note_on_c, 0, 66, 0
1, 15672, Note_on_c, 0, 68, 75
1, 15693, Note_on_c, 1, 60, 0
1, 15695, Note_on_c, 0, 68, 0
1, 15696, Note_on_c, 0, 75, 75
1, 15696, Note_on_c, 1, 56, 75
1, 15719, Note_on_c, 0, 75, 0
1, 15720, Note_on_c, 0, 66, 75
1, 15741, Note_on_c, 1, 56, 0
1, 15743, Note_on_c, 0, 66, 0
1, 15744, Note_on_c, 0, 65, 75
1, 15744, Note_on_c, 1, 61, 75
1, 15767, Note_on_c, 0, 65, 0
1, 15768, Note_on_c, 0, 68, 75
1, 15789, Note_on_c, 1, 61, 0
1, 15791, Note_on_c, 0, 68, 0
1, 15792, Note_on_c, 0, 73, 75
1, 15792, Note_on_c, 1, 49, 75
1, 15815, Note_on_c, 0, 73, 0
1, 15816, Note_on_c, 0, 68, 75
1, 15837, Note_on_c, 1, 49, 0
1, 15839, Note_on_c, 0, 68, 0
1, 15840, Note_on_c, 0, 65, 76
1, 15840, Note_on_c, 1, 59, 76
1, 15863, Note_on_c, 0, 65, 0
1, 15864, Note_on_c, 0, 68, 76
1, 15885, Note_on_c, 1, 59, 0
1, 15887, Note_on_c, 0, 68, 0
1, 15888, Note_on_c, 0, 74, 76
1, 15888, Note_on_c, 1, 47, 76
1, 15911, Note_on_c, 0, 74, 0
1, 15912, Note_on_c, 0, 68, 77
1, 15933, Note_on_c, 1, 47, 0
1, 15935, Note_on_c, 0, 68, 0
1, 15936, Note_on_c, 0, 66, 77
1, 15936, Note_on_c, 1, 58, 77
1, 15959, Note_on_c, 0, 66, 0
1, 15960, Note_on_c, 0, 70, 77
1, 15981, Note_on_c, 1, 58, 0
1, 15983, Note_on_c, 0, 70, 0
1, 15984, Note_on_c, 0, 73, 77
1, 15984, Note_on_c, 1, 46, 77
1, 16007, Note_on_c, 0, 73, 0
1, 16008, Note_on_c, 0, 70, 78
1, 16029, Note_on_c, 1, 46, 0
1, 16031, Note_on_c, 0, 70, 0
1, 16032, Note_on_c, 0, 66, 78
1, 16032, Note_on_c, 1, 57, 78
1, 16055, Note_on_c, 0, 66, 0
1, 16056, Note_on_c, 0, 73, 78
1, 16077, Note_on_c, 1, 57, 0
1, 16079, Note_on_c, 0, 73, 0
1, 16080, Note_on_c, 0, 78, 79
1, 16080, Note_on_c, 1, 45, 78
1, 16103, Note_on_c, 0, 78, 0
1, 16104, Note_on_c, 0, 73, 79
1, 16125, Note_on_c, 1, 45, 0
1, 16127, Note_on_c, 0, 73, 0
1, 16128, Note_on_c, 0, 72, 79
1, 16128, Note_on_c, 1, 56, 79
1, 16151, Note_on_c, 0, 72, 0
1, 16152, Note_on_c, 0, 75, 80
1, 16173, Note_on_c, 1, 56, 0
1, 16175, Note_on_c, 0, 75, 0
1, 16176, Note_on_c, 0, 78, 80
1, 16176, Note_on_c, 1, 44, 80
1, 16199, Note_on_c, 0, 78, 0
1, 16200, Note_on_c, 0, 75, 80
1, 16221, Note_on_c, 1, 44, 0
1, 16223, Note_on_c, 0, 75, 0
1, 16224, Note_on_c, 0, 73, 80
1, 16224, Note_on_c, 1, 58, 80
1, 16247, Note_on_c, 0, 73, 0
1, 16248, Note_on_c, 0, 77, 79
1, 16269, Note_on_c, 1, 58, 0
1, 16271, Note_on_c, 0, 77, 0
1, 16272, Note_on_c, 0, 73, 78
1, 16272, Note_on_c, 1, 46, 78
1, 16295, Note_on_c, 0, 73, 0
1, 16296, Note_on_c, 0, 77, 77
1, 16317, Note_on_c, 1, 46, 0
1, 16319, Note_on_c, 0, 77, 0
1, 16320, Note_on_c, 0, 73, 76
1, 16320, Note_on_c, 1, 54, 76
1, 16343, Note_on_c, 0, 73, 0
1, 16344, Note_on_c, 0, 75, 75
1, 16365, Note_on_c, 1, 54, 0
1, 16367, Note_on_c, 0, 75, 0
1, 16368, Note_on_c, 0, 73, 75
1, 16368, Note_on_c, 1, 42, 75
1, 16391, Note_on_c, 0, 73, 0
1, 16392, Note_on_c, 0, 75, 74
1, 16413, Note_on_c, 1, 42, 0
1, 16415, Note_on_c, 0, 75, 0
1, 16416, Note_on_c, 0, 72, 73
1, 16416, Note_on_c, 1, 56, 73
1, 16439, Note_on_c, 0, 72, 0
1, 16440, Note_on_c, 0, 75, 72
1, 16461, Note_on_c, 1, 56, 0
1, 16463, Note_on_c, 0, 75, 0
1, 16464, Note_on_c, 0, 72, 71
1, 16464, Note_on_c, 1, 44, 71
1, 16487, Note_on_c, 0, 72, 0
1, 16488, Note_on_c, 0, 75, 70
1, 16509, Note_on_c, 1, 44, 0
1, 16511, Note_on_c, 0, 75, 0
1, 16512, Note_on_c, 0, 73, 70
1, 16512, Note_on_c, 1, 49, 70
1, 16557, Note_on_c, 1, 49, 0
1, 16560, Note_on_c, 1, 44, 70
1, 16601, Note_on_c, 0, 73, 0
1, 16605, Note_on_c, 1, 44, 0
1, 16608, Note_on_c, 1, 37, 70
1, 16653, Note_on_c, 1, 37, 0
1, 16656, Note_on_c, 0, 68, 75
1, 16676, Note_on_c, 0, 68, 0
1, 16704, Note_on_c, 0, 73, 91
1, 16704, Note_on_c, 0, 65, 91
1, 16752, Note_on_c, 1, 49, 75
1, 16772, Note_on_c, 1, 49, 0
1, 16800, Note_on_c, 1, 54, 75
1, 16823, Note_on_c, 1, 54, 0
1, 16824, Note_on_c, 1, 53, 75
1, 16847, Note_on_c, 1, 53, 0
1, 16848, Note_on_c, 1, 51, 75
1, 16871, Note_on_c, 1, 51, 0
1, 16872, Note_on_c, 1, 49, 75
1, 16895, Note_on_c, 1, 49, 0
1, 16896, Note_on_c, 0, 65, 0
1, 16896, Note_on_c, 0, 63, 75
1, 16896, Note_on_c, 1, 56, 75
1, 16941, Note_on_c, 0, 73, 0
1, 16941, Note_on_c, 0, 63, 0
1, 16944, Note_on_c, 0, 72, 75
1, 16944, Note_on_c, 0, 68, 75
1, 16985, Note_on_c, 1, 56, 0
1, 16989, Note_on_c, 0, 72, 0
1, 16989, Note_on_c, 0, 68, 0
1, 16992, Note_on_c, 0, 73, 76
1, 16992, Note_on_c, 0, 70, 76
1, 17037, Note_on_c, 0, 73, 0
1, 17037, Note_on_c, 0, 70, 0
1, 17040, Note_on_c, 0, 75, 78
1, 17040, Note_on_c, 0, 72, 78
1, 17060, Note_on_c, 0, 75, 0
1, 17060, Note_on_c, 0, 72, 0
1, 17088, Note_on_c, 0, 77, 96
1, 17088, Note_on_c, 0, 73, 96
1, 17136, Note_on_c, 1, 61, 75
1, 17156, Note_on_c, 1, 61, 0
1, 17184, Note_on_c, 1, 60, 75
1, 17207, Note_on_c, 1, 60, 0
1, 17208, Note_on_c, 1, 58, 75
1, 17231, Note_on_c, 1, 58, 0
1, 17232, Note_on_c, 1, 56, 75
1, 17255, Note_on_c, 1, 56, 0
1, 17256, Note_on_c, 1, 55, 75
1, 17279, Note_on_c, 1, 55, 0
1, 17280, Note_on_c, 1, 56, 75
1, 17325, Note_on_c, 0, 77, 0
1, 17325, Note_on_c, 0, 73, 0
1, 17328, Note_on_c, 0, 75, 80
1, 17328, Note_on_c, 0, 72, 80
1, 17373, Note_on_c, 0, 75, 0
1, 17373, Note_on_c, 0, 72, 0
1, 17376, Note_on_c, 0, 77, 82
1, 17376, Note_on_c, 0, 73, 82
1, 17413, Note_on_c, 1, 56, 0
1, 17421, Note_on_c, 0, 77, 0
1, 17421, Note_on_c, 0, 73, 0
1, 17424, Note_on_c, 0, 78, 84
1, 17424, Note_on_c, 0, 75, 84
1, 17424, Note_on_c, 1, 54, 78
1, 17469, Note_on_c, 0, 78, 0
1, 17469, Note_on_c, 0, 75, 0
1, 17469, Note_on_c, 1, 54, 0
1, 17472, Note_on_c, 0, 80, 102
1, 17472, Note_on_c, 0, 75, 64
1, 17496, Note_on_c, 1, 53, 80
1, 17519, Note_on_c, 1, 53, 0
1, 17520, Note_on_c, 1, 54, 80
1, 17543, Note_on_c, 1, 54, 0
1, 17544, Note_on_c, 1, 56, 80
1, 17561, Note_on_c, 0, 75, 0
1, 17567, Note_on_c, 1, 56, 0
1, 17568, Note_on_c, 0, 73, 64
1, 17568, Note_on_c, 1, 58, 80
1, 17591, Note_on_c, 1, 58, 0
1, 17592, Note_on_c, 1, 56, 80
1, 17615, Note_on_c, 1, 56, 0
1, 17616, Note_on_c, 1, 58, 80
1, 17639, Note_on_c, 1, 58, 0
1, 17640, Note_on_c, 1, 46, 80
1, 17657, Note_on_c, 0, 73, 0
1, 17663, Note_on_c, 1, 46, 0
1, 17664, Note_on_c, 0, 80, 0
1, 17664, Note_on_c, 0, 78, 86
1, 17664, Note_on_c, 0, 73, 64
1, 17688, Note_on_c, 1, 51, 80
1, 17711, Note_on_c, 1, 51, 0
1, 17712, Note_on_c, 1, 53, 80
1, 17735, Note_on_c, 1, 53, 0
1, 17736, Note_on_c, 1, 54, 80
1, 17753, Note_on_c, 0, 73, 0
1, 17759, Note_on_c, 1, 54, 0
1, 17760, Note_on_c, 0, 72, 64
1, 17760, Note_on_c, 1, 56, 80
1, 17783, Note_on_c, 1, 56, 0
1, 17784, Note_on_c, 1, 54, 80
1, 17807, Note_on_c, 1, 54, 0
1, 17808, Note_on_c, 1, 56, 80
1, 17831, Note_on_c, 1, 56, 0
1, 17832, Note_on_c, 1, 44, 80
1, 17841, Note_on_c, 0, 78, 0
1, 17849, Note_on_c, 0, 72, 0
1, 17855, Note_on_c, 1, 44, 0
1, 17856, Note_on_c, 0, 77, 86
1, 17856, Note_on_c, 0, 72, 64
1, 17880, Note_on_c, 1, 49, 80
1, 17903, Note_on_c, 1, 49, 0
1, 17904, Note_on_c, 1, 51, 80
1, 17927, Note_on_c, 1, 51, 0
1, 17928, Note_on_c, 1, 53, 80
1, 17945, Note_on_c, 0, 72, 0
1, 17951, Note_on_c, 1, 53, 0
1, 17952, Note_on_c, 0, 70, 64
1, 17952, Note_on_c, 1, 54, 80
1, 17975, Note_on_c, 1, 54, 0
1, 17976, Note_on_c, 1, 56, 80
1, 17999, Note_on_c, 1, 56, 0
1, 18000, Note_on_c, 1, 58, 80
1, 18023, Note_on_c, 1, 58, 0
1, 18024, Note_on_c, 1, 54, 80
1, 18033, Note_on_c, 0, 77, 0
1, 18041, Note_on_c, 0, 70, 0
1, 18047, Note_on_c, 1, 54, 0
1, 18048, Note_on_c, 0, 75, 86
1, 18048, Note_on_c, 0, 70, 64
1, 18072, Note_on_c, 1, 60, 80
1, 18095, Note_on_c, 1, 60, 0
1, 18096, Note_on_c, 1, 61, 80
1, 18119, Note_on_c, 1, 61, 0
1, 18120, Note_on_c, 1, 63, 80
1, 18137, Note_on_c, 0, 70, 0
1, 18143, Note_on_c, 1, 63, 0
1, 18144, Note_on_c, 0, 69, 64
1, 18144, Note_on_c, 1, 65, 80
1, 18167, Note_on_c, 0, 69, 0
1, 18168, Note_on_c, 0, 70, 64
1, 18191, Note_on_c, 0, 70, 0
1, 18192, Note_on_c, 0, 72, 64
1, 18215, Note_on_c, 0, 72, 0
1, 18216, Note_on_c, 0, 69, 64
1, 18225, Note_on_c, 0, 75, 0
1, 18233, Note_on_c, 1, 65, 0
1, 18239, Note_on_c, 0, 69, 0
1, 18240, Note_on_c, 0, 73, 86
1, 18240, Note_on_c, 1, 65, 80
1, 18240, Note_on_c, 1, 58, 75
1, 18263, Note_on_c, 0, 73, 0
1, 18264, Note_on_c, 0, 75, 85
1, 18287, Note_on_c, 0, 75, 0
1, 18288, Note_on_c, 0, 77, 85
1, 18311, Note_on_c, 0, 77, 0
1, 18312, Note_on_c, 0, 73, 84
1, 18329, Note_on_c, 1, 58, 0
1, 18335, Note_on_c, 0, 73, 0
1, 18336, Note_on_c, 0, 72, 84
1, 18336, Note_on_c, 1, 56, 73
1, 18359, Note_on_c, 0, 72, 0
1, 18360, Note_on_c, 0, 75, 84
1, 18383, Note_on_c, 0, 75, 0
1, 18384, Note_on_c, 0, 73, 83
1, 18407, Note_on_c, 0, 73, 0
1, 18408, Note_on_c, 0, 72, 83
1, 18425, Note_on_c, 1, 56, 0
1, 18431, Note_on_c, 0, 72, 0
1, 18432, Note_on_c, 0, 70, 83
1, 18432, Note_on_c, 1, 54, 72
1, 18455, Note_on_c, 0, 70, 0
1, 18456, Note_on_c, 0, 69, 82
1, 18479, Note_on_c, 0, 69, 0
1, 18480, Note_on_c, 0, 70, 82
1, 18503, Note_on_c, 0, 70, 0
1, 18504, Note_on_c, 0, 69, 81
1, 18521, Note_on_c, 1, 65, 0
1, 18527, Note_on_c, 0, 69, 0
1, 18528, Note_on_c, 0, 70, 81
1, 18528, Note_on_c, 1, 64, 75
1, 18551, Note_on_c, 0, 70, 0
1, 18552, Note_on_c, 0, 73, 81
1, 18575, Note_on_c, 0, 73, 0
1, 18576, Note_on_c, 0, 72, 80
1, 18599, Note_on_c, 0, 72, 0
1, 18600, Note_on_c, 0, 70, 80
1, 18609, Note_on_c, 1, 54, 0
1, 18617, Note_on_c, 1, 64, 0
1, 18623, Note_on_c, 0, 70, 0
1, 18624, Note_on_c, 0, 69, 80
1, 18624, Note_on_c, 1, 65, 80
1, 18624, Note_on_c, 1, 53, 80
1, 18669, Note_on_c, 0, 69, 0
1, 18669, Note_on_c, 1, 65, 0
1, 18669, Note_on_c, 1, 53, 0
1, 18672, Note_on_c, 0, 77, 80
1, 18672, Note_on_c, 1, 53, 121
1, 18672, Note_on_c, 1, 53, 121
1, 18695, Note_on_c, 0, 77, 0
1, 18696, Note_on_c, 0, 65, 80
1, 18717, Note_on_c, 1, 53, 0
1, 18719, Note_on_c, 0, 65, 0
1, 18720, Note_on_c, 0, 76, 80
1, 18720, Note_on_c, 1, 55, 80
1, 18743, Note_on_c, 0, 76, 0
1, 18744, Note_on_c, 0, 65, 80
1, 18765, Note_on_c, 1, 55, 0
1, 18767, Note_on_c, 0, 65, 0
1, 18768, Note_on_c, 0, 75, 80
1, 18768, Note_on_c, 1, 57, 80
1, 18791, Note_on_c, 0, 75, 0
1, 18792, Note_on_c, 0, 65, 80
1, 18813, Note_on_c, 1, 57, 0
1, 18815, Note_on_c, 0, 65, 0
1, 18816, Note_on_c, 0, 74, 80
1, 18816, Note_on_c, 1, 58, 80
1, 18839, Note_on_c, 0, 74, 0
1, 18840, Note_on_c, 0, 65, 80
1, 18861, Note_on_c, 1, 58, 0
1, 18863, Note_on_c, 0, 65, 0
1, 18864, Note_on_c, 0, 73, 80
1, 18864, Note_on_c, 1, 58, 80
1, 18887, Note_on_c, 0, 73, 0
1, 18888, Note_on_c, 0, 65, 80
1, 18909, Note_on_c, 1, 58, 0
1, 18911, Note_on_c, 0, 65, 0
1, 18912, Note_on_c, 0, 72, 80
1, 18912, Note_on_c, 1, 60, 80
1, 18935, Note_on_c, 0, 72, 0
1, 18936, Note_on_c, 0, 65, 80
1, 18957, Note_on_c, 1, 60, 0
1, 18959, Note_on_c, 0, 65, 0
1, 18960, Note_on_c, 0, 70, 80
1, 18960, Note_on_c, 1, 61, 80
1, 18983, Note_on_c, 0, 70, 0
1, 18984, Note_on_c, 0, 65, 80
1, 19005, Note_on_c, 1, 61, 0
1, 19007, Note_on_c, 0, 65, 0
1, 19008, Note_on_c, 0, 69, 80
1, 19008, Note_on_c, 1, 60, 80
1, 19031, Note_on_c, 0, 69, 0
1, 19032, Note_on_c, 0, 65, 80
1, 19053, Note_on_c, 1, 60, 0
1, 19053, Note_on_c, 1, 53, 0
1, 19055, Note_on_c, 0, 65, 0
1, 19056, Note_on_c, 0, 77, 80
1, 19056, Note_on_c, 1, 53, 127
1, 19056, Note_on_c, 1, 53, 121
1, 19079, Note_on_c, 0, 77, 0
1, 19080, Note_on_c, 0, 65, 80
1, 19103, Note_on_c, 0, 65, 0
1, 19104, Note_on_c, 0, 76, 80
1, 19104, Note_on_c, 1, 53, 0
1, 19104, Note_on_c, 1, 55, 80
1, 19127, Note_on_c, 0, 76, 0
1, 19128, Note_on_c, 0, 65, 80
1, 19149, Note_on_c, 1, 55, 0
1, 19151, Note_on_c, 0, 65, 0
1, 19152, Note_on_c, 0, 75, 80
1, 19152, Note_on_c, 1, 57, 80
1, 19175, Note_on_c, 0, 75, 0
1, 19176, Note_on_c, 0, 65, 80
1, 19197, Note_on_c, 1, 57, 0
1, 19199, Note_on_c, 0, 65, 0
1, 19200, Note_on_c, 0, 74, 80
1, 19200, Note_on_c, 1, 58, 80
1, 19223, Note_on_c, 0, 74, 0
1, 19224, Note_on_c, 0, 65, 80
1, 19245, Note_on_c, 1, 58, 0
1, 19247, Note_on_c, 0, 65, 0
1, 19248, Note_on_c, 0, 73, 80
1, 19248, Note_on_c, 1, 58, 80
1, 19271, Note_on_c, 0, 73, 0
1, 19272, Note_on_c, 0, 65, 80
1, 19293, Note_on_c, 1, 58, 0
1, 19295, Note_on_c, 0, 65, 0
1, 19296, Note_on_c, 0, 72, 80
1, 19296, Note_on_c, 1, 60, 80
1, 19319, Note_on_c, 0, 72, 0
1, 19320, Note_on_c, 0, 65, 80
1, 19341, Note_on_c, 1, 60, 0
1, 19343, Note_on_c, 0, 65, 0
1, 19344, Note_on_c, 0, 70, 80
1, 19344, Note_on_c, 1, 61, 80
1, 19367, Note_on_c, 0, 70, 0
1, 19368, Note_on_c, 0, 65, 80
1, 19389, Note_on_c, 1, 61, 0
1, 19391, Note_on_c, 0, 65, 0
1, 19392, Note_on_c, 0, 69, 80
1, 19392, Note_on_c, 1, 60, 80
1, 19415, Note_on_c, 0, 69, 0
1, 19416, Note_on_c, 0, 65, 80
1, 19437, Note_on_c, 1, 60, 0
1, 19437, Note_on_c, 1, 53, 0
1, 19439, Note_on_c, 0, 65, 0
1, 19440, Note_on_c, 0, 77, 80
1, 19440, Note_on_c, 1, 53, 127
1, 19440, Note_on_c, 1, 53, 121
1, 19463, Note_on_c, 0, 77, 0
1, 19464, Note_on_c, 0, 65, 80
1, 19487, Note_on_c, 0, 65, 0
1, 19488, Note_on_c, 0, 76, 80
1, 19488, Note_on_c, 1, 53, 0
1, 19488, Note_on_c, 1, 55, 80
1, 19511, Note_on_c, 0, 76, 0
1, 19512, Note_on_c, 0, 65, 80
1, 19533, Note_on_c, 1, 55, 0
1, 19535, Note_on_c, 0, 65, 0
1, 19536, Note_on_c, 0, 75, 80
1, 19536, Note_on_c, 1, 57, 80
1, 19559, Note_on_c, 0, 75, 0
1, 19560, Note_on_c, 0, 65, 80
1, 19581, Note_on_c, 1, 57, 0
1, 19583, Note_on_c, 0, 65, 0
1, 19584, Note_on_c, 0, 74, 80
1, 19584, Note_on_c, 1, 58, 80
1, 19607, Note_on_c, 0, 74, 0
1, 19608, Note_on_c, 0, 65, 80
1, 19629, Note_on_c, 1, 58, 0
1, 19631, Note_on_c, 0, 65, 0
1, 19632, Note_on_c, 0, 73, 80
1, 19632, Note_on_c, 1, 58, 80
1, 19655, Note_on_c, 0, 73, 0
1, 19656, Note_on_c, 0, 65, 80
1, 19677, Note_on_c, 1, 58, 0
1, 19679, Note_on_c, 0, 65, 0
1, 19680, Note_on_c, 0, 72, 80
1, 19680, Note_on_c, 1, 60, 80
1, 19703, Note_on_c, 0, 72, 0
1, 19704, Note_on_c, 0, 65, 80
1, 19725, Note_on_c, 1, 60, 0
1, 19727, Note_on_c, 0, 65, 0
1, 19728, Note_on_c, 0, 70, 80
1, 19728, Note_on_c, 1, 61, 80
1, 19751, Note_on_c, 0, 70, 0
1, 19752, Note_on_c, 0, 65, 80
1, 19761, Note_on_c, 1, 53, 0
1, 19773, Note_on_c, 1, 61, 0
1, 19775, Note_on_c, 0, 65, 0
1, 19776, Note_on_c, 0, 69, 80
1, 19776, Note_on_c, 1, 60, 80
1, 19776, Note_on_c, 1, 53, 80
1, 19799, Note_on_c, 0, 69, 0
1, 19800, Note_on_c, 0, 65, 79
1, 19821, Note_on_c, 1, 60, 0
1, 19823, Note_on_c, 0, 65, 0
1, 19824, Note_on_c, 0, 70, 78
1, 19824, Note_on_c, 1, 61, 78
1, 19847, Note_on_c, 0, 70, 0
1, 19848, Note_on_c, 0, 65, 78
1, 19869, Note_on_c, 1, 61, 0
1, 19871, Note_on_c, 0, 65, 0
1, 19872, Note_on_c, 0, 69, 77
1, 19872, Note_on_c, 1, 60, 77
1, 19895, Note_on_c, 0, 69, 0
1, 19896, Note_on_c, 0, 65, 76
1, 19917, Note_on_c, 1, 60, 0
1, 19919, Note_on_c, 0, 65, 0
1, 19920, Note_on_c, 0, 70, 76
1, 19920, Note_on_c, 1, 61, 76
1, 19943, Note_on_c, 0, 70, 0
1, 19944, Note_on_c, 0, 65, 75
1, 19953, Note_on_c, 1, 53, 0
1, 19965, Note_on_c, 1, 61, 0
1, 19967, Note_on_c, 0, 65, 0
1, 19968, Note_on_c, 0, 69, 75
1, 19968, Note_on_c, 1, 60, 75
1, 19968, Note_on_c, 1, 53, 75
1, 20057, Note_on_c, 0, 69, 0
1, 20057, Note_on_c, 1, 60, 0
1, 20057, Note_on_c, 1, 53, 0
1, 20112, Note_on_c, 0, 65, 75
1, 20132, Note_on_c, 0, 65, 0
1, 20160, Note_on_c, 0, 70, 91
1, 20208, Note_on_c, 1, 58, 75
1, 20253, Note_on_c, 1, 58, 0
1, 20256, Note_on_c, 1, 63, 75
1, 20279, Note_on_c, 1, 63, 0
1, 20280, Note_on_c, 1, 62, 75
1, 20303, Note_on_c, 1, 62, 0
1, 20304, Note_on_c, 1, 60, 75
1, 20327, Note_on_c, 1, 60, 0
1, 20328, Note_on_c, 1, 58, 75
1, 20351, Note_on_c, 1, 58, 0
1, 20352, Note_on_c, 1, 65, 75
1, 20397, Note_on_c, 0, 70, 0
1, 20400, Note_on_c, 0, 69, 75
1, 20420, Note_on_c, 0, 69, 0
1, 20441, Note_on_c, 1, 65, 0
1, 20448, Note_on_c, 0, 72, 75
1, 20468, Note_on_c, 0, 72, 0
1, 20496, Note_on_c, 0, 65, 75
1, 20516, Note_on_c, 0, 65, 0
1, 20544, Note_on_c, 0, 74, 91
1, 20544, Note_on_c, 0, 70, 91
1, 20568, Note_on_c, 1, 58, 75
1, 20591, Note_on_c, 1, 58, 0
1, 20592, Note_on_c, 1, 60, 76
1, 20615, Note_on_c, 1, 60, 0
1, 20616, Note_on_c, 1, 62, 78
1, 20639, Note_on_c, 1, 62, 0
1, 20640, Note_on_c, 1, 60, 80
1, 20663, Note_on_c, 1, 60, 0
1, 20664, Note_on_c, 1, 58, 78
1, 20687, Note_on_c, 1, 58, 0
1, 20688, Note_on_c, 1, 57, 77
1, 20711, Note_on_c, 1, 57, 0
1, 20712, Note_on_c, 1, 55, 76
1, 20735, Note_on_c, 1, 55, 0
1, 20736, Note_on_c, 1, 53, 75
1, 20781, Note_on_c, 0, 74, 0
1, 20781, Note_on_c, 0, 70, 0
1, 20784, Note_on_c, 0, 72, 75
1, 20784, Note_on_c, 0, 69, 75
1, 20804, Note_on_c, 0, 72, 0
1, 20804, Note_on_c, 0, 69, 0
1, 20825, Note_on_c, 1, 53, 0
1, 20832, Note_on_c, 0, 75, 75
1, 20832, Note_on_c, 0, 72, 75
1, 20852, Note_on_c, 0, 75, 0
1, 20852, Note_on_c, 0, 72, 0
1, 20880, Note_on_c, 0, 65, 75
1, 20900, Note_on_c, 0, 65, 0
1, 20928, Note_on_c, 0, 77, 75
1, 20928, Note_on_c, 0, 74, 64
1, 20952, Note_on_c, 1, 68, 75
1, 20975, Note_on_c, 1, 68, 0
1, 20976, Note_on_c, 1, 67, 75
1, 20999, Note_on_c, 1, 67, 0
1, 21000, Note_on_c, 1, 65, 75
1, 21023, Note_on_c, 1, 65, 0
1, 21024, Note_on_c, 1, 63, 75
1, 21047, Note_on_c, 1, 63, 0
1, 21048, Note_on_c, 1, 62, 75
1, 21061, Note_on_c, 0, 77, 0
1, 21071, Note_on_c, 1, 62, 0
1, 21072, Note_on_c, 0, 79, 78
1, 21072, Note_on_c, 1, 60, 75
1, 21095, Note_on_c, 1, 60, 0
1, 21096, Note_on_c, 1, 59, 75
1, 21117, Note_on_c, 0, 79, 0
1, 21119, Note_on_c, 1, 59, 0
1, 21120, Note_on_c, 0, 77, 79
1, 21120, Note_on_c, 1, 60, 75
1, 21165, Note_on_c, 0, 77, 0
1, 21165, Note_on_c, 0, 74, 0
1, 21168, Note_on_c, 0, 76, 80
1, 21168, Note_on_c, 0, 67, 64
1, 21209, Note_on_c, 1, 60, 0
1, 21213, Note_on_c, 0, 76, 0
1, 21213, Note_on_c, 0, 67, 0
1, 21216, Note_on_c, 0, 75, 80
1, 21216, Note_on_c, 0, 72, 64
1, 21216, Note_on_c, 1, 57, 75
1, 21261, Note_on_c, 0, 75, 0
1, 21261, Note_on_c, 0, 72, 0
1, 21261, Note_on_c, 1, 57, 0
1, 21264, Note_on_c, 0, 74, 80
1, 21264, Note_on_c, 0, 65, 64
1, 21264, Note_on_c, 1, 58, 75
1, 21309, Note_on_c, 0, 65, 0
1, 21309, Note_on_c, 1, 58, 0
1, 21312, Note_on_c, 0, 67, 64
1, 21312, Note_on_c, 1, 51, 75
1, 21357, Note_on_c, 0, 74, 0
1, 21360, Note_on_c, 0, 72, 80
1, 21405, Note_on_c, 0, 72, 0
1, 21408, Note_on_c, 0, 77, 80
1, 21431, Note_on_c, 0, 77, 0
1, 21432, Note_on_c, 0, 75, 79
1, 21445, Note_on_c, 0, 67, 0
1, 21455, Note_on_c, 0, 75, 0
1, 21456, Note_on_c, 0, 74, 78
1, 21456, Note_on_c, 0, 63, 64
1, 21479, Note_on_c, 0, 74, 0
1, 21480, Note_on_c, 0, 72, 78
1, 21489, Note_on_c, 1, 51, 0
1, 21501, Note_on_c, 0, 63, 0
1, 21503, Note_on_c, 0, 72, 0
1, 21504, Note_on_c, 0, 70, 77
1, 21504, Note_on_c, 1, 62, 75
1, 21504, Note_on_c, 1, 53, 75
1, 21600, Note_on_c, 0, 70, 0
1, 21600, Note_on_c, 0, 69, 75
1, 21600, Note_on_c, 1, 62, 0
1, 21600, Note_on_c, 1, 60, 75
1, 21623, Note_on_c, 0, 69, 0
1, 21624, Note_on_c, 0, 65, 75
1, 21645, Note_on_c, 1, 60, 0
1, 21645, Note_on_c, 1, 53, 0
1, 21647, Note_on_c, 0, 65, 0
1, 21648, Note_on_c, 0, 67, 75
1, 21660, Note_on_c, 0, 67, 0
1, 21660, Note_on_c, 0, 65, 75
1, 21672, Note_on_c, 0, 65, 0
1, 21672, Note_on_c, 0, 63, 75
1, 21684, Note_on_c, 0, 63, 0
1, 21684, Note_on_c, 0, 65, 75
1, 21696, Note_on_c, 0, 65, 0
1, 21696, Note_on_c, 1, 46, 96
1, 21720, Note_on_c, 1, 46, 0
1, 21720, Note_on_c, 1, 50, 80
1, 21743, Note_on_c, 1, 50, 0
1, 21744, Note_on_c, 1, 53, 80
1, 21767, Note_on_c, 1, 53, 0
1, 21768, Note_on_c, 1, 58, 80
1, 21791, Note_on_c, 1, 58, 0
1, 21792, Note_on_c, 0, 62, 80
1, 21815, Note_on_c, 0, 62, 0
1, 21816, Note_on_c, 0, 65, 80
1, 21839, Note_on_c, 0, 65, 0
1, 21840, Note_on_c, 0, 69, 80
1, 21863, Note_on_c, 0, 69, 0
1, 21864, Note_on_c, 0, 70, 80
1, 21887, Note_on_c, 0, 70, 0
1, 21888, Note_on_c, 0, 70, 80
1, 21888, Note_on_c, 1, 60, 80
1, 21888, Note_on_c, 1, 53, 80
1, 21911, Note_on_c, 0, 70, 0
1, 21912, Note_on_c, 0, 69, 80
1, 21935, Note_on_c, 0, 69, 0
1, 21936, Note_on_c, 0, 74, 80
1, 21959, Note_on_c, 0, 74, 0
1, 21960, Note_on_c, 0, 72, 80
1, 21977, Note_on_c, 1, 60, 0
1, 21977, Note_on_c, 1, 53, 0
1, 21983, Note_on_c, 0, 72, 0
1, 21984, Note_on_c, 0, 70, 80
1, 22007, Note_on_c, 0, 70, 0
1, 22008, Note_on_c, 0, 69, 80
1, 22031, Note_on_c, 0, 69, 0
1, 22032, Note_on_c, 0, 67, 80
1, 22055, Note_on_c, 0, 67, 0
1, 22056, Note_on_c, 0, 65, 80
1, 22079, Note_on_c, 0, 65, 0
1, 22080, Note_on_c, 1, 58, 80
1, 22103, Note_on_c, 1, 58, 0
1, 22104, Note_on_c, 1, 62, 80
1, 22127, Note_on_c, 1, 62, 0
1, 22128, Note_on_c, 1, 65, 80
1, 22151, Note_on_c, 1, 65, 0
1, 22152, Note_on_c, 0, 69, 80
1, 22175, Note_on_c, 0, 69, 0
1, 22176, Note_on_c, 0, 70, 80
1, 22199, Note_on_c, 0, 70, 0
1, 22200, Note_on_c, 0, 72, 80
1, 22223, Note_on_c, 0, 72, 0
1, 22224, Note_on_c, 0, 74, 80
1, 22247, Note_on_c, 0, 74, 0
1, 22248, Note_on_c, 0, 75, 80
1, 22271, Note_on_c, 0, 75, 0
1, 22272, Note_on_c, 0, 77, 80
1, 22272, Note_on_c, 1, 63, 80
1, 22272, Note_on_c, 1, 60, 80
1, 22295, Note_on_c, 0, 77, 0
1, 22296, Note_on_c, 0, 75, 80
1, 22319, Note_on_c, 0, 75, 0
1, 22320, Note_on_c, 0, 74, 80
1, 22343, Note_on_c, 0, 74, 0
1, 22344, Note_on_c, 0, 72, 80
1, 22361, Note_on_c, 1, 63, 0
1, 22361, Note_on_c, 1, 60, 0
1, 22367, Note_on_c, 0, 72, 0
1, 22368, Note_on_c, 0, 74, 80
1, 22391, Note_on_c, 0, 74, 0
1, 22392, Note_on_c, 0, 72, 80
1, 22415, Note_on_c, 0, 72, 0
1, 22416, Note_on_c, 0, 70, 80
1, 22439, Note_on_c, 0, 70, 0
1, 22440, Note_on_c, 0, 69, 80
1, 22463, Note_on_c, 0, 69, 0
1, 22464, Note_on_c, 0, 77, 75
1, 22464, Note_on_c, 0, 74, 64
1, 22488, Note_on_c, 1, 68, 80
1, 22511, Note_on_c, 1, 68, 0
1, 22512, Note_on_c, 1, 67, 80
1, 22535, Note_on_c, 1, 67, 0
1, 22536, Note_on_c, 1, 65, 80
1, 22559, Note_on_c, 1, 65, 0
1, 22560, Note_on_c, 1, 63, 80
1, 22583, Note_on_c, 1, 63, 0
1, 22584, Note_on_c, 1, 62, 80
1, 22597, Note_on_c, 0, 77, 0
1, 22607, Note_on_c, 1, 62, 0
1, 22608, Note_on_c, 0, 79, 75
1, 22608, Note_on_c, 1, 60, 80
1, 22631, Note_on_c, 1, 60, 0
1, 22632, Note_on_c, 1, 59, 80
1, 22641, Note_on_c, 0, 74, 0
1, 22653, Note_on_c, 0, 79, 0
1, 22655, Note_on_c, 1, 59, 0
1, 22656, Note_on_c, 0, 77, 77
1, 22656, Note_on_c, 0, 74, 64
1, 22656, Note_on_c, 1, 60, 80
1, 22679, Note_on_c, 0, 74, 0
1, 22680, Note_on_c, 0, 67, 64
1, 22701, Note_on_c, 0, 77, 0
1, 22703, Note_on_c, 0, 67, 0
1, 22704, Note_on_c, 0, 76, 80
1, 22704, Note_on_c, 0, 72, 64
1, 22727, Note_on_c, 0, 72, 0
1, 22728, Note_on_c, 0, 67, 64
1, 22745, Note_on_c, 1, 60, 0
1, 22749, Note_on_c, 0, 76, 0
1, 22751, Note_on_c, 0, 67, 0
1, 22752, Note_on_c, 0, 75, 80
1, 22752, Note_on_c, 0, 72, 64
1, 22752, Note_on_c, 1, 57, 80
1, 22775, Note_on_c, 0, 72, 0
1, 22776, Note_on_c, 0, 65, 64
1, 22797, Note_on_c, 0, 75, 0
1, 22797, Note_on_c, 1, 57, 0
1, 22799, Note_on_c, 0, 65, 0
1, 22800, Note_on_c, 0, 74, 77
1, 22800, Note_on_c, 0, 70, 64
1, 22800, Note_on_c, 1, 58, 80
1, 22823, Note_on_c, 0, 70, 0
1, 22824, Note_on_c, 0, 65, 64
1, 22845, Note_on_c, 0, 74, 0
1, 22845, Note_on_c, 1, 58, 0
1, 22847, Note_on_c, 0, 65, 0
1, 22848, Note_on_c, 1, 51, 96
1, 22872, Note_on_c, 1, 51, 0
1, 22872, Note_on_c, 1, 55, 80
1, 22895, Note_on_c, 1, 55, 0
1, 22896, Note_on_c, 1, 60, 80
1, 22919, Note_on_c, 1, 60, 0
1, 22920, Note_on_c, 1, 63, 80
1, 22943, Note_on_c, 1, 63, 0
1, 22944, Note_on_c, 0, 67, 75
1, 22967, Note_on_c, 0, 67, 0
1, 22968, Note_on_c, 0, 72, 76
1, 22991, Note_on_c, 0, 72, 0
1, 22992, Note_on_c, 0, 75, 77
1, 23015, Note_on_c, 0, 75, 0
1, 23016, Note_on_c, 0, 79, 78
1, 23039, Note_on_c, 0, 79, 0
1, 23040, Note_on_c, 0, 70, 80
1, 23040, Note_on_c, 1, 62, 80
1, 23040, Note_on_c, 1, 53, 80
1, 23136, Note_on_c, 0, 70, 0
1, 23136, Note_on_c, 0, 69, 76
1, 23136, Note_on_c, 1, 62, 0
1, 23136, Note_on_c, 1, 60, 76
1, 23181, Note_on_c, 0, 69, 0
1, 23181, Note_on_c, 1, 60, 0
1, 23181, Note_on_c, 1, 53, 0
1, 23184, Note_on_c, 0, 72, 75
1, 23204, Note_on_c, 0, 72, 0
1, 23232, Note_on_c, 0, 63, 75
1, 23280, Note_on_c, 1, 53, 75
1, 23300, Note_on_c, 1, 53, 0
1, 23328, Note_on_c, 1, 45, 75
1, 23365, Note_on_c, 0, 63, 0
1, 23376, Note_on_c, 0, 67, 75
1, 23388, Note_on_c, 0, 67, 0
1, 23388, Note_on_c, 0, 65, 75
1, 23422, Note_on_c, 0, 65, 0
1, 23424, Note_on_c, 0, 63, 75
1, 23469, Note_on_c, 1, 45, 0
1, 23472, Note_on_c, 1, 50, 75
1, 23484, Note_on_c, 1, 50, 0
1, 23484, Note_on_c, 1, 48, 75
1, 23518, Note_on_c, 1, 48, 0
1, 23520, Note_on_c, 0, 63, 0
1, 23520, Note_on_c, 0, 62, 75
1, 23520, Note_on_c, 1, 46, 75
1, 23540, Note_on_c, 0, 62, 0
1, 23565, Note_on_c, 1, 46, 0
1, 23568, Note_on_c, 0, 77, 75
1, 23588, Note_on_c, 0, 77, 0
1, 23616, Note_on_c, 0, 68, 75
1, 23664, Note_on_c, 1, 58, 75
1, 23684, Note_on_c, 1, 58, 0
1, 23712, Note_on_c, 1, 50, 75
1, 23749, Note_on_c, 0, 68, 0
1, 23760, Note_on_c, 0, 72, 75
1, 23772, Note_on_c, 0, 72, 0
1, 23772, Note_on_c, 0, 70, 75
1, 23806, Note_on_c, 0, 70, 0
1, 23808, Note_on_c, 0, 68, 75
1, 23853, Note_on_c, 1, 50, 0
1, 23856, Note_on_c, 1, 55, 75
1, 23868, Note_on_c, 1, 55, 0
1, 23868, Note_on_c, 1, 53, 75
1, 23902, Note_on_c, 1, 53, 0
1, 23904, Note_on_c, 0, 68, 0
1, 23904, Note_on_c, 0, 67, 75
1, 23904, Note_on_c, 1, 51, 75
1, 23924, Note_on_c, 0, 67, 0
1, 23952, Note_on_c, 0, 79, 75
1, 23972, Note_on_c, 0, 79, 0
1, 23993, Note_on_c, 1, 51, 0
1, 24000, Note_on_c, 0, 71, 75
1, 24048, Note_on_c, 1, 68, 75
1, 24093, Note_on_c, 1, 68, 0
1, 24096, Note_on_c, 1, 62, 75
1, 24141, Note_on_c, 1, 62, 0
1, 24144, Note_on_c, 0, 71, 0
1, 24144, Note_on_c, 0, 74, 78
1, 24144, Note_on_c, 1, 65, 75
1, 24189, Note_on_c, 0, 74, 0
1, 24189, Note_on_c, 1, 65, 0
1, 24192, Note_on_c, 0, 72, 79
1, 24192, Note_on_c, 1, 63, 75
1, 24237, Note_on_c, 0, 72, 0
1, 24240, Note_on_c, 0, 79, 96
1, 24240, Note_on_c, 0, 67, 64
1, 24281, Note_on_c, 1, 63, 0
1, 24285, Note_on_c, 0, 67, 0
1, 24288, Note_on_c, 0, 69, 64
1, 24288, Note_on_c, 1, 62, 75
1, 24333, Note_on_c, 0, 69, 0
1, 24336, Note_on_c, 0, 79, 0
1, 24336, Note_on_c, 0, 77, 80
1, 24336, Note_on_c, 0, 71, 64
1, 24377, Note_on_c, 1, 62, 0
1, 24381, Note_on_c, 0, 71, 0
1, 24384, Note_on_c, 0, 72, 64
1, 24384, Note_on_c, 1, 60, 75
1, 24429, Note_on_c, 0, 77, 0
1, 24429, Note_on_c, 1, 60, 0
1, 24432, Note_on_c, 0, 75, 80
1, 24432, Note_on_c, 1, 57, 75
1, 24477, Note_on_c, 1, 57, 0
1, 24480, Note_on_c, 1, 58, 75
1, 24517, Note_on_c, 0, 72, 0
1, 24521, Note_on_c, 0, 75, 0
1, 24525, Note_on_c, 1, 58, 0
1, 24528, Note_on_c, 0, 74, 78
1, 24528, Note_on_c, 0, 70, 64
1, 24528, Note_on_c, 1, 52, 91
1, 24576, Note_on_c, 1, 52, 0
1, 24576, Note_on_c, 1, 53, 75
1, 24621, Note_on_c, 0, 74, 0
1, 24621, Note_on_c, 0, 70, 0
1, 24624, Note_on_c, 0, 72, 76
1, 24624, Note_on_c, 0, 69, 64
1, 24665, Note_on_c, 1, 53, 0
1, 24669, Note_on_c, 0, 72, 0
1, 24669, Note_on_c, 0, 69, 0
1, 24672, Note_on_c, 1, 41, 75
1, 24692, Note_on_c, 1, 41, 0
1, 24720, Note_on_c, 1, 53, 75
1, 24740, Note_on_c, 1, 53, 0
1, 24768, Note_on_c, 1, 58, 91
1, 24816, Note_on_c, 0, 70, 75
1, 24861, Note_on_c, 0, 70, 0
1, 24864, Note_on_c, 0, 75, 75
1, 24887, Note_on_c, 0, 75, 0
1, 24888, Note_on_c, 0, 74, 75
1, 24911, Note_on_c, 0, 74, 0
1, 24912, Note_on_c, 0, 72, 75
1, 24935, Note_on_c, 0, 72, 0
1, 24936, Note_on_c, 0, 70, 75
1, 24959, Note_on_c, 0, 70, 0
1, 24960, Note_on_c, 0, 77, 75
1, 25005, Note_on_c, 1, 58, 0
1, 25008, Note_on_c, 1, 57, 75
1, 25028, Note_on_c, 1, 57, 0
1, 25049, Note_on_c, 0, 77, 0
1, 25056, Note_on_c, 1, 60, 75
1, 25076, Note_on_c, 1, 60, 0
1, 25104, Note_on_c, 1, 53, 75
1, 25124, Note_on_c, 1, 53, 0
1, 25152, Note_on_c, 1, 62, 91
1, 25152, Note_on_c, 1, 58, 91
1, 25176, Note_on_c, 0, 82, 75
1, 25199, Note_on_c, 0, 82, 0
1, 25200, Note_on_c, 0, 84, 76
1, 25223, Note_on_c, 0, 84, 0
1, 25224, Note_on_c, 0, 86, 78
1, 25247, Note_on_c, 0, 86, 0
1, 25248, Note_on_c, 0, 84, 80
1, 25271, Note_on_c, 0, 84, 0
1, 25272, Note_on_c, 0, 82, 78
1, 25295, Note_on_c, 0, 82, 0
1, 25296, Note_on_c, 0, 81, 77
1, 25319, Note_on_c, 0, 81, 0
1, 25320, Note_on_c, 0, 79, 76
1, 25343, Note_on_c, 0, 79, 0
1, 25344, Note_on_c, 0, 77, 75
1, 25389, Note_on_c, 1, 62, 0
1, 25389, Note_on_c, 1, 58, 0
1, 25392, Note_on_c, 1, 60, 75
1, 25392, Note_on_c, 1, 57, 75
1, 25412, Note_on_c, 1, 60, 0
1, 25412, Note_on_c, 1, 57, 0
1, 25433, Note_on_c, 0, 77, 0
1, 25440, Note_on_c, 1, 63, 75
1, 25440, Note_on_c, 1, 60, 75
1, 25460, Note_on_c, 1, 63, 0
1, 25460, Note_on_c, 1, 60, 0
1, 25488, Note_on_c, 1, 53, 75
1, 25508, Note_on_c, 1, 53, 0
1, 25536, Note_on_c, 1, 65, 91
1, 25536, Note_on_c, 1, 62, 91
1, 25560, Note_on_c, 0, 80, 80
1, 25583, Note_on_c, 0, 80, 0
1, 25584, Note_on_c, 0, 79, 79
1, 25607, Note_on_c, 0, 79, 0
1, 25608, Note_on_c, 0, 77, 79
1, 25631, Note_on_c, 0, 77, 0
1, 25632, Note_on_c, 0, 75, 79
1, 25632, Note_on_c, 1, 65, 0
1, 25632, Note_on_c, 1, 62, 0
1, 25632, Note_on_c, 1, 67, 77
1, 25632, Note_on_c, 1, 63, 77
1, 25655, Note_on_c, 0, 75, 0
1, 25656, Note_on_c, 0, 74, 79
1, 25677, Note_on_c, 1, 67, 0
1, 25677, Note_on_c, 1, 63, 0
1, 25679, Note_on_c, 0, 74, 0
1, 25680, Note_on_c, 0, 72, 78
1, 25680, Note_on_c, 1, 68, 78
1, 25680, Note_on_c, 1, 65, 78
1, 25703, Note_on_c, 0, 72, 0
1, 25704, Note_on_c, 0, 70, 78
1, 25725, Note_on_c, 1, 68, 0
1, 25725, Note_on_c, 1, 65, 0
1, 25727, Note_on_c, 0, 70, 0
1, 25728, Note_on_c, 0, 72, 78
1, 25728, Note_on_c, 1, 67, 80
1, 25728, Note_on_c, 1, 63, 80
1, 25773, Note_on_c, 0, 72, 0
1, 25773, Note_on_c, 1, 67, 0
1, 25773, Note_on_c, 1, 63, 0
1, 25776, Note_on_c, 0, 74, 78
1, 25776, Note_on_c, 1, 65, 78
1, 25776, Note_on_c, 1, 62, 78
1, 25821, Note_on_c, 0, 74, 0
1, 25821, Note_on_c, 1, 65, 0
1, 25821, Note_on_c, 1, 62, 0
1, 25824, Note_on_c, 0, 77, 77
1, 25824, Note_on_c, 1, 63, 77
1, 25824, Note_on_c, 1, 60, 77
1, 25847, Note_on_c, 0, 77, 0
1, 25848, Note_on_c, 0, 75, 77
1, 25869, Note_on_c, 1, 63, 0
1, 25869, Note_on_c, 1, 60, 0
1, 25871, Note_on_c, 0, 75, 0
1, 25872, Note_on_c, 0, 74, 77
1, 25872, Note_on_c, 1, 67, 76
1, 25872, Note_on_c, 1, 63, 76
1, 25895, Note_on_c, 0, 74, 0
1, 25896, Note_on_c, 0, 72, 76
1, 25917, Note_on_c, 1, 67, 0
1, 25917, Note_on_c, 1, 63, 0
1, 25919, Note_on_c, 0, 72, 0
1, 25920, Note_on_c, 0, 70, 76
1, 25920, Note_on_c, 1, 62, 75
1, 25920, Note_on_c, 1, 53, 75
1, 25965, Note_on_c, 0, 70, 0
1, 25968, Note_on_c, 0, 72, 76
1, 25980, Note_on_c, 0, 72, 0
1, 25980, Note_on_c, 0, 70, 76
1, 25992, Note_on_c, 0, 70, 0
1, 25992, Note_on_c, 0, 69, 76
1, 26004, Note_on_c, 0, 69, 0
1, 26004, Note_on_c, 0, 70, 76
1, 26009, Note_on_c, 1, 62, 0
1, 26016, Note_on_c, 1, 63, 75
1, 26057, Note_on_c, 0, 70, 0
1, 26064, Note_on_c, 0, 72, 75
1, 26087, Note_on_c, 0, 72, 0
1, 26088, Note_on_c, 0, 69, 75
1, 26097, Note_on_c, 1, 53, 0
1, 26105, Note_on_c, 1, 63, 0
1, 26111, Note_on_c, 0, 69, 0
1, 26112, Note_on_c, 0, 70, 75
1, 26112, Note_on_c, 1, 62, 75
1, 26112, Note_on_c, 1, 58, 75
1, 26132, Note_on_c, 0, 70, 0
1, 26160, Note_on_c, 0, 77, 75
1, 26180, Note_on_c, 0, 77, 0
1, 26201, Note_on_c, 1, 62, 0
1, 26201, Note_on_c, 1, 58, 0
1, 26208, Note_on_c, 0, 82, 76
1, 26256, Note_on_c, 1, 62, 76
1, 26256, Note_on_c, 1, 58, 76
1, 26301, Note_on_c, 1, 62, 0
1, 26301, Note_on_c, 1, 58, 0
1, 26304, Note_on_c, 1, 67, 76
1, 26304, Note_on_c, 1, 63, 76
1, 26327, Note_on_c, 0, 82, 0
1, 26328, Note_on_c, 0, 79, 77
1, 26351, Note_on_c, 0, 79, 0
1, 26352, Note_on_c, 0, 81, 77
1, 26364, Note_on_c, 0, 81, 0
1, 26364, Note_on_c, 0, 79, 77
1, 26376, Note_on_c, 0, 79, 0
1, 26376, Note_on_c, 0, 77, 77
1, 26388, Note_on_c, 0, 77, 0
1, 26388, Note_on_c, 0, 79, 77
1, 26400, Note_on_c, 0, 79, 0
1, 26400, Note_on_c, 0, 84, 78
1, 26437, Note_on_c, 1, 67, 0
1, 26437, Note_on_c, 1, 63, 0
1, 26448, Note_on_c, 1, 63, 78
1, 26448, Note_on_c, 1, 60, 78
1, 26493, Note_on_c, 1, 63, 0
1, 26493, Note_on_c, 1, 60, 0
1, 26496, Note_on_c, 1, 69, 78
1, 26496, Note_on_c, 1, 65, 78
1, 26519, Note_on_c, 0, 84, 0
1, 26520, Note_on_c, 0, 81, 79
1, 26543, Note_on_c, 0, 81, 0
1, 26544, Note_on_c, 0, 82, 79
1, 26556, Note_on_c, 0, 82, 0
1, 26556, Note_on_c, 0, 81, 79
1, 26568, Note_on_c, 0, 81, 0
1, 26568, Note_on_c, 0, 79, 79
1, 26580, Note_on_c, 0, 79, 0
1, 26580, Note_on_c, 0, 81, 79
1, 26592, Note_on_c, 0, 81, 0
1, 26592, Note_on_c, 0, 89, 96
1, 26629, Note_on_c, 1, 69, 0
1, 26629, Note_on_c, 1, 65, 0
1, 26640, Note_on_c, 1, 65, 80
1, 26640, Note_on_c, 1, 62, 80
1, 26685, Note_on_c, 1, 65, 0
1, 26685, Note_on_c, 1, 62, 0
1, 26688, Note_on_c, 1, 74, 80
1, 26688, Note_on_c, 1, 70, 80
1, 26711, Note_on_c, 0, 89, 0
1, 26712, Note_on_c, 0, 87, 79
1, 26735, Note_on_c, 0, 87, 0
1, 26736, Note_on_c, 0, 86, 79
1, 26759, Note_on_c, 0, 86, 0
1, 26760, Note_on_c, 0, 84, 79
1, 26783, Note_on_c, 0, 84, 0
1, 26784, Note_on_c, 0, 82, 78
1, 26807, Note_on_c, 0, 82, 0
1, 26808, Note_on_c, 0, 81, 78
1, 26821, Note_on_c, 1, 74, 0
1, 26821, Note_on_c, 1, 70, 0
1, 26831, Note_on_c, 0, 81, 0
1, 26832, Note_on_c, 0, 79, 78
1, 26832, Note_on_c, 1, 72, 78
1, 26832, Note_on_c, 1, 69, 78
1, 26855, Note_on_c, 0, 79, 0
1, 26856, Note_on_c, 0, 77, 77
1, 26877, Note_on_c, 1, 72, 0
1, 26877, Note_on_c, 1, 69, 0
1, 26879, Note_on_c, 0, 77, 0
1, 26880, Note_on_c, 0, 75, 77
1, 26880, Note_on_c, 1, 70, 77
1, 26880, Note_on_c, 1, 67, 77
1, 26903, Note_on_c, 0, 75, 0
1, 26904, Note_on_c, 0, 77, 77
1, 26925, Note_on_c, 1, 70, 0
1, 26925, Note_on_c, 1, 67, 0
1, 26927, Note_on_c, 0, 77, 0
1, 26928, Note_on_c, 0, 74, 76
1, 26928, Note_on_c, 1, 69, 76
1, 26928, Note_on_c, 1, 65, 76
1, 26951, Note_on_c, 0, 74, 0
1, 26952, Note_on_c, 0, 75, 76
1, 26973, Note_on_c, 1, 69, 0
1, 26973, Note_on_c, 1, 65, 0
1, 26975, Note_on_c, 0, 75, 0
1, 26976, Note_on_c, 0, 72, 76
1, 26976, Note_on_c, 1, 67, 76
1, 26976, Note_on_c, 1, 63, 76
1, 26999, Note_on_c, 0, 72, 0
1, 27000, Note_on_c, 0, 74, 75
1, 27021, Note_on_c, 1, 67, 0
1, 27021, Note_on_c, 1, 63, 0
1, 27023, Note_on_c, 0, 74, 0
1, 27024, Note_on_c, 0, 70, 75
1, 27024, Note_on_c, 1, 65, 75
1, 27024, Note_on_c, 1, 62, 75
1, 27047, Note_on_c, 0, 70, 0
1, 27048, Note_on_c, 0, 74, 75
1, 27069, Note_on_c, 1, 65, 0
1, 27069, Note_on_c, 1, 62, 0
1, 27071, Note_on_c, 0, 74, 0
1, 27072, Note_on_c, 0, 72, 75
1, 27072, Note_on_c, 1, 67, 75
1, 27072, Note_on_c, 1, 63, 75
1, 27117, Note_on_c, 0, 72, 0
1, 27120, Note_on_c, 0, 75, 91
1, 27161, Note_on_c, 1, 67, 0
1, 27161, Note_on_c, 1, 63, 0
1, 27168, Note_on_c, 0, 75, 0
1, 27168, Note_on_c, 1, 60, 75
1, 27168, Note_on_c, 1, 53, 75
1, 27207, Note_on_c, 1, 60, 0
1, 27207, Note_on_c, 1, 53, 0
1, 27216, Note_on_c, 0, 69, 75
1, 27216, Note_on_c, 0, 63, 75
1, 27236, Note_on_c, 0, 69, 0
1, 27236, Note_on_c, 0, 63, 0
1, 27264, Note_on_c, 0, 70, 75
1, 27264, Note_on_c, 0, 62, 75
1, 27312, Note_on_c, 1, 58, 75
1, 27353, Note_on_c, 0, 70, 0
1, 27353, Note_on_c, 0, 62, 0
1, 27357, Note_on_c, 1, 58, 0
1, 27360, Note_on_c, 1, 46, 75
1, 27384, Note_on_c, 0, 69, 75
1, 27405, Note_on_c, 1, 46, 0
1, 27407, Note_on_c, 0, 69, 0
1, 27408, Note_on_c, 0, 70, 75
1, 27431, Note_on_c, 0, 70, 0
1, 27432, Note_on_c, 0, 72, 75
1, 27455, Note_on_c, 0, 72, 0
1, 27456, Note_on_c, 0, 63, 75
1, 27480, Note_on_c, 1, 51, 75
1, 27501, Note_on_c, 0, 63, 0
1, 27503, Note_on_c, 1, 51, 0
1, 27504, Note_on_c, 1, 53, 75
1, 27527, Note_on_c, 1, 53, 0
1, 27528, Note_on_c, 1, 55, 75
1, 27551, Note_on_c, 1, 55, 0
1, 27552, Note_on_c, 1, 45, 75
1, 27576, Note_on_c, 0, 67, 75
1, 27597, Note_on_c, 1, 45, 0
1, 27599, Note_on_c, 0, 67, 0
1, 27600, Note_on_c, 0, 65, 75
1, 27623, Note_on_c, 0, 65, 0
1, 27624, Note_on_c, 0, 63, 75
1, 27647, Note_on_c, 0, 63, 0
1, 27648, Note_on_c, 0, 62, 75
1, 27672, Note_on_c, 1, 51, 75
1, 27693, Note_on_c, 0, 62, 0
1, 27695, Note_on_c, 1, 51, 0
1, 27696, Note_on_c, 1, 50, 75
1, 27719, Note_on_c, 1, 50, 0
1, 27720, Note_on_c, 1, 48, 75
1, 27743, Note_on_c, 1, 48, 0
1, 27744, Note_on_c, 1, 46, 75
1, 27768, Note_on_c, 0, 74, 75
1, 27789, Note_on_c, 1, 46, 0
1, 27791, Note_on_c, 0, 74, 0
1, 27792, Note_on_c, 0, 75, 75
1, 27815, Note_on_c, 0, 75, 0
1, 27816, Note_on_c, 0, 77, 75
1, 27839, Note_on_c, 0, 77, 0
1, 27840, Note_on_c, 0, 68, 75
1, 27864, Note_on_c, 1, 56, 75
1, 27885, Note_on_c, 0, 68, 0
1, 27887, Note_on_c, 1, 56, 0
1, 27888, Note_on_c, 1, 58, 75
1, 27911, Note_on_c, 1, 58, 0
1, 27912, Note_on_c, 1, 60, 75
1, 27935, Note_on_c, 1, 60, 0
1, 27936, Note_on_c, 1, 50, 75
1, 27960, Note_on_c, 0, 72, 75
1, 27981, Note_on_c, 1, 50, 0
1, 27983, Note_on_c, 0, 72, 0
1, 27984, Note_on_c, 0, 70, 75
1, 28007, Note_on_c, 0, 70, 0
1, 28008, Note_on_c, 0, 68, 75
1, 28031, Note_on_c, 0, 68, 0
1, 28032, Note_on_c, 0, 67, 75
1, 28056, Note_on_c, 1, 56, 75
1, 28077, Note_on_c, 0, 67, 0
1, 28079, Note_on_c, 1, 56, 0
1, 28080, Note_on_c, 1, 55, 75
1, 28103, Note_on_c, 1, 55, 0
1, 28104, Note_on_c, 1, 53, 75
1, 28127, Note_on_c, 1, 53, 0
1, 28128, Note_on_c, 1, 51, 75
1, 28152, Note_on_c, 0, 79, 75
1, 28173, Note_on_c, 1, 51, 0
1, 28175, Note_on_c, 0, 79, 0
1, 28176, Note_on_c, 0, 75, 75
1, 28199, Note_on_c, 0, 75, 0
1, 28200, Note_on_c, 0, 72, 75
1, 28223, Note_on_c, 0, 72, 0
1, 28224, Note_on_c, 0, 71, 75
1, 28248, Note_on_c, 1, 68, 75
1, 28269, Note_on_c, 0, 71, 0
1, 28271, Note_on_c, 1, 68, 0
1, 28272, Note_on_c, 1, 65, 75
1, 28295, Note_on_c, 1, 65, 0
1, 28296, Note_on_c, 1, 63, 75
1, 28319, Note_on_c, 1, 63, 0
1, 28320, Note_on_c, 1, 62, 75
1, 28344, Note_on_c, 0, 80, 75
1, 28365, Note_on_c, 1, 62, 0
1, 28367, Note_on_c, 0, 80, 0
1, 28368, Note_on_c, 0, 71, 75
1, 28391, Note_on_c, 0, 71, 0
1, 28392, Note_on_c, 0, 74, 75
1, 28415, Note_on_c, 0, 74, 0
1, 28416, Note_on_c, 0, 72, 75
1, 28416, Note_on_c, 1, 63, 75
1, 28439, Note_on_c, 0, 72, 0
1, 28440, Note_on_c, 0, 75, 75
1, 28461, Note_on_c, 1, 63, 0
1, 28463, Note_on_c, 0, 75, 0
1, 28464, Note_on_c, 0, 74, 75
1, 28464, Note_on_c, 1, 59, 75
1, 28487, Note_on_c, 0, 74, 0
1, 28488, Note_on_c, 0, 77, 75
1, 28509, Note_on_c, 1, 59, 0
1, 28511, Note_on_c, 0, 77, 0
1, 28512, Note_on_c, 0, 75, 76
1, 28512, Note_on_c, 1, 60, 76
1, 28535, Note_on_c, 0, 75, 0
1, 28536, Note_on_c, 0, 79, 76
1, 28557, Note_on_c, 1, 60, 0
1, 28559, Note_on_c, 0, 79, 0
1, 28560, Note_on_c, 0, 74, 76
1, 28560, Note_on_c, 1, 62, 76
1, 28583, Note_on_c, 0, 74, 0
1, 28584, Note_on_c, 0, 77, 77
1, 28605, Note_on_c, 1, 62, 0
1, 28607, Note_on_c, 0, 77, 0
1, 28608, Note_on_c, 0, 72, 77
1, 28608, Note_on_c, 1, 63, 77
1, 28631, Note_on_c, 0, 72, 0
1, 28632, Note_on_c, 0, 75, 77
1, 28653, Note_on_c, 1, 63, 0
1, 28655, Note_on_c, 0, 75, 0
1, 28656, Note_on_c, 0, 71, 78
1, 28656, Note_on_c, 1, 62, 78
1, 28679, Note_on_c, 0, 71, 0
1, 28680, Note_on_c, 0, 74, 78
1, 28701, Note_on_c, 1, 62, 0
1, 28703, Note_on_c, 0, 74, 0
1, 28704, Note_on_c, 0, 72, 78
1, 28704, Note_on_c, 1, 63, 78
1, 28727, Note_on_c, 0, 72, 0
1, 28728, Note_on_c, 0, 74, 79
1, 28749, Note_on_c, 1, 63, 0
1, 28751, Note_on_c, 0, 74, 0
1, 28752, Note_on_c, 0, 72, 79
1, 28752, Note_on_c, 1, 64, 79
1, 28775, Note_on_c, 0, 72, 0
1, 28776, Note_on_c, 0, 70, 79
1, 28797, Note_on_c, 1, 64, 0
1, 28799, Note_on_c, 0, 70, 0
1, 28800, Note_on_c, 0, 69, 80
1, 28800, Note_on_c, 1, 65, 80
1, 28845, Note_on_c, 0, 69, 0
1, 28848, Note_on_c, 0, 72, 78
1, 28871, Note_on_c, 0, 72, 0
1, 28872, Note_on_c, 0, 70, 78
1, 28889, Note_on_c, 1, 65, 0
1, 28895, Note_on_c, 0, 70, 0
1, 28896, Note_on_c, 0, 69, 77
1, 28919, Note_on_c, 0, 69, 0
1, 28920, Note_on_c, 0, 67, 76
1, 28943, Note_on_c, 0, 67, 0
1, 28944, Note_on_c, 0, 65, 76
1, 28944, Note_on_c, 1, 53, 80
1, 28944, Note_on_c, 1, 41, 80
1, 28964, Note_on_c, 1, 53, 0
1, 28964, Note_on_c, 1, 41, 0
1, 28967, Note_on_c, 0, 65, 0
1, 28968, Note_on_c, 0, 63, 75
1, 28991, Note_on_c, 0, 63, 0
1, 28992, Note_on_c, 0, 62, 75
1, 28992, Note_on_c, 1, 58, 96
1, 28992, Note_on_c, 1, 46, 96
1, 29012, Note_on_c, 0, 62, 0
1, 29040, Note_on_c, 0, 70, 80
1, 29060, Note_on_c, 0, 70, 0
1, 29088, Note_on_c, 0, 75, 80
1, 29111, Note_on_c, 0, 75, 0
1, 29112, Note_on_c, 0, 74, 80
1, 29135, Note_on_c, 0, 74, 0
1, 29136, Note_on_c, 0, 72, 80
1, 29159, Note_on_c, 0, 72, 0
1, 29160, Note_on_c, 0, 70, 80
1, 29183, Note_on_c, 0, 70, 0
1, 29184, Note_on_c, 0, 77, 80
1, 29229, Note_on_c, 1, 58, 0
1, 29229, Note_on_c, 1, 46, 0
1, 29232, Note_on_c, 1, 57, 80
1, 29232, Note_on_c, 1, 45, 80
1, 29252, Note_on_c, 1, 57, 0
1, 29252, Note_on_c, 1, 45, 0
1, 29273, Note_on_c, 0, 77, 0
1, 29280, Note_on_c, 1, 60, 80
1, 29280, Note_on_c, 1, 48, 80
1, 29300, Note_on_c, 1, 60, 0
1, 29300, Note_on_c, 1, 48, 0
1, 29328, Note_on_c, 1, 53, 80
1, 29328, Note_on_c, 1, 41, 80
1, 29348, Note_on_c, 1, 53, 0
1, 29348, Note_on_c, 1, 41, 0
1, 29376, Note_on_c, 1, 62, 96
1, 29376, Note_on_c, 1, 58, 96
1, 29400, Note_on_c, 0, 82, 80
1, 29423, Note_on_c, 0, 82, 0
1, 29424, Note_on_c, 0, 84, 82
1, 29447, Note_on_c, 0, 84, 0
1, 29448, Note_on_c, 0, 86, 84
1, 29471, Note_on_c, 0, 86, 0
1, 29472, Note_on_c, 0, 84, 86
1, 29495, Note_on_c, 0, 84, 0
1, 29496, Note_on_c, 0, 82, 84
1, 29519, Note_on_c, 0, 82, 0
1, 29520, Note_on_c, 0, 81, 83
1, 29543, Note_on_c, 0, 81, 0
1, 29544, Note_on_c, 0, 79, 81
1, 29567, Note_on_c, 0, 79, 0
1, 29568, Note_on_c, 0, 77, 80
1, 29613, Note_on_c, 1, 62, 0
1, 29613, Note_on_c, 1, 58, 0
1, 29616, Note_on_c, 1, 60, 80
1, 29616, Note_on_c, 1, 57, 80
1, 29636, Note_on_c, 1, 60, 0
1, 29636, Note_on_c, 1, 57, 0
1, 29664, Note_on_c, 1, 63, 80
1, 29664, Note_on_c, 1, 60, 80
1, 29684, Note_on_c, 1, 63, 0
1, 29684, Note_on_c, 1, 60, 0
1, 29712, Note_on_c, 1, 53, 80
1, 29732, Note_on_c, 1, 53, 0
1, 29745, Note_on_c, 0, 77, 0
1, 29760, Note_on_c, 1, 65, 96
1, 29760, Note_on_c, 1, 62, 96
1, 29784, Note_on_c, 0, 80, 80
1, 29807, Note_on_c, 0, 80, 0
1, 29808, Note_on_c, 0, 79, 80
1, 29831, Note_on_c, 0, 79, 0
1, 29832, Note_on_c, 0, 77, 80
1, 29855, Note_on_c, 0, 77, 0
1, 29856, Note_on_c, 0, 75, 80
1, 29856, Note_on_c, 1, 65, 0
1, 29856, Note_on_c, 1, 62, 0
1, 29856, Note_on_c, 1, 67, 83
1, 29856, Note_on_c, 1, 63, 83
1, 29879, Note_on_c, 0, 75, 0
1, 29880, Note_on_c, 0, 74, 80
1, 29901, Note_on_c, 1, 67, 0
1, 29901, Note_on_c, 1, 63, 0
1, 29903, Note_on_c, 0, 74, 0
1, 29904, Note_on_c, 0, 72, 80
1, 29904, Note_on_c, 1, 68, 84
1, 29904, Note_on_c, 1, 65, 84
1, 29927, Note_on_c, 0, 72, 0
1, 29928, Note_on_c, 0, 70, 80
1, 29949, Note_on_c, 1, 68, 0
1, 29949, Note_on_c, 1, 65, 0
1, 29951, Note_on_c, 0, 70, 0
1, 29952, Note_on_c, 0, 72, 80
1, 29952, Note_on_c, 1, 67, 86
1, 29952, Note_on_c, 1, 63, 86
1, 29997, Note_on_c, 0, 72, 0
1, 29997, Note_on_c, 1, 67, 0
1, 29997, Note_on_c, 1, 63, 0
1, 30000, Note_on_c, 0, 74, 80
1, 30000, Note_on_c, 1, 65, 84
1, 30000, Note_on_c, 1, 62, 84
1, 30045, Note_on_c, 0, 74, 0
1, 30045, Note_on_c, 1, 65, 0
1, 30045, Note_on_c, 1, 62, 0
1, 30048, Note_on_c, 0, 77, 80
1, 30048, Note_on_c, 1, 63, 83
1, 30048, Note_on_c, 1, 60, 83
1, 30071, Note_on_c, 0, 77, 0
1, 30072, Note_on_c, 0, 75, 80
1, 30093, Note_on_c, 1, 63, 0
1, 30093, Note_on_c, 1, 60, 0
1, 30095, Note_on_c, 0, 75, 0
1, 30096, Note_on_c, 0, 74, 80
1, 30096, Note_on_c, 1, 67, 81
1, 30096, Note_on_c, 1, 63, 81
1, 30119, Note_on_c, 0, 74, 0
1, 30120, Note_on_c, 0, 72, 80
1, 30141, Note_on_c, 1, 67, 0
1, 30141, Note_on_c, 1, 63, 0
1, 30143, Note_on_c, 0, 72, 0
1, 30144, Note_on_c, 0, 70, 80
1, 30144, Note_on_c, 1, 62, 80
1, 30144, Note_on_c, 1, 53, 75
1, 30189, Note_on_c, 0, 70, 0
1, 30192, Note_on_c, 0, 72, 78
1, 30204, Note_on_c, 0, 72, 0
1, 30204, Note_on_c, 0, 70, 78
1, 30216, Note_on_c, 0, 70, 0
1, 30216, Note_on_c, 0, 69, 78
1, 30228, Note_on_c, 0, 69, 0
1, 30228, Note_on_c, 0, 70, 78
1, 30233, Note_on_c, 1, 62, 0
1, 30240, Note_on_c, 1, 63, 77
1, 30281, Note_on_c, 0, 70, 0
1, 30288, Note_on_c, 0, 72, 76
1, 30311, Note_on_c, 0, 72, 0
1, 30312, Note_on_c, 0, 69, 75
1, 30321, Note_on_c, 1, 53, 0
1, 30329, Note_on_c, 1, 63, 0
1, 30335, Note_on_c, 0, 69, 0
1, 30336, Note_on_c, 0, 70, 75
1, 30336, Note_on_c, 1, 62, 75
1, 30336, Note_on_c, 1, 58, 75
1, 30359, Note_on_c, 0, 70, 0
1, 30360, Note_on_c, 0, 77, 75
1, 30383, Note_on_c, 0, 77, 0
1, 30384, Note_on_c, 0, 79, 76
1, 30407, Note_on_c, 0, 79, 0
1, 30408, Note_on_c, 0, 81, 76
1, 30425, Note_on_c, 1, 62, 0
1, 30425, Note_on_c, 1, 58, 0
1, 30431, Note_on_c, 0, 81, 0
1, 30432, Note_on_c, 0, 82, 77
1, 30456, Note_on_c, 1, 62, 75
1, 30456, Note_on_c, 1, 58, 75
1, 30479, Note_on_c, 1, 62, 0
1, 30479, Note_on_c, 1, 58, 0
1, 30480, Note_on_c, 1, 63, 76
1, 30480, Note_on_c, 1, 60, 76
1, 30503, Note_on_c, 1, 63, 0
1, 30503, Note_on_c, 1, 60, 0
1, 30504, Note_on_c, 1, 65, 78
1, 30504, Note_on_c, 1, 62, 78
1, 30527, Note_on_c, 1, 65, 0
1, 30527, Note_on_c, 1, 62, 0
1, 30528, Note_on_c, 1, 67, 80
1, 30528, Note_on_c, 1, 63, 80
1, 30551, Note_on_c, 0, 82, 0
1, 30552, Note_on_c, 0, 79, 75
1, 30575, Note_on_c, 0, 79, 0
1, 30576, Note_on_c, 0, 81, 75
1, 30599, Note_on_c, 0, 81, 0
1, 30600, Note_on_c, 0, 82, 76
1, 30623, Note_on_c, 0, 82, 0
1, 30624, Note_on_c, 0, 84, 77
1, 30647, Note_on_c, 1, 67, 0
1, 30647, Note_on_c, 1, 63, 0
1, 30648, Note_on_c, 1, 63, 75
1, 30648, Note_on_c, 1, 60, 75
1, 30671, Note_on_c, 1, 63, 0
1, 30671, Note_on_c, 1, 60, 0
1, 30672, Note_on_c, 1, 65, 75
1, 30672, Note_on_c, 1, 62, 75
1, 30695, Note_on_c, 1, 65, 0
1, 30695, Note_on_c, 1, 62, 0
1, 30696, Note_on_c, 1, 67, 76
1, 30696, Note_on_c, 1, 63, 76
1, 30719, Note_on_c, 1, 67, 0
1, 30719, Note_on_c, 1, 63, 0
1, 30720, Note_on_c, 1, 69, 77
1, 30720, Note_on_c, 1, 65, 77
1, 30743, Note_on_c, 0, 84, 0
1, 30744, Note_on_c, 0, 84, 75
1, 30767, Note_on_c, 0, 84, 0
1, 30768, Note_on_c, 0, 86, 75
1, 30791, Note_on_c, 0, 86, 0
1, 30792, Note_on_c, 0, 87, 76
1, 30815, Note_on_c, 0, 87, 0
1, 30816, Note_on_c, 0, 89, 77
1, 30839, Note_on_c, 1, 69, 0
1, 30839, Note_on_c, 1, 65, 0
1, 30840, Note_on_c, 1, 69, 75
1, 30840, Note_on_c, 1, 65, 75
1, 30863, Note_on_c, 1, 69, 0
1, 30863, Note_on_c, 1, 65, 0
1, 30864, Note_on_c, 1, 70, 76
1, 30864, Note_on_c, 1, 67, 76
1, 30887, Note_on_c, 1, 70, 0
1, 30887, Note_on_c, 1, 67, 0
1, 30888, Note_on_c, 1, 72, 78
1, 30888, Note_on_c, 1, 69, 78
1, 30911, Note_on_c, 1, 72, 0
1, 30911, Note_on_c, 1, 69, 0
1, 30912, Note_on_c, 1, 74, 80
1, 30912, Note_on_c, 1, 70, 80
1, 30935, Note_on_c, 0, 89, 0
1, 30936, Note_on_c, 0, 87, 79
1, 30959, Note_on_c, 0, 87, 0
1, 30960, Note_on_c, 0, 86, 79
1, 30983, Note_on_c, 0, 86, 0
1, 30984, Note_on_c, 0, 84, 79
1, 31007, Note_on_c, 0, 84, 0
1, 31008, Note_on_c, 0, 82, 79
1, 31031, Note_on_c, 0, 82, 0
1, 31032, Note_on_c, 0, 81, 78
1, 31045, Note_on_c, 1, 74, 0
1, 31045, Note_on_c, 1, 70, 0
1, 31055, Note_on_c, 0, 81, 0
1, 31056, Note_on_c, 0, 79, 78
1, 31056, Note_on_c, 1, 72, 78
1, 31056, Note_on_c, 1, 69, 78
1, 31079, Note_on_c, 0, 79, 0
1, 31080, Note_on_c, 0, 77, 78
1, 31101, Note_on_c, 1, 72, 0
1, 31101, Note_on_c, 1, 69, 0
1, 31103, Note_on_c, 0, 77, 0
1, 31104, Note_on_c, 0, 75, 78
1, 31104, Note_on_c, 1, 70, 78
1, 31104, Note_on_c, 1, 67, 78
1, 31127, Note_on_c, 0, 75, 0
1, 31128, Note_on_c, 0, 77, 78
1, 31149, Note_on_c, 1, 70, 0
1, 31149, Note_on_c, 1, 67, 0
1, 31151, Note_on_c, 0, 77, 0
1, 31152, Note_on_c, 0, 74, 77
1, 31152, Note_on_c, 1, 69, 77
1, 31152, Note_on_c, 1, 65, 77
1, 31175, Note_on_c, 0, 74, 0
1, 31176, Note_on_c, 0, 75, 77
1, 31197, Note_on_c, 1, 69, 0
1, 31197, Note_on_c, 1, 65, 0
1, 31199, Note_on_c, 0, 75, 0
1, 31200, Note_on_c, 0, 72, 77
1, 31200, Note_on_c, 1, 67, 77
1, 31200, Note_on_c, 1, 63, 77
1, 31223, Note_on_c, 0, 72, 0
1, 31224, Note_on_c, 0, 74, 77
1, 31245, Note_on_c, 1, 67, 0
1, 31245, Note_on_c, 1, 63, 0
1, 31247, Note_on_c, 0, 74, 0
1, 31248, Note_on_c, 0, 70, 77
1, 31248, Note_on_c, 1, 65, 77
1, 31248, Note_on_c, 1, 62, 77
1, 31271, Note_on_c, 0, 70, 0
1, 31272, Note_on_c, 0, 74, 76
1, 31293, Note_on_c, 1, 65, 0
1, 31293, Note_on_c, 1, 62, 0
1, 31295, Note_on_c, 0, 74, 0
1, 31296, Note_on_c, 0, 72, 76
1, 31296, Note_on_c, 1, 67, 76
1, 31296, Note_on_c, 1, 63, 76
1, 31341, Note_on_c, 0, 72, 0
1, 31344, Note_on_c, 0, 75, 92
1, 31385, Note_on_c, 1, 67, 0
1, 31385, Note_on_c, 1, 63, 0
1, 31392, Note_on_c, 0, 75, 0
1, 31392, Note_on_c, 1, 60, 75
1, 31392, Note_on_c, 1, 53, 75
1, 31431, Note_on_c, 1, 60, 0
1, 31431, Note_on_c, 1, 53, 0
1, 31440, Note_on_c, 0, 69, 75
1, 31440, Note_on_c, 0, 63, 75
1, 31460, Note_on_c, 0, 69, 0
1, 31460, Note_on_c, 0, 63, 0
1, 31488, Note_on_c, 0, 70, 91
1, 31488, Note_on_c, 0, 62, 91
1, 31536, Note_on_c, 1, 58, 75
1, 31556, Note_on_c, 1, 58, 0
1, 31584, Note_on_c, 0, 70, 0
1, 31584, Note_on_c, 0, 62, 0
1, 31584, Note_on_c, 1, 46, 75
1, 31677, Note_on_c, 1, 46, 0
1, 31680, Note_on_c, 1, 46, 4
1, 31769, Note_on_c, 1, 46, 0
1, 31779, End_track
0, 0, End_of_file