0, 0, Header, 0, 1, 96
1, 0, Start_track
1, 0, Tempo, 600000
1, 96, Tempo, 666666
1, 144, Note_on_c, 0, 74, 75
1, 178, Note_on_c, 0, 74, 0
1, 180, Note_on_c, 0, 79, 75
1, 192, Note_on_c, 0, 79, 0
1, 192, Note_on_c, 0, 74, 75
1, 192, Note_on_c, 1, 59, 64
1, 192, Note_on_c, 1, 55, 64
1, 237, Note_on_c, 0, 74, 0
1, 240, Note_on_c, 0, 71, 75
1, 274, Note_on_c, 0, 71, 0
1, 276, Note_on_c, 0, 74, 75
1, 281, Note_on_c, 1, 59, 0
1, 281, Note_on_c, 1, 55, 0
1, 288, Note_on_c, 0, 74, 0
1, 288, Note_on_c, 0, 71, 75
1, 333, Note_on_c, 0, 71, 0
1, 336, Note_on_c, 0, 67, 75
1, 370, Note_on_c, 0, 67, 0
1, 372, Note_on_c, 0, 71, 75
1, 384, Note_on_c, 0, 71, 0
1, 384, Note_on_c, 0, 67, 75
1, 432, Note_on_c, 1, 59, 64
1, 432, Note_on_c, 1, 55, 64
1, 452, Note_on_c, 1, 59, 0
1, 452, Note_on_c, 1, 55, 0
1, 473, Note_on_c, 0, 67, 0
1, 480, Note_on_c, 1, 59, 64
1, 480, Note_on_c, 1, 55, 64
1, 528, Note_on_c, 0, 74, 75
1, 569, Note_on_c, 1, 59, 0
1, 569, Note_on_c, 1, 55, 0
1, 573, Note_on_c, 0, 74, 0
1, 576, Note_on_c, 0, 72, 75
1, 591, Note_on_c, 0, 72, 0
1, 592, Note_on_c, 0, 74, 75
1, 607, Note_on_c, 0, 74, 0
1, 608, Note_on_c, 0, 76, 75
1, 623, Note_on_c, 0, 76, 0
1, 624, Note_on_c, 0, 74, 75
1, 624, Note_on_c, 1, 59, 64
1, 624, Note_on_c, 1, 55, 64
1, 644, Note_on_c, 1, 59, 0
1, 644, Note_on_c, 1, 55, 0
1, 669, Note_on_c, 0, 74, 0
1, 672, Note_on_c, 1, 59, 64
1, 672, Note_on_c, 1, 55, 64
1, 720, Note_on_c, 0, 71, 75
1, 761, Note_on_c, 1, 59, 0
1, 761, Note_on_c, 1, 55, 0
1, 765, Note_on_c, 0, 71, 0
1, 768, Note_on_c, 0, 69, 75
1, 783, Note_on_c, 0, 69, 0
1, 784, Note_on_c, 0, 71, 75
1, 799, Note_on_c, 0, 71, 0
1, 800, Note_on_c, 0, 72, 75
1, 815, Note_on_c, 0, 72, 0
1, 816, Note_on_c, 0, 71, 75
1, 816, Note_on_c, 1, 59, 64
1, 816, Note_on_c, 1, 55, 64
1, 836, Note_on_c, 1, 59, 0
1, 836, Note_on_c, 1, 55, 0
1, 861, Note_on_c, 0, 71, 0
1, 864, Note_on_c, 1, 59, 64
1, 864, Note_on_c, 1, 55, 64
1, 912, Note_on_c, 0, 74, 75
1, 953, Note_on_c, 1, 59, 0
1, 953, Note_on_c, 1, 55, 0
1, 957, Note_on_c, 0, 74, 0
1, 960, Note_on_c, 0, 76, 75
1, 960, Note_on_c, 1, 60, 64
1, 960, Note_on_c, 1, 48, 64
1, 966, Note_on_c, 0, 76, 0
1, 966, Note_on_c, 0, 78, 75
1, 972, Note_on_c, 0, 78, 0
1, 972, Note_on_c, 0, 76, 75
1, 983, Note_on_c, 0, 76, 0
1, 984, Note_on_c, 0, 74, 75
1, 1007, Note_on_c, 0, 74, 0
1, 1008, Note_on_c, 0, 76, 75
1, 1031, Note_on_c, 0, 76, 0
1, 1032, Note_on_c, 0, 78, 75
1, 1049, Note_on_c, 1, 60, 0
1, 1049, Note_on_c, 1, 48, 0
1, 1055, Note_on_c, 0, 78, 0
1, 1056, Note_on_c, 0, 79, 75
1, 1056, Note_on_c, 1, 59, 64
1, 1056, Note_on_c, 1, 47, 64
1, 1079, Note_on_c, 0, 79, 0
1, 1080, Note_on_c, 0, 78, 75
1, 1103, Note_on_c, 0, 78, 0
1, 1104, Note_on_c, 0, 76, 75
1, 1127, Note_on_c, 0, 76, 0
1, 1128, Note_on_c, 0, 74, 75
1, 1145, Note_on_c, 1, 59, 0
1, 1145, Note_on_c, 1, 47, 0
1, 1151, Note_on_c, 0, 74, 0
1, 1152, Note_on_c, 0, 72, 75
1, 1152, Note_on_c, 1, 57, 64
1, 1163, Note_on_c, 0, 72, 0
1, 1163, Note_on_c, 0, 74, 75
1, 1174, Note_on_c, 0, 74, 0
1, 1174, Note_on_c, 0, 72, 75
1, 1185, Note_on_c, 0, 72, 0
1, 1185, Note_on_c, 0, 74, 75
1, 1196, Note_on_c, 0, 74, 0
1, 1196, Note_on_c, 0, 72, 75
1, 1197, Note_on_c, 1, 57, 0
1, 1200, Note_on_c, 1, 50, 64
1, 1207, Note_on_c, 0, 72, 0
1, 1207, Note_on_c, 0, 74, 75
1, 1218, Note_on_c, 0, 74, 0
1, 1218, Note_on_c, 0, 72, 75
1, 1228, Note_on_c, 0, 72, 0
1, 1228, Note_on_c, 0, 71, 75
1, 1238, Note_on_c, 0, 71, 0
1, 1238, Note_on_c, 0, 72, 75
1, 1245, Note_on_c, 1, 50, 0
1, 1248, Note_on_c, 0, 72, 0
1, 1248, Note_on_c, 0, 71, 75
1, 1248, Note_on_c, 1, 55, 64
1, 1293, Note_on_c, 0, 71, 0
1, 1296, Note_on_c, 0, 71, 75
1, 1337, Note_on_c, 1, 55, 0
1, 1341, Note_on_c, 0, 71, 0
1, 1344, Note_on_c, 0, 69, 75
1, 1344, Note_on_c, 1, 48, 64
1, 1367, Note_on_c, 0, 69, 0
1, 1368, Note_on_c, 0, 72, 75
1, 1391, Note_on_c, 0, 72, 0
1, 1392, Note_on_c, 0, 71, 75
1, 1415, Note_on_c, 0, 71, 0
1, 1416, Note_on_c, 0, 69, 75
1, 1439, Note_on_c, 0, 69, 0
1, 1440, Note_on_c, 0, 76, 75
1, 1477, Note_on_c, 1, 48, 0
1, 1485, Note_on_c, 0, 76, 0
1, 1488, Note_on_c, 0, 67, 75
1, 1488, Note_on_c, 1, 49, 64
1, 1533, Note_on_c, 0, 67, 0
1, 1533, Note_on_c, 1, 49, 0
1, 1536, Note_on_c, 0, 66, 75
1, 1536, Note_on_c, 1, 50, 64
1, 1581, Note_on_c, 1, 50, 0
1, 1584, Note_on_c, 1, 38, 64
1, 1625, Note_on_c, 0, 66, 0
1, 1629, Note_on_c, 1, 38, 0
1, 1632, Note_on_c, 1, 50, 64
1, 1656, Note_on_c, 0, 81, 75
1, 1677, Note_on_c, 1, 50, 0
1, 1679, Note_on_c, 0, 81, 0
1, 1680, Note_on_c, 1, 54, 64
1, 1704, Note_on_c, 0, 81, 75
1, 1725, Note_on_c, 1, 54, 0
1, 1727, Note_on_c, 0, 81, 0
1, 1728, Note_on_c, 1, 57, 64
1, 1752, Note_on_c, 0, 81, 75
1, 1773, Note_on_c, 1, 57, 0
1, 1775, Note_on_c, 0, 81, 0
1, 1776, Note_on_c, 1, 62, 64
1, 1800, Note_on_c, 0, 81, 75
1, 1821, Note_on_c, 1, 62, 0
1, 1823, Note_on_c, 0, 81, 0
1, 1824, Note_on_c, 1, 66, 64
1, 1848, Note_on_c, 0, 81, 75
1, 1869, Note_on_c, 1, 66, 0
1, 1871, Note_on_c, 0, 81, 0
1, 1872, Note_on_c, 1, 62, 64
1, 1896, Note_on_c, 0, 81, 75
1, 1917, Note_on_c, 1, 62, 0
1, 1919, Note_on_c, 0, 81, 0
1, 1920, Note_on_c, 0, 79, 75
1, 1920, Note_on_c, 1, 64, 64
1, 1935, Note_on_c, 0, 79, 0
1, 1936, Note_on_c, 0, 81, 75
1, 1951, Note_on_c, 0, 81, 0
1, 1952, Note_on_c, 0, 79, 75
1, 1965, Note_on_c, 1, 64, 0
1, 1967, Note_on_c, 0, 79, 0
1, 1968, Note_on_c, 0, 78, 75
1, 1968, Note_on_c, 1, 62, 64
1, 2013, Note_on_c, 0, 78, 0
1, 2013, Note_on_c, 1, 62, 0
1, 2016, Note_on_c, 0, 76, 75
1, 2016, Note_on_c, 1, 67, 64
1, 2031, Note_on_c, 0, 76, 0
1, 2032, Note_on_c, 0, 78, 75
1, 2047, Note_on_c, 0, 78, 0
1, 2048, Note_on_c, 0, 76, 75
1, 2061, Note_on_c, 1, 67, 0
1, 2063, Note_on_c, 0, 76, 0
1, 2064, Note_on_c, 0, 74, 75
1, 2064, Note_on_c, 1, 66, 64
1, 2109, Note_on_c, 0, 74, 0
1, 2109, Note_on_c, 1, 66, 0
1, 2112, Note_on_c, 0, 73, 75
1, 2112, Note_on_c, 1, 64, 64
1, 2127, Note_on_c, 0, 73, 0
1, 2128, Note_on_c, 0, 71, 75
1, 2143, Note_on_c, 0, 71, 0
1, 2144, Note_on_c, 0, 69, 75
1, 2157, Note_on_c, 1, 64, 0
1, 2159, Note_on_c, 0, 69, 0
1, 2160, Note_on_c, 0, 74, 75
1, 2160, Note_on_c, 1, 66, 64
1, 2205, Note_on_c, 0, 74, 0
1, 2205, Note_on_c, 1, 66, 0
1, 2208, Note_on_c, 1, 45, 64
1, 2232, Note_on_c, 0, 79, 75
1, 2253, Note_on_c, 1, 45, 0
1, 2255, Note_on_c, 0, 79, 0
1, 2256, Note_on_c, 1, 49, 64
1, 2280, Note_on_c, 0, 79, 75
1, 2301, Note_on_c, 1, 49, 0
1, 2303, Note_on_c, 0, 79, 0
1, 2304, Note_on_c, 1, 52, 64
1, 2328, Note_on_c, 0, 79, 75
1, 2349, Note_on_c, 1, 52, 0
1, 2351, Note_on_c, 0, 79, 0
1, 2352, Note_on_c, 1, 57, 64
1, 2376, Note_on_c, 0, 79, 75
1, 2397, Note_on_c, 1, 57, 0
1, 2399, Note_on_c, 0, 79, 0
1, 2400, Note_on_c, 1, 61, 64
1, 2424, Note_on_c, 0, 79, 75
1, 2445, Note_on_c, 1, 61, 0
1, 2447, Note_on_c, 0, 79, 0
1, 2448, Note_on_c, 1, 64, 64
1, 2472, Note_on_c, 0, 79, 75
1, 2493, Note_on_c, 1, 64, 0
1, 2495, Note_on_c, 0, 79, 0
1, 2496, Note_on_c, 0, 78, 75
1, 2496, Note_on_c, 1, 62, 64
1, 2511, Note_on_c, 0, 78, 0
1, 2512, Note_on_c, 0, 76, 75
1, 2527, Note_on_c, 0, 76, 0
1, 2528, Note_on_c, 0, 74, 75
1, 2543, Note_on_c, 0, 74, 0
1, 2544, Note_on_c, 0, 73, 75
1, 2559, Note_on_c, 0, 73, 0
1, 2560, Note_on_c, 0, 71, 75
1, 2575, Note_on_c, 0, 71, 0
1, 2576, Note_on_c, 0, 69, 75
1, 2585, Note_on_c, 1, 62, 0
1, 2591, Note_on_c, 0, 69, 0
1, 2592, Note_on_c, 0, 76, 75
1, 2592, Note_on_c, 1, 62, 64
1, 2592, Note_on_c, 0, 57, 64
1, 2603, Note_on_c, 0, 76, 0
1, 2603, Note_on_c, 0, 78, 75
1, 2614, Note_on_c, 0, 78, 0
1, 2614, Note_on_c, 0, 76, 75
1, 2625, Note_on_c, 0, 76, 0
1, 2625, Note_on_c, 0, 78, 75
1, 2636, Note_on_c, 0, 78, 0
1, 2636, Note_on_c, 0, 76, 75
1, 2637, Note_on_c, 1, 62, 0
1, 2640, Note_on_c, 1, 61, 64
1, 2647, Note_on_c, 0, 76, 0
1, 2647, Note_on_c, 0, 78, 75
1, 2658, Note_on_c, 0, 78, 0
1, 2658, Note_on_c, 0, 76, 75
1, 2668, Note_on_c, 0, 76, 0
1, 2668, Note_on_c, 0, 74, 75
1, 2678, Note_on_c, 0, 74, 0
1, 2678, Note_on_c, 0, 76, 75
1, 2681, Note_on_c, 0, 57, 0
1, 2685, Note_on_c, 1, 61, 0
1, 2688, Note_on_c, 0, 76, 0
1, 2688, Note_on_c, 0, 74, 75
1, 2688, Note_on_c, 1, 62, 64
1, 2733, Note_on_c, 0, 74, 0
1, 2733, Note_on_c, 1, 62, 0
1, 2736, Note_on_c, 0, 86, 75
1, 2736, Note_on_c, 1, 59, 64
1, 2759, Note_on_c, 1, 59, 0
1, 2760, Note_on_c, 1, 62, 64
1, 2781, Note_on_c, 0, 86, 0
1, 2783, Note_on_c, 1, 62, 0
1, 2784, Note_on_c, 0, 85, 75
1, 2784, Note_on_c, 1, 57, 64
1, 2807, Note_on_c, 1, 57, 0
1, 2808, Note_on_c, 1, 62, 64
1, 2829, Note_on_c, 0, 85, 0
1, 2831, Note_on_c, 1, 62, 0
1, 2832, Note_on_c, 0, 83, 75
1, 2832, Note_on_c, 1, 55, 64
1, 2855, Note_on_c, 1, 55, 0
1, 2856, Note_on_c, 1, 62, 64
1, 2877, Note_on_c, 0, 83, 0
1, 2879, Note_on_c, 1, 62, 0
1, 2880, Note_on_c, 0, 81, 75
1, 2880, Note_on_c, 1, 54, 64
1, 2925, Note_on_c, 0, 81, 0
1, 2925, Note_on_c, 1, 54, 0
1, 2928, Note_on_c, 0, 83, 75
1, 2928, Note_on_c, 1, 55, 64
1, 2943, Note_on_c, 0, 83, 0
1, 2944, Note_on_c, 0, 81, 75
1, 2959, Note_on_c, 0, 81, 0
1, 2960, Note_on_c, 0, 79, 75
1, 2973, Note_on_c, 1, 55, 0
1, 2975, Note_on_c, 0, 79, 0
1, 2976, Note_on_c, 0, 78, 75
1, 2976, Note_on_c, 1, 57, 64
1, 3021, Note_on_c, 0, 78, 0
1, 3021, Note_on_c, 1, 57, 0
1, 3024, Note_on_c, 0, 76, 75
1, 3024, Note_on_c, 1, 45, 64
1, 3034, Note_on_c, 0, 76, 0
1, 3034, Note_on_c, 0, 78, 75
1, 3044, Note_on_c, 0, 78, 0
1, 3044, Note_on_c, 0, 76, 75
1, 3054, Note_on_c, 0, 76, 0
1, 3054, Note_on_c, 0, 74, 75
1, 3063, Note_on_c, 0, 74, 0
1, 3063, Note_on_c, 0, 76, 75
1, 3069, Note_on_c, 1, 45, 0
1, 3072, Note_on_c, 0, 76, 0
1, 3072, Note_on_c, 0, 74, 75
1, 3072, Note_on_c, 1, 50, 64
1, 3117, Note_on_c, 1, 50, 0
1, 3120, Note_on_c, 1, 45, 64
1, 3161, Note_on_c, 0, 74, 0
1, 3165, Note_on_c, 1, 45, 0
1, 3168, Note_on_c, 1, 38, 64
1, 3213, Note_on_c, 1, 38, 0
1, 3216, Note_on_c, 0, 74, 75
1, 3250, Note_on_c, 0, 74, 0
1, 3252, Note_on_c, 0, 79, 75
1, 3264, Note_on_c, 0, 79, 0
1, 3264, Note_on_c, 0, 74, 75
1, 3264, Note_on_c, 1, 59, 64
1, 3264, Note_on_c, 1, 55, 64
1, 3309, Note_on_c, 0, 74, 0
1, 3312, Note_on_c, 0, 71, 75
1, 3346, Note_on_c, 0, 71, 0
1, 3348, Note_on_c, 0, 74, 75
1, 3353, Note_on_c, 1, 59, 0
1, 3353, Note_on_c, 1, 55, 0
1, 3360, Note_on_c, 0, 74, 0
1, 3360, Note_on_c, 0, 71, 75
1, 3405, Note_on_c, 0, 71, 0
1, 3408, Note_on_c, 0, 67, 75
1, 3442, Note_on_c, 0, 67, 0
1, 3444, Note_on_c, 0, 71, 75
1, 3456, Note_on_c, 0, 71, 0
1, 3456, Note_on_c, 0, 67, 75
1, 3504, Note_on_c, 1, 59, 64
1, 3504, Note_on_c, 1, 55, 64
1, 3524, Note_on_c, 1, 59, 0
1, 3524, Note_on_c, 1, 55, 0
1, 3545, Note_on_c, 0, 67, 0
1, 3552, Note_on_c, 1, 59, 64
1, 3552, Note_on_c, 1, 55, 64
1, 3600, Note_on_c, 0, 74, 75
1, 3641, Note_on_c, 1, 59, 0
1, 3641, Note_on_c, 1, 55, 0
1, 3645, Note_on_c, 0, 74, 0
1, 3648, Note_on_c, 0, 72, 75
1, 3663, Note_on_c, 0, 72, 0
1, 3664, Note_on_c, 0, 74, 75
1, 3679, Note_on_c, 0, 74, 0
1, 3680, Note_on_c, 0, 76, 75
1, 3695, Note_on_c, 0, 76, 0
1, 3696, Note_on_c, 0, 74, 75
1, 3696, Note_on_c, 1, 59, 64
1, 3696, Note_on_c, 1, 55, 64
1, 3716, Note_on_c, 1, 59, 0
1, 3716, Note_on_c, 1, 55, 0
1, 3741, Note_on_c, 0, 74, 0
1, 3744, Note_on_c, 1, 59, 64
1, 3744, Note_on_c, 1, 55, 64
1, 3792, Note_on_c, 0, 71, 75
1, 3833, Note_on_c, 1, 59, 0
1, 3833, Note_on_c, 1, 55, 0
1, 3837, Note_on_c, 0, 71, 0
1, 3840, Note_on_c, 0, 69, 75
1, 3855, Note_on_c, 0, 69, 0
1, 3856, Note_on_c, 0, 71, 75
1, 3871, Note_on_c, 0, 71, 0
1, 3872, Note_on_c, 0, 72, 75
1, 3887, Note_on_c, 0, 72, 0
1, 3888, Note_on_c, 0, 71, 75
1, 3888, Note_on_c, 1, 59, 64
1, 3888, Note_on_c, 1, 55, 64
1, 3908, Note_on_c, 1, 59, 0
1, 3908, Note_on_c, 1, 55, 0
1, 3933, Note_on_c, 0, 71, 0
1, 3936, Note_on_c, 1, 59, 64
1, 3936, Note_on_c, 1, 55, 64
1, 3984, Note_on_c, 0, 74, 75
1, 4025, Note_on_c, 1, 59, 0
1, 4025, Note_on_c, 1, 55, 0
1, 4029, Note_on_c, 0, 74, 0
1, 4032, Note_on_c, 0, 76, 75
1, 4032, Note_on_c, 1, 60, 64
1, 4032, Note_on_c, 1, 48, 64
1, 4038, Note_on_c, 0, 76, 0
1, 4038, Note_on_c, 0, 78, 75
1, 4044, Note_on_c, 0, 78, 0
1, 4044, Note_on_c, 0, 76, 75
1, 4055, Note_on_c, 0, 76, 0
1, 4056, Note_on_c, 0, 74, 75
1, 4079, Note_on_c, 0, 74, 0
1, 4080, Note_on_c, 0, 76, 75
1, 4103, Note_on_c, 0, 76, 0
1, 4104, Note_on_c, 0, 78, 75
1, 4121, Note_on_c, 1, 60, 0
1, 4121, Note_on_c, 1, 48, 0
1, 4127, Note_on_c, 0, 78, 0
1, 4128, Note_on_c, 0, 79, 75
1, 4128, Note_on_c, 1, 59, 64
1, 4128, Note_on_c, 1, 47, 64
1, 4151, Note_on_c, 0, 79, 0
1, 4152, Note_on_c, 0, 78, 75
1, 4175, Note_on_c, 0, 78, 0
1, 4176, Note_on_c, 0, 76, 75
1, 4199, Note_on_c, 0, 76, 0
1, 4200, Note_on_c, 0, 74, 75
1, 4217, Note_on_c, 1, 59, 0
1, 4217, Note_on_c, 1, 47, 0
1, 4223, Note_on_c, 0, 74, 0
1, 4224, Note_on_c, 0, 72, 75
1, 4224, Note_on_c, 1, 57, 64
1, 4235, Note_on_c, 0, 72, 0
1, 4235, Note_on_c, 0, 74, 75
1, 4246, Note_on_c, 0, 74, 0
1, 4246, Note_on_c, 0, 72, 75
1, 4257, Note_on_c, 0, 72, 0
1, 4257, Note_on_c, 0, 74, 75
1, 4268, Note_on_c, 0, 74, 0
1, 4268, Note_on_c, 0, 72, 75
1, 4269, Note_on_c, 1, 57, 0
1, 4272, Note_on_c, 1, 50, 64
1, 4279, Note_on_c, 0, 72, 0
1, 4279, Note_on_c, 0, 74, 75
1, 4290, Note_on_c, 0, 74, 0
1, 4290, Note_on_c, 0, 72, 75
1, 4300, Note_on_c, 0, 72, 0
1, 4300, Note_on_c, 0, 71, 75
1, 4310, Note_on_c, 0, 71, 0
1, 4310, Note_on_c, 0, 72, 75
1, 4317, Note_on_c, 1, 50, 0
1, 4320, Note_on_c, 0, 72, 0
1, 4320, Note_on_c, 0, 71, 75
1, 4320, Note_on_c, 1, 55, 64
1, 4365, Note_on_c, 0, 71, 0
1, 4368, Note_on_c, 0, 71, 75
1, 4409, Note_on_c, 1, 55, 0
1, 4413, Note_on_c, 0, 71, 0
1, 4416, Note_on_c, 0, 69, 75
1, 4416, Note_on_c, 1, 48, 64
1, 4439, Note_on_c, 0, 69, 0
1, 4440, Note_on_c, 0, 72, 75
1, 4463, Note_on_c, 0, 72, 0
1, 4464, Note_on_c, 0, 71, 75
1, 4487, Note_on_c, 0, 71, 0
1, 4488, Note_on_c, 0, 69, 75
1, 4511, Note_on_c, 0, 69, 0
1, 4512, Note_on_c, 0, 76, 75
1, 4549, Note_on_c, 1, 48, 0
1, 4557, Note_on_c, 0, 76, 0
1, 4560, Note_on_c, 0, 67, 75
1, 4560, Note_on_c, 1, 49, 64
1, 4605, Note_on_c, 0, 67, 0
1, 4605, Note_on_c, 1, 49, 0
1, 4608, Note_on_c, 0, 66, 75
1, 4608, Note_on_c, 1, 50, 64
1, 4653, Note_on_c, 1, 50, 0
1, 4656, Note_on_c, 1, 38, 64
1, 4697, Note_on_c, 0, 66, 0
1, 4701, Note_on_c, 1, 38, 0
1, 4704, Note_on_c, 1, 50, 64
1, 4728, Note_on_c, 0, 81, 75
1, 4749, Note_on_c, 1, 50, 0
1, 4751, Note_on_c, 0, 81, 0
1, 4752, Note_on_c, 1, 54, 64
1, 4776, Note_on_c, 0, 81, 75
1, 4797, Note_on_c, 1, 54, 0
1, 4799, Note_on_c, 0, 81, 0
1, 4800, Note_on_c, 1, 57, 64
1, 4824, Note_on_c, 0, 81, 75
1, 4845, Note_on_c, 1, 57, 0
1, 4847, Note_on_c, 0, 81, 0
1, 4848, Note_on_c, 1, 62, 64
1, 4872, Note_on_c, 0, 81, 75
1, 4893, Note_on_c, 1, 62, 0
1, 4895, Note_on_c, 0, 81, 0
1, 4896, Note_on_c, 1, 66, 64
1, 4920, Note_on_c, 0, 81, 75
1, 4941, Note_on_c, 1, 66, 0
1, 4943, Note_on_c, 0, 81, 0
1, 4944, Note_on_c, 1, 62, 64
1, 4968, Note_on_c, 0, 81, 75
1, 4989, Note_on_c, 1, 62, 0
1, 4991, Note_on_c, 0, 81, 0
1, 4992, Note_on_c, 0, 79, 75
1, 4992, Note_on_c, 1, 64, 64
1, 5007, Note_on_c, 0, 79, 0
1, 5008, Note_on_c, 0, 81, 75
1, 5023, Note_on_c, 0, 81, 0
1, 5024, Note_on_c, 0, 79, 75
1, 5037, Note_on_c, 1, 64, 0
1, 5039, Note_on_c, 0, 79, 0
1, 5040, Note_on_c, 0, 78, 75
1, 5040, Note_on_c, 1, 62, 64
1, 5085, Note_on_c, 0, 78, 0
1, 5085, Note_on_c, 1, 62, 0
1, 5088, Note_on_c, 0, 76, 75
1, 5088, Note_on_c, 1, 67, 64
1, 5103, Note_on_c, 0, 76, 0
1, 5104, Note_on_c, 0, 78, 75
1, 5119, Note_on_c, 0, 78, 0
1, 5120, Note_on_c, 0, 76, 75
1, 5133, Note_on_c, 1, 67, 0
1, 5135, Note_on_c, 0, 76, 0
1, 5136, Note_on_c, 0, 74, 75
1, 5136, Note_on_c, 1, 66, 64
1, 5181, Note_on_c, 0, 74, 0
1, 5181, Note_on_c, 1, 66, 0
1, 5184, Note_on_c, 0, 73, 75
1, 5184, Note_on_c, 1, 64, 64
1, 5199, Note_on_c, 0, 73, 0
1, 5200, Note_on_c, 0, 71, 75
1, 5215, Note_on_c, 0, 71, 0
1, 5216, Note_on_c, 0, 69, 75
1, 5229, Note_on_c, 1, 64, 0
1, 5231, Note_on_c, 0, 69, 0
1, 5232, Note_on_c, 0, 74, 75
1, 5232, Note_on_c, 1, 66, 64
1, 5277, Note_on_c, 0, 74, 0
1, 5277, Note_on_c, 1, 66, 0
1, 5280, Note_on_c, 1, 45, 64
1, 5304, Note_on_c, 0, 79, 75
1, 5325, Note_on_c, 1, 45, 0
1, 5327, Note_on_c, 0, 79, 0
1, 5328, Note_on_c, 1, 49, 64
1, 5352, Note_on_c, 0, 79, 75
1, 5373, Note_on_c, 1, 49, 0
1, 5375, Note_on_c, 0, 79, 0
1, 5376, Note_on_c, 1, 52, 64
1, 5400, Note_on_c, 0, 79, 75
1, 5421, Note_on_c, 1, 52, 0
1, 5423, Note_on_c, 0, 79, 0
1, 5424, Note_on_c, 1, 57, 64
1, 5448, Note_on_c, 0, 79, 75
1, 5469, Note_on_c, 1, 57, 0
1, 5471, Note_on_c, 0, 79, 0
1, 5472, Note_on_c, 1, 61, 64
1, 5496, Note_on_c, 0, 79, 75
1, 5517, Note_on_c, 1, 61, 0
1, 5519, Note_on_c, 0, 79, 0
1, 5520, Note_on_c, 1, 64, 64
1, 5544, Note_on_c, 0, 79, 75
1, 5565, Note_on_c, 1, 64, 0
1, 5567, Note_on_c, 0, 79, 0
1, 5568, Note_on_c, 0, 78, 75
1, 5568, Note_on_c, 1, 62, 64
1, 5583, Note_on_c, 0, 78, 0
1, 5584, Note_on_c, 0, 76, 75
1, 5599, Note_on_c, 0, 76, 0
1, 5600, Note_on_c, 0, 74, 75
1, 5615, Note_on_c, 0, 74, 0
1, 5616, Note_on_c, 0, 73, 75
1, 5631, Note_on_c, 0, 73, 0
1, 5632, Note_on_c, 0, 71, 75
1, 5647, Note_on_c, 0, 71, 0
1, 5648, Note_on_c, 0, 69, 75
1, 5657, Note_on_c, 1, 62, 0
1, 5663, Note_on_c, 0, 69, 0
1, 5664, Note_on_c, 0, 76, 75
1, 5664, Note_on_c, 1, 62, 64
1, 5664, Note_on_c, 0, 57, 64
1, 5675, Note_on_c, 0, 76, 0
1, 5675, Note_on_c, 0, 78, 75
1, 5686, Note_on_c, 0, 78, 0
1, 5686, Note_on_c, 0, 76, 75
1, 5697, Note_on_c, 0, 76, 0
1, 5697, Note_on_c, 0, 78, 75
1, 5708, Note_on_c, 0, 78, 0
1, 5708, Note_on_c, 0, 76, 75
1, 5709, Note_on_c, 1, 62, 0
1, 5712, Note_on_c, 1, 61, 64
1, 5719, Note_on_c, 0, 76, 0
1, 5719, Note_on_c, 0, 78, 75
1, 5730, Note_on_c, 0, 78, 0
1, 5730, Note_on_c, 0, 76, 75
1, 5740, Note_on_c, 0, 76, 0
1, 5740, Note_on_c, 0, 74, 75
1, 5750, Note_on_c, 0, 74, 0
1, 5750, Note_on_c, 0, 76, 75
1, 5753, Note_on_c, 0, 57, 0
1, 5757, Note_on_c, 1, 61, 0
1, 5760, Note_on_c, 0, 76, 0
1, 5760, Note_on_c, 0, 74, 75
1, 5760, Note_on_c, 1, 62, 64
1, 5805, Note_on_c, 0, 74, 0
1, 5805, Note_on_c, 1, 62, 0
1, 5808, Note_on_c, 0, 86, 75
1, 5808, Note_on_c, 1, 59, 64
1, 5831, Note_on_c, 1, 59, 0
1, 5832, Note_on_c, 1, 62, 64
1, 5853, Note_on_c, 0, 86, 0
1, 5855, Note_on_c, 1, 62, 0
1, 5856, Note_on_c, 0, 85, 75
1, 5856, Note_on_c, 1, 57, 64
1, 5879, Note_on_c, 1, 57, 0
1, 5880, Note_on_c, 1, 62, 64
1, 5901, Note_on_c, 0, 85, 0
1, 5903, Note_on_c, 1, 62, 0
1, 5904, Note_on_c, 0, 83, 75
1, 5904, Note_on_c, 1, 55, 64
1, 5927, Note_on_c, 1, 55, 0
1, 5928, Note_on_c, 1, 62, 64
1, 5949, Note_on_c, 0, 83, 0
1, 5951, Note_on_c, 1, 62, 0
1, 5952, Note_on_c, 0, 81, 75
1, 5952, Note_on_c, 1, 54, 64
1, 5997, Note_on_c, 0, 81, 0
1, 5997, Note_on_c, 1, 54, 0
1, 6000, Note_on_c, 0, 83, 75
1, 6000, Note_on_c, 1, 55, 64
1, 6015, Note_on_c, 0, 83, 0
1, 6016, Note_on_c, 0, 81, 75
1, 6031, Note_on_c, 0, 81, 0
1, 6032, Note_on_c, 0, 79, 75
1, 6045, Note_on_c, 1, 55, 0
1, 6047, Note_on_c, 0, 79, 0
1, 6048, Note_on_c, 0, 78, 75
1, 6048, Note_on_c, 1, 57, 64
1, 6093, Note_on_c, 0, 78, 0
1, 6093, Note_on_c, 1, 57, 0
1, 6096, Note_on_c, 0, 76, 75
1, 6096, Note_on_c, 1, 45, 64
1, 6106, Note_on_c, 0, 76, 0
1, 6106, Note_on_c, 0, 78, 75
1, 6116, Note_on_c, 0, 78, 0
1, 6116, Note_on_c, 0, 76, 75
1, 6126, Note_on_c, 0, 76, 0
1, 6126, Note_on_c, 0, 74, 75
1, 6135, Note_on_c, 0, 74, 0
1, 6135, Note_on_c, 0, 76, 75
1, 6141, Note_on_c, 1, 45, 0
1, 6144, Note_on_c, 0, 76, 0
1, 6144, Note_on_c, 0, 74, 75
1, 6144, Note_on_c, 1, 50, 64
1, 6189, Note_on_c, 1, 50, 0
1, 6192, Note_on_c, 1, 45, 64
1, 6233, Note_on_c, 0, 74, 0
1, 6237, Note_on_c, 1, 45, 0
1, 6240, Note_on_c, 1, 38, 64
1, 6285, Note_on_c, 1, 38, 0
1, 6288, Note_on_c, 0, 74, 75
1, 6322, Note_on_c, 0, 74, 0
1, 6324, Note_on_c, 0, 78, 75
1, 6336, Note_on_c, 0, 78, 0
1, 6336, Note_on_c, 0, 62, 64
1, 6360, Note_on_c, 0, 74, 75
1, 6383, Note_on_c, 0, 74, 0
1, 6384, Note_on_c, 1, 66, 64
1, 6408, Note_on_c, 0, 84, 75
1, 6429, Note_on_c, 1, 66, 0
1, 6431, Note_on_c, 0, 84, 0
1, 6432, Note_on_c, 1, 69, 64
1, 6456, Note_on_c, 0, 78, 75
1, 6477, Note_on_c, 1, 69, 0
1, 6479, Note_on_c, 0, 78, 0
1, 6480, Note_on_c, 1, 72, 64
1, 6504, Note_on_c, 0, 81, 75
1, 6525, Note_on_c, 1, 72, 0
1, 6527, Note_on_c, 0, 81, 0
1, 6528, Note_on_c, 1, 71, 64
1, 6552, Note_on_c, 0, 79, 75
1, 6573, Note_on_c, 1, 71, 0
1, 6575, Note_on_c, 0, 79, 0
1, 6576, Note_on_c, 0, 83, 75
1, 6576, Note_on_c, 1, 67, 64
1, 6599, Note_on_c, 0, 83, 0
1, 6600, Note_on_c, 0, 74, 75
1, 6621, Note_on_c, 1, 67, 0
1, 6623, Note_on_c, 0, 74, 0
1, 6624, Note_on_c, 0, 72, 75
1, 6624, Note_on_c, 1, 69, 64
1, 6639, Note_on_c, 0, 72, 0
1, 6640, Note_on_c, 0, 74, 75
1, 6655, Note_on_c, 0, 74, 0
1, 6656, Note_on_c, 0, 76, 75
1, 6669, Note_on_c, 1, 69, 0
1, 6671, Note_on_c, 0, 76, 0
1, 6672, Note_on_c, 0, 69, 75
1, 6672, Note_on_c, 1, 66, 64
1, 6687, Note_on_c, 0, 69, 0
1, 6688, Note_on_c, 0, 71, 75
1, 6703, Note_on_c, 0, 71, 0
1, 6704, Note_on_c, 0, 72, 75
1, 6717, Note_on_c, 1, 66, 0
1, 6719, Note_on_c, 0, 72, 0
1, 6720, Note_on_c, 0, 71, 75
1, 6720, Note_on_c, 1, 67, 64
1, 6735, Note_on_c, 0, 71, 0
1, 6736, Note_on_c, 0, 72, 75
1, 6751, Note_on_c, 0, 72, 0
1, 6752, Note_on_c, 0, 74, 75
1, 6765, Note_on_c, 1, 67, 0
1, 6767, Note_on_c, 0, 74, 0
1, 6768, Note_on_c, 0, 72, 75
1, 6768, Note_on_c, 1, 69, 64
1, 6783, Note_on_c, 0, 72, 0
1, 6784, Note_on_c, 0, 74, 75
1, 6799, Note_on_c, 0, 74, 0
1, 6800, Note_on_c, 0, 76, 75
1, 6813, Note_on_c, 1, 69, 0
1, 6815, Note_on_c, 0, 76, 0
1, 6816, Note_on_c, 0, 74, 75
1, 6816, Note_on_c, 1, 71, 64
1, 6853, Note_on_c, 0, 62, 0
1, 6861, Note_on_c, 0, 74, 0
1, 6861, Note_on_c, 1, 71, 0
1, 6864, Note_on_c, 0, 74, 75
1, 6898, Note_on_c, 0, 74, 0
1, 6900, Note_on_c, 0, 78, 75
1, 6912, Note_on_c, 0, 78, 0
1, 6912, Note_on_c, 0, 74, 75
1, 6957, Note_on_c, 0, 74, 0
1, 6960, Note_on_c, 0, 66, 75
1, 6960, Note_on_c, 1, 50, 64
1, 6983, Note_on_c, 1, 50, 0
1, 6984, Note_on_c, 1, 62, 64
1, 7005, Note_on_c, 0, 66, 0
1, 7007, Note_on_c, 1, 62, 0
1, 7008, Note_on_c, 0, 67, 75
1, 7008, Note_on_c, 1, 52, 64
1, 7031, Note_on_c, 1, 52, 0
1, 7032, Note_on_c, 1, 62, 64
1, 7053, Note_on_c, 0, 67, 0
1, 7055, Note_on_c, 1, 62, 0
1, 7056, Note_on_c, 0, 69, 75
1, 7056, Note_on_c, 1, 54, 64
1, 7079, Note_on_c, 1, 54, 0
1, 7080, Note_on_c, 1, 62, 64
1, 7101, Note_on_c, 0, 69, 0
1, 7103, Note_on_c, 1, 62, 0
1, 7104, Note_on_c, 0, 71, 75
1, 7104, Note_on_c, 1, 55, 64
1, 7127, Note_on_c, 1, 55, 0
1, 7128, Note_on_c, 1, 62, 64
1, 7149, Note_on_c, 0, 71, 0
1, 7151, Note_on_c, 1, 62, 0
1, 7152, Note_on_c, 0, 72, 75
1, 7152, Note_on_c, 1, 57, 64
1, 7162, Note_on_c, 0, 72, 0
1, 7162, Note_on_c, 0, 74, 75
1, 7172, Note_on_c, 0, 74, 0
1, 7172, Note_on_c, 0, 72, 75
1, 7175, Note_on_c, 1, 57, 0
1, 7176, Note_on_c, 1, 62, 64
1, 7182, Note_on_c, 0, 72, 0
1, 7182, Note_on_c, 0, 71, 75
1, 7191, Note_on_c, 0, 71, 0
1, 7191, Note_on_c, 0, 72, 75
1, 7199, Note_on_c, 1, 62, 0
1, 7200, Note_on_c, 0, 72, 0
1, 7200, Note_on_c, 0, 74, 75
1, 7200, Note_on_c, 1, 59, 64
1, 7245, Note_on_c, 0, 74, 0
1, 7245, Note_on_c, 1, 59, 0
1, 7248, Note_on_c, 0, 79, 75
1, 7282, Note_on_c, 0, 79, 0
1, 7284, Note_on_c, 0, 83, 75
1, 7296, Note_on_c, 0, 83, 0
1, 7296, Note_on_c, 0, 79, 75
1, 7341, Note_on_c, 0, 79, 0
1, 7344, Note_on_c, 0, 71, 75
1, 7344, Note_on_c, 1, 43, 64
1, 7367, Note_on_c, 1, 43, 0
1, 7368, Note_on_c, 1, 55, 64
1, 7389, Note_on_c, 0, 71, 0
1, 7391, Note_on_c, 1, 55, 0
1, 7392, Note_on_c, 0, 72, 75
1, 7392, Note_on_c, 1, 45, 64
1, 7415, Note_on_c, 1, 45, 0
1, 7416, Note_on_c, 1, 55, 64
1, 7437, Note_on_c, 0, 72, 0
1, 7439, Note_on_c, 1, 55, 0
1, 7440, Note_on_c, 0, 74, 75
1, 7440, Note_on_c, 1, 47, 64
1, 7463, Note_on_c, 1, 47, 0
1, 7464, Note_on_c, 1, 55, 64
1, 7485, Note_on_c, 0, 74, 0
1, 7487, Note_on_c, 1, 55, 0
1, 7488, Note_on_c, 0, 76, 75
1, 7488, Note_on_c, 1, 48, 64
1, 7511, Note_on_c, 1, 48, 0
1, 7512, Note_on_c, 1, 55, 64
1, 7533, Note_on_c, 0, 76, 0
1, 7535, Note_on_c, 1, 55, 0
1, 7536, Note_on_c, 0, 77, 75
1, 7536, Note_on_c, 1, 50, 64
1, 7546, Note_on_c, 0, 77, 0
1, 7546, Note_on_c, 0, 79, 75
1, 7556, Note_on_c, 0, 79, 0
1, 7556, Note_on_c, 0, 77, 75
1, 7559, Note_on_c, 1, 50, 0
1, 7560, Note_on_c, 1, 55, 64
1, 7566, Note_on_c, 0, 77, 0
1, 7566, Note_on_c, 0, 76, 75
1, 7575, Note_on_c, 0, 76, 0
1, 7575, Note_on_c, 0, 77, 75
1, 7583, Note_on_c, 1, 55, 0
1, 7584, Note_on_c, 0, 77, 0
1, 7584, Note_on_c, 0, 79, 75
1, 7584, Note_on_c, 1, 52, 64
1, 7629, Note_on_c, 0, 79, 0
1, 7629, Note_on_c, 1, 52, 0
1, 7632, Note_on_c, 0, 76, 75
1, 7632, Note_on_c, 1, 60, 64
1, 7666, Note_on_c, 0, 76, 0
1, 7668, Note_on_c, 0, 79, 75
1, 7677, Note_on_c, 1, 60, 0
1, 7680, Note_on_c, 0, 79, 0
1, 7680, Note_on_c, 0, 74, 75
1, 7680, Note_on_c, 1, 59, 64
1, 7725, Note_on_c, 0, 74, 0
1, 7725, Note_on_c, 1, 59, 0
1, 7728, Note_on_c, 0, 72, 75
1, 7728, Note_on_c, 1, 57, 64
1, 7743, Note_on_c, 0, 72, 0
1, 7744, Note_on_c, 0, 74, 75
1, 7759, Note_on_c, 0, 74, 0
1, 7760, Note_on_c, 0, 72, 75
1, 7773, Note_on_c, 1, 57, 0
1, 7775, Note_on_c, 0, 72, 0
1, 7776, Note_on_c, 0, 71, 75
1, 7776, Note_on_c, 1, 55, 64
1, 7821, Note_on_c, 0, 71, 0
1, 7821, Note_on_c, 1, 55, 0
1, 7824, Note_on_c, 0, 74, 75
1, 7824, Note_on_c, 1, 59, 64
1, 7839, Note_on_c, 0, 74, 0
1, 7840, Note_on_c, 0, 72, 75
1, 7855, Note_on_c, 0, 72, 0
1, 7856, Note_on_c, 0, 71, 75
1, 7869, Note_on_c, 1, 59, 0
1, 7871, Note_on_c, 0, 71, 0
1, 7872, Note_on_c, 0, 69, 75
1, 7872, Note_on_c, 1, 60, 64
1, 7917, Note_on_c, 0, 69, 0
1, 7920, Note_on_c, 0, 72, 75
1, 7935, Note_on_c, 0, 72, 0
1, 7936, Note_on_c, 0, 71, 75
1, 7951, Note_on_c, 0, 71, 0
1, 7952, Note_on_c, 0, 69, 75
1, 7967, Note_on_c, 0, 69, 0
1, 7968, Note_on_c, 0, 76, 75
1, 8005, Note_on_c, 1, 60, 0
1, 8013, Note_on_c, 0, 76, 0
1, 8016, Note_on_c, 0, 67, 75
1, 8016, Note_on_c, 1, 61, 64
1, 8061, Note_on_c, 0, 67, 0
1, 8061, Note_on_c, 1, 61, 0
1, 8064, Note_on_c, 0, 67, 75
1, 8064, Note_on_c, 1, 62, 64
1, 8074, Note_on_c, 0, 67, 0
1, 8074, Note_on_c, 0, 69, 75
1, 8084, Note_on_c, 0, 69, 0
1, 8084, Note_on_c, 0, 67, 75
1, 8094, Note_on_c, 0, 67, 0
1, 8094, Note_on_c, 0, 66, 75
1, 8103, Note_on_c, 0, 66, 0
1, 8103, Note_on_c, 0, 67, 75
1, 8109, Note_on_c, 1, 62, 0
1, 8112, Note_on_c, 0, 67, 0
1, 8112, Note_on_c, 0, 66, 75
1, 8112, Note_on_c, 1, 57, 64
1, 8157, Note_on_c, 0, 66, 0
1, 8157, Note_on_c, 1, 57, 0
1, 8160, Note_on_c, 1, 50, 64
1, 8205, Note_on_c, 1, 50, 0
1, 8208, Note_on_c, 0, 74, 75
1, 8242, Note_on_c, 0, 74, 0
1, 8244, Note_on_c, 0, 79, 75
1, 8256, Note_on_c, 0, 79, 0
1, 8256, Note_on_c, 0, 74, 75
1, 8256, Note_on_c, 1, 59, 64
1, 8256, Note_on_c, 1, 55, 64
1, 8301, Note_on_c, 0, 74, 0
1, 8304, Note_on_c, 0, 71, 75
1, 8338, Note_on_c, 0, 71, 0
1, 8340, Note_on_c, 0, 74, 75
1, 8345, Note_on_c, 1, 59, 0
1, 8345, Note_on_c, 1, 55, 0
1, 8352, Note_on_c, 0, 74, 0
1, 8352, Note_on_c, 0, 71, 75
1, 8397, Note_on_c, 0, 71, 0
1, 8400, Note_on_c, 0, 67, 75
1, 8434, Note_on_c, 0, 67, 0
1, 8436, Note_on_c, 0, 71, 75
1, 8448, Note_on_c, 0, 71, 0
1, 8448, Note_on_c, 0, 67, 75
1, 8496, Note_on_c, 1, 55, 75
1, 8496, Note_on_c, 1, 43, 75
1, 8516, Note_on_c, 1, 55, 0
1, 8516, Note_on_c, 1, 43, 0
1, 8537, Note_on_c, 0, 67, 0
1, 8544, Note_on_c, 1, 55, 75
1, 8544, Note_on_c, 1, 43, 75
1, 8592, Note_on_c, 0, 74, 75
1, 8633, Note_on_c, 1, 55, 0
1, 8633, Note_on_c, 1, 43, 0
1, 8637, Note_on_c, 0, 74, 0
1, 8640, Note_on_c, 0, 72, 75
1, 8655, Note_on_c, 0, 72, 0
1, 8656, Note_on_c, 0, 74, 75
1, 8671, Note_on_c, 0, 74, 0
1, 8672, Note_on_c, 0, 76, 75
1, 8687, Note_on_c, 0, 76, 0
1, 8688, Note_on_c, 0, 74, 75
1, 8688, Note_on_c, 1, 59, 69
1, 8688, Note_on_c, 1, 55, 69
1, 8708, Note_on_c, 1, 59, 0
1, 8708, Note_on_c, 1, 55, 0
1, 8733, Note_on_c, 0, 74, 0
1, 8736, Note_on_c, 1, 59, 69
1, 8736, Note_on_c, 1, 55, 69
1, 8784, Note_on_c, 0, 71, 75
1, 8825, Note_on_c, 1, 59, 0
1, 8825, Note_on_c, 1, 55, 0
1, 8829, Note_on_c, 0, 71, 0
1, 8832, Note_on_c, 0, 69, 75
1, 8847, Note_on_c, 0, 69, 0
1, 8848, Note_on_c, 0, 71, 75
1, 8863, Note_on_c, 0, 71, 0
1, 8864, Note_on_c, 0, 72, 75
1, 8879, Note_on_c, 0, 72, 0
1, 8880, Note_on_c, 0, 71, 75
1, 8880, Note_on_c, 1, 59, 69
1, 8880, Note_on_c, 1, 55, 69
1, 8900, Note_on_c, 1, 59, 0
1, 8900, Note_on_c, 1, 55, 0
1, 8925, Note_on_c, 0, 71, 0
1, 8928, Note_on_c, 1, 59, 69
1, 8928, Note_on_c, 1, 55, 69
1, 8976, Note_on_c, 0, 74, 75
1, 9017, Note_on_c, 1, 59, 0
1, 9017, Note_on_c, 1, 55, 0
1, 9021, Note_on_c, 0, 74, 0
1, 9024, Note_on_c, 0, 76, 75
1, 9024, Note_on_c, 1, 60, 69
1, 9024, Note_on_c, 1, 48, 69
1, 9030, Note_on_c, 0, 76, 0
1, 9030, Note_on_c, 0, 78, 75
1, 9036, Note_on_c, 0, 78, 0
1, 9036, Note_on_c, 0, 76, 75
1, 9047, Note_on_c, 0, 76, 0
1, 9048, Note_on_c, 0, 74, 75
1, 9071, Note_on_c, 0, 74, 0
1, 9072, Note_on_c, 0, 76, 75
1, 9095, Note_on_c, 0, 76, 0
1, 9096, Note_on_c, 0, 78, 75
1, 9113, Note_on_c, 1, 60, 0
1, 9113, Note_on_c, 1, 48, 0
1, 9119, Note_on_c, 0, 78, 0
1, 9120, Note_on_c, 0, 79, 75
1, 9120, Note_on_c, 1, 59, 69
1, 9120, Note_on_c, 1, 47, 69
1, 9143, Note_on_c, 0, 79, 0
1, 9144, Note_on_c, 0, 78, 75
1, 9167, Note_on_c, 0, 78, 0
1, 9168, Note_on_c, 0, 76, 75
1, 9191, Note_on_c, 0, 76, 0
1, 9192, Note_on_c, 0, 74, 75
1, 9209, Note_on_c, 1, 59, 0
1, 9209, Note_on_c, 1, 47, 0
1, 9215, Note_on_c, 0, 74, 0
1, 9216, Note_on_c, 0, 72, 75
1, 9216, Note_on_c, 1, 57, 69
1, 9227, Note_on_c, 0, 72, 0
1, 9227, Note_on_c, 0, 74, 75
1, 9238, Note_on_c, 0, 74, 0
1, 9238, Note_on_c, 0, 72, 75
1, 9249, Note_on_c, 0, 72, 0
1, 9249, Note_on_c, 0, 74, 75
1, 9260, Note_on_c, 0, 74, 0
1, 9260, Note_on_c, 0, 72, 75
1, 9261, Note_on_c, 1, 57, 0
1, 9264, Note_on_c, 1, 50, 69
1, 9271, Note_on_c, 0, 72, 0
1, 9271, Note_on_c, 0, 74, 75
1, 9282, Note_on_c, 0, 74, 0
1, 9282, Note_on_c, 0, 72, 75
1, 9292, Note_on_c, 0, 72, 0
1, 9292, Note_on_c, 0, 71, 75
1, 9302, Note_on_c, 0, 71, 0
1, 9302, Note_on_c, 0, 72, 75
1, 9309, Note_on_c, 1, 50, 0
1, 9312, Note_on_c, 0, 72, 0
1, 9312, Note_on_c, 0, 71, 75
1, 9312, Note_on_c, 1, 55, 69
1, 9357, Note_on_c, 0, 71, 0
1, 9360, Note_on_c, 0, 71, 75
1, 9401, Note_on_c, 1, 55, 0
1, 9405, Note_on_c, 0, 71, 0
1, 9408, Note_on_c, 0, 69, 75
1, 9408, Note_on_c, 1, 60, 69
1, 9431, Note_on_c, 0, 69, 0
1, 9432, Note_on_c, 0, 72, 75
1, 9455, Note_on_c, 0, 72, 0
1, 9456, Note_on_c, 0, 71, 75
1, 9479, Note_on_c, 0, 71, 0
1, 9480, Note_on_c, 0, 69, 75
1, 9503, Note_on_c, 0, 69, 0
1, 9504, Note_on_c, 0, 76, 75
1, 9541, Note_on_c, 1, 60, 0
1, 9549, Note_on_c, 0, 76, 0
1, 9552, Note_on_c, 0, 67, 75
1, 9552, Note_on_c, 1, 61, 69
1, 9597, Note_on_c, 0, 67, 0
1, 9597, Note_on_c, 1, 61, 0
1, 9600, Note_on_c, 0, 67, 75
1, 9600, Note_on_c, 1, 62, 69
1, 9645, Note_on_c, 0, 67, 0
1, 9645, Note_on_c, 1, 62, 0
1, 9648, Note_on_c, 0, 66, 75
1, 9648, Note_on_c, 1, 50, 69
1, 9693, Note_on_c, 0, 66, 0
1, 9693, Note_on_c, 1, 50, 0
1, 9696, Note_on_c, 1, 55, 69
1, 9720, Note_on_c, 0, 86, 75
1, 9741, Note_on_c, 1, 55, 0
1, 9743, Note_on_c, 0, 86, 0
1, 9744, Note_on_c, 1, 59, 69
1, 9768, Note_on_c, 0, 86, 75
1, 9789, Note_on_c, 1, 59, 0
1, 9791, Note_on_c, 0, 86, 0
1, 9792, Note_on_c, 1, 62, 69
1, 9816, Note_on_c, 0, 86, 75
1, 9837, Note_on_c, 1, 62, 0
1, 9839, Note_on_c, 0, 86, 0
1, 9840, Note_on_c, 1, 67, 69
1, 9864, Note_on_c, 0, 86, 75
1, 9885, Note_on_c, 1, 67, 0
1, 9887, Note_on_c, 0, 86, 0
1, 9888, Note_on_c, 1, 71, 69
1, 9912, Note_on_c, 0, 86, 75
1, 9933, Note_on_c, 1, 71, 0
1, 9935, Note_on_c, 0, 86, 0
1, 9936, Note_on_c, 1, 67, 69
1, 9960, Note_on_c, 0, 86, 75
1, 9981, Note_on_c, 1, 67, 0
1, 9983, Note_on_c, 0, 86, 0
1, 9984, Note_on_c, 0, 84, 75
1, 9984, Note_on_c, 1, 69, 69
1, 9999, Note_on_c, 0, 84, 0
1, 10000, Note_on_c, 0, 86, 75
1, 10015, Note_on_c, 0, 86, 0
1, 10016, Note_on_c, 0, 84, 75
1, 10029, Note_on_c, 1, 69, 0
1, 10031, Note_on_c, 0, 84, 0
1, 10032, Note_on_c, 0, 83, 75
1, 10032, Note_on_c, 1, 67, 69
1, 10077, Note_on_c, 0, 83, 0
1, 10077, Note_on_c, 1, 67, 0
1, 10080, Note_on_c, 0, 81, 75
1, 10080, Note_on_c, 1, 72, 69
1, 10095, Note_on_c, 0, 81, 0
1, 10096, Note_on_c, 0, 83, 75
1, 10111, Note_on_c, 0, 83, 0
1, 10112, Note_on_c, 0, 81, 75
1, 10125, Note_on_c, 1, 72, 0
1, 10127, Note_on_c, 0, 81, 0
1, 10128, Note_on_c, 0, 79, 75
1, 10128, Note_on_c, 1, 71, 69
1, 10173, Note_on_c, 0, 79, 0
1, 10173, Note_on_c, 1, 71, 0
1, 10176, Note_on_c, 0, 78, 75
1, 10176, Note_on_c, 1, 69, 69
1, 10191, Note_on_c, 0, 78, 0
1, 10192, Note_on_c, 0, 76, 75
1, 10207, Note_on_c, 0, 76, 0
1, 10208, Note_on_c, 0, 74, 75
1, 10221, Note_on_c, 1, 69, 0
1, 10223, Note_on_c, 0, 74, 0
1, 10224, Note_on_c, 0, 79, 75
1, 10224, Note_on_c, 1, 71, 69
1, 10269, Note_on_c, 0, 79, 0
1, 10269, Note_on_c, 1, 71, 0
1, 10272, Note_on_c, 1, 50, 69
1, 10296, Note_on_c, 0, 84, 75
1, 10317, Note_on_c, 1, 50, 0
1, 10319, Note_on_c, 0, 84, 0
1, 10320, Note_on_c, 1, 54, 69
1, 10344, Note_on_c, 0, 84, 75
1, 10365, Note_on_c, 1, 54, 0
1, 10367, Note_on_c, 0, 84, 0
1, 10368, Note_on_c, 1, 57, 69
1, 10392, Note_on_c, 0, 84, 75
1, 10413, Note_on_c, 1, 57, 0
1, 10415, Note_on_c, 0, 84, 0
1, 10416, Note_on_c, 1, 62, 69
1, 10440, Note_on_c, 0, 84, 75
1, 10461, Note_on_c, 1, 62, 0
1, 10463, Note_on_c, 0, 84, 0
1, 10464, Note_on_c, 1, 66, 69
1, 10488, Note_on_c, 0, 84, 75
1, 10509, Note_on_c, 1, 66, 0
1, 10511, Note_on_c, 0, 84, 0
1, 10512, Note_on_c, 1, 69, 69
1, 10536, Note_on_c, 0, 84, 75
1, 10557, Note_on_c, 1, 69, 0
1, 10559, Note_on_c, 0, 84, 0
1, 10560, Note_on_c, 0, 83, 75
1, 10560, Note_on_c, 1, 67, 69
1, 10575, Note_on_c, 0, 83, 0
1, 10576, Note_on_c, 0, 81, 75
1, 10591, Note_on_c, 0, 81, 0
1, 10592, Note_on_c, 0, 79, 75
1, 10607, Note_on_c, 0, 79, 0
1, 10608, Note_on_c, 0, 78, 75
1, 10623, Note_on_c, 0, 78, 0
1, 10624, Note_on_c, 0, 76, 75
1, 10639, Note_on_c, 0, 76, 0
1, 10640, Note_on_c, 0, 74, 75
1, 10649, Note_on_c, 1, 67, 0
1, 10655, Note_on_c, 0, 74, 0
1, 10656, Note_on_c, 0, 83, 75
1, 10656, Note_on_c, 1, 67, 69
1, 10656, Note_on_c, 1, 62, 69
1, 10668, Note_on_c, 0, 83, 0
1, 10668, Note_on_c, 0, 81, 75
1, 10680, Note_on_c, 0, 81, 0
1, 10680, Note_on_c, 0, 83, 75
1, 10692, Note_on_c, 0, 83, 0
1, 10692, Note_on_c, 0, 81, 75
1, 10704, Note_on_c, 0, 81, 0
1, 10704, Note_on_c, 0, 83, 75
1, 10704, Note_on_c, 1, 67, 0
1, 10704, Note_on_c, 1, 66, 69
1, 10716, Note_on_c, 0, 83, 0
1, 10716, Note_on_c, 0, 81, 75
1, 10728, Note_on_c, 0, 81, 0
1, 10728, Note_on_c, 0, 79, 75
1, 10740, Note_on_c, 0, 79, 0
1, 10740, Note_on_c, 0, 81, 75
1, 10749, Note_on_c, 1, 66, 0
1, 10749, Note_on_c, 1, 62, 0
1, 10752, Note_on_c, 0, 81, 0
1, 10752, Note_on_c, 0, 79, 75
1, 10752, Note_on_c, 1, 67, 69
1, 10797, Note_on_c, 0, 79, 0
1, 10797, Note_on_c, 1, 67, 0
1, 10800, Note_on_c, 0, 79, 75
1, 10800, Note_on_c, 1, 64, 69
1, 10823, Note_on_c, 1, 64, 0
1, 10824, Note_on_c, 1, 67, 69
1, 10845, Note_on_c, 0, 79, 0
1, 10847, Note_on_c, 1, 67, 0
1, 10848, Note_on_c, 0, 78, 75
1, 10848, Note_on_c, 1, 62, 69
1, 10871, Note_on_c, 1, 62, 0
1, 10872, Note_on_c, 1, 67, 69
1, 10893, Note_on_c, 0, 78, 0
1, 10895, Note_on_c, 1, 67, 0
1, 10896, Note_on_c, 0, 76, 75
1, 10896, Note_on_c, 1, 60, 69
1, 10919, Note_on_c, 1, 60, 0
1, 10920, Note_on_c, 1, 67, 69
1, 10941, Note_on_c, 0, 76, 0
1, 10943, Note_on_c, 1, 67, 0
1, 10944, Note_on_c, 0, 74, 75
1, 10944, Note_on_c, 1, 59, 69
1, 10989, Note_on_c, 0, 74, 0
1, 10989, Note_on_c, 1, 59, 0
1, 10992, Note_on_c, 0, 76, 75
1, 10992, Note_on_c, 1, 60, 69
1, 11007, Note_on_c, 0, 76, 0
1, 11008, Note_on_c, 0, 74, 75
1, 11023, Note_on_c, 0, 74, 0
1, 11024, Note_on_c, 0, 72, 75
1, 11037, Note_on_c, 1, 60, 0
1, 11039, Note_on_c, 0, 72, 0
1, 11040, Note_on_c, 0, 71, 75
1, 11040, Note_on_c, 1, 62, 69
1, 11085, Note_on_c, 0, 71, 0
1, 11085, Note_on_c, 1, 62, 0
1, 11088, Note_on_c, 0, 69, 75
1, 11088, Note_on_c, 1, 50, 69
1, 11098, Note_on_c, 0, 69, 0
1, 11098, Note_on_c, 0, 71, 75
1, 11108, Note_on_c, 0, 71, 0
1, 11108, Note_on_c, 0, 69, 75
1, 11118, Note_on_c, 0, 69, 0
1, 11118, Note_on_c, 0, 67, 75
1, 11127, Note_on_c, 0, 67, 0
1, 11127, Note_on_c, 0, 69, 75
1, 11133, Note_on_c, 1, 50, 0
1, 11136, Note_on_c, 0, 69, 0
1, 11136, Note_on_c, 0, 67, 75
1, 11136, Note_on_c, 1, 55, 69
1, 11181, Note_on_c, 0, 67, 0
1, 11181, Note_on_c, 1, 55, 0
1, 11184, Note_on_c, 0, 79, 75
1, 11184, Note_on_c, 1, 64, 69
1, 11207, Note_on_c, 1, 64, 0
1, 11208, Note_on_c, 1, 67, 69
1, 11229, Note_on_c, 0, 79, 0
1, 11231, Note_on_c, 1, 67, 0
1, 11232, Note_on_c, 0, 78, 75
1, 11232, Note_on_c, 1, 62, 69
1, 11255, Note_on_c, 1, 62, 0
1, 11256, Note_on_c, 1, 67, 69
1, 11277, Note_on_c, 0, 78, 0
1, 11279, Note_on_c, 1, 67, 0
1, 11280, Note_on_c, 0, 76, 75
1, 11280, Note_on_c, 1, 60, 69
1, 11303, Note_on_c, 1, 60, 0
1, 11304, Note_on_c, 1, 67, 69
1, 11325, Note_on_c, 0, 76, 0
1, 11327, Note_on_c, 1, 67, 0
1, 11328, Note_on_c, 0, 74, 75
1, 11328, Note_on_c, 1, 59, 69
1, 11373, Note_on_c, 0, 74, 0
1, 11373, Note_on_c, 1, 59, 0
1, 11376, Note_on_c, 0, 76, 75
1, 11376, Note_on_c, 1, 60, 69
1, 11391, Note_on_c, 0, 76, 0
1, 11392, Note_on_c, 0, 74, 75
1, 11407, Note_on_c, 0, 74, 0
1, 11408, Note_on_c, 0, 72, 75
1, 11421, Note_on_c, 1, 60, 0
1, 11423, Note_on_c, 0, 72, 0
1, 11424, Note_on_c, 0, 71, 75
1, 11424, Note_on_c, 1, 62, 69
1, 11469, Note_on_c, 0, 71, 0
1, 11469, Note_on_c, 1, 62, 0
1, 11472, Note_on_c, 0, 69, 75
1, 11472, Note_on_c, 1, 50, 69
1, 11482, Note_on_c, 0, 69, 0
1, 11482, Note_on_c, 0, 71, 75
1, 11492, Note_on_c, 0, 71, 0
1, 11492, Note_on_c, 0, 69, 75
1, 11502, Note_on_c, 0, 69, 0
1, 11502, Note_on_c, 0, 67, 75
1, 11511, Note_on_c, 0, 67, 0
1, 11511, Note_on_c, 0, 69, 75
1, 11517, Note_on_c, 1, 50, 0
1, 11520, Note_on_c, 0, 69, 0
1, 11520, Note_on_c, 0, 67, 75
1, 11520, Note_on_c, 1, 55, 69
1, 11565, Note_on_c, 1, 55, 0
1, 11568, Note_on_c, 1, 50, 69
1, 11609, Note_on_c, 0, 67, 0
1, 11613, Note_on_c, 1, 50, 0
1, 11616, Note_on_c, 1, 43, 69
1, 11661, Note_on_c, 1, 43, 0
1, 11664, Note_on_c, 0, 74, 75
1, 11698, Note_on_c, 0, 74, 0
1, 11700, Note_on_c, 0, 78, 75
1, 11712, Note_on_c, 0, 78, 0
1, 11712, Note_on_c, 0, 62, 64
1, 11736, Note_on_c, 0, 74, 75
1, 11759, Note_on_c, 0, 74, 0
1, 11760, Note_on_c, 1, 66, 64
1, 11784, Note_on_c, 0, 84, 75
1, 11805, Note_on_c, 1, 66, 0
1, 11807, Note_on_c, 0, 84, 0
1, 11808, Note_on_c, 1, 69, 64
1, 11832, Note_on_c, 0, 78, 75
1, 11853, Note_on_c, 1, 69, 0
1, 11855, Note_on_c, 0, 78, 0
1, 11856, Note_on_c, 1, 72, 64
1, 11880, Note_on_c, 0, 81, 75
1, 11901, Note_on_c, 1, 72, 0
1, 11903, Note_on_c, 0, 81, 0
1, 11904, Note_on_c, 1, 71, 64
1, 11928, Note_on_c, 0, 79, 75
1, 11949, Note_on_c, 1, 71, 0
1, 11951, Note_on_c, 0, 79, 0
1, 11952, Note_on_c, 0, 83, 75
1, 11952, Note_on_c, 1, 67, 64
1, 11975, Note_on_c, 0, 83, 0
1, 11976, Note_on_c, 0, 74, 75
1, 11997, Note_on_c, 1, 67, 0
1, 11999, Note_on_c, 0, 74, 0
1, 12000, Note_on_c, 0, 72, 75
1, 12000, Note_on_c, 1, 69, 64
1, 12015, Note_on_c, 0, 72, 0
1, 12016, Note_on_c, 0, 74, 75
1, 12031, Note_on_c, 0, 74, 0
1, 12032, Note_on_c, 0, 76, 75
1, 12045, Note_on_c, 1, 69, 0
1, 12047, Note_on_c, 0, 76, 0
1, 12048, Note_on_c, 0, 69, 75
1, 12048, Note_on_c, 1, 66, 64
1, 12063, Note_on_c, 0, 69, 0
1, 12064, Note_on_c, 0, 71, 75
1, 12079, Note_on_c, 0, 71, 0
1, 12080, Note_on_c, 0, 72, 75
1, 12093, Note_on_c, 1, 66, 0
1, 12095, Note_on_c, 0, 72, 0
1, 12096, Note_on_c, 0, 71, 75
1, 12096, Note_on_c, 1, 67, 64
1, 12111, Note_on_c, 0, 71, 0
1, 12112, Note_on_c, 0, 72, 75
1, 12127, Note_on_c, 0, 72, 0
1, 12128, Note_on_c, 0, 74, 75
1, 12141, Note_on_c, 1, 67, 0
1, 12143, Note_on_c, 0, 74, 0
1, 12144, Note_on_c, 0, 72, 75
1, 12144, Note_on_c, 1, 69, 64
1, 12159, Note_on_c, 0, 72, 0
1, 12160, Note_on_c, 0, 74, 75
1, 12175, Note_on_c, 0, 74, 0
1, 12176, Note_on_c, 0, 76, 75
1, 12189, Note_on_c, 1, 69, 0
1, 12191, Note_on_c, 0, 76, 0
1, 12192, Note_on_c, 0, 74, 75
1, 12192, Note_on_c, 1, 71, 64
1, 12229, Note_on_c, 0, 62, 0
1, 12237, Note_on_c, 0, 74, 0
1, 12237, Note_on_c, 1, 71, 0
1, 12240, Note_on_c, 0, 74, 75
1, 12274, Note_on_c, 0, 74, 0
1, 12276, Note_on_c, 0, 78, 75
1, 12288, Note_on_c, 0, 78, 0
1, 12288, Note_on_c, 0, 74, 75
1, 12333, Note_on_c, 0, 74, 0
1, 12336, Note_on_c, 0, 66, 75
1, 12336, Note_on_c, 1, 50, 64
1, 12359, Note_on_c, 1, 50, 0
1, 12360, Note_on_c, 1, 62, 64
1, 12381, Note_on_c, 0, 66, 0
1, 12383, Note_on_c, 1, 62, 0
1, 12384, Note_on_c, 0, 67, 75
1, 12384, Note_on_c, 1, 52, 64
1, 12407, Note_on_c, 1, 52, 0
1, 12408, Note_on_c, 1, 62, 64
1, 12429, Note_on_c, 0, 67, 0
1, 12431, Note_on_c, 1, 62, 0
1, 12432, Note_on_c, 0, 69, 75
1, 12432, Note_on_c, 1, 54, 64
1, 12455, Note_on_c, 1, 54, 0
1, 12456, Note_on_c, 1, 62, 64
1, 12477, Note_on_c, 0, 69, 0
1, 12479, Note_on_c, 1, 62, 0
1, 12480, Note_on_c, 0, 71, 75
1, 12480, Note_on_c, 1, 55, 64
1, 12503, Note_on_c, 1, 55, 0
1, 12504, Note_on_c, 1, 62, 64
1, 12525, Note_on_c, 0, 71, 0
1, 12527, Note_on_c, 1, 62, 0
1, 12528, Note_on_c, 0, 72, 75
1, 12528, Note_on_c, 1, 57, 64
1, 12538, Note_on_c, 0, 72, 0
1, 12538, Note_on_c, 0, 74, 75
1, 12548, Note_on_c, 0, 74, 0
1, 12548, Note_on_c, 0, 72, 75
1, 12551, Note_on_c, 1, 57, 0
1, 12552, Note_on_c, 1, 62, 64
1, 12558, Note_on_c, 0, 72, 0
1, 12558, Note_on_c, 0, 71, 75
1, 12567, Note_on_c, 0, 71, 0
1, 12567, Note_on_c, 0, 72, 75
1, 12575, Note_on_c, 1, 62, 0
1, 12576, Note_on_c, 0, 72, 0
1, 12576, Note_on_c, 0, 74, 75
1, 12576, Note_on_c, 1, 59, 64
1, 12621, Note_on_c, 0, 74, 0
1, 12621, Note_on_c, 1, 59, 0
1, 12624, Note_on_c, 0, 79, 75
1, 12658, Note_on_c, 0, 79, 0
1, 12660, Note_on_c, 0, 83, 75
1, 12672, Note_on_c, 0, 83, 0
1, 12672, Note_on_c, 0, 79, 75
1, 12717, Note_on_c, 0, 79, 0
1, 12720, Note_on_c, 0, 71, 75
1, 12720, Note_on_c, 1, 43, 64
1, 12743, Note_on_c, 1, 43, 0
1, 12744, Note_on_c, 1, 55, 64
1, 12765, Note_on_c, 0, 71, 0
1, 12767, Note_on_c, 1, 55, 0
1, 12768, Note_on_c, 0, 72, 75
1, 12768, Note_on_c, 1, 45, 64
1, 12791, Note_on_c, 1, 45, 0
1, 12792, Note_on_c, 1, 55, 64
1, 12813, Note_on_c, 0, 72, 0
1, 12815, Note_on_c, 1, 55, 0
1, 12816, Note_on_c, 0, 74, 75
1, 12816, Note_on_c, 1, 47, 64
1, 12839, Note_on_c, 1, 47, 0
1, 12840, Note_on_c, 1, 55, 64
1, 12861, Note_on_c, 0, 74, 0
1, 12863, Note_on_c, 1, 55, 0
1, 12864, Note_on_c, 0, 76, 75
1, 12864, Note_on_c, 1, 48, 64
1, 12887, Note_on_c, 1, 48, 0
1, 12888, Note_on_c, 1, 55, 64
1, 12909, Note_on_c, 0, 76, 0
1, 12911, Note_on_c, 1, 55, 0
1, 12912, Note_on_c, 0, 77, 75
1, 12912, Note_on_c, 1, 50, 64
1, 12922, Note_on_c, 0, 77, 0
1, 12922, Note_on_c, 0, 79, 75
1, 12932, Note_on_c, 0, 79, 0
1, 12932, Note_on_c, 0, 77, 75
1, 12935, Note_on_c, 1, 50, 0
1, 12936, Note_on_c, 1, 55, 64
1, 12942, Note_on_c, 0, 77, 0
1, 12942, Note_on_c, 0, 76, 75
1, 12951, Note_on_c, 0, 76, 0
1, 12951, Note_on_c, 0, 77, 75
1, 12959, Note_on_c, 1, 55, 0
1, 12960, Note_on_c, 0, 77, 0
1, 12960, Note_on_c, 0, 79, 75
1, 12960, Note_on_c, 1, 52, 64
1, 13005, Note_on_c, 0, 79, 0
1, 13005, Note_on_c, 1, 52, 0
1, 13008, Note_on_c, 0, 76, 75
1, 13008, Note_on_c, 1, 60, 64
1, 13042, Note_on_c, 0, 76, 0
1, 13044, Note_on_c, 0, 79, 75
1, 13053, Note_on_c, 1, 60, 0
1, 13056, Note_on_c, 0, 79, 0
1, 13056, Note_on_c, 0, 74, 75
1, 13056, Note_on_c, 1, 59, 64
1, 13101, Note_on_c, 0, 74, 0
1, 13101, Note_on_c, 1, 59, 0
1, 13104, Note_on_c, 0, 72, 75
1, 13104, Note_on_c, 1, 57, 64
1, 13119, Note_on_c, 0, 72, 0
1, 13120, Note_on_c, 0, 74, 75
1, 13135, Note_on_c, 0, 74, 0
1, 13136, Note_on_c, 0, 72, 75
1, 13149, Note_on_c, 1, 57, 0
1, 13151, Note_on_c, 0, 72, 0
1, 13152, Note_on_c, 0, 71, 75
1, 13152, Note_on_c, 1, 55, 64
1, 13197, Note_on_c, 0, 71, 0
1, 13197, Note_on_c, 1, 55, 0
1, 13200, Note_on_c, 0, 74, 75
1, 13200, Note_on_c, 1, 59, 64
1, 13215, Note_on_c, 0, 74, 0
1, 13216, Note_on_c, 0, 72, 75
1, 13231, Note_on_c, 0, 72, 0
1, 13232, Note_on_c, 0, 71, 75
1, 13245, Note_on_c, 1, 59, 0
1, 13247, Note_on_c, 0, 71, 0
1, 13248, Note_on_c, 0, 69, 75
1, 13248, Note_on_c, 1, 60, 64
1, 13293, Note_on_c, 0, 69, 0
1, 13296, Note_on_c, 0, 72, 75
1, 13311, Note_on_c, 0, 72, 0
1, 13312, Note_on_c, 0, 71, 75
1, 13327, Note_on_c, 0, 71, 0
1, 13328, Note_on_c, 0, 69, 75
1, 13343, Note_on_c, 0, 69, 0
1, 13344, Note_on_c, 0, 76, 75
1, 13381, Note_on_c, 1, 60, 0
1, 13389, Note_on_c, 0, 76, 0
1, 13392, Note_on_c, 0, 67, 75
1, 13392, Note_on_c, 1, 61, 64
1, 13437, Note_on_c, 0, 67, 0
1, 13437, Note_on_c, 1, 61, 0
1, 13440, Note_on_c, 0, 67, 75
1, 13440, Note_on_c, 1, 62, 64
1, 13450, Note_on_c, 0, 67, 0
1, 13450, Note_on_c, 0, 69, 75
1, 13460, Note_on_c, 0, 69, 0
1, 13460, Note_on_c, 0, 67, 75
1, 13470, Note_on_c, 0, 67, 0
1, 13470, Note_on_c, 0, 66, 75
1, 13479, Note_on_c, 0, 66, 0
1, 13479, Note_on_c, 0, 67, 75
1, 13485, Note_on_c, 1, 62, 0
1, 13488, Note_on_c, 0, 67, 0
1, 13488, Note_on_c, 0, 66, 75
1, 13488, Note_on_c, 1, 57, 64
1, 13533, Note_on_c, 0, 66, 0
1, 13533, Note_on_c, 1, 57, 0
1, 13536, Note_on_c, 1, 50, 64
1, 13581, Note_on_c, 1, 50, 0
1, 13584, Note_on_c, 0, 74, 75
1, 13618, Note_on_c, 0, 74, 0
1, 13620, Note_on_c, 0, 79, 75
1, 13632, Note_on_c, 0, 79, 0
1, 13632, Note_on_c, 0, 74, 75
1, 13632, Note_on_c, 1, 59, 64
1, 13632, Note_on_c, 1, 55, 64
1, 13677, Note_on_c, 0, 74, 0
1, 13680, Note_on_c, 0, 71, 75
1, 13714, Note_on_c, 0, 71, 0
1, 13716, Note_on_c, 0, 74, 75
1, 13721, Note_on_c, 1, 59, 0
1, 13721, Note_on_c, 1, 55, 0
1, 13728, Note_on_c, 0, 74, 0
1, 13728, Note_on_c, 0, 71, 75
1, 13773, Note_on_c, 0, 71, 0
1, 13776, Note_on_c, 0, 67, 75
1, 13810, Note_on_c, 0, 67, 0
1, 13812, Note_on_c, 0, 71, 75
1, 13824, Note_on_c, 0, 71, 0
1, 13824, Note_on_c, 0, 67, 75
1, 13872, Note_on_c, 1, 55, 75
1, 13872, Note_on_c, 1, 43, 75
1, 13892, Note_on_c, 1, 55, 0
1, 13892, Note_on_c, 1, 43, 0
1, 13913, Note_on_c, 0, 67, 0
1, 13920, Note_on_c, 1, 55, 75
1, 13920, Note_on_c, 1, 43, 75
1, 13968, Note_on_c, 0, 74, 75
1, 14009, Note_on_c, 1, 55, 0
1, 14009, Note_on_c, 1, 43, 0
1, 14013, Note_on_c, 0, 74, 0
1, 14016, Note_on_c, 0, 72, 75
1, 14031, Note_on_c, 0, 72, 0
1, 14032, Note_on_c, 0, 74, 75
1, 14047, Note_on_c, 0, 74, 0
1, 14048, Note_on_c, 0, 76, 75
1, 14063, Note_on_c, 0, 76, 0
1, 14064, Note_on_c, 0, 74, 75
1, 14064, Note_on_c, 1, 59, 69
1, 14064, Note_on_c, 1, 55, 69
1, 14084, Note_on_c, 1, 59, 0
1, 14084, Note_on_c, 1, 55, 0
1, 14109, Note_on_c, 0, 74, 0
1, 14112, Note_on_c, 1, 59, 69
1, 14112, Note_on_c, 1, 55, 69
1, 14160, Note_on_c, 0, 71, 75
1, 14201, Note_on_c, 1, 59, 0
1, 14201, Note_on_c, 1, 55, 0
1, 14205, Note_on_c, 0, 71, 0
1, 14208, Note_on_c, 0, 69, 75
1, 14223, Note_on_c, 0, 69, 0
1, 14224, Note_on_c, 0, 71, 75
1, 14239, Note_on_c, 0, 71, 0
1, 14240, Note_on_c, 0, 72, 75
1, 14255, Note_on_c, 0, 72, 0
1, 14256, Note_on_c, 0, 71, 75
1, 14256, Note_on_c, 1, 59, 69
1, 14256, Note_on_c, 1, 55, 69
1, 14276, Note_on_c, 1, 59, 0
1, 14276, Note_on_c, 1, 55, 0
1, 14301, Note_on_c, 0, 71, 0
1, 14304, Note_on_c, 1, 59, 69
1, 14304, Note_on_c, 1, 55, 69
1, 14352, Note_on_c, 0, 74, 75
1, 14393, Note_on_c, 1, 59, 0
1, 14393, Note_on_c, 1, 55, 0
1, 14397, Note_on_c, 0, 74, 0
1, 14400, Note_on_c, 0, 76, 75
1, 14400, Note_on_c, 1, 60, 69
1, 14400, Note_on_c, 1, 48, 69
1, 14406, Note_on_c, 0, 76, 0
1, 14406, Note_on_c, 0, 78, 75
1, 14412, Note_on_c, 0, 78, 0
1, 14412, Note_on_c, 0, 76, 75
1, 14423, Note_on_c, 0, 76, 0
1, 14424, Note_on_c, 0, 74, 75
1, 14447, Note_on_c, 0, 74, 0
1, 14448, Note_on_c, 0, 76, 75
1, 14471, Note_on_c, 0, 76, 0
1, 14472, Note_on_c, 0, 78, 75
1, 14489, Note_on_c, 1, 60, 0
1, 14489, Note_on_c, 1, 48, 0
1, 14495, Note_on_c, 0, 78, 0
1, 14496, Note_on_c, 0, 79, 75
1, 14496, Note_on_c, 1, 59, 69
1, 14496, Note_on_c, 1, 47, 69
1, 14519, Note_on_c, 0, 79, 0
1, 14520, Note_on_c, 0, 78, 75
1, 14543, Note_on_c, 0, 78, 0
1, 14544, Note_on_c, 0, 76, 75
1, 14567, Note_on_c, 0, 76, 0
1, 14568, Note_on_c, 0, 74, 75
1, 14585, Note_on_c, 1, 59, 0
1, 14585, Note_on_c, 1, 47, 0
1, 14591, Note_on_c, 0, 74, 0
1, 14592, Note_on_c, 0, 72, 75
1, 14592, Note_on_c, 1, 57, 69
1, 14603, Note_on_c, 0, 72, 0
1, 14603, Note_on_c, 0, 74, 75
1, 14614, Note_on_c, 0, 74, 0
1, 14614, Note_on_c, 0, 72, 75
1, 14625, Note_on_c, 0, 72, 0
1, 14625, Note_on_c, 0, 74, 75
1, 14636, Note_on_c, 0, 74, 0
1, 14636, Note_on_c, 0, 72, 75
1, 14637, Note_on_c, 1, 57, 0
1, 14640, Note_on_c, 1, 50, 69
1, 14647, Note_on_c, 0, 72, 0
1, 14647, Note_on_c, 0, 74, 75
1, 14658, Note_on_c, 0, 74, 0
1, 14658, Note_on_c, 0, 72, 75
1, 14668, Note_on_c, 0, 72, 0
1, 14668, Note_on_c, 0, 71, 75
1, 14678, Note_on_c, 0, 71, 0
1, 14678, Note_on_c, 0, 72, 75
1, 14685, Note_on_c, 1, 50, 0
1, 14688, Note_on_c, 0, 72, 0
1, 14688, Note_on_c, 0, 71, 75
1, 14688, Note_on_c, 1, 55, 69
1, 14733, Note_on_c, 0, 71, 0
1, 14736, Note_on_c, 0, 71, 75
1, 14777, Note_on_c, 1, 55, 0
1, 14781, Note_on_c, 0, 71, 0
1, 14784, Note_on_c, 0, 69, 75
1, 14784, Note_on_c, 1, 60, 69
1, 14807, Note_on_c, 0, 69, 0
1, 14808, Note_on_c, 0, 72, 75
1, 14831, Note_on_c, 0, 72, 0
1, 14832, Note_on_c, 0, 71, 75
1, 14855, Note_on_c, 0, 71, 0
1, 14856, Note_on_c, 0, 69, 75
1, 14879, Note_on_c, 0, 69, 0
1, 14880, Note_on_c, 0, 76, 75
1, 14917, Note_on_c, 1, 60, 0
1, 14925, Note_on_c, 0, 76, 0
1, 14928, Note_on_c, 0, 67, 75
1, 14928, Note_on_c, 1, 61, 69
1, 14973, Note_on_c, 0, 67, 0
1, 14973, Note_on_c, 1, 61, 0
1, 14976, Note_on_c, 0, 67, 75
1, 14976, Note_on_c, 1, 62, 69
1, 15021, Note_on_c, 0, 67, 0
1, 15021, Note_on_c, 1, 62, 0
1, 15024, Note_on_c, 0, 66, 75
1, 15024, Note_on_c, 1, 50, 69
1, 15069, Note_on_c, 0, 66, 0
1, 15069, Note_on_c, 1, 50, 0
1, 15072, Note_on_c, 1, 55, 69
1, 15096, Note_on_c, 0, 86, 75
1, 15117, Note_on_c, 1, 55, 0
1, 15119, Note_on_c, 0, 86, 0
1, 15120, Note_on_c, 1, 59, 69
1, 15144, Note_on_c, 0, 86, 75
1, 15165, Note_on_c, 1, 59, 0
1, 15167, Note_on_c, 0, 86, 0
1, 15168, Note_on_c, 1, 62, 69
1, 15192, Note_on_c, 0, 86, 75
1, 15213, Note_on_c, 1, 62, 0
1, 15215, Note_on_c, 0, 86, 0
1, 15216, Note_on_c, 1, 67, 69
1, 15240, Note_on_c, 0, 86, 75
1, 15261, Note_on_c, 1, 67, 0
1, 15263, Note_on_c, 0, 86, 0
1, 15264, Note_on_c, 1, 71, 69
1, 15288, Note_on_c, 0, 86, 75
1, 15309, Note_on_c, 1, 71, 0
1, 15311, Note_on_c, 0, 86, 0
1, 15312, Note_on_c, 1, 67, 69
1, 15336, Note_on_c, 0, 86, 75
1, 15357, Note_on_c, 1, 67, 0
1, 15359, Note_on_c, 0, 86, 0
1, 15360, Note_on_c, 0, 84, 75
1, 15360, Note_on_c, 1, 69, 69
1, 15375, Note_on_c, 0, 84, 0
1, 15376, Note_on_c, 0, 86, 75
1, 15391, Note_on_c, 0, 86, 0
1, 15392, Note_on_c, 0, 84, 75
1, 15405, Note_on_c, 1, 69, 0
1, 15407, Note_on_c, 0, 84, 0
1, 15408, Note_on_c, 0, 83, 75
1, 15408, Note_on_c, 1, 67, 69
1, 15453, Note_on_c, 0, 83, 0
1, 15453, Note_on_c, 1, 67, 0
1, 15456, Note_on_c, 0, 81, 75
1, 15456, Note_on_c, 1, 72, 69
1, 15471, Note_on_c, 0, 81, 0
1, 15472, Note_on_c, 0, 83, 75
1, 15487, Note_on_c, 0, 83, 0
1, 15488, Note_on_c, 0, 81, 75
1, 15501, Note_on_c, 1, 72, 0
1, 15503, Note_on_c, 0, 81, 0
1, 15504, Note_on_c, 0, 79, 75
1, 15504, Note_on_c, 1, 71, 69
1, 15549, Note_on_c, 0, 79, 0
1, 15549, Note_on_c, 1, 71, 0
1, 15552, Note_on_c, 0, 78, 75
1, 15552, Note_on_c, 1, 69, 69
1, 15567, Note_on_c, 0, 78, 0
1, 15568, Note_on_c, 0, 76, 75
1, 15583, Note_on_c, 0, 76, 0
1, 15584, Note_on_c, 0, 74, 75
1, 15597, Note_on_c, 1, 69, 0
1, 15599, Note_on_c, 0, 74, 0
1, 15600, Note_on_c, 0, 79, 75
1, 15600, Note_on_c, 1, 71, 69
1, 15645, Note_on_c, 0, 79, 0
1, 15645, Note_on_c, 1, 71, 0
1, 15648, Note_on_c, 1, 50, 69
1, 15672, Note_on_c, 0, 84, 75
1, 15693, Note_on_c, 1, 50, 0
1, 15695, Note_on_c, 0, 84, 0
1, 15696, Note_on_c, 1, 54, 69
1, 15720, Note_on_c, 0, 84, 75
1, 15741, Note_on_c, 1, 54, 0
1, 15743, Note_on_c, 0, 84, 0
1, 15744, Note_on_c, 1, 57, 69
1, 15768, Note_on_c, 0, 84, 75
1, 15789, Note_on_c, 1, 57, 0
1, 15791, Note_on_c, 0, 84, 0
1, 15792, Note_on_c, 1, 62, 69
1, 15816, Note_on_c, 0, 84, 75
1, 15837, Note_on_c, 1, 62, 0
1, 15839, Note_on_c, 0, 84, 0
1, 15840, Note_on_c, 1, 66, 69
1, 15864, Note_on_c, 0, 84, 75
1, 15885, Note_on_c, 1, 66, 0
1, 15887, Note_on_c, 0, 84, 0
1, 15888, Note_on_c, 1, 69, 69
1, 15912, Note_on_c, 0, 84, 75
1, 15933, Note_on_c, 1, 69, 0
1, 15935, Note_on_c, 0, 84, 0
1, 15936, Note_on_c, 0, 83, 75
1, 15936, Note_on_c, 1, 67, 69
1, 15951, Note_on_c, 0, 83, 0
1, 15952, Note_on_c, 0, 81, 75
1, 15967, Note_on_c, 0, 81, 0
1, 15968, Note_on_c, 0, 79, 75
1, 15983, Note_on_c, 0, 79, 0
1, 15984, Note_on_c, 0, 78, 75
1, 15999, Note_on_c, 0, 78, 0
1, 16000, Note_on_c, 0, 76, 75
1, 16015, Note_on_c, 0, 76, 0
1, 16016, Note_on_c, 0, 74, 75
1, 16025, Note_on_c, 1, 67, 0
1, 16031, Note_on_c, 0, 74, 0
1, 16032, Note_on_c, 0, 83, 75
1, 16032, Note_on_c, 1, 67, 69
1, 16032, Note_on_c, 1, 62, 69
1, 16044, Note_on_c, 0, 83, 0
1, 16044, Note_on_c, 0, 81, 75
1, 16056, Note_on_c, 0, 81, 0
1, 16056, Note_on_c, 0, 83, 75
1, 16068, Note_on_c, 0, 83, 0
1, 16068, Note_on_c, 0, 81, 75
1, 16080, Note_on_c, 0, 81, 0
1, 16080, Note_on_c, 0, 83, 75
1, 16080, Note_on_c, 1, 67, 0
1, 16080, Note_on_c, 1, 66, 69
1, 16092, Note_on_c, 0, 83, 0
1, 16092, Note_on_c, 0, 81, 75
1, 16104, Note_on_c, 0, 81, 0
1, 16104, Note_on_c, 0, 79, 75
1, 16116, Note_on_c, 0, 79, 0
1, 16116, Note_on_c, 0, 81, 75
1, 16125, Note_on_c, 1, 66, 0
1, 16125, Note_on_c, 1, 62, 0
1, 16128, Note_on_c, 0, 81, 0
1, 16128, Note_on_c, 0, 79, 75
1, 16128, Note_on_c, 1, 67, 69
1, 16173, Note_on_c, 0, 79, 0
1, 16173, Note_on_c, 1, 67, 0
1, 16176, Note_on_c, 0, 79, 75
1, 16176, Note_on_c, 1, 64, 69
1, 16199, Note_on_c, 1, 64, 0
1, 16200, Note_on_c, 1, 67, 69
1, 16221, Note_on_c, 0, 79, 0
1, 16223, Note_on_c, 1, 67, 0
1, 16224, Note_on_c, 0, 78, 75
1, 16224, Note_on_c, 1, 62, 69
1, 16247, Note_on_c, 1, 62, 0
1, 16248, Note_on_c, 1, 67, 69
1, 16269, Note_on_c, 0, 78, 0
1, 16271, Note_on_c, 1, 67, 0
1, 16272, Note_on_c, 0, 76, 75
1, 16272, Note_on_c, 1, 60, 69
1, 16295, Note_on_c, 1, 60, 0
1, 16296, Note_on_c, 1, 67, 69
1, 16317, Note_on_c, 0, 76, 0
1, 16319, Note_on_c, 1, 67, 0
1, 16320, Note_on_c, 0, 74, 75
1, 16320, Note_on_c, 1, 59, 69
1, 16365, Note_on_c, 0, 74, 0
1, 16365, Note_on_c, 1, 59, 0
1, 16368, Note_on_c, 0, 76, 75
1, 16368, Note_on_c, 1, 60, 69
1, 16383, Note_on_c, 0, 76, 0
1, 16384, Note_on_c, 0, 74, 75
1, 16399, Note_on_c, 0, 74, 0
1, 16400, Note_on_c, 0, 72, 75
1, 16413, Note_on_c, 1, 60, 0
1, 16415, Note_on_c, 0, 72, 0
1, 16416, Note_on_c, 0, 71, 75
1, 16416, Note_on_c, 1, 62, 69
1, 16461, Note_on_c, 0, 71, 0
1, 16461, Note_on_c, 1, 62, 0
1, 16464, Note_on_c, 0, 69, 75
1, 16464, Note_on_c, 1, 50, 69
1, 16474, Note_on_c, 0, 69, 0
1, 16474, Note_on_c, 0, 71, 75
1, 16484, Note_on_c, 0, 71, 0
1, 16484, Note_on_c, 0, 69, 75
1, 16494, Note_on_c, 0, 69, 0
1, 16494, Note_on_c, 0, 67, 75
1, 16503, Note_on_c, 0, 67, 0
1, 16503, Note_on_c, 0, 69, 75
1, 16509, Note_on_c, 1, 50, 0
1, 16512, Note_on_c, 0, 69, 0
1, 16512, Note_on_c, 0, 67, 75
1, 16512, Note_on_c, 1, 55, 69
1, 16557, Note_on_c, 0, 67, 0
1, 16557, Note_on_c, 1, 55, 0
1, 16560, Note_on_c, 0, 79, 75
1, 16560, Note_on_c, 1, 64, 69
1, 16583, Note_on_c, 1, 64, 0
1, 16584, Note_on_c, 1, 67, 69
1, 16605, Note_on_c, 0, 79, 0
1, 16607, Note_on_c, 1, 67, 0
1, 16608, Note_on_c, 0, 78, 75
1, 16608, Note_on_c, 1, 62, 69
1, 16631, Note_on_c, 1, 62, 0
1, 16632, Note_on_c, 1, 67, 69
1, 16653, Note_on_c, 0, 78, 0
1, 16655, Note_on_c, 1, 67, 0
1, 16656, Note_on_c, 0, 76, 75
1, 16656, Note_on_c, 1, 60, 69
1, 16679, Note_on_c, 1, 60, 0
1, 16680, Note_on_c, 1, 67, 69
1, 16701, Note_on_c, 0, 76, 0
1, 16703, Note_on_c, 1, 67, 0
1, 16704, Note_on_c, 0, 74, 75
1, 16704, Note_on_c, 1, 59, 69
1, 16749, Note_on_c, 0, 74, 0
1, 16749, Note_on_c, 1, 59, 0
1, 16752, Note_on_c, 0, 76, 75
1, 16752, Note_on_c, 1, 60, 69
1, 16767, Note_on_c, 0, 76, 0
1, 16768, Note_on_c, 0, 74, 75
1, 16783, Note_on_c, 0, 74, 0
1, 16784, Note_on_c, 0, 72, 75
1, 16797, Note_on_c, 1, 60, 0
1, 16799, Note_on_c, 0, 72, 0
1, 16800, Note_on_c, 0, 71, 75
1, 16800, Note_on_c, 1, 62, 69
1, 16845, Note_on_c, 0, 71, 0
1, 16845, Note_on_c, 1, 62, 0
1, 16848, Note_on_c, 0, 69, 75
1, 16848, Note_on_c, 1, 50, 69
1, 16858, Note_on_c, 0, 69, 0
1, 16858, Note_on_c, 0, 71, 75
1, 16868, Note_on_c, 0, 71, 0
1, 16868, Note_on_c, 0, 69, 75
1, 16878, Note_on_c, 0, 69, 0
1, 16878, Note_on_c, 0, 67, 75
1, 16887, Note_on_c, 0, 67, 0
1, 16887, Note_on_c, 0, 69, 75
1, 16893, Note_on_c, 1, 50, 0
1, 16896, Note_on_c, 0, 69, 0
1, 16896, Note_on_c, 0, 67, 75
1, 16896, Note_on_c, 1, 55, 69
1, 16941, Note_on_c, 1, 55, 0
1, 16944, Note_on_c, 1, 50, 69
1, 16985, Note_on_c, 0, 67, 0
1, 16989, Note_on_c, 1, 50, 0
1, 16992, Note_on_c, 1, 43, 69
1, 17037, Note_on_c, 1, 43, 0
1, 17088, Note_on_c, 1, 43, 4
1, 17265, Note_on_c, 1, 43, 0
1, 17275, End_track
0, 0, End_of_file