0, 0, Header, 0, 1, 96
1, 0, Start_track
1, 0, Tempo, 200000
1, 168, Tempo, 923076
1, 168, Note_on_c, 0, 70, 64
1, 178, Note_on_c, 0, 70, 0
1, 192, Note_on_c, 0, 72, 64
1, 192, Note_on_c, 1, 62, 64
1, 192, Note_on_c, 1, 58, 64
1, 198, Note_on_c, 0, 72, 0
1, 198, Note_on_c, 0, 70, 64
1, 204, Note_on_c, 0, 70, 0
1, 204, Note_on_c, 0, 69, 64
1, 210, Note_on_c, 0, 69, 0
1, 210, Note_on_c, 0, 70, 64
1, 226, Note_on_c, 0, 70, 0
1, 228, Note_on_c, 0, 74, 64
1, 240, Note_on_c, 0, 74, 0
1, 240, Note_on_c, 0, 75, 64
1, 246, Note_on_c, 0, 75, 0
1, 246, Note_on_c, 0, 74, 64
1, 252, Note_on_c, 0, 74, 0
1, 252, Note_on_c, 0, 72, 64
1, 258, Note_on_c, 0, 72, 0
1, 258, Note_on_c, 0, 74, 64
1, 274, Note_on_c, 0, 74, 0
1, 276, Note_on_c, 0, 77, 64
1, 281, Note_on_c, 1, 62, 0
1, 281, Note_on_c, 1, 58, 0
1, 288, Note_on_c, 0, 77, 0
1, 288, Note_on_c, 0, 79, 64
1, 294, Note_on_c, 0, 79, 0
1, 294, Note_on_c, 0, 77, 64
1, 300, Note_on_c, 0, 77, 0
1, 300, Note_on_c, 0, 75, 64
1, 306, Note_on_c, 0, 75, 0
1, 306, Note_on_c, 0, 77, 64
1, 322, Note_on_c, 0, 77, 0
1, 324, Note_on_c, 0, 82, 64
1, 336, Note_on_c, 0, 82, 0
1, 336, Note_on_c, 0, 81, 64
1, 336, Note_on_c, 1, 74, 64
1, 336, Note_on_c, 1, 70, 64
1, 370, Note_on_c, 0, 81, 0
1, 372, Note_on_c, 0, 79, 64
1, 381, Note_on_c, 1, 74, 0
1, 381, Note_on_c, 1, 70, 0
1, 384, Note_on_c, 0, 79, 0
1, 384, Note_on_c, 0, 79, 64
1, 384, Note_on_c, 1, 72, 64
1, 384, Note_on_c, 1, 69, 64
1, 418, Note_on_c, 0, 79, 0
1, 420, Note_on_c, 0, 77, 64
1, 432, Note_on_c, 0, 77, 0
1, 432, Note_on_c, 0, 77, 64
1, 473, Note_on_c, 1, 72, 0
1, 473, Note_on_c, 1, 69, 0
1, 480, Note_on_c, 1, 69, 64
1, 480, Note_on_c, 1, 65, 64
1, 514, Note_on_c, 0, 77, 0
1, 516, Note_on_c, 0, 79, 64
1, 525, Note_on_c, 1, 69, 0
1, 525, Note_on_c, 1, 65, 0
1, 528, Note_on_c, 0, 79, 0
1, 528, Note_on_c, 0, 75, 64
1, 562, Note_on_c, 0, 75, 0
1, 564, Note_on_c, 0, 77, 64
1, 576, Note_on_c, 0, 77, 0
1, 576, Note_on_c, 0, 74, 64
1, 576, Note_on_c, 1, 70, 64
1, 576, Note_on_c, 1, 58, 64
1, 610, Note_on_c, 0, 74, 0
1, 612, Note_on_c, 0, 75, 64
1, 621, Note_on_c, 1, 70, 0
1, 621, Note_on_c, 1, 58, 0
1, 624, Note_on_c, 0, 75, 0
1, 624, Note_on_c, 0, 72, 64
1, 624, Note_on_c, 1, 67, 64
1, 624, Note_on_c, 1, 63, 64
1, 658, Note_on_c, 0, 72, 0
1, 660, Note_on_c, 0, 74, 64
1, 669, Note_on_c, 1, 67, 0
1, 669, Note_on_c, 1, 63, 0
1, 672, Note_on_c, 0, 74, 0
1, 672, Note_on_c, 0, 70, 64
1, 672, Note_on_c, 1, 65, 64
1, 672, Note_on_c, 1, 62, 64
1, 706, Note_on_c, 0, 70, 0
1, 708, Note_on_c, 0, 72, 64
1, 717, Note_on_c, 1, 65, 0
1, 717, Note_on_c, 1, 62, 0
1, 720, Note_on_c, 0, 72, 0
1, 720, Note_on_c, 0, 69, 64
1, 720, Note_on_c, 1, 63, 64
1, 720, Note_on_c, 1, 53, 64
1, 754, Note_on_c, 0, 69, 0
1, 756, Note_on_c, 0, 72, 64
1, 765, Note_on_c, 1, 63, 0
1, 765, Note_on_c, 1, 53, 0
1, 768, Note_on_c, 0, 72, 0
1, 768, Note_on_c, 0, 72, 64
1, 768, Note_on_c, 1, 62, 64
1, 768, Note_on_c, 1, 58, 64
1, 780, Note_on_c, 0, 72, 0
1, 780, Note_on_c, 0, 70, 64
1, 792, Note_on_c, 0, 70, 0
1, 792, Note_on_c, 0, 69, 64
1, 804, Note_on_c, 0, 69, 0
1, 804, Note_on_c, 0, 70, 64
1, 813, Note_on_c, 1, 62, 0
1, 813, Note_on_c, 1, 58, 0
1, 816, Note_on_c, 0, 70, 0
1, 816, Note_on_c, 0, 65, 64
1, 852, Note_on_c, 1, 58, 80
1, 861, Note_on_c, 0, 65, 0
1, 864, Note_on_c, 1, 58, 0
1, 864, Note_on_c, 1, 58, 80
1, 876, Note_on_c, 1, 58, 0
1, 876, Note_on_c, 1, 57, 80
1, 888, Note_on_c, 1, 57, 0
1, 888, Note_on_c, 1, 55, 80
1, 900, Note_on_c, 1, 55, 0
1, 900, Note_on_c, 1, 53, 80
1, 912, Note_on_c, 1, 53, 0
1, 912, Note_on_c, 1, 53, 80
1, 924, Note_on_c, 1, 53, 0
1, 924, Note_on_c, 1, 51, 80
1, 936, Note_on_c, 0, 70, 64
1, 936, Note_on_c, 1, 51, 0
1, 936, Note_on_c, 1, 50, 80
1, 946, Note_on_c, 0, 70, 0
1, 948, Note_on_c, 1, 50, 0
1, 948, Note_on_c, 1, 48, 80
1, 960, Note_on_c, 0, 72, 64
1, 960, Note_on_c, 1, 48, 0
1, 960, Note_on_c, 1, 46, 80
1, 966, Note_on_c, 0, 72, 0
1, 966, Note_on_c, 0, 70, 64
1, 972, Note_on_c, 0, 70, 0
1, 972, Note_on_c, 0, 69, 64
1, 978, Note_on_c, 0, 69, 0
1, 978, Note_on_c, 0, 70, 64
1, 994, Note_on_c, 0, 70, 0
1, 996, Note_on_c, 0, 74, 64
1, 1008, Note_on_c, 0, 74, 0
1, 1008, Note_on_c, 0, 75, 64
1, 1014, Note_on_c, 0, 75, 0
1, 1014, Note_on_c, 0, 74, 64
1, 1020, Note_on_c, 0, 74, 0
1, 1020, Note_on_c, 0, 72, 64
1, 1026, Note_on_c, 0, 72, 0
1, 1026, Note_on_c, 0, 74, 64
1, 1042, Note_on_c, 0, 74, 0
1, 1044, Note_on_c, 0, 77, 64
1, 1049, Note_on_c, 1, 46, 0
1, 1056, Note_on_c, 0, 77, 0
1, 1056, Note_on_c, 0, 79, 64
1, 1062, Note_on_c, 0, 79, 0
1, 1062, Note_on_c, 0, 77, 64
1, 1068, Note_on_c, 0, 77, 0
1, 1068, Note_on_c, 0, 75, 64
1, 1074, Note_on_c, 0, 75, 0
1, 1074, Note_on_c, 0, 77, 64
1, 1090, Note_on_c, 0, 77, 0
1, 1092, Note_on_c, 0, 82, 64
1, 1104, Note_on_c, 0, 82, 0
1, 1104, Note_on_c, 0, 81, 64
1, 1104, Note_on_c, 1, 74, 75
1, 1104, Note_on_c, 1, 70, 75
1, 1138, Note_on_c, 0, 81, 0
1, 1140, Note_on_c, 0, 79, 64
1, 1149, Note_on_c, 1, 74, 0
1, 1149, Note_on_c, 1, 70, 0
1, 1152, Note_on_c, 0, 79, 0
1, 1152, Note_on_c, 0, 79, 64
1, 1152, Note_on_c, 1, 72, 75
1, 1152, Note_on_c, 1, 69, 75
1, 1186, Note_on_c, 0, 79, 0
1, 1188, Note_on_c, 0, 77, 64
1, 1200, Note_on_c, 0, 77, 0
1, 1200, Note_on_c, 0, 77, 64
1, 1241, Note_on_c, 1, 72, 0
1, 1241, Note_on_c, 1, 69, 0
1, 1245, Note_on_c, 0, 77, 0
1, 1248, Note_on_c, 1, 69, 75
1, 1248, Note_on_c, 1, 65, 75
1, 1264, Note_on_c, 0, 84, 64
1, 1279, Note_on_c, 0, 84, 0
1, 1280, Note_on_c, 0, 82, 64
1, 1293, Note_on_c, 1, 69, 0
1, 1293, Note_on_c, 1, 65, 0
1, 1295, Note_on_c, 0, 82, 0
1, 1296, Note_on_c, 0, 81, 64
1, 1311, Note_on_c, 0, 81, 0
1, 1312, Note_on_c, 0, 79, 64
1, 1327, Note_on_c, 0, 79, 0
1, 1328, Note_on_c, 0, 77, 64
1, 1343, Note_on_c, 0, 77, 0
1, 1344, Note_on_c, 0, 75, 75
1, 1344, Note_on_c, 1, 70, 75
1, 1357, Note_on_c, 0, 75, 0
1, 1358, Note_on_c, 0, 74, 75
1, 1371, Note_on_c, 0, 74, 0
1, 1372, Note_on_c, 0, 73, 76
1, 1385, Note_on_c, 0, 73, 0
1, 1386, Note_on_c, 0, 74, 76
1, 1389, Note_on_c, 1, 70, 0
1, 1399, Note_on_c, 0, 74, 0
1, 1400, Note_on_c, 0, 75, 77
1, 1413, Note_on_c, 0, 75, 0
1, 1414, Note_on_c, 0, 76, 78
1, 1427, Note_on_c, 0, 76, 0
1, 1428, Note_on_c, 0, 77, 78
1, 1440, Note_on_c, 1, 63, 75
1, 1441, Note_on_c, 0, 77, 0
1, 1442, Note_on_c, 0, 78, 79
1, 1455, Note_on_c, 0, 78, 0
1, 1456, Note_on_c, 0, 81, 80
1, 1469, Note_on_c, 0, 81, 0
1, 1470, Note_on_c, 0, 79, 79
1, 1483, Note_on_c, 0, 79, 0
1, 1484, Note_on_c, 0, 77, 78
1, 1485, Note_on_c, 1, 63, 0
1, 1496, Note_on_c, 0, 77, 0
1, 1497, Note_on_c, 0, 75, 78
1, 1509, Note_on_c, 0, 75, 0
1, 1510, Note_on_c, 0, 74, 77
1, 1522, Note_on_c, 0, 74, 0
1, 1523, Note_on_c, 0, 72, 76
1, 1535, Note_on_c, 0, 72, 0
1, 1536, Note_on_c, 0, 70, 75
1, 1584, Note_on_c, 1, 63, 75
1, 1584, Note_on_c, 1, 53, 75
1, 1596, Note_on_c, 0, 70, 0
1, 1596, Note_on_c, 0, 69, 75
1, 1608, Note_on_c, 0, 69, 0
1, 1608, Note_on_c, 0, 72, 75
1, 1620, Note_on_c, 0, 72, 0
1, 1620, Note_on_c, 0, 69, 75
1, 1629, Note_on_c, 1, 63, 0
1, 1629, Note_on_c, 1, 53, 0
1, 1632, Note_on_c, 0, 69, 0
1, 1632, Note_on_c, 0, 70, 75
1, 1632, Note_on_c, 1, 62, 75
1, 1632, Note_on_c, 1, 58, 75
1, 1677, Note_on_c, 0, 70, 0
1, 1677, Note_on_c, 1, 62, 0
1, 1677, Note_on_c, 1, 58, 0
1, 1680, Note_on_c, 1, 46, 75
1, 1725, Note_on_c, 1, 46, 0
1, 1728, Note_on_c, 0, 75, 75
1, 1734, Note_on_c, 0, 75, 0
1, 1734, Note_on_c, 0, 74, 75
1, 1740, Note_on_c, 0, 74, 0
1, 1740, Note_on_c, 0, 72, 75
1, 1744, Note_on_c, 1, 70, 75
1, 1746, Note_on_c, 0, 72, 0
1, 1746, Note_on_c, 0, 74, 75
1, 1759, Note_on_c, 1, 70, 0
1, 1760, Note_on_c, 1, 69, 75
1, 1775, Note_on_c, 1, 69, 0
1, 1776, Note_on_c, 1, 70, 75
1, 1791, Note_on_c, 1, 70, 0
1, 1792, Note_on_c, 1, 69, 75
1, 1807, Note_on_c, 1, 69, 0
1, 1808, Note_on_c, 1, 67, 75
1, 1823, Note_on_c, 1, 67, 0
1, 1824, Note_on_c, 1, 66, 75
1, 1839, Note_on_c, 0, 74, 0
1, 1840, Note_on_c, 0, 75, 75
1, 1855, Note_on_c, 0, 75, 0
1, 1856, Note_on_c, 0, 74, 75
1, 1871, Note_on_c, 0, 74, 0
1, 1872, Note_on_c, 0, 75, 75
1, 1887, Note_on_c, 0, 75, 0
1, 1888, Note_on_c, 0, 74, 75
1, 1903, Note_on_c, 0, 74, 0
1, 1904, Note_on_c, 0, 72, 75
1, 1913, Note_on_c, 1, 66, 0
1, 1919, Note_on_c, 0, 72, 0
1, 1920, Note_on_c, 0, 70, 75
1, 1920, Note_on_c, 1, 67, 75
1, 1935, Note_on_c, 0, 70, 0
1, 1936, Note_on_c, 0, 74, 75
1, 1951, Note_on_c, 0, 74, 0
1, 1952, Note_on_c, 0, 78, 75
1, 1965, Note_on_c, 1, 67, 0
1, 1968, Note_on_c, 0, 78, 0
1, 1968, Note_on_c, 0, 79, 75
1, 1983, Note_on_c, 0, 79, 0
1, 1984, Note_on_c, 0, 74, 75
1, 1999, Note_on_c, 0, 74, 0
1, 2000, Note_on_c, 0, 81, 75
1, 2016, Note_on_c, 0, 81, 0
1, 2016, Note_on_c, 0, 82, 75
1, 2031, Note_on_c, 0, 82, 0
1, 2032, Note_on_c, 0, 79, 75
1, 2047, Note_on_c, 0, 79, 0
1, 2048, Note_on_c, 0, 85, 75
1, 2064, Note_on_c, 0, 85, 0
1, 2064, Note_on_c, 0, 86, 75
1, 2109, Note_on_c, 0, 86, 0
1, 2112, Note_on_c, 0, 74, 75
1, 2118, Note_on_c, 0, 74, 0
1, 2118, Note_on_c, 0, 72, 75
1, 2124, Note_on_c, 0, 72, 0
1, 2124, Note_on_c, 0, 71, 75
1, 2128, Note_on_c, 1, 69, 75
1, 2130, Note_on_c, 0, 71, 0
1, 2130, Note_on_c, 0, 72, 75
1, 2143, Note_on_c, 1, 69, 0
1, 2144, Note_on_c, 1, 67, 75
1, 2159, Note_on_c, 1, 67, 0
1, 2160, Note_on_c, 1, 69, 75
1, 2175, Note_on_c, 1, 69, 0
1, 2176, Note_on_c, 1, 67, 75
1, 2191, Note_on_c, 1, 67, 0
1, 2192, Note_on_c, 1, 65, 75
1, 2207, Note_on_c, 1, 65, 0
1, 2208, Note_on_c, 1, 64, 75
1, 2223, Note_on_c, 0, 72, 0
1, 2224, Note_on_c, 0, 74, 75
1, 2239, Note_on_c, 0, 74, 0
1, 2240, Note_on_c, 0, 72, 75
1, 2255, Note_on_c, 0, 72, 0
1, 2256, Note_on_c, 0, 74, 75
1, 2271, Note_on_c, 0, 74, 0
1, 2272, Note_on_c, 0, 72, 75
1, 2287, Note_on_c, 0, 72, 0
1, 2288, Note_on_c, 0, 70, 75
1, 2297, Note_on_c, 1, 64, 0
1, 2303, Note_on_c, 0, 70, 0
1, 2304, Note_on_c, 0, 69, 75
1, 2304, Note_on_c, 1, 65, 75
1, 2319, Note_on_c, 0, 69, 0
1, 2320, Note_on_c, 0, 72, 75
1, 2335, Note_on_c, 0, 72, 0
1, 2336, Note_on_c, 0, 76, 75
1, 2349, Note_on_c, 1, 65, 0
1, 2352, Note_on_c, 0, 76, 0
1, 2352, Note_on_c, 0, 77, 75
1, 2367, Note_on_c, 0, 77, 0
1, 2368, Note_on_c, 0, 72, 75
1, 2383, Note_on_c, 0, 72, 0
1, 2384, Note_on_c, 0, 80, 75
1, 2400, Note_on_c, 0, 80, 0
1, 2400, Note_on_c, 0, 81, 75
1, 2415, Note_on_c, 0, 81, 0
1, 2416, Note_on_c, 0, 77, 75
1, 2431, Note_on_c, 0, 77, 0
1, 2432, Note_on_c, 0, 83, 75
1, 2448, Note_on_c, 0, 83, 0
1, 2448, Note_on_c, 0, 84, 75
1, 2541, Note_on_c, 0, 84, 0
1, 2664, Note_on_c, 0, 84, 64
1, 2674, Note_on_c, 0, 84, 0
1, 2688, Note_on_c, 0, 84, 64
1, 2711, Note_on_c, 0, 84, 0
1, 2712, Note_on_c, 0, 82, 64
1, 2736, Note_on_c, 1, 65, 64
1, 2757, Note_on_c, 0, 82, 0
1, 2760, Note_on_c, 0, 73, 64
1, 2781, Note_on_c, 1, 65, 0
1, 2784, Note_on_c, 1, 64, 64
1, 2805, Note_on_c, 0, 73, 0
1, 2808, Note_on_c, 0, 72, 64
1, 2832, Note_on_c, 1, 70, 64
1, 2853, Note_on_c, 0, 72, 0
1, 2856, Note_on_c, 0, 84, 64
1, 2866, Note_on_c, 0, 84, 0
1, 2873, Note_on_c, 1, 64, 0
1, 2877, Note_on_c, 1, 70, 0
1, 2880, Note_on_c, 0, 84, 64
1, 2903, Note_on_c, 0, 84, 0
1, 2904, Note_on_c, 0, 82, 64
1, 2928, Note_on_c, 1, 65, 64
1, 2949, Note_on_c, 0, 82, 0
1, 2952, Note_on_c, 0, 73, 64
1, 2973, Note_on_c, 1, 65, 0
1, 2976, Note_on_c, 1, 64, 64
1, 2997, Note_on_c, 0, 73, 0
1, 3000, Note_on_c, 0, 72, 64
1, 3024, Note_on_c, 1, 70, 64
1, 3045, Note_on_c, 0, 72, 0
1, 3048, Note_on_c, 0, 84, 64
1, 3058, Note_on_c, 0, 84, 0
1, 3065, Note_on_c, 1, 64, 0
1, 3069, Note_on_c, 1, 70, 0
1, 3072, Note_on_c, 0, 84, 80
1, 3095, Note_on_c, 0, 84, 0
1, 3096, Note_on_c, 0, 82, 80
1, 3120, Note_on_c, 1, 65, 80
1, 3141, Note_on_c, 0, 82, 0
1, 3144, Note_on_c, 0, 73, 80
1, 3165, Note_on_c, 1, 65, 0
1, 3168, Note_on_c, 1, 64, 80
1, 3189, Note_on_c, 0, 73, 0
1, 3192, Note_on_c, 0, 72, 80
1, 3216, Note_on_c, 1, 70, 80
1, 3237, Note_on_c, 0, 72, 0
1, 3240, Note_on_c, 0, 84, 80
1, 3250, Note_on_c, 0, 84, 0
1, 3264, Note_on_c, 0, 83, 64
1, 3276, Note_on_c, 0, 83, 0
1, 3276, Note_on_c, 0, 84, 66
1, 3288, Note_on_c, 0, 84, 0
1, 3288, Note_on_c, 0, 86, 68
1, 3300, Note_on_c, 0, 86, 0
1, 3300, Note_on_c, 0, 84, 70
1, 3312, Note_on_c, 0, 84, 0
1, 3312, Note_on_c, 0, 84, 72
1, 3383, Note_on_c, 0, 84, 0
1, 3384, Note_on_c, 0, 84, 80
1, 3396, Note_on_c, 0, 84, 0
1, 3396, Note_on_c, 0, 86, 80
1, 3397, Note_on_c, 1, 70, 0
1, 3397, Note_on_c, 1, 64, 0
1, 3408, Note_on_c, 0, 86, 0
1, 3408, Note_on_c, 0, 89, 80
1, 3408, Note_on_c, 1, 72, 80
1, 3408, Note_on_c, 1, 70, 80
1, 3420, Note_on_c, 0, 89, 0
1, 3420, Note_on_c, 0, 88, 80
1, 3432, Note_on_c, 0, 88, 0
1, 3432, Note_on_c, 0, 86, 80
1, 3444, Note_on_c, 0, 86, 0
1, 3444, Note_on_c, 0, 84, 80
1, 3453, Note_on_c, 1, 72, 0
1, 3453, Note_on_c, 1, 70, 0
1, 3456, Note_on_c, 0, 84, 0
1, 3456, Note_on_c, 0, 89, 80
1, 3456, Note_on_c, 1, 72, 80
1, 3456, Note_on_c, 1, 69, 80
1, 3479, Note_on_c, 0, 89, 0
1, 3480, Note_on_c, 0, 84, 80
1, 3492, Note_on_c, 0, 84, 0
1, 3492, Note_on_c, 0, 86, 80
1, 3501, Note_on_c, 1, 72, 0
1, 3501, Note_on_c, 1, 69, 0
1, 3504, Note_on_c, 0, 86, 0
1, 3504, Note_on_c, 0, 89, 80
1, 3504, Note_on_c, 1, 72, 80
1, 3504, Note_on_c, 1, 70, 80
1, 3516, Note_on_c, 0, 89, 0
1, 3516, Note_on_c, 0, 88, 80
1, 3528, Note_on_c, 0, 88, 0
1, 3528, Note_on_c, 0, 86, 80
1, 3540, Note_on_c, 0, 86, 0
1, 3540, Note_on_c, 0, 84, 80
1, 3549, Note_on_c, 1, 72, 0
1, 3549, Note_on_c, 1, 70, 0
1, 3552, Note_on_c, 0, 84, 0
1, 3552, Note_on_c, 0, 89, 80
1, 3552, Note_on_c, 1, 72, 80
1, 3552, Note_on_c, 1, 69, 80
1, 3575, Note_on_c, 0, 89, 0
1, 3576, Note_on_c, 0, 81, 80
1, 3588, Note_on_c, 0, 81, 0
1, 3588, Note_on_c, 0, 82, 80
1, 3597, Note_on_c, 1, 72, 0
1, 3597, Note_on_c, 1, 69, 0
1, 3600, Note_on_c, 0, 82, 0
1, 3600, Note_on_c, 0, 86, 80
1, 3612, Note_on_c, 0, 86, 0
1, 3612, Note_on_c, 0, 84, 80
1, 3624, Note_on_c, 0, 84, 0
1, 3624, Note_on_c, 0, 82, 80
1, 3636, Note_on_c, 0, 82, 0
1, 3636, Note_on_c, 0, 81, 80
1, 3648, Note_on_c, 0, 81, 0
1, 3648, Note_on_c, 0, 79, 80
1, 3648, Note_on_c, 1, 74, 80
1, 3648, Note_on_c, 1, 70, 80
1, 3671, Note_on_c, 0, 79, 0
1, 3672, Note_on_c, 0, 79, 80
1, 3684, Note_on_c, 0, 79, 0
1, 3684, Note_on_c, 0, 81, 80
1, 3693, Note_on_c, 1, 74, 0
1, 3693, Note_on_c, 1, 70, 0
1, 3696, Note_on_c, 0, 81, 0
1, 3696, Note_on_c, 0, 84, 80
1, 3708, Note_on_c, 0, 84, 0
1, 3708, Note_on_c, 0, 82, 80
1, 3720, Note_on_c, 0, 82, 0
1, 3720, Note_on_c, 0, 81, 80
1, 3732, Note_on_c, 0, 81, 0
1, 3732, Note_on_c, 0, 79, 80
1, 3744, Note_on_c, 0, 79, 0
1, 3744, Note_on_c, 0, 77, 80
1, 3744, Note_on_c, 1, 69, 64
1, 3744, Note_on_c, 1, 60, 64
1, 3767, Note_on_c, 0, 77, 0
1, 3768, Note_on_c, 0, 76, 80
1, 3780, Note_on_c, 0, 76, 0
1, 3780, Note_on_c, 0, 77, 80
1, 3789, Note_on_c, 1, 69, 0
1, 3789, Note_on_c, 1, 60, 0
1, 3792, Note_on_c, 0, 77, 0
1, 3792, Note_on_c, 0, 81, 80
1, 3792, Note_on_c, 1, 67, 64
1, 3792, Note_on_c, 1, 60, 64
1, 3804, Note_on_c, 0, 81, 0
1, 3804, Note_on_c, 0, 79, 78
1, 3816, Note_on_c, 0, 79, 0
1, 3816, Note_on_c, 0, 77, 76
1, 3828, Note_on_c, 0, 77, 0
1, 3828, Note_on_c, 0, 76, 75
1, 3839, Note_on_c, 1, 67, 0
1, 3839, Note_on_c, 1, 60, 0
1, 3840, Note_on_c, 0, 76, 0
1, 3840, Note_on_c, 0, 77, 75
1, 3840, Note_on_c, 1, 53, 75
1, 3863, Note_on_c, 0, 77, 0
1, 3864, Note_on_c, 0, 69, 75
1, 3887, Note_on_c, 0, 69, 0
1, 3888, Note_on_c, 0, 70, 75
1, 3888, Note_on_c, 1, 60, 75
1, 3900, Note_on_c, 0, 70, 0
1, 3900, Note_on_c, 0, 69, 75
1, 3912, Note_on_c, 0, 69, 0
1, 3912, Note_on_c, 0, 67, 75
1, 3924, Note_on_c, 0, 67, 0
1, 3924, Note_on_c, 0, 65, 75
1, 3929, Note_on_c, 1, 53, 0
1, 3936, Note_on_c, 0, 65, 0
1, 3936, Note_on_c, 0, 64, 75
1, 3936, Note_on_c, 1, 55, 75
1, 3946, Note_on_c, 0, 64, 0
1, 3960, Note_on_c, 0, 64, 75
1, 3970, Note_on_c, 0, 64, 0
1, 3977, Note_on_c, 1, 60, 0
1, 3984, Note_on_c, 0, 65, 75
1, 3984, Note_on_c, 1, 60, 75
1, 3996, Note_on_c, 0, 65, 0
1, 3996, Note_on_c, 0, 64, 75
1, 4008, Note_on_c, 0, 64, 0
1, 4008, Note_on_c, 0, 62, 75
1, 4020, Note_on_c, 0, 62, 0
1, 4020, Note_on_c, 0, 60, 75
1, 4025, Note_on_c, 1, 55, 0
1, 4032, Note_on_c, 0, 60, 0
1, 4032, Note_on_c, 0, 65, 75
1, 4032, Note_on_c, 1, 57, 75
1, 4042, Note_on_c, 0, 65, 0
1, 4056, Note_on_c, 0, 65, 75
1, 4066, Note_on_c, 0, 65, 0
1, 4077, Note_on_c, 1, 60, 0
1, 4080, Note_on_c, 1, 60, 75
1, 4104, Note_on_c, 0, 69, 75
1, 4121, Note_on_c, 1, 57, 0
1, 4127, Note_on_c, 0, 69, 0
1, 4128, Note_on_c, 0, 66, 75
1, 4128, Note_on_c, 1, 52, 75
1, 4152, Note_on_c, 0, 66, 0
1, 4152, Note_on_c, 0, 67, 75
1, 4169, Note_on_c, 1, 60, 0
1, 4175, Note_on_c, 0, 67, 0
1, 4176, Note_on_c, 1, 60, 75
1, 4200, Note_on_c, 0, 70, 75
1, 4217, Note_on_c, 1, 52, 0
1, 4223, Note_on_c, 0, 70, 0
1, 4224, Note_on_c, 0, 68, 75
1, 4224, Note_on_c, 1, 53, 75
1, 4239, Note_on_c, 0, 68, 0
1, 4240, Note_on_c, 0, 69, 75
1, 4255, Note_on_c, 0, 69, 0
1, 4256, Note_on_c, 0, 70, 75
1, 4269, Note_on_c, 1, 60, 0
1, 4271, Note_on_c, 0, 70, 0
1, 4272, Note_on_c, 0, 71, 75
1, 4272, Note_on_c, 1, 60, 75
1, 4287, Note_on_c, 0, 71, 0
1, 4288, Note_on_c, 0, 72, 75
1, 4303, Note_on_c, 0, 72, 0
1, 4304, Note_on_c, 0, 74, 75
1, 4313, Note_on_c, 1, 53, 0
1, 4319, Note_on_c, 0, 74, 0
1, 4320, Note_on_c, 0, 72, 75
1, 4320, Note_on_c, 1, 55, 75
1, 4335, Note_on_c, 0, 72, 0
1, 4336, Note_on_c, 0, 70, 75
1, 4351, Note_on_c, 0, 70, 0
1, 4352, Note_on_c, 0, 69, 75
1, 4361, Note_on_c, 1, 60, 0
1, 4367, Note_on_c, 0, 69, 0
1, 4368, Note_on_c, 0, 67, 75
1, 4368, Note_on_c, 1, 60, 75
1, 4383, Note_on_c, 0, 67, 0
1, 4384, Note_on_c, 0, 65, 75
1, 4399, Note_on_c, 0, 65, 0
1, 4400, Note_on_c, 0, 64, 75
1, 4409, Note_on_c, 1, 55, 0
1, 4415, Note_on_c, 0, 64, 0
1, 4416, Note_on_c, 0, 67, 75
1, 4416, Note_on_c, 1, 57, 75
1, 4440, Note_on_c, 0, 67, 0
1, 4440, Note_on_c, 0, 65, 75
1, 4461, Note_on_c, 1, 60, 0
1, 4463, Note_on_c, 0, 65, 0
1, 4464, Note_on_c, 1, 60, 75
1, 4488, Note_on_c, 0, 69, 75
1, 4498, Note_on_c, 0, 69, 0
1, 4505, Note_on_c, 1, 57, 0
1, 4512, Note_on_c, 0, 69, 75
1, 4512, Note_on_c, 1, 52, 75
1, 4536, Note_on_c, 0, 69, 0
1, 4536, Note_on_c, 0, 67, 75
1, 4553, Note_on_c, 1, 60, 0
1, 4559, Note_on_c, 0, 67, 0
1, 4560, Note_on_c, 1, 60, 75
1, 4584, Note_on_c, 0, 70, 75
1, 4601, Note_on_c, 1, 52, 0
1, 4607, Note_on_c, 0, 70, 0
1, 4608, Note_on_c, 0, 69, 75
1, 4608, Note_on_c, 1, 53, 75
1, 4618, Note_on_c, 0, 69, 0
1, 4632, Note_on_c, 0, 69, 75
1, 4642, Note_on_c, 0, 69, 0
1, 4653, Note_on_c, 1, 60, 0
1, 4656, Note_on_c, 0, 70, 75
1, 4656, Note_on_c, 1, 60, 75
1, 4668, Note_on_c, 0, 70, 0
1, 4668, Note_on_c, 0, 69, 75
1, 4680, Note_on_c, 0, 69, 0
1, 4680, Note_on_c, 0, 67, 75
1, 4692, Note_on_c, 0, 67, 0
1, 4692, Note_on_c, 0, 65, 75
1, 4697, Note_on_c, 1, 53, 0
1, 4704, Note_on_c, 0, 65, 0
1, 4704, Note_on_c, 0, 64, 75
1, 4704, Note_on_c, 1, 55, 75
1, 4714, Note_on_c, 0, 64, 0
1, 4728, Note_on_c, 0, 64, 75
1, 4738, Note_on_c, 0, 64, 0
1, 4745, Note_on_c, 1, 60, 0
1, 4752, Note_on_c, 0, 65, 75
1, 4752, Note_on_c, 1, 60, 75
1, 4764, Note_on_c, 0, 65, 0
1, 4764, Note_on_c, 0, 64, 75
1, 4776, Note_on_c, 0, 64, 0
1, 4776, Note_on_c, 0, 62, 75
1, 4788, Note_on_c, 0, 62, 0
1, 4788, Note_on_c, 0, 60, 75
1, 4793, Note_on_c, 1, 55, 0
1, 4800, Note_on_c, 0, 60, 0
1, 4800, Note_on_c, 0, 65, 75
1, 4800, Note_on_c, 1, 57, 75
1, 4810, Note_on_c, 0, 65, 0
1, 4824, Note_on_c, 0, 65, 75
1, 4845, Note_on_c, 1, 60, 0
1, 4848, Note_on_c, 1, 60, 75
1, 4869, Note_on_c, 0, 65, 0
1, 4872, Note_on_c, 0, 66, 75
1, 4889, Note_on_c, 1, 57, 0
1, 4896, Note_on_c, 1, 52, 75
1, 4917, Note_on_c, 0, 66, 0
1, 4920, Note_on_c, 0, 67, 75
1, 4937, Note_on_c, 1, 60, 0
1, 4944, Note_on_c, 1, 60, 75
1, 4965, Note_on_c, 0, 67, 0
1, 4968, Note_on_c, 0, 68, 75
1, 4985, Note_on_c, 1, 52, 0
1, 4992, Note_on_c, 1, 53, 75
1, 5015, Note_on_c, 0, 68, 0
1, 5016, Note_on_c, 0, 69, 75
1, 5037, Note_on_c, 1, 60, 0
1, 5040, Note_on_c, 1, 65, 75
1, 5061, Note_on_c, 0, 69, 0
1, 5064, Note_on_c, 0, 70, 75
1, 5081, Note_on_c, 1, 53, 0
1, 5088, Note_on_c, 1, 55, 76
1, 5109, Note_on_c, 0, 70, 0
1, 5112, Note_on_c, 0, 71, 76
1, 5133, Note_on_c, 1, 55, 0
1, 5136, Note_on_c, 1, 56, 76
1, 5157, Note_on_c, 0, 71, 0
1, 5160, Note_on_c, 0, 72, 77
1, 5181, Note_on_c, 1, 56, 0
1, 5184, Note_on_c, 1, 57, 77
1, 5207, Note_on_c, 0, 72, 0
1, 5208, Note_on_c, 0, 73, 77
1, 5229, Note_on_c, 1, 57, 0
1, 5232, Note_on_c, 1, 58, 77
1, 5253, Note_on_c, 0, 73, 0
1, 5256, Note_on_c, 0, 74, 78
1, 5277, Note_on_c, 1, 58, 0
1, 5280, Note_on_c, 1, 60, 78
1, 5301, Note_on_c, 0, 74, 0
1, 5304, Note_on_c, 0, 75, 78
1, 5325, Note_on_c, 1, 60, 0
1, 5328, Note_on_c, 1, 57, 78
1, 5349, Note_on_c, 0, 75, 0
1, 5352, Note_on_c, 0, 73, 79
1, 5373, Note_on_c, 1, 57, 0
1, 5376, Note_on_c, 1, 58, 79
1, 5399, Note_on_c, 0, 73, 0
1, 5400, Note_on_c, 0, 74, 80
1, 5423, Note_on_c, 0, 74, 0
1, 5424, Note_on_c, 0, 69, 80
1, 5447, Note_on_c, 0, 69, 0
1, 5448, Note_on_c, 0, 70, 79
1, 5465, Note_on_c, 1, 65, 0
1, 5465, Note_on_c, 1, 58, 0
1, 5471, Note_on_c, 0, 70, 0
1, 5472, Note_on_c, 0, 66, 78
1, 5495, Note_on_c, 0, 66, 0
1, 5496, Note_on_c, 0, 67, 77
1, 5519, Note_on_c, 0, 67, 0
1, 5520, Note_on_c, 0, 70, 76
1, 5543, Note_on_c, 0, 70, 0
1, 5544, Note_on_c, 0, 74, 75
1, 5567, Note_on_c, 0, 74, 0
1, 5568, Note_on_c, 0, 65, 75
1, 5592, Note_on_c, 1, 48, 75
1, 5604, Note_on_c, 1, 48, 0
1, 5604, Note_on_c, 1, 55, 75
1, 5616, Note_on_c, 0, 65, 0
1, 5616, Note_on_c, 0, 64, 75
1, 5616, Note_on_c, 1, 55, 0
1, 5616, Note_on_c, 1, 60, 75
1, 5639, Note_on_c, 1, 60, 0
1, 5640, Note_on_c, 1, 55, 75
1, 5657, Note_on_c, 0, 64, 0
1, 5663, Note_on_c, 1, 55, 0
1, 5664, Note_on_c, 0, 65, 75
1, 5664, Note_on_c, 1, 58, 75
1, 5687, Note_on_c, 1, 58, 0
1, 5688, Note_on_c, 1, 57, 75
1, 5709, Note_on_c, 0, 65, 0
1, 5711, Note_on_c, 1, 57, 0
1, 5712, Note_on_c, 1, 55, 75
1, 5735, Note_on_c, 1, 55, 0
1, 5736, Note_on_c, 1, 53, 75
1, 5759, Note_on_c, 1, 53, 0
1, 5760, Note_on_c, 1, 53, 75
1, 5784, Note_on_c, 0, 60, 75
1, 5796, Note_on_c, 0, 60, 0
1, 5796, Note_on_c, 0, 67, 75
1, 5808, Note_on_c, 0, 67, 0
1, 5808, Note_on_c, 0, 72, 75
1, 5808, Note_on_c, 1, 53, 0
1, 5808, Note_on_c, 1, 52, 75
1, 5831, Note_on_c, 0, 72, 0
1, 5832, Note_on_c, 0, 67, 75
1, 5849, Note_on_c, 1, 52, 0
1, 5855, Note_on_c, 0, 67, 0
1, 5856, Note_on_c, 0, 70, 75
1, 5856, Note_on_c, 1, 53, 75
1, 5879, Note_on_c, 0, 70, 0
1, 5880, Note_on_c, 0, 69, 75
1, 5901, Note_on_c, 1, 53, 0
1, 5903, Note_on_c, 0, 69, 0
1, 5904, Note_on_c, 0, 67, 75
1, 5927, Note_on_c, 0, 67, 0
1, 5928, Note_on_c, 0, 65, 75
1, 5951, Note_on_c, 0, 65, 0
1, 5952, Note_on_c, 0, 65, 75
1, 5976, Note_on_c, 1, 48, 75
1, 5988, Note_on_c, 1, 48, 0
1, 5988, Note_on_c, 1, 55, 75
1, 6000, Note_on_c, 0, 65, 0
1, 6000, Note_on_c, 0, 64, 75
1, 6000, Note_on_c, 1, 55, 0
1, 6000, Note_on_c, 1, 60, 75
1, 6023, Note_on_c, 1, 60, 0
1, 6024, Note_on_c, 1, 55, 75
1, 6041, Note_on_c, 0, 64, 0
1, 6047, Note_on_c, 1, 55, 0
1, 6048, Note_on_c, 0, 65, 75
1, 6048, Note_on_c, 1, 58, 75
1, 6071, Note_on_c, 1, 58, 0
1, 6072, Note_on_c, 1, 57, 75
1, 6093, Note_on_c, 0, 65, 0
1, 6095, Note_on_c, 1, 57, 0
1, 6096, Note_on_c, 1, 55, 75
1, 6102, Note_on_c, 1, 55, 0
1, 6102, Note_on_c, 1, 57, 75
1, 6108, Note_on_c, 1, 57, 0
1, 6108, Note_on_c, 1, 55, 75
1, 6119, Note_on_c, 1, 55, 0
1, 6120, Note_on_c, 1, 53, 75
1, 6143, Note_on_c, 1, 53, 0
1, 6144, Note_on_c, 1, 53, 75
1, 6168, Note_on_c, 0, 60, 75
1, 6180, Note_on_c, 0, 60, 0
1, 6180, Note_on_c, 0, 67, 75
1, 6192, Note_on_c, 0, 67, 0
1, 6192, Note_on_c, 0, 72, 75
1, 6192, Note_on_c, 1, 53, 0
1, 6192, Note_on_c, 1, 52, 75
1, 6215, Note_on_c, 0, 72, 0
1, 6216, Note_on_c, 0, 67, 75
1, 6233, Note_on_c, 1, 52, 0
1, 6239, Note_on_c, 0, 67, 0
1, 6240, Note_on_c, 0, 70, 75
1, 6240, Note_on_c, 1, 53, 75
1, 6263, Note_on_c, 0, 70, 0
1, 6264, Note_on_c, 0, 69, 75
1, 6285, Note_on_c, 1, 53, 0
1, 6287, Note_on_c, 0, 69, 0
1, 6288, Note_on_c, 0, 67, 75
1, 6294, Note_on_c, 0, 67, 0
1, 6294, Note_on_c, 0, 69, 75
1, 6300, Note_on_c, 0, 69, 0
1, 6300, Note_on_c, 0, 67, 75
1, 6311, Note_on_c, 0, 67, 0
1, 6312, Note_on_c, 0, 65, 75
1, 6335, Note_on_c, 0, 65, 0
1, 6336, Note_on_c, 1, 46, 75
1, 6348, Note_on_c, 0, 67, 75
1, 6360, Note_on_c, 0, 67, 0
1, 6360, Note_on_c, 0, 70, 75
1, 6372, Note_on_c, 0, 70, 0
1, 6372, Note_on_c, 0, 74, 75
1, 6381, Note_on_c, 1, 46, 0
1, 6384, Note_on_c, 0, 74, 0
1, 6384, Note_on_c, 0, 79, 75
1, 6396, Note_on_c, 0, 79, 0
1, 6396, Note_on_c, 0, 67, 75
1, 6408, Note_on_c, 0, 67, 0
1, 6408, Note_on_c, 0, 70, 75
1, 6420, Note_on_c, 0, 70, 0
1, 6420, Note_on_c, 0, 74, 75
1, 6432, Note_on_c, 0, 74, 0
1, 6432, Note_on_c, 0, 79, 75
1, 6444, Note_on_c, 0, 79, 0
1, 6444, Note_on_c, 0, 82, 75
1, 6456, Note_on_c, 0, 82, 0
1, 6456, Note_on_c, 0, 86, 75
1, 6468, Note_on_c, 0, 86, 0
1, 6468, Note_on_c, 0, 84, 75
1, 6480, Note_on_c, 0, 84, 0
1, 6480, Note_on_c, 0, 82, 75
1, 6492, Note_on_c, 0, 82, 0
1, 6492, Note_on_c, 0, 81, 75
1, 6504, Note_on_c, 0, 81, 0
1, 6504, Note_on_c, 0, 79, 75
1, 6516, Note_on_c, 0, 79, 0
1, 6516, Note_on_c, 0, 77, 75
1, 6528, Note_on_c, 0, 77, 0
1, 6528, Note_on_c, 0, 76, 75
1, 6528, Note_on_c, 1, 58, 75
1, 6540, Note_on_c, 0, 76, 0
1, 6540, Note_on_c, 0, 79, 75
1, 6552, Note_on_c, 0, 79, 0
1, 6552, Note_on_c, 0, 84, 75
1, 6564, Note_on_c, 0, 84, 0
1, 6564, Note_on_c, 0, 82, 75
1, 6573, Note_on_c, 1, 58, 0
1, 6576, Note_on_c, 0, 82, 0
1, 6576, Note_on_c, 0, 81, 75
1, 6588, Note_on_c, 0, 81, 0
1, 6588, Note_on_c, 0, 79, 75
1, 6600, Note_on_c, 0, 79, 0
1, 6600, Note_on_c, 0, 77, 75
1, 6612, Note_on_c, 0, 77, 0
1, 6612, Note_on_c, 0, 76, 75
1, 6624, Note_on_c, 0, 76, 0
1, 6624, Note_on_c, 0, 77, 75
1, 6624, Note_on_c, 1, 57, 75
1, 6636, Note_on_c, 0, 77, 0
1, 6636, Note_on_c, 0, 79, 75
1, 6648, Note_on_c, 0, 79, 0
1, 6648, Note_on_c, 0, 81, 75
1, 6660, Note_on_c, 0, 81, 0
1, 6660, Note_on_c, 0, 79, 75
1, 6669, Note_on_c, 1, 57, 0
1, 6672, Note_on_c, 0, 79, 0
1, 6672, Note_on_c, 0, 77, 75
1, 6684, Note_on_c, 0, 77, 0
1, 6684, Note_on_c, 0, 76, 75
1, 6696, Note_on_c, 0, 76, 0
1, 6696, Note_on_c, 0, 74, 75
1, 6708, Note_on_c, 0, 74, 0
1, 6708, Note_on_c, 0, 73, 75
1, 6720, Note_on_c, 0, 73, 0
1, 6720, Note_on_c, 0, 74, 75
1, 6720, Note_on_c, 1, 58, 75
1, 6732, Note_on_c, 0, 74, 0
1, 6732, Note_on_c, 0, 76, 75
1, 6744, Note_on_c, 0, 76, 0
1, 6744, Note_on_c, 0, 77, 75
1, 6756, Note_on_c, 0, 77, 0
1, 6756, Note_on_c, 0, 69, 75
1, 6765, Note_on_c, 1, 58, 0
1, 6768, Note_on_c, 0, 69, 0
1, 6768, Note_on_c, 0, 70, 75
1, 6780, Note_on_c, 0, 70, 0
1, 6780, Note_on_c, 0, 72, 75
1, 6792, Note_on_c, 0, 72, 0
1, 6792, Note_on_c, 0, 74, 75
1, 6804, Note_on_c, 0, 74, 0
1, 6804, Note_on_c, 0, 65, 75
1, 6804, Note_on_c, 1, 59, 75
1, 6804, Note_on_c, 1, 47, 75
1, 6816, Note_on_c, 0, 65, 0
1, 6816, Note_on_c, 1, 59, 0
1, 6816, Note_on_c, 1, 47, 0
1, 6816, Note_on_c, 1, 60, 75
1, 6816, Note_on_c, 1, 48, 75
1, 6861, Note_on_c, 1, 60, 0
1, 6861, Note_on_c, 1, 48, 0
1, 6864, Note_on_c, 0, 79, 75
1, 6864, Note_on_c, 1, 48, 75
1, 6864, Note_on_c, 1, 36, 75
1, 6871, Note_on_c, 0, 79, 0
1, 6871, Note_on_c, 0, 81, 75
1, 6878, Note_on_c, 0, 81, 0
1, 6878, Note_on_c, 0, 79, 75
1, 6885, Note_on_c, 0, 79, 0
1, 6885, Note_on_c, 0, 81, 75
1, 6892, Note_on_c, 0, 81, 0
1, 6892, Note_on_c, 0, 79, 75
1, 6899, Note_on_c, 0, 79, 0
1, 6899, Note_on_c, 0, 77, 75
1, 6906, Note_on_c, 0, 77, 0
1, 6906, Note_on_c, 0, 79, 75
1, 6909, Note_on_c, 1, 48, 0
1, 6909, Note_on_c, 1, 36, 0
1, 6912, Note_on_c, 0, 79, 0
1, 6912, Note_on_c, 0, 77, 75
1, 6912, Note_on_c, 1, 50, 75
1, 6912, Note_on_c, 1, 38, 75
1, 6947, Note_on_c, 0, 77, 0
1, 6948, Note_on_c, 0, 77, 75
1, 6960, Note_on_c, 0, 77, 0
1, 6960, Note_on_c, 0, 79, 75
1, 6972, Note_on_c, 0, 79, 0
1, 6972, Note_on_c, 0, 77, 75
1, 6984, Note_on_c, 0, 77, 0
1, 6984, Note_on_c, 0, 76, 75
1, 6996, Note_on_c, 0, 76, 0
1, 6996, Note_on_c, 0, 74, 75
1, 7001, Note_on_c, 1, 50, 0
1, 7001, Note_on_c, 1, 38, 0
1, 7008, Note_on_c, 0, 74, 0
1, 7008, Note_on_c, 0, 76, 75
1, 7020, Note_on_c, 0, 76, 0
1, 7020, Note_on_c, 0, 74, 75
1, 7032, Note_on_c, 0, 74, 0
1, 7032, Note_on_c, 0, 72, 75
1, 7044, Note_on_c, 0, 72, 0
1, 7044, Note_on_c, 0, 71, 75
1, 7056, Note_on_c, 0, 71, 0
1, 7056, Note_on_c, 0, 76, 75
1, 7056, Note_on_c, 1, 65, 75
1, 7056, Note_on_c, 1, 62, 75
1, 7068, Note_on_c, 0, 76, 0
1, 7068, Note_on_c, 0, 74, 75
1, 7080, Note_on_c, 0, 74, 0
1, 7080, Note_on_c, 0, 72, 75
1, 7092, Note_on_c, 0, 72, 0
1, 7092, Note_on_c, 0, 71, 75
1, 7101, Note_on_c, 1, 65, 0
1, 7101, Note_on_c, 1, 62, 0
1, 7104, Note_on_c, 0, 71, 0
1, 7104, Note_on_c, 0, 72, 75
1, 7104, Note_on_c, 1, 67, 75
1, 7104, Note_on_c, 1, 64, 75
1, 7138, Note_on_c, 0, 72, 0
1, 7140, Note_on_c, 0, 79, 75
1, 7149, Note_on_c, 1, 67, 0
1, 7149, Note_on_c, 1, 64, 0
1, 7152, Note_on_c, 0, 79, 0
1, 7152, Note_on_c, 0, 81, 75
1, 7164, Note_on_c, 0, 81, 0
1, 7164, Note_on_c, 0, 79, 75
1, 7176, Note_on_c, 0, 79, 0
1, 7176, Note_on_c, 0, 77, 75
1, 7188, Note_on_c, 0, 77, 0
1, 7188, Note_on_c, 0, 76, 75
1, 7200, Note_on_c, 0, 76, 0
1, 7200, Note_on_c, 0, 82, 75
1, 7212, Note_on_c, 0, 82, 0
1, 7212, Note_on_c, 0, 81, 75
1, 7224, Note_on_c, 0, 81, 0
1, 7224, Note_on_c, 0, 79, 75
1, 7236, Note_on_c, 0, 79, 0
1, 7236, Note_on_c, 0, 77, 75
1, 7248, Note_on_c, 0, 77, 0
1, 7248, Note_on_c, 0, 76, 75
1, 7248, Note_on_c, 1, 60, 75
1, 7260, Note_on_c, 0, 76, 0
1, 7260, Note_on_c, 0, 74, 75
1, 7272, Note_on_c, 0, 74, 0
1, 7272, Note_on_c, 0, 72, 75
1, 7284, Note_on_c, 0, 72, 0
1, 7284, Note_on_c, 0, 70, 75
1, 7293, Note_on_c, 1, 60, 0
1, 7296, Note_on_c, 0, 70, 0
1, 7296, Note_on_c, 0, 69, 75
1, 7296, Note_on_c, 1, 65, 75
1, 7308, Note_on_c, 0, 69, 0
1, 7308, Note_on_c, 0, 72, 75
1, 7320, Note_on_c, 0, 72, 0
1, 7320, Note_on_c, 0, 76, 75
1, 7332, Note_on_c, 0, 76, 0
1, 7332, Note_on_c, 0, 77, 75
1, 7341, Note_on_c, 1, 65, 0
1, 7344, Note_on_c, 0, 77, 0
1, 7344, Note_on_c, 0, 76, 75
1, 7344, Note_on_c, 1, 58, 75
1, 7356, Note_on_c, 0, 76, 0
1, 7356, Note_on_c, 0, 74, 75
1, 7368, Note_on_c, 0, 74, 0
1, 7368, Note_on_c, 0, 72, 75
1, 7380, Note_on_c, 0, 72, 0
1, 7380, Note_on_c, 0, 70, 75
1, 7389, Note_on_c, 1, 58, 0
1, 7392, Note_on_c, 0, 70, 0
1, 7392, Note_on_c, 0, 69, 75
1, 7392, Note_on_c, 1, 60, 75
1, 7437, Note_on_c, 0, 69, 0
1, 7437, Note_on_c, 1, 60, 0
1, 7440, Note_on_c, 0, 67, 75
1, 7440, Note_on_c, 1, 48, 75
1, 7447, Note_on_c, 0, 67, 0
1, 7447, Note_on_c, 0, 69, 75
1, 7454, Note_on_c, 0, 69, 0
1, 7454, Note_on_c, 0, 67, 75
1, 7461, Note_on_c, 0, 67, 0
1, 7461, Note_on_c, 0, 69, 75
1, 7468, Note_on_c, 0, 69, 0
1, 7468, Note_on_c, 0, 67, 75
1, 7475, Note_on_c, 0, 67, 0
1, 7475, Note_on_c, 0, 65, 75
1, 7482, Note_on_c, 0, 65, 0
1, 7482, Note_on_c, 0, 67, 75
1, 7485, Note_on_c, 1, 48, 0
1, 7488, Note_on_c, 0, 67, 0
1, 7488, Note_on_c, 0, 65, 75
1, 7488, Note_on_c, 1, 53, 75
1, 7533, Note_on_c, 1, 53, 0
1, 7536, Note_on_c, 1, 48, 75
1, 7570, Note_on_c, 1, 48, 0
1, 7572, Note_on_c, 1, 45, 75
1, 7577, Note_on_c, 0, 65, 0
1, 7584, Note_on_c, 1, 45, 0
1, 7584, Note_on_c, 1, 41, 75
1, 7629, Note_on_c, 1, 41, 0
1, 7656, Tempo, 923076
1, 7656, Note_on_c, 0, 70, 64
1, 7666, Note_on_c, 0, 70, 0
1, 7680, Note_on_c, 0, 72, 64
1, 7680, Note_on_c, 1, 62, 64
1, 7680, Note_on_c, 1, 58, 64
1, 7686, Note_on_c, 0, 72, 0
1, 7686, Note_on_c, 0, 70, 64
1, 7692, Note_on_c, 0, 70, 0
1, 7692, Note_on_c, 0, 69, 64
1, 7698, Note_on_c, 0, 69, 0
1, 7698, Note_on_c, 0, 70, 64
1, 7714, Note_on_c, 0, 70, 0
1, 7716, Note_on_c, 0, 74, 64
1, 7728, Note_on_c, 0, 74, 0
1, 7728, Note_on_c, 0, 75, 64
1, 7734, Note_on_c, 0, 75, 0
1, 7734, Note_on_c, 0, 74, 64
1, 7740, Note_on_c, 0, 74, 0
1, 7740, Note_on_c, 0, 72, 64
1, 7746, Note_on_c, 0, 72, 0
1, 7746, Note_on_c, 0, 74, 64
1, 7762, Note_on_c, 0, 74, 0
1, 7764, Note_on_c, 0, 77, 64
1, 7769, Note_on_c, 1, 62, 0
1, 7769, Note_on_c, 1, 58, 0
1, 7776, Note_on_c, 0, 77, 0
1, 7776, Note_on_c, 0, 79, 64
1, 7782, Note_on_c, 0, 79, 0
1, 7782, Note_on_c, 0, 77, 64
1, 7788, Note_on_c, 0, 77, 0
1, 7788, Note_on_c, 0, 75, 64
1, 7794, Note_on_c, 0, 75, 0
1, 7794, Note_on_c, 0, 77, 64
1, 7810, Note_on_c, 0, 77, 0
1, 7812, Note_on_c, 0, 82, 64
1, 7824, Note_on_c, 0, 82, 0
1, 7824, Note_on_c, 0, 81, 64
1, 7824, Note_on_c, 1, 74, 64
1, 7824, Note_on_c, 1, 70, 64
1, 7858, Note_on_c, 0, 81, 0
1, 7860, Note_on_c, 0, 79, 64
1, 7869, Note_on_c, 1, 74, 0
1, 7869, Note_on_c, 1, 70, 0
1, 7872, Note_on_c, 0, 79, 0
1, 7872, Note_on_c, 0, 79, 64
1, 7872, Note_on_c, 1, 72, 64
1, 7872, Note_on_c, 1, 69, 64
1, 7906, Note_on_c, 0, 79, 0
1, 7908, Note_on_c, 0, 77, 64
1, 7920, Note_on_c, 0, 77, 0
1, 7920, Note_on_c, 0, 77, 64
1, 7961, Note_on_c, 1, 72, 0
1, 7961, Note_on_c, 1, 69, 0
1, 7968, Note_on_c, 1, 69, 64
1, 7968, Note_on_c, 1, 65, 64
1, 8002, Note_on_c, 0, 77, 0
1, 8004, Note_on_c, 0, 79, 64
1, 8013, Note_on_c, 1, 69, 0
1, 8013, Note_on_c, 1, 65, 0
1, 8016, Note_on_c, 0, 79, 0
1, 8016, Note_on_c, 0, 75, 64
1, 8050, Note_on_c, 0, 75, 0
1, 8052, Note_on_c, 0, 77, 64
1, 8064, Note_on_c, 0, 77, 0
1, 8064, Note_on_c, 0, 74, 64
1, 8064, Note_on_c, 1, 70, 64
1, 8064, Note_on_c, 1, 58, 64
1, 8098, Note_on_c, 0, 74, 0
1, 8100, Note_on_c, 0, 75, 64
1, 8109, Note_on_c, 1, 70, 0
1, 8109, Note_on_c, 1, 58, 0
1, 8112, Note_on_c, 0, 75, 0
1, 8112, Note_on_c, 0, 72, 64
1, 8112, Note_on_c, 1, 67, 64
1, 8112, Note_on_c, 1, 63, 64
1, 8146, Note_on_c, 0, 72, 0
1, 8148, Note_on_c, 0, 74, 64
1, 8157, Note_on_c, 1, 67, 0
1, 8157, Note_on_c, 1, 63, 0
1, 8160, Note_on_c, 0, 74, 0
1, 8160, Note_on_c, 0, 70, 64
1, 8160, Note_on_c, 1, 65, 64
1, 8160, Note_on_c, 1, 62, 64
1, 8194, Note_on_c, 0, 70, 0
1, 8196, Note_on_c, 0, 72, 64
1, 8205, Note_on_c, 1, 65, 0
1, 8205, Note_on_c, 1, 62, 0
1, 8208, Note_on_c, 0, 72, 0
1, 8208, Note_on_c, 0, 69, 64
1, 8208, Note_on_c, 1, 63, 64
1, 8208, Note_on_c, 1, 53, 64
1, 8242, Note_on_c, 0, 69, 0
1, 8244, Note_on_c, 0, 72, 64
1, 8253, Note_on_c, 1, 63, 0
1, 8253, Note_on_c, 1, 53, 0
1, 8256, Note_on_c, 0, 72, 0
1, 8256, Note_on_c, 0, 72, 64
1, 8256, Note_on_c, 1, 62, 64
1, 8256, Note_on_c, 1, 58, 64
1, 8268, Note_on_c, 0, 72, 0
1, 8268, Note_on_c, 0, 70, 64
1, 8280, Note_on_c, 0, 70, 0
1, 8280, Note_on_c, 0, 69, 64
1, 8292, Note_on_c, 0, 69, 0
1, 8292, Note_on_c, 0, 70, 64
1, 8301, Note_on_c, 1, 62, 0
1, 8301, Note_on_c, 1, 58, 0
1, 8304, Note_on_c, 0, 70, 0
1, 8304, Note_on_c, 0, 65, 64
1, 8340, Note_on_c, 1, 58, 80
1, 8349, Note_on_c, 0, 65, 0
1, 8352, Note_on_c, 1, 58, 0
1, 8352, Note_on_c, 1, 58, 80
1, 8364, Note_on_c, 1, 58, 0
1, 8364, Note_on_c, 1, 57, 80
1, 8376, Note_on_c, 1, 57, 0
1, 8376, Note_on_c, 1, 55, 80
1, 8388, Note_on_c, 1, 55, 0
1, 8388, Note_on_c, 1, 53, 80
1, 8400, Note_on_c, 1, 53, 0
1, 8400, Note_on_c, 1, 53, 80
1, 8412, Note_on_c, 1, 53, 0
1, 8412, Note_on_c, 1, 51, 80
1, 8424, Note_on_c, 0, 70, 64
1, 8424, Note_on_c, 1, 51, 0
1, 8424, Note_on_c, 1, 50, 80
1, 8434, Note_on_c, 0, 70, 0
1, 8436, Note_on_c, 1, 50, 0
1, 8436, Note_on_c, 1, 48, 80
1, 8448, Note_on_c, 0, 72, 64
1, 8448, Note_on_c, 1, 48, 0
1, 8448, Note_on_c, 1, 46, 80
1, 8454, Note_on_c, 0, 72, 0
1, 8454, Note_on_c, 0, 70, 64
1, 8460, Note_on_c, 0, 70, 0
1, 8460, Note_on_c, 0, 69, 64
1, 8466, Note_on_c, 0, 69, 0
1, 8466, Note_on_c, 0, 70, 64
1, 8482, Note_on_c, 0, 70, 0
1, 8484, Note_on_c, 0, 74, 64
1, 8496, Note_on_c, 0, 74, 0
1, 8496, Note_on_c, 0, 75, 64
1, 8502, Note_on_c, 0, 75, 0
1, 8502, Note_on_c, 0, 74, 64
1, 8508, Note_on_c, 0, 74, 0
1, 8508, Note_on_c, 0, 72, 64
1, 8514, Note_on_c, 0, 72, 0
1, 8514, Note_on_c, 0, 74, 64
1, 8530, Note_on_c, 0, 74, 0
1, 8532, Note_on_c, 0, 77, 64
1, 8537, Note_on_c, 1, 46, 0
1, 8544, Note_on_c, 0, 77, 0
1, 8544, Note_on_c, 0, 79, 64
1, 8550, Note_on_c, 0, 79, 0
1, 8550, Note_on_c, 0, 77, 64
1, 8556, Note_on_c, 0, 77, 0
1, 8556, Note_on_c, 0, 75, 64
1, 8562, Note_on_c, 0, 75, 0
1, 8562, Note_on_c, 0, 77, 64
1, 8578, Note_on_c, 0, 77, 0
1, 8580, Note_on_c, 0, 82, 64
1, 8592, Note_on_c, 0, 82, 0
1, 8592, Note_on_c, 0, 81, 64
1, 8592, Note_on_c, 1, 74, 75
1, 8592, Note_on_c, 1, 70, 75
1, 8626, Note_on_c, 0, 81, 0
1, 8628, Note_on_c, 0, 79, 64
1, 8637, Note_on_c, 1, 74, 0
1, 8637, Note_on_c, 1, 70, 0
1, 8640, Note_on_c, 0, 79, 0
1, 8640, Note_on_c, 0, 79, 64
1, 8640, Note_on_c, 1, 72, 75
1, 8640, Note_on_c, 1, 69, 75
1, 8674, Note_on_c, 0, 79, 0
1, 8676, Note_on_c, 0, 77, 64
1, 8688, Note_on_c, 0, 77, 0
1, 8688, Note_on_c, 0, 77, 64
1, 8729, Note_on_c, 1, 72, 0
1, 8729, Note_on_c, 1, 69, 0
1, 8733, Note_on_c, 0, 77, 0
1, 8736, Note_on_c, 1, 69, 75
1, 8736, Note_on_c, 1, 65, 75
1, 8752, Note_on_c, 0, 84, 64
1, 8767, Note_on_c, 0, 84, 0
1, 8768, Note_on_c, 0, 82, 64
1, 8781, Note_on_c, 1, 69, 0
1, 8781, Note_on_c, 1, 65, 0
1, 8783, Note_on_c, 0, 82, 0
1, 8784, Note_on_c, 0, 81, 64
1, 8799, Note_on_c, 0, 81, 0
1, 8800, Note_on_c, 0, 79, 64
1, 8815, Note_on_c, 0, 79, 0
1, 8816, Note_on_c, 0, 77, 64
1, 8831, Note_on_c, 0, 77, 0
1, 8832, Note_on_c, 0, 75, 75
1, 8832, Note_on_c, 1, 70, 75
1, 8845, Note_on_c, 0, 75, 0
1, 8846, Note_on_c, 0, 74, 75
1, 8859, Note_on_c, 0, 74, 0
1, 8860, Note_on_c, 0, 73, 76
1, 8873, Note_on_c, 0, 73, 0
1, 8874, Note_on_c, 0, 74, 76
1, 8877, Note_on_c, 1, 70, 0
1, 8887, Note_on_c, 0, 74, 0
1, 8888, Note_on_c, 0, 75, 77
1, 8901, Note_on_c, 0, 75, 0
1, 8902, Note_on_c, 0, 76, 78
1, 8915, Note_on_c, 0, 76, 0
1, 8916, Note_on_c, 0, 77, 78
1, 8928, Note_on_c, 1, 63, 75
1, 8929, Note_on_c, 0, 77, 0
1, 8930, Note_on_c, 0, 78, 79
1, 8943, Note_on_c, 0, 78, 0
1, 8944, Note_on_c, 0, 81, 80
1, 8957, Note_on_c, 0, 81, 0
1, 8958, Note_on_c, 0, 79, 79
1, 8971, Note_on_c, 0, 79, 0
1, 8972, Note_on_c, 0, 77, 78
1, 8973, Note_on_c, 1, 63, 0
1, 8984, Note_on_c, 0, 77, 0
1, 8985, Note_on_c, 0, 75, 78
1, 8997, Note_on_c, 0, 75, 0
1, 8998, Note_on_c, 0, 74, 77
1, 9010, Note_on_c, 0, 74, 0
1, 9011, Note_on_c, 0, 72, 76
1, 9023, Note_on_c, 0, 72, 0
1, 9024, Note_on_c, 0, 70, 75
1, 9072, Note_on_c, 1, 63, 75
1, 9072, Note_on_c, 1, 53, 75
1, 9084, Note_on_c, 0, 70, 0
1, 9084, Note_on_c, 0, 69, 75
1, 9096, Note_on_c, 0, 69, 0
1, 9096, Note_on_c, 0, 72, 75
1, 9108, Note_on_c, 0, 72, 0
1, 9108, Note_on_c, 0, 69, 75
1, 9117, Note_on_c, 1, 63, 0
1, 9117, Note_on_c, 1, 53, 0
1, 9120, Note_on_c, 0, 69, 0
1, 9120, Note_on_c, 0, 70, 75
1, 9120, Note_on_c, 1, 62, 75
1, 9120, Note_on_c, 1, 58, 75
1, 9165, Note_on_c, 0, 70, 0
1, 9165, Note_on_c, 1, 62, 0
1, 9165, Note_on_c, 1, 58, 0
1, 9168, Note_on_c, 1, 46, 75
1, 9213, Note_on_c, 1, 46, 0
1, 9216, Note_on_c, 0, 75, 75
1, 9222, Note_on_c, 0, 75, 0
1, 9222, Note_on_c, 0, 74, 75
1, 9228, Note_on_c, 0, 74, 0
1, 9228, Note_on_c, 0, 72, 75
1, 9232, Note_on_c, 1, 70, 75
1, 9234, Note_on_c, 0, 72, 0
1, 9234, Note_on_c, 0, 74, 75
1, 9247, Note_on_c, 1, 70, 0
1, 9248, Note_on_c, 1, 69, 75
1, 9263, Note_on_c, 1, 69, 0
1, 9264, Note_on_c, 1, 70, 75
1, 9279, Note_on_c, 1, 70, 0
1, 9280, Note_on_c, 1, 69, 75
1, 9295, Note_on_c, 1, 69, 0
1, 9296, Note_on_c, 1, 67, 75
1, 9311, Note_on_c, 1, 67, 0
1, 9312, Note_on_c, 1, 66, 75
1, 9327, Note_on_c, 0, 74, 0
1, 9328, Note_on_c, 0, 75, 75
1, 9343, Note_on_c, 0, 75, 0
1, 9344, Note_on_c, 0, 74, 75
1, 9359, Note_on_c, 0, 74, 0
1, 9360, Note_on_c, 0, 75, 75
1, 9375, Note_on_c, 0, 75, 0
1, 9376, Note_on_c, 0, 74, 75
1, 9391, Note_on_c, 0, 74, 0
1, 9392, Note_on_c, 0, 72, 75
1, 9401, Note_on_c, 1, 66, 0
1, 9407, Note_on_c, 0, 72, 0
1, 9408, Note_on_c, 0, 70, 75
1, 9408, Note_on_c, 1, 67, 75
1, 9423, Note_on_c, 0, 70, 0
1, 9424, Note_on_c, 0, 74, 75
1, 9439, Note_on_c, 0, 74, 0
1, 9440, Note_on_c, 0, 78, 75
1, 9453, Note_on_c, 1, 67, 0
1, 9456, Note_on_c, 0, 78, 0
1, 9456, Note_on_c, 0, 79, 75
1, 9471, Note_on_c, 0, 79, 0
1, 9472, Note_on_c, 0, 74, 75
1, 9487, Note_on_c, 0, 74, 0
1, 9488, Note_on_c, 0, 81, 75
1, 9504, Note_on_c, 0, 81, 0
1, 9504, Note_on_c, 0, 82, 75
1, 9519, Note_on_c, 0, 82, 0
1, 9520, Note_on_c, 0, 79, 75
1, 9535, Note_on_c, 0, 79, 0
1, 9536, Note_on_c, 0, 85, 75
1, 9552, Note_on_c, 0, 85, 0
1, 9552, Note_on_c, 0, 86, 75
1, 9597, Note_on_c, 0, 86, 0
1, 9600, Note_on_c, 0, 74, 75
1, 9606, Note_on_c, 0, 74, 0
1, 9606, Note_on_c, 0, 72, 75
1, 9612, Note_on_c, 0, 72, 0
1, 9612, Note_on_c, 0, 71, 75
1, 9616, Note_on_c, 1, 69, 75
1, 9618, Note_on_c, 0, 71, 0
1, 9618, Note_on_c, 0, 72, 75
1, 9631, Note_on_c, 1, 69, 0
1, 9632, Note_on_c, 1, 67, 75
1, 9647, Note_on_c, 1, 67, 0
1, 9648, Note_on_c, 1, 69, 75
1, 9663, Note_on_c, 1, 69, 0
1, 9664, Note_on_c, 1, 67, 75
1, 9679, Note_on_c, 1, 67, 0
1, 9680, Note_on_c, 1, 65, 75
1, 9695, Note_on_c, 1, 65, 0
1, 9696, Note_on_c, 1, 64, 75
1, 9711, Note_on_c, 0, 72, 0
1, 9712, Note_on_c, 0, 74, 75
1, 9727, Note_on_c, 0, 74, 0
1, 9728, Note_on_c, 0, 72, 75
1, 9743, Note_on_c, 0, 72, 0
1, 9744, Note_on_c, 0, 74, 75
1, 9759, Note_on_c, 0, 74, 0
1, 9760, Note_on_c, 0, 72, 75
1, 9775, Note_on_c, 0, 72, 0
1, 9776, Note_on_c, 0, 70, 75
1, 9785, Note_on_c, 1, 64, 0
1, 9791, Note_on_c, 0, 70, 0
1, 9792, Note_on_c, 0, 69, 75
1, 9792, Note_on_c, 1, 65, 75
1, 9807, Note_on_c, 0, 69, 0
1, 9808, Note_on_c, 0, 72, 75
1, 9823, Note_on_c, 0, 72, 0
1, 9824, Note_on_c, 0, 76, 75
1, 9837, Note_on_c, 1, 65, 0
1, 9840, Note_on_c, 0, 76, 0
1, 9840, Note_on_c, 0, 77, 75
1, 9855, Note_on_c, 0, 77, 0
1, 9856, Note_on_c, 0, 72, 75
1, 9871, Note_on_c, 0, 72, 0
1, 9872, Note_on_c, 0, 80, 75
1, 9888, Note_on_c, 0, 80, 0
1, 9888, Note_on_c, 0, 81, 75
1, 9903, Note_on_c, 0, 81, 0
1, 9904, Note_on_c, 0, 77, 75
1, 9919, Note_on_c, 0, 77, 0
1, 9920, Note_on_c, 0, 83, 75
1, 9936, Note_on_c, 0, 83, 0
1, 9936, Note_on_c, 0, 84, 75
1, 10029, Note_on_c, 0, 84, 0
1, 10152, Note_on_c, 0, 84, 64
1, 10162, Note_on_c, 0, 84, 0
1, 10176, Note_on_c, 0, 84, 64
1, 10199, Note_on_c, 0, 84, 0
1, 10200, Note_on_c, 0, 82, 64
1, 10224, Note_on_c, 1, 65, 64
1, 10245, Note_on_c, 0, 82, 0
1, 10248, Note_on_c, 0, 73, 64
1, 10269, Note_on_c, 1, 65, 0
1, 10272, Note_on_c, 1, 64, 64
1, 10293, Note_on_c, 0, 73, 0
1, 10296, Note_on_c, 0, 72, 64
1, 10320, Note_on_c, 1, 70, 64
1, 10341, Note_on_c, 0, 72, 0
1, 10344, Note_on_c, 0, 84, 64
1, 10354, Note_on_c, 0, 84, 0
1, 10361, Note_on_c, 1, 64, 0
1, 10365, Note_on_c, 1, 70, 0
1, 10368, Note_on_c, 0, 84, 64
1, 10391, Note_on_c, 0, 84, 0
1, 10392, Note_on_c, 0, 82, 64
1, 10416, Note_on_c, 1, 65, 64
1, 10437, Note_on_c, 0, 82, 0
1, 10440, Note_on_c, 0, 73, 64
1, 10461, Note_on_c, 1, 65, 0
1, 10464, Note_on_c, 1, 64, 64
1, 10485, Note_on_c, 0, 73, 0
1, 10488, Note_on_c, 0, 72, 64
1, 10512, Note_on_c, 1, 70, 64
1, 10533, Note_on_c, 0, 72, 0
1, 10536, Note_on_c, 0, 84, 64
1, 10546, Note_on_c, 0, 84, 0
1, 10553, Note_on_c, 1, 64, 0
1, 10557, Note_on_c, 1, 70, 0
1, 10560, Note_on_c, 0, 84, 80
1, 10583, Note_on_c, 0, 84, 0
1, 10584, Note_on_c, 0, 82, 80
1, 10608, Note_on_c, 1, 65, 80
1, 10629, Note_on_c, 0, 82, 0
1, 10632, Note_on_c, 0, 73, 80
1, 10653, Note_on_c, 1, 65, 0
1, 10656, Note_on_c, 1, 64, 80
1, 10677, Note_on_c, 0, 73, 0
1, 10680, Note_on_c, 0, 72, 80
1, 10704, Note_on_c, 1, 70, 80
1, 10725, Note_on_c, 0, 72, 0
1, 10728, Note_on_c, 0, 84, 80
1, 10738, Note_on_c, 0, 84, 0
1, 10752, Note_on_c, 0, 83, 64
1, 10764, Note_on_c, 0, 83, 0
1, 10764, Note_on_c, 0, 84, 66
1, 10776, Note_on_c, 0, 84, 0
1, 10776, Note_on_c, 0, 86, 68
1, 10788, Note_on_c, 0, 86, 0
1, 10788, Note_on_c, 0, 84, 70
1, 10800, Note_on_c, 0, 84, 0
1, 10800, Note_on_c, 0, 84, 72
1, 10871, Note_on_c, 0, 84, 0
1, 10872, Note_on_c, 0, 84, 80
1, 10884, Note_on_c, 0, 84, 0
1, 10884, Note_on_c, 0, 86, 80
1, 10885, Note_on_c, 1, 70, 0
1, 10885, Note_on_c, 1, 64, 0
1, 10896, Note_on_c, 0, 86, 0
1, 10896, Note_on_c, 0, 89, 80
1, 10896, Note_on_c, 1, 72, 80
1, 10896, Note_on_c, 1, 70, 80
1, 10908, Note_on_c, 0, 89, 0
1, 10908, Note_on_c, 0, 88, 80
1, 10920, Note_on_c, 0, 88, 0
1, 10920, Note_on_c, 0, 86, 80
1, 10932, Note_on_c, 0, 86, 0
1, 10932, Note_on_c, 0, 84, 80
1, 10941, Note_on_c, 1, 72, 0
1, 10941, Note_on_c, 1, 70, 0
1, 10944, Note_on_c, 0, 84, 0
1, 10944, Note_on_c, 0, 89, 80
1, 10944, Note_on_c, 1, 72, 80
1, 10944, Note_on_c, 1, 69, 80
1, 10967, Note_on_c, 0, 89, 0
1, 10968, Note_on_c, 0, 84, 80
1, 10980, Note_on_c, 0, 84, 0
1, 10980, Note_on_c, 0, 86, 80
1, 10989, Note_on_c, 1, 72, 0
1, 10989, Note_on_c, 1, 69, 0
1, 10992, Note_on_c, 0, 86, 0
1, 10992, Note_on_c, 0, 89, 80
1, 10992, Note_on_c, 1, 72, 80
1, 10992, Note_on_c, 1, 70, 80
1, 11004, Note_on_c, 0, 89, 0
1, 11004, Note_on_c, 0, 88, 80
1, 11016, Note_on_c, 0, 88, 0
1, 11016, Note_on_c, 0, 86, 80
1, 11028, Note_on_c, 0, 86, 0
1, 11028, Note_on_c, 0, 84, 80
1, 11037, Note_on_c, 1, 72, 0
1, 11037, Note_on_c, 1, 70, 0
1, 11040, Note_on_c, 0, 84, 0
1, 11040, Note_on_c, 0, 89, 80
1, 11040, Note_on_c, 1, 72, 80
1, 11040, Note_on_c, 1, 69, 80
1, 11063, Note_on_c, 0, 89, 0
1, 11064, Note_on_c, 0, 81, 80
1, 11076, Note_on_c, 0, 81, 0
1, 11076, Note_on_c, 0, 82, 80
1, 11085, Note_on_c, 1, 72, 0
1, 11085, Note_on_c, 1, 69, 0
1, 11088, Note_on_c, 0, 82, 0
1, 11088, Note_on_c, 0, 86, 80
1, 11100, Note_on_c, 0, 86, 0
1, 11100, Note_on_c, 0, 84, 80
1, 11112, Note_on_c, 0, 84, 0
1, 11112, Note_on_c, 0, 82, 80
1, 11124, Note_on_c, 0, 82, 0
1, 11124, Note_on_c, 0, 81, 80
1, 11136, Note_on_c, 0, 81, 0
1, 11136, Note_on_c, 0, 79, 80
1, 11136, Note_on_c, 1, 74, 80
1, 11136, Note_on_c, 1, 70, 80
1, 11159, Note_on_c, 0, 79, 0
1, 11160, Note_on_c, 0, 79, 80
1, 11172, Note_on_c, 0, 79, 0
1, 11172, Note_on_c, 0, 81, 80
1, 11181, Note_on_c, 1, 74, 0
1, 11181, Note_on_c, 1, 70, 0
1, 11184, Note_on_c, 0, 81, 0
1, 11184, Note_on_c, 0, 84, 80
1, 11196, Note_on_c, 0, 84, 0
1, 11196, Note_on_c, 0, 82, 80
1, 11208, Note_on_c, 0, 82, 0
1, 11208, Note_on_c, 0, 81, 80
1, 11220, Note_on_c, 0, 81, 0
1, 11220, Note_on_c, 0, 79, 80
1, 11232, Note_on_c, 0, 79, 0
1, 11232, Note_on_c, 0, 77, 80
1, 11232, Note_on_c, 1, 69, 64
1, 11232, Note_on_c, 1, 60, 64
1, 11255, Note_on_c, 0, 77, 0
1, 11256, Note_on_c, 0, 76, 80
1, 11268, Note_on_c, 0, 76, 0
1, 11268, Note_on_c, 0, 77, 80
1, 11277, Note_on_c, 1, 69, 0
1, 11277, Note_on_c, 1, 60, 0
1, 11280, Note_on_c, 0, 77, 0
1, 11280, Note_on_c, 0, 81, 80
1, 11280, Note_on_c, 1, 67, 64
1, 11280, Note_on_c, 1, 60, 64
1, 11292, Note_on_c, 0, 81, 0
1, 11292, Note_on_c, 0, 79, 78
1, 11304, Note_on_c, 0, 79, 0
1, 11304, Note_on_c, 0, 77, 76
1, 11316, Note_on_c, 0, 77, 0
1, 11316, Note_on_c, 0, 76, 75
1, 11327, Note_on_c, 1, 67, 0
1, 11327, Note_on_c, 1, 60, 0
1, 11328, Note_on_c, 0, 76, 0
1, 11328, Note_on_c, 0, 77, 75
1, 11328, Note_on_c, 1, 53, 75
1, 11351, Note_on_c, 0, 77, 0
1, 11352, Note_on_c, 0, 69, 75
1, 11375, Note_on_c, 0, 69, 0
1, 11376, Note_on_c, 0, 70, 75
1, 11376, Note_on_c, 1, 60, 75
1, 11388, Note_on_c, 0, 70, 0
1, 11388, Note_on_c, 0, 69, 75
1, 11400, Note_on_c, 0, 69, 0
1, 11400, Note_on_c, 0, 67, 75
1, 11412, Note_on_c, 0, 67, 0
1, 11412, Note_on_c, 0, 65, 75
1, 11417, Note_on_c, 1, 53, 0
1, 11424, Note_on_c, 0, 65, 0
1, 11424, Note_on_c, 0, 64, 75
1, 11424, Note_on_c, 1, 55, 75
1, 11434, Note_on_c, 0, 64, 0
1, 11448, Note_on_c, 0, 64, 75
1, 11458, Note_on_c, 0, 64, 0
1, 11465, Note_on_c, 1, 60, 0
1, 11472, Note_on_c, 0, 65, 75
1, 11472, Note_on_c, 1, 60, 75
1, 11484, Note_on_c, 0, 65, 0
1, 11484, Note_on_c, 0, 64, 75
1, 11496, Note_on_c, 0, 64, 0
1, 11496, Note_on_c, 0, 62, 75
1, 11508, Note_on_c, 0, 62, 0
1, 11508, Note_on_c, 0, 60, 75
1, 11513, Note_on_c, 1, 55, 0
1, 11520, Note_on_c, 0, 60, 0
1, 11520, Note_on_c, 0, 65, 75
1, 11520, Note_on_c, 1, 57, 75
1, 11530, Note_on_c, 0, 65, 0
1, 11544, Note_on_c, 0, 65, 75
1, 11554, Note_on_c, 0, 65, 0
1, 11565, Note_on_c, 1, 60, 0
1, 11568, Note_on_c, 1, 60, 75
1, 11592, Note_on_c, 0, 69, 75
1, 11609, Note_on_c, 1, 57, 0
1, 11615, Note_on_c, 0, 69, 0
1, 11616, Note_on_c, 0, 66, 75
1, 11616, Note_on_c, 1, 52, 75
1, 11640, Note_on_c, 0, 66, 0
1, 11640, Note_on_c, 0, 67, 75
1, 11657, Note_on_c, 1, 60, 0
1, 11663, Note_on_c, 0, 67, 0
1, 11664, Note_on_c, 1, 60, 75
1, 11688, Note_on_c, 0, 70, 75
1, 11705, Note_on_c, 1, 52, 0
1, 11711, Note_on_c, 0, 70, 0
1, 11712, Note_on_c, 0, 68, 75
1, 11712, Note_on_c, 1, 53, 75
1, 11727, Note_on_c, 0, 68, 0
1, 11728, Note_on_c, 0, 69, 75
1, 11743, Note_on_c, 0, 69, 0
1, 11744, Note_on_c, 0, 70, 75
1, 11757, Note_on_c, 1, 60, 0
1, 11759, Note_on_c, 0, 70, 0
1, 11760, Note_on_c, 0, 71, 75
1, 11760, Note_on_c, 1, 60, 75
1, 11775, Note_on_c, 0, 71, 0
1, 11776, Note_on_c, 0, 72, 75
1, 11791, Note_on_c, 0, 72, 0
1, 11792, Note_on_c, 0, 74, 75
1, 11801, Note_on_c, 1, 53, 0
1, 11807, Note_on_c, 0, 74, 0
1, 11808, Note_on_c, 0, 72, 75
1, 11808, Note_on_c, 1, 55, 75
1, 11823, Note_on_c, 0, 72, 0
1, 11824, Note_on_c, 0, 70, 75
1, 11839, Note_on_c, 0, 70, 0
1, 11840, Note_on_c, 0, 69, 75
1, 11849, Note_on_c, 1, 60, 0
1, 11855, Note_on_c, 0, 69, 0
1, 11856, Note_on_c, 0, 67, 75
1, 11856, Note_on_c, 1, 60, 75
1, 11871, Note_on_c, 0, 67, 0
1, 11872, Note_on_c, 0, 65, 75
1, 11887, Note_on_c, 0, 65, 0
1, 11888, Note_on_c, 0, 64, 75
1, 11897, Note_on_c, 1, 55, 0
1, 11903, Note_on_c, 0, 64, 0
1, 11904, Note_on_c, 0, 67, 75
1, 11904, Note_on_c, 1, 57, 75
1, 11928, Note_on_c, 0, 67, 0
1, 11928, Note_on_c, 0, 65, 75
1, 11949, Note_on_c, 1, 60, 0
1, 11951, Note_on_c, 0, 65, 0
1, 11952, Note_on_c, 1, 60, 75
1, 11976, Note_on_c, 0, 69, 75
1, 11986, Note_on_c, 0, 69, 0
1, 11993, Note_on_c, 1, 57, 0
1, 12000, Note_on_c, 0, 69, 75
1, 12000, Note_on_c, 1, 52, 75
1, 12024, Note_on_c, 0, 69, 0
1, 12024, Note_on_c, 0, 67, 75
1, 12041, Note_on_c, 1, 60, 0
1, 12047, Note_on_c, 0, 67, 0
1, 12048, Note_on_c, 1, 60, 75
1, 12072, Note_on_c, 0, 70, 75
1, 12089, Note_on_c, 1, 52, 0
1, 12095, Note_on_c, 0, 70, 0
1, 12096, Note_on_c, 0, 69, 75
1, 12096, Note_on_c, 1, 53, 75
1, 12106, Note_on_c, 0, 69, 0
1, 12120, Note_on_c, 0, 69, 75
1, 12130, Note_on_c, 0, 69, 0
1, 12141, Note_on_c, 1, 60, 0
1, 12144, Note_on_c, 0, 70, 75
1, 12144, Note_on_c, 1, 60, 75
1, 12156, Note_on_c, 0, 70, 0
1, 12156, Note_on_c, 0, 69, 75
1, 12168, Note_on_c, 0, 69, 0
1, 12168, Note_on_c, 0, 67, 75
1, 12180, Note_on_c, 0, 67, 0
1, 12180, Note_on_c, 0, 65, 75
1, 12185, Note_on_c, 1, 53, 0
1, 12192, Note_on_c, 0, 65, 0
1, 12192, Note_on_c, 0, 64, 75
1, 12192, Note_on_c, 1, 55, 75
1, 12202, Note_on_c, 0, 64, 0
1, 12216, Note_on_c, 0, 64, 75
1, 12226, Note_on_c, 0, 64, 0
1, 12233, Note_on_c, 1, 60, 0
1, 12240, Note_on_c, 0, 65, 75
1, 12240, Note_on_c, 1, 60, 75
1, 12252, Note_on_c, 0, 65, 0
1, 12252, Note_on_c, 0, 64, 75
1, 12264, Note_on_c, 0, 64, 0
1, 12264, Note_on_c, 0, 62, 75
1, 12276, Note_on_c, 0, 62, 0
1, 12276, Note_on_c, 0, 60, 75
1, 12281, Note_on_c, 1, 55, 0
1, 12288, Note_on_c, 0, 60, 0
1, 12288, Note_on_c, 0, 65, 75
1, 12288, Note_on_c, 1, 57, 75
1, 12298, Note_on_c, 0, 65, 0
1, 12312, Note_on_c, 0, 65, 75
1, 12333, Note_on_c, 1, 60, 0
1, 12336, Note_on_c, 1, 60, 75
1, 12357, Note_on_c, 0, 65, 0
1, 12360, Note_on_c, 0, 66, 75
1, 12377, Note_on_c, 1, 57, 0
1, 12384, Note_on_c, 1, 52, 75
1, 12405, Note_on_c, 0, 66, 0
1, 12408, Note_on_c, 0, 67, 75
1, 12425, Note_on_c, 1, 60, 0
1, 12432, Note_on_c, 1, 60, 75
1, 12453, Note_on_c, 0, 67, 0
1, 12456, Note_on_c, 0, 68, 75
1, 12473, Note_on_c, 1, 52, 0
1, 12480, Note_on_c, 1, 53, 75
1, 12503, Note_on_c, 0, 68, 0
1, 12504, Note_on_c, 0, 69, 75
1, 12525, Note_on_c, 1, 60, 0
1, 12528, Note_on_c, 1, 65, 75
1, 12549, Note_on_c, 0, 69, 0
1, 12552, Note_on_c, 0, 70, 75
1, 12569, Note_on_c, 1, 53, 0
1, 12576, Note_on_c, 1, 55, 76
1, 12597, Note_on_c, 0, 70, 0
1, 12600, Note_on_c, 0, 71, 76
1, 12621, Note_on_c, 1, 55, 0
1, 12624, Note_on_c, 1, 56, 76
1, 12645, Note_on_c, 0, 71, 0
1, 12648, Note_on_c, 0, 72, 77
1, 12669, Note_on_c, 1, 56, 0
1, 12672, Note_on_c, 1, 57, 77
1, 12695, Note_on_c, 0, 72, 0
1, 12696, Note_on_c, 0, 73, 77
1, 12717, Note_on_c, 1, 57, 0
1, 12720, Note_on_c, 1, 58, 77
1, 12741, Note_on_c, 0, 73, 0
1, 12744, Note_on_c, 0, 74, 78
1, 12765, Note_on_c, 1, 58, 0
1, 12768, Note_on_c, 1, 60, 78
1, 12789, Note_on_c, 0, 74, 0
1, 12792, Note_on_c, 0, 75, 78
1, 12813, Note_on_c, 1, 60, 0
1, 12816, Note_on_c, 1, 57, 78
1, 12837, Note_on_c, 0, 75, 0
1, 12840, Note_on_c, 0, 73, 79
1, 12861, Note_on_c, 1, 57, 0
1, 12864, Note_on_c, 1, 58, 79
1, 12887, Note_on_c, 0, 73, 0
1, 12888, Note_on_c, 0, 74, 80
1, 12911, Note_on_c, 0, 74, 0
1, 12912, Note_on_c, 0, 69, 80
1, 12935, Note_on_c, 0, 69, 0
1, 12936, Note_on_c, 0, 70, 79
1, 12953, Note_on_c, 1, 65, 0
1, 12953, Note_on_c, 1, 58, 0
1, 12959, Note_on_c, 0, 70, 0
1, 12960, Note_on_c, 0, 66, 78
1, 12983, Note_on_c, 0, 66, 0
1, 12984, Note_on_c, 0, 67, 77
1, 13007, Note_on_c, 0, 67, 0
1, 13008, Note_on_c, 0, 70, 76
1, 13031, Note_on_c, 0, 70, 0
1, 13032, Note_on_c, 0, 74, 75
1, 13055, Note_on_c, 0, 74, 0
1, 13056, Note_on_c, 0, 65, 75
1, 13080, Note_on_c, 1, 48, 75
1, 13092, Note_on_c, 1, 48, 0
1, 13092, Note_on_c, 1, 55, 75
1, 13104, Note_on_c, 0, 65, 0
1, 13104, Note_on_c, 0, 64, 75
1, 13104, Note_on_c, 1, 55, 0
1, 13104, Note_on_c, 1, 60, 75
1, 13127, Note_on_c, 1, 60, 0
1, 13128, Note_on_c, 1, 55, 75
1, 13145, Note_on_c, 0, 64, 0
1, 13151, Note_on_c, 1, 55, 0
1, 13152, Note_on_c, 0, 65, 75
1, 13152, Note_on_c, 1, 58, 75
1, 13175, Note_on_c, 1, 58, 0
1, 13176, Note_on_c, 1, 57, 75
1, 13197, Note_on_c, 0, 65, 0
1, 13199, Note_on_c, 1, 57, 0
1, 13200, Note_on_c, 1, 55, 75
1, 13223, Note_on_c, 1, 55, 0
1, 13224, Note_on_c, 1, 53, 75
1, 13247, Note_on_c, 1, 53, 0
1, 13248, Note_on_c, 1, 53, 75
1, 13272, Note_on_c, 0, 60, 75
1, 13284, Note_on_c, 0, 60, 0
1, 13284, Note_on_c, 0, 67, 75
1, 13296, Note_on_c, 0, 67, 0
1, 13296, Note_on_c, 0, 72, 75
1, 13296, Note_on_c, 1, 53, 0
1, 13296, Note_on_c, 1, 52, 75
1, 13319, Note_on_c, 0, 72, 0
1, 13320, Note_on_c, 0, 67, 75
1, 13337, Note_on_c, 1, 52, 0
1, 13343, Note_on_c, 0, 67, 0
1, 13344, Note_on_c, 0, 70, 75
1, 13344, Note_on_c, 1, 53, 75
1, 13367, Note_on_c, 0, 70, 0
1, 13368, Note_on_c, 0, 69, 75
1, 13389, Note_on_c, 1, 53, 0
1, 13391, Note_on_c, 0, 69, 0
1, 13392, Note_on_c, 0, 67, 75
1, 13415, Note_on_c, 0, 67, 0
1, 13416, Note_on_c, 0, 65, 75
1, 13439, Note_on_c, 0, 65, 0
1, 13440, Note_on_c, 0, 65, 75
1, 13464, Note_on_c, 1, 48, 75
1, 13476, Note_on_c, 1, 48, 0
1, 13476, Note_on_c, 1, 55, 75
1, 13488, Note_on_c, 0, 65, 0
1, 13488, Note_on_c, 0, 64, 75
1, 13488, Note_on_c, 1, 55, 0
1, 13488, Note_on_c, 1, 60, 75
1, 13511, Note_on_c, 1, 60, 0
1, 13512, Note_on_c, 1, 55, 75
1, 13529, Note_on_c, 0, 64, 0
1, 13535, Note_on_c, 1, 55, 0
1, 13536, Note_on_c, 0, 65, 75
1, 13536, Note_on_c, 1, 58, 75
1, 13559, Note_on_c, 1, 58, 0
1, 13560, Note_on_c, 1, 57, 75
1, 13581, Note_on_c, 0, 65, 0
1, 13583, Note_on_c, 1, 57, 0
1, 13584, Note_on_c, 1, 55, 75
1, 13590, Note_on_c, 1, 55, 0
1, 13590, Note_on_c, 1, 57, 75
1, 13596, Note_on_c, 1, 57, 0
1, 13596, Note_on_c, 1, 55, 75
1, 13607, Note_on_c, 1, 55, 0
1, 13608, Note_on_c, 1, 53, 75
1, 13631, Note_on_c, 1, 53, 0
1, 13632, Note_on_c, 1, 53, 75
1, 13656, Note_on_c, 0, 60, 75
1, 13668, Note_on_c, 0, 60, 0
1, 13668, Note_on_c, 0, 67, 75
1, 13680, Note_on_c, 0, 67, 0
1, 13680, Note_on_c, 0, 72, 75
1, 13680, Note_on_c, 1, 53, 0
1, 13680, Note_on_c, 1, 52, 75
1, 13703, Note_on_c, 0, 72, 0
1, 13704, Note_on_c, 0, 67, 75
1, 13721, Note_on_c, 1, 52, 0
1, 13727, Note_on_c, 0, 67, 0
1, 13728, Note_on_c, 0, 70, 75
1, 13728, Note_on_c, 1, 53, 75
1, 13751, Note_on_c, 0, 70, 0
1, 13752, Note_on_c, 0, 69, 75
1, 13773, Note_on_c, 1, 53, 0
1, 13775, Note_on_c, 0, 69, 0
1, 13776, Note_on_c, 0, 67, 75
1, 13782, Note_on_c, 0, 67, 0
1, 13782, Note_on_c, 0, 69, 75
1, 13788, Note_on_c, 0, 69, 0
1, 13788, Note_on_c, 0, 67, 75
1, 13799, Note_on_c, 0, 67, 0
1, 13800, Note_on_c, 0, 65, 75
1, 13823, Note_on_c, 0, 65, 0
1, 13824, Note_on_c, 1, 46, 75
1, 13836, Note_on_c, 0, 67, 75
1, 13848, Note_on_c, 0, 67, 0
1, 13848, Note_on_c, 0, 70, 75
1, 13860, Note_on_c, 0, 70, 0
1, 13860, Note_on_c, 0, 74, 75
1, 13869, Note_on_c, 1, 46, 0
1, 13872, Note_on_c, 0, 74, 0
1, 13872, Note_on_c, 0, 79, 75
1, 13884, Note_on_c, 0, 79, 0
1, 13884, Note_on_c, 0, 67, 75
1, 13896, Note_on_c, 0, 67, 0
1, 13896, Note_on_c, 0, 70, 75
1, 13908, Note_on_c, 0, 70, 0
1, 13908, Note_on_c, 0, 74, 75
1, 13920, Note_on_c, 0, 74, 0
1, 13920, Note_on_c, 0, 79, 75
1, 13932, Note_on_c, 0, 79, 0
1, 13932, Note_on_c, 0, 82, 75
1, 13944, Note_on_c, 0, 82, 0
1, 13944, Note_on_c, 0, 86, 75
1, 13956, Note_on_c, 0, 86, 0
1, 13956, Note_on_c, 0, 84, 75
1, 13968, Note_on_c, 0, 84, 0
1, 13968, Note_on_c, 0, 82, 75
1, 13980, Note_on_c, 0, 82, 0
1, 13980, Note_on_c, 0, 81, 75
1, 13992, Note_on_c, 0, 81, 0
1, 13992, Note_on_c, 0, 79, 75
1, 14004, Note_on_c, 0, 79, 0
1, 14004, Note_on_c, 0, 77, 75
1, 14016, Note_on_c, 0, 77, 0
1, 14016, Note_on_c, 0, 76, 75
1, 14016, Note_on_c, 1, 58, 75
1, 14028, Note_on_c, 0, 76, 0
1, 14028, Note_on_c, 0, 79, 75
1, 14040, Note_on_c, 0, 79, 0
1, 14040, Note_on_c, 0, 84, 75
1, 14052, Note_on_c, 0, 84, 0
1, 14052, Note_on_c, 0, 82, 75
1, 14061, Note_on_c, 1, 58, 0
1, 14064, Note_on_c, 0, 82, 0
1, 14064, Note_on_c, 0, 81, 75
1, 14076, Note_on_c, 0, 81, 0
1, 14076, Note_on_c, 0, 79, 75
1, 14088, Note_on_c, 0, 79, 0
1, 14088, Note_on_c, 0, 77, 75
1, 14100, Note_on_c, 0, 77, 0
1, 14100, Note_on_c, 0, 76, 75
1, 14112, Note_on_c, 0, 76, 0
1, 14112, Note_on_c, 0, 77, 75
1, 14112, Note_on_c, 1, 57, 75
1, 14124, Note_on_c, 0, 77, 0
1, 14124, Note_on_c, 0, 79, 75
1, 14136, Note_on_c, 0, 79, 0
1, 14136, Note_on_c, 0, 81, 75
1, 14148, Note_on_c, 0, 81, 0
1, 14148, Note_on_c, 0, 79, 75
1, 14157, Note_on_c, 1, 57, 0
1, 14160, Note_on_c, 0, 79, 0
1, 14160, Note_on_c, 0, 77, 75
1, 14172, Note_on_c, 0, 77, 0
1, 14172, Note_on_c, 0, 76, 75
1, 14184, Note_on_c, 0, 76, 0
1, 14184, Note_on_c, 0, 74, 75
1, 14196, Note_on_c, 0, 74, 0
1, 14196, Note_on_c, 0, 73, 75
1, 14208, Note_on_c, 0, 73, 0
1, 14208, Note_on_c, 0, 74, 75
1, 14208, Note_on_c, 1, 58, 75
1, 14220, Note_on_c, 0, 74, 0
1, 14220, Note_on_c, 0, 76, 75
1, 14232, Note_on_c, 0, 76, 0
1, 14232, Note_on_c, 0, 77, 75
1, 14244, Note_on_c, 0, 77, 0
1, 14244, Note_on_c, 0, 69, 75
1, 14253, Note_on_c, 1, 58, 0
1, 14256, Note_on_c, 0, 69, 0
1, 14256, Note_on_c, 0, 70, 75
1, 14268, Note_on_c, 0, 70, 0
1, 14268, Note_on_c, 0, 72, 75
1, 14280, Note_on_c, 0, 72, 0
1, 14280, Note_on_c, 0, 74, 75
1, 14292, Note_on_c, 0, 74, 0
1, 14292, Note_on_c, 0, 65, 75
1, 14292, Note_on_c, 1, 59, 75
1, 14292, Note_on_c, 1, 47, 75
1, 14304, Note_on_c, 0, 65, 0
1, 14304, Note_on_c, 1, 59, 0
1, 14304, Note_on_c, 1, 47, 0
1, 14304, Note_on_c, 1, 60, 75
1, 14304, Note_on_c, 1, 48, 75
1, 14349, Note_on_c, 1, 60, 0
1, 14349, Note_on_c, 1, 48, 0
1, 14352, Note_on_c, 0, 79, 75
1, 14352, Note_on_c, 1, 48, 75
1, 14352, Note_on_c, 1, 36, 75
1, 14359, Note_on_c, 0, 79, 0
1, 14359, Note_on_c, 0, 81, 75
1, 14366, Note_on_c, 0, 81, 0
1, 14366, Note_on_c, 0, 79, 75
1, 14373, Note_on_c, 0, 79, 0
1, 14373, Note_on_c, 0, 81, 75
1, 14380, Note_on_c, 0, 81, 0
1, 14380, Note_on_c, 0, 79, 75
1, 14387, Note_on_c, 0, 79, 0
1, 14387, Note_on_c, 0, 77, 75
1, 14394, Note_on_c, 0, 77, 0
1, 14394, Note_on_c, 0, 79, 75
1, 14397, Note_on_c, 1, 48, 0
1, 14397, Note_on_c, 1, 36, 0
1, 14400, Note_on_c, 0, 79, 0
1, 14400, Note_on_c, 0, 77, 75
1, 14400, Note_on_c, 1, 50, 75
1, 14400, Note_on_c, 1, 38, 75
1, 14435, Note_on_c, 0, 77, 0
1, 14436, Note_on_c, 0, 77, 75
1, 14448, Note_on_c, 0, 77, 0
1, 14448, Note_on_c, 0, 79, 75
1, 14460, Note_on_c, 0, 79, 0
1, 14460, Note_on_c, 0, 77, 75
1, 14472, Note_on_c, 0, 77, 0
1, 14472, Note_on_c, 0, 76, 75
1, 14484, Note_on_c, 0, 76, 0
1, 14484, Note_on_c, 0, 74, 75
1, 14489, Note_on_c, 1, 50, 0
1, 14489, Note_on_c, 1, 38, 0
1, 14496, Note_on_c, 0, 74, 0
1, 14496, Note_on_c, 0, 76, 75
1, 14508, Note_on_c, 0, 76, 0
1, 14508, Note_on_c, 0, 74, 75
1, 14520, Note_on_c, 0, 74, 0
1, 14520, Note_on_c, 0, 72, 75
1, 14532, Note_on_c, 0, 72, 0
1, 14532, Note_on_c, 0, 71, 75
1, 14544, Note_on_c, 0, 71, 0
1, 14544, Note_on_c, 0, 76, 75
1, 14544, Note_on_c, 1, 65, 75
1, 14544, Note_on_c, 1, 62, 75
1, 14556, Note_on_c, 0, 76, 0
1, 14556, Note_on_c, 0, 74, 75
1, 14568, Note_on_c, 0, 74, 0
1, 14568, Note_on_c, 0, 72, 75
1, 14580, Note_on_c, 0, 72, 0
1, 14580, Note_on_c, 0, 71, 75
1, 14589, Note_on_c, 1, 65, 0
1, 14589, Note_on_c, 1, 62, 0
1, 14592, Note_on_c, 0, 71, 0
1, 14592, Note_on_c, 0, 72, 75
1, 14592, Note_on_c, 1, 67, 75
1, 14592, Note_on_c, 1, 64, 75
1, 14626, Note_on_c, 0, 72, 0
1, 14628, Note_on_c, 0, 79, 75
1, 14637, Note_on_c, 1, 67, 0
1, 14637, Note_on_c, 1, 64, 0
1, 14640, Note_on_c, 0, 79, 0
1, 14640, Note_on_c, 0, 81, 75
1, 14652, Note_on_c, 0, 81, 0
1, 14652, Note_on_c, 0, 79, 75
1, 14664, Note_on_c, 0, 79, 0
1, 14664, Note_on_c, 0, 77, 75
1, 14676, Note_on_c, 0, 77, 0
1, 14676, Note_on_c, 0, 76, 75
1, 14688, Note_on_c, 0, 76, 0
1, 14688, Note_on_c, 0, 82, 75
1, 14700, Note_on_c, 0, 82, 0
1, 14700, Note_on_c, 0, 81, 75
1, 14712, Note_on_c, 0, 81, 0
1, 14712, Note_on_c, 0, 79, 75
1, 14724, Note_on_c, 0, 79, 0
1, 14724, Note_on_c, 0, 77, 75
1, 14736, Note_on_c, 0, 77, 0
1, 14736, Note_on_c, 0, 76, 75
1, 14736, Note_on_c, 1, 60, 75
1, 14748, Note_on_c, 0, 76, 0
1, 14748, Note_on_c, 0, 74, 75
1, 14760, Note_on_c, 0, 74, 0
1, 14760, Note_on_c, 0, 72, 75
1, 14772, Note_on_c, 0, 72, 0
1, 14772, Note_on_c, 0, 70, 75
1, 14781, Note_on_c, 1, 60, 0
1, 14784, Note_on_c, 0, 70, 0
1, 14784, Note_on_c, 0, 69, 75
1, 14784, Note_on_c, 1, 65, 75
1, 14796, Note_on_c, 0, 69, 0
1, 14796, Note_on_c, 0, 72, 75
1, 14808, Note_on_c, 0, 72, 0
1, 14808, Note_on_c, 0, 76, 75
1, 14820, Note_on_c, 0, 76, 0
1, 14820, Note_on_c, 0, 77, 75
1, 14829, Note_on_c, 1, 65, 0
1, 14832, Note_on_c, 0, 77, 0
1, 14832, Note_on_c, 0, 76, 75
1, 14832, Note_on_c, 1, 58, 75
1, 14844, Note_on_c, 0, 76, 0
1, 14844, Note_on_c, 0, 74, 75
1, 14856, Note_on_c, 0, 74, 0
1, 14856, Note_on_c, 0, 72, 75
1, 14868, Note_on_c, 0, 72, 0
1, 14868, Note_on_c, 0, 70, 75
1, 14877, Note_on_c, 1, 58, 0
1, 14880, Note_on_c, 0, 70, 0
1, 14880, Note_on_c, 0, 69, 75
1, 14880, Note_on_c, 1, 60, 75
1, 14925, Note_on_c, 0, 69, 0
1, 14925, Note_on_c, 1, 60, 0
1, 14928, Note_on_c, 0, 67, 75
1, 14928, Note_on_c, 1, 48, 75
1, 14935, Note_on_c, 0, 67, 0
1, 14935, Note_on_c, 0, 69, 75
1, 14942, Note_on_c, 0, 69, 0
1, 14942, Note_on_c, 0, 67, 75
1, 14949, Note_on_c, 0, 67, 0
1, 14949, Note_on_c, 0, 69, 75
1, 14956, Note_on_c, 0, 69, 0
1, 14956, Note_on_c, 0, 67, 75
1, 14963, Note_on_c, 0, 67, 0
1, 14963, Note_on_c, 0, 65, 75
1, 14970, Note_on_c, 0, 65, 0
1, 14970, Note_on_c, 0, 67, 75
1, 14973, Note_on_c, 1, 48, 0
1, 14976, Note_on_c, 0, 67, 0
1, 14976, Note_on_c, 0, 65, 75
1, 14976, Note_on_c, 1, 53, 75
1, 15021, Note_on_c, 1, 53, 0
1, 15024, Note_on_c, 1, 48, 75
1, 15058, Note_on_c, 1, 48, 0
1, 15060, Note_on_c, 1, 45, 75
1, 15065, Note_on_c, 0, 65, 0
1, 15072, Note_on_c, 1, 45, 0
1, 15072, Note_on_c, 1, 41, 75
1, 15117, Note_on_c, 1, 41, 0
1, 15144, Note_on_c, 0, 65, 75
1, 15167, Note_on_c, 0, 65, 0
1, 15168, Note_on_c, 0, 67, 75
1, 15168, Note_on_c, 1, 57, 75
1, 15168, Note_on_c, 1, 53, 75
1, 15174, Note_on_c, 0, 67, 0
1, 15174, Note_on_c, 0, 65, 75
1, 15180, Note_on_c, 0, 65, 0
1, 15180, Note_on_c, 0, 63, 75
1, 15186, Note_on_c, 0, 63, 0
1, 15186, Note_on_c, 0, 65, 75
1, 15202, Note_on_c, 0, 65, 0
1, 15204, Note_on_c, 0, 69, 75
1, 15216, Note_on_c, 0, 69, 0
1, 15216, Note_on_c, 0, 70, 75
1, 15222, Note_on_c, 0, 70, 0
1, 15222, Note_on_c, 0, 69, 75
1, 15228, Note_on_c, 0, 69, 0
1, 15228, Note_on_c, 0, 67, 75
1, 15234, Note_on_c, 0, 67, 0
1, 15234, Note_on_c, 0, 69, 75
1, 15250, Note_on_c, 0, 69, 0
1, 15252, Note_on_c, 0, 72, 75
1, 15257, Note_on_c, 1, 57, 0
1, 15257, Note_on_c, 1, 53, 0
1, 15264, Note_on_c, 0, 72, 0
1, 15264, Note_on_c, 0, 74, 75
1, 15270, Note_on_c, 0, 74, 0
1, 15270, Note_on_c, 0, 72, 75
1, 15276, Note_on_c, 0, 72, 0
1, 15276, Note_on_c, 0, 71, 75
1, 15282, Note_on_c, 0, 71, 0
1, 15282, Note_on_c, 0, 72, 75
1, 15298, Note_on_c, 0, 72, 0
1, 15300, Note_on_c, 0, 77, 75
1, 15312, Note_on_c, 0, 77, 0
1, 15312, Note_on_c, 0, 76, 75
1, 15312, Note_on_c, 1, 69, 75
1, 15312, Note_on_c, 1, 65, 75
1, 15346, Note_on_c, 0, 76, 0
1, 15348, Note_on_c, 0, 74, 75
1, 15357, Note_on_c, 1, 69, 0
1, 15357, Note_on_c, 1, 65, 0
1, 15360, Note_on_c, 0, 74, 0
1, 15360, Note_on_c, 0, 74, 75
1, 15360, Note_on_c, 1, 67, 75
1, 15360, Note_on_c, 1, 64, 75
1, 15383, Note_on_c, 0, 74, 0
1, 15384, Note_on_c, 0, 72, 75
1, 15407, Note_on_c, 0, 72, 0
1, 15408, Note_on_c, 0, 72, 75
1, 15449, Note_on_c, 1, 67, 0
1, 15449, Note_on_c, 1, 64, 0
1, 15456, Note_on_c, 1, 64, 75
1, 15456, Note_on_c, 1, 60, 75
1, 15490, Note_on_c, 0, 72, 0
1, 15492, Note_on_c, 0, 74, 75
1, 15501, Note_on_c, 1, 64, 0
1, 15501, Note_on_c, 1, 60, 0
1, 15504, Note_on_c, 0, 74, 0
1, 15504, Note_on_c, 0, 70, 75
1, 15538, Note_on_c, 0, 70, 0
1, 15540, Note_on_c, 0, 72, 75
1, 15552, Note_on_c, 0, 72, 0
1, 15552, Note_on_c, 0, 69, 75
1, 15552, Note_on_c, 1, 65, 75
1, 15552, Note_on_c, 1, 53, 75
1, 15586, Note_on_c, 0, 69, 0
1, 15588, Note_on_c, 0, 70, 75
1, 15597, Note_on_c, 1, 65, 0
1, 15597, Note_on_c, 1, 53, 0
1, 15600, Note_on_c, 0, 70, 0
1, 15600, Note_on_c, 0, 67, 75
1, 15600, Note_on_c, 1, 62, 75
1, 15600, Note_on_c, 1, 58, 75
1, 15634, Note_on_c, 0, 67, 0
1, 15636, Note_on_c, 0, 69, 75
1, 15645, Note_on_c, 1, 62, 0
1, 15645, Note_on_c, 1, 58, 0
1, 15648, Note_on_c, 0, 69, 0
1, 15648, Note_on_c, 0, 65, 75
1, 15648, Note_on_c, 1, 60, 75
1, 15648, Note_on_c, 1, 57, 75
1, 15682, Note_on_c, 0, 65, 0
1, 15684, Note_on_c, 0, 67, 75
1, 15693, Note_on_c, 1, 60, 0
1, 15693, Note_on_c, 1, 57, 0
1, 15696, Note_on_c, 0, 67, 0
1, 15696, Note_on_c, 0, 64, 75
1, 15696, Note_on_c, 1, 58, 75
1, 15696, Note_on_c, 1, 48, 75
1, 15730, Note_on_c, 0, 64, 0
1, 15732, Note_on_c, 0, 67, 75
1, 15741, Note_on_c, 1, 58, 0
1, 15741, Note_on_c, 1, 48, 0
1, 15744, Note_on_c, 0, 67, 0
1, 15744, Note_on_c, 0, 67, 75
1, 15744, Note_on_c, 1, 57, 75
1, 15744, Note_on_c, 1, 53, 75
1, 15756, Note_on_c, 0, 67, 0
1, 15756, Note_on_c, 0, 65, 75
1, 15768, Note_on_c, 0, 65, 0
1, 15768, Note_on_c, 0, 64, 75
1, 15780, Note_on_c, 0, 64, 0
1, 15780, Note_on_c, 0, 65, 75
1, 15789, Note_on_c, 1, 57, 0
1, 15789, Note_on_c, 1, 53, 0
1, 15792, Note_on_c, 0, 65, 0
1, 15792, Note_on_c, 0, 60, 75
1, 15828, Note_on_c, 1, 53, 75
1, 15837, Note_on_c, 0, 60, 0
1, 15840, Note_on_c, 1, 53, 0
1, 15840, Note_on_c, 1, 53, 75
1, 15852, Note_on_c, 1, 53, 0
1, 15852, Note_on_c, 1, 52, 75
1, 15864, Note_on_c, 1, 52, 0
1, 15864, Note_on_c, 1, 50, 75
1, 15876, Note_on_c, 1, 50, 0
1, 15876, Note_on_c, 1, 48, 75
1, 15888, Note_on_c, 1, 48, 0
1, 15888, Note_on_c, 1, 48, 75
1, 15900, Note_on_c, 1, 48, 0
1, 15900, Note_on_c, 1, 46, 75
1, 15912, Note_on_c, 0, 65, 75
1, 15912, Note_on_c, 1, 46, 0
1, 15912, Note_on_c, 1, 45, 75
1, 15924, Note_on_c, 1, 45, 0
1, 15924, Note_on_c, 1, 43, 75
1, 15935, Note_on_c, 0, 65, 0
1, 15936, Note_on_c, 0, 67, 75
1, 15936, Note_on_c, 1, 43, 0
1, 15936, Note_on_c, 1, 41, 75
1, 15942, Note_on_c, 0, 67, 0
1, 15942, Note_on_c, 0, 65, 75
1, 15948, Note_on_c, 0, 65, 0
1, 15948, Note_on_c, 0, 63, 75
1, 15954, Note_on_c, 0, 63, 0
1, 15954, Note_on_c, 0, 65, 75
1, 15970, Note_on_c, 0, 65, 0
1, 15972, Note_on_c, 0, 69, 75
1, 15984, Note_on_c, 0, 69, 0
1, 15984, Note_on_c, 0, 70, 75
1, 15990, Note_on_c, 0, 70, 0
1, 15990, Note_on_c, 0, 69, 75
1, 15996, Note_on_c, 0, 69, 0
1, 15996, Note_on_c, 0, 67, 75
1, 16002, Note_on_c, 0, 67, 0
1, 16002, Note_on_c, 0, 69, 75
1, 16018, Note_on_c, 0, 69, 0
1, 16020, Note_on_c, 0, 72, 75
1, 16025, Note_on_c, 1, 41, 0
1, 16032, Note_on_c, 0, 72, 0
1, 16032, Note_on_c, 0, 74, 75
1, 16038, Note_on_c, 0, 74, 0
1, 16038, Note_on_c, 0, 72, 75
1, 16044, Note_on_c, 0, 72, 0
1, 16044, Note_on_c, 0, 71, 75
1, 16050, Note_on_c, 0, 71, 0
1, 16050, Note_on_c, 0, 72, 75
1, 16066, Note_on_c, 0, 72, 0
1, 16068, Note_on_c, 0, 77, 75
1, 16080, Note_on_c, 0, 77, 0
1, 16080, Note_on_c, 0, 79, 75
1, 16086, Note_on_c, 0, 79, 0
1, 16086, Note_on_c, 0, 77, 75
1, 16092, Note_on_c, 0, 77, 0
1, 16092, Note_on_c, 0, 75, 75
1, 16098, Note_on_c, 0, 75, 0
1, 16098, Note_on_c, 0, 77, 75
1, 16114, Note_on_c, 0, 77, 0
1, 16116, Note_on_c, 0, 80, 75
1, 16128, Note_on_c, 0, 80, 0
1, 16128, Note_on_c, 0, 80, 64
1, 16152, Note_on_c, 0, 80, 0
1, 16152, Note_on_c, 0, 71, 64
1, 16175, Note_on_c, 0, 71, 0
1, 16176, Note_on_c, 1, 65, 64
1, 16200, Note_on_c, 0, 71, 64
1, 16210, Note_on_c, 0, 71, 0
1, 16221, Note_on_c, 1, 65, 0
1, 16224, Note_on_c, 0, 74, 64
1, 16248, Note_on_c, 0, 74, 0
1, 16248, Note_on_c, 0, 72, 64
1, 16271, Note_on_c, 0, 72, 0
1, 16272, Note_on_c, 1, 63, 64
1, 16296, Note_on_c, 0, 72, 64
1, 16306, Note_on_c, 0, 72, 0
1, 16317, Note_on_c, 1, 63, 0
1, 16320, Note_on_c, 0, 82, 64
1, 16344, Note_on_c, 0, 82, 0
1, 16344, Note_on_c, 0, 73, 64
1, 16367, Note_on_c, 0, 73, 0
1, 16368, Note_on_c, 1, 67, 64
1, 16392, Note_on_c, 0, 73, 64
1, 16402, Note_on_c, 0, 73, 0
1, 16413, Note_on_c, 1, 67, 0
1, 16416, Note_on_c, 0, 76, 64
1, 16440, Note_on_c, 0, 76, 0
1, 16440, Note_on_c, 0, 74, 64
1, 16463, Note_on_c, 0, 74, 0
1, 16464, Note_on_c, 1, 66, 64
1, 16509, Note_on_c, 1, 66, 0
1, 16512, Tempo, 1200000
1, 16608, Tempo, 923076
1, 16680, Note_on_c, 0, 86, 64
1, 16690, Note_on_c, 0, 86, 0
1, 16704, Note_on_c, 0, 86, 64
1, 16727, Note_on_c, 0, 86, 0
1, 16728, Note_on_c, 0, 84, 64
1, 16752, Note_on_c, 1, 67, 80
1, 16773, Note_on_c, 0, 84, 0
1, 16776, Note_on_c, 0, 75, 64
1, 16797, Note_on_c, 1, 67, 0
1, 16800, Note_on_c, 1, 66, 80
1, 16821, Note_on_c, 0, 75, 0
1, 16824, Note_on_c, 0, 74, 64
1, 16848, Note_on_c, 1, 72, 64
1, 16869, Note_on_c, 0, 74, 0
1, 16872, Note_on_c, 0, 86, 64
1, 16882, Note_on_c, 0, 86, 0
1, 16889, Note_on_c, 1, 66, 0
1, 16893, Note_on_c, 1, 72, 0
1, 16896, Note_on_c, 0, 86, 64
1, 16919, Note_on_c, 0, 86, 0
1, 16920, Note_on_c, 0, 84, 64
1, 16944, Note_on_c, 1, 67, 80
1, 16965, Note_on_c, 0, 84, 0
1, 16968, Note_on_c, 0, 75, 64
1, 16989, Note_on_c, 1, 67, 0
1, 16992, Note_on_c, 1, 66, 80
1, 17013, Note_on_c, 0, 75, 0
1, 17016, Note_on_c, 0, 74, 64
1, 17040, Note_on_c, 1, 72, 75
1, 17061, Note_on_c, 0, 74, 0
1, 17064, Note_on_c, 0, 86, 71
1, 17074, Note_on_c, 0, 86, 0
1, 17081, Note_on_c, 1, 66, 0
1, 17085, Note_on_c, 1, 72, 0
1, 17088, Note_on_c, 0, 84, 80
1, 17088, Note_on_c, 1, 67, 80
1, 17111, Note_on_c, 0, 84, 0
1, 17112, Note_on_c, 0, 83, 80
1, 17136, Note_on_c, 1, 74, 80
1, 17157, Note_on_c, 0, 83, 0
1, 17160, Note_on_c, 0, 77, 80
1, 17177, Note_on_c, 1, 67, 0
1, 17181, Note_on_c, 1, 74, 0
1, 17184, Note_on_c, 1, 72, 80
1, 17184, Note_on_c, 1, 72, 80
1, 17205, Note_on_c, 0, 77, 0
1, 17208, Note_on_c, 0, 76, 80
1, 17229, Note_on_c, 1, 72, 0
1, 17232, Note_on_c, 1, 60, 80
1, 17253, Note_on_c, 0, 76, 0
1, 17256, Note_on_c, 0, 84, 80
1, 17266, Note_on_c, 0, 84, 0
1, 17273, Note_on_c, 1, 72, 0
1, 17277, Note_on_c, 1, 60, 0
1, 17280, Note_on_c, 0, 82, 80
1, 17280, Note_on_c, 1, 65, 80
1, 17303, Note_on_c, 0, 82, 0
1, 17304, Note_on_c, 0, 81, 80
1, 17328, Note_on_c, 1, 72, 80
1, 17349, Note_on_c, 0, 81, 0
1, 17352, Note_on_c, 0, 75, 80
1, 17369, Note_on_c, 1, 65, 0
1, 17373, Note_on_c, 1, 72, 0
1, 17376, Note_on_c, 1, 70, 80
1, 17376, Note_on_c, 1, 70, 80
1, 17397, Note_on_c, 0, 75, 0
1, 17400, Note_on_c, 0, 74, 80
1, 17421, Note_on_c, 1, 70, 0
1, 17424, Note_on_c, 1, 58, 80
1, 17445, Note_on_c, 0, 74, 0
1, 17448, Note_on_c, 0, 82, 80
1, 17458, Note_on_c, 0, 82, 0
1, 17465, Note_on_c, 1, 70, 0
1, 17469, Note_on_c, 1, 58, 0
1, 17472, Note_on_c, 0, 81, 80
1, 17472, Note_on_c, 1, 63, 80
1, 17495, Note_on_c, 0, 81, 0
1, 17496, Note_on_c, 0, 79, 80
1, 17520, Note_on_c, 1, 70, 80
1, 17541, Note_on_c, 0, 79, 0
1, 17544, Note_on_c, 0, 74, 80
1, 17561, Note_on_c, 1, 63, 0
1, 17565, Note_on_c, 1, 70, 0
1, 17568, Note_on_c, 1, 69, 80
1, 17568, Note_on_c, 1, 69, 80
1, 17589, Note_on_c, 0, 74, 0
1, 17592, Note_on_c, 0, 72, 80
1, 17613, Note_on_c, 1, 69, 0
1, 17616, Note_on_c, 1, 57, 80
1, 17637, Note_on_c, 0, 72, 0
1, 17640, Note_on_c, 0, 81, 80
1, 17650, Note_on_c, 0, 81, 0
1, 17657, Note_on_c, 1, 69, 0
1, 17661, Note_on_c, 1, 57, 0
1, 17664, Note_on_c, 0, 79, 80
1, 17664, Note_on_c, 1, 62, 80
1, 17687, Note_on_c, 0, 79, 0
1, 17688, Note_on_c, 0, 78, 80
1, 17712, Note_on_c, 1, 69, 80
1, 17733, Note_on_c, 0, 78, 0
1, 17736, Note_on_c, 0, 72, 80
1, 17753, Note_on_c, 1, 62, 0
1, 17757, Note_on_c, 1, 69, 0
1, 17760, Note_on_c, 1, 67, 80
1, 17760, Note_on_c, 1, 67, 80
1, 17781, Note_on_c, 0, 72, 0
1, 17784, Note_on_c, 0, 70, 80
1, 17805, Note_on_c, 1, 67, 0
1, 17808, Note_on_c, 1, 61, 80
1, 17829, Note_on_c, 0, 70, 0
1, 17832, Note_on_c, 0, 79, 80
1, 17842, Note_on_c, 0, 79, 0
1, 17849, Note_on_c, 1, 67, 0
1, 17853, Note_on_c, 1, 61, 0
1, 17856, Note_on_c, 0, 70, 80
1, 17856, Note_on_c, 1, 67, 80
1, 17856, Note_on_c, 1, 62, 80
1, 17863, Note_on_c, 0, 70, 0
1, 17863, Note_on_c, 0, 72, 80
1, 17870, Note_on_c, 0, 72, 0
1, 17870, Note_on_c, 0, 70, 80
1, 17877, Note_on_c, 0, 70, 0
1, 17877, Note_on_c, 0, 72, 80
1, 17884, Note_on_c, 0, 72, 0
1, 17884, Note_on_c, 0, 70, 80
1, 17891, Note_on_c, 0, 70, 0
1, 17891, Note_on_c, 0, 69, 80
1, 17898, Note_on_c, 0, 69, 0
1, 17898, Note_on_c, 0, 70, 80
1, 17901, Note_on_c, 1, 67, 0
1, 17904, Note_on_c, 0, 70, 0
1, 17904, Note_on_c, 0, 69, 80
1, 17904, Note_on_c, 1, 66, 80
1, 17945, Note_on_c, 1, 62, 0
1, 17949, Note_on_c, 0, 69, 0
1, 17949, Note_on_c, 1, 66, 0
1, 17952, Note_on_c, 1, 50, 80
1, 17976, Note_on_c, 0, 74, 80
1, 17988, Note_on_c, 0, 74, 0
1, 17988, Note_on_c, 0, 76, 80
1, 17997, Note_on_c, 1, 50, 0
1, 18000, Note_on_c, 0, 76, 0
1, 18000, Note_on_c, 0, 79, 80
1, 18000, Note_on_c, 1, 62, 80
1, 18000, Note_on_c, 1, 60, 80
1, 18012, Note_on_c, 0, 79, 0
1, 18012, Note_on_c, 0, 78, 80
1, 18024, Note_on_c, 0, 78, 0
1, 18024, Note_on_c, 0, 76, 80
1, 18036, Note_on_c, 0, 76, 0
1, 18036, Note_on_c, 0, 74, 80
1, 18045, Note_on_c, 1, 62, 0
1, 18045, Note_on_c, 1, 60, 0
1, 18048, Note_on_c, 0, 74, 0
1, 18048, Note_on_c, 0, 79, 80
1, 18048, Note_on_c, 1, 62, 80
1, 18048, Note_on_c, 1, 58, 80
1, 18071, Note_on_c, 0, 79, 0
1, 18072, Note_on_c, 0, 74, 80
1, 18084, Note_on_c, 0, 74, 0
1, 18084, Note_on_c, 0, 76, 80
1, 18093, Note_on_c, 1, 62, 0
1, 18093, Note_on_c, 1, 58, 0
1, 18096, Note_on_c, 0, 76, 0
1, 18096, Note_on_c, 0, 79, 80
1, 18096, Note_on_c, 1, 62, 80
1, 18096, Note_on_c, 1, 60, 80
1, 18108, Note_on_c, 0, 79, 0
1, 18108, Note_on_c, 0, 78, 80
1, 18120, Note_on_c, 0, 78, 0
1, 18120, Note_on_c, 0, 76, 80
1, 18132, Note_on_c, 0, 76, 0
1, 18132, Note_on_c, 0, 74, 80
1, 18141, Note_on_c, 1, 62, 0
1, 18141, Note_on_c, 1, 60, 0
1, 18144, Note_on_c, 0, 74, 0
1, 18144, Note_on_c, 0, 79, 80
1, 18144, Note_on_c, 1, 62, 80
1, 18144, Note_on_c, 1, 58, 80
1, 18167, Note_on_c, 0, 79, 0
1, 18168, Note_on_c, 0, 79, 80
1, 18180, Note_on_c, 0, 79, 0
1, 18180, Note_on_c, 0, 81, 80
1, 18189, Note_on_c, 1, 62, 0
1, 18189, Note_on_c, 1, 58, 0
1, 18192, Note_on_c, 0, 81, 0
1, 18192, Note_on_c, 0, 84, 80
1, 18192, Note_on_c, 1, 62, 80
1, 18192, Note_on_c, 1, 54, 80
1, 18204, Note_on_c, 0, 84, 0
1, 18204, Note_on_c, 0, 82, 78
1, 18216, Note_on_c, 0, 82, 0
1, 18216, Note_on_c, 0, 81, 77
1, 18228, Note_on_c, 0, 81, 0
1, 18228, Note_on_c, 0, 79, 76
1, 18237, Note_on_c, 1, 62, 0
1, 18237, Note_on_c, 1, 54, 0
1, 18240, Note_on_c, 0, 79, 0
1, 18240, Note_on_c, 0, 82, 75
1, 18240, Note_on_c, 1, 62, 75
1, 18240, Note_on_c, 1, 55, 75
1, 18250, Note_on_c, 0, 82, 0
1, 18264, Note_on_c, 0, 82, 75
1, 18274, Note_on_c, 0, 82, 0
1, 18285, Note_on_c, 1, 62, 0
1, 18288, Note_on_c, 1, 62, 75
1, 18312, Note_on_c, 0, 86, 75
1, 18329, Note_on_c, 1, 55, 0
1, 18336, Note_on_c, 0, 86, 0
1, 18336, Note_on_c, 0, 78, 75
1, 18336, Note_on_c, 1, 57, 75
1, 18346, Note_on_c, 0, 78, 0
1, 18360, Note_on_c, 0, 78, 75
1, 18370, Note_on_c, 0, 78, 0
1, 18377, Note_on_c, 1, 62, 0
1, 18384, Note_on_c, 1, 62, 75
1, 18408, Note_on_c, 0, 81, 75
1, 18425, Note_on_c, 1, 57, 0
1, 18432, Note_on_c, 0, 81, 0
1, 18432, Note_on_c, 0, 79, 75
1, 18432, Note_on_c, 1, 58, 75
1, 18455, Note_on_c, 0, 79, 0
1, 18456, Note_on_c, 0, 79, 75
1, 18466, Note_on_c, 0, 79, 0
1, 18477, Note_on_c, 1, 62, 0
1, 18480, Note_on_c, 1, 62, 75
1, 18504, Note_on_c, 0, 82, 75
1, 18521, Note_on_c, 1, 58, 0
1, 18528, Note_on_c, 0, 82, 0
1, 18528, Note_on_c, 0, 81, 75
1, 18528, Note_on_c, 1, 54, 75
1, 18551, Note_on_c, 0, 81, 0
1, 18552, Note_on_c, 0, 81, 75
1, 18562, Note_on_c, 0, 81, 0
1, 18569, Note_on_c, 1, 62, 0
1, 18576, Note_on_c, 1, 62, 75
1, 18600, Note_on_c, 0, 84, 75
1, 18617, Note_on_c, 1, 54, 0
1, 18624, Note_on_c, 0, 84, 0
1, 18624, Note_on_c, 0, 82, 75
1, 18624, Note_on_c, 1, 55, 75
1, 18634, Note_on_c, 0, 82, 0
1, 18648, Note_on_c, 0, 82, 75
1, 18658, Note_on_c, 0, 82, 0
1, 18669, Note_on_c, 1, 62, 0
1, 18672, Note_on_c, 0, 84, 75
1, 18672, Note_on_c, 1, 62, 75
1, 18684, Note_on_c, 0, 84, 0
1, 18684, Note_on_c, 0, 82, 75
1, 18696, Note_on_c, 0, 82, 0
1, 18696, Note_on_c, 0, 81, 75
1, 18708, Note_on_c, 0, 81, 0
1, 18708, Note_on_c, 0, 79, 75
1, 18713, Note_on_c, 1, 55, 0
1, 18720, Note_on_c, 0, 79, 0
1, 18720, Note_on_c, 0, 78, 75
1, 18720, Note_on_c, 1, 57, 75
1, 18730, Note_on_c, 0, 78, 0
1, 18744, Note_on_c, 0, 78, 75
1, 18754, Note_on_c, 0, 78, 0
1, 18759, Note_on_c, 1, 57, 0
1, 18761, Note_on_c, 1, 62, 0
1, 18768, Note_on_c, 0, 79, 75
1, 18768, Note_on_c, 1, 62, 75
1, 18780, Note_on_c, 0, 79, 0
1, 18780, Note_on_c, 0, 78, 75
1, 18792, Note_on_c, 0, 78, 0
1, 18792, Note_on_c, 0, 76, 75
1, 18804, Note_on_c, 0, 76, 0
1, 18804, Note_on_c, 0, 74, 75
1, 18816, Note_on_c, 0, 74, 0
1, 18816, Note_on_c, 0, 79, 75
1, 18816, Note_on_c, 1, 58, 75
1, 18826, Note_on_c, 0, 79, 0
1, 18836, Note_on_c, 1, 62, 0
1, 18840, Note_on_c, 0, 79, 75
1, 18850, Note_on_c, 0, 79, 0
1, 18855, Note_on_c, 1, 58, 0
1, 18864, Note_on_c, 1, 62, 75
1, 18888, Note_on_c, 0, 82, 75
1, 18911, Note_on_c, 0, 82, 0
1, 18912, Note_on_c, 0, 80, 75
1, 18912, Note_on_c, 1, 54, 75
1, 18936, Note_on_c, 0, 80, 0
1, 18936, Note_on_c, 0, 81, 75
1, 18953, Note_on_c, 1, 62, 0
1, 18959, Note_on_c, 0, 81, 0
1, 18960, Note_on_c, 1, 62, 75
1, 18984, Note_on_c, 0, 84, 75
1, 19001, Note_on_c, 1, 54, 0
1, 19008, Note_on_c, 1, 55, 75
1, 19031, Note_on_c, 0, 84, 0
1, 19032, Note_on_c, 0, 82, 75
1, 19053, Note_on_c, 1, 55, 0
1, 19056, Note_on_c, 1, 57, 75
1, 19077, Note_on_c, 0, 82, 0
1, 19080, Note_on_c, 0, 81, 75
1, 19101, Note_on_c, 1, 57, 0
1, 19104, Note_on_c, 1, 58, 75
1, 19125, Note_on_c, 0, 81, 0
1, 19128, Note_on_c, 0, 79, 76
1, 19149, Note_on_c, 1, 58, 0
1, 19152, Note_on_c, 1, 59, 75
1, 19173, Note_on_c, 0, 79, 0
1, 19176, Note_on_c, 0, 77, 77
1, 19185, Note_on_c, 1, 62, 0
1, 19197, Note_on_c, 1, 59, 0
1, 19200, Note_on_c, 1, 63, 75
1, 19200, Note_on_c, 1, 60, 75
1, 19223, Note_on_c, 0, 77, 0
1, 19224, Note_on_c, 0, 75, 77
1, 19245, Note_on_c, 1, 63, 0
1, 19245, Note_on_c, 1, 60, 0
1, 19248, Note_on_c, 1, 65, 75
1, 19248, Note_on_c, 1, 62, 75
1, 19269, Note_on_c, 0, 75, 0
1, 19272, Note_on_c, 0, 74, 78
1, 19293, Note_on_c, 1, 65, 0
1, 19293, Note_on_c, 1, 62, 0
1, 19296, Note_on_c, 1, 67, 75
1, 19296, Note_on_c, 1, 63, 75
1, 19317, Note_on_c, 0, 74, 0
1, 19320, Note_on_c, 0, 72, 78
1, 19341, Note_on_c, 1, 67, 0
1, 19341, Note_on_c, 1, 63, 0
1, 19344, Note_on_c, 1, 68, 75
1, 19344, Note_on_c, 1, 65, 75
1, 19365, Note_on_c, 0, 72, 0
1, 19368, Note_on_c, 0, 71, 79
1, 19392, Note_on_c, 1, 68, 0
1, 19392, Note_on_c, 1, 65, 0
1, 19392, Note_on_c, 1, 67, 75
1, 19392, Note_on_c, 1, 63, 75
1, 19415, Note_on_c, 0, 71, 0
1, 19416, Note_on_c, 0, 72, 80
1, 19439, Note_on_c, 0, 72, 0
1, 19440, Note_on_c, 0, 79, 80
1, 19463, Note_on_c, 0, 79, 0
1, 19464, Note_on_c, 0, 75, 80
1, 19481, Note_on_c, 1, 67, 0
1, 19481, Note_on_c, 1, 63, 0
1, 19487, Note_on_c, 0, 75, 0
1, 19488, Note_on_c, 0, 74, 80
1, 19511, Note_on_c, 0, 74, 0
1, 19512, Note_on_c, 0, 72, 80
1, 19536, Note_on_c, 1, 68, 75
1, 19536, Note_on_c, 1, 65, 75
1, 19557, Note_on_c, 0, 72, 0
1, 19560, Note_on_c, 0, 71, 75
1, 19584, Note_on_c, 1, 68, 0
1, 19584, Note_on_c, 1, 65, 0
1, 19584, Note_on_c, 1, 67, 75
1, 19584, Note_on_c, 1, 63, 75
1, 19607, Note_on_c, 0, 71, 0
1, 19608, Note_on_c, 0, 72, 75
1, 19631, Note_on_c, 0, 72, 0
1, 19632, Note_on_c, 0, 79, 75
1, 19655, Note_on_c, 0, 79, 0
1, 19656, Note_on_c, 0, 75, 75
1, 19673, Note_on_c, 1, 67, 0
1, 19673, Note_on_c, 1, 63, 0
1, 19679, Note_on_c, 0, 75, 0
1, 19680, Note_on_c, 0, 74, 75
1, 19703, Note_on_c, 0, 74, 0
1, 19704, Note_on_c, 0, 72, 75
1, 19728, Note_on_c, 1, 68, 75
1, 19728, Note_on_c, 1, 65, 75
1, 19749, Note_on_c, 0, 72, 0
1, 19752, Note_on_c, 0, 71, 75
1, 19776, Note_on_c, 1, 68, 0
1, 19776, Note_on_c, 1, 65, 0
1, 19776, Note_on_c, 1, 67, 75
1, 19776, Note_on_c, 1, 63, 75
1, 19799, Note_on_c, 0, 71, 0
1, 19800, Note_on_c, 0, 72, 75
1, 19823, Note_on_c, 0, 72, 0
1, 19824, Note_on_c, 0, 79, 75
1, 19847, Note_on_c, 0, 79, 0
1, 19848, Note_on_c, 0, 75, 75
1, 19871, Note_on_c, 0, 75, 0
1, 19872, Note_on_c, 0, 79, 75
1, 19895, Note_on_c, 0, 79, 0
1, 19896, Note_on_c, 0, 75, 75
1, 19919, Note_on_c, 0, 75, 0
1, 19920, Note_on_c, 0, 79, 75
1, 19943, Note_on_c, 0, 79, 0
1, 19944, Note_on_c, 0, 75, 75
1, 19953, Note_on_c, 1, 67, 0
1, 19953, Note_on_c, 1, 63, 0
1, 19967, Note_on_c, 0, 75, 0
1, 19968, Note_on_c, 0, 74, 75
1, 20016, Note_on_c, 0, 70, 64
1, 20016, Note_on_c, 1, 63, 75
1, 20039, Note_on_c, 0, 70, 0
1, 20040, Note_on_c, 0, 67, 64
1, 20061, Note_on_c, 1, 63, 0
1, 20063, Note_on_c, 0, 67, 0
1, 20064, Note_on_c, 0, 74, 0
1, 20064, Note_on_c, 0, 73, 75
1, 20064, Note_on_c, 0, 70, 64
1, 20064, Note_on_c, 1, 63, 75
1, 20087, Note_on_c, 0, 70, 0
1, 20088, Note_on_c, 0, 67, 64
1, 20109, Note_on_c, 1, 63, 0
1, 20111, Note_on_c, 0, 67, 0
1, 20112, Note_on_c, 0, 70, 64
1, 20112, Note_on_c, 1, 63, 75
1, 20135, Note_on_c, 0, 70, 0
1, 20136, Note_on_c, 0, 67, 64
1, 20153, Note_on_c, 0, 73, 0
1, 20157, Note_on_c, 1, 63, 0
1, 20159, Note_on_c, 0, 67, 0
1, 20160, Note_on_c, 0, 74, 75
1, 20160, Note_on_c, 0, 66, 64
1, 20184, Note_on_c, 1, 50, 80
1, 20196, Note_on_c, 1, 50, 0
1, 20196, Note_on_c, 1, 57, 80
1, 20205, Note_on_c, 0, 74, 0
1, 20205, Note_on_c, 0, 66, 0
1, 20208, Note_on_c, 1, 57, 0
1, 20208, Note_on_c, 1, 62, 80
1, 20231, Note_on_c, 1, 62, 0
1, 20232, Note_on_c, 1, 57, 80
1, 20255, Note_on_c, 1, 57, 0
1, 20256, Note_on_c, 1, 60, 80
1, 20279, Note_on_c, 1, 60, 0
1, 20280, Note_on_c, 1, 58, 80
1, 20303, Note_on_c, 1, 58, 0
1, 20304, Note_on_c, 1, 57, 80
1, 20327, Note_on_c, 1, 57, 0
1, 20328, Note_on_c, 1, 55, 80
1, 20351, Note_on_c, 1, 55, 0
1, 20352, Note_on_c, 1, 55, 80
1, 20376, Note_on_c, 0, 62, 75
1, 20388, Note_on_c, 0, 62, 0
1, 20388, Note_on_c, 0, 69, 75
1, 20397, Note_on_c, 1, 55, 0
1, 20400, Note_on_c, 0, 69, 0
1, 20400, Note_on_c, 0, 74, 75
1, 20400, Note_on_c, 1, 54, 80
1, 20423, Note_on_c, 0, 74, 0
1, 20424, Note_on_c, 0, 69, 75
1, 20445, Note_on_c, 1, 54, 0
1, 20447, Note_on_c, 0, 69, 0
1, 20448, Note_on_c, 0, 72, 75
1, 20448, Note_on_c, 1, 55, 80
1, 20471, Note_on_c, 0, 72, 0
1, 20472, Note_on_c, 0, 70, 75
1, 20493, Note_on_c, 1, 55, 0
1, 20495, Note_on_c, 0, 70, 0
1, 20496, Note_on_c, 0, 69, 75
1, 20519, Note_on_c, 0, 69, 0
1, 20520, Note_on_c, 0, 67, 75
1, 20543, Note_on_c, 0, 67, 0
1, 20544, Note_on_c, 0, 67, 75
1, 20568, Note_on_c, 1, 38, 80
1, 20580, Note_on_c, 1, 38, 0
1, 20580, Note_on_c, 1, 45, 80
1, 20589, Note_on_c, 0, 67, 0
1, 20592, Note_on_c, 0, 66, 75
1, 20592, Note_on_c, 1, 45, 0
1, 20592, Note_on_c, 1, 50, 80
1, 20615, Note_on_c, 1, 50, 0
1, 20616, Note_on_c, 1, 45, 80
1, 20637, Note_on_c, 0, 66, 0
1, 20639, Note_on_c, 1, 45, 0
1, 20640, Note_on_c, 0, 67, 75
1, 20640, Note_on_c, 1, 48, 80
1, 20663, Note_on_c, 1, 48, 0
1, 20664, Note_on_c, 1, 46, 80
1, 20685, Note_on_c, 0, 67, 0
1, 20687, Note_on_c, 1, 46, 0
1, 20688, Note_on_c, 1, 45, 80
1, 20694, Note_on_c, 1, 45, 0
1, 20694, Note_on_c, 1, 46, 80
1, 20700, Note_on_c, 1, 46, 0
1, 20700, Note_on_c, 1, 45, 80
1, 20711, Note_on_c, 1, 45, 0
1, 20712, Note_on_c, 1, 43, 80
1, 20735, Note_on_c, 1, 43, 0
1, 20736, Note_on_c, 1, 43, 80
1, 20760, Note_on_c, 0, 74, 75
1, 20772, Note_on_c, 0, 74, 0
1, 20772, Note_on_c, 0, 81, 75
1, 20781, Note_on_c, 1, 43, 0
1, 20784, Note_on_c, 0, 81, 0
1, 20784, Note_on_c, 0, 86, 75
1, 20784, Note_on_c, 1, 42, 80
1, 20807, Note_on_c, 0, 86, 0
1, 20808, Note_on_c, 0, 81, 76
1, 20829, Note_on_c, 1, 42, 0
1, 20831, Note_on_c, 0, 81, 0
1, 20832, Note_on_c, 0, 84, 77
1, 20832, Note_on_c, 1, 43, 80
1, 20855, Note_on_c, 0, 84, 0
1, 20856, Note_on_c, 0, 82, 77
1, 20877, Note_on_c, 1, 43, 0
1, 20879, Note_on_c, 0, 82, 0
1, 20880, Note_on_c, 0, 81, 78
1, 20886, Note_on_c, 0, 81, 0
1, 20886, Note_on_c, 0, 82, 78
1, 20892, Note_on_c, 0, 82, 0
1, 20892, Note_on_c, 0, 81, 78
1, 20903, Note_on_c, 0, 81, 0
1, 20904, Note_on_c, 0, 79, 79
1, 20927, Note_on_c, 0, 79, 0
1, 20928, Note_on_c, 1, 51, 80
1, 20928, Note_on_c, 1, 39, 80
1, 20940, Note_on_c, 0, 67, 80
1, 20952, Note_on_c, 0, 67, 0
1, 20952, Note_on_c, 0, 72, 80
1, 20964, Note_on_c, 0, 72, 0
1, 20964, Note_on_c, 0, 75, 80
1, 20976, Note_on_c, 0, 75, 0
1, 20976, Note_on_c, 0, 79, 80
1, 20988, Note_on_c, 0, 79, 0
1, 20988, Note_on_c, 0, 71, 80
1, 21000, Note_on_c, 0, 71, 0
1, 21000, Note_on_c, 0, 72, 80
1, 21012, Note_on_c, 0, 72, 0
1, 21012, Note_on_c, 0, 75, 80
1, 21017, Note_on_c, 1, 51, 0
1, 21017, Note_on_c, 1, 39, 0
1, 21024, Note_on_c, 0, 75, 0
1, 21024, Note_on_c, 0, 79, 80
1, 21036, Note_on_c, 0, 79, 0
1, 21036, Note_on_c, 0, 71, 80
1, 21048, Note_on_c, 0, 71, 0
1, 21048, Note_on_c, 0, 72, 80
1, 21060, Note_on_c, 0, 72, 0
1, 21060, Note_on_c, 0, 75, 80
1, 21072, Note_on_c, 0, 75, 0
1, 21072, Note_on_c, 0, 79, 80
1, 21095, Note_on_c, 0, 79, 0
1, 21096, Note_on_c, 1, 51, 80
1, 21096, Note_on_c, 1, 39, 80
1, 21106, Note_on_c, 1, 51, 0
1, 21106, Note_on_c, 1, 39, 0
1, 21120, Note_on_c, 1, 50, 80
1, 21120, Note_on_c, 1, 38, 80
1, 21132, Note_on_c, 0, 67, 80
1, 21144, Note_on_c, 0, 67, 0
1, 21144, Note_on_c, 0, 70, 80
1, 21156, Note_on_c, 0, 70, 0
1, 21156, Note_on_c, 0, 74, 80
1, 21165, Note_on_c, 1, 50, 0
1, 21165, Note_on_c, 1, 38, 0
1, 21168, Note_on_c, 0, 74, 0
1, 21168, Note_on_c, 0, 79, 80
1, 21188, Note_on_c, 0, 79, 0
1, 21192, Note_on_c, 1, 50, 80
1, 21192, Note_on_c, 1, 38, 80
1, 21202, Note_on_c, 1, 50, 0
1, 21202, Note_on_c, 1, 38, 0
1, 21216, Note_on_c, 1, 49, 80
1, 21216, Note_on_c, 1, 37, 80
1, 21228, Note_on_c, 0, 67, 80
1, 21240, Note_on_c, 0, 67, 0
1, 21240, Note_on_c, 0, 70, 80
1, 21252, Note_on_c, 0, 70, 0
1, 21252, Note_on_c, 0, 76, 80
1, 21261, Note_on_c, 1, 49, 0
1, 21261, Note_on_c, 1, 37, 0
1, 21264, Note_on_c, 0, 76, 0
1, 21264, Note_on_c, 0, 79, 80
1, 21284, Note_on_c, 0, 79, 0
1, 21288, Note_on_c, 1, 49, 80
1, 21288, Note_on_c, 1, 37, 80
1, 21298, Note_on_c, 1, 49, 0
1, 21298, Note_on_c, 1, 37, 0
1, 21312, Note_on_c, 1, 50, 80
1, 21312, Note_on_c, 1, 38, 80
1, 21357, Note_on_c, 1, 50, 0
1, 21357, Note_on_c, 1, 38, 0
1, 21360, Note_on_c, 0, 82, 80
1, 21360, Note_on_c, 0, 79, 80
1, 21405, Note_on_c, 0, 82, 0
1, 21405, Note_on_c, 0, 79, 0
1, 21408, Note_on_c, 1, 38, 80
1, 21453, Note_on_c, 1, 38, 0
1, 21456, Note_on_c, 0, 66, 80
1, 21501, Note_on_c, 0, 66, 0
1, 21504, Note_on_c, 0, 66, 80
1, 21504, Note_on_c, 0, 60, 64
1, 21504, Note_on_c, 1, 55, 80
1, 21623, Note_on_c, 0, 66, 0
1, 21624, Note_on_c, 0, 67, 80
1, 21630, Note_on_c, 0, 67, 0
1, 21630, Note_on_c, 0, 66, 80
1, 21636, Note_on_c, 0, 66, 0
1, 21636, Note_on_c, 0, 64, 80
1, 21642, Note_on_c, 0, 64, 0
1, 21642, Note_on_c, 0, 66, 80
1, 21648, Note_on_c, 0, 66, 0
1, 21648, Note_on_c, 0, 69, 80
1, 21682, Note_on_c, 0, 69, 0
1, 21684, Note_on_c, 0, 67, 80
1, 21696, Note_on_c, 0, 67, 0
1, 21696, Note_on_c, 0, 67, 70
1, 21696, Note_on_c, 0, 60, 0
1, 21696, Note_on_c, 0, 58, 70
1, 21696, Note_on_c, 1, 55, 0
1, 21696, Note_on_c, 1, 43, 70
1, 21741, Note_on_c, 0, 67, 0
1, 21741, Note_on_c, 1, 43, 0
1, 21768, Note_on_c, 1, 58, 80
1, 21785, Note_on_c, 0, 58, 0
1, 21791, Note_on_c, 1, 58, 0
1, 21792, Note_on_c, 1, 58, 80
1, 21804, Note_on_c, 1, 58, 0
1, 21804, Note_on_c, 1, 57, 80
1, 21816, Note_on_c, 1, 57, 0
1, 21816, Note_on_c, 1, 55, 80
1, 21828, Note_on_c, 1, 55, 0
1, 21828, Note_on_c, 1, 53, 80
1, 21840, Note_on_c, 1, 53, 0
1, 21840, Note_on_c, 1, 53, 80
1, 21852, Note_on_c, 1, 53, 0
1, 21852, Note_on_c, 1, 51, 80
1, 21864, Note_on_c, 0, 70, 75
1, 21864, Note_on_c, 1, 51, 0
1, 21864, Note_on_c, 1, 50, 80
1, 21874, Note_on_c, 0, 70, 0
1, 21876, Note_on_c, 1, 50, 0
1, 21876, Note_on_c, 1, 48, 80
1, 21888, Note_on_c, 0, 72, 75
1, 21888, Note_on_c, 1, 48, 0
1, 21888, Note_on_c, 1, 46, 80
1, 21894, Note_on_c, 0, 72, 0
1, 21894, Note_on_c, 0, 70, 75
1, 21900, Note_on_c, 0, 70, 0
1, 21900, Note_on_c, 0, 69, 75
1, 21906, Note_on_c, 0, 69, 0
1, 21906, Note_on_c, 0, 70, 75
1, 21922, Note_on_c, 0, 70, 0
1, 21924, Note_on_c, 0, 74, 75
1, 21936, Note_on_c, 0, 74, 0
1, 21936, Note_on_c, 0, 75, 75
1, 21942, Note_on_c, 0, 75, 0
1, 21942, Note_on_c, 0, 74, 75
1, 21948, Note_on_c, 0, 74, 0
1, 21948, Note_on_c, 0, 72, 75
1, 21954, Note_on_c, 0, 72, 0
1, 21954, Note_on_c, 0, 74, 75
1, 21970, Note_on_c, 0, 74, 0
1, 21972, Note_on_c, 0, 77, 75
1, 21977, Note_on_c, 1, 46, 0
1, 21984, Note_on_c, 0, 77, 0
1, 21984, Note_on_c, 0, 79, 75
1, 21990, Note_on_c, 0, 79, 0
1, 21990, Note_on_c, 0, 77, 75
1, 21996, Note_on_c, 0, 77, 0
1, 21996, Note_on_c, 0, 75, 75
1, 22002, Note_on_c, 0, 75, 0
1, 22002, Note_on_c, 0, 77, 75
1, 22018, Note_on_c, 0, 77, 0
1, 22020, Note_on_c, 0, 82, 75
1, 22032, Note_on_c, 0, 82, 0
1, 22032, Note_on_c, 0, 81, 75
1, 22032, Note_on_c, 1, 74, 75
1, 22032, Note_on_c, 1, 70, 75
1, 22066, Note_on_c, 0, 81, 0
1, 22068, Note_on_c, 0, 79, 75
1, 22077, Note_on_c, 1, 74, 0
1, 22077, Note_on_c, 1, 70, 0
1, 22080, Note_on_c, 0, 79, 0
1, 22080, Note_on_c, 0, 79, 75
1, 22080, Note_on_c, 1, 72, 75
1, 22080, Note_on_c, 1, 69, 75
1, 22114, Note_on_c, 0, 79, 0
1, 22116, Note_on_c, 0, 77, 75
1, 22128, Note_on_c, 0, 77, 0
1, 22128, Note_on_c, 0, 77, 75
1, 22169, Note_on_c, 1, 72, 0
1, 22169, Note_on_c, 1, 69, 0
1, 22176, Note_on_c, 1, 69, 75
1, 22176, Note_on_c, 1, 65, 75
1, 22210, Note_on_c, 0, 77, 0
1, 22212, Note_on_c, 0, 79, 75
1, 22221, Note_on_c, 1, 69, 0
1, 22221, Note_on_c, 1, 65, 0
1, 22224, Note_on_c, 0, 79, 0
1, 22224, Note_on_c, 0, 75, 75
1, 22258, Note_on_c, 0, 75, 0
1, 22260, Note_on_c, 0, 77, 75
1, 22272, Note_on_c, 0, 77, 0
1, 22272, Note_on_c, 0, 74, 75
1, 22272, Note_on_c, 1, 70, 75
1, 22272, Note_on_c, 1, 58, 75
1, 22306, Note_on_c, 0, 74, 0
1, 22308, Note_on_c, 0, 75, 75
1, 22317, Note_on_c, 1, 70, 0
1, 22317, Note_on_c, 1, 58, 0
1, 22320, Note_on_c, 0, 75, 0
1, 22320, Note_on_c, 0, 72, 75
1, 22320, Note_on_c, 1, 67, 75
1, 22320, Note_on_c, 1, 63, 75
1, 22354, Note_on_c, 0, 72, 0
1, 22356, Note_on_c, 0, 74, 75
1, 22365, Note_on_c, 1, 67, 0
1, 22365, Note_on_c, 1, 63, 0
1, 22368, Note_on_c, 0, 74, 0
1, 22368, Note_on_c, 0, 70, 75
1, 22368, Note_on_c, 1, 65, 75
1, 22368, Note_on_c, 1, 62, 75
1, 22402, Note_on_c, 0, 70, 0
1, 22404, Note_on_c, 0, 72, 75
1, 22413, Note_on_c, 1, 65, 0
1, 22413, Note_on_c, 1, 62, 0
1, 22416, Note_on_c, 0, 72, 0
1, 22416, Note_on_c, 0, 69, 75
1, 22416, Note_on_c, 1, 63, 75
1, 22416, Note_on_c, 1, 53, 75
1, 22450, Note_on_c, 0, 69, 0
1, 22452, Note_on_c, 0, 72, 75
1, 22461, Note_on_c, 1, 63, 0
1, 22461, Note_on_c, 1, 53, 0
1, 22464, Note_on_c, 0, 72, 0
1, 22464, Note_on_c, 0, 72, 75
1, 22464, Note_on_c, 1, 62, 75
1, 22464, Note_on_c, 1, 58, 75
1, 22476, Note_on_c, 0, 72, 0
1, 22476, Note_on_c, 0, 70, 75
1, 22488, Note_on_c, 0, 70, 0
1, 22488, Note_on_c, 0, 69, 75
1, 22500, Note_on_c, 0, 69, 0
1, 22500, Note_on_c, 0, 70, 75
1, 22509, Note_on_c, 1, 62, 0
1, 22509, Note_on_c, 1, 58, 0
1, 22512, Note_on_c, 0, 70, 0
1, 22512, Note_on_c, 0, 65, 75
1, 22532, Note_on_c, 0, 65, 0
1, 22548, Note_on_c, 1, 58, 80
1, 22560, Note_on_c, 1, 58, 0
1, 22560, Note_on_c, 1, 58, 80
1, 22572, Note_on_c, 1, 58, 0
1, 22572, Note_on_c, 1, 57, 80
1, 22584, Note_on_c, 1, 57, 0
1, 22584, Note_on_c, 1, 55, 80
1, 22596, Note_on_c, 1, 55, 0
1, 22596, Note_on_c, 1, 53, 80
1, 22608, Note_on_c, 1, 53, 0
1, 22608, Note_on_c, 1, 53, 80
1, 22620, Note_on_c, 1, 53, 0
1, 22620, Note_on_c, 1, 51, 80
1, 22632, Note_on_c, 1, 51, 0
1, 22632, Note_on_c, 1, 50, 80
1, 22644, Note_on_c, 0, 70, 75
1, 22644, Note_on_c, 1, 50, 0
1, 22644, Note_on_c, 1, 48, 80
1, 22656, Note_on_c, 0, 70, 0
1, 22656, Note_on_c, 0, 72, 75
1, 22656, Note_on_c, 1, 48, 0
1, 22656, Note_on_c, 1, 46, 80
1, 22662, Note_on_c, 0, 72, 0
1, 22662, Note_on_c, 0, 70, 75
1, 22668, Note_on_c, 0, 70, 0
1, 22668, Note_on_c, 0, 69, 75
1, 22674, Note_on_c, 0, 69, 0
1, 22674, Note_on_c, 0, 70, 75
1, 22690, Note_on_c, 0, 70, 0
1, 22692, Note_on_c, 0, 74, 75
1, 22704, Note_on_c, 0, 74, 0
1, 22704, Note_on_c, 0, 75, 75
1, 22710, Note_on_c, 0, 75, 0
1, 22710, Note_on_c, 0, 74, 75
1, 22716, Note_on_c, 0, 74, 0
1, 22716, Note_on_c, 0, 72, 75
1, 22722, Note_on_c, 0, 72, 0
1, 22722, Note_on_c, 0, 74, 75
1, 22738, Note_on_c, 0, 74, 0
1, 22740, Note_on_c, 0, 77, 75
1, 22745, Note_on_c, 1, 46, 0
1, 22752, Note_on_c, 0, 77, 0
1, 22752, Note_on_c, 0, 79, 75
1, 22758, Note_on_c, 0, 79, 0
1, 22758, Note_on_c, 0, 77, 75
1, 22764, Note_on_c, 0, 77, 0
1, 22764, Note_on_c, 0, 75, 75
1, 22770, Note_on_c, 0, 75, 0
1, 22770, Note_on_c, 0, 77, 75
1, 22786, Note_on_c, 0, 77, 0
1, 22788, Note_on_c, 0, 82, 75
1, 22800, Note_on_c, 0, 82, 0
1, 22800, Note_on_c, 0, 81, 75
1, 22800, Note_on_c, 1, 74, 75
1, 22800, Note_on_c, 1, 70, 75
1, 22834, Note_on_c, 0, 81, 0
1, 22836, Note_on_c, 0, 79, 75
1, 22845, Note_on_c, 1, 74, 0
1, 22845, Note_on_c, 1, 70, 0
1, 22848, Note_on_c, 0, 79, 0
1, 22848, Note_on_c, 0, 79, 75
1, 22848, Note_on_c, 1, 72, 75
1, 22848, Note_on_c, 1, 69, 75
1, 22882, Note_on_c, 0, 79, 0
1, 22884, Note_on_c, 0, 77, 75
1, 22896, Note_on_c, 0, 77, 0
1, 22896, Note_on_c, 0, 77, 75
1, 22937, Note_on_c, 1, 72, 0
1, 22937, Note_on_c, 1, 69, 0
1, 22941, Note_on_c, 0, 77, 0
1, 22944, Note_on_c, 1, 72, 75
1, 22944, Note_on_c, 1, 68, 75
1, 22960, Note_on_c, 0, 84, 75
1, 22975, Note_on_c, 0, 84, 0
1, 22976, Note_on_c, 0, 82, 75
1, 22991, Note_on_c, 0, 82, 0
1, 22992, Note_on_c, 0, 80, 75
1, 23007, Note_on_c, 0, 80, 0
1, 23008, Note_on_c, 0, 79, 75
1, 23023, Note_on_c, 0, 79, 0
1, 23024, Note_on_c, 0, 77, 75
1, 23033, Note_on_c, 1, 72, 0
1, 23039, Note_on_c, 0, 77, 0
1, 23040, Note_on_c, 0, 75, 75
1, 23040, Note_on_c, 1, 70, 75
1, 23055, Note_on_c, 0, 75, 0
1, 23056, Note_on_c, 0, 74, 75
1, 23071, Note_on_c, 0, 74, 0
1, 23072, Note_on_c, 0, 73, 75
1, 23087, Note_on_c, 0, 73, 0
1, 23088, Note_on_c, 0, 74, 75
1, 23129, Note_on_c, 1, 68, 0
1, 23133, Note_on_c, 0, 74, 0
1, 23136, Note_on_c, 1, 67, 75
1, 23152, Note_on_c, 0, 82, 75
1, 23167, Note_on_c, 0, 82, 0
1, 23168, Note_on_c, 0, 80, 75
1, 23183, Note_on_c, 0, 80, 0
1, 23184, Note_on_c, 0, 79, 75
1, 23199, Note_on_c, 0, 79, 0
1, 23200, Note_on_c, 0, 77, 75
1, 23215, Note_on_c, 0, 77, 0
1, 23216, Note_on_c, 0, 75, 75
1, 23217, Note_on_c, 1, 70, 0
1, 23231, Note_on_c, 0, 75, 0
1, 23232, Note_on_c, 0, 74, 75
1, 23232, Note_on_c, 1, 68, 75
1, 23247, Note_on_c, 0, 74, 0
1, 23248, Note_on_c, 0, 72, 75
1, 23263, Note_on_c, 0, 72, 0
1, 23264, Note_on_c, 0, 71, 75
1, 23279, Note_on_c, 0, 71, 0
1, 23280, Note_on_c, 0, 72, 75
1, 23295, Note_on_c, 0, 72, 0
1, 23296, Note_on_c, 0, 74, 75
1, 23311, Note_on_c, 0, 74, 0
1, 23312, Note_on_c, 0, 75, 75
1, 23321, Note_on_c, 1, 67, 0
1, 23327, Note_on_c, 0, 75, 0
1, 23328, Note_on_c, 0, 77, 75
1, 23328, Note_on_c, 1, 65, 75
1, 23343, Note_on_c, 0, 77, 0
1, 23344, Note_on_c, 0, 80, 75
1, 23359, Note_on_c, 0, 80, 0
1, 23360, Note_on_c, 0, 79, 75
1, 23375, Note_on_c, 0, 79, 0
1, 23376, Note_on_c, 0, 77, 75
1, 23391, Note_on_c, 0, 77, 0
1, 23392, Note_on_c, 0, 75, 75
1, 23407, Note_on_c, 0, 75, 0
1, 23408, Note_on_c, 0, 74, 75
1, 23409, Note_on_c, 1, 68, 0
1, 23423, Note_on_c, 0, 74, 0
1, 23424, Note_on_c, 0, 72, 75
1, 23424, Note_on_c, 1, 67, 75
1, 23439, Note_on_c, 0, 72, 0
1, 23440, Note_on_c, 0, 71, 75
1, 23455, Note_on_c, 0, 71, 0
1, 23456, Note_on_c, 0, 74, 75
1, 23471, Note_on_c, 0, 74, 0
1, 23472, Note_on_c, 0, 79, 75
1, 23513, Note_on_c, 1, 67, 0
1, 23513, Note_on_c, 1, 65, 0
1, 23517, Note_on_c, 0, 79, 0
1, 23616, Note_on_c, 0, 69, 75
1, 23622, Note_on_c, 0, 69, 0
1, 23622, Note_on_c, 0, 67, 75
1, 23628, Note_on_c, 0, 67, 0
1, 23628, Note_on_c, 0, 65, 75
1, 23632, Note_on_c, 1, 63, 75
1, 23634, Note_on_c, 0, 65, 0
1, 23634, Note_on_c, 0, 67, 75
1, 23647, Note_on_c, 1, 63, 0
1, 23648, Note_on_c, 1, 62, 75
1, 23663, Note_on_c, 1, 62, 0
1, 23664, Note_on_c, 1, 63, 75
1, 23679, Note_on_c, 1, 63, 0
1, 23680, Note_on_c, 1, 62, 75
1, 23695, Note_on_c, 1, 62, 0
1, 23696, Note_on_c, 1, 60, 75
1, 23711, Note_on_c, 1, 60, 0
1, 23712, Note_on_c, 1, 59, 75
1, 23727, Note_on_c, 0, 67, 0
1, 23728, Note_on_c, 0, 68, 75
1, 23743, Note_on_c, 0, 68, 0
1, 23744, Note_on_c, 0, 67, 75
1, 23759, Note_on_c, 0, 67, 0
1, 23760, Note_on_c, 0, 68, 75
1, 23775, Note_on_c, 0, 68, 0
1, 23776, Note_on_c, 0, 67, 75
1, 23791, Note_on_c, 0, 67, 0
1, 23792, Note_on_c, 0, 65, 75
1, 23801, Note_on_c, 1, 59, 0
1, 23807, Note_on_c, 0, 65, 0
1, 23808, Note_on_c, 0, 63, 75
1, 23808, Note_on_c, 1, 60, 75
1, 23823, Note_on_c, 0, 63, 0
1, 23824, Note_on_c, 0, 67, 75
1, 23839, Note_on_c, 0, 67, 0
1, 23840, Note_on_c, 0, 71, 75
1, 23856, Note_on_c, 0, 71, 0
1, 23856, Note_on_c, 0, 72, 75
1, 23871, Note_on_c, 0, 72, 0
1, 23872, Note_on_c, 0, 67, 75
1, 23887, Note_on_c, 0, 67, 0
1, 23888, Note_on_c, 0, 74, 75
1, 23897, Note_on_c, 1, 60, 0
1, 23904, Note_on_c, 0, 74, 0
1, 23904, Note_on_c, 0, 75, 75
1, 23919, Note_on_c, 0, 75, 0
1, 23920, Note_on_c, 0, 72, 75
1, 23935, Note_on_c, 0, 72, 0
1, 23936, Note_on_c, 0, 78, 75
1, 23952, Note_on_c, 0, 78, 0
1, 23952, Note_on_c, 0, 79, 75
1, 23997, Note_on_c, 0, 79, 0
1, 24000, Note_on_c, 0, 67, 75
1, 24006, Note_on_c, 0, 67, 0
1, 24006, Note_on_c, 0, 65, 75
1, 24012, Note_on_c, 0, 65, 0
1, 24012, Note_on_c, 0, 63, 75
1, 24016, Note_on_c, 1, 62, 75
1, 24018, Note_on_c, 0, 63, 0
1, 24018, Note_on_c, 0, 65, 75
1, 24031, Note_on_c, 1, 62, 0
1, 24032, Note_on_c, 1, 60, 75
1, 24047, Note_on_c, 1, 60, 0
1, 24048, Note_on_c, 1, 62, 75
1, 24063, Note_on_c, 1, 62, 0
1, 24064, Note_on_c, 1, 60, 75
1, 24079, Note_on_c, 1, 60, 0
1, 24080, Note_on_c, 1, 58, 75
1, 24095, Note_on_c, 1, 58, 0
1, 24096, Note_on_c, 1, 57, 75
1, 24111, Note_on_c, 0, 65, 0
1, 24112, Note_on_c, 0, 67, 75
1, 24127, Note_on_c, 0, 67, 0
1, 24128, Note_on_c, 0, 65, 75
1, 24143, Note_on_c, 0, 65, 0
1, 24144, Note_on_c, 0, 67, 75
1, 24159, Note_on_c, 0, 67, 0
1, 24160, Note_on_c, 0, 65, 75
1, 24175, Note_on_c, 0, 65, 0
1, 24176, Note_on_c, 0, 63, 75
1, 24185, Note_on_c, 1, 57, 0
1, 24191, Note_on_c, 0, 63, 0
1, 24192, Note_on_c, 0, 62, 75
1, 24192, Note_on_c, 1, 58, 75
1, 24207, Note_on_c, 0, 62, 0
1, 24208, Note_on_c, 0, 65, 75
1, 24223, Note_on_c, 0, 65, 0
1, 24224, Note_on_c, 0, 69, 75
1, 24240, Note_on_c, 0, 69, 0
1, 24240, Note_on_c, 0, 70, 75
1, 24255, Note_on_c, 0, 70, 0
1, 24256, Note_on_c, 0, 65, 75
1, 24271, Note_on_c, 0, 65, 0
1, 24272, Note_on_c, 0, 73, 75
1, 24281, Note_on_c, 1, 58, 0
1, 24288, Note_on_c, 0, 73, 0
1, 24288, Note_on_c, 0, 74, 75
1, 24303, Note_on_c, 0, 74, 0
1, 24304, Note_on_c, 0, 70, 75
1, 24319, Note_on_c, 0, 70, 0
1, 24320, Note_on_c, 0, 76, 75
1, 24336, Note_on_c, 0, 76, 0
1, 24336, Note_on_c, 0, 77, 75
1, 24429, Note_on_c, 0, 77, 0
1, 24552, Note_on_c, 0, 77, 64
1, 24562, Note_on_c, 0, 77, 0
1, 24576, Note_on_c, 0, 77, 64
1, 24599, Note_on_c, 0, 77, 0
1, 24600, Note_on_c, 0, 75, 64
1, 24624, Note_on_c, 1, 58, 64
1, 24645, Note_on_c, 0, 75, 0
1, 24648, Note_on_c, 0, 66, 64
1, 24669, Note_on_c, 1, 58, 0
1, 24672, Note_on_c, 1, 57, 64
1, 24693, Note_on_c, 0, 66, 0
1, 24696, Note_on_c, 0, 65, 64
1, 24720, Note_on_c, 1, 63, 64
1, 24741, Note_on_c, 0, 65, 0
1, 24744, Note_on_c, 0, 77, 64
1, 24754, Note_on_c, 0, 77, 0
1, 24761, Note_on_c, 1, 57, 0
1, 24765, Note_on_c, 1, 63, 0
1, 24768, Note_on_c, 0, 77, 64
1, 24791, Note_on_c, 0, 77, 0
1, 24792, Note_on_c, 0, 75, 64
1, 24816, Note_on_c, 1, 58, 64
1, 24837, Note_on_c, 0, 75, 0
1, 24840, Note_on_c, 0, 66, 64
1, 24861, Note_on_c, 1, 58, 0
1, 24864, Note_on_c, 1, 57, 64
1, 24885, Note_on_c, 0, 66, 0
1, 24888, Note_on_c, 0, 65, 64
1, 24912, Note_on_c, 1, 63, 64
1, 24933, Note_on_c, 0, 65, 0
1, 24936, Note_on_c, 0, 77, 64
1, 24946, Note_on_c, 0, 77, 0
1, 24953, Note_on_c, 1, 57, 0
1, 24957, Note_on_c, 1, 63, 0
1, 24960, Note_on_c, 0, 77, 80
1, 24983, Note_on_c, 0, 77, 0
1, 24984, Note_on_c, 0, 75, 80
1, 25008, Note_on_c, 1, 58, 80
1, 25029, Note_on_c, 0, 75, 0
1, 25032, Note_on_c, 0, 66, 80
1, 25053, Note_on_c, 1, 58, 0
1, 25056, Note_on_c, 1, 57, 80
1, 25077, Note_on_c, 0, 66, 0
1, 25080, Note_on_c, 0, 65, 80
1, 25104, Note_on_c, 1, 63, 64
1, 25125, Note_on_c, 0, 65, 0
1, 25128, Note_on_c, 0, 77, 80
1, 25138, Note_on_c, 0, 77, 0
1, 25149, Note_on_c, 1, 63, 0
1, 25152, Note_on_c, 0, 76, 80
1, 25152, Note_on_c, 1, 63, 64
1, 25164, Note_on_c, 0, 76, 0
1, 25164, Note_on_c, 0, 77, 64
1, 25176, Note_on_c, 0, 77, 0
1, 25176, Note_on_c, 0, 79, 64
1, 25188, Note_on_c, 0, 79, 0
1, 25188, Note_on_c, 0, 77, 65
1, 25200, Note_on_c, 0, 77, 0
1, 25200, Note_on_c, 0, 77, 66
1, 25271, Note_on_c, 0, 77, 0
1, 25272, Note_on_c, 0, 77, 70
1, 25284, Note_on_c, 0, 77, 0
1, 25284, Note_on_c, 0, 79, 70
1, 25285, Note_on_c, 1, 63, 0
1, 25285, Note_on_c, 1, 57, 0
1, 25296, Note_on_c, 0, 79, 0
1, 25296, Note_on_c, 0, 82, 70
1, 25296, Note_on_c, 1, 65, 80
1, 25296, Note_on_c, 1, 63, 80
1, 25308, Note_on_c, 0, 82, 0
1, 25308, Note_on_c, 0, 81, 70
1, 25320, Note_on_c, 0, 81, 0
1, 25320, Note_on_c, 0, 79, 70
1, 25332, Note_on_c, 0, 79, 0
1, 25332, Note_on_c, 0, 77, 70
1, 25341, Note_on_c, 1, 65, 0
1, 25341, Note_on_c, 1, 63, 0
1, 25344, Note_on_c, 0, 77, 0
1, 25344, Note_on_c, 0, 82, 70
1, 25344, Note_on_c, 1, 65, 80
1, 25344, Note_on_c, 1, 62, 80
1, 25367, Note_on_c, 0, 82, 0
1, 25368, Note_on_c, 0, 77, 70
1, 25380, Note_on_c, 0, 77, 0
1, 25380, Note_on_c, 0, 79, 70
1, 25389, Note_on_c, 1, 65, 0
1, 25389, Note_on_c, 1, 62, 0
1, 25392, Note_on_c, 0, 79, 0
1, 25392, Note_on_c, 0, 82, 70
1, 25392, Note_on_c, 1, 65, 80
1, 25392, Note_on_c, 1, 63, 80
1, 25404, Note_on_c, 0, 82, 0
1, 25404, Note_on_c, 0, 81, 70
1, 25416, Note_on_c, 0, 81, 0
1, 25416, Note_on_c, 0, 79, 70
1, 25428, Note_on_c, 0, 79, 0
1, 25428, Note_on_c, 0, 77, 70
1, 25437, Note_on_c, 1, 65, 0
1, 25437, Note_on_c, 1, 63, 0
1, 25440, Note_on_c, 0, 77, 0
1, 25440, Note_on_c, 0, 82, 70
1, 25440, Note_on_c, 1, 65, 80
1, 25440, Note_on_c, 1, 62, 80
1, 25463, Note_on_c, 0, 82, 0
1, 25464, Note_on_c, 0, 74, 70
1, 25476, Note_on_c, 0, 74, 0
1, 25476, Note_on_c, 0, 75, 70
1, 25485, Note_on_c, 1, 65, 0
1, 25485, Note_on_c, 1, 62, 0
1, 25488, Note_on_c, 0, 75, 0
1, 25488, Note_on_c, 0, 79, 70
1, 25500, Note_on_c, 0, 79, 0
1, 25500, Note_on_c, 0, 77, 70
1, 25512, Note_on_c, 0, 77, 0
1, 25512, Note_on_c, 0, 75, 70
1, 25524, Note_on_c, 0, 75, 0
1, 25524, Note_on_c, 0, 74, 70
1, 25536, Note_on_c, 0, 74, 0
1, 25536, Note_on_c, 0, 72, 70
1, 25536, Note_on_c, 1, 67, 80
1, 25536, Note_on_c, 1, 63, 80
1, 25559, Note_on_c, 0, 72, 0
1, 25560, Note_on_c, 0, 72, 70
1, 25572, Note_on_c, 0, 72, 0
1, 25572, Note_on_c, 0, 74, 70
1, 25581, Note_on_c, 1, 67, 0
1, 25581, Note_on_c, 1, 63, 0
1, 25584, Note_on_c, 0, 74, 0
1, 25584, Note_on_c, 0, 77, 70
1, 25596, Note_on_c, 0, 77, 0
1, 25596, Note_on_c, 0, 75, 70
1, 25608, Note_on_c, 0, 75, 0
1, 25608, Note_on_c, 0, 74, 70
1, 25620, Note_on_c, 0, 74, 0
1, 25620, Note_on_c, 0, 72, 70
1, 25632, Note_on_c, 0, 72, 0
1, 25632, Note_on_c, 0, 70, 80
1, 25632, Note_on_c, 1, 62, 80
1, 25632, Note_on_c, 1, 53, 80
1, 25655, Note_on_c, 0, 70, 0
1, 25656, Note_on_c, 0, 69, 78
1, 25668, Note_on_c, 0, 69, 0
1, 25668, Note_on_c, 0, 70, 78
1, 25677, Note_on_c, 1, 62, 0
1, 25680, Note_on_c, 0, 70, 0
1, 25680, Note_on_c, 0, 74, 77
1, 25680, Note_on_c, 1, 60, 77
1, 25692, Note_on_c, 0, 74, 0
1, 25692, Note_on_c, 0, 72, 76
1, 25704, Note_on_c, 0, 72, 0
1, 25704, Note_on_c, 0, 70, 76
1, 25716, Note_on_c, 0, 70, 0
1, 25716, Note_on_c, 0, 69, 75
1, 25721, Note_on_c, 1, 53, 0
1, 25725, Note_on_c, 1, 60, 0
1, 25728, Note_on_c, 0, 69, 0
1, 25728, Note_on_c, 0, 70, 75
1, 25728, Note_on_c, 1, 58, 80
1, 25738, Note_on_c, 0, 70, 0
1, 25752, Note_on_c, 0, 74, 75
1, 25762, Note_on_c, 0, 74, 0
1, 25776, Note_on_c, 0, 75, 75
1, 25776, Note_on_c, 1, 65, 75
1, 25788, Note_on_c, 0, 75, 0
1, 25788, Note_on_c, 0, 74, 75
1, 25800, Note_on_c, 0, 74, 0
1, 25800, Note_on_c, 0, 72, 75
1, 25812, Note_on_c, 0, 72, 0
1, 25812, Note_on_c, 0, 70, 75
1, 25817, Note_on_c, 1, 58, 0
1, 25824, Note_on_c, 0, 70, 0
1, 25824, Note_on_c, 0, 69, 75
1, 25824, Note_on_c, 1, 60, 80
1, 25834, Note_on_c, 0, 69, 0
1, 25848, Note_on_c, 0, 69, 75
1, 25858, Note_on_c, 0, 69, 0
1, 25865, Note_on_c, 1, 65, 0
1, 25872, Note_on_c, 0, 70, 75
1, 25872, Note_on_c, 1, 65, 75
1, 25884, Note_on_c, 0, 70, 0
1, 25884, Note_on_c, 0, 69, 75
1, 25896, Note_on_c, 0, 69, 0
1, 25896, Note_on_c, 0, 67, 75
1, 25908, Note_on_c, 0, 67, 0
1, 25908, Note_on_c, 0, 65, 75
1, 25913, Note_on_c, 1, 60, 0
1, 25920, Note_on_c, 0, 65, 0
1, 25920, Note_on_c, 0, 70, 75
1, 25920, Note_on_c, 1, 62, 80
1, 25930, Note_on_c, 0, 70, 0
1, 25944, Note_on_c, 0, 70, 75
1, 25954, Note_on_c, 0, 70, 0
1, 25965, Note_on_c, 1, 65, 0
1, 25968, Note_on_c, 1, 65, 75
1, 25992, Note_on_c, 0, 74, 75
1, 26002, Note_on_c, 0, 74, 0
1, 26009, Note_on_c, 1, 62, 0
1, 26016, Note_on_c, 0, 71, 75
1, 26016, Note_on_c, 1, 57, 80
1, 26040, Note_on_c, 0, 71, 0
1, 26040, Note_on_c, 0, 72, 75
1, 26057, Note_on_c, 1, 65, 0
1, 26063, Note_on_c, 0, 72, 0
1, 26064, Note_on_c, 1, 65, 75
1, 26088, Note_on_c, 0, 75, 75
1, 26098, Note_on_c, 0, 75, 0
1, 26105, Note_on_c, 1, 57, 0
1, 26112, Note_on_c, 0, 74, 75
1, 26112, Note_on_c, 1, 58, 80
1, 26127, Note_on_c, 0, 74, 0
1, 26128, Note_on_c, 0, 79, 75
1, 26143, Note_on_c, 0, 79, 0
1, 26144, Note_on_c, 0, 77, 75
1, 26157, Note_on_c, 1, 65, 0
1, 26159, Note_on_c, 0, 77, 0
1, 26160, Note_on_c, 0, 75, 75
1, 26160, Note_on_c, 1, 65, 75
1, 26175, Note_on_c, 0, 75, 0
1, 26176, Note_on_c, 0, 74, 75
1, 26191, Note_on_c, 0, 74, 0
1, 26192, Note_on_c, 0, 72, 75
1, 26201, Note_on_c, 1, 58, 0
1, 26207, Note_on_c, 0, 72, 0
1, 26208, Note_on_c, 0, 70, 75
1, 26208, Note_on_c, 1, 60, 80
1, 26218, Note_on_c, 0, 70, 0
1, 26232, Note_on_c, 0, 69, 75
1, 26249, Note_on_c, 1, 65, 0
1, 26256, Note_on_c, 1, 65, 75
1, 26277, Note_on_c, 0, 69, 0
1, 26280, Note_on_c, 0, 72, 75
1, 26297, Note_on_c, 1, 60, 0
1, 26304, Note_on_c, 1, 62, 80
1, 26327, Note_on_c, 0, 72, 0
1, 26328, Note_on_c, 0, 70, 75
1, 26349, Note_on_c, 1, 65, 0
1, 26352, Note_on_c, 1, 65, 75
1, 26373, Note_on_c, 0, 70, 0
1, 26376, Note_on_c, 0, 74, 75
1, 26393, Note_on_c, 1, 62, 0
1, 26400, Note_on_c, 1, 57, 80
1, 26421, Note_on_c, 0, 74, 0
1, 26424, Note_on_c, 0, 72, 75
1, 26441, Note_on_c, 1, 65, 0
1, 26448, Note_on_c, 1, 65, 75
1, 26469, Note_on_c, 0, 72, 0
1, 26472, Note_on_c, 0, 75, 75
1, 26482, Note_on_c, 0, 75, 0
1, 26489, Note_on_c, 1, 57, 0
1, 26496, Note_on_c, 0, 74, 75
1, 26496, Note_on_c, 1, 58, 80
1, 26506, Note_on_c, 0, 74, 0
1, 26520, Note_on_c, 0, 74, 75
1, 26530, Note_on_c, 0, 74, 0
1, 26541, Note_on_c, 1, 65, 0
1, 26544, Note_on_c, 0, 75, 75
1, 26544, Note_on_c, 1, 65, 75
1, 26556, Note_on_c, 0, 75, 0
1, 26556, Note_on_c, 0, 74, 75
1, 26568, Note_on_c, 0, 74, 0
1, 26568, Note_on_c, 0, 72, 75
1, 26580, Note_on_c, 0, 72, 0
1, 26580, Note_on_c, 0, 70, 75
1, 26585, Note_on_c, 1, 58, 0
1, 26592, Note_on_c, 0, 70, 0
1, 26592, Note_on_c, 0, 69, 75
1, 26592, Note_on_c, 1, 60, 80
1, 26602, Note_on_c, 0, 69, 0
1, 26616, Note_on_c, 0, 69, 75
1, 26626, Note_on_c, 0, 69, 0
1, 26633, Note_on_c, 1, 65, 0
1, 26640, Note_on_c, 0, 70, 75
1, 26640, Note_on_c, 1, 65, 75
1, 26652, Note_on_c, 0, 70, 0
1, 26652, Note_on_c, 0, 69, 75
1, 26664, Note_on_c, 0, 69, 0
1, 26664, Note_on_c, 0, 67, 75
1, 26676, Note_on_c, 0, 67, 0
1, 26676, Note_on_c, 0, 65, 75
1, 26681, Note_on_c, 1, 60, 0
1, 26688, Note_on_c, 0, 65, 0
1, 26688, Note_on_c, 0, 70, 75
1, 26688, Note_on_c, 1, 62, 80
1, 26698, Note_on_c, 0, 70, 0
1, 26712, Note_on_c, 0, 70, 75
1, 26733, Note_on_c, 1, 65, 0
1, 26736, Note_on_c, 1, 65, 75
1, 26757, Note_on_c, 0, 70, 0
1, 26760, Note_on_c, 0, 71, 75
1, 26777, Note_on_c, 1, 62, 0
1, 26784, Note_on_c, 1, 57, 80
1, 26805, Note_on_c, 0, 71, 0
1, 26808, Note_on_c, 0, 72, 75
1, 26825, Note_on_c, 1, 65, 0
1, 26832, Note_on_c, 1, 65, 75
1, 26853, Note_on_c, 0, 72, 0
1, 26856, Note_on_c, 0, 73, 75
1, 26873, Note_on_c, 1, 57, 0
1, 26880, Note_on_c, 1, 58, 80
1, 26903, Note_on_c, 0, 73, 0
1, 26904, Note_on_c, 0, 74, 75
1, 26925, Note_on_c, 1, 65, 0
1, 26928, Note_on_c, 1, 70, 75
1, 26949, Note_on_c, 0, 74, 0
1, 26952, Note_on_c, 0, 75, 75
1, 26969, Note_on_c, 1, 58, 0
1, 26976, Note_on_c, 1, 60, 81
1, 26997, Note_on_c, 0, 75, 0
1, 27000, Note_on_c, 0, 76, 76
1, 27021, Note_on_c, 1, 60, 0
1, 27024, Note_on_c, 1, 61, 81
1, 27045, Note_on_c, 0, 76, 0
1, 27048, Note_on_c, 0, 77, 77
1, 27069, Note_on_c, 1, 61, 0
1, 27072, Note_on_c, 1, 62, 82
1, 27095, Note_on_c, 0, 77, 0
1, 27096, Note_on_c, 0, 78, 77
1, 27117, Note_on_c, 1, 62, 0
1, 27120, Note_on_c, 1, 63, 83
1, 27141, Note_on_c, 0, 78, 0
1, 27144, Note_on_c, 0, 79, 78
1, 27165, Note_on_c, 1, 63, 0
1, 27168, Note_on_c, 1, 65, 83
1, 27189, Note_on_c, 0, 79, 0
1, 27192, Note_on_c, 0, 80, 78
1, 27213, Note_on_c, 1, 65, 0
1, 27216, Note_on_c, 1, 62, 84
1, 27237, Note_on_c, 0, 80, 0
1, 27240, Note_on_c, 0, 78, 79
1, 27261, Note_on_c, 1, 62, 0
1, 27264, Note_on_c, 1, 63, 84
1, 27287, Note_on_c, 0, 78, 0
1, 27288, Note_on_c, 0, 79, 80
1, 27311, Note_on_c, 0, 79, 0
1, 27312, Note_on_c, 0, 74, 79
1, 27335, Note_on_c, 0, 74, 0
1, 27336, Note_on_c, 0, 75, 78
1, 27353, Note_on_c, 1, 70, 0
1, 27353, Note_on_c, 1, 63, 0
1, 27359, Note_on_c, 0, 75, 0
1, 27360, Note_on_c, 0, 71, 77
1, 27383, Note_on_c, 0, 71, 0
1, 27384, Note_on_c, 0, 72, 77
1, 27407, Note_on_c, 0, 72, 0
1, 27408, Note_on_c, 0, 75, 76
1, 27431, Note_on_c, 0, 75, 0
1, 27432, Note_on_c, 0, 79, 75
1, 27455, Note_on_c, 0, 79, 0
1, 27456, Note_on_c, 0, 70, 75
1, 27480, Note_on_c, 1, 53, 75
1, 27492, Note_on_c, 1, 53, 0
1, 27492, Note_on_c, 1, 60, 75
1, 27501, Note_on_c, 0, 70, 0
1, 27504, Note_on_c, 0, 69, 75
1, 27504, Note_on_c, 1, 60, 0
1, 27504, Note_on_c, 1, 65, 75
1, 27527, Note_on_c, 1, 65, 0
1, 27528, Note_on_c, 1, 60, 75
1, 27549, Note_on_c, 0, 69, 0
1, 27551, Note_on_c, 1, 60, 0
1, 27552, Note_on_c, 0, 70, 75
1, 27552, Note_on_c, 1, 63, 75
1, 27575, Note_on_c, 1, 63, 0
1, 27576, Note_on_c, 1, 62, 75
1, 27597, Note_on_c, 0, 70, 0
1, 27599, Note_on_c, 1, 62, 0
1, 27600, Note_on_c, 1, 60, 75
1, 27623, Note_on_c, 1, 60, 0
1, 27624, Note_on_c, 1, 58, 75
1, 27647, Note_on_c, 1, 58, 0
1, 27648, Note_on_c, 1, 58, 75
1, 27672, Note_on_c, 0, 65, 75
1, 27684, Note_on_c, 0, 65, 0
1, 27684, Note_on_c, 0, 72, 75
1, 27696, Note_on_c, 0, 72, 0
1, 27696, Note_on_c, 0, 77, 75
1, 27696, Note_on_c, 1, 58, 0
1, 27696, Note_on_c, 1, 57, 75
1, 27719, Note_on_c, 0, 77, 0
1, 27720, Note_on_c, 0, 72, 75
1, 27737, Note_on_c, 1, 57, 0
1, 27743, Note_on_c, 0, 72, 0
1, 27744, Note_on_c, 0, 75, 75
1, 27744, Note_on_c, 1, 58, 75
1, 27767, Note_on_c, 0, 75, 0
1, 27768, Note_on_c, 0, 74, 75
1, 27789, Note_on_c, 1, 58, 0
1, 27791, Note_on_c, 0, 74, 0
1, 27792, Note_on_c, 0, 72, 75
1, 27815, Note_on_c, 0, 72, 0
1, 27816, Note_on_c, 0, 70, 75
1, 27839, Note_on_c, 0, 70, 0
1, 27840, Note_on_c, 0, 70, 75
1, 27864, Note_on_c, 1, 41, 75
1, 27876, Note_on_c, 1, 41, 0
1, 27876, Note_on_c, 1, 48, 75
1, 27888, Note_on_c, 0, 70, 0
1, 27888, Note_on_c, 0, 69, 75
1, 27888, Note_on_c, 1, 48, 0
1, 27888, Note_on_c, 1, 53, 75
1, 27911, Note_on_c, 1, 53, 0
1, 27912, Note_on_c, 1, 48, 75
1, 27929, Note_on_c, 0, 69, 0
1, 27935, Note_on_c, 1, 48, 0
1, 27936, Note_on_c, 0, 70, 75
1, 27936, Note_on_c, 1, 51, 75
1, 27959, Note_on_c, 1, 51, 0
1, 27960, Note_on_c, 1, 50, 75
1, 27981, Note_on_c, 0, 70, 0
1, 27983, Note_on_c, 1, 50, 0
1, 27984, Note_on_c, 1, 48, 75
1, 27990, Note_on_c, 1, 48, 0
1, 27990, Note_on_c, 1, 50, 75
1, 27996, Note_on_c, 1, 50, 0
1, 27996, Note_on_c, 1, 48, 75
1, 28007, Note_on_c, 1, 48, 0
1, 28008, Note_on_c, 1, 46, 75
1, 28031, Note_on_c, 1, 46, 0
1, 28032, Note_on_c, 1, 46, 75
1, 28056, Note_on_c, 0, 53, 75
1, 28068, Note_on_c, 0, 53, 0
1, 28068, Note_on_c, 0, 60, 75
1, 28080, Note_on_c, 0, 60, 0
1, 28080, Note_on_c, 0, 65, 75
1, 28080, Note_on_c, 1, 46, 0
1, 28080, Note_on_c, 1, 45, 75
1, 28103, Note_on_c, 0, 65, 0
1, 28104, Note_on_c, 0, 60, 75
1, 28121, Note_on_c, 1, 45, 0
1, 28127, Note_on_c, 0, 60, 0
1, 28128, Note_on_c, 0, 63, 75
1, 28128, Note_on_c, 1, 46, 75
1, 28151, Note_on_c, 0, 63, 0
1, 28152, Note_on_c, 0, 62, 75
1, 28173, Note_on_c, 1, 46, 0
1, 28175, Note_on_c, 0, 62, 0
1, 28176, Note_on_c, 0, 60, 75
1, 28182, Note_on_c, 0, 60, 0
1, 28182, Note_on_c, 0, 62, 75
1, 28188, Note_on_c, 0, 62, 0
1, 28188, Note_on_c, 0, 60, 75
1, 28199, Note_on_c, 0, 60, 0
1, 28200, Note_on_c, 0, 58, 75
1, 28223, Note_on_c, 0, 58, 0
1, 28224, Note_on_c, 1, 51, 75
1, 28224, Note_on_c, 1, 39, 75
1, 28236, Note_on_c, 0, 67, 75
1, 28248, Note_on_c, 0, 67, 0
1, 28248, Note_on_c, 0, 72, 75
1, 28260, Note_on_c, 0, 72, 0
1, 28260, Note_on_c, 0, 74, 75
1, 28272, Note_on_c, 0, 74, 0
1, 28272, Note_on_c, 0, 75, 75
1, 28284, Note_on_c, 0, 75, 0
1, 28284, Note_on_c, 0, 72, 75
1, 28296, Note_on_c, 0, 72, 0
1, 28296, Note_on_c, 0, 75, 75
1, 28308, Note_on_c, 0, 75, 0
1, 28308, Note_on_c, 0, 77, 75
1, 28313, Note_on_c, 1, 51, 0
1, 28313, Note_on_c, 1, 39, 0
1, 28320, Note_on_c, 0, 77, 0
1, 28320, Note_on_c, 0, 79, 75
1, 28332, Note_on_c, 0, 79, 0
1, 28332, Note_on_c, 0, 77, 75
1, 28344, Note_on_c, 0, 77, 0
1, 28344, Note_on_c, 0, 75, 75
1, 28356, Note_on_c, 0, 75, 0
1, 28356, Note_on_c, 0, 74, 75
1, 28368, Note_on_c, 0, 74, 0
1, 28368, Note_on_c, 0, 72, 75
1, 28380, Note_on_c, 0, 72, 0
1, 28380, Note_on_c, 0, 70, 75
1, 28392, Note_on_c, 0, 70, 0
1, 28392, Note_on_c, 0, 69, 75
1, 28404, Note_on_c, 0, 69, 0
1, 28404, Note_on_c, 0, 67, 75
1, 28416, Note_on_c, 0, 67, 0
1, 28416, Note_on_c, 0, 65, 75
1, 28439, Note_on_c, 0, 65, 0
1, 28440, Note_on_c, 0, 81, 75
1, 28463, Note_on_c, 0, 81, 0
1, 28464, Note_on_c, 1, 63, 75
1, 28488, Note_on_c, 0, 84, 75
1, 28509, Note_on_c, 1, 63, 0
1, 28511, Note_on_c, 0, 84, 0
1, 28512, Note_on_c, 1, 62, 75
1, 28536, Note_on_c, 0, 82, 75
1, 28557, Note_on_c, 1, 62, 0
1, 28559, Note_on_c, 0, 82, 0
1, 28560, Note_on_c, 1, 70, 75
1, 28584, Note_on_c, 0, 78, 75
1, 28605, Note_on_c, 1, 70, 0
1, 28607, Note_on_c, 0, 78, 0
1, 28608, Note_on_c, 1, 63, 75
1, 28632, Note_on_c, 0, 78, 75
1, 28644, Note_on_c, 0, 78, 0
1, 28644, Note_on_c, 0, 79, 75
1, 28653, Note_on_c, 1, 63, 0
1, 28656, Note_on_c, 0, 79, 0
1, 28656, Note_on_c, 0, 77, 75
1, 28668, Note_on_c, 0, 77, 0
1, 28668, Note_on_c, 0, 75, 75
1, 28680, Note_on_c, 0, 75, 0
1, 28680, Note_on_c, 0, 74, 75
1, 28692, Note_on_c, 0, 74, 0
1, 28692, Note_on_c, 0, 72, 75
1, 28704, Note_on_c, 0, 72, 0
1, 28704, Note_on_c, 0, 70, 75
1, 28704, Note_on_c, 1, 62, 75
1, 28704, Note_on_c, 1, 53, 86
1, 28749, Note_on_c, 0, 70, 0
1, 28749, Note_on_c, 1, 62, 0
1, 28752, Note_on_c, 0, 69, 75
1, 28752, Note_on_c, 1, 60, 75
1, 28759, Note_on_c, 0, 69, 0
1, 28759, Note_on_c, 0, 70, 75
1, 28766, Note_on_c, 0, 70, 0
1, 28766, Note_on_c, 0, 69, 75
1, 28773, Note_on_c, 0, 69, 0
1, 28773, Note_on_c, 0, 70, 75
1, 28780, Note_on_c, 0, 70, 0
1, 28780, Note_on_c, 0, 69, 75
1, 28787, Note_on_c, 0, 69, 0
1, 28787, Note_on_c, 0, 67, 75
1, 28793, Note_on_c, 1, 53, 0
1, 28794, Note_on_c, 0, 67, 0
1, 28794, Note_on_c, 0, 69, 75
1, 28797, Note_on_c, 1, 60, 0
1, 28800, Note_on_c, 0, 69, 0
1, 28800, Note_on_c, 0, 70, 75
1, 28800, Note_on_c, 1, 58, 75
1, 28800, Note_on_c, 1, 55, 75
1, 28834, Note_on_c, 0, 70, 0
1, 28836, Note_on_c, 0, 82, 75
1, 28848, Note_on_c, 0, 82, 0
1, 28848, Note_on_c, 0, 84, 75
1, 28860, Note_on_c, 0, 84, 0
1, 28860, Note_on_c, 0, 82, 75
1, 28872, Note_on_c, 0, 82, 0
1, 28872, Note_on_c, 0, 81, 75
1, 28884, Note_on_c, 0, 81, 0
1, 28884, Note_on_c, 0, 79, 75
1, 28889, Note_on_c, 1, 58, 0
1, 28889, Note_on_c, 1, 55, 0
1, 28896, Note_on_c, 0, 79, 0
1, 28896, Note_on_c, 0, 81, 75
1, 28908, Note_on_c, 0, 81, 0
1, 28908, Note_on_c, 0, 79, 75
1, 28920, Note_on_c, 0, 79, 0
1, 28920, Note_on_c, 0, 77, 75
1, 28932, Note_on_c, 0, 77, 0
1, 28932, Note_on_c, 0, 76, 75
1, 28944, Note_on_c, 0, 76, 0
1, 28944, Note_on_c, 0, 81, 75
1, 28944, Note_on_c, 1, 70, 75
1, 28944, Note_on_c, 1, 67, 75
1, 28956, Note_on_c, 0, 81, 0
1, 28956, Note_on_c, 0, 79, 75
1, 28968, Note_on_c, 0, 79, 0
1, 28968, Note_on_c, 0, 77, 75
1, 28980, Note_on_c, 0, 77, 0
1, 28980, Note_on_c, 0, 76, 75
1, 28989, Note_on_c, 1, 70, 0
1, 28989, Note_on_c, 1, 67, 0
1, 28992, Note_on_c, 0, 76, 0
1, 28992, Note_on_c, 0, 77, 75
1, 28992, Note_on_c, 1, 72, 75
1, 28992, Note_on_c, 1, 69, 75
1, 29026, Note_on_c, 0, 77, 0
1, 29028, Note_on_c, 0, 84, 75
1, 29040, Note_on_c, 0, 84, 0
1, 29040, Note_on_c, 0, 86, 75
1, 29052, Note_on_c, 0, 86, 0
1, 29052, Note_on_c, 0, 84, 75
1, 29064, Note_on_c, 0, 84, 0
1, 29064, Note_on_c, 0, 82, 75
1, 29076, Note_on_c, 0, 82, 0
1, 29076, Note_on_c, 0, 81, 75
1, 29081, Note_on_c, 1, 72, 0
1, 29081, Note_on_c, 1, 69, 0
1, 29088, Note_on_c, 0, 81, 0
1, 29088, Note_on_c, 0, 82, 75
1, 29100, Note_on_c, 0, 82, 0
1, 29100, Note_on_c, 0, 81, 75
1, 29112, Note_on_c, 0, 81, 0
1, 29112, Note_on_c, 0, 79, 75
1, 29124, Note_on_c, 0, 79, 0
1, 29124, Note_on_c, 0, 77, 75
1, 29136, Note_on_c, 0, 77, 0
1, 29136, Note_on_c, 0, 77, 75
1, 29136, Note_on_c, 1, 65, 75
1, 29136, Note_on_c, 1, 57, 86
1, 29148, Note_on_c, 0, 77, 0
1, 29148, Note_on_c, 0, 75, 75
1, 29160, Note_on_c, 0, 75, 0
1, 29160, Note_on_c, 0, 74, 75
1, 29172, Note_on_c, 0, 74, 0
1, 29172, Note_on_c, 0, 72, 75
1, 29181, Note_on_c, 1, 57, 0
1, 29184, Note_on_c, 0, 72, 0
1, 29184, Note_on_c, 0, 74, 75
1, 29184, Note_on_c, 1, 58, 86
1, 29196, Note_on_c, 0, 74, 0
1, 29196, Note_on_c, 0, 77, 75
1, 29208, Note_on_c, 0, 77, 0
1, 29208, Note_on_c, 0, 75, 75
1, 29220, Note_on_c, 0, 75, 0
1, 29220, Note_on_c, 0, 74, 75
1, 29229, Note_on_c, 1, 65, 0
1, 29229, Note_on_c, 1, 58, 0
1, 29232, Note_on_c, 0, 74, 0
1, 29232, Note_on_c, 0, 79, 75
1, 29232, Note_on_c, 1, 63, 75
1, 29232, Note_on_c, 1, 51, 86
1, 29244, Note_on_c, 0, 79, 0
1, 29244, Note_on_c, 0, 75, 75
1, 29256, Note_on_c, 0, 75, 0
1, 29256, Note_on_c, 0, 74, 75
1, 29268, Note_on_c, 0, 74, 0
1, 29268, Note_on_c, 0, 72, 75
1, 29277, Note_on_c, 1, 63, 0
1, 29277, Note_on_c, 1, 51, 0
1, 29280, Note_on_c, 0, 72, 0
1, 29280, Note_on_c, 0, 70, 75
1, 29280, Note_on_c, 1, 62, 75
1, 29280, Note_on_c, 1, 53, 86
1, 29325, Note_on_c, 0, 70, 0
1, 29325, Note_on_c, 1, 62, 0
1, 29328, Note_on_c, 0, 69, 75
1, 29328, Note_on_c, 1, 60, 75
1, 29335, Note_on_c, 0, 69, 0
1, 29335, Note_on_c, 0, 70, 75
1, 29342, Note_on_c, 0, 70, 0
1, 29342, Note_on_c, 0, 69, 75
1, 29349, Note_on_c, 0, 69, 0
1, 29349, Note_on_c, 0, 70, 75
1, 29356, Note_on_c, 0, 70, 0
1, 29356, Note_on_c, 0, 69, 75
1, 29363, Note_on_c, 0, 69, 0
1, 29363, Note_on_c, 0, 67, 75
1, 29369, Note_on_c, 1, 53, 0
1, 29370, Note_on_c, 0, 67, 0
1, 29370, Note_on_c, 0, 69, 75
1, 29373, Note_on_c, 1, 60, 0
1, 29376, Note_on_c, 0, 69, 0
1, 29376, Note_on_c, 0, 70, 75
1, 29376, Note_on_c, 1, 58, 75
1, 29376, Note_on_c, 1, 55, 75
1, 29410, Note_on_c, 0, 70, 0
1, 29412, Note_on_c, 0, 70, 75
1, 29424, Note_on_c, 0, 70, 0
1, 29424, Note_on_c, 0, 72, 75
1, 29436, Note_on_c, 0, 72, 0
1, 29436, Note_on_c, 0, 70, 75
1, 29448, Note_on_c, 0, 70, 0
1, 29448, Note_on_c, 0, 69, 75
1, 29460, Note_on_c, 0, 69, 0
1, 29460, Note_on_c, 0, 67, 75
1, 29465, Note_on_c, 1, 58, 0
1, 29465, Note_on_c, 1, 55, 0
1, 29472, Note_on_c, 0, 67, 0
1, 29472, Note_on_c, 0, 69, 75
1, 29484, Note_on_c, 0, 69, 0
1, 29484, Note_on_c, 0, 67, 75
1, 29496, Note_on_c, 0, 67, 0
1, 29496, Note_on_c, 0, 65, 75
1, 29508, Note_on_c, 0, 65, 0
1, 29508, Note_on_c, 0, 64, 75
1, 29520, Note_on_c, 0, 64, 0
1, 29520, Note_on_c, 0, 69, 75
1, 29520, Note_on_c, 1, 58, 75
1, 29520, Note_on_c, 1, 55, 75
1, 29532, Note_on_c, 0, 69, 0
1, 29532, Note_on_c, 0, 67, 75
1, 29544, Note_on_c, 0, 67, 0
1, 29544, Note_on_c, 0, 65, 75
1, 29556, Note_on_c, 0, 65, 0
1, 29556, Note_on_c, 0, 64, 75
1, 29565, Note_on_c, 1, 58, 0
1, 29565, Note_on_c, 1, 55, 0
1, 29568, Note_on_c, 0, 64, 0
1, 29568, Note_on_c, 0, 65, 75
1, 29568, Note_on_c, 1, 60, 75
1, 29568, Note_on_c, 1, 57, 75
1, 29602, Note_on_c, 0, 65, 0
1, 29604, Note_on_c, 0, 72, 75
1, 29616, Note_on_c, 0, 72, 0
1, 29616, Note_on_c, 0, 74, 75
1, 29628, Note_on_c, 0, 74, 0
1, 29628, Note_on_c, 0, 72, 75
1, 29640, Note_on_c, 0, 72, 0
1, 29640, Note_on_c, 0, 70, 75
1, 29652, Note_on_c, 0, 70, 0
1, 29652, Note_on_c, 0, 69, 75
1, 29657, Note_on_c, 1, 60, 0
1, 29657, Note_on_c, 1, 57, 0
1, 29664, Note_on_c, 0, 69, 0
1, 29664, Note_on_c, 0, 75, 75
1, 29676, Note_on_c, 0, 75, 0
1, 29676, Note_on_c, 0, 74, 75
1, 29688, Note_on_c, 0, 74, 0
1, 29688, Note_on_c, 0, 72, 75
1, 29700, Note_on_c, 0, 72, 0
1, 29700, Note_on_c, 0, 70, 75
1, 29712, Note_on_c, 0, 70, 0
1, 29712, Note_on_c, 0, 69, 75
1, 29712, Note_on_c, 1, 53, 75
1, 29712, Note_on_c, 1, 45, 86
1, 29724, Note_on_c, 0, 69, 0
1, 29724, Note_on_c, 0, 67, 75
1, 29736, Note_on_c, 0, 67, 0
1, 29736, Note_on_c, 0, 65, 75
1, 29748, Note_on_c, 0, 65, 0
1, 29748, Note_on_c, 0, 63, 75
1, 29757, Note_on_c, 1, 45, 0
1, 29760, Note_on_c, 0, 63, 0
1, 29760, Note_on_c, 0, 62, 75
1, 29760, Note_on_c, 1, 46, 86
1, 29772, Note_on_c, 0, 62, 0
1, 29772, Note_on_c, 0, 65, 75
1, 29784, Note_on_c, 0, 65, 0
1, 29784, Note_on_c, 0, 69, 75
1, 29796, Note_on_c, 0, 69, 0
1, 29796, Note_on_c, 0, 70, 75
1, 29805, Note_on_c, 1, 53, 0
1, 29805, Note_on_c, 1, 46, 0
1, 29808, Note_on_c, 0, 70, 0
1, 29808, Note_on_c, 0, 69, 75
1, 29808, Note_on_c, 1, 51, 86
1, 29820, Note_on_c, 0, 69, 0
1, 29820, Note_on_c, 0, 67, 75
1, 29832, Note_on_c, 0, 67, 0
1, 29832, Note_on_c, 0, 65, 75
1, 29844, Note_on_c, 0, 65, 0
1, 29844, Note_on_c, 0, 63, 75
1, 29853, Note_on_c, 1, 51, 0
1, 29856, Note_on_c, 0, 63, 0
1, 29856, Note_on_c, 0, 62, 75
1, 29856, Note_on_c, 1, 53, 75
1, 29901, Note_on_c, 0, 62, 0
1, 29901, Note_on_c, 1, 53, 0
1, 29904, Note_on_c, 0, 60, 75
1, 29904, Note_on_c, 1, 41, 75
1, 29911, Note_on_c, 0, 60, 0
1, 29911, Note_on_c, 0, 62, 75
1, 29918, Note_on_c, 0, 62, 0
1, 29918, Note_on_c, 0, 60, 75
1, 29925, Note_on_c, 0, 60, 0
1, 29925, Note_on_c, 0, 62, 75
1, 29932, Note_on_c, 0, 62, 0
1, 29932, Note_on_c, 0, 60, 75
1, 29939, Note_on_c, 0, 60, 0
1, 29939, Note_on_c, 0, 58, 75
1, 29946, Note_on_c, 0, 58, 0
1, 29946, Note_on_c, 0, 60, 75
1, 29949, Note_on_c, 1, 41, 0
1, 29952, Note_on_c, 0, 60, 0
1, 29952, Note_on_c, 0, 58, 75
1, 29952, Note_on_c, 1, 46, 75
1, 29997, Note_on_c, 1, 46, 0
1, 30000, Note_on_c, 1, 34, 75
1, 30041, Note_on_c, 0, 58, 0
1, 30045, Note_on_c, 1, 34, 0
1, 30120, Note_on_c, 0, 65, 75
1, 30143, Note_on_c, 0, 65, 0
1, 30144, Note_on_c, 0, 67, 75
1, 30144, Note_on_c, 1, 57, 75
1, 30144, Note_on_c, 1, 53, 75
1, 30150, Note_on_c, 0, 67, 0
1, 30150, Note_on_c, 0, 65, 75
1, 30156, Note_on_c, 0, 65, 0
1, 30156, Note_on_c, 0, 63, 75
1, 30162, Note_on_c, 0, 63, 0
1, 30162, Note_on_c, 0, 65, 75
1, 30178, Note_on_c, 0, 65, 0
1, 30180, Note_on_c, 0, 69, 75
1, 30192, Note_on_c, 0, 69, 0
1, 30192, Note_on_c, 0, 70, 75
1, 30198, Note_on_c, 0, 70, 0
1, 30198, Note_on_c, 0, 69, 75
1, 30204, Note_on_c, 0, 69, 0
1, 30204, Note_on_c, 0, 67, 75
1, 30210, Note_on_c, 0, 67, 0
1, 30210, Note_on_c, 0, 69, 75
1, 30226, Note_on_c, 0, 69, 0
1, 30228, Note_on_c, 0, 72, 75
1, 30233, Note_on_c, 1, 57, 0
1, 30233, Note_on_c, 1, 53, 0
1, 30240, Note_on_c, 0, 72, 0
1, 30240, Note_on_c, 0, 74, 75
1, 30246, Note_on_c, 0, 74, 0
1, 30246, Note_on_c, 0, 72, 75
1, 30252, Note_on_c, 0, 72, 0
1, 30252, Note_on_c, 0, 71, 75
1, 30258, Note_on_c, 0, 71, 0
1, 30258, Note_on_c, 0, 72, 75
1, 30274, Note_on_c, 0, 72, 0
1, 30276, Note_on_c, 0, 77, 75
1, 30288, Note_on_c, 0, 77, 0
1, 30288, Note_on_c, 0, 76, 75
1, 30288, Note_on_c, 1, 69, 75
1, 30288, Note_on_c, 1, 65, 75
1, 30322, Note_on_c, 0, 76, 0
1, 30324, Note_on_c, 0, 74, 75
1, 30333, Note_on_c, 1, 69, 0
1, 30333, Note_on_c, 1, 65, 0
1, 30336, Note_on_c, 0, 74, 0
1, 30336, Note_on_c, 0, 74, 75
1, 30336, Note_on_c, 1, 67, 75
1, 30336, Note_on_c, 1, 64, 75
1, 30359, Note_on_c, 0, 74, 0
1, 30360, Note_on_c, 0, 72, 75
1, 30383, Note_on_c, 0, 72, 0
1, 30384, Note_on_c, 0, 72, 75
1, 30425, Note_on_c, 1, 67, 0
1, 30425, Note_on_c, 1, 64, 0
1, 30432, Note_on_c, 1, 64, 75
1, 30432, Note_on_c, 1, 60, 75
1, 30466, Note_on_c, 0, 72, 0
1, 30468, Note_on_c, 0, 74, 75
1, 30477, Note_on_c, 1, 64, 0
1, 30477, Note_on_c, 1, 60, 0
1, 30480, Note_on_c, 0, 74, 0
1, 30480, Note_on_c, 0, 70, 75
1, 30514, Note_on_c, 0, 70, 0
1, 30516, Note_on_c, 0, 72, 75
1, 30528, Note_on_c, 0, 72, 0
1, 30528, Note_on_c, 0, 69, 75
1, 30528, Note_on_c, 1, 65, 75
1, 30528, Note_on_c, 1, 53, 75
1, 30562, Note_on_c, 0, 69, 0
1, 30564, Note_on_c, 0, 70, 75
1, 30573, Note_on_c, 1, 65, 0
1, 30573, Note_on_c, 1, 53, 0
1, 30576, Note_on_c, 0, 70, 0
1, 30576, Note_on_c, 0, 67, 75
1, 30576, Note_on_c, 1, 62, 75
1, 30576, Note_on_c, 1, 58, 75
1, 30610, Note_on_c, 0, 67, 0
1, 30612, Note_on_c, 0, 69, 75
1, 30621, Note_on_c, 1, 62, 0
1, 30621, Note_on_c, 1, 58, 0
1, 30624, Note_on_c, 0, 69, 0
1, 30624, Note_on_c, 0, 65, 75
1, 30624, Note_on_c, 1, 60, 75
1, 30624, Note_on_c, 1, 57, 75
1, 30658, Note_on_c, 0, 65, 0
1, 30660, Note_on_c, 0, 67, 75
1, 30669, Note_on_c, 1, 60, 0
1, 30669, Note_on_c, 1, 57, 0
1, 30672, Note_on_c, 0, 67, 0
1, 30672, Note_on_c, 0, 64, 75
1, 30672, Note_on_c, 1, 58, 75
1, 30672, Note_on_c, 1, 48, 75
1, 30706, Note_on_c, 0, 64, 0
1, 30708, Note_on_c, 0, 67, 75
1, 30717, Note_on_c, 1, 58, 0
1, 30717, Note_on_c, 1, 48, 0
1, 30720, Note_on_c, 0, 67, 0
1, 30720, Note_on_c, 0, 67, 75
1, 30720, Note_on_c, 1, 57, 75
1, 30720, Note_on_c, 1, 53, 75
1, 30732, Note_on_c, 0, 67, 0
1, 30732, Note_on_c, 0, 65, 75
1, 30744, Note_on_c, 0, 65, 0
1, 30744, Note_on_c, 0, 64, 75
1, 30756, Note_on_c, 0, 64, 0
1, 30756, Note_on_c, 0, 65, 75
1, 30765, Note_on_c, 1, 57, 0
1, 30765, Note_on_c, 1, 53, 0
1, 30768, Note_on_c, 0, 65, 0
1, 30768, Note_on_c, 0, 60, 75
1, 30804, Note_on_c, 1, 53, 75
1, 30813, Note_on_c, 0, 60, 0
1, 30816, Note_on_c, 1, 53, 0
1, 30816, Note_on_c, 1, 53, 75
1, 30828, Note_on_c, 1, 53, 0
1, 30828, Note_on_c, 1, 52, 75
1, 30840, Note_on_c, 1, 52, 0
1, 30840, Note_on_c, 1, 50, 75
1, 30852, Note_on_c, 1, 50, 0
1, 30852, Note_on_c, 1, 48, 75
1, 30864, Note_on_c, 1, 48, 0
1, 30864, Note_on_c, 1, 48, 75
1, 30876, Note_on_c, 1, 48, 0
1, 30876, Note_on_c, 1, 46, 75
1, 30888, Note_on_c, 0, 65, 75
1, 30888, Note_on_c, 1, 46, 0
1, 30888, Note_on_c, 1, 45, 75
1, 30900, Note_on_c, 1, 45, 0
1, 30900, Note_on_c, 1, 43, 75
1, 30911, Note_on_c, 0, 65, 0
1, 30912, Note_on_c, 0, 67, 75
1, 30912, Note_on_c, 1, 43, 0
1, 30912, Note_on_c, 1, 41, 75
1, 30918, Note_on_c, 0, 67, 0
1, 30918, Note_on_c, 0, 65, 75
1, 30924, Note_on_c, 0, 65, 0
1, 30924, Note_on_c, 0, 63, 75
1, 30930, Note_on_c, 0, 63, 0
1, 30930, Note_on_c, 0, 65, 75
1, 30946, Note_on_c, 0, 65, 0
1, 30948, Note_on_c, 0, 69, 75
1, 30960, Note_on_c, 0, 69, 0
1, 30960, Note_on_c, 0, 70, 75
1, 30966, Note_on_c, 0, 70, 0
1, 30966, Note_on_c, 0, 69, 75
1, 30972, Note_on_c, 0, 69, 0
1, 30972, Note_on_c, 0, 67, 75
1, 30978, Note_on_c, 0, 67, 0
1, 30978, Note_on_c, 0, 69, 75
1, 30994, Note_on_c, 0, 69, 0
1, 30996, Note_on_c, 0, 72, 75
1, 31001, Note_on_c, 1, 41, 0
1, 31008, Note_on_c, 0, 72, 0
1, 31008, Note_on_c, 0, 74, 75
1, 31014, Note_on_c, 0, 74, 0
1, 31014, Note_on_c, 0, 72, 75
1, 31020, Note_on_c, 0, 72, 0
1, 31020, Note_on_c, 0, 71, 75
1, 31026, Note_on_c, 0, 71, 0
1, 31026, Note_on_c, 0, 72, 75
1, 31042, Note_on_c, 0, 72, 0
1, 31044, Note_on_c, 0, 77, 75
1, 31056, Note_on_c, 0, 77, 0
1, 31056, Note_on_c, 0, 79, 75
1, 31062, Note_on_c, 0, 79, 0
1, 31062, Note_on_c, 0, 77, 75
1, 31068, Note_on_c, 0, 77, 0
1, 31068, Note_on_c, 0, 75, 75
1, 31074, Note_on_c, 0, 75, 0
1, 31074, Note_on_c, 0, 77, 75
1, 31090, Note_on_c, 0, 77, 0
1, 31092, Note_on_c, 0, 80, 75
1, 31104, Note_on_c, 0, 80, 0
1, 31104, Note_on_c, 0, 80, 64
1, 31128, Note_on_c, 0, 80, 0
1, 31128, Note_on_c, 0, 71, 64
1, 31151, Note_on_c, 0, 71, 0
1, 31152, Note_on_c, 1, 65, 64
1, 31176, Note_on_c, 0, 71, 64
1, 31186, Note_on_c, 0, 71, 0
1, 31197, Note_on_c, 1, 65, 0
1, 31200, Note_on_c, 0, 74, 64
1, 31224, Note_on_c, 0, 74, 0
1, 31224, Note_on_c, 0, 72, 64
1, 31247, Note_on_c, 0, 72, 0
1, 31248, Note_on_c, 1, 63, 64
1, 31272, Note_on_c, 0, 72, 64
1, 31282, Note_on_c, 0, 72, 0
1, 31293, Note_on_c, 1, 63, 0
1, 31296, Note_on_c, 0, 82, 64
1, 31320, Note_on_c, 0, 82, 0
1, 31320, Note_on_c, 0, 73, 64
1, 31343, Note_on_c, 0, 73, 0
1, 31344, Note_on_c, 1, 67, 64
1, 31368, Note_on_c, 0, 73, 64
1, 31378, Note_on_c, 0, 73, 0
1, 31389, Note_on_c, 1, 67, 0
1, 31392, Note_on_c, 0, 76, 64
1, 31416, Note_on_c, 0, 76, 0
1, 31416, Note_on_c, 0, 74, 64
1, 31439, Note_on_c, 0, 74, 0
1, 31440, Note_on_c, 1, 66, 64
1, 31485, Note_on_c, 1, 66, 0
1, 31488, Tempo, 1200000
1, 31584, Tempo, 923076
1, 31656, Note_on_c, 0, 86, 64
1, 31666, Note_on_c, 0, 86, 0
1, 31680, Note_on_c, 0, 86, 64
1, 31703, Note_on_c, 0, 86, 0
1, 31704, Note_on_c, 0, 84, 64
1, 31728, Note_on_c, 1, 67, 80
1, 31749, Note_on_c, 0, 84, 0
1, 31752, Note_on_c, 0, 75, 64
1, 31773, Note_on_c, 1, 67, 0
1, 31776, Note_on_c, 1, 66, 80
1, 31797, Note_on_c, 0, 75, 0
1, 31800, Note_on_c, 0, 74, 64
1, 31824, Note_on_c, 1, 72, 64
1, 31845, Note_on_c, 0, 74, 0
1, 31848, Note_on_c, 0, 86, 64
1, 31858, Note_on_c, 0, 86, 0
1, 31865, Note_on_c, 1, 66, 0
1, 31869, Note_on_c, 1, 72, 0
1, 31872, Note_on_c, 0, 86, 64
1, 31895, Note_on_c, 0, 86, 0
1, 31896, Note_on_c, 0, 84, 64
1, 31920, Note_on_c, 1, 67, 80
1, 31941, Note_on_c, 0, 84, 0
1, 31944, Note_on_c, 0, 75, 64
1, 31965, Note_on_c, 1, 67, 0
1, 31968, Note_on_c, 1, 66, 80
1, 31989, Note_on_c, 0, 75, 0
1, 31992, Note_on_c, 0, 74, 64
1, 32016, Note_on_c, 1, 72, 75
1, 32037, Note_on_c, 0, 74, 0
1, 32040, Note_on_c, 0, 86, 71
1, 32050, Note_on_c, 0, 86, 0
1, 32057, Note_on_c, 1, 66, 0
1, 32061, Note_on_c, 1, 72, 0
1, 32064, Note_on_c, 0, 84, 80
1, 32064, Note_on_c, 1, 67, 80
1, 32087, Note_on_c, 0, 84, 0
1, 32088, Note_on_c, 0, 83, 80
1, 32112, Note_on_c, 1, 74, 80
1, 32133, Note_on_c, 0, 83, 0
1, 32136, Note_on_c, 0, 77, 80
1, 32153, Note_on_c, 1, 67, 0
1, 32157, Note_on_c, 1, 74, 0
1, 32160, Note_on_c, 1, 72, 80
1, 32160, Note_on_c, 1, 72, 80
1, 32181, Note_on_c, 0, 77, 0
1, 32184, Note_on_c, 0, 76, 80
1, 32205, Note_on_c, 1, 72, 0
1, 32208, Note_on_c, 1, 60, 80
1, 32229, Note_on_c, 0, 76, 0
1, 32232, Note_on_c, 0, 84, 80
1, 32242, Note_on_c, 0, 84, 0
1, 32249, Note_on_c, 1, 72, 0
1, 32253, Note_on_c, 1, 60, 0
1, 32256, Note_on_c, 0, 82, 80
1, 32256, Note_on_c, 1, 65, 80
1, 32279, Note_on_c, 0, 82, 0
1, 32280, Note_on_c, 0, 81, 80
1, 32304, Note_on_c, 1, 72, 80
1, 32325, Note_on_c, 0, 81, 0
1, 32328, Note_on_c, 0, 75, 80
1, 32345, Note_on_c, 1, 65, 0
1, 32349, Note_on_c, 1, 72, 0
1, 32352, Note_on_c, 1, 70, 80
1, 32352, Note_on_c, 1, 70, 80
1, 32373, Note_on_c, 0, 75, 0
1, 32376, Note_on_c, 0, 74, 80
1, 32397, Note_on_c, 1, 70, 0
1, 32400, Note_on_c, 1, 58, 80
1, 32421, Note_on_c, 0, 74, 0
1, 32424, Note_on_c, 0, 82, 80
1, 32434, Note_on_c, 0, 82, 0
1, 32441, Note_on_c, 1, 70, 0
1, 32445, Note_on_c, 1, 58, 0
1, 32448, Note_on_c, 0, 81, 80
1, 32448, Note_on_c, 1, 63, 80
1, 32471, Note_on_c, 0, 81, 0
1, 32472, Note_on_c, 0, 79, 80
1, 32496, Note_on_c, 1, 70, 80
1, 32517, Note_on_c, 0, 79, 0
1, 32520, Note_on_c, 0, 74, 80
1, 32537, Note_on_c, 1, 63, 0
1, 32541, Note_on_c, 1, 70, 0
1, 32544, Note_on_c, 1, 69, 80
1, 32544, Note_on_c, 1, 69, 80
1, 32565, Note_on_c, 0, 74, 0
1, 32568, Note_on_c, 0, 72, 80
1, 32589, Note_on_c, 1, 69, 0
1, 32592, Note_on_c, 1, 57, 80
1, 32613, Note_on_c, 0, 72, 0
1, 32616, Note_on_c, 0, 81, 80
1, 32626, Note_on_c, 0, 81, 0
1, 32633, Note_on_c, 1, 69, 0
1, 32637, Note_on_c, 1, 57, 0
1, 32640, Note_on_c, 0, 79, 80
1, 32640, Note_on_c, 1, 62, 80
1, 32663, Note_on_c, 0, 79, 0
1, 32664, Note_on_c, 0, 78, 80
1, 32688, Note_on_c, 1, 69, 80
1, 32709, Note_on_c, 0, 78, 0
1, 32712, Note_on_c, 0, 72, 80
1, 32729, Note_on_c, 1, 62, 0
1, 32733, Note_on_c, 1, 69, 0
1, 32736, Note_on_c, 1, 67, 80
1, 32736, Note_on_c, 1, 67, 80
1, 32757, Note_on_c, 0, 72, 0
1, 32760, Note_on_c, 0, 70, 80
1, 32781, Note_on_c, 1, 67, 0
1, 32784, Note_on_c, 1, 61, 80
1, 32805, Note_on_c, 0, 70, 0
1, 32808, Note_on_c, 0, 79, 80
1, 32818, Note_on_c, 0, 79, 0
1, 32825, Note_on_c, 1, 67, 0
1, 32829, Note_on_c, 1, 61, 0
1, 32832, Note_on_c, 0, 70, 80
1, 32832, Note_on_c, 1, 67, 80
1, 32832, Note_on_c, 1, 62, 80
1, 32839, Note_on_c, 0, 70, 0
1, 32839, Note_on_c, 0, 72, 80
1, 32846, Note_on_c, 0, 72, 0
1, 32846, Note_on_c, 0, 70, 80
1, 32853, Note_on_c, 0, 70, 0
1, 32853, Note_on_c, 0, 72, 80
1, 32860, Note_on_c, 0, 72, 0
1, 32860, Note_on_c, 0, 70, 80
1, 32867, Note_on_c, 0, 70, 0
1, 32867, Note_on_c, 0, 69, 80
1, 32874, Note_on_c, 0, 69, 0
1, 32874, Note_on_c, 0, 70, 80
1, 32877, Note_on_c, 1, 67, 0
1, 32880, Note_on_c, 0, 70, 0
1, 32880, Note_on_c, 0, 69, 80
1, 32880, Note_on_c, 1, 66, 80
1, 32921, Note_on_c, 1, 62, 0
1, 32925, Note_on_c, 0, 69, 0
1, 32925, Note_on_c, 1, 66, 0
1, 32928, Note_on_c, 1, 50, 80
1, 32952, Note_on_c, 0, 74, 80
1, 32964, Note_on_c, 0, 74, 0
1, 32964, Note_on_c, 0, 76, 80
1, 32973, Note_on_c, 1, 50, 0
1, 32976, Note_on_c, 0, 76, 0
1, 32976, Note_on_c, 0, 79, 80
1, 32976, Note_on_c, 1, 62, 80
1, 32976, Note_on_c, 1, 60, 80
1, 32988, Note_on_c, 0, 79, 0
1, 32988, Note_on_c, 0, 78, 80
1, 33000, Note_on_c, 0, 78, 0
1, 33000, Note_on_c, 0, 76, 80
1, 33012, Note_on_c, 0, 76, 0
1, 33012, Note_on_c, 0, 74, 80
1, 33021, Note_on_c, 1, 62, 0
1, 33021, Note_on_c, 1, 60, 0
1, 33024, Note_on_c, 0, 74, 0
1, 33024, Note_on_c, 0, 79, 80
1, 33024, Note_on_c, 1, 62, 80
1, 33024, Note_on_c, 1, 58, 80
1, 33047, Note_on_c, 0, 79, 0
1, 33048, Note_on_c, 0, 74, 80
1, 33060, Note_on_c, 0, 74, 0
1, 33060, Note_on_c, 0, 76, 80
1, 33069, Note_on_c, 1, 62, 0
1, 33069, Note_on_c, 1, 58, 0
1, 33072, Note_on_c, 0, 76, 0
1, 33072, Note_on_c, 0, 79, 80
1, 33072, Note_on_c, 1, 62, 80
1, 33072, Note_on_c, 1, 60, 80
1, 33084, Note_on_c, 0, 79, 0
1, 33084, Note_on_c, 0, 78, 80
1, 33096, Note_on_c, 0, 78, 0
1, 33096, Note_on_c, 0, 76, 80
1, 33108, Note_on_c, 0, 76, 0
1, 33108, Note_on_c, 0, 74, 80
1, 33117, Note_on_c, 1, 62, 0
1, 33117, Note_on_c, 1, 60, 0
1, 33120, Note_on_c, 0, 74, 0
1, 33120, Note_on_c, 0, 79, 80
1, 33120, Note_on_c, 1, 62, 80
1, 33120, Note_on_c, 1, 58, 80
1, 33143, Note_on_c, 0, 79, 0
1, 33144, Note_on_c, 0, 79, 80
1, 33156, Note_on_c, 0, 79, 0
1, 33156, Note_on_c, 0, 81, 80
1, 33165, Note_on_c, 1, 62, 0
1, 33165, Note_on_c, 1, 58, 0
1, 33168, Note_on_c, 0, 81, 0
1, 33168, Note_on_c, 0, 84, 80
1, 33168, Note_on_c, 1, 62, 80
1, 33168, Note_on_c, 1, 54, 80
1, 33180, Note_on_c, 0, 84, 0
1, 33180, Note_on_c, 0, 82, 78
1, 33192, Note_on_c, 0, 82, 0
1, 33192, Note_on_c, 0, 81, 77
1, 33204, Note_on_c, 0, 81, 0
1, 33204, Note_on_c, 0, 79, 76
1, 33213, Note_on_c, 1, 62, 0
1, 33213, Note_on_c, 1, 54, 0
1, 33216, Note_on_c, 0, 79, 0
1, 33216, Note_on_c, 0, 82, 75
1, 33216, Note_on_c, 1, 62, 75
1, 33216, Note_on_c, 1, 55, 75
1, 33226, Note_on_c, 0, 82, 0
1, 33240, Note_on_c, 0, 82, 75
1, 33250, Note_on_c, 0, 82, 0
1, 33261, Note_on_c, 1, 62, 0
1, 33264, Note_on_c, 1, 62, 75
1, 33288, Note_on_c, 0, 86, 75
1, 33305, Note_on_c, 1, 55, 0
1, 33312, Note_on_c, 0, 86, 0
1, 33312, Note_on_c, 0, 78, 75
1, 33312, Note_on_c, 1, 57, 75
1, 33322, Note_on_c, 0, 78, 0
1, 33336, Note_on_c, 0, 78, 75
1, 33346, Note_on_c, 0, 78, 0
1, 33353, Note_on_c, 1, 62, 0
1, 33360, Note_on_c, 1, 62, 75
1, 33384, Note_on_c, 0, 81, 75
1, 33401, Note_on_c, 1, 57, 0
1, 33408, Note_on_c, 0, 81, 0
1, 33408, Note_on_c, 0, 79, 75
1, 33408, Note_on_c, 1, 58, 75
1, 33431, Note_on_c, 0, 79, 0
1, 33432, Note_on_c, 0, 79, 75
1, 33442, Note_on_c, 0, 79, 0
1, 33453, Note_on_c, 1, 62, 0
1, 33456, Note_on_c, 1, 62, 75
1, 33480, Note_on_c, 0, 82, 75
1, 33497, Note_on_c, 1, 58, 0
1, 33504, Note_on_c, 0, 82, 0
1, 33504, Note_on_c, 0, 81, 75
1, 33504, Note_on_c, 1, 54, 75
1, 33527, Note_on_c, 0, 81, 0
1, 33528, Note_on_c, 0, 81, 75
1, 33538, Note_on_c, 0, 81, 0
1, 33545, Note_on_c, 1, 62, 0
1, 33552, Note_on_c, 1, 62, 75
1, 33576, Note_on_c, 0, 84, 75
1, 33593, Note_on_c, 1, 54, 0
1, 33600, Note_on_c, 0, 84, 0
1, 33600, Note_on_c, 0, 82, 75
1, 33600, Note_on_c, 1, 55, 75
1, 33610, Note_on_c, 0, 82, 0
1, 33624, Note_on_c, 0, 82, 75
1, 33634, Note_on_c, 0, 82, 0
1, 33645, Note_on_c, 1, 62, 0
1, 33648, Note_on_c, 0, 84, 75
1, 33648, Note_on_c, 1, 62, 75
1, 33660, Note_on_c, 0, 84, 0
1, 33660, Note_on_c, 0, 82, 75
1, 33672, Note_on_c, 0, 82, 0
1, 33672, Note_on_c, 0, 81, 75
1, 33684, Note_on_c, 0, 81, 0
1, 33684, Note_on_c, 0, 79, 75
1, 33689, Note_on_c, 1, 55, 0
1, 33696, Note_on_c, 0, 79, 0
1, 33696, Note_on_c, 0, 78, 75
1, 33696, Note_on_c, 1, 57, 75
1, 33706, Note_on_c, 0, 78, 0
1, 33720, Note_on_c, 0, 78, 75
1, 33730, Note_on_c, 0, 78, 0
1, 33735, Note_on_c, 1, 57, 0
1, 33737, Note_on_c, 1, 62, 0
1, 33744, Note_on_c, 0, 79, 75
1, 33744, Note_on_c, 1, 62, 75
1, 33756, Note_on_c, 0, 79, 0
1, 33756, Note_on_c, 0, 78, 75
1, 33768, Note_on_c, 0, 78, 0
1, 33768, Note_on_c, 0, 76, 75
1, 33780, Note_on_c, 0, 76, 0
1, 33780, Note_on_c, 0, 74, 75
1, 33792, Note_on_c, 0, 74, 0
1, 33792, Note_on_c, 0, 79, 75
1, 33792, Note_on_c, 1, 58, 75
1, 33802, Note_on_c, 0, 79, 0
1, 33812, Note_on_c, 1, 62, 0
1, 33816, Note_on_c, 0, 79, 75
1, 33826, Note_on_c, 0, 79, 0
1, 33831, Note_on_c, 1, 58, 0
1, 33840, Note_on_c, 1, 62, 75
1, 33864, Note_on_c, 0, 82, 75
1, 33887, Note_on_c, 0, 82, 0
1, 33888, Note_on_c, 0, 80, 75
1, 33888, Note_on_c, 1, 54, 75
1, 33912, Note_on_c, 0, 80, 0
1, 33912, Note_on_c, 0, 81, 75
1, 33929, Note_on_c, 1, 62, 0
1, 33935, Note_on_c, 0, 81, 0
1, 33936, Note_on_c, 1, 62, 75
1, 33960, Note_on_c, 0, 84, 75
1, 33977, Note_on_c, 1, 54, 0
1, 33984, Note_on_c, 1, 55, 75
1, 34007, Note_on_c, 0, 84, 0
1, 34008, Note_on_c, 0, 82, 75
1, 34029, Note_on_c, 1, 55, 0
1, 34032, Note_on_c, 1, 57, 75
1, 34053, Note_on_c, 0, 82, 0
1, 34056, Note_on_c, 0, 81, 75
1, 34077, Note_on_c, 1, 57, 0
1, 34080, Note_on_c, 1, 58, 75
1, 34101, Note_on_c, 0, 81, 0
1, 34104, Note_on_c, 0, 79, 76
1, 34125, Note_on_c, 1, 58, 0
1, 34128, Note_on_c, 1, 59, 75
1, 34149, Note_on_c, 0, 79, 0
1, 34152, Note_on_c, 0, 77, 77
1, 34161, Note_on_c, 1, 62, 0
1, 34173, Note_on_c, 1, 59, 0
1, 34176, Note_on_c, 1, 63, 75
1, 34176, Note_on_c, 1, 60, 75
1, 34199, Note_on_c, 0, 77, 0
1, 34200, Note_on_c, 0, 75, 77
1, 34221, Note_on_c, 1, 63, 0
1, 34221, Note_on_c, 1, 60, 0
1, 34224, Note_on_c, 1, 65, 75
1, 34224, Note_on_c, 1, 62, 75
1, 34245, Note_on_c, 0, 75, 0
1, 34248, Note_on_c, 0, 74, 78
1, 34269, Note_on_c, 1, 65, 0
1, 34269, Note_on_c, 1, 62, 0
1, 34272, Note_on_c, 1, 67, 75
1, 34272, Note_on_c, 1, 63, 75
1, 34293, Note_on_c, 0, 74, 0
1, 34296, Note_on_c, 0, 72, 78
1, 34317, Note_on_c, 1, 67, 0
1, 34317, Note_on_c, 1, 63, 0
1, 34320, Note_on_c, 1, 68, 75
1, 34320, Note_on_c, 1, 65, 75
1, 34341, Note_on_c, 0, 72, 0
1, 34344, Note_on_c, 0, 71, 79
1, 34368, Note_on_c, 1, 68, 0
1, 34368, Note_on_c, 1, 65, 0
1, 34368, Note_on_c, 1, 67, 75
1, 34368, Note_on_c, 1, 63, 75
1, 34391, Note_on_c, 0, 71, 0
1, 34392, Note_on_c, 0, 72, 80
1, 34415, Note_on_c, 0, 72, 0
1, 34416, Note_on_c, 0, 79, 80
1, 34439, Note_on_c, 0, 79, 0
1, 34440, Note_on_c, 0, 75, 80
1, 34457, Note_on_c, 1, 67, 0
1, 34457, Note_on_c, 1, 63, 0
1, 34463, Note_on_c, 0, 75, 0
1, 34464, Note_on_c, 0, 74, 80
1, 34487, Note_on_c, 0, 74, 0
1, 34488, Note_on_c, 0, 72, 80
1, 34512, Note_on_c, 1, 68, 75
1, 34512, Note_on_c, 1, 65, 75
1, 34533, Note_on_c, 0, 72, 0
1, 34536, Note_on_c, 0, 71, 75
1, 34560, Note_on_c, 1, 68, 0
1, 34560, Note_on_c, 1, 65, 0
1, 34560, Note_on_c, 1, 67, 75
1, 34560, Note_on_c, 1, 63, 75
1, 34583, Note_on_c, 0, 71, 0
1, 34584, Note_on_c, 0, 72, 75
1, 34607, Note_on_c, 0, 72, 0
1, 34608, Note_on_c, 0, 79, 75
1, 34631, Note_on_c, 0, 79, 0
1, 34632, Note_on_c, 0, 75, 75
1, 34649, Note_on_c, 1, 67, 0
1, 34649, Note_on_c, 1, 63, 0
1, 34655, Note_on_c, 0, 75, 0
1, 34656, Note_on_c, 0, 74, 75
1, 34679, Note_on_c, 0, 74, 0
1, 34680, Note_on_c, 0, 72, 75
1, 34704, Note_on_c, 1, 68, 75
1, 34704, Note_on_c, 1, 65, 75
1, 34725, Note_on_c, 0, 72, 0
1, 34728, Note_on_c, 0, 71, 75
1, 34752, Note_on_c, 1, 68, 0
1, 34752, Note_on_c, 1, 65, 0
1, 34752, Note_on_c, 1, 67, 75
1, 34752, Note_on_c, 1, 63, 75
1, 34775, Note_on_c, 0, 71, 0
1, 34776, Note_on_c, 0, 72, 75
1, 34799, Note_on_c, 0, 72, 0
1, 34800, Note_on_c, 0, 79, 75
1, 34823, Note_on_c, 0, 79, 0
1, 34824, Note_on_c, 0, 75, 75
1, 34847, Note_on_c, 0, 75, 0
1, 34848, Note_on_c, 0, 79, 75
1, 34871, Note_on_c, 0, 79, 0
1, 34872, Note_on_c, 0, 75, 75
1, 34895, Note_on_c, 0, 75, 0
1, 34896, Note_on_c, 0, 79, 75
1, 34919, Note_on_c, 0, 79, 0
1, 34920, Note_on_c, 0, 75, 75
1, 34929, Note_on_c, 1, 67, 0
1, 34929, Note_on_c, 1, 63, 0
1, 34943, Note_on_c, 0, 75, 0
1, 34944, Note_on_c, 0, 74, 75
1, 34992, Note_on_c, 0, 70, 64
1, 34992, Note_on_c, 1, 63, 75
1, 35015, Note_on_c, 0, 70, 0
1, 35016, Note_on_c, 0, 67, 64
1, 35037, Note_on_c, 1, 63, 0
1, 35039, Note_on_c, 0, 67, 0
1, 35040, Note_on_c, 0, 74, 0
1, 35040, Note_on_c, 0, 73, 75
1, 35040, Note_on_c, 0, 70, 64
1, 35040, Note_on_c, 1, 63, 75
1, 35063, Note_on_c, 0, 70, 0
1, 35064, Note_on_c, 0, 67, 64
1, 35085, Note_on_c, 1, 63, 0
1, 35087, Note_on_c, 0, 67, 0
1, 35088, Note_on_c, 0, 70, 64
1, 35088, Note_on_c, 1, 63, 75
1, 35111, Note_on_c, 0, 70, 0
1, 35112, Note_on_c, 0, 67, 64
1, 35129, Note_on_c, 0, 73, 0
1, 35133, Note_on_c, 1, 63, 0
1, 35135, Note_on_c, 0, 67, 0
1, 35136, Note_on_c, 0, 74, 75
1, 35136, Note_on_c, 0, 66, 64
1, 35160, Note_on_c, 1, 50, 80
1, 35172, Note_on_c, 1, 50, 0
1, 35172, Note_on_c, 1, 57, 80
1, 35181, Note_on_c, 0, 74, 0
1, 35181, Note_on_c, 0, 66, 0
1, 35184, Note_on_c, 1, 57, 0
1, 35184, Note_on_c, 1, 62, 80
1, 35207, Note_on_c, 1, 62, 0
1, 35208, Note_on_c, 1, 57, 80
1, 35231, Note_on_c, 1, 57, 0
1, 35232, Note_on_c, 1, 60, 80
1, 35255, Note_on_c, 1, 60, 0
1, 35256, Note_on_c, 1, 58, 80
1, 35279, Note_on_c, 1, 58, 0
1, 35280, Note_on_c, 1, 57, 80
1, 35303, Note_on_c, 1, 57, 0
1, 35304, Note_on_c, 1, 55, 80
1, 35327, Note_on_c, 1, 55, 0
1, 35328, Note_on_c, 1, 55, 80
1, 35352, Note_on_c, 0, 62, 75
1, 35364, Note_on_c, 0, 62, 0
1, 35364, Note_on_c, 0, 69, 75
1, 35373, Note_on_c, 1, 55, 0
1, 35376, Note_on_c, 0, 69, 0
1, 35376, Note_on_c, 0, 74, 75
1, 35376, Note_on_c, 1, 54, 80
1, 35399, Note_on_c, 0, 74, 0
1, 35400, Note_on_c, 0, 69, 75
1, 35421, Note_on_c, 1, 54, 0
1, 35423, Note_on_c, 0, 69, 0
1, 35424, Note_on_c, 0, 72, 75
1, 35424, Note_on_c, 1, 55, 80
1, 35447, Note_on_c, 0, 72, 0
1, 35448, Note_on_c, 0, 70, 75
1, 35469, Note_on_c, 1, 55, 0
1, 35471, Note_on_c, 0, 70, 0
1, 35472, Note_on_c, 0, 69, 75
1, 35495, Note_on_c, 0, 69, 0
1, 35496, Note_on_c, 0, 67, 75
1, 35519, Note_on_c, 0, 67, 0
1, 35520, Note_on_c, 0, 67, 75
1, 35544, Note_on_c, 1, 38, 80
1, 35556, Note_on_c, 1, 38, 0
1, 35556, Note_on_c, 1, 45, 80
1, 35565, Note_on_c, 0, 67, 0
1, 35568, Note_on_c, 0, 66, 75
1, 35568, Note_on_c, 1, 45, 0
1, 35568, Note_on_c, 1, 50, 80
1, 35591, Note_on_c, 1, 50, 0
1, 35592, Note_on_c, 1, 45, 80
1, 35613, Note_on_c, 0, 66, 0
1, 35615, Note_on_c, 1, 45, 0
1, 35616, Note_on_c, 0, 67, 75
1, 35616, Note_on_c, 1, 48, 80
1, 35639, Note_on_c, 1, 48, 0
1, 35640, Note_on_c, 1, 46, 80
1, 35661, Note_on_c, 0, 67, 0
1, 35663, Note_on_c, 1, 46, 0
1, 35664, Note_on_c, 1, 45, 80
1, 35670, Note_on_c, 1, 45, 0
1, 35670, Note_on_c, 1, 46, 80
1, 35676, Note_on_c, 1, 46, 0
1, 35676, Note_on_c, 1, 45, 80
1, 35687, Note_on_c, 1, 45, 0
1, 35688, Note_on_c, 1, 43, 80
1, 35711, Note_on_c, 1, 43, 0
1, 35712, Note_on_c, 1, 43, 80
1, 35736, Note_on_c, 0, 74, 75
1, 35748, Note_on_c, 0, 74, 0
1, 35748, Note_on_c, 0, 81, 75
1, 35757, Note_on_c, 1, 43, 0
1, 35760, Note_on_c, 0, 81, 0
1, 35760, Note_on_c, 0, 86, 75
1, 35760, Note_on_c, 1, 42, 80
1, 35783, Note_on_c, 0, 86, 0
1, 35784, Note_on_c, 0, 81, 76
1, 35805, Note_on_c, 1, 42, 0
1, 35807, Note_on_c, 0, 81, 0
1, 35808, Note_on_c, 0, 84, 77
1, 35808, Note_on_c, 1, 43, 80
1, 35831, Note_on_c, 0, 84, 0
1, 35832, Note_on_c, 0, 82, 77
1, 35853, Note_on_c, 1, 43, 0
1, 35855, Note_on_c, 0, 82, 0
1, 35856, Note_on_c, 0, 81, 78
1, 35862, Note_on_c, 0, 81, 0
1, 35862, Note_on_c, 0, 82, 78
1, 35868, Note_on_c, 0, 82, 0
1, 35868, Note_on_c, 0, 81, 78
1, 35879, Note_on_c, 0, 81, 0
1, 35880, Note_on_c, 0, 79, 79
1, 35903, Note_on_c, 0, 79, 0
1, 35904, Note_on_c, 1, 51, 80
1, 35904, Note_on_c, 1, 39, 80
1, 35916, Note_on_c, 0, 67, 80
1, 35928, Note_on_c, 0, 67, 0
1, 35928, Note_on_c, 0, 72, 80
1, 35940, Note_on_c, 0, 72, 0
1, 35940, Note_on_c, 0, 75, 80
1, 35952, Note_on_c, 0, 75, 0
1, 35952, Note_on_c, 0, 79, 80
1, 35964, Note_on_c, 0, 79, 0
1, 35964, Note_on_c, 0, 71, 80
1, 35976, Note_on_c, 0, 71, 0
1, 35976, Note_on_c, 0, 72, 80
1, 35988, Note_on_c, 0, 72, 0
1, 35988, Note_on_c, 0, 75, 80
1, 35993, Note_on_c, 1, 51, 0
1, 35993, Note_on_c, 1, 39, 0
1, 36000, Note_on_c, 0, 75, 0
1, 36000, Note_on_c, 0, 79, 80
1, 36012, Note_on_c, 0, 79, 0
1, 36012, Note_on_c, 0, 71, 80
1, 36024, Note_on_c, 0, 71, 0
1, 36024, Note_on_c, 0, 72, 80
1, 36036, Note_on_c, 0, 72, 0
1, 36036, Note_on_c, 0, 75, 80
1, 36048, Note_on_c, 0, 75, 0
1, 36048, Note_on_c, 0, 79, 80
1, 36071, Note_on_c, 0, 79, 0
1, 36072, Note_on_c, 1, 51, 80
1, 36072, Note_on_c, 1, 39, 80
1, 36082, Note_on_c, 1, 51, 0
1, 36082, Note_on_c, 1, 39, 0
1, 36096, Note_on_c, 1, 50, 80
1, 36096, Note_on_c, 1, 38, 80
1, 36108, Note_on_c, 0, 67, 80
1, 36120, Note_on_c, 0, 67, 0
1, 36120, Note_on_c, 0, 70, 80
1, 36132, Note_on_c, 0, 70, 0
1, 36132, Note_on_c, 0, 74, 80
1, 36141, Note_on_c, 1, 50, 0
1, 36141, Note_on_c, 1, 38, 0
1, 36144, Note_on_c, 0, 74, 0
1, 36144, Note_on_c, 0, 79, 80
1, 36164, Note_on_c, 0, 79, 0
1, 36168, Note_on_c, 1, 50, 80
1, 36168, Note_on_c, 1, 38, 80
1, 36178, Note_on_c, 1, 50, 0
1, 36178, Note_on_c, 1, 38, 0
1, 36192, Note_on_c, 1, 49, 80
1, 36192, Note_on_c, 1, 37, 80
1, 36204, Note_on_c, 0, 67, 80
1, 36216, Note_on_c, 0, 67, 0
1, 36216, Note_on_c, 0, 70, 80
1, 36228, Note_on_c, 0, 70, 0
1, 36228, Note_on_c, 0, 76, 80
1, 36237, Note_on_c, 1, 49, 0
1, 36237, Note_on_c, 1, 37, 0
1, 36240, Note_on_c, 0, 76, 0
1, 36240, Note_on_c, 0, 79, 80
1, 36260, Note_on_c, 0, 79, 0
1, 36264, Note_on_c, 1, 49, 80
1, 36264, Note_on_c, 1, 37, 80
1, 36274, Note_on_c, 1, 49, 0
1, 36274, Note_on_c, 1, 37, 0
1, 36288, Note_on_c, 1, 50, 80
1, 36288, Note_on_c, 1, 38, 80
1, 36333, Note_on_c, 1, 50, 0
1, 36333, Note_on_c, 1, 38, 0
1, 36336, Note_on_c, 0, 82, 80
1, 36336, Note_on_c, 0, 79, 80
1, 36381, Note_on_c, 0, 82, 0
1, 36381, Note_on_c, 0, 79, 0
1, 36384, Note_on_c, 1, 38, 80
1, 36429, Note_on_c, 1, 38, 0
1, 36432, Note_on_c, 0, 66, 80
1, 36477, Note_on_c, 0, 66, 0
1, 36480, Note_on_c, 0, 66, 80
1, 36480, Note_on_c, 0, 60, 64
1, 36480, Note_on_c, 1, 55, 80
1, 36599, Note_on_c, 0, 66, 0
1, 36600, Note_on_c, 0, 67, 80
1, 36606, Note_on_c, 0, 67, 0
1, 36606, Note_on_c, 0, 66, 80
1, 36612, Note_on_c, 0, 66, 0
1, 36612, Note_on_c, 0, 64, 80
1, 36618, Note_on_c, 0, 64, 0
1, 36618, Note_on_c, 0, 66, 80
1, 36624, Note_on_c, 0, 66, 0
1, 36624, Note_on_c, 0, 69, 80
1, 36658, Note_on_c, 0, 69, 0
1, 36660, Note_on_c, 0, 67, 80
1, 36672, Note_on_c, 0, 67, 0
1, 36672, Note_on_c, 0, 67, 70
1, 36672, Note_on_c, 0, 60, 0
1, 36672, Note_on_c, 0, 58, 70
1, 36672, Note_on_c, 1, 55, 0
1, 36672, Note_on_c, 1, 43, 70
1, 36717, Note_on_c, 0, 67, 0
1, 36717, Note_on_c, 1, 43, 0
1, 36744, Note_on_c, 1, 58, 80
1, 36761, Note_on_c, 0, 58, 0
1, 36767, Note_on_c, 1, 58, 0
1, 36768, Note_on_c, 1, 58, 80
1, 36780, Note_on_c, 1, 58, 0
1, 36780, Note_on_c, 1, 57, 80
1, 36792, Note_on_c, 1, 57, 0
1, 36792, Note_on_c, 1, 55, 80
1, 36804, Note_on_c, 1, 55, 0
1, 36804, Note_on_c, 1, 53, 80
1, 36816, Note_on_c, 1, 53, 0
1, 36816, Note_on_c, 1, 53, 80
1, 36828, Note_on_c, 1, 53, 0
1, 36828, Note_on_c, 1, 51, 80
1, 36840, Note_on_c, 0, 70, 75
1, 36840, Note_on_c, 1, 51, 0
1, 36840, Note_on_c, 1, 50, 80
1, 36850, Note_on_c, 0, 70, 0
1, 36852, Note_on_c, 1, 50, 0
1, 36852, Note_on_c, 1, 48, 80
1, 36864, Note_on_c, 0, 72, 75
1, 36864, Note_on_c, 1, 48, 0
1, 36864, Note_on_c, 1, 46, 80
1, 36870, Note_on_c, 0, 72, 0
1, 36870, Note_on_c, 0, 70, 75
1, 36876, Note_on_c, 0, 70, 0
1, 36876, Note_on_c, 0, 69, 75
1, 36882, Note_on_c, 0, 69, 0
1, 36882, Note_on_c, 0, 70, 75
1, 36898, Note_on_c, 0, 70, 0
1, 36900, Note_on_c, 0, 74, 75
1, 36912, Note_on_c, 0, 74, 0
1, 36912, Note_on_c, 0, 75, 75
1, 36918, Note_on_c, 0, 75, 0
1, 36918, Note_on_c, 0, 74, 75
1, 36924, Note_on_c, 0, 74, 0
1, 36924, Note_on_c, 0, 72, 75
1, 36930, Note_on_c, 0, 72, 0
1, 36930, Note_on_c, 0, 74, 75
1, 36946, Note_on_c, 0, 74, 0
1, 36948, Note_on_c, 0, 77, 75
1, 36953, Note_on_c, 1, 46, 0
1, 36960, Note_on_c, 0, 77, 0
1, 36960, Note_on_c, 0, 79, 75
1, 36966, Note_on_c, 0, 79, 0
1, 36966, Note_on_c, 0, 77, 75
1, 36972, Note_on_c, 0, 77, 0
1, 36972, Note_on_c, 0, 75, 75
1, 36978, Note_on_c, 0, 75, 0
1, 36978, Note_on_c, 0, 77, 75
1, 36994, Note_on_c, 0, 77, 0
1, 36996, Note_on_c, 0, 82, 75
1, 37008, Note_on_c, 0, 82, 0
1, 37008, Note_on_c, 0, 81, 75
1, 37008, Note_on_c, 1, 74, 75
1, 37008, Note_on_c, 1, 70, 75
1, 37042, Note_on_c, 0, 81, 0
1, 37044, Note_on_c, 0, 79, 75
1, 37053, Note_on_c, 1, 74, 0
1, 37053, Note_on_c, 1, 70, 0
1, 37056, Note_on_c, 0, 79, 0
1, 37056, Note_on_c, 0, 79, 75
1, 37056, Note_on_c, 1, 72, 75
1, 37056, Note_on_c, 1, 69, 75
1, 37090, Note_on_c, 0, 79, 0
1, 37092, Note_on_c, 0, 77, 75
1, 37104, Note_on_c, 0, 77, 0
1, 37104, Note_on_c, 0, 77, 75
1, 37145, Note_on_c, 1, 72, 0
1, 37145, Note_on_c, 1, 69, 0
1, 37152, Note_on_c, 1, 69, 75
1, 37152, Note_on_c, 1, 65, 75
1, 37186, Note_on_c, 0, 77, 0
1, 37188, Note_on_c, 0, 79, 75
1, 37197, Note_on_c, 1, 69, 0
1, 37197, Note_on_c, 1, 65, 0
1, 37200, Note_on_c, 0, 79, 0
1, 37200, Note_on_c, 0, 75, 75
1, 37234, Note_on_c, 0, 75, 0
1, 37236, Note_on_c, 0, 77, 75
1, 37248, Note_on_c, 0, 77, 0
1, 37248, Note_on_c, 0, 74, 75
1, 37248, Note_on_c, 1, 70, 75
1, 37248, Note_on_c, 1, 58, 75
1, 37282, Note_on_c, 0, 74, 0
1, 37284, Note_on_c, 0, 75, 75
1, 37293, Note_on_c, 1, 70, 0
1, 37293, Note_on_c, 1, 58, 0
1, 37296, Note_on_c, 0, 75, 0
1, 37296, Note_on_c, 0, 72, 75
1, 37296, Note_on_c, 1, 67, 75
1, 37296, Note_on_c, 1, 63, 75
1, 37330, Note_on_c, 0, 72, 0
1, 37332, Note_on_c, 0, 74, 75
1, 37341, Note_on_c, 1, 67, 0
1, 37341, Note_on_c, 1, 63, 0
1, 37344, Note_on_c, 0, 74, 0
1, 37344, Note_on_c, 0, 70, 75
1, 37344, Note_on_c, 1, 65, 75
1, 37344, Note_on_c, 1, 62, 75
1, 37378, Note_on_c, 0, 70, 0
1, 37380, Note_on_c, 0, 72, 75
1, 37389, Note_on_c, 1, 65, 0
1, 37389, Note_on_c, 1, 62, 0
1, 37392, Note_on_c, 0, 72, 0
1, 37392, Note_on_c, 0, 69, 75
1, 37392, Note_on_c, 1, 63, 75
1, 37392, Note_on_c, 1, 53, 75
1, 37426, Note_on_c, 0, 69, 0
1, 37428, Note_on_c, 0, 72, 75
1, 37437, Note_on_c, 1, 63, 0
1, 37437, Note_on_c, 1, 53, 0
1, 37440, Note_on_c, 0, 72, 0
1, 37440, Note_on_c, 0, 72, 75
1, 37440, Note_on_c, 1, 62, 75
1, 37440, Note_on_c, 1, 58, 75
1, 37452, Note_on_c, 0, 72, 0
1, 37452, Note_on_c, 0, 70, 75
1, 37464, Note_on_c, 0, 70, 0
1, 37464, Note_on_c, 0, 69, 75
1, 37476, Note_on_c, 0, 69, 0
1, 37476, Note_on_c, 0, 70, 75
1, 37485, Note_on_c, 1, 62, 0
1, 37485, Note_on_c, 1, 58, 0
1, 37488, Note_on_c, 0, 70, 0
1, 37488, Note_on_c, 0, 65, 75
1, 37508, Note_on_c, 0, 65, 0
1, 37524, Note_on_c, 1, 58, 80
1, 37536, Note_on_c, 1, 58, 0
1, 37536, Note_on_c, 1, 58, 80
1, 37548, Note_on_c, 1, 58, 0
1, 37548, Note_on_c, 1, 57, 80
1, 37560, Note_on_c, 1, 57, 0
1, 37560, Note_on_c, 1, 55, 80
1, 37572, Note_on_c, 1, 55, 0
1, 37572, Note_on_c, 1, 53, 80
1, 37584, Note_on_c, 1, 53, 0
1, 37584, Note_on_c, 1, 53, 80
1, 37596, Note_on_c, 1, 53, 0
1, 37596, Note_on_c, 1, 51, 80
1, 37608, Note_on_c, 1, 51, 0
1, 37608, Note_on_c, 1, 50, 80
1, 37620, Note_on_c, 0, 70, 75
1, 37620, Note_on_c, 1, 50, 0
1, 37620, Note_on_c, 1, 48, 80
1, 37632, Note_on_c, 0, 70, 0
1, 37632, Note_on_c, 0, 72, 75
1, 37632, Note_on_c, 1, 48, 0
1, 37632, Note_on_c, 1, 46, 80
1, 37638, Note_on_c, 0, 72, 0
1, 37638, Note_on_c, 0, 70, 75
1, 37644, Note_on_c, 0, 70, 0
1, 37644, Note_on_c, 0, 69, 75
1, 37650, Note_on_c, 0, 69, 0
1, 37650, Note_on_c, 0, 70, 75
1, 37666, Note_on_c, 0, 70, 0
1, 37668, Note_on_c, 0, 74, 75
1, 37680, Note_on_c, 0, 74, 0
1, 37680, Note_on_c, 0, 75, 75
1, 37686, Note_on_c, 0, 75, 0
1, 37686, Note_on_c, 0, 74, 75
1, 37692, Note_on_c, 0, 74, 0
1, 37692, Note_on_c, 0, 72, 75
1, 37698, Note_on_c, 0, 72, 0
1, 37698, Note_on_c, 0, 74, 75
1, 37714, Note_on_c, 0, 74, 0
1, 37716, Note_on_c, 0, 77, 75
1, 37721, Note_on_c, 1, 46, 0
1, 37728, Note_on_c, 0, 77, 0
1, 37728, Note_on_c, 0, 79, 75
1, 37734, Note_on_c, 0, 79, 0
1, 37734, Note_on_c, 0, 77, 75
1, 37740, Note_on_c, 0, 77, 0
1, 37740, Note_on_c, 0, 75, 75
1, 37746, Note_on_c, 0, 75, 0
1, 37746, Note_on_c, 0, 77, 75
1, 37762, Note_on_c, 0, 77, 0
1, 37764, Note_on_c, 0, 82, 75
1, 37776, Note_on_c, 0, 82, 0
1, 37776, Note_on_c, 0, 81, 75
1, 37776, Note_on_c, 1, 74, 75
1, 37776, Note_on_c, 1, 70, 75
1, 37810, Note_on_c, 0, 81, 0
1, 37812, Note_on_c, 0, 79, 75
1, 37821, Note_on_c, 1, 74, 0
1, 37821, Note_on_c, 1, 70, 0
1, 37824, Note_on_c, 0, 79, 0
1, 37824, Note_on_c, 0, 79, 75
1, 37824, Note_on_c, 1, 72, 75
1, 37824, Note_on_c, 1, 69, 75
1, 37858, Note_on_c, 0, 79, 0
1, 37860, Note_on_c, 0, 77, 75
1, 37872, Note_on_c, 0, 77, 0
1, 37872, Note_on_c, 0, 77, 75
1, 37913, Note_on_c, 1, 72, 0
1, 37913, Note_on_c, 1, 69, 0
1, 37917, Note_on_c, 0, 77, 0
1, 37920, Note_on_c, 1, 72, 75
1, 37920, Note_on_c, 1, 68, 75
1, 37936, Note_on_c, 0, 84, 75
1, 37951, Note_on_c, 0, 84, 0
1, 37952, Note_on_c, 0, 82, 75
1, 37967, Note_on_c, 0, 82, 0
1, 37968, Note_on_c, 0, 80, 75
1, 37983, Note_on_c, 0, 80, 0
1, 37984, Note_on_c, 0, 79, 75
1, 37999, Note_on_c, 0, 79, 0
1, 38000, Note_on_c, 0, 77, 75
1, 38009, Note_on_c, 1, 72, 0
1, 38015, Note_on_c, 0, 77, 0
1, 38016, Note_on_c, 0, 75, 75
1, 38016, Note_on_c, 1, 70, 75
1, 38031, Note_on_c, 0, 75, 0
1, 38032, Note_on_c, 0, 74, 75
1, 38047, Note_on_c, 0, 74, 0
1, 38048, Note_on_c, 0, 73, 75
1, 38063, Note_on_c, 0, 73, 0
1, 38064, Note_on_c, 0, 74, 75
1, 38105, Note_on_c, 1, 68, 0
1, 38109, Note_on_c, 0, 74, 0
1, 38112, Note_on_c, 1, 67, 75
1, 38128, Note_on_c, 0, 82, 75
1, 38143, Note_on_c, 0, 82, 0
1, 38144, Note_on_c, 0, 80, 75
1, 38159, Note_on_c, 0, 80, 0
1, 38160, Note_on_c, 0, 79, 75
1, 38175, Note_on_c, 0, 79, 0
1, 38176, Note_on_c, 0, 77, 75
1, 38191, Note_on_c, 0, 77, 0
1, 38192, Note_on_c, 0, 75, 75
1, 38193, Note_on_c, 1, 70, 0
1, 38207, Note_on_c, 0, 75, 0
1, 38208, Note_on_c, 0, 74, 75
1, 38208, Note_on_c, 1, 68, 75
1, 38223, Note_on_c, 0, 74, 0
1, 38224, Note_on_c, 0, 72, 75
1, 38239, Note_on_c, 0, 72, 0
1, 38240, Note_on_c, 0, 71, 75
1, 38255, Note_on_c, 0, 71, 0
1, 38256, Note_on_c, 0, 72, 75
1, 38271, Note_on_c, 0, 72, 0
1, 38272, Note_on_c, 0, 74, 75
1, 38287, Note_on_c, 0, 74, 0
1, 38288, Note_on_c, 0, 75, 75
1, 38297, Note_on_c, 1, 67, 0
1, 38303, Note_on_c, 0, 75, 0
1, 38304, Note_on_c, 0, 77, 75
1, 38304, Note_on_c, 1, 65, 75
1, 38319, Note_on_c, 0, 77, 0
1, 38320, Note_on_c, 0, 80, 75
1, 38335, Note_on_c, 0, 80, 0
1, 38336, Note_on_c, 0, 79, 75
1, 38351, Note_on_c, 0, 79, 0
1, 38352, Note_on_c, 0, 77, 75
1, 38367, Note_on_c, 0, 77, 0
1, 38368, Note_on_c, 0, 75, 75
1, 38383, Note_on_c, 0, 75, 0
1, 38384, Note_on_c, 0, 74, 75
1, 38385, Note_on_c, 1, 68, 0
1, 38399, Note_on_c, 0, 74, 0
1, 38400, Note_on_c, 0, 72, 75
1, 38400, Note_on_c, 1, 67, 75
1, 38415, Note_on_c, 0, 72, 0
1, 38416, Note_on_c, 0, 71, 75
1, 38431, Note_on_c, 0, 71, 0
1, 38432, Note_on_c, 0, 74, 75
1, 38447, Note_on_c, 0, 74, 0
1, 38448, Note_on_c, 0, 79, 75
1, 38489, Note_on_c, 1, 67, 0
1, 38489, Note_on_c, 1, 65, 0
1, 38493, Note_on_c, 0, 79, 0
1, 38592, Note_on_c, 0, 69, 75
1, 38598, Note_on_c, 0, 69, 0
1, 38598, Note_on_c, 0, 67, 75
1, 38604, Note_on_c, 0, 67, 0
1, 38604, Note_on_c, 0, 65, 75
1, 38608, Note_on_c, 1, 63, 75
1, 38610, Note_on_c, 0, 65, 0
1, 38610, Note_on_c, 0, 67, 75
1, 38623, Note_on_c, 1, 63, 0
1, 38624, Note_on_c, 1, 62, 75
1, 38639, Note_on_c, 1, 62, 0
1, 38640, Note_on_c, 1, 63, 75
1, 38655, Note_on_c, 1, 63, 0
1, 38656, Note_on_c, 1, 62, 75
1, 38671, Note_on_c, 1, 62, 0
1, 38672, Note_on_c, 1, 60, 75
1, 38687, Note_on_c, 1, 60, 0
1, 38688, Note_on_c, 1, 59, 75
1, 38703, Note_on_c, 0, 67, 0
1, 38704, Note_on_c, 0, 68, 75
1, 38719, Note_on_c, 0, 68, 0
1, 38720, Note_on_c, 0, 67, 75
1, 38735, Note_on_c, 0, 67, 0
1, 38736, Note_on_c, 0, 68, 75
1, 38751, Note_on_c, 0, 68, 0
1, 38752, Note_on_c, 0, 67, 75
1, 38767, Note_on_c, 0, 67, 0
1, 38768, Note_on_c, 0, 65, 75
1, 38777, Note_on_c, 1, 59, 0
1, 38783, Note_on_c, 0, 65, 0
1, 38784, Note_on_c, 0, 63, 75
1, 38784, Note_on_c, 1, 60, 75
1, 38799, Note_on_c, 0, 63, 0
1, 38800, Note_on_c, 0, 67, 75
1, 38815, Note_on_c, 0, 67, 0
1, 38816, Note_on_c, 0, 71, 75
1, 38832, Note_on_c, 0, 71, 0
1, 38832, Note_on_c, 0, 72, 75
1, 38847, Note_on_c, 0, 72, 0
1, 38848, Note_on_c, 0, 67, 75
1, 38863, Note_on_c, 0, 67, 0
1, 38864, Note_on_c, 0, 74, 75
1, 38873, Note_on_c, 1, 60, 0
1, 38880, Note_on_c, 0, 74, 0
1, 38880, Note_on_c, 0, 75, 75
1, 38895, Note_on_c, 0, 75, 0
1, 38896, Note_on_c, 0, 72, 75
1, 38911, Note_on_c, 0, 72, 0
1, 38912, Note_on_c, 0, 78, 75
1, 38928, Note_on_c, 0, 78, 0
1, 38928, Note_on_c, 0, 79, 75
1, 38973, Note_on_c, 0, 79, 0
1, 38976, Note_on_c, 0, 67, 75
1, 38982, Note_on_c, 0, 67, 0
1, 38982, Note_on_c, 0, 65, 75
1, 38988, Note_on_c, 0, 65, 0
1, 38988, Note_on_c, 0, 63, 75
1, 38992, Note_on_c, 1, 62, 75
1, 38994, Note_on_c, 0, 63, 0
1, 38994, Note_on_c, 0, 65, 75
1, 39007, Note_on_c, 1, 62, 0
1, 39008, Note_on_c, 1, 60, 75
1, 39023, Note_on_c, 1, 60, 0
1, 39024, Note_on_c, 1, 62, 75
1, 39039, Note_on_c, 1, 62, 0
1, 39040, Note_on_c, 1, 60, 75
1, 39055, Note_on_c, 1, 60, 0
1, 39056, Note_on_c, 1, 58, 75
1, 39071, Note_on_c, 1, 58, 0
1, 39072, Note_on_c, 1, 57, 75
1, 39087, Note_on_c, 0, 65, 0
1, 39088, Note_on_c, 0, 67, 75
1, 39103, Note_on_c, 0, 67, 0
1, 39104, Note_on_c, 0, 65, 75
1, 39119, Note_on_c, 0, 65, 0
1, 39120, Note_on_c, 0, 67, 75
1, 39135, Note_on_c, 0, 67, 0
1, 39136, Note_on_c, 0, 65, 75
1, 39151, Note_on_c, 0, 65, 0
1, 39152, Note_on_c, 0, 63, 75
1, 39161, Note_on_c, 1, 57, 0
1, 39167, Note_on_c, 0, 63, 0
1, 39168, Note_on_c, 0, 62, 75
1, 39168, Note_on_c, 1, 58, 75
1, 39183, Note_on_c, 0, 62, 0
1, 39184, Note_on_c, 0, 65, 75
1, 39199, Note_on_c, 0, 65, 0
1, 39200, Note_on_c, 0, 69, 75
1, 39216, Note_on_c, 0, 69, 0
1, 39216, Note_on_c, 0, 70, 75
1, 39231, Note_on_c, 0, 70, 0
1, 39232, Note_on_c, 0, 65, 75
1, 39247, Note_on_c, 0, 65, 0
1, 39248, Note_on_c, 0, 73, 75
1, 39257, Note_on_c, 1, 58, 0
1, 39264, Note_on_c, 0, 73, 0
1, 39264, Note_on_c, 0, 74, 75
1, 39279, Note_on_c, 0, 74, 0
1, 39280, Note_on_c, 0, 70, 75
1, 39295, Note_on_c, 0, 70, 0
1, 39296, Note_on_c, 0, 76, 75
1, 39312, Note_on_c, 0, 76, 0
1, 39312, Note_on_c, 0, 77, 75
1, 39405, Note_on_c, 0, 77, 0
1, 39528, Note_on_c, 0, 77, 64
1, 39538, Note_on_c, 0, 77, 0
1, 39552, Note_on_c, 0, 77, 64
1, 39575, Note_on_c, 0, 77, 0
1, 39576, Note_on_c, 0, 75, 64
1, 39600, Note_on_c, 1, 58, 64
1, 39621, Note_on_c, 0, 75, 0
1, 39624, Note_on_c, 0, 66, 64
1, 39645, Note_on_c, 1, 58, 0
1, 39648, Note_on_c, 1, 57, 64
1, 39669, Note_on_c, 0, 66, 0
1, 39672, Note_on_c, 0, 65, 64
1, 39696, Note_on_c, 1, 63, 64
1, 39717, Note_on_c, 0, 65, 0
1, 39720, Note_on_c, 0, 77, 64
1, 39730, Note_on_c, 0, 77, 0
1, 39737, Note_on_c, 1, 57, 0
1, 39741, Note_on_c, 1, 63, 0
1, 39744, Note_on_c, 0, 77, 64
1, 39767, Note_on_c, 0, 77, 0
1, 39768, Note_on_c, 0, 75, 64
1, 39792, Note_on_c, 1, 58, 64
1, 39813, Note_on_c, 0, 75, 0
1, 39816, Note_on_c, 0, 66, 64
1, 39837, Note_on_c, 1, 58, 0
1, 39840, Note_on_c, 1, 57, 64
1, 39861, Note_on_c, 0, 66, 0
1, 39864, Note_on_c, 0, 65, 64
1, 39888, Note_on_c, 1, 63, 64
1, 39909, Note_on_c, 0, 65, 0
1, 39912, Note_on_c, 0, 77, 64
1, 39922, Note_on_c, 0, 77, 0
1, 39929, Note_on_c, 1, 57, 0
1, 39933, Note_on_c, 1, 63, 0
1, 39936, Note_on_c, 0, 77, 80
1, 39959, Note_on_c, 0, 77, 0
1, 39960, Note_on_c, 0, 75, 80
1, 39984, Note_on_c, 1, 58, 80
1, 40005, Note_on_c, 0, 75, 0
1, 40008, Note_on_c, 0, 66, 80
1, 40029, Note_on_c, 1, 58, 0
1, 40032, Note_on_c, 1, 57, 80
1, 40053, Note_on_c, 0, 66, 0
1, 40056, Note_on_c, 0, 65, 80
1, 40080, Note_on_c, 1, 63, 64
1, 40101, Note_on_c, 0, 65, 0
1, 40104, Note_on_c, 0, 77, 80
1, 40114, Note_on_c, 0, 77, 0
1, 40125, Note_on_c, 1, 63, 0
1, 40128, Note_on_c, 0, 76, 80
1, 40128, Note_on_c, 1, 63, 64
1, 40140, Note_on_c, 0, 76, 0
1, 40140, Note_on_c, 0, 77, 64
1, 40152, Note_on_c, 0, 77, 0
1, 40152, Note_on_c, 0, 79, 64
1, 40164, Note_on_c, 0, 79, 0
1, 40164, Note_on_c, 0, 77, 65
1, 40176, Note_on_c, 0, 77, 0
1, 40176, Note_on_c, 0, 77, 66
1, 40247, Note_on_c, 0, 77, 0
1, 40248, Note_on_c, 0, 77, 70
1, 40260, Note_on_c, 0, 77, 0
1, 40260, Note_on_c, 0, 79, 70
1, 40261, Note_on_c, 1, 63, 0
1, 40261, Note_on_c, 1, 57, 0
1, 40272, Note_on_c, 0, 79, 0
1, 40272, Note_on_c, 0, 82, 70
1, 40272, Note_on_c, 1, 65, 80
1, 40272, Note_on_c, 1, 63, 80
1, 40284, Note_on_c, 0, 82, 0
1, 40284, Note_on_c, 0, 81, 70
1, 40296, Note_on_c, 0, 81, 0
1, 40296, Note_on_c, 0, 79, 70
1, 40308, Note_on_c, 0, 79, 0
1, 40308, Note_on_c, 0, 77, 70
1, 40317, Note_on_c, 1, 65, 0
1, 40317, Note_on_c, 1, 63, 0
1, 40320, Note_on_c, 0, 77, 0
1, 40320, Note_on_c, 0, 82, 70
1, 40320, Note_on_c, 1, 65, 80
1, 40320, Note_on_c, 1, 62, 80
1, 40343, Note_on_c, 0, 82, 0
1, 40344, Note_on_c, 0, 77, 70
1, 40356, Note_on_c, 0, 77, 0
1, 40356, Note_on_c, 0, 79, 70
1, 40365, Note_on_c, 1, 65, 0
1, 40365, Note_on_c, 1, 62, 0
1, 40368, Note_on_c, 0, 79, 0
1, 40368, Note_on_c, 0, 82, 70
1, 40368, Note_on_c, 1, 65, 80
1, 40368, Note_on_c, 1, 63, 80
1, 40380, Note_on_c, 0, 82, 0
1, 40380, Note_on_c, 0, 81, 70
1, 40392, Note_on_c, 0, 81, 0
1, 40392, Note_on_c, 0, 79, 70
1, 40404, Note_on_c, 0, 79, 0
1, 40404, Note_on_c, 0, 77, 70
1, 40413, Note_on_c, 1, 65, 0
1, 40413, Note_on_c, 1, 63, 0
1, 40416, Note_on_c, 0, 77, 0
1, 40416, Note_on_c, 0, 82, 70
1, 40416, Note_on_c, 1, 65, 80
1, 40416, Note_on_c, 1, 62, 80
1, 40439, Note_on_c, 0, 82, 0
1, 40440, Note_on_c, 0, 74, 70
1, 40452, Note_on_c, 0, 74, 0
1, 40452, Note_on_c, 0, 75, 70
1, 40461, Note_on_c, 1, 65, 0
1, 40461, Note_on_c, 1, 62, 0
1, 40464, Note_on_c, 0, 75, 0
1, 40464, Note_on_c, 0, 79, 70
1, 40476, Note_on_c, 0, 79, 0
1, 40476, Note_on_c, 0, 77, 70
1, 40488, Note_on_c, 0, 77, 0
1, 40488, Note_on_c, 0, 75, 70
1, 40500, Note_on_c, 0, 75, 0
1, 40500, Note_on_c, 0, 74, 70
1, 40512, Note_on_c, 0, 74, 0
1, 40512, Note_on_c, 0, 72, 70
1, 40512, Note_on_c, 1, 67, 80
1, 40512, Note_on_c, 1, 63, 80
1, 40535, Note_on_c, 0, 72, 0
1, 40536, Note_on_c, 0, 72, 70
1, 40548, Note_on_c, 0, 72, 0
1, 40548, Note_on_c, 0, 74, 70
1, 40557, Note_on_c, 1, 67, 0
1, 40557, Note_on_c, 1, 63, 0
1, 40560, Note_on_c, 0, 74, 0
1, 40560, Note_on_c, 0, 77, 70
1, 40572, Note_on_c, 0, 77, 0
1, 40572, Note_on_c, 0, 75, 70
1, 40584, Note_on_c, 0, 75, 0
1, 40584, Note_on_c, 0, 74, 70
1, 40596, Note_on_c, 0, 74, 0
1, 40596, Note_on_c, 0, 72, 70
1, 40608, Note_on_c, 0, 72, 0
1, 40608, Note_on_c, 0, 70, 80
1, 40608, Note_on_c, 1, 62, 80
1, 40608, Note_on_c, 1, 53, 80
1, 40631, Note_on_c, 0, 70, 0
1, 40632, Note_on_c, 0, 69, 78
1, 40644, Note_on_c, 0, 69, 0
1, 40644, Note_on_c, 0, 70, 78
1, 40653, Note_on_c, 1, 62, 0
1, 40656, Note_on_c, 0, 70, 0
1, 40656, Note_on_c, 0, 74, 77
1, 40656, Note_on_c, 1, 60, 77
1, 40668, Note_on_c, 0, 74, 0
1, 40668, Note_on_c, 0, 72, 76
1, 40680, Note_on_c, 0, 72, 0
1, 40680, Note_on_c, 0, 70, 76
1, 40692, Note_on_c, 0, 70, 0
1, 40692, Note_on_c, 0, 69, 75
1, 40697, Note_on_c, 1, 53, 0
1, 40701, Note_on_c, 1, 60, 0
1, 40704, Note_on_c, 0, 69, 0
1, 40704, Note_on_c, 0, 70, 75
1, 40704, Note_on_c, 1, 58, 80
1, 40714, Note_on_c, 0, 70, 0
1, 40728, Note_on_c, 0, 74, 75
1, 40738, Note_on_c, 0, 74, 0
1, 40752, Note_on_c, 0, 75, 75
1, 40752, Note_on_c, 1, 65, 75
1, 40764, Note_on_c, 0, 75, 0
1, 40764, Note_on_c, 0, 74, 75
1, 40776, Note_on_c, 0, 74, 0
1, 40776, Note_on_c, 0, 72, 75
1, 40788, Note_on_c, 0, 72, 0
1, 40788, Note_on_c, 0, 70, 75
1, 40793, Note_on_c, 1, 58, 0
1, 40800, Note_on_c, 0, 70, 0
1, 40800, Note_on_c, 0, 69, 75
1, 40800, Note_on_c, 1, 60, 80
1, 40810, Note_on_c, 0, 69, 0
1, 40824, Note_on_c, 0, 69, 75
1, 40834, Note_on_c, 0, 69, 0
1, 40841, Note_on_c, 1, 65, 0
1, 40848, Note_on_c, 0, 70, 75
1, 40848, Note_on_c, 1, 65, 75
1, 40860, Note_on_c, 0, 70, 0
1, 40860, Note_on_c, 0, 69, 75
1, 40872, Note_on_c, 0, 69, 0
1, 40872, Note_on_c, 0, 67, 75
1, 40884, Note_on_c, 0, 67, 0
1, 40884, Note_on_c, 0, 65, 75
1, 40889, Note_on_c, 1, 60, 0
1, 40896, Note_on_c, 0, 65, 0
1, 40896, Note_on_c, 0, 70, 75
1, 40896, Note_on_c, 1, 62, 80
1, 40906, Note_on_c, 0, 70, 0
1, 40920, Note_on_c, 0, 70, 75
1, 40930, Note_on_c, 0, 70, 0
1, 40941, Note_on_c, 1, 65, 0
1, 40944, Note_on_c, 1, 65, 75
1, 40968, Note_on_c, 0, 74, 75
1, 40978, Note_on_c, 0, 74, 0
1, 40985, Note_on_c, 1, 62, 0
1, 40992, Note_on_c, 0, 71, 75
1, 40992, Note_on_c, 1, 57, 80
1, 41016, Note_on_c, 0, 71, 0
1, 41016, Note_on_c, 0, 72, 75
1, 41033, Note_on_c, 1, 65, 0
1, 41039, Note_on_c, 0, 72, 0
1, 41040, Note_on_c, 1, 65, 75
1, 41064, Note_on_c, 0, 75, 75
1, 41074, Note_on_c, 0, 75, 0
1, 41081, Note_on_c, 1, 57, 0
1, 41088, Note_on_c, 0, 74, 75
1, 41088, Note_on_c, 1, 58, 80
1, 41103, Note_on_c, 0, 74, 0
1, 41104, Note_on_c, 0, 79, 75
1, 41119, Note_on_c, 0, 79, 0
1, 41120, Note_on_c, 0, 77, 75
1, 41133, Note_on_c, 1, 65, 0
1, 41135, Note_on_c, 0, 77, 0
1, 41136, Note_on_c, 0, 75, 75
1, 41136, Note_on_c, 1, 65, 75
1, 41151, Note_on_c, 0, 75, 0
1, 41152, Note_on_c, 0, 74, 75
1, 41167, Note_on_c, 0, 74, 0
1, 41168, Note_on_c, 0, 72, 75
1, 41177, Note_on_c, 1, 58, 0
1, 41183, Note_on_c, 0, 72, 0
1, 41184, Note_on_c, 0, 70, 75
1, 41184, Note_on_c, 1, 60, 80
1, 41194, Note_on_c, 0, 70, 0
1, 41208, Note_on_c, 0, 69, 75
1, 41225, Note_on_c, 1, 65, 0
1, 41232, Note_on_c, 1, 65, 75
1, 41253, Note_on_c, 0, 69, 0
1, 41256, Note_on_c, 0, 72, 75
1, 41273, Note_on_c, 1, 60, 0
1, 41280, Note_on_c, 1, 62, 80
1, 41303, Note_on_c, 0, 72, 0
1, 41304, Note_on_c, 0, 70, 75
1, 41325, Note_on_c, 1, 65, 0
1, 41328, Note_on_c, 1, 65, 75
1, 41349, Note_on_c, 0, 70, 0
1, 41352, Note_on_c, 0, 74, 75
1, 41369, Note_on_c, 1, 62, 0
1, 41376, Note_on_c, 1, 57, 80
1, 41397, Note_on_c, 0, 74, 0
1, 41400, Note_on_c, 0, 72, 75
1, 41417, Note_on_c, 1, 65, 0
1, 41424, Note_on_c, 1, 65, 75
1, 41445, Note_on_c, 0, 72, 0
1, 41448, Note_on_c, 0, 75, 75
1, 41458, Note_on_c, 0, 75, 0
1, 41465, Note_on_c, 1, 57, 0
1, 41472, Note_on_c, 0, 74, 75
1, 41472, Note_on_c, 1, 58, 80
1, 41482, Note_on_c, 0, 74, 0
1, 41496, Note_on_c, 0, 74, 75
1, 41506, Note_on_c, 0, 74, 0
1, 41517, Note_on_c, 1, 65, 0
1, 41520, Note_on_c, 0, 75, 75
1, 41520, Note_on_c, 1, 65, 75
1, 41532, Note_on_c, 0, 75, 0
1, 41532, Note_on_c, 0, 74, 75
1, 41544, Note_on_c, 0, 74, 0
1, 41544, Note_on_c, 0, 72, 75
1, 41556, Note_on_c, 0, 72, 0
1, 41556, Note_on_c, 0, 70, 75
1, 41561, Note_on_c, 1, 58, 0
1, 41568, Note_on_c, 0, 70, 0
1, 41568, Note_on_c, 0, 69, 75
1, 41568, Note_on_c, 1, 60, 80
1, 41578, Note_on_c, 0, 69, 0
1, 41592, Note_on_c, 0, 69, 75
1, 41602, Note_on_c, 0, 69, 0
1, 41609, Note_on_c, 1, 65, 0
1, 41616, Note_on_c, 0, 70, 75
1, 41616, Note_on_c, 1, 65, 75
1, 41628, Note_on_c, 0, 70, 0
1, 41628, Note_on_c, 0, 69, 75
1, 41640, Note_on_c, 0, 69, 0
1, 41640, Note_on_c, 0, 67, 75
1, 41652, Note_on_c, 0, 67, 0
1, 41652, Note_on_c, 0, 65, 75
1, 41657, Note_on_c, 1, 60, 0
1, 41664, Note_on_c, 0, 65, 0
1, 41664, Note_on_c, 0, 70, 75
1, 41664, Note_on_c, 1, 62, 80
1, 41674, Note_on_c, 0, 70, 0
1, 41688, Note_on_c, 0, 70, 75
1, 41709, Note_on_c, 1, 65, 0
1, 41712, Note_on_c, 1, 65, 75
1, 41733, Note_on_c, 0, 70, 0
1, 41736, Note_on_c, 0, 71, 75
1, 41753, Note_on_c, 1, 62, 0
1, 41760, Note_on_c, 1, 57, 80
1, 41781, Note_on_c, 0, 71, 0
1, 41784, Note_on_c, 0, 72, 75
1, 41801, Note_on_c, 1, 65, 0
1, 41808, Note_on_c, 1, 65, 75
1, 41829, Note_on_c, 0, 72, 0
1, 41832, Note_on_c, 0, 73, 75
1, 41849, Note_on_c, 1, 57, 0
1, 41856, Note_on_c, 1, 58, 80
1, 41879, Note_on_c, 0, 73, 0
1, 41880, Note_on_c, 0, 74, 75
1, 41901, Note_on_c, 1, 65, 0
1, 41904, Note_on_c, 1, 70, 75
1, 41925, Note_on_c, 0, 74, 0
1, 41928, Note_on_c, 0, 75, 75
1, 41945, Note_on_c, 1, 58, 0
1, 41952, Note_on_c, 1, 60, 81
1, 41973, Note_on_c, 0, 75, 0
1, 41976, Note_on_c, 0, 76, 76
1, 41997, Note_on_c, 1, 60, 0
1, 42000, Note_on_c, 1, 61, 81
1, 42021, Note_on_c, 0, 76, 0
1, 42024, Note_on_c, 0, 77, 77
1, 42045, Note_on_c, 1, 61, 0
1, 42048, Note_on_c, 1, 62, 82
1, 42071, Note_on_c, 0, 77, 0
1, 42072, Note_on_c, 0, 78, 77
1, 42093, Note_on_c, 1, 62, 0
1, 42096, Note_on_c, 1, 63, 83
1, 42117, Note_on_c, 0, 78, 0
1, 42120, Note_on_c, 0, 79, 78
1, 42141, Note_on_c, 1, 63, 0
1, 42144, Note_on_c, 1, 65, 83
1, 42165, Note_on_c, 0, 79, 0
1, 42168, Note_on_c, 0, 80, 78
1, 42189, Note_on_c, 1, 65, 0
1, 42192, Note_on_c, 1, 62, 84
1, 42213, Note_on_c, 0, 80, 0
1, 42216, Note_on_c, 0, 78, 79
1, 42237, Note_on_c, 1, 62, 0
1, 42240, Note_on_c, 1, 63, 84
1, 42263, Note_on_c, 0, 78, 0
1, 42264, Note_on_c, 0, 79, 80
1, 42287, Note_on_c, 0, 79, 0
1, 42288, Note_on_c, 0, 74, 79
1, 42311, Note_on_c, 0, 74, 0
1, 42312, Note_on_c, 0, 75, 78
1, 42329, Note_on_c, 1, 70, 0
1, 42329, Note_on_c, 1, 63, 0
1, 42335, Note_on_c, 0, 75, 0
1, 42336, Note_on_c, 0, 71, 77
1, 42359, Note_on_c, 0, 71, 0
1, 42360, Note_on_c, 0, 72, 77
1, 42383, Note_on_c, 0, 72, 0
1, 42384, Note_on_c, 0, 75, 76
1, 42407, Note_on_c, 0, 75, 0
1, 42408, Note_on_c, 0, 79, 75
1, 42431, Note_on_c, 0, 79, 0
1, 42432, Note_on_c, 0, 70, 75
1, 42456, Note_on_c, 1, 53, 75
1, 42468, Note_on_c, 1, 53, 0
1, 42468, Note_on_c, 1, 60, 75
1, 42477, Note_on_c, 0, 70, 0
1, 42480, Note_on_c, 0, 69, 75
1, 42480, Note_on_c, 1, 60, 0
1, 42480, Note_on_c, 1, 65, 75
1, 42503, Note_on_c, 1, 65, 0
1, 42504, Note_on_c, 1, 60, 75
1, 42525, Note_on_c, 0, 69, 0
1, 42527, Note_on_c, 1, 60, 0
1, 42528, Note_on_c, 0, 70, 75
1, 42528, Note_on_c, 1, 63, 75
1, 42551, Note_on_c, 1, 63, 0
1, 42552, Note_on_c, 1, 62, 75
1, 42573, Note_on_c, 0, 70, 0
1, 42575, Note_on_c, 1, 62, 0
1, 42576, Note_on_c, 1, 60, 75
1, 42599, Note_on_c, 1, 60, 0
1, 42600, Note_on_c, 1, 58, 75
1, 42623, Note_on_c, 1, 58, 0
1, 42624, Note_on_c, 1, 58, 75
1, 42648, Note_on_c, 0, 65, 75
1, 42660, Note_on_c, 0, 65, 0
1, 42660, Note_on_c, 0, 72, 75
1, 42672, Note_on_c, 0, 72, 0
1, 42672, Note_on_c, 0, 77, 75
1, 42672, Note_on_c, 1, 58, 0
1, 42672, Note_on_c, 1, 57, 75
1, 42695, Note_on_c, 0, 77, 0
1, 42696, Note_on_c, 0, 72, 75
1, 42713, Note_on_c, 1, 57, 0
1, 42719, Note_on_c, 0, 72, 0
1, 42720, Note_on_c, 0, 75, 75
1, 42720, Note_on_c, 1, 58, 75
1, 42743, Note_on_c, 0, 75, 0
1, 42744, Note_on_c, 0, 74, 75
1, 42765, Note_on_c, 1, 58, 0
1, 42767, Note_on_c, 0, 74, 0
1, 42768, Note_on_c, 0, 72, 75
1, 42791, Note_on_c, 0, 72, 0
1, 42792, Note_on_c, 0, 70, 75
1, 42815, Note_on_c, 0, 70, 0
1, 42816, Note_on_c, 0, 70, 75
1, 42840, Note_on_c, 1, 41, 75
1, 42852, Note_on_c, 1, 41, 0
1, 42852, Note_on_c, 1, 48, 75
1, 42864, Note_on_c, 0, 70, 0
1, 42864, Note_on_c, 0, 69, 75
1, 42864, Note_on_c, 1, 48, 0
1, 42864, Note_on_c, 1, 53, 75
1, 42887, Note_on_c, 1, 53, 0
1, 42888, Note_on_c, 1, 48, 75
1, 42905, Note_on_c, 0, 69, 0
1, 42911, Note_on_c, 1, 48, 0
1, 42912, Note_on_c, 0, 70, 75
1, 42912, Note_on_c, 1, 51, 75
1, 42935, Note_on_c, 1, 51, 0
1, 42936, Note_on_c, 1, 50, 75
1, 42957, Note_on_c, 0, 70, 0
1, 42959, Note_on_c, 1, 50, 0
1, 42960, Note_on_c, 1, 48, 75
1, 42966, Note_on_c, 1, 48, 0
1, 42966, Note_on_c, 1, 50, 75
1, 42972, Note_on_c, 1, 50, 0
1, 42972, Note_on_c, 1, 48, 75
1, 42983, Note_on_c, 1, 48, 0
1, 42984, Note_on_c, 1, 46, 75
1, 43007, Note_on_c, 1, 46, 0
1, 43008, Note_on_c, 1, 46, 75
1, 43032, Note_on_c, 0, 53, 75
1, 43044, Note_on_c, 0, 53, 0
1, 43044, Note_on_c, 0, 60, 75
1, 43056, Note_on_c, 0, 60, 0
1, 43056, Note_on_c, 0, 65, 75
1, 43056, Note_on_c, 1, 46, 0
1, 43056, Note_on_c, 1, 45, 75
1, 43079, Note_on_c, 0, 65, 0
1, 43080, Note_on_c, 0, 60, 75
1, 43097, Note_on_c, 1, 45, 0
1, 43103, Note_on_c, 0, 60, 0
1, 43104, Note_on_c, 0, 63, 75
1, 43104, Note_on_c, 1, 46, 75
1, 43127, Note_on_c, 0, 63, 0
1, 43128, Note_on_c, 0, 62, 75
1, 43149, Note_on_c, 1, 46, 0
1, 43151, Note_on_c, 0, 62, 0
1, 43152, Note_on_c, 0, 60, 75
1, 43158, Note_on_c, 0, 60, 0
1, 43158, Note_on_c, 0, 62, 75
1, 43164, Note_on_c, 0, 62, 0
1, 43164, Note_on_c, 0, 60, 75
1, 43175, Note_on_c, 0, 60, 0
1, 43176, Note_on_c, 0, 58, 75
1, 43199, Note_on_c, 0, 58, 0
1, 43200, Note_on_c, 1, 51, 75
1, 43200, Note_on_c, 1, 39, 75
1, 43212, Note_on_c, 0, 67, 75
1, 43224, Note_on_c, 0, 67, 0
1, 43224, Note_on_c, 0, 72, 75
1, 43236, Note_on_c, 0, 72, 0
1, 43236, Note_on_c, 0, 74, 75
1, 43248, Note_on_c, 0, 74, 0
1, 43248, Note_on_c, 0, 75, 75
1, 43260, Note_on_c, 0, 75, 0
1, 43260, Note_on_c, 0, 72, 75
1, 43272, Note_on_c, 0, 72, 0
1, 43272, Note_on_c, 0, 75, 75
1, 43284, Note_on_c, 0, 75, 0
1, 43284, Note_on_c, 0, 77, 75
1, 43289, Note_on_c, 1, 51, 0
1, 43289, Note_on_c, 1, 39, 0
1, 43296, Note_on_c, 0, 77, 0
1, 43296, Note_on_c, 0, 79, 75
1, 43308, Note_on_c, 0, 79, 0
1, 43308, Note_on_c, 0, 77, 75
1, 43320, Note_on_c, 0, 77, 0
1, 43320, Note_on_c, 0, 75, 75
1, 43332, Note_on_c, 0, 75, 0
1, 43332, Note_on_c, 0, 74, 75
1, 43344, Note_on_c, 0, 74, 0
1, 43344, Note_on_c, 0, 72, 75
1, 43356, Note_on_c, 0, 72, 0
1, 43356, Note_on_c, 0, 70, 75
1, 43368, Note_on_c, 0, 70, 0
1, 43368, Note_on_c, 0, 69, 75
1, 43380, Note_on_c, 0, 69, 0
1, 43380, Note_on_c, 0, 67, 75
1, 43392, Note_on_c, 0, 67, 0
1, 43392, Note_on_c, 0, 65, 75
1, 43415, Note_on_c, 0, 65, 0
1, 43416, Note_on_c, 0, 81, 75
1, 43439, Note_on_c, 0, 81, 0
1, 43440, Note_on_c, 1, 63, 75
1, 43464, Note_on_c, 0, 84, 75
1, 43485, Note_on_c, 1, 63, 0
1, 43487, Note_on_c, 0, 84, 0
1, 43488, Note_on_c, 1, 62, 75
1, 43512, Note_on_c, 0, 82, 75
1, 43533, Note_on_c, 1, 62, 0
1, 43535, Note_on_c, 0, 82, 0
1, 43536, Note_on_c, 1, 70, 75
1, 43560, Note_on_c, 0, 78, 75
1, 43581, Note_on_c, 1, 70, 0
1, 43583, Note_on_c, 0, 78, 0
1, 43584, Note_on_c, 1, 63, 75
1, 43608, Note_on_c, 0, 78, 75
1, 43620, Note_on_c, 0, 78, 0
1, 43620, Note_on_c, 0, 79, 75
1, 43629, Note_on_c, 1, 63, 0
1, 43632, Note_on_c, 0, 79, 0
1, 43632, Note_on_c, 0, 77, 75
1, 43644, Note_on_c, 0, 77, 0
1, 43644, Note_on_c, 0, 75, 75
1, 43656, Note_on_c, 0, 75, 0
1, 43656, Note_on_c, 0, 74, 75
1, 43668, Note_on_c, 0, 74, 0
1, 43668, Note_on_c, 0, 72, 75
1, 43680, Note_on_c, 0, 72, 0
1, 43680, Note_on_c, 0, 70, 75
1, 43680, Note_on_c, 1, 62, 75
1, 43680, Note_on_c, 1, 53, 86
1, 43725, Note_on_c, 0, 70, 0
1, 43725, Note_on_c, 1, 62, 0
1, 43728, Note_on_c, 0, 69, 75
1, 43728, Note_on_c, 1, 60, 75
1, 43735, Note_on_c, 0, 69, 0
1, 43735, Note_on_c, 0, 70, 75
1, 43742, Note_on_c, 0, 70, 0
1, 43742, Note_on_c, 0, 69, 75
1, 43749, Note_on_c, 0, 69, 0
1, 43749, Note_on_c, 0, 70, 75
1, 43756, Note_on_c, 0, 70, 0
1, 43756, Note_on_c, 0, 69, 75
1, 43763, Note_on_c, 0, 69, 0
1, 43763, Note_on_c, 0, 67, 75
1, 43769, Note_on_c, 1, 53, 0
1, 43770, Note_on_c, 0, 67, 0
1, 43770, Note_on_c, 0, 69, 75
1, 43773, Note_on_c, 1, 60, 0
1, 43776, Note_on_c, 0, 69, 0
1, 43776, Note_on_c, 0, 70, 75
1, 43776, Note_on_c, 1, 58, 75
1, 43776, Note_on_c, 1, 55, 75
1, 43810, Note_on_c, 0, 70, 0
1, 43812, Note_on_c, 0, 82, 75
1, 43824, Note_on_c, 0, 82, 0
1, 43824, Note_on_c, 0, 84, 75
1, 43836, Note_on_c, 0, 84, 0
1, 43836, Note_on_c, 0, 82, 75
1, 43848, Note_on_c, 0, 82, 0
1, 43848, Note_on_c, 0, 81, 75
1, 43860, Note_on_c, 0, 81, 0
1, 43860, Note_on_c, 0, 79, 75
1, 43865, Note_on_c, 1, 58, 0
1, 43865, Note_on_c, 1, 55, 0
1, 43872, Note_on_c, 0, 79, 0
1, 43872, Note_on_c, 0, 81, 75
1, 43884, Note_on_c, 0, 81, 0
1, 43884, Note_on_c, 0, 79, 75
1, 43896, Note_on_c, 0, 79, 0
1, 43896, Note_on_c, 0, 77, 75
1, 43908, Note_on_c, 0, 77, 0
1, 43908, Note_on_c, 0, 76, 75
1, 43920, Note_on_c, 0, 76, 0
1, 43920, Note_on_c, 0, 81, 75
1, 43920, Note_on_c, 1, 70, 75
1, 43920, Note_on_c, 1, 67, 75
1, 43932, Note_on_c, 0, 81, 0
1, 43932, Note_on_c, 0, 79, 75
1, 43944, Note_on_c, 0, 79, 0
1, 43944, Note_on_c, 0, 77, 75
1, 43956, Note_on_c, 0, 77, 0
1, 43956, Note_on_c, 0, 76, 75
1, 43965, Note_on_c, 1, 70, 0
1, 43965, Note_on_c, 1, 67, 0
1, 43968, Note_on_c, 0, 76, 0
1, 43968, Note_on_c, 0, 77, 75
1, 43968, Note_on_c, 1, 72, 75
1, 43968, Note_on_c, 1, 69, 75
1, 44002, Note_on_c, 0, 77, 0
1, 44004, Note_on_c, 0, 84, 75
1, 44016, Note_on_c, 0, 84, 0
1, 44016, Note_on_c, 0, 86, 75
1, 44028, Note_on_c, 0, 86, 0
1, 44028, Note_on_c, 0, 84, 75
1, 44040, Note_on_c, 0, 84, 0
1, 44040, Note_on_c, 0, 82, 75
1, 44052, Note_on_c, 0, 82, 0
1, 44052, Note_on_c, 0, 81, 75
1, 44057, Note_on_c, 1, 72, 0
1, 44057, Note_on_c, 1, 69, 0
1, 44064, Note_on_c, 0, 81, 0
1, 44064, Note_on_c, 0, 82, 75
1, 44076, Note_on_c, 0, 82, 0
1, 44076, Note_on_c, 0, 81, 75
1, 44088, Note_on_c, 0, 81, 0
1, 44088, Note_on_c, 0, 79, 75
1, 44100, Note_on_c, 0, 79, 0
1, 44100, Note_on_c, 0, 77, 75
1, 44112, Note_on_c, 0, 77, 0
1, 44112, Note_on_c, 0, 77, 75
1, 44112, Note_on_c, 1, 65, 75
1, 44112, Note_on_c, 1, 57, 86
1, 44124, Note_on_c, 0, 77, 0
1, 44124, Note_on_c, 0, 75, 75
1, 44136, Note_on_c, 0, 75, 0
1, 44136, Note_on_c, 0, 74, 75
1, 44148, Note_on_c, 0, 74, 0
1, 44148, Note_on_c, 0, 72, 75
1, 44157, Note_on_c, 1, 57, 0
1, 44160, Note_on_c, 0, 72, 0
1, 44160, Note_on_c, 0, 74, 75
1, 44160, Note_on_c, 1, 58, 86
1, 44172, Note_on_c, 0, 74, 0
1, 44172, Note_on_c, 0, 77, 75
1, 44184, Note_on_c, 0, 77, 0
1, 44184, Note_on_c, 0, 75, 75
1, 44196, Note_on_c, 0, 75, 0
1, 44196, Note_on_c, 0, 74, 75
1, 44205, Note_on_c, 1, 65, 0
1, 44205, Note_on_c, 1, 58, 0
1, 44208, Note_on_c, 0, 74, 0
1, 44208, Note_on_c, 0, 79, 75
1, 44208, Note_on_c, 1, 63, 75
1, 44208, Note_on_c, 1, 51, 86
1, 44220, Note_on_c, 0, 79, 0
1, 44220, Note_on_c, 0, 75, 75
1, 44232, Note_on_c, 0, 75, 0
1, 44232, Note_on_c, 0, 74, 75
1, 44244, Note_on_c, 0, 74, 0
1, 44244, Note_on_c, 0, 72, 75
1, 44253, Note_on_c, 1, 63, 0
1, 44253, Note_on_c, 1, 51, 0
1, 44256, Note_on_c, 0, 72, 0
1, 44256, Note_on_c, 0, 70, 75
1, 44256, Note_on_c, 1, 62, 75
1, 44256, Note_on_c, 1, 53, 86
1, 44301, Note_on_c, 0, 70, 0
1, 44301, Note_on_c, 1, 62, 0
1, 44304, Note_on_c, 0, 69, 75
1, 44304, Note_on_c, 1, 60, 75
1, 44311, Note_on_c, 0, 69, 0
1, 44311, Note_on_c, 0, 70, 75
1, 44318, Note_on_c, 0, 70, 0
1, 44318, Note_on_c, 0, 69, 75
1, 44325, Note_on_c, 0, 69, 0
1, 44325, Note_on_c, 0, 70, 75
1, 44332, Note_on_c, 0, 70, 0
1, 44332, Note_on_c, 0, 69, 75
1, 44339, Note_on_c, 0, 69, 0
1, 44339, Note_on_c, 0, 67, 75
1, 44345, Note_on_c, 1, 53, 0
1, 44346, Note_on_c, 0, 67, 0
1, 44346, Note_on_c, 0, 69, 75
1, 44349, Note_on_c, 1, 60, 0
1, 44352, Note_on_c, 0, 69, 0
1, 44352, Note_on_c, 0, 70, 75
1, 44352, Note_on_c, 1, 58, 75
1, 44352, Note_on_c, 1, 55, 75
1, 44386, Note_on_c, 0, 70, 0
1, 44388, Note_on_c, 0, 70, 75
1, 44400, Note_on_c, 0, 70, 0
1, 44400, Note_on_c, 0, 72, 75
1, 44412, Note_on_c, 0, 72, 0
1, 44412, Note_on_c, 0, 70, 75
1, 44424, Note_on_c, 0, 70, 0
1, 44424, Note_on_c, 0, 69, 75
1, 44436, Note_on_c, 0, 69, 0
1, 44436, Note_on_c, 0, 67, 75
1, 44441, Note_on_c, 1, 58, 0
1, 44441, Note_on_c, 1, 55, 0
1, 44448, Note_on_c, 0, 67, 0
1, 44448, Note_on_c, 0, 69, 75
1, 44460, Note_on_c, 0, 69, 0
1, 44460, Note_on_c, 0, 67, 75
1, 44472, Note_on_c, 0, 67, 0
1, 44472, Note_on_c, 0, 65, 75
1, 44484, Note_on_c, 0, 65, 0
1, 44484, Note_on_c, 0, 64, 75
1, 44496, Note_on_c, 0, 64, 0
1, 44496, Note_on_c, 0, 69, 75
1, 44496, Note_on_c, 1, 58, 75
1, 44496, Note_on_c, 1, 55, 75
1, 44508, Note_on_c, 0, 69, 0
1, 44508, Note_on_c, 0, 67, 75
1, 44520, Note_on_c, 0, 67, 0
1, 44520, Note_on_c, 0, 65, 75
1, 44532, Note_on_c, 0, 65, 0
1, 44532, Note_on_c, 0, 64, 75
1, 44541, Note_on_c, 1, 58, 0
1, 44541, Note_on_c, 1, 55, 0
1, 44544, Note_on_c, 0, 64, 0
1, 44544, Note_on_c, 0, 65, 75
1, 44544, Note_on_c, 1, 60, 75
1, 44544, Note_on_c, 1, 57, 75
1, 44578, Note_on_c, 0, 65, 0
1, 44580, Note_on_c, 0, 72, 75
1, 44592, Note_on_c, 0, 72, 0
1, 44592, Note_on_c, 0, 74, 75
1, 44604, Note_on_c, 0, 74, 0
1, 44604, Note_on_c, 0, 72, 75
1, 44616, Note_on_c, 0, 72, 0
1, 44616, Note_on_c, 0, 70, 75
1, 44628, Note_on_c, 0, 70, 0
1, 44628, Note_on_c, 0, 69, 75
1, 44633, Note_on_c, 1, 60, 0
1, 44633, Note_on_c, 1, 57, 0
1, 44640, Note_on_c, 0, 69, 0
1, 44640, Note_on_c, 0, 75, 75
1, 44652, Note_on_c, 0, 75, 0
1, 44652, Note_on_c, 0, 74, 75
1, 44664, Note_on_c, 0, 74, 0
1, 44664, Note_on_c, 0, 72, 75
1, 44676, Note_on_c, 0, 72, 0
1, 44676, Note_on_c, 0, 70, 75
1, 44688, Note_on_c, 0, 70, 0
1, 44688, Note_on_c, 0, 69, 75
1, 44688, Note_on_c, 1, 53, 75
1, 44688, Note_on_c, 1, 45, 86
1, 44700, Note_on_c, 0, 69, 0
1, 44700, Note_on_c, 0, 67, 75
1, 44712, Note_on_c, 0, 67, 0
1, 44712, Note_on_c, 0, 65, 75
1, 44724, Note_on_c, 0, 65, 0
1, 44724, Note_on_c, 0, 63, 75
1, 44733, Note_on_c, 1, 45, 0
1, 44736, Note_on_c, 0, 63, 0
1, 44736, Note_on_c, 0, 62, 75
1, 44736, Note_on_c, 1, 46, 86
1, 44748, Note_on_c, 0, 62, 0
1, 44748, Note_on_c, 0, 65, 75
1, 44760, Note_on_c, 0, 65, 0
1, 44760, Note_on_c, 0, 69, 75
1, 44772, Note_on_c, 0, 69, 0
1, 44772, Note_on_c, 0, 70, 75
1, 44781, Note_on_c, 1, 53, 0
1, 44781, Note_on_c, 1, 46, 0
1, 44784, Note_on_c, 0, 70, 0
1, 44784, Note_on_c, 0, 69, 75
1, 44784, Note_on_c, 1, 51, 86
1, 44796, Note_on_c, 0, 69, 0
1, 44796, Note_on_c, 0, 67, 75
1, 44808, Note_on_c, 0, 67, 0
1, 44808, Note_on_c, 0, 65, 75
1, 44820, Note_on_c, 0, 65, 0
1, 44820, Note_on_c, 0, 63, 75
1, 44829, Note_on_c, 1, 51, 0
1, 44832, Note_on_c, 0, 63, 0
1, 44832, Note_on_c, 0, 62, 75
1, 44832, Note_on_c, 1, 53, 75
1, 44877, Note_on_c, 0, 62, 0
1, 44877, Note_on_c, 1, 53, 0
1, 44880, Note_on_c, 0, 60, 75
1, 44880, Note_on_c, 1, 41, 75
1, 44887, Note_on_c, 0, 60, 0
1, 44887, Note_on_c, 0, 62, 75
1, 44894, Note_on_c, 0, 62, 0
1, 44894, Note_on_c, 0, 60, 75
1, 44901, Note_on_c, 0, 60, 0
1, 44901, Note_on_c, 0, 62, 75
1, 44908, Note_on_c, 0, 62, 0
1, 44908, Note_on_c, 0, 60, 75
1, 44915, Note_on_c, 0, 60, 0
1, 44915, Note_on_c, 0, 58, 75
1, 44922, Note_on_c, 0, 58, 0
1, 44922, Note_on_c, 0, 60, 75
1, 44925, Note_on_c, 1, 41, 0
1, 44928, Note_on_c, 0, 60, 0
1, 44928, Note_on_c, 0, 58, 75
1, 44928, Note_on_c, 1, 46, 75
1, 44973, Note_on_c, 1, 46, 0
1, 44976, Note_on_c, 1, 34, 75
1, 45017, Note_on_c, 0, 58, 0
1, 45021, Note_on_c, 1, 34, 0
1, 45031, End_track
0, 0, End_of_file