0, 0, Header, 0, 1, 96
1, 0, Start_track
1, 0, Tempo, 120000
1, 180, Note_on_c, 0, 81, 75
1, 180, Note_on_c, 0, 78, 75
1, 192, Note_on_c, 0, 81, 0
1, 192, Note_on_c, 0, 78, 0
1, 192, Note_on_c, 0, 81, 75
1, 192, Note_on_c, 0, 78, 75
1, 240, Note_on_c, 1, 50, 75
1, 240, Note_on_c, 1, 38, 75
1, 270, Note_on_c, 0, 81, 0
1, 270, Note_on_c, 0, 78, 0
1, 276, Note_on_c, 0, 78, 75
1, 276, Note_on_c, 0, 74, 75
1, 285, Note_on_c, 1, 50, 0
1, 285, Note_on_c, 1, 38, 0
1, 288, Note_on_c, 0, 78, 0
1, 288, Note_on_c, 0, 74, 0
1, 288, Note_on_c, 0, 78, 75
1, 288, Note_on_c, 0, 74, 75
1, 336, Note_on_c, 1, 50, 75
1, 336, Note_on_c, 1, 38, 75
1, 366, Note_on_c, 0, 78, 0
1, 366, Note_on_c, 0, 74, 0
1, 372, Note_on_c, 0, 74, 75
1, 372, Note_on_c, 0, 66, 75
1, 381, Note_on_c, 1, 50, 0
1, 381, Note_on_c, 1, 38, 0
1, 384, Note_on_c, 0, 74, 0
1, 384, Note_on_c, 0, 66, 0
1, 384, Note_on_c, 0, 74, 75
1, 384, Note_on_c, 0, 66, 75
1, 432, Note_on_c, 1, 50, 75
1, 432, Note_on_c, 1, 38, 75
1, 473, Note_on_c, 0, 74, 0
1, 473, Note_on_c, 0, 66, 0
1, 477, Note_on_c, 1, 50, 0
1, 477, Note_on_c, 1, 38, 0
1, 480, Note_on_c, 1, 50, 75
1, 480, Note_on_c, 1, 38, 75
1, 516, Note_on_c, 0, 69, 75
1, 516, Note_on_c, 0, 66, 75
1, 525, Note_on_c, 1, 50, 0
1, 525, Note_on_c, 1, 38, 0
1, 528, Note_on_c, 0, 69, 0
1, 528, Note_on_c, 0, 66, 0
1, 528, Note_on_c, 0, 69, 75
1, 528, Note_on_c, 0, 66, 75
1, 528, Note_on_c, 1, 50, 75
1, 528, Note_on_c, 1, 38, 75
1, 562, Note_on_c, 0, 69, 0
1, 562, Note_on_c, 0, 66, 0
1, 564, Note_on_c, 0, 69, 75
1, 564, Note_on_c, 0, 66, 75
1, 573, Note_on_c, 1, 50, 0
1, 573, Note_on_c, 1, 38, 0
1, 576, Note_on_c, 0, 69, 0
1, 576, Note_on_c, 0, 66, 0
1, 576, Note_on_c, 0, 70, 91
1, 576, Note_on_c, 0, 66, 91
1, 624, Note_on_c, 1, 55, 75
1, 669, Note_on_c, 1, 55, 0
1, 672, Note_on_c, 0, 70, 0
1, 672, Note_on_c, 0, 66, 0
1, 672, Note_on_c, 0, 71, 75
1, 672, Note_on_c, 0, 67, 75
1, 672, Note_on_c, 1, 55, 75
1, 706, Note_on_c, 0, 71, 0
1, 706, Note_on_c, 0, 67, 0
1, 708, Note_on_c, 0, 59, 75
1, 717, Note_on_c, 1, 55, 0
1, 720, Note_on_c, 0, 59, 0
1, 720, Note_on_c, 0, 67, 75
1, 720, Note_on_c, 1, 52, 75
1, 720, Note_on_c, 1, 59, 64
1, 754, Note_on_c, 0, 67, 0
1, 756, Note_on_c, 0, 64, 75
1, 765, Note_on_c, 1, 52, 0
1, 765, Note_on_c, 1, 59, 0
1, 768, Note_on_c, 0, 64, 0
1, 768, Note_on_c, 0, 62, 75
1, 768, Note_on_c, 1, 57, 75
1, 768, Note_on_c, 1, 57, 64
1, 813, Note_on_c, 0, 62, 0
1, 813, Note_on_c, 1, 57, 0
1, 813, Note_on_c, 1, 57, 0
1, 816, Note_on_c, 0, 61, 71
1, 816, Note_on_c, 1, 45, 71
1, 816, Note_on_c, 1, 55, 64
1, 826, Note_on_c, 0, 61, 0
1, 826, Note_on_c, 0, 62, 71
1, 836, Note_on_c, 0, 62, 0
1, 836, Note_on_c, 0, 61, 70
1, 846, Note_on_c, 0, 61, 0
1, 846, Note_on_c, 0, 59, 70
1, 855, Note_on_c, 0, 59, 0
1, 855, Note_on_c, 0, 61, 69
1, 861, Note_on_c, 1, 45, 0
1, 861, Note_on_c, 1, 55, 0
1, 864, Note_on_c, 0, 61, 0
1, 864, Note_on_c, 0, 62, 69
1, 864, Note_on_c, 1, 50, 68
1, 864, Note_on_c, 1, 54, 64
1, 931, Note_on_c, 0, 62, 0
1, 931, Note_on_c, 1, 50, 0
1, 931, Note_on_c, 1, 54, 0
1, 948, Note_on_c, 0, 81, 75
1, 948, Note_on_c, 0, 78, 75
1, 960, Note_on_c, 0, 81, 0
1, 960, Note_on_c, 0, 78, 0
1, 960, Note_on_c, 0, 81, 75
1, 960, Note_on_c, 0, 78, 75
1, 1008, Note_on_c, 1, 50, 75
1, 1008, Note_on_c, 1, 38, 75
1, 1038, Note_on_c, 0, 81, 0
1, 1038, Note_on_c, 0, 78, 0
1, 1044, Note_on_c, 0, 78, 75
1, 1044, Note_on_c, 0, 74, 75
1, 1053, Note_on_c, 1, 50, 0
1, 1053, Note_on_c, 1, 38, 0
1, 1056, Note_on_c, 0, 78, 0
1, 1056, Note_on_c, 0, 74, 0
1, 1056, Note_on_c, 0, 78, 75
1, 1056, Note_on_c, 0, 74, 75
1, 1104, Note_on_c, 1, 50, 75
1, 1104, Note_on_c, 1, 38, 75
1, 1134, Note_on_c, 0, 78, 0
1, 1134, Note_on_c, 0, 74, 0
1, 1140, Note_on_c, 0, 74, 75
1, 1140, Note_on_c, 0, 66, 75
1, 1149, Note_on_c, 1, 50, 0
1, 1149, Note_on_c, 1, 38, 0
1, 1152, Note_on_c, 0, 74, 0
1, 1152, Note_on_c, 0, 66, 0
1, 1152, Note_on_c, 0, 74, 75
1, 1152, Note_on_c, 0, 66, 75
1, 1200, Note_on_c, 1, 50, 75
1, 1200, Note_on_c, 1, 38, 75
1, 1241, Note_on_c, 0, 74, 0
1, 1241, Note_on_c, 0, 66, 0
1, 1245, Note_on_c, 1, 50, 0
1, 1245, Note_on_c, 1, 38, 0
1, 1248, Note_on_c, 1, 50, 75
1, 1248, Note_on_c, 1, 38, 75
1, 1264, Note_on_c, 0, 62, 75
1, 1279, Note_on_c, 0, 62, 0
1, 1280, Note_on_c, 0, 64, 75
1, 1293, Note_on_c, 1, 50, 0
1, 1293, Note_on_c, 1, 38, 0
1, 1295, Note_on_c, 0, 64, 0
1, 1296, Note_on_c, 0, 66, 75
1, 1296, Note_on_c, 1, 50, 75
1, 1296, Note_on_c, 1, 38, 75
1, 1311, Note_on_c, 0, 66, 0
1, 1312, Note_on_c, 0, 67, 75
1, 1327, Note_on_c, 0, 67, 0
1, 1328, Note_on_c, 0, 69, 75
1, 1341, Note_on_c, 1, 50, 0
1, 1341, Note_on_c, 1, 38, 0
1, 1343, Note_on_c, 0, 69, 0
1, 1344, Note_on_c, 0, 70, 91
1, 1392, Note_on_c, 1, 62, 63
1, 1392, Note_on_c, 1, 55, 63
1, 1439, Note_on_c, 1, 62, 0
1, 1439, Note_on_c, 1, 55, 0
1, 1440, Note_on_c, 0, 70, 0
1, 1440, Note_on_c, 0, 71, 75
1, 1440, Note_on_c, 1, 62, 63
1, 1440, Note_on_c, 1, 55, 63
1, 1455, Note_on_c, 0, 71, 0
1, 1456, Note_on_c, 0, 79, 75
1, 1471, Note_on_c, 0, 79, 0
1, 1472, Note_on_c, 0, 78, 75
1, 1487, Note_on_c, 0, 78, 0
1, 1487, Note_on_c, 1, 62, 0
1, 1487, Note_on_c, 1, 55, 0
1, 1488, Note_on_c, 0, 79, 75
1, 1488, Note_on_c, 1, 62, 63
1, 1488, Note_on_c, 1, 55, 63
1, 1503, Note_on_c, 0, 79, 0
1, 1504, Note_on_c, 0, 74, 75
1, 1519, Note_on_c, 0, 74, 0
1, 1520, Note_on_c, 0, 71, 75
1, 1535, Note_on_c, 0, 71, 0
1, 1535, Note_on_c, 1, 62, 0
1, 1535, Note_on_c, 1, 55, 0
1, 1536, Note_on_c, 0, 71, 91
1, 1584, Note_on_c, 1, 62, 63
1, 1584, Note_on_c, 1, 55, 63
1, 1631, Note_on_c, 1, 62, 0
1, 1632, Note_on_c, 0, 71, 0
1, 1632, Note_on_c, 0, 69, 75
1, 1632, Note_on_c, 1, 62, 63
1, 1632, Note_on_c, 1, 55, 0
1, 1632, Note_on_c, 1, 54, 63
1, 1647, Note_on_c, 0, 69, 0
1, 1648, Note_on_c, 0, 74, 75
1, 1663, Note_on_c, 0, 74, 0
1, 1664, Note_on_c, 0, 73, 75
1, 1679, Note_on_c, 0, 73, 0
1, 1679, Note_on_c, 1, 62, 0
1, 1679, Note_on_c, 1, 54, 0
1, 1680, Note_on_c, 0, 74, 75
1, 1680, Note_on_c, 1, 62, 63
1, 1680, Note_on_c, 1, 54, 63
1, 1695, Note_on_c, 0, 74, 0
1, 1696, Note_on_c, 0, 69, 75
1, 1711, Note_on_c, 0, 69, 0
1, 1712, Note_on_c, 0, 66, 75
1, 1727, Note_on_c, 0, 66, 0
1, 1727, Note_on_c, 1, 62, 0
1, 1727, Note_on_c, 1, 54, 0
1, 1728, Note_on_c, 0, 67, 75
1, 1728, Note_on_c, 1, 52, 75
1, 1751, Note_on_c, 0, 67, 0
1, 1752, Note_on_c, 0, 76, 75
1, 1773, Note_on_c, 1, 52, 0
1, 1776, Note_on_c, 1, 49, 75
1, 1797, Note_on_c, 0, 76, 0
1, 1800, Note_on_c, 0, 67, 75
1, 1821, Note_on_c, 1, 49, 0
1, 1823, Note_on_c, 0, 67, 0
1, 1824, Note_on_c, 0, 66, 75
1, 1824, Note_on_c, 1, 50, 75
1, 1847, Note_on_c, 0, 66, 0
1, 1848, Note_on_c, 0, 74, 75
1, 1869, Note_on_c, 1, 50, 0
1, 1872, Note_on_c, 1, 38, 75
1, 1893, Note_on_c, 0, 74, 0
1, 1896, Note_on_c, 0, 66, 75
1, 1917, Note_on_c, 1, 38, 0
1, 1919, Note_on_c, 0, 66, 0
1, 1920, Note_on_c, 0, 69, 68
1, 1920, Note_on_c, 1, 52, 68
1, 1926, Note_on_c, 0, 69, 0
1, 1926, Note_on_c, 0, 67, 68
1, 1932, Note_on_c, 0, 67, 0
1, 1932, Note_on_c, 0, 66, 68
1, 1938, Note_on_c, 0, 66, 0
1, 1938, Note_on_c, 0, 67, 68
1, 1944, Note_on_c, 0, 67, 0
1, 1944, Note_on_c, 0, 76, 68
1, 1965, Note_on_c, 1, 52, 0
1, 1968, Note_on_c, 1, 49, 68
1, 1989, Note_on_c, 0, 76, 0
1, 1992, Note_on_c, 0, 67, 68
1, 2013, Note_on_c, 1, 49, 0
1, 2015, Note_on_c, 0, 67, 0
1, 2016, Note_on_c, 0, 66, 68
1, 2016, Note_on_c, 1, 50, 68
1, 2039, Note_on_c, 0, 66, 0
1, 2040, Note_on_c, 0, 74, 68
1, 2061, Note_on_c, 1, 50, 0
1, 2064, Note_on_c, 1, 38, 68
1, 2085, Note_on_c, 0, 74, 0
1, 2088, Note_on_c, 0, 66, 68
1, 2109, Note_on_c, 1, 38, 0
1, 2111, Note_on_c, 0, 66, 0
1, 2112, Note_on_c, 0, 69, 75
1, 2112, Note_on_c, 1, 52, 75
1, 2136, Note_on_c, 0, 69, 0
1, 2136, Note_on_c, 0, 67, 75
1, 2157, Note_on_c, 1, 52, 0
1, 2159, Note_on_c, 0, 67, 0
1, 2160, Note_on_c, 0, 76, 76
1, 2160, Note_on_c, 1, 49, 76
1, 2184, Note_on_c, 0, 76, 0
1, 2184, Note_on_c, 0, 67, 77
1, 2205, Note_on_c, 1, 49, 0
1, 2207, Note_on_c, 0, 67, 0
1, 2208, Note_on_c, 0, 66, 77
1, 2208, Note_on_c, 1, 50, 77
1, 2232, Note_on_c, 0, 66, 0
1, 2232, Note_on_c, 0, 74, 78
1, 2242, Note_on_c, 0, 74, 0
1, 2253, Note_on_c, 1, 50, 0
1, 2256, Note_on_c, 0, 74, 79
1, 2256, Note_on_c, 1, 44, 78
1, 2280, Note_on_c, 0, 74, 0
1, 2280, Note_on_c, 0, 66, 80
1, 2280, Note_on_c, 0, 62, 80
1, 2301, Note_on_c, 1, 44, 0
1, 2303, Note_on_c, 0, 66, 0
1, 2303, Note_on_c, 0, 62, 0
1, 2304, Note_on_c, 0, 67, 75
1, 2304, Note_on_c, 0, 62, 75
1, 2304, Note_on_c, 1, 45, 80
1, 2312, Note_on_c, 0, 67, 0
1, 2312, Note_on_c, 0, 66, 74
1, 2320, Note_on_c, 0, 66, 0
1, 2320, Note_on_c, 0, 67, 73
1, 2328, Note_on_c, 0, 67, 0
1, 2328, Note_on_c, 0, 66, 73
1, 2336, Note_on_c, 0, 66, 0
1, 2336, Note_on_c, 0, 64, 72
1, 2344, Note_on_c, 0, 64, 0
1, 2344, Note_on_c, 0, 66, 72
1, 2349, Note_on_c, 0, 62, 0
1, 2352, Note_on_c, 0, 66, 0
1, 2352, Note_on_c, 0, 64, 71
1, 2352, Note_on_c, 0, 61, 70
1, 2393, Note_on_c, 1, 45, 0
1, 2419, Note_on_c, 0, 64, 0
1, 2419, Note_on_c, 0, 61, 0
1, 2484, Note_on_c, 0, 69, 75
1, 2484, Note_on_c, 0, 61, 75
1, 2496, Note_on_c, 0, 69, 0
1, 2496, Note_on_c, 0, 61, 0
1, 2496, Note_on_c, 0, 69, 75
1, 2496, Note_on_c, 0, 61, 75
1, 2544, Note_on_c, 1, 57, 75
1, 2544, Note_on_c, 1, 45, 75
1, 2574, Note_on_c, 0, 69, 0
1, 2574, Note_on_c, 0, 61, 0
1, 2580, Note_on_c, 0, 73, 75
1, 2580, Note_on_c, 0, 69, 75
1, 2589, Note_on_c, 1, 57, 0
1, 2589, Note_on_c, 1, 45, 0
1, 2592, Note_on_c, 0, 73, 0
1, 2592, Note_on_c, 0, 69, 0
1, 2592, Note_on_c, 0, 73, 75
1, 2592, Note_on_c, 0, 69, 75
1, 2640, Note_on_c, 1, 57, 75
1, 2640, Note_on_c, 1, 45, 75
1, 2670, Note_on_c, 0, 73, 0
1, 2670, Note_on_c, 0, 69, 0
1, 2676, Note_on_c, 0, 76, 75
1, 2676, Note_on_c, 0, 73, 75
1, 2685, Note_on_c, 1, 57, 0
1, 2685, Note_on_c, 1, 45, 0
1, 2688, Note_on_c, 0, 76, 0
1, 2688, Note_on_c, 0, 73, 0
1, 2688, Note_on_c, 0, 76, 75
1, 2688, Note_on_c, 0, 73, 75
1, 2736, Note_on_c, 1, 57, 75
1, 2736, Note_on_c, 1, 45, 75
1, 2777, Note_on_c, 0, 76, 0
1, 2777, Note_on_c, 0, 73, 0
1, 2781, Note_on_c, 1, 57, 0
1, 2781, Note_on_c, 1, 45, 0
1, 2784, Note_on_c, 1, 57, 75
1, 2784, Note_on_c, 1, 45, 75
1, 2800, Note_on_c, 0, 85, 75
1, 2815, Note_on_c, 0, 85, 0
1, 2816, Note_on_c, 0, 83, 75
1, 2829, Note_on_c, 1, 57, 0
1, 2829, Note_on_c, 1, 45, 0
1, 2831, Note_on_c, 0, 83, 0
1, 2832, Note_on_c, 0, 81, 75
1, 2832, Note_on_c, 1, 57, 75
1, 2832, Note_on_c, 1, 45, 75
1, 2847, Note_on_c, 0, 81, 0
1, 2848, Note_on_c, 0, 80, 75
1, 2863, Note_on_c, 0, 80, 0
1, 2864, Note_on_c, 0, 78, 75
1, 2877, Note_on_c, 1, 57, 0
1, 2877, Note_on_c, 1, 45, 0
1, 2879, Note_on_c, 0, 78, 0
1, 2880, Note_on_c, 0, 76, 91
1, 2928, Note_on_c, 1, 66, 63
1, 2928, Note_on_c, 1, 58, 63
1, 2952, Note_on_c, 0, 76, 0
1, 2952, Note_on_c, 0, 73, 75
1, 2975, Note_on_c, 0, 73, 0
1, 2975, Note_on_c, 1, 66, 0
1, 2976, Note_on_c, 0, 74, 75
1, 2976, Note_on_c, 1, 66, 63
1, 2976, Note_on_c, 1, 58, 0
1, 2976, Note_on_c, 1, 59, 63
1, 2991, Note_on_c, 0, 74, 0
1, 2992, Note_on_c, 0, 83, 75
1, 3007, Note_on_c, 0, 83, 0
1, 3008, Note_on_c, 0, 81, 75
1, 3021, Note_on_c, 1, 59, 0
1, 3023, Note_on_c, 0, 81, 0
1, 3023, Note_on_c, 1, 66, 0
1, 3024, Note_on_c, 0, 80, 75
1, 3039, Note_on_c, 0, 80, 0
1, 3040, Note_on_c, 0, 78, 75
1, 3055, Note_on_c, 0, 78, 0
1, 3056, Note_on_c, 0, 76, 75
1, 3071, Note_on_c, 0, 76, 0
1, 3072, Note_on_c, 0, 74, 91
1, 3120, Note_on_c, 1, 64, 63
1, 3120, Note_on_c, 1, 56, 63
1, 3144, Note_on_c, 0, 74, 0
1, 3144, Note_on_c, 0, 71, 75
1, 3167, Note_on_c, 0, 71, 0
1, 3167, Note_on_c, 1, 64, 0
1, 3168, Note_on_c, 0, 73, 75
1, 3168, Note_on_c, 1, 64, 63
1, 3168, Note_on_c, 1, 56, 0
1, 3168, Note_on_c, 1, 57, 63
1, 3183, Note_on_c, 0, 73, 0
1, 3184, Note_on_c, 0, 81, 75
1, 3199, Note_on_c, 0, 81, 0
1, 3200, Note_on_c, 0, 80, 75
1, 3213, Note_on_c, 1, 57, 0
1, 3215, Note_on_c, 0, 80, 0
1, 3215, Note_on_c, 1, 64, 0
1, 3216, Note_on_c, 0, 81, 75
1, 3231, Note_on_c, 0, 81, 0
1, 3232, Note_on_c, 0, 76, 75
1, 3247, Note_on_c, 0, 76, 0
1, 3248, Note_on_c, 0, 73, 75
1, 3263, Note_on_c, 0, 73, 0
1, 3264, Note_on_c, 1, 54, 75
1, 3264, Note_on_c, 1, 50, 75
1, 3288, Note_on_c, 0, 73, 76
1, 3296, Note_on_c, 0, 73, 0
1, 3296, Note_on_c, 0, 71, 77
1, 3304, Note_on_c, 0, 71, 0
1, 3304, Note_on_c, 0, 70, 77
1, 3309, Note_on_c, 1, 54, 0
1, 3309, Note_on_c, 1, 50, 0
1, 3312, Note_on_c, 0, 70, 0
1, 3312, Note_on_c, 0, 71, 77
1, 3312, Note_on_c, 1, 54, 77
1, 3312, Note_on_c, 1, 50, 77
1, 3335, Note_on_c, 0, 71, 0
1, 3336, Note_on_c, 0, 71, 80
1, 3357, Note_on_c, 1, 54, 0
1, 3357, Note_on_c, 1, 50, 0
1, 3359, Note_on_c, 0, 71, 0
1, 3360, Note_on_c, 1, 54, 80
1, 3360, Note_on_c, 1, 51, 80
1, 3384, Note_on_c, 0, 71, 80
1, 3392, Note_on_c, 0, 71, 0
1, 3392, Note_on_c, 0, 69, 80
1, 3400, Note_on_c, 0, 69, 0
1, 3400, Note_on_c, 0, 68, 80
1, 3405, Note_on_c, 1, 54, 0
1, 3405, Note_on_c, 1, 51, 0
1, 3408, Note_on_c, 0, 68, 0
1, 3408, Note_on_c, 0, 69, 80
1, 3408, Note_on_c, 1, 54, 80
1, 3408, Note_on_c, 1, 51, 80
1, 3431, Note_on_c, 0, 69, 0
1, 3432, Note_on_c, 0, 69, 80
1, 3453, Note_on_c, 1, 54, 0
1, 3453, Note_on_c, 1, 51, 0
1, 3455, Note_on_c, 0, 69, 0
1, 3456, Note_on_c, 0, 69, 80
1, 3456, Note_on_c, 1, 52, 80
1, 3501, Note_on_c, 1, 52, 0
1, 3504, Note_on_c, 1, 47, 78
1, 3549, Note_on_c, 1, 47, 0
1, 3552, Note_on_c, 0, 69, 0
1, 3552, Note_on_c, 0, 68, 76
1, 3552, Note_on_c, 1, 40, 76
1, 3597, Note_on_c, 0, 68, 0
1, 3597, Note_on_c, 1, 40, 0
1, 3648, Note_on_c, 1, 64, 68
1, 3648, Note_on_c, 1, 61, 68
1, 3648, Note_on_c, 1, 57, 68
1, 3672, Note_on_c, 0, 78, 80
1, 3680, Note_on_c, 0, 78, 0
1, 3680, Note_on_c, 0, 76, 80
1, 3688, Note_on_c, 0, 76, 0
1, 3688, Note_on_c, 0, 75, 80
1, 3693, Note_on_c, 1, 64, 0
1, 3693, Note_on_c, 1, 61, 0
1, 3693, Note_on_c, 1, 57, 0
1, 3696, Note_on_c, 0, 75, 0
1, 3696, Note_on_c, 0, 76, 80
1, 3696, Note_on_c, 1, 64, 68
1, 3696, Note_on_c, 1, 61, 68
1, 3696, Note_on_c, 1, 57, 68
1, 3716, Note_on_c, 1, 64, 0
1, 3716, Note_on_c, 1, 61, 0
1, 3716, Note_on_c, 1, 57, 0
1, 3719, Note_on_c, 0, 76, 0
1, 3720, Note_on_c, 0, 76, 80
1, 3743, Note_on_c, 0, 76, 0
1, 3744, Note_on_c, 1, 64, 68
1, 3744, Note_on_c, 1, 61, 68
1, 3744, Note_on_c, 1, 57, 68
1, 3768, Note_on_c, 0, 78, 80
1, 3776, Note_on_c, 0, 78, 0
1, 3776, Note_on_c, 0, 76, 80
1, 3784, Note_on_c, 0, 76, 0
1, 3784, Note_on_c, 0, 75, 80
1, 3789, Note_on_c, 1, 64, 0
1, 3789, Note_on_c, 1, 61, 0
1, 3789, Note_on_c, 1, 57, 0
1, 3792, Note_on_c, 0, 75, 0
1, 3792, Note_on_c, 0, 76, 80
1, 3792, Note_on_c, 1, 64, 68
1, 3792, Note_on_c, 1, 61, 68
1, 3792, Note_on_c, 1, 57, 68
1, 3812, Note_on_c, 1, 64, 0
1, 3812, Note_on_c, 1, 61, 0
1, 3812, Note_on_c, 1, 57, 0
1, 3815, Note_on_c, 0, 76, 0
1, 3816, Note_on_c, 0, 76, 80
1, 3839, Note_on_c, 0, 76, 0
1, 3840, Note_on_c, 0, 76, 80
1, 3840, Note_on_c, 1, 64, 68
1, 3840, Note_on_c, 1, 62, 68
1, 3840, Note_on_c, 1, 56, 68
1, 3855, Note_on_c, 0, 76, 0
1, 3856, Note_on_c, 0, 88, 80
1, 3871, Note_on_c, 0, 88, 0
1, 3872, Note_on_c, 0, 86, 80
1, 3887, Note_on_c, 0, 86, 0
1, 3888, Note_on_c, 0, 85, 80
1, 3903, Note_on_c, 0, 85, 0
1, 3904, Note_on_c, 0, 83, 80
1, 3919, Note_on_c, 0, 83, 0
1, 3920, Note_on_c, 0, 81, 80
1, 3935, Note_on_c, 0, 81, 0
1, 3936, Note_on_c, 0, 80, 80
1, 3951, Note_on_c, 0, 80, 0
1, 3952, Note_on_c, 0, 78, 80
1, 3967, Note_on_c, 0, 78, 0
1, 3968, Note_on_c, 0, 76, 80
1, 3983, Note_on_c, 0, 76, 0
1, 3984, Note_on_c, 0, 74, 80
1, 3999, Note_on_c, 0, 74, 0
1, 4000, Note_on_c, 0, 73, 80
1, 4015, Note_on_c, 0, 73, 0
1, 4016, Note_on_c, 0, 71, 80
1, 4017, Note_on_c, 1, 64, 0
1, 4017, Note_on_c, 1, 62, 0
1, 4017, Note_on_c, 1, 56, 0
1, 4031, Note_on_c, 0, 71, 0
1, 4032, Note_on_c, 1, 64, 68
1, 4032, Note_on_c, 1, 61, 68
1, 4032, Note_on_c, 1, 57, 68
1, 4056, Note_on_c, 0, 78, 80
1, 4064, Note_on_c, 0, 78, 0
1, 4064, Note_on_c, 0, 76, 80
1, 4072, Note_on_c, 0, 76, 0
1, 4072, Note_on_c, 0, 75, 80
1, 4077, Note_on_c, 1, 64, 0
1, 4077, Note_on_c, 1, 61, 0
1, 4077, Note_on_c, 1, 57, 0
1, 4080, Note_on_c, 0, 75, 0
1, 4080, Note_on_c, 0, 76, 80
1, 4080, Note_on_c, 1, 64, 68
1, 4080, Note_on_c, 1, 61, 68
1, 4080, Note_on_c, 1, 57, 68
1, 4100, Note_on_c, 1, 64, 0
1, 4100, Note_on_c, 1, 61, 0
1, 4100, Note_on_c, 1, 57, 0
1, 4103, Note_on_c, 0, 76, 0
1, 4104, Note_on_c, 0, 76, 80
1, 4127, Note_on_c, 0, 76, 0
1, 4128, Note_on_c, 1, 64, 68
1, 4128, Note_on_c, 1, 61, 68
1, 4128, Note_on_c, 1, 57, 68
1, 4152, Note_on_c, 0, 78, 80
1, 4160, Note_on_c, 0, 78, 0
1, 4160, Note_on_c, 0, 76, 80
1, 4168, Note_on_c, 0, 76, 0
1, 4168, Note_on_c, 0, 75, 80
1, 4173, Note_on_c, 1, 64, 0
1, 4173, Note_on_c, 1, 61, 0
1, 4173, Note_on_c, 1, 57, 0
1, 4176, Note_on_c, 0, 75, 0
1, 4176, Note_on_c, 0, 76, 80
1, 4176, Note_on_c, 1, 64, 68
1, 4176, Note_on_c, 1, 61, 68
1, 4176, Note_on_c, 1, 57, 68
1, 4196, Note_on_c, 1, 64, 0
1, 4196, Note_on_c, 1, 61, 0
1, 4196, Note_on_c, 1, 57, 0
1, 4199, Note_on_c, 0, 76, 0
1, 4200, Note_on_c, 0, 76, 80
1, 4223, Note_on_c, 0, 76, 0
1, 4224, Note_on_c, 0, 76, 80
1, 4224, Note_on_c, 1, 64, 68
1, 4224, Note_on_c, 1, 62, 68
1, 4224, Note_on_c, 1, 56, 68
1, 4239, Note_on_c, 0, 76, 0
1, 4240, Note_on_c, 0, 88, 80
1, 4255, Note_on_c, 0, 88, 0
1, 4256, Note_on_c, 0, 86, 80
1, 4271, Note_on_c, 0, 86, 0
1, 4272, Note_on_c, 0, 85, 80
1, 4287, Note_on_c, 0, 85, 0
1, 4288, Note_on_c, 0, 83, 80
1, 4303, Note_on_c, 0, 83, 0
1, 4304, Note_on_c, 0, 81, 80
1, 4319, Note_on_c, 0, 81, 0
1, 4320, Note_on_c, 0, 80, 80
1, 4335, Note_on_c, 0, 80, 0
1, 4336, Note_on_c, 0, 78, 80
1, 4351, Note_on_c, 0, 78, 0
1, 4352, Note_on_c, 0, 76, 80
1, 4367, Note_on_c, 0, 76, 0
1, 4368, Note_on_c, 0, 74, 80
1, 4383, Note_on_c, 0, 74, 0
1, 4384, Note_on_c, 0, 73, 80
1, 4399, Note_on_c, 0, 73, 0
1, 4400, Note_on_c, 0, 71, 80
1, 4401, Note_on_c, 1, 64, 0
1, 4401, Note_on_c, 1, 62, 0
1, 4401, Note_on_c, 1, 56, 0
1, 4415, Note_on_c, 0, 71, 0
1, 4416, Note_on_c, 0, 69, 80
1, 4416, Note_on_c, 1, 64, 63
1, 4416, Note_on_c, 1, 61, 63
1, 4416, Note_on_c, 1, 57, 63
1, 4431, Note_on_c, 0, 69, 0
1, 4432, Note_on_c, 0, 76, 78
1, 4447, Note_on_c, 0, 76, 0
1, 4448, Note_on_c, 0, 74, 77
1, 4463, Note_on_c, 0, 74, 0
1, 4464, Note_on_c, 0, 73, 76
1, 4479, Note_on_c, 0, 73, 0
1, 4480, Note_on_c, 0, 71, 75
1, 4495, Note_on_c, 0, 71, 0
1, 4496, Note_on_c, 0, 69, 74
1, 4505, Note_on_c, 1, 64, 0
1, 4505, Note_on_c, 1, 61, 0
1, 4505, Note_on_c, 1, 57, 0
1, 4511, Note_on_c, 0, 69, 0
1, 4512, Note_on_c, 0, 68, 73
1, 4527, Note_on_c, 0, 68, 0
1, 4528, Note_on_c, 0, 66, 72
1, 4543, Note_on_c, 0, 66, 0
1, 4544, Note_on_c, 0, 64, 71
1, 4559, Note_on_c, 0, 64, 0
1, 4560, Note_on_c, 0, 62, 70
1, 4575, Note_on_c, 0, 62, 0
1, 4576, Note_on_c, 0, 61, 69
1, 4591, Note_on_c, 0, 61, 0
1, 4592, Note_on_c, 0, 59, 68
1, 4607, Note_on_c, 0, 59, 0
1, 4608, Note_on_c, 1, 49, 75
1, 4608, Note_on_c, 1, 37, 75
1, 4608, Note_on_c, 1, 49, 75
1, 4608, Note_on_c, 1, 37, 75
1, 4624, Note_on_c, 0, 64, 63
1, 4639, Note_on_c, 0, 64, 0
1, 4640, Note_on_c, 0, 62, 63
1, 4655, Note_on_c, 0, 62, 0
1, 4656, Note_on_c, 0, 61, 64
1, 4671, Note_on_c, 0, 61, 0
1, 4672, Note_on_c, 0, 59, 64
1, 4687, Note_on_c, 0, 59, 0
1, 4688, Note_on_c, 0, 57, 64
1, 4697, Note_on_c, 1, 49, 0
1, 4697, Note_on_c, 1, 37, 0
1, 4697, Note_on_c, 1, 49, 0
1, 4697, Note_on_c, 1, 37, 0
1, 4703, Note_on_c, 0, 57, 0
1, 4704, Note_on_c, 1, 50, 75
1, 4704, Note_on_c, 1, 38, 75
1, 4704, Note_on_c, 1, 50, 75
1, 4704, Note_on_c, 1, 38, 75
1, 4720, Note_on_c, 0, 66, 65
1, 4735, Note_on_c, 0, 66, 0
1, 4736, Note_on_c, 0, 64, 65
1, 4751, Note_on_c, 0, 64, 0
1, 4752, Note_on_c, 0, 62, 66
1, 4767, Note_on_c, 0, 62, 0
1, 4768, Note_on_c, 0, 61, 66
1, 4783, Note_on_c, 0, 61, 0
1, 4784, Note_on_c, 0, 59, 66
1, 4793, Note_on_c, 1, 50, 0
1, 4793, Note_on_c, 1, 38, 0
1, 4793, Note_on_c, 1, 50, 0
1, 4793, Note_on_c, 1, 38, 0
1, 4799, Note_on_c, 0, 59, 0
1, 4800, Note_on_c, 1, 52, 76
1, 4800, Note_on_c, 1, 40, 76
1, 4816, Note_on_c, 0, 68, 67
1, 4831, Note_on_c, 0, 68, 0
1, 4832, Note_on_c, 0, 66, 67
1, 4847, Note_on_c, 0, 66, 0
1, 4848, Note_on_c, 0, 64, 68
1, 4863, Note_on_c, 0, 64, 0
1, 4864, Note_on_c, 0, 62, 68
1, 4879, Note_on_c, 0, 62, 0
1, 4880, Note_on_c, 0, 61, 69
1, 4889, Note_on_c, 1, 52, 0
1, 4889, Note_on_c, 1, 40, 0
1, 4895, Note_on_c, 0, 61, 0
1, 4896, Note_on_c, 1, 54, 77
1, 4896, Note_on_c, 1, 42, 77
1, 4912, Note_on_c, 0, 69, 69
1, 4927, Note_on_c, 0, 69, 0
1, 4928, Note_on_c, 0, 68, 70
1, 4943, Note_on_c, 0, 68, 0
1, 4944, Note_on_c, 0, 66, 70
1, 4959, Note_on_c, 0, 66, 0
1, 4960, Note_on_c, 0, 64, 70
1, 4975, Note_on_c, 0, 64, 0
1, 4976, Note_on_c, 0, 62, 71
1, 4985, Note_on_c, 1, 54, 0
1, 4985, Note_on_c, 1, 42, 0
1, 4991, Note_on_c, 0, 62, 0
1, 4992, Note_on_c, 1, 56, 78
1, 4992, Note_on_c, 1, 44, 78
1, 5008, Note_on_c, 0, 71, 71
1, 5023, Note_on_c, 0, 71, 0
1, 5024, Note_on_c, 0, 69, 72
1, 5039, Note_on_c, 0, 69, 0
1, 5040, Note_on_c, 0, 68, 72
1, 5055, Note_on_c, 0, 68, 0
1, 5056, Note_on_c, 0, 66, 72
1, 5071, Note_on_c, 0, 66, 0
1, 5072, Note_on_c, 0, 64, 73
1, 5081, Note_on_c, 1, 56, 0
1, 5081, Note_on_c, 1, 44, 0
1, 5087, Note_on_c, 0, 64, 0
1, 5088, Note_on_c, 1, 57, 79
1, 5088, Note_on_c, 1, 45, 79
1, 5104, Note_on_c, 0, 69, 73
1, 5119, Note_on_c, 0, 69, 0
1, 5120, Note_on_c, 0, 71, 74
1, 5135, Note_on_c, 0, 71, 0
1, 5136, Note_on_c, 0, 73, 74
1, 5151, Note_on_c, 0, 73, 0
1, 5152, Note_on_c, 0, 74, 75
1, 5167, Note_on_c, 0, 74, 0
1, 5168, Note_on_c, 0, 76, 75
1, 5177, Note_on_c, 1, 57, 0
1, 5177, Note_on_c, 1, 45, 0
1, 5183, Note_on_c, 0, 76, 0
1, 5184, Note_on_c, 1, 56, 80
1, 5184, Note_on_c, 1, 44, 80
1, 5200, Note_on_c, 0, 71, 80
1, 5215, Note_on_c, 0, 71, 0
1, 5216, Note_on_c, 0, 69, 80
1, 5231, Note_on_c, 0, 69, 0
1, 5232, Note_on_c, 0, 68, 80
1, 5247, Note_on_c, 0, 68, 0
1, 5248, Note_on_c, 0, 66, 80
1, 5263, Note_on_c, 0, 66, 0
1, 5264, Note_on_c, 0, 64, 80
1, 5273, Note_on_c, 1, 56, 0
1, 5273, Note_on_c, 1, 44, 0
1, 5279, Note_on_c, 0, 64, 0
1, 5280, Note_on_c, 1, 57, 80
1, 5280, Note_on_c, 1, 45, 80
1, 5296, Note_on_c, 0, 69, 80
1, 5311, Note_on_c, 0, 69, 0
1, 5312, Note_on_c, 0, 71, 78
1, 5327, Note_on_c, 0, 71, 0
1, 5328, Note_on_c, 0, 73, 76
1, 5343, Note_on_c, 0, 73, 0
1, 5344, Note_on_c, 0, 74, 74
1, 5359, Note_on_c, 0, 74, 0
1, 5360, Note_on_c, 0, 76, 73
1, 5369, Note_on_c, 1, 57, 0
1, 5369, Note_on_c, 1, 45, 0
1, 5375, Note_on_c, 0, 76, 0
1, 5376, Note_on_c, 0, 77, 84
1, 5424, Note_on_c, 1, 69, 56
1, 5424, Note_on_c, 1, 62, 56
1, 5471, Note_on_c, 1, 69, 0
1, 5471, Note_on_c, 1, 62, 0
1, 5472, Note_on_c, 0, 77, 0
1, 5472, Note_on_c, 0, 78, 68
1, 5472, Note_on_c, 1, 69, 56
1, 5472, Note_on_c, 1, 62, 56
1, 5487, Note_on_c, 0, 78, 0
1, 5488, Note_on_c, 0, 80, 68
1, 5503, Note_on_c, 0, 80, 0
1, 5504, Note_on_c, 0, 81, 68
1, 5519, Note_on_c, 0, 81, 0
1, 5519, Note_on_c, 1, 69, 0
1, 5519, Note_on_c, 1, 62, 0
1, 5520, Note_on_c, 0, 83, 68
1, 5520, Note_on_c, 1, 69, 56
1, 5520, Note_on_c, 1, 62, 56
1, 5535, Note_on_c, 0, 83, 0
1, 5536, Note_on_c, 0, 85, 68
1, 5551, Note_on_c, 0, 85, 0
1, 5552, Note_on_c, 0, 86, 68
1, 5567, Note_on_c, 0, 86, 0
1, 5567, Note_on_c, 1, 69, 0
1, 5567, Note_on_c, 1, 62, 0
1, 5568, Note_on_c, 0, 86, 68
1, 5616, Note_on_c, 1, 68, 56
1, 5616, Note_on_c, 1, 59, 56
1, 5635, Note_on_c, 0, 86, 0
1, 5640, Note_on_c, 0, 88, 69
1, 5663, Note_on_c, 0, 88, 0
1, 5663, Note_on_c, 1, 68, 0
1, 5663, Note_on_c, 1, 59, 0
1, 5664, Note_on_c, 0, 86, 69
1, 5664, Note_on_c, 1, 68, 57
1, 5664, Note_on_c, 1, 59, 57
1, 5679, Note_on_c, 0, 86, 0
1, 5680, Note_on_c, 0, 85, 69
1, 5695, Note_on_c, 0, 85, 0
1, 5696, Note_on_c, 0, 83, 69
1, 5711, Note_on_c, 0, 83, 0
1, 5711, Note_on_c, 1, 68, 0
1, 5711, Note_on_c, 1, 59, 0
1, 5712, Note_on_c, 0, 81, 69
1, 5712, Note_on_c, 1, 68, 57
1, 5712, Note_on_c, 1, 59, 57
1, 5727, Note_on_c, 0, 81, 0
1, 5728, Note_on_c, 0, 80, 70
1, 5743, Note_on_c, 0, 80, 0
1, 5744, Note_on_c, 0, 78, 70
1, 5759, Note_on_c, 0, 78, 0
1, 5759, Note_on_c, 1, 68, 0
1, 5759, Note_on_c, 1, 59, 0
1, 5760, Note_on_c, 0, 78, 86
1, 5808, Note_on_c, 1, 68, 58
1, 5808, Note_on_c, 1, 61, 58
1, 5832, Note_on_c, 0, 78, 0
1, 5832, Note_on_c, 0, 75, 71
1, 5855, Note_on_c, 0, 75, 0
1, 5855, Note_on_c, 1, 68, 0
1, 5855, Note_on_c, 1, 61, 0
1, 5856, Note_on_c, 0, 76, 71
1, 5856, Note_on_c, 1, 68, 59
1, 5856, Note_on_c, 1, 61, 59
1, 5871, Note_on_c, 0, 76, 0
1, 5872, Note_on_c, 0, 78, 71
1, 5887, Note_on_c, 0, 78, 0
1, 5888, Note_on_c, 0, 80, 71
1, 5903, Note_on_c, 0, 80, 0
1, 5903, Note_on_c, 1, 68, 0
1, 5903, Note_on_c, 1, 61, 0
1, 5904, Note_on_c, 0, 81, 71
1, 5904, Note_on_c, 1, 68, 59
1, 5904, Note_on_c, 1, 61, 59
1, 5919, Note_on_c, 0, 81, 0
1, 5920, Note_on_c, 0, 83, 71
1, 5935, Note_on_c, 0, 83, 0
1, 5936, Note_on_c, 0, 85, 71
1, 5951, Note_on_c, 0, 85, 0
1, 5951, Note_on_c, 1, 68, 0
1, 5951, Note_on_c, 1, 61, 0
1, 5952, Note_on_c, 0, 85, 71
1, 6000, Note_on_c, 1, 66, 60
1, 6000, Note_on_c, 1, 57, 60
1, 6019, Note_on_c, 0, 85, 0
1, 6024, Note_on_c, 0, 86, 72
1, 6047, Note_on_c, 0, 86, 0
1, 6047, Note_on_c, 1, 66, 0
1, 6047, Note_on_c, 1, 57, 0
1, 6048, Note_on_c, 0, 85, 72
1, 6048, Note_on_c, 1, 66, 61
1, 6048, Note_on_c, 1, 57, 61
1, 6063, Note_on_c, 0, 85, 0
1, 6064, Note_on_c, 0, 83, 72
1, 6079, Note_on_c, 0, 83, 0
1, 6080, Note_on_c, 0, 81, 73
1, 6095, Note_on_c, 0, 81, 0
1, 6095, Note_on_c, 1, 66, 0
1, 6095, Note_on_c, 1, 57, 0
1, 6096, Note_on_c, 0, 80, 73
1, 6096, Note_on_c, 1, 66, 61
1, 6096, Note_on_c, 1, 57, 61
1, 6111, Note_on_c, 0, 80, 0
1, 6112, Note_on_c, 0, 78, 73
1, 6127, Note_on_c, 0, 78, 0
1, 6128, Note_on_c, 0, 76, 73
1, 6143, Note_on_c, 0, 76, 0
1, 6143, Note_on_c, 1, 66, 0
1, 6143, Note_on_c, 1, 57, 0
1, 6144, Note_on_c, 0, 76, 89
1, 6192, Note_on_c, 1, 66, 62
1, 6192, Note_on_c, 1, 59, 62
1, 6216, Note_on_c, 0, 76, 0
1, 6216, Note_on_c, 0, 73, 74
1, 6239, Note_on_c, 0, 73, 0
1, 6239, Note_on_c, 1, 66, 0
1, 6239, Note_on_c, 1, 59, 0
1, 6240, Note_on_c, 0, 74, 74
1, 6240, Note_on_c, 1, 66, 63
1, 6240, Note_on_c, 1, 59, 63
1, 6255, Note_on_c, 0, 74, 0
1, 6256, Note_on_c, 0, 76, 74
1, 6271, Note_on_c, 0, 76, 0
1, 6272, Note_on_c, 0, 78, 74
1, 6287, Note_on_c, 0, 78, 0
1, 6287, Note_on_c, 1, 66, 0
1, 6287, Note_on_c, 1, 59, 0
1, 6288, Note_on_c, 0, 80, 74
1, 6288, Note_on_c, 1, 66, 63
1, 6288, Note_on_c, 1, 59, 63
1, 6303, Note_on_c, 0, 80, 0
1, 6304, Note_on_c, 0, 81, 74
1, 6319, Note_on_c, 0, 81, 0
1, 6320, Note_on_c, 0, 83, 75
1, 6335, Note_on_c, 0, 83, 0
1, 6335, Note_on_c, 1, 66, 0
1, 6335, Note_on_c, 1, 59, 0
1, 6336, Note_on_c, 0, 83, 75
1, 6384, Note_on_c, 1, 64, 64
1, 6384, Note_on_c, 1, 56, 64
1, 6403, Note_on_c, 0, 83, 0
1, 6408, Note_on_c, 0, 85, 75
1, 6431, Note_on_c, 0, 85, 0
1, 6431, Note_on_c, 1, 64, 0
1, 6431, Note_on_c, 1, 56, 0
1, 6432, Note_on_c, 0, 83, 76
1, 6432, Note_on_c, 1, 64, 65
1, 6432, Note_on_c, 1, 56, 65
1, 6447, Note_on_c, 0, 83, 0
1, 6448, Note_on_c, 0, 81, 76
1, 6463, Note_on_c, 0, 81, 0
1, 6464, Note_on_c, 0, 80, 76
1, 6479, Note_on_c, 0, 80, 0
1, 6479, Note_on_c, 1, 64, 0
1, 6479, Note_on_c, 1, 56, 0
1, 6480, Note_on_c, 0, 78, 76
1, 6480, Note_on_c, 1, 64, 65
1, 6480, Note_on_c, 1, 56, 65
1, 6495, Note_on_c, 0, 78, 0
1, 6496, Note_on_c, 0, 76, 76
1, 6511, Note_on_c, 0, 76, 0
1, 6512, Note_on_c, 0, 74, 76
1, 6527, Note_on_c, 0, 74, 0
1, 6527, Note_on_c, 1, 64, 0
1, 6527, Note_on_c, 1, 56, 0
1, 6528, Note_on_c, 0, 74, 92
1, 6576, Note_on_c, 1, 64, 66
1, 6576, Note_on_c, 1, 57, 66
1, 6600, Note_on_c, 0, 74, 0
1, 6600, Note_on_c, 0, 71, 77
1, 6623, Note_on_c, 0, 71, 0
1, 6623, Note_on_c, 1, 64, 0
1, 6623, Note_on_c, 1, 57, 0
1, 6624, Note_on_c, 0, 73, 77
1, 6624, Note_on_c, 1, 64, 67
1, 6624, Note_on_c, 1, 57, 67
1, 6639, Note_on_c, 0, 73, 0
1, 6640, Note_on_c, 0, 74, 77
1, 6655, Note_on_c, 0, 74, 0
1, 6656, Note_on_c, 0, 76, 77
1, 6671, Note_on_c, 0, 76, 0
1, 6671, Note_on_c, 1, 64, 0
1, 6671, Note_on_c, 1, 57, 0
1, 6672, Note_on_c, 0, 78, 78
1, 6672, Note_on_c, 1, 64, 67
1, 6672, Note_on_c, 1, 57, 67
1, 6687, Note_on_c, 0, 78, 0
1, 6688, Note_on_c, 0, 80, 78
1, 6703, Note_on_c, 0, 80, 0
1, 6704, Note_on_c, 0, 81, 78
1, 6719, Note_on_c, 0, 81, 0
1, 6719, Note_on_c, 1, 64, 0
1, 6719, Note_on_c, 1, 57, 0
1, 6720, Note_on_c, 0, 81, 80
1, 6768, Note_on_c, 1, 57, 80
1, 6768, Note_on_c, 1, 49, 80
1, 6783, Note_on_c, 0, 81, 0
1, 6784, Note_on_c, 0, 85, 81
1, 6799, Note_on_c, 0, 85, 0
1, 6800, Note_on_c, 0, 83, 82
1, 6813, Note_on_c, 1, 57, 0
1, 6813, Note_on_c, 1, 49, 0
1, 6815, Note_on_c, 0, 83, 0
1, 6816, Note_on_c, 0, 81, 82
1, 6816, Note_on_c, 1, 57, 82
1, 6816, Note_on_c, 1, 49, 82
1, 6831, Note_on_c, 0, 81, 0
1, 6832, Note_on_c, 0, 80, 83
1, 6847, Note_on_c, 0, 80, 0
1, 6848, Note_on_c, 0, 78, 83
1, 6861, Note_on_c, 1, 57, 0
1, 6861, Note_on_c, 1, 49, 0
1, 6863, Note_on_c, 0, 78, 0
1, 6864, Note_on_c, 0, 76, 83
1, 6864, Note_on_c, 1, 57, 84
1, 6864, Note_on_c, 1, 50, 84
1, 6879, Note_on_c, 0, 76, 0
1, 6880, Note_on_c, 0, 74, 84
1, 6895, Note_on_c, 0, 74, 0
1, 6896, Note_on_c, 0, 73, 84
1, 6909, Note_on_c, 1, 57, 0
1, 6909, Note_on_c, 1, 50, 0
1, 6911, Note_on_c, 0, 73, 0
1, 6912, Note_on_c, 0, 74, 86
1, 6912, Note_on_c, 1, 57, 86
1, 6912, Note_on_c, 1, 52, 80
1, 6920, Note_on_c, 0, 74, 0
1, 6920, Note_on_c, 0, 73, 85
1, 6928, Note_on_c, 0, 73, 0
1, 6928, Note_on_c, 0, 74, 84
1, 6936, Note_on_c, 0, 74, 0
1, 6936, Note_on_c, 0, 73, 84
1, 6944, Note_on_c, 0, 73, 0
1, 6944, Note_on_c, 0, 74, 83
1, 6952, Note_on_c, 0, 74, 0
1, 6952, Note_on_c, 0, 73, 83
1, 6957, Note_on_c, 1, 57, 0
1, 6960, Note_on_c, 0, 73, 0
1, 6960, Note_on_c, 0, 71, 82
1, 6960, Note_on_c, 1, 56, 83
1, 6975, Note_on_c, 0, 71, 0
1, 6976, Note_on_c, 0, 85, 80
1, 6991, Note_on_c, 0, 85, 0
1, 6992, Note_on_c, 0, 83, 80
1, 7001, Note_on_c, 1, 52, 0
1, 7005, Note_on_c, 1, 56, 0
1, 7007, Note_on_c, 0, 83, 0
1, 7008, Note_on_c, 0, 81, 81
1, 7008, Note_on_c, 1, 57, 80
1, 7008, Note_on_c, 1, 49, 80
1, 7023, Note_on_c, 0, 81, 0
1, 7024, Note_on_c, 0, 80, 81
1, 7039, Note_on_c, 0, 80, 0
1, 7040, Note_on_c, 0, 78, 82
1, 7053, Note_on_c, 1, 57, 0
1, 7053, Note_on_c, 1, 49, 0
1, 7055, Note_on_c, 0, 78, 0
1, 7056, Note_on_c, 0, 76, 82
1, 7056, Note_on_c, 1, 57, 83
1, 7056, Note_on_c, 1, 50, 83
1, 7071, Note_on_c, 0, 76, 0
1, 7072, Note_on_c, 0, 74, 83
1, 7087, Note_on_c, 0, 74, 0
1, 7088, Note_on_c, 0, 73, 83
1, 7101, Note_on_c, 1, 57, 0
1, 7101, Note_on_c, 1, 50, 0
1, 7103, Note_on_c, 0, 73, 0
1, 7104, Note_on_c, 0, 74, 86
1, 7104, Note_on_c, 1, 57, 86
1, 7104, Note_on_c, 1, 52, 80
1, 7112, Note_on_c, 0, 74, 0
1, 7112, Note_on_c, 0, 73, 85
1, 7120, Note_on_c, 0, 73, 0
1, 7120, Note_on_c, 0, 74, 84
1, 7128, Note_on_c, 0, 74, 0
1, 7128, Note_on_c, 0, 73, 84
1, 7136, Note_on_c, 0, 73, 0
1, 7136, Note_on_c, 0, 74, 83
1, 7144, Note_on_c, 0, 74, 0
1, 7144, Note_on_c, 0, 73, 83
1, 7149, Note_on_c, 1, 57, 0
1, 7152, Note_on_c, 0, 73, 0
1, 7152, Note_on_c, 0, 71, 82
1, 7152, Note_on_c, 1, 56, 83
1, 7167, Note_on_c, 0, 71, 0
1, 7168, Note_on_c, 0, 85, 80
1, 7183, Note_on_c, 0, 85, 0
1, 7184, Note_on_c, 0, 83, 80
1, 7193, Note_on_c, 1, 52, 0
1, 7197, Note_on_c, 1, 56, 0
1, 7199, Note_on_c, 0, 83, 0
1, 7200, Note_on_c, 0, 81, 81
1, 7200, Note_on_c, 1, 57, 80
1, 7200, Note_on_c, 1, 49, 80
1, 7215, Note_on_c, 0, 81, 0
1, 7216, Note_on_c, 0, 80, 81
1, 7231, Note_on_c, 0, 80, 0
1, 7232, Note_on_c, 0, 78, 82
1, 7245, Note_on_c, 1, 57, 0
1, 7245, Note_on_c, 1, 49, 0
1, 7247, Note_on_c, 0, 78, 0
1, 7248, Note_on_c, 0, 76, 82
1, 7248, Note_on_c, 1, 57, 83
1, 7248, Note_on_c, 1, 50, 83
1, 7263, Note_on_c, 0, 76, 0
1, 7264, Note_on_c, 0, 74, 83
1, 7279, Note_on_c, 0, 74, 0
1, 7280, Note_on_c, 0, 73, 83
1, 7293, Note_on_c, 1, 57, 0
1, 7293, Note_on_c, 1, 50, 0
1, 7295, Note_on_c, 0, 73, 0
1, 7296, Note_on_c, 0, 73, 86
1, 7296, Note_on_c, 1, 57, 86
1, 7296, Note_on_c, 1, 52, 80
1, 7305, Note_on_c, 0, 73, 0
1, 7305, Note_on_c, 0, 74, 85
1, 7314, Note_on_c, 0, 74, 0
1, 7314, Note_on_c, 0, 73, 84
1, 7323, Note_on_c, 0, 73, 0
1, 7323, Note_on_c, 0, 74, 84
1, 7332, Note_on_c, 0, 74, 0
1, 7332, Note_on_c, 0, 73, 83
1, 7341, Note_on_c, 0, 73, 0
1, 7341, Note_on_c, 0, 74, 83
1, 7350, Note_on_c, 0, 74, 0
1, 7350, Note_on_c, 0, 73, 82
1, 7359, Note_on_c, 0, 73, 0
1, 7359, Note_on_c, 0, 71, 82
1, 7376, Note_on_c, 0, 71, 0
1, 7376, Note_on_c, 0, 73, 80
1, 7392, Note_on_c, 0, 73, 0
1, 7392, Note_on_c, 0, 71, 79
1, 7392, Note_on_c, 1, 57, 0
1, 7392, Note_on_c, 1, 56, 63
1, 7473, Note_on_c, 1, 52, 0
1, 7481, Note_on_c, 0, 71, 0
1, 7481, Note_on_c, 1, 56, 0
1, 7584, Note_on_c, 1, 49, 63
1, 7584, Note_on_c, 1, 37, 63
1, 7584, Note_on_c, 1, 49, 75
1, 7584, Note_on_c, 1, 37, 75
1, 7620, Note_on_c, 0, 52, 64
1, 7632, Note_on_c, 0, 52, 0
1, 7632, Note_on_c, 0, 57, 64
1, 7666, Note_on_c, 0, 57, 0
1, 7668, Note_on_c, 0, 61, 65
1, 7673, Note_on_c, 1, 49, 0
1, 7673, Note_on_c, 1, 37, 0
1, 7673, Note_on_c, 1, 49, 0
1, 7673, Note_on_c, 1, 37, 0
1, 7680, Note_on_c, 0, 61, 0
1, 7680, Note_on_c, 0, 61, 66
1, 7680, Note_on_c, 1, 50, 66
1, 7680, Note_on_c, 1, 38, 66
1, 7714, Note_on_c, 0, 61, 0
1, 7716, Note_on_c, 0, 54, 67
1, 7728, Note_on_c, 0, 54, 0
1, 7728, Note_on_c, 0, 59, 68
1, 7762, Note_on_c, 0, 59, 0
1, 7764, Note_on_c, 0, 62, 69
1, 7769, Note_on_c, 1, 50, 0
1, 7769, Note_on_c, 1, 38, 0
1, 7776, Note_on_c, 0, 62, 0
1, 7776, Note_on_c, 0, 62, 69
1, 7776, Note_on_c, 1, 52, 69
1, 7776, Note_on_c, 1, 40, 69
1, 7810, Note_on_c, 0, 62, 0
1, 7812, Note_on_c, 0, 56, 71
1, 7824, Note_on_c, 0, 56, 0
1, 7824, Note_on_c, 0, 61, 71
1, 7858, Note_on_c, 0, 61, 0
1, 7860, Note_on_c, 0, 64, 72
1, 7865, Note_on_c, 1, 52, 0
1, 7865, Note_on_c, 1, 40, 0
1, 7872, Note_on_c, 0, 64, 0
1, 7872, Note_on_c, 0, 64, 73
1, 7872, Note_on_c, 1, 54, 73
1, 7872, Note_on_c, 1, 42, 73
1, 7906, Note_on_c, 0, 64, 0
1, 7908, Note_on_c, 0, 57, 74
1, 7920, Note_on_c, 0, 57, 0
1, 7920, Note_on_c, 0, 62, 74
1, 7954, Note_on_c, 0, 62, 0
1, 7956, Note_on_c, 0, 66, 76
1, 7961, Note_on_c, 1, 54, 0
1, 7961, Note_on_c, 1, 42, 0
1, 7968, Note_on_c, 0, 66, 0
1, 7968, Note_on_c, 0, 66, 76
1, 7968, Note_on_c, 1, 56, 76
1, 7968, Note_on_c, 1, 44, 76
1, 7991, Note_on_c, 0, 66, 0
1, 7992, Note_on_c, 0, 64, 77
1, 8004, Note_on_c, 0, 64, 0
1, 8004, Note_on_c, 0, 62, 77
1, 8016, Note_on_c, 0, 62, 0
1, 8016, Note_on_c, 0, 61, 78
1, 8039, Note_on_c, 0, 61, 0
1, 8040, Note_on_c, 0, 62, 79
1, 8057, Note_on_c, 1, 56, 0
1, 8057, Note_on_c, 1, 44, 0
1, 8063, Note_on_c, 0, 62, 0
1, 8064, Note_on_c, 0, 61, 80
1, 8064, Note_on_c, 1, 57, 80
1, 8064, Note_on_c, 1, 45, 80
1, 8098, Note_on_c, 0, 61, 0
1, 8100, Note_on_c, 0, 69, 80
1, 8100, Note_on_c, 0, 61, 80
1, 8109, Note_on_c, 1, 57, 0
1, 8109, Note_on_c, 1, 45, 0
1, 8112, Note_on_c, 0, 69, 0
1, 8112, Note_on_c, 0, 61, 0
1, 8112, Note_on_c, 0, 69, 80
1, 8112, Note_on_c, 0, 61, 80
1, 8146, Note_on_c, 0, 69, 0
1, 8146, Note_on_c, 0, 61, 0
1, 8148, Note_on_c, 0, 69, 80
1, 8148, Note_on_c, 0, 61, 80
1, 8160, Note_on_c, 0, 69, 0
1, 8160, Note_on_c, 0, 61, 0
1, 8160, Note_on_c, 0, 69, 80
1, 8160, Note_on_c, 0, 61, 80
1, 8194, Note_on_c, 0, 69, 0
1, 8194, Note_on_c, 0, 61, 0
1, 8196, Note_on_c, 0, 73, 80
1, 8196, Note_on_c, 0, 69, 80
1, 8208, Note_on_c, 0, 73, 0
1, 8208, Note_on_c, 0, 69, 0
1, 8208, Note_on_c, 0, 73, 80
1, 8208, Note_on_c, 0, 69, 80
1, 8242, Note_on_c, 0, 73, 0
1, 8242, Note_on_c, 0, 69, 0
1, 8244, Note_on_c, 0, 73, 80
1, 8244, Note_on_c, 0, 69, 80
1, 8256, Note_on_c, 0, 73, 0
1, 8256, Note_on_c, 0, 69, 0
1, 8256, Note_on_c, 0, 73, 80
1, 8256, Note_on_c, 0, 69, 80
1, 8256, Note_on_c, 1, 45, 80
1, 8256, Note_on_c, 1, 33, 80
1, 8290, Note_on_c, 0, 73, 0
1, 8290, Note_on_c, 0, 69, 0
1, 8292, Note_on_c, 0, 81, 80
1, 8292, Note_on_c, 0, 73, 80
1, 8301, Note_on_c, 1, 45, 0
1, 8301, Note_on_c, 1, 33, 0
1, 8304, Note_on_c, 0, 81, 0
1, 8304, Note_on_c, 0, 73, 0
1, 8304, Note_on_c, 0, 81, 80
1, 8304, Note_on_c, 0, 73, 80
1, 8338, Note_on_c, 0, 81, 0
1, 8338, Note_on_c, 0, 73, 0
1, 8340, Note_on_c, 0, 81, 80
1, 8340, Note_on_c, 0, 73, 80
1, 8352, Note_on_c, 0, 81, 0
1, 8352, Note_on_c, 0, 73, 0
1, 8352, Note_on_c, 0, 81, 80
1, 8352, Note_on_c, 0, 73, 80
1, 8388, Note_on_c, 1, 45, 80
1, 8388, Note_on_c, 1, 33, 80
1, 8397, Note_on_c, 0, 81, 0
1, 8397, Note_on_c, 0, 73, 0
1, 8400, Note_on_c, 1, 45, 0
1, 8400, Note_on_c, 1, 33, 0
1, 8400, Note_on_c, 1, 45, 80
1, 8400, Note_on_c, 1, 33, 80
1, 8434, Note_on_c, 1, 45, 0
1, 8434, Note_on_c, 1, 33, 0
1, 8436, Note_on_c, 1, 45, 80
1, 8436, Note_on_c, 1, 33, 80
1, 8448, Note_on_c, 1, 45, 0
1, 8448, Note_on_c, 1, 33, 0
1, 8448, Note_on_c, 1, 50, 80
1, 8448, Note_on_c, 1, 38, 80
1, 8484, Note_on_c, 0, 78, 80
1, 8484, Note_on_c, 0, 74, 80
1, 8496, Note_on_c, 0, 78, 0
1, 8496, Note_on_c, 0, 74, 0
1, 8496, Note_on_c, 0, 76, 80
1, 8496, Note_on_c, 0, 73, 80
1, 8530, Note_on_c, 0, 76, 0
1, 8530, Note_on_c, 0, 73, 0
1, 8532, Note_on_c, 0, 74, 80
1, 8532, Note_on_c, 0, 71, 80
1, 8537, Note_on_c, 1, 50, 0
1, 8537, Note_on_c, 1, 38, 0
1, 8544, Note_on_c, 0, 74, 0
1, 8544, Note_on_c, 0, 71, 0
1, 8544, Note_on_c, 0, 73, 80
1, 8544, Note_on_c, 0, 69, 80
1, 8544, Note_on_c, 1, 52, 80
1, 8589, Note_on_c, 0, 73, 0
1, 8589, Note_on_c, 0, 69, 0
1, 8589, Note_on_c, 1, 52, 0
1, 8592, Note_on_c, 0, 71, 80
1, 8592, Note_on_c, 0, 68, 80
1, 8592, Note_on_c, 1, 40, 80
1, 8637, Note_on_c, 0, 71, 0
1, 8637, Note_on_c, 0, 68, 0
1, 8637, Note_on_c, 1, 40, 0
1, 8640, Note_on_c, 1, 45, 80
1, 8656, Note_on_c, 0, 69, 75
1, 8671, Note_on_c, 0, 69, 0
1, 8672, Note_on_c, 0, 71, 75
1, 8687, Note_on_c, 0, 71, 0
1, 8688, Note_on_c, 0, 73, 75
1, 8703, Note_on_c, 0, 73, 0
1, 8704, Note_on_c, 0, 74, 75
1, 8719, Note_on_c, 0, 74, 0
1, 8720, Note_on_c, 0, 76, 75
1, 8729, Note_on_c, 1, 45, 0
1, 8735, Note_on_c, 0, 76, 0
1, 8736, Note_on_c, 0, 74, 75
1, 8736, Note_on_c, 0, 71, 75
1, 8752, Note_on_c, 1, 52, 75
1, 8767, Note_on_c, 1, 52, 0
1, 8768, Note_on_c, 1, 54, 75
1, 8783, Note_on_c, 1, 54, 0
1, 8784, Note_on_c, 1, 56, 75
1, 8799, Note_on_c, 1, 56, 0
1, 8800, Note_on_c, 1, 57, 75
1, 8815, Note_on_c, 1, 57, 0
1, 8816, Note_on_c, 1, 59, 75
1, 8825, Note_on_c, 0, 74, 0
1, 8825, Note_on_c, 0, 71, 0
1, 8831, Note_on_c, 1, 59, 0
1, 8832, Note_on_c, 1, 57, 75
1, 8848, Note_on_c, 0, 69, 75
1, 8863, Note_on_c, 0, 69, 0
1, 8864, Note_on_c, 0, 71, 75
1, 8879, Note_on_c, 0, 71, 0
1, 8880, Note_on_c, 0, 73, 75
1, 8895, Note_on_c, 0, 73, 0
1, 8896, Note_on_c, 0, 74, 75
1, 8911, Note_on_c, 0, 74, 0
1, 8912, Note_on_c, 0, 76, 75
1, 8921, Note_on_c, 1, 57, 0
1, 8927, Note_on_c, 0, 76, 0
1, 8928, Note_on_c, 0, 74, 75
1, 8928, Note_on_c, 0, 71, 75
1, 8944, Note_on_c, 1, 52, 75
1, 8959, Note_on_c, 1, 52, 0
1, 8960, Note_on_c, 1, 54, 75
1, 8975, Note_on_c, 1, 54, 0
1, 8976, Note_on_c, 1, 56, 75
1, 8991, Note_on_c, 1, 56, 0
1, 8992, Note_on_c, 1, 57, 75
1, 9007, Note_on_c, 1, 57, 0
1, 9008, Note_on_c, 1, 59, 75
1, 9017, Note_on_c, 0, 74, 0
1, 9017, Note_on_c, 0, 71, 0
1, 9023, Note_on_c, 1, 59, 0
1, 9024, Note_on_c, 1, 57, 75
1, 9040, Note_on_c, 0, 69, 75
1, 9055, Note_on_c, 0, 69, 0
1, 9056, Note_on_c, 0, 71, 75
1, 9071, Note_on_c, 0, 71, 0
1, 9072, Note_on_c, 0, 73, 75
1, 9087, Note_on_c, 0, 73, 0
1, 9088, Note_on_c, 0, 74, 75
1, 9103, Note_on_c, 0, 74, 0
1, 9104, Note_on_c, 0, 76, 75
1, 9113, Note_on_c, 1, 57, 0
1, 9119, Note_on_c, 0, 76, 0
1, 9120, Note_on_c, 1, 57, 75
1, 9120, Note_on_c, 1, 50, 75
1, 9136, Note_on_c, 0, 71, 75
1, 9151, Note_on_c, 0, 71, 0
1, 9152, Note_on_c, 0, 73, 75
1, 9167, Note_on_c, 0, 73, 0
1, 9168, Note_on_c, 0, 74, 75
1, 9183, Note_on_c, 0, 74, 0
1, 9184, Note_on_c, 0, 76, 75
1, 9199, Note_on_c, 0, 76, 0
1, 9200, Note_on_c, 0, 78, 75
1, 9209, Note_on_c, 1, 57, 0
1, 9209, Note_on_c, 1, 50, 0
1, 9215, Note_on_c, 0, 78, 0
1, 9216, Note_on_c, 0, 64, 75
1, 9264, Note_on_c, 1, 57, 75
1, 9264, Note_on_c, 1, 49, 75
1, 9305, Note_on_c, 0, 64, 0
1, 9309, Note_on_c, 1, 49, 0
1, 9312, Note_on_c, 0, 71, 75
1, 9312, Note_on_c, 1, 50, 75
1, 9321, Note_on_c, 0, 71, 0
1, 9321, Note_on_c, 0, 73, 75
1, 9330, Note_on_c, 0, 73, 0
1, 9330, Note_on_c, 0, 71, 75
1, 9339, Note_on_c, 0, 71, 0
1, 9339, Note_on_c, 0, 73, 75
1, 9348, Note_on_c, 0, 73, 0
1, 9348, Note_on_c, 0, 71, 75
1, 9357, Note_on_c, 0, 71, 0
1, 9357, Note_on_c, 0, 73, 75
1, 9357, Note_on_c, 1, 50, 0
1, 9360, Note_on_c, 1, 57, 0
1, 9360, Note_on_c, 1, 56, 75
1, 9360, Note_on_c, 1, 52, 75
1, 9366, Note_on_c, 0, 73, 0
1, 9366, Note_on_c, 0, 71, 75
1, 9375, Note_on_c, 0, 71, 0
1, 9375, Note_on_c, 0, 73, 75
1, 9384, Note_on_c, 0, 73, 0
1, 9384, Note_on_c, 0, 71, 75
1, 9392, Note_on_c, 0, 71, 0
1, 9392, Note_on_c, 0, 69, 75
1, 9400, Note_on_c, 0, 69, 0
1, 9400, Note_on_c, 0, 71, 75
1, 9405, Note_on_c, 1, 56, 0
1, 9405, Note_on_c, 1, 52, 0
1, 9408, Note_on_c, 0, 71, 0
1, 9408, Note_on_c, 1, 57, 75
1, 9424, Note_on_c, 0, 69, 75
1, 9439, Note_on_c, 0, 69, 0
1, 9440, Note_on_c, 0, 71, 75
1, 9455, Note_on_c, 0, 71, 0
1, 9456, Note_on_c, 0, 73, 75
1, 9471, Note_on_c, 0, 73, 0
1, 9472, Note_on_c, 0, 74, 75
1, 9487, Note_on_c, 0, 74, 0
1, 9488, Note_on_c, 0, 76, 75
1, 9497, Note_on_c, 1, 57, 0
1, 9503, Note_on_c, 0, 76, 0
1, 9504, Note_on_c, 1, 57, 75
1, 9504, Note_on_c, 1, 50, 75
1, 9520, Note_on_c, 0, 71, 75
1, 9535, Note_on_c, 0, 71, 0
1, 9536, Note_on_c, 0, 73, 75
1, 9551, Note_on_c, 0, 73, 0
1, 9552, Note_on_c, 0, 74, 75
1, 9567, Note_on_c, 0, 74, 0
1, 9568, Note_on_c, 0, 76, 75
1, 9583, Note_on_c, 0, 76, 0
1, 9584, Note_on_c, 0, 78, 75
1, 9593, Note_on_c, 1, 57, 0
1, 9593, Note_on_c, 1, 50, 0
1, 9599, Note_on_c, 0, 78, 0
1, 9600, Note_on_c, 0, 64, 75
1, 9648, Note_on_c, 1, 57, 75
1, 9648, Note_on_c, 1, 49, 75
1, 9689, Note_on_c, 0, 64, 0
1, 9693, Note_on_c, 1, 49, 0
1, 9696, Note_on_c, 0, 71, 75
1, 9696, Note_on_c, 1, 50, 75
1, 9705, Note_on_c, 0, 71, 0
1, 9705, Note_on_c, 0, 73, 75
1, 9714, Note_on_c, 0, 73, 0
1, 9714, Note_on_c, 0, 71, 75
1, 9723, Note_on_c, 0, 71, 0
1, 9723, Note_on_c, 0, 73, 75
1, 9732, Note_on_c, 0, 73, 0
1, 9732, Note_on_c, 0, 71, 75
1, 9741, Note_on_c, 0, 71, 0
1, 9741, Note_on_c, 0, 73, 75
1, 9741, Note_on_c, 1, 50, 0
1, 9744, Note_on_c, 1, 57, 0
1, 9744, Note_on_c, 1, 56, 75
1, 9744, Note_on_c, 1, 52, 75
1, 9750, Note_on_c, 0, 73, 0
1, 9750, Note_on_c, 0, 71, 75
1, 9759, Note_on_c, 0, 71, 0
1, 9759, Note_on_c, 0, 73, 75
1, 9768, Note_on_c, 0, 73, 0
1, 9768, Note_on_c, 0, 71, 75
1, 9776, Note_on_c, 0, 71, 0
1, 9776, Note_on_c, 0, 69, 75
1, 9784, Note_on_c, 0, 69, 0
1, 9784, Note_on_c, 0, 71, 75
1, 9789, Note_on_c, 1, 56, 0
1, 9789, Note_on_c, 1, 52, 0
1, 9792, Note_on_c, 0, 71, 0
1, 9792, Note_on_c, 0, 69, 75
1, 9792, Note_on_c, 1, 57, 75
1, 9812, Note_on_c, 0, 69, 0
1, 9840, Note_on_c, 0, 76, 63
1, 9881, Note_on_c, 1, 57, 0
1, 9885, Note_on_c, 0, 76, 0
1, 9888, Note_on_c, 0, 77, 63
1, 9903, Note_on_c, 0, 77, 0
1, 9904, Note_on_c, 0, 76, 63
1, 9919, Note_on_c, 0, 76, 0
1, 9920, Note_on_c, 0, 77, 63
1, 9935, Note_on_c, 0, 77, 0
1, 9936, Note_on_c, 0, 81, 63
1, 9936, Note_on_c, 1, 72, 56
1, 9936, Note_on_c, 1, 69, 56
1, 9951, Note_on_c, 0, 81, 0
1, 9952, Note_on_c, 0, 79, 63
1, 9967, Note_on_c, 0, 79, 0
1, 9968, Note_on_c, 0, 77, 63
1, 9981, Note_on_c, 1, 72, 0
1, 9983, Note_on_c, 0, 77, 0
1, 9984, Note_on_c, 0, 75, 63
1, 9984, Note_on_c, 1, 71, 56
1, 9999, Note_on_c, 0, 75, 0
1, 10000, Note_on_c, 0, 76, 63
1, 10015, Note_on_c, 0, 76, 0
1, 10016, Note_on_c, 0, 78, 63
1, 10029, Note_on_c, 1, 69, 0
1, 10031, Note_on_c, 0, 78, 0
1, 10032, Note_on_c, 0, 76, 63
1, 10032, Note_on_c, 1, 67, 57
1, 10047, Note_on_c, 0, 76, 0
1, 10048, Note_on_c, 0, 78, 63
1, 10063, Note_on_c, 0, 78, 0
1, 10064, Note_on_c, 0, 79, 64
1, 10073, Note_on_c, 1, 71, 0
1, 10079, Note_on_c, 0, 79, 0
1, 10080, Note_on_c, 0, 73, 64
1, 10080, Note_on_c, 1, 69, 58
1, 10095, Note_on_c, 0, 73, 0
1, 10096, Note_on_c, 0, 74, 64
1, 10111, Note_on_c, 0, 74, 0
1, 10112, Note_on_c, 0, 76, 64
1, 10125, Note_on_c, 1, 67, 0
1, 10127, Note_on_c, 0, 76, 0
1, 10128, Note_on_c, 0, 74, 65
1, 10128, Note_on_c, 1, 65, 59
1, 10143, Note_on_c, 0, 74, 0
1, 10144, Note_on_c, 0, 76, 65
1, 10159, Note_on_c, 0, 76, 0
1, 10160, Note_on_c, 0, 77, 65
1, 10169, Note_on_c, 1, 69, 0
1, 10175, Note_on_c, 0, 77, 0
1, 10176, Note_on_c, 0, 71, 65
1, 10176, Note_on_c, 1, 67, 60
1, 10191, Note_on_c, 0, 71, 0
1, 10192, Note_on_c, 0, 72, 66
1, 10207, Note_on_c, 0, 72, 0
1, 10208, Note_on_c, 0, 74, 66
1, 10221, Note_on_c, 1, 65, 0
1, 10223, Note_on_c, 0, 74, 0
1, 10224, Note_on_c, 0, 72, 66
1, 10224, Note_on_c, 1, 64, 61
1, 10239, Note_on_c, 0, 72, 0
1, 10240, Note_on_c, 0, 74, 66
1, 10255, Note_on_c, 0, 74, 0
1, 10256, Note_on_c, 0, 76, 67
1, 10265, Note_on_c, 1, 67, 0
1, 10271, Note_on_c, 0, 76, 0
1, 10272, Note_on_c, 0, 69, 67
1, 10272, Note_on_c, 1, 65, 62
1, 10287, Note_on_c, 0, 69, 0
1, 10288, Note_on_c, 0, 71, 67
1, 10303, Note_on_c, 0, 71, 0
1, 10304, Note_on_c, 0, 72, 67
1, 10317, Note_on_c, 1, 64, 0
1, 10319, Note_on_c, 0, 72, 0
1, 10320, Note_on_c, 0, 71, 68
1, 10320, Note_on_c, 1, 62, 63
1, 10335, Note_on_c, 0, 71, 0
1, 10336, Note_on_c, 0, 72, 68
1, 10351, Note_on_c, 0, 72, 0
1, 10352, Note_on_c, 0, 74, 68
1, 10361, Note_on_c, 1, 65, 0
1, 10367, Note_on_c, 0, 74, 0
1, 10368, Note_on_c, 0, 68, 68
1, 10368, Note_on_c, 1, 64, 64
1, 10383, Note_on_c, 0, 68, 0
1, 10384, Note_on_c, 0, 69, 69
1, 10399, Note_on_c, 0, 69, 0
1, 10400, Note_on_c, 0, 71, 69
1, 10413, Note_on_c, 1, 62, 0
1, 10415, Note_on_c, 0, 71, 0
1, 10416, Note_on_c, 0, 69, 69
1, 10416, Note_on_c, 1, 60, 65
1, 10431, Note_on_c, 0, 69, 0
1, 10432, Note_on_c, 0, 71, 69
1, 10447, Note_on_c, 0, 71, 0
1, 10448, Note_on_c, 0, 72, 70
1, 10461, Note_on_c, 1, 60, 0
1, 10463, Note_on_c, 0, 72, 0
1, 10464, Note_on_c, 0, 71, 70
1, 10464, Note_on_c, 1, 56, 66
1, 10479, Note_on_c, 0, 71, 0
1, 10480, Note_on_c, 0, 72, 70
1, 10495, Note_on_c, 0, 72, 0
1, 10496, Note_on_c, 0, 74, 70
1, 10509, Note_on_c, 1, 56, 0
1, 10511, Note_on_c, 0, 74, 0
1, 10512, Note_on_c, 0, 72, 71
1, 10512, Note_on_c, 1, 57, 67
1, 10527, Note_on_c, 0, 72, 0
1, 10528, Note_on_c, 0, 74, 71
1, 10543, Note_on_c, 0, 74, 0
1, 10544, Note_on_c, 0, 76, 71
1, 10553, Note_on_c, 1, 64, 0
1, 10557, Note_on_c, 1, 57, 0
1, 10559, Note_on_c, 0, 76, 0
1, 10560, Note_on_c, 0, 74, 71
1, 10560, Note_on_c, 1, 52, 68
1, 10568, Note_on_c, 0, 74, 0
1, 10568, Note_on_c, 0, 72, 75
1, 10576, Note_on_c, 0, 72, 0
1, 10576, Note_on_c, 0, 74, 75
1, 10584, Note_on_c, 0, 74, 0
1, 10584, Note_on_c, 0, 72, 75
1, 10592, Note_on_c, 0, 72, 0
1, 10592, Note_on_c, 0, 71, 75
1, 10600, Note_on_c, 0, 71, 0
1, 10600, Note_on_c, 0, 72, 75
1, 10605, Note_on_c, 1, 52, 0
1, 10608, Note_on_c, 0, 72, 0
1, 10608, Note_on_c, 0, 71, 75
1, 10608, Note_on_c, 1, 40, 68
1, 10631, Note_on_c, 0, 71, 0
1, 10644, Note_on_c, 0, 74, 80
1, 10644, Note_on_c, 0, 71, 80
1, 10653, Note_on_c, 1, 40, 0
1, 10656, Note_on_c, 0, 74, 0
1, 10656, Note_on_c, 0, 71, 0
1, 10656, Note_on_c, 0, 74, 80
1, 10656, Note_on_c, 0, 71, 80
1, 10704, Note_on_c, 1, 52, 80
1, 10704, Note_on_c, 1, 40, 80
1, 10734, Note_on_c, 0, 74, 0
1, 10734, Note_on_c, 0, 71, 0
1, 10740, Note_on_c, 0, 80, 80
1, 10740, Note_on_c, 0, 74, 80
1, 10749, Note_on_c, 1, 52, 0
1, 10749, Note_on_c, 1, 40, 0
1, 10752, Note_on_c, 0, 80, 0
1, 10752, Note_on_c, 0, 74, 0
1, 10752, Note_on_c, 0, 80, 80
1, 10752, Note_on_c, 0, 74, 80
1, 10800, Note_on_c, 1, 52, 80
1, 10800, Note_on_c, 1, 40, 80
1, 10830, Note_on_c, 0, 80, 0
1, 10830, Note_on_c, 0, 74, 0
1, 10836, Note_on_c, 0, 83, 80
1, 10836, Note_on_c, 0, 80, 80
1, 10845, Note_on_c, 1, 52, 0
1, 10845, Note_on_c, 1, 40, 0
1, 10848, Note_on_c, 0, 83, 0
1, 10848, Note_on_c, 0, 80, 0
1, 10848, Note_on_c, 0, 83, 80
1, 10848, Note_on_c, 0, 80, 80
1, 10896, Note_on_c, 1, 52, 80
1, 10896, Note_on_c, 1, 40, 80
1, 10915, Note_on_c, 0, 83, 0
1, 10915, Note_on_c, 0, 80, 0
1, 10920, Note_on_c, 0, 83, 80
1, 10932, Note_on_c, 0, 83, 0
1, 10932, Note_on_c, 0, 86, 80
1, 10941, Note_on_c, 1, 52, 0
1, 10941, Note_on_c, 1, 40, 0
1, 10944, Note_on_c, 0, 86, 0
1, 10944, Note_on_c, 0, 85, 80
1, 10944, Note_on_c, 1, 57, 80
1, 10944, Note_on_c, 1, 45, 80
1, 10959, Note_on_c, 0, 85, 0
1, 10960, Note_on_c, 0, 88, 80
1, 10975, Note_on_c, 0, 88, 0
1, 10976, Note_on_c, 0, 86, 80
1, 10991, Note_on_c, 0, 86, 0
1, 10992, Note_on_c, 0, 85, 80
1, 11007, Note_on_c, 0, 85, 0
1, 11008, Note_on_c, 0, 83, 80
1, 11023, Note_on_c, 0, 83, 0
1, 11024, Note_on_c, 0, 81, 80
1, 11033, Note_on_c, 1, 57, 0
1, 11033, Note_on_c, 1, 45, 0
1, 11039, Note_on_c, 0, 81, 0
1, 11040, Note_on_c, 0, 80, 80
1, 11055, Note_on_c, 0, 80, 0
1, 11056, Note_on_c, 0, 78, 80
1, 11071, Note_on_c, 0, 78, 0
1, 11072, Note_on_c, 0, 76, 80
1, 11087, Note_on_c, 0, 76, 0
1, 11088, Note_on_c, 0, 74, 80
1, 11103, Note_on_c, 0, 74, 0
1, 11104, Note_on_c, 0, 73, 80
1, 11119, Note_on_c, 0, 73, 0
1, 11120, Note_on_c, 0, 71, 80
1, 11135, Note_on_c, 0, 71, 0
1, 11136, Note_on_c, 0, 69, 80
1, 11184, Note_on_c, 1, 61, 63
1, 11184, Note_on_c, 1, 49, 63
1, 11203, Note_on_c, 0, 69, 0
1, 11208, Note_on_c, 0, 71, 73
1, 11229, Note_on_c, 1, 61, 0
1, 11229, Note_on_c, 1, 49, 0
1, 11231, Note_on_c, 0, 71, 0
1, 11232, Note_on_c, 0, 71, 71
1, 11232, Note_on_c, 1, 62, 63
1, 11232, Note_on_c, 1, 50, 63
1, 11241, Note_on_c, 0, 71, 0
1, 11241, Note_on_c, 0, 73, 70
1, 11250, Note_on_c, 0, 73, 0
1, 11250, Note_on_c, 0, 71, 70
1, 11259, Note_on_c, 0, 71, 0
1, 11259, Note_on_c, 0, 73, 69
1, 11268, Note_on_c, 0, 73, 0
1, 11268, Note_on_c, 0, 71, 69
1, 11277, Note_on_c, 0, 71, 0
1, 11277, Note_on_c, 0, 73, 68
1, 11277, Note_on_c, 1, 62, 0
1, 11277, Note_on_c, 1, 50, 0
1, 11280, Note_on_c, 1, 64, 63
1, 11280, Note_on_c, 1, 52, 63
1, 11286, Note_on_c, 0, 73, 0
1, 11286, Note_on_c, 0, 71, 68
1, 11295, Note_on_c, 0, 71, 0
1, 11295, Note_on_c, 0, 73, 67
1, 11304, Note_on_c, 0, 73, 0
1, 11304, Note_on_c, 0, 71, 67
1, 11312, Note_on_c, 0, 71, 0
1, 11312, Note_on_c, 0, 69, 66
1, 11320, Note_on_c, 0, 69, 0
1, 11320, Note_on_c, 0, 71, 66
1, 11325, Note_on_c, 1, 64, 0
1, 11325, Note_on_c, 1, 52, 0
1, 11328, Note_on_c, 0, 71, 0
1, 11328, Note_on_c, 0, 69, 63
1, 11328, Note_on_c, 1, 57, 80
1, 11373, Note_on_c, 1, 57, 0
1, 11376, Note_on_c, 1, 52, 80
1, 11417, Note_on_c, 0, 69, 0
1, 11421, Note_on_c, 1, 52, 0
1, 11424, Note_on_c, 1, 45, 80
1, 11469, Note_on_c, 1, 45, 0
1, 11508, Note_on_c, 0, 81, 75
1, 11508, Note_on_c, 0, 78, 75
1, 11520, Note_on_c, 0, 81, 0
1, 11520, Note_on_c, 0, 78, 0
1, 11520, Note_on_c, 0, 81, 75
1, 11520, Note_on_c, 0, 78, 75
1, 11568, Note_on_c, 1, 50, 75
1, 11568, Note_on_c, 1, 38, 75
1, 11598, Note_on_c, 0, 81, 0
1, 11598, Note_on_c, 0, 78, 0
1, 11604, Note_on_c, 0, 78, 75
1, 11604, Note_on_c, 0, 74, 75
1, 11613, Note_on_c, 1, 50, 0
1, 11613, Note_on_c, 1, 38, 0
1, 11616, Note_on_c, 0, 78, 0
1, 11616, Note_on_c, 0, 74, 0
1, 11616, Note_on_c, 0, 78, 75
1, 11616, Note_on_c, 0, 74, 75
1, 11664, Note_on_c, 1, 50, 75
1, 11664, Note_on_c, 1, 38, 75
1, 11694, Note_on_c, 0, 78, 0
1, 11694, Note_on_c, 0, 74, 0
1, 11700, Note_on_c, 0, 74, 75
1, 11700, Note_on_c, 0, 66, 75
1, 11709, Note_on_c, 1, 50, 0
1, 11709, Note_on_c, 1, 38, 0
1, 11712, Note_on_c, 0, 74, 0
1, 11712, Note_on_c, 0, 66, 0
1, 11712, Note_on_c, 0, 74, 75
1, 11712, Note_on_c, 0, 66, 75
1, 11760, Note_on_c, 1, 50, 75
1, 11760, Note_on_c, 1, 38, 75
1, 11801, Note_on_c, 0, 74, 0
1, 11801, Note_on_c, 0, 66, 0
1, 11805, Note_on_c, 1, 50, 0
1, 11805, Note_on_c, 1, 38, 0
1, 11808, Note_on_c, 1, 50, 75
1, 11808, Note_on_c, 1, 38, 75
1, 11844, Note_on_c, 0, 69, 75
1, 11844, Note_on_c, 0, 66, 75
1, 11853, Note_on_c, 1, 50, 0
1, 11853, Note_on_c, 1, 38, 0
1, 11856, Note_on_c, 0, 69, 0
1, 11856, Note_on_c, 0, 66, 0
1, 11856, Note_on_c, 0, 69, 75
1, 11856, Note_on_c, 0, 66, 75
1, 11856, Note_on_c, 1, 50, 75
1, 11856, Note_on_c, 1, 38, 75
1, 11890, Note_on_c, 0, 69, 0
1, 11890, Note_on_c, 0, 66, 0
1, 11892, Note_on_c, 0, 69, 75
1, 11892, Note_on_c, 0, 66, 75
1, 11901, Note_on_c, 1, 50, 0
1, 11901, Note_on_c, 1, 38, 0
1, 11904, Note_on_c, 0, 69, 0
1, 11904, Note_on_c, 0, 66, 0
1, 11904, Note_on_c, 0, 70, 91
1, 11904, Note_on_c, 0, 66, 91
1, 11952, Note_on_c, 1, 55, 75
1, 11997, Note_on_c, 1, 55, 0
1, 12000, Note_on_c, 0, 70, 0
1, 12000, Note_on_c, 0, 66, 0
1, 12000, Note_on_c, 0, 71, 75
1, 12000, Note_on_c, 0, 67, 75
1, 12000, Note_on_c, 1, 55, 75
1, 12034, Note_on_c, 0, 71, 0
1, 12034, Note_on_c, 0, 67, 0
1, 12036, Note_on_c, 0, 59, 75
1, 12045, Note_on_c, 1, 55, 0
1, 12048, Note_on_c, 0, 59, 0
1, 12048, Note_on_c, 0, 67, 75
1, 12048, Note_on_c, 1, 52, 75
1, 12048, Note_on_c, 1, 59, 64
1, 12082, Note_on_c, 0, 67, 0
1, 12084, Note_on_c, 0, 64, 75
1, 12093, Note_on_c, 1, 52, 0
1, 12093, Note_on_c, 1, 59, 0
1, 12096, Note_on_c, 0, 64, 0
1, 12096, Note_on_c, 0, 62, 75
1, 12096, Note_on_c, 1, 57, 75
1, 12096, Note_on_c, 1, 57, 64
1, 12141, Note_on_c, 0, 62, 0
1, 12141, Note_on_c, 1, 57, 0
1, 12141, Note_on_c, 1, 57, 0
1, 12144, Note_on_c, 0, 61, 71
1, 12144, Note_on_c, 1, 45, 71
1, 12144, Note_on_c, 1, 55, 64
1, 12154, Note_on_c, 0, 61, 0
1, 12154, Note_on_c, 0, 62, 71
1, 12164, Note_on_c, 0, 62, 0
1, 12164, Note_on_c, 0, 61, 70
1, 12174, Note_on_c, 0, 61, 0
1, 12174, Note_on_c, 0, 59, 70
1, 12183, Note_on_c, 0, 59, 0
1, 12183, Note_on_c, 0, 61, 69
1, 12189, Note_on_c, 1, 45, 0
1, 12189, Note_on_c, 1, 55, 0
1, 12192, Note_on_c, 0, 61, 0
1, 12192, Note_on_c, 0, 62, 69
1, 12192, Note_on_c, 1, 50, 68
1, 12192, Note_on_c, 1, 54, 64
1, 12259, Note_on_c, 0, 62, 0
1, 12259, Note_on_c, 1, 50, 0
1, 12259, Note_on_c, 1, 54, 0
1, 12276, Note_on_c, 0, 81, 75
1, 12276, Note_on_c, 0, 78, 75
1, 12288, Note_on_c, 0, 81, 0
1, 12288, Note_on_c, 0, 78, 0
1, 12288, Note_on_c, 0, 81, 75
1, 12288, Note_on_c, 0, 78, 75
1, 12336, Note_on_c, 1, 50, 75
1, 12336, Note_on_c, 1, 38, 75
1, 12366, Note_on_c, 0, 81, 0
1, 12366, Note_on_c, 0, 78, 0
1, 12372, Note_on_c, 0, 78, 75
1, 12372, Note_on_c, 0, 74, 75
1, 12381, Note_on_c, 1, 50, 0
1, 12381, Note_on_c, 1, 38, 0
1, 12384, Note_on_c, 0, 78, 0
1, 12384, Note_on_c, 0, 74, 0
1, 12384, Note_on_c, 0, 78, 75
1, 12384, Note_on_c, 0, 74, 75
1, 12432, Note_on_c, 1, 50, 75
1, 12432, Note_on_c, 1, 38, 75
1, 12462, Note_on_c, 0, 78, 0
1, 12462, Note_on_c, 0, 74, 0
1, 12468, Note_on_c, 0, 74, 75
1, 12468, Note_on_c, 0, 66, 75
1, 12477, Note_on_c, 1, 50, 0
1, 12477, Note_on_c, 1, 38, 0
1, 12480, Note_on_c, 0, 74, 0
1, 12480, Note_on_c, 0, 66, 0
1, 12480, Note_on_c, 0, 74, 75
1, 12480, Note_on_c, 0, 66, 75
1, 12528, Note_on_c, 1, 50, 75
1, 12528, Note_on_c, 1, 38, 75
1, 12569, Note_on_c, 0, 74, 0
1, 12569, Note_on_c, 0, 66, 0
1, 12573, Note_on_c, 1, 50, 0
1, 12573, Note_on_c, 1, 38, 0
1, 12576, Note_on_c, 1, 50, 75
1, 12576, Note_on_c, 1, 38, 75
1, 12592, Note_on_c, 0, 62, 75
1, 12607, Note_on_c, 0, 62, 0
1, 12608, Note_on_c, 0, 64, 75
1, 12621, Note_on_c, 1, 50, 0
1, 12621, Note_on_c, 1, 38, 0
1, 12623, Note_on_c, 0, 64, 0
1, 12624, Note_on_c, 0, 66, 75
1, 12624, Note_on_c, 1, 50, 75
1, 12624, Note_on_c, 1, 38, 75
1, 12639, Note_on_c, 0, 66, 0
1, 12640, Note_on_c, 0, 67, 75
1, 12655, Note_on_c, 0, 67, 0
1, 12656, Note_on_c, 0, 69, 75
1, 12669, Note_on_c, 1, 50, 0
1, 12669, Note_on_c, 1, 38, 0
1, 12671, Note_on_c, 0, 69, 0
1, 12672, Note_on_c, 0, 70, 91
1, 12720, Note_on_c, 1, 62, 63
1, 12720, Note_on_c, 1, 55, 63
1, 12767, Note_on_c, 1, 62, 0
1, 12767, Note_on_c, 1, 55, 0
1, 12768, Note_on_c, 0, 70, 0
1, 12768, Note_on_c, 0, 71, 75
1, 12768, Note_on_c, 1, 62, 63
1, 12768, Note_on_c, 1, 55, 63
1, 12783, Note_on_c, 0, 71, 0
1, 12784, Note_on_c, 0, 79, 75
1, 12799, Note_on_c, 0, 79, 0
1, 12800, Note_on_c, 0, 78, 75
1, 12815, Note_on_c, 0, 78, 0
1, 12815, Note_on_c, 1, 62, 0
1, 12815, Note_on_c, 1, 55, 0
1, 12816, Note_on_c, 0, 79, 75
1, 12816, Note_on_c, 1, 62, 63
1, 12816, Note_on_c, 1, 55, 63
1, 12831, Note_on_c, 0, 79, 0
1, 12832, Note_on_c, 0, 74, 75
1, 12847, Note_on_c, 0, 74, 0
1, 12848, Note_on_c, 0, 71, 75
1, 12863, Note_on_c, 0, 71, 0
1, 12863, Note_on_c, 1, 62, 0
1, 12863, Note_on_c, 1, 55, 0
1, 12864, Note_on_c, 0, 71, 91
1, 12912, Note_on_c, 1, 62, 63
1, 12912, Note_on_c, 1, 55, 63
1, 12959, Note_on_c, 1, 62, 0
1, 12960, Note_on_c, 0, 71, 0
1, 12960, Note_on_c, 0, 69, 75
1, 12960, Note_on_c, 1, 62, 63
1, 12960, Note_on_c, 1, 55, 0
1, 12960, Note_on_c, 1, 54, 63
1, 12975, Note_on_c, 0, 69, 0
1, 12976, Note_on_c, 0, 74, 75
1, 12991, Note_on_c, 0, 74, 0
1, 12992, Note_on_c, 0, 73, 75
1, 13007, Note_on_c, 0, 73, 0
1, 13007, Note_on_c, 1, 62, 0
1, 13007, Note_on_c, 1, 54, 0
1, 13008, Note_on_c, 0, 74, 75
1, 13008, Note_on_c, 1, 62, 63
1, 13008, Note_on_c, 1, 54, 63
1, 13023, Note_on_c, 0, 74, 0
1, 13024, Note_on_c, 0, 69, 75
1, 13039, Note_on_c, 0, 69, 0
1, 13040, Note_on_c, 0, 66, 75
1, 13055, Note_on_c, 0, 66, 0
1, 13055, Note_on_c, 1, 62, 0
1, 13055, Note_on_c, 1, 54, 0
1, 13056, Note_on_c, 0, 67, 75
1, 13056, Note_on_c, 1, 52, 75
1, 13079, Note_on_c, 0, 67, 0
1, 13080, Note_on_c, 0, 76, 75
1, 13101, Note_on_c, 1, 52, 0
1, 13104, Note_on_c, 1, 49, 75
1, 13125, Note_on_c, 0, 76, 0
1, 13128, Note_on_c, 0, 67, 75
1, 13149, Note_on_c, 1, 49, 0
1, 13151, Note_on_c, 0, 67, 0
1, 13152, Note_on_c, 0, 66, 75
1, 13152, Note_on_c, 1, 50, 75
1, 13175, Note_on_c, 0, 66, 0
1, 13176, Note_on_c, 0, 74, 75
1, 13197, Note_on_c, 1, 50, 0
1, 13200, Note_on_c, 1, 38, 75
1, 13221, Note_on_c, 0, 74, 0
1, 13224, Note_on_c, 0, 66, 75
1, 13245, Note_on_c, 1, 38, 0
1, 13247, Note_on_c, 0, 66, 0
1, 13248, Note_on_c, 0, 69, 68
1, 13248, Note_on_c, 1, 52, 68
1, 13254, Note_on_c, 0, 69, 0
1, 13254, Note_on_c, 0, 67, 68
1, 13260, Note_on_c, 0, 67, 0
1, 13260, Note_on_c, 0, 66, 68
1, 13266, Note_on_c, 0, 66, 0
1, 13266, Note_on_c, 0, 67, 68
1, 13272, Note_on_c, 0, 67, 0
1, 13272, Note_on_c, 0, 76, 68
1, 13293, Note_on_c, 1, 52, 0
1, 13296, Note_on_c, 1, 49, 68
1, 13317, Note_on_c, 0, 76, 0
1, 13320, Note_on_c, 0, 67, 68
1, 13341, Note_on_c, 1, 49, 0
1, 13343, Note_on_c, 0, 67, 0
1, 13344, Note_on_c, 0, 66, 68
1, 13344, Note_on_c, 1, 50, 68
1, 13367, Note_on_c, 0, 66, 0
1, 13368, Note_on_c, 0, 74, 68
1, 13389, Note_on_c, 1, 50, 0
1, 13392, Note_on_c, 1, 38, 68
1, 13413, Note_on_c, 0, 74, 0
1, 13416, Note_on_c, 0, 66, 68
1, 13437, Note_on_c, 1, 38, 0
1, 13439, Note_on_c, 0, 66, 0
1, 13440, Note_on_c, 0, 69, 75
1, 13440, Note_on_c, 1, 52, 75
1, 13464, Note_on_c, 0, 69, 0
1, 13464, Note_on_c, 0, 67, 75
1, 13485, Note_on_c, 1, 52, 0
1, 13487, Note_on_c, 0, 67, 0
1, 13488, Note_on_c, 0, 76, 76
1, 13488, Note_on_c, 1, 49, 76
1, 13512, Note_on_c, 0, 76, 0
1, 13512, Note_on_c, 0, 67, 77
1, 13533, Note_on_c, 1, 49, 0
1, 13535, Note_on_c, 0, 67, 0
1, 13536, Note_on_c, 0, 66, 77
1, 13536, Note_on_c, 1, 50, 77
1, 13560, Note_on_c, 0, 66, 0
1, 13560, Note_on_c, 0, 74, 78
1, 13570, Note_on_c, 0, 74, 0
1, 13581, Note_on_c, 1, 50, 0
1, 13584, Note_on_c, 0, 74, 79
1, 13584, Note_on_c, 1, 44, 78
1, 13608, Note_on_c, 0, 74, 0
1, 13608, Note_on_c, 0, 66, 80
1, 13608, Note_on_c, 0, 62, 80
1, 13629, Note_on_c, 1, 44, 0
1, 13631, Note_on_c, 0, 66, 0
1, 13631, Note_on_c, 0, 62, 0
1, 13632, Note_on_c, 0, 67, 75
1, 13632, Note_on_c, 0, 62, 75
1, 13632, Note_on_c, 1, 45, 80
1, 13640, Note_on_c, 0, 67, 0
1, 13640, Note_on_c, 0, 66, 74
1, 13648, Note_on_c, 0, 66, 0
1, 13648, Note_on_c, 0, 67, 73
1, 13656, Note_on_c, 0, 67, 0
1, 13656, Note_on_c, 0, 66, 73
1, 13664, Note_on_c, 0, 66, 0
1, 13664, Note_on_c, 0, 64, 72
1, 13672, Note_on_c, 0, 64, 0
1, 13672, Note_on_c, 0, 66, 72
1, 13677, Note_on_c, 0, 62, 0
1, 13680, Note_on_c, 0, 66, 0
1, 13680, Note_on_c, 0, 64, 71
1, 13680, Note_on_c, 0, 61, 70
1, 13721, Note_on_c, 1, 45, 0
1, 13747, Note_on_c, 0, 64, 0
1, 13747, Note_on_c, 0, 61, 0
1, 13812, Note_on_c, 0, 69, 75
1, 13812, Note_on_c, 0, 61, 75
1, 13824, Note_on_c, 0, 69, 0
1, 13824, Note_on_c, 0, 61, 0
1, 13824, Note_on_c, 0, 69, 75
1, 13824, Note_on_c, 0, 61, 75
1, 13872, Note_on_c, 1, 57, 75
1, 13872, Note_on_c, 1, 45, 75
1, 13902, Note_on_c, 0, 69, 0
1, 13902, Note_on_c, 0, 61, 0
1, 13908, Note_on_c, 0, 73, 75
1, 13908, Note_on_c, 0, 69, 75
1, 13917, Note_on_c, 1, 57, 0
1, 13917, Note_on_c, 1, 45, 0
1, 13920, Note_on_c, 0, 73, 0
1, 13920, Note_on_c, 0, 69, 0
1, 13920, Note_on_c, 0, 73, 75
1, 13920, Note_on_c, 0, 69, 75
1, 13968, Note_on_c, 1, 57, 75
1, 13968, Note_on_c, 1, 45, 75
1, 13998, Note_on_c, 0, 73, 0
1, 13998, Note_on_c, 0, 69, 0
1, 14004, Note_on_c, 0, 76, 75
1, 14004, Note_on_c, 0, 73, 75
1, 14013, Note_on_c, 1, 57, 0
1, 14013, Note_on_c, 1, 45, 0
1, 14016, Note_on_c, 0, 76, 0
1, 14016, Note_on_c, 0, 73, 0
1, 14016, Note_on_c, 0, 76, 75
1, 14016, Note_on_c, 0, 73, 75
1, 14064, Note_on_c, 1, 57, 75
1, 14064, Note_on_c, 1, 45, 75
1, 14105, Note_on_c, 0, 76, 0
1, 14105, Note_on_c, 0, 73, 0
1, 14109, Note_on_c, 1, 57, 0
1, 14109, Note_on_c, 1, 45, 0
1, 14112, Note_on_c, 1, 57, 75
1, 14112, Note_on_c, 1, 45, 75
1, 14128, Note_on_c, 0, 85, 75
1, 14143, Note_on_c, 0, 85, 0
1, 14144, Note_on_c, 0, 83, 75
1, 14157, Note_on_c, 1, 57, 0
1, 14157, Note_on_c, 1, 45, 0
1, 14159, Note_on_c, 0, 83, 0
1, 14160, Note_on_c, 0, 81, 75
1, 14160, Note_on_c, 1, 57, 75
1, 14160, Note_on_c, 1, 45, 75
1, 14175, Note_on_c, 0, 81, 0
1, 14176, Note_on_c, 0, 80, 75
1, 14191, Note_on_c, 0, 80, 0
1, 14192, Note_on_c, 0, 78, 75
1, 14205, Note_on_c, 1, 57, 0
1, 14205, Note_on_c, 1, 45, 0
1, 14207, Note_on_c, 0, 78, 0
1, 14208, Note_on_c, 0, 76, 91
1, 14256, Note_on_c, 1, 66, 63
1, 14256, Note_on_c, 1, 58, 63
1, 14280, Note_on_c, 0, 76, 0
1, 14280, Note_on_c, 0, 73, 75
1, 14303, Note_on_c, 0, 73, 0
1, 14303, Note_on_c, 1, 66, 0
1, 14304, Note_on_c, 0, 74, 75
1, 14304, Note_on_c, 1, 66, 63
1, 14304, Note_on_c, 1, 58, 0
1, 14304, Note_on_c, 1, 59, 63
1, 14319, Note_on_c, 0, 74, 0
1, 14320, Note_on_c, 0, 83, 75
1, 14335, Note_on_c, 0, 83, 0
1, 14336, Note_on_c, 0, 81, 75
1, 14349, Note_on_c, 1, 59, 0
1, 14351, Note_on_c, 0, 81, 0
1, 14351, Note_on_c, 1, 66, 0
1, 14352, Note_on_c, 0, 80, 75
1, 14367, Note_on_c, 0, 80, 0
1, 14368, Note_on_c, 0, 78, 75
1, 14383, Note_on_c, 0, 78, 0
1, 14384, Note_on_c, 0, 76, 75
1, 14399, Note_on_c, 0, 76, 0
1, 14400, Note_on_c, 0, 74, 91
1, 14448, Note_on_c, 1, 64, 63
1, 14448, Note_on_c, 1, 56, 63
1, 14472, Note_on_c, 0, 74, 0
1, 14472, Note_on_c, 0, 71, 75
1, 14495, Note_on_c, 0, 71, 0
1, 14495, Note_on_c, 1, 64, 0
1, 14496, Note_on_c, 0, 73, 75
1, 14496, Note_on_c, 1, 64, 63
1, 14496, Note_on_c, 1, 56, 0
1, 14496, Note_on_c, 1, 57, 63
1, 14511, Note_on_c, 0, 73, 0
1, 14512, Note_on_c, 0, 81, 75
1, 14527, Note_on_c, 0, 81, 0
1, 14528, Note_on_c, 0, 80, 75
1, 14541, Note_on_c, 1, 57, 0
1, 14543, Note_on_c, 0, 80, 0
1, 14543, Note_on_c, 1, 64, 0
1, 14544, Note_on_c, 0, 81, 75
1, 14559, Note_on_c, 0, 81, 0
1, 14560, Note_on_c, 0, 76, 75
1, 14575, Note_on_c, 0, 76, 0
1, 14576, Note_on_c, 0, 73, 75
1, 14591, Note_on_c, 0, 73, 0
1, 14592, Note_on_c, 1, 54, 75
1, 14592, Note_on_c, 1, 50, 75
1, 14616, Note_on_c, 0, 73, 76
1, 14624, Note_on_c, 0, 73, 0
1, 14624, Note_on_c, 0, 71, 77
1, 14632, Note_on_c, 0, 71, 0
1, 14632, Note_on_c, 0, 70, 77
1, 14637, Note_on_c, 1, 54, 0
1, 14637, Note_on_c, 1, 50, 0
1, 14640, Note_on_c, 0, 70, 0
1, 14640, Note_on_c, 0, 71, 77
1, 14640, Note_on_c, 1, 54, 77
1, 14640, Note_on_c, 1, 50, 77
1, 14663, Note_on_c, 0, 71, 0
1, 14664, Note_on_c, 0, 71, 80
1, 14685, Note_on_c, 1, 54, 0
1, 14685, Note_on_c, 1, 50, 0
1, 14687, Note_on_c, 0, 71, 0
1, 14688, Note_on_c, 1, 54, 80
1, 14688, Note_on_c, 1, 51, 80
1, 14712, Note_on_c, 0, 71, 80
1, 14720, Note_on_c, 0, 71, 0
1, 14720, Note_on_c, 0, 69, 80
1, 14728, Note_on_c, 0, 69, 0
1, 14728, Note_on_c, 0, 68, 80
1, 14733, Note_on_c, 1, 54, 0
1, 14733, Note_on_c, 1, 51, 0
1, 14736, Note_on_c, 0, 68, 0
1, 14736, Note_on_c, 0, 69, 80
1, 14736, Note_on_c, 1, 54, 80
1, 14736, Note_on_c, 1, 51, 80
1, 14759, Note_on_c, 0, 69, 0
1, 14760, Note_on_c, 0, 69, 80
1, 14781, Note_on_c, 1, 54, 0
1, 14781, Note_on_c, 1, 51, 0
1, 14783, Note_on_c, 0, 69, 0
1, 14784, Note_on_c, 0, 69, 80
1, 14784, Note_on_c, 1, 52, 80
1, 14829, Note_on_c, 1, 52, 0
1, 14832, Note_on_c, 1, 47, 78
1, 14877, Note_on_c, 1, 47, 0
1, 14880, Note_on_c, 0, 69, 0
1, 14880, Note_on_c, 0, 68, 76
1, 14880, Note_on_c, 1, 40, 76
1, 14925, Note_on_c, 0, 68, 0
1, 14925, Note_on_c, 1, 40, 0
1, 14976, Note_on_c, 1, 64, 68
1, 14976, Note_on_c, 1, 61, 68
1, 14976, Note_on_c, 1, 57, 68
1, 15000, Note_on_c, 0, 78, 80
1, 15008, Note_on_c, 0, 78, 0
1, 15008, Note_on_c, 0, 76, 80
1, 15016, Note_on_c, 0, 76, 0
1, 15016, Note_on_c, 0, 75, 80
1, 15021, Note_on_c, 1, 64, 0
1, 15021, Note_on_c, 1, 61, 0
1, 15021, Note_on_c, 1, 57, 0
1, 15024, Note_on_c, 0, 75, 0
1, 15024, Note_on_c, 0, 76, 80
1, 15024, Note_on_c, 1, 64, 68
1, 15024, Note_on_c, 1, 61, 68
1, 15024, Note_on_c, 1, 57, 68
1, 15044, Note_on_c, 1, 64, 0
1, 15044, Note_on_c, 1, 61, 0
1, 15044, Note_on_c, 1, 57, 0
1, 15047, Note_on_c, 0, 76, 0
1, 15048, Note_on_c, 0, 76, 80
1, 15071, Note_on_c, 0, 76, 0
1, 15072, Note_on_c, 1, 64, 68
1, 15072, Note_on_c, 1, 61, 68
1, 15072, Note_on_c, 1, 57, 68
1, 15096, Note_on_c, 0, 78, 80
1, 15104, Note_on_c, 0, 78, 0
1, 15104, Note_on_c, 0, 76, 80
1, 15112, Note_on_c, 0, 76, 0
1, 15112, Note_on_c, 0, 75, 80
1, 15117, Note_on_c, 1, 64, 0
1, 15117, Note_on_c, 1, 61, 0
1, 15117, Note_on_c, 1, 57, 0
1, 15120, Note_on_c, 0, 75, 0
1, 15120, Note_on_c, 0, 76, 80
1, 15120, Note_on_c, 1, 64, 68
1, 15120, Note_on_c, 1, 61, 68
1, 15120, Note_on_c, 1, 57, 68
1, 15140, Note_on_c, 1, 64, 0
1, 15140, Note_on_c, 1, 61, 0
1, 15140, Note_on_c, 1, 57, 0
1, 15143, Note_on_c, 0, 76, 0
1, 15144, Note_on_c, 0, 76, 80
1, 15167, Note_on_c, 0, 76, 0
1, 15168, Note_on_c, 0, 76, 80
1, 15168, Note_on_c, 1, 64, 68
1, 15168, Note_on_c, 1, 62, 68
1, 15168, Note_on_c, 1, 56, 68
1, 15183, Note_on_c, 0, 76, 0
1, 15184, Note_on_c, 0, 88, 80
1, 15199, Note_on_c, 0, 88, 0
1, 15200, Note_on_c, 0, 86, 80
1, 15215, Note_on_c, 0, 86, 0
1, 15216, Note_on_c, 0, 85, 80
1, 15231, Note_on_c, 0, 85, 0
1, 15232, Note_on_c, 0, 83, 80
1, 15247, Note_on_c, 0, 83, 0
1, 15248, Note_on_c, 0, 81, 80
1, 15263, Note_on_c, 0, 81, 0
1, 15264, Note_on_c, 0, 80, 80
1, 15279, Note_on_c, 0, 80, 0
1, 15280, Note_on_c, 0, 78, 80
1, 15295, Note_on_c, 0, 78, 0
1, 15296, Note_on_c, 0, 76, 80
1, 15311, Note_on_c, 0, 76, 0
1, 15312, Note_on_c, 0, 74, 80
1, 15327, Note_on_c, 0, 74, 0
1, 15328, Note_on_c, 0, 73, 80
1, 15343, Note_on_c, 0, 73, 0
1, 15344, Note_on_c, 0, 71, 80
1, 15345, Note_on_c, 1, 64, 0
1, 15345, Note_on_c, 1, 62, 0
1, 15345, Note_on_c, 1, 56, 0
1, 15359, Note_on_c, 0, 71, 0
1, 15360, Note_on_c, 1, 64, 68
1, 15360, Note_on_c, 1, 61, 68
1, 15360, Note_on_c, 1, 57, 68
1, 15384, Note_on_c, 0, 78, 80
1, 15392, Note_on_c, 0, 78, 0
1, 15392, Note_on_c, 0, 76, 80
1, 15400, Note_on_c, 0, 76, 0
1, 15400, Note_on_c, 0, 75, 80
1, 15405, Note_on_c, 1, 64, 0
1, 15405, Note_on_c, 1, 61, 0
1, 15405, Note_on_c, 1, 57, 0
1, 15408, Note_on_c, 0, 75, 0
1, 15408, Note_on_c, 0, 76, 80
1, 15408, Note_on_c, 1, 64, 68
1, 15408, Note_on_c, 1, 61, 68
1, 15408, Note_on_c, 1, 57, 68
1, 15428, Note_on_c, 1, 64, 0
1, 15428, Note_on_c, 1, 61, 0
1, 15428, Note_on_c, 1, 57, 0
1, 15431, Note_on_c, 0, 76, 0
1, 15432, Note_on_c, 0, 76, 80
1, 15455, Note_on_c, 0, 76, 0
1, 15456, Note_on_c, 1, 64, 68
1, 15456, Note_on_c, 1, 61, 68
1, 15456, Note_on_c, 1, 57, 68
1, 15480, Note_on_c, 0, 78, 80
1, 15488, Note_on_c, 0, 78, 0
1, 15488, Note_on_c, 0, 76, 80
1, 15496, Note_on_c, 0, 76, 0
1, 15496, Note_on_c, 0, 75, 80
1, 15501, Note_on_c, 1, 64, 0
1, 15501, Note_on_c, 1, 61, 0
1, 15501, Note_on_c, 1, 57, 0
1, 15504, Note_on_c, 0, 75, 0
1, 15504, Note_on_c, 0, 76, 80
1, 15504, Note_on_c, 1, 64, 68
1, 15504, Note_on_c, 1, 61, 68
1, 15504, Note_on_c, 1, 57, 68
1, 15524, Note_on_c, 1, 64, 0
1, 15524, Note_on_c, 1, 61, 0
1, 15524, Note_on_c, 1, 57, 0
1, 15527, Note_on_c, 0, 76, 0
1, 15528, Note_on_c, 0, 76, 80
1, 15551, Note_on_c, 0, 76, 0
1, 15552, Note_on_c, 0, 76, 80
1, 15552, Note_on_c, 1, 64, 68
1, 15552, Note_on_c, 1, 62, 68
1, 15552, Note_on_c, 1, 56, 68
1, 15567, Note_on_c, 0, 76, 0
1, 15568, Note_on_c, 0, 88, 80
1, 15583, Note_on_c, 0, 88, 0
1, 15584, Note_on_c, 0, 86, 80
1, 15599, Note_on_c, 0, 86, 0
1, 15600, Note_on_c, 0, 85, 80
1, 15615, Note_on_c, 0, 85, 0
1, 15616, Note_on_c, 0, 83, 80
1, 15631, Note_on_c, 0, 83, 0
1, 15632, Note_on_c, 0, 81, 80
1, 15647, Note_on_c, 0, 81, 0
1, 15648, Note_on_c, 0, 80, 80
1, 15663, Note_on_c, 0, 80, 0
1, 15664, Note_on_c, 0, 78, 80
1, 15679, Note_on_c, 0, 78, 0
1, 15680, Note_on_c, 0, 76, 80
1, 15695, Note_on_c, 0, 76, 0
1, 15696, Note_on_c, 0, 74, 80
1, 15711, Note_on_c, 0, 74, 0
1, 15712, Note_on_c, 0, 73, 80
1, 15727, Note_on_c, 0, 73, 0
1, 15728, Note_on_c, 0, 71, 80
1, 15729, Note_on_c, 1, 64, 0
1, 15729, Note_on_c, 1, 62, 0
1, 15729, Note_on_c, 1, 56, 0
1, 15743, Note_on_c, 0, 71, 0
1, 15744, Note_on_c, 0, 69, 80
1, 15744, Note_on_c, 1, 64, 63
1, 15744, Note_on_c, 1, 61, 63
1, 15744, Note_on_c, 1, 57, 63
1, 15759, Note_on_c, 0, 69, 0
1, 15760, Note_on_c, 0, 76, 78
1, 15775, Note_on_c, 0, 76, 0
1, 15776, Note_on_c, 0, 74, 77
1, 15791, Note_on_c, 0, 74, 0
1, 15792, Note_on_c, 0, 73, 76
1, 15807, Note_on_c, 0, 73, 0
1, 15808, Note_on_c, 0, 71, 75
1, 15823, Note_on_c, 0, 71, 0
1, 15824, Note_on_c, 0, 69, 74
1, 15833, Note_on_c, 1, 64, 0
1, 15833, Note_on_c, 1, 61, 0
1, 15833, Note_on_c, 1, 57, 0
1, 15839, Note_on_c, 0, 69, 0
1, 15840, Note_on_c, 0, 68, 73
1, 15855, Note_on_c, 0, 68, 0
1, 15856, Note_on_c, 0, 66, 72
1, 15871, Note_on_c, 0, 66, 0
1, 15872, Note_on_c, 0, 64, 71
1, 15887, Note_on_c, 0, 64, 0
1, 15888, Note_on_c, 0, 62, 70
1, 15903, Note_on_c, 0, 62, 0
1, 15904, Note_on_c, 0, 61, 69
1, 15919, Note_on_c, 0, 61, 0
1, 15920, Note_on_c, 0, 59, 68
1, 15935, Note_on_c, 0, 59, 0
1, 15936, Note_on_c, 1, 49, 75
1, 15936, Note_on_c, 1, 37, 75
1, 15936, Note_on_c, 1, 49, 75
1, 15936, Note_on_c, 1, 37, 75
1, 15952, Note_on_c, 0, 64, 63
1, 15967, Note_on_c, 0, 64, 0
1, 15968, Note_on_c, 0, 62, 63
1, 15983, Note_on_c, 0, 62, 0
1, 15984, Note_on_c, 0, 61, 64
1, 15999, Note_on_c, 0, 61, 0
1, 16000, Note_on_c, 0, 59, 64
1, 16015, Note_on_c, 0, 59, 0
1, 16016, Note_on_c, 0, 57, 64
1, 16025, Note_on_c, 1, 49, 0
1, 16025, Note_on_c, 1, 37, 0
1, 16025, Note_on_c, 1, 49, 0
1, 16025, Note_on_c, 1, 37, 0
1, 16031, Note_on_c, 0, 57, 0
1, 16032, Note_on_c, 1, 50, 75
1, 16032, Note_on_c, 1, 38, 75
1, 16032, Note_on_c, 1, 50, 75
1, 16032, Note_on_c, 1, 38, 75
1, 16048, Note_on_c, 0, 66, 65
1, 16063, Note_on_c, 0, 66, 0
1, 16064, Note_on_c, 0, 64, 65
1, 16079, Note_on_c, 0, 64, 0
1, 16080, Note_on_c, 0, 62, 66
1, 16095, Note_on_c, 0, 62, 0
1, 16096, Note_on_c, 0, 61, 66
1, 16111, Note_on_c, 0, 61, 0
1, 16112, Note_on_c, 0, 59, 66
1, 16121, Note_on_c, 1, 50, 0
1, 16121, Note_on_c, 1, 38, 0
1, 16121, Note_on_c, 1, 50, 0
1, 16121, Note_on_c, 1, 38, 0
1, 16127, Note_on_c, 0, 59, 0
1, 16128, Note_on_c, 1, 52, 76
1, 16128, Note_on_c, 1, 40, 76
1, 16144, Note_on_c, 0, 68, 67
1, 16159, Note_on_c, 0, 68, 0
1, 16160, Note_on_c, 0, 66, 67
1, 16175, Note_on_c, 0, 66, 0
1, 16176, Note_on_c, 0, 64, 68
1, 16191, Note_on_c, 0, 64, 0
1, 16192, Note_on_c, 0, 62, 68
1, 16207, Note_on_c, 0, 62, 0
1, 16208, Note_on_c, 0, 61, 69
1, 16217, Note_on_c, 1, 52, 0
1, 16217, Note_on_c, 1, 40, 0
1, 16223, Note_on_c, 0, 61, 0
1, 16224, Note_on_c, 1, 54, 77
1, 16224, Note_on_c, 1, 42, 77
1, 16240, Note_on_c, 0, 69, 69
1, 16255, Note_on_c, 0, 69, 0
1, 16256, Note_on_c, 0, 68, 70
1, 16271, Note_on_c, 0, 68, 0
1, 16272, Note_on_c, 0, 66, 70
1, 16287, Note_on_c, 0, 66, 0
1, 16288, Note_on_c, 0, 64, 70
1, 16303, Note_on_c, 0, 64, 0
1, 16304, Note_on_c, 0, 62, 71
1, 16313, Note_on_c, 1, 54, 0
1, 16313, Note_on_c, 1, 42, 0
1, 16319, Note_on_c, 0, 62, 0
1, 16320, Note_on_c, 1, 56, 78
1, 16320, Note_on_c, 1, 44, 78
1, 16336, Note_on_c, 0, 71, 71
1, 16351, Note_on_c, 0, 71, 0
1, 16352, Note_on_c, 0, 69, 72
1, 16367, Note_on_c, 0, 69, 0
1, 16368, Note_on_c, 0, 68, 72
1, 16383, Note_on_c, 0, 68, 0
1, 16384, Note_on_c, 0, 66, 72
1, 16399, Note_on_c, 0, 66, 0
1, 16400, Note_on_c, 0, 64, 73
1, 16409, Note_on_c, 1, 56, 0
1, 16409, Note_on_c, 1, 44, 0
1, 16415, Note_on_c, 0, 64, 0
1, 16416, Note_on_c, 1, 57, 79
1, 16416, Note_on_c, 1, 45, 79
1, 16432, Note_on_c, 0, 69, 73
1, 16447, Note_on_c, 0, 69, 0
1, 16448, Note_on_c, 0, 71, 74
1, 16463, Note_on_c, 0, 71, 0
1, 16464, Note_on_c, 0, 73, 74
1, 16479, Note_on_c, 0, 73, 0
1, 16480, Note_on_c, 0, 74, 75
1, 16495, Note_on_c, 0, 74, 0
1, 16496, Note_on_c, 0, 76, 75
1, 16505, Note_on_c, 1, 57, 0
1, 16505, Note_on_c, 1, 45, 0
1, 16511, Note_on_c, 0, 76, 0
1, 16512, Note_on_c, 1, 56, 80
1, 16512, Note_on_c, 1, 44, 80
1, 16528, Note_on_c, 0, 71, 80
1, 16543, Note_on_c, 0, 71, 0
1, 16544, Note_on_c, 0, 69, 80
1, 16559, Note_on_c, 0, 69, 0
1, 16560, Note_on_c, 0, 68, 80
1, 16575, Note_on_c, 0, 68, 0
1, 16576, Note_on_c, 0, 66, 80
1, 16591, Note_on_c, 0, 66, 0
1, 16592, Note_on_c, 0, 64, 80
1, 16601, Note_on_c, 1, 56, 0
1, 16601, Note_on_c, 1, 44, 0
1, 16607, Note_on_c, 0, 64, 0
1, 16608, Note_on_c, 1, 57, 80
1, 16608, Note_on_c, 1, 45, 80
1, 16624, Note_on_c, 0, 69, 80
1, 16639, Note_on_c, 0, 69, 0
1, 16640, Note_on_c, 0, 71, 78
1, 16655, Note_on_c, 0, 71, 0
1, 16656, Note_on_c, 0, 73, 76
1, 16671, Note_on_c, 0, 73, 0
1, 16672, Note_on_c, 0, 74, 74
1, 16687, Note_on_c, 0, 74, 0
1, 16688, Note_on_c, 0, 76, 73
1, 16697, Note_on_c, 1, 57, 0
1, 16697, Note_on_c, 1, 45, 0
1, 16703, Note_on_c, 0, 76, 0
1, 16704, Note_on_c, 0, 77, 84
1, 16752, Note_on_c, 1, 69, 56
1, 16752, Note_on_c, 1, 62, 56
1, 16799, Note_on_c, 1, 69, 0
1, 16799, Note_on_c, 1, 62, 0
1, 16800, Note_on_c, 0, 77, 0
1, 16800, Note_on_c, 0, 78, 68
1, 16800, Note_on_c, 1, 69, 56
1, 16800, Note_on_c, 1, 62, 56
1, 16815, Note_on_c, 0, 78, 0
1, 16816, Note_on_c, 0, 80, 68
1, 16831, Note_on_c, 0, 80, 0
1, 16832, Note_on_c, 0, 81, 68
1, 16847, Note_on_c, 0, 81, 0
1, 16847, Note_on_c, 1, 69, 0
1, 16847, Note_on_c, 1, 62, 0
1, 16848, Note_on_c, 0, 83, 68
1, 16848, Note_on_c, 1, 69, 56
1, 16848, Note_on_c, 1, 62, 56
1, 16863, Note_on_c, 0, 83, 0
1, 16864, Note_on_c, 0, 85, 68
1, 16879, Note_on_c, 0, 85, 0
1, 16880, Note_on_c, 0, 86, 68
1, 16895, Note_on_c, 0, 86, 0
1, 16895, Note_on_c, 1, 69, 0
1, 16895, Note_on_c, 1, 62, 0
1, 16896, Note_on_c, 0, 86, 68
1, 16944, Note_on_c, 1, 68, 56
1, 16944, Note_on_c, 1, 59, 56
1, 16963, Note_on_c, 0, 86, 0
1, 16968, Note_on_c, 0, 88, 69
1, 16991, Note_on_c, 0, 88, 0
1, 16991, Note_on_c, 1, 68, 0
1, 16991, Note_on_c, 1, 59, 0
1, 16992, Note_on_c, 0, 86, 69
1, 16992, Note_on_c, 1, 68, 57
1, 16992, Note_on_c, 1, 59, 57
1, 17007, Note_on_c, 0, 86, 0
1, 17008, Note_on_c, 0, 85, 69
1, 17023, Note_on_c, 0, 85, 0
1, 17024, Note_on_c, 0, 83, 69
1, 17039, Note_on_c, 0, 83, 0
1, 17039, Note_on_c, 1, 68, 0
1, 17039, Note_on_c, 1, 59, 0
1, 17040, Note_on_c, 0, 81, 69
1, 17040, Note_on_c, 1, 68, 57
1, 17040, Note_on_c, 1, 59, 57
1, 17055, Note_on_c, 0, 81, 0
1, 17056, Note_on_c, 0, 80, 70
1, 17071, Note_on_c, 0, 80, 0
1, 17072, Note_on_c, 0, 78, 70
1, 17087, Note_on_c, 0, 78, 0
1, 17087, Note_on_c, 1, 68, 0
1, 17087, Note_on_c, 1, 59, 0
1, 17088, Note_on_c, 0, 78, 86
1, 17136, Note_on_c, 1, 68, 58
1, 17136, Note_on_c, 1, 61, 58
1, 17160, Note_on_c, 0, 78, 0
1, 17160, Note_on_c, 0, 75, 71
1, 17183, Note_on_c, 0, 75, 0
1, 17183, Note_on_c, 1, 68, 0
1, 17183, Note_on_c, 1, 61, 0
1, 17184, Note_on_c, 0, 76, 71
1, 17184, Note_on_c, 1, 68, 59
1, 17184, Note_on_c, 1, 61, 59
1, 17199, Note_on_c, 0, 76, 0
1, 17200, Note_on_c, 0, 78, 71
1, 17215, Note_on_c, 0, 78, 0
1, 17216, Note_on_c, 0, 80, 71
1, 17231, Note_on_c, 0, 80, 0
1, 17231, Note_on_c, 1, 68, 0
1, 17231, Note_on_c, 1, 61, 0
1, 17232, Note_on_c, 0, 81, 71
1, 17232, Note_on_c, 1, 68, 59
1, 17232, Note_on_c, 1, 61, 59
1, 17247, Note_on_c, 0, 81, 0
1, 17248, Note_on_c, 0, 83, 71
1, 17263, Note_on_c, 0, 83, 0
1, 17264, Note_on_c, 0, 85, 71
1, 17279, Note_on_c, 0, 85, 0
1, 17279, Note_on_c, 1, 68, 0
1, 17279, Note_on_c, 1, 61, 0
1, 17280, Note_on_c, 0, 85, 71
1, 17328, Note_on_c, 1, 66, 60
1, 17328, Note_on_c, 1, 57, 60
1, 17347, Note_on_c, 0, 85, 0
1, 17352, Note_on_c, 0, 86, 72
1, 17375, Note_on_c, 0, 86, 0
1, 17375, Note_on_c, 1, 66, 0
1, 17375, Note_on_c, 1, 57, 0
1, 17376, Note_on_c, 0, 85, 72
1, 17376, Note_on_c, 1, 66, 61
1, 17376, Note_on_c, 1, 57, 61
1, 17391, Note_on_c, 0, 85, 0
1, 17392, Note_on_c, 0, 83, 72
1, 17407, Note_on_c, 0, 83, 0
1, 17408, Note_on_c, 0, 81, 73
1, 17423, Note_on_c, 0, 81, 0
1, 17423, Note_on_c, 1, 66, 0
1, 17423, Note_on_c, 1, 57, 0
1, 17424, Note_on_c, 0, 80, 73
1, 17424, Note_on_c, 1, 66, 61
1, 17424, Note_on_c, 1, 57, 61
1, 17439, Note_on_c, 0, 80, 0
1, 17440, Note_on_c, 0, 78, 73
1, 17455, Note_on_c, 0, 78, 0
1, 17456, Note_on_c, 0, 76, 73
1, 17471, Note_on_c, 0, 76, 0
1, 17471, Note_on_c, 1, 66, 0
1, 17471, Note_on_c, 1, 57, 0
1, 17472, Note_on_c, 0, 76, 89
1, 17520, Note_on_c, 1, 66, 62
1, 17520, Note_on_c, 1, 59, 62
1, 17544, Note_on_c, 0, 76, 0
1, 17544, Note_on_c, 0, 73, 74
1, 17567, Note_on_c, 0, 73, 0
1, 17567, Note_on_c, 1, 66, 0
1, 17567, Note_on_c, 1, 59, 0
1, 17568, Note_on_c, 0, 74, 74
1, 17568, Note_on_c, 1, 66, 63
1, 17568, Note_on_c, 1, 59, 63
1, 17583, Note_on_c, 0, 74, 0
1, 17584, Note_on_c, 0, 76, 74
1, 17599, Note_on_c, 0, 76, 0
1, 17600, Note_on_c, 0, 78, 74
1, 17615, Note_on_c, 0, 78, 0
1, 17615, Note_on_c, 1, 66, 0
1, 17615, Note_on_c, 1, 59, 0
1, 17616, Note_on_c, 0, 80, 74
1, 17616, Note_on_c, 1, 66, 63
1, 17616, Note_on_c, 1, 59, 63
1, 17631, Note_on_c, 0, 80, 0
1, 17632, Note_on_c, 0, 81, 74
1, 17647, Note_on_c, 0, 81, 0
1, 17648, Note_on_c, 0, 83, 75
1, 17663, Note_on_c, 0, 83, 0
1, 17663, Note_on_c, 1, 66, 0
1, 17663, Note_on_c, 1, 59, 0
1, 17664, Note_on_c, 0, 83, 75
1, 17712, Note_on_c, 1, 64, 64
1, 17712, Note_on_c, 1, 56, 64
1, 17731, Note_on_c, 0, 83, 0
1, 17736, Note_on_c, 0, 85, 75
1, 17759, Note_on_c, 0, 85, 0
1, 17759, Note_on_c, 1, 64, 0
1, 17759, Note_on_c, 1, 56, 0
1, 17760, Note_on_c, 0, 83, 76
1, 17760, Note_on_c, 1, 64, 65
1, 17760, Note_on_c, 1, 56, 65
1, 17775, Note_on_c, 0, 83, 0
1, 17776, Note_on_c, 0, 81, 76
1, 17791, Note_on_c, 0, 81, 0
1, 17792, Note_on_c, 0, 80, 76
1, 17807, Note_on_c, 0, 80, 0
1, 17807, Note_on_c, 1, 64, 0
1, 17807, Note_on_c, 1, 56, 0
1, 17808, Note_on_c, 0, 78, 76
1, 17808, Note_on_c, 1, 64, 65
1, 17808, Note_on_c, 1, 56, 65
1, 17823, Note_on_c, 0, 78, 0
1, 17824, Note_on_c, 0, 76, 76
1, 17839, Note_on_c, 0, 76, 0
1, 17840, Note_on_c, 0, 74, 76
1, 17855, Note_on_c, 0, 74, 0
1, 17855, Note_on_c, 1, 64, 0
1, 17855, Note_on_c, 1, 56, 0
1, 17856, Note_on_c, 0, 74, 92
1, 17904, Note_on_c, 1, 64, 66
1, 17904, Note_on_c, 1, 57, 66
1, 17928, Note_on_c, 0, 74, 0
1, 17928, Note_on_c, 0, 71, 77
1, 17951, Note_on_c, 0, 71, 0
1, 17951, Note_on_c, 1, 64, 0
1, 17951, Note_on_c, 1, 57, 0
1, 17952, Note_on_c, 0, 73, 77
1, 17952, Note_on_c, 1, 64, 67
1, 17952, Note_on_c, 1, 57, 67
1, 17967, Note_on_c, 0, 73, 0
1, 17968, Note_on_c, 0, 74, 77
1, 17983, Note_on_c, 0, 74, 0
1, 17984, Note_on_c, 0, 76, 77
1, 17999, Note_on_c, 0, 76, 0
1, 17999, Note_on_c, 1, 64, 0
1, 17999, Note_on_c, 1, 57, 0
1, 18000, Note_on_c, 0, 78, 78
1, 18000, Note_on_c, 1, 64, 67
1, 18000, Note_on_c, 1, 57, 67
1, 18015, Note_on_c, 0, 78, 0
1, 18016, Note_on_c, 0, 80, 78
1, 18031, Note_on_c, 0, 80, 0
1, 18032, Note_on_c, 0, 81, 78
1, 18047, Note_on_c, 0, 81, 0
1, 18047, Note_on_c, 1, 64, 0
1, 18047, Note_on_c, 1, 57, 0
1, 18048, Note_on_c, 0, 81, 80
1, 18096, Note_on_c, 1, 57, 80
1, 18096, Note_on_c, 1, 49, 80
1, 18111, Note_on_c, 0, 81, 0
1, 18112, Note_on_c, 0, 85, 81
1, 18127, Note_on_c, 0, 85, 0
1, 18128, Note_on_c, 0, 83, 82
1, 18141, Note_on_c, 1, 57, 0
1, 18141, Note_on_c, 1, 49, 0
1, 18143, Note_on_c, 0, 83, 0
1, 18144, Note_on_c, 0, 81, 82
1, 18144, Note_on_c, 1, 57, 82
1, 18144, Note_on_c, 1, 49, 82
1, 18159, Note_on_c, 0, 81, 0
1, 18160, Note_on_c, 0, 80, 83
1, 18175, Note_on_c, 0, 80, 0
1, 18176, Note_on_c, 0, 78, 83
1, 18189, Note_on_c, 1, 57, 0
1, 18189, Note_on_c, 1, 49, 0
1, 18191, Note_on_c, 0, 78, 0
1, 18192, Note_on_c, 0, 76, 83
1, 18192, Note_on_c, 1, 57, 84
1, 18192, Note_on_c, 1, 50, 84
1, 18207, Note_on_c, 0, 76, 0
1, 18208, Note_on_c, 0, 74, 84
1, 18223, Note_on_c, 0, 74, 0
1, 18224, Note_on_c, 0, 73, 84
1, 18237, Note_on_c, 1, 57, 0
1, 18237, Note_on_c, 1, 50, 0
1, 18239, Note_on_c, 0, 73, 0
1, 18240, Note_on_c, 0, 74, 86
1, 18240, Note_on_c, 1, 57, 86
1, 18240, Note_on_c, 1, 52, 80
1, 18248, Note_on_c, 0, 74, 0
1, 18248, Note_on_c, 0, 73, 85
1, 18256, Note_on_c, 0, 73, 0
1, 18256, Note_on_c, 0, 74, 84
1, 18264, Note_on_c, 0, 74, 0
1, 18264, Note_on_c, 0, 73, 84
1, 18272, Note_on_c, 0, 73, 0
1, 18272, Note_on_c, 0, 74, 83
1, 18280, Note_on_c, 0, 74, 0
1, 18280, Note_on_c, 0, 73, 83
1, 18285, Note_on_c, 1, 57, 0
1, 18288, Note_on_c, 0, 73, 0
1, 18288, Note_on_c, 0, 71, 82
1, 18288, Note_on_c, 1, 56, 83
1, 18303, Note_on_c, 0, 71, 0
1, 18304, Note_on_c, 0, 85, 80
1, 18319, Note_on_c, 0, 85, 0
1, 18320, Note_on_c, 0, 83, 80
1, 18329, Note_on_c, 1, 52, 0
1, 18333, Note_on_c, 1, 56, 0
1, 18335, Note_on_c, 0, 83, 0
1, 18336, Note_on_c, 0, 81, 81
1, 18336, Note_on_c, 1, 57, 80
1, 18336, Note_on_c, 1, 49, 80
1, 18351, Note_on_c, 0, 81, 0
1, 18352, Note_on_c, 0, 80, 81
1, 18367, Note_on_c, 0, 80, 0
1, 18368, Note_on_c, 0, 78, 82
1, 18381, Note_on_c, 1, 57, 0
1, 18381, Note_on_c, 1, 49, 0
1, 18383, Note_on_c, 0, 78, 0
1, 18384, Note_on_c, 0, 76, 82
1, 18384, Note_on_c, 1, 57, 83
1, 18384, Note_on_c, 1, 50, 83
1, 18399, Note_on_c, 0, 76, 0
1, 18400, Note_on_c, 0, 74, 83
1, 18415, Note_on_c, 0, 74, 0
1, 18416, Note_on_c, 0, 73, 83
1, 18429, Note_on_c, 1, 57, 0
1, 18429, Note_on_c, 1, 50, 0
1, 18431, Note_on_c, 0, 73, 0
1, 18432, Note_on_c, 0, 74, 86
1, 18432, Note_on_c, 1, 57, 86
1, 18432, Note_on_c, 1, 52, 80
1, 18440, Note_on_c, 0, 74, 0
1, 18440, Note_on_c, 0, 73, 85
1, 18448, Note_on_c, 0, 73, 0
1, 18448, Note_on_c, 0, 74, 84
1, 18456, Note_on_c, 0, 74, 0
1, 18456, Note_on_c, 0, 73, 84
1, 18464, Note_on_c, 0, 73, 0
1, 18464, Note_on_c, 0, 74, 83
1, 18472, Note_on_c, 0, 74, 0
1, 18472, Note_on_c, 0, 73, 83
1, 18477, Note_on_c, 1, 57, 0
1, 18480, Note_on_c, 0, 73, 0
1, 18480, Note_on_c, 0, 71, 82
1, 18480, Note_on_c, 1, 56, 83
1, 18495, Note_on_c, 0, 71, 0
1, 18496, Note_on_c, 0, 85, 80
1, 18511, Note_on_c, 0, 85, 0
1, 18512, Note_on_c, 0, 83, 80
1, 18521, Note_on_c, 1, 52, 0
1, 18525, Note_on_c, 1, 56, 0
1, 18527, Note_on_c, 0, 83, 0
1, 18528, Note_on_c, 0, 81, 81
1, 18528, Note_on_c, 1, 57, 80
1, 18528, Note_on_c, 1, 49, 80
1, 18543, Note_on_c, 0, 81, 0
1, 18544, Note_on_c, 0, 80, 81
1, 18559, Note_on_c, 0, 80, 0
1, 18560, Note_on_c, 0, 78, 82
1, 18573, Note_on_c, 1, 57, 0
1, 18573, Note_on_c, 1, 49, 0
1, 18575, Note_on_c, 0, 78, 0
1, 18576, Note_on_c, 0, 76, 82
1, 18576, Note_on_c, 1, 57, 83
1, 18576, Note_on_c, 1, 50, 83
1, 18591, Note_on_c, 0, 76, 0
1, 18592, Note_on_c, 0, 74, 83
1, 18607, Note_on_c, 0, 74, 0
1, 18608, Note_on_c, 0, 73, 83
1, 18621, Note_on_c, 1, 57, 0
1, 18621, Note_on_c, 1, 50, 0
1, 18623, Note_on_c, 0, 73, 0
1, 18624, Note_on_c, 0, 73, 86
1, 18624, Note_on_c, 1, 57, 86
1, 18624, Note_on_c, 1, 52, 80
1, 18633, Note_on_c, 0, 73, 0
1, 18633, Note_on_c, 0, 74, 85
1, 18642, Note_on_c, 0, 74, 0
1, 18642, Note_on_c, 0, 73, 84
1, 18651, Note_on_c, 0, 73, 0
1, 18651, Note_on_c, 0, 74, 84
1, 18660, Note_on_c, 0, 74, 0
1, 18660, Note_on_c, 0, 73, 83
1, 18669, Note_on_c, 0, 73, 0
1, 18669, Note_on_c, 0, 74, 83
1, 18678, Note_on_c, 0, 74, 0
1, 18678, Note_on_c, 0, 73, 82
1, 18687, Note_on_c, 0, 73, 0
1, 18687, Note_on_c, 0, 71, 82
1, 18704, Note_on_c, 0, 71, 0
1, 18704, Note_on_c, 0, 73, 80
1, 18720, Note_on_c, 0, 73, 0
1, 18720, Note_on_c, 0, 71, 79
1, 18720, Note_on_c, 1, 57, 0
1, 18720, Note_on_c, 1, 56, 63
1, 18801, Note_on_c, 1, 52, 0
1, 18809, Note_on_c, 0, 71, 0
1, 18809, Note_on_c, 1, 56, 0
1, 18912, Note_on_c, 1, 49, 63
1, 18912, Note_on_c, 1, 37, 63
1, 18912, Note_on_c, 1, 49, 75
1, 18912, Note_on_c, 1, 37, 75
1, 18948, Note_on_c, 0, 52, 64
1, 18960, Note_on_c, 0, 52, 0
1, 18960, Note_on_c, 0, 57, 64
1, 18994, Note_on_c, 0, 57, 0
1, 18996, Note_on_c, 0, 61, 65
1, 19001, Note_on_c, 1, 49, 0
1, 19001, Note_on_c, 1, 37, 0
1, 19001, Note_on_c, 1, 49, 0
1, 19001, Note_on_c, 1, 37, 0
1, 19008, Note_on_c, 0, 61, 0
1, 19008, Note_on_c, 0, 61, 66
1, 19008, Note_on_c, 1, 50, 66
1, 19008, Note_on_c, 1, 38, 66
1, 19042, Note_on_c, 0, 61, 0
1, 19044, Note_on_c, 0, 54, 67
1, 19056, Note_on_c, 0, 54, 0
1, 19056, Note_on_c, 0, 59, 68
1, 19090, Note_on_c, 0, 59, 0
1, 19092, Note_on_c, 0, 62, 69
1, 19097, Note_on_c, 1, 50, 0
1, 19097, Note_on_c, 1, 38, 0
1, 19104, Note_on_c, 0, 62, 0
1, 19104, Note_on_c, 0, 62, 69
1, 19104, Note_on_c, 1, 52, 69
1, 19104, Note_on_c, 1, 40, 69
1, 19138, Note_on_c, 0, 62, 0
1, 19140, Note_on_c, 0, 56, 71
1, 19152, Note_on_c, 0, 56, 0
1, 19152, Note_on_c, 0, 61, 71
1, 19186, Note_on_c, 0, 61, 0
1, 19188, Note_on_c, 0, 64, 72
1, 19193, Note_on_c, 1, 52, 0
1, 19193, Note_on_c, 1, 40, 0
1, 19200, Note_on_c, 0, 64, 0
1, 19200, Note_on_c, 0, 64, 73
1, 19200, Note_on_c, 1, 54, 73
1, 19200, Note_on_c, 1, 42, 73
1, 19234, Note_on_c, 0, 64, 0
1, 19236, Note_on_c, 0, 57, 74
1, 19248, Note_on_c, 0, 57, 0
1, 19248, Note_on_c, 0, 62, 74
1, 19282, Note_on_c, 0, 62, 0
1, 19284, Note_on_c, 0, 66, 76
1, 19289, Note_on_c, 1, 54, 0
1, 19289, Note_on_c, 1, 42, 0
1, 19296, Note_on_c, 0, 66, 0
1, 19296, Note_on_c, 0, 66, 76
1, 19296, Note_on_c, 1, 56, 76
1, 19296, Note_on_c, 1, 44, 76
1, 19319, Note_on_c, 0, 66, 0
1, 19320, Note_on_c, 0, 64, 77
1, 19332, Note_on_c, 0, 64, 0
1, 19332, Note_on_c, 0, 62, 77
1, 19344, Note_on_c, 0, 62, 0
1, 19344, Note_on_c, 0, 61, 78
1, 19367, Note_on_c, 0, 61, 0
1, 19368, Note_on_c, 0, 62, 79
1, 19385, Note_on_c, 1, 56, 0
1, 19385, Note_on_c, 1, 44, 0
1, 19391, Note_on_c, 0, 62, 0
1, 19392, Note_on_c, 0, 61, 80
1, 19392, Note_on_c, 1, 57, 80
1, 19392, Note_on_c, 1, 45, 80
1, 19426, Note_on_c, 0, 61, 0
1, 19428, Note_on_c, 0, 69, 80
1, 19428, Note_on_c, 0, 61, 80
1, 19437, Note_on_c, 1, 57, 0
1, 19437, Note_on_c, 1, 45, 0
1, 19440, Note_on_c, 0, 69, 0
1, 19440, Note_on_c, 0, 61, 0
1, 19440, Note_on_c, 0, 69, 80
1, 19440, Note_on_c, 0, 61, 80
1, 19474, Note_on_c, 0, 69, 0
1, 19474, Note_on_c, 0, 61, 0
1, 19476, Note_on_c, 0, 69, 80
1, 19476, Note_on_c, 0, 61, 80
1, 19488, Note_on_c, 0, 69, 0
1, 19488, Note_on_c, 0, 61, 0
1, 19488, Note_on_c, 0, 69, 80
1, 19488, Note_on_c, 0, 61, 80
1, 19522, Note_on_c, 0, 69, 0
1, 19522, Note_on_c, 0, 61, 0
1, 19524, Note_on_c, 0, 73, 80
1, 19524, Note_on_c, 0, 69, 80
1, 19536, Note_on_c, 0, 73, 0
1, 19536, Note_on_c, 0, 69, 0
1, 19536, Note_on_c, 0, 73, 80
1, 19536, Note_on_c, 0, 69, 80
1, 19570, Note_on_c, 0, 73, 0
1, 19570, Note_on_c, 0, 69, 0
1, 19572, Note_on_c, 0, 73, 80
1, 19572, Note_on_c, 0, 69, 80
1, 19584, Note_on_c, 0, 73, 0
1, 19584, Note_on_c, 0, 69, 0
1, 19584, Note_on_c, 0, 73, 80
1, 19584, Note_on_c, 0, 69, 80
1, 19584, Note_on_c, 1, 45, 80
1, 19584, Note_on_c, 1, 33, 80
1, 19618, Note_on_c, 0, 73, 0
1, 19618, Note_on_c, 0, 69, 0
1, 19620, Note_on_c, 0, 81, 80
1, 19620, Note_on_c, 0, 73, 80
1, 19629, Note_on_c, 1, 45, 0
1, 19629, Note_on_c, 1, 33, 0
1, 19632, Note_on_c, 0, 81, 0
1, 19632, Note_on_c, 0, 73, 0
1, 19632, Note_on_c, 0, 81, 80
1, 19632, Note_on_c, 0, 73, 80
1, 19666, Note_on_c, 0, 81, 0
1, 19666, Note_on_c, 0, 73, 0
1, 19668, Note_on_c, 0, 81, 80
1, 19668, Note_on_c, 0, 73, 80
1, 19680, Note_on_c, 0, 81, 0
1, 19680, Note_on_c, 0, 73, 0
1, 19680, Note_on_c, 0, 81, 80
1, 19680, Note_on_c, 0, 73, 80
1, 19716, Note_on_c, 1, 45, 80
1, 19716, Note_on_c, 1, 33, 80
1, 19725, Note_on_c, 0, 81, 0
1, 19725, Note_on_c, 0, 73, 0
1, 19728, Note_on_c, 1, 45, 0
1, 19728, Note_on_c, 1, 33, 0
1, 19728, Note_on_c, 1, 45, 80
1, 19728, Note_on_c, 1, 33, 80
1, 19762, Note_on_c, 1, 45, 0
1, 19762, Note_on_c, 1, 33, 0
1, 19764, Note_on_c, 1, 45, 80
1, 19764, Note_on_c, 1, 33, 80
1, 19776, Note_on_c, 1, 45, 0
1, 19776, Note_on_c, 1, 33, 0
1, 19776, Note_on_c, 1, 50, 80
1, 19776, Note_on_c, 1, 38, 80
1, 19812, Note_on_c, 0, 78, 80
1, 19812, Note_on_c, 0, 74, 80
1, 19824, Note_on_c, 0, 78, 0
1, 19824, Note_on_c, 0, 74, 0
1, 19824, Note_on_c, 0, 76, 80
1, 19824, Note_on_c, 0, 73, 80
1, 19858, Note_on_c, 0, 76, 0
1, 19858, Note_on_c, 0, 73, 0
1, 19860, Note_on_c, 0, 74, 80
1, 19860, Note_on_c, 0, 71, 80
1, 19865, Note_on_c, 1, 50, 0
1, 19865, Note_on_c, 1, 38, 0
1, 19872, Note_on_c, 0, 74, 0
1, 19872, Note_on_c, 0, 71, 0
1, 19872, Note_on_c, 0, 73, 80
1, 19872, Note_on_c, 0, 69, 80
1, 19872, Note_on_c, 1, 52, 80
1, 19917, Note_on_c, 0, 73, 0
1, 19917, Note_on_c, 0, 69, 0
1, 19917, Note_on_c, 1, 52, 0
1, 19920, Note_on_c, 0, 71, 80
1, 19920, Note_on_c, 0, 68, 80
1, 19920, Note_on_c, 1, 40, 80
1, 19965, Note_on_c, 0, 71, 0
1, 19965, Note_on_c, 0, 68, 0
1, 19965, Note_on_c, 1, 40, 0
1, 19968, Note_on_c, 1, 45, 80
1, 19984, Note_on_c, 0, 69, 75
1, 19999, Note_on_c, 0, 69, 0
1, 20000, Note_on_c, 0, 71, 75
1, 20015, Note_on_c, 0, 71, 0
1, 20016, Note_on_c, 0, 73, 75
1, 20031, Note_on_c, 0, 73, 0
1, 20032, Note_on_c, 0, 74, 75
1, 20047, Note_on_c, 0, 74, 0
1, 20048, Note_on_c, 0, 76, 75
1, 20057, Note_on_c, 1, 45, 0
1, 20063, Note_on_c, 0, 76, 0
1, 20064, Note_on_c, 0, 74, 75
1, 20064, Note_on_c, 0, 71, 75
1, 20080, Note_on_c, 1, 52, 75
1, 20095, Note_on_c, 1, 52, 0
1, 20096, Note_on_c, 1, 54, 75
1, 20111, Note_on_c, 1, 54, 0
1, 20112, Note_on_c, 1, 56, 75
1, 20127, Note_on_c, 1, 56, 0
1, 20128, Note_on_c, 1, 57, 75
1, 20143, Note_on_c, 1, 57, 0
1, 20144, Note_on_c, 1, 59, 75
1, 20153, Note_on_c, 0, 74, 0
1, 20153, Note_on_c, 0, 71, 0
1, 20159, Note_on_c, 1, 59, 0
1, 20160, Note_on_c, 1, 57, 75
1, 20176, Note_on_c, 0, 69, 75
1, 20191, Note_on_c, 0, 69, 0
1, 20192, Note_on_c, 0, 71, 75
1, 20207, Note_on_c, 0, 71, 0
1, 20208, Note_on_c, 0, 73, 75
1, 20223, Note_on_c, 0, 73, 0
1, 20224, Note_on_c, 0, 74, 75
1, 20239, Note_on_c, 0, 74, 0
1, 20240, Note_on_c, 0, 76, 75
1, 20249, Note_on_c, 1, 57, 0
1, 20255, Note_on_c, 0, 76, 0
1, 20256, Note_on_c, 0, 74, 75
1, 20256, Note_on_c, 0, 71, 75
1, 20272, Note_on_c, 1, 52, 75
1, 20287, Note_on_c, 1, 52, 0
1, 20288, Note_on_c, 1, 54, 75
1, 20303, Note_on_c, 1, 54, 0
1, 20304, Note_on_c, 1, 56, 75
1, 20319, Note_on_c, 1, 56, 0
1, 20320, Note_on_c, 1, 57, 75
1, 20335, Note_on_c, 1, 57, 0
1, 20336, Note_on_c, 1, 59, 75
1, 20345, Note_on_c, 0, 74, 0
1, 20345, Note_on_c, 0, 71, 0
1, 20351, Note_on_c, 1, 59, 0
1, 20352, Note_on_c, 1, 57, 75
1, 20368, Note_on_c, 0, 69, 75
1, 20383, Note_on_c, 0, 69, 0
1, 20384, Note_on_c, 0, 71, 75
1, 20399, Note_on_c, 0, 71, 0
1, 20400, Note_on_c, 0, 73, 75
1, 20415, Note_on_c, 0, 73, 0
1, 20416, Note_on_c, 0, 74, 75
1, 20431, Note_on_c, 0, 74, 0
1, 20432, Note_on_c, 0, 76, 75
1, 20441, Note_on_c, 1, 57, 0
1, 20447, Note_on_c, 0, 76, 0
1, 20448, Note_on_c, 1, 57, 75
1, 20448, Note_on_c, 1, 50, 75
1, 20464, Note_on_c, 0, 71, 75
1, 20479, Note_on_c, 0, 71, 0
1, 20480, Note_on_c, 0, 73, 75
1, 20495, Note_on_c, 0, 73, 0
1, 20496, Note_on_c, 0, 74, 75
1, 20511, Note_on_c, 0, 74, 0
1, 20512, Note_on_c, 0, 76, 75
1, 20527, Note_on_c, 0, 76, 0
1, 20528, Note_on_c, 0, 78, 75
1, 20537, Note_on_c, 1, 57, 0
1, 20537, Note_on_c, 1, 50, 0
1, 20543, Note_on_c, 0, 78, 0
1, 20544, Note_on_c, 0, 64, 75
1, 20592, Note_on_c, 1, 57, 75
1, 20592, Note_on_c, 1, 49, 75
1, 20633, Note_on_c, 0, 64, 0
1, 20637, Note_on_c, 1, 49, 0
1, 20640, Note_on_c, 0, 71, 75
1, 20640, Note_on_c, 1, 50, 75
1, 20649, Note_on_c, 0, 71, 0
1, 20649, Note_on_c, 0, 73, 75
1, 20658, Note_on_c, 0, 73, 0
1, 20658, Note_on_c, 0, 71, 75
1, 20667, Note_on_c, 0, 71, 0
1, 20667, Note_on_c, 0, 73, 75
1, 20676, Note_on_c, 0, 73, 0
1, 20676, Note_on_c, 0, 71, 75
1, 20685, Note_on_c, 0, 71, 0
1, 20685, Note_on_c, 0, 73, 75
1, 20685, Note_on_c, 1, 50, 0
1, 20688, Note_on_c, 1, 57, 0
1, 20688, Note_on_c, 1, 56, 75
1, 20688, Note_on_c, 1, 52, 75
1, 20694, Note_on_c, 0, 73, 0
1, 20694, Note_on_c, 0, 71, 75
1, 20703, Note_on_c, 0, 71, 0
1, 20703, Note_on_c, 0, 73, 75
1, 20712, Note_on_c, 0, 73, 0
1, 20712, Note_on_c, 0, 71, 75
1, 20720, Note_on_c, 0, 71, 0
1, 20720, Note_on_c, 0, 69, 75
1, 20728, Note_on_c, 0, 69, 0
1, 20728, Note_on_c, 0, 71, 75
1, 20733, Note_on_c, 1, 56, 0
1, 20733, Note_on_c, 1, 52, 0
1, 20736, Note_on_c, 0, 71, 0
1, 20736, Note_on_c, 1, 57, 75
1, 20752, Note_on_c, 0, 69, 75
1, 20767, Note_on_c, 0, 69, 0
1, 20768, Note_on_c, 0, 71, 75
1, 20783, Note_on_c, 0, 71, 0
1, 20784, Note_on_c, 0, 73, 75
1, 20799, Note_on_c, 0, 73, 0
1, 20800, Note_on_c, 0, 74, 75
1, 20815, Note_on_c, 0, 74, 0
1, 20816, Note_on_c, 0, 76, 75
1, 20825, Note_on_c, 1, 57, 0
1, 20831, Note_on_c, 0, 76, 0
1, 20832, Note_on_c, 1, 57, 75
1, 20832, Note_on_c, 1, 50, 75
1, 20848, Note_on_c, 0, 71, 75
1, 20863, Note_on_c, 0, 71, 0
1, 20864, Note_on_c, 0, 73, 75
1, 20879, Note_on_c, 0, 73, 0
1, 20880, Note_on_c, 0, 74, 75
1, 20895, Note_on_c, 0, 74, 0
1, 20896, Note_on_c, 0, 76, 75
1, 20911, Note_on_c, 0, 76, 0
1, 20912, Note_on_c, 0, 78, 75
1, 20921, Note_on_c, 1, 57, 0
1, 20921, Note_on_c, 1, 50, 0
1, 20927, Note_on_c, 0, 78, 0
1, 20928, Note_on_c, 0, 64, 75
1, 20976, Note_on_c, 1, 57, 75
1, 20976, Note_on_c, 1, 49, 75
1, 21017, Note_on_c, 0, 64, 0
1, 21021, Note_on_c, 1, 49, 0
1, 21024, Note_on_c, 0, 71, 75
1, 21024, Note_on_c, 1, 50, 75
1, 21033, Note_on_c, 0, 71, 0
1, 21033, Note_on_c, 0, 73, 75
1, 21042, Note_on_c, 0, 73, 0
1, 21042, Note_on_c, 0, 71, 75
1, 21051, Note_on_c, 0, 71, 0
1, 21051, Note_on_c, 0, 73, 75
1, 21060, Note_on_c, 0, 73, 0
1, 21060, Note_on_c, 0, 71, 75
1, 21069, Note_on_c, 0, 71, 0
1, 21069, Note_on_c, 0, 73, 75
1, 21069, Note_on_c, 1, 50, 0
1, 21072, Note_on_c, 1, 57, 0
1, 21072, Note_on_c, 1, 56, 75
1, 21072, Note_on_c, 1, 52, 75
1, 21078, Note_on_c, 0, 73, 0
1, 21078, Note_on_c, 0, 71, 75
1, 21087, Note_on_c, 0, 71, 0
1, 21087, Note_on_c, 0, 73, 75
1, 21096, Note_on_c, 0, 73, 0
1, 21096, Note_on_c, 0, 71, 75
1, 21104, Note_on_c, 0, 71, 0
1, 21104, Note_on_c, 0, 69, 75
1, 21112, Note_on_c, 0, 69, 0
1, 21112, Note_on_c, 0, 71, 75
1, 21117, Note_on_c, 1, 56, 0
1, 21117, Note_on_c, 1, 52, 0
1, 21120, Note_on_c, 0, 71, 0
1, 21120, Note_on_c, 0, 69, 75
1, 21120, Note_on_c, 1, 57, 75
1, 21140, Note_on_c, 0, 69, 0
1, 21168, Note_on_c, 0, 76, 63
1, 21209, Note_on_c, 1, 57, 0
1, 21213, Note_on_c, 0, 76, 0
1, 21216, Note_on_c, 0, 77, 63
1, 21231, Note_on_c, 0, 77, 0
1, 21232, Note_on_c, 0, 76, 63
1, 21247, Note_on_c, 0, 76, 0
1, 21248, Note_on_c, 0, 77, 63
1, 21263, Note_on_c, 0, 77, 0
1, 21264, Note_on_c, 0, 81, 63
1, 21264, Note_on_c, 1, 72, 56
1, 21264, Note_on_c, 1, 69, 56
1, 21279, Note_on_c, 0, 81, 0
1, 21280, Note_on_c, 0, 79, 63
1, 21295, Note_on_c, 0, 79, 0
1, 21296, Note_on_c, 0, 77, 63
1, 21309, Note_on_c, 1, 72, 0
1, 21311, Note_on_c, 0, 77, 0
1, 21312, Note_on_c, 0, 75, 63
1, 21312, Note_on_c, 1, 71, 56
1, 21327, Note_on_c, 0, 75, 0
1, 21328, Note_on_c, 0, 76, 63
1, 21343, Note_on_c, 0, 76, 0
1, 21344, Note_on_c, 0, 78, 63
1, 21357, Note_on_c, 1, 69, 0
1, 21359, Note_on_c, 0, 78, 0
1, 21360, Note_on_c, 0, 76, 63
1, 21360, Note_on_c, 1, 67, 57
1, 21375, Note_on_c, 0, 76, 0
1, 21376, Note_on_c, 0, 78, 63
1, 21391, Note_on_c, 0, 78, 0
1, 21392, Note_on_c, 0, 79, 64
1, 21401, Note_on_c, 1, 71, 0
1, 21407, Note_on_c, 0, 79, 0
1, 21408, Note_on_c, 0, 73, 64
1, 21408, Note_on_c, 1, 69, 58
1, 21423, Note_on_c, 0, 73, 0
1, 21424, Note_on_c, 0, 74, 64
1, 21439, Note_on_c, 0, 74, 0
1, 21440, Note_on_c, 0, 76, 64
1, 21453, Note_on_c, 1, 67, 0
1, 21455, Note_on_c, 0, 76, 0
1, 21456, Note_on_c, 0, 74, 65
1, 21456, Note_on_c, 1, 65, 59
1, 21471, Note_on_c, 0, 74, 0
1, 21472, Note_on_c, 0, 76, 65
1, 21487, Note_on_c, 0, 76, 0
1, 21488, Note_on_c, 0, 77, 65
1, 21497, Note_on_c, 1, 69, 0
1, 21503, Note_on_c, 0, 77, 0
1, 21504, Note_on_c, 0, 71, 65
1, 21504, Note_on_c, 1, 67, 60
1, 21519, Note_on_c, 0, 71, 0
1, 21520, Note_on_c, 0, 72, 66
1, 21535, Note_on_c, 0, 72, 0
1, 21536, Note_on_c, 0, 74, 66
1, 21549, Note_on_c, 1, 65, 0
1, 21551, Note_on_c, 0, 74, 0
1, 21552, Note_on_c, 0, 72, 66
1, 21552, Note_on_c, 1, 64, 61
1, 21567, Note_on_c, 0, 72, 0
1, 21568, Note_on_c, 0, 74, 66
1, 21583, Note_on_c, 0, 74, 0
1, 21584, Note_on_c, 0, 76, 67
1, 21593, Note_on_c, 1, 67, 0
1, 21599, Note_on_c, 0, 76, 0
1, 21600, Note_on_c, 0, 69, 67
1, 21600, Note_on_c, 1, 65, 62
1, 21615, Note_on_c, 0, 69, 0
1, 21616, Note_on_c, 0, 71, 67
1, 21631, Note_on_c, 0, 71, 0
1, 21632, Note_on_c, 0, 72, 67
1, 21645, Note_on_c, 1, 64, 0
1, 21647, Note_on_c, 0, 72, 0
1, 21648, Note_on_c, 0, 71, 68
1, 21648, Note_on_c, 1, 62, 63
1, 21663, Note_on_c, 0, 71, 0
1, 21664, Note_on_c, 0, 72, 68
1, 21679, Note_on_c, 0, 72, 0
1, 21680, Note_on_c, 0, 74, 68
1, 21689, Note_on_c, 1, 65, 0
1, 21695, Note_on_c, 0, 74, 0
1, 21696, Note_on_c, 0, 68, 68
1, 21696, Note_on_c, 1, 64, 64
1, 21711, Note_on_c, 0, 68, 0
1, 21712, Note_on_c, 0, 69, 69
1, 21727, Note_on_c, 0, 69, 0
1, 21728, Note_on_c, 0, 71, 69
1, 21741, Note_on_c, 1, 62, 0
1, 21743, Note_on_c, 0, 71, 0
1, 21744, Note_on_c, 0, 69, 69
1, 21744, Note_on_c, 1, 60, 65
1, 21759, Note_on_c, 0, 69, 0
1, 21760, Note_on_c, 0, 71, 69
1, 21775, Note_on_c, 0, 71, 0
1, 21776, Note_on_c, 0, 72, 70
1, 21789, Note_on_c, 1, 60, 0
1, 21791, Note_on_c, 0, 72, 0
1, 21792, Note_on_c, 0, 71, 70
1, 21792, Note_on_c, 1, 56, 66
1, 21807, Note_on_c, 0, 71, 0
1, 21808, Note_on_c, 0, 72, 70
1, 21823, Note_on_c, 0, 72, 0
1, 21824, Note_on_c, 0, 74, 70
1, 21837, Note_on_c, 1, 56, 0
1, 21839, Note_on_c, 0, 74, 0
1, 21840, Note_on_c, 0, 72, 71
1, 21840, Note_on_c, 1, 57, 67
1, 21855, Note_on_c, 0, 72, 0
1, 21856, Note_on_c, 0, 74, 71
1, 21871, Note_on_c, 0, 74, 0
1, 21872, Note_on_c, 0, 76, 71
1, 21881, Note_on_c, 1, 64, 0
1, 21885, Note_on_c, 1, 57, 0
1, 21887, Note_on_c, 0, 76, 0
1, 21888, Note_on_c, 0, 74, 71
1, 21888, Note_on_c, 1, 52, 68
1, 21896, Note_on_c, 0, 74, 0
1, 21896, Note_on_c, 0, 72, 75
1, 21904, Note_on_c, 0, 72, 0
1, 21904, Note_on_c, 0, 74, 75
1, 21912, Note_on_c, 0, 74, 0
1, 21912, Note_on_c, 0, 72, 75
1, 21920, Note_on_c, 0, 72, 0
1, 21920, Note_on_c, 0, 71, 75
1, 21928, Note_on_c, 0, 71, 0
1, 21928, Note_on_c, 0, 72, 75
1, 21933, Note_on_c, 1, 52, 0
1, 21936, Note_on_c, 0, 72, 0
1, 21936, Note_on_c, 0, 71, 75
1, 21936, Note_on_c, 1, 40, 68
1, 21959, Note_on_c, 0, 71, 0
1, 21972, Note_on_c, 0, 74, 80
1, 21972, Note_on_c, 0, 71, 80
1, 21981, Note_on_c, 1, 40, 0
1, 21984, Note_on_c, 0, 74, 0
1, 21984, Note_on_c, 0, 71, 0
1, 21984, Note_on_c, 0, 74, 80
1, 21984, Note_on_c, 0, 71, 80
1, 22032, Note_on_c, 1, 52, 80
1, 22032, Note_on_c, 1, 40, 80
1, 22062, Note_on_c, 0, 74, 0
1, 22062, Note_on_c, 0, 71, 0
1, 22068, Note_on_c, 0, 80, 80
1, 22068, Note_on_c, 0, 74, 80
1, 22077, Note_on_c, 1, 52, 0
1, 22077, Note_on_c, 1, 40, 0
1, 22080, Note_on_c, 0, 80, 0
1, 22080, Note_on_c, 0, 74, 0
1, 22080, Note_on_c, 0, 80, 80
1, 22080, Note_on_c, 0, 74, 80
1, 22128, Note_on_c, 1, 52, 80
1, 22128, Note_on_c, 1, 40, 80
1, 22158, Note_on_c, 0, 80, 0
1, 22158, Note_on_c, 0, 74, 0
1, 22164, Note_on_c, 0, 83, 80
1, 22164, Note_on_c, 0, 80, 80
1, 22173, Note_on_c, 1, 52, 0
1, 22173, Note_on_c, 1, 40, 0
1, 22176, Note_on_c, 0, 83, 0
1, 22176, Note_on_c, 0, 80, 0
1, 22176, Note_on_c, 0, 83, 80
1, 22176, Note_on_c, 0, 80, 80
1, 22224, Note_on_c, 1, 52, 80
1, 22224, Note_on_c, 1, 40, 80
1, 22243, Note_on_c, 0, 83, 0
1, 22243, Note_on_c, 0, 80, 0
1, 22248, Note_on_c, 0, 83, 80
1, 22260, Note_on_c, 0, 83, 0
1, 22260, Note_on_c, 0, 86, 80
1, 22269, Note_on_c, 1, 52, 0
1, 22269, Note_on_c, 1, 40, 0
1, 22272, Note_on_c, 0, 86, 0
1, 22272, Note_on_c, 0, 85, 80
1, 22272, Note_on_c, 1, 57, 80
1, 22272, Note_on_c, 1, 45, 80
1, 22287, Note_on_c, 0, 85, 0
1, 22288, Note_on_c, 0, 88, 80
1, 22303, Note_on_c, 0, 88, 0
1, 22304, Note_on_c, 0, 86, 80
1, 22319, Note_on_c, 0, 86, 0
1, 22320, Note_on_c, 0, 85, 80
1, 22335, Note_on_c, 0, 85, 0
1, 22336, Note_on_c, 0, 83, 80
1, 22351, Note_on_c, 0, 83, 0
1, 22352, Note_on_c, 0, 81, 80
1, 22361, Note_on_c, 1, 57, 0
1, 22361, Note_on_c, 1, 45, 0
1, 22367, Note_on_c, 0, 81, 0
1, 22368, Note_on_c, 0, 80, 80
1, 22383, Note_on_c, 0, 80, 0
1, 22384, Note_on_c, 0, 78, 80
1, 22399, Note_on_c, 0, 78, 0
1, 22400, Note_on_c, 0, 76, 80
1, 22415, Note_on_c, 0, 76, 0
1, 22416, Note_on_c, 0, 74, 80
1, 22431, Note_on_c, 0, 74, 0
1, 22432, Note_on_c, 0, 73, 80
1, 22447, Note_on_c, 0, 73, 0
1, 22448, Note_on_c, 0, 71, 80
1, 22463, Note_on_c, 0, 71, 0
1, 22464, Note_on_c, 0, 69, 80
1, 22512, Note_on_c, 1, 61, 63
1, 22512, Note_on_c, 1, 49, 63
1, 22531, Note_on_c, 0, 69, 0
1, 22536, Note_on_c, 0, 71, 73
1, 22557, Note_on_c, 1, 61, 0
1, 22557, Note_on_c, 1, 49, 0
1, 22559, Note_on_c, 0, 71, 0
1, 22560, Note_on_c, 0, 71, 71
1, 22560, Note_on_c, 1, 62, 63
1, 22560, Note_on_c, 1, 50, 63
1, 22569, Note_on_c, 0, 71, 0
1, 22569, Note_on_c, 0, 73, 70
1, 22578, Note_on_c, 0, 73, 0
1, 22578, Note_on_c, 0, 71, 70
1, 22587, Note_on_c, 0, 71, 0
1, 22587, Note_on_c, 0, 73, 69
1, 22596, Note_on_c, 0, 73, 0
1, 22596, Note_on_c, 0, 71, 69
1, 22605, Note_on_c, 0, 71, 0
1, 22605, Note_on_c, 0, 73, 68
1, 22605, Note_on_c, 1, 62, 0
1, 22605, Note_on_c, 1, 50, 0
1, 22608, Note_on_c, 1, 64, 63
1, 22608, Note_on_c, 1, 52, 63
1, 22614, Note_on_c, 0, 73, 0
1, 22614, Note_on_c, 0, 71, 68
1, 22623, Note_on_c, 0, 71, 0
1, 22623, Note_on_c, 0, 73, 67
1, 22632, Note_on_c, 0, 73, 0
1, 22632, Note_on_c, 0, 71, 67
1, 22640, Note_on_c, 0, 71, 0
1, 22640, Note_on_c, 0, 69, 66
1, 22648, Note_on_c, 0, 69, 0
1, 22648, Note_on_c, 0, 71, 66
1, 22653, Note_on_c, 1, 64, 0
1, 22653, Note_on_c, 1, 52, 0
1, 22656, Note_on_c, 0, 71, 0
1, 22656, Note_on_c, 0, 69, 63
1, 22656, Note_on_c, 1, 57, 80
1, 22701, Note_on_c, 1, 57, 0
1, 22704, Note_on_c, 1, 52, 80
1, 22745, Note_on_c, 0, 69, 0
1, 22749, Note_on_c, 1, 52, 0
1, 22752, Note_on_c, 1, 45, 80
1, 22797, Note_on_c, 1, 45, 0
1, 22836, Note_on_c, 0, 76, 75
1, 22836, Note_on_c, 0, 73, 75
1, 22848, Note_on_c, 0, 76, 0
1, 22848, Note_on_c, 0, 73, 0
1, 22848, Note_on_c, 0, 76, 75
1, 22848, Note_on_c, 0, 73, 75
1, 22896, Note_on_c, 1, 45, 75
1, 22896, Note_on_c, 1, 33, 75
1, 22926, Note_on_c, 0, 76, 0
1, 22926, Note_on_c, 0, 73, 0
1, 22932, Note_on_c, 0, 73, 75
1, 22932, Note_on_c, 0, 69, 75
1, 22941, Note_on_c, 1, 45, 0
1, 22941, Note_on_c, 1, 33, 0
1, 22944, Note_on_c, 0, 73, 0
1, 22944, Note_on_c, 0, 69, 0
1, 22944, Note_on_c, 0, 73, 75
1, 22944, Note_on_c, 0, 69, 75
1, 22992, Note_on_c, 1, 45, 75
1, 22992, Note_on_c, 1, 33, 75
1, 23022, Note_on_c, 0, 73, 0
1, 23022, Note_on_c, 0, 69, 0
1, 23028, Note_on_c, 0, 69, 75
1, 23028, Note_on_c, 0, 61, 75
1, 23037, Note_on_c, 1, 45, 0
1, 23037, Note_on_c, 1, 33, 0
1, 23040, Note_on_c, 0, 69, 0
1, 23040, Note_on_c, 0, 61, 0
1, 23040, Note_on_c, 0, 69, 75
1, 23040, Note_on_c, 0, 61, 75
1, 23088, Note_on_c, 1, 45, 75
1, 23088, Note_on_c, 1, 33, 75
1, 23129, Note_on_c, 0, 69, 0
1, 23129, Note_on_c, 0, 61, 0
1, 23133, Note_on_c, 1, 45, 0
1, 23133, Note_on_c, 1, 33, 0
1, 23136, Note_on_c, 1, 45, 75
1, 23136, Note_on_c, 1, 33, 75
1, 23152, Note_on_c, 0, 57, 75
1, 23167, Note_on_c, 0, 57, 0
1, 23168, Note_on_c, 0, 59, 75
1, 23181, Note_on_c, 1, 45, 0
1, 23181, Note_on_c, 1, 33, 0
1, 23183, Note_on_c, 0, 59, 0
1, 23184, Note_on_c, 0, 61, 75
1, 23184, Note_on_c, 1, 45, 75
1, 23184, Note_on_c, 1, 33, 75
1, 23199, Note_on_c, 0, 61, 0
1, 23200, Note_on_c, 0, 62, 75
1, 23215, Note_on_c, 0, 62, 0
1, 23216, Note_on_c, 0, 64, 75
1, 23229, Note_on_c, 1, 45, 0
1, 23229, Note_on_c, 1, 33, 0
1, 23231, Note_on_c, 0, 64, 0
1, 23232, Note_on_c, 0, 65, 91
1, 23280, Note_on_c, 1, 57, 75
1, 23280, Note_on_c, 1, 50, 75
1, 23325, Note_on_c, 1, 57, 0
1, 23325, Note_on_c, 1, 50, 0
1, 23328, Note_on_c, 0, 65, 0
1, 23328, Note_on_c, 0, 66, 75
1, 23328, Note_on_c, 1, 57, 75
1, 23328, Note_on_c, 1, 50, 75
1, 23343, Note_on_c, 0, 66, 0
1, 23344, Note_on_c, 0, 74, 75
1, 23359, Note_on_c, 0, 74, 0
1, 23360, Note_on_c, 0, 73, 75
1, 23373, Note_on_c, 1, 57, 0
1, 23373, Note_on_c, 1, 50, 0
1, 23375, Note_on_c, 0, 73, 0
1, 23376, Note_on_c, 0, 74, 75
1, 23376, Note_on_c, 1, 57, 75
1, 23376, Note_on_c, 1, 50, 75
1, 23391, Note_on_c, 0, 74, 0
1, 23392, Note_on_c, 0, 69, 75
1, 23407, Note_on_c, 0, 69, 0
1, 23408, Note_on_c, 0, 66, 75
1, 23421, Note_on_c, 1, 57, 0
1, 23421, Note_on_c, 1, 50, 0
1, 23423, Note_on_c, 0, 66, 0
1, 23424, Note_on_c, 0, 66, 91
1, 23472, Note_on_c, 1, 57, 75
1, 23472, Note_on_c, 1, 50, 75
1, 23517, Note_on_c, 1, 57, 0
1, 23517, Note_on_c, 1, 50, 0
1, 23520, Note_on_c, 0, 66, 0
1, 23520, Note_on_c, 0, 64, 75
1, 23520, Note_on_c, 1, 57, 75
1, 23520, Note_on_c, 1, 49, 75
1, 23535, Note_on_c, 0, 64, 0
1, 23536, Note_on_c, 0, 69, 75
1, 23551, Note_on_c, 0, 69, 0
1, 23552, Note_on_c, 0, 68, 75
1, 23565, Note_on_c, 1, 57, 0
1, 23565, Note_on_c, 1, 49, 0
1, 23567, Note_on_c, 0, 68, 0
1, 23568, Note_on_c, 0, 69, 75
1, 23568, Note_on_c, 1, 57, 75
1, 23568, Note_on_c, 1, 49, 75
1, 23583, Note_on_c, 0, 69, 0
1, 23584, Note_on_c, 0, 73, 75
1, 23599, Note_on_c, 0, 73, 0
1, 23600, Note_on_c, 0, 76, 75
1, 23613, Note_on_c, 1, 57, 0
1, 23613, Note_on_c, 1, 49, 0
1, 23615, Note_on_c, 0, 76, 0
1, 23616, Note_on_c, 0, 76, 91
1, 23616, Note_on_c, 1, 59, 75
1, 23640, Note_on_c, 0, 76, 0
1, 23640, Note_on_c, 0, 74, 75
1, 23661, Note_on_c, 1, 59, 0
1, 23663, Note_on_c, 0, 74, 0
1, 23664, Note_on_c, 0, 83, 75
1, 23664, Note_on_c, 1, 56, 75
1, 23687, Note_on_c, 0, 83, 0
1, 23688, Note_on_c, 0, 74, 75
1, 23709, Note_on_c, 1, 56, 0
1, 23711, Note_on_c, 0, 74, 0
1, 23712, Note_on_c, 0, 73, 75
1, 23712, Note_on_c, 1, 57, 75
1, 23736, Note_on_c, 0, 73, 0
1, 23736, Note_on_c, 0, 81, 75
1, 23746, Note_on_c, 0, 81, 0
1, 23757, Note_on_c, 1, 57, 0
1, 23760, Note_on_c, 0, 81, 75
1, 23760, Note_on_c, 1, 45, 75
1, 23784, Note_on_c, 0, 81, 0
1, 23784, Note_on_c, 0, 73, 75
1, 23805, Note_on_c, 1, 45, 0
1, 23807, Note_on_c, 0, 73, 0
1, 23808, Note_on_c, 0, 76, 75
1, 23808, Note_on_c, 1, 52, 75
1, 23853, Note_on_c, 0, 76, 0
1, 23856, Note_on_c, 0, 74, 75
1, 23868, Note_on_c, 0, 74, 0
1, 23868, Note_on_c, 0, 73, 75
1, 23880, Note_on_c, 0, 73, 0
1, 23880, Note_on_c, 0, 71, 75
1, 23892, Note_on_c, 0, 71, 0
1, 23892, Note_on_c, 0, 73, 75
1, 23897, Note_on_c, 1, 52, 0
1, 23904, Note_on_c, 0, 73, 0
1, 23904, Note_on_c, 0, 71, 75
1, 23904, Note_on_c, 1, 40, 75
1, 23949, Note_on_c, 0, 71, 0
1, 23949, Note_on_c, 1, 40, 0
1, 24000, Note_on_c, 0, 76, 68
1, 24048, Note_on_c, 1, 67, 56
1, 24048, Note_on_c, 1, 64, 56
1, 24067, Note_on_c, 0, 76, 0
1, 24072, Note_on_c, 0, 71, 68
1, 24095, Note_on_c, 0, 71, 0
1, 24095, Note_on_c, 1, 67, 0
1, 24095, Note_on_c, 1, 64, 0
1, 24096, Note_on_c, 0, 79, 68
1, 24096, Note_on_c, 1, 67, 56
1, 24096, Note_on_c, 1, 64, 56
1, 24111, Note_on_c, 0, 79, 0
1, 24112, Note_on_c, 0, 78, 68
1, 24127, Note_on_c, 0, 78, 0
1, 24128, Note_on_c, 0, 76, 68
1, 24143, Note_on_c, 0, 76, 0
1, 24143, Note_on_c, 1, 67, 0
1, 24143, Note_on_c, 1, 64, 0
1, 24144, Note_on_c, 0, 74, 68
1, 24144, Note_on_c, 1, 67, 56
1, 24144, Note_on_c, 1, 64, 56
1, 24159, Note_on_c, 0, 74, 0
1, 24160, Note_on_c, 0, 73, 68
1, 24175, Note_on_c, 0, 73, 0
1, 24176, Note_on_c, 0, 71, 68
1, 24191, Note_on_c, 0, 71, 0
1, 24191, Note_on_c, 1, 67, 0
1, 24191, Note_on_c, 1, 64, 0
1, 24192, Note_on_c, 0, 71, 84
1, 24240, Note_on_c, 1, 66, 56
1, 24240, Note_on_c, 1, 64, 56
1, 24264, Note_on_c, 0, 71, 0
1, 24264, Note_on_c, 0, 68, 68
1, 24287, Note_on_c, 0, 68, 0
1, 24287, Note_on_c, 1, 66, 0
1, 24287, Note_on_c, 1, 64, 0
1, 24288, Note_on_c, 0, 70, 68
1, 24288, Note_on_c, 1, 66, 56
1, 24288, Note_on_c, 1, 64, 56
1, 24303, Note_on_c, 0, 70, 0
1, 24304, Note_on_c, 0, 71, 68
1, 24319, Note_on_c, 0, 71, 0
1, 24320, Note_on_c, 0, 73, 68
1, 24335, Note_on_c, 0, 73, 0
1, 24335, Note_on_c, 1, 66, 0
1, 24335, Note_on_c, 1, 64, 0
1, 24336, Note_on_c, 0, 74, 68
1, 24336, Note_on_c, 1, 66, 56
1, 24336, Note_on_c, 1, 64, 56
1, 24351, Note_on_c, 0, 74, 0
1, 24352, Note_on_c, 0, 76, 68
1, 24367, Note_on_c, 0, 76, 0
1, 24368, Note_on_c, 0, 73, 68
1, 24383, Note_on_c, 0, 73, 0
1, 24383, Note_on_c, 1, 66, 0
1, 24383, Note_on_c, 1, 64, 0
1, 24384, Note_on_c, 0, 78, 68
1, 24432, Note_on_c, 1, 66, 56
1, 24432, Note_on_c, 1, 62, 56
1, 24451, Note_on_c, 0, 78, 0
1, 24456, Note_on_c, 0, 71, 68
1, 24479, Note_on_c, 0, 71, 0
1, 24479, Note_on_c, 1, 66, 0
1, 24479, Note_on_c, 1, 62, 0
1, 24480, Note_on_c, 0, 78, 68
1, 24480, Note_on_c, 1, 66, 56
1, 24480, Note_on_c, 1, 62, 56
1, 24495, Note_on_c, 0, 78, 0
1, 24496, Note_on_c, 0, 76, 68
1, 24511, Note_on_c, 0, 76, 0
1, 24512, Note_on_c, 0, 74, 68
1, 24527, Note_on_c, 0, 74, 0
1, 24527, Note_on_c, 1, 66, 0
1, 24527, Note_on_c, 1, 62, 0
1, 24528, Note_on_c, 0, 73, 68
1, 24528, Note_on_c, 1, 66, 56
1, 24528, Note_on_c, 1, 62, 56
1, 24543, Note_on_c, 0, 73, 0
1, 24544, Note_on_c, 0, 71, 68
1, 24559, Note_on_c, 0, 71, 0
1, 24560, Note_on_c, 0, 69, 68
1, 24575, Note_on_c, 0, 69, 0
1, 24575, Note_on_c, 1, 66, 0
1, 24575, Note_on_c, 1, 62, 0
1, 24576, Note_on_c, 0, 69, 84
1, 24624, Note_on_c, 1, 64, 56
1, 24624, Note_on_c, 1, 62, 56
1, 24648, Note_on_c, 0, 69, 0
1, 24648, Note_on_c, 0, 66, 68
1, 24671, Note_on_c, 0, 66, 0
1, 24671, Note_on_c, 1, 64, 0
1, 24671, Note_on_c, 1, 62, 0
1, 24672, Note_on_c, 0, 68, 68
1, 24672, Note_on_c, 1, 64, 56
1, 24672, Note_on_c, 1, 62, 56
1, 24687, Note_on_c, 0, 68, 0
1, 24688, Note_on_c, 0, 69, 68
1, 24703, Note_on_c, 0, 69, 0
1, 24704, Note_on_c, 0, 71, 68
1, 24719, Note_on_c, 0, 71, 0
1, 24719, Note_on_c, 1, 64, 0
1, 24719, Note_on_c, 1, 62, 0
1, 24720, Note_on_c, 0, 73, 68
1, 24720, Note_on_c, 1, 64, 56
1, 24720, Note_on_c, 1, 62, 56
1, 24735, Note_on_c, 0, 73, 0
1, 24736, Note_on_c, 0, 74, 68
1, 24751, Note_on_c, 0, 74, 0
1, 24752, Note_on_c, 0, 71, 68
1, 24767, Note_on_c, 0, 71, 0
1, 24767, Note_on_c, 1, 64, 0
1, 24767, Note_on_c, 1, 62, 0
1, 24768, Note_on_c, 0, 76, 68
1, 24816, Note_on_c, 1, 64, 56
1, 24816, Note_on_c, 1, 61, 56
1, 24835, Note_on_c, 0, 76, 0
1, 24840, Note_on_c, 0, 67, 66
1, 24863, Note_on_c, 0, 67, 0
1, 24863, Note_on_c, 1, 64, 0
1, 24863, Note_on_c, 1, 61, 0
1, 24864, Note_on_c, 0, 76, 65
1, 24864, Note_on_c, 1, 64, 56
1, 24864, Note_on_c, 1, 61, 56
1, 24879, Note_on_c, 0, 76, 0
1, 24880, Note_on_c, 0, 74, 65
1, 24895, Note_on_c, 0, 74, 0
1, 24896, Note_on_c, 0, 73, 64
1, 24911, Note_on_c, 0, 73, 0
1, 24911, Note_on_c, 1, 64, 0
1, 24911, Note_on_c, 1, 61, 0
1, 24912, Note_on_c, 0, 71, 64
1, 24912, Note_on_c, 1, 64, 56
1, 24912, Note_on_c, 1, 61, 56
1, 24927, Note_on_c, 0, 71, 0
1, 24928, Note_on_c, 0, 69, 64
1, 24943, Note_on_c, 0, 69, 0
1, 24944, Note_on_c, 0, 67, 63
1, 24959, Note_on_c, 0, 67, 0
1, 24959, Note_on_c, 1, 64, 0
1, 24959, Note_on_c, 1, 61, 0
1, 24960, Note_on_c, 0, 69, 63
1, 24960, Note_on_c, 1, 61, 63
1, 24960, Note_on_c, 1, 58, 63
1, 24966, Note_on_c, 0, 69, 0
1, 24966, Note_on_c, 0, 67, 63
1, 24972, Note_on_c, 0, 67, 0
1, 24972, Note_on_c, 0, 66, 63
1, 24978, Note_on_c, 0, 66, 0
1, 24978, Note_on_c, 0, 67, 63
1, 25032, Note_on_c, 0, 67, 0
1, 25032, Note_on_c, 0, 66, 63
1, 25121, Note_on_c, 0, 66, 0
1, 25137, Note_on_c, 1, 61, 0
1, 25137, Note_on_c, 1, 58, 0
1, 25248, Note_on_c, 1, 50, 63
1, 25248, Note_on_c, 1, 38, 63
1, 25248, Note_on_c, 1, 50, 75
1, 25248, Note_on_c, 1, 38, 75
1, 25284, Note_on_c, 0, 66, 63
1, 25296, Note_on_c, 0, 66, 0
1, 25296, Note_on_c, 0, 71, 63
1, 25330, Note_on_c, 0, 71, 0
1, 25332, Note_on_c, 0, 74, 63
1, 25337, Note_on_c, 1, 50, 0
1, 25337, Note_on_c, 1, 38, 0
1, 25337, Note_on_c, 1, 50, 0
1, 25337, Note_on_c, 1, 38, 0
1, 25344, Note_on_c, 0, 74, 0
1, 25344, Note_on_c, 0, 74, 64
1, 25344, Note_on_c, 1, 52, 63
1, 25344, Note_on_c, 1, 40, 63
1, 25344, Note_on_c, 1, 52, 68
1, 25344, Note_on_c, 1, 40, 68
1, 25378, Note_on_c, 0, 74, 0
1, 25380, Note_on_c, 0, 67, 64
1, 25392, Note_on_c, 0, 67, 0
1, 25392, Note_on_c, 0, 73, 64
1, 25426, Note_on_c, 0, 73, 0
1, 25428, Note_on_c, 0, 76, 65
1, 25433, Note_on_c, 1, 52, 0
1, 25433, Note_on_c, 1, 40, 0
1, 25433, Note_on_c, 1, 52, 0
1, 25433, Note_on_c, 1, 40, 0
1, 25440, Note_on_c, 0, 76, 0
1, 25440, Note_on_c, 0, 76, 65
1, 25440, Note_on_c, 1, 54, 64
1, 25440, Note_on_c, 1, 42, 64
1, 25474, Note_on_c, 0, 76, 0
1, 25476, Note_on_c, 0, 69, 66
1, 25488, Note_on_c, 0, 69, 0
1, 25488, Note_on_c, 0, 74, 66
1, 25522, Note_on_c, 0, 74, 0
1, 25524, Note_on_c, 0, 78, 67
1, 25529, Note_on_c, 1, 54, 0
1, 25529, Note_on_c, 1, 42, 0
1, 25536, Note_on_c, 0, 78, 0
1, 25536, Note_on_c, 0, 78, 67
1, 25536, Note_on_c, 1, 55, 66
1, 25536, Note_on_c, 1, 43, 66
1, 25570, Note_on_c, 0, 78, 0
1, 25572, Note_on_c, 0, 71, 68
1, 25584, Note_on_c, 0, 71, 0
1, 25584, Note_on_c, 0, 76, 68
1, 25618, Note_on_c, 0, 76, 0
1, 25620, Note_on_c, 0, 79, 69
1, 25625, Note_on_c, 1, 55, 0
1, 25625, Note_on_c, 1, 43, 0
1, 25632, Note_on_c, 0, 79, 0
1, 25632, Note_on_c, 0, 79, 69
1, 25632, Note_on_c, 1, 57, 68
1, 25632, Note_on_c, 1, 45, 68
1, 25666, Note_on_c, 0, 79, 0
1, 25668, Note_on_c, 0, 73, 69
1, 25680, Note_on_c, 0, 73, 0
1, 25680, Note_on_c, 0, 78, 70
1, 25714, Note_on_c, 0, 78, 0
1, 25716, Note_on_c, 0, 81, 70
1, 25721, Note_on_c, 1, 57, 0
1, 25721, Note_on_c, 1, 45, 0
1, 25728, Note_on_c, 0, 81, 0
1, 25728, Note_on_c, 0, 81, 70
1, 25728, Note_on_c, 1, 59, 69
1, 25728, Note_on_c, 1, 47, 69
1, 25762, Note_on_c, 0, 81, 0
1, 25764, Note_on_c, 0, 74, 71
1, 25776, Note_on_c, 0, 74, 0
1, 25776, Note_on_c, 0, 79, 71
1, 25810, Note_on_c, 0, 79, 0
1, 25812, Note_on_c, 0, 83, 72
1, 25817, Note_on_c, 1, 59, 0
1, 25817, Note_on_c, 1, 47, 0
1, 25824, Note_on_c, 0, 83, 0
1, 25824, Note_on_c, 0, 83, 72
1, 25824, Note_on_c, 1, 61, 71
1, 25824, Note_on_c, 1, 49, 71
1, 25847, Note_on_c, 0, 83, 0
1, 25848, Note_on_c, 0, 81, 73
1, 25860, Note_on_c, 0, 81, 0
1, 25860, Note_on_c, 0, 79, 73
1, 25872, Note_on_c, 0, 79, 0
1, 25872, Note_on_c, 0, 78, 73
1, 25895, Note_on_c, 0, 78, 0
1, 25896, Note_on_c, 0, 79, 73
1, 25913, Note_on_c, 1, 61, 0
1, 25913, Note_on_c, 1, 49, 0
1, 25919, Note_on_c, 0, 79, 0
1, 25920, Note_on_c, 0, 78, 74
1, 25920, Note_on_c, 1, 62, 73
1, 25920, Note_on_c, 1, 50, 73
1, 25954, Note_on_c, 0, 78, 0
1, 25956, Note_on_c, 0, 86, 75
1, 25956, Note_on_c, 0, 78, 75
1, 25968, Note_on_c, 0, 86, 0
1, 25968, Note_on_c, 0, 78, 0
1, 25968, Note_on_c, 0, 86, 75
1, 25968, Note_on_c, 0, 78, 75
1, 26002, Note_on_c, 0, 86, 0
1, 26002, Note_on_c, 0, 78, 0
1, 26004, Note_on_c, 0, 86, 75
1, 26004, Note_on_c, 0, 78, 75
1, 26009, Note_on_c, 1, 62, 0
1, 26009, Note_on_c, 1, 50, 0
1, 26016, Note_on_c, 0, 86, 0
1, 26016, Note_on_c, 0, 78, 0
1, 26016, Note_on_c, 0, 86, 75
1, 26016, Note_on_c, 0, 78, 75
1, 26016, Note_on_c, 1, 56, 75
1, 26016, Note_on_c, 1, 44, 75
1, 26050, Note_on_c, 0, 86, 0
1, 26050, Note_on_c, 0, 78, 0
1, 26052, Note_on_c, 0, 78, 75
1, 26052, Note_on_c, 0, 74, 75
1, 26064, Note_on_c, 0, 78, 0
1, 26064, Note_on_c, 0, 74, 0
1, 26064, Note_on_c, 0, 78, 75
1, 26064, Note_on_c, 0, 74, 75
1, 26098, Note_on_c, 0, 78, 0
1, 26098, Note_on_c, 0, 74, 0
1, 26100, Note_on_c, 0, 78, 75
1, 26100, Note_on_c, 0, 74, 75
1, 26105, Note_on_c, 1, 56, 0
1, 26105, Note_on_c, 1, 44, 0
1, 26112, Note_on_c, 0, 78, 0
1, 26112, Note_on_c, 0, 74, 0
1, 26112, Note_on_c, 0, 78, 75
1, 26112, Note_on_c, 0, 74, 75
1, 26112, Note_on_c, 1, 57, 75
1, 26112, Note_on_c, 1, 45, 75
1, 26157, Note_on_c, 0, 78, 0
1, 26157, Note_on_c, 0, 74, 0
1, 26160, Note_on_c, 0, 76, 75
1, 26160, Note_on_c, 0, 73, 75
1, 26194, Note_on_c, 0, 76, 0
1, 26194, Note_on_c, 0, 73, 0
1, 26196, Note_on_c, 0, 85, 75
1, 26201, Note_on_c, 1, 57, 0
1, 26201, Note_on_c, 1, 45, 0
1, 26208, Note_on_c, 0, 85, 0
1, 26208, Note_on_c, 0, 86, 91
1, 26208, Note_on_c, 1, 56, 75
1, 26208, Note_on_c, 1, 44, 75
1, 26244, Note_on_c, 0, 86, 0
1, 26244, Note_on_c, 0, 78, 75
1, 26244, Note_on_c, 0, 74, 75
1, 26256, Note_on_c, 0, 78, 0
1, 26256, Note_on_c, 0, 74, 0
1, 26256, Note_on_c, 0, 78, 75
1, 26256, Note_on_c, 0, 74, 75
1, 26290, Note_on_c, 0, 78, 0
1, 26290, Note_on_c, 0, 74, 0
1, 26292, Note_on_c, 0, 78, 75
1, 26292, Note_on_c, 0, 74, 75
1, 26297, Note_on_c, 1, 56, 0
1, 26297, Note_on_c, 1, 44, 0
1, 26304, Note_on_c, 0, 78, 0
1, 26304, Note_on_c, 0, 74, 0
1, 26304, Note_on_c, 0, 78, 75
1, 26304, Note_on_c, 0, 74, 63
1, 26304, Note_on_c, 1, 57, 75
1, 26304, Note_on_c, 1, 45, 75
1, 26314, Note_on_c, 0, 78, 0
1, 26314, Note_on_c, 0, 79, 75
1, 26324, Note_on_c, 0, 79, 0
1, 26324, Note_on_c, 0, 78, 75
1, 26334, Note_on_c, 0, 78, 0
1, 26334, Note_on_c, 0, 76, 75
1, 26343, Note_on_c, 0, 76, 0
1, 26343, Note_on_c, 0, 78, 75
1, 26349, Note_on_c, 0, 74, 0
1, 26352, Note_on_c, 0, 78, 0
1, 26352, Note_on_c, 0, 76, 75
1, 26352, Note_on_c, 0, 73, 63
1, 26386, Note_on_c, 0, 76, 0
1, 26386, Note_on_c, 0, 73, 0
1, 26388, Note_on_c, 0, 85, 75
1, 26393, Note_on_c, 1, 57, 0
1, 26393, Note_on_c, 1, 45, 0
1, 26400, Note_on_c, 0, 85, 0
1, 26400, Note_on_c, 0, 86, 91
1, 26400, Note_on_c, 1, 62, 75
1, 26400, Note_on_c, 1, 54, 68
1, 26416, Note_on_c, 0, 86, 0
1, 26416, Note_on_c, 0, 85, 75
1, 26431, Note_on_c, 0, 85, 0
1, 26432, Note_on_c, 0, 83, 75
1, 26445, Note_on_c, 1, 54, 0
1, 26447, Note_on_c, 0, 83, 0
1, 26448, Note_on_c, 0, 81, 75
1, 26448, Note_on_c, 1, 55, 68
1, 26463, Note_on_c, 0, 81, 0
1, 26464, Note_on_c, 0, 79, 75
1, 26479, Note_on_c, 0, 79, 0
1, 26480, Note_on_c, 0, 78, 75
1, 26493, Note_on_c, 1, 55, 0
1, 26495, Note_on_c, 0, 78, 0
1, 26496, Note_on_c, 0, 78, 75
1, 26496, Note_on_c, 1, 57, 68
1, 26511, Note_on_c, 0, 78, 0
1, 26512, Note_on_c, 0, 79, 75
1, 26527, Note_on_c, 0, 79, 0
1, 26528, Note_on_c, 0, 81, 75
1, 26543, Note_on_c, 0, 81, 0
1, 26544, Note_on_c, 0, 76, 75
1, 26544, Note_on_c, 1, 62, 0
1, 26544, Note_on_c, 1, 61, 75
1, 26622, Note_on_c, 0, 76, 0
1, 26622, Note_on_c, 1, 61, 0
1, 26622, Note_on_c, 1, 57, 0
1, 26676, Note_on_c, 0, 81, 75
1, 26676, Note_on_c, 0, 78, 75
1, 26688, Note_on_c, 0, 81, 0
1, 26688, Note_on_c, 0, 78, 0
1, 26688, Note_on_c, 0, 81, 75
1, 26688, Note_on_c, 0, 78, 75
1, 26736, Note_on_c, 1, 50, 75
1, 26736, Note_on_c, 1, 38, 75
1, 26766, Note_on_c, 0, 81, 0
1, 26766, Note_on_c, 0, 78, 0
1, 26772, Note_on_c, 0, 78, 75
1, 26772, Note_on_c, 0, 74, 75
1, 26781, Note_on_c, 1, 50, 0
1, 26781, Note_on_c, 1, 38, 0
1, 26784, Note_on_c, 0, 78, 0
1, 26784, Note_on_c, 0, 74, 0
1, 26784, Note_on_c, 0, 78, 75
1, 26784, Note_on_c, 0, 74, 75
1, 26832, Note_on_c, 1, 50, 75
1, 26832, Note_on_c, 1, 38, 75
1, 26862, Note_on_c, 0, 78, 0
1, 26862, Note_on_c, 0, 74, 0
1, 26868, Note_on_c, 0, 74, 75
1, 26868, Note_on_c, 0, 66, 75
1, 26877, Note_on_c, 1, 50, 0
1, 26877, Note_on_c, 1, 38, 0
1, 26880, Note_on_c, 0, 74, 0
1, 26880, Note_on_c, 0, 66, 0
1, 26880, Note_on_c, 0, 74, 75
1, 26880, Note_on_c, 0, 66, 75
1, 26928, Note_on_c, 1, 50, 75
1, 26928, Note_on_c, 1, 38, 75
1, 26969, Note_on_c, 0, 74, 0
1, 26969, Note_on_c, 0, 66, 0
1, 26973, Note_on_c, 1, 50, 0
1, 26973, Note_on_c, 1, 38, 0
1, 26976, Note_on_c, 1, 50, 75
1, 26976, Note_on_c, 1, 38, 75
1, 27012, Note_on_c, 0, 69, 75
1, 27012, Note_on_c, 0, 66, 75
1, 27021, Note_on_c, 1, 50, 0
1, 27021, Note_on_c, 1, 38, 0
1, 27024, Note_on_c, 0, 69, 0
1, 27024, Note_on_c, 0, 66, 0
1, 27024, Note_on_c, 0, 69, 75
1, 27024, Note_on_c, 0, 66, 75
1, 27024, Note_on_c, 1, 50, 75
1, 27024, Note_on_c, 1, 38, 75
1, 27058, Note_on_c, 0, 69, 0
1, 27058, Note_on_c, 0, 66, 0
1, 27060, Note_on_c, 0, 69, 75
1, 27060, Note_on_c, 0, 66, 75
1, 27069, Note_on_c, 1, 50, 0
1, 27069, Note_on_c, 1, 38, 0
1, 27072, Note_on_c, 0, 69, 0
1, 27072, Note_on_c, 0, 66, 0
1, 27072, Note_on_c, 0, 70, 91
1, 27072, Note_on_c, 0, 66, 91
1, 27120, Note_on_c, 1, 55, 75
1, 27165, Note_on_c, 1, 55, 0
1, 27168, Note_on_c, 0, 70, 0
1, 27168, Note_on_c, 0, 66, 0
1, 27168, Note_on_c, 0, 71, 75
1, 27168, Note_on_c, 0, 67, 75
1, 27168, Note_on_c, 1, 55, 75
1, 27202, Note_on_c, 0, 71, 0
1, 27202, Note_on_c, 0, 67, 0
1, 27204, Note_on_c, 0, 59, 75
1, 27213, Note_on_c, 1, 55, 0
1, 27216, Note_on_c, 0, 59, 0
1, 27216, Note_on_c, 0, 67, 75
1, 27216, Note_on_c, 1, 52, 75
1, 27216, Note_on_c, 1, 59, 68
1, 27250, Note_on_c, 0, 67, 0
1, 27252, Note_on_c, 0, 64, 75
1, 27261, Note_on_c, 1, 52, 0
1, 27261, Note_on_c, 1, 59, 0
1, 27264, Note_on_c, 0, 64, 0
1, 27264, Note_on_c, 0, 62, 75
1, 27264, Note_on_c, 1, 57, 75
1, 27264, Note_on_c, 1, 57, 68
1, 27309, Note_on_c, 0, 62, 0
1, 27309, Note_on_c, 1, 57, 0
1, 27309, Note_on_c, 1, 57, 0
1, 27312, Note_on_c, 0, 61, 71
1, 27312, Note_on_c, 1, 45, 71
1, 27312, Note_on_c, 1, 55, 68
1, 27322, Note_on_c, 0, 61, 0
1, 27322, Note_on_c, 0, 62, 71
1, 27332, Note_on_c, 0, 62, 0
1, 27332, Note_on_c, 0, 61, 70
1, 27342, Note_on_c, 0, 61, 0
1, 27342, Note_on_c, 0, 59, 70
1, 27351, Note_on_c, 0, 59, 0
1, 27351, Note_on_c, 0, 61, 69
1, 27357, Note_on_c, 1, 45, 0
1, 27357, Note_on_c, 1, 55, 0
1, 27360, Note_on_c, 0, 61, 0
1, 27360, Note_on_c, 0, 62, 69
1, 27360, Note_on_c, 1, 50, 68
1, 27360, Note_on_c, 1, 54, 68
1, 27427, Note_on_c, 0, 62, 0
1, 27427, Note_on_c, 1, 50, 0
1, 27427, Note_on_c, 1, 54, 0
1, 27444, Note_on_c, 0, 81, 75
1, 27444, Note_on_c, 0, 78, 75
1, 27456, Note_on_c, 0, 81, 0
1, 27456, Note_on_c, 0, 78, 0
1, 27456, Note_on_c, 0, 81, 75
1, 27456, Note_on_c, 0, 78, 75
1, 27504, Note_on_c, 1, 50, 75
1, 27504, Note_on_c, 1, 38, 75
1, 27534, Note_on_c, 0, 81, 0
1, 27534, Note_on_c, 0, 78, 0
1, 27540, Note_on_c, 0, 78, 75
1, 27540, Note_on_c, 0, 74, 75
1, 27549, Note_on_c, 1, 50, 0
1, 27549, Note_on_c, 1, 38, 0
1, 27552, Note_on_c, 0, 78, 0
1, 27552, Note_on_c, 0, 74, 0
1, 27552, Note_on_c, 0, 78, 75
1, 27552, Note_on_c, 0, 74, 75
1, 27600, Note_on_c, 1, 50, 75
1, 27600, Note_on_c, 1, 38, 75
1, 27630, Note_on_c, 0, 78, 0
1, 27630, Note_on_c, 0, 74, 0
1, 27636, Note_on_c, 0, 74, 75
1, 27636, Note_on_c, 0, 66, 75
1, 27645, Note_on_c, 1, 50, 0
1, 27645, Note_on_c, 1, 38, 0
1, 27648, Note_on_c, 0, 74, 0
1, 27648, Note_on_c, 0, 66, 0
1, 27648, Note_on_c, 0, 74, 75
1, 27648, Note_on_c, 0, 66, 75
1, 27696, Note_on_c, 1, 50, 75
1, 27696, Note_on_c, 1, 38, 75
1, 27737, Note_on_c, 0, 74, 0
1, 27737, Note_on_c, 0, 66, 0
1, 27741, Note_on_c, 1, 50, 0
1, 27741, Note_on_c, 1, 38, 0
1, 27744, Note_on_c, 1, 50, 75
1, 27744, Note_on_c, 1, 38, 75
1, 27760, Note_on_c, 0, 62, 75
1, 27775, Note_on_c, 0, 62, 0
1, 27776, Note_on_c, 0, 64, 75
1, 27789, Note_on_c, 1, 50, 0
1, 27789, Note_on_c, 1, 38, 0
1, 27791, Note_on_c, 0, 64, 0
1, 27792, Note_on_c, 0, 66, 75
1, 27792, Note_on_c, 1, 50, 75
1, 27792, Note_on_c, 1, 38, 75
1, 27807, Note_on_c, 0, 66, 0
1, 27808, Note_on_c, 0, 67, 75
1, 27823, Note_on_c, 0, 67, 0
1, 27824, Note_on_c, 0, 69, 75
1, 27837, Note_on_c, 1, 50, 0
1, 27837, Note_on_c, 1, 38, 0
1, 27839, Note_on_c, 0, 69, 0
1, 27840, Note_on_c, 0, 70, 91
1, 27888, Note_on_c, 1, 62, 63
1, 27888, Note_on_c, 1, 55, 63
1, 27935, Note_on_c, 1, 62, 0
1, 27935, Note_on_c, 1, 55, 0
1, 27936, Note_on_c, 0, 70, 0
1, 27936, Note_on_c, 0, 71, 75
1, 27936, Note_on_c, 1, 62, 63
1, 27936, Note_on_c, 1, 55, 63
1, 27951, Note_on_c, 0, 71, 0
1, 27952, Note_on_c, 0, 79, 75
1, 27967, Note_on_c, 0, 79, 0
1, 27968, Note_on_c, 0, 78, 75
1, 27983, Note_on_c, 0, 78, 0
1, 27983, Note_on_c, 1, 62, 0
1, 27983, Note_on_c, 1, 55, 0
1, 27984, Note_on_c, 0, 79, 75
1, 27984, Note_on_c, 1, 62, 63
1, 27984, Note_on_c, 1, 55, 63
1, 27999, Note_on_c, 0, 79, 0
1, 28000, Note_on_c, 0, 74, 75
1, 28015, Note_on_c, 0, 74, 0
1, 28016, Note_on_c, 0, 71, 75
1, 28031, Note_on_c, 0, 71, 0
1, 28031, Note_on_c, 1, 62, 0
1, 28031, Note_on_c, 1, 55, 0
1, 28032, Note_on_c, 0, 71, 91
1, 28080, Note_on_c, 1, 62, 63
1, 28080, Note_on_c, 1, 55, 63
1, 28127, Note_on_c, 1, 62, 0
1, 28128, Note_on_c, 0, 71, 0
1, 28128, Note_on_c, 0, 69, 75
1, 28128, Note_on_c, 1, 62, 63
1, 28128, Note_on_c, 1, 55, 0
1, 28128, Note_on_c, 1, 54, 63
1, 28143, Note_on_c, 0, 69, 0
1, 28144, Note_on_c, 0, 74, 75
1, 28159, Note_on_c, 0, 74, 0
1, 28160, Note_on_c, 0, 73, 75
1, 28175, Note_on_c, 0, 73, 0
1, 28175, Note_on_c, 1, 62, 0
1, 28175, Note_on_c, 1, 54, 0
1, 28176, Note_on_c, 0, 74, 75
1, 28176, Note_on_c, 1, 62, 63
1, 28176, Note_on_c, 1, 54, 63
1, 28191, Note_on_c, 0, 74, 0
1, 28192, Note_on_c, 0, 69, 75
1, 28207, Note_on_c, 0, 69, 0
1, 28208, Note_on_c, 0, 66, 75
1, 28223, Note_on_c, 0, 66, 0
1, 28223, Note_on_c, 1, 62, 0
1, 28223, Note_on_c, 1, 54, 0
1, 28224, Note_on_c, 0, 67, 75
1, 28224, Note_on_c, 1, 52, 75
1, 28247, Note_on_c, 0, 67, 0
1, 28248, Note_on_c, 0, 76, 75
1, 28269, Note_on_c, 1, 52, 0
1, 28272, Note_on_c, 1, 49, 75
1, 28293, Note_on_c, 0, 76, 0
1, 28296, Note_on_c, 0, 67, 75
1, 28317, Note_on_c, 1, 49, 0
1, 28319, Note_on_c, 0, 67, 0
1, 28320, Note_on_c, 0, 66, 75
1, 28320, Note_on_c, 1, 50, 75
1, 28343, Note_on_c, 0, 66, 0
1, 28344, Note_on_c, 0, 74, 75
1, 28365, Note_on_c, 1, 50, 0
1, 28368, Note_on_c, 1, 38, 75
1, 28389, Note_on_c, 0, 74, 0
1, 28392, Note_on_c, 0, 66, 75
1, 28413, Note_on_c, 1, 38, 0
1, 28415, Note_on_c, 0, 66, 0
1, 28416, Note_on_c, 0, 69, 68
1, 28416, Note_on_c, 1, 52, 75
1, 28422, Note_on_c, 0, 69, 0
1, 28422, Note_on_c, 0, 67, 68
1, 28428, Note_on_c, 0, 67, 0
1, 28428, Note_on_c, 0, 66, 68
1, 28434, Note_on_c, 0, 66, 0
1, 28434, Note_on_c, 0, 67, 68
1, 28440, Note_on_c, 0, 67, 0
1, 28440, Note_on_c, 0, 76, 69
1, 28461, Note_on_c, 1, 52, 0
1, 28464, Note_on_c, 1, 49, 76
1, 28487, Note_on_c, 0, 76, 0
1, 28488, Note_on_c, 0, 67, 72
1, 28509, Note_on_c, 1, 49, 0
1, 28511, Note_on_c, 0, 67, 0
1, 28512, Note_on_c, 0, 66, 74
1, 28512, Note_on_c, 1, 50, 77
1, 28536, Note_on_c, 0, 66, 0
1, 28536, Note_on_c, 0, 74, 75
1, 28546, Note_on_c, 0, 74, 0
1, 28557, Note_on_c, 1, 50, 0
1, 28560, Note_on_c, 0, 74, 77
1, 28560, Note_on_c, 1, 44, 78
1, 28584, Note_on_c, 0, 74, 0
1, 28584, Note_on_c, 0, 66, 78
1, 28584, Note_on_c, 0, 62, 78
1, 28605, Note_on_c, 1, 44, 0
1, 28607, Note_on_c, 0, 66, 0
1, 28607, Note_on_c, 0, 62, 0
1, 28608, Note_on_c, 0, 67, 75
1, 28608, Note_on_c, 0, 62, 75
1, 28608, Note_on_c, 1, 45, 80
1, 28616, Note_on_c, 0, 67, 0
1, 28616, Note_on_c, 0, 66, 74
1, 28624, Note_on_c, 0, 66, 0
1, 28624, Note_on_c, 0, 67, 73
1, 28632, Note_on_c, 0, 67, 0
1, 28632, Note_on_c, 0, 66, 73
1, 28640, Note_on_c, 0, 66, 0
1, 28640, Note_on_c, 0, 64, 72
1, 28648, Note_on_c, 0, 64, 0
1, 28648, Note_on_c, 0, 66, 72
1, 28653, Note_on_c, 0, 62, 0
1, 28656, Note_on_c, 0, 66, 0
1, 28656, Note_on_c, 0, 64, 71
1, 28656, Note_on_c, 0, 61, 70
1, 28697, Note_on_c, 1, 45, 0
1, 28723, Note_on_c, 0, 64, 0
1, 28723, Note_on_c, 0, 61, 0
1, 28800, Note_on_c, 1, 57, 68
1, 28800, Note_on_c, 1, 54, 68
1, 28800, Note_on_c, 1, 50, 68
1, 28824, Note_on_c, 0, 71, 80
1, 28832, Note_on_c, 0, 71, 0
1, 28832, Note_on_c, 0, 69, 80
1, 28840, Note_on_c, 0, 69, 0
1, 28840, Note_on_c, 0, 68, 80
1, 28845, Note_on_c, 1, 57, 0
1, 28845, Note_on_c, 1, 54, 0
1, 28845, Note_on_c, 1, 50, 0
1, 28848, Note_on_c, 0, 68, 0
1, 28848, Note_on_c, 0, 69, 80
1, 28848, Note_on_c, 1, 57, 68
1, 28848, Note_on_c, 1, 54, 68
1, 28848, Note_on_c, 1, 50, 68
1, 28868, Note_on_c, 1, 57, 0
1, 28868, Note_on_c, 1, 54, 0
1, 28868, Note_on_c, 1, 50, 0
1, 28871, Note_on_c, 0, 69, 0
1, 28872, Note_on_c, 0, 69, 80
1, 28895, Note_on_c, 0, 69, 0
1, 28896, Note_on_c, 1, 57, 68
1, 28896, Note_on_c, 1, 54, 68
1, 28896, Note_on_c, 1, 50, 68
1, 28920, Note_on_c, 0, 71, 80
1, 28928, Note_on_c, 0, 71, 0
1, 28928, Note_on_c, 0, 69, 80
1, 28936, Note_on_c, 0, 69, 0
1, 28936, Note_on_c, 0, 68, 80
1, 28941, Note_on_c, 1, 57, 0
1, 28941, Note_on_c, 1, 54, 0
1, 28941, Note_on_c, 1, 50, 0
1, 28944, Note_on_c, 0, 68, 0
1, 28944, Note_on_c, 0, 69, 80
1, 28944, Note_on_c, 1, 57, 68
1, 28944, Note_on_c, 1, 54, 68
1, 28944, Note_on_c, 1, 50, 68
1, 28964, Note_on_c, 1, 57, 0
1, 28964, Note_on_c, 1, 54, 0
1, 28964, Note_on_c, 1, 50, 0
1, 28967, Note_on_c, 0, 69, 0
1, 28968, Note_on_c, 0, 69, 80
1, 28991, Note_on_c, 0, 69, 0
1, 28992, Note_on_c, 0, 69, 80
1, 28992, Note_on_c, 1, 57, 68
1, 28992, Note_on_c, 1, 55, 68
1, 28992, Note_on_c, 1, 49, 68
1, 29007, Note_on_c, 0, 69, 0
1, 29008, Note_on_c, 0, 81, 80
1, 29023, Note_on_c, 0, 81, 0
1, 29024, Note_on_c, 0, 79, 80
1, 29039, Note_on_c, 0, 79, 0
1, 29040, Note_on_c, 0, 78, 80
1, 29055, Note_on_c, 0, 78, 0
1, 29056, Note_on_c, 0, 76, 80
1, 29071, Note_on_c, 0, 76, 0
1, 29072, Note_on_c, 0, 74, 80
1, 29087, Note_on_c, 0, 74, 0
1, 29088, Note_on_c, 0, 73, 80
1, 29103, Note_on_c, 0, 73, 0
1, 29104, Note_on_c, 0, 71, 80
1, 29119, Note_on_c, 0, 71, 0
1, 29120, Note_on_c, 0, 69, 80
1, 29135, Note_on_c, 0, 69, 0
1, 29136, Note_on_c, 0, 67, 80
1, 29151, Note_on_c, 0, 67, 0
1, 29152, Note_on_c, 0, 66, 80
1, 29167, Note_on_c, 0, 66, 0
1, 29168, Note_on_c, 0, 64, 80
1, 29169, Note_on_c, 1, 57, 0
1, 29169, Note_on_c, 1, 55, 0
1, 29169, Note_on_c, 1, 49, 0
1, 29183, Note_on_c, 0, 64, 0
1, 29184, Note_on_c, 1, 57, 68
1, 29184, Note_on_c, 1, 54, 68
1, 29184, Note_on_c, 1, 50, 68
1, 29208, Note_on_c, 0, 71, 80
1, 29216, Note_on_c, 0, 71, 0
1, 29216, Note_on_c, 0, 69, 80
1, 29224, Note_on_c, 0, 69, 0
1, 29224, Note_on_c, 0, 68, 80
1, 29229, Note_on_c, 1, 57, 0
1, 29229, Note_on_c, 1, 54, 0
1, 29229, Note_on_c, 1, 50, 0
1, 29232, Note_on_c, 0, 68, 0
1, 29232, Note_on_c, 0, 69, 80
1, 29232, Note_on_c, 1, 57, 68
1, 29232, Note_on_c, 1, 54, 68
1, 29232, Note_on_c, 1, 50, 68
1, 29252, Note_on_c, 1, 57, 0
1, 29252, Note_on_c, 1, 54, 0
1, 29252, Note_on_c, 1, 50, 0
1, 29255, Note_on_c, 0, 69, 0
1, 29256, Note_on_c, 0, 69, 80
1, 29279, Note_on_c, 0, 69, 0
1, 29280, Note_on_c, 1, 57, 68
1, 29280, Note_on_c, 1, 54, 68
1, 29280, Note_on_c, 1, 50, 68
1, 29304, Note_on_c, 0, 71, 80
1, 29312, Note_on_c, 0, 71, 0
1, 29312, Note_on_c, 0, 69, 80
1, 29320, Note_on_c, 0, 69, 0
1, 29320, Note_on_c, 0, 68, 80
1, 29325, Note_on_c, 1, 57, 0
1, 29325, Note_on_c, 1, 54, 0
1, 29325, Note_on_c, 1, 50, 0
1, 29328, Note_on_c, 0, 68, 0
1, 29328, Note_on_c, 0, 69, 80
1, 29328, Note_on_c, 1, 57, 68
1, 29328, Note_on_c, 1, 54, 68
1, 29328, Note_on_c, 1, 50, 68
1, 29348, Note_on_c, 1, 57, 0
1, 29348, Note_on_c, 1, 54, 0
1, 29348, Note_on_c, 1, 50, 0
1, 29351, Note_on_c, 0, 69, 0
1, 29352, Note_on_c, 0, 69, 80
1, 29375, Note_on_c, 0, 69, 0
1, 29376, Note_on_c, 0, 69, 80
1, 29376, Note_on_c, 1, 57, 68
1, 29376, Note_on_c, 1, 55, 68
1, 29376, Note_on_c, 1, 49, 68
1, 29391, Note_on_c, 0, 69, 0
1, 29392, Note_on_c, 0, 81, 80
1, 29407, Note_on_c, 0, 81, 0
1, 29408, Note_on_c, 0, 79, 80
1, 29423, Note_on_c, 0, 79, 0
1, 29424, Note_on_c, 0, 78, 80
1, 29439, Note_on_c, 0, 78, 0
1, 29440, Note_on_c, 0, 76, 80
1, 29455, Note_on_c, 0, 76, 0
1, 29456, Note_on_c, 0, 74, 80
1, 29471, Note_on_c, 0, 74, 0
1, 29472, Note_on_c, 0, 73, 80
1, 29487, Note_on_c, 0, 73, 0
1, 29488, Note_on_c, 0, 71, 80
1, 29503, Note_on_c, 0, 71, 0
1, 29504, Note_on_c, 0, 69, 80
1, 29519, Note_on_c, 0, 69, 0
1, 29520, Note_on_c, 0, 67, 80
1, 29535, Note_on_c, 0, 67, 0
1, 29536, Note_on_c, 0, 66, 80
1, 29551, Note_on_c, 0, 66, 0
1, 29552, Note_on_c, 0, 64, 80
1, 29553, Note_on_c, 1, 57, 0
1, 29553, Note_on_c, 1, 55, 0
1, 29553, Note_on_c, 1, 49, 0
1, 29567, Note_on_c, 0, 64, 0
1, 29568, Note_on_c, 0, 62, 80
1, 29568, Note_on_c, 1, 57, 63
1, 29568, Note_on_c, 1, 54, 63
1, 29568, Note_on_c, 1, 50, 63
1, 29583, Note_on_c, 0, 62, 0
1, 29584, Note_on_c, 0, 69, 78
1, 29599, Note_on_c, 0, 69, 0
1, 29600, Note_on_c, 0, 67, 77
1, 29615, Note_on_c, 0, 67, 0
1, 29616, Note_on_c, 0, 66, 76
1, 29631, Note_on_c, 0, 66, 0
1, 29632, Note_on_c, 0, 64, 75
1, 29647, Note_on_c, 0, 64, 0
1, 29648, Note_on_c, 0, 62, 74
1, 29657, Note_on_c, 1, 57, 0
1, 29657, Note_on_c, 1, 54, 0
1, 29657, Note_on_c, 1, 50, 0
1, 29663, Note_on_c, 0, 62, 0
1, 29664, Note_on_c, 0, 61, 73
1, 29679, Note_on_c, 0, 61, 0
1, 29680, Note_on_c, 0, 59, 72
1, 29695, Note_on_c, 0, 59, 0
1, 29696, Note_on_c, 0, 57, 71
1, 29711, Note_on_c, 0, 57, 0
1, 29712, Note_on_c, 0, 55, 70
1, 29727, Note_on_c, 0, 55, 0
1, 29728, Note_on_c, 0, 54, 69
1, 29743, Note_on_c, 0, 54, 0
1, 29744, Note_on_c, 0, 52, 68
1, 29759, Note_on_c, 0, 52, 0
1, 29760, Note_on_c, 1, 42, 75
1, 29760, Note_on_c, 1, 30, 75
1, 29760, Note_on_c, 1, 42, 75
1, 29760, Note_on_c, 1, 30, 75
1, 29776, Note_on_c, 0, 57, 63
1, 29791, Note_on_c, 0, 57, 0
1, 29792, Note_on_c, 0, 55, 63
1, 29807, Note_on_c, 0, 55, 0
1, 29808, Note_on_c, 0, 54, 64
1, 29823, Note_on_c, 0, 54, 0
1, 29824, Note_on_c, 0, 52, 64
1, 29839, Note_on_c, 0, 52, 0
1, 29840, Note_on_c, 0, 50, 64
1, 29849, Note_on_c, 1, 42, 0
1, 29849, Note_on_c, 1, 30, 0
1, 29849, Note_on_c, 1, 42, 0
1, 29849, Note_on_c, 1, 30, 0
1, 29855, Note_on_c, 0, 50, 0
1, 29856, Note_on_c, 1, 43, 75
1, 29856, Note_on_c, 1, 31, 75
1, 29856, Note_on_c, 1, 43, 75
1, 29856, Note_on_c, 1, 31, 75
1, 29872, Note_on_c, 0, 59, 65
1, 29887, Note_on_c, 0, 59, 0
1, 29888, Note_on_c, 0, 57, 65
1, 29903, Note_on_c, 0, 57, 0
1, 29904, Note_on_c, 0, 55, 66
1, 29919, Note_on_c, 0, 55, 0
1, 29920, Note_on_c, 0, 54, 66
1, 29935, Note_on_c, 0, 54, 0
1, 29936, Note_on_c, 0, 52, 66
1, 29945, Note_on_c, 1, 43, 0
1, 29945, Note_on_c, 1, 31, 0
1, 29945, Note_on_c, 1, 43, 0
1, 29945, Note_on_c, 1, 31, 0
1, 29951, Note_on_c, 0, 52, 0
1, 29952, Note_on_c, 1, 45, 76
1, 29952, Note_on_c, 1, 33, 76
1, 29952, Note_on_c, 1, 45, 75
1, 29952, Note_on_c, 1, 33, 75
1, 29968, Note_on_c, 0, 61, 67
1, 29983, Note_on_c, 0, 61, 0
1, 29984, Note_on_c, 0, 59, 67
1, 29999, Note_on_c, 0, 59, 0
1, 30000, Note_on_c, 0, 57, 68
1, 30015, Note_on_c, 0, 57, 0
1, 30016, Note_on_c, 0, 55, 68
1, 30031, Note_on_c, 0, 55, 0
1, 30032, Note_on_c, 0, 54, 69
1, 30041, Note_on_c, 1, 45, 0
1, 30041, Note_on_c, 1, 33, 0
1, 30041, Note_on_c, 1, 45, 0
1, 30041, Note_on_c, 1, 33, 0
1, 30047, Note_on_c, 0, 54, 0
1, 30048, Note_on_c, 1, 47, 77
1, 30048, Note_on_c, 1, 35, 77
1, 30064, Note_on_c, 0, 62, 69
1, 30079, Note_on_c, 0, 62, 0
1, 30080, Note_on_c, 0, 61, 70
1, 30095, Note_on_c, 0, 61, 0
1, 30096, Note_on_c, 0, 59, 70
1, 30111, Note_on_c, 0, 59, 0
1, 30112, Note_on_c, 0, 57, 70
1, 30127, Note_on_c, 0, 57, 0
1, 30128, Note_on_c, 0, 55, 71
1, 30137, Note_on_c, 1, 47, 0
1, 30137, Note_on_c, 1, 35, 0
1, 30143, Note_on_c, 0, 55, 0
1, 30144, Note_on_c, 1, 49, 78
1, 30144, Note_on_c, 1, 37, 78
1, 30160, Note_on_c, 0, 64, 71
1, 30175, Note_on_c, 0, 64, 0
1, 30176, Note_on_c, 0, 62, 72
1, 30191, Note_on_c, 0, 62, 0
1, 30192, Note_on_c, 0, 61, 72
1, 30207, Note_on_c, 0, 61, 0
1, 30208, Note_on_c, 0, 59, 72
1, 30223, Note_on_c, 0, 59, 0
1, 30224, Note_on_c, 0, 57, 73
1, 30233, Note_on_c, 1, 49, 0
1, 30233, Note_on_c, 1, 37, 0
1, 30239, Note_on_c, 0, 57, 0
1, 30240, Note_on_c, 1, 50, 79
1, 30240, Note_on_c, 1, 38, 79
1, 30256, Note_on_c, 0, 62, 73
1, 30271, Note_on_c, 0, 62, 0
1, 30272, Note_on_c, 0, 64, 74
1, 30287, Note_on_c, 0, 64, 0
1, 30288, Note_on_c, 0, 66, 74
1, 30303, Note_on_c, 0, 66, 0
1, 30304, Note_on_c, 0, 67, 75
1, 30319, Note_on_c, 0, 67, 0
1, 30320, Note_on_c, 0, 69, 75
1, 30329, Note_on_c, 1, 50, 0
1, 30329, Note_on_c, 1, 38, 0
1, 30335, Note_on_c, 0, 69, 0
1, 30336, Note_on_c, 1, 49, 80
1, 30336, Note_on_c, 1, 37, 80
1, 30352, Note_on_c, 0, 64, 80
1, 30367, Note_on_c, 0, 64, 0
1, 30368, Note_on_c, 0, 62, 80
1, 30383, Note_on_c, 0, 62, 0
1, 30384, Note_on_c, 0, 61, 80
1, 30399, Note_on_c, 0, 61, 0
1, 30400, Note_on_c, 0, 59, 80
1, 30415, Note_on_c, 0, 59, 0
1, 30416, Note_on_c, 0, 57, 80
1, 30425, Note_on_c, 1, 49, 0
1, 30425, Note_on_c, 1, 37, 0
1, 30431, Note_on_c, 0, 57, 0
1, 30432, Note_on_c, 1, 50, 80
1, 30432, Note_on_c, 1, 38, 80
1, 30448, Note_on_c, 0, 62, 80
1, 30463, Note_on_c, 0, 62, 0
1, 30464, Note_on_c, 0, 64, 78
1, 30479, Note_on_c, 0, 64, 0
1, 30480, Note_on_c, 0, 66, 76
1, 30495, Note_on_c, 0, 66, 0
1, 30496, Note_on_c, 0, 67, 74
1, 30511, Note_on_c, 0, 67, 0
1, 30512, Note_on_c, 0, 69, 73
1, 30521, Note_on_c, 1, 50, 0
1, 30521, Note_on_c, 1, 38, 0
1, 30527, Note_on_c, 0, 69, 0
1, 30528, Note_on_c, 0, 70, 84
1, 30576, Note_on_c, 1, 62, 56
1, 30576, Note_on_c, 1, 55, 56
1, 30623, Note_on_c, 1, 62, 0
1, 30623, Note_on_c, 1, 55, 0
1, 30624, Note_on_c, 0, 70, 0
1, 30624, Note_on_c, 0, 71, 68
1, 30624, Note_on_c, 1, 62, 56
1, 30624, Note_on_c, 1, 55, 56
1, 30639, Note_on_c, 0, 71, 0
1, 30640, Note_on_c, 0, 73, 68
1, 30655, Note_on_c, 0, 73, 0
1, 30656, Note_on_c, 0, 74, 68
1, 30671, Note_on_c, 0, 74, 0
1, 30671, Note_on_c, 1, 62, 0
1, 30671, Note_on_c, 1, 55, 0
1, 30672, Note_on_c, 0, 76, 68
1, 30672, Note_on_c, 1, 62, 56
1, 30672, Note_on_c, 1, 55, 56
1, 30687, Note_on_c, 0, 76, 0
1, 30688, Note_on_c, 0, 78, 68
1, 30703, Note_on_c, 0, 78, 0
1, 30704, Note_on_c, 0, 79, 68
1, 30719, Note_on_c, 0, 79, 0
1, 30719, Note_on_c, 1, 62, 0
1, 30719, Note_on_c, 1, 55, 0
1, 30720, Note_on_c, 0, 79, 68
1, 30768, Note_on_c, 1, 61, 57
1, 30768, Note_on_c, 1, 52, 57
1, 30787, Note_on_c, 0, 79, 0
1, 30792, Note_on_c, 0, 81, 69
1, 30815, Note_on_c, 0, 81, 0
1, 30815, Note_on_c, 1, 61, 0
1, 30815, Note_on_c, 1, 52, 0
1, 30816, Note_on_c, 0, 79, 69
1, 30816, Note_on_c, 1, 61, 58
1, 30816, Note_on_c, 1, 52, 58
1, 30831, Note_on_c, 0, 79, 0
1, 30832, Note_on_c, 0, 78, 69
1, 30847, Note_on_c, 0, 78, 0
1, 30848, Note_on_c, 0, 76, 69
1, 30863, Note_on_c, 0, 76, 0
1, 30863, Note_on_c, 1, 61, 0
1, 30863, Note_on_c, 1, 52, 0
1, 30864, Note_on_c, 0, 74, 69
1, 30864, Note_on_c, 1, 61, 58
1, 30864, Note_on_c, 1, 52, 58
1, 30879, Note_on_c, 0, 74, 0
1, 30880, Note_on_c, 0, 73, 70
1, 30895, Note_on_c, 0, 73, 0
1, 30896, Note_on_c, 0, 71, 70
1, 30911, Note_on_c, 0, 71, 0
1, 30911, Note_on_c, 1, 61, 0
1, 30911, Note_on_c, 1, 52, 0
1, 30912, Note_on_c, 0, 71, 86
1, 30960, Note_on_c, 1, 61, 59
1, 30960, Note_on_c, 1, 54, 59
1, 30984, Note_on_c, 0, 71, 0
1, 30984, Note_on_c, 0, 68, 71
1, 31007, Note_on_c, 0, 68, 0
1, 31007, Note_on_c, 1, 61, 0
1, 31007, Note_on_c, 1, 54, 0
1, 31008, Note_on_c, 0, 69, 71
1, 31008, Note_on_c, 1, 61, 60
1, 31008, Note_on_c, 1, 54, 60
1, 31023, Note_on_c, 0, 69, 0
1, 31024, Note_on_c, 0, 71, 71
1, 31039, Note_on_c, 0, 71, 0
1, 31040, Note_on_c, 0, 73, 71
1, 31055, Note_on_c, 0, 73, 0
1, 31055, Note_on_c, 1, 61, 0
1, 31055, Note_on_c, 1, 54, 0
1, 31056, Note_on_c, 0, 74, 71
1, 31056, Note_on_c, 1, 61, 60
1, 31056, Note_on_c, 1, 54, 60
1, 31071, Note_on_c, 0, 74, 0
1, 31072, Note_on_c, 0, 76, 71
1, 31087, Note_on_c, 0, 76, 0
1, 31088, Note_on_c, 0, 78, 71
1, 31103, Note_on_c, 0, 78, 0
1, 31103, Note_on_c, 1, 61, 0
1, 31103, Note_on_c, 1, 54, 0
1, 31104, Note_on_c, 0, 78, 71
1, 31152, Note_on_c, 1, 59, 61
1, 31152, Note_on_c, 1, 50, 61
1, 31171, Note_on_c, 0, 78, 0
1, 31176, Note_on_c, 0, 79, 72
1, 31199, Note_on_c, 0, 79, 0
1, 31199, Note_on_c, 1, 59, 0
1, 31199, Note_on_c, 1, 50, 0
1, 31200, Note_on_c, 0, 78, 72
1, 31200, Note_on_c, 1, 59, 61
1, 31200, Note_on_c, 1, 50, 61
1, 31215, Note_on_c, 0, 78, 0
1, 31216, Note_on_c, 0, 76, 72
1, 31231, Note_on_c, 0, 76, 0
1, 31232, Note_on_c, 0, 74, 73
1, 31247, Note_on_c, 0, 74, 0
1, 31247, Note_on_c, 1, 59, 0
1, 31247, Note_on_c, 1, 50, 0
1, 31248, Note_on_c, 0, 73, 73
1, 31248, Note_on_c, 1, 59, 62
1, 31248, Note_on_c, 1, 50, 62
1, 31263, Note_on_c, 0, 73, 0
1, 31264, Note_on_c, 0, 71, 73
1, 31279, Note_on_c, 0, 71, 0
1, 31280, Note_on_c, 0, 69, 73
1, 31295, Note_on_c, 0, 69, 0
1, 31295, Note_on_c, 1, 59, 0
1, 31295, Note_on_c, 1, 50, 0
1, 31296, Note_on_c, 0, 69, 89
1, 31344, Note_on_c, 1, 59, 63
1, 31344, Note_on_c, 1, 52, 63
1, 31368, Note_on_c, 0, 69, 0
1, 31368, Note_on_c, 0, 66, 74
1, 31391, Note_on_c, 0, 66, 0
1, 31391, Note_on_c, 1, 59, 0
1, 31391, Note_on_c, 1, 52, 0
1, 31392, Note_on_c, 0, 67, 74
1, 31392, Note_on_c, 1, 59, 63
1, 31392, Note_on_c, 1, 52, 63
1, 31407, Note_on_c, 0, 67, 0
1, 31408, Note_on_c, 0, 69, 74
1, 31423, Note_on_c, 0, 69, 0
1, 31424, Note_on_c, 0, 71, 74
1, 31439, Note_on_c, 0, 71, 0
1, 31439, Note_on_c, 1, 59, 0
1, 31439, Note_on_c, 1, 52, 0
1, 31440, Note_on_c, 0, 73, 74
1, 31440, Note_on_c, 1, 59, 64
1, 31440, Note_on_c, 1, 52, 64
1, 31455, Note_on_c, 0, 73, 0
1, 31456, Note_on_c, 0, 74, 74
1, 31471, Note_on_c, 0, 74, 0
1, 31472, Note_on_c, 0, 76, 75
1, 31487, Note_on_c, 0, 76, 0
1, 31487, Note_on_c, 1, 59, 0
1, 31487, Note_on_c, 1, 52, 0
1, 31488, Note_on_c, 0, 76, 75
1, 31536, Note_on_c, 1, 57, 64
1, 31536, Note_on_c, 1, 49, 64
1, 31555, Note_on_c, 0, 76, 0
1, 31560, Note_on_c, 0, 78, 75
1, 31583, Note_on_c, 0, 78, 0
1, 31583, Note_on_c, 1, 57, 0
1, 31583, Note_on_c, 1, 49, 0
1, 31584, Note_on_c, 0, 76, 76
1, 31584, Note_on_c, 1, 57, 65
1, 31584, Note_on_c, 1, 49, 65
1, 31599, Note_on_c, 0, 76, 0
1, 31600, Note_on_c, 0, 74, 76
1, 31615, Note_on_c, 0, 74, 0
1, 31616, Note_on_c, 0, 73, 76
1, 31631, Note_on_c, 0, 73, 0
1, 31631, Note_on_c, 1, 57, 0
1, 31631, Note_on_c, 1, 49, 0
1, 31632, Note_on_c, 0, 71, 76
1, 31632, Note_on_c, 1, 57, 65
1, 31632, Note_on_c, 1, 49, 65
1, 31647, Note_on_c, 0, 71, 0
1, 31648, Note_on_c, 0, 69, 76
1, 31663, Note_on_c, 0, 69, 0
1, 31664, Note_on_c, 0, 67, 76
1, 31679, Note_on_c, 0, 67, 0
1, 31679, Note_on_c, 1, 57, 0
1, 31679, Note_on_c, 1, 49, 0
1, 31680, Note_on_c, 0, 67, 92
1, 31728, Note_on_c, 1, 57, 66
1, 31728, Note_on_c, 1, 50, 66
1, 31752, Note_on_c, 0, 67, 0
1, 31752, Note_on_c, 0, 64, 77
1, 31775, Note_on_c, 0, 64, 0
1, 31775, Note_on_c, 1, 57, 0
1, 31775, Note_on_c, 1, 50, 0
1, 31776, Note_on_c, 0, 66, 77
1, 31776, Note_on_c, 1, 57, 67
1, 31776, Note_on_c, 1, 50, 67
1, 31791, Note_on_c, 0, 66, 0
1, 31792, Note_on_c, 0, 67, 77
1, 31807, Note_on_c, 0, 67, 0
1, 31808, Note_on_c, 0, 69, 77
1, 31823, Note_on_c, 0, 69, 0
1, 31823, Note_on_c, 1, 57, 0
1, 31823, Note_on_c, 1, 50, 0
1, 31824, Note_on_c, 0, 71, 78
1, 31824, Note_on_c, 1, 57, 67
1, 31824, Note_on_c, 1, 50, 67
1, 31839, Note_on_c, 0, 71, 0
1, 31840, Note_on_c, 0, 73, 78
1, 31855, Note_on_c, 0, 73, 0
1, 31856, Note_on_c, 0, 74, 78
1, 31871, Note_on_c, 0, 74, 0
1, 31871, Note_on_c, 1, 57, 0
1, 31871, Note_on_c, 1, 50, 0
1, 31872, Note_on_c, 0, 74, 80
1, 31920, Note_on_c, 1, 50, 68
1, 31920, Note_on_c, 1, 42, 68
1, 31935, Note_on_c, 0, 74, 0
1, 31936, Note_on_c, 0, 78, 81
1, 31951, Note_on_c, 0, 78, 0
1, 31952, Note_on_c, 0, 76, 82
1, 31965, Note_on_c, 1, 50, 0
1, 31965, Note_on_c, 1, 42, 0
1, 31967, Note_on_c, 0, 76, 0
1, 31968, Note_on_c, 0, 74, 82
1, 31968, Note_on_c, 1, 50, 68
1, 31968, Note_on_c, 1, 42, 68
1, 31983, Note_on_c, 0, 74, 0
1, 31984, Note_on_c, 0, 73, 83
1, 31999, Note_on_c, 0, 73, 0
1, 32000, Note_on_c, 0, 71, 83
1, 32013, Note_on_c, 1, 50, 0
1, 32013, Note_on_c, 1, 42, 0
1, 32015, Note_on_c, 0, 71, 0
1, 32016, Note_on_c, 0, 69, 83
1, 32016, Note_on_c, 1, 50, 68
1, 32016, Note_on_c, 1, 43, 68
1, 32031, Note_on_c, 0, 69, 0
1, 32032, Note_on_c, 0, 67, 84
1, 32047, Note_on_c, 0, 67, 0
1, 32048, Note_on_c, 0, 66, 84
1, 32061, Note_on_c, 1, 50, 0
1, 32061, Note_on_c, 1, 43, 0
1, 32063, Note_on_c, 0, 66, 0
1, 32064, Note_on_c, 0, 67, 86
1, 32064, Note_on_c, 1, 50, 86
1, 32064, Note_on_c, 1, 45, 75
1, 32072, Note_on_c, 0, 67, 0
1, 32072, Note_on_c, 0, 66, 85
1, 32080, Note_on_c, 0, 66, 0
1, 32080, Note_on_c, 0, 67, 84
1, 32088, Note_on_c, 0, 67, 0
1, 32088, Note_on_c, 0, 66, 84
1, 32096, Note_on_c, 0, 66, 0
1, 32096, Note_on_c, 0, 67, 83
1, 32104, Note_on_c, 0, 67, 0
1, 32104, Note_on_c, 0, 66, 83
1, 32109, Note_on_c, 1, 50, 0
1, 32112, Note_on_c, 0, 66, 0
1, 32112, Note_on_c, 0, 64, 82
1, 32112, Note_on_c, 1, 49, 83
1, 32127, Note_on_c, 0, 64, 0
1, 32128, Note_on_c, 0, 78, 80
1, 32143, Note_on_c, 0, 78, 0
1, 32144, Note_on_c, 0, 76, 80
1, 32153, Note_on_c, 1, 45, 0
1, 32157, Note_on_c, 1, 49, 0
1, 32159, Note_on_c, 0, 76, 0
1, 32160, Note_on_c, 0, 74, 81
1, 32160, Note_on_c, 1, 50, 80
1, 32160, Note_on_c, 1, 42, 80
1, 32175, Note_on_c, 0, 74, 0
1, 32176, Note_on_c, 0, 73, 81
1, 32191, Note_on_c, 0, 73, 0
1, 32192, Note_on_c, 0, 71, 82
1, 32205, Note_on_c, 1, 50, 0
1, 32205, Note_on_c, 1, 42, 0
1, 32207, Note_on_c, 0, 71, 0
1, 32208, Note_on_c, 0, 69, 82
1, 32208, Note_on_c, 1, 50, 83
1, 32208, Note_on_c, 1, 43, 83
1, 32223, Note_on_c, 0, 69, 0
1, 32224, Note_on_c, 0, 67, 83
1, 32239, Note_on_c, 0, 67, 0
1, 32240, Note_on_c, 0, 66, 83
1, 32253, Note_on_c, 1, 50, 0
1, 32253, Note_on_c, 1, 43, 0
1, 32255, Note_on_c, 0, 66, 0
1, 32256, Note_on_c, 0, 67, 86
1, 32256, Note_on_c, 1, 50, 86
1, 32256, Note_on_c, 1, 45, 75
1, 32264, Note_on_c, 0, 67, 0
1, 32264, Note_on_c, 0, 66, 85
1, 32272, Note_on_c, 0, 66, 0
1, 32272, Note_on_c, 0, 67, 84
1, 32280, Note_on_c, 0, 67, 0
1, 32280, Note_on_c, 0, 66, 84
1, 32288, Note_on_c, 0, 66, 0
1, 32288, Note_on_c, 0, 67, 83
1, 32296, Note_on_c, 0, 67, 0
1, 32296, Note_on_c, 0, 66, 83
1, 32301, Note_on_c, 1, 50, 0
1, 32304, Note_on_c, 0, 66, 0
1, 32304, Note_on_c, 0, 64, 82
1, 32304, Note_on_c, 1, 49, 83
1, 32319, Note_on_c, 0, 64, 0
1, 32320, Note_on_c, 0, 78, 80
1, 32335, Note_on_c, 0, 78, 0
1, 32336, Note_on_c, 0, 76, 80
1, 32345, Note_on_c, 1, 45, 0
1, 32349, Note_on_c, 1, 49, 0
1, 32351, Note_on_c, 0, 76, 0
1, 32352, Note_on_c, 0, 74, 81
1, 32352, Note_on_c, 1, 50, 80
1, 32352, Note_on_c, 1, 42, 80
1, 32367, Note_on_c, 0, 74, 0
1, 32368, Note_on_c, 0, 73, 81
1, 32383, Note_on_c, 0, 73, 0
1, 32384, Note_on_c, 0, 71, 82
1, 32397, Note_on_c, 1, 50, 0
1, 32397, Note_on_c, 1, 42, 0
1, 32399, Note_on_c, 0, 71, 0
1, 32400, Note_on_c, 0, 69, 82
1, 32400, Note_on_c, 1, 50, 83
1, 32400, Note_on_c, 1, 43, 83
1, 32415, Note_on_c, 0, 69, 0
1, 32416, Note_on_c, 0, 67, 83
1, 32431, Note_on_c, 0, 67, 0
1, 32432, Note_on_c, 0, 66, 83
1, 32445, Note_on_c, 1, 50, 0
1, 32445, Note_on_c, 1, 43, 0
1, 32447, Note_on_c, 0, 66, 0
1, 32448, Note_on_c, 0, 66, 86
1, 32448, Note_on_c, 1, 50, 86
1, 32448, Note_on_c, 1, 45, 75
1, 32457, Note_on_c, 0, 66, 0
1, 32457, Note_on_c, 0, 67, 85
1, 32466, Note_on_c, 0, 67, 0
1, 32466, Note_on_c, 0, 66, 84
1, 32475, Note_on_c, 0, 66, 0
1, 32475, Note_on_c, 0, 67, 84
1, 32484, Note_on_c, 0, 67, 0
1, 32484, Note_on_c, 0, 66, 83
1, 32493, Note_on_c, 0, 66, 0
1, 32493, Note_on_c, 0, 67, 83
1, 32502, Note_on_c, 0, 67, 0
1, 32502, Note_on_c, 0, 66, 82
1, 32511, Note_on_c, 0, 66, 0
1, 32511, Note_on_c, 0, 64, 82
1, 32528, Note_on_c, 0, 64, 0
1, 32528, Note_on_c, 0, 66, 80
1, 32544, Note_on_c, 0, 66, 0
1, 32544, Note_on_c, 0, 64, 79
1, 32544, Note_on_c, 1, 50, 0
1, 32544, Note_on_c, 1, 49, 63
1, 32625, Note_on_c, 1, 45, 0
1, 32633, Note_on_c, 0, 64, 0
1, 32633, Note_on_c, 1, 49, 0
1, 32736, Note_on_c, 1, 54, 63
1, 32736, Note_on_c, 1, 42, 63
1, 32736, Note_on_c, 1, 54, 75
1, 32736, Note_on_c, 1, 42, 75
1, 32772, Note_on_c, 0, 57, 64
1, 32784, Note_on_c, 0, 57, 0
1, 32784, Note_on_c, 0, 62, 64
1, 32818, Note_on_c, 0, 62, 0
1, 32820, Note_on_c, 0, 66, 65
1, 32825, Note_on_c, 1, 54, 0
1, 32825, Note_on_c, 1, 42, 0
1, 32825, Note_on_c, 1, 54, 0
1, 32825, Note_on_c, 1, 42, 0
1, 32832, Note_on_c, 0, 66, 0
1, 32832, Note_on_c, 0, 66, 66
1, 32832, Note_on_c, 1, 55, 66
1, 32832, Note_on_c, 1, 43, 66
1, 32832, Note_on_c, 1, 55, 75
1, 32832, Note_on_c, 1, 43, 75
1, 32866, Note_on_c, 0, 66, 0
1, 32868, Note_on_c, 0, 59, 67
1, 32880, Note_on_c, 0, 59, 0
1, 32880, Note_on_c, 0, 64, 68
1, 32914, Note_on_c, 0, 64, 0
1, 32916, Note_on_c, 0, 67, 69
1, 32921, Note_on_c, 1, 55, 0
1, 32921, Note_on_c, 1, 43, 0
1, 32921, Note_on_c, 1, 55, 0
1, 32921, Note_on_c, 1, 43, 0
1, 32928, Note_on_c, 0, 67, 0
1, 32928, Note_on_c, 0, 67, 69
1, 32928, Note_on_c, 1, 57, 69
1, 32928, Note_on_c, 1, 45, 69
1, 32928, Note_on_c, 1, 57, 75
1, 32928, Note_on_c, 1, 45, 75
1, 32962, Note_on_c, 0, 67, 0
1, 32964, Note_on_c, 0, 61, 71
1, 32976, Note_on_c, 0, 61, 0
1, 32976, Note_on_c, 0, 66, 71
1, 33010, Note_on_c, 0, 66, 0
1, 33012, Note_on_c, 0, 69, 72
1, 33017, Note_on_c, 1, 57, 0
1, 33017, Note_on_c, 1, 45, 0
1, 33017, Note_on_c, 1, 57, 0
1, 33017, Note_on_c, 1, 45, 0
1, 33024, Note_on_c, 0, 69, 0
1, 33024, Note_on_c, 0, 69, 73
1, 33024, Note_on_c, 1, 59, 73
1, 33024, Note_on_c, 1, 47, 73
1, 33058, Note_on_c, 0, 69, 0
1, 33060, Note_on_c, 0, 62, 74
1, 33072, Note_on_c, 0, 62, 0
1, 33072, Note_on_c, 0, 67, 74
1, 33106, Note_on_c, 0, 67, 0
1, 33108, Note_on_c, 0, 71, 76
1, 33113, Note_on_c, 1, 59, 0
1, 33113, Note_on_c, 1, 47, 0
1, 33120, Note_on_c, 0, 71, 0
1, 33120, Note_on_c, 0, 71, 76
1, 33120, Note_on_c, 1, 61, 76
1, 33120, Note_on_c, 1, 49, 76
1, 33143, Note_on_c, 0, 71, 0
1, 33144, Note_on_c, 0, 69, 77
1, 33156, Note_on_c, 0, 69, 0
1, 33156, Note_on_c, 0, 67, 77
1, 33168, Note_on_c, 0, 67, 0
1, 33168, Note_on_c, 0, 66, 78
1, 33191, Note_on_c, 0, 66, 0
1, 33192, Note_on_c, 0, 67, 79
1, 33209, Note_on_c, 1, 61, 0
1, 33209, Note_on_c, 1, 49, 0
1, 33215, Note_on_c, 0, 67, 0
1, 33216, Note_on_c, 0, 66, 80
1, 33216, Note_on_c, 1, 62, 80
1, 33216, Note_on_c, 1, 50, 80
1, 33250, Note_on_c, 0, 66, 0
1, 33252, Note_on_c, 0, 74, 80
1, 33252, Note_on_c, 0, 66, 80
1, 33261, Note_on_c, 1, 62, 0
1, 33261, Note_on_c, 1, 50, 0
1, 33264, Note_on_c, 0, 74, 0
1, 33264, Note_on_c, 0, 66, 0
1, 33264, Note_on_c, 0, 74, 80
1, 33264, Note_on_c, 0, 66, 80
1, 33298, Note_on_c, 0, 74, 0
1, 33298, Note_on_c, 0, 66, 0
1, 33300, Note_on_c, 0, 74, 80
1, 33300, Note_on_c, 0, 66, 80
1, 33312, Note_on_c, 0, 74, 0
1, 33312, Note_on_c, 0, 66, 0
1, 33312, Note_on_c, 0, 74, 80
1, 33312, Note_on_c, 0, 66, 80
1, 33346, Note_on_c, 0, 74, 0
1, 33346, Note_on_c, 0, 66, 0
1, 33348, Note_on_c, 0, 78, 80
1, 33348, Note_on_c, 0, 74, 80
1, 33360, Note_on_c, 0, 78, 0
1, 33360, Note_on_c, 0, 74, 0
1, 33360, Note_on_c, 0, 78, 80
1, 33360, Note_on_c, 0, 74, 80
1, 33394, Note_on_c, 0, 78, 0
1, 33394, Note_on_c, 0, 74, 0
1, 33396, Note_on_c, 0, 78, 80
1, 33396, Note_on_c, 0, 74, 80
1, 33408, Note_on_c, 0, 78, 0
1, 33408, Note_on_c, 0, 74, 0
1, 33408, Note_on_c, 0, 78, 80
1, 33408, Note_on_c, 0, 74, 80
1, 33408, Note_on_c, 1, 50, 80
1, 33408, Note_on_c, 1, 38, 80
1, 33442, Note_on_c, 0, 78, 0
1, 33442, Note_on_c, 0, 74, 0
1, 33444, Note_on_c, 0, 86, 80
1, 33444, Note_on_c, 0, 78, 80
1, 33453, Note_on_c, 1, 50, 0
1, 33453, Note_on_c, 1, 38, 0
1, 33456, Note_on_c, 0, 86, 0
1, 33456, Note_on_c, 0, 78, 0
1, 33456, Note_on_c, 0, 86, 80
1, 33456, Note_on_c, 0, 78, 80
1, 33490, Note_on_c, 0, 86, 0
1, 33490, Note_on_c, 0, 78, 0
1, 33492, Note_on_c, 0, 86, 80
1, 33492, Note_on_c, 0, 78, 80
1, 33504, Note_on_c, 0, 86, 0
1, 33504, Note_on_c, 0, 78, 0
1, 33504, Note_on_c, 0, 86, 80
1, 33504, Note_on_c, 0, 78, 80
1, 33540, Note_on_c, 1, 50, 80
1, 33540, Note_on_c, 1, 38, 80
1, 33549, Note_on_c, 0, 86, 0
1, 33549, Note_on_c, 0, 78, 0
1, 33552, Note_on_c, 1, 50, 0
1, 33552, Note_on_c, 1, 38, 0
1, 33552, Note_on_c, 1, 50, 80
1, 33552, Note_on_c, 1, 38, 80
1, 33586, Note_on_c, 1, 50, 0
1, 33586, Note_on_c, 1, 38, 0
1, 33588, Note_on_c, 1, 50, 80
1, 33588, Note_on_c, 1, 38, 80
1, 33600, Note_on_c, 1, 50, 0
1, 33600, Note_on_c, 1, 38, 0
1, 33600, Note_on_c, 1, 43, 80
1, 33600, Note_on_c, 1, 31, 80
1, 33636, Note_on_c, 0, 83, 80
1, 33636, Note_on_c, 0, 79, 80
1, 33648, Note_on_c, 0, 83, 0
1, 33648, Note_on_c, 0, 79, 0
1, 33648, Note_on_c, 0, 81, 80
1, 33648, Note_on_c, 0, 78, 80
1, 33682, Note_on_c, 0, 81, 0
1, 33682, Note_on_c, 0, 78, 0
1, 33684, Note_on_c, 0, 79, 80
1, 33684, Note_on_c, 0, 76, 80
1, 33689, Note_on_c, 1, 43, 0
1, 33689, Note_on_c, 1, 31, 0
1, 33696, Note_on_c, 0, 79, 0
1, 33696, Note_on_c, 0, 76, 0
1, 33696, Note_on_c, 0, 78, 80
1, 33696, Note_on_c, 0, 74, 80
1, 33696, Note_on_c, 1, 45, 80
1, 33741, Note_on_c, 0, 78, 0
1, 33741, Note_on_c, 0, 74, 0
1, 33741, Note_on_c, 1, 45, 0
1, 33744, Note_on_c, 0, 76, 80
1, 33744, Note_on_c, 0, 73, 80
1, 33744, Note_on_c, 1, 33, 80
1, 33789, Note_on_c, 0, 76, 0
1, 33789, Note_on_c, 0, 73, 0
1, 33789, Note_on_c, 1, 33, 0
1, 33792, Note_on_c, 1, 38, 80
1, 33808, Note_on_c, 0, 74, 75
1, 33823, Note_on_c, 0, 74, 0
1, 33824, Note_on_c, 0, 76, 75
1, 33839, Note_on_c, 0, 76, 0
1, 33840, Note_on_c, 0, 78, 75
1, 33855, Note_on_c, 0, 78, 0
1, 33856, Note_on_c, 0, 79, 75
1, 33871, Note_on_c, 0, 79, 0
1, 33872, Note_on_c, 0, 81, 75
1, 33881, Note_on_c, 1, 38, 0
1, 33887, Note_on_c, 0, 81, 0
1, 33888, Note_on_c, 0, 79, 75
1, 33888, Note_on_c, 0, 76, 75
1, 33904, Note_on_c, 1, 57, 75
1, 33919, Note_on_c, 1, 57, 0
1, 33920, Note_on_c, 1, 59, 75
1, 33935, Note_on_c, 1, 59, 0
1, 33936, Note_on_c, 1, 61, 75
1, 33951, Note_on_c, 1, 61, 0
1, 33952, Note_on_c, 1, 62, 75
1, 33967, Note_on_c, 1, 62, 0
1, 33968, Note_on_c, 1, 64, 75
1, 33977, Note_on_c, 0, 79, 0
1, 33977, Note_on_c, 0, 76, 0
1, 33983, Note_on_c, 1, 64, 0
1, 33984, Note_on_c, 1, 62, 75
1, 34000, Note_on_c, 0, 74, 75
1, 34015, Note_on_c, 0, 74, 0
1, 34016, Note_on_c, 0, 76, 75
1, 34031, Note_on_c, 0, 76, 0
1, 34032, Note_on_c, 0, 78, 75
1, 34047, Note_on_c, 0, 78, 0
1, 34048, Note_on_c, 0, 79, 75
1, 34063, Note_on_c, 0, 79, 0
1, 34064, Note_on_c, 0, 81, 75
1, 34073, Note_on_c, 1, 62, 0
1, 34079, Note_on_c, 0, 81, 0
1, 34080, Note_on_c, 0, 79, 75
1, 34080, Note_on_c, 0, 76, 75
1, 34096, Note_on_c, 1, 57, 75
1, 34111, Note_on_c, 1, 57, 0
1, 34112, Note_on_c, 1, 59, 75
1, 34127, Note_on_c, 1, 59, 0
1, 34128, Note_on_c, 1, 61, 75
1, 34143, Note_on_c, 1, 61, 0
1, 34144, Note_on_c, 1, 62, 75
1, 34159, Note_on_c, 1, 62, 0
1, 34160, Note_on_c, 1, 64, 75
1, 34169, Note_on_c, 0, 79, 0
1, 34169, Note_on_c, 0, 76, 0
1, 34175, Note_on_c, 1, 64, 0
1, 34176, Note_on_c, 1, 62, 75
1, 34192, Note_on_c, 0, 74, 75
1, 34207, Note_on_c, 0, 74, 0
1, 34208, Note_on_c, 0, 76, 75
1, 34223, Note_on_c, 0, 76, 0
1, 34224, Note_on_c, 0, 78, 75
1, 34239, Note_on_c, 0, 78, 0
1, 34240, Note_on_c, 0, 79, 75
1, 34255, Note_on_c, 0, 79, 0
1, 34256, Note_on_c, 0, 81, 75
1, 34265, Note_on_c, 1, 62, 0
1, 34271, Note_on_c, 0, 81, 0
1, 34272, Note_on_c, 1, 62, 75
1, 34272, Note_on_c, 1, 55, 75
1, 34288, Note_on_c, 0, 76, 75
1, 34303, Note_on_c, 0, 76, 0
1, 34304, Note_on_c, 0, 78, 75
1, 34319, Note_on_c, 0, 78, 0
1, 34320, Note_on_c, 0, 79, 75
1, 34335, Note_on_c, 0, 79, 0
1, 34336, Note_on_c, 0, 81, 75
1, 34351, Note_on_c, 0, 81, 0
1, 34352, Note_on_c, 0, 83, 75
1, 34361, Note_on_c, 1, 62, 0
1, 34361, Note_on_c, 1, 55, 0
1, 34367, Note_on_c, 0, 83, 0
1, 34368, Note_on_c, 0, 69, 75
1, 34416, Note_on_c, 1, 62, 75
1, 34416, Note_on_c, 1, 54, 75
1, 34457, Note_on_c, 0, 69, 0
1, 34461, Note_on_c, 1, 54, 0
1, 34464, Note_on_c, 0, 76, 75
1, 34464, Note_on_c, 1, 55, 75
1, 34473, Note_on_c, 0, 76, 0
1, 34473, Note_on_c, 0, 78, 75
1, 34482, Note_on_c, 0, 78, 0
1, 34482, Note_on_c, 0, 76, 75
1, 34491, Note_on_c, 0, 76, 0
1, 34491, Note_on_c, 0, 78, 75
1, 34500, Note_on_c, 0, 78, 0
1, 34500, Note_on_c, 0, 76, 75
1, 34509, Note_on_c, 0, 76, 0
1, 34509, Note_on_c, 0, 78, 75
1, 34509, Note_on_c, 1, 55, 0
1, 34512, Note_on_c, 1, 62, 0
1, 34512, Note_on_c, 1, 61, 75
1, 34512, Note_on_c, 1, 57, 75
1, 34518, Note_on_c, 0, 78, 0
1, 34518, Note_on_c, 0, 76, 75
1, 34527, Note_on_c, 0, 76, 0
1, 34527, Note_on_c, 0, 78, 75
1, 34536, Note_on_c, 0, 78, 0
1, 34536, Note_on_c, 0, 76, 75
1, 34544, Note_on_c, 0, 76, 0
1, 34544, Note_on_c, 0, 74, 75
1, 34552, Note_on_c, 0, 74, 0
1, 34552, Note_on_c, 0, 76, 75
1, 34557, Note_on_c, 1, 61, 0
1, 34557, Note_on_c, 1, 57, 0
1, 34560, Note_on_c, 0, 76, 0
1, 34560, Note_on_c, 1, 62, 75
1, 34576, Note_on_c, 0, 74, 75
1, 34591, Note_on_c, 0, 74, 0
1, 34592, Note_on_c, 0, 76, 75
1, 34607, Note_on_c, 0, 76, 0
1, 34608, Note_on_c, 0, 78, 75
1, 34623, Note_on_c, 0, 78, 0
1, 34624, Note_on_c, 0, 79, 75
1, 34639, Note_on_c, 0, 79, 0
1, 34640, Note_on_c, 0, 81, 75
1, 34649, Note_on_c, 1, 62, 0
1, 34655, Note_on_c, 0, 81, 0
1, 34656, Note_on_c, 1, 62, 75
1, 34656, Note_on_c, 1, 55, 75
1, 34672, Note_on_c, 0, 76, 75
1, 34687, Note_on_c, 0, 76, 0
1, 34688, Note_on_c, 0, 78, 75
1, 34703, Note_on_c, 0, 78, 0
1, 34704, Note_on_c, 0, 79, 75
1, 34719, Note_on_c, 0, 79, 0
1, 34720, Note_on_c, 0, 81, 75
1, 34735, Note_on_c, 0, 81, 0
1, 34736, Note_on_c, 0, 83, 75
1, 34745, Note_on_c, 1, 62, 0
1, 34745, Note_on_c, 1, 55, 0
1, 34751, Note_on_c, 0, 83, 0
1, 34752, Note_on_c, 0, 69, 75
1, 34800, Note_on_c, 1, 62, 75
1, 34800, Note_on_c, 1, 54, 75
1, 34841, Note_on_c, 0, 69, 0
1, 34845, Note_on_c, 1, 54, 0
1, 34848, Note_on_c, 0, 76, 75
1, 34848, Note_on_c, 1, 55, 75
1, 34857, Note_on_c, 0, 76, 0
1, 34857, Note_on_c, 0, 78, 75
1, 34866, Note_on_c, 0, 78, 0
1, 34866, Note_on_c, 0, 76, 75
1, 34875, Note_on_c, 0, 76, 0
1, 34875, Note_on_c, 0, 78, 75
1, 34884, Note_on_c, 0, 78, 0
1, 34884, Note_on_c, 0, 76, 75
1, 34893, Note_on_c, 0, 76, 0
1, 34893, Note_on_c, 0, 78, 75
1, 34893, Note_on_c, 1, 55, 0
1, 34896, Note_on_c, 1, 62, 0
1, 34896, Note_on_c, 1, 61, 75
1, 34896, Note_on_c, 1, 57, 75
1, 34902, Note_on_c, 0, 78, 0
1, 34902, Note_on_c, 0, 76, 75
1, 34911, Note_on_c, 0, 76, 0
1, 34911, Note_on_c, 0, 78, 75
1, 34920, Note_on_c, 0, 78, 0
1, 34920, Note_on_c, 0, 76, 75
1, 34928, Note_on_c, 0, 76, 0
1, 34928, Note_on_c, 0, 74, 75
1, 34936, Note_on_c, 0, 74, 0
1, 34936, Note_on_c, 0, 76, 75
1, 34941, Note_on_c, 1, 61, 0
1, 34941, Note_on_c, 1, 57, 0
1, 34944, Note_on_c, 0, 76, 0
1, 34944, Note_on_c, 0, 74, 75
1, 34944, Note_on_c, 1, 62, 75
1, 34964, Note_on_c, 0, 74, 0
1, 34992, Note_on_c, 0, 69, 63
1, 35033, Note_on_c, 1, 62, 0
1, 35037, Note_on_c, 0, 69, 0
1, 35040, Note_on_c, 0, 70, 63
1, 35055, Note_on_c, 0, 70, 0
1, 35056, Note_on_c, 0, 69, 63
1, 35071, Note_on_c, 0, 69, 0
1, 35072, Note_on_c, 0, 70, 63
1, 35087, Note_on_c, 0, 70, 0
1, 35088, Note_on_c, 0, 74, 63
1, 35088, Note_on_c, 1, 65, 56
1, 35088, Note_on_c, 1, 62, 56
1, 35088, Note_on_c, 1, 62, 56
1, 35103, Note_on_c, 0, 74, 0
1, 35104, Note_on_c, 0, 72, 63
1, 35119, Note_on_c, 0, 72, 0
1, 35120, Note_on_c, 0, 70, 63
1, 35133, Note_on_c, 1, 65, 0
1, 35133, Note_on_c, 1, 62, 0
1, 35135, Note_on_c, 0, 70, 0
1, 35136, Note_on_c, 0, 68, 63
1, 35136, Note_on_c, 1, 64, 56
1, 35151, Note_on_c, 0, 68, 0
1, 35152, Note_on_c, 0, 69, 63
1, 35167, Note_on_c, 0, 69, 0
1, 35168, Note_on_c, 0, 71, 63
1, 35181, Note_on_c, 1, 62, 0
1, 35183, Note_on_c, 0, 71, 0
1, 35184, Note_on_c, 0, 69, 63
1, 35184, Note_on_c, 1, 60, 57
1, 35199, Note_on_c, 0, 69, 0
1, 35200, Note_on_c, 0, 71, 64
1, 35215, Note_on_c, 0, 71, 0
1, 35216, Note_on_c, 0, 72, 64
1, 35225, Note_on_c, 1, 64, 0
1, 35231, Note_on_c, 0, 72, 0
1, 35232, Note_on_c, 0, 66, 64
1, 35232, Note_on_c, 1, 62, 58
1, 35247, Note_on_c, 0, 66, 0
1, 35248, Note_on_c, 0, 67, 64
1, 35263, Note_on_c, 0, 67, 0
1, 35264, Note_on_c, 0, 69, 65
1, 35277, Note_on_c, 1, 60, 0
1, 35279, Note_on_c, 0, 69, 0
1, 35280, Note_on_c, 0, 67, 65
1, 35280, Note_on_c, 1, 58, 59
1, 35295, Note_on_c, 0, 67, 0
1, 35296, Note_on_c, 0, 69, 65
1, 35311, Note_on_c, 0, 69, 0
1, 35312, Note_on_c, 0, 70, 65
1, 35321, Note_on_c, 1, 62, 0
1, 35327, Note_on_c, 0, 70, 0
1, 35328, Note_on_c, 0, 64, 66
1, 35328, Note_on_c, 1, 60, 60
1, 35343, Note_on_c, 0, 64, 0
1, 35344, Note_on_c, 0, 65, 66
1, 35359, Note_on_c, 0, 65, 0
1, 35360, Note_on_c, 0, 67, 66
1, 35373, Note_on_c, 1, 58, 0
1, 35375, Note_on_c, 0, 67, 0
1, 35376, Note_on_c, 0, 65, 66
1, 35376, Note_on_c, 1, 57, 61
1, 35391, Note_on_c, 0, 65, 0
1, 35392, Note_on_c, 0, 67, 67
1, 35407, Note_on_c, 0, 67, 0
1, 35408, Note_on_c, 0, 69, 67
1, 35417, Note_on_c, 1, 60, 0
1, 35423, Note_on_c, 0, 69, 0
1, 35424, Note_on_c, 0, 62, 67
1, 35424, Note_on_c, 1, 58, 62
1, 35439, Note_on_c, 0, 62, 0
1, 35440, Note_on_c, 0, 64, 67
1, 35455, Note_on_c, 0, 64, 0
1, 35456, Note_on_c, 0, 65, 68
1, 35469, Note_on_c, 1, 57, 0
1, 35471, Note_on_c, 0, 65, 0
1, 35472, Note_on_c, 0, 64, 68
1, 35472, Note_on_c, 1, 55, 63
1, 35487, Note_on_c, 0, 64, 0
1, 35488, Note_on_c, 0, 65, 68
1, 35503, Note_on_c, 0, 65, 0
1, 35504, Note_on_c, 0, 67, 68
1, 35513, Note_on_c, 1, 58, 0
1, 35519, Note_on_c, 0, 67, 0
1, 35520, Note_on_c, 0, 61, 69
1, 35520, Note_on_c, 1, 57, 64
1, 35535, Note_on_c, 0, 61, 0
1, 35536, Note_on_c, 0, 62, 69
1, 35551, Note_on_c, 0, 62, 0
1, 35552, Note_on_c, 0, 64, 69
1, 35565, Note_on_c, 1, 55, 0
1, 35567, Note_on_c, 0, 64, 0
1, 35568, Note_on_c, 0, 62, 69
1, 35568, Note_on_c, 1, 53, 65
1, 35583, Note_on_c, 0, 62, 0
1, 35584, Note_on_c, 0, 64, 70
1, 35599, Note_on_c, 0, 64, 0
1, 35600, Note_on_c, 0, 65, 70
1, 35613, Note_on_c, 1, 53, 0
1, 35615, Note_on_c, 0, 65, 0
1, 35616, Note_on_c, 0, 64, 70
1, 35616, Note_on_c, 1, 49, 66
1, 35631, Note_on_c, 0, 64, 0
1, 35632, Note_on_c, 0, 65, 70
1, 35647, Note_on_c, 0, 65, 0
1, 35648, Note_on_c, 0, 67, 71
1, 35661, Note_on_c, 1, 49, 0
1, 35663, Note_on_c, 0, 67, 0
1, 35664, Note_on_c, 0, 65, 71
1, 35664, Note_on_c, 1, 50, 67
1, 35679, Note_on_c, 0, 65, 0
1, 35680, Note_on_c, 0, 67, 71
1, 35695, Note_on_c, 0, 67, 0
1, 35696, Note_on_c, 0, 69, 71
1, 35705, Note_on_c, 1, 57, 0
1, 35709, Note_on_c, 1, 50, 0
1, 35711, Note_on_c, 0, 69, 0
1, 35712, Note_on_c, 0, 67, 75
1, 35712, Note_on_c, 1, 45, 68
1, 35720, Note_on_c, 0, 67, 0
1, 35720, Note_on_c, 0, 65, 75
1, 35728, Note_on_c, 0, 65, 0
1, 35728, Note_on_c, 0, 67, 75
1, 35736, Note_on_c, 0, 67, 0
1, 35736, Note_on_c, 0, 65, 75
1, 35744, Note_on_c, 0, 65, 0
1, 35744, Note_on_c, 0, 67, 75
1, 35752, Note_on_c, 0, 67, 0
1, 35752, Note_on_c, 0, 65, 75
1, 35757, Note_on_c, 1, 45, 0
1, 35760, Note_on_c, 0, 65, 0
1, 35760, Note_on_c, 0, 64, 75
1, 35760, Note_on_c, 1, 33, 68
1, 35783, Note_on_c, 0, 64, 0
1, 35796, Note_on_c, 0, 67, 80
1, 35796, Note_on_c, 0, 64, 80
1, 35805, Note_on_c, 1, 33, 0
1, 35808, Note_on_c, 0, 67, 0
1, 35808, Note_on_c, 0, 64, 0
1, 35808, Note_on_c, 0, 67, 80
1, 35808, Note_on_c, 0, 64, 80
1, 35856, Note_on_c, 1, 45, 80
1, 35856, Note_on_c, 1, 33, 80
1, 35886, Note_on_c, 0, 67, 0
1, 35886, Note_on_c, 0, 64, 0
1, 35892, Note_on_c, 0, 73, 80
1, 35892, Note_on_c, 0, 67, 80
1, 35901, Note_on_c, 1, 45, 0
1, 35901, Note_on_c, 1, 33, 0
1, 35904, Note_on_c, 0, 73, 0
1, 35904, Note_on_c, 0, 67, 0
1, 35904, Note_on_c, 0, 73, 80
1, 35904, Note_on_c, 0, 67, 80
1, 35952, Note_on_c, 1, 45, 80
1, 35952, Note_on_c, 1, 33, 80
1, 35982, Note_on_c, 0, 73, 0
1, 35982, Note_on_c, 0, 67, 0
1, 35988, Note_on_c, 0, 76, 80
1, 35988, Note_on_c, 0, 73, 80
1, 35997, Note_on_c, 1, 45, 0
1, 35997, Note_on_c, 1, 33, 0
1, 36000, Note_on_c, 0, 76, 0
1, 36000, Note_on_c, 0, 73, 0
1, 36000, Note_on_c, 0, 76, 80
1, 36000, Note_on_c, 0, 73, 80
1, 36048, Note_on_c, 1, 45, 80
1, 36048, Note_on_c, 1, 33, 80
1, 36067, Note_on_c, 0, 76, 0
1, 36067, Note_on_c, 0, 73, 0
1, 36072, Note_on_c, 0, 76, 80
1, 36084, Note_on_c, 0, 76, 0
1, 36084, Note_on_c, 0, 79, 80
1, 36093, Note_on_c, 1, 45, 0
1, 36093, Note_on_c, 1, 33, 0
1, 36096, Note_on_c, 0, 79, 0
1, 36096, Note_on_c, 0, 78, 80
1, 36096, Note_on_c, 1, 50, 80
1, 36096, Note_on_c, 1, 38, 80
1, 36111, Note_on_c, 0, 78, 0
1, 36112, Note_on_c, 0, 81, 80
1, 36127, Note_on_c, 0, 81, 0
1, 36128, Note_on_c, 0, 79, 80
1, 36143, Note_on_c, 0, 79, 0
1, 36144, Note_on_c, 0, 78, 80
1, 36159, Note_on_c, 0, 78, 0
1, 36160, Note_on_c, 0, 76, 80
1, 36175, Note_on_c, 0, 76, 0
1, 36176, Note_on_c, 0, 74, 80
1, 36185, Note_on_c, 1, 50, 0
1, 36185, Note_on_c, 1, 38, 0
1, 36191, Note_on_c, 0, 74, 0
1, 36192, Note_on_c, 0, 73, 80
1, 36207, Note_on_c, 0, 73, 0
1, 36208, Note_on_c, 0, 71, 80
1, 36223, Note_on_c, 0, 71, 0
1, 36224, Note_on_c, 0, 69, 80
1, 36239, Note_on_c, 0, 69, 0
1, 36240, Note_on_c, 0, 67, 80
1, 36255, Note_on_c, 0, 67, 0
1, 36256, Note_on_c, 0, 66, 80
1, 36271, Note_on_c, 0, 66, 0
1, 36272, Note_on_c, 0, 64, 80
1, 36287, Note_on_c, 0, 64, 0
1, 36288, Note_on_c, 0, 62, 80
1, 36336, Note_on_c, 1, 54, 80
1, 36355, Note_on_c, 0, 62, 0
1, 36360, Note_on_c, 0, 64, 80
1, 36381, Note_on_c, 1, 54, 0
1, 36383, Note_on_c, 0, 64, 0
1, 36384, Note_on_c, 0, 64, 76
1, 36384, Note_on_c, 1, 55, 74
1, 36393, Note_on_c, 0, 64, 0
1, 36393, Note_on_c, 0, 66, 75
1, 36402, Note_on_c, 0, 66, 0
1, 36402, Note_on_c, 0, 64, 74
1, 36411, Note_on_c, 0, 64, 0
1, 36411, Note_on_c, 0, 66, 73
1, 36420, Note_on_c, 0, 66, 0
1, 36420, Note_on_c, 0, 64, 72
1, 36429, Note_on_c, 0, 64, 0
1, 36429, Note_on_c, 0, 66, 71
1, 36429, Note_on_c, 1, 55, 0
1, 36432, Note_on_c, 1, 57, 68
1, 36438, Note_on_c, 0, 66, 0
1, 36438, Note_on_c, 0, 64, 70
1, 36447, Note_on_c, 0, 64, 0
1, 36447, Note_on_c, 0, 66, 69
1, 36456, Note_on_c, 0, 66, 0
1, 36456, Note_on_c, 0, 64, 68
1, 36464, Note_on_c, 0, 64, 0
1, 36464, Note_on_c, 0, 62, 67
1, 36472, Note_on_c, 0, 62, 0
1, 36472, Note_on_c, 0, 64, 63
1, 36477, Note_on_c, 1, 57, 0
1, 36480, Note_on_c, 0, 64, 0
1, 36480, Note_on_c, 0, 78, 75
1, 36480, Note_on_c, 1, 50, 75
1, 36495, Note_on_c, 0, 78, 0
1, 36496, Note_on_c, 0, 81, 75
1, 36511, Note_on_c, 0, 81, 0
1, 36512, Note_on_c, 0, 79, 75
1, 36527, Note_on_c, 0, 79, 0
1, 36528, Note_on_c, 0, 78, 75
1, 36543, Note_on_c, 0, 78, 0
1, 36544, Note_on_c, 0, 76, 75
1, 36559, Note_on_c, 0, 76, 0
1, 36560, Note_on_c, 0, 74, 75
1, 36569, Note_on_c, 1, 50, 0
1, 36575, Note_on_c, 0, 74, 0
1, 36576, Note_on_c, 0, 73, 75
1, 36591, Note_on_c, 0, 73, 0
1, 36592, Note_on_c, 0, 71, 75
1, 36607, Note_on_c, 0, 71, 0
1, 36608, Note_on_c, 0, 69, 75
1, 36623, Note_on_c, 0, 69, 0
1, 36624, Note_on_c, 0, 67, 75
1, 36639, Note_on_c, 0, 67, 0
1, 36640, Note_on_c, 0, 66, 75
1, 36655, Note_on_c, 0, 66, 0
1, 36656, Note_on_c, 0, 64, 75
1, 36671, Note_on_c, 0, 64, 0
1, 36672, Note_on_c, 0, 62, 80
1, 36720, Note_on_c, 1, 54, 75
1, 36739, Note_on_c, 0, 62, 0
1, 36744, Note_on_c, 0, 64, 73
1, 36765, Note_on_c, 1, 54, 0
1, 36767, Note_on_c, 0, 64, 0
1, 36768, Note_on_c, 0, 64, 71
1, 36768, Note_on_c, 1, 55, 71
1, 36777, Note_on_c, 0, 64, 0
1, 36777, Note_on_c, 0, 66, 70
1, 36786, Note_on_c, 0, 66, 0
1, 36786, Note_on_c, 0, 64, 70
1, 36795, Note_on_c, 0, 64, 0
1, 36795, Note_on_c, 0, 66, 69
1, 36804, Note_on_c, 0, 66, 0
1, 36804, Note_on_c, 0, 64, 69
1, 36813, Note_on_c, 0, 64, 0
1, 36813, Note_on_c, 0, 66, 68
1, 36813, Note_on_c, 1, 55, 0
1, 36816, Note_on_c, 1, 57, 67
1, 36822, Note_on_c, 0, 66, 0
1, 36822, Note_on_c, 0, 64, 68
1, 36831, Note_on_c, 0, 64, 0
1, 36831, Note_on_c, 0, 66, 67
1, 36840, Note_on_c, 0, 66, 0
1, 36840, Note_on_c, 0, 64, 67
1, 36848, Note_on_c, 0, 64, 0
1, 36848, Note_on_c, 0, 62, 66
1, 36856, Note_on_c, 0, 62, 0
1, 36856, Note_on_c, 0, 64, 66
1, 36861, Note_on_c, 1, 57, 0
1, 36864, Note_on_c, 0, 64, 0
1, 36864, Note_on_c, 0, 62, 63
1, 36864, Note_on_c, 1, 50, 63
1, 36909, Note_on_c, 1, 50, 0
1, 36912, Note_on_c, 1, 45, 63
1, 36953, Note_on_c, 0, 62, 0
1, 36957, Note_on_c, 1, 45, 0
1, 36960, Note_on_c, 1, 38, 63
1, 37005, Note_on_c, 1, 38, 0
1, 37044, Note_on_c, 0, 76, 75
1, 37044, Note_on_c, 0, 73, 75
1, 37056, Note_on_c, 0, 76, 0
1, 37056, Note_on_c, 0, 73, 0
1, 37056, Note_on_c, 0, 76, 75
1, 37056, Note_on_c, 0, 73, 75
1, 37104, Note_on_c, 1, 45, 75
1, 37104, Note_on_c, 1, 33, 75
1, 37134, Note_on_c, 0, 76, 0
1, 37134, Note_on_c, 0, 73, 0
1, 37140, Note_on_c, 0, 73, 75
1, 37140, Note_on_c, 0, 69, 75
1, 37149, Note_on_c, 1, 45, 0
1, 37149, Note_on_c, 1, 33, 0
1, 37152, Note_on_c, 0, 73, 0
1, 37152, Note_on_c, 0, 69, 0
1, 37152, Note_on_c, 0, 73, 75
1, 37152, Note_on_c, 0, 69, 75
1, 37200, Note_on_c, 1, 45, 75
1, 37200, Note_on_c, 1, 33, 75
1, 37230, Note_on_c, 0, 73, 0
1, 37230, Note_on_c, 0, 69, 0
1, 37236, Note_on_c, 0, 69, 75
1, 37236, Note_on_c, 0, 61, 75
1, 37245, Note_on_c, 1, 45, 0
1, 37245, Note_on_c, 1, 33, 0
1, 37248, Note_on_c, 0, 69, 0
1, 37248, Note_on_c, 0, 61, 0
1, 37248, Note_on_c, 0, 69, 75
1, 37248, Note_on_c, 0, 61, 75
1, 37296, Note_on_c, 1, 45, 75
1, 37296, Note_on_c, 1, 33, 75
1, 37337, Note_on_c, 0, 69, 0
1, 37337, Note_on_c, 0, 61, 0
1, 37341, Note_on_c, 1, 45, 0
1, 37341, Note_on_c, 1, 33, 0
1, 37344, Note_on_c, 1, 45, 75
1, 37344, Note_on_c, 1, 33, 75
1, 37360, Note_on_c, 0, 57, 75
1, 37375, Note_on_c, 0, 57, 0
1, 37376, Note_on_c, 0, 59, 75
1, 37389, Note_on_c, 1, 45, 0
1, 37389, Note_on_c, 1, 33, 0
1, 37391, Note_on_c, 0, 59, 0
1, 37392, Note_on_c, 0, 61, 75
1, 37392, Note_on_c, 1, 45, 75
1, 37392, Note_on_c, 1, 33, 75
1, 37407, Note_on_c, 0, 61, 0
1, 37408, Note_on_c, 0, 62, 75
1, 37423, Note_on_c, 0, 62, 0
1, 37424, Note_on_c, 0, 64, 75
1, 37437, Note_on_c, 1, 45, 0
1, 37437, Note_on_c, 1, 33, 0
1, 37439, Note_on_c, 0, 64, 0
1, 37440, Note_on_c, 0, 65, 91
1, 37488, Note_on_c, 1, 57, 75
1, 37488, Note_on_c, 1, 50, 75
1, 37533, Note_on_c, 1, 57, 0
1, 37533, Note_on_c, 1, 50, 0
1, 37536, Note_on_c, 0, 65, 0
1, 37536, Note_on_c, 0, 66, 75
1, 37536, Note_on_c, 1, 57, 75
1, 37536, Note_on_c, 1, 50, 75
1, 37551, Note_on_c, 0, 66, 0
1, 37552, Note_on_c, 0, 74, 75
1, 37567, Note_on_c, 0, 74, 0
1, 37568, Note_on_c, 0, 73, 75
1, 37581, Note_on_c, 1, 57, 0
1, 37581, Note_on_c, 1, 50, 0
1, 37583, Note_on_c, 0, 73, 0
1, 37584, Note_on_c, 0, 74, 75
1, 37584, Note_on_c, 1, 57, 75
1, 37584, Note_on_c, 1, 50, 75
1, 37599, Note_on_c, 0, 74, 0
1, 37600, Note_on_c, 0, 69, 75
1, 37615, Note_on_c, 0, 69, 0
1, 37616, Note_on_c, 0, 66, 75
1, 37629, Note_on_c, 1, 57, 0
1, 37629, Note_on_c, 1, 50, 0
1, 37631, Note_on_c, 0, 66, 0
1, 37632, Note_on_c, 0, 66, 91
1, 37680, Note_on_c, 1, 57, 75
1, 37680, Note_on_c, 1, 50, 75
1, 37725, Note_on_c, 1, 57, 0
1, 37725, Note_on_c, 1, 50, 0
1, 37728, Note_on_c, 0, 66, 0
1, 37728, Note_on_c, 0, 64, 75
1, 37728, Note_on_c, 1, 57, 75
1, 37728, Note_on_c, 1, 49, 75
1, 37743, Note_on_c, 0, 64, 0
1, 37744, Note_on_c, 0, 69, 75
1, 37759, Note_on_c, 0, 69, 0
1, 37760, Note_on_c, 0, 68, 75
1, 37773, Note_on_c, 1, 57, 0
1, 37773, Note_on_c, 1, 49, 0
1, 37775, Note_on_c, 0, 68, 0
1, 37776, Note_on_c, 0, 69, 75
1, 37776, Note_on_c, 1, 57, 75
1, 37776, Note_on_c, 1, 49, 75
1, 37791, Note_on_c, 0, 69, 0
1, 37792, Note_on_c, 0, 73, 75
1, 37807, Note_on_c, 0, 73, 0
1, 37808, Note_on_c, 0, 76, 75
1, 37821, Note_on_c, 1, 57, 0
1, 37821, Note_on_c, 1, 49, 0
1, 37823, Note_on_c, 0, 76, 0
1, 37824, Note_on_c, 0, 76, 91
1, 37824, Note_on_c, 1, 59, 75
1, 37848, Note_on_c, 0, 76, 0
1, 37848, Note_on_c, 0, 74, 75
1, 37869, Note_on_c, 1, 59, 0
1, 37871, Note_on_c, 0, 74, 0
1, 37872, Note_on_c, 0, 83, 75
1, 37872, Note_on_c, 1, 56, 75
1, 37895, Note_on_c, 0, 83, 0
1, 37896, Note_on_c, 0, 74, 75
1, 37917, Note_on_c, 1, 56, 0
1, 37919, Note_on_c, 0, 74, 0
1, 37920, Note_on_c, 0, 73, 75
1, 37920, Note_on_c, 1, 57, 75
1, 37944, Note_on_c, 0, 73, 0
1, 37944, Note_on_c, 0, 81, 75
1, 37954, Note_on_c, 0, 81, 0
1, 37965, Note_on_c, 1, 57, 0
1, 37968, Note_on_c, 0, 81, 75
1, 37968, Note_on_c, 1, 45, 75
1, 37992, Note_on_c, 0, 81, 0
1, 37992, Note_on_c, 0, 73, 75
1, 38013, Note_on_c, 1, 45, 0
1, 38015, Note_on_c, 0, 73, 0
1, 38016, Note_on_c, 0, 76, 75
1, 38016, Note_on_c, 1, 52, 75
1, 38061, Note_on_c, 0, 76, 0
1, 38064, Note_on_c, 0, 74, 75
1, 38076, Note_on_c, 0, 74, 0
1, 38076, Note_on_c, 0, 73, 75
1, 38088, Note_on_c, 0, 73, 0
1, 38088, Note_on_c, 0, 71, 75
1, 38100, Note_on_c, 0, 71, 0
1, 38100, Note_on_c, 0, 73, 75
1, 38105, Note_on_c, 1, 52, 0
1, 38112, Note_on_c, 0, 73, 0
1, 38112, Note_on_c, 0, 71, 75
1, 38112, Note_on_c, 1, 40, 75
1, 38157, Note_on_c, 0, 71, 0
1, 38157, Note_on_c, 1, 40, 0
1, 38208, Note_on_c, 0, 76, 68
1, 38256, Note_on_c, 1, 67, 56
1, 38256, Note_on_c, 1, 64, 56
1, 38275, Note_on_c, 0, 76, 0
1, 38280, Note_on_c, 0, 71, 68
1, 38303, Note_on_c, 0, 71, 0
1, 38303, Note_on_c, 1, 67, 0
1, 38303, Note_on_c, 1, 64, 0
1, 38304, Note_on_c, 0, 79, 68
1, 38304, Note_on_c, 1, 67, 56
1, 38304, Note_on_c, 1, 64, 56
1, 38319, Note_on_c, 0, 79, 0
1, 38320, Note_on_c, 0, 78, 68
1, 38335, Note_on_c, 0, 78, 0
1, 38336, Note_on_c, 0, 76, 68
1, 38351, Note_on_c, 0, 76, 0
1, 38351, Note_on_c, 1, 67, 0
1, 38351, Note_on_c, 1, 64, 0
1, 38352, Note_on_c, 0, 74, 68
1, 38352, Note_on_c, 1, 67, 56
1, 38352, Note_on_c, 1, 64, 56
1, 38367, Note_on_c, 0, 74, 0
1, 38368, Note_on_c, 0, 73, 68
1, 38383, Note_on_c, 0, 73, 0
1, 38384, Note_on_c, 0, 71, 68
1, 38399, Note_on_c, 0, 71, 0
1, 38399, Note_on_c, 1, 67, 0
1, 38399, Note_on_c, 1, 64, 0
1, 38400, Note_on_c, 0, 71, 84
1, 38448, Note_on_c, 1, 66, 56
1, 38448, Note_on_c, 1, 64, 56
1, 38472, Note_on_c, 0, 71, 0
1, 38472, Note_on_c, 0, 68, 68
1, 38495, Note_on_c, 0, 68, 0
1, 38495, Note_on_c, 1, 66, 0
1, 38495, Note_on_c, 1, 64, 0
1, 38496, Note_on_c, 0, 70, 68
1, 38496, Note_on_c, 1, 66, 56
1, 38496, Note_on_c, 1, 64, 56
1, 38511, Note_on_c, 0, 70, 0
1, 38512, Note_on_c, 0, 71, 68
1, 38527, Note_on_c, 0, 71, 0
1, 38528, Note_on_c, 0, 73, 68
1, 38543, Note_on_c, 0, 73, 0
1, 38543, Note_on_c, 1, 66, 0
1, 38543, Note_on_c, 1, 64, 0
1, 38544, Note_on_c, 0, 74, 68
1, 38544, Note_on_c, 1, 66, 56
1, 38544, Note_on_c, 1, 64, 56
1, 38559, Note_on_c, 0, 74, 0
1, 38560, Note_on_c, 0, 76, 68
1, 38575, Note_on_c, 0, 76, 0
1, 38576, Note_on_c, 0, 73, 68
1, 38591, Note_on_c, 0, 73, 0
1, 38591, Note_on_c, 1, 66, 0
1, 38591, Note_on_c, 1, 64, 0
1, 38592, Note_on_c, 0, 78, 68
1, 38640, Note_on_c, 1, 66, 56
1, 38640, Note_on_c, 1, 62, 56
1, 38659, Note_on_c, 0, 78, 0
1, 38664, Note_on_c, 0, 71, 68
1, 38687, Note_on_c, 0, 71, 0
1, 38687, Note_on_c, 1, 66, 0
1, 38687, Note_on_c, 1, 62, 0
1, 38688, Note_on_c, 0, 78, 68
1, 38688, Note_on_c, 1, 66, 56
1, 38688, Note_on_c, 1, 62, 56
1, 38703, Note_on_c, 0, 78, 0
1, 38704, Note_on_c, 0, 76, 68
1, 38719, Note_on_c, 0, 76, 0
1, 38720, Note_on_c, 0, 74, 68
1, 38735, Note_on_c, 0, 74, 0
1, 38735, Note_on_c, 1, 66, 0
1, 38735, Note_on_c, 1, 62, 0
1, 38736, Note_on_c, 0, 73, 68
1, 38736, Note_on_c, 1, 66, 56
1, 38736, Note_on_c, 1, 62, 56
1, 38751, Note_on_c, 0, 73, 0
1, 38752, Note_on_c, 0, 71, 68
1, 38767, Note_on_c, 0, 71, 0
1, 38768, Note_on_c, 0, 69, 68
1, 38783, Note_on_c, 0, 69, 0
1, 38783, Note_on_c, 1, 66, 0
1, 38783, Note_on_c, 1, 62, 0
1, 38784, Note_on_c, 0, 69, 84
1, 38832, Note_on_c, 1, 64, 56
1, 38832, Note_on_c, 1, 62, 56
1, 38856, Note_on_c, 0, 69, 0
1, 38856, Note_on_c, 0, 66, 68
1, 38879, Note_on_c, 0, 66, 0
1, 38879, Note_on_c, 1, 64, 0
1, 38879, Note_on_c, 1, 62, 0
1, 38880, Note_on_c, 0, 68, 68
1, 38880, Note_on_c, 1, 64, 56
1, 38880, Note_on_c, 1, 62, 56
1, 38895, Note_on_c, 0, 68, 0
1, 38896, Note_on_c, 0, 69, 68
1, 38911, Note_on_c, 0, 69, 0
1, 38912, Note_on_c, 0, 71, 68
1, 38927, Note_on_c, 0, 71, 0
1, 38927, Note_on_c, 1, 64, 0
1, 38927, Note_on_c, 1, 62, 0
1, 38928, Note_on_c, 0, 73, 68
1, 38928, Note_on_c, 1, 64, 56
1, 38928, Note_on_c, 1, 62, 56
1, 38943, Note_on_c, 0, 73, 0
1, 38944, Note_on_c, 0, 74, 68
1, 38959, Note_on_c, 0, 74, 0
1, 38960, Note_on_c, 0, 71, 68
1, 38975, Note_on_c, 0, 71, 0
1, 38975, Note_on_c, 1, 64, 0
1, 38975, Note_on_c, 1, 62, 0
1, 38976, Note_on_c, 0, 76, 68
1, 39024, Note_on_c, 1, 64, 56
1, 39024, Note_on_c, 1, 61, 56
1, 39043, Note_on_c, 0, 76, 0
1, 39048, Note_on_c, 0, 67, 66
1, 39071, Note_on_c, 0, 67, 0
1, 39071, Note_on_c, 1, 64, 0
1, 39071, Note_on_c, 1, 61, 0
1, 39072, Note_on_c, 0, 76, 65
1, 39072, Note_on_c, 1, 64, 56
1, 39072, Note_on_c, 1, 61, 56
1, 39087, Note_on_c, 0, 76, 0
1, 39088, Note_on_c, 0, 74, 65
1, 39103, Note_on_c, 0, 74, 0
1, 39104, Note_on_c, 0, 73, 64
1, 39119, Note_on_c, 0, 73, 0
1, 39119, Note_on_c, 1, 64, 0
1, 39119, Note_on_c, 1, 61, 0
1, 39120, Note_on_c, 0, 71, 64
1, 39120, Note_on_c, 1, 64, 56
1, 39120, Note_on_c, 1, 61, 56
1, 39135, Note_on_c, 0, 71, 0
1, 39136, Note_on_c, 0, 69, 64
1, 39151, Note_on_c, 0, 69, 0
1, 39152, Note_on_c, 0, 67, 63
1, 39167, Note_on_c, 0, 67, 0
1, 39167, Note_on_c, 1, 64, 0
1, 39167, Note_on_c, 1, 61, 0
1, 39168, Note_on_c, 0, 69, 63
1, 39168, Note_on_c, 1, 61, 63
1, 39168, Note_on_c, 1, 58, 63
1, 39174, Note_on_c, 0, 69, 0
1, 39174, Note_on_c, 0, 67, 63
1, 39180, Note_on_c, 0, 67, 0
1, 39180, Note_on_c, 0, 66, 63
1, 39186, Note_on_c, 0, 66, 0
1, 39186, Note_on_c, 0, 67, 63
1, 39240, Note_on_c, 0, 67, 0
1, 39240, Note_on_c, 0, 66, 63
1, 39329, Note_on_c, 0, 66, 0
1, 39345, Note_on_c, 1, 61, 0
1, 39345, Note_on_c, 1, 58, 0
1, 39456, Note_on_c, 1, 50, 63
1, 39456, Note_on_c, 1, 38, 63
1, 39456, Note_on_c, 1, 50, 75
1, 39456, Note_on_c, 1, 38, 75
1, 39492, Note_on_c, 0, 66, 63
1, 39504, Note_on_c, 0, 66, 0
1, 39504, Note_on_c, 0, 71, 63
1, 39538, Note_on_c, 0, 71, 0
1, 39540, Note_on_c, 0, 74, 63
1, 39545, Note_on_c, 1, 50, 0
1, 39545, Note_on_c, 1, 38, 0
1, 39545, Note_on_c, 1, 50, 0
1, 39545, Note_on_c, 1, 38, 0
1, 39552, Note_on_c, 0, 74, 0
1, 39552, Note_on_c, 0, 74, 64
1, 39552, Note_on_c, 1, 52, 63
1, 39552, Note_on_c, 1, 40, 63
1, 39552, Note_on_c, 1, 52, 68
1, 39552, Note_on_c, 1, 40, 68
1, 39586, Note_on_c, 0, 74, 0
1, 39588, Note_on_c, 0, 67, 64
1, 39600, Note_on_c, 0, 67, 0
1, 39600, Note_on_c, 0, 73, 64
1, 39634, Note_on_c, 0, 73, 0
1, 39636, Note_on_c, 0, 76, 65
1, 39641, Note_on_c, 1, 52, 0
1, 39641, Note_on_c, 1, 40, 0
1, 39641, Note_on_c, 1, 52, 0
1, 39641, Note_on_c, 1, 40, 0
1, 39648, Note_on_c, 0, 76, 0
1, 39648, Note_on_c, 0, 76, 65
1, 39648, Note_on_c, 1, 54, 64
1, 39648, Note_on_c, 1, 42, 64
1, 39682, Note_on_c, 0, 76, 0
1, 39684, Note_on_c, 0, 69, 66
1, 39696, Note_on_c, 0, 69, 0
1, 39696, Note_on_c, 0, 74, 66
1, 39730, Note_on_c, 0, 74, 0
1, 39732, Note_on_c, 0, 78, 67
1, 39737, Note_on_c, 1, 54, 0
1, 39737, Note_on_c, 1, 42, 0
1, 39744, Note_on_c, 0, 78, 0
1, 39744, Note_on_c, 0, 78, 67
1, 39744, Note_on_c, 1, 55, 66
1, 39744, Note_on_c, 1, 43, 66
1, 39778, Note_on_c, 0, 78, 0
1, 39780, Note_on_c, 0, 71, 68
1, 39792, Note_on_c, 0, 71, 0
1, 39792, Note_on_c, 0, 76, 68
1, 39826, Note_on_c, 0, 76, 0
1, 39828, Note_on_c, 0, 79, 69
1, 39833, Note_on_c, 1, 55, 0
1, 39833, Note_on_c, 1, 43, 0
1, 39840, Note_on_c, 0, 79, 0
1, 39840, Note_on_c, 0, 79, 69
1, 39840, Note_on_c, 1, 57, 68
1, 39840, Note_on_c, 1, 45, 68
1, 39874, Note_on_c, 0, 79, 0
1, 39876, Note_on_c, 0, 73, 69
1, 39888, Note_on_c, 0, 73, 0
1, 39888, Note_on_c, 0, 78, 70
1, 39922, Note_on_c, 0, 78, 0
1, 39924, Note_on_c, 0, 81, 70
1, 39929, Note_on_c, 1, 57, 0
1, 39929, Note_on_c, 1, 45, 0
1, 39936, Note_on_c, 0, 81, 0
1, 39936, Note_on_c, 0, 81, 70
1, 39936, Note_on_c, 1, 59, 69
1, 39936, Note_on_c, 1, 47, 69
1, 39970, Note_on_c, 0, 81, 0
1, 39972, Note_on_c, 0, 74, 71
1, 39984, Note_on_c, 0, 74, 0
1, 39984, Note_on_c, 0, 79, 71
1, 40018, Note_on_c, 0, 79, 0
1, 40020, Note_on_c, 0, 83, 72
1, 40025, Note_on_c, 1, 59, 0
1, 40025, Note_on_c, 1, 47, 0
1, 40032, Note_on_c, 0, 83, 0
1, 40032, Note_on_c, 0, 83, 72
1, 40032, Note_on_c, 1, 61, 71
1, 40032, Note_on_c, 1, 49, 71
1, 40055, Note_on_c, 0, 83, 0
1, 40056, Note_on_c, 0, 81, 73
1, 40068, Note_on_c, 0, 81, 0
1, 40068, Note_on_c, 0, 79, 73
1, 40080, Note_on_c, 0, 79, 0
1, 40080, Note_on_c, 0, 78, 73
1, 40103, Note_on_c, 0, 78, 0
1, 40104, Note_on_c, 0, 79, 73
1, 40121, Note_on_c, 1, 61, 0
1, 40121, Note_on_c, 1, 49, 0
1, 40127, Note_on_c, 0, 79, 0
1, 40128, Note_on_c, 0, 78, 74
1, 40128, Note_on_c, 1, 62, 73
1, 40128, Note_on_c, 1, 50, 73
1, 40162, Note_on_c, 0, 78, 0
1, 40164, Note_on_c, 0, 86, 75
1, 40164, Note_on_c, 0, 78, 75
1, 40176, Note_on_c, 0, 86, 0
1, 40176, Note_on_c, 0, 78, 0
1, 40176, Note_on_c, 0, 86, 75
1, 40176, Note_on_c, 0, 78, 75
1, 40210, Note_on_c, 0, 86, 0
1, 40210, Note_on_c, 0, 78, 0
1, 40212, Note_on_c, 0, 86, 75
1, 40212, Note_on_c, 0, 78, 75
1, 40217, Note_on_c, 1, 62, 0
1, 40217, Note_on_c, 1, 50, 0
1, 40224, Note_on_c, 0, 86, 0
1, 40224, Note_on_c, 0, 78, 0
1, 40224, Note_on_c, 0, 86, 75
1, 40224, Note_on_c, 0, 78, 75
1, 40224, Note_on_c, 1, 56, 75
1, 40224, Note_on_c, 1, 44, 75
1, 40258, Note_on_c, 0, 86, 0
1, 40258, Note_on_c, 0, 78, 0
1, 40260, Note_on_c, 0, 78, 75
1, 40260, Note_on_c, 0, 74, 75
1, 40272, Note_on_c, 0, 78, 0
1, 40272, Note_on_c, 0, 74, 0
1, 40272, Note_on_c, 0, 78, 75
1, 40272, Note_on_c, 0, 74, 75
1, 40306, Note_on_c, 0, 78, 0
1, 40306, Note_on_c, 0, 74, 0
1, 40308, Note_on_c, 0, 78, 75
1, 40308, Note_on_c, 0, 74, 75
1, 40313, Note_on_c, 1, 56, 0
1, 40313, Note_on_c, 1, 44, 0
1, 40320, Note_on_c, 0, 78, 0
1, 40320, Note_on_c, 0, 74, 0
1, 40320, Note_on_c, 0, 78, 75
1, 40320, Note_on_c, 0, 74, 75
1, 40320, Note_on_c, 1, 57, 75
1, 40320, Note_on_c, 1, 45, 75
1, 40365, Note_on_c, 0, 78, 0
1, 40365, Note_on_c, 0, 74, 0
1, 40368, Note_on_c, 0, 76, 75
1, 40368, Note_on_c, 0, 73, 75
1, 40402, Note_on_c, 0, 76, 0
1, 40402, Note_on_c, 0, 73, 0
1, 40404, Note_on_c, 0, 85, 75
1, 40409, Note_on_c, 1, 57, 0
1, 40409, Note_on_c, 1, 45, 0
1, 40416, Note_on_c, 0, 85, 0
1, 40416, Note_on_c, 0, 86, 91
1, 40416, Note_on_c, 1, 56, 75
1, 40416, Note_on_c, 1, 44, 75
1, 40452, Note_on_c, 0, 86, 0
1, 40452, Note_on_c, 0, 78, 75
1, 40452, Note_on_c, 0, 74, 75
1, 40464, Note_on_c, 0, 78, 0
1, 40464, Note_on_c, 0, 74, 0
1, 40464, Note_on_c, 0, 78, 75
1, 40464, Note_on_c, 0, 74, 75
1, 40498, Note_on_c, 0, 78, 0
1, 40498, Note_on_c, 0, 74, 0
1, 40500, Note_on_c, 0, 78, 75
1, 40500, Note_on_c, 0, 74, 75
1, 40505, Note_on_c, 1, 56, 0
1, 40505, Note_on_c, 1, 44, 0
1, 40512, Note_on_c, 0, 78, 0
1, 40512, Note_on_c, 0, 74, 0
1, 40512, Note_on_c, 0, 78, 75
1, 40512, Note_on_c, 0, 74, 63
1, 40512, Note_on_c, 1, 57, 75
1, 40512, Note_on_c, 1, 45, 75
1, 40522, Note_on_c, 0, 78, 0
1, 40522, Note_on_c, 0, 79, 75
1, 40532, Note_on_c, 0, 79, 0
1, 40532, Note_on_c, 0, 78, 75
1, 40542, Note_on_c, 0, 78, 0
1, 40542, Note_on_c, 0, 76, 75
1, 40551, Note_on_c, 0, 76, 0
1, 40551, Note_on_c, 0, 78, 75
1, 40557, Note_on_c, 0, 74, 0
1, 40560, Note_on_c, 0, 78, 0
1, 40560, Note_on_c, 0, 76, 75
1, 40560, Note_on_c, 0, 73, 63
1, 40594, Note_on_c, 0, 76, 0
1, 40594, Note_on_c, 0, 73, 0
1, 40596, Note_on_c, 0, 85, 75
1, 40601, Note_on_c, 1, 57, 0
1, 40601, Note_on_c, 1, 45, 0
1, 40608, Note_on_c, 0, 85, 0
1, 40608, Note_on_c, 0, 86, 91
1, 40608, Note_on_c, 1, 62, 75
1, 40608, Note_on_c, 1, 54, 68
1, 40624, Note_on_c, 0, 86, 0
1, 40624, Note_on_c, 0, 85, 75
1, 40639, Note_on_c, 0, 85, 0
1, 40640, Note_on_c, 0, 83, 75
1, 40653, Note_on_c, 1, 54, 0
1, 40655, Note_on_c, 0, 83, 0
1, 40656, Note_on_c, 0, 81, 75
1, 40656, Note_on_c, 1, 55, 68
1, 40671, Note_on_c, 0, 81, 0
1, 40672, Note_on_c, 0, 79, 75
1, 40687, Note_on_c, 0, 79, 0
1, 40688, Note_on_c, 0, 78, 75
1, 40701, Note_on_c, 1, 55, 0
1, 40703, Note_on_c, 0, 78, 0
1, 40704, Note_on_c, 0, 78, 75
1, 40704, Note_on_c, 1, 57, 68
1, 40719, Note_on_c, 0, 78, 0
1, 40720, Note_on_c, 0, 79, 75
1, 40735, Note_on_c, 0, 79, 0
1, 40736, Note_on_c, 0, 81, 75
1, 40751, Note_on_c, 0, 81, 0
1, 40752, Note_on_c, 0, 76, 75
1, 40752, Note_on_c, 1, 62, 0
1, 40752, Note_on_c, 1, 61, 75
1, 40830, Note_on_c, 0, 76, 0
1, 40830, Note_on_c, 1, 61, 0
1, 40830, Note_on_c, 1, 57, 0
1, 40884, Note_on_c, 0, 81, 75
1, 40884, Note_on_c, 0, 78, 75
1, 40896, Note_on_c, 0, 81, 0
1, 40896, Note_on_c, 0, 78, 0
1, 40896, Note_on_c, 0, 81, 75
1, 40896, Note_on_c, 0, 78, 75
1, 40944, Note_on_c, 1, 50, 75
1, 40944, Note_on_c, 1, 38, 75
1, 40974, Note_on_c, 0, 81, 0
1, 40974, Note_on_c, 0, 78, 0
1, 40980, Note_on_c, 0, 78, 75
1, 40980, Note_on_c, 0, 74, 75
1, 40989, Note_on_c, 1, 50, 0
1, 40989, Note_on_c, 1, 38, 0
1, 40992, Note_on_c, 0, 78, 0
1, 40992, Note_on_c, 0, 74, 0
1, 40992, Note_on_c, 0, 78, 75
1, 40992, Note_on_c, 0, 74, 75
1, 41040, Note_on_c, 1, 50, 75
1, 41040, Note_on_c, 1, 38, 75
1, 41070, Note_on_c, 0, 78, 0
1, 41070, Note_on_c, 0, 74, 0
1, 41076, Note_on_c, 0, 74, 75
1, 41076, Note_on_c, 0, 66, 75
1, 41085, Note_on_c, 1, 50, 0
1, 41085, Note_on_c, 1, 38, 0
1, 41088, Note_on_c, 0, 74, 0
1, 41088, Note_on_c, 0, 66, 0
1, 41088, Note_on_c, 0, 74, 75
1, 41088, Note_on_c, 0, 66, 75
1, 41136, Note_on_c, 1, 50, 75
1, 41136, Note_on_c, 1, 38, 75
1, 41177, Note_on_c, 0, 74, 0
1, 41177, Note_on_c, 0, 66, 0
1, 41181, Note_on_c, 1, 50, 0
1, 41181, Note_on_c, 1, 38, 0
1, 41184, Note_on_c, 1, 50, 75
1, 41184, Note_on_c, 1, 38, 75
1, 41220, Note_on_c, 0, 69, 75
1, 41220, Note_on_c, 0, 66, 75
1, 41229, Note_on_c, 1, 50, 0
1, 41229, Note_on_c, 1, 38, 0
1, 41232, Note_on_c, 0, 69, 0
1, 41232, Note_on_c, 0, 66, 0
1, 41232, Note_on_c, 0, 69, 75
1, 41232, Note_on_c, 0, 66, 75
1, 41232, Note_on_c, 1, 50, 75
1, 41232, Note_on_c, 1, 38, 75
1, 41266, Note_on_c, 0, 69, 0
1, 41266, Note_on_c, 0, 66, 0
1, 41268, Note_on_c, 0, 69, 75
1, 41268, Note_on_c, 0, 66, 75
1, 41277, Note_on_c, 1, 50, 0
1, 41277, Note_on_c, 1, 38, 0
1, 41280, Note_on_c, 0, 69, 0
1, 41280, Note_on_c, 0, 66, 0
1, 41280, Note_on_c, 0, 70, 91
1, 41280, Note_on_c, 0, 66, 91
1, 41328, Note_on_c, 1, 55, 75
1, 41373, Note_on_c, 1, 55, 0
1, 41376, Note_on_c, 0, 70, 0
1, 41376, Note_on_c, 0, 66, 0
1, 41376, Note_on_c, 0, 71, 75
1, 41376, Note_on_c, 0, 67, 75
1, 41376, Note_on_c, 1, 55, 75
1, 41410, Note_on_c, 0, 71, 0
1, 41410, Note_on_c, 0, 67, 0
1, 41412, Note_on_c, 0, 59, 75
1, 41421, Note_on_c, 1, 55, 0
1, 41424, Note_on_c, 0, 59, 0
1, 41424, Note_on_c, 0, 67, 75
1, 41424, Note_on_c, 1, 52, 75
1, 41424, Note_on_c, 1, 59, 68
1, 41458, Note_on_c, 0, 67, 0
1, 41460, Note_on_c, 0, 64, 75
1, 41469, Note_on_c, 1, 52, 0
1, 41469, Note_on_c, 1, 59, 0
1, 41472, Note_on_c, 0, 64, 0
1, 41472, Note_on_c, 0, 62, 75
1, 41472, Note_on_c, 1, 57, 75
1, 41472, Note_on_c, 1, 57, 68
1, 41517, Note_on_c, 0, 62, 0
1, 41517, Note_on_c, 1, 57, 0
1, 41517, Note_on_c, 1, 57, 0
1, 41520, Note_on_c, 0, 61, 71
1, 41520, Note_on_c, 1, 45, 71
1, 41520, Note_on_c, 1, 55, 68
1, 41530, Note_on_c, 0, 61, 0
1, 41530, Note_on_c, 0, 62, 71
1, 41540, Note_on_c, 0, 62, 0
1, 41540, Note_on_c, 0, 61, 70
1, 41550, Note_on_c, 0, 61, 0
1, 41550, Note_on_c, 0, 59, 70
1, 41559, Note_on_c, 0, 59, 0
1, 41559, Note_on_c, 0, 61, 69
1, 41565, Note_on_c, 1, 45, 0
1, 41565, Note_on_c, 1, 55, 0
1, 41568, Note_on_c, 0, 61, 0
1, 41568, Note_on_c, 0, 62, 69
1, 41568, Note_on_c, 1, 50, 68
1, 41568, Note_on_c, 1, 54, 68
1, 41635, Note_on_c, 0, 62, 0
1, 41635, Note_on_c, 1, 50, 0
1, 41635, Note_on_c, 1, 54, 0
1, 41652, Note_on_c, 0, 81, 75
1, 41652, Note_on_c, 0, 78, 75
1, 41664, Note_on_c, 0, 81, 0
1, 41664, Note_on_c, 0, 78, 0
1, 41664, Note_on_c, 0, 81, 75
1, 41664, Note_on_c, 0, 78, 75
1, 41712, Note_on_c, 1, 50, 75
1, 41712, Note_on_c, 1, 38, 75
1, 41742, Note_on_c, 0, 81, 0
1, 41742, Note_on_c, 0, 78, 0
1, 41748, Note_on_c, 0, 78, 75
1, 41748, Note_on_c, 0, 74, 75
1, 41757, Note_on_c, 1, 50, 0
1, 41757, Note_on_c, 1, 38, 0
1, 41760, Note_on_c, 0, 78, 0
1, 41760, Note_on_c, 0, 74, 0
1, 41760, Note_on_c, 0, 78, 75
1, 41760, Note_on_c, 0, 74, 75
1, 41808, Note_on_c, 1, 50, 75
1, 41808, Note_on_c, 1, 38, 75
1, 41838, Note_on_c, 0, 78, 0
1, 41838, Note_on_c, 0, 74, 0
1, 41844, Note_on_c, 0, 74, 75
1, 41844, Note_on_c, 0, 66, 75
1, 41853, Note_on_c, 1, 50, 0
1, 41853, Note_on_c, 1, 38, 0
1, 41856, Note_on_c, 0, 74, 0
1, 41856, Note_on_c, 0, 66, 0
1, 41856, Note_on_c, 0, 74, 75
1, 41856, Note_on_c, 0, 66, 75
1, 41904, Note_on_c, 1, 50, 75
1, 41904, Note_on_c, 1, 38, 75
1, 41945, Note_on_c, 0, 74, 0
1, 41945, Note_on_c, 0, 66, 0
1, 41949, Note_on_c, 1, 50, 0
1, 41949, Note_on_c, 1, 38, 0
1, 41952, Note_on_c, 1, 50, 75
1, 41952, Note_on_c, 1, 38, 75
1, 41968, Note_on_c, 0, 62, 75
1, 41983, Note_on_c, 0, 62, 0
1, 41984, Note_on_c, 0, 64, 75
1, 41997, Note_on_c, 1, 50, 0
1, 41997, Note_on_c, 1, 38, 0
1, 41999, Note_on_c, 0, 64, 0
1, 42000, Note_on_c, 0, 66, 75
1, 42000, Note_on_c, 1, 50, 75
1, 42000, Note_on_c, 1, 38, 75
1, 42015, Note_on_c, 0, 66, 0
1, 42016, Note_on_c, 0, 67, 75
1, 42031, Note_on_c, 0, 67, 0
1, 42032, Note_on_c, 0, 69, 75
1, 42045, Note_on_c, 1, 50, 0
1, 42045, Note_on_c, 1, 38, 0
1, 42047, Note_on_c, 0, 69, 0
1, 42048, Note_on_c, 0, 70, 91
1, 42096, Note_on_c, 1, 62, 63
1, 42096, Note_on_c, 1, 55, 63
1, 42143, Note_on_c, 1, 62, 0
1, 42143, Note_on_c, 1, 55, 0
1, 42144, Note_on_c, 0, 70, 0
1, 42144, Note_on_c, 0, 71, 75
1, 42144, Note_on_c, 1, 62, 63
1, 42144, Note_on_c, 1, 55, 63
1, 42159, Note_on_c, 0, 71, 0
1, 42160, Note_on_c, 0, 79, 75
1, 42175, Note_on_c, 0, 79, 0
1, 42176, Note_on_c, 0, 78, 75
1, 42191, Note_on_c, 0, 78, 0
1, 42191, Note_on_c, 1, 62, 0
1, 42191, Note_on_c, 1, 55, 0
1, 42192, Note_on_c, 0, 79, 75
1, 42192, Note_on_c, 1, 62, 63
1, 42192, Note_on_c, 1, 55, 63
1, 42207, Note_on_c, 0, 79, 0
1, 42208, Note_on_c, 0, 74, 75
1, 42223, Note_on_c, 0, 74, 0
1, 42224, Note_on_c, 0, 71, 75
1, 42239, Note_on_c, 0, 71, 0
1, 42239, Note_on_c, 1, 62, 0
1, 42239, Note_on_c, 1, 55, 0
1, 42240, Note_on_c, 0, 71, 91
1, 42288, Note_on_c, 1, 62, 63
1, 42288, Note_on_c, 1, 55, 63
1, 42335, Note_on_c, 1, 62, 0
1, 42336, Note_on_c, 0, 71, 0
1, 42336, Note_on_c, 0, 69, 75
1, 42336, Note_on_c, 1, 62, 63
1, 42336, Note_on_c, 1, 55, 0
1, 42336, Note_on_c, 1, 54, 63
1, 42351, Note_on_c, 0, 69, 0
1, 42352, Note_on_c, 0, 74, 75
1, 42367, Note_on_c, 0, 74, 0
1, 42368, Note_on_c, 0, 73, 75
1, 42383, Note_on_c, 0, 73, 0
1, 42383, Note_on_c, 1, 62, 0
1, 42383, Note_on_c, 1, 54, 0
1, 42384, Note_on_c, 0, 74, 75
1, 42384, Note_on_c, 1, 62, 63
1, 42384, Note_on_c, 1, 54, 63
1, 42399, Note_on_c, 0, 74, 0
1, 42400, Note_on_c, 0, 69, 75
1, 42415, Note_on_c, 0, 69, 0
1, 42416, Note_on_c, 0, 66, 75
1, 42431, Note_on_c, 0, 66, 0
1, 42431, Note_on_c, 1, 62, 0
1, 42431, Note_on_c, 1, 54, 0
1, 42432, Note_on_c, 0, 67, 75
1, 42432, Note_on_c, 1, 52, 75
1, 42455, Note_on_c, 0, 67, 0
1, 42456, Note_on_c, 0, 76, 75
1, 42477, Note_on_c, 1, 52, 0
1, 42480, Note_on_c, 1, 49, 75
1, 42501, Note_on_c, 0, 76, 0
1, 42504, Note_on_c, 0, 67, 75
1, 42525, Note_on_c, 1, 49, 0
1, 42527, Note_on_c, 0, 67, 0
1, 42528, Note_on_c, 0, 66, 75
1, 42528, Note_on_c, 1, 50, 75
1, 42551, Note_on_c, 0, 66, 0
1, 42552, Note_on_c, 0, 74, 75
1, 42573, Note_on_c, 1, 50, 0
1, 42576, Note_on_c, 1, 38, 75
1, 42597, Note_on_c, 0, 74, 0
1, 42600, Note_on_c, 0, 66, 75
1, 42621, Note_on_c, 1, 38, 0
1, 42623, Note_on_c, 0, 66, 0
1, 42624, Note_on_c, 0, 69, 68
1, 42624, Note_on_c, 1, 52, 75
1, 42630, Note_on_c, 0, 69, 0
1, 42630, Note_on_c, 0, 67, 68
1, 42636, Note_on_c, 0, 67, 0
1, 42636, Note_on_c, 0, 66, 68
1, 42642, Note_on_c, 0, 66, 0
1, 42642, Note_on_c, 0, 67, 68
1, 42648, Note_on_c, 0, 67, 0
1, 42648, Note_on_c, 0, 76, 69
1, 42669, Note_on_c, 1, 52, 0
1, 42672, Note_on_c, 1, 49, 76
1, 42695, Note_on_c, 0, 76, 0
1, 42696, Note_on_c, 0, 67, 72
1, 42717, Note_on_c, 1, 49, 0
1, 42719, Note_on_c, 0, 67, 0
1, 42720, Note_on_c, 0, 66, 74
1, 42720, Note_on_c, 1, 50, 77
1, 42744, Note_on_c, 0, 66, 0
1, 42744, Note_on_c, 0, 74, 75
1, 42754, Note_on_c, 0, 74, 0
1, 42765, Note_on_c, 1, 50, 0
1, 42768, Note_on_c, 0, 74, 77
1, 42768, Note_on_c, 1, 44, 78
1, 42792, Note_on_c, 0, 74, 0
1, 42792, Note_on_c, 0, 66, 78
1, 42792, Note_on_c, 0, 62, 78
1, 42813, Note_on_c, 1, 44, 0
1, 42815, Note_on_c, 0, 66, 0
1, 42815, Note_on_c, 0, 62, 0
1, 42816, Note_on_c, 0, 67, 75
1, 42816, Note_on_c, 0, 62, 75
1, 42816, Note_on_c, 1, 45, 80
1, 42824, Note_on_c, 0, 67, 0
1, 42824, Note_on_c, 0, 66, 74
1, 42832, Note_on_c, 0, 66, 0
1, 42832, Note_on_c, 0, 67, 73
1, 42840, Note_on_c, 0, 67, 0
1, 42840, Note_on_c, 0, 66, 73
1, 42848, Note_on_c, 0, 66, 0
1, 42848, Note_on_c, 0, 64, 72
1, 42856, Note_on_c, 0, 64, 0
1, 42856, Note_on_c, 0, 66, 72
1, 42861, Note_on_c, 0, 62, 0
1, 42864, Note_on_c, 0, 66, 0
1, 42864, Note_on_c, 0, 64, 71
1, 42864, Note_on_c, 0, 61, 70
1, 42905, Note_on_c, 1, 45, 0
1, 42931, Note_on_c, 0, 64, 0
1, 42931, Note_on_c, 0, 61, 0
1, 43008, Note_on_c, 1, 57, 68
1, 43008, Note_on_c, 1, 54, 68
1, 43008, Note_on_c, 1, 50, 68
1, 43032, Note_on_c, 0, 71, 80
1, 43040, Note_on_c, 0, 71, 0
1, 43040, Note_on_c, 0, 69, 80
1, 43048, Note_on_c, 0, 69, 0
1, 43048, Note_on_c, 0, 68, 80
1, 43053, Note_on_c, 1, 57, 0
1, 43053, Note_on_c, 1, 54, 0
1, 43053, Note_on_c, 1, 50, 0
1, 43056, Note_on_c, 0, 68, 0
1, 43056, Note_on_c, 0, 69, 80
1, 43056, Note_on_c, 1, 57, 68
1, 43056, Note_on_c, 1, 54, 68
1, 43056, Note_on_c, 1, 50, 68
1, 43076, Note_on_c, 1, 57, 0
1, 43076, Note_on_c, 1, 54, 0
1, 43076, Note_on_c, 1, 50, 0
1, 43079, Note_on_c, 0, 69, 0
1, 43080, Note_on_c, 0, 69, 80
1, 43103, Note_on_c, 0, 69, 0
1, 43104, Note_on_c, 1, 57, 68
1, 43104, Note_on_c, 1, 54, 68
1, 43104, Note_on_c, 1, 50, 68
1, 43128, Note_on_c, 0, 71, 80
1, 43136, Note_on_c, 0, 71, 0
1, 43136, Note_on_c, 0, 69, 80
1, 43144, Note_on_c, 0, 69, 0
1, 43144, Note_on_c, 0, 68, 80
1, 43149, Note_on_c, 1, 57, 0
1, 43149, Note_on_c, 1, 54, 0
1, 43149, Note_on_c, 1, 50, 0
1, 43152, Note_on_c, 0, 68, 0
1, 43152, Note_on_c, 0, 69, 80
1, 43152, Note_on_c, 1, 57, 68
1, 43152, Note_on_c, 1, 54, 68
1, 43152, Note_on_c, 1, 50, 68
1, 43172, Note_on_c, 1, 57, 0
1, 43172, Note_on_c, 1, 54, 0
1, 43172, Note_on_c, 1, 50, 0
1, 43175, Note_on_c, 0, 69, 0
1, 43176, Note_on_c, 0, 69, 80
1, 43199, Note_on_c, 0, 69, 0
1, 43200, Note_on_c, 0, 69, 80
1, 43200, Note_on_c, 1, 57, 68
1, 43200, Note_on_c, 1, 55, 68
1, 43200, Note_on_c, 1, 49, 68
1, 43215, Note_on_c, 0, 69, 0
1, 43216, Note_on_c, 0, 81, 80
1, 43231, Note_on_c, 0, 81, 0
1, 43232, Note_on_c, 0, 79, 80
1, 43247, Note_on_c, 0, 79, 0
1, 43248, Note_on_c, 0, 78, 80
1, 43263, Note_on_c, 0, 78, 0
1, 43264, Note_on_c, 0, 76, 80
1, 43279, Note_on_c, 0, 76, 0
1, 43280, Note_on_c, 0, 74, 80
1, 43295, Note_on_c, 0, 74, 0
1, 43296, Note_on_c, 0, 73, 80
1, 43311, Note_on_c, 0, 73, 0
1, 43312, Note_on_c, 0, 71, 80
1, 43327, Note_on_c, 0, 71, 0
1, 43328, Note_on_c, 0, 69, 80
1, 43343, Note_on_c, 0, 69, 0
1, 43344, Note_on_c, 0, 67, 80
1, 43359, Note_on_c, 0, 67, 0
1, 43360, Note_on_c, 0, 66, 80
1, 43375, Note_on_c, 0, 66, 0
1, 43376, Note_on_c, 0, 64, 80
1, 43377, Note_on_c, 1, 57, 0
1, 43377, Note_on_c, 1, 55, 0
1, 43377, Note_on_c, 1, 49, 0
1, 43391, Note_on_c, 0, 64, 0
1, 43392, Note_on_c, 1, 57, 68
1, 43392, Note_on_c, 1, 54, 68
1, 43392, Note_on_c, 1, 50, 68
1, 43416, Note_on_c, 0, 71, 80
1, 43424, Note_on_c, 0, 71, 0
1, 43424, Note_on_c, 0, 69, 80
1, 43432, Note_on_c, 0, 69, 0
1, 43432, Note_on_c, 0, 68, 80
1, 43437, Note_on_c, 1, 57, 0
1, 43437, Note_on_c, 1, 54, 0
1, 43437, Note_on_c, 1, 50, 0
1, 43440, Note_on_c, 0, 68, 0
1, 43440, Note_on_c, 0, 69, 80
1, 43440, Note_on_c, 1, 57, 68
1, 43440, Note_on_c, 1, 54, 68
1, 43440, Note_on_c, 1, 50, 68
1, 43460, Note_on_c, 1, 57, 0
1, 43460, Note_on_c, 1, 54, 0
1, 43460, Note_on_c, 1, 50, 0
1, 43463, Note_on_c, 0, 69, 0
1, 43464, Note_on_c, 0, 69, 80
1, 43487, Note_on_c, 0, 69, 0
1, 43488, Note_on_c, 1, 57, 68
1, 43488, Note_on_c, 1, 54, 68
1, 43488, Note_on_c, 1, 50, 68
1, 43512, Note_on_c, 0, 71, 80
1, 43520, Note_on_c, 0, 71, 0
1, 43520, Note_on_c, 0, 69, 80
1, 43528, Note_on_c, 0, 69, 0
1, 43528, Note_on_c, 0, 68, 80
1, 43533, Note_on_c, 1, 57, 0
1, 43533, Note_on_c, 1, 54, 0
1, 43533, Note_on_c, 1, 50, 0
1, 43536, Note_on_c, 0, 68, 0
1, 43536, Note_on_c, 0, 69, 80
1, 43536, Note_on_c, 1, 57, 68
1, 43536, Note_on_c, 1, 54, 68
1, 43536, Note_on_c, 1, 50, 68
1, 43556, Note_on_c, 1, 57, 0
1, 43556, Note_on_c, 1, 54, 0
1, 43556, Note_on_c, 1, 50, 0
1, 43559, Note_on_c, 0, 69, 0
1, 43560, Note_on_c, 0, 69, 80
1, 43583, Note_on_c, 0, 69, 0
1, 43584, Note_on_c, 0, 69, 80
1, 43584, Note_on_c, 1, 57, 68
1, 43584, Note_on_c, 1, 55, 68
1, 43584, Note_on_c, 1, 49, 68
1, 43599, Note_on_c, 0, 69, 0
1, 43600, Note_on_c, 0, 81, 80
1, 43615, Note_on_c, 0, 81, 0
1, 43616, Note_on_c, 0, 79, 80
1, 43631, Note_on_c, 0, 79, 0
1, 43632, Note_on_c, 0, 78, 80
1, 43647, Note_on_c, 0, 78, 0
1, 43648, Note_on_c, 0, 76, 80
1, 43663, Note_on_c, 0, 76, 0
1, 43664, Note_on_c, 0, 74, 80
1, 43679, Note_on_c, 0, 74, 0
1, 43680, Note_on_c, 0, 73, 80
1, 43695, Note_on_c, 0, 73, 0
1, 43696, Note_on_c, 0, 71, 80
1, 43711, Note_on_c, 0, 71, 0
1, 43712, Note_on_c, 0, 69, 80
1, 43727, Note_on_c, 0, 69, 0
1, 43728, Note_on_c, 0, 67, 80
1, 43743, Note_on_c, 0, 67, 0
1, 43744, Note_on_c, 0, 66, 80
1, 43759, Note_on_c, 0, 66, 0
1, 43760, Note_on_c, 0, 64, 80
1, 43761, Note_on_c, 1, 57, 0
1, 43761, Note_on_c, 1, 55, 0
1, 43761, Note_on_c, 1, 49, 0
1, 43775, Note_on_c, 0, 64, 0
1, 43776, Note_on_c, 0, 62, 80
1, 43776, Note_on_c, 1, 57, 63
1, 43776, Note_on_c, 1, 54, 63
1, 43776, Note_on_c, 1, 50, 63
1, 43791, Note_on_c, 0, 62, 0
1, 43792, Note_on_c, 0, 69, 78
1, 43807, Note_on_c, 0, 69, 0
1, 43808, Note_on_c, 0, 67, 77
1, 43823, Note_on_c, 0, 67, 0
1, 43824, Note_on_c, 0, 66, 76
1, 43839, Note_on_c, 0, 66, 0
1, 43840, Note_on_c, 0, 64, 75
1, 43855, Note_on_c, 0, 64, 0
1, 43856, Note_on_c, 0, 62, 74
1, 43865, Note_on_c, 1, 57, 0
1, 43865, Note_on_c, 1, 54, 0
1, 43865, Note_on_c, 1, 50, 0
1, 43871, Note_on_c, 0, 62, 0
1, 43872, Note_on_c, 0, 61, 73
1, 43887, Note_on_c, 0, 61, 0
1, 43888, Note_on_c, 0, 59, 72
1, 43903, Note_on_c, 0, 59, 0
1, 43904, Note_on_c, 0, 57, 71
1, 43919, Note_on_c, 0, 57, 0
1, 43920, Note_on_c, 0, 55, 70
1, 43935, Note_on_c, 0, 55, 0
1, 43936, Note_on_c, 0, 54, 69
1, 43951, Note_on_c, 0, 54, 0
1, 43952, Note_on_c, 0, 52, 68
1, 43967, Note_on_c, 0, 52, 0
1, 43968, Note_on_c, 1, 42, 75
1, 43968, Note_on_c, 1, 30, 75
1, 43968, Note_on_c, 1, 42, 75
1, 43968, Note_on_c, 1, 30, 75
1, 43984, Note_on_c, 0, 57, 63
1, 43999, Note_on_c, 0, 57, 0
1, 44000, Note_on_c, 0, 55, 63
1, 44015, Note_on_c, 0, 55, 0
1, 44016, Note_on_c, 0, 54, 64
1, 44031, Note_on_c, 0, 54, 0
1, 44032, Note_on_c, 0, 52, 64
1, 44047, Note_on_c, 0, 52, 0
1, 44048, Note_on_c, 0, 50, 64
1, 44057, Note_on_c, 1, 42, 0
1, 44057, Note_on_c, 1, 30, 0
1, 44057, Note_on_c, 1, 42, 0
1, 44057, Note_on_c, 1, 30, 0
1, 44063, Note_on_c, 0, 50, 0
1, 44064, Note_on_c, 1, 43, 75
1, 44064, Note_on_c, 1, 31, 75
1, 44064, Note_on_c, 1, 43, 75
1, 44064, Note_on_c, 1, 31, 75
1, 44080, Note_on_c, 0, 59, 65
1, 44095, Note_on_c, 0, 59, 0
1, 44096, Note_on_c, 0, 57, 65
1, 44111, Note_on_c, 0, 57, 0
1, 44112, Note_on_c, 0, 55, 66
1, 44127, Note_on_c, 0, 55, 0
1, 44128, Note_on_c, 0, 54, 66
1, 44143, Note_on_c, 0, 54, 0
1, 44144, Note_on_c, 0, 52, 66
1, 44153, Note_on_c, 1, 43, 0
1, 44153, Note_on_c, 1, 31, 0
1, 44153, Note_on_c, 1, 43, 0
1, 44153, Note_on_c, 1, 31, 0
1, 44159, Note_on_c, 0, 52, 0
1, 44160, Note_on_c, 1, 45, 76
1, 44160, Note_on_c, 1, 33, 76
1, 44160, Note_on_c, 1, 45, 75
1, 44160, Note_on_c, 1, 33, 75
1, 44176, Note_on_c, 0, 61, 67
1, 44191, Note_on_c, 0, 61, 0
1, 44192, Note_on_c, 0, 59, 67
1, 44207, Note_on_c, 0, 59, 0
1, 44208, Note_on_c, 0, 57, 68
1, 44223, Note_on_c, 0, 57, 0
1, 44224, Note_on_c, 0, 55, 68
1, 44239, Note_on_c, 0, 55, 0
1, 44240, Note_on_c, 0, 54, 69
1, 44249, Note_on_c, 1, 45, 0
1, 44249, Note_on_c, 1, 33, 0
1, 44249, Note_on_c, 1, 45, 0
1, 44249, Note_on_c, 1, 33, 0
1, 44255, Note_on_c, 0, 54, 0
1, 44256, Note_on_c, 1, 47, 77
1, 44256, Note_on_c, 1, 35, 77
1, 44272, Note_on_c, 0, 62, 69
1, 44287, Note_on_c, 0, 62, 0
1, 44288, Note_on_c, 0, 61, 70
1, 44303, Note_on_c, 0, 61, 0
1, 44304, Note_on_c, 0, 59, 70
1, 44319, Note_on_c, 0, 59, 0
1, 44320, Note_on_c, 0, 57, 70
1, 44335, Note_on_c, 0, 57, 0
1, 44336, Note_on_c, 0, 55, 71
1, 44345, Note_on_c, 1, 47, 0
1, 44345, Note_on_c, 1, 35, 0
1, 44351, Note_on_c, 0, 55, 0
1, 44352, Note_on_c, 1, 49, 78
1, 44352, Note_on_c, 1, 37, 78
1, 44368, Note_on_c, 0, 64, 71
1, 44383, Note_on_c, 0, 64, 0
1, 44384, Note_on_c, 0, 62, 72
1, 44399, Note_on_c, 0, 62, 0
1, 44400, Note_on_c, 0, 61, 72
1, 44415, Note_on_c, 0, 61, 0
1, 44416, Note_on_c, 0, 59, 72
1, 44431, Note_on_c, 0, 59, 0
1, 44432, Note_on_c, 0, 57, 73
1, 44441, Note_on_c, 1, 49, 0
1, 44441, Note_on_c, 1, 37, 0
1, 44447, Note_on_c, 0, 57, 0
1, 44448, Note_on_c, 1, 50, 79
1, 44448, Note_on_c, 1, 38, 79
1, 44464, Note_on_c, 0, 62, 73
1, 44479, Note_on_c, 0, 62, 0
1, 44480, Note_on_c, 0, 64, 74
1, 44495, Note_on_c, 0, 64, 0
1, 44496, Note_on_c, 0, 66, 74
1, 44511, Note_on_c, 0, 66, 0
1, 44512, Note_on_c, 0, 67, 75
1, 44527, Note_on_c, 0, 67, 0
1, 44528, Note_on_c, 0, 69, 75
1, 44537, Note_on_c, 1, 50, 0
1, 44537, Note_on_c, 1, 38, 0
1, 44543, Note_on_c, 0, 69, 0
1, 44544, Note_on_c, 1, 49, 80
1, 44544, Note_on_c, 1, 37, 80
1, 44560, Note_on_c, 0, 64, 80
1, 44575, Note_on_c, 0, 64, 0
1, 44576, Note_on_c, 0, 62, 80
1, 44591, Note_on_c, 0, 62, 0
1, 44592, Note_on_c, 0, 61, 80
1, 44607, Note_on_c, 0, 61, 0
1, 44608, Note_on_c, 0, 59, 80
1, 44623, Note_on_c, 0, 59, 0
1, 44624, Note_on_c, 0, 57, 80
1, 44633, Note_on_c, 1, 49, 0
1, 44633, Note_on_c, 1, 37, 0
1, 44639, Note_on_c, 0, 57, 0
1, 44640, Note_on_c, 1, 50, 80
1, 44640, Note_on_c, 1, 38, 80
1, 44656, Note_on_c, 0, 62, 80
1, 44671, Note_on_c, 0, 62, 0
1, 44672, Note_on_c, 0, 64, 78
1, 44687, Note_on_c, 0, 64, 0
1, 44688, Note_on_c, 0, 66, 76
1, 44703, Note_on_c, 0, 66, 0
1, 44704, Note_on_c, 0, 67, 74
1, 44719, Note_on_c, 0, 67, 0
1, 44720, Note_on_c, 0, 69, 73
1, 44729, Note_on_c, 1, 50, 0
1, 44729, Note_on_c, 1, 38, 0
1, 44735, Note_on_c, 0, 69, 0
1, 44736, Note_on_c, 0, 70, 84
1, 44784, Note_on_c, 1, 62, 56
1, 44784, Note_on_c, 1, 55, 56
1, 44831, Note_on_c, 1, 62, 0
1, 44831, Note_on_c, 1, 55, 0
1, 44832, Note_on_c, 0, 70, 0
1, 44832, Note_on_c, 0, 71, 68
1, 44832, Note_on_c, 1, 62, 56
1, 44832, Note_on_c, 1, 55, 56
1, 44847, Note_on_c, 0, 71, 0
1, 44848, Note_on_c, 0, 73, 68
1, 44863, Note_on_c, 0, 73, 0
1, 44864, Note_on_c, 0, 74, 68
1, 44879, Note_on_c, 0, 74, 0
1, 44879, Note_on_c, 1, 62, 0
1, 44879, Note_on_c, 1, 55, 0
1, 44880, Note_on_c, 0, 76, 68
1, 44880, Note_on_c, 1, 62, 56
1, 44880, Note_on_c, 1, 55, 56
1, 44895, Note_on_c, 0, 76, 0
1, 44896, Note_on_c, 0, 78, 68
1, 44911, Note_on_c, 0, 78, 0
1, 44912, Note_on_c, 0, 79, 68
1, 44927, Note_on_c, 0, 79, 0
1, 44927, Note_on_c, 1, 62, 0
1, 44927, Note_on_c, 1, 55, 0
1, 44928, Note_on_c, 0, 79, 68
1, 44976, Note_on_c, 1, 61, 57
1, 44976, Note_on_c, 1, 52, 57
1, 44995, Note_on_c, 0, 79, 0
1, 45000, Note_on_c, 0, 81, 69
1, 45023, Note_on_c, 0, 81, 0
1, 45023, Note_on_c, 1, 61, 0
1, 45023, Note_on_c, 1, 52, 0
1, 45024, Note_on_c, 0, 79, 69
1, 45024, Note_on_c, 1, 61, 58
1, 45024, Note_on_c, 1, 52, 58
1, 45039, Note_on_c, 0, 79, 0
1, 45040, Note_on_c, 0, 78, 69
1, 45055, Note_on_c, 0, 78, 0
1, 45056, Note_on_c, 0, 76, 69
1, 45071, Note_on_c, 0, 76, 0
1, 45071, Note_on_c, 1, 61, 0
1, 45071, Note_on_c, 1, 52, 0
1, 45072, Note_on_c, 0, 74, 69
1, 45072, Note_on_c, 1, 61, 58
1, 45072, Note_on_c, 1, 52, 58
1, 45087, Note_on_c, 0, 74, 0
1, 45088, Note_on_c, 0, 73, 70
1, 45103, Note_on_c, 0, 73, 0
1, 45104, Note_on_c, 0, 71, 70
1, 45119, Note_on_c, 0, 71, 0
1, 45119, Note_on_c, 1, 61, 0
1, 45119, Note_on_c, 1, 52, 0
1, 45120, Note_on_c, 0, 71, 86
1, 45168, Note_on_c, 1, 61, 59
1, 45168, Note_on_c, 1, 54, 59
1, 45192, Note_on_c, 0, 71, 0
1, 45192, Note_on_c, 0, 68, 71
1, 45215, Note_on_c, 0, 68, 0
1, 45215, Note_on_c, 1, 61, 0
1, 45215, Note_on_c, 1, 54, 0
1, 45216, Note_on_c, 0, 69, 71
1, 45216, Note_on_c, 1, 61, 60
1, 45216, Note_on_c, 1, 54, 60
1, 45231, Note_on_c, 0, 69, 0
1, 45232, Note_on_c, 0, 71, 71
1, 45247, Note_on_c, 0, 71, 0
1, 45248, Note_on_c, 0, 73, 71
1, 45263, Note_on_c, 0, 73, 0
1, 45263, Note_on_c, 1, 61, 0
1, 45263, Note_on_c, 1, 54, 0
1, 45264, Note_on_c, 0, 74, 71
1, 45264, Note_on_c, 1, 61, 60
1, 45264, Note_on_c, 1, 54, 60
1, 45279, Note_on_c, 0, 74, 0
1, 45280, Note_on_c, 0, 76, 71
1, 45295, Note_on_c, 0, 76, 0
1, 45296, Note_on_c, 0, 78, 71
1, 45311, Note_on_c, 0, 78, 0
1, 45311, Note_on_c, 1, 61, 0
1, 45311, Note_on_c, 1, 54, 0
1, 45312, Note_on_c, 0, 78, 71
1, 45360, Note_on_c, 1, 59, 61
1, 45360, Note_on_c, 1, 50, 61
1, 45379, Note_on_c, 0, 78, 0
1, 45384, Note_on_c, 0, 79, 72
1, 45407, Note_on_c, 0, 79, 0
1, 45407, Note_on_c, 1, 59, 0
1, 45407, Note_on_c, 1, 50, 0
1, 45408, Note_on_c, 0, 78, 72
1, 45408, Note_on_c, 1, 59, 61
1, 45408, Note_on_c, 1, 50, 61
1, 45423, Note_on_c, 0, 78, 0
1, 45424, Note_on_c, 0, 76, 72
1, 45439, Note_on_c, 0, 76, 0
1, 45440, Note_on_c, 0, 74, 73
1, 45455, Note_on_c, 0, 74, 0
1, 45455, Note_on_c, 1, 59, 0
1, 45455, Note_on_c, 1, 50, 0
1, 45456, Note_on_c, 0, 73, 73
1, 45456, Note_on_c, 1, 59, 62
1, 45456, Note_on_c, 1, 50, 62
1, 45471, Note_on_c, 0, 73, 0
1, 45472, Note_on_c, 0, 71, 73
1, 45487, Note_on_c, 0, 71, 0
1, 45488, Note_on_c, 0, 69, 73
1, 45503, Note_on_c, 0, 69, 0
1, 45503, Note_on_c, 1, 59, 0
1, 45503, Note_on_c, 1, 50, 0
1, 45504, Note_on_c, 0, 69, 89
1, 45552, Note_on_c, 1, 59, 63
1, 45552, Note_on_c, 1, 52, 63
1, 45576, Note_on_c, 0, 69, 0
1, 45576, Note_on_c, 0, 66, 74
1, 45599, Note_on_c, 0, 66, 0
1, 45599, Note_on_c, 1, 59, 0
1, 45599, Note_on_c, 1, 52, 0
1, 45600, Note_on_c, 0, 67, 74
1, 45600, Note_on_c, 1, 59, 63
1, 45600, Note_on_c, 1, 52, 63
1, 45615, Note_on_c, 0, 67, 0
1, 45616, Note_on_c, 0, 69, 74
1, 45631, Note_on_c, 0, 69, 0
1, 45632, Note_on_c, 0, 71, 74
1, 45647, Note_on_c, 0, 71, 0
1, 45647, Note_on_c, 1, 59, 0
1, 45647, Note_on_c, 1, 52, 0
1, 45648, Note_on_c, 0, 73, 74
1, 45648, Note_on_c, 1, 59, 64
1, 45648, Note_on_c, 1, 52, 64
1, 45663, Note_on_c, 0, 73, 0
1, 45664, Note_on_c, 0, 74, 74
1, 45679, Note_on_c, 0, 74, 0
1, 45680, Note_on_c, 0, 76, 75
1, 45695, Note_on_c, 0, 76, 0
1, 45695, Note_on_c, 1, 59, 0
1, 45695, Note_on_c, 1, 52, 0
1, 45696, Note_on_c, 0, 76, 75
1, 45744, Note_on_c, 1, 57, 64
1, 45744, Note_on_c, 1, 49, 64
1, 45763, Note_on_c, 0, 76, 0
1, 45768, Note_on_c, 0, 78, 75
1, 45791, Note_on_c, 0, 78, 0
1, 45791, Note_on_c, 1, 57, 0
1, 45791, Note_on_c, 1, 49, 0
1, 45792, Note_on_c, 0, 76, 76
1, 45792, Note_on_c, 1, 57, 65
1, 45792, Note_on_c, 1, 49, 65
1, 45807, Note_on_c, 0, 76, 0
1, 45808, Note_on_c, 0, 74, 76
1, 45823, Note_on_c, 0, 74, 0
1, 45824, Note_on_c, 0, 73, 76
1, 45839, Note_on_c, 0, 73, 0
1, 45839, Note_on_c, 1, 57, 0
1, 45839, Note_on_c, 1, 49, 0
1, 45840, Note_on_c, 0, 71, 76
1, 45840, Note_on_c, 1, 57, 65
1, 45840, Note_on_c, 1, 49, 65
1, 45855, Note_on_c, 0, 71, 0
1, 45856, Note_on_c, 0, 69, 76
1, 45871, Note_on_c, 0, 69, 0
1, 45872, Note_on_c, 0, 67, 76
1, 45887, Note_on_c, 0, 67, 0
1, 45887, Note_on_c, 1, 57, 0
1, 45887, Note_on_c, 1, 49, 0
1, 45888, Note_on_c, 0, 67, 92
1, 45936, Note_on_c, 1, 57, 66
1, 45936, Note_on_c, 1, 50, 66
1, 45960, Note_on_c, 0, 67, 0
1, 45960, Note_on_c, 0, 64, 77
1, 45983, Note_on_c, 0, 64, 0
1, 45983, Note_on_c, 1, 57, 0
1, 45983, Note_on_c, 1, 50, 0
1, 45984, Note_on_c, 0, 66, 77
1, 45984, Note_on_c, 1, 57, 67
1, 45984, Note_on_c, 1, 50, 67
1, 45999, Note_on_c, 0, 66, 0
1, 46000, Note_on_c, 0, 67, 77
1, 46015, Note_on_c, 0, 67, 0
1, 46016, Note_on_c, 0, 69, 77
1, 46031, Note_on_c, 0, 69, 0
1, 46031, Note_on_c, 1, 57, 0
1, 46031, Note_on_c, 1, 50, 0
1, 46032, Note_on_c, 0, 71, 78
1, 46032, Note_on_c, 1, 57, 67
1, 46032, Note_on_c, 1, 50, 67
1, 46047, Note_on_c, 0, 71, 0
1, 46048, Note_on_c, 0, 73, 78
1, 46063, Note_on_c, 0, 73, 0
1, 46064, Note_on_c, 0, 74, 78
1, 46079, Note_on_c, 0, 74, 0
1, 46079, Note_on_c, 1, 57, 0
1, 46079, Note_on_c, 1, 50, 0
1, 46080, Note_on_c, 0, 74, 80
1, 46128, Note_on_c, 1, 50, 68
1, 46128, Note_on_c, 1, 42, 68
1, 46143, Note_on_c, 0, 74, 0
1, 46144, Note_on_c, 0, 78, 81
1, 46159, Note_on_c, 0, 78, 0
1, 46160, Note_on_c, 0, 76, 82
1, 46173, Note_on_c, 1, 50, 0
1, 46173, Note_on_c, 1, 42, 0
1, 46175, Note_on_c, 0, 76, 0
1, 46176, Note_on_c, 0, 74, 82
1, 46176, Note_on_c, 1, 50, 68
1, 46176, Note_on_c, 1, 42, 68
1, 46191, Note_on_c, 0, 74, 0
1, 46192, Note_on_c, 0, 73, 83
1, 46207, Note_on_c, 0, 73, 0
1, 46208, Note_on_c, 0, 71, 83
1, 46221, Note_on_c, 1, 50, 0
1, 46221, Note_on_c, 1, 42, 0
1, 46223, Note_on_c, 0, 71, 0
1, 46224, Note_on_c, 0, 69, 83
1, 46224, Note_on_c, 1, 50, 68
1, 46224, Note_on_c, 1, 43, 68
1, 46239, Note_on_c, 0, 69, 0
1, 46240, Note_on_c, 0, 67, 84
1, 46255, Note_on_c, 0, 67, 0
1, 46256, Note_on_c, 0, 66, 84
1, 46269, Note_on_c, 1, 50, 0
1, 46269, Note_on_c, 1, 43, 0
1, 46271, Note_on_c, 0, 66, 0
1, 46272, Note_on_c, 0, 67, 86
1, 46272, Note_on_c, 1, 50, 86
1, 46272, Note_on_c, 1, 45, 75
1, 46280, Note_on_c, 0, 67, 0
1, 46280, Note_on_c, 0, 66, 85
1, 46288, Note_on_c, 0, 66, 0
1, 46288, Note_on_c, 0, 67, 84
1, 46296, Note_on_c, 0, 67, 0
1, 46296, Note_on_c, 0, 66, 84
1, 46304, Note_on_c, 0, 66, 0
1, 46304, Note_on_c, 0, 67, 83
1, 46312, Note_on_c, 0, 67, 0
1, 46312, Note_on_c, 0, 66, 83
1, 46317, Note_on_c, 1, 50, 0
1, 46320, Note_on_c, 0, 66, 0
1, 46320, Note_on_c, 0, 64, 82
1, 46320, Note_on_c, 1, 49, 83
1, 46335, Note_on_c, 0, 64, 0
1, 46336, Note_on_c, 0, 78, 80
1, 46351, Note_on_c, 0, 78, 0
1, 46352, Note_on_c, 0, 76, 80
1, 46361, Note_on_c, 1, 45, 0
1, 46365, Note_on_c, 1, 49, 0
1, 46367, Note_on_c, 0, 76, 0
1, 46368, Note_on_c, 0, 74, 81
1, 46368, Note_on_c, 1, 50, 80
1, 46368, Note_on_c, 1, 42, 80
1, 46383, Note_on_c, 0, 74, 0
1, 46384, Note_on_c, 0, 73, 81
1, 46399, Note_on_c, 0, 73, 0
1, 46400, Note_on_c, 0, 71, 82
1, 46413, Note_on_c, 1, 50, 0
1, 46413, Note_on_c, 1, 42, 0
1, 46415, Note_on_c, 0, 71, 0
1, 46416, Note_on_c, 0, 69, 82
1, 46416, Note_on_c, 1, 50, 83
1, 46416, Note_on_c, 1, 43, 83
1, 46431, Note_on_c, 0, 69, 0
1, 46432, Note_on_c, 0, 67, 83
1, 46447, Note_on_c, 0, 67, 0
1, 46448, Note_on_c, 0, 66, 83
1, 46461, Note_on_c, 1, 50, 0
1, 46461, Note_on_c, 1, 43, 0
1, 46463, Note_on_c, 0, 66, 0
1, 46464, Note_on_c, 0, 67, 86
1, 46464, Note_on_c, 1, 50, 86
1, 46464, Note_on_c, 1, 45, 75
1, 46472, Note_on_c, 0, 67, 0
1, 46472, Note_on_c, 0, 66, 85
1, 46480, Note_on_c, 0, 66, 0
1, 46480, Note_on_c, 0, 67, 84
1, 46488, Note_on_c, 0, 67, 0
1, 46488, Note_on_c, 0, 66, 84
1, 46496, Note_on_c, 0, 66, 0
1, 46496, Note_on_c, 0, 67, 83
1, 46504, Note_on_c, 0, 67, 0
1, 46504, Note_on_c, 0, 66, 83
1, 46509, Note_on_c, 1, 50, 0
1, 46512, Note_on_c, 0, 66, 0
1, 46512, Note_on_c, 0, 64, 82
1, 46512, Note_on_c, 1, 49, 83
1, 46527, Note_on_c, 0, 64, 0
1, 46528, Note_on_c, 0, 78, 80
1, 46543, Note_on_c, 0, 78, 0
1, 46544, Note_on_c, 0, 76, 80
1, 46553, Note_on_c, 1, 45, 0
1, 46557, Note_on_c, 1, 49, 0
1, 46559, Note_on_c, 0, 76, 0
1, 46560, Note_on_c, 0, 74, 81
1, 46560, Note_on_c, 1, 50, 80
1, 46560, Note_on_c, 1, 42, 80
1, 46575, Note_on_c, 0, 74, 0
1, 46576, Note_on_c, 0, 73, 81
1, 46591, Note_on_c, 0, 73, 0
1, 46592, Note_on_c, 0, 71, 82
1, 46605, Note_on_c, 1, 50, 0
1, 46605, Note_on_c, 1, 42, 0
1, 46607, Note_on_c, 0, 71, 0
1, 46608, Note_on_c, 0, 69, 82
1, 46608, Note_on_c, 1, 50, 83
1, 46608, Note_on_c, 1, 43, 83
1, 46623, Note_on_c, 0, 69, 0
1, 46624, Note_on_c, 0, 67, 83
1, 46639, Note_on_c, 0, 67, 0
1, 46640, Note_on_c, 0, 66, 83
1, 46653, Note_on_c, 1, 50, 0
1, 46653, Note_on_c, 1, 43, 0
1, 46655, Note_on_c, 0, 66, 0
1, 46656, Note_on_c, 0, 66, 86
1, 46656, Note_on_c, 1, 50, 86
1, 46656, Note_on_c, 1, 45, 75
1, 46665, Note_on_c, 0, 66, 0
1, 46665, Note_on_c, 0, 67, 85
1, 46674, Note_on_c, 0, 67, 0
1, 46674, Note_on_c, 0, 66, 84
1, 46683, Note_on_c, 0, 66, 0
1, 46683, Note_on_c, 0, 67, 84
1, 46692, Note_on_c, 0, 67, 0
1, 46692, Note_on_c, 0, 66, 83
1, 46701, Note_on_c, 0, 66, 0
1, 46701, Note_on_c, 0, 67, 83
1, 46710, Note_on_c, 0, 67, 0
1, 46710, Note_on_c, 0, 66, 82
1, 46719, Note_on_c, 0, 66, 0
1, 46719, Note_on_c, 0, 64, 82
1, 46736, Note_on_c, 0, 64, 0
1, 46736, Note_on_c, 0, 66, 80
1, 46752, Note_on_c, 0, 66, 0
1, 46752, Note_on_c, 0, 64, 79
1, 46752, Note_on_c, 1, 50, 0
1, 46752, Note_on_c, 1, 49, 63
1, 46833, Note_on_c, 1, 45, 0
1, 46841, Note_on_c, 0, 64, 0
1, 46841, Note_on_c, 1, 49, 0
1, 46944, Note_on_c, 1, 54, 63
1, 46944, Note_on_c, 1, 42, 63
1, 46944, Note_on_c, 1, 54, 75
1, 46944, Note_on_c, 1, 42, 75
1, 46980, Note_on_c, 0, 57, 64
1, 46992, Note_on_c, 0, 57, 0
1, 46992, Note_on_c, 0, 62, 64
1, 47026, Note_on_c, 0, 62, 0
1, 47028, Note_on_c, 0, 66, 65
1, 47033, Note_on_c, 1, 54, 0
1, 47033, Note_on_c, 1, 42, 0
1, 47033, Note_on_c, 1, 54, 0
1, 47033, Note_on_c, 1, 42, 0
1, 47040, Note_on_c, 0, 66, 0
1, 47040, Note_on_c, 0, 66, 66
1, 47040, Note_on_c, 1, 55, 66
1, 47040, Note_on_c, 1, 43, 66
1, 47040, Note_on_c, 1, 55, 75
1, 47040, Note_on_c, 1, 43, 75
1, 47074, Note_on_c, 0, 66, 0
1, 47076, Note_on_c, 0, 59, 67
1, 47088, Note_on_c, 0, 59, 0
1, 47088, Note_on_c, 0, 64, 68
1, 47122, Note_on_c, 0, 64, 0
1, 47124, Note_on_c, 0, 67, 69
1, 47129, Note_on_c, 1, 55, 0
1, 47129, Note_on_c, 1, 43, 0
1, 47129, Note_on_c, 1, 55, 0
1, 47129, Note_on_c, 1, 43, 0
1, 47136, Note_on_c, 0, 67, 0
1, 47136, Note_on_c, 0, 67, 69
1, 47136, Note_on_c, 1, 57, 69
1, 47136, Note_on_c, 1, 45, 69
1, 47136, Note_on_c, 1, 57, 75
1, 47136, Note_on_c, 1, 45, 75
1, 47170, Note_on_c, 0, 67, 0
1, 47172, Note_on_c, 0, 61, 71
1, 47184, Note_on_c, 0, 61, 0
1, 47184, Note_on_c, 0, 66, 71
1, 47218, Note_on_c, 0, 66, 0
1, 47220, Note_on_c, 0, 69, 72
1, 47225, Note_on_c, 1, 57, 0
1, 47225, Note_on_c, 1, 45, 0
1, 47225, Note_on_c, 1, 57, 0
1, 47225, Note_on_c, 1, 45, 0
1, 47232, Note_on_c, 0, 69, 0
1, 47232, Note_on_c, 0, 69, 73
1, 47232, Note_on_c, 1, 59, 73
1, 47232, Note_on_c, 1, 47, 73
1, 47266, Note_on_c, 0, 69, 0
1, 47268, Note_on_c, 0, 62, 74
1, 47280, Note_on_c, 0, 62, 0
1, 47280, Note_on_c, 0, 67, 74
1, 47314, Note_on_c, 0, 67, 0
1, 47316, Note_on_c, 0, 71, 76
1, 47321, Note_on_c, 1, 59, 0
1, 47321, Note_on_c, 1, 47, 0
1, 47328, Note_on_c, 0, 71, 0
1, 47328, Note_on_c, 0, 71, 76
1, 47328, Note_on_c, 1, 61, 76
1, 47328, Note_on_c, 1, 49, 76
1, 47351, Note_on_c, 0, 71, 0
1, 47352, Note_on_c, 0, 69, 77
1, 47364, Note_on_c, 0, 69, 0
1, 47364, Note_on_c, 0, 67, 77
1, 47376, Note_on_c, 0, 67, 0
1, 47376, Note_on_c, 0, 66, 78
1, 47399, Note_on_c, 0, 66, 0
1, 47400, Note_on_c, 0, 67, 79
1, 47417, Note_on_c, 1, 61, 0
1, 47417, Note_on_c, 1, 49, 0
1, 47423, Note_on_c, 0, 67, 0
1, 47424, Note_on_c, 0, 66, 80
1, 47424, Note_on_c, 1, 62, 80
1, 47424, Note_on_c, 1, 50, 80
1, 47458, Note_on_c, 0, 66, 0
1, 47460, Note_on_c, 0, 74, 80
1, 47460, Note_on_c, 0, 66, 80
1, 47469, Note_on_c, 1, 62, 0
1, 47469, Note_on_c, 1, 50, 0
1, 47472, Note_on_c, 0, 74, 0
1, 47472, Note_on_c, 0, 66, 0
1, 47472, Note_on_c, 0, 74, 80
1, 47472, Note_on_c, 0, 66, 80
1, 47506, Note_on_c, 0, 74, 0
1, 47506, Note_on_c, 0, 66, 0
1, 47508, Note_on_c, 0, 74, 80
1, 47508, Note_on_c, 0, 66, 80
1, 47520, Note_on_c, 0, 74, 0
1, 47520, Note_on_c, 0, 66, 0
1, 47520, Note_on_c, 0, 74, 80
1, 47520, Note_on_c, 0, 66, 80
1, 47554, Note_on_c, 0, 74, 0
1, 47554, Note_on_c, 0, 66, 0
1, 47556, Note_on_c, 0, 78, 80
1, 47556, Note_on_c, 0, 74, 80
1, 47568, Note_on_c, 0, 78, 0
1, 47568, Note_on_c, 0, 74, 0
1, 47568, Note_on_c, 0, 78, 80
1, 47568, Note_on_c, 0, 74, 80
1, 47602, Note_on_c, 0, 78, 0
1, 47602, Note_on_c, 0, 74, 0
1, 47604, Note_on_c, 0, 78, 80
1, 47604, Note_on_c, 0, 74, 80
1, 47616, Note_on_c, 0, 78, 0
1, 47616, Note_on_c, 0, 74, 0
1, 47616, Note_on_c, 0, 78, 80
1, 47616, Note_on_c, 0, 74, 80
1, 47616, Note_on_c, 1, 50, 80
1, 47616, Note_on_c, 1, 38, 80
1, 47650, Note_on_c, 0, 78, 0
1, 47650, Note_on_c, 0, 74, 0
1, 47652, Note_on_c, 0, 86, 80
1, 47652, Note_on_c, 0, 78, 80
1, 47661, Note_on_c, 1, 50, 0
1, 47661, Note_on_c, 1, 38, 0
1, 47664, Note_on_c, 0, 86, 0
1, 47664, Note_on_c, 0, 78, 0
1, 47664, Note_on_c, 0, 86, 80
1, 47664, Note_on_c, 0, 78, 80
1, 47698, Note_on_c, 0, 86, 0
1, 47698, Note_on_c, 0, 78, 0
1, 47700, Note_on_c, 0, 86, 80
1, 47700, Note_on_c, 0, 78, 80
1, 47712, Note_on_c, 0, 86, 0
1, 47712, Note_on_c, 0, 78, 0
1, 47712, Note_on_c, 0, 86, 80
1, 47712, Note_on_c, 0, 78, 80
1, 47748, Note_on_c, 1, 50, 80
1, 47748, Note_on_c, 1, 38, 80
1, 47757, Note_on_c, 0, 86, 0
1, 47757, Note_on_c, 0, 78, 0
1, 47760, Note_on_c, 1, 50, 0
1, 47760, Note_on_c, 1, 38, 0
1, 47760, Note_on_c, 1, 50, 80
1, 47760, Note_on_c, 1, 38, 80
1, 47794, Note_on_c, 1, 50, 0
1, 47794, Note_on_c, 1, 38, 0
1, 47796, Note_on_c, 1, 50, 80
1, 47796, Note_on_c, 1, 38, 80
1, 47808, Note_on_c, 1, 50, 0
1, 47808, Note_on_c, 1, 38, 0
1, 47808, Note_on_c, 1, 43, 80
1, 47808, Note_on_c, 1, 31, 80
1, 47844, Note_on_c, 0, 83, 80
1, 47844, Note_on_c, 0, 79, 80
1, 47856, Note_on_c, 0, 83, 0
1, 47856, Note_on_c, 0, 79, 0
1, 47856, Note_on_c, 0, 81, 80
1, 47856, Note_on_c, 0, 78, 80
1, 47890, Note_on_c, 0, 81, 0
1, 47890, Note_on_c, 0, 78, 0
1, 47892, Note_on_c, 0, 79, 80
1, 47892, Note_on_c, 0, 76, 80
1, 47897, Note_on_c, 1, 43, 0
1, 47897, Note_on_c, 1, 31, 0
1, 47904, Note_on_c, 0, 79, 0
1, 47904, Note_on_c, 0, 76, 0
1, 47904, Note_on_c, 0, 78, 80
1, 47904, Note_on_c, 0, 74, 80
1, 47904, Note_on_c, 1, 45, 80
1, 47949, Note_on_c, 0, 78, 0
1, 47949, Note_on_c, 0, 74, 0
1, 47949, Note_on_c, 1, 45, 0
1, 47952, Note_on_c, 0, 76, 80
1, 47952, Note_on_c, 0, 73, 80
1, 47952, Note_on_c, 1, 33, 80
1, 47997, Note_on_c, 0, 76, 0
1, 47997, Note_on_c, 0, 73, 0
1, 47997, Note_on_c, 1, 33, 0
1, 48000, Note_on_c, 1, 38, 80
1, 48016, Note_on_c, 0, 74, 75
1, 48031, Note_on_c, 0, 74, 0
1, 48032, Note_on_c, 0, 76, 75
1, 48047, Note_on_c, 0, 76, 0
1, 48048, Note_on_c, 0, 78, 75
1, 48063, Note_on_c, 0, 78, 0
1, 48064, Note_on_c, 0, 79, 75
1, 48079, Note_on_c, 0, 79, 0
1, 48080, Note_on_c, 0, 81, 75
1, 48089, Note_on_c, 1, 38, 0
1, 48095, Note_on_c, 0, 81, 0
1, 48096, Note_on_c, 0, 79, 75
1, 48096, Note_on_c, 0, 76, 75
1, 48112, Note_on_c, 1, 57, 75
1, 48127, Note_on_c, 1, 57, 0
1, 48128, Note_on_c, 1, 59, 75
1, 48143, Note_on_c, 1, 59, 0
1, 48144, Note_on_c, 1, 61, 75
1, 48159, Note_on_c, 1, 61, 0
1, 48160, Note_on_c, 1, 62, 75
1, 48175, Note_on_c, 1, 62, 0
1, 48176, Note_on_c, 1, 64, 75
1, 48185, Note_on_c, 0, 79, 0
1, 48185, Note_on_c, 0, 76, 0
1, 48191, Note_on_c, 1, 64, 0
1, 48192, Note_on_c, 1, 62, 75
1, 48208, Note_on_c, 0, 74, 75
1, 48223, Note_on_c, 0, 74, 0
1, 48224, Note_on_c, 0, 76, 75
1, 48239, Note_on_c, 0, 76, 0
1, 48240, Note_on_c, 0, 78, 75
1, 48255, Note_on_c, 0, 78, 0
1, 48256, Note_on_c, 0, 79, 75
1, 48271, Note_on_c, 0, 79, 0
1, 48272, Note_on_c, 0, 81, 75
1, 48281, Note_on_c, 1, 62, 0
1, 48287, Note_on_c, 0, 81, 0
1, 48288, Note_on_c, 0, 79, 75
1, 48288, Note_on_c, 0, 76, 75
1, 48304, Note_on_c, 1, 57, 75
1, 48319, Note_on_c, 1, 57, 0
1, 48320, Note_on_c, 1, 59, 75
1, 48335, Note_on_c, 1, 59, 0
1, 48336, Note_on_c, 1, 61, 75
1, 48351, Note_on_c, 1, 61, 0
1, 48352, Note_on_c, 1, 62, 75
1, 48367, Note_on_c, 1, 62, 0
1, 48368, Note_on_c, 1, 64, 75
1, 48377, Note_on_c, 0, 79, 0
1, 48377, Note_on_c, 0, 76, 0
1, 48383, Note_on_c, 1, 64, 0
1, 48384, Note_on_c, 1, 62, 75
1, 48400, Note_on_c, 0, 74, 75
1, 48415, Note_on_c, 0, 74, 0
1, 48416, Note_on_c, 0, 76, 75
1, 48431, Note_on_c, 0, 76, 0
1, 48432, Note_on_c, 0, 78, 75
1, 48447, Note_on_c, 0, 78, 0
1, 48448, Note_on_c, 0, 79, 75
1, 48463, Note_on_c, 0, 79, 0
1, 48464, Note_on_c, 0, 81, 75
1, 48473, Note_on_c, 1, 62, 0
1, 48479, Note_on_c, 0, 81, 0
1, 48480, Note_on_c, 1, 62, 75
1, 48480, Note_on_c, 1, 55, 75
1, 48496, Note_on_c, 0, 76, 75
1, 48511, Note_on_c, 0, 76, 0
1, 48512, Note_on_c, 0, 78, 75
1, 48527, Note_on_c, 0, 78, 0
1, 48528, Note_on_c, 0, 79, 75
1, 48543, Note_on_c, 0, 79, 0
1, 48544, Note_on_c, 0, 81, 75
1, 48559, Note_on_c, 0, 81, 0
1, 48560, Note_on_c, 0, 83, 75
1, 48569, Note_on_c, 1, 62, 0
1, 48569, Note_on_c, 1, 55, 0
1, 48575, Note_on_c, 0, 83, 0
1, 48576, Note_on_c, 0, 69, 75
1, 48624, Note_on_c, 1, 62, 75
1, 48624, Note_on_c, 1, 54, 75
1, 48665, Note_on_c, 0, 69, 0
1, 48669, Note_on_c, 1, 54, 0
1, 48672, Note_on_c, 0, 76, 75
1, 48672, Note_on_c, 1, 55, 75
1, 48681, Note_on_c, 0, 76, 0
1, 48681, Note_on_c, 0, 78, 75
1, 48690, Note_on_c, 0, 78, 0
1, 48690, Note_on_c, 0, 76, 75
1, 48699, Note_on_c, 0, 76, 0
1, 48699, Note_on_c, 0, 78, 75
1, 48708, Note_on_c, 0, 78, 0
1, 48708, Note_on_c, 0, 76, 75
1, 48717, Note_on_c, 0, 76, 0
1, 48717, Note_on_c, 0, 78, 75
1, 48717, Note_on_c, 1, 55, 0
1, 48720, Note_on_c, 1, 62, 0
1, 48720, Note_on_c, 1, 61, 75
1, 48720, Note_on_c, 1, 57, 75
1, 48726, Note_on_c, 0, 78, 0
1, 48726, Note_on_c, 0, 76, 75
1, 48735, Note_on_c, 0, 76, 0
1, 48735, Note_on_c, 0, 78, 75
1, 48744, Note_on_c, 0, 78, 0
1, 48744, Note_on_c, 0, 76, 75
1, 48752, Note_on_c, 0, 76, 0
1, 48752, Note_on_c, 0, 74, 75
1, 48760, Note_on_c, 0, 74, 0
1, 48760, Note_on_c, 0, 76, 75
1, 48765, Note_on_c, 1, 61, 0
1, 48765, Note_on_c, 1, 57, 0
1, 48768, Note_on_c, 0, 76, 0
1, 48768, Note_on_c, 1, 62, 75
1, 48784, Note_on_c, 0, 74, 75
1, 48799, Note_on_c, 0, 74, 0
1, 48800, Note_on_c, 0, 76, 75
1, 48815, Note_on_c, 0, 76, 0
1, 48816, Note_on_c, 0, 78, 75
1, 48831, Note_on_c, 0, 78, 0
1, 48832, Note_on_c, 0, 79, 75
1, 48847, Note_on_c, 0, 79, 0
1, 48848, Note_on_c, 0, 81, 75
1, 48857, Note_on_c, 1, 62, 0
1, 48863, Note_on_c, 0, 81, 0
1, 48864, Note_on_c, 1, 62, 75
1, 48864, Note_on_c, 1, 55, 75
1, 48880, Note_on_c, 0, 76, 75
1, 48895, Note_on_c, 0, 76, 0
1, 48896, Note_on_c, 0, 78, 75
1, 48911, Note_on_c, 0, 78, 0
1, 48912, Note_on_c, 0, 79, 75
1, 48927, Note_on_c, 0, 79, 0
1, 48928, Note_on_c, 0, 81, 75
1, 48943, Note_on_c, 0, 81, 0
1, 48944, Note_on_c, 0, 83, 75
1, 48953, Note_on_c, 1, 62, 0
1, 48953, Note_on_c, 1, 55, 0
1, 48959, Note_on_c, 0, 83, 0
1, 48960, Note_on_c, 0, 69, 75
1, 49008, Note_on_c, 1, 62, 75
1, 49008, Note_on_c, 1, 54, 75
1, 49049, Note_on_c, 0, 69, 0
1, 49053, Note_on_c, 1, 54, 0
1, 49056, Note_on_c, 0, 76, 75
1, 49056, Note_on_c, 1, 55, 75
1, 49065, Note_on_c, 0, 76, 0
1, 49065, Note_on_c, 0, 78, 75
1, 49074, Note_on_c, 0, 78, 0
1, 49074, Note_on_c, 0, 76, 75
1, 49083, Note_on_c, 0, 76, 0
1, 49083, Note_on_c, 0, 78, 75
1, 49092, Note_on_c, 0, 78, 0
1, 49092, Note_on_c, 0, 76, 75
1, 49101, Note_on_c, 0, 76, 0
1, 49101, Note_on_c, 0, 78, 75
1, 49101, Note_on_c, 1, 55, 0
1, 49104, Note_on_c, 1, 62, 0
1, 49104, Note_on_c, 1, 61, 75
1, 49104, Note_on_c, 1, 57, 75
1, 49110, Note_on_c, 0, 78, 0
1, 49110, Note_on_c, 0, 76, 75
1, 49119, Note_on_c, 0, 76, 0
1, 49119, Note_on_c, 0, 78, 75
1, 49128, Note_on_c, 0, 78, 0
1, 49128, Note_on_c, 0, 76, 75
1, 49136, Note_on_c, 0, 76, 0
1, 49136, Note_on_c, 0, 74, 75
1, 49144, Note_on_c, 0, 74, 0
1, 49144, Note_on_c, 0, 76, 75
1, 49149, Note_on_c, 1, 61, 0
1, 49149, Note_on_c, 1, 57, 0
1, 49152, Note_on_c, 0, 76, 0
1, 49152, Note_on_c, 0, 74, 75
1, 49152, Note_on_c, 1, 62, 75
1, 49172, Note_on_c, 0, 74, 0
1, 49200, Note_on_c, 0, 69, 63
1, 49241, Note_on_c, 1, 62, 0
1, 49245, Note_on_c, 0, 69, 0
1, 49248, Note_on_c, 0, 70, 63
1, 49263, Note_on_c, 0, 70, 0
1, 49264, Note_on_c, 0, 69, 63
1, 49279, Note_on_c, 0, 69, 0
1, 49280, Note_on_c, 0, 70, 63
1, 49295, Note_on_c, 0, 70, 0
1, 49296, Note_on_c, 0, 74, 63
1, 49296, Note_on_c, 1, 65, 56
1, 49296, Note_on_c, 1, 62, 56
1, 49296, Note_on_c, 1, 62, 56
1, 49311, Note_on_c, 0, 74, 0
1, 49312, Note_on_c, 0, 72, 63
1, 49327, Note_on_c, 0, 72, 0
1, 49328, Note_on_c, 0, 70, 63
1, 49341, Note_on_c, 1, 65, 0
1, 49341, Note_on_c, 1, 62, 0
1, 49343, Note_on_c, 0, 70, 0
1, 49344, Note_on_c, 0, 68, 63
1, 49344, Note_on_c, 1, 64, 56
1, 49359, Note_on_c, 0, 68, 0
1, 49360, Note_on_c, 0, 69, 63
1, 49375, Note_on_c, 0, 69, 0
1, 49376, Note_on_c, 0, 71, 63
1, 49389, Note_on_c, 1, 62, 0
1, 49391, Note_on_c, 0, 71, 0
1, 49392, Note_on_c, 0, 69, 63
1, 49392, Note_on_c, 1, 60, 57
1, 49407, Note_on_c, 0, 69, 0
1, 49408, Note_on_c, 0, 71, 64
1, 49423, Note_on_c, 0, 71, 0
1, 49424, Note_on_c, 0, 72, 64
1, 49433, Note_on_c, 1, 64, 0
1, 49439, Note_on_c, 0, 72, 0
1, 49440, Note_on_c, 0, 66, 64
1, 49440, Note_on_c, 1, 62, 58
1, 49455, Note_on_c, 0, 66, 0
1, 49456, Note_on_c, 0, 67, 64
1, 49471, Note_on_c, 0, 67, 0
1, 49472, Note_on_c, 0, 69, 65
1, 49485, Note_on_c, 1, 60, 0
1, 49487, Note_on_c, 0, 69, 0
1, 49488, Note_on_c, 0, 67, 65
1, 49488, Note_on_c, 1, 58, 59
1, 49503, Note_on_c, 0, 67, 0
1, 49504, Note_on_c, 0, 69, 65
1, 49519, Note_on_c, 0, 69, 0
1, 49520, Note_on_c, 0, 70, 65
1, 49529, Note_on_c, 1, 62, 0
1, 49535, Note_on_c, 0, 70, 0
1, 49536, Note_on_c, 0, 64, 66
1, 49536, Note_on_c, 1, 60, 60
1, 49551, Note_on_c, 0, 64, 0
1, 49552, Note_on_c, 0, 65, 66
1, 49567, Note_on_c, 0, 65, 0
1, 49568, Note_on_c, 0, 67, 66
1, 49581, Note_on_c, 1, 58, 0
1, 49583, Note_on_c, 0, 67, 0
1, 49584, Note_on_c, 0, 65, 66
1, 49584, Note_on_c, 1, 57, 61
1, 49599, Note_on_c, 0, 65, 0
1, 49600, Note_on_c, 0, 67, 67
1, 49615, Note_on_c, 0, 67, 0
1, 49616, Note_on_c, 0, 69, 67
1, 49625, Note_on_c, 1, 60, 0
1, 49631, Note_on_c, 0, 69, 0
1, 49632, Note_on_c, 0, 62, 67
1, 49632, Note_on_c, 1, 58, 62
1, 49647, Note_on_c, 0, 62, 0
1, 49648, Note_on_c, 0, 64, 67
1, 49663, Note_on_c, 0, 64, 0
1, 49664, Note_on_c, 0, 65, 68
1, 49677, Note_on_c, 1, 57, 0
1, 49679, Note_on_c, 0, 65, 0
1, 49680, Note_on_c, 0, 64, 68
1, 49680, Note_on_c, 1, 55, 63
1, 49695, Note_on_c, 0, 64, 0
1, 49696, Note_on_c, 0, 65, 68
1, 49711, Note_on_c, 0, 65, 0
1, 49712, Note_on_c, 0, 67, 68
1, 49721, Note_on_c, 1, 58, 0
1, 49727, Note_on_c, 0, 67, 0
1, 49728, Note_on_c, 0, 61, 69
1, 49728, Note_on_c, 1, 57, 64
1, 49743, Note_on_c, 0, 61, 0
1, 49744, Note_on_c, 0, 62, 69
1, 49759, Note_on_c, 0, 62, 0
1, 49760, Note_on_c, 0, 64, 69
1, 49773, Note_on_c, 1, 55, 0
1, 49775, Note_on_c, 0, 64, 0
1, 49776, Note_on_c, 0, 62, 69
1, 49776, Note_on_c, 1, 53, 65
1, 49791, Note_on_c, 0, 62, 0
1, 49792, Note_on_c, 0, 64, 70
1, 49807, Note_on_c, 0, 64, 0
1, 49808, Note_on_c, 0, 65, 70
1, 49821, Note_on_c, 1, 53, 0
1, 49823, Note_on_c, 0, 65, 0
1, 49824, Note_on_c, 0, 64, 70
1, 49824, Note_on_c, 1, 49, 66
1, 49839, Note_on_c, 0, 64, 0
1, 49840, Note_on_c, 0, 65, 70
1, 49855, Note_on_c, 0, 65, 0
1, 49856, Note_on_c, 0, 67, 71
1, 49869, Note_on_c, 1, 49, 0
1, 49871, Note_on_c, 0, 67, 0
1, 49872, Note_on_c, 0, 65, 71
1, 49872, Note_on_c, 1, 50, 67
1, 49887, Note_on_c, 0, 65, 0
1, 49888, Note_on_c, 0, 67, 71
1, 49903, Note_on_c, 0, 67, 0
1, 49904, Note_on_c, 0, 69, 71
1, 49913, Note_on_c, 1, 57, 0
1, 49917, Note_on_c, 1, 50, 0
1, 49919, Note_on_c, 0, 69, 0
1, 49920, Note_on_c, 0, 67, 75
1, 49920, Note_on_c, 1, 45, 68
1, 49928, Note_on_c, 0, 67, 0
1, 49928, Note_on_c, 0, 65, 75
1, 49936, Note_on_c, 0, 65, 0
1, 49936, Note_on_c, 0, 67, 75
1, 49944, Note_on_c, 0, 67, 0
1, 49944, Note_on_c, 0, 65, 75
1, 49952, Note_on_c, 0, 65, 0
1, 49952, Note_on_c, 0, 67, 75
1, 49960, Note_on_c, 0, 67, 0
1, 49960, Note_on_c, 0, 65, 75
1, 49965, Note_on_c, 1, 45, 0
1, 49968, Note_on_c, 0, 65, 0
1, 49968, Note_on_c, 0, 64, 75
1, 49968, Note_on_c, 1, 33, 68
1, 49991, Note_on_c, 0, 64, 0
1, 50004, Note_on_c, 0, 67, 80
1, 50004, Note_on_c, 0, 64, 80
1, 50013, Note_on_c, 1, 33, 0
1, 50016, Note_on_c, 0, 67, 0
1, 50016, Note_on_c, 0, 64, 0
1, 50016, Note_on_c, 0, 67, 80
1, 50016, Note_on_c, 0, 64, 80
1, 50064, Note_on_c, 1, 45, 80
1, 50064, Note_on_c, 1, 33, 80
1, 50094, Note_on_c, 0, 67, 0
1, 50094, Note_on_c, 0, 64, 0
1, 50100, Note_on_c, 0, 73, 80
1, 50100, Note_on_c, 0, 67, 80
1, 50109, Note_on_c, 1, 45, 0
1, 50109, Note_on_c, 1, 33, 0
1, 50112, Note_on_c, 0, 73, 0
1, 50112, Note_on_c, 0, 67, 0
1, 50112, Note_on_c, 0, 73, 80
1, 50112, Note_on_c, 0, 67, 80
1, 50160, Note_on_c, 1, 45, 80
1, 50160, Note_on_c, 1, 33, 80
1, 50190, Note_on_c, 0, 73, 0
1, 50190, Note_on_c, 0, 67, 0
1, 50196, Note_on_c, 0, 76, 80
1, 50196, Note_on_c, 0, 73, 80
1, 50205, Note_on_c, 1, 45, 0
1, 50205, Note_on_c, 1, 33, 0
1, 50208, Note_on_c, 0, 76, 0
1, 50208, Note_on_c, 0, 73, 0
1, 50208, Note_on_c, 0, 76, 80
1, 50208, Note_on_c, 0, 73, 80
1, 50256, Note_on_c, 1, 45, 80
1, 50256, Note_on_c, 1, 33, 80
1, 50275, Note_on_c, 0, 76, 0
1, 50275, Note_on_c, 0, 73, 0
1, 50280, Note_on_c, 0, 76, 80
1, 50292, Note_on_c, 0, 76, 0
1, 50292, Note_on_c, 0, 79, 80
1, 50301, Note_on_c, 1, 45, 0
1, 50301, Note_on_c, 1, 33, 0
1, 50304, Note_on_c, 0, 79, 0
1, 50304, Note_on_c, 0, 78, 80
1, 50304, Note_on_c, 1, 50, 80
1, 50304, Note_on_c, 1, 38, 80
1, 50319, Note_on_c, 0, 78, 0
1, 50320, Note_on_c, 0, 81, 80
1, 50335, Note_on_c, 0, 81, 0
1, 50336, Note_on_c, 0, 79, 80
1, 50351, Note_on_c, 0, 79, 0
1, 50352, Note_on_c, 0, 78, 80
1, 50367, Note_on_c, 0, 78, 0
1, 50368, Note_on_c, 0, 76, 80
1, 50383, Note_on_c, 0, 76, 0
1, 50384, Note_on_c, 0, 74, 80
1, 50393, Note_on_c, 1, 50, 0
1, 50393, Note_on_c, 1, 38, 0
1, 50399, Note_on_c, 0, 74, 0
1, 50400, Note_on_c, 0, 73, 80
1, 50415, Note_on_c, 0, 73, 0
1, 50416, Note_on_c, 0, 71, 80
1, 50431, Note_on_c, 0, 71, 0
1, 50432, Note_on_c, 0, 69, 80
1, 50447, Note_on_c, 0, 69, 0
1, 50448, Note_on_c, 0, 67, 80
1, 50463, Note_on_c, 0, 67, 0
1, 50464, Note_on_c, 0, 66, 80
1, 50479, Note_on_c, 0, 66, 0
1, 50480, Note_on_c, 0, 64, 80
1, 50495, Note_on_c, 0, 64, 0
1, 50496, Note_on_c, 0, 62, 80
1, 50544, Note_on_c, 1, 54, 80
1, 50563, Note_on_c, 0, 62, 0
1, 50568, Note_on_c, 0, 64, 80
1, 50589, Note_on_c, 1, 54, 0
1, 50591, Note_on_c, 0, 64, 0
1, 50592, Note_on_c, 0, 64, 76
1, 50592, Note_on_c, 1, 55, 74
1, 50601, Note_on_c, 0, 64, 0
1, 50601, Note_on_c, 0, 66, 75
1, 50610, Note_on_c, 0, 66, 0
1, 50610, Note_on_c, 0, 64, 74
1, 50619, Note_on_c, 0, 64, 0
1, 50619, Note_on_c, 0, 66, 73
1, 50628, Note_on_c, 0, 66, 0
1, 50628, Note_on_c, 0, 64, 72
1, 50637, Note_on_c, 0, 64, 0
1, 50637, Note_on_c, 0, 66, 71
1, 50637, Note_on_c, 1, 55, 0
1, 50640, Note_on_c, 1, 57, 68
1, 50646, Note_on_c, 0, 66, 0
1, 50646, Note_on_c, 0, 64, 70
1, 50655, Note_on_c, 0, 64, 0
1, 50655, Note_on_c, 0, 66, 69
1, 50664, Note_on_c, 0, 66, 0
1, 50664, Note_on_c, 0, 64, 68
1, 50672, Note_on_c, 0, 64, 0
1, 50672, Note_on_c, 0, 62, 67
1, 50680, Note_on_c, 0, 62, 0
1, 50680, Note_on_c, 0, 64, 63
1, 50685, Note_on_c, 1, 57, 0
1, 50688, Note_on_c, 0, 64, 0
1, 50688, Note_on_c, 0, 78, 75
1, 50688, Note_on_c, 1, 50, 75
1, 50703, Note_on_c, 0, 78, 0
1, 50704, Note_on_c, 0, 81, 75
1, 50719, Note_on_c, 0, 81, 0
1, 50720, Note_on_c, 0, 79, 75
1, 50735, Note_on_c, 0, 79, 0
1, 50736, Note_on_c, 0, 78, 75
1, 50751, Note_on_c, 0, 78, 0
1, 50752, Note_on_c, 0, 76, 75
1, 50767, Note_on_c, 0, 76, 0
1, 50768, Note_on_c, 0, 74, 75
1, 50777, Note_on_c, 1, 50, 0
1, 50783, Note_on_c, 0, 74, 0
1, 50784, Note_on_c, 0, 73, 75
1, 50799, Note_on_c, 0, 73, 0
1, 50800, Note_on_c, 0, 71, 75
1, 50815, Note_on_c, 0, 71, 0
1, 50816, Note_on_c, 0, 69, 75
1, 50831, Note_on_c, 0, 69, 0
1, 50832, Note_on_c, 0, 67, 75
1, 50847, Note_on_c, 0, 67, 0
1, 50848, Note_on_c, 0, 66, 75
1, 50863, Note_on_c, 0, 66, 0
1, 50864, Note_on_c, 0, 64, 75
1, 50879, Note_on_c, 0, 64, 0
1, 50880, Note_on_c, 0, 62, 80
1, 50928, Note_on_c, 1, 54, 75
1, 50947, Note_on_c, 0, 62, 0
1, 50952, Note_on_c, 0, 64, 73
1, 50973, Note_on_c, 1, 54, 0
1, 50975, Note_on_c, 0, 64, 0
1, 50976, Note_on_c, 0, 64, 71
1, 50976, Note_on_c, 1, 55, 71
1, 50985, Note_on_c, 0, 64, 0
1, 50985, Note_on_c, 0, 66, 70
1, 50994, Note_on_c, 0, 66, 0
1, 50994, Note_on_c, 0, 64, 70
1, 51003, Note_on_c, 0, 64, 0
1, 51003, Note_on_c, 0, 66, 69
1, 51012, Note_on_c, 0, 66, 0
1, 51012, Note_on_c, 0, 64, 69
1, 51021, Note_on_c, 0, 64, 0
1, 51021, Note_on_c, 0, 66, 68
1, 51021, Note_on_c, 1, 55, 0
1, 51024, Note_on_c, 1, 57, 67
1, 51030, Note_on_c, 0, 66, 0
1, 51030, Note_on_c, 0, 64, 68
1, 51039, Note_on_c, 0, 64, 0
1, 51039, Note_on_c, 0, 66, 67
1, 51048, Note_on_c, 0, 66, 0
1, 51048, Note_on_c, 0, 64, 67
1, 51056, Note_on_c, 0, 64, 0
1, 51056, Note_on_c, 0, 62, 66
1, 51064, Note_on_c, 0, 62, 0
1, 51064, Note_on_c, 0, 64, 66
1, 51069, Note_on_c, 1, 57, 0
1, 51072, Note_on_c, 0, 64, 0
1, 51072, Note_on_c, 0, 62, 63
1, 51072, Note_on_c, 1, 50, 63
1, 51117, Note_on_c, 1, 50, 0
1, 51120, Note_on_c, 1, 45, 63
1, 51161, Note_on_c, 0, 62, 0
1, 51165, Note_on_c, 1, 45, 0
1, 51168, Note_on_c, 1, 38, 63
1, 51213, Note_on_c, 1, 38, 0
1, 51252, Note_on_c, 1, 38, 0
1, 51264, Note_on_c, 1, 38, 0
1, 51274, End_track
0, 0, End_of_file