0, 0, Header, 0, 1, 96
1, 0, Start_track
1, 0, Tempo, 500000
1, 0, Note_on_c, 0, 67, 75
1, 0, Note_on_c, 1, 59, 64
1, 0, Note_on_c, 1, 55, 64
1, 45, Note_on_c, 0, 67, 0
1, 48, Note_on_c, 0, 72, 75
1, 71, Note_on_c, 0, 72, 0
1, 72, Note_on_c, 0, 71, 75
1, 89, Note_on_c, 1, 59, 0
1, 89, Note_on_c, 1, 55, 0
1, 95, Note_on_c, 0, 71, 0
1, 96, Note_on_c, 0, 76, 75
1, 119, Note_on_c, 0, 76, 0
1, 120, Note_on_c, 0, 74, 75
1, 143, Note_on_c, 0, 74, 0
1, 144, Note_on_c, 0, 74, 75
1, 144, Note_on_c, 1, 59, 64
1, 144, Note_on_c, 1, 55, 64
1, 167, Note_on_c, 0, 74, 0
1, 168, Note_on_c, 0, 79, 75
1, 189, Note_on_c, 1, 59, 0
1, 189, Note_on_c, 1, 55, 0
1, 191, Note_on_c, 0, 79, 0
1, 192, Note_on_c, 0, 74, 75
1, 192, Note_on_c, 1, 59, 64
1, 192, Note_on_c, 1, 55, 64
1, 237, Note_on_c, 0, 74, 0
1, 237, Note_on_c, 1, 59, 0
1, 237, Note_on_c, 1, 55, 0
1, 240, Note_on_c, 1, 59, 64
1, 240, Note_on_c, 1, 55, 64
1, 285, Note_on_c, 1, 59, 0
1, 285, Note_on_c, 1, 55, 0
1, 288, Note_on_c, 0, 76, 75
1, 288, Note_on_c, 1, 60, 64
1, 288, Note_on_c, 1, 55, 64
1, 311, Note_on_c, 0, 76, 0
1, 312, Note_on_c, 0, 79, 75
1, 333, Note_on_c, 1, 60, 0
1, 333, Note_on_c, 1, 55, 0
1, 335, Note_on_c, 0, 79, 0
1, 336, Note_on_c, 0, 76, 75
1, 336, Note_on_c, 1, 60, 64
1, 336, Note_on_c, 1, 55, 64
1, 381, Note_on_c, 0, 76, 0
1, 381, Note_on_c, 1, 60, 0
1, 381, Note_on_c, 1, 55, 0
1, 384, Note_on_c, 1, 60, 64
1, 384, Note_on_c, 1, 55, 64
1, 429, Note_on_c, 1, 60, 0
1, 429, Note_on_c, 1, 55, 0
1, 432, Note_on_c, 0, 74, 75
1, 455, Note_on_c, 0, 74, 0
1, 456, Note_on_c, 0, 78, 75
1, 479, Note_on_c, 0, 78, 0
1, 480, Note_on_c, 0, 81, 75
1, 480, Note_on_c, 1, 54, 64
1, 503, Note_on_c, 0, 81, 0
1, 504, Note_on_c, 0, 84, 75
1, 525, Note_on_c, 1, 54, 0
1, 527, Note_on_c, 0, 84, 0
1, 528, Note_on_c, 0, 83, 75
1, 528, Note_on_c, 1, 55, 64
1, 551, Note_on_c, 0, 83, 0
1, 552, Note_on_c, 0, 79, 75
1, 573, Note_on_c, 1, 55, 0
1, 575, Note_on_c, 0, 79, 0
1, 576, Note_on_c, 0, 74, 75
1, 576, Note_on_c, 1, 59, 64
1, 576, Note_on_c, 0, 50, 64
1, 621, Note_on_c, 0, 74, 0
1, 621, Note_on_c, 1, 59, 0
1, 624, Note_on_c, 0, 72, 75
1, 624, Note_on_c, 1, 57, 64
1, 636, Note_on_c, 0, 72, 0
1, 636, Note_on_c, 0, 74, 75
1, 648, Note_on_c, 0, 74, 0
1, 648, Note_on_c, 0, 72, 75
1, 665, Note_on_c, 0, 50, 0
1, 669, Note_on_c, 0, 72, 0
1, 669, Note_on_c, 1, 57, 0
1, 672, Note_on_c, 0, 71, 75
1, 672, Note_on_c, 1, 55, 64
1, 672, Note_on_c, 0, 55, 64
1, 717, Note_on_c, 0, 71, 0
1, 717, Note_on_c, 1, 55, 0
1, 717, Note_on_c, 0, 55, 0
1, 720, Note_on_c, 0, 74, 75
1, 743, Note_on_c, 0, 74, 0
1, 744, Note_on_c, 0, 78, 75
1, 767, Note_on_c, 0, 78, 0
1, 768, Note_on_c, 0, 81, 75
1, 768, Note_on_c, 1, 54, 64
1, 791, Note_on_c, 0, 81, 0
1, 792, Note_on_c, 0, 84, 75
1, 813, Note_on_c, 1, 54, 0
1, 815, Note_on_c, 0, 84, 0
1, 816, Note_on_c, 0, 83, 75
1, 816, Note_on_c, 1, 55, 64
1, 839, Note_on_c, 0, 83, 0
1, 840, Note_on_c, 0, 79, 75
1, 861, Note_on_c, 1, 55, 0
1, 863, Note_on_c, 0, 79, 0
1, 864, Note_on_c, 0, 86, 75
1, 864, Note_on_c, 0, 50, 64
1, 887, Note_on_c, 0, 86, 0
1, 888, Note_on_c, 0, 81, 75
1, 911, Note_on_c, 0, 81, 0
1, 912, Note_on_c, 0, 78, 75
1, 912, Note_on_c, 1, 60, 64
1, 935, Note_on_c, 0, 78, 0
1, 936, Note_on_c, 0, 74, 75
1, 957, Note_on_c, 1, 60, 0
1, 959, Note_on_c, 0, 74, 0
1, 960, Note_on_c, 0, 79, 75
1, 960, Note_on_c, 1, 59, 64
1, 983, Note_on_c, 0, 79, 0
1, 984, Note_on_c, 0, 83, 75
1, 997, Note_on_c, 0, 50, 0
1, 1005, Note_on_c, 1, 59, 0
1, 1007, Note_on_c, 0, 83, 0
1, 1008, Note_on_c, 0, 74, 75
1, 1008, Note_on_c, 1, 57, 64
1, 1008, Note_on_c, 0, 50, 64
1, 1031, Note_on_c, 0, 74, 0
1, 1032, Note_on_c, 0, 72, 75
1, 1053, Note_on_c, 1, 57, 0
1, 1055, Note_on_c, 0, 72, 0
1, 1056, Note_on_c, 0, 81, 75
1, 1056, Note_on_c, 1, 54, 64
1, 1079, Note_on_c, 0, 81, 0
1, 1080, Note_on_c, 0, 72, 75
1, 1101, Note_on_c, 1, 54, 0
1, 1103, Note_on_c, 0, 72, 0
1, 1104, Note_on_c, 0, 71, 75
1, 1104, Note_on_c, 1, 55, 64
1, 1127, Note_on_c, 0, 71, 0
1, 1128, Note_on_c, 0, 79, 75
1, 1141, Note_on_c, 0, 50, 0
1, 1149, Note_on_c, 1, 55, 0
1, 1151, Note_on_c, 0, 79, 0
1, 1152, Note_on_c, 0, 74, 75
1, 1152, Note_on_c, 1, 57, 64
1, 1152, Note_on_c, 0, 50, 64
1, 1175, Note_on_c, 0, 74, 0
1, 1176, Note_on_c, 0, 72, 75
1, 1197, Note_on_c, 1, 57, 0
1, 1199, Note_on_c, 0, 72, 0
1, 1200, Note_on_c, 0, 81, 75
1, 1200, Note_on_c, 1, 54, 64
1, 1223, Note_on_c, 0, 81, 0
1, 1224, Note_on_c, 0, 72, 75
1, 1245, Note_on_c, 1, 54, 0
1, 1247, Note_on_c, 0, 72, 0
1, 1248, Note_on_c, 0, 71, 75
1, 1248, Note_on_c, 1, 55, 64
1, 1271, Note_on_c, 0, 71, 0
1, 1272, Note_on_c, 0, 79, 75
1, 1285, Note_on_c, 0, 50, 0
1, 1293, Note_on_c, 1, 55, 0
1, 1295, Note_on_c, 0, 79, 0
1, 1296, Note_on_c, 0, 71, 75
1, 1296, Note_on_c, 1, 55, 64
1, 1296, Note_on_c, 0, 50, 64
1, 1308, Note_on_c, 0, 71, 0
1, 1308, Note_on_c, 0, 72, 75
1, 1320, Note_on_c, 0, 72, 0
1, 1320, Note_on_c, 0, 71, 75
1, 1341, Note_on_c, 0, 71, 0
1, 1341, Note_on_c, 1, 55, 0
1, 1344, Note_on_c, 0, 69, 75
1, 1344, Note_on_c, 1, 54, 64
1, 1385, Note_on_c, 0, 50, 0
1, 1389, Note_on_c, 0, 69, 0
1, 1389, Note_on_c, 1, 54, 0
1, 1440, Note_on_c, 0, 76, 81
1, 1440, Note_on_c, 1, 57, 81
1, 1440, Note_on_c, 1, 54, 81
1, 1440, Note_on_c, 1, 50, 81
1, 1446, Note_on_c, 0, 76, 0
1, 1446, Note_on_c, 0, 74, 81
1, 1452, Note_on_c, 0, 74, 0
1, 1452, Note_on_c, 0, 73, 81
1, 1458, Note_on_c, 0, 73, 0
1, 1458, Note_on_c, 0, 74, 81
1, 1485, Note_on_c, 1, 57, 0
1, 1485, Note_on_c, 1, 54, 0
1, 1485, Note_on_c, 1, 50, 0
1, 1487, Note_on_c, 0, 74, 0
1, 1488, Note_on_c, 0, 62, 81
1, 1503, Note_on_c, 0, 62, 0
1, 1504, Note_on_c, 0, 66, 81
1, 1519, Note_on_c, 0, 66, 0
1, 1520, Note_on_c, 0, 69, 81
1, 1535, Note_on_c, 0, 69, 0
1, 1536, Note_on_c, 0, 74, 81
1, 1551, Note_on_c, 0, 74, 0
1, 1552, Note_on_c, 0, 78, 81
1, 1567, Note_on_c, 0, 78, 0
1, 1568, Note_on_c, 0, 81, 81
1, 1583, Note_on_c, 0, 81, 0
1, 1584, Note_on_c, 0, 79, 81
1, 1584, Note_on_c, 1, 57, 81
1, 1584, Note_on_c, 1, 52, 81
1, 1584, Note_on_c, 1, 49, 81
1, 1599, Note_on_c, 0, 79, 0
1, 1600, Note_on_c, 0, 78, 81
1, 1615, Note_on_c, 0, 78, 0
1, 1616, Note_on_c, 0, 76, 81
1, 1629, Note_on_c, 1, 57, 0
1, 1629, Note_on_c, 1, 52, 0
1, 1629, Note_on_c, 1, 49, 0
1, 1631, Note_on_c, 0, 76, 0
1, 1632, Note_on_c, 0, 74, 81
1, 1647, Note_on_c, 0, 74, 0
1, 1648, Note_on_c, 0, 73, 81
1, 1663, Note_on_c, 0, 73, 0
1, 1664, Note_on_c, 0, 71, 81
1, 1679, Note_on_c, 0, 71, 0
1, 1680, Note_on_c, 0, 69, 81
1, 1695, Note_on_c, 0, 69, 0
1, 1696, Note_on_c, 0, 76, 81
1, 1711, Note_on_c, 0, 76, 0
1, 1712, Note_on_c, 0, 79, 81
1, 1727, Note_on_c, 0, 79, 0
1, 1728, Note_on_c, 0, 78, 81
1, 1728, Note_on_c, 1, 57, 81
1, 1728, Note_on_c, 1, 54, 81
1, 1728, Note_on_c, 1, 50, 81
1, 1773, Note_on_c, 0, 78, 0
1, 1773, Note_on_c, 1, 57, 0
1, 1773, Note_on_c, 1, 54, 0
1, 1773, Note_on_c, 1, 50, 0
1, 1776, Note_on_c, 0, 62, 81
1, 1791, Note_on_c, 0, 62, 0
1, 1792, Note_on_c, 0, 66, 81
1, 1807, Note_on_c, 0, 66, 0
1, 1808, Note_on_c, 0, 69, 81
1, 1823, Note_on_c, 0, 69, 0
1, 1824, Note_on_c, 0, 74, 81
1, 1839, Note_on_c, 0, 74, 0
1, 1840, Note_on_c, 0, 78, 81
1, 1855, Note_on_c, 0, 78, 0
1, 1856, Note_on_c, 0, 81, 81
1, 1871, Note_on_c, 0, 81, 0
1, 1872, Note_on_c, 0, 79, 81
1, 1872, Note_on_c, 1, 57, 81
1, 1872, Note_on_c, 1, 52, 81
1, 1872, Note_on_c, 1, 49, 81
1, 1887, Note_on_c, 0, 79, 0
1, 1888, Note_on_c, 0, 78, 81
1, 1903, Note_on_c, 0, 78, 0
1, 1904, Note_on_c, 0, 76, 81
1, 1917, Note_on_c, 1, 57, 0
1, 1917, Note_on_c, 1, 52, 0
1, 1917, Note_on_c, 1, 49, 0
1, 1919, Note_on_c, 0, 76, 0
1, 1920, Note_on_c, 0, 74, 81
1, 1935, Note_on_c, 0, 74, 0
1, 1936, Note_on_c, 0, 73, 81
1, 1951, Note_on_c, 0, 73, 0
1, 1952, Note_on_c, 0, 71, 81
1, 1967, Note_on_c, 0, 71, 0
1, 1968, Note_on_c, 0, 69, 81
1, 1983, Note_on_c, 0, 69, 0
1, 1984, Note_on_c, 0, 76, 81
1, 1999, Note_on_c, 0, 76, 0
1, 2000, Note_on_c, 0, 79, 81
1, 2015, Note_on_c, 0, 79, 0
1, 2016, Note_on_c, 0, 78, 81
1, 2016, Note_on_c, 1, 57, 81
1, 2016, Note_on_c, 1, 54, 81
1, 2016, Note_on_c, 1, 50, 81
1, 2061, Note_on_c, 0, 78, 0
1, 2061, Note_on_c, 1, 57, 0
1, 2061, Note_on_c, 1, 54, 0
1, 2061, Note_on_c, 1, 50, 0
1, 2064, Note_on_c, 1, 66, 75
1, 2080, Note_on_c, 0, 69, 75
1, 2095, Note_on_c, 0, 69, 0
1, 2096, Note_on_c, 0, 74, 75
1, 2109, Note_on_c, 1, 66, 0
1, 2111, Note_on_c, 0, 74, 0
1, 2112, Note_on_c, 1, 69, 75
1, 2128, Note_on_c, 0, 74, 75
1, 2143, Note_on_c, 0, 74, 0
1, 2144, Note_on_c, 0, 78, 75
1, 2157, Note_on_c, 1, 69, 0
1, 2159, Note_on_c, 0, 78, 0
1, 2160, Note_on_c, 1, 74, 75
1, 2176, Note_on_c, 0, 78, 75
1, 2191, Note_on_c, 0, 78, 0
1, 2192, Note_on_c, 0, 81, 75
1, 2205, Note_on_c, 1, 74, 0
1, 2207, Note_on_c, 0, 81, 0
1, 2208, Note_on_c, 1, 69, 75
1, 2224, Note_on_c, 0, 74, 75
1, 2239, Note_on_c, 0, 74, 0
1, 2240, Note_on_c, 0, 78, 75
1, 2253, Note_on_c, 1, 69, 0
1, 2255, Note_on_c, 0, 78, 0
1, 2256, Note_on_c, 1, 66, 75
1, 2272, Note_on_c, 0, 69, 75
1, 2287, Note_on_c, 0, 69, 0
1, 2288, Note_on_c, 0, 74, 75
1, 2301, Note_on_c, 1, 66, 0
1, 2303, Note_on_c, 0, 74, 0
1, 2304, Note_on_c, 1, 57, 75
1, 2320, Note_on_c, 0, 64, 75
1, 2335, Note_on_c, 0, 64, 0
1, 2336, Note_on_c, 0, 67, 75
1, 2349, Note_on_c, 1, 57, 0
1, 2351, Note_on_c, 0, 67, 0
1, 2352, Note_on_c, 1, 64, 75
1, 2368, Note_on_c, 0, 67, 75
1, 2383, Note_on_c, 0, 67, 0
1, 2384, Note_on_c, 0, 73, 75
1, 2397, Note_on_c, 1, 64, 0
1, 2399, Note_on_c, 0, 73, 0
1, 2400, Note_on_c, 1, 67, 75
1, 2416, Note_on_c, 0, 73, 75
1, 2431, Note_on_c, 0, 73, 0
1, 2432, Note_on_c, 0, 76, 75
1, 2445, Note_on_c, 1, 67, 0
1, 2447, Note_on_c, 0, 76, 0
1, 2448, Note_on_c, 1, 73, 75
1, 2464, Note_on_c, 0, 76, 75
1, 2479, Note_on_c, 0, 76, 0
1, 2480, Note_on_c, 0, 79, 75
1, 2493, Note_on_c, 1, 73, 0
1, 2495, Note_on_c, 0, 79, 0
1, 2496, Note_on_c, 1, 67, 75
1, 2512, Note_on_c, 0, 73, 75
1, 2527, Note_on_c, 0, 73, 0
1, 2528, Note_on_c, 0, 76, 75
1, 2541, Note_on_c, 1, 67, 0
1, 2543, Note_on_c, 0, 76, 0
1, 2544, Note_on_c, 1, 64, 75
1, 2560, Note_on_c, 0, 67, 75
1, 2575, Note_on_c, 0, 67, 0
1, 2576, Note_on_c, 0, 73, 75
1, 2589, Note_on_c, 1, 64, 0
1, 2591, Note_on_c, 0, 73, 0
1, 2592, Note_on_c, 1, 54, 81
1, 2592, Note_on_c, 1, 42, 81
1, 2640, Note_on_c, 0, 69, 81
1, 2655, Note_on_c, 0, 69, 0
1, 2656, Note_on_c, 0, 71, 81
1, 2671, Note_on_c, 0, 71, 0
1, 2672, Note_on_c, 0, 73, 81
1, 2687, Note_on_c, 0, 73, 0
1, 2688, Note_on_c, 0, 74, 81
1, 2703, Note_on_c, 0, 74, 0
1, 2704, Note_on_c, 0, 76, 81
1, 2719, Note_on_c, 0, 76, 0
1, 2720, Note_on_c, 0, 78, 81
1, 2725, Note_on_c, 1, 54, 0
1, 2725, Note_on_c, 1, 42, 0
1, 2735, Note_on_c, 0, 78, 0
1, 2736, Note_on_c, 0, 71, 81
1, 2736, Note_on_c, 1, 55, 81
1, 2736, Note_on_c, 1, 43, 81
1, 2781, Note_on_c, 0, 71, 0
1, 2784, Note_on_c, 0, 79, 81
1, 2799, Note_on_c, 0, 79, 0
1, 2800, Note_on_c, 0, 78, 81
1, 2815, Note_on_c, 0, 78, 0
1, 2816, Note_on_c, 0, 76, 81
1, 2831, Note_on_c, 0, 76, 0
1, 2832, Note_on_c, 0, 83, 81
1, 2847, Note_on_c, 0, 83, 0
1, 2848, Note_on_c, 0, 81, 81
1, 2863, Note_on_c, 0, 81, 0
1, 2864, Note_on_c, 0, 79, 81
1, 2869, Note_on_c, 1, 55, 0
1, 2869, Note_on_c, 1, 43, 0
1, 2879, Note_on_c, 0, 79, 0
1, 2880, Note_on_c, 0, 78, 81
1, 2880, Note_on_c, 0, 45, 64
1, 2895, Note_on_c, 0, 78, 0
1, 2896, Note_on_c, 0, 79, 81
1, 2911, Note_on_c, 0, 79, 0
1, 2912, Note_on_c, 0, 81, 81
1, 2927, Note_on_c, 0, 81, 0
1, 2928, Note_on_c, 0, 74, 81
1, 2928, Note_on_c, 1, 54, 81
1, 2973, Note_on_c, 0, 74, 0
1, 2973, Note_on_c, 1, 54, 0
1, 2976, Note_on_c, 0, 73, 81
1, 2976, Note_on_c, 1, 52, 81
1, 2988, Note_on_c, 0, 73, 0
1, 2988, Note_on_c, 0, 74, 81
1, 3000, Note_on_c, 0, 74, 0
1, 3000, Note_on_c, 0, 73, 81
1, 3013, Note_on_c, 0, 45, 0
1, 3021, Note_on_c, 0, 73, 0
1, 3021, Note_on_c, 1, 52, 0
1, 3024, Note_on_c, 0, 74, 81
1, 3024, Note_on_c, 1, 50, 81
1, 3069, Note_on_c, 1, 50, 0
1, 3072, Note_on_c, 1, 38, 81
1, 3113, Note_on_c, 0, 74, 0
1, 3117, Note_on_c, 1, 38, 0
1, 3168, Note_on_c, 1, 45, 70
1, 3191, Note_on_c, 1, 45, 0
1, 3192, Note_on_c, 1, 57, 70
1, 3215, Note_on_c, 1, 57, 0
1, 3216, Note_on_c, 0, 81, 70
1, 3216, Note_on_c, 0, 77, 70
1, 3216, Note_on_c, 1, 56, 70
1, 3239, Note_on_c, 1, 56, 0
1, 3240, Note_on_c, 1, 57, 70
1, 3263, Note_on_c, 1, 57, 0
1, 3264, Note_on_c, 0, 81, 0
1, 3264, Note_on_c, 0, 77, 0
1, 3264, Note_on_c, 0, 79, 70
1, 3264, Note_on_c, 0, 76, 70
1, 3264, Note_on_c, 1, 45, 70
1, 3287, Note_on_c, 1, 45, 0
1, 3288, Note_on_c, 1, 57, 70
1, 3309, Note_on_c, 0, 79, 0
1, 3309, Note_on_c, 0, 76, 0
1, 3311, Note_on_c, 1, 57, 0
1, 3312, Note_on_c, 1, 45, 70
1, 3335, Note_on_c, 1, 45, 0
1, 3336, Note_on_c, 1, 57, 70
1, 3359, Note_on_c, 1, 57, 0
1, 3360, Note_on_c, 0, 77, 70
1, 3360, Note_on_c, 0, 74, 70
1, 3360, Note_on_c, 1, 56, 70
1, 3383, Note_on_c, 1, 56, 0
1, 3384, Note_on_c, 1, 57, 70
1, 3407, Note_on_c, 1, 57, 0
1, 3408, Note_on_c, 0, 77, 0
1, 3408, Note_on_c, 0, 74, 0
1, 3408, Note_on_c, 0, 76, 70
1, 3408, Note_on_c, 0, 73, 70
1, 3408, Note_on_c, 1, 45, 70
1, 3431, Note_on_c, 1, 45, 0
1, 3432, Note_on_c, 1, 57, 70
1, 3453, Note_on_c, 0, 76, 0
1, 3453, Note_on_c, 0, 73, 0
1, 3455, Note_on_c, 1, 57, 0
1, 3456, Note_on_c, 1, 45, 70
1, 3479, Note_on_c, 1, 45, 0
1, 3480, Note_on_c, 1, 57, 70
1, 3503, Note_on_c, 1, 57, 0
1, 3504, Note_on_c, 0, 77, 70
1, 3504, Note_on_c, 0, 69, 70
1, 3504, Note_on_c, 1, 56, 70
1, 3527, Note_on_c, 1, 56, 0
1, 3528, Note_on_c, 1, 57, 70
1, 3551, Note_on_c, 1, 57, 0
1, 3552, Note_on_c, 0, 77, 0
1, 3552, Note_on_c, 0, 69, 0
1, 3552, Note_on_c, 0, 76, 70
1, 3552, Note_on_c, 0, 67, 70
1, 3552, Note_on_c, 1, 45, 70
1, 3575, Note_on_c, 1, 45, 0
1, 3576, Note_on_c, 1, 57, 70
1, 3597, Note_on_c, 0, 76, 0
1, 3597, Note_on_c, 0, 67, 0
1, 3599, Note_on_c, 1, 57, 0
1, 3600, Note_on_c, 1, 45, 70
1, 3623, Note_on_c, 1, 45, 0
1, 3624, Note_on_c, 1, 57, 70
1, 3647, Note_on_c, 1, 57, 0
1, 3648, Note_on_c, 0, 65, 70
1, 3648, Note_on_c, 0, 62, 70
1, 3648, Note_on_c, 1, 56, 70
1, 3671, Note_on_c, 1, 56, 0
1, 3672, Note_on_c, 1, 57, 70
1, 3695, Note_on_c, 1, 57, 0
1, 3696, Note_on_c, 0, 65, 0
1, 3696, Note_on_c, 0, 62, 0
1, 3696, Note_on_c, 0, 64, 70
1, 3696, Note_on_c, 0, 61, 70
1, 3696, Note_on_c, 1, 45, 70
1, 3719, Note_on_c, 1, 45, 0
1, 3720, Note_on_c, 1, 57, 70
1, 3741, Note_on_c, 0, 64, 0
1, 3741, Note_on_c, 0, 61, 0
1, 3743, Note_on_c, 1, 57, 0
1, 3744, Note_on_c, 0, 76, 81
1, 3744, Note_on_c, 1, 54, 81
1, 3750, Note_on_c, 0, 76, 0
1, 3750, Note_on_c, 0, 74, 81
1, 3756, Note_on_c, 0, 74, 0
1, 3756, Note_on_c, 0, 73, 81
1, 3762, Note_on_c, 0, 73, 0
1, 3762, Note_on_c, 0, 74, 81
1, 3791, Note_on_c, 0, 74, 0
1, 3792, Note_on_c, 0, 62, 81
1, 3807, Note_on_c, 0, 62, 0
1, 3808, Note_on_c, 0, 66, 81
1, 3823, Note_on_c, 0, 66, 0
1, 3824, Note_on_c, 0, 69, 81
1, 3833, Note_on_c, 1, 54, 0
1, 3839, Note_on_c, 0, 69, 0
1, 3840, Note_on_c, 0, 74, 81
1, 3855, Note_on_c, 0, 74, 0
1, 3856, Note_on_c, 0, 78, 81
1, 3871, Note_on_c, 0, 78, 0
1, 3872, Note_on_c, 0, 81, 81
1, 3887, Note_on_c, 0, 81, 0
1, 3888, Note_on_c, 0, 83, 81
1, 3888, Note_on_c, 1, 55, 81
1, 3888, Note_on_c, 1, 43, 81
1, 3933, Note_on_c, 0, 83, 0
1, 3936, Note_on_c, 0, 74, 81
1, 3951, Note_on_c, 0, 74, 0
1, 3952, Note_on_c, 0, 79, 81
1, 3967, Note_on_c, 0, 79, 0
1, 3968, Note_on_c, 0, 83, 81
1, 3977, Note_on_c, 1, 55, 0
1, 3977, Note_on_c, 1, 43, 0
1, 3983, Note_on_c, 0, 83, 0
1, 3984, Note_on_c, 0, 86, 81
1, 3999, Note_on_c, 0, 86, 0
1, 4000, Note_on_c, 0, 85, 81
1, 4015, Note_on_c, 0, 85, 0
1, 4016, Note_on_c, 0, 83, 81
1, 4031, Note_on_c, 0, 83, 0
1, 4032, Note_on_c, 0, 81, 81
1, 4032, Note_on_c, 0, 45, 64
1, 4077, Note_on_c, 0, 81, 0
1, 4080, Note_on_c, 0, 74, 81
1, 4080, Note_on_c, 1, 54, 81
1, 4125, Note_on_c, 0, 74, 0
1, 4125, Note_on_c, 1, 54, 0
1, 4128, Note_on_c, 0, 73, 81
1, 4128, Note_on_c, 1, 52, 81
1, 4140, Note_on_c, 0, 73, 0
1, 4140, Note_on_c, 0, 74, 81
1, 4152, Note_on_c, 0, 74, 0
1, 4152, Note_on_c, 0, 73, 81
1, 4165, Note_on_c, 0, 45, 0
1, 4173, Note_on_c, 0, 73, 0
1, 4173, Note_on_c, 1, 52, 0
1, 4176, Note_on_c, 0, 74, 81
1, 4176, Note_on_c, 1, 38, 81
1, 4199, Note_on_c, 1, 38, 0
1, 4200, Note_on_c, 1, 50, 81
1, 4221, Note_on_c, 0, 74, 0
1, 4223, Note_on_c, 1, 50, 0
1, 4224, Note_on_c, 0, 74, 75
1, 4224, Note_on_c, 0, 71, 75
1, 4224, Note_on_c, 1, 38, 81
1, 4247, Note_on_c, 1, 38, 0
1, 4248, Note_on_c, 1, 50, 75
1, 4269, Note_on_c, 0, 74, 0
1, 4269, Note_on_c, 0, 71, 0
1, 4271, Note_on_c, 1, 50, 0
1, 4272, Note_on_c, 0, 73, 75
1, 4272, Note_on_c, 0, 69, 75
1, 4272, Note_on_c, 1, 38, 75
1, 4295, Note_on_c, 1, 38, 0
1, 4296, Note_on_c, 1, 50, 75
1, 4317, Note_on_c, 0, 73, 0
1, 4317, Note_on_c, 0, 69, 0
1, 4319, Note_on_c, 1, 50, 0
1, 4320, Note_on_c, 0, 71, 75
1, 4320, Note_on_c, 0, 67, 75
1, 4320, Note_on_c, 1, 38, 75
1, 4343, Note_on_c, 1, 38, 0
1, 4344, Note_on_c, 1, 50, 75
1, 4365, Note_on_c, 0, 71, 0
1, 4365, Note_on_c, 0, 67, 0
1, 4367, Note_on_c, 1, 50, 0
1, 4368, Note_on_c, 0, 69, 75
1, 4368, Note_on_c, 0, 66, 75
1, 4368, Note_on_c, 1, 38, 75
1, 4391, Note_on_c, 1, 38, 0
1, 4392, Note_on_c, 1, 50, 75
1, 4413, Note_on_c, 0, 69, 0
1, 4413, Note_on_c, 0, 66, 0
1, 4415, Note_on_c, 1, 50, 0
1, 4416, Note_on_c, 0, 67, 75
1, 4416, Note_on_c, 0, 64, 75
1, 4416, Note_on_c, 1, 38, 75
1, 4439, Note_on_c, 1, 38, 0
1, 4440, Note_on_c, 1, 50, 75
1, 4461, Note_on_c, 0, 67, 0
1, 4461, Note_on_c, 0, 64, 0
1, 4463, Note_on_c, 1, 50, 0
1, 4464, Note_on_c, 0, 66, 75
1, 4464, Note_on_c, 0, 62, 75
1, 4464, Note_on_c, 1, 38, 75
1, 4487, Note_on_c, 1, 38, 0
1, 4488, Note_on_c, 1, 50, 75
1, 4509, Note_on_c, 0, 66, 0
1, 4509, Note_on_c, 0, 62, 0
1, 4511, Note_on_c, 1, 50, 0
1, 4512, Note_on_c, 0, 71, 75
1, 4512, Note_on_c, 0, 67, 75
1, 4512, Note_on_c, 1, 38, 75
1, 4535, Note_on_c, 1, 38, 0
1, 4536, Note_on_c, 1, 50, 75
1, 4557, Note_on_c, 0, 71, 0
1, 4557, Note_on_c, 0, 67, 0
1, 4559, Note_on_c, 1, 50, 0
1, 4560, Note_on_c, 0, 69, 75
1, 4560, Note_on_c, 0, 66, 75
1, 4560, Note_on_c, 1, 38, 75
1, 4583, Note_on_c, 1, 38, 0
1, 4584, Note_on_c, 1, 50, 75
1, 4605, Note_on_c, 0, 69, 0
1, 4605, Note_on_c, 0, 66, 0
1, 4607, Note_on_c, 1, 50, 0
1, 4608, Note_on_c, 0, 67, 75
1, 4608, Note_on_c, 0, 64, 75
1, 4608, Note_on_c, 1, 38, 75
1, 4631, Note_on_c, 1, 38, 0
1, 4632, Note_on_c, 1, 50, 75
1, 4653, Note_on_c, 0, 67, 0
1, 4653, Note_on_c, 0, 64, 0
1, 4655, Note_on_c, 1, 50, 0
1, 4656, Note_on_c, 0, 66, 75
1, 4656, Note_on_c, 0, 62, 75
1, 4656, Note_on_c, 1, 38, 75
1, 4679, Note_on_c, 1, 38, 0
1, 4680, Note_on_c, 1, 50, 75
1, 4701, Note_on_c, 0, 66, 0
1, 4701, Note_on_c, 0, 62, 0
1, 4703, Note_on_c, 1, 50, 0
1, 4704, Note_on_c, 0, 64, 75
1, 4704, Note_on_c, 0, 61, 75
1, 4704, Note_on_c, 1, 38, 75
1, 4727, Note_on_c, 1, 38, 0
1, 4728, Note_on_c, 1, 50, 75
1, 4749, Note_on_c, 0, 64, 0
1, 4749, Note_on_c, 0, 61, 0
1, 4751, Note_on_c, 1, 50, 0
1, 4752, Note_on_c, 0, 66, 75
1, 4752, Note_on_c, 0, 62, 75
1, 4752, Note_on_c, 0, 57, 75
1, 4752, Note_on_c, 1, 38, 75
1, 4841, Note_on_c, 0, 66, 0
1, 4841, Note_on_c, 0, 62, 0
1, 4841, Note_on_c, 0, 57, 0
1, 4841, Note_on_c, 1, 38, 0
1, 4896, Note_on_c, 0, 67, 75
1, 4896, Note_on_c, 1, 59, 64
1, 4896, Note_on_c, 1, 55, 64
1, 4941, Note_on_c, 0, 67, 0
1, 4944, Note_on_c, 0, 72, 75
1, 4967, Note_on_c, 0, 72, 0
1, 4968, Note_on_c, 0, 71, 75
1, 4985, Note_on_c, 1, 59, 0
1, 4985, Note_on_c, 1, 55, 0
1, 4991, Note_on_c, 0, 71, 0
1, 4992, Note_on_c, 0, 76, 75
1, 5015, Note_on_c, 0, 76, 0
1, 5016, Note_on_c, 0, 74, 75
1, 5039, Note_on_c, 0, 74, 0
1, 5040, Note_on_c, 0, 74, 75
1, 5040, Note_on_c, 1, 59, 64
1, 5040, Note_on_c, 1, 55, 64
1, 5063, Note_on_c, 0, 74, 0
1, 5064, Note_on_c, 0, 79, 75
1, 5085, Note_on_c, 1, 59, 0
1, 5085, Note_on_c, 1, 55, 0
1, 5087, Note_on_c, 0, 79, 0
1, 5088, Note_on_c, 0, 74, 75
1, 5088, Note_on_c, 1, 59, 64
1, 5088, Note_on_c, 1, 55, 64
1, 5133, Note_on_c, 0, 74, 0
1, 5133, Note_on_c, 1, 59, 0
1, 5133, Note_on_c, 1, 55, 0
1, 5136, Note_on_c, 1, 59, 64
1, 5136, Note_on_c, 1, 55, 64
1, 5181, Note_on_c, 1, 59, 0
1, 5181, Note_on_c, 1, 55, 0
1, 5184, Note_on_c, 0, 76, 75
1, 5184, Note_on_c, 1, 60, 64
1, 5184, Note_on_c, 1, 55, 64
1, 5207, Note_on_c, 0, 76, 0
1, 5208, Note_on_c, 0, 79, 75
1, 5229, Note_on_c, 1, 60, 0
1, 5229, Note_on_c, 1, 55, 0
1, 5231, Note_on_c, 0, 79, 0
1, 5232, Note_on_c, 0, 76, 75
1, 5232, Note_on_c, 1, 60, 64
1, 5232, Note_on_c, 1, 55, 64
1, 5277, Note_on_c, 0, 76, 0
1, 5277, Note_on_c, 1, 60, 0
1, 5277, Note_on_c, 1, 55, 0
1, 5280, Note_on_c, 1, 60, 64
1, 5280, Note_on_c, 1, 55, 64
1, 5325, Note_on_c, 1, 60, 0
1, 5325, Note_on_c, 1, 55, 0
1, 5328, Note_on_c, 0, 74, 75
1, 5351, Note_on_c, 0, 74, 0
1, 5352, Note_on_c, 0, 78, 75
1, 5375, Note_on_c, 0, 78, 0
1, 5376, Note_on_c, 0, 81, 75
1, 5376, Note_on_c, 1, 54, 64
1, 5399, Note_on_c, 0, 81, 0
1, 5400, Note_on_c, 0, 84, 75
1, 5421, Note_on_c, 1, 54, 0
1, 5423, Note_on_c, 0, 84, 0
1, 5424, Note_on_c, 0, 83, 75
1, 5424, Note_on_c, 1, 55, 64
1, 5447, Note_on_c, 0, 83, 0
1, 5448, Note_on_c, 0, 79, 75
1, 5469, Note_on_c, 1, 55, 0
1, 5471, Note_on_c, 0, 79, 0
1, 5472, Note_on_c, 0, 74, 75
1, 5472, Note_on_c, 1, 59, 64
1, 5472, Note_on_c, 0, 50, 64
1, 5517, Note_on_c, 0, 74, 0
1, 5517, Note_on_c, 1, 59, 0
1, 5520, Note_on_c, 0, 72, 75
1, 5520, Note_on_c, 1, 57, 64
1, 5532, Note_on_c, 0, 72, 0
1, 5532, Note_on_c, 0, 74, 75
1, 5544, Note_on_c, 0, 74, 0
1, 5544, Note_on_c, 0, 72, 75
1, 5561, Note_on_c, 0, 50, 0
1, 5565, Note_on_c, 0, 72, 0
1, 5565, Note_on_c, 1, 57, 0
1, 5568, Note_on_c, 0, 71, 75
1, 5568, Note_on_c, 1, 55, 64
1, 5568, Note_on_c, 0, 55, 64
1, 5613, Note_on_c, 0, 71, 0
1, 5613, Note_on_c, 1, 55, 0
1, 5613, Note_on_c, 0, 55, 0
1, 5616, Note_on_c, 0, 74, 75
1, 5639, Note_on_c, 0, 74, 0
1, 5640, Note_on_c, 0, 78, 75
1, 5663, Note_on_c, 0, 78, 0
1, 5664, Note_on_c, 0, 81, 75
1, 5664, Note_on_c, 1, 54, 64
1, 5687, Note_on_c, 0, 81, 0
1, 5688, Note_on_c, 0, 84, 75
1, 5709, Note_on_c, 1, 54, 0
1, 5711, Note_on_c, 0, 84, 0
1, 5712, Note_on_c, 0, 83, 75
1, 5712, Note_on_c, 1, 55, 64
1, 5735, Note_on_c, 0, 83, 0
1, 5736, Note_on_c, 0, 79, 75
1, 5757, Note_on_c, 1, 55, 0
1, 5759, Note_on_c, 0, 79, 0
1, 5760, Note_on_c, 0, 86, 75
1, 5760, Note_on_c, 0, 50, 64
1, 5783, Note_on_c, 0, 86, 0
1, 5784, Note_on_c, 0, 81, 75
1, 5807, Note_on_c, 0, 81, 0
1, 5808, Note_on_c, 0, 78, 75
1, 5808, Note_on_c, 1, 60, 64
1, 5831, Note_on_c, 0, 78, 0
1, 5832, Note_on_c, 0, 74, 75
1, 5853, Note_on_c, 1, 60, 0
1, 5855, Note_on_c, 0, 74, 0
1, 5856, Note_on_c, 0, 79, 75
1, 5856, Note_on_c, 1, 59, 64
1, 5879, Note_on_c, 0, 79, 0
1, 5880, Note_on_c, 0, 83, 75
1, 5893, Note_on_c, 0, 50, 0
1, 5901, Note_on_c, 1, 59, 0
1, 5903, Note_on_c, 0, 83, 0
1, 5904, Note_on_c, 0, 74, 75
1, 5904, Note_on_c, 1, 57, 64
1, 5904, Note_on_c, 0, 50, 64
1, 5927, Note_on_c, 0, 74, 0
1, 5928, Note_on_c, 0, 72, 75
1, 5949, Note_on_c, 1, 57, 0
1, 5951, Note_on_c, 0, 72, 0
1, 5952, Note_on_c, 0, 81, 75
1, 5952, Note_on_c, 1, 54, 64
1, 5975, Note_on_c, 0, 81, 0
1, 5976, Note_on_c, 0, 72, 75
1, 5997, Note_on_c, 1, 54, 0
1, 5999, Note_on_c, 0, 72, 0
1, 6000, Note_on_c, 0, 71, 75
1, 6000, Note_on_c, 1, 55, 64
1, 6023, Note_on_c, 0, 71, 0
1, 6024, Note_on_c, 0, 79, 75
1, 6037, Note_on_c, 0, 50, 0
1, 6045, Note_on_c, 1, 55, 0
1, 6047, Note_on_c, 0, 79, 0
1, 6048, Note_on_c, 0, 74, 75
1, 6048, Note_on_c, 1, 57, 64
1, 6048, Note_on_c, 0, 50, 64
1, 6071, Note_on_c, 0, 74, 0
1, 6072, Note_on_c, 0, 72, 75
1, 6093, Note_on_c, 1, 57, 0
1, 6095, Note_on_c, 0, 72, 0
1, 6096, Note_on_c, 0, 81, 75
1, 6096, Note_on_c, 1, 54, 64
1, 6119, Note_on_c, 0, 81, 0
1, 6120, Note_on_c, 0, 72, 75
1, 6141, Note_on_c, 1, 54, 0
1, 6143, Note_on_c, 0, 72, 0
1, 6144, Note_on_c, 0, 71, 75
1, 6144, Note_on_c, 1, 55, 64
1, 6167, Note_on_c, 0, 71, 0
1, 6168, Note_on_c, 0, 79, 75
1, 6181, Note_on_c, 0, 50, 0
1, 6189, Note_on_c, 1, 55, 0
1, 6191, Note_on_c, 0, 79, 0
1, 6192, Note_on_c, 0, 71, 75
1, 6192, Note_on_c, 1, 55, 64
1, 6192, Note_on_c, 0, 50, 64
1, 6204, Note_on_c, 0, 71, 0
1, 6204, Note_on_c, 0, 72, 75
1, 6216, Note_on_c, 0, 72, 0
1, 6216, Note_on_c, 0, 71, 75
1, 6237, Note_on_c, 0, 71, 0
1, 6237, Note_on_c, 1, 55, 0
1, 6240, Note_on_c, 0, 69, 75
1, 6240, Note_on_c, 1, 54, 64
1, 6281, Note_on_c, 0, 50, 0
1, 6285, Note_on_c, 0, 69, 0
1, 6285, Note_on_c, 1, 54, 0
1, 6336, Note_on_c, 0, 76, 81
1, 6336, Note_on_c, 1, 57, 81
1, 6336, Note_on_c, 1, 54, 81
1, 6336, Note_on_c, 1, 50, 81
1, 6342, Note_on_c, 0, 76, 0
1, 6342, Note_on_c, 0, 74, 81
1, 6348, Note_on_c, 0, 74, 0
1, 6348, Note_on_c, 0, 73, 81
1, 6354, Note_on_c, 0, 73, 0
1, 6354, Note_on_c, 0, 74, 81
1, 6381, Note_on_c, 1, 57, 0
1, 6381, Note_on_c, 1, 54, 0
1, 6381, Note_on_c, 1, 50, 0
1, 6383, Note_on_c, 0, 74, 0
1, 6384, Note_on_c, 0, 62, 81
1, 6399, Note_on_c, 0, 62, 0
1, 6400, Note_on_c, 0, 66, 81
1, 6415, Note_on_c, 0, 66, 0
1, 6416, Note_on_c, 0, 69, 81
1, 6431, Note_on_c, 0, 69, 0
1, 6432, Note_on_c, 0, 74, 81
1, 6447, Note_on_c, 0, 74, 0
1, 6448, Note_on_c, 0, 78, 81
1, 6463, Note_on_c, 0, 78, 0
1, 6464, Note_on_c, 0, 81, 81
1, 6479, Note_on_c, 0, 81, 0
1, 6480, Note_on_c, 0, 79, 81
1, 6480, Note_on_c, 1, 57, 81
1, 6480, Note_on_c, 1, 52, 81
1, 6480, Note_on_c, 1, 49, 81
1, 6495, Note_on_c, 0, 79, 0
1, 6496, Note_on_c, 0, 78, 81
1, 6511, Note_on_c, 0, 78, 0
1, 6512, Note_on_c, 0, 76, 81
1, 6525, Note_on_c, 1, 57, 0
1, 6525, Note_on_c, 1, 52, 0
1, 6525, Note_on_c, 1, 49, 0
1, 6527, Note_on_c, 0, 76, 0
1, 6528, Note_on_c, 0, 74, 81
1, 6543, Note_on_c, 0, 74, 0
1, 6544, Note_on_c, 0, 73, 81
1, 6559, Note_on_c, 0, 73, 0
1, 6560, Note_on_c, 0, 71, 81
1, 6575, Note_on_c, 0, 71, 0
1, 6576, Note_on_c, 0, 69, 81
1, 6591, Note_on_c, 0, 69, 0
1, 6592, Note_on_c, 0, 76, 81
1, 6607, Note_on_c, 0, 76, 0
1, 6608, Note_on_c, 0, 79, 81
1, 6623, Note_on_c, 0, 79, 0
1, 6624, Note_on_c, 0, 78, 81
1, 6624, Note_on_c, 1, 57, 81
1, 6624, Note_on_c, 1, 54, 81
1, 6624, Note_on_c, 1, 50, 81
1, 6669, Note_on_c, 0, 78, 0
1, 6669, Note_on_c, 1, 57, 0
1, 6669, Note_on_c, 1, 54, 0
1, 6669, Note_on_c, 1, 50, 0
1, 6672, Note_on_c, 0, 62, 81
1, 6687, Note_on_c, 0, 62, 0
1, 6688, Note_on_c, 0, 66, 81
1, 6703, Note_on_c, 0, 66, 0
1, 6704, Note_on_c, 0, 69, 81
1, 6719, Note_on_c, 0, 69, 0
1, 6720, Note_on_c, 0, 74, 81
1, 6735, Note_on_c, 0, 74, 0
1, 6736, Note_on_c, 0, 78, 81
1, 6751, Note_on_c, 0, 78, 0
1, 6752, Note_on_c, 0, 81, 81
1, 6767, Note_on_c, 0, 81, 0
1, 6768, Note_on_c, 0, 79, 81
1, 6768, Note_on_c, 1, 57, 81
1, 6768, Note_on_c, 1, 52, 81
1, 6768, Note_on_c, 1, 49, 81
1, 6783, Note_on_c, 0, 79, 0
1, 6784, Note_on_c, 0, 78, 81
1, 6799, Note_on_c, 0, 78, 0
1, 6800, Note_on_c, 0, 76, 81
1, 6813, Note_on_c, 1, 57, 0
1, 6813, Note_on_c, 1, 52, 0
1, 6813, Note_on_c, 1, 49, 0
1, 6815, Note_on_c, 0, 76, 0
1, 6816, Note_on_c, 0, 74, 81
1, 6831, Note_on_c, 0, 74, 0
1, 6832, Note_on_c, 0, 73, 81
1, 6847, Note_on_c, 0, 73, 0
1, 6848, Note_on_c, 0, 71, 81
1, 6863, Note_on_c, 0, 71, 0
1, 6864, Note_on_c, 0, 69, 81
1, 6879, Note_on_c, 0, 69, 0
1, 6880, Note_on_c, 0, 76, 81
1, 6895, Note_on_c, 0, 76, 0
1, 6896, Note_on_c, 0, 79, 81
1, 6911, Note_on_c, 0, 79, 0
1, 6912, Note_on_c, 0, 78, 81
1, 6912, Note_on_c, 1, 57, 81
1, 6912, Note_on_c, 1, 54, 81
1, 6912, Note_on_c, 1, 50, 81
1, 6957, Note_on_c, 0, 78, 0
1, 6957, Note_on_c, 1, 57, 0
1, 6957, Note_on_c, 1, 54, 0
1, 6957, Note_on_c, 1, 50, 0
1, 6960, Note_on_c, 1, 66, 75
1, 6976, Note_on_c, 0, 69, 75
1, 6991, Note_on_c, 0, 69, 0
1, 6992, Note_on_c, 0, 74, 75
1, 7005, Note_on_c, 1, 66, 0
1, 7007, Note_on_c, 0, 74, 0
1, 7008, Note_on_c, 1, 69, 75
1, 7024, Note_on_c, 0, 74, 75
1, 7039, Note_on_c, 0, 74, 0
1, 7040, Note_on_c, 0, 78, 75
1, 7053, Note_on_c, 1, 69, 0
1, 7055, Note_on_c, 0, 78, 0
1, 7056, Note_on_c, 1, 74, 75
1, 7072, Note_on_c, 0, 78, 75
1, 7087, Note_on_c, 0, 78, 0
1, 7088, Note_on_c, 0, 81, 75
1, 7101, Note_on_c, 1, 74, 0
1, 7103, Note_on_c, 0, 81, 0
1, 7104, Note_on_c, 1, 69, 75
1, 7120, Note_on_c, 0, 74, 75
1, 7135, Note_on_c, 0, 74, 0
1, 7136, Note_on_c, 0, 78, 75
1, 7149, Note_on_c, 1, 69, 0
1, 7151, Note_on_c, 0, 78, 0
1, 7152, Note_on_c, 1, 66, 75
1, 7168, Note_on_c, 0, 69, 75
1, 7183, Note_on_c, 0, 69, 0
1, 7184, Note_on_c, 0, 74, 75
1, 7197, Note_on_c, 1, 66, 0
1, 7199, Note_on_c, 0, 74, 0
1, 7200, Note_on_c, 1, 57, 75
1, 7216, Note_on_c, 0, 64, 75
1, 7231, Note_on_c, 0, 64, 0
1, 7232, Note_on_c, 0, 67, 75
1, 7245, Note_on_c, 1, 57, 0
1, 7247, Note_on_c, 0, 67, 0
1, 7248, Note_on_c, 1, 64, 75
1, 7264, Note_on_c, 0, 67, 75
1, 7279, Note_on_c, 0, 67, 0
1, 7280, Note_on_c, 0, 73, 75
1, 7293, Note_on_c, 1, 64, 0
1, 7295, Note_on_c, 0, 73, 0
1, 7296, Note_on_c, 1, 67, 75
1, 7312, Note_on_c, 0, 73, 75
1, 7327, Note_on_c, 0, 73, 0
1, 7328, Note_on_c, 0, 76, 75
1, 7341, Note_on_c, 1, 67, 0
1, 7343, Note_on_c, 0, 76, 0
1, 7344, Note_on_c, 1, 73, 75
1, 7360, Note_on_c, 0, 76, 75
1, 7375, Note_on_c, 0, 76, 0
1, 7376, Note_on_c, 0, 79, 75
1, 7389, Note_on_c, 1, 73, 0
1, 7391, Note_on_c, 0, 79, 0
1, 7392, Note_on_c, 1, 67, 75
1, 7408, Note_on_c, 0, 73, 75
1, 7423, Note_on_c, 0, 73, 0
1, 7424, Note_on_c, 0, 76, 75
1, 7437, Note_on_c, 1, 67, 0
1, 7439, Note_on_c, 0, 76, 0
1, 7440, Note_on_c, 1, 64, 75
1, 7456, Note_on_c, 0, 67, 75
1, 7471, Note_on_c, 0, 67, 0
1, 7472, Note_on_c, 0, 73, 75
1, 7485, Note_on_c, 1, 64, 0
1, 7487, Note_on_c, 0, 73, 0
1, 7488, Note_on_c, 1, 54, 81
1, 7488, Note_on_c, 1, 42, 81
1, 7536, Note_on_c, 0, 69, 81
1, 7551, Note_on_c, 0, 69, 0
1, 7552, Note_on_c, 0, 71, 81
1, 7567, Note_on_c, 0, 71, 0
1, 7568, Note_on_c, 0, 73, 81
1, 7583, Note_on_c, 0, 73, 0
1, 7584, Note_on_c, 0, 74, 81
1, 7599, Note_on_c, 0, 74, 0
1, 7600, Note_on_c, 0, 76, 81
1, 7615, Note_on_c, 0, 76, 0
1, 7616, Note_on_c, 0, 78, 81
1, 7621, Note_on_c, 1, 54, 0
1, 7621, Note_on_c, 1, 42, 0
1, 7631, Note_on_c, 0, 78, 0
1, 7632, Note_on_c, 0, 71, 81
1, 7632, Note_on_c, 1, 55, 81
1, 7632, Note_on_c, 1, 43, 81
1, 7677, Note_on_c, 0, 71, 0
1, 7680, Note_on_c, 0, 79, 81
1, 7695, Note_on_c, 0, 79, 0
1, 7696, Note_on_c, 0, 78, 81
1, 7711, Note_on_c, 0, 78, 0
1, 7712, Note_on_c, 0, 76, 81
1, 7727, Note_on_c, 0, 76, 0
1, 7728, Note_on_c, 0, 83, 81
1, 7743, Note_on_c, 0, 83, 0
1, 7744, Note_on_c, 0, 81, 81
1, 7759, Note_on_c, 0, 81, 0
1, 7760, Note_on_c, 0, 79, 81
1, 7765, Note_on_c, 1, 55, 0
1, 7765, Note_on_c, 1, 43, 0
1, 7775, Note_on_c, 0, 79, 0
1, 7776, Note_on_c, 0, 78, 81
1, 7776, Note_on_c, 0, 45, 64
1, 7791, Note_on_c, 0, 78, 0
1, 7792, Note_on_c, 0, 79, 81
1, 7807, Note_on_c, 0, 79, 0
1, 7808, Note_on_c, 0, 81, 81
1, 7823, Note_on_c, 0, 81, 0
1, 7824, Note_on_c, 0, 74, 81
1, 7824, Note_on_c, 1, 54, 81
1, 7869, Note_on_c, 0, 74, 0
1, 7869, Note_on_c, 1, 54, 0
1, 7872, Note_on_c, 0, 73, 81
1, 7872, Note_on_c, 1, 52, 81
1, 7884, Note_on_c, 0, 73, 0
1, 7884, Note_on_c, 0, 74, 81
1, 7896, Note_on_c, 0, 74, 0
1, 7896, Note_on_c, 0, 73, 81
1, 7909, Note_on_c, 0, 45, 0
1, 7917, Note_on_c, 0, 73, 0
1, 7917, Note_on_c, 1, 52, 0
1, 7920, Note_on_c, 0, 74, 81
1, 7920, Note_on_c, 1, 50, 81
1, 7965, Note_on_c, 1, 50, 0
1, 7968, Note_on_c, 1, 38, 81
1, 8009, Note_on_c, 0, 74, 0
1, 8013, Note_on_c, 1, 38, 0
1, 8064, Note_on_c, 1, 45, 70
1, 8087, Note_on_c, 1, 45, 0
1, 8088, Note_on_c, 1, 57, 70
1, 8111, Note_on_c, 1, 57, 0
1, 8112, Note_on_c, 0, 81, 70
1, 8112, Note_on_c, 0, 77, 70
1, 8112, Note_on_c, 1, 56, 70
1, 8135, Note_on_c, 1, 56, 0
1, 8136, Note_on_c, 1, 57, 70
1, 8159, Note_on_c, 1, 57, 0
1, 8160, Note_on_c, 0, 81, 0
1, 8160, Note_on_c, 0, 77, 0
1, 8160, Note_on_c, 0, 79, 70
1, 8160, Note_on_c, 0, 76, 70
1, 8160, Note_on_c, 1, 45, 70
1, 8183, Note_on_c, 1, 45, 0
1, 8184, Note_on_c, 1, 57, 70
1, 8205, Note_on_c, 0, 79, 0
1, 8205, Note_on_c, 0, 76, 0
1, 8207, Note_on_c, 1, 57, 0
1, 8208, Note_on_c, 1, 45, 70
1, 8231, Note_on_c, 1, 45, 0
1, 8232, Note_on_c, 1, 57, 70
1, 8255, Note_on_c, 1, 57, 0
1, 8256, Note_on_c, 0, 77, 70
1, 8256, Note_on_c, 0, 74, 70
1, 8256, Note_on_c, 1, 56, 70
1, 8279, Note_on_c, 1, 56, 0
1, 8280, Note_on_c, 1, 57, 70
1, 8303, Note_on_c, 1, 57, 0
1, 8304, Note_on_c, 0, 77, 0
1, 8304, Note_on_c, 0, 74, 0
1, 8304, Note_on_c, 0, 76, 70
1, 8304, Note_on_c, 0, 73, 70
1, 8304, Note_on_c, 1, 45, 70
1, 8327, Note_on_c, 1, 45, 0
1, 8328, Note_on_c, 1, 57, 70
1, 8349, Note_on_c, 0, 76, 0
1, 8349, Note_on_c, 0, 73, 0
1, 8351, Note_on_c, 1, 57, 0
1, 8352, Note_on_c, 1, 45, 70
1, 8375, Note_on_c, 1, 45, 0
1, 8376, Note_on_c, 1, 57, 70
1, 8399, Note_on_c, 1, 57, 0
1, 8400, Note_on_c, 0, 77, 70
1, 8400, Note_on_c, 0, 69, 70
1, 8400, Note_on_c, 1, 56, 70
1, 8423, Note_on_c, 1, 56, 0
1, 8424, Note_on_c, 1, 57, 70
1, 8447, Note_on_c, 1, 57, 0
1, 8448, Note_on_c, 0, 77, 0
1, 8448, Note_on_c, 0, 69, 0
1, 8448, Note_on_c, 0, 76, 70
1, 8448, Note_on_c, 0, 67, 70
1, 8448, Note_on_c, 1, 45, 70
1, 8471, Note_on_c, 1, 45, 0
1, 8472, Note_on_c, 1, 57, 70
1, 8493, Note_on_c, 0, 76, 0
1, 8493, Note_on_c, 0, 67, 0
1, 8495, Note_on_c, 1, 57, 0
1, 8496, Note_on_c, 1, 45, 70
1, 8519, Note_on_c, 1, 45, 0
1, 8520, Note_on_c, 1, 57, 70
1, 8543, Note_on_c, 1, 57, 0
1, 8544, Note_on_c, 0, 65, 70
1, 8544, Note_on_c, 0, 62, 70
1, 8544, Note_on_c, 1, 56, 70
1, 8567, Note_on_c, 1, 56, 0
1, 8568, Note_on_c, 1, 57, 70
1, 8591, Note_on_c, 1, 57, 0
1, 8592, Note_on_c, 0, 65, 0
1, 8592, Note_on_c, 0, 62, 0
1, 8592, Note_on_c, 0, 64, 70
1, 8592, Note_on_c, 0, 61, 70
1, 8592, Note_on_c, 1, 45, 70
1, 8615, Note_on_c, 1, 45, 0
1, 8616, Note_on_c, 1, 57, 70
1, 8637, Note_on_c, 0, 64, 0
1, 8637, Note_on_c, 0, 61, 0
1, 8639, Note_on_c, 1, 57, 0
1, 8640, Note_on_c, 0, 76, 81
1, 8640, Note_on_c, 1, 54, 81
1, 8646, Note_on_c, 0, 76, 0
1, 8646, Note_on_c, 0, 74, 81
1, 8652, Note_on_c, 0, 74, 0
1, 8652, Note_on_c, 0, 73, 81
1, 8658, Note_on_c, 0, 73, 0
1, 8658, Note_on_c, 0, 74, 81
1, 8687, Note_on_c, 0, 74, 0
1, 8688, Note_on_c, 0, 62, 81
1, 8703, Note_on_c, 0, 62, 0
1, 8704, Note_on_c, 0, 66, 81
1, 8719, Note_on_c, 0, 66, 0
1, 8720, Note_on_c, 0, 69, 81
1, 8729, Note_on_c, 1, 54, 0
1, 8735, Note_on_c, 0, 69, 0
1, 8736, Note_on_c, 0, 74, 81
1, 8751, Note_on_c, 0, 74, 0
1, 8752, Note_on_c, 0, 78, 81
1, 8767, Note_on_c, 0, 78, 0
1, 8768, Note_on_c, 0, 81, 81
1, 8783, Note_on_c, 0, 81, 0
1, 8784, Note_on_c, 0, 83, 81
1, 8784, Note_on_c, 1, 55, 81
1, 8784, Note_on_c, 1, 43, 81
1, 8829, Note_on_c, 0, 83, 0
1, 8832, Note_on_c, 0, 74, 81
1, 8847, Note_on_c, 0, 74, 0
1, 8848, Note_on_c, 0, 79, 81
1, 8863, Note_on_c, 0, 79, 0
1, 8864, Note_on_c, 0, 83, 81
1, 8873, Note_on_c, 1, 55, 0
1, 8873, Note_on_c, 1, 43, 0
1, 8879, Note_on_c, 0, 83, 0
1, 8880, Note_on_c, 0, 86, 81
1, 8895, Note_on_c, 0, 86, 0
1, 8896, Note_on_c, 0, 85, 81
1, 8911, Note_on_c, 0, 85, 0
1, 8912, Note_on_c, 0, 83, 81
1, 8927, Note_on_c, 0, 83, 0
1, 8928, Note_on_c, 0, 81, 81
1, 8928, Note_on_c, 0, 45, 64
1, 8973, Note_on_c, 0, 81, 0
1, 8976, Note_on_c, 0, 74, 81
1, 8976, Note_on_c, 1, 54, 81
1, 9021, Note_on_c, 0, 74, 0
1, 9021, Note_on_c, 1, 54, 0
1, 9024, Note_on_c, 0, 73, 81
1, 9024, Note_on_c, 1, 52, 81
1, 9036, Note_on_c, 0, 73, 0
1, 9036, Note_on_c, 0, 74, 81
1, 9048, Note_on_c, 0, 74, 0
1, 9048, Note_on_c, 0, 73, 81
1, 9061, Note_on_c, 0, 45, 0
1, 9069, Note_on_c, 0, 73, 0
1, 9069, Note_on_c, 1, 52, 0
1, 9072, Note_on_c, 0, 74, 81
1, 9072, Note_on_c, 1, 38, 81
1, 9095, Note_on_c, 1, 38, 0
1, 9096, Note_on_c, 1, 50, 81
1, 9117, Note_on_c, 0, 74, 0
1, 9119, Note_on_c, 1, 50, 0
1, 9120, Note_on_c, 0, 74, 75
1, 9120, Note_on_c, 0, 71, 75
1, 9120, Note_on_c, 1, 38, 81
1, 9143, Note_on_c, 1, 38, 0
1, 9144, Note_on_c, 1, 50, 75
1, 9165, Note_on_c, 0, 74, 0
1, 9165, Note_on_c, 0, 71, 0
1, 9167, Note_on_c, 1, 50, 0
1, 9168, Note_on_c, 0, 73, 75
1, 9168, Note_on_c, 0, 69, 75
1, 9168, Note_on_c, 1, 38, 75
1, 9191, Note_on_c, 1, 38, 0
1, 9192, Note_on_c, 1, 50, 75
1, 9213, Note_on_c, 0, 73, 0
1, 9213, Note_on_c, 0, 69, 0
1, 9215, Note_on_c, 1, 50, 0
1, 9216, Note_on_c, 0, 71, 75
1, 9216, Note_on_c, 0, 67, 75
1, 9216, Note_on_c, 1, 38, 75
1, 9239, Note_on_c, 1, 38, 0
1, 9240, Note_on_c, 1, 50, 75
1, 9261, Note_on_c, 0, 71, 0
1, 9261, Note_on_c, 0, 67, 0
1, 9263, Note_on_c, 1, 50, 0
1, 9264, Note_on_c, 0, 69, 75
1, 9264, Note_on_c, 0, 66, 75
1, 9264, Note_on_c, 1, 38, 75
1, 9287, Note_on_c, 1, 38, 0
1, 9288, Note_on_c, 1, 50, 75
1, 9309, Note_on_c, 0, 69, 0
1, 9309, Note_on_c, 0, 66, 0
1, 9311, Note_on_c, 1, 50, 0
1, 9312, Note_on_c, 0, 67, 75
1, 9312, Note_on_c, 0, 64, 75
1, 9312, Note_on_c, 1, 38, 75
1, 9335, Note_on_c, 1, 38, 0
1, 9336, Note_on_c, 1, 50, 75
1, 9357, Note_on_c, 0, 67, 0
1, 9357, Note_on_c, 0, 64, 0
1, 9359, Note_on_c, 1, 50, 0
1, 9360, Note_on_c, 0, 66, 75
1, 9360, Note_on_c, 0, 62, 75
1, 9360, Note_on_c, 1, 38, 75
1, 9383, Note_on_c, 1, 38, 0
1, 9384, Note_on_c, 1, 50, 75
1, 9405, Note_on_c, 0, 66, 0
1, 9405, Note_on_c, 0, 62, 0
1, 9407, Note_on_c, 1, 50, 0
1, 9408, Note_on_c, 0, 71, 75
1, 9408, Note_on_c, 0, 67, 75
1, 9408, Note_on_c, 1, 38, 75
1, 9431, Note_on_c, 1, 38, 0
1, 9432, Note_on_c, 1, 50, 75
1, 9453, Note_on_c, 0, 71, 0
1, 9453, Note_on_c, 0, 67, 0
1, 9455, Note_on_c, 1, 50, 0
1, 9456, Note_on_c, 0, 69, 75
1, 9456, Note_on_c, 0, 66, 75
1, 9456, Note_on_c, 1, 38, 75
1, 9479, Note_on_c, 1, 38, 0
1, 9480, Note_on_c, 1, 50, 75
1, 9501, Note_on_c, 0, 69, 0
1, 9501, Note_on_c, 0, 66, 0
1, 9503, Note_on_c, 1, 50, 0
1, 9504, Note_on_c, 0, 67, 75
1, 9504, Note_on_c, 0, 64, 75
1, 9504, Note_on_c, 1, 38, 75
1, 9527, Note_on_c, 1, 38, 0
1, 9528, Note_on_c, 1, 50, 75
1, 9549, Note_on_c, 0, 67, 0
1, 9549, Note_on_c, 0, 64, 0
1, 9551, Note_on_c, 1, 50, 0
1, 9552, Note_on_c, 0, 66, 75
1, 9552, Note_on_c, 0, 62, 75
1, 9552, Note_on_c, 1, 38, 75
1, 9575, Note_on_c, 1, 38, 0
1, 9576, Note_on_c, 1, 50, 75
1, 9597, Note_on_c, 0, 66, 0
1, 9597, Note_on_c, 0, 62, 0
1, 9599, Note_on_c, 1, 50, 0
1, 9600, Note_on_c, 0, 64, 75
1, 9600, Note_on_c, 0, 61, 75
1, 9600, Note_on_c, 1, 38, 75
1, 9623, Note_on_c, 1, 38, 0
1, 9624, Note_on_c, 1, 50, 75
1, 9645, Note_on_c, 0, 64, 0
1, 9645, Note_on_c, 0, 61, 0
1, 9647, Note_on_c, 1, 50, 0
1, 9648, Note_on_c, 0, 66, 75
1, 9648, Note_on_c, 0, 62, 75
1, 9648, Note_on_c, 0, 57, 75
1, 9648, Note_on_c, 1, 38, 75
1, 9737, Note_on_c, 0, 66, 0
1, 9737, Note_on_c, 0, 62, 0
1, 9737, Note_on_c, 0, 57, 0
1, 9737, Note_on_c, 1, 38, 0
1, 9792, Note_on_c, 0, 74, 75
1, 9792, Note_on_c, 1, 66, 75
1, 9792, Note_on_c, 1, 62, 75
1, 9837, Note_on_c, 0, 74, 0
1, 9840, Note_on_c, 0, 79, 75
1, 9863, Note_on_c, 0, 79, 0
1, 9864, Note_on_c, 0, 78, 75
1, 9881, Note_on_c, 1, 66, 0
1, 9881, Note_on_c, 1, 62, 0
1, 9887, Note_on_c, 0, 78, 0
1, 9888, Note_on_c, 0, 83, 75
1, 9911, Note_on_c, 0, 83, 0
1, 9912, Note_on_c, 0, 81, 75
1, 9935, Note_on_c, 0, 81, 0
1, 9936, Note_on_c, 0, 81, 75
1, 9936, Note_on_c, 1, 66, 75
1, 9936, Note_on_c, 1, 62, 75
1, 9959, Note_on_c, 0, 81, 0
1, 9960, Note_on_c, 0, 86, 75
1, 9981, Note_on_c, 1, 66, 0
1, 9981, Note_on_c, 1, 62, 0
1, 9983, Note_on_c, 0, 86, 0
1, 9984, Note_on_c, 0, 81, 75
1, 9984, Note_on_c, 1, 66, 75
1, 9984, Note_on_c, 1, 62, 75
1, 10029, Note_on_c, 0, 81, 0
1, 10029, Note_on_c, 1, 66, 0
1, 10029, Note_on_c, 1, 62, 0
1, 10032, Note_on_c, 1, 66, 75
1, 10032, Note_on_c, 1, 62, 75
1, 10077, Note_on_c, 1, 66, 0
1, 10077, Note_on_c, 1, 62, 0
1, 10080, Note_on_c, 0, 83, 75
1, 10080, Note_on_c, 1, 67, 75
1, 10080, Note_on_c, 1, 62, 75
1, 10103, Note_on_c, 0, 83, 0
1, 10104, Note_on_c, 0, 86, 75
1, 10125, Note_on_c, 1, 67, 0
1, 10125, Note_on_c, 1, 62, 0
1, 10127, Note_on_c, 0, 86, 0
1, 10128, Note_on_c, 0, 83, 75
1, 10128, Note_on_c, 1, 67, 75
1, 10128, Note_on_c, 1, 62, 75
1, 10173, Note_on_c, 0, 83, 0
1, 10173, Note_on_c, 1, 67, 0
1, 10173, Note_on_c, 1, 62, 0
1, 10176, Note_on_c, 1, 67, 75
1, 10176, Note_on_c, 1, 62, 75
1, 10221, Note_on_c, 1, 67, 0
1, 10221, Note_on_c, 1, 62, 0
1, 10224, Note_on_c, 0, 81, 75
1, 10224, Note_on_c, 1, 66, 91
1, 10224, Note_on_c, 1, 63, 91
1, 10247, Note_on_c, 0, 81, 0
1, 10248, Note_on_c, 0, 84, 75
1, 10271, Note_on_c, 0, 84, 0
1, 10272, Note_on_c, 0, 81, 75
1, 10272, Note_on_c, 1, 66, 0
1, 10272, Note_on_c, 1, 63, 0
1, 10272, Note_on_c, 1, 66, 75
1, 10272, Note_on_c, 1, 63, 75
1, 10317, Note_on_c, 0, 81, 0
1, 10317, Note_on_c, 1, 66, 0
1, 10317, Note_on_c, 1, 63, 0
1, 10320, Note_on_c, 1, 66, 75
1, 10320, Note_on_c, 1, 63, 75
1, 10365, Note_on_c, 1, 66, 0
1, 10365, Note_on_c, 1, 63, 0
1, 10368, Note_on_c, 0, 79, 75
1, 10368, Note_on_c, 1, 64, 75
1, 10383, Note_on_c, 0, 79, 0
1, 10384, Note_on_c, 0, 78, 75
1, 10399, Note_on_c, 0, 78, 0
1, 10400, Note_on_c, 0, 76, 75
1, 10415, Note_on_c, 0, 76, 0
1, 10416, Note_on_c, 0, 83, 75
1, 10439, Note_on_c, 0, 83, 0
1, 10440, Note_on_c, 0, 79, 75
1, 10457, Note_on_c, 1, 64, 0
1, 10463, Note_on_c, 0, 79, 0
1, 10464, Note_on_c, 0, 78, 75
1, 10487, Note_on_c, 0, 78, 0
1, 10488, Note_on_c, 0, 76, 75
1, 10511, Note_on_c, 0, 76, 0
1, 10512, Note_on_c, 0, 84, 91
1, 10512, Note_on_c, 1, 57, 75
1, 10535, Note_on_c, 1, 57, 0
1, 10536, Note_on_c, 1, 69, 74
1, 10559, Note_on_c, 1, 69, 0
1, 10560, Note_on_c, 0, 84, 0
1, 10560, Note_on_c, 1, 68, 74
1, 10583, Note_on_c, 1, 68, 0
1, 10584, Note_on_c, 1, 69, 74
1, 10607, Note_on_c, 1, 69, 0
1, 10608, Note_on_c, 1, 55, 74
1, 10631, Note_on_c, 1, 55, 0
1, 10632, Note_on_c, 1, 67, 74
1, 10655, Note_on_c, 1, 67, 0
1, 10656, Note_on_c, 0, 81, 73
1, 10656, Note_on_c, 1, 54, 73
1, 10671, Note_on_c, 0, 81, 0
1, 10672, Note_on_c, 0, 79, 73
1, 10687, Note_on_c, 0, 79, 0
1, 10688, Note_on_c, 0, 78, 73
1, 10701, Note_on_c, 1, 54, 0
1, 10703, Note_on_c, 0, 78, 0
1, 10704, Note_on_c, 0, 78, 73
1, 10719, Note_on_c, 0, 78, 0
1, 10720, Note_on_c, 0, 76, 73
1, 10735, Note_on_c, 0, 76, 0
1, 10736, Note_on_c, 0, 74, 73
1, 10751, Note_on_c, 0, 74, 0
1, 10752, Note_on_c, 0, 84, 73
1, 10767, Note_on_c, 0, 84, 0
1, 10768, Note_on_c, 0, 83, 73
1, 10783, Note_on_c, 0, 83, 0
1, 10784, Note_on_c, 0, 81, 73
1, 10799, Note_on_c, 0, 81, 0
1, 10800, Note_on_c, 0, 83, 88
1, 10800, Note_on_c, 1, 55, 72
1, 10823, Note_on_c, 1, 55, 0
1, 10824, Note_on_c, 1, 67, 72
1, 10847, Note_on_c, 1, 67, 0
1, 10848, Note_on_c, 0, 83, 0
1, 10848, Note_on_c, 1, 66, 72
1, 10871, Note_on_c, 1, 66, 0
1, 10872, Note_on_c, 1, 67, 72
1, 10895, Note_on_c, 1, 67, 0
1, 10896, Note_on_c, 1, 54, 71
1, 10919, Note_on_c, 1, 54, 0
1, 10920, Note_on_c, 1, 66, 71
1, 10943, Note_on_c, 1, 66, 0
1, 10944, Note_on_c, 0, 79, 71
1, 10944, Note_on_c, 1, 52, 71
1, 10959, Note_on_c, 0, 79, 0
1, 10960, Note_on_c, 0, 78, 71
1, 10975, Note_on_c, 0, 78, 0
1, 10976, Note_on_c, 0, 76, 71
1, 10989, Note_on_c, 1, 52, 0
1, 10991, Note_on_c, 0, 76, 0
1, 10992, Note_on_c, 0, 76, 71
1, 11007, Note_on_c, 0, 76, 0
1, 11008, Note_on_c, 0, 74, 71
1, 11023, Note_on_c, 0, 74, 0
1, 11024, Note_on_c, 0, 72, 71
1, 11039, Note_on_c, 0, 72, 0
1, 11040, Note_on_c, 0, 83, 71
1, 11055, Note_on_c, 0, 83, 0
1, 11056, Note_on_c, 0, 81, 71
1, 11071, Note_on_c, 0, 81, 0
1, 11072, Note_on_c, 0, 79, 71
1, 11087, Note_on_c, 0, 79, 0
1, 11088, Note_on_c, 0, 81, 86
1, 11088, Note_on_c, 1, 54, 70
1, 11111, Note_on_c, 1, 54, 0
1, 11112, Note_on_c, 1, 66, 70
1, 11135, Note_on_c, 1, 66, 0
1, 11136, Note_on_c, 0, 81, 0
1, 11136, Note_on_c, 1, 64, 70
1, 11159, Note_on_c, 1, 64, 0
1, 11160, Note_on_c, 1, 66, 70
1, 11183, Note_on_c, 1, 66, 0
1, 11184, Note_on_c, 1, 52, 70
1, 11207, Note_on_c, 1, 52, 0
1, 11208, Note_on_c, 1, 64, 70
1, 11231, Note_on_c, 1, 64, 0
1, 11232, Note_on_c, 0, 78, 70
1, 11232, Note_on_c, 1, 51, 70
1, 11247, Note_on_c, 0, 78, 0
1, 11248, Note_on_c, 0, 76, 70
1, 11263, Note_on_c, 0, 76, 0
1, 11264, Note_on_c, 0, 75, 70
1, 11277, Note_on_c, 1, 51, 0
1, 11279, Note_on_c, 0, 75, 0
1, 11280, Note_on_c, 0, 75, 70
1, 11295, Note_on_c, 0, 75, 0
1, 11296, Note_on_c, 0, 73, 70
1, 11311, Note_on_c, 0, 73, 0
1, 11312, Note_on_c, 0, 71, 70
1, 11327, Note_on_c, 0, 71, 0
1, 11328, Note_on_c, 0, 81, 81
1, 11328, Note_on_c, 1, 59, 81
1, 11328, Note_on_c, 1, 54, 81
1, 11328, Note_on_c, 1, 51, 81
1, 11343, Note_on_c, 0, 81, 0
1, 11344, Note_on_c, 0, 79, 81
1, 11359, Note_on_c, 0, 79, 0
1, 11360, Note_on_c, 0, 78, 81
1, 11373, Note_on_c, 1, 59, 0
1, 11373, Note_on_c, 1, 54, 0
1, 11373, Note_on_c, 1, 51, 0
1, 11375, Note_on_c, 0, 78, 0
1, 11376, Note_on_c, 0, 79, 81
1, 11376, Note_on_c, 1, 59, 81
1, 11376, Note_on_c, 1, 55, 81
1, 11376, Note_on_c, 1, 52, 81
1, 11421, Note_on_c, 0, 79, 0
1, 11421, Note_on_c, 1, 59, 0
1, 11421, Note_on_c, 1, 55, 0
1, 11421, Note_on_c, 1, 52, 0
1, 11424, Note_on_c, 0, 71, 81
1, 11439, Note_on_c, 0, 71, 0
1, 11440, Note_on_c, 0, 73, 81
1, 11455, Note_on_c, 0, 73, 0
1, 11456, Note_on_c, 0, 75, 81
1, 11471, Note_on_c, 0, 75, 0
1, 11472, Note_on_c, 0, 76, 81
1, 11472, Note_on_c, 1, 59, 81
1, 11472, Note_on_c, 1, 55, 81
1, 11472, Note_on_c, 1, 52, 81
1, 11487, Note_on_c, 0, 76, 0
1, 11488, Note_on_c, 0, 78, 81
1, 11503, Note_on_c, 0, 78, 0
1, 11504, Note_on_c, 0, 79, 81
1, 11517, Note_on_c, 1, 59, 0
1, 11517, Note_on_c, 1, 55, 0
1, 11517, Note_on_c, 1, 52, 0
1, 11519, Note_on_c, 0, 79, 0
1, 11520, Note_on_c, 0, 81, 81
1, 11520, Note_on_c, 1, 59, 81
1, 11520, Note_on_c, 1, 54, 81
1, 11520, Note_on_c, 1, 51, 81
1, 11565, Note_on_c, 0, 81, 0
1, 11565, Note_on_c, 1, 59, 0
1, 11565, Note_on_c, 1, 54, 0
1, 11565, Note_on_c, 1, 51, 0
1, 11568, Note_on_c, 0, 71, 81
1, 11583, Note_on_c, 0, 71, 0
1, 11584, Note_on_c, 0, 75, 81
1, 11599, Note_on_c, 0, 75, 0
1, 11600, Note_on_c, 0, 76, 81
1, 11615, Note_on_c, 0, 76, 0
1, 11616, Note_on_c, 0, 78, 81
1, 11616, Note_on_c, 1, 59, 81
1, 11616, Note_on_c, 1, 54, 81
1, 11616, Note_on_c, 1, 51, 81
1, 11631, Note_on_c, 0, 78, 0
1, 11632, Note_on_c, 0, 79, 81
1, 11647, Note_on_c, 0, 79, 0
1, 11648, Note_on_c, 0, 81, 81
1, 11661, Note_on_c, 1, 59, 0
1, 11661, Note_on_c, 1, 54, 0
1, 11661, Note_on_c, 1, 51, 0
1, 11663, Note_on_c, 0, 81, 0
1, 11664, Note_on_c, 0, 79, 81
1, 11664, Note_on_c, 1, 59, 81
1, 11664, Note_on_c, 1, 55, 81
1, 11664, Note_on_c, 1, 52, 81
1, 11709, Note_on_c, 0, 79, 0
1, 11709, Note_on_c, 1, 59, 0
1, 11709, Note_on_c, 1, 55, 0
1, 11709, Note_on_c, 1, 52, 0
1, 11712, Note_on_c, 0, 76, 81
1, 11712, Note_on_c, 0, 67, 81
1, 11712, Note_on_c, 1, 59, 81
1, 11757, Note_on_c, 0, 76, 0
1, 11757, Note_on_c, 0, 67, 0
1, 11757, Note_on_c, 1, 59, 0
1, 11760, Note_on_c, 0, 75, 81
1, 11760, Note_on_c, 0, 66, 81
1, 11760, Note_on_c, 1, 47, 81
1, 11805, Note_on_c, 0, 75, 0
1, 11805, Note_on_c, 0, 66, 0
1, 11805, Note_on_c, 1, 47, 0
1, 11808, Note_on_c, 0, 76, 81
1, 11808, Note_on_c, 0, 71, 81
1, 11808, Note_on_c, 0, 67, 81
1, 11808, Note_on_c, 1, 52, 81
1, 11853, Note_on_c, 1, 52, 0
1, 11856, Note_on_c, 1, 47, 81
1, 11897, Note_on_c, 0, 76, 0
1, 11897, Note_on_c, 0, 71, 0
1, 11897, Note_on_c, 0, 67, 0
1, 11901, Note_on_c, 1, 47, 0
1, 11904, Note_on_c, 1, 40, 81
1, 11949, Note_on_c, 1, 40, 0
1, 11952, Note_on_c, 0, 64, 70
1, 11997, Note_on_c, 0, 64, 0
1, 12000, Note_on_c, 0, 69, 70
1, 12023, Note_on_c, 0, 69, 0
1, 12024, Note_on_c, 0, 68, 70
1, 12047, Note_on_c, 0, 68, 0
1, 12048, Note_on_c, 0, 71, 70
1, 12071, Note_on_c, 0, 71, 0
1, 12072, Note_on_c, 0, 69, 70
1, 12095, Note_on_c, 0, 69, 0
1, 12096, Note_on_c, 0, 74, 70
1, 12096, Note_on_c, 1, 52, 70
1, 12119, Note_on_c, 0, 74, 0
1, 12120, Note_on_c, 0, 71, 70
1, 12141, Note_on_c, 1, 52, 0
1, 12143, Note_on_c, 0, 71, 0
1, 12144, Note_on_c, 0, 68, 70
1, 12144, Note_on_c, 1, 56, 70
1, 12167, Note_on_c, 0, 68, 0
1, 12168, Note_on_c, 0, 64, 70
1, 12189, Note_on_c, 1, 56, 0
1, 12191, Note_on_c, 0, 64, 0
1, 12192, Note_on_c, 0, 72, 70
1, 12192, Note_on_c, 1, 57, 70
1, 12237, Note_on_c, 0, 72, 0
1, 12237, Note_on_c, 1, 57, 0
1, 12240, Note_on_c, 0, 62, 75
1, 12285, Note_on_c, 0, 62, 0
1, 12288, Note_on_c, 0, 67, 75
1, 12311, Note_on_c, 0, 67, 0
1, 12312, Note_on_c, 0, 66, 75
1, 12335, Note_on_c, 0, 66, 0
1, 12336, Note_on_c, 0, 69, 75
1, 12359, Note_on_c, 0, 69, 0
1, 12360, Note_on_c, 0, 67, 75
1, 12383, Note_on_c, 0, 67, 0
1, 12384, Note_on_c, 0, 72, 75
1, 12384, Note_on_c, 1, 50, 75
1, 12407, Note_on_c, 0, 72, 0
1, 12408, Note_on_c, 0, 69, 75
1, 12429, Note_on_c, 1, 50, 0
1, 12431, Note_on_c, 0, 69, 0
1, 12432, Note_on_c, 0, 66, 75
1, 12432, Note_on_c, 1, 54, 75
1, 12455, Note_on_c, 0, 66, 0
1, 12456, Note_on_c, 0, 62, 75
1, 12477, Note_on_c, 1, 54, 0
1, 12479, Note_on_c, 0, 62, 0
1, 12480, Note_on_c, 0, 71, 75
1, 12480, Note_on_c, 1, 55, 75
1, 12525, Note_on_c, 0, 71, 0
1, 12525, Note_on_c, 1, 55, 0
1, 12528, Note_on_c, 0, 74, 70
1, 12528, Note_on_c, 1, 47, 70
1, 12551, Note_on_c, 1, 47, 0
1, 12552, Note_on_c, 1, 59, 70
1, 12573, Note_on_c, 0, 74, 0
1, 12575, Note_on_c, 1, 59, 0
1, 12576, Note_on_c, 0, 79, 70
1, 12576, Note_on_c, 1, 57, 70
1, 12599, Note_on_c, 1, 57, 0
1, 12600, Note_on_c, 1, 59, 71
1, 12621, Note_on_c, 0, 79, 0
1, 12623, Note_on_c, 1, 59, 0
1, 12624, Note_on_c, 0, 77, 71
1, 12624, Note_on_c, 1, 47, 71
1, 12647, Note_on_c, 1, 47, 0
1, 12648, Note_on_c, 1, 59, 71
1, 12669, Note_on_c, 0, 77, 0
1, 12671, Note_on_c, 1, 59, 0
1, 12672, Note_on_c, 0, 76, 72
1, 12672, Note_on_c, 1, 48, 72
1, 12695, Note_on_c, 1, 48, 0
1, 12696, Note_on_c, 1, 60, 72
1, 12717, Note_on_c, 0, 76, 0
1, 12719, Note_on_c, 1, 60, 0
1, 12720, Note_on_c, 0, 68, 72
1, 12720, Note_on_c, 1, 59, 72
1, 12743, Note_on_c, 0, 68, 0
1, 12743, Note_on_c, 1, 59, 0
1, 12744, Note_on_c, 0, 69, 73
1, 12744, Note_on_c, 1, 60, 73
1, 12767, Note_on_c, 0, 69, 0
1, 12767, Note_on_c, 1, 60, 0
1, 12768, Note_on_c, 0, 68, 73
1, 12768, Note_on_c, 1, 48, 73
1, 12791, Note_on_c, 0, 68, 0
1, 12791, Note_on_c, 1, 48, 0
1, 12792, Note_on_c, 0, 69, 74
1, 12792, Note_on_c, 1, 60, 74
1, 12815, Note_on_c, 0, 69, 0
1, 12815, Note_on_c, 1, 60, 0
1, 12816, Note_on_c, 0, 78, 74
1, 12816, Note_on_c, 1, 50, 74
1, 12839, Note_on_c, 1, 50, 0
1, 12840, Note_on_c, 1, 62, 74
1, 12861, Note_on_c, 0, 78, 0
1, 12863, Note_on_c, 1, 62, 0
1, 12864, Note_on_c, 0, 70, 75
1, 12864, Note_on_c, 1, 61, 75
1, 12887, Note_on_c, 0, 70, 0
1, 12887, Note_on_c, 1, 61, 0
1, 12888, Note_on_c, 0, 71, 75
1, 12888, Note_on_c, 1, 62, 75
1, 12911, Note_on_c, 0, 71, 0
1, 12911, Note_on_c, 1, 62, 0
1, 12912, Note_on_c, 0, 70, 75
1, 12912, Note_on_c, 1, 50, 75
1, 12935, Note_on_c, 0, 70, 0
1, 12935, Note_on_c, 1, 50, 0
1, 12936, Note_on_c, 0, 71, 76
1, 12936, Note_on_c, 1, 62, 76
1, 12959, Note_on_c, 0, 71, 0
1, 12959, Note_on_c, 1, 62, 0
1, 12960, Note_on_c, 0, 79, 76
1, 12960, Note_on_c, 1, 52, 76
1, 12983, Note_on_c, 1, 52, 0
1, 12984, Note_on_c, 1, 64, 76
1, 13005, Note_on_c, 0, 79, 0
1, 13007, Note_on_c, 1, 64, 0
1, 13008, Note_on_c, 0, 71, 77
1, 13008, Note_on_c, 1, 62, 77
1, 13031, Note_on_c, 0, 71, 0
1, 13031, Note_on_c, 1, 62, 0
1, 13032, Note_on_c, 0, 72, 77
1, 13032, Note_on_c, 1, 64, 77
1, 13055, Note_on_c, 0, 72, 0
1, 13055, Note_on_c, 1, 64, 0
1, 13056, Note_on_c, 0, 71, 78
1, 13056, Note_on_c, 1, 52, 78
1, 13079, Note_on_c, 0, 71, 0
1, 13079, Note_on_c, 1, 52, 0
1, 13080, Note_on_c, 0, 72, 78
1, 13080, Note_on_c, 1, 64, 78
1, 13103, Note_on_c, 0, 72, 0
1, 13103, Note_on_c, 1, 64, 0
1, 13104, Note_on_c, 0, 81, 78
1, 13104, Note_on_c, 1, 54, 78
1, 13127, Note_on_c, 1, 54, 0
1, 13128, Note_on_c, 1, 66, 79
1, 13149, Note_on_c, 0, 81, 0
1, 13151, Note_on_c, 1, 66, 0
1, 13152, Note_on_c, 0, 74, 79
1, 13152, Note_on_c, 1, 64, 79
1, 13175, Note_on_c, 1, 64, 0
1, 13176, Note_on_c, 1, 66, 79
1, 13197, Note_on_c, 0, 74, 0
1, 13199, Note_on_c, 1, 66, 0
1, 13200, Note_on_c, 0, 72, 80
1, 13200, Note_on_c, 1, 54, 80
1, 13223, Note_on_c, 1, 54, 0
1, 13224, Note_on_c, 1, 66, 80
1, 13245, Note_on_c, 0, 72, 0
1, 13247, Note_on_c, 1, 66, 0
1, 13248, Note_on_c, 0, 71, 81
1, 13248, Note_on_c, 1, 55, 81
1, 13271, Note_on_c, 0, 71, 0
1, 13272, Note_on_c, 0, 74, 80
1, 13293, Note_on_c, 1, 55, 0
1, 13295, Note_on_c, 0, 74, 0
1, 13296, Note_on_c, 0, 79, 79
1, 13311, Note_on_c, 0, 79, 0
1, 13312, Note_on_c, 0, 78, 79
1, 13327, Note_on_c, 0, 78, 0
1, 13328, Note_on_c, 0, 76, 79
1, 13343, Note_on_c, 0, 76, 0
1, 13344, Note_on_c, 0, 74, 78
1, 13359, Note_on_c, 0, 74, 0
1, 13360, Note_on_c, 0, 72, 78
1, 13375, Note_on_c, 0, 72, 0
1, 13376, Note_on_c, 0, 71, 78
1, 13391, Note_on_c, 0, 71, 0
1, 13392, Note_on_c, 0, 71, 78
1, 13392, Note_on_c, 1, 55, 77
1, 13392, Note_on_c, 0, 50, 64
1, 13404, Note_on_c, 0, 71, 0
1, 13404, Note_on_c, 0, 72, 78
1, 13416, Note_on_c, 0, 72, 0
1, 13416, Note_on_c, 0, 71, 78
1, 13437, Note_on_c, 0, 71, 0
1, 13437, Note_on_c, 1, 55, 0
1, 13440, Note_on_c, 0, 69, 76
1, 13440, Note_on_c, 1, 54, 76
1, 13481, Note_on_c, 0, 50, 0
1, 13485, Note_on_c, 0, 69, 0
1, 13485, Note_on_c, 1, 54, 0
1, 13536, Note_on_c, 0, 67, 75
1, 13536, Note_on_c, 1, 59, 75
1, 13536, Note_on_c, 1, 55, 75
1, 13581, Note_on_c, 0, 67, 0
1, 13584, Note_on_c, 0, 72, 75
1, 13607, Note_on_c, 0, 72, 0
1, 13608, Note_on_c, 0, 71, 75
1, 13625, Note_on_c, 1, 59, 0
1, 13625, Note_on_c, 1, 55, 0
1, 13631, Note_on_c, 0, 71, 0
1, 13632, Note_on_c, 0, 76, 75
1, 13655, Note_on_c, 0, 76, 0
1, 13656, Note_on_c, 0, 74, 75
1, 13679, Note_on_c, 0, 74, 0
1, 13680, Note_on_c, 0, 74, 75
1, 13680, Note_on_c, 1, 59, 75
1, 13680, Note_on_c, 1, 55, 75
1, 13703, Note_on_c, 0, 74, 0
1, 13704, Note_on_c, 0, 79, 75
1, 13725, Note_on_c, 1, 59, 0
1, 13725, Note_on_c, 1, 55, 0
1, 13727, Note_on_c, 0, 79, 0
1, 13728, Note_on_c, 0, 74, 75
1, 13728, Note_on_c, 1, 59, 75
1, 13728, Note_on_c, 1, 55, 75
1, 13773, Note_on_c, 0, 74, 0
1, 13773, Note_on_c, 1, 59, 0
1, 13773, Note_on_c, 1, 55, 0
1, 13776, Note_on_c, 1, 59, 75
1, 13776, Note_on_c, 1, 55, 75
1, 13821, Note_on_c, 1, 59, 0
1, 13821, Note_on_c, 1, 55, 0
1, 13824, Note_on_c, 0, 76, 75
1, 13824, Note_on_c, 1, 60, 75
1, 13824, Note_on_c, 1, 55, 75
1, 13847, Note_on_c, 0, 76, 0
1, 13848, Note_on_c, 0, 79, 75
1, 13869, Note_on_c, 1, 60, 0
1, 13869, Note_on_c, 1, 55, 0
1, 13871, Note_on_c, 0, 79, 0
1, 13872, Note_on_c, 0, 76, 75
1, 13872, Note_on_c, 1, 60, 75
1, 13872, Note_on_c, 1, 55, 75
1, 13917, Note_on_c, 0, 76, 0
1, 13917, Note_on_c, 1, 60, 0
1, 13917, Note_on_c, 1, 55, 0
1, 13920, Note_on_c, 1, 60, 75
1, 13920, Note_on_c, 1, 55, 75
1, 13965, Note_on_c, 1, 60, 0
1, 13965, Note_on_c, 1, 55, 0
1, 13968, Note_on_c, 0, 74, 75
1, 13991, Note_on_c, 0, 74, 0
1, 13992, Note_on_c, 0, 78, 75
1, 14015, Note_on_c, 0, 78, 0
1, 14016, Note_on_c, 0, 81, 75
1, 14016, Note_on_c, 1, 54, 75
1, 14039, Note_on_c, 0, 81, 0
1, 14040, Note_on_c, 0, 84, 75
1, 14061, Note_on_c, 1, 54, 0
1, 14063, Note_on_c, 0, 84, 0
1, 14064, Note_on_c, 0, 83, 75
1, 14064, Note_on_c, 1, 55, 75
1, 14087, Note_on_c, 0, 83, 0
1, 14088, Note_on_c, 0, 79, 75
1, 14109, Note_on_c, 1, 55, 0
1, 14111, Note_on_c, 0, 79, 0
1, 14112, Note_on_c, 0, 74, 75
1, 14112, Note_on_c, 1, 57, 75
1, 14112, Note_on_c, 0, 50, 64
1, 14135, Note_on_c, 0, 74, 0
1, 14136, Note_on_c, 0, 72, 75
1, 14157, Note_on_c, 1, 57, 0
1, 14159, Note_on_c, 0, 72, 0
1, 14160, Note_on_c, 0, 81, 75
1, 14160, Note_on_c, 1, 54, 75
1, 14183, Note_on_c, 0, 81, 0
1, 14184, Note_on_c, 0, 72, 75
1, 14205, Note_on_c, 1, 54, 0
1, 14207, Note_on_c, 0, 72, 0
1, 14208, Note_on_c, 0, 71, 75
1, 14208, Note_on_c, 1, 55, 75
1, 14231, Note_on_c, 0, 71, 0
1, 14232, Note_on_c, 0, 79, 75
1, 14245, Note_on_c, 0, 50, 0
1, 14253, Note_on_c, 1, 55, 0
1, 14255, Note_on_c, 0, 79, 0
1, 14256, Note_on_c, 0, 71, 75
1, 14256, Note_on_c, 1, 55, 75
1, 14256, Note_on_c, 0, 50, 64
1, 14268, Note_on_c, 0, 71, 0
1, 14268, Note_on_c, 0, 72, 75
1, 14280, Note_on_c, 0, 72, 0
1, 14280, Note_on_c, 0, 71, 75
1, 14301, Note_on_c, 0, 71, 0
1, 14301, Note_on_c, 1, 55, 0
1, 14304, Note_on_c, 0, 69, 75
1, 14304, Note_on_c, 1, 54, 75
1, 14345, Note_on_c, 0, 50, 0
1, 14349, Note_on_c, 0, 69, 0
1, 14349, Note_on_c, 1, 54, 0
1, 14400, Note_on_c, 0, 81, 81
1, 14400, Note_on_c, 1, 62, 81
1, 14400, Note_on_c, 1, 59, 81
1, 14400, Note_on_c, 1, 55, 81
1, 14406, Note_on_c, 0, 81, 0
1, 14406, Note_on_c, 0, 79, 81
1, 14412, Note_on_c, 0, 79, 0
1, 14412, Note_on_c, 0, 78, 81
1, 14418, Note_on_c, 0, 78, 0
1, 14418, Note_on_c, 0, 79, 81
1, 14445, Note_on_c, 1, 62, 0
1, 14445, Note_on_c, 1, 59, 0
1, 14445, Note_on_c, 1, 55, 0
1, 14447, Note_on_c, 0, 79, 0
1, 14448, Note_on_c, 0, 67, 81
1, 14463, Note_on_c, 0, 67, 0
1, 14464, Note_on_c, 0, 71, 81
1, 14479, Note_on_c, 0, 71, 0
1, 14480, Note_on_c, 0, 74, 81
1, 14495, Note_on_c, 0, 74, 0
1, 14496, Note_on_c, 0, 79, 81
1, 14511, Note_on_c, 0, 79, 0
1, 14512, Note_on_c, 0, 83, 81
1, 14527, Note_on_c, 0, 83, 0
1, 14528, Note_on_c, 0, 86, 81
1, 14543, Note_on_c, 0, 86, 0
1, 14544, Note_on_c, 0, 84, 81
1, 14544, Note_on_c, 1, 62, 81
1, 14544, Note_on_c, 1, 57, 81
1, 14544, Note_on_c, 1, 54, 81
1, 14559, Note_on_c, 0, 84, 0
1, 14560, Note_on_c, 0, 83, 81
1, 14575, Note_on_c, 0, 83, 0
1, 14576, Note_on_c, 0, 81, 81
1, 14589, Note_on_c, 1, 62, 0
1, 14589, Note_on_c, 1, 57, 0
1, 14589, Note_on_c, 1, 54, 0
1, 14591, Note_on_c, 0, 81, 0
1, 14592, Note_on_c, 0, 79, 81
1, 14607, Note_on_c, 0, 79, 0
1, 14608, Note_on_c, 0, 78, 81
1, 14623, Note_on_c, 0, 78, 0
1, 14624, Note_on_c, 0, 76, 81
1, 14639, Note_on_c, 0, 76, 0
1, 14640, Note_on_c, 0, 74, 81
1, 14655, Note_on_c, 0, 74, 0
1, 14656, Note_on_c, 0, 81, 81
1, 14671, Note_on_c, 0, 81, 0
1, 14672, Note_on_c, 0, 84, 81
1, 14687, Note_on_c, 0, 84, 0
1, 14688, Note_on_c, 0, 83, 81
1, 14688, Note_on_c, 1, 62, 81
1, 14688, Note_on_c, 1, 59, 81
1, 14688, Note_on_c, 1, 55, 81
1, 14733, Note_on_c, 0, 83, 0
1, 14733, Note_on_c, 1, 62, 0
1, 14733, Note_on_c, 1, 59, 0
1, 14733, Note_on_c, 1, 55, 0
1, 14736, Note_on_c, 0, 67, 81
1, 14751, Note_on_c, 0, 67, 0
1, 14752, Note_on_c, 0, 71, 81
1, 14767, Note_on_c, 0, 71, 0
1, 14768, Note_on_c, 0, 74, 81
1, 14783, Note_on_c, 0, 74, 0
1, 14784, Note_on_c, 0, 79, 81
1, 14799, Note_on_c, 0, 79, 0
1, 14800, Note_on_c, 0, 83, 81
1, 14815, Note_on_c, 0, 83, 0
1, 14816, Note_on_c, 0, 86, 81
1, 14831, Note_on_c, 0, 86, 0
1, 14832, Note_on_c, 0, 84, 81
1, 14832, Note_on_c, 1, 62, 81
1, 14832, Note_on_c, 1, 57, 81
1, 14832, Note_on_c, 1, 54, 81
1, 14847, Note_on_c, 0, 84, 0
1, 14848, Note_on_c, 0, 83, 81
1, 14863, Note_on_c, 0, 83, 0
1, 14864, Note_on_c, 0, 81, 81
1, 14877, Note_on_c, 1, 62, 0
1, 14877, Note_on_c, 1, 57, 0
1, 14877, Note_on_c, 1, 54, 0
1, 14879, Note_on_c, 0, 81, 0
1, 14880, Note_on_c, 0, 79, 81
1, 14895, Note_on_c, 0, 79, 0
1, 14896, Note_on_c, 0, 78, 81
1, 14911, Note_on_c, 0, 78, 0
1, 14912, Note_on_c, 0, 76, 81
1, 14927, Note_on_c, 0, 76, 0
1, 14928, Note_on_c, 0, 74, 81
1, 14943, Note_on_c, 0, 74, 0
1, 14944, Note_on_c, 0, 81, 81
1, 14959, Note_on_c, 0, 81, 0
1, 14960, Note_on_c, 0, 84, 81
1, 14975, Note_on_c, 0, 84, 0
1, 14976, Note_on_c, 0, 83, 81
1, 14976, Note_on_c, 1, 62, 81
1, 14976, Note_on_c, 1, 59, 81
1, 14976, Note_on_c, 1, 55, 81
1, 15021, Note_on_c, 0, 83, 0
1, 15021, Note_on_c, 1, 62, 0
1, 15021, Note_on_c, 1, 59, 0
1, 15021, Note_on_c, 1, 55, 0
1, 15024, Note_on_c, 1, 71, 75
1, 15040, Note_on_c, 0, 74, 75
1, 15055, Note_on_c, 0, 74, 0
1, 15056, Note_on_c, 0, 79, 75
1, 15069, Note_on_c, 1, 71, 0
1, 15071, Note_on_c, 0, 79, 0
1, 15072, Note_on_c, 1, 74, 75
1, 15088, Note_on_c, 0, 79, 75
1, 15103, Note_on_c, 0, 79, 0
1, 15104, Note_on_c, 0, 83, 75
1, 15117, Note_on_c, 1, 74, 0
1, 15119, Note_on_c, 0, 83, 0
1, 15120, Note_on_c, 1, 62, 75
1, 15136, Note_on_c, 0, 69, 75
1, 15151, Note_on_c, 0, 69, 0
1, 15152, Note_on_c, 0, 72, 75
1, 15165, Note_on_c, 1, 62, 0
1, 15167, Note_on_c, 0, 72, 0
1, 15168, Note_on_c, 1, 69, 75
1, 15184, Note_on_c, 0, 72, 75
1, 15199, Note_on_c, 0, 72, 0
1, 15200, Note_on_c, 0, 78, 75
1, 15213, Note_on_c, 1, 69, 0
1, 15215, Note_on_c, 0, 78, 0
1, 15216, Note_on_c, 1, 72, 75
1, 15232, Note_on_c, 0, 78, 75
1, 15247, Note_on_c, 0, 78, 0
1, 15248, Note_on_c, 0, 81, 75
1, 15261, Note_on_c, 1, 72, 0
1, 15263, Note_on_c, 0, 81, 0
1, 15264, Note_on_c, 1, 67, 75
1, 15280, Note_on_c, 0, 71, 75
1, 15295, Note_on_c, 0, 71, 0
1, 15296, Note_on_c, 0, 74, 75
1, 15309, Note_on_c, 1, 67, 0
1, 15311, Note_on_c, 0, 74, 0
1, 15312, Note_on_c, 1, 71, 75
1, 15328, Note_on_c, 0, 74, 75
1, 15343, Note_on_c, 0, 74, 0
1, 15344, Note_on_c, 0, 79, 75
1, 15357, Note_on_c, 1, 71, 0
1, 15359, Note_on_c, 0, 79, 0
1, 15360, Note_on_c, 1, 74, 75
1, 15376, Note_on_c, 0, 79, 75
1, 15391, Note_on_c, 0, 79, 0
1, 15392, Note_on_c, 0, 81, 75
1, 15405, Note_on_c, 1, 74, 0
1, 15407, Note_on_c, 0, 81, 0
1, 15408, Note_on_c, 1, 62, 75
1, 15424, Note_on_c, 0, 69, 75
1, 15439, Note_on_c, 0, 69, 0
1, 15440, Note_on_c, 0, 72, 75
1, 15453, Note_on_c, 1, 62, 0
1, 15455, Note_on_c, 0, 72, 0
1, 15456, Note_on_c, 1, 69, 75
1, 15472, Note_on_c, 0, 72, 75
1, 15487, Note_on_c, 0, 72, 0
1, 15488, Note_on_c, 0, 78, 75
1, 15501, Note_on_c, 1, 69, 0
1, 15503, Note_on_c, 0, 78, 0
1, 15504, Note_on_c, 1, 72, 75
1, 15520, Note_on_c, 0, 78, 75
1, 15535, Note_on_c, 0, 78, 0
1, 15536, Note_on_c, 0, 81, 75
1, 15549, Note_on_c, 1, 72, 0
1, 15551, Note_on_c, 0, 81, 0
1, 15552, Note_on_c, 0, 79, 81
1, 15552, Note_on_c, 1, 71, 81
1, 15597, Note_on_c, 0, 79, 0
1, 15600, Note_on_c, 0, 83, 81
1, 15615, Note_on_c, 0, 83, 0
1, 15616, Note_on_c, 0, 81, 81
1, 15631, Note_on_c, 0, 81, 0
1, 15632, Note_on_c, 0, 79, 81
1, 15641, Note_on_c, 1, 71, 0
1, 15647, Note_on_c, 0, 79, 0
1, 15648, Note_on_c, 0, 78, 81
1, 15663, Note_on_c, 0, 78, 0
1, 15664, Note_on_c, 0, 76, 81
1, 15679, Note_on_c, 0, 76, 0
1, 15680, Note_on_c, 0, 74, 81
1, 15695, Note_on_c, 0, 74, 0
1, 15696, Note_on_c, 0, 76, 81
1, 15696, Note_on_c, 1, 60, 81
1, 15696, Note_on_c, 1, 48, 81
1, 15741, Note_on_c, 0, 76, 0
1, 15744, Note_on_c, 0, 84, 81
1, 15759, Note_on_c, 0, 84, 0
1, 15760, Note_on_c, 0, 83, 81
1, 15775, Note_on_c, 0, 83, 0
1, 15776, Note_on_c, 0, 81, 81
1, 15785, Note_on_c, 1, 60, 0
1, 15785, Note_on_c, 1, 48, 0
1, 15791, Note_on_c, 0, 81, 0
1, 15792, Note_on_c, 0, 79, 81
1, 15807, Note_on_c, 0, 79, 0
1, 15808, Note_on_c, 0, 78, 81
1, 15823, Note_on_c, 0, 78, 0
1, 15824, Note_on_c, 0, 76, 81
1, 15839, Note_on_c, 0, 76, 0
1, 15840, Note_on_c, 0, 74, 81
1, 15840, Note_on_c, 0, 50, 64
1, 15885, Note_on_c, 0, 74, 0
1, 15888, Note_on_c, 0, 79, 81
1, 15888, Note_on_c, 1, 59, 81
1, 15933, Note_on_c, 0, 79, 0
1, 15933, Note_on_c, 1, 59, 0
1, 15936, Note_on_c, 0, 78, 81
1, 15936, Note_on_c, 1, 57, 81
1, 15948, Note_on_c, 0, 78, 0
1, 15948, Note_on_c, 0, 79, 81
1, 15960, Note_on_c, 0, 79, 0
1, 15960, Note_on_c, 0, 78, 81
1, 15973, Note_on_c, 0, 50, 0
1, 15981, Note_on_c, 0, 78, 0
1, 15981, Note_on_c, 1, 57, 0
1, 15984, Note_on_c, 0, 79, 81
1, 15984, Note_on_c, 1, 55, 81
1, 16029, Note_on_c, 1, 55, 0
1, 16032, Note_on_c, 1, 43, 81
1, 16073, Note_on_c, 0, 79, 0
1, 16077, Note_on_c, 1, 43, 0
1, 16128, Note_on_c, 1, 50, 70
1, 16151, Note_on_c, 1, 50, 0
1, 16152, Note_on_c, 1, 62, 70
1, 16175, Note_on_c, 1, 62, 0
1, 16176, Note_on_c, 0, 74, 81
1, 16176, Note_on_c, 0, 70, 81
1, 16176, Note_on_c, 1, 61, 70
1, 16199, Note_on_c, 1, 61, 0
1, 16200, Note_on_c, 1, 62, 70
1, 16223, Note_on_c, 1, 62, 0
1, 16224, Note_on_c, 0, 74, 0
1, 16224, Note_on_c, 0, 70, 0
1, 16224, Note_on_c, 0, 72, 81
1, 16224, Note_on_c, 0, 69, 81
1, 16224, Note_on_c, 1, 50, 70
1, 16247, Note_on_c, 1, 50, 0
1, 16248, Note_on_c, 1, 62, 70
1, 16269, Note_on_c, 0, 72, 0
1, 16269, Note_on_c, 0, 69, 0
1, 16271, Note_on_c, 1, 62, 0
1, 16272, Note_on_c, 1, 50, 70
1, 16295, Note_on_c, 1, 50, 0
1, 16296, Note_on_c, 1, 62, 70
1, 16319, Note_on_c, 1, 62, 0
1, 16320, Note_on_c, 0, 70, 81
1, 16320, Note_on_c, 0, 67, 81
1, 16320, Note_on_c, 1, 61, 70
1, 16343, Note_on_c, 1, 61, 0
1, 16344, Note_on_c, 1, 62, 70
1, 16367, Note_on_c, 1, 62, 0
1, 16368, Note_on_c, 0, 70, 0
1, 16368, Note_on_c, 0, 67, 0
1, 16368, Note_on_c, 0, 69, 81
1, 16368, Note_on_c, 0, 66, 81
1, 16368, Note_on_c, 1, 50, 70
1, 16391, Note_on_c, 1, 50, 0
1, 16392, Note_on_c, 1, 62, 70
1, 16413, Note_on_c, 0, 69, 0
1, 16413, Note_on_c, 0, 66, 0
1, 16415, Note_on_c, 1, 62, 0
1, 16416, Note_on_c, 1, 50, 70
1, 16439, Note_on_c, 1, 50, 0
1, 16440, Note_on_c, 1, 62, 70
1, 16463, Note_on_c, 1, 62, 0
1, 16464, Note_on_c, 0, 86, 81
1, 16464, Note_on_c, 0, 82, 81
1, 16464, Note_on_c, 1, 61, 70
1, 16487, Note_on_c, 1, 61, 0
1, 16488, Note_on_c, 1, 62, 70
1, 16511, Note_on_c, 1, 62, 0
1, 16512, Note_on_c, 0, 86, 0
1, 16512, Note_on_c, 0, 82, 0
1, 16512, Note_on_c, 0, 84, 81
1, 16512, Note_on_c, 0, 81, 81
1, 16512, Note_on_c, 1, 50, 70
1, 16535, Note_on_c, 1, 50, 0
1, 16536, Note_on_c, 1, 62, 70
1, 16557, Note_on_c, 0, 84, 0
1, 16557, Note_on_c, 0, 81, 0
1, 16559, Note_on_c, 1, 62, 0
1, 16560, Note_on_c, 1, 50, 70
1, 16583, Note_on_c, 1, 50, 0
1, 16584, Note_on_c, 1, 62, 70
1, 16607, Note_on_c, 1, 62, 0
1, 16608, Note_on_c, 0, 82, 81
1, 16608, Note_on_c, 0, 79, 81
1, 16608, Note_on_c, 1, 61, 70
1, 16631, Note_on_c, 1, 61, 0
1, 16632, Note_on_c, 1, 62, 70
1, 16655, Note_on_c, 1, 62, 0
1, 16656, Note_on_c, 0, 82, 0
1, 16656, Note_on_c, 0, 79, 0
1, 16656, Note_on_c, 0, 81, 81
1, 16656, Note_on_c, 0, 78, 81
1, 16656, Note_on_c, 1, 50, 70
1, 16679, Note_on_c, 1, 50, 0
1, 16680, Note_on_c, 1, 62, 70
1, 16701, Note_on_c, 0, 81, 0
1, 16701, Note_on_c, 0, 78, 0
1, 16703, Note_on_c, 1, 62, 0
1, 16704, Note_on_c, 0, 79, 81
1, 16704, Note_on_c, 1, 59, 81
1, 16704, Note_on_c, 1, 47, 81
1, 16749, Note_on_c, 0, 79, 0
1, 16752, Note_on_c, 0, 67, 81
1, 16767, Note_on_c, 0, 67, 0
1, 16768, Note_on_c, 0, 71, 81
1, 16783, Note_on_c, 0, 71, 0
1, 16784, Note_on_c, 0, 74, 81
1, 16793, Note_on_c, 1, 59, 0
1, 16793, Note_on_c, 1, 47, 0
1, 16799, Note_on_c, 0, 74, 0
1, 16800, Note_on_c, 0, 79, 81
1, 16815, Note_on_c, 0, 79, 0
1, 16816, Note_on_c, 0, 83, 81
1, 16831, Note_on_c, 0, 83, 0
1, 16832, Note_on_c, 0, 86, 81
1, 16847, Note_on_c, 0, 86, 0
1, 16848, Note_on_c, 0, 76, 81
1, 16848, Note_on_c, 1, 60, 81
1, 16848, Note_on_c, 1, 48, 81
1, 16893, Note_on_c, 0, 76, 0
1, 16896, Note_on_c, 0, 84, 81
1, 16911, Note_on_c, 0, 84, 0
1, 16912, Note_on_c, 0, 83, 81
1, 16927, Note_on_c, 0, 83, 0
1, 16928, Note_on_c, 0, 81, 81
1, 16937, Note_on_c, 1, 60, 0
1, 16937, Note_on_c, 1, 48, 0
1, 16943, Note_on_c, 0, 81, 0
1, 16944, Note_on_c, 0, 79, 81
1, 16959, Note_on_c, 0, 79, 0
1, 16960, Note_on_c, 0, 78, 81
1, 16975, Note_on_c, 0, 78, 0
1, 16976, Note_on_c, 0, 76, 81
1, 16991, Note_on_c, 0, 76, 0
1, 16992, Note_on_c, 0, 74, 81
1, 16992, Note_on_c, 0, 50, 64
1, 17037, Note_on_c, 0, 74, 0
1, 17040, Note_on_c, 0, 79, 75
1, 17040, Note_on_c, 1, 59, 75
1, 17085, Note_on_c, 0, 79, 0
1, 17085, Note_on_c, 1, 59, 0
1, 17088, Note_on_c, 0, 78, 75
1, 17088, Note_on_c, 1, 57, 75
1, 17100, Note_on_c, 0, 78, 0
1, 17100, Note_on_c, 0, 79, 75
1, 17112, Note_on_c, 0, 79, 0
1, 17112, Note_on_c, 0, 78, 75
1, 17125, Note_on_c, 0, 50, 0
1, 17133, Note_on_c, 0, 78, 0
1, 17133, Note_on_c, 1, 57, 0
1, 17136, Note_on_c, 0, 79, 75
1, 17136, Note_on_c, 1, 43, 75
1, 17159, Note_on_c, 1, 43, 0
1, 17160, Note_on_c, 1, 55, 75
1, 17181, Note_on_c, 0, 79, 0
1, 17183, Note_on_c, 1, 55, 0
1, 17184, Note_on_c, 0, 79, 75
1, 17184, Note_on_c, 0, 76, 75
1, 17184, Note_on_c, 1, 43, 75
1, 17207, Note_on_c, 1, 43, 0
1, 17208, Note_on_c, 1, 55, 75
1, 17229, Note_on_c, 0, 79, 0
1, 17229, Note_on_c, 0, 76, 0
1, 17231, Note_on_c, 1, 55, 0
1, 17232, Note_on_c, 0, 78, 75
1, 17232, Note_on_c, 0, 74, 75
1, 17232, Note_on_c, 1, 43, 75
1, 17255, Note_on_c, 1, 43, 0
1, 17256, Note_on_c, 1, 55, 75
1, 17277, Note_on_c, 0, 78, 0
1, 17277, Note_on_c, 0, 74, 0
1, 17279, Note_on_c, 1, 55, 0
1, 17280, Note_on_c, 0, 76, 75
1, 17280, Note_on_c, 0, 72, 75
1, 17280, Note_on_c, 1, 43, 75
1, 17303, Note_on_c, 1, 43, 0
1, 17304, Note_on_c, 1, 55, 75
1, 17325, Note_on_c, 0, 76, 0
1, 17325, Note_on_c, 0, 72, 0
1, 17327, Note_on_c, 1, 55, 0
1, 17328, Note_on_c, 0, 74, 75
1, 17328, Note_on_c, 0, 71, 75
1, 17328, Note_on_c, 1, 43, 75
1, 17351, Note_on_c, 1, 43, 0
1, 17352, Note_on_c, 1, 55, 75
1, 17373, Note_on_c, 0, 74, 0
1, 17373, Note_on_c, 0, 71, 0
1, 17375, Note_on_c, 1, 55, 0
1, 17376, Note_on_c, 0, 72, 75
1, 17376, Note_on_c, 0, 69, 75
1, 17376, Note_on_c, 1, 43, 75
1, 17399, Note_on_c, 1, 43, 0
1, 17400, Note_on_c, 1, 55, 75
1, 17421, Note_on_c, 0, 72, 0
1, 17421, Note_on_c, 0, 69, 0
1, 17423, Note_on_c, 1, 55, 0
1, 17424, Note_on_c, 0, 71, 75
1, 17424, Note_on_c, 0, 67, 75
1, 17424, Note_on_c, 1, 43, 75
1, 17447, Note_on_c, 1, 43, 0
1, 17448, Note_on_c, 1, 55, 75
1, 17469, Note_on_c, 0, 71, 0
1, 17469, Note_on_c, 0, 67, 0
1, 17471, Note_on_c, 1, 55, 0
1, 17472, Note_on_c, 0, 76, 75
1, 17472, Note_on_c, 0, 72, 75
1, 17472, Note_on_c, 1, 43, 75
1, 17495, Note_on_c, 1, 43, 0
1, 17496, Note_on_c, 1, 55, 75
1, 17517, Note_on_c, 0, 76, 0
1, 17517, Note_on_c, 0, 72, 0
1, 17519, Note_on_c, 1, 55, 0
1, 17520, Note_on_c, 0, 74, 75
1, 17520, Note_on_c, 0, 71, 75
1, 17520, Note_on_c, 1, 43, 75
1, 17543, Note_on_c, 1, 43, 0
1, 17544, Note_on_c, 1, 55, 75
1, 17565, Note_on_c, 0, 74, 0
1, 17565, Note_on_c, 0, 71, 0
1, 17567, Note_on_c, 1, 55, 0
1, 17568, Note_on_c, 0, 72, 75
1, 17568, Note_on_c, 0, 69, 75
1, 17568, Note_on_c, 1, 43, 75
1, 17591, Note_on_c, 1, 43, 0
1, 17592, Note_on_c, 1, 55, 75
1, 17613, Note_on_c, 0, 72, 0
1, 17613, Note_on_c, 0, 69, 0
1, 17615, Note_on_c, 1, 55, 0
1, 17616, Note_on_c, 0, 71, 75
1, 17616, Note_on_c, 0, 67, 75
1, 17616, Note_on_c, 1, 43, 75
1, 17639, Note_on_c, 1, 43, 0
1, 17640, Note_on_c, 1, 55, 75
1, 17661, Note_on_c, 0, 71, 0
1, 17661, Note_on_c, 0, 67, 0
1, 17663, Note_on_c, 1, 55, 0
1, 17664, Note_on_c, 0, 69, 75
1, 17664, Note_on_c, 0, 66, 75
1, 17664, Note_on_c, 1, 43, 75
1, 17687, Note_on_c, 1, 43, 0
1, 17688, Note_on_c, 1, 55, 75
1, 17709, Note_on_c, 0, 69, 0
1, 17709, Note_on_c, 0, 66, 0
1, 17711, Note_on_c, 1, 55, 0
1, 17712, Note_on_c, 0, 71, 75
1, 17712, Note_on_c, 0, 67, 75
1, 17712, Note_on_c, 0, 62, 75
1, 17712, Note_on_c, 1, 43, 75
1, 17801, Note_on_c, 0, 71, 0
1, 17801, Note_on_c, 0, 67, 0
1, 17801, Note_on_c, 0, 62, 0
1, 17801, Note_on_c, 1, 43, 0
1, 17856, Note_on_c, 0, 74, 75
1, 17856, Note_on_c, 1, 66, 75
1, 17856, Note_on_c, 1, 62, 75
1, 17901, Note_on_c, 0, 74, 0
1, 17904, Note_on_c, 0, 79, 75
1, 17927, Note_on_c, 0, 79, 0
1, 17928, Note_on_c, 0, 78, 75
1, 17945, Note_on_c, 1, 66, 0
1, 17945, Note_on_c, 1, 62, 0
1, 17951, Note_on_c, 0, 78, 0
1, 17952, Note_on_c, 0, 83, 75
1, 17975, Note_on_c, 0, 83, 0
1, 17976, Note_on_c, 0, 81, 75
1, 17999, Note_on_c, 0, 81, 0
1, 18000, Note_on_c, 0, 81, 75
1, 18000, Note_on_c, 1, 66, 75
1, 18000, Note_on_c, 1, 62, 75
1, 18023, Note_on_c, 0, 81, 0
1, 18024, Note_on_c, 0, 86, 75
1, 18045, Note_on_c, 1, 66, 0
1, 18045, Note_on_c, 1, 62, 0
1, 18047, Note_on_c, 0, 86, 0
1, 18048, Note_on_c, 0, 81, 75
1, 18048, Note_on_c, 1, 66, 75
1, 18048, Note_on_c, 1, 62, 75
1, 18093, Note_on_c, 0, 81, 0
1, 18093, Note_on_c, 1, 66, 0
1, 18093, Note_on_c, 1, 62, 0
1, 18096, Note_on_c, 1, 66, 75
1, 18096, Note_on_c, 1, 62, 75
1, 18141, Note_on_c, 1, 66, 0
1, 18141, Note_on_c, 1, 62, 0
1, 18144, Note_on_c, 0, 83, 75
1, 18144, Note_on_c, 1, 67, 75
1, 18144, Note_on_c, 1, 62, 75
1, 18167, Note_on_c, 0, 83, 0
1, 18168, Note_on_c, 0, 86, 75
1, 18189, Note_on_c, 1, 67, 0
1, 18189, Note_on_c, 1, 62, 0
1, 18191, Note_on_c, 0, 86, 0
1, 18192, Note_on_c, 0, 83, 75
1, 18192, Note_on_c, 1, 67, 75
1, 18192, Note_on_c, 1, 62, 75
1, 18237, Note_on_c, 0, 83, 0
1, 18237, Note_on_c, 1, 67, 0
1, 18237, Note_on_c, 1, 62, 0
1, 18240, Note_on_c, 1, 67, 75
1, 18240, Note_on_c, 1, 62, 75
1, 18285, Note_on_c, 1, 67, 0
1, 18285, Note_on_c, 1, 62, 0
1, 18288, Note_on_c, 0, 81, 75
1, 18288, Note_on_c, 1, 66, 91
1, 18288, Note_on_c, 1, 63, 91
1, 18311, Note_on_c, 0, 81, 0
1, 18312, Note_on_c, 0, 84, 75
1, 18335, Note_on_c, 0, 84, 0
1, 18336, Note_on_c, 0, 81, 75
1, 18336, Note_on_c, 1, 66, 0
1, 18336, Note_on_c, 1, 63, 0
1, 18336, Note_on_c, 1, 66, 75
1, 18336, Note_on_c, 1, 63, 75
1, 18381, Note_on_c, 0, 81, 0
1, 18381, Note_on_c, 1, 66, 0
1, 18381, Note_on_c, 1, 63, 0
1, 18384, Note_on_c, 1, 66, 75
1, 18384, Note_on_c, 1, 63, 75
1, 18429, Note_on_c, 1, 66, 0
1, 18429, Note_on_c, 1, 63, 0
1, 18432, Note_on_c, 0, 79, 75
1, 18432, Note_on_c, 1, 64, 75
1, 18447, Note_on_c, 0, 79, 0
1, 18448, Note_on_c, 0, 78, 75
1, 18463, Note_on_c, 0, 78, 0
1, 18464, Note_on_c, 0, 76, 75
1, 18479, Note_on_c, 0, 76, 0
1, 18480, Note_on_c, 0, 83, 75
1, 18503, Note_on_c, 0, 83, 0
1, 18504, Note_on_c, 0, 79, 75
1, 18521, Note_on_c, 1, 64, 0
1, 18527, Note_on_c, 0, 79, 0
1, 18528, Note_on_c, 0, 78, 75
1, 18551, Note_on_c, 0, 78, 0
1, 18552, Note_on_c, 0, 76, 75
1, 18575, Note_on_c, 0, 76, 0
1, 18576, Note_on_c, 0, 84, 91
1, 18576, Note_on_c, 1, 57, 75
1, 18599, Note_on_c, 1, 57, 0
1, 18600, Note_on_c, 1, 69, 74
1, 18623, Note_on_c, 1, 69, 0
1, 18624, Note_on_c, 0, 84, 0
1, 18624, Note_on_c, 1, 68, 74
1, 18647, Note_on_c, 1, 68, 0
1, 18648, Note_on_c, 1, 69, 74
1, 18671, Note_on_c, 1, 69, 0
1, 18672, Note_on_c, 1, 55, 74
1, 18695, Note_on_c, 1, 55, 0
1, 18696, Note_on_c, 1, 67, 74
1, 18719, Note_on_c, 1, 67, 0
1, 18720, Note_on_c, 0, 81, 73
1, 18720, Note_on_c, 1, 54, 73
1, 18735, Note_on_c, 0, 81, 0
1, 18736, Note_on_c, 0, 79, 73
1, 18751, Note_on_c, 0, 79, 0
1, 18752, Note_on_c, 0, 78, 73
1, 18765, Note_on_c, 1, 54, 0
1, 18767, Note_on_c, 0, 78, 0
1, 18768, Note_on_c, 0, 78, 73
1, 18783, Note_on_c, 0, 78, 0
1, 18784, Note_on_c, 0, 76, 73
1, 18799, Note_on_c, 0, 76, 0
1, 18800, Note_on_c, 0, 74, 73
1, 18815, Note_on_c, 0, 74, 0
1, 18816, Note_on_c, 0, 84, 73
1, 18831, Note_on_c, 0, 84, 0
1, 18832, Note_on_c, 0, 83, 73
1, 18847, Note_on_c, 0, 83, 0
1, 18848, Note_on_c, 0, 81, 73
1, 18863, Note_on_c, 0, 81, 0
1, 18864, Note_on_c, 0, 83, 88
1, 18864, Note_on_c, 1, 55, 72
1, 18887, Note_on_c, 1, 55, 0
1, 18888, Note_on_c, 1, 67, 72
1, 18911, Note_on_c, 1, 67, 0
1, 18912, Note_on_c, 0, 83, 0
1, 18912, Note_on_c, 1, 66, 72
1, 18935, Note_on_c, 1, 66, 0
1, 18936, Note_on_c, 1, 67, 72
1, 18959, Note_on_c, 1, 67, 0
1, 18960, Note_on_c, 1, 54, 71
1, 18983, Note_on_c, 1, 54, 0
1, 18984, Note_on_c, 1, 66, 71
1, 19007, Note_on_c, 1, 66, 0
1, 19008, Note_on_c, 0, 79, 71
1, 19008, Note_on_c, 1, 52, 71
1, 19023, Note_on_c, 0, 79, 0
1, 19024, Note_on_c, 0, 78, 71
1, 19039, Note_on_c, 0, 78, 0
1, 19040, Note_on_c, 0, 76, 71
1, 19053, Note_on_c, 1, 52, 0
1, 19055, Note_on_c, 0, 76, 0
1, 19056, Note_on_c, 0, 76, 71
1, 19071, Note_on_c, 0, 76, 0
1, 19072, Note_on_c, 0, 74, 71
1, 19087, Note_on_c, 0, 74, 0
1, 19088, Note_on_c, 0, 72, 71
1, 19103, Note_on_c, 0, 72, 0
1, 19104, Note_on_c, 0, 83, 71
1, 19119, Note_on_c, 0, 83, 0
1, 19120, Note_on_c, 0, 81, 71
1, 19135, Note_on_c, 0, 81, 0
1, 19136, Note_on_c, 0, 79, 71
1, 19151, Note_on_c, 0, 79, 0
1, 19152, Note_on_c, 0, 81, 86
1, 19152, Note_on_c, 1, 54, 70
1, 19175, Note_on_c, 1, 54, 0
1, 19176, Note_on_c, 1, 66, 70
1, 19199, Note_on_c, 1, 66, 0
1, 19200, Note_on_c, 0, 81, 0
1, 19200, Note_on_c, 1, 64, 70
1, 19223, Note_on_c, 1, 64, 0
1, 19224, Note_on_c, 1, 66, 70
1, 19247, Note_on_c, 1, 66, 0
1, 19248, Note_on_c, 1, 52, 70
1, 19271, Note_on_c, 1, 52, 0
1, 19272, Note_on_c, 1, 64, 70
1, 19295, Note_on_c, 1, 64, 0
1, 19296, Note_on_c, 0, 78, 70
1, 19296, Note_on_c, 1, 51, 70
1, 19311, Note_on_c, 0, 78, 0
1, 19312, Note_on_c, 0, 76, 70
1, 19327, Note_on_c, 0, 76, 0
1, 19328, Note_on_c, 0, 75, 70
1, 19341, Note_on_c, 1, 51, 0
1, 19343, Note_on_c, 0, 75, 0
1, 19344, Note_on_c, 0, 75, 70
1, 19359, Note_on_c, 0, 75, 0
1, 19360, Note_on_c, 0, 73, 70
1, 19375, Note_on_c, 0, 73, 0
1, 19376, Note_on_c, 0, 71, 70
1, 19391, Note_on_c, 0, 71, 0
1, 19392, Note_on_c, 0, 81, 81
1, 19392, Note_on_c, 1, 59, 81
1, 19392, Note_on_c, 1, 54, 81
1, 19392, Note_on_c, 1, 51, 81
1, 19407, Note_on_c, 0, 81, 0
1, 19408, Note_on_c, 0, 79, 81
1, 19423, Note_on_c, 0, 79, 0
1, 19424, Note_on_c, 0, 78, 81
1, 19437, Note_on_c, 1, 59, 0
1, 19437, Note_on_c, 1, 54, 0
1, 19437, Note_on_c, 1, 51, 0
1, 19439, Note_on_c, 0, 78, 0
1, 19440, Note_on_c, 0, 79, 81
1, 19440, Note_on_c, 1, 59, 81
1, 19440, Note_on_c, 1, 55, 81
1, 19440, Note_on_c, 1, 52, 81
1, 19485, Note_on_c, 0, 79, 0
1, 19485, Note_on_c, 1, 59, 0
1, 19485, Note_on_c, 1, 55, 0
1, 19485, Note_on_c, 1, 52, 0
1, 19488, Note_on_c, 0, 71, 81
1, 19503, Note_on_c, 0, 71, 0
1, 19504, Note_on_c, 0, 73, 81
1, 19519, Note_on_c, 0, 73, 0
1, 19520, Note_on_c, 0, 75, 81
1, 19535, Note_on_c, 0, 75, 0
1, 19536, Note_on_c, 0, 76, 81
1, 19536, Note_on_c, 1, 59, 81
1, 19536, Note_on_c, 1, 55, 81
1, 19536, Note_on_c, 1, 52, 81
1, 19551, Note_on_c, 0, 76, 0
1, 19552, Note_on_c, 0, 78, 81
1, 19567, Note_on_c, 0, 78, 0
1, 19568, Note_on_c, 0, 79, 81
1, 19581, Note_on_c, 1, 59, 0
1, 19581, Note_on_c, 1, 55, 0
1, 19581, Note_on_c, 1, 52, 0
1, 19583, Note_on_c, 0, 79, 0
1, 19584, Note_on_c, 0, 81, 81
1, 19584, Note_on_c, 1, 59, 81
1, 19584, Note_on_c, 1, 54, 81
1, 19584, Note_on_c, 1, 51, 81
1, 19629, Note_on_c, 0, 81, 0
1, 19629, Note_on_c, 1, 59, 0
1, 19629, Note_on_c, 1, 54, 0
1, 19629, Note_on_c, 1, 51, 0
1, 19632, Note_on_c, 0, 71, 81
1, 19647, Note_on_c, 0, 71, 0
1, 19648, Note_on_c, 0, 75, 81
1, 19663, Note_on_c, 0, 75, 0
1, 19664, Note_on_c, 0, 76, 81
1, 19679, Note_on_c, 0, 76, 0
1, 19680, Note_on_c, 0, 78, 81
1, 19680, Note_on_c, 1, 59, 81
1, 19680, Note_on_c, 1, 54, 81
1, 19680, Note_on_c, 1, 51, 81
1, 19695, Note_on_c, 0, 78, 0
1, 19696, Note_on_c, 0, 79, 81
1, 19711, Note_on_c, 0, 79, 0
1, 19712, Note_on_c, 0, 81, 81
1, 19725, Note_on_c, 1, 59, 0
1, 19725, Note_on_c, 1, 54, 0
1, 19725, Note_on_c, 1, 51, 0
1, 19727, Note_on_c, 0, 81, 0
1, 19728, Note_on_c, 0, 79, 81
1, 19728, Note_on_c, 1, 59, 81
1, 19728, Note_on_c, 1, 55, 81
1, 19728, Note_on_c, 1, 52, 81
1, 19773, Note_on_c, 0, 79, 0
1, 19773, Note_on_c, 1, 59, 0
1, 19773, Note_on_c, 1, 55, 0
1, 19773, Note_on_c, 1, 52, 0
1, 19776, Note_on_c, 0, 76, 81
1, 19776, Note_on_c, 0, 67, 81
1, 19776, Note_on_c, 1, 59, 81
1, 19821, Note_on_c, 0, 76, 0
1, 19821, Note_on_c, 0, 67, 0
1, 19821, Note_on_c, 1, 59, 0
1, 19824, Note_on_c, 0, 75, 81
1, 19824, Note_on_c, 0, 66, 81
1, 19824, Note_on_c, 1, 47, 81
1, 19869, Note_on_c, 0, 75, 0
1, 19869, Note_on_c, 0, 66, 0
1, 19869, Note_on_c, 1, 47, 0
1, 19872, Note_on_c, 0, 76, 81
1, 19872, Note_on_c, 0, 71, 81
1, 19872, Note_on_c, 0, 67, 81
1, 19872, Note_on_c, 1, 52, 81
1, 19917, Note_on_c, 1, 52, 0
1, 19920, Note_on_c, 1, 47, 81
1, 19961, Note_on_c, 0, 76, 0
1, 19961, Note_on_c, 0, 71, 0
1, 19961, Note_on_c, 0, 67, 0
1, 19965, Note_on_c, 1, 47, 0
1, 19968, Note_on_c, 1, 40, 81
1, 20013, Note_on_c, 1, 40, 0
1, 20016, Note_on_c, 0, 64, 70
1, 20061, Note_on_c, 0, 64, 0
1, 20064, Note_on_c, 0, 69, 70
1, 20087, Note_on_c, 0, 69, 0
1, 20088, Note_on_c, 0, 68, 70
1, 20111, Note_on_c, 0, 68, 0
1, 20112, Note_on_c, 0, 71, 70
1, 20135, Note_on_c, 0, 71, 0
1, 20136, Note_on_c, 0, 69, 70
1, 20159, Note_on_c, 0, 69, 0
1, 20160, Note_on_c, 0, 74, 70
1, 20160, Note_on_c, 1, 52, 70
1, 20183, Note_on_c, 0, 74, 0
1, 20184, Note_on_c, 0, 71, 70
1, 20205, Note_on_c, 1, 52, 0
1, 20207, Note_on_c, 0, 71, 0
1, 20208, Note_on_c, 0, 68, 70
1, 20208, Note_on_c, 1, 56, 70
1, 20231, Note_on_c, 0, 68, 0
1, 20232, Note_on_c, 0, 64, 70
1, 20253, Note_on_c, 1, 56, 0
1, 20255, Note_on_c, 0, 64, 0
1, 20256, Note_on_c, 0, 72, 70
1, 20256, Note_on_c, 1, 57, 70
1, 20301, Note_on_c, 0, 72, 0
1, 20301, Note_on_c, 1, 57, 0
1, 20304, Note_on_c, 0, 62, 75
1, 20349, Note_on_c, 0, 62, 0
1, 20352, Note_on_c, 0, 67, 75
1, 20375, Note_on_c, 0, 67, 0
1, 20376, Note_on_c, 0, 66, 75
1, 20399, Note_on_c, 0, 66, 0
1, 20400, Note_on_c, 0, 69, 75
1, 20423, Note_on_c, 0, 69, 0
1, 20424, Note_on_c, 0, 67, 75
1, 20447, Note_on_c, 0, 67, 0
1, 20448, Note_on_c, 0, 72, 75
1, 20448, Note_on_c, 1, 50, 75
1, 20471, Note_on_c, 0, 72, 0
1, 20472, Note_on_c, 0, 69, 75
1, 20493, Note_on_c, 1, 50, 0
1, 20495, Note_on_c, 0, 69, 0
1, 20496, Note_on_c, 0, 66, 75
1, 20496, Note_on_c, 1, 54, 75
1, 20519, Note_on_c, 0, 66, 0
1, 20520, Note_on_c, 0, 62, 75
1, 20541, Note_on_c, 1, 54, 0
1, 20543, Note_on_c, 0, 62, 0
1, 20544, Note_on_c, 0, 71, 75
1, 20544, Note_on_c, 1, 55, 75
1, 20589, Note_on_c, 0, 71, 0
1, 20589, Note_on_c, 1, 55, 0
1, 20592, Note_on_c, 0, 74, 70
1, 20592, Note_on_c, 1, 47, 70
1, 20615, Note_on_c, 1, 47, 0
1, 20616, Note_on_c, 1, 59, 70
1, 20637, Note_on_c, 0, 74, 0
1, 20639, Note_on_c, 1, 59, 0
1, 20640, Note_on_c, 0, 79, 70
1, 20640, Note_on_c, 1, 57, 70
1, 20663, Note_on_c, 1, 57, 0
1, 20664, Note_on_c, 1, 59, 71
1, 20685, Note_on_c, 0, 79, 0
1, 20687, Note_on_c, 1, 59, 0
1, 20688, Note_on_c, 0, 77, 71
1, 20688, Note_on_c, 1, 47, 71
1, 20711, Note_on_c, 1, 47, 0
1, 20712, Note_on_c, 1, 59, 71
1, 20733, Note_on_c, 0, 77, 0
1, 20735, Note_on_c, 1, 59, 0
1, 20736, Note_on_c, 0, 76, 72
1, 20736, Note_on_c, 1, 48, 72
1, 20759, Note_on_c, 1, 48, 0
1, 20760, Note_on_c, 1, 60, 72
1, 20781, Note_on_c, 0, 76, 0
1, 20783, Note_on_c, 1, 60, 0
1, 20784, Note_on_c, 0, 68, 72
1, 20784, Note_on_c, 1, 59, 72
1, 20807, Note_on_c, 0, 68, 0
1, 20807, Note_on_c, 1, 59, 0
1, 20808, Note_on_c, 0, 69, 73
1, 20808, Note_on_c, 1, 60, 73
1, 20831, Note_on_c, 0, 69, 0
1, 20831, Note_on_c, 1, 60, 0
1, 20832, Note_on_c, 0, 68, 73
1, 20832, Note_on_c, 1, 48, 73
1, 20855, Note_on_c, 0, 68, 0
1, 20855, Note_on_c, 1, 48, 0
1, 20856, Note_on_c, 0, 69, 74
1, 20856, Note_on_c, 1, 60, 74
1, 20879, Note_on_c, 0, 69, 0
1, 20879, Note_on_c, 1, 60, 0
1, 20880, Note_on_c, 0, 78, 74
1, 20880, Note_on_c, 1, 50, 74
1, 20903, Note_on_c, 1, 50, 0
1, 20904, Note_on_c, 1, 62, 74
1, 20925, Note_on_c, 0, 78, 0
1, 20927, Note_on_c, 1, 62, 0
1, 20928, Note_on_c, 0, 70, 75
1, 20928, Note_on_c, 1, 61, 75
1, 20951, Note_on_c, 0, 70, 0
1, 20951, Note_on_c, 1, 61, 0
1, 20952, Note_on_c, 0, 71, 75
1, 20952, Note_on_c, 1, 62, 75
1, 20975, Note_on_c, 0, 71, 0
1, 20975, Note_on_c, 1, 62, 0
1, 20976, Note_on_c, 0, 70, 75
1, 20976, Note_on_c, 1, 50, 75
1, 20999, Note_on_c, 0, 70, 0
1, 20999, Note_on_c, 1, 50, 0
1, 21000, Note_on_c, 0, 71, 76
1, 21000, Note_on_c, 1, 62, 76
1, 21023, Note_on_c, 0, 71, 0
1, 21023, Note_on_c, 1, 62, 0
1, 21024, Note_on_c, 0, 79, 76
1, 21024, Note_on_c, 1, 52, 76
1, 21047, Note_on_c, 1, 52, 0
1, 21048, Note_on_c, 1, 64, 76
1, 21069, Note_on_c, 0, 79, 0
1, 21071, Note_on_c, 1, 64, 0
1, 21072, Note_on_c, 0, 71, 77
1, 21072, Note_on_c, 1, 62, 77
1, 21095, Note_on_c, 0, 71, 0
1, 21095, Note_on_c, 1, 62, 0
1, 21096, Note_on_c, 0, 72, 77
1, 21096, Note_on_c, 1, 64, 77
1, 21119, Note_on_c, 0, 72, 0
1, 21119, Note_on_c, 1, 64, 0
1, 21120, Note_on_c, 0, 71, 78
1, 21120, Note_on_c, 1, 52, 78
1, 21143, Note_on_c, 0, 71, 0
1, 21143, Note_on_c, 1, 52, 0
1, 21144, Note_on_c, 0, 72, 78
1, 21144, Note_on_c, 1, 64, 78
1, 21167, Note_on_c, 0, 72, 0
1, 21167, Note_on_c, 1, 64, 0
1, 21168, Note_on_c, 0, 81, 78
1, 21168, Note_on_c, 1, 54, 78
1, 21191, Note_on_c, 1, 54, 0
1, 21192, Note_on_c, 1, 66, 79
1, 21213, Note_on_c, 0, 81, 0
1, 21215, Note_on_c, 1, 66, 0
1, 21216, Note_on_c, 0, 74, 79
1, 21216, Note_on_c, 1, 64, 79
1, 21239, Note_on_c, 1, 64, 0
1, 21240, Note_on_c, 1, 66, 79
1, 21261, Note_on_c, 0, 74, 0
1, 21263, Note_on_c, 1, 66, 0
1, 21264, Note_on_c, 0, 72, 80
1, 21264, Note_on_c, 1, 54, 80
1, 21287, Note_on_c, 1, 54, 0
1, 21288, Note_on_c, 1, 66, 80
1, 21309, Note_on_c, 0, 72, 0
1, 21311, Note_on_c, 1, 66, 0
1, 21312, Note_on_c, 0, 71, 81
1, 21312, Note_on_c, 1, 55, 81
1, 21335, Note_on_c, 0, 71, 0
1, 21336, Note_on_c, 0, 74, 80
1, 21357, Note_on_c, 1, 55, 0
1, 21359, Note_on_c, 0, 74, 0
1, 21360, Note_on_c, 0, 79, 79
1, 21375, Note_on_c, 0, 79, 0
1, 21376, Note_on_c, 0, 78, 79
1, 21391, Note_on_c, 0, 78, 0
1, 21392, Note_on_c, 0, 76, 79
1, 21407, Note_on_c, 0, 76, 0
1, 21408, Note_on_c, 0, 74, 78
1, 21423, Note_on_c, 0, 74, 0
1, 21424, Note_on_c, 0, 72, 78
1, 21439, Note_on_c, 0, 72, 0
1, 21440, Note_on_c, 0, 71, 78
1, 21455, Note_on_c, 0, 71, 0
1, 21456, Note_on_c, 0, 71, 78
1, 21456, Note_on_c, 1, 55, 77
1, 21456, Note_on_c, 0, 50, 64
1, 21468, Note_on_c, 0, 71, 0
1, 21468, Note_on_c, 0, 72, 78
1, 21480, Note_on_c, 0, 72, 0
1, 21480, Note_on_c, 0, 71, 78
1, 21501, Note_on_c, 0, 71, 0
1, 21501, Note_on_c, 1, 55, 0
1, 21504, Note_on_c, 0, 69, 76
1, 21504, Note_on_c, 1, 54, 76
1, 21545, Note_on_c, 0, 50, 0
1, 21549, Note_on_c, 0, 69, 0
1, 21549, Note_on_c, 1, 54, 0
1, 21600, Note_on_c, 0, 67, 75
1, 21600, Note_on_c, 1, 59, 75
1, 21600, Note_on_c, 1, 55, 75
1, 21645, Note_on_c, 0, 67, 0
1, 21648, Note_on_c, 0, 72, 75
1, 21671, Note_on_c, 0, 72, 0
1, 21672, Note_on_c, 0, 71, 75
1, 21689, Note_on_c, 1, 59, 0
1, 21689, Note_on_c, 1, 55, 0
1, 21695, Note_on_c, 0, 71, 0
1, 21696, Note_on_c, 0, 76, 75
1, 21719, Note_on_c, 0, 76, 0
1, 21720, Note_on_c, 0, 74, 75
1, 21743, Note_on_c, 0, 74, 0
1, 21744, Note_on_c, 0, 74, 75
1, 21744, Note_on_c, 1, 59, 75
1, 21744, Note_on_c, 1, 55, 75
1, 21767, Note_on_c, 0, 74, 0
1, 21768, Note_on_c, 0, 79, 75
1, 21789, Note_on_c, 1, 59, 0
1, 21789, Note_on_c, 1, 55, 0
1, 21791, Note_on_c, 0, 79, 0
1, 21792, Note_on_c, 0, 74, 75
1, 21792, Note_on_c, 1, 59, 75
1, 21792, Note_on_c, 1, 55, 75
1, 21837, Note_on_c, 0, 74, 0
1, 21837, Note_on_c, 1, 59, 0
1, 21837, Note_on_c, 1, 55, 0
1, 21840, Note_on_c, 1, 59, 75
1, 21840, Note_on_c, 1, 55, 75
1, 21885, Note_on_c, 1, 59, 0
1, 21885, Note_on_c, 1, 55, 0
1, 21888, Note_on_c, 0, 76, 75
1, 21888, Note_on_c, 1, 60, 75
1, 21888, Note_on_c, 1, 55, 75
1, 21911, Note_on_c, 0, 76, 0
1, 21912, Note_on_c, 0, 79, 75
1, 21933, Note_on_c, 1, 60, 0
1, 21933, Note_on_c, 1, 55, 0
1, 21935, Note_on_c, 0, 79, 0
1, 21936, Note_on_c, 0, 76, 75
1, 21936, Note_on_c, 1, 60, 75
1, 21936, Note_on_c, 1, 55, 75
1, 21981, Note_on_c, 0, 76, 0
1, 21981, Note_on_c, 1, 60, 0
1, 21981, Note_on_c, 1, 55, 0
1, 21984, Note_on_c, 1, 60, 75
1, 21984, Note_on_c, 1, 55, 75
1, 22029, Note_on_c, 1, 60, 0
1, 22029, Note_on_c, 1, 55, 0
1, 22032, Note_on_c, 0, 74, 75
1, 22055, Note_on_c, 0, 74, 0
1, 22056, Note_on_c, 0, 78, 75
1, 22079, Note_on_c, 0, 78, 0
1, 22080, Note_on_c, 0, 81, 75
1, 22080, Note_on_c, 1, 54, 75
1, 22103, Note_on_c, 0, 81, 0
1, 22104, Note_on_c, 0, 84, 75
1, 22125, Note_on_c, 1, 54, 0
1, 22127, Note_on_c, 0, 84, 0
1, 22128, Note_on_c, 0, 83, 75
1, 22128, Note_on_c, 1, 55, 75
1, 22151, Note_on_c, 0, 83, 0
1, 22152, Note_on_c, 0, 79, 75
1, 22173, Note_on_c, 1, 55, 0
1, 22175, Note_on_c, 0, 79, 0
1, 22176, Note_on_c, 0, 74, 75
1, 22176, Note_on_c, 1, 57, 75
1, 22176, Note_on_c, 0, 50, 64
1, 22199, Note_on_c, 0, 74, 0
1, 22200, Note_on_c, 0, 72, 75
1, 22221, Note_on_c, 1, 57, 0
1, 22223, Note_on_c, 0, 72, 0
1, 22224, Note_on_c, 0, 81, 75
1, 22224, Note_on_c, 1, 54, 75
1, 22247, Note_on_c, 0, 81, 0
1, 22248, Note_on_c, 0, 72, 75
1, 22269, Note_on_c, 1, 54, 0
1, 22271, Note_on_c, 0, 72, 0
1, 22272, Note_on_c, 0, 71, 75
1, 22272, Note_on_c, 1, 55, 75
1, 22295, Note_on_c, 0, 71, 0
1, 22296, Note_on_c, 0, 79, 75
1, 22309, Note_on_c, 0, 50, 0
1, 22317, Note_on_c, 1, 55, 0
1, 22319, Note_on_c, 0, 79, 0
1, 22320, Note_on_c, 0, 71, 75
1, 22320, Note_on_c, 1, 55, 75
1, 22320, Note_on_c, 0, 50, 64
1, 22332, Note_on_c, 0, 71, 0
1, 22332, Note_on_c, 0, 72, 75
1, 22344, Note_on_c, 0, 72, 0
1, 22344, Note_on_c, 0, 71, 75
1, 22365, Note_on_c, 0, 71, 0
1, 22365, Note_on_c, 1, 55, 0
1, 22368, Note_on_c, 0, 69, 75
1, 22368, Note_on_c, 1, 54, 75
1, 22409, Note_on_c, 0, 50, 0
1, 22413, Note_on_c, 0, 69, 0
1, 22413, Note_on_c, 1, 54, 0
1, 22464, Note_on_c, 0, 81, 81
1, 22464, Note_on_c, 1, 62, 81
1, 22464, Note_on_c, 1, 59, 81
1, 22464, Note_on_c, 1, 55, 81
1, 22470, Note_on_c, 0, 81, 0
1, 22470, Note_on_c, 0, 79, 81
1, 22476, Note_on_c, 0, 79, 0
1, 22476, Note_on_c, 0, 78, 81
1, 22482, Note_on_c, 0, 78, 0
1, 22482, Note_on_c, 0, 79, 81
1, 22509, Note_on_c, 1, 62, 0
1, 22509, Note_on_c, 1, 59, 0
1, 22509, Note_on_c, 1, 55, 0
1, 22511, Note_on_c, 0, 79, 0
1, 22512, Note_on_c, 0, 67, 81
1, 22527, Note_on_c, 0, 67, 0
1, 22528, Note_on_c, 0, 71, 81
1, 22543, Note_on_c, 0, 71, 0
1, 22544, Note_on_c, 0, 74, 81
1, 22559, Note_on_c, 0, 74, 0
1, 22560, Note_on_c, 0, 79, 81
1, 22575, Note_on_c, 0, 79, 0
1, 22576, Note_on_c, 0, 83, 81
1, 22591, Note_on_c, 0, 83, 0
1, 22592, Note_on_c, 0, 86, 81
1, 22607, Note_on_c, 0, 86, 0
1, 22608, Note_on_c, 0, 84, 81
1, 22608, Note_on_c, 1, 62, 81
1, 22608, Note_on_c, 1, 57, 81
1, 22608, Note_on_c, 1, 54, 81
1, 22623, Note_on_c, 0, 84, 0
1, 22624, Note_on_c, 0, 83, 81
1, 22639, Note_on_c, 0, 83, 0
1, 22640, Note_on_c, 0, 81, 81
1, 22653, Note_on_c, 1, 62, 0
1, 22653, Note_on_c, 1, 57, 0
1, 22653, Note_on_c, 1, 54, 0
1, 22655, Note_on_c, 0, 81, 0
1, 22656, Note_on_c, 0, 79, 81
1, 22671, Note_on_c, 0, 79, 0
1, 22672, Note_on_c, 0, 78, 81
1, 22687, Note_on_c, 0, 78, 0
1, 22688, Note_on_c, 0, 76, 81
1, 22703, Note_on_c, 0, 76, 0
1, 22704, Note_on_c, 0, 74, 81
1, 22719, Note_on_c, 0, 74, 0
1, 22720, Note_on_c, 0, 81, 81
1, 22735, Note_on_c, 0, 81, 0
1, 22736, Note_on_c, 0, 84, 81
1, 22751, Note_on_c, 0, 84, 0
1, 22752, Note_on_c, 0, 83, 81
1, 22752, Note_on_c, 1, 62, 81
1, 22752, Note_on_c, 1, 59, 81
1, 22752, Note_on_c, 1, 55, 81
1, 22797, Note_on_c, 0, 83, 0
1, 22797, Note_on_c, 1, 62, 0
1, 22797, Note_on_c, 1, 59, 0
1, 22797, Note_on_c, 1, 55, 0
1, 22800, Note_on_c, 0, 67, 81
1, 22815, Note_on_c, 0, 67, 0
1, 22816, Note_on_c, 0, 71, 81
1, 22831, Note_on_c, 0, 71, 0
1, 22832, Note_on_c, 0, 74, 81
1, 22847, Note_on_c, 0, 74, 0
1, 22848, Note_on_c, 0, 79, 81
1, 22863, Note_on_c, 0, 79, 0
1, 22864, Note_on_c, 0, 83, 81
1, 22879, Note_on_c, 0, 83, 0
1, 22880, Note_on_c, 0, 86, 81
1, 22895, Note_on_c, 0, 86, 0
1, 22896, Note_on_c, 0, 84, 81
1, 22896, Note_on_c, 1, 62, 81
1, 22896, Note_on_c, 1, 57, 81
1, 22896, Note_on_c, 1, 54, 81
1, 22911, Note_on_c, 0, 84, 0
1, 22912, Note_on_c, 0, 83, 81
1, 22927, Note_on_c, 0, 83, 0
1, 22928, Note_on_c, 0, 81, 81
1, 22941, Note_on_c, 1, 62, 0
1, 22941, Note_on_c, 1, 57, 0
1, 22941, Note_on_c, 1, 54, 0
1, 22943, Note_on_c, 0, 81, 0
1, 22944, Note_on_c, 0, 79, 81
1, 22959, Note_on_c, 0, 79, 0
1, 22960, Note_on_c, 0, 78, 81
1, 22975, Note_on_c, 0, 78, 0
1, 22976, Note_on_c, 0, 76, 81
1, 22991, Note_on_c, 0, 76, 0
1, 22992, Note_on_c, 0, 74, 81
1, 23007, Note_on_c, 0, 74, 0
1, 23008, Note_on_c, 0, 81, 81
1, 23023, Note_on_c, 0, 81, 0
1, 23024, Note_on_c, 0, 84, 81
1, 23039, Note_on_c, 0, 84, 0
1, 23040, Note_on_c, 0, 83, 81
1, 23040, Note_on_c, 1, 62, 81
1, 23040, Note_on_c, 1, 59, 81
1, 23040, Note_on_c, 1, 55, 81
1, 23085, Note_on_c, 0, 83, 0
1, 23085, Note_on_c, 1, 62, 0
1, 23085, Note_on_c, 1, 59, 0
1, 23085, Note_on_c, 1, 55, 0
1, 23088, Note_on_c, 1, 71, 75
1, 23104, Note_on_c, 0, 74, 75
1, 23119, Note_on_c, 0, 74, 0
1, 23120, Note_on_c, 0, 79, 75
1, 23133, Note_on_c, 1, 71, 0
1, 23135, Note_on_c, 0, 79, 0
1, 23136, Note_on_c, 1, 74, 75
1, 23152, Note_on_c, 0, 79, 75
1, 23167, Note_on_c, 0, 79, 0
1, 23168, Note_on_c, 0, 83, 75
1, 23181, Note_on_c, 1, 74, 0
1, 23183, Note_on_c, 0, 83, 0
1, 23184, Note_on_c, 1, 62, 75
1, 23200, Note_on_c, 0, 69, 75
1, 23215, Note_on_c, 0, 69, 0
1, 23216, Note_on_c, 0, 72, 75
1, 23229, Note_on_c, 1, 62, 0
1, 23231, Note_on_c, 0, 72, 0
1, 23232, Note_on_c, 1, 69, 75
1, 23248, Note_on_c, 0, 72, 75
1, 23263, Note_on_c, 0, 72, 0
1, 23264, Note_on_c, 0, 78, 75
1, 23277, Note_on_c, 1, 69, 0
1, 23279, Note_on_c, 0, 78, 0
1, 23280, Note_on_c, 1, 72, 75
1, 23296, Note_on_c, 0, 78, 75
1, 23311, Note_on_c, 0, 78, 0
1, 23312, Note_on_c, 0, 81, 75
1, 23325, Note_on_c, 1, 72, 0
1, 23327, Note_on_c, 0, 81, 0
1, 23328, Note_on_c, 1, 67, 75
1, 23344, Note_on_c, 0, 71, 75
1, 23359, Note_on_c, 0, 71, 0
1, 23360, Note_on_c, 0, 74, 75
1, 23373, Note_on_c, 1, 67, 0
1, 23375, Note_on_c, 0, 74, 0
1, 23376, Note_on_c, 1, 71, 75
1, 23392, Note_on_c, 0, 74, 75
1, 23407, Note_on_c, 0, 74, 0
1, 23408, Note_on_c, 0, 79, 75
1, 23421, Note_on_c, 1, 71, 0
1, 23423, Note_on_c, 0, 79, 0
1, 23424, Note_on_c, 1, 74, 75
1, 23440, Note_on_c, 0, 79, 75
1, 23455, Note_on_c, 0, 79, 0
1, 23456, Note_on_c, 0, 81, 75
1, 23469, Note_on_c, 1, 74, 0
1, 23471, Note_on_c, 0, 81, 0
1, 23472, Note_on_c, 1, 62, 75
1, 23488, Note_on_c, 0, 69, 75
1, 23503, Note_on_c, 0, 69, 0
1, 23504, Note_on_c, 0, 72, 75
1, 23517, Note_on_c, 1, 62, 0
1, 23519, Note_on_c, 0, 72, 0
1, 23520, Note_on_c, 1, 69, 75
1, 23536, Note_on_c, 0, 72, 75
1, 23551, Note_on_c, 0, 72, 0
1, 23552, Note_on_c, 0, 78, 75
1, 23565, Note_on_c, 1, 69, 0
1, 23567, Note_on_c, 0, 78, 0
1, 23568, Note_on_c, 1, 72, 75
1, 23584, Note_on_c, 0, 78, 75
1, 23599, Note_on_c, 0, 78, 0
1, 23600, Note_on_c, 0, 81, 75
1, 23613, Note_on_c, 1, 72, 0
1, 23615, Note_on_c, 0, 81, 0
1, 23616, Note_on_c, 0, 79, 81
1, 23616, Note_on_c, 1, 71, 81
1, 23661, Note_on_c, 0, 79, 0
1, 23664, Note_on_c, 0, 83, 81
1, 23679, Note_on_c, 0, 83, 0
1, 23680, Note_on_c, 0, 81, 81
1, 23695, Note_on_c, 0, 81, 0
1, 23696, Note_on_c, 0, 79, 81
1, 23705, Note_on_c, 1, 71, 0
1, 23711, Note_on_c, 0, 79, 0
1, 23712, Note_on_c, 0, 78, 81
1, 23727, Note_on_c, 0, 78, 0
1, 23728, Note_on_c, 0, 76, 81
1, 23743, Note_on_c, 0, 76, 0
1, 23744, Note_on_c, 0, 74, 81
1, 23759, Note_on_c, 0, 74, 0
1, 23760, Note_on_c, 0, 76, 81
1, 23760, Note_on_c, 1, 60, 81
1, 23760, Note_on_c, 1, 48, 81
1, 23805, Note_on_c, 0, 76, 0
1, 23808, Note_on_c, 0, 84, 81
1, 23823, Note_on_c, 0, 84, 0
1, 23824, Note_on_c, 0, 83, 81
1, 23839, Note_on_c, 0, 83, 0
1, 23840, Note_on_c, 0, 81, 81
1, 23849, Note_on_c, 1, 60, 0
1, 23849, Note_on_c, 1, 48, 0
1, 23855, Note_on_c, 0, 81, 0
1, 23856, Note_on_c, 0, 79, 81
1, 23871, Note_on_c, 0, 79, 0
1, 23872, Note_on_c, 0, 78, 81
1, 23887, Note_on_c, 0, 78, 0
1, 23888, Note_on_c, 0, 76, 81
1, 23903, Note_on_c, 0, 76, 0
1, 23904, Note_on_c, 0, 74, 81
1, 23904, Note_on_c, 0, 50, 64
1, 23949, Note_on_c, 0, 74, 0
1, 23952, Note_on_c, 0, 79, 81
1, 23952, Note_on_c, 1, 59, 81
1, 23997, Note_on_c, 0, 79, 0
1, 23997, Note_on_c, 1, 59, 0
1, 24000, Note_on_c, 0, 78, 81
1, 24000, Note_on_c, 1, 57, 81
1, 24012, Note_on_c, 0, 78, 0
1, 24012, Note_on_c, 0, 79, 81
1, 24024, Note_on_c, 0, 79, 0
1, 24024, Note_on_c, 0, 78, 81
1, 24037, Note_on_c, 0, 50, 0
1, 24045, Note_on_c, 0, 78, 0
1, 24045, Note_on_c, 1, 57, 0
1, 24048, Note_on_c, 0, 79, 81
1, 24048, Note_on_c, 1, 55, 81
1, 24093, Note_on_c, 1, 55, 0
1, 24096, Note_on_c, 1, 43, 81
1, 24137, Note_on_c, 0, 79, 0
1, 24141, Note_on_c, 1, 43, 0
1, 24192, Note_on_c, 1, 50, 70
1, 24215, Note_on_c, 1, 50, 0
1, 24216, Note_on_c, 1, 62, 70
1, 24239, Note_on_c, 1, 62, 0
1, 24240, Note_on_c, 0, 74, 81
1, 24240, Note_on_c, 0, 70, 81
1, 24240, Note_on_c, 1, 61, 70
1, 24263, Note_on_c, 1, 61, 0
1, 24264, Note_on_c, 1, 62, 70
1, 24287, Note_on_c, 1, 62, 0
1, 24288, Note_on_c, 0, 74, 0
1, 24288, Note_on_c, 0, 70, 0
1, 24288, Note_on_c, 0, 72, 81
1, 24288, Note_on_c, 0, 69, 81
1, 24288, Note_on_c, 1, 50, 70
1, 24311, Note_on_c, 1, 50, 0
1, 24312, Note_on_c, 1, 62, 70
1, 24333, Note_on_c, 0, 72, 0
1, 24333, Note_on_c, 0, 69, 0
1, 24335, Note_on_c, 1, 62, 0
1, 24336, Note_on_c, 1, 50, 70
1, 24359, Note_on_c, 1, 50, 0
1, 24360, Note_on_c, 1, 62, 70
1, 24383, Note_on_c, 1, 62, 0
1, 24384, Note_on_c, 0, 70, 81
1, 24384, Note_on_c, 0, 67, 81
1, 24384, Note_on_c, 1, 61, 70
1, 24407, Note_on_c, 1, 61, 0
1, 24408, Note_on_c, 1, 62, 70
1, 24431, Note_on_c, 1, 62, 0
1, 24432, Note_on_c, 0, 70, 0
1, 24432, Note_on_c, 0, 67, 0
1, 24432, Note_on_c, 0, 69, 81
1, 24432, Note_on_c, 0, 66, 81
1, 24432, Note_on_c, 1, 50, 70
1, 24455, Note_on_c, 1, 50, 0
1, 24456, Note_on_c, 1, 62, 70
1, 24477, Note_on_c, 0, 69, 0
1, 24477, Note_on_c, 0, 66, 0
1, 24479, Note_on_c, 1, 62, 0
1, 24480, Note_on_c, 1, 50, 70
1, 24503, Note_on_c, 1, 50, 0
1, 24504, Note_on_c, 1, 62, 70
1, 24527, Note_on_c, 1, 62, 0
1, 24528, Note_on_c, 0, 86, 81
1, 24528, Note_on_c, 0, 82, 81
1, 24528, Note_on_c, 1, 61, 70
1, 24551, Note_on_c, 1, 61, 0
1, 24552, Note_on_c, 1, 62, 70
1, 24575, Note_on_c, 1, 62, 0
1, 24576, Note_on_c, 0, 86, 0
1, 24576, Note_on_c, 0, 82, 0
1, 24576, Note_on_c, 0, 84, 81
1, 24576, Note_on_c, 0, 81, 81
1, 24576, Note_on_c, 1, 50, 70
1, 24599, Note_on_c, 1, 50, 0
1, 24600, Note_on_c, 1, 62, 70
1, 24621, Note_on_c, 0, 84, 0
1, 24621, Note_on_c, 0, 81, 0
1, 24623, Note_on_c, 1, 62, 0
1, 24624, Note_on_c, 1, 50, 70
1, 24647, Note_on_c, 1, 50, 0
1, 24648, Note_on_c, 1, 62, 70
1, 24671, Note_on_c, 1, 62, 0
1, 24672, Note_on_c, 0, 82, 81
1, 24672, Note_on_c, 0, 79, 81
1, 24672, Note_on_c, 1, 61, 70
1, 24695, Note_on_c, 1, 61, 0
1, 24696, Note_on_c, 1, 62, 70
1, 24719, Note_on_c, 1, 62, 0
1, 24720, Note_on_c, 0, 82, 0
1, 24720, Note_on_c, 0, 79, 0
1, 24720, Note_on_c, 0, 81, 81
1, 24720, Note_on_c, 0, 78, 81
1, 24720, Note_on_c, 1, 50, 70
1, 24743, Note_on_c, 1, 50, 0
1, 24744, Note_on_c, 1, 62, 70
1, 24765, Note_on_c, 0, 81, 0
1, 24765, Note_on_c, 0, 78, 0
1, 24767, Note_on_c, 1, 62, 0
1, 24768, Note_on_c, 0, 79, 81
1, 24768, Note_on_c, 1, 59, 81
1, 24768, Note_on_c, 1, 47, 81
1, 24813, Note_on_c, 0, 79, 0
1, 24816, Note_on_c, 0, 67, 81
1, 24831, Note_on_c, 0, 67, 0
1, 24832, Note_on_c, 0, 71, 81
1, 24847, Note_on_c, 0, 71, 0
1, 24848, Note_on_c, 0, 74, 81
1, 24857, Note_on_c, 1, 59, 0
1, 24857, Note_on_c, 1, 47, 0
1, 24863, Note_on_c, 0, 74, 0
1, 24864, Note_on_c, 0, 79, 81
1, 24879, Note_on_c, 0, 79, 0
1, 24880, Note_on_c, 0, 83, 81
1, 24895, Note_on_c, 0, 83, 0
1, 24896, Note_on_c, 0, 86, 81
1, 24911, Note_on_c, 0, 86, 0
1, 24912, Note_on_c, 0, 76, 81
1, 24912, Note_on_c, 1, 60, 81
1, 24912, Note_on_c, 1, 48, 81
1, 24957, Note_on_c, 0, 76, 0
1, 24960, Note_on_c, 0, 84, 81
1, 24975, Note_on_c, 0, 84, 0
1, 24976, Note_on_c, 0, 83, 81
1, 24991, Note_on_c, 0, 83, 0
1, 24992, Note_on_c, 0, 81, 81
1, 25001, Note_on_c, 1, 60, 0
1, 25001, Note_on_c, 1, 48, 0
1, 25007, Note_on_c, 0, 81, 0
1, 25008, Note_on_c, 0, 79, 81
1, 25023, Note_on_c, 0, 79, 0
1, 25024, Note_on_c, 0, 78, 81
1, 25039, Note_on_c, 0, 78, 0
1, 25040, Note_on_c, 0, 76, 81
1, 25055, Note_on_c, 0, 76, 0
1, 25056, Note_on_c, 0, 74, 81
1, 25056, Note_on_c, 0, 50, 64
1, 25101, Note_on_c, 0, 74, 0
1, 25104, Note_on_c, 0, 79, 75
1, 25104, Note_on_c, 1, 59, 75
1, 25149, Note_on_c, 0, 79, 0
1, 25149, Note_on_c, 1, 59, 0
1, 25152, Note_on_c, 0, 78, 75
1, 25152, Note_on_c, 1, 57, 75
1, 25164, Note_on_c, 0, 78, 0
1, 25164, Note_on_c, 0, 79, 75
1, 25176, Note_on_c, 0, 79, 0
1, 25176, Note_on_c, 0, 78, 75
1, 25189, Note_on_c, 0, 50, 0
1, 25197, Note_on_c, 0, 78, 0
1, 25197, Note_on_c, 1, 57, 0
1, 25200, Note_on_c, 0, 79, 75
1, 25200, Note_on_c, 1, 43, 75
1, 25223, Note_on_c, 1, 43, 0
1, 25224, Note_on_c, 1, 55, 75
1, 25245, Note_on_c, 0, 79, 0
1, 25247, Note_on_c, 1, 55, 0
1, 25248, Note_on_c, 0, 79, 75
1, 25248, Note_on_c, 0, 76, 75
1, 25248, Note_on_c, 1, 43, 75
1, 25271, Note_on_c, 1, 43, 0
1, 25272, Note_on_c, 1, 55, 75
1, 25293, Note_on_c, 0, 79, 0
1, 25293, Note_on_c, 0, 76, 0
1, 25295, Note_on_c, 1, 55, 0
1, 25296, Note_on_c, 0, 78, 75
1, 25296, Note_on_c, 0, 74, 75
1, 25296, Note_on_c, 1, 43, 75
1, 25319, Note_on_c, 1, 43, 0
1, 25320, Note_on_c, 1, 55, 75
1, 25341, Note_on_c, 0, 78, 0
1, 25341, Note_on_c, 0, 74, 0
1, 25343, Note_on_c, 1, 55, 0
1, 25344, Note_on_c, 0, 76, 75
1, 25344, Note_on_c, 0, 72, 75
1, 25344, Note_on_c, 1, 43, 75
1, 25367, Note_on_c, 1, 43, 0
1, 25368, Note_on_c, 1, 55, 75
1, 25389, Note_on_c, 0, 76, 0
1, 25389, Note_on_c, 0, 72, 0
1, 25391, Note_on_c, 1, 55, 0
1, 25392, Note_on_c, 0, 74, 75
1, 25392, Note_on_c, 0, 71, 75
1, 25392, Note_on_c, 1, 43, 75
1, 25415, Note_on_c, 1, 43, 0
1, 25416, Note_on_c, 1, 55, 75
1, 25437, Note_on_c, 0, 74, 0
1, 25437, Note_on_c, 0, 71, 0
1, 25439, Note_on_c, 1, 55, 0
1, 25440, Note_on_c, 0, 72, 75
1, 25440, Note_on_c, 0, 69, 75
1, 25440, Note_on_c, 1, 43, 75
1, 25463, Note_on_c, 1, 43, 0
1, 25464, Note_on_c, 1, 55, 75
1, 25485, Note_on_c, 0, 72, 0
1, 25485, Note_on_c, 0, 69, 0
1, 25487, Note_on_c, 1, 55, 0
1, 25488, Note_on_c, 0, 71, 75
1, 25488, Note_on_c, 0, 67, 75
1, 25488, Note_on_c, 1, 43, 75
1, 25511, Note_on_c, 1, 43, 0
1, 25512, Note_on_c, 1, 55, 75
1, 25533, Note_on_c, 0, 71, 0
1, 25533, Note_on_c, 0, 67, 0
1, 25535, Note_on_c, 1, 55, 0
1, 25536, Note_on_c, 0, 76, 75
1, 25536, Note_on_c, 0, 72, 75
1, 25536, Note_on_c, 1, 43, 75
1, 25559, Note_on_c, 1, 43, 0
1, 25560, Note_on_c, 1, 55, 75
1, 25581, Note_on_c, 0, 76, 0
1, 25581, Note_on_c, 0, 72, 0
1, 25583, Note_on_c, 1, 55, 0
1, 25584, Note_on_c, 0, 74, 75
1, 25584, Note_on_c, 0, 71, 75
1, 25584, Note_on_c, 1, 43, 75
1, 25607, Note_on_c, 1, 43, 0
1, 25608, Note_on_c, 1, 55, 75
1, 25629, Note_on_c, 0, 74, 0
1, 25629, Note_on_c, 0, 71, 0
1, 25631, Note_on_c, 1, 55, 0
1, 25632, Note_on_c, 0, 72, 75
1, 25632, Note_on_c, 0, 69, 75
1, 25632, Note_on_c, 1, 43, 75
1, 25655, Note_on_c, 1, 43, 0
1, 25656, Note_on_c, 1, 55, 75
1, 25677, Note_on_c, 0, 72, 0
1, 25677, Note_on_c, 0, 69, 0
1, 25679, Note_on_c, 1, 55, 0
1, 25680, Note_on_c, 0, 71, 75
1, 25680, Note_on_c, 0, 67, 75
1, 25680, Note_on_c, 1, 43, 75
1, 25703, Note_on_c, 1, 43, 0
1, 25704, Note_on_c, 1, 55, 75
1, 25725, Note_on_c, 0, 71, 0
1, 25725, Note_on_c, 0, 67, 0
1, 25727, Note_on_c, 1, 55, 0
1, 25728, Note_on_c, 0, 69, 75
1, 25728, Note_on_c, 0, 66, 75
1, 25728, Note_on_c, 1, 43, 75
1, 25751, Note_on_c, 1, 43, 0
1, 25752, Note_on_c, 1, 55, 75
1, 25773, Note_on_c, 0, 69, 0
1, 25773, Note_on_c, 0, 66, 0
1, 25775, Note_on_c, 1, 55, 0
1, 25776, Note_on_c, 0, 71, 75
1, 25776, Note_on_c, 0, 67, 75
1, 25776, Note_on_c, 0, 62, 75
1, 25776, Note_on_c, 1, 43, 75
1, 25865, Note_on_c, 0, 71, 0
1, 25865, Note_on_c, 0, 67, 0
1, 25865, Note_on_c, 0, 62, 0
1, 25865, Note_on_c, 1, 43, 0
1, 25920, Note_on_c, 1, 43, 0
1, 25965, Note_on_c, 1, 43, 0
1, 25975, End_track
0, 0, End_of_file